0, 0, Header, 0, 1, 384
1, 0, Start_track
1, 0, Title_t, "Hungarian Rhapsody No.9--N.Huang"
1, 0, Text_t, "2008 e-Piano Junior Competition recital round"
1, 0, Text_t, "recorded July 2008"
1, 0, Text_t, "http://www.piano-e-competition.com/"
1, 0, Text_t, "File processed for distribution by software from Zenph Studios, Inc., http://www.zenph.com"
1, 0, Instrument_name_t, "Yamaha Disklavier Pro Mark IV concert grand piano, model DCFIIISM4PRO"
1, 0, Sequencer_specific, 39, 67, 113, 0, 1, 0, 1, 0, 72, 117, 110, 103, 97, 114, 105, 97, 110, 32, 82, 104, 97, 112, 46, 57, 78, 97, 110, 115, 111, 110, 103, 32, 72, 117, 97, 110, 103, 32, 32, 32
1, 0, Sequencer_specific, 6, 67, 113, 0, 0, 0, 69
1, 0, System_exclusive, 21, 67, 113, 126, 21, 0, 2, 2, 0, 3, 14, 1, 4, 1, 13, 13, 10, 11, 9, 2, 7, 247
1, 0, Sequencer_specific, 5, 67, 123, 12, 2, 1
1, 0, Tempo, 512820
1, 0, Time_signature, 4, 2, 24, 8
1, 0, System_exclusive, 5, 126, 127, 9, 1, 247
1, 1, System_exclusive, 8, 67, 16, 76, 0, 0, 126, 0, 247
1, 2, System_exclusive, 8, 67, 16, 76, 8, 9, 7, 1, 247
1, 3, Control_c, 0, 0, 0
1, 3, Control_c, 1, 0, 0
1, 3, Control_c, 2, 0, 0
1, 3, Control_c, 3, 0, 0
1, 3, Control_c, 4, 0, 0
1, 3, Control_c, 5, 0, 0
1, 3, Control_c, 6, 0, 0
1, 3, Control_c, 7, 0, 0
1, 3, Control_c, 8, 0, 0
1, 3, Control_c, 9, 0, 127
1, 3, Control_c, 10, 0, 0
1, 3, Control_c, 11, 0, 0
1, 3, Control_c, 12, 0, 0
1, 3, Control_c, 13, 0, 0
1, 3, Control_c, 14, 0, 0
1, 3, Control_c, 15, 0, 0
1, 4, Control_c, 0, 32, 0
1, 4, Control_c, 1, 32, 0
1, 4, Control_c, 2, 32, 0
1, 4, Control_c, 3, 32, 0
1, 4, Control_c, 4, 32, 0
1, 4, Control_c, 5, 32, 0
1, 4, Control_c, 6, 32, 0
1, 4, Control_c, 7, 32, 0
1, 4, Control_c, 8, 32, 0
1, 4, Control_c, 9, 32, 0
1, 4, Control_c, 10, 32, 0
1, 4, Control_c, 11, 32, 0
1, 4, Control_c, 12, 32, 0
1, 4, Control_c, 13, 32, 0
1, 4, Control_c, 14, 32, 0
1, 4, Control_c, 15, 32, 0
1, 5, Program_c, 0, 0
1, 5, Program_c, 1, 0
1, 5, Program_c, 2, 0
1, 5, Program_c, 3, 0
1, 5, Program_c, 4, 0
1, 5, Program_c, 5, 0
1, 5, Program_c, 6, 0
1, 5, Program_c, 7, 0
1, 5, Program_c, 8, 0
1, 5, Program_c, 9, 0
1, 5, Program_c, 10, 0
1, 5, Program_c, 11, 0
1, 5, Program_c, 12, 0
1, 5, Program_c, 13, 0
1, 5, Program_c, 14, 0
1, 5, Program_c, 15, 0
1, 6, Control_c, 0, 7, 100
1, 6, Control_c, 1, 7, 100
1, 6, Control_c, 2, 7, 100
1, 6, Control_c, 3, 7, 100
1, 6, Control_c, 4, 7, 100
1, 6, Control_c, 5, 7, 100
1, 6, Control_c, 6, 7, 100
1, 6, Control_c, 7, 7, 100
1, 6, Control_c, 8, 7, 100
1, 6, Control_c, 9, 7, 100
1, 6, Control_c, 10, 7, 100
1, 6, Control_c, 11, 7, 100
1, 6, Control_c, 12, 7, 100
1, 6, Control_c, 13, 7, 100
1, 6, Control_c, 14, 7, 100
1, 6, Control_c, 15, 7, 100
1, 117, Control_c, 0, 64, 12
1, 229, Control_c, 0, 64, 25
1, 341, Control_c, 0, 64, 37
1, 452, Control_c, 0, 64, 50
1, 564, Control_c, 0, 64, 62
1, 676, Control_c, 0, 64, 75
1, 787, Control_c, 0, 64, 87
1, 899, Control_c, 0, 64, 101
1, 1130, Note_on_c, 0, 34, 65
1, 1136, Note_on_c, 0, 46, 78
1, 1169, Note_off_c, 0, 46, 66
1, 1169, Control_c, 0, 64, 101
1, 1176, Note_off_c, 0, 34, 62
1, 1185, Control_c, 0, 64, 98
1, 1200, Control_c, 0, 64, 91
1, 1215, Control_c, 0, 64, 81
1, 1222, Note_on_c, 0, 51, 94
1, 1224, Note_on_c, 0, 39, 91
1, 1229, Note_on_c, 0, 27, 79
1, 1229, Control_c, 0, 64, 67
1, 1251, Control_c, 0, 64, 0
1, 1355, Control_c, 0, 64, 30
1, 1370, Control_c, 0, 64, 54
1, 1385, Control_c, 0, 64, 62
1, 1400, Control_c, 0, 64, 65
1, 1412, Note_off_c, 0, 27, 62
1, 1415, Control_c, 0, 64, 69
1, 1430, Control_c, 0, 64, 73
1, 1445, Control_c, 0, 64, 78
1, 1460, Control_c, 0, 64, 81
1, 1475, Control_c, 0, 64, 82
1, 1490, Control_c, 0, 64, 83
1, 1505, Control_c, 0, 64, 84
1, 1520, Control_c, 0, 64, 85
1, 1534, Control_c, 0, 64, 85
1, 1536, Note_off_c, 0, 39, 56
1, 1549, Control_c, 0, 64, 86
1, 1564, Control_c, 0, 64, 86
1, 1578, Control_c, 0, 64, 87
1, 1593, Control_c, 0, 64, 87
1, 1604, Note_off_c, 0, 51, 57
1, 1667, Control_c, 0, 64, 88
1, 1741, Control_c, 0, 64, 88
1, 1771, Control_c, 0, 64, 89
1, 1785, Control_c, 0, 64, 89
1, 1866, Note_on_c, 0, 43, 73
1, 1873, Note_on_c, 0, 31, 60
1, 1874, Note_on_c, 0, 55, 81
1, 1874, Control_c, 0, 64, 87
1, 1889, Control_c, 0, 64, 84
1, 1895, Note_off_c, 0, 43, 63
1, 1904, Control_c, 0, 64, 78
1, 1904, Note_off_c, 0, 31, 52
1, 1909, Note_off_c, 0, 55, 63
1, 1919, Control_c, 0, 64, 67
1, 1934, Control_c, 0, 64, 48
1, 1949, Control_c, 0, 64, 0
1, 1957, Note_on_c, 0, 56, 93
1, 1958, Note_on_c, 0, 44, 92
1, 1965, Note_on_c, 0, 32, 86
1, 1983, Note_off_c, 0, 56, 64
1, 2011, Note_off_c, 0, 44, 62
1, 2035, Note_off_c, 0, 32, 56
1, 2333, Note_on_c, 0, 57, 102
1, 2343, Note_on_c, 0, 45, 89
1, 2348, Note_on_c, 0, 33, 80
1, 2363, Note_off_c, 0, 57, 68
1, 2378, Note_off_c, 0, 45, 65
1, 2387, Note_off_c, 0, 33, 63
1, 2813, Note_on_c, 0, 46, 103
1, 2817, Note_on_c, 0, 58, 102
1, 2818, Note_on_c, 0, 34, 86
1, 2823, Control_c, 0, 64, 36
1, 2838, Control_c, 0, 64, 57
1, 2853, Control_c, 0, 64, 65
1, 2868, Control_c, 0, 64, 70
1, 2882, Control_c, 0, 64, 79
1, 2897, Control_c, 0, 64, 85
1, 2912, Control_c, 0, 64, 88
1, 2927, Control_c, 0, 64, 90
1, 2942, Control_c, 0, 64, 92
1, 2956, Control_c, 0, 64, 93
1, 2971, Control_c, 0, 64, 94
1, 2986, Control_c, 0, 64, 95
1, 3001, Control_c, 0, 64, 96
1, 3015, Note_off_c, 0, 34, 51
1, 3016, Note_off_c, 0, 46, 54
1, 3016, Control_c, 0, 64, 98
1, 3031, Control_c, 0, 64, 99
1, 3046, Control_c, 0, 64, 101
1, 3061, Control_c, 0, 64, 101
1, 3076, Control_c, 0, 64, 102
1, 3091, Control_c, 0, 64, 102
1, 3105, Control_c, 0, 64, 103
1, 3120, Control_c, 0, 64, 103
1, 3135, Control_c, 0, 64, 104
1, 3150, Control_c, 0, 64, 105
1, 3165, Control_c, 0, 64, 106
1, 3180, Control_c, 0, 64, 107
1, 3195, Control_c, 0, 64, 108
1, 3206, Note_off_c, 0, 58, 60
1, 3210, Control_c, 0, 64, 109
1, 3224, Control_c, 0, 64, 110
1, 3239, Control_c, 0, 64, 110
1, 3254, Control_c, 0, 64, 111
1, 3269, Control_c, 0, 64, 111
1, 3284, Control_c, 0, 64, 112
1, 3298, Control_c, 0, 64, 112
1, 3313, Control_c, 0, 64, 113
1, 3328, Control_c, 0, 64, 113
1, 3357, Control_c, 0, 64, 114
1, 3372, Control_c, 0, 64, 114
1, 3387, Control_c, 0, 64, 115
1, 3402, Control_c, 0, 64, 116
1, 3417, Control_c, 0, 64, 117
1, 3431, Control_c, 0, 64, 118
1, 3446, Control_c, 0, 64, 121
1, 3461, Control_c, 0, 64, 127
1, 3476, Control_c, 0, 64, 127
1, 3680, Note_on_c, 0, 87, 102
1, 3684, Note_on_c, 0, 79, 87
1, 3686, Note_on_c, 0, 75, 94
1, 3686, Note_on_c, 0, 82, 88
1, 3696, Note_on_c, 0, 67, 89
1, 3698, Note_on_c, 0, 63, 81
1, 3700, Note_on_c, 0, 55, 81
1, 3705, Note_on_c, 0, 58, 74
1, 3721, Note_off_c, 0, 75, 63
1, 3724, Note_off_c, 0, 79, 65
1, 3734, Note_off_c, 0, 87, 66
1, 3737, Note_off_c, 0, 67, 62
1, 3738, Note_off_c, 0, 82, 66
1, 3755, Note_off_c, 0, 63, 62
1, 3761, Note_off_c, 0, 55, 61
1, 3770, Note_off_c, 0, 58, 57
1, 4136, Control_c, 0, 64, 123
1, 4151, Control_c, 0, 64, 113
1, 4166, Control_c, 0, 64, 107
1, 4180, Control_c, 0, 64, 102
1, 4195, Control_c, 0, 64, 97
1, 4210, Control_c, 0, 64, 92
1, 4225, Control_c, 0, 64, 85
1, 4240, Control_c, 0, 64, 80
1, 4262, Control_c, 0, 64, 74
1, 4277, Control_c, 0, 64, 67
1, 4292, Control_c, 0, 64, 56
1, 4306, Control_c, 0, 64, 20
1, 4321, Control_c, 0, 64, 0
1, 4512, Note_on_c, 0, 46, 86
1, 4517, Note_on_c, 0, 34, 77
1, 4543, Note_off_c, 0, 46, 67
1, 4554, Note_off_c, 0, 34, 66
1, 4596, Note_on_c, 0, 51, 96
1, 4604, Note_on_c, 0, 39, 94
1, 4610, Note_on_c, 0, 27, 87
1, 4644, Note_on_c, 0, 34, 23
1, 4645, Note_off_c, 0, 34, 127
1, 4663, Control_c, 0, 64, 48
1, 4677, Control_c, 0, 64, 63
1, 4692, Control_c, 0, 64, 68
1, 4707, Control_c, 0, 64, 75
1, 4721, Control_c, 0, 64, 84
1, 4736, Control_c, 0, 64, 93
1, 4751, Note_off_c, 0, 27, 63
1, 4751, Control_c, 0, 64, 103
1, 4766, Control_c, 0, 64, 115
1, 4781, Control_c, 0, 64, 127
1, 4819, Note_off_c, 0, 39, 60
1, 4957, Note_off_c, 0, 51, 60
1, 5217, Note_on_c, 0, 43, 76
1, 5220, Note_on_c, 0, 55, 90
1, 5229, Note_on_c, 0, 31, 55
1, 5241, Note_off_c, 0, 43, 65
1, 5262, Note_off_c, 0, 55, 65
1, 5264, Note_off_c, 0, 31, 53
1, 5277, Control_c, 0, 64, 109
1, 5292, Control_c, 0, 64, 99
1, 5307, Control_c, 0, 64, 89
1, 5308, Note_on_c, 0, 58, 103
1, 5311, Note_on_c, 0, 46, 99
1, 5311, Note_on_c, 0, 34, 94
1, 5321, Control_c, 0, 64, 80
1, 5336, Control_c, 0, 64, 72
1, 5344, Note_off_c, 0, 58, 68
1, 5351, Control_c, 0, 64, 64
1, 5358, Note_off_c, 0, 46, 60
1, 5366, Control_c, 0, 64, 42
1, 5368, Note_off_c, 0, 34, 61
1, 5381, Control_c, 0, 64, 0
1, 5693, Note_on_c, 0, 60, 106
1, 5699, Note_on_c, 0, 48, 100
1, 5704, Note_on_c, 0, 36, 86
1, 5726, Note_off_c, 0, 60, 65
1, 5755, Note_off_c, 0, 36, 54
1, 5762, Note_off_c, 0, 48, 55
1, 5863, Control_c, 0, 64, 13
1, 5878, Control_c, 0, 64, 15
1, 5893, Control_c, 0, 64, 18
1, 5908, Control_c, 0, 64, 21
1, 5982, Control_c, 0, 64, 23
1, 5997, Control_c, 0, 64, 24
1, 6012, Control_c, 0, 64, 25
1, 6041, Control_c, 0, 64, 28
1, 6056, Control_c, 0, 64, 31
1, 6070, Control_c, 0, 64, 32
1, 6085, Control_c, 0, 64, 33
1, 6115, Control_c, 0, 64, 32
1, 6130, Control_c, 0, 64, 32
1, 6159, Control_c, 0, 64, 35
1, 6174, Control_c, 0, 64, 44
1, 6189, Control_c, 0, 64, 58
1, 6199, Note_on_c, 0, 61, 113
1, 6204, Control_c, 0, 64, 66
1, 6206, Note_on_c, 0, 49, 99
1, 6211, Note_on_c, 0, 37, 88
1, 6220, Control_c, 0, 64, 74
1, 6235, Control_c, 0, 64, 87
1, 6249, Control_c, 0, 64, 97
1, 6264, Control_c, 0, 64, 103
1, 6279, Control_c, 0, 64, 106
1, 6294, Control_c, 0, 64, 108
1, 6309, Control_c, 0, 64, 108
1, 6331, Note_off_c, 0, 37, 62
1, 6338, Control_c, 0, 64, 109
1, 6367, Control_c, 0, 64, 109
1, 6376, Note_off_c, 0, 49, 56
1, 6382, Control_c, 0, 64, 110
1, 6397, Control_c, 0, 64, 110
1, 6412, Control_c, 0, 64, 111
1, 6427, Control_c, 0, 64, 112
1, 6441, Control_c, 0, 64, 112
1, 6456, Control_c, 0, 64, 113
1, 6471, Control_c, 0, 64, 113
1, 6494, Control_c, 0, 64, 114
1, 6509, Control_c, 0, 64, 115
1, 6523, Control_c, 0, 64, 116
1, 6538, Control_c, 0, 64, 116
1, 6542, Note_off_c, 0, 61, 52
1, 6553, Control_c, 0, 64, 117
1, 6567, Control_c, 0, 64, 117
1, 6582, Control_c, 0, 64, 118
1, 6597, Control_c, 0, 64, 120
1, 6612, Control_c, 0, 64, 122
1, 6627, Control_c, 0, 64, 125
1, 6641, Control_c, 0, 64, 127
1, 7050, Note_on_c, 0, 91, 105
1, 7052, Note_on_c, 0, 79, 103
1, 7055, Note_on_c, 0, 82, 99
1, 7058, Note_on_c, 0, 87, 90
1, 7062, Note_on_c, 0, 70, 104
1, 7067, Note_on_c, 0, 67, 86
1, 7067, Note_on_c, 0, 58, 88
1, 7068, Note_on_c, 0, 63, 87
1, 7084, Note_off_c, 0, 79, 66
1, 7098, Note_off_c, 0, 82, 68
1, 7100, Note_off_c, 0, 91, 64
1, 7100, Note_off_c, 0, 70, 66
1, 7111, Note_off_c, 0, 87, 64
1, 7124, Note_off_c, 0, 67, 60
1, 7140, Note_off_c, 0, 58, 62
1, 7154, Note_off_c, 0, 63, 62
1, 7568, Control_c, 0, 64, 125
1, 7583, Control_c, 0, 64, 107
1, 7598, Control_c, 0, 64, 97
1, 7613, Control_c, 0, 64, 89
1, 7627, Control_c, 0, 64, 82
1, 7642, Control_c, 0, 64, 76
1, 7657, Control_c, 0, 64, 70
1, 7672, Control_c, 0, 64, 64
1, 7687, Control_c, 0, 64, 61
1, 7702, Control_c, 0, 64, 60
1, 7731, Control_c, 0, 64, 61
1, 7746, Control_c, 0, 64, 60
1, 7761, Control_c, 0, 64, 57
1, 7776, Control_c, 0, 64, 54
1, 7790, Control_c, 0, 64, 50
1, 7805, Control_c, 0, 64, 44
1, 7821, Control_c, 0, 64, 28
1, 7833, Note_on_c, 0, 36, 77
1, 7836, Control_c, 0, 64, 0
1, 7836, Note_on_c, 0, 24, 69
1, 7841, Note_on_c, 0, 48, 90
1, 7859, Note_off_c, 0, 36, 63
1, 7869, Note_off_c, 0, 24, 59
1, 7875, Note_off_c, 0, 48, 67
1, 7920, Note_on_c, 0, 51, 100
1, 7927, Note_on_c, 0, 39, 97
1, 7928, Note_on_c, 0, 27, 97
1, 8051, Control_c, 0, 64, 40
1, 8066, Control_c, 0, 64, 62
1, 8081, Control_c, 0, 64, 67
1, 8094, Note_off_c, 0, 27, 62
1, 8095, Control_c, 0, 64, 73
1, 8110, Control_c, 0, 64, 79
1, 8121, Note_off_c, 0, 51, 56
1, 8125, Control_c, 0, 64, 83
1, 8140, Control_c, 0, 64, 85
1, 8154, Control_c, 0, 64, 87
1, 8169, Control_c, 0, 64, 89
1, 8174, Note_off_c, 0, 39, 56
1, 8184, Control_c, 0, 64, 89
1, 8199, Control_c, 0, 64, 90
1, 8214, Control_c, 0, 64, 91
1, 8243, Control_c, 0, 64, 92
1, 8258, Control_c, 0, 64, 92
1, 8288, Control_c, 0, 64, 93
1, 8302, Control_c, 0, 64, 93
1, 8332, Control_c, 0, 64, 94
1, 8376, Control_c, 0, 64, 94
1, 8406, Control_c, 0, 64, 95
1, 8435, Control_c, 0, 64, 95
1, 8465, Control_c, 0, 64, 96
1, 8480, Control_c, 0, 64, 96
1, 8495, Control_c, 0, 64, 97
1, 8510, Control_c, 0, 64, 99
1, 8512, Note_on_c, 0, 56, 79
1, 8513, Note_on_c, 0, 32, 58
1, 8521, Note_on_c, 0, 44, 53
1, 8525, Control_c, 0, 64, 104
1, 8538, Note_off_c, 0, 56, 64
1, 8539, Control_c, 0, 64, 107
1, 8545, Note_off_c, 0, 32, 62
1, 8549, Note_off_c, 0, 44, 58
1, 8554, Control_c, 0, 64, 109
1, 8599, Control_c, 0, 64, 108
1, 8614, Control_c, 0, 64, 102
1, 8628, Note_on_c, 0, 60, 91
1, 8629, Control_c, 0, 64, 89
1, 8644, Control_c, 0, 64, 76
1, 8652, Note_on_c, 0, 48, 77
1, 8658, Note_on_c, 0, 36, 61
1, 8659, Control_c, 0, 64, 61
1, 8674, Control_c, 0, 64, 0
1, 8704, Control_c, 0, 64, 46
1, 8718, Control_c, 0, 64, 65
1, 8733, Control_c, 0, 64, 70
1, 8755, Control_c, 0, 64, 76
1, 8769, Control_c, 0, 64, 81
1, 8784, Control_c, 0, 64, 84
1, 8799, Control_c, 0, 64, 86
1, 8800, Note_off_c, 0, 36, 57
1, 8809, Note_off_c, 0, 48, 62
1, 8814, Control_c, 0, 64, 90
1, 8829, Control_c, 0, 64, 93
1, 8832, Note_off_c, 0, 60, 58
1, 8844, Control_c, 0, 64, 96
1, 8859, Control_c, 0, 64, 98
1, 8874, Control_c, 0, 64, 100
1, 8888, Control_c, 0, 64, 101
1, 8903, Control_c, 0, 64, 102
1, 8914, Note_on_c, 0, 61, 100
1, 8918, Control_c, 0, 64, 104
1, 8930, Note_on_c, 0, 49, 88
1, 8933, Note_on_c, 0, 37, 81
1, 8933, Control_c, 0, 64, 105
1, 8948, Control_c, 0, 64, 106
1, 8963, Control_c, 0, 64, 107
1, 8977, Control_c, 0, 64, 109
1, 8992, Control_c, 0, 64, 110
1, 9007, Control_c, 0, 64, 111
1, 9014, Note_off_c, 0, 61, 61
1, 9022, Control_c, 0, 64, 113
1, 9032, Note_off_c, 0, 49, 60
1, 9034, Note_off_c, 0, 37, 63
1, 9037, Control_c, 0, 64, 115
1, 9051, Control_c, 0, 64, 119
1, 9066, Control_c, 0, 64, 127
1, 9081, Control_c, 0, 64, 127
1, 9084, Note_on_c, 0, 62, 109
1, 9104, Note_on_c, 0, 50, 94
1, 9106, Note_on_c, 0, 38, 86
1, 9163, Note_off_c, 0, 62, 61
1, 9181, Note_off_c, 0, 50, 60
1, 9184, Note_off_c, 0, 38, 61
1, 9252, Note_on_c, 0, 63, 117
1, 9266, Note_on_c, 0, 39, 99
1, 9266, Note_on_c, 0, 51, 104
1, 9273, Control_c, 0, 64, 116
1, 9288, Control_c, 0, 64, 85
1, 9303, Control_c, 0, 64, 55
1, 9318, Control_c, 0, 64, 0
1, 9467, Control_c, 0, 64, 58
1, 9489, Control_c, 0, 64, 63
1, 9504, Control_c, 0, 64, 66
1, 9518, Control_c, 0, 64, 71
1, 9533, Control_c, 0, 64, 78
1, 9545, Note_off_c, 0, 39, 55
1, 9548, Control_c, 0, 64, 85
1, 9563, Control_c, 0, 64, 90
1, 9568, Note_off_c, 0, 51, 52
1, 9578, Control_c, 0, 64, 93
1, 9592, Control_c, 0, 64, 96
1, 9607, Control_c, 0, 64, 98
1, 9622, Control_c, 0, 64, 99
1, 9637, Control_c, 0, 64, 100
1, 9652, Control_c, 0, 64, 102
1, 9660, Note_off_c, 0, 63, 54
1, 9666, Control_c, 0, 64, 104
1, 9681, Control_c, 0, 64, 107
1, 9696, Control_c, 0, 64, 110
1, 9711, Control_c, 0, 64, 113
1, 9726, Control_c, 0, 64, 115
1, 9741, Control_c, 0, 64, 117
1, 9756, Control_c, 0, 64, 119
1, 9771, Control_c, 0, 64, 121
1, 9786, Control_c, 0, 64, 123
1, 9800, Control_c, 0, 64, 127
1, 9815, Control_c, 0, 64, 127
1, 10054, Note_on_c, 0, 92, 107
1, 10057, Note_on_c, 0, 80, 105
1, 10057, Note_on_c, 0, 84, 91
1, 10057, Note_on_c, 0, 87, 96
1, 10062, Note_on_c, 0, 68, 95
1, 10062, Note_on_c, 0, 72, 96
1, 10068, Note_on_c, 0, 60, 83
1, 10069, Note_on_c, 0, 63, 87
1, 10086, Note_off_c, 0, 80, 69
1, 10095, Note_off_c, 0, 72, 69
1, 10096, Note_off_c, 0, 84, 64
1, 10099, Note_off_c, 0, 92, 66
1, 10102, Note_off_c, 0, 87, 67
1, 10115, Note_off_c, 0, 68, 65
1, 10119, Note_off_c, 0, 60, 60
1, 10134, Note_off_c, 0, 63, 64
1, 10547, Control_c, 0, 64, 115
1, 10562, Control_c, 0, 64, 104
1, 10577, Control_c, 0, 64, 94
1, 10592, Control_c, 0, 64, 84
1, 10607, Control_c, 0, 64, 76
1, 10621, Control_c, 0, 64, 67
1, 10636, Control_c, 0, 64, 47
1, 10651, Control_c, 0, 64, 20
1, 10666, Control_c, 0, 64, 23
1, 10681, Control_c, 0, 64, 31
1, 10695, Control_c, 0, 64, 35
1, 10725, Control_c, 0, 64, 34
1, 10769, Control_c, 0, 64, 36
1, 10784, Control_c, 0, 64, 40
1, 10799, Control_c, 0, 64, 42
1, 10814, Control_c, 0, 64, 38
1, 10822, Note_on_c, 0, 36, 77
1, 10825, Note_on_c, 0, 48, 92
1, 10826, Note_on_c, 0, 24, 70
1, 10829, Control_c, 0, 64, 33
1, 10844, Control_c, 0, 64, 20
1, 10846, Note_off_c, 0, 36, 67
1, 10858, Control_c, 0, 64, 0
1, 10859, Note_off_c, 0, 24, 60
1, 10861, Note_off_c, 0, 48, 67
1, 10909, Note_on_c, 0, 51, 110
1, 10915, Note_on_c, 0, 27, 98
1, 10915, Note_on_c, 0, 39, 103
1, 11060, Control_c, 0, 64, 54
1, 11075, Control_c, 0, 64, 65
1, 11090, Note_off_c, 0, 27, 61
1, 11090, Control_c, 0, 64, 71
1, 11105, Control_c, 0, 64, 78
1, 11119, Control_c, 0, 64, 85
1, 11122, Note_off_c, 0, 51, 53
1, 11134, Control_c, 0, 64, 87
1, 11149, Control_c, 0, 64, 88
1, 11154, Note_off_c, 0, 39, 55
1, 11163, Control_c, 0, 64, 89
1, 11178, Control_c, 0, 64, 89
1, 11208, Control_c, 0, 64, 90
1, 11237, Control_c, 0, 64, 90
1, 11252, Control_c, 0, 64, 91
1, 11282, Control_c, 0, 64, 91
1, 11312, Control_c, 0, 64, 92
1, 11342, Control_c, 0, 64, 92
1, 11356, Control_c, 0, 64, 93
1, 11386, Control_c, 0, 64, 93
1, 11416, Control_c, 0, 64, 94
1, 11430, Control_c, 0, 64, 95
1, 11445, Control_c, 0, 64, 96
1, 11460, Control_c, 0, 64, 97
1, 11475, Control_c, 0, 64, 98
1, 11477, Note_on_c, 0, 56, 79
1, 11484, Note_on_c, 0, 32, 56
1, 11489, Control_c, 0, 64, 99
1, 11492, Note_on_c, 0, 44, 46
1, 11504, Control_c, 0, 64, 100
1, 11509, Note_off_c, 0, 56, 62
1, 11518, Note_off_c, 0, 32, 56
1, 11524, Note_off_c, 0, 44, 51
1, 11578, Control_c, 0, 64, 96
1, 11593, Control_c, 0, 64, 85
1, 11597, Note_on_c, 0, 60, 90
1, 11608, Control_c, 0, 64, 71
1, 11623, Control_c, 0, 64, 0
1, 11625, Note_on_c, 0, 36, 66
1, 11628, Note_on_c, 0, 48, 66
1, 11682, Control_c, 0, 64, 59
1, 11696, Control_c, 0, 64, 66
1, 11711, Control_c, 0, 64, 70
1, 11715, Note_off_c, 0, 36, 58
1, 11723, Note_off_c, 0, 48, 63
1, 11726, Control_c, 0, 64, 74
1, 11749, Control_c, 0, 64, 77
1, 11763, Control_c, 0, 64, 80
1, 11778, Control_c, 0, 64, 82
1, 11789, Note_off_c, 0, 60, 60
1, 11793, Control_c, 0, 64, 85
1, 11808, Control_c, 0, 64, 88
1, 11824, Control_c, 0, 64, 91
1, 11839, Control_c, 0, 64, 94
1, 11854, Control_c, 0, 64, 98
1, 11858, Note_on_c, 0, 63, 97
1, 11862, Note_on_c, 0, 51, 81
1, 11863, Note_on_c, 0, 39, 78
1, 11868, Control_c, 0, 64, 102
1, 11883, Control_c, 0, 64, 109
1, 11898, Control_c, 0, 64, 120
1, 11912, Note_off_c, 0, 63, 65
1, 11912, Control_c, 0, 64, 127
1, 11913, Note_off_c, 0, 51, 62
1, 11914, Note_off_c, 0, 39, 59
1, 11984, Note_on_c, 0, 64, 102
1, 11991, Note_on_c, 0, 52, 87
1, 11992, Note_on_c, 0, 40, 89
1, 12016, Note_off_c, 0, 52, 69
1, 12021, Note_off_c, 0, 40, 67
1, 12027, Note_off_c, 0, 64, 66
1, 12078, Note_on_c, 0, 65, 101
1, 12084, Note_on_c, 0, 53, 90
1, 12093, Note_on_c, 0, 41, 78
1, 12106, Note_off_c, 0, 53, 70
1, 12114, Note_off_c, 0, 65, 68
1, 12121, Note_off_c, 0, 41, 68
1, 12164, Control_c, 0, 64, 101
1, 12176, Note_on_c, 0, 66, 114
1, 12179, Control_c, 0, 64, 79
1, 12179, Note_on_c, 0, 54, 109
1, 12182, Note_on_c, 0, 42, 100
1, 12194, Control_c, 0, 64, 0
1, 12386, Control_c, 0, 64, 35
1, 12401, Control_c, 0, 64, 64
1, 12416, Control_c, 0, 64, 66
1, 12431, Control_c, 0, 64, 69
1, 12446, Control_c, 0, 64, 74
1, 12460, Note_off_c, 0, 42, 57
1, 12460, Control_c, 0, 64, 78
1, 12483, Control_c, 0, 64, 82
1, 12498, Control_c, 0, 64, 85
1, 12510, Note_off_c, 0, 54, 54
1, 12512, Control_c, 0, 64, 88
1, 12527, Control_c, 0, 64, 92
1, 12542, Control_c, 0, 64, 94
1, 12552, Note_off_c, 0, 66, 47
1, 12557, Control_c, 0, 64, 96
1, 12572, Control_c, 0, 64, 97
1, 12586, Control_c, 0, 64, 98
1, 12601, Control_c, 0, 64, 99
1, 12617, Control_c, 0, 64, 101
1, 12632, Control_c, 0, 64, 102
1, 12647, Control_c, 0, 64, 103
1, 12662, Control_c, 0, 64, 105
1, 12677, Control_c, 0, 64, 106
1, 12691, Control_c, 0, 64, 108
1, 12706, Control_c, 0, 64, 109
1, 12721, Control_c, 0, 64, 110
1, 12735, Control_c, 0, 64, 112
1, 12750, Control_c, 0, 64, 113
1, 12765, Control_c, 0, 64, 114
1, 12780, Control_c, 0, 64, 115
1, 12795, Control_c, 0, 64, 115
1, 12809, Control_c, 0, 64, 116
1, 12824, Control_c, 0, 64, 117
1, 12839, Control_c, 0, 64, 118
1, 12854, Control_c, 0, 64, 120
1, 12869, Control_c, 0, 64, 121
1, 12883, Control_c, 0, 64, 123
1, 12898, Control_c, 0, 64, 127
1, 13056, Note_on_c, 0, 93, 109
1, 13059, Note_on_c, 0, 81, 106
1, 13059, Note_on_c, 0, 84, 100
1, 13062, Note_on_c, 0, 90, 99
1, 13065, Note_on_c, 0, 72, 88
1, 13065, Note_on_c, 0, 75, 107
1, 13070, Note_on_c, 0, 63, 96
1, 13070, Note_on_c, 0, 66, 87
1, 13085, Note_off_c, 0, 81, 65
1, 13091, Note_off_c, 0, 84, 70
1, 13092, Note_off_c, 0, 93, 66
1, 13102, Note_off_c, 0, 75, 70
1, 13104, Note_off_c, 0, 90, 67
1, 13115, Note_off_c, 0, 72, 66
1, 13116, Note_off_c, 0, 63, 66
1, 13127, Note_off_c, 0, 66, 66
1, 13721, Control_c, 0, 67, 10
1, 13736, Control_c, 0, 67, 17
1, 13751, Control_c, 0, 67, 23
1, 13765, Control_c, 0, 67, 29
1, 13780, Control_c, 0, 64, 127
1, 13780, Control_c, 0, 67, 33
1, 13795, Control_c, 0, 64, 116
1, 13795, Control_c, 0, 67, 38
1, 13810, Control_c, 0, 64, 109
1, 13810, Control_c, 0, 67, 44
1, 13825, Control_c, 0, 64, 103
1, 13825, Control_c, 0, 67, 50
1, 13840, Control_c, 0, 64, 98
1, 13840, Control_c, 0, 67, 55
1, 13855, Control_c, 0, 64, 92
1, 13855, Control_c, 0, 67, 60
1, 13869, Control_c, 0, 64, 86
1, 13869, Control_c, 0, 67, 63
1, 13884, Control_c, 0, 64, 78
1, 13884, Control_c, 0, 67, 66
1, 13899, Control_c, 0, 64, 69
1, 13899, Control_c, 0, 67, 71
1, 13914, Control_c, 0, 64, 51
1, 13914, Control_c, 0, 67, 75
1, 13929, Control_c, 0, 64, 0
1, 13929, Control_c, 0, 67, 79
1, 13944, Control_c, 0, 67, 82
1, 13959, Control_c, 0, 67, 84
1, 13974, Control_c, 0, 67, 88
1, 13996, Control_c, 0, 67, 91
1, 14011, Control_c, 0, 67, 93
1, 14026, Control_c, 0, 67, 95
1, 14040, Control_c, 0, 67, 96
1, 14055, Control_c, 0, 67, 96
1, 14070, Control_c, 0, 67, 97
1, 14084, Control_c, 0, 67, 98
1, 14099, Control_c, 0, 67, 100
1, 14114, Control_c, 0, 67, 101
1, 14129, Control_c, 0, 67, 102
1, 14144, Control_c, 0, 67, 103
1, 14188, Control_c, 0, 67, 103
1, 14204, Control_c, 0, 67, 105
1, 14219, Control_c, 0, 67, 111
1, 14234, Control_c, 0, 67, 120
1, 14249, Control_c, 0, 67, 127
1, 14528, Note_on_c, 0, 69, 66
1, 14543, Note_on_c, 0, 63, 45
1, 14547, Note_on_c, 0, 60, 51
1, 14549, Note_on_c, 0, 54, 46
1, 14570, Note_off_c, 0, 63, 55
1, 14571, Note_off_c, 0, 69, 64
1, 14576, Note_off_c, 0, 60, 58
1, 14577, Note_off_c, 0, 54, 57
1, 14763, Note_on_c, 0, 71, 64
1, 14765, Note_on_c, 0, 56, 49
1, 14772, Note_on_c, 0, 62, 48
1, 14772, Note_on_c, 0, 65, 50
1, 14789, Note_off_c, 0, 56, 59
1, 14794, Note_off_c, 0, 65, 58
1, 14795, Note_off_c, 0, 71, 59
1, 14797, Note_off_c, 0, 62, 55
1, 14945, Note_on_c, 0, 57, 54
1, 14950, Note_on_c, 0, 72, 59
1, 14955, Note_on_c, 0, 66, 55
1, 14963, Note_on_c, 0, 63, 39
1, 14977, Note_off_c, 0, 66, 65
1, 14981, Note_off_c, 0, 57, 61
1, 14987, Note_off_c, 0, 72, 57
1, 14989, Note_off_c, 0, 63, 55
1, 15095, Note_on_c, 0, 74, 68
1, 15102, Note_on_c, 0, 68, 64
1, 15110, Note_on_c, 0, 59, 46
1, 15115, Note_on_c, 0, 65, 45
1, 15129, Note_off_c, 0, 68, 65
1, 15135, Note_off_c, 0, 59, 51
1, 15137, Note_off_c, 0, 74, 63
1, 15139, Note_off_c, 0, 65, 54
1, 15244, Note_on_c, 0, 75, 63
1, 15245, Note_on_c, 0, 69, 58
1, 15250, Note_on_c, 0, 60, 45
1, 15261, Note_on_c, 0, 66, 49
1, 15269, Note_off_c, 0, 69, 65
1, 15274, Note_off_c, 0, 75, 65
1, 15275, Note_off_c, 0, 60, 48
1, 15285, Note_off_c, 0, 66, 60
1, 15369, Note_on_c, 0, 62, 57
1, 15374, Note_on_c, 0, 77, 71
1, 15382, Note_on_c, 0, 71, 54
1, 15394, Note_on_c, 0, 68, 42
1, 15402, Note_off_c, 0, 71, 60
1, 15407, Note_off_c, 0, 62, 59
1, 15408, Note_off_c, 0, 77, 56
1, 15420, Note_off_c, 0, 68, 54
1, 15509, Note_on_c, 0, 63, 53
1, 15509, Note_on_c, 0, 78, 66
1, 15512, Note_on_c, 0, 69, 56
1, 15517, Note_on_c, 0, 72, 43
1, 15532, Note_off_c, 0, 63, 59
1, 15535, Note_off_c, 0, 69, 65
1, 15537, Note_off_c, 0, 72, 59
1, 15537, Note_off_c, 0, 78, 65
1, 15622, Note_on_c, 0, 65, 63
1, 15624, Note_on_c, 0, 74, 64
1, 15624, Note_on_c, 0, 80, 69
1, 15640, Note_on_c, 0, 71, 42
1, 15651, Note_off_c, 0, 74, 69
1, 15652, Note_off_c, 0, 65, 65
1, 15655, Note_off_c, 0, 80, 61
1, 15664, Note_off_c, 0, 71, 48
1, 15737, Note_on_c, 0, 81, 76
1, 15744, Note_on_c, 0, 66, 62
1, 15747, Note_on_c, 0, 75, 62
1, 15761, Note_on_c, 0, 72, 51
1, 15766, Note_off_c, 0, 75, 66
1, 15777, Note_off_c, 0, 66, 66
1, 15779, Note_off_c, 0, 81, 62
1, 15780, Note_off_c, 0, 72, 62
1, 15864, Note_on_c, 0, 77, 63
1, 15864, Note_on_c, 0, 83, 67
1, 15869, Note_on_c, 0, 68, 56
1, 15873, Note_on_c, 0, 74, 49
1, 15881, Note_off_c, 0, 77, 63
1, 15890, Note_off_c, 0, 68, 60
1, 15891, Note_off_c, 0, 83, 62
1, 15893, Note_off_c, 0, 74, 65
1, 15975, Note_on_c, 0, 69, 57
1, 15976, Note_on_c, 0, 78, 68
1, 15980, Note_on_c, 0, 84, 62
1, 15985, Note_on_c, 0, 75, 51
1, 15995, Note_off_c, 0, 78, 65
1, 15995, Note_off_c, 0, 69, 61
1, 16008, Note_off_c, 0, 75, 62
1, 16010, Note_off_c, 0, 84, 65
1, 16080, Note_on_c, 0, 80, 80
1, 16080, Note_on_c, 0, 86, 79
1, 16086, Note_on_c, 0, 71, 59
1, 16090, Note_on_c, 0, 77, 57
1, 16102, Note_off_c, 0, 80, 67
1, 16105, Note_off_c, 0, 71, 61
1, 16109, Note_off_c, 0, 77, 63
1, 16111, Note_off_c, 0, 86, 60
1, 16189, Note_on_c, 0, 72, 64
1, 16192, Note_on_c, 0, 81, 74
1, 16207, Note_off_c, 0, 72, 63
1, 16217, Note_off_c, 0, 81, 66
1, 16230, Note_on_c, 0, 78, 35
1, 16252, Note_off_c, 0, 78, 48
1, 16297, Note_on_c, 0, 74, 67
1, 16301, Note_on_c, 0, 83, 69
1, 16310, Note_on_c, 0, 80, 67
1, 16312, Note_on_c, 0, 89, 50
1, 16326, Note_off_c, 0, 74, 64
1, 16328, Note_off_c, 0, 83, 62
1, 16333, Note_off_c, 0, 89, 60
1, 16338, Note_off_c, 0, 80, 64
1, 16404, Note_on_c, 0, 90, 83
1, 16407, Note_on_c, 0, 84, 73
1, 16409, Note_on_c, 0, 81, 72
1, 16415, Note_on_c, 0, 75, 58
1, 16431, Note_off_c, 0, 84, 69
1, 16433, Note_off_c, 0, 90, 61
1, 16435, Note_off_c, 0, 75, 64
1, 16440, Note_off_c, 0, 81, 59
1, 16503, Note_on_c, 0, 92, 77
1, 16508, Note_on_c, 0, 86, 78
1, 16512, Note_on_c, 0, 77, 73
1, 16522, Note_on_c, 0, 83, 62
1, 16529, Note_off_c, 0, 86, 69
1, 16536, Note_off_c, 0, 77, 66
1, 16542, Note_off_c, 0, 92, 62
1, 16548, Note_off_c, 0, 83, 65
1, 16609, Note_on_c, 0, 93, 81
1, 16616, Note_on_c, 0, 87, 72
1, 16618, Note_on_c, 0, 78, 70
1, 16624, Note_on_c, 0, 84, 67
1, 16639, Note_off_c, 0, 87, 69
1, 16645, Note_off_c, 0, 93, 59
1, 16648, Note_off_c, 0, 78, 62
1, 16649, Note_off_c, 0, 84, 70
1, 16717, Note_on_c, 0, 95, 81
1, 16719, Note_on_c, 0, 89, 70
1, 16731, Note_on_c, 0, 86, 62
1, 16743, Note_on_c, 0, 80, 50
1, 16744, Note_off_c, 0, 89, 69
1, 16749, Note_off_c, 0, 95, 61
1, 16761, Note_off_c, 0, 86, 66
1, 16764, Note_off_c, 0, 80, 61
1, 16826, Note_on_c, 0, 96, 70
1, 16830, Note_on_c, 0, 90, 72
1, 16842, Note_on_c, 0, 81, 45
1, 16843, Note_on_c, 0, 87, 55
1, 16859, Note_off_c, 0, 90, 61
1, 16861, Note_off_c, 0, 96, 59
1, 16865, Note_off_c, 0, 81, 55
1, 16874, Note_off_c, 0, 87, 64
1, 16943, Note_on_c, 0, 88, 66
1, 16944, Note_on_c, 0, 97, 71
1, 16950, Note_on_c, 0, 91, 57
1, 16963, Note_on_c, 0, 82, 34
1, 16976, Note_off_c, 0, 91, 60
1, 16977, Note_off_c, 0, 97, 65
1, 16979, Note_off_c, 0, 88, 64
1, 17002, Note_off_c, 0, 82, 44
1, 17044, Note_on_c, 0, 83, 71
1, 17046, Note_on_c, 0, 98, 82
1, 17047, Note_on_c, 0, 92, 82
1, 17059, Note_on_c, 0, 89, 57
1, 17067, Note_off_c, 0, 92, 68
1, 17070, Note_off_c, 0, 98, 63
1, 17079, Note_off_c, 0, 83, 52
1, 17079, Note_off_c, 0, 89, 65
1, 17129, Note_on_c, 0, 99, 93
1, 17131, Note_on_c, 0, 93, 83
1, 17137, Note_on_c, 0, 84, 63
1, 17138, Note_on_c, 0, 90, 81
1, 17151, Note_off_c, 0, 93, 68
1, 17165, Note_off_c, 0, 84, 69
1, 17171, Note_off_c, 0, 99, 66
1, 17188, Note_off_c, 0, 90, 63
1, 17203, Note_on_c, 0, 85, 46
1, 17208, Note_on_c, 0, 100, 97
1, 17209, Note_on_c, 0, 94, 93
1, 17219, Note_on_c, 0, 91, 81
1, 17226, Note_off_c, 0, 85, 64
1, 17241, Note_off_c, 0, 100, 67
1, 17243, Note_off_c, 0, 94, 64
1, 17256, Note_off_c, 0, 91, 63
1, 17294, Note_on_c, 0, 95, 99
1, 17294, Note_on_c, 0, 101, 99
1, 17295, Note_on_c, 0, 86, 82
1, 17300, Note_on_c, 0, 92, 81
1, 17321, Note_off_c, 0, 95, 62
1, 17326, Note_off_c, 0, 101, 67
1, 17327, Note_off_c, 0, 92, 60
1, 17332, Note_off_c, 0, 86, 63
1, 17372, Note_on_c, 0, 102, 106
1, 17375, Note_on_c, 0, 96, 97
1, 17379, Note_on_c, 0, 93, 99
1, 17384, Note_on_c, 0, 87, 87
1, 17390, Note_off_c, 0, 96, 72
1, 17409, Note_off_c, 0, 102, 66
1, 17414, Note_off_c, 0, 93, 66
1, 17419, Note_off_c, 0, 87, 61
1, 19828, Note_on_c, 0, 75, 60
1, 20267, Control_c, 0, 64, 39
1, 20280, Note_on_c, 0, 69, 41
1, 20282, Control_c, 0, 64, 53
1, 20287, Note_on_c, 0, 66, 34
1, 20297, Control_c, 0, 64, 58
1, 20312, Control_c, 0, 64, 60
1, 20326, Control_c, 0, 64, 62
1, 20341, Control_c, 0, 64, 63
1, 20356, Control_c, 0, 64, 65
1, 20371, Control_c, 0, 64, 67
1, 20386, Control_c, 0, 64, 69
1, 20401, Control_c, 0, 64, 72
1, 20416, Control_c, 0, 64, 74
1, 20430, Control_c, 0, 64, 75
1, 20445, Control_c, 0, 64, 76
1, 20460, Control_c, 0, 64, 77
1, 20475, Control_c, 0, 64, 77
1, 20490, Control_c, 0, 64, 78
1, 20519, Control_c, 0, 64, 79
1, 20591, Note_off_c, 0, 75, 51
1, 20594, Control_c, 0, 64, 79
1, 20699, Note_on_c, 0, 77, 57
1, 20743, Note_off_c, 0, 69, 49
1, 20765, Control_c, 0, 64, 79
1, 20770, Note_on_c, 0, 75, 68
1, 20780, Control_c, 0, 64, 78
1, 20795, Control_c, 0, 64, 77
1, 20810, Control_c, 0, 64, 75
1, 20822, Note_off_c, 0, 77, 54
1, 20824, Control_c, 0, 64, 72
1, 20839, Control_c, 0, 64, 67
1, 20845, Note_on_c, 0, 65, 31
1, 20854, Note_on_c, 0, 74, 70
1, 20854, Control_c, 0, 64, 58
1, 20855, Note_off_c, 0, 66, 40
1, 20869, Control_c, 0, 64, 0
1, 20882, Note_off_c, 0, 75, 58
1, 21018, Control_c, 0, 64, 39
1, 21032, Control_c, 0, 64, 58
1, 21047, Control_c, 0, 64, 63
1, 21062, Control_c, 0, 64, 65
1, 21072, Note_off_c, 0, 65, 42
1, 21076, Control_c, 0, 64, 67
1, 21082, Note_on_c, 0, 63, 36
1, 21091, Control_c, 0, 64, 69
1, 21106, Control_c, 0, 64, 70
1, 21115, Note_on_c, 0, 72, 69
1, 21121, Control_c, 0, 64, 72
1, 21136, Control_c, 0, 64, 73
1, 21150, Control_c, 0, 64, 74
1, 21158, Note_off_c, 0, 74, 60
1, 21165, Control_c, 0, 64, 75
1, 21180, Control_c, 0, 64, 75
1, 21195, Control_c, 0, 64, 76
1, 21211, Note_off_c, 0, 72, 64
1, 21298, Control_c, 0, 64, 75
1, 21313, Control_c, 0, 64, 75
1, 21314, Note_on_c, 0, 72, 59
1, 21328, Control_c, 0, 64, 73
1, 21329, Note_off_c, 0, 63, 52
1, 21343, Control_c, 0, 64, 68
1, 21344, Note_on_c, 0, 62, 29
1, 21358, Control_c, 0, 64, 59
1, 21362, Note_on_c, 0, 65, 39
1, 21362, Note_on_c, 0, 77, 68
1, 21372, Control_c, 0, 64, 10
1, 21388, Control_c, 0, 64, 0
1, 21430, Note_off_c, 0, 62, 0
1, 21430, Note_on_c, 0, 62, 3
1, 21617, Note_off_c, 0, 77, 55
1, 21623, Note_on_c, 0, 69, 54
1, 21632, Note_off_c, 0, 72, 57
1, 21972, Note_on_c, 0, 70, 41
1, 21977, Note_off_c, 0, 69, 48
1, 22019, Note_off_c, 0, 70, 0
1, 22019, Note_on_c, 0, 70, 7
1, 22026, Note_off_c, 0, 65, 40
1, 22057, Note_off_c, 0, 62, 32
1, 22532, Note_off_c, 0, 70, 42
1, 22720, Control_c, 0, 64, 28
1, 22735, Control_c, 0, 64, 38
1, 22750, Control_c, 0, 64, 47
1, 22765, Control_c, 0, 64, 52
1, 22780, Control_c, 0, 64, 57
1, 22794, Control_c, 0, 64, 60
1, 22809, Control_c, 0, 64, 62
1, 22824, Control_c, 0, 64, 63
1, 22839, Control_c, 0, 64, 64
1, 22854, Control_c, 0, 64, 66
1, 22869, Control_c, 0, 64, 67
1, 22884, Control_c, 0, 64, 69
1, 22899, Control_c, 0, 64, 71
1, 22913, Control_c, 0, 64, 72
1, 22928, Control_c, 0, 64, 74
1, 22943, Control_c, 0, 64, 75
1, 22958, Control_c, 0, 64, 76
1, 22980, Control_c, 0, 64, 77
1, 22996, Control_c, 0, 64, 78
1, 23025, Control_c, 0, 64, 78
1, 23040, Control_c, 0, 64, 79
1, 23055, Control_c, 0, 64, 79
1, 23084, Control_c, 0, 64, 80
1, 23158, Control_c, 0, 64, 80
1, 23450, Note_on_c, 0, 70, 68
1, 23499, Control_c, 0, 64, 80
1, 23514, Control_c, 0, 64, 79
1, 23529, Control_c, 0, 64, 79
1, 23543, Control_c, 0, 64, 78
1, 23558, Control_c, 0, 64, 76
1, 23573, Control_c, 0, 64, 74
1, 23588, Control_c, 0, 64, 71
1, 23603, Control_c, 0, 64, 66
1, 23617, Control_c, 0, 64, 59
1, 23632, Control_c, 0, 64, 49
1, 23648, Control_c, 0, 64, 46
1, 23662, Control_c, 0, 64, 46
1, 23677, Control_c, 0, 64, 44
1, 23692, Control_c, 0, 64, 42
1, 23707, Control_c, 0, 64, 40
1, 23730, Control_c, 0, 64, 39
1, 23744, Control_c, 0, 64, 40
1, 23759, Control_c, 0, 64, 42
1, 23774, Control_c, 0, 64, 48
1, 23789, Control_c, 0, 64, 55
1, 23805, Control_c, 0, 64, 60
1, 23820, Control_c, 0, 64, 63
1, 23835, Control_c, 0, 64, 65
1, 23849, Control_c, 0, 64, 67
1, 23864, Control_c, 0, 64, 69
1, 23879, Control_c, 0, 64, 71
1, 23893, Control_c, 0, 64, 72
1, 23908, Control_c, 0, 64, 73
1, 23923, Control_c, 0, 64, 74
1, 23938, Control_c, 0, 64, 76
1, 23953, Control_c, 0, 64, 77
1, 23967, Control_c, 0, 64, 78
1, 23982, Control_c, 0, 64, 79
1, 23997, Control_c, 0, 64, 79
1, 24012, Control_c, 0, 64, 80
1, 24041, Control_c, 0, 64, 80
1, 24086, Control_c, 0, 64, 81
1, 24115, Note_on_c, 0, 64, 44
1, 24130, Control_c, 0, 64, 81
1, 24133, Note_on_c, 0, 61, 38
1, 24174, Control_c, 0, 64, 82
1, 24179, Note_off_c, 0, 64, 0
1, 24179, Note_on_c, 0, 64, 18
1, 24204, Control_c, 0, 64, 82
1, 24219, Control_c, 0, 64, 83
1, 24264, Control_c, 0, 64, 83
1, 24469, Note_off_c, 0, 70, 37
1, 24525, Note_on_c, 0, 72, 49
1, 24577, Note_off_c, 0, 72, 0
1, 24577, Note_on_c, 0, 72, 7
1, 24578, Note_on_c, 0, 70, 69
1, 24598, Control_c, 0, 64, 83
1, 24613, Control_c, 0, 64, 82
1, 24614, Note_off_c, 0, 64, 41
1, 24628, Control_c, 0, 64, 81
1, 24642, Control_c, 0, 64, 80
1, 24657, Control_c, 0, 64, 78
1, 24660, Note_off_c, 0, 72, 49
1, 24666, Note_on_c, 0, 68, 74
1, 24670, Note_on_c, 0, 60, 43
1, 24672, Control_c, 0, 64, 74
1, 24677, Note_off_c, 0, 61, 39
1, 24687, Control_c, 0, 64, 70
1, 24693, Note_off_c, 0, 70, 58
1, 24702, Control_c, 0, 64, 61
1, 24716, Control_c, 0, 64, 32
1, 24731, Control_c, 0, 64, 0
1, 24862, Note_off_c, 0, 60, 52
1, 24865, Note_on_c, 0, 58, 47
1, 24879, Control_c, 0, 64, 52
1, 24894, Control_c, 0, 64, 62
1, 24909, Control_c, 0, 64, 65
1, 24923, Control_c, 0, 64, 67
1, 24932, Note_on_c, 0, 67, 75
1, 24938, Control_c, 0, 64, 69
1, 24953, Control_c, 0, 64, 71
1, 24968, Control_c, 0, 64, 72
1, 24983, Note_off_c, 0, 68, 61
1, 24983, Control_c, 0, 64, 74
1, 24997, Control_c, 0, 64, 75
1, 25012, Control_c, 0, 64, 75
1, 25027, Control_c, 0, 64, 76
1, 25051, Note_off_c, 0, 67, 62
1, 25057, Control_c, 0, 64, 76
1, 25131, Control_c, 0, 64, 76
1, 25133, Note_on_c, 0, 67, 64
1, 25145, Control_c, 0, 64, 75
1, 25160, Control_c, 0, 64, 72
1, 25173, Note_off_c, 0, 58, 60
1, 25175, Control_c, 0, 64, 66
1, 25189, Control_c, 0, 64, 56
1, 25193, Note_on_c, 0, 72, 70
1, 25197, Note_on_c, 0, 57, 37
1, 25212, Control_c, 0, 64, 21
1, 25219, Note_on_c, 0, 60, 30
1, 25227, Control_c, 0, 64, 0
1, 25468, Note_on_c, 0, 64, 53
1, 25470, Note_off_c, 0, 67, 53
1, 25475, Note_off_c, 0, 72, 52
1, 25866, Note_on_c, 0, 65, 43
1, 25891, Note_off_c, 0, 57, 43
1, 25893, Note_on_c, 0, 56, 35
1, 25912, Note_off_c, 0, 64, 50
1, 25996, Note_off_c, 0, 60, 0
1, 26033, Poly_aftertouch_c, 0, 60, 127
1, 26392, Poly_aftertouch_c, 0, 60, 0
1, 26393, Note_off_c, 0, 56, 40
1, 26481, Note_off_c, 0, 65, 39
1, 26932, Control_c, 0, 64, 18
1, 26947, Control_c, 0, 64, 29
1, 26961, Control_c, 0, 64, 36
1, 26961, Control_c, 0, 67, 123
1, 26976, Control_c, 0, 64, 41
1, 26976, Control_c, 0, 67, 118
1, 26991, Control_c, 0, 64, 47
1, 26991, Control_c, 0, 67, 113
1, 27006, Control_c, 0, 64, 51
1, 27006, Control_c, 0, 67, 108
1, 27021, Control_c, 0, 64, 54
1, 27021, Control_c, 0, 67, 104
1, 27036, Control_c, 0, 64, 57
1, 27036, Control_c, 0, 67, 100
1, 27051, Control_c, 0, 64, 58
1, 27051, Control_c, 0, 67, 96
1, 27066, Control_c, 0, 64, 59
1, 27066, Control_c, 0, 67, 93
1, 27081, Control_c, 0, 64, 60
1, 27081, Control_c, 0, 67, 90
1, 27096, Control_c, 0, 64, 61
1, 27096, Control_c, 0, 67, 87
1, 27110, Control_c, 0, 64, 62
1, 27110, Control_c, 0, 67, 84
1, 27125, Control_c, 0, 64, 62
1, 27125, Control_c, 0, 67, 82
1, 27140, Control_c, 0, 64, 63
1, 27140, Control_c, 0, 67, 80
1, 27155, Control_c, 0, 64, 64
1, 27155, Control_c, 0, 67, 78
1, 27170, Control_c, 0, 64, 64
1, 27170, Control_c, 0, 67, 75
1, 27184, Control_c, 0, 64, 65
1, 27184, Control_c, 0, 67, 73
1, 27199, Control_c, 0, 64, 66
1, 27199, Control_c, 0, 67, 71
1, 27214, Control_c, 0, 64, 67
1, 27214, Control_c, 0, 67, 69
1, 27228, Control_c, 0, 64, 68
1, 27228, Control_c, 0, 67, 67
1, 27243, Control_c, 0, 64, 68
1, 27243, Control_c, 0, 67, 65
1, 27258, Control_c, 0, 64, 69
1, 27258, Control_c, 0, 67, 63
1, 27273, Control_c, 0, 64, 69
1, 27273, Control_c, 0, 67, 61
1, 27288, Control_c, 0, 67, 60
1, 27302, Control_c, 0, 64, 70
1, 27302, Control_c, 0, 67, 58
1, 27317, Control_c, 0, 64, 70
1, 27317, Control_c, 0, 67, 56
1, 27332, Control_c, 0, 64, 71
1, 27332, Control_c, 0, 67, 54
1, 27347, Control_c, 0, 64, 71
1, 27347, Control_c, 0, 67, 53
1, 27362, Control_c, 0, 64, 72
1, 27362, Control_c, 0, 67, 52
1, 27377, Control_c, 0, 67, 50
1, 27392, Control_c, 0, 64, 72
1, 27392, Control_c, 0, 67, 49
1, 27407, Control_c, 0, 64, 73
1, 27407, Control_c, 0, 67, 47
1, 27422, Control_c, 0, 64, 73
1, 27422, Control_c, 0, 67, 46
1, 27436, Control_c, 0, 64, 74
1, 27436, Control_c, 0, 67, 45
1, 27451, Control_c, 0, 67, 45
1, 27474, Control_c, 0, 67, 44
1, 27496, Note_on_c, 0, 65, 80
1, 27504, Control_c, 0, 64, 73
1, 27518, Control_c, 0, 64, 73
1, 27518, Control_c, 0, 67, 44
1, 27533, Control_c, 0, 64, 72
1, 27533, Control_c, 0, 67, 43
1, 27548, Control_c, 0, 64, 69
1, 27548, Control_c, 0, 67, 42
1, 27563, Control_c, 0, 64, 65
1, 27563, Control_c, 0, 67, 41
1, 27578, Control_c, 0, 64, 51
1, 27578, Control_c, 0, 67, 40
1, 27592, Control_c, 0, 64, 32
1, 27592, Control_c, 0, 67, 40
1, 27607, Control_c, 0, 64, 20
1, 27622, Control_c, 0, 64, 15
1, 27636, Control_c, 0, 64, 23
1, 27651, Control_c, 0, 64, 37
1, 27666, Control_c, 0, 64, 52
1, 27681, Control_c, 0, 64, 61
1, 27696, Control_c, 0, 64, 65
1, 27696, Control_c, 0, 67, 40
1, 27710, Control_c, 0, 64, 68
1, 27710, Control_c, 0, 67, 41
1, 27725, Control_c, 0, 64, 71
1, 27725, Control_c, 0, 67, 42
1, 27740, Control_c, 0, 64, 74
1, 27740, Control_c, 0, 67, 43
1, 27755, Control_c, 0, 64, 77
1, 27755, Control_c, 0, 67, 44
1, 27770, Control_c, 0, 64, 79
1, 27770, Control_c, 0, 67, 45
1, 27786, Control_c, 0, 64, 80
1, 27786, Control_c, 0, 67, 46
1, 27801, Control_c, 0, 64, 81
1, 27801, Control_c, 0, 67, 47
1, 27815, Control_c, 0, 64, 82
1, 27815, Control_c, 0, 67, 48
1, 27830, Control_c, 0, 64, 83
1, 27830, Control_c, 0, 67, 49
1, 27845, Control_c, 0, 64, 84
1, 27845, Control_c, 0, 67, 50
1, 27859, Control_c, 0, 64, 85
1, 27859, Control_c, 0, 67, 51
1, 27874, Control_c, 0, 67, 52
1, 27889, Control_c, 0, 64, 85
1, 27889, Control_c, 0, 67, 53
1, 27904, Control_c, 0, 67, 55
1, 27919, Control_c, 0, 67, 59
1, 27933, Control_c, 0, 67, 64
1, 27948, Control_c, 0, 67, 72
1, 27963, Control_c, 0, 67, 79
1, 27978, Control_c, 0, 67, 86
1, 27993, Control_c, 0, 64, 86
1, 27993, Control_c, 0, 67, 93
1, 28008, Control_c, 0, 67, 100
1, 28023, Control_c, 0, 67, 104
1, 28038, Control_c, 0, 67, 107
1, 28052, Control_c, 0, 67, 108
1, 28067, Control_c, 0, 67, 110
1, 28082, Control_c, 0, 67, 113
1, 28097, Control_c, 0, 67, 119
1, 28112, Control_c, 0, 67, 124
1, 28126, Control_c, 0, 67, 127
1, 28361, Note_on_c, 0, 63, 38
1, 28379, Note_on_c, 0, 44, 39
1, 28380, Note_on_c, 0, 59, 37
1, 28386, Control_c, 0, 64, 85
1, 28404, Note_off_c, 0, 63, 0
1, 28404, Note_on_c, 0, 63, 4
1, 28430, Control_c, 0, 64, 84
1, 28445, Control_c, 0, 64, 83
1, 28459, Control_c, 0, 64, 79
1, 28474, Control_c, 0, 64, 74
1, 28489, Control_c, 0, 64, 67
1, 28504, Control_c, 0, 64, 60
1, 28519, Control_c, 0, 64, 58
1, 28533, Control_c, 0, 64, 62
1, 28548, Control_c, 0, 64, 65
1, 28563, Control_c, 0, 64, 69
1, 28572, Note_off_c, 0, 65, 57
1, 28578, Control_c, 0, 64, 73
1, 28594, Control_c, 0, 64, 76
1, 28609, Control_c, 0, 64, 77
1, 28624, Control_c, 0, 64, 78
1, 28638, Control_c, 0, 64, 79
1, 28653, Control_c, 0, 64, 80
1, 28668, Control_c, 0, 64, 81
1, 28682, Control_c, 0, 64, 82
1, 28697, Control_c, 0, 64, 83
1, 28727, Control_c, 0, 64, 83
1, 28756, Control_c, 0, 64, 84
1, 28990, Note_on_c, 0, 67, 56
1, 28997, Note_off_c, 0, 63, 42
1, 29015, Control_c, 0, 64, 83
1, 29030, Control_c, 0, 64, 82
1, 29045, Control_c, 0, 64, 80
1, 29054, Note_off_c, 0, 67, 55
1, 29059, Note_on_c, 0, 65, 58
1, 29060, Control_c, 0, 64, 76
1, 29075, Control_c, 0, 64, 70
1, 29089, Control_c, 0, 64, 61
1, 29104, Control_c, 0, 64, 0
1, 29119, Note_off_c, 0, 65, 61
1, 29136, Note_on_c, 0, 64, 53
1, 29237, Control_c, 0, 64, 37
1, 29252, Control_c, 0, 64, 60
1, 29267, Control_c, 0, 64, 64
1, 29281, Control_c, 0, 64, 68
1, 29296, Control_c, 0, 64, 70
1, 29311, Control_c, 0, 64, 72
1, 29326, Control_c, 0, 64, 73
1, 29341, Control_c, 0, 64, 74
1, 29355, Control_c, 0, 64, 75
1, 29370, Control_c, 0, 64, 76
1, 29384, Note_off_c, 0, 44, 40
1, 29384, Note_off_c, 0, 64, 59
1, 29386, Control_c, 0, 64, 76
1, 29391, Note_on_c, 0, 65, 59
1, 29400, Note_off_c, 0, 59, 38
1, 29401, Control_c, 0, 64, 77
1, 29431, Control_c, 0, 64, 77
1, 29460, Control_c, 0, 64, 78
1, 29485, Note_off_c, 0, 65, 59
1, 29549, Note_on_c, 0, 58, 55
1, 29579, Control_c, 0, 64, 77
1, 29594, Control_c, 0, 64, 77
1, 29609, Control_c, 0, 64, 76
1, 29616, Note_off_c, 0, 58, 61
1, 29624, Control_c, 0, 64, 74
1, 29626, Note_on_c, 0, 65, 61
1, 29638, Control_c, 0, 64, 70
1, 29653, Control_c, 0, 64, 65
1, 29668, Control_c, 0, 64, 57
1, 29680, Note_on_c, 0, 70, 64
1, 29683, Control_c, 0, 64, 52
1, 29698, Control_c, 0, 64, 49
1, 29699, Note_on_c, 0, 46, 46
1, 29719, Control_c, 0, 64, 46
1, 29721, Note_on_c, 0, 55, 37
1, 29734, Control_c, 0, 64, 43
1, 29749, Control_c, 0, 64, 40
1, 29764, Control_c, 0, 64, 38
1, 29779, Control_c, 0, 64, 37
1, 29793, Control_c, 0, 64, 35
1, 29808, Control_c, 0, 64, 32
1, 29823, Control_c, 0, 64, 28
1, 29838, Control_c, 0, 64, 26
1, 29853, Control_c, 0, 64, 25
1, 29868, Control_c, 0, 64, 24
1, 29898, Control_c, 0, 64, 23
1, 29927, Control_c, 0, 64, 21
1, 29957, Control_c, 0, 64, 20
1, 29958, Note_off_c, 0, 70, 57
1, 29966, Note_on_c, 0, 62, 53
1, 29969, Note_off_c, 0, 65, 57
1, 29986, Control_c, 0, 64, 18
1, 30001, Control_c, 0, 64, 17
1, 30016, Control_c, 0, 64, 15
1, 30030, Control_c, 0, 64, 13
1, 30045, Control_c, 0, 64, 10
1, 30060, Control_c, 0, 64, 0
1, 30285, Note_off_c, 0, 62, 53
1, 30297, Note_on_c, 0, 63, 47
1, 30388, Control_c, 0, 64, 26
1, 30402, Control_c, 0, 64, 43
1, 30417, Control_c, 0, 64, 53
1, 30432, Control_c, 0, 64, 60
1, 30447, Control_c, 0, 64, 63
1, 30469, Control_c, 0, 64, 65
1, 30484, Control_c, 0, 64, 67
1, 30499, Control_c, 0, 64, 69
1, 30514, Control_c, 0, 64, 72
1, 30529, Control_c, 0, 64, 74
1, 30543, Control_c, 0, 64, 76
1, 30558, Control_c, 0, 64, 76
1, 30573, Control_c, 0, 64, 77
1, 30588, Control_c, 0, 64, 78
1, 30603, Control_c, 0, 64, 78
1, 30617, Control_c, 0, 64, 79
1, 30632, Control_c, 0, 64, 79
1, 30647, Control_c, 0, 64, 80
1, 30676, Control_c, 0, 64, 80
1, 30706, Note_off_c, 0, 63, 38
1, 30830, Note_on_c, 0, 58, 53
1, 30854, Control_c, 0, 67, 127
1, 30869, Note_off_c, 0, 46, 40
1, 30869, Control_c, 0, 67, 125
1, 30884, Control_c, 0, 67, 124
1, 30923, Note_on_c, 0, 63, 65
1, 30926, Note_off_c, 0, 58, 54
1, 30943, Control_c, 0, 67, 124
1, 30989, Control_c, 0, 67, 123
1, 31019, Control_c, 0, 64, 80
1, 31048, Control_c, 0, 64, 79
1, 31063, Control_c, 0, 64, 79
1, 31077, Control_c, 0, 64, 78
1, 31084, Note_off_c, 0, 55, 42
1, 31092, Control_c, 0, 64, 76
1, 31093, Note_on_c, 0, 54, 44
1, 31094, Note_on_c, 0, 46, 44
1, 31107, Control_c, 0, 64, 74
1, 31122, Control_c, 0, 64, 72
1, 31137, Control_c, 0, 64, 69
1, 31151, Control_c, 0, 64, 64
1, 31166, Control_c, 0, 64, 59
1, 31181, Control_c, 0, 64, 55
1, 31196, Control_c, 0, 64, 52
1, 31218, Control_c, 0, 64, 51
1, 31219, Note_on_c, 0, 71, 72
1, 31233, Control_c, 0, 64, 49
1, 31248, Control_c, 0, 64, 46
1, 31263, Control_c, 0, 64, 42
1, 31278, Control_c, 0, 64, 37
1, 31292, Control_c, 0, 64, 34
1, 31292, Control_c, 0, 67, 124
1, 31307, Control_c, 0, 64, 32
1, 31322, Control_c, 0, 64, 32
1, 31337, Control_c, 0, 67, 124
1, 31366, Control_c, 0, 67, 125
1, 31381, Control_c, 0, 67, 126
1, 31396, Control_c, 0, 67, 127
1, 31410, Control_c, 0, 67, 127
1, 31455, Control_c, 0, 64, 31
1, 31499, Control_c, 0, 64, 30
1, 31663, Control_c, 0, 64, 31
1, 31764, Note_on_c, 0, 62, 51
1, 31767, Note_off_c, 0, 71, 51
1, 31788, Note_off_c, 0, 63, 58
1, 31812, Control_c, 0, 64, 32
1, 32277, Note_on_c, 0, 63, 48
1, 32289, Note_off_c, 0, 62, 45
1, 32441, Control_c, 0, 64, 32
1, 32455, Control_c, 0, 64, 34
1, 32470, Control_c, 0, 64, 36
1, 32485, Control_c, 0, 64, 38
1, 32500, Control_c, 0, 64, 43
1, 32515, Control_c, 0, 64, 49
1, 32530, Control_c, 0, 64, 54
1, 32545, Control_c, 0, 64, 59
1, 32560, Control_c, 0, 64, 62
1, 32575, Control_c, 0, 64, 63
1, 32590, Control_c, 0, 64, 65
1, 32604, Control_c, 0, 64, 67
1, 32619, Control_c, 0, 64, 69
1, 32634, Control_c, 0, 64, 71
1, 32645, Note_off_c, 0, 46, 33
1, 32649, Control_c, 0, 64, 73
1, 32658, Note_off_c, 0, 54, 26
1, 32664, Control_c, 0, 64, 74
1, 32679, Control_c, 0, 64, 75
1, 32701, Control_c, 0, 64, 76
1, 32716, Control_c, 0, 64, 77
1, 32730, Control_c, 0, 64, 77
1, 32745, Control_c, 0, 64, 78
1, 32760, Control_c, 0, 64, 78
1, 32790, Control_c, 0, 64, 79
1, 32819, Control_c, 0, 64, 79
1, 32849, Control_c, 0, 64, 80
1, 32864, Control_c, 0, 64, 80
1, 32879, Control_c, 0, 64, 81
1, 32917, Note_off_c, 0, 63, 34
1, 32923, Control_c, 0, 64, 81
1, 33042, Control_c, 0, 64, 82
1, 33436, Note_on_c, 0, 63, 56
1, 33543, Note_off_c, 0, 63, 57
1, 33613, Control_c, 0, 64, 81
1, 33627, Control_c, 0, 64, 81
1, 33635, Note_on_c, 0, 63, 57
1, 33642, Control_c, 0, 64, 80
1, 33657, Control_c, 0, 64, 78
1, 33662, Note_on_c, 0, 53, 38
1, 33665, Note_on_c, 0, 47, 52
1, 33671, Note_on_c, 0, 34, 42
1, 33672, Control_c, 0, 64, 76
1, 33672, Note_on_c, 0, 56, 42
1, 33687, Control_c, 0, 64, 73
1, 33701, Control_c, 0, 64, 68
1, 33716, Control_c, 0, 64, 62
1, 33731, Control_c, 0, 64, 48
1, 33746, Control_c, 0, 64, 33
1, 33761, Control_c, 0, 64, 24
1, 33820, Control_c, 0, 64, 23
1, 33835, Control_c, 0, 64, 21
1, 33865, Control_c, 0, 64, 20
1, 33924, Control_c, 0, 64, 21
1, 33939, Control_c, 0, 64, 23
1, 33953, Control_c, 0, 64, 24
1, 33968, Control_c, 0, 64, 28
1, 33983, Control_c, 0, 64, 32
1, 33997, Control_c, 0, 64, 39
1, 34012, Control_c, 0, 64, 47
1, 34027, Control_c, 0, 64, 54
1, 34042, Control_c, 0, 64, 59
1, 34057, Control_c, 0, 64, 63
1, 34071, Control_c, 0, 64, 66
1, 34086, Control_c, 0, 64, 69
1, 34094, Note_on_c, 0, 59, 51
1, 34101, Control_c, 0, 64, 71
1, 34116, Control_c, 0, 64, 72
1, 34131, Control_c, 0, 64, 73
1, 34146, Control_c, 0, 64, 74
1, 34156, Note_off_c, 0, 47, 36
1, 34161, Control_c, 0, 64, 74
1, 34176, Control_c, 0, 64, 75
1, 34177, Note_off_c, 0, 63, 30
1, 34214, Control_c, 0, 64, 75
1, 34406, Control_c, 0, 64, 75
1, 34480, Control_c, 0, 64, 74
1, 34509, Control_c, 0, 64, 74
1, 34524, Control_c, 0, 64, 73
1, 34539, Control_c, 0, 64, 72
1, 34554, Note_on_c, 0, 63, 51
1, 34554, Control_c, 0, 64, 70
1, 34569, Control_c, 0, 64, 67
1, 34572, Note_on_c, 0, 46, 33
1, 34584, Control_c, 0, 64, 64
1, 34599, Control_c, 0, 64, 61
1, 34614, Control_c, 0, 64, 57
1, 34628, Control_c, 0, 64, 50
1, 34643, Control_c, 0, 64, 40
1, 34643, Note_off_c, 0, 59, 54
1, 34658, Control_c, 0, 64, 30
1, 34673, Control_c, 0, 64, 18
1, 34688, Control_c, 0, 64, 0
1, 35070, Note_on_c, 0, 60, 45
1, 35168, Note_off_c, 0, 63, 46
1, 35583, Control_c, 0, 64, 10
1, 35594, Note_off_c, 0, 56, 27
1, 35598, Control_c, 0, 64, 13
1, 35613, Control_c, 0, 64, 15
1, 35627, Control_c, 0, 64, 17
1, 35642, Control_c, 0, 64, 18
1, 35657, Control_c, 0, 64, 20
1, 35694, Control_c, 0, 64, 21
1, 35709, Note_on_c, 0, 63, 49
1, 35723, Control_c, 0, 64, 23
1, 35727, Note_off_c, 0, 53, 36
1, 35738, Control_c, 0, 64, 24
1, 35746, Note_off_c, 0, 60, 53
1, 35753, Control_c, 0, 64, 25
1, 35768, Control_c, 0, 64, 26
1, 35799, Control_c, 0, 64, 27
1, 35814, Control_c, 0, 64, 28
1, 35828, Control_c, 0, 64, 29
1, 35843, Control_c, 0, 64, 29
1, 35872, Control_c, 0, 64, 30
1, 35887, Control_c, 0, 64, 31
1, 35917, Control_c, 0, 64, 32
1, 35961, Control_c, 0, 64, 32
1, 35991, Control_c, 0, 64, 33
1, 36006, Control_c, 0, 64, 34
1, 36021, Control_c, 0, 64, 34
1, 36050, Control_c, 0, 64, 35
1, 36090, Note_on_c, 0, 61, 58
1, 36123, Note_off_c, 0, 63, 58
1, 36154, Control_c, 0, 64, 36
1, 36258, Control_c, 0, 64, 36
1, 36272, Control_c, 0, 64, 37
1, 36287, Control_c, 0, 64, 37
1, 36312, Note_on_c, 0, 63, 64
1, 36317, Control_c, 0, 64, 38
1, 36332, Control_c, 0, 64, 38
1, 36351, Note_off_c, 0, 61, 53
1, 36361, Control_c, 0, 64, 39
1, 36361, Control_c, 0, 67, 121
1, 36376, Control_c, 0, 67, 115
1, 36390, Control_c, 0, 64, 39
1, 36390, Control_c, 0, 67, 108
1, 36405, Control_c, 0, 64, 40
1, 36405, Control_c, 0, 67, 102
1, 36420, Control_c, 0, 67, 95
1, 36435, Control_c, 0, 67, 90
1, 36458, Control_c, 0, 67, 83
1, 36471, Note_off_c, 0, 46, 38
1, 36472, Control_c, 0, 67, 77
1, 36487, Control_c, 0, 67, 70
1, 36497, Note_off_c, 0, 34, 44
1, 36502, Control_c, 0, 67, 63
1, 36517, Control_c, 0, 67, 57
1, 36532, Control_c, 0, 67, 51
1, 36537, Note_on_c, 0, 62, 66
1, 36546, Control_c, 0, 67, 45
1, 36561, Control_c, 0, 64, 40
1, 36561, Control_c, 0, 67, 40
1, 36567, Note_off_c, 0, 63, 64
1, 36577, Control_c, 0, 67, 36
1, 36592, Control_c, 0, 67, 33
1, 36607, Control_c, 0, 67, 30
1, 36621, Control_c, 0, 67, 27
1, 36636, Control_c, 0, 67, 24
1, 36651, Control_c, 0, 67, 22
1, 36666, Control_c, 0, 64, 41
1, 36666, Control_c, 0, 67, 20
1, 36681, Control_c, 0, 67, 18
1, 36695, Control_c, 0, 64, 41
1, 36695, Control_c, 0, 67, 17
1, 36710, Control_c, 0, 67, 16
1, 36725, Control_c, 0, 64, 42
1, 36725, Control_c, 0, 67, 15
1, 36740, Control_c, 0, 67, 13
1, 36755, Control_c, 0, 67, 12
1, 36769, Control_c, 0, 67, 11
1, 36784, Control_c, 0, 67, 10
1, 36799, Control_c, 0, 67, 9
1, 36814, Control_c, 0, 64, 42
1, 36828, Control_c, 0, 67, 8
1, 36843, Control_c, 0, 64, 43
1, 36843, Control_c, 0, 67, 0
1, 36873, Control_c, 0, 64, 43
1, 36888, Control_c, 0, 64, 44
1, 36903, Control_c, 0, 64, 44
1, 36929, Note_on_c, 0, 63, 61
1, 36973, Note_off_c, 0, 62, 56
1, 36977, Control_c, 0, 64, 45
1, 37007, Control_c, 0, 64, 45
1, 37036, Control_c, 0, 64, 46
1, 37122, Note_on_c, 0, 62, 59
1, 37156, Note_off_c, 0, 63, 62
1, 37170, Control_c, 0, 64, 46
1, 37207, Control_c, 0, 64, 47
1, 37264, Note_on_c, 0, 61, 65
1, 37279, Note_off_c, 0, 62, 55
1, 37296, Control_c, 0, 64, 47
1, 37355, Control_c, 0, 64, 48
1, 37392, Note_on_c, 0, 62, 68
1, 37393, Note_off_c, 0, 61, 62
1, 37534, Control_c, 0, 64, 48
1, 37561, Note_on_c, 0, 58, 55
1, 37586, Note_off_c, 0, 62, 54
1, 37744, Note_on_c, 0, 62, 57
1, 38119, Control_c, 0, 64, 48
1, 38209, Control_c, 0, 64, 47
1, 38215, Note_on_c, 0, 67, 65
1, 38490, Control_c, 0, 64, 48
1, 38505, Control_c, 0, 64, 48
1, 38520, Control_c, 0, 64, 49
1, 38535, Control_c, 0, 64, 52
1, 38549, Control_c, 0, 64, 55
1, 38564, Control_c, 0, 64, 58
1, 38579, Control_c, 0, 64, 61
1, 38593, Control_c, 0, 64, 63
1, 38608, Control_c, 0, 64, 65
1, 38623, Control_c, 0, 64, 66
1, 38638, Control_c, 0, 64, 67
1, 38653, Control_c, 0, 64, 69
1, 38668, Control_c, 0, 64, 71
1, 38683, Control_c, 0, 64, 72
1, 38705, Control_c, 0, 64, 74
1, 38720, Control_c, 0, 64, 75
1, 38735, Control_c, 0, 64, 76
1, 38749, Control_c, 0, 64, 77
1, 38764, Control_c, 0, 64, 78
1, 38779, Control_c, 0, 64, 79
1, 38793, Control_c, 0, 64, 80
1, 38808, Control_c, 0, 64, 81
1, 38823, Control_c, 0, 64, 81
1, 38838, Control_c, 0, 64, 82
1, 38867, Control_c, 0, 64, 82
1, 38897, Control_c, 0, 64, 83
1, 39031, Control_c, 0, 64, 83
1, 39149, Note_off_c, 0, 58, 14
1, 39174, Note_off_c, 0, 67, 33
1, 39630, Note_off_c, 0, 62, 25
1, 39794, Control_c, 0, 67, 8
1, 39824, Control_c, 0, 67, 8
1, 39839, Control_c, 0, 67, 9
1, 39854, Control_c, 0, 67, 10
1, 39884, Control_c, 0, 67, 11
1, 39913, Control_c, 0, 67, 11
1, 39928, Control_c, 0, 67, 12
1, 39943, Control_c, 0, 67, 12
1, 39973, Control_c, 0, 67, 13
1, 39987, Control_c, 0, 67, 13
1, 40017, Control_c, 0, 67, 14
1, 40032, Control_c, 0, 67, 15
1, 40046, Control_c, 0, 67, 16
1, 40061, Control_c, 0, 67, 18
1, 40076, Control_c, 0, 67, 20
1, 40091, Control_c, 0, 67, 23
1, 40106, Control_c, 0, 67, 28
1, 40121, Control_c, 0, 67, 34
1, 40136, Control_c, 0, 67, 41
1, 40151, Control_c, 0, 67, 48
1, 40165, Control_c, 0, 67, 56
1, 40188, Control_c, 0, 67, 64
1, 40203, Control_c, 0, 67, 72
1, 40218, Control_c, 0, 67, 78
1, 40233, Control_c, 0, 67, 84
1, 40247, Control_c, 0, 67, 89
1, 40262, Control_c, 0, 67, 94
1, 40277, Control_c, 0, 67, 98
1, 40292, Control_c, 0, 67, 102
1, 40307, Control_c, 0, 67, 106
1, 40321, Control_c, 0, 67, 111
1, 40336, Control_c, 0, 67, 115
1, 40351, Control_c, 0, 67, 119
1, 40365, Control_c, 0, 67, 124
1, 40380, Control_c, 0, 67, 127
1, 41011, Control_c, 0, 64, 83
1, 41062, Note_on_c, 0, 65, 39
1, 41070, Control_c, 0, 64, 82
1, 41085, Control_c, 0, 64, 81
1, 41088, Note_on_c, 0, 56, 29
1, 41100, Control_c, 0, 64, 80
1, 41115, Control_c, 0, 64, 78
1, 41130, Control_c, 0, 64, 74
1, 41144, Control_c, 0, 64, 69
1, 41159, Control_c, 0, 64, 62
1, 41174, Control_c, 0, 64, 48
1, 41188, Control_c, 0, 64, 33
1, 41203, Control_c, 0, 64, 13
1, 41218, Control_c, 0, 64, 0
1, 41559, Control_c, 0, 64, 10
1, 41574, Control_c, 0, 64, 13
1, 41589, Control_c, 0, 64, 17
1, 41604, Control_c, 0, 64, 20
1, 41619, Control_c, 0, 64, 24
1, 41634, Control_c, 0, 64, 27
1, 41649, Control_c, 0, 64, 29
1, 41663, Control_c, 0, 64, 30
1, 41678, Control_c, 0, 64, 32
1, 41700, Control_c, 0, 64, 32
1, 41730, Control_c, 0, 64, 33
1, 41745, Control_c, 0, 64, 34
1, 41760, Control_c, 0, 64, 34
1, 41789, Control_c, 0, 64, 35
1, 41804, Control_c, 0, 64, 36
1, 41818, Control_c, 0, 64, 38
1, 41833, Control_c, 0, 64, 39
1, 41953, Control_c, 0, 64, 38
1, 41967, Control_c, 0, 64, 38
1, 41997, Control_c, 0, 64, 40
1, 42004, Note_off_c, 0, 56, 30
1, 42011, Control_c, 0, 64, 48
1, 42026, Control_c, 0, 64, 57
1, 42041, Control_c, 0, 64, 62
1, 42056, Control_c, 0, 64, 64
1, 42071, Control_c, 0, 64, 66
1, 42078, Note_off_c, 0, 65, 47
1, 42081, Note_on_c, 0, 39, 39
1, 42085, Control_c, 0, 64, 68
1, 42100, Control_c, 0, 64, 69
1, 42115, Control_c, 0, 64, 70
1, 42129, Control_c, 0, 64, 71
1, 42144, Control_c, 0, 64, 72
1, 42161, Control_c, 0, 64, 72
1, 42162, Note_off_c, 0, 39, 57
1, 42190, Control_c, 0, 64, 73
1, 42220, Control_c, 0, 64, 73
1, 42279, Control_c, 0, 64, 74
1, 42449, Control_c, 0, 64, 73
1, 42464, Control_c, 0, 64, 71
1, 42470, Note_on_c, 0, 46, 46
1, 42479, Control_c, 0, 64, 67
1, 42494, Control_c, 0, 64, 59
1, 42509, Control_c, 0, 64, 49
1, 42514, Note_on_c, 0, 55, 51
1, 42523, Control_c, 0, 64, 40
1, 42525, Note_off_c, 0, 46, 57
1, 42534, Note_on_c, 0, 63, 54
1, 42538, Control_c, 0, 64, 27
1, 42549, Note_off_c, 0, 55, 63
1, 42553, Control_c, 0, 64, 0
1, 42565, Note_off_c, 0, 63, 63
1, 43315, Note_on_c, 0, 46, 45
1, 43369, Note_on_c, 0, 55, 47
1, 43386, Note_off_c, 0, 46, 53
1, 43388, Note_on_c, 0, 63, 52
1, 43398, Note_off_c, 0, 55, 60
1, 43416, Note_off_c, 0, 63, 57
1, 43643, Control_c, 0, 64, 34
1, 43657, Control_c, 0, 64, 43
1, 43672, Control_c, 0, 64, 47
1, 43687, Control_c, 0, 64, 50
1, 43702, Control_c, 0, 64, 52
1, 43717, Control_c, 0, 64, 54
1, 43731, Control_c, 0, 64, 57
1, 43746, Control_c, 0, 64, 60
1, 43762, Control_c, 0, 64, 62
1, 43777, Control_c, 0, 64, 63
1, 43792, Note_on_c, 0, 39, 40
1, 43792, Control_c, 0, 64, 64
1, 43806, Control_c, 0, 64, 66
1, 43821, Control_c, 0, 64, 67
1, 43836, Control_c, 0, 64, 69
1, 43851, Control_c, 0, 64, 70
1, 43866, Control_c, 0, 64, 71
1, 43869, Note_off_c, 0, 39, 58
1, 43880, Control_c, 0, 64, 72
1, 43895, Control_c, 0, 64, 72
1, 43910, Control_c, 0, 64, 73
1, 43962, Control_c, 0, 64, 74
1, 44151, Note_on_c, 0, 46, 47
1, 44169, Control_c, 0, 64, 73
1, 44184, Control_c, 0, 64, 72
1, 44194, Note_on_c, 0, 55, 51
1, 44199, Control_c, 0, 64, 68
1, 44210, Note_off_c, 0, 46, 57
1, 44213, Control_c, 0, 64, 62
1, 44228, Control_c, 0, 64, 47
1, 44229, Note_on_c, 0, 63, 61
1, 44236, Note_off_c, 0, 55, 58
1, 44243, Control_c, 0, 64, 34
1, 44258, Control_c, 0, 64, 27
1, 44259, Note_off_c, 0, 63, 66
1, 44273, Control_c, 0, 64, 0
1, 44585, Control_c, 0, 64, 10
1, 44600, Control_c, 0, 64, 13
1, 44615, Control_c, 0, 64, 15
1, 44629, Control_c, 0, 64, 17
1, 44644, Control_c, 0, 64, 18
1, 44659, Control_c, 0, 64, 21
1, 44674, Control_c, 0, 64, 26
1, 44696, Control_c, 0, 64, 31
1, 44710, Control_c, 0, 64, 35
1, 44725, Control_c, 0, 64, 38
1, 44740, Control_c, 0, 64, 40
1, 44755, Control_c, 0, 64, 41
1, 44770, Control_c, 0, 64, 42
1, 44784, Control_c, 0, 64, 43
1, 44799, Control_c, 0, 64, 44
1, 44814, Control_c, 0, 64, 45
1, 44874, Control_c, 0, 64, 46
1, 44889, Control_c, 0, 64, 48
1, 44903, Control_c, 0, 64, 50
1, 44918, Control_c, 0, 64, 51
1, 44948, Control_c, 0, 64, 52
1, 44992, Control_c, 0, 64, 51
1, 45007, Control_c, 0, 64, 50
1, 45020, Note_on_c, 0, 46, 31
1, 45022, Control_c, 0, 64, 48
1, 45036, Control_c, 0, 64, 46
1, 45051, Control_c, 0, 64, 42
1, 45056, Note_on_c, 0, 55, 45
1, 45066, Control_c, 0, 64, 37
1, 45078, Note_on_c, 0, 63, 61
1, 45081, Control_c, 0, 64, 33
1, 45086, Note_off_c, 0, 46, 40
1, 45094, Note_off_c, 0, 55, 61
1, 45096, Control_c, 0, 64, 32
1, 45108, Note_off_c, 0, 63, 66
1, 45125, Control_c, 0, 64, 31
1, 45140, Control_c, 0, 64, 30
1, 45244, Control_c, 0, 64, 31
1, 45273, Control_c, 0, 64, 32
1, 45378, Control_c, 0, 64, 32
1, 45422, Control_c, 0, 64, 31
1, 45445, Control_c, 0, 64, 30
1, 45459, Control_c, 0, 64, 29
1, 45474, Control_c, 0, 64, 28
1, 45481, Note_on_c, 0, 58, 71
1, 45489, Control_c, 0, 64, 26
1, 45504, Control_c, 0, 64, 24
1, 45518, Note_off_c, 0, 58, 62
1, 45548, Control_c, 0, 64, 27
1, 45560, Note_on_c, 0, 39, 53
1, 45563, Control_c, 0, 64, 36
1, 45564, Note_on_c, 0, 63, 82
1, 45578, Control_c, 0, 64, 46
1, 45592, Control_c, 0, 64, 56
1, 45607, Control_c, 0, 64, 62
1, 45619, Note_off_c, 0, 39, 57
1, 45622, Control_c, 0, 64, 65
1, 45637, Control_c, 0, 64, 68
1, 45652, Control_c, 0, 64, 70
1, 45667, Control_c, 0, 64, 73
1, 45682, Control_c, 0, 64, 74
1, 45697, Control_c, 0, 64, 75
1, 45712, Control_c, 0, 64, 76
1, 45741, Control_c, 0, 64, 76
1, 45756, Control_c, 0, 64, 77
1, 45771, Control_c, 0, 64, 77
1, 45785, Control_c, 0, 64, 78
1, 45800, Control_c, 0, 64, 78
1, 45849, Note_on_c, 0, 46, 45
1, 45859, Control_c, 0, 67, 125
1, 45874, Control_c, 0, 67, 114
1, 45889, Control_c, 0, 67, 101
1, 45895, Note_off_c, 0, 46, 46
1, 45901, Note_off_c, 0, 63, 61
1, 45904, Control_c, 0, 67, 86
1, 45919, Control_c, 0, 67, 69
1, 45933, Control_c, 0, 67, 51
1, 45948, Control_c, 0, 67, 32
1, 45952, Note_on_c, 0, 55, 47
1, 45963, Control_c, 0, 64, 78
1, 45963, Control_c, 0, 67, 19
1, 45977, Control_c, 0, 67, 10
1, 45992, Control_c, 0, 67, 0
1, 46007, Control_c, 0, 64, 77
1, 46010, Note_on_c, 0, 63, 56
1, 46017, Note_off_c, 0, 55, 58
1, 46040, Note_off_c, 0, 63, 53
1, 46253, Control_c, 0, 64, 77
1, 46268, Control_c, 0, 64, 76
1, 46282, Control_c, 0, 64, 75
1, 46297, Control_c, 0, 64, 72
1, 46308, Note_on_c, 0, 67, 74
1, 46312, Control_c, 0, 64, 66
1, 46327, Control_c, 0, 64, 42
1, 46339, Note_off_c, 0, 67, 63
1, 46342, Control_c, 0, 64, 0
1, 46392, Note_on_c, 0, 68, 86
1, 46414, Note_off_c, 0, 68, 69
1, 46656, Note_on_c, 0, 46, 46
1, 46698, Note_off_c, 0, 46, 57
1, 46749, Note_on_c, 0, 55, 47
1, 46782, Note_on_c, 0, 69, 92
1, 46803, Note_on_c, 0, 63, 57
1, 46814, Note_off_c, 0, 69, 65
1, 46823, Note_off_c, 0, 63, 63
1, 46829, Note_off_c, 0, 55, 62
1, 47164, Control_c, 0, 64, 25
1, 47178, Control_c, 0, 64, 40
1, 47193, Control_c, 0, 64, 49
1, 47199, Note_on_c, 0, 39, 35
1, 47208, Control_c, 0, 64, 56
1, 47223, Control_c, 0, 64, 60
1, 47238, Control_c, 0, 64, 63
1, 47253, Control_c, 0, 64, 65
1, 47268, Control_c, 0, 64, 67
1, 47282, Control_c, 0, 64, 69
1, 47293, Note_on_c, 0, 70, 76
1, 47297, Control_c, 0, 64, 70
1, 47312, Control_c, 0, 64, 72
1, 47317, Note_off_c, 0, 39, 54
1, 47327, Control_c, 0, 64, 73
1, 47342, Control_c, 0, 64, 73
1, 47356, Control_c, 0, 64, 74
1, 47371, Control_c, 0, 64, 75
1, 47386, Control_c, 0, 64, 75
1, 47563, Control_c, 0, 64, 74
1, 47568, Note_on_c, 0, 46, 42
1, 47578, Control_c, 0, 64, 73
1, 47593, Control_c, 0, 64, 70
1, 47603, Note_off_c, 0, 46, 51
1, 47608, Control_c, 0, 64, 65
1, 47622, Control_c, 0, 64, 54
1, 47637, Control_c, 0, 64, 41
1, 47652, Control_c, 0, 64, 39
1, 47667, Control_c, 0, 64, 38
1, 47684, Note_on_c, 0, 55, 37
1, 47690, Control_c, 0, 64, 36
1, 47704, Control_c, 0, 64, 32
1, 47719, Control_c, 0, 64, 24
1, 47734, Control_c, 0, 64, 15
1, 47736, Note_on_c, 0, 63, 49
1, 47739, Note_off_c, 0, 55, 54
1, 47750, Control_c, 0, 64, 10
1, 47765, Control_c, 0, 64, 0
1, 47765, Note_off_c, 0, 63, 57
1, 48103, Note_off_c, 0, 70, 57
1, 48109, Note_on_c, 0, 75, 63
1, 48135, Control_c, 0, 64, 10
1, 48138, Note_off_c, 0, 75, 68
1, 48150, Control_c, 0, 64, 13
1, 48209, Control_c, 0, 64, 15
1, 48224, Control_c, 0, 64, 17
1, 48239, Control_c, 0, 64, 18
1, 48253, Control_c, 0, 64, 21
1, 48268, Control_c, 0, 64, 23
1, 48283, Control_c, 0, 64, 25
1, 48313, Control_c, 0, 64, 27
1, 48327, Control_c, 0, 64, 29
1, 48342, Control_c, 0, 64, 32
1, 48357, Control_c, 0, 64, 36
1, 48371, Control_c, 0, 64, 42
1, 48386, Control_c, 0, 64, 51
1, 48401, Control_c, 0, 64, 57
1, 48409, Note_on_c, 0, 46, 36
1, 48416, Control_c, 0, 64, 60
1, 48439, Control_c, 0, 64, 63
1, 48453, Control_c, 0, 64, 64
1, 48457, Note_off_c, 0, 46, 50
1, 48468, Control_c, 0, 64, 66
1, 48483, Control_c, 0, 64, 67
1, 48498, Control_c, 0, 64, 69
1, 48511, Note_on_c, 0, 55, 43
1, 48512, Control_c, 0, 64, 70
1, 48527, Control_c, 0, 64, 72
1, 48542, Control_c, 0, 64, 73
1, 48558, Control_c, 0, 64, 74
1, 48573, Note_on_c, 0, 70, 82
1, 48573, Control_c, 0, 64, 74
1, 48587, Note_on_c, 0, 63, 47
1, 48588, Control_c, 0, 64, 75
1, 48602, Control_c, 0, 64, 76
1, 48612, Note_off_c, 0, 63, 56
1, 48617, Note_on_c, 0, 67, 39
1, 48632, Control_c, 0, 64, 76
1, 48662, Control_c, 0, 64, 77
1, 48678, Note_off_c, 0, 55, 38
1, 48807, Note_off_c, 0, 67, 42
1, 48821, Note_off_c, 0, 70, 61
1, 48829, Note_on_c, 0, 68, 65
1, 48869, Control_c, 0, 64, 76
1, 48877, Note_on_c, 0, 65, 19
1, 48883, Control_c, 0, 64, 72
1, 48886, Note_off_c, 0, 68, 61
1, 48898, Control_c, 0, 64, 62
1, 48905, Note_on_c, 0, 67, 53
1, 48910, Note_off_c, 0, 65, 41
1, 48913, Note_on_c, 0, 70, 59
1, 48913, Control_c, 0, 64, 0
1, 48929, Note_off_c, 0, 67, 55
1, 48949, Note_on_c, 0, 68, 74
1, 48958, Note_on_c, 0, 39, 67
1, 48958, Control_c, 0, 64, 48
1, 48959, Note_on_c, 0, 65, 58
1, 48964, Note_off_c, 0, 70, 62
1, 48973, Control_c, 0, 64, 62
1, 48988, Control_c, 0, 64, 66
1, 48999, Note_off_c, 0, 39, 62
1, 49002, Control_c, 0, 64, 69
1, 49017, Control_c, 0, 64, 72
1, 49032, Control_c, 0, 64, 73
1, 49047, Control_c, 0, 64, 74
1, 49062, Control_c, 0, 64, 75
1, 49076, Control_c, 0, 64, 75
1, 49106, Control_c, 0, 64, 76
1, 49135, Control_c, 0, 64, 76
1, 49187, Control_c, 0, 64, 77
1, 49217, Control_c, 0, 64, 77
1, 49232, Note_on_c, 0, 46, 48
1, 49232, Control_c, 0, 64, 78
1, 49237, Note_off_c, 0, 68, 60
1, 49247, Control_c, 0, 64, 78
1, 49274, Note_off_c, 0, 46, 58
1, 49291, Note_on_c, 0, 53, 55
1, 49331, Note_on_c, 0, 56, 57
1, 49337, Note_off_c, 0, 53, 59
1, 49351, Control_c, 0, 64, 78
1, 49353, Note_on_c, 0, 62, 78
1, 49363, Note_off_c, 0, 65, 53
1, 49366, Control_c, 0, 64, 77
1, 49381, Control_c, 0, 64, 74
1, 49384, Note_off_c, 0, 56, 56
1, 49387, Note_off_c, 0, 62, 62
1, 49396, Control_c, 0, 64, 70
1, 49411, Control_c, 0, 64, 62
1, 49425, Control_c, 0, 64, 36
1, 49440, Control_c, 0, 64, 0
1, 49526, Note_on_c, 0, 67, 60
1, 49529, Note_on_c, 0, 64, 53
1, 49718, Note_off_c, 0, 64, 64
1, 49724, Note_on_c, 0, 68, 71
1, 49727, Note_on_c, 0, 65, 61
1, 49728, Note_off_c, 0, 67, 61
1, 49756, Note_off_c, 0, 65, 67
1, 49766, Control_c, 0, 64, 18
1, 49766, Note_off_c, 0, 68, 64
1, 49780, Control_c, 0, 64, 24
1, 49795, Control_c, 0, 64, 25
1, 49810, Control_c, 0, 64, 26
1, 49825, Control_c, 0, 64, 28
1, 49840, Control_c, 0, 64, 31
1, 49855, Control_c, 0, 64, 32
1, 49965, Control_c, 0, 64, 32
1, 49980, Control_c, 0, 64, 31
1, 49995, Control_c, 0, 64, 29
1, 50010, Control_c, 0, 64, 28
1, 50013, Note_on_c, 0, 46, 26
1, 50025, Control_c, 0, 64, 25
1, 50040, Note_off_c, 0, 46, 49
1, 50040, Control_c, 0, 64, 21
1, 50049, Note_on_c, 0, 53, 45
1, 50055, Control_c, 0, 64, 13
1, 50070, Control_c, 0, 64, 0
1, 50081, Note_on_c, 0, 56, 55
1, 50107, Note_off_c, 0, 53, 57
1, 50123, Note_on_c, 0, 70, 73
1, 50128, Note_on_c, 0, 67, 54
1, 50137, Note_on_c, 0, 62, 63
1, 50147, Note_off_c, 0, 56, 57
1, 50153, Note_off_c, 0, 67, 64
1, 50153, Note_off_c, 0, 70, 64
1, 50169, Note_off_c, 0, 62, 63
1, 50562, Note_on_c, 0, 39, 29
1, 50603, Control_c, 0, 64, 49
1, 50618, Control_c, 0, 64, 61
1, 50624, Note_on_c, 0, 67, 62
1, 50630, Note_on_c, 0, 63, 49
1, 50633, Control_c, 0, 64, 64
1, 50648, Control_c, 0, 64, 65
1, 50663, Control_c, 0, 64, 67
1, 50678, Note_off_c, 0, 39, 54
1, 50685, Control_c, 0, 64, 70
1, 50700, Control_c, 0, 64, 74
1, 50715, Control_c, 0, 64, 80
1, 50729, Control_c, 0, 64, 85
1, 50744, Control_c, 0, 64, 89
1, 50759, Control_c, 0, 64, 93
1, 50773, Control_c, 0, 64, 96
1, 50776, Note_off_c, 0, 63, 50
1, 50788, Control_c, 0, 64, 99
1, 50803, Control_c, 0, 64, 102
1, 50818, Control_c, 0, 64, 105
1, 50833, Control_c, 0, 64, 108
1, 50848, Control_c, 0, 64, 110
1, 50863, Control_c, 0, 64, 113
1, 50877, Control_c, 0, 64, 115
1, 50892, Note_off_c, 0, 67, 63
1, 50892, Control_c, 0, 64, 117
1, 50907, Control_c, 0, 64, 118
1, 50922, Note_on_c, 0, 46, 37
1, 50922, Control_c, 0, 64, 119
1, 50952, Control_c, 0, 64, 120
1, 50959, Note_off_c, 0, 46, 49
1, 50967, Control_c, 0, 64, 122
1, 50982, Control_c, 0, 64, 123
1, 50997, Control_c, 0, 64, 124
1, 51003, Note_on_c, 0, 55, 49
1, 51012, Control_c, 0, 64, 125
1, 51026, Control_c, 0, 64, 125
1, 51071, Control_c, 0, 64, 126
1, 51071, Note_on_c, 0, 63, 53
1, 51086, Control_c, 0, 64, 127
1, 51093, Note_off_c, 0, 55, 52
1, 51098, Note_off_c, 0, 63, 54
1, 51781, Note_on_c, 0, 58, 85
1, 51864, Note_off_c, 0, 58, 61
1, 51924, Control_c, 0, 64, 121
1, 51939, Control_c, 0, 64, 109
1, 51953, Control_c, 0, 64, 100
1, 51959, Note_on_c, 0, 46, 60
1, 51968, Control_c, 0, 64, 91
1, 51983, Control_c, 0, 64, 82
1, 51998, Control_c, 0, 64, 72
1, 52004, Note_on_c, 0, 59, 83
1, 52013, Control_c, 0, 64, 60
1, 52027, Control_c, 0, 64, 0
1, 52054, Note_off_c, 0, 46, 62
1, 52056, Note_on_c, 0, 55, 59
1, 52066, Note_off_c, 0, 59, 63
1, 52144, Note_on_c, 0, 63, 76
1, 52179, Note_off_c, 0, 63, 67
1, 52192, Note_on_c, 0, 60, 84
1, 52196, Note_off_c, 0, 55, 64
1, 52252, Note_off_c, 0, 60, 62
1, 52323, Note_on_c, 0, 61, 88
1, 52365, Note_off_c, 0, 61, 63
1, 52435, Note_on_c, 0, 62, 91
1, 52492, Note_off_c, 0, 62, 60
1, 52533, Note_on_c, 0, 39, 55
1, 52609, Note_on_c, 0, 63, 85
1, 52702, Control_c, 0, 64, 25
1, 52704, Note_off_c, 0, 39, 59
1, 52717, Control_c, 0, 64, 59
1, 52732, Control_c, 0, 64, 66
1, 52746, Control_c, 0, 64, 70
1, 52761, Control_c, 0, 64, 73
1, 52776, Control_c, 0, 64, 77
1, 52791, Control_c, 0, 64, 79
1, 52806, Control_c, 0, 64, 80
1, 52821, Control_c, 0, 64, 81
1, 52836, Control_c, 0, 64, 82
1, 52850, Control_c, 0, 64, 83
1, 52865, Control_c, 0, 64, 84
1, 52870, Note_on_c, 0, 46, 54
1, 52880, Control_c, 0, 64, 84
1, 52890, Note_off_c, 0, 63, 63
1, 52895, Control_c, 0, 64, 85
1, 52912, Note_off_c, 0, 46, 60
1, 52973, Note_on_c, 0, 55, 48
1, 53037, Note_on_c, 0, 63, 58
1, 53039, Note_off_c, 0, 55, 62
1, 53063, Note_off_c, 0, 63, 55
1, 53301, Control_c, 0, 64, 84
1, 53316, Control_c, 0, 64, 83
1, 53331, Control_c, 0, 64, 80
1, 53333, Note_on_c, 0, 67, 73
1, 53347, Control_c, 0, 64, 74
1, 53362, Control_c, 0, 64, 65
1, 53366, Note_off_c, 0, 67, 61
1, 53377, Control_c, 0, 64, 15
1, 53391, Control_c, 0, 64, 0
1, 53414, Note_on_c, 0, 68, 74
1, 53444, Note_off_c, 0, 68, 64
1, 53679, Note_on_c, 0, 46, 33
1, 53718, Note_off_c, 0, 46, 48
1, 53769, Note_on_c, 0, 55, 47
1, 53814, Note_on_c, 0, 69, 76
1, 53820, Note_on_c, 0, 63, 56
1, 53829, Note_off_c, 0, 55, 60
1, 53841, Note_off_c, 0, 63, 63
1, 53867, Note_off_c, 0, 69, 62
1, 53989, Note_on_c, 0, 69, 60
1, 54074, Note_off_c, 0, 69, 60
1, 54091, Note_on_c, 0, 70, 60
1, 54156, Control_c, 0, 64, 27
1, 54171, Control_c, 0, 64, 52
1, 54186, Control_c, 0, 64, 58
1, 54198, Note_on_c, 0, 39, 45
1, 54201, Control_c, 0, 64, 62
1, 54207, Note_off_c, 0, 70, 60
1, 54215, Control_c, 0, 64, 64
1, 54226, Note_on_c, 0, 72, 59
1, 54230, Control_c, 0, 64, 67
1, 54245, Control_c, 0, 64, 70
1, 54260, Control_c, 0, 64, 73
1, 54275, Control_c, 0, 64, 75
1, 54286, Note_off_c, 0, 39, 58
1, 54290, Control_c, 0, 64, 76
1, 54304, Control_c, 0, 64, 77
1, 54319, Control_c, 0, 64, 77
1, 54329, Note_off_c, 0, 72, 62
1, 54334, Control_c, 0, 64, 78
1, 54344, Note_on_c, 0, 70, 57
1, 54362, Control_c, 0, 64, 78
1, 54398, Note_off_c, 0, 70, 60
1, 54429, Note_on_c, 0, 72, 59
1, 54469, Note_off_c, 0, 72, 60
1, 54496, Note_on_c, 0, 70, 65
1, 54514, Note_on_c, 0, 46, 50
1, 54531, Note_off_c, 0, 70, 65
1, 54554, Note_off_c, 0, 46, 48
1, 54556, Note_on_c, 0, 72, 65
1, 54574, Note_on_c, 0, 55, 52
1, 54586, Note_off_c, 0, 72, 68
1, 54608, Note_on_c, 0, 70, 73
1, 54634, Note_on_c, 0, 63, 69
1, 54638, Note_off_c, 0, 70, 59
1, 54667, Note_on_c, 0, 72, 72
1, 54693, Note_off_c, 0, 63, 54
1, 54693, Note_off_c, 0, 72, 68
1, 54722, Note_on_c, 0, 70, 66
1, 54744, Note_off_c, 0, 70, 62
1, 54767, Note_on_c, 0, 72, 68
1, 54785, Control_c, 0, 64, 77
1, 54794, Note_off_c, 0, 72, 63
1, 54800, Control_c, 0, 64, 75
1, 54813, Note_on_c, 0, 70, 77
1, 54814, Control_c, 0, 64, 70
1, 54829, Control_c, 0, 64, 59
1, 54840, Note_off_c, 0, 70, 59
1, 54844, Control_c, 0, 64, 0
1, 54866, Note_off_c, 0, 55, 15
1, 54884, Note_on_c, 0, 69, 60
1, 54919, Note_off_c, 0, 69, 68
1, 54929, Note_on_c, 0, 70, 70
1, 54955, Note_off_c, 0, 70, 68
1, 54975, Note_on_c, 0, 79, 78
1, 54982, Note_on_c, 0, 75, 58
1, 55003, Note_off_c, 0, 75, 65
1, 55004, Note_off_c, 0, 79, 64
1, 55082, Control_c, 0, 67, 12
1, 55097, Control_c, 0, 67, 17
1, 55111, Control_c, 0, 67, 22
1, 55126, Control_c, 0, 67, 27
1, 55141, Control_c, 0, 67, 33
1, 55163, Control_c, 0, 67, 40
1, 55178, Control_c, 0, 67, 48
1, 55193, Control_c, 0, 67, 56
1, 55208, Control_c, 0, 67, 64
1, 55223, Control_c, 0, 67, 69
1, 55231, Note_on_c, 0, 46, 42
1, 55238, Control_c, 0, 64, 50
1, 55238, Control_c, 0, 67, 72
1, 55252, Control_c, 0, 64, 62
1, 55252, Control_c, 0, 67, 73
1, 55263, Note_off_c, 0, 46, 54
1, 55267, Control_c, 0, 64, 64
1, 55267, Control_c, 0, 67, 72
1, 55282, Control_c, 0, 64, 66
1, 55282, Control_c, 0, 67, 72
1, 55297, Control_c, 0, 64, 68
1, 55297, Control_c, 0, 67, 71
1, 55301, Note_on_c, 0, 55, 56
1, 55312, Control_c, 0, 64, 71
1, 55312, Control_c, 0, 67, 71
1, 55326, Control_c, 0, 64, 75
1, 55341, Control_c, 0, 64, 77
1, 55356, Control_c, 0, 64, 79
1, 55356, Control_c, 0, 67, 70
1, 55370, Control_c, 0, 64, 80
1, 55385, Control_c, 0, 64, 81
1, 55385, Control_c, 0, 67, 69
1, 55386, Note_on_c, 0, 63, 63
1, 55400, Control_c, 0, 64, 82
1, 55407, Note_off_c, 0, 55, 56
1, 55407, Note_off_c, 0, 63, 64
1, 55415, Control_c, 0, 64, 82
1, 55474, Control_c, 0, 67, 68
1, 55489, Control_c, 0, 67, 68
1, 55539, Note_on_c, 0, 70, 72
1, 55550, Note_on_c, 0, 67, 60
1, 55563, Control_c, 0, 67, 67
1, 55578, Control_c, 0, 67, 67
1, 55580, Note_off_c, 0, 67, 54
1, 55593, Control_c, 0, 67, 66
1, 55601, Note_off_c, 0, 70, 61
1, 55608, Note_on_c, 0, 68, 73
1, 55608, Control_c, 0, 64, 81
1, 55608, Control_c, 0, 67, 66
1, 55623, Control_c, 0, 64, 77
1, 55623, Control_c, 0, 67, 65
1, 55637, Control_c, 0, 64, 71
1, 55645, Note_off_c, 0, 68, 58
1, 55652, Control_c, 0, 64, 60
1, 55652, Control_c, 0, 67, 65
1, 55659, Note_on_c, 0, 65, 6
1, 55667, Control_c, 0, 64, 0
1, 55668, Note_on_c, 0, 67, 62
1, 55677, Note_on_c, 0, 70, 63
1, 55699, Note_off_c, 0, 67, 66
1, 55711, Control_c, 0, 67, 65
1, 55714, Note_off_c, 0, 65, 0
1, 55714, Note_on_c, 0, 65, 36
1, 55715, Note_on_c, 0, 68, 87
1, 55725, Note_on_c, 0, 39, 54
1, 55726, Control_c, 0, 67, 66
1, 55736, Note_off_c, 0, 70, 63
1, 55742, Control_c, 0, 67, 66
1, 55763, Note_off_c, 0, 39, 63
1, 55772, Control_c, 0, 64, 51
1, 55772, Control_c, 0, 67, 67
1, 55786, Control_c, 0, 64, 63
1, 55786, Control_c, 0, 67, 67
1, 55801, Control_c, 0, 64, 65
1, 55816, Control_c, 0, 64, 68
1, 55816, Control_c, 0, 67, 68
1, 55831, Control_c, 0, 64, 72
1, 55846, Control_c, 0, 64, 76
1, 55846, Control_c, 0, 67, 67
1, 55860, Control_c, 0, 64, 79
1, 55875, Control_c, 0, 64, 80
1, 55890, Control_c, 0, 64, 81
1, 55905, Control_c, 0, 64, 81
1, 55905, Control_c, 0, 67, 67
1, 55942, Control_c, 0, 64, 82
1, 55942, Control_c, 0, 67, 66
1, 55972, Control_c, 0, 67, 66
1, 55984, Note_off_c, 0, 68, 55
1, 55987, Control_c, 0, 67, 65
1, 55989, Note_on_c, 0, 46, 35
1, 56016, Control_c, 0, 67, 65
1, 56031, Control_c, 0, 67, 64
1, 56042, Note_off_c, 0, 46, 44
1, 56055, Note_on_c, 0, 53, 56
1, 56061, Control_c, 0, 67, 64
1, 56075, Control_c, 0, 67, 63
1, 56106, Note_on_c, 0, 56, 52
1, 56134, Control_c, 0, 67, 63
1, 56138, Note_off_c, 0, 65, 40
1, 56144, Note_off_c, 0, 53, 49
1, 56145, Note_on_c, 0, 62, 63
1, 56171, Note_off_c, 0, 62, 59
1, 56173, Note_off_c, 0, 56, 50
1, 56179, Control_c, 0, 67, 63
1, 56223, Control_c, 0, 64, 81
1, 56223, Control_c, 0, 67, 64
1, 56253, Control_c, 0, 64, 81
1, 56253, Control_c, 0, 67, 63
1, 56267, Control_c, 0, 64, 79
1, 56282, Control_c, 0, 64, 75
1, 56294, Note_on_c, 0, 67, 66
1, 56297, Control_c, 0, 64, 69
1, 56309, Note_on_c, 0, 64, 58
1, 56312, Control_c, 0, 64, 55
1, 56327, Control_c, 0, 64, 0
1, 56446, Control_c, 0, 67, 64
1, 56487, Note_off_c, 0, 64, 63
1, 56497, Note_on_c, 0, 68, 70
1, 56499, Note_on_c, 0, 65, 56
1, 56505, Note_off_c, 0, 67, 62
1, 56505, Control_c, 0, 67, 64
1, 56520, Note_off_c, 0, 65, 64
1, 56524, Note_off_c, 0, 68, 68
1, 56809, Note_on_c, 0, 46, 41
1, 56824, Control_c, 0, 67, 64
1, 56854, Control_c, 0, 67, 63
1, 56862, Note_on_c, 0, 53, 44
1, 56899, Note_on_c, 0, 70, 72
1, 56905, Note_off_c, 0, 46, 36
1, 56906, Note_off_c, 0, 53, 63
1, 56909, Note_on_c, 0, 62, 60
1, 56914, Control_c, 0, 67, 63
1, 56915, Note_on_c, 0, 56, 50
1, 56927, Note_off_c, 0, 70, 64
1, 56930, Note_off_c, 0, 62, 62
1, 56943, Control_c, 0, 67, 62
1, 56953, Note_off_c, 0, 56, 63
1, 57032, Control_c, 0, 67, 62
1, 57135, Control_c, 0, 67, 62
1, 57254, Control_c, 0, 64, 29
1, 57269, Control_c, 0, 64, 43
1, 57283, Control_c, 0, 64, 51
1, 57298, Control_c, 0, 64, 56
1, 57313, Control_c, 0, 64, 59
1, 57328, Control_c, 0, 64, 62
1, 57328, Control_c, 0, 67, 62
1, 57344, Control_c, 0, 64, 64
1, 57358, Control_c, 0, 64, 66
1, 57373, Control_c, 0, 64, 69
1, 57375, Note_on_c, 0, 63, 70
1, 57388, Control_c, 0, 64, 73
1, 57390, Note_on_c, 0, 39, 39
1, 57403, Control_c, 0, 64, 77
1, 57418, Note_off_c, 0, 63, 63
1, 57426, Control_c, 0, 64, 80
1, 57440, Control_c, 0, 64, 81
1, 57455, Control_c, 0, 64, 82
1, 57464, Note_off_c, 0, 39, 53
1, 57470, Control_c, 0, 64, 82
1, 57485, Control_c, 0, 64, 83
1, 57692, Control_c, 0, 67, 61
1, 57717, Note_on_c, 0, 46, 51
1, 57722, Control_c, 0, 67, 61
1, 57736, Control_c, 0, 64, 81
1, 57751, Control_c, 0, 64, 77
1, 57754, Note_off_c, 0, 46, 51
1, 57766, Control_c, 0, 64, 71
1, 57781, Control_c, 0, 64, 60
1, 57781, Control_c, 0, 67, 60
1, 57796, Control_c, 0, 64, 0
1, 57796, Control_c, 0, 67, 59
1, 57798, Note_on_c, 0, 55, 46
1, 57811, Control_c, 0, 67, 58
1, 57826, Control_c, 0, 67, 55
1, 57840, Control_c, 0, 67, 51
1, 57841, Note_on_c, 0, 63, 62
1, 57855, Note_off_c, 0, 55, 61
1, 57855, Control_c, 0, 67, 46
1, 57864, Note_off_c, 0, 63, 60
1, 57870, Control_c, 0, 67, 39
1, 57884, Control_c, 0, 67, 34
1, 57899, Control_c, 0, 67, 34
1, 57929, Control_c, 0, 67, 35
1, 57944, Control_c, 0, 67, 36
1, 57958, Control_c, 0, 67, 37
1, 57973, Control_c, 0, 67, 38
1, 57988, Control_c, 0, 67, 39
1, 58003, Control_c, 0, 67, 40
1, 58018, Control_c, 0, 67, 41
1, 58047, Control_c, 0, 67, 41
1, 58062, Control_c, 0, 67, 42
1, 58106, Control_c, 0, 67, 42
1, 58136, Control_c, 0, 67, 43
1, 58151, Control_c, 0, 67, 45
1, 58174, Control_c, 0, 67, 47
1, 58188, Control_c, 0, 67, 50
1, 58203, Control_c, 0, 67, 59
1, 58218, Control_c, 0, 67, 70
1, 58233, Control_c, 0, 67, 83
1, 58248, Control_c, 0, 67, 101
1, 58262, Control_c, 0, 67, 125
1, 58277, Control_c, 0, 67, 127
1, 58533, Note_on_c, 0, 46, 45
1, 58568, Note_off_c, 0, 46, 58
1, 58606, Note_on_c, 0, 55, 48
1, 58644, Note_on_c, 0, 63, 64
1, 58667, Note_off_c, 0, 55, 60
1, 58672, Note_off_c, 0, 63, 65
1, 59055, Control_c, 0, 64, 37
1, 59066, Note_on_c, 0, 39, 44
1, 59070, Control_c, 0, 64, 57
1, 59084, Control_c, 0, 64, 64
1, 59099, Control_c, 0, 64, 68
1, 59114, Control_c, 0, 64, 73
1, 59129, Control_c, 0, 64, 77
1, 59130, Note_off_c, 0, 39, 56
1, 59143, Control_c, 0, 64, 80
1, 59158, Control_c, 0, 64, 81
1, 59173, Control_c, 0, 64, 82
1, 59188, Control_c, 0, 64, 82
1, 59218, Control_c, 0, 64, 83
1, 59382, Note_on_c, 0, 46, 40
1, 59410, Control_c, 0, 64, 82
1, 59425, Note_off_c, 0, 46, 48
1, 59425, Control_c, 0, 64, 80
1, 59440, Control_c, 0, 64, 77
1, 59455, Control_c, 0, 64, 71
1, 59470, Control_c, 0, 64, 62
1, 59471, Note_on_c, 0, 55, 43
1, 59484, Control_c, 0, 64, 0
1, 59514, Note_off_c, 0, 55, 47
1, 59518, Note_on_c, 0, 63, 53
1, 59543, Note_off_c, 0, 63, 60
1, 59997, Control_c, 0, 67, 117
1, 60012, Control_c, 0, 67, 98
1, 60027, Control_c, 0, 67, 81
1, 60041, Control_c, 0, 67, 66
1, 60056, Control_c, 0, 67, 53
1, 60071, Control_c, 0, 67, 43
1, 60086, Control_c, 0, 67, 37
1, 60101, Control_c, 0, 67, 33
1, 60115, Control_c, 0, 67, 31
1, 60130, Control_c, 0, 67, 30
1, 60145, Control_c, 0, 67, 29
1, 60160, Control_c, 0, 67, 27
1, 60174, Note_on_c, 0, 46, 36
1, 60175, Control_c, 0, 67, 23
1, 60190, Control_c, 0, 67, 19
1, 60202, Note_off_c, 0, 46, 52
1, 60205, Control_c, 0, 67, 14
1, 60220, Control_c, 0, 67, 10
1, 60234, Control_c, 0, 67, 0
1, 60240, Note_on_c, 0, 55, 45
1, 60284, Note_on_c, 0, 63, 58
1, 60300, Note_off_c, 0, 55, 62
1, 60304, Note_off_c, 0, 63, 64
1, 60602, Note_on_c, 0, 70, 75
1, 60626, Note_off_c, 0, 70, 67
1, 60687, Note_on_c, 0, 75, 82
1, 60693, Note_on_c, 0, 39, 48
1, 60693, Note_on_c, 0, 63, 74
1, 60741, Note_off_c, 0, 39, 58
1, 60760, Control_c, 0, 64, 47
1, 60775, Control_c, 0, 64, 65
1, 60789, Control_c, 0, 64, 69
1, 60804, Control_c, 0, 64, 74
1, 60819, Control_c, 0, 64, 78
1, 60834, Control_c, 0, 64, 80
1, 60849, Control_c, 0, 64, 80
1, 60863, Control_c, 0, 64, 81
1, 60878, Control_c, 0, 64, 81
1, 60883, Note_off_c, 0, 63, 53
1, 60935, Note_on_c, 0, 46, 48
1, 60949, Note_off_c, 0, 75, 52
1, 60983, Note_off_c, 0, 46, 47
1, 61026, Note_on_c, 0, 55, 52
1, 61088, Note_on_c, 0, 63, 71
1, 61123, Note_off_c, 0, 63, 62
1, 61125, Note_off_c, 0, 55, 56
1, 61361, Control_c, 0, 64, 81
1, 61370, Note_on_c, 0, 79, 75
1, 61376, Note_on_c, 0, 67, 62
1, 61376, Control_c, 0, 64, 77
1, 61391, Control_c, 0, 64, 69
1, 61393, Note_off_c, 0, 79, 66
1, 61394, Note_off_c, 0, 67, 62
1, 61405, Control_c, 0, 64, 51
1, 61420, Control_c, 0, 64, 0
1, 61450, Control_c, 0, 64, 17
1, 61456, Note_on_c, 0, 80, 88
1, 61460, Note_on_c, 0, 68, 78
1, 61465, Control_c, 0, 64, 62
1, 61479, Control_c, 0, 64, 67
1, 61481, Note_off_c, 0, 80, 59
1, 61484, Note_off_c, 0, 68, 66
1, 61494, Control_c, 0, 64, 71
1, 61509, Control_c, 0, 64, 75
1, 61524, Control_c, 0, 64, 78
1, 61538, Control_c, 0, 64, 79
1, 61627, Control_c, 0, 64, 80
1, 61657, Control_c, 0, 64, 80
1, 61672, Control_c, 0, 64, 81
1, 61686, Control_c, 0, 64, 81
1, 61688, Note_on_c, 0, 46, 52
1, 61746, Control_c, 0, 64, 79
1, 61750, Note_off_c, 0, 46, 58
1, 61761, Control_c, 0, 64, 74
1, 61776, Control_c, 0, 64, 64
1, 61791, Control_c, 0, 64, 0
1, 61796, Note_on_c, 0, 55, 43
1, 61818, Note_on_c, 0, 81, 86
1, 61820, Control_c, 0, 64, 21
1, 61831, Note_on_c, 0, 69, 70
1, 61835, Control_c, 0, 64, 59
1, 61850, Control_c, 0, 64, 66
1, 61865, Control_c, 0, 64, 70
1, 61873, Note_off_c, 0, 69, 54
1, 61879, Control_c, 0, 64, 74
1, 61894, Control_c, 0, 64, 77
1, 61914, Note_off_c, 0, 55, 57
1, 61916, Control_c, 0, 64, 79
1, 61925, Note_off_c, 0, 81, 60
1, 61931, Control_c, 0, 64, 80
1, 61936, Poly_aftertouch_c, 0, 63, 127
1, 61946, Control_c, 0, 64, 81
1, 61959, Poly_aftertouch_c, 0, 63, 0
1, 61960, Control_c, 0, 64, 84
1, 61975, Control_c, 0, 64, 86
1, 61990, Control_c, 0, 64, 89
1, 62000, Note_on_c, 0, 70, 72
1, 62005, Control_c, 0, 64, 92
1, 62020, Control_c, 0, 64, 92
1, 62094, Control_c, 0, 64, 90
1, 62109, Control_c, 0, 64, 83
1, 62119, Note_off_c, 0, 70, 59
1, 62122, Note_on_c, 0, 75, 69
1, 62124, Control_c, 0, 64, 72
1, 62139, Control_c, 0, 64, 57
1, 62154, Control_c, 0, 64, 0
1, 62169, Control_c, 0, 64, 33
1, 62184, Control_c, 0, 64, 59
1, 62193, Note_off_c, 0, 75, 64
1, 62199, Control_c, 0, 64, 66
1, 62208, Note_on_c, 0, 82, 66
1, 62214, Control_c, 0, 64, 70
1, 62215, Note_on_c, 0, 39, 54
1, 62228, Control_c, 0, 64, 73
1, 62243, Control_c, 0, 64, 75
1, 62247, Note_off_c, 0, 39, 61
1, 62247, Note_off_c, 0, 82, 65
1, 62258, Control_c, 0, 64, 76
1, 62259, Note_on_c, 0, 84, 66
1, 62273, Control_c, 0, 64, 77
1, 62288, Control_c, 0, 64, 77
1, 62288, Note_off_c, 0, 84, 52
1, 62302, Control_c, 0, 64, 79
1, 62317, Control_c, 0, 64, 80
1, 62319, Note_on_c, 0, 82, 56
1, 62332, Control_c, 0, 64, 82
1, 62341, Note_off_c, 0, 82, 63
1, 62347, Control_c, 0, 64, 83
1, 62358, Note_on_c, 0, 81, 72
1, 62384, Note_off_c, 0, 81, 62
1, 62406, Control_c, 0, 64, 81
1, 62408, Note_on_c, 0, 46, 61
1, 62413, Note_on_c, 0, 82, 77
1, 62421, Control_c, 0, 64, 76
1, 62435, Control_c, 0, 64, 65
1, 62450, Control_c, 0, 64, 0
1, 62457, Note_off_c, 0, 82, 60
1, 62464, Note_off_c, 0, 46, 56
1, 62476, Note_on_c, 0, 84, 79
1, 62488, Note_on_c, 0, 55, 58
1, 62494, Control_c, 0, 64, 48
1, 62509, Control_c, 0, 64, 63
1, 62524, Control_c, 0, 64, 67
1, 62535, Note_off_c, 0, 84, 53
1, 62538, Note_on_c, 0, 82, 83
1, 62539, Control_c, 0, 64, 71
1, 62554, Control_c, 0, 64, 76
1, 62569, Control_c, 0, 64, 81
1, 62583, Control_c, 0, 64, 83
1, 62592, Note_on_c, 0, 63, 73
1, 62592, Note_on_c, 0, 75, 78
1, 62597, Note_off_c, 0, 82, 65
1, 62598, Control_c, 0, 64, 84
1, 62613, Control_c, 0, 64, 84
1, 62622, Note_off_c, 0, 63, 64
1, 62628, Control_c, 0, 64, 85
1, 62642, Note_off_c, 0, 75, 64
1, 62643, Control_c, 0, 64, 86
1, 62658, Note_on_c, 0, 70, 75
1, 62665, Control_c, 0, 64, 87
1, 62679, Note_off_c, 0, 70, 69
1, 62679, Control_c, 0, 64, 87
1, 62709, Control_c, 0, 64, 88
1, 62715, Note_on_c, 0, 63, 76
1, 62753, Note_on_c, 0, 70, 77
1, 62754, Control_c, 0, 64, 88
1, 62768, Control_c, 0, 64, 89
1, 62795, Note_off_c, 0, 70, 62
1, 62804, Note_on_c, 0, 75, 64
1, 62813, Control_c, 0, 64, 89
1, 62855, Note_on_c, 0, 82, 72
1, 62861, Note_off_c, 0, 75, 61
1, 62871, Note_off_c, 0, 82, 68
1, 62884, Note_off_c, 0, 63, 57
1, 62887, Control_c, 0, 64, 90
1, 62917, Note_on_c, 0, 87, 91
1, 62932, Control_c, 0, 64, 90
1, 62943, Note_off_c, 0, 87, 60
1, 62947, Control_c, 0, 64, 91
1, 63051, Note_off_c, 0, 55, 30
1, 63159, Note_on_c, 0, 46, 56
1, 63203, Note_off_c, 0, 46, 61
1, 63228, Note_on_c, 0, 55, 57
1, 63293, Note_on_c, 0, 63, 73
1, 63318, Note_off_c, 0, 63, 69
1, 63338, Note_off_c, 0, 55, 62
1, 63423, Note_on_c, 0, 70, 67
1, 63435, Note_on_c, 0, 67, 59
1, 63450, Note_off_c, 0, 70, 66
1, 63456, Note_off_c, 0, 67, 65
1, 63503, Control_c, 0, 64, 90
1, 63511, Note_on_c, 0, 70, 69
1, 63518, Control_c, 0, 64, 90
1, 63533, Control_c, 0, 64, 87
1, 63540, Note_off_c, 0, 70, 64
1, 63547, Note_on_c, 0, 67, 33
1, 63548, Control_c, 0, 64, 81
1, 63559, Note_on_c, 0, 69, 60
1, 63563, Control_c, 0, 64, 71
1, 63577, Note_off_c, 0, 67, 49
1, 63577, Control_c, 0, 64, 53
1, 63592, Control_c, 0, 64, 0
1, 63594, Note_on_c, 0, 66, 46
1, 63606, Note_off_c, 0, 69, 66
1, 63622, Note_off_c, 0, 66, 59
1, 63623, Note_on_c, 0, 65, 66
1, 63624, Note_on_c, 0, 68, 78
1, 63637, Control_c, 0, 67, 13
1, 63639, Note_on_c, 0, 39, 45
1, 63651, Note_off_c, 0, 65, 68
1, 63652, Control_c, 0, 67, 32
1, 63652, Note_off_c, 0, 68, 67
1, 63666, Control_c, 0, 67, 52
1, 63667, Note_off_c, 0, 39, 53
1, 63681, Control_c, 0, 67, 69
1, 63696, Control_c, 0, 67, 83
1, 63710, Control_c, 0, 67, 94
1, 63726, Control_c, 0, 67, 107
1, 63741, Control_c, 0, 67, 119
1, 63756, Control_c, 0, 67, 127
1, 63887, Note_on_c, 0, 82, 54
1, 63917, Note_on_c, 0, 79, 34
1, 63919, Note_on_c, 0, 46, 36
1, 63924, Note_off_c, 0, 82, 53
1, 63937, Note_on_c, 0, 81, 49
1, 63946, Note_off_c, 0, 79, 33
1, 63947, Note_off_c, 0, 46, 52
1, 63958, Note_on_c, 0, 53, 35
1, 63962, Note_off_c, 0, 81, 59
1, 63969, Note_on_c, 0, 78, 37
1, 63980, Note_on_c, 0, 80, 71
1, 63984, Note_on_c, 0, 77, 57
1, 63986, Note_on_c, 0, 56, 38
1, 63989, Note_off_c, 0, 78, 51
1, 64001, Note_off_c, 0, 80, 70
1, 64002, Note_off_c, 0, 77, 60
1, 64021, Note_on_c, 0, 62, 49
1, 64068, Note_off_c, 0, 56, 0
1, 64068, Note_on_c, 0, 56, 5
1, 64248, Note_on_c, 0, 94, 63
1, 64253, Control_c, 0, 64, 29
1, 64268, Control_c, 0, 64, 43
1, 64270, Note_on_c, 0, 91, 64
1, 64274, Note_off_c, 0, 94, 65
1, 64282, Control_c, 0, 64, 50
1, 64282, Control_c, 0, 67, 122
1, 64286, Note_off_c, 0, 91, 60
1, 64291, Note_on_c, 0, 93, 72
1, 64297, Control_c, 0, 64, 54
1, 64297, Control_c, 0, 67, 100
1, 64311, Note_on_c, 0, 90, 42
1, 64312, Control_c, 0, 64, 61
1, 64312, Control_c, 0, 67, 74
1, 64326, Control_c, 0, 64, 64
1, 64326, Control_c, 0, 67, 52
1, 64327, Note_on_c, 0, 92, 93
1, 64330, Note_off_c, 0, 62, 40
1, 64334, Note_off_c, 0, 93, 60
1, 64336, Note_off_c, 0, 90, 62
1, 64341, Control_c, 0, 64, 61
1, 64341, Control_c, 0, 67, 39
1, 64342, Note_on_c, 0, 89, 62
1, 64352, Note_off_c, 0, 53, 23
1, 64356, Control_c, 0, 64, 52
1, 64356, Control_c, 0, 67, 36
1, 64360, Note_off_c, 0, 89, 62
1, 64363, Note_off_c, 0, 92, 67
1, 64371, Control_c, 0, 64, 23
1, 64371, Control_c, 0, 67, 35
1, 64386, Control_c, 0, 64, 0
1, 64445, Control_c, 0, 67, 35
1, 64446, Note_off_c, 0, 56, 37
1, 64459, Control_c, 0, 67, 33
1, 64474, Control_c, 0, 67, 30
1, 64489, Control_c, 0, 67, 22
1, 64504, Control_c, 0, 67, 12
1, 64519, Control_c, 0, 67, 0
1, 64625, Note_on_c, 0, 46, 42
1, 64653, Note_on_c, 0, 67, 78
1, 64664, Note_on_c, 0, 64, 57
1, 64670, Note_off_c, 0, 46, 55
1, 64675, Note_on_c, 0, 53, 51
1, 64676, Note_off_c, 0, 67, 69
1, 64684, Note_off_c, 0, 64, 64
1, 64708, Note_on_c, 0, 56, 46
1, 64738, Note_on_c, 0, 65, 74
1, 64740, Note_on_c, 0, 68, 79
1, 64741, Note_on_c, 0, 62, 62
1, 64756, Note_off_c, 0, 56, 58
1, 64761, Note_off_c, 0, 65, 69
1, 64761, Note_off_c, 0, 68, 71
1, 64765, Note_off_c, 0, 62, 63
1, 64767, Note_off_c, 0, 53, 47
1, 64961, Note_on_c, 0, 70, 76
1, 64962, Note_on_c, 0, 67, 76
1, 64986, Note_off_c, 0, 67, 65
1, 64986, Note_off_c, 0, 70, 68
1, 65183, Note_on_c, 0, 39, 40
1, 65247, Note_on_c, 0, 67, 76
1, 65252, Control_c, 0, 64, 50
1, 65267, Control_c, 0, 64, 64
1, 65270, Note_on_c, 0, 63, 41
1, 65281, Control_c, 0, 64, 69
1, 65291, Note_off_c, 0, 39, 57
1, 65296, Control_c, 0, 64, 74
1, 65311, Control_c, 0, 64, 79
1, 65327, Control_c, 0, 64, 82
1, 65342, Control_c, 0, 64, 84
1, 65351, Note_off_c, 0, 63, 41
1, 65357, Control_c, 0, 64, 86
1, 65371, Control_c, 0, 64, 88
1, 65386, Control_c, 0, 64, 89
1, 65401, Control_c, 0, 64, 90
1, 65416, Control_c, 0, 64, 90
1, 65431, Control_c, 0, 64, 91
1, 65451, Note_off_c, 0, 67, 63
1, 65538, Note_on_c, 0, 46, 39
1, 65579, Note_off_c, 0, 46, 51
1, 65631, Note_on_c, 0, 55, 51
1, 65710, Note_on_c, 0, 63, 49
1, 65724, Note_off_c, 0, 55, 53
1, 65747, Note_off_c, 0, 63, 51
1, 65883, Control_c, 0, 64, 91
1, 65927, Control_c, 0, 64, 92
1, 65942, Control_c, 0, 64, 93
1, 65957, Control_c, 0, 64, 95
1, 65971, Control_c, 0, 64, 97
1, 65986, Control_c, 0, 64, 99
1, 66001, Control_c, 0, 64, 102
1, 66016, Control_c, 0, 64, 104
1, 66031, Control_c, 0, 64, 107
1, 66045, Control_c, 0, 64, 109
1, 66060, Control_c, 0, 64, 110
1, 66075, Control_c, 0, 64, 111
1, 66090, Control_c, 0, 64, 111
1, 66104, Control_c, 0, 64, 112
1, 66369, Note_on_c, 0, 70, 83
1, 66374, Note_on_c, 0, 58, 79
1, 66440, Control_c, 0, 64, 112
1, 66487, Note_off_c, 0, 58, 62
1, 66488, Note_off_c, 0, 70, 60
1, 66541, Note_on_c, 0, 46, 63
1, 66584, Note_on_c, 0, 71, 84
1, 66585, Note_on_c, 0, 59, 79
1, 66602, Control_c, 0, 64, 113
1, 66632, Control_c, 0, 64, 113
1, 66634, Note_off_c, 0, 46, 63
1, 66635, Note_on_c, 0, 55, 62
1, 66648, Note_off_c, 0, 59, 57
1, 66662, Control_c, 0, 64, 114
1, 66670, Note_off_c, 0, 71, 58
1, 66676, Control_c, 0, 64, 115
1, 66691, Control_c, 0, 64, 115
1, 66706, Control_c, 0, 64, 116
1, 66721, Control_c, 0, 64, 115
1, 66730, Note_on_c, 0, 63, 75
1, 66736, Control_c, 0, 64, 108
1, 66751, Control_c, 0, 64, 98
1, 66766, Control_c, 0, 64, 88
1, 66781, Control_c, 0, 64, 78
1, 66787, Note_on_c, 0, 72, 90
1, 66794, Note_on_c, 0, 60, 79
1, 66795, Control_c, 0, 64, 67
1, 66810, Control_c, 0, 64, 57
1, 66825, Control_c, 0, 64, 61
1, 66834, Note_off_c, 0, 63, 63
1, 66840, Control_c, 0, 64, 67
1, 66854, Control_c, 0, 64, 75
1, 66868, Note_off_c, 0, 60, 60
1, 66869, Control_c, 0, 64, 84
1, 66872, Note_off_c, 0, 55, 59
1, 66884, Control_c, 0, 64, 88
1, 66885, Note_off_c, 0, 72, 60
1, 66899, Control_c, 0, 64, 89
1, 66914, Control_c, 0, 64, 90
1, 66930, Control_c, 0, 64, 91
1, 66944, Control_c, 0, 64, 92
1, 66959, Note_on_c, 0, 73, 89
1, 66959, Control_c, 0, 64, 93
1, 66965, Note_on_c, 0, 61, 83
1, 66974, Control_c, 0, 64, 94
1, 66989, Control_c, 0, 64, 95
1, 66998, Note_off_c, 0, 61, 59
1, 67004, Control_c, 0, 64, 96
1, 67007, Note_off_c, 0, 73, 62
1, 67077, Note_on_c, 0, 74, 89
1, 67080, Note_on_c, 0, 62, 87
1, 67114, Note_off_c, 0, 62, 60
1, 67128, Note_off_c, 0, 74, 63
1, 67156, Note_on_c, 0, 39, 67
1, 67174, Control_c, 0, 64, 94
1, 67189, Control_c, 0, 64, 89
1, 67204, Control_c, 0, 64, 79
1, 67219, Control_c, 0, 64, 65
1, 67221, Note_on_c, 0, 75, 95
1, 67233, Note_on_c, 0, 63, 81
1, 67233, Control_c, 0, 64, 0
1, 67317, Note_off_c, 0, 39, 59
1, 67322, Control_c, 0, 64, 17
1, 67337, Control_c, 0, 64, 63
1, 67351, Control_c, 0, 64, 68
1, 67366, Control_c, 0, 64, 72
1, 67381, Control_c, 0, 64, 77
1, 67396, Control_c, 0, 64, 80
1, 67411, Control_c, 0, 64, 82
1, 67425, Control_c, 0, 64, 83
1, 67440, Control_c, 0, 64, 84
1, 67448, Note_off_c, 0, 63, 54
1, 67455, Control_c, 0, 64, 85
1, 67470, Control_c, 0, 64, 85
1, 67472, Note_on_c, 0, 46, 60
1, 67523, Note_off_c, 0, 46, 56
1, 67565, Note_on_c, 0, 55, 53
1, 67588, Control_c, 0, 64, 86
1, 67647, Note_on_c, 0, 63, 74
1, 67664, Note_off_c, 0, 75, 54
1, 67677, Control_c, 0, 64, 86
1, 67689, Note_off_c, 0, 63, 52
1, 67692, Control_c, 0, 64, 87
1, 67707, Control_c, 0, 64, 87
1, 67723, Control_c, 0, 64, 88
1, 67737, Control_c, 0, 64, 89
1, 67752, Control_c, 0, 64, 89
1, 67767, Control_c, 0, 64, 90
1, 67782, Control_c, 0, 64, 90
1, 67809, Note_off_c, 0, 55, 23
1, 67812, Control_c, 0, 64, 91
1, 67856, Control_c, 0, 64, 91
1, 67871, Control_c, 0, 64, 92
1, 67937, Note_on_c, 0, 79, 80
1, 67937, Control_c, 0, 64, 90
1, 67946, Note_on_c, 0, 67, 65
1, 67952, Control_c, 0, 64, 84
1, 67959, Note_off_c, 0, 79, 68
1, 67964, Note_off_c, 0, 67, 63
1, 67967, Control_c, 0, 64, 73
1, 67982, Control_c, 0, 64, 43
1, 67997, Control_c, 0, 64, 0
1, 68018, Note_on_c, 0, 80, 94
1, 68028, Note_on_c, 0, 68, 78
1, 68041, Control_c, 0, 64, 32
1, 68052, Note_off_c, 0, 68, 70
1, 68056, Control_c, 0, 64, 65
1, 68059, Note_off_c, 0, 80, 61
1, 68071, Control_c, 0, 64, 72
1, 68086, Control_c, 0, 64, 78
1, 68100, Control_c, 0, 64, 82
1, 68115, Control_c, 0, 64, 82
1, 68260, Note_on_c, 0, 46, 55
1, 68328, Note_off_c, 0, 46, 58
1, 68337, Control_c, 0, 64, 81
1, 68352, Control_c, 0, 64, 76
1, 68358, Note_on_c, 0, 55, 54
1, 68367, Control_c, 0, 64, 65
1, 68381, Control_c, 0, 64, 0
1, 68396, Note_on_c, 0, 81, 91
1, 68406, Note_on_c, 0, 69, 73
1, 68426, Control_c, 0, 64, 59
1, 68438, Note_on_c, 0, 63, 58
1, 68441, Control_c, 0, 64, 68
1, 68454, Note_off_c, 0, 69, 54
1, 68456, Control_c, 0, 64, 74
1, 68459, Note_off_c, 0, 63, 63
1, 68468, Note_off_c, 0, 55, 61
1, 68471, Control_c, 0, 64, 80
1, 68486, Control_c, 0, 64, 83
1, 68500, Control_c, 0, 64, 84
1, 68507, Note_off_c, 0, 81, 60
1, 68515, Control_c, 0, 64, 84
1, 68530, Control_c, 0, 64, 85
1, 68545, Control_c, 0, 64, 86
1, 68560, Control_c, 0, 64, 88
1, 68575, Control_c, 0, 64, 90
1, 68588, Note_on_c, 0, 70, 76
1, 68589, Control_c, 0, 64, 92
1, 68604, Control_c, 0, 64, 93
1, 68656, Control_c, 0, 64, 92
1, 68670, Control_c, 0, 64, 91
1, 68685, Note_off_c, 0, 70, 59
1, 68685, Control_c, 0, 64, 86
1, 68700, Control_c, 0, 64, 77
1, 68710, Note_on_c, 0, 75, 71
1, 68715, Control_c, 0, 64, 64
1, 68730, Control_c, 0, 64, 0
1, 68745, Control_c, 0, 64, 34
1, 68760, Control_c, 0, 64, 58
1, 68769, Note_off_c, 0, 75, 65
1, 68775, Control_c, 0, 64, 66
1, 68781, Note_on_c, 0, 39, 47
1, 68787, Note_on_c, 0, 82, 67
1, 68790, Control_c, 0, 64, 72
1, 68804, Control_c, 0, 64, 77
1, 68811, Note_off_c, 0, 39, 56
1, 68819, Control_c, 0, 64, 78
1, 68821, Note_off_c, 0, 82, 65
1, 68831, Note_on_c, 0, 84, 66
1, 68834, Control_c, 0, 64, 79
1, 68864, Control_c, 0, 64, 79
1, 68877, Note_off_c, 0, 84, 62
1, 68878, Control_c, 0, 64, 80
1, 68892, Note_on_c, 0, 82, 57
1, 68893, Control_c, 0, 64, 82
1, 68908, Control_c, 0, 64, 83
1, 68920, Note_off_c, 0, 82, 61
1, 68936, Note_on_c, 0, 81, 75
1, 68966, Note_off_c, 0, 81, 62
1, 68967, Control_c, 0, 64, 81
1, 68976, Note_on_c, 0, 46, 61
1, 68982, Control_c, 0, 64, 74
1, 68996, Control_c, 0, 64, 59
1, 69001, Note_on_c, 0, 82, 71
1, 69011, Control_c, 0, 64, 0
1, 69030, Note_off_c, 0, 46, 60
1, 69040, Note_off_c, 0, 82, 64
1, 69055, Note_on_c, 0, 84, 76
1, 69056, Control_c, 0, 64, 47
1, 69061, Note_on_c, 0, 55, 54
1, 69070, Control_c, 0, 64, 64
1, 69085, Control_c, 0, 64, 68
1, 69100, Control_c, 0, 64, 72
1, 69109, Note_off_c, 0, 84, 48
1, 69114, Note_on_c, 0, 82, 78
1, 69115, Control_c, 0, 64, 74
1, 69129, Control_c, 0, 64, 76
1, 69144, Control_c, 0, 64, 77
1, 69159, Control_c, 0, 64, 78
1, 69161, Note_on_c, 0, 63, 60
1, 69174, Control_c, 0, 64, 79
1, 69175, Note_on_c, 0, 75, 78
1, 69176, Note_off_c, 0, 82, 64
1, 69189, Control_c, 0, 64, 81
1, 69191, Note_off_c, 0, 63, 62
1, 69204, Control_c, 0, 64, 81
1, 69219, Control_c, 0, 64, 82
1, 69223, Note_off_c, 0, 75, 62
1, 69227, Note_on_c, 0, 70, 73
1, 69234, Control_c, 0, 64, 82
1, 69248, Control_c, 0, 64, 83
1, 69251, Note_off_c, 0, 70, 69
1, 69263, Control_c, 0, 64, 84
1, 69270, Note_on_c, 0, 63, 75
1, 69278, Control_c, 0, 64, 84
1, 69308, Control_c, 0, 64, 85
1, 69314, Note_on_c, 0, 70, 73
1, 69324, Control_c, 0, 64, 85
1, 69338, Note_off_c, 0, 70, 66
1, 69338, Control_c, 0, 64, 86
1, 69347, Note_on_c, 0, 75, 54
1, 69371, Note_off_c, 0, 75, 60
1, 69372, Note_on_c, 0, 82, 84
1, 69399, Note_off_c, 0, 82, 70
1, 69406, Control_c, 0, 64, 86
1, 69435, Control_c, 0, 64, 87
1, 69450, Control_c, 0, 64, 88
1, 69454, Note_on_c, 0, 82, 85
1, 69465, Control_c, 0, 64, 89
1, 69473, Note_off_c, 0, 82, 72
1, 69480, Control_c, 0, 64, 91
1, 69493, Note_on_c, 0, 91, 90
1, 69494, Control_c, 0, 64, 92
1, 69501, Note_on_c, 0, 87, 63
1, 69509, Control_c, 0, 64, 94
1, 69520, Note_off_c, 0, 87, 40
1, 69523, Note_off_c, 0, 91, 58
1, 69524, Control_c, 0, 64, 94
1, 69535, Note_off_c, 0, 63, 60
1, 69539, Control_c, 0, 64, 95
1, 69553, Control_c, 0, 64, 95
1, 69687, Note_off_c, 0, 55, 39
1, 69767, Note_on_c, 0, 46, 57
1, 69815, Note_off_c, 0, 46, 62
1, 69843, Note_on_c, 0, 55, 55
1, 69914, Note_on_c, 0, 63, 69
1, 69943, Note_off_c, 0, 63, 66
1, 69951, Note_off_c, 0, 55, 62
1, 70045, Note_on_c, 0, 70, 66
1, 70051, Note_on_c, 0, 67, 66
1, 70071, Note_off_c, 0, 70, 67
1, 70079, Note_off_c, 0, 67, 66
1, 70117, Control_c, 0, 64, 95
1, 70132, Control_c, 0, 64, 93
1, 70150, Note_on_c, 0, 70, 70
1, 70155, Control_c, 0, 64, 87
1, 70167, Note_on_c, 0, 67, 49
1, 70170, Control_c, 0, 64, 81
1, 70172, Note_off_c, 0, 70, 70
1, 70184, Control_c, 0, 64, 71
1, 70191, Note_on_c, 0, 69, 57
1, 70196, Note_off_c, 0, 67, 50
1, 70199, Control_c, 0, 64, 56
1, 70209, Note_on_c, 0, 66, 57
1, 70214, Control_c, 0, 64, 0
1, 70229, Control_c, 0, 67, 13
1, 70238, Note_off_c, 0, 69, 66
1, 70243, Control_c, 0, 67, 27
1, 70248, Note_off_c, 0, 66, 66
1, 70249, Note_on_c, 0, 65, 64
1, 70256, Note_on_c, 0, 39, 53
1, 70257, Note_on_c, 0, 68, 78
1, 70258, Control_c, 0, 67, 47
1, 70273, Control_c, 0, 67, 70
1, 70276, Note_off_c, 0, 65, 68
1, 70285, Note_off_c, 0, 68, 68
1, 70286, Note_off_c, 0, 39, 60
1, 70288, Control_c, 0, 67, 91
1, 70302, Control_c, 0, 67, 106
1, 70317, Control_c, 0, 67, 117
1, 70332, Control_c, 0, 67, 123
1, 70347, Control_c, 0, 67, 127
1, 70530, Note_on_c, 0, 82, 55
1, 70546, Note_on_c, 0, 79, 38
1, 70561, Note_on_c, 0, 46, 21
1, 70564, Note_off_c, 0, 82, 57
1, 70571, Note_off_c, 0, 79, 44
1, 70577, Note_on_c, 0, 81, 50
1, 70585, Note_off_c, 0, 46, 49
1, 70586, Note_on_c, 0, 78, 45
1, 70599, Note_off_c, 0, 81, 57
1, 70609, Note_on_c, 0, 53, 34
1, 70609, Note_on_c, 0, 56, 44
1, 70612, Note_off_c, 0, 78, 58
1, 70614, Note_on_c, 0, 80, 74
1, 70615, Note_on_c, 0, 77, 67
1, 70635, Note_off_c, 0, 77, 64
1, 70641, Note_off_c, 0, 80, 68
1, 70668, Note_on_c, 0, 62, 44
1, 70732, Control_c, 0, 64, 23
1, 70733, Note_off_c, 0, 56, 0
1, 70733, Note_on_c, 0, 56, 6
1, 70747, Control_c, 0, 64, 33
1, 70761, Control_c, 0, 64, 32
1, 70776, Control_c, 0, 64, 32
1, 70791, Control_c, 0, 64, 30
1, 70806, Control_c, 0, 64, 29
1, 70821, Control_c, 0, 64, 29
1, 70835, Control_c, 0, 64, 27
1, 70850, Control_c, 0, 64, 25
1, 70865, Control_c, 0, 64, 24
1, 70878, Note_on_c, 0, 94, 66
1, 70880, Control_c, 0, 64, 10
1, 70902, Control_c, 0, 64, 0
1, 70912, Note_on_c, 0, 91, 45
1, 70917, Note_off_c, 0, 94, 60
1, 70918, Control_c, 0, 67, 124
1, 70929, Note_off_c, 0, 62, 35
1, 70933, Control_c, 0, 67, 117
1, 70934, Note_off_c, 0, 91, 38
1, 70939, Note_on_c, 0, 93, 64
1, 70948, Control_c, 0, 67, 103
1, 70948, Note_on_c, 0, 90, 53
1, 70963, Control_c, 0, 67, 80
1, 70965, Note_off_c, 0, 93, 61
1, 70968, Note_on_c, 0, 92, 87
1, 70977, Note_on_c, 0, 89, 65
1, 70978, Note_off_c, 0, 90, 65
1, 70978, Control_c, 0, 67, 52
1, 70980, Note_off_c, 0, 53, 35
1, 70981, Note_off_c, 0, 56, 34
1, 70991, Note_off_c, 0, 89, 65
1, 70992, Control_c, 0, 67, 29
1, 71001, Note_off_c, 0, 92, 64
1, 71007, Control_c, 0, 67, 16
1, 71022, Control_c, 0, 67, 10
1, 71037, Control_c, 0, 67, 8
1, 71096, Control_c, 0, 67, 0
1, 71272, Note_on_c, 0, 46, 40
1, 71352, Note_on_c, 0, 67, 81
1, 71364, Note_on_c, 0, 64, 65
1, 71405, Note_off_c, 0, 64, 53
1, 71422, Control_c, 0, 64, 40
1, 71424, Note_on_c, 0, 53, 49
1, 71437, Control_c, 0, 64, 52
1, 71452, Control_c, 0, 64, 59
1, 71466, Control_c, 0, 64, 64
1, 71469, Note_off_c, 0, 46, 41
1, 71481, Control_c, 0, 64, 67
1, 71496, Control_c, 0, 64, 70
1, 71502, Note_on_c, 0, 56, 48
1, 71510, Control_c, 0, 64, 73
1, 71525, Control_c, 0, 64, 75
1, 71540, Control_c, 0, 64, 76
1, 71555, Control_c, 0, 64, 77
1, 71568, Control_c, 0, 64, 78
1, 71583, Control_c, 0, 64, 78
1, 71583, Note_on_c, 0, 62, 57
1, 71598, Control_c, 0, 64, 79
1, 71613, Control_c, 0, 64, 80
1, 71627, Control_c, 0, 64, 80
1, 71693, Note_on_c, 0, 68, 88
1, 71723, Note_off_c, 0, 67, 57
1, 71735, Note_on_c, 0, 65, 44
1, 71785, Note_off_c, 0, 65, 0
1, 71785, Note_on_c, 0, 65, 11
1, 71933, Note_off_c, 0, 68, 61
1, 72021, Control_c, 0, 64, 80
1, 72032, Note_on_c, 0, 72, 82
1, 72036, Control_c, 0, 64, 78
1, 72051, Control_c, 0, 64, 72
1, 72052, Note_on_c, 0, 68, 67
1, 72065, Control_c, 0, 64, 53
1, 72066, Note_off_c, 0, 65, 47
1, 72080, Control_c, 0, 64, 0
1, 72184, Control_c, 0, 64, 38
1, 72199, Control_c, 0, 64, 56
1, 72213, Control_c, 0, 64, 62
1, 72228, Control_c, 0, 64, 66
1, 72243, Control_c, 0, 64, 70
1, 72257, Control_c, 0, 64, 75
1, 72272, Control_c, 0, 64, 78
1, 72287, Control_c, 0, 64, 79
1, 72302, Control_c, 0, 64, 80
1, 72308, Note_off_c, 0, 68, 62
1, 72317, Control_c, 0, 64, 81
1, 72331, Control_c, 0, 64, 81
1, 72346, Control_c, 0, 64, 82
1, 72399, Control_c, 0, 64, 83
1, 72402, Poly_aftertouch_c, 0, 65, 127
1, 72409, Note_off_c, 0, 62, 36
1, 72444, Note_off_c, 0, 56, 37
1, 72456, Note_off_c, 0, 53, 38
1, 72577, Control_c, 0, 64, 83
1, 72636, Control_c, 0, 64, 84
1, 72666, Control_c, 0, 64, 84
1, 72668, Poly_aftertouch_c, 0, 65, 0
1, 72694, Note_on_c, 0, 70, 69
1, 72695, Control_c, 0, 64, 85
1, 72718, Note_on_c, 0, 67, 48
1, 72728, Note_off_c, 0, 72, 52
1, 72755, Control_c, 0, 64, 83
1, 72769, Control_c, 0, 64, 80
1, 72784, Control_c, 0, 64, 76
1, 72794, Note_off_c, 0, 67, 0
1, 72794, Note_on_c, 0, 67, 11
1, 72799, Control_c, 0, 64, 72
1, 72814, Control_c, 0, 64, 71
1, 72829, Control_c, 0, 64, 73
1, 72844, Control_c, 0, 64, 76
1, 72859, Control_c, 0, 64, 79
1, 72874, Control_c, 0, 64, 80
1, 72882, Note_off_c, 0, 67, 36
1, 72888, Control_c, 0, 64, 81
1, 72977, Control_c, 0, 64, 79
1, 72990, Note_on_c, 0, 39, 40
1, 72992, Control_c, 0, 64, 76
1, 73007, Control_c, 0, 64, 68
1, 73022, Control_c, 0, 64, 23
1, 73036, Control_c, 0, 64, 0
1, 73061, Note_on_c, 0, 67, 61
1, 73069, Note_off_c, 0, 70, 56
1, 73072, Note_on_c, 0, 63, 47
1, 73148, Control_c, 0, 64, 49
1, 73154, Note_off_c, 0, 39, 53
1, 73163, Control_c, 0, 64, 63
1, 73178, Control_c, 0, 64, 65
1, 73192, Control_c, 0, 64, 68
1, 73207, Control_c, 0, 64, 72
1, 73222, Control_c, 0, 64, 76
1, 73237, Control_c, 0, 64, 78
1, 73252, Control_c, 0, 64, 79
1, 73267, Control_c, 0, 64, 80
1, 73296, Control_c, 0, 64, 81
1, 73306, Note_off_c, 0, 63, 35
1, 73327, Control_c, 0, 64, 81
1, 73356, Note_on_c, 0, 46, 45
1, 73371, Control_c, 0, 64, 82
1, 73385, Note_off_c, 0, 67, 36
1, 73403, Note_off_c, 0, 46, 46
1, 73486, Note_on_c, 0, 55, 41
1, 73553, Note_on_c, 0, 63, 42
1, 73592, Note_off_c, 0, 63, 49
1, 73636, Note_off_c, 0, 55, 29
1, 74054, Note_on_c, 0, 46, 50
1, 74101, Note_off_c, 0, 46, 47
1, 74166, Note_on_c, 0, 55, 48
1, 74278, Note_on_c, 0, 63, 54
1, 74328, Control_c, 0, 64, 81
1, 74337, Note_on_c, 0, 85, 79
1, 74342, Control_c, 0, 64, 76
1, 74357, Control_c, 0, 64, 67
1, 74358, Note_on_c, 0, 82, 58
1, 74367, Note_off_c, 0, 63, 51
1, 74372, Control_c, 0, 64, 51
1, 74387, Control_c, 0, 64, 44
1, 74402, Control_c, 0, 64, 56
1, 74416, Control_c, 0, 64, 63
1, 74431, Control_c, 0, 64, 68
1, 74446, Control_c, 0, 64, 74
1, 74447, Note_off_c, 0, 55, 41
1, 74460, Control_c, 0, 64, 78
1, 74475, Control_c, 0, 64, 80
1, 74481, Note_off_c, 0, 82, 62
1, 74520, Control_c, 0, 64, 80
1, 74579, Control_c, 0, 64, 81
1, 74594, Control_c, 0, 64, 82
1, 74608, Control_c, 0, 64, 83
1, 74623, Control_c, 0, 64, 84
1, 74660, Control_c, 0, 64, 81
1, 74675, Control_c, 0, 64, 74
1, 74690, Control_c, 0, 64, 62
1, 74705, Control_c, 0, 64, 0
1, 74728, Note_off_c, 0, 85, 59
1, 74730, Note_on_c, 0, 84, 66
1, 74734, Note_on_c, 0, 39, 37
1, 74735, Control_c, 0, 64, 57
1, 74749, Control_c, 0, 64, 67
1, 74755, Note_on_c, 0, 80, 32
1, 74764, Control_c, 0, 64, 73
1, 74768, Note_off_c, 0, 39, 59
1, 74779, Control_c, 0, 64, 78
1, 74794, Control_c, 0, 64, 81
1, 74809, Control_c, 0, 64, 81
1, 74815, Note_off_c, 0, 80, 0
1, 74815, Note_on_c, 0, 80, 7
1, 74821, Note_off_c, 0, 84, 62
1, 74913, Control_c, 0, 64, 82
1, 74960, Note_off_c, 0, 80, 42
1, 75017, Control_c, 0, 64, 80
1, 75020, Note_on_c, 0, 86, 64
1, 75023, Note_on_c, 0, 48, 56
1, 75032, Control_c, 0, 64, 75
1, 75047, Control_c, 0, 64, 66
1, 75056, Note_on_c, 0, 84, 66
1, 75061, Control_c, 0, 64, 34
1, 75066, Note_off_c, 0, 86, 58
1, 75072, Note_off_c, 0, 48, 60
1, 75076, Control_c, 0, 64, 0
1, 75099, Note_on_c, 0, 82, 75
1, 75106, Note_on_c, 0, 56, 32
1, 75106, Note_off_c, 0, 84, 66
1, 75112, Note_on_c, 0, 79, 57
1, 75124, Note_off_c, 0, 82, 67
1, 75131, Note_off_c, 0, 79, 61
1, 75132, Note_off_c, 0, 56, 53
1, 75133, Note_on_c, 0, 63, 49
1, 75156, Note_off_c, 0, 63, 58
1, 75294, Note_on_c, 0, 80, 72
1, 75299, Note_on_c, 0, 77, 58
1, 75318, Note_off_c, 0, 77, 63
1, 75318, Note_off_c, 0, 80, 65
1, 75473, Note_on_c, 0, 79, 74
1, 75498, Note_on_c, 0, 75, 35
1, 75508, Note_off_c, 0, 79, 57
1, 75529, Note_off_c, 0, 75, 34
1, 75648, Note_on_c, 0, 77, 71
1, 75652, Note_on_c, 0, 70, 61
1, 75670, Note_off_c, 0, 70, 63
1, 75676, Note_off_c, 0, 77, 62
1, 75721, Note_on_c, 0, 51, 32
1, 75779, Note_off_c, 0, 51, 41
1, 75797, Note_on_c, 0, 58, 33
1, 75840, Note_off_c, 0, 58, 49
1, 75840, Control_c, 0, 64, 45
1, 75854, Control_c, 0, 64, 64
1, 75857, Note_on_c, 0, 75, 62
1, 75859, Note_on_c, 0, 63, 53
1, 75861, Note_on_c, 0, 67, 54
1, 75869, Control_c, 0, 64, 69
1, 75875, Note_off_c, 0, 75, 69
1, 75881, Note_off_c, 0, 63, 62
1, 75884, Note_off_c, 0, 67, 57
1, 75884, Control_c, 0, 64, 76
1, 75899, Control_c, 0, 64, 82
1, 75913, Control_c, 0, 64, 84
1, 75928, Control_c, 0, 64, 85
1, 75943, Control_c, 0, 64, 85
1, 76017, Control_c, 0, 64, 86
1, 76047, Control_c, 0, 64, 86
1, 76062, Control_c, 0, 64, 87
1, 76106, Control_c, 0, 64, 86
1, 76121, Control_c, 0, 64, 84
1, 76144, Control_c, 0, 64, 77
1, 76146, Note_on_c, 0, 63, 59
1, 76157, Note_on_c, 0, 67, 54
1, 76158, Control_c, 0, 64, 67
1, 76164, Note_off_c, 0, 63, 67
1, 76173, Control_c, 0, 64, 50
1, 76176, Note_off_c, 0, 67, 61
1, 76188, Control_c, 0, 64, 56
1, 76203, Control_c, 0, 64, 64
1, 76218, Control_c, 0, 64, 68
1, 76218, Note_on_c, 0, 39, 41
1, 76221, Note_on_c, 0, 68, 72
1, 76230, Note_on_c, 0, 65, 63
1, 76232, Control_c, 0, 64, 72
1, 76247, Control_c, 0, 64, 75
1, 76251, Note_off_c, 0, 39, 53
1, 76262, Control_c, 0, 64, 76
1, 76277, Control_c, 0, 64, 76
1, 76337, Note_off_c, 0, 68, 58
1, 76425, Note_on_c, 0, 70, 68
1, 76425, Control_c, 0, 64, 74
1, 76439, Control_c, 0, 64, 70
1, 76443, Note_off_c, 0, 65, 52
1, 76454, Note_on_c, 0, 46, 50
1, 76454, Control_c, 0, 64, 60
1, 76469, Control_c, 0, 64, 0
1, 76473, Note_on_c, 0, 68, 70
1, 76480, Note_off_c, 0, 70, 61
1, 76491, Note_off_c, 0, 46, 63
1, 76508, Note_off_c, 0, 68, 63
1, 76510, Note_on_c, 0, 67, 68
1, 76525, Note_on_c, 0, 53, 42
1, 76547, Note_on_c, 0, 56, 51
1, 76562, Note_off_c, 0, 67, 61
1, 76564, Note_off_c, 0, 53, 64
1, 76569, Note_on_c, 0, 68, 83
1, 76574, Note_on_c, 0, 65, 69
1, 76586, Note_off_c, 0, 56, 63
1, 76588, Note_on_c, 0, 62, 58
1, 76599, Note_off_c, 0, 68, 64
1, 76602, Note_off_c, 0, 65, 69
1, 76610, Note_off_c, 0, 62, 63
1, 76759, Note_on_c, 0, 69, 79
1, 76771, Note_on_c, 0, 66, 57
1, 76790, Note_off_c, 0, 66, 62
1, 76796, Note_off_c, 0, 69, 63
1, 76960, Note_on_c, 0, 70, 73
1, 76968, Note_on_c, 0, 67, 61
1, 76996, Control_c, 0, 64, 59
1, 77004, Note_off_c, 0, 67, 60
1, 77011, Control_c, 0, 64, 68
1, 77026, Control_c, 0, 64, 71
1, 77035, Note_off_c, 0, 70, 58
1, 77041, Control_c, 0, 64, 75
1, 77055, Control_c, 0, 64, 79
1, 77070, Control_c, 0, 64, 84
1, 77085, Control_c, 0, 64, 88
1, 77100, Control_c, 0, 64, 91
1, 77115, Control_c, 0, 64, 94
1, 77129, Control_c, 0, 64, 96
1, 77144, Control_c, 0, 64, 97
1, 77159, Control_c, 0, 64, 98
1, 77174, Control_c, 0, 64, 99
1, 77189, Control_c, 0, 64, 99
1, 77225, Note_on_c, 0, 51, 34
1, 77277, Control_c, 0, 64, 99
1, 77282, Note_on_c, 0, 55, 45
1, 77292, Control_c, 0, 64, 98
1, 77308, Control_c, 0, 64, 95
1, 77323, Control_c, 0, 64, 87
1, 77338, Control_c, 0, 64, 76
1, 77352, Control_c, 0, 64, 62
1, 77367, Control_c, 0, 64, 0
1, 77388, Note_on_c, 0, 85, 64
1, 77391, Note_on_c, 0, 63, 42
1, 77396, Note_off_c, 0, 51, 34
1, 77404, Note_on_c, 0, 82, 54
1, 77412, Control_c, 0, 64, 47
1, 77426, Control_c, 0, 64, 64
1, 77441, Control_c, 0, 64, 68
1, 77456, Control_c, 0, 64, 72
1, 77456, Control_c, 0, 67, 9
1, 77457, Note_off_c, 0, 63, 60
1, 77471, Control_c, 0, 64, 75
1, 77471, Control_c, 0, 67, 13
1, 77485, Control_c, 0, 64, 78
1, 77485, Control_c, 0, 67, 19
1, 77500, Control_c, 0, 64, 80
1, 77500, Control_c, 0, 67, 26
1, 77515, Control_c, 0, 64, 82
1, 77515, Control_c, 0, 67, 32
1, 77530, Note_off_c, 0, 55, 41
1, 77530, Control_c, 0, 64, 83
1, 77530, Control_c, 0, 67, 38
1, 77545, Control_c, 0, 64, 83
1, 77545, Control_c, 0, 67, 43
1, 77559, Control_c, 0, 64, 84
1, 77559, Control_c, 0, 67, 48
1, 77574, Control_c, 0, 64, 84
1, 77574, Control_c, 0, 67, 52
1, 77589, Control_c, 0, 67, 55
1, 77604, Control_c, 0, 67, 59
1, 77619, Control_c, 0, 67, 61
1, 77641, Control_c, 0, 64, 85
1, 77641, Control_c, 0, 67, 62
1, 77656, Control_c, 0, 64, 85
1, 77656, Control_c, 0, 67, 64
1, 77671, Control_c, 0, 64, 86
1, 77671, Control_c, 0, 67, 66
1, 77685, Control_c, 0, 64, 87
1, 77685, Control_c, 0, 67, 68
1, 77700, Control_c, 0, 64, 88
1, 77700, Control_c, 0, 67, 70
1, 77715, Control_c, 0, 64, 88
1, 77715, Control_c, 0, 67, 72
1, 77730, Control_c, 0, 67, 73
1, 77745, Control_c, 0, 64, 88
1, 77745, Control_c, 0, 67, 73
1, 77759, Control_c, 0, 64, 87
1, 77774, Control_c, 0, 64, 82
1, 77774, Control_c, 0, 67, 74
1, 77789, Control_c, 0, 64, 75
1, 77803, Note_off_c, 0, 85, 61
1, 77804, Control_c, 0, 64, 65
1, 77819, Note_on_c, 0, 39, 41
1, 77819, Control_c, 0, 64, 62
1, 77833, Note_on_c, 0, 84, 60
1, 77834, Control_c, 0, 64, 66
1, 77846, Note_on_c, 0, 80, 45
1, 77849, Control_c, 0, 64, 70
1, 77859, Note_off_c, 0, 39, 48
1, 77864, Control_c, 0, 64, 75
1, 77878, Control_c, 0, 64, 79
1, 77880, Note_off_c, 0, 82, 35
1, 77893, Control_c, 0, 64, 81
1, 77908, Control_c, 0, 64, 81
1, 77923, Control_c, 0, 64, 82
1, 77938, Control_c, 0, 67, 74
1, 77940, Note_off_c, 0, 84, 64
1, 77952, Control_c, 0, 64, 82
1, 77952, Control_c, 0, 67, 75
1, 77967, Control_c, 0, 67, 75
1, 77982, Control_c, 0, 67, 80
1, 77997, Control_c, 0, 67, 92
1, 78011, Control_c, 0, 64, 83
1, 78011, Control_c, 0, 67, 103
1, 78026, Control_c, 0, 64, 83
1, 78026, Control_c, 0, 67, 113
1, 78041, Control_c, 0, 64, 84
1, 78041, Control_c, 0, 67, 120
1, 78056, Control_c, 0, 67, 127
1, 78071, Control_c, 0, 67, 127
1, 78076, Note_off_c, 0, 80, 39
1, 78117, Note_on_c, 0, 48, 50
1, 78139, Note_on_c, 0, 86, 70
1, 78146, Control_c, 0, 64, 83
1, 78153, Note_off_c, 0, 48, 56
1, 78161, Control_c, 0, 64, 80
1, 78175, Control_c, 0, 64, 74
1, 78176, Note_on_c, 0, 84, 64
1, 78178, Note_on_c, 0, 56, 56
1, 78188, Note_off_c, 0, 86, 55
1, 78190, Control_c, 0, 64, 63
1, 78205, Control_c, 0, 64, 0
1, 78214, Note_on_c, 0, 82, 78
1, 78216, Note_off_c, 0, 56, 62
1, 78222, Note_off_c, 0, 84, 65
1, 78232, Note_on_c, 0, 79, 50
1, 78236, Note_on_c, 0, 63, 55
1, 78251, Note_off_c, 0, 82, 63
1, 78252, Note_off_c, 0, 79, 56
1, 78258, Note_off_c, 0, 63, 60
1, 78418, Note_on_c, 0, 80, 60
1, 78423, Note_on_c, 0, 77, 48
1, 78436, Note_off_c, 0, 80, 64
1, 78444, Note_off_c, 0, 77, 58
1, 78574, Note_on_c, 0, 79, 73
1, 78587, Note_on_c, 0, 75, 57
1, 78607, Note_off_c, 0, 75, 65
1, 78613, Note_off_c, 0, 79, 56
1, 78749, Note_on_c, 0, 77, 61
1, 78752, Note_on_c, 0, 70, 64
1, 78776, Note_off_c, 0, 77, 50
1, 78781, Note_off_c, 0, 70, 66
1, 78848, Note_on_c, 0, 51, 31
1, 78896, Note_on_c, 0, 58, 42
1, 78939, Control_c, 0, 64, 36
1, 78942, Note_on_c, 0, 75, 67
1, 78943, Note_on_c, 0, 67, 61
1, 78952, Note_off_c, 0, 58, 51
1, 78954, Control_c, 0, 64, 65
1, 78961, Note_on_c, 0, 63, 45
1, 78969, Control_c, 0, 64, 69
1, 78972, Note_off_c, 0, 67, 63
1, 78972, Note_off_c, 0, 75, 64
1, 78984, Control_c, 0, 64, 74
1, 78985, Note_off_c, 0, 63, 58
1, 78998, Control_c, 0, 64, 77
1, 79013, Control_c, 0, 64, 79
1, 79014, Note_off_c, 0, 51, 28
1, 79028, Control_c, 0, 64, 80
1, 79043, Control_c, 0, 64, 80
1, 79072, Control_c, 0, 64, 81
1, 79087, Control_c, 0, 64, 81
1, 79102, Control_c, 0, 64, 82
1, 79117, Control_c, 0, 64, 83
1, 79139, Control_c, 0, 64, 83
1, 79184, Control_c, 0, 64, 83
1, 79199, Control_c, 0, 64, 81
1, 79213, Control_c, 0, 64, 76
1, 79226, Note_on_c, 0, 63, 57
1, 79228, Control_c, 0, 64, 67
1, 79232, Note_on_c, 0, 67, 62
1, 79243, Control_c, 0, 64, 0
1, 79257, Note_off_c, 0, 63, 66
1, 79262, Note_off_c, 0, 67, 65
1, 79287, Control_c, 0, 64, 58
1, 79301, Note_on_c, 0, 68, 74
1, 79302, Control_c, 0, 64, 65
1, 79313, Note_on_c, 0, 39, 42
1, 79317, Control_c, 0, 64, 69
1, 79324, Note_on_c, 0, 65, 56
1, 79331, Control_c, 0, 64, 71
1, 79343, Note_off_c, 0, 39, 56
1, 79376, Control_c, 0, 64, 71
1, 79405, Control_c, 0, 64, 72
1, 79413, Note_off_c, 0, 68, 59
1, 79420, Control_c, 0, 64, 72
1, 79435, Control_c, 0, 64, 73
1, 79494, Control_c, 0, 64, 72
1, 79505, Note_on_c, 0, 70, 60
1, 79509, Control_c, 0, 64, 69
1, 79512, Note_off_c, 0, 65, 54
1, 79524, Control_c, 0, 64, 63
1, 79539, Control_c, 0, 64, 37
1, 79545, Note_on_c, 0, 46, 40
1, 79552, Note_off_c, 0, 70, 63
1, 79554, Control_c, 0, 64, 0
1, 79557, Note_on_c, 0, 68, 68
1, 79578, Note_on_c, 0, 53, 57
1, 79580, Note_off_c, 0, 46, 54
1, 79588, Note_off_c, 0, 68, 66
1, 79602, Note_on_c, 0, 67, 60
1, 79627, Note_on_c, 0, 56, 53
1, 79634, Note_off_c, 0, 53, 57
1, 79639, Note_off_c, 0, 67, 64
1, 79649, Note_on_c, 0, 68, 85
1, 79655, Note_on_c, 0, 65, 68
1, 79658, Note_on_c, 0, 62, 64
1, 79664, Note_off_c, 0, 56, 63
1, 79682, Note_off_c, 0, 65, 68
1, 79682, Note_off_c, 0, 68, 61
1, 79688, Note_off_c, 0, 62, 64
1, 79837, Note_on_c, 0, 70, 75
1, 79846, Note_on_c, 0, 62, 62
1, 79863, Note_off_c, 0, 70, 63
1, 79876, Note_off_c, 0, 62, 63
1, 79977, Control_c, 0, 67, 126
1, 79992, Control_c, 0, 67, 121
1, 80007, Control_c, 0, 67, 114
1, 80022, Control_c, 0, 67, 103
1, 80025, Note_on_c, 0, 63, 79
1, 80036, Control_c, 0, 67, 91
1, 80051, Note_off_c, 0, 63, 67
1, 80051, Control_c, 0, 67, 76
1, 80066, Control_c, 0, 64, 57
1, 80066, Control_c, 0, 67, 60
1, 80080, Control_c, 0, 64, 66
1, 80080, Control_c, 0, 67, 43
1, 80095, Control_c, 0, 64, 71
1, 80095, Control_c, 0, 67, 28
1, 80110, Control_c, 0, 64, 76
1, 80110, Control_c, 0, 67, 14
1, 80125, Control_c, 0, 64, 81
1, 80125, Control_c, 0, 67, 0
1, 80140, Control_c, 0, 64, 85
1, 80154, Control_c, 0, 64, 87
1, 80169, Control_c, 0, 64, 90
1, 80184, Control_c, 0, 64, 92
1, 80199, Control_c, 0, 64, 93
1, 80214, Control_c, 0, 64, 95
1, 80228, Control_c, 0, 64, 96
1, 80243, Control_c, 0, 64, 97
1, 80258, Control_c, 0, 64, 97
1, 80272, Control_c, 0, 64, 98
1, 80287, Control_c, 0, 64, 98
1, 80307, Note_on_c, 0, 51, 56
1, 80311, Note_on_c, 0, 82, 73
1, 80317, Control_c, 0, 64, 99
1, 80332, Control_c, 0, 64, 99
1, 80347, Control_c, 0, 64, 100
1, 80362, Control_c, 0, 64, 101
1, 80376, Control_c, 0, 64, 101
1, 80377, Note_on_c, 0, 87, 79
1, 80388, Note_off_c, 0, 82, 62
1, 80391, Control_c, 0, 64, 102
1, 80396, Note_on_c, 0, 55, 54
1, 80406, Control_c, 0, 64, 103
1, 80421, Control_c, 0, 64, 103
1, 80436, Control_c, 0, 64, 104
1, 80466, Control_c, 0, 64, 104
1, 80478, Note_on_c, 0, 97, 95
1, 80479, Note_off_c, 0, 87, 52
1, 80480, Control_c, 0, 64, 105
1, 80483, Note_on_c, 0, 63, 70
1, 80499, Note_off_c, 0, 51, 29
1, 80543, Note_off_c, 0, 63, 62
1, 80576, Note_off_c, 0, 55, 50
1, 80582, Note_off_c, 0, 97, 66
1, 80696, Note_on_c, 0, 80, 69
1, 80762, Note_off_c, 0, 80, 63
1, 80775, Note_on_c, 0, 87, 72
1, 80815, Control_c, 0, 64, 105
1, 80829, Control_c, 0, 64, 107
1, 80844, Control_c, 0, 64, 110
1, 80859, Control_c, 0, 64, 116
1, 80874, Control_c, 0, 64, 122
1, 80889, Control_c, 0, 64, 127
1, 80921, Note_on_c, 0, 39, 70
1, 80946, Note_off_c, 0, 87, 62
1, 80982, Note_off_c, 0, 39, 63
1, 80998, Note_on_c, 0, 96, 92
1, 81011, Note_on_c, 0, 93, 14
1, 81034, Note_off_c, 0, 93, 49
1, 81072, Note_off_c, 0, 96, 61
1, 81235, Note_on_c, 0, 98, 76
1, 81241, Note_on_c, 0, 48, 63
1, 81246, Note_on_c, 0, 94, 64
1, 81274, Note_off_c, 0, 94, 69
1, 81286, Note_off_c, 0, 48, 52
1, 81296, Note_on_c, 0, 92, 75
1, 81302, Note_on_c, 0, 96, 70
1, 81307, Note_on_c, 0, 56, 62
1, 81316, Note_off_c, 0, 98, 63
1, 81319, Control_c, 0, 64, 110
1, 81333, Control_c, 0, 64, 99
1, 81348, Note_on_c, 0, 94, 89
1, 81348, Control_c, 0, 64, 90
1, 81351, Note_on_c, 0, 91, 78
1, 81351, Note_off_c, 0, 92, 65
1, 81359, Note_on_c, 0, 63, 81
1, 81362, Note_off_c, 0, 96, 65
1, 81363, Control_c, 0, 64, 81
1, 81373, Note_off_c, 0, 56, 59
1, 81380, Note_off_c, 0, 91, 66
1, 81386, Control_c, 0, 64, 72
1, 81393, Note_off_c, 0, 94, 68
1, 81401, Control_c, 0, 64, 62
1, 81404, Note_off_c, 0, 63, 58
1, 81415, Control_c, 0, 64, 29
1, 81430, Control_c, 0, 64, 0
1, 81445, Control_c, 0, 64, 15
1, 81459, Control_c, 0, 64, 20
1, 81504, Control_c, 0, 64, 17
1, 81544, Note_on_c, 0, 92, 81
1, 81554, Note_on_c, 0, 89, 62
1, 81566, Note_off_c, 0, 92, 67
1, 81574, Note_off_c, 0, 89, 66
1, 81667, Control_c, 0, 64, 15
1, 81697, Control_c, 0, 64, 13
1, 81712, Control_c, 0, 64, 0
1, 81719, Note_on_c, 0, 91, 84
1, 81724, Note_on_c, 0, 87, 75
1, 81747, Note_off_c, 0, 87, 69
1, 81756, Note_off_c, 0, 91, 59
1, 81887, Note_on_c, 0, 89, 77
1, 81897, Note_on_c, 0, 82, 69
1, 81914, Note_off_c, 0, 89, 63
1, 81919, Note_off_c, 0, 82, 66
1, 81958, Note_on_c, 0, 51, 48
1, 82017, Note_on_c, 0, 58, 50
1, 82022, Control_c, 0, 64, 24
1, 82037, Control_c, 0, 64, 56
1, 82046, Note_off_c, 0, 51, 44
1, 82052, Control_c, 0, 64, 67
1, 82066, Note_on_c, 0, 87, 82
1, 82067, Control_c, 0, 64, 75
1, 82067, Note_on_c, 0, 79, 74
1, 82076, Note_on_c, 0, 63, 71
1, 82082, Note_off_c, 0, 58, 55
1, 82082, Control_c, 0, 64, 87
1, 82084, Note_off_c, 0, 79, 65
1, 82087, Note_off_c, 0, 87, 68
1, 82097, Control_c, 0, 64, 97
1, 82105, Note_off_c, 0, 63, 67
1, 82120, Control_c, 0, 64, 99
1, 82135, Control_c, 0, 64, 101
1, 82149, Control_c, 0, 64, 102
1, 82164, Control_c, 0, 64, 104
1, 82179, Control_c, 0, 64, 105
1, 82194, Control_c, 0, 64, 106
1, 82209, Control_c, 0, 64, 106
1, 82238, Control_c, 0, 64, 107
1, 82253, Control_c, 0, 64, 107
1, 82268, Control_c, 0, 64, 108
1, 82282, Control_c, 0, 64, 108
1, 82342, Control_c, 0, 64, 107
1, 82356, Control_c, 0, 64, 104
1, 82363, Note_on_c, 0, 67, 68
1, 82368, Note_on_c, 0, 63, 60
1, 82371, Control_c, 0, 64, 97
1, 82386, Control_c, 0, 64, 86
1, 82392, Note_off_c, 0, 67, 66
1, 82399, Note_off_c, 0, 63, 66
1, 82401, Control_c, 0, 64, 76
1, 82416, Control_c, 0, 64, 69
1, 82430, Control_c, 0, 64, 67
1, 82441, Note_on_c, 0, 68, 79
1, 82442, Note_on_c, 0, 65, 75
1, 82445, Note_on_c, 0, 39, 48
1, 82445, Control_c, 0, 64, 71
1, 82460, Control_c, 0, 64, 76
1, 82474, Note_off_c, 0, 39, 55
1, 82475, Control_c, 0, 64, 80
1, 82490, Control_c, 0, 64, 81
1, 82547, Note_off_c, 0, 68, 54
1, 82549, Control_c, 0, 64, 81
1, 82633, Note_on_c, 0, 70, 69
1, 82645, Note_on_c, 0, 46, 64
1, 82660, Note_off_c, 0, 65, 57
1, 82667, Control_c, 0, 64, 80
1, 82669, Note_on_c, 0, 68, 69
1, 82677, Note_off_c, 0, 70, 59
1, 82682, Control_c, 0, 64, 77
1, 82697, Control_c, 0, 64, 71
1, 82698, Note_off_c, 0, 46, 54
1, 82708, Note_on_c, 0, 53, 58
1, 82712, Control_c, 0, 64, 62
1, 82713, Note_off_c, 0, 68, 64
1, 82726, Note_on_c, 0, 67, 69
1, 82727, Control_c, 0, 64, 0
1, 82751, Note_on_c, 0, 56, 62
1, 82755, Note_off_c, 0, 53, 65
1, 82773, Note_off_c, 0, 67, 64
1, 82774, Note_on_c, 0, 68, 81
1, 82779, Note_on_c, 0, 65, 71
1, 82784, Note_on_c, 0, 62, 72
1, 82791, Note_off_c, 0, 56, 63
1, 82803, Note_off_c, 0, 65, 69
1, 82806, Note_off_c, 0, 68, 64
1, 82812, Note_off_c, 0, 62, 65
1, 82970, Note_on_c, 0, 69, 77
1, 82973, Note_on_c, 0, 66, 71
1, 82992, Note_off_c, 0, 66, 69
1, 82995, Note_off_c, 0, 69, 65
1, 83155, Note_on_c, 0, 70, 78
1, 83161, Note_on_c, 0, 67, 63
1, 83179, Note_off_c, 0, 67, 64
1, 83180, Control_c, 0, 64, 57
1, 83195, Control_c, 0, 64, 69
1, 83210, Control_c, 0, 64, 76
1, 83214, Note_off_c, 0, 70, 62
1, 83224, Control_c, 0, 64, 84
1, 83239, Control_c, 0, 64, 88
1, 83254, Control_c, 0, 64, 91
1, 83269, Control_c, 0, 64, 92
1, 83284, Control_c, 0, 64, 94
1, 83298, Control_c, 0, 64, 95
1, 83313, Control_c, 0, 64, 96
1, 83328, Control_c, 0, 64, 97
1, 83343, Control_c, 0, 64, 99
1, 83358, Control_c, 0, 64, 100
1, 83372, Control_c, 0, 64, 100
1, 83372, Control_c, 0, 67, 10
1, 83387, Control_c, 0, 67, 13
1, 83402, Control_c, 0, 67, 17
1, 83417, Control_c, 0, 67, 21
1, 83432, Control_c, 0, 67, 24
1, 83447, Control_c, 0, 64, 100
1, 83447, Control_c, 0, 67, 29
1, 83461, Note_on_c, 0, 82, 52
1, 83462, Control_c, 0, 64, 99
1, 83462, Control_c, 0, 67, 35
1, 83464, Note_on_c, 0, 51, 30
1, 83477, Control_c, 0, 64, 95
1, 83477, Control_c, 0, 67, 40
1, 83491, Control_c, 0, 64, 89
1, 83491, Control_c, 0, 67, 44
1, 83505, Note_off_c, 0, 82, 59
1, 83506, Control_c, 0, 64, 80
1, 83506, Control_c, 0, 67, 48
1, 83519, Note_on_c, 0, 55, 39
1, 83521, Note_on_c, 0, 87, 63
1, 83521, Control_c, 0, 64, 69
1, 83521, Control_c, 0, 67, 50
1, 83536, Control_c, 0, 64, 0
1, 83536, Control_c, 0, 67, 52
1, 83549, Control_c, 0, 67, 56
1, 83563, Control_c, 0, 67, 60
1, 83578, Control_c, 0, 67, 63
1, 83593, Control_c, 0, 64, 21
1, 83593, Control_c, 0, 67, 67
1, 83603, Note_on_c, 0, 97, 75
1, 83607, Note_off_c, 0, 87, 57
1, 83608, Control_c, 0, 64, 45
1, 83608, Control_c, 0, 67, 71
1, 83629, Note_on_c, 0, 63, 43
1, 83630, Control_c, 0, 64, 54
1, 83630, Control_c, 0, 67, 74
1, 83645, Control_c, 0, 64, 62
1, 83645, Control_c, 0, 67, 77
1, 83660, Control_c, 0, 64, 66
1, 83660, Control_c, 0, 67, 79
1, 83670, Note_off_c, 0, 63, 51
1, 83675, Control_c, 0, 64, 69
1, 83675, Control_c, 0, 67, 81
1, 83680, Note_off_c, 0, 55, 41
1, 83682, Note_off_c, 0, 51, 41
1, 83690, Control_c, 0, 64, 72
1, 83690, Control_c, 0, 67, 82
1, 83697, Note_off_c, 0, 97, 64
1, 83706, Control_c, 0, 64, 74
1, 83706, Control_c, 0, 67, 83
1, 83720, Control_c, 0, 64, 77
1, 83720, Control_c, 0, 67, 85
1, 83735, Control_c, 0, 64, 79
1, 83735, Control_c, 0, 67, 85
1, 83750, Control_c, 0, 64, 80
1, 83750, Control_c, 0, 67, 86
1, 83765, Control_c, 0, 64, 81
1, 83765, Control_c, 0, 67, 87
1, 83780, Control_c, 0, 64, 82
1, 83780, Control_c, 0, 67, 88
1, 83794, Control_c, 0, 67, 89
1, 83809, Control_c, 0, 64, 82
1, 83809, Control_c, 0, 67, 89
1, 83824, Control_c, 0, 64, 83
1, 83824, Control_c, 0, 67, 90
1, 83829, Note_on_c, 0, 80, 53
1, 83839, Control_c, 0, 67, 91
1, 83853, Control_c, 0, 64, 83
1, 83853, Control_c, 0, 67, 93
1, 83868, Control_c, 0, 67, 94
1, 83877, Note_off_c, 0, 80, 50
1, 83883, Control_c, 0, 67, 95
1, 83898, Control_c, 0, 67, 96
1, 83927, Note_on_c, 0, 87, 59
1, 83927, Control_c, 0, 67, 97
1, 83957, Control_c, 0, 67, 97
1, 84066, Note_off_c, 0, 87, 48
1, 84076, Control_c, 0, 64, 83
1, 84091, Control_c, 0, 64, 82
1, 84094, Note_on_c, 0, 39, 43
1, 84106, Control_c, 0, 64, 81
1, 84120, Control_c, 0, 67, 98
1, 84172, Note_off_c, 0, 39, 61
1, 84177, Note_on_c, 0, 96, 63
1, 84194, Control_c, 0, 64, 82
1, 84204, Poly_aftertouch_c, 0, 93, 0
1, 84209, Control_c, 0, 64, 82
1, 84224, Control_c, 0, 64, 83
1, 84253, Control_c, 0, 64, 83
1, 84258, Note_off_c, 0, 96, 65
1, 84268, Control_c, 0, 64, 84
1, 84283, Control_c, 0, 64, 84
1, 84298, Control_c, 0, 64, 85
1, 84357, Control_c, 0, 64, 85
1, 84380, Control_c, 0, 67, 97
1, 84435, Note_on_c, 0, 48, 53
1, 84435, Note_on_c, 0, 98, 67
1, 84439, Control_c, 0, 64, 85
1, 84451, Note_on_c, 0, 94, 50
1, 84453, Control_c, 0, 64, 83
1, 84468, Control_c, 0, 64, 80
1, 84469, Note_off_c, 0, 48, 52
1, 84472, Note_off_c, 0, 94, 62
1, 84483, Control_c, 0, 64, 74
1, 84483, Control_c, 0, 67, 98
1, 84499, Control_c, 0, 64, 64
1, 84500, Note_on_c, 0, 56, 51
1, 84502, Note_on_c, 0, 96, 60
1, 84506, Note_off_c, 0, 98, 62
1, 84511, Note_on_c, 0, 92, 56
1, 84514, Control_c, 0, 64, 0
1, 84514, Control_c, 0, 67, 98
1, 84529, Control_c, 0, 67, 99
1, 84541, Note_off_c, 0, 56, 61
1, 84543, Control_c, 0, 67, 104
1, 84551, Note_off_c, 0, 92, 65
1, 84554, Note_on_c, 0, 94, 77
1, 84558, Control_c, 0, 67, 108
1, 84565, Note_off_c, 0, 96, 64
1, 84571, Note_on_c, 0, 91, 53
1, 84573, Control_c, 0, 67, 112
1, 84583, Note_on_c, 0, 63, 50
1, 84588, Control_c, 0, 67, 114
1, 84591, Note_off_c, 0, 91, 54
1, 84600, Note_off_c, 0, 94, 66
1, 84603, Control_c, 0, 67, 116
1, 84609, Note_off_c, 0, 63, 59
1, 84617, Control_c, 0, 67, 117
1, 84632, Control_c, 0, 67, 118
1, 84647, Control_c, 0, 67, 119
1, 84662, Control_c, 0, 67, 120
1, 84676, Control_c, 0, 67, 120
1, 84691, Control_c, 0, 67, 121
1, 84721, Control_c, 0, 67, 121
1, 84750, Control_c, 0, 67, 122
1, 84763, Note_on_c, 0, 92, 69
1, 84792, Note_off_c, 0, 92, 64
1, 84898, Control_c, 0, 67, 121
1, 84913, Control_c, 0, 67, 121
1, 84943, Control_c, 0, 67, 120
1, 84966, Note_on_c, 0, 91, 69
1, 84973, Control_c, 0, 67, 120
1, 84977, Note_on_c, 0, 87, 50
1, 84999, Note_off_c, 0, 87, 56
1, 85007, Note_off_c, 0, 91, 58
1, 85047, Control_c, 0, 67, 119
1, 85170, Note_on_c, 0, 89, 66
1, 85183, Note_on_c, 0, 82, 48
1, 85210, Note_off_c, 0, 82, 56
1, 85223, Note_off_c, 0, 89, 61
1, 85283, Note_on_c, 0, 51, 30
1, 85352, Note_on_c, 0, 58, 32
1, 85381, Control_c, 0, 67, 119
1, 85425, Note_on_c, 0, 87, 68
1, 85426, Control_c, 0, 64, 44
1, 85426, Control_c, 0, 67, 118
1, 85436, Note_on_c, 0, 63, 38
1, 85440, Control_c, 0, 64, 60
1, 85451, Note_on_c, 0, 79, 34
1, 85455, Control_c, 0, 64, 65
1, 85470, Control_c, 0, 64, 69
1, 85470, Control_c, 0, 67, 118
1, 85485, Control_c, 0, 64, 74
1, 85485, Control_c, 0, 67, 117
1, 85487, Note_off_c, 0, 79, 51
1, 85493, Note_off_c, 0, 87, 55
1, 85499, Control_c, 0, 64, 78
1, 85514, Control_c, 0, 64, 81
1, 85516, Note_off_c, 0, 51, 0
1, 85529, Control_c, 0, 64, 82
1, 85544, Control_c, 0, 64, 83
1, 85545, Note_off_c, 0, 63, 35
1, 85551, Note_off_c, 0, 58, 18
1, 85554, Poly_aftertouch_c, 0, 51, 127
1, 85559, Control_c, 0, 64, 84
1, 85573, Control_c, 0, 64, 85
1, 85588, Control_c, 0, 64, 86
1, 85603, Control_c, 0, 64, 86
1, 85617, Control_c, 0, 64, 87
1, 85617, Control_c, 0, 67, 117
1, 85624, Poly_aftertouch_c, 0, 51, 0
1, 85632, Control_c, 0, 64, 87
1, 85647, Control_c, 0, 64, 88
1, 85662, Control_c, 0, 64, 89
1, 85662, Control_c, 0, 67, 116
1, 85677, Control_c, 0, 64, 89
1, 85691, Control_c, 0, 64, 90
1, 85706, Control_c, 0, 64, 90
1, 85721, Control_c, 0, 64, 91
1, 85736, Control_c, 0, 64, 91
1, 85915, Note_on_c, 0, 67, 68
1, 85926, Note_on_c, 0, 63, 54
1, 85960, Note_off_c, 0, 63, 56
1, 85965, Note_off_c, 0, 67, 54
1, 85995, Control_c, 0, 64, 90
1, 86010, Control_c, 0, 64, 86
1, 86025, Control_c, 0, 64, 77
1, 86026, Note_on_c, 0, 68, 72
1, 86034, Note_on_c, 0, 39, 45
1, 86040, Control_c, 0, 64, 64
1, 86049, Note_on_c, 0, 65, 51
1, 86055, Control_c, 0, 64, 0
1, 86085, Control_c, 0, 67, 116
1, 86130, Control_c, 0, 64, 29
1, 86144, Control_c, 0, 64, 58
1, 86149, Note_off_c, 0, 39, 59
1, 86159, Control_c, 0, 64, 64
1, 86174, Control_c, 0, 64, 67
1, 86189, Control_c, 0, 64, 69
1, 86204, Control_c, 0, 64, 71
1, 86219, Control_c, 0, 64, 74
1, 86234, Control_c, 0, 64, 76
1, 86248, Control_c, 0, 64, 78
1, 86263, Control_c, 0, 64, 80
1, 86278, Control_c, 0, 64, 81
1, 86337, Control_c, 0, 67, 115
1, 86370, Note_on_c, 0, 46, 48
1, 86422, Note_off_c, 0, 68, 51
1, 86457, Note_off_c, 0, 46, 39
1, 86458, Note_on_c, 0, 53, 50
1, 86500, Control_c, 0, 67, 116
1, 86511, Note_on_c, 0, 56, 58
1, 86511, Note_off_c, 0, 53, 56
1, 86514, Control_c, 0, 67, 116
1, 86544, Control_c, 0, 67, 117
1, 86559, Control_c, 0, 64, 80
1, 86563, Note_off_c, 0, 65, 38
1, 86565, Note_on_c, 0, 62, 60
1, 86568, Note_off_c, 0, 56, 58
1, 86574, Control_c, 0, 67, 118
1, 86589, Control_c, 0, 64, 80
1, 86589, Control_c, 0, 67, 118
1, 86604, Control_c, 0, 64, 79
1, 86604, Control_c, 0, 67, 119
1, 86618, Note_off_c, 0, 62, 56
1, 86626, Control_c, 0, 67, 120
1, 86640, Control_c, 0, 64, 79
1, 86655, Control_c, 0, 64, 78
1, 86655, Control_c, 0, 67, 121
1, 86670, Control_c, 0, 64, 78
1, 86670, Control_c, 0, 67, 121
1, 86685, Control_c, 0, 64, 77
1, 86685, Control_c, 0, 67, 122
1, 86700, Control_c, 0, 64, 76
1, 86700, Control_c, 0, 67, 123
1, 86714, Control_c, 0, 64, 74
1, 86729, Control_c, 0, 64, 72
1, 86744, Control_c, 0, 64, 67
1, 86744, Control_c, 0, 67, 123
1, 86759, Control_c, 0, 64, 62
1, 86771, Note_on_c, 0, 67, 56
1, 86774, Control_c, 0, 64, 54
1, 86774, Control_c, 0, 67, 127
1, 86784, Note_on_c, 0, 64, 41
1, 86789, Control_c, 0, 64, 51
1, 86803, Control_c, 0, 64, 50
1, 86818, Control_c, 0, 64, 50
1, 86833, Control_c, 0, 64, 47
1, 86848, Control_c, 0, 64, 43
1, 86863, Control_c, 0, 64, 39
1, 86878, Control_c, 0, 64, 36
1, 86893, Control_c, 0, 64, 33
1, 86908, Control_c, 0, 64, 31
1, 86923, Control_c, 0, 64, 29
1, 86938, Control_c, 0, 64, 27
1, 86952, Control_c, 0, 64, 25
1, 86967, Control_c, 0, 64, 24
1, 86982, Control_c, 0, 64, 23
1, 86997, Control_c, 0, 64, 20
1, 87012, Control_c, 0, 64, 17
1, 87022, Note_off_c, 0, 67, 59
1, 87032, Note_on_c, 0, 68, 59
1, 87038, Note_off_c, 0, 64, 58
1, 87041, Note_on_c, 0, 65, 48
1, 87101, Control_c, 0, 64, 15
1, 87110, Note_off_c, 0, 68, 51
1, 87116, Control_c, 0, 64, 13
1, 87131, Control_c, 0, 64, 10
1, 87135, Note_off_c, 0, 65, 61
1, 87145, Control_c, 0, 64, 0
1, 87552, Control_c, 0, 64, 10
1, 87641, Control_c, 0, 64, 13
1, 87815, Note_on_c, 0, 70, 45
1, 87827, Note_on_c, 0, 62, 33
1, 87864, Control_c, 0, 64, 15
1, 87971, Note_off_c, 0, 70, 54
1, 87983, Control_c, 0, 64, 17
1, 88013, Note_off_c, 0, 62, 41
1, 88124, Control_c, 0, 64, 15
1, 88539, Control_c, 0, 64, 17
1, 88554, Control_c, 0, 64, 18
1, 88628, Control_c, 0, 64, 20
1, 88642, Control_c, 0, 64, 21
1, 88657, Control_c, 0, 64, 26
1, 88672, Control_c, 0, 64, 29
1, 88687, Control_c, 0, 64, 34
1, 88702, Control_c, 0, 64, 39
1, 88717, Control_c, 0, 64, 42
1, 88732, Control_c, 0, 64, 44
1, 88747, Control_c, 0, 64, 47
1, 88762, Control_c, 0, 64, 50
1, 88777, Control_c, 0, 64, 52
1, 88791, Control_c, 0, 64, 55
1, 88806, Control_c, 0, 64, 57
1, 88821, Control_c, 0, 64, 57
1, 88835, Control_c, 0, 64, 58
1, 88850, Control_c, 0, 64, 58
1, 88872, Control_c, 0, 64, 58
1, 88902, Control_c, 0, 64, 57
1, 88932, Control_c, 0, 64, 57
1, 88976, Control_c, 0, 64, 56
1, 89006, Control_c, 0, 64, 56
1, 89021, Control_c, 0, 64, 55
1, 89035, Control_c, 0, 64, 55
1, 89050, Control_c, 0, 64, 54
1, 89065, Control_c, 0, 64, 53
1, 89080, Control_c, 0, 64, 53
1, 89095, Control_c, 0, 64, 52
1, 89109, Control_c, 0, 64, 50
1, 89124, Control_c, 0, 64, 49
1, 89139, Control_c, 0, 64, 47
1, 89154, Control_c, 0, 64, 46
1, 89168, Control_c, 0, 64, 46
1, 89183, Control_c, 0, 64, 45
1, 89242, Control_c, 0, 67, 109
1, 89257, Control_c, 0, 67, 83
1, 89272, Control_c, 0, 67, 55
1, 89288, Control_c, 0, 64, 46
1, 89288, Control_c, 0, 67, 30
1, 89303, Control_c, 0, 67, 11
1, 89318, Control_c, 0, 67, 0
1, 89406, Control_c, 0, 64, 45
1, 89421, Control_c, 0, 64, 45
1, 89436, Control_c, 0, 64, 44
1, 89465, Control_c, 0, 64, 45
1, 89540, Control_c, 0, 64, 44
1, 89552, Note_on_c, 0, 34, 68
1, 89555, Control_c, 0, 64, 43
1, 89570, Control_c, 0, 64, 42
1, 89584, Control_c, 0, 64, 39
1, 89588, Note_off_c, 0, 34, 63
1, 89599, Control_c, 0, 64, 34
1, 89621, Control_c, 0, 64, 26
1, 89636, Control_c, 0, 64, 0
1, 89638, Note_on_c, 0, 39, 91
1, 89933, Note_on_c, 0, 55, 51
1, 89978, Note_off_c, 0, 55, 63
1, 89982, Note_on_c, 0, 58, 61
1, 90029, Note_off_c, 0, 58, 63
1, 90039, Note_on_c, 0, 63, 67
1, 90085, Note_on_c, 0, 67, 79
1, 90091, Note_off_c, 0, 63, 64
1, 90124, Note_off_c, 0, 67, 64
1, 90257, Note_off_c, 0, 39, 59
1, 90279, Note_on_c, 0, 43, 78
1, 90364, Note_off_c, 0, 43, 61
1, 90463, Note_on_c, 0, 44, 75
1, 90513, Note_off_c, 0, 44, 61
1, 90592, Note_on_c, 0, 45, 77
1, 90630, Note_off_c, 0, 45, 67
1, 90708, Note_on_c, 0, 46, 78
1, 90789, Note_off_c, 0, 46, 51
1, 90805, Note_on_c, 0, 51, 71
1, 90830, Note_on_c, 0, 67, 64
1, 90871, Note_off_c, 0, 51, 62
1, 90872, Note_off_c, 0, 67, 63
1, 90876, Note_on_c, 0, 70, 66
1, 90909, Note_off_c, 0, 70, 65
1, 90914, Note_on_c, 0, 75, 64
1, 90922, Note_on_c, 0, 55, 81
1, 90956, Note_on_c, 0, 79, 78
1, 90967, Note_off_c, 0, 75, 61
1, 90971, Note_off_c, 0, 55, 63
1, 90991, Note_off_c, 0, 79, 61
1, 90993, Control_c, 0, 64, 54
1, 91008, Control_c, 0, 64, 59
1, 91023, Control_c, 0, 64, 57
1, 91028, Note_on_c, 0, 56, 84
1, 91037, Control_c, 0, 64, 56
1, 91052, Control_c, 0, 64, 54
1, 91067, Control_c, 0, 64, 50
1, 91082, Control_c, 0, 64, 46
1, 91087, Note_off_c, 0, 56, 60
1, 91097, Control_c, 0, 64, 39
1, 91119, Control_c, 0, 64, 29
1, 91134, Control_c, 0, 64, 0
1, 91138, Note_on_c, 0, 57, 82
1, 91182, Note_off_c, 0, 57, 62
1, 91261, Note_on_c, 0, 57, 74
1, 91311, Control_c, 0, 64, 50
1, 91326, Control_c, 0, 64, 64
1, 91341, Control_c, 0, 64, 68
1, 91356, Control_c, 0, 64, 73
1, 91371, Control_c, 0, 64, 79
1, 91385, Control_c, 0, 64, 84
1, 91387, Note_off_c, 0, 57, 61
1, 91396, Note_on_c, 0, 58, 64
1, 91400, Control_c, 0, 64, 86
1, 91415, Control_c, 0, 64, 88
1, 91430, Control_c, 0, 64, 90
1, 91445, Control_c, 0, 64, 92
1, 91459, Note_off_c, 0, 58, 61
1, 91459, Control_c, 0, 64, 94
1, 91474, Control_c, 0, 64, 95
1, 91484, Note_on_c, 0, 60, 65
1, 91489, Control_c, 0, 64, 96
1, 91504, Control_c, 0, 64, 97
1, 91516, Note_off_c, 0, 60, 63
1, 91519, Control_c, 0, 64, 98
1, 91531, Note_on_c, 0, 79, 60
1, 91534, Control_c, 0, 64, 99
1, 91549, Control_c, 0, 64, 100
1, 91556, Note_on_c, 0, 58, 58
1, 91563, Control_c, 0, 64, 101
1, 91578, Control_c, 0, 64, 103
1, 91580, Note_on_c, 0, 82, 65
1, 91585, Note_off_c, 0, 79, 60
1, 91586, Note_off_c, 0, 58, 66
1, 91593, Control_c, 0, 64, 104
1, 91607, Note_on_c, 0, 60, 75
1, 91608, Control_c, 0, 64, 106
1, 91611, Note_off_c, 0, 82, 66
1, 91612, Note_on_c, 0, 87, 70
1, 91623, Control_c, 0, 64, 108
1, 91637, Control_c, 0, 64, 109
1, 91639, Note_off_c, 0, 60, 59
1, 91651, Note_on_c, 0, 91, 88
1, 91652, Control_c, 0, 64, 110
1, 91657, Note_off_c, 0, 87, 49
1, 91665, Note_on_c, 0, 58, 65
1, 91667, Control_c, 0, 64, 111
1, 91679, Note_off_c, 0, 91, 60
1, 91683, Control_c, 0, 64, 112
1, 91697, Note_off_c, 0, 58, 66
1, 91719, Note_on_c, 0, 60, 71
1, 91750, Note_off_c, 0, 60, 65
1, 91761, Note_on_c, 0, 58, 70
1, 91787, Control_c, 0, 64, 111
1, 91793, Note_off_c, 0, 58, 62
1, 91801, Control_c, 0, 64, 110
1, 91815, Note_on_c, 0, 60, 72
1, 91816, Control_c, 0, 64, 106
1, 91831, Control_c, 0, 64, 100
1, 91832, Note_off_c, 0, 60, 68
1, 91846, Control_c, 0, 64, 91
1, 91865, Note_on_c, 0, 58, 66
1, 91868, Control_c, 0, 64, 77
1, 91883, Control_c, 0, 64, 63
1, 91891, Note_off_c, 0, 58, 70
1, 91898, Control_c, 0, 64, 0
1, 91913, Note_on_c, 0, 57, 61
1, 91958, Note_on_c, 0, 58, 68
1, 91963, Note_off_c, 0, 57, 60
1, 91987, Note_off_c, 0, 58, 69
1, 92005, Note_on_c, 0, 63, 91
1, 92038, Note_off_c, 0, 63, 62
1, 92178, Control_c, 0, 67, 8
1, 92193, Control_c, 0, 67, 11
1, 92208, Control_c, 0, 67, 13
1, 92223, Control_c, 0, 67, 15
1, 92238, Control_c, 0, 67, 18
1, 92252, Control_c, 0, 67, 21
1, 92264, Note_on_c, 0, 46, 46
1, 92267, Control_c, 0, 67, 23
1, 92282, Control_c, 0, 67, 25
1, 92297, Control_c, 0, 67, 27
1, 92308, Note_off_c, 0, 46, 59
1, 92312, Control_c, 0, 67, 30
1, 92327, Control_c, 0, 67, 34
1, 92342, Control_c, 0, 64, 47
1, 92342, Control_c, 0, 67, 40
1, 92356, Note_on_c, 0, 55, 48
1, 92357, Control_c, 0, 64, 63
1, 92357, Control_c, 0, 67, 48
1, 92372, Control_c, 0, 64, 67
1, 92372, Control_c, 0, 67, 55
1, 92386, Control_c, 0, 64, 71
1, 92386, Control_c, 0, 67, 62
1, 92401, Control_c, 0, 64, 76
1, 92401, Control_c, 0, 67, 67
1, 92416, Control_c, 0, 64, 80
1, 92416, Control_c, 0, 67, 72
1, 92428, Note_on_c, 0, 63, 65
1, 92431, Control_c, 0, 64, 83
1, 92431, Control_c, 0, 67, 75
1, 92446, Control_c, 0, 64, 84
1, 92446, Control_c, 0, 67, 78
1, 92449, Note_off_c, 0, 63, 64
1, 92453, Note_off_c, 0, 55, 61
1, 92460, Control_c, 0, 64, 85
1, 92460, Control_c, 0, 67, 83
1, 92476, Control_c, 0, 64, 86
1, 92476, Control_c, 0, 67, 87
1, 92491, Control_c, 0, 67, 91
1, 92506, Control_c, 0, 64, 87
1, 92506, Control_c, 0, 67, 94
1, 92521, Control_c, 0, 64, 87
1, 92521, Control_c, 0, 67, 94
1, 92551, Control_c, 0, 67, 94
1, 92617, Control_c, 0, 67, 93
1, 92632, Control_c, 0, 67, 93
1, 92647, Control_c, 0, 67, 92
1, 92736, Control_c, 0, 67, 92
1, 92765, Control_c, 0, 67, 91
1, 92780, Control_c, 0, 67, 91
1, 92798, Note_on_c, 0, 70, 59
1, 92800, Note_on_c, 0, 67, 59
1, 92843, Note_off_c, 0, 67, 60
1, 92854, Control_c, 0, 67, 90
1, 92868, Note_off_c, 0, 70, 59
1, 92905, Note_on_c, 0, 39, 49
1, 92956, Note_on_c, 0, 65, 56
1, 92959, Note_off_c, 0, 39, 56
1, 92963, Note_on_c, 0, 68, 64
1, 92973, Control_c, 0, 64, 84
1, 92988, Control_c, 0, 64, 77
1, 92988, Control_c, 0, 67, 91
1, 92995, Note_off_c, 0, 65, 63
1, 93002, Control_c, 0, 64, 68
1, 93017, Control_c, 0, 64, 63
1, 93017, Control_c, 0, 67, 91
1, 93032, Control_c, 0, 64, 66
1, 93032, Control_c, 0, 67, 92
1, 93042, Note_off_c, 0, 68, 59
1, 93047, Note_on_c, 0, 75, 73
1, 93047, Control_c, 0, 64, 71
1, 93047, Control_c, 0, 67, 92
1, 93062, Control_c, 0, 64, 76
1, 93076, Note_off_c, 0, 75, 67
1, 93076, Control_c, 0, 64, 79
1, 93076, Control_c, 0, 67, 93
1, 93091, Control_c, 0, 64, 81
1, 93091, Control_c, 0, 67, 93
1, 93106, Control_c, 0, 64, 82
1, 93121, Control_c, 0, 67, 94
1, 93136, Control_c, 0, 67, 94
1, 93140, Note_on_c, 0, 70, 69
1, 93141, Note_on_c, 0, 74, 70
1, 93167, Note_off_c, 0, 70, 67
1, 93168, Note_off_c, 0, 74, 65
1, 93203, Note_on_c, 0, 46, 60
1, 93209, Control_c, 0, 64, 80
1, 93209, Control_c, 0, 67, 95
1, 93221, Note_on_c, 0, 79, 74
1, 93223, Note_on_c, 0, 75, 67
1, 93224, Control_c, 0, 64, 77
1, 93239, Control_c, 0, 64, 71
1, 93239, Control_c, 0, 67, 95
1, 93244, Note_off_c, 0, 75, 69
1, 93247, Note_on_c, 0, 53, 59
1, 93247, Note_off_c, 0, 46, 60
1, 93248, Note_off_c, 0, 79, 65
1, 93254, Control_c, 0, 64, 63
1, 93269, Control_c, 0, 64, 0
1, 93278, Note_on_c, 0, 56, 46
1, 93311, Note_on_c, 0, 77, 80
1, 93319, Note_on_c, 0, 74, 64
1, 93325, Note_on_c, 0, 62, 67
1, 93329, Control_c, 0, 67, 96
1, 93344, Note_off_c, 0, 74, 71
1, 93344, Control_c, 0, 67, 98
1, 93359, Note_off_c, 0, 77, 60
1, 93367, Control_c, 0, 67, 101
1, 93382, Control_c, 0, 67, 102
1, 93406, Note_on_c, 0, 80, 75
1, 93406, Note_on_c, 0, 84, 79
1, 93430, Note_off_c, 0, 80, 67
1, 93440, Control_c, 0, 67, 102
1, 93454, Note_off_c, 0, 84, 62
1, 93455, Control_c, 0, 67, 103
1, 93470, Control_c, 0, 67, 103
1, 93485, Control_c, 0, 67, 104
1, 93497, Note_on_c, 0, 82, 79
1, 93500, Note_on_c, 0, 79, 79
1, 93500, Control_c, 0, 67, 104
1, 93574, Control_c, 0, 67, 105
1, 93577, Note_on_c, 0, 80, 80
1, 93582, Note_off_c, 0, 82, 64
1, 93583, Note_off_c, 0, 79, 50
1, 93586, Note_on_c, 0, 77, 64
1, 93600, Note_off_c, 0, 80, 66
1, 93607, Note_off_c, 0, 62, 57
1, 93607, Note_off_c, 0, 77, 65
1, 93650, Note_off_c, 0, 56, 48
1, 93659, Note_off_c, 0, 53, 57
1, 93668, Note_on_c, 0, 75, 81
1, 93678, Note_on_c, 0, 79, 67
1, 93689, Note_off_c, 0, 75, 70
1, 93692, Control_c, 0, 67, 105
1, 93703, Note_off_c, 0, 79, 67
1, 93754, Note_on_c, 0, 77, 82
1, 93756, Note_on_c, 0, 74, 77
1, 93785, Note_off_c, 0, 74, 61
1, 93796, Note_off_c, 0, 77, 62
1, 93841, Note_on_c, 0, 75, 78
1, 93846, Note_on_c, 0, 72, 72
1, 93862, Note_off_c, 0, 75, 71
1, 93870, Note_off_c, 0, 72, 71
1, 93925, Note_on_c, 0, 46, 51
1, 93934, Note_on_c, 0, 74, 76
1, 93936, Note_on_c, 0, 70, 75
1, 93958, Control_c, 0, 67, 105
1, 93959, Note_off_c, 0, 70, 69
1, 93961, Note_off_c, 0, 46, 63
1, 93963, Note_off_c, 0, 74, 63
1, 93973, Control_c, 0, 67, 104
1, 93981, Note_on_c, 0, 53, 45
1, 94018, Note_on_c, 0, 56, 37
1, 94019, Note_on_c, 0, 72, 73
1, 94022, Note_on_c, 0, 68, 74
1, 94032, Control_c, 0, 67, 105
1, 94050, Note_off_c, 0, 68, 62
1, 94056, Note_off_c, 0, 72, 65
1, 94065, Note_on_c, 0, 62, 59
1, 94077, Note_off_c, 0, 53, 34
1, 94078, Note_off_c, 0, 56, 41
1, 94092, Control_c, 0, 67, 104
1, 94106, Note_off_c, 0, 62, 62
1, 94121, Note_on_c, 0, 70, 74
1, 94124, Note_on_c, 0, 67, 68
1, 94145, Note_off_c, 0, 70, 68
1, 94150, Note_off_c, 0, 67, 67
1, 94174, Control_c, 0, 67, 104
1, 94189, Control_c, 0, 67, 103
1, 94203, Control_c, 0, 67, 103
1, 94215, Note_on_c, 0, 69, 75
1, 94218, Note_on_c, 0, 66, 67
1, 94235, Note_off_c, 0, 66, 67
1, 94238, Note_off_c, 0, 69, 72
1, 94248, Control_c, 0, 67, 102
1, 94262, Control_c, 0, 67, 102
1, 94277, Control_c, 0, 67, 101
1, 94292, Control_c, 0, 67, 100
1, 94307, Control_c, 0, 67, 100
1, 94351, Control_c, 0, 67, 99
1, 94366, Control_c, 0, 67, 99
1, 94381, Control_c, 0, 67, 98
1, 94396, Control_c, 0, 67, 98
1, 94439, Note_on_c, 0, 68, 61
1, 94441, Note_on_c, 0, 65, 62
1, 94460, Note_off_c, 0, 68, 66
1, 94465, Note_off_c, 0, 65, 67
1, 94470, Control_c, 0, 67, 97
1, 94500, Control_c, 0, 67, 96
1, 94527, Note_on_c, 0, 67, 64
1, 94529, Control_c, 0, 67, 95
1, 94530, Note_on_c, 0, 39, 44
1, 94536, Note_on_c, 0, 63, 54
1, 94559, Control_c, 0, 67, 94
1, 94574, Control_c, 0, 64, 46
1, 94574, Control_c, 0, 67, 93
1, 94588, Control_c, 0, 64, 61
1, 94588, Control_c, 0, 67, 92
1, 94601, Note_off_c, 0, 63, 0
1, 94603, Control_c, 0, 64, 64
1, 94603, Control_c, 0, 67, 88
1, 94607, Note_off_c, 0, 39, 58
1, 94616, Note_on_c, 0, 63, 33
1, 94618, Control_c, 0, 64, 66
1, 94618, Control_c, 0, 67, 83
1, 94633, Control_c, 0, 64, 69
1, 94633, Control_c, 0, 67, 78
1, 94647, Control_c, 0, 64, 73
1, 94647, Control_c, 0, 67, 73
1, 94662, Control_c, 0, 64, 77
1, 94662, Control_c, 0, 67, 68
1, 94677, Control_c, 0, 64, 78
1, 94677, Control_c, 0, 67, 61
1, 94692, Control_c, 0, 64, 79
1, 94692, Control_c, 0, 67, 55
1, 94707, Control_c, 0, 64, 79
1, 94707, Control_c, 0, 67, 51
1, 94722, Control_c, 0, 64, 80
1, 94722, Control_c, 0, 67, 47
1, 94736, Control_c, 0, 64, 80
1, 94736, Control_c, 0, 67, 43
1, 94751, Control_c, 0, 67, 39
1, 94766, Control_c, 0, 64, 81
1, 94766, Control_c, 0, 67, 34
1, 94774, Note_off_c, 0, 63, 41
1, 94780, Control_c, 0, 67, 26
1, 94795, Control_c, 0, 67, 18
1, 94804, Note_on_c, 0, 46, 48
1, 94810, Control_c, 0, 64, 81
1, 94810, Control_c, 0, 67, 10
1, 94825, Control_c, 0, 64, 82
1, 94825, Control_c, 0, 67, 0
1, 94840, Control_c, 0, 64, 82
1, 94858, Note_off_c, 0, 46, 45
1, 94861, Note_off_c, 0, 67, 38
1, 94862, Control_c, 0, 64, 83
1, 94878, Control_c, 0, 64, 83
1, 94917, Note_on_c, 0, 55, 47
1, 94952, Control_c, 0, 64, 84
1, 94967, Control_c, 0, 64, 84
1, 94982, Control_c, 0, 64, 85
1, 94986, Note_on_c, 0, 63, 60
1, 94997, Control_c, 0, 64, 86
1, 95011, Control_c, 0, 64, 87
1, 95016, Note_off_c, 0, 63, 54
1, 95026, Control_c, 0, 64, 87
1, 95037, Note_off_c, 0, 55, 36
1, 95041, Control_c, 0, 64, 88
1, 95056, Control_c, 0, 64, 88
1, 95071, Control_c, 0, 64, 89
1, 95085, Control_c, 0, 64, 89
1, 95115, Control_c, 0, 64, 90
1, 95145, Control_c, 0, 64, 90
1, 95159, Control_c, 0, 64, 91
1, 95174, Control_c, 0, 64, 93
1, 95189, Control_c, 0, 64, 94
1, 95203, Control_c, 0, 64, 96
1, 95218, Control_c, 0, 64, 98
1, 95233, Control_c, 0, 64, 101
1, 95248, Control_c, 0, 64, 104
1, 95263, Control_c, 0, 64, 108
1, 95278, Control_c, 0, 64, 113
1, 95293, Control_c, 0, 64, 119
1, 95308, Control_c, 0, 64, 127
1, 95606, Note_on_c, 0, 46, 60
1, 95653, Note_off_c, 0, 46, 61
1, 95677, Note_on_c, 0, 55, 62
1, 95722, Note_on_c, 0, 63, 79
1, 95752, Note_off_c, 0, 63, 66
1, 95765, Note_off_c, 0, 55, 63
1, 96118, Note_on_c, 0, 34, 80
1, 96157, Note_off_c, 0, 34, 66
1, 96161, Control_c, 0, 64, 122
1, 96175, Control_c, 0, 64, 109
1, 96190, Control_c, 0, 64, 99
1, 96199, Note_on_c, 0, 39, 97
1, 96205, Control_c, 0, 64, 86
1, 96220, Control_c, 0, 64, 72
1, 96235, Control_c, 0, 64, 0
1, 96503, Note_on_c, 0, 55, 62
1, 96548, Note_off_c, 0, 55, 65
1, 96550, Note_on_c, 0, 58, 68
1, 96606, Note_on_c, 0, 63, 74
1, 96613, Note_off_c, 0, 58, 65
1, 96650, Note_on_c, 0, 67, 87
1, 96666, Note_off_c, 0, 63, 65
1, 96682, Note_off_c, 0, 67, 62
1, 96823, Note_off_c, 0, 39, 60
1, 96828, Note_on_c, 0, 43, 83
1, 96898, Note_off_c, 0, 43, 61
1, 96980, Note_on_c, 0, 44, 83
1, 97028, Note_off_c, 0, 44, 63
1, 97101, Note_on_c, 0, 45, 86
1, 97138, Note_off_c, 0, 45, 67
1, 97212, Note_on_c, 0, 46, 83
1, 97270, Note_off_c, 0, 46, 62
1, 97311, Note_on_c, 0, 51, 85
1, 97341, Note_on_c, 0, 67, 66
1, 97363, Note_off_c, 0, 51, 62
1, 97378, Note_on_c, 0, 70, 69
1, 97381, Note_off_c, 0, 67, 62
1, 97418, Note_on_c, 0, 55, 82
1, 97419, Note_on_c, 0, 75, 72
1, 97427, Note_off_c, 0, 70, 62
1, 97457, Note_on_c, 0, 76, 31
1, 97463, Note_on_c, 0, 79, 86
1, 97474, Note_off_c, 0, 55, 62
1, 97475, Note_off_c, 0, 76, 53
1, 97484, Note_off_c, 0, 75, 63
1, 97498, Note_off_c, 0, 79, 61
1, 97535, Note_on_c, 0, 56, 83
1, 97585, Note_off_c, 0, 56, 62
1, 97636, Note_on_c, 0, 57, 84
1, 97684, Note_off_c, 0, 57, 62
1, 97761, Note_on_c, 0, 57, 76
1, 97805, Control_c, 0, 64, 44
1, 97820, Control_c, 0, 64, 55
1, 97835, Control_c, 0, 64, 60
1, 97857, Control_c, 0, 64, 63
1, 97871, Control_c, 0, 64, 66
1, 97877, Note_off_c, 0, 57, 60
1, 97881, Note_on_c, 0, 58, 71
1, 97886, Control_c, 0, 64, 69
1, 97901, Control_c, 0, 64, 74
1, 97916, Control_c, 0, 64, 77
1, 97931, Control_c, 0, 64, 80
1, 97941, Note_off_c, 0, 58, 64
1, 97946, Control_c, 0, 64, 80
1, 97961, Control_c, 0, 64, 81
1, 97974, Note_on_c, 0, 60, 61
1, 97976, Control_c, 0, 64, 81
1, 98005, Control_c, 0, 64, 82
1, 98009, Note_off_c, 0, 60, 63
1, 98040, Note_on_c, 0, 79, 60
1, 98046, Note_on_c, 0, 58, 54
1, 98065, Control_c, 0, 64, 82
1, 98075, Note_on_c, 0, 82, 69
1, 98085, Note_off_c, 0, 79, 57
1, 98086, Note_off_c, 0, 58, 53
1, 98095, Control_c, 0, 64, 83
1, 98109, Note_on_c, 0, 60, 66
1, 98110, Control_c, 0, 64, 83
1, 98119, Note_on_c, 0, 87, 72
1, 98125, Control_c, 0, 64, 84
1, 98132, Note_off_c, 0, 82, 64
1, 98138, Note_off_c, 0, 60, 65
1, 98140, Control_c, 0, 64, 85
1, 98151, Note_on_c, 0, 91, 89
1, 98155, Control_c, 0, 64, 85
1, 98176, Note_off_c, 0, 91, 60
1, 98183, Note_on_c, 0, 58, 55
1, 98184, Control_c, 0, 64, 86
1, 98185, Note_off_c, 0, 87, 63
1, 98200, Note_off_c, 0, 58, 66
1, 98222, Note_on_c, 0, 60, 74
1, 98252, Note_off_c, 0, 60, 65
1, 98274, Note_on_c, 0, 58, 65
1, 98310, Note_off_c, 0, 58, 65
1, 98323, Note_on_c, 0, 60, 71
1, 98345, Note_off_c, 0, 60, 65
1, 98362, Control_c, 0, 64, 85
1, 98376, Control_c, 0, 64, 85
1, 98391, Control_c, 0, 64, 84
1, 98396, Note_on_c, 0, 58, 65
1, 98406, Control_c, 0, 64, 80
1, 98419, Note_off_c, 0, 58, 69
1, 98420, Control_c, 0, 64, 74
1, 98435, Control_c, 0, 64, 64
1, 98448, Note_on_c, 0, 57, 67
1, 98450, Control_c, 0, 64, 0
1, 98504, Note_off_c, 0, 57, 63
1, 98512, Note_on_c, 0, 58, 54
1, 98533, Note_on_c, 0, 67, 82
1, 98535, Note_on_c, 0, 63, 77
1, 98551, Note_off_c, 0, 58, 66
1, 98559, Note_off_c, 0, 67, 64
1, 98566, Note_off_c, 0, 63, 66
1, 98798, Control_c, 0, 67, 8
1, 98805, Note_on_c, 0, 46, 52
1, 98813, Control_c, 0, 67, 14
1, 98828, Control_c, 0, 67, 23
1, 98840, Note_off_c, 0, 46, 62
1, 98843, Control_c, 0, 67, 32
1, 98858, Control_c, 0, 67, 39
1, 98873, Control_c, 0, 67, 47
1, 98888, Control_c, 0, 67, 53
1, 98903, Note_on_c, 0, 55, 51
1, 98903, Control_c, 0, 64, 53
1, 98903, Control_c, 0, 67, 59
1, 98918, Control_c, 0, 64, 62
1, 98918, Control_c, 0, 67, 61
1, 98933, Control_c, 0, 64, 65
1, 98933, Control_c, 0, 67, 62
1, 98947, Control_c, 0, 64, 68
1, 98947, Control_c, 0, 67, 62
1, 98962, Control_c, 0, 64, 72
1, 98977, Control_c, 0, 64, 75
1, 98977, Control_c, 0, 67, 63
1, 98988, Note_on_c, 0, 63, 56
1, 98992, Control_c, 0, 64, 78
1, 98992, Control_c, 0, 67, 63
1, 99007, Control_c, 0, 64, 80
1, 99009, Note_off_c, 0, 63, 61
1, 99022, Control_c, 0, 64, 81
1, 99037, Control_c, 0, 64, 81
1, 99051, Control_c, 0, 64, 82
1, 99063, Note_off_c, 0, 55, 36
1, 99066, Control_c, 0, 64, 82
1, 99096, Control_c, 0, 67, 64
1, 99111, Control_c, 0, 67, 64
1, 99125, Control_c, 0, 64, 83
1, 99169, Control_c, 0, 67, 64
1, 99214, Control_c, 0, 67, 64
1, 99266, Note_on_c, 0, 70, 65
1, 99277, Note_on_c, 0, 67, 56
1, 99289, Control_c, 0, 64, 83
1, 99304, Control_c, 0, 64, 84
1, 99318, Control_c, 0, 64, 85
1, 99333, Control_c, 0, 64, 86
1, 99356, Control_c, 0, 64, 87
1, 99383, Note_off_c, 0, 67, 55
1, 99385, Control_c, 0, 64, 86
1, 99386, Note_off_c, 0, 70, 54
1, 99400, Control_c, 0, 64, 86
1, 99415, Control_c, 0, 64, 83
1, 99430, Control_c, 0, 64, 80
1, 99430, Control_c, 0, 67, 65
1, 99430, Note_on_c, 0, 39, 49
1, 99459, Control_c, 0, 67, 65
1, 99492, Note_on_c, 0, 70, 68
1, 99495, Note_on_c, 0, 67, 70
1, 99503, Note_off_c, 0, 39, 58
1, 99504, Control_c, 0, 67, 66
1, 99518, Control_c, 0, 64, 81
1, 99518, Control_c, 0, 67, 70
1, 99531, Note_off_c, 0, 67, 60
1, 99533, Control_c, 0, 64, 81
1, 99533, Control_c, 0, 67, 73
1, 99538, Note_off_c, 0, 70, 63
1, 99548, Control_c, 0, 64, 82
1, 99548, Control_c, 0, 67, 74
1, 99563, Control_c, 0, 67, 75
1, 99576, Note_on_c, 0, 69, 70
1, 99577, Control_c, 0, 64, 82
1, 99577, Control_c, 0, 67, 77
1, 99578, Note_on_c, 0, 66, 73
1, 99592, Control_c, 0, 67, 78
1, 99606, Note_off_c, 0, 69, 64
1, 99607, Control_c, 0, 67, 79
1, 99637, Control_c, 0, 64, 83
1, 99637, Control_c, 0, 67, 80
1, 99648, Note_off_c, 0, 66, 64
1, 99651, Control_c, 0, 67, 80
1, 99654, Note_on_c, 0, 68, 66
1, 99660, Note_on_c, 0, 65, 60
1, 99667, Control_c, 0, 64, 83
1, 99667, Control_c, 0, 67, 81
1, 99673, Note_off_c, 0, 68, 66
1, 99679, Note_off_c, 0, 65, 64
1, 99682, Control_c, 0, 67, 82
1, 99697, Control_c, 0, 67, 83
1, 99712, Control_c, 0, 64, 83
1, 99712, Control_c, 0, 67, 83
1, 99727, Control_c, 0, 64, 81
1, 99727, Control_c, 0, 67, 84
1, 99741, Control_c, 0, 64, 75
1, 99741, Control_c, 0, 67, 84
1, 99756, Control_c, 0, 64, 67
1, 99756, Control_c, 0, 67, 86
1, 99765, Note_on_c, 0, 75, 80
1, 99771, Control_c, 0, 64, 61
1, 99771, Control_c, 0, 67, 87
1, 99776, Note_on_c, 0, 72, 64
1, 99786, Control_c, 0, 64, 64
1, 99786, Control_c, 0, 67, 88
1, 99800, Control_c, 0, 64, 69
1, 99800, Control_c, 0, 67, 89
1, 99815, Note_off_c, 0, 72, 54
1, 99815, Control_c, 0, 64, 74
1, 99815, Control_c, 0, 67, 90
1, 99824, Note_off_c, 0, 75, 64
1, 99830, Control_c, 0, 64, 79
1, 99830, Control_c, 0, 67, 91
1, 99841, Note_on_c, 0, 46, 52
1, 99845, Control_c, 0, 64, 81
1, 99845, Control_c, 0, 67, 92
1, 99856, Note_on_c, 0, 71, 77
1, 99860, Control_c, 0, 64, 82
1, 99860, Control_c, 0, 67, 94
1, 99875, Control_c, 0, 64, 83
1, 99875, Control_c, 0, 67, 96
1, 99889, Control_c, 0, 64, 84
1, 99889, Control_c, 0, 67, 97
1, 99898, Note_off_c, 0, 71, 51
1, 99904, Control_c, 0, 67, 98
1, 99915, Note_off_c, 0, 46, 54
1, 99919, Control_c, 0, 64, 84
1, 99919, Control_c, 0, 67, 99
1, 99922, Note_on_c, 0, 53, 55
1, 99929, Note_on_c, 0, 74, 65
1, 99933, Note_on_c, 0, 70, 65
1, 99934, Control_c, 0, 67, 100
1, 99948, Note_off_c, 0, 74, 68
1, 99949, Control_c, 0, 67, 102
1, 99951, Note_off_c, 0, 70, 67
1, 99952, Note_on_c, 0, 56, 54
1, 99964, Control_c, 0, 67, 104
1, 99979, Control_c, 0, 64, 84
1, 99979, Control_c, 0, 67, 107
1, 99993, Control_c, 0, 64, 83
1, 99993, Control_c, 0, 67, 111
1, 99996, Note_on_c, 0, 62, 69
1, 100008, Control_c, 0, 64, 80
1, 100008, Control_c, 0, 67, 115
1, 100015, Note_on_c, 0, 79, 83
1, 100022, Control_c, 0, 64, 74
1, 100022, Control_c, 0, 67, 118
1, 100023, Note_on_c, 0, 75, 69
1, 100037, Control_c, 0, 64, 64
1, 100037, Control_c, 0, 67, 123
1, 100039, Note_off_c, 0, 75, 66
1, 100049, Note_off_c, 0, 79, 63
1, 100052, Control_c, 0, 64, 0
1, 100052, Control_c, 0, 67, 126
1, 100061, Note_off_c, 0, 62, 40
1, 100066, Control_c, 0, 67, 127
1, 100105, Note_on_c, 0, 78, 83
1, 100132, Note_off_c, 0, 78, 60
1, 100160, Note_off_c, 0, 56, 35
1, 100192, Note_on_c, 0, 77, 79
1, 100204, Note_on_c, 0, 74, 56
1, 100223, Note_off_c, 0, 74, 65
1, 100229, Note_off_c, 0, 53, 25
1, 100234, Note_off_c, 0, 77, 58
1, 100308, Note_on_c, 0, 84, 70
1, 100315, Note_on_c, 0, 80, 56
1, 100404, Note_off_c, 0, 84, 60
1, 100405, Note_off_c, 0, 80, 54
1, 100971, Control_c, 0, 64, 36
1, 100986, Control_c, 0, 64, 52
1, 101001, Control_c, 0, 64, 58
1, 101016, Control_c, 0, 64, 61
1, 101030, Control_c, 0, 64, 62
1, 101045, Control_c, 0, 64, 63
1, 101060, Control_c, 0, 64, 64
1, 101075, Control_c, 0, 64, 64
1, 101090, Control_c, 0, 64, 65
1, 101119, Control_c, 0, 64, 64
1, 101134, Control_c, 0, 64, 64
1, 101148, Control_c, 0, 64, 60
1, 101163, Control_c, 0, 64, 53
1, 101178, Control_c, 0, 64, 45
1, 101193, Control_c, 0, 64, 49
1, 101207, Note_on_c, 0, 79, 58
1, 101208, Control_c, 0, 64, 55
1, 101222, Note_on_c, 0, 76, 44
1, 101222, Control_c, 0, 64, 60
1, 101237, Control_c, 0, 64, 64
1, 101252, Control_c, 0, 64, 66
1, 101268, Control_c, 0, 64, 68
1, 101276, Note_off_c, 0, 79, 61
1, 101283, Control_c, 0, 64, 71
1, 101298, Control_c, 0, 64, 74
1, 101312, Control_c, 0, 64, 77
1, 101327, Control_c, 0, 64, 78
1, 101356, Note_off_c, 0, 76, 37
1, 101357, Control_c, 0, 64, 77
1, 101372, Control_c, 0, 64, 72
1, 101386, Control_c, 0, 64, 64
1, 101393, Note_on_c, 0, 80, 67
1, 101400, Note_on_c, 0, 77, 61
1, 101401, Control_c, 0, 64, 51
1, 101416, Control_c, 0, 64, 62
1, 101431, Control_c, 0, 64, 69
1, 101445, Control_c, 0, 64, 75
1, 101457, Note_off_c, 0, 77, 49
1, 101460, Control_c, 0, 64, 80
1, 101475, Control_c, 0, 64, 81
1, 101494, Note_off_c, 0, 80, 40
1, 101496, Note_on_c, 0, 76, 65
1, 101505, Note_on_c, 0, 73, 66
1, 101513, Note_off_c, 0, 76, 69
1, 101520, Control_c, 0, 64, 78
1, 101535, Control_c, 0, 64, 72
1, 101537, Note_off_c, 0, 73, 64
1, 101550, Control_c, 0, 64, 61
1, 101564, Control_c, 0, 64, 0
1, 101606, Note_on_c, 0, 77, 78
1, 101609, Note_on_c, 0, 74, 71
1, 101635, Note_off_c, 0, 74, 69
1, 101676, Note_off_c, 0, 77, 53
1, 101685, Note_on_c, 0, 73, 80
1, 101699, Note_on_c, 0, 69, 67
1, 101718, Note_off_c, 0, 73, 61
1, 101724, Note_off_c, 0, 69, 70
1, 101791, Note_on_c, 0, 74, 77
1, 101796, Note_on_c, 0, 70, 72
1, 101822, Note_on_c, 0, 46, 50
1, 101822, Note_off_c, 0, 70, 68
1, 101826, Note_off_c, 0, 74, 58
1, 101887, Note_off_c, 0, 46, 58
1, 101892, Note_on_c, 0, 71, 71
1, 101899, Note_on_c, 0, 67, 62
1, 101904, Note_on_c, 0, 53, 49
1, 101936, Note_off_c, 0, 71, 55
1, 101938, Note_off_c, 0, 67, 56
1, 101961, Note_on_c, 0, 56, 46
1, 102033, Note_on_c, 0, 62, 53
1, 102064, Note_on_c, 0, 72, 68
1, 102071, Note_on_c, 0, 68, 59
1, 102103, Note_off_c, 0, 62, 61
1, 102128, Note_off_c, 0, 53, 33
1, 102140, Note_off_c, 0, 56, 54
1, 102147, Note_off_c, 0, 72, 62
1, 102173, Note_off_c, 0, 68, 62
1, 102293, Note_on_c, 0, 67, 67
1, 102304, Note_on_c, 0, 64, 52
1, 102341, Note_off_c, 0, 64, 63
1, 102342, Note_off_c, 0, 67, 55
1, 102465, Note_on_c, 0, 67, 61
1, 102466, Note_on_c, 0, 70, 63
1, 102498, Note_off_c, 0, 67, 64
1, 102519, Note_off_c, 0, 70, 60
1, 102593, Note_on_c, 0, 68, 63
1, 102599, Note_on_c, 0, 65, 58
1, 102638, Note_off_c, 0, 68, 59
1, 102641, Note_off_c, 0, 65, 62
1, 102713, Note_on_c, 0, 39, 42
1, 102795, Note_on_c, 0, 67, 55
1, 102811, Note_on_c, 0, 63, 41
1, 102832, Note_off_c, 0, 39, 57
1, 102840, Control_c, 0, 64, 50
1, 102855, Control_c, 0, 64, 69
1, 102870, Control_c, 0, 64, 77
1, 102870, Control_c, 0, 67, 126
1, 102885, Control_c, 0, 64, 83
1, 102885, Control_c, 0, 67, 119
1, 102900, Control_c, 0, 64, 87
1, 102900, Control_c, 0, 67, 111
1, 102915, Control_c, 0, 64, 90
1, 102915, Control_c, 0, 67, 101
1, 102930, Control_c, 0, 64, 91
1, 102930, Control_c, 0, 67, 92
1, 102945, Control_c, 0, 64, 91
1, 102945, Control_c, 0, 67, 84
1, 102959, Control_c, 0, 67, 77
1, 102972, Note_off_c, 0, 63, 39
1, 102974, Control_c, 0, 67, 71
1, 102989, Control_c, 0, 67, 66
1, 103004, Control_c, 0, 67, 62
1, 103018, Control_c, 0, 67, 57
1, 103033, Control_c, 0, 64, 92
1, 103033, Control_c, 0, 67, 53
1, 103048, Control_c, 0, 67, 49
1, 103063, Control_c, 0, 67, 46
1, 103064, Note_off_c, 0, 67, 37
1, 103078, Control_c, 0, 64, 92
1, 103078, Control_c, 0, 67, 42
1, 103082, Note_on_c, 0, 46, 33
1, 103100, Control_c, 0, 67, 39
1, 103115, Control_c, 0, 64, 93
1, 103115, Control_c, 0, 67, 34
1, 103130, Control_c, 0, 64, 93
1, 103130, Control_c, 0, 67, 29
1, 103133, Note_off_c, 0, 46, 49
1, 103145, Control_c, 0, 64, 94
1, 103145, Control_c, 0, 67, 23
1, 103159, Control_c, 0, 64, 95
1, 103159, Control_c, 0, 67, 17
1, 103174, Control_c, 0, 64, 97
1, 103174, Control_c, 0, 67, 11
1, 103189, Control_c, 0, 64, 98
1, 103189, Control_c, 0, 67, 0
1, 103195, Note_on_c, 0, 55, 39
1, 103204, Control_c, 0, 64, 101
1, 103218, Control_c, 0, 64, 104
1, 103233, Control_c, 0, 64, 107
1, 103248, Control_c, 0, 64, 112
1, 103250, Note_on_c, 0, 63, 51
1, 103263, Control_c, 0, 64, 117
1, 103278, Control_c, 0, 64, 125
1, 103285, Note_off_c, 0, 63, 53
1, 103292, Control_c, 0, 64, 127
1, 103297, Note_off_c, 0, 55, 36
1, 103823, Note_on_c, 0, 46, 63
1, 103874, Note_off_c, 0, 46, 61
1, 103896, Note_on_c, 0, 55, 65
1, 103952, Note_on_c, 0, 63, 78
1, 103984, Note_off_c, 0, 63, 65
1, 103994, Note_off_c, 0, 55, 63
1, 104303, Note_on_c, 0, 58, 81
1, 104328, Note_off_c, 0, 58, 67
1, 104367, Control_c, 0, 64, 96
1, 104382, Note_on_c, 0, 63, 99
1, 104382, Control_c, 0, 64, 67
1, 104383, Note_on_c, 0, 39, 71
1, 104397, Control_c, 0, 64, 0
1, 104441, Control_c, 0, 64, 47
1, 104456, Control_c, 0, 64, 71
1, 104471, Control_c, 0, 64, 84
1, 104486, Control_c, 0, 64, 102
1, 104487, Note_off_c, 0, 39, 58
1, 104501, Control_c, 0, 64, 121
1, 104516, Control_c, 0, 64, 127
1, 104549, Note_off_c, 0, 63, 62
1, 104704, Note_on_c, 0, 67, 74
1, 104740, Note_off_c, 0, 67, 58
1, 104754, Note_on_c, 0, 46, 53
1, 104820, Note_off_c, 0, 46, 57
1, 104838, Note_on_c, 0, 67, 70
1, 104841, Note_on_c, 0, 55, 53
1, 104870, Note_off_c, 0, 67, 61
1, 104885, Note_off_c, 0, 55, 63
1, 104941, Note_on_c, 0, 63, 55
1, 104966, Note_off_c, 0, 63, 60
1, 105000, Note_on_c, 0, 68, 71
1, 105031, Note_off_c, 0, 68, 65
1, 105107, Note_on_c, 0, 68, 59
1, 105127, Note_off_c, 0, 68, 63
1, 105162, Note_on_c, 0, 69, 76
1, 105185, Note_off_c, 0, 69, 68
1, 105236, Note_on_c, 0, 69, 67
1, 105265, Note_off_c, 0, 69, 70
1, 105289, Note_on_c, 0, 70, 83
1, 105315, Note_off_c, 0, 70, 65
1, 105366, Note_on_c, 0, 70, 73
1, 105392, Note_off_c, 0, 70, 67
1, 105419, Note_on_c, 0, 75, 86
1, 105446, Note_off_c, 0, 75, 64
1, 105487, Note_on_c, 0, 75, 85
1, 105523, Note_off_c, 0, 75, 60
1, 105547, Note_on_c, 0, 79, 91
1, 105570, Note_off_c, 0, 79, 64
1, 105611, Note_on_c, 0, 79, 84
1, 105648, Note_off_c, 0, 79, 62
1, 105677, Note_on_c, 0, 80, 86
1, 105707, Note_off_c, 0, 80, 64
1, 105725, Note_on_c, 0, 80, 88
1, 105764, Note_off_c, 0, 80, 62
1, 105783, Note_on_c, 0, 81, 85
1, 105802, Note_off_c, 0, 81, 70
1, 105864, Note_on_c, 0, 81, 79
1, 105886, Note_off_c, 0, 81, 66
1, 105943, Note_on_c, 0, 83, 68
1, 105959, Note_off_c, 0, 83, 65
1, 105982, Note_on_c, 0, 46, 69
1, 106023, Note_on_c, 0, 82, 76
1, 106027, Control_c, 0, 64, 113
1, 106033, Note_off_c, 0, 46, 60
1, 106041, Note_on_c, 0, 55, 73
1, 106042, Control_c, 0, 64, 92
1, 106045, Note_off_c, 0, 82, 68
1, 106058, Control_c, 0, 64, 77
1, 106073, Control_c, 0, 64, 67
1, 106105, Note_on_c, 0, 87, 87
1, 106110, Control_c, 0, 64, 74
1, 106111, Note_on_c, 0, 63, 78
1, 106125, Control_c, 0, 64, 87
1, 106130, Note_off_c, 0, 87, 61
1, 106140, Control_c, 0, 64, 99
1, 106145, Note_off_c, 0, 55, 62
1, 106146, Note_off_c, 0, 63, 61
1, 106155, Control_c, 0, 64, 109
1, 106169, Control_c, 0, 64, 113
1, 106184, Control_c, 0, 64, 115
1, 106189, Note_on_c, 0, 87, 80
1, 106199, Control_c, 0, 64, 115
1, 106214, Control_c, 0, 64, 116
1, 106218, Note_off_c, 0, 87, 56
1, 106229, Control_c, 0, 64, 116
1, 106272, Note_on_c, 0, 91, 80
1, 106294, Note_off_c, 0, 91, 66
1, 106349, Note_on_c, 0, 91, 86
1, 106375, Note_off_c, 0, 91, 59
1, 106391, Control_c, 0, 64, 117
1, 106421, Control_c, 0, 64, 117
1, 106433, Note_on_c, 0, 92, 90
1, 106450, Control_c, 0, 64, 118
1, 106465, Control_c, 0, 64, 118
1, 106466, Note_off_c, 0, 92, 63
1, 106480, Control_c, 0, 64, 119
1, 106495, Control_c, 0, 64, 120
1, 106510, Control_c, 0, 64, 121
1, 106525, Control_c, 0, 64, 123
1, 106526, Note_on_c, 0, 92, 73
1, 106540, Control_c, 0, 64, 127
1, 106562, Note_off_c, 0, 92, 65
1, 106617, Note_on_c, 0, 93, 83
1, 106656, Note_off_c, 0, 93, 58
1, 106718, Note_on_c, 0, 93, 83
1, 106770, Note_off_c, 0, 93, 63
1, 106841, Note_on_c, 0, 39, 83
1, 106843, Control_c, 0, 64, 121
1, 106859, Control_c, 0, 64, 90
1, 106866, Note_on_c, 0, 93, 100
1, 106874, Control_c, 0, 64, 65
1, 106889, Control_c, 0, 64, 0
1, 106918, Control_c, 0, 64, 59
1, 106933, Control_c, 0, 64, 73
1, 106948, Control_c, 0, 64, 88
1, 106963, Control_c, 0, 64, 110
1, 106972, Note_off_c, 0, 39, 58
1, 106978, Control_c, 0, 64, 127
1, 107010, Note_on_c, 0, 94, 79
1, 107033, Note_off_c, 0, 93, 61
1, 107070, Note_off_c, 0, 94, 66
1, 107085, Note_on_c, 0, 96, 75
1, 107142, Note_on_c, 0, 94, 76
1, 107169, Note_off_c, 0, 96, 61
1, 107204, Note_on_c, 0, 91, 71
1, 107219, Note_off_c, 0, 94, 64
1, 107249, Note_on_c, 0, 87, 84
1, 107253, Note_on_c, 0, 46, 60
1, 107257, Note_off_c, 0, 91, 61
1, 107291, Note_on_c, 0, 84, 76
1, 107295, Note_off_c, 0, 87, 62
1, 107313, Note_off_c, 0, 46, 61
1, 107315, Note_off_c, 0, 84, 70
1, 107321, Note_on_c, 0, 55, 67
1, 107364, Note_on_c, 0, 82, 83
1, 107399, Note_on_c, 0, 63, 77
1, 107424, Note_off_c, 0, 82, 53
1, 107437, Note_on_c, 0, 78, 41
1, 107438, Note_on_c, 0, 79, 81
1, 107462, Note_off_c, 0, 78, 58
1, 107473, Note_off_c, 0, 63, 58
1, 107484, Note_on_c, 0, 75, 87
1, 107498, Note_off_c, 0, 79, 62
1, 107530, Note_off_c, 0, 75, 64
1, 107541, Note_on_c, 0, 72, 74
1, 107556, Note_off_c, 0, 72, 67
1, 107622, Note_on_c, 0, 70, 79
1, 107650, Note_off_c, 0, 55, 28
1, 107684, Note_on_c, 0, 67, 74
1, 107687, Note_off_c, 0, 70, 60
1, 107731, Note_on_c, 0, 63, 76
1, 107732, Note_off_c, 0, 67, 62
1, 107769, Note_off_c, 0, 63, 65
1, 107789, Note_on_c, 0, 62, 72
1, 107816, Note_off_c, 0, 62, 64
1, 107854, Note_on_c, 0, 63, 74
1, 107880, Note_off_c, 0, 63, 67
1, 107930, Note_on_c, 0, 67, 80
1, 107956, Note_off_c, 0, 67, 59
1, 107983, Note_on_c, 0, 70, 76
1, 108008, Note_off_c, 0, 70, 66
1, 108089, Note_on_c, 0, 76, 23
1, 108114, Note_on_c, 0, 79, 83
1, 108126, Note_off_c, 0, 76, 35
1, 108150, Note_off_c, 0, 79, 59
1, 108165, Note_on_c, 0, 82, 81
1, 108206, Note_off_c, 0, 82, 58
1, 108218, Note_on_c, 0, 46, 62
1, 108224, Note_on_c, 0, 87, 62
1, 108225, Note_off_c, 0, 87, 127
1, 108259, Note_on_c, 0, 86, 28
1, 108261, Note_off_c, 0, 46, 61
1, 108273, Control_c, 0, 64, 123
1, 108275, Note_on_c, 0, 55, 63
1, 108287, Control_c, 0, 64, 111
1, 108296, Note_on_c, 0, 89, 67
1, 108296, Note_on_c, 0, 91, 72
1, 108296, Note_off_c, 0, 86, 51
1, 108302, Control_c, 0, 64, 104
1, 108313, Note_off_c, 0, 89, 67
1, 108317, Control_c, 0, 64, 96
1, 108323, Note_off_c, 0, 91, 62
1, 108338, Note_on_c, 0, 94, 92
1, 108339, Control_c, 0, 64, 89
1, 108354, Control_c, 0, 64, 83
1, 108355, Note_on_c, 0, 63, 73
1, 108364, Note_off_c, 0, 55, 61
1, 108369, Control_c, 0, 64, 76
1, 108377, Note_on_c, 0, 99, 95
1, 108380, Note_off_c, 0, 94, 66
1, 108382, Note_off_c, 0, 63, 66
1, 108384, Control_c, 0, 64, 70
1, 108393, Note_off_c, 0, 99, 77
1, 108399, Control_c, 0, 64, 61
1, 108413, Control_c, 0, 64, 0
1, 108778, Note_on_c, 0, 70, 64
1, 108795, Note_on_c, 0, 67, 40
1, 108796, Note_off_c, 0, 70, 64
1, 108823, Note_off_c, 0, 67, 34
1, 108856, Note_on_c, 0, 39, 49
1, 108866, Note_on_c, 0, 68, 68
1, 108869, Note_on_c, 0, 65, 67
1, 108891, Note_off_c, 0, 39, 60
1, 108898, Note_off_c, 0, 65, 67
1, 108907, Note_off_c, 0, 68, 61
1, 109026, Note_on_c, 0, 82, 75
1, 109048, Note_off_c, 0, 82, 68
1, 109174, Note_on_c, 0, 67, 67
1, 109176, Note_on_c, 0, 64, 63
1, 109190, Note_on_c, 0, 46, 49
1, 109202, Note_off_c, 0, 67, 66
1, 109203, Note_off_c, 0, 64, 65
1, 109229, Note_off_c, 0, 46, 61
1, 109241, Note_on_c, 0, 53, 53
1, 109286, Note_on_c, 0, 56, 40
1, 109295, Note_on_c, 0, 68, 80
1, 109318, Note_on_c, 0, 65, 36
1, 109319, Note_off_c, 0, 65, 127
1, 109324, Note_on_c, 0, 62, 63
1, 109332, Note_off_c, 0, 68, 65
1, 109437, Note_on_c, 0, 94, 86
1, 109458, Note_off_c, 0, 94, 68
1, 109564, Note_off_c, 0, 62, 56
1, 109589, Note_on_c, 0, 70, 74
1, 109592, Note_on_c, 0, 67, 67
1, 109618, Note_off_c, 0, 56, 34
1, 109619, Note_off_c, 0, 67, 66
1, 109635, Note_off_c, 0, 70, 61
1, 109673, Note_off_c, 0, 53, 36
1, 109723, Note_on_c, 0, 72, 74
1, 109725, Note_on_c, 0, 68, 66
1, 109753, Note_off_c, 0, 68, 68
1, 109755, Note_off_c, 0, 72, 64
1, 109868, Note_on_c, 0, 82, 67
1, 109911, Note_off_c, 0, 82, 50
1, 109989, Note_on_c, 0, 46, 40
1, 109999, Note_on_c, 0, 74, 68
1, 110011, Note_on_c, 0, 70, 48
1, 110036, Note_off_c, 0, 70, 57
1, 110039, Note_off_c, 0, 46, 52
1, 110055, Note_off_c, 0, 74, 60
1, 110061, Control_c, 0, 64, 46
1, 110075, Control_c, 0, 64, 61
1, 110079, Note_on_c, 0, 53, 38
1, 110090, Control_c, 0, 64, 67
1, 110105, Control_c, 0, 64, 72
1, 110112, Note_on_c, 0, 56, 41
1, 110120, Control_c, 0, 64, 79
1, 110135, Control_c, 0, 64, 84
1, 110150, Control_c, 0, 64, 87
1, 110153, Note_on_c, 0, 75, 72
1, 110159, Note_on_c, 0, 62, 57
1, 110165, Control_c, 0, 64, 89
1, 110180, Control_c, 0, 64, 92
1, 110186, Note_off_c, 0, 56, 49
1, 110190, Note_off_c, 0, 62, 63
1, 110194, Control_c, 0, 64, 93
1, 110205, Note_off_c, 0, 75, 62
1, 110209, Control_c, 0, 64, 94
1, 110224, Control_c, 0, 64, 95
1, 110227, Note_off_c, 0, 53, 38
1, 110239, Control_c, 0, 64, 96
1, 110240, Poly_aftertouch_c, 0, 72, 0
1, 110254, Control_c, 0, 64, 97
1, 110269, Control_c, 0, 64, 99
1, 110283, Control_c, 0, 64, 100
1, 110298, Control_c, 0, 64, 101
1, 110313, Control_c, 0, 64, 102
1, 110321, Note_on_c, 0, 94, 78
1, 110327, Control_c, 0, 64, 102
1, 110353, Note_off_c, 0, 94, 57
1, 110509, Note_on_c, 0, 77, 69
1, 110525, Note_on_c, 0, 74, 52
1, 110614, Note_off_c, 0, 77, 57
1, 110698, Note_on_c, 0, 39, 44
1, 110703, Note_off_c, 0, 74, 63
1, 110749, Control_c, 0, 64, 100
1, 110755, Note_on_c, 0, 79, 59
1, 110761, Note_on_c, 0, 75, 61
1, 110764, Control_c, 0, 64, 92
1, 110779, Control_c, 0, 64, 81
1, 110794, Control_c, 0, 64, 69
1, 110799, Note_off_c, 0, 75, 63
1, 110801, Note_off_c, 0, 79, 55
1, 110808, Control_c, 0, 64, 60
1, 110823, Control_c, 0, 64, 64
1, 110838, Control_c, 0, 64, 69
1, 110841, Note_off_c, 0, 39, 50
1, 110853, Control_c, 0, 64, 75
1, 110862, Note_on_c, 0, 70, 74
1, 110868, Note_on_c, 0, 77, 62
1, 110868, Control_c, 0, 64, 81
1, 110883, Control_c, 0, 64, 85
1, 110896, Note_off_c, 0, 70, 57
1, 110898, Control_c, 0, 64, 87
1, 110913, Control_c, 0, 64, 89
1, 110928, Control_c, 0, 64, 90
1, 110955, Note_on_c, 0, 75, 73
1, 110955, Note_on_c, 0, 67, 65
1, 110957, Control_c, 0, 64, 90
1, 110975, Note_off_c, 0, 77, 51
1, 110979, Note_off_c, 0, 67, 65
1, 110983, Note_off_c, 0, 75, 65
1, 111002, Control_c, 0, 64, 91
1, 111023, Note_on_c, 0, 77, 56
1, 111031, Control_c, 0, 64, 91
1, 111035, Note_on_c, 0, 70, 76
1, 111061, Control_c, 0, 64, 92
1, 111062, Note_off_c, 0, 70, 66
1, 111076, Control_c, 0, 64, 93
1, 111091, Control_c, 0, 64, 93
1, 111105, Control_c, 0, 64, 94
1, 111109, Note_on_c, 0, 79, 81
1, 111110, Note_on_c, 0, 75, 63
1, 111124, Note_off_c, 0, 77, 57
1, 111132, Note_off_c, 0, 79, 67
1, 111132, Note_off_c, 0, 75, 65
1, 111135, Control_c, 0, 64, 94
1, 111147, Note_on_c, 0, 46, 60
1, 111149, Control_c, 0, 64, 95
1, 111164, Control_c, 0, 64, 97
1, 111179, Control_c, 0, 64, 99
1, 111194, Control_c, 0, 64, 101
1, 111196, Note_off_c, 0, 46, 60
1, 111203, Note_on_c, 0, 82, 81
1, 111208, Note_on_c, 0, 77, 68
1, 111209, Control_c, 0, 64, 102
1, 111214, Note_on_c, 0, 55, 60
1, 111223, Control_c, 0, 64, 103
1, 111233, Note_off_c, 0, 77, 66
1, 111238, Control_c, 0, 64, 104
1, 111245, Note_off_c, 0, 82, 59
1, 111253, Control_c, 0, 64, 104
1, 111268, Control_c, 0, 64, 105
1, 111290, Note_on_c, 0, 63, 61
1, 111295, Note_on_c, 0, 87, 82
1, 111297, Note_on_c, 0, 79, 79
1, 111329, Note_off_c, 0, 79, 65
1, 111351, Note_off_c, 0, 87, 60
1, 111381, Note_on_c, 0, 82, 84
1, 111392, Note_on_c, 0, 89, 74
1, 111435, Note_off_c, 0, 82, 62
1, 111461, Note_on_c, 0, 87, 72
1, 111463, Note_on_c, 0, 91, 79
1, 111464, Note_off_c, 0, 89, 64
1, 111476, Note_off_c, 0, 87, 68
1, 111482, Note_off_c, 0, 91, 68
1, 111490, Note_off_c, 0, 63, 37
1, 111498, Control_c, 0, 64, 105
1, 111548, Note_on_c, 0, 89, 76
1, 111550, Note_on_c, 0, 94, 80
1, 111557, Control_c, 0, 64, 106
1, 111572, Note_off_c, 0, 89, 66
1, 111580, Note_off_c, 0, 94, 61
1, 111586, Control_c, 0, 64, 106
1, 111602, Note_off_c, 0, 55, 33
1, 111616, Control_c, 0, 64, 107
1, 111636, Note_on_c, 0, 99, 80
1, 111637, Note_on_c, 0, 91, 71
1, 111646, Control_c, 0, 64, 107
1, 111664, Note_off_c, 0, 91, 64
1, 111693, Note_off_c, 0, 99, 54
1, 111721, Note_on_c, 0, 94, 75
1, 111721, Note_on_c, 0, 101, 72
1, 111750, Control_c, 0, 64, 108
1, 111769, Note_off_c, 0, 94, 60
1, 111825, Note_on_c, 0, 99, 69
1, 111828, Note_on_c, 0, 103, 81
1, 111840, Control_c, 0, 64, 108
1, 111849, Note_off_c, 0, 101, 29
1, 111869, Control_c, 0, 64, 109
1, 111882, Note_off_c, 0, 103, 64
1, 111895, Note_off_c, 0, 99, 66
1, 111899, Control_c, 0, 64, 109
1, 111914, Control_c, 0, 64, 110
1, 111928, Control_c, 0, 64, 110
1, 111958, Control_c, 0, 64, 111
1, 111972, Control_c, 0, 64, 112
1, 111987, Control_c, 0, 64, 112
1, 112018, Control_c, 0, 64, 113
1, 112047, Control_c, 0, 64, 113
1, 112197, Note_on_c, 0, 46, 57
1, 112203, Control_c, 0, 64, 114
1, 112238, Note_off_c, 0, 46, 61
1, 112248, Control_c, 0, 64, 114
1, 112258, Note_on_c, 0, 55, 69
1, 112262, Control_c, 0, 64, 115
1, 112306, Control_c, 0, 64, 115
1, 112313, Note_on_c, 0, 63, 85
1, 112354, Note_off_c, 0, 63, 64
1, 112369, Note_off_c, 0, 55, 61
1, 112663, Control_c, 0, 64, 116
1, 112678, Control_c, 0, 64, 116
1, 112692, Control_c, 0, 64, 117
1, 112707, Control_c, 0, 64, 117
1, 112724, Note_on_c, 0, 58, 84
1, 112737, Control_c, 0, 64, 116
1, 112752, Control_c, 0, 64, 107
1, 112757, Note_off_c, 0, 58, 62
1, 112767, Control_c, 0, 64, 90
1, 112782, Control_c, 0, 64, 68
1, 112793, Note_on_c, 0, 39, 73
1, 112796, Control_c, 0, 64, 0
1, 112805, Note_on_c, 0, 63, 100
1, 112877, Control_c, 0, 64, 66
1, 112892, Note_off_c, 0, 39, 61
1, 112892, Control_c, 0, 64, 80
1, 112907, Control_c, 0, 64, 98
1, 112922, Control_c, 0, 64, 118
1, 112937, Control_c, 0, 64, 123
1, 112952, Control_c, 0, 64, 125
1, 112967, Control_c, 0, 64, 125
1, 112969, Note_off_c, 0, 63, 61
1, 112982, Control_c, 0, 64, 126
1, 113137, Note_on_c, 0, 67, 75
1, 113144, Control_c, 0, 64, 127
1, 113174, Control_c, 0, 64, 127
1, 113175, Note_off_c, 0, 67, 57
1, 113176, Note_on_c, 0, 46, 55
1, 113234, Note_off_c, 0, 46, 56
1, 113270, Note_on_c, 0, 55, 58
1, 113271, Note_on_c, 0, 67, 73
1, 113310, Note_off_c, 0, 67, 63
1, 113324, Note_off_c, 0, 55, 62
1, 113368, Note_on_c, 0, 63, 59
1, 113399, Note_off_c, 0, 63, 61
1, 113441, Note_on_c, 0, 68, 77
1, 113478, Note_off_c, 0, 68, 61
1, 113536, Note_on_c, 0, 68, 65
1, 113577, Note_off_c, 0, 68, 65
1, 113622, Note_on_c, 0, 69, 76
1, 113646, Note_off_c, 0, 69, 71
1, 113685, Note_on_c, 0, 69, 66
1, 113719, Note_off_c, 0, 69, 66
1, 113747, Note_on_c, 0, 70, 83
1, 113770, Note_off_c, 0, 70, 68
1, 113819, Note_on_c, 0, 70, 64
1, 113834, Note_off_c, 0, 70, 68
1, 113871, Note_on_c, 0, 75, 88
1, 113897, Note_off_c, 0, 75, 66
1, 113947, Note_on_c, 0, 75, 55
1, 113965, Note_off_c, 0, 75, 64
1, 113969, Note_on_c, 0, 76, 47
1, 113994, Note_off_c, 0, 76, 57
1, 113998, Note_on_c, 0, 79, 88
1, 114016, Note_off_c, 0, 79, 72
1, 114061, Note_on_c, 0, 79, 85
1, 114096, Note_off_c, 0, 79, 63
1, 114123, Note_on_c, 0, 80, 89
1, 114159, Note_off_c, 0, 80, 64
1, 114183, Note_on_c, 0, 80, 82
1, 114207, Note_off_c, 0, 80, 67
1, 114240, Note_on_c, 0, 81, 85
1, 114260, Note_off_c, 0, 81, 65
1, 114329, Note_on_c, 0, 81, 79
1, 114356, Note_off_c, 0, 81, 62
1, 114399, Note_on_c, 0, 82, 82
1, 114418, Note_off_c, 0, 82, 72
1, 114442, Note_on_c, 0, 46, 71
1, 114496, Note_on_c, 0, 82, 73
1, 114508, Note_off_c, 0, 46, 62
1, 114508, Control_c, 0, 64, 101
1, 114511, Note_on_c, 0, 55, 68
1, 114523, Note_off_c, 0, 82, 59
1, 114523, Control_c, 0, 64, 79
1, 114538, Control_c, 0, 64, 46
1, 114553, Control_c, 0, 64, 0
1, 114567, Control_c, 0, 64, 58
1, 114575, Note_on_c, 0, 87, 71
1, 114576, Note_on_c, 0, 63, 75
1, 114582, Control_c, 0, 64, 69
1, 114597, Control_c, 0, 64, 80
1, 114599, Note_off_c, 0, 87, 69
1, 114609, Note_off_c, 0, 55, 62
1, 114610, Note_off_c, 0, 63, 63
1, 114612, Control_c, 0, 64, 94
1, 114627, Control_c, 0, 64, 102
1, 114642, Control_c, 0, 64, 105
1, 114657, Control_c, 0, 64, 106
1, 114662, Note_on_c, 0, 87, 73
1, 114672, Control_c, 0, 64, 106
1, 114684, Note_off_c, 0, 87, 69
1, 114716, Control_c, 0, 64, 107
1, 114738, Note_on_c, 0, 91, 69
1, 114753, Note_off_c, 0, 91, 60
1, 114790, Control_c, 0, 64, 107
1, 114805, Note_on_c, 0, 91, 90
1, 114832, Note_off_c, 0, 91, 56
1, 114880, Control_c, 0, 64, 108
1, 114886, Note_on_c, 0, 92, 92
1, 114895, Control_c, 0, 64, 108
1, 114910, Control_c, 0, 64, 109
1, 114925, Note_off_c, 0, 92, 64
1, 114925, Control_c, 0, 64, 111
1, 114940, Control_c, 0, 64, 113
1, 114954, Control_c, 0, 64, 117
1, 114969, Control_c, 0, 64, 121
1, 114976, Note_on_c, 0, 92, 73
1, 114984, Control_c, 0, 64, 127
1, 115013, Note_off_c, 0, 92, 67
1, 115071, Note_on_c, 0, 93, 92
1, 115111, Note_off_c, 0, 93, 65
1, 115173, Note_on_c, 0, 93, 89
1, 115223, Note_off_c, 0, 93, 63
1, 115272, Control_c, 0, 64, 109
1, 115277, Note_on_c, 0, 39, 77
1, 115287, Control_c, 0, 64, 85
1, 115302, Control_c, 0, 64, 21
1, 115306, Note_on_c, 0, 93, 96
1, 115316, Control_c, 0, 64, 0
1, 115361, Control_c, 0, 64, 65
1, 115376, Control_c, 0, 64, 76
1, 115390, Control_c, 0, 64, 88
1, 115399, Note_off_c, 0, 39, 59
1, 115405, Control_c, 0, 64, 96
1, 115420, Control_c, 0, 64, 98
1, 115435, Control_c, 0, 64, 99
1, 115440, Note_on_c, 0, 94, 74
1, 115450, Control_c, 0, 64, 101
1, 115458, Note_off_c, 0, 93, 61
1, 115465, Control_c, 0, 64, 102
1, 115480, Control_c, 0, 64, 103
1, 115491, Note_off_c, 0, 94, 65
1, 115494, Control_c, 0, 64, 105
1, 115504, Note_on_c, 0, 96, 78
1, 115509, Control_c, 0, 64, 107
1, 115524, Control_c, 0, 64, 108
1, 115539, Control_c, 0, 64, 109
1, 115565, Note_on_c, 0, 94, 77
1, 115584, Control_c, 0, 64, 110
1, 115591, Note_off_c, 0, 96, 62
1, 115613, Control_c, 0, 64, 110
1, 115631, Note_on_c, 0, 91, 76
1, 115640, Note_off_c, 0, 94, 65
1, 115673, Note_on_c, 0, 87, 81
1, 115680, Note_off_c, 0, 91, 60
1, 115685, Note_on_c, 0, 46, 58
1, 115717, Note_on_c, 0, 84, 81
1, 115718, Control_c, 0, 64, 111
1, 115721, Note_off_c, 0, 87, 63
1, 115739, Note_off_c, 0, 84, 63
1, 115740, Note_off_c, 0, 46, 62
1, 115754, Note_on_c, 0, 55, 65
1, 115762, Control_c, 0, 64, 111
1, 115793, Note_on_c, 0, 82, 82
1, 115807, Control_c, 0, 64, 112
1, 115837, Note_on_c, 0, 63, 76
1, 115869, Note_on_c, 0, 79, 79
1, 115874, Note_off_c, 0, 82, 65
1, 115914, Note_off_c, 0, 63, 56
1, 115922, Note_on_c, 0, 75, 88
1, 115933, Note_off_c, 0, 79, 62
1, 115968, Note_off_c, 0, 75, 65
1, 115973, Note_on_c, 0, 72, 76
1, 115996, Note_off_c, 0, 72, 71
1, 116046, Note_on_c, 0, 70, 79
1, 116108, Note_on_c, 0, 67, 77
1, 116112, Note_off_c, 0, 70, 61
1, 116147, Note_on_c, 0, 63, 79
1, 116150, Note_off_c, 0, 67, 63
1, 116169, Control_c, 0, 64, 111
1, 116184, Control_c, 0, 64, 109
1, 116185, Note_off_c, 0, 55, 31
1, 116190, Note_off_c, 0, 63, 64
1, 116199, Control_c, 0, 64, 103
1, 116212, Note_on_c, 0, 62, 65
1, 116214, Control_c, 0, 64, 96
1, 116228, Control_c, 0, 64, 94
1, 116231, Note_off_c, 0, 62, 63
1, 116243, Control_c, 0, 64, 93
1, 116264, Note_on_c, 0, 63, 79
1, 116281, Note_off_c, 0, 63, 75
1, 116287, Control_c, 0, 64, 94
1, 116347, Control_c, 0, 64, 94
1, 116348, Note_on_c, 0, 67, 83
1, 116379, Note_off_c, 0, 67, 60
1, 116397, Note_on_c, 0, 70, 75
1, 116407, Control_c, 0, 64, 95
1, 116436, Control_c, 0, 64, 95
1, 116451, Note_off_c, 0, 70, 60
1, 116463, Note_on_c, 0, 75, 81
1, 116483, Note_off_c, 0, 75, 73
1, 116511, Control_c, 0, 64, 96
1, 116535, Note_on_c, 0, 79, 83
1, 116541, Control_c, 0, 64, 96
1, 116556, Control_c, 0, 64, 97
1, 116574, Note_off_c, 0, 79, 60
1, 116584, Note_on_c, 0, 82, 81
1, 116633, Note_off_c, 0, 82, 63
1, 116637, Control_c, 0, 64, 96
1, 116643, Note_on_c, 0, 87, 84
1, 116649, Note_on_c, 0, 46, 64
1, 116651, Control_c, 0, 64, 96
1, 116660, Note_off_c, 0, 87, 72
1, 116666, Control_c, 0, 64, 95
1, 116681, Control_c, 0, 64, 94
1, 116696, Control_c, 0, 64, 94
1, 116698, Note_off_c, 0, 46, 60
1, 116711, Control_c, 0, 64, 93
1, 116714, Note_on_c, 0, 91, 90
1, 116718, Note_on_c, 0, 55, 61
1, 116726, Control_c, 0, 64, 90
1, 116740, Control_c, 0, 64, 84
1, 116752, Note_off_c, 0, 91, 59
1, 116755, Control_c, 0, 64, 77
1, 116758, Note_on_c, 0, 94, 88
1, 116770, Control_c, 0, 64, 69
1, 116785, Control_c, 0, 64, 60
1, 116790, Note_on_c, 0, 99, 82
1, 116792, Note_on_c, 0, 63, 66
1, 116794, Note_on_c, 0, 103, 94
1, 116797, Note_off_c, 0, 94, 67
1, 116800, Control_c, 0, 64, 55
1, 116803, Note_off_c, 0, 55, 61
1, 116815, Control_c, 0, 64, 55
1, 116819, Note_off_c, 0, 63, 67
1, 116819, Note_off_c, 0, 99, 67
1, 116827, Note_off_c, 0, 103, 65
1, 116830, Control_c, 0, 64, 48
1, 116844, Control_c, 0, 64, 0
1, 116992, Control_c, 0, 67, 12
1, 117007, Control_c, 0, 67, 15
1, 117022, Control_c, 0, 67, 17
1, 117037, Control_c, 0, 67, 21
1, 117051, Control_c, 0, 67, 24
1, 117066, Control_c, 0, 67, 29
1, 117081, Control_c, 0, 67, 32
1, 117095, Control_c, 0, 67, 35
1, 117110, Control_c, 0, 67, 37
1, 117125, Control_c, 0, 67, 39
1, 117140, Control_c, 0, 67, 40
1, 117185, Control_c, 0, 67, 39
1, 117229, Control_c, 0, 67, 39
1, 117240, Note_on_c, 0, 70, 75
1, 117259, Control_c, 0, 67, 38
1, 117264, Note_off_c, 0, 70, 66
1, 117275, Note_on_c, 0, 67, 22
1, 117289, Control_c, 0, 67, 37
1, 117292, Note_off_c, 0, 67, 36
1, 117301, Note_on_c, 0, 39, 39
1, 117304, Control_c, 0, 67, 37
1, 117326, Control_c, 0, 67, 36
1, 117336, Note_on_c, 0, 68, 73
1, 117344, Note_on_c, 0, 65, 63
1, 117344, Note_off_c, 0, 39, 55
1, 117369, Note_off_c, 0, 68, 63
1, 117369, Note_off_c, 0, 65, 64
1, 117400, Control_c, 0, 67, 36
1, 117415, Control_c, 0, 67, 35
1, 117445, Control_c, 0, 67, 35
1, 117460, Control_c, 0, 67, 34
1, 117474, Control_c, 0, 67, 33
1, 117486, Note_on_c, 0, 82, 83
1, 117489, Control_c, 0, 67, 32
1, 117504, Control_c, 0, 67, 29
1, 117516, Note_off_c, 0, 82, 60
1, 117518, Control_c, 0, 67, 25
1, 117533, Control_c, 0, 67, 14
1, 117548, Control_c, 0, 67, 0
1, 117629, Note_on_c, 0, 67, 71
1, 117631, Note_on_c, 0, 64, 68
1, 117637, Note_on_c, 0, 46, 60
1, 117658, Note_off_c, 0, 64, 67
1, 117659, Note_off_c, 0, 67, 64
1, 117695, Note_off_c, 0, 46, 59
1, 117701, Note_on_c, 0, 53, 57
1, 117739, Note_on_c, 0, 56, 51
1, 117754, Note_on_c, 0, 68, 80
1, 117763, Note_on_c, 0, 65, 55
1, 117784, Note_off_c, 0, 65, 61
1, 117788, Note_on_c, 0, 62, 70
1, 117793, Note_off_c, 0, 68, 65
1, 117897, Note_on_c, 0, 94, 86
1, 117921, Note_off_c, 0, 94, 64
1, 118022, Control_c, 0, 67, 8
1, 118038, Control_c, 0, 67, 10
1, 118055, Note_on_c, 0, 70, 76
1, 118071, Note_on_c, 0, 67, 62
1, 118090, Control_c, 0, 67, 10
1, 118094, Note_off_c, 0, 67, 65
1, 118105, Note_off_c, 0, 62, 56
1, 118105, Control_c, 0, 67, 11
1, 118106, Note_off_c, 0, 70, 62
1, 118135, Control_c, 0, 67, 11
1, 118166, Note_off_c, 0, 53, 39
1, 118169, Note_off_c, 0, 56, 29
1, 118198, Note_on_c, 0, 72, 76
1, 118204, Note_on_c, 0, 68, 65
1, 118209, Control_c, 0, 67, 11
1, 118229, Note_off_c, 0, 72, 62
1, 118231, Note_off_c, 0, 68, 67
1, 118335, Note_on_c, 0, 82, 77
1, 118356, Control_c, 0, 67, 10
1, 118371, Control_c, 0, 67, 10
1, 118379, Note_off_c, 0, 82, 60
1, 118416, Control_c, 0, 67, 9
1, 118431, Control_c, 0, 67, 9
1, 118492, Note_on_c, 0, 70, 67
1, 118502, Note_on_c, 0, 46, 36
1, 118513, Note_on_c, 0, 67, 55
1, 118535, Control_c, 0, 67, 8
1, 118541, Note_off_c, 0, 67, 59
1, 118562, Note_off_c, 0, 46, 55
1, 118569, Note_off_c, 0, 70, 59
1, 118598, Note_on_c, 0, 53, 35
1, 118609, Control_c, 0, 67, 8
1, 118630, Note_on_c, 0, 56, 42
1, 118638, Control_c, 0, 67, 0
1, 118667, Control_c, 0, 64, 47
1, 118674, Note_on_c, 0, 68, 70
1, 118682, Control_c, 0, 64, 60
1, 118684, Note_on_c, 0, 65, 36
1, 118697, Control_c, 0, 64, 65
1, 118704, Note_on_c, 0, 62, 49
1, 118712, Control_c, 0, 64, 69
1, 118714, Note_off_c, 0, 65, 47
1, 118718, Note_off_c, 0, 68, 63
1, 118727, Control_c, 0, 64, 75
1, 118741, Control_c, 0, 64, 81
1, 118756, Control_c, 0, 64, 87
1, 118763, Note_off_c, 0, 62, 58
1, 118771, Control_c, 0, 64, 91
1, 118771, Control_c, 0, 67, 8
1, 118786, Control_c, 0, 64, 94
1, 118797, Note_off_c, 0, 56, 48
1, 118801, Control_c, 0, 64, 100
1, 118801, Control_c, 0, 67, 8
1, 118823, Control_c, 0, 64, 106
1, 118833, Note_off_c, 0, 53, 41
1, 118839, Control_c, 0, 64, 114
1, 118854, Control_c, 0, 64, 123
1, 118863, Note_on_c, 0, 94, 91
1, 118869, Control_c, 0, 64, 127
1, 118893, Note_off_c, 0, 94, 53
1, 118899, Control_c, 0, 67, 8
1, 118943, Control_c, 0, 67, 0
1, 119148, Note_on_c, 0, 65, 84
1, 119158, Note_on_c, 0, 58, 75
1, 119359, Note_off_c, 0, 58, 63
1, 119402, Control_c, 0, 64, 122
1, 119417, Control_c, 0, 64, 116
1, 119429, Note_on_c, 0, 39, 43
1, 119432, Control_c, 0, 64, 111
1, 119446, Control_c, 0, 64, 106
1, 119461, Control_c, 0, 64, 100
1, 119476, Control_c, 0, 64, 90
1, 119490, Control_c, 0, 64, 77
1, 119505, Control_c, 0, 64, 56
1, 119520, Control_c, 0, 64, 0
1, 119531, Note_on_c, 0, 63, 73
1, 119548, Note_on_c, 0, 55, 54
1, 119566, Note_off_c, 0, 65, 58
1, 119632, Control_c, 0, 64, 26
1, 119647, Control_c, 0, 64, 58
1, 119662, Control_c, 0, 64, 61
1, 119664, Note_off_c, 0, 39, 59
1, 119677, Control_c, 0, 64, 64
1, 119691, Note_off_c, 0, 55, 65
1, 119692, Control_c, 0, 64, 67
1, 119706, Control_c, 0, 64, 73
1, 119721, Control_c, 0, 64, 78
1, 119736, Control_c, 0, 64, 81
1, 119751, Control_c, 0, 64, 81
1, 119766, Control_c, 0, 64, 82
1, 119781, Control_c, 0, 64, 82
1, 119795, Control_c, 0, 64, 83
1, 119810, Control_c, 0, 64, 85
1, 119817, Note_off_c, 0, 63, 66
1, 119825, Control_c, 0, 64, 86
1, 119840, Control_c, 0, 64, 87
1, 119854, Note_on_c, 0, 46, 47
1, 119855, Control_c, 0, 64, 87
1, 119884, Control_c, 0, 64, 88
1, 119899, Control_c, 0, 64, 89
1, 119900, Note_off_c, 0, 46, 47
1, 119913, Control_c, 0, 64, 90
1, 119928, Control_c, 0, 64, 90
1, 119958, Control_c, 0, 64, 91
1, 119972, Note_on_c, 0, 55, 49
1, 119973, Control_c, 0, 64, 91
1, 120002, Control_c, 0, 64, 92
1, 120032, Control_c, 0, 64, 92
1, 120040, Note_on_c, 0, 63, 53
1, 120047, Control_c, 0, 64, 93
1, 120076, Control_c, 0, 64, 93
1, 120106, Control_c, 0, 64, 94
1, 120194, Note_off_c, 0, 55, 35
1, 120452, Note_off_c, 0, 63, 25
1, 120545, Note_on_c, 0, 51, 48
1, 120559, Control_c, 0, 64, 93
1, 120604, Control_c, 0, 64, 92
1, 120616, Note_off_c, 0, 51, 53
1, 120618, Control_c, 0, 64, 90
1, 120633, Control_c, 0, 64, 86
1, 120648, Control_c, 0, 64, 82
1, 120651, Note_on_c, 0, 58, 50
1, 120663, Control_c, 0, 64, 80
1, 120692, Control_c, 0, 64, 80
1, 120707, Control_c, 0, 64, 83
1, 120722, Control_c, 0, 64, 85
1, 120736, Control_c, 0, 64, 87
1, 120741, Note_on_c, 0, 67, 48
1, 120751, Control_c, 0, 64, 87
1, 120757, Note_on_c, 0, 82, 63
1, 120768, Note_off_c, 0, 67, 54
1, 120792, Note_off_c, 0, 82, 62
1, 120803, Note_off_c, 0, 58, 36
1, 120811, Note_on_c, 0, 87, 69
1, 120836, Note_off_c, 0, 87, 67
1, 120860, Note_on_c, 0, 97, 84
1, 120870, Control_c, 0, 64, 87
1, 120884, Control_c, 0, 64, 86
1, 120899, Control_c, 0, 64, 84
1, 120908, Note_off_c, 0, 97, 62
1, 120914, Control_c, 0, 64, 81
1, 120916, Note_on_c, 0, 87, 70
1, 120929, Control_c, 0, 64, 75
1, 120940, Note_off_c, 0, 87, 69
1, 120944, Control_c, 0, 64, 65
1, 120958, Control_c, 0, 64, 10
1, 120962, Note_on_c, 0, 89, 72
1, 120973, Control_c, 0, 64, 0
1, 121014, Note_on_c, 0, 87, 72
1, 121025, Note_off_c, 0, 89, 60
1, 121048, Note_off_c, 0, 87, 64
1, 121075, Note_on_c, 0, 39, 60
1, 121081, Note_on_c, 0, 80, 77
1, 121107, Note_off_c, 0, 39, 62
1, 121116, Note_off_c, 0, 80, 65
1, 121147, Note_on_c, 0, 87, 70
1, 121173, Note_off_c, 0, 87, 66
1, 121200, Note_on_c, 0, 96, 79
1, 121239, Note_off_c, 0, 96, 54
1, 121255, Note_on_c, 0, 87, 69
1, 121283, Note_off_c, 0, 87, 66
1, 121293, Note_on_c, 0, 48, 46
1, 121310, Note_on_c, 0, 89, 80
1, 121320, Note_off_c, 0, 48, 59
1, 121351, Note_on_c, 0, 56, 59
1, 121371, Note_on_c, 0, 87, 73
1, 121373, Note_off_c, 0, 89, 63
1, 121388, Note_off_c, 0, 56, 63
1, 121418, Note_on_c, 0, 79, 68
1, 121426, Note_on_c, 0, 63, 62
1, 121427, Note_off_c, 0, 87, 63
1, 121443, Note_off_c, 0, 79, 65
1, 121460, Note_off_c, 0, 63, 65
1, 121491, Note_on_c, 0, 94, 79
1, 121513, Control_c, 0, 67, 8
1, 121525, Note_off_c, 0, 94, 63
1, 121565, Note_on_c, 0, 77, 69
1, 121586, Note_off_c, 0, 77, 64
1, 121602, Control_c, 0, 67, 0
1, 121641, Note_on_c, 0, 92, 80
1, 121683, Note_off_c, 0, 92, 64
1, 121724, Note_on_c, 0, 75, 73
1, 121749, Note_off_c, 0, 75, 70
1, 121811, Note_on_c, 0, 91, 63
1, 121828, Note_off_c, 0, 91, 60
1, 121885, Note_on_c, 0, 51, 45
1, 121886, Note_on_c, 0, 74, 58
1, 121906, Note_off_c, 0, 74, 64
1, 121939, Note_off_c, 0, 51, 58
1, 121967, Note_on_c, 0, 90, 72
1, 121979, Note_on_c, 0, 58, 43
1, 122012, Note_off_c, 0, 90, 62
1, 122045, Note_on_c, 0, 75, 74
1, 122048, Note_on_c, 0, 67, 67
1, 122073, Note_off_c, 0, 75, 66
1, 122075, Note_off_c, 0, 67, 67
1, 122094, Note_off_c, 0, 58, 56
1, 122125, Note_on_c, 0, 91, 71
1, 122156, Note_off_c, 0, 91, 53
1, 122205, Note_on_c, 0, 76, 70
1, 122225, Note_off_c, 0, 76, 65
1, 122283, Note_on_c, 0, 91, 68
1, 122315, Note_off_c, 0, 91, 55
1, 122326, Note_on_c, 0, 39, 68
1, 122347, Note_on_c, 0, 77, 72
1, 122357, Note_off_c, 0, 39, 62
1, 122370, Note_off_c, 0, 77, 68
1, 122383, Note_on_c, 0, 84, 30
1, 122416, Note_on_c, 0, 92, 81
1, 122420, Note_off_c, 0, 84, 40
1, 122449, Note_off_c, 0, 92, 62
1, 122488, Note_on_c, 0, 76, 78
1, 122512, Note_off_c, 0, 76, 66
1, 122547, Note_on_c, 0, 46, 40
1, 122568, Note_on_c, 0, 91, 81
1, 122586, Note_off_c, 0, 46, 46
1, 122595, Note_on_c, 0, 56, 64
1, 122608, Note_off_c, 0, 91, 59
1, 122628, Note_on_c, 0, 77, 68
1, 122634, Note_off_c, 0, 56, 60
1, 122646, Note_off_c, 0, 77, 64
1, 122654, Note_on_c, 0, 62, 67
1, 122693, Note_off_c, 0, 62, 59
1, 122696, Note_on_c, 0, 92, 88
1, 122729, Note_off_c, 0, 92, 57
1, 122756, Note_on_c, 0, 78, 68
1, 122780, Note_off_c, 0, 78, 68
1, 122800, Note_on_c, 0, 93, 78
1, 122827, Note_off_c, 0, 93, 60
1, 122855, Note_on_c, 0, 79, 77
1, 122886, Note_off_c, 0, 79, 60
1, 122920, Note_on_c, 0, 94, 92
1, 122938, Control_c, 0, 67, 8
1, 122947, Note_off_c, 0, 94, 58
1, 122953, Control_c, 0, 67, 10
1, 122968, Control_c, 0, 67, 11
1, 122982, Control_c, 0, 67, 12
1, 122997, Control_c, 0, 67, 15
1, 123012, Control_c, 0, 67, 24
1, 123027, Control_c, 0, 67, 37
1, 123042, Control_c, 0, 67, 49
1, 123057, Control_c, 0, 67, 60
1, 123072, Control_c, 0, 67, 71
1, 123086, Control_c, 0, 67, 81
1, 123101, Control_c, 0, 67, 94
1, 123116, Control_c, 0, 67, 108
1, 123130, Control_c, 0, 67, 121
1, 123145, Control_c, 0, 67, 127
1, 123186, Note_on_c, 0, 51, 38
1, 123223, Note_off_c, 0, 51, 53
1, 123250, Note_on_c, 0, 58, 45
1, 123327, Note_on_c, 0, 67, 60
1, 123345, Note_on_c, 0, 70, 65
1, 123346, Note_off_c, 0, 67, 63
1, 123360, Note_off_c, 0, 58, 56
1, 123374, Note_off_c, 0, 70, 67
1, 123403, Note_on_c, 0, 75, 61
1, 123434, Note_off_c, 0, 75, 66
1, 123451, Note_on_c, 0, 85, 77
1, 123483, Note_off_c, 0, 85, 55
1, 123519, Note_on_c, 0, 75, 31
1, 123540, Note_off_c, 0, 75, 49
1, 123570, Note_on_c, 0, 77, 70
1, 123613, Note_off_c, 0, 77, 57
1, 123640, Note_on_c, 0, 75, 40
1, 123655, Note_on_c, 0, 39, 44
1, 123665, Note_off_c, 0, 75, 47
1, 123670, Note_on_c, 0, 68, 70
1, 123685, Note_off_c, 0, 39, 47
1, 123698, Note_off_c, 0, 68, 68
1, 123743, Note_on_c, 0, 75, 64
1, 123769, Note_off_c, 0, 75, 69
1, 123796, Note_on_c, 0, 84, 68
1, 123814, Note_off_c, 0, 84, 66
1, 123855, Note_on_c, 0, 75, 59
1, 123877, Note_off_c, 0, 75, 67
1, 123883, Note_on_c, 0, 48, 15
1, 123893, Note_on_c, 0, 77, 77
1, 123927, Note_on_c, 0, 56, 64
1, 123929, Note_off_c, 0, 48, 28
1, 123957, Note_off_c, 0, 77, 61
1, 123960, Note_on_c, 0, 75, 73
1, 123961, Note_off_c, 0, 56, 64
1, 123994, Note_on_c, 0, 67, 68
1, 124006, Note_on_c, 0, 63, 63
1, 124020, Note_off_c, 0, 75, 62
1, 124021, Note_off_c, 0, 67, 67
1, 124037, Note_off_c, 0, 63, 66
1, 124077, Note_on_c, 0, 82, 71
1, 124102, Note_off_c, 0, 82, 67
1, 124154, Note_on_c, 0, 65, 61
1, 124172, Note_off_c, 0, 65, 64
1, 124227, Note_on_c, 0, 80, 70
1, 124256, Note_off_c, 0, 80, 65
1, 124300, Note_on_c, 0, 63, 75
1, 124324, Note_off_c, 0, 63, 70
1, 124386, Note_on_c, 0, 79, 60
1, 124405, Note_off_c, 0, 79, 60
1, 124456, Note_on_c, 0, 62, 67
1, 124477, Note_off_c, 0, 62, 64
1, 124491, Note_on_c, 0, 51, 46
1, 124536, Note_off_c, 0, 51, 61
1, 124541, Note_on_c, 0, 78, 77
1, 124566, Note_on_c, 0, 58, 53
1, 124587, Note_off_c, 0, 78, 63
1, 124615, Note_on_c, 0, 63, 77
1, 124631, Note_on_c, 0, 67, 69
1, 124646, Note_off_c, 0, 63, 63
1, 124658, Note_off_c, 0, 67, 65
1, 124662, Note_off_c, 0, 58, 57
1, 124695, Note_on_c, 0, 79, 70
1, 124734, Note_off_c, 0, 79, 55
1, 124774, Note_on_c, 0, 64, 74
1, 124809, Note_off_c, 0, 64, 65
1, 124865, Note_on_c, 0, 79, 70
1, 124902, Note_off_c, 0, 79, 59
1, 124929, Note_on_c, 0, 39, 56
1, 124931, Note_on_c, 0, 65, 75
1, 124962, Note_off_c, 0, 65, 66
1, 124965, Note_off_c, 0, 39, 63
1, 125008, Note_on_c, 0, 80, 76
1, 125040, Note_off_c, 0, 80, 64
1, 125087, Note_on_c, 0, 64, 70
1, 125093, Note_on_c, 0, 46, 65
1, 125113, Note_off_c, 0, 64, 68
1, 125150, Note_off_c, 0, 46, 57
1, 125157, Note_on_c, 0, 56, 60
1, 125167, Note_on_c, 0, 79, 66
1, 125192, Note_off_c, 0, 79, 67
1, 125197, Note_off_c, 0, 56, 61
1, 125225, Note_on_c, 0, 65, 72
1, 125228, Note_on_c, 0, 62, 62
1, 125251, Note_off_c, 0, 65, 69
1, 125262, Note_off_c, 0, 62, 62
1, 125291, Note_on_c, 0, 80, 79
1, 125312, Note_off_c, 0, 80, 71
1, 125333, Poly_aftertouch_c, 0, 72, 0
1, 125374, Note_on_c, 0, 61, 78
1, 125404, Note_off_c, 0, 61, 59
1, 125438, Note_on_c, 0, 76, 69
1, 125486, Note_off_c, 0, 76, 64
1, 125528, Note_on_c, 0, 62, 59
1, 125567, Note_off_c, 0, 62, 63
1, 125630, Note_on_c, 0, 77, 66
1, 125726, Note_off_c, 0, 77, 58
1, 125824, Note_on_c, 0, 51, 38
1, 125876, Note_off_c, 0, 51, 59
1, 125920, Note_on_c, 0, 58, 45
1, 125962, Control_c, 0, 64, 32
1, 125977, Control_c, 0, 64, 48
1, 125981, Note_on_c, 0, 67, 64
1, 125990, Note_on_c, 0, 82, 73
1, 125992, Control_c, 0, 64, 56
1, 126006, Control_c, 0, 64, 60
1, 126010, Note_off_c, 0, 67, 65
1, 126021, Control_c, 0, 64, 63
1, 126026, Note_off_c, 0, 82, 64
1, 126037, Control_c, 0, 64, 64
1, 126048, Note_on_c, 0, 87, 76
1, 126052, Control_c, 0, 64, 65
1, 126055, Note_off_c, 0, 58, 58
1, 126067, Control_c, 0, 64, 67
1, 126067, Control_c, 0, 67, 125
1, 126082, Note_off_c, 0, 87, 62
1, 126082, Control_c, 0, 64, 68
1, 126082, Control_c, 0, 67, 113
1, 126097, Control_c, 0, 64, 70
1, 126097, Control_c, 0, 67, 101
1, 126103, Note_on_c, 0, 97, 84
1, 126111, Control_c, 0, 64, 72
1, 126111, Control_c, 0, 67, 88
1, 126126, Control_c, 0, 64, 74
1, 126126, Control_c, 0, 67, 72
1, 126141, Control_c, 0, 64, 75
1, 126141, Control_c, 0, 67, 59
1, 126155, Note_off_c, 0, 97, 61
1, 126155, Control_c, 0, 64, 76
1, 126155, Control_c, 0, 67, 46
1, 126163, Note_on_c, 0, 87, 68
1, 126170, Control_c, 0, 64, 77
1, 126170, Control_c, 0, 67, 35
1, 126185, Control_c, 0, 64, 77
1, 126185, Control_c, 0, 67, 25
1, 126193, Note_off_c, 0, 87, 65
1, 126200, Control_c, 0, 64, 78
1, 126200, Control_c, 0, 67, 18
1, 126208, Note_on_c, 0, 89, 80
1, 126215, Control_c, 0, 67, 11
1, 126229, Control_c, 0, 67, 0
1, 126251, Note_on_c, 0, 87, 64
1, 126259, Control_c, 0, 64, 76
1, 126273, Control_c, 0, 64, 73
1, 126274, Note_off_c, 0, 89, 62
1, 126288, Control_c, 0, 64, 68
1, 126309, Note_off_c, 0, 87, 65
1, 126311, Control_c, 0, 64, 64
1, 126325, Note_on_c, 0, 80, 80
1, 126326, Control_c, 0, 64, 65
1, 126336, Note_on_c, 0, 39, 57
1, 126341, Control_c, 0, 64, 69
1, 126355, Control_c, 0, 64, 72
1, 126362, Note_off_c, 0, 80, 64
1, 126368, Note_off_c, 0, 39, 64
1, 126370, Control_c, 0, 64, 76
1, 126385, Control_c, 0, 64, 79
1, 126391, Note_on_c, 0, 87, 81
1, 126400, Control_c, 0, 64, 80
1, 126415, Control_c, 0, 64, 81
1, 126429, Control_c, 0, 64, 81
1, 126431, Note_off_c, 0, 87, 53
1, 126444, Control_c, 0, 64, 82
1, 126449, Note_on_c, 0, 96, 82
1, 126459, Control_c, 0, 64, 83
1, 126474, Control_c, 0, 64, 83
1, 126488, Control_c, 0, 64, 84
1, 126494, Note_off_c, 0, 96, 57
1, 126508, Note_on_c, 0, 87, 78
1, 126533, Note_off_c, 0, 87, 66
1, 126533, Control_c, 0, 64, 84
1, 126545, Note_on_c, 0, 48, 66
1, 126554, Note_on_c, 0, 89, 87
1, 126585, Note_off_c, 0, 48, 57
1, 126601, Note_on_c, 0, 56, 69
1, 126607, Control_c, 0, 64, 84
1, 126609, Note_on_c, 0, 87, 83
1, 126622, Control_c, 0, 64, 83
1, 126629, Note_off_c, 0, 89, 65
1, 126637, Control_c, 0, 64, 80
1, 126650, Note_on_c, 0, 63, 79
1, 126652, Control_c, 0, 64, 77
1, 126658, Note_off_c, 0, 56, 61
1, 126663, Note_on_c, 0, 79, 85
1, 126667, Control_c, 0, 64, 70
1, 126672, Note_off_c, 0, 63, 66
1, 126681, Control_c, 0, 64, 56
1, 126683, Note_off_c, 0, 87, 62
1, 126687, Note_off_c, 0, 79, 65
1, 126696, Control_c, 0, 64, 0
1, 126743, Note_on_c, 0, 94, 83
1, 126765, Note_off_c, 0, 94, 67
1, 126811, Note_on_c, 0, 77, 76
1, 126846, Note_off_c, 0, 77, 51
1, 126889, Note_on_c, 0, 92, 90
1, 126932, Note_off_c, 0, 92, 65
1, 126970, Note_on_c, 0, 75, 79
1, 126995, Note_off_c, 0, 75, 66
1, 127043, Note_on_c, 0, 91, 70
1, 127065, Note_off_c, 0, 91, 64
1, 127088, Note_on_c, 0, 89, 39
1, 127117, Note_off_c, 0, 89, 35
1, 127120, Note_on_c, 0, 74, 75
1, 127150, Note_on_c, 0, 51, 49
1, 127150, Note_off_c, 0, 74, 65
1, 127207, Note_on_c, 0, 90, 75
1, 127209, Note_off_c, 0, 51, 55
1, 127238, Note_on_c, 0, 58, 51
1, 127248, Note_off_c, 0, 90, 64
1, 127272, Note_on_c, 0, 75, 74
1, 127293, Note_on_c, 0, 67, 63
1, 127308, Note_off_c, 0, 75, 66
1, 127311, Note_off_c, 0, 67, 62
1, 127338, Note_off_c, 0, 58, 56
1, 127357, Note_on_c, 0, 91, 68
1, 127383, Note_off_c, 0, 91, 60
1, 127430, Note_on_c, 0, 76, 69
1, 127453, Note_off_c, 0, 76, 65
1, 127505, Note_on_c, 0, 91, 70
1, 127540, Note_off_c, 0, 91, 60
1, 127572, Note_on_c, 0, 77, 76
1, 127584, Note_on_c, 0, 39, 74
1, 127592, Note_off_c, 0, 77, 70
1, 127612, Note_on_c, 0, 84, 23
1, 127620, Note_off_c, 0, 39, 62
1, 127639, Note_on_c, 0, 92, 85
1, 127650, Note_off_c, 0, 84, 38
1, 127665, Note_off_c, 0, 92, 65
1, 127709, Note_on_c, 0, 76, 76
1, 127738, Note_off_c, 0, 76, 62
1, 127782, Note_on_c, 0, 91, 80
1, 127782, Note_on_c, 0, 46, 68
1, 127832, Note_off_c, 0, 46, 65
1, 127837, Note_off_c, 0, 91, 52
1, 127842, Note_on_c, 0, 56, 68
1, 127843, Note_on_c, 0, 77, 78
1, 127872, Note_off_c, 0, 77, 64
1, 127883, Note_on_c, 0, 62, 75
1, 127889, Note_off_c, 0, 56, 62
1, 127916, Note_on_c, 0, 92, 94
1, 127925, Note_off_c, 0, 62, 60
1, 127966, Note_off_c, 0, 92, 58
1, 127970, Note_on_c, 0, 78, 71
1, 127993, Note_off_c, 0, 78, 69
1, 128023, Note_on_c, 0, 93, 81
1, 128047, Note_off_c, 0, 93, 62
1, 128077, Note_on_c, 0, 79, 78
1, 128099, Note_off_c, 0, 79, 67
1, 128137, Note_on_c, 0, 94, 97
1, 128165, Note_off_c, 0, 94, 63
1, 128194, Control_c, 0, 67, 9
1, 128208, Control_c, 0, 67, 14
1, 128223, Control_c, 0, 67, 22
1, 128238, Control_c, 0, 67, 31
1, 128253, Control_c, 0, 67, 44
1, 128268, Control_c, 0, 67, 55
1, 128283, Control_c, 0, 67, 65
1, 128297, Control_c, 0, 67, 75
1, 128312, Control_c, 0, 67, 85
1, 128327, Control_c, 0, 67, 96
1, 128342, Control_c, 0, 67, 107
1, 128357, Control_c, 0, 67, 118
1, 128372, Control_c, 0, 67, 125
1, 128378, Note_on_c, 0, 51, 44
1, 128387, Control_c, 0, 67, 127
1, 128417, Note_off_c, 0, 51, 60
1, 128434, Note_on_c, 0, 58, 53
1, 128472, Note_on_c, 0, 70, 69
1, 128488, Note_on_c, 0, 67, 59
1, 128506, Note_off_c, 0, 67, 61
1, 128506, Note_off_c, 0, 70, 62
1, 128519, Note_on_c, 0, 75, 63
1, 128524, Note_off_c, 0, 58, 59
1, 128556, Note_off_c, 0, 75, 68
1, 128580, Note_on_c, 0, 85, 73
1, 128613, Note_off_c, 0, 85, 57
1, 128625, Note_on_c, 0, 75, 66
1, 128658, Note_off_c, 0, 75, 64
1, 128687, Note_on_c, 0, 77, 72
1, 128721, Note_on_c, 0, 75, 65
1, 128741, Note_off_c, 0, 77, 60
1, 128760, Note_off_c, 0, 75, 65
1, 128780, Note_on_c, 0, 68, 81
1, 128786, Note_on_c, 0, 39, 63
1, 128814, Note_off_c, 0, 68, 66
1, 128817, Note_off_c, 0, 39, 64
1, 128839, Note_on_c, 0, 75, 72
1, 128870, Note_off_c, 0, 75, 65
1, 128894, Note_on_c, 0, 84, 72
1, 128911, Note_off_c, 0, 84, 65
1, 128938, Note_on_c, 0, 75, 70
1, 128973, Note_off_c, 0, 75, 66
1, 128997, Note_on_c, 0, 77, 79
1, 128998, Note_on_c, 0, 48, 54
1, 129031, Note_off_c, 0, 48, 60
1, 129034, Note_on_c, 0, 75, 65
1, 129048, Note_off_c, 0, 77, 60
1, 129052, Note_on_c, 0, 56, 65
1, 129086, Note_off_c, 0, 56, 64
1, 129092, Note_on_c, 0, 67, 73
1, 129114, Note_off_c, 0, 75, 64
1, 129117, Note_off_c, 0, 67, 68
1, 129118, Note_on_c, 0, 63, 69
1, 129144, Note_off_c, 0, 63, 68
1, 129168, Note_on_c, 0, 82, 78
1, 129189, Note_off_c, 0, 82, 70
1, 129239, Note_on_c, 0, 65, 72
1, 129263, Note_off_c, 0, 65, 70
1, 129318, Note_on_c, 0, 80, 80
1, 129360, Note_off_c, 0, 80, 65
1, 129394, Note_on_c, 0, 63, 81
1, 129420, Note_off_c, 0, 63, 66
1, 129480, Note_on_c, 0, 79, 69
1, 129497, Note_off_c, 0, 79, 67
1, 129552, Note_on_c, 0, 62, 70
1, 129578, Note_off_c, 0, 62, 63
1, 129606, Note_on_c, 0, 51, 47
1, 129618, Control_c, 0, 67, 126
1, 129631, Note_on_c, 0, 78, 73
1, 129633, Control_c, 0, 67, 124
1, 129645, Note_off_c, 0, 51, 62
1, 129647, Control_c, 0, 67, 116
1, 129662, Control_c, 0, 67, 104
1, 129673, Note_on_c, 0, 58, 58
1, 129677, Control_c, 0, 67, 85
1, 129685, Note_off_c, 0, 78, 60
1, 129692, Control_c, 0, 67, 66
1, 129706, Note_on_c, 0, 63, 72
1, 129706, Control_c, 0, 67, 45
1, 129721, Control_c, 0, 67, 29
1, 129734, Note_off_c, 0, 63, 67
1, 129736, Control_c, 0, 64, 53
1, 129736, Control_c, 0, 67, 15
1, 129737, Note_on_c, 0, 67, 65
1, 129751, Control_c, 0, 64, 63
1, 129751, Control_c, 0, 67, 0
1, 129761, Note_off_c, 0, 67, 65
1, 129766, Control_c, 0, 64, 67
1, 129772, Note_off_c, 0, 58, 60
1, 129780, Control_c, 0, 64, 72
1, 129789, Note_on_c, 0, 79, 67
1, 129795, Control_c, 0, 64, 78
1, 129810, Control_c, 0, 64, 82
1, 129822, Note_off_c, 0, 79, 59
1, 129824, Control_c, 0, 64, 83
1, 129839, Control_c, 0, 64, 84
1, 129854, Control_c, 0, 64, 87
1, 129864, Note_on_c, 0, 64, 76
1, 129869, Control_c, 0, 64, 90
1, 129884, Control_c, 0, 64, 94
1, 129898, Control_c, 0, 64, 100
1, 129906, Note_off_c, 0, 64, 59
1, 129913, Control_c, 0, 64, 103
1, 129928, Control_c, 0, 64, 104
1, 129945, Note_on_c, 0, 79, 73
1, 129958, Control_c, 0, 64, 103
1, 129973, Control_c, 0, 64, 97
1, 129988, Control_c, 0, 64, 86
1, 130003, Note_off_c, 0, 79, 58
1, 130003, Control_c, 0, 64, 71
1, 130018, Control_c, 0, 64, 41
1, 130022, Note_on_c, 0, 65, 79
1, 130027, Note_on_c, 0, 39, 61
1, 130033, Control_c, 0, 64, 0
1, 130056, Control_c, 0, 64, 62
1, 130065, Note_off_c, 0, 65, 69
1, 130070, Control_c, 0, 64, 68
1, 130077, Note_off_c, 0, 39, 63
1, 130085, Control_c, 0, 64, 73
1, 130100, Control_c, 0, 64, 79
1, 130115, Control_c, 0, 64, 82
1, 130117, Note_on_c, 0, 80, 82
1, 130129, Control_c, 0, 64, 83
1, 130144, Control_c, 0, 64, 84
1, 130174, Note_off_c, 0, 80, 62
1, 130189, Control_c, 0, 64, 84
1, 130198, Note_on_c, 0, 67, 72
1, 130218, Control_c, 0, 64, 85
1, 130226, Note_off_c, 0, 67, 65
1, 130233, Control_c, 0, 64, 88
1, 130235, Note_on_c, 0, 75, 21
1, 130248, Control_c, 0, 64, 92
1, 130263, Control_c, 0, 64, 94
1, 130274, Note_on_c, 0, 82, 78
1, 130277, Note_off_c, 0, 75, 37
1, 130277, Control_c, 0, 64, 95
1, 130307, Control_c, 0, 64, 94
1, 130321, Control_c, 0, 64, 90
1, 130336, Control_c, 0, 64, 79
1, 130348, Note_on_c, 0, 68, 83
1, 130348, Note_off_c, 0, 82, 62
1, 130351, Control_c, 0, 64, 66
1, 130366, Control_c, 0, 64, 0
1, 130369, Note_on_c, 0, 59, 65
1, 130374, Note_on_c, 0, 56, 58
1, 130382, Note_on_c, 0, 47, 56
1, 130383, Note_on_c, 0, 51, 52
1, 130402, Note_off_c, 0, 68, 63
1, 130411, Control_c, 0, 64, 61
1, 130426, Control_c, 0, 64, 70
1, 130431, Note_on_c, 0, 83, 78
1, 130440, Control_c, 0, 64, 77
1, 130455, Control_c, 0, 64, 81
1, 130470, Control_c, 0, 64, 82
1, 130485, Control_c, 0, 64, 82
1, 130489, Note_off_c, 0, 83, 58
1, 130500, Control_c, 0, 64, 83
1, 130506, Note_on_c, 0, 71, 73
1, 130529, Control_c, 0, 64, 83
1, 130530, Note_off_c, 0, 71, 68
1, 130544, Control_c, 0, 64, 84
1, 130574, Control_c, 0, 64, 84
1, 130589, Control_c, 0, 64, 85
1, 130599, Note_on_c, 0, 88, 80
1, 130618, Control_c, 0, 64, 85
1, 130644, Note_off_c, 0, 88, 62
1, 130662, Control_c, 0, 64, 86
1, 130668, Note_on_c, 0, 74, 74
1, 130705, Note_off_c, 0, 74, 64
1, 130707, Control_c, 0, 64, 86
1, 130721, Control_c, 0, 64, 87
1, 130748, Note_on_c, 0, 89, 85
1, 130807, Note_off_c, 0, 89, 63
1, 130827, Note_on_c, 0, 76, 74
1, 130834, Control_c, 0, 64, 87
1, 130849, Control_c, 0, 64, 88
1, 130851, Note_on_c, 0, 82, 19
1, 130864, Control_c, 0, 64, 90
1, 130866, Note_off_c, 0, 76, 66
1, 130867, Note_off_c, 0, 47, 35
1, 130878, Control_c, 0, 64, 93
1, 130884, Note_off_c, 0, 59, 59
1, 130890, Note_off_c, 0, 82, 39
1, 130891, Note_off_c, 0, 51, 34
1, 130893, Control_c, 0, 64, 97
1, 130900, Note_on_c, 0, 91, 88
1, 130908, Control_c, 0, 64, 99
1, 130914, Note_off_c, 0, 56, 35
1, 130923, Control_c, 0, 64, 99
1, 130938, Control_c, 0, 64, 99
1, 130952, Control_c, 0, 64, 96
1, 130956, Note_off_c, 0, 91, 57
1, 130967, Control_c, 0, 64, 86
1, 130977, Note_on_c, 0, 77, 84
1, 130982, Control_c, 0, 64, 72
1, 130984, Note_on_c, 0, 56, 89
1, 130985, Note_on_c, 0, 59, 90
1, 130989, Note_on_c, 0, 51, 71
1, 130992, Note_on_c, 0, 47, 76
1, 130997, Control_c, 0, 64, 0
1, 131022, Note_off_c, 0, 77, 62
1, 131041, Control_c, 0, 64, 64
1, 131056, Control_c, 0, 64, 72
1, 131064, Note_on_c, 0, 92, 94
1, 131070, Control_c, 0, 64, 81
1, 131085, Control_c, 0, 64, 86
1, 131135, Note_on_c, 0, 79, 77
1, 131137, Note_off_c, 0, 92, 58
1, 131159, Control_c, 0, 64, 86
1, 131178, Note_off_c, 0, 79, 64
1, 131183, Note_on_c, 0, 87, 13
1, 131204, Control_c, 0, 64, 87
1, 131218, Note_on_c, 0, 94, 91
1, 131230, Note_off_c, 0, 87, 28
1, 131234, Control_c, 0, 64, 87
1, 131263, Control_c, 0, 64, 88
1, 131278, Control_c, 0, 64, 88
1, 131285, Note_on_c, 0, 80, 88
1, 131293, Control_c, 0, 64, 89
1, 131293, Note_off_c, 0, 94, 66
1, 131308, Control_c, 0, 64, 90
1, 131323, Control_c, 0, 64, 91
1, 131330, Note_off_c, 0, 80, 62
1, 131337, Control_c, 0, 64, 92
1, 131352, Control_c, 0, 64, 93
1, 131361, Note_on_c, 0, 95, 93
1, 131367, Control_c, 0, 64, 93
1, 131382, Control_c, 0, 64, 94
1, 131413, Note_off_c, 0, 95, 63
1, 131426, Control_c, 0, 64, 94
1, 131435, Note_on_c, 0, 83, 88
1, 131441, Control_c, 0, 64, 95
1, 131456, Control_c, 0, 64, 98
1, 131462, Note_off_c, 0, 56, 61
1, 131463, Note_off_c, 0, 59, 59
1, 131466, Note_off_c, 0, 83, 64
1, 131471, Control_c, 0, 64, 105
1, 131476, Note_off_c, 0, 51, 31
1, 131484, Note_off_c, 0, 47, 37
1, 131486, Control_c, 0, 64, 113
1, 131501, Control_c, 0, 64, 119
1, 131516, Control_c, 0, 64, 120
1, 131529, Note_on_c, 0, 100, 99
1, 131553, Control_c, 0, 64, 111
1, 131567, Control_c, 0, 64, 95
1, 131578, Note_on_c, 0, 56, 93
1, 131579, Note_on_c, 0, 59, 94
1, 131579, Note_on_c, 0, 47, 86
1, 131579, Note_on_c, 0, 51, 79
1, 131582, Control_c, 0, 64, 75
1, 131586, Note_off_c, 0, 100, 65
1, 131597, Control_c, 0, 64, 47
1, 131610, Note_on_c, 0, 86, 93
1, 131612, Control_c, 0, 64, 0
1, 131628, Control_c, 0, 64, 56
1, 131643, Note_on_c, 0, 94, 52
1, 131643, Control_c, 0, 64, 69
1, 131655, Note_off_c, 0, 86, 66
1, 131657, Control_c, 0, 64, 81
1, 131669, Note_off_c, 0, 94, 47
1, 131672, Control_c, 0, 64, 95
1, 131687, Control_c, 0, 64, 99
1, 131697, Note_on_c, 0, 101, 92
1, 131702, Control_c, 0, 64, 99
1, 131718, Note_off_c, 0, 101, 62
1, 131746, Control_c, 0, 64, 100
1, 131761, Control_c, 0, 64, 100
1, 131770, Note_on_c, 0, 85, 90
1, 131776, Control_c, 0, 64, 101
1, 131788, Note_on_c, 0, 94, 40
1, 131791, Control_c, 0, 64, 101
1, 131806, Control_c, 0, 64, 102
1, 131810, Note_off_c, 0, 94, 55
1, 131821, Control_c, 0, 64, 104
1, 131822, Note_off_c, 0, 85, 64
1, 131836, Control_c, 0, 64, 107
1, 131849, Note_off_c, 0, 59, 57
1, 131850, Note_on_c, 0, 100, 88
1, 131850, Control_c, 0, 64, 110
1, 131851, Note_off_c, 0, 47, 57
1, 131854, Note_off_c, 0, 56, 62
1, 131854, Note_off_c, 0, 51, 57
1, 131865, Control_c, 0, 64, 115
1, 131880, Control_c, 0, 64, 118
1, 131891, Note_on_c, 0, 99, 41
1, 131894, Control_c, 0, 64, 118
1, 131924, Control_c, 0, 64, 113
1, 131925, Note_off_c, 0, 99, 54
1, 131939, Control_c, 0, 64, 99
1, 131940, Note_on_c, 0, 59, 98
1, 131942, Note_on_c, 0, 56, 90
1, 131943, Note_on_c, 0, 47, 89
1, 131946, Note_on_c, 0, 51, 85
1, 131946, Note_on_c, 0, 86, 103
1, 131954, Control_c, 0, 64, 78
1, 131964, Note_on_c, 0, 94, 60
1, 131968, Control_c, 0, 64, 42
1, 131983, Control_c, 0, 64, 0
1, 131985, Note_off_c, 0, 100, 64
1, 131985, Note_off_c, 0, 94, 61
1, 132003, Note_off_c, 0, 86, 54
1, 132013, Control_c, 0, 64, 55
1, 132028, Control_c, 0, 64, 70
1, 132042, Control_c, 0, 64, 82
1, 132047, Note_on_c, 0, 101, 92
1, 132057, Control_c, 0, 64, 90
1, 132072, Control_c, 0, 64, 92
1, 132086, Note_off_c, 0, 101, 63
1, 132087, Control_c, 0, 64, 92
1, 132099, Note_on_c, 0, 100, 20
1, 132101, Control_c, 0, 64, 93
1, 132116, Control_c, 0, 64, 94
1, 132128, Note_off_c, 0, 100, 48
1, 132131, Control_c, 0, 64, 96
1, 132137, Note_on_c, 0, 85, 92
1, 132146, Control_c, 0, 64, 98
1, 132161, Control_c, 0, 64, 100
1, 132172, Note_on_c, 0, 94, 39
1, 132176, Control_c, 0, 64, 100
1, 132191, Control_c, 0, 64, 101
1, 132200, Note_off_c, 0, 85, 63
1, 132202, Note_off_c, 0, 51, 49
1, 132205, Control_c, 0, 64, 101
1, 132211, Note_off_c, 0, 94, 39
1, 132217, Note_off_c, 0, 47, 44
1, 132219, Note_on_c, 0, 100, 87
1, 132223, Note_off_c, 0, 56, 60
1, 132224, Note_off_c, 0, 59, 60
1, 132235, Control_c, 0, 64, 102
1, 132250, Control_c, 0, 64, 104
1, 132265, Control_c, 0, 64, 109
1, 132280, Control_c, 0, 64, 117
1, 132301, Control_c, 0, 64, 127
1, 132329, Note_on_c, 0, 56, 97
1, 132329, Note_on_c, 0, 59, 102
1, 132331, Control_c, 0, 64, 119
1, 132332, Note_on_c, 0, 51, 82
1, 132333, Note_on_c, 0, 47, 92
1, 132333, Note_on_c, 0, 86, 102
1, 132346, Control_c, 0, 64, 94
1, 132357, Note_on_c, 0, 94, 54
1, 132361, Control_c, 0, 64, 69
1, 132375, Control_c, 0, 64, 0
1, 132384, Note_off_c, 0, 86, 61
1, 132392, Note_off_c, 0, 94, 62
1, 132434, Note_on_c, 0, 101, 95
1, 132436, Control_c, 0, 64, 70
1, 132451, Control_c, 0, 64, 83
1, 132466, Control_c, 0, 64, 98
1, 132473, Note_off_c, 0, 100, 0
1, 132480, Control_c, 0, 64, 104
1, 132483, Note_off_c, 0, 101, 64
1, 132495, Control_c, 0, 64, 106
1, 132510, Control_c, 0, 64, 108
1, 132511, Poly_aftertouch_c, 0, 100, 0
1, 132524, Control_c, 0, 64, 110
1, 132534, Note_on_c, 0, 85, 87
1, 132539, Control_c, 0, 64, 111
1, 132554, Control_c, 0, 64, 113
1, 132569, Control_c, 0, 64, 114
1, 132584, Control_c, 0, 64, 115
1, 132598, Note_off_c, 0, 85, 63
1, 132599, Control_c, 0, 64, 115
1, 132614, Control_c, 0, 64, 116
1, 132623, Note_on_c, 0, 100, 82
1, 132629, Control_c, 0, 64, 116
1, 132663, Note_on_c, 0, 99, 37
1, 132673, Control_c, 0, 64, 117
1, 132694, Note_off_c, 0, 99, 43
1, 132695, Note_off_c, 0, 100, 60
1, 132717, Control_c, 0, 64, 117
1, 132718, Note_on_c, 0, 86, 88
1, 132747, Control_c, 0, 64, 118
1, 132762, Control_c, 0, 64, 118
1, 132777, Control_c, 0, 64, 119
1, 132791, Control_c, 0, 64, 120
1, 132793, Note_on_c, 0, 92, 91
1, 132797, Note_off_c, 0, 86, 59
1, 132806, Control_c, 0, 64, 122
1, 132821, Control_c, 0, 64, 126
1, 132836, Control_c, 0, 64, 127
1, 132871, Note_on_c, 0, 95, 94
1, 132880, Note_off_c, 0, 92, 65
1, 132914, Note_off_c, 0, 95, 66
1, 132971, Note_on_c, 0, 96, 85
1, 132971, Note_on_c, 0, 98, 85
1, 133126, Note_off_c, 0, 96, 64
1, 133148, Note_on_c, 0, 103, 111
1, 133199, Note_off_c, 0, 98, 28
1, 133332, Note_on_c, 0, 102, 93
1, 133359, Note_off_c, 0, 103, 62
1, 133436, Note_on_c, 0, 98, 80
1, 133458, Note_off_c, 0, 102, 63
1, 133523, Note_on_c, 0, 96, 81
1, 133537, Note_off_c, 0, 98, 60
1, 133591, Note_on_c, 0, 102, 80
1, 133608, Note_off_c, 0, 96, 60
1, 133655, Note_on_c, 0, 101, 81
1, 133682, Note_off_c, 0, 102, 61
1, 133722, Note_on_c, 0, 98, 75
1, 133733, Note_off_c, 0, 101, 65
1, 133770, Note_on_c, 0, 96, 72
1, 133771, Note_off_c, 0, 98, 65
1, 133809, Note_off_c, 0, 96, 62
1, 133838, Note_on_c, 0, 101, 85
1, 133887, Note_on_c, 0, 100, 81
1, 133918, Note_off_c, 0, 101, 64
1, 133958, Note_on_c, 0, 96, 70
1, 133974, Note_off_c, 0, 100, 65
1, 134005, Note_on_c, 0, 92, 72
1, 134005, Note_off_c, 0, 96, 64
1, 134057, Note_on_c, 0, 100, 77
1, 134060, Note_off_c, 0, 92, 58
1, 134073, Note_on_c, 0, 99, 67
1, 134112, Note_off_c, 0, 100, 65
1, 134120, Note_on_c, 0, 96, 72
1, 134132, Note_off_c, 0, 99, 67
1, 134160, Note_off_c, 0, 96, 63
1, 134170, Note_on_c, 0, 92, 69
1, 134222, Note_on_c, 0, 99, 78
1, 134223, Note_off_c, 0, 92, 58
1, 134244, Note_on_c, 0, 98, 67
1, 134304, Note_on_c, 0, 92, 79
1, 134304, Note_off_c, 0, 98, 64
1, 134305, Note_off_c, 0, 99, 67
1, 134356, Note_off_c, 0, 92, 65
1, 134375, Note_on_c, 0, 89, 69
1, 134413, Note_on_c, 0, 98, 78
1, 134429, Note_off_c, 0, 89, 60
1, 134438, Note_on_c, 0, 97, 64
1, 134471, Note_off_c, 0, 97, 63
1, 134476, Note_off_c, 0, 98, 65
1, 134481, Note_on_c, 0, 92, 74
1, 134515, Note_on_c, 0, 89, 63
1, 134545, Note_off_c, 0, 92, 60
1, 134575, Note_on_c, 0, 97, 67
1, 134587, Note_on_c, 0, 96, 68
1, 134597, Note_off_c, 0, 89, 62
1, 134645, Note_off_c, 0, 96, 63
1, 134648, Note_on_c, 0, 92, 79
1, 134650, Note_off_c, 0, 97, 66
1, 134693, Note_on_c, 0, 89, 63
1, 134700, Note_off_c, 0, 92, 64
1, 134751, Note_on_c, 0, 96, 66
1, 134754, Note_off_c, 0, 89, 60
1, 134760, Note_on_c, 0, 95, 62
1, 134791, Note_off_c, 0, 95, 67
1, 134797, Note_off_c, 0, 96, 64
1, 134799, Note_on_c, 0, 92, 69
1, 134819, Note_on_c, 0, 89, 56
1, 134833, Note_off_c, 0, 92, 62
1, 134848, Note_off_c, 0, 89, 67
1, 134879, Note_on_c, 0, 95, 69
1, 134899, Note_on_c, 0, 94, 66
1, 134930, Note_off_c, 0, 95, 64
1, 134932, Note_off_c, 0, 94, 63
1, 134945, Note_on_c, 0, 89, 65
1, 134980, Note_off_c, 0, 89, 61
1, 134981, Note_on_c, 0, 86, 58
1, 135013, Note_on_c, 0, 94, 78
1, 135031, Note_off_c, 0, 86, 41
1, 135054, Note_on_c, 0, 93, 68
1, 135079, Note_off_c, 0, 94, 62
1, 135099, Note_on_c, 0, 89, 73
1, 135104, Note_off_c, 0, 93, 63
1, 135126, Note_off_c, 0, 89, 65
1, 135138, Note_on_c, 0, 86, 56
1, 135164, Note_off_c, 0, 86, 55
1, 135186, Note_on_c, 0, 93, 69
1, 135190, Note_on_c, 0, 92, 70
1, 135212, Note_off_c, 0, 93, 66
1, 135222, Note_off_c, 0, 92, 61
1, 135235, Note_on_c, 0, 89, 59
1, 135251, Note_on_c, 0, 86, 69
1, 135254, Note_off_c, 0, 89, 63
1, 135291, Note_off_c, 0, 86, 62
1, 135316, Note_on_c, 0, 92, 86
1, 135384, Note_off_c, 0, 92, 65
1, 135388, Note_on_c, 0, 86, 73
1, 135418, Note_on_c, 0, 83, 52
1, 135425, Note_off_c, 0, 86, 54
1, 135446, Note_off_c, 0, 83, 55
1, 135472, Note_on_c, 0, 91, 76
1, 135479, Note_on_c, 0, 90, 72
1, 135520, Note_off_c, 0, 91, 59
1, 135523, Note_off_c, 0, 90, 58
1, 135545, Note_on_c, 0, 86, 73
1, 135554, Note_on_c, 0, 83, 56
1, 135610, Note_on_c, 0, 90, 73
1, 135610, Note_off_c, 0, 86, 59
1, 135611, Note_off_c, 0, 83, 49
1, 135614, Note_on_c, 0, 89, 76
1, 135654, Note_off_c, 0, 90, 64
1, 135681, Note_on_c, 0, 86, 60
1, 135684, Note_off_c, 0, 89, 64
1, 135705, Note_on_c, 0, 83, 59
1, 135714, Note_off_c, 0, 86, 65
1, 135725, Note_off_c, 0, 83, 60
1, 135755, Note_on_c, 0, 89, 75
1, 135791, Note_on_c, 0, 88, 60
1, 135820, Note_off_c, 0, 88, 66
1, 135823, Note_off_c, 0, 89, 65
1, 135831, Note_on_c, 0, 84, 69
1, 135860, Note_off_c, 0, 84, 67
1, 135875, Note_on_c, 0, 80, 54
1, 135908, Note_on_c, 0, 88, 73
1, 135930, Note_on_c, 0, 87, 65
1, 135930, Note_off_c, 0, 80, 51
1, 135955, Note_off_c, 0, 88, 61
1, 135960, Note_off_c, 0, 87, 63
1, 135973, Note_on_c, 0, 84, 58
1, 135991, Note_on_c, 0, 80, 57
1, 135991, Note_off_c, 0, 84, 64
1, 136054, Note_off_c, 0, 80, 63
1, 136062, Note_on_c, 0, 87, 71
1, 136069, Note_on_c, 0, 86, 67
1, 136105, Note_off_c, 0, 86, 58
1, 136113, Note_on_c, 0, 80, 67
1, 136116, Note_off_c, 0, 87, 63
1, 136161, Note_on_c, 0, 77, 63
1, 136164, Note_off_c, 0, 80, 64
1, 136195, Note_off_c, 0, 77, 52
1, 136211, Note_on_c, 0, 86, 73
1, 136220, Note_on_c, 0, 85, 68
1, 136250, Note_off_c, 0, 86, 60
1, 136256, Note_off_c, 0, 85, 59
1, 136283, Note_on_c, 0, 80, 64
1, 136298, Note_on_c, 0, 77, 64
1, 136331, Note_off_c, 0, 80, 59
1, 136348, Note_on_c, 0, 85, 69
1, 136356, Note_on_c, 0, 84, 70
1, 136359, Note_off_c, 0, 77, 58
1, 136406, Note_off_c, 0, 85, 62
1, 136413, Note_off_c, 0, 84, 63
1, 136417, Note_on_c, 0, 80, 75
1, 136441, Note_on_c, 0, 77, 57
1, 136453, Note_off_c, 0, 80, 56
1, 136480, Note_off_c, 0, 77, 55
1, 136504, Note_on_c, 0, 84, 66
1, 136511, Note_on_c, 0, 83, 59
1, 136534, Note_off_c, 0, 83, 62
1, 136537, Note_off_c, 0, 84, 64
1, 136541, Note_on_c, 0, 80, 64
1, 136570, Note_off_c, 0, 80, 67
1, 136574, Note_on_c, 0, 77, 49
1, 136597, Note_off_c, 0, 77, 51
1, 136624, Note_on_c, 0, 83, 54
1, 136629, Note_on_c, 0, 82, 69
1, 136660, Note_off_c, 0, 83, 63
1, 136675, Note_off_c, 0, 82, 63
1, 136677, Note_on_c, 0, 77, 68
1, 136711, Note_on_c, 0, 74, 59
1, 136711, Note_off_c, 0, 77, 57
1, 136739, Note_on_c, 0, 82, 69
1, 136761, Note_off_c, 0, 74, 62
1, 136797, Note_on_c, 0, 81, 68
1, 136804, Note_off_c, 0, 82, 60
1, 136826, Note_on_c, 0, 77, 74
1, 136830, Note_off_c, 0, 81, 62
1, 136863, Note_off_c, 0, 77, 57
1, 136868, Note_on_c, 0, 74, 60
1, 136907, Note_off_c, 0, 74, 50
1, 136912, Note_on_c, 0, 81, 69
1, 136921, Note_on_c, 0, 80, 68
1, 136939, Note_off_c, 0, 81, 65
1, 136952, Note_off_c, 0, 80, 64
1, 136978, Note_on_c, 0, 74, 66
1, 136978, Note_on_c, 0, 77, 31
1, 137005, Note_off_c, 0, 74, 70
1, 137009, Note_off_c, 0, 77, 33
1, 137037, Note_on_c, 0, 80, 87
1, 137101, Note_off_c, 0, 80, 63
1, 137109, Note_on_c, 0, 74, 51
1, 137118, Note_off_c, 0, 56, 55
1, 137130, Note_on_c, 0, 71, 57
1, 137136, Note_off_c, 0, 51, 52
1, 137137, Note_off_c, 0, 74, 61
1, 137144, Note_off_c, 0, 59, 56
1, 137161, Note_off_c, 0, 71, 63
1, 137173, Note_off_c, 0, 47, 49
1, 137193, Note_on_c, 0, 78, 72
1, 137195, Note_on_c, 0, 79, 65
1, 137224, Note_off_c, 0, 79, 63
1, 137243, Note_off_c, 0, 78, 62
1, 137259, Note_on_c, 0, 74, 66
1, 137267, Note_on_c, 0, 71, 55
1, 137306, Note_off_c, 0, 71, 53
1, 137327, Note_on_c, 0, 78, 67
1, 137330, Note_on_c, 0, 77, 73
1, 137331, Note_off_c, 0, 74, 61
1, 137372, Note_off_c, 0, 78, 62
1, 137390, Note_on_c, 0, 74, 43
1, 137391, Note_off_c, 0, 77, 60
1, 137413, Note_on_c, 0, 71, 58
1, 137424, Note_off_c, 0, 74, 67
1, 137433, Note_off_c, 0, 71, 61
1, 137466, Note_on_c, 0, 77, 72
1, 137504, Note_on_c, 0, 76, 54
1, 137540, Note_off_c, 0, 76, 65
1, 137545, Note_off_c, 0, 77, 61
1, 137558, Note_on_c, 0, 72, 69
1, 137586, Note_off_c, 0, 72, 65
1, 137594, Note_on_c, 0, 68, 54
1, 137637, Note_on_c, 0, 76, 55
1, 137655, Note_off_c, 0, 68, 49
1, 137669, Note_on_c, 0, 75, 44
1, 137680, Note_off_c, 0, 76, 66
1, 137690, Note_on_c, 0, 72, 65
1, 137693, Note_off_c, 0, 75, 60
1, 137714, Note_on_c, 0, 68, 56
1, 137720, Note_off_c, 0, 72, 67
1, 137774, Note_off_c, 0, 68, 63
1, 137775, Note_on_c, 0, 75, 69
1, 137791, Note_on_c, 0, 74, 65
1, 137827, Note_off_c, 0, 74, 56
1, 137850, Note_on_c, 0, 68, 70
1, 137851, Note_off_c, 0, 75, 62
1, 137887, Note_on_c, 0, 65, 63
1, 137887, Note_off_c, 0, 68, 65
1, 137938, Note_on_c, 0, 74, 68
1, 137944, Note_off_c, 0, 65, 44
1, 137950, Note_on_c, 0, 73, 66
1, 137982, Note_off_c, 0, 73, 62
1, 137988, Note_off_c, 0, 74, 61
1, 138006, Note_on_c, 0, 68, 67
1, 138020, Note_on_c, 0, 65, 63
1, 138056, Note_off_c, 0, 68, 60
1, 138082, Note_on_c, 0, 73, 62
1, 138086, Note_on_c, 0, 72, 66
1, 138087, Note_off_c, 0, 65, 63
1, 138127, Note_off_c, 0, 72, 54
1, 138147, Note_on_c, 0, 68, 71
1, 138148, Note_off_c, 0, 73, 60
1, 138161, Note_on_c, 0, 65, 60
1, 138184, Note_off_c, 0, 68, 62
1, 138196, Note_off_c, 0, 65, 62
1, 138230, Note_on_c, 0, 72, 69
1, 138254, Note_on_c, 0, 71, 46
1, 138262, Note_off_c, 0, 72, 61
1, 138285, Note_on_c, 0, 68, 53
1, 138286, Note_off_c, 0, 71, 52
1, 138308, Note_off_c, 0, 68, 62
1, 138311, Note_on_c, 0, 65, 46
1, 138331, Note_off_c, 0, 65, 61
1, 138355, Note_on_c, 0, 71, 66
1, 138364, Note_on_c, 0, 70, 63
1, 138397, Note_off_c, 0, 71, 60
1, 138406, Note_on_c, 0, 65, 73
1, 138430, Note_off_c, 0, 70, 45
1, 138444, Note_off_c, 0, 65, 62
1, 138455, Control_c, 0, 64, 125
1, 138458, Note_on_c, 0, 62, 66
1, 138469, Control_c, 0, 64, 112
1, 138484, Control_c, 0, 64, 104
1, 138490, Note_off_c, 0, 62, 61
1, 138499, Control_c, 0, 64, 96
1, 138514, Control_c, 0, 64, 88
1, 138528, Note_on_c, 0, 61, 72
1, 138529, Control_c, 0, 64, 79
1, 138543, Control_c, 0, 64, 69
1, 138556, Note_off_c, 0, 61, 66
1, 138558, Control_c, 0, 64, 10
1, 138566, Note_on_c, 0, 62, 72
1, 138573, Control_c, 0, 64, 0
1, 138596, Note_off_c, 0, 62, 64
1, 138633, Note_on_c, 0, 65, 75
1, 138656, Note_off_c, 0, 65, 69
1, 138660, Note_on_c, 0, 68, 57
1, 138699, Note_on_c, 0, 69, 57
1, 138722, Note_on_c, 0, 70, 68
1, 138732, Note_off_c, 0, 68, 61
1, 138735, Note_off_c, 0, 69, 67
1, 138763, Note_off_c, 0, 70, 64
1, 138771, Note_on_c, 0, 71, 67
1, 138797, Note_off_c, 0, 71, 66
1, 138820, Note_on_c, 0, 74, 67
1, 138844, Note_off_c, 0, 74, 70
1, 138859, Note_on_c, 0, 77, 60
1, 138880, Note_off_c, 0, 77, 60
1, 138922, Note_on_c, 0, 80, 47
1, 138923, Note_off_c, 0, 80, 127
1, 138954, Note_on_c, 0, 81, 79
1, 138981, Note_off_c, 0, 81, 64
1, 138988, Note_on_c, 0, 82, 71
1, 139017, Note_off_c, 0, 82, 67
1, 139044, Note_on_c, 0, 83, 61
1, 139064, Note_off_c, 0, 83, 64
1, 139081, Note_on_c, 0, 86, 56
1, 139102, Note_off_c, 0, 86, 63
1, 139103, Note_on_c, 0, 89, 72
1, 139133, Note_off_c, 0, 89, 63
1, 139151, Note_on_c, 0, 92, 73
1, 139164, Note_off_c, 0, 92, 65
1, 139208, Note_on_c, 0, 93, 71
1, 139227, Note_on_c, 0, 94, 88
1, 139228, Note_off_c, 0, 93, 62
1, 139248, Control_c, 0, 64, 18
1, 139263, Control_c, 0, 64, 24
1, 139264, Note_off_c, 0, 94, 66
1, 139266, Note_on_c, 0, 95, 75
1, 139292, Control_c, 0, 64, 21
1, 139297, Note_off_c, 0, 95, 65
1, 139307, Control_c, 0, 64, 17
1, 139322, Note_on_c, 0, 98, 91
1, 139322, Control_c, 0, 64, 13
1, 139337, Control_c, 0, 64, 10
1, 139363, Note_on_c, 0, 96, 68
1, 139366, Control_c, 0, 64, 0
1, 139367, Note_off_c, 0, 98, 66
1, 139385, Note_off_c, 0, 96, 62
1, 139424, Note_on_c, 0, 93, 64
1, 139449, Note_off_c, 0, 93, 63
1, 139476, Note_on_c, 0, 96, 69
1, 139506, Note_off_c, 0, 96, 61
1, 139532, Note_on_c, 0, 94, 55
1, 139553, Note_off_c, 0, 94, 64
1, 139562, Note_on_c, 0, 91, 63
1, 139589, Note_off_c, 0, 91, 65
1, 139627, Note_on_c, 0, 94, 71
1, 139656, Note_off_c, 0, 94, 63
1, 139667, Note_on_c, 0, 92, 71
1, 139693, Note_off_c, 0, 92, 66
1, 139706, Note_on_c, 0, 88, 60
1, 139726, Note_off_c, 0, 88, 62
1, 139768, Note_on_c, 0, 91, 67
1, 139799, Note_on_c, 0, 89, 57
1, 139803, Note_off_c, 0, 91, 55
1, 139822, Note_off_c, 0, 89, 62
1, 139854, Note_on_c, 0, 85, 66
1, 139897, Note_off_c, 0, 85, 53
1, 139911, Note_on_c, 0, 87, 74
1, 139965, Note_off_c, 0, 87, 59
1, 139971, Note_on_c, 0, 86, 69
1, 139989, Note_off_c, 0, 86, 66
1, 140003, Note_on_c, 0, 83, 54
1, 140028, Note_off_c, 0, 83, 59
1, 140054, Note_on_c, 0, 86, 74
1, 140105, Note_off_c, 0, 86, 62
1, 140124, Note_on_c, 0, 84, 65
1, 140142, Note_off_c, 0, 84, 66
1, 140145, Note_on_c, 0, 81, 65
1, 140185, Note_off_c, 0, 81, 60
1, 140218, Note_on_c, 0, 84, 71
1, 140264, Note_off_c, 0, 84, 61
1, 140279, Note_on_c, 0, 82, 66
1, 140305, Note_off_c, 0, 82, 66
1, 140309, Note_on_c, 0, 79, 57
1, 140341, Note_off_c, 0, 79, 58
1, 140370, Note_on_c, 0, 82, 70
1, 140427, Note_off_c, 0, 82, 63
1, 140430, Note_on_c, 0, 80, 70
1, 140457, Note_off_c, 0, 80, 66
1, 140474, Note_on_c, 0, 76, 55
1, 140500, Note_off_c, 0, 76, 67
1, 140546, Note_on_c, 0, 79, 74
1, 140576, Note_on_c, 0, 77, 54
1, 140597, Note_off_c, 0, 79, 60
1, 140600, Note_off_c, 0, 77, 58
1, 140628, Note_on_c, 0, 73, 69
1, 140674, Note_off_c, 0, 73, 52
1, 140694, Note_on_c, 0, 75, 72
1, 140742, Note_off_c, 0, 75, 62
1, 140747, Note_on_c, 0, 74, 67
1, 140773, Note_off_c, 0, 74, 70
1, 140788, Note_on_c, 0, 71, 54
1, 140820, Note_off_c, 0, 71, 60
1, 140848, Note_on_c, 0, 74, 70
1, 140890, Note_off_c, 0, 74, 63
1, 140908, Note_on_c, 0, 72, 62
1, 140925, Note_off_c, 0, 72, 64
1, 140936, Note_on_c, 0, 69, 53
1, 140975, Note_off_c, 0, 69, 65
1, 141006, Note_on_c, 0, 72, 63
1, 141040, Note_off_c, 0, 72, 64
1, 141065, Note_on_c, 0, 70, 60
1, 141089, Note_off_c, 0, 70, 63
1, 141109, Note_on_c, 0, 67, 52
1, 141149, Note_off_c, 0, 67, 62
1, 141171, Note_on_c, 0, 70, 68
1, 141224, Note_off_c, 0, 70, 61
1, 141234, Note_on_c, 0, 68, 67
1, 141267, Note_off_c, 0, 68, 63
1, 141302, Note_on_c, 0, 64, 63
1, 141330, Note_off_c, 0, 64, 67
1, 141370, Note_on_c, 0, 67, 66
1, 141413, Note_off_c, 0, 67, 54
1, 141430, Note_on_c, 0, 65, 54
1, 141470, Note_off_c, 0, 65, 66
1, 141506, Note_on_c, 0, 61, 57
1, 141554, Note_off_c, 0, 61, 54
1, 141600, Note_on_c, 0, 63, 53
1, 141649, Note_off_c, 0, 63, 60
1, 141670, Note_on_c, 0, 62, 50
1, 141735, Note_off_c, 0, 62, 54
1, 141766, Note_on_c, 0, 59, 35
1, 141891, Note_off_c, 0, 59, 43
1, 141899, Note_on_c, 0, 62, 50
1, 141974, Note_off_c, 0, 62, 59
1, 142003, Note_on_c, 0, 60, 46
1, 142159, Note_off_c, 0, 60, 61
1, 142180, Note_on_c, 0, 57, 33
1, 142342, Note_off_c, 0, 57, 55
1, 142352, Note_on_c, 0, 58, 54
1, 142408, Note_off_c, 0, 58, 63
1, 142430, Note_on_c, 0, 60, 54
1, 142472, Note_off_c, 0, 60, 60
1, 142493, Note_on_c, 0, 58, 50
1, 142525, Note_off_c, 0, 58, 66
1, 142544, Note_on_c, 0, 57, 46
1, 142572, Note_off_c, 0, 57, 53
1, 142604, Note_on_c, 0, 58, 66
1, 142635, Note_off_c, 0, 58, 68
1, 142681, Note_on_c, 0, 62, 66
1, 142711, Note_off_c, 0, 62, 64
1, 142901, Note_on_c, 0, 53, 38
1, 143089, Note_off_c, 0, 53, 40
1, 143107, Note_on_c, 0, 62, 72
1, 143108, Note_on_c, 0, 46, 44
1, 143260, Note_off_c, 0, 46, 50
1, 143274, Note_on_c, 0, 39, 40
1, 143389, Note_off_c, 0, 62, 50
1, 143405, Note_on_c, 0, 60, 65
1, 143435, Note_off_c, 0, 60, 66
1, 143545, Note_off_c, 0, 39, 38
1, 143562, Note_on_c, 0, 53, 42
1, 143682, Note_off_c, 0, 53, 42
1, 143685, Note_on_c, 0, 60, 75
1, 143698, Note_on_c, 0, 46, 50
1, 143797, Note_off_c, 0, 46, 57
1, 143826, Note_on_c, 0, 39, 37
1, 143950, Note_on_c, 0, 55, 64
1, 143961, Note_off_c, 0, 60, 57
1, 143980, Note_off_c, 0, 55, 66
1, 144072, Note_on_c, 0, 51, 43
1, 144149, Note_off_c, 0, 39, 50
1, 144178, Note_off_c, 0, 51, 54
1, 144197, Note_on_c, 0, 58, 69
1, 144199, Note_on_c, 0, 46, 50
1, 144224, Note_off_c, 0, 58, 69
1, 144263, Note_off_c, 0, 46, 55
1, 144320, Note_on_c, 0, 39, 14
1, 144423, Note_on_c, 0, 60, 64
1, 144442, Note_on_c, 0, 58, 76
1, 144453, Note_off_c, 0, 60, 62
1, 144467, Note_off_c, 0, 58, 69
1, 144570, Note_on_c, 0, 51, 38
1, 144621, Note_off_c, 0, 39, 34
1, 144646, Note_on_c, 0, 57, 65
1, 144660, Note_off_c, 0, 51, 52
1, 144674, Note_on_c, 0, 58, 74
1, 144675, Note_off_c, 0, 57, 64
1, 144691, Note_on_c, 0, 46, 43
1, 144696, Note_off_c, 0, 58, 69
1, 144796, Note_on_c, 0, 39, 37
1, 144815, Note_off_c, 0, 46, 35
1, 144931, Note_on_c, 0, 53, 78
1, 144959, Note_off_c, 0, 53, 68
1, 145050, Note_on_c, 0, 55, 73
1, 145054, Note_on_c, 0, 50, 49
1, 145065, Note_off_c, 0, 39, 40
1, 145083, Note_off_c, 0, 55, 64
1, 145139, Note_off_c, 0, 50, 56
1, 145163, Note_on_c, 0, 56, 72
1, 145172, Note_on_c, 0, 46, 50
1, 145193, Note_off_c, 0, 56, 63
1, 145252, Note_off_c, 0, 46, 50
1, 145280, Note_on_c, 0, 39, 43
1, 145280, Note_on_c, 0, 60, 72
1, 145308, Note_off_c, 0, 60, 66
1, 145384, Note_on_c, 0, 58, 76
1, 145413, Note_off_c, 0, 58, 65
1, 145491, Note_on_c, 0, 56, 69
1, 145497, Note_on_c, 0, 50, 48
1, 145497, Note_off_c, 0, 39, 41
1, 145518, Note_off_c, 0, 56, 66
1, 145569, Note_off_c, 0, 50, 49
1, 145589, Note_on_c, 0, 55, 76
1, 145610, Note_on_c, 0, 46, 49
1, 145634, Note_off_c, 0, 55, 66
1, 145680, Note_off_c, 0, 46, 51
1, 145703, Note_on_c, 0, 53, 69
1, 145709, Note_on_c, 0, 39, 42
1, 145750, Note_off_c, 0, 53, 64
1, 145792, Note_off_c, 0, 39, 56
1, 145795, Note_on_c, 0, 57, 75
1, 145814, Note_on_c, 0, 58, 85
1, 145819, Note_off_c, 0, 57, 67
1, 145837, Note_off_c, 0, 58, 69
1, 145931, Note_on_c, 0, 55, 49
1, 145995, Note_off_c, 0, 55, 56
1, 146055, Note_on_c, 0, 58, 80
1, 146056, Note_on_c, 0, 46, 50
1, 146091, Note_off_c, 0, 58, 64
1, 146156, Note_on_c, 0, 39, 48
1, 146185, Note_off_c, 0, 46, 36
1, 146213, Note_on_c, 0, 58, 68
1, 146225, Note_on_c, 0, 60, 75
1, 146234, Note_off_c, 0, 58, 66
1, 146260, Note_off_c, 0, 60, 59
1, 146261, Note_off_c, 0, 39, 60
1, 146287, Note_on_c, 0, 58, 91
1, 146323, Note_off_c, 0, 58, 63
1, 146409, Note_on_c, 0, 55, 48
1, 146458, Note_on_c, 0, 57, 67
1, 146458, Note_off_c, 0, 55, 59
1, 146510, Note_on_c, 0, 58, 76
1, 146511, Note_off_c, 0, 57, 57
1, 146529, Note_on_c, 0, 46, 54
1, 146699, Note_on_c, 0, 39, 28
1, 146731, Note_off_c, 0, 46, 37
1, 146737, Note_on_c, 0, 62, 74
1, 146751, Note_off_c, 0, 58, 60
1, 146761, Note_off_c, 0, 62, 66
1, 146840, Note_off_c, 0, 39, 45
1, 146860, Note_on_c, 0, 53, 41
1, 146944, Note_off_c, 0, 53, 63
1, 146974, Note_on_c, 0, 46, 50
1, 146979, Note_on_c, 0, 62, 89
1, 147098, Note_off_c, 0, 46, 48
1, 147119, Note_on_c, 0, 39, 33
1, 147217, Note_off_c, 0, 62, 58
1, 147218, Note_on_c, 0, 60, 71
1, 147245, Note_off_c, 0, 60, 64
1, 147326, Note_off_c, 0, 39, 38
1, 147353, Note_on_c, 0, 53, 38
1, 147435, Note_off_c, 0, 53, 62
1, 147458, Note_on_c, 0, 60, 83
1, 147465, Note_on_c, 0, 46, 51
1, 147551, Note_off_c, 0, 46, 57
1, 147579, Note_on_c, 0, 39, 40
1, 147695, Note_on_c, 0, 55, 67
1, 147706, Note_off_c, 0, 60, 60
1, 147726, Note_off_c, 0, 55, 65
1, 147796, Note_on_c, 0, 51, 45
1, 147856, Note_off_c, 0, 39, 39
1, 147894, Note_off_c, 0, 51, 58
1, 147910, Note_on_c, 0, 46, 50
1, 147913, Note_on_c, 0, 58, 75
1, 147942, Note_off_c, 0, 58, 64
1, 148001, Note_off_c, 0, 46, 56
1, 148025, Note_on_c, 0, 39, 36
1, 148106, Note_on_c, 0, 60, 73
1, 148139, Note_on_c, 0, 58, 71
1, 148139, Note_off_c, 0, 60, 64
1, 148165, Note_off_c, 0, 58, 68
1, 148272, Note_on_c, 0, 51, 46
1, 148312, Note_off_c, 0, 39, 43
1, 148316, Note_on_c, 0, 57, 71
1, 148365, Note_off_c, 0, 57, 50
1, 148378, Note_off_c, 0, 51, 54
1, 148383, Note_on_c, 0, 46, 53
1, 148385, Note_on_c, 0, 58, 74
1, 148412, Note_off_c, 0, 58, 69
1, 148523, Note_on_c, 0, 39, 53
1, 148528, Note_off_c, 0, 46, 54
1, 148675, Note_on_c, 0, 53, 80
1, 148714, Note_off_c, 0, 53, 68
1, 148841, Note_on_c, 0, 55, 81
1, 148841, Note_off_c, 0, 39, 56
1, 148853, Note_on_c, 0, 50, 48
1, 148877, Note_off_c, 0, 55, 62
1, 148908, Note_off_c, 0, 50, 58
1, 148942, Note_on_c, 0, 46, 52
1, 148955, Note_on_c, 0, 56, 80
1, 148985, Note_off_c, 0, 56, 67
1, 149027, Note_off_c, 0, 46, 57
1, 149053, Note_on_c, 0, 39, 50
1, 149062, Note_on_c, 0, 60, 83
1, 149098, Note_off_c, 0, 60, 62
1, 149167, Note_on_c, 0, 58, 77
1, 149197, Note_off_c, 0, 58, 65
1, 149231, Note_off_c, 0, 39, 50
1, 149261, Note_on_c, 0, 56, 82
1, 149270, Note_on_c, 0, 50, 48
1, 149291, Note_off_c, 0, 56, 63
1, 149320, Note_off_c, 0, 50, 58
1, 149355, Note_on_c, 0, 46, 54
1, 149357, Note_on_c, 0, 55, 83
1, 149391, Note_off_c, 0, 55, 63
1, 149453, Note_off_c, 0, 46, 60
1, 149455, Note_on_c, 0, 53, 80
1, 149486, Note_on_c, 0, 39, 46
1, 149494, Note_off_c, 0, 53, 67
1, 149552, Note_on_c, 0, 55, 87
1, 149587, Note_off_c, 0, 55, 68
1, 149642, Note_off_c, 0, 39, 54
1, 149664, Note_on_c, 0, 46, 55
1, 149870, Note_off_c, 0, 46, 60
1, 149879, Control_c, 0, 64, 40
1, 149887, Note_on_c, 0, 51, 94
1, 149893, Note_on_c, 0, 39, 51
1, 149893, Control_c, 0, 64, 57
1, 149908, Control_c, 0, 64, 64
1, 149923, Control_c, 0, 64, 69
1, 149938, Control_c, 0, 64, 76
1, 149953, Control_c, 0, 64, 84
1, 149967, Control_c, 0, 64, 90
1, 149983, Control_c, 0, 64, 93
1, 149998, Control_c, 0, 64, 97
1, 150013, Control_c, 0, 64, 100
1, 150028, Control_c, 0, 64, 101
1, 150042, Control_c, 0, 64, 102
1, 150057, Control_c, 0, 64, 103
1, 150077, Note_on_c, 0, 46, 50
1, 150099, Note_off_c, 0, 51, 66
1, 150115, Note_off_c, 0, 46, 61
1, 150217, Note_off_c, 0, 39, 57
1, 150242, Note_on_c, 0, 46, 47
1, 150286, Control_c, 0, 64, 102
1, 150301, Control_c, 0, 64, 102
1, 150315, Control_c, 0, 64, 101
1, 150330, Control_c, 0, 64, 98
1, 150345, Control_c, 0, 64, 95
1, 150347, Note_on_c, 0, 54, 69
1, 150360, Control_c, 0, 64, 91
1, 150363, Note_off_c, 0, 46, 47
1, 150365, Note_on_c, 0, 39, 56
1, 150375, Control_c, 0, 64, 87
1, 150389, Control_c, 0, 64, 84
1, 150393, Note_off_c, 0, 54, 61
1, 150404, Control_c, 0, 64, 81
1, 150413, Note_on_c, 0, 55, 76
1, 150419, Control_c, 0, 64, 77
1, 150434, Control_c, 0, 64, 71
1, 150449, Control_c, 0, 64, 62
1, 150463, Control_c, 0, 64, 0
1, 150472, Note_off_c, 0, 55, 63
1, 150474, Note_on_c, 0, 57, 75
1, 150513, Note_on_c, 0, 46, 37
1, 150526, Note_on_c, 0, 58, 72
1, 150540, Note_off_c, 0, 39, 50
1, 150561, Note_off_c, 0, 57, 57
1, 150582, Note_on_c, 0, 62, 86
1, 150599, Note_off_c, 0, 58, 65
1, 150627, Note_off_c, 0, 62, 61
1, 150765, Note_on_c, 0, 53, 45
1, 150822, Note_off_c, 0, 46, 41
1, 150925, Note_on_c, 0, 62, 85
1, 150957, Note_on_c, 0, 46, 44
1, 150976, Note_off_c, 0, 53, 37
1, 151119, Note_on_c, 0, 39, 36
1, 151130, Note_off_c, 0, 46, 36
1, 151181, Note_off_c, 0, 62, 56
1, 151192, Note_on_c, 0, 60, 68
1, 151222, Note_off_c, 0, 60, 63
1, 151296, Note_off_c, 0, 39, 42
1, 151314, Note_on_c, 0, 53, 45
1, 151419, Note_off_c, 0, 53, 47
1, 151438, Note_on_c, 0, 50, 48
1, 151440, Note_on_c, 0, 60, 78
1, 151537, Note_off_c, 0, 50, 60
1, 151576, Note_on_c, 0, 39, 53
1, 151686, Note_on_c, 0, 55, 69
1, 151701, Note_off_c, 0, 60, 59
1, 151715, Note_off_c, 0, 55, 65
1, 151794, Note_on_c, 0, 51, 37
1, 151862, Note_off_c, 0, 39, 29
1, 151887, Note_off_c, 0, 51, 54
1, 151907, Note_on_c, 0, 46, 51
1, 151917, Note_on_c, 0, 58, 78
1, 151947, Note_off_c, 0, 58, 65
1, 151982, Note_off_c, 0, 46, 54
1, 152017, Note_on_c, 0, 39, 37
1, 152109, Note_on_c, 0, 60, 75
1, 152133, Note_on_c, 0, 58, 74
1, 152134, Note_off_c, 0, 60, 68
1, 152160, Note_off_c, 0, 58, 68
1, 152287, Note_on_c, 0, 51, 42
1, 152304, Note_off_c, 0, 39, 42
1, 152328, Note_on_c, 0, 57, 52
1, 152347, Note_off_c, 0, 51, 54
1, 152359, Note_off_c, 0, 57, 59
1, 152362, Note_on_c, 0, 58, 81
1, 152387, Note_off_c, 0, 58, 69
1, 152388, Note_on_c, 0, 46, 49
1, 152461, Note_off_c, 0, 46, 51
1, 152488, Note_on_c, 0, 39, 49
1, 152613, Note_on_c, 0, 53, 78
1, 152645, Note_off_c, 0, 53, 66
1, 152714, Note_on_c, 0, 55, 77
1, 152735, Note_on_c, 0, 50, 47
1, 152737, Note_off_c, 0, 39, 54
1, 152746, Note_off_c, 0, 55, 65
1, 152788, Note_off_c, 0, 50, 56
1, 152821, Note_on_c, 0, 56, 79
1, 152830, Note_on_c, 0, 46, 52
1, 152851, Note_off_c, 0, 56, 64
1, 152904, Note_off_c, 0, 46, 53
1, 152929, Note_on_c, 0, 39, 45
1, 152932, Note_on_c, 0, 60, 78
1, 152960, Note_off_c, 0, 60, 61
1, 153030, Note_on_c, 0, 58, 79
1, 153060, Note_off_c, 0, 58, 66
1, 153128, Note_on_c, 0, 56, 79
1, 153156, Note_on_c, 0, 50, 44
1, 153156, Note_off_c, 0, 56, 63
1, 153160, Note_off_c, 0, 39, 50
1, 153218, Note_off_c, 0, 50, 58
1, 153231, Note_on_c, 0, 55, 81
1, 153242, Note_on_c, 0, 46, 54
1, 153281, Note_off_c, 0, 55, 65
1, 153338, Note_off_c, 0, 46, 59
1, 153346, Note_on_c, 0, 53, 74
1, 153349, Note_on_c, 0, 39, 50
1, 153396, Note_off_c, 0, 53, 63
1, 153429, Note_on_c, 0, 57, 74
1, 153436, Note_off_c, 0, 39, 61
1, 153451, Note_on_c, 0, 58, 84
1, 153454, Note_off_c, 0, 57, 68
1, 153478, Note_off_c, 0, 58, 68
1, 153551, Note_on_c, 0, 55, 45
1, 153605, Note_off_c, 0, 55, 60
1, 153650, Note_on_c, 0, 46, 50
1, 153675, Note_on_c, 0, 58, 73
1, 153710, Note_off_c, 0, 58, 64
1, 153744, Note_on_c, 0, 39, 52
1, 153745, Note_off_c, 0, 46, 53
1, 153818, Note_on_c, 0, 58, 72
1, 153837, Note_off_c, 0, 58, 67
1, 153838, Note_on_c, 0, 60, 68
1, 153862, Note_off_c, 0, 39, 58
1, 153889, Note_on_c, 0, 58, 88
1, 153890, Note_off_c, 0, 60, 62
1, 153916, Note_off_c, 0, 58, 67
1, 153988, Note_on_c, 0, 55, 51
1, 154061, Note_on_c, 0, 57, 69
1, 154068, Note_off_c, 0, 55, 60
1, 154111, Note_on_c, 0, 58, 83
1, 154114, Note_on_c, 0, 46, 53
1, 154128, Note_off_c, 0, 57, 61
1, 154217, Note_off_c, 0, 46, 57
1, 154238, Note_on_c, 0, 39, 40
1, 154324, Note_on_c, 0, 62, 76
1, 154336, Note_off_c, 0, 58, 63
1, 154360, Note_off_c, 0, 62, 63
1, 154460, Note_off_c, 0, 39, 41
1, 154471, Note_on_c, 0, 53, 38
1, 154556, Note_off_c, 0, 53, 54
1, 154574, Note_on_c, 0, 62, 76
1, 154586, Note_on_c, 0, 46, 47
1, 154679, Note_off_c, 0, 46, 56
1, 154707, Note_on_c, 0, 39, 37
1, 154804, Note_off_c, 0, 62, 60
1, 154813, Note_on_c, 0, 60, 63
1, 154842, Note_off_c, 0, 60, 66
1, 154902, Note_off_c, 0, 39, 39
1, 154938, Note_on_c, 0, 53, 43
1, 155007, Note_off_c, 0, 53, 57
1, 155038, Note_on_c, 0, 60, 68
1, 155063, Note_on_c, 0, 46, 47
1, 155148, Note_off_c, 0, 46, 54
1, 155169, Note_on_c, 0, 39, 42
1, 155272, Note_off_c, 0, 60, 57
1, 155275, Note_on_c, 0, 55, 57
1, 155302, Note_off_c, 0, 55, 64
1, 155365, Note_on_c, 0, 51, 40
1, 155428, Note_off_c, 0, 39, 37
1, 155441, Note_off_c, 0, 51, 55
1, 155477, Note_on_c, 0, 46, 48
1, 155495, Note_on_c, 0, 58, 62
1, 155534, Note_off_c, 0, 58, 66
1, 155561, Note_off_c, 0, 46, 55
1, 155596, Note_on_c, 0, 39, 36
1, 155674, Note_on_c, 0, 60, 54
1, 155705, Note_on_c, 0, 58, 60
1, 155707, Note_off_c, 0, 60, 64
1, 155734, Note_off_c, 0, 58, 66
1, 155800, Note_off_c, 0, 39, 36
1, 155806, Note_on_c, 0, 51, 41
1, 155880, Note_on_c, 0, 57, 57
1, 155886, Note_off_c, 0, 51, 53
1, 155917, Note_off_c, 0, 57, 57
1, 155930, Note_on_c, 0, 46, 44
1, 155930, Note_on_c, 0, 58, 73
1, 155954, Note_off_c, 0, 58, 69
1, 156049, Note_off_c, 0, 46, 51
1, 156056, Note_on_c, 0, 39, 49
1, 156226, Note_on_c, 0, 53, 68
1, 156270, Note_off_c, 0, 53, 64
1, 156366, Note_off_c, 0, 39, 41
1, 156375, Note_on_c, 0, 55, 71
1, 156395, Note_on_c, 0, 50, 44
1, 156412, Note_off_c, 0, 55, 63
1, 156432, Note_off_c, 0, 50, 51
1, 156484, Note_on_c, 0, 56, 75
1, 156486, Note_on_c, 0, 46, 53
1, 156515, Note_off_c, 0, 56, 64
1, 156562, Note_off_c, 0, 46, 56
1, 156591, Note_on_c, 0, 39, 49
1, 156595, Note_on_c, 0, 60, 79
1, 156626, Note_off_c, 0, 60, 64
1, 156698, Note_on_c, 0, 58, 76
1, 156726, Note_off_c, 0, 58, 67
1, 156771, Note_off_c, 0, 39, 39
1, 156788, Note_on_c, 0, 56, 83
1, 156795, Note_on_c, 0, 50, 41
1, 156818, Note_off_c, 0, 56, 66
1, 156855, Note_off_c, 0, 50, 57
1, 156892, Note_on_c, 0, 55, 75
1, 156893, Note_on_c, 0, 46, 50
1, 156917, Note_off_c, 0, 55, 68
1, 156986, Note_on_c, 0, 53, 76
1, 156988, Note_off_c, 0, 46, 55
1, 157033, Note_on_c, 0, 39, 45
1, 157033, Note_off_c, 0, 53, 67
1, 157095, Note_on_c, 0, 55, 81
1, 157131, Note_off_c, 0, 55, 64
1, 157196, Note_off_c, 0, 39, 47
1, 157221, Note_on_c, 0, 46, 48
1, 157402, Note_off_c, 0, 46, 50
1, 157405, Note_on_c, 0, 51, 75
1, 157412, Control_c, 0, 64, 54
1, 157426, Control_c, 0, 64, 65
1, 157431, Note_on_c, 0, 39, 37
1, 157441, Control_c, 0, 64, 69
1, 157456, Control_c, 0, 64, 73
1, 157471, Control_c, 0, 64, 78
1, 157486, Control_c, 0, 64, 81
1, 157500, Note_off_c, 0, 51, 62
1, 157501, Control_c, 0, 64, 83
1, 157515, Control_c, 0, 64, 85
1, 157530, Control_c, 0, 64, 86
1, 157545, Control_c, 0, 64, 87
1, 157550, Note_on_c, 0, 46, 41
1, 157559, Control_c, 0, 64, 88
1, 157574, Control_c, 0, 64, 88
1, 157584, Note_off_c, 0, 39, 30
1, 157604, Control_c, 0, 64, 89
1, 157633, Note_off_c, 0, 46, 51
1, 157663, Control_c, 0, 64, 89
1, 157692, Control_c, 0, 64, 90
1, 157707, Control_c, 0, 64, 90
1, 157737, Control_c, 0, 64, 91
1, 157773, Control_c, 0, 64, 91
1, 157788, Control_c, 0, 64, 92
1, 157865, Note_on_c, 0, 51, 26
1, 157892, Control_c, 0, 64, 90
1, 157907, Control_c, 0, 64, 86
1, 157922, Note_on_c, 0, 69, 56
1, 157922, Control_c, 0, 64, 79
1, 157937, Control_c, 0, 64, 69
1, 157939, Note_off_c, 0, 51, 51
1, 157951, Control_c, 0, 64, 0
1, 157968, Note_on_c, 0, 70, 65
1, 157969, Note_on_c, 0, 67, 46
1, 157987, Note_on_c, 0, 46, 18
1, 158026, Control_c, 0, 64, 51
1, 158041, Control_c, 0, 64, 64
1, 158044, Note_off_c, 0, 69, 36
1, 158056, Note_off_c, 0, 67, 0
1, 158056, Note_on_c, 0, 67, 6
1, 158056, Control_c, 0, 64, 67
1, 158071, Control_c, 0, 64, 70
1, 158086, Control_c, 0, 64, 72
1, 158096, Note_off_c, 0, 46, 30
1, 158101, Control_c, 0, 64, 74
1, 158110, Note_on_c, 0, 39, 37
1, 158115, Control_c, 0, 64, 77
1, 158130, Control_c, 0, 64, 79
1, 158145, Control_c, 0, 64, 80
1, 158174, Control_c, 0, 64, 81
1, 158189, Control_c, 0, 64, 81
1, 158204, Note_off_c, 0, 70, 59
1, 158204, Control_c, 0, 64, 82
1, 158219, Control_c, 0, 64, 83
1, 158234, Control_c, 0, 64, 83
1, 158248, Control_c, 0, 64, 84
1, 158256, Note_off_c, 0, 67, 38
1, 158293, Control_c, 0, 64, 83
1, 158308, Control_c, 0, 64, 78
1, 158321, Note_on_c, 0, 74, 68
1, 158322, Control_c, 0, 64, 70
1, 158333, Note_on_c, 0, 70, 52
1, 158337, Control_c, 0, 64, 55
1, 158352, Control_c, 0, 64, 0
1, 158366, Control_c, 0, 64, 38
1, 158376, Note_on_c, 0, 65, 17
1, 158381, Control_c, 0, 64, 61
1, 158396, Control_c, 0, 64, 68
1, 158411, Control_c, 0, 64, 74
1, 158426, Control_c, 0, 64, 79
1, 158427, Note_off_c, 0, 39, 35
1, 158441, Control_c, 0, 64, 80
1, 158455, Control_c, 0, 64, 81
1, 158470, Control_c, 0, 64, 81
1, 158485, Note_on_c, 0, 53, 48
1, 158485, Control_c, 0, 64, 82
1, 158508, Control_c, 0, 64, 82
1, 158518, Note_off_c, 0, 70, 47
1, 158523, Control_c, 0, 64, 83
1, 158534, Note_off_c, 0, 74, 58
1, 158537, Control_c, 0, 64, 84
1, 158539, Note_off_c, 0, 65, 41
1, 158552, Control_c, 0, 64, 85
1, 158567, Control_c, 0, 64, 86
1, 158581, Control_c, 0, 64, 87
1, 158596, Control_c, 0, 64, 87
1, 158628, Note_off_c, 0, 53, 38
1, 158634, Note_on_c, 0, 70, 56
1, 158636, Note_on_c, 0, 74, 70
1, 158641, Control_c, 0, 64, 86
1, 158649, Note_on_c, 0, 46, 44
1, 158652, Note_on_c, 0, 65, 40
1, 158655, Control_c, 0, 64, 79
1, 158670, Control_c, 0, 64, 68
1, 158685, Control_c, 0, 64, 23
1, 158700, Control_c, 0, 64, 0
1, 158717, Note_off_c, 0, 65, 0
1, 158717, Note_on_c, 0, 65, 6
1, 158729, Control_c, 0, 64, 58
1, 158739, Note_off_c, 0, 46, 49
1, 158744, Control_c, 0, 64, 69
1, 158759, Control_c, 0, 64, 74
1, 158763, Note_off_c, 0, 70, 53
1, 158775, Control_c, 0, 64, 79
1, 158780, Note_on_c, 0, 39, 39
1, 158790, Control_c, 0, 64, 80
1, 158804, Control_c, 0, 64, 81
1, 158834, Control_c, 0, 64, 81
1, 158849, Control_c, 0, 64, 82
1, 158864, Control_c, 0, 64, 83
1, 158881, Note_on_c, 0, 72, 69
1, 158893, Control_c, 0, 64, 83
1, 158896, Note_on_c, 0, 68, 63
1, 158917, Note_off_c, 0, 65, 43
1, 158960, Note_off_c, 0, 74, 37
1, 158991, Note_off_c, 0, 72, 63
1, 158998, Note_off_c, 0, 68, 63
1, 159012, Control_c, 0, 64, 84
1, 159042, Control_c, 0, 64, 84
1, 159047, Note_off_c, 0, 39, 36
1, 159052, Note_on_c, 0, 53, 36
1, 159057, Control_c, 0, 64, 85
1, 159101, Control_c, 0, 64, 82
1, 159111, Note_on_c, 0, 72, 69
1, 159116, Control_c, 0, 64, 76
1, 159124, Note_on_c, 0, 62, 56
1, 159129, Note_on_c, 0, 68, 54
1, 159131, Control_c, 0, 64, 63
1, 159145, Control_c, 0, 64, 0
1, 159160, Control_c, 0, 64, 18
1, 159168, Note_off_c, 0, 53, 37
1, 159172, Note_on_c, 0, 46, 22
1, 159175, Control_c, 0, 64, 55
1, 159178, Note_off_c, 0, 68, 55
1, 159190, Control_c, 0, 64, 65
1, 159204, Control_c, 0, 64, 70
1, 159219, Control_c, 0, 64, 76
1, 159234, Control_c, 0, 64, 79
1, 159257, Control_c, 0, 64, 80
1, 159262, Note_on_c, 0, 39, 46
1, 159271, Control_c, 0, 64, 81
1, 159286, Control_c, 0, 64, 81
1, 159287, Note_off_c, 0, 46, 29
1, 159301, Control_c, 0, 64, 82
1, 159316, Control_c, 0, 64, 82
1, 159330, Control_c, 0, 64, 83
1, 159350, Note_off_c, 0, 39, 53
1, 159351, Note_off_c, 0, 62, 61
1, 159353, Note_off_c, 0, 72, 62
1, 159354, Note_on_c, 0, 67, 69
1, 159367, Note_on_c, 0, 63, 56
1, 159390, Control_c, 0, 64, 83
1, 159419, Control_c, 0, 64, 84
1, 159433, Note_off_c, 0, 63, 52
1, 159434, Control_c, 0, 64, 84
1, 159449, Note_off_c, 0, 67, 58
1, 159449, Control_c, 0, 64, 85
1, 159464, Control_c, 0, 64, 88
1, 159478, Control_c, 0, 64, 91
1, 159493, Control_c, 0, 64, 92
1, 159511, Note_on_c, 0, 55, 27
1, 159522, Control_c, 0, 64, 90
1, 159537, Control_c, 0, 64, 83
1, 159552, Control_c, 0, 64, 75
1, 159561, Note_off_c, 0, 55, 45
1, 159567, Control_c, 0, 64, 68
1, 159583, Control_c, 0, 64, 68
1, 159585, Note_on_c, 0, 67, 59
1, 159586, Note_on_c, 0, 70, 75
1, 159598, Control_c, 0, 64, 72
1, 159599, Note_on_c, 0, 58, 63
1, 159609, Note_on_c, 0, 46, 38
1, 159613, Control_c, 0, 64, 77
1, 159627, Control_c, 0, 64, 79
1, 159629, Note_off_c, 0, 58, 66
1, 159642, Control_c, 0, 64, 80
1, 159667, Note_off_c, 0, 67, 62
1, 159687, Control_c, 0, 64, 80
1, 159689, Note_off_c, 0, 70, 60
1, 159701, Control_c, 0, 64, 81
1, 159715, Note_on_c, 0, 39, 47
1, 159731, Control_c, 0, 64, 81
1, 159746, Control_c, 0, 64, 82
1, 159786, Note_on_c, 0, 72, 71
1, 159790, Note_off_c, 0, 46, 24
1, 159797, Note_off_c, 0, 39, 57
1, 159798, Note_on_c, 0, 70, 77
1, 159806, Note_on_c, 0, 67, 62
1, 159820, Control_c, 0, 64, 82
1, 159868, Note_off_c, 0, 67, 0
1, 159876, Note_off_c, 0, 70, 57
1, 159880, Control_c, 0, 64, 83
1, 159894, Control_c, 0, 64, 84
1, 159909, Control_c, 0, 64, 85
1, 159910, Poly_aftertouch_c, 0, 67, 0
1, 159938, Note_off_c, 0, 72, 47
1, 159949, Note_on_c, 0, 55, 55
1, 159953, Control_c, 0, 64, 83
1, 159967, Note_on_c, 0, 69, 70
1, 159968, Control_c, 0, 64, 77
1, 159973, Note_on_c, 0, 66, 57
1, 159983, Control_c, 0, 64, 64
1, 160004, Note_off_c, 0, 66, 61
1, 160005, Control_c, 0, 64, 38
1, 160009, Note_off_c, 0, 55, 60
1, 160020, Control_c, 0, 64, 56
1, 160025, Note_off_c, 0, 69, 58
1, 160034, Note_on_c, 0, 70, 78
1, 160035, Control_c, 0, 64, 66
1, 160037, Note_on_c, 0, 67, 62
1, 160050, Control_c, 0, 64, 73
1, 160056, Note_off_c, 0, 67, 62
1, 160065, Control_c, 0, 64, 80
1, 160068, Note_on_c, 0, 46, 48
1, 160080, Control_c, 0, 64, 83
1, 160086, Note_off_c, 0, 70, 59
1, 160153, Control_c, 0, 64, 83
1, 160193, Note_on_c, 0, 39, 50
1, 160213, Control_c, 0, 64, 83
1, 160222, Note_off_c, 0, 46, 34
1, 160227, Control_c, 0, 64, 82
1, 160242, Control_c, 0, 64, 79
1, 160257, Control_c, 0, 64, 74
1, 160265, Note_on_c, 0, 65, 73
1, 160272, Control_c, 0, 64, 65
1, 160273, Note_on_c, 0, 58, 65
1, 160287, Control_c, 0, 64, 44
1, 160301, Control_c, 0, 64, 0
1, 160306, Note_off_c, 0, 58, 65
1, 160366, Note_on_c, 0, 67, 77
1, 160396, Note_off_c, 0, 65, 55
1, 160404, Note_on_c, 0, 50, 46
1, 160417, Note_off_c, 0, 67, 60
1, 160433, Note_off_c, 0, 39, 39
1, 160450, Note_off_c, 0, 50, 61
1, 160476, Note_on_c, 0, 68, 77
1, 160480, Note_on_c, 0, 46, 58
1, 160515, Note_off_c, 0, 68, 65
1, 160549, Note_off_c, 0, 46, 53
1, 160582, Note_on_c, 0, 72, 77
1, 160588, Note_on_c, 0, 39, 38
1, 160628, Note_off_c, 0, 72, 60
1, 160688, Note_on_c, 0, 70, 74
1, 160739, Note_off_c, 0, 70, 61
1, 160788, Note_on_c, 0, 68, 74
1, 160795, Note_off_c, 0, 39, 37
1, 160819, Note_on_c, 0, 50, 38
1, 160819, Note_off_c, 0, 68, 63
1, 160864, Note_off_c, 0, 50, 47
1, 160892, Note_on_c, 0, 67, 70
1, 160906, Note_on_c, 0, 46, 46
1, 160918, Note_off_c, 0, 67, 68
1, 160961, Note_off_c, 0, 46, 56
1, 160986, Note_on_c, 0, 65, 70
1, 161012, Note_on_c, 0, 39, 35
1, 161035, Note_off_c, 0, 65, 59
1, 161101, Note_on_c, 0, 70, 72
1, 161105, Note_on_c, 0, 67, 59
1, 161124, Control_c, 0, 64, 57
1, 161139, Control_c, 0, 64, 64
1, 161154, Control_c, 0, 64, 68
1, 161170, Control_c, 0, 64, 71
1, 161185, Control_c, 0, 64, 76
1, 161195, Note_off_c, 0, 67, 53
1, 161199, Control_c, 0, 64, 82
1, 161208, Note_off_c, 0, 70, 57
1, 161212, Note_off_c, 0, 39, 38
1, 161214, Control_c, 0, 64, 85
1, 161229, Control_c, 0, 64, 88
1, 161234, Note_on_c, 0, 51, 48
1, 161244, Control_c, 0, 64, 88
1, 161316, Note_off_c, 0, 51, 52
1, 161324, Note_on_c, 0, 70, 71
1, 161329, Note_on_c, 0, 67, 63
1, 161333, Control_c, 0, 64, 89
1, 161335, Note_on_c, 0, 58, 62
1, 161347, Control_c, 0, 64, 89
1, 161350, Note_on_c, 0, 46, 36
1, 161354, Note_off_c, 0, 58, 65
1, 161377, Control_c, 0, 64, 90
1, 161389, Note_off_c, 0, 67, 59
1, 161406, Note_off_c, 0, 70, 59
1, 161427, Note_off_c, 0, 46, 50
1, 161436, Control_c, 0, 64, 90
1, 161451, Control_c, 0, 64, 91
1, 161461, Note_on_c, 0, 39, 39
1, 161518, Control_c, 0, 64, 89
1, 161532, Note_on_c, 0, 72, 66
1, 161533, Control_c, 0, 64, 83
1, 161547, Control_c, 0, 64, 74
1, 161552, Note_on_c, 0, 70, 76
1, 161561, Note_on_c, 0, 67, 55
1, 161562, Control_c, 0, 64, 62
1, 161566, Note_off_c, 0, 72, 56
1, 161577, Control_c, 0, 64, 37
1, 161592, Control_c, 0, 64, 55
1, 161595, Note_off_c, 0, 67, 49
1, 161606, Control_c, 0, 64, 64
1, 161621, Control_c, 0, 64, 72
1, 161633, Note_off_c, 0, 70, 62
1, 161636, Control_c, 0, 64, 81
1, 161651, Control_c, 0, 64, 88
1, 161666, Control_c, 0, 64, 91
1, 161675, Note_on_c, 0, 51, 41
1, 161681, Control_c, 0, 64, 92
1, 161710, Control_c, 0, 64, 91
1, 161716, Note_off_c, 0, 39, 34
1, 161719, Note_on_c, 0, 69, 63
1, 161725, Control_c, 0, 64, 86
1, 161728, Note_on_c, 0, 66, 45
1, 161728, Note_off_c, 0, 51, 55
1, 161740, Control_c, 0, 64, 78
1, 161753, Note_off_c, 0, 66, 59
1, 161755, Control_c, 0, 64, 71
1, 161758, Note_off_c, 0, 69, 64
1, 161761, Note_on_c, 0, 67, 76
1, 161762, Note_on_c, 0, 70, 79
1, 161764, Note_on_c, 0, 46, 52
1, 161770, Control_c, 0, 64, 69
1, 161784, Note_off_c, 0, 67, 69
1, 161785, Control_c, 0, 64, 74
1, 161799, Control_c, 0, 64, 81
1, 161809, Note_off_c, 0, 70, 63
1, 161814, Control_c, 0, 64, 88
1, 161823, Note_off_c, 0, 46, 53
1, 161829, Control_c, 0, 64, 90
1, 161844, Control_c, 0, 64, 91
1, 161849, Note_on_c, 0, 39, 49
1, 161859, Control_c, 0, 64, 92
1, 161873, Control_c, 0, 64, 94
1, 161888, Control_c, 0, 64, 96
1, 161903, Control_c, 0, 64, 99
1, 161947, Control_c, 0, 64, 96
1, 161963, Control_c, 0, 64, 87
1, 161978, Control_c, 0, 64, 73
1, 161984, Note_on_c, 0, 86, 80
1, 161993, Control_c, 0, 64, 0
1, 161995, Note_on_c, 0, 82, 65
1, 162001, Note_on_c, 0, 77, 58
1, 162022, Control_c, 0, 64, 40
1, 162037, Control_c, 0, 64, 65
1, 162052, Control_c, 0, 64, 72
1, 162067, Control_c, 0, 64, 76
1, 162082, Control_c, 0, 64, 78
1, 162096, Control_c, 0, 64, 79
1, 162102, Note_off_c, 0, 39, 36
1, 162103, Note_off_c, 0, 82, 61
1, 162107, Note_off_c, 0, 77, 53
1, 162111, Control_c, 0, 64, 80
1, 162116, Note_on_c, 0, 53, 40
1, 162126, Control_c, 0, 64, 82
1, 162128, Note_off_c, 0, 86, 59
1, 162140, Control_c, 0, 64, 86
1, 162155, Control_c, 0, 64, 89
1, 162170, Control_c, 0, 64, 89
1, 162200, Control_c, 0, 64, 89
1, 162205, Note_on_c, 0, 86, 77
1, 162214, Control_c, 0, 64, 85
1, 162219, Note_on_c, 0, 82, 64
1, 162222, Note_on_c, 0, 46, 41
1, 162222, Note_on_c, 0, 77, 59
1, 162226, Note_off_c, 0, 53, 41
1, 162229, Control_c, 0, 64, 77
1, 162252, Control_c, 0, 64, 67
1, 162267, Control_c, 0, 64, 54
1, 162279, Note_off_c, 0, 77, 0
1, 162279, Note_on_c, 0, 77, 21
1, 162282, Control_c, 0, 64, 62
1, 162296, Control_c, 0, 64, 68
1, 162311, Control_c, 0, 64, 76
1, 162326, Control_c, 0, 64, 82
1, 162327, Note_off_c, 0, 82, 56
1, 162341, Control_c, 0, 64, 83
1, 162347, Note_off_c, 0, 46, 35
1, 162353, Note_on_c, 0, 39, 43
1, 162355, Control_c, 0, 64, 84
1, 162430, Note_on_c, 0, 84, 71
1, 162443, Note_on_c, 0, 80, 69
1, 162459, Note_off_c, 0, 77, 57
1, 162462, Note_off_c, 0, 86, 59
1, 162474, Control_c, 0, 64, 84
1, 162504, Note_off_c, 0, 84, 62
1, 162506, Note_off_c, 0, 80, 62
1, 162543, Note_off_c, 0, 39, 38
1, 162578, Control_c, 0, 64, 85
1, 162597, Note_on_c, 0, 53, 36
1, 162637, Control_c, 0, 64, 84
1, 162652, Control_c, 0, 64, 79
1, 162652, Note_on_c, 0, 84, 77
1, 162655, Note_off_c, 0, 53, 45
1, 162667, Note_on_c, 0, 74, 54
1, 162667, Note_on_c, 0, 80, 58
1, 162667, Control_c, 0, 64, 68
1, 162670, Note_on_c, 0, 46, 48
1, 162682, Control_c, 0, 64, 43
1, 162696, Control_c, 0, 64, 0
1, 162711, Control_c, 0, 64, 51
1, 162722, Note_off_c, 0, 80, 63
1, 162726, Control_c, 0, 64, 64
1, 162740, Control_c, 0, 64, 70
1, 162755, Control_c, 0, 64, 75
1, 162771, Control_c, 0, 64, 78
1, 162772, Note_off_c, 0, 46, 54
1, 162786, Control_c, 0, 64, 79
1, 162788, Note_on_c, 0, 39, 47
1, 162801, Control_c, 0, 64, 80
1, 162816, Control_c, 0, 64, 81
1, 162831, Control_c, 0, 64, 82
1, 162845, Control_c, 0, 64, 85
1, 162860, Control_c, 0, 64, 89
1, 162861, Note_off_c, 0, 39, 55
1, 162875, Control_c, 0, 64, 90
1, 162879, Note_off_c, 0, 74, 64
1, 162881, Note_on_c, 0, 79, 71
1, 162893, Note_on_c, 0, 75, 59
1, 162895, Note_off_c, 0, 84, 61
1, 162905, Control_c, 0, 64, 88
1, 162919, Control_c, 0, 64, 83
1, 162934, Control_c, 0, 64, 78
1, 162949, Control_c, 0, 64, 76
1, 162963, Control_c, 0, 64, 77
1, 162978, Control_c, 0, 64, 80
1, 162996, Note_off_c, 0, 75, 63
1, 162999, Note_on_c, 0, 55, 43
1, 163001, Control_c, 0, 64, 84
1, 163016, Control_c, 0, 64, 88
1, 163031, Control_c, 0, 64, 90
1, 163031, Note_off_c, 0, 79, 54
1, 163045, Control_c, 0, 64, 91
1, 163053, Note_off_c, 0, 55, 46
1, 163060, Control_c, 0, 64, 91
1, 163083, Note_on_c, 0, 79, 46
1, 163090, Control_c, 0, 64, 92
1, 163092, Note_on_c, 0, 82, 76
1, 163099, Note_on_c, 0, 46, 45
1, 163103, Note_on_c, 0, 70, 61
1, 163105, Control_c, 0, 64, 92
1, 163119, Control_c, 0, 64, 93
1, 163135, Note_off_c, 0, 70, 65
1, 163149, Control_c, 0, 64, 93
1, 163165, Note_off_c, 0, 79, 59
1, 163179, Note_off_c, 0, 82, 62
1, 163211, Note_on_c, 0, 39, 47
1, 163281, Note_on_c, 0, 84, 76
1, 163285, Note_off_c, 0, 39, 54
1, 163297, Control_c, 0, 64, 94
1, 163306, Note_on_c, 0, 82, 69
1, 163311, Note_on_c, 0, 79, 50
1, 163344, Note_off_c, 0, 46, 28
1, 163356, Control_c, 0, 64, 94
1, 163389, Note_off_c, 0, 82, 63
1, 163411, Note_off_c, 0, 79, 26
1, 163433, Note_off_c, 0, 84, 55
1, 163439, Note_on_c, 0, 55, 31
1, 163468, Note_on_c, 0, 78, 68
1, 163469, Note_on_c, 0, 81, 76
1, 163476, Note_off_c, 0, 55, 52
1, 163489, Note_off_c, 0, 78, 61
1, 163494, Note_off_c, 0, 81, 64
1, 163523, Note_on_c, 0, 46, 47
1, 163530, Note_on_c, 0, 79, 51
1, 163534, Note_on_c, 0, 82, 79
1, 163553, Note_off_c, 0, 79, 55
1, 163559, Note_off_c, 0, 82, 63
1, 163654, Control_c, 0, 64, 93
1, 163663, Note_on_c, 0, 39, 52
1, 163668, Control_c, 0, 64, 86
1, 163683, Control_c, 0, 64, 74
1, 163695, Note_off_c, 0, 46, 34
1, 163698, Control_c, 0, 64, 61
1, 163713, Control_c, 0, 64, 58
1, 163728, Control_c, 0, 64, 65
1, 163749, Control_c, 0, 64, 71
1, 163752, Note_on_c, 0, 77, 69
1, 163756, Note_on_c, 0, 70, 69
1, 163764, Control_c, 0, 64, 77
1, 163779, Control_c, 0, 64, 79
1, 163809, Note_off_c, 0, 70, 54
1, 163872, Note_on_c, 0, 79, 65
1, 163886, Note_off_c, 0, 77, 53
1, 163887, Note_on_c, 0, 50, 45
1, 163900, Note_off_c, 0, 79, 54
1, 163913, Control_c, 0, 64, 78
1, 163928, Control_c, 0, 64, 77
1, 163940, Note_off_c, 0, 50, 56
1, 163942, Control_c, 0, 64, 74
1, 163946, Note_off_c, 0, 39, 30
1, 163957, Control_c, 0, 64, 69
1, 163964, Note_on_c, 0, 46, 53
1, 163964, Note_on_c, 0, 80, 78
1, 163972, Control_c, 0, 64, 62
1, 163986, Control_c, 0, 64, 43
1, 163994, Note_off_c, 0, 80, 64
1, 164001, Control_c, 0, 64, 0
1, 164071, Note_on_c, 0, 84, 74
1, 164077, Note_on_c, 0, 39, 46
1, 164083, Note_off_c, 0, 46, 36
1, 164108, Note_off_c, 0, 84, 59
1, 164168, Note_on_c, 0, 82, 77
1, 164174, Note_on_c, 0, 70, 71
1, 164199, Note_off_c, 0, 70, 68
1, 164213, Note_off_c, 0, 82, 56
1, 164272, Note_on_c, 0, 80, 78
1, 164288, Note_on_c, 0, 50, 35
1, 164307, Note_off_c, 0, 80, 63
1, 164312, Note_off_c, 0, 39, 35
1, 164347, Note_off_c, 0, 50, 46
1, 164368, Note_on_c, 0, 79, 77
1, 164376, Note_on_c, 0, 46, 45
1, 164396, Note_off_c, 0, 79, 63
1, 164464, Note_off_c, 0, 46, 50
1, 164468, Note_on_c, 0, 77, 71
1, 164499, Note_off_c, 0, 77, 67
1, 164507, Note_on_c, 0, 39, 44
1, 164578, Note_on_c, 0, 79, 73
1, 164601, Note_off_c, 0, 79, 68
1, 164614, Note_on_c, 0, 71, 18
1, 164615, Note_off_c, 0, 71, 127
1, 164691, Control_c, 0, 64, 36
1, 164704, Note_off_c, 0, 39, 36
1, 164706, Control_c, 0, 64, 52
1, 164716, Note_on_c, 0, 51, 42
1, 164721, Control_c, 0, 64, 60
1, 164736, Control_c, 0, 64, 63
1, 164751, Control_c, 0, 64, 65
1, 164766, Control_c, 0, 64, 66
1, 164779, Note_off_c, 0, 51, 54
1, 164781, Control_c, 0, 64, 67
1, 164796, Control_c, 0, 64, 66
1, 164799, Note_on_c, 0, 75, 76
1, 164802, Note_on_c, 0, 67, 65
1, 164804, Note_on_c, 0, 70, 65
1, 164808, Note_on_c, 0, 46, 39
1, 164811, Control_c, 0, 64, 62
1, 164825, Control_c, 0, 64, 0
1, 164880, Note_off_c, 0, 46, 54
1, 164908, Note_on_c, 0, 39, 46
1, 164958, Control_c, 0, 64, 65
1, 164973, Control_c, 0, 64, 73
1, 164988, Control_c, 0, 64, 80
1, 165003, Note_off_c, 0, 67, 49
1, 165003, Control_c, 0, 64, 84
1, 165014, Note_off_c, 0, 70, 38
1, 165017, Control_c, 0, 64, 86
1, 165024, Note_off_c, 0, 39, 35
1, 165032, Control_c, 0, 64, 87
1, 165039, Note_on_c, 0, 51, 42
1, 165062, Control_c, 0, 64, 88
1, 165099, Note_off_c, 0, 51, 52
1, 165102, Note_off_c, 0, 75, 38
1, 165136, Control_c, 0, 64, 88
1, 165143, Note_on_c, 0, 46, 43
1, 165150, Control_c, 0, 64, 90
1, 165156, Note_on_c, 0, 70, 51
1, 165166, Control_c, 0, 64, 91
1, 165168, Note_on_c, 0, 74, 42
1, 165177, Note_on_c, 0, 67, 48
1, 165180, Control_c, 0, 64, 92
1, 165191, Note_off_c, 0, 70, 55
1, 165195, Control_c, 0, 64, 93
1, 165198, Note_off_c, 0, 46, 57
1, 165202, Note_on_c, 0, 75, 75
1, 165207, Note_off_c, 0, 67, 51
1, 165207, Note_on_c, 0, 39, 51
1, 165208, Note_off_c, 0, 74, 61
1, 165225, Note_off_c, 0, 75, 71
1, 165243, Note_off_c, 0, 39, 58
1, 165262, Control_c, 0, 64, 93
1, 165277, Control_c, 0, 64, 94
1, 165292, Control_c, 0, 64, 95
1, 165307, Control_c, 0, 64, 96
1, 165365, Control_c, 0, 64, 95
1, 165380, Control_c, 0, 64, 91
1, 165395, Control_c, 0, 64, 85
1, 165395, Control_c, 0, 67, 8
1, 165410, Control_c, 0, 64, 76
1, 165410, Control_c, 0, 67, 9
1, 165425, Control_c, 0, 64, 67
1, 165425, Control_c, 0, 67, 10
1, 165439, Note_on_c, 0, 82, 64
1, 165439, Note_on_c, 0, 89, 69
1, 165440, Control_c, 0, 64, 57
1, 165454, Control_c, 0, 64, 59
1, 165469, Control_c, 0, 64, 64
1, 165484, Control_c, 0, 64, 67
1, 165484, Control_c, 0, 67, 9
1, 165487, Note_off_c, 0, 82, 54
1, 165499, Control_c, 0, 64, 71
1, 165499, Control_c, 0, 67, 9
1, 165514, Control_c, 0, 64, 75
1, 165529, Control_c, 0, 64, 78
1, 165529, Control_c, 0, 67, 8
1, 165544, Control_c, 0, 64, 79
1, 165544, Control_c, 0, 67, 8
1, 165547, Note_on_c, 0, 91, 70
1, 165554, Note_on_c, 0, 68, 48
1, 165559, Control_c, 0, 64, 80
1, 165559, Control_c, 0, 67, 0
1, 165565, Note_off_c, 0, 89, 53
1, 165573, Control_c, 0, 64, 81
1, 165588, Control_c, 0, 64, 82
1, 165603, Control_c, 0, 64, 83
1, 165604, Note_off_c, 0, 91, 56
1, 165606, Note_off_c, 0, 68, 47
1, 165618, Control_c, 0, 64, 83
1, 165633, Control_c, 0, 64, 84
1, 165649, Note_on_c, 0, 92, 79
1, 165651, Note_on_c, 0, 62, 47
1, 165662, Control_c, 0, 64, 84
1, 165689, Note_off_c, 0, 92, 63
1, 165708, Note_off_c, 0, 62, 57
1, 165739, Note_on_c, 0, 58, 49
1, 165752, Note_on_c, 0, 96, 82
1, 165764, Note_off_c, 0, 58, 58
1, 165780, Control_c, 0, 64, 85
1, 165783, Note_off_c, 0, 96, 62
1, 165866, Note_on_c, 0, 94, 80
1, 165884, Note_on_c, 0, 82, 60
1, 165906, Note_off_c, 0, 82, 62
1, 165920, Note_off_c, 0, 94, 59
1, 165968, Note_on_c, 0, 92, 80
1, 165970, Note_on_c, 0, 50, 52
1, 166023, Note_off_c, 0, 50, 58
1, 166068, Note_off_c, 0, 92, 36
1, 166079, Note_on_c, 0, 91, 75
1, 166084, Note_on_c, 0, 46, 53
1, 166085, Control_c, 0, 64, 84
1, 166100, Control_c, 0, 64, 84
1, 166115, Control_c, 0, 64, 80
1, 166130, Control_c, 0, 64, 74
1, 166144, Control_c, 0, 64, 63
1, 166149, Note_off_c, 0, 91, 55
1, 166155, Note_off_c, 0, 46, 60
1, 166159, Control_c, 0, 64, 0
1, 166171, Note_on_c, 0, 39, 54
1, 166185, Note_on_c, 0, 89, 68
1, 166206, Note_off_c, 0, 39, 63
1, 166233, Control_c, 0, 64, 59
1, 166248, Control_c, 0, 64, 66
1, 166262, Control_c, 0, 64, 71
1, 166277, Control_c, 0, 64, 76
1, 166292, Control_c, 0, 64, 80
1, 166293, Note_on_c, 0, 94, 85
1, 166298, Note_on_c, 0, 82, 76
1, 166307, Note_on_c, 0, 91, 59
1, 166307, Control_c, 0, 64, 83
1, 166311, Note_off_c, 0, 89, 54
1, 166322, Control_c, 0, 64, 84
1, 166337, Control_c, 0, 64, 84
1, 166352, Control_c, 0, 64, 85
1, 166367, Control_c, 0, 64, 85
1, 166379, Note_off_c, 0, 94, 60
1, 166381, Note_off_c, 0, 82, 52
1, 166381, Control_c, 0, 64, 86
1, 166394, Note_off_c, 0, 91, 52
1, 166408, Note_on_c, 0, 67, 60
1, 166411, Control_c, 0, 64, 86
1, 166426, Control_c, 0, 64, 87
1, 166456, Control_c, 0, 64, 87
1, 166460, Note_off_c, 0, 67, 56
1, 166504, Note_on_c, 0, 94, 77
1, 166510, Note_on_c, 0, 82, 67
1, 166510, Note_on_c, 0, 63, 48
1, 166513, Note_on_c, 0, 91, 67
1, 166529, Control_c, 0, 64, 88
1, 166544, Control_c, 0, 64, 88
1, 166549, Note_off_c, 0, 82, 57
1, 166567, Note_off_c, 0, 94, 63
1, 166584, Note_off_c, 0, 63, 49
1, 166587, Note_off_c, 0, 91, 53
1, 166588, Control_c, 0, 64, 89
1, 166618, Control_c, 0, 64, 89
1, 166639, Note_on_c, 0, 58, 51
1, 166646, Note_on_c, 0, 93, 67
1, 166648, Control_c, 0, 64, 90
1, 166653, Note_on_c, 0, 90, 65
1, 166662, Control_c, 0, 64, 92
1, 166673, Note_off_c, 0, 58, 65
1, 166673, Note_off_c, 0, 93, 65
1, 166677, Control_c, 0, 64, 93
1, 166685, Note_off_c, 0, 90, 63
1, 166692, Control_c, 0, 64, 94
1, 166706, Control_c, 0, 64, 95
1, 166718, Note_on_c, 0, 94, 83
1, 166721, Control_c, 0, 64, 96
1, 166725, Note_on_c, 0, 91, 71
1, 166729, Note_on_c, 0, 82, 72
1, 166760, Control_c, 0, 64, 96
1, 166775, Control_c, 0, 67, 8
1, 166790, Note_off_c, 0, 94, 62
1, 166805, Control_c, 0, 67, 9
1, 166805, Note_off_c, 0, 91, 56
1, 166819, Control_c, 0, 67, 10
1, 166838, Note_on_c, 0, 51, 57
1, 166849, Control_c, 0, 67, 10
1, 166864, Control_c, 0, 67, 11
1, 166870, Note_off_c, 0, 82, 62
1, 166879, Control_c, 0, 67, 12
1, 166893, Control_c, 0, 67, 16
1, 166908, Control_c, 0, 67, 19
1, 166923, Control_c, 0, 67, 22
1, 166933, Note_off_c, 0, 51, 54
1, 166937, Control_c, 0, 67, 23
1, 166948, Note_on_c, 0, 46, 61
1, 166952, Control_c, 0, 67, 24
1, 166967, Control_c, 0, 67, 25
1, 167011, Control_c, 0, 64, 97
1, 167011, Control_c, 0, 67, 24
1, 167033, Note_off_c, 0, 46, 55
1, 167041, Control_c, 0, 67, 24
1, 167052, Note_on_c, 0, 39, 53
1, 167056, Control_c, 0, 67, 23
1, 167071, Control_c, 0, 67, 23
1, 167085, Control_c, 0, 67, 22
1, 167091, Note_off_c, 0, 39, 62
1, 167100, Control_c, 0, 64, 94
1, 167115, Control_c, 0, 64, 85
1, 167130, Control_c, 0, 64, 72
1, 167145, Control_c, 0, 64, 53
1, 167159, Control_c, 0, 64, 24
1, 167159, Control_c, 0, 67, 22
1, 167174, Control_c, 0, 64, 56
1, 167175, Note_on_c, 0, 70, 66
1, 167181, Note_on_c, 0, 77, 68
1, 167189, Control_c, 0, 64, 65
1, 167204, Control_c, 0, 64, 72
1, 167217, Note_off_c, 0, 70, 58
1, 167219, Control_c, 0, 64, 79
1, 167234, Control_c, 0, 64, 84
1, 167234, Control_c, 0, 67, 22
1, 167249, Control_c, 0, 64, 85
1, 167264, Control_c, 0, 64, 86
1, 167279, Control_c, 0, 64, 86
1, 167279, Control_c, 0, 67, 22
1, 167293, Control_c, 0, 64, 87
1, 167299, Note_on_c, 0, 79, 50
1, 167308, Control_c, 0, 64, 87
1, 167322, Note_off_c, 0, 79, 58
1, 167323, Control_c, 0, 64, 88
1, 167323, Note_off_c, 0, 77, 54
1, 167382, Control_c, 0, 67, 21
1, 167389, Note_on_c, 0, 80, 81
1, 167422, Note_on_c, 0, 62, 56
1, 167424, Note_off_c, 0, 80, 62
1, 167427, Control_c, 0, 64, 87
1, 167442, Control_c, 0, 64, 86
1, 167457, Control_c, 0, 64, 85
1, 167472, Control_c, 0, 67, 22
1, 167507, Note_on_c, 0, 84, 74
1, 167508, Control_c, 0, 67, 22
1, 167512, Note_off_c, 0, 62, 58
1, 167524, Note_on_c, 0, 58, 60
1, 167544, Note_off_c, 0, 84, 63
1, 167561, Note_off_c, 0, 58, 64
1, 167568, Control_c, 0, 64, 85
1, 167598, Control_c, 0, 67, 23
1, 167604, Note_on_c, 0, 82, 77
1, 167609, Note_on_c, 0, 70, 73
1, 167635, Note_off_c, 0, 70, 67
1, 167664, Note_off_c, 0, 82, 61
1, 167687, Control_c, 0, 67, 22
1, 167708, Note_on_c, 0, 80, 81
1, 167732, Control_c, 0, 64, 84
1, 167747, Control_c, 0, 64, 82
1, 167747, Control_c, 0, 67, 22
1, 167747, Note_off_c, 0, 80, 61
1, 167761, Control_c, 0, 64, 79
1, 167776, Control_c, 0, 64, 74
1, 167791, Control_c, 0, 64, 68
1, 167806, Note_on_c, 0, 79, 79
1, 167806, Control_c, 0, 64, 57
1, 167806, Control_c, 0, 67, 21
1, 167821, Control_c, 0, 64, 0
1, 167821, Control_c, 0, 67, 21
1, 167839, Note_off_c, 0, 79, 61
1, 167854, Note_on_c, 0, 46, 50
1, 167902, Note_off_c, 0, 46, 59
1, 167902, Note_on_c, 0, 77, 74
1, 167924, Control_c, 0, 67, 21
1, 167925, Note_off_c, 0, 77, 68
1, 167928, Note_on_c, 0, 39, 47
1, 167960, Note_off_c, 0, 39, 60
1, 167995, Note_on_c, 0, 79, 79
1, 167998, Control_c, 0, 67, 22
1, 168001, Note_on_c, 0, 70, 75
1, 168018, Note_off_c, 0, 79, 67
1, 168026, Note_off_c, 0, 70, 69
1, 168028, Control_c, 0, 67, 22
1, 168137, Note_on_c, 0, 63, 54
1, 168176, Control_c, 0, 67, 22
1, 168195, Note_off_c, 0, 63, 55
1, 168206, Control_c, 0, 67, 21
1, 168221, Control_c, 0, 67, 21
1, 168226, Note_on_c, 0, 67, 71
1, 168226, Note_on_c, 0, 75, 78
1, 168239, Note_on_c, 0, 58, 45
1, 168245, Note_on_c, 0, 70, 64
1, 168257, Control_c, 0, 64, 40
1, 168272, Control_c, 0, 64, 58
1, 168286, Control_c, 0, 64, 64
1, 168293, Note_off_c, 0, 58, 60
1, 168301, Control_c, 0, 64, 68
1, 168301, Control_c, 0, 67, 21
1, 168316, Control_c, 0, 64, 75
1, 168318, Note_on_c, 0, 51, 50
1, 168323, Note_off_c, 0, 67, 58
1, 168331, Control_c, 0, 64, 83
1, 168346, Control_c, 0, 64, 89
1, 168362, Control_c, 0, 64, 94
1, 168370, Note_off_c, 0, 51, 61
1, 168377, Control_c, 0, 64, 98
1, 168391, Control_c, 0, 64, 101
1, 168391, Control_c, 0, 67, 21
1, 168394, Note_off_c, 0, 75, 62
1, 168406, Control_c, 0, 64, 104
1, 168421, Control_c, 0, 64, 105
1, 168423, Note_off_c, 0, 70, 31
1, 168436, Control_c, 0, 64, 105
1, 168451, Control_c, 0, 67, 20
1, 168465, Control_c, 0, 67, 20
1, 168495, Control_c, 0, 67, 19
1, 168498, Note_on_c, 0, 51, 48
1, 168510, Control_c, 0, 67, 19
1, 168525, Control_c, 0, 67, 18
1, 168540, Control_c, 0, 67, 18
1, 168569, Control_c, 0, 67, 17
1, 168571, Note_off_c, 0, 51, 54
1, 168587, Note_on_c, 0, 70, 57
1, 168593, Note_on_c, 0, 74, 50
1, 168599, Control_c, 0, 67, 17
1, 168605, Note_on_c, 0, 46, 55
1, 168614, Note_on_c, 0, 67, 37
1, 168629, Control_c, 0, 67, 17
1, 168635, Note_on_c, 0, 75, 77
1, 168644, Control_c, 0, 67, 19
1, 168644, Note_off_c, 0, 46, 62
1, 168649, Note_off_c, 0, 67, 47
1, 168649, Note_off_c, 0, 70, 63
1, 168657, Note_off_c, 0, 74, 63
1, 168659, Control_c, 0, 67, 20
1, 168660, Note_off_c, 0, 75, 69
1, 168662, Note_on_c, 0, 39, 57
1, 168674, Control_c, 0, 67, 21
1, 168689, Control_c, 0, 64, 107
1, 168689, Control_c, 0, 67, 21
1, 168694, Note_off_c, 0, 39, 61
1, 168704, Control_c, 0, 64, 111
1, 168704, Control_c, 0, 67, 22
1, 168718, Control_c, 0, 64, 118
1, 168733, Control_c, 0, 64, 127
1, 168733, Control_c, 0, 67, 22
1, 168807, Control_c, 0, 67, 22
1, 168837, Control_c, 0, 67, 21
1, 168852, Control_c, 0, 64, 114
1, 168852, Control_c, 0, 67, 21
1, 168861, Note_on_c, 0, 89, 70
1, 168865, Note_on_c, 0, 82, 67
1, 168866, Control_c, 0, 64, 101
1, 168866, Control_c, 0, 67, 20
1, 168881, Control_c, 0, 64, 87
1, 168881, Control_c, 0, 67, 19
1, 168896, Control_c, 0, 64, 77
1, 168896, Control_c, 0, 67, 19
1, 168910, Control_c, 0, 64, 69
1, 168910, Control_c, 0, 67, 18
1, 168924, Control_c, 0, 64, 66
1, 168924, Control_c, 0, 67, 18
1, 168926, Note_off_c, 0, 82, 53
1, 168939, Control_c, 0, 64, 68
1, 168954, Control_c, 0, 64, 72
1, 168954, Control_c, 0, 67, 17
1, 168966, Note_on_c, 0, 68, 56
1, 168969, Control_c, 0, 64, 77
1, 168976, Note_on_c, 0, 91, 78
1, 168991, Control_c, 0, 64, 80
1, 169006, Control_c, 0, 64, 81
1, 169019, Note_off_c, 0, 89, 55
1, 169021, Control_c, 0, 64, 82
1, 169021, Control_c, 0, 67, 16
1, 169022, Note_off_c, 0, 68, 56
1, 169033, Note_off_c, 0, 91, 60
1, 169036, Control_c, 0, 64, 83
1, 169051, Control_c, 0, 64, 83
1, 169051, Control_c, 0, 67, 16
1, 169065, Control_c, 0, 64, 84
1, 169079, Note_on_c, 0, 62, 50
1, 169080, Control_c, 0, 64, 85
1, 169080, Control_c, 0, 67, 15
1, 169082, Note_on_c, 0, 92, 84
1, 169109, Control_c, 0, 64, 86
1, 169109, Control_c, 0, 67, 15
1, 169120, Note_off_c, 0, 92, 64
1, 169124, Control_c, 0, 67, 14
1, 169139, Control_c, 0, 67, 13
1, 169144, Note_off_c, 0, 62, 53
1, 169154, Control_c, 0, 67, 13
1, 169168, Note_on_c, 0, 58, 54
1, 169170, Control_c, 0, 67, 12
1, 169185, Note_on_c, 0, 96, 82
1, 169185, Control_c, 0, 67, 9
1, 169193, Note_off_c, 0, 58, 59
1, 169200, Control_c, 0, 67, 0
1, 169207, Note_off_c, 0, 96, 62
1, 169302, Note_on_c, 0, 82, 64
1, 169321, Note_on_c, 0, 92, 35
1, 169323, Note_off_c, 0, 82, 60
1, 169357, Note_off_c, 0, 92, 32
1, 169383, Note_on_c, 0, 92, 70
1, 169417, Note_on_c, 0, 50, 39
1, 169419, Note_on_c, 0, 52, 22
1, 169437, Note_off_c, 0, 92, 63
1, 169458, Note_off_c, 0, 50, 48
1, 169458, Note_off_c, 0, 52, 52
1, 169473, Note_on_c, 0, 92, 60
1, 169498, Note_on_c, 0, 46, 54
1, 169511, Control_c, 0, 64, 85
1, 169525, Control_c, 0, 64, 81
1, 169540, Control_c, 0, 64, 74
1, 169547, Note_off_c, 0, 92, 58
1, 169555, Control_c, 0, 64, 60
1, 169565, Note_off_c, 0, 46, 57
1, 169570, Control_c, 0, 64, 0
1, 169576, Note_on_c, 0, 89, 67
1, 169592, Note_on_c, 0, 39, 54
1, 169622, Note_off_c, 0, 39, 61
1, 169644, Control_c, 0, 64, 44
1, 169659, Control_c, 0, 64, 56
1, 169671, Note_on_c, 0, 92, 66
1, 169673, Note_on_c, 0, 94, 87
1, 169673, Control_c, 0, 64, 58
1, 169681, Note_on_c, 0, 82, 71
1, 169687, Control_c, 0, 64, 59
1, 169688, Note_off_c, 0, 89, 37
1, 169699, Note_off_c, 0, 92, 65
1, 169702, Control_c, 0, 64, 62
1, 169717, Control_c, 0, 64, 64
1, 169739, Control_c, 0, 64, 65
1, 169754, Control_c, 0, 64, 68
1, 169756, Note_off_c, 0, 94, 57
1, 169768, Note_off_c, 0, 82, 59
1, 169769, Control_c, 0, 64, 72
1, 169784, Control_c, 0, 64, 75
1, 169799, Control_c, 0, 64, 78
1, 169813, Control_c, 0, 64, 79
1, 169815, Note_on_c, 0, 67, 29
1, 169843, Control_c, 0, 64, 79
1, 169857, Note_off_c, 0, 67, 48
1, 169873, Control_c, 0, 64, 80
1, 169882, Note_on_c, 0, 63, 54
1, 169890, Note_on_c, 0, 91, 74
1, 169890, Note_on_c, 0, 94, 77
1, 169891, Note_on_c, 0, 82, 75
1, 169902, Control_c, 0, 64, 80
1, 169917, Control_c, 0, 64, 81
1, 169947, Control_c, 0, 64, 81
1, 169951, Note_off_c, 0, 82, 55
1, 169952, Note_off_c, 0, 63, 55
1, 169962, Note_off_c, 0, 94, 62
1, 169962, Control_c, 0, 64, 82
1, 169985, Note_off_c, 0, 91, 56
1, 169992, Control_c, 0, 64, 83
1, 170000, Note_on_c, 0, 58, 52
1, 170007, Control_c, 0, 64, 84
1, 170022, Control_c, 0, 64, 85
1, 170027, Note_off_c, 0, 58, 62
1, 170036, Control_c, 0, 64, 87
1, 170048, Note_on_c, 0, 90, 66
1, 170051, Note_on_c, 0, 93, 62
1, 170078, Note_off_c, 0, 90, 64
1, 170080, Note_off_c, 0, 93, 64
1, 170081, Control_c, 0, 64, 86
1, 170096, Control_c, 0, 64, 82
1, 170109, Note_on_c, 0, 94, 87
1, 170111, Control_c, 0, 64, 75
1, 170114, Note_on_c, 0, 91, 74
1, 170115, Note_on_c, 0, 82, 79
1, 170125, Control_c, 0, 64, 64
1, 170140, Control_c, 0, 64, 54
1, 170155, Control_c, 0, 64, 61
1, 170170, Control_c, 0, 64, 66
1, 170185, Control_c, 0, 64, 71
1, 170200, Control_c, 0, 64, 77
1, 170203, Note_on_c, 0, 51, 57
1, 170208, Note_off_c, 0, 94, 62
1, 170215, Control_c, 0, 64, 81
1, 170229, Control_c, 0, 64, 83
1, 170242, Note_off_c, 0, 91, 59
1, 170259, Control_c, 0, 64, 83
1, 170272, Note_off_c, 0, 51, 47
1, 170274, Control_c, 0, 64, 84
1, 170298, Note_on_c, 0, 46, 58
1, 170298, Note_off_c, 0, 82, 64
1, 170303, Control_c, 0, 64, 84
1, 170362, Control_c, 0, 67, 9
1, 170370, Note_off_c, 0, 46, 55
1, 170377, Control_c, 0, 67, 11
1, 170392, Control_c, 0, 67, 12
1, 170393, Note_on_c, 0, 39, 52
1, 170407, Control_c, 0, 64, 85
1, 170407, Control_c, 0, 67, 13
1, 170421, Note_off_c, 0, 39, 59
1, 170422, Control_c, 0, 67, 14
1, 170436, Control_c, 0, 67, 15
1, 170451, Control_c, 0, 67, 15
1, 170518, Control_c, 0, 64, 82
1, 170533, Control_c, 0, 64, 76
1, 170548, Control_c, 0, 64, 65
1, 170562, Control_c, 0, 64, 0
1, 170575, Note_on_c, 0, 77, 69
1, 170579, Note_on_c, 0, 70, 62
1, 170592, Control_c, 0, 64, 29
1, 170607, Control_c, 0, 64, 61
1, 170614, Note_off_c, 0, 70, 62
1, 170622, Control_c, 0, 64, 67
1, 170636, Control_c, 0, 64, 70
1, 170651, Control_c, 0, 64, 73
1, 170666, Control_c, 0, 64, 74
1, 170674, Note_on_c, 0, 68, 51
1, 170680, Control_c, 0, 64, 74
1, 170680, Control_c, 0, 67, 15
1, 170695, Control_c, 0, 64, 75
1, 170697, Note_on_c, 0, 79, 54
1, 170710, Control_c, 0, 64, 75
1, 170710, Control_c, 0, 67, 14
1, 170712, Note_off_c, 0, 77, 55
1, 170721, Note_off_c, 0, 79, 57
1, 170722, Note_off_c, 0, 68, 46
1, 170725, Control_c, 0, 64, 76
1, 170740, Control_c, 0, 64, 76
1, 170756, Control_c, 0, 64, 77
1, 170756, Control_c, 0, 67, 15
1, 170771, Control_c, 0, 67, 15
1, 170787, Note_on_c, 0, 62, 47
1, 170796, Note_on_c, 0, 80, 72
1, 170835, Note_off_c, 0, 80, 64
1, 170844, Note_off_c, 0, 62, 48
1, 170845, Control_c, 0, 67, 15
1, 170882, Note_on_c, 0, 58, 46
1, 170889, Control_c, 0, 67, 15
1, 170908, Note_on_c, 0, 84, 70
1, 170908, Note_off_c, 0, 58, 57
1, 170919, Control_c, 0, 67, 16
1, 170933, Control_c, 0, 64, 76
1, 170941, Note_off_c, 0, 84, 63
1, 170948, Control_c, 0, 64, 76
1, 170948, Control_c, 0, 67, 16
1, 170963, Control_c, 0, 64, 74
1, 170978, Control_c, 0, 64, 72
1, 170993, Control_c, 0, 64, 68
1, 171008, Control_c, 0, 64, 63
1, 171011, Note_on_c, 0, 82, 74
1, 171016, Note_on_c, 0, 70, 68
1, 171023, Control_c, 0, 64, 57
1, 171023, Control_c, 0, 67, 17
1, 171038, Control_c, 0, 64, 50
1, 171038, Control_c, 0, 67, 17
1, 171043, Note_off_c, 0, 70, 67
1, 171052, Control_c, 0, 64, 43
1, 171052, Control_c, 0, 67, 18
1, 171067, Control_c, 0, 64, 36
1, 171075, Note_off_c, 0, 82, 61
1, 171082, Control_c, 0, 64, 27
1, 171097, Control_c, 0, 64, 0
1, 171119, Note_on_c, 0, 80, 72
1, 171124, Note_on_c, 0, 50, 43
1, 171173, Note_off_c, 0, 80, 61
1, 171175, Note_off_c, 0, 50, 45
1, 171233, Note_on_c, 0, 79, 70
1, 171237, Control_c, 0, 67, 18
1, 171248, Note_on_c, 0, 46, 40
1, 171267, Control_c, 0, 67, 19
1, 171291, Note_off_c, 0, 79, 52
1, 171294, Note_off_c, 0, 46, 56
1, 171311, Control_c, 0, 67, 19
1, 171341, Note_on_c, 0, 39, 34
1, 171341, Control_c, 0, 67, 20
1, 171345, Note_on_c, 0, 77, 61
1, 171356, Control_c, 0, 67, 21
1, 171371, Control_c, 0, 67, 23
1, 171377, Note_off_c, 0, 39, 53
1, 171378, Note_off_c, 0, 77, 60
1, 171385, Control_c, 0, 67, 26
1, 171400, Control_c, 0, 67, 27
1, 171415, Control_c, 0, 67, 29
1, 171419, Note_on_c, 0, 78, 66
1, 171430, Control_c, 0, 67, 32
1, 171445, Control_c, 0, 67, 34
1, 171453, Note_off_c, 0, 78, 63
1, 171459, Control_c, 0, 67, 37
1, 171461, Note_on_c, 0, 79, 73
1, 171474, Control_c, 0, 67, 40
1, 171489, Control_c, 0, 67, 43
1, 171491, Note_off_c, 0, 79, 63
1, 171503, Control_c, 0, 67, 47
1, 171518, Control_c, 0, 67, 50
1, 171533, Control_c, 0, 67, 52
1, 171548, Control_c, 0, 67, 55
1, 171564, Control_c, 0, 67, 57
1, 171579, Control_c, 0, 67, 60
1, 171594, Control_c, 0, 67, 62
1, 171608, Control_c, 0, 67, 64
1, 171623, Control_c, 0, 67, 67
1, 171638, Control_c, 0, 67, 69
1, 171653, Control_c, 0, 67, 70
1, 171666, Note_on_c, 0, 39, 35
1, 171668, Control_c, 0, 67, 71
1, 171682, Control_c, 0, 67, 71
1, 171697, Control_c, 0, 67, 72
1, 171700, Note_off_c, 0, 39, 58
1, 171763, Note_on_c, 0, 70, 62
1, 171778, Note_on_c, 0, 67, 49
1, 171786, Control_c, 0, 67, 72
1, 171791, Note_on_c, 0, 55, 32
1, 171801, Note_off_c, 0, 70, 58
1, 171801, Control_c, 0, 67, 73
1, 171804, Note_off_c, 0, 67, 58
1, 171824, Note_off_c, 0, 55, 52
1, 171845, Control_c, 0, 67, 74
1, 171848, Note_on_c, 0, 75, 64
1, 171860, Control_c, 0, 67, 77
1, 171871, Note_off_c, 0, 75, 66
1, 171875, Control_c, 0, 67, 82
1, 171890, Control_c, 0, 67, 85
1, 171905, Control_c, 0, 67, 89
1, 171920, Control_c, 0, 67, 93
1, 171934, Control_c, 0, 67, 98
1, 171949, Control_c, 0, 67, 102
1, 171964, Control_c, 0, 67, 106
1, 171986, Control_c, 0, 67, 109
1, 172001, Control_c, 0, 67, 112
1, 172015, Control_c, 0, 67, 113
1, 172030, Control_c, 0, 67, 115
1, 172045, Control_c, 0, 67, 116
1, 172060, Control_c, 0, 67, 117
1, 172071, Note_on_c, 0, 41, 34
1, 172075, Control_c, 0, 67, 118
1, 172090, Control_c, 0, 67, 119
1, 172105, Control_c, 0, 67, 120
1, 172120, Note_off_c, 0, 41, 47
1, 172120, Control_c, 0, 67, 120
1, 172134, Control_c, 0, 67, 121
1, 172143, Note_on_c, 0, 74, 55
1, 172144, Note_on_c, 0, 68, 55
1, 172149, Control_c, 0, 67, 122
1, 172152, Note_on_c, 0, 56, 49
1, 172164, Control_c, 0, 67, 123
1, 172179, Control_c, 0, 67, 124
1, 172183, Note_off_c, 0, 68, 63
1, 172188, Note_off_c, 0, 56, 56
1, 172194, Control_c, 0, 67, 125
1, 172208, Control_c, 0, 67, 126
1, 172223, Control_c, 0, 67, 126
1, 172238, Note_off_c, 0, 74, 64
1, 172238, Control_c, 0, 67, 127
1, 172250, Note_on_c, 0, 77, 54
1, 172274, Note_off_c, 0, 77, 56
1, 172537, Note_on_c, 0, 43, 41
1, 172571, Note_off_c, 0, 43, 47
1, 172643, Note_on_c, 0, 62, 44
1, 172643, Note_on_c, 0, 65, 34
1, 172648, Note_on_c, 0, 59, 38
1, 172671, Note_off_c, 0, 65, 53
1, 172673, Note_off_c, 0, 62, 53
1, 172680, Note_off_c, 0, 59, 53
1, 172741, Note_on_c, 0, 71, 63
1, 172791, Note_off_c, 0, 71, 52
1, 173166, Control_c, 0, 64, 31
1, 173180, Control_c, 0, 64, 48
1, 173195, Control_c, 0, 64, 58
1, 173210, Control_c, 0, 64, 61
1, 173225, Control_c, 0, 64, 63
1, 173240, Control_c, 0, 64, 65
1, 173244, Note_on_c, 0, 48, 38
1, 173254, Control_c, 0, 64, 67
1, 173269, Control_c, 0, 64, 69
1, 173284, Control_c, 0, 64, 72
1, 173299, Control_c, 0, 64, 74
1, 173314, Control_c, 0, 64, 76
1, 173328, Control_c, 0, 64, 77
1, 173343, Control_c, 0, 64, 78
1, 173351, Note_on_c, 0, 55, 39
1, 173358, Control_c, 0, 64, 78
1, 173372, Control_c, 0, 64, 79
1, 173384, Note_off_c, 0, 48, 33
1, 173387, Control_c, 0, 64, 79
1, 173402, Control_c, 0, 64, 80
1, 173432, Control_c, 0, 64, 80
1, 173446, Control_c, 0, 64, 81
1, 173461, Control_c, 0, 64, 81
1, 173499, Control_c, 0, 64, 82
1, 173513, Control_c, 0, 64, 82
1, 173543, Control_c, 0, 64, 83
1, 173573, Control_c, 0, 64, 83
1, 173587, Control_c, 0, 64, 84
1, 173602, Control_c, 0, 64, 84
1, 173632, Control_c, 0, 64, 85
1, 173665, Note_on_c, 0, 72, 70
1, 173677, Note_on_c, 0, 67, 57
1, 173696, Note_on_c, 0, 63, 46
1, 173735, Control_c, 0, 64, 85
1, 173825, Control_c, 0, 64, 86
1, 173913, Control_c, 0, 64, 86
1, 173961, Note_off_c, 0, 63, 33
1, 174035, Note_off_c, 0, 55, 33
1, 174063, Control_c, 0, 64, 87
1, 175239, Note_on_c, 0, 71, 60
1, 175284, Note_off_c, 0, 72, 55
1, 175575, Control_c, 0, 64, 86
1, 175602, Note_on_c, 0, 72, 72
1, 175649, Note_off_c, 0, 71, 55
1, 175767, Note_on_c, 0, 74, 75
1, 175798, Note_off_c, 0, 72, 63
1, 175905, Note_on_c, 0, 72, 80
1, 175947, Note_off_c, 0, 74, 58
1, 176022, Note_on_c, 0, 71, 78
1, 176055, Note_off_c, 0, 72, 63
1, 176165, Note_on_c, 0, 44, 55
1, 176170, Note_on_c, 0, 72, 82
1, 176200, Note_off_c, 0, 71, 59
1, 176210, Note_off_c, 0, 67, 36
1, 176236, Note_off_c, 0, 44, 62
1, 176260, Note_on_c, 0, 53, 57
1, 176260, Note_off_c, 0, 72, 62
1, 176346, Note_on_c, 0, 60, 54
1, 176353, Control_c, 0, 64, 86
1, 176397, Control_c, 0, 64, 85
1, 176427, Control_c, 0, 64, 85
1, 176442, Control_c, 0, 64, 84
1, 176450, Note_on_c, 0, 65, 68
1, 176479, Control_c, 0, 64, 83
1, 176494, Control_c, 0, 64, 82
1, 176509, Note_on_c, 0, 72, 71
1, 176509, Control_c, 0, 64, 80
1, 176523, Control_c, 0, 64, 76
1, 176538, Control_c, 0, 64, 70
1, 176553, Control_c, 0, 64, 63
1, 176568, Control_c, 0, 64, 33
1, 176569, Note_on_c, 0, 77, 83
1, 176583, Control_c, 0, 64, 0
1, 176835, Control_c, 0, 64, 10
1, 176850, Control_c, 0, 64, 34
1, 176865, Control_c, 0, 64, 42
1, 176879, Control_c, 0, 64, 48
1, 176894, Control_c, 0, 64, 52
1, 176909, Control_c, 0, 64, 56
1, 176923, Control_c, 0, 64, 60
1, 176938, Control_c, 0, 64, 62
1, 176953, Control_c, 0, 64, 63
1, 176968, Control_c, 0, 64, 64
1, 176983, Control_c, 0, 64, 66
1, 176997, Control_c, 0, 64, 68
1, 177012, Control_c, 0, 64, 70
1, 177027, Control_c, 0, 64, 73
1, 177042, Control_c, 0, 64, 75
1, 177057, Control_c, 0, 64, 77
1, 177071, Control_c, 0, 64, 78
1, 177086, Control_c, 0, 64, 79
1, 177101, Control_c, 0, 64, 80
1, 177116, Control_c, 0, 64, 81
1, 177131, Control_c, 0, 64, 82
1, 177146, Control_c, 0, 64, 82
1, 177177, Control_c, 0, 64, 83
1, 177192, Control_c, 0, 64, 83
1, 177207, Control_c, 0, 64, 84
1, 177259, Control_c, 0, 64, 84
1, 177289, Control_c, 0, 64, 85
1, 177318, Control_c, 0, 64, 85
1, 177333, Control_c, 0, 64, 86
1, 177357, Note_off_c, 0, 77, 30
1, 177377, Control_c, 0, 64, 86
1, 177421, Control_c, 0, 64, 87
1, 177481, Control_c, 0, 64, 87
1, 177527, Note_off_c, 0, 72, 36
1, 177628, Control_c, 0, 64, 88
1, 177703, Note_off_c, 0, 53, 37
1, 177730, Note_off_c, 0, 60, 26
1, 177747, Control_c, 0, 64, 88
1, 178004, Note_on_c, 0, 75, 61
1, 178070, Note_off_c, 0, 65, 38
1, 178274, Control_c, 0, 64, 88
1, 178392, Control_c, 0, 64, 87
1, 178451, Control_c, 0, 64, 87
1, 178481, Control_c, 0, 64, 86
1, 178496, Control_c, 0, 64, 86
1, 178497, Note_on_c, 0, 46, 39
1, 178511, Control_c, 0, 64, 85
1, 178526, Control_c, 0, 64, 85
1, 178541, Control_c, 0, 64, 84
1, 178555, Control_c, 0, 64, 82
1, 178570, Control_c, 0, 64, 80
1, 178585, Control_c, 0, 64, 77
1, 178600, Control_c, 0, 64, 74
1, 178615, Control_c, 0, 64, 69
1, 178630, Control_c, 0, 64, 64
1, 178644, Control_c, 0, 64, 56
1, 178654, Note_on_c, 0, 53, 39
1, 178659, Control_c, 0, 64, 51
1, 178674, Control_c, 0, 64, 50
1, 178831, Note_on_c, 0, 58, 46
1, 178904, Control_c, 0, 64, 50
1, 179006, Note_on_c, 0, 62, 46
1, 179023, Control_c, 0, 64, 50
1, 179112, Control_c, 0, 64, 51
1, 179222, Note_on_c, 0, 68, 51
1, 179231, Note_off_c, 0, 75, 39
1, 179245, Control_c, 0, 64, 52
1, 179260, Control_c, 0, 64, 54
1, 179274, Control_c, 0, 64, 59
1, 179289, Control_c, 0, 64, 64
1, 179304, Control_c, 0, 64, 67
1, 179319, Control_c, 0, 64, 71
1, 179333, Control_c, 0, 64, 74
1, 179348, Control_c, 0, 64, 76
1, 179363, Control_c, 0, 64, 77
1, 179378, Control_c, 0, 64, 78
1, 179393, Control_c, 0, 64, 78
1, 179528, Note_on_c, 0, 75, 56
1, 179548, Control_c, 0, 64, 78
1, 179563, Control_c, 0, 64, 76
1, 179578, Control_c, 0, 64, 73
1, 179593, Control_c, 0, 64, 67
1, 179608, Control_c, 0, 64, 57
1, 179623, Control_c, 0, 64, 48
1, 179638, Control_c, 0, 64, 52
1, 179652, Control_c, 0, 64, 59
1, 179667, Control_c, 0, 64, 64
1, 179682, Control_c, 0, 64, 67
1, 179697, Control_c, 0, 64, 71
1, 179712, Control_c, 0, 64, 73
1, 179727, Control_c, 0, 64, 74
1, 179741, Control_c, 0, 64, 75
1, 179756, Control_c, 0, 64, 76
1, 179771, Control_c, 0, 64, 77
1, 179786, Control_c, 0, 64, 77
1, 179801, Control_c, 0, 64, 78
1, 179815, Control_c, 0, 64, 78
1, 179841, Note_off_c, 0, 75, 34
1, 179860, Control_c, 0, 64, 79
1, 180064, Note_on_c, 0, 74, 52
1, 180097, Control_c, 0, 64, 78
1, 180112, Control_c, 0, 64, 77
1, 180126, Control_c, 0, 64, 76
1, 180141, Control_c, 0, 64, 74
1, 180156, Control_c, 0, 64, 71
1, 180171, Control_c, 0, 64, 65
1, 180186, Control_c, 0, 64, 57
1, 180201, Control_c, 0, 64, 39
1, 180222, Control_c, 0, 64, 15
1, 180237, Control_c, 0, 64, 0
1, 180267, Control_c, 0, 64, 20
1, 180281, Control_c, 0, 64, 28
1, 180296, Control_c, 0, 64, 35
1, 180311, Control_c, 0, 64, 44
1, 180326, Control_c, 0, 64, 53
1, 180342, Control_c, 0, 64, 59
1, 180357, Control_c, 0, 64, 63
1, 180371, Control_c, 0, 64, 65
1, 180386, Control_c, 0, 64, 67
1, 180401, Control_c, 0, 64, 69
1, 180416, Control_c, 0, 64, 71
1, 180431, Control_c, 0, 64, 73
1, 180445, Control_c, 0, 64, 74
1, 180460, Control_c, 0, 64, 76
1, 180475, Control_c, 0, 64, 78
1, 180490, Control_c, 0, 64, 79
1, 180505, Control_c, 0, 64, 79
1, 180520, Control_c, 0, 64, 80
1, 180535, Control_c, 0, 64, 80
1, 180564, Control_c, 0, 64, 81
1, 180594, Control_c, 0, 64, 81
1, 180624, Control_c, 0, 64, 82
1, 180653, Control_c, 0, 64, 82
1, 180692, Note_off_c, 0, 58, 25
1, 180712, Control_c, 0, 64, 83
1, 180742, Control_c, 0, 64, 83
1, 180791, Note_off_c, 0, 53, 34
1, 180798, Note_off_c, 0, 46, 33
1, 180816, Control_c, 0, 64, 84
1, 180823, Note_off_c, 0, 62, 30
1, 180869, Note_off_c, 0, 74, 34
1, 181033, Note_off_c, 0, 68, 33
1, 181781, Control_c, 0, 64, 83
1, 181795, Control_c, 0, 64, 82
1, 181799, Note_on_c, 0, 62, 8
1, 181810, Control_c, 0, 64, 80
1, 181825, Control_c, 0, 64, 78
1, 181834, Note_on_c, 0, 68, 50
1, 181839, Control_c, 0, 64, 75
1, 181847, Note_off_c, 0, 62, 36
1, 181854, Control_c, 0, 64, 71
1, 181869, Control_c, 0, 64, 66
1, 181876, Note_on_c, 0, 34, 38
1, 181882, Note_off_c, 0, 68, 50
1, 181884, Control_c, 0, 64, 58
1, 181891, Note_on_c, 0, 77, 66
1, 181899, Control_c, 0, 64, 43
1, 181914, Control_c, 0, 64, 35
1, 181927, Note_off_c, 0, 77, 61
1, 181928, Note_off_c, 0, 34, 56
1, 181928, Control_c, 0, 64, 23
1, 181944, Control_c, 0, 64, 0
1, 182381, Note_on_c, 0, 39, 42
1, 182401, Note_on_c, 0, 67, 53
1, 182401, Note_on_c, 0, 75, 58
1, 182402, Control_c, 0, 67, 127
1, 182407, Note_off_c, 0, 39, 56
1, 182416, Control_c, 0, 67, 125
1, 182425, Note_off_c, 0, 67, 61
1, 182431, Control_c, 0, 67, 123
1, 182438, Note_off_c, 0, 75, 62
1, 182446, Control_c, 0, 67, 121
1, 182468, Control_c, 0, 67, 119
1, 182483, Control_c, 0, 67, 116
1, 182498, Control_c, 0, 67, 114
1, 182513, Control_c, 0, 67, 110
1, 182528, Control_c, 0, 67, 106
1, 182531, Note_on_c, 0, 70, 56
1, 182538, Note_on_c, 0, 77, 50
1, 182542, Control_c, 0, 67, 102
1, 182550, Note_off_c, 0, 70, 65
1, 182557, Control_c, 0, 67, 98
1, 182561, Note_off_c, 0, 77, 57
1, 182572, Control_c, 0, 67, 94
1, 182587, Control_c, 0, 67, 90
1, 182602, Control_c, 0, 67, 86
1, 182612, Note_on_c, 0, 79, 69
1, 182616, Note_on_c, 0, 75, 64
1, 182616, Control_c, 0, 67, 82
1, 182624, Note_on_c, 0, 67, 59
1, 182625, Note_on_c, 0, 63, 53
1, 182627, Note_on_c, 0, 55, 52
1, 182631, Control_c, 0, 67, 77
1, 182638, Note_off_c, 0, 75, 67
1, 182641, Note_off_c, 0, 79, 63
1, 182646, Control_c, 0, 67, 70
1, 182660, Control_c, 0, 67, 65
1, 182675, Control_c, 0, 67, 60
1, 182690, Control_c, 0, 67, 55
1, 182705, Control_c, 0, 67, 51
1, 182715, Note_on_c, 0, 80, 76
1, 182720, Note_on_c, 0, 77, 65
1, 182720, Control_c, 0, 67, 48
1, 182736, Control_c, 0, 67, 46
1, 182741, Note_off_c, 0, 80, 64
1, 182742, Note_off_c, 0, 77, 64
1, 182751, Control_c, 0, 67, 44
1, 182765, Control_c, 0, 67, 42
1, 182780, Control_c, 0, 67, 41
1, 182795, Control_c, 0, 67, 40
1, 182810, Control_c, 0, 67, 40
1, 182817, Note_on_c, 0, 84, 77
1, 182820, Note_on_c, 0, 82, 77
1, 182830, Note_on_c, 0, 79, 65
1, 182839, Control_c, 0, 67, 39
1, 182844, Note_off_c, 0, 84, 66
1, 182846, Note_off_c, 0, 79, 62
1, 182854, Control_c, 0, 67, 39
1, 182855, Note_off_c, 0, 82, 61
1, 182870, Note_off_c, 0, 55, 33
1, 182884, Control_c, 0, 67, 38
1, 182888, Note_off_c, 0, 67, 39
1, 182897, Note_off_c, 0, 63, 39
1, 182899, Control_c, 0, 67, 38
1, 182928, Control_c, 0, 67, 37
1, 182943, Control_c, 0, 67, 34
1, 182958, Control_c, 0, 67, 28
1, 182973, Control_c, 0, 67, 15
1, 182981, Note_on_c, 0, 81, 67
1, 182988, Control_c, 0, 67, 0
1, 182991, Note_on_c, 0, 78, 60
1, 182997, Note_off_c, 0, 81, 63
1, 183009, Note_off_c, 0, 78, 61
1, 183027, Note_on_c, 0, 82, 89
1, 183030, Note_on_c, 0, 79, 80
1, 183037, Note_on_c, 0, 63, 67
1, 183039, Note_on_c, 0, 67, 59
1, 183042, Note_off_c, 0, 79, 70
1, 183043, Note_on_c, 0, 58, 67
1, 183047, Note_off_c, 0, 82, 67
1, 183058, Note_off_c, 0, 67, 60
1, 183063, Note_off_c, 0, 63, 67
1, 183075, Note_off_c, 0, 58, 67
1, 183247, Control_c, 0, 64, 64
1, 183262, Control_c, 0, 64, 74
1, 183277, Control_c, 0, 64, 87
1, 183279, Note_on_c, 0, 56, 108
1, 183286, Note_on_c, 0, 44, 93
1, 183291, Note_on_c, 0, 32, 83
1, 183291, Control_c, 0, 64, 100
1, 183302, Note_off_c, 0, 56, 65
1, 183306, Control_c, 0, 64, 111
1, 183316, Note_off_c, 0, 32, 65
1, 183321, Control_c, 0, 64, 126
1, 183331, Note_off_c, 0, 44, 61
1, 183336, Control_c, 0, 64, 127
1, 183425, Control_c, 0, 64, 125
1, 183439, Control_c, 0, 64, 112
1, 183454, Control_c, 0, 64, 103
1, 183469, Control_c, 0, 64, 93
1, 183483, Control_c, 0, 64, 82
1, 183485, Note_on_c, 0, 84, 90
1, 183488, Note_on_c, 0, 75, 86
1, 183490, Note_on_c, 0, 72, 79
1, 183493, Note_on_c, 0, 68, 76
1, 183498, Control_c, 0, 64, 69
1, 183499, Note_on_c, 0, 63, 58
1, 183502, Note_off_c, 0, 72, 72
1, 183502, Note_off_c, 0, 84, 72
1, 183503, Note_on_c, 0, 56, 62
1, 183506, Note_off_c, 0, 75, 74
1, 183513, Control_c, 0, 64, 26
1, 183519, Note_off_c, 0, 68, 70
1, 183520, Note_off_c, 0, 63, 40
1, 183528, Control_c, 0, 64, 0
1, 183537, Note_off_c, 0, 56, 61
1, 183641, Note_on_c, 0, 67, 68
1, 183660, Note_on_c, 0, 55, 24
1, 183665, Note_off_c, 0, 67, 65
1, 183704, Note_on_c, 0, 80, 88
1, 183704, Note_off_c, 0, 55, 30
1, 183709, Note_on_c, 0, 72, 80
1, 183709, Note_on_c, 0, 84, 77
1, 183723, Note_off_c, 0, 80, 70
1, 183724, Note_off_c, 0, 84, 71
1, 183729, Note_off_c, 0, 72, 72
1, 183738, Note_on_c, 0, 63, 69
1, 183739, Note_on_c, 0, 68, 72
1, 183741, Note_on_c, 0, 56, 54
1, 183847, Note_off_c, 0, 68, 26
1, 183868, Note_off_c, 0, 56, 0
1, 183868, Note_on_c, 0, 56, 3
1, 183868, Note_on_c, 0, 71, 72
1, 183872, Note_off_c, 0, 63, 53
1, 183873, Note_on_c, 0, 83, 62
1, 183884, Note_off_c, 0, 71, 65
1, 183891, Note_off_c, 0, 83, 41
1, 183897, Note_off_c, 0, 56, 61
1, 183900, Note_on_c, 0, 79, 21
1, 183901, Note_off_c, 0, 79, 127
1, 183901, Control_c, 0, 64, 62
1, 183915, Control_c, 0, 64, 70
1, 183930, Note_on_c, 0, 80, 92
1, 183930, Note_on_c, 0, 84, 85
1, 183930, Control_c, 0, 64, 78
1, 183942, Note_on_c, 0, 72, 68
1, 183945, Control_c, 0, 64, 86
1, 183948, Note_off_c, 0, 80, 70
1, 183948, Note_off_c, 0, 84, 73
1, 183965, Note_off_c, 0, 72, 68
1, 183967, Control_c, 0, 64, 89
1, 183982, Control_c, 0, 64, 92
1, 183996, Control_c, 0, 64, 94
1, 184011, Control_c, 0, 64, 96
1, 184026, Control_c, 0, 64, 98
1, 184040, Control_c, 0, 64, 99
1, 184055, Control_c, 0, 64, 100
1, 184149, Note_on_c, 0, 55, 110
1, 184159, Note_on_c, 0, 43, 98
1, 184164, Note_on_c, 0, 31, 93
1, 184169, Note_off_c, 0, 55, 70
1, 184187, Note_off_c, 0, 31, 66
1, 184195, Note_off_c, 0, 43, 61
1, 184204, Control_c, 0, 64, 100
1, 184233, Control_c, 0, 64, 101
1, 184248, Control_c, 0, 64, 101
1, 184293, Control_c, 0, 64, 101
1, 184307, Control_c, 0, 64, 100
1, 184322, Control_c, 0, 64, 98
1, 184338, Control_c, 0, 64, 91
1, 184353, Control_c, 0, 64, 80
1, 184356, Note_on_c, 0, 75, 84
1, 184356, Note_on_c, 0, 82, 89
1, 184359, Note_on_c, 0, 70, 86
1, 184361, Note_on_c, 0, 55, 79
1, 184361, Note_on_c, 0, 63, 81
1, 184362, Note_on_c, 0, 67, 78
1, 184368, Control_c, 0, 64, 66
1, 184382, Note_off_c, 0, 70, 61
1, 184383, Control_c, 0, 64, 0
1, 184386, Note_off_c, 0, 75, 62
1, 184387, Note_off_c, 0, 63, 68
1, 184387, Note_off_c, 0, 67, 65
1, 184392, Note_off_c, 0, 55, 56
1, 184404, Note_off_c, 0, 82, 56
1, 184505, Note_on_c, 0, 66, 71
1, 184512, Note_on_c, 0, 54, 54
1, 184530, Note_off_c, 0, 66, 68
1, 184534, Note_off_c, 0, 54, 56
1, 184569, Note_on_c, 0, 82, 81
1, 184570, Note_on_c, 0, 70, 84
1, 184571, Note_on_c, 0, 79, 73
1, 184588, Note_on_c, 0, 63, 75
1, 184589, Note_on_c, 0, 55, 69
1, 184589, Note_on_c, 0, 67, 77
1, 184602, Note_off_c, 0, 70, 58
1, 184606, Note_off_c, 0, 79, 61
1, 184608, Note_off_c, 0, 82, 66
1, 184653, Note_off_c, 0, 67, 54
1, 184684, Note_off_c, 0, 63, 60
1, 184720, Note_on_c, 0, 78, 87
1, 184731, Control_c, 0, 64, 58
1, 184734, Note_off_c, 0, 55, 63
1, 184735, Note_on_c, 0, 69, 59
1, 184738, Note_off_c, 0, 78, 71
1, 184745, Control_c, 0, 64, 73
1, 184754, Note_off_c, 0, 69, 63
1, 184760, Control_c, 0, 64, 88
1, 184775, Control_c, 0, 64, 112
1, 184786, Note_on_c, 0, 82, 95
1, 184787, Note_on_c, 0, 70, 100
1, 184790, Control_c, 0, 64, 127
1, 184794, Note_on_c, 0, 79, 78
1, 184812, Note_off_c, 0, 79, 71
1, 184813, Note_off_c, 0, 70, 58
1, 184821, Note_off_c, 0, 82, 52
1, 184993, Note_on_c, 0, 53, 112
1, 185000, Note_on_c, 0, 41, 97
1, 185002, Note_on_c, 0, 29, 91
1, 185018, Note_off_c, 0, 53, 66
1, 185025, Note_off_c, 0, 29, 66
1, 185029, Note_off_c, 0, 41, 66
1, 185146, Control_c, 0, 64, 117
1, 185161, Control_c, 0, 64, 109
1, 185176, Control_c, 0, 64, 101
1, 185191, Control_c, 0, 64, 94
1, 185197, Note_on_c, 0, 80, 89
1, 185201, Note_on_c, 0, 68, 86
1, 185203, Note_on_c, 0, 65, 87
1, 185206, Control_c, 0, 64, 84
1, 185207, Note_on_c, 0, 53, 78
1, 185211, Note_on_c, 0, 58, 65
1, 185213, Note_on_c, 0, 74, 53
1, 185221, Control_c, 0, 64, 74
1, 185224, Note_off_c, 0, 65, 70
1, 185231, Note_off_c, 0, 58, 65
1, 185235, Control_c, 0, 64, 61
1, 185236, Note_off_c, 0, 74, 60
1, 185236, Note_off_c, 0, 53, 62
1, 185242, Note_off_c, 0, 68, 60
1, 185250, Control_c, 0, 64, 0
1, 185264, Note_off_c, 0, 80, 57
1, 185331, Note_on_c, 0, 64, 73
1, 185337, Note_on_c, 0, 52, 69
1, 185355, Note_off_c, 0, 64, 68
1, 185357, Note_off_c, 0, 52, 67
1, 185400, Note_on_c, 0, 80, 88
1, 185403, Note_on_c, 0, 68, 91
1, 185408, Note_on_c, 0, 77, 80
1, 185409, Note_on_c, 0, 74, 32
1, 185414, Note_on_c, 0, 65, 91
1, 185417, Note_on_c, 0, 53, 78
1, 185418, Note_on_c, 0, 62, 82
1, 185423, Note_on_c, 0, 58, 74
1, 185434, Note_off_c, 0, 77, 62
1, 185437, Note_off_c, 0, 74, 60
1, 185440, Note_off_c, 0, 68, 64
1, 185447, Note_off_c, 0, 80, 64
1, 185449, Note_off_c, 0, 62, 58
1, 185450, Note_off_c, 0, 65, 63
1, 185496, Note_off_c, 0, 58, 60
1, 185513, Note_off_c, 0, 53, 65
1, 185557, Note_on_c, 0, 67, 74
1, 185558, Note_on_c, 0, 76, 82
1, 185576, Note_off_c, 0, 67, 67
1, 185576, Note_off_c, 0, 76, 75
1, 185625, Note_on_c, 0, 68, 105
1, 185625, Note_on_c, 0, 80, 100
1, 185640, Note_on_c, 0, 77, 63
1, 185649, Note_off_c, 0, 80, 63
1, 185650, Note_off_c, 0, 68, 66
1, 185658, Note_off_c, 0, 77, 60
1, 185760, Control_c, 0, 64, 59
1, 185775, Control_c, 0, 64, 69
1, 185790, Control_c, 0, 64, 80
1, 185805, Control_c, 0, 64, 90
1, 185820, Control_c, 0, 64, 96
1, 185826, Note_on_c, 0, 51, 104
1, 185833, Note_on_c, 0, 39, 105
1, 185835, Control_c, 0, 64, 99
1, 185837, Note_on_c, 0, 27, 100
1, 185850, Control_c, 0, 64, 105
1, 185855, Note_off_c, 0, 51, 65
1, 185865, Control_c, 0, 64, 110
1, 185867, Note_off_c, 0, 27, 67
1, 185875, Note_off_c, 0, 39, 60
1, 185879, Control_c, 0, 64, 114
1, 185894, Control_c, 0, 64, 117
1, 185909, Control_c, 0, 64, 118
1, 185969, Control_c, 0, 64, 118
1, 185984, Control_c, 0, 64, 113
1, 185999, Control_c, 0, 64, 104
1, 186014, Control_c, 0, 64, 92
1, 186024, Note_on_c, 0, 70, 86
1, 186027, Note_on_c, 0, 51, 70
1, 186028, Note_on_c, 0, 79, 79
1, 186029, Control_c, 0, 64, 81
1, 186029, Note_on_c, 0, 58, 70
1, 186032, Note_on_c, 0, 67, 73
1, 186032, Note_on_c, 0, 63, 72
1, 186044, Control_c, 0, 64, 68
1, 186049, Note_off_c, 0, 70, 60
1, 186049, Note_off_c, 0, 63, 66
1, 186051, Note_off_c, 0, 67, 65
1, 186056, Note_off_c, 0, 58, 65
1, 186057, Note_off_c, 0, 51, 61
1, 186058, Control_c, 0, 64, 32
1, 186073, Control_c, 0, 64, 0
1, 186112, Note_off_c, 0, 79, 32
1, 186133, Note_on_c, 0, 62, 67
1, 186145, Note_on_c, 0, 50, 41
1, 186163, Note_off_c, 0, 62, 64
1, 186176, Note_off_c, 0, 50, 34
1, 186237, Note_on_c, 0, 79, 77
1, 186241, Note_on_c, 0, 63, 79
1, 186241, Note_on_c, 0, 75, 75
1, 186245, Note_on_c, 0, 51, 64
1, 186246, Note_on_c, 0, 58, 63
1, 186252, Note_on_c, 0, 67, 58
1, 186265, Note_off_c, 0, 79, 62
1, 186271, Note_off_c, 0, 67, 61
1, 186276, Note_off_c, 0, 75, 63
1, 186366, Note_off_c, 0, 63, 60
1, 186368, Note_on_c, 0, 66, 82
1, 186371, Note_on_c, 0, 78, 76
1, 186373, Note_on_c, 0, 74, 66
1, 186381, Note_off_c, 0, 58, 63
1, 186389, Note_off_c, 0, 66, 71
1, 186389, Note_off_c, 0, 74, 69
1, 186392, Note_off_c, 0, 78, 71
1, 186405, Control_c, 0, 64, 69
1, 186416, Note_off_c, 0, 51, 58
1, 186420, Control_c, 0, 64, 82
1, 186434, Control_c, 0, 64, 100
1, 186441, Note_on_c, 0, 79, 88
1, 186446, Note_on_c, 0, 75, 85
1, 186449, Control_c, 0, 64, 112
1, 186453, Note_on_c, 0, 67, 74
1, 186464, Control_c, 0, 64, 113
1, 186470, Note_off_c, 0, 67, 67
1, 186470, Note_off_c, 0, 79, 62
1, 186492, Note_off_c, 0, 75, 63
1, 186494, Control_c, 0, 67, 10
1, 186509, Control_c, 0, 67, 16
1, 186523, Control_c, 0, 67, 24
1, 186538, Control_c, 0, 67, 36
1, 186553, Control_c, 0, 67, 46
1, 186568, Control_c, 0, 67, 53
1, 186583, Control_c, 0, 67, 56
1, 186598, Control_c, 0, 67, 56
1, 186628, Control_c, 0, 67, 57
1, 186642, Control_c, 0, 64, 113
1, 186642, Control_c, 0, 67, 58
1, 186657, Control_c, 0, 67, 61
1, 186672, Control_c, 0, 64, 112
1, 186672, Control_c, 0, 67, 64
1, 186687, Control_c, 0, 64, 112
1, 186687, Control_c, 0, 67, 68
1, 186701, Control_c, 0, 64, 111
1, 186701, Control_c, 0, 67, 69
1, 186716, Control_c, 0, 64, 110
1, 186716, Control_c, 0, 67, 70
1, 186732, Control_c, 0, 64, 109
1, 186732, Control_c, 0, 67, 70
1, 186747, Control_c, 0, 64, 107
1, 186762, Control_c, 0, 64, 105
1, 186762, Control_c, 0, 67, 71
1, 186777, Control_c, 0, 64, 100
1, 186792, Control_c, 0, 64, 94
1, 186792, Control_c, 0, 67, 71
1, 186792, Note_on_c, 0, 34, 50
1, 186806, Control_c, 0, 64, 87
1, 186806, Control_c, 0, 67, 72
1, 186821, Control_c, 0, 64, 77
1, 186821, Control_c, 0, 67, 76
1, 186832, Note_off_c, 0, 34, 64
1, 186836, Control_c, 0, 64, 65
1, 186836, Control_c, 0, 67, 79
1, 186851, Control_c, 0, 64, 0
1, 186851, Control_c, 0, 67, 81
1, 186857, Note_on_c, 0, 80, 37
1, 186858, Note_on_c, 0, 72, 42
1, 186866, Control_c, 0, 67, 83
1, 186875, Note_off_c, 0, 80, 39
1, 186880, Control_c, 0, 67, 84
1, 186883, Note_off_c, 0, 72, 54
1, 186896, Control_c, 0, 67, 84
1, 186962, Control_c, 0, 67, 85
1, 187014, Note_on_c, 0, 79, 69
1, 187020, Note_on_c, 0, 70, 64
1, 187039, Note_off_c, 0, 79, 68
1, 187039, Note_off_c, 0, 70, 63
1, 187141, Note_on_c, 0, 77, 71
1, 187146, Note_on_c, 0, 68, 62
1, 187159, Note_on_c, 0, 56, 50
1, 187160, Note_on_c, 0, 62, 34
1, 187166, Note_off_c, 0, 77, 67
1, 187169, Note_on_c, 0, 53, 39
1, 187177, Note_off_c, 0, 68, 66
1, 187194, Note_off_c, 0, 62, 32
1, 187208, Note_off_c, 0, 56, 56
1, 187209, Note_off_c, 0, 53, 52
1, 187229, Control_c, 0, 67, 84
1, 187241, Note_on_c, 0, 75, 76
1, 187244, Control_c, 0, 67, 84
1, 187257, Note_on_c, 0, 67, 52
1, 187258, Control_c, 0, 67, 83
1, 187265, Note_off_c, 0, 75, 69
1, 187273, Control_c, 0, 67, 82
1, 187279, Note_off_c, 0, 67, 58
1, 187288, Control_c, 0, 67, 81
1, 187303, Control_c, 0, 67, 80
1, 187318, Control_c, 0, 67, 78
1, 187332, Control_c, 0, 67, 77
1, 187340, Note_on_c, 0, 74, 82
1, 187344, Note_on_c, 0, 65, 75
1, 187347, Control_c, 0, 67, 75
1, 187360, Note_on_c, 0, 46, 50
1, 187361, Note_off_c, 0, 74, 70
1, 187362, Control_c, 0, 67, 74
1, 187369, Note_off_c, 0, 65, 70
1, 187377, Control_c, 0, 67, 73
1, 187392, Control_c, 0, 67, 73
1, 187406, Control_c, 0, 67, 72
1, 187409, Note_off_c, 0, 46, 56
1, 187445, Note_on_c, 0, 70, 76
1, 187456, Note_on_c, 0, 62, 59
1, 187468, Note_off_c, 0, 70, 68
1, 187478, Note_off_c, 0, 62, 59
1, 187480, Control_c, 0, 67, 72
1, 187510, Control_c, 0, 67, 72
1, 187540, Note_on_c, 0, 72, 84
1, 187540, Note_on_c, 0, 63, 72
1, 187541, Control_c, 0, 67, 72
1, 187552, Note_on_c, 0, 56, 60
1, 187563, Note_off_c, 0, 63, 66
1, 187567, Note_off_c, 0, 72, 61
1, 187570, Control_c, 0, 67, 71
1, 187572, Note_on_c, 0, 58, 23
1, 187573, Note_off_c, 0, 58, 127
1, 187575, Note_on_c, 0, 53, 38
1, 187579, Note_off_c, 0, 56, 65
1, 187585, Control_c, 0, 67, 70
1, 187600, Control_c, 0, 67, 66
1, 187605, Note_off_c, 0, 53, 47
1, 187615, Control_c, 0, 67, 60
1, 187629, Control_c, 0, 67, 52
1, 187642, Note_on_c, 0, 74, 74
1, 187644, Control_c, 0, 67, 43
1, 187645, Note_on_c, 0, 65, 69
1, 187659, Control_c, 0, 67, 32
1, 187665, Note_off_c, 0, 74, 69
1, 187671, Note_off_c, 0, 65, 69
1, 187674, Control_c, 0, 67, 19
1, 187689, Control_c, 0, 67, 0
1, 187743, Note_on_c, 0, 39, 63
1, 187747, Note_on_c, 0, 67, 75
1, 187752, Note_on_c, 0, 75, 71
1, 187770, Note_off_c, 0, 67, 68
1, 187774, Note_off_c, 0, 39, 64
1, 187777, Note_off_c, 0, 75, 70
1, 187835, Note_on_c, 0, 77, 79
1, 187837, Note_on_c, 0, 70, 82
1, 187862, Note_off_c, 0, 70, 65
1, 187870, Note_off_c, 0, 77, 60
1, 187921, Note_on_c, 0, 79, 82
1, 187922, Note_on_c, 0, 75, 82
1, 187930, Note_on_c, 0, 63, 64
1, 187939, Note_on_c, 0, 58, 57
1, 187939, Note_on_c, 0, 55, 52
1, 187944, Note_off_c, 0, 75, 70
1, 187951, Note_off_c, 0, 79, 63
1, 187951, Note_off_c, 0, 63, 65
1, 187967, Note_off_c, 0, 58, 65
1, 187976, Note_off_c, 0, 55, 62
1, 188011, Note_on_c, 0, 77, 77
1, 188011, Note_on_c, 0, 80, 82
1, 188032, Note_off_c, 0, 77, 69
1, 188033, Note_off_c, 0, 80, 67
1, 188092, Note_on_c, 0, 84, 73
1, 188097, Note_on_c, 0, 82, 76
1, 188097, Note_on_c, 0, 79, 70
1, 188105, Note_on_c, 0, 46, 62
1, 188115, Note_off_c, 0, 79, 67
1, 188121, Note_off_c, 0, 84, 66
1, 188124, Note_off_c, 0, 82, 62
1, 188136, Note_off_c, 0, 46, 64
1, 188236, Note_on_c, 0, 81, 70
1, 188239, Note_on_c, 0, 78, 64
1, 188252, Note_off_c, 0, 81, 65
1, 188257, Note_off_c, 0, 78, 65
1, 188288, Control_c, 0, 64, 48
1, 188300, Note_on_c, 0, 79, 76
1, 188300, Note_on_c, 0, 82, 81
1, 188303, Control_c, 0, 64, 68
1, 188318, Control_c, 0, 64, 76
1, 188323, Note_off_c, 0, 79, 69
1, 188325, Note_on_c, 0, 58, 51
1, 188334, Control_c, 0, 64, 86
1, 188335, Note_on_c, 0, 55, 45
1, 188339, Note_off_c, 0, 82, 63
1, 188348, Note_off_c, 0, 58, 58
1, 188349, Control_c, 0, 64, 91
1, 188364, Control_c, 0, 64, 93
1, 188365, Note_off_c, 0, 55, 54
1, 188378, Control_c, 0, 64, 94
1, 188393, Control_c, 0, 64, 96
1, 188408, Control_c, 0, 64, 98
1, 188423, Control_c, 0, 64, 99
1, 188438, Control_c, 0, 64, 99
1, 188549, Control_c, 0, 64, 98
1, 188564, Control_c, 0, 64, 95
1, 188578, Control_c, 0, 64, 88
1, 188585, Note_on_c, 0, 92, 81
1, 188593, Control_c, 0, 64, 77
1, 188594, Note_on_c, 0, 34, 60
1, 188598, Note_on_c, 0, 84, 64
1, 188608, Control_c, 0, 64, 64
1, 188616, Note_off_c, 0, 92, 59
1, 188617, Note_off_c, 0, 84, 63
1, 188620, Note_off_c, 0, 34, 59
1, 188623, Control_c, 0, 64, 0
1, 188736, Note_on_c, 0, 91, 67
1, 188740, Note_on_c, 0, 82, 62
1, 188753, Note_off_c, 0, 91, 63
1, 188757, Note_off_c, 0, 82, 66
1, 188853, Note_on_c, 0, 89, 67
1, 188854, Note_on_c, 0, 80, 64
1, 188869, Note_off_c, 0, 89, 68
1, 188872, Note_off_c, 0, 80, 67
1, 188878, Note_on_c, 0, 62, 44
1, 188880, Note_on_c, 0, 56, 53
1, 188886, Note_on_c, 0, 53, 40
1, 188906, Note_off_c, 0, 62, 47
1, 188920, Note_off_c, 0, 53, 57
1, 188920, Note_off_c, 0, 56, 61
1, 188941, Note_on_c, 0, 87, 70
1, 188953, Note_on_c, 0, 79, 65
1, 188968, Note_off_c, 0, 87, 65
1, 188978, Note_off_c, 0, 79, 63
1, 189045, Note_on_c, 0, 86, 73
1, 189052, Note_on_c, 0, 77, 68
1, 189058, Note_on_c, 0, 46, 58
1, 189069, Note_off_c, 0, 86, 69
1, 189070, Note_off_c, 0, 77, 63
1, 189101, Note_off_c, 0, 46, 58
1, 189142, Note_on_c, 0, 82, 78
1, 189155, Note_on_c, 0, 74, 61
1, 189165, Note_off_c, 0, 82, 67
1, 189173, Note_off_c, 0, 74, 65
1, 189245, Note_on_c, 0, 58, 56
1, 189248, Note_on_c, 0, 84, 77
1, 189249, Note_on_c, 0, 56, 59
1, 189250, Note_on_c, 0, 75, 71
1, 189264, Note_on_c, 0, 53, 42
1, 189267, Note_off_c, 0, 58, 59
1, 189270, Note_off_c, 0, 84, 70
1, 189274, Note_off_c, 0, 56, 64
1, 189274, Note_off_c, 0, 75, 70
1, 189293, Note_off_c, 0, 53, 50
1, 189337, Note_on_c, 0, 86, 83
1, 189341, Note_on_c, 0, 77, 78
1, 189364, Note_off_c, 0, 77, 68
1, 189367, Note_off_c, 0, 86, 62
1, 189430, Note_on_c, 0, 39, 63
1, 189436, Note_on_c, 0, 79, 80
1, 189438, Note_on_c, 0, 87, 79
1, 189458, Note_off_c, 0, 79, 67
1, 189460, Note_off_c, 0, 87, 66
1, 189463, Note_off_c, 0, 39, 62
1, 189522, Note_on_c, 0, 89, 80
1, 189525, Note_on_c, 0, 82, 84
1, 189555, Note_off_c, 0, 82, 59
1, 189564, Note_off_c, 0, 89, 64
1, 189606, Note_on_c, 0, 87, 85
1, 189607, Note_on_c, 0, 63, 74
1, 189609, Note_on_c, 0, 91, 83
1, 189616, Note_on_c, 0, 58, 63
1, 189618, Note_on_c, 0, 55, 52
1, 189633, Note_off_c, 0, 63, 69
1, 189633, Note_off_c, 0, 87, 62
1, 189635, Note_off_c, 0, 91, 62
1, 189645, Note_off_c, 0, 58, 67
1, 189654, Note_off_c, 0, 55, 65
1, 189697, Note_on_c, 0, 89, 83
1, 189699, Note_on_c, 0, 92, 85
1, 189717, Note_off_c, 0, 89, 71
1, 189718, Note_off_c, 0, 92, 71
1, 189776, Note_on_c, 0, 46, 71
1, 189780, Note_on_c, 0, 96, 78
1, 189783, Note_on_c, 0, 91, 84
1, 189785, Note_on_c, 0, 94, 87
1, 189799, Note_off_c, 0, 91, 69
1, 189811, Note_off_c, 0, 46, 62
1, 189812, Note_off_c, 0, 96, 63
1, 189823, Note_off_c, 0, 94, 61
1, 189926, Note_on_c, 0, 93, 82
1, 189928, Note_on_c, 0, 90, 74
1, 189954, Note_off_c, 0, 93, 63
1, 189957, Note_off_c, 0, 90, 68
1, 189980, Note_on_c, 0, 63, 78
1, 189985, Note_on_c, 0, 94, 98
1, 189986, Note_on_c, 0, 91, 87
1, 189990, Note_on_c, 0, 58, 69
1, 189997, Note_on_c, 0, 55, 57
1, 190002, Note_off_c, 0, 63, 69
1, 190003, Note_off_c, 0, 91, 70
1, 190010, Note_off_c, 0, 94, 66
1, 190017, Note_off_c, 0, 58, 67
1, 190020, Note_off_c, 0, 55, 65
1, 190031, Control_c, 0, 64, 30
1, 190046, Control_c, 0, 64, 58
1, 190061, Control_c, 0, 64, 64
1, 190075, Control_c, 0, 64, 68
1, 190090, Control_c, 0, 64, 76
1, 190105, Control_c, 0, 64, 85
1, 190120, Control_c, 0, 64, 89
1, 190135, Control_c, 0, 64, 90
1, 190150, Control_c, 0, 64, 91
1, 190164, Control_c, 0, 64, 91
1, 190179, Control_c, 0, 64, 92
1, 190202, Note_on_c, 0, 56, 118
1, 190214, Note_on_c, 0, 44, 98
1, 190217, Note_on_c, 0, 32, 93
1, 190223, Note_off_c, 0, 56, 67
1, 190244, Note_off_c, 0, 32, 67
1, 190257, Note_off_c, 0, 44, 62
1, 190282, Control_c, 0, 64, 92
1, 190372, Control_c, 0, 64, 91
1, 190387, Control_c, 0, 64, 85
1, 190396, Note_on_c, 0, 72, 90
1, 190398, Note_on_c, 0, 75, 89
1, 190398, Note_on_c, 0, 84, 88
1, 190402, Control_c, 0, 64, 73
1, 190407, Note_on_c, 0, 68, 76
1, 190411, Note_on_c, 0, 56, 62
1, 190413, Note_on_c, 0, 63, 59
1, 190413, Note_off_c, 0, 72, 74
1, 190415, Note_off_c, 0, 84, 75
1, 190416, Note_off_c, 0, 75, 74
1, 190416, Control_c, 0, 64, 0
1, 190425, Note_off_c, 0, 68, 64
1, 190432, Note_off_c, 0, 63, 63
1, 190444, Note_off_c, 0, 56, 61
1, 190544, Note_on_c, 0, 67, 70
1, 190563, Note_off_c, 0, 67, 66
1, 190608, Note_on_c, 0, 80, 85
1, 190609, Note_on_c, 0, 84, 84
1, 190610, Note_on_c, 0, 72, 83
1, 190627, Note_off_c, 0, 80, 71
1, 190628, Note_on_c, 0, 56, 48
1, 190628, Note_off_c, 0, 84, 74
1, 190629, Note_off_c, 0, 72, 73
1, 190634, Note_on_c, 0, 68, 75
1, 190639, Note_on_c, 0, 63, 65
1, 190687, Note_off_c, 0, 68, 54
1, 190747, Note_off_c, 0, 56, 0
1, 190747, Note_on_c, 0, 56, 7
1, 190760, Note_off_c, 0, 63, 54
1, 190765, Note_on_c, 0, 71, 75
1, 190772, Note_on_c, 0, 79, 65
1, 190775, Note_on_c, 0, 83, 57
1, 190781, Note_off_c, 0, 71, 66
1, 190789, Note_off_c, 0, 56, 62
1, 190790, Note_off_c, 0, 79, 62
1, 190795, Note_off_c, 0, 83, 40
1, 190810, Control_c, 0, 64, 72
1, 190825, Control_c, 0, 64, 118
1, 190826, Note_on_c, 0, 80, 98
1, 190828, Note_on_c, 0, 84, 97
1, 190830, Note_on_c, 0, 72, 87
1, 190840, Control_c, 0, 64, 127
1, 190841, Note_off_c, 0, 72, 74
1, 190845, Note_off_c, 0, 84, 74
1, 190850, Note_off_c, 0, 80, 64
1, 191031, Note_on_c, 0, 55, 107
1, 191038, Note_on_c, 0, 43, 99
1, 191041, Note_on_c, 0, 31, 92
1, 191048, Note_off_c, 0, 55, 69
1, 191063, Note_off_c, 0, 31, 67
1, 191072, Note_off_c, 0, 43, 59
1, 191210, Control_c, 0, 64, 104
1, 191224, Control_c, 0, 64, 81
1, 191227, Note_on_c, 0, 82, 92
1, 191229, Note_on_c, 0, 70, 86
1, 191230, Note_on_c, 0, 75, 78
1, 191236, Note_on_c, 0, 67, 75
1, 191238, Note_on_c, 0, 55, 73
1, 191239, Control_c, 0, 64, 0
1, 191241, Note_on_c, 0, 63, 64
1, 191256, Note_off_c, 0, 75, 61
1, 191257, Note_off_c, 0, 55, 65
1, 191257, Note_off_c, 0, 67, 64
1, 191259, Note_off_c, 0, 63, 65
1, 191259, Note_off_c, 0, 70, 58
1, 191277, Note_off_c, 0, 82, 57
1, 191373, Note_on_c, 0, 66, 70
1, 191394, Note_on_c, 0, 54, 27
1, 191399, Note_off_c, 0, 66, 68
1, 191430, Note_on_c, 0, 82, 87
1, 191430, Note_on_c, 0, 70, 91
1, 191431, Note_off_c, 0, 54, 32
1, 191433, Note_on_c, 0, 79, 76
1, 191442, Note_on_c, 0, 67, 87
1, 191455, Note_on_c, 0, 55, 71
1, 191457, Note_on_c, 0, 63, 75
1, 191475, Note_off_c, 0, 70, 63
1, 191476, Note_off_c, 0, 82, 65
1, 191477, Note_off_c, 0, 79, 66
1, 191510, Note_off_c, 0, 67, 59
1, 191516, Note_off_c, 0, 63, 63
1, 191565, Note_off_c, 0, 55, 63
1, 191573, Note_on_c, 0, 78, 91
1, 191582, Note_on_c, 0, 69, 72
1, 191596, Note_off_c, 0, 69, 68
1, 191600, Note_off_c, 0, 78, 67
1, 191603, Control_c, 0, 64, 34
1, 191618, Control_c, 0, 64, 113
1, 191633, Control_c, 0, 64, 127
1, 191639, Note_on_c, 0, 70, 106
1, 191639, Note_on_c, 0, 82, 99
1, 191645, Note_on_c, 0, 79, 85
1, 191662, Note_off_c, 0, 79, 72
1, 191671, Note_off_c, 0, 70, 64
1, 191673, Note_off_c, 0, 82, 59
1, 191834, Note_on_c, 0, 53, 115
1, 191838, Note_on_c, 0, 41, 100
1, 191842, Note_on_c, 0, 29, 93
1, 191860, Note_off_c, 0, 53, 65
1, 191866, Note_off_c, 0, 29, 65
1, 191868, Note_on_c, 0, 28, 41
1, 191869, Note_off_c, 0, 28, 127
1, 191869, Note_off_c, 0, 41, 67
1, 192019, Control_c, 0, 64, 98
1, 192033, Note_on_c, 0, 80, 88
1, 192034, Note_on_c, 0, 68, 91
1, 192034, Control_c, 0, 64, 73
1, 192036, Note_on_c, 0, 65, 83
1, 192039, Note_on_c, 0, 74, 67
1, 192043, Note_on_c, 0, 53, 71
1, 192045, Note_on_c, 0, 58, 58
1, 192048, Control_c, 0, 64, 0
1, 192057, Note_off_c, 0, 65, 72
1, 192057, Note_off_c, 0, 74, 63
1, 192060, Note_off_c, 0, 53, 69
1, 192066, Note_off_c, 0, 58, 62
1, 192072, Note_off_c, 0, 68, 62
1, 192105, Note_off_c, 0, 80, 62
1, 192178, Note_on_c, 0, 64, 72
1, 192199, Note_on_c, 0, 52, 49
1, 192200, Note_off_c, 0, 52, 127
1, 192210, Note_off_c, 0, 64, 69
1, 192236, Note_on_c, 0, 80, 87
1, 192239, Note_on_c, 0, 68, 88
1, 192245, Note_on_c, 0, 77, 73
1, 192252, Note_on_c, 0, 65, 89
1, 192255, Note_on_c, 0, 62, 79
1, 192259, Note_on_c, 0, 58, 73
1, 192261, Note_on_c, 0, 53, 70
1, 192271, Note_off_c, 0, 77, 64
1, 192276, Note_off_c, 0, 68, 64
1, 192283, Note_off_c, 0, 80, 63
1, 192297, Note_off_c, 0, 62, 56
1, 192304, Note_off_c, 0, 65, 64
1, 192350, Note_off_c, 0, 58, 61
1, 192368, Note_on_c, 0, 67, 78
1, 192368, Note_on_c, 0, 76, 87
1, 192369, Note_off_c, 0, 53, 66
1, 192383, Control_c, 0, 64, 61
1, 192389, Note_off_c, 0, 67, 69
1, 192389, Note_off_c, 0, 76, 70
1, 192398, Control_c, 0, 64, 76
1, 192413, Control_c, 0, 64, 90
1, 192427, Control_c, 0, 64, 106
1, 192436, Note_on_c, 0, 68, 110
1, 192439, Note_on_c, 0, 80, 99
1, 192442, Control_c, 0, 64, 112
1, 192445, Note_on_c, 0, 77, 84
1, 192457, Control_c, 0, 64, 114
1, 192462, Note_off_c, 0, 80, 60
1, 192464, Note_off_c, 0, 77, 71
1, 192470, Note_off_c, 0, 68, 62
1, 192471, Control_c, 0, 64, 116
1, 192486, Control_c, 0, 64, 118
1, 192501, Control_c, 0, 64, 119
1, 192516, Control_c, 0, 64, 120
1, 192630, Note_on_c, 0, 39, 109
1, 192630, Note_on_c, 0, 51, 106
1, 192633, Note_on_c, 0, 27, 104
1, 192660, Note_off_c, 0, 27, 69
1, 192662, Note_off_c, 0, 51, 67
1, 192668, Note_off_c, 0, 39, 64
1, 192753, Control_c, 0, 64, 118
1, 192768, Control_c, 0, 64, 115
1, 192783, Control_c, 0, 64, 104
1, 192798, Control_c, 0, 64, 91
1, 192813, Control_c, 0, 64, 73
1, 192815, Note_on_c, 0, 58, 65
1, 192816, Note_on_c, 0, 70, 92
1, 192817, Note_on_c, 0, 63, 72
1, 192818, Note_on_c, 0, 79, 87
1, 192820, Note_on_c, 0, 51, 63
1, 192820, Note_on_c, 0, 67, 80
1, 192827, Control_c, 0, 64, 0
1, 192838, Note_off_c, 0, 63, 61
1, 192838, Note_off_c, 0, 58, 64
1, 192839, Note_off_c, 0, 70, 59
1, 192840, Note_off_c, 0, 51, 60
1, 192845, Note_off_c, 0, 67, 69
1, 192892, Note_off_c, 0, 79, 36
1, 192928, Note_on_c, 0, 62, 66
1, 192947, Note_on_c, 0, 50, 42
1, 192963, Note_off_c, 0, 62, 64
1, 192981, Note_off_c, 0, 50, 34
1, 193014, Note_on_c, 0, 79, 75
1, 193016, Note_on_c, 0, 75, 78
1, 193020, Note_on_c, 0, 67, 74
1, 193022, Note_on_c, 0, 63, 78
1, 193023, Note_on_c, 0, 58, 56
1, 193029, Note_on_c, 0, 51, 66
1, 193044, Note_off_c, 0, 79, 59
1, 193044, Note_off_c, 0, 67, 69
1, 193059, Note_off_c, 0, 75, 61
1, 193141, Note_on_c, 0, 66, 82
1, 193147, Note_on_c, 0, 78, 76
1, 193150, Note_on_c, 0, 74, 65
1, 193151, Note_off_c, 0, 63, 60
1, 193160, Note_off_c, 0, 58, 64
1, 193162, Note_off_c, 0, 66, 72
1, 193164, Note_off_c, 0, 78, 68
1, 193167, Note_off_c, 0, 74, 66
1, 193191, Control_c, 0, 64, 68
1, 193195, Note_off_c, 0, 51, 59
1, 193206, Control_c, 0, 64, 83
1, 193217, Note_on_c, 0, 79, 101
1, 193220, Note_on_c, 0, 67, 88
1, 193220, Note_on_c, 0, 75, 90
1, 193221, Control_c, 0, 64, 102
1, 193234, Note_off_c, 0, 67, 71
1, 193236, Control_c, 0, 64, 111
1, 193237, Note_off_c, 0, 79, 67
1, 193250, Control_c, 0, 64, 112
1, 193255, Note_off_c, 0, 75, 61
1, 193280, Control_c, 0, 64, 112
1, 193280, Control_c, 0, 67, 10
1, 193294, Control_c, 0, 64, 113
1, 193294, Control_c, 0, 67, 19
1, 193309, Control_c, 0, 64, 113
1, 193309, Control_c, 0, 67, 28
1, 193324, Control_c, 0, 64, 114
1, 193324, Control_c, 0, 67, 38
1, 193339, Control_c, 0, 64, 114
1, 193339, Control_c, 0, 67, 45
1, 193354, Control_c, 0, 67, 48
1, 193383, Control_c, 0, 67, 48
1, 193398, Control_c, 0, 67, 47
1, 193458, Control_c, 0, 67, 48
1, 193473, Control_c, 0, 64, 114
1, 193473, Control_c, 0, 67, 48
1, 193488, Control_c, 0, 64, 112
1, 193488, Control_c, 0, 67, 49
1, 193502, Control_c, 0, 64, 110
1, 193517, Control_c, 0, 64, 107
1, 193532, Control_c, 0, 64, 102
1, 193547, Control_c, 0, 64, 96
1, 193562, Control_c, 0, 64, 88
1, 193562, Note_on_c, 0, 34, 53
1, 193576, Control_c, 0, 64, 77
1, 193591, Control_c, 0, 64, 66
1, 193600, Note_off_c, 0, 34, 65
1, 193606, Control_c, 0, 64, 0
1, 193606, Control_c, 0, 67, 50
1, 193614, Note_on_c, 0, 92, 70
1, 193622, Note_on_c, 0, 84, 58
1, 193634, Note_off_c, 0, 92, 62
1, 193649, Note_off_c, 0, 84, 56
1, 193717, Control_c, 0, 67, 50
1, 193732, Control_c, 0, 67, 51
1, 193762, Control_c, 0, 67, 52
1, 193777, Control_c, 0, 67, 54
1, 193790, Note_on_c, 0, 91, 67
1, 193792, Control_c, 0, 67, 55
1, 193795, Note_on_c, 0, 82, 66
1, 193817, Note_off_c, 0, 82, 64
1, 193820, Note_off_c, 0, 91, 63
1, 193851, Control_c, 0, 67, 56
1, 193928, Note_on_c, 0, 89, 70
1, 193934, Note_on_c, 0, 80, 62
1, 193937, Note_on_c, 0, 62, 48
1, 193946, Note_on_c, 0, 56, 47
1, 193956, Note_off_c, 0, 89, 66
1, 193963, Note_off_c, 0, 62, 51
1, 193965, Note_off_c, 0, 80, 67
1, 193968, Note_on_c, 0, 53, 14
1, 193986, Note_off_c, 0, 56, 60
1, 193986, Control_c, 0, 67, 55
1, 194014, Note_off_c, 0, 53, 37
1, 194034, Note_on_c, 0, 87, 83
1, 194044, Control_c, 0, 67, 55
1, 194045, Note_on_c, 0, 79, 65
1, 194059, Control_c, 0, 67, 54
1, 194066, Note_off_c, 0, 79, 64
1, 194067, Note_off_c, 0, 87, 60
1, 194089, Control_c, 0, 67, 54
1, 194104, Control_c, 0, 67, 53
1, 194133, Control_c, 0, 67, 53
1, 194147, Note_on_c, 0, 86, 77
1, 194153, Note_on_c, 0, 77, 65
1, 194157, Note_on_c, 0, 46, 55
1, 194163, Control_c, 0, 67, 52
1, 194167, Note_off_c, 0, 86, 71
1, 194171, Note_off_c, 0, 77, 62
1, 194178, Control_c, 0, 67, 52
1, 194192, Control_c, 0, 67, 51
1, 194195, Note_off_c, 0, 46, 61
1, 194207, Control_c, 0, 67, 50
1, 194222, Control_c, 0, 67, 50
1, 194237, Control_c, 0, 67, 49
1, 194250, Note_on_c, 0, 82, 76
1, 194251, Control_c, 0, 67, 48
1, 194266, Control_c, 0, 67, 48
1, 194272, Note_on_c, 0, 74, 43
1, 194275, Note_off_c, 0, 82, 66
1, 194281, Control_c, 0, 67, 47
1, 194296, Note_off_c, 0, 74, 58
1, 194296, Control_c, 0, 67, 47
1, 194311, Control_c, 0, 67, 46
1, 194325, Control_c, 0, 67, 45
1, 194340, Control_c, 0, 67, 43
1, 194341, Note_on_c, 0, 58, 48
1, 194347, Note_on_c, 0, 56, 46
1, 194349, Note_on_c, 0, 84, 70
1, 194354, Note_on_c, 0, 75, 64
1, 194355, Control_c, 0, 67, 42
1, 194356, Note_on_c, 0, 53, 40
1, 194366, Note_off_c, 0, 58, 56
1, 194370, Control_c, 0, 67, 41
1, 194371, Note_off_c, 0, 75, 65
1, 194372, Note_off_c, 0, 56, 55
1, 194379, Note_off_c, 0, 84, 65
1, 194384, Note_off_c, 0, 53, 49
1, 194384, Control_c, 0, 67, 39
1, 194398, Control_c, 0, 67, 35
1, 194413, Control_c, 0, 67, 30
1, 194428, Control_c, 0, 67, 22
1, 194450, Control_c, 0, 67, 11
1, 194454, Note_on_c, 0, 86, 80
1, 194459, Note_on_c, 0, 77, 71
1, 194465, Control_c, 0, 67, 0
1, 194483, Note_off_c, 0, 77, 67
1, 194487, Note_off_c, 0, 86, 61
1, 194552, Note_on_c, 0, 39, 52
1, 194558, Note_on_c, 0, 79, 74
1, 194559, Note_on_c, 0, 87, 74
1, 194579, Note_off_c, 0, 39, 54
1, 194582, Note_off_c, 0, 79, 67
1, 194582, Note_off_c, 0, 87, 67
1, 194647, Note_on_c, 0, 82, 82
1, 194656, Note_on_c, 0, 89, 66
1, 194670, Note_on_c, 0, 90, 46
1, 194682, Note_off_c, 0, 89, 69
1, 194683, Note_off_c, 0, 82, 63
1, 194695, Note_off_c, 0, 90, 37
1, 194724, Note_on_c, 0, 63, 68
1, 194728, Note_on_c, 0, 91, 90
1, 194732, Note_on_c, 0, 87, 83
1, 194740, Note_on_c, 0, 55, 53
1, 194744, Note_on_c, 0, 58, 52
1, 194751, Note_off_c, 0, 63, 67
1, 194755, Note_off_c, 0, 87, 65
1, 194766, Note_off_c, 0, 91, 61
1, 194766, Note_off_c, 0, 58, 63
1, 194776, Note_off_c, 0, 55, 65
1, 194823, Note_on_c, 0, 92, 88
1, 194826, Note_on_c, 0, 89, 77
1, 194843, Note_off_c, 0, 92, 67
1, 194846, Note_off_c, 0, 89, 72
1, 194901, Note_on_c, 0, 46, 70
1, 194914, Note_on_c, 0, 94, 86
1, 194918, Note_on_c, 0, 91, 80
1, 194927, Note_on_c, 0, 96, 63
1, 194929, Note_off_c, 0, 94, 65
1, 194936, Note_off_c, 0, 91, 68
1, 194937, Note_off_c, 0, 46, 62
1, 194942, Note_off_c, 0, 96, 64
1, 195007, Note_on_c, 0, 93, 88
1, 195008, Note_on_c, 0, 90, 83
1, 195023, Note_off_c, 0, 93, 71
1, 195028, Note_off_c, 0, 90, 70
1, 195094, Note_on_c, 0, 92, 84
1, 195095, Note_on_c, 0, 96, 85
1, 195111, Note_off_c, 0, 92, 73
1, 195114, Note_on_c, 0, 55, 44
1, 195115, Note_on_c, 0, 58, 48
1, 195129, Note_off_c, 0, 96, 62
1, 195139, Note_off_c, 0, 58, 54
1, 195142, Note_off_c, 0, 55, 51
1, 195180, Note_on_c, 0, 94, 78
1, 195187, Note_on_c, 0, 91, 71
1, 195211, Note_off_c, 0, 91, 64
1, 195211, Note_off_c, 0, 94, 70
1, 195214, Control_c, 0, 67, 8
1, 195229, Control_c, 0, 67, 12
1, 195244, Control_c, 0, 67, 16
1, 195258, Control_c, 0, 67, 18
1, 195273, Control_c, 0, 67, 18
1, 195288, Control_c, 0, 67, 19
1, 195303, Control_c, 0, 67, 19
1, 195347, Note_on_c, 0, 80, 78
1, 195349, Note_on_c, 0, 72, 72
1, 195362, Control_c, 0, 67, 19
1, 195369, Note_on_c, 0, 34, 51
1, 195372, Note_off_c, 0, 80, 66
1, 195374, Note_off_c, 0, 72, 70
1, 195391, Control_c, 0, 67, 18
1, 195402, Note_off_c, 0, 34, 60
1, 195436, Control_c, 0, 67, 18
1, 195491, Note_on_c, 0, 79, 73
1, 195495, Control_c, 0, 67, 17
1, 195509, Note_on_c, 0, 70, 51
1, 195510, Control_c, 0, 67, 17
1, 195518, Note_off_c, 0, 79, 64
1, 195533, Note_off_c, 0, 70, 55
1, 195570, Control_c, 0, 67, 17
1, 195615, Note_on_c, 0, 77, 68
1, 195620, Note_on_c, 0, 68, 55
1, 195635, Note_on_c, 0, 62, 39
1, 195635, Note_off_c, 0, 77, 66
1, 195639, Note_off_c, 0, 68, 63
1, 195640, Note_on_c, 0, 56, 43
1, 195646, Note_on_c, 0, 53, 34
1, 195659, Control_c, 0, 67, 17
1, 195666, Note_off_c, 0, 62, 45
1, 195680, Note_off_c, 0, 56, 59
1, 195682, Note_off_c, 0, 53, 56
1, 195688, Control_c, 0, 67, 16
1, 195708, Note_on_c, 0, 75, 77
1, 195718, Control_c, 0, 67, 16
1, 195723, Note_on_c, 0, 67, 58
1, 195731, Note_off_c, 0, 75, 69
1, 195733, Control_c, 0, 67, 15
1, 195743, Note_off_c, 0, 67, 60
1, 195763, Control_c, 0, 67, 15
1, 195805, Note_on_c, 0, 74, 78
1, 195808, Note_on_c, 0, 46, 55
1, 195810, Note_on_c, 0, 65, 71
1, 195822, Control_c, 0, 67, 14
1, 195825, Note_off_c, 0, 74, 73
1, 195828, Note_off_c, 0, 65, 68
1, 195844, Note_off_c, 0, 46, 63
1, 195896, Control_c, 0, 67, 15
1, 195899, Note_on_c, 0, 70, 78
1, 195907, Note_on_c, 0, 62, 67
1, 195922, Note_off_c, 0, 70, 71
1, 195926, Control_c, 0, 67, 14
1, 195931, Note_off_c, 0, 62, 64
1, 195996, Note_on_c, 0, 56, 67
1, 196007, Control_c, 0, 67, 14
1, 196012, Note_on_c, 0, 63, 65
1, 196014, Note_on_c, 0, 72, 65
1, 196022, Control_c, 0, 67, 13
1, 196025, Note_off_c, 0, 56, 64
1, 196033, Note_off_c, 0, 72, 67
1, 196034, Note_on_c, 0, 53, 20
1, 196036, Control_c, 0, 67, 13
1, 196038, Note_off_c, 0, 63, 66
1, 196051, Control_c, 0, 67, 12
1, 196066, Control_c, 0, 67, 12
1, 196077, Note_off_c, 0, 53, 29
1, 196081, Control_c, 0, 67, 11
1, 196108, Note_on_c, 0, 65, 66
1, 196108, Note_on_c, 0, 74, 62
1, 196111, Control_c, 0, 67, 10
1, 196134, Note_off_c, 0, 74, 70
1, 196136, Note_off_c, 0, 65, 67
1, 196141, Control_c, 0, 67, 9
1, 196185, Control_c, 0, 67, 10
1, 196194, Note_on_c, 0, 39, 59
1, 196200, Note_on_c, 0, 67, 74
1, 196209, Note_on_c, 0, 75, 68
1, 196225, Note_off_c, 0, 67, 66
1, 196228, Note_off_c, 0, 39, 63
1, 196229, Control_c, 0, 67, 10
1, 196237, Note_off_c, 0, 75, 69
1, 196259, Control_c, 0, 67, 11
1, 196290, Note_on_c, 0, 77, 77
1, 196295, Note_on_c, 0, 70, 81
1, 196326, Note_off_c, 0, 70, 59
1, 196329, Note_off_c, 0, 77, 60
1, 196334, Control_c, 0, 67, 11
1, 196349, Control_c, 0, 67, 12
1, 196379, Note_on_c, 0, 75, 82
1, 196385, Note_on_c, 0, 63, 60
1, 196386, Note_on_c, 0, 55, 60
1, 196388, Note_on_c, 0, 79, 70
1, 196397, Note_on_c, 0, 58, 51
1, 196399, Note_off_c, 0, 75, 70
1, 196406, Note_off_c, 0, 63, 64
1, 196408, Note_off_c, 0, 79, 67
1, 196408, Control_c, 0, 67, 12
1, 196421, Note_off_c, 0, 58, 60
1, 196428, Note_off_c, 0, 55, 65
1, 196437, Control_c, 0, 67, 12
1, 196466, Note_on_c, 0, 80, 83
1, 196474, Note_on_c, 0, 77, 68
1, 196482, Control_c, 0, 67, 11
1, 196487, Note_off_c, 0, 80, 72
1, 196495, Note_off_c, 0, 77, 65
1, 196497, Control_c, 0, 67, 11
1, 196541, Control_c, 0, 67, 11
1, 196551, Note_on_c, 0, 46, 65
1, 196555, Note_on_c, 0, 82, 88
1, 196556, Control_c, 0, 67, 12
1, 196562, Note_on_c, 0, 79, 76
1, 196585, Note_off_c, 0, 46, 63
1, 196585, Note_off_c, 0, 79, 69
1, 196585, Note_off_c, 0, 82, 59
1, 196600, Control_c, 0, 67, 12
1, 196615, Control_c, 0, 67, 13
1, 196630, Control_c, 0, 67, 14
1, 196645, Control_c, 0, 67, 14
1, 196651, Note_on_c, 0, 78, 76
1, 196651, Note_on_c, 0, 81, 79
1, 196660, Control_c, 0, 67, 15
1, 196673, Note_off_c, 0, 81, 69
1, 196674, Note_off_c, 0, 78, 68
1, 196674, Control_c, 0, 67, 16
1, 196697, Control_c, 0, 67, 17
1, 196712, Control_c, 0, 67, 18
1, 196726, Control_c, 0, 67, 20
1, 196741, Control_c, 0, 67, 22
1, 196743, Note_on_c, 0, 80, 80
1, 196752, Note_on_c, 0, 84, 64
1, 196756, Note_on_c, 0, 55, 49
1, 196756, Control_c, 0, 67, 27
1, 196759, Note_on_c, 0, 58, 50
1, 196763, Note_off_c, 0, 80, 72
1, 196770, Note_off_c, 0, 84, 68
1, 196771, Control_c, 0, 67, 30
1, 196783, Note_off_c, 0, 55, 55
1, 196784, Note_off_c, 0, 58, 56
1, 196786, Control_c, 0, 67, 30
1, 196800, Control_c, 0, 67, 31
1, 196827, Note_on_c, 0, 82, 77
1, 196837, Note_on_c, 0, 79, 63
1, 196844, Control_c, 0, 67, 30
1, 196856, Note_off_c, 0, 79, 62
1, 196865, Note_off_c, 0, 82, 64
1, 196874, Control_c, 0, 67, 29
1, 196889, Control_c, 0, 67, 29
1, 196919, Control_c, 0, 67, 28
1, 196949, Note_on_c, 0, 34, 56
1, 196949, Note_on_c, 0, 92, 92
1, 196957, Note_on_c, 0, 84, 75
1, 196970, Note_off_c, 0, 92, 66
1, 196976, Note_off_c, 0, 34, 56
1, 196981, Note_off_c, 0, 84, 69
1, 197008, Control_c, 0, 67, 27
1, 197037, Control_c, 0, 67, 27
1, 197077, Note_on_c, 0, 91, 80
1, 197082, Note_on_c, 0, 82, 69
1, 197099, Note_off_c, 0, 91, 62
1, 197107, Note_off_c, 0, 82, 66
1, 197142, Control_c, 0, 67, 27
1, 197183, Note_on_c, 0, 89, 81
1, 197184, Note_on_c, 0, 62, 47
1, 197187, Control_c, 0, 67, 27
1, 197188, Note_on_c, 0, 80, 70
1, 197190, Note_on_c, 0, 56, 57
1, 197206, Note_off_c, 0, 89, 69
1, 197210, Note_off_c, 0, 62, 51
1, 197211, Note_on_c, 0, 53, 36
1, 197213, Note_off_c, 0, 80, 69
1, 197216, Control_c, 0, 67, 26
1, 197231, Control_c, 0, 67, 25
1, 197232, Note_off_c, 0, 56, 60
1, 197241, Note_off_c, 0, 53, 57
1, 197246, Control_c, 0, 67, 25
1, 197260, Control_c, 0, 67, 24
1, 197269, Note_on_c, 0, 87, 84
1, 197275, Control_c, 0, 67, 23
1, 197290, Control_c, 0, 67, 23
1, 197291, Note_on_c, 0, 79, 65
1, 197300, Note_off_c, 0, 87, 62
1, 197305, Control_c, 0, 67, 22
1, 197309, Note_off_c, 0, 79, 61
1, 197320, Control_c, 0, 67, 22
1, 197358, Note_on_c, 0, 46, 63
1, 197364, Control_c, 0, 67, 21
1, 197372, Note_on_c, 0, 86, 83
1, 197377, Note_on_c, 0, 77, 76
1, 197392, Note_off_c, 0, 86, 72
1, 197396, Note_off_c, 0, 77, 66
1, 197402, Note_off_c, 0, 46, 62
1, 197423, Control_c, 0, 67, 21
1, 197461, Control_c, 0, 67, 20
1, 197465, Note_on_c, 0, 82, 83
1, 197475, Control_c, 0, 67, 20
1, 197488, Note_off_c, 0, 82, 66
1, 197490, Control_c, 0, 67, 19
1, 197491, Note_on_c, 0, 74, 45
1, 197505, Control_c, 0, 67, 19
1, 197515, Note_off_c, 0, 74, 61
1, 197520, Control_c, 0, 67, 18
1, 197535, Control_c, 0, 67, 16
1, 197549, Control_c, 0, 67, 12
1, 197554, Note_on_c, 0, 56, 63
1, 197560, Note_on_c, 0, 84, 73
1, 197564, Control_c, 0, 67, 8
1, 197571, Note_on_c, 0, 75, 67
1, 197574, Note_on_c, 0, 53, 44
1, 197579, Control_c, 0, 67, 0
1, 197587, Note_off_c, 0, 84, 66
1, 197587, Note_off_c, 0, 56, 66
1, 197590, Note_off_c, 0, 75, 67
1, 197599, Note_off_c, 0, 53, 57
1, 197652, Note_on_c, 0, 86, 78
1, 197662, Note_on_c, 0, 77, 69
1, 197680, Note_off_c, 0, 86, 65
1, 197681, Note_off_c, 0, 77, 66
1, 197745, Note_on_c, 0, 79, 82
1, 197747, Note_on_c, 0, 39, 64
1, 197748, Note_on_c, 0, 87, 80
1, 197771, Note_off_c, 0, 79, 63
1, 197772, Note_off_c, 0, 87, 65
1, 197781, Note_off_c, 0, 39, 62
1, 197826, Note_on_c, 0, 89, 65
1, 197836, Note_on_c, 0, 82, 89
1, 197870, Note_off_c, 0, 82, 63
1, 197873, Note_off_c, 0, 89, 65
1, 197917, Note_on_c, 0, 87, 86
1, 197923, Note_on_c, 0, 91, 82
1, 197926, Note_on_c, 0, 63, 71
1, 197929, Note_on_c, 0, 55, 61
1, 197933, Note_on_c, 0, 58, 67
1, 197943, Note_off_c, 0, 87, 64
1, 197944, Note_off_c, 0, 91, 63
1, 197953, Note_off_c, 0, 63, 68
1, 197961, Note_off_c, 0, 58, 67
1, 197976, Note_off_c, 0, 55, 64
1, 198009, Note_on_c, 0, 92, 91
1, 198014, Note_on_c, 0, 89, 77
1, 198029, Note_off_c, 0, 92, 66
1, 198036, Note_off_c, 0, 89, 72
1, 198085, Note_on_c, 0, 46, 70
1, 198097, Note_on_c, 0, 94, 91
1, 198100, Note_on_c, 0, 91, 84
1, 198114, Control_c, 0, 64, 34
1, 198121, Note_off_c, 0, 46, 62
1, 198127, Note_off_c, 0, 91, 63
1, 198129, Control_c, 0, 64, 57
1, 198136, Note_off_c, 0, 94, 62
1, 198144, Control_c, 0, 64, 64
1, 198158, Control_c, 0, 64, 70
1, 198173, Control_c, 0, 64, 77
1, 198195, Note_on_c, 0, 93, 92
1, 198195, Control_c, 0, 64, 87
1, 198199, Note_on_c, 0, 90, 82
1, 198210, Control_c, 0, 64, 93
1, 198218, Note_off_c, 0, 93, 62
1, 198221, Note_off_c, 0, 90, 66
1, 198224, Control_c, 0, 64, 96
1, 198239, Control_c, 0, 64, 97
1, 198254, Control_c, 0, 64, 99
1, 198269, Control_c, 0, 64, 100
1, 198281, Note_on_c, 0, 96, 88
1, 198282, Note_on_c, 0, 92, 86
1, 198284, Note_on_c, 0, 55, 63
1, 198284, Note_on_c, 0, 58, 73
1, 198284, Control_c, 0, 64, 101
1, 198299, Control_c, 0, 64, 101
1, 198300, Note_off_c, 0, 92, 70
1, 198310, Note_off_c, 0, 58, 68
1, 198314, Control_c, 0, 64, 102
1, 198317, Note_off_c, 0, 55, 65
1, 198318, Note_off_c, 0, 96, 65
1, 198329, Control_c, 0, 64, 102
1, 198344, Control_c, 0, 64, 105
1, 198359, Control_c, 0, 64, 114
1, 198373, Control_c, 0, 64, 127
1, 198374, Note_on_c, 0, 94, 82
1, 198377, Note_on_c, 0, 91, 79
1, 198398, Note_off_c, 0, 94, 68
1, 198403, Note_off_c, 0, 91, 61
1, 198432, Control_c, 0, 64, 114
1, 198447, Control_c, 0, 64, 96
1, 198462, Control_c, 0, 64, 78
1, 198477, Control_c, 0, 64, 66
1, 198488, Note_on_c, 0, 34, 70
1, 198488, Note_on_c, 0, 92, 90
1, 198491, Control_c, 0, 64, 64
1, 198494, Note_on_c, 0, 84, 75
1, 198506, Control_c, 0, 64, 71
1, 198518, Note_off_c, 0, 34, 65
1, 198521, Control_c, 0, 64, 81
1, 198534, Note_off_c, 0, 84, 63
1, 198534, Note_off_c, 0, 92, 61
1, 198536, Control_c, 0, 64, 89
1, 198551, Control_c, 0, 64, 92
1, 198565, Control_c, 0, 64, 92
1, 198633, Note_on_c, 0, 91, 76
1, 198636, Note_on_c, 0, 82, 76
1, 198660, Note_off_c, 0, 82, 65
1, 198675, Note_off_c, 0, 91, 59
1, 198738, Note_on_c, 0, 53, 69
1, 198739, Note_on_c, 0, 89, 88
1, 198745, Note_on_c, 0, 80, 74
1, 198746, Note_on_c, 0, 62, 63
1, 198751, Note_on_c, 0, 56, 61
1, 198767, Note_off_c, 0, 80, 70
1, 198770, Note_off_c, 0, 89, 62
1, 198781, Note_off_c, 0, 62, 61
1, 198786, Note_off_c, 0, 53, 61
1, 198791, Note_off_c, 0, 56, 60
1, 198830, Note_on_c, 0, 87, 86
1, 198847, Note_on_c, 0, 79, 73
1, 198847, Control_c, 0, 64, 93
1, 198865, Note_off_c, 0, 87, 61
1, 198869, Note_off_c, 0, 79, 66
1, 198877, Control_c, 0, 64, 93
1, 198907, Control_c, 0, 64, 94
1, 198922, Control_c, 0, 64, 94
1, 198929, Note_on_c, 0, 86, 91
1, 198932, Note_on_c, 0, 77, 84
1, 198944, Control_c, 0, 64, 95
1, 198959, Control_c, 0, 64, 96
1, 198960, Note_off_c, 0, 86, 65
1, 198961, Note_off_c, 0, 77, 67
1, 198974, Control_c, 0, 64, 98
1, 198988, Control_c, 0, 64, 101
1, 199003, Control_c, 0, 64, 105
1, 199018, Control_c, 0, 64, 108
1, 199030, Note_on_c, 0, 82, 87
1, 199033, Control_c, 0, 64, 112
1, 199042, Note_on_c, 0, 74, 66
1, 199047, Control_c, 0, 64, 116
1, 199060, Note_off_c, 0, 74, 69
1, 199062, Control_c, 0, 64, 124
1, 199066, Note_off_c, 0, 82, 59
1, 199077, Control_c, 0, 64, 127
1, 199134, Note_on_c, 0, 81, 86
1, 199135, Note_on_c, 0, 73, 79
1, 199136, Note_on_c, 0, 64, 55
1, 199158, Note_on_c, 0, 67, 53
1, 199163, Note_off_c, 0, 81, 58
1, 199164, Note_off_c, 0, 73, 59
1, 199199, Note_off_c, 0, 67, 60
1, 199214, Note_on_c, 0, 65, 65
1, 199221, Note_off_c, 0, 64, 38
1, 199226, Control_c, 0, 64, 110
1, 199233, Note_on_c, 0, 82, 82
1, 199240, Control_c, 0, 64, 83
1, 199241, Note_on_c, 0, 68, 67
1, 199243, Note_off_c, 0, 65, 68
1, 199247, Note_on_c, 0, 74, 62
1, 199255, Control_c, 0, 64, 0
1, 199266, Note_off_c, 0, 74, 62
1, 199267, Note_off_c, 0, 68, 65
1, 199272, Note_off_c, 0, 82, 61
1, 199314, Control_c, 0, 64, 64
1, 199329, Control_c, 0, 64, 79
1, 199334, Note_on_c, 0, 75, 72
1, 199336, Note_on_c, 0, 66, 67
1, 199337, Note_on_c, 0, 83, 77
1, 199339, Note_on_c, 0, 69, 59
1, 199344, Control_c, 0, 64, 92
1, 199359, Control_c, 0, 64, 102
1, 199363, Note_off_c, 0, 83, 61
1, 199366, Note_off_c, 0, 69, 66
1, 199370, Note_off_c, 0, 66, 64
1, 199371, Note_off_c, 0, 75, 61
1, 199374, Control_c, 0, 64, 104
1, 199388, Control_c, 0, 64, 105
1, 199439, Note_on_c, 0, 67, 60
1, 199441, Note_on_c, 0, 76, 69
1, 199441, Note_on_c, 0, 84, 74
1, 199446, Note_on_c, 0, 70, 59
1, 199459, Note_off_c, 0, 76, 69
1, 199467, Note_off_c, 0, 84, 70
1, 199472, Note_off_c, 0, 70, 60
1, 199475, Note_off_c, 0, 67, 62
1, 199492, Control_c, 0, 64, 106
1, 199507, Control_c, 0, 64, 108
1, 199523, Control_c, 0, 64, 111
1, 199536, Note_on_c, 0, 68, 69
1, 199536, Note_on_c, 0, 85, 83
1, 199537, Control_c, 0, 64, 112
1, 199538, Note_on_c, 0, 77, 75
1, 199544, Note_on_c, 0, 71, 56
1, 199552, Control_c, 0, 64, 112
1, 199560, Note_off_c, 0, 77, 66
1, 199566, Note_off_c, 0, 85, 57
1, 199568, Note_off_c, 0, 68, 64
1, 199568, Note_off_c, 0, 71, 63
1, 199624, Note_on_c, 0, 86, 69
1, 199631, Note_on_c, 0, 78, 82
1, 199643, Note_on_c, 0, 72, 66
1, 199644, Note_on_c, 0, 69, 68
1, 199649, Note_off_c, 0, 78, 72
1, 199664, Note_off_c, 0, 86, 64
1, 199669, Note_off_c, 0, 72, 69
1, 199677, Note_off_c, 0, 69, 59
1, 199739, Note_on_c, 0, 87, 86
1, 199741, Note_on_c, 0, 73, 72
1, 199742, Note_on_c, 0, 70, 66
1, 199743, Note_on_c, 0, 79, 78
1, 199762, Note_off_c, 0, 79, 67
1, 199769, Note_off_c, 0, 70, 68
1, 199769, Note_off_c, 0, 73, 63
1, 199773, Note_off_c, 0, 87, 55
1, 199832, Note_on_c, 0, 88, 87
1, 199836, Note_on_c, 0, 80, 82
1, 199844, Note_on_c, 0, 74, 74
1, 199847, Note_on_c, 0, 71, 72
1, 199861, Note_off_c, 0, 80, 65
1, 199868, Note_off_c, 0, 74, 66
1, 199870, Note_off_c, 0, 88, 60
1, 199891, Note_off_c, 0, 71, 53
1, 199931, Note_on_c, 0, 89, 93
1, 199933, Note_on_c, 0, 72, 57
1, 199935, Note_on_c, 0, 81, 87
1, 199939, Note_on_c, 0, 75, 79
1, 199956, Note_off_c, 0, 81, 65
1, 199963, Note_off_c, 0, 72, 67
1, 199974, Note_off_c, 0, 89, 65
1, 199974, Note_off_c, 0, 75, 61
1, 200029, Note_on_c, 0, 90, 90
1, 200030, Note_on_c, 0, 82, 83
1, 200033, Note_on_c, 0, 73, 79
1, 200037, Note_on_c, 0, 76, 72
1, 200052, Note_off_c, 0, 82, 65
1, 200057, Note_off_c, 0, 73, 66
1, 200061, Note_off_c, 0, 76, 68
1, 200073, Note_off_c, 0, 90, 64
1, 200124, Note_on_c, 0, 91, 96
1, 200129, Note_on_c, 0, 83, 85
1, 200135, Note_on_c, 0, 74, 78
1, 200136, Note_on_c, 0, 77, 79
1, 200154, Note_off_c, 0, 83, 60
1, 200164, Note_off_c, 0, 77, 61
1, 200165, Note_off_c, 0, 91, 64
1, 200167, Control_c, 0, 64, 114
1, 200181, Control_c, 0, 64, 117
1, 200189, Note_off_c, 0, 74, 60
1, 200196, Control_c, 0, 64, 118
1, 200211, Control_c, 0, 64, 118
1, 200226, Control_c, 0, 64, 107
1, 200229, Note_on_c, 0, 75, 70
1, 200231, Note_on_c, 0, 92, 91
1, 200233, Note_on_c, 0, 78, 75
1, 200233, Note_on_c, 0, 84, 83
1, 200241, Control_c, 0, 64, 89
1, 200255, Control_c, 0, 64, 67
1, 200258, Note_off_c, 0, 84, 66
1, 200262, Note_off_c, 0, 75, 66
1, 200263, Note_off_c, 0, 78, 62
1, 200270, Control_c, 0, 64, 0
1, 200275, Note_off_c, 0, 92, 64
1, 200316, Control_c, 0, 64, 63
1, 200328, Note_on_c, 0, 85, 85
1, 200328, Note_on_c, 0, 93, 85
1, 200331, Control_c, 0, 64, 74
1, 200334, Note_on_c, 0, 79, 76
1, 200335, Note_on_c, 0, 76, 75
1, 200346, Control_c, 0, 64, 87
1, 200360, Control_c, 0, 64, 100
1, 200365, Note_off_c, 0, 79, 60
1, 200374, Note_off_c, 0, 93, 62
1, 200375, Control_c, 0, 64, 103
1, 200379, Note_off_c, 0, 76, 61
1, 200386, Note_off_c, 0, 85, 64
1, 200390, Control_c, 0, 64, 104
1, 200405, Control_c, 0, 64, 106
1, 200420, Control_c, 0, 64, 108
1, 200442, Control_c, 0, 64, 111
1, 200443, Note_on_c, 0, 94, 92
1, 200444, Note_on_c, 0, 80, 83
1, 200448, Note_on_c, 0, 86, 83
1, 200455, Note_on_c, 0, 77, 66
1, 200457, Control_c, 0, 64, 113
1, 200472, Control_c, 0, 64, 114
1, 200473, Note_off_c, 0, 86, 66
1, 200481, Note_off_c, 0, 77, 65
1, 200487, Control_c, 0, 64, 114
1, 200490, Note_off_c, 0, 80, 64
1, 200491, Note_off_c, 0, 94, 64
1, 200516, Control_c, 0, 64, 115
1, 200546, Note_on_c, 0, 85, 91
1, 200549, Note_on_c, 0, 93, 95
1, 200562, Note_on_c, 0, 79, 75
1, 200567, Note_on_c, 0, 76, 70
1, 200588, Note_off_c, 0, 85, 65
1, 200589, Note_off_c, 0, 93, 63
1, 200590, Note_off_c, 0, 79, 61
1, 200592, Note_off_c, 0, 76, 67
1, 200605, Control_c, 0, 64, 116
1, 200619, Control_c, 0, 64, 117
1, 200634, Control_c, 0, 64, 121
1, 200647, Note_on_c, 0, 94, 88
1, 200649, Control_c, 0, 64, 127
1, 200654, Note_on_c, 0, 80, 86
1, 200654, Note_on_c, 0, 86, 85
1, 200669, Note_on_c, 0, 77, 69
1, 200673, Note_off_c, 0, 80, 72
1, 200678, Note_off_c, 0, 94, 63
1, 200685, Note_off_c, 0, 86, 63
1, 200692, Note_off_c, 0, 77, 66
1, 200761, Note_on_c, 0, 81, 92
1, 200764, Note_on_c, 0, 93, 91
1, 200789, Note_off_c, 0, 81, 62
1, 200793, Note_off_c, 0, 93, 61
1, 200867, Note_on_c, 0, 82, 79
1, 200868, Note_on_c, 0, 94, 92
1, 200889, Note_off_c, 0, 82, 66
1, 200909, Note_off_c, 0, 94, 62
1, 200946, Control_c, 0, 64, 116
1, 200960, Control_c, 0, 64, 88
1, 200975, Control_c, 0, 64, 65
1, 200978, Note_on_c, 0, 98, 105
1, 200979, Note_on_c, 0, 86, 102
1, 200982, Note_on_c, 0, 94, 89
1, 200986, Note_on_c, 0, 44, 93
1, 200987, Note_on_c, 0, 32, 90
1, 200990, Control_c, 0, 64, 0
1, 201000, Note_on_c, 0, 88, 62
1, 201001, Note_off_c, 0, 88, 127
1, 201001, Note_off_c, 0, 86, 65
1, 201005, Control_c, 0, 64, 15
1, 201007, Note_on_c, 0, 95, 65
1, 201010, Note_off_c, 0, 98, 66
1, 201013, Note_off_c, 0, 32, 67
1, 201020, Control_c, 0, 64, 71
1, 201022, Note_off_c, 0, 44, 62
1, 201025, Note_off_c, 0, 95, 64
1, 201030, Note_off_c, 0, 94, 64
1, 201035, Control_c, 0, 64, 92
1, 201050, Control_c, 0, 64, 123
1, 201065, Control_c, 0, 64, 127
1, 201361, Note_on_c, 0, 65, 91
1, 201367, Note_on_c, 0, 53, 80
1, 201367, Note_on_c, 0, 98, 97
1, 201369, Note_on_c, 0, 86, 102
1, 201370, Note_on_c, 0, 94, 103
1, 201372, Note_on_c, 0, 60, 74
1, 201388, Note_off_c, 0, 65, 63
1, 201421, Note_off_c, 0, 53, 64
1, 201423, Note_off_c, 0, 60, 59
1, 201585, Note_off_c, 0, 98, 63
1, 201589, Note_off_c, 0, 86, 60
1, 201594, Note_off_c, 0, 94, 64
1, 201606, Control_c, 0, 64, 113
1, 201621, Control_c, 0, 64, 91
1, 201636, Control_c, 0, 64, 73
1, 201651, Control_c, 0, 64, 30
1, 201658, Note_on_c, 0, 92, 100
1, 201658, Note_on_c, 0, 96, 97
1, 201659, Note_on_c, 0, 84, 100
1, 201664, Note_on_c, 0, 46, 94
1, 201665, Control_c, 0, 64, 0
1, 201666, Note_on_c, 0, 34, 78
1, 201680, Note_off_c, 0, 84, 65
1, 201680, Control_c, 0, 64, 62
1, 201692, Note_off_c, 0, 96, 65
1, 201694, Note_off_c, 0, 34, 66
1, 201694, Note_off_c, 0, 46, 65
1, 201695, Control_c, 0, 64, 73
1, 201709, Note_off_c, 0, 92, 65
1, 201710, Control_c, 0, 64, 88
1, 201725, Control_c, 0, 64, 96
1, 201740, Control_c, 0, 64, 97
1, 201770, Control_c, 0, 64, 98
1, 201784, Control_c, 0, 64, 98
1, 201799, Control_c, 0, 64, 99
1, 201814, Control_c, 0, 64, 99
1, 201828, Control_c, 0, 64, 100
1, 201843, Control_c, 0, 64, 101
1, 201858, Control_c, 0, 64, 103
1, 201873, Control_c, 0, 64, 103
1, 201888, Control_c, 0, 64, 104
1, 201904, Control_c, 0, 64, 105
1, 201919, Control_c, 0, 64, 106
1, 201935, Note_on_c, 0, 65, 88
1, 201940, Note_on_c, 0, 53, 74
1, 201940, Control_c, 0, 64, 107
1, 201941, Note_on_c, 0, 62, 79
1, 201943, Note_on_c, 0, 96, 98
1, 201946, Note_on_c, 0, 84, 109
1, 201949, Note_on_c, 0, 92, 91
1, 201955, Control_c, 0, 64, 108
1, 201956, Note_off_c, 0, 65, 72
1, 201970, Control_c, 0, 64, 109
1, 201977, Note_off_c, 0, 62, 62
1, 201981, Note_off_c, 0, 53, 61
1, 201985, Control_c, 0, 64, 109
1, 202000, Control_c, 0, 64, 110
1, 202009, Note_off_c, 0, 92, 58
1, 202014, Control_c, 0, 64, 111
1, 202017, Poly_aftertouch_c, 0, 95, 0
1, 202021, Note_off_c, 0, 96, 60
1, 202029, Control_c, 0, 64, 113
1, 202044, Control_c, 0, 64, 121
1, 202059, Control_c, 0, 64, 127
1, 202069, Note_off_c, 0, 84, 60
1, 202133, Control_c, 0, 64, 118
1, 202148, Control_c, 0, 64, 95
1, 202163, Control_c, 0, 64, 76
1, 202178, Control_c, 0, 64, 50
1, 202190, Note_on_c, 0, 91, 101
1, 202191, Note_on_c, 0, 79, 93
1, 202193, Control_c, 0, 64, 0
1, 202195, Note_on_c, 0, 51, 92
1, 202195, Note_on_c, 0, 87, 88
1, 202196, Note_on_c, 0, 39, 85
1, 202208, Control_c, 0, 64, 47
1, 202221, Note_off_c, 0, 39, 64
1, 202222, Control_c, 0, 64, 67
1, 202223, Note_off_c, 0, 79, 63
1, 202232, Note_off_c, 0, 51, 62
1, 202237, Control_c, 0, 64, 77
1, 202246, Note_off_c, 0, 91, 61
1, 202247, Note_off_c, 0, 87, 65
1, 202252, Control_c, 0, 64, 86
1, 202266, Control_c, 0, 64, 91
1, 202281, Control_c, 0, 64, 92
1, 202296, Control_c, 0, 64, 93
1, 202311, Control_c, 0, 64, 94
1, 202326, Control_c, 0, 64, 94
1, 202340, Control_c, 0, 64, 95
1, 202355, Control_c, 0, 64, 96
1, 202370, Control_c, 0, 64, 99
1, 202384, Control_c, 0, 64, 104
1, 202399, Note_on_c, 0, 94, 97
1, 202399, Control_c, 0, 64, 110
1, 202400, Note_on_c, 0, 82, 96
1, 202406, Note_on_c, 0, 67, 85
1, 202408, Note_on_c, 0, 55, 80
1, 202409, Note_on_c, 0, 91, 80
1, 202410, Note_on_c, 0, 63, 83
1, 202414, Control_c, 0, 64, 122
1, 202426, Note_off_c, 0, 67, 71
1, 202429, Control_c, 0, 64, 127
1, 202447, Note_on_c, 0, 92, 35
1, 202448, Note_off_c, 0, 82, 63
1, 202450, Note_off_c, 0, 63, 63
1, 202451, Note_off_c, 0, 55, 62
1, 202454, Note_off_c, 0, 94, 65
1, 202476, Note_off_c, 0, 91, 56
1, 202479, Note_off_c, 0, 92, 40
1, 202607, Control_c, 0, 64, 106
1, 202622, Control_c, 0, 64, 92
1, 202623, Note_on_c, 0, 91, 72
1, 202628, Note_on_c, 0, 82, 97
1, 202631, Note_on_c, 0, 94, 100
1, 202634, Note_on_c, 0, 51, 88
1, 202635, Note_on_c, 0, 39, 79
1, 202637, Control_c, 0, 64, 84
1, 202651, Control_c, 0, 64, 83
1, 202658, Note_off_c, 0, 39, 66
1, 202675, Note_off_c, 0, 51, 59
1, 202681, Control_c, 0, 64, 86
1, 202694, Note_off_c, 0, 91, 59
1, 202697, Note_off_c, 0, 82, 62
1, 202698, Note_off_c, 0, 94, 67
1, 202703, Control_c, 0, 64, 90
1, 202719, Control_c, 0, 64, 93
1, 202734, Control_c, 0, 64, 95
1, 202749, Control_c, 0, 64, 96
1, 202763, Control_c, 0, 64, 99
1, 202767, Note_on_c, 0, 90, 88
1, 202770, Note_on_c, 0, 81, 85
1, 202778, Control_c, 0, 64, 105
1, 202790, Note_off_c, 0, 90, 64
1, 202793, Note_off_c, 0, 81, 64
1, 202793, Control_c, 0, 64, 118
1, 202807, Control_c, 0, 64, 127
1, 202829, Note_on_c, 0, 67, 72
1, 202837, Note_on_c, 0, 94, 100
1, 202839, Note_on_c, 0, 91, 76
1, 202840, Note_on_c, 0, 55, 67
1, 202840, Note_on_c, 0, 82, 100
1, 202845, Note_off_c, 0, 67, 70
1, 202849, Note_on_c, 0, 63, 38
1, 202850, Note_off_c, 0, 63, 127
1, 202873, Note_off_c, 0, 82, 65
1, 202875, Note_off_c, 0, 94, 67
1, 202878, Note_off_c, 0, 91, 61
1, 202886, Note_off_c, 0, 55, 64
1, 203001, Control_c, 0, 64, 105
1, 203015, Control_c, 0, 64, 84
1, 203030, Control_c, 0, 64, 62
1, 203045, Control_c, 0, 64, 0
1, 203072, Note_on_c, 0, 89, 88
1, 203078, Note_on_c, 0, 80, 80
1, 203078, Note_on_c, 0, 53, 68
1, 203078, Note_on_c, 0, 77, 76
1, 203080, Note_on_c, 0, 41, 61
1, 203089, Control_c, 0, 64, 62
1, 203093, Note_off_c, 0, 77, 69
1, 203097, Note_off_c, 0, 80, 72
1, 203098, Note_off_c, 0, 89, 61
1, 203104, Control_c, 0, 64, 69
1, 203105, Note_on_c, 0, 87, 31
1, 203108, Note_off_c, 0, 41, 59
1, 203115, Note_off_c, 0, 53, 66
1, 203119, Control_c, 0, 64, 75
1, 203134, Control_c, 0, 64, 80
1, 203139, Note_off_c, 0, 87, 35
1, 203149, Control_c, 0, 64, 83
1, 203163, Control_c, 0, 64, 85
1, 203165, Note_on_c, 0, 82, 91
1, 203174, Note_on_c, 0, 79, 74
1, 203178, Control_c, 0, 64, 89
1, 203183, Note_off_c, 0, 82, 70
1, 203193, Control_c, 0, 64, 93
1, 203197, Note_off_c, 0, 79, 69
1, 203207, Control_c, 0, 64, 97
1, 203222, Control_c, 0, 64, 101
1, 203237, Control_c, 0, 64, 104
1, 203252, Control_c, 0, 64, 105
1, 203263, Note_on_c, 0, 80, 82
1, 203266, Note_on_c, 0, 92, 85
1, 203266, Note_on_c, 0, 84, 79
1, 203267, Control_c, 0, 64, 106
1, 203277, Note_on_c, 0, 60, 71
1, 203280, Note_on_c, 0, 56, 79
1, 203280, Note_off_c, 0, 80, 74
1, 203281, Control_c, 0, 64, 107
1, 203283, Note_on_c, 0, 90, 53
1, 203285, Note_off_c, 0, 92, 69
1, 203287, Note_off_c, 0, 84, 72
1, 203302, Note_off_c, 0, 60, 66
1, 203307, Note_off_c, 0, 90, 54
1, 203335, Note_off_c, 0, 56, 64
1, 203369, Note_on_c, 0, 84, 84
1, 203371, Note_on_c, 0, 96, 85
1, 203374, Note_on_c, 0, 87, 80
1, 203386, Control_c, 0, 64, 107
1, 203388, Note_off_c, 0, 84, 74
1, 203388, Note_off_c, 0, 96, 71
1, 203395, Note_off_c, 0, 87, 69
1, 203415, Control_c, 0, 64, 108
1, 203468, Note_on_c, 0, 94, 69
1, 203468, Control_c, 0, 64, 107
1, 203476, Note_on_c, 0, 82, 90
1, 203482, Control_c, 0, 64, 99
1, 203486, Note_on_c, 0, 46, 85
1, 203487, Note_on_c, 0, 86, 62
1, 203492, Note_off_c, 0, 82, 72
1, 203493, Note_on_c, 0, 34, 67
1, 203497, Control_c, 0, 64, 86
1, 203503, Note_off_c, 0, 94, 64
1, 203505, Note_off_c, 0, 86, 64
1, 203513, Control_c, 0, 64, 69
1, 203514, Note_off_c, 0, 46, 67
1, 203520, Note_off_c, 0, 34, 53
1, 203528, Control_c, 0, 64, 0
1, 203558, Control_c, 0, 64, 62
1, 203572, Note_on_c, 0, 80, 97
1, 203573, Note_on_c, 0, 92, 101
1, 203573, Control_c, 0, 64, 71
1, 203587, Control_c, 0, 64, 81
1, 203593, Note_off_c, 0, 80, 66
1, 203602, Control_c, 0, 64, 91
1, 203605, Note_off_c, 0, 92, 57
1, 203617, Control_c, 0, 64, 97
1, 203631, Control_c, 0, 64, 100
1, 203646, Control_c, 0, 64, 103
1, 203661, Control_c, 0, 64, 107
1, 203666, Note_on_c, 0, 91, 86
1, 203667, Note_on_c, 0, 79, 85
1, 203671, Note_on_c, 0, 82, 85
1, 203675, Note_on_c, 0, 56, 65
1, 203676, Control_c, 0, 64, 108
1, 203681, Note_on_c, 0, 62, 49
1, 203684, Note_off_c, 0, 91, 66
1, 203685, Note_off_c, 0, 79, 71
1, 203689, Note_off_c, 0, 82, 71
1, 203691, Control_c, 0, 64, 109
1, 203703, Note_off_c, 0, 62, 58
1, 203727, Note_off_c, 0, 56, 61
1, 203759, Note_on_c, 0, 77, 79
1, 203760, Note_on_c, 0, 80, 80
1, 203776, Note_on_c, 0, 87, 62
1, 203779, Note_off_c, 0, 80, 71
1, 203779, Note_off_c, 0, 77, 70
1, 203779, Control_c, 0, 64, 109
1, 203791, Note_off_c, 0, 87, 64
1, 203794, Control_c, 0, 64, 106
1, 203809, Control_c, 0, 64, 102
1, 203824, Control_c, 0, 64, 101
1, 203853, Note_on_c, 0, 82, 102
1, 203854, Note_on_c, 0, 94, 93
1, 203856, Note_on_c, 0, 91, 92
1, 203868, Note_on_c, 0, 39, 78
1, 203868, Note_on_c, 0, 51, 82
1, 203868, Control_c, 0, 64, 101
1, 203892, Note_off_c, 0, 82, 65
1, 203895, Note_off_c, 0, 51, 65
1, 203896, Note_off_c, 0, 39, 64
1, 203901, Note_off_c, 0, 94, 58
1, 203913, Control_c, 0, 64, 102
1, 203919, Note_off_c, 0, 91, 48
1, 203928, Control_c, 0, 64, 103
1, 203943, Control_c, 0, 64, 104
1, 203958, Control_c, 0, 64, 105
1, 203987, Control_c, 0, 64, 103
1, 204002, Control_c, 0, 64, 90
1, 204017, Control_c, 0, 64, 75
1, 204031, Control_c, 0, 64, 57
1, 204046, Control_c, 0, 64, 50
1, 204054, Note_on_c, 0, 82, 96
1, 204055, Note_on_c, 0, 94, 96
1, 204059, Note_on_c, 0, 67, 81
1, 204059, Note_on_c, 0, 91, 71
1, 204061, Control_c, 0, 64, 65
1, 204064, Note_on_c, 0, 55, 76
1, 204065, Note_on_c, 0, 63, 73
1, 204076, Control_c, 0, 64, 73
1, 204080, Note_off_c, 0, 67, 71
1, 204091, Control_c, 0, 64, 82
1, 204092, Note_off_c, 0, 63, 68
1, 204098, Note_off_c, 0, 91, 55
1, 204099, Note_off_c, 0, 94, 68
1, 204103, Note_off_c, 0, 82, 64
1, 204105, Control_c, 0, 64, 90
1, 204115, Note_off_c, 0, 55, 62
1, 204120, Control_c, 0, 64, 91
1, 204135, Control_c, 0, 64, 92
1, 204165, Control_c, 0, 64, 91
1, 204187, Control_c, 0, 64, 87
1, 204202, Control_c, 0, 64, 71
1, 204207, Note_on_c, 0, 90, 82
1, 204208, Note_on_c, 0, 81, 83
1, 204217, Control_c, 0, 64, 0
1, 204226, Note_off_c, 0, 90, 71
1, 204227, Note_off_c, 0, 81, 69
1, 204265, Note_on_c, 0, 94, 107
1, 204268, Note_on_c, 0, 91, 55
1, 204268, Note_on_c, 0, 82, 104
1, 204275, Note_on_c, 0, 51, 85
1, 204282, Note_on_c, 0, 39, 64
1, 204291, Control_c, 0, 64, 43
1, 204305, Note_off_c, 0, 39, 57
1, 204305, Note_off_c, 0, 51, 62
1, 204307, Control_c, 0, 64, 73
1, 204311, Note_on_c, 0, 92, 57
1, 204321, Control_c, 0, 64, 84
1, 204336, Control_c, 0, 64, 91
1, 204351, Control_c, 0, 64, 91
1, 204357, Note_off_c, 0, 82, 51
1, 204366, Control_c, 0, 64, 92
1, 204381, Control_c, 0, 64, 92
1, 204396, Control_c, 0, 64, 93
1, 204410, Control_c, 0, 64, 94
1, 204425, Control_c, 0, 64, 95
1, 204426, Note_off_c, 0, 91, 48
1, 204440, Control_c, 0, 64, 95
1, 204461, Note_off_c, 0, 92, 44
1, 204498, Note_on_c, 0, 63, 91
1, 204498, Note_on_c, 0, 67, 85
1, 204501, Note_on_c, 0, 55, 80
1, 204501, Note_off_c, 0, 94, 65
1, 204518, Note_off_c, 0, 67, 70
1, 204543, Control_c, 0, 64, 96
1, 204549, Note_off_c, 0, 63, 65
1, 204558, Control_c, 0, 64, 96
1, 204559, Note_off_c, 0, 55, 63
1, 204573, Control_c, 0, 64, 98
1, 204588, Control_c, 0, 64, 102
1, 204602, Control_c, 0, 64, 108
1, 204617, Control_c, 0, 64, 117
1, 204632, Control_c, 0, 64, 127
1, 204676, Control_c, 0, 64, 118
1, 204691, Control_c, 0, 64, 97
1, 204706, Control_c, 0, 64, 76
1, 204721, Control_c, 0, 64, 0
1, 204745, Note_on_c, 0, 98, 99
1, 204748, Note_on_c, 0, 86, 99
1, 204748, Note_on_c, 0, 94, 98
1, 204763, Note_on_c, 0, 44, 91
1, 204765, Note_off_c, 0, 86, 69
1, 204766, Note_on_c, 0, 32, 79
1, 204766, Control_c, 0, 64, 65
1, 204780, Control_c, 0, 64, 76
1, 204781, Note_off_c, 0, 98, 61
1, 204786, Note_off_c, 0, 32, 67
1, 204792, Note_off_c, 0, 94, 66
1, 204795, Control_c, 0, 64, 88
1, 204798, Note_off_c, 0, 44, 63
1, 204810, Control_c, 0, 64, 95
1, 204825, Control_c, 0, 64, 96
1, 204965, Control_c, 0, 64, 96
1, 204979, Control_c, 0, 64, 97
1, 204994, Control_c, 0, 64, 97
1, 205054, Note_on_c, 0, 65, 90
1, 205057, Note_on_c, 0, 86, 113
1, 205058, Note_on_c, 0, 98, 104
1, 205058, Note_on_c, 0, 94, 93
1, 205059, Note_on_c, 0, 60, 80
1, 205067, Note_on_c, 0, 54, 51
1, 205072, Note_off_c, 0, 65, 75
1, 205073, Note_on_c, 0, 53, 66
1, 205091, Note_off_c, 0, 54, 59
1, 205092, Note_off_c, 0, 60, 62
1, 205102, Note_off_c, 0, 53, 67
1, 205144, Control_c, 0, 64, 98
1, 205158, Control_c, 0, 64, 102
1, 205173, Control_c, 0, 64, 105
1, 205188, Control_c, 0, 64, 107
1, 205208, Note_off_c, 0, 98, 62
1, 205215, Note_off_c, 0, 86, 59
1, 205217, Control_c, 0, 64, 102
1, 205222, Note_off_c, 0, 94, 63
1, 205232, Control_c, 0, 64, 88
1, 205247, Control_c, 0, 64, 67
1, 205262, Control_c, 0, 64, 0
1, 205276, Control_c, 0, 64, 33
1, 205286, Note_on_c, 0, 96, 95
1, 205287, Note_on_c, 0, 92, 101
1, 205287, Note_on_c, 0, 46, 91
1, 205287, Note_on_c, 0, 84, 104
1, 205288, Note_on_c, 0, 34, 86
1, 205291, Control_c, 0, 64, 65
1, 205306, Note_on_c, 0, 94, 58
1, 205306, Control_c, 0, 64, 74
1, 205310, Note_off_c, 0, 34, 69
1, 205311, Note_off_c, 0, 84, 64
1, 205317, Note_off_c, 0, 46, 65
1, 205321, Control_c, 0, 64, 85
1, 205322, Note_off_c, 0, 96, 63
1, 205328, Note_off_c, 0, 94, 56
1, 205336, Control_c, 0, 64, 92
1, 205338, Note_off_c, 0, 92, 65
1, 205350, Control_c, 0, 64, 93
1, 205395, Control_c, 0, 64, 93
1, 205409, Control_c, 0, 64, 95
1, 205424, Control_c, 0, 64, 98
1, 205439, Control_c, 0, 64, 101
1, 205469, Control_c, 0, 64, 99
1, 205484, Control_c, 0, 64, 90
1, 205499, Control_c, 0, 64, 75
1, 205512, Note_on_c, 0, 53, 84
1, 205512, Note_on_c, 0, 65, 82
1, 205513, Note_on_c, 0, 96, 104
1, 205514, Note_on_c, 0, 84, 108
1, 205514, Control_c, 0, 64, 10
1, 205518, Note_on_c, 0, 92, 94
1, 205519, Note_on_c, 0, 62, 71
1, 205529, Control_c, 0, 64, 0
1, 205533, Note_off_c, 0, 65, 72
1, 205544, Control_c, 0, 64, 61
1, 205544, Note_off_c, 0, 62, 65
1, 205553, Note_off_c, 0, 53, 64
1, 205558, Control_c, 0, 64, 71
1, 205564, Note_off_c, 0, 92, 60
1, 205566, Note_off_c, 0, 96, 57
1, 205573, Control_c, 0, 64, 82
1, 205588, Control_c, 0, 64, 97
1, 205602, Control_c, 0, 64, 108
1, 205617, Control_c, 0, 64, 115
1, 205618, Note_off_c, 0, 84, 61
1, 205632, Control_c, 0, 64, 116
1, 205647, Control_c, 0, 64, 113
1, 205662, Control_c, 0, 64, 98
1, 205684, Control_c, 0, 64, 77
1, 205699, Control_c, 0, 64, 0
1, 205727, Note_on_c, 0, 91, 98
1, 205730, Note_on_c, 0, 79, 89
1, 205734, Note_on_c, 0, 87, 89
1, 205737, Note_on_c, 0, 51, 90
1, 205739, Note_on_c, 0, 39, 78
1, 205743, Control_c, 0, 64, 65
1, 205758, Control_c, 0, 64, 77
1, 205764, Note_off_c, 0, 79, 61
1, 205766, Note_off_c, 0, 39, 66
1, 205771, Note_off_c, 0, 51, 60
1, 205773, Control_c, 0, 64, 92
1, 205784, Note_off_c, 0, 91, 60
1, 205788, Control_c, 0, 64, 103
1, 205792, Note_off_c, 0, 87, 63
1, 205802, Control_c, 0, 64, 107
1, 205817, Control_c, 0, 64, 109
1, 205921, Note_on_c, 0, 67, 85
1, 205924, Note_on_c, 0, 94, 99
1, 205925, Note_on_c, 0, 82, 96
1, 205928, Note_on_c, 0, 91, 86
1, 205933, Note_on_c, 0, 63, 70
1, 205934, Note_on_c, 0, 55, 59
1, 205940, Note_off_c, 0, 67, 72
1, 205962, Note_off_c, 0, 63, 66
1, 205971, Note_off_c, 0, 82, 63
1, 205977, Note_off_c, 0, 55, 65
1, 205987, Note_off_c, 0, 94, 64
1, 205996, Control_c, 0, 64, 110
1, 206011, Control_c, 0, 64, 116
1, 206014, Note_off_c, 0, 91, 52
1, 206026, Control_c, 0, 64, 120
1, 206040, Control_c, 0, 64, 119
1, 206055, Control_c, 0, 64, 105
1, 206070, Control_c, 0, 64, 87
1, 206085, Control_c, 0, 64, 67
1, 206100, Control_c, 0, 64, 0
1, 206114, Control_c, 0, 64, 51
1, 206125, Note_on_c, 0, 39, 85
1, 206128, Note_on_c, 0, 51, 87
1, 206129, Note_on_c, 0, 82, 98
1, 206129, Note_on_c, 0, 91, 82
1, 206129, Control_c, 0, 64, 67
1, 206131, Note_on_c, 0, 94, 95
1, 206144, Control_c, 0, 64, 76
1, 206155, Note_off_c, 0, 39, 67
1, 206159, Control_c, 0, 64, 85
1, 206168, Note_off_c, 0, 51, 60
1, 206173, Control_c, 0, 64, 88
1, 206188, Control_c, 0, 64, 89
1, 206191, Note_off_c, 0, 82, 60
1, 206191, Note_off_c, 0, 91, 57
1, 206199, Note_off_c, 0, 94, 65
1, 206247, Control_c, 0, 64, 89
1, 206257, Note_on_c, 0, 90, 90
1, 206262, Note_on_c, 0, 81, 88
1, 206262, Control_c, 0, 64, 91
1, 206277, Control_c, 0, 64, 94
1, 206283, Note_off_c, 0, 81, 68
1, 206292, Control_c, 0, 64, 98
1, 206293, Note_off_c, 0, 90, 61
1, 206307, Control_c, 0, 64, 100
1, 206313, Note_on_c, 0, 67, 79
1, 206315, Note_on_c, 0, 55, 77
1, 206322, Control_c, 0, 64, 102
1, 206325, Note_on_c, 0, 94, 100
1, 206328, Note_on_c, 0, 82, 96
1, 206330, Note_off_c, 0, 67, 69
1, 206333, Note_on_c, 0, 63, 50
1, 206333, Note_on_c, 0, 91, 85
1, 206337, Control_c, 0, 64, 103
1, 206351, Control_c, 0, 64, 105
1, 206355, Note_off_c, 0, 91, 62
1, 206360, Note_off_c, 0, 63, 55
1, 206360, Note_off_c, 0, 94, 67
1, 206362, Note_off_c, 0, 82, 64
1, 206365, Note_off_c, 0, 55, 64
1, 206366, Control_c, 0, 64, 109
1, 206381, Control_c, 0, 64, 119
1, 206396, Control_c, 0, 64, 127
1, 206447, Control_c, 0, 64, 121
1, 206462, Control_c, 0, 64, 99
1, 206477, Control_c, 0, 64, 79
1, 206492, Control_c, 0, 64, 0
1, 206551, Control_c, 0, 64, 66
1, 206556, Note_on_c, 0, 41, 54
1, 206556, Note_on_c, 0, 89, 81
1, 206557, Note_on_c, 0, 53, 72
1, 206561, Note_on_c, 0, 77, 73
1, 206562, Note_on_c, 0, 80, 76
1, 206566, Control_c, 0, 64, 75
1, 206576, Note_off_c, 0, 80, 71
1, 206576, Note_off_c, 0, 89, 71
1, 206577, Note_off_c, 0, 77, 67
1, 206581, Control_c, 0, 64, 83
1, 206587, Note_off_c, 0, 53, 67
1, 206589, Note_off_c, 0, 41, 57
1, 206596, Control_c, 0, 64, 86
1, 206611, Control_c, 0, 64, 87
1, 206640, Control_c, 0, 64, 87
1, 206644, Note_on_c, 0, 82, 90
1, 206650, Note_on_c, 0, 79, 82
1, 206655, Control_c, 0, 64, 88
1, 206670, Note_off_c, 0, 79, 70
1, 206670, Control_c, 0, 64, 89
1, 206685, Note_off_c, 0, 82, 62
1, 206685, Control_c, 0, 64, 91
1, 206687, Note_on_c, 0, 91, 26
1, 206688, Note_off_c, 0, 91, 127
1, 206700, Control_c, 0, 64, 92
1, 206715, Control_c, 0, 64, 92
1, 206742, Note_on_c, 0, 92, 80
1, 206744, Note_on_c, 0, 60, 66
1, 206745, Note_on_c, 0, 80, 81
1, 206746, Note_on_c, 0, 56, 72
1, 206746, Note_on_c, 0, 83, 73
1, 206760, Control_c, 0, 64, 93
1, 206761, Note_off_c, 0, 92, 73
1, 206763, Note_off_c, 0, 83, 66
1, 206765, Note_off_c, 0, 60, 64
1, 206765, Note_off_c, 0, 80, 67
1, 206793, Note_off_c, 0, 56, 60
1, 206804, Control_c, 0, 64, 94
1, 206834, Control_c, 0, 64, 94
1, 206836, Note_on_c, 0, 81, 89
1, 206839, Note_on_c, 0, 84, 82
1, 206848, Note_on_c, 0, 93, 68
1, 206857, Note_off_c, 0, 81, 66
1, 206858, Note_off_c, 0, 84, 73
1, 206864, Note_off_c, 0, 93, 62
1, 206878, Control_c, 0, 64, 91
1, 206893, Control_c, 0, 64, 81
1, 206908, Control_c, 0, 64, 65
1, 206923, Control_c, 0, 64, 0
1, 206930, Note_on_c, 0, 85, 88
1, 206933, Note_on_c, 0, 94, 88
1, 206934, Note_on_c, 0, 82, 79
1, 206939, Note_on_c, 0, 34, 69
1, 206939, Note_on_c, 0, 46, 81
1, 206949, Note_off_c, 0, 85, 71
1, 206951, Note_off_c, 0, 94, 72
1, 206952, Control_c, 0, 64, 51
1, 206954, Note_off_c, 0, 82, 71
1, 206965, Note_off_c, 0, 46, 65
1, 206967, Control_c, 0, 64, 68
1, 206970, Note_off_c, 0, 34, 64
1, 206982, Control_c, 0, 64, 75
1, 206997, Control_c, 0, 64, 81
1, 207011, Control_c, 0, 64, 83
1, 207022, Note_on_c, 0, 86, 94
1, 207026, Note_on_c, 0, 83, 84
1, 207029, Note_on_c, 0, 95, 82
1, 207040, Note_off_c, 0, 86, 70
1, 207041, Control_c, 0, 64, 84
1, 207043, Note_off_c, 0, 83, 71
1, 207049, Note_off_c, 0, 95, 72
1, 207055, Control_c, 0, 64, 84
1, 207070, Control_c, 0, 64, 85
1, 207085, Control_c, 0, 64, 86
1, 207106, Note_on_c, 0, 56, 67
1, 207115, Note_on_c, 0, 87, 96
1, 207120, Note_on_c, 0, 84, 84
1, 207121, Note_on_c, 0, 96, 84
1, 207124, Note_off_c, 0, 56, 63
1, 207129, Control_c, 0, 64, 86
1, 207136, Note_off_c, 0, 84, 70
1, 207139, Note_off_c, 0, 96, 71
1, 207144, Control_c, 0, 64, 87
1, 207150, Note_off_c, 0, 87, 60
1, 207159, Control_c, 0, 64, 87
1, 207210, Control_c, 0, 64, 87
1, 207213, Note_on_c, 0, 89, 88
1, 207216, Note_on_c, 0, 86, 89
1, 207224, Note_on_c, 0, 98, 77
1, 207225, Control_c, 0, 64, 79
1, 207233, Note_off_c, 0, 86, 73
1, 207233, Note_off_c, 0, 89, 71
1, 207237, Note_off_c, 0, 98, 69
1, 207240, Control_c, 0, 64, 47
1, 207255, Control_c, 0, 64, 0
1, 207302, Note_on_c, 0, 99, 111
1, 207303, Note_on_c, 0, 87, 105
1, 207305, Note_on_c, 0, 39, 90
1, 207305, Note_on_c, 0, 51, 100
1, 207305, Note_on_c, 0, 91, 103
1, 207329, Note_off_c, 0, 87, 64
1, 207337, Note_off_c, 0, 91, 54
1, 207338, Note_off_c, 0, 99, 67
1, 207344, Control_c, 0, 64, 79
1, 207348, Note_off_c, 0, 39, 61
1, 207359, Control_c, 0, 64, 127
1, 207360, Note_off_c, 0, 51, 62
1, 207779, Note_on_c, 0, 87, 106
1, 207781, Note_on_c, 0, 75, 108
1, 207781, Note_on_c, 0, 82, 102
1, 207784, Note_on_c, 0, 79, 89
1, 207788, Note_on_c, 0, 67, 107
1, 207789, Note_on_c, 0, 63, 97
1, 207790, Note_on_c, 0, 55, 88
1, 207793, Note_on_c, 0, 58, 85
1, 207803, Note_on_c, 0, 85, 65
1, 207808, Note_off_c, 0, 87, 69
1, 207817, Note_off_c, 0, 75, 69
1, 207818, Note_off_c, 0, 79, 65
1, 207819, Note_off_c, 0, 82, 67
1, 207820, Note_off_c, 0, 85, 66
1, 207824, Note_off_c, 0, 67, 65
1, 207832, Note_off_c, 0, 55, 66
1, 207839, Note_off_c, 0, 63, 66
1, 207842, Note_off_c, 0, 58, 65
1, 208434, Control_c, 0, 64, 123
1, 208449, Control_c, 0, 64, 120
1, 208464, Control_c, 0, 64, 117
1, 208479, Control_c, 0, 64, 115
1, 208493, Control_c, 0, 64, 112
1, 208508, Control_c, 0, 64, 109
1, 208523, Control_c, 0, 64, 107
1, 208538, Control_c, 0, 64, 105
1, 208553, Control_c, 0, 64, 102
1, 208567, Control_c, 0, 64, 100
1, 208582, Control_c, 0, 64, 97
1, 208597, Control_c, 0, 64, 95
1, 208612, Control_c, 0, 64, 92
1, 208626, Control_c, 0, 64, 89
1, 208641, Control_c, 0, 64, 86
1, 208656, Control_c, 0, 64, 83
1, 208679, Control_c, 0, 64, 78
1, 208694, Control_c, 0, 64, 73
1, 208708, Control_c, 0, 64, 67
1, 208723, Control_c, 0, 64, 61
1, 208738, Control_c, 0, 64, 50
1, 208753, Control_c, 0, 64, 40
1, 208768, Control_c, 0, 64, 31
1, 208782, Control_c, 0, 64, 29
1, 208812, Control_c, 0, 64, 28
1, 208826, Control_c, 0, 64, 24
1, 208841, Control_c, 0, 64, 18
1, 208856, Control_c, 0, 64, 13
1, 208871, Control_c, 0, 64, 0
1, 208930, Control_c, 0, 67, 12
1, 208945, Control_c, 0, 67, 19
1, 208960, Control_c, 0, 67, 26
1, 208975, Control_c, 0, 67, 33
1, 208990, Control_c, 0, 67, 41
1, 209004, Control_c, 0, 67, 50
1, 209019, Control_c, 0, 67, 59
1, 209034, Control_c, 0, 67, 70
1, 209049, Control_c, 0, 67, 79
1, 209064, Control_c, 0, 67, 86
1, 209079, Control_c, 0, 67, 92
1, 209094, Control_c, 0, 67, 95
1, 209109, Control_c, 0, 67, 97
1, 209124, Control_c, 0, 67, 101
1, 209139, Control_c, 0, 67, 107
1, 209153, Control_c, 0, 67, 115
1, 209168, Control_c, 0, 67, 122
1, 209183, Control_c, 0, 67, 127
1, 209362, Note_on_c, 0, 58, 56
1, 209399, Note_off_c, 0, 58, 66
1, 209437, Note_on_c, 0, 60, 56
1, 209479, Note_off_c, 0, 60, 59
1, 209512, Note_on_c, 0, 58, 51
1, 209544, Note_off_c, 0, 58, 62
1, 209581, Note_on_c, 0, 57, 46
1, 209636, Note_off_c, 0, 57, 55
1, 209653, Note_on_c, 0, 58, 47
1, 209752, Note_off_c, 0, 58, 62
1, 209778, Note_on_c, 0, 62, 63
1, 209809, Note_off_c, 0, 62, 63
1, 210031, Note_on_c, 0, 61, 58
1, 210064, Note_off_c, 0, 61, 63
1, 210196, Note_on_c, 0, 60, 51
1, 210198, Note_on_c, 0, 53, 55
1, 210204, Note_on_c, 0, 46, 55
1, 210228, Note_off_c, 0, 60, 58
1, 210232, Note_off_c, 0, 53, 66
1, 210247, Note_off_c, 0, 46, 60
1, 210340, Note_on_c, 0, 59, 45
1, 210376, Note_off_c, 0, 59, 54
1, 210457, Note_on_c, 0, 39, 42
1, 210461, Note_on_c, 0, 58, 63
1, 210484, Note_off_c, 0, 39, 53
1, 210493, Note_off_c, 0, 58, 65
1, 210566, Note_on_c, 0, 57, 62
1, 210599, Note_off_c, 0, 57, 63
1, 210671, Note_on_c, 0, 46, 46
1, 210672, Note_on_c, 0, 53, 41
1, 210677, Note_on_c, 0, 56, 64
1, 210713, Note_off_c, 0, 56, 63
1, 210721, Note_off_c, 0, 53, 50
1, 210754, Note_off_c, 0, 46, 49
1, 210790, Note_on_c, 0, 60, 60
1, 210831, Note_off_c, 0, 60, 59
1, 210909, Note_on_c, 0, 55, 46
1, 210979, Note_off_c, 0, 55, 56
1, 210997, Note_on_c, 0, 56, 58
1, 211068, Note_off_c, 0, 56, 60
1, 211088, Note_on_c, 0, 57, 66
1, 211101, Note_on_c, 0, 46, 53
1, 211109, Note_on_c, 0, 51, 45
1, 211124, Note_off_c, 0, 57, 58
1, 211161, Note_on_c, 0, 58, 62
1, 211190, Note_off_c, 0, 58, 66
1, 211198, Note_on_c, 0, 57, 55
1, 211235, Note_off_c, 0, 57, 64
1, 211258, Note_on_c, 0, 58, 62
1, 211279, Note_off_c, 0, 58, 65
1, 211297, Note_on_c, 0, 60, 61
1, 211303, Note_off_c, 0, 51, 42
1, 211313, Note_off_c, 0, 46, 57
1, 211334, Note_on_c, 0, 39, 51
1, 211338, Note_off_c, 0, 60, 63
1, 211344, Note_on_c, 0, 58, 79
1, 211365, Note_off_c, 0, 58, 69
1, 211382, Note_off_c, 0, 39, 60
1, 211538, Note_on_c, 0, 57, 63
1, 211570, Note_off_c, 0, 57, 64
1, 211676, Note_on_c, 0, 58, 67
1, 211684, Note_on_c, 0, 46, 46
1, 211684, Note_on_c, 0, 51, 48
1, 211713, Note_off_c, 0, 58, 63
1, 211726, Note_off_c, 0, 51, 56
1, 211732, Note_off_c, 0, 46, 57
1, 211789, Note_on_c, 0, 55, 60
1, 211817, Note_off_c, 0, 55, 66
1, 211890, Note_on_c, 0, 53, 67
1, 211931, Note_off_c, 0, 53, 63
1, 211992, Note_on_c, 0, 55, 66
1, 212029, Note_off_c, 0, 55, 62
1, 212095, Note_on_c, 0, 56, 60
1, 212110, Note_on_c, 0, 46, 37
1, 212116, Note_on_c, 0, 50, 27
1, 212134, Note_off_c, 0, 56, 62
1, 212146, Note_off_c, 0, 46, 49
1, 212156, Note_off_c, 0, 50, 42
1, 212198, Note_on_c, 0, 60, 55
1, 212249, Note_off_c, 0, 60, 51
1, 212300, Note_on_c, 0, 58, 64
1, 212301, Note_on_c, 0, 39, 28
1, 212337, Note_off_c, 0, 58, 63
1, 212382, Note_off_c, 0, 39, 34
1, 212390, Note_on_c, 0, 56, 68
1, 212432, Note_off_c, 0, 56, 63
1, 212501, Note_on_c, 0, 55, 68
1, 212507, Note_on_c, 0, 46, 38
1, 212507, Note_on_c, 0, 50, 27
1, 212538, Note_off_c, 0, 55, 64
1, 212554, Note_off_c, 0, 50, 46
1, 212569, Note_off_c, 0, 46, 52
1, 212593, Note_on_c, 0, 53, 66
1, 212640, Note_off_c, 0, 53, 63
1, 212692, Note_on_c, 0, 57, 62
1, 212725, Note_off_c, 0, 57, 62
1, 212782, Note_on_c, 0, 58, 63
1, 212802, Note_off_c, 0, 58, 66
1, 212874, Note_on_c, 0, 58, 76
1, 212886, Note_on_c, 0, 55, 40
1, 212890, Note_on_c, 0, 46, 47
1, 212915, Note_off_c, 0, 55, 55
1, 212921, Note_off_c, 0, 58, 63
1, 212949, Note_off_c, 0, 46, 57
1, 212972, Note_on_c, 0, 59, 81
1, 213002, Note_off_c, 0, 59, 65
1, 213073, Note_on_c, 0, 59, 83
1, 213074, Note_on_c, 0, 39, 53
1, 213111, Note_off_c, 0, 39, 62
1, 213118, Note_off_c, 0, 59, 60
1, 213181, Note_on_c, 0, 60, 81
1, 213217, Note_off_c, 0, 60, 61
1, 213291, Note_on_c, 0, 60, 78
1, 213306, Note_on_c, 0, 46, 39
1, 213306, Note_on_c, 0, 55, 42
1, 213341, Note_off_c, 0, 60, 57
1, 213348, Note_off_c, 0, 55, 47
1, 213351, Note_off_c, 0, 46, 47
1, 213408, Note_on_c, 0, 61, 70
1, 213438, Note_off_c, 0, 61, 65
1, 213528, Note_on_c, 0, 62, 74
1, 213576, Note_off_c, 0, 62, 59
1, 213643, Note_on_c, 0, 61, 67
1, 213674, Note_off_c, 0, 61, 64
1, 213735, Note_on_c, 0, 46, 49
1, 213737, Note_on_c, 0, 53, 49
1, 213741, Note_on_c, 0, 60, 65
1, 213773, Note_off_c, 0, 60, 63
1, 213776, Note_off_c, 0, 53, 57
1, 213788, Note_off_c, 0, 46, 56
1, 213833, Note_on_c, 0, 59, 63
1, 213877, Note_off_c, 0, 59, 62
1, 213944, Note_on_c, 0, 58, 70
1, 213953, Note_on_c, 0, 39, 40
1, 213980, Note_off_c, 0, 58, 63
1, 213988, Note_off_c, 0, 39, 53
1, 214031, Note_on_c, 0, 57, 69
1, 214078, Note_off_c, 0, 57, 60
1, 214135, Note_on_c, 0, 56, 61
1, 214141, Note_on_c, 0, 53, 47
1, 214161, Note_on_c, 0, 46, 32
1, 214167, Note_off_c, 0, 56, 63
1, 214181, Note_off_c, 0, 53, 54
1, 214203, Note_off_c, 0, 46, 48
1, 214230, Note_on_c, 0, 60, 62
1, 214273, Note_off_c, 0, 60, 60
1, 214325, Note_on_c, 0, 55, 65
1, 214364, Note_off_c, 0, 55, 63
1, 214401, Note_on_c, 0, 56, 63
1, 214453, Note_off_c, 0, 56, 62
1, 214472, Note_on_c, 0, 57, 65
1, 214510, Note_off_c, 0, 57, 60
1, 214518, Note_on_c, 0, 46, 48
1, 214519, Note_on_c, 0, 51, 47
1, 214531, Note_on_c, 0, 58, 71
1, 214565, Note_off_c, 0, 58, 65
1, 214591, Note_on_c, 0, 57, 65
1, 214621, Note_off_c, 0, 57, 64
1, 214635, Note_on_c, 0, 58, 62
1, 214671, Note_off_c, 0, 51, 35
1, 214673, Note_off_c, 0, 58, 66
1, 214680, Note_on_c, 0, 60, 67
1, 214684, Control_c, 0, 67, 112
1, 214700, Control_c, 0, 67, 89
1, 214714, Note_off_c, 0, 46, 50
1, 214715, Control_c, 0, 67, 72
1, 214721, Note_on_c, 0, 58, 90
1, 214723, Note_on_c, 0, 39, 59
1, 214725, Note_off_c, 0, 60, 63
1, 214730, Control_c, 0, 67, 61
1, 214744, Control_c, 0, 67, 56
1, 214749, Note_off_c, 0, 58, 68
1, 214759, Control_c, 0, 67, 54
1, 214774, Control_c, 0, 67, 53
1, 214777, Note_off_c, 0, 39, 60
1, 214788, Control_c, 0, 67, 51
1, 214803, Control_c, 0, 67, 48
1, 214818, Control_c, 0, 67, 47
1, 214848, Control_c, 0, 67, 48
1, 214886, Note_on_c, 0, 57, 81
1, 214892, Control_c, 0, 67, 49
1, 214917, Note_off_c, 0, 57, 65
1, 214996, Control_c, 0, 67, 49
1, 214996, Note_on_c, 0, 58, 76
1, 215023, Note_on_c, 0, 46, 46
1, 215026, Control_c, 0, 67, 50
1, 215026, Note_on_c, 0, 51, 41
1, 215029, Note_off_c, 0, 58, 62
1, 215061, Note_off_c, 0, 51, 51
1, 215068, Note_off_c, 0, 46, 57
1, 215109, Note_on_c, 0, 55, 61
1, 215138, Note_off_c, 0, 55, 66
1, 215159, Control_c, 0, 67, 49
1, 215203, Control_c, 0, 67, 49
1, 215210, Note_on_c, 0, 53, 69
1, 215233, Control_c, 0, 67, 48
1, 215245, Note_off_c, 0, 53, 65
1, 215262, Control_c, 0, 67, 48
1, 215300, Note_on_c, 0, 55, 67
1, 215321, Control_c, 0, 67, 47
1, 215344, Note_off_c, 0, 55, 62
1, 215398, Note_on_c, 0, 56, 67
1, 215401, Note_on_c, 0, 46, 46
1, 215404, Note_on_c, 0, 50, 43
1, 215441, Note_off_c, 0, 56, 63
1, 215445, Note_off_c, 0, 50, 54
1, 215452, Note_off_c, 0, 46, 58
1, 215498, Note_on_c, 0, 60, 63
1, 215537, Note_off_c, 0, 60, 57
1, 215581, Control_c, 0, 67, 48
1, 215595, Note_on_c, 0, 58, 67
1, 215596, Control_c, 0, 67, 49
1, 215610, Note_on_c, 0, 39, 42
1, 215610, Control_c, 0, 67, 50
1, 215625, Control_c, 0, 67, 52
1, 215631, Note_off_c, 0, 58, 63
1, 215640, Control_c, 0, 67, 53
1, 215655, Note_off_c, 0, 39, 57
1, 215655, Control_c, 0, 67, 54
1, 215670, Control_c, 0, 67, 55
1, 215685, Control_c, 0, 67, 57
1, 215688, Note_on_c, 0, 56, 67
1, 215700, Control_c, 0, 67, 58
1, 215714, Control_c, 0, 67, 60
1, 215720, Note_off_c, 0, 56, 63
1, 215729, Control_c, 0, 67, 61
1, 215744, Control_c, 0, 67, 62
1, 215785, Note_on_c, 0, 55, 68
1, 215789, Control_c, 0, 67, 62
1, 215796, Note_on_c, 0, 46, 46
1, 215801, Note_on_c, 0, 50, 42
1, 215841, Note_off_c, 0, 55, 61
1, 215842, Note_off_c, 0, 50, 49
1, 215848, Control_c, 0, 67, 61
1, 215850, Note_off_c, 0, 46, 53
1, 215863, Control_c, 0, 67, 61
1, 215878, Control_c, 0, 67, 60
1, 215884, Note_on_c, 0, 53, 61
1, 215892, Control_c, 0, 67, 60
1, 215907, Control_c, 0, 67, 59
1, 215922, Control_c, 0, 67, 59
1, 215929, Note_off_c, 0, 53, 64
1, 215981, Note_on_c, 0, 55, 60
1, 216010, Control_c, 0, 67, 59
1, 216072, Note_off_c, 0, 55, 39
1, 216078, Note_on_c, 0, 51, 58
1, 216114, Control_c, 0, 67, 60
1, 216119, Note_off_c, 0, 51, 63
1, 216175, Note_on_c, 0, 46, 51
1, 216178, Note_on_c, 0, 55, 68
1, 216196, Note_on_c, 0, 51, 42
1, 216211, Control_c, 0, 67, 59
1, 216212, Note_off_c, 0, 55, 65
1, 216240, Control_c, 0, 67, 59
1, 216255, Control_c, 0, 67, 58
1, 216265, Note_on_c, 0, 58, 71
1, 216270, Control_c, 0, 67, 58
1, 216285, Control_c, 0, 67, 57
1, 216292, Note_off_c, 0, 58, 68
1, 216301, Control_c, 0, 67, 57
1, 216315, Control_c, 0, 67, 56
1, 216356, Note_on_c, 0, 39, 49
1, 216367, Note_on_c, 0, 63, 79
1, 216374, Control_c, 0, 67, 56
1, 216404, Control_c, 0, 67, 55
1, 216419, Control_c, 0, 67, 55
1, 216424, Note_off_c, 0, 63, 63
1, 216427, Note_off_c, 0, 51, 34
1, 216439, Note_off_c, 0, 46, 39
1, 216448, Control_c, 0, 67, 54
1, 216467, Note_on_c, 0, 66, 74
1, 216493, Control_c, 0, 67, 54
1, 216501, Note_off_c, 0, 39, 35
1, 216507, Control_c, 0, 67, 53
1, 216519, Note_off_c, 0, 66, 65
1, 216522, Control_c, 0, 67, 53
1, 216537, Control_c, 0, 67, 52
1, 216550, Note_on_c, 0, 67, 73
1, 216552, Control_c, 0, 67, 51
1, 216567, Control_c, 0, 67, 50
1, 216582, Control_c, 0, 67, 49
1, 216591, Note_off_c, 0, 67, 60
1, 216597, Control_c, 0, 67, 47
1, 216612, Control_c, 0, 67, 45
1, 216627, Control_c, 0, 67, 42
1, 216639, Note_on_c, 0, 70, 71
1, 216641, Control_c, 0, 67, 38
1, 216656, Control_c, 0, 67, 36
1, 216664, Note_off_c, 0, 70, 69
1, 216715, Control_c, 0, 67, 37
1, 216730, Control_c, 0, 67, 37
1, 216745, Control_c, 0, 67, 38
1, 216758, Note_on_c, 0, 74, 67
1, 216759, Control_c, 0, 67, 39
1, 216782, Note_off_c, 0, 74, 70
1, 216789, Control_c, 0, 67, 40
1, 216857, Note_on_c, 0, 65, 60
1, 216891, Note_off_c, 0, 65, 66
1, 216931, Control_c, 0, 64, 29
1, 216946, Control_c, 0, 64, 73
1, 216950, Note_on_c, 0, 74, 73
1, 216960, Control_c, 0, 64, 86
1, 216960, Note_on_c, 0, 56, 57
1, 216963, Note_on_c, 0, 46, 59
1, 216975, Control_c, 0, 64, 102
1, 216990, Control_c, 0, 64, 115
1, 216993, Note_off_c, 0, 56, 63
1, 217005, Note_off_c, 0, 74, 61
1, 217005, Control_c, 0, 64, 127
1, 217020, Control_c, 0, 67, 39
1, 217034, Control_c, 0, 67, 39
1, 217043, Note_on_c, 0, 82, 79
1, 217047, Note_off_c, 0, 46, 50
1, 217049, Control_c, 0, 67, 38
1, 217064, Control_c, 0, 67, 38
1, 217065, Note_off_c, 0, 82, 69
1, 217095, Control_c, 0, 64, 109
1, 217110, Control_c, 0, 64, 90
1, 217110, Control_c, 0, 67, 38
1, 217124, Control_c, 0, 64, 73
1, 217124, Control_c, 0, 67, 40
1, 217139, Control_c, 0, 64, 0
1, 217139, Control_c, 0, 67, 41
1, 217144, Note_on_c, 0, 39, 52
1, 217149, Note_on_c, 0, 72, 75
1, 217154, Control_c, 0, 67, 42
1, 217169, Control_c, 0, 67, 43
1, 217175, Note_off_c, 0, 72, 67
1, 217181, Note_off_c, 0, 39, 62
1, 217184, Control_c, 0, 67, 45
1, 217198, Control_c, 0, 67, 48
1, 217213, Control_c, 0, 67, 55
1, 217228, Control_c, 0, 67, 73
1, 217243, Control_c, 0, 67, 89
1, 217250, Note_on_c, 0, 65, 73
1, 217258, Control_c, 0, 67, 102
1, 217272, Control_c, 0, 67, 114
1, 217285, Note_off_c, 0, 65, 62
1, 217287, Control_c, 0, 67, 127
1, 217344, Note_on_c, 0, 72, 72
1, 217346, Control_c, 0, 64, 60
1, 217358, Note_on_c, 0, 46, 44
1, 217361, Control_c, 0, 64, 72
1, 217363, Note_on_c, 0, 56, 43
1, 217376, Control_c, 0, 64, 85
1, 217390, Note_off_c, 0, 72, 59
1, 217390, Control_c, 0, 64, 99
1, 217405, Control_c, 0, 64, 102
1, 217413, Note_off_c, 0, 56, 43
1, 217432, Note_on_c, 0, 80, 82
1, 217450, Control_c, 0, 64, 102
1, 217451, Note_off_c, 0, 80, 72
1, 217464, Control_c, 0, 64, 99
1, 217479, Control_c, 0, 64, 92
1, 217494, Control_c, 0, 64, 80
1, 217509, Control_c, 0, 64, 65
1, 217523, Note_off_c, 0, 46, 28
1, 217524, Control_c, 0, 64, 0
1, 217531, Note_on_c, 0, 67, 76
1, 217558, Note_off_c, 0, 67, 64
1, 217636, Note_on_c, 0, 58, 73
1, 217710, Note_off_c, 0, 58, 63
1, 217741, Note_on_c, 0, 67, 74
1, 217756, Note_on_c, 0, 55, 37
1, 217761, Note_on_c, 0, 46, 47
1, 217768, Control_c, 0, 64, 43
1, 217783, Control_c, 0, 64, 68
1, 217785, Note_off_c, 0, 55, 53
1, 217798, Control_c, 0, 64, 77
1, 217802, Note_off_c, 0, 67, 59
1, 217813, Control_c, 0, 64, 85
1, 217828, Control_c, 0, 64, 87
1, 217840, Note_off_c, 0, 46, 47
1, 217843, Control_c, 0, 64, 88
1, 217849, Note_on_c, 0, 75, 66
1, 217876, Note_off_c, 0, 75, 55
1, 217888, Control_c, 0, 64, 86
1, 217902, Control_c, 0, 64, 81
1, 217917, Control_c, 0, 64, 72
1, 217928, Note_on_c, 0, 39, 48
1, 217932, Control_c, 0, 64, 20
1, 217935, Note_on_c, 0, 70, 69
1, 217947, Control_c, 0, 64, 0
1, 217958, Note_off_c, 0, 39, 55
1, 217964, Note_off_c, 0, 70, 65
1, 218027, Note_on_c, 0, 63, 64
1, 218069, Note_off_c, 0, 63, 64
1, 218114, Note_on_c, 0, 70, 75
1, 218133, Note_on_c, 0, 46, 44
1, 218140, Control_c, 0, 64, 66
1, 218155, Control_c, 0, 64, 81
1, 218157, Note_on_c, 0, 55, 22
1, 218162, Note_off_c, 0, 70, 62
1, 218169, Control_c, 0, 64, 95
1, 218184, Control_c, 0, 64, 101
1, 218199, Control_c, 0, 64, 101
1, 218215, Note_off_c, 0, 55, 41
1, 218218, Note_on_c, 0, 79, 70
1, 218243, Control_c, 0, 64, 100
1, 218251, Note_off_c, 0, 46, 33
1, 218258, Control_c, 0, 64, 92
1, 218259, Note_off_c, 0, 79, 55
1, 218273, Control_c, 0, 64, 77
1, 218284, Note_on_c, 0, 73, 71
1, 218287, Control_c, 0, 64, 0
1, 218313, Note_off_c, 0, 73, 64
1, 218314, Note_on_c, 0, 74, 69
1, 218364, Note_off_c, 0, 74, 64
1, 218391, Note_on_c, 0, 65, 66
1, 218426, Note_off_c, 0, 65, 67
1, 218489, Note_on_c, 0, 74, 76
1, 218517, Control_c, 0, 64, 69
1, 218518, Note_on_c, 0, 46, 60
1, 218518, Note_on_c, 0, 56, 53
1, 218526, Note_off_c, 0, 74, 67
1, 218531, Control_c, 0, 64, 95
1, 218541, Note_off_c, 0, 56, 61
1, 218546, Control_c, 0, 64, 127
1, 218588, Note_on_c, 0, 82, 81
1, 218603, Note_off_c, 0, 46, 59
1, 218606, Control_c, 0, 64, 127
1, 218609, Note_off_c, 0, 82, 66
1, 218621, Control_c, 0, 64, 103
1, 218636, Control_c, 0, 64, 85
1, 218651, Control_c, 0, 64, 56
1, 218666, Control_c, 0, 64, 0
1, 218671, Note_on_c, 0, 76, 74
1, 218675, Note_on_c, 0, 39, 57
1, 218681, Control_c, 0, 67, 115
1, 218695, Note_on_c, 0, 77, 82
1, 218695, Note_off_c, 0, 76, 68
1, 218696, Control_c, 0, 67, 99
1, 218710, Control_c, 0, 67, 79
1, 218715, Note_off_c, 0, 77, 67
1, 218716, Note_off_c, 0, 39, 61
1, 218725, Control_c, 0, 67, 57
1, 218740, Control_c, 0, 67, 33
1, 218755, Control_c, 0, 67, 18
1, 218770, Control_c, 0, 67, 8
1, 218785, Control_c, 0, 67, 0
1, 218790, Note_on_c, 0, 70, 77
1, 218815, Note_off_c, 0, 70, 67
1, 218866, Note_on_c, 0, 77, 78
1, 218880, Note_on_c, 0, 46, 53
1, 218899, Note_on_c, 0, 56, 39
1, 218909, Note_off_c, 0, 77, 64
1, 218918, Control_c, 0, 64, 81
1, 218933, Control_c, 0, 64, 104
1, 218937, Note_off_c, 0, 56, 48
1, 218948, Control_c, 0, 64, 110
1, 218957, Note_on_c, 0, 86, 84
1, 218977, Control_c, 0, 64, 109
1, 218992, Control_c, 0, 64, 103
1, 219002, Note_off_c, 0, 86, 61
1, 219007, Control_c, 0, 64, 90
1, 219022, Control_c, 0, 64, 67
1, 219030, Note_on_c, 0, 78, 56
1, 219036, Control_c, 0, 64, 0
1, 219048, Note_off_c, 0, 46, 31
1, 219055, Note_off_c, 0, 78, 65
1, 219062, Note_on_c, 0, 79, 80
1, 219112, Note_off_c, 0, 79, 62
1, 219138, Note_on_c, 0, 70, 80
1, 219193, Note_off_c, 0, 70, 62
1, 219232, Note_on_c, 0, 79, 84
1, 219235, Note_on_c, 0, 55, 67
1, 219236, Note_on_c, 0, 46, 72
1, 219250, Control_c, 0, 64, 59
1, 219265, Control_c, 0, 64, 96
1, 219275, Note_off_c, 0, 55, 64
1, 219277, Note_off_c, 0, 79, 62
1, 219280, Control_c, 0, 64, 127
1, 219315, Note_on_c, 0, 87, 83
1, 219350, Note_off_c, 0, 46, 59
1, 219354, Control_c, 0, 64, 113
1, 219366, Note_off_c, 0, 87, 62
1, 219368, Control_c, 0, 64, 99
1, 219383, Control_c, 0, 64, 87
1, 219396, Note_on_c, 0, 81, 84
1, 219398, Control_c, 0, 64, 73
1, 219413, Control_c, 0, 64, 0
1, 219413, Control_c, 0, 67, 15
1, 219417, Note_on_c, 0, 39, 54
1, 219421, Note_off_c, 0, 81, 63
1, 219427, Note_on_c, 0, 82, 82
1, 219427, Control_c, 0, 67, 31
1, 219442, Control_c, 0, 67, 49
1, 219455, Note_off_c, 0, 39, 60
1, 219457, Control_c, 0, 67, 68
1, 219472, Control_c, 0, 67, 79
1, 219488, Control_c, 0, 67, 86
1, 219489, Note_off_c, 0, 82, 63
1, 219503, Control_c, 0, 67, 92
1, 219512, Note_on_c, 0, 75, 74
1, 219518, Control_c, 0, 67, 102
1, 219532, Control_c, 0, 67, 113
1, 219547, Control_c, 0, 67, 124
1, 219562, Control_c, 0, 67, 127
1, 219566, Note_off_c, 0, 75, 63
1, 219599, Note_on_c, 0, 82, 82
1, 219606, Control_c, 0, 64, 37
1, 219607, Note_on_c, 0, 46, 57
1, 219612, Note_on_c, 0, 55, 52
1, 219621, Control_c, 0, 64, 73
1, 219636, Control_c, 0, 64, 91
1, 219650, Control_c, 0, 64, 113
1, 219652, Note_off_c, 0, 82, 64
1, 219665, Control_c, 0, 64, 118
1, 219695, Control_c, 0, 64, 115
1, 219702, Note_on_c, 0, 91, 80
1, 219710, Control_c, 0, 64, 104
1, 219724, Control_c, 0, 64, 89
1, 219739, Control_c, 0, 64, 69
1, 219748, Note_off_c, 0, 91, 58
1, 219754, Note_off_c, 0, 55, 35
1, 219754, Control_c, 0, 64, 0
1, 219758, Note_on_c, 0, 85, 73
1, 219758, Note_off_c, 0, 46, 33
1, 219795, Note_on_c, 0, 86, 76
1, 219803, Note_off_c, 0, 85, 64
1, 219813, Control_c, 0, 67, 124
1, 219828, Control_c, 0, 67, 119
1, 219844, Control_c, 0, 67, 109
1, 219848, Note_off_c, 0, 86, 64
1, 219857, Note_on_c, 0, 77, 81
1, 219858, Control_c, 0, 67, 85
1, 219873, Control_c, 0, 67, 57
1, 219888, Control_c, 0, 67, 24
1, 219911, Control_c, 0, 67, 0
1, 219917, Note_off_c, 0, 77, 61
1, 219950, Note_on_c, 0, 82, 82
1, 219962, Note_on_c, 0, 56, 71
1, 219964, Note_on_c, 0, 46, 65
1, 219970, Control_c, 0, 64, 88
1, 219984, Control_c, 0, 64, 127
1, 219988, Note_off_c, 0, 82, 62
1, 219995, Note_off_c, 0, 56, 63
1, 220050, Note_on_c, 0, 94, 71
1, 220061, Note_off_c, 0, 46, 61
1, 220064, Note_off_c, 0, 94, 66
1, 220103, Control_c, 0, 64, 110
1, 220118, Control_c, 0, 64, 93
1, 220126, Note_on_c, 0, 39, 70
1, 220130, Note_on_c, 0, 83, 60
1, 220132, Control_c, 0, 64, 77
1, 220135, Note_on_c, 0, 84, 59
1, 220147, Control_c, 0, 64, 53
1, 220157, Note_off_c, 0, 83, 56
1, 220162, Control_c, 0, 64, 0
1, 220177, Note_off_c, 0, 39, 56
1, 220218, Note_off_c, 0, 84, 66
1, 220230, Note_on_c, 0, 77, 77
1, 220251, Control_c, 0, 67, 12
1, 220266, Control_c, 0, 67, 24
1, 220269, Note_off_c, 0, 77, 59
1, 220281, Control_c, 0, 67, 38
1, 220296, Control_c, 0, 67, 53
1, 220311, Control_c, 0, 67, 66
1, 220314, Note_on_c, 0, 84, 90
1, 220326, Control_c, 0, 67, 77
1, 220331, Note_on_c, 0, 46, 56
1, 220341, Note_on_c, 0, 56, 50
1, 220341, Control_c, 0, 67, 86
1, 220356, Control_c, 0, 64, 74
1, 220356, Control_c, 0, 67, 92
1, 220360, Note_off_c, 0, 84, 67
1, 220371, Control_c, 0, 64, 100
1, 220371, Control_c, 0, 67, 97
1, 220386, Control_c, 0, 64, 127
1, 220386, Control_c, 0, 67, 101
1, 220400, Control_c, 0, 67, 102
1, 220407, Note_on_c, 0, 92, 78
1, 220421, Note_off_c, 0, 92, 69
1, 220425, Note_off_c, 0, 56, 37
1, 220445, Control_c, 0, 64, 125
1, 220460, Control_c, 0, 64, 103
1, 220460, Control_c, 0, 67, 102
1, 220474, Control_c, 0, 64, 85
1, 220489, Control_c, 0, 64, 64
1, 220491, Note_on_c, 0, 77, 75
1, 220504, Control_c, 0, 64, 0
1, 220506, Note_off_c, 0, 77, 66
1, 220508, Note_on_c, 0, 79, 70
1, 220519, Control_c, 0, 67, 102
1, 220521, Note_off_c, 0, 46, 50
1, 220558, Poly_aftertouch_c, 0, 78, 0
1, 220561, Note_off_c, 0, 79, 63
1, 220563, Control_c, 0, 67, 102
1, 220578, Control_c, 0, 67, 101
1, 220597, Note_on_c, 0, 70, 76
1, 220607, Control_c, 0, 67, 101
1, 220637, Control_c, 0, 67, 100
1, 220655, Note_off_c, 0, 70, 63
1, 220660, Control_c, 0, 67, 98
1, 220675, Control_c, 0, 67, 96
1, 220689, Control_c, 0, 64, 64
1, 220689, Control_c, 0, 67, 96
1, 220692, Note_on_c, 0, 79, 72
1, 220704, Control_c, 0, 64, 79
1, 220704, Control_c, 0, 67, 95
1, 220706, Note_on_c, 0, 55, 61
1, 220707, Note_on_c, 0, 46, 63
1, 220719, Control_c, 0, 64, 93
1, 220719, Control_c, 0, 67, 94
1, 220733, Control_c, 0, 64, 100
1, 220733, Control_c, 0, 67, 93
1, 220734, Note_off_c, 0, 55, 66
1, 220736, Note_off_c, 0, 79, 63
1, 220748, Control_c, 0, 64, 100
1, 220748, Control_c, 0, 67, 93
1, 220763, Control_c, 0, 67, 90
1, 220778, Control_c, 0, 64, 100
1, 220778, Control_c, 0, 67, 87
1, 220786, Note_on_c, 0, 87, 70
1, 220793, Control_c, 0, 64, 95
1, 220793, Control_c, 0, 67, 82
1, 220799, Note_off_c, 0, 46, 58
1, 220807, Control_c, 0, 64, 85
1, 220807, Control_c, 0, 67, 79
1, 220810, Note_off_c, 0, 87, 68
1, 220822, Control_c, 0, 64, 68
1, 220822, Control_c, 0, 67, 76
1, 220837, Control_c, 0, 64, 0
1, 220837, Control_c, 0, 67, 73
1, 220852, Control_c, 0, 67, 69
1, 220854, Note_on_c, 0, 81, 79
1, 220867, Control_c, 0, 67, 63
1, 220875, Note_off_c, 0, 81, 68
1, 220876, Note_on_c, 0, 39, 54
1, 220881, Control_c, 0, 67, 59
1, 220883, Note_on_c, 0, 82, 82
1, 220896, Control_c, 0, 67, 55
1, 220911, Control_c, 0, 67, 52
1, 220914, Note_off_c, 0, 39, 63
1, 220926, Control_c, 0, 67, 52
1, 220940, Control_c, 0, 67, 51
1, 220945, Note_off_c, 0, 82, 63
1, 220967, Note_on_c, 0, 75, 71
1, 220970, Control_c, 0, 67, 50
1, 220985, Control_c, 0, 67, 48
1, 221000, Control_c, 0, 67, 44
1, 221008, Note_off_c, 0, 75, 64
1, 221014, Control_c, 0, 67, 39
1, 221029, Control_c, 0, 64, 74
1, 221029, Control_c, 0, 67, 34
1, 221044, Control_c, 0, 64, 88
1, 221044, Control_c, 0, 67, 29
1, 221058, Note_on_c, 0, 82, 80
1, 221059, Control_c, 0, 64, 99
1, 221059, Control_c, 0, 67, 22
1, 221068, Note_on_c, 0, 46, 58
1, 221075, Control_c, 0, 64, 100
1, 221075, Control_c, 0, 67, 17
1, 221076, Note_on_c, 0, 55, 49
1, 221090, Control_c, 0, 67, 12
1, 221104, Control_c, 0, 64, 99
1, 221104, Control_c, 0, 67, 0
1, 221107, Note_off_c, 0, 82, 61
1, 221119, Control_c, 0, 64, 98
1, 221134, Control_c, 0, 64, 92
1, 221143, Note_off_c, 0, 46, 52
1, 221149, Control_c, 0, 64, 79
1, 221149, Note_off_c, 0, 55, 34
1, 221159, Note_on_c, 0, 91, 77
1, 221164, Control_c, 0, 64, 56
1, 221178, Control_c, 0, 64, 0
1, 221211, Note_off_c, 0, 91, 58
1, 221224, Note_on_c, 0, 85, 75
1, 221256, Note_on_c, 0, 86, 75
1, 221256, Note_off_c, 0, 85, 63
1, 221310, Note_off_c, 0, 86, 62
1, 221324, Note_on_c, 0, 77, 76
1, 221360, Note_off_c, 0, 77, 62
1, 221408, Control_c, 0, 64, 83
1, 221423, Note_on_c, 0, 86, 88
1, 221423, Control_c, 0, 64, 127
1, 221423, Note_on_c, 0, 56, 73
1, 221431, Note_on_c, 0, 46, 70
1, 221465, Note_off_c, 0, 56, 60
1, 221465, Note_off_c, 0, 86, 62
1, 221509, Note_on_c, 0, 94, 89
1, 221533, Note_off_c, 0, 46, 60
1, 221541, Control_c, 0, 64, 116
1, 221543, Note_off_c, 0, 94, 65
1, 221555, Control_c, 0, 64, 98
1, 221570, Control_c, 0, 64, 82
1, 221585, Control_c, 0, 64, 64
1, 221586, Note_on_c, 0, 88, 78
1, 221596, Note_on_c, 0, 39, 73
1, 221600, Control_c, 0, 64, 0
1, 221616, Note_on_c, 0, 89, 84
1, 221626, Note_off_c, 0, 88, 65
1, 221640, Note_off_c, 0, 39, 60
1, 221649, Note_off_c, 0, 89, 63
1, 221702, Note_on_c, 0, 82, 82
1, 221739, Note_off_c, 0, 82, 66
1, 221763, Control_c, 0, 64, 48
1, 221770, Note_on_c, 0, 89, 86
1, 221774, Note_on_c, 0, 46, 65
1, 221778, Control_c, 0, 64, 66
1, 221786, Note_on_c, 0, 56, 63
1, 221793, Control_c, 0, 64, 74
1, 221807, Control_c, 0, 64, 82
1, 221814, Note_off_c, 0, 89, 67
1, 221822, Control_c, 0, 64, 86
1, 221837, Control_c, 0, 64, 87
1, 221845, Note_off_c, 0, 56, 46
1, 221852, Control_c, 0, 64, 88
1, 221852, Note_on_c, 0, 98, 92
1, 221894, Note_off_c, 0, 98, 65
1, 221909, Note_on_c, 0, 90, 84
1, 221927, Control_c, 0, 64, 88
1, 221951, Note_on_c, 0, 91, 85
1, 221953, Note_off_c, 0, 90, 64
1, 221973, Note_off_c, 0, 46, 35
1, 222009, Note_off_c, 0, 91, 61
1, 222016, Control_c, 0, 64, 89
1, 222016, Note_on_c, 0, 82, 86
1, 222031, Control_c, 0, 64, 89
1, 222045, Control_c, 0, 64, 90
1, 222060, Control_c, 0, 64, 90
1, 222073, Note_off_c, 0, 82, 62
1, 222075, Control_c, 0, 64, 91
1, 222090, Control_c, 0, 64, 92
1, 222093, Note_on_c, 0, 55, 73
1, 222093, Note_on_c, 0, 91, 96
1, 222095, Note_on_c, 0, 46, 72
1, 222105, Control_c, 0, 64, 95
1, 222119, Control_c, 0, 64, 99
1, 222134, Control_c, 0, 64, 106
1, 222135, Note_off_c, 0, 91, 63
1, 222137, Note_off_c, 0, 55, 62
1, 222156, Control_c, 0, 64, 119
1, 222171, Control_c, 0, 64, 127
1, 222173, Note_on_c, 0, 99, 100
1, 222197, Note_off_c, 0, 99, 65
1, 222227, Note_off_c, 0, 46, 57
1, 222296, Note_on_c, 0, 39, 88
1, 222320, Control_c, 0, 64, 100
1, 222334, Control_c, 0, 64, 83
1, 222349, Control_c, 0, 64, 67
1, 222359, Note_on_c, 0, 63, 107
1, 222364, Control_c, 0, 64, 29
1, 222378, Control_c, 0, 64, 60
1, 222392, Note_off_c, 0, 63, 66
1, 222393, Control_c, 0, 64, 72
1, 222408, Control_c, 0, 64, 85
1, 222423, Control_c, 0, 64, 102
1, 222432, Note_off_c, 0, 39, 52
1, 222438, Control_c, 0, 64, 115
1, 222452, Control_c, 0, 64, 121
1, 222467, Control_c, 0, 64, 127
1, 222606, Note_on_c, 0, 46, 56
1, 222610, Note_on_c, 0, 55, 55
1, 222711, Note_off_c, 0, 46, 36
1, 222711, Note_off_c, 0, 55, 60
1, 222716, Note_on_c, 0, 64, 44
1, 222720, Control_c, 0, 64, 113
1, 222735, Control_c, 0, 64, 99
1, 222739, Note_off_c, 0, 64, 56
1, 222749, Control_c, 0, 64, 82
1, 222764, Control_c, 0, 64, 65
1, 222777, Note_on_c, 0, 65, 83
1, 222779, Control_c, 0, 64, 0
1, 222818, Note_off_c, 0, 65, 62
1, 222833, Note_on_c, 0, 67, 66
1, 222876, Note_on_c, 0, 68, 71
1, 222910, Note_off_c, 0, 67, 61
1, 222941, Note_on_c, 0, 72, 78
1, 222943, Note_off_c, 0, 68, 63
1, 222961, Note_on_c, 0, 56, 59
1, 222974, Note_on_c, 0, 46, 54
1, 222985, Note_off_c, 0, 56, 64
1, 223014, Note_on_c, 0, 70, 77
1, 223015, Note_off_c, 0, 46, 61
1, 223026, Note_off_c, 0, 72, 62
1, 223069, Control_c, 0, 67, 8
1, 223073, Note_on_c, 0, 68, 79
1, 223074, Note_off_c, 0, 70, 62
1, 223083, Control_c, 0, 67, 12
1, 223098, Control_c, 0, 67, 17
1, 223113, Control_c, 0, 67, 22
1, 223128, Control_c, 0, 67, 26
1, 223128, Note_off_c, 0, 68, 64
1, 223130, Note_on_c, 0, 67, 75
1, 223131, Note_on_c, 0, 39, 44
1, 223143, Control_c, 0, 67, 30
1, 223158, Control_c, 0, 67, 34
1, 223164, Note_off_c, 0, 39, 61
1, 223173, Control_c, 0, 67, 38
1, 223175, Note_off_c, 0, 67, 62
1, 223188, Control_c, 0, 67, 43
1, 223188, Note_on_c, 0, 65, 70
1, 223202, Control_c, 0, 67, 50
1, 223214, Note_off_c, 0, 65, 69
1, 223217, Control_c, 0, 67, 54
1, 223232, Control_c, 0, 67, 58
1, 223247, Control_c, 0, 67, 61
1, 223253, Note_on_c, 0, 63, 73
1, 223262, Control_c, 0, 67, 64
1, 223276, Control_c, 0, 67, 70
1, 223291, Control_c, 0, 67, 76
1, 223306, Control_c, 0, 67, 80
1, 223308, Note_on_c, 0, 56, 38
1, 223313, Note_on_c, 0, 62, 70
1, 223313, Note_off_c, 0, 63, 65
1, 223316, Note_on_c, 0, 46, 32
1, 223320, Control_c, 0, 67, 83
1, 223335, Control_c, 0, 67, 84
1, 223336, Note_off_c, 0, 56, 49
1, 223345, Note_off_c, 0, 62, 63
1, 223350, Control_c, 0, 67, 86
1, 223353, Note_off_c, 0, 46, 47
1, 223365, Control_c, 0, 67, 90
1, 223366, Note_on_c, 0, 60, 63
1, 223380, Control_c, 0, 67, 94
1, 223394, Control_c, 0, 67, 98
1, 223396, Note_off_c, 0, 60, 65
1, 223409, Control_c, 0, 67, 100
1, 223424, Control_c, 0, 67, 102
1, 223429, Note_on_c, 0, 58, 69
1, 223439, Control_c, 0, 67, 103
1, 223454, Control_c, 0, 67, 103
1, 223458, Note_off_c, 0, 58, 68
1, 223470, Control_c, 0, 67, 104
1, 223491, Note_on_c, 0, 57, 54
1, 223523, Note_off_c, 0, 57, 50
1, 223543, Note_on_c, 0, 58, 62
1, 223563, Note_off_c, 0, 58, 41
1, 223605, Note_on_c, 0, 60, 66
1, 223626, Note_off_c, 0, 60, 62
1, 223641, Note_on_c, 0, 55, 47
1, 223670, Note_on_c, 0, 62, 64
1, 223670, Note_on_c, 0, 46, 34
1, 223673, Note_off_c, 0, 55, 58
1, 223704, Note_off_c, 0, 46, 52
1, 223706, Note_off_c, 0, 62, 59
1, 223708, Note_on_c, 0, 63, 62
1, 223752, Note_off_c, 0, 63, 65
1, 223762, Note_on_c, 0, 66, 66
1, 223778, Note_off_c, 0, 66, 66
1, 223814, Note_on_c, 0, 67, 77
1, 223816, Note_on_c, 0, 39, 48
1, 223843, Note_off_c, 0, 67, 63
1, 223851, Note_off_c, 0, 39, 63
1, 223859, Note_on_c, 0, 68, 67
1, 223916, Note_off_c, 0, 68, 62
1, 223918, Note_on_c, 0, 70, 74
1, 223921, Control_c, 0, 67, 104
1, 223936, Control_c, 0, 67, 103
1, 223942, Note_off_c, 0, 70, 68
1, 223980, Control_c, 0, 67, 103
1, 223982, Note_on_c, 0, 72, 79
1, 223990, Note_on_c, 0, 55, 53
1, 223995, Note_on_c, 0, 46, 40
1, 224012, Note_off_c, 0, 72, 63
1, 224021, Note_off_c, 0, 46, 53
1, 224028, Note_off_c, 0, 55, 63
1, 224037, Note_on_c, 0, 74, 65
1, 224055, Control_c, 0, 67, 102
1, 224085, Control_c, 0, 67, 102
1, 224085, Note_off_c, 0, 74, 64
1, 224096, Note_on_c, 0, 75, 67
1, 224112, Note_off_c, 0, 75, 64
1, 224147, Note_on_c, 0, 74, 67
1, 224174, Note_off_c, 0, 74, 66
1, 224188, Control_c, 0, 67, 101
1, 224195, Note_on_c, 0, 77, 51
1, 224202, Note_on_c, 0, 79, 53
1, 224203, Control_c, 0, 67, 101
1, 224232, Control_c, 0, 67, 100
1, 224240, Note_off_c, 0, 77, 59
1, 224247, Control_c, 0, 67, 100
1, 224254, Note_on_c, 0, 80, 77
1, 224262, Control_c, 0, 67, 99
1, 224278, Note_off_c, 0, 79, 63
1, 224278, Control_c, 0, 67, 98
1, 224279, Note_off_c, 0, 80, 68
1, 224293, Control_c, 0, 67, 98
1, 224318, Note_on_c, 0, 84, 83
1, 224335, Note_on_c, 0, 62, 47
1, 224342, Note_on_c, 0, 53, 58
1, 224347, Note_on_c, 0, 56, 54
1, 224362, Note_off_c, 0, 62, 36
1, 224369, Note_off_c, 0, 56, 61
1, 224370, Note_off_c, 0, 53, 66
1, 224381, Control_c, 0, 67, 99
1, 224382, Note_on_c, 0, 82, 84
1, 224404, Control_c, 0, 67, 99
1, 224409, Note_off_c, 0, 84, 66
1, 224419, Control_c, 0, 67, 100
1, 224434, Control_c, 0, 67, 101
1, 224448, Note_on_c, 0, 80, 81
1, 224448, Note_off_c, 0, 82, 65
1, 224489, Note_on_c, 0, 39, 68
1, 224495, Note_on_c, 0, 79, 78
1, 224503, Note_off_c, 0, 80, 65
1, 224517, Note_off_c, 0, 39, 65
1, 224522, Control_c, 0, 67, 100
1, 224545, Note_off_c, 0, 79, 64
1, 224552, Control_c, 0, 67, 100
1, 224555, Note_on_c, 0, 77, 70
1, 224579, Note_off_c, 0, 77, 67
1, 224581, Control_c, 0, 67, 99
1, 224611, Control_c, 0, 67, 99
1, 224621, Note_on_c, 0, 75, 72
1, 224672, Note_off_c, 0, 75, 65
1, 224676, Note_on_c, 0, 74, 59
1, 224680, Note_on_c, 0, 62, 51
1, 224685, Note_on_c, 0, 56, 39
1, 224685, Control_c, 0, 67, 98
1, 224687, Note_on_c, 0, 53, 43
1, 224707, Note_off_c, 0, 74, 68
1, 224708, Note_off_c, 0, 62, 55
1, 224715, Control_c, 0, 67, 98
1, 224717, Note_off_c, 0, 53, 56
1, 224717, Note_off_c, 0, 56, 56
1, 224722, Note_on_c, 0, 72, 64
1, 224744, Control_c, 0, 67, 97
1, 224750, Note_off_c, 0, 72, 68
1, 224782, Note_on_c, 0, 70, 72
1, 224811, Note_off_c, 0, 70, 65
1, 224847, Note_on_c, 0, 69, 64
1, 224863, Control_c, 0, 67, 97
1, 224884, Note_off_c, 0, 69, 61
1, 224893, Control_c, 0, 67, 96
1, 224898, Note_on_c, 0, 70, 70
1, 224914, Note_off_c, 0, 70, 65
1, 224952, Control_c, 0, 67, 96
1, 224956, Note_on_c, 0, 72, 77
1, 224981, Control_c, 0, 67, 95
1, 224994, Note_off_c, 0, 72, 63
1, 225006, Note_on_c, 0, 63, 61
1, 225013, Note_on_c, 0, 74, 69
1, 225020, Note_on_c, 0, 58, 51
1, 225024, Note_off_c, 0, 63, 64
1, 225027, Note_on_c, 0, 55, 48
1, 225042, Note_off_c, 0, 58, 59
1, 225051, Note_on_c, 0, 75, 65
1, 225053, Note_off_c, 0, 55, 59
1, 225063, Note_off_c, 0, 74, 63
1, 225107, Note_on_c, 0, 78, 80
1, 225116, Control_c, 0, 67, 95
1, 225118, Note_off_c, 0, 75, 65
1, 225125, Note_off_c, 0, 78, 72
1, 225182, Note_on_c, 0, 79, 75
1, 225194, Note_on_c, 0, 39, 55
1, 225206, Note_off_c, 0, 79, 63
1, 225221, Note_on_c, 0, 80, 64
1, 225221, Note_off_c, 0, 39, 36
1, 225275, Note_off_c, 0, 80, 64
1, 225278, Note_on_c, 0, 82, 80
1, 225298, Note_off_c, 0, 82, 71
1, 225346, Note_on_c, 0, 84, 75
1, 225364, Note_on_c, 0, 55, 41
1, 225368, Note_on_c, 0, 63, 58
1, 225377, Note_off_c, 0, 84, 66
1, 225380, Note_on_c, 0, 58, 44
1, 225385, Note_on_c, 0, 86, 74
1, 225390, Note_off_c, 0, 55, 56
1, 225399, Note_off_c, 0, 63, 61
1, 225404, Note_off_c, 0, 58, 55
1, 225420, Control_c, 0, 67, 94
1, 225446, Note_off_c, 0, 86, 62
1, 225455, Note_on_c, 0, 87, 73
1, 225465, Control_c, 0, 67, 95
1, 225476, Note_off_c, 0, 87, 64
1, 225516, Note_on_c, 0, 86, 68
1, 225528, Note_on_c, 0, 89, 75
1, 225548, Note_off_c, 0, 86, 60
1, 225575, Note_on_c, 0, 91, 68
1, 225597, Control_c, 0, 67, 94
1, 225599, Note_off_c, 0, 89, 61
1, 225622, Note_on_c, 0, 92, 66
1, 225638, Note_off_c, 0, 91, 61
1, 225642, Control_c, 0, 67, 94
1, 225643, Note_off_c, 0, 92, 56
1, 225667, Note_on_c, 0, 96, 86
1, 225681, Note_on_c, 0, 65, 61
1, 225697, Note_on_c, 0, 56, 65
1, 225700, Note_off_c, 0, 65, 64
1, 225700, Note_on_c, 0, 62, 31
1, 225716, Control_c, 0, 67, 94
1, 225718, Note_off_c, 0, 62, 39
1, 225727, Note_off_c, 0, 56, 64
1, 225737, Note_on_c, 0, 94, 91
1, 225745, Control_c, 0, 67, 95
1, 225760, Control_c, 0, 67, 96
1, 225766, Note_off_c, 0, 96, 65
1, 225775, Control_c, 0, 67, 97
1, 225790, Control_c, 0, 67, 97
1, 225793, Note_on_c, 0, 92, 86
1, 225802, Note_off_c, 0, 94, 65
1, 225805, Control_c, 0, 67, 98
1, 225840, Note_on_c, 0, 39, 70
1, 225846, Note_on_c, 0, 91, 78
1, 225849, Control_c, 0, 67, 98
1, 225851, Note_off_c, 0, 92, 65
1, 225873, Note_off_c, 0, 39, 63
1, 225879, Control_c, 0, 67, 99
1, 225906, Note_off_c, 0, 91, 61
1, 225908, Note_on_c, 0, 89, 75
1, 225916, Control_c, 0, 67, 99
1, 225931, Control_c, 0, 67, 100
1, 225942, Note_off_c, 0, 89, 63
1, 225945, Control_c, 0, 67, 100
1, 225960, Control_c, 0, 67, 101
1, 225978, Note_on_c, 0, 87, 71
1, 225990, Control_c, 0, 67, 101
1, 226019, Control_c, 0, 67, 102
1, 226032, Note_off_c, 0, 87, 64
1, 226034, Note_on_c, 0, 86, 76
1, 226039, Note_on_c, 0, 62, 52
1, 226040, Note_on_c, 0, 65, 54
1, 226058, Note_on_c, 0, 56, 29
1, 226069, Note_off_c, 0, 86, 62
1, 226079, Note_off_c, 0, 62, 57
1, 226084, Note_off_c, 0, 65, 61
1, 226085, Note_on_c, 0, 84, 67
1, 226090, Note_off_c, 0, 56, 54
1, 226112, Note_off_c, 0, 84, 68
1, 226153, Note_on_c, 0, 82, 64
1, 226182, Note_off_c, 0, 82, 66
1, 226205, Note_on_c, 0, 81, 71
1, 226244, Note_off_c, 0, 81, 54
1, 226267, Note_on_c, 0, 82, 69
1, 226282, Note_off_c, 0, 82, 67
1, 226316, Control_c, 0, 67, 102
1, 226331, Control_c, 0, 67, 103
1, 226334, Note_on_c, 0, 84, 74
1, 226363, Note_on_c, 0, 67, 55
1, 226363, Note_off_c, 0, 84, 61
1, 226365, Note_on_c, 0, 63, 60
1, 226384, Note_off_c, 0, 67, 58
1, 226385, Note_on_c, 0, 58, 48
1, 226386, Note_off_c, 0, 63, 64
1, 226392, Note_on_c, 0, 86, 67
1, 226408, Note_off_c, 0, 58, 59
1, 226443, Note_on_c, 0, 87, 59
1, 226446, Note_off_c, 0, 86, 61
1, 226484, Note_on_c, 0, 90, 83
1, 226484, Note_off_c, 0, 87, 63
1, 226502, Note_off_c, 0, 90, 71
1, 226542, Note_on_c, 0, 39, 61
1, 226551, Note_on_c, 0, 91, 76
1, 226553, Control_c, 0, 67, 103
1, 226567, Note_off_c, 0, 39, 56
1, 226584, Note_off_c, 0, 91, 62
1, 226600, Note_on_c, 0, 92, 68
1, 226648, Note_off_c, 0, 92, 64
1, 226661, Note_on_c, 0, 94, 78
1, 226684, Note_off_c, 0, 94, 70
1, 226736, Note_on_c, 0, 96, 80
1, 226747, Note_on_c, 0, 58, 40
1, 226747, Note_on_c, 0, 67, 45
1, 226748, Note_on_c, 0, 63, 45
1, 226773, Note_off_c, 0, 67, 56
1, 226774, Note_off_c, 0, 58, 57
1, 226778, Note_off_c, 0, 96, 63
1, 226779, Note_off_c, 0, 63, 55
1, 226794, Note_on_c, 0, 98, 68
1, 226829, Control_c, 0, 67, 104
1, 226863, Note_on_c, 0, 99, 64
1, 226874, Note_off_c, 0, 98, 65
1, 226888, Control_c, 0, 67, 104
1, 226907, Note_on_c, 0, 100, 71
1, 226932, Note_off_c, 0, 99, 67
1, 226932, Control_c, 0, 67, 105
1, 226976, Note_off_c, 0, 100, 65
1, 226988, Note_on_c, 0, 101, 55
1, 227011, Note_off_c, 0, 101, 59
1, 227024, Note_on_c, 0, 94, 72
1, 227036, Control_c, 0, 67, 105
1, 227076, Note_on_c, 0, 68, 59
1, 227081, Control_c, 0, 67, 106
1, 227095, Note_off_c, 0, 68, 62
1, 227096, Note_on_c, 0, 97, 51
1, 227096, Note_off_c, 0, 94, 63
1, 227097, Note_on_c, 0, 58, 49
1, 227110, Control_c, 0, 67, 110
1, 227119, Note_off_c, 0, 58, 60
1, 227122, Note_on_c, 0, 98, 68
1, 227125, Control_c, 0, 67, 116
1, 227137, Note_off_c, 0, 97, 64
1, 227140, Control_c, 0, 67, 119
1, 227155, Control_c, 0, 67, 120
1, 227159, Note_off_c, 0, 98, 63
1, 227169, Control_c, 0, 67, 120
1, 227184, Control_c, 0, 67, 122
1, 227196, Note_on_c, 0, 89, 63
1, 227199, Control_c, 0, 67, 124
1, 227214, Control_c, 0, 67, 127
1, 227226, Note_off_c, 0, 89, 54
1, 227248, Note_on_c, 0, 100, 75
1, 227253, Note_on_c, 0, 39, 59
1, 227277, Note_off_c, 0, 39, 57
1, 227301, Note_off_c, 0, 100, 65
1, 227319, Note_on_c, 0, 101, 58
1, 227339, Note_off_c, 0, 101, 61
1, 227349, Note_on_c, 0, 94, 68
1, 227416, Note_on_c, 0, 97, 65
1, 227421, Note_off_c, 0, 94, 64
1, 227442, Note_on_c, 0, 68, 59
1, 227449, Note_on_c, 0, 58, 45
1, 227462, Note_on_c, 0, 62, 29
1, 227462, Note_on_c, 0, 98, 51
1, 227462, Note_off_c, 0, 97, 65
1, 227483, Note_off_c, 0, 68, 56
1, 227486, Note_off_c, 0, 58, 58
1, 227491, Note_off_c, 0, 98, 65
1, 227501, Note_off_c, 0, 62, 49
1, 227518, Note_on_c, 0, 89, 65
1, 227539, Note_off_c, 0, 89, 66
1, 227588, Note_on_c, 0, 102, 76
1, 227641, Note_off_c, 0, 102, 65
1, 227643, Note_on_c, 0, 103, 68
1, 227665, Note_off_c, 0, 103, 59
1, 227675, Note_on_c, 0, 94, 73
1, 227733, Note_on_c, 0, 67, 58
1, 227738, Note_on_c, 0, 98, 72
1, 227742, Note_off_c, 0, 94, 64
1, 227742, Note_on_c, 0, 63, 51
1, 227754, Note_off_c, 0, 67, 61
1, 227763, Note_on_c, 0, 58, 47
1, 227764, Note_off_c, 0, 63, 61
1, 227787, Note_off_c, 0, 58, 60
1, 227789, Note_on_c, 0, 99, 79
1, 227796, Note_off_c, 0, 98, 64
1, 227826, Note_off_c, 0, 99, 65
1, 227857, Note_on_c, 0, 91, 63
1, 227899, Note_off_c, 0, 91, 54
1, 227912, Note_on_c, 0, 39, 62
1, 227914, Note_on_c, 0, 102, 78
1, 227935, Note_off_c, 0, 39, 59
1, 227976, Note_off_c, 0, 102, 65
1, 227981, Note_on_c, 0, 103, 63
1, 228002, Note_off_c, 0, 103, 57
1, 228014, Note_on_c, 0, 94, 72
1, 228082, Note_on_c, 0, 98, 67
1, 228086, Note_off_c, 0, 94, 64
1, 228092, Note_on_c, 0, 67, 55
1, 228094, Note_on_c, 0, 63, 51
1, 228095, Note_on_c, 0, 58, 50
1, 228118, Note_on_c, 0, 99, 70
1, 228124, Note_off_c, 0, 67, 60
1, 228126, Note_off_c, 0, 63, 57
1, 228130, Note_off_c, 0, 98, 63
1, 228143, Note_off_c, 0, 58, 63
1, 228160, Note_off_c, 0, 99, 64
1, 228195, Note_on_c, 0, 91, 61
1, 228244, Note_off_c, 0, 91, 53
1, 228246, Note_on_c, 0, 100, 72
1, 228295, Note_off_c, 0, 100, 65
1, 228310, Note_on_c, 0, 101, 63
1, 228331, Note_off_c, 0, 101, 59
1, 228354, Note_on_c, 0, 94, 66
1, 228398, Note_on_c, 0, 68, 63
1, 228407, Note_on_c, 0, 97, 58
1, 228414, Note_on_c, 0, 58, 55
1, 228416, Note_off_c, 0, 68, 66
1, 228418, Note_off_c, 0, 94, 63
1, 228445, Note_off_c, 0, 58, 66
1, 228454, Note_on_c, 0, 98, 60
1, 228459, Note_off_c, 0, 97, 63
1, 228484, Note_off_c, 0, 98, 67
1, 228510, Note_on_c, 0, 89, 66
1, 228546, Note_off_c, 0, 89, 64
1, 228566, Note_on_c, 0, 100, 76
1, 228583, Note_on_c, 0, 39, 40
1, 228616, Note_off_c, 0, 39, 34
1, 228619, Note_off_c, 0, 100, 64
1, 228639, Note_on_c, 0, 101, 59
1, 228659, Note_off_c, 0, 101, 56
1, 228666, Note_on_c, 0, 94, 63
1, 228717, Note_on_c, 0, 97, 65
1, 228721, Note_off_c, 0, 94, 64
1, 228742, Note_on_c, 0, 68, 54
1, 228744, Note_on_c, 0, 58, 51
1, 228754, Note_on_c, 0, 98, 60
1, 228765, Note_off_c, 0, 97, 65
1, 228775, Note_off_c, 0, 68, 53
1, 228784, Note_off_c, 0, 98, 68
1, 228788, Note_off_c, 0, 58, 61
1, 228813, Note_on_c, 0, 89, 66
1, 228830, Note_off_c, 0, 89, 65
1, 228837, Poly_aftertouch_c, 0, 62, 0
1, 228882, Note_on_c, 0, 102, 76
1, 228941, Note_on_c, 0, 103, 64
1, 228943, Note_off_c, 0, 102, 64
1, 228967, Note_off_c, 0, 103, 62
1, 228974, Note_on_c, 0, 94, 77
1, 229021, Note_on_c, 0, 67, 56
1, 229028, Note_on_c, 0, 63, 53
1, 229037, Note_off_c, 0, 94, 63
1, 229041, Note_on_c, 0, 98, 72
1, 229042, Note_off_c, 0, 67, 59
1, 229050, Note_off_c, 0, 63, 61
1, 229052, Note_on_c, 0, 58, 48
1, 229076, Note_off_c, 0, 58, 60
1, 229081, Note_on_c, 0, 99, 76
1, 229094, Note_off_c, 0, 98, 63
1, 229123, Note_off_c, 0, 99, 66
1, 229146, Note_on_c, 0, 91, 67
1, 229190, Note_off_c, 0, 91, 50
1, 229193, Note_on_c, 0, 39, 70
1, 229201, Note_on_c, 0, 102, 78
1, 229222, Note_off_c, 0, 39, 65
1, 229264, Note_off_c, 0, 102, 65
1, 229271, Note_on_c, 0, 103, 60
1, 229289, Note_off_c, 0, 103, 59
1, 229304, Note_on_c, 0, 94, 73
1, 229359, Note_on_c, 0, 98, 70
1, 229359, Note_off_c, 0, 94, 62
1, 229368, Note_on_c, 0, 67, 59
1, 229376, Note_on_c, 0, 63, 50
1, 229388, Note_on_c, 0, 58, 32
1, 229400, Note_on_c, 0, 99, 71
1, 229402, Note_off_c, 0, 67, 63
1, 229407, Note_off_c, 0, 63, 55
1, 229408, Note_off_c, 0, 98, 66
1, 229415, Note_off_c, 0, 58, 55
1, 229429, Note_off_c, 0, 99, 67
1, 229464, Note_on_c, 0, 91, 62
1, 229492, Note_off_c, 0, 91, 53
1, 229507, Note_on_c, 0, 100, 74
1, 229555, Note_off_c, 0, 100, 65
1, 229570, Note_on_c, 0, 101, 68
1, 229598, Note_off_c, 0, 101, 64
1, 229608, Note_on_c, 0, 94, 69
1, 229665, Note_on_c, 0, 68, 63
1, 229665, Note_on_c, 0, 97, 65
1, 229675, Note_off_c, 0, 94, 62
1, 229683, Note_on_c, 0, 58, 53
1, 229683, Note_off_c, 0, 68, 63
1, 229707, Note_off_c, 0, 58, 65
1, 229716, Note_on_c, 0, 98, 67
1, 229722, Note_off_c, 0, 97, 65
1, 229742, Note_off_c, 0, 98, 66
1, 229769, Note_on_c, 0, 89, 61
1, 229799, Note_off_c, 0, 89, 55
1, 229825, Note_on_c, 0, 100, 80
1, 229826, Note_on_c, 0, 39, 62
1, 229850, Note_off_c, 0, 39, 59
1, 229876, Note_off_c, 0, 100, 65
1, 229890, Note_on_c, 0, 101, 60
1, 229909, Note_off_c, 0, 101, 62
1, 229921, Note_on_c, 0, 94, 71
1, 229971, Note_on_c, 0, 97, 63
1, 229977, Note_off_c, 0, 94, 65
1, 229983, Note_on_c, 0, 63, 62
1, 229999, Note_on_c, 0, 68, 48
1, 230009, Note_on_c, 0, 98, 60
1, 230017, Note_off_c, 0, 97, 64
1, 230020, Note_on_c, 0, 58, 25
1, 230026, Note_off_c, 0, 68, 56
1, 230038, Note_off_c, 0, 98, 68
1, 230049, Note_off_c, 0, 58, 48
1, 230053, Note_off_c, 0, 63, 61
1, 230069, Note_on_c, 0, 89, 62
1, 230085, Note_off_c, 0, 89, 64
1, 230127, Note_on_c, 0, 102, 80
1, 230187, Note_off_c, 0, 102, 65
1, 230189, Note_on_c, 0, 103, 65
1, 230208, Note_off_c, 0, 103, 63
1, 230214, Note_on_c, 0, 94, 72
1, 230262, Note_on_c, 0, 67, 55
1, 230270, Note_on_c, 0, 98, 70
1, 230273, Note_on_c, 0, 63, 49
1, 230276, Note_off_c, 0, 94, 63
1, 230283, Note_off_c, 0, 67, 60
1, 230294, Note_on_c, 0, 58, 41
1, 230295, Note_off_c, 0, 63, 59
1, 230317, Note_on_c, 0, 99, 80
1, 230318, Note_off_c, 0, 58, 56
1, 230321, Note_off_c, 0, 98, 66
1, 230344, Note_off_c, 0, 99, 68
1, 230380, Note_on_c, 0, 91, 65
1, 230425, Note_off_c, 0, 91, 61
1, 230439, Note_on_c, 0, 39, 69
1, 230440, Note_on_c, 0, 102, 83
1, 230472, Note_off_c, 0, 39, 63
1, 230510, Note_off_c, 0, 102, 65
1, 230514, Note_on_c, 0, 103, 68
1, 230535, Note_off_c, 0, 103, 59
1, 230552, Note_on_c, 0, 94, 70
1, 230608, Note_off_c, 0, 94, 63
1, 230612, Note_on_c, 0, 98, 65
1, 230623, Note_on_c, 0, 63, 37
1, 230625, Note_on_c, 0, 58, 34
1, 230626, Note_on_c, 0, 67, 39
1, 230651, Note_off_c, 0, 63, 50
1, 230654, Note_off_c, 0, 58, 54
1, 230655, Note_off_c, 0, 67, 52
1, 230656, Note_on_c, 0, 99, 69
1, 230662, Note_off_c, 0, 98, 65
1, 230685, Note_off_c, 0, 99, 68
1, 230714, Note_on_c, 0, 91, 56
1, 230742, Note_off_c, 0, 91, 50
1, 230767, Note_on_c, 0, 100, 70
1, 230821, Note_off_c, 0, 100, 65
1, 230846, Note_on_c, 0, 101, 42
1, 230874, Note_off_c, 0, 101, 53
1, 230884, Note_on_c, 0, 94, 69
1, 230911, Note_on_c, 0, 68, 58
1, 230929, Note_off_c, 0, 68, 63
1, 230932, Note_on_c, 0, 58, 48
1, 230941, Note_on_c, 0, 97, 51
1, 230951, Note_off_c, 0, 94, 59
1, 230957, Note_off_c, 0, 58, 63
1, 230983, Note_on_c, 0, 98, 67
1, 230989, Note_off_c, 0, 97, 63
1, 231020, Note_off_c, 0, 98, 60
1, 231051, Note_on_c, 0, 89, 57
1, 231088, Note_off_c, 0, 89, 60
1, 231108, Note_on_c, 0, 100, 77
1, 231129, Note_on_c, 0, 39, 26
1, 231168, Note_off_c, 0, 39, 34
1, 231176, Note_off_c, 0, 100, 64
1, 231188, Note_on_c, 0, 101, 66
1, 231216, Note_off_c, 0, 101, 65
1, 231233, Note_on_c, 0, 94, 60
1, 231287, Note_on_c, 0, 97, 70
1, 231317, Note_off_c, 0, 94, 62
1, 231331, Note_on_c, 0, 68, 48
1, 231341, Note_on_c, 0, 58, 38
1, 231347, Note_on_c, 0, 98, 62
1, 231352, Note_off_c, 0, 97, 63
1, 231352, Note_on_c, 0, 62, 37
1, 231392, Note_off_c, 0, 68, 0
1, 231392, Note_on_c, 0, 68, 18
1, 231393, Note_on_c, 0, 89, 51
1, 231406, Note_off_c, 0, 98, 62
1, 231412, Note_off_c, 0, 89, 62
1, 231500, Control_c, 0, 64, 35
1, 231514, Control_c, 0, 64, 51
1, 231523, Note_on_c, 0, 93, 62
1, 231529, Note_on_c, 0, 102, 71
1, 231529, Control_c, 0, 64, 60
1, 231540, Note_off_c, 0, 93, 62
1, 231544, Control_c, 0, 64, 64
1, 231557, Note_off_c, 0, 102, 65
1, 231558, Control_c, 0, 64, 69
1, 231573, Control_c, 0, 64, 75
1, 231588, Control_c, 0, 64, 81
1, 231603, Control_c, 0, 64, 83
1, 231609, Note_on_c, 0, 103, 82
1, 231614, Note_off_c, 0, 68, 42
1, 231618, Control_c, 0, 64, 84
1, 231628, Note_on_c, 0, 94, 51
1, 231629, Note_off_c, 0, 103, 69
1, 231632, Control_c, 0, 64, 85
1, 231637, Note_off_c, 0, 62, 49
1, 231647, Control_c, 0, 64, 86
1, 231652, Note_off_c, 0, 94, 37
1, 231662, Control_c, 0, 64, 87
1, 231674, Note_off_c, 0, 58, 62
1, 231677, Control_c, 0, 64, 89
1, 231692, Control_c, 0, 64, 90
1, 231707, Control_c, 0, 64, 92
1, 231722, Control_c, 0, 64, 93
1, 231737, Control_c, 0, 64, 94
1, 231752, Control_c, 0, 64, 95
1, 231766, Control_c, 0, 64, 97
1, 231781, Control_c, 0, 64, 99
1, 231796, Control_c, 0, 64, 101
1, 231811, Control_c, 0, 64, 104
1, 231824, Control_c, 0, 64, 106
1, 231838, Control_c, 0, 64, 110
1, 231853, Control_c, 0, 64, 113
1, 231868, Control_c, 0, 64, 117
1, 231890, Control_c, 0, 64, 120
1, 231905, Control_c, 0, 64, 125
1, 231920, Control_c, 0, 64, 127
1, 231982, Note_on_c, 0, 39, 41
1, 232014, Note_off_c, 0, 39, 54
1, 232089, Note_on_c, 0, 74, 60
1, 232097, Note_on_c, 0, 66, 48
1, 232128, Note_off_c, 0, 66, 61
1, 232133, Note_off_c, 0, 74, 52
1, 232142, Note_on_c, 0, 58, 48
1, 232170, Note_on_c, 0, 75, 70
1, 232177, Note_on_c, 0, 67, 68
1, 232189, Note_off_c, 0, 58, 48
1, 232213, Note_off_c, 0, 67, 57
1, 232259, Note_off_c, 0, 75, 65
1, 232618, Control_c, 0, 64, 126
1, 232640, Control_c, 0, 64, 116
1, 232642, Note_on_c, 0, 41, 29
1, 232655, Control_c, 0, 64, 107
1, 232670, Control_c, 0, 64, 99
1, 232685, Control_c, 0, 64, 88
1, 232693, Note_on_c, 0, 86, 61
1, 232700, Control_c, 0, 64, 75
1, 232706, Note_on_c, 0, 77, 50
1, 232714, Control_c, 0, 64, 35
1, 232719, Note_on_c, 0, 56, 44
1, 232729, Control_c, 0, 64, 0
1, 232755, Note_off_c, 0, 77, 48
1, 232786, Note_on_c, 0, 89, 71
1, 232788, Control_c, 0, 64, 46
1, 232803, Control_c, 0, 64, 62
1, 232818, Control_c, 0, 64, 64
1, 232826, Note_on_c, 0, 80, 40
1, 232833, Control_c, 0, 64, 67
1, 232848, Control_c, 0, 64, 70
1, 232850, Note_off_c, 0, 41, 42
1, 232862, Control_c, 0, 64, 74
1, 232877, Control_c, 0, 64, 78
1, 232880, Note_off_c, 0, 89, 58
1, 232892, Control_c, 0, 64, 81
1, 232899, Note_off_c, 0, 86, 29
1, 232906, Control_c, 0, 64, 83
1, 232921, Control_c, 0, 64, 83
1, 232936, Control_c, 0, 64, 84
1, 232951, Control_c, 0, 64, 85
1, 232955, Note_off_c, 0, 56, 40
1, 232966, Control_c, 0, 64, 85
1, 232981, Control_c, 0, 64, 86
1, 232988, Note_off_c, 0, 80, 42
1, 232995, Control_c, 0, 64, 86
1, 233025, Control_c, 0, 64, 87
1, 233055, Control_c, 0, 64, 87
1, 233085, Control_c, 0, 64, 88
1, 233115, Control_c, 0, 64, 88
1, 233174, Control_c, 0, 64, 89
1, 233218, Control_c, 0, 64, 89
1, 233263, Control_c, 0, 64, 90
1, 233400, Note_on_c, 0, 43, 41
1, 233507, Control_c, 0, 64, 89
1, 233522, Control_c, 0, 64, 89
1, 233526, Note_on_c, 0, 71, 49
1, 233535, Note_on_c, 0, 59, 44
1, 233537, Control_c, 0, 64, 88
1, 233552, Control_c, 0, 64, 86
1, 233555, Note_on_c, 0, 62, 32
1, 233567, Control_c, 0, 64, 82
1, 233582, Control_c, 0, 64, 77
1, 233597, Control_c, 0, 64, 71
1, 233611, Control_c, 0, 64, 61
1, 233626, Control_c, 0, 64, 0
1, 233661, Note_on_c, 0, 74, 51
1, 233665, Note_off_c, 0, 62, 45
1, 233689, Note_on_c, 0, 65, 53
1, 233833, Control_c, 0, 64, 47
1, 233848, Control_c, 0, 64, 58
1, 233864, Control_c, 0, 64, 62
1, 233877, Note_off_c, 0, 43, 42
1, 233879, Control_c, 0, 64, 65
1, 233880, Note_off_c, 0, 65, 52
1, 233894, Control_c, 0, 64, 67
1, 233901, Note_off_c, 0, 71, 21
1, 233908, Control_c, 0, 64, 69
1, 233923, Control_c, 0, 64, 72
1, 233938, Control_c, 0, 64, 74
1, 233953, Control_c, 0, 64, 77
1, 233967, Control_c, 0, 64, 79
1, 233982, Control_c, 0, 64, 80
1, 233997, Control_c, 0, 64, 81
1, 234012, Control_c, 0, 64, 82
1, 234027, Control_c, 0, 64, 83
1, 234056, Control_c, 0, 64, 83
1, 234101, Control_c, 0, 64, 84
1, 234253, Note_off_c, 0, 59, 29
1, 234253, Note_off_c, 0, 74, 36
1, 234515, Note_on_c, 0, 48, 40
1, 234627, Control_c, 0, 64, 83
1, 234631, Note_on_c, 0, 55, 39
1, 234641, Control_c, 0, 64, 83
1, 234657, Control_c, 0, 64, 82
1, 234672, Control_c, 0, 64, 82
1, 234687, Control_c, 0, 64, 81
1, 234702, Control_c, 0, 64, 80
1, 234716, Control_c, 0, 64, 79
1, 234731, Control_c, 0, 64, 79
1, 234746, Control_c, 0, 64, 78
1, 234761, Control_c, 0, 64, 76
1, 234776, Control_c, 0, 64, 75
1, 234790, Control_c, 0, 64, 73
1, 234805, Control_c, 0, 64, 71
1, 234820, Control_c, 0, 64, 68
1, 234835, Control_c, 0, 64, 65
1, 234850, Control_c, 0, 64, 63
1, 234853, Note_on_c, 0, 63, 37
1, 234864, Control_c, 0, 64, 62
1, 234887, Control_c, 0, 64, 61
1, 234908, Note_on_c, 0, 72, 57
1, 234931, Control_c, 0, 64, 61
1, 234943, Note_on_c, 0, 67, 28
1, 234946, Control_c, 0, 64, 60
1, 234961, Control_c, 0, 64, 58
1, 234976, Control_c, 0, 64, 58
1, 234990, Control_c, 0, 64, 57
1, 235005, Control_c, 0, 64, 56
1, 235020, Control_c, 0, 64, 54
1, 235035, Control_c, 0, 64, 53
1, 235050, Control_c, 0, 64, 52
1, 235064, Control_c, 0, 64, 52
1, 235094, Control_c, 0, 64, 51
1, 235201, Note_on_c, 0, 74, 61
1, 235219, Note_off_c, 0, 72, 58
1, 235287, Control_c, 0, 64, 52
1, 235365, Note_on_c, 0, 72, 65
1, 235370, Note_off_c, 0, 74, 59
1, 235451, Control_c, 0, 64, 52
1, 235495, Control_c, 0, 64, 53
1, 235505, Note_off_c, 0, 72, 64
1, 235511, Note_on_c, 0, 74, 59
1, 235524, Control_c, 0, 64, 53
1, 235554, Control_c, 0, 64, 54
1, 235569, Control_c, 0, 64, 54
1, 235635, Note_off_c, 0, 74, 61
1, 235651, Control_c, 0, 64, 55
1, 235653, Note_on_c, 0, 72, 55
1, 235739, Control_c, 0, 64, 55
1, 235744, Note_off_c, 0, 72, 64
1, 235754, Control_c, 0, 64, 56
1, 235758, Note_on_c, 0, 74, 61
1, 235769, Control_c, 0, 64, 56
1, 235784, Control_c, 0, 64, 57
1, 235799, Control_c, 0, 64, 59
1, 235813, Control_c, 0, 64, 60
1, 235828, Control_c, 0, 64, 62
1, 235837, Note_off_c, 0, 74, 62
1, 235843, Control_c, 0, 64, 63
1, 235858, Control_c, 0, 64, 65
1, 235868, Note_on_c, 0, 72, 54
1, 235873, Control_c, 0, 64, 67
1, 235887, Control_c, 0, 64, 69
1, 235902, Control_c, 0, 64, 70
1, 235917, Control_c, 0, 64, 72
1, 235924, Note_off_c, 0, 72, 61
1, 235931, Control_c, 0, 64, 73
1, 235946, Control_c, 0, 64, 74
1, 235961, Control_c, 0, 64, 75
1, 235963, Note_on_c, 0, 74, 49
1, 235976, Control_c, 0, 64, 76
1, 235991, Control_c, 0, 64, 77
1, 236004, Note_off_c, 0, 74, 56
1, 236005, Control_c, 0, 64, 77
1, 236020, Control_c, 0, 64, 78
1, 236035, Control_c, 0, 64, 78
1, 236043, Note_on_c, 0, 72, 55
1, 236050, Control_c, 0, 64, 79
1, 236071, Note_off_c, 0, 72, 56
1, 236080, Control_c, 0, 64, 80
1, 236110, Control_c, 0, 64, 80
1, 236110, Note_on_c, 0, 74, 52
1, 236143, Note_off_c, 0, 74, 54
1, 236154, Control_c, 0, 64, 81
1, 236170, Note_on_c, 0, 72, 59
1, 236184, Control_c, 0, 64, 81
1, 236199, Note_off_c, 0, 72, 56
1, 236213, Control_c, 0, 64, 82
1, 236236, Note_on_c, 0, 74, 56
1, 236243, Control_c, 0, 64, 82
1, 236265, Note_off_c, 0, 74, 58
1, 236274, Control_c, 0, 64, 83
1, 236292, Note_on_c, 0, 72, 65
1, 236303, Control_c, 0, 64, 83
1, 236318, Control_c, 0, 64, 84
1, 236322, Note_off_c, 0, 72, 60
1, 236347, Control_c, 0, 64, 84
1, 236348, Note_on_c, 0, 74, 60
1, 236362, Control_c, 0, 64, 85
1, 236384, Control_c, 0, 64, 85
1, 236388, Note_off_c, 0, 74, 58
1, 236414, Control_c, 0, 64, 86
1, 236417, Note_on_c, 0, 72, 65
1, 236429, Control_c, 0, 64, 86
1, 236444, Control_c, 0, 64, 87
1, 236447, Note_off_c, 0, 72, 66
1, 236459, Control_c, 0, 64, 87
1, 236473, Note_on_c, 0, 74, 60
1, 236488, Control_c, 0, 64, 88
1, 236500, Note_off_c, 0, 74, 57
1, 236503, Control_c, 0, 64, 88
1, 236533, Control_c, 0, 64, 89
1, 236536, Note_on_c, 0, 72, 58
1, 236562, Note_off_c, 0, 72, 65
1, 236562, Control_c, 0, 64, 89
1, 236576, Note_on_c, 0, 74, 60
1, 236577, Control_c, 0, 64, 90
1, 236607, Control_c, 0, 64, 90
1, 236614, Note_off_c, 0, 74, 62
1, 236640, Note_on_c, 0, 72, 67
1, 236651, Control_c, 0, 64, 91
1, 236669, Note_off_c, 0, 72, 67
1, 236680, Control_c, 0, 64, 91
1, 236684, Note_on_c, 0, 74, 58
1, 236710, Control_c, 0, 64, 92
1, 236725, Control_c, 0, 64, 92
1, 236727, Note_off_c, 0, 74, 63
1, 236740, Control_c, 0, 64, 93
1, 236746, Note_on_c, 0, 72, 66
1, 236754, Control_c, 0, 64, 94
1, 236769, Control_c, 0, 64, 96
1, 236780, Note_off_c, 0, 72, 64
1, 236784, Control_c, 0, 64, 98
1, 236793, Note_on_c, 0, 74, 59
1, 236799, Control_c, 0, 64, 101
1, 236814, Control_c, 0, 64, 104
1, 236828, Control_c, 0, 64, 108
1, 236840, Note_off_c, 0, 74, 63
1, 236843, Control_c, 0, 64, 112
1, 236856, Note_on_c, 0, 72, 64
1, 236858, Control_c, 0, 64, 118
1, 236873, Control_c, 0, 64, 127
1, 236887, Note_off_c, 0, 72, 63
1, 236895, Note_on_c, 0, 74, 54
1, 236943, Note_off_c, 0, 74, 62
1, 236960, Note_on_c, 0, 72, 61
1, 236996, Note_off_c, 0, 72, 62
1, 237006, Note_on_c, 0, 74, 55
1, 237050, Note_off_c, 0, 74, 63
1, 237062, Note_on_c, 0, 72, 70
1, 237073, Note_off_c, 0, 67, 40
1, 237110, Note_off_c, 0, 72, 62
1, 237138, Note_on_c, 0, 74, 53
1, 237174, Note_off_c, 0, 74, 67
1, 237185, Note_on_c, 0, 72, 61
1, 237225, Note_off_c, 0, 72, 49
1, 237249, Note_on_c, 0, 74, 54
1, 237283, Note_off_c, 0, 74, 67
1, 237317, Note_on_c, 0, 72, 51
1, 237349, Note_off_c, 0, 72, 65
1, 237359, Note_on_c, 0, 74, 54
1, 237392, Note_off_c, 0, 74, 59
1, 237398, Note_off_c, 0, 48, 1
1, 237402, Note_off_c, 0, 55, 51
1, 237421, Note_on_c, 0, 72, 67
1, 237450, Note_off_c, 0, 72, 66
1, 237487, Note_on_c, 0, 74, 47
1, 237508, Note_off_c, 0, 74, 63
1, 237526, Note_on_c, 0, 72, 62
1, 237527, Note_off_c, 0, 63, 51
1, 237561, Note_off_c, 0, 72, 64
1, 237583, Note_on_c, 0, 74, 57
1, 237624, Note_off_c, 0, 74, 64
1, 237645, Note_on_c, 0, 72, 56
1, 237675, Note_off_c, 0, 72, 58
1, 237699, Note_on_c, 0, 74, 49
1, 237738, Note_off_c, 0, 74, 65
1, 237767, Note_on_c, 0, 72, 60
1, 237794, Note_off_c, 0, 72, 61
1, 237820, Note_on_c, 0, 74, 54
1, 237860, Note_off_c, 0, 74, 63
1, 237892, Note_on_c, 0, 72, 61
1, 237922, Note_off_c, 0, 72, 57
1, 237951, Note_on_c, 0, 74, 52
1, 237983, Note_off_c, 0, 74, 60
1, 238012, Note_on_c, 0, 72, 57
1, 238037, Note_off_c, 0, 72, 60
1, 238070, Note_on_c, 0, 74, 59
1, 238101, Note_off_c, 0, 74, 61
1, 238128, Note_on_c, 0, 72, 58
1, 238153, Note_off_c, 0, 72, 64
1, 238185, Note_on_c, 0, 74, 52
1, 238209, Note_off_c, 0, 74, 59
1, 238244, Note_on_c, 0, 72, 56
1, 238268, Note_off_c, 0, 72, 62
1, 238287, Note_on_c, 0, 74, 58
1, 238344, Note_off_c, 0, 74, 61
1, 238370, Note_on_c, 0, 72, 54
1, 238450, Note_off_c, 0, 72, 44
1, 238508, Note_on_c, 0, 71, 46
1, 238626, Note_off_c, 0, 71, 51
1, 238626, Note_on_c, 0, 72, 46
1, 238645, Control_c, 0, 67, 126
1, 238661, Control_c, 0, 67, 119
1, 238676, Control_c, 0, 67, 113
1, 238691, Control_c, 0, 67, 105
1, 238700, Note_off_c, 0, 72, 63
1, 238705, Control_c, 0, 67, 96
1, 238715, Note_on_c, 0, 74, 43
1, 238720, Control_c, 0, 67, 86
1, 238735, Control_c, 0, 67, 76
1, 238750, Control_c, 0, 67, 64
1, 238764, Control_c, 0, 67, 49
1, 238775, Note_off_c, 0, 74, 44
1, 238779, Control_c, 0, 67, 37
1, 238781, Note_on_c, 0, 75, 64
1, 238794, Control_c, 0, 67, 25
1, 238809, Control_c, 0, 67, 15
1, 238810, Note_off_c, 0, 75, 67
1, 238824, Control_c, 0, 67, 0
1, 238846, Note_on_c, 0, 74, 47
1, 238894, Note_off_c, 0, 74, 62
1, 238905, Note_on_c, 0, 75, 55
1, 238950, Note_off_c, 0, 75, 61
1, 238959, Note_on_c, 0, 78, 55
1, 238978, Note_off_c, 0, 78, 59
1, 239004, Note_on_c, 0, 79, 69
1, 239029, Note_off_c, 0, 79, 67
1, 239048, Note_on_c, 0, 78, 69
1, 239111, Note_off_c, 0, 78, 63
1, 239115, Note_on_c, 0, 79, 69
1, 239141, Note_off_c, 0, 79, 64
1, 239147, Note_on_c, 0, 83, 69
1, 239195, Note_on_c, 0, 84, 75
1, 239195, Note_off_c, 0, 83, 58
1, 239217, Note_off_c, 0, 84, 71
1, 239248, Note_on_c, 0, 83, 58
1, 239279, Note_off_c, 0, 83, 62
1, 239284, Note_on_c, 0, 84, 79
1, 239328, Note_on_c, 0, 86, 72
1, 239329, Note_off_c, 0, 84, 66
1, 239369, Note_off_c, 0, 86, 62
1, 239385, Note_on_c, 0, 87, 77
1, 239406, Note_off_c, 0, 87, 70
1, 239423, Note_on_c, 0, 86, 64
1, 239476, Note_off_c, 0, 86, 64
1, 239477, Note_on_c, 0, 87, 79
1, 239511, Note_on_c, 0, 90, 74
1, 239522, Note_off_c, 0, 87, 62
1, 239542, Note_off_c, 0, 90, 65
1, 239565, Note_on_c, 0, 91, 80
1, 239584, Note_off_c, 0, 91, 67
1, 239609, Note_on_c, 0, 90, 54
1, 239630, Note_on_c, 0, 91, 62
1, 239649, Note_off_c, 0, 90, 60
1, 239688, Note_off_c, 0, 91, 62
1, 239693, Note_on_c, 0, 95, 84
1, 239745, Note_off_c, 0, 95, 64
1, 239749, Note_on_c, 0, 96, 79
1, 239768, Note_off_c, 0, 96, 71
1, 239782, Note_on_c, 0, 95, 72
1, 239835, Note_off_c, 0, 95, 67
1, 239839, Note_on_c, 0, 96, 81
1, 239862, Note_off_c, 0, 96, 64
1, 239868, Note_on_c, 0, 98, 75
1, 239908, Note_on_c, 0, 99, 81
1, 239909, Note_off_c, 0, 98, 66
1, 239927, Note_off_c, 0, 99, 75
1, 239958, Note_on_c, 0, 98, 75
1, 240012, Note_on_c, 0, 99, 82
1, 240019, Note_off_c, 0, 98, 66
1, 240046, Note_on_c, 0, 102, 83
1, 240046, Note_off_c, 0, 99, 65
1, 240090, Note_on_c, 0, 103, 89
1, 240094, Note_off_c, 0, 102, 65
1, 240138, Note_off_c, 0, 103, 66
1, 240151, Note_on_c, 0, 95, 80
1, 240196, Note_off_c, 0, 95, 66
1, 240197, Note_on_c, 0, 96, 75
1, 240223, Note_off_c, 0, 96, 63
1, 240250, Note_on_c, 0, 98, 69
1, 240298, Note_on_c, 0, 99, 74
1, 240298, Note_off_c, 0, 98, 64
1, 240321, Note_off_c, 0, 99, 73
1, 240349, Note_on_c, 0, 90, 64
1, 240395, Note_off_c, 0, 90, 61
1, 240396, Note_on_c, 0, 91, 76
1, 240426, Note_off_c, 0, 91, 57
1, 240438, Note_on_c, 0, 95, 71
1, 240477, Note_off_c, 0, 95, 61
1, 240492, Note_on_c, 0, 96, 72
1, 240516, Note_off_c, 0, 96, 68
1, 240560, Note_on_c, 0, 86, 62
1, 240588, Note_on_c, 0, 87, 73
1, 240592, Note_off_c, 0, 86, 63
1, 240632, Note_off_c, 0, 87, 58
1, 240649, Note_on_c, 0, 90, 66
1, 240679, Note_off_c, 0, 90, 66
1, 240715, Note_on_c, 0, 91, 68
1, 240734, Note_off_c, 0, 91, 61
1, 240760, Note_on_c, 0, 83, 64
1, 240799, Note_off_c, 0, 83, 57
1, 240812, Note_on_c, 0, 84, 58
1, 240841, Note_off_c, 0, 84, 59
1, 240853, Note_on_c, 0, 86, 66
1, 240903, Note_off_c, 0, 86, 59
1, 240917, Note_on_c, 0, 87, 68
1, 240941, Note_off_c, 0, 87, 68
1, 240965, Note_on_c, 0, 78, 63
1, 241015, Note_on_c, 0, 79, 63
1, 241017, Note_off_c, 0, 78, 60
1, 241052, Note_off_c, 0, 79, 61
1, 241063, Note_on_c, 0, 83, 56
1, 241091, Note_off_c, 0, 83, 58
1, 241112, Note_on_c, 0, 84, 66
1, 241137, Note_off_c, 0, 84, 66
1, 241198, Note_on_c, 0, 74, 53
1, 241227, Note_off_c, 0, 74, 61
1, 241232, Note_on_c, 0, 75, 61
1, 241283, Note_off_c, 0, 75, 59
1, 241302, Note_on_c, 0, 78, 52
1, 241323, Note_off_c, 0, 78, 64
1, 241359, Note_on_c, 0, 79, 59
1, 241383, Note_off_c, 0, 79, 62
1, 241428, Note_on_c, 0, 71, 57
1, 241465, Note_off_c, 0, 71, 61
1, 241475, Note_on_c, 0, 72, 51
1, 241497, Note_off_c, 0, 72, 62
1, 241532, Note_on_c, 0, 74, 59
1, 241566, Note_off_c, 0, 74, 64
1, 241586, Note_on_c, 0, 75, 64
1, 241613, Note_off_c, 0, 75, 69
1, 241633, Note_on_c, 0, 66, 65
1, 241683, Note_on_c, 0, 67, 71
1, 241691, Note_off_c, 0, 66, 64
1, 241699, Control_c, 0, 64, 123
1, 241714, Control_c, 0, 64, 109
1, 241729, Control_c, 0, 64, 104
1, 241733, Note_off_c, 0, 67, 61
1, 241735, Note_on_c, 0, 71, 70
1, 241744, Control_c, 0, 64, 103
1, 241788, Note_off_c, 0, 71, 47
1, 241791, Note_on_c, 0, 72, 77
1, 241812, Note_off_c, 0, 72, 72
1, 241833, Control_c, 0, 64, 103
1, 241836, Note_on_c, 0, 71, 65
1, 241848, Control_c, 0, 64, 106
1, 241863, Control_c, 0, 64, 113
1, 241876, Note_on_c, 0, 72, 80
1, 241878, Control_c, 0, 64, 127
1, 241879, Note_off_c, 0, 71, 60
1, 241917, Note_on_c, 0, 74, 72
1, 241917, Note_off_c, 0, 72, 65
1, 241956, Note_off_c, 0, 74, 63
1, 241957, Note_on_c, 0, 75, 76
1, 241980, Note_off_c, 0, 75, 70
1, 242028, Note_on_c, 0, 74, 72
1, 242064, Note_on_c, 0, 75, 74
1, 242077, Note_off_c, 0, 74, 63
1, 242107, Note_off_c, 0, 75, 63
1, 242122, Note_on_c, 0, 78, 73
1, 242164, Note_on_c, 0, 79, 81
1, 242167, Note_off_c, 0, 78, 65
1, 242207, Note_off_c, 0, 79, 64
1, 242243, Note_on_c, 0, 71, 62
1, 242273, Note_off_c, 0, 71, 64
1, 242280, Note_on_c, 0, 72, 67
1, 242306, Note_off_c, 0, 72, 69
1, 242313, Note_on_c, 0, 74, 65
1, 242360, Note_off_c, 0, 74, 60
1, 242375, Control_c, 0, 64, 118
1, 242377, Note_on_c, 0, 75, 74
1, 242390, Control_c, 0, 64, 110
1, 242402, Note_off_c, 0, 75, 69
1, 242405, Control_c, 0, 64, 103
1, 242420, Control_c, 0, 64, 96
1, 242434, Note_on_c, 0, 66, 68
1, 242435, Control_c, 0, 64, 90
1, 242449, Control_c, 0, 64, 86
1, 242464, Control_c, 0, 64, 83
1, 242469, Note_on_c, 0, 67, 74
1, 242475, Note_off_c, 0, 66, 62
1, 242479, Control_c, 0, 64, 83
1, 242494, Control_c, 0, 64, 83
1, 242508, Control_c, 0, 64, 85
1, 242512, Note_off_c, 0, 67, 61
1, 242518, Note_on_c, 0, 71, 75
1, 242523, Control_c, 0, 64, 88
1, 242538, Control_c, 0, 64, 93
1, 242553, Control_c, 0, 64, 97
1, 242568, Control_c, 0, 64, 101
1, 242572, Note_off_c, 0, 71, 55
1, 242578, Note_on_c, 0, 72, 81
1, 242582, Control_c, 0, 64, 105
1, 242596, Note_off_c, 0, 72, 74
1, 242597, Control_c, 0, 64, 109
1, 242612, Control_c, 0, 64, 112
1, 242626, Control_c, 0, 64, 115
1, 242631, Note_on_c, 0, 71, 64
1, 242643, Control_c, 0, 64, 117
1, 242658, Control_c, 0, 64, 119
1, 242670, Note_off_c, 0, 71, 60
1, 242671, Note_on_c, 0, 72, 81
1, 242672, Control_c, 0, 64, 120
1, 242687, Control_c, 0, 64, 121
1, 242707, Note_off_c, 0, 72, 61
1, 242711, Note_on_c, 0, 74, 72
1, 242760, Note_on_c, 0, 75, 79
1, 242762, Note_off_c, 0, 74, 64
1, 242784, Note_off_c, 0, 75, 70
1, 242820, Control_c, 0, 64, 121
1, 242835, Control_c, 0, 64, 120
1, 242841, Note_on_c, 0, 74, 63
1, 242850, Control_c, 0, 64, 120
1, 242865, Control_c, 0, 64, 119
1, 242875, Note_on_c, 0, 75, 74
1, 242879, Control_c, 0, 64, 117
1, 242881, Note_off_c, 0, 74, 61
1, 242894, Control_c, 0, 64, 115
1, 242909, Control_c, 0, 64, 113
1, 242915, Note_off_c, 0, 75, 61
1, 242924, Control_c, 0, 64, 111
1, 242936, Note_on_c, 0, 78, 66
1, 242939, Control_c, 0, 64, 109
1, 242954, Control_c, 0, 64, 107
1, 242969, Control_c, 0, 64, 106
1, 242980, Note_on_c, 0, 79, 79
1, 242982, Note_off_c, 0, 78, 65
1, 242984, Control_c, 0, 64, 104
1, 242998, Control_c, 0, 64, 101
1, 243013, Control_c, 0, 64, 99
1, 243022, Note_off_c, 0, 79, 63
1, 243028, Control_c, 0, 64, 96
1, 243043, Control_c, 0, 64, 93
1, 243058, Control_c, 0, 64, 91
1, 243063, Note_on_c, 0, 71, 65
1, 243072, Control_c, 0, 64, 89
1, 243087, Control_c, 0, 64, 87
1, 243102, Control_c, 0, 64, 84
1, 243118, Note_on_c, 0, 72, 66
1, 243120, Note_off_c, 0, 71, 59
1, 243124, Control_c, 0, 64, 81
1, 243139, Control_c, 0, 64, 78
1, 243150, Note_off_c, 0, 72, 64
1, 243154, Control_c, 0, 64, 75
1, 243169, Control_c, 0, 64, 71
1, 243175, Note_on_c, 0, 74, 65
1, 243183, Control_c, 0, 64, 67
1, 243198, Control_c, 0, 64, 62
1, 243213, Control_c, 0, 64, 58
1, 243228, Control_c, 0, 64, 57
1, 243237, Note_off_c, 0, 74, 63
1, 243243, Control_c, 0, 64, 57
1, 243244, Note_on_c, 0, 75, 68
1, 243273, Note_off_c, 0, 75, 68
1, 243287, Control_c, 0, 64, 57
1, 243302, Control_c, 0, 64, 56
1, 243303, Note_on_c, 0, 66, 57
1, 243317, Control_c, 0, 64, 54
1, 243331, Control_c, 0, 64, 51
1, 243344, Note_off_c, 0, 66, 65
1, 243346, Control_c, 0, 64, 48
1, 243350, Note_on_c, 0, 67, 65
1, 243361, Control_c, 0, 64, 46
1, 243376, Control_c, 0, 64, 43
1, 243391, Control_c, 0, 64, 39
1, 243393, Note_off_c, 0, 67, 60
1, 243405, Control_c, 0, 64, 32
1, 243420, Control_c, 0, 64, 21
1, 243421, Note_on_c, 0, 71, 60
1, 243435, Control_c, 0, 64, 0
1, 243462, Note_off_c, 0, 71, 57
1, 243492, Note_on_c, 0, 72, 62
1, 243510, Control_c, 0, 67, 11
1, 243514, Note_off_c, 0, 72, 64
1, 243525, Control_c, 0, 67, 15
1, 243540, Control_c, 0, 67, 19
1, 243554, Control_c, 0, 67, 22
1, 243560, Note_on_c, 0, 62, 56
1, 243569, Control_c, 0, 67, 27
1, 243584, Control_c, 0, 67, 32
1, 243599, Control_c, 0, 67, 37
1, 243600, Note_off_c, 0, 62, 59
1, 243610, Note_on_c, 0, 63, 54
1, 243613, Control_c, 0, 67, 40
1, 243628, Control_c, 0, 67, 42
1, 243643, Control_c, 0, 67, 44
1, 243658, Control_c, 0, 67, 45
1, 243672, Control_c, 0, 67, 47
1, 243679, Note_off_c, 0, 63, 63
1, 243685, Note_on_c, 0, 66, 57
1, 243687, Control_c, 0, 67, 50
1, 243702, Control_c, 0, 67, 53
1, 243717, Control_c, 0, 67, 57
1, 243722, Note_off_c, 0, 66, 67
1, 243732, Control_c, 0, 67, 60
1, 243747, Control_c, 0, 67, 63
1, 243762, Control_c, 0, 67, 67
1, 243765, Note_on_c, 0, 67, 54
1, 243777, Control_c, 0, 67, 72
1, 243792, Control_c, 0, 67, 78
1, 243805, Control_c, 0, 67, 84
1, 243819, Control_c, 0, 67, 91
1, 243825, Note_off_c, 0, 67, 63
1, 243834, Control_c, 0, 67, 95
1, 243842, Note_on_c, 0, 66, 59
1, 243849, Control_c, 0, 67, 100
1, 243871, Control_c, 0, 67, 104
1, 243886, Control_c, 0, 67, 108
1, 243901, Control_c, 0, 67, 113
1, 243916, Note_off_c, 0, 66, 51
1, 243916, Control_c, 0, 67, 118
1, 243931, Control_c, 0, 67, 122
1, 243945, Control_c, 0, 67, 125
1, 243958, Note_on_c, 0, 67, 54
1, 243960, Control_c, 0, 67, 127
1, 244006, Note_off_c, 0, 67, 58
1, 244065, Note_on_c, 0, 71, 51
1, 244143, Note_off_c, 0, 71, 51
1, 244176, Note_on_c, 0, 72, 46
1, 244373, Note_on_c, 0, 44, 35
1, 244450, Control_c, 0, 64, 50
1, 244465, Control_c, 0, 64, 60
1, 244480, Control_c, 0, 64, 63
1, 244494, Control_c, 0, 64, 65
1, 244509, Control_c, 0, 64, 66
1, 244524, Control_c, 0, 64, 67
1, 244539, Control_c, 0, 64, 69
1, 244546, Note_off_c, 0, 44, 51
1, 244554, Control_c, 0, 64, 72
1, 244555, Note_on_c, 0, 53, 36
1, 244560, Note_off_c, 0, 72, 39
1, 244568, Control_c, 0, 64, 76
1, 244583, Control_c, 0, 64, 79
1, 244598, Control_c, 0, 64, 81
1, 244620, Control_c, 0, 64, 83
1, 244635, Control_c, 0, 64, 84
1, 244650, Control_c, 0, 64, 84
1, 244665, Control_c, 0, 64, 85
1, 244694, Control_c, 0, 64, 85
1, 244709, Control_c, 0, 64, 86
1, 244724, Control_c, 0, 64, 86
1, 244739, Control_c, 0, 64, 87
1, 244749, Note_on_c, 0, 60, 41
1, 244754, Control_c, 0, 64, 87
1, 244768, Control_c, 0, 64, 88
1, 244783, Control_c, 0, 64, 88
1, 244798, Control_c, 0, 64, 89
1, 244813, Control_c, 0, 64, 89
1, 244828, Control_c, 0, 64, 90
1, 244842, Control_c, 0, 64, 90
1, 244872, Control_c, 0, 64, 91
1, 244901, Control_c, 0, 64, 91
1, 244903, Note_on_c, 0, 65, 46
1, 244975, Control_c, 0, 64, 92
1, 245065, Note_off_c, 0, 65, 32
1, 245085, Note_on_c, 0, 72, 51
1, 245243, Control_c, 0, 64, 92
1, 245368, Note_off_c, 0, 72, 32
1, 245577, Note_on_c, 0, 77, 61
1, 245748, Note_off_c, 0, 77, 40
1, 245810, Note_off_c, 0, 60, 22
1, 245903, Control_c, 0, 64, 93
1, 245924, Note_off_c, 0, 53, 32
1, 246816, Note_on_c, 0, 76, 27
1, 246984, Note_off_c, 0, 76, 42
1, 246996, Note_on_c, 0, 77, 43
1, 247148, Note_off_c, 0, 77, 49
1, 247164, Note_on_c, 0, 79, 50
1, 247289, Note_off_c, 0, 79, 58
1, 247306, Note_on_c, 0, 77, 47
1, 247395, Note_off_c, 0, 77, 37
1, 247419, Note_on_c, 0, 79, 55
1, 247502, Note_off_c, 0, 79, 56
1, 247524, Note_on_c, 0, 77, 50
1, 247573, Note_off_c, 0, 77, 54
1, 247633, Note_on_c, 0, 79, 49
1, 247679, Note_off_c, 0, 79, 52
1, 247707, Note_on_c, 0, 77, 49
1, 247729, Note_off_c, 0, 77, 57
1, 247786, Note_on_c, 0, 79, 41
1, 247810, Note_off_c, 0, 79, 58
1, 247820, Note_on_c, 0, 77, 51
1, 247858, Note_off_c, 0, 77, 54
1, 247895, Note_on_c, 0, 79, 58
1, 247920, Note_off_c, 0, 79, 61
1, 247963, Note_on_c, 0, 77, 47
1, 247986, Note_off_c, 0, 77, 52
1, 248007, Note_on_c, 0, 79, 58
1, 248032, Note_off_c, 0, 79, 59
1, 248067, Note_on_c, 0, 77, 58
1, 248089, Note_off_c, 0, 77, 59
1, 248116, Note_on_c, 0, 79, 64
1, 248146, Note_off_c, 0, 79, 57
1, 248164, Note_on_c, 0, 77, 68
1, 248206, Note_off_c, 0, 77, 61
1, 248232, Note_on_c, 0, 79, 69
1, 248265, Note_off_c, 0, 79, 61
1, 248278, Note_on_c, 0, 77, 62
1, 248322, Note_off_c, 0, 77, 60
1, 248346, Note_on_c, 0, 79, 63
1, 248384, Note_off_c, 0, 79, 65
1, 248397, Note_on_c, 0, 77, 58
1, 248436, Note_off_c, 0, 77, 59
1, 248470, Note_on_c, 0, 79, 60
1, 248498, Note_off_c, 0, 79, 65
1, 248507, Note_on_c, 0, 77, 64
1, 248542, Control_c, 0, 64, 93
1, 248549, Note_off_c, 0, 77, 60
1, 248572, Note_on_c, 0, 79, 68
1, 248616, Note_off_c, 0, 79, 60
1, 248627, Note_on_c, 0, 77, 62
1, 248665, Note_off_c, 0, 77, 59
1, 248689, Note_on_c, 0, 79, 57
1, 248728, Note_off_c, 0, 79, 62
1, 248747, Note_on_c, 0, 77, 62
1, 248782, Note_off_c, 0, 77, 62
1, 248805, Note_on_c, 0, 79, 58
1, 248847, Note_off_c, 0, 79, 61
1, 248865, Note_on_c, 0, 77, 59
1, 248894, Note_off_c, 0, 77, 59
1, 248928, Note_on_c, 0, 79, 58
1, 248960, Note_off_c, 0, 79, 58
1, 248986, Note_on_c, 0, 77, 57
1, 249006, Note_off_c, 0, 77, 61
1, 249035, Note_on_c, 0, 79, 55
1, 249065, Note_off_c, 0, 79, 58
1, 249090, Note_on_c, 0, 77, 62
1, 249123, Note_off_c, 0, 77, 60
1, 249159, Note_on_c, 0, 79, 59
1, 249188, Note_off_c, 0, 79, 56
1, 249220, Note_on_c, 0, 77, 56
1, 249324, Note_off_c, 0, 77, 59
1, 249347, Note_on_c, 0, 76, 56
1, 249396, Control_c, 0, 64, 93
1, 249425, Control_c, 0, 64, 92
1, 249440, Control_c, 0, 64, 92
1, 249455, Control_c, 0, 64, 91
1, 249470, Control_c, 0, 64, 90
1, 249483, Note_off_c, 0, 76, 65
1, 249484, Control_c, 0, 64, 89
1, 249493, Note_on_c, 0, 77, 66
1, 249499, Control_c, 0, 64, 88
1, 249514, Control_c, 0, 64, 86
1, 249529, Control_c, 0, 64, 83
1, 249544, Control_c, 0, 64, 80
1, 249558, Control_c, 0, 64, 77
1, 249573, Control_c, 0, 64, 74
1, 249588, Control_c, 0, 64, 71
1, 249603, Control_c, 0, 64, 67
1, 249618, Control_c, 0, 64, 63
1, 249632, Control_c, 0, 64, 61
1, 249647, Control_c, 0, 64, 60
1, 249706, Control_c, 0, 64, 59
1, 249721, Control_c, 0, 64, 59
1, 249723, Note_on_c, 0, 86, 69
1, 249728, Note_off_c, 0, 77, 55
1, 249751, Control_c, 0, 64, 58
1, 249780, Control_c, 0, 64, 57
1, 249795, Control_c, 0, 64, 57
1, 249810, Control_c, 0, 64, 56
1, 249817, Note_off_c, 0, 86, 61
1, 249825, Control_c, 0, 64, 54
1, 249841, Control_c, 0, 64, 53
1, 249863, Control_c, 0, 64, 53
1, 249893, Control_c, 0, 64, 52
1, 249908, Control_c, 0, 64, 52
1, 249922, Control_c, 0, 64, 51
1, 249937, Control_c, 0, 64, 51
1, 249952, Control_c, 0, 64, 50
1, 249953, Note_on_c, 0, 85, 67
1, 250002, Note_off_c, 0, 85, 61
1, 250100, Control_c, 0, 64, 51
1, 250107, Note_on_c, 0, 84, 64
1, 250145, Note_off_c, 0, 84, 61
1, 250189, Control_c, 0, 64, 51
1, 250248, Control_c, 0, 64, 52
1, 250248, Note_on_c, 0, 83, 61
1, 250303, Note_off_c, 0, 83, 57
1, 250322, Control_c, 0, 64, 52
1, 250401, Note_on_c, 0, 82, 63
1, 250448, Note_off_c, 0, 82, 60
1, 250514, Control_c, 0, 64, 53
1, 250545, Note_on_c, 0, 81, 62
1, 250602, Note_off_c, 0, 81, 55
1, 250685, Control_c, 0, 64, 53
1, 250711, Note_on_c, 0, 80, 65
1, 250764, Note_off_c, 0, 80, 58
1, 250862, Note_on_c, 0, 79, 62
1, 250862, Control_c, 0, 64, 54
1, 250921, Note_off_c, 0, 79, 56
1, 251020, Note_on_c, 0, 78, 61
1, 251026, Control_c, 0, 64, 54
1, 251070, Control_c, 0, 64, 55
1, 251071, Note_off_c, 0, 78, 57
1, 251183, Note_on_c, 0, 77, 55
1, 251247, Note_off_c, 0, 77, 58
1, 251247, Control_c, 0, 64, 55
1, 251376, Note_on_c, 0, 71, 58
1, 251418, Control_c, 0, 64, 55
1, 251508, Note_off_c, 0, 71, 45
1, 251538, Control_c, 0, 64, 54
1, 251592, Note_on_c, 0, 72, 52
1, 251671, Control_c, 0, 64, 54
1, 251679, Note_off_c, 0, 72, 63
1, 251820, Note_on_c, 0, 77, 61
1, 251945, Note_off_c, 0, 77, 52
1, 252142, Note_on_c, 0, 76, 51
1, 252182, Control_c, 0, 64, 53
1, 252304, Note_off_c, 0, 76, 35
1, 252420, Control_c, 0, 64, 54
1, 252564, Note_on_c, 0, 75, 40
1, 252597, Control_c, 0, 64, 54
1, 252612, Control_c, 0, 64, 55
1, 252627, Control_c, 0, 64, 55
1, 252642, Control_c, 0, 64, 57
1, 252657, Control_c, 0, 64, 60
1, 252672, Control_c, 0, 64, 62
1, 252687, Control_c, 0, 64, 64
1, 252701, Control_c, 0, 64, 67
1, 252716, Control_c, 0, 64, 69
1, 252731, Control_c, 0, 64, 71
1, 252746, Control_c, 0, 64, 73
1, 252761, Control_c, 0, 64, 74
1, 252775, Control_c, 0, 64, 76
1, 252791, Control_c, 0, 64, 77
1, 252806, Control_c, 0, 64, 78
1, 252821, Control_c, 0, 64, 79
1, 252835, Control_c, 0, 64, 80
1, 252857, Control_c, 0, 64, 80
1, 252872, Control_c, 0, 64, 81
1, 252887, Control_c, 0, 64, 81
1, 252902, Control_c, 0, 64, 82
1, 252916, Control_c, 0, 64, 82
1, 252946, Control_c, 0, 64, 83
1, 253074, Note_on_c, 0, 46, 39
1, 253263, Note_on_c, 0, 53, 45
1, 253377, Control_c, 0, 64, 82
1, 253436, Control_c, 0, 64, 82
1, 253439, Note_on_c, 0, 58, 47
1, 253524, Control_c, 0, 64, 81
1, 253569, Control_c, 0, 64, 81
1, 253584, Control_c, 0, 64, 80
1, 253606, Control_c, 0, 64, 80
1, 253620, Note_on_c, 0, 62, 50
1, 253621, Control_c, 0, 64, 79
1, 253636, Control_c, 0, 64, 77
1, 253651, Control_c, 0, 64, 76
1, 253665, Control_c, 0, 64, 74
1, 253680, Control_c, 0, 64, 71
1, 253695, Control_c, 0, 64, 68
1, 253710, Control_c, 0, 64, 64
1, 253725, Control_c, 0, 64, 62
1, 253739, Control_c, 0, 64, 61
1, 253754, Control_c, 0, 64, 62
1, 253769, Control_c, 0, 64, 62
1, 253805, Note_off_c, 0, 75, 31
1, 253817, Note_on_c, 0, 68, 50
1, 253844, Control_c, 0, 64, 62
1, 253874, Control_c, 0, 64, 62
1, 253903, Control_c, 0, 64, 63
1, 253918, Control_c, 0, 64, 64
1, 253933, Control_c, 0, 64, 65
1, 253948, Control_c, 0, 64, 67
1, 253962, Control_c, 0, 64, 68
1, 253977, Control_c, 0, 64, 69
1, 253992, Control_c, 0, 64, 71
1, 254007, Control_c, 0, 64, 72
1, 254022, Control_c, 0, 64, 73
1, 254037, Control_c, 0, 64, 74
1, 254052, Control_c, 0, 64, 74
1, 254067, Control_c, 0, 64, 75
1, 254068, Note_on_c, 0, 75, 49
1, 254081, Control_c, 0, 64, 76
1, 254096, Control_c, 0, 64, 76
1, 254126, Control_c, 0, 64, 77
1, 254155, Control_c, 0, 64, 77
1, 254273, Control_c, 0, 64, 78
1, 254417, Note_off_c, 0, 75, 33
1, 254538, Note_on_c, 0, 74, 55
1, 254638, Control_c, 0, 64, 77
1, 254667, Control_c, 0, 64, 76
1, 254682, Control_c, 0, 64, 75
1, 254697, Control_c, 0, 64, 73
1, 254711, Control_c, 0, 64, 67
1, 254726, Control_c, 0, 64, 62
1, 254741, Control_c, 0, 64, 56
1, 254756, Control_c, 0, 64, 54
1, 254771, Control_c, 0, 64, 54
1, 254785, Control_c, 0, 64, 55
1, 254800, Control_c, 0, 64, 56
1, 254815, Control_c, 0, 64, 59
1, 254830, Control_c, 0, 64, 62
1, 254845, Control_c, 0, 64, 64
1, 254860, Control_c, 0, 64, 66
1, 254875, Control_c, 0, 64, 68
1, 254889, Control_c, 0, 64, 71
1, 254904, Control_c, 0, 64, 75
1, 254919, Control_c, 0, 64, 78
1, 254934, Control_c, 0, 64, 82
1, 254949, Control_c, 0, 64, 84
1, 254964, Control_c, 0, 64, 86
1, 254978, Control_c, 0, 64, 89
1, 254993, Control_c, 0, 64, 91
1, 254994, Note_off_c, 0, 62, 31
1, 255008, Control_c, 0, 64, 93
1, 255022, Control_c, 0, 64, 94
1, 255036, Control_c, 0, 64, 95
1, 255051, Control_c, 0, 64, 96
1, 255066, Control_c, 0, 64, 97
1, 255073, Note_off_c, 0, 46, 33
1, 255081, Control_c, 0, 64, 97
1, 255103, Control_c, 0, 64, 98
1, 255118, Control_c, 0, 64, 98
1, 255133, Control_c, 0, 64, 99
1, 255141, Note_off_c, 0, 58, 31
1, 255163, Control_c, 0, 64, 99
1, 255170, Note_off_c, 0, 74, 33
1, 255192, Control_c, 0, 64, 100
1, 255199, Note_off_c, 0, 53, 34
1, 255207, Control_c, 0, 64, 100
1, 255236, Control_c, 0, 64, 101
1, 255291, Note_off_c, 0, 68, 30
1, 255325, Control_c, 0, 64, 101
1, 256285, Note_on_c, 0, 62, 47
1, 256312, Control_c, 0, 64, 101
1, 256327, Control_c, 0, 64, 100
1, 256332, Note_off_c, 0, 62, 55
1, 256342, Control_c, 0, 64, 97
1, 256350, Note_on_c, 0, 68, 55
1, 256356, Control_c, 0, 64, 94
1, 256371, Control_c, 0, 64, 90
1, 256386, Control_c, 0, 64, 84
1, 256401, Control_c, 0, 64, 77
1, 256416, Control_c, 0, 64, 69
1, 256422, Note_off_c, 0, 68, 58
1, 256425, Note_on_c, 0, 77, 64
1, 256426, Note_on_c, 0, 34, 40
1, 256431, Control_c, 0, 64, 53
1, 256446, Control_c, 0, 64, 0
1, 256466, Note_off_c, 0, 77, 61
1, 256473, Note_off_c, 0, 34, 58
1, 256922, Note_on_c, 0, 67, 60
1, 256932, Note_on_c, 0, 75, 59
1, 256936, Note_on_c, 0, 39, 33
1, 256956, Note_off_c, 0, 67, 63
1, 256968, Note_off_c, 0, 75, 63
1, 256990, Note_off_c, 0, 39, 43
1, 257039, Note_on_c, 0, 70, 67
1, 257041, Note_on_c, 0, 77, 63
1, 257064, Note_off_c, 0, 77, 62
1, 257067, Note_off_c, 0, 70, 68
1, 257130, Note_on_c, 0, 46, 60
1, 257131, Note_on_c, 0, 75, 64
1, 257131, Note_on_c, 0, 79, 67
1, 257152, Note_off_c, 0, 75, 68
1, 257159, Note_off_c, 0, 79, 66
1, 257227, Note_on_c, 0, 80, 72
1, 257231, Note_on_c, 0, 77, 66
1, 257253, Note_off_c, 0, 80, 65
1, 257263, Note_off_c, 0, 77, 60
1, 257304, Note_off_c, 0, 46, 37
1, 257330, Note_on_c, 0, 82, 79
1, 257332, Note_on_c, 0, 55, 61
1, 257346, Note_on_c, 0, 84, 60
1, 257364, Note_off_c, 0, 84, 66
1, 257373, Note_off_c, 0, 82, 61
1, 257381, Note_off_c, 0, 55, 65
1, 257504, Note_on_c, 0, 81, 52
1, 257514, Note_on_c, 0, 78, 42
1, 257527, Note_off_c, 0, 81, 39
1, 257539, Note_off_c, 0, 78, 49
1, 257543, Note_on_c, 0, 82, 86
1, 257546, Note_on_c, 0, 79, 79
1, 257555, Note_on_c, 0, 63, 57
1, 257557, Control_c, 0, 64, 63
1, 257566, Note_off_c, 0, 79, 70
1, 257567, Note_off_c, 0, 82, 64
1, 257571, Control_c, 0, 64, 73
1, 257586, Control_c, 0, 64, 85
1, 257600, Note_off_c, 0, 63, 56
1, 257601, Control_c, 0, 64, 92
1, 257616, Control_c, 0, 64, 93
1, 257630, Control_c, 0, 64, 94
1, 257660, Control_c, 0, 64, 94
1, 257749, Control_c, 0, 64, 94
1, 257755, Note_on_c, 0, 56, 60
1, 257763, Control_c, 0, 64, 93
1, 257778, Control_c, 0, 64, 89
1, 257786, Note_off_c, 0, 56, 63
1, 257793, Control_c, 0, 64, 83
1, 257808, Control_c, 0, 64, 76
1, 257824, Control_c, 0, 64, 67
1, 257835, Note_on_c, 0, 72, 74
1, 257836, Note_on_c, 0, 63, 70
1, 257839, Control_c, 0, 64, 32
1, 257853, Control_c, 0, 64, 0
1, 257855, Note_off_c, 0, 63, 67
1, 257859, Note_off_c, 0, 72, 68
1, 257944, Note_on_c, 0, 72, 72
1, 257947, Note_on_c, 0, 68, 68
1, 257964, Note_off_c, 0, 68, 66
1, 257966, Note_off_c, 0, 72, 71
1, 258031, Note_on_c, 0, 84, 83
1, 258034, Note_on_c, 0, 75, 78
1, 258052, Note_off_c, 0, 84, 68
1, 258055, Note_off_c, 0, 75, 72
1, 258133, Note_on_c, 0, 84, 83
1, 258137, Note_on_c, 0, 75, 72
1, 258161, Note_off_c, 0, 75, 70
1, 258227, Note_on_c, 0, 83, 76
1, 258234, Note_off_c, 0, 84, 30
1, 258237, Note_on_c, 0, 79, 72
1, 258249, Note_off_c, 0, 83, 61
1, 258261, Note_off_c, 0, 79, 68
1, 258320, Control_c, 0, 64, 61
1, 258335, Control_c, 0, 64, 71
1, 258344, Note_on_c, 0, 84, 78
1, 258350, Control_c, 0, 64, 83
1, 258351, Note_on_c, 0, 80, 77
1, 258365, Control_c, 0, 64, 90
1, 258366, Note_off_c, 0, 84, 71
1, 258380, Note_off_c, 0, 80, 65
1, 258380, Control_c, 0, 64, 92
1, 258394, Control_c, 0, 64, 92
1, 258439, Control_c, 0, 64, 93
1, 258537, Note_on_c, 0, 55, 66
1, 258557, Control_c, 0, 67, 123
1, 258558, Note_off_c, 0, 55, 66
1, 258571, Control_c, 0, 64, 92
1, 258571, Control_c, 0, 67, 117
1, 258586, Control_c, 0, 64, 90
1, 258586, Control_c, 0, 67, 114
1, 258601, Control_c, 0, 64, 86
1, 258601, Control_c, 0, 67, 112
1, 258617, Control_c, 0, 64, 81
1, 258617, Control_c, 0, 67, 112
1, 258627, Note_on_c, 0, 70, 74
1, 258631, Note_on_c, 0, 63, 61
1, 258632, Control_c, 0, 64, 72
1, 258632, Control_c, 0, 67, 111
1, 258647, Control_c, 0, 64, 59
1, 258647, Control_c, 0, 67, 110
1, 258649, Note_off_c, 0, 63, 62
1, 258650, Note_off_c, 0, 70, 70
1, 258661, Control_c, 0, 64, 0
1, 258676, Control_c, 0, 67, 111
1, 258691, Control_c, 0, 67, 111
1, 258706, Control_c, 0, 67, 112
1, 258721, Note_on_c, 0, 70, 87
1, 258749, Note_off_c, 0, 70, 60
1, 258750, Control_c, 0, 67, 113
1, 258765, Control_c, 0, 67, 113
1, 258796, Control_c, 0, 67, 114
1, 258811, Note_on_c, 0, 82, 80
1, 258820, Note_on_c, 0, 75, 69
1, 258825, Control_c, 0, 67, 114
1, 258832, Note_off_c, 0, 82, 68
1, 258844, Note_off_c, 0, 75, 67
1, 258863, Control_c, 0, 67, 115
1, 258877, Control_c, 0, 67, 115
1, 258892, Control_c, 0, 67, 116
1, 258907, Note_on_c, 0, 82, 83
1, 258907, Control_c, 0, 67, 116
1, 258911, Note_on_c, 0, 75, 68
1, 258922, Control_c, 0, 67, 117
1, 258928, Note_off_c, 0, 75, 67
1, 258931, Note_off_c, 0, 82, 62
1, 258937, Control_c, 0, 67, 117
1, 258966, Control_c, 0, 67, 118
1, 258981, Control_c, 0, 67, 118
1, 259006, Note_on_c, 0, 78, 70
1, 259006, Note_on_c, 0, 81, 77
1, 259021, Note_off_c, 0, 81, 68
1, 259030, Note_off_c, 0, 78, 68
1, 259069, Control_c, 0, 67, 117
1, 259084, Control_c, 0, 67, 117
1, 259099, Control_c, 0, 64, 56
1, 259099, Control_c, 0, 67, 116
1, 259114, Control_c, 0, 64, 67
1, 259114, Control_c, 0, 67, 115
1, 259116, Note_on_c, 0, 82, 80
1, 259119, Note_on_c, 0, 79, 67
1, 259129, Control_c, 0, 64, 74
1, 259129, Control_c, 0, 67, 114
1, 259138, Note_off_c, 0, 79, 63
1, 259140, Note_off_c, 0, 82, 65
1, 259143, Control_c, 0, 64, 80
1, 259143, Control_c, 0, 67, 114
1, 259158, Control_c, 0, 64, 84
1, 259158, Control_c, 0, 67, 113
1, 259173, Control_c, 0, 64, 86
1, 259173, Control_c, 0, 67, 112
1, 259188, Control_c, 0, 64, 86
1, 259188, Control_c, 0, 67, 111
1, 259203, Control_c, 0, 64, 87
1, 259203, Control_c, 0, 67, 110
1, 259218, Control_c, 0, 64, 88
1, 259218, Control_c, 0, 67, 109
1, 259233, Control_c, 0, 64, 88
1, 259233, Control_c, 0, 67, 109
1, 259248, Control_c, 0, 67, 105
1, 259262, Control_c, 0, 67, 98
1, 259277, Control_c, 0, 67, 92
1, 259292, Control_c, 0, 67, 85
1, 259307, Control_c, 0, 67, 80
1, 259313, Note_on_c, 0, 53, 64
1, 259322, Control_c, 0, 67, 76
1, 259335, Note_off_c, 0, 53, 67
1, 259337, Control_c, 0, 64, 87
1, 259337, Control_c, 0, 67, 73
1, 259351, Control_c, 0, 64, 83
1, 259351, Control_c, 0, 67, 71
1, 259366, Control_c, 0, 64, 78
1, 259366, Control_c, 0, 67, 69
1, 259381, Control_c, 0, 64, 69
1, 259381, Control_c, 0, 67, 68
1, 259395, Control_c, 0, 64, 34
1, 259395, Control_c, 0, 67, 67
1, 259404, Note_on_c, 0, 68, 72
1, 259406, Note_on_c, 0, 62, 57
1, 259412, Control_c, 0, 64, 0
1, 259431, Note_off_c, 0, 62, 37
1, 259443, Note_off_c, 0, 68, 65
1, 259471, Control_c, 0, 67, 68
1, 259482, Note_on_c, 0, 68, 76
1, 259500, Control_c, 0, 67, 68
1, 259515, Note_on_c, 0, 65, 26
1, 259515, Control_c, 0, 67, 69
1, 259520, Note_off_c, 0, 68, 66
1, 259530, Control_c, 0, 67, 69
1, 259545, Control_c, 0, 67, 70
1, 259549, Note_off_c, 0, 65, 32
1, 259559, Control_c, 0, 67, 71
1, 259574, Control_c, 0, 67, 72
1, 259594, Note_on_c, 0, 80, 80
1, 259596, Control_c, 0, 67, 72
1, 259600, Note_on_c, 0, 74, 63
1, 259611, Control_c, 0, 67, 73
1, 259616, Note_off_c, 0, 80, 69
1, 259620, Note_off_c, 0, 74, 68
1, 259626, Control_c, 0, 67, 73
1, 259641, Control_c, 0, 67, 74
1, 259656, Control_c, 0, 67, 75
1, 259671, Control_c, 0, 67, 76
1, 259677, Note_on_c, 0, 80, 82
1, 259683, Note_on_c, 0, 74, 70
1, 259686, Control_c, 0, 67, 76
1, 259700, Control_c, 0, 67, 77
1, 259705, Note_off_c, 0, 74, 69
1, 259715, Control_c, 0, 67, 78
1, 259730, Control_c, 0, 67, 79
1, 259745, Control_c, 0, 67, 80
1, 259757, Note_on_c, 0, 79, 76
1, 259760, Control_c, 0, 67, 81
1, 259766, Note_on_c, 0, 76, 68
1, 259774, Control_c, 0, 67, 83
1, 259789, Note_off_c, 0, 79, 62
1, 259789, Note_off_c, 0, 80, 56
1, 259789, Control_c, 0, 67, 85
1, 259799, Note_off_c, 0, 76, 65
1, 259804, Control_c, 0, 67, 89
1, 259818, Control_c, 0, 67, 93
1, 259833, Control_c, 0, 67, 97
1, 259848, Control_c, 0, 64, 64
1, 259848, Control_c, 0, 67, 101
1, 259863, Control_c, 0, 64, 72
1, 259863, Control_c, 0, 67, 105
1, 259871, Note_on_c, 0, 77, 72
1, 259874, Note_on_c, 0, 80, 80
1, 259878, Control_c, 0, 64, 82
1, 259878, Control_c, 0, 67, 110
1, 259888, Note_off_c, 0, 77, 61
1, 259892, Control_c, 0, 64, 86
1, 259892, Control_c, 0, 67, 115
1, 259900, Note_off_c, 0, 80, 65
1, 259907, Control_c, 0, 64, 87
1, 259907, Control_c, 0, 67, 118
1, 259922, Control_c, 0, 67, 120
1, 259937, Control_c, 0, 67, 121
1, 259952, Control_c, 0, 64, 88
1, 260055, Control_c, 0, 67, 120
1, 260070, Control_c, 0, 64, 87
1, 260070, Control_c, 0, 67, 120
1, 260073, Note_on_c, 0, 51, 58
1, 260085, Control_c, 0, 64, 85
1, 260100, Control_c, 0, 64, 81
1, 260100, Control_c, 0, 67, 119
1, 260112, Note_off_c, 0, 51, 63
1, 260115, Control_c, 0, 64, 75
1, 260130, Control_c, 0, 64, 67
1, 260145, Control_c, 0, 64, 46
1, 260145, Control_c, 0, 67, 119
1, 260160, Control_c, 0, 64, 0
1, 260168, Note_on_c, 0, 67, 70
1, 260174, Control_c, 0, 67, 118
1, 260178, Note_on_c, 0, 63, 51
1, 260189, Control_c, 0, 67, 118
1, 260195, Note_off_c, 0, 67, 66
1, 260201, Note_off_c, 0, 63, 60
1, 260204, Control_c, 0, 67, 117
1, 260219, Control_c, 0, 67, 117
1, 260234, Control_c, 0, 67, 116
1, 260264, Control_c, 0, 67, 116
1, 260279, Control_c, 0, 67, 115
1, 260284, Note_on_c, 0, 63, 55
1, 260291, Note_on_c, 0, 67, 50
1, 260294, Control_c, 0, 67, 114
1, 260305, Note_off_c, 0, 63, 61
1, 260313, Note_off_c, 0, 67, 57
1, 260360, Control_c, 0, 67, 114
1, 260372, Note_on_c, 0, 75, 58
1, 260374, Note_on_c, 0, 79, 59
1, 260375, Control_c, 0, 67, 113
1, 260391, Note_off_c, 0, 75, 62
1, 260395, Note_off_c, 0, 79, 59
1, 260467, Note_on_c, 0, 79, 71
1, 260494, Control_c, 0, 67, 113
1, 260508, Note_on_c, 0, 75, 5
1, 260519, Note_off_c, 0, 79, 56
1, 260523, Control_c, 0, 67, 112
1, 260553, Control_c, 0, 67, 112
1, 260568, Note_off_c, 0, 75, 25
1, 260577, Note_on_c, 0, 78, 67
1, 260592, Note_on_c, 0, 74, 46
1, 260610, Note_off_c, 0, 78, 61
1, 260612, Control_c, 0, 67, 111
1, 260620, Note_off_c, 0, 74, 58
1, 260641, Control_c, 0, 67, 111
1, 260671, Control_c, 0, 67, 110
1, 260686, Control_c, 0, 64, 50
1, 260686, Control_c, 0, 67, 110
1, 260701, Control_c, 0, 64, 64
1, 260701, Control_c, 0, 67, 109
1, 260715, Note_on_c, 0, 79, 63
1, 260715, Control_c, 0, 64, 69
1, 260715, Control_c, 0, 67, 109
1, 260720, Note_on_c, 0, 75, 53
1, 260730, Control_c, 0, 64, 76
1, 260730, Control_c, 0, 67, 108
1, 260740, Note_off_c, 0, 79, 60
1, 260745, Control_c, 0, 64, 83
1, 260745, Control_c, 0, 67, 107
1, 260749, Note_off_c, 0, 75, 59
1, 260760, Control_c, 0, 64, 86
1, 260760, Control_c, 0, 67, 104
1, 260775, Control_c, 0, 64, 88
1, 260775, Control_c, 0, 67, 100
1, 260789, Control_c, 0, 64, 89
1, 260789, Control_c, 0, 67, 96
1, 260804, Control_c, 0, 64, 89
1, 260804, Control_c, 0, 67, 90
1, 260819, Control_c, 0, 64, 90
1, 260819, Control_c, 0, 67, 85
1, 260834, Control_c, 0, 67, 79
1, 260848, Control_c, 0, 64, 90
1, 260848, Control_c, 0, 67, 72
1, 260863, Control_c, 0, 67, 64
1, 260878, Control_c, 0, 67, 56
1, 260893, Control_c, 0, 67, 46
1, 260908, Control_c, 0, 67, 35
1, 260923, Control_c, 0, 67, 25
1, 260938, Control_c, 0, 67, 15
1, 260953, Control_c, 0, 67, 0
1, 261042, Control_c, 0, 64, 90
1, 261057, Control_c, 0, 64, 88
1, 261071, Control_c, 0, 64, 86
1, 261079, Note_on_c, 0, 80, 71
1, 261093, Control_c, 0, 64, 83
1, 261094, Note_on_c, 0, 72, 61
1, 261095, Note_on_c, 0, 46, 48
1, 261108, Control_c, 0, 64, 79
1, 261120, Note_off_c, 0, 80, 59
1, 261123, Control_c, 0, 64, 71
1, 261124, Note_off_c, 0, 72, 58
1, 261138, Control_c, 0, 64, 56
1, 261142, Note_off_c, 0, 46, 56
1, 261152, Control_c, 0, 64, 0
1, 261254, Note_on_c, 0, 79, 67
1, 261257, Note_on_c, 0, 70, 61
1, 261275, Note_off_c, 0, 79, 61
1, 261279, Note_off_c, 0, 70, 64
1, 261397, Note_on_c, 0, 68, 55
1, 261400, Note_on_c, 0, 62, 46
1, 261402, Note_on_c, 0, 77, 48
1, 261420, Note_off_c, 0, 68, 63
1, 261424, Note_off_c, 0, 77, 55
1, 261427, Note_off_c, 0, 62, 56
1, 261498, Note_on_c, 0, 75, 76
1, 261513, Note_on_c, 0, 67, 53
1, 261526, Note_off_c, 0, 75, 64
1, 261536, Note_off_c, 0, 67, 57
1, 261604, Note_on_c, 0, 74, 76
1, 261612, Note_on_c, 0, 65, 62
1, 261614, Note_on_c, 0, 46, 50
1, 261625, Note_off_c, 0, 74, 73
1, 261632, Note_off_c, 0, 65, 64
1, 261657, Note_off_c, 0, 46, 50
1, 261707, Note_on_c, 0, 70, 72
1, 261723, Note_on_c, 0, 62, 51
1, 261732, Note_off_c, 0, 70, 69
1, 261749, Note_off_c, 0, 62, 51
1, 261801, Note_on_c, 0, 72, 70
1, 261803, Note_on_c, 0, 63, 70
1, 261821, Note_on_c, 0, 56, 58
1, 261839, Note_off_c, 0, 63, 67
1, 261839, Note_off_c, 0, 72, 64
1, 261867, Note_off_c, 0, 56, 62
1, 261915, Note_on_c, 0, 74, 67
1, 261920, Note_on_c, 0, 65, 64
1, 261940, Note_off_c, 0, 74, 70
1, 261948, Note_off_c, 0, 65, 67
1, 262013, Note_on_c, 0, 67, 74
1, 262017, Note_on_c, 0, 75, 68
1, 262026, Note_on_c, 0, 39, 52
1, 262037, Note_off_c, 0, 67, 67
1, 262044, Note_off_c, 0, 75, 69
1, 262091, Note_off_c, 0, 39, 56
1, 262102, Note_on_c, 0, 70, 83
1, 262103, Note_on_c, 0, 77, 74
1, 262139, Note_off_c, 0, 70, 61
1, 262182, Note_on_c, 0, 79, 80
1, 262191, Note_on_c, 0, 46, 65
1, 262191, Note_on_c, 0, 75, 77
1, 262208, Note_off_c, 0, 77, 28
1, 262214, Note_off_c, 0, 75, 71
1, 262218, Note_off_c, 0, 79, 65
1, 262277, Note_on_c, 0, 77, 77
1, 262279, Note_on_c, 0, 80, 78
1, 262298, Note_off_c, 0, 77, 67
1, 262300, Note_off_c, 0, 80, 70
1, 262321, Note_off_c, 0, 46, 36
1, 262361, Note_on_c, 0, 55, 58
1, 262363, Note_on_c, 0, 84, 64
1, 262364, Note_on_c, 0, 82, 80
1, 262369, Note_on_c, 0, 79, 75
1, 262392, Note_off_c, 0, 79, 69
1, 262392, Note_off_c, 0, 84, 68
1, 262401, Note_off_c, 0, 55, 65
1, 262404, Note_off_c, 0, 82, 63
1, 262461, Note_on_c, 0, 78, 77
1, 262463, Note_on_c, 0, 81, 76
1, 262483, Note_off_c, 0, 81, 69
1, 262484, Note_off_c, 0, 78, 69
1, 262524, Control_c, 0, 64, 64
1, 262539, Control_c, 0, 64, 73
1, 262553, Note_on_c, 0, 79, 81
1, 262553, Note_on_c, 0, 82, 78
1, 262554, Control_c, 0, 64, 84
1, 262555, Note_on_c, 0, 63, 72
1, 262568, Control_c, 0, 64, 89
1, 262580, Note_off_c, 0, 79, 64
1, 262591, Control_c, 0, 64, 90
1, 262595, Note_off_c, 0, 63, 63
1, 262600, Note_off_c, 0, 82, 56
1, 262606, Control_c, 0, 64, 92
1, 262622, Control_c, 0, 64, 93
1, 262637, Control_c, 0, 64, 93
1, 262651, Control_c, 0, 64, 94
1, 262711, Control_c, 0, 64, 93
1, 262725, Control_c, 0, 64, 91
1, 262740, Control_c, 0, 64, 85
1, 262755, Control_c, 0, 64, 75
1, 262765, Note_on_c, 0, 69, 53
1, 262770, Control_c, 0, 64, 63
1, 262785, Control_c, 0, 64, 0
1, 262786, Note_off_c, 0, 69, 55
1, 262839, Note_on_c, 0, 84, 78
1, 262840, Note_on_c, 0, 75, 61
1, 262857, Note_off_c, 0, 75, 65
1, 262861, Note_off_c, 0, 84, 70
1, 262947, Note_on_c, 0, 84, 72
1, 262948, Note_on_c, 0, 80, 64
1, 262968, Note_off_c, 0, 80, 41
1, 262972, Note_off_c, 0, 84, 73
1, 263009, Note_on_c, 0, 96, 87
1, 263013, Note_on_c, 0, 87, 77
1, 263034, Note_off_c, 0, 87, 69
1, 263048, Note_off_c, 0, 96, 63
1, 263102, Note_on_c, 0, 96, 75
1, 263107, Note_on_c, 0, 87, 79
1, 263126, Note_off_c, 0, 87, 70
1, 263163, Note_off_c, 0, 96, 51
1, 263189, Note_on_c, 0, 95, 84
1, 263196, Note_on_c, 0, 91, 69
1, 263224, Note_off_c, 0, 95, 65
1, 263231, Note_off_c, 0, 91, 61
1, 263243, Control_c, 0, 64, 41
1, 263258, Control_c, 0, 64, 63
1, 263273, Control_c, 0, 64, 70
1, 263287, Note_on_c, 0, 96, 82
1, 263288, Control_c, 0, 64, 80
1, 263292, Note_on_c, 0, 92, 80
1, 263302, Control_c, 0, 64, 92
1, 263312, Note_off_c, 0, 96, 64
1, 263317, Control_c, 0, 64, 99
1, 263340, Note_off_c, 0, 92, 63
1, 263340, Control_c, 0, 64, 100
1, 263477, Note_on_c, 0, 67, 72
1, 263502, Note_off_c, 0, 67, 68
1, 263504, Control_c, 0, 64, 99
1, 263519, Control_c, 0, 64, 98
1, 263534, Control_c, 0, 64, 95
1, 263548, Control_c, 0, 64, 90
1, 263563, Control_c, 0, 64, 82
1, 263573, Note_on_c, 0, 75, 61
1, 263573, Note_on_c, 0, 82, 77
1, 263578, Control_c, 0, 64, 73
1, 263591, Note_off_c, 0, 75, 63
1, 263593, Control_c, 0, 64, 57
1, 263597, Note_off_c, 0, 82, 68
1, 263608, Control_c, 0, 64, 0
1, 263664, Note_on_c, 0, 82, 88
1, 263697, Note_off_c, 0, 82, 63
1, 263701, Note_on_c, 0, 79, 23
1, 263734, Note_off_c, 0, 79, 32
1, 263746, Note_on_c, 0, 94, 85
1, 263754, Note_on_c, 0, 87, 70
1, 263767, Note_off_c, 0, 94, 70
1, 263770, Note_off_c, 0, 87, 66
1, 263832, Note_on_c, 0, 94, 84
1, 263835, Note_on_c, 0, 87, 75
1, 263855, Note_off_c, 0, 87, 70
1, 263865, Note_off_c, 0, 94, 62
1, 263926, Note_on_c, 0, 93, 86
1, 263928, Note_on_c, 0, 90, 77
1, 263944, Note_off_c, 0, 93, 69
1, 263951, Note_off_c, 0, 90, 67
1, 264007, Control_c, 0, 64, 34
1, 264022, Control_c, 0, 64, 65
1, 264025, Note_on_c, 0, 94, 90
1, 264032, Note_on_c, 0, 91, 77
1, 264037, Control_c, 0, 64, 74
1, 264051, Note_off_c, 0, 94, 63
1, 264052, Control_c, 0, 64, 85
1, 264053, Note_off_c, 0, 91, 66
1, 264066, Control_c, 0, 64, 92
1, 264089, Control_c, 0, 64, 93
1, 264103, Control_c, 0, 64, 94
1, 264133, Control_c, 0, 64, 94
1, 264229, Note_on_c, 0, 65, 66
1, 264256, Note_off_c, 0, 65, 67
1, 264267, Control_c, 0, 64, 93
1, 264282, Control_c, 0, 64, 89
1, 264297, Control_c, 0, 64, 84
1, 264299, Note_on_c, 0, 80, 77
1, 264301, Note_on_c, 0, 74, 57
1, 264312, Control_c, 0, 64, 75
1, 264320, Note_off_c, 0, 74, 64
1, 264327, Control_c, 0, 64, 64
1, 264333, Note_off_c, 0, 80, 65
1, 264342, Control_c, 0, 64, 0
1, 264388, Note_on_c, 0, 80, 81
1, 264425, Note_off_c, 0, 80, 65
1, 264491, Note_on_c, 0, 92, 87
1, 264494, Note_on_c, 0, 86, 71
1, 264510, Note_off_c, 0, 92, 68
1, 264517, Note_off_c, 0, 86, 69
1, 264572, Note_on_c, 0, 86, 77
1, 264573, Note_on_c, 0, 92, 81
1, 264599, Note_off_c, 0, 86, 64
1, 264628, Note_off_c, 0, 92, 60
1, 264656, Note_on_c, 0, 91, 85
1, 264665, Note_on_c, 0, 88, 74
1, 264690, Note_off_c, 0, 91, 63
1, 264703, Note_off_c, 0, 88, 63
1, 264741, Control_c, 0, 64, 64
1, 264750, Note_on_c, 0, 92, 89
1, 264751, Note_on_c, 0, 89, 86
1, 264756, Control_c, 0, 64, 80
1, 264768, Note_off_c, 0, 89, 60
1, 264771, Control_c, 0, 64, 97
1, 264786, Control_c, 0, 64, 110
1, 264789, Note_off_c, 0, 92, 64
1, 264801, Control_c, 0, 64, 111
1, 264941, Control_c, 0, 64, 111
1, 264946, Note_on_c, 0, 63, 56
1, 264956, Control_c, 0, 64, 107
1, 264965, Note_off_c, 0, 63, 63
1, 264971, Control_c, 0, 64, 101
1, 264986, Control_c, 0, 64, 92
1, 265001, Control_c, 0, 64, 81
1, 265016, Control_c, 0, 64, 67
1, 265031, Control_c, 0, 64, 0
1, 265033, Note_on_c, 0, 79, 73
1, 265041, Note_on_c, 0, 75, 61
1, 265054, Note_off_c, 0, 79, 64
1, 265060, Note_off_c, 0, 75, 63
1, 265132, Note_on_c, 0, 79, 58
1, 265139, Note_on_c, 0, 75, 60
1, 265163, Note_off_c, 0, 75, 64
1, 265163, Note_off_c, 0, 79, 56
1, 265230, Note_on_c, 0, 87, 65
1, 265239, Note_on_c, 0, 91, 56
1, 265246, Note_off_c, 0, 87, 63
1, 265258, Note_off_c, 0, 91, 55
1, 265332, Note_on_c, 0, 91, 57
1, 265345, Note_on_c, 0, 87, 38
1, 265367, Note_off_c, 0, 91, 47
1, 265376, Note_off_c, 0, 87, 47
1, 265442, Note_on_c, 0, 90, 67
1, 265460, Note_on_c, 0, 86, 43
1, 265479, Note_off_c, 0, 90, 57
1, 265487, Note_off_c, 0, 86, 58
1, 265586, Control_c, 0, 64, 52
1, 265601, Control_c, 0, 64, 64
1, 265612, Note_on_c, 0, 91, 62
1, 265616, Control_c, 0, 64, 70
1, 265627, Note_on_c, 0, 87, 41
1, 265631, Control_c, 0, 64, 78
1, 265645, Control_c, 0, 64, 85
1, 265648, Note_off_c, 0, 91, 57
1, 265660, Control_c, 0, 64, 89
1, 265663, Note_off_c, 0, 87, 49
1, 265675, Control_c, 0, 64, 91
1, 265690, Control_c, 0, 64, 92
1, 265705, Control_c, 0, 64, 93
1, 265719, Control_c, 0, 64, 95
1, 265734, Control_c, 0, 64, 95
1, 265764, Control_c, 0, 64, 96
1, 265958, Control_c, 0, 64, 95
1, 265972, Control_c, 0, 64, 92
1, 265987, Control_c, 0, 64, 87
1, 265989, Note_on_c, 0, 92, 76
1, 266002, Note_on_c, 0, 84, 60
1, 266002, Control_c, 0, 64, 77
1, 266002, Note_on_c, 0, 58, 46
1, 266017, Control_c, 0, 64, 65
1, 266020, Note_off_c, 0, 92, 58
1, 266029, Note_off_c, 0, 84, 60
1, 266032, Control_c, 0, 64, 0
1, 266035, Note_off_c, 0, 58, 52
1, 266174, Note_on_c, 0, 91, 62
1, 266181, Note_on_c, 0, 82, 55
1, 266191, Note_off_c, 0, 91, 60
1, 266200, Note_off_c, 0, 82, 62
1, 266314, Note_on_c, 0, 74, 54
1, 266314, Note_on_c, 0, 89, 65
1, 266324, Note_on_c, 0, 80, 55
1, 266348, Note_off_c, 0, 89, 68
1, 266353, Note_off_c, 0, 80, 60
1, 266354, Note_off_c, 0, 74, 57
1, 266430, Note_on_c, 0, 87, 75
1, 266456, Note_on_c, 0, 79, 39
1, 266458, Note_off_c, 0, 87, 60
1, 266484, Note_off_c, 0, 79, 35
1, 266545, Note_on_c, 0, 86, 74
1, 266554, Note_on_c, 0, 77, 61
1, 266559, Note_on_c, 0, 58, 56
1, 266566, Note_off_c, 0, 86, 70
1, 266572, Note_off_c, 0, 77, 61
1, 266596, Note_off_c, 0, 58, 53
1, 266659, Note_on_c, 0, 82, 70
1, 266679, Note_on_c, 0, 74, 39
1, 266683, Note_off_c, 0, 82, 67
1, 266706, Note_off_c, 0, 74, 38
1, 266768, Note_on_c, 0, 84, 66
1, 266772, Note_on_c, 0, 75, 58
1, 266792, Note_off_c, 0, 75, 63
1, 266795, Note_off_c, 0, 84, 69
1, 266796, Note_on_c, 0, 68, 51
1, 266819, Note_off_c, 0, 68, 59
1, 266868, Note_on_c, 0, 86, 70
1, 266885, Note_on_c, 0, 77, 49
1, 266904, Note_off_c, 0, 86, 60
1, 266907, Note_off_c, 0, 77, 53
1, 266984, Note_on_c, 0, 87, 69
1, 266986, Note_on_c, 0, 79, 59
1, 266999, Note_on_c, 0, 51, 52
1, 267004, Note_off_c, 0, 79, 63
1, 267008, Note_off_c, 0, 87, 68
1, 267034, Note_off_c, 0, 51, 64
1, 267092, Note_on_c, 0, 89, 69
1, 267106, Note_on_c, 0, 82, 58
1, 267123, Note_off_c, 0, 89, 62
1, 267126, Note_off_c, 0, 82, 66
1, 267186, Note_on_c, 0, 91, 72
1, 267191, Note_on_c, 0, 87, 66
1, 267195, Note_on_c, 0, 58, 59
1, 267217, Note_off_c, 0, 87, 68
1, 267218, Note_off_c, 0, 91, 61
1, 267266, Note_off_c, 0, 58, 51
1, 267291, Note_on_c, 0, 92, 72
1, 267300, Note_on_c, 0, 89, 53
1, 267307, Note_off_c, 0, 92, 67
1, 267321, Note_off_c, 0, 89, 56
1, 267374, Note_on_c, 0, 94, 87
1, 267387, Note_on_c, 0, 67, 44
1, 267390, Note_on_c, 0, 91, 59
1, 267408, Note_off_c, 0, 91, 58
1, 267414, Note_off_c, 0, 67, 57
1, 267419, Note_off_c, 0, 94, 65
1, 267483, Note_on_c, 0, 90, 68
1, 267486, Note_on_c, 0, 93, 71
1, 267508, Note_off_c, 0, 90, 68
1, 267511, Note_off_c, 0, 93, 64
1, 267570, Note_on_c, 0, 92, 85
1, 267573, Note_on_c, 0, 96, 77
1, 267576, Note_on_c, 0, 75, 91
1, 267592, Note_off_c, 0, 92, 67
1, 267599, Note_off_c, 0, 96, 63
1, 267602, Note_off_c, 0, 75, 64
1, 267670, Note_on_c, 0, 91, 73
1, 267681, Note_on_c, 0, 94, 68
1, 267692, Note_off_c, 0, 91, 66
1, 267696, Note_off_c, 0, 94, 62
1, 267765, Note_on_c, 0, 92, 87
1, 267773, Note_on_c, 0, 58, 71
1, 267775, Note_on_c, 0, 84, 74
1, 267784, Note_off_c, 0, 92, 69
1, 267801, Note_off_c, 0, 84, 67
1, 267830, Note_off_c, 0, 58, 54
1, 267877, Note_on_c, 0, 91, 80
1, 267882, Note_on_c, 0, 82, 75
1, 267898, Note_off_c, 0, 91, 64
1, 267904, Note_off_c, 0, 82, 69
1, 267973, Note_on_c, 0, 89, 88
1, 267975, Note_on_c, 0, 74, 56
1, 267979, Note_on_c, 0, 80, 74
1, 268000, Note_off_c, 0, 89, 65
1, 268002, Note_off_c, 0, 74, 52
1, 268010, Note_off_c, 0, 80, 61
1, 268066, Note_on_c, 0, 87, 83
1, 268079, Note_on_c, 0, 79, 72
1, 268089, Note_off_c, 0, 87, 65
1, 268101, Note_off_c, 0, 79, 69
1, 268160, Note_on_c, 0, 86, 85
1, 268162, Note_on_c, 0, 77, 82
1, 268181, Note_on_c, 0, 58, 56
1, 268181, Note_off_c, 0, 86, 69
1, 268185, Note_off_c, 0, 77, 64
1, 268220, Note_off_c, 0, 58, 53
1, 268256, Note_on_c, 0, 82, 84
1, 268277, Note_off_c, 0, 82, 67
1, 268281, Note_on_c, 0, 76, 45
1, 268303, Note_off_c, 0, 76, 51
1, 268351, Note_on_c, 0, 75, 78
1, 268357, Note_on_c, 0, 84, 64
1, 268373, Note_off_c, 0, 75, 70
1, 268381, Note_on_c, 0, 68, 50
1, 268383, Note_on_c, 0, 85, 19
1, 268384, Note_off_c, 0, 84, 69
1, 268389, Note_off_c, 0, 85, 51
1, 268405, Note_off_c, 0, 68, 58
1, 268457, Note_on_c, 0, 86, 72
1, 268461, Note_on_c, 0, 77, 70
1, 268480, Note_off_c, 0, 86, 69
1, 268485, Note_off_c, 0, 77, 64
1, 268547, Note_on_c, 0, 79, 77
1, 268547, Note_on_c, 0, 87, 76
1, 268563, Note_on_c, 0, 51, 57
1, 268578, Note_off_c, 0, 79, 66
1, 268578, Note_off_c, 0, 87, 64
1, 268611, Note_off_c, 0, 51, 62
1, 268649, Note_on_c, 0, 89, 71
1, 268650, Note_on_c, 0, 82, 80
1, 268676, Note_off_c, 0, 89, 65
1, 268679, Note_off_c, 0, 82, 59
1, 268739, Note_on_c, 0, 87, 76
1, 268745, Note_on_c, 0, 91, 71
1, 268745, Note_on_c, 0, 58, 61
1, 268762, Note_off_c, 0, 87, 67
1, 268769, Note_off_c, 0, 91, 65
1, 268827, Note_on_c, 0, 92, 86
1, 268839, Note_on_c, 0, 89, 57
1, 268849, Note_off_c, 0, 92, 66
1, 268856, Note_off_c, 0, 89, 64
1, 268910, Note_off_c, 0, 58, 38
1, 268920, Note_on_c, 0, 94, 82
1, 268923, Note_on_c, 0, 91, 73
1, 268943, Note_on_c, 0, 67, 55
1, 268944, Note_off_c, 0, 91, 67
1, 268951, Note_off_c, 0, 94, 58
1, 268977, Note_off_c, 0, 67, 64
1, 269018, Note_on_c, 0, 93, 76
1, 269022, Note_on_c, 0, 90, 69
1, 269040, Note_off_c, 0, 93, 68
1, 269049, Note_off_c, 0, 90, 67
1, 269105, Note_on_c, 0, 92, 80
1, 269105, Note_on_c, 0, 96, 81
1, 269117, Note_on_c, 0, 75, 87
1, 269126, Note_off_c, 0, 92, 70
1, 269141, Note_off_c, 0, 96, 60
1, 269148, Note_off_c, 0, 75, 64
1, 269210, Note_on_c, 0, 94, 68
1, 269211, Note_on_c, 0, 91, 59
1, 269219, Note_on_c, 0, 92, 49
1, 269226, Note_off_c, 0, 94, 66
1, 269229, Note_off_c, 0, 91, 60
1, 269243, Note_off_c, 0, 92, 52
1, 269298, Note_on_c, 0, 58, 77
1, 269298, Note_on_c, 0, 92, 95
1, 269308, Note_on_c, 0, 84, 79
1, 269317, Note_off_c, 0, 92, 66
1, 269335, Note_off_c, 0, 84, 72
1, 269370, Note_off_c, 0, 58, 62
1, 269403, Note_on_c, 0, 91, 90
1, 269406, Note_on_c, 0, 82, 83
1, 269427, Note_off_c, 0, 82, 71
1, 269433, Note_off_c, 0, 91, 61
1, 269485, Note_on_c, 0, 74, 66
1, 269489, Note_on_c, 0, 65, 48
1, 269493, Note_on_c, 0, 89, 89
1, 269499, Note_on_c, 0, 80, 80
1, 269523, Note_off_c, 0, 80, 67
1, 269526, Note_off_c, 0, 89, 66
1, 269551, Note_off_c, 0, 74, 52
1, 269582, Note_on_c, 0, 87, 86
1, 269606, Note_off_c, 0, 87, 63
1, 269606, Note_off_c, 0, 65, 55
1, 269606, Note_on_c, 0, 79, 55
1, 269627, Note_off_c, 0, 79, 58
1, 269671, Control_c, 0, 64, 26
1, 269677, Note_on_c, 0, 86, 87
1, 269681, Note_on_c, 0, 77, 77
1, 269685, Control_c, 0, 64, 65
1, 269694, Note_off_c, 0, 86, 73
1, 269699, Note_off_c, 0, 77, 67
1, 269700, Control_c, 0, 64, 73
1, 269715, Control_c, 0, 64, 83
1, 269729, Control_c, 0, 64, 88
1, 269819, Control_c, 0, 64, 87
1, 269834, Control_c, 0, 64, 82
1, 269849, Control_c, 0, 64, 71
1, 269864, Control_c, 0, 64, 0
1, 269881, Note_on_c, 0, 82, 78
1, 269884, Note_on_c, 0, 70, 76
1, 269896, Note_on_c, 0, 56, 65
1, 269897, Note_on_c, 0, 68, 65
1, 269906, Note_off_c, 0, 82, 65
1, 269906, Note_off_c, 0, 70, 69
1, 269925, Note_off_c, 0, 56, 64
1, 269928, Note_off_c, 0, 68, 65
1, 269991, Note_on_c, 0, 83, 74
1, 269993, Note_on_c, 0, 71, 66
1, 270009, Note_on_c, 0, 67, 55
1, 270010, Note_off_c, 0, 71, 65
1, 270012, Note_off_c, 0, 83, 68
1, 270013, Note_on_c, 0, 55, 53
1, 270030, Note_off_c, 0, 67, 58
1, 270039, Note_off_c, 0, 55, 36
1, 270101, Note_on_c, 0, 84, 85
1, 270102, Note_on_c, 0, 72, 77
1, 270108, Note_on_c, 0, 54, 82
1, 270108, Control_c, 0, 64, 84
1, 270110, Note_on_c, 0, 66, 70
1, 270120, Note_off_c, 0, 84, 69
1, 270122, Note_off_c, 0, 72, 72
1, 270123, Control_c, 0, 64, 115
1, 270135, Note_off_c, 0, 54, 66
1, 270136, Note_off_c, 0, 66, 70
1, 270138, Control_c, 0, 64, 118
1, 270153, Control_c, 0, 64, 113
1, 270168, Control_c, 0, 64, 100
1, 270182, Control_c, 0, 64, 80
1, 270193, Note_on_c, 0, 85, 85
1, 270194, Note_on_c, 0, 73, 78
1, 270197, Control_c, 0, 64, 28
1, 270206, Note_on_c, 0, 65, 64
1, 270212, Control_c, 0, 64, 0
1, 270214, Note_off_c, 0, 85, 69
1, 270215, Note_on_c, 0, 53, 57
1, 270215, Note_off_c, 0, 73, 69
1, 270224, Note_off_c, 0, 65, 66
1, 270237, Note_off_c, 0, 53, 61
1, 270295, Note_on_c, 0, 74, 73
1, 270296, Note_on_c, 0, 86, 69
1, 270304, Note_on_c, 0, 64, 52
1, 270311, Note_off_c, 0, 86, 67
1, 270317, Note_off_c, 0, 74, 72
1, 270327, Note_off_c, 0, 64, 39
1, 270328, Note_on_c, 0, 52, 29
1, 270329, Note_off_c, 0, 52, 127
1, 270385, Note_on_c, 0, 87, 84
1, 270390, Note_on_c, 0, 75, 73
1, 270394, Note_on_c, 0, 51, 69
1, 270399, Note_on_c, 0, 63, 58
1, 270408, Note_off_c, 0, 87, 66
1, 270414, Note_off_c, 0, 75, 70
1, 270420, Note_off_c, 0, 63, 65
1, 270423, Note_off_c, 0, 51, 66
1, 270478, Note_on_c, 0, 62, 76
1, 270479, Control_c, 0, 64, 77
1, 270483, Note_on_c, 0, 50, 80
1, 270483, Note_on_c, 0, 74, 85
1, 270485, Note_on_c, 0, 86, 89
1, 270494, Control_c, 0, 64, 127
1, 270500, Note_off_c, 0, 62, 67
1, 270501, Note_off_c, 0, 86, 73
1, 270507, Note_off_c, 0, 50, 67
1, 270518, Note_off_c, 0, 74, 61
1, 270538, Control_c, 0, 64, 105
1, 270552, Control_c, 0, 64, 82
1, 270567, Control_c, 0, 64, 28
1, 270572, Note_on_c, 0, 49, 81
1, 270574, Note_on_c, 0, 61, 75
1, 270574, Note_on_c, 0, 87, 85
1, 270580, Note_on_c, 0, 75, 83
1, 270582, Control_c, 0, 64, 0
1, 270599, Note_off_c, 0, 87, 62
1, 270600, Note_off_c, 0, 75, 73
1, 270602, Note_off_c, 0, 61, 66
1, 270602, Note_off_c, 0, 49, 63
1, 270667, Note_on_c, 0, 48, 78
1, 270673, Note_on_c, 0, 76, 82
1, 270674, Note_on_c, 0, 60, 65
1, 270675, Note_on_c, 0, 88, 81
1, 270692, Note_off_c, 0, 48, 67
1, 270694, Note_off_c, 0, 60, 61
1, 270694, Note_off_c, 0, 76, 73
1, 270694, Note_off_c, 0, 88, 71
1, 270767, Note_on_c, 0, 89, 88
1, 270772, Note_on_c, 0, 59, 51
1, 270772, Note_on_c, 0, 77, 79
1, 270776, Note_on_c, 0, 47, 57
1, 270784, Note_off_c, 0, 89, 71
1, 270792, Note_off_c, 0, 77, 70
1, 270796, Note_off_c, 0, 59, 57
1, 270803, Note_off_c, 0, 47, 57
1, 270857, Note_on_c, 0, 46, 97
1, 270858, Note_on_c, 0, 58, 86
1, 270867, Note_on_c, 0, 88, 97
1, 270869, Note_on_c, 0, 76, 92
1, 270872, Control_c, 0, 64, 86
1, 270887, Control_c, 0, 64, 127
1, 270889, Note_off_c, 0, 58, 63
1, 270892, Note_off_c, 0, 76, 67
1, 270895, Note_off_c, 0, 46, 62
1, 270897, Note_off_c, 0, 88, 62
1, 270931, Control_c, 0, 64, 103
1, 270946, Control_c, 0, 64, 86
1, 270953, Note_on_c, 0, 57, 78
1, 270959, Note_on_c, 0, 45, 72
1, 270961, Control_c, 0, 64, 67
1, 270963, Note_on_c, 0, 89, 86
1, 270967, Note_on_c, 0, 77, 85
1, 270975, Control_c, 0, 64, 0
1, 270976, Note_off_c, 0, 57, 68
1, 270979, Note_off_c, 0, 89, 74
1, 270980, Note_off_c, 0, 45, 66
1, 270989, Note_off_c, 0, 77, 64
1, 270994, Note_on_c, 0, 85, 35
1, 271005, Note_off_c, 0, 85, 47
1, 271051, Note_on_c, 0, 56, 82
1, 271052, Note_on_c, 0, 44, 83
1, 271055, Note_on_c, 0, 90, 88
1, 271063, Note_on_c, 0, 78, 81
1, 271076, Note_off_c, 0, 90, 68
1, 271079, Note_off_c, 0, 56, 66
1, 271085, Note_off_c, 0, 78, 69
1, 271090, Note_off_c, 0, 44, 63
1, 271150, Note_on_c, 0, 55, 73
1, 271156, Note_on_c, 0, 43, 67
1, 271158, Note_on_c, 0, 79, 84
1, 271159, Note_on_c, 0, 91, 74
1, 271172, Note_off_c, 0, 91, 65
1, 271174, Note_off_c, 0, 55, 68
1, 271179, Note_off_c, 0, 79, 70
1, 271180, Note_off_c, 0, 43, 59
1, 271242, Note_on_c, 0, 54, 96
1, 271243, Note_on_c, 0, 42, 93
1, 271243, Control_c, 0, 64, 75
1, 271243, Note_on_c, 0, 90, 100
1, 271245, Note_on_c, 0, 78, 98
1, 271257, Control_c, 0, 64, 127
1, 271279, Note_off_c, 0, 78, 61
1, 271282, Note_off_c, 0, 54, 64
1, 271282, Note_off_c, 0, 90, 66
1, 271289, Note_off_c, 0, 42, 63
1, 271317, Control_c, 0, 64, 108
1, 271331, Control_c, 0, 64, 90
1, 271341, Note_on_c, 0, 53, 80
1, 271346, Note_on_c, 0, 41, 83
1, 271346, Control_c, 0, 64, 72
1, 271349, Note_on_c, 0, 79, 85
1, 271350, Note_on_c, 0, 91, 79
1, 271356, Poly_aftertouch_c, 0, 87, 0
1, 271357, Note_on_c, 0, 87, 10
1, 271358, Note_off_c, 0, 87, 127
1, 271361, Control_c, 0, 64, 0
1, 271365, Note_off_c, 0, 53, 70
1, 271366, Note_off_c, 0, 79, 65
1, 271371, Note_off_c, 0, 91, 63
1, 271371, Note_off_c, 0, 41, 68
1, 271439, Note_on_c, 0, 52, 82
1, 271439, Note_on_c, 0, 92, 97
1, 271442, Note_on_c, 0, 80, 87
1, 271442, Note_on_c, 0, 40, 75
1, 271462, Note_off_c, 0, 80, 69
1, 271462, Note_off_c, 0, 92, 63
1, 271462, Note_off_c, 0, 52, 71
1, 271472, Note_off_c, 0, 40, 65
1, 271533, Note_on_c, 0, 39, 82
1, 271533, Note_on_c, 0, 51, 81
1, 271537, Note_on_c, 0, 93, 96
1, 271544, Note_on_c, 0, 81, 85
1, 271561, Note_off_c, 0, 51, 66
1, 271565, Note_off_c, 0, 81, 68
1, 271565, Note_off_c, 0, 39, 67
1, 271580, Note_off_c, 0, 93, 63
1, 271635, Control_c, 0, 64, 83
1, 271637, Note_on_c, 0, 50, 91
1, 271638, Note_on_c, 0, 92, 102
1, 271639, Note_on_c, 0, 38, 88
1, 271644, Note_on_c, 0, 80, 96
1, 271650, Control_c, 0, 64, 127
1, 271660, Note_off_c, 0, 50, 69
1, 271667, Note_off_c, 0, 38, 63
1, 271672, Note_off_c, 0, 80, 62
1, 271678, Note_off_c, 0, 92, 67
1, 271694, Control_c, 0, 64, 127
1, 271709, Control_c, 0, 64, 100
1, 271724, Control_c, 0, 64, 82
1, 271738, Note_on_c, 0, 37, 82
1, 271739, Note_on_c, 0, 49, 82
1, 271739, Control_c, 0, 64, 51
1, 271740, Note_on_c, 0, 93, 98
1, 271744, Note_on_c, 0, 81, 89
1, 271753, Control_c, 0, 64, 0
1, 271763, Note_off_c, 0, 49, 68
1, 271764, Note_off_c, 0, 81, 68
1, 271769, Note_off_c, 0, 93, 62
1, 271771, Note_off_c, 0, 37, 66
1, 271829, Note_on_c, 0, 94, 101
1, 271833, Note_on_c, 0, 48, 78
1, 271834, Note_on_c, 0, 36, 78
1, 271836, Note_on_c, 0, 82, 89
1, 271856, Note_off_c, 0, 48, 68
1, 271856, Note_off_c, 0, 82, 70
1, 271860, Note_off_c, 0, 36, 66
1, 271868, Note_off_c, 0, 94, 66
1, 271936, Note_on_c, 0, 93, 81
1, 271937, Note_on_c, 0, 47, 76
1, 271938, Note_on_c, 0, 95, 89
1, 271944, Note_on_c, 0, 35, 65
1, 271954, Note_off_c, 0, 95, 74
1, 271955, Note_on_c, 0, 83, 49
1, 271956, Note_off_c, 0, 93, 69
1, 271958, Note_on_c, 0, 81, 53
1, 271961, Note_off_c, 0, 47, 67
1, 271969, Note_off_c, 0, 35, 58
1, 271976, Note_off_c, 0, 83, 39
1, 271980, Note_off_c, 0, 81, 39
1, 272024, Note_on_c, 0, 94, 105
1, 272028, Note_on_c, 0, 82, 98
1, 272029, Note_on_c, 0, 34, 101
1, 272031, Note_on_c, 0, 46, 96
1, 272061, Note_off_c, 0, 82, 63
1, 272067, Note_off_c, 0, 94, 66
1, 272069, Note_off_c, 0, 46, 57
1, 272085, Note_off_c, 0, 34, 63
1, 272131, Note_on_c, 0, 95, 95
1, 272137, Note_on_c, 0, 83, 80
1, 272156, Note_off_c, 0, 83, 69
1, 272160, Note_off_c, 0, 95, 64
1, 272230, Note_on_c, 0, 96, 98
1, 272232, Note_on_c, 0, 84, 93
1, 272234, Note_on_c, 0, 45, 72
1, 272235, Note_on_c, 0, 33, 72
1, 272259, Note_off_c, 0, 84, 65
1, 272261, Note_off_c, 0, 96, 68
1, 272272, Note_off_c, 0, 33, 66
1, 272279, Note_off_c, 0, 45, 64
1, 272341, Note_on_c, 0, 85, 86
1, 272342, Note_on_c, 0, 97, 96
1, 272369, Note_off_c, 0, 85, 67
1, 272374, Note_off_c, 0, 97, 62
1, 272443, Note_on_c, 0, 94, 102
1, 272444, Note_on_c, 0, 86, 106
1, 272444, Note_on_c, 0, 98, 102
1, 272448, Note_on_c, 0, 32, 91
1, 272449, Note_on_c, 0, 44, 93
1, 272459, Control_c, 0, 64, 87
1, 272459, Note_off_c, 0, 86, 72
1, 272459, Note_off_c, 0, 98, 74
1, 272474, Control_c, 0, 64, 127
1, 272477, Note_off_c, 0, 32, 65
1, 272480, Note_off_c, 0, 94, 67
1, 272497, Note_off_c, 0, 44, 62
1, 272707, Note_on_c, 0, 65, 87
1, 272712, Note_on_c, 0, 60, 79
1, 272712, Note_on_c, 0, 98, 105
1, 272712, Note_on_c, 0, 53, 79
1, 272713, Note_on_c, 0, 86, 107
1, 272715, Note_on_c, 0, 94, 96
1, 272726, Note_off_c, 0, 65, 74
1, 272742, Note_off_c, 0, 60, 63
1, 272748, Note_off_c, 0, 53, 63
1, 272849, Note_off_c, 0, 98, 62
1, 272852, Note_off_c, 0, 86, 61
1, 272858, Control_c, 0, 64, 113
1, 272864, Note_off_c, 0, 94, 64
1, 272873, Control_c, 0, 64, 92
1, 272888, Control_c, 0, 64, 73
1, 272903, Control_c, 0, 64, 61
1, 272918, Control_c, 0, 64, 63
1, 272920, Note_on_c, 0, 46, 93
1, 272924, Note_on_c, 0, 34, 89
1, 272929, Note_on_c, 0, 84, 103
1, 272929, Note_on_c, 0, 96, 102
1, 272930, Note_on_c, 0, 92, 99
1, 272933, Control_c, 0, 64, 70
1, 272946, Note_off_c, 0, 34, 67
1, 272947, Control_c, 0, 64, 80
1, 272950, Note_off_c, 0, 46, 62
1, 272962, Control_c, 0, 64, 90
1, 272965, Note_off_c, 0, 84, 64
1, 272975, Note_off_c, 0, 96, 61
1, 272977, Control_c, 0, 64, 96
1, 272993, Control_c, 0, 64, 98
1, 272993, Note_off_c, 0, 92, 65
1, 273140, Note_on_c, 0, 96, 104
1, 273142, Note_on_c, 0, 84, 108
1, 273144, Note_on_c, 0, 92, 96
1, 273145, Note_on_c, 0, 62, 80
1, 273145, Note_on_c, 0, 65, 84
1, 273148, Note_on_c, 0, 53, 84
1, 273167, Note_off_c, 0, 65, 72
1, 273169, Note_off_c, 0, 62, 67
1, 273181, Note_on_c, 0, 95, 30
1, 273183, Note_off_c, 0, 53, 59
1, 273192, Control_c, 0, 64, 98
1, 273207, Control_c, 0, 64, 99
1, 273220, Note_off_c, 0, 95, 31
1, 273222, Control_c, 0, 64, 100
1, 273234, Note_off_c, 0, 96, 59
1, 273237, Control_c, 0, 64, 101
1, 273243, Note_off_c, 0, 84, 59
1, 273255, Note_off_c, 0, 92, 62
1, 273282, Control_c, 0, 64, 97
1, 273297, Control_c, 0, 64, 84
1, 273311, Control_c, 0, 64, 65
1, 273326, Control_c, 0, 64, 0
1, 273340, Note_on_c, 0, 91, 94
1, 273341, Note_on_c, 0, 79, 106
1, 273345, Note_on_c, 0, 87, 89
1, 273348, Note_on_c, 0, 39, 85
1, 273349, Note_on_c, 0, 51, 83
1, 273358, Note_on_c, 0, 89, 64
1, 273370, Control_c, 0, 64, 49
1, 273377, Note_off_c, 0, 39, 64
1, 273377, Note_off_c, 0, 89, 44
1, 273385, Control_c, 0, 64, 68
1, 273387, Note_off_c, 0, 51, 61
1, 273400, Control_c, 0, 64, 76
1, 273415, Control_c, 0, 64, 83
1, 273422, Note_off_c, 0, 79, 58
1, 273430, Control_c, 0, 64, 85
1, 273437, Note_off_c, 0, 91, 54
1, 273459, Control_c, 0, 64, 86
1, 273468, Note_off_c, 0, 87, 63
1, 273489, Control_c, 0, 64, 86
1, 273504, Control_c, 0, 64, 87
1, 273518, Control_c, 0, 64, 89
1, 273532, Note_on_c, 0, 82, 100
1, 273532, Note_on_c, 0, 94, 95
1, 273533, Control_c, 0, 64, 91
1, 273534, Note_on_c, 0, 67, 83
1, 273535, Note_on_c, 0, 55, 84
1, 273538, Note_on_c, 0, 91, 88
1, 273538, Note_on_c, 0, 63, 78
1, 273548, Control_c, 0, 64, 93
1, 273556, Note_off_c, 0, 67, 70
1, 273562, Note_off_c, 0, 63, 70
1, 273562, Control_c, 0, 64, 98
1, 273577, Note_off_c, 0, 82, 61
1, 273577, Control_c, 0, 64, 104
1, 273582, Note_off_c, 0, 94, 64
1, 273586, Note_off_c, 0, 55, 60
1, 273592, Note_off_c, 0, 91, 58
1, 273592, Control_c, 0, 64, 111
1, 273607, Control_c, 0, 64, 115
1, 273622, Control_c, 0, 64, 116
1, 273651, Control_c, 0, 64, 114
1, 273666, Control_c, 0, 64, 104
1, 273681, Control_c, 0, 64, 91
1, 273696, Control_c, 0, 64, 79
1, 273711, Control_c, 0, 64, 69
1, 273723, Note_on_c, 0, 82, 91
1, 273726, Note_on_c, 0, 94, 89
1, 273726, Control_c, 0, 64, 66
1, 273735, Note_on_c, 0, 51, 87
1, 273735, Note_on_c, 0, 91, 67
1, 273738, Note_on_c, 0, 39, 79
1, 273741, Control_c, 0, 64, 69
1, 273743, Note_off_c, 0, 94, 71
1, 273751, Note_off_c, 0, 91, 61
1, 273753, Note_off_c, 0, 82, 62
1, 273756, Control_c, 0, 64, 76
1, 273760, Note_off_c, 0, 51, 65
1, 273763, Note_off_c, 0, 39, 67
1, 273770, Control_c, 0, 64, 83
1, 273785, Control_c, 0, 64, 86
1, 273800, Control_c, 0, 64, 88
1, 273823, Control_c, 0, 64, 89
1, 273824, Note_on_c, 0, 90, 92
1, 273828, Note_on_c, 0, 81, 90
1, 273838, Control_c, 0, 64, 90
1, 273849, Note_on_c, 0, 91, 45
1, 273853, Control_c, 0, 64, 90
1, 273857, Note_off_c, 0, 81, 63
1, 273865, Note_off_c, 0, 90, 62
1, 273868, Control_c, 0, 64, 92
1, 273872, Note_off_c, 0, 91, 47
1, 273882, Control_c, 0, 64, 93
1, 273897, Control_c, 0, 64, 94
1, 273906, Note_on_c, 0, 67, 81
1, 273911, Note_on_c, 0, 94, 91
1, 273912, Note_on_c, 0, 55, 77
1, 273912, Note_on_c, 0, 82, 93
1, 273912, Control_c, 0, 64, 94
1, 273915, Note_on_c, 0, 63, 67
1, 273917, Note_on_c, 0, 91, 86
1, 273926, Note_off_c, 0, 67, 67
1, 273927, Control_c, 0, 64, 95
1, 273936, Note_off_c, 0, 91, 65
1, 273937, Note_off_c, 0, 94, 59
1, 273941, Note_off_c, 0, 63, 66
1, 273942, Control_c, 0, 64, 96
1, 273943, Note_off_c, 0, 82, 59
1, 273956, Control_c, 0, 64, 99
1, 273961, Note_off_c, 0, 55, 64
1, 273971, Control_c, 0, 64, 103
1, 273986, Control_c, 0, 64, 109
1, 274000, Control_c, 0, 64, 113
1, 274015, Control_c, 0, 64, 114
1, 274030, Control_c, 0, 64, 113
1, 274045, Control_c, 0, 64, 105
1, 274060, Control_c, 0, 64, 91
1, 274075, Control_c, 0, 64, 72
1, 274089, Control_c, 0, 64, 0
1, 274128, Note_on_c, 0, 77, 83
1, 274130, Note_on_c, 0, 41, 63
1, 274130, Note_on_c, 0, 53, 73
1, 274130, Note_on_c, 0, 89, 85
1, 274146, Note_off_c, 0, 77, 70
1, 274147, Note_off_c, 0, 89, 73
1, 274149, Control_c, 0, 64, 60
1, 274156, Note_off_c, 0, 41, 60
1, 274159, Note_off_c, 0, 53, 68
1, 274164, Control_c, 0, 64, 69
1, 274179, Control_c, 0, 64, 75
1, 274193, Control_c, 0, 64, 80
1, 274208, Control_c, 0, 64, 82
1, 274221, Note_on_c, 0, 91, 91
1, 274222, Note_on_c, 0, 79, 91
1, 274223, Control_c, 0, 64, 84
1, 274238, Control_c, 0, 64, 86
1, 274239, Note_off_c, 0, 91, 66
1, 274240, Note_off_c, 0, 79, 71
1, 274253, Control_c, 0, 64, 89
1, 274259, Note_on_c, 0, 90, 20
1, 274260, Note_off_c, 0, 90, 127
1, 274267, Control_c, 0, 64, 92
1, 274282, Control_c, 0, 64, 94
1, 274297, Control_c, 0, 64, 95
1, 274304, Note_on_c, 0, 60, 74
1, 274307, Note_on_c, 0, 56, 76
1, 274311, Poly_aftertouch_c, 0, 90, 0
1, 274312, Control_c, 0, 64, 95
1, 274313, Note_on_c, 0, 80, 89
1, 274313, Note_on_c, 0, 92, 89
1, 274318, Note_on_c, 0, 90, 46
1, 274319, Note_off_c, 0, 90, 127
1, 274327, Control_c, 0, 64, 96
1, 274328, Note_off_c, 0, 60, 68
1, 274331, Note_off_c, 0, 80, 72
1, 274331, Note_off_c, 0, 92, 70
1, 274341, Control_c, 0, 64, 96
1, 274354, Note_off_c, 0, 56, 62
1, 274400, Control_c, 0, 64, 97
1, 274410, Note_on_c, 0, 96, 92
1, 274413, Note_on_c, 0, 84, 91
1, 274415, Control_c, 0, 64, 98
1, 274426, Note_off_c, 0, 96, 70
1, 274430, Control_c, 0, 64, 99
1, 274441, Note_off_c, 0, 84, 63
1, 274460, Control_c, 0, 64, 98
1, 274474, Control_c, 0, 64, 89
1, 274489, Control_c, 0, 64, 73
1, 274496, Note_on_c, 0, 34, 75
1, 274499, Note_on_c, 0, 46, 81
1, 274501, Note_on_c, 0, 94, 96
1, 274504, Note_on_c, 0, 82, 92
1, 274504, Control_c, 0, 64, 0
1, 274522, Note_off_c, 0, 94, 63
1, 274527, Note_off_c, 0, 46, 64
1, 274528, Note_off_c, 0, 34, 65
1, 274534, Note_off_c, 0, 82, 64
1, 274534, Control_c, 0, 64, 27
1, 274549, Control_c, 0, 64, 63
1, 274571, Control_c, 0, 64, 72
1, 274586, Control_c, 0, 64, 80
1, 274602, Control_c, 0, 64, 87
1, 274611, Note_on_c, 0, 92, 90
1, 274614, Note_on_c, 0, 80, 90
1, 274617, Control_c, 0, 64, 88
1, 274632, Note_off_c, 0, 92, 65
1, 274640, Note_off_c, 0, 80, 61
1, 274676, Control_c, 0, 64, 88
1, 274691, Control_c, 0, 64, 89
1, 274698, Note_on_c, 0, 91, 97
1, 274701, Note_on_c, 0, 62, 51
1, 274701, Note_on_c, 0, 79, 93
1, 274705, Control_c, 0, 64, 91
1, 274720, Control_c, 0, 64, 93
1, 274721, Note_off_c, 0, 79, 68
1, 274724, Note_off_c, 0, 91, 58
1, 274726, Note_off_c, 0, 62, 56
1, 274735, Control_c, 0, 64, 94
1, 274764, Control_c, 0, 64, 93
1, 274779, Control_c, 0, 64, 88
1, 274784, Poly_aftertouch_c, 0, 58, 0
1, 274787, Note_on_c, 0, 89, 92
1, 274787, Note_on_c, 0, 77, 99
1, 274794, Control_c, 0, 64, 76
1, 274809, Control_c, 0, 64, 44
1, 274812, Note_off_c, 0, 77, 66
1, 274814, Note_on_c, 0, 88, 50
1, 274817, Note_off_c, 0, 89, 65
1, 274823, Control_c, 0, 64, 0
1, 274836, Note_off_c, 0, 88, 39
1, 274853, Control_c, 0, 64, 64
1, 274868, Note_on_c, 0, 51, 89
1, 274868, Control_c, 0, 64, 73
1, 274870, Note_on_c, 0, 39, 82
1, 274874, Note_on_c, 0, 82, 99
1, 274878, Note_on_c, 0, 90, 65
1, 274879, Note_off_c, 0, 90, 127
1, 274879, Note_on_c, 0, 94, 88
1, 274881, Note_on_c, 0, 91, 87
1, 274883, Control_c, 0, 64, 83
1, 274894, Note_off_c, 0, 51, 64
1, 274896, Note_off_c, 0, 94, 70
1, 274897, Control_c, 0, 64, 90
1, 274899, Note_off_c, 0, 39, 65
1, 274901, Note_off_c, 0, 91, 63
1, 274912, Control_c, 0, 64, 91
1, 274913, Note_off_c, 0, 82, 62
1, 275063, Note_on_c, 0, 67, 78
1, 275064, Note_on_c, 0, 55, 83
1, 275065, Note_on_c, 0, 63, 79
1, 275074, Note_on_c, 0, 82, 96
1, 275076, Note_on_c, 0, 94, 88
1, 275079, Note_off_c, 0, 67, 68
1, 275086, Note_on_c, 0, 91, 74
1, 275089, Note_off_c, 0, 63, 69
1, 275090, Control_c, 0, 64, 92
1, 275094, Note_off_c, 0, 94, 71
1, 275100, Note_off_c, 0, 82, 60
1, 275105, Control_c, 0, 64, 93
1, 275107, Note_off_c, 0, 91, 66
1, 275112, Note_off_c, 0, 55, 61
1, 275120, Control_c, 0, 64, 95
1, 275135, Control_c, 0, 64, 97
1, 275149, Control_c, 0, 64, 97
1, 275179, Control_c, 0, 64, 94
1, 275194, Control_c, 0, 64, 82
1, 275200, Note_on_c, 0, 90, 86
1, 275202, Note_on_c, 0, 81, 84
1, 275209, Control_c, 0, 64, 60
1, 275219, Note_off_c, 0, 90, 71
1, 275221, Note_off_c, 0, 81, 71
1, 275223, Control_c, 0, 64, 0
1, 275259, Note_on_c, 0, 39, 78
1, 275261, Note_on_c, 0, 51, 90
1, 275261, Note_on_c, 0, 94, 104
1, 275262, Note_on_c, 0, 82, 103
1, 275280, Note_on_c, 0, 92, 56
1, 275281, Note_off_c, 0, 39, 66
1, 275284, Control_c, 0, 64, 62
1, 275288, Note_off_c, 0, 51, 62
1, 275291, Poly_aftertouch_c, 0, 91, 127
1, 275298, Control_c, 0, 64, 73
1, 275321, Control_c, 0, 64, 82
1, 275335, Note_off_c, 0, 82, 64
1, 275335, Control_c, 0, 64, 88
1, 275350, Control_c, 0, 64, 89
1, 275395, Control_c, 0, 64, 89
1, 275408, Poly_aftertouch_c, 0, 91, 0
1, 275427, Note_off_c, 0, 92, 54
1, 275464, Note_off_c, 0, 94, 63
1, 275480, Note_on_c, 0, 67, 89
1, 275482, Note_on_c, 0, 55, 80
1, 275486, Note_on_c, 0, 63, 86
1, 275503, Note_off_c, 0, 67, 65
1, 275531, Note_off_c, 0, 63, 66
1, 275536, Note_off_c, 0, 55, 62
1, 275559, Control_c, 0, 64, 90
1, 275573, Control_c, 0, 64, 90
1, 275588, Control_c, 0, 64, 93
1, 275603, Control_c, 0, 64, 97
1, 275618, Control_c, 0, 64, 102
1, 275633, Control_c, 0, 64, 107
1, 275647, Control_c, 0, 64, 108
1, 275662, Control_c, 0, 64, 108
1, 275677, Control_c, 0, 64, 101
1, 275692, Control_c, 0, 64, 87
1, 275707, Control_c, 0, 64, 68
1, 275721, Control_c, 0, 64, 0
1, 275737, Note_on_c, 0, 98, 104
1, 275739, Note_on_c, 0, 86, 102
1, 275739, Note_on_c, 0, 94, 98
1, 275750, Note_on_c, 0, 44, 92
1, 275753, Note_on_c, 0, 32, 84
1, 275756, Note_off_c, 0, 86, 67
1, 275765, Control_c, 0, 64, 65
1, 275768, Note_off_c, 0, 98, 65
1, 275773, Note_on_c, 0, 96, 33
1, 275774, Note_off_c, 0, 96, 127
1, 275774, Note_off_c, 0, 32, 67
1, 275780, Control_c, 0, 64, 74
1, 275782, Note_off_c, 0, 94, 65
1, 275786, Note_off_c, 0, 44, 59
1, 275795, Control_c, 0, 64, 85
1, 275810, Control_c, 0, 64, 91
1, 275825, Control_c, 0, 64, 91
1, 275869, Control_c, 0, 64, 92
1, 276002, Control_c, 0, 64, 92
1, 276036, Note_on_c, 0, 65, 84
1, 276039, Note_on_c, 0, 98, 102
1, 276040, Note_on_c, 0, 86, 111
1, 276041, Note_on_c, 0, 94, 100
1, 276042, Note_on_c, 0, 60, 80
1, 276045, Note_on_c, 0, 53, 78
1, 276047, Control_c, 0, 64, 93
1, 276054, Note_off_c, 0, 65, 74
1, 276078, Note_on_c, 0, 90, 40
1, 276079, Note_off_c, 0, 90, 127
1, 276082, Note_off_c, 0, 53, 67
1, 276084, Note_off_c, 0, 60, 62
1, 276084, Control_c, 0, 64, 93
1, 276099, Control_c, 0, 64, 94
1, 276114, Control_c, 0, 64, 96
1, 276128, Control_c, 0, 64, 99
1, 276143, Control_c, 0, 64, 102
1, 276177, Note_off_c, 0, 86, 57
1, 276179, Note_off_c, 0, 98, 62
1, 276188, Control_c, 0, 64, 96
1, 276203, Note_off_c, 0, 94, 64
1, 276203, Control_c, 0, 64, 83
1, 276218, Control_c, 0, 64, 64
1, 276233, Control_c, 0, 64, 0
1, 276263, Control_c, 0, 64, 36
1, 276269, Note_on_c, 0, 46, 90
1, 276269, Note_on_c, 0, 34, 88
1, 276271, Note_on_c, 0, 96, 100
1, 276271, Note_on_c, 0, 84, 106
1, 276272, Note_on_c, 0, 92, 99
1, 276277, Control_c, 0, 64, 66
1, 276292, Control_c, 0, 64, 74
1, 276296, Note_off_c, 0, 34, 69
1, 276296, Note_off_c, 0, 84, 67
1, 276301, Note_off_c, 0, 46, 65
1, 276304, Note_off_c, 0, 96, 65
1, 276307, Control_c, 0, 64, 83
1, 276322, Control_c, 0, 64, 88
1, 276326, Note_off_c, 0, 92, 65
1, 276337, Control_c, 0, 64, 89
1, 276352, Control_c, 0, 64, 89
1, 276470, Control_c, 0, 64, 90
1, 276486, Note_on_c, 0, 65, 81
1, 276487, Note_on_c, 0, 96, 97
1, 276488, Note_on_c, 0, 53, 85
1, 276488, Note_on_c, 0, 62, 79
1, 276488, Note_on_c, 0, 84, 114
1, 276490, Note_on_c, 0, 92, 99
1, 276508, Note_off_c, 0, 65, 72
1, 276513, Note_off_c, 0, 62, 67
1, 276515, Control_c, 0, 64, 90
1, 276521, Note_off_c, 0, 53, 62
1, 276530, Control_c, 0, 64, 92
1, 276544, Control_c, 0, 64, 94
1, 276559, Control_c, 0, 64, 97
1, 276574, Note_off_c, 0, 96, 61
1, 276574, Control_c, 0, 64, 101
1, 276588, Note_off_c, 0, 84, 60
1, 276588, Control_c, 0, 64, 102
1, 276603, Control_c, 0, 64, 102
1, 276604, Note_off_c, 0, 92, 63
1, 276618, Control_c, 0, 64, 99
1, 276633, Control_c, 0, 64, 87
1, 276648, Control_c, 0, 64, 69
1, 276662, Control_c, 0, 64, 0
1, 276681, Note_on_c, 0, 91, 106
1, 276683, Note_on_c, 0, 79, 105
1, 276688, Note_on_c, 0, 87, 88
1, 276692, Note_on_c, 0, 51, 84
1, 276695, Note_on_c, 0, 39, 77
1, 276707, Control_c, 0, 64, 52
1, 276722, Note_off_c, 0, 39, 66
1, 276722, Control_c, 0, 64, 70
1, 276725, Note_off_c, 0, 51, 60
1, 276737, Control_c, 0, 64, 78
1, 276740, Note_off_c, 0, 79, 54
1, 276751, Control_c, 0, 64, 85
1, 276763, Note_off_c, 0, 91, 57
1, 276766, Control_c, 0, 64, 86
1, 276814, Note_off_c, 0, 87, 62
1, 276818, Control_c, 0, 64, 87
1, 276848, Control_c, 0, 64, 87
1, 276877, Control_c, 0, 64, 88
1, 276883, Note_on_c, 0, 67, 81
1, 276889, Note_on_c, 0, 55, 77
1, 276889, Note_on_c, 0, 82, 101
1, 276891, Note_on_c, 0, 94, 91
1, 276892, Note_on_c, 0, 63, 73
1, 276892, Note_on_c, 0, 91, 85
1, 276892, Control_c, 0, 64, 88
1, 276906, Note_off_c, 0, 67, 69
1, 276907, Control_c, 0, 64, 89
1, 276916, Note_off_c, 0, 63, 69
1, 276921, Control_c, 0, 64, 89
1, 276929, Note_off_c, 0, 82, 65
1, 276933, Note_off_c, 0, 94, 65
1, 276934, Note_off_c, 0, 55, 61
1, 276936, Control_c, 0, 64, 90
1, 276939, Note_off_c, 0, 91, 60
1, 276951, Control_c, 0, 64, 90
1, 276981, Control_c, 0, 64, 91
1, 277041, Control_c, 0, 64, 91
1, 277085, Note_on_c, 0, 82, 88
1, 277087, Note_on_c, 0, 94, 83
1, 277091, Note_on_c, 0, 91, 73
1, 277097, Note_on_c, 0, 39, 75
1, 277098, Note_on_c, 0, 51, 80
1, 277100, Note_off_c, 0, 82, 73
1, 277104, Note_off_c, 0, 94, 72
1, 277107, Note_off_c, 0, 91, 64
1, 277125, Note_off_c, 0, 39, 64
1, 277127, Note_off_c, 0, 51, 60
1, 277174, Note_on_c, 0, 90, 94
1, 277179, Note_on_c, 0, 81, 85
1, 277205, Note_off_c, 0, 81, 63
1, 277216, Note_off_c, 0, 90, 64
1, 277258, Note_on_c, 0, 82, 103
1, 277260, Note_on_c, 0, 94, 92
1, 277264, Note_on_c, 0, 91, 89
1, 277267, Note_on_c, 0, 67, 71
1, 277276, Note_on_c, 0, 63, 60
1, 277285, Note_off_c, 0, 67, 64
1, 277288, Note_on_c, 0, 55, 38
1, 277293, Control_c, 0, 64, 92
1, 277294, Note_off_c, 0, 82, 63
1, 277295, Note_on_c, 0, 92, 44
1, 277295, Note_off_c, 0, 63, 62
1, 277295, Note_off_c, 0, 94, 62
1, 277300, Note_off_c, 0, 91, 57
1, 277308, Control_c, 0, 64, 93
1, 277312, Note_off_c, 0, 55, 64
1, 277323, Control_c, 0, 64, 95
1, 277324, Note_off_c, 0, 92, 35
1, 277337, Control_c, 0, 64, 98
1, 277352, Control_c, 0, 64, 100
1, 277367, Control_c, 0, 64, 101
1, 277372, Poly_aftertouch_c, 0, 53, 0
1, 277397, Control_c, 0, 64, 98
1, 277411, Control_c, 0, 64, 87
1, 277426, Control_c, 0, 64, 70
1, 277441, Control_c, 0, 64, 0
1, 277470, Note_on_c, 0, 89, 88
1, 277474, Note_on_c, 0, 77, 80
1, 277478, Note_on_c, 0, 80, 78
1, 277483, Note_on_c, 0, 53, 65
1, 277487, Note_off_c, 0, 77, 70
1, 277491, Note_on_c, 0, 41, 53
1, 277494, Note_on_c, 0, 87, 42
1, 277495, Note_off_c, 0, 87, 127
1, 277495, Note_off_c, 0, 89, 63
1, 277497, Note_off_c, 0, 80, 72
1, 277500, Control_c, 0, 64, 64
1, 277515, Control_c, 0, 64, 72
1, 277516, Note_off_c, 0, 53, 68
1, 277522, Note_off_c, 0, 41, 56
1, 277530, Control_c, 0, 64, 80
1, 277544, Control_c, 0, 64, 86
1, 277559, Control_c, 0, 64, 87
1, 277568, Note_on_c, 0, 82, 89
1, 277571, Note_on_c, 0, 79, 81
1, 277582, Control_c, 0, 64, 88
1, 277590, Note_off_c, 0, 79, 70
1, 277597, Note_off_c, 0, 82, 61
1, 277597, Control_c, 0, 64, 90
1, 277612, Control_c, 0, 64, 92
1, 277626, Control_c, 0, 64, 94
1, 277641, Control_c, 0, 64, 95
1, 277656, Control_c, 0, 64, 96
1, 277661, Note_on_c, 0, 60, 73
1, 277661, Note_on_c, 0, 80, 89
1, 277666, Note_on_c, 0, 92, 80
1, 277667, Note_on_c, 0, 56, 75
1, 277667, Note_on_c, 0, 83, 76
1, 277671, Control_c, 0, 64, 97
1, 277678, Note_off_c, 0, 80, 73
1, 277686, Note_off_c, 0, 60, 68
1, 277686, Note_off_c, 0, 92, 71
1, 277686, Control_c, 0, 64, 97
1, 277688, Note_off_c, 0, 83, 67
1, 277705, Note_off_c, 0, 56, 60
1, 277754, Note_on_c, 0, 81, 89
1, 277759, Note_on_c, 0, 84, 83
1, 277766, Note_on_c, 0, 93, 73
1, 277777, Note_off_c, 0, 81, 65
1, 277778, Note_off_c, 0, 84, 73
1, 277781, Note_off_c, 0, 93, 64
1, 277805, Control_c, 0, 64, 98
1, 277835, Control_c, 0, 64, 98
1, 277844, Note_on_c, 0, 46, 86
1, 277847, Note_on_c, 0, 85, 92
1, 277849, Note_on_c, 0, 82, 89
1, 277852, Note_on_c, 0, 94, 86
1, 277857, Note_on_c, 0, 34, 58
1, 277866, Note_off_c, 0, 46, 66
1, 277866, Note_off_c, 0, 85, 71
1, 277866, Note_off_c, 0, 82, 73
1, 277871, Note_off_c, 0, 94, 72
1, 277884, Note_off_c, 0, 34, 57
1, 277941, Note_on_c, 0, 86, 83
1, 277944, Note_on_c, 0, 83, 78
1, 277947, Note_on_c, 0, 95, 76
1, 277959, Note_off_c, 0, 86, 73
1, 277963, Note_off_c, 0, 83, 68
1, 277970, Note_off_c, 0, 95, 69
1, 277988, Note_on_c, 0, 84, 17
1, 278014, Note_on_c, 0, 56, 71
1, 278014, Note_off_c, 0, 84, 0
1, 278023, Note_on_c, 0, 87, 86
1, 278026, Note_on_c, 0, 84, 32
1, 278037, Note_on_c, 0, 96, 78
1, 278039, Note_off_c, 0, 56, 66
1, 278054, Note_off_c, 0, 84, 66
1, 278055, Note_off_c, 0, 96, 70
1, 278059, Note_off_c, 0, 87, 65
1, 278072, Control_c, 0, 64, 99
1, 278098, Poly_aftertouch_c, 0, 62, 0
1, 278101, Poly_aftertouch_c, 0, 58, 0
1, 278126, Note_on_c, 0, 86, 87
1, 278129, Note_on_c, 0, 89, 81
1, 278132, Control_c, 0, 64, 98
1, 278135, Note_on_c, 0, 98, 80
1, 278142, Note_off_c, 0, 86, 74
1, 278146, Control_c, 0, 64, 90
1, 278148, Note_off_c, 0, 89, 73
1, 278148, Note_off_c, 0, 98, 69
1, 278161, Control_c, 0, 64, 70
1, 278176, Control_c, 0, 64, 0
1, 278204, Note_on_c, 0, 92, 109
1, 278207, Note_on_c, 0, 99, 102
1, 278208, Note_on_c, 0, 51, 99
1, 278209, Note_on_c, 0, 39, 89
1, 278211, Note_on_c, 0, 87, 96
1, 278221, Control_c, 0, 64, 57
1, 278225, Note_off_c, 0, 99, 66
1, 278231, Note_off_c, 0, 87, 66
1, 278235, Control_c, 0, 64, 71
1, 278238, Note_off_c, 0, 39, 68
1, 278245, Note_off_c, 0, 92, 65
1, 278251, Control_c, 0, 64, 86
1, 278254, Note_off_c, 0, 51, 62
1, 278266, Control_c, 0, 64, 97
1, 278281, Control_c, 0, 64, 100
1, 278332, Control_c, 0, 64, 101
1, 278361, Control_c, 0, 64, 101
1, 278376, Control_c, 0, 64, 102
1, 278391, Control_c, 0, 64, 102
1, 278406, Control_c, 0, 64, 103
1, 278436, Control_c, 0, 64, 102
1, 278439, Note_on_c, 0, 78, 36
1, 278451, Control_c, 0, 64, 95
1, 278465, Control_c, 0, 64, 78
1, 278480, Control_c, 0, 64, 0
1, 278483, Note_on_c, 0, 87, 102
1, 278486, Note_on_c, 0, 75, 108
1, 278486, Note_on_c, 0, 79, 88
1, 278491, Note_on_c, 0, 63, 96
1, 278491, Note_on_c, 0, 67, 101
1, 278493, Note_on_c, 0, 55, 86
1, 278504, Note_on_c, 0, 58, 77
1, 278541, Note_on_c, 0, 85, 19
1, 278543, Note_off_c, 0, 87, 65
1, 278549, Note_off_c, 0, 78, 23
1, 278555, Control_c, 0, 64, 59
1, 278569, Control_c, 0, 64, 74
1, 278573, Note_off_c, 0, 75, 52
1, 278584, Control_c, 0, 64, 87
1, 278588, Note_off_c, 0, 85, 47
1, 278600, Control_c, 0, 64, 102
1, 278614, Control_c, 0, 64, 116
1, 278629, Control_c, 0, 64, 127
1, 278737, Note_off_c, 0, 63, 51
1, 278741, Note_off_c, 0, 67, 47
1, 278771, Note_off_c, 0, 55, 36
1, 278787, Note_off_c, 0, 79, 31
1, 278799, Note_off_c, 0, 58, 22
1, 278854, Note_on_c, 0, 79, 73
1, 278856, Note_on_c, 0, 87, 95
1, 278857, Note_on_c, 0, 75, 90
1, 278861, Note_on_c, 0, 63, 77
1, 278862, Note_on_c, 0, 67, 70
1, 278864, Note_on_c, 0, 58, 48
1, 278869, Note_on_c, 0, 55, 68
1, 278877, Note_off_c, 0, 67, 70
1, 278883, Note_off_c, 0, 87, 59
1, 278888, Note_off_c, 0, 79, 62
1, 278893, Note_off_c, 0, 63, 66
1, 278902, Note_off_c, 0, 75, 65
1, 278904, Note_off_c, 0, 55, 64
1, 278909, Note_off_c, 0, 58, 65
1, 279014, Control_c, 0, 64, 108
1, 279029, Control_c, 0, 64, 93
1, 279044, Control_c, 0, 64, 77
1, 279066, Control_c, 0, 64, 46
1, 279071, Note_on_c, 0, 62, 79
1, 279071, Note_on_c, 0, 65, 84
1, 279079, Note_on_c, 0, 56, 67
1, 279081, Control_c, 0, 64, 0
1, 279085, Note_on_c, 0, 51, 57
1, 279085, Note_on_c, 0, 58, 66
1, 279100, Note_off_c, 0, 65, 63
1, 279101, Note_off_c, 0, 62, 63
1, 279110, Note_off_c, 0, 56, 65
1, 279113, Note_off_c, 0, 58, 66
1, 279118, Note_off_c, 0, 51, 61
1, 279172, Note_on_c, 0, 67, 82
1, 279200, Note_off_c, 0, 67, 62
1, 279273, Note_on_c, 0, 68, 80
1, 279273, Control_c, 0, 64, 56
1, 279277, Note_on_c, 0, 62, 70
1, 279280, Note_on_c, 0, 51, 55
1, 279281, Note_on_c, 0, 56, 51
1, 279283, Note_on_c, 0, 58, 56
1, 279288, Control_c, 0, 64, 69
1, 279303, Control_c, 0, 64, 80
1, 279309, Note_off_c, 0, 62, 61
1, 279318, Control_c, 0, 64, 86
1, 279327, Note_off_c, 0, 68, 62
1, 279333, Control_c, 0, 64, 86
1, 279348, Control_c, 0, 64, 87
1, 279372, Note_on_c, 0, 72, 80
1, 279419, Note_off_c, 0, 72, 63
1, 279437, Control_c, 0, 64, 86
1, 279438, Note_off_c, 0, 51, 34
1, 279443, Note_off_c, 0, 56, 34
1, 279452, Control_c, 0, 64, 85
1, 279467, Control_c, 0, 64, 82
1, 279469, Note_on_c, 0, 70, 82
1, 279482, Control_c, 0, 64, 77
1, 279496, Note_off_c, 0, 58, 37
1, 279497, Control_c, 0, 64, 68
1, 279508, Note_off_c, 0, 70, 56
1, 279512, Control_c, 0, 64, 46
1, 279527, Control_c, 0, 64, 0
1, 279561, Note_on_c, 0, 68, 77
1, 279585, Note_off_c, 0, 68, 68
1, 279654, Note_on_c, 0, 67, 80
1, 279658, Note_on_c, 0, 62, 65
1, 279680, Note_off_c, 0, 67, 64
1, 279681, Note_on_c, 0, 58, 49
1, 279682, Note_on_c, 0, 56, 43
1, 279686, Note_on_c, 0, 51, 43
1, 279688, Note_off_c, 0, 62, 63
1, 279705, Note_off_c, 0, 58, 60
1, 279707, Note_off_c, 0, 56, 57
1, 279714, Note_off_c, 0, 51, 53
1, 279742, Note_on_c, 0, 65, 76
1, 279771, Note_off_c, 0, 65, 67
1, 279844, Note_on_c, 0, 70, 85
1, 279846, Note_on_c, 0, 61, 69
1, 279848, Note_on_c, 0, 51, 56
1, 279863, Note_on_c, 0, 67, 51
1, 279866, Note_off_c, 0, 70, 69
1, 279873, Note_off_c, 0, 61, 65
1, 279887, Note_off_c, 0, 67, 37
1, 279890, Note_off_c, 0, 51, 60
1, 280025, Note_on_c, 0, 72, 82
1, 280050, Note_on_c, 0, 70, 75
1, 280052, Note_on_c, 0, 67, 51
1, 280053, Note_on_c, 0, 61, 70
1, 280053, Note_off_c, 0, 72, 60
1, 280058, Note_on_c, 0, 51, 63
1, 280075, Note_off_c, 0, 67, 57
1, 280117, Note_off_c, 0, 70, 63
1, 280186, Note_on_c, 0, 69, 79
1, 280197, Note_on_c, 0, 66, 70
1, 280220, Note_off_c, 0, 66, 69
1, 280220, Note_off_c, 0, 69, 61
1, 280224, Note_on_c, 0, 70, 90
1, 280230, Note_on_c, 0, 67, 83
1, 280243, Note_off_c, 0, 51, 52
1, 280260, Control_c, 0, 64, 75
1, 280275, Control_c, 0, 64, 89
1, 280290, Control_c, 0, 64, 99
1, 280298, Note_off_c, 0, 61, 41
1, 280305, Control_c, 0, 64, 102
1, 280319, Control_c, 0, 64, 106
1, 280334, Control_c, 0, 64, 111
1, 280337, Note_off_c, 0, 67, 0
1, 280349, Control_c, 0, 64, 114
1, 280357, Note_on_c, 0, 67, 11
1, 280363, Control_c, 0, 64, 117
1, 280378, Control_c, 0, 64, 117
1, 280436, Note_off_c, 0, 67, 50
1, 280448, Note_on_c, 0, 61, 49
1, 280455, Note_on_c, 0, 51, 47
1, 280492, Note_off_c, 0, 61, 58
1, 280507, Note_off_c, 0, 70, 55
1, 280516, Note_off_c, 0, 51, 52
1, 280577, Control_c, 0, 64, 117
1, 280592, Control_c, 0, 64, 112
1, 280607, Control_c, 0, 64, 102
1, 280622, Control_c, 0, 64, 88
1, 280636, Control_c, 0, 64, 68
1, 280643, Note_on_c, 0, 65, 81
1, 280647, Note_on_c, 0, 60, 68
1, 280648, Note_on_c, 0, 56, 60
1, 280651, Control_c, 0, 64, 0
1, 280653, Note_on_c, 0, 51, 50
1, 280676, Note_off_c, 0, 60, 69
1, 280679, Note_off_c, 0, 65, 65
1, 280685, Note_off_c, 0, 56, 61
1, 280701, Note_off_c, 0, 51, 60
1, 280746, Note_on_c, 0, 67, 74
1, 280768, Note_off_c, 0, 67, 68
1, 280823, Note_on_c, 0, 51, 57
1, 280834, Note_on_c, 0, 56, 50
1, 280841, Note_on_c, 0, 68, 80
1, 280843, Note_on_c, 0, 60, 68
1, 280844, Control_c, 0, 64, 56
1, 280859, Control_c, 0, 64, 69
1, 280871, Note_off_c, 0, 60, 65
1, 280874, Control_c, 0, 64, 74
1, 280878, Note_off_c, 0, 56, 58
1, 280888, Note_off_c, 0, 68, 60
1, 280888, Control_c, 0, 64, 80
1, 280903, Control_c, 0, 64, 83
1, 280908, Note_off_c, 0, 51, 51
1, 280918, Control_c, 0, 64, 85
1, 280933, Control_c, 0, 64, 85
1, 280936, Note_on_c, 0, 72, 77
1, 280978, Note_off_c, 0, 72, 63
1, 281008, Control_c, 0, 64, 84
1, 281023, Note_on_c, 0, 70, 78
1, 281023, Control_c, 0, 64, 81
1, 281038, Control_c, 0, 64, 76
1, 281052, Control_c, 0, 64, 67
1, 281056, Note_off_c, 0, 70, 61
1, 281067, Control_c, 0, 64, 20
1, 281082, Control_c, 0, 64, 0
1, 281119, Note_on_c, 0, 68, 73
1, 281144, Note_off_c, 0, 68, 69
1, 281199, Note_on_c, 0, 67, 85
1, 281207, Note_on_c, 0, 59, 56
1, 281211, Note_on_c, 0, 51, 48
1, 281212, Note_on_c, 0, 62, 68
1, 281230, Note_off_c, 0, 67, 59
1, 281241, Note_off_c, 0, 62, 64
1, 281243, Note_off_c, 0, 59, 60
1, 281258, Note_off_c, 0, 51, 59
1, 281295, Note_on_c, 0, 65, 82
1, 281348, Note_off_c, 0, 65, 63
1, 281395, Note_on_c, 0, 67, 87
1, 281400, Note_on_c, 0, 63, 77
1, 281411, Note_on_c, 0, 58, 56
1, 281414, Note_on_c, 0, 51, 54
1, 281417, Note_off_c, 0, 67, 65
1, 281424, Note_off_c, 0, 63, 70
1, 281444, Note_off_c, 0, 58, 65
1, 281463, Note_off_c, 0, 51, 58
1, 281646, Note_on_c, 0, 63, 76
1, 281663, Note_on_c, 0, 58, 58
1, 281667, Control_c, 0, 64, 57
1, 281674, Note_on_c, 0, 55, 51
1, 281682, Control_c, 0, 64, 67
1, 281687, Note_on_c, 0, 51, 36
1, 281697, Control_c, 0, 64, 74
1, 281711, Control_c, 0, 64, 79
1, 281726, Control_c, 0, 64, 82
1, 281741, Control_c, 0, 64, 83
1, 281756, Control_c, 0, 64, 84
1, 281771, Control_c, 0, 64, 84
1, 281786, Control_c, 0, 64, 85
1, 281801, Control_c, 0, 64, 86
1, 281816, Control_c, 0, 64, 87
1, 281831, Control_c, 0, 64, 88
1, 281834, Note_off_c, 0, 51, 25
1, 281846, Control_c, 0, 64, 89
1, 281861, Control_c, 0, 64, 90
1, 281879, Note_off_c, 0, 58, 29
1, 281905, Control_c, 0, 64, 90
1, 281920, Control_c, 0, 64, 86
1, 281923, Note_off_c, 0, 55, 33
1, 281934, Control_c, 0, 64, 78
1, 281949, Control_c, 0, 64, 68
1, 281956, Note_off_c, 0, 63, 43
1, 281964, Control_c, 0, 64, 54
1, 281979, Control_c, 0, 64, 60
1, 281989, Note_on_c, 0, 54, 34
1, 281992, Note_on_c, 0, 62, 55
1, 281994, Control_c, 0, 64, 66
1, 282004, Note_on_c, 0, 58, 55
1, 282008, Control_c, 0, 64, 71
1, 282020, Note_off_c, 0, 54, 48
1, 282023, Control_c, 0, 64, 76
1, 282030, Note_on_c, 0, 55, 58
1, 282031, Note_on_c, 0, 51, 55
1, 282033, Note_off_c, 0, 62, 61
1, 282037, Note_on_c, 0, 63, 66
1, 282038, Control_c, 0, 64, 81
1, 282042, Note_off_c, 0, 58, 66
1, 282060, Control_c, 0, 64, 83
1, 282063, Note_off_c, 0, 55, 63
1, 282074, Note_off_c, 0, 51, 64
1, 282075, Control_c, 0, 64, 84
1, 282075, Control_c, 0, 67, 13
1, 282080, Note_off_c, 0, 63, 63
1, 282090, Control_c, 0, 64, 85
1, 282090, Control_c, 0, 67, 20
1, 282105, Control_c, 0, 64, 87
1, 282105, Control_c, 0, 67, 27
1, 282120, Control_c, 0, 64, 87
1, 282120, Control_c, 0, 67, 32
1, 282134, Control_c, 0, 67, 35
1, 282149, Control_c, 0, 67, 37
1, 282164, Control_c, 0, 64, 87
1, 282164, Control_c, 0, 67, 38
1, 282179, Control_c, 0, 64, 84
1, 282179, Control_c, 0, 67, 39
1, 282194, Control_c, 0, 64, 80
1, 282194, Control_c, 0, 67, 39
1, 282208, Control_c, 0, 64, 73
1, 282223, Control_c, 0, 64, 65
1, 282238, Control_c, 0, 64, 57
1, 282239, Note_on_c, 0, 39, 53
1, 282248, Note_on_c, 0, 77, 74
1, 282253, Control_c, 0, 64, 55
1, 282254, Note_on_c, 0, 65, 54
1, 282268, Control_c, 0, 64, 55
1, 282272, Note_off_c, 0, 77, 67
1, 282275, Note_off_c, 0, 39, 63
1, 282277, Note_off_c, 0, 65, 60
1, 282282, Control_c, 0, 64, 52
1, 282297, Control_c, 0, 64, 42
1, 282297, Control_c, 0, 67, 40
1, 282312, Control_c, 0, 64, 0
1, 282312, Control_c, 0, 67, 41
1, 282327, Control_c, 0, 67, 44
1, 282341, Control_c, 0, 67, 51
1, 282349, Note_on_c, 0, 67, 71
1, 282356, Control_c, 0, 67, 59
1, 282359, Note_on_c, 0, 79, 47
1, 282367, Note_off_c, 0, 67, 66
1, 282371, Control_c, 0, 67, 73
1, 282379, Note_off_c, 0, 79, 44
1, 282386, Control_c, 0, 67, 87
1, 282401, Control_c, 0, 67, 97
1, 282415, Control_c, 0, 67, 103
1, 282430, Control_c, 0, 67, 103
1, 282433, Note_on_c, 0, 80, 78
1, 282439, Note_on_c, 0, 46, 50
1, 282439, Note_on_c, 0, 56, 50
1, 282441, Note_on_c, 0, 68, 68
1, 282444, Note_on_c, 0, 50, 37
1, 282454, Note_off_c, 0, 80, 71
1, 282457, Note_off_c, 0, 68, 67
1, 282475, Control_c, 0, 67, 104
1, 282490, Control_c, 0, 67, 104
1, 282534, Control_c, 0, 67, 103
1, 282542, Note_on_c, 0, 84, 73
1, 282545, Note_on_c, 0, 72, 74
1, 282549, Control_c, 0, 67, 103
1, 282561, Note_off_c, 0, 84, 69
1, 282564, Control_c, 0, 67, 102
1, 282566, Note_off_c, 0, 72, 68
1, 282609, Control_c, 0, 64, 32
1, 282624, Control_c, 0, 64, 36
1, 282624, Control_c, 0, 67, 101
1, 282635, Note_on_c, 0, 70, 91
1, 282635, Note_on_c, 0, 82, 79
1, 282639, Control_c, 0, 64, 33
1, 282639, Control_c, 0, 67, 101
1, 282649, Note_off_c, 0, 56, 38
1, 282653, Note_off_c, 0, 70, 72
1, 282654, Control_c, 0, 64, 32
1, 282654, Note_off_c, 0, 82, 71
1, 282666, Note_off_c, 0, 50, 36
1, 282669, Control_c, 0, 64, 32
1, 282671, Note_off_c, 0, 46, 33
1, 282683, Control_c, 0, 64, 31
1, 282698, Control_c, 0, 64, 28
1, 282713, Control_c, 0, 64, 13
1, 282726, Note_on_c, 0, 80, 81
1, 282728, Control_c, 0, 64, 0
1, 282728, Control_c, 0, 67, 100
1, 282731, Note_on_c, 0, 68, 81
1, 282743, Control_c, 0, 67, 98
1, 282746, Note_off_c, 0, 80, 71
1, 282752, Note_off_c, 0, 68, 70
1, 282757, Control_c, 0, 67, 97
1, 282772, Control_c, 0, 67, 96
1, 282787, Control_c, 0, 67, 96
1, 282824, Control_c, 0, 67, 95
1, 282826, Note_on_c, 0, 50, 49
1, 282827, Note_on_c, 0, 67, 80
1, 282830, Note_on_c, 0, 79, 69
1, 282832, Note_on_c, 0, 46, 43
1, 282838, Control_c, 0, 67, 95
1, 282844, Note_off_c, 0, 79, 66
1, 282849, Note_off_c, 0, 67, 69
1, 282850, Note_off_c, 0, 50, 59
1, 282853, Control_c, 0, 67, 94
1, 282868, Control_c, 0, 67, 93
1, 282871, Note_off_c, 0, 46, 55
1, 282883, Control_c, 0, 67, 92
1, 282898, Control_c, 0, 67, 91
1, 282913, Control_c, 0, 67, 89
1, 282916, Note_on_c, 0, 65, 73
1, 282923, Note_on_c, 0, 77, 62
1, 282928, Control_c, 0, 67, 84
1, 282932, Note_off_c, 0, 65, 70
1, 282940, Note_off_c, 0, 77, 63
1, 282943, Control_c, 0, 67, 76
1, 282957, Control_c, 0, 67, 61
1, 282972, Control_c, 0, 67, 42
1, 282987, Control_c, 0, 67, 21
1, 282999, Note_on_c, 0, 39, 44
1, 283002, Control_c, 0, 64, 62
1, 283002, Control_c, 0, 67, 0
1, 283017, Control_c, 0, 64, 68
1, 283020, Note_on_c, 0, 82, 82
1, 283026, Note_on_c, 0, 70, 82
1, 283028, Note_off_c, 0, 39, 49
1, 283031, Control_c, 0, 64, 76
1, 283046, Control_c, 0, 64, 83
1, 283061, Control_c, 0, 64, 89
1, 283063, Note_off_c, 0, 70, 56
1, 283076, Control_c, 0, 64, 92
1, 283090, Control_c, 0, 64, 96
1, 283105, Control_c, 0, 64, 100
1, 283120, Control_c, 0, 64, 102
1, 283125, Note_off_c, 0, 82, 60
1, 283164, Control_c, 0, 64, 100
1, 283179, Control_c, 0, 64, 94
1, 283194, Control_c, 0, 64, 85
1, 283196, Note_on_c, 0, 84, 70
1, 283209, Control_c, 0, 64, 78
1, 283220, Note_on_c, 0, 82, 79
1, 283224, Note_on_c, 0, 70, 75
1, 283224, Control_c, 0, 64, 77
1, 283237, Note_on_c, 0, 55, 41
1, 283238, Control_c, 0, 64, 79
1, 283240, Note_on_c, 0, 49, 52
1, 283241, Note_off_c, 0, 84, 64
1, 283244, Note_off_c, 0, 82, 55
1, 283250, Note_on_c, 0, 58, 43
1, 283252, Note_off_c, 0, 70, 66
1, 283253, Control_c, 0, 64, 85
1, 283268, Control_c, 0, 64, 93
1, 283283, Control_c, 0, 64, 101
1, 283297, Control_c, 0, 64, 103
1, 283317, Note_off_c, 0, 58, 0
1, 283327, Control_c, 0, 64, 99
1, 283342, Control_c, 0, 64, 89
1, 283354, Poly_aftertouch_c, 0, 58, 127
1, 283357, Control_c, 0, 64, 74
1, 283362, Note_on_c, 0, 81, 80
1, 283363, Note_on_c, 0, 69, 78
1, 283372, Control_c, 0, 64, 0
1, 283377, Note_off_c, 0, 81, 69
1, 283379, Note_off_c, 0, 69, 70
1, 283405, Note_off_c, 0, 49, 35
1, 283431, Poly_aftertouch_c, 0, 58, 0
1, 283432, Control_c, 0, 64, 63
1, 283435, Note_on_c, 0, 82, 90
1, 283442, Note_on_c, 0, 70, 74
1, 283447, Control_c, 0, 64, 70
1, 283461, Note_off_c, 0, 82, 59
1, 283461, Control_c, 0, 64, 76
1, 283465, Note_off_c, 0, 55, 33
1, 283473, Note_off_c, 0, 70, 65
1, 283476, Control_c, 0, 64, 81
1, 283491, Control_c, 0, 64, 83
1, 283506, Control_c, 0, 64, 84
1, 283521, Control_c, 0, 64, 84
1, 283558, Control_c, 0, 64, 85
1, 283573, Control_c, 0, 64, 85
1, 283602, Control_c, 0, 64, 86
1, 283652, Note_on_c, 0, 49, 61
1, 283677, Note_on_c, 0, 58, 3
1, 283691, Note_off_c, 0, 49, 61
1, 283691, Control_c, 0, 64, 86
1, 283706, Control_c, 0, 64, 87
1, 283706, Poly_aftertouch_c, 0, 55, 0
1, 283713, Note_off_c, 0, 58, 35
1, 283721, Control_c, 0, 64, 89
1, 283736, Control_c, 0, 64, 90
1, 283765, Control_c, 0, 64, 90
1, 283780, Control_c, 0, 64, 86
1, 283795, Control_c, 0, 64, 79
1, 283810, Control_c, 0, 64, 65
1, 283825, Control_c, 0, 64, 27
1, 283840, Control_c, 0, 64, 43
1, 283844, Note_on_c, 0, 39, 51
1, 283852, Note_on_c, 0, 77, 74
1, 283854, Control_c, 0, 64, 61
1, 283855, Note_on_c, 0, 65, 59
1, 283869, Control_c, 0, 64, 66
1, 283870, Note_off_c, 0, 77, 66
1, 283874, Note_off_c, 0, 39, 60
1, 283875, Note_off_c, 0, 65, 63
1, 283884, Control_c, 0, 64, 68
1, 283899, Control_c, 0, 64, 65
1, 283913, Control_c, 0, 64, 57
1, 283928, Control_c, 0, 64, 0
1, 283941, Note_on_c, 0, 67, 74
1, 283941, Note_on_c, 0, 79, 74
1, 283959, Note_off_c, 0, 79, 68
1, 283965, Note_off_c, 0, 67, 68
1, 284002, Control_c, 0, 64, 47
1, 284029, Note_on_c, 0, 80, 87
1, 284032, Note_on_c, 0, 68, 79
1, 284032, Control_c, 0, 64, 42
1, 284038, Note_on_c, 0, 53, 50
1, 284041, Note_on_c, 0, 56, 51
1, 284043, Note_on_c, 0, 48, 52
1, 284047, Control_c, 0, 64, 38
1, 284049, Note_off_c, 0, 80, 69
1, 284053, Note_off_c, 0, 68, 71
1, 284061, Control_c, 0, 64, 34
1, 284076, Control_c, 0, 64, 25
1, 284091, Control_c, 0, 64, 0
1, 284141, Note_on_c, 0, 72, 74
1, 284141, Note_on_c, 0, 84, 73
1, 284158, Note_off_c, 0, 84, 67
1, 284165, Note_off_c, 0, 72, 71
1, 284197, Note_off_c, 0, 56, 25
1, 284210, Control_c, 0, 67, 12
1, 284225, Control_c, 0, 67, 22
1, 284233, Note_on_c, 0, 82, 79
1, 284236, Note_on_c, 0, 70, 86
1, 284240, Control_c, 0, 67, 32
1, 284241, Note_off_c, 0, 53, 54
1, 284252, Note_off_c, 0, 82, 71
1, 284255, Note_off_c, 0, 70, 70
1, 284255, Control_c, 0, 67, 45
1, 284270, Control_c, 0, 67, 55
1, 284284, Control_c, 0, 67, 63
1, 284307, Control_c, 0, 67, 68
1, 284322, Control_c, 0, 67, 71
1, 284336, Control_c, 0, 67, 72
1, 284338, Note_on_c, 0, 80, 75
1, 284341, Note_on_c, 0, 68, 78
1, 284359, Note_off_c, 0, 80, 71
1, 284362, Note_off_c, 0, 68, 71
1, 284381, Control_c, 0, 67, 72
1, 284431, Note_on_c, 0, 47, 60
1, 284436, Note_on_c, 0, 56, 48
1, 284436, Note_on_c, 0, 79, 75
1, 284436, Note_on_c, 0, 67, 75
1, 284440, Control_c, 0, 67, 71
1, 284444, Note_off_c, 0, 48, 28
1, 284455, Control_c, 0, 67, 71
1, 284458, Note_off_c, 0, 79, 65
1, 284460, Note_off_c, 0, 56, 55
1, 284460, Note_off_c, 0, 67, 69
1, 284470, Control_c, 0, 67, 70
1, 284480, Note_off_c, 0, 47, 63
1, 284499, Control_c, 0, 67, 69
1, 284529, Control_c, 0, 67, 69
1, 284531, Note_on_c, 0, 65, 74
1, 284532, Note_on_c, 0, 77, 75
1, 284554, Note_off_c, 0, 77, 67
1, 284555, Note_off_c, 0, 65, 70
1, 284558, Control_c, 0, 67, 68
1, 284573, Control_c, 0, 67, 68
1, 284603, Control_c, 0, 67, 67
1, 284630, Note_on_c, 0, 67, 74
1, 284630, Note_on_c, 0, 79, 81
1, 284637, Note_on_c, 0, 39, 54
1, 284646, Note_off_c, 0, 79, 69
1, 284654, Note_off_c, 0, 67, 65
1, 284680, Note_off_c, 0, 39, 63
1, 284766, Control_c, 0, 67, 68
1, 284840, Control_c, 0, 64, 18
1, 284855, Control_c, 0, 64, 44
1, 284870, Control_c, 0, 64, 56
1, 284884, Control_c, 0, 64, 62
1, 284890, Note_on_c, 0, 75, 78
1, 284899, Control_c, 0, 64, 64
1, 284899, Control_c, 0, 67, 67
1, 284900, Note_on_c, 0, 63, 62
1, 284905, Note_on_c, 0, 55, 44
1, 284914, Control_c, 0, 64, 66
1, 284919, Note_on_c, 0, 46, 41
1, 284928, Control_c, 0, 64, 69
1, 284943, Control_c, 0, 64, 73
1, 284958, Control_c, 0, 64, 77
1, 284974, Control_c, 0, 64, 79
1, 284974, Control_c, 0, 67, 67
1, 284990, Control_c, 0, 64, 80
1, 285005, Control_c, 0, 67, 66
1, 285020, Control_c, 0, 64, 81
1, 285068, Note_off_c, 0, 46, 28
1, 285071, Control_c, 0, 64, 81
1, 285086, Control_c, 0, 67, 67
1, 285124, Note_off_c, 0, 55, 37
1, 285131, Note_off_c, 0, 75, 52
1, 285131, Control_c, 0, 64, 82
1, 285171, Note_off_c, 0, 63, 37
1, 285190, Control_c, 0, 64, 82
1, 285247, Note_on_c, 0, 74, 51
1, 285253, Note_on_c, 0, 75, 85
1, 285269, Note_off_c, 0, 74, 65
1, 285272, Note_on_c, 0, 55, 60
1, 285279, Control_c, 0, 67, 66
1, 285280, Note_on_c, 0, 63, 56
1, 285284, Note_on_c, 0, 46, 54
1, 285298, Note_off_c, 0, 63, 63
1, 285298, Note_off_c, 0, 75, 64
1, 285313, Note_off_c, 0, 55, 62
1, 285329, Note_off_c, 0, 46, 57
1, 285352, Control_c, 0, 64, 82
1, 285367, Control_c, 0, 64, 81
1, 285382, Control_c, 0, 64, 78
1, 285382, Control_c, 0, 67, 66
1, 285397, Control_c, 0, 64, 72
1, 285397, Control_c, 0, 67, 65
1, 285412, Control_c, 0, 64, 62
1, 285426, Control_c, 0, 64, 0
1, 285426, Control_c, 0, 67, 65
1, 285441, Control_c, 0, 67, 64
1, 285451, Note_on_c, 0, 67, 82
1, 285453, Note_on_c, 0, 66, 78
1, 285456, Control_c, 0, 67, 63
1, 285457, Note_on_c, 0, 59, 69
1, 285465, Note_on_c, 0, 50, 50
1, 285471, Control_c, 0, 67, 63
1, 285472, Note_off_c, 0, 67, 69
1, 285474, Note_on_c, 0, 43, 37
1, 285475, Note_off_c, 0, 59, 63
1, 285479, Note_off_c, 0, 66, 69
1, 285486, Control_c, 0, 67, 62
1, 285494, Note_off_c, 0, 50, 59
1, 285500, Control_c, 0, 67, 62
1, 285509, Note_off_c, 0, 43, 49
1, 285515, Control_c, 0, 67, 61
1, 285530, Control_c, 0, 67, 61
1, 285664, Control_c, 0, 67, 60
1, 285693, Control_c, 0, 67, 60
1, 285700, Note_on_c, 0, 63, 77
1, 285709, Note_on_c, 0, 55, 49
1, 285709, Note_on_c, 0, 48, 51
1, 285714, Note_on_c, 0, 60, 67
1, 285723, Control_c, 0, 67, 59
1, 285738, Control_c, 0, 67, 58
1, 285752, Control_c, 0, 64, 47
1, 285752, Control_c, 0, 67, 57
1, 285767, Control_c, 0, 64, 59
1, 285767, Control_c, 0, 67, 56
1, 285781, Note_off_c, 0, 63, 62
1, 285783, Control_c, 0, 64, 63
1, 285783, Control_c, 0, 67, 52
1, 285805, Control_c, 0, 64, 65
1, 285805, Control_c, 0, 67, 49
1, 285820, Control_c, 0, 64, 68
1, 285820, Control_c, 0, 67, 44
1, 285834, Note_off_c, 0, 48, 58
1, 285835, Control_c, 0, 64, 71
1, 285835, Control_c, 0, 67, 40
1, 285850, Control_c, 0, 64, 74
1, 285850, Control_c, 0, 67, 38
1, 285864, Control_c, 0, 64, 77
1, 285864, Control_c, 0, 67, 36
1, 285879, Control_c, 0, 64, 78
1, 285879, Control_c, 0, 67, 35
1, 285891, Note_off_c, 0, 60, 35
1, 285894, Control_c, 0, 64, 79
1, 285909, Control_c, 0, 64, 80
1, 285924, Control_c, 0, 67, 35
1, 285968, Control_c, 0, 67, 34
1, 286028, Control_c, 0, 64, 80
1, 286033, Note_on_c, 0, 62, 57
1, 286049, Note_off_c, 0, 55, 40
1, 286066, Note_on_c, 0, 59, 57
1, 286072, Control_c, 0, 64, 81
1, 286073, Note_on_c, 0, 51, 55
1, 286076, Note_on_c, 0, 63, 72
1, 286087, Note_off_c, 0, 59, 58
1, 286087, Control_c, 0, 64, 82
1, 286095, Note_on_c, 0, 44, 50
1, 286098, Note_off_c, 0, 63, 69
1, 286100, Note_off_c, 0, 62, 61
1, 286102, Control_c, 0, 64, 82
1, 286107, Note_off_c, 0, 51, 64
1, 286117, Control_c, 0, 64, 83
1, 286131, Note_off_c, 0, 44, 54
1, 286131, Control_c, 0, 67, 34
1, 286161, Control_c, 0, 67, 33
1, 286175, Control_c, 0, 64, 82
1, 286175, Control_c, 0, 67, 32
1, 286190, Control_c, 0, 64, 80
1, 286190, Control_c, 0, 67, 30
1, 286205, Control_c, 0, 64, 74
1, 286205, Control_c, 0, 67, 28
1, 286220, Control_c, 0, 64, 64
1, 286220, Control_c, 0, 67, 27
1, 286235, Control_c, 0, 64, 0
1, 286235, Control_c, 0, 67, 27
1, 286249, Control_c, 0, 67, 26
1, 286264, Control_c, 0, 67, 26
1, 286266, Note_on_c, 0, 91, 80
1, 286269, Note_on_c, 0, 79, 74
1, 286274, Note_on_c, 0, 39, 61
1, 286279, Control_c, 0, 67, 25
1, 286284, Note_off_c, 0, 91, 68
1, 286287, Note_off_c, 0, 79, 67
1, 286306, Note_off_c, 0, 39, 63
1, 286442, Control_c, 0, 67, 26
1, 286472, Control_c, 0, 67, 26
1, 286500, Control_c, 0, 67, 27
1, 286515, Control_c, 0, 64, 38
1, 286516, Note_on_c, 0, 87, 86
1, 286525, Note_on_c, 0, 75, 73
1, 286527, Note_on_c, 0, 55, 48
1, 286530, Control_c, 0, 64, 59
1, 286530, Control_c, 0, 67, 27
1, 286538, Note_on_c, 0, 46, 43
1, 286553, Control_c, 0, 64, 64
1, 286553, Control_c, 0, 67, 28
1, 286568, Control_c, 0, 64, 66
1, 286568, Control_c, 0, 67, 29
1, 286583, Control_c, 0, 64, 70
1, 286583, Control_c, 0, 67, 29
1, 286598, Control_c, 0, 64, 74
1, 286598, Control_c, 0, 67, 30
1, 286612, Note_off_c, 0, 75, 0
1, 286612, Control_c, 0, 64, 78
1, 286627, Control_c, 0, 64, 82
1, 286642, Control_c, 0, 64, 84
1, 286642, Control_c, 0, 67, 30
1, 286650, Poly_aftertouch_c, 0, 75, 127
1, 286657, Control_c, 0, 64, 84
1, 286657, Control_c, 0, 67, 31
1, 286672, Control_c, 0, 64, 85
1, 286675, Note_off_c, 0, 46, 27
1, 286702, Control_c, 0, 64, 86
1, 286708, Poly_aftertouch_c, 0, 75, 0
1, 286714, Note_off_c, 0, 87, 55
1, 286717, Control_c, 0, 64, 86
1, 286746, Control_c, 0, 64, 87
1, 286746, Control_c, 0, 67, 30
1, 286776, Control_c, 0, 64, 87
1, 286776, Control_c, 0, 67, 30
1, 286782, Note_off_c, 0, 55, 40
1, 286805, Control_c, 0, 64, 88
1, 286820, Control_c, 0, 64, 89
1, 286835, Control_c, 0, 64, 90
1, 286848, Note_on_c, 0, 86, 65
1, 286850, Control_c, 0, 64, 92
1, 286857, Note_on_c, 0, 87, 79
1, 286865, Control_c, 0, 64, 94
1, 286865, Control_c, 0, 67, 30
1, 286872, Note_on_c, 0, 75, 72
1, 286875, Note_off_c, 0, 86, 67
1, 286879, Control_c, 0, 64, 94
1, 286887, Note_on_c, 0, 55, 57
1, 286887, Note_off_c, 0, 87, 64
1, 286894, Control_c, 0, 64, 95
1, 286896, Note_on_c, 0, 46, 54
1, 286896, Note_off_c, 0, 75, 70
1, 286922, Note_off_c, 0, 55, 61
1, 286958, Note_off_c, 0, 46, 54
1, 286983, Control_c, 0, 64, 94
1, 286983, Control_c, 0, 67, 30
1, 286997, Control_c, 0, 64, 92
1, 287012, Control_c, 0, 64, 86
1, 287027, Control_c, 0, 64, 78
1, 287042, Control_c, 0, 64, 66
1, 287047, Note_on_c, 0, 67, 83
1, 287050, Note_on_c, 0, 66, 77
1, 287053, Note_on_c, 0, 59, 71
1, 287057, Control_c, 0, 64, 0
1, 287065, Note_on_c, 0, 43, 48
1, 287068, Note_off_c, 0, 67, 70
1, 287068, Note_off_c, 0, 59, 66
1, 287074, Note_on_c, 0, 50, 42
1, 287076, Note_off_c, 0, 66, 69
1, 287086, Control_c, 0, 67, 29
1, 287103, Note_off_c, 0, 50, 53
1, 287106, Note_off_c, 0, 43, 57
1, 287191, Control_c, 0, 67, 29
1, 287205, Control_c, 0, 67, 29
1, 287235, Control_c, 0, 67, 30
1, 287306, Note_on_c, 0, 63, 83
1, 287320, Note_on_c, 0, 48, 43
1, 287326, Note_on_c, 0, 60, 64
1, 287328, Note_on_c, 0, 55, 42
1, 287331, Control_c, 0, 67, 29
1, 287346, Control_c, 0, 64, 21
1, 287346, Control_c, 0, 67, 29
1, 287360, Control_c, 0, 64, 56
1, 287360, Control_c, 0, 67, 28
1, 287376, Control_c, 0, 64, 62
1, 287376, Control_c, 0, 67, 28
1, 287384, Note_off_c, 0, 63, 63
1, 287391, Control_c, 0, 64, 65
1, 287406, Control_c, 0, 64, 68
1, 287406, Control_c, 0, 67, 27
1, 287421, Control_c, 0, 64, 72
1, 287424, Note_off_c, 0, 48, 35
1, 287435, Control_c, 0, 64, 77
1, 287435, Control_c, 0, 67, 27
1, 287450, Control_c, 0, 64, 80
1, 287465, Control_c, 0, 64, 82
1, 287480, Control_c, 0, 64, 82
1, 287495, Control_c, 0, 64, 83
1, 287510, Control_c, 0, 64, 84
1, 287524, Control_c, 0, 64, 85
1, 287530, Note_off_c, 0, 55, 39
1, 287539, Control_c, 0, 64, 86
1, 287555, Note_off_c, 0, 60, 32
1, 287569, Control_c, 0, 64, 86
1, 287665, Note_on_c, 0, 62, 63
1, 287679, Note_on_c, 0, 63, 80
1, 287683, Note_on_c, 0, 51, 57
1, 287685, Note_on_c, 0, 44, 56
1, 287691, Note_on_c, 0, 59, 61
1, 287708, Note_off_c, 0, 51, 62
1, 287715, Note_off_c, 0, 62, 50
1, 287723, Note_off_c, 0, 44, 63
1, 287724, Note_off_c, 0, 59, 62
1, 287761, Control_c, 0, 64, 86
1, 287791, Control_c, 0, 64, 85
1, 287795, Note_off_c, 0, 63, 58
1, 287806, Control_c, 0, 64, 84
1, 287821, Control_c, 0, 64, 81
1, 287835, Control_c, 0, 64, 76
1, 287835, Control_c, 0, 67, 26
1, 287850, Control_c, 0, 64, 69
1, 287865, Control_c, 0, 64, 58
1, 287876, Note_on_c, 0, 67, 75
1, 287880, Control_c, 0, 64, 0
1, 287885, Note_on_c, 0, 58, 66
1, 287888, Note_on_c, 0, 55, 60
1, 287897, Note_on_c, 0, 51, 62
1, 287903, Note_on_c, 0, 39, 55
1, 287927, Note_off_c, 0, 51, 64
1, 287935, Note_off_c, 0, 55, 57
1, 287935, Note_off_c, 0, 58, 60
1, 287941, Note_off_c, 0, 67, 57
1, 287945, Note_off_c, 0, 39, 62
1, 287954, Control_c, 0, 67, 26
1, 287999, Control_c, 0, 67, 25
1, 288051, Control_c, 0, 67, 26
1, 288066, Control_c, 0, 67, 26
1, 288080, Control_c, 0, 67, 27
1, 288095, Control_c, 0, 67, 27
1, 288110, Control_c, 0, 67, 28
1, 288118, Note_on_c, 0, 63, 70
1, 288124, Note_on_c, 0, 60, 58
1, 288125, Control_c, 0, 64, 49
1, 288125, Control_c, 0, 67, 28
1, 288132, Note_on_c, 0, 55, 51
1, 288134, Note_on_c, 0, 48, 59
1, 288140, Control_c, 0, 64, 62
1, 288140, Control_c, 0, 67, 29
1, 288145, Note_on_c, 0, 36, 43
1, 288154, Control_c, 0, 64, 65
1, 288169, Control_c, 0, 64, 68
1, 288169, Control_c, 0, 67, 28
1, 288185, Control_c, 0, 64, 72
1, 288200, Control_c, 0, 64, 76
1, 288200, Control_c, 0, 67, 28
1, 288202, Note_off_c, 0, 36, 50
1, 288215, Control_c, 0, 64, 80
1, 288230, Control_c, 0, 64, 82
1, 288245, Control_c, 0, 64, 83
1, 288255, Note_off_c, 0, 60, 54
1, 288259, Control_c, 0, 64, 84
1, 288273, Note_off_c, 0, 48, 36
1, 288274, Control_c, 0, 64, 84
1, 288289, Control_c, 0, 67, 28
1, 288303, Control_c, 0, 64, 85
1, 288323, Note_off_c, 0, 63, 52
1, 288326, Note_off_c, 0, 55, 59
1, 288407, Control_c, 0, 67, 28
1, 288496, Control_c, 0, 64, 84
1, 288511, Control_c, 0, 64, 83
1, 288513, Note_on_c, 0, 63, 70
1, 288514, Note_on_c, 0, 59, 44
1, 288516, Note_on_c, 0, 56, 65
1, 288516, Note_on_c, 0, 62, 48
1, 288519, Note_on_c, 0, 32, 64
1, 288521, Note_on_c, 0, 44, 62
1, 288526, Control_c, 0, 64, 82
1, 288541, Control_c, 0, 64, 80
1, 288554, Note_off_c, 0, 44, 63
1, 288554, Note_off_c, 0, 32, 63
1, 288556, Control_c, 0, 64, 79
1, 288570, Control_c, 0, 64, 77
1, 288572, Note_on_c, 0, 66, 7
1, 288585, Control_c, 0, 64, 76
1, 288600, Control_c, 0, 64, 74
1, 288601, Note_off_c, 0, 59, 33
1, 288605, Note_off_c, 0, 56, 61
1, 288615, Control_c, 0, 64, 69
1, 288618, Note_off_c, 0, 66, 53
1, 288630, Control_c, 0, 64, 63
1, 288636, Note_off_c, 0, 63, 58
1, 288644, Control_c, 0, 64, 48
1, 288652, Note_off_c, 0, 62, 33
1, 288659, Control_c, 0, 64, 33
1, 288659, Control_c, 0, 67, 28
1, 288674, Control_c, 0, 64, 0
1, 288689, Control_c, 0, 67, 29
1, 288703, Control_c, 0, 67, 29
1, 288711, Note_on_c, 0, 67, 72
1, 288717, Note_on_c, 0, 58, 66
1, 288718, Control_c, 0, 67, 30
1, 288726, Note_on_c, 0, 55, 59
1, 288726, Note_on_c, 0, 51, 68
1, 288733, Control_c, 0, 67, 31
1, 288734, Note_on_c, 0, 39, 52
1, 288748, Control_c, 0, 67, 31
1, 288763, Control_c, 0, 67, 32
1, 288777, Control_c, 0, 67, 32
1, 288784, Note_off_c, 0, 51, 52
1, 288784, Note_off_c, 0, 58, 61
1, 288787, Note_off_c, 0, 55, 56
1, 288787, Note_off_c, 0, 67, 57
1, 288806, Note_off_c, 0, 39, 59
1, 288815, Control_c, 0, 67, 33
1, 288830, Control_c, 0, 67, 33
1, 288903, Control_c, 0, 67, 33
1, 288918, Control_c, 0, 67, 32
1, 288970, Note_on_c, 0, 63, 65
1, 288980, Note_on_c, 0, 60, 49
1, 288999, Note_on_c, 0, 55, 40
1, 289005, Note_on_c, 0, 48, 44
1, 289008, Control_c, 0, 67, 33
1, 289038, Control_c, 0, 67, 33
1, 289045, Note_on_c, 0, 36, 18
1, 289053, Control_c, 0, 64, 53
1, 289053, Control_c, 0, 67, 34
1, 289068, Control_c, 0, 64, 63
1, 289068, Control_c, 0, 67, 34
1, 289082, Control_c, 0, 64, 66
1, 289082, Control_c, 0, 67, 35
1, 289097, Control_c, 0, 64, 69
1, 289097, Control_c, 0, 67, 36
1, 289112, Control_c, 0, 64, 75
1, 289112, Control_c, 0, 67, 37
1, 289126, Note_off_c, 0, 60, 59
1, 289126, Control_c, 0, 64, 81
1, 289126, Control_c, 0, 67, 38
1, 289141, Control_c, 0, 64, 83
1, 289141, Control_c, 0, 67, 39
1, 289156, Control_c, 0, 64, 84
1, 289156, Control_c, 0, 67, 42
1, 289170, Note_off_c, 0, 36, 35
1, 289171, Control_c, 0, 67, 48
1, 289172, Note_off_c, 0, 48, 38
1, 289186, Control_c, 0, 67, 54
1, 289190, Note_off_c, 0, 63, 53
1, 289200, Control_c, 0, 64, 84
1, 289200, Control_c, 0, 67, 62
1, 289215, Control_c, 0, 67, 71
1, 289230, Control_c, 0, 67, 77
1, 289245, Control_c, 0, 67, 83
1, 289254, Note_off_c, 0, 55, 42
1, 289260, Control_c, 0, 67, 88
1, 289274, Control_c, 0, 67, 92
1, 289289, Control_c, 0, 67, 96
1, 289304, Control_c, 0, 67, 101
1, 289319, Control_c, 0, 67, 106
1, 289334, Control_c, 0, 67, 110
1, 289349, Control_c, 0, 64, 84
1, 289349, Control_c, 0, 67, 112
1, 289364, Control_c, 0, 64, 83
1, 289379, Control_c, 0, 64, 79
1, 289379, Control_c, 0, 67, 113
1, 289393, Control_c, 0, 64, 72
1, 289408, Control_c, 0, 64, 54
1, 289411, Note_on_c, 0, 59, 45
1, 289411, Note_on_c, 0, 62, 47
1, 289423, Control_c, 0, 64, 0
1, 289423, Control_c, 0, 67, 113
1, 289432, Note_on_c, 0, 63, 65
1, 289436, Note_on_c, 0, 32, 48
1, 289438, Control_c, 0, 67, 115
1, 289442, Note_on_c, 0, 56, 51
1, 289449, Note_on_c, 0, 44, 33
1, 289453, Control_c, 0, 67, 118
1, 289467, Control_c, 0, 67, 123
1, 289482, Control_c, 0, 67, 127
1, 289497, Control_c, 0, 64, 36
1, 289497, Control_c, 0, 67, 127
1, 289498, Note_off_c, 0, 32, 59
1, 289501, Note_off_c, 0, 59, 58
1, 289507, Note_off_c, 0, 44, 44
1, 289511, Control_c, 0, 64, 64
1, 289526, Control_c, 0, 64, 69
1, 289548, Control_c, 0, 64, 73
1, 289563, Control_c, 0, 64, 75
1, 289578, Control_c, 0, 64, 78
1, 289593, Control_c, 0, 64, 79
1, 289607, Note_off_c, 0, 56, 57
1, 289608, Control_c, 0, 64, 80
1, 289623, Control_c, 0, 64, 81
1, 289638, Control_c, 0, 64, 81
1, 289653, Control_c, 0, 64, 82
1, 289653, Note_off_c, 0, 62, 37
1, 289674, Note_off_c, 0, 63, 39
1, 289712, Control_c, 0, 64, 81
1, 289726, Control_c, 0, 64, 77
1, 289727, Note_on_c, 0, 58, 57
1, 289731, Note_on_c, 0, 67, 66
1, 289741, Control_c, 0, 64, 66
1, 289742, Note_on_c, 0, 55, 50
1, 289750, Note_on_c, 0, 39, 42
1, 289751, Note_on_c, 0, 51, 38
1, 289756, Control_c, 0, 64, 0
1, 289861, Control_c, 0, 64, 47
1, 289876, Control_c, 0, 64, 63
1, 289891, Control_c, 0, 64, 67
1, 289905, Control_c, 0, 64, 70
1, 289920, Control_c, 0, 64, 75
1, 289935, Control_c, 0, 64, 77
1, 289949, Control_c, 0, 64, 79
1, 289964, Control_c, 0, 64, 81
1, 289979, Control_c, 0, 64, 82
1, 290009, Control_c, 0, 64, 82
1, 290103, Note_off_c, 0, 51, 37
1, 290126, Note_off_c, 0, 58, 64
1, 290213, Note_off_c, 0, 39, 34
1, 290216, Note_off_c, 0, 67, 45
1, 290218, Note_off_c, 0, 55, 36
1, 290445, Control_c, 0, 64, 81
1, 290455, Note_on_c, 0, 63, 56
1, 290460, Control_c, 0, 64, 79
1, 290469, Note_on_c, 0, 60, 47
1, 290471, Note_on_c, 0, 55, 42
1, 290475, Control_c, 0, 64, 74
1, 290480, Note_on_c, 0, 48, 36
1, 290490, Control_c, 0, 64, 66
1, 290490, Note_on_c, 0, 36, 31
1, 290505, Control_c, 0, 64, 25
1, 290520, Control_c, 0, 64, 0
1, 291061, Control_c, 0, 64, 32
1, 291076, Control_c, 0, 64, 56
1, 291091, Control_c, 0, 64, 61
1, 291097, Note_off_c, 0, 60, 23
1, 291105, Control_c, 0, 64, 63
1, 291120, Control_c, 0, 64, 65
1, 291135, Control_c, 0, 64, 66
1, 291150, Control_c, 0, 64, 68
1, 291165, Control_c, 0, 64, 69
1, 291167, Note_off_c, 0, 48, 29
1, 291179, Control_c, 0, 64, 70
1, 291187, Note_off_c, 0, 36, 39
1, 291194, Control_c, 0, 64, 71
1, 291230, Note_off_c, 0, 55, 23
1, 291262, Note_off_c, 0, 63, 34
1, 291283, Control_c, 0, 64, 71
1, 291313, Control_c, 0, 64, 72
1, 291343, Control_c, 0, 64, 72
1, 291358, Control_c, 0, 64, 73
1, 291373, Control_c, 0, 64, 74
1, 291388, Control_c, 0, 64, 75
1, 291403, Control_c, 0, 64, 75
1, 291417, Control_c, 0, 64, 76
1, 291595, Control_c, 0, 64, 76
1, 291610, Control_c, 0, 64, 77
1, 291625, Control_c, 0, 64, 77
1, 291640, Control_c, 0, 64, 78
1, 291655, Control_c, 0, 64, 79
1, 291669, Control_c, 0, 64, 79
1, 291740, Note_on_c, 0, 32, 25
1, 291764, Note_on_c, 0, 44, 4
1, 291796, Control_c, 0, 64, 79
1, 291811, Control_c, 0, 64, 77
1, 291826, Control_c, 0, 64, 74
1, 291841, Note_on_c, 0, 62, 47
1, 291841, Control_c, 0, 64, 68
1, 291856, Control_c, 0, 64, 61
1, 291870, Control_c, 0, 64, 45
1, 291885, Control_c, 0, 64, 18
1, 291900, Control_c, 0, 64, 0
1, 291969, Note_off_c, 0, 62, 56
1, 291972, Note_on_c, 0, 63, 49
1, 291989, Note_on_c, 0, 59, 28
1, 292005, Note_on_c, 0, 56, 18
1, 292197, Control_c, 0, 64, 42
1, 292212, Control_c, 0, 64, 57
1, 292226, Control_c, 0, 64, 60
1, 292235, Note_off_c, 0, 44, 40
1, 292241, Control_c, 0, 64, 63
1, 292256, Control_c, 0, 64, 65
1, 292271, Control_c, 0, 64, 68
1, 292285, Note_off_c, 0, 32, 42
1, 292286, Control_c, 0, 64, 71
1, 292300, Control_c, 0, 64, 73
1, 292315, Control_c, 0, 64, 75
1, 292330, Control_c, 0, 64, 75
1, 292343, Note_off_c, 0, 59, 39
1, 292345, Control_c, 0, 64, 76
1, 292374, Control_c, 0, 64, 76
1, 292389, Control_c, 0, 64, 77
1, 292404, Control_c, 0, 64, 77
1, 292419, Control_c, 0, 64, 78
1, 292449, Control_c, 0, 64, 78
1, 292580, Note_off_c, 0, 56, 35
1, 292750, Note_on_c, 0, 27, 19
1, 292767, Control_c, 0, 64, 78
1, 292780, Note_on_c, 0, 39, 10
1, 292782, Control_c, 0, 64, 76
1, 292797, Control_c, 0, 64, 71
1, 292812, Control_c, 0, 64, 64
1, 292826, Control_c, 0, 64, 27
1, 292828, Note_off_c, 0, 63, 39
1, 292841, Control_c, 0, 64, 0
1, 292861, Note_on_c, 0, 55, 37
1, 292900, Control_c, 0, 64, 42
1, 292915, Control_c, 0, 64, 55
1, 292930, Control_c, 0, 64, 61
1, 292944, Control_c, 0, 64, 64
1, 292959, Control_c, 0, 64, 67
1, 292975, Control_c, 0, 64, 69
1, 292990, Control_c, 0, 64, 72
1, 293005, Control_c, 0, 64, 73
1, 293020, Control_c, 0, 64, 75
1, 293035, Control_c, 0, 64, 76
1, 293049, Control_c, 0, 64, 76
1, 293064, Control_c, 0, 64, 77
1, 293079, Control_c, 0, 64, 78
1, 293094, Control_c, 0, 64, 78
1, 293099, Note_on_c, 0, 63, 38
1, 293108, Control_c, 0, 64, 79
1, 293117, Note_off_c, 0, 55, 40
1, 293123, Control_c, 0, 64, 79
1, 293144, Note_off_c, 0, 27, 40
1, 293153, Control_c, 0, 64, 80
1, 293294, Note_off_c, 0, 39, 27
1, 293489, Note_on_c, 0, 70, 52
1, 293569, Note_off_c, 0, 70, 0
1, 293569, Note_on_c, 0, 70, 3
1, 293573, Control_c, 0, 64, 79
1, 293603, Control_c, 0, 64, 79
1, 293618, Control_c, 0, 64, 78
1, 293633, Control_c, 0, 64, 77
1, 293662, Control_c, 0, 64, 77
1, 293737, Control_c, 0, 64, 76
1, 293782, Control_c, 0, 64, 76
1, 293796, Control_c, 0, 64, 75
1, 293811, Control_c, 0, 64, 74
1, 293826, Control_c, 0, 64, 71
1, 293841, Control_c, 0, 64, 65
1, 293856, Control_c, 0, 64, 56
1, 293871, Control_c, 0, 64, 40
1, 293876, Note_on_c, 0, 43, 26
1, 293886, Control_c, 0, 64, 31
1, 293901, Control_c, 0, 64, 30
1, 293930, Control_c, 0, 64, 28
1, 293945, Control_c, 0, 64, 18
1, 293946, Note_off_c, 0, 43, 41
1, 293960, Control_c, 0, 64, 0
1, 293963, Note_on_c, 0, 44, 47
1, 294014, Note_off_c, 0, 44, 64
1, 294075, Note_on_c, 0, 45, 44
1, 294106, Note_off_c, 0, 45, 56
1, 294113, Note_off_c, 0, 63, 37
1, 294172, Note_on_c, 0, 46, 51
1, 294231, Note_off_c, 0, 46, 56
1, 294265, Note_on_c, 0, 51, 44
1, 294296, Note_off_c, 0, 51, 45
1, 294362, Note_on_c, 0, 55, 58
1, 294408, Note_off_c, 0, 55, 59
1, 294458, Note_on_c, 0, 56, 53
1, 294500, Note_off_c, 0, 56, 56
1, 294543, Note_on_c, 0, 57, 46
1, 294602, Note_off_c, 0, 57, 53
1, 294644, Note_on_c, 0, 58, 50
1, 294667, Note_off_c, 0, 70, 34
1, 294678, Note_off_c, 0, 58, 60
1, 294730, Note_on_c, 0, 63, 50
1, 294799, Note_off_c, 0, 63, 51
1, 294837, Note_on_c, 0, 67, 40
1, 294914, Note_off_c, 0, 67, 40
1, 294923, Note_on_c, 0, 68, 60
1, 294942, Note_off_c, 0, 68, 65
1, 295016, Note_on_c, 0, 69, 57
1, 295045, Note_off_c, 0, 69, 60
1, 295099, Note_on_c, 0, 70, 61
1, 295146, Note_off_c, 0, 70, 55
1, 295200, Note_on_c, 0, 75, 53
1, 295220, Note_off_c, 0, 75, 65
1, 295302, Note_on_c, 0, 79, 55
1, 295328, Note_off_c, 0, 79, 57
1, 295400, Note_on_c, 0, 80, 39
1, 295431, Note_off_c, 0, 80, 56
1, 295483, Note_on_c, 0, 81, 52
1, 295519, Note_off_c, 0, 81, 54
1, 295590, Note_on_c, 0, 82, 51
1, 295615, Note_off_c, 0, 82, 65
1, 295674, Note_on_c, 0, 87, 58
1, 295700, Note_off_c, 0, 87, 65
1, 295774, Note_on_c, 0, 91, 60
1, 295820, Note_off_c, 0, 91, 56
1, 295883, Note_on_c, 0, 92, 24
1, 295918, Note_off_c, 0, 92, 56
1, 295961, Note_on_c, 0, 93, 61
1, 296008, Note_off_c, 0, 93, 49
1, 296066, Note_on_c, 0, 94, 56
1, 296199, Note_off_c, 0, 94, 35
1, 296222, Note_on_c, 0, 99, 59
1, 296261, Note_off_c, 0, 99, 62
1, 297170, Control_c, 0, 67, 127
1, 297185, Control_c, 0, 67, 116
1, 297200, Control_c, 0, 67, 105
1, 297214, Control_c, 0, 67, 91
1, 297229, Control_c, 0, 67, 78
1, 297244, Control_c, 0, 67, 62
1, 297259, Control_c, 0, 67, 45
1, 297274, Control_c, 0, 67, 29
1, 297288, Control_c, 0, 67, 14
1, 297303, Control_c, 0, 67, 0
1, 297820, Note_on_c, 0, 82, 103
1, 297822, Note_on_c, 0, 70, 102
1, 297823, Note_on_c, 0, 58, 94
1, 297823, Note_on_c, 0, 46, 98
1, 297841, Note_off_c, 0, 58, 70
1, 297841, Note_off_c, 0, 70, 64
1, 297850, Note_off_c, 0, 46, 65
1, 297854, Note_off_c, 0, 82, 59
1, 298048, Note_on_c, 0, 70, 91
1, 298050, Note_on_c, 0, 82, 90
1, 298055, Note_on_c, 0, 46, 80
1, 298057, Note_on_c, 0, 58, 75
1, 298068, Note_off_c, 0, 70, 66
1, 298068, Note_off_c, 0, 82, 68
1, 298077, Note_off_c, 0, 58, 67
1, 298080, Note_off_c, 0, 46, 66
1, 298130, Note_on_c, 0, 58, 81
1, 298136, Note_on_c, 0, 46, 70
1, 298145, Note_on_c, 0, 70, 83
1, 298145, Note_on_c, 0, 82, 88
1, 298153, Note_off_c, 0, 58, 69
1, 298163, Note_off_c, 0, 70, 71
1, 298165, Note_off_c, 0, 46, 64
1, 298171, Note_off_c, 0, 82, 68
1, 298256, Note_on_c, 0, 87, 103
1, 298258, Note_on_c, 0, 75, 109
1, 298259, Note_on_c, 0, 63, 103
1, 298264, Note_on_c, 0, 51, 94
1, 298276, Note_on_c, 0, 85, 60
1, 298288, Control_c, 0, 64, 82
1, 298291, Note_on_c, 0, 74, 50
1, 298296, Note_off_c, 0, 85, 44
1, 298303, Control_c, 0, 64, 127
1, 298314, Note_off_c, 0, 74, 65
1, 298328, Note_off_c, 0, 87, 59
1, 298337, Note_off_c, 0, 63, 62
1, 298342, Note_off_c, 0, 75, 56
1, 298363, Note_off_c, 0, 51, 49
1, 298603, Note_on_c, 0, 87, 87
1, 298610, Note_on_c, 0, 63, 75
1, 298610, Note_on_c, 0, 75, 81
1, 298613, Note_on_c, 0, 51, 73
1, 298624, Control_c, 0, 64, 117
1, 298625, Note_off_c, 0, 87, 66
1, 298631, Note_off_c, 0, 63, 72
1, 298637, Note_off_c, 0, 75, 67
1, 298638, Note_off_c, 0, 51, 66
1, 298639, Control_c, 0, 64, 101
1, 298654, Control_c, 0, 64, 90
1, 298668, Control_c, 0, 64, 79
1, 298683, Control_c, 0, 64, 69
1, 298698, Control_c, 0, 64, 46
1, 298700, Note_on_c, 0, 85, 89
1, 298706, Note_on_c, 0, 61, 69
1, 298706, Note_on_c, 0, 73, 86
1, 298710, Note_on_c, 0, 49, 76
1, 298712, Control_c, 0, 64, 0
1, 298721, Note_off_c, 0, 85, 68
1, 298727, Note_off_c, 0, 73, 67
1, 298733, Note_off_c, 0, 61, 66
1, 298736, Note_off_c, 0, 49, 65
1, 298799, Note_on_c, 0, 83, 85
1, 298803, Note_on_c, 0, 71, 84
1, 298804, Note_on_c, 0, 59, 63
1, 298810, Note_on_c, 0, 47, 66
1, 298819, Note_off_c, 0, 83, 66
1, 298822, Note_off_c, 0, 59, 64
1, 298824, Note_off_c, 0, 71, 68
1, 298834, Note_off_c, 0, 47, 60
1, 298891, Note_on_c, 0, 82, 80
1, 298897, Note_on_c, 0, 46, 79
1, 298897, Note_on_c, 0, 70, 92
1, 298900, Note_on_c, 0, 58, 67
1, 298911, Note_off_c, 0, 82, 70
1, 298913, Note_off_c, 0, 70, 72
1, 298917, Note_off_c, 0, 58, 66
1, 298923, Note_off_c, 0, 46, 65
1, 298985, Note_on_c, 0, 80, 90
1, 298989, Note_on_c, 0, 56, 76
1, 298989, Note_on_c, 0, 44, 74
1, 298990, Note_on_c, 0, 68, 90
1, 299008, Note_off_c, 0, 68, 72
1, 299010, Note_off_c, 0, 44, 65
1, 299011, Note_off_c, 0, 80, 63
1, 299014, Note_off_c, 0, 56, 66
1, 299087, Note_on_c, 0, 46, 92
1, 299087, Note_on_c, 0, 82, 92
1, 299089, Note_on_c, 0, 70, 95
1, 299092, Note_on_c, 0, 58, 71
1, 299102, Note_off_c, 0, 82, 74
1, 299107, Note_off_c, 0, 70, 69
1, 299108, Note_off_c, 0, 58, 67
1, 299111, Note_off_c, 0, 46, 66
1, 299180, Note_on_c, 0, 51, 85
1, 299183, Note_on_c, 0, 75, 93
1, 299184, Note_on_c, 0, 63, 96
1, 299187, Note_on_c, 0, 39, 76
1, 299204, Note_off_c, 0, 51, 68
1, 299207, Note_off_c, 0, 63, 65
1, 299207, Note_off_c, 0, 75, 62
1, 299218, Note_off_c, 0, 39, 65
1, 299284, Note_on_c, 0, 51, 89
1, 299287, Note_on_c, 0, 39, 86
1, 299288, Note_on_c, 0, 75, 102
1, 299293, Note_on_c, 0, 63, 95
1, 299313, Note_off_c, 0, 63, 69
1, 299316, Note_off_c, 0, 39, 64
1, 299317, Note_off_c, 0, 51, 64
1, 299332, Note_off_c, 0, 75, 61
1, 299522, Note_on_c, 0, 70, 84
1, 299526, Note_on_c, 0, 67, 76
1, 299528, Note_on_c, 0, 63, 60
1, 299544, Note_off_c, 0, 70, 66
1, 299548, Note_off_c, 0, 67, 67
1, 299558, Note_off_c, 0, 63, 66
1, 299741, Note_on_c, 0, 70, 80
1, 299743, Control_c, 0, 67, 9
1, 299745, Note_on_c, 0, 61, 56
1, 299755, Note_on_c, 0, 63, 43
1, 299755, Note_on_c, 0, 67, 50
1, 299758, Control_c, 0, 67, 11
1, 299770, Note_off_c, 0, 70, 61
1, 299773, Control_c, 0, 67, 13
1, 299777, Note_off_c, 0, 67, 59
1, 299781, Note_off_c, 0, 63, 55
1, 299788, Note_off_c, 0, 61, 59
1, 299788, Control_c, 0, 67, 16
1, 299802, Control_c, 0, 67, 18
1, 299817, Control_c, 0, 67, 20
1, 299832, Control_c, 0, 67, 22
1, 299847, Control_c, 0, 67, 25
1, 299848, Note_on_c, 0, 70, 72
1, 299861, Control_c, 0, 67, 27
1, 299872, Note_on_c, 0, 61, 34
1, 299874, Note_on_c, 0, 63, 33
1, 299876, Control_c, 0, 67, 29
1, 299891, Control_c, 0, 67, 32
1, 299906, Control_c, 0, 67, 35
1, 299907, Note_off_c, 0, 63, 45
1, 299913, Note_off_c, 0, 61, 50
1, 299913, Note_off_c, 0, 70, 57
1, 299921, Control_c, 0, 67, 40
1, 299935, Control_c, 0, 67, 45
1, 299950, Control_c, 0, 67, 49
1, 299965, Control_c, 0, 67, 52
1, 299980, Control_c, 0, 67, 56
1, 299995, Control_c, 0, 67, 59
1, 300004, Note_on_c, 0, 75, 77
1, 300009, Control_c, 0, 67, 62
1, 300012, Note_on_c, 0, 59, 38
1, 300014, Note_on_c, 0, 66, 64
1, 300016, Note_on_c, 0, 63, 42
1, 300024, Control_c, 0, 67, 65
1, 300047, Control_c, 0, 67, 67
1, 300061, Control_c, 0, 64, 60
1, 300061, Control_c, 0, 67, 69
1, 300076, Control_c, 0, 64, 66
1, 300076, Control_c, 0, 67, 71
1, 300091, Control_c, 0, 64, 71
1, 300091, Control_c, 0, 67, 72
1, 300101, Note_off_c, 0, 66, 0
1, 300101, Note_on_c, 0, 66, 15
1, 300106, Control_c, 0, 64, 77
1, 300106, Control_c, 0, 67, 74
1, 300121, Control_c, 0, 64, 83
1, 300121, Control_c, 0, 67, 74
1, 300135, Control_c, 0, 64, 86
1, 300135, Control_c, 0, 67, 75
1, 300150, Control_c, 0, 64, 88
1, 300166, Control_c, 0, 64, 89
1, 300181, Control_c, 0, 64, 90
1, 300196, Control_c, 0, 64, 91
1, 300211, Control_c, 0, 64, 92
1, 300211, Control_c, 0, 67, 74
1, 300219, Note_off_c, 0, 63, 41
1, 300226, Control_c, 0, 64, 92
1, 300240, Control_c, 0, 64, 93
1, 300240, Control_c, 0, 67, 74
1, 300243, Note_off_c, 0, 66, 43
1, 300250, Note_off_c, 0, 75, 53
1, 300255, Control_c, 0, 64, 93
1, 300255, Control_c, 0, 67, 73
1, 300280, Note_off_c, 0, 59, 31
1, 300299, Control_c, 0, 67, 73
1, 300314, Control_c, 0, 64, 93
1, 300329, Control_c, 0, 64, 91
1, 300332, Note_on_c, 0, 59, 33
1, 300344, Note_on_c, 0, 75, 71
1, 300344, Control_c, 0, 64, 85
1, 300344, Control_c, 0, 67, 72
1, 300345, Note_on_c, 0, 66, 66
1, 300358, Control_c, 0, 64, 77
1, 300358, Control_c, 0, 67, 72
1, 300360, Note_on_c, 0, 63, 41
1, 300373, Note_off_c, 0, 66, 68
1, 300373, Control_c, 0, 64, 65
1, 300377, Note_off_c, 0, 75, 59
1, 300383, Note_off_c, 0, 59, 45
1, 300388, Control_c, 0, 64, 0
1, 300388, Control_c, 0, 67, 71
1, 300394, Note_off_c, 0, 63, 50
1, 300403, Control_c, 0, 67, 71
1, 300433, Note_on_c, 0, 73, 87
1, 300441, Note_on_c, 0, 58, 57
1, 300450, Note_on_c, 0, 67, 66
1, 300476, Note_off_c, 0, 73, 61
1, 300478, Note_off_c, 0, 67, 66
1, 300491, Control_c, 0, 67, 70
1, 300506, Control_c, 0, 67, 70
1, 300519, Note_off_c, 0, 58, 57
1, 300531, Note_on_c, 0, 61, 57
1, 300536, Control_c, 0, 67, 69
1, 300537, Note_on_c, 0, 70, 81
1, 300551, Control_c, 0, 67, 69
1, 300575, Note_off_c, 0, 61, 60
1, 300578, Note_off_c, 0, 70, 63
1, 300624, Note_on_c, 0, 56, 50
1, 300625, Control_c, 0, 67, 68
1, 300629, Note_on_c, 0, 71, 79
1, 300630, Note_on_c, 0, 63, 72
1, 300640, Control_c, 0, 67, 68
1, 300655, Control_c, 0, 67, 67
1, 300659, Note_off_c, 0, 63, 66
1, 300664, Note_off_c, 0, 71, 56
1, 300676, Note_off_c, 0, 56, 56
1, 300684, Control_c, 0, 67, 67
1, 300699, Control_c, 0, 67, 66
1, 300703, Note_on_c, 0, 59, 63
1, 300713, Control_c, 0, 67, 65
1, 300721, Note_on_c, 0, 68, 75
1, 300728, Control_c, 0, 67, 65
1, 300736, Note_off_c, 0, 59, 62
1, 300743, Control_c, 0, 67, 63
1, 300757, Control_c, 0, 67, 62
1, 300759, Note_off_c, 0, 68, 64
1, 300780, Control_c, 0, 67, 61
1, 300795, Control_c, 0, 67, 60
1, 300810, Control_c, 0, 67, 58
1, 300813, Note_on_c, 0, 55, 65
1, 300825, Control_c, 0, 67, 56
1, 300825, Note_on_c, 0, 70, 84
1, 300830, Note_on_c, 0, 63, 72
1, 300839, Control_c, 0, 67, 53
1, 300852, Note_off_c, 0, 55, 60
1, 300854, Control_c, 0, 67, 49
1, 300855, Note_off_c, 0, 63, 69
1, 300855, Note_off_c, 0, 70, 56
1, 300869, Control_c, 0, 67, 46
1, 300883, Control_c, 0, 67, 44
1, 300898, Control_c, 0, 67, 43
1, 300928, Note_on_c, 0, 58, 48
1, 300928, Control_c, 0, 67, 43
1, 300930, Note_on_c, 0, 63, 76
1, 300943, Control_c, 0, 67, 42
1, 300959, Control_c, 0, 67, 40
1, 300962, Note_off_c, 0, 58, 57
1, 300971, Note_off_c, 0, 63, 61
1, 300974, Control_c, 0, 67, 37
1, 300988, Control_c, 0, 67, 33
1, 301003, Control_c, 0, 67, 30
1, 301018, Control_c, 0, 67, 27
1, 301033, Control_c, 0, 67, 23
1, 301048, Control_c, 0, 67, 19
1, 301053, Note_on_c, 0, 63, 62
1, 301062, Control_c, 0, 67, 13
1, 301077, Control_c, 0, 67, 0
1, 301104, Note_off_c, 0, 63, 55
1, 301106, Control_c, 0, 64, 18
1, 301121, Control_c, 0, 64, 62
1, 301136, Control_c, 0, 64, 65
1, 301151, Control_c, 0, 64, 66
1, 301166, Control_c, 0, 64, 68
1, 301180, Control_c, 0, 64, 71
1, 301195, Control_c, 0, 64, 75
1, 301210, Control_c, 0, 64, 78
1, 301225, Control_c, 0, 64, 77
1, 301240, Control_c, 0, 64, 76
1, 301254, Control_c, 0, 64, 72
1, 301269, Control_c, 0, 64, 64
1, 301284, Control_c, 0, 64, 52
1, 301297, Note_on_c, 0, 70, 72
1, 301299, Control_c, 0, 64, 60
1, 301309, Note_on_c, 0, 63, 50
1, 301314, Control_c, 0, 64, 66
1, 301320, Note_on_c, 0, 67, 49
1, 301329, Control_c, 0, 64, 70
1, 301344, Control_c, 0, 64, 75
1, 301359, Control_c, 0, 64, 76
1, 301373, Control_c, 0, 64, 77
1, 301394, Note_off_c, 0, 63, 49
1, 301416, Note_off_c, 0, 67, 55
1, 301422, Note_off_c, 0, 70, 60
1, 301497, Note_on_c, 0, 61, 61
1, 301507, Note_on_c, 0, 63, 61
1, 301514, Note_on_c, 0, 70, 72
1, 301529, Control_c, 0, 64, 75
1, 301530, Note_on_c, 0, 67, 61
1, 301535, Note_off_c, 0, 63, 61
1, 301542, Note_off_c, 0, 61, 61
1, 301544, Control_c, 0, 64, 73
1, 301548, Note_off_c, 0, 67, 64
1, 301550, Note_off_c, 0, 70, 66
1, 301559, Control_c, 0, 64, 67
1, 301574, Control_c, 0, 64, 54
1, 301588, Control_c, 0, 64, 0
1, 301611, Note_on_c, 0, 63, 60
1, 301617, Note_on_c, 0, 61, 55
1, 301620, Note_on_c, 0, 70, 78
1, 301625, Note_on_c, 0, 67, 59
1, 301636, Note_off_c, 0, 63, 64
1, 301656, Note_off_c, 0, 67, 65
1, 301657, Note_off_c, 0, 61, 61
1, 301688, Note_off_c, 0, 70, 59
1, 301722, Control_c, 0, 64, 54
1, 301729, Note_on_c, 0, 63, 51
1, 301734, Note_on_c, 0, 75, 84
1, 301737, Control_c, 0, 64, 66
1, 301740, Note_on_c, 0, 66, 75
1, 301743, Note_on_c, 0, 59, 48
1, 301752, Control_c, 0, 64, 72
1, 301767, Control_c, 0, 64, 78
1, 301782, Control_c, 0, 64, 84
1, 301787, Note_off_c, 0, 66, 58
1, 301797, Control_c, 0, 64, 87
1, 301812, Control_c, 0, 64, 89
1, 301827, Control_c, 0, 64, 90
1, 301842, Control_c, 0, 64, 91
1, 301857, Control_c, 0, 64, 91
1, 301871, Control_c, 0, 64, 92
1, 301886, Control_c, 0, 64, 93
1, 301901, Control_c, 0, 64, 94
1, 301912, Note_off_c, 0, 63, 43
1, 301916, Control_c, 0, 64, 94
1, 301949, Note_off_c, 0, 75, 64
1, 301951, Note_off_c, 0, 59, 34
1, 301952, Note_on_c, 0, 67, 79
1, 301998, Note_off_c, 0, 67, 62
1, 302004, Control_c, 0, 64, 93
1, 302019, Control_c, 0, 64, 91
1, 302024, Note_on_c, 0, 63, 56
1, 302034, Control_c, 0, 64, 87
1, 302041, Note_on_c, 0, 59, 38
1, 302048, Control_c, 0, 64, 81
1, 302049, Note_on_c, 0, 68, 77
1, 302056, Note_off_c, 0, 63, 58
1, 302063, Control_c, 0, 64, 74
1, 302076, Note_off_c, 0, 68, 65
1, 302077, Note_off_c, 0, 59, 49
1, 302078, Control_c, 0, 64, 62
1, 302093, Control_c, 0, 64, 0
1, 302136, Note_on_c, 0, 58, 66
1, 302142, Note_on_c, 0, 73, 73
1, 302155, Note_on_c, 0, 64, 55
1, 302168, Note_on_c, 0, 68, 47
1, 302170, Note_off_c, 0, 58, 67
1, 302171, Note_off_c, 0, 73, 64
1, 302176, Note_off_c, 0, 64, 59
1, 302195, Note_off_c, 0, 68, 53
1, 302226, Note_on_c, 0, 61, 62
1, 302247, Note_on_c, 0, 71, 66
1, 302259, Note_off_c, 0, 61, 64
1, 302265, Note_off_c, 0, 71, 65
1, 302335, Note_on_c, 0, 51, 58
1, 302345, Note_on_c, 0, 70, 75
1, 302352, Note_on_c, 0, 61, 69
1, 302372, Note_off_c, 0, 70, 63
1, 302381, Note_off_c, 0, 61, 65
1, 302407, Note_off_c, 0, 51, 56
1, 302441, Note_on_c, 0, 55, 62
1, 302442, Note_on_c, 0, 63, 71
1, 302469, Note_off_c, 0, 55, 66
1, 302469, Note_off_c, 0, 63, 68
1, 302546, Note_on_c, 0, 68, 70
1, 302553, Note_on_c, 0, 56, 59
1, 302562, Note_on_c, 0, 63, 57
1, 302569, Note_on_c, 0, 59, 36
1, 302575, Note_off_c, 0, 68, 66
1, 302581, Note_off_c, 0, 63, 62
1, 302586, Note_off_c, 0, 56, 63
1, 302599, Note_off_c, 0, 59, 47
1, 302651, Note_on_c, 0, 63, 74
1, 302676, Note_off_c, 0, 63, 68
1, 302739, Control_c, 0, 64, 63
1, 302748, Note_on_c, 0, 63, 77
1, 302753, Control_c, 0, 64, 69
1, 302757, Note_on_c, 0, 68, 75
1, 302764, Note_on_c, 0, 56, 67
1, 302768, Control_c, 0, 64, 72
1, 302772, Note_off_c, 0, 63, 70
1, 302782, Note_off_c, 0, 68, 68
1, 302783, Control_c, 0, 64, 73
1, 302794, Note_off_c, 0, 56, 64
1, 302798, Control_c, 0, 64, 73
1, 302827, Control_c, 0, 64, 72
1, 302842, Control_c, 0, 64, 70
1, 302857, Control_c, 0, 64, 65
1, 302871, Control_c, 0, 64, 54
1, 302886, Control_c, 0, 64, 0
1, 302980, Note_on_c, 0, 82, 98
1, 302981, Note_on_c, 0, 70, 96
1, 302986, Note_on_c, 0, 58, 81
1, 302992, Note_on_c, 0, 46, 84
1, 303001, Note_off_c, 0, 70, 65
1, 303007, Note_off_c, 0, 82, 59
1, 303010, Note_off_c, 0, 58, 67
1, 303029, Note_off_c, 0, 46, 63
1, 303211, Note_on_c, 0, 46, 76
1, 303213, Note_on_c, 0, 58, 73
1, 303215, Note_on_c, 0, 82, 84
1, 303216, Note_on_c, 0, 70, 89
1, 303232, Note_off_c, 0, 82, 72
1, 303234, Note_off_c, 0, 70, 72
1, 303240, Note_off_c, 0, 58, 69
1, 303243, Note_off_c, 0, 46, 59
1, 303298, Note_on_c, 0, 58, 71
1, 303311, Note_on_c, 0, 82, 80
1, 303312, Note_on_c, 0, 70, 78
1, 303314, Note_on_c, 0, 46, 42
1, 303326, Note_off_c, 0, 58, 68
1, 303335, Note_off_c, 0, 70, 70
1, 303336, Note_off_c, 0, 82, 64
1, 303347, Note_off_c, 0, 46, 50
1, 303422, Note_on_c, 0, 87, 95
1, 303423, Note_on_c, 0, 75, 103
1, 303424, Note_on_c, 0, 63, 96
1, 303428, Note_on_c, 0, 51, 89
1, 303439, Note_on_c, 0, 85, 63
1, 303457, Control_c, 0, 64, 102
1, 303460, Note_off_c, 0, 85, 42
1, 303463, Note_off_c, 0, 87, 68
1, 303472, Control_c, 0, 64, 127
1, 303508, Note_off_c, 0, 63, 61
1, 303508, Note_off_c, 0, 75, 57
1, 303549, Note_off_c, 0, 51, 47
1, 303746, Note_on_c, 0, 87, 79
1, 303751, Note_on_c, 0, 75, 75
1, 303752, Note_on_c, 0, 63, 71
1, 303760, Note_on_c, 0, 51, 64
1, 303775, Note_off_c, 0, 87, 66
1, 303782, Note_off_c, 0, 75, 70
1, 303786, Note_off_c, 0, 63, 67
1, 303793, Note_off_c, 0, 51, 68
1, 303835, Control_c, 0, 64, 121
1, 303850, Control_c, 0, 64, 106
1, 303855, Note_on_c, 0, 85, 84
1, 303860, Note_on_c, 0, 61, 73
1, 303860, Note_on_c, 0, 73, 86
1, 303865, Note_on_c, 0, 49, 74
1, 303865, Control_c, 0, 64, 95
1, 303872, Note_off_c, 0, 85, 73
1, 303879, Note_off_c, 0, 73, 72
1, 303880, Control_c, 0, 64, 84
1, 303887, Note_off_c, 0, 61, 67
1, 303890, Note_off_c, 0, 49, 66
1, 303895, Control_c, 0, 64, 70
1, 303909, Control_c, 0, 64, 25
1, 303924, Control_c, 0, 64, 0
1, 303955, Note_on_c, 0, 83, 81
1, 303958, Note_on_c, 0, 71, 80
1, 303958, Note_on_c, 0, 59, 64
1, 303966, Note_on_c, 0, 47, 62
1, 303973, Note_off_c, 0, 83, 70
1, 303976, Note_on_c, 0, 82, 44
1, 303976, Note_off_c, 0, 59, 64
1, 303978, Note_off_c, 0, 71, 68
1, 303991, Note_off_c, 0, 47, 59
1, 304000, Note_off_c, 0, 82, 37
1, 304045, Note_on_c, 0, 58, 77
1, 304049, Note_on_c, 0, 46, 79
1, 304053, Note_on_c, 0, 70, 89
1, 304053, Note_on_c, 0, 82, 91
1, 304068, Note_off_c, 0, 58, 70
1, 304068, Note_off_c, 0, 82, 74
1, 304070, Note_off_c, 0, 70, 72
1, 304077, Note_off_c, 0, 46, 66
1, 304143, Note_on_c, 0, 56, 73
1, 304147, Note_on_c, 0, 68, 88
1, 304149, Note_on_c, 0, 80, 82
1, 304154, Note_on_c, 0, 44, 61
1, 304166, Note_off_c, 0, 68, 72
1, 304167, Note_off_c, 0, 56, 66
1, 304168, Note_off_c, 0, 80, 73
1, 304179, Note_off_c, 0, 44, 59
1, 304237, Note_on_c, 0, 82, 96
1, 304239, Note_on_c, 0, 70, 95
1, 304241, Note_on_c, 0, 46, 82
1, 304251, Note_on_c, 0, 58, 60
1, 304255, Note_off_c, 0, 82, 69
1, 304262, Note_off_c, 0, 70, 63
1, 304268, Note_off_c, 0, 46, 66
1, 304272, Note_off_c, 0, 58, 41
1, 304339, Note_on_c, 0, 51, 85
1, 304339, Note_on_c, 0, 75, 92
1, 304342, Note_on_c, 0, 63, 95
1, 304350, Note_on_c, 0, 39, 66
1, 304358, Note_off_c, 0, 75, 69
1, 304361, Note_off_c, 0, 63, 69
1, 304362, Note_off_c, 0, 51, 69
1, 304375, Note_off_c, 0, 39, 56
1, 304436, Note_on_c, 0, 63, 102
1, 304436, Note_on_c, 0, 75, 99
1, 304438, Note_on_c, 0, 51, 91
1, 304443, Note_on_c, 0, 39, 85
1, 304459, Control_c, 0, 64, 64
1, 304465, Note_off_c, 0, 63, 67
1, 304470, Note_off_c, 0, 39, 67
1, 304472, Note_off_c, 0, 51, 65
1, 304474, Note_off_c, 0, 75, 61
1, 304474, Control_c, 0, 64, 107
1, 304489, Control_c, 0, 64, 127
1, 304585, Control_c, 0, 64, 122
1, 304600, Control_c, 0, 64, 110
1, 304614, Control_c, 0, 64, 98
1, 304629, Control_c, 0, 64, 85
1, 304644, Control_c, 0, 64, 72
1, 304659, Control_c, 0, 64, 0
1, 304665, Note_on_c, 0, 70, 86
1, 304667, Note_on_c, 0, 67, 85
1, 304671, Note_on_c, 0, 63, 68
1, 304688, Note_off_c, 0, 67, 70
1, 304691, Note_off_c, 0, 70, 63
1, 304699, Note_off_c, 0, 63, 65
1, 304882, Note_on_c, 0, 70, 81
1, 304887, Note_on_c, 0, 61, 57
1, 304888, Note_on_c, 0, 63, 57
1, 304890, Note_on_c, 0, 67, 62
1, 304903, Note_off_c, 0, 70, 69
1, 304910, Note_off_c, 0, 67, 64
1, 304912, Note_off_c, 0, 63, 62
1, 304926, Note_off_c, 0, 61, 59
1, 304982, Note_on_c, 0, 70, 75
1, 304986, Note_on_c, 0, 67, 64
1, 304994, Note_on_c, 0, 63, 51
1, 305000, Note_on_c, 0, 61, 49
1, 305012, Note_off_c, 0, 70, 58
1, 305014, Note_off_c, 0, 67, 65
1, 305019, Note_off_c, 0, 63, 54
1, 305043, Note_off_c, 0, 61, 57
1, 305121, Note_on_c, 0, 75, 81
1, 305127, Note_on_c, 0, 59, 43
1, 305138, Note_on_c, 0, 63, 42
1, 305140, Note_on_c, 0, 66, 64
1, 305178, Control_c, 0, 64, 37
1, 305193, Control_c, 0, 64, 69
1, 305207, Control_c, 0, 64, 77
1, 305221, Control_c, 0, 64, 86
1, 305236, Control_c, 0, 64, 93
1, 305251, Control_c, 0, 64, 97
1, 305273, Control_c, 0, 64, 100
1, 305288, Control_c, 0, 64, 104
1, 305303, Control_c, 0, 64, 107
1, 305317, Control_c, 0, 64, 109
1, 305332, Control_c, 0, 64, 111
1, 305335, Note_off_c, 0, 66, 51
1, 305347, Control_c, 0, 64, 112
1, 305348, Note_off_c, 0, 63, 35
1, 305354, Note_off_c, 0, 59, 34
1, 305358, Note_off_c, 0, 75, 57
1, 305362, Control_c, 0, 64, 113
1, 305377, Control_c, 0, 64, 115
1, 305392, Control_c, 0, 64, 116
1, 305451, Control_c, 0, 64, 114
1, 305463, Note_on_c, 0, 63, 55
1, 305464, Note_on_c, 0, 75, 78
1, 305465, Note_on_c, 0, 66, 66
1, 305466, Control_c, 0, 64, 108
1, 305469, Note_on_c, 0, 59, 47
1, 305480, Control_c, 0, 64, 100
1, 305493, Note_off_c, 0, 66, 67
1, 305493, Note_off_c, 0, 75, 61
1, 305495, Control_c, 0, 64, 90
1, 305496, Note_off_c, 0, 59, 57
1, 305509, Note_off_c, 0, 63, 55
1, 305510, Control_c, 0, 64, 78
1, 305525, Control_c, 0, 64, 59
1, 305540, Control_c, 0, 64, 0
1, 305553, Note_on_c, 0, 73, 79
1, 305563, Note_on_c, 0, 67, 69
1, 305575, Note_on_c, 0, 58, 56
1, 305589, Note_off_c, 0, 67, 67
1, 305591, Note_off_c, 0, 73, 61
1, 305592, Poly_aftertouch_c, 0, 63, 0
1, 305616, Note_off_c, 0, 58, 61
1, 305654, Note_on_c, 0, 70, 80
1, 305660, Note_on_c, 0, 61, 63
1, 305690, Note_off_c, 0, 70, 62
1, 305700, Note_off_c, 0, 61, 59
1, 305750, Note_on_c, 0, 71, 76
1, 305752, Note_on_c, 0, 63, 72
1, 305755, Note_on_c, 0, 56, 56
1, 305773, Note_off_c, 0, 71, 66
1, 305779, Note_off_c, 0, 63, 67
1, 305804, Note_off_c, 0, 56, 57
1, 305834, Note_on_c, 0, 59, 68
1, 305839, Note_on_c, 0, 68, 77
1, 305868, Note_off_c, 0, 59, 61
1, 305875, Note_off_c, 0, 68, 65
1, 305935, Note_on_c, 0, 55, 67
1, 305940, Note_on_c, 0, 63, 74
1, 305943, Note_on_c, 0, 70, 66
1, 305961, Note_off_c, 0, 70, 58
1, 305965, Note_off_c, 0, 63, 69
1, 305987, Note_off_c, 0, 55, 58
1, 306042, Note_on_c, 0, 58, 62
1, 306048, Note_on_c, 0, 63, 74
1, 306078, Note_off_c, 0, 63, 65
1, 306086, Note_off_c, 0, 58, 60
1, 306160, Note_on_c, 0, 63, 72
1, 306200, Control_c, 0, 64, 46
1, 306215, Control_c, 0, 64, 65
1, 306221, Note_off_c, 0, 63, 62
1, 306229, Control_c, 0, 64, 71
1, 306244, Control_c, 0, 64, 78
1, 306259, Control_c, 0, 64, 85
1, 306274, Control_c, 0, 64, 89
1, 306318, Control_c, 0, 64, 88
1, 306333, Control_c, 0, 64, 84
1, 306348, Control_c, 0, 64, 77
1, 306363, Control_c, 0, 64, 65
1, 306377, Control_c, 0, 64, 0
1, 306404, Note_on_c, 0, 70, 81
1, 306407, Control_c, 0, 64, 59
1, 306417, Note_on_c, 0, 67, 64
1, 306421, Control_c, 0, 64, 68
1, 306423, Note_on_c, 0, 63, 56
1, 306436, Control_c, 0, 64, 74
1, 306451, Control_c, 0, 64, 79
1, 306466, Control_c, 0, 64, 81
1, 306483, Note_off_c, 0, 63, 49
1, 306492, Note_off_c, 0, 67, 34
1, 306520, Note_off_c, 0, 70, 60
1, 306600, Control_c, 0, 64, 81
1, 306615, Control_c, 0, 64, 79
1, 306626, Note_on_c, 0, 63, 60
1, 306627, Note_on_c, 0, 70, 83
1, 306628, Note_on_c, 0, 61, 63
1, 306630, Control_c, 0, 64, 76
1, 306635, Note_on_c, 0, 67, 64
1, 306645, Control_c, 0, 64, 70
1, 306652, Note_off_c, 0, 63, 58
1, 306659, Note_off_c, 0, 70, 62
1, 306660, Control_c, 0, 64, 55
1, 306662, Note_off_c, 0, 67, 67
1, 306663, Note_off_c, 0, 61, 63
1, 306674, Control_c, 0, 64, 0
1, 306742, Note_on_c, 0, 61, 58
1, 306742, Note_on_c, 0, 63, 51
1, 306744, Note_on_c, 0, 70, 78
1, 306751, Note_on_c, 0, 67, 64
1, 306776, Note_off_c, 0, 63, 57
1, 306787, Note_off_c, 0, 67, 65
1, 306792, Note_off_c, 0, 61, 57
1, 306800, Note_off_c, 0, 70, 59
1, 306883, Note_on_c, 0, 75, 92
1, 306889, Note_on_c, 0, 66, 80
1, 306890, Note_on_c, 0, 63, 38
1, 306896, Note_on_c, 0, 59, 44
1, 306918, Note_off_c, 0, 66, 63
1, 306933, Control_c, 0, 64, 58
1, 306948, Control_c, 0, 64, 65
1, 306963, Control_c, 0, 64, 72
1, 306978, Control_c, 0, 64, 78
1, 306993, Control_c, 0, 64, 84
1, 307008, Control_c, 0, 64, 87
1, 307022, Control_c, 0, 64, 89
1, 307037, Control_c, 0, 64, 89
1, 307052, Control_c, 0, 64, 90
1, 307088, Note_off_c, 0, 63, 40
1, 307104, Note_off_c, 0, 59, 34
1, 307127, Note_on_c, 0, 67, 77
1, 307127, Note_off_c, 0, 75, 59
1, 307156, Control_c, 0, 64, 89
1, 307171, Control_c, 0, 64, 87
1, 307180, Note_off_c, 0, 67, 63
1, 307186, Control_c, 0, 64, 83
1, 307200, Control_c, 0, 64, 77
1, 307215, Control_c, 0, 64, 67
1, 307219, Note_on_c, 0, 63, 46
1, 307230, Control_c, 0, 64, 17
1, 307231, Note_on_c, 0, 75, 78
1, 307234, Note_on_c, 0, 68, 73
1, 307245, Control_c, 0, 64, 0
1, 307249, Note_on_c, 0, 59, 32
1, 307261, Note_off_c, 0, 68, 66
1, 307263, Note_off_c, 0, 63, 61
1, 307275, Note_off_c, 0, 75, 57
1, 307284, Note_off_c, 0, 59, 49
1, 307341, Note_on_c, 0, 73, 78
1, 307345, Note_on_c, 0, 58, 62
1, 307349, Note_on_c, 0, 64, 60
1, 307349, Note_on_c, 0, 68, 66
1, 307367, Note_off_c, 0, 64, 64
1, 307368, Note_off_c, 0, 73, 62
1, 307373, Note_off_c, 0, 68, 66
1, 307382, Note_off_c, 0, 58, 66
1, 307438, Note_on_c, 0, 71, 75
1, 307449, Note_on_c, 0, 61, 58
1, 307459, Note_on_c, 0, 68, 38
1, 307462, Note_off_c, 0, 71, 67
1, 307467, Control_c, 0, 67, 10
1, 307482, Control_c, 0, 67, 15
1, 307485, Note_off_c, 0, 61, 62
1, 307491, Note_off_c, 0, 68, 34
1, 307497, Control_c, 0, 67, 19
1, 307520, Control_c, 0, 67, 23
1, 307535, Control_c, 0, 67, 27
1, 307549, Control_c, 0, 67, 31
1, 307560, Note_on_c, 0, 61, 80
1, 307564, Control_c, 0, 67, 33
1, 307565, Note_on_c, 0, 51, 53
1, 307565, Note_on_c, 0, 70, 62
1, 307579, Control_c, 0, 67, 34
1, 307584, Note_off_c, 0, 61, 66
1, 307594, Control_c, 0, 67, 34
1, 307601, Note_off_c, 0, 70, 61
1, 307627, Note_off_c, 0, 51, 55
1, 307638, Control_c, 0, 67, 35
1, 307653, Control_c, 0, 67, 35
1, 307667, Control_c, 0, 67, 36
1, 307674, Note_on_c, 0, 63, 68
1, 307682, Control_c, 0, 67, 36
1, 307697, Note_on_c, 0, 55, 43
1, 307697, Control_c, 0, 67, 39
1, 307705, Note_off_c, 0, 63, 66
1, 307712, Control_c, 0, 67, 42
1, 307726, Note_off_c, 0, 55, 56
1, 307727, Control_c, 0, 67, 44
1, 307741, Control_c, 0, 67, 45
1, 307756, Control_c, 0, 67, 47
1, 307771, Control_c, 0, 67, 49
1, 307786, Control_c, 0, 67, 53
1, 307801, Control_c, 0, 67, 58
1, 307812, Note_on_c, 0, 63, 65
1, 307814, Note_on_c, 0, 68, 67
1, 307815, Control_c, 0, 67, 63
1, 307827, Note_on_c, 0, 59, 52
1, 307830, Control_c, 0, 67, 67
1, 307843, Note_off_c, 0, 63, 64
1, 307845, Control_c, 0, 67, 70
1, 307848, Note_off_c, 0, 68, 62
1, 307860, Control_c, 0, 67, 73
1, 307863, Note_off_c, 0, 59, 49
1, 307875, Control_c, 0, 67, 75
1, 307890, Control_c, 0, 67, 77
1, 307905, Control_c, 0, 67, 82
1, 307920, Control_c, 0, 67, 87
1, 307935, Control_c, 0, 67, 91
1, 307949, Control_c, 0, 67, 93
1, 307964, Control_c, 0, 67, 94
1, 307979, Control_c, 0, 67, 96
1, 307987, Note_on_c, 0, 59, 49
1, 307989, Note_on_c, 0, 63, 42
1, 307994, Control_c, 0, 67, 98
1, 308009, Control_c, 0, 67, 101
1, 308015, Note_off_c, 0, 63, 58
1, 308023, Control_c, 0, 67, 104
1, 308033, Note_off_c, 0, 59, 57
1, 308038, Control_c, 0, 67, 105
1, 308053, Control_c, 0, 67, 106
1, 308112, Control_c, 0, 67, 107
1, 308203, Note_on_c, 0, 68, 67
1, 308213, Note_on_c, 0, 63, 55
1, 308218, Control_c, 0, 67, 107
1, 308224, Note_on_c, 0, 59, 45
1, 308230, Note_on_c, 0, 56, 40
1, 308242, Note_off_c, 0, 63, 57
1, 308245, Note_off_c, 0, 68, 59
1, 308255, Note_off_c, 0, 59, 50
1, 308269, Control_c, 0, 67, 108
1, 308272, Note_off_c, 0, 56, 55
1, 308284, Control_c, 0, 67, 109
1, 308298, Control_c, 0, 67, 112
1, 308313, Control_c, 0, 67, 114
1, 308328, Control_c, 0, 67, 116
1, 308343, Control_c, 0, 67, 118
1, 308358, Control_c, 0, 67, 120
1, 308373, Control_c, 0, 67, 121
1, 308388, Control_c, 0, 67, 122
1, 308403, Control_c, 0, 67, 124
1, 308418, Control_c, 0, 67, 125
1, 308432, Control_c, 0, 67, 127
1, 308764, Note_on_c, 0, 63, 66
1, 308796, Note_off_c, 0, 63, 65
1, 308938, Note_on_c, 0, 65, 64
1, 308978, Note_off_c, 0, 65, 61
1, 309100, Note_on_c, 0, 67, 56
1, 309130, Note_off_c, 0, 67, 60
1, 309242, Note_on_c, 0, 68, 56
1, 309263, Note_off_c, 0, 68, 62
1, 309300, Note_on_c, 0, 39, 31
1, 309326, Note_off_c, 0, 39, 48
1, 309392, Note_on_c, 0, 70, 79
1, 309398, Note_on_c, 0, 61, 70
1, 309399, Note_on_c, 0, 63, 67
1, 309406, Note_on_c, 0, 55, 50
1, 309416, Note_off_c, 0, 61, 64
1, 309422, Note_off_c, 0, 70, 58
1, 309428, Note_off_c, 0, 63, 67
1, 309443, Note_off_c, 0, 55, 65
1, 309541, Note_on_c, 0, 51, 47
1, 309582, Note_off_c, 0, 51, 61
1, 309610, Control_c, 0, 67, 125
1, 309625, Control_c, 0, 67, 121
1, 309640, Control_c, 0, 67, 115
1, 309646, Note_on_c, 0, 70, 69
1, 309651, Note_on_c, 0, 61, 61
1, 309655, Control_c, 0, 67, 109
1, 309670, Control_c, 0, 67, 102
1, 309673, Note_off_c, 0, 61, 64
1, 309674, Note_off_c, 0, 70, 65
1, 309684, Control_c, 0, 67, 94
1, 309699, Control_c, 0, 67, 85
1, 309714, Control_c, 0, 67, 75
1, 309729, Control_c, 0, 67, 66
1, 309744, Control_c, 0, 67, 58
1, 309767, Control_c, 0, 67, 55
1, 309780, Note_on_c, 0, 72, 63
1, 309782, Control_c, 0, 67, 54
1, 309789, Note_on_c, 0, 63, 63
1, 309797, Control_c, 0, 67, 53
1, 309807, Note_off_c, 0, 72, 67
1, 309808, Note_off_c, 0, 63, 64
1, 309812, Control_c, 0, 67, 53
1, 309826, Control_c, 0, 67, 52
1, 309832, Note_on_c, 0, 44, 58
1, 309841, Control_c, 0, 67, 51
1, 309856, Control_c, 0, 67, 49
1, 309870, Control_c, 0, 67, 46
1, 309885, Control_c, 0, 67, 44
1, 309893, Note_off_c, 0, 44, 58
1, 309900, Control_c, 0, 67, 42
1, 309906, Note_on_c, 0, 63, 69
1, 309909, Note_on_c, 0, 68, 72
1, 309915, Control_c, 0, 67, 41
1, 309920, Note_on_c, 0, 60, 50
1, 309926, Note_on_c, 0, 56, 54
1, 309930, Control_c, 0, 64, 70
1, 309930, Control_c, 0, 67, 41
1, 309939, Note_off_c, 0, 63, 63
1, 309942, Note_off_c, 0, 68, 60
1, 309944, Control_c, 0, 64, 77
1, 309944, Control_c, 0, 67, 40
1, 309945, Note_off_c, 0, 60, 56
1, 309959, Control_c, 0, 64, 84
1, 309967, Note_off_c, 0, 56, 61
1, 309974, Control_c, 0, 64, 86
1, 309989, Control_c, 0, 64, 89
1, 310004, Control_c, 0, 64, 91
1, 310018, Control_c, 0, 64, 92
1, 310033, Note_on_c, 0, 51, 51
1, 310033, Control_c, 0, 64, 93
1, 310048, Control_c, 0, 67, 41
1, 310063, Control_c, 0, 64, 94
1, 310063, Control_c, 0, 67, 41
1, 310068, Note_off_c, 0, 51, 63
1, 310078, Control_c, 0, 67, 42
1, 310093, Control_c, 0, 67, 43
1, 310108, Control_c, 0, 67, 44
1, 310123, Control_c, 0, 67, 44
1, 310137, Control_c, 0, 67, 45
1, 310152, Note_on_c, 0, 63, 65
1, 310182, Control_c, 0, 67, 46
1, 310189, Note_off_c, 0, 63, 64
1, 310212, Control_c, 0, 67, 47
1, 310226, Control_c, 0, 67, 47
1, 310268, Note_on_c, 0, 56, 49
1, 310270, Control_c, 0, 64, 93
1, 310270, Control_c, 0, 67, 48
1, 310285, Control_c, 0, 64, 92
1, 310289, Note_off_c, 0, 56, 61
1, 310300, Control_c, 0, 64, 88
1, 310315, Control_c, 0, 64, 83
1, 310315, Control_c, 0, 67, 48
1, 310330, Control_c, 0, 64, 74
1, 310344, Control_c, 0, 64, 61
1, 310344, Control_c, 0, 67, 49
1, 310359, Control_c, 0, 64, 0
1, 310374, Control_c, 0, 67, 48
1, 310388, Control_c, 0, 67, 48
1, 310390, Note_on_c, 0, 39, 65
1, 310400, Note_on_c, 0, 70, 74
1, 310401, Note_on_c, 0, 63, 72
1, 310418, Note_on_c, 0, 61, 49
1, 310418, Control_c, 0, 67, 47
1, 310424, Note_off_c, 0, 39, 62
1, 310430, Note_off_c, 0, 63, 66
1, 310432, Note_off_c, 0, 70, 62
1, 310444, Note_off_c, 0, 61, 52
1, 310451, Note_on_c, 0, 55, 53
1, 310473, Note_off_c, 0, 55, 62
1, 310477, Control_c, 0, 67, 47
1, 310546, Note_on_c, 0, 51, 58
1, 310590, Note_off_c, 0, 51, 60
1, 310636, Note_on_c, 0, 61, 73
1, 310636, Note_on_c, 0, 70, 65
1, 310649, Control_c, 0, 67, 46
1, 310660, Note_off_c, 0, 61, 67
1, 310663, Note_off_c, 0, 70, 66
1, 310708, Control_c, 0, 67, 46
1, 310723, Control_c, 0, 67, 46
1, 310740, Note_on_c, 0, 63, 74
1, 310743, Note_on_c, 0, 72, 61
1, 310765, Note_off_c, 0, 63, 68
1, 310772, Note_off_c, 0, 72, 66
1, 310782, Control_c, 0, 67, 46
1, 310784, Note_on_c, 0, 44, 42
1, 310812, Control_c, 0, 67, 45
1, 310839, Note_off_c, 0, 44, 45
1, 310861, Note_on_c, 0, 63, 70
1, 310864, Note_on_c, 0, 68, 70
1, 310866, Note_on_c, 0, 60, 55
1, 310877, Note_on_c, 0, 56, 60
1, 310886, Control_c, 0, 67, 45
1, 310888, Note_off_c, 0, 60, 58
1, 310901, Control_c, 0, 64, 51
1, 310901, Control_c, 0, 67, 44
1, 310905, Note_off_c, 0, 63, 54
1, 310915, Note_off_c, 0, 56, 64
1, 310916, Control_c, 0, 64, 66
1, 310916, Control_c, 0, 67, 43
1, 310919, Note_off_c, 0, 68, 52
1, 310930, Control_c, 0, 64, 71
1, 310945, Control_c, 0, 64, 77
1, 310945, Control_c, 0, 67, 43
1, 310960, Control_c, 0, 64, 83
1, 310960, Control_c, 0, 67, 42
1, 310967, Note_on_c, 0, 51, 61
1, 310975, Control_c, 0, 64, 86
1, 310975, Control_c, 0, 67, 42
1, 310990, Control_c, 0, 64, 88
1, 310990, Control_c, 0, 67, 41
1, 311005, Control_c, 0, 64, 88
1, 311005, Control_c, 0, 67, 40
1, 311011, Note_off_c, 0, 51, 59
1, 311019, Control_c, 0, 64, 89
1, 311019, Control_c, 0, 67, 40
1, 311034, Control_c, 0, 67, 39
1, 311049, Control_c, 0, 67, 39
1, 311079, Control_c, 0, 67, 38
1, 311093, Control_c, 0, 64, 88
1, 311093, Control_c, 0, 67, 33
1, 311097, Note_on_c, 0, 63, 69
1, 311108, Control_c, 0, 64, 85
1, 311108, Control_c, 0, 67, 27
1, 311123, Control_c, 0, 64, 79
1, 311123, Control_c, 0, 67, 23
1, 311130, Note_off_c, 0, 63, 66
1, 311138, Control_c, 0, 64, 70
1, 311138, Control_c, 0, 67, 21
1, 311153, Control_c, 0, 64, 49
1, 311153, Control_c, 0, 67, 18
1, 311167, Control_c, 0, 64, 0
1, 311167, Control_c, 0, 67, 16
1, 311182, Control_c, 0, 67, 14
1, 311197, Control_c, 0, 67, 12
1, 311200, Note_on_c, 0, 56, 43
1, 311211, Control_c, 0, 67, 11
1, 311226, Control_c, 0, 67, 9
1, 311228, Note_off_c, 0, 56, 58
1, 311241, Control_c, 0, 67, 8
1, 311256, Control_c, 0, 67, 0
1, 311318, Note_on_c, 0, 70, 71
1, 311321, Note_on_c, 0, 51, 58
1, 311324, Note_on_c, 0, 63, 56
1, 311326, Note_on_c, 0, 67, 56
1, 311345, Note_off_c, 0, 63, 62
1, 311346, Note_off_c, 0, 70, 65
1, 311351, Note_off_c, 0, 67, 64
1, 311367, Note_off_c, 0, 51, 60
1, 311423, Note_on_c, 0, 63, 62
1, 311458, Note_off_c, 0, 63, 63
1, 311536, Note_on_c, 0, 70, 67
1, 311539, Note_on_c, 0, 67, 60
1, 311541, Note_on_c, 0, 63, 59
1, 311557, Note_on_c, 0, 49, 54
1, 311562, Note_off_c, 0, 63, 65
1, 311565, Note_off_c, 0, 70, 67
1, 311571, Note_off_c, 0, 67, 65
1, 311606, Note_off_c, 0, 49, 60
1, 311643, Note_on_c, 0, 70, 66
1, 311646, Note_on_c, 0, 63, 51
1, 311651, Note_on_c, 0, 67, 52
1, 311652, Note_on_c, 0, 61, 46
1, 311667, Note_off_c, 0, 63, 60
1, 311671, Note_off_c, 0, 70, 66
1, 311674, Note_off_c, 0, 67, 59
1, 311679, Note_off_c, 0, 61, 57
1, 311754, Note_on_c, 0, 75, 80
1, 311756, Note_on_c, 0, 66, 85
1, 311757, Note_on_c, 0, 63, 71
1, 311768, Control_c, 0, 64, 77
1, 311771, Note_on_c, 0, 47, 53
1, 311783, Control_c, 0, 64, 97
1, 311798, Control_c, 0, 64, 106
1, 311812, Note_off_c, 0, 47, 61
1, 311861, Note_on_c, 0, 59, 49
1, 311872, Note_off_c, 0, 63, 62
1, 311872, Control_c, 0, 64, 107
1, 311882, Note_off_c, 0, 75, 61
1, 311884, Note_off_c, 0, 66, 63
1, 311887, Note_off_c, 0, 59, 55
1, 311946, Control_c, 0, 64, 106
1, 311961, Control_c, 0, 64, 102
1, 311976, Control_c, 0, 64, 96
1, 311985, Note_on_c, 0, 70, 53
1, 311986, Note_off_c, 0, 70, 127
1, 311986, Note_on_c, 0, 63, 77
1, 311990, Control_c, 0, 64, 88
1, 311991, Note_on_c, 0, 75, 73
1, 311995, Note_on_c, 0, 42, 67
1, 311995, Note_on_c, 0, 71, 70
1, 312005, Control_c, 0, 64, 78
1, 312017, Note_off_c, 0, 63, 69
1, 312018, Poly_aftertouch_c, 0, 70, 0
1, 312024, Note_off_c, 0, 75, 66
1, 312027, Note_off_c, 0, 71, 67
1, 312027, Control_c, 0, 64, 65
1, 312042, Control_c, 0, 64, 0
1, 312060, Note_off_c, 0, 42, 59
1, 312087, Note_on_c, 0, 54, 65
1, 312098, Note_on_c, 0, 63, 70
1, 312104, Note_on_c, 0, 75, 68
1, 312121, Note_off_c, 0, 75, 68
1, 312125, Note_off_c, 0, 63, 67
1, 312136, Note_off_c, 0, 54, 61
1, 312194, Note_on_c, 0, 43, 66
1, 312203, Note_on_c, 0, 73, 81
1, 312208, Note_on_c, 0, 64, 75
1, 312229, Note_off_c, 0, 73, 62
1, 312231, Note_off_c, 0, 64, 70
1, 312241, Note_off_c, 0, 43, 60
1, 312300, Note_on_c, 0, 71, 74
1, 312308, Note_on_c, 0, 63, 68
1, 312309, Note_on_c, 0, 51, 54
1, 312326, Note_off_c, 0, 63, 66
1, 312327, Note_off_c, 0, 71, 62
1, 312354, Note_off_c, 0, 51, 61
1, 312397, Note_on_c, 0, 44, 60
1, 312409, Note_on_c, 0, 70, 76
1, 312410, Note_on_c, 0, 61, 69
1, 312431, Note_off_c, 0, 70, 69
1, 312438, Note_off_c, 0, 61, 66
1, 312442, Note_off_c, 0, 44, 62
1, 312506, Note_on_c, 0, 68, 74
1, 312516, Note_on_c, 0, 59, 64
1, 312519, Note_on_c, 0, 51, 42
1, 312534, Note_off_c, 0, 59, 63
1, 312543, Note_off_c, 0, 68, 63
1, 312562, Note_off_c, 0, 51, 53
1, 312627, Note_on_c, 0, 70, 81
1, 312636, Control_c, 0, 64, 55
1, 312640, Note_on_c, 0, 63, 66
1, 312642, Note_on_c, 0, 58, 65
1, 312644, Note_on_c, 0, 39, 51
1, 312650, Control_c, 0, 64, 65
1, 312665, Control_c, 0, 64, 67
1, 312668, Note_off_c, 0, 58, 58
1, 312680, Control_c, 0, 64, 70
1, 312695, Control_c, 0, 64, 73
1, 312710, Control_c, 0, 64, 77
1, 312717, Note_off_c, 0, 70, 58
1, 312722, Note_off_c, 0, 63, 61
1, 312725, Control_c, 0, 64, 79
1, 312739, Control_c, 0, 64, 79
1, 312776, Note_on_c, 0, 46, 57
1, 312838, Note_off_c, 0, 46, 59
1, 312858, Note_on_c, 0, 70, 79
1, 312865, Note_on_c, 0, 58, 70
1, 312869, Note_on_c, 0, 63, 65
1, 312873, Note_on_c, 0, 51, 63
1, 312882, Note_off_c, 0, 58, 67
1, 312883, Note_off_c, 0, 70, 64
1, 312892, Note_off_c, 0, 63, 66
1, 312895, Control_c, 0, 64, 78
1, 312910, Control_c, 0, 64, 77
1, 312925, Control_c, 0, 64, 76
1, 312940, Control_c, 0, 64, 73
1, 312952, Note_off_c, 0, 51, 53
1, 312954, Note_off_c, 0, 39, 59
1, 312955, Control_c, 0, 64, 68
1, 312960, Note_on_c, 0, 58, 66
1, 312963, Note_on_c, 0, 70, 79
1, 312969, Control_c, 0, 64, 60
1, 312972, Note_on_c, 0, 46, 57
1, 312972, Note_on_c, 0, 63, 68
1, 312984, Note_off_c, 0, 70, 70
1, 312984, Control_c, 0, 64, 0
1, 312989, Note_off_c, 0, 58, 67
1, 312990, Note_off_c, 0, 63, 69
1, 313041, Note_off_c, 0, 46, 59
1, 313065, Note_on_c, 0, 39, 65
1, 313065, Note_on_c, 0, 61, 78
1, 313065, Note_on_c, 0, 63, 70
1, 313076, Note_on_c, 0, 55, 64
1, 313095, Note_off_c, 0, 55, 65
1, 313096, Note_off_c, 0, 63, 66
1, 313101, Note_off_c, 0, 61, 62
1, 313158, Note_on_c, 0, 65, 75
1, 313169, Note_on_c, 0, 56, 69
1, 313179, Note_on_c, 0, 46, 55
1, 313195, Note_off_c, 0, 56, 64
1, 313217, Note_off_c, 0, 65, 60
1, 313231, Note_off_c, 0, 46, 59
1, 313258, Note_on_c, 0, 67, 77
1, 313267, Note_on_c, 0, 58, 66
1, 313279, Note_on_c, 0, 61, 56
1, 313283, Note_off_c, 0, 67, 66
1, 313288, Note_off_c, 0, 58, 66
1, 313289, Note_on_c, 0, 51, 45
1, 313310, Note_off_c, 0, 61, 64
1, 313320, Note_off_c, 0, 51, 58
1, 313335, Note_off_c, 0, 39, 52
1, 313360, Note_on_c, 0, 46, 55
1, 313364, Note_on_c, 0, 63, 75
1, 313373, Note_on_c, 0, 55, 64
1, 313389, Note_off_c, 0, 46, 61
1, 313394, Note_off_c, 0, 55, 64
1, 313401, Note_off_c, 0, 63, 64
1, 313467, Note_on_c, 0, 68, 80
1, 313471, Note_on_c, 0, 60, 68
1, 313475, Note_on_c, 0, 56, 62
1, 313483, Note_on_c, 0, 44, 60
1, 313497, Note_on_c, 0, 51, 24
1, 313510, Control_c, 0, 64, 64
1, 313518, Note_off_c, 0, 56, 52
1, 313525, Control_c, 0, 64, 69
1, 313540, Control_c, 0, 64, 71
1, 313542, Note_off_c, 0, 44, 59
1, 313542, Note_off_c, 0, 51, 39
1, 313555, Control_c, 0, 64, 72
1, 313563, Note_off_c, 0, 60, 59
1, 313564, Note_off_c, 0, 68, 57
1, 313569, Control_c, 0, 64, 74
1, 313584, Control_c, 0, 64, 77
1, 313599, Control_c, 0, 64, 82
1, 313600, Note_on_c, 0, 39, 55
1, 313613, Control_c, 0, 64, 86
1, 313628, Control_c, 0, 64, 89
1, 313643, Note_off_c, 0, 39, 62
1, 313643, Control_c, 0, 64, 91
1, 313658, Control_c, 0, 64, 92
1, 313673, Control_c, 0, 64, 93
1, 313688, Control_c, 0, 64, 94
1, 313703, Control_c, 0, 64, 94
1, 313715, Note_on_c, 0, 32, 74
1, 313748, Control_c, 0, 64, 95
1, 313762, Note_off_c, 0, 32, 59
1, 313911, Control_c, 0, 64, 94
1, 313926, Control_c, 0, 64, 91
1, 313933, Note_on_c, 0, 75, 75
1, 313935, Note_on_c, 0, 63, 77
1, 313941, Control_c, 0, 64, 81
1, 313956, Note_off_c, 0, 75, 72
1, 313956, Control_c, 0, 64, 68
1, 313959, Note_off_c, 0, 63, 68
1, 313971, Control_c, 0, 64, 0
1, 314032, Note_on_c, 0, 77, 78
1, 314033, Note_on_c, 0, 65, 76
1, 314053, Note_off_c, 0, 77, 69
1, 314056, Note_off_c, 0, 65, 71
1, 314122, Note_on_c, 0, 79, 78
1, 314126, Note_on_c, 0, 67, 73
1, 314144, Note_off_c, 0, 79, 67
1, 314152, Note_off_c, 0, 67, 68
1, 314222, Note_on_c, 0, 80, 87
1, 314232, Note_on_c, 0, 39, 39
1, 314233, Note_on_c, 0, 68, 72
1, 314244, Note_off_c, 0, 80, 65
1, 314249, Note_off_c, 0, 68, 68
1, 314270, Note_off_c, 0, 39, 54
1, 314305, Control_c, 0, 64, 68
1, 314319, Control_c, 0, 64, 84
1, 314334, Control_c, 0, 64, 97
1, 314335, Note_on_c, 0, 82, 92
1, 314337, Note_on_c, 0, 70, 74
1, 314339, Note_on_c, 0, 73, 83
1, 314349, Control_c, 0, 64, 98
1, 314356, Note_on_c, 0, 55, 64
1, 314360, Note_off_c, 0, 70, 69
1, 314364, Control_c, 0, 64, 99
1, 314373, Note_off_c, 0, 73, 56
1, 314378, Note_off_c, 0, 82, 63
1, 314393, Control_c, 0, 64, 99
1, 314397, Note_off_c, 0, 55, 63
1, 314408, Control_c, 0, 64, 100
1, 314423, Control_c, 0, 64, 100
1, 314452, Control_c, 0, 64, 101
1, 314457, Note_on_c, 0, 51, 56
1, 314542, Control_c, 0, 64, 100
1, 314547, Note_on_c, 0, 82, 80
1, 314549, Note_on_c, 0, 70, 82
1, 314555, Note_on_c, 0, 73, 72
1, 314557, Control_c, 0, 64, 97
1, 314558, Note_on_c, 0, 63, 62
1, 314567, Note_off_c, 0, 82, 70
1, 314570, Note_off_c, 0, 73, 69
1, 314571, Note_off_c, 0, 70, 71
1, 314572, Control_c, 0, 64, 91
1, 314576, Note_off_c, 0, 63, 64
1, 314587, Control_c, 0, 64, 81
1, 314602, Control_c, 0, 64, 68
1, 314607, Note_off_c, 0, 51, 56
1, 314616, Control_c, 0, 64, 0
1, 314651, Note_on_c, 0, 72, 76
1, 314652, Note_on_c, 0, 84, 77
1, 314654, Note_on_c, 0, 75, 76
1, 314662, Note_on_c, 0, 44, 66
1, 314672, Note_off_c, 0, 72, 71
1, 314674, Note_off_c, 0, 75, 72
1, 314674, Note_off_c, 0, 84, 70
1, 314701, Note_off_c, 0, 44, 62
1, 314752, Note_on_c, 0, 80, 85
1, 314755, Note_on_c, 0, 68, 84
1, 314760, Note_on_c, 0, 72, 76
1, 314776, Note_on_c, 0, 56, 64
1, 314794, Control_c, 0, 64, 15
1, 314809, Control_c, 0, 64, 64
1, 314815, Note_off_c, 0, 56, 62
1, 314824, Control_c, 0, 64, 69
1, 314838, Control_c, 0, 64, 76
1, 314853, Control_c, 0, 64, 82
1, 314862, Note_on_c, 0, 51, 53
1, 314864, Note_off_c, 0, 68, 54
1, 314868, Control_c, 0, 64, 85
1, 314883, Control_c, 0, 64, 86
1, 314898, Control_c, 0, 64, 87
1, 314922, Note_off_c, 0, 72, 61
1, 314954, Note_on_c, 0, 63, 62
1, 314972, Control_c, 0, 64, 87
1, 314973, Note_off_c, 0, 63, 63
1, 314987, Control_c, 0, 64, 88
1, 314989, Note_off_c, 0, 80, 61
1, 314992, Note_off_c, 0, 51, 56
1, 315008, Control_c, 0, 64, 88
1, 315023, Control_c, 0, 64, 89
1, 315083, Control_c, 0, 64, 87
1, 315098, Control_c, 0, 64, 81
1, 315098, Note_on_c, 0, 39, 52
1, 315113, Control_c, 0, 64, 72
1, 315125, Note_off_c, 0, 39, 52
1, 315128, Control_c, 0, 64, 55
1, 315142, Control_c, 0, 64, 0
1, 315186, Control_c, 0, 64, 61
1, 315199, Note_on_c, 0, 82, 85
1, 315201, Note_on_c, 0, 55, 61
1, 315201, Control_c, 0, 64, 67
1, 315210, Note_on_c, 0, 73, 71
1, 315213, Note_on_c, 0, 70, 69
1, 315216, Control_c, 0, 64, 72
1, 315231, Control_c, 0, 64, 76
1, 315242, Note_off_c, 0, 70, 66
1, 315246, Control_c, 0, 64, 79
1, 315247, Note_off_c, 0, 55, 64
1, 315257, Note_off_c, 0, 73, 58
1, 315260, Control_c, 0, 64, 81
1, 315275, Note_off_c, 0, 82, 61
1, 315275, Control_c, 0, 64, 82
1, 315290, Control_c, 0, 64, 83
1, 315305, Control_c, 0, 64, 85
1, 315320, Control_c, 0, 64, 85
1, 315322, Note_on_c, 0, 51, 51
1, 315336, Control_c, 0, 64, 86
1, 315395, Control_c, 0, 64, 85
1, 315404, Note_on_c, 0, 82, 72
1, 315405, Note_on_c, 0, 70, 72
1, 315408, Note_on_c, 0, 73, 73
1, 315410, Note_on_c, 0, 63, 64
1, 315410, Control_c, 0, 64, 83
1, 315425, Note_off_c, 0, 70, 66
1, 315425, Control_c, 0, 64, 77
1, 315427, Note_off_c, 0, 73, 66
1, 315428, Note_off_c, 0, 63, 65
1, 315428, Note_off_c, 0, 82, 67
1, 315439, Control_c, 0, 64, 66
1, 315454, Control_c, 0, 64, 0
1, 315461, Note_off_c, 0, 51, 54
1, 315504, Note_on_c, 0, 75, 79
1, 315506, Note_on_c, 0, 72, 72
1, 315508, Note_on_c, 0, 84, 69
1, 315518, Note_on_c, 0, 44, 61
1, 315523, Note_off_c, 0, 84, 67
1, 315524, Note_off_c, 0, 75, 72
1, 315530, Note_off_c, 0, 72, 70
1, 315572, Note_off_c, 0, 44, 55
1, 315611, Note_on_c, 0, 68, 84
1, 315612, Note_on_c, 0, 80, 82
1, 315616, Control_c, 0, 64, 21
1, 315619, Note_on_c, 0, 72, 66
1, 315631, Control_c, 0, 64, 64
1, 315646, Control_c, 0, 64, 71
1, 315648, Note_on_c, 0, 56, 56
1, 315661, Control_c, 0, 64, 80
1, 315676, Control_c, 0, 64, 86
1, 315681, Note_off_c, 0, 68, 46
1, 315690, Note_off_c, 0, 56, 61
1, 315690, Control_c, 0, 64, 88
1, 315705, Control_c, 0, 64, 89
1, 315720, Control_c, 0, 64, 90
1, 315735, Control_c, 0, 64, 92
1, 315736, Note_on_c, 0, 51, 61
1, 315747, Note_off_c, 0, 72, 60
1, 315750, Control_c, 0, 64, 92
1, 315771, Control_c, 0, 64, 93
1, 315791, Note_off_c, 0, 51, 60
1, 315842, Note_off_c, 0, 80, 58
1, 315859, Note_on_c, 0, 63, 68
1, 315876, Control_c, 0, 64, 92
1, 315890, Control_c, 0, 64, 88
1, 315894, Note_off_c, 0, 63, 61
1, 315905, Control_c, 0, 64, 81
1, 315920, Control_c, 0, 64, 70
1, 315935, Control_c, 0, 64, 0
1, 315940, Note_on_c, 0, 56, 60
1, 315978, Note_off_c, 0, 56, 62
1, 316045, Note_on_c, 0, 82, 84
1, 316049, Note_on_c, 0, 75, 78
1, 316052, Note_on_c, 0, 70, 79
1, 316053, Note_on_c, 0, 79, 75
1, 316053, Control_c, 0, 64, 29
1, 316054, Note_on_c, 0, 51, 71
1, 316068, Control_c, 0, 64, 69
1, 316082, Control_c, 0, 64, 78
1, 316084, Note_off_c, 0, 70, 56
1, 316097, Control_c, 0, 64, 85
1, 316102, Note_off_c, 0, 79, 55
1, 316103, Note_off_c, 0, 82, 62
1, 316106, Note_off_c, 0, 75, 64
1, 316112, Control_c, 0, 64, 86
1, 316114, Note_off_c, 0, 51, 60
1, 316143, Control_c, 0, 64, 87
1, 316156, Note_on_c, 0, 63, 69
1, 316158, Control_c, 0, 64, 86
1, 316193, Note_off_c, 0, 63, 61
1, 316202, Control_c, 0, 64, 85
1, 316217, Control_c, 0, 64, 80
1, 316231, Control_c, 0, 64, 68
1, 316246, Control_c, 0, 64, 0
1, 316255, Note_on_c, 0, 70, 76
1, 316257, Note_on_c, 0, 75, 73
1, 316263, Note_on_c, 0, 82, 61
1, 316269, Note_on_c, 0, 79, 56
1, 316271, Note_on_c, 0, 49, 65
1, 316277, Note_off_c, 0, 70, 70
1, 316280, Note_off_c, 0, 75, 70
1, 316281, Note_off_c, 0, 82, 64
1, 316289, Note_off_c, 0, 79, 62
1, 316335, Note_off_c, 0, 49, 56
1, 316358, Note_on_c, 0, 82, 67
1, 316359, Note_on_c, 0, 75, 71
1, 316360, Note_on_c, 0, 70, 60
1, 316373, Note_on_c, 0, 61, 50
1, 316377, Note_off_c, 0, 70, 64
1, 316383, Note_on_c, 0, 78, 38
1, 316383, Note_off_c, 0, 75, 68
1, 316400, Note_off_c, 0, 82, 65
1, 316401, Note_off_c, 0, 61, 62
1, 316409, Note_off_c, 0, 78, 45
1, 316461, Note_on_c, 0, 47, 69
1, 316469, Control_c, 0, 64, 73
1, 316470, Note_on_c, 0, 78, 95
1, 316471, Note_on_c, 0, 87, 91
1, 316472, Note_on_c, 0, 75, 97
1, 316484, Control_c, 0, 64, 94
1, 316505, Control_c, 0, 64, 110
1, 316520, Control_c, 0, 64, 110
1, 316535, Note_off_c, 0, 47, 61
1, 316563, Note_on_c, 0, 59, 64
1, 316574, Note_off_c, 0, 75, 60
1, 316584, Note_off_c, 0, 87, 61
1, 316596, Note_off_c, 0, 59, 63
1, 316599, Note_off_c, 0, 78, 62
1, 316698, Note_on_c, 0, 75, 89
1, 316700, Note_on_c, 0, 42, 74
1, 316700, Note_on_c, 0, 83, 78
1, 316704, Note_on_c, 0, 87, 75
1, 316719, Note_off_c, 0, 75, 69
1, 316727, Note_off_c, 0, 87, 69
1, 316727, Note_off_c, 0, 83, 59
1, 316728, Control_c, 0, 64, 108
1, 316743, Control_c, 0, 64, 103
1, 316758, Control_c, 0, 64, 96
1, 316773, Control_c, 0, 64, 86
1, 316786, Note_off_c, 0, 42, 54
1, 316787, Control_c, 0, 64, 75
1, 316788, Note_on_c, 0, 54, 70
1, 316796, Note_on_c, 0, 75, 91
1, 316800, Note_on_c, 0, 87, 81
1, 316802, Control_c, 0, 64, 60
1, 316817, Control_c, 0, 64, 0
1, 316821, Note_off_c, 0, 87, 65
1, 316824, Note_off_c, 0, 75, 67
1, 316834, Note_off_c, 0, 54, 61
1, 316891, Note_on_c, 0, 43, 74
1, 316901, Note_on_c, 0, 73, 81
1, 316905, Note_on_c, 0, 76, 75
1, 316905, Note_on_c, 0, 84, 69
1, 316920, Note_off_c, 0, 73, 71
1, 316922, Note_off_c, 0, 84, 69
1, 316927, Note_off_c, 0, 76, 72
1, 316971, Note_off_c, 0, 43, 58
1, 317005, Note_on_c, 0, 71, 77
1, 317005, Note_on_c, 0, 83, 70
1, 317008, Note_on_c, 0, 75, 77
1, 317014, Note_on_c, 0, 51, 59
1, 317017, Note_on_c, 0, 55, 53
1, 317026, Note_off_c, 0, 71, 68
1, 317026, Note_off_c, 0, 83, 64
1, 317029, Note_off_c, 0, 75, 72
1, 317050, Note_off_c, 0, 55, 65
1, 317062, Note_off_c, 0, 51, 59
1, 317097, Note_on_c, 0, 82, 81
1, 317104, Note_on_c, 0, 70, 76
1, 317106, Note_on_c, 0, 73, 72
1, 317116, Note_on_c, 0, 44, 53
1, 317116, Note_off_c, 0, 82, 72
1, 317122, Note_off_c, 0, 70, 67
1, 317131, Note_off_c, 0, 73, 66
1, 317172, Note_off_c, 0, 44, 56
1, 317191, Note_on_c, 0, 51, 49
1, 317196, Note_on_c, 0, 68, 82
1, 317200, Note_on_c, 0, 80, 78
1, 317201, Note_on_c, 0, 71, 73
1, 317202, Note_on_c, 0, 56, 40
1, 317216, Note_off_c, 0, 68, 72
1, 317217, Note_off_c, 0, 71, 65
1, 317220, Note_off_c, 0, 51, 62
1, 317223, Note_off_c, 0, 80, 69
1, 317231, Note_off_c, 0, 56, 48
1, 317310, Note_on_c, 0, 82, 84
1, 317311, Note_on_c, 0, 70, 85
1, 317314, Control_c, 0, 64, 55
1, 317317, Note_on_c, 0, 75, 80
1, 317328, Control_c, 0, 64, 67
1, 317331, Note_off_c, 0, 70, 67
1, 317334, Note_off_c, 0, 82, 57
1, 317335, Note_on_c, 0, 39, 61
1, 317343, Control_c, 0, 64, 74
1, 317349, Note_off_c, 0, 75, 61
1, 317358, Control_c, 0, 64, 81
1, 317373, Control_c, 0, 64, 85
1, 317388, Control_c, 0, 64, 86
1, 317402, Note_off_c, 0, 39, 55
1, 317402, Control_c, 0, 64, 86
1, 317417, Control_c, 0, 64, 87
1, 317442, Note_on_c, 0, 46, 65
1, 317447, Control_c, 0, 64, 87
1, 317524, Note_on_c, 0, 82, 78
1, 317527, Note_on_c, 0, 75, 79
1, 317530, Note_on_c, 0, 70, 75
1, 317544, Note_off_c, 0, 46, 58
1, 317544, Note_off_c, 0, 82, 68
1, 317548, Note_off_c, 0, 70, 69
1, 317550, Note_on_c, 0, 51, 65
1, 317551, Control_c, 0, 64, 86
1, 317553, Note_off_c, 0, 75, 67
1, 317566, Control_c, 0, 64, 82
1, 317580, Control_c, 0, 64, 74
1, 317586, Note_off_c, 0, 51, 64
1, 317595, Control_c, 0, 64, 64
1, 317610, Control_c, 0, 64, 0
1, 317616, Note_on_c, 0, 70, 73
1, 317620, Note_on_c, 0, 82, 81
1, 317623, Note_on_c, 0, 75, 75
1, 317631, Note_on_c, 0, 58, 68
1, 317638, Note_off_c, 0, 82, 72
1, 317649, Note_off_c, 0, 75, 67
1, 317652, Note_off_c, 0, 70, 64
1, 317664, Note_off_c, 0, 58, 65
1, 317724, Note_on_c, 0, 73, 76
1, 317731, Note_on_c, 0, 75, 69
1, 317733, Note_on_c, 0, 67, 70
1, 317749, Note_off_c, 0, 73, 67
1, 317752, Note_off_c, 0, 75, 68
1, 317756, Note_on_c, 0, 63, 66
1, 317760, Note_off_c, 0, 67, 67
1, 317790, Note_off_c, 0, 63, 62
1, 317823, Note_on_c, 0, 77, 80
1, 317832, Note_on_c, 0, 68, 72
1, 317838, Note_on_c, 0, 58, 60
1, 317847, Note_off_c, 0, 68, 69
1, 317852, Note_off_c, 0, 77, 58
1, 317877, Note_off_c, 0, 58, 63
1, 317926, Note_on_c, 0, 79, 76
1, 317929, Note_on_c, 0, 70, 70
1, 317939, Note_on_c, 0, 51, 54
1, 317947, Note_off_c, 0, 79, 70
1, 317953, Note_off_c, 0, 70, 68
1, 317981, Note_off_c, 0, 51, 61
1, 318032, Note_on_c, 0, 61, 53
1, 318035, Note_on_c, 0, 75, 72
1, 318036, Note_on_c, 0, 67, 66
1, 318065, Note_off_c, 0, 67, 65
1, 318070, Note_off_c, 0, 61, 63
1, 318073, Note_off_c, 0, 75, 65
1, 318137, Note_on_c, 0, 80, 79
1, 318144, Note_on_c, 0, 68, 72
1, 318150, Note_on_c, 0, 60, 63
1, 318150, Note_on_c, 0, 75, 58
1, 318182, Note_off_c, 0, 60, 64
1, 318206, Note_off_c, 0, 68, 51
1, 318240, Control_c, 0, 64, 60
1, 318255, Control_c, 0, 64, 67
1, 318260, Note_on_c, 0, 51, 59
1, 318269, Control_c, 0, 64, 72
1, 318284, Control_c, 0, 64, 78
1, 318286, Note_off_c, 0, 75, 64
1, 318299, Control_c, 0, 64, 83
1, 318303, Note_off_c, 0, 80, 61
1, 318314, Control_c, 0, 64, 84
1, 318318, Note_off_c, 0, 51, 58
1, 318329, Control_c, 0, 64, 85
1, 318344, Control_c, 0, 64, 85
1, 318367, Note_on_c, 0, 44, 76
1, 318393, Note_off_c, 0, 44, 63
1, 318491, Control_c, 0, 64, 84
1, 318506, Control_c, 0, 64, 78
1, 318522, Control_c, 0, 64, 67
1, 318537, Control_c, 0, 64, 0
1, 318567, Control_c, 0, 64, 42
1, 318581, Control_c, 0, 64, 67
1, 318591, Note_on_c, 0, 51, 95
1, 318592, Note_on_c, 0, 39, 89
1, 318595, Note_on_c, 0, 82, 90
1, 318596, Control_c, 0, 64, 76
1, 318597, Note_on_c, 0, 70, 90
1, 318600, Note_on_c, 0, 75, 84
1, 318606, Note_on_c, 0, 79, 74
1, 318611, Control_c, 0, 64, 88
1, 318625, Control_c, 0, 64, 93
1, 318627, Note_off_c, 0, 39, 63
1, 318627, Note_off_c, 0, 51, 59
1, 318640, Control_c, 0, 64, 94
1, 318655, Control_c, 0, 64, 93
1, 318685, Control_c, 0, 64, 92
1, 318697, Note_on_c, 0, 52, 81
1, 318699, Note_off_c, 0, 70, 59
1, 318699, Control_c, 0, 64, 88
1, 318702, Note_on_c, 0, 40, 76
1, 318714, Control_c, 0, 64, 80
1, 318716, Note_off_c, 0, 82, 62
1, 318717, Note_off_c, 0, 75, 61
1, 318721, Note_off_c, 0, 52, 71
1, 318729, Control_c, 0, 64, 66
1, 318731, Note_off_c, 0, 40, 65
1, 318749, Note_off_c, 0, 79, 57
1, 318752, Control_c, 0, 64, 0
1, 318811, Note_on_c, 0, 49, 91
1, 318812, Note_on_c, 0, 70, 82
1, 318815, Note_on_c, 0, 37, 79
1, 318816, Note_on_c, 0, 75, 78
1, 318819, Note_on_c, 0, 82, 74
1, 318820, Note_on_c, 0, 79, 57
1, 318832, Note_off_c, 0, 70, 70
1, 318836, Note_off_c, 0, 49, 66
1, 318839, Note_off_c, 0, 37, 68
1, 318842, Note_off_c, 0, 82, 68
1, 318847, Note_off_c, 0, 75, 67
1, 318854, Note_off_c, 0, 79, 65
1, 318909, Note_on_c, 0, 70, 80
1, 318910, Note_on_c, 0, 75, 70
1, 318910, Note_on_c, 0, 82, 83
1, 318915, Note_on_c, 0, 39, 83
1, 318916, Note_on_c, 0, 51, 79
1, 318931, Note_off_c, 0, 70, 70
1, 318938, Note_off_c, 0, 75, 67
1, 318941, Note_off_c, 0, 51, 67
1, 318946, Note_off_c, 0, 82, 66
1, 318953, Note_off_c, 0, 39, 61
1, 319003, Control_c, 0, 64, 64
1, 319018, Note_on_c, 0, 75, 110
1, 319018, Control_c, 0, 64, 73
1, 319019, Note_on_c, 0, 87, 96
1, 319021, Note_on_c, 0, 35, 90
1, 319022, Note_on_c, 0, 47, 83
1, 319022, Note_on_c, 0, 78, 94
1, 319033, Control_c, 0, 64, 82
1, 319046, Note_off_c, 0, 47, 67
1, 319047, Control_c, 0, 64, 87
1, 319049, Note_off_c, 0, 35, 69
1, 319062, Control_c, 0, 64, 87
1, 319093, Note_off_c, 0, 75, 61
1, 319108, Note_off_c, 0, 87, 60
1, 319116, Note_off_c, 0, 78, 63
1, 319123, Note_on_c, 0, 37, 73
1, 319145, Note_on_c, 0, 49, 64
1, 319167, Note_off_c, 0, 49, 60
1, 319178, Note_off_c, 0, 37, 63
1, 319211, Control_c, 0, 64, 87
1, 319225, Control_c, 0, 64, 85
1, 319240, Control_c, 0, 64, 80
1, 319242, Note_on_c, 0, 33, 81
1, 319244, Note_on_c, 0, 87, 85
1, 319245, Note_on_c, 0, 45, 78
1, 319245, Note_on_c, 0, 75, 80
1, 319246, Note_on_c, 0, 78, 82
1, 319255, Control_c, 0, 64, 73
1, 319262, Note_off_c, 0, 75, 71
1, 319265, Note_off_c, 0, 87, 68
1, 319268, Note_off_c, 0, 78, 68
1, 319270, Control_c, 0, 64, 62
1, 319271, Note_off_c, 0, 33, 69
1, 319271, Note_off_c, 0, 45, 67
1, 319285, Control_c, 0, 64, 0
1, 319340, Note_on_c, 0, 75, 61
1, 319345, Note_on_c, 0, 47, 87
1, 319345, Note_on_c, 0, 78, 88
1, 319348, Note_on_c, 0, 35, 84
1, 319348, Note_on_c, 0, 87, 84
1, 319370, Note_off_c, 0, 87, 65
1, 319371, Note_off_c, 0, 47, 70
1, 319372, Note_off_c, 0, 75, 68
1, 319380, Note_off_c, 0, 78, 65
1, 319384, Note_off_c, 0, 35, 64
1, 319447, Note_on_c, 0, 73, 84
1, 319447, Note_on_c, 0, 85, 88
1, 319452, Note_on_c, 0, 76, 86
1, 319455, Note_on_c, 0, 31, 87
1, 319456, Note_on_c, 0, 43, 84
1, 319465, Note_off_c, 0, 85, 74
1, 319469, Note_off_c, 0, 73, 68
1, 319471, Note_off_c, 0, 76, 71
1, 319510, Note_off_c, 0, 31, 59
1, 319517, Note_off_c, 0, 43, 53
1, 319563, Note_on_c, 0, 71, 83
1, 319565, Note_on_c, 0, 75, 80
1, 319568, Note_on_c, 0, 83, 74
1, 319581, Note_off_c, 0, 71, 70
1, 319585, Note_off_c, 0, 75, 71
1, 319590, Note_off_c, 0, 83, 67
1, 319660, Note_on_c, 0, 32, 67
1, 319663, Note_on_c, 0, 44, 73
1, 319665, Note_on_c, 0, 70, 81
1, 319665, Note_on_c, 0, 73, 85
1, 319667, Note_on_c, 0, 82, 77
1, 319684, Note_off_c, 0, 73, 71
1, 319685, Note_off_c, 0, 70, 72
1, 319688, Note_off_c, 0, 82, 71
1, 319689, Note_off_c, 0, 32, 64
1, 319697, Note_off_c, 0, 44, 63
1, 319757, Note_on_c, 0, 68, 81
1, 319761, Note_on_c, 0, 80, 81
1, 319772, Note_on_c, 0, 72, 61
1, 319778, Note_off_c, 0, 68, 68
1, 319790, Note_off_c, 0, 72, 64
1, 319796, Note_off_c, 0, 80, 57
1, 319864, Note_on_c, 0, 82, 96
1, 319865, Note_on_c, 0, 70, 96
1, 319867, Note_on_c, 0, 39, 71
1, 319873, Note_on_c, 0, 75, 81
1, 319885, Control_c, 0, 64, 55
1, 319900, Control_c, 0, 64, 66
1, 319908, Note_off_c, 0, 75, 61
1, 319909, Note_off_c, 0, 70, 57
1, 319915, Control_c, 0, 64, 72
1, 319919, Note_off_c, 0, 82, 60
1, 319930, Control_c, 0, 64, 77
1, 319945, Control_c, 0, 64, 80
1, 319960, Control_c, 0, 64, 81
1, 319969, Note_off_c, 0, 39, 57
1, 319974, Note_on_c, 0, 46, 66
1, 320091, Note_on_c, 0, 82, 84
1, 320092, Note_off_c, 0, 46, 60
1, 320093, Control_c, 0, 64, 80
1, 320094, Note_on_c, 0, 51, 65
1, 320094, Note_on_c, 0, 70, 80
1, 320100, Note_on_c, 0, 75, 70
1, 320108, Control_c, 0, 64, 77
1, 320119, Note_off_c, 0, 70, 69
1, 320124, Control_c, 0, 64, 72
1, 320128, Note_off_c, 0, 75, 69
1, 320131, Note_off_c, 0, 82, 46
1, 320138, Note_off_c, 0, 51, 63
1, 320138, Control_c, 0, 64, 63
1, 320153, Control_c, 0, 64, 0
1, 320188, Note_on_c, 0, 58, 63
1, 320194, Note_on_c, 0, 82, 82
1, 320197, Note_on_c, 0, 70, 77
1, 320204, Note_on_c, 0, 75, 67
1, 320215, Note_off_c, 0, 82, 71
1, 320219, Note_off_c, 0, 58, 66
1, 320223, Note_off_c, 0, 70, 64
1, 320231, Note_off_c, 0, 75, 69
1, 320311, Note_on_c, 0, 63, 67
1, 320316, Note_on_c, 0, 75, 72
1, 320320, Note_on_c, 0, 73, 67
1, 320320, Note_on_c, 0, 67, 70
1, 320340, Note_off_c, 0, 75, 71
1, 320346, Note_off_c, 0, 67, 66
1, 320347, Note_off_c, 0, 73, 66
1, 320350, Note_off_c, 0, 63, 62
1, 320411, Note_on_c, 0, 58, 48
1, 320421, Note_on_c, 0, 77, 72
1, 320435, Note_on_c, 0, 68, 61
1, 320455, Note_off_c, 0, 68, 61
1, 320461, Note_off_c, 0, 77, 62
1, 320462, Note_off_c, 0, 58, 58
1, 320471, Note_on_c, 0, 78, 21
1, 320472, Note_off_c, 0, 78, 127
1, 320524, Note_on_c, 0, 51, 41
1, 320530, Note_on_c, 0, 79, 77
1, 320536, Note_on_c, 0, 70, 72
1, 320553, Note_off_c, 0, 79, 67
1, 320560, Note_off_c, 0, 70, 69
1, 320563, Note_off_c, 0, 51, 59
1, 320642, Note_on_c, 0, 75, 74
1, 320644, Note_on_c, 0, 67, 67
1, 320646, Note_on_c, 0, 61, 58
1, 320666, Note_off_c, 0, 67, 65
1, 320676, Note_off_c, 0, 75, 61
1, 320684, Note_off_c, 0, 61, 63
1, 320759, Note_on_c, 0, 68, 72
1, 320760, Note_on_c, 0, 80, 72
1, 320764, Note_on_c, 0, 75, 65
1, 320781, Note_on_c, 0, 60, 52
1, 320807, Note_off_c, 0, 60, 59
1, 320914, Note_on_c, 0, 51, 52
1, 320956, Note_off_c, 0, 51, 63
1, 321136, Note_on_c, 0, 44, 37
1, 321176, Control_c, 0, 64, 47
1, 321191, Control_c, 0, 64, 56
1, 321200, Note_off_c, 0, 68, 59
1, 321203, Note_off_c, 0, 44, 36
1, 321206, Control_c, 0, 64, 61
1, 321221, Control_c, 0, 64, 63
1, 321235, Control_c, 0, 64, 65
1, 321250, Control_c, 0, 64, 66
1, 321265, Control_c, 0, 64, 68
1, 321280, Control_c, 0, 64, 70
1, 321295, Control_c, 0, 64, 73
1, 321310, Control_c, 0, 64, 75
1, 321325, Control_c, 0, 64, 76
1, 321347, Note_off_c, 0, 80, 39
1, 321355, Control_c, 0, 64, 77
1, 321384, Control_c, 0, 64, 77
1, 321428, Control_c, 0, 64, 78
1, 321473, Note_off_c, 0, 75, 35
1, 321694, Control_c, 0, 64, 77
1, 321792, Control_c, 0, 64, 77
1, 321821, Control_c, 0, 64, 76
1, 321850, Control_c, 0, 64, 76
1, 321865, Control_c, 0, 64, 75
1, 321880, Control_c, 0, 64, 74
1, 321895, Control_c, 0, 64, 73
1, 321910, Control_c, 0, 64, 72
1, 321924, Control_c, 0, 64, 70
1, 321924, Control_c, 0, 67, 8
1, 321939, Control_c, 0, 64, 68
1, 321939, Control_c, 0, 67, 12
1, 321954, Control_c, 0, 64, 66
1, 321954, Control_c, 0, 67, 17
1, 321969, Control_c, 0, 64, 64
1, 321969, Control_c, 0, 67, 23
1, 321984, Control_c, 0, 64, 64
1, 321984, Control_c, 0, 67, 31
1, 321999, Control_c, 0, 64, 63
1, 321999, Control_c, 0, 67, 38
1, 322013, Control_c, 0, 67, 43
1, 322028, Control_c, 0, 67, 49
1, 322043, Control_c, 0, 64, 63
1, 322043, Control_c, 0, 67, 55
1, 322058, Control_c, 0, 64, 62
1, 322058, Control_c, 0, 67, 62
1, 322073, Control_c, 0, 64, 62
1, 322073, Control_c, 0, 67, 68
1, 322088, Control_c, 0, 64, 61
1, 322088, Control_c, 0, 67, 75
1, 322103, Control_c, 0, 64, 61
1, 322103, Control_c, 0, 67, 81
1, 322117, Control_c, 0, 64, 60
1, 322117, Control_c, 0, 67, 88
1, 322132, Control_c, 0, 64, 58
1, 322132, Control_c, 0, 67, 95
1, 322147, Control_c, 0, 64, 57
1, 322147, Control_c, 0, 67, 103
1, 322162, Control_c, 0, 64, 55
1, 322162, Control_c, 0, 67, 111
1, 322176, Control_c, 0, 64, 53
1, 322176, Control_c, 0, 67, 119
1, 322191, Control_c, 0, 64, 51
1, 322191, Control_c, 0, 67, 127
1, 322206, Control_c, 0, 64, 47
1, 322221, Control_c, 0, 64, 40
1, 322236, Control_c, 0, 64, 27
1, 322250, Control_c, 0, 64, 0
1, 322487, Control_c, 0, 64, 44
1, 322510, Control_c, 0, 64, 54
1, 322526, Control_c, 0, 64, 58
1, 322539, Note_on_c, 0, 63, 20
1, 322541, Control_c, 0, 64, 60
1, 322555, Control_c, 0, 64, 62
1, 322570, Control_c, 0, 64, 63
1, 322585, Control_c, 0, 64, 64
1, 322600, Control_c, 0, 64, 66
1, 322611, Note_on_c, 0, 81, 61
1, 322615, Control_c, 0, 64, 68
1, 322629, Control_c, 0, 64, 70
1, 322644, Control_c, 0, 64, 73
1, 322647, Note_on_c, 0, 71, 31
1, 322659, Control_c, 0, 64, 75
1, 322673, Control_c, 0, 64, 77
1, 322688, Control_c, 0, 64, 78
1, 322703, Control_c, 0, 64, 79
1, 322718, Control_c, 0, 64, 79
1, 322733, Control_c, 0, 64, 80
1, 322762, Control_c, 0, 64, 80
1, 322764, Note_off_c, 0, 81, 52
1, 322781, Note_on_c, 0, 73, 33
1, 322814, Note_off_c, 0, 73, 51
1, 322815, Note_off_c, 0, 63, 38
1, 322881, Note_on_c, 0, 83, 58
1, 322884, Note_on_c, 0, 66, 34
1, 322920, Note_off_c, 0, 66, 50
1, 322921, Note_off_c, 0, 71, 36
1, 322922, Note_on_c, 0, 81, 62
1, 322955, Note_off_c, 0, 83, 59
1, 322968, Note_on_c, 0, 80, 73
1, 322988, Note_on_c, 0, 59, 38
1, 322991, Note_off_c, 0, 81, 57
1, 323069, Note_on_c, 0, 73, 32
1, 323108, Note_off_c, 0, 73, 48
1, 323128, Note_on_c, 0, 78, 80
1, 323140, Note_on_c, 0, 66, 46
1, 323147, Note_off_c, 0, 59, 30
1, 323147, Control_c, 0, 64, 80
1, 323165, Note_off_c, 0, 80, 63
1, 323177, Control_c, 0, 64, 79
1, 323191, Control_c, 0, 64, 79
1, 323206, Control_c, 0, 64, 78
1, 323221, Control_c, 0, 64, 76
1, 323223, Note_on_c, 0, 73, 37
1, 323235, Note_off_c, 0, 66, 39
1, 323236, Control_c, 0, 64, 74
1, 323259, Control_c, 0, 64, 71
1, 323261, Note_off_c, 0, 73, 49
1, 323273, Control_c, 0, 64, 65
1, 323288, Control_c, 0, 64, 53
1, 323292, Note_on_c, 0, 64, 44
1, 323303, Control_c, 0, 64, 18
1, 323319, Control_c, 0, 64, 0
1, 323329, Note_off_c, 0, 78, 63
1, 323346, Note_on_c, 0, 83, 72
1, 323372, Note_on_c, 0, 71, 37
1, 323437, Control_c, 0, 64, 54
1, 323445, Note_on_c, 0, 73, 25
1, 323452, Control_c, 0, 64, 63
1, 323467, Control_c, 0, 64, 65
1, 323482, Control_c, 0, 64, 67
1, 323496, Control_c, 0, 64, 69
1, 323511, Control_c, 0, 64, 71
1, 323522, Note_off_c, 0, 73, 38
1, 323526, Note_off_c, 0, 83, 58
1, 323526, Control_c, 0, 64, 72
1, 323528, Note_on_c, 0, 75, 52
1, 323541, Control_c, 0, 64, 74
1, 323544, Note_on_c, 0, 68, 49
1, 323556, Control_c, 0, 64, 75
1, 323567, Note_off_c, 0, 64, 30
1, 323570, Control_c, 0, 64, 76
1, 323585, Control_c, 0, 64, 77
1, 323600, Control_c, 0, 64, 78
1, 323648, Note_off_c, 0, 68, 31
1, 323650, Note_on_c, 0, 73, 32
1, 323659, Control_c, 0, 64, 77
1, 323671, Note_on_c, 0, 78, 59
1, 323672, Note_off_c, 0, 75, 60
1, 323674, Control_c, 0, 64, 76
1, 323689, Control_c, 0, 64, 72
1, 323692, Note_off_c, 0, 73, 46
1, 323704, Control_c, 0, 64, 63
1, 323719, Control_c, 0, 64, 28
1, 323725, Note_on_c, 0, 59, 37
1, 323733, Control_c, 0, 64, 0
1, 323736, Note_on_c, 0, 76, 64
1, 323748, Control_c, 0, 64, 44
1, 323751, Note_off_c, 0, 78, 56
1, 323763, Control_c, 0, 64, 60
1, 323778, Control_c, 0, 64, 65
1, 323793, Control_c, 0, 64, 68
1, 323808, Control_c, 0, 64, 71
1, 323811, Note_off_c, 0, 59, 34
1, 323820, Note_off_c, 0, 76, 65
1, 323822, Control_c, 0, 64, 73
1, 323834, Note_on_c, 0, 73, 46
1, 323837, Control_c, 0, 64, 74
1, 323852, Control_c, 0, 64, 75
1, 323867, Control_c, 0, 64, 76
1, 323878, Note_off_c, 0, 73, 55
1, 323882, Control_c, 0, 64, 77
1, 323896, Control_c, 0, 64, 77
1, 323911, Control_c, 0, 64, 78
1, 323912, Note_on_c, 0, 68, 50
1, 323927, Control_c, 0, 64, 78
1, 323941, Control_c, 0, 64, 79
1, 323965, Note_off_c, 0, 71, 50
1, 323986, Control_c, 0, 64, 78
1, 324000, Note_on_c, 0, 73, 52
1, 324003, Note_off_c, 0, 68, 35
1, 324008, Control_c, 0, 64, 78
1, 324023, Control_c, 0, 64, 76
1, 324037, Control_c, 0, 64, 72
1, 324045, Note_off_c, 0, 73, 46
1, 324052, Control_c, 0, 64, 68
1, 324067, Control_c, 0, 64, 64
1, 324082, Control_c, 0, 64, 64
1, 324089, Note_on_c, 0, 63, 51
1, 324093, Note_on_c, 0, 81, 80
1, 324097, Control_c, 0, 64, 66
1, 324112, Control_c, 0, 64, 69
1, 324119, Note_on_c, 0, 71, 44
1, 324127, Control_c, 0, 64, 72
1, 324142, Control_c, 0, 64, 74
1, 324157, Control_c, 0, 64, 76
1, 324171, Note_off_c, 0, 63, 54
1, 324172, Control_c, 0, 64, 76
1, 324190, Note_on_c, 0, 73, 55
1, 324201, Control_c, 0, 64, 77
1, 324203, Note_off_c, 0, 81, 60
1, 324231, Control_c, 0, 67, 126
1, 324241, Note_off_c, 0, 73, 57
1, 324291, Control_c, 0, 67, 127
1, 324302, Note_on_c, 0, 66, 42
1, 324311, Note_on_c, 0, 83, 67
1, 324327, Note_off_c, 0, 71, 36
1, 324353, Note_off_c, 0, 66, 43
1, 324374, Note_on_c, 0, 59, 9
1, 324376, Note_on_c, 0, 81, 64
1, 324380, Control_c, 0, 64, 76
1, 324406, Note_off_c, 0, 83, 60
1, 324409, Control_c, 0, 64, 76
1, 324413, Note_on_c, 0, 80, 82
1, 324424, Note_on_c, 0, 73, 58
1, 324424, Control_c, 0, 64, 75
1, 324437, Note_off_c, 0, 81, 58
1, 324438, Control_c, 0, 64, 74
1, 324453, Control_c, 0, 64, 72
1, 324468, Control_c, 0, 64, 70
1, 324483, Control_c, 0, 64, 68
1, 324487, Note_off_c, 0, 73, 37
1, 324498, Control_c, 0, 64, 65
1, 324512, Control_c, 0, 64, 64
1, 324526, Note_on_c, 0, 66, 46
1, 324527, Control_c, 0, 64, 64
1, 324536, Note_off_c, 0, 59, 31
1, 324557, Control_c, 0, 64, 63
1, 324571, Control_c, 0, 64, 62
1, 324574, Note_on_c, 0, 78, 85
1, 324586, Control_c, 0, 64, 61
1, 324592, Note_off_c, 0, 66, 57
1, 324601, Note_on_c, 0, 73, 55
1, 324601, Control_c, 0, 64, 59
1, 324610, Note_off_c, 0, 80, 62
1, 324616, Control_c, 0, 64, 58
1, 324631, Control_c, 0, 64, 56
1, 324646, Control_c, 0, 64, 52
1, 324651, Note_off_c, 0, 73, 53
1, 324661, Control_c, 0, 64, 46
1, 324675, Control_c, 0, 64, 37
1, 324690, Control_c, 0, 64, 18
1, 324702, Note_on_c, 0, 64, 47
1, 324705, Control_c, 0, 64, 0
1, 324758, Note_off_c, 0, 78, 64
1, 324771, Note_on_c, 0, 83, 71
1, 324797, Note_on_c, 0, 71, 45
1, 324841, Note_on_c, 0, 73, 37
1, 324850, Poly_aftertouch_c, 0, 81, 0
1, 324919, Note_off_c, 0, 73, 58
1, 324935, Note_off_c, 0, 83, 57
1, 324936, Note_on_c, 0, 68, 54
1, 324936, Control_c, 0, 64, 15
1, 324950, Note_on_c, 0, 75, 58
1, 324950, Control_c, 0, 64, 57
1, 324956, Note_off_c, 0, 64, 23
1, 324965, Control_c, 0, 64, 61
1, 324980, Control_c, 0, 64, 63
1, 324994, Control_c, 0, 64, 64
1, 325001, Note_off_c, 0, 68, 50
1, 325009, Control_c, 0, 64, 66
1, 325018, Note_on_c, 0, 73, 27
1, 325024, Control_c, 0, 64, 68
1, 325039, Control_c, 0, 64, 70
1, 325069, Control_c, 0, 64, 69
1, 325081, Note_off_c, 0, 73, 41
1, 325084, Control_c, 0, 64, 65
1, 325086, Note_on_c, 0, 78, 59
1, 325092, Note_off_c, 0, 75, 61
1, 325099, Control_c, 0, 64, 53
1, 325114, Control_c, 0, 64, 10
1, 325122, Note_off_c, 0, 78, 64
1, 325129, Control_c, 0, 64, 29
1, 325131, Note_on_c, 0, 59, 30
1, 325141, Note_on_c, 0, 76, 58
1, 325143, Control_c, 0, 64, 54
1, 325146, Note_off_c, 0, 71, 55
1, 325158, Control_c, 0, 64, 64
1, 325173, Control_c, 0, 64, 68
1, 325175, Note_off_c, 0, 59, 45
1, 325188, Control_c, 0, 64, 71
1, 325196, Note_on_c, 0, 73, 43
1, 325202, Control_c, 0, 64, 75
1, 325217, Control_c, 0, 64, 76
1, 325232, Control_c, 0, 64, 78
1, 325239, Note_off_c, 0, 73, 47
1, 325247, Control_c, 0, 64, 79
1, 325255, Note_on_c, 0, 68, 60
1, 325261, Control_c, 0, 64, 81
1, 325276, Control_c, 0, 64, 82
1, 325291, Control_c, 0, 64, 82
1, 325306, Control_c, 0, 64, 83
1, 325313, Note_off_c, 0, 68, 58
1, 325317, Note_off_c, 0, 76, 65
1, 325321, Control_c, 0, 64, 83
1, 325334, Note_on_c, 0, 64, 53
1, 325336, Control_c, 0, 64, 84
1, 325354, Note_off_c, 0, 64, 61
1, 325380, Control_c, 0, 64, 84
1, 325394, Control_c, 0, 64, 85
1, 325409, Control_c, 0, 64, 85
1, 325491, Control_c, 0, 64, 85
1, 325506, Control_c, 0, 64, 83
1, 325519, Note_on_c, 0, 37, 62
1, 325521, Note_on_c, 0, 49, 67
1, 325521, Control_c, 0, 64, 78
1, 325536, Control_c, 0, 64, 70
1, 325550, Control_c, 0, 64, 62
1, 325565, Control_c, 0, 64, 54
1, 325580, Control_c, 0, 64, 61
1, 325594, Control_c, 0, 64, 65
1, 325607, Note_off_c, 0, 37, 0
1, 325607, Note_on_c, 0, 37, 3
1, 325609, Control_c, 0, 64, 70
1, 325624, Control_c, 0, 64, 76
1, 325629, Note_on_c, 0, 54, 63
1, 325639, Control_c, 0, 64, 79
1, 325665, Note_off_c, 0, 37, 60
1, 325665, Note_off_c, 0, 49, 52
1, 325677, Note_off_c, 0, 54, 60
1, 325683, Control_c, 0, 64, 78
1, 325695, Note_on_c, 0, 42, 46
1, 325698, Control_c, 0, 64, 76
1, 325701, Note_on_c, 0, 58, 66
1, 325714, Control_c, 0, 64, 70
1, 325729, Control_c, 0, 64, 60
1, 325744, Control_c, 0, 64, 0
1, 325748, Note_off_c, 0, 58, 60
1, 325760, Note_on_c, 0, 66, 61
1, 325768, Note_off_c, 0, 42, 52
1, 325842, Note_on_c, 0, 35, 43
1, 325843, Note_on_c, 0, 47, 53
1, 325850, Note_off_c, 0, 66, 54
1, 325933, Note_on_c, 0, 54, 49
1, 325955, Note_off_c, 0, 47, 55
1, 325966, Control_c, 0, 64, 51
1, 325981, Control_c, 0, 64, 62
1, 325984, Note_off_c, 0, 54, 61
1, 325991, Note_on_c, 0, 42, 36
1, 325996, Note_off_c, 0, 35, 39
1, 325996, Control_c, 0, 64, 64
1, 326011, Control_c, 0, 64, 65
1, 326025, Note_on_c, 0, 59, 49
1, 326025, Control_c, 0, 64, 67
1, 326040, Control_c, 0, 64, 69
1, 326054, Note_off_c, 0, 42, 56
1, 326055, Control_c, 0, 64, 72
1, 326070, Control_c, 0, 64, 75
1, 326085, Control_c, 0, 64, 76
1, 326099, Control_c, 0, 64, 77
1, 326104, Note_off_c, 0, 59, 54
1, 326114, Control_c, 0, 64, 78
1, 326135, Note_on_c, 0, 63, 43
1, 326144, Control_c, 0, 64, 78
1, 326148, Note_on_c, 0, 66, 45
1, 326159, Control_c, 0, 64, 79
1, 326172, Control_c, 0, 64, 79
1, 326187, Control_c, 0, 64, 80
1, 326187, Control_c, 0, 67, 126
1, 326202, Control_c, 0, 67, 126
1, 326217, Control_c, 0, 67, 125
1, 326239, Control_c, 0, 64, 81
1, 326246, Note_off_c, 0, 63, 38
1, 326254, Control_c, 0, 67, 125
1, 326255, Note_off_c, 0, 66, 58
1, 326284, Control_c, 0, 67, 124
1, 326298, Control_c, 0, 64, 81
1, 326298, Control_c, 0, 67, 123
1, 326313, Control_c, 0, 67, 117
1, 326328, Control_c, 0, 67, 110
1, 326342, Control_c, 0, 67, 105
1, 326357, Control_c, 0, 67, 101
1, 326372, Control_c, 0, 67, 98
1, 326387, Control_c, 0, 67, 97
1, 326402, Control_c, 0, 67, 96
1, 326416, Control_c, 0, 67, 96
1, 326431, Control_c, 0, 67, 95
1, 326446, Control_c, 0, 64, 82
1, 326446, Control_c, 0, 67, 94
1, 326461, Control_c, 0, 67, 91
1, 326476, Control_c, 0, 67, 88
1, 326491, Control_c, 0, 67, 85
1, 326506, Control_c, 0, 67, 83
1, 326510, Note_on_c, 0, 63, 50
1, 326521, Control_c, 0, 64, 81
1, 326521, Control_c, 0, 67, 79
1, 326536, Control_c, 0, 64, 79
1, 326536, Control_c, 0, 67, 76
1, 326551, Control_c, 0, 64, 75
1, 326551, Control_c, 0, 67, 73
1, 326566, Control_c, 0, 64, 65
1, 326566, Control_c, 0, 67, 70
1, 326581, Control_c, 0, 64, 0
1, 326581, Control_c, 0, 67, 66
1, 326595, Control_c, 0, 67, 62
1, 326601, Note_on_c, 0, 81, 72
1, 326610, Control_c, 0, 67, 58
1, 326625, Control_c, 0, 67, 52
1, 326633, Note_on_c, 0, 71, 47
1, 326640, Control_c, 0, 64, 39
1, 326640, Control_c, 0, 67, 47
1, 326655, Control_c, 0, 64, 58
1, 326655, Control_c, 0, 67, 42
1, 326670, Control_c, 0, 64, 64
1, 326670, Control_c, 0, 67, 39
1, 326685, Control_c, 0, 64, 66
1, 326685, Control_c, 0, 67, 37
1, 326699, Control_c, 0, 64, 69
1, 326699, Control_c, 0, 67, 35
1, 326714, Control_c, 0, 64, 71
1, 326714, Control_c, 0, 67, 33
1, 326729, Control_c, 0, 64, 73
1, 326729, Control_c, 0, 67, 32
1, 326731, Note_off_c, 0, 81, 60
1, 326744, Control_c, 0, 64, 74
1, 326744, Control_c, 0, 67, 31
1, 326759, Control_c, 0, 64, 75
1, 326759, Control_c, 0, 67, 30
1, 326770, Note_on_c, 0, 73, 46
1, 326774, Control_c, 0, 64, 76
1, 326788, Control_c, 0, 64, 76
1, 326806, Note_off_c, 0, 71, 55
1, 326809, Note_off_c, 0, 73, 55
1, 326834, Note_on_c, 0, 83, 67
1, 326836, Note_off_c, 0, 63, 28
1, 326854, Note_on_c, 0, 66, 51
1, 326887, Note_on_c, 0, 81, 73
1, 326913, Note_off_c, 0, 66, 47
1, 326924, Note_off_c, 0, 83, 59
1, 326937, Note_on_c, 0, 80, 83
1, 326951, Control_c, 0, 64, 76
1, 326957, Note_on_c, 0, 59, 45
1, 326965, Control_c, 0, 64, 75
1, 326970, Note_off_c, 0, 81, 58
1, 326980, Control_c, 0, 64, 75
1, 326993, Poly_aftertouch_c, 0, 73, 127
1, 327003, Control_c, 0, 64, 74
1, 327018, Control_c, 0, 64, 72
1, 327033, Control_c, 0, 64, 71
1, 327047, Control_c, 0, 64, 70
1, 327049, Note_on_c, 0, 73, 6
1, 327062, Control_c, 0, 64, 68
1, 327077, Control_c, 0, 64, 67
1, 327092, Control_c, 0, 64, 65
1, 327095, Note_on_c, 0, 78, 87
1, 327103, Note_off_c, 0, 73, 58
1, 327107, Control_c, 0, 64, 65
1, 327110, Note_off_c, 0, 59, 37
1, 327121, Control_c, 0, 64, 64
1, 327121, Control_c, 0, 67, 30
1, 327123, Note_on_c, 0, 66, 57
1, 327136, Control_c, 0, 64, 62
1, 327136, Control_c, 0, 67, 31
1, 327151, Control_c, 0, 64, 60
1, 327151, Control_c, 0, 67, 31
1, 327165, Control_c, 0, 64, 57
1, 327165, Control_c, 0, 67, 32
1, 327169, Note_off_c, 0, 80, 51
1, 327180, Control_c, 0, 64, 55
1, 327194, Note_off_c, 0, 66, 61
1, 327195, Control_c, 0, 64, 52
1, 327210, Control_c, 0, 64, 46
1, 327210, Control_c, 0, 67, 32
1, 327211, Note_on_c, 0, 73, 52
1, 327225, Control_c, 0, 64, 30
1, 327239, Control_c, 0, 64, 0
1, 327249, Note_off_c, 0, 73, 57
1, 327254, Control_c, 0, 67, 33
1, 327273, Note_off_c, 0, 78, 63
1, 327275, Note_on_c, 0, 83, 74
1, 327275, Note_on_c, 0, 64, 49
1, 327291, Note_on_c, 0, 71, 56
1, 327344, Control_c, 0, 67, 33
1, 327393, Note_on_c, 0, 73, 37
1, 327403, Control_c, 0, 67, 33
1, 327413, Note_off_c, 0, 83, 56
1, 327430, Note_on_c, 0, 75, 64
1, 327438, Note_off_c, 0, 73, 52
1, 327448, Control_c, 0, 67, 32
1, 327463, Control_c, 0, 64, 51
1, 327464, Note_off_c, 0, 64, 29
1, 327471, Note_on_c, 0, 68, 40
1, 327477, Control_c, 0, 64, 61
1, 327492, Control_c, 0, 64, 64
1, 327507, Control_c, 0, 64, 66
1, 327522, Control_c, 0, 64, 69
1, 327528, Note_off_c, 0, 68, 44
1, 327537, Control_c, 0, 64, 71
1, 327539, Note_on_c, 0, 73, 42
1, 327557, Note_on_c, 0, 78, 66
1, 327559, Note_off_c, 0, 75, 63
1, 327567, Control_c, 0, 64, 69
1, 327573, Note_off_c, 0, 73, 50
1, 327581, Control_c, 0, 64, 64
1, 327581, Control_c, 0, 67, 32
1, 327596, Control_c, 0, 64, 47
1, 327611, Control_c, 0, 64, 0
1, 327617, Note_on_c, 0, 76, 65
1, 327622, Note_on_c, 0, 59, 24
1, 327624, Note_off_c, 0, 78, 63
1, 327626, Control_c, 0, 64, 28
1, 327626, Control_c, 0, 67, 31
1, 327641, Control_c, 0, 64, 56
1, 327655, Control_c, 0, 64, 64
1, 327655, Control_c, 0, 67, 31
1, 327668, Note_off_c, 0, 59, 46
1, 327671, Control_c, 0, 64, 68
1, 327681, Note_on_c, 0, 73, 51
1, 327686, Control_c, 0, 64, 71
1, 327701, Control_c, 0, 64, 73
1, 327701, Control_c, 0, 67, 30
1, 327712, Note_off_c, 0, 76, 64
1, 327716, Control_c, 0, 64, 74
1, 327737, Control_c, 0, 64, 74
1, 327752, Control_c, 0, 64, 75
1, 327752, Control_c, 0, 67, 30
1, 327756, Note_off_c, 0, 73, 58
1, 327767, Control_c, 0, 64, 75
1, 327776, Note_on_c, 0, 68, 58
1, 327782, Control_c, 0, 64, 77
1, 327796, Control_c, 0, 64, 78
1, 327796, Control_c, 0, 67, 29
1, 327811, Control_c, 0, 64, 80
1, 327826, Control_c, 0, 64, 80
1, 327837, Note_off_c, 0, 71, 53
1, 327841, Note_off_c, 0, 68, 54
1, 327856, Note_on_c, 0, 73, 45
1, 327871, Control_c, 0, 64, 79
1, 327886, Control_c, 0, 64, 75
1, 327895, Note_off_c, 0, 73, 48
1, 327901, Control_c, 0, 64, 66
1, 327901, Control_c, 0, 67, 29
1, 327916, Control_c, 0, 64, 15
1, 327931, Control_c, 0, 64, 0
1, 327935, Note_on_c, 0, 63, 55
1, 327937, Note_on_c, 0, 81, 82
1, 327945, Control_c, 0, 64, 42
1, 327960, Control_c, 0, 64, 61
1, 327960, Note_on_c, 0, 71, 59
1, 327975, Control_c, 0, 64, 66
1, 327989, Control_c, 0, 64, 69
1, 328004, Control_c, 0, 64, 72
1, 328014, Note_off_c, 0, 63, 54
1, 328019, Control_c, 0, 64, 73
1, 328027, Note_on_c, 0, 73, 53
1, 328034, Control_c, 0, 64, 74
1, 328049, Control_c, 0, 64, 74
1, 328049, Control_c, 0, 67, 28
1, 328056, Note_off_c, 0, 81, 59
1, 328063, Control_c, 0, 64, 75
1, 328078, Control_c, 0, 64, 75
1, 328089, Note_off_c, 0, 73, 61
1, 328093, Control_c, 0, 64, 76
1, 328109, Control_c, 0, 64, 76
1, 328116, Note_off_c, 0, 71, 56
1, 328119, Note_on_c, 0, 66, 56
1, 328124, Control_c, 0, 64, 77
1, 328157, Note_on_c, 0, 83, 70
1, 328157, Note_off_c, 0, 66, 48
1, 328168, Control_c, 0, 64, 77
1, 328175, Note_on_c, 0, 73, 46
1, 328204, Note_on_c, 0, 81, 74
1, 328212, Control_c, 0, 64, 77
1, 328214, Note_off_c, 0, 73, 55
1, 328227, Control_c, 0, 64, 75
1, 328237, Note_off_c, 0, 83, 58
1, 328242, Control_c, 0, 64, 69
1, 328244, Note_on_c, 0, 59, 56
1, 328253, Note_on_c, 0, 80, 85
1, 328257, Control_c, 0, 64, 60
1, 328272, Control_c, 0, 64, 20
1, 328272, Control_c, 0, 67, 29
1, 328283, Note_off_c, 0, 81, 59
1, 328286, Control_c, 0, 64, 17
1, 328301, Control_c, 0, 64, 46
1, 328316, Note_on_c, 0, 73, 58
1, 328316, Control_c, 0, 64, 61
1, 328321, Note_off_c, 0, 59, 50
1, 328331, Control_c, 0, 64, 65
1, 328346, Control_c, 0, 64, 68
1, 328360, Control_c, 0, 64, 72
1, 328375, Control_c, 0, 64, 76
1, 328378, Note_off_c, 0, 73, 62
1, 328390, Control_c, 0, 64, 79
1, 328394, Note_on_c, 0, 66, 62
1, 328399, Note_on_c, 0, 78, 90
1, 328405, Control_c, 0, 64, 80
1, 328419, Control_c, 0, 64, 81
1, 328456, Note_off_c, 0, 80, 60
1, 328464, Control_c, 0, 67, 30
1, 328465, Note_off_c, 0, 66, 56
1, 328473, Note_on_c, 0, 73, 55
1, 328486, Control_c, 0, 64, 80
1, 328486, Control_c, 0, 67, 30
1, 328501, Control_c, 0, 64, 77
1, 328501, Control_c, 0, 67, 31
1, 328516, Control_c, 0, 64, 70
1, 328516, Control_c, 0, 67, 32
1, 328528, Note_off_c, 0, 73, 57
1, 328531, Control_c, 0, 64, 54
1, 328531, Control_c, 0, 67, 32
1, 328546, Control_c, 0, 64, 0
1, 328560, Control_c, 0, 67, 33
1, 328566, Note_on_c, 0, 64, 48
1, 328575, Control_c, 0, 67, 33
1, 328582, Note_on_c, 0, 83, 79
1, 328589, Note_off_c, 0, 78, 64
1, 328590, Control_c, 0, 67, 34
1, 328600, Note_on_c, 0, 71, 58
1, 328605, Control_c, 0, 67, 35
1, 328619, Control_c, 0, 67, 36
1, 328634, Control_c, 0, 67, 37
1, 328649, Control_c, 0, 67, 38
1, 328679, Control_c, 0, 64, 10
1, 328679, Control_c, 0, 67, 38
1, 328690, Note_on_c, 0, 73, 50
1, 328694, Control_c, 0, 64, 46
1, 328709, Control_c, 0, 64, 55
1, 328723, Control_c, 0, 64, 60
1, 328723, Control_c, 0, 67, 39
1, 328738, Control_c, 0, 64, 62
1, 328738, Control_c, 0, 67, 39
1, 328740, Note_off_c, 0, 64, 35
1, 328742, Note_off_c, 0, 83, 53
1, 328743, Note_on_c, 0, 75, 65
1, 328753, Control_c, 0, 64, 63
1, 328753, Control_c, 0, 67, 40
1, 328764, Note_off_c, 0, 73, 59
1, 328768, Control_c, 0, 64, 64
1, 328771, Note_on_c, 0, 68, 55
1, 328783, Control_c, 0, 64, 64
1, 328783, Control_c, 0, 67, 41
1, 328798, Control_c, 0, 64, 65
1, 328812, Control_c, 0, 64, 64
1, 328812, Control_c, 0, 67, 41
1, 328827, Control_c, 0, 64, 61
1, 328835, Note_off_c, 0, 68, 55
1, 328842, Control_c, 0, 64, 47
1, 328857, Control_c, 0, 64, 0
1, 328857, Control_c, 0, 67, 42
1, 328867, Note_on_c, 0, 78, 71
1, 328879, Note_off_c, 0, 75, 63
1, 328893, Note_off_c, 0, 71, 58
1, 328900, Note_off_c, 0, 78, 65
1, 328901, Control_c, 0, 64, 44
1, 328901, Control_c, 0, 67, 41
1, 328917, Control_c, 0, 64, 61
1, 328929, Note_on_c, 0, 59, 43
1, 328931, Note_on_c, 0, 76, 69
1, 328932, Control_c, 0, 64, 66
1, 328947, Control_c, 0, 64, 69
1, 328962, Control_c, 0, 64, 74
1, 328965, Note_on_c, 0, 73, 41
1, 328977, Control_c, 0, 64, 76
1, 328977, Control_c, 0, 67, 42
1, 328981, Note_off_c, 0, 59, 43
1, 328991, Control_c, 0, 64, 79
1, 329001, Note_off_c, 0, 73, 62
1, 329006, Control_c, 0, 64, 81
1, 329021, Control_c, 0, 64, 82
1, 329034, Note_on_c, 0, 68, 69
1, 329035, Control_c, 0, 64, 83
1, 329035, Control_c, 0, 67, 42
1, 329050, Control_c, 0, 64, 84
1, 329054, Note_off_c, 0, 76, 62
1, 329076, Note_off_c, 0, 68, 60
1, 329104, Note_on_c, 0, 64, 55
1, 329123, Note_off_c, 0, 64, 62
1, 329153, Control_c, 0, 64, 84
1, 329168, Control_c, 0, 67, 43
1, 329183, Control_c, 0, 67, 43
1, 329250, Control_c, 0, 64, 81
1, 329265, Control_c, 0, 64, 75
1, 329265, Control_c, 0, 67, 44
1, 329273, Note_on_c, 0, 49, 76
1, 329280, Control_c, 0, 64, 66
1, 329280, Control_c, 0, 67, 44
1, 329285, Note_on_c, 0, 37, 56
1, 329295, Control_c, 0, 64, 0
1, 329295, Control_c, 0, 67, 47
1, 329309, Control_c, 0, 67, 50
1, 329339, Control_c, 0, 64, 34
1, 329348, Note_off_c, 0, 37, 0
1, 329348, Note_on_c, 0, 37, 14
1, 329354, Control_c, 0, 64, 63
1, 329365, Note_on_c, 0, 54, 65
1, 329368, Control_c, 0, 64, 67
1, 329383, Control_c, 0, 64, 71
1, 329398, Control_c, 0, 64, 74
1, 329413, Control_c, 0, 64, 75
1, 329424, Note_off_c, 0, 49, 55
1, 329433, Note_off_c, 0, 54, 61
1, 329448, Note_on_c, 0, 42, 49
1, 329450, Note_on_c, 0, 58, 64
1, 329457, Control_c, 0, 64, 74
1, 329472, Control_c, 0, 64, 71
1, 329472, Control_c, 0, 67, 49
1, 329481, Note_off_c, 0, 37, 37
1, 329487, Control_c, 0, 64, 67
1, 329502, Control_c, 0, 64, 56
1, 329516, Control_c, 0, 64, 0
1, 329528, Note_on_c, 0, 66, 61
1, 329531, Control_c, 0, 67, 50
1, 329535, Note_off_c, 0, 58, 62
1, 329561, Control_c, 0, 67, 49
1, 329561, Note_off_c, 0, 42, 52
1, 329591, Control_c, 0, 67, 49
1, 329605, Note_on_c, 0, 35, 52
1, 329618, Note_on_c, 0, 47, 47
1, 329621, Control_c, 0, 67, 49
1, 329630, Note_off_c, 0, 66, 60
1, 329695, Control_c, 0, 67, 49
1, 329700, Note_on_c, 0, 54, 53
1, 329725, Control_c, 0, 67, 48
1, 329740, Control_c, 0, 64, 54
1, 329740, Control_c, 0, 67, 48
1, 329744, Note_off_c, 0, 47, 50
1, 329755, Control_c, 0, 64, 62
1, 329755, Control_c, 0, 67, 47
1, 329765, Note_off_c, 0, 54, 60
1, 329770, Control_c, 0, 64, 64
1, 329770, Control_c, 0, 67, 47
1, 329771, Note_off_c, 0, 35, 41
1, 329784, Control_c, 0, 64, 66
1, 329784, Control_c, 0, 67, 46
1, 329788, Note_on_c, 0, 42, 28
1, 329799, Control_c, 0, 64, 68
1, 329803, Note_on_c, 0, 59, 54
1, 329814, Control_c, 0, 64, 70
1, 329814, Control_c, 0, 67, 45
1, 329826, Note_off_c, 0, 42, 44
1, 329829, Control_c, 0, 64, 73
1, 329829, Control_c, 0, 67, 45
1, 329844, Control_c, 0, 64, 76
1, 329844, Control_c, 0, 67, 44
1, 329858, Control_c, 0, 64, 78
1, 329858, Control_c, 0, 67, 44
1, 329873, Control_c, 0, 64, 79
1, 329873, Control_c, 0, 67, 43
1, 329885, Note_off_c, 0, 59, 55
1, 329888, Control_c, 0, 64, 79
1, 329888, Control_c, 0, 67, 43
1, 329903, Control_c, 0, 64, 80
1, 329903, Control_c, 0, 67, 42
1, 329927, Note_on_c, 0, 63, 46
1, 329931, Control_c, 0, 67, 42
1, 329944, Note_on_c, 0, 66, 55
1, 329975, Control_c, 0, 64, 80
1, 329975, Control_c, 0, 67, 41
1, 330005, Note_off_c, 0, 63, 55
1, 330027, Control_c, 0, 67, 41
1, 330033, Note_off_c, 0, 66, 66
1, 330056, Control_c, 0, 64, 81
1, 330101, Control_c, 0, 67, 41
1, 330116, Control_c, 0, 64, 81
1, 330130, Control_c, 0, 64, 82
1, 330145, Control_c, 0, 67, 42
1, 330175, Control_c, 0, 67, 42
1, 330190, Control_c, 0, 64, 81
1, 330205, Control_c, 0, 64, 79
1, 330220, Control_c, 0, 64, 74
1, 330235, Control_c, 0, 64, 67
1, 330250, Control_c, 0, 64, 58
1, 330264, Control_c, 0, 64, 56
1, 330279, Control_c, 0, 64, 61
1, 330291, Note_on_c, 0, 62, 50
1, 330294, Control_c, 0, 64, 65
1, 330309, Control_c, 0, 64, 69
1, 330309, Control_c, 0, 67, 43
1, 330324, Control_c, 0, 64, 72
1, 330338, Control_c, 0, 64, 75
1, 330348, Note_on_c, 0, 78, 78
1, 330353, Control_c, 0, 64, 77
1, 330368, Control_c, 0, 64, 78
1, 330368, Control_c, 0, 67, 43
1, 330372, Note_on_c, 0, 71, 54
1, 330382, Control_c, 0, 64, 78
1, 330397, Control_c, 0, 64, 79
1, 330412, Control_c, 0, 64, 81
1, 330415, Note_off_c, 0, 71, 57
1, 330427, Control_c, 0, 64, 81
1, 330442, Control_c, 0, 64, 82
1, 330456, Control_c, 0, 64, 83
1, 330471, Control_c, 0, 64, 83
1, 330474, Note_on_c, 0, 73, 46
1, 330486, Control_c, 0, 64, 84
1, 330488, Note_off_c, 0, 62, 37
1, 330503, Note_off_c, 0, 78, 60
1, 330528, Note_off_c, 0, 73, 52
1, 330547, Control_c, 0, 64, 83
1, 330551, Note_on_c, 0, 80, 63
1, 330561, Control_c, 0, 64, 82
1, 330569, Note_on_c, 0, 66, 47
1, 330576, Control_c, 0, 64, 77
1, 330591, Control_c, 0, 64, 65
1, 330605, Note_off_c, 0, 80, 63
1, 330605, Control_c, 0, 64, 0
1, 330607, Note_on_c, 0, 78, 67
1, 330622, Note_off_c, 0, 66, 44
1, 330644, Note_on_c, 0, 73, 48
1, 330650, Control_c, 0, 67, 43
1, 330651, Note_on_c, 0, 77, 78
1, 330652, Note_off_c, 0, 78, 65
1, 330668, Note_off_c, 0, 73, 56
1, 330675, Note_off_c, 0, 77, 66
1, 330681, Note_on_c, 0, 62, 53
1, 330710, Control_c, 0, 67, 42
1, 330761, Note_off_c, 0, 62, 39
1, 330762, Control_c, 0, 67, 42
1, 330770, Note_on_c, 0, 73, 45
1, 330819, Note_off_c, 0, 73, 62
1, 330827, Note_on_c, 0, 78, 79
1, 330838, Note_on_c, 0, 66, 59
1, 330850, Note_off_c, 0, 78, 67
1, 330894, Note_off_c, 0, 66, 55
1, 330932, Note_on_c, 0, 73, 49
1, 330969, Control_c, 0, 67, 41
1, 330984, Note_off_c, 0, 73, 59
1, 331002, Note_on_c, 0, 81, 71
1, 331013, Control_c, 0, 67, 41
1, 331040, Note_on_c, 0, 80, 81
1, 331044, Note_on_c, 0, 64, 42
1, 331061, Note_on_c, 0, 71, 39
1, 331072, Note_off_c, 0, 81, 62
1, 331087, Control_c, 0, 67, 40
1, 331102, Control_c, 0, 67, 41
1, 331114, Note_on_c, 0, 73, 50
1, 331117, Control_c, 0, 67, 40
1, 331132, Control_c, 0, 64, 58
1, 331137, Note_off_c, 0, 64, 46
1, 331147, Control_c, 0, 64, 65
1, 331150, Note_off_c, 0, 71, 29
1, 331162, Control_c, 0, 64, 68
1, 331165, Note_off_c, 0, 73, 60
1, 331177, Control_c, 0, 64, 72
1, 331192, Control_c, 0, 64, 77
1, 331192, Control_c, 0, 67, 40
1, 331200, Note_on_c, 0, 68, 42
1, 331206, Control_c, 0, 64, 81
1, 331207, Note_off_c, 0, 80, 62
1, 331221, Control_c, 0, 64, 83
1, 331236, Control_c, 0, 64, 84
1, 331251, Control_c, 0, 64, 86
1, 331266, Control_c, 0, 64, 87
1, 331288, Note_on_c, 0, 73, 49
1, 331288, Note_off_c, 0, 68, 33
1, 331295, Control_c, 0, 67, 39
1, 331308, Note_on_c, 0, 80, 67
1, 331311, Control_c, 0, 64, 86
1, 331316, Note_off_c, 0, 73, 57
1, 331326, Control_c, 0, 64, 82
1, 331326, Control_c, 0, 67, 39
1, 331341, Control_c, 0, 64, 74
1, 331354, Note_on_c, 0, 62, 50
1, 331356, Control_c, 0, 64, 57
1, 331359, Note_on_c, 0, 78, 71
1, 331368, Note_off_c, 0, 80, 63
1, 331370, Note_on_c, 0, 71, 39
1, 331371, Control_c, 0, 64, 0
1, 331385, Control_c, 0, 67, 38
1, 331400, Control_c, 0, 64, 47
1, 331400, Control_c, 0, 67, 38
1, 331410, Note_on_c, 0, 73, 53
1, 331415, Control_c, 0, 64, 62
1, 331429, Control_c, 0, 64, 66
1, 331433, Note_off_c, 0, 71, 55
1, 331444, Control_c, 0, 64, 70
1, 331452, Note_off_c, 0, 73, 63
1, 331454, Note_off_c, 0, 62, 54
1, 331459, Control_c, 0, 64, 73
1, 331474, Control_c, 0, 64, 76
1, 331493, Note_off_c, 0, 78, 63
1, 331496, Control_c, 0, 64, 78
1, 331499, Note_on_c, 0, 66, 55
1, 331511, Control_c, 0, 64, 80
1, 331526, Control_c, 0, 64, 82
1, 331540, Control_c, 0, 64, 83
1, 331555, Control_c, 0, 64, 83
1, 331555, Control_c, 0, 67, 39
1, 331558, Note_on_c, 0, 73, 68
1, 331570, Control_c, 0, 64, 84
1, 331570, Control_c, 0, 67, 41
1, 331576, Note_off_c, 0, 73, 67
1, 331579, Note_off_c, 0, 66, 62
1, 331585, Control_c, 0, 64, 85
1, 331585, Control_c, 0, 67, 42
1, 331600, Control_c, 0, 64, 86
1, 331600, Control_c, 0, 67, 43
1, 331615, Control_c, 0, 64, 88
1, 331615, Control_c, 0, 67, 43
1, 331630, Control_c, 0, 64, 91
1, 331644, Control_c, 0, 64, 93
1, 331644, Control_c, 0, 67, 44
1, 331659, Control_c, 0, 64, 94
1, 331674, Control_c, 0, 64, 93
1, 331674, Control_c, 0, 67, 43
1, 331689, Control_c, 0, 64, 93
1, 331689, Control_c, 0, 67, 43
1, 331704, Control_c, 0, 64, 90
1, 331704, Control_c, 0, 67, 42
1, 331718, Control_c, 0, 64, 83
1, 331733, Control_c, 0, 64, 71
1, 331748, Control_c, 0, 64, 51
1, 331748, Control_c, 0, 67, 42
1, 331762, Control_c, 0, 64, 0
1, 331762, Control_c, 0, 67, 41
1, 331767, Note_on_c, 0, 49, 67
1, 331775, Note_on_c, 0, 37, 51
1, 331777, Control_c, 0, 64, 46
1, 331777, Control_c, 0, 67, 41
1, 331792, Control_c, 0, 64, 62
1, 331807, Control_c, 0, 64, 67
1, 331822, Control_c, 0, 64, 72
1, 331836, Control_c, 0, 64, 76
1, 331851, Control_c, 0, 64, 77
1, 331851, Control_c, 0, 67, 41
1, 331855, Note_on_c, 0, 54, 63
1, 331866, Control_c, 0, 64, 77
1, 331900, Note_off_c, 0, 54, 61
1, 331907, Note_off_c, 0, 49, 56
1, 331915, Note_off_c, 0, 37, 47
1, 331932, Note_on_c, 0, 58, 63
1, 331937, Note_on_c, 0, 42, 37
1, 331955, Control_c, 0, 67, 42
1, 331970, Control_c, 0, 64, 77
1, 331970, Control_c, 0, 67, 42
1, 331985, Control_c, 0, 64, 75
1, 331986, Note_off_c, 0, 58, 60
1, 331999, Control_c, 0, 64, 71
1, 332002, Note_on_c, 0, 66, 56
1, 332007, Note_off_c, 0, 42, 55
1, 332014, Control_c, 0, 64, 62
1, 332014, Control_c, 0, 67, 43
1, 332029, Control_c, 0, 64, 0
1, 332069, Note_off_c, 0, 66, 59
1, 332082, Note_on_c, 0, 35, 51
1, 332082, Note_on_c, 0, 47, 58
1, 332089, Control_c, 0, 67, 43
1, 332149, Control_c, 0, 64, 36
1, 332149, Control_c, 0, 67, 42
1, 332163, Note_off_c, 0, 47, 61
1, 332163, Control_c, 0, 64, 58
1, 332168, Note_off_c, 0, 35, 55
1, 332171, Note_on_c, 0, 54, 47
1, 332177, Control_c, 0, 64, 63
1, 332177, Control_c, 0, 67, 42
1, 332192, Control_c, 0, 64, 66
1, 332201, Note_on_c, 0, 42, 35
1, 332207, Control_c, 0, 64, 70
1, 332207, Control_c, 0, 67, 41
1, 332214, Note_off_c, 0, 54, 63
1, 332229, Control_c, 0, 64, 74
1, 332229, Control_c, 0, 67, 41
1, 332244, Control_c, 0, 64, 78
1, 332245, Note_off_c, 0, 42, 42
1, 332259, Control_c, 0, 64, 81
1, 332274, Control_c, 0, 64, 82
1, 332274, Control_c, 0, 67, 40
1, 332275, Note_on_c, 0, 59, 55
1, 332289, Control_c, 0, 64, 83
1, 332289, Control_c, 0, 67, 40
1, 332304, Control_c, 0, 64, 84
1, 332318, Control_c, 0, 64, 85
1, 332327, Note_off_c, 0, 59, 51
1, 332333, Control_c, 0, 64, 86
1, 332348, Control_c, 0, 64, 86
1, 332363, Control_c, 0, 64, 87
1, 332363, Control_c, 0, 67, 40
1, 332378, Control_c, 0, 64, 88
1, 332378, Control_c, 0, 67, 41
1, 332382, Note_on_c, 0, 63, 42
1, 332387, Note_on_c, 0, 66, 51
1, 332392, Control_c, 0, 64, 89
1, 332407, Control_c, 0, 64, 90
1, 332409, Note_off_c, 0, 63, 54
1, 332409, Note_off_c, 0, 66, 63
1, 332422, Control_c, 0, 64, 90
1, 332452, Control_c, 0, 64, 91
1, 332452, Control_c, 0, 67, 41
1, 332466, Control_c, 0, 64, 91
1, 332496, Control_c, 0, 67, 42
1, 332555, Control_c, 0, 67, 41
1, 332566, Note_on_c, 0, 81, 82
1, 332570, Control_c, 0, 64, 89
1, 332573, Note_on_c, 0, 62, 66
1, 332584, Control_c, 0, 64, 85
1, 332599, Control_c, 0, 64, 78
1, 332599, Control_c, 0, 67, 41
1, 332602, Note_on_c, 0, 80, 74
1, 332605, Note_off_c, 0, 81, 62
1, 332614, Control_c, 0, 64, 68
1, 332626, Note_off_c, 0, 80, 66
1, 332629, Control_c, 0, 64, 13
1, 332644, Control_c, 0, 64, 0
1, 332651, Note_off_c, 0, 62, 49
1, 332658, Control_c, 0, 67, 40
1, 332673, Note_on_c, 0, 73, 57
1, 332673, Control_c, 0, 67, 40
1, 332688, Control_c, 0, 67, 39
1, 332703, Control_c, 0, 67, 38
1, 332709, Note_off_c, 0, 73, 63
1, 332718, Control_c, 0, 67, 37
1, 332733, Control_c, 0, 67, 37
1, 332735, Note_on_c, 0, 78, 78
1, 332736, Note_on_c, 0, 80, 72
1, 332741, Note_on_c, 0, 66, 56
1, 332748, Control_c, 0, 67, 35
1, 332760, Note_off_c, 0, 80, 70
1, 332763, Control_c, 0, 67, 32
1, 332770, Note_off_c, 0, 78, 61
1, 332777, Control_c, 0, 67, 28
1, 332788, Note_off_c, 0, 66, 58
1, 332792, Control_c, 0, 67, 24
1, 332806, Note_on_c, 0, 73, 58
1, 332807, Control_c, 0, 67, 21
1, 332822, Control_c, 0, 67, 17
1, 332837, Control_c, 0, 67, 13
1, 332842, Note_off_c, 0, 73, 64
1, 332851, Control_c, 0, 67, 9
1, 332866, Control_c, 0, 67, 0
1, 332879, Note_on_c, 0, 78, 80
1, 332891, Note_on_c, 0, 77, 84
1, 332891, Note_on_c, 0, 62, 59
1, 332907, Note_off_c, 0, 78, 64
1, 332927, Note_off_c, 0, 77, 61
1, 332983, Note_off_c, 0, 62, 50
1, 333004, Note_on_c, 0, 71, 54
1, 333034, Note_on_c, 0, 77, 77
1, 333039, Note_off_c, 0, 71, 62
1, 333059, Note_off_c, 0, 77, 66
1, 333061, Note_on_c, 0, 66, 54
1, 333061, Note_on_c, 0, 74, 79
1, 333090, Note_off_c, 0, 74, 64
1, 333102, Note_off_c, 0, 66, 62
1, 333131, Note_on_c, 0, 71, 57
1, 333189, Note_off_c, 0, 71, 57
1, 333221, Note_on_c, 0, 73, 72
1, 333234, Note_on_c, 0, 65, 48
1, 333289, Control_c, 0, 64, 32
1, 333304, Control_c, 0, 64, 57
1, 333305, Note_off_c, 0, 73, 53
1, 333319, Control_c, 0, 64, 63
1, 333326, Note_on_c, 0, 71, 36
1, 333330, Note_off_c, 0, 65, 54
1, 333333, Control_c, 0, 64, 65
1, 333348, Control_c, 0, 64, 67
1, 333353, Note_off_c, 0, 71, 56
1, 333363, Control_c, 0, 64, 71
1, 333378, Control_c, 0, 64, 74
1, 333392, Note_on_c, 0, 68, 53
1, 333393, Control_c, 0, 64, 76
1, 333394, Note_on_c, 0, 85, 68
1, 333407, Control_c, 0, 64, 78
1, 333422, Control_c, 0, 64, 79
1, 333435, Note_off_c, 0, 68, 64
1, 333437, Note_off_c, 0, 85, 64
1, 333437, Control_c, 0, 64, 80
1, 333452, Control_c, 0, 64, 81
1, 333467, Control_c, 0, 64, 82
1, 333469, Note_on_c, 0, 71, 42
1, 333481, Control_c, 0, 64, 83
1, 333496, Control_c, 0, 64, 83
1, 333512, Note_off_c, 0, 71, 60
1, 333541, Control_c, 0, 64, 82
1, 333556, Control_c, 0, 64, 75
1, 333570, Control_c, 0, 64, 64
1, 333577, Note_on_c, 0, 66, 43
1, 333582, Note_on_c, 0, 85, 58
1, 333585, Control_c, 0, 64, 0
1, 333630, Control_c, 0, 64, 56
1, 333645, Control_c, 0, 64, 65
1, 333660, Control_c, 0, 64, 69
1, 333674, Control_c, 0, 64, 72
1, 333689, Control_c, 0, 64, 75
1, 333705, Control_c, 0, 64, 78
1, 333711, Note_on_c, 0, 76, 28
1, 333725, Note_off_c, 0, 66, 39
1, 333727, Control_c, 0, 64, 80
1, 333742, Control_c, 0, 64, 81
1, 333753, Note_off_c, 0, 76, 38
1, 333757, Control_c, 0, 64, 82
1, 333779, Note_on_c, 0, 70, 52
1, 333779, Note_on_c, 0, 97, 77
1, 333786, Control_c, 0, 64, 83
1, 333801, Control_c, 0, 64, 83
1, 333807, Note_off_c, 0, 85, 33
1, 333816, Control_c, 0, 64, 84
1, 333827, Note_off_c, 0, 97, 63
1, 333830, Control_c, 0, 64, 84
1, 333845, Control_c, 0, 64, 85
1, 333846, Note_on_c, 0, 76, 55
1, 333860, Control_c, 0, 64, 86
1, 333865, Note_off_c, 0, 76, 63
1, 333866, Note_off_c, 0, 70, 60
1, 333875, Control_c, 0, 64, 86
1, 333890, Control_c, 0, 64, 87
1, 333904, Control_c, 0, 64, 88
1, 334029, Note_on_c, 0, 42, 66
1, 334126, Note_off_c, 0, 42, 61
1, 334137, Note_on_c, 0, 54, 63
1, 334155, Note_on_c, 0, 49, 51
1, 334190, Note_off_c, 0, 49, 54
1, 334206, Note_off_c, 0, 54, 55
1, 334233, Note_on_c, 0, 58, 63
1, 334275, Control_c, 0, 64, 87
1, 334304, Control_c, 0, 64, 87
1, 334319, Control_c, 0, 64, 86
1, 334321, Note_on_c, 0, 66, 58
1, 334322, Note_off_c, 0, 58, 56
1, 334334, Control_c, 0, 64, 85
1, 334348, Control_c, 0, 64, 83
1, 334363, Control_c, 0, 64, 81
1, 334378, Control_c, 0, 64, 78
1, 334393, Control_c, 0, 64, 75
1, 334408, Note_on_c, 0, 35, 48
1, 334409, Control_c, 0, 64, 69
1, 334418, Note_off_c, 0, 66, 60
1, 334423, Control_c, 0, 64, 34
1, 334438, Control_c, 0, 64, 0
1, 334521, Note_on_c, 0, 54, 52
1, 334525, Note_on_c, 0, 47, 31
1, 334594, Note_off_c, 0, 35, 40
1, 334594, Note_off_c, 0, 54, 59
1, 334610, Control_c, 0, 64, 34
1, 334625, Control_c, 0, 64, 53
1, 334636, Note_on_c, 0, 59, 52
1, 334640, Control_c, 0, 64, 61
1, 334654, Control_c, 0, 64, 64
1, 334664, Note_off_c, 0, 47, 52
1, 334669, Control_c, 0, 64, 67
1, 334684, Control_c, 0, 64, 69
1, 334699, Control_c, 0, 64, 72
1, 334714, Control_c, 0, 64, 76
1, 334723, Note_off_c, 0, 59, 56
1, 334728, Control_c, 0, 64, 77
1, 334743, Control_c, 0, 64, 79
1, 334755, Note_on_c, 0, 63, 47
1, 334758, Control_c, 0, 64, 80
1, 334762, Note_on_c, 0, 66, 53
1, 334772, Control_c, 0, 64, 81
1, 334787, Control_c, 0, 64, 81
1, 334802, Control_c, 0, 64, 82
1, 334828, Note_off_c, 0, 63, 53
1, 334832, Control_c, 0, 64, 82
1, 334852, Note_off_c, 0, 66, 65
1, 334861, Control_c, 0, 64, 83
1, 334936, Control_c, 0, 64, 83
1, 334951, Control_c, 0, 64, 84
1, 334965, Control_c, 0, 64, 85
1, 334980, Control_c, 0, 64, 86
1, 334995, Control_c, 0, 64, 87
1, 335010, Control_c, 0, 64, 88
1, 335069, Control_c, 0, 64, 87
1, 335084, Control_c, 0, 64, 81
1, 335085, Note_on_c, 0, 62, 50
1, 335099, Control_c, 0, 64, 73
1, 335114, Control_c, 0, 64, 62
1, 335128, Control_c, 0, 64, 31
1, 335138, Note_on_c, 0, 78, 72
1, 335143, Control_c, 0, 64, 46
1, 335158, Control_c, 0, 64, 59
1, 335170, Note_on_c, 0, 71, 53
1, 335172, Control_c, 0, 64, 65
1, 335187, Control_c, 0, 64, 71
1, 335202, Control_c, 0, 64, 76
1, 335217, Control_c, 0, 64, 79
1, 335230, Note_off_c, 0, 71, 53
1, 335240, Control_c, 0, 64, 80
1, 335254, Control_c, 0, 64, 81
1, 335269, Control_c, 0, 64, 81
1, 335284, Control_c, 0, 64, 82
1, 335284, Note_on_c, 0, 73, 44
1, 335299, Control_c, 0, 64, 82
1, 335314, Control_c, 0, 64, 83
1, 335319, Note_off_c, 0, 78, 60
1, 335329, Control_c, 0, 64, 84
1, 335341, Note_off_c, 0, 73, 49
1, 335344, Control_c, 0, 64, 85
1, 335355, Note_off_c, 0, 62, 33
1, 335358, Note_on_c, 0, 80, 64
1, 335359, Control_c, 0, 64, 86
1, 335372, Note_on_c, 0, 66, 54
1, 335374, Control_c, 0, 64, 86
1, 335418, Control_c, 0, 64, 85
1, 335420, Note_on_c, 0, 78, 72
1, 335420, Note_off_c, 0, 80, 64
1, 335433, Control_c, 0, 64, 80
1, 335448, Control_c, 0, 64, 69
1, 335450, Note_off_c, 0, 66, 51
1, 335453, Note_on_c, 0, 73, 62
1, 335460, Note_on_c, 0, 77, 76
1, 335463, Control_c, 0, 64, 0
1, 335463, Note_off_c, 0, 78, 65
1, 335482, Note_off_c, 0, 77, 66
1, 335494, Note_off_c, 0, 73, 63
1, 335513, Note_on_c, 0, 62, 54
1, 335614, Note_off_c, 0, 62, 52
1, 335615, Note_on_c, 0, 73, 49
1, 335639, Note_on_c, 0, 78, 76
1, 335651, Note_off_c, 0, 73, 62
1, 335660, Note_off_c, 0, 78, 70
1, 335672, Note_on_c, 0, 66, 51
1, 335754, Note_off_c, 0, 66, 52
1, 335765, Note_on_c, 0, 73, 41
1, 335803, Note_off_c, 0, 73, 52
1, 335826, Note_on_c, 0, 81, 74
1, 335851, Note_on_c, 0, 80, 81
1, 335854, Note_on_c, 0, 64, 47
1, 335863, Note_on_c, 0, 71, 47
1, 335879, Note_off_c, 0, 81, 61
1, 335890, Note_off_c, 0, 71, 53
1, 335921, Note_on_c, 0, 73, 44
1, 335936, Control_c, 0, 64, 50
1, 335951, Control_c, 0, 64, 67
1, 335973, Note_off_c, 0, 80, 64
1, 335973, Control_c, 0, 64, 71
1, 335982, Note_off_c, 0, 73, 60
1, 335988, Control_c, 0, 64, 75
1, 336003, Control_c, 0, 64, 77
1, 336014, Note_on_c, 0, 68, 48
1, 336018, Control_c, 0, 64, 79
1, 336033, Control_c, 0, 64, 80
1, 336048, Control_c, 0, 64, 82
1, 336062, Control_c, 0, 64, 82
1, 336067, Note_off_c, 0, 64, 28
1, 336072, Note_off_c, 0, 68, 40
1, 336113, Note_on_c, 0, 73, 37
1, 336123, Note_on_c, 0, 80, 69
1, 336137, Control_c, 0, 64, 80
1, 336144, Note_off_c, 0, 73, 48
1, 336152, Control_c, 0, 64, 74
1, 336167, Control_c, 0, 64, 61
1, 336170, Note_on_c, 0, 62, 53
1, 336173, Note_on_c, 0, 78, 72
1, 336180, Note_on_c, 0, 71, 40
1, 336182, Control_c, 0, 64, 0
1, 336184, Note_off_c, 0, 80, 62
1, 336226, Control_c, 0, 64, 39
1, 336229, Note_on_c, 0, 73, 56
1, 336241, Control_c, 0, 64, 66
1, 336244, Note_off_c, 0, 71, 57
1, 336256, Control_c, 0, 64, 71
1, 336271, Control_c, 0, 64, 77
1, 336280, Note_off_c, 0, 73, 61
1, 336286, Control_c, 0, 64, 81
1, 336299, Note_off_c, 0, 78, 62
1, 336300, Control_c, 0, 64, 84
1, 336315, Control_c, 0, 64, 85
1, 336325, Note_on_c, 0, 66, 54
1, 336330, Control_c, 0, 64, 88
1, 336345, Control_c, 0, 64, 90
1, 336359, Control_c, 0, 64, 93
1, 336361, Note_off_c, 0, 62, 36
1, 336374, Control_c, 0, 64, 95
1, 336382, Note_on_c, 0, 73, 62
1, 336389, Control_c, 0, 64, 97
1, 336402, Note_off_c, 0, 73, 62
1, 336404, Control_c, 0, 64, 100
1, 336408, Note_off_c, 0, 66, 65
1, 336419, Control_c, 0, 64, 103
1, 336433, Control_c, 0, 64, 107
1, 336448, Control_c, 0, 64, 109
1, 336463, Control_c, 0, 64, 109
1, 336493, Control_c, 0, 64, 109
1, 336507, Control_c, 0, 64, 104
1, 336522, Control_c, 0, 64, 93
1, 336537, Control_c, 0, 64, 81
1, 336551, Control_c, 0, 64, 66
1, 336566, Control_c, 0, 64, 0
1, 336577, Note_on_c, 0, 49, 67
1, 336587, Note_on_c, 0, 37, 55
1, 336596, Control_c, 0, 64, 34
1, 336611, Control_c, 0, 64, 64
1, 336626, Control_c, 0, 64, 70
1, 336641, Control_c, 0, 64, 74
1, 336655, Control_c, 0, 64, 78
1, 336670, Control_c, 0, 64, 79
1, 336675, Note_on_c, 0, 54, 64
1, 336685, Control_c, 0, 64, 80
1, 336699, Control_c, 0, 64, 81
1, 336721, Control_c, 0, 64, 82
1, 336727, Note_off_c, 0, 54, 61
1, 336732, Note_off_c, 0, 49, 53
1, 336759, Note_on_c, 0, 58, 64
1, 336761, Note_on_c, 0, 42, 50
1, 336781, Note_off_c, 0, 37, 40
1, 336810, Note_off_c, 0, 58, 54
1, 336811, Control_c, 0, 64, 81
1, 336825, Control_c, 0, 64, 78
1, 336827, Note_on_c, 0, 66, 56
1, 336829, Note_off_c, 0, 42, 54
1, 336840, Control_c, 0, 64, 72
1, 336855, Control_c, 0, 64, 58
1, 336870, Control_c, 0, 64, 0
1, 336873, Note_off_c, 0, 66, 47
1, 336912, Note_on_c, 0, 47, 58
1, 336918, Note_on_c, 0, 35, 48
1, 336974, Control_c, 0, 64, 46
1, 336989, Control_c, 0, 64, 62
1, 336996, Note_off_c, 0, 47, 55
1, 337004, Control_c, 0, 64, 67
1, 337004, Note_on_c, 0, 54, 52
1, 337019, Control_c, 0, 64, 71
1, 337021, Note_off_c, 0, 35, 36
1, 337034, Control_c, 0, 64, 76
1, 337038, Note_on_c, 0, 42, 45
1, 337043, Note_off_c, 0, 54, 63
1, 337048, Control_c, 0, 64, 81
1, 337063, Control_c, 0, 64, 83
1, 337076, Note_off_c, 0, 42, 62
1, 337078, Control_c, 0, 64, 85
1, 337093, Control_c, 0, 64, 86
1, 337096, Note_on_c, 0, 59, 55
1, 337108, Control_c, 0, 64, 87
1, 337122, Control_c, 0, 64, 89
1, 337137, Control_c, 0, 64, 90
1, 337145, Note_off_c, 0, 59, 54
1, 337152, Control_c, 0, 64, 91
1, 337167, Control_c, 0, 64, 92
1, 337181, Control_c, 0, 64, 94
1, 337195, Note_on_c, 0, 66, 56
1, 337196, Control_c, 0, 64, 96
1, 337200, Note_on_c, 0, 63, 43
1, 337211, Control_c, 0, 64, 97
1, 337225, Note_off_c, 0, 66, 67
1, 337226, Note_off_c, 0, 63, 56
1, 337226, Control_c, 0, 64, 100
1, 337241, Control_c, 0, 64, 101
1, 337255, Control_c, 0, 64, 103
1, 337270, Control_c, 0, 64, 105
1, 337285, Control_c, 0, 64, 105
1, 337300, Control_c, 0, 64, 106
1, 337329, Control_c, 0, 64, 105
1, 337344, Control_c, 0, 64, 105
1, 337359, Control_c, 0, 64, 102
1, 337374, Control_c, 0, 64, 94
1, 337380, Note_on_c, 0, 81, 82
1, 337389, Control_c, 0, 64, 84
1, 337392, Note_on_c, 0, 62, 56
1, 337404, Control_c, 0, 64, 71
1, 337410, Note_off_c, 0, 81, 61
1, 337413, Note_on_c, 0, 80, 73
1, 337419, Control_c, 0, 64, 15
1, 337434, Control_c, 0, 64, 0
1, 337438, Note_off_c, 0, 80, 67
1, 337465, Note_on_c, 0, 73, 59
1, 337475, Note_off_c, 0, 62, 54
1, 337514, Note_off_c, 0, 73, 62
1, 337554, Note_on_c, 0, 66, 55
1, 337556, Note_on_c, 0, 78, 79
1, 337559, Note_on_c, 0, 80, 73
1, 337582, Note_off_c, 0, 80, 70
1, 337595, Note_off_c, 0, 78, 62
1, 337604, Note_off_c, 0, 66, 56
1, 337626, Note_on_c, 0, 73, 58
1, 337652, Note_off_c, 0, 73, 64
1, 337699, Note_on_c, 0, 62, 60
1, 337704, Note_on_c, 0, 78, 73
1, 337705, Note_on_c, 0, 77, 82
1, 337728, Note_off_c, 0, 78, 69
1, 337744, Note_off_c, 0, 77, 65
1, 337803, Note_on_c, 0, 71, 57
1, 337810, Note_off_c, 0, 62, 47
1, 337842, Note_off_c, 0, 71, 60
1, 337845, Note_on_c, 0, 77, 71
1, 337867, Note_on_c, 0, 74, 78
1, 337869, Note_off_c, 0, 77, 66
1, 337869, Note_on_c, 0, 66, 54
1, 337897, Note_off_c, 0, 74, 66
1, 337912, Note_off_c, 0, 66, 62
1, 337957, Note_on_c, 0, 71, 50
1, 337998, Note_off_c, 0, 71, 61
1, 338034, Note_on_c, 0, 73, 68
1, 338055, Note_on_c, 0, 65, 30
1, 338107, Note_off_c, 0, 73, 57
1, 338109, Control_c, 0, 64, 34
1, 338123, Control_c, 0, 64, 57
1, 338129, Note_on_c, 0, 71, 45
1, 338138, Control_c, 0, 64, 63
1, 338153, Control_c, 0, 64, 66
1, 338168, Control_c, 0, 64, 68
1, 338173, Note_off_c, 0, 71, 62
1, 338183, Control_c, 0, 64, 71
1, 338197, Control_c, 0, 64, 74
1, 338212, Control_c, 0, 64, 76
1, 338215, Note_on_c, 0, 85, 63
1, 338226, Note_on_c, 0, 68, 47
1, 338235, Control_c, 0, 64, 78
1, 338250, Control_c, 0, 64, 79
1, 338265, Control_c, 0, 64, 79
1, 338269, Note_off_c, 0, 65, 24
1, 338279, Control_c, 0, 64, 80
1, 338282, Note_off_c, 0, 68, 53
1, 338304, Note_off_c, 0, 85, 61
1, 338309, Control_c, 0, 64, 80
1, 338310, Note_on_c, 0, 71, 45
1, 338323, Control_c, 0, 64, 81
1, 338338, Control_c, 0, 64, 82
1, 338353, Control_c, 0, 64, 83
1, 338356, Note_off_c, 0, 71, 59
1, 338412, Control_c, 0, 64, 82
1, 338420, Note_on_c, 0, 66, 50
1, 338427, Note_on_c, 0, 85, 55
1, 338427, Control_c, 0, 64, 79
1, 338442, Control_c, 0, 64, 72
1, 338457, Control_c, 0, 64, 60
1, 338468, Note_off_c, 0, 66, 0
1, 338468, Note_on_c, 0, 66, 17
1, 338471, Control_c, 0, 64, 0
1, 338517, Control_c, 0, 64, 33
1, 338532, Control_c, 0, 64, 61
1, 338546, Control_c, 0, 64, 65
1, 338560, Note_on_c, 0, 76, 49
1, 338561, Control_c, 0, 64, 68
1, 338576, Control_c, 0, 64, 72
1, 338591, Control_c, 0, 64, 75
1, 338606, Control_c, 0, 64, 78
1, 338620, Note_off_c, 0, 76, 45
1, 338620, Control_c, 0, 64, 80
1, 338635, Control_c, 0, 64, 81
1, 338650, Control_c, 0, 64, 82
1, 338659, Note_on_c, 0, 97, 68
1, 338660, Note_on_c, 0, 70, 52
1, 338664, Note_off_c, 0, 66, 40
1, 338665, Control_c, 0, 64, 83
1, 338680, Control_c, 0, 64, 84
1, 338695, Control_c, 0, 64, 85
1, 338710, Control_c, 0, 64, 85
1, 338724, Note_off_c, 0, 97, 62
1, 338724, Control_c, 0, 64, 86
1, 338736, Note_off_c, 0, 85, 32
1, 338739, Control_c, 0, 64, 86
1, 338754, Control_c, 0, 64, 87
1, 338769, Control_c, 0, 64, 87
1, 338778, Note_on_c, 0, 76, 43
1, 338789, Note_off_c, 0, 70, 56
1, 338799, Control_c, 0, 64, 88
1, 338802, Note_off_c, 0, 76, 49
1, 338813, Control_c, 0, 64, 88
1, 338828, Control_c, 0, 64, 89
1, 338843, Control_c, 0, 64, 90
1, 338858, Control_c, 0, 64, 90
1, 338873, Control_c, 0, 64, 91
1, 338888, Control_c, 0, 64, 91
1, 338902, Control_c, 0, 64, 92
1, 338917, Control_c, 0, 64, 93
1, 338932, Control_c, 0, 64, 93
1, 338946, Control_c, 0, 64, 94
1, 338969, Control_c, 0, 64, 94
1, 338984, Control_c, 0, 64, 95
1, 338999, Control_c, 0, 64, 96
1, 339028, Control_c, 0, 64, 96
1, 339050, Note_on_c, 0, 42, 51
1, 339058, Control_c, 0, 64, 97
1, 339192, Note_off_c, 0, 42, 58
1, 339216, Note_on_c, 0, 54, 52
1, 339221, Note_on_c, 0, 49, 43
1, 339295, Note_off_c, 0, 49, 45
1, 339346, Note_off_c, 0, 54, 53
1, 339365, Note_on_c, 0, 58, 51
1, 339503, Note_on_c, 0, 64, 39
1, 339504, Note_off_c, 0, 58, 52
1, 339512, Note_on_c, 0, 66, 46
1, 339649, Note_off_c, 0, 64, 36
1, 339679, Note_off_c, 0, 66, 44
1, 339745, Note_on_c, 0, 35, 44
1, 339792, Control_c, 0, 64, 96
1, 339836, Control_c, 0, 64, 95
1, 339851, Control_c, 0, 64, 94
1, 339866, Control_c, 0, 64, 93
1, 339881, Control_c, 0, 64, 89
1, 339895, Control_c, 0, 64, 85
1, 339910, Control_c, 0, 64, 78
1, 339925, Control_c, 0, 64, 70
1, 339940, Control_c, 0, 64, 59
1, 339947, Note_on_c, 0, 47, 42
1, 339947, Note_on_c, 0, 54, 46
1, 339955, Control_c, 0, 64, 0
1, 340119, Control_c, 0, 64, 20
1, 340134, Control_c, 0, 64, 55
1, 340148, Control_c, 0, 64, 63
1, 340163, Control_c, 0, 64, 65
1, 340178, Control_c, 0, 64, 68
1, 340192, Control_c, 0, 64, 70
1, 340207, Control_c, 0, 64, 73
1, 340222, Control_c, 0, 64, 75
1, 340233, Note_on_c, 0, 59, 40
1, 340237, Control_c, 0, 64, 77
1, 340241, Note_off_c, 0, 54, 36
1, 340252, Control_c, 0, 64, 79
1, 340266, Control_c, 0, 64, 80
1, 340269, Note_off_c, 0, 35, 38
1, 340281, Control_c, 0, 64, 81
1, 340296, Control_c, 0, 64, 82
1, 340311, Control_c, 0, 64, 82
1, 340326, Control_c, 0, 64, 83
1, 340355, Control_c, 0, 64, 83
1, 340370, Control_c, 0, 64, 84
1, 340415, Control_c, 0, 64, 84
1, 340444, Control_c, 0, 64, 85
1, 340468, Note_off_c, 0, 47, 36
1, 340555, Control_c, 0, 64, 85
1, 340629, Control_c, 0, 64, 86
1, 340658, Note_off_c, 0, 59, 30
1, 340678, Note_on_c, 0, 66, 46
1, 340683, Note_on_c, 0, 63, 40
1, 340748, Control_c, 0, 64, 86
1, 340767, Note_off_c, 0, 63, 0
1, 340804, Poly_aftertouch_c, 0, 63, 127
1, 340853, Note_off_c, 0, 66, 39
1, 340881, Poly_aftertouch_c, 0, 63, 0
1, 341798, Note_on_c, 0, 51, 36
1, 341824, Control_c, 0, 64, 86
1, 341838, Control_c, 0, 64, 84
1, 341853, Control_c, 0, 64, 78
1, 341868, Control_c, 0, 64, 69
1, 341883, Note_on_c, 0, 93, 73
1, 341883, Control_c, 0, 64, 29
1, 341894, Note_on_c, 0, 81, 50
1, 341898, Control_c, 0, 64, 0
1, 341942, Control_c, 0, 64, 54
1, 341957, Control_c, 0, 64, 64
1, 341979, Control_c, 0, 64, 68
1, 341994, Control_c, 0, 64, 72
1, 342006, Note_off_c, 0, 81, 30
1, 342009, Control_c, 0, 64, 76
1, 342024, Control_c, 0, 64, 78
1, 342039, Control_c, 0, 64, 80
1, 342053, Control_c, 0, 64, 81
1, 342057, Note_on_c, 0, 61, 37
1, 342068, Control_c, 0, 64, 81
1, 342083, Control_c, 0, 64, 82
1, 342091, Note_off_c, 0, 51, 33
1, 342098, Control_c, 0, 64, 82
1, 342131, Note_off_c, 0, 93, 60
1, 342135, Note_off_c, 0, 61, 53
1, 342142, Control_c, 0, 64, 83
1, 342147, Note_on_c, 0, 95, 63
1, 342188, Note_on_c, 0, 59, 40
1, 342201, Note_off_c, 0, 95, 61
1, 342206, Note_on_c, 0, 93, 67
1, 342218, Note_off_c, 0, 59, 51
1, 342260, Note_on_c, 0, 92, 74
1, 342260, Control_c, 0, 64, 83
1, 342264, Note_on_c, 0, 80, 58
1, 342268, Note_off_c, 0, 93, 63
1, 342275, Control_c, 0, 64, 84
1, 342284, Note_on_c, 0, 69, 52
1, 342290, Control_c, 0, 64, 84
1, 342315, Note_off_c, 0, 80, 47
1, 342316, Note_off_c, 0, 92, 63
1, 342319, Note_off_c, 0, 69, 56
1, 342319, Control_c, 0, 64, 85
1, 342334, Control_c, 0, 64, 85
1, 342349, Control_c, 0, 64, 86
1, 342360, Note_on_c, 0, 66, 57
1, 342379, Control_c, 0, 64, 86
1, 342394, Control_c, 0, 64, 87
1, 342412, Note_off_c, 0, 66, 57
1, 342419, Note_on_c, 0, 90, 81
1, 342424, Control_c, 0, 64, 87
1, 342428, Note_on_c, 0, 78, 70
1, 342457, Note_on_c, 0, 61, 23
1, 342472, Note_off_c, 0, 78, 60
1, 342474, Note_on_c, 0, 59, 53
1, 342483, Control_c, 0, 64, 88
1, 342498, Control_c, 0, 64, 89
1, 342501, Note_off_c, 0, 61, 39
1, 342513, Control_c, 0, 64, 91
1, 342523, Note_off_c, 0, 59, 62
1, 342528, Control_c, 0, 64, 93
1, 342543, Control_c, 0, 64, 95
1, 342558, Control_c, 0, 64, 96
1, 342587, Control_c, 0, 64, 95
1, 342602, Control_c, 0, 64, 91
1, 342605, Note_off_c, 0, 90, 63
1, 342617, Control_c, 0, 64, 82
1, 342631, Note_on_c, 0, 52, 42
1, 342632, Control_c, 0, 64, 69
1, 342633, Note_on_c, 0, 95, 83
1, 342645, Control_c, 0, 64, 0
1, 342656, Note_on_c, 0, 83, 49
1, 342671, Note_off_c, 0, 52, 47
1, 342689, Control_c, 0, 64, 56
1, 342691, Note_off_c, 0, 95, 65
1, 342700, Note_off_c, 0, 83, 46
1, 342704, Control_c, 0, 64, 66
1, 342713, Note_on_c, 0, 61, 50
1, 342726, Control_c, 0, 64, 72
1, 342741, Control_c, 0, 64, 78
1, 342756, Control_c, 0, 64, 81
1, 342771, Control_c, 0, 64, 82
1, 342784, Note_off_c, 0, 61, 51
1, 342786, Control_c, 0, 64, 83
1, 342815, Control_c, 0, 64, 83
1, 342830, Control_c, 0, 64, 84
1, 342832, Note_on_c, 0, 59, 52
1, 342839, Note_on_c, 0, 87, 69
1, 342845, Control_c, 0, 64, 86
1, 342848, Note_on_c, 0, 75, 60
1, 342860, Control_c, 0, 64, 88
1, 342871, Note_off_c, 0, 59, 61
1, 342874, Control_c, 0, 64, 89
1, 342889, Control_c, 0, 64, 91
1, 342904, Control_c, 0, 64, 92
1, 342919, Control_c, 0, 64, 93
1, 342933, Control_c, 0, 64, 94
1, 342946, Note_on_c, 0, 90, 74
1, 342948, Control_c, 0, 64, 96
1, 342949, Note_off_c, 0, 87, 63
1, 342951, Note_off_c, 0, 75, 50
1, 342963, Control_c, 0, 64, 97
1, 342968, Note_off_c, 0, 90, 67
1, 342978, Control_c, 0, 64, 97
1, 342993, Note_on_c, 0, 68, 64
1, 342993, Control_c, 0, 64, 98
1, 343008, Note_on_c, 0, 88, 72
1, 343008, Control_c, 0, 64, 99
1, 343008, Note_on_c, 0, 76, 67
1, 343022, Note_on_c, 0, 89, 36
1, 343026, Note_off_c, 0, 68, 65
1, 343038, Control_c, 0, 64, 99
1, 343053, Note_off_c, 0, 89, 41
1, 343060, Note_on_c, 0, 64, 54
1, 343081, Note_off_c, 0, 76, 56
1, 343119, Note_on_c, 0, 61, 48
1, 343137, Note_off_c, 0, 64, 56
1, 343167, Note_off_c, 0, 61, 59
1, 343185, Note_on_c, 0, 59, 46
1, 343190, Note_off_c, 0, 88, 63
1, 343218, Note_off_c, 0, 59, 57
1, 343320, Control_c, 0, 64, 98
1, 343334, Control_c, 0, 64, 93
1, 343349, Control_c, 0, 64, 81
1, 343364, Control_c, 0, 64, 63
1, 343378, Note_on_c, 0, 51, 55
1, 343378, Note_on_c, 0, 93, 80
1, 343379, Control_c, 0, 64, 0
1, 343383, Note_on_c, 0, 81, 67
1, 343476, Control_c, 0, 64, 60
1, 343490, Note_off_c, 0, 51, 47
1, 343490, Control_c, 0, 64, 66
1, 343505, Control_c, 0, 64, 69
1, 343515, Note_on_c, 0, 61, 49
1, 343520, Control_c, 0, 64, 71
1, 343530, Note_off_c, 0, 81, 58
1, 343535, Control_c, 0, 64, 74
1, 343549, Control_c, 0, 64, 77
1, 343564, Control_c, 0, 64, 80
1, 343579, Control_c, 0, 64, 82
1, 343585, Note_off_c, 0, 93, 60
1, 343588, Note_off_c, 0, 61, 60
1, 343594, Control_c, 0, 64, 84
1, 343609, Control_c, 0, 64, 85
1, 343610, Note_on_c, 0, 95, 62
1, 343617, Note_on_c, 0, 59, 56
1, 343623, Control_c, 0, 64, 85
1, 343638, Control_c, 0, 64, 86
1, 343653, Note_on_c, 0, 93, 64
1, 343653, Control_c, 0, 64, 87
1, 343655, Note_off_c, 0, 59, 62
1, 343668, Control_c, 0, 64, 88
1, 343681, Note_off_c, 0, 95, 59
1, 343683, Control_c, 0, 64, 88
1, 343697, Control_c, 0, 64, 89
1, 343712, Control_c, 0, 64, 89
1, 343714, Note_on_c, 0, 69, 59
1, 343719, Note_on_c, 0, 92, 90
1, 343727, Control_c, 0, 64, 90
1, 343732, Note_on_c, 0, 80, 70
1, 343738, Note_off_c, 0, 93, 64
1, 343756, Control_c, 0, 64, 90
1, 343771, Control_c, 0, 64, 91
1, 343776, Note_off_c, 0, 69, 63
1, 343780, Note_off_c, 0, 80, 62
1, 343780, Note_off_c, 0, 92, 65
1, 343794, Note_on_c, 0, 66, 67
1, 343801, Control_c, 0, 64, 91
1, 343855, Note_off_c, 0, 66, 53
1, 343872, Note_on_c, 0, 90, 88
1, 343877, Note_on_c, 0, 78, 82
1, 343905, Note_on_c, 0, 87, 43
1, 343905, Control_c, 0, 64, 92
1, 343913, Note_on_c, 0, 59, 63
1, 343920, Control_c, 0, 64, 92
1, 343934, Control_c, 0, 64, 93
1, 343939, Note_off_c, 0, 87, 47
1, 343947, Note_off_c, 0, 78, 62
1, 343949, Control_c, 0, 64, 94
1, 343973, Note_off_c, 0, 59, 62
1, 343979, Control_c, 0, 64, 93
1, 343994, Control_c, 0, 64, 88
1, 344001, Note_off_c, 0, 90, 64
1, 344008, Control_c, 0, 64, 77
1, 344023, Control_c, 0, 64, 58
1, 344038, Control_c, 0, 64, 0
1, 344048, Note_on_c, 0, 52, 59
1, 344051, Note_on_c, 0, 95, 94
1, 344064, Note_on_c, 0, 83, 68
1, 344067, Control_c, 0, 64, 50
1, 344084, Control_c, 0, 64, 66
1, 344086, Note_off_c, 0, 52, 47
1, 344096, Note_off_c, 0, 83, 62
1, 344099, Control_c, 0, 64, 72
1, 344100, Note_off_c, 0, 95, 66
1, 344113, Control_c, 0, 64, 79
1, 344128, Control_c, 0, 64, 82
1, 344131, Note_on_c, 0, 61, 54
1, 344144, Control_c, 0, 64, 83
1, 344158, Control_c, 0, 64, 84
1, 344188, Control_c, 0, 64, 84
1, 344210, Control_c, 0, 64, 85
1, 344212, Note_off_c, 0, 61, 60
1, 344225, Control_c, 0, 64, 85
1, 344232, Note_on_c, 0, 87, 83
1, 344237, Note_on_c, 0, 75, 75
1, 344239, Control_c, 0, 64, 86
1, 344242, Note_on_c, 0, 59, 60
1, 344254, Control_c, 0, 64, 87
1, 344269, Control_c, 0, 64, 88
1, 344284, Control_c, 0, 64, 89
1, 344291, Note_off_c, 0, 59, 58
1, 344299, Control_c, 0, 64, 91
1, 344314, Control_c, 0, 64, 92
1, 344343, Note_off_c, 0, 75, 62
1, 344358, Control_c, 0, 64, 91
1, 344361, Note_on_c, 0, 90, 77
1, 344362, Note_off_c, 0, 87, 63
1, 344373, Control_c, 0, 64, 83
1, 344383, Note_off_c, 0, 90, 69
1, 344388, Control_c, 0, 64, 68
1, 344403, Control_c, 0, 64, 0
1, 344410, Note_on_c, 0, 68, 67
1, 344412, Note_on_c, 0, 88, 81
1, 344421, Note_on_c, 0, 76, 71
1, 344430, Note_on_c, 0, 89, 22
1, 344461, Note_off_c, 0, 68, 62
1, 344464, Note_off_c, 0, 89, 33
1, 344492, Control_c, 0, 64, 63
1, 344495, Note_on_c, 0, 64, 54
1, 344507, Control_c, 0, 64, 71
1, 344519, Note_off_c, 0, 88, 63
1, 344521, Control_c, 0, 64, 79
1, 344536, Control_c, 0, 64, 85
1, 344543, Note_on_c, 0, 61, 58
1, 344551, Control_c, 0, 64, 87
1, 344565, Control_c, 0, 64, 88
1, 344567, Note_off_c, 0, 64, 54
1, 344580, Control_c, 0, 64, 89
1, 344582, Note_off_c, 0, 76, 64
1, 344595, Control_c, 0, 64, 90
1, 344597, Note_on_c, 0, 59, 69
1, 344606, Note_off_c, 0, 61, 60
1, 344610, Control_c, 0, 64, 92
1, 344625, Control_c, 0, 64, 96
1, 344626, Note_off_c, 0, 59, 66
1, 344639, Control_c, 0, 64, 100
1, 344654, Control_c, 0, 64, 106
1, 344669, Control_c, 0, 64, 107
1, 344698, Control_c, 0, 64, 105
1, 344713, Control_c, 0, 64, 98
1, 344728, Control_c, 0, 64, 85
1, 344743, Control_c, 0, 64, 64
1, 344758, Control_c, 0, 64, 0
1, 344782, Note_on_c, 0, 49, 69
1, 344788, Control_c, 0, 67, 9
1, 344791, Note_on_c, 0, 37, 58
1, 344802, Control_c, 0, 64, 39
1, 344802, Control_c, 0, 67, 17
1, 344817, Control_c, 0, 64, 65
1, 344817, Control_c, 0, 67, 26
1, 344832, Control_c, 0, 64, 70
1, 344832, Control_c, 0, 67, 40
1, 344847, Control_c, 0, 64, 78
1, 344847, Control_c, 0, 67, 53
1, 344862, Control_c, 0, 64, 83
1, 344862, Control_c, 0, 67, 65
1, 344873, Note_on_c, 0, 54, 62
1, 344877, Control_c, 0, 64, 85
1, 344877, Control_c, 0, 67, 75
1, 344892, Control_c, 0, 64, 85
1, 344892, Control_c, 0, 67, 84
1, 344907, Control_c, 0, 67, 94
1, 344922, Control_c, 0, 64, 86
1, 344922, Control_c, 0, 67, 104
1, 344937, Control_c, 0, 67, 110
1, 344959, Control_c, 0, 67, 113
1, 344963, Note_off_c, 0, 49, 53
1, 344972, Note_on_c, 0, 58, 65
1, 344977, Note_on_c, 0, 42, 48
1, 344978, Note_off_c, 0, 54, 53
1, 344984, Note_off_c, 0, 37, 37
1, 345003, Control_c, 0, 64, 85
1, 345018, Control_c, 0, 64, 82
1, 345018, Control_c, 0, 67, 112
1, 345033, Control_c, 0, 64, 73
1, 345038, Note_off_c, 0, 58, 63
1, 345047, Note_on_c, 0, 66, 61
1, 345048, Control_c, 0, 64, 47
1, 345058, Note_off_c, 0, 42, 56
1, 345062, Control_c, 0, 64, 0
1, 345092, Control_c, 0, 67, 111
1, 345107, Control_c, 0, 67, 111
1, 345121, Control_c, 0, 67, 110
1, 345132, Note_on_c, 0, 35, 50
1, 345133, Note_off_c, 0, 66, 60
1, 345137, Note_on_c, 0, 47, 46
1, 345208, Note_on_c, 0, 54, 51
1, 345211, Control_c, 0, 67, 109
1, 345226, Control_c, 0, 67, 109
1, 345241, Control_c, 0, 67, 108
1, 345255, Control_c, 0, 67, 107
1, 345267, Note_off_c, 0, 47, 37
1, 345270, Control_c, 0, 64, 63
1, 345270, Control_c, 0, 67, 106
1, 345276, Note_off_c, 0, 54, 61
1, 345280, Note_on_c, 0, 42, 24
1, 345285, Control_c, 0, 64, 70
1, 345285, Control_c, 0, 67, 105
1, 345285, Note_off_c, 0, 35, 52
1, 345300, Control_c, 0, 64, 76
1, 345300, Control_c, 0, 67, 103
1, 345314, Control_c, 0, 64, 80
1, 345314, Control_c, 0, 67, 102
1, 345316, Note_on_c, 0, 59, 53
1, 345327, Note_off_c, 0, 42, 61
1, 345329, Control_c, 0, 64, 81
1, 345329, Control_c, 0, 67, 100
1, 345344, Control_c, 0, 64, 83
1, 345344, Control_c, 0, 67, 99
1, 345359, Control_c, 0, 64, 87
1, 345359, Control_c, 0, 67, 96
1, 345374, Control_c, 0, 64, 91
1, 345374, Control_c, 0, 67, 94
1, 345388, Control_c, 0, 64, 94
1, 345388, Control_c, 0, 67, 92
1, 345401, Note_off_c, 0, 59, 56
1, 345403, Control_c, 0, 64, 98
1, 345403, Control_c, 0, 67, 90
1, 345418, Control_c, 0, 64, 104
1, 345418, Control_c, 0, 67, 87
1, 345433, Note_on_c, 0, 66, 50
1, 345433, Control_c, 0, 64, 110
1, 345433, Control_c, 0, 67, 82
1, 345440, Note_on_c, 0, 63, 22
1, 345448, Control_c, 0, 64, 121
1, 345448, Control_c, 0, 67, 77
1, 345462, Control_c, 0, 64, 127
1, 345462, Control_c, 0, 67, 74
1, 345475, Note_off_c, 0, 63, 47
1, 345477, Control_c, 0, 67, 72
1, 345490, Note_off_c, 0, 66, 61
1, 345492, Control_c, 0, 67, 70
1, 345506, Control_c, 0, 67, 68
1, 345521, Control_c, 0, 67, 65
1, 345536, Control_c, 0, 67, 62
1, 345551, Control_c, 0, 67, 59
1, 345566, Control_c, 0, 67, 56
1, 345580, Control_c, 0, 67, 53
1, 345595, Control_c, 0, 67, 52
1, 345610, Control_c, 0, 67, 51
1, 345625, Control_c, 0, 67, 49
1, 345640, Control_c, 0, 67, 47
1, 345655, Control_c, 0, 67, 45
1, 345670, Control_c, 0, 67, 42
1, 345685, Control_c, 0, 67, 40
1, 345700, Control_c, 0, 67, 37
1, 345723, Control_c, 0, 67, 35
1, 345737, Control_c, 0, 64, 122
1, 345737, Control_c, 0, 67, 32
1, 345752, Control_c, 0, 64, 106
1, 345752, Control_c, 0, 67, 30
1, 345767, Control_c, 0, 64, 93
1, 345767, Control_c, 0, 67, 29
1, 345782, Control_c, 0, 64, 80
1, 345782, Control_c, 0, 67, 27
1, 345789, Note_on_c, 0, 51, 47
1, 345797, Control_c, 0, 64, 66
1, 345797, Control_c, 0, 67, 26
1, 345811, Control_c, 0, 64, 13
1, 345811, Control_c, 0, 67, 25
1, 345815, Note_on_c, 0, 93, 76
1, 345826, Control_c, 0, 64, 39
1, 345826, Control_c, 0, 67, 23
1, 345831, Note_on_c, 0, 81, 59
1, 345841, Control_c, 0, 64, 60
1, 345841, Control_c, 0, 67, 22
1, 345856, Control_c, 0, 64, 67
1, 345856, Control_c, 0, 67, 20
1, 345871, Control_c, 0, 64, 72
1, 345871, Control_c, 0, 67, 18
1, 345885, Control_c, 0, 64, 78
1, 345885, Control_c, 0, 67, 15
1, 345900, Control_c, 0, 64, 82
1, 345900, Control_c, 0, 67, 12
1, 345915, Control_c, 0, 64, 83
1, 345915, Control_c, 0, 67, 0
1, 345927, Note_off_c, 0, 81, 54
1, 345929, Control_c, 0, 64, 84
1, 345944, Control_c, 0, 64, 84
1, 345959, Control_c, 0, 64, 85
1, 345974, Note_off_c, 0, 51, 32
1, 345974, Note_on_c, 0, 61, 32
1, 345974, Control_c, 0, 64, 85
1, 345983, Note_off_c, 0, 93, 61
1, 345989, Control_c, 0, 64, 86
1, 346004, Control_c, 0, 64, 87
1, 346019, Control_c, 0, 64, 88
1, 346019, Note_on_c, 0, 95, 64
1, 346034, Control_c, 0, 64, 88
1, 346047, Note_off_c, 0, 61, 46
1, 346048, Control_c, 0, 64, 89
1, 346063, Control_c, 0, 64, 89
1, 346074, Note_on_c, 0, 59, 54
1, 346076, Note_off_c, 0, 95, 60
1, 346085, Note_on_c, 0, 93, 72
1, 346093, Control_c, 0, 64, 90
1, 346099, Note_off_c, 0, 59, 62
1, 346108, Control_c, 0, 64, 90
1, 346126, Note_on_c, 0, 92, 84
1, 346134, Note_on_c, 0, 80, 73
1, 346137, Control_c, 0, 64, 91
1, 346144, Note_off_c, 0, 93, 64
1, 346158, Note_on_c, 0, 69, 61
1, 346167, Control_c, 0, 64, 91
1, 346186, Note_off_c, 0, 80, 63
1, 346192, Note_off_c, 0, 92, 63
1, 346209, Note_off_c, 0, 69, 61
1, 346226, Control_c, 0, 64, 92
1, 346248, Note_on_c, 0, 66, 52
1, 346288, Note_on_c, 0, 90, 84
1, 346290, Note_off_c, 0, 66, 62
1, 346298, Note_on_c, 0, 78, 74
1, 346300, Control_c, 0, 64, 92
1, 346315, Control_c, 0, 64, 93
1, 346320, Note_on_c, 0, 61, 50
1, 346329, Control_c, 0, 64, 95
1, 346344, Control_c, 0, 64, 97
1, 346350, Note_off_c, 0, 78, 62
1, 346353, Note_off_c, 0, 61, 62
1, 346358, Note_on_c, 0, 59, 47
1, 346359, Control_c, 0, 64, 99
1, 346396, Note_off_c, 0, 59, 62
1, 346403, Control_c, 0, 64, 95
1, 346406, Note_off_c, 0, 90, 63
1, 346418, Control_c, 0, 64, 87
1, 346433, Control_c, 0, 64, 74
1, 346448, Control_c, 0, 64, 52
1, 346468, Note_on_c, 0, 95, 87
1, 346470, Control_c, 0, 64, 0
1, 346485, Note_on_c, 0, 83, 63
1, 346496, Note_on_c, 0, 52, 46
1, 346502, Control_c, 0, 64, 54
1, 346511, Note_off_c, 0, 95, 66
1, 346512, Note_off_c, 0, 83, 64
1, 346516, Control_c, 0, 64, 66
1, 346528, Note_off_c, 0, 52, 51
1, 346531, Control_c, 0, 64, 72
1, 346546, Control_c, 0, 64, 78
1, 346560, Control_c, 0, 64, 83
1, 346562, Note_on_c, 0, 61, 55
1, 346575, Control_c, 0, 64, 85
1, 346590, Control_c, 0, 64, 86
1, 346605, Control_c, 0, 64, 87
1, 346620, Control_c, 0, 64, 89
1, 346630, Note_off_c, 0, 61, 52
1, 346634, Control_c, 0, 64, 90
1, 346639, Note_on_c, 0, 87, 72
1, 346643, Note_on_c, 0, 75, 73
1, 346649, Control_c, 0, 64, 92
1, 346663, Note_on_c, 0, 59, 60
1, 346664, Control_c, 0, 64, 94
1, 346679, Control_c, 0, 64, 96
1, 346694, Control_c, 0, 64, 98
1, 346708, Control_c, 0, 64, 100
1, 346713, Note_off_c, 0, 59, 58
1, 346723, Control_c, 0, 64, 100
1, 346750, Note_off_c, 0, 87, 63
1, 346751, Note_on_c, 0, 90, 75
1, 346767, Note_off_c, 0, 75, 35
1, 346767, Control_c, 0, 64, 97
1, 346773, Note_off_c, 0, 90, 67
1, 346782, Control_c, 0, 64, 89
1, 346797, Control_c, 0, 64, 75
1, 346806, Note_on_c, 0, 88, 78
1, 346809, Note_on_c, 0, 76, 67
1, 346812, Control_c, 0, 64, 58
1, 346816, Note_on_c, 0, 89, 26
1, 346820, Note_on_c, 0, 68, 63
1, 346827, Control_c, 0, 64, 0
1, 346852, Note_off_c, 0, 89, 32
1, 346854, Note_off_c, 0, 68, 64
1, 346856, Control_c, 0, 64, 60
1, 346871, Control_c, 0, 64, 68
1, 346880, Note_off_c, 0, 76, 61
1, 346886, Control_c, 0, 64, 74
1, 346901, Control_c, 0, 64, 81
1, 346904, Note_on_c, 0, 64, 54
1, 346916, Control_c, 0, 64, 84
1, 346931, Control_c, 0, 64, 86
1, 346946, Control_c, 0, 64, 88
1, 346947, Note_on_c, 0, 61, 58
1, 346960, Control_c, 0, 64, 89
1, 346970, Note_off_c, 0, 64, 53
1, 346975, Control_c, 0, 64, 91
1, 346990, Control_c, 0, 64, 92
1, 346991, Note_off_c, 0, 88, 64
1, 346993, Note_off_c, 0, 61, 57
1, 347005, Control_c, 0, 64, 94
1, 347017, Note_on_c, 0, 59, 58
1, 347020, Control_c, 0, 64, 96
1, 347034, Control_c, 0, 64, 100
1, 347049, Control_c, 0, 64, 106
1, 347052, Note_off_c, 0, 59, 61
1, 347064, Control_c, 0, 64, 115
1, 347078, Control_c, 0, 64, 127
1, 347152, Control_c, 0, 64, 119
1, 347167, Control_c, 0, 64, 102
1, 347178, Note_on_c, 0, 93, 82
1, 347182, Control_c, 0, 64, 87
1, 347184, Note_on_c, 0, 81, 71
1, 347205, Control_c, 0, 64, 69
1, 347220, Control_c, 0, 64, 0
1, 347225, Note_on_c, 0, 51, 40
1, 347264, Control_c, 0, 64, 43
1, 347280, Control_c, 0, 64, 64
1, 347295, Control_c, 0, 64, 69
1, 347306, Note_off_c, 0, 81, 58
1, 347309, Control_c, 0, 64, 73
1, 347318, Note_off_c, 0, 51, 52
1, 347324, Control_c, 0, 64, 76
1, 347331, Note_on_c, 0, 61, 54
1, 347339, Control_c, 0, 64, 78
1, 347354, Control_c, 0, 64, 79
1, 347363, Note_off_c, 0, 93, 60
1, 347369, Control_c, 0, 64, 81
1, 347383, Control_c, 0, 64, 83
1, 347393, Note_on_c, 0, 95, 56
1, 347398, Control_c, 0, 64, 85
1, 347413, Note_off_c, 0, 61, 60
1, 347413, Control_c, 0, 64, 87
1, 347428, Control_c, 0, 64, 89
1, 347438, Note_on_c, 0, 59, 59
1, 347443, Control_c, 0, 64, 91
1, 347444, Note_on_c, 0, 93, 63
1, 347454, Note_off_c, 0, 95, 56
1, 347457, Control_c, 0, 64, 92
1, 347461, Note_off_c, 0, 59, 62
1, 347472, Control_c, 0, 64, 93
1, 347487, Control_c, 0, 64, 93
1, 347494, Note_on_c, 0, 92, 87
1, 347502, Control_c, 0, 64, 94
1, 347509, Note_on_c, 0, 80, 80
1, 347512, Note_off_c, 0, 93, 62
1, 347516, Control_c, 0, 64, 94
1, 347521, Note_on_c, 0, 69, 65
1, 347555, Note_off_c, 0, 80, 62
1, 347557, Note_off_c, 0, 92, 64
1, 347561, Control_c, 0, 64, 95
1, 347575, Note_off_c, 0, 69, 61
1, 347590, Control_c, 0, 64, 95
1, 347594, Note_on_c, 0, 66, 68
1, 347651, Note_on_c, 0, 90, 95
1, 347652, Note_on_c, 0, 78, 88
1, 347658, Note_off_c, 0, 66, 64
1, 347667, Note_on_c, 0, 61, 58
1, 347676, Note_on_c, 0, 87, 52
1, 347679, Control_c, 0, 64, 96
1, 347694, Control_c, 0, 64, 97
1, 347706, Note_off_c, 0, 87, 50
1, 347709, Control_c, 0, 64, 99
1, 347720, Note_off_c, 0, 78, 61
1, 347724, Control_c, 0, 64, 100
1, 347725, Note_on_c, 0, 59, 60
1, 347727, Note_off_c, 0, 61, 59
1, 347768, Control_c, 0, 64, 96
1, 347771, Note_off_c, 0, 90, 63
1, 347783, Control_c, 0, 64, 86
1, 347787, Note_off_c, 0, 59, 60
1, 347798, Control_c, 0, 64, 70
1, 347813, Control_c, 0, 64, 0
1, 347828, Note_on_c, 0, 95, 90
1, 347840, Note_on_c, 0, 83, 68
1, 347855, Note_on_c, 0, 52, 46
1, 347857, Control_c, 0, 64, 42
1, 347867, Note_off_c, 0, 83, 61
1, 347872, Control_c, 0, 64, 65
1, 347879, Note_off_c, 0, 95, 64
1, 347887, Control_c, 0, 64, 71
1, 347901, Control_c, 0, 64, 79
1, 347907, Note_off_c, 0, 52, 44
1, 347916, Control_c, 0, 64, 84
1, 347931, Control_c, 0, 64, 87
1, 347941, Note_on_c, 0, 61, 46
1, 347953, Control_c, 0, 64, 88
1, 347968, Control_c, 0, 64, 89
1, 347983, Control_c, 0, 64, 90
1, 347998, Control_c, 0, 64, 91
1, 348006, Note_on_c, 0, 87, 79
1, 348007, Note_off_c, 0, 61, 56
1, 348013, Control_c, 0, 64, 93
1, 348013, Note_on_c, 0, 75, 72
1, 348028, Control_c, 0, 64, 94
1, 348031, Note_on_c, 0, 59, 60
1, 348043, Control_c, 0, 64, 96
1, 348057, Control_c, 0, 64, 99
1, 348072, Control_c, 0, 64, 103
1, 348087, Note_off_c, 0, 59, 59
1, 348087, Control_c, 0, 64, 108
1, 348102, Control_c, 0, 64, 111
1, 348112, Note_off_c, 0, 75, 62
1, 348129, Note_on_c, 0, 90, 73
1, 348129, Note_off_c, 0, 87, 62
1, 348132, Control_c, 0, 64, 110
1, 348147, Control_c, 0, 64, 105
1, 348154, Note_off_c, 0, 90, 67
1, 348162, Control_c, 0, 64, 92
1, 348177, Control_c, 0, 64, 75
1, 348186, Note_on_c, 0, 88, 76
1, 348191, Note_on_c, 0, 89, 20
1, 348192, Control_c, 0, 64, 0
1, 348195, Note_on_c, 0, 76, 65
1, 348201, Note_on_c, 0, 68, 65
1, 348216, Note_off_c, 0, 89, 35
1, 348236, Control_c, 0, 64, 31
1, 348248, Note_off_c, 0, 68, 62
1, 348251, Control_c, 0, 64, 66
1, 348266, Control_c, 0, 64, 75
1, 348266, Note_off_c, 0, 88, 61
1, 348280, Control_c, 0, 64, 84
1, 348281, Note_on_c, 0, 64, 56
1, 348295, Control_c, 0, 64, 92
1, 348310, Control_c, 0, 64, 94
1, 348325, Control_c, 0, 64, 97
1, 348329, Note_off_c, 0, 76, 63
1, 348337, Note_on_c, 0, 61, 55
1, 348339, Control_c, 0, 64, 99
1, 348347, Note_off_c, 0, 64, 60
1, 348354, Control_c, 0, 64, 102
1, 348369, Control_c, 0, 64, 107
1, 348375, Note_on_c, 0, 59, 68
1, 348377, Note_off_c, 0, 61, 62
1, 348384, Control_c, 0, 64, 115
1, 348399, Control_c, 0, 64, 127
1, 348401, Note_off_c, 0, 59, 65
1, 348487, Control_c, 0, 64, 123
1, 348502, Control_c, 0, 64, 103
1, 348517, Control_c, 0, 64, 85
1, 348532, Control_c, 0, 64, 64
1, 348546, Note_on_c, 0, 49, 73
1, 348546, Control_c, 0, 64, 0
1, 348552, Note_on_c, 0, 37, 60
1, 348621, Control_c, 0, 64, 61
1, 348636, Note_on_c, 0, 54, 65
1, 348636, Control_c, 0, 64, 67
1, 348651, Control_c, 0, 64, 72
1, 348651, Control_c, 0, 67, 9
1, 348666, Control_c, 0, 64, 77
1, 348666, Control_c, 0, 67, 12
1, 348680, Control_c, 0, 64, 81
1, 348680, Control_c, 0, 67, 15
1, 348695, Control_c, 0, 64, 83
1, 348695, Control_c, 0, 67, 18
1, 348715, Note_off_c, 0, 49, 56
1, 348716, Note_off_c, 0, 54, 56
1, 348717, Control_c, 0, 64, 85
1, 348717, Control_c, 0, 67, 22
1, 348728, Note_on_c, 0, 58, 65
1, 348728, Note_on_c, 0, 42, 50
1, 348731, Control_c, 0, 64, 86
1, 348731, Control_c, 0, 67, 28
1, 348743, Note_off_c, 0, 37, 41
1, 348746, Control_c, 0, 64, 87
1, 348746, Control_c, 0, 67, 36
1, 348761, Control_c, 0, 67, 44
1, 348776, Control_c, 0, 67, 52
1, 348787, Note_off_c, 0, 58, 60
1, 348791, Control_c, 0, 67, 56
1, 348798, Note_on_c, 0, 66, 56
1, 348806, Control_c, 0, 64, 86
1, 348806, Control_c, 0, 67, 58
1, 348815, Note_off_c, 0, 42, 53
1, 348821, Control_c, 0, 64, 84
1, 348821, Control_c, 0, 67, 59
1, 348836, Control_c, 0, 64, 78
1, 348836, Control_c, 0, 67, 59
1, 348850, Control_c, 0, 64, 66
1, 348865, Control_c, 0, 64, 0
1, 348869, Note_off_c, 0, 66, 59
1, 348882, Note_on_c, 0, 47, 58
1, 348896, Note_on_c, 0, 35, 44
1, 348896, Control_c, 0, 67, 59
1, 348910, Control_c, 0, 67, 58
1, 348925, Control_c, 0, 67, 58
1, 348961, Note_on_c, 0, 54, 48
1, 348970, Control_c, 0, 67, 57
1, 348985, Control_c, 0, 67, 57
1, 349000, Control_c, 0, 64, 54
1, 349000, Control_c, 0, 67, 56
1, 349009, Note_off_c, 0, 47, 48
1, 349010, Note_off_c, 0, 54, 63
1, 349014, Control_c, 0, 64, 63
1, 349018, Note_off_c, 0, 35, 38
1, 349019, Note_on_c, 0, 42, 44
1, 349029, Control_c, 0, 64, 66
1, 349029, Control_c, 0, 67, 56
1, 349044, Control_c, 0, 64, 70
1, 349059, Control_c, 0, 64, 75
1, 349059, Control_c, 0, 67, 55
1, 349065, Note_off_c, 0, 42, 62
1, 349070, Note_on_c, 0, 59, 54
1, 349074, Control_c, 0, 64, 79
1, 349074, Control_c, 0, 67, 55
1, 349089, Control_c, 0, 64, 81
1, 349089, Control_c, 0, 67, 54
1, 349103, Control_c, 0, 64, 82
1, 349118, Control_c, 0, 64, 83
1, 349118, Control_c, 0, 67, 54
1, 349129, Note_off_c, 0, 59, 47
1, 349133, Control_c, 0, 64, 84
1, 349133, Control_c, 0, 67, 53
1, 349148, Control_c, 0, 64, 84
1, 349148, Control_c, 0, 67, 53
1, 349162, Control_c, 0, 67, 52
1, 349175, Note_on_c, 0, 63, 45
1, 349177, Note_on_c, 0, 66, 56
1, 349177, Control_c, 0, 64, 85
1, 349177, Control_c, 0, 67, 52
1, 349207, Control_c, 0, 64, 85
1, 349226, Note_off_c, 0, 63, 49
1, 349236, Control_c, 0, 64, 86
1, 349236, Control_c, 0, 67, 51
1, 349251, Control_c, 0, 67, 51
1, 349258, Note_off_c, 0, 66, 65
1, 349325, Control_c, 0, 64, 86
1, 349340, Control_c, 0, 64, 87
1, 349340, Control_c, 0, 67, 51
1, 349369, Control_c, 0, 67, 52
1, 349399, Control_c, 0, 67, 51
1, 349414, Control_c, 0, 64, 84
1, 349429, Control_c, 0, 64, 77
1, 349444, Control_c, 0, 64, 65
1, 349466, Control_c, 0, 64, 0
1, 349482, Note_on_c, 0, 50, 50
1, 349510, Control_c, 0, 64, 45
1, 349510, Control_c, 0, 67, 51
1, 349525, Control_c, 0, 64, 64
1, 349540, Control_c, 0, 64, 70
1, 349554, Control_c, 0, 64, 76
1, 349554, Control_c, 0, 67, 51
1, 349561, Note_off_c, 0, 50, 61
1, 349569, Control_c, 0, 64, 81
1, 349576, Note_on_c, 0, 90, 84
1, 349584, Note_on_c, 0, 78, 71
1, 349584, Control_c, 0, 64, 85
1, 349584, Control_c, 0, 67, 52
1, 349599, Control_c, 0, 64, 88
1, 349614, Control_c, 0, 64, 91
1, 349629, Control_c, 0, 64, 94
1, 349643, Control_c, 0, 64, 96
1, 349658, Control_c, 0, 64, 97
1, 349674, Control_c, 0, 64, 99
1, 349689, Control_c, 0, 64, 100
1, 349701, Note_on_c, 0, 61, 49
1, 349704, Control_c, 0, 64, 101
1, 349719, Control_c, 0, 64, 103
1, 349733, Control_c, 0, 64, 105
1, 349748, Control_c, 0, 64, 107
1, 349757, Note_off_c, 0, 90, 63
1, 349763, Control_c, 0, 64, 110
1, 349768, Note_on_c, 0, 92, 68
1, 349778, Control_c, 0, 64, 113
1, 349790, Note_off_c, 0, 61, 59
1, 349793, Control_c, 0, 64, 116
1, 349813, Note_on_c, 0, 59, 55
1, 349825, Note_off_c, 0, 92, 66
1, 349828, Note_on_c, 0, 90, 71
1, 349834, Note_off_c, 0, 78, 57
1, 349852, Control_c, 0, 64, 112
1, 349854, Note_off_c, 0, 90, 67
1, 349867, Control_c, 0, 64, 104
1, 349867, Control_c, 0, 67, 51
1, 349882, Control_c, 0, 64, 93
1, 349892, Note_on_c, 0, 89, 80
1, 349897, Control_c, 0, 64, 79
1, 349897, Control_c, 0, 67, 51
1, 349899, Note_on_c, 0, 77, 70
1, 349900, Note_off_c, 0, 59, 50
1, 349911, Control_c, 0, 64, 56
1, 349915, Note_on_c, 0, 66, 59
1, 349916, Note_off_c, 0, 77, 64
1, 349926, Control_c, 0, 64, 0
1, 349928, Note_off_c, 0, 89, 66
1, 349956, Control_c, 0, 67, 50
1, 349957, Note_off_c, 0, 66, 64
1, 349970, Control_c, 0, 67, 50
1, 349992, Note_on_c, 0, 61, 49
1, 350000, Control_c, 0, 67, 49
1, 350015, Control_c, 0, 67, 48
1, 350030, Control_c, 0, 67, 47
1, 350044, Control_c, 0, 67, 47
1, 350059, Control_c, 0, 67, 46
1, 350064, Note_on_c, 0, 90, 82
1, 350072, Note_on_c, 0, 78, 68
1, 350074, Control_c, 0, 67, 45
1, 350089, Control_c, 0, 67, 43
1, 350090, Note_off_c, 0, 78, 65
1, 350093, Note_off_c, 0, 61, 55
1, 350094, Note_off_c, 0, 90, 61
1, 350103, Control_c, 0, 67, 39
1, 350108, Note_on_c, 0, 59, 46
1, 350118, Control_c, 0, 67, 35
1, 350134, Control_c, 0, 67, 31
1, 350149, Control_c, 0, 67, 27
1, 350160, Note_off_c, 0, 59, 50
1, 350164, Control_c, 0, 67, 23
1, 350178, Control_c, 0, 67, 19
1, 350193, Control_c, 0, 67, 15
1, 350216, Control_c, 0, 67, 12
1, 350231, Control_c, 0, 67, 11
1, 350246, Control_c, 0, 67, 10
1, 350260, Control_c, 0, 67, 9
1, 350270, Note_on_c, 0, 93, 79
1, 350275, Control_c, 0, 67, 0
1, 350290, Control_c, 0, 64, 53
1, 350304, Control_c, 0, 64, 64
1, 350319, Note_on_c, 0, 80, 71
1, 350319, Note_on_c, 0, 92, 85
1, 350319, Control_c, 0, 64, 67
1, 350330, Note_off_c, 0, 93, 61
1, 350334, Control_c, 0, 64, 72
1, 350341, Note_on_c, 0, 52, 44
1, 350349, Control_c, 0, 64, 79
1, 350364, Control_c, 0, 64, 84
1, 350371, Note_off_c, 0, 80, 51
1, 350378, Control_c, 0, 64, 87
1, 350380, Note_off_c, 0, 92, 61
1, 350393, Control_c, 0, 64, 89
1, 350408, Control_c, 0, 64, 90
1, 350423, Control_c, 0, 64, 91
1, 350438, Control_c, 0, 64, 91
1, 350442, Note_off_c, 0, 52, 47
1, 350452, Control_c, 0, 64, 92
1, 350467, Control_c, 0, 64, 93
1, 350475, Note_on_c, 0, 59, 34
1, 350483, Control_c, 0, 64, 93
1, 350498, Control_c, 0, 64, 94
1, 350513, Control_c, 0, 64, 95
1, 350527, Control_c, 0, 64, 95
1, 350575, Note_on_c, 0, 68, 57
1, 350587, Control_c, 0, 64, 94
1, 350597, Note_off_c, 0, 68, 61
1, 350601, Control_c, 0, 64, 90
1, 350616, Control_c, 0, 64, 82
1, 350625, Note_on_c, 0, 92, 64
1, 350631, Control_c, 0, 64, 71
1, 350646, Control_c, 0, 64, 49
1, 350661, Control_c, 0, 64, 0
1, 350674, Note_off_c, 0, 92, 65
1, 350675, Control_c, 0, 64, 28
1, 350678, Note_on_c, 0, 90, 77
1, 350690, Control_c, 0, 64, 61
1, 350693, Note_on_c, 0, 78, 64
1, 350702, Note_off_c, 0, 59, 38
1, 350705, Control_c, 0, 64, 68
1, 350719, Note_on_c, 0, 50, 49
1, 350720, Control_c, 0, 64, 73
1, 350734, Control_c, 0, 64, 78
1, 350749, Control_c, 0, 64, 80
1, 350764, Control_c, 0, 64, 82
1, 350776, Note_off_c, 0, 90, 62
1, 350779, Control_c, 0, 64, 82
1, 350784, Note_off_c, 0, 50, 54
1, 350794, Control_c, 0, 64, 83
1, 350809, Control_c, 0, 64, 84
1, 350811, Note_off_c, 0, 78, 56
1, 350824, Control_c, 0, 64, 85
1, 350827, Note_on_c, 0, 59, 53
1, 350839, Control_c, 0, 64, 87
1, 350854, Control_c, 0, 64, 88
1, 350868, Control_c, 0, 64, 89
1, 350882, Control_c, 0, 64, 91
1, 350897, Control_c, 0, 64, 93
1, 350901, Note_on_c, 0, 66, 73
1, 350910, Note_off_c, 0, 59, 55
1, 350912, Control_c, 0, 64, 95
1, 350925, Note_off_c, 0, 66, 68
1, 350926, Control_c, 0, 64, 96
1, 350949, Control_c, 0, 64, 96
1, 350994, Control_c, 0, 64, 95
1, 351008, Control_c, 0, 64, 90
1, 351023, Control_c, 0, 64, 79
1, 351038, Control_c, 0, 64, 65
1, 351052, Control_c, 0, 64, 0
1, 351097, Control_c, 0, 64, 49
1, 351105, Note_on_c, 0, 49, 67
1, 351107, Note_on_c, 0, 37, 59
1, 351112, Control_c, 0, 64, 64
1, 351126, Control_c, 0, 64, 68
1, 351141, Control_c, 0, 64, 72
1, 351156, Control_c, 0, 64, 80
1, 351171, Control_c, 0, 64, 87
1, 351186, Control_c, 0, 64, 91
1, 351200, Control_c, 0, 64, 94
1, 351206, Note_on_c, 0, 54, 60
1, 351215, Control_c, 0, 64, 96
1, 351230, Control_c, 0, 64, 97
1, 351268, Note_off_c, 0, 54, 61
1, 351278, Note_on_c, 0, 42, 45
1, 351280, Note_off_c, 0, 49, 38
1, 351294, Note_on_c, 0, 58, 62
1, 351299, Note_off_c, 0, 37, 41
1, 351354, Note_off_c, 0, 58, 63
1, 351357, Note_on_c, 0, 66, 57
1, 351379, Control_c, 0, 64, 95
1, 351394, Control_c, 0, 64, 92
1, 351409, Control_c, 0, 64, 83
1, 351423, Control_c, 0, 64, 68
1, 351426, Note_off_c, 0, 66, 62
1, 351438, Control_c, 0, 64, 0
1, 351444, Note_on_c, 0, 47, 54
1, 351460, Note_on_c, 0, 35, 41
1, 351465, Note_off_c, 0, 42, 36
1, 351527, Control_c, 0, 64, 46
1, 351533, Note_on_c, 0, 54, 57
1, 351542, Control_c, 0, 64, 59
1, 351553, Note_off_c, 0, 47, 55
1, 351557, Control_c, 0, 64, 63
1, 351559, Note_off_c, 0, 35, 50
1, 351572, Control_c, 0, 64, 65
1, 351575, Note_off_c, 0, 54, 64
1, 351579, Note_on_c, 0, 42, 42
1, 351587, Control_c, 0, 64, 68
1, 351602, Control_c, 0, 64, 71
1, 351611, Note_off_c, 0, 42, 57
1, 351616, Control_c, 0, 64, 74
1, 351631, Control_c, 0, 64, 77
1, 351637, Note_on_c, 0, 59, 51
1, 351646, Control_c, 0, 64, 79
1, 351661, Control_c, 0, 64, 81
1, 351675, Control_c, 0, 64, 82
1, 351686, Note_off_c, 0, 59, 54
1, 351727, Control_c, 0, 64, 83
1, 351736, Note_on_c, 0, 63, 43
1, 351750, Note_on_c, 0, 66, 50
1, 351763, Note_off_c, 0, 63, 56
1, 351779, Note_off_c, 0, 66, 68
1, 351875, Control_c, 0, 64, 84
1, 351890, Control_c, 0, 64, 85
1, 351905, Control_c, 0, 64, 86
1, 351949, Control_c, 0, 64, 85
1, 351964, Control_c, 0, 64, 80
1, 351979, Control_c, 0, 64, 70
1, 351994, Control_c, 0, 64, 52
1, 352005, Note_on_c, 0, 93, 68
1, 352009, Control_c, 0, 64, 0
1, 352023, Control_c, 0, 64, 44
1, 352034, Note_on_c, 0, 50, 51
1, 352038, Control_c, 0, 64, 61
1, 352044, Note_on_c, 0, 92, 80
1, 352050, Note_off_c, 0, 93, 61
1, 352053, Control_c, 0, 64, 66
1, 352058, Note_on_c, 0, 80, 47
1, 352068, Control_c, 0, 64, 71
1, 352069, Note_off_c, 0, 50, 64
1, 352082, Note_off_c, 0, 80, 59
1, 352084, Control_c, 0, 64, 75
1, 352092, Note_off_c, 0, 92, 63
1, 352098, Control_c, 0, 64, 78
1, 352113, Control_c, 0, 64, 79
1, 352128, Control_c, 0, 64, 81
1, 352143, Control_c, 0, 64, 82
1, 352158, Control_c, 0, 64, 82
1, 352172, Control_c, 0, 64, 83
1, 352187, Control_c, 0, 64, 83
1, 352200, Note_on_c, 0, 90, 78
1, 352201, Note_on_c, 0, 61, 53
1, 352202, Control_c, 0, 64, 84
1, 352205, Note_on_c, 0, 78, 76
1, 352205, Note_on_c, 0, 92, 76
1, 352217, Control_c, 0, 64, 85
1, 352233, Note_off_c, 0, 78, 59
1, 352238, Note_off_c, 0, 92, 54
1, 352246, Control_c, 0, 64, 85
1, 352257, Note_off_c, 0, 90, 62
1, 352259, Note_off_c, 0, 61, 50
1, 352276, Control_c, 0, 64, 86
1, 352296, Note_on_c, 0, 59, 48
1, 352320, Control_c, 0, 64, 86
1, 352354, Note_on_c, 0, 88, 78
1, 352359, Note_on_c, 0, 90, 73
1, 352361, Note_on_c, 0, 76, 67
1, 352375, Note_on_c, 0, 66, 61
1, 352379, Note_off_c, 0, 76, 59
1, 352380, Note_off_c, 0, 90, 69
1, 352407, Note_off_c, 0, 88, 62
1, 352412, Note_on_c, 0, 61, 53
1, 352412, Note_off_c, 0, 66, 62
1, 352454, Note_off_c, 0, 59, 29
1, 352517, Note_off_c, 0, 61, 55
1, 352520, Note_on_c, 0, 88, 81
1, 352523, Note_on_c, 0, 59, 38
1, 352527, Note_on_c, 0, 74, 73
1, 352543, Note_on_c, 0, 86, 57
1, 352559, Note_off_c, 0, 74, 53
1, 352571, Note_off_c, 0, 88, 58
1, 352573, Note_off_c, 0, 86, 50
1, 352595, Control_c, 0, 64, 84
1, 352609, Control_c, 0, 64, 79
1, 352624, Control_c, 0, 64, 68
1, 352639, Control_c, 0, 64, 0
1, 352699, Note_on_c, 0, 73, 74
1, 352701, Note_off_c, 0, 59, 49
1, 352705, Note_on_c, 0, 53, 56
1, 352743, Control_c, 0, 64, 35
1, 352758, Control_c, 0, 64, 55
1, 352772, Control_c, 0, 64, 61
1, 352787, Control_c, 0, 64, 64
1, 352802, Control_c, 0, 64, 66
1, 352817, Control_c, 0, 64, 68
1, 352824, Note_off_c, 0, 53, 56
1, 352828, Note_off_c, 0, 73, 58
1, 352832, Control_c, 0, 64, 71
1, 352842, Note_on_c, 0, 59, 43
1, 352846, Control_c, 0, 64, 74
1, 352861, Control_c, 0, 64, 78
1, 352877, Note_on_c, 0, 85, 69
1, 352877, Control_c, 0, 64, 80
1, 352892, Control_c, 0, 64, 82
1, 352907, Control_c, 0, 64, 83
1, 352921, Control_c, 0, 64, 84
1, 352936, Control_c, 0, 64, 85
1, 352947, Note_off_c, 0, 59, 59
1, 352951, Control_c, 0, 64, 85
1, 352964, Note_on_c, 0, 68, 52
1, 352966, Control_c, 0, 64, 87
1, 352967, Note_off_c, 0, 85, 63
1, 352981, Control_c, 0, 64, 89
1, 352995, Control_c, 0, 64, 91
1, 353010, Control_c, 0, 64, 91
1, 353049, Note_off_c, 0, 68, 46
1, 353055, Control_c, 0, 64, 90
1, 353062, Note_on_c, 0, 85, 66
1, 353069, Control_c, 0, 64, 86
1, 353079, Note_on_c, 0, 54, 55
1, 353084, Control_c, 0, 64, 77
1, 353099, Control_c, 0, 64, 64
1, 353114, Control_c, 0, 64, 0
1, 353158, Note_off_c, 0, 54, 59
1, 353158, Control_c, 0, 64, 26
1, 353173, Control_c, 0, 64, 58
1, 353188, Control_c, 0, 64, 63
1, 353210, Control_c, 0, 64, 65
1, 353219, Note_on_c, 0, 64, 40
1, 353225, Control_c, 0, 64, 67
1, 353240, Control_c, 0, 64, 69
1, 353255, Control_c, 0, 64, 72
1, 353261, Note_off_c, 0, 85, 50
1, 353265, Note_on_c, 0, 97, 74
1, 353270, Control_c, 0, 64, 78
1, 353284, Control_c, 0, 64, 82
1, 353299, Control_c, 0, 64, 86
1, 353314, Control_c, 0, 64, 88
1, 353319, Note_off_c, 0, 97, 62
1, 353320, Note_on_c, 0, 70, 63
1, 353321, Note_off_c, 0, 64, 57
1, 353328, Control_c, 0, 64, 89
1, 353338, Note_off_c, 0, 70, 65
1, 353343, Control_c, 0, 64, 90
1, 353358, Control_c, 0, 64, 93
1, 353373, Control_c, 0, 64, 95
1, 353388, Control_c, 0, 64, 98
1, 353402, Control_c, 0, 64, 99
1, 353432, Control_c, 0, 64, 98
1, 353447, Control_c, 0, 64, 95
1, 353462, Control_c, 0, 64, 86
1, 353477, Control_c, 0, 64, 73
1, 353492, Note_on_c, 0, 42, 68
1, 353492, Control_c, 0, 64, 58
1, 353507, Control_c, 0, 64, 41
1, 353521, Control_c, 0, 64, 60
1, 353536, Control_c, 0, 64, 66
1, 353551, Control_c, 0, 64, 74
1, 353566, Control_c, 0, 64, 80
1, 353581, Control_c, 0, 64, 82
1, 353597, Note_off_c, 0, 42, 61
1, 353625, Note_on_c, 0, 54, 59
1, 353634, Note_on_c, 0, 49, 52
1, 353639, Control_c, 0, 64, 82
1, 353668, Note_off_c, 0, 54, 62
1, 353685, Note_off_c, 0, 49, 40
1, 353710, Note_on_c, 0, 58, 63
1, 353715, Control_c, 0, 64, 82
1, 353774, Control_c, 0, 64, 81
1, 353789, Note_on_c, 0, 66, 59
1, 353789, Note_off_c, 0, 58, 57
1, 353789, Control_c, 0, 64, 78
1, 353804, Control_c, 0, 64, 73
1, 353818, Control_c, 0, 64, 65
1, 353833, Control_c, 0, 64, 32
1, 353848, Control_c, 0, 64, 0
1, 353878, Note_on_c, 0, 35, 51
1, 353885, Note_off_c, 0, 66, 59
1, 353994, Note_on_c, 0, 54, 53
1, 354010, Note_on_c, 0, 47, 43
1, 354058, Note_off_c, 0, 35, 44
1, 354064, Control_c, 0, 64, 45
1, 354067, Note_off_c, 0, 54, 59
1, 354068, Note_off_c, 0, 47, 42
1, 354078, Control_c, 0, 64, 63
1, 354093, Control_c, 0, 64, 67
1, 354108, Control_c, 0, 64, 72
1, 354110, Note_on_c, 0, 59, 52
1, 354123, Control_c, 0, 64, 79
1, 354138, Control_c, 0, 64, 83
1, 354152, Control_c, 0, 64, 84
1, 354167, Control_c, 0, 64, 84
1, 354178, Note_off_c, 0, 59, 52
1, 354182, Control_c, 0, 64, 85
1, 354222, Note_on_c, 0, 66, 53
1, 354226, Control_c, 0, 64, 85
1, 354228, Note_on_c, 0, 63, 46
1, 354286, Note_off_c, 0, 63, 56
1, 354300, Control_c, 0, 64, 86
1, 354317, Note_off_c, 0, 66, 64
1, 354508, Control_c, 0, 64, 84
1, 354523, Control_c, 0, 64, 79
1, 354538, Control_c, 0, 64, 69
1, 354546, Note_on_c, 0, 50, 46
1, 354553, Control_c, 0, 64, 44
1, 354568, Control_c, 0, 64, 0
1, 354583, Control_c, 0, 64, 43
1, 354598, Control_c, 0, 64, 63
1, 354611, Note_on_c, 0, 90, 80
1, 354613, Control_c, 0, 64, 68
1, 354623, Note_on_c, 0, 78, 63
1, 354626, Control_c, 0, 64, 74
1, 354640, Control_c, 0, 64, 79
1, 354646, Note_off_c, 0, 50, 62
1, 354655, Control_c, 0, 64, 82
1, 354670, Control_c, 0, 64, 83
1, 354685, Control_c, 0, 64, 84
1, 354707, Control_c, 0, 64, 84
1, 354737, Control_c, 0, 64, 85
1, 354781, Control_c, 0, 64, 85
1, 354785, Note_on_c, 0, 61, 54
1, 354796, Control_c, 0, 64, 86
1, 354807, Note_off_c, 0, 90, 63
1, 354811, Control_c, 0, 64, 86
1, 354818, Note_on_c, 0, 92, 67
1, 354826, Control_c, 0, 64, 87
1, 354841, Control_c, 0, 64, 88
1, 354855, Control_c, 0, 64, 88
1, 354872, Note_off_c, 0, 61, 56
1, 354877, Note_off_c, 0, 92, 65
1, 354883, Note_on_c, 0, 90, 67
1, 354885, Control_c, 0, 64, 88
1, 354887, Note_on_c, 0, 59, 56
1, 354888, Note_off_c, 0, 78, 58
1, 354899, Control_c, 0, 64, 84
1, 354914, Control_c, 0, 64, 76
1, 354915, Note_off_c, 0, 90, 65
1, 354929, Control_c, 0, 64, 59
1, 354936, Note_on_c, 0, 89, 80
1, 354938, Note_off_c, 0, 59, 52
1, 354944, Control_c, 0, 64, 0
1, 354950, Note_on_c, 0, 77, 63
1, 354971, Note_off_c, 0, 77, 59
1, 354976, Note_on_c, 0, 66, 52
1, 354987, Note_off_c, 0, 89, 65
1, 355035, Note_off_c, 0, 66, 56
1, 355060, Note_on_c, 0, 61, 45
1, 355106, Note_on_c, 0, 90, 84
1, 355113, Note_on_c, 0, 78, 70
1, 355134, Note_off_c, 0, 78, 65
1, 355137, Note_off_c, 0, 90, 60
1, 355160, Note_off_c, 0, 61, 53
1, 355164, Note_on_c, 0, 59, 40
1, 355222, Note_off_c, 0, 59, 54
1, 355288, Note_on_c, 0, 93, 77
1, 355330, Control_c, 0, 64, 62
1, 355340, Note_on_c, 0, 80, 64
1, 355343, Note_on_c, 0, 92, 80
1, 355345, Control_c, 0, 64, 67
1, 355349, Note_off_c, 0, 93, 61
1, 355360, Control_c, 0, 64, 72
1, 355373, Note_on_c, 0, 52, 49
1, 355375, Control_c, 0, 64, 80
1, 355389, Control_c, 0, 64, 86
1, 355404, Control_c, 0, 64, 90
1, 355419, Control_c, 0, 64, 92
1, 355440, Note_off_c, 0, 92, 63
1, 355441, Control_c, 0, 64, 94
1, 355446, Note_off_c, 0, 80, 54
1, 355456, Control_c, 0, 64, 96
1, 355471, Control_c, 0, 64, 97
1, 355485, Note_off_c, 0, 52, 36
1, 355486, Control_c, 0, 64, 98
1, 355508, Note_on_c, 0, 59, 53
1, 355560, Control_c, 0, 64, 99
1, 355620, Note_on_c, 0, 68, 54
1, 355634, Control_c, 0, 64, 98
1, 355647, Note_on_c, 0, 92, 67
1, 355648, Note_off_c, 0, 68, 58
1, 355649, Control_c, 0, 64, 97
1, 355664, Control_c, 0, 64, 90
1, 355678, Control_c, 0, 64, 80
1, 355693, Control_c, 0, 64, 66
1, 355699, Note_off_c, 0, 92, 61
1, 355708, Control_c, 0, 64, 0
1, 355713, Note_on_c, 0, 90, 74
1, 355733, Note_on_c, 0, 78, 53
1, 355737, Note_off_c, 0, 59, 30
1, 355752, Control_c, 0, 64, 34
1, 355765, Note_on_c, 0, 50, 54
1, 355767, Control_c, 0, 64, 62
1, 355782, Control_c, 0, 64, 67
1, 355796, Control_c, 0, 64, 71
1, 355811, Control_c, 0, 64, 75
1, 355826, Control_c, 0, 64, 79
1, 355830, Note_off_c, 0, 90, 61
1, 355833, Note_off_c, 0, 50, 62
1, 355841, Control_c, 0, 64, 82
1, 355856, Control_c, 0, 64, 84
1, 355862, Note_off_c, 0, 78, 59
1, 355871, Control_c, 0, 64, 86
1, 355874, Note_on_c, 0, 59, 49
1, 355885, Control_c, 0, 64, 87
1, 355900, Control_c, 0, 64, 89
1, 355915, Control_c, 0, 64, 90
1, 355930, Control_c, 0, 64, 91
1, 355945, Note_on_c, 0, 66, 67
1, 355945, Control_c, 0, 64, 92
1, 355948, Note_off_c, 0, 59, 58
1, 355960, Control_c, 0, 64, 94
1, 355972, Note_off_c, 0, 66, 67
1, 355975, Control_c, 0, 64, 96
1, 355989, Control_c, 0, 64, 98
1, 356004, Control_c, 0, 64, 100
1, 356019, Control_c, 0, 64, 101
1, 356064, Control_c, 0, 64, 100
1, 356079, Control_c, 0, 64, 97
1, 356094, Control_c, 0, 64, 89
1, 356109, Control_c, 0, 64, 76
1, 356124, Control_c, 0, 64, 28
1, 356138, Note_on_c, 0, 49, 56
1, 356138, Control_c, 0, 64, 0
1, 356141, Note_on_c, 0, 37, 48
1, 356195, Note_off_c, 0, 37, 0
1, 356195, Note_on_c, 0, 37, 10
1, 356205, Control_c, 0, 64, 54
1, 356219, Control_c, 0, 64, 63
1, 356234, Control_c, 0, 64, 67
1, 356238, Note_on_c, 0, 54, 60
1, 356249, Control_c, 0, 64, 71
1, 356264, Control_c, 0, 64, 76
1, 356279, Control_c, 0, 64, 80
1, 356289, Note_off_c, 0, 49, 52
1, 356294, Control_c, 0, 64, 81
1, 356312, Note_off_c, 0, 54, 47
1, 356324, Note_on_c, 0, 42, 42
1, 356334, Note_on_c, 0, 58, 60
1, 356341, Note_off_c, 0, 37, 35
1, 356395, Note_off_c, 0, 58, 54
1, 356406, Note_on_c, 0, 66, 59
1, 356412, Control_c, 0, 64, 81
1, 356427, Control_c, 0, 64, 78
1, 356442, Control_c, 0, 64, 72
1, 356457, Control_c, 0, 64, 60
1, 356471, Control_c, 0, 64, 0
1, 356479, Note_off_c, 0, 66, 61
1, 356486, Control_c, 0, 67, 9
1, 356499, Note_off_c, 0, 42, 36
1, 356501, Control_c, 0, 67, 13
1, 356507, Note_on_c, 0, 35, 42
1, 356512, Note_on_c, 0, 47, 43
1, 356516, Control_c, 0, 67, 17
1, 356531, Control_c, 0, 67, 22
1, 356545, Control_c, 0, 67, 26
1, 356560, Control_c, 0, 67, 33
1, 356575, Control_c, 0, 67, 39
1, 356589, Note_on_c, 0, 54, 49
1, 356590, Control_c, 0, 67, 44
1, 356605, Control_c, 0, 67, 49
1, 356619, Control_c, 0, 64, 44
1, 356619, Control_c, 0, 67, 53
1, 356634, Control_c, 0, 64, 59
1, 356634, Control_c, 0, 67, 56
1, 356639, Note_off_c, 0, 35, 44
1, 356649, Control_c, 0, 64, 63
1, 356649, Control_c, 0, 67, 60
1, 356650, Note_off_c, 0, 47, 40
1, 356656, Note_off_c, 0, 54, 59
1, 356663, Control_c, 0, 64, 65
1, 356663, Control_c, 0, 67, 63
1, 356678, Control_c, 0, 64, 68
1, 356678, Control_c, 0, 67, 68
1, 356693, Control_c, 0, 64, 71
1, 356693, Control_c, 0, 67, 73
1, 356708, Control_c, 0, 64, 76
1, 356708, Control_c, 0, 67, 76
1, 356711, Note_on_c, 0, 59, 45
1, 356723, Control_c, 0, 64, 80
1, 356723, Control_c, 0, 67, 79
1, 356738, Control_c, 0, 64, 82
1, 356738, Control_c, 0, 67, 82
1, 356753, Control_c, 0, 64, 82
1, 356753, Control_c, 0, 67, 86
1, 356768, Control_c, 0, 67, 90
1, 356777, Note_off_c, 0, 59, 56
1, 356783, Control_c, 0, 64, 83
1, 356783, Control_c, 0, 67, 94
1, 356798, Control_c, 0, 64, 83
1, 356798, Control_c, 0, 67, 98
1, 356812, Control_c, 0, 64, 84
1, 356812, Control_c, 0, 67, 101
1, 356827, Control_c, 0, 64, 84
1, 356827, Control_c, 0, 67, 102
1, 356831, Note_on_c, 0, 66, 51
1, 356842, Control_c, 0, 64, 85
1, 356842, Control_c, 0, 67, 103
1, 356843, Note_on_c, 0, 63, 32
1, 356857, Control_c, 0, 64, 86
1, 356857, Control_c, 0, 67, 105
1, 356873, Control_c, 0, 64, 87
1, 356873, Control_c, 0, 67, 108
1, 356887, Note_off_c, 0, 63, 46
1, 356887, Control_c, 0, 64, 88
1, 356887, Control_c, 0, 67, 111
1, 356902, Control_c, 0, 64, 88
1, 356902, Control_c, 0, 67, 113
1, 356917, Control_c, 0, 64, 89
1, 356917, Control_c, 0, 67, 115
1, 356929, Note_off_c, 0, 66, 59
1, 356932, Control_c, 0, 64, 89
1, 356932, Control_c, 0, 67, 116
1, 356955, Control_c, 0, 64, 90
1, 356955, Control_c, 0, 67, 119
1, 356969, Control_c, 0, 67, 124
1, 356984, Control_c, 0, 64, 90
1, 356984, Control_c, 0, 67, 127
1, 356999, Control_c, 0, 64, 91
1, 357176, Control_c, 0, 64, 91
1, 357206, Control_c, 0, 64, 91
1, 357236, Control_c, 0, 64, 90
1, 357251, Control_c, 0, 64, 86
1, 357251, Note_on_c, 0, 50, 39
1, 357266, Control_c, 0, 64, 79
1, 357281, Control_c, 0, 64, 67
1, 357295, Control_c, 0, 64, 51
1, 357300, Note_on_c, 0, 93, 59
1, 357310, Control_c, 0, 64, 50
1, 357325, Control_c, 0, 64, 60
1, 357340, Control_c, 0, 64, 65
1, 357355, Control_c, 0, 64, 69
1, 357369, Control_c, 0, 64, 73
1, 357384, Control_c, 0, 64, 77
1, 357399, Control_c, 0, 64, 78
1, 357409, Note_off_c, 0, 50, 50
1, 357428, Note_on_c, 0, 92, 64
1, 357429, Control_c, 0, 64, 79
1, 357443, Control_c, 0, 64, 79
1, 357458, Control_c, 0, 64, 80
1, 357473, Control_c, 0, 64, 80
1, 357485, Note_off_c, 0, 93, 29
1, 357517, Control_c, 0, 64, 81
1, 357522, Note_on_c, 0, 90, 62
1, 357527, Note_off_c, 0, 92, 60
1, 357567, Note_on_c, 0, 61, 49
1, 357599, Note_off_c, 0, 90, 60
1, 357599, Note_on_c, 0, 88, 65
1, 357620, Control_c, 0, 64, 81
1, 357647, Note_off_c, 0, 88, 59
1, 357667, Note_off_c, 0, 61, 59
1, 357669, Note_on_c, 0, 86, 65
1, 357701, Note_on_c, 0, 59, 51
1, 357711, Note_off_c, 0, 86, 59
1, 357747, Control_c, 0, 64, 82
1, 357763, Note_on_c, 0, 85, 64
1, 357791, Control_c, 0, 64, 82
1, 357794, Note_off_c, 0, 59, 49
1, 357821, Control_c, 0, 64, 83
1, 357834, Note_off_c, 0, 85, 59
1, 357835, Note_on_c, 0, 66, 56
1, 357835, Note_on_c, 0, 83, 69
1, 357836, Control_c, 0, 64, 83
1, 357851, Control_c, 0, 64, 84
1, 357865, Control_c, 0, 64, 85
1, 357880, Control_c, 0, 64, 86
1, 357881, Note_off_c, 0, 83, 55
1, 357895, Control_c, 0, 64, 88
1, 357902, Note_on_c, 0, 81, 69
1, 357910, Control_c, 0, 64, 91
1, 357924, Control_c, 0, 64, 94
1, 357930, Note_off_c, 0, 81, 62
1, 357939, Control_c, 0, 64, 98
1, 357954, Control_c, 0, 64, 105
1, 357963, Note_on_c, 0, 61, 56
1, 357969, Note_off_c, 0, 66, 37
1, 357969, Control_c, 0, 64, 115
1, 357981, Note_on_c, 0, 80, 69
1, 357984, Control_c, 0, 64, 127
1, 358046, Note_off_c, 0, 80, 61
1, 358050, Note_on_c, 0, 78, 69
1, 358051, Note_off_c, 0, 61, 57
1, 358082, Note_on_c, 0, 59, 43
1, 358117, Note_off_c, 0, 78, 62
1, 358119, Note_on_c, 0, 76, 67
1, 358164, Note_off_c, 0, 76, 61
1, 358197, Note_on_c, 0, 74, 62
1, 358232, Note_off_c, 0, 74, 63
1, 358295, Control_c, 0, 64, 112
1, 358309, Control_c, 0, 64, 93
1, 358311, Note_on_c, 0, 53, 49
1, 358320, Note_off_c, 0, 59, 39
1, 358324, Control_c, 0, 64, 74
1, 358339, Control_c, 0, 64, 0
1, 358369, Note_on_c, 0, 73, 60
1, 358398, Control_c, 0, 64, 64
1, 358413, Control_c, 0, 64, 73
1, 358435, Control_c, 0, 64, 84
1, 358440, Note_off_c, 0, 73, 61
1, 358450, Control_c, 0, 64, 91
1, 358467, Control_c, 0, 64, 93
1, 358482, Control_c, 0, 64, 94
1, 358496, Control_c, 0, 64, 95
1, 358506, Note_on_c, 0, 85, 54
1, 358511, Control_c, 0, 64, 97
1, 358520, Note_on_c, 0, 59, 48
1, 358524, Note_off_c, 0, 53, 34
1, 358526, Control_c, 0, 64, 98
1, 358540, Control_c, 0, 64, 99
1, 358543, Note_off_c, 0, 85, 63
1, 358555, Control_c, 0, 64, 101
1, 358570, Control_c, 0, 64, 102
1, 358585, Control_c, 0, 64, 103
1, 358600, Control_c, 0, 64, 104
1, 358614, Control_c, 0, 64, 105
1, 358619, Note_on_c, 0, 85, 69
1, 358629, Control_c, 0, 64, 107
1, 358644, Control_c, 0, 64, 108
1, 358645, Note_off_c, 0, 85, 65
1, 358659, Control_c, 0, 64, 110
1, 358673, Control_c, 0, 64, 112
1, 358688, Control_c, 0, 64, 115
1, 358703, Control_c, 0, 64, 120
1, 358705, Note_on_c, 0, 97, 77
1, 358705, Note_on_c, 0, 68, 49
1, 358718, Control_c, 0, 64, 127
1, 358746, Note_off_c, 0, 97, 61
1, 358792, Note_on_c, 0, 97, 74
1, 358849, Note_off_c, 0, 97, 65
1, 358864, Note_on_c, 0, 85, 71
1, 358890, Note_off_c, 0, 85, 67
1, 358950, Note_on_c, 0, 85, 77
1, 359008, Note_off_c, 0, 85, 58
1, 359016, Note_on_c, 0, 73, 73
1, 359048, Note_off_c, 0, 73, 64
1, 359114, Note_on_c, 0, 73, 63
1, 359143, Note_off_c, 0, 73, 66
1, 359194, Note_on_c, 0, 85, 76
1, 359220, Note_off_c, 0, 85, 63
1, 359284, Note_on_c, 0, 85, 74
1, 359307, Note_off_c, 0, 85, 67
1, 359359, Note_on_c, 0, 97, 82
1, 359390, Note_off_c, 0, 97, 62
1, 359440, Note_on_c, 0, 97, 83
1, 359496, Note_off_c, 0, 97, 64
1, 359509, Note_on_c, 0, 85, 72
1, 359528, Note_off_c, 0, 85, 67
1, 359589, Note_on_c, 0, 85, 79
1, 359650, Note_off_c, 0, 85, 57
1, 359659, Note_on_c, 0, 73, 67
1, 359695, Note_off_c, 0, 73, 58
1, 359737, Note_on_c, 0, 73, 60
1, 359768, Note_off_c, 0, 73, 64
1, 359820, Note_on_c, 0, 85, 69
1, 359850, Note_off_c, 0, 85, 64
1, 359917, Note_on_c, 0, 85, 66
1, 359951, Note_off_c, 0, 85, 67
1, 360000, Note_on_c, 0, 97, 72
1, 360021, Note_off_c, 0, 97, 60
1, 360093, Note_on_c, 0, 97, 73
1, 360120, Note_off_c, 0, 97, 63
1, 360174, Note_on_c, 0, 85, 62
1, 360205, Note_off_c, 0, 85, 62
1, 360280, Note_on_c, 0, 85, 56
1, 360309, Note_off_c, 0, 85, 60
1, 360352, Note_on_c, 0, 97, 66
1, 360378, Note_off_c, 0, 97, 67
1, 360446, Note_on_c, 0, 97, 65
1, 360483, Note_off_c, 0, 97, 57
1, 360540, Note_on_c, 0, 85, 64
1, 360574, Note_off_c, 0, 85, 60
1, 360658, Note_on_c, 0, 85, 56
1, 360703, Note_off_c, 0, 85, 62
1, 360756, Note_on_c, 0, 97, 63
1, 360793, Note_off_c, 0, 97, 57
1, 360837, Note_off_c, 0, 59, 37
1, 360885, Note_on_c, 0, 97, 51
1, 360923, Note_off_c, 0, 68, 61
1, 360941, Note_off_c, 0, 97, 50
1, 361022, Note_on_c, 0, 85, 46
1, 361046, Note_off_c, 0, 85, 58
1, 361143, Note_on_c, 0, 85, 46
1, 361200, Note_off_c, 0, 85, 57
1, 361314, Note_on_c, 0, 97, 45
1, 361393, Note_off_c, 0, 97, 47
1, 361522, Note_on_c, 0, 64, 28
1, 361616, Note_on_c, 0, 68, 43
1, 361743, Control_c, 0, 64, 115
1, 361758, Control_c, 0, 64, 104
1, 361761, Note_on_c, 0, 74, 40
1, 361773, Control_c, 0, 64, 94
1, 361788, Control_c, 0, 64, 81
1, 361790, Note_on_c, 0, 98, 40
1, 361803, Control_c, 0, 64, 69
1, 361817, Control_c, 0, 64, 38
1, 361832, Control_c, 0, 64, 0
1, 361869, Note_off_c, 0, 98, 60
1, 361876, Control_c, 0, 64, 62
1, 361888, Note_on_c, 0, 100, 49
1, 361891, Control_c, 0, 64, 67
1, 361906, Control_c, 0, 64, 70
1, 361921, Control_c, 0, 64, 74
1, 361936, Control_c, 0, 64, 77
1, 361950, Control_c, 0, 64, 80
1, 361965, Control_c, 0, 64, 81
1, 361980, Control_c, 0, 64, 83
1, 361995, Control_c, 0, 64, 85
1, 361996, Note_off_c, 0, 100, 35
1, 362000, Note_on_c, 0, 98, 53
1, 362010, Control_c, 0, 64, 86
1, 362024, Control_c, 0, 64, 88
1, 362039, Control_c, 0, 64, 89
1, 362044, Note_off_c, 0, 98, 59
1, 362048, Note_off_c, 0, 68, 38
1, 362054, Control_c, 0, 64, 90
1, 362067, Note_on_c, 0, 97, 53
1, 362069, Control_c, 0, 64, 91
1, 362083, Control_c, 0, 64, 92
1, 362113, Control_c, 0, 64, 92
1, 362119, Note_off_c, 0, 97, 61
1, 362128, Control_c, 0, 64, 93
1, 362143, Note_on_c, 0, 95, 47
1, 362157, Control_c, 0, 64, 93
1, 362166, Note_off_c, 0, 95, 58
1, 362180, Control_c, 0, 64, 94
1, 362195, Control_c, 0, 64, 94
1, 362199, Note_on_c, 0, 93, 59
1, 362217, Note_off_c, 0, 93, 61
1, 362225, Control_c, 0, 64, 95
1, 362262, Note_off_c, 0, 74, 61
1, 362268, Note_on_c, 0, 92, 62
1, 362269, Control_c, 0, 64, 95
1, 362277, Note_on_c, 0, 73, 51
1, 362302, Note_off_c, 0, 92, 62
1, 362327, Note_on_c, 0, 90, 69
1, 362328, Control_c, 0, 64, 96
1, 362393, Note_off_c, 0, 90, 63
1, 362402, Note_on_c, 0, 88, 68
1, 362417, Control_c, 0, 64, 96
1, 362439, Note_off_c, 0, 88, 60
1, 362467, Note_on_c, 0, 86, 56
1, 362472, Note_on_c, 0, 71, 63
1, 362473, Note_off_c, 0, 73, 37
1, 362490, Note_off_c, 0, 64, 38
1, 362491, Note_off_c, 0, 86, 58
1, 362521, Note_off_c, 0, 71, 58
1, 362534, Note_on_c, 0, 85, 55
1, 362601, Note_off_c, 0, 85, 61
1, 362602, Note_on_c, 0, 83, 69
1, 362648, Note_off_c, 0, 83, 60
1, 362655, Control_c, 0, 64, 95
1, 362670, Control_c, 0, 64, 91
1, 362676, Note_on_c, 0, 73, 57
1, 362679, Note_on_c, 0, 81, 61
1, 362683, Note_on_c, 0, 76, 62
1, 362685, Control_c, 0, 64, 84
1, 362700, Control_c, 0, 64, 75
1, 362706, Note_on_c, 0, 64, 42
1, 362709, Note_off_c, 0, 81, 50
1, 362714, Control_c, 0, 64, 64
1, 362729, Control_c, 0, 64, 48
1, 362744, Note_on_c, 0, 80, 59
1, 362744, Control_c, 0, 64, 54
1, 362759, Control_c, 0, 64, 63
1, 362771, Note_off_c, 0, 73, 59
1, 362773, Control_c, 0, 64, 68
1, 362774, Note_off_c, 0, 80, 63
1, 362788, Control_c, 0, 64, 74
1, 362798, Note_on_c, 0, 81, 68
1, 362803, Control_c, 0, 64, 79
1, 362818, Control_c, 0, 64, 82
1, 362832, Control_c, 0, 64, 82
1, 362847, Control_c, 0, 64, 83
1, 362852, Note_off_c, 0, 81, 52
1, 362862, Control_c, 0, 64, 83
1, 362867, Note_on_c, 0, 68, 70
1, 362870, Note_off_c, 0, 76, 39
1, 362871, Note_on_c, 0, 83, 64
1, 362877, Control_c, 0, 64, 84
1, 362892, Control_c, 0, 64, 85
1, 362906, Control_c, 0, 64, 87
1, 362929, Note_off_c, 0, 83, 49
1, 362929, Control_c, 0, 64, 89
1, 362944, Control_c, 0, 64, 91
1, 362948, Note_on_c, 0, 85, 70
1, 362959, Control_c, 0, 64, 92
1, 362971, Note_off_c, 0, 85, 69
1, 362974, Control_c, 0, 64, 93
1, 362985, Note_off_c, 0, 68, 62
1, 362988, Control_c, 0, 64, 94
1, 363003, Control_c, 0, 64, 94
1, 363026, Note_on_c, 0, 86, 74
1, 363058, Note_on_c, 0, 69, 80
1, 363070, Note_off_c, 0, 86, 55
1, 363085, Note_on_c, 0, 88, 75
1, 363092, Control_c, 0, 64, 95
1, 363099, Note_off_c, 0, 64, 42
1, 363154, Note_on_c, 0, 90, 68
1, 363159, Note_off_c, 0, 88, 58
1, 363195, Control_c, 0, 64, 95
1, 363212, Note_on_c, 0, 92, 71
1, 363216, Note_off_c, 0, 90, 64
1, 363225, Control_c, 0, 64, 96
1, 363230, Note_off_c, 0, 92, 67
1, 363254, Note_off_c, 0, 69, 62
1, 363271, Note_on_c, 0, 93, 78
1, 363286, Note_on_c, 0, 64, 57
1, 363329, Note_off_c, 0, 93, 58
1, 363338, Note_on_c, 0, 95, 71
1, 363370, Note_on_c, 0, 68, 58
1, 363430, Note_on_c, 0, 97, 58
1, 363433, Control_c, 0, 64, 94
1, 363448, Control_c, 0, 64, 89
1, 363463, Control_c, 0, 64, 81
1, 363478, Control_c, 0, 64, 70
1, 363482, Note_on_c, 0, 74, 56
1, 363491, Note_off_c, 0, 95, 58
1, 363493, Control_c, 0, 64, 0
1, 363496, Note_on_c, 0, 98, 67
1, 363526, Note_off_c, 0, 97, 61
1, 363566, Note_off_c, 0, 98, 62
1, 363574, Note_on_c, 0, 100, 70
1, 363582, Control_c, 0, 64, 55
1, 363597, Control_c, 0, 64, 65
1, 363612, Control_c, 0, 64, 69
1, 363627, Control_c, 0, 64, 72
1, 363642, Control_c, 0, 64, 77
1, 363656, Control_c, 0, 64, 81
1, 363657, Note_on_c, 0, 98, 55
1, 363669, Note_off_c, 0, 100, 58
1, 363671, Control_c, 0, 64, 84
1, 363693, Control_c, 0, 64, 86
1, 363701, Note_off_c, 0, 98, 63
1, 363708, Note_off_c, 0, 68, 37
1, 363708, Control_c, 0, 64, 87
1, 363717, Note_on_c, 0, 97, 58
1, 363723, Control_c, 0, 64, 88
1, 363737, Control_c, 0, 64, 90
1, 363752, Control_c, 0, 64, 90
1, 363762, Note_off_c, 0, 97, 63
1, 363767, Control_c, 0, 64, 91
1, 363768, Note_on_c, 0, 95, 66
1, 363782, Control_c, 0, 64, 91
1, 363801, Note_off_c, 0, 95, 66
1, 363812, Control_c, 0, 64, 92
1, 363816, Note_on_c, 0, 93, 71
1, 363842, Note_off_c, 0, 93, 65
1, 363871, Control_c, 0, 64, 92
1, 363879, Note_off_c, 0, 74, 59
1, 363883, Note_on_c, 0, 92, 66
1, 363884, Note_on_c, 0, 73, 65
1, 363901, Control_c, 0, 67, 118
1, 363916, Control_c, 0, 67, 105
1, 363917, Note_off_c, 0, 92, 52
1, 363930, Control_c, 0, 67, 92
1, 363938, Note_on_c, 0, 90, 74
1, 363945, Control_c, 0, 67, 77
1, 363960, Control_c, 0, 67, 65
1, 363975, Control_c, 0, 67, 53
1, 363990, Control_c, 0, 67, 44
1, 363997, Note_off_c, 0, 90, 63
1, 364002, Note_on_c, 0, 88, 73
1, 364004, Control_c, 0, 67, 36
1, 364019, Control_c, 0, 67, 30
1, 364028, Note_off_c, 0, 64, 59
1, 364033, Note_off_c, 0, 73, 53
1, 364034, Control_c, 0, 67, 24
1, 364049, Control_c, 0, 67, 22
1, 364055, Note_off_c, 0, 88, 63
1, 364062, Note_on_c, 0, 71, 73
1, 364062, Note_on_c, 0, 86, 65
1, 364065, Control_c, 0, 67, 20
1, 364079, Control_c, 0, 67, 17
1, 364089, Note_off_c, 0, 86, 66
1, 364094, Control_c, 0, 67, 15
1, 364109, Control_c, 0, 67, 11
1, 364117, Note_off_c, 0, 71, 56
1, 364124, Control_c, 0, 67, 8
1, 364139, Control_c, 0, 67, 0
1, 364195, Note_on_c, 0, 83, 47
1, 364205, Note_on_c, 0, 84, 54
1, 364213, Control_c, 0, 64, 92
1, 364220, Note_off_c, 0, 83, 58
1, 364226, Note_off_c, 0, 84, 61
1, 364227, Control_c, 0, 64, 88
1, 364242, Control_c, 0, 64, 80
1, 364249, Note_on_c, 0, 73, 72
1, 364250, Note_on_c, 0, 81, 76
1, 364252, Note_on_c, 0, 76, 77
1, 364257, Control_c, 0, 64, 69
1, 364267, Note_on_c, 0, 64, 61
1, 364272, Control_c, 0, 64, 47
1, 364286, Control_c, 0, 64, 37
1, 364298, Note_off_c, 0, 81, 60
1, 364301, Control_c, 0, 64, 56
1, 364316, Note_on_c, 0, 80, 62
1, 364316, Control_c, 0, 64, 65
1, 364328, Note_off_c, 0, 73, 61
1, 364331, Control_c, 0, 64, 71
1, 364346, Control_c, 0, 64, 77
1, 364349, Note_off_c, 0, 80, 62
1, 364360, Control_c, 0, 64, 82
1, 364369, Note_on_c, 0, 81, 69
1, 364375, Control_c, 0, 64, 84
1, 364384, Note_off_c, 0, 76, 57
1, 364390, Control_c, 0, 64, 84
1, 364405, Control_c, 0, 64, 85
1, 364432, Note_off_c, 0, 81, 55
1, 364435, Note_on_c, 0, 68, 77
1, 364441, Note_on_c, 0, 83, 67
1, 364442, Control_c, 0, 64, 85
1, 364447, Note_off_c, 0, 64, 55
1, 364457, Control_c, 0, 64, 86
1, 364472, Control_c, 0, 64, 87
1, 364483, Note_off_c, 0, 83, 54
1, 364486, Control_c, 0, 64, 88
1, 364501, Control_c, 0, 64, 90
1, 364508, Note_on_c, 0, 85, 75
1, 364516, Control_c, 0, 64, 90
1, 364529, Note_off_c, 0, 68, 60
1, 364530, Note_off_c, 0, 85, 67
1, 364531, Control_c, 0, 64, 91
1, 364560, Control_c, 0, 64, 92
1, 364567, Note_on_c, 0, 86, 76
1, 364605, Control_c, 0, 64, 92
1, 364613, Note_off_c, 0, 86, 63
1, 364617, Note_on_c, 0, 88, 75
1, 364618, Note_on_c, 0, 69, 84
1, 364649, Control_c, 0, 64, 93
1, 364673, Note_on_c, 0, 90, 69
1, 364679, Control_c, 0, 64, 93
1, 364681, Note_off_c, 0, 88, 62
1, 364709, Control_c, 0, 64, 94
1, 364710, Note_on_c, 0, 92, 81
1, 364724, Control_c, 0, 64, 94
1, 364727, Note_off_c, 0, 90, 64
1, 364739, Control_c, 0, 64, 95
1, 364739, Note_off_c, 0, 92, 64
1, 364753, Control_c, 0, 64, 96
1, 364764, Note_off_c, 0, 69, 61
1, 364768, Control_c, 0, 64, 96
1, 364776, Note_on_c, 0, 93, 84
1, 364783, Control_c, 0, 64, 97
1, 364788, Note_on_c, 0, 64, 62
1, 364812, Control_c, 0, 64, 97
1, 364822, Note_off_c, 0, 93, 61
1, 364826, Note_on_c, 0, 95, 72
1, 364827, Control_c, 0, 64, 98
1, 364842, Control_c, 0, 64, 98
1, 364870, Note_on_c, 0, 68, 68
1, 364901, Note_on_c, 0, 97, 70
1, 364932, Control_c, 0, 64, 97
1, 364947, Control_c, 0, 64, 93
1, 364962, Control_c, 0, 64, 86
1, 364965, Note_on_c, 0, 74, 73
1, 364969, Note_off_c, 0, 95, 58
1, 364970, Note_on_c, 0, 98, 72
1, 364976, Control_c, 0, 64, 75
1, 364991, Control_c, 0, 64, 58
1, 365004, Note_off_c, 0, 97, 63
1, 365006, Control_c, 0, 64, 0
1, 365035, Note_off_c, 0, 98, 66
1, 365037, Note_on_c, 0, 100, 77
1, 365095, Control_c, 0, 64, 58
1, 365109, Control_c, 0, 64, 64
1, 365116, Note_on_c, 0, 98, 68
1, 365124, Control_c, 0, 64, 67
1, 365139, Control_c, 0, 64, 71
1, 365141, Note_off_c, 0, 100, 60
1, 365154, Control_c, 0, 64, 77
1, 365165, Note_on_c, 0, 97, 68
1, 365167, Note_off_c, 0, 98, 64
1, 365169, Control_c, 0, 64, 83
1, 365191, Control_c, 0, 64, 87
1, 365206, Control_c, 0, 64, 89
1, 365215, Note_on_c, 0, 95, 78
1, 365221, Control_c, 0, 64, 89
1, 365224, Note_off_c, 0, 97, 65
1, 365235, Control_c, 0, 64, 90
1, 365250, Control_c, 0, 64, 91
1, 365263, Note_off_c, 0, 95, 65
1, 365265, Control_c, 0, 64, 92
1, 365267, Note_off_c, 0, 68, 59
1, 365274, Note_on_c, 0, 93, 71
1, 365280, Control_c, 0, 64, 93
1, 365295, Control_c, 0, 64, 93
1, 365298, Note_off_c, 0, 93, 68
1, 365309, Control_c, 0, 64, 94
1, 365324, Note_on_c, 0, 73, 79
1, 365324, Control_c, 0, 64, 94
1, 365331, Note_on_c, 0, 92, 75
1, 365331, Note_off_c, 0, 74, 61
1, 365339, Control_c, 0, 64, 95
1, 365383, Note_off_c, 0, 92, 63
1, 365386, Note_on_c, 0, 90, 77
1, 365442, Control_c, 0, 64, 95
1, 365447, Note_off_c, 0, 90, 63
1, 365449, Note_on_c, 0, 88, 79
1, 365465, Note_off_c, 0, 73, 58
1, 365475, Note_off_c, 0, 64, 58
1, 365499, Note_off_c, 0, 88, 63
1, 365502, Note_on_c, 0, 71, 82
1, 365504, Note_on_c, 0, 86, 70
1, 365532, Note_off_c, 0, 86, 65
1, 365556, Note_off_c, 0, 71, 57
1, 365567, Note_on_c, 0, 85, 71
1, 365591, Control_c, 0, 64, 96
1, 365621, Control_c, 0, 64, 95
1, 365622, Note_on_c, 0, 83, 76
1, 365630, Note_off_c, 0, 85, 64
1, 365651, Control_c, 0, 64, 90
1, 365666, Control_c, 0, 64, 79
1, 365671, Note_off_c, 0, 83, 59
1, 365675, Note_on_c, 0, 73, 81
1, 365678, Note_on_c, 0, 76, 85
1, 365681, Control_c, 0, 64, 64
1, 365682, Note_on_c, 0, 81, 74
1, 365683, Note_on_c, 0, 64, 68
1, 365696, Control_c, 0, 64, 0
1, 365725, Note_off_c, 0, 81, 61
1, 365740, Control_c, 0, 64, 45
1, 365743, Note_on_c, 0, 80, 76
1, 365755, Control_c, 0, 64, 66
1, 365758, Note_off_c, 0, 73, 61
1, 365770, Control_c, 0, 64, 72
1, 365782, Note_off_c, 0, 76, 65
1, 365782, Note_off_c, 0, 80, 61
1, 365785, Control_c, 0, 64, 77
1, 365798, Note_off_c, 0, 64, 61
1, 365799, Control_c, 0, 64, 81
1, 365805, Note_on_c, 0, 81, 80
1, 365814, Control_c, 0, 64, 82
1, 365829, Control_c, 0, 64, 83
1, 365843, Control_c, 0, 64, 84
1, 365853, Note_off_c, 0, 81, 58
1, 365855, Note_on_c, 0, 68, 87
1, 365857, Control_c, 0, 64, 85
1, 365862, Note_on_c, 0, 83, 70
1, 365872, Control_c, 0, 64, 86
1, 365887, Control_c, 0, 64, 88
1, 365902, Control_c, 0, 64, 91
1, 365904, Note_off_c, 0, 83, 51
1, 365917, Control_c, 0, 64, 96
1, 365930, Note_on_c, 0, 85, 81
1, 365930, Note_off_c, 0, 68, 62
1, 365939, Control_c, 0, 64, 103
1, 365948, Note_off_c, 0, 85, 73
1, 365954, Control_c, 0, 64, 111
1, 365969, Control_c, 0, 64, 119
1, 365984, Control_c, 0, 64, 127
1, 365991, Note_on_c, 0, 86, 84
1, 366028, Note_on_c, 0, 69, 101
1, 366041, Note_off_c, 0, 86, 65
1, 366044, Note_on_c, 0, 88, 76
1, 366093, Note_on_c, 0, 90, 76
1, 366122, Note_off_c, 0, 88, 62
1, 366152, Note_on_c, 0, 92, 86
1, 366168, Note_off_c, 0, 90, 64
1, 366170, Note_off_c, 0, 92, 72
1, 366212, Note_on_c, 0, 93, 89
1, 366243, Note_off_c, 0, 69, 48
1, 366271, Note_on_c, 0, 95, 81
1, 366271, Note_off_c, 0, 93, 63
1, 366313, Note_on_c, 0, 64, 58
1, 366360, Note_on_c, 0, 97, 83
1, 366376, Note_on_c, 0, 68, 72
1, 366382, Note_off_c, 0, 95, 60
1, 366416, Note_on_c, 0, 71, 66
1, 366452, Note_off_c, 0, 97, 64
1, 366473, Control_c, 0, 64, 108
1, 366484, Note_on_c, 0, 98, 97
1, 366487, Note_on_c, 0, 74, 97
1, 366488, Control_c, 0, 64, 92
1, 366503, Control_c, 0, 64, 77
1, 366518, Control_c, 0, 64, 59
1, 366533, Control_c, 0, 64, 0
1, 366562, Control_c, 0, 64, 57
1, 366577, Control_c, 0, 64, 69
1, 366592, Control_c, 0, 64, 75
1, 366607, Control_c, 0, 64, 80
1, 366621, Control_c, 0, 64, 81
1, 366622, Note_on_c, 0, 99, 77
1, 366632, Note_off_c, 0, 98, 63
1, 366651, Control_c, 0, 64, 82
1, 366682, Note_on_c, 0, 100, 81
1, 366688, Note_off_c, 0, 99, 66
1, 366688, Control_c, 0, 64, 82
1, 366718, Control_c, 0, 64, 83
1, 366730, Note_off_c, 0, 100, 63
1, 366740, Note_on_c, 0, 101, 85
1, 366748, Control_c, 0, 64, 83
1, 366762, Control_c, 0, 64, 84
1, 366803, Note_on_c, 0, 100, 82
1, 366804, Note_off_c, 0, 101, 66
1, 366849, Note_off_c, 0, 100, 64
1, 366851, Control_c, 0, 64, 82
1, 366855, Note_on_c, 0, 99, 67
1, 366866, Control_c, 0, 64, 78
1, 366880, Note_off_c, 0, 99, 71
1, 366880, Control_c, 0, 64, 70
1, 366891, Note_on_c, 0, 98, 78
1, 366895, Control_c, 0, 64, 55
1, 366910, Control_c, 0, 64, 0
1, 366937, Note_off_c, 0, 98, 66
1, 366954, Control_c, 0, 64, 45
1, 366957, Note_on_c, 0, 97, 73
1, 366969, Control_c, 0, 64, 63
1, 366984, Control_c, 0, 64, 68
1, 366985, Note_off_c, 0, 97, 66
1, 366998, Note_on_c, 0, 96, 75
1, 366998, Control_c, 0, 64, 71
1, 367013, Control_c, 0, 64, 72
1, 367028, Control_c, 0, 64, 73
1, 367058, Note_off_c, 0, 96, 62
1, 367067, Note_on_c, 0, 95, 69
1, 367073, Control_c, 0, 64, 71
1, 367088, Control_c, 0, 64, 68
1, 367103, Note_off_c, 0, 95, 44
1, 367103, Control_c, 0, 64, 63
1, 367117, Note_on_c, 0, 94, 81
1, 367118, Control_c, 0, 64, 53
1, 367132, Control_c, 0, 64, 47
1, 367147, Control_c, 0, 64, 46
1, 367158, Note_off_c, 0, 94, 64
1, 367175, Note_on_c, 0, 93, 76
1, 367177, Control_c, 0, 64, 46
1, 367204, Note_off_c, 0, 93, 61
1, 367221, Control_c, 0, 64, 47
1, 367236, Control_c, 0, 64, 48
1, 367237, Note_on_c, 0, 92, 70
1, 367252, Control_c, 0, 64, 49
1, 367267, Control_c, 0, 64, 50
1, 367268, Note_off_c, 0, 92, 66
1, 367281, Control_c, 0, 64, 51
1, 367292, Note_on_c, 0, 93, 66
1, 367296, Control_c, 0, 64, 55
1, 367311, Control_c, 0, 64, 59
1, 367319, Note_off_c, 0, 93, 66
1, 367326, Control_c, 0, 64, 63
1, 367326, Note_on_c, 0, 94, 71
1, 367341, Control_c, 0, 64, 65
1, 367356, Control_c, 0, 64, 66
1, 367366, Note_off_c, 0, 94, 59
1, 367370, Control_c, 0, 64, 69
1, 367372, Note_on_c, 0, 95, 72
1, 367385, Control_c, 0, 64, 72
1, 367400, Control_c, 0, 64, 74
1, 367422, Control_c, 0, 64, 76
1, 367436, Note_off_c, 0, 95, 61
1, 367437, Control_c, 0, 64, 77
1, 367438, Note_on_c, 0, 94, 78
1, 367451, Control_c, 0, 64, 77
1, 367466, Control_c, 0, 64, 78
1, 367476, Note_off_c, 0, 94, 63
1, 367496, Note_on_c, 0, 93, 73
1, 367539, Note_off_c, 0, 93, 62
1, 367558, Note_on_c, 0, 92, 74
1, 367593, Note_off_c, 0, 92, 63
1, 367603, Note_on_c, 0, 91, 73
1, 367615, Control_c, 0, 64, 77
1, 367629, Control_c, 0, 64, 77
1, 367641, Note_off_c, 0, 91, 58
1, 367644, Control_c, 0, 64, 76
1, 367659, Control_c, 0, 64, 75
1, 367669, Note_on_c, 0, 90, 74
1, 367674, Control_c, 0, 64, 75
1, 367697, Note_off_c, 0, 90, 66
1, 367717, Note_on_c, 0, 89, 73
1, 367733, Control_c, 0, 64, 76
1, 367748, Control_c, 0, 64, 78
1, 367758, Note_off_c, 0, 89, 49
1, 367763, Control_c, 0, 64, 82
1, 367777, Control_c, 0, 64, 86
1, 367778, Note_on_c, 0, 88, 68
1, 367792, Control_c, 0, 64, 91
1, 367807, Control_c, 0, 64, 97
1, 367821, Note_off_c, 0, 88, 47
1, 367821, Control_c, 0, 64, 101
1, 367836, Control_c, 0, 64, 107
1, 367842, Note_on_c, 0, 87, 79
1, 367851, Control_c, 0, 64, 112
1, 367866, Control_c, 0, 64, 116
1, 367872, Note_off_c, 0, 87, 64
1, 367881, Control_c, 0, 64, 118
1, 367896, Control_c, 0, 64, 121
1, 367901, Note_on_c, 0, 86, 65
1, 367910, Control_c, 0, 64, 123
1, 367925, Control_c, 0, 64, 123
1, 367940, Control_c, 0, 64, 124
1, 367958, Note_off_c, 0, 86, 62
1, 367967, Note_on_c, 0, 87, 60
1, 367994, Note_off_c, 0, 87, 65
1, 368001, Note_on_c, 0, 88, 76
1, 368045, Note_off_c, 0, 88, 58
1, 368055, Note_on_c, 0, 89, 74
1, 368059, Control_c, 0, 64, 125
1, 368113, Note_off_c, 0, 89, 64
1, 368120, Note_on_c, 0, 88, 65
1, 368154, Note_off_c, 0, 88, 61
1, 368178, Note_on_c, 0, 87, 67
1, 368185, Control_c, 0, 64, 125
1, 368200, Control_c, 0, 64, 127
1, 368203, Note_off_c, 0, 87, 68
1, 368219, Note_on_c, 0, 86, 69
1, 368249, Note_off_c, 0, 86, 63
1, 368283, Note_on_c, 0, 85, 69
1, 368309, Note_off_c, 0, 85, 68
1, 368333, Note_on_c, 0, 84, 69
1, 368387, Note_off_c, 0, 84, 62
1, 368395, Note_on_c, 0, 83, 61
1, 368416, Note_off_c, 0, 83, 56
1, 368448, Note_on_c, 0, 82, 76
1, 368473, Note_off_c, 0, 82, 68
1, 368498, Note_on_c, 0, 81, 71
1, 368512, Note_off_c, 0, 74, 56
1, 368523, Note_off_c, 0, 71, 53
1, 368536, Note_off_c, 0, 68, 58
1, 368545, Note_off_c, 0, 81, 57
1, 368562, Note_on_c, 0, 80, 71
1, 368578, Note_off_c, 0, 64, 43
1, 368590, Note_off_c, 0, 80, 67
1, 368609, Note_on_c, 0, 81, 64
1, 368646, Note_off_c, 0, 81, 61
1, 368652, Note_on_c, 0, 82, 67
1, 368688, Note_off_c, 0, 82, 60
1, 368699, Note_on_c, 0, 83, 70
1, 368760, Note_off_c, 0, 83, 55
1, 368767, Note_on_c, 0, 82, 67
1, 368784, Note_off_c, 0, 82, 68
1, 368808, Note_on_c, 0, 81, 65
1, 368856, Note_off_c, 0, 81, 60
1, 368870, Note_on_c, 0, 80, 74
1, 368903, Note_off_c, 0, 80, 63
1, 368926, Note_on_c, 0, 79, 74
1, 368963, Control_c, 0, 64, 123
1, 368971, Note_off_c, 0, 79, 61
1, 368978, Control_c, 0, 64, 120
1, 368991, Note_on_c, 0, 78, 71
1, 368993, Control_c, 0, 64, 118
1, 369008, Control_c, 0, 64, 116
1, 369018, Note_off_c, 0, 78, 66
1, 369022, Control_c, 0, 64, 114
1, 369031, Note_on_c, 0, 77, 73
1, 369037, Control_c, 0, 64, 112
1, 369052, Control_c, 0, 64, 110
1, 369067, Control_c, 0, 64, 108
1, 369082, Control_c, 0, 64, 106
1, 369085, Note_off_c, 0, 77, 50
1, 369094, Note_on_c, 0, 76, 72
1, 369097, Control_c, 0, 64, 104
1, 369112, Control_c, 0, 64, 102
1, 369127, Control_c, 0, 64, 101
1, 369133, Note_off_c, 0, 76, 53
1, 369142, Control_c, 0, 64, 98
1, 369156, Control_c, 0, 64, 95
1, 369158, Note_on_c, 0, 75, 75
1, 369171, Control_c, 0, 64, 92
1, 369186, Control_c, 0, 64, 88
1, 369186, Control_c, 0, 67, 12
1, 369190, Note_off_c, 0, 75, 66
1, 369201, Control_c, 0, 64, 83
1, 369201, Control_c, 0, 67, 17
1, 369216, Control_c, 0, 64, 77
1, 369216, Control_c, 0, 67, 24
1, 369218, Note_on_c, 0, 74, 62
1, 369230, Control_c, 0, 64, 70
1, 369230, Control_c, 0, 67, 32
1, 369245, Control_c, 0, 64, 54
1, 369245, Control_c, 0, 67, 42
1, 369260, Control_c, 0, 64, 0
1, 369260, Control_c, 0, 67, 52
1, 369273, Note_off_c, 0, 74, 61
1, 369274, Control_c, 0, 67, 62
1, 369285, Note_on_c, 0, 75, 53
1, 369289, Control_c, 0, 67, 73
1, 369304, Control_c, 0, 67, 83
1, 369316, Note_off_c, 0, 75, 66
1, 369319, Control_c, 0, 67, 94
1, 369327, Note_on_c, 0, 76, 62
1, 369334, Control_c, 0, 67, 104
1, 369348, Control_c, 0, 67, 114
1, 369358, Note_off_c, 0, 76, 66
1, 369363, Control_c, 0, 67, 122
1, 369378, Control_c, 0, 67, 127
1, 369380, Note_on_c, 0, 77, 69
1, 369447, Note_off_c, 0, 77, 62
1, 369459, Note_on_c, 0, 76, 64
1, 369484, Note_off_c, 0, 76, 70
1, 369505, Note_on_c, 0, 75, 61
1, 369535, Note_off_c, 0, 75, 67
1, 369550, Note_on_c, 0, 74, 61
1, 369583, Note_off_c, 0, 74, 64
1, 369620, Note_on_c, 0, 73, 63
1, 369651, Note_off_c, 0, 73, 66
1, 369677, Note_on_c, 0, 72, 67
1, 369721, Note_off_c, 0, 72, 58
1, 369749, Note_on_c, 0, 71, 60
1, 369791, Note_off_c, 0, 71, 57
1, 369809, Note_on_c, 0, 70, 66
1, 369836, Note_off_c, 0, 70, 67
1, 369869, Note_on_c, 0, 69, 62
1, 369905, Note_off_c, 0, 69, 62
1, 369939, Note_on_c, 0, 68, 57
1, 369961, Note_off_c, 0, 68, 65
1, 369984, Note_on_c, 0, 69, 68
1, 370016, Note_off_c, 0, 69, 62
1, 370044, Note_on_c, 0, 70, 58
1, 370075, Note_off_c, 0, 70, 62
1, 370089, Note_on_c, 0, 71, 64
1, 370143, Note_off_c, 0, 71, 58
1, 370147, Note_on_c, 0, 70, 73
1, 370176, Note_off_c, 0, 70, 63
1, 370197, Note_on_c, 0, 69, 66
1, 370239, Note_off_c, 0, 69, 66
1, 370271, Note_on_c, 0, 68, 69
1, 370299, Note_off_c, 0, 68, 67
1, 370318, Note_on_c, 0, 67, 67
1, 370349, Note_off_c, 0, 67, 63
1, 370375, Note_on_c, 0, 66, 68
1, 370407, Note_off_c, 0, 66, 65
1, 370434, Note_on_c, 0, 65, 69
1, 370464, Note_off_c, 0, 65, 67
1, 370503, Note_on_c, 0, 64, 71
1, 370529, Note_off_c, 0, 64, 68
1, 370566, Control_c, 0, 67, 126
1, 370581, Control_c, 0, 67, 117
1, 370595, Control_c, 0, 67, 109
1, 370610, Control_c, 0, 67, 102
1, 370625, Control_c, 0, 67, 97
1, 370640, Control_c, 0, 67, 93
1, 370654, Control_c, 0, 67, 91
1, 370669, Control_c, 0, 67, 89
1, 370684, Control_c, 0, 67, 88
1, 370699, Control_c, 0, 64, 13
1, 370699, Control_c, 0, 67, 87
1, 370714, Control_c, 0, 64, 20
1, 370714, Control_c, 0, 67, 86
1, 370728, Control_c, 0, 64, 23
1, 370728, Control_c, 0, 67, 86
1, 370743, Control_c, 0, 64, 25
1, 370743, Control_c, 0, 67, 85
1, 370758, Control_c, 0, 64, 27
1, 370773, Control_c, 0, 64, 29
1, 370788, Control_c, 0, 64, 30
1, 370802, Control_c, 0, 64, 32
1, 370817, Control_c, 0, 64, 32
1, 370832, Control_c, 0, 67, 85
1, 370847, Control_c, 0, 64, 32
1, 370847, Control_c, 0, 67, 84
1, 370862, Control_c, 0, 64, 31
1, 370876, Control_c, 0, 64, 29
1, 370876, Control_c, 0, 67, 84
1, 370891, Control_c, 0, 64, 29
1, 370891, Control_c, 0, 67, 83
1, 370906, Control_c, 0, 64, 28
1, 370906, Control_c, 0, 67, 79
1, 370909, Note_on_c, 0, 70, 70
1, 370921, Control_c, 0, 64, 27
1, 370921, Control_c, 0, 67, 75
1, 370923, Note_on_c, 0, 67, 44
1, 370936, Note_on_c, 0, 63, 48
1, 370936, Note_off_c, 0, 70, 66
1, 370936, Control_c, 0, 64, 26
1, 370936, Control_c, 0, 67, 73
1, 370947, Note_off_c, 0, 67, 56
1, 370951, Control_c, 0, 67, 70
1, 370966, Control_c, 0, 64, 24
1, 370966, Control_c, 0, 67, 68
1, 370966, Note_off_c, 0, 63, 57
1, 370981, Control_c, 0, 64, 23
1, 370981, Control_c, 0, 67, 66
1, 370995, Control_c, 0, 67, 64
1, 371010, Control_c, 0, 64, 21
1, 371010, Control_c, 0, 67, 62
1, 371025, Control_c, 0, 64, 20
1, 371025, Control_c, 0, 67, 61
1, 371034, Note_on_c, 0, 64, 43
1, 371039, Control_c, 0, 64, 18
1, 371039, Control_c, 0, 67, 60
1, 371054, Control_c, 0, 67, 59
1, 371069, Control_c, 0, 64, 17
1, 371069, Control_c, 0, 67, 58
1, 371070, Note_off_c, 0, 64, 55
1, 371084, Control_c, 0, 67, 57
1, 371099, Control_c, 0, 67, 57
1, 371113, Control_c, 0, 67, 56
1, 371128, Control_c, 0, 64, 15
1, 371128, Control_c, 0, 67, 55
1, 371137, Note_on_c, 0, 61, 57
1, 371140, Note_on_c, 0, 70, 62
1, 371143, Control_c, 0, 67, 53
1, 371149, Note_on_c, 0, 67, 48
1, 371165, Control_c, 0, 64, 13
1, 371165, Control_c, 0, 67, 52
1, 371166, Note_off_c, 0, 70, 65
1, 371180, Note_off_c, 0, 67, 56
1, 371180, Control_c, 0, 67, 51
1, 371185, Note_off_c, 0, 61, 61
1, 371195, Control_c, 0, 64, 10
1, 371195, Control_c, 0, 67, 49
1, 371210, Control_c, 0, 67, 47
1, 371225, Control_c, 0, 67, 44
1, 371239, Note_on_c, 0, 70, 68
1, 371240, Note_on_c, 0, 63, 60
1, 371240, Control_c, 0, 67, 43
1, 371255, Control_c, 0, 67, 42
1, 371270, Control_c, 0, 64, 0
1, 371270, Control_c, 0, 67, 41
1, 371273, Note_on_c, 0, 67, 22
1, 371274, Note_off_c, 0, 63, 65
1, 371275, Note_off_c, 0, 70, 58
1, 371285, Control_c, 0, 67, 40
1, 371300, Control_c, 0, 67, 38
1, 371312, Note_off_c, 0, 67, 30
1, 371315, Control_c, 0, 67, 37
1, 371330, Control_c, 0, 67, 34
1, 371344, Control_c, 0, 67, 32
1, 371353, Note_on_c, 0, 75, 93
1, 371358, Note_on_c, 0, 66, 77
1, 371359, Control_c, 0, 67, 31
1, 371369, Note_on_c, 0, 59, 59
1, 371374, Control_c, 0, 64, 36
1, 371374, Control_c, 0, 67, 28
1, 371389, Control_c, 0, 64, 62
1, 371389, Control_c, 0, 67, 25
1, 371389, Note_off_c, 0, 66, 61
1, 371404, Control_c, 0, 64, 69
1, 371404, Control_c, 0, 67, 22
1, 371408, Note_off_c, 0, 59, 60
1, 371418, Control_c, 0, 64, 77
1, 371418, Control_c, 0, 67, 17
1, 371422, Note_off_c, 0, 75, 56
1, 371433, Control_c, 0, 64, 85
1, 371433, Control_c, 0, 67, 13
1, 371448, Control_c, 0, 64, 92
1, 371448, Control_c, 0, 67, 10
1, 371462, Note_on_c, 0, 61, 60
1, 371463, Control_c, 0, 64, 94
1, 371463, Control_c, 0, 67, 0
1, 371477, Control_c, 0, 64, 95
1, 371492, Control_c, 0, 64, 96
1, 371507, Control_c, 0, 64, 96
1, 371515, Note_off_c, 0, 61, 53
1, 371566, Control_c, 0, 64, 97
1, 371574, Note_on_c, 0, 57, 46
1, 371596, Control_c, 0, 64, 97
1, 371625, Control_c, 0, 64, 98
1, 371639, Note_off_c, 0, 57, 47
1, 371677, Note_on_c, 0, 59, 50
1, 371684, Control_c, 0, 64, 97
1, 371690, Note_on_c, 0, 75, 76
1, 371699, Control_c, 0, 64, 97
1, 371700, Note_on_c, 0, 66, 65
1, 371714, Control_c, 0, 64, 94
1, 371727, Note_off_c, 0, 66, 68
1, 371728, Note_off_c, 0, 59, 51
1, 371729, Control_c, 0, 64, 88
1, 371732, Note_off_c, 0, 75, 58
1, 371744, Control_c, 0, 64, 80
1, 371759, Control_c, 0, 64, 69
1, 371771, Note_on_c, 0, 55, 64
1, 371774, Control_c, 0, 64, 33
1, 371786, Note_on_c, 0, 73, 78
1, 371788, Control_c, 0, 64, 0
1, 371803, Note_on_c, 0, 64, 63
1, 371812, Note_off_c, 0, 55, 62
1, 371821, Note_off_c, 0, 64, 64
1, 371826, Note_off_c, 0, 73, 59
1, 371886, Note_on_c, 0, 61, 66
1, 371892, Note_on_c, 0, 70, 79
1, 371930, Note_off_c, 0, 70, 62
1, 371933, Note_off_c, 0, 61, 62
1, 371990, Note_on_c, 0, 71, 75
1, 371991, Note_on_c, 0, 56, 59
1, 371994, Note_on_c, 0, 63, 65
1, 372019, Note_off_c, 0, 71, 60
1, 372023, Note_off_c, 0, 63, 67
1, 372034, Note_off_c, 0, 56, 59
1, 372090, Note_on_c, 0, 68, 77
1, 372090, Note_on_c, 0, 59, 54
1, 372122, Note_off_c, 0, 68, 58
1, 372125, Note_off_c, 0, 59, 62
1, 372184, Note_on_c, 0, 51, 60
1, 372187, Note_on_c, 0, 67, 77
1, 372192, Note_on_c, 0, 70, 67
1, 372221, Note_off_c, 0, 70, 63
1, 372221, Note_off_c, 0, 67, 60
1, 372242, Note_off_c, 0, 51, 56
1, 372277, Note_on_c, 0, 63, 72
1, 372287, Note_on_c, 0, 58, 65
1, 372304, Note_off_c, 0, 63, 67
1, 372322, Note_off_c, 0, 58, 61
1, 372388, Control_c, 0, 64, 63
1, 372398, Note_on_c, 0, 63, 90
1, 372403, Control_c, 0, 64, 72
1, 372418, Control_c, 0, 64, 80
1, 372432, Control_c, 0, 64, 88
1, 372447, Control_c, 0, 64, 91
1, 372450, Note_off_c, 0, 63, 63
1, 372462, Control_c, 0, 64, 91
1, 372492, Control_c, 0, 64, 92
1, 372507, Control_c, 0, 64, 92
1, 372522, Control_c, 0, 64, 93
1, 372566, Control_c, 0, 64, 92
1, 372581, Control_c, 0, 64, 91
1, 372596, Control_c, 0, 64, 86
1, 372610, Control_c, 0, 64, 77
1, 372625, Control_c, 0, 64, 63
1, 372629, Note_on_c, 0, 67, 82
1, 372629, Note_on_c, 0, 70, 76
1, 372637, Note_on_c, 0, 63, 58
1, 372640, Control_c, 0, 64, 0
1, 372645, Note_off_c, 0, 67, 65
1, 372653, Note_off_c, 0, 70, 69
1, 372674, Note_off_c, 0, 63, 66
1, 372748, Note_on_c, 0, 64, 49
1, 372787, Note_off_c, 0, 64, 62
1, 372845, Note_on_c, 0, 70, 82
1, 372849, Note_on_c, 0, 61, 62
1, 372857, Note_on_c, 0, 67, 60
1, 372868, Note_off_c, 0, 70, 65
1, 372877, Note_off_c, 0, 67, 62
1, 372886, Note_off_c, 0, 61, 61
1, 372939, Note_on_c, 0, 63, 67
1, 372949, Note_on_c, 0, 70, 79
1, 372954, Note_on_c, 0, 67, 54
1, 372974, Note_off_c, 0, 67, 60
1, 372977, Note_off_c, 0, 63, 64
1, 372982, Note_off_c, 0, 70, 57
1, 373046, Note_on_c, 0, 75, 96
1, 373050, Note_on_c, 0, 66, 89
1, 373058, Note_on_c, 0, 59, 66
1, 373077, Note_off_c, 0, 66, 63
1, 373078, Control_c, 0, 64, 60
1, 373093, Control_c, 0, 64, 71
1, 373107, Control_c, 0, 64, 81
1, 373111, Note_off_c, 0, 59, 55
1, 373117, Note_off_c, 0, 75, 54
1, 373122, Control_c, 0, 64, 90
1, 373137, Control_c, 0, 64, 93
1, 373152, Control_c, 0, 64, 93
1, 373153, Note_on_c, 0, 61, 66
1, 373167, Control_c, 0, 64, 94
1, 373230, Note_off_c, 0, 61, 56
1, 373261, Note_on_c, 0, 57, 55
1, 373270, Control_c, 0, 64, 94
1, 373371, Note_on_c, 0, 59, 52
1, 373371, Note_off_c, 0, 57, 37
1, 373378, Note_on_c, 0, 75, 75
1, 373387, Note_on_c, 0, 66, 71
1, 373404, Control_c, 0, 64, 93
1, 373414, Note_off_c, 0, 59, 62
1, 373414, Note_off_c, 0, 75, 63
1, 373424, Note_off_c, 0, 66, 67
1, 373427, Control_c, 0, 64, 89
1, 373441, Control_c, 0, 64, 82
1, 373456, Control_c, 0, 64, 70
1, 373471, Control_c, 0, 64, 30
1, 373485, Note_on_c, 0, 73, 77
1, 373486, Control_c, 0, 64, 0
1, 373487, Note_on_c, 0, 56, 59
1, 373495, Note_on_c, 0, 64, 65
1, 373510, Note_off_c, 0, 73, 66
1, 373514, Note_off_c, 0, 64, 67
1, 373525, Note_off_c, 0, 56, 63
1, 373577, Note_on_c, 0, 71, 78
1, 373621, Note_off_c, 0, 71, 61
1, 373622, Note_on_c, 0, 61, 48
1, 373649, Note_off_c, 0, 61, 60
1, 373680, Note_on_c, 0, 70, 77
1, 373684, Note_on_c, 0, 51, 53
1, 373685, Note_on_c, 0, 67, 70
1, 373711, Note_off_c, 0, 70, 60
1, 373713, Note_off_c, 0, 67, 67
1, 373735, Note_off_c, 0, 51, 60
1, 373747, Note_on_c, 0, 61, 51
1, 373774, Note_on_c, 0, 55, 53
1, 373780, Note_on_c, 0, 63, 65
1, 373780, Note_off_c, 0, 61, 64
1, 373798, Note_off_c, 0, 55, 60
1, 373810, Note_off_c, 0, 63, 67
1, 373870, Note_on_c, 0, 68, 78
1, 373872, Note_on_c, 0, 59, 60
1, 373872, Note_on_c, 0, 56, 62
1, 373881, Note_on_c, 0, 63, 66
1, 373892, Note_off_c, 0, 59, 61
1, 373894, Note_off_c, 0, 68, 69
1, 373899, Note_off_c, 0, 63, 65
1, 373901, Note_off_c, 0, 56, 65
1, 373968, Note_on_c, 0, 63, 73
1, 373971, Note_on_c, 0, 59, 48
1, 373993, Note_off_c, 0, 63, 69
1, 373994, Note_off_c, 0, 59, 57
1, 374069, Note_on_c, 0, 68, 87
1, 374070, Note_on_c, 0, 63, 67
1, 374075, Note_on_c, 0, 59, 53
1, 374084, Note_on_c, 0, 56, 52
1, 374089, Note_off_c, 0, 63, 64
1, 374091, Note_off_c, 0, 68, 69
1, 374109, Control_c, 0, 64, 74
1, 374112, Note_off_c, 0, 59, 61
1, 374124, Control_c, 0, 64, 93
1, 374134, Note_off_c, 0, 56, 55
1, 374138, Control_c, 0, 64, 104
1, 374161, Control_c, 0, 64, 105
1, 374176, Control_c, 0, 64, 106
1, 374190, Control_c, 0, 64, 107
1, 374205, Control_c, 0, 64, 108
1, 374250, Control_c, 0, 64, 105
1, 374264, Control_c, 0, 64, 98
1, 374279, Control_c, 0, 64, 87
1, 374288, Note_on_c, 0, 82, 93
1, 374291, Note_on_c, 0, 70, 89
1, 374294, Control_c, 0, 64, 73
1, 374296, Note_on_c, 0, 75, 76
1, 374298, Note_on_c, 0, 63, 71
1, 374301, Note_on_c, 0, 51, 70
1, 374309, Control_c, 0, 64, 18
1, 374313, Note_off_c, 0, 70, 67
1, 374315, Note_on_c, 0, 79, 50
1, 374322, Note_off_c, 0, 51, 64
1, 374324, Control_c, 0, 64, 0
1, 374327, Note_off_c, 0, 63, 66
1, 374328, Note_off_c, 0, 75, 63
1, 374336, Note_off_c, 0, 79, 60
1, 374337, Note_off_c, 0, 82, 59
1, 374394, Note_on_c, 0, 64, 73
1, 374395, Note_on_c, 0, 52, 75
1, 374418, Note_off_c, 0, 64, 69
1, 374422, Note_off_c, 0, 52, 69
1, 374503, Note_on_c, 0, 61, 80
1, 374509, Note_on_c, 0, 49, 76
1, 374513, Note_on_c, 0, 70, 76
1, 374514, Note_on_c, 0, 75, 75
1, 374521, Note_on_c, 0, 79, 68
1, 374523, Note_on_c, 0, 82, 60
1, 374528, Note_off_c, 0, 49, 66
1, 374529, Note_off_c, 0, 61, 66
1, 374536, Note_off_c, 0, 70, 70
1, 374541, Note_off_c, 0, 75, 66
1, 374541, Note_off_c, 0, 82, 65
1, 374549, Note_off_c, 0, 79, 65
1, 374608, Note_on_c, 0, 51, 77
1, 374608, Note_on_c, 0, 63, 73
1, 374609, Note_on_c, 0, 82, 79
1, 374616, Note_on_c, 0, 75, 63
1, 374624, Note_on_c, 0, 70, 49
1, 374631, Note_off_c, 0, 63, 66
1, 374633, Note_off_c, 0, 82, 67
1, 374639, Note_off_c, 0, 51, 64
1, 374644, Note_off_c, 0, 75, 66
1, 374649, Note_off_c, 0, 70, 37
1, 374710, Control_c, 0, 64, 60
1, 374710, Note_on_c, 0, 47, 82
1, 374710, Note_on_c, 0, 75, 104
1, 374712, Note_on_c, 0, 59, 73
1, 374712, Note_on_c, 0, 78, 95
1, 374712, Note_on_c, 0, 87, 100
1, 374725, Control_c, 0, 64, 71
1, 374735, Note_off_c, 0, 47, 67
1, 374736, Note_off_c, 0, 59, 66
1, 374740, Control_c, 0, 64, 81
1, 374755, Control_c, 0, 64, 89
1, 374758, Note_off_c, 0, 75, 57
1, 374769, Control_c, 0, 64, 91
1, 374779, Note_off_c, 0, 87, 59
1, 374808, Note_on_c, 0, 49, 80
1, 374811, Note_on_c, 0, 61, 81
1, 374828, Control_c, 0, 64, 91
1, 374835, Note_off_c, 0, 61, 69
1, 374846, Note_off_c, 0, 49, 60
1, 374861, Note_off_c, 0, 78, 55
1, 374925, Control_c, 0, 64, 92
1, 374929, Note_on_c, 0, 57, 69
1, 374930, Note_on_c, 0, 45, 74
1, 374951, Note_off_c, 0, 45, 65
1, 374955, Note_off_c, 0, 57, 63
1, 374969, Control_c, 0, 64, 91
1, 374999, Control_c, 0, 64, 90
1, 375013, Control_c, 0, 64, 86
1, 375027, Note_on_c, 0, 59, 82
1, 375028, Note_on_c, 0, 47, 81
1, 375028, Control_c, 0, 64, 80
1, 375042, Note_on_c, 0, 87, 84
1, 375043, Control_c, 0, 64, 70
1, 375044, Note_on_c, 0, 78, 88
1, 375046, Note_off_c, 0, 59, 71
1, 375050, Note_on_c, 0, 75, 72
1, 375058, Control_c, 0, 64, 45
1, 375059, Note_off_c, 0, 47, 66
1, 375064, Note_off_c, 0, 87, 66
1, 375068, Note_off_c, 0, 75, 70
1, 375068, Note_off_c, 0, 78, 64
1, 375073, Control_c, 0, 64, 0
1, 375136, Note_on_c, 0, 55, 84
1, 375139, Note_on_c, 0, 43, 83
1, 375156, Note_on_c, 0, 75, 50
1, 375157, Note_off_c, 0, 75, 127
1, 375165, Note_on_c, 0, 76, 60
1, 375166, Note_on_c, 0, 73, 60
1, 375169, Note_on_c, 0, 82, 48
1, 375174, Note_off_c, 0, 55, 60
1, 375178, Note_on_c, 0, 84, 45
1, 375180, Note_off_c, 0, 43, 60
1, 375183, Note_off_c, 0, 76, 64
1, 375187, Note_off_c, 0, 73, 45
1, 375194, Note_off_c, 0, 82, 37
1, 375206, Note_off_c, 0, 84, 37
1, 375252, Note_on_c, 0, 82, 87
1, 375253, Note_on_c, 0, 70, 78
1, 375270, Note_off_c, 0, 82, 73
1, 375274, Note_off_c, 0, 70, 70
1, 375342, Note_on_c, 0, 75, 81
1, 375342, Note_on_c, 0, 83, 86
1, 375349, Note_on_c, 0, 71, 77
1, 375358, Note_on_c, 0, 44, 68
1, 375358, Note_on_c, 0, 56, 70
1, 375360, Note_off_c, 0, 83, 68
1, 375372, Note_off_c, 0, 71, 69
1, 375372, Note_off_c, 0, 75, 66
1, 375386, Note_off_c, 0, 56, 65
1, 375401, Note_off_c, 0, 44, 62
1, 375440, Note_on_c, 0, 80, 85
1, 375448, Note_on_c, 0, 68, 81
1, 375465, Note_off_c, 0, 80, 63
1, 375470, Note_off_c, 0, 68, 71
1, 375539, Note_on_c, 0, 39, 70
1, 375541, Note_on_c, 0, 82, 84
1, 375542, Note_on_c, 0, 51, 69
1, 375545, Note_on_c, 0, 70, 87
1, 375558, Note_off_c, 0, 82, 72
1, 375564, Note_off_c, 0, 70, 72
1, 375572, Note_off_c, 0, 39, 64
1, 375574, Note_off_c, 0, 51, 64
1, 375639, Note_on_c, 0, 63, 98
1, 375641, Note_on_c, 0, 75, 85
1, 375643, Note_on_c, 0, 53, 75
1, 375668, Note_off_c, 0, 63, 65
1, 375669, Note_off_c, 0, 75, 71
1, 375673, Note_off_c, 0, 53, 67
1, 375743, Note_on_c, 0, 75, 97
1, 375744, Note_on_c, 0, 63, 92
1, 375747, Control_c, 0, 64, 55
1, 375755, Note_on_c, 0, 46, 82
1, 375760, Note_on_c, 0, 58, 74
1, 375762, Note_off_c, 0, 63, 73
1, 375762, Control_c, 0, 64, 71
1, 375774, Note_on_c, 0, 56, 47
1, 375777, Control_c, 0, 64, 84
1, 375780, Note_off_c, 0, 46, 65
1, 375784, Note_off_c, 0, 58, 68
1, 375788, Note_off_c, 0, 75, 60
1, 375792, Control_c, 0, 64, 94
1, 375798, Note_off_c, 0, 56, 57
1, 375807, Control_c, 0, 64, 95
1, 375863, Note_on_c, 0, 62, 85
1, 375876, Note_on_c, 0, 50, 62
1, 375881, Control_c, 0, 64, 94
1, 375882, Note_on_c, 0, 80, 46
1, 375886, Note_off_c, 0, 62, 68
1, 375896, Control_c, 0, 64, 92
1, 375899, Note_off_c, 0, 50, 59
1, 375904, Note_off_c, 0, 80, 59
1, 375910, Control_c, 0, 64, 85
1, 375925, Control_c, 0, 64, 75
1, 375940, Control_c, 0, 64, 56
1, 375953, Note_on_c, 0, 63, 95
1, 375953, Note_on_c, 0, 82, 94
1, 375954, Note_on_c, 0, 70, 92
1, 375954, Control_c, 0, 64, 0
1, 375956, Note_on_c, 0, 51, 85
1, 375959, Note_on_c, 0, 75, 79
1, 375959, Note_on_c, 0, 79, 76
1, 375977, Note_off_c, 0, 70, 62
1, 375985, Note_off_c, 0, 51, 65
1, 375989, Note_off_c, 0, 79, 62
1, 375991, Note_off_c, 0, 75, 64
1, 375994, Note_off_c, 0, 63, 62
1, 375996, Note_off_c, 0, 82, 61
1, 376059, Note_on_c, 0, 64, 82
1, 376067, Note_on_c, 0, 52, 76
1, 376081, Note_off_c, 0, 64, 69
1, 376093, Note_off_c, 0, 52, 70
1, 376163, Note_on_c, 0, 70, 85
1, 376164, Note_on_c, 0, 61, 86
1, 376168, Note_on_c, 0, 49, 87
1, 376171, Note_on_c, 0, 75, 70
1, 376171, Note_on_c, 0, 82, 66
1, 376179, Note_on_c, 0, 79, 58
1, 376182, Note_off_c, 0, 70, 72
1, 376187, Note_off_c, 0, 61, 67
1, 376188, Note_off_c, 0, 75, 66
1, 376188, Note_off_c, 0, 82, 65
1, 376191, Note_off_c, 0, 49, 68
1, 376199, Note_off_c, 0, 79, 61
1, 376255, Note_on_c, 0, 70, 77
1, 376256, Note_on_c, 0, 75, 78
1, 376257, Note_on_c, 0, 82, 79
1, 376266, Note_on_c, 0, 51, 80
1, 376266, Note_on_c, 0, 63, 76
1, 376276, Note_off_c, 0, 70, 70
1, 376282, Note_off_c, 0, 75, 66
1, 376287, Note_off_c, 0, 82, 63
1, 376289, Note_off_c, 0, 63, 70
1, 376293, Note_off_c, 0, 51, 65
1, 376355, Control_c, 0, 64, 55
1, 376363, Note_on_c, 0, 75, 101
1, 376363, Note_on_c, 0, 87, 103
1, 376364, Note_on_c, 0, 78, 95
1, 376366, Note_on_c, 0, 59, 81
1, 376367, Note_on_c, 0, 47, 88
1, 376370, Control_c, 0, 64, 72
1, 376378, Note_off_c, 0, 75, 72
1, 376379, Note_off_c, 0, 87, 65
1, 376385, Control_c, 0, 64, 86
1, 376385, Note_off_c, 0, 78, 63
1, 376386, Note_off_c, 0, 59, 69
1, 376388, Note_off_c, 0, 47, 67
1, 376400, Control_c, 0, 64, 103
1, 376422, Control_c, 0, 64, 112
1, 376437, Control_c, 0, 64, 115
1, 376452, Control_c, 0, 64, 123
1, 376466, Control_c, 0, 64, 127
1, 376470, Note_on_c, 0, 49, 88
1, 376470, Note_on_c, 0, 61, 84
1, 376490, Note_off_c, 0, 61, 71
1, 376497, Note_off_c, 0, 49, 63
1, 376582, Note_on_c, 0, 57, 81
1, 376582, Note_on_c, 0, 45, 80
1, 376601, Note_off_c, 0, 57, 70
1, 376609, Note_off_c, 0, 45, 67
1, 376644, Control_c, 0, 64, 113
1, 376659, Control_c, 0, 64, 90
1, 376674, Control_c, 0, 64, 66
1, 376681, Note_on_c, 0, 59, 79
1, 376683, Note_on_c, 0, 47, 80
1, 376689, Control_c, 0, 64, 0
1, 376701, Note_off_c, 0, 59, 69
1, 376715, Note_off_c, 0, 47, 66
1, 376781, Note_on_c, 0, 55, 88
1, 376785, Note_on_c, 0, 43, 85
1, 376792, Control_c, 0, 64, 68
1, 376794, Note_on_c, 0, 74, 95
1, 376794, Note_on_c, 0, 86, 94
1, 376794, Note_on_c, 0, 79, 89
1, 376795, Note_on_c, 0, 83, 83
1, 376807, Control_c, 0, 64, 83
1, 376813, Note_off_c, 0, 43, 64
1, 376819, Note_off_c, 0, 74, 63
1, 376820, Note_off_c, 0, 55, 65
1, 376822, Control_c, 0, 64, 82
1, 376832, Note_off_c, 0, 83, 55
1, 376832, Note_off_c, 0, 86, 66
1, 376837, Note_off_c, 0, 79, 61
1, 376838, Control_c, 0, 64, 78
1, 376853, Control_c, 0, 64, 59
1, 376868, Control_c, 0, 64, 0
1, 376892, Note_on_c, 0, 57, 78
1, 376897, Note_on_c, 0, 45, 79
1, 376916, Note_off_c, 0, 57, 68
1, 376928, Note_off_c, 0, 45, 66
1, 376998, Note_on_c, 0, 79, 85
1, 377003, Note_on_c, 0, 53, 86
1, 377003, Note_on_c, 0, 86, 77
1, 377005, Note_on_c, 0, 83, 70
1, 377005, Note_on_c, 0, 74, 71
1, 377006, Note_on_c, 0, 41, 83
1, 377023, Note_off_c, 0, 74, 70
1, 377023, Note_off_c, 0, 79, 62
1, 377023, Note_off_c, 0, 86, 71
1, 377029, Note_off_c, 0, 83, 67
1, 377030, Note_off_c, 0, 41, 69
1, 377031, Note_off_c, 0, 53, 67
1, 377093, Note_on_c, 0, 74, 73
1, 377093, Note_on_c, 0, 86, 82
1, 377102, Note_on_c, 0, 55, 80
1, 377113, Note_off_c, 0, 74, 72
1, 377119, Note_on_c, 0, 79, 41
1, 377122, Note_on_c, 0, 43, 53
1, 377126, Note_off_c, 0, 55, 68
1, 377130, Note_on_c, 0, 83, 28
1, 377131, Note_off_c, 0, 86, 66
1, 377149, Note_off_c, 0, 79, 34
1, 377159, Note_off_c, 0, 43, 54
1, 377172, Note_off_c, 0, 83, 34
1, 377202, Note_on_c, 0, 51, 93
1, 377204, Note_on_c, 0, 79, 108
1, 377205, Note_on_c, 0, 39, 95
1, 377205, Note_on_c, 0, 82, 96
1, 377205, Note_on_c, 0, 91, 102
1, 377207, Note_on_c, 0, 87, 93
1, 377215, Control_c, 0, 64, 40
1, 377218, Note_off_c, 0, 79, 73
1, 377219, Note_off_c, 0, 91, 69
1, 377227, Note_off_c, 0, 82, 63
1, 377230, Control_c, 0, 64, 103
1, 377232, Note_off_c, 0, 87, 62
1, 377233, Note_off_c, 0, 39, 67
1, 377240, Note_off_c, 0, 51, 64
1, 377245, Control_c, 0, 64, 127
1, 377302, Note_on_c, 0, 53, 88
1, 377311, Note_on_c, 0, 41, 74
1, 377324, Note_off_c, 0, 53, 71
1, 377340, Note_off_c, 0, 41, 67
1, 377378, Control_c, 0, 64, 101
1, 377393, Control_c, 0, 64, 79
1, 377408, Control_c, 0, 64, 0
1, 377411, Note_on_c, 0, 49, 94
1, 377413, Note_on_c, 0, 37, 84
1, 377437, Note_off_c, 0, 37, 70
1, 377442, Note_off_c, 0, 49, 65
1, 377484, Note_on_c, 0, 84, 54
1, 377485, Note_off_c, 0, 84, 127
1, 377509, Poly_aftertouch_c, 0, 84, 0
1, 377516, Note_on_c, 0, 51, 84
1, 377517, Note_on_c, 0, 39, 83
1, 377553, Note_off_c, 0, 51, 64
1, 377555, Note_off_c, 0, 39, 63
1, 377625, Note_on_c, 0, 36, 88
1, 377634, Note_on_c, 0, 91, 99
1, 377635, Note_on_c, 0, 79, 94
1, 377637, Note_on_c, 0, 84, 85
1, 377637, Note_on_c, 0, 88, 96
1, 377646, Control_c, 0, 64, 72
1, 377661, Control_c, 0, 64, 65
1, 377676, Control_c, 0, 64, 0
1, 377704, Note_off_c, 0, 79, 53
1, 377718, Note_off_c, 0, 91, 56
1, 377740, Note_off_c, 0, 84, 60
1, 377741, Note_on_c, 0, 48, 68
1, 377744, Note_off_c, 0, 88, 57
1, 377746, Note_off_c, 0, 36, 58
1, 377789, Note_off_c, 0, 48, 64
1, 377844, Note_on_c, 0, 35, 83
1, 377848, Note_on_c, 0, 84, 87
1, 377849, Note_on_c, 0, 88, 83
1, 377853, Note_on_c, 0, 91, 75
1, 377858, Note_on_c, 0, 79, 70
1, 377873, Note_off_c, 0, 88, 63
1, 377873, Note_off_c, 0, 91, 67
1, 377875, Note_off_c, 0, 79, 67
1, 377877, Note_off_c, 0, 84, 60
1, 377943, Note_off_c, 0, 35, 53
1, 377955, Note_on_c, 0, 79, 76
1, 377956, Note_on_c, 0, 47, 67
1, 377959, Note_on_c, 0, 91, 80
1, 377968, Note_on_c, 0, 84, 62
1, 377971, Note_on_c, 0, 88, 57
1, 377977, Note_off_c, 0, 79, 69
1, 377990, Note_off_c, 0, 88, 58
1, 377996, Note_off_c, 0, 91, 62
1, 377997, Note_off_c, 0, 84, 68
1, 378002, Note_off_c, 0, 47, 64
1, 378057, Note_on_c, 0, 88, 97
1, 378057, Note_on_c, 0, 84, 100
1, 378057, Note_on_c, 0, 96, 106
1, 378061, Note_on_c, 0, 33, 88
1, 378068, Control_c, 0, 64, 54
1, 378069, Note_on_c, 0, 91, 66
1, 378074, Note_off_c, 0, 84, 71
1, 378080, Note_off_c, 0, 88, 64
1, 378082, Note_off_c, 0, 96, 59
1, 378083, Control_c, 0, 64, 102
1, 378087, Note_off_c, 0, 91, 64
1, 378098, Control_c, 0, 64, 127
1, 378157, Control_c, 0, 64, 119
1, 378159, Note_off_c, 0, 33, 62
1, 378169, Note_on_c, 0, 45, 75
1, 378169, Poly_aftertouch_c, 0, 34, 0
1, 378172, Control_c, 0, 64, 95
1, 378186, Control_c, 0, 64, 69
1, 378201, Control_c, 0, 64, 0
1, 378218, Note_off_c, 0, 45, 64
1, 378263, Note_on_c, 0, 31, 94
1, 378290, Control_c, 0, 64, 62
1, 378305, Control_c, 0, 64, 87
1, 378320, Control_c, 0, 64, 90
1, 378335, Control_c, 0, 64, 79
1, 378350, Control_c, 0, 64, 0
1, 378367, Note_off_c, 0, 31, 58
1, 378367, Poly_aftertouch_c, 0, 32, 0
1, 378375, Note_on_c, 0, 43, 70
1, 378426, Note_off_c, 0, 43, 61
1, 378469, Control_c, 0, 64, 66
1, 378479, Note_on_c, 0, 36, 92
1, 378484, Control_c, 0, 64, 95
1, 378488, Note_on_c, 0, 67, 101
1, 378488, Note_on_c, 0, 72, 95
1, 378488, Note_on_c, 0, 76, 88
1, 378490, Note_on_c, 0, 79, 89
1, 378499, Control_c, 0, 64, 127
1, 378543, Control_c, 0, 64, 108
1, 378558, Control_c, 0, 64, 85
1, 378573, Control_c, 0, 64, 40
1, 378578, Note_off_c, 0, 67, 59
1, 378582, Note_off_c, 0, 36, 60
1, 378587, Note_off_c, 0, 72, 60
1, 378587, Note_off_c, 0, 79, 61
1, 378588, Control_c, 0, 64, 0
1, 378593, Note_on_c, 0, 48, 68
1, 378597, Note_off_c, 0, 76, 63
1, 378657, Note_off_c, 0, 48, 63
1, 378683, Control_c, 0, 64, 23
1, 378697, Note_on_c, 0, 67, 83
1, 378698, Note_on_c, 0, 72, 80
1, 378698, Control_c, 0, 64, 82
1, 378699, Note_on_c, 0, 38, 85
1, 378700, Note_on_c, 0, 76, 77
1, 378702, Note_on_c, 0, 79, 75
1, 378713, Control_c, 0, 64, 95
1, 378717, Note_off_c, 0, 67, 70
1, 378720, Note_off_c, 0, 72, 69
1, 378722, Note_off_c, 0, 76, 70
1, 378727, Note_off_c, 0, 79, 66
1, 378728, Control_c, 0, 64, 94
1, 378743, Control_c, 0, 64, 80
1, 378758, Control_c, 0, 64, 59
1, 378773, Control_c, 0, 64, 0
1, 378791, Note_off_c, 0, 38, 54
1, 378794, Note_on_c, 0, 50, 74
1, 378798, Note_on_c, 0, 72, 82
1, 378799, Note_on_c, 0, 67, 77
1, 378806, Note_on_c, 0, 79, 68
1, 378818, Note_off_c, 0, 72, 73
1, 378822, Note_off_c, 0, 67, 69
1, 378832, Note_off_c, 0, 79, 65
1, 378852, Note_off_c, 0, 50, 62
1, 378893, Note_on_c, 0, 40, 93
1, 378894, Note_on_c, 0, 84, 104
1, 378895, Note_on_c, 0, 72, 103
1, 378895, Note_on_c, 0, 76, 80
1, 378899, Note_on_c, 0, 79, 83
1, 378906, Control_c, 0, 64, 57
1, 378910, Note_off_c, 0, 72, 72
1, 378919, Note_off_c, 0, 79, 69
1, 378921, Control_c, 0, 64, 107
1, 378928, Note_off_c, 0, 76, 67
1, 378931, Note_off_c, 0, 84, 63
1, 378935, Control_c, 0, 64, 127
1, 379006, Note_on_c, 0, 52, 95
1, 379056, Note_off_c, 0, 52, 66
1, 379099, Note_off_c, 0, 40, 21
1, 379172, Control_c, 0, 64, 107
1, 379187, Control_c, 0, 64, 90
1, 379202, Control_c, 0, 64, 74
1, 379217, Control_c, 0, 64, 0
1, 379271, Note_on_c, 0, 48, 93
1, 379281, Note_on_c, 0, 36, 73
1, 379292, Control_c, 0, 64, 68
1, 379297, Note_off_c, 0, 48, 68
1, 379298, Note_on_c, 0, 79, 90
1, 379298, Note_on_c, 0, 84, 90
1, 379298, Note_on_c, 0, 91, 92
1, 379300, Note_on_c, 0, 88, 90
1, 379303, Note_off_c, 0, 36, 65
1, 379307, Control_c, 0, 64, 78
1, 379322, Control_c, 0, 64, 90
1, 379336, Control_c, 0, 64, 96
1, 379351, Control_c, 0, 64, 97
1, 379360, Note_off_c, 0, 79, 53
1, 379370, Note_off_c, 0, 91, 57
1, 379380, Note_on_c, 0, 60, 84
1, 379387, Note_on_c, 0, 48, 72
1, 379397, Note_off_c, 0, 84, 61
1, 379408, Note_off_c, 0, 88, 62
1, 379409, Note_off_c, 0, 60, 69
1, 379410, Note_off_c, 0, 48, 71
1, 379414, Note_on_c, 0, 47, 51
1, 379441, Note_off_c, 0, 47, 59
1, 379482, Note_on_c, 0, 88, 79
1, 379484, Note_on_c, 0, 84, 82
1, 379484, Note_on_c, 0, 91, 87
1, 379488, Note_on_c, 0, 79, 75
1, 379492, Note_on_c, 0, 47, 103
1, 379494, Note_on_c, 0, 35, 91
1, 379505, Note_off_c, 0, 91, 63
1, 379511, Note_off_c, 0, 79, 69
1, 379514, Note_off_c, 0, 47, 71
1, 379515, Note_off_c, 0, 84, 63
1, 379516, Note_off_c, 0, 88, 60
1, 379519, Note_off_c, 0, 35, 65
1, 379575, Poly_aftertouch_c, 0, 37, 0
1, 379588, Note_on_c, 0, 84, 83
1, 379593, Note_on_c, 0, 79, 77
1, 379595, Note_on_c, 0, 91, 78
1, 379596, Note_on_c, 0, 47, 91
1, 379600, Note_on_c, 0, 59, 77
1, 379605, Note_on_c, 0, 88, 53
1, 379608, Note_off_c, 0, 79, 67
1, 379609, Note_off_c, 0, 84, 69
1, 379610, Poly_aftertouch_c, 0, 37, 0
1, 379614, Note_off_c, 0, 59, 67
1, 379616, Note_off_c, 0, 91, 61
1, 379624, Control_c, 0, 64, 93
1, 379625, Note_off_c, 0, 47, 68
1, 379628, Note_off_c, 0, 88, 37
1, 379639, Control_c, 0, 64, 84
1, 379654, Control_c, 0, 64, 71
1, 379669, Control_c, 0, 64, 25
1, 379683, Control_c, 0, 64, 46
1, 379687, Note_on_c, 0, 88, 94
1, 379691, Note_on_c, 0, 84, 90
1, 379691, Note_on_c, 0, 96, 91
1, 379693, Note_on_c, 0, 47, 98
1, 379698, Control_c, 0, 64, 65
1, 379699, Note_on_c, 0, 35, 76
1, 379707, Note_on_c, 0, 91, 64
1, 379707, Note_off_c, 0, 96, 70
1, 379713, Note_off_c, 0, 84, 61
1, 379713, Control_c, 0, 64, 74
1, 379714, Note_off_c, 0, 47, 71
1, 379717, Note_off_c, 0, 88, 62
1, 379721, Note_off_c, 0, 35, 65
1, 379721, Note_on_c, 0, 37, 37
1, 379722, Note_off_c, 0, 37, 127
1, 379725, Note_off_c, 0, 91, 44
1, 379728, Control_c, 0, 64, 85
1, 379733, Note_on_c, 0, 34, 20
1, 379734, Note_off_c, 0, 34, 127
1, 379736, Note_on_c, 0, 33, 19
1, 379737, Note_off_c, 0, 33, 127
1, 379743, Control_c, 0, 64, 90
1, 379757, Poly_aftertouch_c, 0, 37, 0
1, 379757, Control_c, 0, 64, 91
1, 379775, Poly_aftertouch_c, 0, 34, 0
1, 379776, Poly_aftertouch_c, 0, 33, 0
1, 379796, Note_on_c, 0, 57, 77
1, 379797, Note_on_c, 0, 45, 82
1, 379818, Note_off_c, 0, 57, 68
1, 379820, Note_off_c, 0, 45, 67
1, 379891, Control_c, 0, 64, 91
1, 379895, Note_on_c, 0, 43, 101
1, 379902, Note_on_c, 0, 31, 85
1, 379906, Control_c, 0, 64, 90
1, 379920, Note_off_c, 0, 43, 66
1, 379920, Control_c, 0, 64, 88
1, 379924, Note_off_c, 0, 31, 62
1, 379925, Note_on_c, 0, 33, 34
1, 379935, Control_c, 0, 64, 84
1, 379950, Control_c, 0, 64, 80
1, 379965, Control_c, 0, 64, 78
1, 379966, Note_off_c, 0, 33, 56
1, 379980, Control_c, 0, 64, 77
1, 380002, Note_on_c, 0, 55, 90
1, 380004, Poly_aftertouch_c, 0, 32, 0
1, 380005, Note_on_c, 0, 43, 84
1, 380009, Control_c, 0, 64, 76
1, 380022, Note_off_c, 0, 55, 72
1, 380025, Control_c, 0, 64, 73
1, 380030, Note_off_c, 0, 43, 66
1, 380040, Control_c, 0, 64, 63
1, 380055, Control_c, 0, 64, 0
1, 380108, Note_on_c, 0, 48, 91
1, 380113, Note_on_c, 0, 36, 81
1, 380115, Note_on_c, 0, 67, 101
1, 380116, Note_on_c, 0, 79, 95
1, 380118, Note_on_c, 0, 76, 87
1, 380120, Note_on_c, 0, 72, 87
1, 380128, Note_off_c, 0, 48, 72
1, 380134, Note_off_c, 0, 36, 69
1, 380144, Control_c, 0, 64, 65
1, 380167, Control_c, 0, 64, 78
1, 380181, Control_c, 0, 64, 90
1, 380196, Control_c, 0, 64, 95
1, 380211, Control_c, 0, 64, 95
1, 380222, Note_on_c, 0, 48, 85
1, 380222, Poly_aftertouch_c, 0, 37, 0
1, 380223, Note_on_c, 0, 60, 88
1, 380241, Note_off_c, 0, 60, 72
1, 380246, Note_off_c, 0, 48, 62
1, 380246, Note_off_c, 0, 67, 55
1, 380250, Note_off_c, 0, 79, 55
1, 380255, Control_c, 0, 64, 95
1, 380270, Control_c, 0, 64, 92
1, 380285, Control_c, 0, 64, 83
1, 380287, Note_off_c, 0, 72, 61
1, 380289, Note_off_c, 0, 76, 64
1, 380300, Control_c, 0, 64, 68
1, 380314, Control_c, 0, 64, 0
1, 380327, Note_on_c, 0, 52, 99
1, 380331, Note_on_c, 0, 40, 89
1, 380344, Note_on_c, 0, 72, 77
1, 380347, Note_on_c, 0, 67, 86
1, 380347, Note_on_c, 0, 76, 76
1, 380352, Note_on_c, 0, 79, 78
1, 380352, Note_off_c, 0, 52, 68
1, 380354, Note_off_c, 0, 40, 67
1, 380372, Note_off_c, 0, 67, 66
1, 380374, Control_c, 0, 64, 64
1, 380379, Note_off_c, 0, 79, 63
1, 380383, Note_off_c, 0, 72, 67
1, 380386, Note_off_c, 0, 76, 68
1, 380388, Control_c, 0, 64, 71
1, 380403, Control_c, 0, 64, 74
1, 380418, Control_c, 0, 64, 73
1, 380433, Control_c, 0, 64, 67
1, 380434, Note_on_c, 0, 62, 91
1, 380435, Note_on_c, 0, 50, 85
1, 380448, Control_c, 0, 64, 49
1, 380452, Note_off_c, 0, 62, 71
1, 380453, Note_on_c, 0, 67, 82
1, 380457, Note_on_c, 0, 72, 68
1, 380457, Note_on_c, 0, 79, 74
1, 380459, Note_off_c, 0, 50, 68
1, 380462, Note_on_c, 0, 76, 56
1, 380463, Control_c, 0, 64, 0
1, 380478, Note_off_c, 0, 67, 66
1, 380479, Note_off_c, 0, 76, 64
1, 380481, Note_off_c, 0, 79, 67
1, 380481, Note_off_c, 0, 72, 69
1, 380507, Control_c, 0, 64, 31
1, 380522, Control_c, 0, 64, 65
1, 380535, Note_on_c, 0, 52, 110
1, 380537, Control_c, 0, 64, 75
1, 380542, Note_on_c, 0, 40, 85
1, 380542, Note_on_c, 0, 76, 96
1, 380543, Note_on_c, 0, 84, 102
1, 380544, Note_on_c, 0, 72, 105
1, 380551, Control_c, 0, 64, 86
1, 380552, Note_on_c, 0, 79, 76
1, 380555, Note_off_c, 0, 72, 78
1, 380562, Note_off_c, 0, 76, 68
1, 380563, Note_off_c, 0, 40, 66
1, 380566, Control_c, 0, 64, 93
1, 380567, Note_off_c, 0, 52, 65
1, 380567, Note_off_c, 0, 79, 68
1, 380579, Note_off_c, 0, 84, 60
1, 380581, Control_c, 0, 64, 94
1, 380596, Control_c, 0, 64, 95
1, 380620, Poly_aftertouch_c, 0, 41, 127
1, 380647, Poly_aftertouch_c, 0, 41, 0
1, 380657, Note_on_c, 0, 64, 104
1, 380660, Note_on_c, 0, 52, 96
1, 380670, Control_c, 0, 64, 95
1, 380681, Note_off_c, 0, 64, 66
1, 380685, Control_c, 0, 64, 96
1, 380703, Note_off_c, 0, 52, 64
1, 380714, Control_c, 0, 64, 96
1, 380816, Note_on_c, 0, 94, 44
1, 380834, Control_c, 0, 64, 93
1, 380848, Control_c, 0, 64, 85
1, 380852, Note_off_c, 0, 94, 57
1, 380863, Control_c, 0, 64, 70
1, 380878, Control_c, 0, 64, 0
1, 380994, Note_on_c, 0, 33, 91
1, 381002, Note_on_c, 0, 97, 121
1, 381005, Note_on_c, 0, 85, 100
1, 381007, Note_on_c, 0, 93, 95
1, 381019, Control_c, 0, 64, 84
1, 381034, Control_c, 0, 64, 100
1, 381044, Note_on_c, 0, 34, 15
1, 381049, Control_c, 0, 64, 101
1, 381054, Note_off_c, 0, 85, 59
1, 381062, Note_off_c, 0, 33, 59
1, 381063, Control_c, 0, 64, 94
1, 381075, Note_off_c, 0, 93, 0
1, 381078, Control_c, 0, 64, 86
1, 381093, Control_c, 0, 64, 69
1, 381094, Note_off_c, 0, 34, 28
1, 381102, Note_on_c, 0, 45, 66
1, 381107, Note_off_c, 0, 97, 61
1, 381108, Control_c, 0, 64, 0
1, 381113, Poly_aftertouch_c, 0, 93, 127
1, 381134, Poly_aftertouch_c, 0, 93, 0
1, 381152, Note_off_c, 0, 45, 63
1, 381203, Note_on_c, 0, 32, 82
1, 381203, Note_on_c, 0, 97, 89
1, 381204, Note_on_c, 0, 93, 46
1, 381213, Note_on_c, 0, 85, 77
1, 381235, Note_off_c, 0, 85, 69
1, 381252, Note_off_c, 0, 97, 64
1, 381259, Note_off_c, 0, 93, 60
1, 381273, Note_off_c, 0, 32, 60
1, 381308, Note_on_c, 0, 97, 75
1, 381314, Note_on_c, 0, 93, 59
1, 381315, Note_on_c, 0, 44, 64
1, 381316, Note_on_c, 0, 85, 69
1, 381336, Note_off_c, 0, 85, 71
1, 381351, Note_off_c, 0, 93, 59
1, 381354, Note_off_c, 0, 44, 63
1, 381360, Note_off_c, 0, 97, 65
1, 381410, Note_on_c, 0, 100, 105
1, 381411, Note_on_c, 0, 88, 113
1, 381411, Note_on_c, 0, 97, 86
1, 381412, Note_on_c, 0, 93, 96
1, 381419, Note_on_c, 0, 30, 99
1, 381433, Note_off_c, 0, 88, 61
1, 381434, Control_c, 0, 64, 73
1, 381444, Note_off_c, 0, 100, 62
1, 381447, Note_on_c, 0, 98, 30
1, 381448, Note_off_c, 0, 98, 127
1, 381448, Note_off_c, 0, 93, 62
1, 381448, Control_c, 0, 64, 127
1, 381451, Note_off_c, 0, 97, 65
1, 381505, Note_off_c, 0, 30, 63
1, 381534, Note_on_c, 0, 42, 67
1, 381574, Note_off_c, 0, 42, 64
1, 381581, Control_c, 0, 64, 125
1, 381596, Control_c, 0, 64, 94
1, 381611, Control_c, 0, 64, 70
1, 381627, Control_c, 0, 64, 0
1, 381633, Note_on_c, 0, 28, 94
1, 381715, Note_off_c, 0, 28, 57
1, 381750, Note_on_c, 0, 40, 71
1, 381798, Note_off_c, 0, 40, 64
1, 381849, Note_on_c, 0, 85, 103
1, 381852, Note_on_c, 0, 81, 88
1, 381852, Note_on_c, 0, 73, 96
1, 381857, Control_c, 0, 64, 58
1, 381858, Note_on_c, 0, 33, 87
1, 381872, Control_c, 0, 64, 127
1, 381900, Note_on_c, 0, 34, 23
1, 381903, Note_off_c, 0, 73, 60
1, 381945, Note_off_c, 0, 34, 36
1, 381948, Poly_aftertouch_c, 0, 75, 0
1, 381949, Note_off_c, 0, 85, 57
1, 381955, Note_off_c, 0, 33, 55
1, 381960, Control_c, 0, 64, 97
1, 381962, Note_on_c, 0, 45, 63
1, 381975, Control_c, 0, 64, 72
1, 381986, Note_off_c, 0, 81, 48
1, 381990, Control_c, 0, 64, 0
1, 382012, Note_off_c, 0, 45, 64
1, 382063, Note_on_c, 0, 35, 70
1, 382065, Note_on_c, 0, 85, 85
1, 382067, Note_on_c, 0, 81, 58
1, 382070, Note_on_c, 0, 73, 84
1, 382093, Note_off_c, 0, 73, 66
1, 382111, Note_off_c, 0, 85, 64
1, 382114, Note_off_c, 0, 35, 60
1, 382114, Note_off_c, 0, 81, 61
1, 382157, Note_on_c, 0, 47, 55
1, 382163, Note_on_c, 0, 85, 75
1, 382169, Note_on_c, 0, 81, 56
1, 382172, Note_on_c, 0, 73, 74
1, 382189, Note_off_c, 0, 47, 65
1, 382194, Note_off_c, 0, 73, 67
1, 382207, Note_off_c, 0, 81, 60
1, 382207, Note_off_c, 0, 85, 63
1, 382255, Note_on_c, 0, 37, 86
1, 382261, Note_on_c, 0, 88, 103
1, 382261, Note_on_c, 0, 76, 103
1, 382263, Note_on_c, 0, 85, 83
1, 382271, Control_c, 0, 64, 85
1, 382275, Note_off_c, 0, 76, 73
1, 382281, Note_on_c, 0, 81, 52
1, 382284, Note_off_c, 0, 37, 71
1, 382286, Control_c, 0, 64, 127
1, 382296, Note_off_c, 0, 88, 61
1, 382302, Note_off_c, 0, 81, 56
1, 382303, Note_off_c, 0, 85, 65
1, 382375, Note_on_c, 0, 61, 114
1, 382377, Note_on_c, 0, 49, 101
1, 382407, Note_off_c, 0, 61, 63
1, 382432, Note_off_c, 0, 49, 62
1, 382565, Note_on_c, 0, 94, 35
1, 382575, Control_c, 0, 64, 121
1, 382590, Control_c, 0, 64, 96
1, 382602, Note_off_c, 0, 94, 64
1, 382605, Control_c, 0, 64, 77
1, 382620, Control_c, 0, 64, 0
1, 382660, Note_on_c, 0, 45, 85
1, 382663, Note_on_c, 0, 33, 76
1, 382677, Note_on_c, 0, 97, 103
1, 382678, Note_on_c, 0, 85, 85
1, 382679, Control_c, 0, 64, 57
1, 382686, Note_off_c, 0, 45, 69
1, 382690, Note_off_c, 0, 33, 66
1, 382691, Note_on_c, 0, 93, 72
1, 382694, Control_c, 0, 64, 71
1, 382708, Control_c, 0, 64, 82
1, 382723, Control_c, 0, 64, 93
1, 382738, Control_c, 0, 64, 95
1, 382742, Note_off_c, 0, 93, 0
1, 382763, Note_on_c, 0, 57, 89
1, 382766, Note_off_c, 0, 85, 54
1, 382770, Note_on_c, 0, 45, 77
1, 382779, Poly_aftertouch_c, 0, 93, 127
1, 382782, Note_off_c, 0, 57, 71
1, 382788, Note_off_c, 0, 97, 61
1, 382802, Note_off_c, 0, 45, 62
1, 382813, Control_c, 0, 64, 96
1, 382834, Poly_aftertouch_c, 0, 93, 0
1, 382876, Note_on_c, 0, 32, 87
1, 382879, Note_on_c, 0, 44, 92
1, 382886, Note_on_c, 0, 85, 85
1, 382886, Note_on_c, 0, 97, 92
1, 382888, Note_on_c, 0, 93, 73
1, 382900, Note_off_c, 0, 32, 66
1, 382901, Note_off_c, 0, 44, 67
1, 382901, Control_c, 0, 64, 96
1, 382916, Control_c, 0, 64, 97
1, 382923, Note_off_c, 0, 85, 63
1, 382931, Control_c, 0, 64, 97
1, 382932, Note_off_c, 0, 97, 64
1, 382940, Note_off_c, 0, 93, 60
1, 382964, Note_on_c, 0, 44, 83
1, 382978, Note_on_c, 0, 56, 85
1, 382978, Note_on_c, 0, 97, 80
1, 382984, Note_on_c, 0, 93, 66
1, 382985, Note_on_c, 0, 85, 80
1, 382988, Note_on_c, 0, 46, 58
1, 382993, Note_off_c, 0, 56, 69
1, 383005, Note_off_c, 0, 44, 59
1, 383015, Note_off_c, 0, 46, 60
1, 383017, Note_off_c, 0, 85, 64
1, 383020, Control_c, 0, 64, 95
1, 383035, Note_off_c, 0, 97, 65
1, 383035, Control_c, 0, 64, 88
1, 383036, Note_off_c, 0, 93, 62
1, 383050, Control_c, 0, 64, 78
1, 383065, Control_c, 0, 64, 68
1, 383080, Control_c, 0, 64, 65
1, 383081, Note_on_c, 0, 97, 79
1, 383085, Note_on_c, 0, 88, 99
1, 383085, Note_on_c, 0, 100, 102
1, 383087, Note_on_c, 0, 30, 86
1, 383088, Note_on_c, 0, 42, 98
1, 383095, Control_c, 0, 64, 72
1, 383105, Note_off_c, 0, 100, 66
1, 383107, Note_off_c, 0, 30, 67
1, 383110, Control_c, 0, 64, 86
1, 383110, Note_off_c, 0, 42, 68
1, 383120, Note_off_c, 0, 97, 66
1, 383125, Control_c, 0, 64, 97
1, 383131, Note_off_c, 0, 88, 64
1, 383140, Control_c, 0, 64, 101
1, 383161, Control_c, 0, 64, 101
1, 383188, Note_on_c, 0, 42, 71
1, 383203, Note_on_c, 0, 54, 79
1, 383219, Note_off_c, 0, 54, 68
1, 383242, Note_off_c, 0, 42, 58
1, 383310, Note_on_c, 0, 29, 86
1, 383310, Note_on_c, 0, 41, 97
1, 383326, Note_on_c, 0, 30, 50
1, 383327, Note_off_c, 0, 30, 127
1, 383333, Note_off_c, 0, 41, 69
1, 383337, Note_off_c, 0, 29, 64
1, 383359, Poly_aftertouch_c, 0, 30, 0
1, 383399, Control_c, 0, 64, 101
1, 383405, Note_on_c, 0, 52, 89
1, 383408, Note_on_c, 0, 40, 82
1, 383414, Control_c, 0, 64, 96
1, 383426, Note_off_c, 0, 52, 74
1, 383429, Control_c, 0, 64, 84
1, 383440, Note_off_c, 0, 40, 67
1, 383444, Control_c, 0, 64, 62
1, 383459, Control_c, 0, 64, 0
1, 383470, Poly_aftertouch_c, 0, 41, 0
1, 383512, Note_on_c, 0, 45, 96
1, 383513, Note_on_c, 0, 85, 103
1, 383517, Note_on_c, 0, 73, 97
1, 383525, Note_on_c, 0, 33, 65
1, 383533, Note_off_c, 0, 45, 71
1, 383533, Control_c, 0, 64, 53
1, 383536, Note_on_c, 0, 31, 46
1, 383537, Note_off_c, 0, 31, 127
1, 383537, Note_on_c, 0, 81, 58
1, 383548, Control_c, 0, 64, 74
1, 383554, Note_off_c, 0, 33, 57
1, 383563, Control_c, 0, 64, 85
1, 383573, Poly_aftertouch_c, 0, 31, 0
1, 383577, Control_c, 0, 64, 94
1, 383592, Control_c, 0, 64, 96
1, 383607, Control_c, 0, 64, 97
1, 383618, Note_off_c, 0, 73, 57
1, 383620, Note_on_c, 0, 45, 73
1, 383620, Poly_aftertouch_c, 0, 34, 0
1, 383622, Control_c, 0, 64, 98
1, 383623, Note_on_c, 0, 57, 82
1, 383637, Control_c, 0, 64, 99
1, 383641, Note_off_c, 0, 85, 61
1, 383644, Note_off_c, 0, 45, 68
1, 383645, Note_off_c, 0, 57, 68
1, 383651, Control_c, 0, 64, 98
1, 383666, Control_c, 0, 64, 95
1, 383681, Control_c, 0, 64, 85
1, 383696, Control_c, 0, 64, 67
1, 383711, Control_c, 0, 64, 0
1, 383718, Note_off_c, 0, 81, 0
1, 383724, Note_on_c, 0, 85, 87
1, 383725, Note_on_c, 0, 47, 94
1, 383729, Note_on_c, 0, 73, 86
1, 383730, Note_on_c, 0, 81, 51
1, 383734, Note_on_c, 0, 35, 74
1, 383740, Control_c, 0, 64, 62
1, 383747, Note_off_c, 0, 47, 70
1, 383755, Control_c, 0, 64, 73
1, 383758, Note_off_c, 0, 35, 61
1, 383760, Note_off_c, 0, 73, 63
1, 383769, Control_c, 0, 64, 82
1, 383771, Note_off_c, 0, 85, 66
1, 383784, Control_c, 0, 64, 87
1, 383792, Note_off_c, 0, 81, 57
1, 383827, Note_on_c, 0, 81, 64
1, 383831, Note_on_c, 0, 57, 79
1, 383833, Note_on_c, 0, 85, 82
1, 383834, Note_on_c, 0, 73, 82
1, 383843, Note_on_c, 0, 45, 68
1, 383852, Note_off_c, 0, 57, 69
1, 383853, Note_off_c, 0, 73, 69
1, 383868, Note_off_c, 0, 45, 61
1, 383874, Note_off_c, 0, 85, 61
1, 383881, Note_off_c, 0, 81, 59
1, 383888, Control_c, 0, 64, 88
1, 383911, Control_c, 0, 64, 89
1, 383925, Control_c, 0, 64, 93
1, 383933, Note_on_c, 0, 88, 103
1, 383933, Note_on_c, 0, 76, 100
1, 383935, Note_on_c, 0, 85, 80
1, 383940, Control_c, 0, 64, 107
1, 383942, Note_on_c, 0, 37, 88
1, 383942, Note_on_c, 0, 49, 95
1, 383955, Note_off_c, 0, 76, 64
1, 383955, Control_c, 0, 64, 127
1, 383957, Note_off_c, 0, 88, 61
1, 383959, Note_off_c, 0, 49, 71
1, 383969, Note_off_c, 0, 37, 65
1, 383971, Note_off_c, 0, 85, 62
1, 384038, Note_on_c, 0, 49, 23
1, 384043, Note_on_c, 0, 61, 113
1, 384055, Note_on_c, 0, 51, 78
1, 384067, Note_off_c, 0, 49, 68
1, 384071, Note_off_c, 0, 61, 69
1, 384073, Note_off_c, 0, 51, 66
1, 384149, Poly_aftertouch_c, 0, 62, 0
1, 384267, Control_c, 0, 64, 119
1, 384282, Control_c, 0, 64, 105
1, 384296, Control_c, 0, 64, 96
1, 384311, Control_c, 0, 64, 87
1, 384326, Control_c, 0, 64, 79
1, 384341, Control_c, 0, 64, 70
1, 384356, Control_c, 0, 64, 58
1, 384371, Control_c, 0, 64, 17
1, 384386, Control_c, 0, 64, 0
1, 384415, Control_c, 0, 64, 13
1, 384430, Control_c, 0, 64, 0
1, 384493, Note_on_c, 0, 66, 101
1, 384494, Note_on_c, 0, 54, 101
1, 384499, Note_on_c, 0, 58, 87
1, 384500, Note_on_c, 0, 42, 96
1, 384500, Note_on_c, 0, 61, 82
1, 384503, Note_on_c, 0, 30, 89
1, 384504, Note_on_c, 0, 37, 83
1, 384505, Note_on_c, 0, 34, 77
1, 384538, Note_off_c, 0, 54, 60
1, 384539, Note_off_c, 0, 61, 61
1, 384544, Note_off_c, 0, 34, 65
1, 384549, Note_off_c, 0, 58, 47
1, 384550, Note_off_c, 0, 66, 65
1, 384552, Note_off_c, 0, 42, 61
1, 384553, Note_off_c, 0, 37, 54
1, 384579, Note_off_c, 0, 30, 60
1, 384733, Note_on_c, 0, 65, 96
1, 384734, Note_on_c, 0, 53, 95
1, 384743, Note_on_c, 0, 41, 85
1, 384744, Note_on_c, 0, 61, 74
1, 384744, Note_on_c, 0, 37, 81
1, 384746, Note_on_c, 0, 58, 78
1, 384747, Note_on_c, 0, 34, 78
1, 384750, Note_on_c, 0, 29, 71
1, 384761, Note_off_c, 0, 53, 64
1, 384768, Note_off_c, 0, 41, 69
1, 384768, Note_off_c, 0, 65, 64
1, 384770, Note_off_c, 0, 61, 67
1, 384773, Note_off_c, 0, 58, 68
1, 384780, Note_off_c, 0, 37, 65
1, 384787, Note_off_c, 0, 34, 66
1, 384790, Note_off_c, 0, 29, 64
1, 384960, Note_on_c, 0, 51, 96
1, 384962, Note_on_c, 0, 63, 87
1, 384966, Note_on_c, 0, 54, 75
1, 384970, Note_on_c, 0, 58, 81
1, 384970, Note_on_c, 0, 34, 69
1, 384972, Note_on_c, 0, 39, 82
1, 384973, Note_on_c, 0, 27, 82
1, 384973, Note_on_c, 0, 30, 70
1, 384996, Note_off_c, 0, 51, 62
1, 384997, Note_off_c, 0, 63, 64
1, 385000, Note_off_c, 0, 58, 65
1, 385001, Note_off_c, 0, 39, 65
1, 385012, Note_off_c, 0, 54, 63
1, 385015, Note_off_c, 0, 34, 64
1, 385019, Note_off_c, 0, 30, 61
1, 385032, Note_off_c, 0, 27, 58
1, 385184, Note_on_c, 0, 34, 71
1, 385185, Note_on_c, 0, 61, 83
1, 385185, Note_on_c, 0, 49, 87
1, 385186, Note_on_c, 0, 37, 83
1, 385190, Note_on_c, 0, 54, 72
1, 385193, Note_on_c, 0, 30, 59
1, 385193, Note_on_c, 0, 58, 76
1, 385197, Note_on_c, 0, 25, 67
1, 385213, Note_off_c, 0, 49, 64
1, 385218, Note_off_c, 0, 37, 72
1, 385224, Note_off_c, 0, 25, 63
1, 385224, Note_off_c, 0, 34, 65
1, 385225, Note_off_c, 0, 30, 62
1, 385231, Note_off_c, 0, 61, 60
1, 385232, Note_off_c, 0, 54, 61
1, 385238, Note_off_c, 0, 58, 63
1, 385426, Note_on_c, 0, 58, 78
1, 385426, Note_on_c, 0, 54, 81
1, 385426, Note_on_c, 0, 61, 75
1, 385429, Note_on_c, 0, 42, 80
1, 385431, Note_on_c, 0, 66, 74
1, 385435, Note_on_c, 0, 30, 67
1, 385438, Note_on_c, 0, 34, 59
1, 385438, Note_on_c, 0, 37, 60
1, 385447, Note_off_c, 0, 66, 67
1, 385449, Note_off_c, 0, 58, 70
1, 385450, Note_off_c, 0, 61, 69
1, 385451, Note_off_c, 0, 54, 67
1, 385453, Note_off_c, 0, 42, 67
1, 385470, Note_off_c, 0, 37, 65
1, 385473, Note_off_c, 0, 34, 65
1, 385477, Note_off_c, 0, 30, 64
1, 385516, Note_on_c, 0, 42, 70
1, 385517, Note_on_c, 0, 66, 84
1, 385520, Note_on_c, 0, 54, 79
1, 385526, Note_on_c, 0, 58, 75
1, 385542, Note_on_c, 0, 30, 38
1, 385545, Note_off_c, 0, 54, 65
1, 385551, Note_off_c, 0, 58, 68
1, 385551, Note_on_c, 0, 37, 40
1, 385551, Note_off_c, 0, 42, 64
1, 385556, Note_off_c, 0, 66, 65
1, 385571, Note_off_c, 0, 30, 50
1, 385587, Note_off_c, 0, 37, 33
1, 385627, Note_on_c, 0, 68, 103
1, 385628, Note_on_c, 0, 44, 85
1, 385629, Note_on_c, 0, 56, 97
1, 385634, Note_on_c, 0, 32, 75
1, 385634, Note_on_c, 0, 61, 86
1, 385638, Note_on_c, 0, 37, 61
1, 385662, Note_off_c, 0, 56, 57
1, 385663, Note_off_c, 0, 44, 66
1, 385674, Note_off_c, 0, 37, 63
1, 385674, Note_off_c, 0, 32, 64
1, 385677, Note_off_c, 0, 68, 61
1, 385690, Note_off_c, 0, 61, 59
1, 385852, Note_on_c, 0, 70, 99
1, 385853, Note_on_c, 0, 61, 95
1, 385854, Note_on_c, 0, 58, 105
1, 385856, Note_on_c, 0, 66, 93
1, 385858, Note_on_c, 0, 46, 100
1, 385861, Note_on_c, 0, 42, 93
1, 385867, Note_on_c, 0, 34, 87
1, 385868, Note_on_c, 0, 37, 75
1, 385876, Note_on_c, 0, 68, 58
1, 385882, Note_off_c, 0, 58, 67
1, 385884, Note_off_c, 0, 70, 66
1, 385888, Note_off_c, 0, 46, 63
1, 385893, Note_off_c, 0, 61, 63
1, 385894, Note_off_c, 0, 66, 67
1, 385897, Note_off_c, 0, 68, 61
1, 385898, Control_c, 0, 64, 127
1, 385915, Note_off_c, 0, 42, 64
1, 385921, Note_off_c, 0, 34, 60
1, 385930, Note_off_c, 0, 37, 61
1, 386299, Note_on_c, 0, 54, 101
1, 386299, Note_on_c, 0, 58, 91
1, 386300, Note_on_c, 0, 66, 101
1, 386304, Note_on_c, 0, 42, 99
1, 386306, Control_c, 0, 64, 112
1, 386308, Note_on_c, 0, 37, 89
1, 386309, Note_on_c, 0, 61, 79
1, 386310, Note_on_c, 0, 30, 91
1, 386313, Note_on_c, 0, 34, 79
1, 386320, Control_c, 0, 64, 93
1, 386326, Note_off_c, 0, 54, 56
1, 386326, Note_off_c, 0, 58, 54
1, 386335, Note_off_c, 0, 61, 65
1, 386335, Control_c, 0, 64, 77
1, 386347, Note_off_c, 0, 66, 60
1, 386350, Note_off_c, 0, 37, 54
1, 386350, Note_off_c, 0, 42, 60
1, 386350, Control_c, 0, 64, 59
1, 386354, Note_off_c, 0, 34, 62
1, 386365, Control_c, 0, 64, 0
1, 386383, Note_off_c, 0, 30, 55
1, 386520, Note_on_c, 0, 65, 96
1, 386521, Note_on_c, 0, 53, 96
1, 386524, Note_on_c, 0, 58, 81
1, 386528, Note_on_c, 0, 41, 88
1, 386529, Note_on_c, 0, 61, 74
1, 386532, Note_on_c, 0, 34, 69
1, 386532, Note_on_c, 0, 37, 81
1, 386536, Note_on_c, 0, 29, 70
1, 386555, Note_off_c, 0, 41, 69
1, 386555, Note_off_c, 0, 65, 66
1, 386556, Note_off_c, 0, 61, 66
1, 386558, Note_off_c, 0, 58, 63
1, 386559, Note_off_c, 0, 53, 64
1, 386565, Note_off_c, 0, 37, 69
1, 386575, Note_off_c, 0, 29, 63
1, 386577, Note_off_c, 0, 34, 65
1, 386743, Note_on_c, 0, 51, 94
1, 386743, Note_on_c, 0, 63, 88
1, 386746, Note_on_c, 0, 54, 86
1, 386747, Note_on_c, 0, 30, 46
1, 386747, Note_on_c, 0, 58, 83
1, 386752, Note_on_c, 0, 34, 85
1, 386754, Note_on_c, 0, 39, 82
1, 386758, Note_on_c, 0, 27, 77
1, 386777, Note_off_c, 0, 58, 67
1, 386777, Note_off_c, 0, 51, 63
1, 386780, Note_off_c, 0, 39, 64
1, 386781, Note_off_c, 0, 54, 60
1, 386783, Note_off_c, 0, 63, 64
1, 386802, Note_off_c, 0, 34, 62
1, 386804, Note_off_c, 0, 30, 60
1, 386809, Note_off_c, 0, 27, 61
1, 386960, Note_on_c, 0, 61, 84
1, 386964, Note_on_c, 0, 49, 81
1, 386966, Note_on_c, 0, 34, 77
1, 386967, Note_on_c, 0, 37, 85
1, 386971, Note_on_c, 0, 54, 75
1, 386972, Note_on_c, 0, 58, 75
1, 386975, Note_on_c, 0, 30, 67
1, 386982, Note_on_c, 0, 25, 62
1, 386991, Note_off_c, 0, 49, 66
1, 386997, Note_off_c, 0, 37, 69
1, 387004, Note_off_c, 0, 30, 61
1, 387007, Note_off_c, 0, 34, 65
1, 387007, Note_off_c, 0, 54, 63
1, 387010, Note_off_c, 0, 58, 62
1, 387015, Note_off_c, 0, 61, 62
1, 387015, Note_off_c, 0, 25, 62
1, 387191, Note_on_c, 0, 54, 87
1, 387193, Note_on_c, 0, 66, 84
1, 387194, Note_on_c, 0, 42, 83
1, 387194, Note_on_c, 0, 58, 77
1, 387194, Note_on_c, 0, 61, 78
1, 387200, Note_on_c, 0, 30, 69
1, 387204, Note_on_c, 0, 37, 64
1, 387206, Note_on_c, 0, 34, 58
1, 387214, Note_off_c, 0, 54, 68
1, 387218, Note_off_c, 0, 66, 66
1, 387218, Note_off_c, 0, 58, 70
1, 387221, Note_off_c, 0, 61, 67
1, 387224, Note_off_c, 0, 42, 65
1, 387233, Note_off_c, 0, 37, 67
1, 387242, Note_off_c, 0, 30, 62
1, 387244, Note_off_c, 0, 34, 63
1, 387286, Note_on_c, 0, 54, 62
1, 387289, Note_on_c, 0, 42, 67
1, 387291, Note_on_c, 0, 66, 84
1, 387292, Note_on_c, 0, 58, 80
1, 387307, Note_on_c, 0, 37, 63
1, 387318, Note_off_c, 0, 54, 65
1, 387319, Note_off_c, 0, 58, 66
1, 387320, Note_off_c, 0, 42, 64
1, 387328, Note_off_c, 0, 66, 66
1, 387337, Note_off_c, 0, 37, 65
1, 387393, Note_on_c, 0, 56, 99
1, 387394, Note_on_c, 0, 68, 93
1, 387395, Note_on_c, 0, 44, 86
1, 387401, Note_on_c, 0, 32, 75
1, 387401, Note_on_c, 0, 61, 83
1, 387406, Note_on_c, 0, 37, 70
1, 387426, Note_off_c, 0, 61, 62
1, 387429, Note_off_c, 0, 44, 65
1, 387432, Note_off_c, 0, 37, 66
1, 387433, Note_off_c, 0, 56, 60
1, 387435, Note_off_c, 0, 68, 61
1, 387441, Note_off_c, 0, 32, 62
1, 387616, Note_on_c, 0, 58, 109
1, 387617, Note_on_c, 0, 70, 99
1, 387617, Note_on_c, 0, 46, 103
1, 387619, Note_on_c, 0, 61, 100
1, 387620, Note_on_c, 0, 42, 96
1, 387620, Note_on_c, 0, 66, 97
1, 387626, Note_on_c, 0, 34, 83
1, 387626, Note_on_c, 0, 37, 64
1, 387653, Note_off_c, 0, 58, 68
1, 387656, Note_off_c, 0, 70, 63
1, 387658, Note_on_c, 0, 68, 45
1, 387659, Note_off_c, 0, 68, 127
1, 387666, Note_off_c, 0, 61, 63
1, 387668, Note_off_c, 0, 34, 69
1, 387668, Note_off_c, 0, 46, 65
1, 387669, Note_off_c, 0, 66, 66
1, 387670, Control_c, 0, 64, 104
1, 387681, Note_off_c, 0, 37, 62
1, 387685, Control_c, 0, 64, 127
1, 387689, Note_off_c, 0, 42, 63
1, 388012, Note_on_c, 0, 66, 35
1, 388039, Note_off_c, 0, 66, 57
1, 388055, Control_c, 0, 64, 99
1, 388070, Control_c, 0, 64, 73
1, 388085, Control_c, 0, 64, 0
1, 388091, Note_on_c, 0, 61, 107
1, 388091, Note_on_c, 0, 73, 108
1, 388092, Note_on_c, 0, 70, 65
1, 388096, Note_on_c, 0, 54, 99
1, 388096, Note_on_c, 0, 66, 101
1, 388098, Note_on_c, 0, 49, 94
1, 388103, Note_on_c, 0, 46, 85
1, 388106, Note_on_c, 0, 42, 83
1, 388151, Note_off_c, 0, 61, 57
1, 388160, Control_c, 0, 64, 64
1, 388160, Note_off_c, 0, 73, 52
1, 388174, Control_c, 0, 64, 80
1, 388176, Note_off_c, 0, 66, 55
1, 388189, Control_c, 0, 64, 95
1, 388204, Control_c, 0, 64, 98
1, 388237, Note_off_c, 0, 46, 53
1, 388261, Note_off_c, 0, 70, 56
1, 388265, Note_off_c, 0, 42, 52
1, 388287, Note_off_c, 0, 54, 47
1, 388337, Note_off_c, 0, 49, 30
1, 388337, Control_c, 0, 64, 99
1, 388352, Control_c, 0, 64, 99
1, 388366, Control_c, 0, 64, 100
1, 388419, Control_c, 0, 64, 98
1, 388434, Control_c, 0, 64, 90
1, 388434, Note_on_c, 0, 61, 85
1, 388440, Note_on_c, 0, 73, 71
1, 388443, Note_on_c, 0, 66, 78
1, 388445, Note_on_c, 0, 54, 68
1, 388446, Note_on_c, 0, 70, 52
1, 388448, Control_c, 0, 64, 76
1, 388449, Note_on_c, 0, 49, 39
1, 388453, Note_on_c, 0, 42, 51
1, 388463, Control_c, 0, 64, 48
1, 388466, Note_off_c, 0, 61, 64
1, 388470, Note_off_c, 0, 54, 68
1, 388471, Note_off_c, 0, 73, 65
1, 388473, Note_off_c, 0, 49, 57
1, 388476, Note_off_c, 0, 66, 63
1, 388478, Control_c, 0, 64, 0
1, 388479, Note_off_c, 0, 70, 52
1, 388479, Note_off_c, 0, 42, 54
1, 388537, Control_c, 0, 64, 49
1, 388544, Note_on_c, 0, 71, 64
1, 388545, Note_on_c, 0, 63, 107
1, 388547, Note_on_c, 0, 75, 91
1, 388550, Note_on_c, 0, 66, 91
1, 388552, Control_c, 0, 64, 65
1, 388555, Note_on_c, 0, 59, 86
1, 388557, Note_on_c, 0, 51, 72
1, 388557, Note_on_c, 0, 54, 81
1, 388565, Note_on_c, 0, 47, 58
1, 388566, Control_c, 0, 64, 71
1, 388574, Note_off_c, 0, 59, 69
1, 388574, Note_off_c, 0, 71, 65
1, 388581, Control_c, 0, 64, 79
1, 388582, Note_off_c, 0, 63, 60
1, 388583, Note_off_c, 0, 66, 58
1, 388585, Note_off_c, 0, 75, 61
1, 388595, Note_off_c, 0, 54, 61
1, 388596, Note_off_c, 0, 47, 64
1, 388596, Control_c, 0, 64, 83
1, 388598, Note_off_c, 0, 51, 62
1, 388611, Control_c, 0, 64, 83
1, 388655, Control_c, 0, 64, 84
1, 388685, Control_c, 0, 64, 85
1, 388700, Control_c, 0, 64, 85
1, 388714, Control_c, 0, 64, 87
1, 388729, Control_c, 0, 64, 88
1, 388744, Control_c, 0, 64, 89
1, 388759, Control_c, 0, 64, 90
1, 388766, Note_on_c, 0, 54, 83
1, 388766, Note_on_c, 0, 61, 99
1, 388766, Note_on_c, 0, 73, 97
1, 388771, Note_on_c, 0, 66, 84
1, 388772, Note_on_c, 0, 42, 73
1, 388774, Control_c, 0, 64, 91
1, 388774, Note_on_c, 0, 49, 68
1, 388775, Note_on_c, 0, 46, 69
1, 388780, Note_on_c, 0, 70, 68
1, 388782, Note_off_c, 0, 61, 74
1, 388789, Note_off_c, 0, 54, 69
1, 388789, Control_c, 0, 64, 93
1, 388792, Note_off_c, 0, 66, 73
1, 388793, Note_off_c, 0, 73, 58
1, 388799, Note_off_c, 0, 70, 66
1, 388801, Note_off_c, 0, 49, 64
1, 388804, Control_c, 0, 64, 94
1, 388805, Note_off_c, 0, 46, 64
1, 388818, Note_off_c, 0, 42, 61
1, 388819, Control_c, 0, 64, 94
1, 388834, Control_c, 0, 64, 95
1, 388849, Control_c, 0, 64, 96
1, 388863, Control_c, 0, 64, 98
1, 388878, Control_c, 0, 64, 103
1, 388893, Control_c, 0, 64, 112
1, 388908, Control_c, 0, 64, 127
1, 388968, Control_c, 0, 64, 106
1, 388982, Control_c, 0, 64, 83
1, 388997, Control_c, 0, 64, 42
1, 388999, Note_on_c, 0, 70, 107
1, 389000, Note_on_c, 0, 46, 101
1, 389000, Note_on_c, 0, 58, 115
1, 389004, Note_on_c, 0, 34, 92
1, 389012, Control_c, 0, 64, 0
1, 389030, Note_on_c, 0, 71, 53
1, 389049, Note_off_c, 0, 71, 60
1, 389056, Control_c, 0, 64, 57
1, 389062, Note_off_c, 0, 58, 64
1, 389071, Control_c, 0, 64, 76
1, 389086, Control_c, 0, 64, 93
1, 389101, Control_c, 0, 64, 115
1, 389115, Note_off_c, 0, 34, 60
1, 389116, Control_c, 0, 64, 127
1, 389147, Note_off_c, 0, 70, 0
1, 389211, Note_off_c, 0, 46, 54
1, 389232, Poly_aftertouch_c, 0, 70, 0
1, 389333, Note_on_c, 0, 68, 80
1, 389335, Note_on_c, 0, 58, 80
1, 389346, Note_on_c, 0, 46, 67
1, 389350, Note_on_c, 0, 38, 58
1, 389358, Note_off_c, 0, 58, 69
1, 389360, Control_c, 0, 64, 120
1, 389366, Note_off_c, 0, 68, 62
1, 389373, Note_off_c, 0, 46, 65
1, 389375, Control_c, 0, 64, 103
1, 389385, Note_off_c, 0, 38, 63
1, 389389, Control_c, 0, 64, 87
1, 389404, Control_c, 0, 64, 70
1, 389419, Control_c, 0, 64, 0
1, 389430, Note_on_c, 0, 46, 77
1, 389431, Note_on_c, 0, 66, 85
1, 389436, Note_on_c, 0, 58, 79
1, 389439, Note_on_c, 0, 39, 62
1, 389461, Note_off_c, 0, 46, 63
1, 389461, Note_off_c, 0, 66, 63
1, 389464, Note_off_c, 0, 58, 66
1, 389483, Note_off_c, 0, 39, 60
1, 389531, Note_on_c, 0, 46, 71
1, 389531, Note_on_c, 0, 58, 73
1, 389531, Note_on_c, 0, 65, 79
1, 389558, Note_off_c, 0, 58, 68
1, 389559, Note_off_c, 0, 46, 64
1, 389560, Note_on_c, 0, 41, 48
1, 389576, Note_off_c, 0, 65, 63
1, 389595, Note_off_c, 0, 41, 60
1, 389612, Control_c, 0, 64, 61
1, 389625, Note_on_c, 0, 46, 95
1, 389627, Control_c, 0, 64, 74
1, 389628, Note_on_c, 0, 58, 77
1, 389629, Note_on_c, 0, 63, 86
1, 389642, Control_c, 0, 64, 86
1, 389644, Note_on_c, 0, 42, 73
1, 389650, Note_off_c, 0, 58, 70
1, 389657, Control_c, 0, 64, 94
1, 389672, Control_c, 0, 64, 96
1, 389674, Note_off_c, 0, 42, 65
1, 389677, Note_off_c, 0, 63, 66
1, 389680, Note_off_c, 0, 46, 63
1, 389686, Control_c, 0, 64, 97
1, 389701, Control_c, 0, 64, 101
1, 389716, Control_c, 0, 64, 106
1, 389731, Control_c, 0, 64, 109
1, 389760, Control_c, 0, 64, 108
1, 389775, Control_c, 0, 64, 100
1, 389790, Control_c, 0, 64, 86
1, 389805, Control_c, 0, 64, 69
1, 389820, Note_on_c, 0, 71, 77
1, 389820, Control_c, 0, 64, 32
1, 389835, Note_on_c, 0, 66, 108
1, 389835, Note_on_c, 0, 70, 93
1, 389835, Control_c, 0, 64, 61
1, 389838, Note_on_c, 0, 54, 94
1, 389850, Control_c, 0, 64, 72
1, 389853, Note_off_c, 0, 71, 63
1, 389865, Control_c, 0, 64, 82
1, 389887, Control_c, 0, 64, 89
1, 389891, Note_off_c, 0, 70, 64
1, 389902, Control_c, 0, 64, 91
1, 389903, Note_off_c, 0, 66, 55
1, 389910, Note_off_c, 0, 54, 57
1, 389917, Control_c, 0, 64, 91
1, 389920, Note_on_c, 0, 69, 81
1, 389932, Control_c, 0, 64, 92
1, 389963, Note_off_c, 0, 69, 64
1, 389992, Note_on_c, 0, 70, 84
1, 390006, Control_c, 0, 64, 90
1, 390020, Control_c, 0, 64, 85
1, 390032, Note_on_c, 0, 68, 88
1, 390035, Control_c, 0, 64, 78
1, 390038, Note_off_c, 0, 70, 63
1, 390044, Note_on_c, 0, 71, 68
1, 390047, Note_on_c, 0, 56, 69
1, 390050, Control_c, 0, 64, 68
1, 390056, Note_on_c, 0, 59, 49
1, 390059, Note_off_c, 0, 68, 66
1, 390065, Control_c, 0, 64, 21
1, 390079, Note_off_c, 0, 56, 65
1, 390079, Note_off_c, 0, 59, 58
1, 390080, Control_c, 0, 64, 0
1, 390130, Note_on_c, 0, 70, 79
1, 390136, Note_off_c, 0, 71, 63
1, 390137, Note_on_c, 0, 66, 73
1, 390151, Note_off_c, 0, 70, 67
1, 390152, Note_on_c, 0, 54, 63
1, 390156, Note_off_c, 0, 66, 69
1, 390159, Note_on_c, 0, 58, 44
1, 390182, Note_off_c, 0, 54, 64
1, 390184, Note_off_c, 0, 58, 53
1, 390237, Note_on_c, 0, 68, 86
1, 390242, Note_on_c, 0, 56, 83
1, 390244, Note_on_c, 0, 65, 80
1, 390255, Note_on_c, 0, 53, 67
1, 390267, Note_off_c, 0, 56, 65
1, 390268, Note_off_c, 0, 65, 69
1, 390278, Note_off_c, 0, 53, 66
1, 390283, Note_off_c, 0, 68, 59
1, 390334, Note_on_c, 0, 66, 78
1, 390339, Note_on_c, 0, 63, 75
1, 390341, Note_on_c, 0, 54, 78
1, 390354, Note_on_c, 0, 51, 62
1, 390371, Note_off_c, 0, 54, 63
1, 390375, Note_off_c, 0, 63, 62
1, 390380, Note_off_c, 0, 66, 64
1, 390384, Note_off_c, 0, 51, 64
1, 390431, Note_on_c, 0, 58, 96
1, 390431, Note_on_c, 0, 65, 92
1, 390440, Note_on_c, 0, 53, 76
1, 390447, Note_on_c, 0, 46, 83
1, 390463, Note_off_c, 0, 65, 67
1, 390466, Note_off_c, 0, 53, 70
1, 390466, Control_c, 0, 64, 63
1, 390480, Note_off_c, 0, 46, 63
1, 390481, Control_c, 0, 64, 72
1, 390486, Note_off_c, 0, 58, 63
1, 390496, Control_c, 0, 64, 80
1, 390510, Control_c, 0, 64, 86
1, 390525, Control_c, 0, 64, 89
1, 390540, Control_c, 0, 64, 92
1, 390555, Control_c, 0, 64, 98
1, 390568, Control_c, 0, 64, 103
1, 390583, Control_c, 0, 64, 106
1, 390628, Control_c, 0, 64, 101
1, 390650, Control_c, 0, 64, 88
1, 390665, Note_on_c, 0, 63, 103
1, 390665, Control_c, 0, 64, 66
1, 390668, Note_on_c, 0, 54, 109
1, 390670, Note_on_c, 0, 51, 96
1, 390671, Note_on_c, 0, 39, 87
1, 390673, Note_on_c, 0, 46, 93
1, 390675, Note_on_c, 0, 58, 86
1, 390680, Control_c, 0, 64, 0
1, 390711, Note_off_c, 0, 54, 65
1, 390725, Note_off_c, 0, 58, 64
1, 390730, Note_off_c, 0, 63, 64
1, 390739, Control_c, 0, 64, 40
1, 390741, Note_off_c, 0, 51, 57
1, 390754, Control_c, 0, 64, 70
1, 390763, Note_off_c, 0, 39, 59
1, 390768, Control_c, 0, 64, 82
1, 390771, Note_off_c, 0, 46, 59
1, 390783, Control_c, 0, 64, 98
1, 390798, Control_c, 0, 64, 105
1, 390813, Control_c, 0, 64, 106
1, 390991, Control_c, 0, 64, 107
1, 391006, Control_c, 0, 64, 113
1, 391021, Control_c, 0, 64, 127
1, 391124, Control_c, 0, 64, 112
1, 391139, Control_c, 0, 64, 85
1, 391150, Note_on_c, 0, 85, 104
1, 391151, Note_on_c, 0, 73, 110
1, 391154, Control_c, 0, 64, 0
1, 391156, Note_on_c, 0, 78, 87
1, 391158, Note_on_c, 0, 82, 83
1, 391159, Note_on_c, 0, 54, 91
1, 391161, Note_on_c, 0, 49, 84
1, 391164, Note_on_c, 0, 42, 81
1, 391164, Note_on_c, 0, 46, 78
1, 391229, Control_c, 0, 64, 61
1, 391244, Control_c, 0, 64, 73
1, 391258, Control_c, 0, 64, 84
1, 391273, Control_c, 0, 64, 87
1, 391288, Control_c, 0, 64, 88
1, 391303, Control_c, 0, 64, 89
1, 391317, Control_c, 0, 64, 90
1, 391331, Control_c, 0, 64, 92
1, 391346, Control_c, 0, 64, 98
1, 391361, Control_c, 0, 64, 106
1, 391364, Note_off_c, 0, 42, 55
1, 391364, Note_off_c, 0, 46, 53
1, 391376, Control_c, 0, 64, 123
1, 391377, Note_off_c, 0, 54, 54
1, 391379, Note_off_c, 0, 73, 56
1, 391391, Note_off_c, 0, 85, 61
1, 391397, Note_off_c, 0, 82, 61
1, 391398, Control_c, 0, 64, 127
1, 391401, Note_off_c, 0, 78, 62
1, 391406, Note_off_c, 0, 49, 48
1, 391458, Control_c, 0, 64, 96
1, 391472, Control_c, 0, 64, 73
1, 391483, Note_on_c, 0, 42, 64
1, 391483, Note_on_c, 0, 49, 52
1, 391483, Note_on_c, 0, 73, 84
1, 391483, Note_on_c, 0, 78, 83
1, 391484, Note_on_c, 0, 54, 73
1, 391486, Note_on_c, 0, 85, 76
1, 391487, Control_c, 0, 64, 0
1, 391498, Note_on_c, 0, 82, 56
1, 391501, Note_on_c, 0, 46, 48
1, 391503, Note_off_c, 0, 73, 72
1, 391506, Note_off_c, 0, 85, 68
1, 391510, Note_off_c, 0, 42, 69
1, 391512, Note_off_c, 0, 78, 62
1, 391513, Note_off_c, 0, 49, 64
1, 391516, Note_off_c, 0, 54, 63
1, 391518, Note_off_c, 0, 82, 65
1, 391522, Note_off_c, 0, 46, 60
1, 391546, Control_c, 0, 64, 65
1, 391561, Control_c, 0, 64, 76
1, 391576, Control_c, 0, 64, 88
1, 391582, Note_on_c, 0, 87, 99
1, 391582, Note_on_c, 0, 78, 99
1, 391584, Note_on_c, 0, 75, 97
1, 391585, Note_on_c, 0, 83, 85
1, 391591, Control_c, 0, 64, 95
1, 391594, Note_on_c, 0, 54, 79
1, 391597, Note_on_c, 0, 59, 84
1, 391599, Note_on_c, 0, 51, 72
1, 391600, Note_on_c, 0, 47, 75
1, 391603, Note_off_c, 0, 83, 67
1, 391606, Control_c, 0, 64, 97
1, 391614, Note_off_c, 0, 75, 60
1, 391617, Note_off_c, 0, 59, 70
1, 391621, Control_c, 0, 64, 99
1, 391623, Note_off_c, 0, 87, 64
1, 391624, Note_off_c, 0, 78, 65
1, 391635, Note_off_c, 0, 54, 59
1, 391635, Control_c, 0, 64, 101
1, 391638, Note_off_c, 0, 51, 57
1, 391642, Note_off_c, 0, 47, 61
1, 391650, Control_c, 0, 64, 101
1, 391665, Control_c, 0, 64, 102
1, 391680, Control_c, 0, 64, 102
1, 391709, Control_c, 0, 64, 103
1, 391754, Control_c, 0, 64, 103
1, 391792, Note_on_c, 0, 85, 99
1, 391793, Note_on_c, 0, 54, 86
1, 391793, Note_on_c, 0, 73, 103
1, 391796, Note_on_c, 0, 78, 90
1, 391798, Control_c, 0, 64, 104
1, 391799, Note_on_c, 0, 42, 80
1, 391802, Note_on_c, 0, 82, 74
1, 391803, Note_on_c, 0, 49, 66
1, 391806, Note_on_c, 0, 46, 62
1, 391809, Note_off_c, 0, 73, 71
1, 391813, Control_c, 0, 64, 105
1, 391814, Note_off_c, 0, 78, 71
1, 391820, Note_off_c, 0, 54, 64
1, 391824, Note_off_c, 0, 82, 68
1, 391824, Note_off_c, 0, 49, 63
1, 391824, Note_off_c, 0, 85, 51
1, 391828, Control_c, 0, 64, 106
1, 391838, Note_off_c, 0, 46, 64
1, 391843, Control_c, 0, 64, 108
1, 391845, Note_off_c, 0, 42, 63
1, 391857, Control_c, 0, 64, 111
1, 391872, Control_c, 0, 64, 117
1, 391887, Control_c, 0, 64, 127
1, 392006, Control_c, 0, 64, 94
1, 392021, Control_c, 0, 64, 65
1, 392022, Note_on_c, 0, 82, 110
1, 392024, Note_on_c, 0, 70, 109
1, 392026, Note_on_c, 0, 46, 103
1, 392031, Note_on_c, 0, 34, 98
1, 392036, Control_c, 0, 64, 0
1, 392080, Control_c, 0, 64, 60
1, 392095, Control_c, 0, 64, 78
1, 392110, Control_c, 0, 64, 107
1, 392119, Note_off_c, 0, 34, 63
1, 392125, Control_c, 0, 64, 127
1, 392170, Note_off_c, 0, 46, 57
1, 392221, Note_off_c, 0, 70, 53
1, 392252, Note_off_c, 0, 82, 58
1, 392342, Note_on_c, 0, 80, 92
1, 392343, Note_on_c, 0, 38, 59
1, 392347, Note_on_c, 0, 50, 64
1, 392348, Note_on_c, 0, 68, 81
1, 392365, Note_off_c, 0, 80, 65
1, 392371, Note_off_c, 0, 38, 59
1, 392372, Note_off_c, 0, 68, 69
1, 392375, Note_off_c, 0, 50, 64
1, 392384, Control_c, 0, 64, 117
1, 392394, Note_on_c, 0, 46, 6
1, 392399, Control_c, 0, 64, 105
1, 392413, Control_c, 0, 64, 94
1, 392417, Note_off_c, 0, 46, 0
1, 392428, Control_c, 0, 64, 83
1, 392435, Note_on_c, 0, 46, 5
1, 392439, Note_on_c, 0, 78, 92
1, 392443, Note_on_c, 0, 51, 76
1, 392443, Note_on_c, 0, 66, 91
1, 392443, Control_c, 0, 64, 71
1, 392446, Note_on_c, 0, 39, 68
1, 392458, Control_c, 0, 64, 44
1, 392462, Note_off_c, 0, 78, 64
1, 392465, Note_off_c, 0, 66, 68
1, 392470, Note_off_c, 0, 51, 68
1, 392470, Note_off_c, 0, 39, 60
1, 392473, Control_c, 0, 64, 0
1, 392475, Note_off_c, 0, 46, 63
1, 392541, Note_on_c, 0, 77, 91
1, 392542, Note_on_c, 0, 65, 89
1, 392547, Note_on_c, 0, 53, 71
1, 392554, Note_on_c, 0, 46, 66
1, 392556, Note_on_c, 0, 41, 49
1, 392565, Note_off_c, 0, 65, 68
1, 392565, Note_off_c, 0, 77, 63
1, 392576, Note_off_c, 0, 53, 68
1, 392584, Note_off_c, 0, 46, 64
1, 392590, Note_off_c, 0, 41, 57
1, 392621, Control_c, 0, 64, 63
1, 392636, Control_c, 0, 64, 74
1, 392637, Note_on_c, 0, 75, 98
1, 392638, Note_on_c, 0, 54, 97
1, 392639, Note_on_c, 0, 63, 97
1, 392640, Note_on_c, 0, 42, 83
1, 392649, Note_on_c, 0, 46, 78
1, 392651, Control_c, 0, 64, 87
1, 392666, Control_c, 0, 64, 101
1, 392679, Note_off_c, 0, 63, 64
1, 392680, Control_c, 0, 64, 108
1, 392681, Note_off_c, 0, 42, 62
1, 392682, Note_off_c, 0, 46, 65
1, 392695, Control_c, 0, 64, 110
1, 392696, Note_off_c, 0, 54, 59
1, 392706, Note_off_c, 0, 75, 60
1, 392710, Control_c, 0, 64, 110
1, 392725, Control_c, 0, 64, 111
1, 392840, Note_on_c, 0, 83, 90
1, 392844, Note_on_c, 0, 82, 83
1, 392844, Control_c, 0, 64, 111
1, 392848, Note_on_c, 0, 66, 100
1, 392853, Note_on_c, 0, 54, 83
1, 392858, Note_on_c, 0, 58, 68
1, 392876, Note_off_c, 0, 83, 62
1, 392897, Note_off_c, 0, 82, 64
1, 392929, Note_on_c, 0, 81, 71
1, 392938, Note_off_c, 0, 54, 59
1, 392939, Note_off_c, 0, 66, 61
1, 392966, Note_off_c, 0, 81, 0
1, 392966, Note_on_c, 0, 81, 35
1, 392967, Note_on_c, 0, 79, 32
1, 392968, Note_off_c, 0, 79, 127
1, 392987, Note_on_c, 0, 82, 80
1, 392992, Note_off_c, 0, 81, 53
1, 393000, Control_c, 0, 64, 111
1, 393015, Control_c, 0, 64, 105
1, 393021, Note_off_c, 0, 82, 59
1, 393030, Control_c, 0, 64, 95
1, 393044, Control_c, 0, 64, 80
1, 393048, Note_on_c, 0, 68, 86
1, 393052, Note_on_c, 0, 71, 90
1, 393053, Note_on_c, 0, 56, 72
1, 393053, Note_on_c, 0, 83, 88
1, 393059, Control_c, 0, 64, 58
1, 393063, Note_off_c, 0, 58, 57
1, 393072, Note_off_c, 0, 68, 68
1, 393074, Note_off_c, 0, 83, 64
1, 393074, Control_c, 0, 64, 0
1, 393075, Note_off_c, 0, 71, 64
1, 393084, Note_off_c, 0, 56, 63
1, 393153, Note_on_c, 0, 66, 67
1, 393156, Note_on_c, 0, 54, 66
1, 393159, Note_on_c, 0, 82, 85
1, 393162, Note_on_c, 0, 70, 85
1, 393177, Note_off_c, 0, 54, 61
1, 393177, Note_off_c, 0, 82, 72
1, 393180, Note_off_c, 0, 66, 68
1, 393182, Note_off_c, 0, 70, 70
1, 393247, Note_on_c, 0, 65, 71
1, 393251, Note_on_c, 0, 80, 89
1, 393254, Note_on_c, 0, 68, 89
1, 393259, Note_on_c, 0, 53, 49
1, 393265, Note_off_c, 0, 65, 68
1, 393272, Note_off_c, 0, 80, 66
1, 393278, Note_on_c, 0, 52, 27
1, 393279, Note_off_c, 0, 52, 127
1, 393279, Note_off_c, 0, 68, 65
1, 393284, Note_off_c, 0, 53, 55
1, 393345, Note_on_c, 0, 61, 79
1, 393349, Note_on_c, 0, 78, 94
1, 393353, Note_on_c, 0, 66, 86
1, 393367, Note_off_c, 0, 61, 68
1, 393367, Note_off_c, 0, 78, 68
1, 393370, Note_on_c, 0, 49, 47
1, 393371, Note_on_c, 0, 51, 41
1, 393373, Note_off_c, 0, 66, 71
1, 393396, Note_off_c, 0, 49, 38
1, 393402, Note_off_c, 0, 51, 35
1, 393445, Note_on_c, 0, 65, 98
1, 393446, Note_on_c, 0, 77, 99
1, 393447, Note_on_c, 0, 58, 80
1, 393454, Note_on_c, 0, 46, 79
1, 393479, Note_off_c, 0, 58, 62
1, 393480, Note_off_c, 0, 65, 67
1, 393481, Note_off_c, 0, 77, 63
1, 393577, Note_off_c, 0, 46, 0
1, 393577, Note_on_c, 0, 46, 11
1, 393609, Note_on_c, 0, 51, 70
1, 393615, Note_off_c, 0, 46, 58
1, 393658, Note_on_c, 0, 54, 70
1, 393676, Note_on_c, 0, 75, 108
1, 393677, Note_on_c, 0, 63, 116
1, 393681, Note_on_c, 0, 70, 98
1, 393686, Note_on_c, 0, 58, 98
1, 393704, Note_on_c, 0, 76, 55
1, 393704, Note_off_c, 0, 63, 67
1, 393704, Control_c, 0, 64, 85
1, 393708, Note_off_c, 0, 70, 55
1, 393719, Note_off_c, 0, 58, 63
1, 393719, Control_c, 0, 64, 127
1, 393722, Note_off_c, 0, 54, 62
1, 393722, Note_off_c, 0, 76, 64
1, 393728, Note_off_c, 0, 75, 62
1, 393747, Note_off_c, 0, 51, 63
1, 394089, Control_c, 0, 64, 114
1, 394104, Control_c, 0, 64, 94
1, 394108, Note_on_c, 0, 54, 106
1, 394112, Note_on_c, 0, 42, 106
1, 394112, Note_on_c, 0, 66, 100
1, 394115, Note_on_c, 0, 58, 71
1, 394116, Note_off_c, 0, 58, 127
1, 394118, Note_on_c, 0, 37, 87
1, 394119, Note_on_c, 0, 30, 88
1, 394119, Note_on_c, 0, 34, 81
1, 394119, Control_c, 0, 64, 75
1, 394126, Note_on_c, 0, 57, 70
1, 394127, Note_on_c, 0, 60, 67
1, 394127, Note_off_c, 0, 54, 69
1, 394133, Control_c, 0, 64, 46
1, 394140, Note_off_c, 0, 66, 54
1, 394144, Note_off_c, 0, 57, 63
1, 394146, Note_off_c, 0, 60, 58
1, 394148, Control_c, 0, 64, 0
1, 394155, Note_on_c, 0, 63, 4
1, 394156, Note_off_c, 0, 63, 127
1, 394217, Note_off_c, 0, 34, 59
1, 394219, Note_off_c, 0, 37, 62
1, 394220, Note_on_c, 0, 54, 71
1, 394220, Note_off_c, 0, 42, 59
1, 394223, Note_off_c, 0, 30, 60
1, 394226, Note_on_c, 0, 66, 67
1, 394227, Note_on_c, 0, 58, 55
1, 394252, Note_off_c, 0, 54, 60
1, 394253, Note_off_c, 0, 58, 57
1, 394253, Note_off_c, 0, 66, 54
1, 394308, Note_on_c, 0, 41, 91
1, 394311, Note_on_c, 0, 37, 85
1, 394313, Note_on_c, 0, 34, 77
1, 394316, Note_on_c, 0, 29, 70
1, 394344, Note_off_c, 0, 41, 64
1, 394356, Note_off_c, 0, 29, 62
1, 394369, Note_off_c, 0, 37, 63
1, 394382, Note_off_c, 0, 34, 61
1, 394415, Note_on_c, 0, 53, 76
1, 394417, Note_on_c, 0, 65, 77
1, 394423, Note_on_c, 0, 61, 55
1, 394426, Note_on_c, 0, 58, 63
1, 394444, Note_off_c, 0, 53, 66
1, 394444, Note_off_c, 0, 65, 66
1, 394455, Note_off_c, 0, 61, 64
1, 394459, Note_off_c, 0, 58, 65
1, 394524, Note_on_c, 0, 39, 93
1, 394529, Note_on_c, 0, 27, 80
1, 394533, Note_on_c, 0, 34, 72
1, 394540, Note_on_c, 0, 30, 59
1, 394560, Note_off_c, 0, 39, 58
1, 394572, Note_off_c, 0, 34, 58
1, 394584, Note_off_c, 0, 30, 53
1, 394604, Note_off_c, 0, 27, 61
1, 394637, Note_on_c, 0, 51, 74
1, 394648, Note_on_c, 0, 63, 56
1, 394652, Note_on_c, 0, 58, 54
1, 394665, Note_off_c, 0, 51, 64
1, 394667, Note_off_c, 0, 63, 62
1, 394684, Note_off_c, 0, 58, 65
1, 394721, Note_on_c, 0, 37, 91
1, 394724, Note_on_c, 0, 34, 86
1, 394730, Note_on_c, 0, 30, 71
1, 394732, Note_on_c, 0, 25, 71
1, 394751, Note_off_c, 0, 37, 65
1, 394758, Note_off_c, 0, 34, 66
1, 394762, Note_off_c, 0, 25, 65
1, 394763, Note_off_c, 0, 30, 65
1, 394852, Note_on_c, 0, 49, 65
1, 394855, Note_on_c, 0, 61, 65
1, 394857, Note_on_c, 0, 54, 60
1, 394858, Note_on_c, 0, 58, 51
1, 394875, Note_off_c, 0, 49, 61
1, 394888, Note_off_c, 0, 61, 65
1, 394888, Note_off_c, 0, 54, 64
1, 394891, Note_off_c, 0, 58, 65
1, 394937, Note_on_c, 0, 42, 93
1, 394947, Note_on_c, 0, 30, 72
1, 394950, Note_on_c, 0, 37, 68
1, 394954, Note_on_c, 0, 34, 58
1, 394980, Note_off_c, 0, 37, 63
1, 394986, Note_off_c, 0, 34, 64
1, 394991, Note_off_c, 0, 30, 62
1, 394992, Note_off_c, 0, 42, 60
1, 395049, Note_on_c, 0, 54, 79
1, 395051, Note_on_c, 0, 66, 74
1, 395053, Note_on_c, 0, 61, 71
1, 395055, Note_on_c, 0, 58, 70
1, 395073, Note_off_c, 0, 54, 66
1, 395081, Note_off_c, 0, 61, 66
1, 395083, Note_off_c, 0, 58, 67
1, 395087, Note_off_c, 0, 66, 57
1, 395151, Note_on_c, 0, 44, 98
1, 395158, Note_on_c, 0, 32, 84
1, 395158, Note_on_c, 0, 37, 81
1, 395198, Note_off_c, 0, 37, 64
1, 395202, Note_off_c, 0, 44, 64
1, 395209, Note_off_c, 0, 32, 55
1, 395260, Note_on_c, 0, 68, 90
1, 395261, Note_on_c, 0, 56, 86
1, 395266, Note_on_c, 0, 61, 77
1, 395292, Note_off_c, 0, 56, 61
1, 395294, Note_off_c, 0, 61, 62
1, 395304, Note_off_c, 0, 68, 54
1, 395361, Note_on_c, 0, 46, 112
1, 395365, Note_on_c, 0, 42, 90
1, 395366, Note_on_c, 0, 34, 89
1, 395371, Note_on_c, 0, 37, 75
1, 395439, Control_c, 0, 64, 72
1, 395454, Control_c, 0, 64, 87
1, 395469, Note_on_c, 0, 70, 101
1, 395469, Control_c, 0, 64, 99
1, 395469, Note_on_c, 0, 58, 104
1, 395469, Note_on_c, 0, 61, 89
1, 395474, Note_on_c, 0, 66, 85
1, 395484, Control_c, 0, 64, 100
1, 395496, Note_on_c, 0, 68, 53
1, 395496, Note_off_c, 0, 61, 65
1, 395497, Note_off_c, 0, 58, 61
1, 395518, Note_off_c, 0, 70, 57
1, 395519, Note_off_c, 0, 68, 57
1, 395522, Note_off_c, 0, 46, 59
1, 395534, Note_off_c, 0, 66, 58
1, 395544, Note_off_c, 0, 42, 61
1, 395559, Note_off_c, 0, 37, 62
1, 395564, Note_off_c, 0, 34, 59
1, 395749, Control_c, 0, 64, 99
1, 395764, Control_c, 0, 64, 96
1, 395779, Control_c, 0, 64, 88
1, 395794, Control_c, 0, 64, 76
1, 395810, Control_c, 0, 64, 52
1, 395824, Control_c, 0, 64, 0
1, 395851, Note_on_c, 0, 42, 96
1, 395853, Note_on_c, 0, 54, 94
1, 395854, Note_on_c, 0, 66, 89
1, 395855, Note_on_c, 0, 58, 80
1, 395856, Note_on_c, 0, 61, 78
1, 395859, Note_on_c, 0, 30, 76
1, 395859, Note_on_c, 0, 37, 72
1, 395862, Note_on_c, 0, 34, 69
1, 395869, Control_c, 0, 64, 58
1, 395880, Note_off_c, 0, 54, 69
1, 395884, Note_off_c, 0, 58, 72
1, 395886, Note_off_c, 0, 61, 70
1, 395886, Note_off_c, 0, 66, 62
1, 395892, Control_c, 0, 64, 67
1, 395906, Control_c, 0, 64, 69
1, 395936, Control_c, 0, 64, 68
1, 395951, Control_c, 0, 64, 63
1, 395955, Note_on_c, 0, 54, 68
1, 395964, Note_on_c, 0, 66, 76
1, 395965, Control_c, 0, 64, 48
1, 395967, Note_off_c, 0, 37, 60
1, 395968, Note_on_c, 0, 58, 69
1, 395968, Note_off_c, 0, 34, 59
1, 395973, Note_on_c, 0, 61, 59
1, 395980, Control_c, 0, 64, 0
1, 395985, Note_off_c, 0, 30, 61
1, 395993, Note_off_c, 0, 42, 61
1, 396000, Note_off_c, 0, 66, 61
1, 396007, Note_off_c, 0, 58, 60
1, 396011, Note_off_c, 0, 54, 57
1, 396011, Note_off_c, 0, 61, 58
1, 396065, Note_on_c, 0, 41, 94
1, 396067, Note_on_c, 0, 37, 81
1, 396071, Note_on_c, 0, 34, 78
1, 396074, Note_on_c, 0, 29, 70
1, 396157, Note_off_c, 0, 29, 62
1, 396164, Note_on_c, 0, 53, 79
1, 396167, Note_off_c, 0, 41, 65
1, 396170, Note_on_c, 0, 65, 74
1, 396174, Note_on_c, 0, 58, 67
1, 396178, Note_on_c, 0, 61, 59
1, 396180, Note_off_c, 0, 37, 65
1, 396193, Note_off_c, 0, 34, 62
1, 396198, Note_off_c, 0, 65, 65
1, 396202, Note_off_c, 0, 53, 62
1, 396205, Note_off_c, 0, 58, 66
1, 396208, Note_off_c, 0, 61, 65
1, 396270, Note_on_c, 0, 39, 89
1, 396280, Note_on_c, 0, 27, 74
1, 396284, Note_on_c, 0, 34, 59
1, 396310, Note_on_c, 0, 35, 55
1, 396311, Note_off_c, 0, 34, 39
1, 396330, Note_on_c, 0, 31, 33
1, 396363, Note_off_c, 0, 35, 61
1, 396374, Note_on_c, 0, 51, 81
1, 396375, Note_on_c, 0, 54, 75
1, 396375, Note_on_c, 0, 63, 75
1, 396378, Note_off_c, 0, 31, 51
1, 396381, Control_c, 0, 64, 36
1, 396383, Note_on_c, 0, 58, 70
1, 396388, Note_off_c, 0, 39, 60
1, 396396, Control_c, 0, 64, 44
1, 396411, Note_off_c, 0, 27, 64
1, 396411, Control_c, 0, 64, 46
1, 396426, Control_c, 0, 64, 45
1, 396441, Control_c, 0, 64, 42
1, 396455, Control_c, 0, 64, 36
1, 396462, Note_off_c, 0, 63, 61
1, 396470, Note_off_c, 0, 51, 61
1, 396470, Control_c, 0, 64, 18
1, 396479, Note_on_c, 0, 37, 94
1, 396482, Note_off_c, 0, 58, 57
1, 396485, Note_on_c, 0, 34, 82
1, 396485, Control_c, 0, 64, 0
1, 396488, Note_on_c, 0, 30, 70
1, 396492, Note_on_c, 0, 25, 71
1, 396498, Note_off_c, 0, 54, 58
1, 396514, Control_c, 0, 64, 21
1, 396529, Control_c, 0, 64, 40
1, 396544, Control_c, 0, 64, 52
1, 396559, Control_c, 0, 64, 59
1, 396568, Note_off_c, 0, 25, 63
1, 396574, Control_c, 0, 64, 62
1, 396575, Note_on_c, 0, 49, 81
1, 396576, Note_off_c, 0, 30, 61
1, 396578, Note_on_c, 0, 61, 77
1, 396581, Note_off_c, 0, 37, 63
1, 396584, Note_on_c, 0, 54, 70
1, 396584, Note_off_c, 0, 34, 62
1, 396588, Control_c, 0, 64, 61
1, 396596, Note_on_c, 0, 58, 70
1, 396603, Control_c, 0, 64, 57
1, 396618, Control_c, 0, 64, 48
1, 396619, Note_off_c, 0, 49, 60
1, 396640, Control_c, 0, 64, 0
1, 396658, Note_off_c, 0, 61, 61
1, 396660, Note_off_c, 0, 54, 61
1, 396661, Note_off_c, 0, 58, 62
1, 396700, Note_on_c, 0, 42, 99
1, 396703, Note_on_c, 0, 30, 81
1, 396706, Note_on_c, 0, 37, 77
1, 396708, Note_on_c, 0, 34, 72
1, 396788, Control_c, 0, 64, 20
1, 396789, Note_off_c, 0, 30, 61
1, 396800, Note_off_c, 0, 37, 65
1, 396801, Note_on_c, 0, 54, 91
1, 396804, Control_c, 0, 64, 38
1, 396805, Note_on_c, 0, 58, 76
1, 396806, Note_on_c, 0, 66, 79
1, 396807, Note_off_c, 0, 34, 62
1, 396813, Note_off_c, 0, 42, 61
1, 396813, Note_on_c, 0, 61, 67
1, 396819, Control_c, 0, 64, 37
1, 396828, Note_off_c, 0, 54, 63
1, 396834, Control_c, 0, 64, 35
1, 396843, Note_off_c, 0, 58, 54
1, 396846, Note_off_c, 0, 61, 63
1, 396849, Control_c, 0, 64, 32
1, 396864, Control_c, 0, 64, 25
1, 396865, Note_off_c, 0, 66, 64
1, 396878, Control_c, 0, 64, 17
1, 396893, Control_c, 0, 64, 0
1, 396909, Note_on_c, 0, 44, 101
1, 396913, Note_on_c, 0, 32, 89
1, 396919, Note_on_c, 0, 37, 75
1, 396982, Control_c, 0, 64, 21
1, 396989, Note_off_c, 0, 37, 62
1, 396992, Note_off_c, 0, 32, 58
1, 396997, Control_c, 0, 64, 35
1, 397003, Note_on_c, 0, 56, 87
1, 397005, Note_on_c, 0, 68, 84
1, 397010, Note_on_c, 0, 61, 76
1, 397011, Control_c, 0, 64, 44
1, 397019, Note_off_c, 0, 44, 60
1, 397026, Control_c, 0, 64, 49
1, 397041, Control_c, 0, 64, 52
1, 397056, Control_c, 0, 64, 54
1, 397061, Note_off_c, 0, 56, 57
1, 397071, Control_c, 0, 64, 53
1, 397085, Control_c, 0, 64, 42
1, 397100, Control_c, 0, 64, 0
1, 397110, Note_off_c, 0, 68, 59
1, 397117, Note_on_c, 0, 46, 106
1, 397122, Note_on_c, 0, 42, 87
1, 397124, Note_on_c, 0, 34, 85
1, 397124, Note_on_c, 0, 37, 76
1, 397137, Note_off_c, 0, 61, 62
1, 397218, Note_on_c, 0, 58, 110
1, 397219, Note_on_c, 0, 70, 97
1, 397219, Control_c, 0, 64, 63
1, 397223, Note_on_c, 0, 61, 94
1, 397225, Note_on_c, 0, 66, 89
1, 397234, Control_c, 0, 64, 75
1, 397248, Control_c, 0, 64, 89
1, 397257, Note_off_c, 0, 58, 65
1, 397263, Control_c, 0, 64, 97
1, 397270, Note_off_c, 0, 34, 61
1, 397271, Note_off_c, 0, 70, 62
1, 397278, Control_c, 0, 64, 98
1, 397281, Note_off_c, 0, 66, 67
1, 397281, Note_off_c, 0, 37, 61
1, 397281, Note_off_c, 0, 61, 61
1, 397293, Note_off_c, 0, 46, 58
1, 397298, Note_off_c, 0, 42, 58
1, 397329, Poly_aftertouch_c, 0, 68, 0
1, 397433, Control_c, 0, 64, 97
1, 397463, Control_c, 0, 64, 95
1, 397477, Control_c, 0, 64, 89
1, 397492, Control_c, 0, 64, 79
1, 397507, Control_c, 0, 64, 66
1, 397522, Control_c, 0, 64, 0
1, 397689, Note_on_c, 0, 73, 92
1, 397690, Note_on_c, 0, 61, 96
1, 397693, Note_on_c, 0, 66, 86
1, 397697, Note_on_c, 0, 70, 77
1, 397708, Note_on_c, 0, 49, 64
1, 397710, Note_on_c, 0, 46, 61
1, 397710, Note_on_c, 0, 54, 68
1, 397715, Control_c, 0, 64, 60
1, 397719, Note_on_c, 0, 42, 60
1, 397730, Control_c, 0, 64, 68
1, 397745, Control_c, 0, 64, 74
1, 397759, Control_c, 0, 64, 82
1, 397774, Control_c, 0, 64, 85
1, 397789, Control_c, 0, 64, 86
1, 397804, Control_c, 0, 64, 87
1, 397819, Control_c, 0, 64, 87
1, 397833, Control_c, 0, 64, 88
1, 397878, Control_c, 0, 64, 88
1, 397893, Control_c, 0, 64, 89
1, 397907, Control_c, 0, 64, 91
1, 397922, Note_off_c, 0, 42, 37
1, 397922, Control_c, 0, 64, 96
1, 397928, Note_off_c, 0, 54, 46
1, 397937, Control_c, 0, 64, 103
1, 397941, Note_off_c, 0, 61, 60
1, 397943, Note_off_c, 0, 46, 30
1, 397948, Note_off_c, 0, 73, 61
1, 397952, Control_c, 0, 64, 108
1, 397965, Note_off_c, 0, 70, 57
1, 397967, Control_c, 0, 64, 109
1, 397968, Note_off_c, 0, 66, 63
1, 397997, Control_c, 0, 64, 109
1, 398000, Note_off_c, 0, 49, 0
1, 398012, Control_c, 0, 64, 105
1, 398026, Control_c, 0, 64, 97
1, 398033, Note_on_c, 0, 66, 83
1, 398034, Note_on_c, 0, 61, 84
1, 398035, Note_on_c, 0, 73, 73
1, 398036, Poly_aftertouch_c, 0, 49, 127
1, 398037, Note_on_c, 0, 54, 62
1, 398038, Note_on_c, 0, 42, 49
1, 398041, Control_c, 0, 64, 84
1, 398056, Control_c, 0, 64, 71
1, 398057, Note_off_c, 0, 73, 60
1, 398058, Note_on_c, 0, 71, 47
1, 398058, Note_off_c, 0, 42, 61
1, 398059, Note_off_c, 0, 61, 66
1, 398068, Note_off_c, 0, 54, 64
1, 398071, Control_c, 0, 64, 51
1, 398074, Poly_aftertouch_c, 0, 49, 0
1, 398079, Note_off_c, 0, 66, 65
1, 398083, Note_off_c, 0, 71, 50
1, 398086, Control_c, 0, 64, 0
1, 398100, Control_c, 0, 64, 45
1, 398115, Control_c, 0, 64, 63
1, 398137, Note_on_c, 0, 70, 52
1, 398137, Control_c, 0, 64, 70
1, 398146, Note_on_c, 0, 63, 97
1, 398148, Note_on_c, 0, 66, 84
1, 398149, Note_on_c, 0, 75, 89
1, 398152, Control_c, 0, 64, 76
1, 398153, Note_on_c, 0, 54, 73
1, 398154, Note_on_c, 0, 71, 78
1, 398155, Note_on_c, 0, 59, 75
1, 398156, Note_on_c, 0, 51, 71
1, 398166, Note_on_c, 0, 47, 62
1, 398167, Control_c, 0, 64, 81
1, 398179, Note_off_c, 0, 59, 67
1, 398182, Control_c, 0, 64, 85
1, 398187, Note_off_c, 0, 71, 56
1, 398191, Note_off_c, 0, 70, 54
1, 398196, Note_off_c, 0, 47, 64
1, 398196, Control_c, 0, 64, 86
1, 398198, Note_off_c, 0, 63, 64
1, 398201, Note_off_c, 0, 54, 61
1, 398202, Note_off_c, 0, 75, 61
1, 398205, Note_off_c, 0, 66, 67
1, 398209, Note_off_c, 0, 51, 58
1, 398226, Control_c, 0, 64, 86
1, 398330, Control_c, 0, 64, 87
1, 398359, Control_c, 0, 64, 87
1, 398370, Note_on_c, 0, 61, 105
1, 398372, Note_on_c, 0, 54, 82
1, 398372, Note_on_c, 0, 73, 96
1, 398375, Note_on_c, 0, 42, 72
1, 398378, Note_on_c, 0, 66, 82
1, 398381, Note_on_c, 0, 49, 62
1, 398382, Note_on_c, 0, 70, 69
1, 398389, Control_c, 0, 64, 88
1, 398392, Note_on_c, 0, 46, 45
1, 398392, Note_off_c, 0, 54, 70
1, 398392, Note_off_c, 0, 61, 62
1, 398402, Note_off_c, 0, 66, 69
1, 398404, Note_off_c, 0, 49, 60
1, 398405, Control_c, 0, 64, 89
1, 398410, Note_off_c, 0, 70, 66
1, 398410, Note_off_c, 0, 73, 59
1, 398411, Note_off_c, 0, 42, 63
1, 398420, Control_c, 0, 64, 89
1, 398424, Note_off_c, 0, 46, 49
1, 398435, Control_c, 0, 64, 90
1, 398449, Control_c, 0, 64, 91
1, 398464, Control_c, 0, 64, 91
1, 398479, Control_c, 0, 64, 92
1, 398494, Control_c, 0, 64, 93
1, 398509, Control_c, 0, 64, 96
1, 398523, Control_c, 0, 64, 101
1, 398538, Control_c, 0, 64, 105
1, 398553, Control_c, 0, 64, 105
1, 398582, Control_c, 0, 64, 104
1, 398597, Control_c, 0, 64, 94
1, 398612, Control_c, 0, 64, 76
1, 398618, Note_on_c, 0, 46, 101
1, 398619, Note_on_c, 0, 70, 115
1, 398620, Note_on_c, 0, 58, 104
1, 398622, Note_on_c, 0, 34, 92
1, 398627, Control_c, 0, 64, 0
1, 398686, Control_c, 0, 64, 43
1, 398701, Control_c, 0, 64, 68
1, 398716, Control_c, 0, 64, 80
1, 398722, Note_off_c, 0, 34, 62
1, 398730, Control_c, 0, 64, 90
1, 398745, Control_c, 0, 64, 93
1, 398799, Note_off_c, 0, 46, 58
1, 398831, Note_off_c, 0, 70, 39
1, 398858, Note_off_c, 0, 58, 59
1, 398951, Note_on_c, 0, 68, 85
1, 398955, Note_on_c, 0, 38, 62
1, 398957, Note_on_c, 0, 58, 78
1, 398960, Note_on_c, 0, 46, 63
1, 398960, Control_c, 0, 64, 92
1, 398974, Control_c, 0, 64, 88
1, 398985, Note_off_c, 0, 58, 67
1, 398988, Note_off_c, 0, 46, 65
1, 398989, Control_c, 0, 64, 81
1, 398995, Note_off_c, 0, 68, 59
1, 399004, Note_off_c, 0, 38, 57
1, 399004, Control_c, 0, 64, 69
1, 399019, Control_c, 0, 64, 0
1, 399053, Note_on_c, 0, 46, 66
1, 399058, Note_on_c, 0, 66, 81
1, 399059, Note_on_c, 0, 58, 77
1, 399063, Note_on_c, 0, 39, 58
1, 399084, Note_off_c, 0, 58, 68
1, 399088, Note_off_c, 0, 66, 66
1, 399088, Note_off_c, 0, 46, 61
1, 399109, Note_off_c, 0, 39, 60
1, 399155, Note_on_c, 0, 46, 76
1, 399157, Note_on_c, 0, 65, 84
1, 399165, Note_on_c, 0, 58, 73
1, 399169, Note_on_c, 0, 41, 61
1, 399187, Note_off_c, 0, 46, 63
1, 399190, Note_off_c, 0, 58, 69
1, 399215, Note_off_c, 0, 65, 64
1, 399227, Note_off_c, 0, 41, 61
1, 399228, Control_c, 0, 64, 60
1, 399243, Control_c, 0, 64, 71
1, 399258, Control_c, 0, 64, 79
1, 399259, Note_on_c, 0, 46, 83
1, 399263, Note_on_c, 0, 58, 76
1, 399265, Note_on_c, 0, 63, 88
1, 399272, Control_c, 0, 64, 87
1, 399273, Note_on_c, 0, 42, 65
1, 399287, Note_off_c, 0, 58, 69
1, 399287, Control_c, 0, 64, 90
1, 399302, Control_c, 0, 64, 91
1, 399305, Note_off_c, 0, 63, 67
1, 399308, Note_off_c, 0, 42, 65
1, 399313, Note_off_c, 0, 46, 61
1, 399317, Control_c, 0, 64, 93
1, 399331, Control_c, 0, 64, 95
1, 399346, Control_c, 0, 64, 97
1, 399391, Control_c, 0, 64, 96
1, 399405, Control_c, 0, 64, 88
1, 399420, Control_c, 0, 64, 76
1, 399435, Control_c, 0, 64, 57
1, 399450, Control_c, 0, 64, 0
1, 399451, Note_on_c, 0, 71, 64
1, 399465, Note_on_c, 0, 66, 103
1, 399465, Control_c, 0, 64, 64
1, 399466, Note_on_c, 0, 70, 92
1, 399466, Note_on_c, 0, 54, 88
1, 399479, Control_c, 0, 64, 77
1, 399485, Note_off_c, 0, 71, 64
1, 399494, Control_c, 0, 64, 89
1, 399509, Control_c, 0, 64, 97
1, 399512, Note_off_c, 0, 70, 60
1, 399523, Control_c, 0, 64, 98
1, 399529, Note_on_c, 0, 69, 67
1, 399539, Note_off_c, 0, 66, 51
1, 399541, Note_off_c, 0, 54, 57
1, 399613, Control_c, 0, 64, 97
1, 399624, Note_on_c, 0, 70, 88
1, 399635, Note_off_c, 0, 69, 39
1, 399636, Control_c, 0, 64, 93
1, 399651, Control_c, 0, 64, 87
1, 399666, Control_c, 0, 64, 79
1, 399670, Note_on_c, 0, 68, 90
1, 399675, Note_on_c, 0, 56, 81
1, 399675, Note_off_c, 0, 70, 61
1, 399680, Note_on_c, 0, 71, 75
1, 399680, Control_c, 0, 64, 67
1, 399694, Note_on_c, 0, 59, 36
1, 399695, Control_c, 0, 64, 24
1, 399699, Note_off_c, 0, 68, 63
1, 399710, Control_c, 0, 64, 0
1, 399718, Note_off_c, 0, 56, 60
1, 399724, Note_off_c, 0, 59, 46
1, 399768, Note_on_c, 0, 70, 85
1, 399773, Note_off_c, 0, 71, 56
1, 399791, Note_on_c, 0, 54, 67
1, 399793, Note_on_c, 0, 66, 50
1, 399794, Note_off_c, 0, 66, 127
1, 399797, Note_off_c, 0, 70, 59
1, 399800, Note_on_c, 0, 58, 47
1, 399824, Note_off_c, 0, 58, 55
1, 399827, Note_off_c, 0, 54, 64
1, 399873, Note_on_c, 0, 68, 87
1, 399880, Note_on_c, 0, 65, 77
1, 399888, Note_on_c, 0, 56, 76
1, 399899, Note_on_c, 0, 53, 56
1, 399904, Note_off_c, 0, 65, 71
1, 399913, Note_off_c, 0, 56, 65
1, 399922, Note_off_c, 0, 53, 58
1, 399929, Note_off_c, 0, 68, 63
1, 399973, Note_on_c, 0, 63, 85
1, 399973, Note_on_c, 0, 66, 68
1, 399991, Note_on_c, 0, 54, 62
1, 399995, Note_on_c, 0, 51, 54
1, 400019, Note_off_c, 0, 66, 65
1, 400022, Note_off_c, 0, 54, 63
1, 400022, Note_off_c, 0, 63, 62
1, 400025, Note_off_c, 0, 51, 64
1, 400066, Control_c, 0, 64, 61
1, 400073, Note_on_c, 0, 65, 89
1, 400074, Note_on_c, 0, 58, 91
1, 400081, Control_c, 0, 64, 68
1, 400083, Note_on_c, 0, 53, 89
1, 400084, Note_on_c, 0, 46, 85
1, 400095, Control_c, 0, 64, 75
1, 400107, Note_off_c, 0, 65, 66
1, 400110, Control_c, 0, 64, 83
1, 400120, Note_off_c, 0, 53, 66
1, 400125, Control_c, 0, 64, 88
1, 400131, Note_off_c, 0, 46, 58
1, 400140, Control_c, 0, 64, 92
1, 400146, Note_off_c, 0, 58, 63
1, 400155, Control_c, 0, 64, 97
1, 400170, Control_c, 0, 64, 111
1, 400185, Control_c, 0, 64, 127
1, 400274, Control_c, 0, 64, 122
1, 400289, Control_c, 0, 64, 86
1, 400303, Control_c, 0, 64, 0
1, 400311, Note_on_c, 0, 63, 98
1, 400312, Note_on_c, 0, 54, 113
1, 400316, Note_on_c, 0, 51, 93
1, 400317, Note_on_c, 0, 58, 90
1, 400318, Note_on_c, 0, 39, 80
1, 400319, Note_on_c, 0, 46, 84
1, 400373, Note_off_c, 0, 54, 62
1, 400396, Note_off_c, 0, 58, 59
1, 400396, Note_off_c, 0, 63, 62
1, 400399, Control_c, 0, 64, 73
1, 400414, Control_c, 0, 64, 91
1, 400420, Note_off_c, 0, 39, 59
1, 400429, Control_c, 0, 64, 104
1, 400443, Note_off_c, 0, 46, 57
1, 400444, Control_c, 0, 64, 109
1, 400446, Note_off_c, 0, 51, 52
1, 400459, Control_c, 0, 64, 113
1, 400474, Control_c, 0, 64, 114
1, 400489, Control_c, 0, 64, 114
1, 400503, Control_c, 0, 64, 115
1, 400533, Control_c, 0, 64, 121
1, 400547, Control_c, 0, 64, 127
1, 400769, Control_c, 0, 64, 116
1, 400784, Control_c, 0, 64, 91
1, 400800, Note_on_c, 0, 85, 99
1, 400800, Control_c, 0, 64, 69
1, 400805, Note_on_c, 0, 73, 97
1, 400809, Note_on_c, 0, 78, 87
1, 400810, Note_on_c, 0, 82, 81
1, 400815, Note_on_c, 0, 54, 81
1, 400815, Control_c, 0, 64, 0
1, 400818, Note_on_c, 0, 49, 76
1, 400820, Note_on_c, 0, 42, 76
1, 400820, Note_on_c, 0, 46, 71
1, 400874, Control_c, 0, 64, 66
1, 400889, Control_c, 0, 64, 77
1, 400904, Control_c, 0, 64, 88
1, 400918, Control_c, 0, 64, 95
1, 400933, Control_c, 0, 64, 96
1, 400948, Control_c, 0, 64, 98
1, 400963, Control_c, 0, 64, 100
1, 400978, Control_c, 0, 64, 105
1, 400993, Control_c, 0, 64, 115
1, 401007, Control_c, 0, 64, 127
1, 401031, Note_off_c, 0, 42, 60
1, 401034, Note_off_c, 0, 54, 56
1, 401040, Note_off_c, 0, 73, 58
1, 401042, Note_off_c, 0, 46, 50
1, 401049, Note_off_c, 0, 85, 63
1, 401055, Note_off_c, 0, 82, 60
1, 401056, Note_off_c, 0, 78, 62
1, 401068, Note_off_c, 0, 49, 49
1, 401096, Control_c, 0, 64, 107
1, 401118, Control_c, 0, 64, 87
1, 401133, Control_c, 0, 64, 66
1, 401139, Note_on_c, 0, 73, 87
1, 401139, Note_on_c, 0, 49, 41
1, 401142, Note_on_c, 0, 42, 65
1, 401142, Note_on_c, 0, 54, 67
1, 401143, Note_on_c, 0, 78, 80
1, 401143, Note_on_c, 0, 85, 73
1, 401146, Note_on_c, 0, 82, 71
1, 401148, Control_c, 0, 64, 0
1, 401161, Note_off_c, 0, 73, 65
1, 401162, Note_off_c, 0, 85, 68
1, 401171, Note_off_c, 0, 49, 63
1, 401171, Note_off_c, 0, 54, 65
1, 401174, Note_off_c, 0, 42, 65
1, 401176, Note_off_c, 0, 78, 66
1, 401176, Note_off_c, 0, 82, 65
1, 401207, Control_c, 0, 64, 65
1, 401222, Control_c, 0, 64, 72
1, 401237, Control_c, 0, 64, 78
1, 401243, Note_on_c, 0, 83, 87
1, 401245, Note_on_c, 0, 87, 93
1, 401246, Note_on_c, 0, 75, 97
1, 401247, Note_on_c, 0, 78, 93
1, 401251, Control_c, 0, 64, 84
1, 401255, Note_on_c, 0, 54, 76
1, 401259, Note_on_c, 0, 51, 76
1, 401261, Note_on_c, 0, 59, 80
1, 401266, Control_c, 0, 64, 87
1, 401269, Note_on_c, 0, 47, 65
1, 401281, Control_c, 0, 64, 90
1, 401284, Note_off_c, 0, 59, 68
1, 401288, Note_off_c, 0, 83, 60
1, 401291, Note_off_c, 0, 75, 63
1, 401296, Control_c, 0, 64, 91
1, 401300, Note_off_c, 0, 78, 64
1, 401300, Note_off_c, 0, 87, 63
1, 401302, Note_off_c, 0, 51, 56
1, 401305, Note_off_c, 0, 47, 64
1, 401306, Note_off_c, 0, 54, 59
1, 401310, Control_c, 0, 64, 92
1, 401325, Control_c, 0, 64, 93
1, 401340, Control_c, 0, 64, 93
1, 401370, Control_c, 0, 64, 94
1, 401458, Control_c, 0, 64, 94
1, 401460, Note_on_c, 0, 54, 82
1, 401465, Note_on_c, 0, 85, 98
1, 401466, Note_on_c, 0, 73, 103
1, 401466, Note_on_c, 0, 42, 74
1, 401469, Note_on_c, 0, 78, 85
1, 401472, Note_on_c, 0, 49, 64
1, 401476, Note_on_c, 0, 82, 69
1, 401477, Note_on_c, 0, 46, 52
1, 401481, Note_off_c, 0, 73, 69
1, 401486, Note_off_c, 0, 54, 65
1, 401487, Note_off_c, 0, 78, 73
1, 401494, Note_off_c, 0, 49, 61
1, 401499, Note_off_c, 0, 82, 65
1, 401502, Note_off_c, 0, 85, 57
1, 401506, Note_off_c, 0, 46, 58
1, 401523, Note_off_c, 0, 42, 62
1, 401562, Control_c, 0, 64, 95
1, 401577, Control_c, 0, 64, 95
1, 401592, Control_c, 0, 64, 96
1, 401607, Control_c, 0, 64, 97
1, 401622, Control_c, 0, 64, 97
1, 401652, Control_c, 0, 64, 95
1, 401666, Control_c, 0, 64, 87
1, 401681, Control_c, 0, 64, 67
1, 401696, Note_on_c, 0, 82, 102
1, 401696, Note_on_c, 0, 46, 102
1, 401696, Control_c, 0, 64, 0
1, 401698, Note_on_c, 0, 70, 107
1, 401703, Note_on_c, 0, 34, 91
1, 401771, Control_c, 0, 64, 63
1, 401773, Note_on_c, 0, 80, 31
1, 401785, Control_c, 0, 64, 74
1, 401800, Control_c, 0, 64, 85
1, 401803, Note_off_c, 0, 34, 63
1, 401815, Control_c, 0, 64, 94
1, 401830, Control_c, 0, 64, 96
1, 401844, Note_off_c, 0, 46, 61
1, 401860, Control_c, 0, 64, 96
1, 401921, Note_off_c, 0, 70, 54
1, 401934, Note_off_c, 0, 80, 42
1, 401934, Note_off_c, 0, 82, 56
1, 402020, Note_on_c, 0, 80, 90
1, 402023, Note_on_c, 0, 50, 59
1, 402027, Note_on_c, 0, 68, 87
1, 402027, Note_on_c, 0, 38, 46
1, 402038, Note_on_c, 0, 46, 52
1, 402045, Control_c, 0, 64, 95
1, 402045, Note_off_c, 0, 50, 61
1, 402057, Note_off_c, 0, 46, 63
1, 402057, Note_off_c, 0, 68, 65
1, 402060, Note_off_c, 0, 80, 61
1, 402060, Control_c, 0, 64, 92
1, 402064, Note_off_c, 0, 38, 49
1, 402074, Control_c, 0, 64, 87
1, 402089, Control_c, 0, 64, 79
1, 402104, Control_c, 0, 64, 69
1, 402116, Note_on_c, 0, 46, 69
1, 402118, Control_c, 0, 64, 44
1, 402122, Note_on_c, 0, 51, 71
1, 402125, Note_on_c, 0, 78, 89
1, 402128, Note_on_c, 0, 66, 84
1, 402128, Note_on_c, 0, 39, 59
1, 402133, Control_c, 0, 64, 0
1, 402143, Note_off_c, 0, 46, 65
1, 402146, Note_off_c, 0, 78, 67
1, 402149, Note_off_c, 0, 51, 65
1, 402152, Note_off_c, 0, 66, 68
1, 402153, Note_off_c, 0, 39, 60
1, 402224, Note_on_c, 0, 77, 94
1, 402224, Note_on_c, 0, 46, 67
1, 402226, Note_on_c, 0, 53, 74
1, 402227, Note_on_c, 0, 65, 88
1, 402239, Note_on_c, 0, 41, 48
1, 402252, Note_off_c, 0, 53, 69
1, 402258, Note_off_c, 0, 65, 66
1, 402261, Note_off_c, 0, 77, 64
1, 402263, Note_off_c, 0, 46, 63
1, 402273, Note_off_c, 0, 41, 56
1, 402296, Control_c, 0, 64, 60
1, 402311, Control_c, 0, 64, 68
1, 402325, Control_c, 0, 64, 74
1, 402328, Note_on_c, 0, 54, 95
1, 402331, Note_on_c, 0, 42, 84
1, 402331, Note_on_c, 0, 75, 99
1, 402334, Note_on_c, 0, 63, 95
1, 402334, Note_on_c, 0, 46, 80
1, 402340, Control_c, 0, 64, 84
1, 402355, Control_c, 0, 64, 92
1, 402370, Control_c, 0, 64, 97
1, 402371, Note_off_c, 0, 63, 63
1, 402376, Note_off_c, 0, 42, 60
1, 402378, Note_off_c, 0, 46, 59
1, 402385, Control_c, 0, 64, 100
1, 402398, Note_off_c, 0, 54, 60
1, 402401, Control_c, 0, 64, 102
1, 402411, Note_off_c, 0, 75, 60
1, 402415, Control_c, 0, 64, 103
1, 402460, Control_c, 0, 64, 104
1, 402528, Note_on_c, 0, 83, 90
1, 402540, Note_on_c, 0, 54, 80
1, 402540, Note_on_c, 0, 66, 93
1, 402541, Note_on_c, 0, 82, 77
1, 402560, Note_on_c, 0, 58, 52
1, 402566, Note_off_c, 0, 83, 58
1, 402595, Note_off_c, 0, 82, 63
1, 402603, Note_off_c, 0, 58, 44
1, 402608, Note_on_c, 0, 81, 85
1, 402621, Note_off_c, 0, 54, 57
1, 402642, Note_off_c, 0, 66, 61
1, 402661, Control_c, 0, 64, 103
1, 402676, Control_c, 0, 64, 103
1, 402680, Note_off_c, 0, 81, 64
1, 402681, Note_on_c, 0, 82, 77
1, 402691, Control_c, 0, 64, 99
1, 402705, Control_c, 0, 64, 92
1, 402720, Control_c, 0, 64, 82
1, 402730, Note_off_c, 0, 82, 61
1, 402735, Control_c, 0, 64, 67
1, 402749, Control_c, 0, 64, 0
1, 402750, Note_on_c, 0, 83, 88
1, 402751, Note_on_c, 0, 71, 88
1, 402756, Note_on_c, 0, 56, 67
1, 402756, Note_on_c, 0, 68, 70
1, 402775, Note_off_c, 0, 71, 65
1, 402775, Note_off_c, 0, 83, 62
1, 402784, Note_off_c, 0, 68, 67
1, 402787, Note_off_c, 0, 56, 65
1, 402853, Note_on_c, 0, 66, 72
1, 402855, Note_on_c, 0, 54, 70
1, 402858, Note_on_c, 0, 82, 87
1, 402867, Note_on_c, 0, 70, 79
1, 402876, Note_off_c, 0, 82, 72
1, 402880, Note_off_c, 0, 66, 69
1, 402885, Note_off_c, 0, 70, 68
1, 402888, Note_off_c, 0, 54, 59
1, 402952, Note_on_c, 0, 80, 86
1, 402955, Note_on_c, 0, 53, 67
1, 402955, Note_on_c, 0, 65, 67
1, 402960, Note_on_c, 0, 68, 84
1, 402974, Note_off_c, 0, 65, 68
1, 402981, Note_off_c, 0, 80, 58
1, 402982, Note_off_c, 0, 68, 70
1, 402985, Note_off_c, 0, 53, 67
1, 403054, Note_on_c, 0, 78, 75
1, 403060, Note_on_c, 0, 51, 75
1, 403062, Note_on_c, 0, 66, 80
1, 403064, Note_on_c, 0, 63, 66
1, 403085, Note_off_c, 0, 66, 71
1, 403087, Note_off_c, 0, 51, 66
1, 403087, Note_off_c, 0, 63, 66
1, 403089, Note_off_c, 0, 78, 64
1, 403120, Control_c, 0, 64, 62
1, 403135, Control_c, 0, 64, 70
1, 403149, Control_c, 0, 64, 78
1, 403156, Note_on_c, 0, 65, 101
1, 403157, Note_on_c, 0, 77, 93
1, 403164, Control_c, 0, 64, 88
1, 403166, Note_on_c, 0, 58, 95
1, 403167, Note_on_c, 0, 46, 89
1, 403179, Control_c, 0, 64, 93
1, 403195, Control_c, 0, 64, 96
1, 403198, Note_off_c, 0, 46, 62
1, 403206, Note_off_c, 0, 77, 59
1, 403210, Control_c, 0, 64, 101
1, 403225, Control_c, 0, 64, 107
1, 403237, Note_off_c, 0, 58, 60
1, 403239, Control_c, 0, 64, 113
1, 403254, Control_c, 0, 64, 116
1, 403269, Control_c, 0, 64, 117
1, 403310, Note_off_c, 0, 65, 61
1, 403313, Control_c, 0, 64, 109
1, 403328, Control_c, 0, 64, 95
1, 403343, Control_c, 0, 64, 79
1, 403356, Note_on_c, 0, 70, 74
1, 403358, Control_c, 0, 64, 64
1, 403378, Note_on_c, 0, 71, 87
1, 403380, Control_c, 0, 64, 60
1, 403384, Note_on_c, 0, 66, 100
1, 403389, Note_on_c, 0, 54, 83
1, 403389, Note_off_c, 0, 70, 66
1, 403395, Control_c, 0, 64, 69
1, 403401, Note_on_c, 0, 58, 64
1, 403410, Control_c, 0, 64, 79
1, 403425, Control_c, 0, 64, 89
1, 403435, Note_off_c, 0, 71, 52
1, 403440, Control_c, 0, 64, 95
1, 403441, Note_off_c, 0, 58, 50
1, 403454, Control_c, 0, 64, 96
1, 403458, Note_on_c, 0, 70, 88
1, 403476, Note_off_c, 0, 54, 60
1, 403490, Note_off_c, 0, 66, 61
1, 403502, Note_on_c, 0, 69, 79
1, 403502, Note_off_c, 0, 70, 63
1, 403514, Control_c, 0, 64, 95
1, 403528, Control_c, 0, 64, 92
1, 403543, Control_c, 0, 64, 86
1, 403558, Control_c, 0, 64, 77
1, 403568, Note_off_c, 0, 69, 60
1, 403573, Control_c, 0, 64, 65
1, 403574, Note_on_c, 0, 70, 76
1, 403588, Control_c, 0, 64, 0
1, 403589, Note_on_c, 0, 68, 88
1, 403598, Note_on_c, 0, 56, 70
1, 403601, Note_on_c, 0, 59, 62
1, 403601, Note_on_c, 0, 71, 87
1, 403610, Note_off_c, 0, 70, 65
1, 403619, Note_off_c, 0, 68, 63
1, 403628, Note_off_c, 0, 59, 63
1, 403634, Note_off_c, 0, 56, 63
1, 403644, Note_off_c, 0, 71, 60
1, 403693, Note_on_c, 0, 70, 88
1, 403705, Note_on_c, 0, 66, 70
1, 403711, Note_on_c, 0, 54, 70
1, 403716, Note_on_c, 0, 58, 52
1, 403723, Note_off_c, 0, 66, 66
1, 403723, Note_off_c, 0, 70, 60
1, 403738, Note_off_c, 0, 58, 62
1, 403745, Note_off_c, 0, 54, 65
1, 403799, Note_on_c, 0, 68, 87
1, 403805, Note_on_c, 0, 65, 82
1, 403809, Note_on_c, 0, 56, 79
1, 403817, Note_on_c, 0, 53, 63
1, 403837, Note_off_c, 0, 65, 64
1, 403841, Note_off_c, 0, 56, 58
1, 403854, Note_off_c, 0, 53, 64
1, 403869, Note_off_c, 0, 68, 58
1, 403896, Note_on_c, 0, 66, 77
1, 403899, Note_on_c, 0, 63, 78
1, 403905, Note_on_c, 0, 54, 68
1, 403916, Note_on_c, 0, 51, 50
1, 403942, Note_off_c, 0, 54, 61
1, 403943, Note_off_c, 0, 66, 65
1, 403950, Note_off_c, 0, 51, 64
1, 403952, Note_off_c, 0, 63, 63
1, 403973, Control_c, 0, 64, 59
1, 403988, Control_c, 0, 64, 68
1, 403998, Note_on_c, 0, 65, 89
1, 404003, Note_on_c, 0, 58, 94
1, 404003, Control_c, 0, 64, 76
1, 404004, Note_on_c, 0, 53, 89
1, 404006, Note_on_c, 0, 46, 85
1, 404018, Control_c, 0, 64, 87
1, 404033, Control_c, 0, 64, 94
1, 404038, Note_off_c, 0, 65, 66
1, 404047, Control_c, 0, 64, 95
1, 404052, Note_off_c, 0, 53, 65
1, 404061, Control_c, 0, 64, 96
1, 404062, Note_off_c, 0, 46, 62
1, 404076, Control_c, 0, 64, 96
1, 404080, Note_off_c, 0, 58, 64
1, 404091, Control_c, 0, 64, 97
1, 404106, Control_c, 0, 64, 97
1, 404128, Control_c, 0, 64, 98
1, 404143, Control_c, 0, 64, 101
1, 404158, Control_c, 0, 64, 104
1, 404173, Control_c, 0, 64, 106
1, 404217, Control_c, 0, 64, 105
1, 404232, Control_c, 0, 64, 100
1, 404247, Control_c, 0, 64, 90
1, 404248, Note_on_c, 0, 58, 87
1, 404254, Note_on_c, 0, 54, 105
1, 404258, Note_on_c, 0, 46, 86
1, 404260, Note_on_c, 0, 42, 90
1, 404262, Control_c, 0, 64, 77
1, 404276, Control_c, 0, 64, 69
1, 404288, Note_on_c, 0, 59, 74
1, 404291, Control_c, 0, 64, 68
1, 404295, Note_off_c, 0, 58, 65
1, 404306, Control_c, 0, 64, 72
1, 404320, Control_c, 0, 64, 78
1, 404335, Control_c, 0, 64, 83
1, 404350, Control_c, 0, 64, 86
1, 404364, Note_off_c, 0, 46, 61
1, 404365, Control_c, 0, 64, 87
1, 404370, Note_on_c, 0, 58, 76
1, 404370, Note_off_c, 0, 59, 62
1, 404397, Note_off_c, 0, 42, 56
1, 404419, Note_off_c, 0, 58, 63
1, 404444, Note_off_c, 0, 54, 56
1, 404445, Note_on_c, 0, 57, 71
1, 404483, Control_c, 0, 64, 86
1, 404498, Control_c, 0, 64, 82
1, 404505, Note_off_c, 0, 57, 62
1, 404507, Note_on_c, 0, 58, 73
1, 404513, Control_c, 0, 64, 75
1, 404528, Control_c, 0, 64, 64
1, 404542, Note_on_c, 0, 56, 91
1, 404543, Control_c, 0, 64, 0
1, 404544, Note_on_c, 0, 59, 90
1, 404546, Note_on_c, 0, 47, 71
1, 404550, Note_on_c, 0, 44, 76
1, 404567, Note_off_c, 0, 58, 65
1, 404582, Note_off_c, 0, 59, 66
1, 404585, Note_off_c, 0, 56, 64
1, 404589, Note_off_c, 0, 47, 66
1, 404604, Note_off_c, 0, 44, 60
1, 404707, Note_on_c, 0, 58, 100
1, 404709, Note_on_c, 0, 54, 87
1, 404719, Note_on_c, 0, 42, 74
1, 404720, Note_on_c, 0, 46, 68
1, 404732, Note_off_c, 0, 54, 68
1, 404741, Note_off_c, 0, 58, 63
1, 404751, Note_off_c, 0, 46, 64
1, 404763, Note_off_c, 0, 42, 64
1, 404886, Note_on_c, 0, 54, 89
1, 404890, Note_on_c, 0, 44, 96
1, 404892, Note_on_c, 0, 56, 84
1, 404900, Note_on_c, 0, 41, 70
1, 404901, Note_off_c, 0, 54, 65
1, 404908, Note_on_c, 0, 53, 74
1, 404929, Note_off_c, 0, 44, 58
1, 404934, Note_off_c, 0, 53, 70
1, 404971, Note_off_c, 0, 56, 60
1, 404976, Note_off_c, 0, 41, 38
1, 405025, Control_c, 0, 64, 24
1, 405040, Control_c, 0, 64, 29
1, 405055, Control_c, 0, 64, 33
1, 405070, Control_c, 0, 64, 38
1, 405073, Note_on_c, 0, 54, 92
1, 405074, Note_on_c, 0, 42, 75
1, 405074, Note_on_c, 0, 51, 88
1, 405076, Note_on_c, 0, 39, 71
1, 405085, Control_c, 0, 64, 43
1, 405099, Control_c, 0, 64, 48
1, 405111, Note_off_c, 0, 42, 65
1, 405114, Control_c, 0, 64, 51
1, 405120, Note_off_c, 0, 39, 61
1, 405128, Note_off_c, 0, 51, 60
1, 405129, Control_c, 0, 64, 52
1, 405130, Note_off_c, 0, 54, 60
1, 405143, Control_c, 0, 64, 53
1, 405158, Control_c, 0, 64, 55
1, 405173, Control_c, 0, 64, 57
1, 405188, Control_c, 0, 64, 60
1, 405203, Control_c, 0, 64, 62
1, 405217, Control_c, 0, 64, 62
1, 405232, Control_c, 0, 64, 61
1, 405247, Control_c, 0, 64, 50
1, 405262, Control_c, 0, 64, 0
1, 405306, Note_on_c, 0, 41, 105
1, 405306, Note_on_c, 0, 53, 101
1, 405307, Note_on_c, 0, 46, 103
1, 405319, Note_on_c, 0, 34, 79
1, 405336, Control_c, 0, 64, 58
1, 405351, Control_c, 0, 64, 67
1, 405361, Note_off_c, 0, 46, 62
1, 405365, Note_off_c, 0, 41, 65
1, 405365, Control_c, 0, 64, 75
1, 405368, Note_off_c, 0, 53, 65
1, 405380, Control_c, 0, 64, 84
1, 405385, Note_off_c, 0, 34, 62
1, 405395, Control_c, 0, 64, 89
1, 405410, Control_c, 0, 64, 91
1, 405425, Control_c, 0, 64, 92
1, 405745, Control_c, 0, 64, 91
1, 405804, Control_c, 0, 64, 89
1, 405819, Control_c, 0, 64, 85
1, 405834, Control_c, 0, 64, 77
1, 405848, Control_c, 0, 64, 64
1, 405863, Control_c, 0, 64, 0
1, 405896, Note_on_c, 0, 27, 64
1, 405962, Note_on_c, 0, 31, 61
1, 406026, Note_on_c, 0, 34, 75
1, 406030, Note_off_c, 0, 27, 58
1, 406060, Note_off_c, 0, 31, 61
1, 406080, Note_on_c, 0, 51, 114
1, 406084, Note_on_c, 0, 39, 92
1, 406098, Note_on_c, 0, 27, 27
1, 406100, Control_c, 0, 64, 90
1, 406106, Note_off_c, 0, 34, 64
1, 406114, Note_off_c, 0, 51, 68
1, 406115, Control_c, 0, 64, 127
1, 406134, Note_off_c, 0, 39, 63
1, 406141, Note_off_c, 0, 27, 40
1, 406330, Note_on_c, 0, 39, 60
1, 406332, Note_on_c, 0, 51, 63
1, 406365, Note_off_c, 0, 51, 65
1, 406373, Note_off_c, 0, 39, 49
1, 406438, Poly_aftertouch_c, 0, 46, 0
1, 406494, Note_on_c, 0, 67, 73
1, 406498, Note_on_c, 0, 58, 71
1, 406504, Note_on_c, 0, 55, 55
1, 406507, Note_on_c, 0, 63, 63
1, 406526, Note_off_c, 0, 55, 59
1, 406534, Note_off_c, 0, 58, 62
1, 406541, Note_off_c, 0, 63, 62
1, 406553, Note_off_c, 0, 67, 61
1, 406706, Note_on_c, 0, 79, 81
1, 406709, Note_on_c, 0, 70, 78
1, 406714, Note_on_c, 0, 67, 67
1, 406718, Note_on_c, 0, 75, 61
1, 406730, Note_off_c, 0, 67, 67
1, 406731, Note_off_c, 0, 70, 69
1, 406748, Note_off_c, 0, 75, 69
1, 406755, Note_off_c, 0, 79, 58
1, 406799, Note_on_c, 0, 55, 85
1, 406803, Note_on_c, 0, 43, 78
1, 406824, Note_off_c, 0, 55, 68
1, 406829, Note_off_c, 0, 43, 64
1, 406864, Control_c, 0, 64, 107
1, 406879, Control_c, 0, 64, 79
1, 406894, Control_c, 0, 64, 0
1, 406897, Note_on_c, 0, 91, 96
1, 406899, Note_on_c, 0, 79, 90
1, 406899, Note_on_c, 0, 82, 88
1, 406902, Note_on_c, 0, 56, 103
1, 406905, Note_on_c, 0, 44, 103
1, 406907, Note_on_c, 0, 87, 73
1, 406913, Note_off_c, 0, 79, 70
1, 406923, Note_off_c, 0, 82, 58
1, 406933, Note_off_c, 0, 87, 60
1, 406938, Control_c, 0, 64, 60
1, 406945, Note_off_c, 0, 91, 57
1, 406953, Control_c, 0, 64, 73
1, 406968, Control_c, 0, 64, 88
1, 406982, Control_c, 0, 64, 103
1, 406997, Control_c, 0, 64, 111
1, 407012, Control_c, 0, 64, 117
1, 407027, Control_c, 0, 64, 127
1, 407135, Note_on_c, 0, 103, 97
1, 407136, Note_on_c, 0, 91, 93
1, 407139, Note_on_c, 0, 94, 87
1, 407141, Note_on_c, 0, 99, 86
1, 407178, Note_off_c, 0, 94, 50
1, 407184, Note_off_c, 0, 91, 50
1, 407206, Note_off_c, 0, 103, 56
1, 407265, Note_off_c, 0, 56, 61
1, 407267, Note_off_c, 0, 44, 62
1, 407270, Note_off_c, 0, 99, 41
1, 407346, Control_c, 0, 64, 93
1, 407361, Control_c, 0, 64, 68
1, 407363, Note_on_c, 0, 57, 112
1, 407368, Note_on_c, 0, 45, 100
1, 407376, Control_c, 0, 64, 0
1, 407406, Control_c, 0, 64, 40
1, 407420, Control_c, 0, 64, 70
1, 407435, Control_c, 0, 64, 83
1, 407450, Control_c, 0, 64, 101
1, 407458, Note_off_c, 0, 57, 62
1, 407465, Poly_aftertouch_c, 0, 46, 0
1, 407465, Control_c, 0, 64, 127
1, 407480, Control_c, 0, 64, 127
1, 407486, Note_off_c, 0, 45, 62
1, 407731, Note_on_c, 0, 27, 64
1, 407780, Note_on_c, 0, 31, 57
1, 407793, Note_on_c, 0, 34, 71
1, 407804, Control_c, 0, 64, 87
1, 407819, Control_c, 0, 64, 0
1, 407824, Note_on_c, 0, 58, 101
1, 407825, Note_on_c, 0, 46, 108
1, 407833, Note_on_c, 0, 39, 90
1, 407850, Note_off_c, 0, 31, 60
1, 407873, Note_off_c, 0, 34, 65
1, 407884, Note_off_c, 0, 27, 61
1, 407895, Note_off_c, 0, 46, 63
1, 407901, Control_c, 0, 64, 69
1, 407905, Note_off_c, 0, 39, 61
1, 407916, Control_c, 0, 64, 90
1, 407931, Control_c, 0, 64, 109
1, 407945, Control_c, 0, 64, 114
1, 407960, Control_c, 0, 64, 115
1, 407992, Note_off_c, 0, 58, 56
1, 408071, Note_on_c, 0, 39, 63
1, 408074, Note_on_c, 0, 51, 64
1, 408080, Control_c, 0, 64, 115
1, 408085, Note_on_c, 0, 46, 52
1, 408109, Control_c, 0, 64, 116
1, 408110, Note_off_c, 0, 46, 63
1, 408118, Note_off_c, 0, 51, 53
1, 408139, Control_c, 0, 64, 116
1, 408143, Note_off_c, 0, 39, 56
1, 408154, Control_c, 0, 64, 117
1, 408168, Control_c, 0, 64, 119
1, 408183, Control_c, 0, 64, 122
1, 408198, Control_c, 0, 64, 127
1, 408236, Note_on_c, 0, 67, 76
1, 408242, Note_on_c, 0, 58, 71
1, 408244, Note_on_c, 0, 55, 64
1, 408249, Note_on_c, 0, 63, 64
1, 408265, Note_off_c, 0, 55, 64
1, 408273, Note_off_c, 0, 58, 62
1, 408285, Note_off_c, 0, 63, 62
1, 408296, Note_off_c, 0, 67, 60
1, 408442, Note_on_c, 0, 79, 78
1, 408445, Note_on_c, 0, 70, 75
1, 408447, Note_on_c, 0, 67, 70
1, 408451, Note_on_c, 0, 75, 63
1, 408471, Note_off_c, 0, 67, 64
1, 408471, Note_off_c, 0, 70, 66
1, 408475, Note_off_c, 0, 79, 45
1, 408482, Note_off_c, 0, 75, 66
1, 408652, Note_on_c, 0, 91, 98
1, 408653, Note_on_c, 0, 82, 96
1, 408654, Note_on_c, 0, 79, 93
1, 408657, Note_on_c, 0, 63, 105
1, 408658, Note_on_c, 0, 87, 82
1, 408660, Note_on_c, 0, 51, 98
1, 408671, Note_off_c, 0, 79, 73
1, 408683, Note_off_c, 0, 87, 59
1, 408690, Note_off_c, 0, 82, 59
1, 408697, Note_off_c, 0, 91, 58
1, 408880, Note_on_c, 0, 103, 100
1, 408882, Note_on_c, 0, 91, 103
1, 408883, Note_on_c, 0, 94, 97
1, 408885, Note_on_c, 0, 99, 90
1, 408897, Note_off_c, 0, 91, 71
1, 408899, Note_off_c, 0, 103, 64
1, 408901, Note_off_c, 0, 94, 70
1, 408905, Note_off_c, 0, 99, 71
1, 408920, Note_off_c, 0, 63, 60
1, 408922, Note_on_c, 0, 100, 14
1, 408923, Note_off_c, 0, 100, 127
1, 408925, Note_on_c, 0, 101, 23
1, 408926, Note_off_c, 0, 101, 127
1, 408978, Note_off_c, 0, 51, 58
1, 409573, Note_on_c, 0, 27, 42
1, 409589, Note_on_c, 0, 43, 88
1, 409589, Note_on_c, 0, 55, 86
1, 409610, Note_off_c, 0, 55, 71
1, 409612, Note_off_c, 0, 43, 65
1, 409635, Note_on_c, 0, 34, 56
1, 409637, Control_c, 0, 64, 83
1, 409652, Control_c, 0, 64, 0
1, 409676, Note_on_c, 0, 56, 111
1, 409677, Note_on_c, 0, 44, 99
1, 409679, Note_on_c, 0, 38, 87
1, 409693, Note_off_c, 0, 34, 62
1, 409697, Control_c, 0, 64, 64
1, 409711, Note_off_c, 0, 27, 62
1, 409712, Control_c, 0, 64, 78
1, 409713, Note_off_c, 0, 44, 63
1, 409718, Note_on_c, 0, 57, 41
1, 409727, Note_off_c, 0, 38, 61
1, 409727, Control_c, 0, 64, 99
1, 409727, Note_off_c, 0, 56, 62
1, 409741, Control_c, 0, 64, 115
1, 409753, Note_off_c, 0, 57, 47
1, 409756, Control_c, 0, 64, 118
1, 409771, Control_c, 0, 64, 119
1, 409890, Note_on_c, 0, 46, 60
1, 409893, Note_on_c, 0, 50, 66
1, 409896, Note_on_c, 0, 41, 58
1, 409926, Note_off_c, 0, 50, 66
1, 409927, Note_off_c, 0, 41, 63
1, 409932, Note_off_c, 0, 46, 61
1, 409933, Control_c, 0, 64, 120
1, 409948, Control_c, 0, 64, 127
1, 410067, Note_on_c, 0, 53, 79
1, 410070, Note_on_c, 0, 58, 79
1, 410072, Note_on_c, 0, 65, 78
1, 410075, Note_on_c, 0, 62, 69
1, 410077, Note_on_c, 0, 56, 106
1, 410081, Note_on_c, 0, 44, 90
1, 410081, Control_c, 0, 64, 105
1, 410091, Note_off_c, 0, 53, 69
1, 410096, Control_c, 0, 64, 86
1, 410115, Note_off_c, 0, 62, 63
1, 410119, Control_c, 0, 64, 72
1, 410131, Note_off_c, 0, 58, 64
1, 410133, Control_c, 0, 64, 59
1, 410137, Note_off_c, 0, 65, 64
1, 410148, Control_c, 0, 64, 58
1, 410163, Control_c, 0, 64, 67
1, 410178, Control_c, 0, 64, 77
1, 410193, Control_c, 0, 64, 90
1, 410207, Control_c, 0, 64, 97
1, 410222, Control_c, 0, 64, 99
1, 410237, Control_c, 0, 64, 101
1, 410252, Control_c, 0, 64, 105
1, 410266, Note_off_c, 0, 56, 63
1, 410266, Control_c, 0, 64, 112
1, 410275, Note_off_c, 0, 44, 62
1, 410281, Control_c, 0, 64, 125
1, 410296, Control_c, 0, 64, 127
1, 410299, Note_on_c, 0, 77, 82
1, 410301, Note_on_c, 0, 70, 82
1, 410303, Note_on_c, 0, 65, 75
1, 410323, Note_on_c, 0, 74, 39
1, 410326, Note_off_c, 0, 65, 72
1, 410347, Note_off_c, 0, 70, 62
1, 410349, Note_off_c, 0, 74, 54
1, 410355, Note_off_c, 0, 77, 59
1, 410380, Note_on_c, 0, 55, 95
1, 410385, Note_on_c, 0, 43, 85
1, 410414, Note_off_c, 0, 43, 63
1, 410417, Note_off_c, 0, 55, 63
1, 410445, Control_c, 0, 64, 99
1, 410460, Control_c, 0, 64, 78
1, 410475, Control_c, 0, 64, 55
1, 410481, Note_on_c, 0, 77, 97
1, 410481, Note_on_c, 0, 82, 91
1, 410481, Note_on_c, 0, 89, 92
1, 410481, Note_on_c, 0, 56, 104
1, 410485, Note_on_c, 0, 44, 101
1, 410485, Note_on_c, 0, 86, 81
1, 410490, Control_c, 0, 64, 0
1, 410498, Note_off_c, 0, 77, 69
1, 410505, Control_c, 0, 64, 63
1, 410505, Note_off_c, 0, 86, 69
1, 410519, Control_c, 0, 64, 74
1, 410526, Note_off_c, 0, 89, 62
1, 410528, Note_off_c, 0, 82, 61
1, 410534, Control_c, 0, 64, 87
1, 410549, Control_c, 0, 64, 99
1, 410564, Control_c, 0, 64, 104
1, 410579, Control_c, 0, 64, 107
1, 410594, Control_c, 0, 64, 110
1, 410609, Control_c, 0, 64, 116
1, 410624, Control_c, 0, 64, 127
1, 410694, Note_on_c, 0, 89, 93
1, 410695, Note_on_c, 0, 94, 98
1, 410695, Note_on_c, 0, 101, 97
1, 410698, Note_on_c, 0, 98, 86
1, 410734, Note_off_c, 0, 89, 64
1, 410738, Note_off_c, 0, 98, 56
1, 410751, Note_off_c, 0, 101, 52
1, 410779, Note_off_c, 0, 94, 39
1, 410793, Note_off_c, 0, 56, 62
1, 410793, Note_off_c, 0, 44, 59
1, 410882, Control_c, 0, 64, 120
1, 410897, Control_c, 0, 64, 90
1, 410912, Control_c, 0, 64, 66
1, 410914, Note_on_c, 0, 57, 108
1, 410918, Note_on_c, 0, 45, 98
1, 410927, Control_c, 0, 64, 0
1, 410956, Control_c, 0, 64, 58
1, 410971, Control_c, 0, 64, 74
1, 410986, Control_c, 0, 64, 92
1, 410996, Note_off_c, 0, 57, 62
1, 411001, Control_c, 0, 64, 125
1, 411016, Control_c, 0, 64, 127
1, 411022, Note_off_c, 0, 45, 64
1, 411028, Poly_aftertouch_c, 0, 46, 0
1, 411257, Note_on_c, 0, 27, 65
1, 411286, Note_on_c, 0, 31, 60
1, 411335, Note_on_c, 0, 34, 72
1, 411357, Control_c, 0, 64, 85
1, 411372, Control_c, 0, 64, 0
1, 411374, Note_on_c, 0, 46, 107
1, 411375, Note_on_c, 0, 58, 101
1, 411378, Note_on_c, 0, 39, 91
1, 411404, Note_on_c, 0, 56, 49
1, 411405, Note_off_c, 0, 56, 127
1, 411405, Note_off_c, 0, 31, 61
1, 411415, Note_off_c, 0, 34, 64
1, 411426, Note_off_c, 0, 27, 65
1, 411434, Poly_aftertouch_c, 0, 56, 0
1, 411444, Note_off_c, 0, 39, 61
1, 411444, Note_off_c, 0, 46, 62
1, 411447, Control_c, 0, 64, 79
1, 411461, Control_c, 0, 64, 106
1, 411476, Control_c, 0, 64, 127
1, 411518, Note_off_c, 0, 58, 60
1, 411617, Note_on_c, 0, 39, 62
1, 411619, Note_on_c, 0, 51, 66
1, 411681, Note_off_c, 0, 51, 48
1, 411682, Note_off_c, 0, 39, 56
1, 411781, Note_on_c, 0, 67, 74
1, 411786, Note_on_c, 0, 58, 70
1, 411789, Note_on_c, 0, 55, 64
1, 411796, Note_on_c, 0, 63, 60
1, 411809, Note_off_c, 0, 55, 64
1, 411821, Note_off_c, 0, 58, 55
1, 411834, Note_off_c, 0, 63, 62
1, 411845, Note_off_c, 0, 67, 59
1, 411992, Note_on_c, 0, 70, 82
1, 411992, Note_on_c, 0, 79, 81
1, 411995, Note_on_c, 0, 67, 73
1, 412002, Note_on_c, 0, 75, 63
1, 412016, Note_off_c, 0, 70, 62
1, 412019, Note_off_c, 0, 67, 65
1, 412031, Note_off_c, 0, 75, 67
1, 412041, Note_off_c, 0, 79, 57
1, 412186, Note_on_c, 0, 91, 99
1, 412186, Note_on_c, 0, 79, 95
1, 412188, Note_on_c, 0, 82, 92
1, 412194, Note_on_c, 0, 87, 79
1, 412197, Note_on_c, 0, 55, 96
1, 412199, Note_on_c, 0, 43, 91
1, 412202, Note_off_c, 0, 79, 72
1, 412207, Note_off_c, 0, 82, 65
1, 412216, Note_off_c, 0, 87, 69
1, 412231, Note_off_c, 0, 91, 57
1, 412406, Note_on_c, 0, 103, 101
1, 412406, Note_on_c, 0, 91, 94
1, 412407, Note_on_c, 0, 94, 95
1, 412409, Note_on_c, 0, 99, 91
1, 412422, Note_off_c, 0, 91, 70
1, 412424, Note_off_c, 0, 94, 71
1, 412429, Note_off_c, 0, 99, 71
1, 412431, Note_off_c, 0, 103, 56
1, 412438, Note_off_c, 0, 55, 60
1, 412477, Note_off_c, 0, 43, 56
1, 412929, Note_on_c, 0, 46, 73
1, 412937, Note_on_c, 0, 34, 37
1, 412944, Control_c, 0, 64, 112
1, 412951, Note_off_c, 0, 46, 66
1, 412958, Control_c, 0, 64, 81
1, 412973, Control_c, 0, 64, 0
1, 412976, Note_on_c, 0, 36, 22
1, 412979, Note_on_c, 0, 48, 71
1, 412981, Note_off_c, 0, 34, 59
1, 413006, Note_on_c, 0, 38, 50
1, 413018, Note_off_c, 0, 36, 42
1, 413030, Note_on_c, 0, 50, 73
1, 413036, Note_off_c, 0, 38, 51
1, 413084, Note_on_c, 0, 51, 100
1, 413098, Note_on_c, 0, 27, 93
1, 413106, Note_on_c, 0, 39, 93
1, 413116, Note_on_c, 0, 34, 64
1, 413116, Note_off_c, 0, 48, 63
1, 413122, Note_off_c, 0, 50, 63
1, 413129, Control_c, 0, 64, 83
1, 413134, Note_on_c, 0, 37, 47
1, 413135, Note_off_c, 0, 37, 127
1, 413143, Note_off_c, 0, 34, 66
1, 413143, Note_off_c, 0, 27, 65
1, 413144, Control_c, 0, 64, 127
1, 413146, Note_off_c, 0, 51, 67
1, 413157, Note_off_c, 0, 39, 60
1, 413167, Poly_aftertouch_c, 0, 37, 0
1, 413322, Note_on_c, 0, 51, 69
1, 413324, Note_on_c, 0, 39, 59
1, 413356, Note_off_c, 0, 39, 60
1, 413357, Note_off_c, 0, 51, 55
1, 413482, Note_on_c, 0, 67, 75
1, 413483, Note_on_c, 0, 55, 69
1, 413483, Note_on_c, 0, 58, 74
1, 413490, Note_on_c, 0, 63, 68
1, 413503, Note_off_c, 0, 55, 65
1, 413518, Note_off_c, 0, 58, 62
1, 413539, Note_off_c, 0, 63, 61
1, 413541, Note_off_c, 0, 67, 60
1, 413691, Note_on_c, 0, 67, 76
1, 413691, Note_on_c, 0, 79, 76
1, 413694, Note_on_c, 0, 70, 77
1, 413700, Note_on_c, 0, 75, 63
1, 413719, Note_off_c, 0, 70, 66
1, 413720, Note_off_c, 0, 67, 66
1, 413731, Note_off_c, 0, 75, 67
1, 413741, Note_off_c, 0, 79, 58
1, 413772, Note_on_c, 0, 55, 85
1, 413778, Note_on_c, 0, 43, 72
1, 413790, Note_off_c, 0, 55, 72
1, 413803, Note_off_c, 0, 43, 57
1, 413826, Control_c, 0, 64, 113
1, 413841, Control_c, 0, 64, 79
1, 413863, Control_c, 0, 64, 0
1, 413873, Note_on_c, 0, 56, 107
1, 413873, Note_on_c, 0, 44, 103
1, 413873, Note_on_c, 0, 91, 94
1, 413874, Note_on_c, 0, 79, 95
1, 413877, Note_on_c, 0, 82, 84
1, 413881, Note_on_c, 0, 87, 83
1, 413895, Note_off_c, 0, 79, 66
1, 413912, Note_off_c, 0, 82, 58
1, 413922, Note_off_c, 0, 87, 44
1, 413922, Control_c, 0, 64, 62
1, 413928, Note_off_c, 0, 91, 54
1, 413937, Control_c, 0, 64, 75
1, 413952, Control_c, 0, 64, 87
1, 413967, Control_c, 0, 64, 100
1, 413981, Control_c, 0, 64, 110
1, 413996, Control_c, 0, 64, 126
1, 414011, Control_c, 0, 64, 127
1, 414091, Note_on_c, 0, 91, 96
1, 414091, Note_on_c, 0, 103, 92
1, 414094, Note_on_c, 0, 94, 89
1, 414099, Note_on_c, 0, 99, 75
1, 414120, Note_on_c, 0, 101, 44
1, 414123, Note_off_c, 0, 94, 58
1, 414123, Note_off_c, 0, 99, 54
1, 414153, Note_off_c, 0, 101, 33
1, 414173, Note_off_c, 0, 103, 62
1, 414198, Note_off_c, 0, 91, 33
1, 414200, Note_off_c, 0, 44, 62
1, 414204, Note_off_c, 0, 56, 61
1, 414263, Control_c, 0, 64, 106
1, 414278, Control_c, 0, 64, 80
1, 414293, Control_c, 0, 64, 42
1, 414295, Note_on_c, 0, 57, 111
1, 414299, Note_on_c, 0, 45, 99
1, 414307, Control_c, 0, 64, 0
1, 414322, Control_c, 0, 64, 58
1, 414337, Control_c, 0, 64, 73
1, 414352, Control_c, 0, 64, 87
1, 414367, Control_c, 0, 64, 105
1, 414380, Note_off_c, 0, 57, 62
1, 414383, Control_c, 0, 64, 125
1, 414397, Control_c, 0, 64, 127
1, 414402, Note_off_c, 0, 45, 64
1, 414404, Poly_aftertouch_c, 0, 46, 0
1, 414632, Note_on_c, 0, 27, 50
1, 414639, Note_on_c, 0, 31, 40
1, 414671, Control_c, 0, 64, 107
1, 414682, Note_on_c, 0, 34, 75
1, 414686, Control_c, 0, 64, 71
1, 414701, Control_c, 0, 64, 0
1, 414709, Note_on_c, 0, 58, 98
1, 414713, Note_on_c, 0, 46, 112
1, 414723, Note_on_c, 0, 39, 88
1, 414743, Note_on_c, 0, 56, 53
1, 414744, Note_off_c, 0, 56, 127
1, 414769, Note_off_c, 0, 31, 56
1, 414769, Note_off_c, 0, 34, 63
1, 414776, Note_off_c, 0, 46, 61
1, 414786, Note_off_c, 0, 27, 61
1, 414790, Control_c, 0, 64, 70
1, 414801, Note_off_c, 0, 39, 61
1, 414804, Control_c, 0, 64, 91
1, 414819, Control_c, 0, 64, 118
1, 414827, Poly_aftertouch_c, 0, 54, 127
1, 414834, Control_c, 0, 64, 127
1, 414859, Poly_aftertouch_c, 0, 54, 0
1, 414895, Note_off_c, 0, 58, 60
1, 414964, Note_on_c, 0, 51, 66
1, 414966, Note_on_c, 0, 39, 60
1, 414980, Note_on_c, 0, 46, 51
1, 415016, Note_off_c, 0, 51, 47
1, 415029, Note_off_c, 0, 46, 54
1, 415031, Note_off_c, 0, 39, 54
1, 415134, Note_on_c, 0, 67, 78
1, 415137, Note_on_c, 0, 58, 70
1, 415139, Note_on_c, 0, 55, 67
1, 415147, Note_on_c, 0, 63, 60
1, 415161, Note_off_c, 0, 55, 66
1, 415173, Note_off_c, 0, 58, 61
1, 415185, Note_off_c, 0, 63, 62
1, 415197, Note_off_c, 0, 67, 61
1, 415338, Note_on_c, 0, 67, 81
1, 415338, Note_on_c, 0, 70, 83
1, 415339, Note_on_c, 0, 79, 81
1, 415349, Note_on_c, 0, 75, 73
1, 415368, Note_off_c, 0, 70, 65
1, 415369, Note_off_c, 0, 67, 68
1, 415387, Note_off_c, 0, 75, 56
1, 415397, Note_off_c, 0, 79, 58
1, 415540, Note_on_c, 0, 91, 95
1, 415541, Note_on_c, 0, 82, 95
1, 415542, Note_on_c, 0, 79, 88
1, 415545, Note_on_c, 0, 87, 79
1, 415546, Note_on_c, 0, 63, 111
1, 415549, Note_on_c, 0, 51, 95
1, 415560, Note_off_c, 0, 79, 72
1, 415580, Note_off_c, 0, 82, 61
1, 415588, Note_off_c, 0, 87, 44
1, 415591, Note_off_c, 0, 91, 56
1, 415754, Note_on_c, 0, 103, 104
1, 415756, Note_on_c, 0, 91, 104
1, 415756, Note_on_c, 0, 94, 100
1, 415760, Note_on_c, 0, 99, 94
1, 415770, Note_off_c, 0, 91, 70
1, 415772, Note_off_c, 0, 103, 65
1, 415776, Note_off_c, 0, 94, 66
1, 415778, Note_off_c, 0, 99, 75
1, 415793, Note_off_c, 0, 63, 62
1, 415846, Note_off_c, 0, 51, 56
1, 416431, Note_on_c, 0, 43, 84
1, 416431, Note_on_c, 0, 55, 87
1, 416444, Note_on_c, 0, 27, 55
1, 416449, Control_c, 0, 64, 114
1, 416453, Note_off_c, 0, 55, 68
1, 416454, Note_off_c, 0, 43, 65
1, 416464, Control_c, 0, 64, 79
1, 416479, Control_c, 0, 64, 0
1, 416502, Note_on_c, 0, 34, 42
1, 416512, Note_on_c, 0, 56, 110
1, 416515, Note_on_c, 0, 44, 104
1, 416517, Note_on_c, 0, 38, 89
1, 416534, Note_off_c, 0, 34, 52
1, 416538, Control_c, 0, 64, 69
1, 416544, Note_off_c, 0, 27, 64
1, 416552, Note_off_c, 0, 44, 62
1, 416553, Control_c, 0, 64, 81
1, 416562, Note_off_c, 0, 56, 67
1, 416565, Note_off_c, 0, 38, 61
1, 416568, Control_c, 0, 64, 88
1, 416583, Control_c, 0, 64, 92
1, 416598, Control_c, 0, 64, 93
1, 416612, Control_c, 0, 64, 94
1, 416716, Control_c, 0, 64, 95
1, 416729, Note_on_c, 0, 50, 74
1, 416731, Control_c, 0, 64, 95
1, 416733, Note_on_c, 0, 46, 61
1, 416745, Note_on_c, 0, 41, 49
1, 416746, Control_c, 0, 64, 97
1, 416757, Note_off_c, 0, 46, 58
1, 416761, Control_c, 0, 64, 100
1, 416762, Note_off_c, 0, 50, 64
1, 416776, Control_c, 0, 64, 109
1, 416779, Note_off_c, 0, 41, 55
1, 416791, Control_c, 0, 64, 127
1, 416899, Note_on_c, 0, 53, 85
1, 416902, Control_c, 0, 64, 109
1, 416908, Note_on_c, 0, 65, 79
1, 416908, Note_on_c, 0, 58, 82
1, 416911, Note_on_c, 0, 56, 97
1, 416914, Note_on_c, 0, 44, 92
1, 416917, Control_c, 0, 64, 91
1, 416917, Note_on_c, 0, 62, 59
1, 416921, Note_off_c, 0, 53, 72
1, 416931, Control_c, 0, 64, 78
1, 416946, Control_c, 0, 64, 74
1, 416949, Note_off_c, 0, 62, 63
1, 416961, Note_off_c, 0, 58, 65
1, 416961, Control_c, 0, 64, 75
1, 416967, Note_off_c, 0, 65, 65
1, 416976, Control_c, 0, 64, 81
1, 416991, Control_c, 0, 64, 94
1, 417006, Control_c, 0, 64, 105
1, 417021, Control_c, 0, 64, 112
1, 417036, Control_c, 0, 64, 114
1, 417051, Control_c, 0, 64, 116
1, 417066, Control_c, 0, 64, 117
1, 417080, Control_c, 0, 64, 120
1, 417086, Note_off_c, 0, 56, 60
1, 417094, Note_off_c, 0, 44, 61
1, 417095, Control_c, 0, 64, 127
1, 417110, Control_c, 0, 64, 127
1, 417120, Note_on_c, 0, 65, 79
1, 417120, Note_on_c, 0, 77, 82
1, 417124, Note_on_c, 0, 70, 76
1, 417128, Note_on_c, 0, 74, 64
1, 417140, Note_off_c, 0, 65, 74
1, 417155, Note_off_c, 0, 74, 70
1, 417166, Note_off_c, 0, 70, 60
1, 417175, Note_off_c, 0, 77, 61
1, 417197, Note_on_c, 0, 55, 97
1, 417200, Note_on_c, 0, 43, 87
1, 417227, Note_off_c, 0, 43, 63
1, 417232, Note_off_c, 0, 55, 62
1, 417257, Control_c, 0, 64, 99
1, 417272, Control_c, 0, 64, 74
1, 417287, Control_c, 0, 64, 39
1, 417292, Note_on_c, 0, 77, 103
1, 417292, Note_on_c, 0, 89, 95
1, 417296, Note_on_c, 0, 86, 83
1, 417297, Note_on_c, 0, 82, 88
1, 417299, Note_on_c, 0, 56, 103
1, 417301, Note_on_c, 0, 44, 95
1, 417302, Control_c, 0, 64, 0
1, 417310, Note_off_c, 0, 77, 67
1, 417316, Control_c, 0, 64, 64
1, 417322, Note_off_c, 0, 86, 58
1, 417331, Note_off_c, 0, 82, 58
1, 417331, Control_c, 0, 64, 75
1, 417339, Note_off_c, 0, 89, 65
1, 417346, Control_c, 0, 64, 89
1, 417361, Control_c, 0, 64, 106
1, 417376, Control_c, 0, 64, 119
1, 417390, Control_c, 0, 64, 122
1, 417405, Control_c, 0, 64, 127
1, 417420, Control_c, 0, 64, 127
1, 417447, Note_off_c, 0, 56, 61
1, 417477, Note_off_c, 0, 44, 60
1, 417498, Note_on_c, 0, 101, 99
1, 417499, Note_on_c, 0, 89, 97
1, 417501, Note_on_c, 0, 94, 92
1, 417503, Note_on_c, 0, 98, 87
1, 417522, Note_off_c, 0, 98, 68
1, 417533, Note_off_c, 0, 89, 63
1, 417536, Note_off_c, 0, 101, 67
1, 417554, Note_off_c, 0, 94, 62
1, 417666, Control_c, 0, 64, 92
1, 417680, Control_c, 0, 64, 70
1, 417689, Note_on_c, 0, 53, 102
1, 417692, Note_on_c, 0, 41, 98
1, 417695, Control_c, 0, 64, 0
1, 417725, Control_c, 0, 64, 52
1, 417740, Control_c, 0, 64, 67
1, 417754, Control_c, 0, 64, 76
1, 417763, Note_off_c, 0, 53, 58
1, 417769, Control_c, 0, 64, 84
1, 417784, Control_c, 0, 64, 89
1, 417796, Note_off_c, 0, 41, 65
1, 417799, Control_c, 0, 64, 95
1, 417814, Control_c, 0, 64, 103
1, 417829, Control_c, 0, 64, 116
1, 417844, Control_c, 0, 64, 127
1, 418001, Note_on_c, 0, 27, 72
1, 418039, Note_on_c, 0, 31, 66
1, 418051, Control_c, 0, 64, 113
1, 418066, Control_c, 0, 64, 76
1, 418079, Note_on_c, 0, 34, 71
1, 418080, Control_c, 0, 64, 0
1, 418132, Note_on_c, 0, 51, 117
1, 418135, Note_on_c, 0, 39, 91
1, 418156, Note_off_c, 0, 51, 72
1, 418179, Note_off_c, 0, 31, 63
1, 418179, Note_off_c, 0, 34, 64
1, 418195, Note_off_c, 0, 27, 65
1, 418199, Control_c, 0, 64, 76
1, 418213, Control_c, 0, 64, 127
1, 418216, Note_off_c, 0, 39, 62
1, 418368, Note_on_c, 0, 39, 65
1, 418375, Note_on_c, 0, 51, 62
1, 418398, Note_on_c, 0, 46, 48
1, 418418, Note_off_c, 0, 51, 48
1, 418422, Note_off_c, 0, 39, 43
1, 418426, Note_off_c, 0, 46, 56
1, 418526, Note_on_c, 0, 63, 81
1, 418528, Note_on_c, 0, 55, 71
1, 418529, Note_on_c, 0, 58, 76
1, 418555, Note_off_c, 0, 55, 67
1, 418571, Note_off_c, 0, 58, 61
1, 418582, Note_off_c, 0, 63, 63
1, 418718, Note_on_c, 0, 67, 80
1, 418718, Note_on_c, 0, 75, 84
1, 418719, Note_on_c, 0, 70, 79
1, 418739, Note_off_c, 0, 67, 70
1, 418741, Note_off_c, 0, 70, 68
1, 418767, Note_off_c, 0, 75, 62
1, 418892, Note_on_c, 0, 87, 98
1, 418898, Note_on_c, 0, 82, 85
1, 418899, Note_on_c, 0, 79, 81
1, 418917, Note_off_c, 0, 82, 69
1, 418917, Note_off_c, 0, 79, 71
1, 418938, Note_off_c, 0, 87, 61
1, 419070, Note_on_c, 0, 99, 103
1, 419073, Note_on_c, 0, 91, 98
1, 419075, Note_on_c, 0, 94, 94
1, 419096, Note_off_c, 0, 91, 68
1, 419099, Note_off_c, 0, 94, 68
1, 419122, Note_off_c, 0, 99, 66
1, 419310, Note_on_c, 0, 58, 114
1, 419310, Note_on_c, 0, 46, 108
1, 419345, Note_off_c, 0, 58, 68
1, 419351, Note_off_c, 0, 46, 63
1, 419668, Note_on_c, 0, 27, 65
1, 419722, Note_on_c, 0, 31, 66
1, 419726, Control_c, 0, 64, 88
1, 419741, Control_c, 0, 64, 0
1, 419753, Note_on_c, 0, 34, 69
1, 419769, Note_on_c, 0, 63, 104
1, 419772, Note_on_c, 0, 51, 109
1, 419786, Note_on_c, 0, 39, 91
1, 419801, Note_off_c, 0, 31, 61
1, 419813, Note_off_c, 0, 27, 62
1, 419815, Control_c, 0, 64, 67
1, 419817, Note_off_c, 0, 34, 65
1, 419830, Control_c, 0, 64, 100
1, 419851, Note_off_c, 0, 51, 60
1, 419852, Control_c, 0, 64, 127
1, 419856, Note_off_c, 0, 39, 62
1, 420020, Note_on_c, 0, 39, 59
1, 420020, Note_on_c, 0, 51, 66
1, 420055, Note_off_c, 0, 51, 52
1, 420063, Note_off_c, 0, 39, 48
1, 420095, Poly_aftertouch_c, 0, 46, 127
1, 420098, Note_off_c, 0, 63, 58
1, 420101, Note_on_c, 0, 55, 76
1, 420129, Poly_aftertouch_c, 0, 46, 0
1, 420145, Note_off_c, 0, 55, 61
1, 420187, Note_on_c, 0, 67, 68
1, 420213, Note_on_c, 0, 63, 39
1, 420227, Note_off_c, 0, 67, 62
1, 420234, Note_off_c, 0, 63, 59
1, 420241, Note_on_c, 0, 58, 2
1, 420280, Note_off_c, 0, 58, 34
1, 420286, Note_on_c, 0, 67, 82
1, 420332, Note_off_c, 0, 67, 61
1, 420373, Note_on_c, 0, 79, 77
1, 420383, Note_on_c, 0, 75, 56
1, 420389, Note_on_c, 0, 70, 37
1, 420403, Note_off_c, 0, 79, 65
1, 420404, Note_off_c, 0, 75, 62
1, 420419, Note_off_c, 0, 70, 53
1, 420464, Note_on_c, 0, 55, 89
1, 420464, Note_on_c, 0, 67, 91
1, 420467, Note_on_c, 0, 79, 85
1, 420486, Note_off_c, 0, 55, 65
1, 420489, Note_off_c, 0, 67, 62
1, 420518, Note_off_c, 0, 79, 62
1, 420534, Control_c, 0, 64, 83
1, 420549, Control_c, 0, 64, 0
1, 420555, Note_on_c, 0, 82, 81
1, 420557, Note_on_c, 0, 91, 74
1, 420564, Note_on_c, 0, 87, 71
1, 420565, Note_on_c, 0, 68, 111
1, 420567, Note_on_c, 0, 56, 100
1, 420615, Note_off_c, 0, 82, 64
1, 420616, Control_c, 0, 64, 55
1, 420631, Control_c, 0, 64, 74
1, 420643, Note_off_c, 0, 87, 62
1, 420646, Control_c, 0, 64, 87
1, 420657, Note_on_c, 0, 79, 76
1, 420661, Control_c, 0, 64, 100
1, 420675, Note_off_c, 0, 91, 56
1, 420675, Control_c, 0, 64, 105
1, 420690, Control_c, 0, 64, 106
1, 420705, Control_c, 0, 64, 108
1, 420717, Note_off_c, 0, 79, 61
1, 420720, Control_c, 0, 64, 110
1, 420735, Control_c, 0, 64, 112
1, 420749, Control_c, 0, 64, 113
1, 420756, Note_on_c, 0, 91, 69
1, 420759, Note_on_c, 0, 87, 68
1, 420764, Control_c, 0, 64, 115
1, 420768, Note_on_c, 0, 82, 54
1, 420780, Control_c, 0, 64, 116
1, 420787, Note_off_c, 0, 82, 61
1, 420795, Control_c, 0, 64, 117
1, 420798, Note_off_c, 0, 87, 62
1, 420799, Note_off_c, 0, 91, 62
1, 420810, Control_c, 0, 64, 118
1, 420824, Control_c, 0, 64, 123
1, 420839, Control_c, 0, 64, 127
1, 420862, Note_on_c, 0, 91, 82
1, 420867, Note_off_c, 0, 56, 58
1, 420875, Note_off_c, 0, 68, 57
1, 420913, Note_off_c, 0, 91, 61
1, 420928, Control_c, 0, 64, 101
1, 420943, Control_c, 0, 64, 80
1, 420944, Note_on_c, 0, 103, 104
1, 420950, Note_on_c, 0, 99, 93
1, 420951, Note_on_c, 0, 69, 114
1, 420954, Note_on_c, 0, 57, 96
1, 420954, Note_on_c, 0, 94, 93
1, 420958, Control_c, 0, 64, 63
1, 420972, Control_c, 0, 64, 54
1, 420974, Note_off_c, 0, 94, 66
1, 420977, Note_off_c, 0, 103, 67
1, 420987, Control_c, 0, 64, 70
1, 420988, Note_off_c, 0, 69, 67
1, 420990, Note_off_c, 0, 99, 70
1, 421002, Control_c, 0, 64, 84
1, 421017, Control_c, 0, 64, 108
1, 421018, Note_on_c, 0, 58, 3
1, 421032, Control_c, 0, 64, 127
1, 421033, Note_off_c, 0, 57, 62
1, 421051, Note_off_c, 0, 58, 53
1, 421304, Note_on_c, 0, 27, 72
1, 421331, Note_on_c, 0, 34, 63
1, 421397, Note_on_c, 0, 39, 93
1, 421397, Note_on_c, 0, 58, 108
1, 421397, Note_on_c, 0, 70, 108
1, 421422, Poly_aftertouch_c, 0, 65, 0
1, 421425, Note_off_c, 0, 34, 62
1, 421431, Note_off_c, 0, 27, 64
1, 421453, Control_c, 0, 64, 116
1, 421456, Note_off_c, 0, 39, 62
1, 421468, Control_c, 0, 64, 78
1, 421483, Control_c, 0, 64, 0
1, 421488, Poly_aftertouch_c, 0, 66, 0
1, 421495, Note_off_c, 0, 70, 55
1, 421543, Control_c, 0, 64, 67
1, 421558, Control_c, 0, 64, 92
1, 421573, Control_c, 0, 64, 127
1, 421588, Note_off_c, 0, 58, 58
1, 421599, Note_on_c, 0, 51, 79
1, 421612, Note_on_c, 0, 39, 57
1, 421620, Note_on_c, 0, 66, 18
1, 421642, Note_on_c, 0, 46, 28
1, 421656, Note_off_c, 0, 51, 52
1, 421659, Note_off_c, 0, 66, 50
1, 421668, Note_off_c, 0, 39, 54
1, 421683, Note_off_c, 0, 46, 48
1, 421698, Note_on_c, 0, 55, 79
1, 421740, Note_off_c, 0, 55, 64
1, 421770, Note_on_c, 0, 67, 78
1, 421790, Note_on_c, 0, 63, 54
1, 421811, Note_off_c, 0, 67, 62
1, 421812, Note_off_c, 0, 63, 62
1, 421865, Poly_aftertouch_c, 0, 58, 0
1, 421866, Note_on_c, 0, 67, 88
1, 421908, Note_off_c, 0, 67, 62
1, 421945, Note_on_c, 0, 79, 77
1, 421962, Note_on_c, 0, 75, 53
1, 421984, Note_off_c, 0, 75, 62
1, 421984, Note_off_c, 0, 79, 65
1, 422020, Poly_aftertouch_c, 0, 70, 0
1, 422037, Note_on_c, 0, 79, 86
1, 422054, Poly_aftertouch_c, 0, 70, 0
1, 422092, Note_off_c, 0, 79, 64
1, 422127, Note_on_c, 0, 75, 116
1, 422127, Note_on_c, 0, 82, 96
1, 422129, Note_on_c, 0, 91, 91
1, 422133, Note_on_c, 0, 63, 98
1, 422133, Note_on_c, 0, 87, 82
1, 422175, Note_on_c, 0, 70, 13
1, 422183, Note_off_c, 0, 82, 59
1, 422196, Note_off_c, 0, 91, 57
1, 422200, Note_off_c, 0, 75, 59
1, 422205, Note_off_c, 0, 87, 51
1, 422210, Note_on_c, 0, 79, 84
1, 422225, Note_off_c, 0, 70, 36
1, 422258, Note_off_c, 0, 79, 63
1, 422263, Note_off_c, 0, 63, 56
1, 422299, Note_on_c, 0, 91, 80
1, 422308, Note_on_c, 0, 87, 68
1, 422312, Note_on_c, 0, 82, 56
1, 422333, Note_off_c, 0, 82, 62
1, 422333, Note_off_c, 0, 87, 67
1, 422336, Note_off_c, 0, 91, 62
1, 422394, Note_on_c, 0, 91, 76
1, 422437, Note_off_c, 0, 91, 60
1, 422439, Note_on_c, 0, 93, 24
1, 422459, Note_on_c, 0, 103, 103
1, 422462, Note_on_c, 0, 99, 95
1, 422464, Note_on_c, 0, 94, 91
1, 422477, Note_off_c, 0, 93, 37
1, 422478, Note_off_c, 0, 103, 63
1, 422493, Note_off_c, 0, 94, 62
1, 422500, Note_off_c, 0, 99, 70
1, 422504, Note_on_c, 0, 101, 10
1, 422554, Note_off_c, 0, 101, 31
1, 422827, Note_on_c, 0, 27, 60
1, 422827, Note_on_c, 0, 67, 98
1, 422828, Note_on_c, 0, 55, 94
1, 422858, Note_off_c, 0, 55, 69
1, 422861, Note_off_c, 0, 67, 63
1, 422872, Note_on_c, 0, 34, 58
1, 422915, Note_on_c, 0, 38, 94
1, 422921, Note_on_c, 0, 68, 115
1, 422922, Note_on_c, 0, 56, 111
1, 422922, Control_c, 0, 64, 84
1, 422936, Control_c, 0, 64, 0
1, 422944, Note_off_c, 0, 34, 63
1, 422950, Note_off_c, 0, 27, 65
1, 422975, Note_off_c, 0, 38, 64
1, 422983, Note_off_c, 0, 68, 60
1, 422995, Control_c, 0, 64, 65
1, 423010, Control_c, 0, 64, 89
1, 423025, Control_c, 0, 64, 127
1, 423027, Note_on_c, 0, 55, 41
1, 423061, Note_off_c, 0, 55, 49
1, 423078, Note_off_c, 0, 56, 56
1, 423111, Note_on_c, 0, 50, 75
1, 423117, Note_on_c, 0, 46, 53
1, 423120, Note_on_c, 0, 41, 57
1, 423158, Note_off_c, 0, 46, 57
1, 423176, Note_off_c, 0, 50, 56
1, 423179, Note_off_c, 0, 41, 62
1, 423203, Note_on_c, 0, 53, 76
1, 423242, Note_off_c, 0, 53, 63
1, 423286, Note_on_c, 0, 65, 74
1, 423303, Note_on_c, 0, 62, 39
1, 423314, Note_off_c, 0, 65, 67
1, 423336, Note_off_c, 0, 62, 47
1, 423379, Note_on_c, 0, 65, 84
1, 423422, Note_off_c, 0, 65, 63
1, 423459, Note_on_c, 0, 77, 77
1, 423469, Note_on_c, 0, 74, 56
1, 423488, Note_off_c, 0, 74, 65
1, 423501, Note_off_c, 0, 77, 63
1, 423546, Note_on_c, 0, 67, 92
1, 423549, Note_on_c, 0, 55, 82
1, 423552, Note_on_c, 0, 77, 87
1, 423566, Note_off_c, 0, 67, 68
1, 423570, Note_off_c, 0, 55, 68
1, 423608, Note_off_c, 0, 77, 62
1, 423626, Control_c, 0, 64, 97
1, 423641, Control_c, 0, 64, 68
1, 423643, Note_on_c, 0, 82, 90
1, 423646, Note_on_c, 0, 68, 109
1, 423647, Note_on_c, 0, 89, 81
1, 423650, Note_on_c, 0, 56, 100
1, 423650, Note_on_c, 0, 86, 81
1, 423656, Control_c, 0, 64, 0
1, 423700, Control_c, 0, 64, 38
1, 423707, Note_off_c, 0, 86, 61
1, 423715, Control_c, 0, 64, 70
1, 423718, Note_off_c, 0, 82, 56
1, 423730, Control_c, 0, 64, 84
1, 423731, Note_off_c, 0, 89, 58
1, 423737, Note_on_c, 0, 77, 83
1, 423745, Control_c, 0, 64, 102
1, 423760, Control_c, 0, 64, 121
1, 423774, Control_c, 0, 64, 127
1, 423791, Note_off_c, 0, 77, 61
1, 423837, Note_on_c, 0, 82, 67
1, 423838, Note_on_c, 0, 89, 72
1, 423849, Note_on_c, 0, 86, 45
1, 423854, Note_off_c, 0, 82, 67
1, 423867, Note_off_c, 0, 89, 66
1, 423875, Note_off_c, 0, 86, 54
1, 423915, Note_off_c, 0, 56, 56
1, 423931, Note_on_c, 0, 89, 77
1, 423931, Note_off_c, 0, 68, 60
1, 423978, Note_off_c, 0, 89, 65
1, 424003, Note_on_c, 0, 69, 107
1, 424006, Note_on_c, 0, 57, 93
1, 424006, Note_on_c, 0, 98, 88
1, 424008, Note_on_c, 0, 94, 96
1, 424010, Note_on_c, 0, 101, 91
1, 424045, Note_off_c, 0, 98, 66
1, 424045, Note_off_c, 0, 101, 64
1, 424046, Note_off_c, 0, 69, 67
1, 424047, Note_off_c, 0, 94, 65
1, 424082, Note_off_c, 0, 57, 62
1, 424353, Poly_aftertouch_c, 0, 32, 127
1, 424361, Note_on_c, 0, 27, 69
1, 424389, Note_on_c, 0, 34, 65
1, 424409, Poly_aftertouch_c, 0, 32, 0
1, 424418, Note_on_c, 0, 70, 106
1, 424419, Note_on_c, 0, 58, 109
1, 424421, Note_on_c, 0, 39, 93
1, 424434, Note_on_c, 0, 71, 83
1, 424454, Note_off_c, 0, 34, 64
1, 424456, Note_on_c, 0, 66, 35
1, 424463, Note_off_c, 0, 27, 64
1, 424464, Control_c, 0, 64, 116
1, 424479, Control_c, 0, 64, 77
1, 424486, Note_off_c, 0, 39, 62
1, 424488, Note_off_c, 0, 71, 58
1, 424494, Control_c, 0, 64, 0
1, 424497, Note_off_c, 0, 66, 47
1, 424505, Note_off_c, 0, 70, 56
1, 424554, Control_c, 0, 64, 63
1, 424568, Control_c, 0, 64, 87
1, 424583, Control_c, 0, 64, 122
1, 424598, Control_c, 0, 64, 127
1, 424613, Note_off_c, 0, 58, 55
1, 424625, Note_on_c, 0, 51, 68
1, 424629, Note_on_c, 0, 39, 53
1, 424672, Note_off_c, 0, 51, 53
1, 424687, Note_off_c, 0, 39, 55
1, 424716, Note_on_c, 0, 55, 78
1, 424723, Poly_aftertouch_c, 0, 66, 0
1, 424753, Note_off_c, 0, 55, 62
1, 424794, Note_on_c, 0, 67, 73
1, 424808, Note_on_c, 0, 63, 51
1, 424819, Note_on_c, 0, 58, 19
1, 424826, Note_off_c, 0, 67, 65
1, 424831, Note_off_c, 0, 63, 60
1, 424848, Note_off_c, 0, 58, 57
1, 424884, Note_on_c, 0, 67, 82
1, 424926, Note_off_c, 0, 67, 58
1, 424964, Note_on_c, 0, 79, 77
1, 424980, Note_on_c, 0, 75, 51
1, 424983, Note_on_c, 0, 70, 38
1, 425001, Note_off_c, 0, 79, 65
1, 425004, Note_off_c, 0, 75, 61
1, 425012, Note_off_c, 0, 70, 56
1, 425057, Note_on_c, 0, 79, 84
1, 425114, Note_off_c, 0, 79, 62
1, 425144, Note_on_c, 0, 67, 108
1, 425147, Note_on_c, 0, 55, 108
1, 425147, Note_on_c, 0, 82, 89
1, 425147, Note_on_c, 0, 91, 85
1, 425153, Note_on_c, 0, 87, 79
1, 425182, Note_on_c, 0, 89, 35
1, 425194, Note_off_c, 0, 82, 66
1, 425207, Note_off_c, 0, 87, 63
1, 425214, Note_off_c, 0, 89, 37
1, 425218, Note_off_c, 0, 91, 60
1, 425236, Note_on_c, 0, 79, 83
1, 425277, Note_off_c, 0, 79, 64
1, 425313, Note_on_c, 0, 91, 86
1, 425319, Note_on_c, 0, 87, 72
1, 425325, Note_off_c, 0, 67, 53
1, 425340, Note_off_c, 0, 87, 70
1, 425342, Note_on_c, 0, 82, 24
1, 425346, Note_off_c, 0, 91, 60
1, 425373, Note_off_c, 0, 55, 59
1, 425383, Note_off_c, 0, 82, 36
1, 425402, Note_on_c, 0, 91, 80
1, 425405, Note_on_c, 0, 93, 79
1, 425431, Note_off_c, 0, 93, 57
1, 425440, Note_off_c, 0, 91, 61
1, 425466, Note_on_c, 0, 103, 99
1, 425468, Note_on_c, 0, 94, 92
1, 425472, Note_on_c, 0, 99, 81
1, 425493, Note_off_c, 0, 103, 56
1, 425494, Note_on_c, 0, 101, 41
1, 425495, Note_off_c, 0, 101, 127
1, 425504, Note_off_c, 0, 99, 58
1, 425507, Note_off_c, 0, 94, 64
1, 425524, Poly_aftertouch_c, 0, 101, 0
1, 425871, Note_on_c, 0, 27, 60
1, 425892, Note_on_c, 0, 31, 51
1, 425893, Note_on_c, 0, 58, 89
1, 425896, Note_on_c, 0, 46, 95
1, 425910, Note_off_c, 0, 58, 75
1, 425918, Note_off_c, 0, 46, 67
1, 425921, Note_on_c, 0, 34, 65
1, 425934, Control_c, 0, 64, 108
1, 425949, Control_c, 0, 64, 73
1, 425963, Control_c, 0, 64, 0
1, 425964, Note_off_c, 0, 31, 58
1, 425981, Note_on_c, 0, 39, 91
1, 425990, Note_on_c, 0, 63, 112
1, 425993, Note_on_c, 0, 51, 103
1, 425993, Control_c, 0, 64, 46
1, 426000, Note_off_c, 0, 34, 60
1, 426008, Control_c, 0, 64, 71
1, 426017, Note_off_c, 0, 27, 59
1, 426023, Control_c, 0, 64, 91
1, 426032, Note_off_c, 0, 39, 63
1, 426037, Control_c, 0, 64, 115
1, 426043, Note_off_c, 0, 51, 61
1, 426052, Control_c, 0, 64, 127
1, 426053, Note_on_c, 0, 61, 20
1, 426118, Note_off_c, 0, 61, 56
1, 426181, Note_on_c, 0, 39, 62
1, 426181, Note_on_c, 0, 51, 67
1, 426210, Note_off_c, 0, 51, 57
1, 426244, Note_off_c, 0, 39, 57
1, 426246, Note_off_c, 0, 63, 56
1, 426275, Note_on_c, 0, 55, 81
1, 426303, Note_off_c, 0, 55, 65
1, 426354, Note_on_c, 0, 67, 81
1, 426374, Note_on_c, 0, 63, 44
1, 426387, Note_off_c, 0, 67, 62
1, 426395, Note_off_c, 0, 63, 59
1, 426448, Note_on_c, 0, 67, 86
1, 426494, Note_off_c, 0, 67, 62
1, 426531, Note_on_c, 0, 79, 72
1, 426555, Note_on_c, 0, 75, 32
1, 426566, Note_off_c, 0, 79, 64
1, 426594, Note_off_c, 0, 75, 44
1, 426610, Note_on_c, 0, 67, 93
1, 426616, Note_on_c, 0, 55, 78
1, 426628, Note_off_c, 0, 67, 68
1, 426632, Note_on_c, 0, 79, 83
1, 426637, Note_off_c, 0, 55, 66
1, 426682, Control_c, 0, 64, 122
1, 426684, Note_off_c, 0, 79, 61
1, 426697, Control_c, 0, 64, 87
1, 426704, Note_on_c, 0, 91, 91
1, 426706, Note_on_c, 0, 68, 111
1, 426708, Note_on_c, 0, 82, 88
1, 426709, Note_on_c, 0, 56, 105
1, 426711, Control_c, 0, 64, 52
1, 426712, Note_on_c, 0, 87, 78
1, 426726, Control_c, 0, 64, 0
1, 426731, Note_on_c, 0, 58, 57
1, 426736, Note_on_c, 0, 69, 61
1, 426756, Note_off_c, 0, 69, 62
1, 426759, Note_off_c, 0, 82, 65
1, 426769, Note_off_c, 0, 58, 43
1, 426771, Control_c, 0, 64, 62
1, 426778, Note_off_c, 0, 87, 58
1, 426778, Note_off_c, 0, 91, 58
1, 426785, Control_c, 0, 64, 76
1, 426798, Note_on_c, 0, 79, 80
1, 426800, Control_c, 0, 64, 91
1, 426815, Control_c, 0, 64, 105
1, 426829, Control_c, 0, 64, 111
1, 426844, Control_c, 0, 64, 114
1, 426849, Note_off_c, 0, 79, 63
1, 426859, Control_c, 0, 64, 117
1, 426874, Control_c, 0, 64, 120
1, 426882, Note_on_c, 0, 91, 81
1, 426888, Note_on_c, 0, 87, 61
1, 426889, Control_c, 0, 64, 123
1, 426903, Control_c, 0, 64, 127
1, 426917, Note_off_c, 0, 87, 65
1, 426918, Control_c, 0, 64, 127
1, 426921, Note_off_c, 0, 91, 62
1, 426977, Note_off_c, 0, 56, 60
1, 426978, Note_on_c, 0, 91, 81
1, 426984, Note_off_c, 0, 68, 58
1, 427025, Note_off_c, 0, 91, 60
1, 427055, Note_on_c, 0, 103, 105
1, 427061, Note_on_c, 0, 99, 93
1, 427063, Note_on_c, 0, 94, 97
1, 427064, Note_on_c, 0, 69, 110
1, 427066, Note_on_c, 0, 57, 98
1, 427084, Note_off_c, 0, 94, 64
1, 427090, Note_off_c, 0, 103, 61
1, 427097, Note_off_c, 0, 69, 70
1, 427100, Note_on_c, 0, 101, 11
1, 427101, Note_off_c, 0, 101, 127
1, 427101, Note_off_c, 0, 99, 67
1, 427130, Note_off_c, 0, 57, 62
1, 427376, Note_on_c, 0, 32, 16
1, 427403, Note_on_c, 0, 27, 74
1, 427420, Note_on_c, 0, 34, 73
1, 427422, Note_off_c, 0, 32, 54
1, 427445, Control_c, 0, 64, 115
1, 427447, Note_on_c, 0, 70, 112
1, 427449, Note_on_c, 0, 58, 107
1, 427452, Note_on_c, 0, 39, 91
1, 427460, Control_c, 0, 64, 75
1, 427475, Control_c, 0, 64, 0
1, 427482, Note_off_c, 0, 34, 65
1, 427495, Note_off_c, 0, 27, 64
1, 427517, Note_off_c, 0, 39, 62
1, 427534, Control_c, 0, 64, 77
1, 427545, Note_off_c, 0, 70, 55
1, 427549, Control_c, 0, 64, 110
1, 427564, Control_c, 0, 64, 127
1, 427579, Poly_aftertouch_c, 0, 65, 127
1, 427601, Poly_aftertouch_c, 0, 65, 0
1, 427632, Note_off_c, 0, 58, 55
1, 427660, Note_on_c, 0, 51, 76
1, 427672, Note_on_c, 0, 39, 60
1, 427675, Note_on_c, 0, 46, 48
1, 427704, Note_off_c, 0, 46, 54
1, 427704, Note_off_c, 0, 51, 46
1, 427731, Note_off_c, 0, 39, 56
1, 427743, Note_on_c, 0, 55, 77
1, 427773, Note_off_c, 0, 55, 66
1, 427814, Note_on_c, 0, 67, 78
1, 427829, Note_on_c, 0, 63, 57
1, 427849, Note_off_c, 0, 63, 63
1, 427850, Note_off_c, 0, 67, 62
1, 427859, Note_on_c, 0, 58, 3
1, 427888, Note_off_c, 0, 58, 46
1, 427908, Note_on_c, 0, 67, 77
1, 427934, Note_off_c, 0, 67, 66
1, 427982, Note_on_c, 0, 79, 78
1, 427991, Note_on_c, 0, 75, 59
1, 428014, Note_off_c, 0, 75, 67
1, 428016, Note_off_c, 0, 79, 64
1, 428066, Note_on_c, 0, 79, 83
1, 428132, Note_off_c, 0, 79, 60
1, 428156, Note_on_c, 0, 91, 89
1, 428157, Note_on_c, 0, 75, 109
1, 428160, Note_on_c, 0, 82, 90
1, 428162, Note_on_c, 0, 63, 94
1, 428162, Note_on_c, 0, 87, 81
1, 428185, Note_on_c, 0, 76, 64
1, 428202, Note_off_c, 0, 76, 66
1, 428211, Note_off_c, 0, 82, 65
1, 428220, Note_off_c, 0, 87, 60
1, 428224, Note_off_c, 0, 91, 59
1, 428247, Note_on_c, 0, 79, 82
1, 428265, Note_off_c, 0, 75, 57
1, 428280, Note_off_c, 0, 79, 57
1, 428325, Note_on_c, 0, 91, 82
1, 428327, Note_on_c, 0, 87, 73
1, 428332, Note_off_c, 0, 63, 60
1, 428347, Note_on_c, 0, 82, 40
1, 428349, Note_off_c, 0, 87, 68
1, 428349, Note_off_c, 0, 91, 62
1, 428376, Note_off_c, 0, 82, 34
1, 428403, Note_on_c, 0, 91, 91
1, 428444, Note_off_c, 0, 91, 61
1, 428466, Note_on_c, 0, 103, 106
1, 428469, Note_on_c, 0, 94, 99
1, 428471, Note_on_c, 0, 99, 88
1, 428485, Note_off_c, 0, 103, 62
1, 428499, Note_on_c, 0, 101, 39
1, 428500, Note_off_c, 0, 101, 127
1, 428504, Note_on_c, 0, 100, 26
1, 428505, Note_off_c, 0, 100, 127
1, 428505, Note_off_c, 0, 94, 66
1, 428510, Note_off_c, 0, 99, 68
1, 428812, Note_on_c, 0, 67, 96
1, 428813, Note_on_c, 0, 55, 88
1, 428831, Note_on_c, 0, 27, 61
1, 428836, Note_off_c, 0, 67, 72
1, 428841, Note_off_c, 0, 55, 70
1, 428885, Note_on_c, 0, 34, 47
1, 428900, Note_on_c, 0, 68, 116
1, 428900, Note_on_c, 0, 56, 112
1, 428903, Note_on_c, 0, 38, 92
1, 428912, Control_c, 0, 64, 92
1, 428921, Note_off_c, 0, 34, 63
1, 428927, Control_c, 0, 64, 58
1, 428933, Note_off_c, 0, 27, 65
1, 428942, Control_c, 0, 64, 0
1, 428959, Note_off_c, 0, 38, 64
1, 428962, Note_off_c, 0, 68, 59
1, 428972, Control_c, 0, 64, 42
1, 428986, Control_c, 0, 64, 77
1, 429001, Control_c, 0, 64, 97
1, 429016, Control_c, 0, 64, 123
1, 429031, Control_c, 0, 64, 127
1, 429057, Note_off_c, 0, 56, 61
1, 429091, Note_on_c, 0, 50, 74
1, 429092, Note_on_c, 0, 46, 63
1, 429096, Note_on_c, 0, 41, 59
1, 429141, Note_off_c, 0, 46, 52
1, 429156, Note_off_c, 0, 41, 58
1, 429159, Note_off_c, 0, 50, 58
1, 429170, Note_on_c, 0, 53, 78
1, 429199, Note_off_c, 0, 53, 65
1, 429248, Note_on_c, 0, 65, 73
1, 429277, Note_off_c, 0, 65, 67
1, 429331, Poly_aftertouch_c, 0, 58, 0
1, 429344, Note_on_c, 0, 65, 82
1, 429371, Note_off_c, 0, 65, 67
1, 429421, Note_on_c, 0, 77, 81
1, 429433, Note_on_c, 0, 74, 53
1, 429454, Note_off_c, 0, 74, 63
1, 429460, Note_off_c, 0, 77, 62
1, 429499, Note_on_c, 0, 67, 87
1, 429502, Note_on_c, 0, 77, 86
1, 429505, Note_on_c, 0, 55, 79
1, 429520, Note_off_c, 0, 67, 68
1, 429533, Note_off_c, 0, 55, 66
1, 429550, Control_c, 0, 64, 100
1, 429551, Note_off_c, 0, 77, 63
1, 429565, Control_c, 0, 64, 73
1, 429588, Control_c, 0, 64, 0
1, 429593, Note_on_c, 0, 68, 108
1, 429593, Note_on_c, 0, 82, 93
1, 429594, Note_on_c, 0, 86, 83
1, 429594, Note_on_c, 0, 89, 86
1, 429597, Note_on_c, 0, 56, 104
1, 429612, Note_on_c, 0, 66, 70
1, 429618, Note_on_c, 0, 55, 66
1, 429631, Note_off_c, 0, 66, 42
1, 429647, Control_c, 0, 64, 69
1, 429652, Note_off_c, 0, 55, 48
1, 429661, Control_c, 0, 64, 82
1, 429666, Note_off_c, 0, 86, 52
1, 429672, Note_off_c, 0, 89, 58
1, 429674, Note_off_c, 0, 82, 46
1, 429676, Control_c, 0, 64, 99
1, 429684, Note_on_c, 0, 77, 84
1, 429691, Control_c, 0, 64, 112
1, 429706, Control_c, 0, 64, 115
1, 429721, Control_c, 0, 64, 115
1, 429734, Note_off_c, 0, 77, 61
1, 429735, Control_c, 0, 64, 118
1, 429743, Note_off_c, 0, 56, 59
1, 429750, Control_c, 0, 64, 126
1, 429754, Note_off_c, 0, 68, 55
1, 429765, Control_c, 0, 64, 127
1, 429777, Note_on_c, 0, 89, 78
1, 429789, Note_on_c, 0, 82, 56
1, 429789, Note_on_c, 0, 86, 60
1, 429807, Note_off_c, 0, 86, 64
1, 429808, Note_off_c, 0, 89, 63
1, 429809, Note_off_c, 0, 82, 61
1, 429866, Note_on_c, 0, 89, 80
1, 429910, Note_off_c, 0, 89, 64
1, 429928, Control_c, 0, 64, 96
1, 429932, Note_on_c, 0, 101, 110
1, 429934, Note_on_c, 0, 98, 98
1, 429935, Note_on_c, 0, 65, 105
1, 429938, Note_on_c, 0, 94, 97
1, 429939, Note_on_c, 0, 53, 99
1, 429943, Control_c, 0, 64, 72
1, 429958, Control_c, 0, 64, 0
1, 429960, Note_off_c, 0, 101, 64
1, 429967, Note_off_c, 0, 65, 69
1, 429970, Note_off_c, 0, 98, 63
1, 429975, Note_off_c, 0, 94, 63
1, 429988, Control_c, 0, 64, 65
1, 429993, Note_off_c, 0, 53, 63
1, 430002, Control_c, 0, 64, 82
1, 430017, Control_c, 0, 64, 106
1, 430032, Control_c, 0, 64, 127
1, 430047, Poly_aftertouch_c, 0, 54, 0
1, 430238, Poly_aftertouch_c, 0, 32, 127
1, 430248, Note_on_c, 0, 27, 78
1, 430269, Note_on_c, 0, 34, 72
1, 430283, Control_c, 0, 64, 112
1, 430288, Poly_aftertouch_c, 0, 32, 0
1, 430291, Note_on_c, 0, 63, 105
1, 430292, Note_on_c, 0, 51, 109
1, 430298, Control_c, 0, 64, 76
1, 430300, Note_on_c, 0, 39, 91
1, 430313, Poly_aftertouch_c, 0, 61, 0
1, 430313, Control_c, 0, 64, 0
1, 430337, Note_off_c, 0, 34, 66
1, 430339, Note_off_c, 0, 27, 64
1, 430363, Note_off_c, 0, 39, 63
1, 430381, Control_c, 0, 64, 68
1, 430396, Control_c, 0, 64, 84
1, 430411, Control_c, 0, 64, 91
1, 430420, Note_off_c, 0, 51, 55
1, 430425, Control_c, 0, 64, 92
1, 430440, Control_c, 0, 64, 93
1, 430455, Control_c, 0, 64, 93
1, 430470, Control_c, 0, 64, 94
1, 430484, Control_c, 0, 64, 95
1, 430499, Control_c, 0, 64, 95
1, 430509, Note_on_c, 0, 39, 67
1, 430512, Note_on_c, 0, 51, 74
1, 430514, Poly_aftertouch_c, 0, 58, 0
1, 430514, Control_c, 0, 64, 96
1, 430529, Control_c, 0, 64, 97
1, 430536, Note_on_c, 0, 46, 41
1, 430544, Control_c, 0, 64, 98
1, 430546, Note_off_c, 0, 63, 58
1, 430556, Note_off_c, 0, 51, 49
1, 430558, Note_on_c, 0, 55, 78
1, 430558, Control_c, 0, 64, 99
1, 430569, Note_off_c, 0, 46, 51
1, 430573, Control_c, 0, 64, 101
1, 430577, Note_off_c, 0, 39, 53
1, 430588, Note_off_c, 0, 55, 66
1, 430588, Control_c, 0, 64, 103
1, 430602, Control_c, 0, 64, 104
1, 430617, Control_c, 0, 64, 106
1, 430632, Control_c, 0, 64, 108
1, 430644, Note_on_c, 0, 63, 74
1, 430645, Note_on_c, 0, 58, 48
1, 430647, Control_c, 0, 64, 112
1, 430662, Control_c, 0, 64, 118
1, 430666, Note_off_c, 0, 63, 70
1, 430672, Note_off_c, 0, 58, 55
1, 430676, Control_c, 0, 64, 127
1, 430722, Note_on_c, 0, 67, 86
1, 430748, Note_off_c, 0, 67, 61
1, 430803, Note_on_c, 0, 70, 46
1, 430812, Note_on_c, 0, 75, 41
1, 430819, Note_on_c, 0, 76, 52
1, 430827, Note_off_c, 0, 70, 59
1, 430839, Note_off_c, 0, 75, 51
1, 430840, Note_off_c, 0, 76, 58
1, 430872, Note_on_c, 0, 79, 90
1, 430914, Note_off_c, 0, 79, 63
1, 430942, Note_on_c, 0, 87, 86
1, 430943, Note_on_c, 0, 82, 83
1, 430989, Note_off_c, 0, 82, 62
1, 430995, Note_off_c, 0, 87, 62
1, 431010, Note_on_c, 0, 79, 85
1, 431036, Note_off_c, 0, 79, 64
1, 431082, Note_on_c, 0, 87, 86
1, 431118, Note_off_c, 0, 87, 67
1, 431120, Note_on_c, 0, 82, 24
1, 431121, Note_off_c, 0, 82, 127
1, 431173, Note_on_c, 0, 91, 93
1, 431210, Note_off_c, 0, 91, 60
1, 431232, Note_on_c, 0, 73, 113
1, 431235, Note_on_c, 0, 99, 86
1, 431239, Note_on_c, 0, 67, 88
1, 431239, Note_on_c, 0, 100, 91
1, 431242, Note_on_c, 0, 63, 86
1, 431242, Note_on_c, 0, 95, 73
1, 431250, Note_off_c, 0, 99, 70
1, 431255, Note_off_c, 0, 100, 74
1, 431257, Note_off_c, 0, 95, 67
1, 431270, Note_on_c, 0, 101, 28
1, 431271, Note_off_c, 0, 101, 127
1, 431472, Note_off_c, 0, 67, 57
1, 431541, Note_off_c, 0, 73, 53
1, 431544, Note_off_c, 0, 63, 58
1, 431603, Control_c, 0, 64, 106
1, 431618, Control_c, 0, 64, 84
1, 431633, Control_c, 0, 64, 64
1, 431637, Note_on_c, 0, 72, 114
1, 431642, Note_on_c, 0, 68, 97
1, 431648, Control_c, 0, 64, 58
1, 431663, Control_c, 0, 64, 67
1, 431678, Control_c, 0, 64, 74
1, 431692, Control_c, 0, 64, 83
1, 431707, Control_c, 0, 64, 91
1, 431722, Control_c, 0, 64, 94
1, 431737, Control_c, 0, 64, 95
1, 431744, Note_on_c, 0, 75, 66
1, 431767, Control_c, 0, 64, 95
1, 431773, Note_off_c, 0, 75, 68
1, 431842, Note_on_c, 0, 87, 64
1, 431862, Note_off_c, 0, 87, 63
1, 431872, Note_off_c, 0, 68, 60
1, 431878, Control_c, 0, 64, 94
1, 431893, Control_c, 0, 64, 89
1, 431907, Control_c, 0, 64, 81
1, 431909, Note_off_c, 0, 72, 58
1, 431918, Note_on_c, 0, 87, 88
1, 431922, Control_c, 0, 64, 68
1, 431925, Poly_aftertouch_c, 0, 80, 0
1, 431937, Control_c, 0, 64, 0
1, 431961, Note_on_c, 0, 70, 74
1, 431966, Note_on_c, 0, 67, 66
1, 431967, Note_off_c, 0, 87, 63
1, 431993, Note_off_c, 0, 70, 61
1, 431996, Note_on_c, 0, 92, 84
1, 431996, Note_off_c, 0, 67, 65
1, 432000, Note_on_c, 0, 99, 76
1, 432024, Note_off_c, 0, 99, 72
1, 432043, Note_off_c, 0, 92, 66
1, 432070, Note_on_c, 0, 87, 62
1, 432097, Note_off_c, 0, 87, 60
1, 432128, Note_on_c, 0, 65, 38
1, 432128, Note_on_c, 0, 68, 55
1, 432133, Note_on_c, 0, 92, 80
1, 432149, Note_off_c, 0, 68, 61
1, 432156, Note_on_c, 0, 99, 37
1, 432158, Note_off_c, 0, 65, 46
1, 432170, Note_off_c, 0, 92, 62
1, 432177, Note_on_c, 0, 87, 81
1, 432188, Note_off_c, 0, 99, 34
1, 432203, Note_off_c, 0, 87, 65
1, 432261, Note_on_c, 0, 67, 87
1, 432267, Note_on_c, 0, 63, 79
1, 432298, Note_off_c, 0, 63, 62
1, 432298, Note_off_c, 0, 67, 63
1, 432328, Note_on_c, 0, 70, 70
1, 432355, Note_off_c, 0, 70, 69
1, 432404, Note_on_c, 0, 82, 68
1, 432405, Note_on_c, 0, 65, 77
1, 432409, Note_on_c, 0, 58, 68
1, 432412, Note_on_c, 0, 75, 51
1, 432423, Note_off_c, 0, 82, 65
1, 432430, Note_off_c, 0, 65, 68
1, 432436, Note_off_c, 0, 75, 39
1, 432444, Note_off_c, 0, 58, 63
1, 432480, Note_on_c, 0, 82, 85
1, 432521, Note_off_c, 0, 82, 63
1, 432548, Note_on_c, 0, 63, 67
1, 432551, Note_on_c, 0, 87, 82
1, 432554, Note_on_c, 0, 55, 48
1, 432556, Note_on_c, 0, 94, 79
1, 432587, Note_off_c, 0, 63, 65
1, 432587, Note_off_c, 0, 94, 66
1, 432589, Note_off_c, 0, 55, 56
1, 432611, Note_off_c, 0, 87, 64
1, 432629, Note_on_c, 0, 82, 79
1, 432684, Note_off_c, 0, 82, 62
1, 432685, Note_on_c, 0, 63, 59
1, 432691, Note_on_c, 0, 67, 66
1, 432706, Note_on_c, 0, 87, 70
1, 432721, Note_off_c, 0, 63, 65
1, 432731, Note_off_c, 0, 87, 68
1, 432734, Note_off_c, 0, 67, 59
1, 432749, Note_on_c, 0, 82, 72
1, 432768, Note_off_c, 0, 82, 68
1, 432815, Note_on_c, 0, 68, 94
1, 432821, Note_on_c, 0, 65, 77
1, 432835, Control_c, 0, 64, 79
1, 432850, Control_c, 0, 64, 101
1, 432865, Control_c, 0, 64, 110
1, 432872, Note_on_c, 0, 70, 73
1, 432900, Note_off_c, 0, 70, 64
1, 432959, Note_on_c, 0, 82, 75
1, 432961, Note_off_c, 0, 65, 27
1, 432978, Note_off_c, 0, 68, 59
1, 432982, Note_off_c, 0, 82, 68
1, 433010, Note_on_c, 0, 67, 70
1, 433013, Control_c, 0, 64, 107
1, 433022, Note_on_c, 0, 64, 27
1, 433028, Control_c, 0, 64, 97
1, 433037, Note_on_c, 0, 82, 86
1, 433043, Control_c, 0, 64, 80
1, 433058, Control_c, 0, 64, 0
1, 433060, Note_off_c, 0, 64, 50
1, 433070, Note_off_c, 0, 67, 61
1, 433079, Note_off_c, 0, 82, 63
1, 433084, Note_on_c, 0, 68, 76
1, 433097, Note_on_c, 0, 86, 83
1, 433107, Note_on_c, 0, 94, 69
1, 433128, Note_off_c, 0, 68, 64
1, 433131, Note_on_c, 0, 65, 3
1, 433132, Note_off_c, 0, 65, 127
1, 433133, Note_off_c, 0, 94, 69
1, 433150, Note_off_c, 0, 86, 67
1, 433162, Note_on_c, 0, 82, 80
1, 433207, Note_off_c, 0, 82, 63
1, 433220, Note_on_c, 0, 69, 70
1, 433228, Note_on_c, 0, 66, 58
1, 433233, Note_on_c, 0, 86, 76
1, 433251, Note_off_c, 0, 69, 63
1, 433261, Note_off_c, 0, 66, 66
1, 433262, Note_off_c, 0, 86, 61
1, 433277, Note_on_c, 0, 82, 78
1, 433300, Note_off_c, 0, 82, 69
1, 433352, Note_on_c, 0, 70, 93
1, 433358, Note_on_c, 0, 67, 78
1, 433380, Note_off_c, 0, 67, 68
1, 433391, Note_off_c, 0, 70, 63
1, 433391, Control_c, 0, 64, 79
1, 433405, Control_c, 0, 64, 94
1, 433412, Note_on_c, 0, 70, 65
1, 433420, Control_c, 0, 64, 108
1, 433446, Note_off_c, 0, 70, 64
1, 433450, Control_c, 0, 64, 109
1, 433465, Control_c, 0, 64, 109
1, 433479, Control_c, 0, 64, 110
1, 433494, Control_c, 0, 64, 111
1, 433499, Note_on_c, 0, 82, 62
1, 433509, Control_c, 0, 64, 116
1, 433517, Note_off_c, 0, 82, 64
1, 433524, Control_c, 0, 64, 127
1, 433565, Note_on_c, 0, 82, 83
1, 433584, Control_c, 0, 64, 114
1, 433591, Note_off_c, 0, 82, 62
1, 433599, Control_c, 0, 64, 92
1, 433614, Control_c, 0, 64, 72
1, 433624, Note_on_c, 0, 94, 93
1, 433628, Control_c, 0, 64, 0
1, 433629, Note_on_c, 0, 87, 82
1, 433630, Note_on_c, 0, 67, 83
1, 433630, Note_on_c, 0, 73, 108
1, 433637, Note_on_c, 0, 63, 86
1, 433658, Control_c, 0, 64, 59
1, 433666, Note_off_c, 0, 94, 62
1, 433673, Control_c, 0, 64, 71
1, 433684, Note_off_c, 0, 87, 63
1, 433688, Control_c, 0, 64, 81
1, 433692, Note_on_c, 0, 82, 69
1, 433702, Control_c, 0, 64, 91
1, 433717, Control_c, 0, 64, 94
1, 433729, Note_off_c, 0, 82, 60
1, 433747, Control_c, 0, 64, 94
1, 433758, Note_off_c, 0, 67, 56
1, 433762, Control_c, 0, 64, 96
1, 433768, Note_on_c, 0, 87, 71
1, 433776, Control_c, 0, 64, 100
1, 433791, Control_c, 0, 64, 104
1, 433797, Note_on_c, 0, 94, 21
1, 433806, Control_c, 0, 64, 106
1, 433809, Note_off_c, 0, 87, 52
1, 433822, Note_off_c, 0, 63, 60
1, 433822, Note_off_c, 0, 73, 58
1, 433826, Note_on_c, 0, 82, 66
1, 433836, Note_off_c, 0, 94, 33
1, 433836, Control_c, 0, 64, 104
1, 433843, Note_off_c, 0, 82, 65
1, 433851, Control_c, 0, 64, 92
1, 433866, Control_c, 0, 64, 75
1, 433881, Control_c, 0, 64, 40
1, 433893, Note_on_c, 0, 72, 105
1, 433895, Control_c, 0, 64, 0
1, 433897, Note_on_c, 0, 68, 93
1, 433910, Control_c, 0, 64, 59
1, 433925, Control_c, 0, 64, 71
1, 433940, Control_c, 0, 64, 80
1, 433942, Note_on_c, 0, 75, 74
1, 433955, Control_c, 0, 64, 89
1, 433969, Control_c, 0, 64, 94
1, 433979, Note_off_c, 0, 75, 61
1, 433984, Control_c, 0, 64, 96
1, 433999, Control_c, 0, 64, 97
1, 434014, Control_c, 0, 64, 99
1, 434028, Control_c, 0, 64, 101
1, 434037, Note_on_c, 0, 87, 64
1, 434043, Control_c, 0, 64, 103
1, 434058, Control_c, 0, 64, 103
1, 434075, Note_off_c, 0, 87, 64
1, 434079, Note_off_c, 0, 68, 58
1, 434081, Control_c, 0, 64, 104
1, 434098, Note_off_c, 0, 72, 55
1, 434110, Control_c, 0, 64, 103
1, 434115, Note_on_c, 0, 87, 94
1, 434125, Control_c, 0, 64, 100
1, 434140, Control_c, 0, 64, 92
1, 434155, Control_c, 0, 64, 81
1, 434157, Note_off_c, 0, 87, 63
1, 434169, Control_c, 0, 64, 65
1, 434174, Note_on_c, 0, 70, 73
1, 434179, Note_on_c, 0, 67, 65
1, 434184, Control_c, 0, 64, 0
1, 434188, Note_on_c, 0, 92, 93
1, 434189, Note_on_c, 0, 99, 93
1, 434215, Note_off_c, 0, 70, 54
1, 434224, Note_off_c, 0, 67, 60
1, 434232, Note_off_c, 0, 99, 67
1, 434239, Note_off_c, 0, 92, 66
1, 434250, Note_on_c, 0, 87, 73
1, 434279, Note_off_c, 0, 87, 61
1, 434300, Note_on_c, 0, 68, 77
1, 434303, Note_on_c, 0, 65, 65
1, 434317, Note_on_c, 0, 92, 86
1, 434325, Note_on_c, 0, 99, 68
1, 434334, Note_off_c, 0, 65, 68
1, 434337, Note_off_c, 0, 68, 63
1, 434342, Note_off_c, 0, 99, 67
1, 434359, Note_on_c, 0, 87, 79
1, 434362, Note_off_c, 0, 92, 63
1, 434382, Note_off_c, 0, 87, 67
1, 434402, Note_on_c, 0, 86, 34
1, 434403, Note_off_c, 0, 86, 127
1, 434429, Note_on_c, 0, 67, 93
1, 434435, Note_on_c, 0, 63, 85
1, 434477, Note_off_c, 0, 67, 59
1, 434489, Note_off_c, 0, 63, 63
1, 434496, Note_on_c, 0, 70, 69
1, 434521, Note_off_c, 0, 70, 68
1, 434559, Note_on_c, 0, 82, 73
1, 434562, Note_on_c, 0, 65, 86
1, 434572, Note_on_c, 0, 58, 69
1, 434582, Note_off_c, 0, 82, 66
1, 434593, Note_off_c, 0, 65, 66
1, 434605, Note_off_c, 0, 58, 63
1, 434629, Note_on_c, 0, 82, 90
1, 434674, Note_off_c, 0, 82, 63
1, 434695, Note_on_c, 0, 63, 78
1, 434698, Note_on_c, 0, 55, 63
1, 434704, Note_on_c, 0, 87, 84
1, 434710, Note_on_c, 0, 94, 76
1, 434724, Note_off_c, 0, 94, 66
1, 434735, Note_off_c, 0, 55, 65
1, 434742, Note_off_c, 0, 63, 58
1, 434756, Note_off_c, 0, 87, 64
1, 434766, Note_on_c, 0, 82, 71
1, 434792, Note_off_c, 0, 82, 64
1, 434829, Note_on_c, 0, 67, 71
1, 434834, Note_on_c, 0, 87, 77
1, 434838, Note_on_c, 0, 63, 47
1, 434841, Note_on_c, 0, 94, 57
1, 434861, Note_off_c, 0, 94, 54
1, 434862, Note_off_c, 0, 63, 59
1, 434879, Note_off_c, 0, 67, 61
1, 434881, Note_on_c, 0, 82, 76
1, 434883, Note_off_c, 0, 87, 62
1, 434902, Note_off_c, 0, 82, 67
1, 434945, Note_on_c, 0, 68, 92
1, 434950, Note_on_c, 0, 65, 80
1, 434977, Control_c, 0, 64, 74
1, 434992, Control_c, 0, 64, 88
1, 435001, Note_on_c, 0, 70, 75
1, 435007, Control_c, 0, 64, 96
1, 435022, Control_c, 0, 64, 96
1, 435026, Note_off_c, 0, 70, 69
1, 435075, Note_on_c, 0, 74, 30
1, 435084, Note_on_c, 0, 82, 78
1, 435103, Note_off_c, 0, 68, 60
1, 435105, Note_off_c, 0, 82, 70
1, 435109, Note_off_c, 0, 74, 43
1, 435130, Note_on_c, 0, 67, 65
1, 435141, Control_c, 0, 64, 96
1, 435156, Control_c, 0, 64, 91
1, 435161, Note_on_c, 0, 82, 85
1, 435163, Note_off_c, 0, 65, 0
1, 435171, Control_c, 0, 64, 82
1, 435186, Control_c, 0, 64, 69
1, 435199, Note_off_c, 0, 82, 64
1, 435201, Note_off_c, 0, 67, 55
1, 435201, Poly_aftertouch_c, 0, 65, 127
1, 435201, Control_c, 0, 64, 0
1, 435206, Poly_aftertouch_c, 0, 64, 0
1, 435217, Note_on_c, 0, 68, 74
1, 435219, Note_on_c, 0, 86, 75
1, 435223, Note_on_c, 0, 94, 84
1, 435230, Poly_aftertouch_c, 0, 65, 0
1, 435260, Note_off_c, 0, 68, 64
1, 435270, Note_off_c, 0, 94, 65
1, 435283, Note_off_c, 0, 86, 64
1, 435288, Note_on_c, 0, 82, 86
1, 435330, Note_off_c, 0, 82, 61
1, 435341, Note_on_c, 0, 65, 73
1, 435344, Note_on_c, 0, 86, 83
1, 435350, Note_on_c, 0, 94, 86
1, 435362, Note_on_c, 0, 58, 53
1, 435374, Note_off_c, 0, 65, 64
1, 435383, Note_off_c, 0, 58, 60
1, 435397, Note_off_c, 0, 94, 63
1, 435398, Note_off_c, 0, 86, 64
1, 435410, Note_on_c, 0, 82, 84
1, 435443, Note_off_c, 0, 82, 61
1, 435455, Note_on_c, 0, 63, 87
1, 435460, Note_on_c, 0, 55, 75
1, 435465, Note_on_c, 0, 94, 101
1, 435467, Control_c, 0, 64, 72
1, 435473, Note_on_c, 0, 87, 92
1, 435476, Note_off_c, 0, 55, 68
1, 435482, Control_c, 0, 64, 92
1, 435485, Note_off_c, 0, 63, 60
1, 435497, Control_c, 0, 64, 121
1, 435499, Note_on_c, 0, 92, 44
1, 435512, Control_c, 0, 64, 127
1, 435523, Note_off_c, 0, 92, 61
1, 435528, Note_off_c, 0, 87, 57
1, 435534, Note_off_c, 0, 94, 64
1, 435682, Control_c, 0, 64, 114
1, 435697, Control_c, 0, 64, 97
1, 435712, Control_c, 0, 64, 82
1, 435727, Control_c, 0, 64, 66
1, 435742, Control_c, 0, 64, 0
1, 435747, Note_on_c, 0, 39, 63
1, 435753, Note_on_c, 0, 51, 59
1, 435756, Control_c, 0, 64, 46
1, 435761, Note_on_c, 0, 82, 22
1, 435771, Control_c, 0, 64, 67
1, 435777, Note_off_c, 0, 39, 64
1, 435784, Note_off_c, 0, 51, 64
1, 435786, Control_c, 0, 64, 78
1, 435801, Control_c, 0, 64, 90
1, 435802, Note_off_c, 0, 82, 30
1, 435806, Note_on_c, 0, 97, 79
1, 435815, Control_c, 0, 64, 97
1, 435830, Control_c, 0, 64, 99
1, 435845, Control_c, 0, 64, 101
1, 435860, Note_off_c, 0, 97, 65
1, 435860, Control_c, 0, 64, 104
1, 435871, Note_on_c, 0, 87, 77
1, 435875, Control_c, 0, 64, 108
1, 435890, Control_c, 0, 64, 114
1, 435893, Note_on_c, 0, 55, 57
1, 435902, Note_off_c, 0, 87, 63
1, 435905, Control_c, 0, 64, 123
1, 435915, Note_off_c, 0, 55, 59
1, 435916, Note_on_c, 0, 43, 25
1, 435920, Control_c, 0, 64, 127
1, 435939, Note_on_c, 0, 97, 77
1, 435959, Note_off_c, 0, 43, 45
1, 435963, Note_off_c, 0, 97, 66
1, 436006, Note_on_c, 0, 80, 79
1, 436009, Control_c, 0, 64, 115
1, 436010, Note_on_c, 0, 56, 76
1, 436012, Note_on_c, 0, 44, 76
1, 436024, Note_off_c, 0, 80, 72
1, 436024, Control_c, 0, 64, 102
1, 436033, Note_off_c, 0, 44, 64
1, 436039, Control_c, 0, 64, 93
1, 436040, Note_off_c, 0, 56, 61
1, 436054, Control_c, 0, 64, 91
1, 436069, Note_on_c, 0, 96, 85
1, 436098, Control_c, 0, 64, 92
1, 436108, Note_off_c, 0, 96, 61
1, 436113, Control_c, 0, 64, 95
1, 436128, Control_c, 0, 64, 102
1, 436133, Note_on_c, 0, 87, 85
1, 436142, Note_on_c, 0, 60, 77
1, 436143, Control_c, 0, 64, 108
1, 436146, Note_on_c, 0, 48, 72
1, 436158, Control_c, 0, 64, 112
1, 436165, Note_off_c, 0, 48, 64
1, 436165, Note_off_c, 0, 60, 66
1, 436170, Note_off_c, 0, 87, 63
1, 436172, Control_c, 0, 64, 113
1, 436192, Note_on_c, 0, 96, 87
1, 436202, Control_c, 0, 64, 106
1, 436210, Note_off_c, 0, 96, 69
1, 436216, Control_c, 0, 64, 91
1, 436231, Control_c, 0, 64, 76
1, 436246, Control_c, 0, 64, 61
1, 436258, Note_on_c, 0, 79, 85
1, 436261, Control_c, 0, 64, 0
1, 436271, Note_on_c, 0, 63, 72
1, 436276, Control_c, 0, 64, 60
1, 436286, Note_off_c, 0, 63, 67
1, 436290, Control_c, 0, 64, 71
1, 436292, Note_on_c, 0, 54, 40
1, 436293, Note_off_c, 0, 54, 127
1, 436293, Note_off_c, 0, 79, 64
1, 436305, Control_c, 0, 64, 85
1, 436306, Note_on_c, 0, 87, 37
1, 436328, Control_c, 0, 64, 102
1, 436330, Note_on_c, 0, 94, 90
1, 436340, Note_off_c, 0, 87, 44
1, 436343, Control_c, 0, 64, 110
1, 436352, Note_off_c, 0, 94, 63
1, 436358, Control_c, 0, 64, 112
1, 436372, Control_c, 0, 64, 114
1, 436379, Poly_aftertouch_c, 0, 65, 0
1, 436387, Control_c, 0, 64, 115
1, 436394, Note_on_c, 0, 77, 81
1, 436400, Note_on_c, 0, 68, 91
1, 436402, Control_c, 0, 64, 115
1, 436413, Note_off_c, 0, 77, 70
1, 436416, Note_on_c, 0, 56, 63
1, 436417, Control_c, 0, 64, 115
1, 436429, Note_off_c, 0, 68, 60
1, 436432, Control_c, 0, 64, 108
1, 436435, Note_off_c, 0, 56, 61
1, 436447, Control_c, 0, 64, 95
1, 436457, Note_on_c, 0, 92, 93
1, 436462, Control_c, 0, 64, 81
1, 436477, Control_c, 0, 64, 65
1, 436492, Control_c, 0, 64, 20
1, 436498, Note_off_c, 0, 92, 65
1, 436506, Control_c, 0, 64, 57
1, 436518, Note_on_c, 0, 70, 94
1, 436521, Control_c, 0, 64, 71
1, 436523, Note_on_c, 0, 58, 87
1, 436523, Note_on_c, 0, 75, 83
1, 436536, Control_c, 0, 64, 82
1, 436542, Note_off_c, 0, 75, 72
1, 436549, Note_off_c, 0, 70, 59
1, 436550, Control_c, 0, 64, 92
1, 436565, Control_c, 0, 64, 95
1, 436587, Note_on_c, 0, 91, 79
1, 436590, Note_off_c, 0, 58, 60
1, 436606, Note_off_c, 0, 91, 67
1, 436610, Control_c, 0, 64, 95
1, 436639, Control_c, 0, 64, 96
1, 436654, Control_c, 0, 64, 99
1, 436664, Note_on_c, 0, 74, 68
1, 436669, Control_c, 0, 64, 104
1, 436680, Note_off_c, 0, 74, 69
1, 436684, Control_c, 0, 64, 107
1, 436698, Control_c, 0, 64, 107
1, 436713, Control_c, 0, 64, 107
1, 436728, Control_c, 0, 64, 102
1, 436744, Control_c, 0, 64, 93
1, 436745, Note_on_c, 0, 90, 81
1, 436759, Control_c, 0, 64, 80
1, 436774, Control_c, 0, 64, 67
1, 436782, Note_off_c, 0, 90, 62
1, 436788, Control_c, 0, 64, 55
1, 436795, Note_on_c, 0, 39, 72
1, 436800, Note_on_c, 0, 51, 70
1, 436802, Note_on_c, 0, 75, 78
1, 436803, Control_c, 0, 64, 66
1, 436818, Control_c, 0, 64, 76
1, 436826, Note_off_c, 0, 39, 63
1, 436832, Note_off_c, 0, 51, 64
1, 436833, Note_off_c, 0, 75, 66
1, 436833, Control_c, 0, 64, 88
1, 436847, Control_c, 0, 64, 95
1, 436862, Control_c, 0, 64, 98
1, 436877, Note_on_c, 0, 91, 71
1, 436877, Control_c, 0, 64, 98
1, 436892, Control_c, 0, 64, 99
1, 436895, Note_off_c, 0, 91, 63
1, 436907, Control_c, 0, 64, 100
1, 436921, Control_c, 0, 64, 101
1, 436933, Note_on_c, 0, 76, 79
1, 436935, Note_on_c, 0, 55, 68
1, 436936, Control_c, 0, 64, 102
1, 436942, Note_on_c, 0, 43, 59
1, 436951, Control_c, 0, 64, 102
1, 436960, Note_off_c, 0, 76, 65
1, 436963, Note_off_c, 0, 55, 65
1, 436970, Note_off_c, 0, 43, 54
1, 436981, Control_c, 0, 64, 99
1, 436985, Note_on_c, 0, 87, 35
1, 436995, Control_c, 0, 64, 90
1, 437003, Note_on_c, 0, 91, 75
1, 437006, Note_off_c, 0, 87, 50
1, 437010, Control_c, 0, 64, 76
1, 437025, Control_c, 0, 64, 59
1, 437032, Note_off_c, 0, 91, 58
1, 437039, Control_c, 0, 64, 37
1, 437048, Note_on_c, 0, 58, 85
1, 437050, Note_on_c, 0, 46, 87
1, 437052, Note_on_c, 0, 77, 82
1, 437054, Control_c, 0, 64, 63
1, 437076, Control_c, 0, 64, 73
1, 437091, Control_c, 0, 64, 89
1, 437093, Note_off_c, 0, 46, 63
1, 437096, Note_off_c, 0, 58, 57
1, 437099, Note_off_c, 0, 77, 64
1, 437106, Control_c, 0, 64, 102
1, 437117, Poly_aftertouch_c, 0, 88, 127
1, 437121, Control_c, 0, 64, 110
1, 437130, Note_on_c, 0, 92, 86
1, 437136, Control_c, 0, 64, 113
1, 437151, Control_c, 0, 64, 116
1, 437158, Note_off_c, 0, 92, 65
1, 437166, Control_c, 0, 64, 122
1, 437170, Poly_aftertouch_c, 0, 84, 0
1, 437177, Poly_aftertouch_c, 0, 88, 0
1, 437181, Control_c, 0, 64, 127
1, 437192, Note_on_c, 0, 62, 86
1, 437192, Note_on_c, 0, 76, 77
1, 437195, Note_on_c, 0, 50, 77
1, 437216, Note_off_c, 0, 76, 68
1, 437216, Note_off_c, 0, 62, 65
1, 437219, Note_off_c, 0, 50, 66
1, 437225, Control_c, 0, 64, 121
1, 437239, Control_c, 0, 64, 104
1, 437254, Control_c, 0, 64, 88
1, 437256, Note_on_c, 0, 91, 80
1, 437269, Control_c, 0, 64, 73
1, 437278, Note_off_c, 0, 91, 64
1, 437284, Control_c, 0, 64, 63
1, 437299, Control_c, 0, 64, 67
1, 437302, Note_on_c, 0, 77, 73
1, 437311, Note_on_c, 0, 65, 96
1, 437313, Control_c, 0, 64, 76
1, 437317, Note_on_c, 0, 53, 75
1, 437328, Control_c, 0, 64, 90
1, 437333, Note_on_c, 0, 55, 58
1, 437334, Note_off_c, 0, 77, 65
1, 437341, Note_off_c, 0, 53, 66
1, 437343, Control_c, 0, 64, 107
1, 437353, Note_off_c, 0, 65, 64
1, 437356, Note_off_c, 0, 55, 61
1, 437358, Control_c, 0, 64, 127
1, 437371, Note_on_c, 0, 92, 95
1, 437426, Note_on_c, 0, 78, 92
1, 437433, Note_on_c, 0, 69, 94
1, 437437, Note_on_c, 0, 66, 81
1, 437438, Note_off_c, 0, 92, 61
1, 437443, Note_on_c, 0, 57, 66
1, 437446, Control_c, 0, 64, 108
1, 437461, Note_off_c, 0, 57, 64
1, 437461, Control_c, 0, 64, 88
1, 437467, Note_off_c, 0, 78, 65
1, 437473, Note_off_c, 0, 69, 65
1, 437476, Control_c, 0, 64, 70
1, 437488, Note_on_c, 0, 93, 88
1, 437491, Note_off_c, 0, 66, 63
1, 437491, Control_c, 0, 64, 0
1, 437520, Control_c, 0, 64, 57
1, 437532, Note_off_c, 0, 93, 62
1, 437535, Control_c, 0, 64, 72
1, 437547, Note_on_c, 0, 66, 57
1, 437547, Note_on_c, 0, 79, 93
1, 437549, Note_on_c, 0, 70, 95
1, 437551, Control_c, 0, 64, 87
1, 437552, Note_on_c, 0, 58, 89
1, 437555, Note_on_c, 0, 67, 80
1, 437566, Control_c, 0, 64, 107
1, 437569, Note_off_c, 0, 66, 63
1, 437581, Control_c, 0, 64, 115
1, 437583, Note_off_c, 0, 67, 61
1, 437586, Note_off_c, 0, 70, 59
1, 437586, Note_off_c, 0, 79, 65
1, 437596, Control_c, 0, 64, 115
1, 437619, Note_on_c, 0, 94, 90
1, 437625, Control_c, 0, 64, 116
1, 437629, Note_off_c, 0, 58, 62
1, 437636, Note_on_c, 0, 92, 65
1, 437640, Control_c, 0, 64, 116
1, 437655, Control_c, 0, 64, 119
1, 437667, Note_off_c, 0, 92, 58
1, 437670, Control_c, 0, 64, 127
1, 437679, Note_off_c, 0, 94, 64
1, 437689, Note_on_c, 0, 87, 72
1, 437759, Note_on_c, 0, 94, 78
1, 437759, Control_c, 0, 64, 109
1, 437774, Control_c, 0, 64, 90
1, 437782, Note_off_c, 0, 87, 62
1, 437788, Control_c, 0, 64, 72
1, 437803, Control_c, 0, 64, 26
1, 437822, Note_on_c, 0, 39, 75
1, 437822, Note_on_c, 0, 51, 77
1, 437825, Control_c, 0, 64, 0
1, 437831, Note_off_c, 0, 94, 64
1, 437835, Note_on_c, 0, 82, 77
1, 437840, Control_c, 0, 64, 62
1, 437848, Note_off_c, 0, 39, 64
1, 437848, Note_off_c, 0, 51, 67
1, 437855, Control_c, 0, 64, 74
1, 437869, Control_c, 0, 64, 87
1, 437872, Note_off_c, 0, 82, 63
1, 437884, Control_c, 0, 64, 99
1, 437899, Control_c, 0, 64, 105
1, 437908, Note_on_c, 0, 97, 86
1, 437914, Control_c, 0, 64, 107
1, 437929, Control_c, 0, 64, 112
1, 437944, Control_c, 0, 64, 119
1, 437953, Note_off_c, 0, 97, 62
1, 437956, Note_on_c, 0, 55, 76
1, 437959, Control_c, 0, 64, 127
1, 437965, Note_on_c, 0, 87, 78
1, 437966, Note_on_c, 0, 43, 63
1, 437982, Note_off_c, 0, 55, 68
1, 437991, Note_off_c, 0, 43, 56
1, 437993, Note_off_c, 0, 87, 65
1, 438003, Control_c, 0, 64, 119
1, 438018, Control_c, 0, 64, 101
1, 438033, Control_c, 0, 64, 84
1, 438035, Note_on_c, 0, 97, 70
1, 438048, Control_c, 0, 64, 64
1, 438048, Note_off_c, 0, 97, 65
1, 438062, Control_c, 0, 64, 17
1, 438072, Note_on_c, 0, 56, 91
1, 438077, Note_on_c, 0, 44, 85
1, 438077, Control_c, 0, 64, 57
1, 438090, Note_on_c, 0, 80, 74
1, 438092, Control_c, 0, 64, 69
1, 438107, Note_off_c, 0, 44, 67
1, 438107, Control_c, 0, 64, 80
1, 438112, Note_off_c, 0, 80, 70
1, 438118, Note_off_c, 0, 56, 60
1, 438122, Control_c, 0, 64, 93
1, 438136, Control_c, 0, 64, 100
1, 438138, Note_on_c, 0, 96, 88
1, 438151, Control_c, 0, 64, 101
1, 438166, Control_c, 0, 64, 102
1, 438177, Note_off_c, 0, 96, 62
1, 438181, Control_c, 0, 64, 105
1, 438195, Control_c, 0, 64, 110
1, 438200, Note_on_c, 0, 87, 89
1, 438203, Note_on_c, 0, 60, 83
1, 438206, Note_on_c, 0, 48, 82
1, 438210, Control_c, 0, 64, 117
1, 438224, Note_off_c, 0, 60, 70
1, 438225, Control_c, 0, 64, 120
1, 438232, Note_off_c, 0, 48, 69
1, 438236, Note_off_c, 0, 87, 66
1, 438240, Control_c, 0, 64, 119
1, 438255, Control_c, 0, 64, 112
1, 438265, Note_on_c, 0, 96, 83
1, 438269, Control_c, 0, 64, 96
1, 438284, Note_off_c, 0, 96, 68
1, 438284, Control_c, 0, 64, 79
1, 438299, Control_c, 0, 64, 60
1, 438314, Control_c, 0, 64, 0
1, 438325, Note_on_c, 0, 79, 80
1, 438329, Control_c, 0, 64, 65
1, 438331, Note_on_c, 0, 63, 74
1, 438340, Note_on_c, 0, 54, 65
1, 438345, Control_c, 0, 64, 78
1, 438346, Note_off_c, 0, 63, 68
1, 438348, Note_off_c, 0, 79, 67
1, 438357, Note_on_c, 0, 65, 48
1, 438359, Note_on_c, 0, 87, 42
1, 438360, Control_c, 0, 64, 98
1, 438361, Note_off_c, 0, 54, 59
1, 438374, Control_c, 0, 64, 127
1, 438380, Note_off_c, 0, 65, 58
1, 438382, Note_off_c, 0, 87, 49
1, 438385, Note_on_c, 0, 94, 91
1, 438410, Note_off_c, 0, 94, 62
1, 438428, Poly_aftertouch_c, 0, 64, 0
1, 438442, Note_on_c, 0, 77, 81
1, 438447, Note_on_c, 0, 68, 98
1, 438461, Note_off_c, 0, 77, 70
1, 438462, Note_on_c, 0, 56, 67
1, 438481, Note_off_c, 0, 56, 62
1, 438486, Note_off_c, 0, 68, 63
1, 438493, Control_c, 0, 64, 116
1, 438503, Note_on_c, 0, 92, 93
1, 438508, Control_c, 0, 64, 94
1, 438523, Control_c, 0, 64, 73
1, 438538, Control_c, 0, 64, 51
1, 438540, Note_off_c, 0, 92, 67
1, 438553, Control_c, 0, 64, 52
1, 438569, Note_on_c, 0, 70, 99
1, 438573, Note_on_c, 0, 75, 90
1, 438575, Control_c, 0, 64, 69
1, 438576, Note_on_c, 0, 58, 88
1, 438590, Control_c, 0, 64, 82
1, 438603, Note_off_c, 0, 70, 61
1, 438605, Control_c, 0, 64, 101
1, 438609, Note_off_c, 0, 75, 65
1, 438619, Control_c, 0, 64, 114
1, 438632, Note_on_c, 0, 91, 77
1, 438632, Note_off_c, 0, 58, 62
1, 438634, Control_c, 0, 64, 114
1, 438646, Note_off_c, 0, 91, 65
1, 438679, Control_c, 0, 64, 115
1, 438693, Control_c, 0, 64, 127
1, 438696, Note_on_c, 0, 74, 81
1, 438713, Note_on_c, 0, 82, 62
1, 438724, Note_off_c, 0, 74, 64
1, 438731, Note_off_c, 0, 82, 65
1, 438773, Note_on_c, 0, 90, 85
1, 438812, Control_c, 0, 64, 82
1, 438818, Note_off_c, 0, 90, 63
1, 438826, Note_on_c, 0, 75, 81
1, 438826, Control_c, 0, 64, 0
1, 438830, Note_on_c, 0, 39, 82
1, 438834, Note_on_c, 0, 51, 81
1, 438861, Note_off_c, 0, 75, 65
1, 438862, Note_off_c, 0, 39, 67
1, 438871, Note_off_c, 0, 51, 62
1, 438895, Note_on_c, 0, 91, 79
1, 438901, Control_c, 0, 64, 70
1, 438916, Control_c, 0, 64, 91
1, 438923, Note_off_c, 0, 91, 55
1, 438930, Control_c, 0, 64, 109
1, 438945, Control_c, 0, 64, 127
1, 438956, Note_on_c, 0, 76, 87
1, 438958, Note_on_c, 0, 55, 81
1, 438968, Note_on_c, 0, 43, 64
1, 438982, Note_off_c, 0, 55, 69
1, 438991, Note_on_c, 0, 87, 45
1, 438993, Note_off_c, 0, 76, 65
1, 438994, Note_off_c, 0, 43, 56
1, 439015, Note_off_c, 0, 87, 61
1, 439026, Note_on_c, 0, 91, 83
1, 439049, Control_c, 0, 64, 108
1, 439053, Note_on_c, 0, 89, 8
1, 439053, Note_off_c, 0, 91, 55
1, 439064, Control_c, 0, 64, 89
1, 439071, Note_on_c, 0, 58, 90
1, 439072, Note_on_c, 0, 46, 93
1, 439074, Note_on_c, 0, 77, 89
1, 439079, Control_c, 0, 64, 72
1, 439081, Note_on_c, 0, 84, 26
1, 439088, Note_on_c, 0, 88, 22
1, 439093, Control_c, 0, 64, 25
1, 439103, Note_off_c, 0, 89, 31
1, 439108, Control_c, 0, 64, 28
1, 439109, Note_off_c, 0, 46, 64
1, 439115, Note_off_c, 0, 77, 64
1, 439116, Note_off_c, 0, 58, 63
1, 439123, Control_c, 0, 64, 62
1, 439132, Note_off_c, 0, 84, 57
1, 439134, Note_off_c, 0, 88, 0
1, 439134, Note_on_c, 0, 88, 30
1, 439139, Control_c, 0, 64, 73
1, 439145, Note_on_c, 0, 92, 91
1, 439154, Control_c, 0, 64, 87
1, 439169, Control_c, 0, 64, 108
1, 439172, Note_off_c, 0, 92, 64
1, 439183, Control_c, 0, 64, 127
1, 439191, Note_off_c, 0, 88, 60
1, 439196, Note_on_c, 0, 76, 87
1, 439201, Note_on_c, 0, 62, 81
1, 439209, Note_on_c, 0, 50, 62
1, 439211, Note_on_c, 0, 87, 42
1, 439213, Note_on_c, 0, 60, 67
1, 439220, Note_on_c, 0, 48, 56
1, 439229, Note_off_c, 0, 62, 64
1, 439231, Note_off_c, 0, 60, 64
1, 439232, Note_off_c, 0, 87, 55
1, 439235, Note_off_c, 0, 76, 63
1, 439238, Note_off_c, 0, 50, 64
1, 439244, Note_off_c, 0, 48, 59
1, 439270, Note_on_c, 0, 91, 79
1, 439286, Note_off_c, 0, 91, 62
1, 439307, Note_on_c, 0, 77, 90
1, 439326, Note_on_c, 0, 65, 95
1, 439333, Note_on_c, 0, 53, 70
1, 439348, Note_on_c, 0, 55, 56
1, 439351, Note_off_c, 0, 77, 66
1, 439355, Note_on_c, 0, 85, 43
1, 439357, Note_off_c, 0, 53, 61
1, 439369, Note_off_c, 0, 65, 66
1, 439372, Note_off_c, 0, 55, 60
1, 439383, Note_off_c, 0, 85, 48
1, 439392, Note_on_c, 0, 92, 92
1, 439441, Note_on_c, 0, 78, 90
1, 439443, Note_on_c, 0, 90, 7
1, 439446, Note_off_c, 0, 92, 62
1, 439448, Note_on_c, 0, 66, 87
1, 439449, Note_on_c, 0, 69, 87
1, 439458, Control_c, 0, 64, 106
1, 439467, Note_off_c, 0, 90, 52
1, 439469, Note_on_c, 0, 85, 43
1, 439473, Control_c, 0, 64, 83
1, 439475, Note_off_c, 0, 69, 66
1, 439484, Note_off_c, 0, 78, 64
1, 439488, Control_c, 0, 64, 58
1, 439490, Note_on_c, 0, 57, 4
1, 439494, Note_off_c, 0, 85, 50
1, 439500, Note_off_c, 0, 66, 66
1, 439503, Control_c, 0, 64, 0
1, 439506, Note_on_c, 0, 93, 89
1, 439533, Note_off_c, 0, 57, 36
1, 439548, Note_off_c, 0, 93, 62
1, 439554, Note_on_c, 0, 66, 96
1, 439559, Note_on_c, 0, 70, 98
1, 439561, Note_on_c, 0, 58, 90
1, 439561, Note_on_c, 0, 79, 92
1, 439562, Control_c, 0, 64, 65
1, 439576, Control_c, 0, 64, 82
1, 439586, Note_off_c, 0, 70, 61
1, 439591, Control_c, 0, 64, 103
1, 439599, Note_off_c, 0, 79, 67
1, 439606, Control_c, 0, 64, 127
1, 439610, Note_off_c, 0, 66, 64
1, 439628, Note_off_c, 0, 58, 62
1, 439638, Note_on_c, 0, 94, 94
1, 439695, Note_on_c, 0, 87, 73
1, 439696, Note_off_c, 0, 94, 64
1, 439754, Control_c, 0, 64, 113
1, 439762, Note_on_c, 0, 94, 81
1, 439768, Control_c, 0, 64, 91
1, 439783, Control_c, 0, 64, 72
1, 439786, Note_off_c, 0, 87, 63
1, 439798, Control_c, 0, 64, 0
1, 439817, Note_on_c, 0, 39, 78
1, 439821, Note_on_c, 0, 51, 81
1, 439827, Note_off_c, 0, 94, 64
1, 439831, Note_on_c, 0, 82, 84
1, 439843, Control_c, 0, 64, 50
1, 439849, Note_off_c, 0, 39, 64
1, 439854, Note_off_c, 0, 51, 61
1, 439858, Control_c, 0, 64, 71
1, 439866, Note_off_c, 0, 82, 66
1, 439872, Control_c, 0, 64, 83
1, 439887, Control_c, 0, 64, 98
1, 439898, Note_on_c, 0, 97, 91
1, 439902, Control_c, 0, 64, 111
1, 439917, Control_c, 0, 64, 120
1, 439932, Control_c, 0, 64, 125
1, 439944, Note_off_c, 0, 97, 62
1, 439951, Note_on_c, 0, 87, 84
1, 439953, Note_on_c, 0, 55, 78
1, 439959, Note_on_c, 0, 43, 76
1, 439962, Control_c, 0, 64, 118
1, 439977, Control_c, 0, 64, 102
1, 439979, Note_off_c, 0, 55, 68
1, 439986, Note_off_c, 0, 43, 64
1, 439992, Note_off_c, 0, 87, 63
1, 439992, Control_c, 0, 64, 86
1, 440007, Control_c, 0, 64, 69
1, 440021, Note_on_c, 0, 97, 79
1, 440021, Control_c, 0, 64, 0
1, 440041, Note_off_c, 0, 97, 69
1, 440051, Control_c, 0, 64, 62
1, 440073, Control_c, 0, 64, 72
1, 440078, Note_on_c, 0, 56, 93
1, 440080, Note_on_c, 0, 44, 89
1, 440088, Control_c, 0, 64, 84
1, 440089, Note_on_c, 0, 80, 86
1, 440103, Control_c, 0, 64, 101
1, 440110, Note_off_c, 0, 80, 69
1, 440111, Note_off_c, 0, 44, 66
1, 440118, Control_c, 0, 64, 120
1, 440123, Note_off_c, 0, 56, 60
1, 440133, Control_c, 0, 64, 127
1, 440144, Note_on_c, 0, 96, 83
1, 440165, Note_off_c, 0, 96, 63
1, 440203, Note_on_c, 0, 87, 87
1, 440206, Control_c, 0, 64, 118
1, 440208, Note_on_c, 0, 60, 89
1, 440209, Note_on_c, 0, 48, 85
1, 440221, Control_c, 0, 64, 99
1, 440230, Note_off_c, 0, 60, 69
1, 440233, Note_off_c, 0, 48, 71
1, 440236, Control_c, 0, 64, 83
1, 440248, Note_off_c, 0, 87, 64
1, 440251, Control_c, 0, 64, 64
1, 440266, Control_c, 0, 64, 18
1, 440275, Note_on_c, 0, 96, 77
1, 440281, Control_c, 0, 64, 50
1, 440290, Note_off_c, 0, 96, 67
1, 440296, Control_c, 0, 64, 65
1, 440311, Control_c, 0, 64, 75
1, 440323, Note_on_c, 0, 95, 14
1, 440326, Control_c, 0, 64, 86
1, 440329, Note_on_c, 0, 63, 99
1, 440333, Note_on_c, 0, 79, 85
1, 440334, Note_on_c, 0, 51, 88
1, 440340, Control_c, 0, 64, 98
1, 440355, Control_c, 0, 64, 105
1, 440355, Note_off_c, 0, 51, 70
1, 440359, Note_on_c, 0, 87, 57
1, 440364, Note_off_c, 0, 79, 63
1, 440365, Note_off_c, 0, 63, 62
1, 440365, Note_off_c, 0, 95, 29
1, 440370, Control_c, 0, 64, 107
1, 440382, Note_off_c, 0, 87, 64
1, 440385, Control_c, 0, 64, 108
1, 440402, Note_on_c, 0, 94, 87
1, 440427, Note_off_c, 0, 94, 68
1, 440444, Control_c, 0, 64, 109
1, 440457, Note_on_c, 0, 77, 78
1, 440457, Note_on_c, 0, 68, 100
1, 440459, Control_c, 0, 64, 109
1, 440464, Note_on_c, 0, 56, 82
1, 440473, Control_c, 0, 64, 111
1, 440478, Note_off_c, 0, 77, 67
1, 440488, Note_off_c, 0, 56, 67
1, 440488, Control_c, 0, 64, 116
1, 440496, Note_off_c, 0, 68, 64
1, 440503, Control_c, 0, 64, 127
1, 440518, Control_c, 0, 64, 127
1, 440525, Note_on_c, 0, 92, 93
1, 440558, Note_off_c, 0, 92, 60
1, 440562, Control_c, 0, 64, 112
1, 440577, Control_c, 0, 64, 90
1, 440579, Note_on_c, 0, 70, 108
1, 440582, Note_on_c, 0, 75, 91
1, 440591, Control_c, 0, 64, 63
1, 440597, Note_on_c, 0, 61, 68
1, 440599, Note_on_c, 0, 59, 68
1, 440606, Control_c, 0, 64, 0
1, 440607, Note_on_c, 0, 85, 8
1, 440609, Note_on_c, 0, 58, 42
1, 440612, Note_off_c, 0, 75, 67
1, 440616, Note_off_c, 0, 61, 45
1, 440634, Note_off_c, 0, 59, 0
1, 440634, Note_on_c, 0, 59, 45
1, 440640, Note_off_c, 0, 58, 35
1, 440643, Note_off_c, 0, 85, 53
1, 440655, Note_on_c, 0, 91, 67
1, 440659, Note_on_c, 0, 93, 63
1, 440677, Note_off_c, 0, 93, 60
1, 440678, Note_off_c, 0, 91, 65
1, 440680, Control_c, 0, 64, 56
1, 440681, Note_off_c, 0, 59, 62
1, 440695, Control_c, 0, 64, 80
1, 440710, Control_c, 0, 64, 106
1, 440714, Note_on_c, 0, 74, 84
1, 440725, Control_c, 0, 64, 127
1, 440737, Note_off_c, 0, 70, 49
1, 440749, Note_off_c, 0, 74, 58
1, 440752, Note_on_c, 0, 82, 9
1, 440796, Note_on_c, 0, 90, 88
1, 440799, Note_off_c, 0, 82, 39
1, 440828, Poly_aftertouch_c, 0, 85, 0
1, 440873, Note_on_c, 0, 75, 68
1, 440898, Note_off_c, 0, 75, 69
1, 440900, Note_off_c, 0, 90, 60
1, 440990, Note_on_c, 0, 75, 74
1, 440993, Note_on_c, 0, 63, 65
1, 441034, Note_on_c, 0, 91, 71
1, 441053, Note_on_c, 0, 79, 46
1, 441059, Note_off_c, 0, 91, 63
1, 441062, Note_off_c, 0, 63, 61
1, 441064, Note_off_c, 0, 75, 59
1, 441077, Note_off_c, 0, 79, 36
1, 441117, Control_c, 0, 64, 110
1, 441130, Note_on_c, 0, 74, 74
1, 441131, Note_on_c, 0, 62, 73
1, 441132, Control_c, 0, 64, 92
1, 441147, Control_c, 0, 64, 76
1, 441161, Control_c, 0, 64, 63
1, 441169, Note_off_c, 0, 62, 60
1, 441176, Control_c, 0, 64, 58
1, 441191, Note_off_c, 0, 74, 62
1, 441191, Control_c, 0, 64, 64
1, 441205, Control_c, 0, 64, 70
1, 441211, Note_on_c, 0, 92, 66
1, 441220, Control_c, 0, 64, 78
1, 441224, Note_on_c, 0, 80, 55
1, 441235, Control_c, 0, 64, 88
1, 441237, Note_off_c, 0, 92, 69
1, 441245, Note_off_c, 0, 80, 61
1, 441250, Control_c, 0, 64, 97
1, 441265, Control_c, 0, 64, 103
1, 441280, Control_c, 0, 64, 106
1, 441282, Note_on_c, 0, 77, 68
1, 441291, Note_on_c, 0, 65, 63
1, 441298, Note_off_c, 0, 77, 65
1, 441309, Control_c, 0, 64, 105
1, 441315, Note_off_c, 0, 65, 66
1, 441324, Control_c, 0, 64, 97
1, 441339, Control_c, 0, 64, 86
1, 441349, Note_on_c, 0, 79, 59
1, 441354, Control_c, 0, 64, 77
1, 441360, Note_on_c, 0, 91, 45
1, 441368, Note_off_c, 0, 79, 61
1, 441369, Control_c, 0, 64, 72
1, 441384, Control_c, 0, 64, 73
1, 441386, Note_off_c, 0, 91, 36
1, 441399, Control_c, 0, 64, 78
1, 441405, Note_on_c, 0, 73, 79
1, 441412, Note_on_c, 0, 61, 73
1, 441413, Control_c, 0, 64, 86
1, 441428, Control_c, 0, 64, 92
1, 441432, Note_off_c, 0, 61, 66
1, 441434, Note_off_c, 0, 73, 61
1, 441443, Control_c, 0, 64, 95
1, 441458, Control_c, 0, 64, 96
1, 441473, Note_on_c, 0, 92, 71
1, 441473, Control_c, 0, 64, 97
1, 441476, Note_on_c, 0, 80, 58
1, 441488, Control_c, 0, 64, 98
1, 441496, Note_off_c, 0, 80, 66
1, 441498, Note_off_c, 0, 92, 67
1, 441503, Control_c, 0, 64, 99
1, 441518, Control_c, 0, 64, 100
1, 441539, Note_on_c, 0, 77, 70
1, 441548, Control_c, 0, 64, 100
1, 441551, Note_on_c, 0, 65, 50
1, 441563, Note_off_c, 0, 77, 64
1, 441571, Control_c, 0, 64, 101
1, 441576, Note_on_c, 0, 64, 32
1, 441584, Note_off_c, 0, 65, 60
1, 441585, Control_c, 0, 64, 101
1, 441595, Note_on_c, 0, 91, 69
1, 441598, Note_on_c, 0, 79, 65
1, 441605, Note_off_c, 0, 64, 45
1, 441619, Note_off_c, 0, 79, 63
1, 441621, Note_off_c, 0, 91, 63
1, 441663, Note_on_c, 0, 72, 81
1, 441667, Note_on_c, 0, 60, 77
1, 441692, Note_off_c, 0, 60, 68
1, 441692, Note_off_c, 0, 72, 62
1, 441720, Note_on_c, 0, 92, 78
1, 441723, Note_on_c, 0, 80, 68
1, 441741, Note_off_c, 0, 92, 70
1, 441748, Note_off_c, 0, 80, 69
1, 441748, Control_c, 0, 64, 102
1, 441763, Control_c, 0, 64, 103
1, 441778, Control_c, 0, 64, 105
1, 441788, Note_on_c, 0, 77, 76
1, 441789, Note_on_c, 0, 65, 75
1, 441792, Control_c, 0, 64, 106
1, 441804, Note_off_c, 0, 77, 68
1, 441807, Control_c, 0, 64, 108
1, 441820, Note_off_c, 0, 65, 66
1, 441822, Control_c, 0, 64, 111
1, 441837, Control_c, 0, 64, 113
1, 441840, Note_on_c, 0, 91, 71
1, 441843, Note_on_c, 0, 79, 65
1, 441852, Control_c, 0, 64, 115
1, 441866, Note_off_c, 0, 79, 63
1, 441866, Note_off_c, 0, 91, 63
1, 441867, Control_c, 0, 64, 115
1, 441882, Control_c, 0, 64, 112
1, 441896, Control_c, 0, 64, 100
1, 441907, Note_on_c, 0, 71, 84
1, 441911, Control_c, 0, 64, 85
1, 441919, Note_on_c, 0, 59, 65
1, 441926, Control_c, 0, 64, 72
1, 441931, Note_on_c, 0, 60, 54
1, 441936, Note_off_c, 0, 71, 62
1, 441938, Note_off_c, 0, 59, 61
1, 441941, Control_c, 0, 64, 65
1, 441952, Note_off_c, 0, 60, 38
1, 441955, Control_c, 0, 64, 66
1, 441963, Note_on_c, 0, 92, 87
1, 441968, Note_on_c, 0, 80, 72
1, 441970, Control_c, 0, 64, 72
1, 441985, Control_c, 0, 64, 79
1, 441986, Note_off_c, 0, 92, 64
1, 441994, Note_off_c, 0, 80, 66
1, 442000, Control_c, 0, 64, 88
1, 442015, Control_c, 0, 64, 97
1, 442022, Note_on_c, 0, 74, 81
1, 442029, Note_on_c, 0, 62, 73
1, 442030, Control_c, 0, 64, 105
1, 442042, Note_off_c, 0, 74, 72
1, 442045, Control_c, 0, 64, 112
1, 442056, Note_off_c, 0, 62, 64
1, 442060, Control_c, 0, 64, 115
1, 442084, Note_on_c, 0, 91, 75
1, 442086, Note_on_c, 0, 79, 73
1, 442087, Note_on_c, 0, 82, 79
1, 442090, Control_c, 0, 64, 110
1, 442102, Note_off_c, 0, 79, 67
1, 442105, Control_c, 0, 64, 98
1, 442105, Note_off_c, 0, 91, 64
1, 442111, Note_off_c, 0, 82, 65
1, 442119, Control_c, 0, 64, 83
1, 442134, Control_c, 0, 64, 67
1, 442146, Note_on_c, 0, 68, 86
1, 442149, Control_c, 0, 64, 43
1, 442152, Note_on_c, 0, 56, 72
1, 442163, Control_c, 0, 64, 59
1, 442169, Note_off_c, 0, 56, 66
1, 442176, Note_off_c, 0, 68, 63
1, 442178, Control_c, 0, 64, 68
1, 442193, Control_c, 0, 64, 76
1, 442199, Note_on_c, 0, 83, 71
1, 442200, Note_on_c, 0, 80, 75
1, 442205, Note_on_c, 0, 92, 70
1, 442208, Control_c, 0, 64, 87
1, 442215, Note_off_c, 0, 80, 69
1, 442223, Note_off_c, 0, 83, 65
1, 442223, Control_c, 0, 64, 95
1, 442230, Note_off_c, 0, 92, 69
1, 442237, Control_c, 0, 64, 99
1, 442252, Control_c, 0, 64, 101
1, 442263, Note_on_c, 0, 71, 81
1, 442267, Control_c, 0, 64, 102
1, 442282, Control_c, 0, 64, 104
1, 442284, Note_off_c, 0, 71, 68
1, 442293, Note_on_c, 0, 60, 34
1, 442297, Note_on_c, 0, 59, 26
1, 442297, Control_c, 0, 64, 105
1, 442319, Control_c, 0, 64, 109
1, 442326, Note_on_c, 0, 79, 75
1, 442328, Note_on_c, 0, 82, 79
1, 442334, Control_c, 0, 64, 118
1, 442335, Note_off_c, 0, 60, 43
1, 442338, Note_on_c, 0, 91, 59
1, 442341, Note_off_c, 0, 59, 44
1, 442348, Note_off_c, 0, 79, 70
1, 442350, Control_c, 0, 64, 127
1, 442356, Note_off_c, 0, 82, 62
1, 442356, Note_off_c, 0, 91, 40
1, 442383, Note_on_c, 0, 66, 93
1, 442389, Note_on_c, 0, 54, 83
1, 442414, Note_off_c, 0, 54, 68
1, 442428, Note_off_c, 0, 66, 63
1, 442439, Note_on_c, 0, 80, 81
1, 442441, Note_on_c, 0, 83, 80
1, 442445, Note_on_c, 0, 92, 76
1, 442457, Note_off_c, 0, 80, 72
1, 442463, Note_off_c, 0, 83, 65
1, 442466, Note_off_c, 0, 92, 70
1, 442504, Note_on_c, 0, 71, 80
1, 442508, Note_on_c, 0, 59, 75
1, 442527, Note_off_c, 0, 71, 68
1, 442534, Note_off_c, 0, 59, 65
1, 442560, Note_on_c, 0, 82, 79
1, 442561, Note_on_c, 0, 79, 71
1, 442569, Note_on_c, 0, 91, 63
1, 442582, Note_off_c, 0, 79, 66
1, 442585, Note_off_c, 0, 91, 58
1, 442591, Note_off_c, 0, 82, 61
1, 442616, Note_on_c, 0, 64, 84
1, 442624, Note_on_c, 0, 52, 77
1, 442642, Note_off_c, 0, 52, 69
1, 442659, Note_off_c, 0, 64, 62
1, 442674, Note_on_c, 0, 83, 78
1, 442674, Note_on_c, 0, 92, 82
1, 442677, Note_on_c, 0, 80, 75
1, 442694, Note_off_c, 0, 92, 72
1, 442695, Note_off_c, 0, 83, 66
1, 442701, Note_off_c, 0, 80, 68
1, 442737, Note_on_c, 0, 56, 89
1, 442738, Note_on_c, 0, 68, 87
1, 442760, Note_off_c, 0, 68, 69
1, 442787, Note_off_c, 0, 56, 61
1, 442790, Note_on_c, 0, 82, 90
1, 442803, Note_on_c, 0, 79, 64
1, 442806, Note_on_c, 0, 91, 64
1, 442820, Note_off_c, 0, 79, 64
1, 442820, Note_off_c, 0, 82, 60
1, 442824, Note_off_c, 0, 91, 56
1, 442838, Control_c, 0, 64, 101
1, 442851, Note_on_c, 0, 63, 101
1, 442853, Note_on_c, 0, 51, 92
1, 442853, Control_c, 0, 64, 89
1, 442868, Control_c, 0, 64, 84
1, 442878, Note_off_c, 0, 51, 64
1, 442894, Note_off_c, 0, 63, 63
1, 442898, Control_c, 0, 64, 86
1, 442905, Note_on_c, 0, 83, 79
1, 442906, Note_on_c, 0, 80, 79
1, 442908, Note_on_c, 0, 92, 74
1, 442913, Control_c, 0, 64, 93
1, 442926, Note_off_c, 0, 83, 65
1, 442927, Note_off_c, 0, 80, 71
1, 442927, Control_c, 0, 64, 107
1, 442928, Note_off_c, 0, 92, 65
1, 442942, Control_c, 0, 64, 127
1, 442967, Note_on_c, 0, 56, 83
1, 442967, Note_on_c, 0, 68, 91
1, 442983, Note_off_c, 0, 68, 72
1, 443014, Note_off_c, 0, 56, 61
1, 443015, Control_c, 0, 64, 100
1, 443025, Note_on_c, 0, 88, 76
1, 443028, Note_on_c, 0, 79, 74
1, 443030, Control_c, 0, 64, 81
1, 443045, Control_c, 0, 64, 58
1, 443047, Note_on_c, 0, 91, 43
1, 443050, Note_off_c, 0, 79, 65
1, 443064, Note_off_c, 0, 88, 60
1, 443067, Control_c, 0, 64, 0
1, 443080, Note_off_c, 0, 91, 36
1, 443089, Note_on_c, 0, 61, 93
1, 443092, Note_on_c, 0, 49, 88
1, 443097, Control_c, 0, 64, 46
1, 443112, Control_c, 0, 64, 71
1, 443116, Note_off_c, 0, 49, 68
1, 443122, Note_off_c, 0, 61, 62
1, 443127, Control_c, 0, 64, 83
1, 443142, Control_c, 0, 64, 98
1, 443143, Note_on_c, 0, 90, 85
1, 443146, Note_on_c, 0, 80, 84
1, 443153, Note_on_c, 0, 92, 69
1, 443157, Control_c, 0, 64, 108
1, 443163, Note_off_c, 0, 90, 69
1, 443164, Note_off_c, 0, 80, 72
1, 443167, Note_off_c, 0, 92, 65
1, 443172, Control_c, 0, 64, 111
1, 443187, Control_c, 0, 64, 111
1, 443202, Control_c, 0, 64, 111
1, 443204, Note_on_c, 0, 65, 88
1, 443209, Note_on_c, 0, 53, 80
1, 443216, Control_c, 0, 64, 105
1, 443223, Note_off_c, 0, 65, 73
1, 443231, Control_c, 0, 64, 91
1, 443236, Note_off_c, 0, 53, 67
1, 443246, Control_c, 0, 64, 73
1, 443261, Control_c, 0, 64, 0
1, 443262, Note_on_c, 0, 79, 74
1, 443268, Note_on_c, 0, 88, 71
1, 443276, Note_on_c, 0, 91, 56
1, 443284, Note_off_c, 0, 79, 70
1, 443290, Control_c, 0, 64, 28
1, 443292, Note_off_c, 0, 88, 68
1, 443297, Note_off_c, 0, 91, 39
1, 443305, Control_c, 0, 64, 68
1, 443315, Note_on_c, 0, 60, 89
1, 443320, Control_c, 0, 64, 80
1, 443322, Note_on_c, 0, 48, 81
1, 443335, Control_c, 0, 64, 98
1, 443343, Note_off_c, 0, 60, 61
1, 443348, Note_off_c, 0, 48, 65
1, 443350, Control_c, 0, 64, 120
1, 443364, Control_c, 0, 64, 127
1, 443366, Note_on_c, 0, 80, 86
1, 443368, Note_on_c, 0, 92, 80
1, 443378, Note_on_c, 0, 89, 66
1, 443387, Note_off_c, 0, 92, 71
1, 443390, Note_off_c, 0, 80, 67
1, 443404, Note_off_c, 0, 89, 69
1, 443423, Control_c, 0, 64, 118
1, 443429, Note_on_c, 0, 65, 86
1, 443433, Note_on_c, 0, 53, 80
1, 443438, Control_c, 0, 64, 99
1, 443447, Note_off_c, 0, 65, 73
1, 443453, Control_c, 0, 64, 80
1, 443458, Note_off_c, 0, 53, 67
1, 443468, Control_c, 0, 64, 43
1, 443482, Note_on_c, 0, 79, 75
1, 443482, Control_c, 0, 64, 0
1, 443486, Note_on_c, 0, 88, 70
1, 443488, Note_on_c, 0, 91, 65
1, 443504, Note_off_c, 0, 91, 63
1, 443507, Note_off_c, 0, 79, 66
1, 443513, Note_off_c, 0, 88, 64
1, 443527, Control_c, 0, 64, 67
1, 443542, Control_c, 0, 64, 79
1, 443543, Note_on_c, 0, 59, 91
1, 443547, Note_on_c, 0, 47, 97
1, 443557, Control_c, 0, 64, 93
1, 443570, Note_off_c, 0, 47, 71
1, 443572, Control_c, 0, 64, 103
1, 443580, Note_off_c, 0, 59, 60
1, 443587, Control_c, 0, 64, 106
1, 443594, Note_on_c, 0, 80, 84
1, 443596, Note_on_c, 0, 92, 79
1, 443601, Control_c, 0, 64, 107
1, 443602, Note_on_c, 0, 89, 70
1, 443612, Note_off_c, 0, 80, 72
1, 443614, Note_off_c, 0, 92, 72
1, 443627, Note_off_c, 0, 89, 70
1, 443646, Control_c, 0, 64, 107
1, 443656, Note_on_c, 0, 62, 86
1, 443661, Control_c, 0, 64, 110
1, 443664, Note_on_c, 0, 50, 71
1, 443675, Control_c, 0, 64, 127
1, 443677, Note_off_c, 0, 62, 68
1, 443692, Note_off_c, 0, 50, 66
1, 443707, Note_on_c, 0, 79, 80
1, 443707, Note_on_c, 0, 88, 79
1, 443709, Note_on_c, 0, 91, 76
1, 443732, Note_off_c, 0, 91, 65
1, 443735, Note_off_c, 0, 79, 63
1, 443741, Note_off_c, 0, 88, 57
1, 443768, Note_on_c, 0, 56, 96
1, 443772, Note_on_c, 0, 44, 91
1, 443809, Note_off_c, 0, 44, 65
1, 443816, Note_off_c, 0, 56, 62
1, 443826, Note_on_c, 0, 80, 86
1, 443827, Note_on_c, 0, 92, 85
1, 443832, Note_on_c, 0, 89, 72
1, 443844, Note_off_c, 0, 80, 72
1, 443845, Note_off_c, 0, 92, 73
1, 443855, Note_off_c, 0, 89, 70
1, 443893, Note_on_c, 0, 59, 81
1, 443908, Note_on_c, 0, 47, 62
1, 443909, Note_on_c, 0, 45, 58
1, 443915, Note_off_c, 0, 59, 66
1, 443928, Note_off_c, 0, 47, 67
1, 443935, Note_off_c, 0, 45, 61
1, 443940, Note_on_c, 0, 88, 79
1, 443941, Note_on_c, 0, 79, 81
1, 443944, Note_on_c, 0, 91, 75
1, 443965, Note_off_c, 0, 79, 64
1, 443965, Note_off_c, 0, 91, 61
1, 443968, Note_off_c, 0, 88, 59
1, 443980, Control_c, 0, 64, 107
1, 443995, Control_c, 0, 64, 83
1, 444001, Note_on_c, 0, 53, 93
1, 444006, Note_on_c, 0, 41, 82
1, 444010, Control_c, 0, 64, 57
1, 444025, Control_c, 0, 64, 0
1, 444028, Note_off_c, 0, 53, 66
1, 444032, Note_off_c, 0, 41, 69
1, 444039, Control_c, 0, 64, 54
1, 444049, Note_on_c, 0, 80, 88
1, 444054, Control_c, 0, 64, 69
1, 444058, Note_on_c, 0, 89, 72
1, 444067, Note_on_c, 0, 92, 48
1, 444069, Control_c, 0, 64, 81
1, 444070, Note_off_c, 0, 80, 69
1, 444081, Note_off_c, 0, 89, 71
1, 444084, Control_c, 0, 64, 94
1, 444090, Note_off_c, 0, 92, 39
1, 444099, Control_c, 0, 64, 103
1, 444109, Note_on_c, 0, 56, 91
1, 444111, Note_on_c, 0, 44, 91
1, 444113, Control_c, 0, 64, 107
1, 444128, Control_c, 0, 64, 110
1, 444136, Note_off_c, 0, 56, 64
1, 444143, Control_c, 0, 64, 113
1, 444153, Poly_aftertouch_c, 0, 90, 0
1, 444158, Control_c, 0, 64, 114
1, 444162, Note_off_c, 0, 44, 64
1, 444165, Note_on_c, 0, 79, 85
1, 444167, Note_on_c, 0, 88, 76
1, 444171, Note_on_c, 0, 91, 73
1, 444173, Control_c, 0, 64, 113
1, 444187, Control_c, 0, 64, 103
1, 444188, Note_off_c, 0, 91, 63
1, 444192, Note_off_c, 0, 79, 63
1, 444192, Note_off_c, 0, 88, 62
1, 444202, Control_c, 0, 64, 86
1, 444217, Control_c, 0, 64, 66
1, 444228, Note_on_c, 0, 50, 92
1, 444231, Control_c, 0, 64, 0
1, 444233, Note_on_c, 0, 38, 83
1, 444246, Control_c, 0, 64, 40
1, 444256, Note_off_c, 0, 38, 67
1, 444256, Note_off_c, 0, 50, 65
1, 444261, Control_c, 0, 64, 69
1, 444273, Note_on_c, 0, 80, 88
1, 444275, Note_on_c, 0, 92, 84
1, 444276, Control_c, 0, 64, 82
1, 444284, Note_on_c, 0, 89, 73
1, 444291, Control_c, 0, 64, 101
1, 444293, Note_off_c, 0, 92, 72
1, 444293, Note_off_c, 0, 80, 70
1, 444305, Control_c, 0, 64, 127
1, 444306, Note_off_c, 0, 89, 71
1, 444335, Note_on_c, 0, 53, 92
1, 444341, Note_on_c, 0, 41, 84
1, 444350, Control_c, 0, 64, 122
1, 444359, Note_off_c, 0, 53, 67
1, 444365, Control_c, 0, 64, 97
1, 444368, Note_off_c, 0, 41, 68
1, 444380, Control_c, 0, 64, 77
1, 444381, Note_on_c, 0, 79, 87
1, 444382, Note_on_c, 0, 88, 83
1, 444382, Note_on_c, 0, 91, 82
1, 444394, Control_c, 0, 64, 27
1, 444406, Note_off_c, 0, 91, 62
1, 444409, Control_c, 0, 64, 0
1, 444412, Note_off_c, 0, 79, 64
1, 444424, Control_c, 0, 64, 56
1, 444424, Note_off_c, 0, 88, 62
1, 444439, Control_c, 0, 64, 73
1, 444446, Note_on_c, 0, 49, 96
1, 444448, Note_on_c, 0, 37, 93
1, 444454, Control_c, 0, 64, 97
1, 444469, Control_c, 0, 64, 127
1, 444475, Note_off_c, 0, 37, 70
1, 444483, Note_off_c, 0, 49, 64
1, 444488, Note_on_c, 0, 90, 90
1, 444496, Note_on_c, 0, 80, 83
1, 444499, Note_on_c, 0, 92, 80
1, 444516, Note_off_c, 0, 80, 70
1, 444520, Note_off_c, 0, 92, 71
1, 444528, Control_c, 0, 64, 110
1, 444537, Note_off_c, 0, 90, 64
1, 444543, Control_c, 0, 64, 83
1, 444564, Note_on_c, 0, 53, 92
1, 444564, Control_c, 0, 64, 64
1, 444567, Note_on_c, 0, 41, 87
1, 444579, Control_c, 0, 64, 0
1, 444587, Note_off_c, 0, 53, 69
1, 444594, Control_c, 0, 64, 62
1, 444603, Note_off_c, 0, 41, 66
1, 444609, Control_c, 0, 64, 72
1, 444612, Note_on_c, 0, 91, 80
1, 444613, Note_on_c, 0, 79, 85
1, 444617, Note_on_c, 0, 88, 79
1, 444624, Control_c, 0, 64, 86
1, 444637, Note_off_c, 0, 91, 61
1, 444639, Control_c, 0, 64, 104
1, 444639, Note_off_c, 0, 79, 62
1, 444647, Note_off_c, 0, 88, 59
1, 444654, Control_c, 0, 64, 127
1, 444681, Note_on_c, 0, 47, 101
1, 444685, Note_on_c, 0, 35, 90
1, 444707, Note_off_c, 0, 35, 67
1, 444719, Note_off_c, 0, 47, 63
1, 444731, Note_on_c, 0, 80, 86
1, 444731, Note_on_c, 0, 92, 88
1, 444739, Note_on_c, 0, 89, 80
1, 444754, Note_off_c, 0, 80, 66
1, 444758, Note_off_c, 0, 92, 60
1, 444760, Note_off_c, 0, 89, 72
1, 444805, Note_on_c, 0, 53, 86
1, 444811, Note_on_c, 0, 41, 78
1, 444825, Note_off_c, 0, 53, 71
1, 444830, Note_on_c, 0, 79, 100
1, 444834, Note_on_c, 0, 87, 94
1, 444835, Note_off_c, 0, 41, 71
1, 444837, Note_on_c, 0, 91, 79
1, 444856, Note_off_c, 0, 79, 59
1, 444857, Note_off_c, 0, 91, 65
1, 444862, Control_c, 0, 64, 108
1, 444877, Control_c, 0, 64, 81
1, 444887, Note_off_c, 0, 87, 60
1, 444892, Control_c, 0, 64, 0
1, 445000, Note_on_c, 0, 86, 13
1, 445003, Note_on_c, 0, 46, 101
1, 445004, Note_on_c, 0, 34, 90
1, 445013, Note_on_c, 0, 80, 110
1, 445014, Note_on_c, 0, 92, 104
1, 445025, Control_c, 0, 64, 67
1, 445028, Note_off_c, 0, 34, 67
1, 445040, Control_c, 0, 64, 127
1, 445044, Note_off_c, 0, 46, 63
1, 445058, Note_off_c, 0, 86, 60
1, 445107, Note_off_c, 0, 80, 58
1, 445124, Note_off_c, 0, 92, 59
1, 445144, Note_on_c, 0, 94, 80
1, 445161, Note_on_c, 0, 62, 64
1, 445164, Note_on_c, 0, 56, 62
1, 445180, Note_off_c, 0, 62, 61
1, 445194, Note_off_c, 0, 94, 66
1, 445195, Note_off_c, 0, 56, 63
1, 445199, Note_on_c, 0, 92, 89
1, 445217, Control_c, 0, 64, 125
1, 445233, Control_c, 0, 64, 89
1, 445239, Note_off_c, 0, 92, 67
1, 445248, Control_c, 0, 64, 57
1, 445262, Control_c, 0, 64, 0
1, 445264, Note_on_c, 0, 91, 101
1, 445269, Note_on_c, 0, 79, 94
1, 445274, Note_on_c, 0, 58, 82
1, 445304, Note_off_c, 0, 58, 70
1, 445304, Note_off_c, 0, 79, 65
1, 445311, Note_on_c, 0, 46, 42
1, 445312, Note_off_c, 0, 91, 63
1, 445324, Note_on_c, 0, 44, 16
1, 445325, Note_off_c, 0, 44, 127
1, 445342, Note_off_c, 0, 46, 35
1, 445402, Note_on_c, 0, 89, 95
1, 445402, Note_on_c, 0, 77, 87
1, 445408, Note_on_c, 0, 56, 57
1, 445408, Note_on_c, 0, 62, 58
1, 445420, Note_off_c, 0, 77, 70
1, 445432, Note_off_c, 0, 89, 66
1, 445432, Note_off_c, 0, 62, 39
1, 445438, Note_off_c, 0, 56, 64
1, 445522, Control_c, 0, 64, 40
1, 445524, Note_on_c, 0, 94, 107
1, 445530, Note_on_c, 0, 82, 103
1, 445533, Note_on_c, 0, 46, 94
1, 445538, Control_c, 0, 64, 127
1, 445553, Note_on_c, 0, 32, 53
1, 445554, Note_off_c, 0, 32, 127
1, 445554, Note_off_c, 0, 94, 70
1, 445557, Note_off_c, 0, 46, 69
1, 445560, Note_off_c, 0, 82, 63
1, 445571, Note_on_c, 0, 34, 22
1, 445588, Poly_aftertouch_c, 0, 32, 0
1, 445618, Note_off_c, 0, 34, 40
1, 445641, Note_on_c, 0, 86, 92
1, 445643, Note_on_c, 0, 74, 90
1, 445656, Note_on_c, 0, 63, 77
1, 445664, Note_on_c, 0, 55, 61
1, 445664, Note_off_c, 0, 86, 64
1, 445670, Note_off_c, 0, 74, 63
1, 445671, Control_c, 0, 64, 117
1, 445681, Note_off_c, 0, 63, 69
1, 445685, Note_off_c, 0, 55, 60
1, 445685, Control_c, 0, 64, 85
1, 445700, Control_c, 0, 64, 0
1, 445745, Control_c, 0, 64, 57
1, 445760, Control_c, 0, 64, 86
1, 445765, Note_on_c, 0, 87, 96
1, 445767, Note_on_c, 0, 58, 89
1, 445775, Control_c, 0, 64, 127
1, 445777, Note_on_c, 0, 88, 83
1, 445787, Note_on_c, 0, 44, 52
1, 445787, Note_off_c, 0, 87, 59
1, 445788, Note_on_c, 0, 76, 53
1, 445790, Note_off_c, 0, 58, 67
1, 445793, Note_on_c, 0, 46, 44
1, 445794, Note_off_c, 0, 88, 69
1, 445807, Note_off_c, 0, 76, 63
1, 445813, Note_off_c, 0, 44, 58
1, 445832, Note_off_c, 0, 46, 46
1, 445882, Note_on_c, 0, 63, 92
1, 445887, Note_on_c, 0, 85, 31
1, 445890, Note_on_c, 0, 55, 77
1, 445891, Note_on_c, 0, 67, 72
1, 445892, Note_off_c, 0, 67, 127
1, 445893, Control_c, 0, 64, 108
1, 445904, Note_off_c, 0, 63, 67
1, 445907, Note_off_c, 0, 55, 65
1, 445908, Control_c, 0, 64, 84
1, 445921, Note_off_c, 0, 85, 55
1, 445923, Control_c, 0, 64, 44
1, 445938, Control_c, 0, 64, 0
1, 446026, Control_c, 0, 64, 45
1, 446028, Note_on_c, 0, 80, 110
1, 446030, Note_on_c, 0, 86, 78
1, 446030, Note_on_c, 0, 92, 98
1, 446035, Note_on_c, 0, 46, 101
1, 446041, Control_c, 0, 64, 107
1, 446043, Note_on_c, 0, 34, 76
1, 446064, Control_c, 0, 64, 127
1, 446073, Note_off_c, 0, 34, 65
1, 446073, Note_off_c, 0, 46, 64
1, 446076, Note_on_c, 0, 90, 46
1, 446094, Note_off_c, 0, 86, 63
1, 446132, Note_off_c, 0, 80, 60
1, 446160, Note_off_c, 0, 90, 33
1, 446168, Note_off_c, 0, 92, 62
1, 446183, Note_on_c, 0, 94, 75
1, 446190, Note_on_c, 0, 56, 68
1, 446201, Note_on_c, 0, 60, 43
1, 446223, Note_on_c, 0, 92, 80
1, 446225, Note_off_c, 0, 94, 68
1, 446227, Note_off_c, 0, 56, 63
1, 446228, Note_off_c, 0, 60, 53
1, 446241, Control_c, 0, 64, 95
1, 446256, Control_c, 0, 64, 71
1, 446267, Note_off_c, 0, 92, 66
1, 446271, Control_c, 0, 64, 0
1, 446286, Note_on_c, 0, 91, 98
1, 446293, Note_on_c, 0, 79, 89
1, 446310, Note_on_c, 0, 56, 44
1, 446311, Note_off_c, 0, 56, 127
1, 446311, Note_on_c, 0, 58, 58
1, 446312, Note_on_c, 0, 44, 53
1, 446313, Note_off_c, 0, 44, 127
1, 446316, Note_off_c, 0, 79, 65
1, 446325, Note_off_c, 0, 91, 63
1, 446335, Note_off_c, 0, 58, 56
1, 446341, Note_on_c, 0, 46, 6
1, 446342, Note_off_c, 0, 46, 127
1, 446411, Note_on_c, 0, 56, 62
1, 446417, Note_on_c, 0, 77, 88
1, 446419, Note_on_c, 0, 89, 85
1, 446436, Note_off_c, 0, 77, 69
1, 446436, Note_off_c, 0, 56, 62
1, 446438, Note_off_c, 0, 89, 72
1, 446523, Control_c, 0, 64, 73
1, 446529, Note_on_c, 0, 94, 108
1, 446534, Note_on_c, 0, 82, 105
1, 446538, Control_c, 0, 64, 127
1, 446544, Note_on_c, 0, 46, 66
1, 446547, Note_on_c, 0, 34, 59
1, 446557, Note_off_c, 0, 94, 68
1, 446561, Note_off_c, 0, 82, 62
1, 446565, Note_off_c, 0, 46, 63
1, 446576, Note_off_c, 0, 34, 58
1, 446652, Note_on_c, 0, 86, 89
1, 446653, Note_on_c, 0, 74, 93
1, 446663, Note_on_c, 0, 63, 67
1, 446672, Note_off_c, 0, 86, 68
1, 446680, Note_off_c, 0, 74, 64
1, 446682, Note_off_c, 0, 63, 63
1, 446696, Note_on_c, 0, 55, 24
1, 446737, Note_off_c, 0, 55, 49
1, 446764, Note_on_c, 0, 87, 108
1, 446767, Note_on_c, 0, 75, 98
1, 446769, Note_on_c, 0, 46, 86
1, 446769, Note_on_c, 0, 58, 89
1, 446784, Note_off_c, 0, 75, 73
1, 446788, Note_off_c, 0, 58, 72
1, 446791, Note_off_c, 0, 46, 67
1, 446795, Note_off_c, 0, 87, 61
1, 446892, Note_on_c, 0, 67, 78
1, 446904, Note_on_c, 0, 55, 54
1, 446907, Note_off_c, 0, 67, 67
1, 446916, Note_on_c, 0, 53, 46
1, 446926, Note_off_c, 0, 55, 60
1, 446943, Note_off_c, 0, 53, 57
1, 446975, Control_c, 0, 64, 105
1, 446990, Control_c, 0, 64, 84
1, 446995, Poly_aftertouch_c, 0, 62, 0
1, 447005, Control_c, 0, 64, 64
1, 447020, Control_c, 0, 64, 0
1, 447036, Note_on_c, 0, 48, 99
1, 447040, Note_on_c, 0, 36, 90
1, 447049, Control_c, 0, 64, 55
1, 447064, Control_c, 0, 64, 69
1, 447079, Control_c, 0, 64, 80
1, 447089, Note_off_c, 0, 48, 57
1, 447094, Control_c, 0, 64, 93
1, 447108, Control_c, 0, 64, 102
1, 447112, Note_off_c, 0, 36, 58
1, 447116, Note_on_c, 0, 56, 11
1, 447124, Control_c, 0, 64, 118
1, 447139, Control_c, 0, 64, 127
1, 447149, Note_off_c, 0, 56, 52
1, 447149, Poly_aftertouch_c, 0, 37, 0
1, 447182, Note_on_c, 0, 53, 93
1, 447185, Note_on_c, 0, 57, 79
1, 447186, Note_on_c, 0, 65, 86
1, 447197, Note_on_c, 0, 47, 91
1, 447197, Note_on_c, 0, 63, 78
1, 447202, Note_on_c, 0, 35, 85
1, 447239, Note_off_c, 0, 65, 64
1, 447240, Note_off_c, 0, 35, 66
1, 447244, Note_off_c, 0, 53, 65
1, 447247, Note_off_c, 0, 47, 62
1, 447250, Note_off_c, 0, 57, 63
1, 447267, Note_off_c, 0, 63, 64
1, 447272, Control_c, 0, 64, 84
1, 447287, Control_c, 0, 64, 0
1, 447324, Note_on_c, 0, 53, 108
1, 447325, Note_on_c, 0, 58, 105
1, 447325, Note_on_c, 0, 62, 93
1, 447328, Note_on_c, 0, 65, 94
1, 447331, Note_on_c, 0, 46, 97
1, 447332, Note_on_c, 0, 34, 95
1, 447342, Note_off_c, 0, 53, 70
1, 447346, Note_off_c, 0, 65, 71
1, 447352, Note_on_c, 0, 47, 72
1, 447356, Note_on_c, 0, 48, 66
1, 447356, Note_off_c, 0, 34, 71
1, 447360, Note_off_c, 0, 46, 57
1, 447361, Control_c, 0, 64, 62
1, 447371, Note_off_c, 0, 47, 65
1, 447371, Note_off_c, 0, 62, 62
1, 447374, Note_off_c, 0, 58, 68
1, 447375, Control_c, 0, 64, 80
1, 447378, Note_off_c, 0, 48, 40
1, 447390, Control_c, 0, 64, 92
1, 447405, Control_c, 0, 64, 96
1, 447509, Control_c, 0, 64, 97
1, 447523, Control_c, 0, 64, 100
1, 447538, Control_c, 0, 64, 101
1, 447590, Control_c, 0, 64, 101
1, 447605, Control_c, 0, 64, 97
1, 447620, Control_c, 0, 64, 84
1, 447635, Control_c, 0, 64, 66
1, 447649, Control_c, 0, 64, 0
1, 447660, Note_on_c, 0, 68, 106
1, 447665, Note_on_c, 0, 56, 96
1, 447724, Control_c, 0, 64, 68
1, 447738, Control_c, 0, 64, 79
1, 447753, Control_c, 0, 64, 90
1, 447768, Control_c, 0, 64, 94
1, 447795, Note_on_c, 0, 86, 75
1, 447799, Note_on_c, 0, 82, 72
1, 447802, Note_on_c, 0, 74, 49
1, 447806, Note_on_c, 0, 77, 48
1, 447820, Note_off_c, 0, 68, 58
1, 447823, Note_off_c, 0, 56, 59
1, 447824, Note_off_c, 0, 74, 61
1, 447829, Note_off_c, 0, 77, 50
1, 447849, Note_off_c, 0, 82, 62
1, 447851, Note_off_c, 0, 86, 63
1, 447871, Control_c, 0, 64, 93
1, 447901, Control_c, 0, 64, 92
1, 447907, Note_on_c, 0, 67, 91
1, 447909, Note_on_c, 0, 55, 87
1, 447916, Control_c, 0, 64, 90
1, 447932, Control_c, 0, 64, 86
1, 447943, Note_off_c, 0, 67, 59
1, 447947, Control_c, 0, 64, 77
1, 447953, Note_off_c, 0, 55, 63
1, 447961, Control_c, 0, 64, 65
1, 447976, Control_c, 0, 64, 0
1, 448031, Note_on_c, 0, 98, 83
1, 448034, Note_on_c, 0, 65, 87
1, 448035, Note_on_c, 0, 86, 78
1, 448039, Note_on_c, 0, 89, 62
1, 448040, Note_on_c, 0, 53, 78
1, 448048, Note_on_c, 0, 94, 62
1, 448051, Note_off_c, 0, 98, 71
1, 448058, Note_off_c, 0, 65, 68
1, 448060, Note_off_c, 0, 53, 69
1, 448067, Note_off_c, 0, 89, 68
1, 448067, Note_off_c, 0, 94, 65
1, 448079, Note_off_c, 0, 86, 63
1, 448139, Control_c, 0, 64, 65
1, 448148, Note_on_c, 0, 70, 91
1, 448152, Note_on_c, 0, 58, 89
1, 448153, Control_c, 0, 64, 84
1, 448168, Note_off_c, 0, 70, 68
1, 448168, Control_c, 0, 64, 112
1, 448183, Control_c, 0, 64, 127
1, 448197, Note_off_c, 0, 58, 65
1, 448264, Note_on_c, 0, 79, 84
1, 448265, Note_on_c, 0, 91, 82
1, 448269, Note_on_c, 0, 87, 80
1, 448270, Note_on_c, 0, 82, 80
1, 448279, Note_off_c, 0, 79, 68
1, 448285, Note_on_c, 0, 62, 92
1, 448288, Control_c, 0, 64, 115
1, 448289, Note_on_c, 0, 50, 83
1, 448310, Control_c, 0, 64, 104
1, 448314, Note_off_c, 0, 62, 67
1, 448315, Note_off_c, 0, 82, 63
1, 448322, Note_off_c, 0, 50, 69
1, 448323, Note_off_c, 0, 87, 64
1, 448325, Control_c, 0, 64, 92
1, 448326, Note_off_c, 0, 91, 62
1, 448340, Control_c, 0, 64, 78
1, 448354, Control_c, 0, 64, 54
1, 448369, Control_c, 0, 64, 0
1, 448401, Note_on_c, 0, 51, 96
1, 448401, Note_on_c, 0, 63, 101
1, 448440, Note_on_c, 0, 50, 38
1, 448443, Control_c, 0, 64, 46
1, 448448, Note_off_c, 0, 63, 64
1, 448458, Control_c, 0, 64, 70
1, 448471, Note_off_c, 0, 51, 60
1, 448472, Control_c, 0, 64, 85
1, 448476, Note_off_c, 0, 50, 34
1, 448487, Control_c, 0, 64, 100
1, 448502, Control_c, 0, 64, 110
1, 448508, Note_on_c, 0, 99, 66
1, 448508, Note_on_c, 0, 91, 90
1, 448509, Note_on_c, 0, 94, 98
1, 448509, Note_on_c, 0, 103, 79
1, 448517, Control_c, 0, 64, 116
1, 448524, Note_off_c, 0, 103, 66
1, 448532, Note_off_c, 0, 91, 60
1, 448532, Control_c, 0, 64, 121
1, 448534, Note_off_c, 0, 99, 72
1, 448545, Note_off_c, 0, 94, 67
1, 448547, Control_c, 0, 64, 123
1, 448577, Control_c, 0, 64, 122
1, 448592, Control_c, 0, 64, 115
1, 448606, Control_c, 0, 64, 98
1, 448621, Control_c, 0, 64, 79
1, 448636, Control_c, 0, 64, 0
1, 448649, Note_on_c, 0, 56, 99
1, 448650, Note_on_c, 0, 44, 99
1, 448679, Note_on_c, 0, 73, 45
1, 448695, Control_c, 0, 64, 69
1, 448710, Control_c, 0, 64, 84
1, 448726, Control_c, 0, 64, 100
1, 448728, Note_off_c, 0, 73, 48
1, 448741, Control_c, 0, 64, 106
1, 448764, Note_on_c, 0, 74, 74
1, 448765, Note_on_c, 0, 65, 77
1, 448770, Note_on_c, 0, 62, 69
1, 448770, Control_c, 0, 64, 106
1, 448774, Note_on_c, 0, 70, 69
1, 448782, Poly_aftertouch_c, 0, 66, 0
1, 448790, Note_off_c, 0, 65, 70
1, 448792, Note_off_c, 0, 62, 65
1, 448800, Control_c, 0, 64, 106
1, 448805, Note_off_c, 0, 56, 61
1, 448809, Note_off_c, 0, 44, 60
1, 448821, Note_off_c, 0, 70, 59
1, 448822, Note_off_c, 0, 74, 66
1, 448829, Control_c, 0, 64, 105
1, 448844, Control_c, 0, 64, 101
1, 448859, Control_c, 0, 64, 92
1, 448874, Control_c, 0, 64, 82
1, 448881, Note_on_c, 0, 55, 90
1, 448887, Note_on_c, 0, 43, 83
1, 448889, Control_c, 0, 64, 69
1, 448903, Control_c, 0, 64, 0
1, 448914, Note_off_c, 0, 55, 66
1, 448925, Note_off_c, 0, 43, 64
1, 448997, Note_on_c, 0, 53, 89
1, 448998, Note_on_c, 0, 77, 80
1, 449000, Note_on_c, 0, 74, 83
1, 449000, Note_on_c, 0, 41, 82
1, 449000, Note_on_c, 0, 86, 79
1, 449015, Note_on_c, 0, 82, 64
1, 449020, Note_off_c, 0, 86, 71
1, 449024, Note_off_c, 0, 41, 69
1, 449025, Note_off_c, 0, 53, 66
1, 449035, Note_off_c, 0, 82, 67
1, 449040, Note_off_c, 0, 77, 61
1, 449060, Note_off_c, 0, 74, 62
1, 449103, Control_c, 0, 64, 79
1, 449116, Note_on_c, 0, 46, 98
1, 449116, Note_on_c, 0, 58, 93
1, 449118, Control_c, 0, 64, 120
1, 449133, Control_c, 0, 64, 127
1, 449146, Note_off_c, 0, 58, 65
1, 449167, Note_off_c, 0, 46, 63
1, 449236, Note_on_c, 0, 67, 85
1, 449236, Control_c, 0, 64, 116
1, 449238, Note_on_c, 0, 79, 82
1, 449242, Note_on_c, 0, 70, 79
1, 449243, Note_on_c, 0, 75, 79
1, 449249, Note_on_c, 0, 50, 91
1, 449251, Control_c, 0, 64, 96
1, 449258, Note_off_c, 0, 67, 69
1, 449259, Note_on_c, 0, 38, 72
1, 449266, Control_c, 0, 64, 77
1, 449271, Note_off_c, 0, 70, 65
1, 449276, Note_off_c, 0, 50, 65
1, 449280, Note_off_c, 0, 75, 55
1, 449281, Note_off_c, 0, 38, 59
1, 449281, Control_c, 0, 64, 0
1, 449292, Note_off_c, 0, 79, 65
1, 449363, Note_on_c, 0, 39, 92
1, 449365, Note_on_c, 0, 51, 100
1, 449384, Control_c, 0, 64, 43
1, 449399, Control_c, 0, 64, 81
1, 449414, Control_c, 0, 64, 105
1, 449429, Control_c, 0, 64, 127
1, 449479, Note_on_c, 0, 79, 100
1, 449486, Note_on_c, 0, 87, 69
1, 449488, Note_on_c, 0, 91, 74
1, 449489, Note_on_c, 0, 82, 83
1, 449501, Note_off_c, 0, 91, 44
1, 449509, Note_off_c, 0, 87, 69
1, 449511, Note_off_c, 0, 51, 57
1, 449516, Note_off_c, 0, 79, 58
1, 449525, Note_off_c, 0, 82, 60
1, 449531, Note_off_c, 0, 39, 60
1, 449578, Control_c, 0, 64, 99
1, 449593, Control_c, 0, 64, 75
1, 449608, Control_c, 0, 64, 0
1, 449614, Note_on_c, 0, 48, 102
1, 449618, Note_on_c, 0, 36, 90
1, 449682, Control_c, 0, 64, 62
1, 449697, Control_c, 0, 64, 72
1, 449699, Note_off_c, 0, 48, 60
1, 449703, Note_off_c, 0, 36, 61
1, 449712, Control_c, 0, 64, 82
1, 449726, Control_c, 0, 64, 87
1, 449741, Control_c, 0, 64, 90
1, 449756, Control_c, 0, 64, 93
1, 449770, Control_c, 0, 64, 98
1, 449776, Note_on_c, 0, 53, 93
1, 449777, Note_on_c, 0, 65, 85
1, 449780, Note_on_c, 0, 57, 81
1, 449782, Note_on_c, 0, 63, 77
1, 449785, Control_c, 0, 64, 107
1, 449789, Note_on_c, 0, 47, 99
1, 449799, Note_on_c, 0, 35, 91
1, 449808, Control_c, 0, 64, 127
1, 449843, Note_off_c, 0, 65, 64
1, 449850, Note_off_c, 0, 53, 63
1, 449852, Note_off_c, 0, 57, 59
1, 449861, Note_off_c, 0, 35, 62
1, 449864, Note_off_c, 0, 47, 61
1, 449878, Note_off_c, 0, 63, 64
1, 449912, Control_c, 0, 64, 96
1, 449926, Control_c, 0, 64, 71
1, 449931, Note_on_c, 0, 53, 114
1, 449933, Note_on_c, 0, 62, 98
1, 449935, Note_on_c, 0, 58, 100
1, 449937, Note_on_c, 0, 65, 97
1, 449941, Control_c, 0, 64, 0
1, 449945, Note_on_c, 0, 46, 105
1, 449945, Note_on_c, 0, 34, 95
1, 449958, Note_off_c, 0, 53, 71
1, 449969, Note_off_c, 0, 65, 62
1, 449987, Note_off_c, 0, 62, 65
1, 449993, Note_off_c, 0, 58, 65
1, 450015, Control_c, 0, 64, 69
1, 450022, Note_off_c, 0, 46, 55
1, 450030, Control_c, 0, 64, 81
1, 450032, Note_off_c, 0, 34, 63
1, 450044, Control_c, 0, 64, 89
1, 450059, Control_c, 0, 64, 95
1, 450074, Control_c, 0, 64, 102
1, 450089, Control_c, 0, 64, 118
1, 450104, Control_c, 0, 64, 127
1, 450252, Control_c, 0, 64, 124
1, 450267, Control_c, 0, 64, 95
1, 450282, Control_c, 0, 64, 73
1, 450296, Control_c, 0, 64, 0
1, 450330, Note_on_c, 0, 89, 102
1, 450332, Note_on_c, 0, 77, 102
1, 450335, Note_on_c, 0, 49, 91
1, 450335, Note_on_c, 0, 82, 96
1, 450336, Note_on_c, 0, 85, 94
1, 450340, Note_on_c, 0, 37, 73
1, 450341, Control_c, 0, 64, 42
1, 450356, Control_c, 0, 64, 74
1, 450365, Note_off_c, 0, 37, 67
1, 450369, Note_off_c, 0, 49, 64
1, 450371, Control_c, 0, 64, 92
1, 450386, Control_c, 0, 64, 117
1, 450401, Control_c, 0, 64, 120
1, 450416, Control_c, 0, 64, 121
1, 450431, Control_c, 0, 64, 121
1, 450446, Control_c, 0, 64, 122
1, 450461, Control_c, 0, 64, 122
1, 450462, Note_off_c, 0, 89, 61
1, 450470, Note_on_c, 0, 58, 69
1, 450470, Note_on_c, 0, 61, 68
1, 450477, Note_off_c, 0, 77, 56
1, 450491, Note_off_c, 0, 85, 62
1, 450498, Note_off_c, 0, 58, 65
1, 450500, Note_off_c, 0, 61, 65
1, 450502, Note_off_c, 0, 82, 61
1, 450505, Control_c, 0, 64, 121
1, 450520, Control_c, 0, 64, 110
1, 450535, Control_c, 0, 64, 93
1, 450556, Control_c, 0, 64, 71
1, 450571, Control_c, 0, 64, 0
1, 450598, Note_on_c, 0, 88, 93
1, 450599, Note_on_c, 0, 46, 82
1, 450599, Note_on_c, 0, 58, 68
1, 450602, Note_on_c, 0, 76, 88
1, 450628, Note_off_c, 0, 46, 65
1, 450629, Note_off_c, 0, 58, 66
1, 450630, Note_off_c, 0, 76, 64
1, 450640, Note_off_c, 0, 88, 63
1, 450714, Note_on_c, 0, 58, 64
1, 450714, Note_on_c, 0, 89, 90
1, 450716, Note_on_c, 0, 61, 67
1, 450716, Note_on_c, 0, 77, 91
1, 450733, Note_off_c, 0, 58, 64
1, 450735, Note_off_c, 0, 77, 67
1, 450745, Note_off_c, 0, 61, 65
1, 450755, Note_off_c, 0, 89, 65
1, 450833, Note_on_c, 0, 79, 109
1, 450834, Note_on_c, 0, 91, 102
1, 450837, Note_on_c, 0, 82, 97
1, 450838, Control_c, 0, 64, 88
1, 450843, Note_on_c, 0, 49, 90
1, 450853, Control_c, 0, 64, 127
1, 450861, Note_on_c, 0, 39, 53
1, 450864, Note_off_c, 0, 49, 70
1, 450868, Note_on_c, 0, 37, 39
1, 450869, Note_off_c, 0, 37, 127
1, 450889, Note_off_c, 0, 39, 54
1, 450901, Poly_aftertouch_c, 0, 37, 0
1, 450954, Note_on_c, 0, 63, 90
1, 450960, Poly_aftertouch_c, 0, 50, 0
1, 450971, Control_c, 0, 64, 106
1, 450973, Note_off_c, 0, 63, 73
1, 450986, Control_c, 0, 64, 81
1, 450991, Note_off_c, 0, 91, 45
1, 450997, Note_off_c, 0, 79, 57
1, 451000, Control_c, 0, 64, 0
1, 451012, Note_off_c, 0, 82, 62
1, 451090, Note_on_c, 0, 39, 82
1, 451090, Note_on_c, 0, 89, 104
1, 451090, Control_c, 0, 64, 77
1, 451090, Note_on_c, 0, 77, 112
1, 451092, Note_on_c, 0, 51, 87
1, 451095, Note_on_c, 0, 82, 98
1, 451104, Note_on_c, 0, 49, 59
1, 451104, Control_c, 0, 64, 127
1, 451116, Note_off_c, 0, 51, 68
1, 451119, Note_off_c, 0, 39, 65
1, 451119, Note_off_c, 0, 89, 70
1, 451131, Note_off_c, 0, 49, 57
1, 451140, Note_off_c, 0, 77, 63
1, 451147, Note_off_c, 0, 82, 63
1, 451209, Note_on_c, 0, 61, 79
1, 451212, Note_on_c, 0, 58, 75
1, 451231, Note_off_c, 0, 61, 67
1, 451239, Note_off_c, 0, 58, 67
1, 451320, Control_c, 0, 64, 99
1, 451335, Control_c, 0, 64, 73
1, 451349, Note_on_c, 0, 48, 97
1, 451349, Control_c, 0, 64, 0
1, 451352, Note_on_c, 0, 36, 90
1, 451388, Note_off_c, 0, 48, 64
1, 451395, Note_off_c, 0, 36, 59
1, 451409, Control_c, 0, 64, 54
1, 451423, Control_c, 0, 64, 70
1, 451438, Control_c, 0, 64, 83
1, 451453, Control_c, 0, 64, 97
1, 451468, Control_c, 0, 64, 118
1, 451471, Note_on_c, 0, 53, 91
1, 451474, Note_on_c, 0, 65, 84
1, 451475, Note_on_c, 0, 57, 81
1, 451483, Note_on_c, 0, 63, 71
1, 451483, Control_c, 0, 64, 127
1, 451497, Note_on_c, 0, 47, 81
1, 451502, Note_on_c, 0, 35, 73
1, 451524, Note_off_c, 0, 53, 64
1, 451525, Note_off_c, 0, 65, 63
1, 451530, Note_off_c, 0, 57, 62
1, 451534, Note_off_c, 0, 47, 61
1, 451535, Note_off_c, 0, 35, 64
1, 451552, Note_off_c, 0, 63, 63
1, 451557, Control_c, 0, 64, 123
1, 451572, Control_c, 0, 64, 84
1, 451587, Control_c, 0, 64, 0
1, 451608, Note_on_c, 0, 53, 112
1, 451611, Note_on_c, 0, 58, 103
1, 451611, Note_on_c, 0, 62, 93
1, 451612, Note_on_c, 0, 65, 98
1, 451619, Note_on_c, 0, 46, 98
1, 451620, Note_on_c, 0, 34, 94
1, 451638, Note_off_c, 0, 53, 68
1, 451646, Control_c, 0, 64, 59
1, 451661, Control_c, 0, 64, 75
1, 451670, Note_off_c, 0, 65, 64
1, 451673, Note_off_c, 0, 62, 61
1, 451676, Control_c, 0, 64, 89
1, 451683, Note_off_c, 0, 34, 63
1, 451683, Note_off_c, 0, 58, 64
1, 451691, Control_c, 0, 64, 99
1, 451692, Note_off_c, 0, 46, 59
1, 451705, Control_c, 0, 64, 101
1, 451764, Control_c, 0, 64, 101
1, 451779, Control_c, 0, 64, 102
1, 451794, Control_c, 0, 64, 105
1, 451809, Control_c, 0, 64, 112
1, 451823, Control_c, 0, 64, 122
1, 451838, Control_c, 0, 64, 125
1, 451853, Control_c, 0, 64, 125
1, 451868, Control_c, 0, 64, 113
1, 451883, Control_c, 0, 64, 94
1, 451897, Control_c, 0, 64, 72
1, 451913, Control_c, 0, 64, 0
1, 451937, Note_on_c, 0, 49, 84
1, 451947, Note_on_c, 0, 79, 99
1, 451948, Note_on_c, 0, 91, 99
1, 451949, Note_on_c, 0, 82, 91
1, 451954, Note_on_c, 0, 37, 50
1, 451958, Control_c, 0, 64, 62
1, 451965, Note_off_c, 0, 82, 74
1, 451966, Note_off_c, 0, 91, 65
1, 451972, Note_off_c, 0, 49, 64
1, 451972, Note_off_c, 0, 79, 68
1, 451972, Control_c, 0, 64, 74
1, 451979, Note_on_c, 0, 89, 39
1, 451987, Control_c, 0, 64, 85
1, 451990, Note_off_c, 0, 37, 35
1, 452002, Control_c, 0, 64, 92
1, 452009, Note_off_c, 0, 89, 39
1, 452017, Control_c, 0, 64, 92
1, 452033, Note_on_c, 0, 89, 83
1, 452036, Note_on_c, 0, 77, 92
1, 452065, Note_off_c, 0, 77, 64
1, 452067, Note_off_c, 0, 89, 64
1, 452093, Note_on_c, 0, 61, 36
1, 452124, Note_on_c, 0, 88, 89
1, 452125, Note_off_c, 0, 61, 51
1, 452128, Control_c, 0, 64, 92
1, 452130, Note_on_c, 0, 76, 95
1, 452148, Note_off_c, 0, 76, 72
1, 452159, Note_off_c, 0, 88, 61
1, 452201, Note_on_c, 0, 55, 74
1, 452209, Note_on_c, 0, 87, 96
1, 452210, Note_on_c, 0, 43, 50
1, 452213, Note_on_c, 0, 75, 92
1, 452227, Note_off_c, 0, 55, 66
1, 452230, Note_off_c, 0, 75, 75
1, 452237, Note_off_c, 0, 87, 62
1, 452240, Note_on_c, 0, 82, 6
1, 452241, Note_off_c, 0, 82, 127
1, 452242, Note_off_c, 0, 43, 37
1, 452291, Control_c, 0, 64, 88
1, 452298, Note_on_c, 0, 74, 96
1, 452300, Note_on_c, 0, 86, 98
1, 452306, Control_c, 0, 64, 76
1, 452309, Poly_aftertouch_c, 0, 85, 0
1, 452315, Note_off_c, 0, 86, 75
1, 452319, Note_off_c, 0, 74, 67
1, 452321, Control_c, 0, 64, 42
1, 452321, Note_on_c, 0, 61, 61
1, 452330, Note_on_c, 0, 58, 56
1, 452336, Control_c, 0, 64, 0
1, 452342, Note_off_c, 0, 61, 63
1, 452357, Note_off_c, 0, 58, 64
1, 452380, Note_on_c, 0, 85, 103
1, 452386, Note_on_c, 0, 73, 95
1, 452402, Note_off_c, 0, 73, 74
1, 452407, Note_off_c, 0, 85, 69
1, 452425, Control_c, 0, 64, 64
1, 452440, Control_c, 0, 64, 80
1, 452454, Control_c, 0, 64, 98
1, 452461, Note_on_c, 0, 48, 85
1, 452461, Note_on_c, 0, 72, 100
1, 452464, Note_on_c, 0, 83, 91
1, 452469, Control_c, 0, 64, 112
1, 452476, Note_off_c, 0, 72, 75
1, 452480, Note_on_c, 0, 36, 41
1, 452483, Note_off_c, 0, 48, 70
1, 452483, Note_off_c, 0, 83, 65
1, 452484, Control_c, 0, 64, 115
1, 452498, Control_c, 0, 64, 118
1, 452513, Control_c, 0, 64, 125
1, 452515, Note_off_c, 0, 36, 53
1, 452528, Control_c, 0, 64, 127
1, 452583, Note_on_c, 0, 84, 102
1, 452586, Note_on_c, 0, 96, 96
1, 452597, Note_on_c, 0, 56, 73
1, 452599, Note_off_c, 0, 96, 74
1, 452620, Note_off_c, 0, 84, 64
1, 452621, Note_off_c, 0, 56, 66
1, 452628, Note_on_c, 0, 55, 23
1, 452632, Control_c, 0, 64, 115
1, 452646, Control_c, 0, 64, 97
1, 452661, Control_c, 0, 64, 78
1, 452671, Note_off_c, 0, 55, 48
1, 452676, Control_c, 0, 64, 0
1, 452714, Note_on_c, 0, 53, 89
1, 452714, Note_on_c, 0, 84, 97
1, 452720, Note_on_c, 0, 41, 77
1, 452721, Control_c, 0, 64, 45
1, 452724, Note_on_c, 0, 72, 84
1, 452735, Control_c, 0, 64, 69
1, 452737, Note_off_c, 0, 72, 72
1, 452742, Note_off_c, 0, 41, 64
1, 452743, Note_off_c, 0, 53, 69
1, 452746, Note_off_c, 0, 84, 68
1, 452750, Control_c, 0, 64, 80
1, 452765, Control_c, 0, 64, 93
1, 452780, Control_c, 0, 64, 100
1, 452802, Control_c, 0, 64, 101
1, 452817, Control_c, 0, 64, 101
1, 452848, Note_on_c, 0, 84, 105
1, 452850, Note_on_c, 0, 96, 111
1, 452857, Note_on_c, 0, 57, 81
1, 452862, Note_off_c, 0, 96, 75
1, 452862, Control_c, 0, 64, 102
1, 452875, Note_on_c, 0, 64, 48
1, 452876, Control_c, 0, 64, 103
1, 452877, Note_on_c, 0, 92, 49
1, 452878, Note_off_c, 0, 92, 127
1, 452878, Note_off_c, 0, 84, 64
1, 452878, Note_off_c, 0, 57, 69
1, 452891, Control_c, 0, 64, 106
1, 452899, Note_off_c, 0, 64, 57
1, 452906, Control_c, 0, 64, 109
1, 452921, Control_c, 0, 64, 110
1, 452936, Control_c, 0, 64, 109
1, 452945, Poly_aftertouch_c, 0, 63, 0
1, 452950, Control_c, 0, 64, 100
1, 452965, Control_c, 0, 64, 79
1, 452980, Control_c, 0, 64, 0
1, 452996, Note_on_c, 0, 48, 98
1, 453002, Note_on_c, 0, 36, 87
1, 453034, Note_off_c, 0, 48, 65
1, 453046, Note_off_c, 0, 36, 57
1, 453054, Control_c, 0, 64, 62
1, 453069, Control_c, 0, 64, 71
1, 453084, Control_c, 0, 64, 78
1, 453099, Control_c, 0, 64, 84
1, 453114, Control_c, 0, 64, 89
1, 453129, Control_c, 0, 64, 96
1, 453136, Note_on_c, 0, 56, 55
1, 453143, Note_on_c, 0, 53, 90
1, 453143, Control_c, 0, 64, 111
1, 453149, Note_on_c, 0, 65, 72
1, 453153, Note_on_c, 0, 47, 86
1, 453155, Note_on_c, 0, 64, 71
1, 453158, Control_c, 0, 64, 127
1, 453158, Note_on_c, 0, 35, 74
1, 453160, Note_on_c, 0, 62, 66
1, 453184, Note_off_c, 0, 64, 62
1, 453186, Note_off_c, 0, 53, 64
1, 453188, Note_off_c, 0, 65, 63
1, 453190, Note_off_c, 0, 47, 60
1, 453190, Note_off_c, 0, 62, 63
1, 453192, Note_off_c, 0, 35, 64
1, 453212, Note_off_c, 0, 56, 64
1, 453261, Control_c, 0, 64, 115
1, 453276, Note_on_c, 0, 58, 99
1, 453276, Control_c, 0, 64, 78
1, 453277, Note_on_c, 0, 46, 107
1, 453278, Note_on_c, 0, 53, 103
1, 453279, Note_on_c, 0, 34, 95
1, 453281, Note_on_c, 0, 63, 73
1, 453282, Note_on_c, 0, 55, 86
1, 453282, Note_on_c, 0, 65, 86
1, 453291, Control_c, 0, 64, 0
1, 453293, Note_off_c, 0, 53, 76
1, 453298, Note_on_c, 0, 67, 65
1, 453299, Note_off_c, 0, 67, 127
1, 453299, Note_off_c, 0, 65, 68
1, 453299, Note_on_c, 0, 64, 62
1, 453302, Note_off_c, 0, 63, 43
1, 453305, Note_off_c, 0, 55, 70
1, 453318, Note_off_c, 0, 34, 63
1, 453319, Note_off_c, 0, 64, 64
1, 453325, Note_off_c, 0, 46, 62
1, 453327, Note_off_c, 0, 58, 66
1, 453351, Control_c, 0, 64, 36
1, 453366, Control_c, 0, 64, 73
1, 453381, Control_c, 0, 64, 87
1, 453395, Control_c, 0, 64, 98
1, 453410, Control_c, 0, 64, 100
1, 453567, Control_c, 0, 64, 99
1, 453581, Control_c, 0, 64, 92
1, 453596, Control_c, 0, 64, 77
1, 453611, Control_c, 0, 64, 0
1, 453620, Note_on_c, 0, 65, 100
1, 453621, Note_on_c, 0, 61, 98
1, 453623, Note_on_c, 0, 53, 91
1, 453623, Note_on_c, 0, 58, 88
1, 453685, Control_c, 0, 64, 38
1, 453699, Control_c, 0, 64, 67
1, 453714, Control_c, 0, 64, 76
1, 453729, Control_c, 0, 64, 86
1, 453744, Control_c, 0, 64, 94
1, 453753, Note_on_c, 0, 73, 63
1, 453753, Note_on_c, 0, 82, 80
1, 453758, Note_on_c, 0, 70, 66
1, 453758, Control_c, 0, 64, 96
1, 453767, Note_off_c, 0, 65, 58
1, 453773, Note_off_c, 0, 53, 60
1, 453773, Note_off_c, 0, 70, 66
1, 453773, Control_c, 0, 64, 97
1, 453785, Note_off_c, 0, 61, 59
1, 453786, Note_off_c, 0, 58, 60
1, 453788, Control_c, 0, 64, 97
1, 453796, Note_off_c, 0, 73, 62
1, 453803, Control_c, 0, 64, 95
1, 453818, Control_c, 0, 64, 86
1, 453821, Note_off_c, 0, 82, 62
1, 453833, Control_c, 0, 64, 66
1, 453848, Control_c, 0, 64, 0
1, 453867, Note_on_c, 0, 64, 91
1, 453871, Note_on_c, 0, 52, 85
1, 453907, Control_c, 0, 64, 64
1, 453910, Note_off_c, 0, 52, 66
1, 453918, Note_off_c, 0, 64, 61
1, 453922, Control_c, 0, 64, 76
1, 453936, Control_c, 0, 64, 88
1, 453951, Control_c, 0, 64, 97
1, 453966, Control_c, 0, 64, 99
1, 453981, Control_c, 0, 64, 100
1, 453991, Note_on_c, 0, 82, 89
1, 453991, Note_on_c, 0, 94, 87
1, 453993, Note_on_c, 0, 85, 59
1, 453996, Note_on_c, 0, 65, 92
1, 454000, Note_on_c, 0, 53, 78
1, 454015, Note_off_c, 0, 94, 65
1, 454034, Note_off_c, 0, 53, 65
1, 454036, Note_off_c, 0, 82, 63
1, 454036, Note_off_c, 0, 85, 65
1, 454040, Control_c, 0, 64, 99
1, 454041, Note_off_c, 0, 65, 65
1, 454055, Control_c, 0, 64, 90
1, 454070, Control_c, 0, 64, 73
1, 454084, Control_c, 0, 64, 0
1, 454110, Note_on_c, 0, 67, 102
1, 454112, Note_on_c, 0, 63, 95
1, 454114, Note_on_c, 0, 55, 89
1, 454118, Note_on_c, 0, 58, 85
1, 454158, Control_c, 0, 64, 67
1, 454173, Control_c, 0, 64, 78
1, 454188, Control_c, 0, 64, 92
1, 454203, Control_c, 0, 64, 100
1, 454218, Control_c, 0, 64, 103
1, 454232, Control_c, 0, 64, 105
1, 454246, Note_on_c, 0, 82, 87
1, 454247, Note_on_c, 0, 70, 77
1, 454247, Control_c, 0, 64, 107
1, 454250, Note_on_c, 0, 75, 73
1, 454262, Note_off_c, 0, 70, 69
1, 454274, Note_off_c, 0, 67, 56
1, 454280, Note_off_c, 0, 55, 59
1, 454280, Note_off_c, 0, 63, 63
1, 454282, Note_off_c, 0, 75, 64
1, 454294, Note_off_c, 0, 58, 63
1, 454299, Control_c, 0, 64, 105
1, 454305, Note_off_c, 0, 82, 64
1, 454314, Control_c, 0, 64, 90
1, 454330, Control_c, 0, 64, 70
1, 454345, Control_c, 0, 64, 0
1, 454365, Note_on_c, 0, 65, 100
1, 454367, Note_on_c, 0, 61, 92
1, 454368, Note_on_c, 0, 53, 90
1, 454370, Note_on_c, 0, 58, 82
1, 454404, Control_c, 0, 64, 38
1, 454419, Control_c, 0, 64, 69
1, 454426, Note_on_c, 0, 85, 35
1, 454434, Control_c, 0, 64, 80
1, 454448, Control_c, 0, 64, 90
1, 454453, Note_off_c, 0, 65, 61
1, 454456, Note_off_c, 0, 85, 33
1, 454463, Control_c, 0, 64, 93
1, 454478, Control_c, 0, 64, 94
1, 454482, Note_off_c, 0, 61, 60
1, 454493, Control_c, 0, 64, 95
1, 454495, Note_on_c, 0, 94, 93
1, 454495, Note_off_c, 0, 53, 63
1, 454495, Note_on_c, 0, 82, 95
1, 454495, Note_off_c, 0, 58, 61
1, 454504, Note_on_c, 0, 85, 73
1, 454508, Control_c, 0, 64, 100
1, 454510, Note_off_c, 0, 94, 75
1, 454522, Control_c, 0, 64, 107
1, 454526, Note_off_c, 0, 85, 69
1, 454534, Note_off_c, 0, 82, 61
1, 454537, Control_c, 0, 64, 112
1, 454552, Control_c, 0, 64, 113
1, 454566, Control_c, 0, 64, 110
1, 454581, Control_c, 0, 64, 95
1, 454596, Control_c, 0, 64, 70
1, 454611, Control_c, 0, 64, 0
1, 454632, Note_on_c, 0, 48, 100
1, 454635, Note_on_c, 0, 36, 90
1, 454669, Note_off_c, 0, 48, 66
1, 454671, Note_off_c, 0, 36, 62
1, 454671, Control_c, 0, 64, 60
1, 454686, Control_c, 0, 64, 72
1, 454700, Control_c, 0, 64, 87
1, 454715, Control_c, 0, 64, 100
1, 454730, Control_c, 0, 64, 105
1, 454736, Poly_aftertouch_c, 0, 37, 0
1, 454745, Control_c, 0, 64, 106
1, 454765, Note_on_c, 0, 47, 87
1, 454766, Note_on_c, 0, 57, 75
1, 454768, Note_on_c, 0, 35, 81
1, 454770, Note_on_c, 0, 53, 89
1, 454773, Note_on_c, 0, 65, 81
1, 454774, Control_c, 0, 64, 107
1, 454784, Note_on_c, 0, 63, 76
1, 454789, Control_c, 0, 64, 106
1, 454810, Note_off_c, 0, 35, 64
1, 454812, Note_off_c, 0, 53, 64
1, 454812, Note_off_c, 0, 65, 63
1, 454816, Note_off_c, 0, 57, 63
1, 454817, Note_off_c, 0, 47, 63
1, 454819, Control_c, 0, 64, 100
1, 454833, Control_c, 0, 64, 83
1, 454837, Note_off_c, 0, 63, 63
1, 454848, Control_c, 0, 64, 27
1, 454863, Control_c, 0, 64, 0
1, 454889, Note_on_c, 0, 46, 102
1, 454889, Note_on_c, 0, 53, 104
1, 454890, Note_on_c, 0, 34, 97
1, 454891, Note_on_c, 0, 58, 94
1, 454891, Note_on_c, 0, 62, 89
1, 454894, Note_on_c, 0, 65, 93
1, 454906, Note_off_c, 0, 53, 75
1, 454922, Control_c, 0, 64, 64
1, 454930, Note_off_c, 0, 65, 65
1, 454933, Note_off_c, 0, 46, 64
1, 454936, Note_off_c, 0, 34, 62
1, 454937, Control_c, 0, 64, 76
1, 454941, Note_off_c, 0, 62, 64
1, 454948, Note_off_c, 0, 58, 64
1, 454952, Control_c, 0, 64, 87
1, 454967, Control_c, 0, 64, 92
1, 454982, Control_c, 0, 64, 92
1, 454997, Poly_aftertouch_c, 0, 63, 0
1, 454997, Control_c, 0, 64, 93
1, 455012, Control_c, 0, 64, 95
1, 455027, Control_c, 0, 64, 97
1, 455049, Control_c, 0, 64, 101
1, 455064, Control_c, 0, 64, 106
1, 455079, Control_c, 0, 64, 110
1, 455093, Control_c, 0, 64, 110
1, 455108, Control_c, 0, 64, 110
1, 455124, Control_c, 0, 64, 109
1, 455139, Control_c, 0, 64, 102
1, 455154, Control_c, 0, 64, 87
1, 455168, Control_c, 0, 64, 66
1, 455183, Control_c, 0, 64, 0
1, 455185, Note_on_c, 0, 67, 101
1, 455189, Note_on_c, 0, 55, 87
1, 455217, Note_off_c, 0, 67, 65
1, 455225, Note_off_c, 0, 55, 68
1, 455228, Control_c, 0, 64, 58
1, 455243, Control_c, 0, 64, 74
1, 455258, Control_c, 0, 64, 87
1, 455272, Control_c, 0, 64, 101
1, 455280, Note_on_c, 0, 70, 64
1, 455281, Note_on_c, 0, 82, 76
1, 455282, Note_on_c, 0, 65, 91
1, 455282, Note_on_c, 0, 73, 70
1, 455285, Note_on_c, 0, 53, 92
1, 455287, Control_c, 0, 64, 102
1, 455298, Note_off_c, 0, 70, 64
1, 455303, Note_off_c, 0, 65, 69
1, 455307, Note_off_c, 0, 73, 67
1, 455310, Note_off_c, 0, 53, 67
1, 455317, Control_c, 0, 64, 102
1, 455332, Control_c, 0, 64, 99
1, 455336, Note_off_c, 0, 82, 64
1, 455346, Control_c, 0, 64, 88
1, 455361, Control_c, 0, 64, 65
1, 455372, Note_on_c, 0, 64, 85
1, 455376, Control_c, 0, 64, 0
1, 455377, Note_on_c, 0, 52, 86
1, 455392, Note_off_c, 0, 64, 71
1, 455398, Note_off_c, 0, 52, 72
1, 455420, Control_c, 0, 64, 37
1, 455435, Control_c, 0, 64, 71
1, 455446, Note_on_c, 0, 87, 32
1, 455450, Control_c, 0, 64, 91
1, 455464, Control_c, 0, 64, 120
1, 455465, Note_on_c, 0, 51, 91
1, 455466, Note_on_c, 0, 63, 88
1, 455475, Note_off_c, 0, 87, 54
1, 455479, Control_c, 0, 64, 127
1, 455499, Note_off_c, 0, 63, 58
1, 455511, Note_off_c, 0, 51, 62
1, 455538, Note_on_c, 0, 82, 78
1, 455540, Note_on_c, 0, 85, 70
1, 455541, Note_on_c, 0, 94, 76
1, 455552, Note_on_c, 0, 62, 92
1, 455557, Note_off_c, 0, 94, 68
1, 455558, Note_on_c, 0, 50, 80
1, 455565, Note_off_c, 0, 82, 63
1, 455565, Note_off_c, 0, 85, 69
1, 455583, Control_c, 0, 64, 126
1, 455585, Note_off_c, 0, 50, 67
1, 455592, Note_off_c, 0, 62, 60
1, 455598, Control_c, 0, 64, 117
1, 455613, Control_c, 0, 64, 109
1, 455628, Control_c, 0, 64, 97
1, 455642, Control_c, 0, 64, 76
1, 455657, Note_on_c, 0, 61, 89
1, 455657, Control_c, 0, 64, 0
1, 455663, Note_on_c, 0, 49, 67
1, 455672, Note_on_c, 0, 52, 58
1, 455679, Note_on_c, 0, 55, 46
1, 455682, Note_off_c, 0, 61, 65
1, 455692, Note_off_c, 0, 49, 64
1, 455693, Note_off_c, 0, 52, 68
1, 455707, Note_off_c, 0, 55, 54
1, 455729, Note_on_c, 0, 60, 98
1, 455736, Note_on_c, 0, 48, 84
1, 455736, Note_on_c, 0, 55, 77
1, 455740, Note_on_c, 0, 52, 87
1, 455746, Control_c, 0, 64, 64
1, 455761, Control_c, 0, 64, 83
1, 455773, Note_off_c, 0, 60, 63
1, 455776, Control_c, 0, 64, 99
1, 455797, Control_c, 0, 64, 108
1, 455799, Note_off_c, 0, 55, 64
1, 455815, Note_off_c, 0, 52, 66
1, 455827, Note_off_c, 0, 48, 63
1, 455884, Note_on_c, 0, 76, 69
1, 455885, Note_on_c, 0, 79, 79
1, 455887, Control_c, 0, 64, 108
1, 455889, Note_on_c, 0, 84, 82
1, 455899, Note_on_c, 0, 72, 51
1, 455902, Control_c, 0, 64, 109
1, 455915, Note_off_c, 0, 76, 65
1, 455920, Note_off_c, 0, 72, 62
1, 455929, Note_off_c, 0, 79, 64
1, 455949, Note_off_c, 0, 84, 68
1, 455961, Control_c, 0, 64, 105
1, 455976, Control_c, 0, 64, 89
1, 455986, Poly_aftertouch_c, 0, 49, 127
1, 455991, Control_c, 0, 64, 65
1, 456006, Control_c, 0, 64, 0
1, 456018, Note_on_c, 0, 53, 104
1, 456018, Poly_aftertouch_c, 0, 49, 0
1, 456021, Note_on_c, 0, 41, 95
1, 456021, Note_on_c, 0, 48, 93
1, 456024, Note_on_c, 0, 45, 89
1, 456081, Control_c, 0, 64, 65
1, 456095, Control_c, 0, 64, 87
1, 456099, Note_on_c, 0, 97, 5
1, 456110, Control_c, 0, 64, 113
1, 456119, Note_off_c, 0, 53, 64
1, 456125, Note_off_c, 0, 48, 62
1, 456125, Control_c, 0, 64, 127
1, 456137, Note_off_c, 0, 97, 59
1, 456138, Note_off_c, 0, 45, 62
1, 456155, Note_off_c, 0, 41, 64
1, 456168, Note_on_c, 0, 101, 95
1, 456170, Note_on_c, 0, 89, 96
1, 456177, Note_on_c, 0, 96, 74
1, 456179, Note_on_c, 0, 93, 62
1, 456184, Control_c, 0, 64, 114
1, 456187, Note_off_c, 0, 101, 69
1, 456199, Control_c, 0, 64, 91
1, 456200, Note_off_c, 0, 96, 66
1, 456206, Note_off_c, 0, 93, 67
1, 456213, Control_c, 0, 64, 63
1, 456218, Note_off_c, 0, 89, 67
1, 456224, Note_on_c, 0, 97, 9
1, 456225, Note_off_c, 0, 97, 127
1, 456228, Control_c, 0, 64, 0
1, 456340, Note_on_c, 0, 48, 101
1, 456343, Note_on_c, 0, 36, 93
1, 456376, Control_c, 0, 64, 76
1, 456378, Note_on_c, 0, 37, 36
1, 456391, Control_c, 0, 64, 110
1, 456406, Control_c, 0, 64, 127
1, 456419, Note_off_c, 0, 37, 57
1, 456428, Note_off_c, 0, 48, 54
1, 456435, Control_c, 0, 64, 111
1, 456447, Note_off_c, 0, 36, 59
1, 456450, Control_c, 0, 64, 84
1, 456465, Control_c, 0, 64, 0
1, 456546, Note_on_c, 0, 53, 108
1, 456549, Note_on_c, 0, 57, 82
1, 456549, Note_on_c, 0, 65, 93
1, 456552, Note_on_c, 0, 63, 89
1, 456552, Note_on_c, 0, 47, 101
1, 456558, Note_on_c, 0, 35, 87
1, 456581, Note_off_c, 0, 57, 63
1, 456591, Control_c, 0, 64, 69
1, 456606, Control_c, 0, 64, 104
1, 456620, Control_c, 0, 64, 107
1, 456635, Note_off_c, 0, 65, 60
1, 456635, Control_c, 0, 64, 93
1, 456636, Note_off_c, 0, 35, 63
1, 456641, Note_off_c, 0, 47, 60
1, 456647, Note_off_c, 0, 53, 59
1, 456650, Control_c, 0, 64, 76
1, 456662, Note_off_c, 0, 63, 64
1, 456665, Control_c, 0, 64, 0
1, 456780, Note_on_c, 0, 53, 102
1, 456781, Note_on_c, 0, 62, 88
1, 456782, Note_on_c, 0, 65, 96
1, 456784, Control_c, 0, 64, 78
1, 456785, Note_on_c, 0, 46, 108
1, 456786, Note_on_c, 0, 58, 97
1, 456790, Note_on_c, 0, 34, 99
1, 456799, Control_c, 0, 64, 127
1, 456809, Note_off_c, 0, 65, 65
1, 456812, Note_on_c, 0, 55, 48
1, 456813, Note_off_c, 0, 55, 127
1, 456814, Note_off_c, 0, 53, 69
1, 456821, Note_off_c, 0, 62, 64
1, 456835, Note_off_c, 0, 34, 66
1, 456836, Note_off_c, 0, 46, 62
1, 456837, Note_off_c, 0, 58, 66
1, 457273, Control_c, 0, 64, 111
1, 457295, Control_c, 0, 64, 100
1, 457310, Control_c, 0, 64, 90
1, 457325, Control_c, 0, 64, 80
1, 457340, Control_c, 0, 64, 69
1, 457355, Control_c, 0, 64, 44
1, 457369, Control_c, 0, 64, 0
1, 457590, Note_on_c, 0, 68, 64
1, 457628, Note_off_c, 0, 68, 62
1, 457660, Note_on_c, 0, 70, 56
1, 457666, Control_c, 0, 67, 8
1, 457681, Note_off_c, 0, 70, 63
1, 457681, Control_c, 0, 64, 56
1, 457681, Control_c, 0, 67, 12
1, 457696, Note_on_c, 0, 68, 56
1, 457696, Control_c, 0, 64, 65
1, 457696, Control_c, 0, 67, 16
1, 457711, Control_c, 0, 64, 68
1, 457711, Control_c, 0, 67, 19
1, 457726, Control_c, 0, 64, 71
1, 457726, Control_c, 0, 67, 22
1, 457741, Control_c, 0, 64, 73
1, 457741, Control_c, 0, 67, 27
1, 457756, Control_c, 0, 64, 75
1, 457756, Control_c, 0, 67, 31
1, 457771, Control_c, 0, 64, 76
1, 457771, Control_c, 0, 67, 36
1, 457782, Note_on_c, 0, 74, 38
1, 457785, Control_c, 0, 67, 40
1, 457800, Control_c, 0, 67, 42
1, 457814, Note_off_c, 0, 74, 53
1, 457815, Control_c, 0, 64, 75
1, 457815, Control_c, 0, 67, 43
1, 457823, Note_on_c, 0, 77, 67
1, 457830, Control_c, 0, 64, 74
1, 457830, Control_c, 0, 67, 43
1, 457845, Control_c, 0, 64, 71
1, 457845, Control_c, 0, 67, 44
1, 457859, Note_off_c, 0, 77, 58
1, 457859, Control_c, 0, 64, 64
1, 457859, Control_c, 0, 67, 44
1, 457869, Note_on_c, 0, 82, 74
1, 457874, Control_c, 0, 64, 31
1, 457889, Control_c, 0, 64, 0
1, 457889, Control_c, 0, 67, 45
1, 457891, Note_off_c, 0, 82, 68
1, 457894, Note_off_c, 0, 68, 59
1, 457903, Control_c, 0, 67, 46
1, 457942, Note_on_c, 0, 67, 46
1, 457955, Note_on_c, 0, 86, 66
1, 457971, Note_off_c, 0, 67, 56
1, 457983, Note_off_c, 0, 86, 66
1, 457985, Note_on_c, 0, 89, 73
1, 457992, Control_c, 0, 67, 47
1, 458007, Control_c, 0, 67, 47
1, 458023, Note_on_c, 0, 94, 74
1, 458028, Note_off_c, 0, 89, 64
1, 458045, Control_c, 0, 67, 47
1, 458072, Note_on_c, 0, 98, 71
1, 458078, Note_on_c, 0, 65, 57
1, 458081, Note_off_c, 0, 94, 65
1, 458106, Note_off_c, 0, 98, 64
1, 458110, Note_off_c, 0, 65, 66
1, 458118, Control_c, 0, 67, 47
1, 458222, Control_c, 0, 67, 47
1, 458289, Note_on_c, 0, 79, 63
1, 458307, Note_on_c, 0, 62, 62
1, 458327, Note_off_c, 0, 79, 62
1, 458327, Control_c, 0, 67, 46
1, 458337, Note_on_c, 0, 82, 67
1, 458374, Note_off_c, 0, 62, 59
1, 458381, Note_off_c, 0, 82, 65
1, 458390, Note_on_c, 0, 87, 81
1, 458408, Note_off_c, 0, 87, 70
1, 458415, Control_c, 0, 67, 47
1, 458427, Note_on_c, 0, 63, 60
1, 458460, Control_c, 0, 67, 46
1, 458462, Note_on_c, 0, 91, 83
1, 458475, Control_c, 0, 64, 59
1, 458489, Note_off_c, 0, 63, 52
1, 458489, Control_c, 0, 64, 67
1, 458497, Note_off_c, 0, 91, 60
1, 458504, Control_c, 0, 64, 73
1, 458505, Note_on_c, 0, 94, 82
1, 458519, Control_c, 0, 64, 79
1, 458534, Control_c, 0, 64, 83
1, 458534, Control_c, 0, 67, 47
1, 458535, Note_on_c, 0, 99, 77
1, 458549, Control_c, 0, 64, 85
1, 458553, Note_off_c, 0, 94, 66
1, 458564, Control_c, 0, 64, 86
1, 458570, Note_on_c, 0, 103, 88
1, 458579, Control_c, 0, 64, 88
1, 458579, Control_c, 0, 67, 46
1, 458588, Note_off_c, 0, 99, 67
1, 458594, Control_c, 0, 64, 88
1, 458604, Note_on_c, 0, 64, 66
1, 458608, Note_off_c, 0, 103, 61
1, 458623, Control_c, 0, 64, 88
1, 458623, Control_c, 0, 67, 46
1, 458638, Control_c, 0, 64, 86
1, 458638, Control_c, 0, 67, 45
1, 458638, Note_off_c, 0, 64, 65
1, 458653, Control_c, 0, 64, 81
1, 458658, Note_on_c, 0, 66, 67
1, 458668, Control_c, 0, 64, 71
1, 458678, Note_on_c, 0, 64, 80
1, 458682, Control_c, 0, 64, 62
1, 458682, Control_c, 0, 67, 45
1, 458691, Note_off_c, 0, 66, 67
1, 458697, Control_c, 0, 64, 64
1, 458697, Control_c, 0, 67, 44
1, 458712, Control_c, 0, 64, 72
1, 458712, Control_c, 0, 67, 44
1, 458726, Control_c, 0, 64, 80
1, 458741, Control_c, 0, 64, 86
1, 458756, Control_c, 0, 64, 88
1, 458756, Control_c, 0, 67, 44
1, 458766, Note_on_c, 0, 70, 65
1, 458771, Control_c, 0, 64, 89
1, 458793, Control_c, 0, 67, 45
1, 458821, Note_off_c, 0, 70, 60
1, 458823, Control_c, 0, 67, 44
1, 458832, Note_on_c, 0, 73, 66
1, 458856, Note_off_c, 0, 64, 61
1, 458868, Note_off_c, 0, 73, 62
1, 458868, Control_c, 0, 64, 88
1, 458883, Control_c, 0, 64, 84
1, 458886, Note_on_c, 0, 78, 80
1, 458897, Control_c, 0, 64, 76
1, 458906, Note_off_c, 0, 78, 70
1, 458912, Control_c, 0, 64, 64
1, 458912, Control_c, 0, 67, 45
1, 458927, Control_c, 0, 64, 0
1, 458941, Note_on_c, 0, 63, 72
1, 458956, Control_c, 0, 67, 44
1, 458970, Note_on_c, 0, 82, 66
1, 458975, Note_off_c, 0, 63, 63
1, 459002, Note_off_c, 0, 82, 63
1, 459024, Note_on_c, 0, 84, 58
1, 459030, Control_c, 0, 67, 45
1, 459044, Note_off_c, 0, 84, 63
1, 459058, Note_on_c, 0, 89, 60
1, 459075, Note_on_c, 0, 61, 70
1, 459080, Note_on_c, 0, 94, 87
1, 459089, Note_off_c, 0, 89, 68
1, 459112, Note_off_c, 0, 61, 60
1, 459124, Note_off_c, 0, 94, 65
1, 459150, Control_c, 0, 67, 45
1, 459175, Note_on_c, 0, 66, 72
1, 459194, Control_c, 0, 67, 45
1, 459209, Control_c, 0, 67, 44
1, 459217, Note_off_c, 0, 66, 63
1, 459224, Control_c, 0, 67, 43
1, 459253, Control_c, 0, 67, 43
1, 459279, Note_on_c, 0, 71, 60
1, 459284, Note_on_c, 0, 58, 57
1, 459298, Control_c, 0, 67, 42
1, 459306, Note_off_c, 0, 71, 62
1, 459312, Control_c, 0, 67, 42
1, 459324, Note_off_c, 0, 58, 64
1, 459327, Note_on_c, 0, 75, 64
1, 459357, Note_off_c, 0, 75, 68
1, 459364, Note_on_c, 0, 78, 83
1, 459383, Note_off_c, 0, 78, 72
1, 459401, Control_c, 0, 67, 42
1, 459412, Note_on_c, 0, 59, 57
1, 459437, Note_on_c, 0, 83, 79
1, 459446, Control_c, 0, 64, 52
1, 459461, Control_c, 0, 64, 66
1, 459461, Control_c, 0, 67, 42
1, 459475, Note_off_c, 0, 83, 60
1, 459476, Control_c, 0, 64, 74
1, 459476, Control_c, 0, 67, 41
1, 459479, Note_on_c, 0, 87, 77
1, 459484, Note_off_c, 0, 59, 57
1, 459491, Control_c, 0, 64, 82
1, 459491, Control_c, 0, 67, 41
1, 459505, Control_c, 0, 64, 86
1, 459506, Note_on_c, 0, 90, 76
1, 459520, Control_c, 0, 64, 88
1, 459520, Control_c, 0, 67, 40
1, 459537, Note_off_c, 0, 87, 63
1, 459542, Control_c, 0, 64, 88
1, 459547, Note_on_c, 0, 95, 90
1, 459556, Control_c, 0, 64, 90
1, 459560, Note_off_c, 0, 90, 64
1, 459571, Control_c, 0, 64, 93
1, 459571, Control_c, 0, 67, 41
1, 459578, Note_off_c, 0, 95, 64
1, 459586, Control_c, 0, 64, 96
1, 459598, Note_on_c, 0, 60, 66
1, 459601, Control_c, 0, 64, 99
1, 459601, Control_c, 0, 67, 40
1, 459616, Control_c, 0, 64, 100
1, 459616, Control_c, 0, 67, 40
1, 459630, Note_off_c, 0, 60, 65
1, 459646, Control_c, 0, 64, 98
1, 459646, Control_c, 0, 67, 39
1, 459661, Control_c, 0, 64, 90
1, 459661, Control_c, 0, 67, 39
1, 459665, Note_on_c, 0, 62, 68
1, 459676, Control_c, 0, 64, 78
1, 459676, Control_c, 0, 67, 38
1, 459680, Note_on_c, 0, 60, 89
1, 459690, Control_c, 0, 64, 70
1, 459690, Control_c, 0, 67, 38
1, 459693, Note_off_c, 0, 62, 66
1, 459705, Control_c, 0, 64, 69
1, 459705, Control_c, 0, 67, 37
1, 459720, Control_c, 0, 64, 74
1, 459720, Control_c, 0, 67, 37
1, 459735, Control_c, 0, 64, 80
1, 459750, Control_c, 0, 64, 85
1, 459763, Note_on_c, 0, 66, 74
1, 459764, Control_c, 0, 64, 88
1, 459779, Control_c, 0, 64, 89
1, 459788, Note_off_c, 0, 66, 69
1, 459837, Note_on_c, 0, 69, 68
1, 459838, Control_c, 0, 67, 36
1, 459853, Control_c, 0, 64, 87
1, 459867, Note_off_c, 0, 69, 67
1, 459868, Control_c, 0, 64, 83
1, 459881, Note_on_c, 0, 74, 79
1, 459882, Control_c, 0, 64, 74
1, 459882, Control_c, 0, 67, 36
1, 459897, Control_c, 0, 64, 57
1, 459902, Note_off_c, 0, 60, 60
1, 459914, Control_c, 0, 64, 0
1, 459924, Note_off_c, 0, 74, 63
1, 459940, Note_on_c, 0, 78, 82
1, 459941, Note_on_c, 0, 59, 68
1, 459943, Control_c, 0, 67, 35
1, 459958, Note_off_c, 0, 78, 72
1, 459987, Control_c, 0, 67, 36
1, 459992, Note_off_c, 0, 59, 54
1, 460006, Note_on_c, 0, 81, 81
1, 460017, Control_c, 0, 67, 36
1, 460042, Note_off_c, 0, 81, 63
1, 460051, Note_on_c, 0, 86, 81
1, 460057, Note_on_c, 0, 57, 65
1, 460076, Control_c, 0, 67, 36
1, 460091, Control_c, 0, 67, 35
1, 460093, Note_on_c, 0, 90, 87
1, 460093, Note_off_c, 0, 57, 62
1, 460095, Note_off_c, 0, 86, 62
1, 460106, Control_c, 0, 67, 35
1, 460120, Note_off_c, 0, 90, 64
1, 460121, Control_c, 0, 67, 34
1, 460165, Control_c, 0, 67, 34
1, 460176, Note_on_c, 0, 62, 75
1, 460179, Control_c, 0, 67, 33
1, 460194, Control_c, 0, 67, 32
1, 460209, Control_c, 0, 67, 31
1, 460224, Control_c, 0, 67, 30
1, 460228, Note_off_c, 0, 62, 58
1, 460239, Control_c, 0, 67, 28
1, 460254, Control_c, 0, 67, 26
1, 460269, Control_c, 0, 67, 24
1, 460291, Control_c, 0, 67, 22
1, 460299, Note_on_c, 0, 67, 63
1, 460302, Note_on_c, 0, 54, 62
1, 460305, Control_c, 0, 67, 17
1, 460320, Control_c, 0, 67, 12
1, 460328, Note_off_c, 0, 67, 65
1, 460335, Control_c, 0, 67, 0
1, 460340, Note_on_c, 0, 71, 67
1, 460345, Note_off_c, 0, 54, 59
1, 460385, Note_on_c, 0, 74, 75
1, 460385, Note_off_c, 0, 71, 62
1, 460405, Note_off_c, 0, 74, 73
1, 460419, Note_on_c, 0, 55, 67
1, 460439, Control_c, 0, 64, 27
1, 460454, Control_c, 0, 64, 62
1, 460454, Note_on_c, 0, 79, 85
1, 460455, Note_off_c, 0, 55, 62
1, 460468, Control_c, 0, 64, 70
1, 460483, Control_c, 0, 64, 80
1, 460489, Note_off_c, 0, 79, 61
1, 460497, Note_on_c, 0, 83, 75
1, 460498, Control_c, 0, 64, 92
1, 460513, Control_c, 0, 64, 103
1, 460528, Control_c, 0, 64, 109
1, 460528, Note_on_c, 0, 86, 81
1, 460543, Control_c, 0, 64, 109
1, 460546, Note_off_c, 0, 83, 62
1, 460558, Note_on_c, 0, 91, 95
1, 460568, Note_off_c, 0, 86, 64
1, 460587, Control_c, 0, 64, 110
1, 460591, Note_off_c, 0, 91, 61
1, 460602, Control_c, 0, 64, 112
1, 460617, Control_c, 0, 64, 118
1, 460632, Control_c, 0, 64, 122
1, 460661, Control_c, 0, 64, 121
1, 460676, Control_c, 0, 64, 114
1, 460691, Control_c, 0, 64, 101
1, 460707, Control_c, 0, 64, 86
1, 460722, Control_c, 0, 64, 67
1, 460734, Note_on_c, 0, 56, 66
1, 460735, Note_on_c, 0, 44, 59
1, 460736, Control_c, 0, 64, 39
1, 460751, Control_c, 0, 64, 58
1, 460766, Control_c, 0, 64, 67
1, 460770, Note_off_c, 0, 44, 64
1, 460778, Note_off_c, 0, 56, 55
1, 460781, Control_c, 0, 64, 73
1, 460796, Control_c, 0, 64, 81
1, 460810, Control_c, 0, 64, 87
1, 460825, Note_on_c, 0, 59, 56
1, 460825, Control_c, 0, 64, 89
1, 460838, Note_on_c, 0, 71, 45
1, 460840, Control_c, 0, 64, 90
1, 460841, Note_on_c, 0, 69, 40
1, 460845, Note_off_c, 0, 59, 61
1, 460855, Control_c, 0, 64, 91
1, 460862, Note_off_c, 0, 71, 52
1, 460869, Note_off_c, 0, 69, 49
1, 460870, Control_c, 0, 64, 91
1, 460884, Control_c, 0, 64, 92
1, 460899, Control_c, 0, 64, 94
1, 460900, Note_on_c, 0, 62, 79
1, 460910, Note_on_c, 0, 50, 70
1, 460914, Control_c, 0, 64, 96
1, 460923, Note_off_c, 0, 62, 67
1, 460928, Control_c, 0, 64, 98
1, 460942, Note_off_c, 0, 50, 64
1, 460963, Note_on_c, 0, 77, 81
1, 460970, Note_on_c, 0, 65, 74
1, 460973, Control_c, 0, 64, 96
1, 460983, Note_off_c, 0, 77, 69
1, 460988, Control_c, 0, 64, 86
1, 460996, Note_off_c, 0, 65, 71
1, 461002, Control_c, 0, 64, 67
1, 461017, Control_c, 0, 64, 0
1, 461044, Note_on_c, 0, 57, 77
1, 461052, Note_on_c, 0, 45, 73
1, 461055, Control_c, 0, 64, 10
1, 461070, Control_c, 0, 64, 63
1, 461077, Note_off_c, 0, 57, 62
1, 461081, Note_off_c, 0, 45, 66
1, 461084, Control_c, 0, 64, 71
1, 461099, Control_c, 0, 64, 80
1, 461114, Control_c, 0, 64, 89
1, 461117, Note_on_c, 0, 60, 62
1, 461118, Note_on_c, 0, 72, 66
1, 461129, Control_c, 0, 64, 93
1, 461136, Note_off_c, 0, 60, 60
1, 461139, Note_off_c, 0, 72, 66
1, 461143, Control_c, 0, 64, 95
1, 461158, Control_c, 0, 64, 98
1, 461173, Control_c, 0, 64, 100
1, 461181, Note_on_c, 0, 51, 83
1, 461182, Note_on_c, 0, 63, 84
1, 461188, Control_c, 0, 64, 102
1, 461204, Note_off_c, 0, 63, 66
1, 461217, Control_c, 0, 64, 101
1, 461229, Note_off_c, 0, 51, 60
1, 461232, Control_c, 0, 64, 97
1, 461241, Note_on_c, 0, 78, 86
1, 461247, Control_c, 0, 64, 85
1, 461249, Note_on_c, 0, 66, 80
1, 461261, Note_off_c, 0, 78, 68
1, 461262, Control_c, 0, 64, 67
1, 461275, Note_off_c, 0, 66, 67
1, 461277, Control_c, 0, 64, 0
1, 461301, Note_on_c, 0, 58, 90
1, 461304, Note_on_c, 0, 46, 88
1, 461306, Control_c, 0, 64, 25
1, 461321, Control_c, 0, 64, 65
1, 461332, Note_off_c, 0, 46, 67
1, 461336, Control_c, 0, 64, 74
1, 461346, Note_off_c, 0, 58, 62
1, 461351, Control_c, 0, 64, 85
1, 461357, Note_on_c, 0, 75, 84
1, 461366, Control_c, 0, 64, 94
1, 461368, Note_on_c, 0, 63, 70
1, 461378, Note_off_c, 0, 75, 71
1, 461381, Control_c, 0, 64, 98
1, 461385, Note_off_c, 0, 63, 66
1, 461396, Control_c, 0, 64, 99
1, 461410, Control_c, 0, 64, 100
1, 461425, Control_c, 0, 64, 100
1, 461432, Note_on_c, 0, 67, 92
1, 461436, Note_on_c, 0, 55, 84
1, 461440, Control_c, 0, 64, 101
1, 461454, Control_c, 0, 64, 101
1, 461463, Note_off_c, 0, 67, 58
1, 461467, Note_off_c, 0, 55, 64
1, 461469, Control_c, 0, 64, 101
1, 461484, Control_c, 0, 64, 100
1, 461489, Note_on_c, 0, 82, 86
1, 461494, Note_on_c, 0, 70, 86
1, 461500, Control_c, 0, 64, 93
1, 461512, Note_off_c, 0, 82, 66
1, 461515, Control_c, 0, 64, 78
1, 461518, Note_off_c, 0, 70, 62
1, 461530, Control_c, 0, 64, 52
1, 461545, Control_c, 0, 64, 0
1, 461556, Note_on_c, 0, 63, 93
1, 461562, Note_on_c, 0, 51, 84
1, 461574, Control_c, 0, 64, 58
1, 461586, Note_off_c, 0, 51, 70
1, 461589, Control_c, 0, 64, 69
1, 461590, Note_off_c, 0, 63, 64
1, 461604, Control_c, 0, 64, 78
1, 461607, Note_on_c, 0, 79, 82
1, 461612, Note_on_c, 0, 67, 83
1, 461619, Control_c, 0, 64, 89
1, 461632, Note_off_c, 0, 67, 69
1, 461633, Control_c, 0, 64, 97
1, 461648, Control_c, 0, 64, 101
1, 461649, Note_off_c, 0, 79, 62
1, 461663, Control_c, 0, 64, 107
1, 461678, Control_c, 0, 64, 112
1, 461687, Note_on_c, 0, 58, 89
1, 461688, Note_on_c, 0, 70, 94
1, 461693, Control_c, 0, 64, 112
1, 461717, Note_off_c, 0, 70, 58
1, 461722, Control_c, 0, 64, 108
1, 461735, Note_off_c, 0, 58, 64
1, 461737, Control_c, 0, 64, 95
1, 461744, Note_on_c, 0, 87, 91
1, 461746, Note_on_c, 0, 75, 95
1, 461751, Control_c, 0, 64, 79
1, 461762, Note_off_c, 0, 87, 70
1, 461766, Control_c, 0, 64, 39
1, 461778, Note_off_c, 0, 75, 66
1, 461789, Control_c, 0, 64, 0
1, 461804, Control_c, 0, 64, 55
1, 461811, Note_on_c, 0, 65, 91
1, 461819, Control_c, 0, 64, 69
1, 461822, Note_on_c, 0, 53, 75
1, 461833, Control_c, 0, 64, 79
1, 461839, Note_off_c, 0, 53, 67
1, 461846, Note_off_c, 0, 65, 65
1, 461848, Control_c, 0, 64, 89
1, 461863, Control_c, 0, 64, 93
1, 461874, Note_on_c, 0, 82, 85
1, 461881, Note_on_c, 0, 70, 80
1, 461887, Note_on_c, 0, 55, 3
1, 461891, Note_off_c, 0, 82, 74
1, 461896, Note_off_c, 0, 70, 69
1, 461899, Note_off_c, 0, 55, 0
1, 461924, Poly_aftertouch_c, 0, 55, 0
1, 461942, Note_on_c, 0, 74, 97
1, 461950, Note_on_c, 0, 62, 79
1, 461976, Note_off_c, 0, 62, 64
1, 461976, Note_off_c, 0, 74, 65
1, 461980, Note_on_c, 0, 70, 27
1, 461986, Note_on_c, 0, 64, 31
1, 461987, Note_off_c, 0, 64, 127
1, 461997, Note_on_c, 0, 77, 91
1, 461998, Note_on_c, 0, 89, 86
1, 462004, Note_off_c, 0, 70, 61
1, 462016, Note_off_c, 0, 89, 72
1, 462024, Note_off_c, 0, 77, 62
1, 462063, Note_on_c, 0, 70, 107
1, 462067, Note_on_c, 0, 58, 93
1, 462086, Note_off_c, 0, 58, 72
1, 462097, Note_off_c, 0, 70, 62
1, 462114, Note_on_c, 0, 74, 87
1, 462117, Note_on_c, 0, 86, 82
1, 462135, Note_off_c, 0, 74, 73
1, 462138, Note_off_c, 0, 86, 67
1, 462191, Note_on_c, 0, 77, 96
1, 462194, Note_on_c, 0, 65, 97
1, 462223, Note_off_c, 0, 77, 62
1, 462228, Note_on_c, 0, 82, 102
1, 462230, Note_on_c, 0, 92, 93
1, 462230, Note_on_c, 0, 94, 93
1, 462236, Note_off_c, 0, 65, 64
1, 462242, Note_off_c, 0, 92, 72
1, 462242, Note_off_c, 0, 82, 73
1, 462246, Note_off_c, 0, 94, 72
1, 462277, Control_c, 0, 64, 94
1, 462292, Control_c, 0, 64, 97
1, 462308, Control_c, 0, 64, 106
1, 462323, Control_c, 0, 64, 127
1, 462427, Control_c, 0, 64, 92
1, 462442, Control_c, 0, 64, 0
1, 462462, Note_on_c, 0, 68, 108
1, 462463, Note_on_c, 0, 56, 105
1, 462501, Control_c, 0, 64, 45
1, 462516, Control_c, 0, 64, 76
1, 462537, Control_c, 0, 64, 92
1, 462552, Control_c, 0, 64, 97
1, 462559, Note_on_c, 0, 74, 78
1, 462582, Control_c, 0, 64, 98
1, 462588, Note_off_c, 0, 74, 62
1, 462639, Note_on_c, 0, 77, 37
1, 462641, Note_off_c, 0, 68, 57
1, 462645, Note_off_c, 0, 56, 60
1, 462663, Note_on_c, 0, 82, 85
1, 462666, Note_off_c, 0, 77, 52
1, 462683, Note_off_c, 0, 82, 67
1, 462715, Control_c, 0, 64, 97
1, 462728, Note_on_c, 0, 67, 84
1, 462728, Note_on_c, 0, 55, 83
1, 462730, Control_c, 0, 64, 93
1, 462742, Note_on_c, 0, 86, 89
1, 462745, Control_c, 0, 64, 80
1, 462749, Note_off_c, 0, 67, 69
1, 462760, Control_c, 0, 64, 56
1, 462761, Note_off_c, 0, 55, 60
1, 462775, Control_c, 0, 64, 0
1, 462787, Note_off_c, 0, 86, 63
1, 462788, Note_on_c, 0, 89, 79
1, 462825, Note_on_c, 0, 94, 82
1, 462832, Note_off_c, 0, 89, 66
1, 462844, Note_on_c, 0, 65, 88
1, 462849, Note_on_c, 0, 53, 80
1, 462855, Note_on_c, 0, 98, 95
1, 462866, Note_off_c, 0, 65, 70
1, 462871, Note_off_c, 0, 94, 65
1, 462874, Note_off_c, 0, 53, 70
1, 462896, Note_off_c, 0, 98, 64
1, 462956, Note_on_c, 0, 70, 90
1, 462957, Note_on_c, 0, 58, 97
1, 462967, Control_c, 0, 64, 58
1, 462972, Note_off_c, 0, 70, 73
1, 462981, Control_c, 0, 64, 79
1, 462996, Control_c, 0, 64, 85
1, 463003, Note_off_c, 0, 58, 62
1, 463011, Control_c, 0, 64, 84
1, 463026, Control_c, 0, 64, 75
1, 463038, Note_on_c, 0, 79, 68
1, 463041, Control_c, 0, 64, 63
1, 463056, Control_c, 0, 64, 0
1, 463078, Note_on_c, 0, 62, 82
1, 463085, Note_off_c, 0, 79, 62
1, 463087, Note_on_c, 0, 82, 73
1, 463089, Note_on_c, 0, 50, 69
1, 463105, Note_off_c, 0, 62, 64
1, 463109, Note_off_c, 0, 50, 62
1, 463134, Note_on_c, 0, 87, 81
1, 463141, Note_off_c, 0, 82, 65
1, 463159, Note_off_c, 0, 87, 67
1, 463196, Note_on_c, 0, 63, 97
1, 463199, Note_on_c, 0, 51, 92
1, 463212, Note_on_c, 0, 91, 87
1, 463250, Control_c, 0, 64, 78
1, 463254, Note_on_c, 0, 94, 85
1, 463254, Note_off_c, 0, 91, 59
1, 463265, Control_c, 0, 64, 99
1, 463286, Control_c, 0, 64, 113
1, 463292, Note_on_c, 0, 99, 84
1, 463314, Note_off_c, 0, 94, 66
1, 463316, Control_c, 0, 64, 113
1, 463327, Note_on_c, 0, 103, 98
1, 463330, Control_c, 0, 64, 114
1, 463344, Note_off_c, 0, 99, 68
1, 463345, Control_c, 0, 64, 119
1, 463360, Control_c, 0, 64, 127
1, 463365, Note_off_c, 0, 103, 65
1, 463384, Note_off_c, 0, 51, 59
1, 463390, Note_off_c, 0, 63, 61
1, 463405, Control_c, 0, 64, 124
1, 463420, Control_c, 0, 64, 101
1, 463434, Control_c, 0, 64, 81
1, 463449, Control_c, 0, 64, 54
1, 463461, Note_on_c, 0, 64, 102
1, 463464, Note_on_c, 0, 52, 101
1, 463464, Control_c, 0, 64, 0
1, 463494, Control_c, 0, 64, 64
1, 463509, Control_c, 0, 64, 73
1, 463524, Control_c, 0, 64, 84
1, 463535, Note_on_c, 0, 70, 68
1, 463538, Control_c, 0, 64, 93
1, 463553, Control_c, 0, 64, 94
1, 463587, Note_off_c, 0, 70, 60
1, 463598, Note_on_c, 0, 73, 67
1, 463601, Note_off_c, 0, 52, 61
1, 463610, Note_off_c, 0, 64, 60
1, 463635, Note_off_c, 0, 73, 62
1, 463644, Note_on_c, 0, 78, 80
1, 463662, Note_off_c, 0, 78, 72
1, 463671, Control_c, 0, 64, 94
1, 463686, Control_c, 0, 64, 86
1, 463701, Control_c, 0, 64, 72
1, 463713, Note_on_c, 0, 63, 85
1, 463715, Note_on_c, 0, 51, 83
1, 463716, Control_c, 0, 64, 0
1, 463718, Note_on_c, 0, 82, 81
1, 463735, Note_off_c, 0, 63, 71
1, 463741, Note_off_c, 0, 51, 64
1, 463760, Note_off_c, 0, 82, 65
1, 463763, Note_on_c, 0, 85, 76
1, 463805, Note_on_c, 0, 90, 71
1, 463816, Note_off_c, 0, 85, 64
1, 463821, Note_on_c, 0, 61, 93
1, 463828, Note_on_c, 0, 49, 81
1, 463835, Note_on_c, 0, 94, 91
1, 463844, Note_off_c, 0, 49, 67
1, 463849, Note_off_c, 0, 61, 62
1, 463849, Note_off_c, 0, 90, 64
1, 463879, Note_off_c, 0, 94, 65
1, 463941, Note_on_c, 0, 54, 87
1, 463941, Note_on_c, 0, 66, 95
1, 463959, Note_off_c, 0, 66, 73
1, 463985, Note_off_c, 0, 54, 61
1, 464011, Note_on_c, 0, 71, 67
1, 464049, Note_off_c, 0, 71, 59
1, 464068, Note_on_c, 0, 58, 83
1, 464069, Note_on_c, 0, 46, 85
1, 464071, Note_on_c, 0, 75, 66
1, 464091, Note_off_c, 0, 75, 60
1, 464095, Note_off_c, 0, 46, 66
1, 464095, Note_off_c, 0, 58, 63
1, 464109, Note_on_c, 0, 78, 84
1, 464127, Note_off_c, 0, 78, 72
1, 464188, Note_on_c, 0, 59, 95
1, 464190, Note_on_c, 0, 47, 92
1, 464190, Note_on_c, 0, 83, 87
1, 464233, Note_off_c, 0, 83, 59
1, 464235, Note_on_c, 0, 87, 87
1, 464259, Note_on_c, 0, 90, 79
1, 464284, Note_off_c, 0, 87, 64
1, 464287, Control_c, 0, 64, 66
1, 464295, Note_on_c, 0, 95, 97
1, 464302, Control_c, 0, 64, 87
1, 464309, Note_off_c, 0, 90, 65
1, 464317, Control_c, 0, 64, 104
1, 464328, Note_off_c, 0, 95, 61
1, 464332, Control_c, 0, 64, 115
1, 464341, Note_off_c, 0, 47, 61
1, 464344, Note_off_c, 0, 59, 61
1, 464347, Control_c, 0, 64, 119
1, 464361, Control_c, 0, 64, 121
1, 464406, Control_c, 0, 64, 113
1, 464420, Control_c, 0, 64, 99
1, 464432, Note_on_c, 0, 60, 109
1, 464435, Note_on_c, 0, 48, 101
1, 464435, Control_c, 0, 64, 82
1, 464450, Control_c, 0, 64, 59
1, 464465, Control_c, 0, 64, 0
1, 464472, Note_on_c, 0, 49, 35
1, 464479, Control_c, 0, 64, 61
1, 464487, Note_on_c, 0, 70, 28
1, 464494, Control_c, 0, 64, 69
1, 464509, Note_off_c, 0, 49, 33
1, 464509, Control_c, 0, 64, 78
1, 464523, Note_off_c, 0, 70, 42
1, 464524, Control_c, 0, 64, 89
1, 464528, Note_on_c, 0, 66, 67
1, 464539, Control_c, 0, 64, 95
1, 464545, Note_off_c, 0, 66, 66
1, 464588, Note_off_c, 0, 60, 54
1, 464592, Note_on_c, 0, 69, 74
1, 464605, Note_off_c, 0, 48, 60
1, 464613, Control_c, 0, 64, 93
1, 464621, Note_off_c, 0, 69, 65
1, 464627, Control_c, 0, 64, 88
1, 464642, Control_c, 0, 64, 76
1, 464643, Note_on_c, 0, 74, 81
1, 464657, Control_c, 0, 64, 57
1, 464672, Control_c, 0, 64, 0
1, 464678, Note_off_c, 0, 74, 65
1, 464681, Note_on_c, 0, 59, 82
1, 464686, Note_on_c, 0, 47, 85
1, 464699, Note_on_c, 0, 78, 77
1, 464712, Note_off_c, 0, 59, 62
1, 464715, Note_off_c, 0, 47, 69
1, 464719, Note_off_c, 0, 78, 67
1, 464758, Note_on_c, 0, 81, 88
1, 464802, Note_off_c, 0, 81, 63
1, 464806, Note_on_c, 0, 57, 85
1, 464806, Note_on_c, 0, 86, 82
1, 464814, Note_on_c, 0, 45, 74
1, 464829, Note_off_c, 0, 57, 68
1, 464833, Note_off_c, 0, 45, 64
1, 464853, Note_on_c, 0, 90, 89
1, 464861, Note_off_c, 0, 86, 66
1, 464892, Note_off_c, 0, 90, 64
1, 464925, Note_on_c, 0, 62, 90
1, 464931, Note_on_c, 0, 50, 80
1, 464946, Note_off_c, 0, 62, 69
1, 464957, Note_off_c, 0, 50, 67
1, 464977, Control_c, 0, 64, 70
1, 464992, Control_c, 0, 64, 78
1, 465007, Control_c, 0, 64, 82
1, 465022, Control_c, 0, 64, 83
1, 465038, Note_on_c, 0, 67, 76
1, 465044, Note_on_c, 0, 54, 93
1, 465047, Note_on_c, 0, 42, 87
1, 465060, Note_off_c, 0, 67, 69
1, 465077, Note_off_c, 0, 42, 64
1, 465079, Note_on_c, 0, 71, 70
1, 465096, Note_off_c, 0, 54, 58
1, 465125, Control_c, 0, 64, 80
1, 465126, Note_off_c, 0, 71, 58
1, 465134, Note_on_c, 0, 74, 78
1, 465140, Control_c, 0, 64, 73
1, 465153, Note_off_c, 0, 74, 74
1, 465155, Control_c, 0, 64, 48
1, 465169, Note_on_c, 0, 55, 99
1, 465169, Control_c, 0, 64, 0
1, 465172, Note_on_c, 0, 43, 92
1, 465202, Note_on_c, 0, 79, 90
1, 465229, Control_c, 0, 64, 47
1, 465235, Note_off_c, 0, 79, 67
1, 465236, Note_on_c, 0, 83, 83
1, 465244, Control_c, 0, 64, 69
1, 465259, Control_c, 0, 64, 82
1, 465270, Note_on_c, 0, 86, 88
1, 465274, Control_c, 0, 64, 103
1, 465288, Note_on_c, 0, 91, 106
1, 465289, Control_c, 0, 64, 127
1, 465291, Note_off_c, 0, 83, 63
1, 465295, Note_off_c, 0, 43, 57
1, 465296, Note_off_c, 0, 55, 58
1, 465305, Note_off_c, 0, 86, 67
1, 465320, Note_off_c, 0, 91, 64
1, 465322, Note_on_c, 0, 88, 35
1, 465323, Note_off_c, 0, 88, 127
1, 465465, Control_c, 0, 64, 122
1, 465480, Control_c, 0, 64, 107
1, 465496, Control_c, 0, 64, 93
1, 465511, Control_c, 0, 64, 74
1, 465533, Control_c, 0, 64, 21
1, 465536, Note_on_c, 0, 56, 75
1, 465543, Note_on_c, 0, 44, 65
1, 465548, Control_c, 0, 64, 0
1, 465578, Control_c, 0, 64, 42
1, 465581, Note_off_c, 0, 44, 63
1, 465593, Control_c, 0, 64, 65
1, 465600, Note_off_c, 0, 56, 62
1, 465607, Control_c, 0, 64, 75
1, 465622, Control_c, 0, 64, 84
1, 465631, Note_on_c, 0, 71, 75
1, 465637, Control_c, 0, 64, 91
1, 465646, Note_on_c, 0, 59, 39
1, 465652, Control_c, 0, 64, 94
1, 465655, Note_off_c, 0, 71, 66
1, 465667, Control_c, 0, 64, 95
1, 465676, Note_off_c, 0, 59, 52
1, 465681, Control_c, 0, 64, 97
1, 465696, Control_c, 0, 64, 99
1, 465706, Note_on_c, 0, 62, 79
1, 465711, Control_c, 0, 64, 100
1, 465715, Note_on_c, 0, 50, 70
1, 465725, Control_c, 0, 64, 101
1, 465728, Note_off_c, 0, 62, 67
1, 465746, Note_off_c, 0, 50, 65
1, 465782, Note_on_c, 0, 77, 77
1, 465786, Note_on_c, 0, 65, 72
1, 465799, Control_c, 0, 64, 97
1, 465801, Note_off_c, 0, 77, 65
1, 465812, Note_off_c, 0, 65, 70
1, 465814, Control_c, 0, 64, 88
1, 465829, Control_c, 0, 64, 73
1, 465843, Note_on_c, 0, 57, 81
1, 465844, Control_c, 0, 64, 10
1, 465851, Note_on_c, 0, 45, 72
1, 465859, Control_c, 0, 64, 0
1, 465870, Note_off_c, 0, 45, 65
1, 465873, Note_off_c, 0, 57, 62
1, 465888, Control_c, 0, 64, 64
1, 465903, Control_c, 0, 64, 71
1, 465918, Control_c, 0, 64, 79
1, 465923, Note_on_c, 0, 60, 65
1, 465927, Note_on_c, 0, 72, 64
1, 465932, Control_c, 0, 64, 86
1, 465941, Note_off_c, 0, 60, 62
1, 465947, Control_c, 0, 64, 91
1, 465950, Note_off_c, 0, 72, 65
1, 465962, Control_c, 0, 64, 95
1, 465977, Control_c, 0, 64, 101
1, 465983, Note_on_c, 0, 51, 85
1, 465990, Note_on_c, 0, 63, 75
1, 465992, Control_c, 0, 64, 105
1, 466006, Note_off_c, 0, 63, 69
1, 466007, Control_c, 0, 64, 105
1, 466034, Note_off_c, 0, 51, 57
1, 466037, Control_c, 0, 64, 104
1, 466052, Control_c, 0, 64, 96
1, 466053, Note_on_c, 0, 78, 85
1, 466060, Note_on_c, 0, 66, 81
1, 466066, Control_c, 0, 64, 82
1, 466071, Note_off_c, 0, 78, 71
1, 466081, Control_c, 0, 64, 63
1, 466083, Note_off_c, 0, 66, 69
1, 466096, Control_c, 0, 64, 0
1, 466108, Note_on_c, 0, 58, 86
1, 466111, Control_c, 0, 64, 55
1, 466112, Note_on_c, 0, 46, 81
1, 466125, Control_c, 0, 64, 69
1, 466133, Note_off_c, 0, 58, 66
1, 466136, Note_off_c, 0, 46, 66
1, 466140, Control_c, 0, 64, 80
1, 466155, Control_c, 0, 64, 93
1, 466169, Note_on_c, 0, 75, 81
1, 466170, Control_c, 0, 64, 103
1, 466185, Control_c, 0, 64, 107
1, 466188, Note_on_c, 0, 63, 52
1, 466190, Note_off_c, 0, 75, 72
1, 466199, Control_c, 0, 64, 109
1, 466210, Note_off_c, 0, 63, 61
1, 466214, Control_c, 0, 64, 110
1, 466236, Note_on_c, 0, 67, 88
1, 466239, Note_on_c, 0, 55, 81
1, 466257, Note_off_c, 0, 67, 66
1, 466274, Note_off_c, 0, 55, 65
1, 466281, Control_c, 0, 64, 103
1, 466296, Control_c, 0, 64, 90
1, 466306, Note_on_c, 0, 82, 85
1, 466310, Note_on_c, 0, 70, 88
1, 466311, Control_c, 0, 64, 73
1, 466324, Note_off_c, 0, 82, 72
1, 466326, Control_c, 0, 64, 24
1, 466330, Note_off_c, 0, 70, 67
1, 466341, Control_c, 0, 64, 0
1, 466356, Control_c, 0, 64, 57
1, 466362, Note_on_c, 0, 63, 98
1, 466368, Note_on_c, 0, 51, 89
1, 466371, Control_c, 0, 64, 71
1, 466386, Control_c, 0, 64, 81
1, 466391, Note_off_c, 0, 51, 70
1, 466400, Control_c, 0, 64, 92
1, 466401, Note_off_c, 0, 63, 64
1, 466415, Control_c, 0, 64, 99
1, 466418, Note_on_c, 0, 79, 84
1, 466421, Note_on_c, 0, 67, 84
1, 466430, Control_c, 0, 64, 104
1, 466439, Note_off_c, 0, 67, 70
1, 466445, Control_c, 0, 64, 108
1, 466453, Note_off_c, 0, 79, 59
1, 466460, Control_c, 0, 64, 113
1, 466475, Control_c, 0, 64, 115
1, 466490, Control_c, 0, 64, 114
1, 466492, Note_on_c, 0, 70, 96
1, 466496, Note_on_c, 0, 58, 87
1, 466504, Control_c, 0, 64, 110
1, 466517, Note_off_c, 0, 70, 61
1, 466519, Control_c, 0, 64, 97
1, 466523, Note_off_c, 0, 58, 66
1, 466534, Control_c, 0, 64, 81
1, 466544, Note_on_c, 0, 87, 92
1, 466548, Control_c, 0, 64, 64
1, 466553, Note_on_c, 0, 75, 89
1, 466563, Control_c, 0, 64, 29
1, 466567, Note_off_c, 0, 87, 64
1, 466574, Note_off_c, 0, 75, 68
1, 466578, Control_c, 0, 64, 63
1, 466593, Control_c, 0, 64, 72
1, 466603, Note_on_c, 0, 67, 92
1, 466608, Control_c, 0, 64, 84
1, 466610, Note_on_c, 0, 55, 85
1, 466622, Control_c, 0, 64, 97
1, 466632, Note_off_c, 0, 55, 71
1, 466637, Control_c, 0, 64, 105
1, 466642, Note_off_c, 0, 67, 62
1, 466652, Control_c, 0, 64, 110
1, 466660, Note_on_c, 0, 82, 94
1, 466666, Note_on_c, 0, 70, 90
1, 466667, Control_c, 0, 64, 113
1, 466679, Note_off_c, 0, 82, 69
1, 466681, Control_c, 0, 64, 114
1, 466682, Note_off_c, 0, 70, 76
1, 466696, Control_c, 0, 64, 114
1, 466711, Control_c, 0, 64, 118
1, 466726, Control_c, 0, 64, 127
1, 466733, Note_on_c, 0, 63, 97
1, 466735, Note_on_c, 0, 75, 88
1, 466754, Note_off_c, 0, 75, 72
1, 466782, Note_off_c, 0, 63, 59
1, 466786, Note_on_c, 0, 79, 89
1, 466787, Note_on_c, 0, 91, 86
1, 466803, Note_off_c, 0, 91, 71
1, 466811, Note_off_c, 0, 79, 64
1, 466847, Note_on_c, 0, 70, 99
1, 466849, Note_on_c, 0, 58, 93
1, 466880, Note_off_c, 0, 58, 60
1, 466886, Note_off_c, 0, 70, 65
1, 466915, Note_on_c, 0, 75, 87
1, 466916, Note_on_c, 0, 87, 91
1, 466933, Note_off_c, 0, 75, 71
1, 466935, Note_off_c, 0, 87, 70
1, 466992, Note_on_c, 0, 79, 89
1, 466993, Note_on_c, 0, 67, 87
1, 467043, Note_off_c, 0, 79, 60
1, 467050, Note_off_c, 0, 67, 55
1, 467059, Control_c, 0, 64, 99
1, 467071, Note_on_c, 0, 94, 84
1, 467074, Control_c, 0, 64, 77
1, 467080, Note_on_c, 0, 82, 77
1, 467089, Control_c, 0, 64, 0
1, 467097, Note_off_c, 0, 94, 65
1, 467098, Note_off_c, 0, 82, 65
1, 467131, Note_on_c, 0, 77, 81
1, 467134, Control_c, 0, 64, 62
1, 467137, Note_on_c, 0, 65, 75
1, 467149, Control_c, 0, 64, 72
1, 467163, Note_off_c, 0, 77, 61
1, 467164, Control_c, 0, 64, 85
1, 467167, Note_off_c, 0, 65, 63
1, 467179, Control_c, 0, 64, 97
1, 467193, Control_c, 0, 64, 103
1, 467197, Note_on_c, 0, 92, 87
1, 467205, Note_on_c, 0, 80, 81
1, 467208, Control_c, 0, 64, 104
1, 467220, Note_off_c, 0, 92, 64
1, 467226, Note_off_c, 0, 80, 69
1, 467267, Note_on_c, 0, 74, 70
1, 467274, Note_on_c, 0, 62, 60
1, 467289, Note_off_c, 0, 74, 72
1, 467295, Note_off_c, 0, 62, 61
1, 467322, Note_on_c, 0, 89, 80
1, 467324, Note_on_c, 0, 77, 79
1, 467342, Note_off_c, 0, 89, 70
1, 467350, Note_off_c, 0, 77, 64
1, 467392, Note_on_c, 0, 58, 81
1, 467395, Note_on_c, 0, 70, 70
1, 467418, Note_off_c, 0, 58, 65
1, 467420, Note_off_c, 0, 70, 68
1, 467445, Control_c, 0, 64, 105
1, 467446, Note_on_c, 0, 86, 84
1, 467451, Note_on_c, 0, 74, 78
1, 467472, Note_off_c, 0, 86, 63
1, 467474, Note_off_c, 0, 74, 69
1, 467504, Control_c, 0, 64, 105
1, 467512, Note_on_c, 0, 56, 82
1, 467512, Note_on_c, 0, 68, 77
1, 467519, Control_c, 0, 64, 108
1, 467534, Control_c, 0, 64, 119
1, 467542, Note_off_c, 0, 68, 63
1, 467548, Note_off_c, 0, 56, 58
1, 467549, Control_c, 0, 64, 127
1, 467578, Note_on_c, 0, 82, 78
1, 467586, Note_on_c, 0, 70, 81
1, 467599, Note_off_c, 0, 82, 70
1, 467610, Note_off_c, 0, 70, 69
1, 467634, Note_on_c, 0, 53, 82
1, 467635, Note_on_c, 0, 65, 77
1, 467638, Control_c, 0, 64, 103
1, 467652, Control_c, 0, 64, 84
1, 467664, Note_off_c, 0, 65, 60
1, 467667, Control_c, 0, 64, 67
1, 467682, Note_on_c, 0, 64, 5
1, 467683, Note_off_c, 0, 64, 127
1, 467683, Note_off_c, 0, 53, 61
1, 467683, Control_c, 0, 64, 38
1, 467692, Note_on_c, 0, 80, 78
1, 467698, Control_c, 0, 64, 57
1, 467699, Note_on_c, 0, 68, 79
1, 467713, Control_c, 0, 64, 67
1, 467715, Note_off_c, 0, 80, 67
1, 467721, Note_off_c, 0, 68, 71
1, 467728, Control_c, 0, 64, 75
1, 467743, Control_c, 0, 64, 84
1, 467758, Control_c, 0, 64, 92
1, 467762, Note_on_c, 0, 62, 81
1, 467774, Note_on_c, 0, 50, 77
1, 467780, Control_c, 0, 64, 95
1, 467795, Control_c, 0, 64, 96
1, 467802, Note_off_c, 0, 62, 58
1, 467805, Note_off_c, 0, 50, 65
1, 467810, Control_c, 0, 64, 97
1, 467823, Note_on_c, 0, 77, 86
1, 467825, Control_c, 0, 64, 97
1, 467826, Note_on_c, 0, 65, 80
1, 467842, Note_off_c, 0, 77, 68
1, 467850, Note_off_c, 0, 65, 69
1, 467869, Control_c, 0, 64, 98
1, 467900, Control_c, 0, 64, 99
1, 467906, Note_on_c, 0, 46, 85
1, 467906, Note_on_c, 0, 58, 81
1, 467915, Control_c, 0, 64, 100
1, 467929, Control_c, 0, 64, 101
1, 467938, Note_off_c, 0, 58, 61
1, 467941, Note_on_c, 0, 74, 84
1, 467945, Note_on_c, 0, 62, 76
1, 467952, Note_off_c, 0, 46, 57
1, 467959, Control_c, 0, 64, 102
1, 467967, Note_off_c, 0, 62, 69
1, 467967, Note_off_c, 0, 74, 61
1, 467974, Control_c, 0, 64, 102
1, 467989, Control_c, 0, 64, 103
1, 468003, Control_c, 0, 64, 104
1, 468018, Control_c, 0, 64, 108
1, 468026, Note_on_c, 0, 56, 82
1, 468032, Note_on_c, 0, 44, 77
1, 468033, Control_c, 0, 64, 118
1, 468048, Control_c, 0, 64, 127
1, 468064, Note_off_c, 0, 56, 62
1, 468065, Note_off_c, 0, 44, 65
1, 468069, Note_on_c, 0, 77, 89
1, 468071, Note_on_c, 0, 65, 84
1, 468093, Note_off_c, 0, 77, 56
1, 468096, Note_off_c, 0, 65, 66
1, 468107, Control_c, 0, 64, 107
1, 468121, Control_c, 0, 64, 90
1, 468136, Control_c, 0, 64, 74
1, 468143, Note_on_c, 0, 53, 84
1, 468151, Note_on_c, 0, 41, 77
1, 468151, Control_c, 0, 64, 53
1, 468165, Note_off_c, 0, 53, 70
1, 468166, Control_c, 0, 64, 0
1, 468181, Control_c, 0, 64, 58
1, 468186, Note_off_c, 0, 41, 66
1, 468193, Note_on_c, 0, 80, 89
1, 468196, Note_on_c, 0, 68, 84
1, 468196, Control_c, 0, 64, 68
1, 468211, Control_c, 0, 64, 76
1, 468214, Note_off_c, 0, 80, 67
1, 468217, Note_off_c, 0, 68, 69
1, 468226, Control_c, 0, 64, 86
1, 468241, Control_c, 0, 64, 92
1, 468256, Control_c, 0, 64, 94
1, 468268, Note_on_c, 0, 50, 81
1, 468270, Control_c, 0, 64, 94
1, 468271, Note_on_c, 0, 38, 79
1, 468285, Control_c, 0, 64, 95
1, 468291, Note_off_c, 0, 50, 68
1, 468300, Control_c, 0, 64, 96
1, 468302, Note_off_c, 0, 38, 63
1, 468314, Note_on_c, 0, 82, 91
1, 468315, Control_c, 0, 64, 96
1, 468321, Note_on_c, 0, 70, 87
1, 468337, Note_off_c, 0, 82, 63
1, 468340, Note_off_c, 0, 70, 72
1, 468389, Note_on_c, 0, 34, 90
1, 468389, Note_on_c, 0, 46, 90
1, 468403, Control_c, 0, 64, 97
1, 468418, Control_c, 0, 64, 98
1, 468431, Note_off_c, 0, 46, 61
1, 468433, Control_c, 0, 64, 102
1, 468435, Note_on_c, 0, 86, 89
1, 468438, Note_off_c, 0, 34, 59
1, 468440, Note_on_c, 0, 74, 84
1, 468447, Control_c, 0, 64, 110
1, 468458, Note_off_c, 0, 74, 73
1, 468462, Control_c, 0, 64, 127
1, 468473, Note_off_c, 0, 86, 61
1, 468476, Control_c, 0, 64, 127
1, 468509, Note_on_c, 0, 45, 88
1, 468518, Note_on_c, 0, 33, 84
1, 468528, Control_c, 0, 64, 118
1, 468543, Control_c, 0, 64, 97
1, 468549, Note_off_c, 0, 33, 65
1, 468549, Note_off_c, 0, 45, 64
1, 468558, Control_c, 0, 64, 77
1, 468562, Note_on_c, 0, 89, 92
1, 468564, Note_on_c, 0, 77, 93
1, 468573, Control_c, 0, 64, 0
1, 468593, Note_off_c, 0, 77, 64
1, 468594, Note_off_c, 0, 89, 63
1, 468632, Control_c, 0, 64, 61
1, 468633, Note_on_c, 0, 44, 86
1, 468636, Note_on_c, 0, 32, 89
1, 468646, Control_c, 0, 64, 71
1, 468661, Control_c, 0, 64, 83
1, 468667, Note_off_c, 0, 44, 65
1, 468676, Control_c, 0, 64, 91
1, 468678, Note_off_c, 0, 32, 61
1, 468688, Note_on_c, 0, 92, 94
1, 468689, Note_on_c, 0, 80, 99
1, 468692, Control_c, 0, 64, 93
1, 468707, Control_c, 0, 64, 94
1, 468712, Note_off_c, 0, 80, 62
1, 468726, Note_off_c, 0, 92, 64
1, 468750, Note_on_c, 0, 43, 87
1, 468751, Control_c, 0, 64, 94
1, 468753, Note_on_c, 0, 31, 85
1, 468766, Control_c, 0, 64, 95
1, 468781, Control_c, 0, 64, 95
1, 468787, Note_off_c, 0, 31, 65
1, 468788, Note_off_c, 0, 43, 61
1, 468796, Control_c, 0, 64, 96
1, 468804, Note_on_c, 0, 94, 103
1, 468812, Note_on_c, 0, 82, 90
1, 468825, Control_c, 0, 64, 96
1, 468828, Note_off_c, 0, 82, 74
1, 468837, Note_off_c, 0, 94, 67
1, 468861, Note_on_c, 0, 29, 87
1, 468861, Note_on_c, 0, 41, 89
1, 468894, Note_off_c, 0, 41, 68
1, 468894, Note_off_c, 0, 29, 65
1, 468920, Note_on_c, 0, 96, 95
1, 468925, Note_on_c, 0, 84, 92
1, 468944, Control_c, 0, 64, 98
1, 468950, Note_off_c, 0, 84, 64
1, 468959, Control_c, 0, 64, 101
1, 468961, Note_off_c, 0, 96, 64
1, 468971, Note_on_c, 0, 92, 14
1, 468974, Control_c, 0, 64, 108
1, 468979, Note_on_c, 0, 34, 77
1, 468987, Note_on_c, 0, 46, 81
1, 468989, Control_c, 0, 64, 117
1, 469004, Control_c, 0, 64, 127
1, 469007, Note_on_c, 0, 44, 52
1, 469013, Note_off_c, 0, 46, 67
1, 469020, Note_off_c, 0, 92, 28
1, 469025, Note_off_c, 0, 44, 65
1, 469037, Note_off_c, 0, 34, 61
1, 469048, Note_on_c, 0, 86, 90
1, 469048, Control_c, 0, 64, 103
1, 469054, Note_on_c, 0, 98, 75
1, 469063, Control_c, 0, 64, 81
1, 469064, Note_on_c, 0, 96, 63
1, 469077, Control_c, 0, 64, 0
1, 469081, Note_off_c, 0, 96, 64
1, 469081, Note_off_c, 0, 98, 67
1, 469082, Note_off_c, 0, 86, 64
1, 469133, Note_on_c, 0, 27, 83
1, 469135, Note_on_c, 0, 39, 86
1, 469137, Control_c, 0, 64, 40
1, 469151, Control_c, 0, 64, 68
1, 469157, Note_off_c, 0, 27, 68
1, 469165, Note_off_c, 0, 39, 63
1, 469166, Control_c, 0, 64, 79
1, 469181, Control_c, 0, 64, 90
1, 469184, Note_on_c, 0, 99, 98
1, 469193, Note_on_c, 0, 87, 82
1, 469196, Control_c, 0, 64, 95
1, 469211, Control_c, 0, 64, 95
1, 469212, Note_off_c, 0, 87, 71
1, 469225, Note_off_c, 0, 99, 68
1, 469262, Note_on_c, 0, 46, 87
1, 469263, Note_on_c, 0, 34, 83
1, 469297, Note_off_c, 0, 46, 66
1, 469300, Note_off_c, 0, 34, 66
1, 469309, Note_on_c, 0, 101, 93
1, 469314, Note_on_c, 0, 94, 84
1, 469314, Note_on_c, 0, 98, 79
1, 469317, Note_on_c, 0, 89, 73
1, 469336, Note_off_c, 0, 94, 68
1, 469338, Note_off_c, 0, 98, 66
1, 469341, Note_off_c, 0, 89, 70
1, 469350, Note_off_c, 0, 101, 64
1, 469396, Control_c, 0, 64, 96
1, 469397, Note_on_c, 0, 51, 90
1, 469397, Note_on_c, 0, 39, 84
1, 469411, Control_c, 0, 64, 97
1, 469420, Note_off_c, 0, 39, 69
1, 469421, Note_off_c, 0, 51, 68
1, 469425, Control_c, 0, 64, 101
1, 469434, Note_on_c, 0, 99, 88
1, 469435, Note_on_c, 0, 103, 92
1, 469439, Note_on_c, 0, 94, 91
1, 469440, Control_c, 0, 64, 108
1, 469441, Note_on_c, 0, 91, 77
1, 469453, Note_off_c, 0, 103, 67
1, 469455, Control_c, 0, 64, 119
1, 469457, Note_off_c, 0, 91, 64
1, 469463, Note_off_c, 0, 94, 65
1, 469467, Note_off_c, 0, 99, 64
1, 469469, Control_c, 0, 64, 127
1, 469521, Note_on_c, 0, 46, 88
1, 469522, Note_on_c, 0, 58, 89
1, 469547, Note_off_c, 0, 46, 66
1, 469548, Note_off_c, 0, 58, 64
1, 469557, Note_on_c, 0, 89, 85
1, 469557, Note_on_c, 0, 98, 84
1, 469558, Note_on_c, 0, 101, 89
1, 469560, Note_on_c, 0, 94, 88
1, 469574, Control_c, 0, 64, 111
1, 469579, Note_off_c, 0, 89, 66
1, 469587, Note_off_c, 0, 98, 63
1, 469589, Control_c, 0, 64, 87
1, 469597, Note_off_c, 0, 94, 64
1, 469601, Note_off_c, 0, 101, 63
1, 469604, Control_c, 0, 64, 52
1, 469619, Control_c, 0, 64, 0
1, 469636, Note_on_c, 0, 51, 86
1, 469639, Note_on_c, 0, 63, 89
1, 469660, Note_off_c, 0, 63, 72
1, 469678, Control_c, 0, 64, 61
1, 469684, Note_off_c, 0, 51, 56
1, 469686, Note_on_c, 0, 99, 90
1, 469686, Note_on_c, 0, 103, 89
1, 469688, Note_on_c, 0, 91, 85
1, 469688, Note_on_c, 0, 94, 93
1, 469692, Control_c, 0, 64, 75
1, 469707, Control_c, 0, 64, 88
1, 469709, Note_off_c, 0, 91, 64
1, 469713, Note_off_c, 0, 103, 57
1, 469715, Note_off_c, 0, 99, 64
1, 469722, Control_c, 0, 64, 97
1, 469728, Note_off_c, 0, 94, 65
1, 469737, Control_c, 0, 64, 98
1, 469752, Control_c, 0, 64, 99
1, 469759, Note_on_c, 0, 46, 94
1, 469765, Note_on_c, 0, 58, 78
1, 469789, Note_off_c, 0, 58, 70
1, 469809, Note_off_c, 0, 46, 56
1, 469809, Note_on_c, 0, 98, 82
1, 469810, Note_on_c, 0, 89, 82
1, 469811, Note_on_c, 0, 94, 85
1, 469812, Control_c, 0, 64, 99
1, 469813, Note_on_c, 0, 101, 80
1, 469834, Note_off_c, 0, 89, 65
1, 469842, Note_off_c, 0, 98, 62
1, 469849, Note_off_c, 0, 101, 60
1, 469853, Note_off_c, 0, 94, 65
1, 469888, Note_on_c, 0, 39, 86
1, 469893, Note_on_c, 0, 51, 80
1, 469920, Note_off_c, 0, 51, 65
1, 469925, Note_off_c, 0, 39, 61
1, 469940, Note_on_c, 0, 94, 91
1, 469943, Note_on_c, 0, 91, 84
1, 469943, Note_on_c, 0, 99, 83
1, 469944, Note_on_c, 0, 103, 89
1, 469945, Control_c, 0, 64, 100
1, 469959, Control_c, 0, 64, 102
1, 469964, Note_off_c, 0, 91, 64
1, 469966, Note_off_c, 0, 103, 62
1, 469967, Note_off_c, 0, 99, 68
1, 469974, Control_c, 0, 64, 107
1, 469982, Note_off_c, 0, 94, 66
1, 469989, Control_c, 0, 64, 113
1, 470004, Control_c, 0, 64, 115
1, 470011, Note_on_c, 0, 34, 89
1, 470020, Note_on_c, 0, 46, 94
1, 470026, Control_c, 0, 64, 116
1, 470041, Control_c, 0, 64, 115
1, 470048, Note_off_c, 0, 34, 68
1, 470051, Note_off_c, 0, 46, 58
1, 470056, Control_c, 0, 64, 106
1, 470071, Note_on_c, 0, 94, 91
1, 470071, Control_c, 0, 64, 87
1, 470071, Note_on_c, 0, 89, 85
1, 470074, Note_on_c, 0, 98, 83
1, 470074, Note_on_c, 0, 101, 84
1, 470086, Control_c, 0, 64, 64
1, 470096, Note_off_c, 0, 89, 64
1, 470100, Control_c, 0, 64, 0
1, 470105, Note_off_c, 0, 98, 62
1, 470106, Note_on_c, 0, 99, 42
1, 470114, Note_off_c, 0, 94, 66
1, 470122, Note_off_c, 0, 101, 66
1, 470136, Note_off_c, 0, 99, 34
1, 470138, Note_on_c, 0, 51, 93
1, 470143, Note_on_c, 0, 39, 80
1, 470145, Control_c, 0, 64, 33
1, 470160, Control_c, 0, 64, 68
1, 470172, Note_off_c, 0, 39, 64
1, 470172, Note_off_c, 0, 51, 63
1, 470174, Control_c, 0, 64, 80
1, 470189, Control_c, 0, 64, 95
1, 470197, Note_on_c, 0, 103, 94
1, 470198, Note_on_c, 0, 94, 93
1, 470198, Note_on_c, 0, 99, 89
1, 470200, Note_on_c, 0, 91, 83
1, 470204, Control_c, 0, 64, 102
1, 470219, Control_c, 0, 64, 102
1, 470221, Note_off_c, 0, 91, 64
1, 470223, Note_off_c, 0, 99, 67
1, 470226, Note_off_c, 0, 103, 56
1, 470234, Control_c, 0, 64, 103
1, 470238, Note_off_c, 0, 94, 67
1, 470271, Note_on_c, 0, 46, 90
1, 470272, Note_on_c, 0, 58, 90
1, 470296, Note_off_c, 0, 58, 66
1, 470300, Note_off_c, 0, 46, 66
1, 470321, Note_on_c, 0, 98, 82
1, 470322, Note_on_c, 0, 89, 83
1, 470324, Note_on_c, 0, 94, 87
1, 470324, Note_on_c, 0, 101, 82
1, 470338, Control_c, 0, 64, 103
1, 470343, Note_off_c, 0, 89, 69
1, 470350, Note_off_c, 0, 98, 63
1, 470357, Note_off_c, 0, 101, 60
1, 470366, Note_off_c, 0, 94, 65
1, 470390, Note_on_c, 0, 51, 90
1, 470395, Note_on_c, 0, 63, 81
1, 470410, Note_off_c, 0, 63, 70
1, 470429, Note_off_c, 0, 51, 43
1, 470442, Control_c, 0, 64, 104
1, 470448, Note_on_c, 0, 94, 89
1, 470449, Note_on_c, 0, 99, 90
1, 470450, Note_on_c, 0, 91, 84
1, 470450, Note_on_c, 0, 103, 87
1, 470457, Control_c, 0, 64, 107
1, 470468, Note_off_c, 0, 91, 66
1, 470468, Note_off_c, 0, 103, 69
1, 470471, Note_off_c, 0, 99, 69
1, 470471, Control_c, 0, 64, 116
1, 470486, Control_c, 0, 64, 127
1, 470490, Note_off_c, 0, 94, 66
1, 470509, Note_on_c, 0, 46, 96
1, 470514, Note_on_c, 0, 58, 81
1, 470539, Note_off_c, 0, 58, 67
1, 470560, Note_off_c, 0, 46, 60
1, 470564, Note_on_c, 0, 94, 86
1, 470566, Note_on_c, 0, 98, 83
1, 470567, Note_on_c, 0, 89, 83
1, 470572, Note_on_c, 0, 101, 83
1, 470588, Note_off_c, 0, 89, 69
1, 470600, Note_off_c, 0, 101, 60
1, 470603, Note_off_c, 0, 98, 62
1, 470605, Control_c, 0, 64, 99
1, 470607, Note_off_c, 0, 94, 66
1, 470619, Control_c, 0, 64, 75
1, 470630, Note_on_c, 0, 39, 89
1, 470633, Note_on_c, 0, 51, 91
1, 470634, Control_c, 0, 64, 0
1, 470661, Note_off_c, 0, 51, 69
1, 470664, Note_off_c, 0, 39, 62
1, 470694, Control_c, 0, 64, 66
1, 470694, Note_on_c, 0, 94, 94
1, 470695, Note_on_c, 0, 99, 87
1, 470696, Note_on_c, 0, 103, 90
1, 470697, Note_on_c, 0, 91, 84
1, 470708, Control_c, 0, 64, 77
1, 470718, Note_off_c, 0, 91, 64
1, 470718, Note_off_c, 0, 103, 61
1, 470721, Note_off_c, 0, 99, 66
1, 470723, Control_c, 0, 64, 90
1, 470735, Note_off_c, 0, 94, 66
1, 470738, Control_c, 0, 64, 97
1, 470751, Note_on_c, 0, 46, 93
1, 470753, Control_c, 0, 64, 99
1, 470754, Note_on_c, 0, 34, 87
1, 470786, Note_off_c, 0, 34, 68
1, 470787, Note_off_c, 0, 46, 62
1, 470789, Control_c, 0, 64, 99
1, 470825, Note_on_c, 0, 98, 88
1, 470825, Note_on_c, 0, 89, 85
1, 470828, Note_on_c, 0, 94, 87
1, 470830, Note_on_c, 0, 101, 82
1, 470849, Note_off_c, 0, 89, 67
1, 470861, Note_off_c, 0, 98, 62
1, 470861, Note_off_c, 0, 101, 62
1, 470869, Note_off_c, 0, 94, 65
1, 470888, Note_on_c, 0, 51, 84
1, 470911, Note_off_c, 0, 51, 70
1, 470923, Control_c, 0, 64, 100
1, 470944, Note_on_c, 0, 94, 85
1, 470946, Note_on_c, 0, 91, 87
1, 470946, Note_on_c, 0, 99, 84
1, 470947, Note_on_c, 0, 103, 83
1, 470957, Poly_aftertouch_c, 0, 40, 127
1, 470967, Note_off_c, 0, 103, 68
1, 470968, Note_off_c, 0, 91, 64
1, 470973, Note_off_c, 0, 99, 66
1, 470987, Note_off_c, 0, 94, 66
1, 470989, Poly_aftertouch_c, 0, 42, 0
1, 470998, Poly_aftertouch_c, 0, 40, 0
1, 471012, Control_c, 0, 64, 101
1, 471023, Note_on_c, 0, 58, 81
1, 471027, Control_c, 0, 64, 105
1, 471029, Note_on_c, 0, 46, 74
1, 471041, Control_c, 0, 64, 116
1, 471048, Note_off_c, 0, 58, 64
1, 471054, Note_off_c, 0, 46, 68
1, 471056, Control_c, 0, 64, 127
1, 471062, Note_on_c, 0, 89, 85
1, 471064, Note_on_c, 0, 94, 81
1, 471064, Note_on_c, 0, 98, 76
1, 471067, Note_on_c, 0, 101, 80
1, 471087, Note_off_c, 0, 89, 65
1, 471093, Note_off_c, 0, 98, 65
1, 471094, Note_off_c, 0, 101, 67
1, 471102, Control_c, 0, 64, 102
1, 471105, Note_off_c, 0, 94, 67
1, 471117, Control_c, 0, 64, 74
1, 471132, Control_c, 0, 64, 0
1, 471167, Note_on_c, 0, 91, 107
1, 471168, Note_on_c, 0, 99, 102
1, 471168, Note_on_c, 0, 103, 101
1, 471168, Note_on_c, 0, 63, 93
1, 471168, Note_on_c, 0, 94, 94
1, 471171, Note_on_c, 0, 51, 84
1, 471176, Control_c, 0, 64, 68
1, 471184, Note_off_c, 0, 103, 72
1, 471185, Note_off_c, 0, 91, 66
1, 471191, Control_c, 0, 64, 92
1, 471202, Note_off_c, 0, 99, 67
1, 471206, Control_c, 0, 64, 127
1, 471210, Note_off_c, 0, 94, 65
1, 471237, Note_off_c, 0, 63, 53
1, 471250, Note_off_c, 0, 51, 55
1, 471365, Note_on_c, 0, 79, 87
1, 471367, Note_on_c, 0, 63, 76
1, 471367, Note_on_c, 0, 67, 88
1, 471371, Note_on_c, 0, 51, 63
1, 471374, Note_on_c, 0, 58, 72
1, 471377, Note_on_c, 0, 55, 64
1, 471381, Note_on_c, 0, 75, 58
1, 471383, Note_on_c, 0, 70, 60
1, 471385, Note_off_c, 0, 79, 68
1, 471386, Note_off_c, 0, 67, 71
1, 471389, Note_off_c, 0, 63, 70
1, 471401, Note_off_c, 0, 58, 67
1, 471402, Note_off_c, 0, 75, 59
1, 471403, Note_off_c, 0, 70, 62
1, 471409, Note_off_c, 0, 51, 60
1, 471409, Note_off_c, 0, 55, 62
1, 471433, Note_on_c, 0, 67, 100
1, 471435, Note_on_c, 0, 79, 97
1, 471437, Note_on_c, 0, 70, 94
1, 471445, Note_on_c, 0, 75, 87
1, 471449, Note_on_c, 0, 63, 77
1, 471452, Note_on_c, 0, 58, 71
1, 471456, Note_on_c, 0, 51, 65
1, 471466, Note_off_c, 0, 75, 69
1, 471467, Note_off_c, 0, 79, 62
1, 471469, Note_on_c, 0, 55, 59
1, 471471, Note_off_c, 0, 67, 57
1, 471474, Note_off_c, 0, 58, 70
1, 471474, Note_off_c, 0, 63, 68
1, 471476, Note_off_c, 0, 70, 65
1, 471496, Note_off_c, 0, 55, 66
1, 471505, Note_off_c, 0, 51, 62
1, 471629, Control_c, 0, 64, 94
1, 471644, Control_c, 0, 64, 72
1, 471645, Note_on_c, 0, 63, 86
1, 471650, Note_on_c, 0, 55, 79
1, 471654, Note_on_c, 0, 51, 77
1, 471654, Note_on_c, 0, 58, 73
1, 471657, Note_on_c, 0, 46, 74
1, 471659, Control_c, 0, 64, 0
1, 471663, Note_on_c, 0, 39, 58
1, 471663, Note_off_c, 0, 63, 73
1, 471666, Note_off_c, 0, 55, 69
1, 471669, Note_off_c, 0, 58, 72
1, 471676, Note_off_c, 0, 51, 70
1, 471678, Note_off_c, 0, 46, 62
1, 471689, Control_c, 0, 64, 59
1, 471704, Control_c, 0, 64, 67
1, 471712, Note_on_c, 0, 55, 92
1, 471715, Note_on_c, 0, 63, 105
1, 471717, Note_off_c, 0, 39, 0
1, 471719, Control_c, 0, 64, 76
1, 471719, Note_on_c, 0, 58, 82
1, 471725, Note_on_c, 0, 39, 66
1, 471728, Note_on_c, 0, 51, 80
1, 471734, Control_c, 0, 64, 88
1, 471738, Note_on_c, 0, 46, 79
1, 471739, Note_on_c, 0, 57, 65
1, 471740, Note_off_c, 0, 55, 64
1, 471740, Note_off_c, 0, 58, 58
1, 471748, Control_c, 0, 64, 95
1, 471755, Note_on_c, 0, 62, 45
1, 471756, Note_off_c, 0, 51, 62
1, 471758, Note_off_c, 0, 57, 63
1, 471761, Note_off_c, 0, 46, 67
1, 471763, Control_c, 0, 64, 98
1, 471767, Note_off_c, 0, 63, 66
1, 471769, Note_off_c, 0, 39, 62
1, 471778, Control_c, 0, 64, 99
1, 471784, Note_off_c, 0, 62, 51
1, 471793, Control_c, 0, 64, 99
1, 471837, Control_c, 0, 64, 100
1, 471866, Control_c, 0, 64, 100
1, 471881, Control_c, 0, 64, 102
1, 471897, Poly_aftertouch_c, 0, 46, 0
1, 471897, Control_c, 0, 64, 103
1, 471912, Control_c, 0, 64, 106
1, 471926, Note_on_c, 0, 82, 96
1, 471927, Control_c, 0, 64, 108
1, 471929, Note_on_c, 0, 70, 87
1, 471931, Note_on_c, 0, 67, 82
1, 471933, Note_on_c, 0, 75, 80
1, 471934, Note_on_c, 0, 63, 74
1, 471938, Note_on_c, 0, 55, 67
1, 471941, Note_off_c, 0, 82, 73
1, 471942, Control_c, 0, 64, 110
1, 471946, Note_off_c, 0, 70, 74
1, 471949, Note_on_c, 0, 58, 58
1, 471953, Note_off_c, 0, 67, 69
1, 471954, Note_off_c, 0, 75, 69
1, 471957, Control_c, 0, 64, 113
1, 471959, Note_off_c, 0, 63, 67
1, 471969, Note_off_c, 0, 58, 65
1, 471971, Control_c, 0, 64, 116
1, 471986, Control_c, 0, 64, 121
1, 471991, Note_on_c, 0, 82, 109
1, 471991, Note_on_c, 0, 70, 103
1, 471994, Note_on_c, 0, 75, 96
1, 472001, Control_c, 0, 64, 127
1, 472006, Note_on_c, 0, 67, 87
1, 472006, Note_on_c, 0, 63, 95
1, 472021, Note_on_c, 0, 58, 66
1, 472023, Note_off_c, 0, 67, 69
1, 472038, Note_off_c, 0, 70, 56
1, 472038, Note_off_c, 0, 75, 62
1, 472039, Note_off_c, 0, 82, 62
1, 472053, Note_off_c, 0, 63, 64
1, 472057, Note_off_c, 0, 58, 61
1, 472065, Note_off_c, 0, 55, 60
1, 472283, Note_on_c, 0, 63, 95
1, 472288, Note_on_c, 0, 55, 87
1, 472291, Note_on_c, 0, 51, 89
1, 472295, Note_on_c, 0, 58, 71
1, 472295, Note_on_c, 0, 39, 71
1, 472298, Note_off_c, 0, 63, 74
1, 472308, Note_off_c, 0, 55, 69
1, 472310, Note_off_c, 0, 51, 71
1, 472315, Note_off_c, 0, 58, 66
1, 472319, Control_c, 0, 64, 127
1, 472329, Note_off_c, 0, 39, 63
1, 472333, Control_c, 0, 64, 97
1, 472348, Control_c, 0, 64, 73
1, 472351, Note_on_c, 0, 63, 111
1, 472353, Note_on_c, 0, 55, 106
1, 472359, Note_on_c, 0, 58, 97
1, 472361, Note_on_c, 0, 51, 93
1, 472363, Control_c, 0, 64, 0
1, 472367, Note_on_c, 0, 39, 90
1, 472369, Note_on_c, 0, 46, 93
1, 472379, Note_off_c, 0, 55, 71
1, 472400, Note_off_c, 0, 51, 61
1, 472408, Note_off_c, 0, 58, 66
1, 472408, Control_c, 0, 64, 59
1, 472409, Note_off_c, 0, 63, 61
1, 472416, Note_off_c, 0, 39, 57
1, 472422, Note_off_c, 0, 46, 62
1, 472423, Control_c, 0, 64, 72
1, 472438, Control_c, 0, 64, 83
1, 472452, Control_c, 0, 64, 95
1, 472467, Control_c, 0, 64, 100
1, 472482, Control_c, 0, 64, 101
1, 472526, Control_c, 0, 64, 101
1, 472570, Control_c, 0, 64, 102
1, 472585, Control_c, 0, 64, 104
1, 472600, Control_c, 0, 64, 107
1, 472615, Control_c, 0, 64, 109
1, 472630, Control_c, 0, 64, 111
1, 472644, Control_c, 0, 64, 112
1, 472659, Control_c, 0, 64, 114
1, 472674, Control_c, 0, 64, 115
1, 472690, Control_c, 0, 64, 117
1, 472705, Control_c, 0, 64, 117
1, 472719, Control_c, 0, 64, 118
1, 472749, Control_c, 0, 64, 118
1, 472758, Note_on_c, 0, 80, 40
1, 472785, Note_off_c, 0, 80, 57
1, 472849, Note_on_c, 0, 87, 115
1, 472852, Note_on_c, 0, 75, 104
1, 472852, Note_on_c, 0, 79, 96
1, 472854, Note_on_c, 0, 63, 102
1, 472855, Note_on_c, 0, 67, 101
1, 472858, Note_on_c, 0, 55, 91
1, 472861, Note_on_c, 0, 58, 93
1, 472880, Note_off_c, 0, 75, 72
1, 472890, Note_off_c, 0, 67, 65
1, 472891, Note_off_c, 0, 79, 66
1, 472894, Note_on_c, 0, 85, 27
1, 472900, Note_off_c, 0, 55, 65
1, 472903, Note_off_c, 0, 87, 64
1, 472910, Note_off_c, 0, 58, 63
1, 472912, Note_off_c, 0, 63, 63
1, 472930, Note_off_c, 0, 85, 31
1, 473142, Control_c, 0, 64, 119
1, 473187, Control_c, 0, 64, 119
1, 473246, Control_c, 0, 64, 120
1, 473261, Control_c, 0, 64, 120
1, 473275, Control_c, 0, 64, 121
1, 473290, Control_c, 0, 64, 122
1, 473305, Control_c, 0, 64, 122
1, 473320, Control_c, 0, 64, 123
1, 473335, Control_c, 0, 64, 125
1, 473350, Control_c, 0, 64, 127
1, 473630, Note_on_c, 0, 90, 6
1, 473687, Note_off_c, 0, 90, 31
1, 473703, Note_on_c, 0, 99, 110
1, 473705, Note_on_c, 0, 87, 111
1, 473706, Note_on_c, 0, 91, 99
1, 473710, Note_on_c, 0, 67, 90
1, 473711, Note_on_c, 0, 75, 106
1, 473711, Note_on_c, 0, 79, 108
1, 473716, Note_on_c, 0, 97, 86
1, 473717, Note_on_c, 0, 70, 96
1, 473733, Note_off_c, 0, 87, 71
1, 473735, Note_off_c, 0, 97, 71
1, 473738, Note_off_c, 0, 79, 70
1, 473738, Note_off_c, 0, 91, 65
1, 473742, Note_off_c, 0, 99, 71
1, 473743, Note_off_c, 0, 67, 66
1, 473750, Note_off_c, 0, 75, 68
1, 473752, Note_off_c, 0, 70, 65
1, 475745, Control_c, 0, 64, 107
1, 475760, Control_c, 0, 64, 88
1, 475775, Control_c, 0, 64, 62
1, 475789, Control_c, 0, 64, 0
1, 475789, End_track
0, 0, End_of_file
