0, 0, Header, 0, 1, 384
1, 0, Start_track
1, 0, Title_t, "Impromptu Op. 90/4-Nansong Huang"
1, 0, Text_t, "2008 e-Piano Junior Competition recital round"
1, 0, Text_t, "recorded July 2008"
1, 0, Text_t, "http://www.piano-e-competition.com/"
1, 0, Text_t, "File processed for distribution by software from Zenph Studios, Inc., http://www.zenph.com"
1, 0, Instrument_name_t, "Yamaha Disklavier Pro Mark IV concert grand piano, model DCFIIISM4PRO"
1, 0, Sequencer_specific, 39, 67, 113, 0, 1, 0, 1, 0, 73, 109, 112, 114, 111, 109, 112, 116, 117, 79, 112, 46, 57, 48, 47, 52, 78, 97, 110, 115, 111, 110, 103, 32, 72, 117, 97, 110, 103, 32, 32, 32
1, 0, Sequencer_specific, 6, 67, 113, 0, 0, 0, 69
1, 0, System_exclusive, 21, 67, 113, 126, 21, 0, 2, 2, 0, 3, 14, 1, 4, 1, 13, 13, 10, 11, 9, 2, 7, 247
1, 0, Sequencer_specific, 5, 67, 123, 12, 2, 1
1, 0, Tempo, 512820
1, 0, Time_signature, 4, 2, 24, 8
1, 0, System_exclusive, 5, 126, 127, 9, 1, 247
1, 1, System_exclusive, 8, 67, 16, 76, 0, 0, 126, 0, 247
1, 2, System_exclusive, 8, 67, 16, 76, 8, 9, 7, 1, 247
1, 3, Control_c, 0, 0, 0
1, 3, Control_c, 1, 0, 0
1, 3, Control_c, 2, 0, 0
1, 3, Control_c, 3, 0, 0
1, 3, Control_c, 4, 0, 0
1, 3, Control_c, 5, 0, 0
1, 3, Control_c, 6, 0, 0
1, 3, Control_c, 7, 0, 0
1, 3, Control_c, 8, 0, 0
1, 3, Control_c, 9, 0, 127
1, 3, Control_c, 10, 0, 0
1, 3, Control_c, 11, 0, 0
1, 3, Control_c, 12, 0, 0
1, 3, Control_c, 13, 0, 0
1, 3, Control_c, 14, 0, 0
1, 3, Control_c, 15, 0, 0
1, 4, Control_c, 0, 32, 0
1, 4, Control_c, 1, 32, 0
1, 4, Control_c, 2, 32, 0
1, 4, Control_c, 3, 32, 0
1, 4, Control_c, 4, 32, 0
1, 4, Control_c, 5, 32, 0
1, 4, Control_c, 6, 32, 0
1, 4, Control_c, 7, 32, 0
1, 4, Control_c, 8, 32, 0
1, 4, Control_c, 9, 32, 0
1, 4, Control_c, 10, 32, 0
1, 4, Control_c, 11, 32, 0
1, 4, Control_c, 12, 32, 0
1, 4, Control_c, 13, 32, 0
1, 4, Control_c, 14, 32, 0
1, 4, Control_c, 15, 32, 0
1, 5, Program_c, 0, 0
1, 5, Program_c, 1, 0
1, 5, Program_c, 2, 0
1, 5, Program_c, 3, 0
1, 5, Program_c, 4, 0
1, 5, Program_c, 5, 0
1, 5, Program_c, 6, 0
1, 5, Program_c, 7, 0
1, 5, Program_c, 8, 0
1, 5, Program_c, 9, 0
1, 5, Program_c, 10, 0
1, 5, Program_c, 11, 0
1, 5, Program_c, 12, 0
1, 5, Program_c, 13, 0
1, 5, Program_c, 14, 0
1, 5, Program_c, 15, 0
1, 6, Control_c, 0, 7, 100
1, 6, Control_c, 1, 7, 100
1, 6, Control_c, 2, 7, 100
1, 6, Control_c, 3, 7, 100
1, 6, Control_c, 4, 7, 100
1, 6, Control_c, 5, 7, 100
1, 6, Control_c, 6, 7, 100
1, 6, Control_c, 7, 7, 100
1, 6, Control_c, 8, 7, 100
1, 6, Control_c, 9, 7, 100
1, 6, Control_c, 10, 7, 100
1, 6, Control_c, 11, 7, 100
1, 6, Control_c, 12, 7, 100
1, 6, Control_c, 13, 7, 100
1, 6, Control_c, 14, 7, 100
1, 6, Control_c, 15, 7, 100
1, 117, Control_c, 0, 64, 10
1, 117, Control_c, 0, 67, 15
1, 229, Control_c, 0, 64, 21
1, 229, Control_c, 0, 67, 31
1, 341, Control_c, 0, 64, 31
1, 341, Control_c, 0, 67, 46
1, 452, Control_c, 0, 64, 42
1, 452, Control_c, 0, 67, 63
1, 564, Control_c, 0, 64, 52
1, 564, Control_c, 0, 67, 77
1, 676, Control_c, 0, 64, 63
1, 676, Control_c, 0, 67, 94
1, 787, Control_c, 0, 64, 73
1, 787, Control_c, 0, 67, 108
1, 899, Control_c, 0, 64, 85
1, 899, Control_c, 0, 67, 127
1, 1131, Note_on_c, 0, 83, 44
1, 1132, Control_c, 0, 64, 86
1, 1132, Note_on_c, 0, 44, 40
1, 1187, Note_off_c, 0, 44, 61
1, 1231, Note_off_c, 0, 83, 55
1, 1259, Note_on_c, 0, 87, 44
1, 1335, Note_off_c, 0, 87, 53
1, 1353, Note_on_c, 0, 83, 53
1, 1401, Note_off_c, 0, 83, 56
1, 1422, Note_on_c, 0, 80, 59
1, 1462, Note_off_c, 0, 80, 51
1, 1524, Note_on_c, 0, 80, 55
1, 1532, Note_on_c, 0, 63, 47
1, 1534, Note_on_c, 0, 56, 45
1, 1552, Note_on_c, 0, 59, 17
1, 1582, Note_off_c, 0, 63, 0
1, 1582, Note_on_c, 0, 63, 19
1, 1606, Note_off_c, 0, 80, 64
1, 1608, Note_on_c, 0, 83, 69
1, 1684, Note_off_c, 0, 83, 60
1, 1693, Note_on_c, 0, 80, 65
1, 1747, Note_off_c, 0, 80, 62
1, 1748, Control_c, 0, 64, 85
1, 1779, Note_on_c, 0, 75, 66
1, 1812, Note_off_c, 0, 75, 62
1, 1836, Control_c, 0, 64, 85
1, 1866, Note_on_c, 0, 75, 62
1, 1866, Control_c, 0, 64, 84
1, 1896, Control_c, 0, 64, 84
1, 1940, Control_c, 0, 64, 83
1, 1944, Note_off_c, 0, 75, 64
1, 1946, Note_on_c, 0, 80, 69
1, 1955, Control_c, 0, 64, 83
1, 2000, Control_c, 0, 64, 82
1, 2030, Control_c, 0, 64, 82
1, 2032, Note_on_c, 0, 75, 70
1, 2039, Note_off_c, 0, 80, 61
1, 2074, Control_c, 0, 64, 81
1, 2101, Note_off_c, 0, 75, 65
1, 2104, Control_c, 0, 64, 81
1, 2115, Note_on_c, 0, 71, 67
1, 2118, Control_c, 0, 64, 80
1, 2133, Control_c, 0, 64, 80
1, 2148, Control_c, 0, 64, 79
1, 2155, Note_off_c, 0, 71, 59
1, 2162, Control_c, 0, 64, 78
1, 2178, Control_c, 0, 64, 77
1, 2193, Control_c, 0, 64, 76
1, 2208, Control_c, 0, 64, 74
1, 2211, Note_on_c, 0, 71, 55
1, 2223, Control_c, 0, 64, 72
1, 2238, Control_c, 0, 64, 69
1, 2252, Control_c, 0, 64, 66
1, 2267, Control_c, 0, 64, 64
1, 2282, Control_c, 0, 64, 60
1, 2290, Note_off_c, 0, 71, 60
1, 2297, Control_c, 0, 64, 59
1, 2305, Note_on_c, 0, 75, 60
1, 2363, Note_off_c, 0, 75, 63
1, 2371, Control_c, 0, 64, 58
1, 2372, Note_on_c, 0, 71, 60
1, 2385, Control_c, 0, 64, 57
1, 2400, Control_c, 0, 64, 57
1, 2414, Control_c, 0, 64, 56
1, 2428, Note_off_c, 0, 71, 59
1, 2429, Control_c, 0, 64, 55
1, 2444, Control_c, 0, 64, 54
1, 2462, Note_on_c, 0, 68, 66
1, 2466, Control_c, 0, 64, 52
1, 2481, Control_c, 0, 64, 49
1, 2496, Control_c, 0, 64, 45
1, 2500, Note_off_c, 0, 68, 62
1, 2511, Control_c, 0, 64, 36
1, 2526, Control_c, 0, 64, 11
1, 2540, Control_c, 0, 64, 0
1, 2545, Note_on_c, 0, 68, 52
1, 2611, Note_off_c, 0, 59, 48
1, 2619, Note_off_c, 0, 63, 45
1, 2620, Note_off_c, 0, 68, 63
1, 2626, Note_on_c, 0, 71, 68
1, 2678, Note_off_c, 0, 56, 55
1, 2702, Note_off_c, 0, 71, 60
1, 2716, Note_on_c, 0, 68, 62
1, 2757, Note_off_c, 0, 68, 63
1, 2794, Note_on_c, 0, 63, 57
1, 2833, Note_off_c, 0, 63, 64
1, 2885, Note_on_c, 0, 70, 56
1, 2893, Note_on_c, 0, 67, 48
1, 2902, Note_on_c, 0, 58, 45
1, 2914, Note_on_c, 0, 51, 44
1, 2935, Note_on_c, 0, 63, 35
1, 2959, Note_off_c, 0, 67, 55
1, 2970, Control_c, 0, 64, 16
1, 2973, Note_off_c, 0, 58, 59
1, 2985, Note_off_c, 0, 63, 49
1, 2986, Control_c, 0, 64, 64
1, 3000, Control_c, 0, 64, 69
1, 3015, Control_c, 0, 64, 72
1, 3022, Note_off_c, 0, 51, 62
1, 3022, Note_off_c, 0, 70, 58
1, 3030, Control_c, 0, 64, 75
1, 3045, Control_c, 0, 64, 78
1, 3060, Control_c, 0, 64, 80
1, 3074, Control_c, 0, 64, 81
1, 3089, Control_c, 0, 64, 81
1, 3119, Control_c, 0, 64, 82
1, 3148, Control_c, 0, 64, 82
1, 3163, Control_c, 0, 64, 83
1, 3178, Control_c, 0, 64, 83
1, 3193, Control_c, 0, 64, 84
1, 3245, Control_c, 0, 64, 83
1, 3260, Control_c, 0, 64, 83
1, 3275, Control_c, 0, 64, 79
1, 3289, Control_c, 0, 64, 72
1, 3304, Control_c, 0, 64, 61
1, 3308, Note_on_c, 0, 44, 47
1, 3319, Control_c, 0, 64, 0
1, 3338, Note_on_c, 0, 83, 58
1, 3348, Control_c, 0, 64, 55
1, 3363, Control_c, 0, 64, 66
1, 3378, Control_c, 0, 64, 71
1, 3393, Control_c, 0, 64, 76
1, 3407, Control_c, 0, 64, 80
1, 3410, Note_off_c, 0, 44, 60
1, 3422, Control_c, 0, 64, 81
1, 3435, Note_off_c, 0, 83, 59
1, 3437, Control_c, 0, 64, 82
1, 3439, Note_on_c, 0, 87, 63
1, 3452, Control_c, 0, 64, 82
1, 3481, Control_c, 0, 64, 83
1, 3496, Control_c, 0, 64, 83
1, 3523, Note_off_c, 0, 87, 60
1, 3528, Note_on_c, 0, 83, 63
1, 3571, Control_c, 0, 64, 84
1, 3586, Note_off_c, 0, 83, 57
1, 3599, Note_on_c, 0, 80, 73
1, 3641, Note_off_c, 0, 80, 60
1, 3645, Control_c, 0, 64, 83
1, 3668, Note_on_c, 0, 59, 50
1, 3669, Note_on_c, 0, 56, 48
1, 3670, Note_on_c, 0, 63, 52
1, 3674, Control_c, 0, 64, 81
1, 3689, Control_c, 0, 64, 77
1, 3690, Note_on_c, 0, 80, 53
1, 3704, Control_c, 0, 64, 69
1, 3718, Note_off_c, 0, 63, 0
1, 3718, Note_on_c, 0, 63, 7
1, 3719, Control_c, 0, 64, 50
1, 3733, Control_c, 0, 64, 0
1, 3748, Control_c, 0, 64, 34
1, 3763, Control_c, 0, 64, 55
1, 3769, Note_off_c, 0, 80, 64
1, 3774, Note_on_c, 0, 83, 73
1, 3779, Control_c, 0, 64, 63
1, 3794, Control_c, 0, 64, 66
1, 3809, Control_c, 0, 64, 69
1, 3823, Control_c, 0, 64, 70
1, 3838, Control_c, 0, 64, 71
1, 3854, Note_off_c, 0, 83, 60
1, 3866, Note_on_c, 0, 80, 68
1, 3868, Control_c, 0, 64, 71
1, 3883, Control_c, 0, 64, 72
1, 3902, Note_off_c, 0, 80, 61
1, 3911, Control_c, 0, 64, 72
1, 3931, Note_on_c, 0, 75, 71
1, 3971, Note_off_c, 0, 75, 65
1, 4008, Control_c, 0, 64, 72
1, 4022, Note_on_c, 0, 75, 63
1, 4023, Control_c, 0, 64, 71
1, 4037, Control_c, 0, 64, 71
1, 4052, Control_c, 0, 64, 69
1, 4067, Control_c, 0, 64, 66
1, 4082, Control_c, 0, 64, 64
1, 4097, Control_c, 0, 64, 62
1, 4107, Note_off_c, 0, 75, 65
1, 4108, Note_on_c, 0, 80, 70
1, 4111, Control_c, 0, 64, 61
1, 4126, Control_c, 0, 64, 60
1, 4141, Control_c, 0, 64, 58
1, 4155, Control_c, 0, 64, 55
1, 4170, Control_c, 0, 64, 54
1, 4185, Control_c, 0, 64, 53
1, 4191, Note_on_c, 0, 75, 65
1, 4194, Note_off_c, 0, 80, 61
1, 4200, Control_c, 0, 64, 52
1, 4215, Control_c, 0, 64, 49
1, 4229, Control_c, 0, 64, 45
1, 4244, Control_c, 0, 64, 40
1, 4256, Note_off_c, 0, 75, 64
1, 4259, Control_c, 0, 64, 34
1, 4272, Note_on_c, 0, 71, 69
1, 4274, Control_c, 0, 64, 22
1, 4289, Control_c, 0, 64, 0
1, 4301, Note_off_c, 0, 71, 62
1, 4368, Note_on_c, 0, 71, 57
1, 4435, Note_off_c, 0, 71, 60
1, 4447, Note_on_c, 0, 75, 64
1, 4495, Note_off_c, 0, 75, 61
1, 4528, Note_on_c, 0, 71, 60
1, 4572, Note_off_c, 0, 71, 56
1, 4604, Note_on_c, 0, 68, 68
1, 4634, Note_off_c, 0, 68, 65
1, 4700, Note_on_c, 0, 68, 59
1, 4755, Note_off_c, 0, 59, 57
1, 4771, Note_off_c, 0, 68, 64
1, 4781, Note_on_c, 0, 71, 67
1, 4806, Note_off_c, 0, 63, 52
1, 4844, Note_off_c, 0, 56, 51
1, 4850, Note_off_c, 0, 71, 61
1, 4867, Note_on_c, 0, 68, 62
1, 4911, Note_off_c, 0, 68, 63
1, 4951, Note_on_c, 0, 63, 47
1, 4987, Note_off_c, 0, 63, 54
1, 5059, Note_on_c, 0, 67, 43
1, 5061, Note_on_c, 0, 70, 58
1, 5073, Note_on_c, 0, 58, 35
1, 5079, Note_on_c, 0, 51, 36
1, 5106, Note_on_c, 0, 63, 29
1, 5186, Control_c, 0, 64, 46
1, 5192, Note_off_c, 0, 58, 54
1, 5199, Note_off_c, 0, 67, 42
1, 5201, Control_c, 0, 64, 66
1, 5215, Note_off_c, 0, 63, 47
1, 5216, Control_c, 0, 64, 70
1, 5231, Control_c, 0, 64, 73
1, 5238, Note_off_c, 0, 51, 34
1, 5241, Note_off_c, 0, 70, 63
1, 5245, Control_c, 0, 64, 74
1, 5260, Control_c, 0, 64, 74
1, 5290, Control_c, 0, 67, 120
1, 5304, Control_c, 0, 67, 111
1, 5319, Control_c, 0, 67, 103
1, 5334, Control_c, 0, 67, 94
1, 5349, Control_c, 0, 67, 89
1, 5364, Control_c, 0, 64, 74
1, 5364, Control_c, 0, 67, 84
1, 5380, Control_c, 0, 64, 73
1, 5380, Control_c, 0, 67, 80
1, 5394, Control_c, 0, 64, 71
1, 5394, Control_c, 0, 67, 76
1, 5409, Control_c, 0, 64, 66
1, 5409, Control_c, 0, 67, 71
1, 5424, Control_c, 0, 64, 52
1, 5424, Control_c, 0, 67, 65
1, 5439, Control_c, 0, 64, 0
1, 5439, Control_c, 0, 67, 61
1, 5461, Control_c, 0, 67, 56
1, 5467, Note_on_c, 0, 71, 62
1, 5475, Control_c, 0, 67, 52
1, 5481, Note_on_c, 0, 68, 50
1, 5483, Note_on_c, 0, 56, 43
1, 5490, Control_c, 0, 67, 48
1, 5492, Note_on_c, 0, 59, 38
1, 5500, Note_on_c, 0, 63, 42
1, 5505, Control_c, 0, 67, 43
1, 5520, Control_c, 0, 67, 38
1, 5535, Control_c, 0, 64, 49
1, 5535, Control_c, 0, 67, 33
1, 5550, Control_c, 0, 64, 66
1, 5550, Control_c, 0, 67, 28
1, 5565, Control_c, 0, 64, 70
1, 5565, Control_c, 0, 67, 23
1, 5580, Control_c, 0, 64, 73
1, 5580, Control_c, 0, 67, 18
1, 5594, Note_off_c, 0, 68, 60
1, 5595, Control_c, 0, 64, 77
1, 5595, Control_c, 0, 67, 14
1, 5609, Control_c, 0, 64, 79
1, 5609, Control_c, 0, 67, 9
1, 5614, Note_off_c, 0, 71, 61
1, 5624, Control_c, 0, 64, 80
1, 5624, Control_c, 0, 67, 0
1, 5636, Note_off_c, 0, 59, 38
1, 5639, Control_c, 0, 64, 81
1, 5654, Control_c, 0, 64, 81
1, 5665, Note_off_c, 0, 63, 39
1, 5713, Control_c, 0, 64, 82
1, 5750, Note_off_c, 0, 56, 15
1, 5846, Control_c, 0, 64, 81
1, 5854, Note_on_c, 0, 76, 72
1, 5861, Control_c, 0, 64, 77
1, 5865, Note_on_c, 0, 70, 59
1, 5870, Note_on_c, 0, 58, 46
1, 5875, Control_c, 0, 64, 71
1, 5876, Note_on_c, 0, 67, 47
1, 5878, Note_on_c, 0, 64, 46
1, 5880, Note_on_c, 0, 51, 43
1, 5890, Control_c, 0, 64, 56
1, 5905, Control_c, 0, 64, 0
1, 5963, Note_off_c, 0, 67, 0
1, 5963, Note_on_c, 0, 67, 14
1, 5979, Control_c, 0, 64, 37
1, 5994, Control_c, 0, 64, 62
1, 6009, Control_c, 0, 64, 67
1, 6024, Control_c, 0, 64, 70
1, 6039, Control_c, 0, 64, 74
1, 6054, Control_c, 0, 64, 77
1, 6068, Control_c, 0, 64, 79
1, 6078, Note_off_c, 0, 51, 37
1, 6083, Control_c, 0, 64, 80
1, 6096, Note_off_c, 0, 64, 49
1, 6098, Control_c, 0, 64, 80
1, 6101, Note_off_c, 0, 70, 53
1, 6113, Control_c, 0, 64, 81
1, 6116, Note_off_c, 0, 67, 43
1, 6118, Note_off_c, 0, 76, 61
1, 6127, Control_c, 0, 64, 82
1, 6131, Note_off_c, 0, 58, 32
1, 6142, Control_c, 0, 64, 82
1, 6157, Control_c, 0, 64, 83
1, 6173, Control_c, 0, 64, 84
1, 6251, Note_on_c, 0, 76, 79
1, 6254, Control_c, 0, 64, 81
1, 6269, Note_on_c, 0, 67, 53
1, 6269, Control_c, 0, 64, 76
1, 6270, Note_on_c, 0, 70, 54
1, 6279, Note_on_c, 0, 58, 44
1, 6284, Control_c, 0, 64, 66
1, 6297, Note_on_c, 0, 51, 28
1, 6299, Control_c, 0, 64, 0
1, 6332, Poly_aftertouch_c, 0, 64, 127
1, 6352, Note_off_c, 0, 70, 0
1, 6352, Note_on_c, 0, 70, 17
1, 6358, Control_c, 0, 64, 60
1, 6373, Control_c, 0, 64, 66
1, 6388, Control_c, 0, 64, 69
1, 6403, Control_c, 0, 64, 71
1, 6418, Control_c, 0, 64, 74
1, 6432, Control_c, 0, 64, 77
1, 6447, Control_c, 0, 64, 78
1, 6462, Note_off_c, 0, 51, 39
1, 6462, Control_c, 0, 64, 79
1, 6468, Note_off_c, 0, 67, 40
1, 6477, Note_off_c, 0, 76, 56
1, 6477, Control_c, 0, 64, 80
1, 6492, Control_c, 0, 64, 80
1, 6498, Poly_aftertouch_c, 0, 64, 0
1, 6504, Note_off_c, 0, 70, 38
1, 6504, Note_off_c, 0, 58, 29
1, 6507, Control_c, 0, 64, 81
1, 6522, Control_c, 0, 64, 81
1, 6537, Control_c, 0, 64, 82
1, 6611, Control_c, 0, 64, 81
1, 6625, Control_c, 0, 64, 77
1, 6640, Control_c, 0, 64, 69
1, 6641, Note_on_c, 0, 76, 62
1, 6655, Control_c, 0, 64, 23
1, 6659, Note_on_c, 0, 70, 40
1, 6660, Note_on_c, 0, 67, 43
1, 6661, Note_on_c, 0, 58, 38
1, 6670, Control_c, 0, 64, 0
1, 6671, Note_on_c, 0, 64, 21
1, 6671, Note_off_c, 0, 76, 0
1, 6671, Note_on_c, 0, 76, 37
1, 6676, Note_on_c, 0, 51, 29
1, 6721, Note_off_c, 0, 67, 0
1, 6729, Control_c, 0, 64, 56
1, 6744, Control_c, 0, 64, 65
1, 6757, Poly_aftertouch_c, 0, 67, 127
1, 6758, Control_c, 0, 64, 68
1, 6773, Control_c, 0, 64, 71
1, 6788, Control_c, 0, 64, 74
1, 6803, Control_c, 0, 64, 77
1, 6814, Note_off_c, 0, 64, 39
1, 6818, Control_c, 0, 64, 79
1, 6829, Poly_aftertouch_c, 0, 67, 0
1, 6832, Note_off_c, 0, 51, 35
1, 6832, Note_off_c, 0, 58, 34
1, 6832, Control_c, 0, 64, 80
1, 6847, Control_c, 0, 64, 80
1, 6854, Note_off_c, 0, 76, 37
1, 6862, Control_c, 0, 64, 81
1, 6889, Note_off_c, 0, 70, 40
1, 6891, Control_c, 0, 64, 81
1, 6958, Control_c, 0, 64, 82
1, 7019, Control_c, 0, 64, 81
1, 7034, Control_c, 0, 64, 80
1, 7048, Control_c, 0, 64, 76
1, 7061, Note_on_c, 0, 75, 51
1, 7063, Control_c, 0, 64, 66
1, 7068, Note_on_c, 0, 58, 34
1, 7068, Note_on_c, 0, 70, 41
1, 7073, Note_on_c, 0, 67, 36
1, 7076, Note_on_c, 0, 63, 32
1, 7077, Note_on_c, 0, 51, 33
1, 7078, Control_c, 0, 64, 0
1, 7122, Control_c, 0, 67, 9
1, 7137, Control_c, 0, 67, 14
1, 7152, Control_c, 0, 67, 23
1, 7167, Control_c, 0, 64, 63
1, 7167, Control_c, 0, 67, 35
1, 7181, Control_c, 0, 64, 67
1, 7181, Control_c, 0, 67, 48
1, 7196, Control_c, 0, 64, 70
1, 7196, Control_c, 0, 67, 61
1, 7207, Note_off_c, 0, 63, 48
1, 7211, Control_c, 0, 64, 72
1, 7211, Control_c, 0, 67, 71
1, 7224, Note_off_c, 0, 70, 53
1, 7226, Control_c, 0, 64, 74
1, 7226, Control_c, 0, 67, 78
1, 7228, Note_off_c, 0, 67, 39
1, 7241, Control_c, 0, 64, 75
1, 7241, Control_c, 0, 67, 84
1, 7245, Note_off_c, 0, 58, 41
1, 7246, Note_off_c, 0, 51, 36
1, 7255, Control_c, 0, 64, 77
1, 7255, Control_c, 0, 67, 92
1, 7270, Control_c, 0, 64, 78
1, 7270, Control_c, 0, 67, 98
1, 7285, Control_c, 0, 64, 79
1, 7285, Control_c, 0, 67, 104
1, 7300, Control_c, 0, 67, 108
1, 7315, Control_c, 0, 67, 112
1, 7321, Note_off_c, 0, 75, 27
1, 7330, Control_c, 0, 67, 114
1, 7345, Control_c, 0, 64, 79
1, 7345, Control_c, 0, 67, 115
1, 7359, Control_c, 0, 67, 116
1, 7374, Control_c, 0, 67, 119
1, 7389, Control_c, 0, 67, 121
1, 7404, Control_c, 0, 67, 124
1, 7419, Control_c, 0, 67, 127
1, 7448, Control_c, 0, 64, 78
1, 7463, Control_c, 0, 64, 75
1, 7478, Control_c, 0, 64, 67
1, 7488, Note_on_c, 0, 70, 43
1, 7491, Note_on_c, 0, 73, 46
1, 7493, Control_c, 0, 64, 0
1, 7495, Note_on_c, 0, 67, 34
1, 7497, Note_on_c, 0, 58, 33
1, 7499, Note_on_c, 0, 51, 30
1, 7505, Note_on_c, 0, 61, 26
1, 7565, Note_off_c, 0, 67, 38
1, 7568, Control_c, 0, 64, 46
1, 7582, Control_c, 0, 64, 64
1, 7597, Control_c, 0, 64, 67
1, 7598, Note_off_c, 0, 51, 50
1, 7604, Note_off_c, 0, 58, 49
1, 7612, Control_c, 0, 64, 69
1, 7613, Note_off_c, 0, 61, 39
1, 7627, Note_off_c, 0, 70, 50
1, 7627, Control_c, 0, 64, 71
1, 7641, Control_c, 0, 64, 74
1, 7656, Control_c, 0, 64, 77
1, 7671, Control_c, 0, 64, 78
1, 7686, Control_c, 0, 64, 79
1, 7687, Note_off_c, 0, 73, 56
1, 7708, Control_c, 0, 64, 79
1, 7738, Control_c, 0, 64, 80
1, 7753, Control_c, 0, 64, 80
1, 7946, Control_c, 0, 64, 79
1, 7961, Control_c, 0, 64, 75
1, 7976, Control_c, 0, 64, 67
1, 7991, Control_c, 0, 64, 0
1, 8018, Note_on_c, 0, 44, 33
1, 8050, Control_c, 0, 64, 60
1, 8057, Note_on_c, 0, 83, 33
1, 8065, Control_c, 0, 64, 66
1, 8079, Control_c, 0, 64, 68
1, 8094, Control_c, 0, 64, 70
1, 8109, Control_c, 0, 64, 73
1, 8111, Note_off_c, 0, 44, 57
1, 8123, Control_c, 0, 64, 76
1, 8138, Control_c, 0, 64, 78
1, 8144, Note_on_c, 0, 87, 56
1, 8153, Note_off_c, 0, 83, 35
1, 8153, Control_c, 0, 64, 79
1, 8168, Control_c, 0, 64, 80
1, 8219, Note_off_c, 0, 87, 58
1, 8233, Note_on_c, 0, 83, 64
1, 8257, Control_c, 0, 64, 80
1, 8275, Note_off_c, 0, 83, 54
1, 8302, Note_on_c, 0, 80, 70
1, 8316, Control_c, 0, 64, 80
1, 8328, Note_off_c, 0, 80, 66
1, 8390, Note_on_c, 0, 59, 48
1, 8397, Note_on_c, 0, 80, 63
1, 8399, Note_on_c, 0, 63, 32
1, 8401, Note_on_c, 0, 56, 33
1, 8405, Control_c, 0, 64, 79
1, 8420, Control_c, 0, 64, 78
1, 8435, Control_c, 0, 64, 76
1, 8457, Control_c, 0, 64, 74
1, 8471, Control_c, 0, 64, 71
1, 8482, Note_off_c, 0, 80, 63
1, 8486, Control_c, 0, 64, 68
1, 8489, Note_on_c, 0, 83, 69
1, 8501, Control_c, 0, 64, 66
1, 8516, Control_c, 0, 64, 62
1, 8531, Control_c, 0, 64, 58
1, 8546, Control_c, 0, 64, 54
1, 8561, Note_off_c, 0, 83, 59
1, 8561, Control_c, 0, 64, 53
1, 8568, Note_on_c, 0, 80, 68
1, 8606, Control_c, 0, 64, 52
1, 8620, Note_off_c, 0, 80, 62
1, 8620, Control_c, 0, 64, 51
1, 8635, Control_c, 0, 64, 49
1, 8650, Note_on_c, 0, 75, 64
1, 8650, Control_c, 0, 64, 48
1, 8665, Control_c, 0, 64, 48
1, 8679, Note_off_c, 0, 75, 67
1, 8680, Control_c, 0, 64, 46
1, 8695, Control_c, 0, 64, 41
1, 8710, Control_c, 0, 64, 36
1, 8725, Control_c, 0, 64, 33
1, 8740, Control_c, 0, 64, 28
1, 8742, Note_on_c, 0, 75, 66
1, 8754, Control_c, 0, 64, 27
1, 8769, Control_c, 0, 64, 26
1, 8784, Control_c, 0, 64, 25
1, 8799, Control_c, 0, 64, 23
1, 8812, Note_on_c, 0, 80, 74
1, 8817, Note_off_c, 0, 75, 62
1, 8873, Control_c, 0, 64, 25
1, 8888, Control_c, 0, 64, 26
1, 8896, Note_on_c, 0, 75, 60
1, 8905, Note_off_c, 0, 80, 61
1, 8932, Control_c, 0, 64, 25
1, 8946, Control_c, 0, 64, 22
1, 8961, Control_c, 0, 64, 16
1, 8973, Note_off_c, 0, 75, 65
1, 8976, Control_c, 0, 64, 0
1, 8981, Note_on_c, 0, 71, 67
1, 9017, Note_off_c, 0, 71, 58
1, 9074, Note_on_c, 0, 71, 51
1, 9137, Note_off_c, 0, 71, 52
1, 9149, Note_on_c, 0, 75, 68
1, 9209, Note_off_c, 0, 75, 61
1, 9234, Note_on_c, 0, 71, 66
1, 9272, Note_off_c, 0, 71, 56
1, 9309, Note_on_c, 0, 68, 68
1, 9337, Note_off_c, 0, 68, 66
1, 9395, Note_on_c, 0, 68, 63
1, 9406, Note_off_c, 0, 59, 55
1, 9458, Note_off_c, 0, 63, 42
1, 9460, Note_off_c, 0, 68, 63
1, 9467, Note_on_c, 0, 71, 66
1, 9517, Note_off_c, 0, 56, 40
1, 9537, Note_off_c, 0, 71, 61
1, 9553, Note_on_c, 0, 68, 57
1, 9592, Note_off_c, 0, 68, 64
1, 9632, Note_on_c, 0, 63, 56
1, 9672, Note_off_c, 0, 63, 63
1, 9732, Note_on_c, 0, 70, 56
1, 9735, Note_on_c, 0, 67, 48
1, 9765, Note_on_c, 0, 51, 37
1, 9767, Note_on_c, 0, 58, 24
1, 9780, Note_on_c, 0, 63, 29
1, 9813, Note_off_c, 0, 58, 49
1, 9814, Control_c, 0, 64, 42
1, 9819, Note_off_c, 0, 67, 56
1, 9822, Note_off_c, 0, 63, 51
1, 9829, Control_c, 0, 64, 64
1, 9843, Control_c, 0, 64, 69
1, 9846, Note_off_c, 0, 51, 47
1, 9858, Control_c, 0, 64, 72
1, 9860, Note_off_c, 0, 70, 55
1, 9873, Control_c, 0, 64, 75
1, 9887, Control_c, 0, 64, 78
1, 9902, Control_c, 0, 64, 80
1, 9917, Control_c, 0, 64, 80
1, 9984, Control_c, 0, 64, 81
1, 9999, Control_c, 0, 64, 81
1, 10014, Control_c, 0, 64, 82
1, 10029, Control_c, 0, 64, 82
1, 10043, Control_c, 0, 64, 83
1, 10058, Control_c, 0, 64, 84
1, 10058, Control_c, 0, 67, 126
1, 10073, Control_c, 0, 67, 122
1, 10088, Control_c, 0, 67, 117
1, 10102, Control_c, 0, 67, 114
1, 10117, Control_c, 0, 64, 82
1, 10117, Control_c, 0, 67, 110
1, 10132, Control_c, 0, 64, 77
1, 10132, Control_c, 0, 67, 107
1, 10147, Control_c, 0, 64, 67
1, 10147, Control_c, 0, 67, 104
1, 10151, Note_on_c, 0, 44, 41
1, 10163, Control_c, 0, 64, 31
1, 10163, Control_c, 0, 67, 102
1, 10174, Note_on_c, 0, 83, 57
1, 10178, Control_c, 0, 64, 0
1, 10178, Control_c, 0, 67, 100
1, 10192, Control_c, 0, 64, 51
1, 10192, Control_c, 0, 67, 97
1, 10207, Control_c, 0, 64, 64
1, 10207, Control_c, 0, 67, 95
1, 10222, Control_c, 0, 64, 69
1, 10222, Control_c, 0, 67, 94
1, 10236, Note_off_c, 0, 44, 60
1, 10237, Control_c, 0, 64, 72
1, 10237, Control_c, 0, 67, 93
1, 10252, Control_c, 0, 64, 74
1, 10252, Control_c, 0, 67, 92
1, 10260, Note_off_c, 0, 83, 56
1, 10267, Note_on_c, 0, 87, 61
1, 10267, Control_c, 0, 64, 76
1, 10267, Control_c, 0, 67, 91
1, 10282, Control_c, 0, 64, 77
1, 10282, Control_c, 0, 67, 91
1, 10297, Control_c, 0, 64, 78
1, 10326, Control_c, 0, 67, 91
1, 10337, Note_off_c, 0, 87, 58
1, 10341, Control_c, 0, 67, 92
1, 10361, Note_on_c, 0, 83, 66
1, 10371, Control_c, 0, 64, 78
1, 10371, Control_c, 0, 67, 93
1, 10386, Control_c, 0, 67, 93
1, 10397, Note_off_c, 0, 83, 58
1, 10400, Control_c, 0, 67, 94
1, 10415, Control_c, 0, 67, 94
1, 10430, Control_c, 0, 67, 95
1, 10433, Note_on_c, 0, 80, 68
1, 10445, Control_c, 0, 67, 95
1, 10466, Note_off_c, 0, 80, 61
1, 10504, Control_c, 0, 67, 96
1, 10513, Note_on_c, 0, 63, 48
1, 10519, Control_c, 0, 64, 76
1, 10519, Control_c, 0, 67, 96
1, 10521, Note_on_c, 0, 56, 46
1, 10524, Note_on_c, 0, 59, 39
1, 10527, Note_on_c, 0, 80, 61
1, 10534, Control_c, 0, 64, 70
1, 10549, Control_c, 0, 64, 60
1, 10561, Note_off_c, 0, 63, 0
1, 10561, Note_on_c, 0, 63, 4
1, 10564, Control_c, 0, 64, 0
1, 10593, Control_c, 0, 64, 22
1, 10593, Control_c, 0, 67, 97
1, 10602, Note_off_c, 0, 80, 63
1, 10606, Note_on_c, 0, 83, 72
1, 10608, Control_c, 0, 64, 62
1, 10623, Control_c, 0, 64, 65
1, 10623, Control_c, 0, 67, 98
1, 10638, Control_c, 0, 64, 67
1, 10638, Control_c, 0, 67, 99
1, 10653, Control_c, 0, 64, 68
1, 10653, Control_c, 0, 67, 100
1, 10667, Control_c, 0, 67, 100
1, 10676, Note_off_c, 0, 83, 60
1, 10682, Control_c, 0, 67, 101
1, 10683, Note_on_c, 0, 80, 70
1, 10704, Control_c, 0, 67, 101
1, 10732, Note_off_c, 0, 80, 63
1, 10749, Control_c, 0, 67, 102
1, 10761, Note_on_c, 0, 75, 73
1, 10764, Control_c, 0, 67, 102
1, 10779, Control_c, 0, 64, 67
1, 10790, Note_off_c, 0, 75, 64
1, 10793, Control_c, 0, 64, 64
1, 10808, Control_c, 0, 64, 59
1, 10823, Control_c, 0, 64, 52
1, 10823, Control_c, 0, 67, 102
1, 10838, Control_c, 0, 64, 42
1, 10853, Control_c, 0, 64, 28
1, 10853, Note_on_c, 0, 75, 62
1, 10867, Control_c, 0, 64, 0
1, 10934, Note_on_c, 0, 80, 66
1, 10936, Note_off_c, 0, 75, 65
1, 11002, Control_c, 0, 67, 102
1, 11026, Note_on_c, 0, 75, 68
1, 11032, Note_off_c, 0, 80, 61
1, 11076, Control_c, 0, 67, 102
1, 11082, Note_off_c, 0, 75, 64
1, 11110, Note_on_c, 0, 71, 64
1, 11120, Control_c, 0, 67, 101
1, 11139, Note_off_c, 0, 71, 65
1, 11179, Control_c, 0, 67, 102
1, 11194, Control_c, 0, 67, 102
1, 11197, Note_on_c, 0, 71, 63
1, 11223, Control_c, 0, 67, 103
1, 11238, Control_c, 0, 67, 104
1, 11253, Note_off_c, 0, 71, 48
1, 11253, Control_c, 0, 67, 106
1, 11268, Control_c, 0, 67, 111
1, 11279, Note_on_c, 0, 75, 64
1, 11283, Control_c, 0, 67, 118
1, 11297, Control_c, 0, 67, 124
1, 11312, Control_c, 0, 67, 127
1, 11330, Note_off_c, 0, 75, 62
1, 11353, Note_on_c, 0, 71, 67
1, 11395, Note_off_c, 0, 71, 55
1, 11428, Note_on_c, 0, 68, 68
1, 11467, Note_off_c, 0, 68, 65
1, 11515, Note_on_c, 0, 68, 58
1, 11591, Note_off_c, 0, 68, 64
1, 11595, Note_off_c, 0, 59, 47
1, 11595, Note_on_c, 0, 71, 71
1, 11624, Note_off_c, 0, 63, 53
1, 11658, Note_off_c, 0, 71, 58
1, 11682, Note_on_c, 0, 68, 64
1, 11682, Note_off_c, 0, 56, 49
1, 11721, Note_off_c, 0, 68, 61
1, 11752, Note_on_c, 0, 63, 63
1, 11800, Note_off_c, 0, 63, 58
1, 11874, Note_on_c, 0, 70, 56
1, 11881, Note_on_c, 0, 67, 49
1, 11896, Note_on_c, 0, 58, 37
1, 11905, Note_on_c, 0, 51, 35
1, 11910, Note_on_c, 0, 63, 33
1, 11959, Control_c, 0, 67, 123
1, 11973, Control_c, 0, 67, 116
1, 11988, Control_c, 0, 64, 36
1, 11988, Control_c, 0, 67, 110
1, 11999, Note_off_c, 0, 67, 39
1, 12003, Control_c, 0, 64, 65
1, 12003, Control_c, 0, 67, 103
1, 12018, Control_c, 0, 64, 69
1, 12018, Control_c, 0, 67, 97
1, 12021, Note_off_c, 0, 58, 51
1, 12033, Control_c, 0, 64, 73
1, 12033, Control_c, 0, 67, 89
1, 12047, Control_c, 0, 64, 76
1, 12047, Control_c, 0, 67, 80
1, 12054, Note_off_c, 0, 63, 43
1, 12055, Note_off_c, 0, 70, 64
1, 12062, Control_c, 0, 64, 77
1, 12062, Control_c, 0, 67, 70
1, 12071, Note_off_c, 0, 51, 34
1, 12077, Control_c, 0, 67, 61
1, 12091, Control_c, 0, 67, 52
1, 12106, Control_c, 0, 67, 44
1, 12121, Control_c, 0, 64, 77
1, 12121, Control_c, 0, 67, 35
1, 12136, Control_c, 0, 67, 30
1, 12151, Control_c, 0, 64, 76
1, 12151, Control_c, 0, 67, 26
1, 12165, Control_c, 0, 64, 74
1, 12165, Control_c, 0, 67, 23
1, 12180, Control_c, 0, 64, 70
1, 12180, Control_c, 0, 67, 20
1, 12203, Control_c, 0, 64, 63
1, 12203, Control_c, 0, 67, 15
1, 12218, Control_c, 0, 64, 18
1, 12218, Control_c, 0, 67, 8
1, 12233, Control_c, 0, 64, 0
1, 12233, Control_c, 0, 67, 0
1, 12269, Note_on_c, 0, 71, 59
1, 12279, Note_on_c, 0, 68, 56
1, 12287, Note_on_c, 0, 56, 43
1, 12290, Note_on_c, 0, 63, 47
1, 12336, Control_c, 0, 64, 39
1, 12337, Poly_aftertouch_c, 0, 59, 127
1, 12351, Control_c, 0, 64, 64
1, 12366, Control_c, 0, 64, 68
1, 12376, Note_off_c, 0, 56, 53
1, 12380, Control_c, 0, 64, 70
1, 12395, Control_c, 0, 64, 72
1, 12398, Note_off_c, 0, 68, 56
1, 12410, Note_off_c, 0, 71, 59
1, 12410, Control_c, 0, 64, 75
1, 12425, Control_c, 0, 64, 77
1, 12440, Poly_aftertouch_c, 0, 59, 0
1, 12440, Control_c, 0, 64, 79
1, 12454, Control_c, 0, 64, 80
1, 12457, Note_off_c, 0, 63, 32
1, 12484, Control_c, 0, 64, 81
1, 12513, Control_c, 0, 64, 81
1, 12558, Control_c, 0, 64, 82
1, 12588, Control_c, 0, 64, 82
1, 12603, Control_c, 0, 64, 83
1, 12667, Note_on_c, 0, 76, 71
1, 12675, Note_on_c, 0, 66, 59
1, 12680, Note_on_c, 0, 70, 56
1, 12686, Note_on_c, 0, 58, 46
1, 12689, Note_on_c, 0, 64, 45
1, 12692, Control_c, 0, 64, 81
1, 12701, Note_on_c, 0, 54, 39
1, 12707, Control_c, 0, 64, 75
1, 12722, Control_c, 0, 64, 62
1, 12737, Control_c, 0, 64, 0
1, 12782, Control_c, 0, 64, 23
1, 12796, Control_c, 0, 64, 64
1, 12811, Control_c, 0, 64, 70
1, 12826, Control_c, 0, 64, 73
1, 12841, Control_c, 0, 64, 77
1, 12856, Control_c, 0, 64, 79
1, 12870, Control_c, 0, 64, 80
1, 12885, Control_c, 0, 64, 80
1, 12899, Control_c, 0, 64, 81
1, 12913, Control_c, 0, 64, 81
1, 12925, Note_off_c, 0, 64, 46
1, 12928, Control_c, 0, 64, 82
1, 12929, Note_off_c, 0, 58, 48
1, 12933, Note_off_c, 0, 54, 37
1, 12947, Note_off_c, 0, 76, 62
1, 12948, Note_off_c, 0, 70, 63
1, 12949, Note_off_c, 0, 66, 52
1, 12951, Control_c, 0, 64, 82
1, 12966, Control_c, 0, 64, 83
1, 12981, Control_c, 0, 64, 84
1, 13010, Control_c, 0, 64, 85
1, 13025, Control_c, 0, 64, 84
1, 13053, Note_on_c, 0, 76, 81
1, 13055, Control_c, 0, 64, 80
1, 13057, Note_on_c, 0, 66, 67
1, 13066, Note_on_c, 0, 70, 63
1, 13069, Control_c, 0, 64, 70
1, 13073, Note_on_c, 0, 64, 45
1, 13077, Note_on_c, 0, 54, 30
1, 13084, Control_c, 0, 64, 32
1, 13091, Note_on_c, 0, 58, 35
1, 13099, Control_c, 0, 64, 0
1, 13128, Control_c, 0, 64, 48
1, 13143, Control_c, 0, 64, 66
1, 13157, Note_off_c, 0, 66, 0
1, 13157, Note_on_c, 0, 66, 20
1, 13158, Control_c, 0, 64, 70
1, 13173, Control_c, 0, 64, 74
1, 13188, Control_c, 0, 64, 78
1, 13202, Control_c, 0, 64, 79
1, 13217, Control_c, 0, 64, 79
1, 13231, Note_off_c, 0, 66, 47
1, 13241, Note_off_c, 0, 76, 56
1, 13247, Control_c, 0, 64, 80
1, 13250, Note_off_c, 0, 70, 50
1, 13259, Note_off_c, 0, 64, 40
1, 13268, Note_off_c, 0, 54, 35
1, 13277, Control_c, 0, 64, 80
1, 13279, Note_off_c, 0, 58, 36
1, 13381, Control_c, 0, 64, 80
1, 13396, Control_c, 0, 64, 79
1, 13411, Control_c, 0, 64, 76
1, 13426, Control_c, 0, 64, 67
1, 13429, Note_on_c, 0, 76, 68
1, 13435, Note_on_c, 0, 66, 54
1, 13440, Control_c, 0, 64, 0
1, 13449, Note_on_c, 0, 70, 46
1, 13453, Note_on_c, 0, 58, 18
1, 13467, Note_on_c, 0, 64, 30
1, 13474, Note_on_c, 0, 54, 16
1, 13485, Control_c, 0, 67, 8
1, 13500, Control_c, 0, 67, 10
1, 13512, Note_off_c, 0, 66, 0
1, 13512, Note_on_c, 0, 66, 6
1, 13515, Control_c, 0, 67, 13
1, 13530, Control_c, 0, 67, 18
1, 13532, Note_off_c, 0, 58, 0
1, 13544, Control_c, 0, 67, 26
1, 13559, Control_c, 0, 67, 36
1, 13569, Poly_aftertouch_c, 0, 58, 127
1, 13574, Control_c, 0, 67, 47
1, 13589, Control_c, 0, 64, 67
1, 13589, Control_c, 0, 67, 60
1, 13594, Note_off_c, 0, 64, 49
1, 13604, Control_c, 0, 64, 75
1, 13604, Control_c, 0, 67, 73
1, 13618, Control_c, 0, 64, 81
1, 13618, Control_c, 0, 67, 86
1, 13621, Note_off_c, 0, 54, 38
1, 13622, Note_off_c, 0, 76, 52
1, 13628, Note_off_c, 0, 66, 42
1, 13633, Control_c, 0, 64, 85
1, 13633, Control_c, 0, 67, 94
1, 13642, Poly_aftertouch_c, 0, 58, 0
1, 13646, Note_off_c, 0, 70, 53
1, 13648, Control_c, 0, 64, 88
1, 13648, Control_c, 0, 67, 101
1, 13663, Control_c, 0, 64, 91
1, 13663, Control_c, 0, 67, 107
1, 13678, Control_c, 0, 64, 91
1, 13678, Control_c, 0, 67, 110
1, 13700, Control_c, 0, 67, 112
1, 13818, Control_c, 0, 67, 113
1, 13833, Control_c, 0, 64, 89
1, 13843, Note_on_c, 0, 75, 59
1, 13848, Control_c, 0, 64, 83
1, 13852, Note_on_c, 0, 66, 44
1, 13855, Note_on_c, 0, 63, 44
1, 13861, Note_on_c, 0, 70, 48
1, 13862, Note_on_c, 0, 58, 28
1, 13862, Control_c, 0, 64, 71
1, 13862, Control_c, 0, 67, 113
1, 13873, Note_on_c, 0, 54, 34
1, 13877, Control_c, 0, 64, 14
1, 13877, Control_c, 0, 67, 114
1, 13892, Control_c, 0, 64, 0
1, 13892, Control_c, 0, 67, 115
1, 13907, Control_c, 0, 67, 117
1, 13922, Control_c, 0, 67, 120
1, 13936, Control_c, 0, 67, 124
1, 13951, Control_c, 0, 64, 34
1, 13951, Control_c, 0, 67, 127
1, 13966, Control_c, 0, 64, 64
1, 13981, Control_c, 0, 64, 68
1, 13996, Control_c, 0, 64, 72
1, 14003, Note_off_c, 0, 70, 55
1, 14007, Note_off_c, 0, 75, 53
1, 14010, Control_c, 0, 64, 77
1, 14022, Note_off_c, 0, 58, 35
1, 14025, Control_c, 0, 64, 80
1, 14031, Note_off_c, 0, 54, 39
1, 14040, Control_c, 0, 64, 81
1, 14043, Note_off_c, 0, 66, 43
1, 14051, Note_off_c, 0, 63, 38
1, 14055, Control_c, 0, 64, 82
1, 14069, Control_c, 0, 64, 83
1, 14084, Control_c, 0, 64, 83
1, 14219, Control_c, 0, 64, 82
1, 14233, Control_c, 0, 64, 78
1, 14236, Note_on_c, 0, 74, 61
1, 14248, Control_c, 0, 64, 66
1, 14254, Note_on_c, 0, 70, 47
1, 14257, Note_on_c, 0, 66, 37
1, 14257, Note_on_c, 0, 62, 45
1, 14263, Control_c, 0, 64, 0
1, 14266, Note_on_c, 0, 54, 34
1, 14275, Note_on_c, 0, 58, 21
1, 14330, Note_off_c, 0, 58, 42
1, 14353, Control_c, 0, 64, 61
1, 14358, Note_off_c, 0, 66, 29
1, 14367, Control_c, 0, 64, 67
1, 14370, Note_off_c, 0, 74, 56
1, 14382, Control_c, 0, 64, 71
1, 14385, Note_off_c, 0, 62, 50
1, 14388, Note_off_c, 0, 70, 54
1, 14397, Control_c, 0, 64, 75
1, 14412, Note_off_c, 0, 54, 36
1, 14412, Control_c, 0, 64, 78
1, 14427, Control_c, 0, 64, 80
1, 14448, Control_c, 0, 64, 81
1, 14463, Control_c, 0, 64, 82
1, 14478, Control_c, 0, 64, 83
1, 14493, Control_c, 0, 64, 84
1, 14508, Control_c, 0, 64, 85
1, 14523, Control_c, 0, 64, 85
1, 14537, Control_c, 0, 64, 86
1, 14552, Control_c, 0, 64, 86
1, 14567, Control_c, 0, 64, 87
1, 14597, Control_c, 0, 64, 87
1, 14819, Control_c, 0, 64, 85
1, 14824, Note_on_c, 0, 87, 46
1, 14829, Note_on_c, 0, 47, 41
1, 14833, Control_c, 0, 64, 80
1, 14848, Control_c, 0, 64, 70
1, 14863, Control_c, 0, 64, 22
1, 14878, Control_c, 0, 64, 0
1, 14907, Note_off_c, 0, 87, 62
1, 14907, Control_c, 0, 64, 40
1, 14922, Note_on_c, 0, 90, 57
1, 14922, Control_c, 0, 64, 65
1, 14937, Control_c, 0, 64, 70
1, 14952, Control_c, 0, 64, 74
1, 14955, Note_off_c, 0, 47, 53
1, 14968, Control_c, 0, 64, 78
1, 14982, Control_c, 0, 64, 79
1, 14997, Control_c, 0, 64, 80
1, 15012, Control_c, 0, 64, 81
1, 15019, Note_off_c, 0, 90, 61
1, 15022, Note_on_c, 0, 87, 67
1, 15027, Control_c, 0, 64, 81
1, 15042, Control_c, 0, 64, 82
1, 15056, Control_c, 0, 64, 82
1, 15065, Note_off_c, 0, 87, 59
1, 15071, Control_c, 0, 64, 83
1, 15086, Control_c, 0, 64, 83
1, 15094, Note_on_c, 0, 83, 63
1, 15101, Control_c, 0, 64, 84
1, 15122, Note_off_c, 0, 83, 62
1, 15174, Note_on_c, 0, 83, 57
1, 15176, Control_c, 0, 64, 81
1, 15198, Control_c, 0, 64, 74
1, 15208, Note_on_c, 0, 54, 46
1, 15208, Note_on_c, 0, 63, 43
1, 15211, Note_on_c, 0, 59, 40
1, 15213, Control_c, 0, 64, 63
1, 15228, Control_c, 0, 64, 0
1, 15243, Control_c, 0, 64, 22
1, 15258, Control_c, 0, 64, 58
1, 15259, Note_off_c, 0, 83, 54
1, 15265, Note_off_c, 0, 63, 0
1, 15265, Note_on_c, 0, 63, 3
1, 15272, Control_c, 0, 64, 66
1, 15274, Note_on_c, 0, 87, 63
1, 15287, Control_c, 0, 64, 70
1, 15302, Control_c, 0, 64, 73
1, 15316, Control_c, 0, 64, 75
1, 15331, Control_c, 0, 64, 76
1, 15338, Note_off_c, 0, 87, 60
1, 15346, Control_c, 0, 64, 76
1, 15347, Note_on_c, 0, 83, 68
1, 15361, Control_c, 0, 64, 77
1, 15390, Note_off_c, 0, 83, 53
1, 15390, Control_c, 0, 64, 77
1, 15418, Note_on_c, 0, 78, 79
1, 15459, Note_off_c, 0, 78, 60
1, 15494, Control_c, 0, 64, 76
1, 15506, Note_on_c, 0, 78, 57
1, 15509, Control_c, 0, 64, 75
1, 15524, Control_c, 0, 64, 73
1, 15539, Control_c, 0, 64, 70
1, 15554, Control_c, 0, 64, 65
1, 15569, Control_c, 0, 64, 57
1, 15578, Note_off_c, 0, 78, 63
1, 15582, Note_on_c, 0, 83, 69
1, 15583, Control_c, 0, 64, 34
1, 15598, Control_c, 0, 64, 0
1, 15648, Note_off_c, 0, 83, 56
1, 15660, Note_on_c, 0, 78, 73
1, 15694, Note_off_c, 0, 78, 59
1, 15739, Note_on_c, 0, 75, 72
1, 15774, Note_off_c, 0, 75, 62
1, 15825, Note_on_c, 0, 75, 63
1, 15897, Note_off_c, 0, 75, 63
1, 15906, Note_on_c, 0, 78, 71
1, 15997, Note_off_c, 0, 78, 62
1, 15998, Note_on_c, 0, 75, 66
1, 16049, Note_off_c, 0, 75, 60
1, 16077, Note_on_c, 0, 71, 67
1, 16110, Note_off_c, 0, 71, 58
1, 16163, Note_on_c, 0, 71, 49
1, 16224, Note_off_c, 0, 71, 53
1, 16237, Note_on_c, 0, 75, 67
1, 16269, Note_off_c, 0, 54, 52
1, 16286, Note_off_c, 0, 59, 35
1, 16292, Note_off_c, 0, 75, 61
1, 16316, Note_off_c, 0, 63, 42
1, 16321, Note_on_c, 0, 71, 61
1, 16354, Note_off_c, 0, 71, 61
1, 16408, Note_on_c, 0, 66, 46
1, 16434, Note_off_c, 0, 66, 58
1, 16482, Note_on_c, 0, 73, 57
1, 16488, Note_on_c, 0, 70, 49
1, 16490, Note_on_c, 0, 54, 48
1, 16492, Note_on_c, 0, 64, 44
1, 16525, Control_c, 0, 67, 120
1, 16539, Control_c, 0, 67, 109
1, 16545, Note_off_c, 0, 70, 40
1, 16551, Note_off_c, 0, 64, 55
1, 16555, Control_c, 0, 64, 37
1, 16555, Control_c, 0, 67, 98
1, 16570, Control_c, 0, 64, 65
1, 16570, Control_c, 0, 67, 85
1, 16574, Note_off_c, 0, 54, 49
1, 16585, Note_off_c, 0, 73, 58
1, 16585, Control_c, 0, 64, 71
1, 16585, Control_c, 0, 67, 74
1, 16600, Control_c, 0, 64, 75
1, 16600, Control_c, 0, 67, 66
1, 16615, Control_c, 0, 64, 79
1, 16615, Control_c, 0, 67, 59
1, 16629, Control_c, 0, 64, 80
1, 16629, Control_c, 0, 67, 54
1, 16642, Control_c, 0, 64, 81
1, 16642, Control_c, 0, 67, 50
1, 16657, Control_c, 0, 64, 81
1, 16657, Control_c, 0, 67, 47
1, 16672, Control_c, 0, 67, 45
1, 16694, Control_c, 0, 67, 44
1, 16709, Control_c, 0, 67, 41
1, 16724, Control_c, 0, 67, 38
1, 16739, Control_c, 0, 64, 82
1, 16739, Control_c, 0, 67, 33
1, 16754, Control_c, 0, 64, 82
1, 16754, Control_c, 0, 67, 29
1, 16768, Control_c, 0, 64, 83
1, 16768, Control_c, 0, 67, 24
1, 16783, Control_c, 0, 64, 84
1, 16783, Control_c, 0, 67, 21
1, 16798, Control_c, 0, 67, 19
1, 16813, Control_c, 0, 67, 18
1, 16828, Control_c, 0, 67, 17
1, 16842, Control_c, 0, 67, 15
1, 16857, Control_c, 0, 64, 81
1, 16857, Control_c, 0, 67, 15
1, 16872, Control_c, 0, 64, 76
1, 16872, Control_c, 0, 67, 13
1, 16886, Control_c, 0, 64, 66
1, 16886, Control_c, 0, 67, 13
1, 16901, Control_c, 0, 64, 0
1, 16901, Control_c, 0, 67, 12
1, 16907, Note_on_c, 0, 47, 40
1, 16916, Control_c, 0, 67, 12
1, 16928, Note_on_c, 0, 87, 45
1, 16931, Control_c, 0, 67, 11
1, 16946, Control_c, 0, 64, 59
1, 16946, Control_c, 0, 67, 10
1, 16961, Control_c, 0, 64, 65
1, 16976, Control_c, 0, 64, 68
1, 16991, Control_c, 0, 64, 71
1, 17003, Note_off_c, 0, 87, 63
1, 17006, Control_c, 0, 64, 74
1, 17009, Note_on_c, 0, 90, 62
1, 17021, Control_c, 0, 64, 78
1, 17035, Control_c, 0, 64, 81
1, 17050, Control_c, 0, 64, 83
1, 17065, Control_c, 0, 64, 85
1, 17065, Note_off_c, 0, 47, 35
1, 17080, Control_c, 0, 64, 87
1, 17094, Control_c, 0, 64, 89
1, 17098, Note_on_c, 0, 87, 71
1, 17104, Note_off_c, 0, 90, 61
1, 17109, Control_c, 0, 64, 90
1, 17124, Control_c, 0, 64, 92
1, 17139, Control_c, 0, 64, 93
1, 17139, Control_c, 0, 67, 11
1, 17153, Control_c, 0, 64, 93
1, 17156, Note_off_c, 0, 87, 63
1, 17170, Note_on_c, 0, 83, 70
1, 17202, Note_off_c, 0, 83, 58
1, 17213, Control_c, 0, 67, 11
1, 17242, Control_c, 0, 64, 92
1, 17242, Control_c, 0, 67, 12
1, 17255, Note_on_c, 0, 83, 62
1, 17257, Control_c, 0, 64, 87
1, 17265, Note_on_c, 0, 63, 53
1, 17271, Note_on_c, 0, 54, 52
1, 17272, Control_c, 0, 64, 79
1, 17272, Control_c, 0, 67, 12
1, 17275, Note_on_c, 0, 59, 46
1, 17286, Control_c, 0, 64, 70
1, 17301, Control_c, 0, 64, 61
1, 17301, Control_c, 0, 67, 13
1, 17309, Note_off_c, 0, 63, 0
1, 17309, Note_on_c, 0, 63, 19
1, 17331, Control_c, 0, 64, 66
1, 17331, Control_c, 0, 67, 13
1, 17342, Note_off_c, 0, 83, 59
1, 17345, Note_on_c, 0, 87, 70
1, 17346, Control_c, 0, 64, 70
1, 17346, Control_c, 0, 67, 14
1, 17362, Control_c, 0, 64, 74
1, 17362, Control_c, 0, 67, 14
1, 17376, Control_c, 0, 64, 77
1, 17376, Control_c, 0, 67, 15
1, 17391, Control_c, 0, 64, 79
1, 17391, Control_c, 0, 67, 15
1, 17406, Control_c, 0, 67, 16
1, 17414, Note_off_c, 0, 87, 61
1, 17421, Control_c, 0, 64, 79
1, 17421, Control_c, 0, 67, 16
1, 17423, Note_on_c, 0, 83, 68
1, 17444, Control_c, 0, 67, 17
1, 17458, Control_c, 0, 67, 18
1, 17473, Control_c, 0, 67, 18
1, 17488, Control_c, 0, 67, 19
1, 17497, Note_off_c, 0, 83, 60
1, 17503, Control_c, 0, 67, 19
1, 17509, Note_on_c, 0, 78, 78
1, 17517, Control_c, 0, 67, 20
1, 17547, Control_c, 0, 67, 20
1, 17551, Note_off_c, 0, 78, 62
1, 17562, Control_c, 0, 67, 21
1, 17577, Control_c, 0, 64, 78
1, 17591, Control_c, 0, 64, 75
1, 17594, Note_on_c, 0, 78, 64
1, 17606, Control_c, 0, 64, 71
1, 17621, Control_c, 0, 64, 65
1, 17636, Control_c, 0, 64, 54
1, 17636, Control_c, 0, 67, 21
1, 17651, Control_c, 0, 64, 23
1, 17651, Control_c, 0, 67, 22
1, 17665, Control_c, 0, 64, 0
1, 17668, Note_off_c, 0, 78, 62
1, 17675, Note_on_c, 0, 83, 76
1, 17680, Control_c, 0, 67, 22
1, 17724, Control_c, 0, 67, 23
1, 17739, Control_c, 0, 67, 24
1, 17742, Note_off_c, 0, 83, 58
1, 17750, Note_on_c, 0, 78, 73
1, 17754, Control_c, 0, 67, 27
1, 17769, Control_c, 0, 67, 31
1, 17784, Control_c, 0, 67, 37
1, 17793, Note_off_c, 0, 78, 61
1, 17799, Control_c, 0, 67, 42
1, 17813, Control_c, 0, 67, 46
1, 17828, Note_on_c, 0, 75, 73
1, 17828, Control_c, 0, 67, 50
1, 17843, Control_c, 0, 67, 51
1, 17858, Control_c, 0, 67, 53
1, 17858, Note_off_c, 0, 75, 63
1, 17873, Control_c, 0, 67, 55
1, 17888, Control_c, 0, 67, 58
1, 17903, Control_c, 0, 67, 63
1, 17917, Control_c, 0, 67, 67
1, 17918, Note_on_c, 0, 75, 63
1, 17932, Control_c, 0, 67, 73
1, 17947, Control_c, 0, 67, 80
1, 17962, Control_c, 0, 67, 89
1, 17977, Control_c, 0, 67, 99
1, 17986, Note_off_c, 0, 75, 63
1, 17991, Control_c, 0, 67, 109
1, 17992, Note_on_c, 0, 78, 71
1, 18006, Control_c, 0, 67, 116
1, 18021, Control_c, 0, 67, 122
1, 18035, Control_c, 0, 67, 124
1, 18050, Control_c, 0, 67, 124
1, 18065, Control_c, 0, 67, 125
1, 18074, Note_off_c, 0, 78, 61
1, 18079, Note_on_c, 0, 75, 64
1, 18095, Control_c, 0, 67, 124
1, 18109, Control_c, 0, 67, 123
1, 18124, Control_c, 0, 67, 123
1, 18140, Control_c, 0, 67, 122
1, 18147, Note_off_c, 0, 75, 64
1, 18171, Control_c, 0, 67, 121
1, 18173, Note_on_c, 0, 71, 63
1, 18193, Control_c, 0, 67, 120
1, 18207, Control_c, 0, 67, 120
1, 18213, Note_off_c, 0, 71, 61
1, 18222, Control_c, 0, 67, 119
1, 18270, Note_on_c, 0, 71, 55
1, 18339, Note_off_c, 0, 71, 60
1, 18343, Note_on_c, 0, 75, 66
1, 18350, Note_off_c, 0, 59, 50
1, 18356, Control_c, 0, 67, 120
1, 18376, Note_off_c, 0, 54, 56
1, 18407, Note_off_c, 0, 75, 64
1, 18416, Note_off_c, 0, 63, 37
1, 18420, Note_on_c, 0, 71, 57
1, 18468, Note_off_c, 0, 71, 58
1, 18475, Control_c, 0, 67, 119
1, 18489, Control_c, 0, 67, 119
1, 18502, Note_on_c, 0, 66, 58
1, 18504, Control_c, 0, 67, 118
1, 18533, Control_c, 0, 67, 118
1, 18538, Note_off_c, 0, 66, 65
1, 18548, Control_c, 0, 67, 117
1, 18578, Control_c, 0, 67, 117
1, 18593, Control_c, 0, 67, 116
1, 18603, Note_on_c, 0, 73, 53
1, 18604, Note_on_c, 0, 70, 50
1, 18607, Control_c, 0, 67, 115
1, 18622, Control_c, 0, 67, 114
1, 18628, Note_on_c, 0, 54, 39
1, 18637, Control_c, 0, 67, 113
1, 18640, Note_on_c, 0, 64, 31
1, 18651, Control_c, 0, 67, 111
1, 18666, Control_c, 0, 67, 107
1, 18681, Control_c, 0, 67, 98
1, 18696, Control_c, 0, 67, 88
1, 18711, Control_c, 0, 67, 80
1, 18720, Note_off_c, 0, 70, 45
1, 18726, Note_off_c, 0, 73, 58
1, 18726, Control_c, 0, 64, 64
1, 18726, Control_c, 0, 67, 72
1, 18741, Control_c, 0, 64, 70
1, 18741, Control_c, 0, 67, 65
1, 18755, Control_c, 0, 64, 72
1, 18755, Control_c, 0, 67, 58
1, 18763, Note_off_c, 0, 54, 38
1, 18770, Control_c, 0, 64, 74
1, 18770, Control_c, 0, 67, 51
1, 18785, Control_c, 0, 64, 75
1, 18785, Control_c, 0, 67, 42
1, 18793, Note_off_c, 0, 64, 37
1, 18800, Control_c, 0, 67, 35
1, 18815, Control_c, 0, 67, 27
1, 18830, Control_c, 0, 67, 21
1, 18845, Control_c, 0, 67, 15
1, 18859, Control_c, 0, 67, 11
1, 18874, Control_c, 0, 67, 8
1, 18888, Control_c, 0, 67, 0
1, 18918, Control_c, 0, 64, 74
1, 18940, Control_c, 0, 64, 71
1, 18955, Control_c, 0, 64, 65
1, 18970, Control_c, 0, 64, 0
1, 18982, Note_on_c, 0, 75, 72
1, 19000, Note_on_c, 0, 71, 53
1, 19000, Note_on_c, 0, 59, 39
1, 19010, Note_on_c, 0, 63, 40
1, 19059, Control_c, 0, 64, 59
1, 19074, Control_c, 0, 64, 66
1, 19089, Control_c, 0, 64, 68
1, 19093, Note_off_c, 0, 71, 54
1, 19104, Control_c, 0, 64, 70
1, 19119, Control_c, 0, 64, 72
1, 19134, Control_c, 0, 64, 76
1, 19149, Control_c, 0, 64, 77
1, 19152, Note_off_c, 0, 75, 59
1, 19160, Note_off_c, 0, 63, 38
1, 19163, Control_c, 0, 64, 78
1, 19171, Note_off_c, 0, 59, 37
1, 19178, Control_c, 0, 64, 79
1, 19193, Control_c, 0, 64, 79
1, 19237, Control_c, 0, 64, 80
1, 19311, Control_c, 0, 64, 80
1, 19326, Control_c, 0, 64, 81
1, 19395, Note_on_c, 0, 80, 82
1, 19400, Control_c, 0, 64, 79
1, 19413, Note_on_c, 0, 70, 54
1, 19414, Note_on_c, 0, 73, 56
1, 19415, Control_c, 0, 64, 72
1, 19420, Note_on_c, 0, 54, 43
1, 19420, Note_on_c, 0, 64, 39
1, 19429, Control_c, 0, 64, 60
1, 19444, Control_c, 0, 64, 0
1, 19495, Note_off_c, 0, 70, 0
1, 19504, Control_c, 0, 64, 61
1, 19518, Note_on_c, 0, 70, 19
1, 19519, Control_c, 0, 64, 66
1, 19533, Control_c, 0, 64, 69
1, 19548, Control_c, 0, 64, 70
1, 19563, Control_c, 0, 64, 72
1, 19578, Control_c, 0, 64, 75
1, 19593, Control_c, 0, 64, 76
1, 19608, Control_c, 0, 64, 77
1, 19622, Control_c, 0, 64, 77
1, 19625, Note_off_c, 0, 54, 34
1, 19628, Note_off_c, 0, 64, 41
1, 19628, Note_off_c, 0, 80, 55
1, 19637, Control_c, 0, 64, 78
1, 19652, Control_c, 0, 64, 78
1, 19653, Note_off_c, 0, 73, 39
1, 19653, Note_off_c, 0, 70, 42
1, 19688, Control_c, 0, 64, 79
1, 19793, Control_c, 0, 64, 78
1, 19804, Note_on_c, 0, 80, 81
1, 19808, Control_c, 0, 64, 76
1, 19820, Note_on_c, 0, 70, 60
1, 19823, Control_c, 0, 64, 69
1, 19826, Note_on_c, 0, 64, 49
1, 19826, Note_on_c, 0, 73, 56
1, 19835, Note_on_c, 0, 54, 37
1, 19838, Control_c, 0, 64, 49
1, 19852, Control_c, 0, 64, 0
1, 19897, Control_c, 0, 64, 47
1, 19912, Control_c, 0, 64, 66
1, 19927, Control_c, 0, 64, 69
1, 19942, Control_c, 0, 64, 71
1, 19957, Control_c, 0, 64, 72
1, 19972, Control_c, 0, 64, 74
1, 19986, Control_c, 0, 64, 75
1, 19991, Note_off_c, 0, 64, 41
1, 19998, Note_off_c, 0, 70, 39
1, 20001, Control_c, 0, 64, 75
1, 20008, Note_off_c, 0, 80, 55
1, 20011, Note_off_c, 0, 54, 34
1, 20012, Note_off_c, 0, 73, 47
1, 20016, Control_c, 0, 64, 76
1, 20031, Control_c, 0, 64, 76
1, 20046, Control_c, 0, 64, 77
1, 20075, Control_c, 0, 64, 77
1, 20090, Control_c, 0, 64, 78
1, 20119, Control_c, 0, 64, 78
1, 20178, Control_c, 0, 64, 77
1, 20193, Control_c, 0, 64, 73
1, 20197, Note_on_c, 0, 80, 75
1, 20208, Control_c, 0, 64, 65
1, 20211, Note_on_c, 0, 73, 58
1, 20222, Note_on_c, 0, 70, 44
1, 20223, Control_c, 0, 64, 0
1, 20228, Note_on_c, 0, 54, 28
1, 20228, Note_on_c, 0, 64, 34
1, 20282, Control_c, 0, 64, 61
1, 20297, Control_c, 0, 64, 67
1, 20311, Control_c, 0, 64, 69
1, 20322, Note_off_c, 0, 73, 58
1, 20326, Control_c, 0, 64, 71
1, 20334, Note_off_c, 0, 70, 0
1, 20341, Control_c, 0, 64, 73
1, 20356, Note_off_c, 0, 64, 25
1, 20356, Control_c, 0, 64, 74
1, 20365, Note_off_c, 0, 54, 26
1, 20371, Poly_aftertouch_c, 0, 70, 127
1, 20371, Control_c, 0, 64, 76
1, 20386, Control_c, 0, 64, 76
1, 20401, Control_c, 0, 64, 77
1, 20416, Control_c, 0, 64, 77
1, 20432, Poly_aftertouch_c, 0, 70, 0
1, 20452, Control_c, 0, 64, 78
1, 20482, Control_c, 0, 64, 78
1, 20484, Note_off_c, 0, 80, 39
1, 20511, Control_c, 0, 64, 79
1, 20587, Control_c, 0, 64, 78
1, 20593, Note_on_c, 0, 78, 63
1, 20601, Control_c, 0, 64, 75
1, 20604, Note_on_c, 0, 70, 42
1, 20604, Note_on_c, 0, 75, 47
1, 20610, Note_on_c, 0, 63, 45
1, 20616, Control_c, 0, 64, 68
1, 20624, Note_on_c, 0, 54, 37
1, 20631, Control_c, 0, 64, 0
1, 20705, Control_c, 0, 64, 58
1, 20720, Control_c, 0, 64, 65
1, 20735, Control_c, 0, 64, 67
1, 20750, Control_c, 0, 64, 69
1, 20765, Control_c, 0, 64, 70
1, 20771, Note_off_c, 0, 75, 41
1, 20779, Control_c, 0, 64, 72
1, 20794, Control_c, 0, 64, 75
1, 20808, Note_off_c, 0, 54, 33
1, 20809, Control_c, 0, 64, 77
1, 20822, Note_off_c, 0, 63, 38
1, 20822, Note_off_c, 0, 70, 40
1, 20824, Control_c, 0, 64, 78
1, 20839, Control_c, 0, 64, 78
1, 20868, Control_c, 0, 64, 79
1, 20927, Control_c, 0, 64, 79
1, 20987, Control_c, 0, 64, 79
1, 21000, Note_off_c, 0, 78, 37
1, 21001, Control_c, 0, 64, 75
1, 21016, Control_c, 0, 64, 66
1, 21019, Note_on_c, 0, 76, 52
1, 21024, Note_on_c, 0, 70, 31
1, 21029, Note_on_c, 0, 61, 43
1, 21031, Control_c, 0, 64, 0
1, 21047, Note_on_c, 0, 54, 30
1, 21060, Control_c, 0, 67, 8
1, 21075, Control_c, 0, 67, 12
1, 21090, Control_c, 0, 67, 21
1, 21105, Control_c, 0, 67, 32
1, 21119, Control_c, 0, 67, 46
1, 21135, Control_c, 0, 64, 63
1, 21135, Control_c, 0, 67, 56
1, 21143, Note_off_c, 0, 61, 57
1, 21150, Control_c, 0, 64, 68
1, 21150, Control_c, 0, 67, 62
1, 21165, Control_c, 0, 64, 71
1, 21165, Control_c, 0, 67, 68
1, 21186, Note_off_c, 0, 54, 39
1, 21188, Control_c, 0, 64, 74
1, 21188, Control_c, 0, 67, 76
1, 21188, Note_off_c, 0, 70, 51
1, 21202, Control_c, 0, 64, 77
1, 21202, Control_c, 0, 67, 84
1, 21209, Note_off_c, 0, 76, 62
1, 21217, Control_c, 0, 64, 79
1, 21217, Control_c, 0, 67, 92
1, 21232, Control_c, 0, 64, 80
1, 21232, Control_c, 0, 67, 100
1, 21247, Control_c, 0, 67, 106
1, 21261, Control_c, 0, 64, 81
1, 21261, Control_c, 0, 67, 112
1, 21276, Control_c, 0, 67, 118
1, 21291, Control_c, 0, 67, 124
1, 21306, Control_c, 0, 67, 127
1, 21321, Control_c, 0, 64, 81
1, 21544, Control_c, 0, 64, 80
1, 21558, Control_c, 0, 64, 76
1, 21573, Control_c, 0, 64, 66
1, 21582, Note_on_c, 0, 86, 43
1, 21588, Control_c, 0, 64, 0
1, 21602, Note_on_c, 0, 47, 36
1, 21662, Control_c, 0, 64, 60
1, 21677, Control_c, 0, 64, 66
1, 21692, Control_c, 0, 64, 68
1, 21707, Control_c, 0, 64, 70
1, 21710, Note_off_c, 0, 86, 63
1, 21714, Note_off_c, 0, 47, 56
1, 21721, Control_c, 0, 64, 71
1, 21731, Note_on_c, 0, 90, 58
1, 21736, Control_c, 0, 64, 72
1, 21751, Control_c, 0, 64, 74
1, 21766, Control_c, 0, 64, 76
1, 21781, Control_c, 0, 64, 77
1, 21796, Control_c, 0, 64, 77
1, 21825, Control_c, 0, 64, 78
1, 21832, Note_off_c, 0, 90, 49
1, 21837, Note_on_c, 0, 86, 63
1, 21855, Control_c, 0, 64, 78
1, 21869, Control_c, 0, 64, 79
1, 21883, Note_off_c, 0, 86, 60
1, 21884, Control_c, 0, 64, 79
1, 21906, Note_on_c, 0, 83, 61
1, 21945, Note_off_c, 0, 83, 61
1, 21951, Control_c, 0, 64, 78
1, 21966, Control_c, 0, 64, 74
1, 21981, Control_c, 0, 64, 64
1, 21996, Control_c, 0, 64, 0
1, 22004, Note_on_c, 0, 54, 40
1, 22006, Note_on_c, 0, 83, 55
1, 22012, Note_on_c, 0, 59, 43
1, 22013, Note_on_c, 0, 62, 46
1, 22040, Control_c, 0, 64, 46
1, 22055, Control_c, 0, 64, 65
1, 22070, Control_c, 0, 64, 68
1, 22080, Note_off_c, 0, 83, 59
1, 22084, Control_c, 0, 64, 70
1, 22099, Note_on_c, 0, 86, 59
1, 22099, Control_c, 0, 64, 71
1, 22114, Control_c, 0, 64, 72
1, 22129, Control_c, 0, 64, 73
1, 22144, Control_c, 0, 64, 73
1, 22160, Control_c, 0, 64, 74
1, 22160, Note_off_c, 0, 86, 58
1, 22174, Control_c, 0, 64, 74
1, 22188, Note_on_c, 0, 83, 61
1, 22189, Control_c, 0, 64, 75
1, 22204, Control_c, 0, 64, 76
1, 22219, Control_c, 0, 64, 76
1, 22219, Note_off_c, 0, 83, 52
1, 22255, Note_on_c, 0, 78, 69
1, 22288, Note_off_c, 0, 78, 48
1, 22322, Control_c, 0, 64, 76
1, 22337, Control_c, 0, 64, 75
1, 22345, Note_on_c, 0, 78, 72
1, 22352, Control_c, 0, 64, 73
1, 22367, Control_c, 0, 64, 71
1, 22381, Control_c, 0, 64, 67
1, 22396, Control_c, 0, 64, 63
1, 22411, Control_c, 0, 64, 56
1, 22418, Note_off_c, 0, 78, 63
1, 22426, Control_c, 0, 64, 50
1, 22430, Note_on_c, 0, 83, 66
1, 22441, Control_c, 0, 64, 45
1, 22455, Control_c, 0, 64, 42
1, 22470, Control_c, 0, 64, 37
1, 22485, Control_c, 0, 64, 31
1, 22497, Note_on_c, 0, 78, 70
1, 22499, Control_c, 0, 64, 23
1, 22502, Note_off_c, 0, 83, 58
1, 22514, Control_c, 0, 64, 11
1, 22529, Control_c, 0, 64, 0
1, 22556, Note_off_c, 0, 78, 63
1, 22576, Note_on_c, 0, 74, 72
1, 22619, Note_off_c, 0, 74, 64
1, 22682, Note_on_c, 0, 74, 49
1, 22747, Note_off_c, 0, 74, 63
1, 22756, Note_on_c, 0, 78, 69
1, 22831, Note_off_c, 0, 78, 62
1, 22839, Note_on_c, 0, 74, 61
1, 22894, Note_off_c, 0, 74, 63
1, 22913, Note_on_c, 0, 71, 66
1, 22944, Note_off_c, 0, 71, 63
1, 22996, Note_on_c, 0, 71, 59
1, 23071, Note_off_c, 0, 71, 62
1, 23079, Note_on_c, 0, 74, 67
1, 23089, Note_off_c, 0, 54, 55
1, 23130, Note_off_c, 0, 62, 54
1, 23143, Note_off_c, 0, 74, 64
1, 23153, Note_on_c, 0, 71, 64
1, 23159, Note_off_c, 0, 59, 39
1, 23200, Note_off_c, 0, 71, 56
1, 23235, Note_on_c, 0, 66, 62
1, 23268, Note_off_c, 0, 66, 57
1, 23325, Note_on_c, 0, 70, 45
1, 23327, Note_on_c, 0, 73, 52
1, 23346, Note_on_c, 0, 64, 38
1, 23348, Note_on_c, 0, 54, 35
1, 23411, Control_c, 0, 64, 59
1, 23431, Note_off_c, 0, 64, 54
1, 23433, Control_c, 0, 64, 72
1, 23447, Control_c, 0, 64, 76
1, 23453, Note_off_c, 0, 70, 45
1, 23462, Control_c, 0, 64, 78
1, 23472, Note_off_c, 0, 54, 41
1, 23477, Control_c, 0, 64, 80
1, 23483, Note_off_c, 0, 73, 54
1, 23492, Control_c, 0, 64, 82
1, 23507, Control_c, 0, 64, 82
1, 23685, Control_c, 0, 64, 82
1, 23700, Control_c, 0, 64, 80
1, 23715, Control_c, 0, 64, 77
1, 23729, Control_c, 0, 64, 71
1, 23745, Control_c, 0, 64, 62
1, 23760, Control_c, 0, 64, 0
1, 23760, Note_on_c, 0, 47, 42
1, 23779, Note_on_c, 0, 86, 54
1, 23834, Control_c, 0, 64, 61
1, 23849, Control_c, 0, 64, 68
1, 23856, Note_off_c, 0, 86, 62
1, 23864, Control_c, 0, 64, 71
1, 23874, Note_on_c, 0, 90, 65
1, 23878, Control_c, 0, 64, 75
1, 23893, Control_c, 0, 64, 78
1, 23898, Note_off_c, 0, 47, 50
1, 23908, Control_c, 0, 64, 79
1, 23923, Control_c, 0, 64, 80
1, 23938, Control_c, 0, 64, 82
1, 23952, Control_c, 0, 64, 83
1, 23954, Note_off_c, 0, 90, 34
1, 23966, Note_on_c, 0, 86, 73
1, 23967, Control_c, 0, 64, 84
1, 23982, Control_c, 0, 64, 84
1, 24010, Note_off_c, 0, 86, 60
1, 24036, Note_on_c, 0, 83, 69
1, 24067, Note_off_c, 0, 83, 58
1, 24085, Control_c, 0, 64, 84
1, 24100, Control_c, 0, 64, 80
1, 24115, Control_c, 0, 64, 74
1, 24118, Note_on_c, 0, 83, 66
1, 24119, Note_on_c, 0, 62, 63
1, 24125, Note_on_c, 0, 59, 50
1, 24130, Note_on_c, 0, 54, 47
1, 24130, Control_c, 0, 64, 67
1, 24145, Control_c, 0, 64, 58
1, 24160, Control_c, 0, 64, 56
1, 24182, Control_c, 0, 64, 62
1, 24197, Control_c, 0, 64, 66
1, 24204, Note_off_c, 0, 83, 60
1, 24212, Control_c, 0, 64, 69
1, 24213, Note_on_c, 0, 86, 68
1, 24226, Control_c, 0, 64, 71
1, 24241, Control_c, 0, 64, 72
1, 24276, Note_off_c, 0, 86, 61
1, 24303, Note_on_c, 0, 83, 68
1, 24359, Note_off_c, 0, 83, 60
1, 24378, Note_on_c, 0, 78, 71
1, 24389, Control_c, 0, 64, 72
1, 24404, Control_c, 0, 64, 71
1, 24419, Control_c, 0, 64, 70
1, 24420, Note_off_c, 0, 78, 62
1, 24434, Control_c, 0, 64, 68
1, 24449, Control_c, 0, 64, 64
1, 24461, Note_on_c, 0, 78, 55
1, 24464, Control_c, 0, 64, 59
1, 24478, Control_c, 0, 64, 42
1, 24493, Control_c, 0, 64, 0
1, 24534, Note_off_c, 0, 78, 64
1, 24542, Note_on_c, 0, 83, 66
1, 24617, Note_off_c, 0, 83, 59
1, 24624, Note_on_c, 0, 78, 66
1, 24675, Note_off_c, 0, 78, 61
1, 24696, Note_on_c, 0, 74, 68
1, 24732, Note_off_c, 0, 74, 62
1, 24786, Note_on_c, 0, 74, 57
1, 24857, Note_off_c, 0, 74, 62
1, 24868, Note_on_c, 0, 78, 68
1, 24947, Note_off_c, 0, 78, 63
1, 24956, Note_on_c, 0, 74, 61
1, 25009, Note_off_c, 0, 74, 64
1, 25032, Note_on_c, 0, 71, 66
1, 25066, Note_off_c, 0, 71, 58
1, 25115, Note_on_c, 0, 71, 59
1, 25143, Note_off_c, 0, 59, 57
1, 25168, Note_off_c, 0, 54, 61
1, 25195, Note_off_c, 0, 71, 60
1, 25200, Note_on_c, 0, 74, 68
1, 25221, Note_off_c, 0, 62, 51
1, 25263, Note_off_c, 0, 74, 63
1, 25276, Note_on_c, 0, 71, 61
1, 25316, Note_off_c, 0, 71, 59
1, 25367, Note_on_c, 0, 66, 60
1, 25404, Note_off_c, 0, 66, 58
1, 25466, Note_on_c, 0, 73, 55
1, 25471, Note_on_c, 0, 70, 50
1, 25491, Note_on_c, 0, 64, 41
1, 25497, Note_on_c, 0, 54, 37
1, 25570, Control_c, 0, 67, 116
1, 25585, Control_c, 0, 67, 101
1, 25599, Control_c, 0, 64, 65
1, 25599, Control_c, 0, 67, 85
1, 25614, Control_c, 0, 64, 73
1, 25614, Control_c, 0, 67, 67
1, 25628, Note_off_c, 0, 70, 62
1, 25629, Control_c, 0, 64, 78
1, 25629, Control_c, 0, 67, 49
1, 25643, Control_c, 0, 64, 80
1, 25643, Control_c, 0, 67, 31
1, 25658, Control_c, 0, 67, 14
1, 25659, Note_off_c, 0, 73, 63
1, 25677, Note_off_c, 0, 64, 51
1, 25680, Control_c, 0, 67, 0
1, 25695, Note_off_c, 0, 54, 33
1, 25725, Control_c, 0, 64, 79
1, 25740, Control_c, 0, 64, 78
1, 25755, Control_c, 0, 64, 76
1, 25769, Control_c, 0, 64, 71
1, 25784, Control_c, 0, 64, 64
1, 25799, Control_c, 0, 64, 16
1, 25814, Control_c, 0, 64, 0
1, 25869, Note_on_c, 0, 74, 67
1, 25880, Note_on_c, 0, 71, 52
1, 25892, Note_on_c, 0, 59, 39
1, 25892, Note_on_c, 0, 62, 47
1, 25895, Note_on_c, 0, 66, 31
1, 25962, Control_c, 0, 64, 62
1, 25969, Note_off_c, 0, 66, 50
1, 25977, Control_c, 0, 64, 68
1, 25991, Control_c, 0, 64, 74
1, 25994, Note_off_c, 0, 59, 55
1, 26004, Note_off_c, 0, 71, 61
1, 26006, Control_c, 0, 64, 80
1, 26013, Note_off_c, 0, 62, 61
1, 26021, Control_c, 0, 64, 84
1, 26036, Control_c, 0, 64, 85
1, 26040, Note_off_c, 0, 74, 64
1, 26050, Control_c, 0, 64, 86
1, 26065, Control_c, 0, 64, 87
1, 26080, Control_c, 0, 64, 87
1, 26110, Control_c, 0, 64, 88
1, 26259, Control_c, 0, 64, 87
1, 26267, Note_on_c, 0, 83, 74
1, 26273, Control_c, 0, 64, 86
1, 26279, Note_on_c, 0, 76, 66
1, 26285, Note_on_c, 0, 73, 55
1, 26288, Control_c, 0, 64, 82
1, 26290, Note_on_c, 0, 67, 50
1, 26303, Control_c, 0, 64, 73
1, 26306, Note_on_c, 0, 57, 40
1, 26318, Control_c, 0, 64, 61
1, 26333, Control_c, 0, 64, 0
1, 26354, Note_off_c, 0, 73, 0
1, 26354, Note_on_c, 0, 73, 23
1, 26429, Control_c, 0, 64, 58
1, 26444, Control_c, 0, 64, 65
1, 26459, Control_c, 0, 64, 67
1, 26473, Control_c, 0, 64, 70
1, 26482, Note_off_c, 0, 57, 36
1, 26488, Control_c, 0, 64, 73
1, 26503, Control_c, 0, 64, 77
1, 26518, Control_c, 0, 64, 79
1, 26521, Note_off_c, 0, 67, 40
1, 26533, Control_c, 0, 64, 80
1, 26562, Control_c, 0, 64, 80
1, 26563, Note_off_c, 0, 83, 54
1, 26569, Note_off_c, 0, 73, 54
1, 26569, Note_off_c, 0, 76, 62
1, 26592, Control_c, 0, 64, 81
1, 26665, Note_on_c, 0, 73, 72
1, 26666, Note_on_c, 0, 83, 77
1, 26677, Note_on_c, 0, 67, 47
1, 26681, Control_c, 0, 64, 80
1, 26686, Note_on_c, 0, 76, 63
1, 26696, Control_c, 0, 64, 76
1, 26702, Note_on_c, 0, 57, 39
1, 26711, Control_c, 0, 64, 68
1, 26726, Control_c, 0, 64, 39
1, 26740, Control_c, 0, 64, 0
1, 26754, Note_off_c, 0, 73, 0
1, 26792, Poly_aftertouch_c, 0, 73, 127
1, 26814, Control_c, 0, 64, 61
1, 26829, Control_c, 0, 64, 65
1, 26844, Control_c, 0, 64, 67
1, 26847, Note_off_c, 0, 57, 36
1, 26859, Control_c, 0, 64, 68
1, 26873, Control_c, 0, 64, 71
1, 26882, Note_off_c, 0, 67, 39
1, 26884, Poly_aftertouch_c, 0, 73, 0
1, 26888, Control_c, 0, 64, 73
1, 26901, Note_off_c, 0, 83, 51
1, 26903, Control_c, 0, 64, 76
1, 26910, Note_off_c, 0, 76, 39
1, 26918, Control_c, 0, 64, 77
1, 26933, Control_c, 0, 64, 78
1, 26963, Control_c, 0, 64, 78
1, 26993, Control_c, 0, 64, 79
1, 27023, Control_c, 0, 64, 79
1, 27060, Note_on_c, 0, 83, 71
1, 27072, Note_on_c, 0, 73, 56
1, 27087, Note_on_c, 0, 57, 43
1, 27089, Note_on_c, 0, 76, 38
1, 27095, Note_on_c, 0, 67, 41
1, 27096, Control_c, 0, 64, 78
1, 27111, Control_c, 0, 64, 73
1, 27126, Control_c, 0, 64, 65
1, 27140, Note_off_c, 0, 76, 40
1, 27141, Control_c, 0, 64, 0
1, 27207, Control_c, 0, 64, 59
1, 27222, Control_c, 0, 64, 67
1, 27233, Note_off_c, 0, 83, 54
1, 27237, Control_c, 0, 64, 70
1, 27245, Note_off_c, 0, 57, 35
1, 27251, Control_c, 0, 64, 71
1, 27252, Note_off_c, 0, 73, 17
1, 27263, Note_off_c, 0, 67, 39
1, 27266, Control_c, 0, 64, 73
1, 27281, Control_c, 0, 64, 75
1, 27296, Control_c, 0, 64, 77
1, 27311, Control_c, 0, 64, 78
1, 27340, Control_c, 0, 64, 79
1, 27385, Control_c, 0, 64, 79
1, 27456, Note_on_c, 0, 81, 73
1, 27471, Note_on_c, 0, 66, 47
1, 27474, Note_on_c, 0, 78, 54
1, 27474, Control_c, 0, 64, 77
1, 27475, Note_on_c, 0, 73, 45
1, 27488, Control_c, 0, 64, 72
1, 27492, Note_on_c, 0, 57, 35
1, 27503, Control_c, 0, 64, 64
1, 27518, Control_c, 0, 64, 0
1, 27577, Control_c, 0, 64, 60
1, 27592, Control_c, 0, 64, 65
1, 27607, Control_c, 0, 64, 68
1, 27618, Note_off_c, 0, 66, 42
1, 27621, Control_c, 0, 64, 69
1, 27636, Control_c, 0, 64, 71
1, 27651, Control_c, 0, 64, 73
1, 27666, Control_c, 0, 64, 76
1, 27677, Note_off_c, 0, 78, 31
1, 27681, Control_c, 0, 64, 77
1, 27692, Note_off_c, 0, 57, 33
1, 27695, Control_c, 0, 64, 78
1, 27696, Note_off_c, 0, 81, 53
1, 27697, Note_off_c, 0, 73, 36
1, 27710, Control_c, 0, 64, 78
1, 27725, Control_c, 0, 64, 79
1, 27756, Control_c, 0, 64, 79
1, 27785, Control_c, 0, 64, 80
1, 27849, Note_on_c, 0, 79, 60
1, 27853, Note_on_c, 0, 73, 50
1, 27859, Control_c, 0, 64, 79
1, 27865, Note_on_c, 0, 64, 46
1, 27868, Note_on_c, 0, 57, 29
1, 27875, Control_c, 0, 64, 76
1, 27890, Control_c, 0, 64, 70
1, 27905, Control_c, 0, 64, 58
1, 27927, Control_c, 0, 64, 0
1, 27987, Control_c, 0, 64, 58
1, 28001, Control_c, 0, 64, 66
1, 28016, Control_c, 0, 64, 68
1, 28019, Note_off_c, 0, 79, 54
1, 28031, Control_c, 0, 64, 70
1, 28045, Control_c, 0, 64, 72
1, 28060, Note_off_c, 0, 57, 35
1, 28060, Control_c, 0, 64, 74
1, 28075, Control_c, 0, 64, 76
1, 28090, Control_c, 0, 64, 77
1, 28105, Control_c, 0, 64, 78
1, 28119, Control_c, 0, 64, 78
1, 28149, Control_c, 0, 64, 79
1, 28170, Note_off_c, 0, 73, 41
1, 28179, Control_c, 0, 64, 79
1, 28189, Note_off_c, 0, 64, 31
1, 28226, Note_on_c, 0, 78, 66
1, 28235, Note_on_c, 0, 74, 51
1, 28248, Note_on_c, 0, 62, 45
1, 28253, Control_c, 0, 64, 78
1, 28258, Note_on_c, 0, 59, 42
1, 28267, Control_c, 0, 64, 73
1, 28282, Control_c, 0, 64, 65
1, 28297, Control_c, 0, 64, 0
1, 28367, Note_off_c, 0, 74, 52
1, 28372, Control_c, 0, 64, 54
1, 28387, Control_c, 0, 64, 65
1, 28401, Control_c, 0, 64, 67
1, 28416, Control_c, 0, 64, 68
1, 28431, Control_c, 0, 64, 70
1, 28437, Note_off_c, 0, 78, 55
1, 28445, Control_c, 0, 64, 72
1, 28451, Note_off_c, 0, 59, 53
1, 28460, Control_c, 0, 64, 75
1, 28475, Control_c, 0, 64, 77
1, 28490, Control_c, 0, 64, 78
1, 28505, Control_c, 0, 64, 78
1, 28550, Control_c, 0, 64, 79
1, 28627, Note_off_c, 0, 62, 56
1, 28657, Note_on_c, 0, 79, 68
1, 28675, Note_on_c, 0, 73, 53
1, 28680, Note_on_c, 0, 70, 45
1, 28690, Note_on_c, 0, 54, 40
1, 28697, Note_on_c, 0, 64, 34
1, 28705, Control_c, 0, 64, 76
1, 28720, Control_c, 0, 64, 70
1, 28735, Control_c, 0, 64, 57
1, 28749, Control_c, 0, 64, 0
1, 28809, Control_c, 0, 64, 53
1, 28823, Control_c, 0, 64, 65
1, 28838, Control_c, 0, 64, 69
1, 28853, Control_c, 0, 64, 71
1, 28867, Control_c, 0, 64, 72
1, 28882, Control_c, 0, 64, 73
1, 28897, Control_c, 0, 64, 75
1, 28905, Note_off_c, 0, 70, 39
1, 28906, Note_off_c, 0, 54, 38
1, 28911, Note_off_c, 0, 64, 40
1, 28912, Control_c, 0, 64, 76
1, 28914, Note_off_c, 0, 79, 38
1, 28926, Note_off_c, 0, 73, 34
1, 28927, Control_c, 0, 64, 77
1, 28941, Control_c, 0, 64, 78
1, 28956, Control_c, 0, 64, 79
1, 28971, Control_c, 0, 64, 79
1, 29001, Control_c, 0, 64, 80
1, 29087, Note_on_c, 0, 79, 66
1, 29093, Note_on_c, 0, 70, 53
1, 29098, Note_on_c, 0, 73, 51
1, 29105, Control_c, 0, 64, 78
1, 29117, Note_on_c, 0, 64, 37
1, 29120, Control_c, 0, 64, 72
1, 29123, Note_on_c, 0, 54, 28
1, 29135, Control_c, 0, 64, 63
1, 29149, Control_c, 0, 64, 0
1, 29208, Control_c, 0, 64, 61
1, 29223, Control_c, 0, 64, 67
1, 29238, Control_c, 0, 64, 71
1, 29253, Control_c, 0, 64, 73
1, 29267, Control_c, 0, 64, 74
1, 29277, Note_off_c, 0, 70, 35
1, 29282, Control_c, 0, 64, 75
1, 29297, Control_c, 0, 64, 75
1, 29300, Note_off_c, 0, 64, 36
1, 29303, Note_off_c, 0, 79, 47
1, 29312, Control_c, 0, 64, 76
1, 29315, Note_off_c, 0, 73, 40
1, 29316, Note_off_c, 0, 54, 32
1, 29327, Control_c, 0, 64, 77
1, 29357, Control_c, 0, 64, 77
1, 29371, Control_c, 0, 64, 78
1, 29386, Control_c, 0, 64, 78
1, 29401, Control_c, 0, 64, 79
1, 29483, Control_c, 0, 64, 78
1, 29491, Note_on_c, 0, 79, 68
1, 29497, Control_c, 0, 64, 73
1, 29503, Note_on_c, 0, 54, 38
1, 29505, Note_on_c, 0, 70, 47
1, 29508, Note_on_c, 0, 73, 48
1, 29512, Control_c, 0, 64, 65
1, 29518, Note_on_c, 0, 64, 27
1, 29527, Control_c, 0, 64, 0
1, 29571, Control_c, 0, 64, 14
1, 29586, Control_c, 0, 64, 63
1, 29601, Control_c, 0, 64, 67
1, 29615, Control_c, 0, 64, 70
1, 29630, Control_c, 0, 64, 71
1, 29642, Note_off_c, 0, 79, 53
1, 29645, Control_c, 0, 64, 73
1, 29660, Control_c, 0, 64, 74
1, 29675, Note_off_c, 0, 54, 34
1, 29675, Control_c, 0, 64, 75
1, 29685, Note_off_c, 0, 70, 34
1, 29689, Control_c, 0, 64, 76
1, 29704, Control_c, 0, 64, 77
1, 29707, Note_off_c, 0, 73, 51
1, 29719, Control_c, 0, 64, 77
1, 29749, Control_c, 0, 64, 78
1, 29764, Control_c, 0, 64, 78
1, 29883, Control_c, 0, 64, 78
1, 29883, Note_on_c, 0, 78, 70
1, 29897, Control_c, 0, 64, 75
1, 29899, Note_on_c, 0, 61, 41
1, 29901, Note_on_c, 0, 70, 46
1, 29907, Note_on_c, 0, 73, 48
1, 29912, Control_c, 0, 64, 69
1, 29919, Note_on_c, 0, 54, 36
1, 29926, Note_off_c, 0, 64, 25
1, 29927, Control_c, 0, 64, 57
1, 29942, Control_c, 0, 64, 0
1, 29971, Control_c, 0, 64, 32
1, 29976, Note_off_c, 0, 70, 0
1, 29976, Note_on_c, 0, 70, 3
1, 29986, Control_c, 0, 64, 63
1, 30001, Control_c, 0, 64, 67
1, 30015, Control_c, 0, 64, 70
1, 30030, Control_c, 0, 64, 73
1, 30035, Note_off_c, 0, 73, 55
1, 30045, Control_c, 0, 64, 75
1, 30060, Control_c, 0, 64, 76
1, 30075, Control_c, 0, 64, 77
1, 30089, Control_c, 0, 64, 78
1, 30104, Control_c, 0, 64, 78
1, 30119, Control_c, 0, 64, 79
1, 30122, Note_off_c, 0, 54, 32
1, 30135, Control_c, 0, 64, 79
1, 30172, Control_c, 0, 64, 80
1, 30187, Control_c, 0, 64, 80
1, 30193, Note_off_c, 0, 78, 60
1, 30202, Control_c, 0, 64, 81
1, 30217, Control_c, 0, 64, 81
1, 30232, Note_off_c, 0, 70, 40
1, 30250, Note_off_c, 0, 61, 32
1, 30279, Note_on_c, 0, 76, 68
1, 30286, Note_on_c, 0, 73, 60
1, 30290, Note_on_c, 0, 54, 44
1, 30294, Note_on_c, 0, 58, 45
1, 30306, Control_c, 0, 64, 79
1, 30320, Control_c, 0, 64, 72
1, 30335, Control_c, 0, 64, 60
1, 30350, Control_c, 0, 64, 0
1, 30394, Control_c, 0, 64, 28
1, 30409, Control_c, 0, 64, 65
1, 30424, Control_c, 0, 64, 69
1, 30438, Control_c, 0, 64, 73
1, 30453, Control_c, 0, 64, 75
1, 30468, Control_c, 0, 64, 76
1, 30483, Control_c, 0, 64, 77
1, 30498, Control_c, 0, 64, 79
1, 30507, Note_off_c, 0, 73, 36
1, 30510, Note_off_c, 0, 54, 35
1, 30512, Control_c, 0, 64, 80
1, 30527, Control_c, 0, 64, 80
1, 30557, Control_c, 0, 64, 81
1, 30587, Control_c, 0, 64, 81
1, 30602, Control_c, 0, 64, 82
1, 30631, Control_c, 0, 64, 82
1, 30646, Control_c, 0, 64, 83
1, 30677, Note_off_c, 0, 58, 33
1, 30685, Note_on_c, 0, 75, 78
1, 30695, Note_on_c, 0, 71, 63
1, 30703, Note_on_c, 0, 59, 49
1, 30705, Note_off_c, 0, 76, 57
1, 30706, Control_c, 0, 64, 80
1, 30708, Note_on_c, 0, 56, 45
1, 30720, Control_c, 0, 64, 72
1, 30735, Control_c, 0, 64, 56
1, 30750, Control_c, 0, 64, 0
1, 30809, Control_c, 0, 64, 50
1, 30824, Control_c, 0, 64, 66
1, 30838, Control_c, 0, 64, 71
1, 30853, Control_c, 0, 64, 74
1, 30855, Note_off_c, 0, 71, 55
1, 30869, Control_c, 0, 64, 76
1, 30871, Note_off_c, 0, 59, 59
1, 30884, Control_c, 0, 64, 78
1, 30899, Note_off_c, 0, 75, 62
1, 30899, Control_c, 0, 64, 79
1, 30920, Control_c, 0, 64, 80
1, 30925, Note_off_c, 0, 56, 63
1, 30935, Control_c, 0, 64, 81
1, 30951, Control_c, 0, 64, 83
1, 30966, Control_c, 0, 64, 83
1, 30981, Control_c, 0, 64, 84
1, 30996, Control_c, 0, 64, 84
1, 31055, Control_c, 0, 64, 85
1, 31084, Control_c, 0, 64, 85
1, 31137, Note_on_c, 0, 76, 83
1, 31147, Note_on_c, 0, 64, 65
1, 31148, Note_on_c, 0, 68, 65
1, 31159, Control_c, 0, 64, 84
1, 31161, Note_on_c, 0, 49, 49
1, 31165, Note_on_c, 0, 56, 45
1, 31170, Note_on_c, 0, 61, 49
1, 31174, Control_c, 0, 64, 80
1, 31189, Control_c, 0, 64, 71
1, 31204, Control_c, 0, 64, 50
1, 31218, Control_c, 0, 64, 0
1, 31277, Control_c, 0, 64, 56
1, 31292, Control_c, 0, 64, 66
1, 31307, Control_c, 0, 64, 70
1, 31322, Control_c, 0, 64, 74
1, 31336, Control_c, 0, 64, 77
1, 31351, Control_c, 0, 64, 80
1, 31366, Control_c, 0, 64, 82
1, 31381, Control_c, 0, 64, 83
1, 31383, Note_off_c, 0, 49, 56
1, 31396, Control_c, 0, 64, 84
1, 31405, Note_off_c, 0, 61, 51
1, 31410, Control_c, 0, 64, 85
1, 31425, Control_c, 0, 64, 86
1, 31426, Note_off_c, 0, 56, 54
1, 31436, Note_off_c, 0, 64, 58
1, 31440, Control_c, 0, 64, 86
1, 31447, Note_off_c, 0, 68, 63
1, 31448, Note_off_c, 0, 76, 62
1, 31454, Control_c, 0, 64, 87
1, 31469, Control_c, 0, 64, 87
1, 31484, Control_c, 0, 64, 88
1, 31499, Control_c, 0, 64, 89
1, 31514, Control_c, 0, 64, 91
1, 31529, Control_c, 0, 64, 91
1, 31543, Control_c, 0, 64, 92
1, 31557, Note_on_c, 0, 76, 85
1, 31565, Note_on_c, 0, 68, 71
1, 31567, Note_on_c, 0, 64, 64
1, 31568, Note_on_c, 0, 56, 52
1, 31573, Control_c, 0, 64, 91
1, 31578, Note_on_c, 0, 61, 48
1, 31588, Control_c, 0, 64, 90
1, 31598, Note_on_c, 0, 49, 44
1, 31603, Control_c, 0, 64, 85
1, 31618, Control_c, 0, 64, 75
1, 31633, Control_c, 0, 64, 63
1, 31648, Control_c, 0, 64, 0
1, 31684, Control_c, 0, 64, 44
1, 31699, Control_c, 0, 64, 66
1, 31714, Control_c, 0, 64, 73
1, 31729, Control_c, 0, 64, 78
1, 31745, Control_c, 0, 64, 81
1, 31760, Control_c, 0, 64, 82
1, 31774, Control_c, 0, 64, 83
1, 31788, Note_off_c, 0, 61, 52
1, 31789, Control_c, 0, 64, 84
1, 31804, Control_c, 0, 64, 84
1, 31812, Note_off_c, 0, 49, 38
1, 31818, Note_off_c, 0, 56, 35
1, 31819, Control_c, 0, 64, 85
1, 31830, Note_off_c, 0, 76, 57
1, 31835, Note_off_c, 0, 64, 52
1, 31841, Note_off_c, 0, 68, 57
1, 31848, Control_c, 0, 64, 86
1, 31863, Control_c, 0, 64, 87
1, 31878, Control_c, 0, 64, 88
1, 31892, Control_c, 0, 64, 90
1, 31907, Control_c, 0, 64, 91
1, 31922, Control_c, 0, 64, 92
1, 31979, Note_on_c, 0, 76, 75
1, 31982, Control_c, 0, 64, 91
1, 31985, Note_on_c, 0, 68, 62
1, 31986, Note_on_c, 0, 56, 37
1, 31988, Note_on_c, 0, 64, 60
1, 31994, Note_on_c, 0, 61, 51
1, 31997, Control_c, 0, 64, 87
1, 32002, Note_on_c, 0, 49, 42
1, 32011, Control_c, 0, 64, 77
1, 32026, Control_c, 0, 64, 62
1, 32041, Control_c, 0, 64, 0
1, 32085, Control_c, 0, 64, 39
1, 32100, Control_c, 0, 64, 66
1, 32115, Control_c, 0, 64, 72
1, 32130, Note_off_c, 0, 49, 35
1, 32130, Control_c, 0, 64, 77
1, 32137, Note_off_c, 0, 56, 43
1, 32143, Note_off_c, 0, 61, 49
1, 32145, Control_c, 0, 64, 79
1, 32155, Note_off_c, 0, 64, 57
1, 32159, Control_c, 0, 64, 80
1, 32174, Control_c, 0, 64, 81
1, 32179, Note_off_c, 0, 76, 59
1, 32189, Control_c, 0, 64, 82
1, 32203, Control_c, 0, 64, 83
1, 32217, Note_off_c, 0, 68, 59
1, 32218, Control_c, 0, 64, 83
1, 32233, Control_c, 0, 64, 84
1, 32248, Control_c, 0, 64, 85
1, 32307, Control_c, 0, 64, 85
1, 32394, Note_on_c, 0, 75, 66
1, 32397, Note_on_c, 0, 56, 36
1, 32401, Note_on_c, 0, 59, 41
1, 32401, Note_on_c, 0, 63, 54
1, 32414, Note_on_c, 0, 68, 54
1, 32418, Control_c, 0, 64, 83
1, 32426, Note_on_c, 0, 51, 41
1, 32433, Control_c, 0, 64, 73
1, 32448, Control_c, 0, 64, 16
1, 32458, Note_off_c, 0, 63, 0
1, 32458, Note_on_c, 0, 63, 10
1, 32463, Control_c, 0, 64, 0
1, 32538, Control_c, 0, 64, 20
1, 32553, Control_c, 0, 64, 65
1, 32568, Control_c, 0, 64, 70
1, 32581, Note_off_c, 0, 75, 60
1, 32582, Control_c, 0, 64, 73
1, 32597, Control_c, 0, 64, 77
1, 32612, Control_c, 0, 64, 80
1, 32623, Note_off_c, 0, 56, 37
1, 32627, Control_c, 0, 64, 81
1, 32635, Note_off_c, 0, 51, 33
1, 32641, Control_c, 0, 64, 83
1, 32656, Control_c, 0, 64, 84
1, 32660, Note_off_c, 0, 63, 52
1, 32671, Control_c, 0, 64, 84
1, 32678, Note_off_c, 0, 68, 53
1, 32686, Control_c, 0, 64, 85
1, 32691, Note_off_c, 0, 59, 29
1, 32701, Control_c, 0, 64, 85
1, 32730, Control_c, 0, 64, 86
1, 32745, Control_c, 0, 64, 86
1, 32760, Control_c, 0, 64, 87
1, 32804, Control_c, 0, 64, 86
1, 32809, Note_on_c, 0, 73, 71
1, 32812, Note_on_c, 0, 68, 58
1, 32819, Note_on_c, 0, 56, 46
1, 32819, Control_c, 0, 64, 85
1, 32828, Note_on_c, 0, 61, 41
1, 32830, Note_on_c, 0, 52, 40
1, 32834, Control_c, 0, 64, 78
1, 32849, Control_c, 0, 64, 66
1, 32864, Control_c, 0, 64, 0
1, 32923, Control_c, 0, 64, 53
1, 32938, Control_c, 0, 64, 67
1, 32953, Control_c, 0, 64, 71
1, 32967, Control_c, 0, 64, 75
1, 32982, Control_c, 0, 64, 76
1, 32997, Control_c, 0, 64, 77
1, 33000, Note_off_c, 0, 73, 54
1, 33012, Control_c, 0, 64, 78
1, 33013, Note_off_c, 0, 61, 54
1, 33022, Note_off_c, 0, 56, 35
1, 33026, Control_c, 0, 64, 79
1, 33041, Control_c, 0, 64, 80
1, 33055, Note_off_c, 0, 68, 35
1, 33056, Control_c, 0, 64, 81
1, 33071, Control_c, 0, 64, 81
1, 33086, Control_c, 0, 64, 82
1, 33105, Note_off_c, 0, 52, 27
1, 33130, Control_c, 0, 64, 82
1, 33221, Note_on_c, 0, 71, 62
1, 33227, Control_c, 0, 64, 79
1, 33233, Note_on_c, 0, 68, 46
1, 33241, Control_c, 0, 64, 70
1, 33243, Note_on_c, 0, 59, 44
1, 33244, Note_on_c, 0, 63, 38
1, 33252, Note_on_c, 0, 56, 31
1, 33252, Note_on_c, 0, 51, 35
1, 33256, Control_c, 0, 64, 0
1, 33313, Note_off_c, 0, 68, 0
1, 33313, Note_on_c, 0, 68, 13
1, 33331, Control_c, 0, 64, 50
1, 33346, Control_c, 0, 64, 66
1, 33361, Control_c, 0, 64, 72
1, 33376, Control_c, 0, 64, 78
1, 33391, Control_c, 0, 64, 86
1, 33405, Control_c, 0, 64, 93
1, 33420, Control_c, 0, 64, 100
1, 33435, Control_c, 0, 64, 109
1, 33448, Note_off_c, 0, 71, 36
1, 33450, Control_c, 0, 64, 124
1, 33460, Note_off_c, 0, 59, 40
1, 33464, Control_c, 0, 64, 127
1, 33470, Note_off_c, 0, 51, 40
1, 33486, Note_off_c, 0, 56, 37
1, 33489, Note_off_c, 0, 63, 42
1, 33501, Note_off_c, 0, 68, 42
1, 33612, Control_c, 0, 64, 103
1, 33613, Note_on_c, 0, 71, 55
1, 33623, Note_on_c, 0, 63, 34
1, 33624, Note_on_c, 0, 68, 43
1, 33627, Control_c, 0, 64, 87
1, 33630, Note_on_c, 0, 56, 41
1, 33642, Note_on_c, 0, 51, 37
1, 33642, Control_c, 0, 64, 69
1, 33657, Control_c, 0, 64, 0
1, 33660, Note_on_c, 0, 59, 22
1, 33702, Control_c, 0, 64, 37
1, 33711, Note_off_c, 0, 51, 0
1, 33717, Control_c, 0, 64, 66
1, 33731, Control_c, 0, 64, 73
1, 33746, Control_c, 0, 64, 79
1, 33748, Poly_aftertouch_c, 0, 51, 127
1, 33761, Control_c, 0, 64, 82
1, 33776, Control_c, 0, 64, 82
1, 33790, Control_c, 0, 64, 83
1, 33805, Control_c, 0, 64, 84
1, 33820, Control_c, 0, 64, 85
1, 33830, Note_off_c, 0, 59, 36
1, 33839, Note_off_c, 0, 71, 38
1, 33841, Poly_aftertouch_c, 0, 51, 0
1, 33850, Control_c, 0, 64, 86
1, 33863, Control_c, 0, 64, 86
1, 33866, Note_off_c, 0, 63, 40
1, 33869, Note_off_c, 0, 56, 36
1, 33878, Control_c, 0, 64, 87
1, 33893, Control_c, 0, 64, 87
1, 33904, Note_off_c, 0, 68, 39
1, 33916, Control_c, 0, 64, 88
1, 33989, Control_c, 0, 64, 87
1, 34004, Control_c, 0, 64, 82
1, 34019, Control_c, 0, 64, 71
1, 34027, Note_on_c, 0, 71, 54
1, 34034, Control_c, 0, 64, 0
1, 34036, Note_on_c, 0, 68, 37
1, 34050, Note_on_c, 0, 63, 13
1, 34058, Note_on_c, 0, 56, 11
1, 34059, Note_on_c, 0, 51, 28
1, 34075, Note_on_c, 0, 59, 8
1, 34108, Control_c, 0, 64, 64
1, 34123, Control_c, 0, 64, 71
1, 34132, Note_off_c, 0, 56, 37
1, 34139, Control_c, 0, 64, 78
1, 34150, Note_off_c, 0, 71, 57
1, 34153, Control_c, 0, 64, 82
1, 34168, Control_c, 0, 64, 82
1, 34183, Control_c, 0, 64, 83
1, 34189, Note_off_c, 0, 59, 40
1, 34197, Note_off_c, 0, 68, 51
1, 34198, Control_c, 0, 64, 84
1, 34207, Note_off_c, 0, 51, 39
1, 34212, Control_c, 0, 64, 85
1, 34222, Note_off_c, 0, 63, 41
1, 34227, Control_c, 0, 64, 85
1, 34257, Control_c, 0, 64, 86
1, 34286, Control_c, 0, 64, 86
1, 34301, Control_c, 0, 64, 87
1, 34316, Control_c, 0, 64, 88
1, 34346, Control_c, 0, 64, 88
1, 34375, Control_c, 0, 64, 88
1, 34405, Control_c, 0, 64, 84
1, 34420, Control_c, 0, 64, 76
1, 34435, Control_c, 0, 64, 43
1, 34440, Note_on_c, 0, 70, 46
1, 34446, Note_on_c, 0, 51, 35
1, 34450, Control_c, 0, 64, 0
1, 34458, Note_on_c, 0, 55, 37
1, 34463, Note_on_c, 0, 58, 26
1, 34468, Note_on_c, 0, 67, 27
1, 34494, Control_c, 0, 67, 10
1, 34495, Poly_aftertouch_c, 0, 63, 127
1, 34509, Control_c, 0, 64, 49
1, 34509, Control_c, 0, 67, 16
1, 34524, Control_c, 0, 64, 66
1, 34524, Control_c, 0, 67, 23
1, 34539, Control_c, 0, 64, 70
1, 34539, Control_c, 0, 67, 33
1, 34553, Control_c, 0, 64, 74
1, 34553, Control_c, 0, 67, 42
1, 34568, Control_c, 0, 64, 76
1, 34568, Control_c, 0, 67, 50
1, 34583, Control_c, 0, 64, 78
1, 34583, Control_c, 0, 67, 58
1, 34598, Control_c, 0, 64, 80
1, 34598, Control_c, 0, 67, 65
1, 34599, Note_off_c, 0, 58, 38
1, 34613, Control_c, 0, 64, 81
1, 34613, Control_c, 0, 67, 74
1, 34624, Note_off_c, 0, 51, 35
1, 34626, Note_off_c, 0, 70, 37
1, 34628, Control_c, 0, 64, 82
1, 34628, Control_c, 0, 67, 84
1, 34641, Note_off_c, 0, 55, 41
1, 34642, Poly_aftertouch_c, 0, 63, 0
1, 34643, Control_c, 0, 64, 83
1, 34643, Control_c, 0, 67, 93
1, 34659, Note_off_c, 0, 67, 39
1, 34665, Control_c, 0, 64, 83
1, 34665, Control_c, 0, 67, 100
1, 34680, Control_c, 0, 64, 84
1, 34680, Control_c, 0, 67, 106
1, 34694, Control_c, 0, 64, 84
1, 34694, Control_c, 0, 67, 112
1, 34709, Control_c, 0, 64, 85
1, 34709, Control_c, 0, 67, 116
1, 34724, Control_c, 0, 64, 85
1, 34724, Control_c, 0, 67, 117
1, 34739, Control_c, 0, 67, 117
1, 34784, Control_c, 0, 64, 86
1, 34784, Control_c, 0, 67, 118
1, 34799, Control_c, 0, 67, 119
1, 34813, Control_c, 0, 67, 122
1, 34828, Control_c, 0, 64, 86
1, 34828, Control_c, 0, 67, 122
1, 34887, Control_c, 0, 64, 85
1, 34890, Note_on_c, 0, 70, 47
1, 34902, Control_c, 0, 64, 81
1, 34906, Note_on_c, 0, 63, 31
1, 34906, Note_on_c, 0, 51, 31
1, 34910, Note_on_c, 0, 55, 39
1, 34916, Note_on_c, 0, 58, 23
1, 34917, Control_c, 0, 64, 70
1, 34925, Note_on_c, 0, 67, 26
1, 34933, Control_c, 0, 64, 49
1, 34948, Control_c, 0, 64, 0
1, 34977, Control_c, 0, 64, 40
1, 34990, Note_off_c, 0, 63, 0
1, 34992, Control_c, 0, 64, 64
1, 35007, Control_c, 0, 64, 69
1, 35022, Control_c, 0, 64, 71
1, 35027, Poly_aftertouch_c, 0, 63, 127
1, 35036, Control_c, 0, 64, 73
1, 35036, Control_c, 0, 67, 122
1, 35051, Control_c, 0, 64, 74
1, 35066, Control_c, 0, 64, 75
1, 35080, Note_off_c, 0, 70, 33
1, 35081, Control_c, 0, 64, 76
1, 35081, Control_c, 0, 67, 121
1, 35089, Poly_aftertouch_c, 0, 63, 0
1, 35091, Note_off_c, 0, 58, 35
1, 35095, Note_off_c, 0, 67, 37
1, 35096, Control_c, 0, 64, 77
1, 35110, Control_c, 0, 64, 78
1, 35110, Control_c, 0, 67, 121
1, 35121, Note_off_c, 0, 51, 36
1, 35125, Control_c, 0, 64, 79
1, 35130, Note_off_c, 0, 55, 42
1, 35140, Control_c, 0, 64, 79
1, 35155, Control_c, 0, 64, 80
1, 35170, Control_c, 0, 64, 80
1, 35199, Control_c, 0, 64, 81
1, 35214, Control_c, 0, 64, 81
1, 35243, Control_c, 0, 64, 82
1, 35258, Control_c, 0, 64, 82
1, 35332, Control_c, 0, 64, 82
1, 35347, Control_c, 0, 64, 78
1, 35362, Control_c, 0, 64, 69
1, 35362, Control_c, 0, 67, 121
1, 35377, Control_c, 0, 64, 45
1, 35379, Note_on_c, 0, 70, 41
1, 35392, Control_c, 0, 64, 0
1, 35392, Note_on_c, 0, 51, 29
1, 35407, Note_on_c, 0, 67, 33
1, 35416, Note_on_c, 0, 55, 29
1, 35423, Note_on_c, 0, 58, 16
1, 35428, Control_c, 0, 64, 57
1, 35429, Poly_aftertouch_c, 0, 63, 127
1, 35443, Control_c, 0, 64, 66
1, 35458, Control_c, 0, 64, 69
1, 35473, Control_c, 0, 64, 72
1, 35477, Poly_aftertouch_c, 0, 63, 0
1, 35488, Control_c, 0, 64, 74
1, 35502, Control_c, 0, 64, 75
1, 35517, Control_c, 0, 64, 76
1, 35526, Note_off_c, 0, 67, 37
1, 35532, Control_c, 0, 64, 77
1, 35533, Note_off_c, 0, 58, 32
1, 35547, Control_c, 0, 64, 78
1, 35562, Control_c, 0, 64, 78
1, 35570, Note_off_c, 0, 55, 40
1, 35577, Control_c, 0, 64, 79
1, 35592, Control_c, 0, 64, 80
1, 35636, Control_c, 0, 64, 81
1, 35641, Note_off_c, 0, 70, 36
1, 35662, Note_off_c, 0, 51, 18
1, 35710, Control_c, 0, 64, 81
1, 35756, Control_c, 0, 67, 121
1, 35993, Control_c, 0, 67, 121
1, 36237, Control_c, 0, 64, 80
1, 36251, Control_c, 0, 64, 73
1, 36252, Note_on_c, 0, 44, 35
1, 36265, Note_on_c, 0, 84, 38
1, 36266, Control_c, 0, 64, 63
1, 36266, Control_c, 0, 67, 121
1, 36281, Control_c, 0, 64, 0
1, 36296, Control_c, 0, 67, 120
1, 36311, Control_c, 0, 67, 120
1, 36340, Control_c, 0, 64, 57
1, 36340, Control_c, 0, 67, 119
1, 36355, Control_c, 0, 64, 66
1, 36370, Control_c, 0, 64, 69
1, 36384, Control_c, 0, 64, 71
1, 36396, Note_off_c, 0, 44, 54
1, 36399, Control_c, 0, 64, 73
1, 36414, Control_c, 0, 64, 75
1, 36414, Control_c, 0, 67, 119
1, 36429, Control_c, 0, 64, 77
1, 36429, Control_c, 0, 67, 118
1, 36438, Note_off_c, 0, 84, 60
1, 36444, Control_c, 0, 64, 79
1, 36453, Note_on_c, 0, 87, 55
1, 36459, Control_c, 0, 64, 80
1, 36459, Control_c, 0, 67, 118
1, 36474, Control_c, 0, 64, 81
1, 36489, Control_c, 0, 64, 81
1, 36504, Control_c, 0, 64, 82
1, 36519, Control_c, 0, 64, 83
1, 36534, Control_c, 0, 64, 83
1, 36549, Control_c, 0, 64, 84
1, 36563, Control_c, 0, 64, 84
1, 36566, Note_off_c, 0, 87, 51
1, 36577, Note_on_c, 0, 84, 54
1, 36608, Control_c, 0, 64, 85
1, 36641, Note_off_c, 0, 84, 64
1, 36661, Note_on_c, 0, 80, 57
1, 36668, Control_c, 0, 64, 85
1, 36688, Note_off_c, 0, 80, 57
1, 36755, Note_on_c, 0, 56, 39
1, 36762, Note_on_c, 0, 51, 44
1, 36762, Note_on_c, 0, 60, 35
1, 36768, Note_on_c, 0, 80, 60
1, 36815, Control_c, 0, 67, 117
1, 36832, Note_off_c, 0, 80, 57
1, 36844, Note_on_c, 0, 84, 62
1, 36845, Control_c, 0, 64, 85
1, 36889, Control_c, 0, 64, 84
1, 36915, Note_off_c, 0, 84, 62
1, 36941, Note_on_c, 0, 80, 59
1, 36942, Control_c, 0, 64, 84
1, 36942, Control_c, 0, 67, 118
1, 36956, Control_c, 0, 67, 118
1, 36971, Control_c, 0, 67, 119
1, 36986, Control_c, 0, 64, 83
1, 36986, Control_c, 0, 67, 119
1, 36990, Note_off_c, 0, 80, 58
1, 37015, Control_c, 0, 64, 83
1, 37016, Note_on_c, 0, 75, 61
1, 37049, Note_off_c, 0, 75, 64
1, 37060, Control_c, 0, 64, 82
1, 37074, Control_c, 0, 64, 82
1, 37089, Control_c, 0, 64, 81
1, 37104, Note_on_c, 0, 75, 65
1, 37104, Control_c, 0, 64, 80
1, 37119, Control_c, 0, 64, 79
1, 37134, Control_c, 0, 64, 77
1, 37148, Control_c, 0, 64, 75
1, 37163, Control_c, 0, 64, 73
1, 37178, Control_c, 0, 64, 71
1, 37181, Note_on_c, 0, 80, 70
1, 37187, Note_off_c, 0, 75, 62
1, 37193, Control_c, 0, 64, 68
1, 37207, Control_c, 0, 64, 65
1, 37222, Control_c, 0, 64, 63
1, 37237, Control_c, 0, 64, 62
1, 37252, Control_c, 0, 64, 62
1, 37264, Note_on_c, 0, 75, 61
1, 37267, Control_c, 0, 64, 61
1, 37270, Note_off_c, 0, 80, 60
1, 37282, Control_c, 0, 64, 61
1, 37297, Control_c, 0, 64, 59
1, 37297, Control_c, 0, 67, 119
1, 37312, Control_c, 0, 64, 58
1, 37312, Control_c, 0, 67, 118
1, 37327, Control_c, 0, 64, 56
1, 37330, Note_off_c, 0, 75, 65
1, 37342, Control_c, 0, 64, 54
1, 37347, Note_on_c, 0, 72, 64
1, 37357, Control_c, 0, 64, 52
1, 37372, Control_c, 0, 64, 48
1, 37372, Control_c, 0, 67, 118
1, 37374, Note_off_c, 0, 72, 69
1, 37386, Control_c, 0, 64, 44
1, 37401, Control_c, 0, 64, 36
1, 37401, Control_c, 0, 67, 117
1, 37416, Control_c, 0, 64, 27
1, 37431, Control_c, 0, 64, 16
1, 37440, Note_on_c, 0, 72, 60
1, 37446, Control_c, 0, 64, 0
1, 37480, Note_off_c, 0, 72, 46
1, 37512, Note_on_c, 0, 75, 64
1, 37535, Control_c, 0, 64, 16
1, 37550, Control_c, 0, 64, 23
1, 37550, Control_c, 0, 67, 118
1, 37565, Control_c, 0, 64, 28
1, 37565, Control_c, 0, 67, 118
1, 37579, Control_c, 0, 64, 32
1, 37583, Note_off_c, 0, 75, 64
1, 37591, Note_on_c, 0, 72, 65
1, 37594, Control_c, 0, 64, 34
1, 37609, Control_c, 0, 64, 37
1, 37623, Control_c, 0, 64, 39
1, 37638, Control_c, 0, 64, 40
1, 37653, Note_off_c, 0, 72, 61
1, 37680, Note_on_c, 0, 68, 66
1, 37690, Control_c, 0, 64, 39
1, 37705, Control_c, 0, 64, 37
1, 37715, Note_off_c, 0, 68, 63
1, 37720, Control_c, 0, 64, 36
1, 37735, Control_c, 0, 64, 33
1, 37735, Control_c, 0, 67, 118
1, 37750, Control_c, 0, 64, 30
1, 37765, Control_c, 0, 64, 26
1, 37765, Control_c, 0, 67, 117
1, 37766, Note_on_c, 0, 68, 58
1, 37779, Control_c, 0, 64, 20
1, 37794, Control_c, 0, 64, 11
1, 37809, Control_c, 0, 64, 0
1, 37842, Note_off_c, 0, 68, 64
1, 37845, Note_on_c, 0, 72, 69
1, 37892, Note_off_c, 0, 51, 57
1, 37893, Note_off_c, 0, 60, 48
1, 37911, Note_off_c, 0, 72, 63
1, 37931, Note_on_c, 0, 68, 59
1, 37949, Note_off_c, 0, 56, 36
1, 37973, Note_off_c, 0, 68, 63
1, 38015, Note_on_c, 0, 63, 49
1, 38048, Note_off_c, 0, 63, 57
1, 38103, Note_on_c, 0, 70, 59
1, 38107, Note_on_c, 0, 67, 47
1, 38125, Note_on_c, 0, 51, 42
1, 38135, Control_c, 0, 67, 117
1, 38145, Note_on_c, 0, 61, 29
1, 38179, Note_off_c, 0, 67, 52
1, 38194, Control_c, 0, 67, 116
1, 38209, Control_c, 0, 64, 50
1, 38217, Note_off_c, 0, 61, 52
1, 38224, Control_c, 0, 64, 66
1, 38230, Note_off_c, 0, 51, 56
1, 38231, Note_off_c, 0, 70, 54
1, 38239, Control_c, 0, 64, 70
1, 38254, Control_c, 0, 64, 75
1, 38268, Control_c, 0, 64, 79
1, 38283, Control_c, 0, 64, 81
1, 38298, Control_c, 0, 64, 82
1, 38328, Control_c, 0, 64, 83
1, 38372, Control_c, 0, 64, 83
1, 38372, Control_c, 0, 67, 116
1, 38387, Control_c, 0, 67, 115
1, 38409, Control_c, 0, 64, 84
1, 38409, Control_c, 0, 67, 114
1, 38424, Control_c, 0, 64, 84
1, 38424, Control_c, 0, 67, 113
1, 38453, Control_c, 0, 64, 85
1, 38498, Control_c, 0, 64, 84
1, 38513, Control_c, 0, 64, 83
1, 38528, Control_c, 0, 64, 79
1, 38543, Control_c, 0, 64, 69
1, 38553, Note_on_c, 0, 44, 39
1, 38553, Note_on_c, 0, 84, 38
1, 38558, Control_c, 0, 64, 46
1, 38558, Control_c, 0, 67, 113
1, 38572, Control_c, 0, 64, 0
1, 38602, Control_c, 0, 64, 56
1, 38602, Control_c, 0, 67, 112
1, 38617, Control_c, 0, 64, 66
1, 38632, Control_c, 0, 64, 70
1, 38646, Control_c, 0, 64, 74
1, 38659, Note_off_c, 0, 84, 50
1, 38660, Note_on_c, 0, 87, 61
1, 38661, Control_c, 0, 64, 77
1, 38674, Note_off_c, 0, 44, 56
1, 38676, Control_c, 0, 64, 79
1, 38691, Control_c, 0, 64, 80
1, 38691, Control_c, 0, 67, 112
1, 38721, Control_c, 0, 64, 80
1, 38750, Note_off_c, 0, 87, 62
1, 38750, Control_c, 0, 64, 81
1, 38751, Note_on_c, 0, 84, 65
1, 38779, Control_c, 0, 64, 81
1, 38809, Control_c, 0, 64, 82
1, 38816, Note_off_c, 0, 84, 64
1, 38824, Control_c, 0, 64, 83
1, 38832, Note_on_c, 0, 80, 68
1, 38839, Control_c, 0, 64, 84
1, 38861, Note_off_c, 0, 80, 66
1, 38913, Control_c, 0, 64, 83
1, 38915, Note_on_c, 0, 80, 66
1, 38929, Control_c, 0, 64, 79
1, 38930, Note_on_c, 0, 56, 45
1, 38943, Control_c, 0, 64, 75
1, 38945, Note_on_c, 0, 60, 40
1, 38949, Note_on_c, 0, 51, 38
1, 38958, Control_c, 0, 64, 70
1, 38973, Control_c, 0, 64, 66
1, 38988, Control_c, 0, 64, 64
1, 38993, Note_off_c, 0, 80, 64
1, 38998, Note_off_c, 0, 56, 0
1, 38998, Note_on_c, 0, 56, 3
1, 39008, Note_on_c, 0, 84, 63
1, 39032, Control_c, 0, 67, 112
1, 39047, Control_c, 0, 64, 64
1, 39047, Control_c, 0, 67, 113
1, 39068, Note_off_c, 0, 84, 63
1, 39076, Control_c, 0, 64, 63
1, 39076, Control_c, 0, 67, 113
1, 39086, Note_on_c, 0, 80, 64
1, 39106, Control_c, 0, 67, 114
1, 39121, Control_c, 0, 64, 63
1, 39133, Note_off_c, 0, 80, 62
1, 39174, Note_on_c, 0, 75, 67
1, 39188, Control_c, 0, 64, 62
1, 39188, Control_c, 0, 67, 114
1, 39201, Note_off_c, 0, 75, 67
1, 39202, Control_c, 0, 64, 62
1, 39217, Control_c, 0, 64, 61
1, 39232, Control_c, 0, 64, 59
1, 39247, Control_c, 0, 64, 57
1, 39262, Note_on_c, 0, 75, 70
1, 39262, Control_c, 0, 64, 56
1, 39276, Control_c, 0, 64, 54
1, 39291, Control_c, 0, 64, 52
1, 39306, Control_c, 0, 64, 50
1, 39321, Control_c, 0, 64, 48
1, 39332, Note_off_c, 0, 75, 62
1, 39336, Note_on_c, 0, 80, 70
1, 39336, Control_c, 0, 64, 48
1, 39350, Control_c, 0, 64, 47
1, 39365, Control_c, 0, 64, 46
1, 39365, Control_c, 0, 67, 114
1, 39420, Note_on_c, 0, 75, 66
1, 39421, Note_off_c, 0, 80, 62
1, 39440, Control_c, 0, 64, 46
1, 39455, Control_c, 0, 64, 45
1, 39470, Control_c, 0, 64, 44
1, 39483, Note_off_c, 0, 75, 64
1, 39484, Control_c, 0, 64, 42
1, 39484, Control_c, 0, 67, 113
1, 39499, Control_c, 0, 64, 39
1, 39499, Control_c, 0, 67, 113
1, 39510, Note_on_c, 0, 72, 68
1, 39514, Control_c, 0, 64, 35
1, 39529, Control_c, 0, 64, 33
1, 39538, Note_off_c, 0, 72, 66
1, 39544, Control_c, 0, 64, 31
1, 39558, Control_c, 0, 64, 29
1, 39558, Control_c, 0, 67, 112
1, 39573, Control_c, 0, 64, 26
1, 39588, Control_c, 0, 64, 25
1, 39590, Note_on_c, 0, 72, 61
1, 39602, Control_c, 0, 64, 23
1, 39617, Control_c, 0, 64, 22
1, 39656, Note_off_c, 0, 72, 60
1, 39662, Control_c, 0, 64, 25
1, 39666, Note_on_c, 0, 75, 68
1, 39676, Control_c, 0, 64, 29
1, 39691, Control_c, 0, 64, 33
1, 39706, Control_c, 0, 64, 35
1, 39722, Control_c, 0, 64, 37
1, 39722, Control_c, 0, 67, 113
1, 39733, Note_off_c, 0, 75, 64
1, 39737, Control_c, 0, 64, 38
1, 39744, Note_on_c, 0, 72, 65
1, 39752, Control_c, 0, 64, 40
1, 39766, Control_c, 0, 64, 41
1, 39793, Note_off_c, 0, 72, 61
1, 39796, Control_c, 0, 64, 40
1, 39811, Control_c, 0, 64, 40
1, 39816, Note_on_c, 0, 68, 69
1, 39825, Control_c, 0, 64, 39
1, 39840, Control_c, 0, 64, 38
1, 39851, Note_off_c, 0, 68, 63
1, 39855, Control_c, 0, 64, 37
1, 39870, Control_c, 0, 64, 33
1, 39870, Control_c, 0, 67, 112
1, 39885, Control_c, 0, 64, 29
1, 39885, Control_c, 0, 67, 112
1, 39907, Note_on_c, 0, 68, 62
1, 39907, Control_c, 0, 64, 23
1, 39922, Control_c, 0, 64, 0
1, 39982, Note_off_c, 0, 68, 64
1, 39988, Note_on_c, 0, 72, 68
1, 39996, Control_c, 0, 67, 111
1, 40023, Note_off_c, 0, 60, 55
1, 40041, Note_off_c, 0, 51, 50
1, 40047, Note_off_c, 0, 72, 60
1, 40054, Note_off_c, 0, 56, 38
1, 40077, Note_on_c, 0, 68, 57
1, 40085, Control_c, 0, 67, 112
1, 40114, Note_off_c, 0, 68, 65
1, 40157, Note_on_c, 0, 63, 47
1, 40186, Note_off_c, 0, 63, 56
1, 40240, Note_on_c, 0, 67, 49
1, 40244, Note_on_c, 0, 70, 57
1, 40263, Control_c, 0, 67, 111
1, 40269, Note_on_c, 0, 51, 44
1, 40269, Note_on_c, 0, 61, 42
1, 40292, Note_off_c, 0, 67, 55
1, 40292, Control_c, 0, 67, 111
1, 40307, Control_c, 0, 67, 109
1, 40322, Control_c, 0, 64, 62
1, 40322, Control_c, 0, 67, 108
1, 40334, Note_off_c, 0, 61, 56
1, 40337, Control_c, 0, 64, 67
1, 40337, Control_c, 0, 67, 103
1, 40345, Note_off_c, 0, 51, 52
1, 40346, Note_off_c, 0, 70, 51
1, 40351, Control_c, 0, 64, 69
1, 40351, Control_c, 0, 67, 95
1, 40366, Control_c, 0, 64, 73
1, 40366, Control_c, 0, 67, 90
1, 40381, Control_c, 0, 64, 77
1, 40381, Control_c, 0, 67, 84
1, 40396, Control_c, 0, 64, 81
1, 40396, Control_c, 0, 67, 78
1, 40411, Control_c, 0, 64, 82
1, 40411, Control_c, 0, 67, 72
1, 40425, Control_c, 0, 64, 83
1, 40425, Control_c, 0, 67, 67
1, 40440, Control_c, 0, 64, 83
1, 40440, Control_c, 0, 67, 65
1, 40455, Control_c, 0, 67, 63
1, 40470, Control_c, 0, 64, 84
1, 40470, Control_c, 0, 67, 62
1, 40485, Control_c, 0, 67, 61
1, 40499, Control_c, 0, 64, 84
1, 40499, Control_c, 0, 67, 59
1, 40515, Control_c, 0, 64, 85
1, 40515, Control_c, 0, 67, 58
1, 40530, Control_c, 0, 64, 85
1, 40530, Control_c, 0, 67, 58
1, 40545, Control_c, 0, 64, 86
1, 40545, Control_c, 0, 67, 57
1, 40560, Control_c, 0, 64, 86
1, 40560, Control_c, 0, 67, 57
1, 40656, Control_c, 0, 64, 83
1, 40671, Control_c, 0, 64, 76
1, 40686, Control_c, 0, 64, 65
1, 40692, Note_on_c, 0, 44, 40
1, 40694, Note_on_c, 0, 87, 51
1, 40701, Control_c, 0, 64, 0
1, 40730, Control_c, 0, 64, 52
1, 40745, Control_c, 0, 64, 65
1, 40745, Control_c, 0, 67, 57
1, 40760, Control_c, 0, 64, 70
1, 40774, Control_c, 0, 64, 73
1, 40781, Note_off_c, 0, 87, 62
1, 40789, Control_c, 0, 64, 75
1, 40791, Note_off_c, 0, 44, 54
1, 40804, Note_on_c, 0, 92, 69
1, 40804, Control_c, 0, 64, 76
1, 40819, Control_c, 0, 64, 77
1, 40834, Control_c, 0, 64, 78
1, 40834, Control_c, 0, 67, 57
1, 40848, Control_c, 0, 64, 79
1, 40863, Control_c, 0, 64, 79
1, 40878, Control_c, 0, 64, 80
1, 40893, Note_off_c, 0, 92, 64
1, 40901, Note_on_c, 0, 87, 68
1, 40908, Control_c, 0, 67, 56
1, 40937, Note_off_c, 0, 87, 58
1, 40937, Control_c, 0, 64, 80
1, 40937, Control_c, 0, 67, 56
1, 40966, Control_c, 0, 67, 54
1, 40975, Note_on_c, 0, 84, 67
1, 40981, Control_c, 0, 67, 52
1, 40996, Control_c, 0, 67, 52
1, 41002, Note_off_c, 0, 84, 69
1, 41011, Control_c, 0, 67, 51
1, 41041, Control_c, 0, 64, 79
1, 41054, Note_on_c, 0, 84, 73
1, 41056, Control_c, 0, 64, 74
1, 41063, Note_on_c, 0, 51, 54
1, 41067, Note_on_c, 0, 60, 55
1, 41070, Note_on_c, 0, 56, 48
1, 41070, Control_c, 0, 64, 65
1, 41070, Control_c, 0, 67, 52
1, 41085, Control_c, 0, 64, 0
1, 41100, Control_c, 0, 67, 52
1, 41114, Note_off_c, 0, 84, 53
1, 41115, Control_c, 0, 64, 11
1, 41130, Control_c, 0, 64, 63
1, 41130, Control_c, 0, 67, 53
1, 41137, Note_on_c, 0, 87, 67
1, 41145, Control_c, 0, 64, 67
1, 41145, Control_c, 0, 67, 53
1, 41160, Control_c, 0, 64, 70
1, 41174, Control_c, 0, 64, 72
1, 41189, Control_c, 0, 64, 72
1, 41189, Control_c, 0, 67, 54
1, 41204, Control_c, 0, 64, 73
1, 41207, Note_off_c, 0, 87, 63
1, 41218, Note_on_c, 0, 84, 71
1, 41219, Control_c, 0, 64, 73
1, 41219, Control_c, 0, 67, 54
1, 41234, Control_c, 0, 64, 74
1, 41234, Control_c, 0, 67, 55
1, 41248, Control_c, 0, 64, 74
1, 41248, Control_c, 0, 67, 55
1, 41263, Control_c, 0, 67, 56
1, 41274, Note_off_c, 0, 84, 62
1, 41303, Note_on_c, 0, 80, 68
1, 41331, Note_off_c, 0, 80, 68
1, 41352, Control_c, 0, 67, 55
1, 41367, Control_c, 0, 64, 74
1, 41382, Control_c, 0, 64, 73
1, 41382, Control_c, 0, 67, 55
1, 41385, Note_on_c, 0, 80, 71
1, 41404, Control_c, 0, 64, 72
1, 41419, Control_c, 0, 64, 69
1, 41434, Control_c, 0, 64, 65
1, 41449, Control_c, 0, 64, 58
1, 41458, Note_off_c, 0, 80, 61
1, 41464, Control_c, 0, 64, 45
1, 41468, Note_on_c, 0, 84, 73
1, 41478, Control_c, 0, 64, 29
1, 41493, Control_c, 0, 64, 0
1, 41508, Control_c, 0, 67, 55
1, 41523, Control_c, 0, 67, 56
1, 41537, Note_off_c, 0, 84, 64
1, 41543, Note_on_c, 0, 80, 74
1, 41552, Control_c, 0, 67, 57
1, 41567, Control_c, 0, 67, 57
1, 41582, Control_c, 0, 67, 58
1, 41591, Note_off_c, 0, 80, 62
1, 41623, Note_on_c, 0, 75, 63
1, 41653, Note_off_c, 0, 75, 67
1, 41670, Control_c, 0, 67, 57
1, 41702, Note_on_c, 0, 75, 70
1, 41744, Control_c, 0, 67, 57
1, 41765, Note_off_c, 0, 75, 64
1, 41776, Note_on_c, 0, 80, 70
1, 41846, Note_on_c, 0, 75, 64
1, 41854, Note_off_c, 0, 80, 62
1, 41863, Control_c, 0, 67, 56
1, 41878, Control_c, 0, 67, 56
1, 41908, Note_off_c, 0, 75, 64
1, 41908, Control_c, 0, 67, 55
1, 41924, Note_on_c, 0, 72, 66
1, 41937, Control_c, 0, 67, 55
1, 41953, Note_off_c, 0, 72, 65
1, 42004, Note_on_c, 0, 72, 55
1, 42011, Control_c, 0, 67, 54
1, 42063, Note_off_c, 0, 72, 65
1, 42071, Note_on_c, 0, 75, 71
1, 42119, Note_off_c, 0, 60, 57
1, 42143, Note_off_c, 0, 51, 56
1, 42150, Note_off_c, 0, 75, 63
1, 42153, Control_c, 0, 67, 54
1, 42155, Note_on_c, 0, 72, 66
1, 42191, Note_off_c, 0, 72, 58
1, 42201, Note_off_c, 0, 56, 30
1, 42228, Note_on_c, 0, 68, 65
1, 42257, Control_c, 0, 67, 53
1, 42281, Note_off_c, 0, 68, 60
1, 42316, Control_c, 0, 67, 53
1, 42325, Note_on_c, 0, 67, 62
1, 42329, Note_on_c, 0, 70, 58
1, 42331, Control_c, 0, 67, 52
1, 42343, Note_on_c, 0, 61, 37
1, 42346, Control_c, 0, 67, 52
1, 42349, Note_on_c, 0, 51, 38
1, 42361, Control_c, 0, 67, 51
1, 42365, Note_off_c, 0, 67, 56
1, 42391, Control_c, 0, 67, 51
1, 42406, Control_c, 0, 64, 64
1, 42420, Control_c, 0, 64, 68
1, 42420, Control_c, 0, 67, 50
1, 42427, Note_off_c, 0, 61, 57
1, 42429, Note_off_c, 0, 70, 58
1, 42435, Control_c, 0, 64, 71
1, 42435, Control_c, 0, 67, 50
1, 42450, Control_c, 0, 64, 76
1, 42450, Control_c, 0, 67, 49
1, 42465, Control_c, 0, 64, 80
1, 42465, Control_c, 0, 67, 44
1, 42469, Note_off_c, 0, 51, 53
1, 42480, Control_c, 0, 64, 82
1, 42480, Control_c, 0, 67, 37
1, 42494, Control_c, 0, 64, 82
1, 42494, Control_c, 0, 67, 33
1, 42509, Control_c, 0, 64, 83
1, 42509, Control_c, 0, 67, 29
1, 42524, Control_c, 0, 67, 25
1, 42538, Control_c, 0, 67, 23
1, 42553, Control_c, 0, 67, 22
1, 42568, Control_c, 0, 64, 84
1, 42568, Control_c, 0, 67, 21
1, 42583, Control_c, 0, 64, 84
1, 42583, Control_c, 0, 67, 21
1, 42598, Control_c, 0, 64, 85
1, 42612, Control_c, 0, 64, 86
1, 42657, Control_c, 0, 64, 85
1, 42672, Control_c, 0, 64, 81
1, 42686, Control_c, 0, 64, 74
1, 42693, Note_on_c, 0, 44, 51
1, 42701, Control_c, 0, 64, 63
1, 42716, Control_c, 0, 64, 0
1, 42720, Note_on_c, 0, 87, 65
1, 42731, Control_c, 0, 64, 32
1, 42746, Control_c, 0, 64, 62
1, 42761, Control_c, 0, 64, 68
1, 42776, Control_c, 0, 64, 71
1, 42776, Control_c, 0, 67, 21
1, 42790, Control_c, 0, 64, 75
1, 42790, Control_c, 0, 67, 22
1, 42802, Note_off_c, 0, 87, 61
1, 42805, Control_c, 0, 64, 77
1, 42810, Note_on_c, 0, 92, 72
1, 42820, Control_c, 0, 64, 79
1, 42835, Control_c, 0, 64, 81
1, 42841, Note_off_c, 0, 44, 58
1, 42850, Control_c, 0, 64, 83
1, 42865, Control_c, 0, 64, 84
1, 42880, Control_c, 0, 64, 85
1, 42901, Control_c, 0, 64, 86
1, 42905, Note_on_c, 0, 87, 76
1, 42908, Note_off_c, 0, 92, 64
1, 42932, Control_c, 0, 64, 87
1, 42947, Control_c, 0, 64, 88
1, 42947, Control_c, 0, 67, 22
1, 42962, Control_c, 0, 64, 88
1, 42964, Note_off_c, 0, 87, 63
1, 42977, Control_c, 0, 64, 89
1, 42979, Note_on_c, 0, 84, 78
1, 43020, Note_off_c, 0, 84, 64
1, 43050, Control_c, 0, 64, 88
1, 43054, Poly_aftertouch_c, 0, 84, 0
1, 43062, Note_on_c, 0, 84, 68
1, 43065, Control_c, 0, 64, 84
1, 43076, Note_on_c, 0, 60, 67
1, 43080, Note_on_c, 0, 51, 57
1, 43080, Control_c, 0, 64, 77
1, 43092, Note_on_c, 0, 56, 56
1, 43095, Control_c, 0, 64, 67
1, 43110, Control_c, 0, 64, 0
1, 43110, Control_c, 0, 67, 22
1, 43139, Control_c, 0, 64, 49
1, 43154, Control_c, 0, 64, 66
1, 43155, Note_on_c, 0, 87, 75
1, 43156, Note_off_c, 0, 84, 65
1, 43169, Control_c, 0, 64, 71
1, 43184, Control_c, 0, 64, 74
1, 43184, Control_c, 0, 67, 22
1, 43199, Control_c, 0, 64, 76
1, 43214, Control_c, 0, 67, 23
1, 43229, Control_c, 0, 64, 76
1, 43229, Control_c, 0, 67, 23
1, 43235, Note_off_c, 0, 87, 62
1, 43237, Note_on_c, 0, 84, 75
1, 43258, Control_c, 0, 67, 24
1, 43288, Control_c, 0, 67, 25
1, 43298, Note_off_c, 0, 84, 63
1, 43303, Control_c, 0, 67, 26
1, 43314, Note_on_c, 0, 80, 75
1, 43347, Control_c, 0, 64, 76
1, 43347, Control_c, 0, 67, 27
1, 43351, Note_off_c, 0, 80, 64
1, 43361, Control_c, 0, 64, 74
1, 43376, Control_c, 0, 64, 72
1, 43391, Control_c, 0, 64, 68
1, 43391, Control_c, 0, 67, 27
1, 43399, Note_on_c, 0, 80, 65
1, 43406, Control_c, 0, 64, 63
1, 43406, Control_c, 0, 67, 28
1, 43421, Control_c, 0, 64, 45
1, 43435, Control_c, 0, 64, 29
1, 43435, Control_c, 0, 67, 29
1, 43450, Control_c, 0, 64, 20
1, 43450, Control_c, 0, 67, 29
1, 43465, Control_c, 0, 64, 16
1, 43465, Control_c, 0, 67, 30
1, 43476, Note_off_c, 0, 80, 63
1, 43479, Note_on_c, 0, 84, 72
1, 43480, Control_c, 0, 64, 0
1, 43480, Control_c, 0, 67, 30
1, 43509, Control_c, 0, 67, 31
1, 43539, Control_c, 0, 67, 32
1, 43545, Note_off_c, 0, 84, 63
1, 43552, Note_on_c, 0, 80, 71
1, 43554, Control_c, 0, 67, 34
1, 43568, Control_c, 0, 67, 38
1, 43583, Control_c, 0, 67, 44
1, 43598, Control_c, 0, 67, 50
1, 43603, Note_off_c, 0, 80, 63
1, 43613, Control_c, 0, 67, 56
1, 43628, Control_c, 0, 67, 61
1, 43629, Note_on_c, 0, 75, 68
1, 43650, Control_c, 0, 67, 68
1, 43663, Note_off_c, 0, 75, 69
1, 43665, Control_c, 0, 67, 76
1, 43680, Control_c, 0, 67, 87
1, 43695, Control_c, 0, 67, 101
1, 43710, Control_c, 0, 67, 111
1, 43726, Note_on_c, 0, 75, 67
1, 43726, Control_c, 0, 67, 120
1, 43740, Control_c, 0, 67, 127
1, 43795, Note_off_c, 0, 75, 63
1, 43803, Note_on_c, 0, 80, 69
1, 43880, Note_on_c, 0, 75, 61
1, 43880, Note_off_c, 0, 80, 62
1, 43935, Note_off_c, 0, 75, 63
1, 43962, Note_on_c, 0, 72, 60
1, 43991, Note_off_c, 0, 72, 67
1, 44058, Note_on_c, 0, 72, 59
1, 44108, Note_off_c, 0, 72, 57
1, 44132, Note_on_c, 0, 75, 66
1, 44165, Note_off_c, 0, 60, 56
1, 44183, Note_off_c, 0, 51, 57
1, 44190, Note_off_c, 0, 75, 61
1, 44196, Note_off_c, 0, 56, 53
1, 44216, Note_on_c, 0, 72, 59
1, 44249, Note_off_c, 0, 72, 60
1, 44294, Note_on_c, 0, 68, 53
1, 44365, Note_off_c, 0, 68, 58
1, 44424, Note_on_c, 0, 67, 48
1, 44427, Note_on_c, 0, 61, 47
1, 44433, Note_on_c, 0, 70, 46
1, 44447, Note_on_c, 0, 51, 34
1, 44534, Control_c, 0, 64, 20
1, 44549, Control_c, 0, 64, 63
1, 44563, Control_c, 0, 64, 67
1, 44578, Control_c, 0, 64, 68
1, 44588, Note_off_c, 0, 61, 56
1, 44593, Control_c, 0, 64, 68
1, 44602, Note_off_c, 0, 67, 34
1, 44608, Control_c, 0, 64, 69
1, 44613, Note_off_c, 0, 51, 50
1, 44613, Note_off_c, 0, 70, 57
1, 44622, Control_c, 0, 64, 70
1, 44637, Control_c, 0, 64, 70
1, 44667, Control_c, 0, 64, 71
1, 44770, Control_c, 0, 64, 70
1, 44785, Control_c, 0, 64, 70
1, 44800, Control_c, 0, 64, 69
1, 44814, Control_c, 0, 64, 67
1, 44829, Control_c, 0, 64, 64
1, 44844, Control_c, 0, 64, 59
1, 44859, Control_c, 0, 64, 44
1, 44874, Control_c, 0, 64, 0
1, 44914, Note_on_c, 0, 44, 44
1, 44927, Note_on_c, 0, 72, 53
1, 44961, Note_off_c, 0, 44, 49
1, 44980, Note_off_c, 0, 72, 51
1, 45014, Note_on_c, 0, 75, 54
1, 45080, Note_off_c, 0, 75, 62
1, 45091, Note_on_c, 0, 72, 58
1, 45145, Note_off_c, 0, 72, 62
1, 45167, Note_on_c, 0, 68, 63
1, 45201, Note_off_c, 0, 68, 63
1, 45262, Note_on_c, 0, 68, 58
1, 45262, Note_on_c, 0, 56, 38
1, 45265, Note_on_c, 0, 54, 36
1, 45269, Note_on_c, 0, 60, 36
1, 45327, Note_off_c, 0, 68, 63
1, 45342, Note_on_c, 0, 72, 56
1, 45386, Note_off_c, 0, 72, 62
1, 45426, Note_on_c, 0, 68, 60
1, 45461, Note_off_c, 0, 68, 64
1, 45512, Note_on_c, 0, 63, 47
1, 45550, Note_off_c, 0, 63, 53
1, 45616, Note_on_c, 0, 68, 48
1, 45662, Note_off_c, 0, 68, 51
1, 45943, Note_off_c, 0, 56, 40
1, 45952, Note_off_c, 0, 60, 52
1, 45962, Note_on_c, 0, 73, 56
1, 45965, Note_on_c, 0, 49, 44
1, 45966, Note_off_c, 0, 54, 33
1, 46024, Note_off_c, 0, 73, 62
1, 46041, Note_on_c, 0, 77, 67
1, 46117, Note_off_c, 0, 77, 61
1, 46124, Note_on_c, 0, 73, 64
1, 46166, Note_off_c, 0, 73, 61
1, 46198, Note_on_c, 0, 68, 60
1, 46228, Note_off_c, 0, 68, 66
1, 46260, Note_off_c, 0, 49, 39
1, 46289, Note_on_c, 0, 61, 45
1, 46293, Note_on_c, 0, 68, 67
1, 46298, Note_on_c, 0, 53, 41
1, 46301, Note_on_c, 0, 56, 33
1, 46341, Note_off_c, 0, 68, 58
1, 46357, Control_c, 0, 67, 127
1, 46370, Note_on_c, 0, 73, 59
1, 46372, Control_c, 0, 67, 126
1, 46386, Control_c, 0, 67, 126
1, 46401, Control_c, 0, 67, 125
1, 46416, Control_c, 0, 67, 125
1, 46427, Note_off_c, 0, 73, 52
1, 46431, Control_c, 0, 67, 124
1, 46453, Note_on_c, 0, 68, 55
1, 46475, Control_c, 0, 67, 124
1, 46497, Note_off_c, 0, 68, 64
1, 46520, Control_c, 0, 67, 123
1, 46528, Note_on_c, 0, 65, 47
1, 46569, Note_off_c, 0, 65, 50
1, 46594, Control_c, 0, 67, 123
1, 46624, Control_c, 0, 67, 122
1, 46646, Control_c, 0, 67, 120
1, 46648, Note_on_c, 0, 68, 42
1, 46661, Control_c, 0, 67, 119
1, 46675, Control_c, 0, 67, 117
1, 46690, Control_c, 0, 67, 116
1, 46696, Note_off_c, 0, 68, 45
1, 46705, Control_c, 0, 64, 51
1, 46705, Control_c, 0, 67, 114
1, 46713, Note_off_c, 0, 61, 57
1, 46719, Control_c, 0, 64, 66
1, 46719, Control_c, 0, 67, 113
1, 46731, Note_off_c, 0, 56, 42
1, 46734, Control_c, 0, 64, 70
1, 46734, Control_c, 0, 67, 112
1, 46749, Control_c, 0, 64, 74
1, 46749, Control_c, 0, 67, 111
1, 46763, Note_off_c, 0, 53, 42
1, 46764, Control_c, 0, 64, 77
1, 46764, Control_c, 0, 67, 111
1, 46779, Control_c, 0, 64, 81
1, 46794, Control_c, 0, 64, 82
1, 46809, Control_c, 0, 64, 83
1, 46824, Control_c, 0, 64, 83
1, 46839, Control_c, 0, 64, 84
1, 46853, Control_c, 0, 67, 111
1, 46868, Control_c, 0, 64, 85
1, 46883, Control_c, 0, 64, 86
1, 46898, Control_c, 0, 64, 86
1, 46913, Control_c, 0, 64, 87
1, 46988, Control_c, 0, 64, 86
1, 47002, Note_on_c, 0, 39, 51
1, 47002, Control_c, 0, 64, 80
1, 47013, Note_on_c, 0, 75, 56
1, 47017, Control_c, 0, 64, 71
1, 47032, Control_c, 0, 64, 50
1, 47032, Control_c, 0, 67, 111
1, 47047, Control_c, 0, 64, 0
1, 47062, Control_c, 0, 64, 25
1, 47077, Control_c, 0, 64, 63
1, 47085, Note_off_c, 0, 75, 65
1, 47091, Control_c, 0, 64, 68
1, 47091, Control_c, 0, 67, 111
1, 47095, Note_off_c, 0, 39, 60
1, 47098, Note_on_c, 0, 79, 69
1, 47106, Control_c, 0, 64, 71
1, 47121, Control_c, 0, 64, 73
1, 47162, Note_off_c, 0, 79, 62
1, 47171, Note_on_c, 0, 75, 64
1, 47180, Control_c, 0, 64, 74
1, 47195, Control_c, 0, 67, 112
1, 47227, Note_off_c, 0, 75, 63
1, 47239, Control_c, 0, 67, 113
1, 47252, Note_on_c, 0, 70, 72
1, 47254, Control_c, 0, 64, 73
1, 47269, Control_c, 0, 64, 73
1, 47280, Note_off_c, 0, 70, 63
1, 47283, Control_c, 0, 64, 71
1, 47298, Control_c, 0, 64, 67
1, 47313, Control_c, 0, 64, 62
1, 47327, Control_c, 0, 64, 47
1, 47342, Note_on_c, 0, 70, 69
1, 47343, Control_c, 0, 64, 11
1, 47351, Note_on_c, 0, 61, 54
1, 47354, Note_on_c, 0, 51, 49
1, 47358, Control_c, 0, 64, 0
1, 47361, Note_on_c, 0, 58, 48
1, 47396, Control_c, 0, 67, 113
1, 47414, Note_off_c, 0, 70, 60
1, 47425, Control_c, 0, 67, 113
1, 47432, Note_on_c, 0, 75, 56
1, 47491, Note_off_c, 0, 75, 58
1, 47507, Note_on_c, 0, 70, 56
1, 47543, Control_c, 0, 67, 113
1, 47562, Note_off_c, 0, 70, 58
1, 47573, Control_c, 0, 67, 113
1, 47596, Note_on_c, 0, 67, 46
1, 47662, Control_c, 0, 67, 113
1, 47665, Note_off_c, 0, 67, 49
1, 47696, Note_on_c, 0, 70, 53
1, 47706, Control_c, 0, 67, 114
1, 47722, Control_c, 0, 67, 114
1, 47737, Control_c, 0, 67, 115
1, 47752, Control_c, 0, 67, 116
1, 47757, Note_off_c, 0, 58, 58
1, 47766, Control_c, 0, 64, 50
1, 47766, Control_c, 0, 67, 116
1, 47781, Control_c, 0, 64, 65
1, 47781, Control_c, 0, 67, 117
1, 47792, Note_off_c, 0, 70, 49
1, 47796, Control_c, 0, 64, 69
1, 47796, Control_c, 0, 67, 118
1, 47811, Control_c, 0, 64, 72
1, 47811, Control_c, 0, 67, 118
1, 47822, Note_off_c, 0, 61, 56
1, 47826, Control_c, 0, 64, 75
1, 47836, Note_off_c, 0, 51, 55
1, 47840, Control_c, 0, 64, 78
1, 47855, Control_c, 0, 64, 79
1, 47870, Control_c, 0, 64, 80
1, 47930, Control_c, 0, 64, 80
1, 47974, Control_c, 0, 67, 118
1, 48048, Control_c, 0, 64, 80
1, 48048, Control_c, 0, 67, 118
1, 48063, Control_c, 0, 64, 77
1, 48078, Control_c, 0, 64, 69
1, 48089, Note_on_c, 0, 44, 40
1, 48092, Control_c, 0, 64, 30
1, 48093, Note_on_c, 0, 75, 46
1, 48106, Control_c, 0, 64, 0
1, 48106, Control_c, 0, 67, 118
1, 48121, Control_c, 0, 67, 117
1, 48148, Note_off_c, 0, 75, 55
1, 48173, Control_c, 0, 64, 60
1, 48187, Note_on_c, 0, 80, 60
1, 48188, Control_c, 0, 64, 66
1, 48193, Note_off_c, 0, 44, 60
1, 48203, Control_c, 0, 64, 69
1, 48218, Control_c, 0, 64, 69
1, 48218, Control_c, 0, 67, 117
1, 48232, Control_c, 0, 64, 70
1, 48232, Control_c, 0, 67, 116
1, 48247, Control_c, 0, 64, 70
1, 48260, Note_off_c, 0, 80, 60
1, 48262, Control_c, 0, 64, 71
1, 48262, Control_c, 0, 67, 116
1, 48268, Note_on_c, 0, 75, 67
1, 48277, Control_c, 0, 64, 71
1, 48277, Control_c, 0, 67, 115
1, 48292, Control_c, 0, 64, 72
1, 48303, Note_off_c, 0, 75, 65
1, 48346, Note_on_c, 0, 72, 60
1, 48351, Control_c, 0, 64, 70
1, 48351, Control_c, 0, 67, 115
1, 48364, Note_off_c, 0, 72, 65
1, 48365, Control_c, 0, 64, 68
1, 48380, Control_c, 0, 64, 62
1, 48380, Control_c, 0, 67, 114
1, 48395, Control_c, 0, 64, 36
1, 48395, Control_c, 0, 67, 114
1, 48410, Control_c, 0, 64, 0
1, 48421, Note_on_c, 0, 56, 39
1, 48433, Note_on_c, 0, 60, 33
1, 48433, Note_on_c, 0, 51, 41
1, 48448, Note_on_c, 0, 72, 49
1, 48454, Control_c, 0, 67, 114
1, 48483, Note_off_c, 0, 72, 51
1, 48520, Note_on_c, 0, 75, 54
1, 48530, Control_c, 0, 67, 114
1, 48570, Note_off_c, 0, 75, 59
1, 48597, Note_on_c, 0, 72, 55
1, 48637, Note_off_c, 0, 72, 64
1, 48679, Note_on_c, 0, 68, 50
1, 48714, Note_off_c, 0, 68, 52
1, 48722, Control_c, 0, 67, 114
1, 48778, Note_on_c, 0, 72, 43
1, 48818, Note_off_c, 0, 72, 53
1, 48841, Control_c, 0, 67, 115
1, 48967, Control_c, 0, 64, 41
1, 48982, Control_c, 0, 64, 63
1, 48996, Control_c, 0, 64, 66
1, 48996, Control_c, 0, 67, 114
1, 49011, Control_c, 0, 64, 68
1, 49026, Control_c, 0, 64, 71
1, 49026, Control_c, 0, 67, 114
1, 49041, Control_c, 0, 64, 75
1, 49041, Control_c, 0, 67, 113
1, 49055, Control_c, 0, 64, 77
1, 49055, Control_c, 0, 67, 113
1, 49059, Note_off_c, 0, 60, 51
1, 49070, Control_c, 0, 64, 79
1, 49072, Note_off_c, 0, 56, 42
1, 49077, Note_off_c, 0, 51, 44
1, 49085, Control_c, 0, 64, 80
1, 49100, Control_c, 0, 64, 80
1, 49100, Control_c, 0, 67, 113
1, 49114, Control_c, 0, 64, 81
1, 49129, Control_c, 0, 64, 82
1, 49159, Control_c, 0, 67, 113
1, 49174, Control_c, 0, 64, 81
1, 49188, Control_c, 0, 64, 79
1, 49203, Control_c, 0, 64, 72
1, 49203, Control_c, 0, 67, 112
1, 49218, Control_c, 0, 64, 64
1, 49233, Control_c, 0, 64, 49
1, 49239, Note_on_c, 0, 84, 51
1, 49242, Note_on_c, 0, 44, 36
1, 49248, Control_c, 0, 64, 60
1, 49262, Control_c, 0, 64, 67
1, 49262, Control_c, 0, 67, 113
1, 49277, Control_c, 0, 64, 72
1, 49292, Control_c, 0, 64, 76
1, 49297, Note_off_c, 0, 44, 58
1, 49308, Control_c, 0, 64, 77
1, 49311, Note_off_c, 0, 84, 52
1, 49335, Note_on_c, 0, 87, 64
1, 49352, Control_c, 0, 67, 112
1, 49409, Note_off_c, 0, 87, 62
1, 49419, Note_on_c, 0, 84, 70
1, 49441, Control_c, 0, 67, 112
1, 49474, Note_off_c, 0, 84, 63
1, 49488, Note_on_c, 0, 80, 72
1, 49515, Control_c, 0, 64, 76
1, 49520, Note_off_c, 0, 80, 61
1, 49530, Control_c, 0, 64, 75
1, 49530, Control_c, 0, 67, 111
1, 49545, Control_c, 0, 64, 71
1, 49560, Control_c, 0, 64, 65
1, 49568, Note_on_c, 0, 60, 43
1, 49568, Note_on_c, 0, 80, 68
1, 49574, Note_on_c, 0, 54, 47
1, 49575, Control_c, 0, 64, 48
1, 49578, Note_on_c, 0, 56, 42
1, 49590, Control_c, 0, 64, 0
1, 49590, Control_c, 0, 67, 111
1, 49619, Control_c, 0, 67, 110
1, 49655, Note_off_c, 0, 80, 63
1, 49658, Note_on_c, 0, 84, 65
1, 49671, Control_c, 0, 67, 110
1, 49685, Control_c, 0, 67, 109
1, 49715, Control_c, 0, 67, 108
1, 49730, Note_off_c, 0, 84, 62
1, 49730, Control_c, 0, 67, 104
1, 49745, Control_c, 0, 67, 101
1, 49749, Note_on_c, 0, 80, 69
1, 49760, Control_c, 0, 67, 100
1, 49775, Control_c, 0, 67, 99
1, 49790, Control_c, 0, 67, 98
1, 49798, Note_off_c, 0, 80, 63
1, 49805, Control_c, 0, 67, 98
1, 49819, Control_c, 0, 67, 96
1, 49826, Note_on_c, 0, 75, 58
1, 49834, Control_c, 0, 67, 94
1, 49849, Control_c, 0, 67, 92
1, 49864, Control_c, 0, 67, 90
1, 49871, Note_off_c, 0, 75, 60
1, 49879, Control_c, 0, 67, 89
1, 49893, Control_c, 0, 67, 88
1, 49908, Control_c, 0, 67, 86
1, 49917, Note_on_c, 0, 80, 63
1, 49923, Control_c, 0, 67, 84
1, 49937, Control_c, 0, 67, 80
1, 49952, Control_c, 0, 67, 76
1, 49967, Control_c, 0, 67, 70
1, 49982, Control_c, 0, 67, 65
1, 49990, Note_off_c, 0, 80, 61
1, 49997, Control_c, 0, 67, 59
1, 50011, Control_c, 0, 67, 53
1, 50026, Control_c, 0, 67, 48
1, 50041, Control_c, 0, 67, 43
1, 50056, Control_c, 0, 67, 37
1, 50071, Control_c, 0, 67, 32
1, 50085, Control_c, 0, 67, 29
1, 50101, Control_c, 0, 67, 26
1, 50116, Control_c, 0, 67, 24
1, 50131, Control_c, 0, 67, 22
1, 50146, Control_c, 0, 67, 20
1, 50160, Control_c, 0, 67, 19
1, 50175, Control_c, 0, 67, 17
1, 50190, Control_c, 0, 67, 15
1, 50205, Control_c, 0, 67, 14
1, 50220, Control_c, 0, 67, 13
1, 50234, Control_c, 0, 67, 12
1, 50237, Note_on_c, 0, 49, 39
1, 50249, Control_c, 0, 67, 11
1, 50252, Note_off_c, 0, 54, 37
1, 50264, Control_c, 0, 67, 9
1, 50272, Note_on_c, 0, 85, 63
1, 50279, Control_c, 0, 67, 8
1, 50294, Control_c, 0, 67, 0
1, 50305, Note_off_c, 0, 60, 31
1, 50336, Note_off_c, 0, 56, 40
1, 50344, Note_off_c, 0, 85, 65
1, 50359, Note_on_c, 0, 89, 75
1, 50442, Note_off_c, 0, 89, 65
1, 50446, Note_on_c, 0, 85, 75
1, 50502, Note_off_c, 0, 85, 64
1, 50520, Note_on_c, 0, 80, 72
1, 50545, Note_off_c, 0, 80, 68
1, 50603, Note_on_c, 0, 61, 50
1, 50603, Note_on_c, 0, 53, 49
1, 50603, Note_on_c, 0, 80, 74
1, 50603, Note_off_c, 0, 49, 41
1, 50609, Note_on_c, 0, 56, 45
1, 50670, Note_off_c, 0, 80, 63
1, 50678, Note_on_c, 0, 85, 73
1, 50764, Note_off_c, 0, 85, 64
1, 50767, Note_on_c, 0, 80, 71
1, 50818, Note_off_c, 0, 80, 63
1, 50836, Note_on_c, 0, 77, 57
1, 50875, Note_off_c, 0, 77, 51
1, 50931, Note_on_c, 0, 80, 62
1, 50969, Control_c, 0, 64, 34
1, 50983, Control_c, 0, 64, 68
1, 50998, Control_c, 0, 64, 74
1, 51000, Note_off_c, 0, 80, 41
1, 51006, Note_off_c, 0, 61, 57
1, 51013, Control_c, 0, 64, 80
1, 51028, Control_c, 0, 64, 82
1, 51031, Note_off_c, 0, 56, 47
1, 51043, Control_c, 0, 64, 83
1, 51057, Control_c, 0, 64, 84
1, 51062, Note_off_c, 0, 53, 52
1, 51072, Control_c, 0, 64, 85
1, 51088, Control_c, 0, 64, 87
1, 51103, Control_c, 0, 64, 88
1, 51118, Control_c, 0, 64, 89
1, 51140, Control_c, 0, 64, 90
1, 51155, Control_c, 0, 64, 91
1, 51170, Control_c, 0, 64, 92
1, 51184, Control_c, 0, 64, 92
1, 51199, Control_c, 0, 64, 93
1, 51244, Control_c, 0, 64, 92
1, 51273, Control_c, 0, 64, 87
1, 51286, Note_on_c, 0, 39, 55
1, 51288, Control_c, 0, 64, 79
1, 51303, Control_c, 0, 64, 68
1, 51313, Note_on_c, 0, 87, 65
1, 51318, Control_c, 0, 64, 54
1, 51332, Control_c, 0, 64, 60
1, 51347, Control_c, 0, 64, 68
1, 51362, Control_c, 0, 64, 74
1, 51377, Control_c, 0, 64, 81
1, 51388, Note_off_c, 0, 39, 61
1, 51391, Control_c, 0, 64, 82
1, 51394, Note_off_c, 0, 87, 63
1, 51405, Note_on_c, 0, 91, 83
1, 51485, Note_off_c, 0, 91, 60
1, 51486, Note_on_c, 0, 87, 76
1, 51510, Control_c, 0, 64, 82
1, 51542, Note_off_c, 0, 87, 62
1, 51556, Note_on_c, 0, 82, 80
1, 51581, Note_off_c, 0, 82, 63
1, 51584, Control_c, 0, 64, 82
1, 51614, Control_c, 0, 64, 81
1, 51629, Note_on_c, 0, 61, 51
1, 51629, Control_c, 0, 64, 79
1, 51635, Note_on_c, 0, 51, 45
1, 51636, Note_on_c, 0, 58, 53
1, 51644, Control_c, 0, 64, 73
1, 51647, Note_on_c, 0, 82, 77
1, 51658, Control_c, 0, 64, 63
1, 51673, Control_c, 0, 64, 0
1, 51721, Note_off_c, 0, 82, 63
1, 51727, Note_on_c, 0, 87, 67
1, 51806, Note_off_c, 0, 87, 60
1, 51820, Note_on_c, 0, 82, 55
1, 51822, Control_c, 0, 67, 8
1, 51837, Control_c, 0, 67, 10
1, 51852, Control_c, 0, 67, 12
1, 51856, Note_off_c, 0, 82, 64
1, 51867, Control_c, 0, 67, 15
1, 51888, Control_c, 0, 67, 19
1, 51903, Control_c, 0, 67, 25
1, 51904, Note_on_c, 0, 79, 52
1, 51918, Control_c, 0, 67, 31
1, 51933, Control_c, 0, 67, 40
1, 51948, Control_c, 0, 67, 50
1, 51963, Control_c, 0, 67, 62
1, 51978, Control_c, 0, 67, 74
1, 51983, Note_off_c, 0, 79, 58
1, 51992, Control_c, 0, 67, 88
1, 52007, Control_c, 0, 64, 60
1, 52007, Control_c, 0, 67, 99
1, 52011, Note_on_c, 0, 82, 47
1, 52015, Note_off_c, 0, 58, 59
1, 52022, Control_c, 0, 64, 64
1, 52022, Control_c, 0, 67, 109
1, 52037, Control_c, 0, 64, 68
1, 52037, Control_c, 0, 67, 118
1, 52052, Control_c, 0, 64, 72
1, 52052, Control_c, 0, 67, 127
1, 52067, Note_off_c, 0, 61, 57
1, 52067, Control_c, 0, 64, 76
1, 52081, Control_c, 0, 64, 79
1, 52082, Note_off_c, 0, 51, 57
1, 52096, Control_c, 0, 64, 81
1, 52111, Control_c, 0, 64, 82
1, 52125, Control_c, 0, 64, 82
1, 52130, Note_off_c, 0, 82, 36
1, 52155, Control_c, 0, 64, 83
1, 52353, Note_on_c, 0, 44, 44
1, 52362, Control_c, 0, 64, 80
1, 52377, Control_c, 0, 64, 72
1, 52392, Control_c, 0, 64, 57
1, 52407, Control_c, 0, 64, 0
1, 52410, Note_on_c, 0, 87, 40
1, 52437, Control_c, 0, 64, 39
1, 52452, Control_c, 0, 64, 64
1, 52466, Control_c, 0, 64, 68
1, 52481, Control_c, 0, 64, 70
1, 52486, Note_off_c, 0, 87, 61
1, 52492, Note_off_c, 0, 44, 57
1, 52496, Control_c, 0, 64, 71
1, 52507, Note_on_c, 0, 92, 64
1, 52511, Control_c, 0, 64, 72
1, 52526, Control_c, 0, 64, 74
1, 52541, Control_c, 0, 64, 75
1, 52556, Control_c, 0, 64, 77
1, 52571, Control_c, 0, 64, 77
1, 52607, Note_on_c, 0, 87, 69
1, 52610, Note_off_c, 0, 92, 60
1, 52636, Control_c, 0, 64, 78
1, 52666, Note_off_c, 0, 87, 60
1, 52696, Note_on_c, 0, 84, 62
1, 52724, Note_off_c, 0, 84, 67
1, 52726, Control_c, 0, 64, 77
1, 52755, Control_c, 0, 64, 77
1, 52770, Control_c, 0, 64, 76
1, 52785, Control_c, 0, 64, 73
1, 52787, Note_on_c, 0, 56, 44
1, 52791, Note_on_c, 0, 51, 39
1, 52796, Note_on_c, 0, 60, 32
1, 52800, Control_c, 0, 64, 68
1, 52801, Note_on_c, 0, 84, 54
1, 52815, Control_c, 0, 64, 61
1, 52829, Control_c, 0, 64, 32
1, 52844, Control_c, 0, 64, 0
1, 52877, Note_off_c, 0, 84, 61
1, 52892, Note_on_c, 0, 87, 50
1, 52978, Note_off_c, 0, 87, 61
1, 53005, Note_on_c, 0, 84, 53
1, 53067, Note_off_c, 0, 84, 62
1, 53102, Note_on_c, 0, 80, 37
1, 53148, Note_off_c, 0, 80, 45
1, 53220, Note_on_c, 0, 84, 44
1, 53229, Control_c, 0, 64, 57
1, 53244, Control_c, 0, 64, 65
1, 53259, Control_c, 0, 64, 68
1, 53268, Note_off_c, 0, 84, 42
1, 53273, Control_c, 0, 64, 71
1, 53288, Control_c, 0, 64, 75
1, 53289, Note_off_c, 0, 60, 39
1, 53304, Control_c, 0, 64, 79
1, 53316, Note_off_c, 0, 56, 39
1, 53319, Control_c, 0, 64, 82
1, 53334, Control_c, 0, 64, 84
1, 53349, Control_c, 0, 64, 86
1, 53364, Control_c, 0, 64, 87
1, 53385, Control_c, 0, 64, 89
1, 53400, Control_c, 0, 64, 90
1, 53415, Control_c, 0, 64, 90
1, 53430, Control_c, 0, 64, 91
1, 53442, Note_off_c, 0, 51, 39
1, 53445, Control_c, 0, 64, 92
1, 53474, Control_c, 0, 64, 92
1, 53489, Control_c, 0, 64, 93
1, 53519, Control_c, 0, 64, 93
1, 53825, Note_on_c, 0, 51, 51
1, 53834, Note_on_c, 0, 72, 49
1, 53838, Note_on_c, 0, 44, 41
1, 53844, Control_c, 0, 64, 93
1, 53859, Control_c, 0, 64, 88
1, 53874, Control_c, 0, 64, 80
1, 53889, Control_c, 0, 64, 71
1, 53903, Control_c, 0, 64, 62
1, 53918, Control_c, 0, 64, 57
1, 53933, Control_c, 0, 64, 64
1, 53948, Control_c, 0, 64, 69
1, 53963, Note_off_c, 0, 72, 61
1, 53963, Control_c, 0, 64, 73
1, 53978, Control_c, 0, 64, 76
1, 53993, Note_on_c, 0, 75, 41
1, 53993, Control_c, 0, 64, 77
1, 54008, Control_c, 0, 64, 78
1, 54052, Control_c, 0, 64, 78
1, 54075, Note_off_c, 0, 75, 59
1, 54082, Control_c, 0, 64, 79
1, 54089, Note_on_c, 0, 72, 52
1, 54112, Control_c, 0, 64, 79
1, 54149, Note_off_c, 0, 72, 54
1, 54172, Note_on_c, 0, 68, 51
1, 54179, Control_c, 0, 64, 80
1, 54208, Note_off_c, 0, 68, 50
1, 54208, Control_c, 0, 64, 80
1, 54255, Note_on_c, 0, 56, 69
1, 54268, Control_c, 0, 64, 79
1, 54281, Note_on_c, 0, 68, 51
1, 54282, Control_c, 0, 64, 75
1, 54297, Control_c, 0, 64, 65
1, 54312, Control_c, 0, 64, 0
1, 54353, Note_off_c, 0, 68, 56
1, 54356, Control_c, 0, 64, 55
1, 54371, Control_c, 0, 64, 65
1, 54374, Note_on_c, 0, 72, 53
1, 54386, Control_c, 0, 64, 69
1, 54401, Control_c, 0, 64, 71
1, 54401, Control_c, 0, 67, 123
1, 54416, Control_c, 0, 64, 72
1, 54416, Control_c, 0, 67, 116
1, 54431, Control_c, 0, 64, 73
1, 54431, Control_c, 0, 67, 109
1, 54433, Note_off_c, 0, 72, 60
1, 54446, Control_c, 0, 64, 75
1, 54446, Control_c, 0, 67, 102
1, 54461, Control_c, 0, 64, 76
1, 54461, Control_c, 0, 67, 95
1, 54463, Note_off_c, 0, 51, 57
1, 54467, Note_on_c, 0, 68, 50
1, 54475, Control_c, 0, 64, 77
1, 54475, Control_c, 0, 67, 88
1, 54485, Note_off_c, 0, 44, 53
1, 54490, Control_c, 0, 64, 77
1, 54490, Control_c, 0, 67, 81
1, 54499, Note_off_c, 0, 68, 54
1, 54505, Control_c, 0, 64, 78
1, 54505, Control_c, 0, 67, 75
1, 54520, Control_c, 0, 64, 79
1, 54520, Control_c, 0, 67, 68
1, 54526, Note_on_c, 0, 63, 50
1, 54534, Control_c, 0, 64, 79
1, 54534, Control_c, 0, 67, 60
1, 54549, Control_c, 0, 64, 80
1, 54549, Control_c, 0, 67, 52
1, 54564, Control_c, 0, 67, 44
1, 54579, Control_c, 0, 67, 38
1, 54594, Control_c, 0, 64, 80
1, 54594, Control_c, 0, 67, 34
1, 54601, Note_off_c, 0, 63, 39
1, 54603, Note_on_c, 0, 68, 55
1, 54608, Control_c, 0, 67, 31
1, 54623, Control_c, 0, 67, 30
1, 54638, Control_c, 0, 67, 29
1, 54653, Control_c, 0, 67, 29
1, 54667, Control_c, 0, 67, 28
1, 54682, Control_c, 0, 67, 27
1, 54697, Control_c, 0, 67, 26
1, 54712, Control_c, 0, 67, 25
1, 54724, Note_off_c, 0, 68, 55
1, 54726, Control_c, 0, 67, 23
1, 54741, Control_c, 0, 67, 23
1, 54747, Note_on_c, 0, 55, 69
1, 54756, Control_c, 0, 67, 22
1, 54786, Control_c, 0, 67, 22
1, 54793, Note_off_c, 0, 56, 58
1, 54815, Control_c, 0, 67, 21
1, 54830, Control_c, 0, 67, 21
1, 54859, Control_c, 0, 64, 80
1, 54881, Control_c, 0, 64, 78
1, 54897, Control_c, 0, 64, 75
1, 54897, Control_c, 0, 67, 20
1, 54912, Control_c, 0, 64, 71
1, 54927, Control_c, 0, 64, 65
1, 54935, Note_on_c, 0, 53, 63
1, 54942, Control_c, 0, 64, 54
1, 54944, Note_on_c, 0, 49, 54
1, 54956, Control_c, 0, 64, 30
1, 54956, Control_c, 0, 67, 20
1, 54963, Note_on_c, 0, 73, 62
1, 54970, Note_off_c, 0, 55, 57
1, 54971, Control_c, 0, 64, 0
1, 54971, Control_c, 0, 67, 19
1, 55001, Control_c, 0, 67, 18
1, 55048, Note_off_c, 0, 73, 64
1, 55057, Note_on_c, 0, 77, 71
1, 55105, Control_c, 0, 67, 18
1, 55127, Note_off_c, 0, 77, 62
1, 55143, Note_on_c, 0, 73, 60
1, 55189, Note_off_c, 0, 73, 61
1, 55214, Note_on_c, 0, 68, 61
1, 55248, Note_off_c, 0, 68, 64
1, 55290, Note_on_c, 0, 61, 76
1, 55319, Note_on_c, 0, 68, 58
1, 55379, Note_off_c, 0, 68, 60
1, 55384, Note_on_c, 0, 73, 58
1, 55430, Control_c, 0, 67, 17
1, 55465, Note_off_c, 0, 73, 61
1, 55473, Note_on_c, 0, 68, 51
1, 55504, Control_c, 0, 64, 50
1, 55508, Note_off_c, 0, 68, 63
1, 55519, Control_c, 0, 64, 61
1, 55533, Note_on_c, 0, 65, 56
1, 55534, Control_c, 0, 64, 64
1, 55549, Control_c, 0, 64, 65
1, 55564, Control_c, 0, 64, 67
1, 55579, Control_c, 0, 64, 69
1, 55593, Note_off_c, 0, 65, 54
1, 55593, Control_c, 0, 64, 72
1, 55608, Control_c, 0, 64, 75
1, 55623, Note_on_c, 0, 68, 56
1, 55630, Control_c, 0, 64, 77
1, 55645, Control_c, 0, 64, 77
1, 55660, Control_c, 0, 64, 78
1, 55674, Control_c, 0, 64, 78
1, 55735, Control_c, 0, 64, 79
1, 55739, Note_off_c, 0, 61, 62
1, 55763, Note_off_c, 0, 68, 36
1, 55790, Note_on_c, 0, 60, 73
1, 55790, Note_off_c, 0, 49, 58
1, 55842, Note_off_c, 0, 53, 41
1, 55853, Control_c, 0, 64, 78
1, 55868, Control_c, 0, 64, 78
1, 55883, Control_c, 0, 64, 76
1, 55898, Control_c, 0, 64, 75
1, 55913, Control_c, 0, 64, 73
1, 55927, Control_c, 0, 64, 71
1, 55942, Control_c, 0, 64, 69
1, 55957, Control_c, 0, 64, 66
1, 55966, Note_on_c, 0, 58, 66
1, 55970, Note_on_c, 0, 51, 64
1, 55972, Control_c, 0, 64, 63
1, 55987, Control_c, 0, 64, 62
1, 56005, Note_on_c, 0, 75, 62
1, 56017, Control_c, 0, 64, 61
1, 56032, Control_c, 0, 64, 59
1, 56034, Note_off_c, 0, 60, 54
1, 56046, Control_c, 0, 64, 52
1, 56061, Control_c, 0, 64, 23
1, 56076, Control_c, 0, 64, 0
1, 56083, Note_off_c, 0, 75, 64
1, 56093, Note_on_c, 0, 79, 66
1, 56154, Note_off_c, 0, 79, 60
1, 56166, Note_on_c, 0, 75, 60
1, 56222, Note_off_c, 0, 75, 63
1, 56239, Control_c, 0, 67, 18
1, 56245, Note_on_c, 0, 70, 65
1, 56253, Control_c, 0, 67, 18
1, 56276, Note_off_c, 0, 70, 62
1, 56283, Control_c, 0, 67, 19
1, 56315, Note_on_c, 0, 63, 80
1, 56327, Control_c, 0, 67, 19
1, 56371, Note_on_c, 0, 70, 52
1, 56409, Control_c, 0, 67, 20
1, 56413, Note_off_c, 0, 70, 61
1, 56433, Note_on_c, 0, 75, 56
1, 56468, Control_c, 0, 67, 20
1, 56483, Control_c, 0, 67, 21
1, 56500, Note_off_c, 0, 75, 59
1, 56512, Note_on_c, 0, 70, 60
1, 56543, Control_c, 0, 67, 21
1, 56550, Note_off_c, 0, 70, 59
1, 56556, Note_off_c, 0, 58, 57
1, 56558, Control_c, 0, 67, 22
1, 56573, Control_c, 0, 64, 34
1, 56573, Control_c, 0, 67, 22
1, 56582, Note_on_c, 0, 67, 46
1, 56588, Control_c, 0, 64, 62
1, 56588, Control_c, 0, 67, 23
1, 56602, Control_c, 0, 64, 65
1, 56602, Control_c, 0, 67, 24
1, 56617, Control_c, 0, 64, 66
1, 56617, Control_c, 0, 67, 24
1, 56632, Control_c, 0, 64, 69
1, 56632, Control_c, 0, 67, 25
1, 56647, Control_c, 0, 64, 71
1, 56647, Control_c, 0, 67, 25
1, 56649, Note_off_c, 0, 67, 58
1, 56662, Control_c, 0, 64, 74
1, 56664, Note_on_c, 0, 70, 56
1, 56676, Note_off_c, 0, 51, 60
1, 56676, Control_c, 0, 64, 76
1, 56691, Control_c, 0, 64, 77
1, 56691, Control_c, 0, 67, 26
1, 56706, Control_c, 0, 67, 26
1, 56735, Control_c, 0, 67, 27
1, 56762, Note_off_c, 0, 70, 59
1, 56825, Control_c, 0, 67, 27
1, 56841, Note_on_c, 0, 61, 71
1, 56854, Control_c, 0, 67, 28
1, 56884, Control_c, 0, 64, 77
1, 56909, Note_off_c, 0, 63, 56
1, 56914, Control_c, 0, 64, 76
1, 56928, Control_c, 0, 64, 76
1, 56943, Control_c, 0, 64, 75
1, 56958, Control_c, 0, 64, 73
1, 56958, Control_c, 0, 67, 27
1, 56973, Control_c, 0, 64, 72
1, 56973, Control_c, 0, 67, 27
1, 56988, Control_c, 0, 64, 70
1, 57002, Control_c, 0, 64, 66
1, 57017, Control_c, 0, 64, 64
1, 57023, Note_on_c, 0, 75, 49
1, 57027, Note_off_c, 0, 61, 62
1, 57028, Note_on_c, 0, 60, 52
1, 57032, Control_c, 0, 64, 61
1, 57032, Control_c, 0, 67, 26
1, 57047, Control_c, 0, 64, 58
1, 57048, Note_on_c, 0, 56, 49
1, 57062, Control_c, 0, 64, 54
1, 57062, Control_c, 0, 67, 26
1, 57072, Note_off_c, 0, 75, 65
1, 57077, Control_c, 0, 64, 45
1, 57077, Control_c, 0, 67, 25
1, 57092, Control_c, 0, 64, 20
1, 57099, Note_on_c, 0, 80, 59
1, 57107, Control_c, 0, 64, 0
1, 57129, Control_c, 0, 67, 25
1, 57166, Note_off_c, 0, 80, 58
1, 57191, Note_on_c, 0, 75, 57
1, 57218, Control_c, 0, 67, 25
1, 57226, Note_off_c, 0, 75, 66
1, 57261, Note_on_c, 0, 72, 58
1, 57263, Control_c, 0, 67, 26
1, 57277, Control_c, 0, 67, 26
1, 57290, Note_off_c, 0, 72, 66
1, 57341, Note_on_c, 0, 63, 57
1, 57365, Note_on_c, 0, 72, 49
1, 57402, Note_off_c, 0, 72, 54
1, 57424, Note_on_c, 0, 75, 57
1, 57486, Note_off_c, 0, 75, 58
1, 57506, Note_on_c, 0, 72, 57
1, 57515, Control_c, 0, 67, 26
1, 57530, Control_c, 0, 67, 25
1, 57548, Note_off_c, 0, 72, 60
1, 57559, Control_c, 0, 64, 60
1, 57559, Control_c, 0, 67, 25
1, 57574, Control_c, 0, 64, 66
1, 57574, Control_c, 0, 67, 24
1, 57585, Note_on_c, 0, 68, 50
1, 57586, Note_off_c, 0, 60, 55
1, 57589, Control_c, 0, 64, 69
1, 57591, Note_off_c, 0, 63, 44
1, 57604, Control_c, 0, 64, 72
1, 57604, Control_c, 0, 67, 23
1, 57618, Control_c, 0, 64, 75
1, 57618, Control_c, 0, 67, 22
1, 57633, Control_c, 0, 64, 77
1, 57634, Note_off_c, 0, 68, 48
1, 57648, Control_c, 0, 64, 78
1, 57648, Control_c, 0, 67, 22
1, 57656, Note_off_c, 0, 56, 41
1, 57663, Control_c, 0, 64, 79
1, 57663, Control_c, 0, 67, 21
1, 57677, Note_on_c, 0, 72, 46
1, 57678, Control_c, 0, 64, 79
1, 57692, Control_c, 0, 64, 80
1, 57692, Control_c, 0, 67, 20
1, 57722, Control_c, 0, 64, 80
1, 57722, Control_c, 0, 67, 19
1, 57735, Note_off_c, 0, 72, 40
1, 57752, Control_c, 0, 67, 18
1, 57781, Control_c, 0, 67, 18
1, 57796, Control_c, 0, 67, 17
1, 57826, Control_c, 0, 67, 17
1, 57841, Control_c, 0, 67, 16
1, 57877, Control_c, 0, 67, 16
1, 57892, Control_c, 0, 67, 15
1, 57922, Control_c, 0, 67, 12
1, 57937, Control_c, 0, 67, 8
1, 57951, Control_c, 0, 67, 0
1, 58130, Control_c, 0, 64, 80
1, 58144, Note_on_c, 0, 51, 63
1, 58145, Control_c, 0, 64, 77
1, 58151, Note_on_c, 0, 44, 52
1, 58160, Control_c, 0, 64, 71
1, 58165, Note_on_c, 0, 84, 49
1, 58175, Control_c, 0, 64, 61
1, 58190, Control_c, 0, 64, 0
1, 58268, Note_off_c, 0, 84, 41
1, 58279, Control_c, 0, 64, 53
1, 58282, Note_on_c, 0, 87, 55
1, 58294, Control_c, 0, 64, 64
1, 58309, Control_c, 0, 64, 66
1, 58324, Control_c, 0, 64, 68
1, 58339, Control_c, 0, 64, 71
1, 58354, Control_c, 0, 64, 74
1, 58368, Control_c, 0, 64, 77
1, 58369, Note_off_c, 0, 87, 58
1, 58374, Note_on_c, 0, 84, 57
1, 58383, Control_c, 0, 64, 78
1, 58398, Control_c, 0, 64, 79
1, 58413, Control_c, 0, 64, 80
1, 58428, Control_c, 0, 64, 80
1, 58437, Note_off_c, 0, 84, 63
1, 58442, Control_c, 0, 64, 81
1, 58457, Control_c, 0, 64, 82
1, 58467, Note_on_c, 0, 80, 46
1, 58472, Control_c, 0, 64, 82
1, 58486, Control_c, 0, 64, 83
1, 58492, Note_off_c, 0, 80, 57
1, 58528, Note_on_c, 0, 56, 71
1, 58546, Control_c, 0, 64, 82
1, 58560, Control_c, 0, 64, 77
1, 58571, Note_on_c, 0, 80, 59
1, 58574, Control_c, 0, 64, 67
1, 58589, Control_c, 0, 64, 0
1, 58628, Note_off_c, 0, 80, 49
1, 58654, Note_on_c, 0, 84, 57
1, 58656, Control_c, 0, 64, 58
1, 58671, Control_c, 0, 64, 65
1, 58686, Control_c, 0, 64, 67
1, 58700, Control_c, 0, 64, 68
1, 58715, Control_c, 0, 64, 69
1, 58716, Note_off_c, 0, 84, 62
1, 58729, Note_on_c, 0, 80, 63
1, 58730, Control_c, 0, 64, 71
1, 58745, Control_c, 0, 64, 73
1, 58760, Control_c, 0, 64, 76
1, 58767, Note_off_c, 0, 80, 62
1, 58774, Control_c, 0, 64, 77
1, 58786, Note_off_c, 0, 51, 37
1, 58789, Control_c, 0, 64, 78
1, 58792, Note_off_c, 0, 44, 59
1, 58798, Note_on_c, 0, 75, 54
1, 58804, Control_c, 0, 64, 79
1, 58844, Note_off_c, 0, 75, 51
1, 58849, Control_c, 0, 64, 79
1, 58878, Note_on_c, 0, 80, 65
1, 58958, Note_off_c, 0, 80, 53
1, 59028, Note_on_c, 0, 55, 77
1, 59051, Note_off_c, 0, 56, 45
1, 59190, Control_c, 0, 64, 78
1, 59205, Note_on_c, 0, 53, 69
1, 59205, Control_c, 0, 64, 75
1, 59215, Note_on_c, 0, 49, 60
1, 59220, Control_c, 0, 64, 68
1, 59222, Note_on_c, 0, 85, 73
1, 59228, Note_off_c, 0, 55, 58
1, 59235, Control_c, 0, 64, 46
1, 59250, Control_c, 0, 64, 0
1, 59305, Note_off_c, 0, 85, 63
1, 59311, Note_on_c, 0, 89, 75
1, 59353, Control_c, 0, 64, 60
1, 59376, Control_c, 0, 64, 65
1, 59390, Control_c, 0, 64, 68
1, 59401, Note_on_c, 0, 85, 73
1, 59405, Control_c, 0, 64, 69
1, 59406, Note_off_c, 0, 89, 60
1, 59420, Control_c, 0, 64, 71
1, 59435, Control_c, 0, 64, 73
1, 59448, Note_off_c, 0, 85, 59
1, 59450, Control_c, 0, 64, 76
1, 59464, Control_c, 0, 64, 77
1, 59475, Note_on_c, 0, 80, 70
1, 59479, Control_c, 0, 64, 77
1, 59494, Control_c, 0, 64, 78
1, 59507, Note_off_c, 0, 80, 62
1, 59552, Note_on_c, 0, 61, 84
1, 59564, Note_on_c, 0, 80, 67
1, 59568, Control_c, 0, 64, 77
1, 59583, Control_c, 0, 64, 75
1, 59597, Control_c, 0, 64, 69
1, 59612, Control_c, 0, 64, 44
1, 59627, Control_c, 0, 64, 0
1, 59645, Note_on_c, 0, 85, 64
1, 59645, Note_off_c, 0, 80, 63
1, 59717, Control_c, 0, 64, 60
1, 59723, Note_on_c, 0, 80, 66
1, 59725, Note_off_c, 0, 85, 60
1, 59732, Control_c, 0, 64, 66
1, 59746, Control_c, 0, 64, 68
1, 59761, Control_c, 0, 64, 70
1, 59776, Control_c, 0, 64, 72
1, 59784, Note_off_c, 0, 80, 64
1, 59791, Control_c, 0, 64, 74
1, 59793, Note_on_c, 0, 77, 64
1, 59806, Control_c, 0, 64, 76
1, 59820, Control_c, 0, 64, 77
1, 59835, Control_c, 0, 64, 77
1, 59860, Note_off_c, 0, 77, 54
1, 59870, Note_on_c, 0, 80, 74
1, 59910, Control_c, 0, 64, 78
1, 59945, Note_off_c, 0, 80, 62
1, 59996, Note_off_c, 0, 61, 60
1, 60034, Note_on_c, 0, 60, 83
1, 60068, Note_off_c, 0, 49, 60
1, 60169, Control_c, 0, 64, 77
1, 60184, Control_c, 0, 64, 75
1, 60199, Control_c, 0, 64, 72
1, 60210, Note_on_c, 0, 58, 79
1, 60211, Note_on_c, 0, 51, 74
1, 60213, Control_c, 0, 64, 66
1, 60217, Note_on_c, 0, 87, 76
1, 60223, Note_off_c, 0, 53, 39
1, 60228, Control_c, 0, 64, 53
1, 60243, Control_c, 0, 64, 0
1, 60258, Note_off_c, 0, 60, 54
1, 60307, Note_off_c, 0, 87, 62
1, 60315, Note_on_c, 0, 91, 79
1, 60376, Control_c, 0, 64, 58
1, 60391, Control_c, 0, 64, 65
1, 60394, Note_off_c, 0, 91, 60
1, 60402, Note_on_c, 0, 87, 70
1, 60406, Control_c, 0, 64, 67
1, 60420, Control_c, 0, 64, 68
1, 60435, Control_c, 0, 64, 70
1, 60450, Control_c, 0, 64, 71
1, 60458, Note_off_c, 0, 87, 61
1, 60464, Control_c, 0, 64, 74
1, 60470, Note_on_c, 0, 82, 70
1, 60479, Control_c, 0, 64, 76
1, 60496, Control_c, 0, 64, 77
1, 60503, Note_off_c, 0, 82, 61
1, 60511, Control_c, 0, 64, 78
1, 60550, Note_on_c, 0, 63, 86
1, 60555, Control_c, 0, 64, 77
1, 60563, Note_on_c, 0, 82, 67
1, 60569, Control_c, 0, 64, 74
1, 60584, Control_c, 0, 64, 66
1, 60599, Control_c, 0, 64, 0
1, 60632, Note_off_c, 0, 82, 64
1, 60640, Note_on_c, 0, 87, 72
1, 60673, Control_c, 0, 64, 58
1, 60688, Control_c, 0, 64, 65
1, 60703, Control_c, 0, 64, 67
1, 60716, Note_on_c, 0, 82, 73
1, 60718, Control_c, 0, 64, 68
1, 60726, Note_off_c, 0, 87, 61
1, 60733, Control_c, 0, 64, 69
1, 60747, Control_c, 0, 64, 71
1, 60762, Control_c, 0, 64, 73
1, 60773, Note_off_c, 0, 82, 64
1, 60777, Control_c, 0, 64, 74
1, 60783, Note_on_c, 0, 79, 72
1, 60783, Note_off_c, 0, 51, 56
1, 60792, Control_c, 0, 64, 75
1, 60801, Note_off_c, 0, 58, 62
1, 60807, Control_c, 0, 64, 76
1, 60822, Control_c, 0, 64, 76
1, 60837, Control_c, 0, 64, 77
1, 60874, Control_c, 0, 64, 77
1, 60880, Note_off_c, 0, 79, 58
1, 60882, Note_on_c, 0, 82, 81
1, 60903, Control_c, 0, 64, 78
1, 60933, Control_c, 0, 64, 78
1, 60948, Control_c, 0, 64, 79
1, 60993, Note_off_c, 0, 82, 62
1, 61007, Control_c, 0, 64, 79
1, 61043, Note_on_c, 0, 61, 86
1, 61086, Note_off_c, 0, 63, 60
1, 61215, Control_c, 0, 64, 79
1, 61227, Note_off_c, 0, 61, 61
1, 61230, Control_c, 0, 64, 76
1, 61230, Note_on_c, 0, 60, 71
1, 61237, Note_on_c, 0, 56, 62
1, 61244, Control_c, 0, 64, 69
1, 61259, Control_c, 0, 64, 31
1, 61260, Note_on_c, 0, 87, 72
1, 61274, Control_c, 0, 64, 0
1, 61344, Note_on_c, 0, 92, 79
1, 61346, Note_off_c, 0, 87, 64
1, 61379, Control_c, 0, 64, 60
1, 61393, Control_c, 0, 64, 66
1, 61408, Control_c, 0, 64, 69
1, 61423, Control_c, 0, 64, 71
1, 61438, Control_c, 0, 64, 74
1, 61440, Note_on_c, 0, 87, 79
1, 61446, Note_off_c, 0, 92, 63
1, 61453, Control_c, 0, 64, 77
1, 61467, Control_c, 0, 64, 79
1, 61493, Note_off_c, 0, 87, 63
1, 61497, Control_c, 0, 64, 79
1, 61521, Note_on_c, 0, 84, 62
1, 61547, Note_off_c, 0, 84, 66
1, 61556, Control_c, 0, 64, 79
1, 61571, Control_c, 0, 64, 78
1, 61585, Control_c, 0, 64, 76
1, 61593, Note_on_c, 0, 63, 83
1, 61600, Control_c, 0, 64, 68
1, 61616, Note_on_c, 0, 84, 67
1, 61623, Control_c, 0, 64, 0
1, 61682, Note_off_c, 0, 84, 60
1, 61689, Note_on_c, 0, 87, 63
1, 61760, Note_off_c, 0, 87, 62
1, 61773, Note_on_c, 0, 84, 63
1, 61823, Note_off_c, 0, 84, 58
1, 61851, Note_on_c, 0, 80, 59
1, 61874, Note_off_c, 0, 60, 59
1, 61889, Control_c, 0, 64, 63
1, 61904, Control_c, 0, 64, 68
1, 61915, Note_off_c, 0, 80, 61
1, 61919, Control_c, 0, 64, 71
1, 61925, Note_on_c, 0, 84, 58
1, 61934, Control_c, 0, 64, 76
1, 61949, Control_c, 0, 64, 80
1, 61964, Control_c, 0, 64, 81
1, 61979, Control_c, 0, 64, 82
1, 62038, Note_off_c, 0, 84, 53
1, 62082, Note_on_c, 0, 60, 67
1, 62147, Note_off_c, 0, 56, 60
1, 62190, Note_off_c, 0, 63, 45
1, 62276, Control_c, 0, 64, 81
1, 62283, Note_on_c, 0, 58, 64
1, 62290, Control_c, 0, 64, 79
1, 62305, Note_on_c, 0, 87, 69
1, 62305, Control_c, 0, 64, 74
1, 62306, Note_on_c, 0, 51, 56
1, 62320, Control_c, 0, 64, 64
1, 62322, Note_off_c, 0, 60, 49
1, 62334, Control_c, 0, 64, 0
1, 62394, Note_off_c, 0, 87, 64
1, 62396, Note_on_c, 0, 91, 73
1, 62431, Control_c, 0, 64, 42
1, 62446, Control_c, 0, 64, 64
1, 62460, Control_c, 0, 64, 66
1, 62472, Note_off_c, 0, 91, 60
1, 62473, Note_on_c, 0, 87, 66
1, 62475, Control_c, 0, 64, 68
1, 62490, Control_c, 0, 64, 69
1, 62505, Control_c, 0, 64, 72
1, 62520, Control_c, 0, 64, 73
1, 62533, Note_off_c, 0, 87, 63
1, 62535, Control_c, 0, 64, 75
1, 62556, Note_on_c, 0, 82, 75
1, 62564, Control_c, 0, 64, 75
1, 62593, Note_off_c, 0, 82, 62
1, 62594, Control_c, 0, 64, 76
1, 62642, Note_on_c, 0, 63, 85
1, 62655, Note_on_c, 0, 82, 68
1, 62667, Control_c, 0, 64, 74
1, 62682, Control_c, 0, 64, 69
1, 62697, Control_c, 0, 64, 53
1, 62712, Control_c, 0, 64, 0
1, 62724, Note_off_c, 0, 82, 63
1, 62734, Note_on_c, 0, 87, 67
1, 62786, Control_c, 0, 64, 38
1, 62801, Control_c, 0, 64, 63
1, 62813, Note_on_c, 0, 82, 72
1, 62813, Note_off_c, 0, 87, 61
1, 62816, Control_c, 0, 64, 65
1, 62831, Control_c, 0, 64, 66
1, 62846, Control_c, 0, 64, 68
1, 62860, Control_c, 0, 64, 69
1, 62873, Note_off_c, 0, 51, 52
1, 62875, Control_c, 0, 64, 71
1, 62876, Note_off_c, 0, 82, 63
1, 62889, Note_on_c, 0, 79, 73
1, 62891, Control_c, 0, 64, 72
1, 62906, Control_c, 0, 64, 73
1, 62918, Note_off_c, 0, 58, 59
1, 62920, Control_c, 0, 64, 74
1, 62965, Note_off_c, 0, 79, 60
1, 62972, Note_on_c, 0, 82, 77
1, 63103, Note_off_c, 0, 82, 60
1, 63115, Note_on_c, 0, 61, 83
1, 63132, Note_off_c, 0, 63, 58
1, 63284, Note_off_c, 0, 61, 62
1, 63287, Note_on_c, 0, 60, 70
1, 63290, Note_on_c, 0, 56, 63
1, 63297, Control_c, 0, 64, 73
1, 63312, Control_c, 0, 64, 69
1, 63314, Note_on_c, 0, 87, 73
1, 63327, Control_c, 0, 64, 43
1, 63342, Control_c, 0, 64, 0
1, 63374, Note_off_c, 0, 87, 65
1, 63389, Note_on_c, 0, 92, 85
1, 63460, Control_c, 0, 64, 58
1, 63475, Control_c, 0, 64, 65
1, 63478, Note_on_c, 0, 87, 80
1, 63481, Note_off_c, 0, 92, 64
1, 63490, Control_c, 0, 64, 67
1, 63505, Control_c, 0, 64, 68
1, 63520, Control_c, 0, 64, 69
1, 63535, Note_off_c, 0, 87, 64
1, 63535, Control_c, 0, 64, 71
1, 63549, Note_on_c, 0, 84, 71
1, 63549, Control_c, 0, 64, 73
1, 63564, Control_c, 0, 64, 74
1, 63579, Control_c, 0, 64, 75
1, 63579, Note_off_c, 0, 84, 63
1, 63622, Note_on_c, 0, 63, 92
1, 63624, Control_c, 0, 64, 74
1, 63629, Note_on_c, 0, 84, 74
1, 63638, Control_c, 0, 64, 70
1, 63653, Control_c, 0, 64, 56
1, 63668, Control_c, 0, 64, 0
1, 63714, Note_off_c, 0, 84, 63
1, 63719, Note_on_c, 0, 87, 74
1, 63752, Note_off_c, 0, 60, 60
1, 63773, Control_c, 0, 64, 57
1, 63787, Control_c, 0, 64, 64
1, 63791, Note_on_c, 0, 84, 70
1, 63792, Note_off_c, 0, 87, 65
1, 63802, Control_c, 0, 64, 66
1, 63818, Control_c, 0, 64, 67
1, 63833, Control_c, 0, 64, 68
1, 63847, Note_off_c, 0, 84, 65
1, 63848, Control_c, 0, 64, 69
1, 63869, Control_c, 0, 64, 71
1, 63871, Note_on_c, 0, 80, 71
1, 63884, Control_c, 0, 64, 72
1, 63899, Control_c, 0, 64, 73
1, 63913, Control_c, 0, 64, 73
1, 63928, Note_off_c, 0, 80, 64
1, 63928, Control_c, 0, 64, 74
1, 63955, Note_on_c, 0, 84, 72
1, 63961, Note_off_c, 0, 63, 56
1, 64003, Control_c, 0, 64, 74
1, 64032, Note_off_c, 0, 84, 61
1, 64047, Control_c, 0, 64, 75
1, 64064, Note_off_c, 0, 56, 60
1, 64092, Control_c, 0, 64, 75
1, 64101, Note_on_c, 0, 60, 89
1, 64136, Control_c, 0, 64, 76
1, 64151, Control_c, 0, 64, 76
1, 64166, Control_c, 0, 64, 77
1, 64180, Control_c, 0, 64, 78
1, 64205, Note_off_c, 0, 60, 60
1, 64254, Control_c, 0, 64, 75
1, 64269, Control_c, 0, 64, 67
1, 64283, Note_on_c, 0, 60, 92
1, 64284, Control_c, 0, 64, 0
1, 64288, Note_on_c, 0, 53, 78
1, 64300, Note_on_c, 0, 89, 81
1, 64387, Control_c, 0, 64, 59
1, 64390, Note_off_c, 0, 89, 65
1, 64398, Note_on_c, 0, 93, 79
1, 64402, Control_c, 0, 64, 66
1, 64417, Control_c, 0, 64, 69
1, 64432, Control_c, 0, 64, 73
1, 64447, Control_c, 0, 64, 76
1, 64462, Control_c, 0, 64, 79
1, 64472, Note_off_c, 0, 93, 61
1, 64477, Control_c, 0, 64, 79
1, 64486, Note_on_c, 0, 89, 64
1, 64492, Control_c, 0, 64, 80
1, 64507, Control_c, 0, 64, 80
1, 64522, Control_c, 0, 64, 81
1, 64528, Note_off_c, 0, 89, 61
1, 64536, Control_c, 0, 64, 82
1, 64551, Control_c, 0, 64, 83
1, 64566, Note_on_c, 0, 84, 64
1, 64566, Control_c, 0, 64, 84
1, 64581, Control_c, 0, 64, 84
1, 64589, Note_off_c, 0, 84, 66
1, 64633, Control_c, 0, 64, 82
1, 64635, Note_on_c, 0, 65, 98
1, 64648, Control_c, 0, 64, 73
1, 64656, Note_on_c, 0, 84, 81
1, 64663, Control_c, 0, 64, 36
1, 64678, Control_c, 0, 64, 0
1, 64715, Note_off_c, 0, 84, 65
1, 64732, Note_on_c, 0, 89, 73
1, 64751, Control_c, 0, 64, 34
1, 64766, Control_c, 0, 64, 63
1, 64781, Control_c, 0, 64, 65
1, 64796, Control_c, 0, 64, 66
1, 64801, Note_off_c, 0, 89, 64
1, 64810, Note_on_c, 0, 84, 74
1, 64810, Control_c, 0, 64, 68
1, 64825, Control_c, 0, 64, 71
1, 64840, Control_c, 0, 64, 74
1, 64846, Note_off_c, 0, 60, 55
1, 64849, Note_off_c, 0, 84, 65
1, 64855, Control_c, 0, 64, 76
1, 64870, Note_off_c, 0, 53, 63
1, 64870, Control_c, 0, 64, 77
1, 64872, Note_on_c, 0, 81, 80
1, 64885, Control_c, 0, 64, 78
1, 64929, Control_c, 0, 64, 78
1, 64933, Note_off_c, 0, 81, 58
1, 64945, Note_on_c, 0, 84, 97
1, 64974, Control_c, 0, 64, 79
1, 64990, Note_off_c, 0, 84, 67
1, 65067, Note_off_c, 0, 65, 61
1, 65108, Note_on_c, 0, 63, 93
1, 65166, Control_c, 0, 64, 79
1, 65255, Control_c, 0, 64, 78
1, 65269, Control_c, 0, 64, 73
1, 65285, Control_c, 0, 64, 61
1, 65296, Note_on_c, 0, 61, 79
1, 65300, Control_c, 0, 64, 0
1, 65302, Note_on_c, 0, 58, 71
1, 65302, Note_off_c, 0, 63, 64
1, 65314, Note_on_c, 0, 89, 85
1, 65397, Control_c, 0, 64, 52
1, 65407, Note_off_c, 0, 89, 60
1, 65412, Control_c, 0, 64, 65
1, 65419, Note_on_c, 0, 94, 80
1, 65427, Control_c, 0, 64, 69
1, 65441, Control_c, 0, 64, 71
1, 65456, Control_c, 0, 64, 72
1, 65471, Control_c, 0, 64, 75
1, 65485, Control_c, 0, 64, 76
1, 65496, Note_on_c, 0, 89, 72
1, 65500, Control_c, 0, 64, 78
1, 65505, Note_off_c, 0, 94, 62
1, 65515, Control_c, 0, 64, 78
1, 65530, Control_c, 0, 64, 79
1, 65545, Control_c, 0, 64, 79
1, 65553, Note_off_c, 0, 89, 65
1, 65569, Note_on_c, 0, 85, 67
1, 65597, Note_off_c, 0, 85, 67
1, 65604, Control_c, 0, 64, 77
1, 65619, Control_c, 0, 64, 67
1, 65633, Control_c, 0, 64, 0
1, 65636, Note_on_c, 0, 65, 95
1, 65648, Note_on_c, 0, 85, 77
1, 65707, Note_off_c, 0, 85, 65
1, 65720, Note_on_c, 0, 89, 76
1, 65737, Control_c, 0, 64, 50
1, 65752, Control_c, 0, 64, 62
1, 65767, Control_c, 0, 64, 64
1, 65782, Control_c, 0, 64, 65
1, 65794, Note_off_c, 0, 89, 63
1, 65795, Note_on_c, 0, 85, 78
1, 65797, Control_c, 0, 64, 67
1, 65812, Control_c, 0, 64, 69
1, 65827, Control_c, 0, 64, 72
1, 65841, Control_c, 0, 64, 75
1, 65850, Note_off_c, 0, 85, 65
1, 65856, Control_c, 0, 64, 77
1, 65871, Control_c, 0, 64, 78
1, 65875, Note_on_c, 0, 82, 74
1, 65878, Note_off_c, 0, 61, 59
1, 65915, Control_c, 0, 64, 79
1, 65931, Note_off_c, 0, 82, 56
1, 65946, Note_on_c, 0, 85, 83
1, 66000, Note_off_c, 0, 85, 63
1, 66114, Note_on_c, 0, 61, 78
1, 66115, Note_off_c, 0, 65, 59
1, 66138, Note_off_c, 0, 58, 61
1, 66282, Note_off_c, 0, 61, 63
1, 66307, Control_c, 0, 64, 78
1, 66315, Note_on_c, 0, 60, 61
1, 66322, Control_c, 0, 64, 74
1, 66323, Note_on_c, 0, 53, 58
1, 66337, Control_c, 0, 64, 64
1, 66338, Note_on_c, 0, 89, 69
1, 66352, Control_c, 0, 64, 0
1, 66415, Note_off_c, 0, 89, 64
1, 66426, Note_on_c, 0, 93, 77
1, 66455, Control_c, 0, 64, 37
1, 66470, Control_c, 0, 64, 63
1, 66485, Control_c, 0, 64, 66
1, 66498, Note_off_c, 0, 93, 62
1, 66500, Control_c, 0, 64, 67
1, 66504, Note_on_c, 0, 89, 66
1, 66514, Control_c, 0, 64, 69
1, 66529, Control_c, 0, 64, 72
1, 66544, Control_c, 0, 64, 74
1, 66554, Note_off_c, 0, 89, 63
1, 66559, Control_c, 0, 64, 76
1, 66574, Control_c, 0, 64, 77
1, 66582, Note_on_c, 0, 84, 63
1, 66588, Control_c, 0, 64, 78
1, 66611, Note_off_c, 0, 84, 67
1, 66647, Control_c, 0, 64, 76
1, 66662, Control_c, 0, 64, 68
1, 66664, Note_on_c, 0, 65, 74
1, 66672, Note_on_c, 0, 84, 68
1, 66677, Control_c, 0, 64, 0
1, 66724, Note_off_c, 0, 84, 61
1, 66741, Note_on_c, 0, 89, 66
1, 66766, Control_c, 0, 64, 62
1, 66781, Control_c, 0, 64, 66
1, 66796, Control_c, 0, 64, 67
1, 66808, Note_off_c, 0, 89, 64
1, 66811, Control_c, 0, 64, 68
1, 66822, Note_on_c, 0, 84, 73
1, 66823, Note_off_c, 0, 53, 39
1, 66825, Control_c, 0, 64, 70
1, 66840, Control_c, 0, 64, 72
1, 66862, Control_c, 0, 64, 75
1, 66875, Note_off_c, 0, 84, 64
1, 66878, Control_c, 0, 64, 77
1, 66893, Control_c, 0, 64, 78
1, 66903, Note_on_c, 0, 81, 72
1, 66948, Note_off_c, 0, 81, 54
1, 66980, Note_on_c, 0, 84, 81
1, 67022, Note_off_c, 0, 84, 60
1, 67074, Note_off_c, 0, 60, 58
1, 67145, Note_on_c, 0, 63, 79
1, 67155, Note_off_c, 0, 65, 59
1, 67219, Control_c, 0, 64, 78
1, 67249, Control_c, 0, 64, 79
1, 67263, Control_c, 0, 64, 79
1, 67308, Control_c, 0, 64, 79
1, 67323, Control_c, 0, 64, 74
1, 67327, Note_on_c, 0, 61, 67
1, 67332, Note_off_c, 0, 63, 62
1, 67332, Note_on_c, 0, 58, 61
1, 67337, Control_c, 0, 64, 62
1, 67340, Note_on_c, 0, 89, 73
1, 67352, Control_c, 0, 64, 0
1, 67423, Note_on_c, 0, 94, 76
1, 67425, Note_off_c, 0, 89, 63
1, 67441, Control_c, 0, 64, 63
1, 67455, Control_c, 0, 64, 66
1, 67470, Control_c, 0, 64, 68
1, 67485, Control_c, 0, 64, 69
1, 67500, Note_on_c, 0, 89, 69
1, 67500, Control_c, 0, 64, 71
1, 67501, Note_off_c, 0, 94, 66
1, 67515, Control_c, 0, 64, 73
1, 67529, Control_c, 0, 64, 75
1, 67544, Control_c, 0, 64, 77
1, 67560, Control_c, 0, 64, 78
1, 67562, Note_off_c, 0, 89, 64
1, 67575, Control_c, 0, 64, 79
1, 67584, Note_on_c, 0, 85, 68
1, 67590, Control_c, 0, 64, 80
1, 67612, Control_c, 0, 64, 81
1, 67622, Note_off_c, 0, 85, 62
1, 67656, Control_c, 0, 64, 80
1, 67666, Note_on_c, 0, 65, 84
1, 67671, Control_c, 0, 64, 76
1, 67672, Note_on_c, 0, 85, 65
1, 67687, Control_c, 0, 64, 65
1, 67702, Control_c, 0, 64, 0
1, 67747, Note_off_c, 0, 85, 64
1, 67750, Note_on_c, 0, 89, 76
1, 67776, Control_c, 0, 64, 55
1, 67791, Control_c, 0, 64, 65
1, 67806, Control_c, 0, 64, 67
1, 67821, Control_c, 0, 64, 68
1, 67825, Note_off_c, 0, 89, 65
1, 67827, Note_on_c, 0, 85, 73
1, 67835, Control_c, 0, 64, 70
1, 67850, Control_c, 0, 64, 72
1, 67865, Control_c, 0, 64, 75
1, 67879, Control_c, 0, 64, 77
1, 67881, Note_off_c, 0, 85, 65
1, 67894, Control_c, 0, 64, 78
1, 67896, Note_on_c, 0, 82, 80
1, 67909, Control_c, 0, 64, 79
1, 67917, Note_off_c, 0, 61, 48
1, 67924, Control_c, 0, 64, 79
1, 67953, Control_c, 0, 64, 80
1, 67958, Note_off_c, 0, 58, 54
1, 67964, Note_off_c, 0, 82, 57
1, 67977, Note_on_c, 0, 85, 83
1, 67983, Control_c, 0, 64, 80
1, 68013, Control_c, 0, 64, 81
1, 68042, Note_off_c, 0, 85, 61
1, 68123, Note_on_c, 0, 61, 89
1, 68158, Note_off_c, 0, 65, 55
1, 68161, Control_c, 0, 64, 81
1, 68221, Control_c, 0, 64, 82
1, 68235, Control_c, 0, 64, 82
1, 68250, Control_c, 0, 64, 83
1, 68279, Control_c, 0, 64, 82
1, 68294, Control_c, 0, 64, 76
1, 68297, Note_on_c, 0, 63, 88
1, 68305, Note_off_c, 0, 61, 63
1, 68308, Note_on_c, 0, 56, 73
1, 68308, Note_on_c, 0, 92, 90
1, 68309, Control_c, 0, 64, 64
1, 68324, Control_c, 0, 64, 0
1, 68399, Note_off_c, 0, 92, 63
1, 68399, Note_on_c, 0, 96, 83
1, 68405, Control_c, 0, 64, 41
1, 68420, Control_c, 0, 64, 65
1, 68435, Control_c, 0, 64, 69
1, 68450, Control_c, 0, 64, 71
1, 68465, Control_c, 0, 64, 73
1, 68480, Control_c, 0, 64, 75
1, 68486, Note_on_c, 0, 92, 82
1, 68489, Note_off_c, 0, 96, 63
1, 68495, Control_c, 0, 64, 77
1, 68510, Control_c, 0, 64, 78
1, 68525, Control_c, 0, 64, 78
1, 68539, Control_c, 0, 64, 79
1, 68545, Note_off_c, 0, 92, 63
1, 68554, Control_c, 0, 64, 81
1, 68563, Note_on_c, 0, 87, 76
1, 68569, Control_c, 0, 64, 83
1, 68584, Control_c, 0, 64, 84
1, 68599, Control_c, 0, 64, 85
1, 68600, Note_off_c, 0, 87, 61
1, 68644, Control_c, 0, 64, 83
1, 68648, Note_on_c, 0, 87, 73
1, 68650, Note_on_c, 0, 68, 104
1, 68658, Control_c, 0, 64, 75
1, 68673, Control_c, 0, 64, 54
1, 68688, Control_c, 0, 64, 0
1, 68723, Note_off_c, 0, 87, 64
1, 68724, Note_on_c, 0, 92, 81
1, 68747, Control_c, 0, 64, 65
1, 68762, Control_c, 0, 64, 72
1, 68776, Control_c, 0, 64, 79
1, 68791, Control_c, 0, 64, 82
1, 68805, Note_on_c, 0, 87, 82
1, 68806, Control_c, 0, 64, 82
1, 68809, Note_off_c, 0, 92, 64
1, 68821, Control_c, 0, 64, 83
1, 68836, Control_c, 0, 64, 83
1, 68838, Note_off_c, 0, 56, 58
1, 68850, Control_c, 0, 64, 84
1, 68858, Note_off_c, 0, 63, 60
1, 68861, Note_off_c, 0, 87, 65
1, 68865, Control_c, 0, 64, 84
1, 68872, Note_on_c, 0, 84, 82
1, 68880, Control_c, 0, 64, 85
1, 68894, Control_c, 0, 64, 85
1, 68939, Control_c, 0, 64, 86
1, 68949, Note_off_c, 0, 84, 60
1, 68952, Note_on_c, 0, 87, 92
1, 69002, Note_off_c, 0, 87, 64
1, 69073, Note_off_c, 0, 68, 61
1, 69124, Note_on_c, 0, 66, 92
1, 69242, Control_c, 0, 64, 86
1, 69265, Note_off_c, 0, 66, 62
1, 69291, Note_on_c, 0, 65, 73
1, 69293, Note_on_c, 0, 61, 71
1, 69303, Control_c, 0, 64, 84
1, 69318, Control_c, 0, 64, 73
1, 69320, Note_on_c, 0, 92, 92
1, 69332, Control_c, 0, 64, 0
1, 69389, Note_on_c, 0, 97, 88
1, 69389, Note_off_c, 0, 92, 66
1, 69421, Control_c, 0, 64, 65
1, 69436, Control_c, 0, 64, 72
1, 69450, Control_c, 0, 64, 78
1, 69465, Note_on_c, 0, 92, 92
1, 69465, Control_c, 0, 64, 81
1, 69480, Control_c, 0, 64, 82
1, 69484, Note_off_c, 0, 97, 65
1, 69495, Control_c, 0, 64, 82
1, 69510, Control_c, 0, 64, 83
1, 69524, Control_c, 0, 64, 83
1, 69525, Note_off_c, 0, 92, 65
1, 69539, Note_on_c, 0, 89, 74
1, 69539, Control_c, 0, 64, 84
1, 69554, Control_c, 0, 64, 85
1, 69568, Note_off_c, 0, 89, 66
1, 69569, Control_c, 0, 64, 86
1, 69584, Control_c, 0, 64, 87
1, 69607, Note_on_c, 0, 89, 80
1, 69626, Note_on_c, 0, 68, 104
1, 69642, Control_c, 0, 64, 81
1, 69657, Control_c, 0, 64, 67
1, 69672, Control_c, 0, 64, 0
1, 69679, Note_off_c, 0, 89, 44
1, 69691, Note_on_c, 0, 92, 86
1, 69732, Note_off_c, 0, 65, 63
1, 69747, Control_c, 0, 64, 64
1, 69761, Note_off_c, 0, 92, 65
1, 69762, Control_c, 0, 64, 71
1, 69765, Note_on_c, 0, 89, 85
1, 69777, Control_c, 0, 64, 76
1, 69791, Control_c, 0, 64, 80
1, 69806, Control_c, 0, 64, 80
1, 69820, Note_off_c, 0, 89, 66
1, 69821, Control_c, 0, 64, 81
1, 69836, Note_on_c, 0, 85, 77
1, 69857, Control_c, 0, 64, 81
1, 69902, Control_c, 0, 64, 82
1, 69908, Note_off_c, 0, 85, 63
1, 69920, Note_on_c, 0, 89, 90
1, 69985, Note_off_c, 0, 89, 59
1, 70053, Note_off_c, 0, 68, 55
1, 70064, Note_off_c, 0, 61, 58
1, 70065, Control_c, 0, 64, 82
1, 70074, Note_on_c, 0, 65, 92
1, 70096, Control_c, 0, 64, 83
1, 70110, Control_c, 0, 64, 83
1, 70140, Control_c, 0, 64, 84
1, 70170, Control_c, 0, 64, 83
1, 70185, Control_c, 0, 64, 82
1, 70200, Control_c, 0, 64, 75
1, 70215, Control_c, 0, 64, 49
1, 70229, Control_c, 0, 64, 0
1, 70254, Note_on_c, 0, 63, 88
1, 70258, Note_on_c, 0, 92, 96
1, 70260, Note_on_c, 0, 56, 72
1, 70271, Note_off_c, 0, 65, 59
1, 70303, Control_c, 0, 64, 54
1, 70318, Control_c, 0, 64, 69
1, 70319, Note_off_c, 0, 92, 62
1, 70332, Note_on_c, 0, 96, 88
1, 70333, Control_c, 0, 64, 73
1, 70347, Control_c, 0, 64, 77
1, 70362, Control_c, 0, 64, 79
1, 70377, Control_c, 0, 64, 80
1, 70407, Control_c, 0, 64, 80
1, 70409, Note_on_c, 0, 92, 86
1, 70422, Note_off_c, 0, 96, 61
1, 70436, Control_c, 0, 64, 81
1, 70441, Note_on_c, 0, 90, 44
1, 70451, Control_c, 0, 64, 82
1, 70466, Control_c, 0, 64, 83
1, 70468, Note_off_c, 0, 90, 50
1, 70470, Note_off_c, 0, 92, 65
1, 70476, Note_on_c, 0, 87, 84
1, 70480, Control_c, 0, 64, 86
1, 70495, Control_c, 0, 64, 88
1, 70510, Control_c, 0, 64, 89
1, 70512, Note_off_c, 0, 87, 61
1, 70538, Note_off_c, 0, 63, 0
1, 70555, Control_c, 0, 64, 84
1, 70559, Note_on_c, 0, 87, 82
1, 70561, Note_on_c, 0, 68, 106
1, 70570, Control_c, 0, 64, 71
1, 70575, Note_on_c, 0, 63, 22
1, 70585, Control_c, 0, 64, 0
1, 70637, Control_c, 0, 64, 46
1, 70648, Note_on_c, 0, 92, 80
1, 70652, Control_c, 0, 64, 67
1, 70653, Note_off_c, 0, 87, 64
1, 70667, Control_c, 0, 64, 74
1, 70681, Control_c, 0, 64, 80
1, 70686, Note_off_c, 0, 56, 37
1, 70696, Control_c, 0, 64, 83
1, 70711, Control_c, 0, 64, 84
1, 70726, Control_c, 0, 64, 84
1, 70730, Note_on_c, 0, 87, 83
1, 70735, Note_off_c, 0, 92, 64
1, 70741, Control_c, 0, 64, 85
1, 70750, Note_off_c, 0, 68, 56
1, 70770, Control_c, 0, 64, 85
1, 70787, Note_off_c, 0, 87, 64
1, 70799, Control_c, 0, 64, 86
1, 70802, Note_on_c, 0, 84, 76
1, 70844, Control_c, 0, 64, 86
1, 70867, Note_off_c, 0, 84, 59
1, 70871, Note_on_c, 0, 87, 97
1, 70915, Note_off_c, 0, 87, 64
1, 70949, Control_c, 0, 64, 87
1, 71011, Note_off_c, 0, 63, 42
1, 71046, Note_on_c, 0, 66, 108
1, 71216, Control_c, 0, 64, 87
1, 71231, Control_c, 0, 64, 88
1, 71260, Control_c, 0, 64, 88
1, 71304, Control_c, 0, 64, 88
1, 71319, Control_c, 0, 64, 83
1, 71333, Note_on_c, 0, 65, 102
1, 71334, Control_c, 0, 64, 70
1, 71336, Note_on_c, 0, 61, 88
1, 71336, Note_on_c, 0, 92, 107
1, 71356, Control_c, 0, 64, 0
1, 71364, Note_off_c, 0, 66, 64
1, 71523, Note_on_c, 0, 97, 95
1, 71534, Control_c, 0, 64, 67
1, 71541, Note_off_c, 0, 92, 64
1, 71549, Control_c, 0, 64, 76
1, 71564, Control_c, 0, 64, 79
1, 71578, Control_c, 0, 64, 79
1, 71593, Control_c, 0, 64, 80
1, 71608, Control_c, 0, 64, 82
1, 71622, Control_c, 0, 64, 83
1, 71627, Note_on_c, 0, 92, 90
1, 71631, Note_off_c, 0, 97, 63
1, 71637, Control_c, 0, 64, 85
1, 71652, Control_c, 0, 64, 86
1, 71668, Control_c, 0, 64, 86
1, 71683, Control_c, 0, 64, 87
1, 71685, Note_off_c, 0, 92, 64
1, 71698, Control_c, 0, 64, 88
1, 71705, Note_on_c, 0, 89, 70
1, 71713, Control_c, 0, 64, 89
1, 71727, Control_c, 0, 64, 89
1, 71729, Note_off_c, 0, 89, 68
1, 71742, Control_c, 0, 64, 90
1, 71772, Control_c, 0, 64, 91
1, 71775, Note_on_c, 0, 89, 90
1, 71787, Control_c, 0, 64, 91
1, 71816, Control_c, 0, 64, 92
1, 71845, Control_c, 0, 64, 92
1, 71850, Note_off_c, 0, 89, 63
1, 71853, Note_on_c, 0, 92, 86
1, 71905, Control_c, 0, 64, 93
1, 71921, Note_off_c, 0, 92, 64
1, 71930, Note_on_c, 0, 89, 80
1, 71935, Control_c, 0, 64, 93
1, 71950, Control_c, 0, 64, 94
1, 71965, Control_c, 0, 64, 94
1, 71990, Note_off_c, 0, 89, 65
1, 72003, Note_on_c, 0, 85, 76
1, 72009, Control_c, 0, 64, 95
1, 72026, Note_off_c, 0, 85, 69
1, 72080, Note_on_c, 0, 85, 85
1, 72149, Note_off_c, 0, 85, 65
1, 72158, Note_on_c, 0, 89, 81
1, 72212, Note_off_c, 0, 65, 51
1, 72235, Note_on_c, 0, 85, 83
1, 72239, Note_off_c, 0, 89, 64
1, 72284, Note_off_c, 0, 85, 63
1, 72297, Note_off_c, 0, 61, 46
1, 72298, Control_c, 0, 64, 95
1, 72310, Note_on_c, 0, 80, 77
1, 72313, Control_c, 0, 64, 96
1, 72327, Control_c, 0, 64, 96
1, 72333, Note_off_c, 0, 80, 68
1, 72342, Control_c, 0, 64, 96
1, 72357, Control_c, 0, 64, 95
1, 72372, Control_c, 0, 64, 89
1, 72385, Note_on_c, 0, 80, 88
1, 72387, Control_c, 0, 64, 81
1, 72401, Control_c, 0, 64, 73
1, 72416, Control_c, 0, 64, 72
1, 72431, Control_c, 0, 64, 74
1, 72445, Control_c, 0, 64, 79
1, 72452, Note_off_c, 0, 80, 61
1, 72460, Note_on_c, 0, 85, 82
1, 72460, Control_c, 0, 64, 84
1, 72476, Control_c, 0, 64, 87
1, 72491, Control_c, 0, 64, 89
1, 72506, Control_c, 0, 64, 89
1, 72536, Control_c, 0, 64, 90
1, 72539, Note_off_c, 0, 85, 64
1, 72540, Note_on_c, 0, 80, 87
1, 72593, Note_off_c, 0, 80, 65
1, 72611, Note_on_c, 0, 77, 74
1, 72632, Note_off_c, 0, 77, 69
1, 72679, Note_on_c, 0, 77, 82
1, 72752, Note_off_c, 0, 77, 60
1, 72755, Note_on_c, 0, 80, 81
1, 72817, Control_c, 0, 64, 90
1, 72820, Note_on_c, 0, 77, 82
1, 72823, Note_off_c, 0, 80, 63
1, 72884, Note_off_c, 0, 77, 60
1, 72901, Note_on_c, 0, 73, 81
1, 72929, Note_off_c, 0, 73, 64
1, 72975, Note_on_c, 0, 73, 84
1, 73046, Note_off_c, 0, 73, 62
1, 73050, Note_on_c, 0, 77, 84
1, 73132, Note_on_c, 0, 73, 83
1, 73133, Note_off_c, 0, 77, 63
1, 73150, Control_c, 0, 64, 91
1, 73165, Control_c, 0, 64, 91
1, 73180, Control_c, 0, 64, 95
1, 73181, Note_off_c, 0, 73, 60
1, 73194, Control_c, 0, 64, 101
1, 73198, Note_on_c, 0, 68, 71
1, 73209, Control_c, 0, 64, 109
1, 73224, Control_c, 0, 64, 116
1, 73225, Note_off_c, 0, 68, 68
1, 73239, Control_c, 0, 64, 116
1, 73254, Control_c, 0, 64, 115
1, 73270, Control_c, 0, 64, 106
1, 73285, Control_c, 0, 64, 87
1, 73299, Control_c, 0, 64, 68
1, 73314, Control_c, 0, 64, 0
1, 73326, Note_on_c, 0, 80, 93
1, 73327, Note_on_c, 0, 68, 102
1, 73344, Control_c, 0, 64, 67
1, 73359, Control_c, 0, 64, 78
1, 73361, Note_off_c, 0, 68, 66
1, 73373, Control_c, 0, 64, 92
1, 73388, Control_c, 0, 64, 99
1, 73403, Control_c, 0, 64, 101
1, 73413, Note_on_c, 0, 85, 77
1, 73419, Note_off_c, 0, 80, 64
1, 73432, Control_c, 0, 64, 101
1, 73513, Note_on_c, 0, 80, 74
1, 73513, Note_off_c, 0, 85, 58
1, 73568, Note_off_c, 0, 80, 62
1, 73604, Note_on_c, 0, 77, 62
1, 73626, Note_off_c, 0, 77, 62
1, 73680, Note_on_c, 0, 77, 77
1, 73682, Note_on_c, 0, 65, 102
1, 73722, Note_off_c, 0, 65, 66
1, 73755, Note_off_c, 0, 77, 63
1, 73761, Note_on_c, 0, 80, 73
1, 73836, Note_off_c, 0, 80, 63
1, 73840, Note_on_c, 0, 77, 71
1, 73905, Note_off_c, 0, 77, 60
1, 73920, Note_on_c, 0, 73, 69
1, 73929, Control_c, 0, 64, 102
1, 73947, Note_off_c, 0, 73, 68
1, 73998, Note_on_c, 0, 61, 100
1, 74005, Note_on_c, 0, 73, 84
1, 74054, Note_off_c, 0, 61, 63
1, 74085, Note_off_c, 0, 73, 63
1, 74090, Note_on_c, 0, 77, 79
1, 74170, Note_off_c, 0, 77, 61
1, 74175, Note_on_c, 0, 73, 71
1, 74226, Control_c, 0, 64, 102
1, 74237, Note_off_c, 0, 73, 62
1, 74240, Control_c, 0, 64, 104
1, 74245, Note_on_c, 0, 68, 73
1, 74255, Control_c, 0, 64, 107
1, 74270, Control_c, 0, 64, 110
1, 74285, Control_c, 0, 64, 113
1, 74286, Note_off_c, 0, 68, 63
1, 74300, Control_c, 0, 64, 113
1, 74329, Control_c, 0, 64, 110
1, 74334, Note_on_c, 0, 68, 77
1, 74346, Note_on_c, 0, 56, 101
1, 74352, Control_c, 0, 64, 99
1, 74367, Control_c, 0, 64, 84
1, 74382, Control_c, 0, 64, 71
1, 74396, Control_c, 0, 64, 64
1, 74397, Note_off_c, 0, 56, 56
1, 74411, Control_c, 0, 64, 69
1, 74426, Control_c, 0, 64, 78
1, 74434, Note_on_c, 0, 73, 73
1, 74439, Note_off_c, 0, 68, 64
1, 74441, Control_c, 0, 64, 87
1, 74455, Control_c, 0, 64, 94
1, 74470, Control_c, 0, 64, 97
1, 74485, Control_c, 0, 64, 98
1, 74500, Control_c, 0, 64, 100
1, 74514, Control_c, 0, 64, 102
1, 74526, Note_on_c, 0, 68, 77
1, 74529, Control_c, 0, 64, 105
1, 74533, Note_off_c, 0, 73, 60
1, 74544, Control_c, 0, 64, 111
1, 74559, Control_c, 0, 64, 117
1, 74574, Control_c, 0, 64, 123
1, 74583, Note_off_c, 0, 68, 64
1, 74589, Control_c, 0, 64, 127
1, 74597, Note_on_c, 0, 65, 66
1, 74625, Note_off_c, 0, 65, 68
1, 74647, Control_c, 0, 64, 118
1, 74662, Control_c, 0, 64, 101
1, 74668, Note_on_c, 0, 53, 103
1, 74675, Note_on_c, 0, 65, 89
1, 74677, Control_c, 0, 64, 83
1, 74692, Control_c, 0, 64, 63
1, 74707, Control_c, 0, 64, 0
1, 74722, Control_c, 0, 64, 44
1, 74737, Control_c, 0, 64, 69
1, 74752, Control_c, 0, 64, 78
1, 74757, Note_off_c, 0, 65, 65
1, 74759, Note_on_c, 0, 68, 75
1, 74767, Control_c, 0, 64, 88
1, 74782, Control_c, 0, 64, 94
1, 74796, Control_c, 0, 64, 96
1, 74811, Control_c, 0, 64, 97
1, 74826, Control_c, 0, 64, 99
1, 74840, Control_c, 0, 64, 99
1, 74841, Note_off_c, 0, 68, 62
1, 74844, Note_on_c, 0, 65, 74
1, 74855, Control_c, 0, 64, 100
1, 74886, Control_c, 0, 64, 100
1, 74889, Note_off_c, 0, 53, 51
1, 74901, Control_c, 0, 64, 101
1, 74907, Note_off_c, 0, 65, 63
1, 74916, Control_c, 0, 64, 103
1, 74924, Note_on_c, 0, 61, 73
1, 74931, Control_c, 0, 64, 105
1, 74945, Control_c, 0, 64, 106
1, 74955, Note_off_c, 0, 61, 64
1, 74960, Control_c, 0, 64, 107
1, 74990, Control_c, 0, 64, 106
1, 75005, Control_c, 0, 64, 99
1, 75010, Note_on_c, 0, 61, 87
1, 75011, Note_on_c, 0, 49, 98
1, 75019, Control_c, 0, 64, 84
1, 75034, Control_c, 0, 64, 64
1, 75049, Control_c, 0, 64, 0
1, 75100, Control_c, 0, 64, 65
1, 75108, Note_off_c, 0, 61, 63
1, 75114, Note_on_c, 0, 65, 78
1, 75115, Control_c, 0, 64, 73
1, 75130, Control_c, 0, 64, 80
1, 75145, Control_c, 0, 64, 83
1, 75157, Note_off_c, 0, 49, 58
1, 75175, Control_c, 0, 64, 83
1, 75192, Note_off_c, 0, 65, 64
1, 75198, Note_on_c, 0, 61, 74
1, 75219, Control_c, 0, 64, 84
1, 75249, Control_c, 0, 64, 84
1, 75258, Note_off_c, 0, 61, 62
1, 75264, Control_c, 0, 64, 85
1, 75271, Note_on_c, 0, 56, 74
1, 75278, Control_c, 0, 64, 85
1, 75293, Control_c, 0, 64, 86
1, 75308, Control_c, 0, 64, 86
1, 75323, Control_c, 0, 64, 87
1, 75335, Note_off_c, 0, 56, 61
1, 75338, Control_c, 0, 64, 88
1, 75352, Control_c, 0, 64, 88
1, 75367, Control_c, 0, 64, 89
1, 75412, Control_c, 0, 64, 86
1, 75419, Note_on_c, 0, 61, 99
1, 75419, Note_on_c, 0, 52, 95
1, 75422, Note_on_c, 0, 49, 86
1, 75425, Note_on_c, 0, 46, 78
1, 75426, Control_c, 0, 64, 76
1, 75430, Note_on_c, 0, 43, 79
1, 75441, Control_c, 0, 64, 0
1, 75545, Note_off_c, 0, 61, 63
1, 75551, Note_on_c, 0, 64, 79
1, 75604, Control_c, 0, 64, 52
1, 75619, Control_c, 0, 64, 64
1, 75631, Note_off_c, 0, 64, 64
1, 75633, Note_on_c, 0, 61, 73
1, 75634, Control_c, 0, 64, 70
1, 75649, Control_c, 0, 64, 76
1, 75664, Control_c, 0, 64, 81
1, 75679, Control_c, 0, 64, 83
1, 75694, Control_c, 0, 64, 84
1, 75696, Note_off_c, 0, 61, 64
1, 75697, Note_on_c, 0, 58, 75
1, 75709, Control_c, 0, 64, 84
1, 75724, Note_off_c, 0, 58, 67
1, 75782, Note_on_c, 0, 58, 78
1, 75843, Note_off_c, 0, 58, 59
1, 75879, Note_on_c, 0, 61, 71
1, 75909, Note_off_c, 0, 52, 37
1, 75929, Note_off_c, 0, 49, 44
1, 75950, Note_off_c, 0, 43, 34
1, 75950, Note_off_c, 0, 46, 30
1, 75956, Note_on_c, 0, 58, 76
1, 75978, Note_off_c, 0, 61, 58
1, 76048, Note_off_c, 0, 58, 63
1, 76051, Note_on_c, 0, 55, 71
1, 76098, Note_off_c, 0, 55, 61
1, 76101, Control_c, 0, 64, 79
1, 76116, Control_c, 0, 64, 65
1, 76131, Control_c, 0, 64, 0
1, 76136, Note_on_c, 0, 61, 97
1, 76141, Note_on_c, 0, 52, 91
1, 76145, Note_on_c, 0, 49, 79
1, 76150, Note_on_c, 0, 43, 75
1, 76153, Note_on_c, 0, 46, 66
1, 76227, Note_off_c, 0, 61, 65
1, 76234, Control_c, 0, 64, 57
1, 76235, Note_on_c, 0, 64, 79
1, 76249, Control_c, 0, 64, 67
1, 76264, Control_c, 0, 64, 68
1, 76279, Control_c, 0, 64, 69
1, 76293, Control_c, 0, 64, 71
1, 76308, Note_off_c, 0, 64, 64
1, 76308, Control_c, 0, 64, 74
1, 76310, Note_on_c, 0, 61, 73
1, 76323, Control_c, 0, 64, 78
1, 76338, Control_c, 0, 64, 81
1, 76353, Control_c, 0, 64, 82
1, 76367, Control_c, 0, 64, 82
1, 76387, Note_off_c, 0, 61, 61
1, 76390, Note_on_c, 0, 58, 64
1, 76412, Note_off_c, 0, 58, 64
1, 76442, Control_c, 0, 64, 83
1, 76490, Note_on_c, 0, 58, 60
1, 76539, Note_off_c, 0, 58, 43
1, 76562, Note_on_c, 0, 61, 63
1, 76597, Note_off_c, 0, 52, 36
1, 76630, Note_off_c, 0, 43, 28
1, 76644, Note_off_c, 0, 46, 30
1, 76656, Note_off_c, 0, 49, 28
1, 76669, Note_on_c, 0, 58, 56
1, 76673, Note_off_c, 0, 61, 55
1, 76750, Note_off_c, 0, 58, 63
1, 76768, Note_on_c, 0, 55, 64
1, 76791, Control_c, 0, 64, 81
1, 76806, Control_c, 0, 64, 72
1, 76820, Note_off_c, 0, 55, 60
1, 76820, Control_c, 0, 64, 0
1, 76832, Note_on_c, 0, 61, 91
1, 76842, Note_on_c, 0, 52, 73
1, 76843, Note_on_c, 0, 49, 66
1, 76845, Note_on_c, 0, 43, 68
1, 76851, Note_on_c, 0, 46, 53
1, 76909, Note_off_c, 0, 61, 63
1, 76916, Note_on_c, 0, 64, 77
1, 76939, Control_c, 0, 64, 56
1, 76954, Control_c, 0, 64, 62
1, 76969, Control_c, 0, 64, 63
1, 76982, Note_off_c, 0, 52, 0
1, 76982, Note_on_c, 0, 52, 2
1, 76984, Control_c, 0, 64, 64
1, 76993, Note_off_c, 0, 64, 64
1, 76995, Note_on_c, 0, 61, 73
1, 76998, Control_c, 0, 64, 66
1, 77013, Control_c, 0, 64, 67
1, 77028, Control_c, 0, 64, 69
1, 77042, Control_c, 0, 64, 71
1, 77057, Control_c, 0, 64, 72
1, 77063, Note_off_c, 0, 61, 63
1, 77069, Note_on_c, 0, 58, 68
1, 77072, Control_c, 0, 64, 74
1, 77087, Control_c, 0, 64, 75
1, 77098, Note_off_c, 0, 58, 68
1, 77102, Control_c, 0, 64, 75
1, 77116, Control_c, 0, 64, 76
1, 77131, Control_c, 0, 64, 77
1, 77146, Control_c, 0, 64, 77
1, 77161, Control_c, 0, 64, 78
1, 77166, Note_on_c, 0, 58, 70
1, 77176, Control_c, 0, 64, 78
1, 77190, Control_c, 0, 64, 79
1, 77213, Note_off_c, 0, 58, 48
1, 77220, Control_c, 0, 67, 8
1, 77224, Note_off_c, 0, 52, 42
1, 77226, Note_off_c, 0, 46, 37
1, 77228, Note_off_c, 0, 43, 31
1, 77235, Control_c, 0, 64, 79
1, 77249, Note_on_c, 0, 61, 58
1, 77250, Control_c, 0, 67, 8
1, 77265, Control_c, 0, 64, 80
1, 77274, Note_off_c, 0, 49, 33
1, 77280, Control_c, 0, 67, 9
1, 77295, Control_c, 0, 64, 80
1, 77295, Control_c, 0, 67, 9
1, 77310, Control_c, 0, 67, 10
1, 77325, Control_c, 0, 67, 11
1, 77339, Note_on_c, 0, 58, 66
1, 77340, Note_off_c, 0, 61, 55
1, 77347, Control_c, 0, 64, 81
1, 77347, Control_c, 0, 67, 11
1, 77362, Control_c, 0, 67, 12
1, 77377, Control_c, 0, 67, 13
1, 77392, Control_c, 0, 64, 81
1, 77392, Control_c, 0, 67, 15
1, 77407, Control_c, 0, 67, 15
1, 77411, Note_off_c, 0, 58, 58
1, 77437, Note_on_c, 0, 55, 58
1, 77480, Control_c, 0, 64, 79
1, 77489, Note_off_c, 0, 55, 60
1, 77495, Control_c, 0, 64, 69
1, 77510, Control_c, 0, 64, 0
1, 77510, Control_c, 0, 67, 16
1, 77514, Note_on_c, 0, 61, 80
1, 77525, Control_c, 0, 67, 15
1, 77531, Note_on_c, 0, 51, 52
1, 77535, Note_on_c, 0, 46, 46
1, 77539, Control_c, 0, 67, 16
1, 77547, Note_on_c, 0, 43, 42
1, 77547, Note_on_c, 0, 49, 44
1, 77554, Control_c, 0, 67, 16
1, 77579, Note_off_c, 0, 61, 61
1, 77584, Control_c, 0, 67, 17
1, 77594, Note_on_c, 0, 63, 70
1, 77599, Control_c, 0, 67, 17
1, 77613, Control_c, 0, 67, 18
1, 77628, Control_c, 0, 67, 20
1, 77643, Control_c, 0, 64, 23
1, 77643, Control_c, 0, 67, 22
1, 77658, Control_c, 0, 64, 43
1, 77658, Control_c, 0, 67, 23
1, 77673, Control_c, 0, 64, 56
1, 77673, Control_c, 0, 67, 25
1, 77677, Note_off_c, 0, 63, 62
1, 77679, Note_on_c, 0, 61, 61
1, 77688, Control_c, 0, 64, 63
1, 77688, Control_c, 0, 67, 27
1, 77703, Control_c, 0, 64, 65
1, 77703, Control_c, 0, 67, 30
1, 77718, Control_c, 0, 64, 67
1, 77718, Control_c, 0, 67, 32
1, 77733, Control_c, 0, 64, 68
1, 77733, Control_c, 0, 67, 36
1, 77747, Control_c, 0, 64, 69
1, 77747, Control_c, 0, 67, 39
1, 77752, Note_off_c, 0, 61, 62
1, 77759, Note_on_c, 0, 58, 61
1, 77762, Control_c, 0, 64, 70
1, 77762, Control_c, 0, 67, 42
1, 77777, Control_c, 0, 64, 72
1, 77777, Control_c, 0, 67, 44
1, 77786, Note_off_c, 0, 58, 65
1, 77791, Control_c, 0, 64, 74
1, 77791, Control_c, 0, 67, 46
1, 77806, Control_c, 0, 64, 75
1, 77806, Control_c, 0, 67, 48
1, 77821, Control_c, 0, 64, 76
1, 77821, Control_c, 0, 67, 50
1, 77836, Control_c, 0, 64, 76
1, 77836, Control_c, 0, 67, 51
1, 77851, Control_c, 0, 67, 53
1, 77864, Note_on_c, 0, 58, 58
1, 77865, Control_c, 0, 64, 77
1, 77865, Control_c, 0, 67, 55
1, 77880, Control_c, 0, 67, 57
1, 77885, Note_off_c, 0, 58, 59
1, 77895, Control_c, 0, 64, 77
1, 77895, Control_c, 0, 67, 59
1, 77910, Control_c, 0, 64, 78
1, 77910, Control_c, 0, 67, 63
1, 77925, Control_c, 0, 67, 66
1, 77935, Note_off_c, 0, 43, 38
1, 77939, Control_c, 0, 67, 70
1, 77944, Note_off_c, 0, 51, 36
1, 77954, Control_c, 0, 67, 74
1, 77962, Note_off_c, 0, 46, 33
1, 77964, Note_on_c, 0, 61, 37
1, 77969, Control_c, 0, 67, 78
1, 77972, Note_off_c, 0, 49, 33
1, 77983, Control_c, 0, 67, 82
1, 77998, Control_c, 0, 64, 78
1, 77998, Control_c, 0, 67, 85
1, 78013, Control_c, 0, 67, 89
1, 78025, Note_off_c, 0, 61, 47
1, 78028, Control_c, 0, 67, 94
1, 78043, Control_c, 0, 67, 97
1, 78044, Note_on_c, 0, 58, 41
1, 78059, Control_c, 0, 67, 101
1, 78074, Control_c, 0, 67, 104
1, 78096, Control_c, 0, 67, 107
1, 78101, Note_off_c, 0, 58, 64
1, 78111, Control_c, 0, 67, 109
1, 78126, Control_c, 0, 67, 111
1, 78141, Control_c, 0, 67, 113
1, 78143, Note_on_c, 0, 55, 47
1, 78156, Control_c, 0, 67, 116
1, 78170, Control_c, 0, 67, 117
1, 78185, Control_c, 0, 64, 78
1, 78185, Control_c, 0, 67, 118
1, 78200, Control_c, 0, 64, 75
1, 78200, Control_c, 0, 67, 119
1, 78215, Control_c, 0, 64, 68
1, 78215, Control_c, 0, 67, 120
1, 78216, Note_off_c, 0, 55, 53
1, 78223, Note_on_c, 0, 61, 71
1, 78230, Control_c, 0, 64, 42
1, 78230, Control_c, 0, 67, 121
1, 78244, Control_c, 0, 64, 0
1, 78244, Control_c, 0, 67, 122
1, 78248, Note_on_c, 0, 51, 36
1, 78248, Note_on_c, 0, 43, 34
1, 78252, Note_on_c, 0, 46, 40
1, 78258, Note_on_c, 0, 49, 35
1, 78290, Note_off_c, 0, 61, 61
1, 78303, Control_c, 0, 67, 122
1, 78305, Note_on_c, 0, 63, 63
1, 78348, Control_c, 0, 67, 123
1, 78362, Control_c, 0, 64, 27
1, 78377, Control_c, 0, 64, 56
1, 78391, Note_off_c, 0, 63, 62
1, 78392, Control_c, 0, 64, 61
1, 78402, Note_on_c, 0, 61, 56
1, 78407, Control_c, 0, 64, 63
1, 78407, Control_c, 0, 67, 123
1, 78421, Control_c, 0, 64, 64
1, 78436, Control_c, 0, 64, 65
1, 78436, Control_c, 0, 67, 124
1, 78451, Control_c, 0, 64, 66
1, 78451, Control_c, 0, 67, 125
1, 78466, Control_c, 0, 64, 67
1, 78466, Control_c, 0, 67, 126
1, 78470, Note_off_c, 0, 61, 61
1, 78475, Note_on_c, 0, 58, 56
1, 78481, Control_c, 0, 64, 68
1, 78481, Control_c, 0, 67, 126
1, 78496, Control_c, 0, 64, 69
1, 78506, Note_off_c, 0, 58, 65
1, 78511, Control_c, 0, 64, 70
1, 78511, Control_c, 0, 67, 127
1, 78526, Control_c, 0, 64, 71
1, 78540, Control_c, 0, 64, 72
1, 78555, Control_c, 0, 64, 73
1, 78555, Control_c, 0, 67, 127
1, 78570, Control_c, 0, 64, 74
1, 78585, Control_c, 0, 64, 75
1, 78589, Note_on_c, 0, 58, 52
1, 78600, Control_c, 0, 64, 76
1, 78614, Control_c, 0, 64, 77
1, 78632, Note_off_c, 0, 58, 44
1, 78644, Control_c, 0, 64, 77
1, 78674, Control_c, 0, 64, 78
1, 78678, Note_off_c, 0, 43, 38
1, 78679, Note_on_c, 0, 61, 47
1, 78684, Note_off_c, 0, 51, 32
1, 78710, Note_off_c, 0, 46, 31
1, 78718, Control_c, 0, 64, 78
1, 78731, Note_off_c, 0, 49, 32
1, 78733, Control_c, 0, 64, 79
1, 78766, Note_off_c, 0, 61, 42
1, 78767, Note_on_c, 0, 58, 44
1, 78777, Control_c, 0, 64, 79
1, 78846, Note_off_c, 0, 58, 57
1, 78859, Control_c, 0, 64, 80
1, 78870, Note_on_c, 0, 55, 46
1, 78957, Note_on_c, 0, 51, 38
1, 78962, Note_on_c, 0, 46, 37
1, 78974, Note_on_c, 0, 49, 34
1, 78978, Control_c, 0, 64, 79
1, 78981, Note_on_c, 0, 43, 27
1, 78992, Control_c, 0, 64, 76
1, 79006, Note_on_c, 0, 61, 63
1, 79007, Control_c, 0, 64, 70
1, 79020, Note_off_c, 0, 55, 34
1, 79022, Control_c, 0, 64, 43
1, 79036, Control_c, 0, 64, 0
1, 79081, Note_off_c, 0, 61, 62
1, 79098, Note_on_c, 0, 63, 58
1, 79125, Control_c, 0, 64, 45
1, 79140, Control_c, 0, 64, 62
1, 79155, Control_c, 0, 64, 64
1, 79170, Control_c, 0, 64, 65
1, 79184, Note_off_c, 0, 63, 60
1, 79184, Control_c, 0, 64, 65
1, 79199, Control_c, 0, 64, 66
1, 79202, Note_on_c, 0, 61, 53
1, 79214, Control_c, 0, 64, 67
1, 79229, Control_c, 0, 64, 68
1, 79244, Control_c, 0, 64, 70
1, 79259, Control_c, 0, 64, 71
1, 79274, Control_c, 0, 64, 72
1, 79276, Note_off_c, 0, 61, 59
1, 79286, Note_on_c, 0, 58, 49
1, 79289, Control_c, 0, 64, 73
1, 79304, Control_c, 0, 64, 74
1, 79309, Note_off_c, 0, 58, 61
1, 79318, Control_c, 0, 64, 74
1, 79333, Control_c, 0, 64, 75
1, 79348, Control_c, 0, 64, 75
1, 79363, Control_c, 0, 64, 76
1, 79378, Control_c, 0, 64, 76
1, 79390, Note_on_c, 0, 58, 61
1, 79407, Control_c, 0, 64, 77
1, 79436, Control_c, 0, 64, 77
1, 79477, Note_off_c, 0, 58, 56
1, 79481, Control_c, 0, 64, 78
1, 79525, Note_on_c, 0, 61, 37
1, 79525, Control_c, 0, 64, 78
1, 79537, Note_off_c, 0, 43, 40
1, 79623, Note_off_c, 0, 61, 53
1, 79631, Note_off_c, 0, 46, 35
1, 79654, Note_on_c, 0, 58, 38
1, 79688, Note_off_c, 0, 51, 26
1, 79756, Note_off_c, 0, 58, 62
1, 79762, Note_off_c, 0, 49, 28
1, 79804, Note_on_c, 0, 55, 42
1, 80057, Note_off_c, 0, 55, 40
1, 80164, Note_on_c, 0, 44, 35
1, 80184, Control_c, 0, 64, 78
1, 80214, Control_c, 0, 64, 77
1, 80229, Control_c, 0, 64, 76
1, 80244, Control_c, 0, 64, 73
1, 80258, Control_c, 0, 64, 65
1, 80273, Control_c, 0, 64, 16
1, 80280, Note_on_c, 0, 63, 57
1, 80289, Control_c, 0, 64, 0
1, 80400, Control_c, 0, 64, 34
1, 80415, Control_c, 0, 64, 58
1, 80430, Control_c, 0, 64, 62
1, 80445, Control_c, 0, 64, 63
1, 80458, Note_on_c, 0, 60, 40
1, 80460, Control_c, 0, 64, 65
1, 80475, Control_c, 0, 64, 66
1, 80490, Control_c, 0, 64, 67
1, 80505, Control_c, 0, 64, 69
1, 80520, Control_c, 0, 64, 71
1, 80521, Note_off_c, 0, 63, 37
1, 80535, Control_c, 0, 64, 73
1, 80541, Note_off_c, 0, 60, 58
1, 80550, Control_c, 0, 64, 74
1, 80564, Control_c, 0, 64, 76
1, 80579, Control_c, 0, 64, 77
1, 80592, Note_on_c, 0, 56, 38
1, 80594, Control_c, 0, 64, 77
1, 80608, Control_c, 0, 64, 78
1, 80623, Control_c, 0, 64, 78
1, 80653, Note_off_c, 0, 56, 39
1, 80653, Control_c, 0, 64, 79
1, 80668, Control_c, 0, 64, 79
1, 80688, Note_on_c, 0, 68, 62
1, 80742, Control_c, 0, 64, 80
1, 80838, Note_on_c, 0, 63, 42
1, 80918, Note_off_c, 0, 63, 38
1, 80965, Note_on_c, 0, 60, 28
1, 81009, Note_off_c, 0, 60, 45
1, 81028, Note_off_c, 0, 68, 63
1, 81038, Control_c, 0, 64, 78
1, 81041, Note_on_c, 0, 67, 69
1, 81053, Control_c, 0, 64, 75
1, 81057, Note_on_c, 0, 48, 41
1, 81068, Control_c, 0, 64, 70
1, 81089, Control_c, 0, 64, 57
1, 81104, Control_c, 0, 64, 0
1, 81108, Note_off_c, 0, 44, 30
1, 81136, Note_off_c, 0, 48, 0
1, 81173, Poly_aftertouch_c, 0, 48, 127
1, 81179, Control_c, 0, 64, 57
1, 81183, Note_on_c, 0, 63, 38
1, 81193, Control_c, 0, 64, 65
1, 81208, Control_c, 0, 64, 67
1, 81223, Control_c, 0, 64, 68
1, 81238, Control_c, 0, 64, 70
1, 81240, Note_off_c, 0, 63, 47
1, 81253, Control_c, 0, 64, 71
1, 81264, Note_on_c, 0, 60, 42
1, 81268, Control_c, 0, 64, 73
1, 81283, Control_c, 0, 64, 75
1, 81298, Control_c, 0, 64, 75
1, 81306, Note_off_c, 0, 60, 48
1, 81313, Control_c, 0, 64, 76
1, 81387, Control_c, 0, 64, 75
1, 81390, Note_off_c, 0, 67, 57
1, 81394, Note_on_c, 0, 49, 51
1, 81402, Control_c, 0, 64, 74
1, 81405, Poly_aftertouch_c, 0, 48, 0
1, 81411, Note_on_c, 0, 65, 66
1, 81417, Control_c, 0, 64, 72
1, 81431, Control_c, 0, 64, 66
1, 81446, Control_c, 0, 64, 39
1, 81461, Control_c, 0, 64, 0
1, 81550, Control_c, 0, 64, 57
1, 81565, Control_c, 0, 64, 64
1, 81566, Note_on_c, 0, 61, 42
1, 81579, Control_c, 0, 64, 66
1, 81593, Note_off_c, 0, 65, 52
1, 81594, Control_c, 0, 64, 68
1, 81609, Control_c, 0, 64, 70
1, 81624, Control_c, 0, 64, 72
1, 81638, Control_c, 0, 64, 73
1, 81647, Note_on_c, 0, 56, 19
1, 81653, Control_c, 0, 64, 75
1, 81668, Control_c, 0, 64, 75
1, 81670, Note_off_c, 0, 49, 29
1, 81683, Control_c, 0, 64, 76
1, 81767, Note_off_c, 0, 56, 39
1, 81777, Note_on_c, 0, 73, 67
1, 81789, Note_off_c, 0, 61, 51
1, 81793, Note_on_c, 0, 46, 38
1, 81802, Control_c, 0, 64, 75
1, 81816, Control_c, 0, 64, 71
1, 81838, Control_c, 0, 64, 66
1, 81853, Control_c, 0, 64, 48
1, 81868, Control_c, 0, 64, 0
1, 81927, Note_on_c, 0, 65, 52
1, 81942, Control_c, 0, 64, 51
1, 81957, Control_c, 0, 64, 65
1, 81971, Control_c, 0, 64, 67
1, 81986, Control_c, 0, 64, 69
1, 82001, Control_c, 0, 64, 70
1, 82016, Note_off_c, 0, 65, 62
1, 82016, Control_c, 0, 64, 72
1, 82031, Control_c, 0, 64, 74
1, 82043, Note_on_c, 0, 61, 43
1, 82046, Control_c, 0, 64, 75
1, 82061, Control_c, 0, 64, 76
1, 82108, Note_off_c, 0, 61, 56
1, 82135, Control_c, 0, 64, 75
1, 82150, Note_on_c, 0, 70, 65
1, 82150, Control_c, 0, 64, 71
1, 82162, Note_off_c, 0, 46, 39
1, 82165, Control_c, 0, 64, 63
1, 82174, Note_on_c, 0, 49, 37
1, 82180, Control_c, 0, 64, 0
1, 82244, Note_off_c, 0, 73, 35
1, 82269, Control_c, 0, 64, 54
1, 82284, Control_c, 0, 64, 62
1, 82299, Control_c, 0, 64, 65
1, 82305, Note_on_c, 0, 65, 42
1, 82314, Control_c, 0, 64, 67
1, 82328, Control_c, 0, 64, 70
1, 82343, Control_c, 0, 64, 73
1, 82358, Control_c, 0, 64, 76
1, 82367, Note_off_c, 0, 70, 54
1, 82373, Control_c, 0, 64, 77
1, 82389, Note_off_c, 0, 65, 62
1, 82402, Control_c, 0, 64, 78
1, 82425, Note_on_c, 0, 61, 41
1, 82483, Note_off_c, 0, 61, 55
1, 82506, Control_c, 0, 64, 77
1, 82509, Note_on_c, 0, 70, 63
1, 82521, Control_c, 0, 64, 76
1, 82535, Control_c, 0, 64, 73
1, 82538, Note_on_c, 0, 51, 35
1, 82550, Control_c, 0, 64, 65
1, 82565, Control_c, 0, 64, 0
1, 82603, Note_off_c, 0, 49, 33
1, 82647, Control_c, 0, 64, 36
1, 82661, Control_c, 0, 64, 65
1, 82669, Note_on_c, 0, 63, 50
1, 82676, Control_c, 0, 64, 68
1, 82691, Control_c, 0, 64, 69
1, 82706, Control_c, 0, 64, 71
1, 82721, Control_c, 0, 64, 72
1, 82732, Note_off_c, 0, 63, 54
1, 82735, Control_c, 0, 64, 73
1, 82750, Control_c, 0, 64, 74
1, 82779, Control_c, 0, 64, 74
1, 82808, Note_on_c, 0, 61, 9
1, 82809, Control_c, 0, 64, 75
1, 82853, Note_off_c, 0, 61, 37
1, 82892, Note_off_c, 0, 70, 49
1, 82893, Note_on_c, 0, 68, 60
1, 82899, Control_c, 0, 64, 74
1, 82914, Control_c, 0, 64, 71
1, 82929, Control_c, 0, 64, 64
1, 82944, Control_c, 0, 64, 0
1, 83026, Note_on_c, 0, 63, 44
1, 83048, Control_c, 0, 64, 53
1, 83062, Control_c, 0, 64, 63
1, 83077, Control_c, 0, 64, 65
1, 83092, Control_c, 0, 64, 66
1, 83107, Control_c, 0, 64, 67
1, 83122, Control_c, 0, 64, 68
1, 83129, Note_off_c, 0, 68, 54
1, 83137, Note_off_c, 0, 63, 57
1, 83137, Control_c, 0, 64, 70
1, 83151, Control_c, 0, 64, 72
1, 83162, Note_on_c, 0, 60, 32
1, 83166, Control_c, 0, 64, 73
1, 83181, Control_c, 0, 64, 75
1, 83196, Control_c, 0, 64, 76
1, 83210, Control_c, 0, 64, 76
1, 83225, Control_c, 0, 64, 77
1, 83241, Note_off_c, 0, 60, 36
1, 83255, Control_c, 0, 64, 77
1, 83265, Note_on_c, 0, 68, 62
1, 83270, Control_c, 0, 64, 78
1, 83285, Control_c, 0, 64, 78
1, 83337, Control_c, 0, 64, 79
1, 83441, Note_on_c, 0, 63, 37
1, 83520, Note_off_c, 0, 68, 35
1, 83532, Note_off_c, 0, 63, 38
1, 83572, Note_on_c, 0, 60, 25
1, 83620, Note_off_c, 0, 60, 42
1, 83664, Control_c, 0, 64, 77
1, 83665, Note_on_c, 0, 68, 57
1, 83679, Control_c, 0, 64, 74
1, 83685, Note_on_c, 0, 39, 32
1, 83694, Control_c, 0, 64, 67
1, 83700, Note_off_c, 0, 51, 35
1, 83708, Control_c, 0, 64, 0
1, 83797, Control_c, 0, 64, 46
1, 83812, Note_on_c, 0, 63, 37
1, 83812, Control_c, 0, 64, 64
1, 83826, Control_c, 0, 64, 66
1, 83841, Control_c, 0, 64, 67
1, 83856, Control_c, 0, 64, 68
1, 83871, Control_c, 0, 64, 69
1, 83884, Note_off_c, 0, 63, 59
1, 83886, Control_c, 0, 64, 71
1, 83900, Control_c, 0, 64, 72
1, 83915, Control_c, 0, 64, 73
1, 83934, Note_on_c, 0, 60, 33
1, 83945, Control_c, 0, 64, 74
1, 83985, Note_off_c, 0, 60, 46
1, 84004, Control_c, 0, 64, 73
1, 84015, Note_off_c, 0, 68, 60
1, 84019, Control_c, 0, 64, 69
1, 84033, Control_c, 0, 64, 62
1, 84034, Note_on_c, 0, 67, 57
1, 84048, Control_c, 0, 64, 0
1, 84159, Control_c, 0, 64, 36
1, 84174, Control_c, 0, 64, 62
1, 84189, Control_c, 0, 64, 65
1, 84204, Control_c, 0, 64, 67
1, 84204, Note_on_c, 0, 63, 42
1, 84219, Control_c, 0, 64, 69
1, 84233, Control_c, 0, 64, 72
1, 84248, Control_c, 0, 64, 75
1, 84263, Control_c, 0, 64, 76
1, 84278, Note_off_c, 0, 67, 36
1, 84278, Control_c, 0, 64, 77
1, 84293, Control_c, 0, 64, 78
1, 84301, Note_off_c, 0, 63, 36
1, 84307, Control_c, 0, 64, 78
1, 84314, Note_on_c, 0, 58, 30
1, 84322, Control_c, 0, 64, 79
1, 84337, Control_c, 0, 64, 79
1, 84351, Control_c, 0, 64, 80
1, 84366, Control_c, 0, 64, 80
1, 84375, Note_off_c, 0, 58, 43
1, 84381, Control_c, 0, 64, 81
1, 84406, Note_on_c, 0, 67, 50
1, 84425, Control_c, 0, 64, 81
1, 84513, Note_off_c, 0, 39, 40
1, 84547, Note_on_c, 0, 63, 42
1, 84571, Note_off_c, 0, 67, 37
1, 84575, Control_c, 0, 67, 127
1, 84590, Control_c, 0, 67, 126
1, 84604, Control_c, 0, 67, 125
1, 84619, Control_c, 0, 67, 124
1, 84634, Control_c, 0, 67, 122
1, 84648, Note_off_c, 0, 63, 42
1, 84648, Control_c, 0, 67, 119
1, 84663, Control_c, 0, 67, 116
1, 84678, Control_c, 0, 67, 112
1, 84683, Note_on_c, 0, 58, 29
1, 84693, Control_c, 0, 67, 107
1, 84708, Control_c, 0, 67, 101
1, 84723, Control_c, 0, 67, 97
1, 84738, Control_c, 0, 67, 92
1, 84748, Note_off_c, 0, 58, 41
1, 84753, Control_c, 0, 67, 87
1, 84768, Control_c, 0, 64, 80
1, 84768, Control_c, 0, 67, 83
1, 84782, Control_c, 0, 64, 75
1, 84782, Control_c, 0, 67, 80
1, 84786, Note_on_c, 0, 63, 59
1, 84797, Control_c, 0, 64, 66
1, 84797, Control_c, 0, 67, 76
1, 84802, Note_on_c, 0, 44, 37
1, 84812, Control_c, 0, 64, 0
1, 84812, Control_c, 0, 67, 73
1, 84834, Control_c, 0, 67, 69
1, 84849, Control_c, 0, 67, 67
1, 84863, Control_c, 0, 67, 64
1, 84878, Control_c, 0, 67, 62
1, 84893, Control_c, 0, 64, 56
1, 84893, Control_c, 0, 67, 60
1, 84908, Control_c, 0, 64, 62
1, 84908, Control_c, 0, 67, 58
1, 84923, Control_c, 0, 64, 64
1, 84923, Control_c, 0, 67, 56
1, 84936, Note_on_c, 0, 60, 42
1, 84937, Control_c, 0, 64, 66
1, 84937, Control_c, 0, 67, 53
1, 84952, Control_c, 0, 64, 68
1, 84952, Control_c, 0, 67, 51
1, 84967, Control_c, 0, 64, 69
1, 84967, Control_c, 0, 67, 48
1, 84979, Note_off_c, 0, 63, 56
1, 84982, Control_c, 0, 64, 71
1, 84982, Control_c, 0, 67, 45
1, 84997, Control_c, 0, 64, 73
1, 84997, Control_c, 0, 67, 44
1, 85012, Control_c, 0, 64, 75
1, 85012, Control_c, 0, 67, 43
1, 85021, Note_off_c, 0, 60, 57
1, 85027, Control_c, 0, 64, 76
1, 85027, Control_c, 0, 67, 42
1, 85042, Control_c, 0, 64, 76
1, 85042, Control_c, 0, 67, 41
1, 85056, Control_c, 0, 67, 41
1, 85069, Note_on_c, 0, 56, 37
1, 85071, Control_c, 0, 64, 77
1, 85071, Control_c, 0, 67, 40
1, 85086, Control_c, 0, 67, 38
1, 85101, Control_c, 0, 64, 77
1, 85101, Control_c, 0, 67, 37
1, 85116, Control_c, 0, 67, 36
1, 85130, Control_c, 0, 67, 36
1, 85145, Control_c, 0, 64, 78
1, 85153, Note_off_c, 0, 56, 34
1, 85160, Control_c, 0, 67, 35
1, 85173, Note_on_c, 0, 68, 64
1, 85189, Control_c, 0, 64, 78
1, 85204, Control_c, 0, 67, 35
1, 85234, Control_c, 0, 67, 34
1, 85250, Control_c, 0, 67, 33
1, 85279, Control_c, 0, 67, 32
1, 85293, Note_on_c, 0, 63, 51
1, 85309, Control_c, 0, 67, 31
1, 85324, Control_c, 0, 67, 31
1, 85339, Control_c, 0, 67, 30
1, 85353, Control_c, 0, 67, 30
1, 85383, Control_c, 0, 67, 29
1, 85397, Control_c, 0, 67, 29
1, 85412, Note_off_c, 0, 63, 59
1, 85412, Control_c, 0, 67, 28
1, 85426, Note_on_c, 0, 60, 53
1, 85427, Control_c, 0, 67, 28
1, 85432, Note_off_c, 0, 68, 62
1, 85442, Control_c, 0, 67, 27
1, 85457, Control_c, 0, 67, 26
1, 85471, Control_c, 0, 67, 25
1, 85486, Note_off_c, 0, 60, 55
1, 85486, Control_c, 0, 67, 24
1, 85501, Control_c, 0, 67, 23
1, 85516, Control_c, 0, 64, 77
1, 85516, Control_c, 0, 67, 22
1, 85527, Note_on_c, 0, 67, 74
1, 85531, Control_c, 0, 64, 73
1, 85531, Control_c, 0, 67, 21
1, 85546, Control_c, 0, 64, 64
1, 85546, Control_c, 0, 67, 20
1, 85549, Note_on_c, 0, 48, 40
1, 85549, Note_off_c, 0, 44, 36
1, 85560, Control_c, 0, 64, 0
1, 85560, Control_c, 0, 67, 18
1, 85583, Control_c, 0, 67, 17
1, 85597, Control_c, 0, 67, 17
1, 85612, Control_c, 0, 64, 57
1, 85612, Control_c, 0, 67, 16
1, 85627, Control_c, 0, 64, 67
1, 85642, Control_c, 0, 64, 71
1, 85642, Control_c, 0, 67, 15
1, 85657, Control_c, 0, 64, 74
1, 85672, Control_c, 0, 64, 77
1, 85676, Note_on_c, 0, 63, 51
1, 85686, Control_c, 0, 64, 79
1, 85686, Control_c, 0, 67, 15
1, 85701, Control_c, 0, 64, 80
1, 85716, Control_c, 0, 64, 81
1, 85716, Control_c, 0, 67, 14
1, 85731, Control_c, 0, 64, 81
1, 85731, Control_c, 0, 67, 13
1, 85746, Control_c, 0, 64, 82
1, 85746, Control_c, 0, 67, 13
1, 85760, Control_c, 0, 64, 82
1, 85763, Note_off_c, 0, 63, 62
1, 85769, Note_off_c, 0, 67, 58
1, 85775, Control_c, 0, 64, 84
1, 85783, Note_on_c, 0, 60, 55
1, 85790, Control_c, 0, 64, 85
1, 85805, Control_c, 0, 64, 86
1, 85820, Control_c, 0, 67, 12
1, 85832, Note_off_c, 0, 60, 58
1, 85850, Control_c, 0, 64, 84
1, 85850, Control_c, 0, 67, 12
1, 85859, Note_off_c, 0, 48, 39
1, 85865, Control_c, 0, 64, 78
1, 85879, Control_c, 0, 64, 68
1, 85879, Note_on_c, 0, 49, 45
1, 85880, Note_on_c, 0, 65, 73
1, 85894, Control_c, 0, 64, 26
1, 85909, Control_c, 0, 64, 0
1, 85909, Control_c, 0, 67, 11
1, 85938, Control_c, 0, 64, 61
1, 85950, Note_off_c, 0, 49, 56
1, 85953, Control_c, 0, 64, 68
1, 85968, Control_c, 0, 64, 72
1, 85974, Note_off_c, 0, 65, 62
1, 85983, Control_c, 0, 64, 76
1, 85990, Note_on_c, 0, 61, 60
1, 85997, Control_c, 0, 64, 80
1, 86012, Control_c, 0, 64, 83
1, 86027, Control_c, 0, 64, 85
1, 86042, Control_c, 0, 64, 87
1, 86058, Control_c, 0, 64, 88
1, 86064, Note_off_c, 0, 61, 50
1, 86073, Control_c, 0, 64, 89
1, 86088, Control_c, 0, 64, 90
1, 86088, Control_c, 0, 67, 12
1, 86097, Note_on_c, 0, 56, 46
1, 86117, Control_c, 0, 64, 90
1, 86123, Note_off_c, 0, 56, 56
1, 86250, Control_c, 0, 64, 89
1, 86257, Note_on_c, 0, 77, 76
1, 86265, Control_c, 0, 64, 86
1, 86269, Note_on_c, 0, 46, 45
1, 86280, Control_c, 0, 64, 76
1, 86294, Control_c, 0, 64, 64
1, 86309, Control_c, 0, 64, 0
1, 86347, Control_c, 0, 67, 12
1, 86362, Control_c, 0, 67, 13
1, 86376, Control_c, 0, 64, 49
1, 86376, Control_c, 0, 67, 13
1, 86391, Control_c, 0, 64, 67
1, 86391, Control_c, 0, 67, 14
1, 86406, Control_c, 0, 64, 70
1, 86406, Control_c, 0, 67, 14
1, 86408, Note_on_c, 0, 68, 49
1, 86420, Control_c, 0, 64, 72
1, 86420, Control_c, 0, 67, 15
1, 86435, Control_c, 0, 64, 73
1, 86449, Note_off_c, 0, 77, 53
1, 86450, Control_c, 0, 64, 74
1, 86465, Control_c, 0, 64, 76
1, 86480, Control_c, 0, 64, 78
1, 86494, Note_off_c, 0, 68, 55
1, 86495, Control_c, 0, 64, 79
1, 86516, Note_on_c, 0, 65, 56
1, 86524, Control_c, 0, 64, 80
1, 86524, Control_c, 0, 67, 15
1, 86539, Control_c, 0, 64, 80
1, 86553, Control_c, 0, 64, 81
1, 86555, Note_off_c, 0, 65, 54
1, 86568, Control_c, 0, 64, 82
1, 86583, Control_c, 0, 64, 82
1, 86623, Note_on_c, 0, 73, 73
1, 86643, Control_c, 0, 64, 80
1, 86643, Control_c, 0, 67, 16
1, 86647, Note_on_c, 0, 58, 41
1, 86651, Note_off_c, 0, 46, 28
1, 86651, Note_on_c, 0, 49, 41
1, 86657, Control_c, 0, 64, 74
1, 86672, Control_c, 0, 64, 61
1, 86672, Control_c, 0, 67, 16
1, 86687, Control_c, 0, 64, 0
1, 86687, Control_c, 0, 67, 17
1, 86702, Control_c, 0, 67, 18
1, 86717, Control_c, 0, 67, 19
1, 86732, Control_c, 0, 67, 20
1, 86746, Control_c, 0, 64, 49
1, 86746, Control_c, 0, 67, 21
1, 86761, Control_c, 0, 64, 65
1, 86761, Control_c, 0, 67, 21
1, 86762, Note_on_c, 0, 65, 47
1, 86776, Control_c, 0, 64, 70
1, 86776, Control_c, 0, 67, 22
1, 86791, Control_c, 0, 64, 74
1, 86791, Control_c, 0, 67, 22
1, 86806, Control_c, 0, 64, 76
1, 86806, Control_c, 0, 67, 23
1, 86820, Control_c, 0, 64, 78
1, 86821, Note_off_c, 0, 49, 39
1, 86835, Control_c, 0, 64, 79
1, 86835, Control_c, 0, 67, 24
1, 86851, Control_c, 0, 64, 79
1, 86851, Control_c, 0, 67, 26
1, 86854, Note_off_c, 0, 65, 63
1, 86866, Control_c, 0, 64, 80
1, 86866, Control_c, 0, 67, 28
1, 86872, Note_off_c, 0, 73, 53
1, 86881, Control_c, 0, 64, 81
1, 86881, Control_c, 0, 67, 30
1, 86892, Note_on_c, 0, 61, 38
1, 86896, Control_c, 0, 64, 81
1, 86896, Control_c, 0, 67, 31
1, 86911, Control_c, 0, 64, 82
1, 86911, Control_c, 0, 67, 34
1, 86925, Control_c, 0, 64, 82
1, 86925, Control_c, 0, 67, 35
1, 86940, Control_c, 0, 64, 83
1, 86940, Control_c, 0, 67, 35
1, 86955, Control_c, 0, 67, 36
1, 86970, Control_c, 0, 67, 37
1, 86980, Note_off_c, 0, 61, 33
1, 86985, Control_c, 0, 67, 38
1, 86999, Control_c, 0, 67, 40
1, 87003, Note_on_c, 0, 73, 68
1, 87014, Control_c, 0, 64, 82
1, 87014, Control_c, 0, 67, 43
1, 87022, Note_on_c, 0, 51, 50
1, 87030, Control_c, 0, 64, 78
1, 87030, Control_c, 0, 67, 46
1, 87039, Note_off_c, 0, 58, 37
1, 87044, Control_c, 0, 64, 71
1, 87044, Control_c, 0, 67, 48
1, 87059, Control_c, 0, 64, 25
1, 87059, Control_c, 0, 67, 51
1, 87081, Control_c, 0, 64, 0
1, 87081, Control_c, 0, 67, 54
1, 87096, Control_c, 0, 67, 58
1, 87111, Control_c, 0, 67, 63
1, 87125, Control_c, 0, 67, 70
1, 87140, Control_c, 0, 67, 78
1, 87151, Note_on_c, 0, 68, 35
1, 87155, Control_c, 0, 64, 56
1, 87155, Control_c, 0, 67, 86
1, 87170, Control_c, 0, 64, 66
1, 87170, Control_c, 0, 67, 92
1, 87185, Control_c, 0, 64, 68
1, 87185, Control_c, 0, 67, 98
1, 87200, Control_c, 0, 64, 69
1, 87200, Control_c, 0, 67, 103
1, 87213, Note_off_c, 0, 68, 45
1, 87215, Control_c, 0, 64, 70
1, 87215, Control_c, 0, 67, 107
1, 87230, Control_c, 0, 64, 72
1, 87230, Control_c, 0, 67, 109
1, 87245, Control_c, 0, 64, 75
1, 87245, Control_c, 0, 67, 111
1, 87259, Control_c, 0, 64, 77
1, 87259, Control_c, 0, 67, 113
1, 87265, Note_on_c, 0, 63, 36
1, 87274, Control_c, 0, 64, 78
1, 87274, Control_c, 0, 67, 116
1, 87289, Control_c, 0, 64, 79
1, 87289, Control_c, 0, 67, 120
1, 87304, Control_c, 0, 64, 79
1, 87304, Control_c, 0, 67, 123
1, 87319, Control_c, 0, 67, 125
1, 87333, Control_c, 0, 64, 80
1, 87333, Control_c, 0, 67, 127
1, 87348, Control_c, 0, 67, 127
1, 87361, Note_off_c, 0, 63, 33
1, 87377, Note_off_c, 0, 73, 59
1, 87391, Note_on_c, 0, 72, 64
1, 87392, Control_c, 0, 64, 79
1, 87400, Note_on_c, 0, 56, 47
1, 87407, Control_c, 0, 64, 76
1, 87422, Control_c, 0, 64, 68
1, 87437, Control_c, 0, 64, 0
1, 87525, Control_c, 0, 64, 57
1, 87540, Control_c, 0, 64, 64
1, 87548, Note_on_c, 0, 68, 47
1, 87555, Control_c, 0, 64, 66
1, 87570, Control_c, 0, 64, 67
1, 87584, Control_c, 0, 64, 69
1, 87595, Note_off_c, 0, 72, 59
1, 87596, Note_off_c, 0, 56, 38
1, 87599, Control_c, 0, 64, 71
1, 87614, Control_c, 0, 64, 74
1, 87629, Control_c, 0, 64, 77
1, 87630, Note_off_c, 0, 68, 56
1, 87645, Control_c, 0, 64, 77
1, 87667, Note_on_c, 0, 63, 24
1, 87704, Control_c, 0, 64, 78
1, 87719, Control_c, 0, 64, 78
1, 87728, Note_off_c, 0, 63, 42
1, 87763, Control_c, 0, 64, 78
1, 87764, Note_on_c, 0, 72, 63
1, 87778, Control_c, 0, 64, 73
1, 87792, Control_c, 0, 64, 65
1, 87797, Note_on_c, 0, 56, 39
1, 87807, Control_c, 0, 64, 0
1, 87859, Control_c, 0, 64, 48
1, 87874, Control_c, 0, 64, 67
1, 87889, Control_c, 0, 64, 71
1, 87903, Control_c, 0, 64, 75
1, 87915, Note_on_c, 0, 68, 34
1, 87918, Control_c, 0, 64, 77
1, 87948, Control_c, 0, 64, 77
1, 87963, Control_c, 0, 64, 78
1, 87972, Note_off_c, 0, 72, 52
1, 87978, Control_c, 0, 64, 79
1, 87993, Control_c, 0, 64, 79
1, 88007, Note_off_c, 0, 68, 38
1, 88007, Control_c, 0, 64, 80
1, 88014, Note_off_c, 0, 51, 30
1, 88022, Control_c, 0, 64, 80
1, 88031, Note_on_c, 0, 63, 40
1, 88052, Control_c, 0, 64, 81
1, 88067, Control_c, 0, 64, 82
1, 88081, Control_c, 0, 64, 82
1, 88133, Note_off_c, 0, 63, 38
1, 88134, Note_on_c, 0, 72, 57
1, 88141, Control_c, 0, 64, 79
1, 88153, Note_off_c, 0, 56, 38
1, 88155, Control_c, 0, 64, 72
1, 88157, Note_on_c, 0, 51, 44
1, 88170, Control_c, 0, 64, 58
1, 88185, Control_c, 0, 64, 0
1, 88214, Control_c, 0, 64, 54
1, 88229, Control_c, 0, 64, 66
1, 88244, Control_c, 0, 64, 71
1, 88259, Control_c, 0, 64, 76
1, 88273, Control_c, 0, 64, 78
1, 88288, Control_c, 0, 64, 79
1, 88318, Control_c, 0, 64, 80
1, 88329, Note_on_c, 0, 63, 25
1, 88339, Note_off_c, 0, 72, 35
1, 88423, Note_off_c, 0, 63, 38
1, 88482, Control_c, 0, 64, 79
1, 88497, Control_c, 0, 64, 74
1, 88510, Note_on_c, 0, 55, 41
1, 88512, Control_c, 0, 64, 65
1, 88515, Note_on_c, 0, 70, 56
1, 88526, Control_c, 0, 64, 0
1, 88608, Control_c, 0, 64, 59
1, 88622, Control_c, 0, 64, 65
1, 88637, Control_c, 0, 64, 68
1, 88652, Control_c, 0, 64, 69
1, 88667, Note_off_c, 0, 70, 50
1, 88667, Control_c, 0, 64, 70
1, 88674, Note_on_c, 0, 63, 41
1, 88682, Control_c, 0, 64, 71
1, 88696, Control_c, 0, 64, 73
1, 88711, Control_c, 0, 64, 75
1, 88726, Control_c, 0, 64, 76
1, 88728, Note_off_c, 0, 55, 40
1, 88741, Control_c, 0, 64, 77
1, 88756, Control_c, 0, 64, 77
1, 88771, Control_c, 0, 64, 78
1, 88786, Control_c, 0, 64, 78
1, 88801, Control_c, 0, 64, 79
1, 88816, Control_c, 0, 64, 79
1, 88818, Note_off_c, 0, 63, 36
1, 88819, Note_on_c, 0, 61, 42
1, 88830, Control_c, 0, 64, 80
1, 88898, Note_off_c, 0, 61, 50
1, 88919, Control_c, 0, 64, 80
1, 88942, Note_on_c, 0, 70, 49
1, 88954, Note_on_c, 0, 55, 40
1, 89104, Note_on_c, 0, 63, 33
1, 89184, Note_off_c, 0, 70, 36
1, 89250, Note_off_c, 0, 63, 50
1, 89256, Note_off_c, 0, 51, 33
1, 89301, Note_on_c, 0, 61, 26
1, 89346, Note_off_c, 0, 61, 44
1, 89534, Control_c, 0, 64, 80
1, 89543, Note_off_c, 0, 55, 32
1, 89549, Control_c, 0, 64, 78
1, 89564, Note_on_c, 0, 72, 54
1, 89564, Control_c, 0, 64, 74
1, 89573, Note_on_c, 0, 44, 38
1, 89579, Control_c, 0, 64, 69
1, 89594, Control_c, 0, 64, 61
1, 89604, Note_off_c, 0, 44, 50
1, 89609, Control_c, 0, 64, 0
1, 89642, Note_off_c, 0, 72, 62
1, 89661, Note_on_c, 0, 75, 57
1, 89738, Note_off_c, 0, 75, 62
1, 89749, Note_on_c, 0, 72, 51
1, 89788, Note_off_c, 0, 72, 66
1, 89808, Note_on_c, 0, 68, 62
1, 89836, Note_off_c, 0, 68, 66
1, 89893, Note_on_c, 0, 54, 41
1, 89904, Note_on_c, 0, 68, 64
1, 89906, Note_on_c, 0, 56, 32
1, 89924, Note_on_c, 0, 60, 26
1, 89950, Note_off_c, 0, 68, 58
1, 89983, Note_on_c, 0, 72, 53
1, 90028, Note_off_c, 0, 72, 63
1, 90068, Note_on_c, 0, 68, 61
1, 90103, Note_off_c, 0, 68, 64
1, 90151, Note_on_c, 0, 63, 49
1, 90192, Note_off_c, 0, 63, 53
1, 90252, Note_on_c, 0, 68, 45
1, 90282, Note_off_c, 0, 68, 54
1, 90343, Note_off_c, 0, 54, 34
1, 90561, Note_off_c, 0, 56, 40
1, 90564, Note_off_c, 0, 60, 31
1, 90591, Note_on_c, 0, 49, 39
1, 90592, Note_on_c, 0, 73, 57
1, 90637, Note_off_c, 0, 49, 45
1, 90654, Note_off_c, 0, 73, 61
1, 90669, Control_c, 0, 67, 126
1, 90675, Note_on_c, 0, 77, 65
1, 90684, Control_c, 0, 67, 124
1, 90713, Control_c, 0, 67, 124
1, 90740, Note_off_c, 0, 77, 57
1, 90765, Note_on_c, 0, 73, 57
1, 90798, Note_off_c, 0, 73, 63
1, 90834, Note_on_c, 0, 68, 59
1, 90838, Control_c, 0, 67, 123
1, 90861, Note_off_c, 0, 68, 65
1, 90912, Note_on_c, 0, 56, 38
1, 90913, Control_c, 0, 67, 123
1, 90915, Note_on_c, 0, 61, 48
1, 90919, Note_on_c, 0, 53, 38
1, 90941, Note_on_c, 0, 68, 54
1, 90943, Control_c, 0, 67, 122
1, 90958, Control_c, 0, 67, 122
1, 90972, Control_c, 0, 67, 120
1, 90985, Note_off_c, 0, 68, 57
1, 90987, Control_c, 0, 67, 119
1, 90995, Note_on_c, 0, 73, 61
1, 91002, Control_c, 0, 67, 118
1, 91016, Control_c, 0, 67, 116
1, 91031, Control_c, 0, 67, 115
1, 91046, Control_c, 0, 67, 114
1, 91061, Control_c, 0, 67, 112
1, 91076, Control_c, 0, 67, 111
1, 91088, Note_on_c, 0, 68, 59
1, 91090, Control_c, 0, 67, 109
1, 91092, Note_off_c, 0, 73, 54
1, 91105, Control_c, 0, 67, 107
1, 91120, Control_c, 0, 67, 105
1, 91129, Note_off_c, 0, 68, 64
1, 91135, Control_c, 0, 67, 103
1, 91150, Control_c, 0, 67, 101
1, 91165, Control_c, 0, 67, 100
1, 91169, Note_on_c, 0, 65, 43
1, 91179, Control_c, 0, 67, 99
1, 91194, Control_c, 0, 67, 98
1, 91209, Control_c, 0, 67, 97
1, 91224, Control_c, 0, 67, 97
1, 91224, Note_off_c, 0, 65, 44
1, 91239, Control_c, 0, 67, 96
1, 91254, Control_c, 0, 67, 95
1, 91269, Control_c, 0, 67, 93
1, 91273, Note_on_c, 0, 68, 44
1, 91284, Control_c, 0, 67, 92
1, 91298, Control_c, 0, 67, 90
1, 91312, Note_off_c, 0, 61, 54
1, 91313, Control_c, 0, 67, 89
1, 91320, Note_off_c, 0, 68, 45
1, 91328, Control_c, 0, 64, 60
1, 91328, Control_c, 0, 67, 88
1, 91342, Control_c, 0, 64, 65
1, 91342, Control_c, 0, 67, 87
1, 91343, Note_off_c, 0, 53, 33
1, 91353, Note_off_c, 0, 56, 41
1, 91357, Control_c, 0, 64, 68
1, 91357, Control_c, 0, 67, 87
1, 91372, Control_c, 0, 64, 71
1, 91372, Control_c, 0, 67, 85
1, 91387, Control_c, 0, 64, 74
1, 91387, Control_c, 0, 67, 84
1, 91402, Control_c, 0, 64, 77
1, 91416, Control_c, 0, 64, 78
1, 91431, Control_c, 0, 64, 79
1, 91476, Control_c, 0, 64, 79
1, 91490, Control_c, 0, 64, 80
1, 91505, Control_c, 0, 64, 81
1, 91572, Control_c, 0, 64, 80
1, 91587, Control_c, 0, 64, 74
1, 91602, Control_c, 0, 64, 64
1, 91616, Control_c, 0, 64, 0
1, 91625, Note_on_c, 0, 39, 50
1, 91629, Note_on_c, 0, 75, 58
1, 91647, Control_c, 0, 64, 14
1, 91662, Control_c, 0, 64, 63
1, 91668, Note_off_c, 0, 39, 62
1, 91677, Control_c, 0, 64, 67
1, 91677, Control_c, 0, 67, 84
1, 91692, Control_c, 0, 64, 68
1, 91692, Control_c, 0, 67, 85
1, 91693, Note_off_c, 0, 75, 65
1, 91712, Note_on_c, 0, 79, 62
1, 91736, Control_c, 0, 67, 85
1, 91751, Control_c, 0, 67, 86
1, 91768, Note_off_c, 0, 79, 62
1, 91780, Control_c, 0, 67, 87
1, 91785, Note_on_c, 0, 75, 62
1, 91795, Control_c, 0, 64, 67
1, 91795, Control_c, 0, 67, 87
1, 91810, Control_c, 0, 64, 66
1, 91810, Control_c, 0, 67, 88
1, 91825, Control_c, 0, 64, 64
1, 91825, Control_c, 0, 67, 89
1, 91828, Note_off_c, 0, 75, 62
1, 91839, Control_c, 0, 64, 57
1, 91839, Control_c, 0, 67, 90
1, 91854, Control_c, 0, 64, 40
1, 91854, Control_c, 0, 67, 90
1, 91858, Note_on_c, 0, 70, 70
1, 91869, Control_c, 0, 64, 0
1, 91869, Control_c, 0, 67, 91
1, 91886, Note_off_c, 0, 70, 64
1, 91942, Note_on_c, 0, 61, 40
1, 91943, Control_c, 0, 67, 91
1, 91949, Note_on_c, 0, 51, 43
1, 91949, Note_on_c, 0, 58, 44
1, 91954, Note_on_c, 0, 70, 65
1, 91972, Control_c, 0, 67, 92
1, 92021, Note_off_c, 0, 70, 60
1, 92029, Note_on_c, 0, 75, 55
1, 92032, Control_c, 0, 67, 91
1, 92092, Note_off_c, 0, 75, 54
1, 92107, Control_c, 0, 67, 92
1, 92112, Note_on_c, 0, 70, 59
1, 92168, Note_off_c, 0, 70, 59
1, 92202, Note_on_c, 0, 67, 49
1, 92210, Control_c, 0, 67, 92
1, 92225, Control_c, 0, 67, 93
1, 92269, Control_c, 0, 67, 92
1, 92275, Note_off_c, 0, 67, 58
1, 92283, Note_off_c, 0, 58, 41
1, 92299, Note_off_c, 0, 51, 26
1, 92299, Control_c, 0, 67, 92
1, 92315, Note_on_c, 0, 70, 41
1, 92351, Control_c, 0, 64, 56
1, 92365, Control_c, 0, 64, 66
1, 92365, Control_c, 0, 67, 92
1, 92368, Note_off_c, 0, 61, 46
1, 92380, Control_c, 0, 64, 68
1, 92380, Control_c, 0, 67, 93
1, 92395, Control_c, 0, 64, 69
1, 92396, Note_off_c, 0, 70, 40
1, 92410, Control_c, 0, 64, 70
1, 92410, Control_c, 0, 67, 92
1, 92425, Control_c, 0, 64, 72
1, 92425, Control_c, 0, 67, 92
1, 92440, Control_c, 0, 64, 74
1, 92455, Control_c, 0, 64, 76
1, 92603, Control_c, 0, 64, 75
1, 92618, Control_c, 0, 64, 73
1, 92633, Control_c, 0, 64, 70
1, 92648, Control_c, 0, 64, 64
1, 92656, Note_on_c, 0, 44, 39
1, 92662, Note_on_c, 0, 75, 45
1, 92662, Control_c, 0, 64, 44
1, 92677, Control_c, 0, 64, 0
1, 92677, Control_c, 0, 67, 91
1, 92688, Note_off_c, 0, 44, 59
1, 92692, Control_c, 0, 67, 91
1, 92700, Note_off_c, 0, 75, 54
1, 92741, Note_on_c, 0, 80, 60
1, 92781, Control_c, 0, 67, 90
1, 92799, Note_off_c, 0, 80, 59
1, 92810, Control_c, 0, 67, 90
1, 92813, Note_on_c, 0, 75, 65
1, 92840, Control_c, 0, 67, 89
1, 92853, Note_off_c, 0, 75, 65
1, 92896, Note_on_c, 0, 72, 59
1, 92914, Note_off_c, 0, 72, 66
1, 92914, Control_c, 0, 67, 89
1, 92944, Control_c, 0, 67, 88
1, 92968, Note_on_c, 0, 56, 43
1, 92971, Note_on_c, 0, 51, 43
1, 92977, Note_on_c, 0, 60, 37
1, 92983, Note_on_c, 0, 72, 59
1, 93028, Note_off_c, 0, 72, 58
1, 93051, Note_on_c, 0, 75, 57
1, 93099, Control_c, 0, 67, 88
1, 93112, Note_off_c, 0, 75, 61
1, 93144, Note_on_c, 0, 72, 56
1, 93168, Note_off_c, 0, 72, 60
1, 93218, Note_on_c, 0, 68, 51
1, 93218, Control_c, 0, 67, 87
1, 93262, Note_off_c, 0, 68, 50
1, 93298, Note_on_c, 0, 72, 42
1, 93308, Control_c, 0, 67, 87
1, 93323, Control_c, 0, 67, 86
1, 93338, Control_c, 0, 67, 86
1, 93353, Control_c, 0, 67, 85
1, 93365, Note_off_c, 0, 72, 62
1, 93382, Control_c, 0, 64, 60
1, 93382, Control_c, 0, 67, 84
1, 93391, Note_off_c, 0, 56, 56
1, 93397, Control_c, 0, 64, 64
1, 93397, Control_c, 0, 67, 84
1, 93398, Note_off_c, 0, 60, 51
1, 93411, Control_c, 0, 64, 65
1, 93426, Control_c, 0, 64, 65
1, 93429, Note_off_c, 0, 51, 56
1, 93441, Control_c, 0, 64, 66
1, 93456, Control_c, 0, 64, 67
1, 93456, Control_c, 0, 67, 83
1, 93471, Control_c, 0, 64, 68
1, 93500, Control_c, 0, 64, 68
1, 93530, Control_c, 0, 64, 69
1, 93530, Control_c, 0, 67, 84
1, 93559, Control_c, 0, 64, 68
1, 93574, Control_c, 0, 64, 66
1, 93589, Control_c, 0, 64, 61
1, 93604, Control_c, 0, 64, 22
1, 93604, Control_c, 0, 67, 83
1, 93618, Control_c, 0, 64, 0
1, 93633, Control_c, 0, 64, 27
1, 93648, Control_c, 0, 64, 62
1, 93654, Note_on_c, 0, 44, 38
1, 93663, Control_c, 0, 64, 67
1, 93663, Control_c, 0, 67, 84
1, 93667, Note_on_c, 0, 84, 56
1, 93678, Control_c, 0, 64, 71
1, 93685, Note_off_c, 0, 44, 54
1, 93692, Control_c, 0, 64, 74
1, 93707, Control_c, 0, 64, 77
1, 93722, Control_c, 0, 64, 78
1, 93722, Control_c, 0, 67, 83
1, 93731, Note_off_c, 0, 84, 48
1, 93737, Control_c, 0, 64, 78
1, 93737, Control_c, 0, 67, 83
1, 93752, Control_c, 0, 67, 82
1, 93756, Note_on_c, 0, 87, 64
1, 93829, Note_off_c, 0, 87, 62
1, 93834, Control_c, 0, 67, 81
1, 93838, Note_on_c, 0, 84, 78
1, 93849, Control_c, 0, 67, 78
1, 93864, Control_c, 0, 67, 75
1, 93879, Control_c, 0, 67, 73
1, 93883, Note_off_c, 0, 84, 60
1, 93893, Control_c, 0, 67, 72
1, 93908, Control_c, 0, 64, 77
1, 93908, Control_c, 0, 67, 71
1, 93913, Note_on_c, 0, 80, 70
1, 93923, Control_c, 0, 64, 75
1, 93923, Control_c, 0, 67, 71
1, 93937, Control_c, 0, 64, 69
1, 93937, Control_c, 0, 67, 70
1, 93940, Note_off_c, 0, 80, 64
1, 93952, Control_c, 0, 64, 57
1, 93952, Control_c, 0, 67, 69
1, 93967, Control_c, 0, 64, 0
1, 93967, Control_c, 0, 67, 68
1, 93982, Control_c, 0, 67, 67
1, 93990, Note_on_c, 0, 54, 43
1, 93991, Note_on_c, 0, 80, 69
1, 93992, Note_on_c, 0, 56, 39
1, 93994, Note_on_c, 0, 60, 40
1, 93997, Control_c, 0, 67, 65
1, 94011, Control_c, 0, 67, 64
1, 94026, Control_c, 0, 67, 63
1, 94042, Control_c, 0, 67, 61
1, 94053, Note_off_c, 0, 80, 61
1, 94057, Control_c, 0, 67, 60
1, 94072, Control_c, 0, 67, 59
1, 94074, Note_on_c, 0, 84, 60
1, 94087, Control_c, 0, 67, 58
1, 94102, Control_c, 0, 67, 55
1, 94116, Control_c, 0, 67, 52
1, 94131, Control_c, 0, 67, 49
1, 94133, Note_off_c, 0, 84, 64
1, 94146, Control_c, 0, 67, 45
1, 94155, Note_on_c, 0, 80, 64
1, 94160, Control_c, 0, 67, 40
1, 94175, Control_c, 0, 67, 34
1, 94187, Note_off_c, 0, 80, 64
1, 94190, Control_c, 0, 67, 27
1, 94205, Control_c, 0, 67, 17
1, 94220, Control_c, 0, 67, 8
1, 94233, Note_on_c, 0, 75, 56
1, 94235, Control_c, 0, 67, 0
1, 94274, Note_off_c, 0, 75, 62
1, 94318, Note_on_c, 0, 80, 54
1, 94380, Note_off_c, 0, 80, 60
1, 94643, Note_off_c, 0, 54, 49
1, 94656, Note_on_c, 0, 49, 46
1, 94666, Note_off_c, 0, 56, 40
1, 94677, Note_off_c, 0, 60, 37
1, 94685, Note_on_c, 0, 85, 64
1, 94736, Note_off_c, 0, 85, 63
1, 94762, Note_on_c, 0, 89, 69
1, 94804, Note_off_c, 0, 49, 35
1, 94832, Note_off_c, 0, 89, 65
1, 94843, Note_on_c, 0, 85, 68
1, 94883, Note_off_c, 0, 85, 62
1, 94912, Note_on_c, 0, 80, 69
1, 94941, Note_off_c, 0, 80, 64
1, 94998, Note_on_c, 0, 61, 51
1, 95001, Note_on_c, 0, 56, 41
1, 95001, Note_on_c, 0, 80, 69
1, 95004, Note_on_c, 0, 53, 44
1, 95075, Note_on_c, 0, 85, 67
1, 95079, Note_off_c, 0, 80, 64
1, 95156, Note_off_c, 0, 85, 63
1, 95159, Note_on_c, 0, 80, 70
1, 95222, Note_off_c, 0, 80, 63
1, 95234, Note_on_c, 0, 77, 62
1, 95312, Note_off_c, 0, 77, 52
1, 95343, Note_on_c, 0, 80, 53
1, 95405, Note_off_c, 0, 80, 61
1, 95405, Control_c, 0, 64, 43
1, 95420, Control_c, 0, 64, 66
1, 95435, Control_c, 0, 64, 71
1, 95450, Control_c, 0, 64, 76
1, 95457, Note_off_c, 0, 61, 59
1, 95464, Control_c, 0, 64, 81
1, 95477, Note_off_c, 0, 56, 42
1, 95479, Control_c, 0, 64, 84
1, 95494, Control_c, 0, 64, 85
1, 95508, Control_c, 0, 64, 86
1, 95523, Note_off_c, 0, 53, 37
1, 95523, Control_c, 0, 64, 86
1, 95538, Control_c, 0, 64, 87
1, 95553, Control_c, 0, 64, 87
1, 95568, Control_c, 0, 64, 88
1, 95582, Control_c, 0, 64, 89
1, 95597, Control_c, 0, 64, 90
1, 95612, Control_c, 0, 64, 91
1, 95643, Control_c, 0, 64, 90
1, 95658, Control_c, 0, 64, 89
1, 95673, Control_c, 0, 64, 83
1, 95687, Control_c, 0, 64, 74
1, 95690, Note_on_c, 0, 39, 49
1, 95699, Note_on_c, 0, 87, 64
1, 95702, Control_c, 0, 64, 63
1, 95717, Control_c, 0, 64, 42
1, 95732, Control_c, 0, 64, 60
1, 95747, Control_c, 0, 64, 67
1, 95761, Control_c, 0, 64, 72
1, 95776, Control_c, 0, 64, 76
1, 95788, Note_off_c, 0, 39, 41
1, 95791, Control_c, 0, 64, 77
1, 95793, Note_off_c, 0, 87, 64
1, 95804, Note_on_c, 0, 91, 77
1, 95880, Note_off_c, 0, 91, 60
1, 95882, Note_on_c, 0, 87, 77
1, 95935, Note_off_c, 0, 87, 61
1, 95953, Note_on_c, 0, 82, 76
1, 95969, Control_c, 0, 64, 76
1, 95984, Control_c, 0, 64, 74
1, 95985, Note_off_c, 0, 82, 61
1, 95999, Control_c, 0, 64, 70
1, 96013, Control_c, 0, 64, 64
1, 96028, Control_c, 0, 64, 35
1, 96029, Note_on_c, 0, 61, 55
1, 96037, Note_on_c, 0, 82, 67
1, 96040, Note_on_c, 0, 58, 44
1, 96043, Control_c, 0, 64, 0
1, 96046, Note_on_c, 0, 51, 39
1, 96108, Note_off_c, 0, 82, 62
1, 96125, Note_on_c, 0, 87, 67
1, 96197, Note_off_c, 0, 87, 61
1, 96205, Note_on_c, 0, 82, 63
1, 96255, Note_off_c, 0, 82, 61
1, 96283, Note_on_c, 0, 79, 58
1, 96349, Note_off_c, 0, 79, 55
1, 96377, Note_off_c, 0, 58, 60
1, 96393, Note_on_c, 0, 82, 43
1, 96420, Control_c, 0, 64, 58
1, 96436, Control_c, 0, 64, 64
1, 96451, Control_c, 0, 64, 65
1, 96456, Note_off_c, 0, 61, 59
1, 96466, Control_c, 0, 64, 67
1, 96481, Control_c, 0, 64, 70
1, 96491, Note_off_c, 0, 51, 46
1, 96496, Control_c, 0, 64, 73
1, 96510, Control_c, 0, 64, 77
1, 96525, Note_off_c, 0, 82, 41
1, 96525, Control_c, 0, 64, 81
1, 96540, Control_c, 0, 64, 81
1, 96554, Control_c, 0, 64, 82
1, 96569, Control_c, 0, 64, 82
1, 96763, Control_c, 0, 64, 82
1, 96778, Control_c, 0, 64, 78
1, 96786, Note_on_c, 0, 44, 17
1, 96792, Control_c, 0, 64, 72
1, 96815, Control_c, 0, 64, 60
1, 96830, Control_c, 0, 64, 40
1, 96840, Note_on_c, 0, 87, 50
1, 96844, Control_c, 0, 64, 59
1, 96859, Control_c, 0, 64, 65
1, 96874, Control_c, 0, 64, 70
1, 96889, Control_c, 0, 64, 73
1, 96904, Control_c, 0, 64, 75
1, 96918, Control_c, 0, 64, 76
1, 96933, Control_c, 0, 64, 77
1, 96936, Note_off_c, 0, 44, 56
1, 96948, Note_off_c, 0, 87, 61
1, 96948, Control_c, 0, 64, 77
1, 96959, Note_on_c, 0, 92, 58
1, 97051, Note_off_c, 0, 92, 62
1, 97064, Note_on_c, 0, 87, 65
1, 97103, Note_off_c, 0, 87, 58
1, 97141, Control_c, 0, 64, 76
1, 97145, Note_on_c, 0, 84, 57
1, 97155, Control_c, 0, 64, 75
1, 97166, Note_off_c, 0, 84, 64
1, 97170, Control_c, 0, 64, 73
1, 97185, Control_c, 0, 64, 68
1, 97200, Control_c, 0, 64, 60
1, 97214, Note_on_c, 0, 56, 37
1, 97215, Control_c, 0, 64, 34
1, 97218, Note_on_c, 0, 60, 36
1, 97231, Control_c, 0, 64, 0
1, 97235, Note_on_c, 0, 51, 34
1, 97243, Note_on_c, 0, 84, 56
1, 97311, Note_off_c, 0, 84, 53
1, 97334, Note_on_c, 0, 87, 50
1, 97408, Note_off_c, 0, 87, 61
1, 97438, Note_on_c, 0, 84, 48
1, 97500, Note_off_c, 0, 84, 63
1, 97527, Note_on_c, 0, 80, 48
1, 97576, Note_off_c, 0, 80, 49
1, 97663, Note_on_c, 0, 84, 28
1, 97726, Control_c, 0, 64, 62
1, 97741, Control_c, 0, 64, 68
1, 97756, Control_c, 0, 64, 72
1, 97770, Note_off_c, 0, 60, 50
1, 97771, Control_c, 0, 64, 78
1, 97785, Control_c, 0, 64, 83
1, 97800, Control_c, 0, 64, 85
1, 97810, Note_off_c, 0, 84, 42
1, 97815, Control_c, 0, 64, 87
1, 97816, Note_off_c, 0, 56, 40
1, 97830, Control_c, 0, 64, 88
1, 97845, Control_c, 0, 64, 89
1, 97860, Control_c, 0, 64, 91
1, 97875, Control_c, 0, 64, 92
1, 97889, Control_c, 0, 64, 92
1, 97900, Note_off_c, 0, 51, 41
1, 97904, Control_c, 0, 64, 93
1, 97919, Control_c, 0, 64, 94
1, 97934, Control_c, 0, 64, 94
1, 97964, Control_c, 0, 64, 95
1, 97978, Control_c, 0, 64, 95
1, 98023, Control_c, 0, 64, 96
1, 98053, Control_c, 0, 64, 96
1, 98319, Note_on_c, 0, 51, 43
1, 98327, Note_on_c, 0, 72, 45
1, 98341, Control_c, 0, 64, 94
1, 98343, Note_on_c, 0, 44, 41
1, 98356, Control_c, 0, 64, 89
1, 98371, Control_c, 0, 64, 81
1, 98386, Control_c, 0, 64, 69
1, 98401, Control_c, 0, 64, 38
1, 98415, Control_c, 0, 64, 0
1, 98445, Control_c, 0, 64, 63
1, 98447, Note_off_c, 0, 72, 55
1, 98460, Control_c, 0, 64, 69
1, 98474, Control_c, 0, 64, 74
1, 98475, Note_on_c, 0, 75, 32
1, 98489, Control_c, 0, 64, 77
1, 98504, Control_c, 0, 64, 78
1, 98519, Control_c, 0, 64, 78
1, 98533, Control_c, 0, 64, 79
1, 98548, Control_c, 0, 64, 80
1, 98557, Note_off_c, 0, 75, 58
1, 98563, Control_c, 0, 64, 80
1, 98578, Note_on_c, 0, 72, 46
1, 98578, Control_c, 0, 64, 81
1, 98593, Control_c, 0, 64, 82
1, 98608, Control_c, 0, 64, 82
1, 98621, Note_off_c, 0, 72, 49
1, 98642, Note_on_c, 0, 68, 45
1, 98680, Note_off_c, 0, 68, 50
1, 98745, Note_on_c, 0, 56, 62
1, 98782, Note_on_c, 0, 68, 53
1, 98826, Note_off_c, 0, 68, 48
1, 98873, Note_on_c, 0, 72, 44
1, 98923, Note_off_c, 0, 72, 49
1, 98938, Note_on_c, 0, 68, 56
1, 98945, Note_off_c, 0, 44, 40
1, 98957, Note_off_c, 0, 51, 35
1, 98989, Note_off_c, 0, 68, 60
1, 99024, Note_on_c, 0, 63, 45
1, 99092, Note_off_c, 0, 63, 42
1, 99113, Note_on_c, 0, 68, 58
1, 99265, Note_on_c, 0, 55, 68
1, 99266, Note_off_c, 0, 68, 53
1, 99267, Note_off_c, 0, 56, 56
1, 99456, Note_off_c, 0, 55, 62
1, 99460, Control_c, 0, 64, 82
1, 99465, Note_on_c, 0, 53, 59
1, 99468, Note_on_c, 0, 49, 53
1, 99471, Note_on_c, 0, 73, 63
1, 99475, Control_c, 0, 64, 78
1, 99490, Control_c, 0, 64, 69
1, 99505, Control_c, 0, 64, 27
1, 99520, Control_c, 0, 64, 0
1, 99565, Note_off_c, 0, 73, 64
1, 99568, Note_on_c, 0, 77, 70
1, 99594, Control_c, 0, 64, 61
1, 99609, Control_c, 0, 64, 65
1, 99624, Control_c, 0, 64, 67
1, 99639, Control_c, 0, 64, 70
1, 99643, Note_off_c, 0, 77, 61
1, 99654, Control_c, 0, 64, 73
1, 99654, Note_on_c, 0, 73, 61
1, 99669, Control_c, 0, 64, 77
1, 99684, Control_c, 0, 64, 80
1, 99697, Note_off_c, 0, 73, 60
1, 99699, Control_c, 0, 64, 80
1, 99714, Control_c, 0, 64, 81
1, 99735, Note_on_c, 0, 68, 65
1, 99758, Control_c, 0, 64, 81
1, 99768, Note_off_c, 0, 68, 63
1, 99840, Note_on_c, 0, 61, 76
1, 99854, Control_c, 0, 64, 80
1, 99869, Control_c, 0, 64, 74
1, 99871, Note_on_c, 0, 68, 58
1, 99884, Control_c, 0, 64, 61
1, 99899, Control_c, 0, 64, 0
1, 99924, Note_off_c, 0, 68, 59
1, 99944, Note_on_c, 0, 73, 52
1, 99973, Control_c, 0, 64, 53
1, 99988, Control_c, 0, 64, 65
1, 99992, Note_off_c, 0, 73, 56
1, 100003, Control_c, 0, 64, 68
1, 100018, Control_c, 0, 64, 69
1, 100021, Note_on_c, 0, 68, 58
1, 100033, Control_c, 0, 64, 71
1, 100048, Control_c, 0, 64, 72
1, 100061, Note_off_c, 0, 68, 64
1, 100062, Control_c, 0, 64, 74
1, 100077, Control_c, 0, 64, 76
1, 100080, Note_off_c, 0, 53, 42
1, 100092, Control_c, 0, 64, 77
1, 100093, Note_on_c, 0, 65, 56
1, 100106, Control_c, 0, 64, 78
1, 100121, Control_c, 0, 64, 78
1, 100136, Control_c, 0, 64, 79
1, 100149, Note_off_c, 0, 65, 55
1, 100178, Note_on_c, 0, 68, 59
1, 100180, Control_c, 0, 64, 79
1, 100271, Note_off_c, 0, 61, 56
1, 100292, Note_off_c, 0, 68, 54
1, 100328, Control_c, 0, 64, 80
1, 100343, Note_on_c, 0, 60, 76
1, 100343, Note_off_c, 0, 49, 60
1, 100477, Control_c, 0, 64, 79
1, 100492, Control_c, 0, 64, 79
1, 100507, Control_c, 0, 64, 75
1, 100519, Note_on_c, 0, 58, 66
1, 100522, Control_c, 0, 64, 66
1, 100526, Note_on_c, 0, 75, 66
1, 100528, Note_on_c, 0, 51, 58
1, 100537, Control_c, 0, 64, 0
1, 100569, Note_off_c, 0, 60, 54
1, 100612, Note_off_c, 0, 75, 64
1, 100627, Note_on_c, 0, 79, 65
1, 100634, Control_c, 0, 64, 61
1, 100649, Control_c, 0, 64, 66
1, 100664, Control_c, 0, 64, 68
1, 100678, Control_c, 0, 64, 69
1, 100687, Note_off_c, 0, 79, 61
1, 100693, Control_c, 0, 64, 71
1, 100705, Note_on_c, 0, 75, 66
1, 100708, Control_c, 0, 64, 73
1, 100723, Control_c, 0, 64, 75
1, 100737, Control_c, 0, 64, 76
1, 100752, Control_c, 0, 64, 76
1, 100760, Note_off_c, 0, 75, 63
1, 100767, Control_c, 0, 64, 77
1, 100787, Note_on_c, 0, 70, 69
1, 100797, Control_c, 0, 64, 77
1, 100824, Note_off_c, 0, 70, 56
1, 100871, Control_c, 0, 64, 76
1, 100874, Note_on_c, 0, 63, 81
1, 100885, Control_c, 0, 64, 73
1, 100896, Note_on_c, 0, 70, 58
1, 100900, Control_c, 0, 64, 67
1, 100915, Control_c, 0, 64, 37
1, 100930, Control_c, 0, 64, 0
1, 100961, Note_off_c, 0, 70, 61
1, 100972, Note_on_c, 0, 75, 57
1, 101038, Note_off_c, 0, 75, 60
1, 101045, Note_on_c, 0, 70, 65
1, 101049, Control_c, 0, 64, 60
1, 101064, Control_c, 0, 64, 67
1, 101078, Control_c, 0, 64, 70
1, 101093, Control_c, 0, 64, 73
1, 101108, Control_c, 0, 64, 76
1, 101110, Note_off_c, 0, 70, 62
1, 101122, Control_c, 0, 64, 78
1, 101125, Note_on_c, 0, 67, 59
1, 101129, Note_off_c, 0, 51, 54
1, 101137, Control_c, 0, 64, 79
1, 101143, Note_off_c, 0, 58, 57
1, 101167, Control_c, 0, 64, 80
1, 101224, Note_off_c, 0, 67, 50
1, 101226, Note_on_c, 0, 70, 56
1, 101341, Note_off_c, 0, 70, 61
1, 101368, Note_on_c, 0, 61, 71
1, 101398, Control_c, 0, 64, 79
1, 101409, Note_off_c, 0, 63, 51
1, 101442, Control_c, 0, 64, 79
1, 101457, Control_c, 0, 64, 78
1, 101472, Control_c, 0, 64, 77
1, 101487, Control_c, 0, 64, 76
1, 101501, Control_c, 0, 64, 73
1, 101516, Control_c, 0, 64, 70
1, 101531, Control_c, 0, 64, 65
1, 101546, Control_c, 0, 64, 55
1, 101552, Note_off_c, 0, 61, 57
1, 101553, Note_on_c, 0, 60, 45
1, 101560, Control_c, 0, 64, 0
1, 101562, Note_on_c, 0, 75, 47
1, 101567, Note_on_c, 0, 56, 47
1, 101604, Note_off_c, 0, 75, 57
1, 101639, Note_on_c, 0, 80, 60
1, 101703, Note_off_c, 0, 80, 60
1, 101717, Note_on_c, 0, 75, 60
1, 101758, Note_off_c, 0, 75, 66
1, 101791, Note_on_c, 0, 72, 60
1, 101821, Note_off_c, 0, 72, 67
1, 101870, Note_on_c, 0, 63, 56
1, 101891, Note_on_c, 0, 72, 56
1, 101935, Note_off_c, 0, 72, 61
1, 101959, Note_on_c, 0, 75, 56
1, 102001, Note_off_c, 0, 75, 62
1, 102063, Note_on_c, 0, 72, 51
1, 102087, Control_c, 0, 64, 37
1, 102091, Note_off_c, 0, 72, 56
1, 102102, Control_c, 0, 64, 61
1, 102110, Note_off_c, 0, 63, 55
1, 102117, Control_c, 0, 64, 64
1, 102131, Control_c, 0, 64, 66
1, 102143, Note_on_c, 0, 68, 37
1, 102146, Control_c, 0, 64, 68
1, 102148, Note_off_c, 0, 60, 52
1, 102161, Control_c, 0, 64, 70
1, 102176, Control_c, 0, 64, 74
1, 102188, Note_off_c, 0, 68, 47
1, 102191, Control_c, 0, 64, 77
1, 102200, Note_off_c, 0, 56, 39
1, 102206, Control_c, 0, 64, 78
1, 102213, Note_on_c, 0, 72, 42
1, 102221, Control_c, 0, 64, 79
1, 102236, Control_c, 0, 64, 80
1, 102250, Control_c, 0, 64, 80
1, 102265, Control_c, 0, 64, 81
1, 102280, Control_c, 0, 64, 81
1, 102283, Note_off_c, 0, 72, 52
1, 102324, Control_c, 0, 64, 82
1, 102709, Control_c, 0, 64, 81
1, 102724, Note_on_c, 0, 51, 78
1, 102724, Control_c, 0, 64, 76
1, 102736, Note_on_c, 0, 44, 67
1, 102739, Note_on_c, 0, 84, 75
1, 102739, Control_c, 0, 64, 63
1, 102753, Control_c, 0, 64, 0
1, 102835, Control_c, 0, 64, 60
1, 102850, Control_c, 0, 64, 66
1, 102865, Control_c, 0, 64, 68
1, 102874, Note_on_c, 0, 87, 70
1, 102874, Note_off_c, 0, 84, 58
1, 102880, Control_c, 0, 64, 70
1, 102894, Control_c, 0, 64, 72
1, 102909, Control_c, 0, 64, 74
1, 102924, Control_c, 0, 64, 77
1, 102939, Control_c, 0, 64, 79
1, 102969, Control_c, 0, 64, 79
1, 102981, Note_on_c, 0, 84, 69
1, 102984, Control_c, 0, 64, 80
1, 102987, Note_off_c, 0, 87, 57
1, 102998, Control_c, 0, 64, 80
1, 103028, Control_c, 0, 64, 81
1, 103037, Note_off_c, 0, 84, 63
1, 103043, Control_c, 0, 64, 81
1, 103056, Note_on_c, 0, 80, 61
1, 103081, Note_off_c, 0, 80, 60
1, 103124, Note_on_c, 0, 56, 83
1, 103150, Note_on_c, 0, 80, 69
1, 103176, Control_c, 0, 64, 82
1, 103222, Note_off_c, 0, 80, 61
1, 103225, Note_on_c, 0, 84, 66
1, 103299, Note_off_c, 0, 84, 63
1, 103311, Note_on_c, 0, 80, 65
1, 103315, Note_off_c, 0, 51, 59
1, 103340, Note_off_c, 0, 44, 60
1, 103370, Note_off_c, 0, 80, 63
1, 103383, Note_on_c, 0, 75, 64
1, 103469, Note_off_c, 0, 75, 56
1, 103470, Note_on_c, 0, 80, 67
1, 103599, Note_off_c, 0, 80, 63
1, 103631, Note_on_c, 0, 55, 80
1, 103633, Note_off_c, 0, 56, 58
1, 103792, Control_c, 0, 64, 81
1, 103803, Note_on_c, 0, 53, 74
1, 103807, Control_c, 0, 64, 75
1, 103807, Note_on_c, 0, 49, 67
1, 103811, Note_off_c, 0, 55, 64
1, 103821, Control_c, 0, 64, 64
1, 103825, Note_on_c, 0, 85, 72
1, 103836, Control_c, 0, 64, 0
1, 103905, Note_off_c, 0, 85, 64
1, 103910, Control_c, 0, 64, 47
1, 103911, Note_on_c, 0, 89, 81
1, 103925, Control_c, 0, 64, 64
1, 103940, Control_c, 0, 64, 68
1, 103954, Control_c, 0, 64, 70
1, 103969, Control_c, 0, 64, 73
1, 103984, Control_c, 0, 64, 76
1, 103995, Note_on_c, 0, 85, 75
1, 103996, Note_off_c, 0, 89, 64
1, 103999, Control_c, 0, 64, 79
1, 104014, Control_c, 0, 64, 80
1, 104028, Control_c, 0, 64, 80
1, 104043, Control_c, 0, 64, 81
1, 104051, Note_off_c, 0, 85, 65
1, 104060, Note_on_c, 0, 80, 78
1, 104073, Control_c, 0, 64, 81
1, 104088, Control_c, 0, 64, 82
1, 104108, Note_off_c, 0, 80, 63
1, 104148, Note_on_c, 0, 61, 89
1, 104161, Note_on_c, 0, 80, 53
1, 104161, Control_c, 0, 64, 80
1, 104176, Control_c, 0, 64, 71
1, 104191, Control_c, 0, 64, 34
1, 104206, Control_c, 0, 64, 0
1, 104242, Note_on_c, 0, 85, 67
1, 104242, Note_off_c, 0, 80, 64
1, 104280, Control_c, 0, 64, 60
1, 104302, Control_c, 0, 64, 67
1, 104317, Control_c, 0, 64, 69
1, 104332, Control_c, 0, 64, 70
1, 104337, Note_on_c, 0, 80, 73
1, 104340, Note_off_c, 0, 85, 63
1, 104346, Control_c, 0, 64, 72
1, 104361, Control_c, 0, 64, 73
1, 104376, Control_c, 0, 64, 76
1, 104391, Control_c, 0, 64, 78
1, 104394, Note_off_c, 0, 80, 64
1, 104397, Note_off_c, 0, 53, 59
1, 104401, Note_on_c, 0, 77, 73
1, 104406, Control_c, 0, 64, 78
1, 104422, Control_c, 0, 64, 79
1, 104437, Control_c, 0, 64, 79
1, 104466, Control_c, 0, 64, 80
1, 104488, Note_off_c, 0, 77, 62
1, 104490, Note_on_c, 0, 80, 75
1, 104496, Control_c, 0, 64, 80
1, 104525, Control_c, 0, 64, 81
1, 104570, Control_c, 0, 64, 81
1, 104586, Note_off_c, 0, 61, 61
1, 104598, Note_off_c, 0, 80, 64
1, 104599, Control_c, 0, 64, 82
1, 104651, Note_on_c, 0, 60, 87
1, 104653, Note_off_c, 0, 49, 49
1, 104813, Note_on_c, 0, 58, 76
1, 104817, Note_on_c, 0, 51, 71
1, 104828, Note_on_c, 0, 87, 79
1, 104835, Note_off_c, 0, 60, 52
1, 104837, Control_c, 0, 64, 78
1, 104851, Control_c, 0, 64, 65
1, 104866, Control_c, 0, 64, 0
1, 104907, Note_off_c, 0, 87, 63
1, 104915, Note_on_c, 0, 91, 77
1, 104940, Control_c, 0, 64, 56
1, 104955, Control_c, 0, 64, 66
1, 104969, Control_c, 0, 64, 68
1, 104984, Control_c, 0, 64, 71
1, 104988, Note_off_c, 0, 91, 59
1, 104999, Note_on_c, 0, 87, 70
1, 104999, Control_c, 0, 64, 73
1, 105014, Control_c, 0, 64, 75
1, 105029, Control_c, 0, 64, 77
1, 105050, Control_c, 0, 64, 78
1, 105065, Control_c, 0, 64, 79
1, 105067, Note_off_c, 0, 87, 63
1, 105080, Control_c, 0, 64, 80
1, 105082, Note_on_c, 0, 82, 69
1, 105094, Control_c, 0, 64, 81
1, 105109, Note_off_c, 0, 82, 65
1, 105109, Control_c, 0, 64, 82
1, 105124, Control_c, 0, 64, 83
1, 105160, Note_on_c, 0, 63, 91
1, 105169, Control_c, 0, 64, 82
1, 105175, Note_on_c, 0, 82, 71
1, 105184, Control_c, 0, 64, 76
1, 105199, Control_c, 0, 64, 61
1, 105214, Control_c, 0, 64, 0
1, 105246, Note_off_c, 0, 82, 63
1, 105252, Note_on_c, 0, 87, 75
1, 105303, Control_c, 0, 64, 63
1, 105318, Control_c, 0, 64, 67
1, 105333, Note_on_c, 0, 82, 76
1, 105333, Control_c, 0, 64, 69
1, 105336, Note_off_c, 0, 87, 63
1, 105348, Control_c, 0, 64, 70
1, 105363, Control_c, 0, 64, 72
1, 105377, Control_c, 0, 64, 74
1, 105382, Note_off_c, 0, 58, 63
1, 105384, Note_off_c, 0, 82, 65
1, 105392, Control_c, 0, 64, 76
1, 105394, Note_off_c, 0, 51, 54
1, 105398, Note_on_c, 0, 79, 78
1, 105407, Control_c, 0, 64, 77
1, 105422, Control_c, 0, 64, 77
1, 105452, Control_c, 0, 64, 78
1, 105481, Control_c, 0, 64, 78
1, 105482, Note_on_c, 0, 82, 82
1, 105482, Note_off_c, 0, 79, 60
1, 105511, Control_c, 0, 64, 79
1, 105555, Control_c, 0, 64, 79
1, 105565, Note_off_c, 0, 82, 63
1, 105614, Control_c, 0, 64, 80
1, 105636, Note_on_c, 0, 61, 88
1, 105641, Note_off_c, 0, 63, 57
1, 105673, Control_c, 0, 64, 80
1, 105802, Note_off_c, 0, 61, 63
1, 105810, Note_on_c, 0, 60, 75
1, 105814, Control_c, 0, 64, 79
1, 105817, Note_on_c, 0, 56, 66
1, 105829, Control_c, 0, 64, 72
1, 105830, Note_on_c, 0, 87, 81
1, 105844, Control_c, 0, 64, 52
1, 105859, Control_c, 0, 64, 0
1, 105896, Note_off_c, 0, 87, 60
1, 105909, Note_on_c, 0, 92, 87
1, 105932, Control_c, 0, 64, 53
1, 105947, Control_c, 0, 64, 65
1, 105962, Control_c, 0, 64, 68
1, 105977, Control_c, 0, 64, 71
1, 105992, Control_c, 0, 64, 73
1, 105998, Note_on_c, 0, 87, 81
1, 106006, Control_c, 0, 64, 77
1, 106010, Note_off_c, 0, 92, 65
1, 106022, Control_c, 0, 64, 78
1, 106037, Control_c, 0, 64, 79
1, 106052, Note_off_c, 0, 87, 64
1, 106075, Note_on_c, 0, 84, 77
1, 106101, Note_off_c, 0, 84, 67
1, 106126, Control_c, 0, 64, 78
1, 106141, Control_c, 0, 64, 76
1, 106141, Note_on_c, 0, 63, 97
1, 106154, Note_on_c, 0, 84, 74
1, 106156, Control_c, 0, 64, 71
1, 106170, Control_c, 0, 64, 63
1, 106185, Control_c, 0, 64, 0
1, 106219, Note_off_c, 0, 84, 61
1, 106230, Note_on_c, 0, 87, 72
1, 106293, Note_off_c, 0, 87, 60
1, 106311, Note_on_c, 0, 84, 75
1, 106324, Note_off_c, 0, 60, 58
1, 106361, Note_off_c, 0, 84, 61
1, 106378, Control_c, 0, 64, 50
1, 106391, Note_on_c, 0, 80, 69
1, 106393, Control_c, 0, 64, 60
1, 106408, Control_c, 0, 64, 63
1, 106422, Control_c, 0, 64, 64
1, 106437, Control_c, 0, 64, 65
1, 106450, Note_off_c, 0, 80, 62
1, 106452, Control_c, 0, 64, 67
1, 106463, Note_on_c, 0, 84, 74
1, 106466, Control_c, 0, 64, 68
1, 106481, Control_c, 0, 64, 70
1, 106497, Control_c, 0, 64, 71
1, 106512, Control_c, 0, 64, 73
1, 106522, Note_off_c, 0, 84, 62
1, 106527, Control_c, 0, 64, 74
1, 106549, Control_c, 0, 64, 75
1, 106564, Control_c, 0, 64, 75
1, 106594, Control_c, 0, 64, 76
1, 106613, Note_off_c, 0, 56, 64
1, 106614, Note_on_c, 0, 60, 78
1, 106615, Note_off_c, 0, 63, 64
1, 106817, Control_c, 0, 64, 75
1, 106822, Note_on_c, 0, 58, 73
1, 106832, Control_c, 0, 64, 72
1, 106835, Note_on_c, 0, 51, 64
1, 106835, Note_on_c, 0, 87, 71
1, 106836, Note_off_c, 0, 60, 55
1, 106846, Control_c, 0, 64, 66
1, 106861, Control_c, 0, 64, 0
1, 106910, Note_off_c, 0, 87, 62
1, 106926, Note_on_c, 0, 91, 76
1, 106979, Control_c, 0, 64, 37
1, 106994, Control_c, 0, 64, 64
1, 106995, Note_off_c, 0, 91, 60
1, 107000, Note_on_c, 0, 87, 74
1, 107009, Control_c, 0, 64, 68
1, 107024, Control_c, 0, 64, 70
1, 107038, Control_c, 0, 64, 74
1, 107053, Note_off_c, 0, 87, 63
1, 107053, Control_c, 0, 64, 78
1, 107068, Control_c, 0, 64, 80
1, 107069, Note_on_c, 0, 82, 79
1, 107083, Control_c, 0, 64, 81
1, 107097, Control_c, 0, 64, 82
1, 107108, Note_off_c, 0, 82, 63
1, 107112, Control_c, 0, 64, 84
1, 107127, Control_c, 0, 64, 86
1, 107142, Control_c, 0, 64, 88
1, 107157, Control_c, 0, 64, 88
1, 107159, Note_on_c, 0, 82, 71
1, 107165, Note_on_c, 0, 63, 90
1, 107187, Control_c, 0, 64, 88
1, 107202, Control_c, 0, 64, 85
1, 107217, Control_c, 0, 64, 77
1, 107226, Note_off_c, 0, 82, 65
1, 107232, Control_c, 0, 64, 64
1, 107244, Note_on_c, 0, 87, 72
1, 107246, Control_c, 0, 64, 0
1, 107276, Control_c, 0, 64, 58
1, 107297, Control_c, 0, 64, 69
1, 107312, Control_c, 0, 64, 75
1, 107327, Control_c, 0, 64, 79
1, 107330, Note_on_c, 0, 82, 82
1, 107333, Note_off_c, 0, 87, 62
1, 107342, Control_c, 0, 64, 80
1, 107357, Control_c, 0, 64, 80
1, 107372, Note_off_c, 0, 51, 56
1, 107381, Note_off_c, 0, 82, 66
1, 107396, Note_on_c, 0, 79, 75
1, 107407, Note_off_c, 0, 58, 62
1, 107471, Note_off_c, 0, 79, 60
1, 107475, Note_on_c, 0, 82, 82
1, 107536, Note_off_c, 0, 82, 60
1, 107649, Note_on_c, 0, 61, 85
1, 107656, Note_off_c, 0, 63, 64
1, 107789, Note_off_c, 0, 61, 63
1, 107816, Note_on_c, 0, 60, 77
1, 107822, Note_on_c, 0, 56, 67
1, 107832, Control_c, 0, 64, 80
1, 107846, Note_on_c, 0, 87, 82
1, 107847, Control_c, 0, 64, 75
1, 107861, Control_c, 0, 64, 58
1, 107876, Control_c, 0, 64, 0
1, 107903, Note_off_c, 0, 87, 67
1, 107916, Note_on_c, 0, 92, 87
1, 107980, Control_c, 0, 64, 63
1, 107995, Control_c, 0, 64, 67
1, 108001, Note_on_c, 0, 87, 89
1, 108010, Control_c, 0, 64, 70
1, 108013, Note_off_c, 0, 92, 63
1, 108025, Control_c, 0, 64, 73
1, 108047, Control_c, 0, 64, 77
1, 108062, Control_c, 0, 64, 81
1, 108063, Note_off_c, 0, 87, 64
1, 108076, Control_c, 0, 64, 84
1, 108091, Control_c, 0, 64, 85
1, 108094, Note_on_c, 0, 84, 73
1, 108106, Control_c, 0, 64, 86
1, 108116, Note_off_c, 0, 84, 70
1, 108120, Control_c, 0, 64, 88
1, 108135, Control_c, 0, 64, 91
1, 108150, Control_c, 0, 64, 92
1, 108160, Note_on_c, 0, 63, 103
1, 108162, Note_on_c, 0, 84, 82
1, 108180, Control_c, 0, 64, 91
1, 108194, Control_c, 0, 64, 79
1, 108209, Control_c, 0, 64, 0
1, 108237, Note_off_c, 0, 84, 58
1, 108242, Note_on_c, 0, 87, 83
1, 108309, Note_off_c, 0, 87, 62
1, 108311, Note_off_c, 0, 60, 61
1, 108313, Control_c, 0, 64, 65
1, 108315, Note_on_c, 0, 84, 81
1, 108328, Control_c, 0, 64, 74
1, 108343, Control_c, 0, 64, 82
1, 108358, Control_c, 0, 64, 87
1, 108370, Note_off_c, 0, 84, 64
1, 108373, Control_c, 0, 64, 89
1, 108387, Note_on_c, 0, 80, 76
1, 108387, Control_c, 0, 64, 89
1, 108452, Note_off_c, 0, 80, 64
1, 108459, Note_on_c, 0, 84, 82
1, 108509, Note_off_c, 0, 84, 64
1, 108586, Note_off_c, 0, 63, 61
1, 108594, Note_off_c, 0, 56, 60
1, 108595, Note_on_c, 0, 60, 88
1, 108714, Control_c, 0, 64, 85
1, 108729, Control_c, 0, 64, 76
1, 108743, Control_c, 0, 64, 51
1, 108758, Control_c, 0, 64, 0
1, 108797, Note_on_c, 0, 58, 84
1, 108806, Note_on_c, 0, 51, 72
1, 108806, Note_on_c, 0, 87, 91
1, 108811, Note_off_c, 0, 60, 56
1, 108839, Control_c, 0, 64, 40
1, 108854, Control_c, 0, 64, 65
1, 108868, Control_c, 0, 64, 72
1, 108879, Note_off_c, 0, 87, 64
1, 108883, Note_on_c, 0, 91, 88
1, 108883, Control_c, 0, 64, 77
1, 108898, Control_c, 0, 64, 82
1, 108913, Control_c, 0, 64, 84
1, 108928, Control_c, 0, 64, 85
1, 108943, Control_c, 0, 64, 86
1, 108958, Control_c, 0, 64, 87
1, 108960, Note_on_c, 0, 87, 88
1, 108962, Note_off_c, 0, 91, 60
1, 108972, Control_c, 0, 64, 88
1, 109002, Control_c, 0, 64, 88
1, 109019, Note_off_c, 0, 87, 62
1, 109032, Control_c, 0, 64, 89
1, 109037, Note_on_c, 0, 82, 75
1, 109047, Control_c, 0, 64, 89
1, 109061, Note_off_c, 0, 82, 67
1, 109106, Control_c, 0, 64, 89
1, 109115, Note_on_c, 0, 63, 106
1, 109115, Note_on_c, 0, 82, 81
1, 109121, Control_c, 0, 64, 82
1, 109135, Control_c, 0, 64, 69
1, 109150, Control_c, 0, 64, 0
1, 109181, Note_off_c, 0, 82, 59
1, 109198, Note_on_c, 0, 87, 77
1, 109211, Control_c, 0, 64, 33
1, 109226, Control_c, 0, 64, 65
1, 109240, Control_c, 0, 64, 71
1, 109255, Control_c, 0, 64, 75
1, 109270, Control_c, 0, 64, 78
1, 109276, Note_on_c, 0, 82, 83
1, 109281, Note_off_c, 0, 87, 61
1, 109285, Control_c, 0, 64, 79
1, 109300, Control_c, 0, 64, 80
1, 109309, Note_off_c, 0, 51, 34
1, 109314, Control_c, 0, 64, 81
1, 109327, Note_off_c, 0, 63, 54
1, 109329, Control_c, 0, 64, 81
1, 109331, Note_off_c, 0, 82, 66
1, 109342, Note_on_c, 0, 79, 78
1, 109358, Control_c, 0, 64, 82
1, 109388, Control_c, 0, 64, 82
1, 109409, Note_off_c, 0, 79, 58
1, 109417, Note_on_c, 0, 82, 92
1, 109458, Note_off_c, 0, 82, 62
1, 109492, Control_c, 0, 64, 83
1, 109545, Control_c, 0, 64, 83
1, 109546, Note_off_c, 0, 58, 57
1, 109599, Note_on_c, 0, 61, 95
1, 109634, Control_c, 0, 64, 84
1, 109752, Control_c, 0, 64, 84
1, 109781, Control_c, 0, 64, 85
1, 109826, Control_c, 0, 64, 85
1, 109840, Control_c, 0, 64, 85
1, 109855, Control_c, 0, 64, 84
1, 109864, Note_off_c, 0, 61, 59
1, 109870, Control_c, 0, 64, 80
1, 109884, Note_on_c, 0, 87, 102
1, 109885, Control_c, 0, 64, 70
1, 109885, Note_on_c, 0, 60, 96
1, 109890, Note_on_c, 0, 56, 83
1, 109900, Control_c, 0, 64, 0
1, 110039, Note_off_c, 0, 87, 62
1, 110040, Note_on_c, 0, 92, 96
1, 110078, Control_c, 0, 64, 31
1, 110093, Control_c, 0, 64, 58
1, 110108, Control_c, 0, 64, 63
1, 110123, Control_c, 0, 64, 65
1, 110136, Note_on_c, 0, 87, 88
1, 110136, Note_off_c, 0, 92, 65
1, 110138, Control_c, 0, 64, 66
1, 110153, Control_c, 0, 64, 68
1, 110168, Control_c, 0, 64, 71
1, 110182, Control_c, 0, 64, 74
1, 110196, Note_off_c, 0, 87, 62
1, 110197, Control_c, 0, 64, 78
1, 110212, Control_c, 0, 64, 80
1, 110215, Note_on_c, 0, 84, 72
1, 110227, Control_c, 0, 64, 81
1, 110235, Note_off_c, 0, 84, 67
1, 110242, Control_c, 0, 64, 82
1, 110256, Control_c, 0, 64, 83
1, 110271, Control_c, 0, 64, 84
1, 110279, Note_on_c, 0, 84, 89
1, 110293, Control_c, 0, 64, 86
1, 110308, Control_c, 0, 64, 87
1, 110313, Note_off_c, 0, 60, 46
1, 110323, Control_c, 0, 64, 90
1, 110332, Note_off_c, 0, 56, 54
1, 110338, Control_c, 0, 64, 93
1, 110353, Control_c, 0, 64, 97
1, 110356, Note_off_c, 0, 84, 46
1, 110368, Note_on_c, 0, 87, 82
1, 110368, Control_c, 0, 64, 101
1, 110382, Control_c, 0, 64, 105
1, 110397, Control_c, 0, 64, 110
1, 110412, Control_c, 0, 64, 115
1, 110427, Control_c, 0, 64, 118
1, 110439, Note_off_c, 0, 87, 63
1, 110442, Control_c, 0, 64, 120
1, 110442, Note_on_c, 0, 84, 87
1, 110457, Control_c, 0, 64, 121
1, 110471, Control_c, 0, 64, 121
1, 110486, Control_c, 0, 64, 122
1, 110501, Control_c, 0, 64, 122
1, 110502, Note_off_c, 0, 84, 64
1, 110524, Note_on_c, 0, 80, 79
1, 110545, Note_off_c, 0, 80, 70
1, 110596, Note_on_c, 0, 80, 90
1, 110649, Control_c, 0, 64, 122
1, 110674, Note_off_c, 0, 80, 63
1, 110675, Note_on_c, 0, 84, 83
1, 110758, Note_on_c, 0, 80, 83
1, 110758, Note_off_c, 0, 84, 64
1, 110807, Note_off_c, 0, 80, 64
1, 110831, Note_on_c, 0, 75, 75
1, 110842, Control_c, 0, 64, 121
1, 110853, Note_off_c, 0, 75, 70
1, 110857, Control_c, 0, 64, 114
1, 110872, Control_c, 0, 64, 100
1, 110886, Control_c, 0, 64, 81
1, 110901, Control_c, 0, 64, 65
1, 110906, Note_on_c, 0, 75, 90
1, 110916, Control_c, 0, 64, 0
1, 110946, Control_c, 0, 64, 52
1, 110961, Control_c, 0, 64, 66
1, 110966, Note_off_c, 0, 75, 60
1, 110976, Control_c, 0, 64, 72
1, 110981, Note_on_c, 0, 80, 83
1, 110991, Control_c, 0, 64, 76
1, 111005, Control_c, 0, 64, 78
1, 111020, Control_c, 0, 64, 78
1, 111042, Control_c, 0, 64, 80
1, 111057, Control_c, 0, 64, 81
1, 111070, Note_on_c, 0, 75, 84
1, 111071, Control_c, 0, 64, 83
1, 111082, Note_off_c, 0, 80, 62
1, 111086, Control_c, 0, 64, 84
1, 111101, Control_c, 0, 64, 84
1, 111116, Control_c, 0, 64, 85
1, 111128, Note_off_c, 0, 75, 65
1, 111131, Control_c, 0, 64, 85
1, 111148, Note_on_c, 0, 72, 72
1, 111172, Note_off_c, 0, 72, 70
1, 111190, Control_c, 0, 64, 86
1, 111218, Note_on_c, 0, 72, 85
1, 111274, Note_off_c, 0, 72, 54
1, 111297, Note_on_c, 0, 75, 79
1, 111363, Note_off_c, 0, 75, 64
1, 111368, Note_on_c, 0, 72, 82
1, 111412, Control_c, 0, 64, 86
1, 111424, Note_off_c, 0, 72, 63
1, 111437, Note_on_c, 0, 68, 79
1, 111467, Note_off_c, 0, 68, 65
1, 111518, Note_on_c, 0, 68, 75
1, 111573, Note_off_c, 0, 68, 62
1, 111592, Note_on_c, 0, 72, 79
1, 111602, Poly_aftertouch_c, 0, 66, 0
1, 111623, Poly_aftertouch_c, 0, 66, 0
1, 111664, Note_off_c, 0, 72, 64
1, 111670, Note_on_c, 0, 68, 75
1, 111719, Note_off_c, 0, 68, 61
1, 111724, Control_c, 0, 64, 87
1, 111737, Note_on_c, 0, 63, 68
1, 111739, Control_c, 0, 64, 88
1, 111754, Control_c, 0, 64, 90
1, 111762, Note_off_c, 0, 63, 66
1, 111806, Control_c, 0, 64, 89
1, 111821, Control_c, 0, 64, 82
1, 111835, Control_c, 0, 64, 66
1, 111850, Control_c, 0, 64, 0
1, 111876, Note_on_c, 0, 63, 99
1, 111883, Note_on_c, 0, 75, 88
1, 111894, Control_c, 0, 64, 65
1, 111909, Note_off_c, 0, 63, 66
1, 111909, Control_c, 0, 64, 74
1, 111924, Control_c, 0, 64, 83
1, 111939, Control_c, 0, 64, 88
1, 111954, Control_c, 0, 64, 89
1, 111968, Control_c, 0, 64, 89
1, 111981, Note_on_c, 0, 80, 77
1, 111981, Note_off_c, 0, 75, 63
1, 112080, Note_off_c, 0, 80, 58
1, 112083, Note_on_c, 0, 75, 66
1, 112123, Note_off_c, 0, 75, 60
1, 112151, Note_on_c, 0, 72, 64
1, 112177, Note_off_c, 0, 72, 66
1, 112220, Note_on_c, 0, 60, 101
1, 112232, Note_on_c, 0, 72, 86
1, 112260, Note_off_c, 0, 60, 65
1, 112321, Note_off_c, 0, 72, 62
1, 112325, Note_on_c, 0, 75, 73
1, 112392, Note_off_c, 0, 75, 64
1, 112400, Note_on_c, 0, 72, 74
1, 112414, Control_c, 0, 64, 90
1, 112429, Control_c, 0, 64, 91
1, 112444, Control_c, 0, 64, 93
1, 112457, Note_off_c, 0, 72, 64
1, 112458, Control_c, 0, 64, 94
1, 112473, Control_c, 0, 64, 94
1, 112478, Note_on_c, 0, 68, 69
1, 112502, Control_c, 0, 64, 94
1, 112504, Note_off_c, 0, 68, 69
1, 112517, Control_c, 0, 64, 87
1, 112540, Control_c, 0, 64, 72
1, 112543, Note_on_c, 0, 56, 94
1, 112555, Note_on_c, 0, 68, 87
1, 112555, Control_c, 0, 64, 0
1, 112599, Control_c, 0, 64, 48
1, 112612, Note_off_c, 0, 56, 62
1, 112614, Control_c, 0, 64, 67
1, 112627, Note_off_c, 0, 68, 65
1, 112629, Control_c, 0, 64, 74
1, 112635, Note_on_c, 0, 72, 74
1, 112644, Control_c, 0, 64, 80
1, 112658, Control_c, 0, 64, 83
1, 112673, Control_c, 0, 64, 83
1, 112703, Control_c, 0, 64, 84
1, 112710, Note_off_c, 0, 72, 65
1, 112712, Note_on_c, 0, 68, 78
1, 112717, Control_c, 0, 64, 84
1, 112732, Control_c, 0, 64, 85
1, 112747, Control_c, 0, 64, 87
1, 112762, Control_c, 0, 64, 89
1, 112770, Note_off_c, 0, 68, 62
1, 112777, Control_c, 0, 64, 92
1, 112787, Note_on_c, 0, 63, 74
1, 112791, Control_c, 0, 64, 94
1, 112818, Note_off_c, 0, 63, 65
1, 112836, Control_c, 0, 64, 94
1, 112851, Control_c, 0, 64, 89
1, 112866, Control_c, 0, 64, 79
1, 112867, Note_on_c, 0, 51, 99
1, 112876, Note_on_c, 0, 63, 82
1, 112880, Control_c, 0, 64, 64
1, 112895, Control_c, 0, 64, 0
1, 112940, Control_c, 0, 64, 66
1, 112949, Note_on_c, 0, 68, 70
1, 112955, Note_off_c, 0, 63, 65
1, 112955, Control_c, 0, 64, 74
1, 112970, Control_c, 0, 64, 80
1, 112984, Control_c, 0, 64, 82
1, 113006, Note_off_c, 0, 51, 52
1, 113014, Control_c, 0, 64, 83
1, 113028, Control_c, 0, 64, 83
1, 113035, Note_on_c, 0, 63, 68
1, 113043, Control_c, 0, 64, 85
1, 113050, Note_off_c, 0, 68, 60
1, 113058, Control_c, 0, 64, 87
1, 113073, Control_c, 0, 64, 90
1, 113088, Control_c, 0, 64, 92
1, 113095, Note_off_c, 0, 63, 66
1, 113102, Control_c, 0, 64, 94
1, 113113, Note_on_c, 0, 60, 70
1, 113140, Note_off_c, 0, 60, 64
1, 113162, Control_c, 0, 64, 91
1, 113176, Control_c, 0, 64, 78
1, 113191, Control_c, 0, 64, 59
1, 113193, Note_on_c, 0, 48, 92
1, 113199, Note_on_c, 0, 60, 75
1, 113207, Control_c, 0, 64, 0
1, 113252, Control_c, 0, 64, 60
1, 113267, Control_c, 0, 64, 72
1, 113285, Note_off_c, 0, 60, 60
1, 113287, Note_on_c, 0, 63, 75
1, 113289, Control_c, 0, 64, 78
1, 113304, Control_c, 0, 64, 81
1, 113319, Control_c, 0, 64, 82
1, 113363, Note_on_c, 0, 60, 69
1, 113378, Control_c, 0, 64, 83
1, 113380, Note_off_c, 0, 63, 62
1, 113393, Control_c, 0, 64, 84
1, 113407, Control_c, 0, 64, 87
1, 113422, Control_c, 0, 64, 90
1, 113429, Note_off_c, 0, 60, 60
1, 113436, Note_on_c, 0, 56, 75
1, 113437, Control_c, 0, 64, 91
1, 113452, Control_c, 0, 64, 91
1, 113466, Control_c, 0, 64, 91
1, 113481, Control_c, 0, 64, 90
1, 113496, Control_c, 0, 64, 84
1, 113504, Note_off_c, 0, 56, 61
1, 113511, Note_on_c, 0, 63, 83
1, 113511, Control_c, 0, 64, 69
1, 113518, Note_on_c, 0, 51, 80
1, 113523, Note_off_c, 0, 48, 58
1, 113526, Control_c, 0, 64, 0
1, 113598, Note_on_c, 0, 68, 77
1, 113600, Note_off_c, 0, 63, 65
1, 113614, Control_c, 0, 64, 64
1, 113629, Control_c, 0, 64, 69
1, 113644, Control_c, 0, 64, 73
1, 113658, Control_c, 0, 64, 76
1, 113673, Control_c, 0, 64, 79
1, 113688, Control_c, 0, 64, 81
1, 113690, Note_on_c, 0, 63, 63
1, 113703, Note_off_c, 0, 68, 60
1, 113703, Control_c, 0, 64, 83
1, 113718, Control_c, 0, 64, 85
1, 113733, Control_c, 0, 64, 86
1, 113748, Control_c, 0, 64, 87
1, 113751, Note_off_c, 0, 51, 50
1, 113766, Note_on_c, 0, 60, 67
1, 113775, Note_off_c, 0, 63, 63
1, 113822, Control_c, 0, 64, 86
1, 113828, Note_off_c, 0, 60, 58
1, 113837, Control_c, 0, 64, 79
1, 113849, Note_on_c, 0, 56, 71
1, 113851, Control_c, 0, 64, 60
1, 113866, Control_c, 0, 64, 0
1, 113890, Note_on_c, 0, 44, 55
1, 113925, Control_c, 0, 64, 55
1, 113940, Control_c, 0, 64, 66
1, 113955, Control_c, 0, 64, 69
1, 113970, Control_c, 0, 64, 70
1, 113977, Note_off_c, 0, 56, 61
1, 113986, Note_on_c, 0, 60, 48
1, 114001, Control_c, 0, 64, 70
1, 114084, Note_off_c, 0, 60, 62
1, 114092, Note_on_c, 0, 56, 57
1, 114097, Control_c, 0, 64, 70
1, 114112, Control_c, 0, 64, 69
1, 114126, Control_c, 0, 64, 69
1, 114129, Note_off_c, 0, 56, 64
1, 114141, Control_c, 0, 64, 68
1, 114152, Note_on_c, 0, 51, 65
1, 114156, Control_c, 0, 64, 67
1, 114171, Control_c, 0, 64, 66
1, 114186, Control_c, 0, 64, 65
1, 114201, Control_c, 0, 64, 64
1, 114216, Control_c, 0, 64, 64
1, 114219, Note_off_c, 0, 51, 53
1, 114228, Note_on_c, 0, 56, 63
1, 114230, Control_c, 0, 64, 63
1, 114245, Control_c, 0, 64, 63
1, 114284, Note_off_c, 0, 56, 62
1, 114298, Note_on_c, 0, 60, 61
1, 114304, Control_c, 0, 64, 63
1, 114319, Control_c, 0, 64, 64
1, 114334, Control_c, 0, 64, 64
1, 114349, Control_c, 0, 64, 65
1, 114361, Note_off_c, 0, 60, 60
1, 114363, Control_c, 0, 64, 65
1, 114372, Note_on_c, 0, 56, 62
1, 114378, Control_c, 0, 64, 66
1, 114393, Control_c, 0, 64, 67
1, 114423, Control_c, 0, 64, 67
1, 114431, Note_off_c, 0, 56, 62
1, 114437, Control_c, 0, 64, 67
1, 114449, Note_on_c, 0, 51, 59
1, 114452, Control_c, 0, 64, 66
1, 114467, Control_c, 0, 64, 64
1, 114481, Control_c, 0, 64, 57
1, 114496, Control_c, 0, 64, 39
1, 114511, Control_c, 0, 64, 0
1, 114523, Note_off_c, 0, 51, 59
1, 114526, Control_c, 0, 64, 33
1, 114531, Note_on_c, 0, 56, 59
1, 114541, Control_c, 0, 64, 52
1, 114556, Control_c, 0, 64, 62
1, 114571, Control_c, 0, 64, 65
1, 114579, Note_off_c, 0, 56, 60
1, 114586, Control_c, 0, 64, 68
1, 114596, Note_on_c, 0, 60, 60
1, 114600, Control_c, 0, 64, 69
1, 114615, Control_c, 0, 64, 70
1, 114630, Control_c, 0, 64, 71
1, 114645, Control_c, 0, 64, 71
1, 114660, Control_c, 0, 64, 72
1, 114670, Note_off_c, 0, 60, 60
1, 114675, Control_c, 0, 64, 72
1, 114690, Note_on_c, 0, 56, 61
1, 114704, Control_c, 0, 64, 73
1, 114719, Control_c, 0, 64, 73
1, 114728, Note_off_c, 0, 56, 63
1, 114734, Control_c, 0, 64, 74
1, 114761, Note_on_c, 0, 51, 51
1, 114785, Control_c, 0, 64, 73
1, 114800, Control_c, 0, 64, 71
1, 114816, Control_c, 0, 64, 65
1, 114823, Note_off_c, 0, 51, 59
1, 114831, Control_c, 0, 64, 26
1, 114832, Note_on_c, 0, 56, 59
1, 114846, Control_c, 0, 64, 0
1, 114890, Control_c, 0, 64, 49
1, 114897, Note_off_c, 0, 56, 56
1, 114904, Control_c, 0, 64, 64
1, 114919, Control_c, 0, 64, 66
1, 114925, Note_on_c, 0, 60, 48
1, 114934, Control_c, 0, 64, 68
1, 114949, Control_c, 0, 64, 69
1, 114964, Control_c, 0, 64, 71
1, 114979, Control_c, 0, 64, 74
1, 114980, Note_off_c, 0, 60, 59
1, 114994, Control_c, 0, 64, 76
1, 114998, Note_on_c, 0, 56, 54
1, 115009, Control_c, 0, 64, 77
1, 115024, Control_c, 0, 64, 78
1, 115050, Note_off_c, 0, 56, 61
1, 115053, Control_c, 0, 64, 78
1, 115095, Note_on_c, 0, 51, 45
1, 115098, Note_off_c, 0, 44, 30
1, 115147, Note_off_c, 0, 51, 48
1, 115157, Control_c, 0, 64, 79
1, 115170, Note_on_c, 0, 56, 56
1, 115214, Note_off_c, 0, 56, 57
1, 115246, Note_on_c, 0, 60, 48
1, 115316, Note_off_c, 0, 60, 52
1, 115327, Note_on_c, 0, 56, 50
1, 115381, Note_off_c, 0, 56, 56
1, 115405, Note_on_c, 0, 51, 42
1, 115468, Note_off_c, 0, 51, 57
1, 115495, Note_on_c, 0, 56, 51
1, 115547, Note_off_c, 0, 56, 60
1, 115578, Note_on_c, 0, 60, 48
1, 115661, Note_off_c, 0, 60, 58
1, 115682, Note_on_c, 0, 56, 46
1, 115731, Note_off_c, 0, 56, 59
1, 115775, Note_on_c, 0, 51, 35
1, 115807, Note_off_c, 0, 51, 50
1, 116039, Control_c, 0, 64, 78
1, 116044, Note_on_c, 0, 68, 73
1, 116053, Control_c, 0, 64, 77
1, 116067, Note_on_c, 0, 63, 48
1, 116068, Control_c, 0, 64, 75
1, 116070, Note_on_c, 0, 44, 43
1, 116080, Note_on_c, 0, 48, 38
1, 116082, Note_on_c, 0, 36, 36
1, 116083, Control_c, 0, 64, 71
1, 116098, Control_c, 0, 64, 66
1, 116113, Control_c, 0, 64, 56
1, 116127, Control_c, 0, 64, 0
1, 116153, Note_off_c, 0, 63, 0
1, 116191, Poly_aftertouch_c, 0, 63, 127
1, 116228, Poly_aftertouch_c, 0, 63, 0
1, 116261, Note_on_c, 0, 66, 49
1, 116297, Control_c, 0, 64, 27
1, 116312, Control_c, 0, 64, 49
1, 116326, Control_c, 0, 64, 55
1, 116341, Control_c, 0, 64, 57
1, 116344, Note_on_c, 0, 63, 51
1, 116356, Control_c, 0, 64, 60
1, 116359, Note_off_c, 0, 66, 58
1, 116371, Control_c, 0, 64, 62
1, 116386, Control_c, 0, 64, 63
1, 116393, Note_off_c, 0, 63, 61
1, 116433, Note_on_c, 0, 56, 38
1, 116461, Control_c, 0, 64, 62
1, 116475, Control_c, 0, 64, 61
1, 116490, Note_off_c, 0, 56, 49
1, 116490, Control_c, 0, 64, 60
1, 116505, Note_on_c, 0, 63, 51
1, 116505, Control_c, 0, 64, 60
1, 116520, Control_c, 0, 64, 58
1, 116535, Control_c, 0, 64, 57
1, 116546, Note_off_c, 0, 63, 64
1, 116550, Control_c, 0, 64, 56
1, 116565, Control_c, 0, 64, 55
1, 116572, Note_on_c, 0, 66, 56
1, 116580, Control_c, 0, 64, 56
1, 116595, Control_c, 0, 64, 58
1, 116610, Control_c, 0, 64, 58
1, 116624, Control_c, 0, 64, 59
1, 116639, Control_c, 0, 64, 59
1, 116654, Note_on_c, 0, 63, 51
1, 116662, Note_off_c, 0, 66, 57
1, 116691, Note_off_c, 0, 63, 59
1, 116726, Note_on_c, 0, 56, 46
1, 116743, Control_c, 0, 64, 59
1, 116783, Note_off_c, 0, 56, 51
1, 116801, Note_on_c, 0, 63, 56
1, 116817, Control_c, 0, 64, 58
1, 116854, Note_off_c, 0, 63, 57
1, 116861, Control_c, 0, 67, 9
1, 116875, Control_c, 0, 67, 14
1, 116890, Control_c, 0, 67, 18
1, 116902, Note_on_c, 0, 66, 46
1, 116905, Control_c, 0, 67, 23
1, 116920, Control_c, 0, 67, 29
1, 116935, Control_c, 0, 67, 35
1, 116949, Control_c, 0, 67, 42
1, 116964, Control_c, 0, 64, 58
1, 116964, Control_c, 0, 67, 50
1, 116976, Note_on_c, 0, 63, 50
1, 116976, Note_off_c, 0, 66, 59
1, 116979, Control_c, 0, 67, 61
1, 116994, Control_c, 0, 67, 72
1, 117009, Control_c, 0, 64, 57
1, 117009, Control_c, 0, 67, 83
1, 117023, Note_off_c, 0, 63, 62
1, 117031, Control_c, 0, 67, 94
1, 117046, Control_c, 0, 64, 57
1, 117046, Control_c, 0, 67, 104
1, 117061, Note_on_c, 0, 56, 41
1, 117061, Control_c, 0, 64, 56
1, 117061, Control_c, 0, 67, 111
1, 117075, Control_c, 0, 67, 116
1, 117090, Control_c, 0, 64, 56
1, 117090, Control_c, 0, 67, 120
1, 117105, Control_c, 0, 67, 124
1, 117120, Control_c, 0, 64, 56
1, 117120, Control_c, 0, 67, 127
1, 117129, Note_off_c, 0, 56, 50
1, 117136, Note_on_c, 0, 63, 48
1, 117186, Note_off_c, 0, 63, 61
1, 117210, Control_c, 0, 64, 56
1, 117218, Note_on_c, 0, 66, 49
1, 117299, Control_c, 0, 64, 55
1, 117301, Note_off_c, 0, 66, 60
1, 117305, Note_on_c, 0, 63, 48
1, 117313, Control_c, 0, 64, 55
1, 117328, Control_c, 0, 64, 54
1, 117343, Note_off_c, 0, 63, 54
1, 117383, Note_on_c, 0, 56, 36
1, 117388, Control_c, 0, 64, 55
1, 117417, Control_c, 0, 64, 55
1, 117462, Note_off_c, 0, 56, 41
1, 117467, Note_on_c, 0, 63, 43
1, 117521, Control_c, 0, 64, 56
1, 117528, Note_off_c, 0, 63, 59
1, 117564, Note_on_c, 0, 66, 42
1, 117566, Control_c, 0, 64, 56
1, 117595, Control_c, 0, 64, 56
1, 117640, Control_c, 0, 64, 56
1, 117654, Note_off_c, 0, 66, 59
1, 117654, Control_c, 0, 64, 57
1, 117665, Note_on_c, 0, 63, 43
1, 117718, Note_off_c, 0, 63, 50
1, 117758, Control_c, 0, 64, 57
1, 117778, Note_on_c, 0, 56, 31
1, 117810, Control_c, 0, 64, 58
1, 117839, Control_c, 0, 64, 58
1, 117854, Control_c, 0, 64, 59
1, 117860, Note_on_c, 0, 63, 40
1, 117860, Note_off_c, 0, 56, 39
1, 117869, Control_c, 0, 64, 60
1, 117884, Control_c, 0, 64, 60
1, 117898, Control_c, 0, 64, 61
1, 117913, Control_c, 0, 64, 62
1, 117928, Control_c, 0, 64, 63
1, 117943, Control_c, 0, 64, 63
1, 117958, Control_c, 0, 64, 64
1, 117963, Note_off_c, 0, 63, 51
1, 117972, Control_c, 0, 64, 64
1, 117981, Note_on_c, 0, 66, 34
1, 117987, Control_c, 0, 64, 65
1, 118003, Control_c, 0, 64, 65
1, 118018, Control_c, 0, 64, 66
1, 118033, Control_c, 0, 64, 67
1, 118047, Control_c, 0, 64, 68
1, 118062, Control_c, 0, 64, 69
1, 118077, Control_c, 0, 64, 70
1, 118079, Note_off_c, 0, 68, 19
1, 118092, Control_c, 0, 64, 71
1, 118107, Control_c, 0, 64, 72
1, 118112, Note_on_c, 0, 63, 39
1, 118121, Control_c, 0, 64, 73
1, 118136, Control_c, 0, 64, 74
1, 118151, Control_c, 0, 64, 75
1, 118156, Note_off_c, 0, 36, 41
1, 118166, Note_off_c, 0, 66, 39
1, 118181, Control_c, 0, 64, 75
1, 118222, Note_off_c, 0, 48, 30
1, 118225, Control_c, 0, 64, 76
1, 118240, Control_c, 0, 64, 77
1, 118249, Note_off_c, 0, 44, 33
1, 118255, Control_c, 0, 64, 78
1, 118270, Control_c, 0, 64, 79
1, 118285, Control_c, 0, 64, 80
1, 118300, Control_c, 0, 64, 81
1, 118302, Note_on_c, 0, 56, 33
1, 118303, Note_off_c, 0, 63, 35
1, 118315, Control_c, 0, 64, 81
1, 118329, Control_c, 0, 64, 82
1, 118344, Control_c, 0, 64, 83
1, 118359, Control_c, 0, 64, 83
1, 118374, Control_c, 0, 64, 84
1, 118389, Control_c, 0, 64, 84
1, 118433, Control_c, 0, 64, 85
1, 118930, Control_c, 0, 64, 84
1, 118941, Note_on_c, 0, 37, 31
1, 118944, Control_c, 0, 64, 83
1, 118959, Control_c, 0, 64, 78
1, 118974, Control_c, 0, 64, 70
1, 118989, Control_c, 0, 64, 54
1, 118997, Note_on_c, 0, 68, 58
1, 119004, Note_off_c, 0, 56, 41
1, 119004, Control_c, 0, 64, 0
1, 119063, Control_c, 0, 64, 60
1, 119078, Control_c, 0, 64, 66
1, 119093, Note_off_c, 0, 37, 55
1, 119093, Control_c, 0, 64, 69
1, 119108, Control_c, 0, 64, 71
1, 119122, Control_c, 0, 64, 74
1, 119137, Control_c, 0, 64, 77
1, 119152, Control_c, 0, 64, 79
1, 119167, Control_c, 0, 64, 81
1, 119182, Control_c, 0, 64, 81
1, 119197, Control_c, 0, 64, 82
1, 119212, Control_c, 0, 64, 83
1, 119226, Control_c, 0, 64, 83
1, 119277, Control_c, 0, 64, 84
1, 119341, Note_on_c, 0, 64, 42
1, 119348, Note_on_c, 0, 49, 25
1, 119352, Control_c, 0, 64, 84
1, 119356, Note_on_c, 0, 56, 22
1, 119370, Note_on_c, 0, 44, 13
1, 119400, Poly_aftertouch_c, 0, 52, 127
1, 119412, Note_off_c, 0, 56, 43
1, 119424, Note_off_c, 0, 44, 44
1, 119426, Note_off_c, 0, 49, 32
1, 119440, Poly_aftertouch_c, 0, 52, 0
1, 119459, Note_off_c, 0, 64, 34
1, 119515, Control_c, 0, 64, 85
1, 119587, Note_on_c, 0, 64, 45
1, 119618, Note_on_c, 0, 49, 26
1, 119620, Note_on_c, 0, 52, 10
1, 119631, Note_on_c, 0, 44, 16
1, 119644, Poly_aftertouch_c, 0, 56, 127
1, 119665, Note_off_c, 0, 52, 53
1, 119679, Poly_aftertouch_c, 0, 56, 0
1, 119680, Note_off_c, 0, 44, 47
1, 119682, Note_off_c, 0, 49, 38
1, 119698, Note_off_c, 0, 64, 37
1, 119790, Note_on_c, 0, 56, 43
1, 119799, Note_on_c, 0, 52, 29
1, 119800, Note_on_c, 0, 49, 24
1, 119802, Note_on_c, 0, 64, 40
1, 119810, Note_on_c, 0, 44, 35
1, 119842, Note_off_c, 0, 56, 41
1, 119844, Note_off_c, 0, 52, 47
1, 119876, Note_off_c, 0, 44, 39
1, 119877, Note_off_c, 0, 64, 43
1, 119906, Note_off_c, 0, 49, 30
1, 119969, Note_on_c, 0, 49, 21
1, 119975, Note_on_c, 0, 44, 33
1, 119981, Note_on_c, 0, 64, 42
1, 119986, Note_on_c, 0, 56, 35
1, 119989, Note_on_c, 0, 52, 33
1, 120036, Note_off_c, 0, 52, 49
1, 120037, Note_off_c, 0, 56, 46
1, 120056, Note_off_c, 0, 64, 52
1, 120122, Note_off_c, 0, 49, 0
1, 120135, Note_off_c, 0, 44, 0
1, 120160, Poly_aftertouch_c, 0, 49, 127
1, 120169, Note_on_c, 0, 56, 25
1, 120169, Note_off_c, 0, 68, 41
1, 120172, Note_on_c, 0, 52, 38
1, 120172, Note_on_c, 0, 64, 34
1, 120172, Poly_aftertouch_c, 0, 44, 127
1, 120210, Note_off_c, 0, 52, 53
1, 120255, Poly_aftertouch_c, 0, 44, 0
1, 120308, Control_c, 0, 64, 84
1, 120316, Note_off_c, 0, 56, 38
1, 120317, Poly_aftertouch_c, 0, 49, 0
1, 120323, Control_c, 0, 64, 81
1, 120335, Note_on_c, 0, 68, 69
1, 120338, Control_c, 0, 64, 74
1, 120351, Note_on_c, 0, 44, 33
1, 120352, Note_on_c, 0, 49, 3
1, 120353, Control_c, 0, 64, 65
1, 120363, Note_on_c, 0, 52, 23
1, 120366, Note_off_c, 0, 64, 46
1, 120367, Control_c, 0, 64, 56
1, 120382, Control_c, 0, 64, 59
1, 120398, Control_c, 0, 64, 63
1, 120403, Note_off_c, 0, 52, 52
1, 120413, Control_c, 0, 64, 67
1, 120428, Control_c, 0, 64, 70
1, 120429, Note_off_c, 0, 44, 51
1, 120442, Control_c, 0, 64, 74
1, 120457, Control_c, 0, 64, 76
1, 120472, Control_c, 0, 64, 78
1, 120473, Note_off_c, 0, 49, 0
1, 120487, Control_c, 0, 64, 79
1, 120502, Control_c, 0, 64, 79
1, 120506, Note_on_c, 0, 64, 46
1, 120511, Poly_aftertouch_c, 0, 49, 127
1, 120516, Note_on_c, 0, 56, 44
1, 120516, Control_c, 0, 64, 80
1, 120518, Note_on_c, 0, 44, 12
1, 120531, Control_c, 0, 64, 81
1, 120546, Control_c, 0, 64, 82
1, 120549, Note_on_c, 0, 52, 18
1, 120561, Control_c, 0, 64, 82
1, 120576, Control_c, 0, 64, 83
1, 120585, Note_off_c, 0, 68, 62
1, 120586, Note_off_c, 0, 52, 53
1, 120587, Note_off_c, 0, 56, 39
1, 120590, Control_c, 0, 64, 83
1, 120594, Note_off_c, 0, 64, 63
1, 120605, Control_c, 0, 64, 84
1, 120618, Note_off_c, 0, 44, 35
1, 120664, Control_c, 0, 64, 81
1, 120671, Note_on_c, 0, 69, 80
1, 120679, Control_c, 0, 64, 74
1, 120682, Note_on_c, 0, 44, 35
1, 120693, Note_on_c, 0, 52, 46
1, 120694, Control_c, 0, 64, 64
1, 120709, Control_c, 0, 64, 33
1, 120723, Control_c, 0, 64, 48
1, 120730, Note_off_c, 0, 52, 51
1, 120738, Control_c, 0, 64, 64
1, 120753, Control_c, 0, 64, 69
1, 120759, Note_off_c, 0, 44, 54
1, 120776, Control_c, 0, 64, 72
1, 120791, Control_c, 0, 64, 75
1, 120805, Control_c, 0, 64, 76
1, 120807, Poly_aftertouch_c, 0, 49, 0
1, 120820, Control_c, 0, 64, 77
1, 120835, Control_c, 0, 64, 79
1, 120840, Note_on_c, 0, 44, 29
1, 120843, Note_on_c, 0, 64, 51
1, 120843, Poly_aftertouch_c, 0, 49, 127
1, 120847, Note_on_c, 0, 57, 48
1, 120848, Note_on_c, 0, 49, 3
1, 120849, Control_c, 0, 64, 80
1, 120857, Note_on_c, 0, 52, 48
1, 120864, Control_c, 0, 64, 81
1, 120879, Control_c, 0, 64, 82
1, 120884, Note_off_c, 0, 57, 52
1, 120894, Control_c, 0, 64, 83
1, 120896, Note_off_c, 0, 52, 51
1, 120909, Control_c, 0, 64, 84
1, 120920, Note_off_c, 0, 44, 53
1, 120923, Control_c, 0, 64, 85
1, 120937, Note_off_c, 0, 64, 60
1, 120938, Control_c, 0, 64, 86
1, 120983, Note_off_c, 0, 49, 0
1, 120997, Note_on_c, 0, 49, 33
1, 120997, Control_c, 0, 64, 84
1, 121004, Note_on_c, 0, 44, 36
1, 121004, Note_on_c, 0, 68, 81
1, 121012, Control_c, 0, 64, 78
1, 121015, Note_on_c, 0, 52, 47
1, 121027, Control_c, 0, 64, 65
1, 121031, Note_off_c, 0, 69, 64
1, 121042, Control_c, 0, 64, 0
1, 121063, Note_off_c, 0, 52, 56
1, 121102, Control_c, 0, 64, 62
1, 121117, Control_c, 0, 64, 67
1, 121131, Control_c, 0, 64, 69
1, 121146, Control_c, 0, 64, 71
1, 121155, Note_off_c, 0, 44, 0
1, 121161, Control_c, 0, 64, 73
1, 121176, Control_c, 0, 64, 77
1, 121178, Note_on_c, 0, 52, 46
1, 121186, Note_on_c, 0, 64, 52
1, 121191, Control_c, 0, 64, 81
1, 121193, Poly_aftertouch_c, 0, 44, 127
1, 121200, Note_on_c, 0, 56, 41
1, 121206, Note_off_c, 0, 52, 52
1, 121206, Control_c, 0, 64, 83
1, 121215, Note_off_c, 0, 49, 43
1, 121221, Control_c, 0, 64, 84
1, 121224, Poly_aftertouch_c, 0, 44, 0
1, 121234, Note_off_c, 0, 56, 51
1, 121236, Control_c, 0, 64, 85
1, 121251, Control_c, 0, 64, 85
1, 121253, Note_off_c, 0, 64, 61
1, 121261, Note_off_c, 0, 68, 60
1, 121310, Control_c, 0, 64, 82
1, 121325, Control_c, 0, 64, 73
1, 121339, Control_c, 0, 64, 36
1, 121353, Note_on_c, 0, 36, 49
1, 121354, Control_c, 0, 64, 0
1, 121355, Note_on_c, 0, 69, 75
1, 121392, Note_off_c, 0, 36, 64
1, 121413, Control_c, 0, 64, 57
1, 121428, Control_c, 0, 64, 64
1, 121443, Control_c, 0, 64, 67
1, 121458, Control_c, 0, 64, 70
1, 121472, Control_c, 0, 64, 72
1, 121487, Control_c, 0, 64, 75
1, 121502, Control_c, 0, 64, 77
1, 121525, Control_c, 0, 64, 77
1, 121540, Control_c, 0, 64, 78
1, 121554, Control_c, 0, 64, 79
1, 121561, Note_on_c, 0, 66, 54
1, 121569, Control_c, 0, 64, 79
1, 121578, Note_on_c, 0, 51, 36
1, 121578, Note_on_c, 0, 57, 33
1, 121582, Note_on_c, 0, 44, 35
1, 121596, Note_on_c, 0, 54, 18
1, 121612, Note_off_c, 0, 66, 49
1, 121615, Note_off_c, 0, 57, 48
1, 121628, Note_off_c, 0, 44, 45
1, 121628, Control_c, 0, 64, 80
1, 121635, Note_off_c, 0, 51, 43
1, 121638, Note_off_c, 0, 54, 43
1, 121733, Note_on_c, 0, 66, 54
1, 121735, Note_on_c, 0, 44, 36
1, 121735, Note_on_c, 0, 57, 44
1, 121745, Note_on_c, 0, 51, 38
1, 121755, Note_on_c, 0, 54, 32
1, 121788, Note_off_c, 0, 57, 41
1, 121792, Note_off_c, 0, 54, 49
1, 121802, Note_off_c, 0, 66, 48
1, 121810, Note_off_c, 0, 51, 38
1, 121813, Note_off_c, 0, 44, 35
1, 121865, Control_c, 0, 64, 80
1, 121890, Note_on_c, 0, 51, 30
1, 121892, Note_on_c, 0, 44, 19
1, 121912, Note_on_c, 0, 54, 36
1, 121931, Note_on_c, 0, 66, 39
1, 121933, Note_on_c, 0, 57, 13
1, 121948, Note_off_c, 0, 54, 49
1, 121960, Note_off_c, 0, 66, 54
1, 121981, Note_off_c, 0, 57, 37
1, 121989, Note_off_c, 0, 44, 33
1, 122041, Note_off_c, 0, 51, 0
1, 122056, Note_on_c, 0, 66, 53
1, 122059, Note_on_c, 0, 51, 15
1, 122069, Note_on_c, 0, 54, 41
1, 122073, Note_on_c, 0, 44, 12
1, 122109, Note_off_c, 0, 66, 51
1, 122118, Note_off_c, 0, 54, 43
1, 122133, Control_c, 0, 64, 80
1, 122134, Note_off_c, 0, 44, 41
1, 122189, Note_off_c, 0, 51, 0
1, 122219, Note_on_c, 0, 66, 58
1, 122220, Note_on_c, 0, 44, 8
1, 122226, Poly_aftertouch_c, 0, 51, 127
1, 122232, Note_on_c, 0, 54, 36
1, 122268, Poly_aftertouch_c, 0, 57, 127
1, 122276, Note_off_c, 0, 54, 47
1, 122291, Note_off_c, 0, 44, 43
1, 122307, Poly_aftertouch_c, 0, 57, 0
1, 122307, Note_off_c, 0, 66, 55
1, 122318, Poly_aftertouch_c, 0, 51, 0
1, 122363, Control_c, 0, 64, 78
1, 122377, Control_c, 0, 64, 74
1, 122392, Control_c, 0, 64, 65
1, 122407, Control_c, 0, 64, 0
1, 122410, Note_on_c, 0, 68, 63
1, 122422, Note_on_c, 0, 51, 31
1, 122432, Note_on_c, 0, 44, 30
1, 122445, Note_on_c, 0, 54, 8
1, 122470, Note_off_c, 0, 69, 43
1, 122493, Note_off_c, 0, 54, 48
1, 122518, Note_off_c, 0, 44, 37
1, 122525, Control_c, 0, 64, 16
1, 122540, Control_c, 0, 64, 56
1, 122552, Note_off_c, 0, 51, 0
1, 122555, Control_c, 0, 64, 62
1, 122569, Control_c, 0, 64, 64
1, 122584, Control_c, 0, 64, 65
1, 122587, Note_on_c, 0, 44, 16
1, 122589, Poly_aftertouch_c, 0, 51, 127
1, 122599, Control_c, 0, 64, 67
1, 122601, Note_on_c, 0, 56, 16
1, 122603, Note_on_c, 0, 54, 29
1, 122605, Note_on_c, 0, 66, 32
1, 122613, Control_c, 0, 64, 69
1, 122628, Control_c, 0, 64, 70
1, 122641, Note_off_c, 0, 54, 47
1, 122643, Control_c, 0, 64, 72
1, 122646, Note_off_c, 0, 56, 49
1, 122652, Note_off_c, 0, 66, 47
1, 122658, Control_c, 0, 64, 73
1, 122664, Note_off_c, 0, 44, 40
1, 122673, Control_c, 0, 64, 74
1, 122688, Control_c, 0, 64, 75
1, 122703, Control_c, 0, 64, 75
1, 122717, Control_c, 0, 64, 76
1, 122726, Poly_aftertouch_c, 0, 51, 0
1, 122732, Control_c, 0, 64, 76
1, 122746, Note_on_c, 0, 51, 10
1, 122747, Control_c, 0, 64, 77
1, 122748, Note_on_c, 0, 44, 22
1, 122758, Note_on_c, 0, 54, 42
1, 122761, Note_on_c, 0, 66, 48
1, 122762, Control_c, 0, 64, 78
1, 122767, Note_on_c, 0, 56, 37
1, 122777, Control_c, 0, 64, 79
1, 122798, Note_off_c, 0, 54, 45
1, 122814, Note_off_c, 0, 56, 44
1, 122847, Note_off_c, 0, 66, 42
1, 122881, Note_off_c, 0, 51, 0
1, 122886, Note_off_c, 0, 44, 0
1, 122919, Poly_aftertouch_c, 0, 51, 127
1, 122923, Poly_aftertouch_c, 0, 44, 127
1, 122932, Note_on_c, 0, 54, 35
1, 122935, Note_on_c, 0, 66, 40
1, 122944, Note_on_c, 0, 56, 29
1, 122968, Note_off_c, 0, 54, 48
1, 122983, Note_off_c, 0, 56, 51
1, 122992, Note_off_c, 0, 66, 44
1, 122998, Poly_aftertouch_c, 0, 44, 0
1, 123053, Poly_aftertouch_c, 0, 51, 0
1, 123069, Note_on_c, 0, 44, 25
1, 123090, Poly_aftertouch_c, 0, 51, 127
1, 123096, Note_on_c, 0, 54, 33
1, 123116, Note_on_c, 0, 56, 25
1, 123121, Note_on_c, 0, 66, 41
1, 123136, Note_off_c, 0, 54, 43
1, 123158, Note_off_c, 0, 56, 49
1, 123158, Note_off_c, 0, 66, 50
1, 123172, Note_off_c, 0, 44, 37
1, 123192, Poly_aftertouch_c, 0, 51, 0
1, 123269, Note_on_c, 0, 66, 45
1, 123276, Note_off_c, 0, 68, 56
1, 123284, Poly_aftertouch_c, 0, 44, 127
1, 123289, Note_on_c, 0, 56, 18
1, 123310, Poly_aftertouch_c, 0, 44, 0
1, 123387, Note_off_c, 0, 66, 39
1, 123465, Note_on_c, 0, 37, 39
1, 123467, Control_c, 0, 64, 77
1, 123482, Control_c, 0, 64, 73
1, 123497, Control_c, 0, 64, 64
1, 123511, Control_c, 0, 64, 0
1, 123534, Note_on_c, 0, 68, 64
1, 123546, Note_off_c, 0, 56, 42
1, 123587, Control_c, 0, 64, 59
1, 123602, Control_c, 0, 64, 66
1, 123610, Note_off_c, 0, 37, 54
1, 123616, Control_c, 0, 64, 68
1, 123631, Control_c, 0, 64, 70
1, 123646, Control_c, 0, 64, 73
1, 123660, Control_c, 0, 64, 76
1, 123675, Control_c, 0, 64, 79
1, 123690, Control_c, 0, 64, 79
1, 123719, Control_c, 0, 64, 80
1, 123731, Note_on_c, 0, 64, 38
1, 123749, Note_on_c, 0, 56, 17
1, 123755, Note_on_c, 0, 49, 24
1, 123777, Note_on_c, 0, 44, 20
1, 123797, Note_off_c, 0, 64, 41
1, 123799, Note_off_c, 0, 56, 51
1, 123817, Note_off_c, 0, 49, 40
1, 123819, Note_off_c, 0, 44, 51
1, 123841, Poly_aftertouch_c, 0, 52, 0
1, 123907, Note_on_c, 0, 49, 21
1, 123907, Note_on_c, 0, 56, 37
1, 123922, Note_on_c, 0, 64, 45
1, 123924, Note_on_c, 0, 44, 40
1, 123926, Note_on_c, 0, 52, 15
1, 123949, Note_off_c, 0, 56, 47
1, 123966, Note_off_c, 0, 64, 48
1, 123968, Note_off_c, 0, 52, 52
1, 123970, Note_off_c, 0, 44, 45
1, 124034, Note_off_c, 0, 49, 0
1, 124059, Note_on_c, 0, 49, 4
1, 124062, Note_on_c, 0, 56, 42
1, 124071, Note_on_c, 0, 64, 55
1, 124079, Note_on_c, 0, 52, 37
1, 124083, Note_on_c, 0, 44, 39
1, 124102, Note_off_c, 0, 56, 47
1, 124114, Note_off_c, 0, 64, 61
1, 124115, Note_off_c, 0, 52, 51
1, 124133, Note_off_c, 0, 44, 45
1, 124199, Note_off_c, 0, 49, 0
1, 124223, Note_on_c, 0, 49, 4
1, 124223, Note_on_c, 0, 64, 61
1, 124228, Note_on_c, 0, 52, 44
1, 124235, Note_on_c, 0, 56, 37
1, 124244, Note_on_c, 0, 44, 40
1, 124262, Note_off_c, 0, 56, 56
1, 124263, Note_off_c, 0, 52, 51
1, 124265, Note_off_c, 0, 64, 61
1, 124285, Note_off_c, 0, 44, 49
1, 124292, Note_off_c, 0, 49, 40
1, 124304, Control_c, 0, 64, 80
1, 124319, Control_c, 0, 64, 81
1, 124333, Control_c, 0, 64, 81
1, 124348, Control_c, 0, 64, 82
1, 124365, Note_on_c, 0, 56, 48
1, 124374, Note_off_c, 0, 68, 63
1, 124375, Note_on_c, 0, 64, 56
1, 124387, Note_off_c, 0, 56, 62
1, 124396, Note_on_c, 0, 52, 23
1, 124401, Note_on_c, 0, 49, 12
1, 124405, Note_on_c, 0, 44, 39
1, 124409, Note_off_c, 0, 64, 60
1, 124430, Note_off_c, 0, 52, 54
1, 124456, Note_off_c, 0, 44, 44
1, 124456, Note_off_c, 0, 49, 42
1, 124520, Control_c, 0, 64, 81
1, 124535, Control_c, 0, 64, 77
1, 124550, Control_c, 0, 64, 69
1, 124563, Note_on_c, 0, 76, 79
1, 124564, Control_c, 0, 64, 20
1, 124575, Note_on_c, 0, 49, 46
1, 124577, Note_on_c, 0, 44, 43
1, 124579, Control_c, 0, 64, 0
1, 124592, Note_on_c, 0, 52, 18
1, 124609, Control_c, 0, 64, 36
1, 124623, Control_c, 0, 64, 62
1, 124638, Control_c, 0, 64, 65
1, 124643, Note_off_c, 0, 49, 47
1, 124646, Note_off_c, 0, 44, 47
1, 124646, Note_off_c, 0, 52, 46
1, 124653, Control_c, 0, 64, 68
1, 124668, Control_c, 0, 64, 71
1, 124683, Control_c, 0, 64, 74
1, 124697, Control_c, 0, 64, 76
1, 124712, Control_c, 0, 64, 77
1, 124727, Control_c, 0, 64, 78
1, 124735, Note_on_c, 0, 68, 57
1, 124742, Control_c, 0, 64, 79
1, 124745, Note_on_c, 0, 49, 31
1, 124746, Note_on_c, 0, 64, 48
1, 124752, Note_on_c, 0, 44, 28
1, 124757, Control_c, 0, 64, 79
1, 124757, Control_c, 0, 67, 119
1, 124765, Note_on_c, 0, 52, 40
1, 124771, Control_c, 0, 67, 104
1, 124783, Note_off_c, 0, 76, 64
1, 124786, Control_c, 0, 64, 80
1, 124786, Control_c, 0, 67, 82
1, 124801, Control_c, 0, 64, 80
1, 124801, Control_c, 0, 67, 60
1, 124802, Note_off_c, 0, 52, 51
1, 124804, Note_off_c, 0, 49, 41
1, 124806, Note_off_c, 0, 64, 59
1, 124810, Note_off_c, 0, 44, 44
1, 124816, Control_c, 0, 64, 81
1, 124816, Control_c, 0, 67, 40
1, 124831, Control_c, 0, 64, 82
1, 124831, Control_c, 0, 67, 27
1, 124846, Control_c, 0, 64, 83
1, 124846, Control_c, 0, 67, 21
1, 124861, Control_c, 0, 67, 18
1, 124876, Control_c, 0, 64, 82
1, 124876, Control_c, 0, 67, 16
1, 124890, Note_on_c, 0, 75, 82
1, 124890, Control_c, 0, 64, 80
1, 124890, Control_c, 0, 67, 15
1, 124905, Control_c, 0, 64, 73
1, 124905, Control_c, 0, 67, 14
1, 124909, Note_on_c, 0, 52, 51
1, 124914, Note_on_c, 0, 49, 47
1, 124920, Control_c, 0, 64, 63
1, 124920, Control_c, 0, 67, 13
1, 124929, Note_on_c, 0, 44, 43
1, 124931, Note_off_c, 0, 68, 38
1, 124935, Control_c, 0, 64, 0
1, 124935, Control_c, 0, 67, 10
1, 124950, Control_c, 0, 67, 0
1, 124964, Control_c, 0, 64, 47
1, 124966, Note_off_c, 0, 52, 52
1, 124969, Note_off_c, 0, 49, 53
1, 124976, Note_off_c, 0, 44, 60
1, 124979, Control_c, 0, 64, 64
1, 124994, Control_c, 0, 64, 68
1, 125008, Control_c, 0, 64, 70
1, 125023, Control_c, 0, 64, 72
1, 125038, Control_c, 0, 64, 75
1, 125053, Control_c, 0, 64, 77
1, 125054, Note_on_c, 0, 68, 61
1, 125068, Control_c, 0, 64, 79
1, 125078, Note_on_c, 0, 49, 36
1, 125078, Note_on_c, 0, 63, 49
1, 125079, Note_on_c, 0, 52, 41
1, 125082, Control_c, 0, 64, 80
1, 125091, Note_on_c, 0, 44, 44
1, 125093, Note_off_c, 0, 75, 62
1, 125097, Control_c, 0, 64, 80
1, 125126, Note_off_c, 0, 52, 49
1, 125127, Control_c, 0, 64, 81
1, 125130, Note_off_c, 0, 44, 59
1, 125138, Note_off_c, 0, 49, 42
1, 125142, Control_c, 0, 64, 82
1, 125157, Control_c, 0, 64, 83
1, 125171, Control_c, 0, 64, 84
1, 125187, Control_c, 0, 64, 85
1, 125196, Note_off_c, 0, 63, 62
1, 125217, Control_c, 0, 64, 84
1, 125218, Note_on_c, 0, 73, 81
1, 125231, Control_c, 0, 64, 82
1, 125232, Note_on_c, 0, 49, 39
1, 125239, Note_on_c, 0, 44, 52
1, 125245, Note_on_c, 0, 52, 46
1, 125246, Control_c, 0, 64, 75
1, 125263, Note_off_c, 0, 68, 61
1, 125269, Control_c, 0, 64, 62
1, 125280, Note_off_c, 0, 52, 58
1, 125284, Control_c, 0, 64, 0
1, 125302, Note_off_c, 0, 49, 55
1, 125303, Note_off_c, 0, 44, 60
1, 125328, Control_c, 0, 64, 59
1, 125343, Control_c, 0, 64, 67
1, 125358, Control_c, 0, 64, 70
1, 125373, Control_c, 0, 64, 72
1, 125387, Control_c, 0, 64, 73
1, 125391, Note_on_c, 0, 52, 37
1, 125396, Note_on_c, 0, 68, 61
1, 125402, Control_c, 0, 64, 75
1, 125403, Note_on_c, 0, 49, 23
1, 125409, Note_on_c, 0, 61, 48
1, 125417, Control_c, 0, 64, 77
1, 125432, Control_c, 0, 64, 79
1, 125432, Control_c, 0, 67, 8
1, 125438, Note_off_c, 0, 73, 56
1, 125445, Poly_aftertouch_c, 0, 44, 127
1, 125446, Note_off_c, 0, 49, 48
1, 125446, Control_c, 0, 64, 79
1, 125446, Control_c, 0, 67, 12
1, 125461, Control_c, 0, 64, 80
1, 125461, Control_c, 0, 67, 21
1, 125466, Note_off_c, 0, 52, 39
1, 125472, Poly_aftertouch_c, 0, 44, 0
1, 125476, Control_c, 0, 67, 33
1, 125491, Control_c, 0, 64, 81
1, 125491, Control_c, 0, 67, 51
1, 125506, Control_c, 0, 64, 81
1, 125506, Control_c, 0, 67, 67
1, 125520, Control_c, 0, 64, 82
1, 125520, Control_c, 0, 67, 79
1, 125535, Control_c, 0, 67, 87
1, 125550, Control_c, 0, 64, 81
1, 125550, Control_c, 0, 67, 97
1, 125565, Control_c, 0, 64, 78
1, 125565, Control_c, 0, 67, 111
1, 125580, Control_c, 0, 64, 69
1, 125580, Control_c, 0, 67, 127
1, 125585, Note_on_c, 0, 39, 43
1, 125594, Control_c, 0, 64, 0
1, 125618, Note_on_c, 0, 73, 75
1, 125624, Note_off_c, 0, 61, 50
1, 125655, Note_off_c, 0, 68, 55
1, 125683, Control_c, 0, 64, 23
1, 125698, Control_c, 0, 64, 64
1, 125702, Note_off_c, 0, 39, 59
1, 125713, Control_c, 0, 64, 67
1, 125728, Control_c, 0, 64, 70
1, 125743, Control_c, 0, 64, 75
1, 125758, Control_c, 0, 64, 79
1, 125773, Control_c, 0, 64, 81
1, 125787, Control_c, 0, 64, 82
1, 125832, Control_c, 0, 64, 82
1, 125834, Note_on_c, 0, 68, 47
1, 125842, Note_on_c, 0, 61, 45
1, 125848, Note_on_c, 0, 54, 34
1, 125856, Note_on_c, 0, 44, 38
1, 125860, Note_on_c, 0, 51, 31
1, 125876, Control_c, 0, 64, 83
1, 125882, Note_off_c, 0, 61, 47
1, 125898, Note_off_c, 0, 54, 42
1, 125902, Note_off_c, 0, 44, 46
1, 125907, Note_off_c, 0, 51, 45
1, 125921, Note_off_c, 0, 68, 38
1, 126004, Note_on_c, 0, 61, 40
1, 126005, Note_on_c, 0, 44, 39
1, 126023, Note_on_c, 0, 51, 40
1, 126026, Note_on_c, 0, 68, 50
1, 126047, Note_off_c, 0, 61, 48
1, 126071, Note_off_c, 0, 68, 50
1, 126071, Note_off_c, 0, 51, 42
1, 126134, Note_off_c, 0, 44, 0
1, 126146, Note_on_c, 0, 51, 41
1, 126150, Note_on_c, 0, 44, 23
1, 126150, Poly_aftertouch_c, 0, 54, 0
1, 126163, Note_on_c, 0, 54, 28
1, 126171, Note_on_c, 0, 68, 63
1, 126181, Note_on_c, 0, 61, 30
1, 126211, Note_off_c, 0, 61, 50
1, 126220, Note_off_c, 0, 51, 52
1, 126220, Note_off_c, 0, 54, 43
1, 126221, Note_off_c, 0, 68, 58
1, 126225, Note_off_c, 0, 44, 48
1, 126306, Note_on_c, 0, 51, 27
1, 126309, Note_on_c, 0, 44, 30
1, 126316, Note_on_c, 0, 54, 42
1, 126321, Note_on_c, 0, 61, 37
1, 126331, Note_on_c, 0, 68, 54
1, 126352, Note_off_c, 0, 61, 52
1, 126357, Note_off_c, 0, 54, 46
1, 126359, Note_off_c, 0, 68, 54
1, 126372, Note_off_c, 0, 44, 48
1, 126386, Note_off_c, 0, 51, 40
1, 126464, Note_on_c, 0, 68, 50
1, 126476, Note_on_c, 0, 61, 21
1, 126482, Note_on_c, 0, 44, 30
1, 126487, Note_on_c, 0, 54, 30
1, 126488, Note_on_c, 0, 51, 17
1, 126524, Note_off_c, 0, 54, 47
1, 126529, Note_off_c, 0, 61, 43
1, 126532, Note_off_c, 0, 44, 43
1, 126538, Note_off_c, 0, 51, 43
1, 126540, Note_off_c, 0, 73, 48
1, 126553, Note_off_c, 0, 68, 0
1, 126553, Note_on_c, 0, 68, 3
1, 126596, Control_c, 0, 64, 80
1, 126610, Control_c, 0, 64, 72
1, 126625, Control_c, 0, 64, 53
1, 126635, Note_on_c, 0, 72, 73
1, 126640, Control_c, 0, 64, 0
1, 126663, Note_on_c, 0, 51, 34
1, 126665, Note_on_c, 0, 44, 34
1, 126668, Note_on_c, 0, 54, 19
1, 126669, Note_off_c, 0, 68, 44
1, 126714, Note_off_c, 0, 54, 47
1, 126718, Note_off_c, 0, 44, 44
1, 126730, Control_c, 0, 64, 29
1, 126734, Note_off_c, 0, 51, 39
1, 126744, Control_c, 0, 64, 58
1, 126766, Control_c, 0, 64, 63
1, 126781, Control_c, 0, 64, 64
1, 126797, Control_c, 0, 64, 65
1, 126812, Control_c, 0, 64, 66
1, 126825, Note_on_c, 0, 68, 45
1, 126827, Control_c, 0, 64, 67
1, 126833, Note_on_c, 0, 44, 26
1, 126834, Note_on_c, 0, 51, 10
1, 126842, Control_c, 0, 64, 69
1, 126845, Note_on_c, 0, 60, 27
1, 126847, Note_on_c, 0, 54, 25
1, 126857, Control_c, 0, 64, 70
1, 126872, Control_c, 0, 64, 72
1, 126882, Note_off_c, 0, 60, 47
1, 126882, Note_off_c, 0, 68, 47
1, 126886, Note_off_c, 0, 54, 42
1, 126886, Control_c, 0, 64, 72
1, 126901, Control_c, 0, 64, 73
1, 126916, Control_c, 0, 64, 74
1, 126931, Control_c, 0, 64, 74
1, 126941, Note_off_c, 0, 44, 0
1, 126946, Control_c, 0, 64, 75
1, 126955, Note_off_c, 0, 51, 0
1, 126960, Control_c, 0, 64, 76
1, 126975, Control_c, 0, 64, 77
1, 126977, Poly_aftertouch_c, 0, 44, 127
1, 126983, Note_on_c, 0, 44, 2
1, 126990, Control_c, 0, 64, 77
1, 126992, Poly_aftertouch_c, 0, 51, 127
1, 126996, Note_on_c, 0, 60, 37
1, 126999, Note_on_c, 0, 68, 50
1, 127019, Control_c, 0, 64, 78
1, 127028, Note_off_c, 0, 60, 49
1, 127030, Note_off_c, 0, 68, 50
1, 127049, Control_c, 0, 64, 78
1, 127073, Note_off_c, 0, 44, 0
1, 127088, Poly_aftertouch_c, 0, 51, 0
1, 127103, Note_on_c, 0, 44, 12
1, 127105, Poly_aftertouch_c, 0, 54, 0
1, 127105, Note_on_c, 0, 51, 22
1, 127123, Note_on_c, 0, 54, 12
1, 127143, Note_on_c, 0, 68, 46
1, 127150, Note_on_c, 0, 60, 32
1, 127172, Note_off_c, 0, 54, 47
1, 127179, Note_off_c, 0, 60, 49
1, 127189, Note_off_c, 0, 68, 45
1, 127191, Note_off_c, 0, 51, 38
1, 127214, Note_off_c, 0, 44, 0
1, 127251, Poly_aftertouch_c, 0, 44, 127
1, 127274, Note_on_c, 0, 51, 13
1, 127292, Note_on_c, 0, 54, 22
1, 127312, Note_on_c, 0, 68, 38
1, 127332, Note_on_c, 0, 60, 3
1, 127336, Note_off_c, 0, 54, 37
1, 127340, Note_off_c, 0, 68, 55
1, 127342, Note_off_c, 0, 51, 38
1, 127367, Note_off_c, 0, 60, 34
1, 127391, Poly_aftertouch_c, 0, 44, 0
1, 127482, Note_on_c, 0, 68, 29
1, 127532, Note_on_c, 0, 60, 13
1, 127542, Note_off_c, 0, 72, 60
1, 127654, Note_off_c, 0, 68, 41
1, 127664, Control_c, 0, 67, 127
1, 127669, Note_on_c, 0, 40, 46
1, 127679, Control_c, 0, 67, 124
1, 127694, Control_c, 0, 64, 77
1, 127694, Control_c, 0, 67, 121
1, 127708, Control_c, 0, 64, 73
1, 127708, Control_c, 0, 67, 115
1, 127723, Control_c, 0, 64, 63
1, 127723, Control_c, 0, 67, 109
1, 127738, Control_c, 0, 64, 0
1, 127738, Control_c, 0, 67, 102
1, 127752, Note_on_c, 0, 72, 69
1, 127753, Control_c, 0, 67, 95
1, 127765, Note_off_c, 0, 60, 48
1, 127768, Control_c, 0, 67, 86
1, 127782, Control_c, 0, 67, 78
1, 127797, Control_c, 0, 64, 47
1, 127797, Control_c, 0, 67, 69
1, 127812, Control_c, 0, 64, 63
1, 127812, Control_c, 0, 67, 61
1, 127827, Control_c, 0, 64, 66
1, 127827, Control_c, 0, 67, 51
1, 127842, Control_c, 0, 64, 68
1, 127842, Control_c, 0, 67, 45
1, 127856, Control_c, 0, 64, 70
1, 127856, Control_c, 0, 67, 40
1, 127871, Control_c, 0, 64, 72
1, 127871, Control_c, 0, 67, 37
1, 127886, Control_c, 0, 64, 73
1, 127886, Control_c, 0, 67, 35
1, 127901, Note_on_c, 0, 60, 48
1, 127901, Control_c, 0, 64, 74
1, 127901, Control_c, 0, 67, 33
1, 127916, Control_c, 0, 67, 31
1, 127931, Control_c, 0, 67, 30
1, 127935, Note_on_c, 0, 69, 38
1, 127937, Note_on_c, 0, 45, 32
1, 127946, Control_c, 0, 64, 75
1, 127946, Control_c, 0, 67, 29
1, 127951, Note_on_c, 0, 52, 16
1, 127961, Control_c, 0, 64, 75
1, 127968, Note_off_c, 0, 60, 47
1, 127976, Control_c, 0, 64, 76
1, 127976, Control_c, 0, 67, 28
1, 127990, Control_c, 0, 67, 28
1, 127995, Note_off_c, 0, 52, 51
1, 128005, Control_c, 0, 64, 76
1, 128005, Control_c, 0, 67, 27
1, 128012, Note_off_c, 0, 45, 37
1, 128020, Control_c, 0, 64, 77
1, 128020, Control_c, 0, 67, 26
1, 128034, Control_c, 0, 67, 25
1, 128049, Control_c, 0, 67, 24
1, 128064, Control_c, 0, 64, 77
1, 128064, Control_c, 0, 67, 23
1, 128075, Note_on_c, 0, 73, 75
1, 128079, Control_c, 0, 64, 74
1, 128079, Control_c, 0, 67, 23
1, 128092, Note_off_c, 0, 72, 57
1, 128094, Control_c, 0, 64, 65
1, 128094, Control_c, 0, 67, 22
1, 128104, Note_on_c, 0, 45, 25
1, 128108, Control_c, 0, 64, 0
1, 128108, Control_c, 0, 67, 20
1, 128112, Note_off_c, 0, 69, 53
1, 128113, Note_on_c, 0, 52, 40
1, 128123, Control_c, 0, 67, 18
1, 128138, Control_c, 0, 67, 17
1, 128160, Note_off_c, 0, 52, 62
1, 128197, Control_c, 0, 64, 41
1, 128199, Note_off_c, 0, 45, 0
1, 128211, Control_c, 0, 64, 62
1, 128226, Control_c, 0, 64, 65
1, 128235, Poly_aftertouch_c, 0, 45, 127
1, 128241, Control_c, 0, 64, 66
1, 128263, Control_c, 0, 64, 67
1, 128272, Note_on_c, 0, 61, 46
1, 128272, Note_on_c, 0, 69, 42
1, 128278, Control_c, 0, 64, 69
1, 128293, Control_c, 0, 64, 70
1, 128297, Note_on_c, 0, 52, 5
1, 128307, Control_c, 0, 64, 72
1, 128313, Note_off_c, 0, 61, 45
1, 128322, Control_c, 0, 64, 72
1, 128322, Control_c, 0, 67, 17
1, 128330, Note_off_c, 0, 69, 62
1, 128337, Control_c, 0, 64, 73
1, 128343, Note_off_c, 0, 52, 36
1, 128352, Control_c, 0, 64, 73
1, 128366, Control_c, 0, 64, 74
1, 128377, Poly_aftertouch_c, 0, 45, 0
1, 128381, Control_c, 0, 64, 75
1, 128381, Control_c, 0, 67, 16
1, 128398, Control_c, 0, 64, 75
1, 128403, Note_on_c, 0, 45, 14
1, 128424, Note_on_c, 0, 52, 31
1, 128427, Control_c, 0, 64, 76
1, 128439, Note_on_c, 0, 61, 34
1, 128442, Control_c, 0, 64, 76
1, 128446, Note_on_c, 0, 69, 56
1, 128456, Control_c, 0, 64, 77
1, 128470, Note_off_c, 0, 52, 47
1, 128470, Note_off_c, 0, 61, 50
1, 128494, Note_off_c, 0, 69, 57
1, 128501, Control_c, 0, 64, 77
1, 128533, Note_off_c, 0, 45, 0
1, 128570, Poly_aftertouch_c, 0, 45, 127
1, 128575, Control_c, 0, 67, 16
1, 128578, Note_on_c, 0, 52, 48
1, 128584, Note_on_c, 0, 61, 43
1, 128598, Note_on_c, 0, 69, 51
1, 128618, Note_off_c, 0, 52, 51
1, 128631, Note_off_c, 0, 61, 46
1, 128653, Note_off_c, 0, 69, 57
1, 128679, Control_c, 0, 67, 15
1, 128725, Poly_aftertouch_c, 0, 45, 0
1, 128742, Note_on_c, 0, 52, 49
1, 128742, Note_on_c, 0, 61, 51
1, 128762, Poly_aftertouch_c, 0, 45, 127
1, 128763, Note_on_c, 0, 69, 46
1, 128775, Note_off_c, 0, 61, 51
1, 128790, Note_off_c, 0, 52, 51
1, 128804, Note_off_c, 0, 69, 47
1, 128812, Control_c, 0, 67, 15
1, 128827, Poly_aftertouch_c, 0, 45, 0
1, 128856, Control_c, 0, 67, 13
1, 128871, Control_c, 0, 67, 11
1, 128886, Control_c, 0, 67, 9
1, 128888, Note_on_c, 0, 45, 25
1, 128901, Note_on_c, 0, 61, 43
1, 128901, Control_c, 0, 67, 0
1, 128905, Note_on_c, 0, 69, 63
1, 128906, Note_off_c, 0, 40, 38
1, 128915, Note_on_c, 0, 52, 42
1, 128952, Note_off_c, 0, 73, 57
1, 129027, Control_c, 0, 64, 77
1, 129042, Control_c, 0, 64, 74
1, 129050, Note_on_c, 0, 40, 56
1, 129056, Control_c, 0, 64, 65
1, 129058, Note_on_c, 0, 73, 83
1, 129058, Note_off_c, 0, 52, 35
1, 129070, Note_off_c, 0, 45, 42
1, 129071, Note_off_c, 0, 61, 36
1, 129071, Control_c, 0, 64, 18
1, 129085, Note_off_c, 0, 69, 51
1, 129086, Control_c, 0, 64, 0
1, 129101, Control_c, 0, 64, 48
1, 129116, Control_c, 0, 64, 64
1, 129130, Control_c, 0, 64, 67
1, 129145, Control_c, 0, 64, 71
1, 129160, Control_c, 0, 64, 74
1, 129175, Control_c, 0, 64, 76
1, 129191, Control_c, 0, 64, 76
1, 129203, Note_off_c, 0, 40, 56
1, 129205, Control_c, 0, 64, 77
1, 129215, Note_on_c, 0, 69, 62
1, 129217, Note_on_c, 0, 61, 41
1, 129220, Control_c, 0, 64, 78
1, 129234, Note_on_c, 0, 52, 46
1, 129235, Control_c, 0, 64, 79
1, 129243, Note_on_c, 0, 45, 38
1, 129250, Control_c, 0, 64, 80
1, 129260, Note_off_c, 0, 73, 58
1, 129265, Control_c, 0, 64, 81
1, 129279, Control_c, 0, 64, 81
1, 129294, Control_c, 0, 64, 82
1, 129309, Control_c, 0, 64, 82
1, 129314, Note_off_c, 0, 52, 57
1, 129324, Control_c, 0, 64, 83
1, 129339, Control_c, 0, 64, 83
1, 129343, Note_off_c, 0, 45, 35
1, 129348, Note_on_c, 0, 73, 86
1, 129354, Control_c, 0, 64, 84
1, 129359, Note_on_c, 0, 40, 55
1, 129368, Control_c, 0, 64, 84
1, 129377, Note_off_c, 0, 61, 57
1, 129383, Control_c, 0, 64, 85
1, 129385, Note_off_c, 0, 69, 62
1, 129398, Control_c, 0, 64, 86
1, 129413, Control_c, 0, 64, 88
1, 129427, Control_c, 0, 64, 89
1, 129442, Control_c, 0, 64, 91
1, 129457, Control_c, 0, 64, 92
1, 129472, Control_c, 0, 64, 92
1, 129480, Note_off_c, 0, 40, 55
1, 129502, Control_c, 0, 64, 93
1, 129505, Note_on_c, 0, 69, 66
1, 129511, Note_on_c, 0, 61, 52
1, 129558, Note_off_c, 0, 73, 60
1, 129588, Poly_aftertouch_c, 0, 52, 0
1, 129591, Control_c, 0, 64, 93
1, 129629, Note_off_c, 0, 69, 61
1, 129660, Note_on_c, 0, 73, 85
1, 129679, Control_c, 0, 64, 90
1, 129694, Control_c, 0, 64, 83
1, 129695, Note_on_c, 0, 35, 56
1, 129699, Note_off_c, 0, 61, 58
1, 129709, Control_c, 0, 64, 70
1, 129724, Control_c, 0, 64, 0
1, 129776, Control_c, 0, 64, 63
1, 129791, Control_c, 0, 64, 68
1, 129805, Control_c, 0, 64, 72
1, 129820, Control_c, 0, 64, 75
1, 129835, Control_c, 0, 64, 78
1, 129847, Note_on_c, 0, 68, 64
1, 129850, Control_c, 0, 64, 80
1, 129851, Note_on_c, 0, 61, 49
1, 129851, Note_on_c, 0, 40, 49
1, 129857, Note_on_c, 0, 47, 45
1, 129865, Control_c, 0, 64, 81
1, 129879, Control_c, 0, 64, 82
1, 129894, Control_c, 0, 64, 83
1, 129898, Note_off_c, 0, 61, 56
1, 129903, Note_off_c, 0, 73, 56
1, 129909, Control_c, 0, 64, 83
1, 129922, Note_off_c, 0, 47, 44
1, 129924, Note_off_c, 0, 40, 41
1, 129924, Control_c, 0, 64, 84
1, 129935, Note_off_c, 0, 68, 63
1, 129938, Control_c, 0, 64, 84
1, 129953, Control_c, 0, 64, 85
1, 129968, Control_c, 0, 64, 86
1, 129984, Control_c, 0, 64, 86
1, 130015, Note_on_c, 0, 74, 85
1, 130037, Note_on_c, 0, 47, 50
1, 130043, Control_c, 0, 64, 84
1, 130050, Note_on_c, 0, 40, 49
1, 130058, Control_c, 0, 64, 77
1, 130073, Control_c, 0, 64, 64
1, 130088, Control_c, 0, 64, 0
1, 130110, Note_off_c, 0, 40, 54
1, 130110, Note_off_c, 0, 47, 54
1, 130147, Control_c, 0, 64, 61
1, 130162, Control_c, 0, 64, 67
1, 130176, Control_c, 0, 64, 70
1, 130191, Control_c, 0, 64, 72
1, 130194, Note_on_c, 0, 68, 59
1, 130196, Note_on_c, 0, 62, 51
1, 130205, Note_on_c, 0, 40, 30
1, 130206, Control_c, 0, 64, 74
1, 130212, Note_on_c, 0, 47, 33
1, 130220, Control_c, 0, 64, 76
1, 130227, Note_off_c, 0, 62, 52
1, 130234, Note_off_c, 0, 68, 61
1, 130235, Control_c, 0, 64, 78
1, 130250, Control_c, 0, 64, 78
1, 130260, Note_off_c, 0, 47, 47
1, 130265, Control_c, 0, 64, 79
1, 130271, Note_off_c, 0, 40, 42
1, 130295, Control_c, 0, 64, 79
1, 130310, Control_c, 0, 64, 80
1, 130325, Control_c, 0, 64, 81
1, 130340, Control_c, 0, 64, 82
1, 130346, Note_on_c, 0, 68, 67
1, 130349, Note_on_c, 0, 40, 38
1, 130352, Note_on_c, 0, 62, 49
1, 130354, Control_c, 0, 64, 82
1, 130368, Note_on_c, 0, 47, 42
1, 130384, Control_c, 0, 64, 83
1, 130387, Note_off_c, 0, 62, 50
1, 130392, Note_off_c, 0, 68, 59
1, 130400, Note_off_c, 0, 47, 54
1, 130404, Note_off_c, 0, 40, 45
1, 130414, Control_c, 0, 64, 83
1, 130458, Control_c, 0, 64, 84
1, 130504, Note_on_c, 0, 47, 49
1, 130512, Note_on_c, 0, 68, 63
1, 130513, Note_on_c, 0, 62, 45
1, 130526, Note_on_c, 0, 40, 52
1, 130541, Note_off_c, 0, 68, 57
1, 130543, Note_off_c, 0, 62, 52
1, 130544, Note_off_c, 0, 47, 53
1, 130554, Control_c, 0, 64, 84
1, 130560, Note_off_c, 0, 40, 55
1, 130654, Note_on_c, 0, 47, 48
1, 130655, Note_on_c, 0, 62, 49
1, 130658, Note_on_c, 0, 68, 59
1, 130668, Note_on_c, 0, 40, 50
1, 130693, Note_off_c, 0, 62, 51
1, 130696, Note_off_c, 0, 68, 63
1, 130697, Note_off_c, 0, 47, 48
1, 130702, Note_off_c, 0, 40, 53
1, 130778, Control_c, 0, 64, 85
1, 130801, Note_on_c, 0, 68, 70
1, 130810, Note_on_c, 0, 47, 45
1, 130812, Note_on_c, 0, 62, 48
1, 130813, Note_on_c, 0, 40, 53
1, 130815, Note_off_c, 0, 35, 39
1, 130847, Note_off_c, 0, 47, 49
1, 130849, Note_off_c, 0, 62, 50
1, 130849, Note_off_c, 0, 74, 57
1, 130851, Control_c, 0, 64, 85
1, 130857, Note_off_c, 0, 40, 58
1, 130866, Control_c, 0, 64, 86
1, 130887, Note_off_c, 0, 68, 63
1, 130896, Control_c, 0, 64, 86
1, 130926, Note_on_c, 0, 35, 66
1, 130940, Control_c, 0, 64, 86
1, 130955, Control_c, 0, 64, 85
1, 130970, Control_c, 0, 64, 77
1, 130985, Control_c, 0, 64, 65
1, 130989, Note_on_c, 0, 74, 83
1, 130999, Control_c, 0, 64, 0
1, 131044, Control_c, 0, 64, 41
1, 131058, Control_c, 0, 64, 66
1, 131073, Control_c, 0, 64, 73
1, 131088, Note_off_c, 0, 35, 60
1, 131088, Control_c, 0, 64, 79
1, 131103, Control_c, 0, 64, 83
1, 131118, Control_c, 0, 64, 84
1, 131133, Control_c, 0, 64, 85
1, 131139, Note_on_c, 0, 62, 56
1, 131141, Note_on_c, 0, 68, 71
1, 131147, Control_c, 0, 64, 86
1, 131150, Note_on_c, 0, 47, 53
1, 131162, Control_c, 0, 64, 87
1, 131174, Note_off_c, 0, 74, 63
1, 131177, Control_c, 0, 64, 88
1, 131186, Note_off_c, 0, 62, 57
1, 131192, Control_c, 0, 64, 89
1, 131199, Note_off_c, 0, 47, 62
1, 131207, Control_c, 0, 64, 90
1, 131208, Note_off_c, 0, 68, 63
1, 131220, Poly_aftertouch_c, 0, 40, 0
1, 131222, Control_c, 0, 64, 92
1, 131237, Control_c, 0, 64, 93
1, 131288, Control_c, 0, 64, 93
1, 131296, Note_on_c, 0, 74, 90
1, 131299, Note_on_c, 0, 40, 59
1, 131303, Control_c, 0, 64, 88
1, 131318, Control_c, 0, 64, 77
1, 131332, Control_c, 0, 64, 61
1, 131347, Control_c, 0, 64, 0
1, 131377, Control_c, 0, 64, 62
1, 131392, Control_c, 0, 64, 70
1, 131407, Control_c, 0, 64, 76
1, 131422, Control_c, 0, 64, 80
1, 131429, Note_off_c, 0, 40, 63
1, 131437, Control_c, 0, 64, 81
1, 131451, Control_c, 0, 64, 81
1, 131465, Note_on_c, 0, 68, 77
1, 131466, Control_c, 0, 64, 82
1, 131474, Note_on_c, 0, 52, 51
1, 131481, Note_on_c, 0, 62, 42
1, 131481, Control_c, 0, 64, 83
1, 131481, Note_on_c, 0, 47, 46
1, 131496, Control_c, 0, 64, 84
1, 131511, Control_c, 0, 64, 85
1, 131512, Note_off_c, 0, 62, 50
1, 131526, Control_c, 0, 64, 86
1, 131540, Control_c, 0, 64, 87
1, 131555, Control_c, 0, 64, 88
1, 131570, Note_off_c, 0, 74, 54
1, 131570, Control_c, 0, 64, 89
1, 131577, Note_off_c, 0, 52, 56
1, 131589, Note_off_c, 0, 68, 61
1, 131610, Note_on_c, 0, 39, 64
1, 131639, Note_off_c, 0, 47, 38
1, 131645, Control_c, 0, 64, 87
1, 131660, Control_c, 0, 64, 79
1, 131674, Control_c, 0, 64, 64
1, 131681, Note_on_c, 0, 76, 92
1, 131689, Control_c, 0, 64, 0
1, 131778, Control_c, 0, 64, 64
1, 131793, Control_c, 0, 64, 70
1, 131807, Control_c, 0, 64, 73
1, 131822, Control_c, 0, 64, 76
1, 131837, Control_c, 0, 64, 80
1, 131852, Control_c, 0, 64, 83
1, 131867, Control_c, 0, 64, 84
1, 131873, Note_on_c, 0, 51, 48
1, 131876, Note_on_c, 0, 68, 62
1, 131882, Control_c, 0, 64, 85
1, 131885, Note_on_c, 0, 47, 44
1, 131892, Note_on_c, 0, 64, 35
1, 131897, Control_c, 0, 64, 86
1, 131912, Control_c, 0, 64, 87
1, 131916, Note_off_c, 0, 76, 61
1, 131927, Control_c, 0, 64, 89
1, 131934, Note_off_c, 0, 51, 51
1, 131942, Control_c, 0, 64, 92
1, 131950, Note_off_c, 0, 47, 54
1, 131955, Note_off_c, 0, 64, 46
1, 131956, Control_c, 0, 64, 95
1, 131971, Control_c, 0, 64, 97
1, 131983, Note_off_c, 0, 68, 64
1, 131986, Control_c, 0, 64, 98
1, 132023, Control_c, 0, 64, 97
1, 132038, Control_c, 0, 64, 94
1, 132044, Note_on_c, 0, 75, 84
1, 132053, Control_c, 0, 64, 85
1, 132062, Note_on_c, 0, 51, 53
1, 132068, Control_c, 0, 64, 72
1, 132072, Note_on_c, 0, 47, 51
1, 132082, Control_c, 0, 64, 26
1, 132097, Control_c, 0, 64, 0
1, 132127, Control_c, 0, 64, 64
1, 132129, Note_off_c, 0, 51, 55
1, 132137, Note_off_c, 0, 47, 55
1, 132142, Control_c, 0, 64, 71
1, 132156, Control_c, 0, 64, 76
1, 132171, Control_c, 0, 64, 79
1, 132186, Control_c, 0, 64, 79
1, 132201, Control_c, 0, 64, 80
1, 132204, Note_on_c, 0, 68, 65
1, 132206, Note_on_c, 0, 63, 54
1, 132208, Note_on_c, 0, 47, 46
1, 132215, Control_c, 0, 64, 81
1, 132223, Note_on_c, 0, 51, 47
1, 132230, Control_c, 0, 64, 82
1, 132235, Note_off_c, 0, 63, 55
1, 132245, Control_c, 0, 64, 82
1, 132249, Note_off_c, 0, 68, 62
1, 132262, Note_off_c, 0, 51, 50
1, 132274, Control_c, 0, 64, 83
1, 132285, Note_off_c, 0, 47, 52
1, 132289, Control_c, 0, 64, 83
1, 132304, Control_c, 0, 64, 84
1, 132319, Control_c, 0, 64, 84
1, 132334, Control_c, 0, 64, 85
1, 132349, Control_c, 0, 64, 85
1, 132355, Note_on_c, 0, 68, 79
1, 132358, Note_on_c, 0, 63, 59
1, 132359, Note_on_c, 0, 47, 45
1, 132364, Note_on_c, 0, 51, 54
1, 132400, Note_off_c, 0, 63, 62
1, 132404, Note_off_c, 0, 51, 60
1, 132409, Note_off_c, 0, 68, 60
1, 132409, Control_c, 0, 64, 86
1, 132419, Note_off_c, 0, 47, 59
1, 132453, Control_c, 0, 64, 86
1, 132498, Control_c, 0, 64, 87
1, 132510, Note_on_c, 0, 68, 81
1, 132512, Note_on_c, 0, 51, 40
1, 132516, Note_on_c, 0, 63, 58
1, 132523, Note_on_c, 0, 47, 51
1, 132539, Note_off_c, 0, 39, 43
1, 132559, Note_off_c, 0, 63, 57
1, 132561, Note_off_c, 0, 47, 59
1, 132592, Note_off_c, 0, 75, 61
1, 132597, Note_off_c, 0, 51, 37
1, 132602, Control_c, 0, 64, 87
1, 132617, Control_c, 0, 64, 88
1, 132631, Control_c, 0, 64, 88
1, 132641, Note_on_c, 0, 39, 65
1, 132661, Note_off_c, 0, 68, 63
1, 132661, Control_c, 0, 64, 88
1, 132676, Control_c, 0, 64, 82
1, 132691, Control_c, 0, 64, 65
1, 132700, Note_on_c, 0, 76, 92
1, 132706, Control_c, 0, 64, 0
1, 132802, Control_c, 0, 64, 63
1, 132817, Control_c, 0, 64, 68
1, 132832, Control_c, 0, 64, 72
1, 132847, Control_c, 0, 64, 77
1, 132861, Control_c, 0, 64, 81
1, 132876, Control_c, 0, 64, 82
1, 132879, Note_on_c, 0, 64, 57
1, 132882, Note_on_c, 0, 51, 39
1, 132882, Note_off_c, 0, 76, 64
1, 132883, Note_on_c, 0, 67, 62
1, 132885, Note_on_c, 0, 49, 39
1, 132888, Note_on_c, 0, 46, 41
1, 132891, Control_c, 0, 64, 83
1, 132906, Control_c, 0, 64, 85
1, 132921, Control_c, 0, 64, 86
1, 132928, Note_off_c, 0, 51, 45
1, 132936, Control_c, 0, 64, 87
1, 132938, Note_off_c, 0, 46, 43
1, 132945, Note_off_c, 0, 49, 42
1, 132950, Control_c, 0, 64, 88
1, 132965, Control_c, 0, 64, 89
1, 132975, Note_off_c, 0, 64, 59
1, 132980, Control_c, 0, 64, 90
1, 132995, Control_c, 0, 64, 91
1, 133037, Note_on_c, 0, 75, 78
1, 133039, Control_c, 0, 64, 90
1, 133054, Control_c, 0, 64, 84
1, 133059, Note_on_c, 0, 46, 50
1, 133069, Note_on_c, 0, 49, 51
1, 133069, Note_on_c, 0, 51, 27
1, 133069, Control_c, 0, 64, 66
1, 133071, Note_off_c, 0, 67, 58
1, 133084, Control_c, 0, 64, 0
1, 133110, Note_off_c, 0, 51, 47
1, 133127, Note_off_c, 0, 46, 50
1, 133134, Note_off_c, 0, 49, 43
1, 133172, Control_c, 0, 64, 62
1, 133189, Control_c, 0, 64, 65
1, 133203, Control_c, 0, 64, 66
1, 133216, Note_on_c, 0, 67, 48
1, 133218, Control_c, 0, 64, 68
1, 133226, Note_on_c, 0, 63, 40
1, 133231, Note_on_c, 0, 51, 36
1, 133233, Control_c, 0, 64, 71
1, 133234, Note_on_c, 0, 46, 21
1, 133237, Note_on_c, 0, 49, 9
1, 133248, Control_c, 0, 64, 73
1, 133262, Control_c, 0, 64, 76
1, 133273, Note_off_c, 0, 51, 46
1, 133277, Control_c, 0, 64, 77
1, 133292, Control_c, 0, 64, 78
1, 133296, Note_off_c, 0, 63, 41
1, 133299, Note_off_c, 0, 67, 60
1, 133300, Note_off_c, 0, 46, 40
1, 133307, Control_c, 0, 64, 79
1, 133318, Note_off_c, 0, 49, 35
1, 133336, Control_c, 0, 64, 79
1, 133351, Control_c, 0, 64, 80
1, 133366, Control_c, 0, 64, 81
1, 133381, Control_c, 0, 64, 81
1, 133386, Note_on_c, 0, 49, 15
1, 133395, Control_c, 0, 64, 82
1, 133398, Note_on_c, 0, 46, 28
1, 133402, Note_on_c, 0, 67, 47
1, 133403, Note_on_c, 0, 51, 31
1, 133409, Note_on_c, 0, 63, 30
1, 133425, Control_c, 0, 64, 82
1, 133441, Note_off_c, 0, 51, 46
1, 133454, Note_off_c, 0, 63, 49
1, 133455, Note_off_c, 0, 46, 40
1, 133457, Note_off_c, 0, 67, 53
1, 133484, Control_c, 0, 64, 83
1, 133502, Note_off_c, 0, 39, 36
1, 133504, Note_off_c, 0, 49, 0
1, 133541, Poly_aftertouch_c, 0, 49, 127
1, 133556, Note_off_c, 0, 75, 56
1, 133588, Note_on_c, 0, 67, 50
1, 133599, Poly_aftertouch_c, 0, 49, 0
1, 133601, Note_on_c, 0, 63, 34
1, 133649, Poly_aftertouch_c, 0, 51, 127
1, 133662, Note_off_c, 0, 67, 58
1, 133672, Note_off_c, 0, 63, 0
1, 133672, Note_on_c, 0, 63, 3
1, 133823, Note_on_c, 0, 44, 42
1, 133833, Poly_aftertouch_c, 0, 51, 0
1, 133871, Note_off_c, 0, 63, 42
1, 133931, Note_on_c, 0, 68, 59
1, 133951, Control_c, 0, 64, 82
1, 133966, Control_c, 0, 64, 80
1, 133982, Control_c, 0, 64, 73
1, 133996, Control_c, 0, 64, 60
1, 134011, Control_c, 0, 64, 0
1, 134145, Control_c, 0, 64, 11
1, 134159, Control_c, 0, 64, 52
1, 134174, Control_c, 0, 64, 61
1, 134189, Control_c, 0, 64, 64
1, 134203, Control_c, 0, 64, 66
1, 134216, Note_on_c, 0, 51, 32
1, 134218, Control_c, 0, 64, 68
1, 134227, Note_on_c, 0, 59, 25
1, 134229, Note_on_c, 0, 63, 34
1, 134230, Note_on_c, 0, 56, 30
1, 134233, Control_c, 0, 64, 70
1, 134255, Control_c, 0, 64, 72
1, 134270, Control_c, 0, 64, 74
1, 134284, Control_c, 0, 64, 76
1, 134286, Note_off_c, 0, 56, 44
1, 134293, Note_off_c, 0, 59, 42
1, 134296, Note_off_c, 0, 51, 53
1, 134299, Control_c, 0, 64, 77
1, 134314, Control_c, 0, 64, 78
1, 134329, Control_c, 0, 64, 79
1, 134344, Note_off_c, 0, 63, 35
1, 134344, Control_c, 0, 64, 79
1, 134358, Control_c, 0, 64, 80
1, 134403, Control_c, 0, 64, 80
1, 134441, Note_on_c, 0, 59, 30
1, 134441, Note_on_c, 0, 63, 36
1, 134447, Control_c, 0, 64, 81
1, 134448, Note_on_c, 0, 51, 40
1, 134477, Note_on_c, 0, 56, 4
1, 134492, Note_off_c, 0, 59, 43
1, 134515, Note_off_c, 0, 63, 39
1, 134522, Control_c, 0, 64, 81
1, 134524, Note_off_c, 0, 51, 36
1, 134530, Note_off_c, 0, 56, 48
1, 134620, Note_on_c, 0, 51, 18
1, 134623, Note_on_c, 0, 59, 42
1, 134628, Note_on_c, 0, 56, 28
1, 134628, Note_on_c, 0, 63, 42
1, 134661, Note_off_c, 0, 59, 47
1, 134673, Note_off_c, 0, 56, 46
1, 134675, Note_off_c, 0, 63, 43
1, 134697, Note_off_c, 0, 51, 40
1, 134772, Note_on_c, 0, 51, 29
1, 134778, Note_on_c, 0, 56, 34
1, 134784, Note_on_c, 0, 59, 34
1, 134799, Note_on_c, 0, 63, 27
1, 134819, Note_off_c, 0, 56, 47
1, 134823, Note_off_c, 0, 59, 47
1, 134843, Note_off_c, 0, 63, 49
1, 134844, Note_off_c, 0, 51, 41
1, 134936, Note_on_c, 0, 51, 18
1, 134954, Note_on_c, 0, 56, 16
1, 134961, Note_on_c, 0, 63, 37
1, 134986, Poly_aftertouch_c, 0, 59, 127
1, 134989, Note_off_c, 0, 51, 44
1, 135001, Note_off_c, 0, 63, 51
1, 135004, Note_off_c, 0, 56, 50
1, 135032, Poly_aftertouch_c, 0, 59, 0
1, 135118, Note_on_c, 0, 63, 37
1, 135122, Note_on_c, 0, 51, 19
1, 135154, Note_on_c, 0, 59, 3
1, 135163, Note_off_c, 0, 63, 45
1, 135173, Note_off_c, 0, 51, 45
1, 135190, Note_off_c, 0, 59, 51
1, 135204, Poly_aftertouch_c, 0, 56, 0
1, 135255, Note_on_c, 0, 51, 32
1, 135258, Note_on_c, 0, 56, 24
1, 135279, Note_on_c, 0, 63, 35
1, 135287, Note_on_c, 0, 59, 37
1, 135294, Note_off_c, 0, 44, 35
1, 135300, Note_off_c, 0, 68, 47
1, 135332, Note_off_c, 0, 56, 0
1, 135368, Poly_aftertouch_c, 0, 56, 127
1, 135404, Control_c, 0, 64, 80
1, 135418, Control_c, 0, 64, 74
1, 135423, Note_on_c, 0, 68, 69
1, 135428, Poly_aftertouch_c, 0, 56, 0
1, 135430, Note_on_c, 0, 44, 50
1, 135433, Control_c, 0, 64, 64
1, 135438, Note_off_c, 0, 59, 40
1, 135446, Note_off_c, 0, 51, 37
1, 135448, Control_c, 0, 64, 0
1, 135464, Note_off_c, 0, 63, 42
1, 135492, Control_c, 0, 64, 63
1, 135507, Control_c, 0, 64, 69
1, 135522, Control_c, 0, 64, 73
1, 135537, Control_c, 0, 64, 77
1, 135551, Control_c, 0, 64, 80
1, 135568, Control_c, 0, 64, 81
1, 135583, Control_c, 0, 64, 82
1, 135592, Note_off_c, 0, 44, 35
1, 135597, Control_c, 0, 64, 82
1, 135611, Note_on_c, 0, 59, 44
1, 135612, Control_c, 0, 64, 83
1, 135615, Note_on_c, 0, 56, 32
1, 135616, Note_on_c, 0, 63, 46
1, 135620, Note_on_c, 0, 51, 23
1, 135627, Control_c, 0, 64, 83
1, 135653, Note_off_c, 0, 68, 59
1, 135656, Control_c, 0, 64, 84
1, 135671, Control_c, 0, 64, 84
1, 135678, Note_off_c, 0, 56, 0
1, 135702, Control_c, 0, 64, 85
1, 135715, Poly_aftertouch_c, 0, 56, 127
1, 135760, Note_off_c, 0, 51, 25
1, 135762, Poly_aftertouch_c, 0, 56, 0
1, 135763, Note_on_c, 0, 68, 83
1, 135780, Note_on_c, 0, 44, 41
1, 135791, Note_off_c, 0, 63, 61
1, 135851, Note_off_c, 0, 59, 35
1, 135854, Note_off_c, 0, 44, 52
1, 135872, Control_c, 0, 64, 85
1, 135890, Note_on_c, 0, 56, 44
1, 135899, Note_on_c, 0, 51, 38
1, 135914, Note_off_c, 0, 56, 54
1, 135928, Note_on_c, 0, 63, 65
1, 135933, Note_off_c, 0, 51, 45
1, 135938, Note_on_c, 0, 59, 53
1, 135946, Control_c, 0, 64, 86
1, 135961, Control_c, 0, 64, 87
1, 135975, Control_c, 0, 64, 89
1, 135990, Control_c, 0, 64, 90
1, 136005, Control_c, 0, 64, 90
1, 136035, Note_off_c, 0, 68, 61
1, 136036, Note_off_c, 0, 59, 50
1, 136049, Control_c, 0, 64, 90
1, 136064, Control_c, 0, 64, 85
1, 136079, Control_c, 0, 64, 72
1, 136091, Note_on_c, 0, 32, 56
1, 136094, Control_c, 0, 64, 0
1, 136168, Note_on_c, 0, 68, 88
1, 136177, Note_off_c, 0, 32, 62
1, 136182, Control_c, 0, 64, 60
1, 136197, Control_c, 0, 64, 66
1, 136212, Control_c, 0, 64, 68
1, 136221, Note_off_c, 0, 63, 63
1, 136227, Control_c, 0, 64, 70
1, 136242, Control_c, 0, 64, 72
1, 136257, Control_c, 0, 64, 75
1, 136272, Control_c, 0, 64, 79
1, 136286, Control_c, 0, 64, 82
1, 136301, Control_c, 0, 64, 83
1, 136316, Control_c, 0, 64, 84
1, 136331, Control_c, 0, 64, 85
1, 136346, Control_c, 0, 64, 85
1, 136376, Note_on_c, 0, 54, 50
1, 136376, Control_c, 0, 64, 86
1, 136379, Note_on_c, 0, 63, 66
1, 136381, Note_on_c, 0, 44, 48
1, 136381, Note_on_c, 0, 51, 47
1, 136383, Note_on_c, 0, 60, 51
1, 136391, Control_c, 0, 64, 86
1, 136421, Control_c, 0, 64, 87
1, 136454, Note_off_c, 0, 44, 54
1, 136454, Note_off_c, 0, 68, 56
1, 136465, Control_c, 0, 64, 87
1, 136480, Control_c, 0, 64, 88
1, 136502, Control_c, 0, 64, 89
1, 136508, Note_off_c, 0, 54, 34
1, 136517, Control_c, 0, 64, 90
1, 136546, Note_off_c, 0, 51, 0
1, 136576, Control_c, 0, 64, 88
1, 136584, Poly_aftertouch_c, 0, 51, 127
1, 136588, Note_on_c, 0, 44, 48
1, 136591, Control_c, 0, 64, 80
1, 136599, Note_on_c, 0, 54, 21
1, 136605, Control_c, 0, 64, 65
1, 136606, Note_off_c, 0, 60, 32
1, 136620, Control_c, 0, 64, 0
1, 136638, Note_on_c, 0, 69, 83
1, 136664, Note_off_c, 0, 63, 61
1, 136740, Control_c, 0, 64, 51
1, 136751, Note_off_c, 0, 44, 57
1, 136754, Control_c, 0, 64, 62
1, 136768, Note_off_c, 0, 54, 38
1, 136769, Control_c, 0, 64, 65
1, 136784, Control_c, 0, 64, 68
1, 136798, Control_c, 0, 64, 71
1, 136813, Control_c, 0, 64, 74
1, 136828, Control_c, 0, 64, 76
1, 136829, Poly_aftertouch_c, 0, 51, 0
1, 136843, Control_c, 0, 64, 77
1, 136853, Note_on_c, 0, 44, 32
1, 136858, Control_c, 0, 64, 79
1, 136859, Note_on_c, 0, 54, 41
1, 136867, Poly_aftertouch_c, 0, 51, 127
1, 136872, Control_c, 0, 64, 80
1, 136874, Note_on_c, 0, 60, 39
1, 136875, Note_on_c, 0, 63, 39
1, 136887, Control_c, 0, 64, 81
1, 136902, Control_c, 0, 64, 83
1, 136912, Note_off_c, 0, 60, 48
1, 136915, Note_off_c, 0, 63, 48
1, 136916, Note_off_c, 0, 44, 51
1, 136917, Control_c, 0, 64, 84
1, 136918, Note_off_c, 0, 54, 43
1, 136932, Control_c, 0, 64, 84
1, 136946, Control_c, 0, 64, 85
1, 136951, Poly_aftertouch_c, 0, 51, 0
1, 136961, Control_c, 0, 64, 85
1, 137015, Note_on_c, 0, 44, 24
1, 137020, Control_c, 0, 64, 86
1, 137026, Note_on_c, 0, 51, 25
1, 137027, Note_on_c, 0, 60, 40
1, 137027, Note_on_c, 0, 63, 45
1, 137046, Note_on_c, 0, 54, 23
1, 137076, Note_off_c, 0, 60, 46
1, 137083, Note_off_c, 0, 54, 43
1, 137083, Note_off_c, 0, 63, 47
1, 137108, Note_off_c, 0, 51, 36
1, 137142, Note_off_c, 0, 44, 0
1, 137181, Poly_aftertouch_c, 0, 44, 127
1, 137186, Note_on_c, 0, 51, 21
1, 137199, Note_on_c, 0, 54, 37
1, 137205, Note_on_c, 0, 60, 33
1, 137214, Note_on_c, 0, 63, 38
1, 137234, Note_off_c, 0, 54, 47
1, 137253, Note_off_c, 0, 63, 52
1, 137255, Note_off_c, 0, 60, 47
1, 137280, Note_off_c, 0, 51, 36
1, 137304, Poly_aftertouch_c, 0, 44, 0
1, 137342, Poly_aftertouch_c, 0, 44, 127
1, 137362, Note_on_c, 0, 51, 22
1, 137366, Note_on_c, 0, 63, 44
1, 137368, Note_on_c, 0, 54, 32
1, 137372, Note_on_c, 0, 60, 40
1, 137401, Note_off_c, 0, 54, 50
1, 137414, Note_off_c, 0, 60, 47
1, 137426, Note_off_c, 0, 63, 46
1, 137482, Note_off_c, 0, 51, 0
1, 137500, Poly_aftertouch_c, 0, 44, 0
1, 137507, Note_off_c, 0, 69, 60
1, 137518, Note_on_c, 0, 44, 16
1, 137518, Note_on_c, 0, 54, 38
1, 137519, Poly_aftertouch_c, 0, 51, 127
1, 137523, Note_on_c, 0, 63, 52
1, 137524, Note_on_c, 0, 60, 42
1, 137568, Note_off_c, 0, 54, 43
1, 137593, Note_off_c, 0, 44, 40
1, 137664, Poly_aftertouch_c, 0, 51, 0
1, 137681, Control_c, 0, 64, 85
1, 137682, Note_on_c, 0, 68, 75
1, 137695, Note_on_c, 0, 44, 47
1, 137695, Control_c, 0, 64, 80
1, 137700, Poly_aftertouch_c, 0, 51, 127
1, 137708, Note_off_c, 0, 63, 56
1, 137710, Control_c, 0, 64, 70
1, 137716, Note_off_c, 0, 60, 38
1, 137718, Note_on_c, 0, 54, 25
1, 137725, Control_c, 0, 64, 0
1, 137759, Note_off_c, 0, 44, 54
1, 137760, Note_off_c, 0, 54, 48
1, 137769, Control_c, 0, 64, 50
1, 137784, Control_c, 0, 64, 67
1, 137799, Control_c, 0, 64, 71
1, 137813, Control_c, 0, 64, 75
1, 137828, Control_c, 0, 64, 78
1, 137843, Control_c, 0, 64, 80
1, 137854, Note_on_c, 0, 44, 34
1, 137858, Control_c, 0, 64, 82
1, 137869, Note_on_c, 0, 63, 46
1, 137869, Note_on_c, 0, 60, 40
1, 137873, Control_c, 0, 64, 83
1, 137874, Note_on_c, 0, 54, 45
1, 137888, Control_c, 0, 64, 84
1, 137902, Control_c, 0, 64, 85
1, 137911, Note_off_c, 0, 44, 53
1, 137916, Note_off_c, 0, 54, 45
1, 137917, Control_c, 0, 64, 87
1, 137932, Control_c, 0, 64, 88
1, 137946, Control_c, 0, 64, 89
1, 137999, Control_c, 0, 64, 88
1, 138014, Control_c, 0, 64, 81
1, 138021, Note_on_c, 0, 66, 75
1, 138029, Control_c, 0, 64, 66
1, 138039, Note_on_c, 0, 44, 48
1, 138039, Note_on_c, 0, 54, 44
1, 138043, Control_c, 0, 64, 0
1, 138050, Note_off_c, 0, 60, 49
1, 138054, Note_off_c, 0, 63, 63
1, 138069, Note_off_c, 0, 54, 53
1, 138082, Note_off_c, 0, 44, 60
1, 138103, Control_c, 0, 64, 61
1, 138117, Control_c, 0, 64, 69
1, 138132, Control_c, 0, 64, 74
1, 138136, Note_off_c, 0, 68, 34
1, 138147, Control_c, 0, 64, 78
1, 138150, Poly_aftertouch_c, 0, 51, 0
1, 138162, Control_c, 0, 64, 80
1, 138176, Control_c, 0, 64, 82
1, 138182, Note_on_c, 0, 63, 61
1, 138185, Note_on_c, 0, 54, 14
1, 138188, Note_on_c, 0, 60, 38
1, 138191, Note_on_c, 0, 44, 41
1, 138191, Control_c, 0, 64, 84
1, 138206, Control_c, 0, 64, 86
1, 138217, Note_off_c, 0, 60, 51
1, 138221, Note_off_c, 0, 44, 50
1, 138221, Control_c, 0, 64, 87
1, 138227, Note_off_c, 0, 54, 39
1, 138236, Control_c, 0, 64, 88
1, 138251, Control_c, 0, 64, 88
1, 138254, Note_off_c, 0, 63, 60
1, 138266, Control_c, 0, 64, 89
1, 138281, Control_c, 0, 64, 89
1, 138311, Control_c, 0, 64, 89
1, 138325, Control_c, 0, 64, 85
1, 138340, Control_c, 0, 64, 67
1, 138346, Note_on_c, 0, 32, 62
1, 138355, Note_on_c, 0, 64, 77
1, 138355, Control_c, 0, 64, 0
1, 138380, Note_off_c, 0, 66, 59
1, 138391, Note_off_c, 0, 32, 61
1, 138429, Control_c, 0, 64, 60
1, 138443, Control_c, 0, 64, 73
1, 138458, Control_c, 0, 64, 78
1, 138473, Control_c, 0, 64, 82
1, 138488, Control_c, 0, 64, 84
1, 138503, Control_c, 0, 64, 86
1, 138517, Control_c, 0, 64, 86
1, 138532, Control_c, 0, 64, 87
1, 138551, Note_on_c, 0, 61, 67
1, 138552, Note_on_c, 0, 44, 51
1, 138556, Note_on_c, 0, 56, 46
1, 138558, Note_on_c, 0, 49, 47
1, 138562, Control_c, 0, 64, 87
1, 138573, Note_on_c, 0, 52, 26
1, 138576, Control_c, 0, 64, 88
1, 138582, Note_off_c, 0, 56, 58
1, 138591, Control_c, 0, 64, 90
1, 138599, Note_off_c, 0, 44, 59
1, 138600, Note_off_c, 0, 64, 62
1, 138606, Note_off_c, 0, 49, 50
1, 138606, Control_c, 0, 64, 92
1, 138609, Note_off_c, 0, 52, 53
1, 138615, Note_off_c, 0, 61, 62
1, 138621, Control_c, 0, 64, 94
1, 138635, Control_c, 0, 64, 94
1, 138650, Control_c, 0, 64, 95
1, 138665, Control_c, 0, 64, 94
1, 138680, Control_c, 0, 64, 94
1, 138692, Note_on_c, 0, 68, 92
1, 138695, Control_c, 0, 64, 89
1, 138698, Note_on_c, 0, 49, 52
1, 138707, Note_on_c, 0, 52, 56
1, 138709, Note_on_c, 0, 44, 52
1, 138710, Control_c, 0, 64, 78
1, 138725, Control_c, 0, 64, 57
1, 138747, Control_c, 0, 64, 0
1, 138752, Note_off_c, 0, 52, 57
1, 138770, Note_off_c, 0, 44, 57
1, 138776, Note_off_c, 0, 49, 46
1, 138778, Control_c, 0, 64, 63
1, 138793, Control_c, 0, 64, 71
1, 138807, Control_c, 0, 64, 77
1, 138822, Control_c, 0, 64, 81
1, 138837, Control_c, 0, 64, 83
1, 138848, Note_on_c, 0, 64, 66
1, 138852, Control_c, 0, 64, 83
1, 138853, Note_on_c, 0, 49, 42
1, 138866, Note_off_c, 0, 68, 61
1, 138867, Note_on_c, 0, 61, 66
1, 138867, Control_c, 0, 64, 84
1, 138868, Note_on_c, 0, 52, 54
1, 138873, Note_on_c, 0, 44, 48
1, 138881, Control_c, 0, 64, 84
1, 138904, Note_off_c, 0, 64, 63
1, 138911, Control_c, 0, 64, 85
1, 138919, Note_off_c, 0, 52, 53
1, 138926, Control_c, 0, 64, 86
1, 138934, Note_off_c, 0, 49, 52
1, 138937, Note_off_c, 0, 44, 51
1, 138940, Control_c, 0, 64, 88
1, 138955, Control_c, 0, 64, 90
1, 138970, Control_c, 0, 64, 91
1, 138987, Note_off_c, 0, 61, 59
1, 139014, Note_on_c, 0, 73, 90
1, 139014, Control_c, 0, 64, 90
1, 139029, Control_c, 0, 64, 84
1, 139043, Note_on_c, 0, 49, 54
1, 139044, Note_on_c, 0, 44, 58
1, 139044, Control_c, 0, 64, 73
1, 139047, Note_on_c, 0, 52, 51
1, 139059, Control_c, 0, 64, 54
1, 139074, Control_c, 0, 64, 0
1, 139074, Note_off_c, 0, 52, 57
1, 139078, Note_off_c, 0, 49, 50
1, 139089, Control_c, 0, 64, 46
1, 139097, Note_off_c, 0, 44, 58
1, 139103, Control_c, 0, 64, 67
1, 139118, Control_c, 0, 64, 75
1, 139133, Control_c, 0, 64, 82
1, 139148, Control_c, 0, 64, 85
1, 139163, Control_c, 0, 64, 86
1, 139172, Note_on_c, 0, 64, 64
1, 139180, Note_on_c, 0, 68, 72
1, 139182, Note_on_c, 0, 52, 54
1, 139191, Note_on_c, 0, 49, 55
1, 139192, Control_c, 0, 64, 86
1, 139196, Note_on_c, 0, 44, 53
1, 139209, Note_off_c, 0, 64, 61
1, 139222, Control_c, 0, 64, 87
1, 139230, Note_off_c, 0, 73, 58
1, 139235, Note_off_c, 0, 52, 55
1, 139237, Control_c, 0, 64, 88
1, 139238, Note_off_c, 0, 49, 56
1, 139241, Note_off_c, 0, 68, 63
1, 139245, Note_off_c, 0, 44, 59
1, 139252, Control_c, 0, 64, 90
1, 139266, Control_c, 0, 64, 91
1, 139281, Control_c, 0, 64, 92
1, 139296, Control_c, 0, 64, 91
1, 139311, Control_c, 0, 64, 89
1, 139324, Note_on_c, 0, 76, 97
1, 139326, Control_c, 0, 64, 82
1, 139338, Note_on_c, 0, 49, 62
1, 139340, Control_c, 0, 64, 69
1, 139341, Note_on_c, 0, 44, 62
1, 139345, Note_on_c, 0, 52, 65
1, 139355, Control_c, 0, 64, 37
1, 139370, Control_c, 0, 64, 34
1, 139381, Note_off_c, 0, 52, 60
1, 139384, Control_c, 0, 64, 65
1, 139391, Note_off_c, 0, 49, 52
1, 139399, Control_c, 0, 64, 73
1, 139400, Note_off_c, 0, 44, 56
1, 139414, Control_c, 0, 64, 81
1, 139429, Control_c, 0, 64, 86
1, 139445, Control_c, 0, 64, 87
1, 139459, Control_c, 0, 64, 88
1, 139462, Note_off_c, 0, 76, 63
1, 139470, Note_on_c, 0, 73, 71
1, 139474, Control_c, 0, 64, 89
1, 139491, Note_on_c, 0, 68, 53
1, 139497, Control_c, 0, 64, 90
1, 139500, Note_on_c, 0, 52, 63
1, 139506, Note_on_c, 0, 49, 53
1, 139506, Note_on_c, 0, 44, 51
1, 139512, Control_c, 0, 64, 91
1, 139516, Note_off_c, 0, 68, 59
1, 139526, Control_c, 0, 64, 93
1, 139539, Note_off_c, 0, 73, 62
1, 139541, Control_c, 0, 64, 97
1, 139542, Note_off_c, 0, 49, 59
1, 139545, Note_off_c, 0, 52, 60
1, 139551, Note_off_c, 0, 44, 61
1, 139556, Control_c, 0, 64, 101
1, 139571, Control_c, 0, 64, 103
1, 139601, Control_c, 0, 64, 102
1, 139616, Control_c, 0, 64, 96
1, 139631, Control_c, 0, 64, 84
1, 139641, Note_on_c, 0, 80, 98
1, 139643, Note_on_c, 0, 49, 64
1, 139645, Note_on_c, 0, 52, 67
1, 139646, Note_on_c, 0, 44, 64
1, 139646, Control_c, 0, 64, 69
1, 139661, Control_c, 0, 64, 53
1, 139676, Control_c, 0, 64, 64
1, 139690, Control_c, 0, 64, 72
1, 139693, Note_off_c, 0, 52, 60
1, 139694, Note_off_c, 0, 49, 57
1, 139705, Note_off_c, 0, 44, 58
1, 139705, Control_c, 0, 64, 81
1, 139720, Control_c, 0, 64, 88
1, 139735, Control_c, 0, 64, 90
1, 139749, Control_c, 0, 64, 91
1, 139779, Control_c, 0, 64, 91
1, 139782, Note_on_c, 0, 76, 61
1, 139786, Note_off_c, 0, 80, 62
1, 139792, Note_on_c, 0, 73, 76
1, 139798, Note_on_c, 0, 52, 64
1, 139807, Note_on_c, 0, 49, 61
1, 139810, Note_on_c, 0, 44, 58
1, 139811, Note_off_c, 0, 76, 67
1, 139823, Control_c, 0, 64, 92
1, 139838, Note_off_c, 0, 49, 63
1, 139838, Note_off_c, 0, 52, 58
1, 139838, Control_c, 0, 64, 93
1, 139853, Control_c, 0, 64, 96
1, 139855, Note_off_c, 0, 44, 60
1, 139868, Control_c, 0, 64, 100
1, 139883, Control_c, 0, 64, 103
1, 139912, Control_c, 0, 64, 102
1, 139927, Control_c, 0, 64, 97
1, 139932, Note_off_c, 0, 73, 62
1, 139941, Control_c, 0, 64, 86
1, 139953, Note_on_c, 0, 85, 98
1, 139956, Control_c, 0, 64, 69
1, 139958, Note_on_c, 0, 44, 67
1, 139959, Note_on_c, 0, 52, 76
1, 139961, Note_on_c, 0, 49, 68
1, 139971, Control_c, 0, 64, 43
1, 139986, Control_c, 0, 64, 58
1, 140001, Control_c, 0, 64, 69
1, 140007, Note_off_c, 0, 49, 61
1, 140008, Note_off_c, 0, 52, 60
1, 140016, Control_c, 0, 64, 80
1, 140024, Note_off_c, 0, 44, 56
1, 140031, Control_c, 0, 64, 90
1, 140045, Control_c, 0, 64, 93
1, 140060, Control_c, 0, 64, 94
1, 140075, Control_c, 0, 64, 94
1, 140105, Control_c, 0, 64, 95
1, 140117, Note_on_c, 0, 49, 64
1, 140122, Note_on_c, 0, 80, 80
1, 140129, Note_on_c, 0, 52, 52
1, 140129, Note_on_c, 0, 76, 73
1, 140139, Note_on_c, 0, 44, 53
1, 140145, Note_off_c, 0, 49, 64
1, 140153, Note_off_c, 0, 52, 58
1, 140162, Note_off_c, 0, 44, 64
1, 140194, Note_off_c, 0, 85, 58
1, 140194, Control_c, 0, 64, 95
1, 140208, Control_c, 0, 64, 96
1, 140223, Control_c, 0, 64, 96
1, 140245, Control_c, 0, 64, 98
1, 140260, Control_c, 0, 64, 99
1, 140305, Control_c, 0, 64, 96
1, 140311, Note_off_c, 0, 80, 63
1, 140311, Note_on_c, 0, 33, 78
1, 140320, Control_c, 0, 64, 83
1, 140335, Control_c, 0, 64, 63
1, 140349, Control_c, 0, 64, 0
1, 140373, Note_on_c, 0, 87, 101
1, 140414, Note_off_c, 0, 33, 64
1, 140424, Control_c, 0, 64, 64
1, 140429, Note_off_c, 0, 76, 65
1, 140439, Control_c, 0, 64, 72
1, 140454, Control_c, 0, 64, 79
1, 140469, Control_c, 0, 64, 83
1, 140484, Control_c, 0, 64, 85
1, 140499, Control_c, 0, 64, 88
1, 140513, Control_c, 0, 64, 90
1, 140528, Control_c, 0, 64, 92
1, 140543, Control_c, 0, 64, 92
1, 140558, Control_c, 0, 64, 93
1, 140567, Note_on_c, 0, 79, 80
1, 140573, Note_on_c, 0, 75, 79
1, 140573, Note_on_c, 0, 52, 63
1, 140574, Note_on_c, 0, 45, 63
1, 140576, Note_on_c, 0, 49, 53
1, 140587, Control_c, 0, 64, 93
1, 140602, Control_c, 0, 64, 94
1, 140617, Control_c, 0, 64, 94
1, 140632, Control_c, 0, 64, 95
1, 140646, Control_c, 0, 64, 95
1, 140651, Note_off_c, 0, 52, 57
1, 140661, Control_c, 0, 64, 96
1, 140665, Note_off_c, 0, 75, 63
1, 140676, Control_c, 0, 64, 96
1, 140677, Note_off_c, 0, 45, 60
1, 140682, Note_off_c, 0, 49, 55
1, 140691, Control_c, 0, 64, 97
1, 140698, Note_off_c, 0, 87, 62
1, 140706, Control_c, 0, 64, 99
1, 140720, Control_c, 0, 64, 101
1, 140735, Control_c, 0, 64, 106
1, 140750, Control_c, 0, 64, 109
1, 140764, Control_c, 0, 64, 109
1, 140771, Note_on_c, 0, 52, 62
1, 140773, Note_on_c, 0, 49, 56
1, 140776, Note_on_c, 0, 45, 57
1, 140793, Note_off_c, 0, 79, 61
1, 140794, Control_c, 0, 64, 107
1, 140809, Control_c, 0, 64, 96
1, 140824, Control_c, 0, 64, 73
1, 140838, Control_c, 0, 64, 0
1, 140839, Note_on_c, 0, 88, 99
1, 140928, Control_c, 0, 64, 65
1, 140941, Control_c, 0, 64, 69
1, 140956, Control_c, 0, 64, 71
1, 140970, Control_c, 0, 64, 74
1, 140990, Note_off_c, 0, 52, 52
1, 140993, Control_c, 0, 64, 78
1, 140995, Note_off_c, 0, 45, 56
1, 141000, Note_off_c, 0, 49, 54
1, 141008, Control_c, 0, 64, 82
1, 141023, Control_c, 0, 64, 84
1, 141037, Control_c, 0, 64, 85
1, 141067, Control_c, 0, 64, 85
1, 141083, Note_on_c, 0, 79, 64
1, 141089, Note_on_c, 0, 76, 60
1, 141101, Note_on_c, 0, 49, 29
1, 141105, Note_on_c, 0, 45, 36
1, 141110, Note_on_c, 0, 52, 10
1, 141111, Control_c, 0, 64, 86
1, 141124, Note_off_c, 0, 76, 52
1, 141126, Control_c, 0, 64, 86
1, 141141, Control_c, 0, 64, 87
1, 141144, Note_off_c, 0, 52, 56
1, 141147, Note_off_c, 0, 45, 49
1, 141148, Note_off_c, 0, 49, 47
1, 141150, Note_off_c, 0, 79, 56
1, 141156, Control_c, 0, 64, 87
1, 141172, Control_c, 0, 64, 88
1, 141201, Control_c, 0, 64, 88
1, 141216, Control_c, 0, 64, 89
1, 141258, Note_on_c, 0, 79, 69
1, 141260, Note_on_c, 0, 52, 37
1, 141265, Note_on_c, 0, 76, 41
1, 141271, Note_on_c, 0, 49, 42
1, 141275, Control_c, 0, 64, 89
1, 141276, Note_on_c, 0, 45, 34
1, 141292, Note_off_c, 0, 52, 54
1, 141293, Note_off_c, 0, 76, 56
1, 141309, Note_off_c, 0, 49, 52
1, 141314, Note_off_c, 0, 79, 59
1, 141315, Note_off_c, 0, 45, 51
1, 141364, Control_c, 0, 64, 90
1, 141409, Note_on_c, 0, 76, 44
1, 141411, Note_on_c, 0, 52, 31
1, 141411, Note_on_c, 0, 79, 63
1, 141420, Note_on_c, 0, 45, 42
1, 141423, Note_on_c, 0, 49, 39
1, 141423, Control_c, 0, 64, 90
1, 141443, Note_off_c, 0, 52, 53
1, 141447, Note_off_c, 0, 76, 51
1, 141452, Note_off_c, 0, 45, 55
1, 141453, Control_c, 0, 64, 91
1, 141455, Note_off_c, 0, 49, 51
1, 141474, Note_off_c, 0, 79, 58
1, 141482, Control_c, 0, 64, 91
1, 141542, Control_c, 0, 64, 92
1, 141564, Note_on_c, 0, 45, 42
1, 141566, Note_on_c, 0, 49, 43
1, 141567, Note_on_c, 0, 52, 33
1, 141568, Note_on_c, 0, 76, 51
1, 141569, Note_on_c, 0, 79, 61
1, 141599, Note_off_c, 0, 52, 53
1, 141606, Note_off_c, 0, 76, 51
1, 141619, Note_off_c, 0, 49, 50
1, 141630, Note_off_c, 0, 45, 52
1, 141631, Control_c, 0, 64, 92
1, 141639, Note_off_c, 0, 79, 60
1, 141715, Note_on_c, 0, 45, 17
1, 141715, Note_on_c, 0, 52, 30
1, 141717, Note_on_c, 0, 76, 55
1, 141720, Note_on_c, 0, 79, 59
1, 141721, Note_off_c, 0, 88, 61
1, 141727, Note_on_c, 0, 49, 16
1, 141758, Note_off_c, 0, 52, 54
1, 141780, Note_off_c, 0, 45, 52
1, 141811, Note_off_c, 0, 49, 38
1, 141855, Note_off_c, 0, 76, 58
1, 141860, Control_c, 0, 64, 92
1, 141861, Note_on_c, 0, 45, 44
1, 141864, Note_on_c, 0, 51, 49
1, 141875, Control_c, 0, 64, 86
1, 141890, Control_c, 0, 64, 71
1, 141903, Note_on_c, 0, 87, 79
1, 141905, Control_c, 0, 64, 0
1, 141949, Control_c, 0, 64, 42
1, 141954, Note_off_c, 0, 79, 57
1, 141965, Control_c, 0, 64, 66
1, 141980, Control_c, 0, 64, 73
1, 141983, Note_off_c, 0, 45, 57
1, 141992, Note_off_c, 0, 51, 46
1, 141995, Control_c, 0, 64, 78
1, 142009, Control_c, 0, 64, 82
1, 142024, Control_c, 0, 64, 84
1, 142039, Control_c, 0, 64, 85
1, 142054, Control_c, 0, 64, 86
1, 142063, Note_on_c, 0, 51, 27
1, 142063, Note_on_c, 0, 45, 35
1, 142064, Note_on_c, 0, 79, 52
1, 142069, Control_c, 0, 64, 87
1, 142073, Note_on_c, 0, 75, 47
1, 142083, Control_c, 0, 64, 88
1, 142113, Control_c, 0, 64, 89
1, 142128, Control_c, 0, 64, 90
1, 142129, Note_off_c, 0, 45, 55
1, 142136, Note_off_c, 0, 51, 51
1, 142143, Control_c, 0, 64, 92
1, 142157, Control_c, 0, 64, 94
1, 142172, Control_c, 0, 64, 96
1, 142207, Note_off_c, 0, 75, 54
1, 142216, Note_on_c, 0, 85, 75
1, 142216, Control_c, 0, 64, 94
1, 142231, Control_c, 0, 64, 86
1, 142236, Note_on_c, 0, 51, 36
1, 142245, Note_on_c, 0, 45, 44
1, 142246, Control_c, 0, 64, 70
1, 142249, Note_off_c, 0, 79, 59
1, 142261, Control_c, 0, 64, 0
1, 142282, Note_off_c, 0, 51, 48
1, 142320, Control_c, 0, 64, 64
1, 142335, Control_c, 0, 64, 72
1, 142350, Control_c, 0, 64, 80
1, 142365, Control_c, 0, 64, 84
1, 142371, Note_off_c, 0, 45, 36
1, 142379, Control_c, 0, 64, 85
1, 142389, Note_on_c, 0, 79, 56
1, 142394, Control_c, 0, 64, 88
1, 142409, Control_c, 0, 64, 90
1, 142414, Note_on_c, 0, 73, 42
1, 142417, Note_off_c, 0, 87, 36
1, 142424, Control_c, 0, 64, 93
1, 142439, Note_off_c, 0, 85, 56
1, 142439, Control_c, 0, 64, 95
1, 142454, Control_c, 0, 64, 97
1, 142469, Control_c, 0, 64, 99
1, 142491, Control_c, 0, 64, 103
1, 142498, Note_off_c, 0, 79, 61
1, 142506, Control_c, 0, 64, 107
1, 142521, Control_c, 0, 64, 108
1, 142550, Control_c, 0, 64, 107
1, 142565, Note_off_c, 0, 73, 58
1, 142565, Control_c, 0, 64, 99
1, 142566, Note_on_c, 0, 85, 76
1, 142580, Control_c, 0, 64, 83
1, 142588, Note_on_c, 0, 32, 51
1, 142595, Control_c, 0, 64, 61
1, 142610, Control_c, 0, 64, 0
1, 142654, Control_c, 0, 64, 56
1, 142669, Control_c, 0, 64, 69
1, 142684, Control_c, 0, 64, 75
1, 142698, Control_c, 0, 64, 80
1, 142713, Control_c, 0, 64, 83
1, 142728, Note_off_c, 0, 32, 40
1, 142728, Control_c, 0, 64, 85
1, 142733, Note_on_c, 0, 44, 43
1, 142743, Control_c, 0, 64, 87
1, 142744, Note_on_c, 0, 80, 55
1, 142758, Control_c, 0, 64, 88
1, 142768, Note_off_c, 0, 44, 52
1, 142773, Control_c, 0, 64, 89
1, 142788, Control_c, 0, 64, 89
1, 142791, Note_on_c, 0, 75, 40
1, 142803, Control_c, 0, 64, 90
1, 142818, Control_c, 0, 64, 91
1, 142826, Note_off_c, 0, 85, 37
1, 142833, Control_c, 0, 64, 93
1, 142847, Control_c, 0, 64, 94
1, 142862, Control_c, 0, 64, 96
1, 142904, Note_on_c, 0, 84, 73
1, 142907, Control_c, 0, 64, 92
1, 142922, Control_c, 0, 64, 81
1, 142923, Note_on_c, 0, 51, 44
1, 142924, Note_on_c, 0, 44, 35
1, 142930, Note_off_c, 0, 75, 33
1, 142931, Note_off_c, 0, 80, 58
1, 142937, Control_c, 0, 64, 62
1, 142940, Note_on_c, 0, 48, 24
1, 142952, Control_c, 0, 64, 0
1, 142976, Note_off_c, 0, 44, 44
1, 142978, Note_off_c, 0, 51, 41
1, 142981, Control_c, 0, 64, 64
1, 142996, Control_c, 0, 64, 73
1, 143011, Control_c, 0, 64, 80
1, 143026, Control_c, 0, 64, 82
1, 143040, Control_c, 0, 64, 83
1, 143041, Note_off_c, 0, 48, 0
1, 143055, Control_c, 0, 64, 84
1, 143070, Note_on_c, 0, 48, 5
1, 143070, Control_c, 0, 64, 85
1, 143074, Note_on_c, 0, 80, 51
1, 143075, Note_off_c, 0, 84, 62
1, 143085, Control_c, 0, 64, 87
1, 143099, Note_on_c, 0, 44, 42
1, 143099, Note_on_c, 0, 75, 45
1, 143100, Control_c, 0, 64, 88
1, 143106, Note_on_c, 0, 51, 24
1, 143114, Note_off_c, 0, 80, 49
1, 143114, Control_c, 0, 64, 89
1, 143129, Control_c, 0, 64, 90
1, 143144, Control_c, 0, 64, 92
1, 143145, Note_off_c, 0, 44, 46
1, 143149, Note_off_c, 0, 51, 47
1, 143158, Control_c, 0, 64, 94
1, 143173, Control_c, 0, 64, 97
1, 143178, Note_off_c, 0, 75, 63
1, 143188, Control_c, 0, 64, 98
1, 143203, Control_c, 0, 64, 99
1, 143217, Note_off_c, 0, 48, 0
1, 143218, Control_c, 0, 64, 98
1, 143240, Control_c, 0, 64, 95
1, 143243, Note_on_c, 0, 80, 63
1, 143248, Note_on_c, 0, 48, 23
1, 143255, Control_c, 0, 64, 85
1, 143265, Note_on_c, 0, 44, 47
1, 143266, Note_on_c, 0, 51, 40
1, 143270, Control_c, 0, 64, 70
1, 143285, Control_c, 0, 64, 0
1, 143302, Note_off_c, 0, 51, 49
1, 143314, Control_c, 0, 64, 64
1, 143315, Note_off_c, 0, 44, 43
1, 143329, Control_c, 0, 64, 73
1, 143344, Control_c, 0, 64, 82
1, 143358, Control_c, 0, 64, 86
1, 143391, Note_off_c, 0, 80, 53
1, 143394, Note_off_c, 0, 48, 0
1, 143403, Control_c, 0, 64, 87
1, 143418, Note_on_c, 0, 48, 18
1, 143418, Note_on_c, 0, 75, 54
1, 143433, Control_c, 0, 64, 87
1, 143437, Note_on_c, 0, 51, 36
1, 143437, Note_on_c, 0, 72, 43
1, 143470, Note_off_c, 0, 75, 58
1, 143477, Control_c, 0, 64, 88
1, 143481, Note_off_c, 0, 51, 47
1, 143489, Note_off_c, 0, 72, 60
1, 143492, Control_c, 0, 64, 88
1, 143504, Poly_aftertouch_c, 0, 44, 127
1, 143507, Control_c, 0, 64, 89
1, 143521, Control_c, 0, 64, 90
1, 143535, Poly_aftertouch_c, 0, 44, 0
1, 143539, Note_off_c, 0, 48, 31
1, 143567, Control_c, 0, 64, 88
1, 143581, Control_c, 0, 64, 82
1, 143586, Note_on_c, 0, 75, 68
1, 143596, Control_c, 0, 64, 69
1, 143599, Note_on_c, 0, 51, 37
1, 143601, Note_on_c, 0, 48, 16
1, 143607, Note_on_c, 0, 44, 25
1, 143611, Control_c, 0, 64, 0
1, 143643, Note_off_c, 0, 51, 46
1, 143655, Note_off_c, 0, 44, 53
1, 143655, Control_c, 0, 64, 64
1, 143670, Control_c, 0, 64, 70
1, 143682, Note_off_c, 0, 48, 37
1, 143685, Control_c, 0, 64, 74
1, 143700, Control_c, 0, 64, 76
1, 143715, Control_c, 0, 64, 78
1, 143730, Control_c, 0, 64, 80
1, 143745, Control_c, 0, 64, 81
1, 143752, Note_on_c, 0, 48, 20
1, 143752, Note_on_c, 0, 72, 58
1, 143760, Control_c, 0, 64, 82
1, 143764, Note_on_c, 0, 51, 38
1, 143766, Note_off_c, 0, 75, 60
1, 143772, Note_on_c, 0, 44, 36
1, 143786, Note_on_c, 0, 68, 36
1, 143789, Control_c, 0, 64, 83
1, 143795, Note_off_c, 0, 72, 59
1, 143799, Note_off_c, 0, 51, 48
1, 143804, Control_c, 0, 64, 84
1, 143815, Note_off_c, 0, 44, 47
1, 143819, Control_c, 0, 64, 85
1, 143834, Control_c, 0, 64, 86
1, 143842, Note_off_c, 0, 68, 46
1, 143849, Control_c, 0, 64, 86
1, 143893, Control_c, 0, 64, 84
1, 143897, Note_off_c, 0, 48, 0
1, 143907, Control_c, 0, 64, 76
1, 143916, Note_on_c, 0, 72, 67
1, 143918, Note_on_c, 0, 48, 16
1, 143922, Control_c, 0, 64, 60
1, 143930, Note_on_c, 0, 44, 41
1, 143930, Note_on_c, 0, 51, 36
1, 143937, Control_c, 0, 64, 0
1, 143970, Note_off_c, 0, 51, 48
1, 143991, Note_off_c, 0, 44, 56
1, 144004, Control_c, 0, 64, 63
1, 144019, Control_c, 0, 64, 70
1, 144027, Note_off_c, 0, 48, 35
1, 144034, Control_c, 0, 64, 75
1, 144049, Control_c, 0, 64, 77
1, 144063, Control_c, 0, 64, 77
1, 144078, Control_c, 0, 64, 79
1, 144089, Note_off_c, 0, 72, 62
1, 144090, Note_on_c, 0, 48, 26
1, 144093, Control_c, 0, 64, 81
1, 144098, Note_on_c, 0, 51, 43
1, 144103, Note_on_c, 0, 68, 47
1, 144106, Note_on_c, 0, 44, 35
1, 144106, Note_on_c, 0, 63, 48
1, 144107, Control_c, 0, 64, 83
1, 144122, Control_c, 0, 64, 85
1, 144137, Control_c, 0, 64, 85
1, 144138, Note_off_c, 0, 51, 48
1, 144140, Note_off_c, 0, 68, 48
1, 144152, Control_c, 0, 64, 86
1, 144159, Note_off_c, 0, 44, 44
1, 144167, Control_c, 0, 64, 87
1, 144181, Control_c, 0, 64, 90
1, 144196, Note_off_c, 0, 63, 61
1, 144196, Control_c, 0, 64, 91
1, 144211, Control_c, 0, 64, 93
1, 144217, Note_off_c, 0, 48, 0
1, 144226, Control_c, 0, 64, 93
1, 144249, Note_on_c, 0, 48, 10
1, 144255, Control_c, 0, 64, 93
1, 144257, Note_on_c, 0, 68, 63
1, 144269, Note_on_c, 0, 51, 41
1, 144270, Control_c, 0, 64, 87
1, 144271, Note_on_c, 0, 44, 44
1, 144285, Control_c, 0, 64, 75
1, 144300, Control_c, 0, 64, 58
1, 144314, Control_c, 0, 64, 0
1, 144320, Note_off_c, 0, 51, 45
1, 144331, Note_off_c, 0, 44, 53
1, 144344, Control_c, 0, 64, 65
1, 144360, Control_c, 0, 64, 74
1, 144375, Control_c, 0, 64, 80
1, 144390, Control_c, 0, 64, 81
1, 144405, Control_c, 0, 64, 81
1, 144406, Note_off_c, 0, 48, 30
1, 144434, Control_c, 0, 64, 82
1, 144449, Control_c, 0, 64, 82
1, 144464, Note_on_c, 0, 63, 43
1, 144464, Control_c, 0, 64, 83
1, 144471, Note_off_c, 0, 68, 48
1, 144479, Control_c, 0, 64, 83
1, 144482, Note_on_c, 0, 60, 28
1, 144493, Control_c, 0, 64, 84
1, 144508, Control_c, 0, 64, 84
1, 144523, Control_c, 0, 64, 85
1, 144538, Control_c, 0, 64, 85
1, 144553, Control_c, 0, 64, 87
1, 144567, Control_c, 0, 64, 88
1, 144582, Control_c, 0, 64, 88
1, 144612, Control_c, 0, 64, 88
1, 144627, Control_c, 0, 64, 83
1, 144642, Control_c, 0, 64, 72
1, 144657, Control_c, 0, 64, 0
1, 144664, Note_on_c, 0, 32, 47
1, 144673, Note_on_c, 0, 68, 63
1, 144678, Note_off_c, 0, 60, 38
1, 144700, Control_c, 0, 64, 39
1, 144705, Note_off_c, 0, 32, 61
1, 144715, Note_off_c, 0, 63, 39
1, 144715, Control_c, 0, 64, 67
1, 144737, Control_c, 0, 64, 72
1, 144752, Control_c, 0, 64, 76
1, 144767, Control_c, 0, 64, 78
1, 144782, Control_c, 0, 64, 80
1, 144797, Control_c, 0, 64, 81
1, 144811, Control_c, 0, 64, 82
1, 144841, Control_c, 0, 64, 83
1, 144871, Control_c, 0, 64, 83
1, 144912, Note_on_c, 0, 63, 44
1, 144916, Note_on_c, 0, 60, 28
1, 144949, Note_on_c, 0, 54, 13
1, 144996, Note_off_c, 0, 54, 36
1, 144997, Note_off_c, 0, 68, 58
1, 145018, Control_c, 0, 64, 84
1, 145048, Control_c, 0, 64, 84
1, 145051, Note_off_c, 0, 63, 40
1, 145063, Control_c, 0, 64, 85
1, 145077, Control_c, 0, 64, 85
1, 145092, Control_c, 0, 64, 85
1, 145093, Note_on_c, 0, 69, 73
1, 145107, Control_c, 0, 64, 82
1, 145121, Note_off_c, 0, 60, 37
1, 145122, Control_c, 0, 64, 74
1, 145134, Note_on_c, 0, 44, 37
1, 145134, Note_on_c, 0, 54, 22
1, 145137, Control_c, 0, 64, 11
1, 145150, Note_on_c, 0, 51, 26
1, 145152, Control_c, 0, 64, 0
1, 145212, Note_off_c, 0, 44, 46
1, 145217, Note_off_c, 0, 51, 47
1, 145227, Control_c, 0, 64, 60
1, 145241, Note_off_c, 0, 54, 36
1, 145241, Control_c, 0, 64, 64
1, 145256, Control_c, 0, 64, 67
1, 145271, Control_c, 0, 64, 71
1, 145286, Control_c, 0, 64, 74
1, 145301, Control_c, 0, 64, 78
1, 145302, Note_on_c, 0, 54, 24
1, 145304, Note_on_c, 0, 60, 42
1, 145305, Note_on_c, 0, 51, 24
1, 145307, Note_on_c, 0, 44, 39
1, 145316, Control_c, 0, 64, 80
1, 145319, Note_on_c, 0, 63, 28
1, 145331, Control_c, 0, 64, 81
1, 145345, Control_c, 0, 64, 82
1, 145353, Note_off_c, 0, 44, 51
1, 145354, Note_off_c, 0, 60, 42
1, 145357, Note_off_c, 0, 63, 52
1, 145360, Control_c, 0, 64, 83
1, 145362, Note_off_c, 0, 54, 41
1, 145375, Control_c, 0, 64, 83
1, 145390, Control_c, 0, 64, 84
1, 145396, Note_off_c, 0, 51, 33
1, 145405, Control_c, 0, 64, 84
1, 145450, Control_c, 0, 64, 85
1, 145456, Note_on_c, 0, 51, 16
1, 145457, Note_on_c, 0, 44, 34
1, 145483, Note_on_c, 0, 63, 39
1, 145486, Note_on_c, 0, 54, 13
1, 145497, Note_on_c, 0, 60, 34
1, 145516, Control_c, 0, 64, 85
1, 145526, Note_off_c, 0, 60, 53
1, 145533, Note_off_c, 0, 54, 47
1, 145554, Note_off_c, 0, 63, 42
1, 145560, Control_c, 0, 64, 86
1, 145578, Note_off_c, 0, 51, 0
1, 145592, Note_off_c, 0, 44, 0
1, 145611, Note_on_c, 0, 44, 15
1, 145616, Poly_aftertouch_c, 0, 51, 127
1, 145630, Note_on_c, 0, 54, 34
1, 145634, Note_on_c, 0, 60, 34
1, 145664, Note_on_c, 0, 63, 17
1, 145669, Note_off_c, 0, 54, 48
1, 145679, Note_off_c, 0, 60, 43
1, 145694, Control_c, 0, 64, 86
1, 145708, Note_off_c, 0, 63, 52
1, 145738, Note_off_c, 0, 44, 0
1, 145739, Control_c, 0, 64, 87
1, 145747, Poly_aftertouch_c, 0, 51, 0
1, 145765, Note_on_c, 0, 51, 16
1, 145775, Poly_aftertouch_c, 0, 44, 127
1, 145780, Note_on_c, 0, 54, 43
1, 145783, Control_c, 0, 64, 87
1, 145806, Note_on_c, 0, 63, 37
1, 145813, Note_off_c, 0, 54, 50
1, 145816, Note_on_c, 0, 60, 12
1, 145847, Note_off_c, 0, 63, 48
1, 145855, Note_off_c, 0, 60, 39
1, 145857, Control_c, 0, 64, 88
1, 145876, Note_off_c, 0, 51, 0
1, 145903, Poly_aftertouch_c, 0, 44, 0
1, 145914, Poly_aftertouch_c, 0, 51, 127
1, 145921, Note_on_c, 0, 44, 16
1, 145922, Note_on_c, 0, 51, 3
1, 145934, Note_on_c, 0, 54, 41
1, 145949, Note_off_c, 0, 69, 57
1, 145960, Note_on_c, 0, 63, 52
1, 145977, Note_on_c, 0, 60, 44
1, 145983, Note_off_c, 0, 54, 44
1, 146014, Note_off_c, 0, 44, 38
1, 146055, Note_off_c, 0, 51, 0
1, 146093, Poly_aftertouch_c, 0, 51, 127
1, 146095, Control_c, 0, 64, 86
1, 146098, Note_on_c, 0, 68, 68
1, 146101, Note_on_c, 0, 44, 39
1, 146103, Note_off_c, 0, 60, 38
1, 146110, Control_c, 0, 64, 81
1, 146116, Note_on_c, 0, 54, 40
1, 146124, Control_c, 0, 64, 71
1, 146126, Note_off_c, 0, 63, 55
1, 146139, Control_c, 0, 64, 55
1, 146153, Note_off_c, 0, 54, 47
1, 146154, Control_c, 0, 64, 0
1, 146165, Note_off_c, 0, 44, 54
1, 146169, Control_c, 0, 64, 42
1, 146183, Control_c, 0, 64, 64
1, 146198, Control_c, 0, 64, 68
1, 146213, Control_c, 0, 64, 69
1, 146236, Control_c, 0, 64, 71
1, 146245, Poly_aftertouch_c, 0, 51, 0
1, 146251, Control_c, 0, 64, 72
1, 146265, Control_c, 0, 64, 75
1, 146273, Note_on_c, 0, 44, 32
1, 146273, Note_on_c, 0, 63, 48
1, 146280, Control_c, 0, 64, 79
1, 146281, Note_on_c, 0, 54, 41
1, 146281, Poly_aftertouch_c, 0, 51, 127
1, 146282, Note_on_c, 0, 60, 25
1, 146295, Control_c, 0, 64, 81
1, 146309, Control_c, 0, 64, 82
1, 146322, Note_off_c, 0, 54, 45
1, 146324, Control_c, 0, 64, 83
1, 146339, Control_c, 0, 64, 84
1, 146341, Note_off_c, 0, 44, 42
1, 146398, Control_c, 0, 64, 83
1, 146406, Note_off_c, 0, 60, 37
1, 146410, Poly_aftertouch_c, 0, 51, 0
1, 146413, Control_c, 0, 64, 78
1, 146418, Note_on_c, 0, 66, 73
1, 146426, Note_on_c, 0, 51, 20
1, 146428, Control_c, 0, 64, 68
1, 146433, Note_off_c, 0, 63, 59
1, 146434, Note_on_c, 0, 54, 46
1, 146443, Control_c, 0, 64, 0
1, 146448, Note_on_c, 0, 44, 40
1, 146481, Note_off_c, 0, 54, 57
1, 146502, Note_off_c, 0, 51, 50
1, 146502, Control_c, 0, 64, 61
1, 146516, Note_off_c, 0, 44, 49
1, 146517, Control_c, 0, 64, 67
1, 146532, Control_c, 0, 64, 71
1, 146547, Control_c, 0, 64, 75
1, 146557, Note_off_c, 0, 68, 34
1, 146562, Control_c, 0, 64, 80
1, 146569, Note_on_c, 0, 54, 45
1, 146572, Note_on_c, 0, 63, 54
1, 146576, Control_c, 0, 64, 84
1, 146591, Control_c, 0, 64, 85
1, 146595, Note_off_c, 0, 54, 51
1, 146606, Control_c, 0, 64, 86
1, 146621, Control_c, 0, 64, 87
1, 146630, Poly_aftertouch_c, 0, 51, 0
1, 146636, Control_c, 0, 64, 87
1, 146645, Note_off_c, 0, 63, 61
1, 146650, Control_c, 0, 64, 88
1, 146665, Control_c, 0, 64, 89
1, 146680, Control_c, 0, 64, 91
1, 146724, Control_c, 0, 64, 90
1, 146739, Control_c, 0, 64, 83
1, 146749, Note_on_c, 0, 32, 58
1, 146754, Note_on_c, 0, 64, 72
1, 146755, Control_c, 0, 64, 66
1, 146770, Control_c, 0, 64, 0
1, 146773, Note_off_c, 0, 66, 56
1, 146788, Note_off_c, 0, 32, 64
1, 146829, Control_c, 0, 64, 59
1, 146844, Control_c, 0, 64, 68
1, 146859, Control_c, 0, 64, 74
1, 146873, Control_c, 0, 64, 79
1, 146888, Control_c, 0, 64, 81
1, 146903, Control_c, 0, 64, 82
1, 146918, Control_c, 0, 64, 83
1, 146932, Control_c, 0, 64, 84
1, 146938, Note_on_c, 0, 49, 52
1, 146942, Note_on_c, 0, 61, 65
1, 146943, Note_on_c, 0, 56, 46
1, 146946, Note_on_c, 0, 44, 46
1, 146947, Control_c, 0, 64, 85
1, 146948, Note_on_c, 0, 52, 42
1, 146962, Control_c, 0, 64, 86
1, 146982, Note_off_c, 0, 56, 55
1, 146985, Control_c, 0, 64, 87
1, 146997, Note_off_c, 0, 64, 63
1, 147000, Control_c, 0, 64, 88
1, 147003, Note_off_c, 0, 49, 42
1, 147003, Note_off_c, 0, 52, 45
1, 147004, Note_off_c, 0, 44, 47
1, 147012, Note_off_c, 0, 61, 63
1, 147014, Control_c, 0, 64, 90
1, 147029, Control_c, 0, 64, 92
1, 147044, Control_c, 0, 64, 94
1, 147059, Control_c, 0, 64, 94
1, 147086, Note_on_c, 0, 68, 82
1, 147088, Control_c, 0, 64, 94
1, 147095, Note_on_c, 0, 49, 48
1, 147102, Note_on_c, 0, 52, 47
1, 147103, Control_c, 0, 64, 90
1, 147104, Note_on_c, 0, 44, 45
1, 147118, Control_c, 0, 64, 81
1, 147132, Control_c, 0, 64, 69
1, 147147, Control_c, 0, 64, 48
1, 147148, Note_off_c, 0, 52, 57
1, 147158, Note_off_c, 0, 49, 49
1, 147162, Control_c, 0, 64, 59
1, 147164, Note_off_c, 0, 44, 54
1, 147177, Control_c, 0, 64, 68
1, 147192, Control_c, 0, 64, 76
1, 147206, Control_c, 0, 64, 83
1, 147221, Control_c, 0, 64, 85
1, 147238, Note_on_c, 0, 64, 68
1, 147255, Note_off_c, 0, 68, 63
1, 147256, Note_on_c, 0, 44, 40
1, 147256, Note_on_c, 0, 49, 41
1, 147262, Note_on_c, 0, 61, 55
1, 147266, Note_on_c, 0, 52, 53
1, 147266, Control_c, 0, 64, 86
1, 147303, Note_off_c, 0, 64, 63
1, 147310, Control_c, 0, 64, 87
1, 147316, Note_off_c, 0, 52, 56
1, 147320, Note_off_c, 0, 49, 54
1, 147324, Note_off_c, 0, 44, 53
1, 147325, Control_c, 0, 64, 88
1, 147340, Control_c, 0, 64, 91
1, 147355, Control_c, 0, 64, 93
1, 147369, Control_c, 0, 64, 94
1, 147372, Note_off_c, 0, 61, 55
1, 147399, Control_c, 0, 64, 93
1, 147405, Note_on_c, 0, 73, 84
1, 147414, Control_c, 0, 64, 90
1, 147429, Control_c, 0, 64, 78
1, 147434, Note_on_c, 0, 52, 45
1, 147441, Note_on_c, 0, 44, 47
1, 147444, Note_on_c, 0, 49, 45
1, 147444, Control_c, 0, 64, 64
1, 147459, Control_c, 0, 64, 0
1, 147468, Note_off_c, 0, 52, 50
1, 147482, Note_off_c, 0, 49, 47
1, 147488, Note_off_c, 0, 44, 60
1, 147488, Control_c, 0, 64, 64
1, 147503, Control_c, 0, 64, 73
1, 147518, Control_c, 0, 64, 82
1, 147532, Control_c, 0, 64, 87
1, 147548, Control_c, 0, 64, 88
1, 147563, Control_c, 0, 64, 89
1, 147563, Note_on_c, 0, 64, 57
1, 147566, Note_on_c, 0, 68, 65
1, 147590, Note_on_c, 0, 52, 46
1, 147593, Control_c, 0, 64, 89
1, 147602, Note_on_c, 0, 44, 36
1, 147602, Note_off_c, 0, 64, 62
1, 147606, Note_on_c, 0, 49, 31
1, 147622, Control_c, 0, 64, 90
1, 147627, Note_off_c, 0, 73, 61
1, 147635, Note_off_c, 0, 52, 47
1, 147635, Note_off_c, 0, 68, 63
1, 147637, Control_c, 0, 64, 92
1, 147641, Note_off_c, 0, 49, 50
1, 147646, Note_off_c, 0, 44, 48
1, 147652, Control_c, 0, 64, 93
1, 147696, Control_c, 0, 64, 91
1, 147711, Control_c, 0, 64, 81
1, 147712, Note_on_c, 0, 76, 90
1, 147733, Control_c, 0, 64, 67
1, 147742, Note_on_c, 0, 49, 52
1, 147748, Note_on_c, 0, 52, 54
1, 147748, Control_c, 0, 64, 0
1, 147754, Note_on_c, 0, 44, 51
1, 147777, Note_off_c, 0, 52, 58
1, 147778, Control_c, 0, 64, 64
1, 147787, Note_off_c, 0, 49, 58
1, 147793, Control_c, 0, 64, 74
1, 147794, Note_off_c, 0, 44, 63
1, 147808, Control_c, 0, 64, 84
1, 147823, Control_c, 0, 64, 91
1, 147837, Control_c, 0, 64, 92
1, 147852, Control_c, 0, 64, 93
1, 147853, Note_off_c, 0, 76, 66
1, 147868, Note_on_c, 0, 73, 69
1, 147870, Note_on_c, 0, 68, 58
1, 147880, Note_on_c, 0, 52, 53
1, 147882, Control_c, 0, 64, 93
1, 147891, Note_on_c, 0, 49, 53
1, 147891, Note_on_c, 0, 44, 51
1, 147895, Note_off_c, 0, 68, 63
1, 147897, Control_c, 0, 64, 94
1, 147905, Note_off_c, 0, 52, 61
1, 147912, Control_c, 0, 64, 96
1, 147916, Note_off_c, 0, 49, 60
1, 147916, Note_off_c, 0, 73, 62
1, 147927, Control_c, 0, 64, 97
1, 147929, Note_off_c, 0, 44, 63
1, 147942, Control_c, 0, 64, 99
1, 147986, Control_c, 0, 64, 97
1, 148001, Control_c, 0, 64, 86
1, 148016, Control_c, 0, 64, 72
1, 148019, Note_on_c, 0, 80, 97
1, 148026, Note_on_c, 0, 49, 57
1, 148030, Note_on_c, 0, 44, 57
1, 148030, Control_c, 0, 64, 0
1, 148031, Note_on_c, 0, 52, 58
1, 148060, Control_c, 0, 64, 50
1, 148068, Note_off_c, 0, 52, 61
1, 148073, Note_off_c, 0, 49, 60
1, 148075, Control_c, 0, 64, 69
1, 148077, Note_off_c, 0, 44, 60
1, 148089, Control_c, 0, 64, 79
1, 148104, Control_c, 0, 64, 87
1, 148119, Control_c, 0, 64, 88
1, 148168, Note_on_c, 0, 76, 72
1, 148171, Note_off_c, 0, 80, 62
1, 148172, Note_on_c, 0, 73, 69
1, 148173, Note_on_c, 0, 49, 66
1, 148176, Note_on_c, 0, 52, 64
1, 148178, Control_c, 0, 64, 88
1, 148188, Note_on_c, 0, 44, 58
1, 148208, Control_c, 0, 64, 90
1, 148213, Note_off_c, 0, 52, 63
1, 148214, Note_off_c, 0, 49, 54
1, 148219, Note_off_c, 0, 76, 66
1, 148223, Control_c, 0, 64, 93
1, 148225, Note_off_c, 0, 44, 63
1, 148237, Control_c, 0, 64, 97
1, 148252, Control_c, 0, 64, 100
1, 148267, Control_c, 0, 64, 101
1, 148282, Control_c, 0, 64, 100
1, 148297, Control_c, 0, 64, 99
1, 148311, Control_c, 0, 64, 93
1, 148326, Note_off_c, 0, 73, 59
1, 148326, Control_c, 0, 64, 80
1, 148336, Note_on_c, 0, 85, 96
1, 148338, Note_on_c, 0, 49, 73
1, 148340, Note_on_c, 0, 52, 76
1, 148341, Control_c, 0, 64, 66
1, 148343, Note_on_c, 0, 44, 64
1, 148357, Control_c, 0, 64, 49
1, 148371, Control_c, 0, 64, 64
1, 148382, Note_off_c, 0, 49, 58
1, 148384, Note_off_c, 0, 52, 49
1, 148385, Note_off_c, 0, 44, 57
1, 148386, Control_c, 0, 64, 74
1, 148401, Control_c, 0, 64, 83
1, 148416, Control_c, 0, 64, 90
1, 148431, Control_c, 0, 64, 91
1, 148445, Control_c, 0, 64, 91
1, 148492, Note_on_c, 0, 49, 75
1, 148496, Note_on_c, 0, 52, 72
1, 148505, Note_on_c, 0, 44, 57
1, 148505, Note_on_c, 0, 80, 85
1, 148510, Note_on_c, 0, 76, 76
1, 148518, Note_off_c, 0, 52, 73
1, 148528, Note_off_c, 0, 49, 61
1, 148536, Note_off_c, 0, 44, 63
1, 148586, Control_c, 0, 64, 92
1, 148587, Note_off_c, 0, 85, 54
1, 148663, Note_off_c, 0, 80, 64
1, 148675, Control_c, 0, 64, 87
1, 148676, Note_on_c, 0, 33, 81
1, 148690, Control_c, 0, 64, 74
1, 148704, Control_c, 0, 64, 0
1, 148722, Note_on_c, 0, 87, 97
1, 148760, Note_off_c, 0, 33, 64
1, 148772, Note_off_c, 0, 76, 63
1, 148778, Control_c, 0, 64, 65
1, 148793, Control_c, 0, 64, 74
1, 148808, Control_c, 0, 64, 82
1, 148823, Control_c, 0, 64, 88
1, 148838, Control_c, 0, 64, 90
1, 148852, Control_c, 0, 64, 91
1, 148867, Control_c, 0, 64, 91
1, 148882, Control_c, 0, 64, 92
1, 148911, Control_c, 0, 64, 92
1, 148918, Note_on_c, 0, 52, 70
1, 148918, Note_on_c, 0, 79, 83
1, 148923, Note_on_c, 0, 75, 88
1, 148924, Note_on_c, 0, 49, 57
1, 148926, Control_c, 0, 64, 93
1, 148931, Note_on_c, 0, 45, 54
1, 148956, Control_c, 0, 64, 93
1, 148997, Note_off_c, 0, 52, 55
1, 149017, Note_off_c, 0, 45, 62
1, 149021, Note_off_c, 0, 49, 55
1, 149031, Note_off_c, 0, 75, 62
1, 149045, Control_c, 0, 64, 94
1, 149046, Note_off_c, 0, 87, 60
1, 149101, Note_on_c, 0, 45, 58
1, 149102, Note_on_c, 0, 52, 68
1, 149104, Control_c, 0, 64, 93
1, 149105, Note_off_c, 0, 79, 62
1, 149110, Note_on_c, 0, 49, 52
1, 149119, Control_c, 0, 64, 84
1, 149134, Control_c, 0, 64, 66
1, 149149, Control_c, 0, 64, 0
1, 149154, Note_on_c, 0, 88, 100
1, 149232, Control_c, 0, 64, 58
1, 149247, Control_c, 0, 64, 71
1, 149262, Control_c, 0, 64, 79
1, 149272, Note_off_c, 0, 52, 49
1, 149276, Control_c, 0, 64, 84
1, 149280, Note_off_c, 0, 45, 58
1, 149291, Control_c, 0, 64, 85
1, 149299, Note_off_c, 0, 49, 51
1, 149306, Control_c, 0, 64, 85
1, 149335, Control_c, 0, 64, 86
1, 149350, Control_c, 0, 64, 86
1, 149356, Note_on_c, 0, 49, 31
1, 149365, Control_c, 0, 64, 87
1, 149370, Note_on_c, 0, 79, 63
1, 149373, Note_on_c, 0, 76, 58
1, 149373, Note_on_c, 0, 45, 44
1, 149380, Control_c, 0, 64, 87
1, 149385, Note_on_c, 0, 52, 27
1, 149405, Note_off_c, 0, 76, 55
1, 149409, Control_c, 0, 64, 88
1, 149420, Note_off_c, 0, 52, 54
1, 149422, Note_off_c, 0, 49, 58
1, 149423, Note_off_c, 0, 79, 59
1, 149437, Note_off_c, 0, 45, 57
1, 149528, Note_on_c, 0, 79, 68
1, 149531, Note_on_c, 0, 76, 50
1, 149536, Note_on_c, 0, 45, 39
1, 149538, Note_on_c, 0, 49, 49
1, 149545, Note_on_c, 0, 52, 14
1, 149559, Note_off_c, 0, 76, 56
1, 149571, Note_off_c, 0, 45, 52
1, 149577, Note_off_c, 0, 49, 51
1, 149583, Note_off_c, 0, 52, 54
1, 149590, Note_off_c, 0, 79, 60
1, 149647, Control_c, 0, 64, 88
1, 149683, Note_on_c, 0, 76, 48
1, 149683, Note_on_c, 0, 79, 61
1, 149686, Note_on_c, 0, 45, 36
1, 149697, Note_on_c, 0, 49, 40
1, 149698, Note_on_c, 0, 52, 33
1, 149718, Note_off_c, 0, 76, 53
1, 149720, Control_c, 0, 64, 89
1, 149733, Note_off_c, 0, 49, 48
1, 149733, Note_off_c, 0, 52, 54
1, 149741, Note_off_c, 0, 45, 45
1, 149751, Note_off_c, 0, 79, 60
1, 149780, Control_c, 0, 64, 89
1, 149841, Note_on_c, 0, 45, 19
1, 149841, Note_on_c, 0, 49, 37
1, 149843, Note_on_c, 0, 79, 57
1, 149846, Note_on_c, 0, 76, 46
1, 149850, Note_on_c, 0, 52, 28
1, 149873, Note_off_c, 0, 76, 56
1, 149890, Note_off_c, 0, 52, 51
1, 149905, Note_off_c, 0, 79, 57
1, 149933, Note_off_c, 0, 45, 0
1, 149950, Note_off_c, 0, 49, 0
1, 149966, Note_on_c, 0, 45, 9
1, 149978, Note_on_c, 0, 49, 18
1, 149999, Note_on_c, 0, 76, 45
1, 150001, Note_on_c, 0, 52, 32
1, 150002, Note_off_c, 0, 88, 60
1, 150007, Note_on_c, 0, 79, 59
1, 150035, Note_off_c, 0, 52, 51
1, 150080, Note_off_c, 0, 45, 38
1, 150097, Note_off_c, 0, 49, 34
1, 150101, Note_off_c, 0, 76, 55
1, 150114, Control_c, 0, 64, 89
1, 150129, Control_c, 0, 64, 87
1, 150144, Control_c, 0, 64, 78
1, 150157, Note_on_c, 0, 87, 82
1, 150158, Control_c, 0, 64, 65
1, 150169, Note_on_c, 0, 45, 46
1, 150169, Note_on_c, 0, 52, 37
1, 150173, Control_c, 0, 64, 0
1, 150175, Note_on_c, 0, 49, 12
1, 150203, Control_c, 0, 64, 52
1, 150216, Note_off_c, 0, 52, 47
1, 150218, Control_c, 0, 64, 66
1, 150221, Note_off_c, 0, 79, 57
1, 150229, Note_off_c, 0, 45, 54
1, 150232, Control_c, 0, 64, 72
1, 150241, Note_off_c, 0, 49, 41
1, 150247, Control_c, 0, 64, 77
1, 150262, Control_c, 0, 64, 81
1, 150277, Control_c, 0, 64, 82
1, 150292, Control_c, 0, 64, 83
1, 150306, Control_c, 0, 64, 84
1, 150321, Control_c, 0, 64, 84
1, 150324, Note_on_c, 0, 49, 31
1, 150329, Note_on_c, 0, 45, 39
1, 150330, Note_on_c, 0, 52, 41
1, 150336, Control_c, 0, 64, 85
1, 150350, Note_on_c, 0, 75, 41
1, 150350, Note_on_c, 0, 79, 51
1, 150350, Control_c, 0, 64, 86
1, 150365, Control_c, 0, 64, 87
1, 150372, Note_off_c, 0, 52, 47
1, 150380, Control_c, 0, 64, 89
1, 150395, Control_c, 0, 64, 91
1, 150405, Note_off_c, 0, 45, 47
1, 150410, Control_c, 0, 64, 93
1, 150419, Note_off_c, 0, 49, 35
1, 150453, Note_off_c, 0, 75, 40
1, 150469, Control_c, 0, 64, 90
1, 150484, Control_c, 0, 64, 81
1, 150485, Note_on_c, 0, 85, 76
1, 150492, Note_on_c, 0, 45, 38
1, 150499, Control_c, 0, 64, 63
1, 150501, Note_on_c, 0, 52, 42
1, 150508, Note_on_c, 0, 49, 29
1, 150514, Control_c, 0, 64, 0
1, 150526, Note_off_c, 0, 79, 62
1, 150541, Note_off_c, 0, 52, 49
1, 150543, Control_c, 0, 67, 9
1, 150558, Control_c, 0, 67, 12
1, 150559, Note_off_c, 0, 49, 45
1, 150573, Control_c, 0, 64, 44
1, 150573, Control_c, 0, 67, 15
1, 150588, Control_c, 0, 64, 68
1, 150588, Control_c, 0, 67, 19
1, 150603, Control_c, 0, 64, 74
1, 150603, Control_c, 0, 67, 24
1, 150617, Control_c, 0, 64, 80
1, 150617, Control_c, 0, 67, 29
1, 150632, Control_c, 0, 64, 83
1, 150632, Control_c, 0, 67, 33
1, 150642, Note_off_c, 0, 45, 57
1, 150647, Control_c, 0, 64, 84
1, 150647, Control_c, 0, 67, 36
1, 150660, Note_on_c, 0, 79, 63
1, 150662, Control_c, 0, 64, 86
1, 150662, Control_c, 0, 67, 38
1, 150676, Note_on_c, 0, 49, 34
1, 150676, Control_c, 0, 64, 88
1, 150676, Control_c, 0, 67, 41
1, 150689, Note_on_c, 0, 73, 39
1, 150691, Control_c, 0, 64, 90
1, 150691, Control_c, 0, 67, 44
1, 150700, Note_off_c, 0, 87, 17
1, 150706, Control_c, 0, 64, 91
1, 150706, Control_c, 0, 67, 47
1, 150713, Note_off_c, 0, 49, 45
1, 150714, Note_off_c, 0, 85, 53
1, 150729, Control_c, 0, 64, 92
1, 150729, Control_c, 0, 67, 51
1, 150737, Poly_aftertouch_c, 0, 52, 0
1, 150744, Control_c, 0, 64, 93
1, 150744, Control_c, 0, 67, 54
1, 150756, Note_off_c, 0, 79, 61
1, 150759, Control_c, 0, 64, 95
1, 150759, Control_c, 0, 67, 57
1, 150774, Control_c, 0, 64, 97
1, 150774, Control_c, 0, 67, 61
1, 150789, Control_c, 0, 67, 67
1, 150803, Control_c, 0, 67, 73
1, 150818, Control_c, 0, 64, 93
1, 150818, Control_c, 0, 67, 82
1, 150833, Control_c, 0, 64, 81
1, 150833, Control_c, 0, 67, 91
1, 150848, Control_c, 0, 64, 62
1, 150848, Control_c, 0, 67, 101
1, 150851, Note_on_c, 0, 85, 75
1, 150863, Control_c, 0, 64, 0
1, 150863, Control_c, 0, 67, 112
1, 150869, Note_on_c, 0, 32, 48
1, 150878, Control_c, 0, 67, 123
1, 150893, Control_c, 0, 67, 127
1, 150902, Note_off_c, 0, 32, 61
1, 150908, Control_c, 0, 64, 66
1, 150913, Note_off_c, 0, 73, 39
1, 150923, Control_c, 0, 64, 75
1, 150937, Control_c, 0, 64, 82
1, 150952, Control_c, 0, 64, 84
1, 150967, Control_c, 0, 64, 84
1, 151054, Note_on_c, 0, 80, 63
1, 151065, Note_on_c, 0, 76, 48
1, 151067, Note_on_c, 0, 73, 42
1, 151071, Note_on_c, 0, 44, 43
1, 151075, Note_on_c, 0, 49, 42
1, 151086, Note_on_c, 0, 52, 33
1, 151095, Note_off_c, 0, 76, 51
1, 151105, Note_off_c, 0, 73, 47
1, 151115, Note_off_c, 0, 44, 46
1, 151119, Note_off_c, 0, 49, 44
1, 151127, Note_off_c, 0, 52, 49
1, 151131, Note_off_c, 0, 80, 62
1, 151233, Note_on_c, 0, 73, 36
1, 151235, Note_on_c, 0, 80, 60
1, 151242, Note_on_c, 0, 44, 38
1, 151244, Note_on_c, 0, 49, 41
1, 151251, Note_on_c, 0, 52, 34
1, 151261, Note_on_c, 0, 76, 12
1, 151274, Note_off_c, 0, 73, 45
1, 151284, Note_off_c, 0, 52, 52
1, 151289, Note_off_c, 0, 49, 44
1, 151295, Note_off_c, 0, 44, 45
1, 151295, Note_off_c, 0, 80, 56
1, 151303, Note_off_c, 0, 76, 43
1, 151403, Note_on_c, 0, 76, 51
1, 151403, Note_on_c, 0, 80, 63
1, 151409, Note_on_c, 0, 73, 31
1, 151412, Note_on_c, 0, 49, 22
1, 151414, Note_on_c, 0, 52, 27
1, 151415, Note_on_c, 0, 44, 25
1, 151430, Note_off_c, 0, 76, 55
1, 151440, Note_off_c, 0, 73, 44
1, 151450, Note_off_c, 0, 52, 52
1, 151453, Note_off_c, 0, 80, 57
1, 151456, Note_off_c, 0, 44, 50
1, 151456, Note_off_c, 0, 49, 46
1, 151566, Note_on_c, 0, 49, 30
1, 151566, Note_on_c, 0, 73, 31
1, 151570, Note_on_c, 0, 76, 38
1, 151571, Note_on_c, 0, 80, 61
1, 151583, Note_on_c, 0, 52, 35
1, 151599, Note_on_c, 0, 44, 20
1, 151606, Note_off_c, 0, 73, 46
1, 151606, Note_off_c, 0, 76, 50
1, 151607, Note_off_c, 0, 49, 45
1, 151617, Note_off_c, 0, 52, 43
1, 151617, Note_off_c, 0, 80, 58
1, 151635, Note_off_c, 0, 44, 53
1, 151731, Note_on_c, 0, 80, 61
1, 151734, Note_on_c, 0, 73, 40
1, 151739, Note_off_c, 0, 85, 47
1, 151749, Note_on_c, 0, 76, 27
1, 151776, Note_off_c, 0, 80, 61
1, 151783, Note_off_c, 0, 76, 50
1, 151849, Control_c, 0, 64, 84
1, 151851, Note_off_c, 0, 73, 36
1, 151864, Control_c, 0, 64, 76
1, 151878, Control_c, 0, 64, 59
1, 151885, Note_on_c, 0, 80, 68
1, 151893, Control_c, 0, 64, 0
1, 151900, Note_on_c, 0, 32, 40
1, 151933, Note_off_c, 0, 32, 50
1, 151937, Control_c, 0, 64, 40
1, 151952, Control_c, 0, 64, 66
1, 151967, Control_c, 0, 64, 71
1, 151982, Control_c, 0, 64, 75
1, 151996, Control_c, 0, 64, 78
1, 152011, Control_c, 0, 64, 80
1, 152026, Control_c, 0, 64, 81
1, 152055, Control_c, 0, 64, 81
1, 152070, Control_c, 0, 64, 82
1, 152085, Control_c, 0, 64, 83
1, 152090, Note_on_c, 0, 51, 41
1, 152100, Control_c, 0, 64, 84
1, 152102, Note_on_c, 0, 72, 37
1, 152106, Note_on_c, 0, 75, 33
1, 152115, Control_c, 0, 64, 85
1, 152125, Note_on_c, 0, 44, 19
1, 152130, Control_c, 0, 64, 86
1, 152142, Note_off_c, 0, 51, 41
1, 152145, Control_c, 0, 64, 87
1, 152148, Note_off_c, 0, 72, 47
1, 152155, Note_off_c, 0, 75, 45
1, 152156, Poly_aftertouch_c, 0, 48, 127
1, 152160, Control_c, 0, 64, 87
1, 152168, Note_off_c, 0, 44, 52
1, 152175, Control_c, 0, 64, 88
1, 152205, Control_c, 0, 64, 88
1, 152211, Poly_aftertouch_c, 0, 48, 0
1, 152257, Control_c, 0, 64, 89
1, 152287, Note_on_c, 0, 72, 43
1, 152291, Note_on_c, 0, 44, 39
1, 152292, Note_on_c, 0, 75, 43
1, 152294, Note_on_c, 0, 48, 27
1, 152301, Note_on_c, 0, 51, 30
1, 152301, Control_c, 0, 64, 89
1, 152348, Note_off_c, 0, 72, 45
1, 152351, Note_off_c, 0, 51, 46
1, 152351, Note_off_c, 0, 75, 42
1, 152386, Note_off_c, 0, 44, 36
1, 152432, Note_off_c, 0, 48, 0
1, 152450, Control_c, 0, 64, 90
1, 152470, Poly_aftertouch_c, 0, 48, 127
1, 152480, Note_on_c, 0, 51, 32
1, 152484, Note_on_c, 0, 44, 14
1, 152485, Note_on_c, 0, 75, 35
1, 152496, Note_on_c, 0, 72, 26
1, 152521, Note_off_c, 0, 51, 47
1, 152535, Note_off_c, 0, 72, 48
1, 152543, Note_off_c, 0, 75, 43
1, 152574, Note_off_c, 0, 44, 36
1, 152658, Poly_aftertouch_c, 0, 48, 0
1, 152683, Note_on_c, 0, 48, 7
1, 152693, Note_on_c, 0, 75, 38
1, 152706, Note_on_c, 0, 72, 21
1, 152719, Note_on_c, 0, 44, 3
1, 152738, Poly_aftertouch_c, 0, 51, 127
1, 152768, Note_off_c, 0, 72, 43
1, 152771, Poly_aftertouch_c, 0, 51, 0
1, 152774, Note_off_c, 0, 44, 41
1, 152801, Note_off_c, 0, 75, 37
1, 152821, Note_off_c, 0, 48, 35
1, 152954, Note_on_c, 0, 75, 37
1, 152968, Note_on_c, 0, 48, 17
1, 153003, Poly_aftertouch_c, 0, 72, 127
1, 153015, Poly_aftertouch_c, 0, 44, 127
1, 153015, Poly_aftertouch_c, 0, 51, 127
1, 153025, Note_off_c, 0, 80, 40
1, 153042, Poly_aftertouch_c, 0, 72, 0
1, 153045, Note_off_c, 0, 48, 44
1, 153056, Poly_aftertouch_c, 0, 51, 0
1, 153065, Poly_aftertouch_c, 0, 44, 0
1, 153086, Note_off_c, 0, 75, 37
1, 153517, Note_on_c, 0, 37, 32
1, 153524, Control_c, 0, 64, 89
1, 153539, Control_c, 0, 64, 88
1, 153554, Control_c, 0, 64, 83
1, 153565, Note_on_c, 0, 68, 58
1, 153568, Control_c, 0, 64, 73
1, 153583, Control_c, 0, 64, 55
1, 153598, Control_c, 0, 64, 0
1, 153642, Control_c, 0, 64, 62
1, 153657, Control_c, 0, 64, 67
1, 153671, Note_off_c, 0, 37, 58
1, 153671, Control_c, 0, 64, 70
1, 153686, Control_c, 0, 64, 74
1, 153701, Control_c, 0, 64, 78
1, 153723, Control_c, 0, 64, 81
1, 153738, Control_c, 0, 64, 82
1, 153753, Control_c, 0, 64, 84
1, 153768, Control_c, 0, 64, 84
1, 153782, Control_c, 0, 64, 85
1, 153797, Control_c, 0, 64, 86
1, 153812, Control_c, 0, 64, 86
1, 153827, Control_c, 0, 64, 87
1, 153895, Note_on_c, 0, 65, 45
1, 153903, Note_on_c, 0, 56, 38
1, 153918, Note_on_c, 0, 44, 35
1, 153930, Control_c, 0, 64, 87
1, 153958, Note_off_c, 0, 56, 43
1, 153969, Note_off_c, 0, 44, 44
1, 153982, Note_off_c, 0, 65, 53
1, 154009, Poly_aftertouch_c, 0, 53, 0
1, 154107, Note_on_c, 0, 56, 25
1, 154117, Note_on_c, 0, 65, 43
1, 154152, Note_off_c, 0, 56, 45
1, 154162, Note_on_c, 0, 49, 3
1, 154172, Poly_aftertouch_c, 0, 44, 127
1, 154181, Note_off_c, 0, 65, 43
1, 154249, Note_off_c, 0, 49, 0
1, 154255, Poly_aftertouch_c, 0, 44, 0
1, 154269, Note_on_c, 0, 49, 18
1, 154277, Note_on_c, 0, 44, 6
1, 154282, Note_on_c, 0, 65, 40
1, 154291, Note_on_c, 0, 56, 24
1, 154291, Note_on_c, 0, 53, 10
1, 154330, Note_off_c, 0, 56, 48
1, 154352, Note_off_c, 0, 53, 45
1, 154362, Note_off_c, 0, 65, 52
1, 154401, Note_off_c, 0, 44, 0
1, 154438, Poly_aftertouch_c, 0, 44, 127
1, 154452, Note_on_c, 0, 65, 44
1, 154452, Note_on_c, 0, 56, 29
1, 154473, Note_on_c, 0, 53, 23
1, 154494, Note_off_c, 0, 56, 51
1, 154518, Note_off_c, 0, 53, 49
1, 154522, Note_off_c, 0, 65, 42
1, 154566, Poly_aftertouch_c, 0, 44, 0
1, 154580, Note_off_c, 0, 49, 0
1, 154608, Note_on_c, 0, 65, 34
1, 154616, Poly_aftertouch_c, 0, 49, 127
1, 154622, Note_on_c, 0, 44, 11
1, 154624, Note_on_c, 0, 56, 21
1, 154631, Note_off_c, 0, 68, 38
1, 154673, Poly_aftertouch_c, 0, 53, 127
1, 154697, Note_off_c, 0, 44, 40
1, 154714, Poly_aftertouch_c, 0, 53, 0
1, 154718, Note_off_c, 0, 56, 30
1, 154754, Control_c, 0, 64, 87
1, 154762, Poly_aftertouch_c, 0, 49, 0
1, 154769, Control_c, 0, 64, 84
1, 154775, Note_on_c, 0, 68, 69
1, 154784, Control_c, 0, 64, 78
1, 154799, Note_on_c, 0, 44, 33
1, 154799, Control_c, 0, 64, 69
1, 154800, Poly_aftertouch_c, 0, 49, 127
1, 154810, Note_off_c, 0, 65, 45
1, 154813, Control_c, 0, 64, 64
1, 154828, Control_c, 0, 64, 66
1, 154843, Control_c, 0, 64, 69
1, 154858, Control_c, 0, 64, 73
1, 154872, Note_off_c, 0, 44, 50
1, 154873, Control_c, 0, 64, 77
1, 154888, Control_c, 0, 64, 79
1, 154902, Poly_aftertouch_c, 0, 53, 0
1, 154902, Control_c, 0, 64, 79
1, 154913, Poly_aftertouch_c, 0, 49, 0
1, 154917, Control_c, 0, 64, 80
1, 154938, Note_on_c, 0, 65, 52
1, 154942, Note_on_c, 0, 56, 37
1, 154947, Note_on_c, 0, 44, 15
1, 154947, Control_c, 0, 64, 80
1, 154950, Poly_aftertouch_c, 0, 49, 127
1, 154962, Control_c, 0, 64, 81
1, 154964, Note_off_c, 0, 68, 59
1, 154968, Note_on_c, 0, 53, 6
1, 154977, Control_c, 0, 64, 81
1, 154992, Control_c, 0, 64, 82
1, 155007, Control_c, 0, 64, 83
1, 155018, Note_off_c, 0, 53, 51
1, 155021, Control_c, 0, 64, 84
1, 155023, Note_off_c, 0, 56, 35
1, 155036, Control_c, 0, 64, 84
1, 155080, Control_c, 0, 64, 84
1, 155094, Note_on_c, 0, 70, 76
1, 155095, Control_c, 0, 64, 80
1, 155099, Note_off_c, 0, 44, 0
1, 155110, Poly_aftertouch_c, 0, 49, 0
1, 155110, Control_c, 0, 64, 72
1, 155120, Note_on_c, 0, 44, 9
1, 155125, Control_c, 0, 64, 63
1, 155129, Note_on_c, 0, 53, 44
1, 155130, Note_on_c, 0, 49, 15
1, 155138, Note_off_c, 0, 65, 56
1, 155139, Control_c, 0, 64, 53
1, 155154, Control_c, 0, 64, 63
1, 155168, Control_c, 0, 64, 69
1, 155183, Control_c, 0, 64, 75
1, 155188, Note_off_c, 0, 53, 49
1, 155198, Control_c, 0, 64, 79
1, 155220, Control_c, 0, 64, 80
1, 155235, Control_c, 0, 64, 81
1, 155250, Control_c, 0, 64, 81
1, 155264, Control_c, 0, 64, 82
1, 155269, Note_on_c, 0, 58, 46
1, 155275, Note_on_c, 0, 65, 61
1, 155277, Note_off_c, 0, 70, 57
1, 155279, Control_c, 0, 64, 82
1, 155280, Note_off_c, 0, 44, 0
1, 155284, Note_off_c, 0, 49, 0
1, 155294, Control_c, 0, 64, 83
1, 155299, Note_on_c, 0, 44, 14
1, 155301, Note_on_c, 0, 49, 23
1, 155309, Control_c, 0, 64, 84
1, 155319, Note_on_c, 0, 53, 44
1, 155324, Control_c, 0, 64, 86
1, 155338, Control_c, 0, 64, 87
1, 155350, Note_off_c, 0, 58, 55
1, 155353, Control_c, 0, 64, 87
1, 155358, Note_off_c, 0, 53, 54
1, 155378, Note_off_c, 0, 44, 53
1, 155398, Control_c, 0, 64, 86
1, 155407, Note_on_c, 0, 68, 80
1, 155409, Note_off_c, 0, 49, 34
1, 155413, Control_c, 0, 64, 81
1, 155427, Control_c, 0, 64, 72
1, 155442, Control_c, 0, 64, 63
1, 155452, Note_off_c, 0, 65, 58
1, 155457, Control_c, 0, 64, 61
1, 155467, Note_on_c, 0, 44, 30
1, 155468, Note_on_c, 0, 49, 18
1, 155472, Control_c, 0, 64, 67
1, 155472, Note_on_c, 0, 53, 42
1, 155486, Control_c, 0, 64, 73
1, 155501, Note_off_c, 0, 53, 59
1, 155501, Control_c, 0, 64, 79
1, 155516, Control_c, 0, 64, 82
1, 155531, Control_c, 0, 64, 83
1, 155547, Control_c, 0, 64, 83
1, 155573, Note_on_c, 0, 56, 54
1, 155575, Note_off_c, 0, 49, 0
1, 155576, Note_on_c, 0, 65, 66
1, 155589, Note_on_c, 0, 49, 34
1, 155591, Control_c, 0, 64, 84
1, 155606, Control_c, 0, 64, 84
1, 155608, Note_on_c, 0, 53, 33
1, 155618, Note_off_c, 0, 68, 55
1, 155620, Note_off_c, 0, 49, 56
1, 155636, Control_c, 0, 64, 85
1, 155644, Note_off_c, 0, 56, 46
1, 155647, Note_off_c, 0, 44, 20
1, 155647, Note_off_c, 0, 53, 46
1, 155650, Control_c, 0, 64, 86
1, 155665, Control_c, 0, 64, 87
1, 155697, Note_off_c, 0, 65, 62
1, 155710, Control_c, 0, 64, 85
1, 155725, Control_c, 0, 64, 77
1, 155740, Control_c, 0, 64, 61
1, 155743, Note_on_c, 0, 70, 75
1, 155755, Control_c, 0, 64, 0
1, 155760, Note_on_c, 0, 36, 43
1, 155791, Note_off_c, 0, 36, 50
1, 155814, Control_c, 0, 64, 56
1, 155829, Control_c, 0, 64, 67
1, 155843, Control_c, 0, 64, 71
1, 155858, Control_c, 0, 64, 73
1, 155873, Control_c, 0, 64, 75
1, 155887, Control_c, 0, 64, 77
1, 155902, Control_c, 0, 64, 79
1, 155918, Control_c, 0, 64, 80
1, 155933, Control_c, 0, 64, 81
1, 155946, Note_on_c, 0, 66, 49
1, 155948, Control_c, 0, 64, 81
1, 155951, Note_on_c, 0, 56, 41
1, 155957, Note_on_c, 0, 51, 36
1, 155969, Note_on_c, 0, 44, 37
1, 155972, Note_on_c, 0, 54, 19
1, 155989, Note_off_c, 0, 56, 52
1, 155999, Note_off_c, 0, 66, 45
1, 156008, Note_off_c, 0, 51, 45
1, 156011, Note_off_c, 0, 44, 47
1, 156019, Note_off_c, 0, 54, 47
1, 156104, Note_on_c, 0, 56, 38
1, 156106, Note_on_c, 0, 66, 57
1, 156115, Note_on_c, 0, 44, 32
1, 156118, Note_on_c, 0, 51, 26
1, 156133, Control_c, 0, 64, 82
1, 156141, Note_off_c, 0, 56, 49
1, 156151, Note_off_c, 0, 66, 46
1, 156152, Note_on_c, 0, 54, 9
1, 156171, Note_off_c, 0, 51, 41
1, 156195, Note_off_c, 0, 54, 41
1, 156235, Note_off_c, 0, 44, 0
1, 156255, Note_on_c, 0, 44, 15
1, 156260, Note_on_c, 0, 51, 37
1, 156262, Note_on_c, 0, 66, 53
1, 156265, Note_on_c, 0, 56, 35
1, 156276, Note_on_c, 0, 54, 32
1, 156287, Note_off_c, 0, 66, 56
1, 156299, Note_off_c, 0, 56, 49
1, 156321, Note_off_c, 0, 54, 44
1, 156328, Note_off_c, 0, 51, 51
1, 156360, Note_off_c, 0, 44, 33
1, 156411, Note_on_c, 0, 66, 44
1, 156414, Note_on_c, 0, 56, 37
1, 156418, Note_on_c, 0, 51, 27
1, 156422, Note_on_c, 0, 44, 18
1, 156434, Note_on_c, 0, 54, 38
1, 156444, Note_off_c, 0, 56, 53
1, 156458, Note_off_c, 0, 66, 44
1, 156467, Note_off_c, 0, 54, 50
1, 156480, Note_off_c, 0, 51, 53
1, 156492, Note_off_c, 0, 44, 39
1, 156533, Note_off_c, 0, 70, 52
1, 156567, Note_on_c, 0, 44, 20
1, 156569, Note_on_c, 0, 66, 53
1, 156583, Note_on_c, 0, 51, 30
1, 156604, Note_on_c, 0, 54, 17
1, 156634, Poly_aftertouch_c, 0, 56, 0
1, 156643, Note_off_c, 0, 66, 0
1, 156647, Note_off_c, 0, 54, 46
1, 156653, Note_off_c, 0, 44, 36
1, 156660, Note_off_c, 0, 51, 35
1, 156667, Control_c, 0, 64, 81
1, 156680, Poly_aftertouch_c, 0, 66, 127
1, 156682, Control_c, 0, 64, 77
1, 156697, Control_c, 0, 64, 69
1, 156718, Control_c, 0, 64, 0
1, 156721, Note_on_c, 0, 68, 65
1, 156728, Note_on_c, 0, 44, 31
1, 156736, Note_on_c, 0, 51, 19
1, 156746, Poly_aftertouch_c, 0, 66, 0
1, 156759, Note_on_c, 0, 54, 35
1, 156799, Note_off_c, 0, 54, 46
1, 156807, Control_c, 0, 64, 55
1, 156822, Control_c, 0, 64, 63
1, 156823, Note_off_c, 0, 51, 39
1, 156837, Control_c, 0, 64, 65
1, 156852, Control_c, 0, 64, 67
1, 156863, Note_off_c, 0, 44, 0
1, 156867, Control_c, 0, 64, 68
1, 156882, Control_c, 0, 64, 70
1, 156882, Note_on_c, 0, 66, 41
1, 156888, Note_on_c, 0, 44, 5
1, 156888, Note_on_c, 0, 56, 43
1, 156896, Control_c, 0, 64, 72
1, 156899, Note_on_c, 0, 51, 29
1, 156911, Control_c, 0, 64, 74
1, 156926, Control_c, 0, 64, 76
1, 156929, Note_on_c, 0, 54, 12
1, 156932, Note_off_c, 0, 56, 44
1, 156941, Control_c, 0, 64, 77
1, 156953, Note_off_c, 0, 66, 41
1, 156956, Control_c, 0, 64, 77
1, 156971, Control_c, 0, 64, 78
1, 156974, Note_off_c, 0, 54, 37
1, 156985, Control_c, 0, 64, 78
1, 156998, Note_off_c, 0, 44, 0
1, 157015, Control_c, 0, 64, 79
1, 157026, Note_off_c, 0, 51, 0
1, 157035, Poly_aftertouch_c, 0, 44, 127
1, 157044, Note_on_c, 0, 51, 10
1, 157059, Control_c, 0, 64, 79
1, 157063, Note_on_c, 0, 56, 31
1, 157069, Note_on_c, 0, 54, 28
1, 157074, Control_c, 0, 64, 80
1, 157078, Note_on_c, 0, 66, 42
1, 157089, Control_c, 0, 64, 80
1, 157096, Note_off_c, 0, 56, 44
1, 157105, Note_off_c, 0, 54, 43
1, 157108, Note_off_c, 0, 66, 54
1, 157111, Note_off_c, 0, 51, 42
1, 157163, Poly_aftertouch_c, 0, 44, 0
1, 157201, Poly_aftertouch_c, 0, 44, 127
1, 157208, Note_on_c, 0, 66, 51
1, 157209, Note_on_c, 0, 56, 37
1, 157210, Note_on_c, 0, 51, 32
1, 157219, Note_on_c, 0, 54, 28
1, 157243, Note_off_c, 0, 56, 51
1, 157254, Note_off_c, 0, 66, 44
1, 157255, Note_off_c, 0, 54, 45
1, 157262, Note_off_c, 0, 51, 42
1, 157332, Poly_aftertouch_c, 0, 44, 0
1, 157350, Note_on_c, 0, 44, 17
1, 157361, Note_on_c, 0, 54, 43
1, 157369, Note_on_c, 0, 51, 37
1, 157372, Note_on_c, 0, 56, 27
1, 157375, Note_on_c, 0, 66, 47
1, 157392, Note_off_c, 0, 54, 51
1, 157406, Note_off_c, 0, 56, 49
1, 157409, Note_off_c, 0, 66, 49
1, 157412, Note_off_c, 0, 51, 46
1, 157489, Note_off_c, 0, 44, 0
1, 157526, Poly_aftertouch_c, 0, 44, 127
1, 157528, Note_on_c, 0, 66, 47
1, 157561, Poly_aftertouch_c, 0, 44, 0
1, 157564, Note_off_c, 0, 68, 48
1, 157576, Poly_aftertouch_c, 0, 56, 127
1, 157578, Poly_aftertouch_c, 0, 54, 0
1, 157660, Control_c, 0, 64, 78
1, 157663, Note_off_c, 0, 66, 45
1, 157674, Control_c, 0, 64, 70
1, 157689, Control_c, 0, 64, 0
1, 157694, Note_on_c, 0, 68, 67
1, 157702, Poly_aftertouch_c, 0, 56, 0
1, 157716, Note_on_c, 0, 37, 30
1, 157748, Note_off_c, 0, 37, 57
1, 157764, Control_c, 0, 64, 64
1, 157779, Control_c, 0, 64, 68
1, 157794, Control_c, 0, 64, 70
1, 157809, Control_c, 0, 64, 72
1, 157823, Control_c, 0, 64, 75
1, 157838, Control_c, 0, 64, 79
1, 157853, Control_c, 0, 64, 82
1, 157867, Control_c, 0, 64, 83
1, 157868, Note_on_c, 0, 65, 52
1, 157882, Control_c, 0, 64, 83
1, 157884, Note_on_c, 0, 53, 44
1, 157886, Note_on_c, 0, 49, 41
1, 157890, Note_on_c, 0, 56, 13
1, 157897, Control_c, 0, 64, 84
1, 157902, Note_on_c, 0, 44, 31
1, 157923, Note_off_c, 0, 53, 49
1, 157923, Note_off_c, 0, 65, 56
1, 157934, Note_off_c, 0, 49, 44
1, 157934, Note_off_c, 0, 56, 39
1, 157940, Note_off_c, 0, 44, 51
1, 158043, Note_on_c, 0, 49, 31
1, 158044, Note_on_c, 0, 65, 45
1, 158047, Note_on_c, 0, 56, 29
1, 158047, Note_on_c, 0, 53, 32
1, 158048, Note_on_c, 0, 44, 41
1, 158080, Note_off_c, 0, 53, 54
1, 158082, Note_off_c, 0, 56, 50
1, 158082, Note_off_c, 0, 65, 48
1, 158084, Note_off_c, 0, 44, 50
1, 158088, Note_off_c, 0, 49, 44
1, 158186, Note_on_c, 0, 56, 46
1, 158190, Note_on_c, 0, 44, 43
1, 158191, Note_on_c, 0, 65, 54
1, 158193, Note_on_c, 0, 49, 27
1, 158201, Note_on_c, 0, 53, 28
1, 158226, Note_off_c, 0, 56, 52
1, 158241, Note_off_c, 0, 53, 52
1, 158244, Note_off_c, 0, 44, 46
1, 158244, Note_off_c, 0, 49, 45
1, 158248, Note_off_c, 0, 65, 60
1, 158344, Note_on_c, 0, 53, 43
1, 158349, Note_on_c, 0, 65, 66
1, 158360, Note_on_c, 0, 49, 38
1, 158363, Note_on_c, 0, 44, 37
1, 158365, Note_on_c, 0, 56, 29
1, 158376, Note_off_c, 0, 53, 53
1, 158382, Note_off_c, 0, 65, 62
1, 158397, Note_off_c, 0, 44, 51
1, 158397, Note_off_c, 0, 56, 43
1, 158405, Note_off_c, 0, 49, 46
1, 158426, Note_off_c, 0, 68, 53
1, 158438, Control_c, 0, 64, 84
1, 158485, Note_on_c, 0, 65, 55
1, 158492, Note_on_c, 0, 56, 30
1, 158506, Note_on_c, 0, 53, 19
1, 158506, Note_on_c, 0, 44, 40
1, 158510, Note_off_c, 0, 65, 61
1, 158512, Control_c, 0, 64, 85
1, 158525, Note_off_c, 0, 56, 46
1, 158530, Note_on_c, 0, 49, 28
1, 158540, Note_off_c, 0, 53, 54
1, 158542, Control_c, 0, 64, 85
1, 158554, Note_off_c, 0, 44, 43
1, 158557, Control_c, 0, 64, 86
1, 158568, Note_off_c, 0, 49, 48
1, 158572, Control_c, 0, 64, 86
1, 158631, Control_c, 0, 64, 86
1, 158646, Control_c, 0, 64, 82
1, 158661, Control_c, 0, 64, 73
1, 158676, Control_c, 0, 64, 61
1, 158677, Note_on_c, 0, 77, 85
1, 158683, Note_on_c, 0, 49, 49
1, 158688, Note_on_c, 0, 44, 48
1, 158690, Control_c, 0, 64, 0
1, 158699, Note_on_c, 0, 53, 40
1, 158705, Control_c, 0, 64, 35
1, 158720, Control_c, 0, 64, 64
1, 158736, Control_c, 0, 64, 69
1, 158748, Note_off_c, 0, 53, 44
1, 158751, Control_c, 0, 64, 73
1, 158765, Control_c, 0, 64, 77
1, 158769, Note_off_c, 0, 49, 47
1, 158775, Note_off_c, 0, 44, 53
1, 158780, Control_c, 0, 64, 79
1, 158795, Control_c, 0, 64, 81
1, 158810, Control_c, 0, 64, 83
1, 158840, Note_on_c, 0, 68, 65
1, 158854, Control_c, 0, 64, 83
1, 158854, Control_c, 0, 67, 116
1, 158862, Note_on_c, 0, 65, 61
1, 158862, Note_off_c, 0, 77, 47
1, 158864, Note_on_c, 0, 44, 35
1, 158864, Note_on_c, 0, 49, 31
1, 158868, Note_on_c, 0, 53, 46
1, 158869, Control_c, 0, 67, 107
1, 158884, Control_c, 0, 67, 98
1, 158899, Control_c, 0, 64, 84
1, 158899, Control_c, 0, 67, 91
1, 158906, Note_off_c, 0, 53, 49
1, 158913, Control_c, 0, 64, 85
1, 158913, Control_c, 0, 67, 83
1, 158915, Note_off_c, 0, 44, 57
1, 158919, Note_off_c, 0, 65, 59
1, 158920, Note_off_c, 0, 49, 45
1, 158928, Control_c, 0, 64, 86
1, 158928, Control_c, 0, 67, 75
1, 158941, Note_off_c, 0, 68, 64
1, 158943, Control_c, 0, 64, 87
1, 158943, Control_c, 0, 67, 69
1, 158965, Control_c, 0, 67, 65
1, 158980, Control_c, 0, 67, 62
1, 158995, Control_c, 0, 67, 60
1, 159010, Note_on_c, 0, 75, 81
1, 159010, Control_c, 0, 64, 84
1, 159010, Control_c, 0, 67, 57
1, 159025, Control_c, 0, 64, 75
1, 159025, Control_c, 0, 67, 51
1, 159028, Note_on_c, 0, 53, 48
1, 159036, Note_on_c, 0, 44, 52
1, 159040, Control_c, 0, 64, 62
1, 159040, Control_c, 0, 67, 46
1, 159047, Note_on_c, 0, 49, 39
1, 159055, Control_c, 0, 64, 0
1, 159055, Control_c, 0, 67, 41
1, 159056, Note_off_c, 0, 53, 54
1, 159069, Control_c, 0, 67, 36
1, 159082, Note_off_c, 0, 49, 50
1, 159084, Control_c, 0, 67, 32
1, 159087, Note_off_c, 0, 44, 58
1, 159099, Control_c, 0, 64, 64
1, 159099, Control_c, 0, 67, 27
1, 159113, Control_c, 0, 64, 68
1, 159113, Control_c, 0, 67, 21
1, 159128, Control_c, 0, 64, 70
1, 159128, Control_c, 0, 67, 15
1, 159143, Control_c, 0, 64, 73
1, 159143, Control_c, 0, 67, 9
1, 159158, Control_c, 0, 64, 76
1, 159158, Control_c, 0, 67, 0
1, 159173, Control_c, 0, 64, 79
1, 159179, Note_on_c, 0, 53, 44
1, 159181, Note_on_c, 0, 49, 52
1, 159181, Note_on_c, 0, 68, 63
1, 159185, Note_on_c, 0, 44, 39
1, 159186, Note_on_c, 0, 63, 49
1, 159187, Control_c, 0, 64, 80
1, 159202, Control_c, 0, 64, 81
1, 159206, Note_off_c, 0, 75, 59
1, 159217, Control_c, 0, 64, 82
1, 159228, Note_off_c, 0, 53, 49
1, 159232, Note_off_c, 0, 44, 58
1, 159232, Control_c, 0, 64, 82
1, 159233, Note_off_c, 0, 49, 56
1, 159247, Control_c, 0, 64, 83
1, 159261, Control_c, 0, 64, 85
1, 159266, Note_off_c, 0, 68, 61
1, 159275, Note_off_c, 0, 63, 53
1, 159276, Control_c, 0, 64, 86
1, 159291, Control_c, 0, 64, 87
1, 159317, Note_on_c, 0, 73, 82
1, 159335, Control_c, 0, 64, 84
1, 159343, Note_on_c, 0, 49, 49
1, 159348, Note_on_c, 0, 44, 46
1, 159350, Control_c, 0, 64, 76
1, 159356, Note_on_c, 0, 53, 30
1, 159365, Control_c, 0, 64, 62
1, 159374, Note_off_c, 0, 49, 55
1, 159380, Control_c, 0, 64, 0
1, 159388, Note_off_c, 0, 44, 50
1, 159396, Note_off_c, 0, 53, 43
1, 159424, Control_c, 0, 64, 65
1, 159439, Control_c, 0, 64, 69
1, 159454, Control_c, 0, 64, 71
1, 159469, Control_c, 0, 64, 74
1, 159482, Note_on_c, 0, 68, 63
1, 159484, Control_c, 0, 64, 78
1, 159484, Note_on_c, 0, 61, 48
1, 159499, Note_on_c, 0, 49, 30
1, 159499, Control_c, 0, 64, 79
1, 159513, Control_c, 0, 64, 80
1, 159529, Control_c, 0, 64, 81
1, 159533, Note_off_c, 0, 73, 55
1, 159539, Note_off_c, 0, 49, 49
1, 159543, Poly_aftertouch_c, 0, 53, 127
1, 159543, Control_c, 0, 64, 82
1, 159558, Control_c, 0, 64, 83
1, 159567, Poly_aftertouch_c, 0, 53, 0
1, 159573, Control_c, 0, 64, 84
1, 159618, Control_c, 0, 67, 8
1, 159633, Control_c, 0, 64, 81
1, 159633, Control_c, 0, 67, 10
1, 159636, Note_on_c, 0, 39, 45
1, 159648, Control_c, 0, 64, 73
1, 159648, Control_c, 0, 67, 14
1, 159662, Note_off_c, 0, 61, 54
1, 159663, Control_c, 0, 64, 0
1, 159663, Control_c, 0, 67, 19
1, 159677, Note_on_c, 0, 73, 74
1, 159677, Control_c, 0, 67, 27
1, 159692, Control_c, 0, 67, 42
1, 159714, Control_c, 0, 67, 59
1, 159729, Control_c, 0, 67, 76
1, 159743, Control_c, 0, 67, 91
1, 159749, Note_off_c, 0, 68, 38
1, 159758, Control_c, 0, 67, 104
1, 159773, Control_c, 0, 64, 60
1, 159773, Control_c, 0, 67, 117
1, 159778, Note_off_c, 0, 39, 62
1, 159788, Control_c, 0, 64, 64
1, 159788, Control_c, 0, 67, 127
1, 159803, Control_c, 0, 64, 67
1, 159818, Control_c, 0, 64, 68
1, 159833, Control_c, 0, 64, 70
1, 159848, Control_c, 0, 64, 71
1, 159862, Control_c, 0, 64, 71
1, 159877, Control_c, 0, 64, 72
1, 159892, Control_c, 0, 64, 72
1, 159901, Note_on_c, 0, 61, 42
1, 159907, Note_on_c, 0, 51, 49
1, 159907, Note_on_c, 0, 68, 30
1, 159907, Control_c, 0, 64, 73
1, 159922, Control_c, 0, 64, 74
1, 159936, Control_c, 0, 64, 75
1, 159946, Note_off_c, 0, 61, 53
1, 159951, Control_c, 0, 64, 76
1, 159955, Note_off_c, 0, 51, 55
1, 159959, Note_off_c, 0, 68, 48
1, 160038, Poly_aftertouch_c, 0, 44, 0
1, 160056, Note_on_c, 0, 44, 17
1, 160059, Note_on_c, 0, 51, 35
1, 160059, Note_on_c, 0, 61, 47
1, 160071, Note_on_c, 0, 54, 20
1, 160075, Note_on_c, 0, 68, 39
1, 160088, Note_off_c, 0, 61, 51
1, 160106, Note_off_c, 0, 68, 52
1, 160113, Note_off_c, 0, 54, 49
1, 160122, Note_off_c, 0, 51, 41
1, 160139, Note_off_c, 0, 44, 39
1, 160196, Note_on_c, 0, 44, 28
1, 160209, Note_on_c, 0, 68, 47
1, 160218, Note_on_c, 0, 51, 25
1, 160220, Note_on_c, 0, 61, 29
1, 160229, Note_on_c, 0, 54, 33
1, 160259, Note_off_c, 0, 61, 45
1, 160262, Note_off_c, 0, 68, 44
1, 160265, Note_off_c, 0, 54, 43
1, 160272, Note_off_c, 0, 51, 42
1, 160282, Note_off_c, 0, 44, 38
1, 160346, Note_on_c, 0, 44, 10
1, 160371, Note_on_c, 0, 51, 21
1, 160377, Note_on_c, 0, 68, 56
1, 160384, Note_on_c, 0, 54, 33
1, 160393, Note_on_c, 0, 61, 17
1, 160416, Note_off_c, 0, 54, 46
1, 160422, Note_off_c, 0, 68, 51
1, 160423, Note_off_c, 0, 51, 45
1, 160429, Note_off_c, 0, 61, 40
1, 160486, Note_off_c, 0, 44, 0
1, 160522, Note_on_c, 0, 68, 45
1, 160524, Poly_aftertouch_c, 0, 44, 127
1, 160547, Note_on_c, 0, 51, 18
1, 160596, Note_off_c, 0, 51, 45
1, 160611, Poly_aftertouch_c, 0, 54, 0
1, 160632, Poly_aftertouch_c, 0, 61, 0
1, 160633, Poly_aftertouch_c, 0, 44, 0
1, 160646, Note_off_c, 0, 73, 28
1, 160656, Control_c, 0, 64, 75
1, 160671, Control_c, 0, 64, 71
1, 160685, Note_on_c, 0, 44, 30
1, 160685, Control_c, 0, 64, 62
1, 160690, Note_on_c, 0, 72, 65
1, 160700, Control_c, 0, 64, 0
1, 160711, Note_off_c, 0, 68, 57
1, 160715, Note_on_c, 0, 51, 32
1, 160766, Note_off_c, 0, 51, 42
1, 160798, Poly_aftertouch_c, 0, 54, 0
1, 160807, Note_off_c, 0, 44, 0
1, 160819, Control_c, 0, 64, 39
1, 160834, Control_c, 0, 64, 60
1, 160844, Poly_aftertouch_c, 0, 44, 127
1, 160849, Control_c, 0, 64, 64
1, 160858, Note_on_c, 0, 51, 30
1, 160864, Control_c, 0, 64, 66
1, 160864, Note_on_c, 0, 54, 25
1, 160870, Note_on_c, 0, 68, 39
1, 160878, Control_c, 0, 64, 68
1, 160879, Note_on_c, 0, 60, 34
1, 160893, Control_c, 0, 64, 71
1, 160908, Control_c, 0, 64, 73
1, 160912, Note_off_c, 0, 54, 44
1, 160914, Note_off_c, 0, 51, 51
1, 160923, Control_c, 0, 64, 75
1, 160926, Note_off_c, 0, 60, 45
1, 160927, Note_off_c, 0, 68, 47
1, 160938, Control_c, 0, 64, 76
1, 160977, Poly_aftertouch_c, 0, 44, 0
1, 161012, Note_on_c, 0, 44, 3
1, 161018, Note_on_c, 0, 51, 35
1, 161028, Note_on_c, 0, 54, 34
1, 161053, Note_on_c, 0, 68, 37
1, 161056, Note_on_c, 0, 60, 22
1, 161063, Note_off_c, 0, 54, 46
1, 161064, Note_off_c, 0, 44, 52
1, 161067, Note_off_c, 0, 51, 45
1, 161080, Note_off_c, 0, 68, 56
1, 161092, Note_off_c, 0, 60, 38
1, 161177, Note_on_c, 0, 54, 29
1, 161184, Note_on_c, 0, 68, 39
1, 161186, Note_on_c, 0, 44, 27
1, 161186, Note_on_c, 0, 51, 41
1, 161222, Note_off_c, 0, 54, 48
1, 161224, Note_off_c, 0, 51, 52
1, 161232, Note_off_c, 0, 44, 46
1, 161237, Note_off_c, 0, 68, 45
1, 161341, Note_on_c, 0, 44, 15
1, 161356, Note_on_c, 0, 68, 44
1, 161392, Note_off_c, 0, 68, 49
1, 161401, Note_off_c, 0, 44, 36
1, 161418, Poly_aftertouch_c, 0, 51, 0
1, 161513, Note_on_c, 0, 68, 39
1, 161547, Note_off_c, 0, 72, 59
1, 161564, Note_on_c, 0, 60, 28
1, 161597, Control_c, 0, 67, 125
1, 161612, Control_c, 0, 67, 120
1, 161627, Control_c, 0, 67, 114
1, 161642, Control_c, 0, 67, 108
1, 161647, Note_off_c, 0, 68, 41
1, 161657, Control_c, 0, 64, 76
1, 161657, Control_c, 0, 67, 102
1, 161669, Note_on_c, 0, 40, 54
1, 161672, Control_c, 0, 64, 72
1, 161672, Control_c, 0, 67, 96
1, 161687, Control_c, 0, 64, 61
1, 161687, Control_c, 0, 67, 90
1, 161701, Control_c, 0, 64, 0
1, 161701, Control_c, 0, 67, 85
1, 161716, Control_c, 0, 67, 81
1, 161731, Control_c, 0, 67, 77
1, 161734, Note_on_c, 0, 72, 67
1, 161736, Note_off_c, 0, 60, 35
1, 161746, Control_c, 0, 67, 73
1, 161761, Control_c, 0, 67, 68
1, 161775, Control_c, 0, 67, 64
1, 161790, Control_c, 0, 64, 55
1, 161790, Control_c, 0, 67, 59
1, 161805, Control_c, 0, 64, 64
1, 161805, Control_c, 0, 67, 54
1, 161820, Control_c, 0, 64, 67
1, 161820, Control_c, 0, 67, 49
1, 161834, Control_c, 0, 64, 69
1, 161834, Control_c, 0, 67, 44
1, 161849, Control_c, 0, 64, 71
1, 161849, Control_c, 0, 67, 40
1, 161864, Control_c, 0, 64, 73
1, 161864, Control_c, 0, 67, 37
1, 161876, Note_on_c, 0, 60, 34
1, 161879, Control_c, 0, 64, 76
1, 161879, Control_c, 0, 67, 33
1, 161889, Note_on_c, 0, 69, 43
1, 161894, Control_c, 0, 64, 77
1, 161894, Control_c, 0, 67, 31
1, 161909, Control_c, 0, 64, 78
1, 161909, Control_c, 0, 67, 30
1, 161910, Note_on_c, 0, 45, 39
1, 161913, Note_on_c, 0, 52, 41
1, 161925, Control_c, 0, 64, 78
1, 161940, Control_c, 0, 64, 79
1, 161961, Note_off_c, 0, 52, 51
1, 161975, Note_off_c, 0, 45, 43
1, 161985, Note_off_c, 0, 60, 35
1, 162021, Control_c, 0, 67, 29
1, 162036, Control_c, 0, 64, 76
1, 162051, Control_c, 0, 64, 69
1, 162065, Note_on_c, 0, 73, 67
1, 162065, Control_c, 0, 64, 0
1, 162072, Note_on_c, 0, 52, 46
1, 162080, Note_off_c, 0, 72, 53
1, 162084, Note_off_c, 0, 69, 60
1, 162089, Note_on_c, 0, 45, 35
1, 162095, Control_c, 0, 67, 29
1, 162128, Note_off_c, 0, 52, 59
1, 162138, Note_off_c, 0, 45, 51
1, 162140, Control_c, 0, 64, 56
1, 162155, Control_c, 0, 64, 64
1, 162170, Control_c, 0, 64, 66
1, 162185, Control_c, 0, 64, 68
1, 162199, Control_c, 0, 64, 70
1, 162214, Control_c, 0, 64, 71
1, 162229, Control_c, 0, 64, 71
1, 162238, Note_on_c, 0, 69, 44
1, 162244, Note_on_c, 0, 61, 42
1, 162244, Control_c, 0, 64, 72
1, 162247, Note_on_c, 0, 45, 35
1, 162256, Note_on_c, 0, 52, 21
1, 162258, Control_c, 0, 64, 73
1, 162258, Control_c, 0, 67, 28
1, 162273, Control_c, 0, 64, 74
1, 162288, Control_c, 0, 64, 75
1, 162292, Note_off_c, 0, 45, 46
1, 162298, Note_off_c, 0, 52, 52
1, 162298, Note_off_c, 0, 61, 49
1, 162302, Note_off_c, 0, 69, 56
1, 162303, Control_c, 0, 64, 76
1, 162318, Control_c, 0, 64, 76
1, 162332, Control_c, 0, 64, 77
1, 162362, Control_c, 0, 67, 28
1, 162377, Control_c, 0, 64, 77
1, 162406, Control_c, 0, 64, 78
1, 162410, Note_on_c, 0, 45, 46
1, 162421, Control_c, 0, 64, 78
1, 162423, Note_on_c, 0, 69, 42
1, 162436, Control_c, 0, 64, 79
1, 162437, Note_on_c, 0, 61, 23
1, 162451, Control_c, 0, 64, 79
1, 162456, Note_off_c, 0, 45, 52
1, 162471, Note_off_c, 0, 69, 54
1, 162479, Note_off_c, 0, 61, 38
1, 162480, Control_c, 0, 64, 80
1, 162510, Control_c, 0, 64, 80
1, 162524, Control_c, 0, 67, 27
1, 162560, Note_on_c, 0, 45, 32
1, 162574, Note_on_c, 0, 69, 48
1, 162580, Poly_aftertouch_c, 0, 52, 127
1, 162584, Control_c, 0, 64, 81
1, 162593, Note_on_c, 0, 61, 10
1, 162602, Note_off_c, 0, 45, 48
1, 162613, Poly_aftertouch_c, 0, 52, 0
1, 162618, Note_off_c, 0, 69, 58
1, 162640, Note_off_c, 0, 61, 35
1, 162644, Control_c, 0, 67, 27
1, 162725, Control_c, 0, 67, 26
1, 162731, Note_on_c, 0, 69, 51
1, 162732, Note_on_c, 0, 45, 25
1, 162734, Note_on_c, 0, 52, 37
1, 162741, Control_c, 0, 67, 25
1, 162742, Note_on_c, 0, 61, 28
1, 162755, Control_c, 0, 67, 24
1, 162766, Note_off_c, 0, 52, 48
1, 162770, Control_c, 0, 67, 23
1, 162779, Note_off_c, 0, 61, 47
1, 162781, Note_off_c, 0, 45, 44
1, 162781, Note_off_c, 0, 69, 50
1, 162785, Control_c, 0, 67, 22
1, 162815, Control_c, 0, 67, 22
1, 162863, Note_off_c, 0, 40, 41
1, 162874, Control_c, 0, 67, 21
1, 162875, Note_off_c, 0, 73, 50
1, 162877, Note_on_c, 0, 69, 45
1, 162879, Note_on_c, 0, 52, 30
1, 162885, Poly_aftertouch_c, 0, 45, 127
1, 162886, Note_on_c, 0, 61, 41
1, 162950, Note_off_c, 0, 52, 34
1, 162977, Poly_aftertouch_c, 0, 45, 0
1, 162977, Control_c, 0, 64, 80
1, 162992, Control_c, 0, 64, 77
1, 163006, Note_on_c, 0, 40, 52
1, 163007, Control_c, 0, 64, 70
1, 163013, Note_on_c, 0, 73, 72
1, 163022, Control_c, 0, 64, 46
1, 163024, Note_off_c, 0, 61, 47
1, 163037, Control_c, 0, 64, 0
1, 163049, Note_off_c, 0, 69, 56
1, 163052, Control_c, 0, 64, 58
1, 163052, Control_c, 0, 67, 21
1, 163067, Control_c, 0, 64, 66
1, 163081, Control_c, 0, 64, 70
1, 163096, Control_c, 0, 64, 73
1, 163111, Control_c, 0, 64, 75
1, 163126, Control_c, 0, 64, 77
1, 163137, Note_off_c, 0, 40, 57
1, 163141, Control_c, 0, 64, 78
1, 163155, Control_c, 0, 64, 79
1, 163162, Note_on_c, 0, 69, 59
1, 163164, Note_on_c, 0, 61, 43
1, 163170, Control_c, 0, 64, 79
1, 163184, Note_on_c, 0, 52, 39
1, 163185, Control_c, 0, 64, 80
1, 163200, Control_c, 0, 64, 80
1, 163204, Note_off_c, 0, 73, 57
1, 163215, Control_c, 0, 64, 81
1, 163228, Poly_aftertouch_c, 0, 45, 127
1, 163282, Poly_aftertouch_c, 0, 45, 0
1, 163308, Note_off_c, 0, 52, 36
1, 163314, Note_on_c, 0, 73, 83
1, 163318, Control_c, 0, 67, 20
1, 163329, Note_on_c, 0, 40, 54
1, 163333, Control_c, 0, 67, 19
1, 163348, Note_off_c, 0, 61, 55
1, 163348, Control_c, 0, 67, 12
1, 163350, Note_off_c, 0, 69, 62
1, 163362, Control_c, 0, 67, 0
1, 163478, Note_off_c, 0, 40, 38
1, 163482, Note_on_c, 0, 69, 58
1, 163488, Note_on_c, 0, 61, 49
1, 163518, Note_off_c, 0, 73, 58
1, 163529, Poly_aftertouch_c, 0, 45, 127
1, 163533, Control_c, 0, 64, 82
1, 163550, Poly_aftertouch_c, 0, 52, 0
1, 163566, Poly_aftertouch_c, 0, 45, 0
1, 163577, Note_off_c, 0, 69, 60
1, 163607, Control_c, 0, 64, 81
1, 163622, Control_c, 0, 64, 76
1, 163623, Note_on_c, 0, 73, 84
1, 163637, Control_c, 0, 64, 66
1, 163651, Control_c, 0, 64, 0
1, 163653, Note_on_c, 0, 35, 51
1, 163654, Note_off_c, 0, 61, 47
1, 163711, Control_c, 0, 64, 54
1, 163726, Control_c, 0, 64, 64
1, 163741, Control_c, 0, 64, 67
1, 163756, Control_c, 0, 64, 70
1, 163770, Control_c, 0, 64, 74
1, 163785, Control_c, 0, 64, 77
1, 163793, Note_on_c, 0, 61, 46
1, 163796, Note_on_c, 0, 47, 50
1, 163797, Note_on_c, 0, 68, 66
1, 163800, Control_c, 0, 64, 79
1, 163803, Note_on_c, 0, 40, 44
1, 163815, Control_c, 0, 64, 80
1, 163830, Control_c, 0, 64, 80
1, 163837, Note_off_c, 0, 61, 60
1, 163841, Note_off_c, 0, 73, 58
1, 163851, Note_off_c, 0, 47, 46
1, 163852, Note_off_c, 0, 40, 46
1, 163859, Control_c, 0, 64, 81
1, 163863, Note_off_c, 0, 68, 64
1, 163874, Control_c, 0, 64, 81
1, 163889, Control_c, 0, 64, 82
1, 163933, Control_c, 0, 64, 81
1, 163948, Control_c, 0, 64, 77
1, 163951, Note_on_c, 0, 74, 76
1, 163963, Control_c, 0, 64, 66
1, 163966, Note_on_c, 0, 47, 51
1, 163973, Note_on_c, 0, 40, 46
1, 163977, Control_c, 0, 64, 0
1, 164036, Note_off_c, 0, 47, 62
1, 164051, Control_c, 0, 64, 61
1, 164053, Note_off_c, 0, 40, 51
1, 164066, Control_c, 0, 64, 67
1, 164081, Control_c, 0, 64, 71
1, 164096, Control_c, 0, 64, 74
1, 164110, Control_c, 0, 64, 77
1, 164116, Note_on_c, 0, 68, 56
1, 164125, Control_c, 0, 64, 79
1, 164128, Note_on_c, 0, 40, 25
1, 164132, Note_on_c, 0, 62, 38
1, 164140, Control_c, 0, 64, 80
1, 164144, Note_on_c, 0, 47, 39
1, 164155, Control_c, 0, 64, 81
1, 164164, Note_off_c, 0, 68, 58
1, 164167, Note_off_c, 0, 62, 50
1, 164182, Note_off_c, 0, 47, 53
1, 164215, Note_off_c, 0, 40, 40
1, 164222, Control_c, 0, 64, 81
1, 164283, Note_on_c, 0, 62, 48
1, 164284, Note_on_c, 0, 68, 60
1, 164289, Note_on_c, 0, 47, 51
1, 164291, Note_on_c, 0, 40, 33
1, 164328, Note_off_c, 0, 68, 57
1, 164331, Note_off_c, 0, 62, 45
1, 164334, Note_off_c, 0, 47, 48
1, 164356, Control_c, 0, 64, 82
1, 164362, Note_off_c, 0, 40, 43
1, 164439, Note_on_c, 0, 40, 37
1, 164443, Note_on_c, 0, 47, 50
1, 164443, Note_on_c, 0, 68, 52
1, 164445, Note_on_c, 0, 62, 45
1, 164471, Note_off_c, 0, 68, 53
1, 164478, Note_off_c, 0, 47, 50
1, 164479, Note_off_c, 0, 62, 50
1, 164519, Note_off_c, 0, 40, 39
1, 164584, Note_on_c, 0, 62, 43
1, 164589, Note_on_c, 0, 68, 54
1, 164590, Note_on_c, 0, 47, 48
1, 164594, Note_on_c, 0, 40, 34
1, 164624, Note_off_c, 0, 62, 48
1, 164628, Note_off_c, 0, 47, 50
1, 164634, Note_off_c, 0, 68, 56
1, 164650, Note_off_c, 0, 40, 43
1, 164733, Note_on_c, 0, 68, 66
1, 164737, Note_on_c, 0, 47, 38
1, 164743, Note_on_c, 0, 62, 35
1, 164744, Note_on_c, 0, 40, 39
1, 164748, Note_off_c, 0, 35, 41
1, 164762, Note_off_c, 0, 74, 52
1, 164771, Note_off_c, 0, 62, 54
1, 164786, Control_c, 0, 64, 82
1, 164800, Control_c, 0, 64, 83
1, 164801, Note_off_c, 0, 68, 62
1, 164815, Control_c, 0, 64, 83
1, 164827, Note_off_c, 0, 47, 29
1, 164830, Control_c, 0, 64, 84
1, 164845, Control_c, 0, 64, 83
1, 164859, Control_c, 0, 64, 83
1, 164874, Control_c, 0, 64, 79
1, 164875, Note_on_c, 0, 35, 60
1, 164876, Note_on_c, 0, 74, 81
1, 164889, Control_c, 0, 64, 71
1, 164890, Note_off_c, 0, 40, 34
1, 164904, Control_c, 0, 64, 56
1, 164919, Control_c, 0, 64, 0
1, 164933, Control_c, 0, 64, 42
1, 164956, Control_c, 0, 64, 64
1, 164971, Control_c, 0, 64, 69
1, 164986, Control_c, 0, 64, 72
1, 165001, Control_c, 0, 64, 76
1, 165013, Note_off_c, 0, 35, 60
1, 165015, Control_c, 0, 64, 79
1, 165030, Control_c, 0, 64, 82
1, 165040, Note_on_c, 0, 68, 70
1, 165044, Note_on_c, 0, 40, 49
1, 165044, Note_on_c, 0, 62, 48
1, 165045, Control_c, 0, 64, 85
1, 165050, Note_on_c, 0, 47, 54
1, 165059, Control_c, 0, 64, 86
1, 165061, Note_off_c, 0, 74, 60
1, 165074, Control_c, 0, 64, 87
1, 165086, Note_off_c, 0, 62, 47
1, 165089, Control_c, 0, 64, 88
1, 165103, Note_off_c, 0, 68, 63
1, 165104, Control_c, 0, 64, 90
1, 165119, Control_c, 0, 64, 91
1, 165135, Note_off_c, 0, 40, 50
1, 165135, Control_c, 0, 64, 91
1, 165164, Control_c, 0, 64, 90
1, 165169, Note_off_c, 0, 47, 53
1, 165179, Control_c, 0, 64, 86
1, 165180, Note_on_c, 0, 74, 86
1, 165189, Note_on_c, 0, 35, 59
1, 165194, Control_c, 0, 64, 78
1, 165209, Control_c, 0, 64, 67
1, 165223, Control_c, 0, 64, 55
1, 165238, Control_c, 0, 64, 64
1, 165253, Control_c, 0, 64, 71
1, 165268, Control_c, 0, 64, 78
1, 165282, Control_c, 0, 64, 83
1, 165296, Note_off_c, 0, 35, 54
1, 165297, Control_c, 0, 64, 84
1, 165312, Control_c, 0, 64, 85
1, 165327, Control_c, 0, 64, 86
1, 165342, Control_c, 0, 64, 87
1, 165344, Note_on_c, 0, 68, 75
1, 165348, Note_on_c, 0, 62, 52
1, 165350, Note_on_c, 0, 47, 54
1, 165370, Note_off_c, 0, 74, 60
1, 165373, Note_off_c, 0, 62, 58
1, 165386, Control_c, 0, 64, 87
1, 165401, Control_c, 0, 64, 88
1, 165410, Note_off_c, 0, 68, 63
1, 165416, Control_c, 0, 64, 90
1, 165431, Control_c, 0, 64, 92
1, 165446, Control_c, 0, 64, 93
1, 165475, Control_c, 0, 64, 92
1, 165477, Note_off_c, 0, 47, 52
1, 165490, Control_c, 0, 64, 87
1, 165494, Note_on_c, 0, 77, 97
1, 165500, Note_on_c, 0, 38, 65
1, 165505, Control_c, 0, 64, 73
1, 165520, Control_c, 0, 64, 16
1, 165535, Control_c, 0, 64, 0
1, 165564, Control_c, 0, 64, 57
1, 165579, Control_c, 0, 64, 69
1, 165594, Control_c, 0, 64, 75
1, 165609, Control_c, 0, 64, 82
1, 165623, Control_c, 0, 64, 84
1, 165638, Control_c, 0, 64, 86
1, 165652, Control_c, 0, 64, 86
1, 165655, Note_on_c, 0, 74, 67
1, 165660, Note_on_c, 0, 65, 60
1, 165665, Note_off_c, 0, 77, 61
1, 165672, Note_on_c, 0, 50, 57
1, 165686, Note_on_c, 0, 45, 47
1, 165704, Control_c, 0, 64, 87
1, 165719, Control_c, 0, 64, 88
1, 165732, Note_off_c, 0, 50, 55
1, 165732, Note_off_c, 0, 65, 62
1, 165734, Control_c, 0, 64, 89
1, 165735, Note_off_c, 0, 45, 61
1, 165749, Control_c, 0, 64, 91
1, 165750, Note_off_c, 0, 74, 62
1, 165763, Control_c, 0, 64, 91
1, 165807, Control_c, 0, 64, 87
1, 165821, Note_on_c, 0, 78, 97
1, 165822, Control_c, 0, 64, 74
1, 165837, Control_c, 0, 64, 0
1, 165853, Note_on_c, 0, 50, 49
1, 165859, Note_on_c, 0, 45, 36
1, 165908, Note_off_c, 0, 50, 53
1, 165911, Control_c, 0, 64, 52
1, 165914, Note_off_c, 0, 45, 55
1, 165927, Control_c, 0, 64, 69
1, 165942, Control_c, 0, 64, 74
1, 165957, Control_c, 0, 64, 79
1, 165972, Control_c, 0, 64, 81
1, 165985, Note_on_c, 0, 66, 64
1, 165986, Control_c, 0, 64, 82
1, 165993, Note_on_c, 0, 74, 58
1, 166001, Control_c, 0, 64, 82
1, 166015, Note_on_c, 0, 45, 44
1, 166015, Note_on_c, 0, 50, 43
1, 166016, Control_c, 0, 64, 83
1, 166036, Note_off_c, 0, 66, 58
1, 166050, Note_off_c, 0, 50, 52
1, 166058, Note_off_c, 0, 45, 61
1, 166119, Note_off_c, 0, 74, 0
1, 166119, Control_c, 0, 64, 83
1, 166132, Note_on_c, 0, 74, 45
1, 166149, Note_on_c, 0, 66, 66
1, 166154, Note_on_c, 0, 50, 50
1, 166173, Note_on_c, 0, 45, 40
1, 166187, Note_off_c, 0, 66, 60
1, 166191, Note_off_c, 0, 50, 50
1, 166203, Note_off_c, 0, 45, 55
1, 166207, Note_off_c, 0, 74, 60
1, 166288, Note_on_c, 0, 45, 54
1, 166289, Note_on_c, 0, 74, 54
1, 166295, Note_on_c, 0, 50, 52
1, 166301, Note_on_c, 0, 66, 56
1, 166325, Note_off_c, 0, 66, 59
1, 166328, Note_off_c, 0, 50, 58
1, 166338, Note_off_c, 0, 45, 60
1, 166351, Note_off_c, 0, 74, 64
1, 166429, Note_on_c, 0, 66, 62
1, 166446, Note_on_c, 0, 50, 52
1, 166446, Note_on_c, 0, 74, 64
1, 166447, Note_on_c, 0, 45, 60
1, 166487, Note_off_c, 0, 50, 62
1, 166489, Note_off_c, 0, 66, 58
1, 166492, Note_off_c, 0, 45, 62
1, 166506, Note_off_c, 0, 74, 60
1, 166593, Note_on_c, 0, 74, 62
1, 166596, Note_on_c, 0, 45, 55
1, 166598, Note_on_c, 0, 50, 52
1, 166599, Note_on_c, 0, 66, 63
1, 166615, Note_off_c, 0, 78, 56
1, 166616, Note_off_c, 0, 38, 54
1, 166630, Control_c, 0, 64, 84
1, 166653, Note_off_c, 0, 66, 56
1, 166654, Note_off_c, 0, 45, 61
1, 166655, Note_off_c, 0, 74, 65
1, 166657, Note_off_c, 0, 50, 50
1, 166690, Control_c, 0, 64, 81
1, 166704, Control_c, 0, 64, 72
1, 166719, Note_on_c, 0, 78, 95
1, 166719, Control_c, 0, 64, 0
1, 166733, Note_on_c, 0, 38, 79
1, 166780, Control_c, 0, 64, 60
1, 166795, Control_c, 0, 64, 71
1, 166809, Control_c, 0, 64, 79
1, 166824, Control_c, 0, 64, 87
1, 166839, Control_c, 0, 64, 88
1, 166860, Note_on_c, 0, 66, 73
1, 166864, Note_on_c, 0, 74, 66
1, 166880, Note_on_c, 0, 45, 58
1, 166882, Note_on_c, 0, 50, 63
1, 166885, Note_off_c, 0, 38, 50
1, 166909, Note_off_c, 0, 78, 60
1, 166913, Control_c, 0, 64, 90
1, 166927, Control_c, 0, 64, 93
1, 166942, Control_c, 0, 64, 97
1, 166944, Note_off_c, 0, 74, 63
1, 166957, Control_c, 0, 64, 98
1, 166989, Note_off_c, 0, 50, 61
1, 166996, Note_off_c, 0, 66, 64
1, 167002, Control_c, 0, 64, 95
1, 167008, Note_on_c, 0, 78, 98
1, 167017, Control_c, 0, 64, 87
1, 167018, Note_on_c, 0, 38, 77
1, 167025, Note_off_c, 0, 45, 35
1, 167032, Control_c, 0, 64, 76
1, 167046, Control_c, 0, 64, 64
1, 167061, Control_c, 0, 64, 60
1, 167076, Control_c, 0, 64, 66
1, 167091, Control_c, 0, 64, 73
1, 167106, Control_c, 0, 64, 79
1, 167120, Control_c, 0, 64, 82
1, 167135, Control_c, 0, 64, 83
1, 167151, Note_on_c, 0, 45, 59
1, 167151, Note_on_c, 0, 66, 77
1, 167154, Note_on_c, 0, 74, 71
1, 167160, Note_on_c, 0, 50, 65
1, 167171, Note_off_c, 0, 38, 57
1, 167183, Note_off_c, 0, 45, 65
1, 167184, Note_off_c, 0, 78, 58
1, 167187, Note_off_c, 0, 50, 65
1, 167201, Control_c, 0, 64, 83
1, 167216, Control_c, 0, 64, 84
1, 167223, Note_off_c, 0, 74, 65
1, 167231, Control_c, 0, 64, 85
1, 167246, Control_c, 0, 64, 87
1, 167261, Control_c, 0, 64, 87
1, 167306, Control_c, 0, 64, 86
1, 167320, Control_c, 0, 64, 80
1, 167324, Note_on_c, 0, 78, 100
1, 167330, Note_on_c, 0, 33, 78
1, 167335, Control_c, 0, 64, 64
1, 167350, Control_c, 0, 64, 0
1, 167365, Note_off_c, 0, 66, 64
1, 167394, Control_c, 0, 64, 60
1, 167409, Control_c, 0, 64, 68
1, 167424, Control_c, 0, 64, 74
1, 167439, Control_c, 0, 64, 78
1, 167453, Control_c, 0, 64, 79
1, 167481, Note_on_c, 0, 73, 80
1, 167483, Note_on_c, 0, 66, 67
1, 167491, Note_on_c, 0, 45, 66
1, 167504, Note_off_c, 0, 33, 56
1, 167516, Note_off_c, 0, 66, 66
1, 167527, Note_off_c, 0, 78, 56
1, 167529, Control_c, 0, 64, 79
1, 167562, Note_off_c, 0, 73, 63
1, 167603, Control_c, 0, 64, 79
1, 167618, Control_c, 0, 64, 72
1, 167632, Control_c, 0, 64, 20
1, 167647, Note_off_c, 0, 45, 64
1, 167647, Control_c, 0, 64, 0
1, 167655, Note_on_c, 0, 79, 103
1, 167664, Note_on_c, 0, 33, 73
1, 167736, Control_c, 0, 64, 60
1, 167750, Control_c, 0, 64, 69
1, 167765, Control_c, 0, 64, 74
1, 167780, Control_c, 0, 64, 79
1, 167795, Control_c, 0, 64, 83
1, 167810, Control_c, 0, 64, 87
1, 167820, Note_on_c, 0, 73, 73
1, 167821, Note_on_c, 0, 67, 69
1, 167824, Control_c, 0, 64, 89
1, 167830, Note_on_c, 0, 45, 61
1, 167830, Note_on_c, 0, 40, 58
1, 167839, Control_c, 0, 64, 92
1, 167848, Note_off_c, 0, 67, 66
1, 167854, Control_c, 0, 64, 94
1, 167865, Note_off_c, 0, 45, 63
1, 167866, Note_off_c, 0, 73, 61
1, 167869, Control_c, 0, 64, 97
1, 167878, Note_off_c, 0, 40, 60
1, 167884, Control_c, 0, 64, 101
1, 167899, Control_c, 0, 64, 106
1, 167914, Control_c, 0, 64, 113
1, 167929, Control_c, 0, 64, 127
1, 167975, Note_on_c, 0, 73, 72
1, 167976, Note_on_c, 0, 67, 59
1, 167988, Note_on_c, 0, 45, 52
1, 167993, Note_on_c, 0, 40, 58
1, 168008, Note_off_c, 0, 67, 63
1, 168017, Note_off_c, 0, 73, 57
1, 168021, Note_off_c, 0, 45, 64
1, 168026, Note_off_c, 0, 40, 64
1, 168119, Note_on_c, 0, 67, 64
1, 168123, Note_on_c, 0, 73, 71
1, 168128, Note_on_c, 0, 40, 56
1, 168128, Note_on_c, 0, 45, 56
1, 168159, Note_off_c, 0, 67, 58
1, 168161, Note_off_c, 0, 73, 50
1, 168172, Note_off_c, 0, 40, 60
1, 168173, Note_off_c, 0, 45, 61
1, 168266, Note_on_c, 0, 67, 68
1, 168267, Note_on_c, 0, 73, 76
1, 168269, Note_on_c, 0, 40, 60
1, 168272, Note_on_c, 0, 45, 54
1, 168312, Note_off_c, 0, 45, 62
1, 168313, Note_off_c, 0, 67, 53
1, 168316, Note_off_c, 0, 40, 59
1, 168323, Note_off_c, 0, 73, 61
1, 168415, Note_on_c, 0, 40, 60
1, 168416, Note_on_c, 0, 73, 73
1, 168424, Note_on_c, 0, 67, 60
1, 168426, Note_on_c, 0, 45, 49
1, 168432, Note_off_c, 0, 33, 55
1, 168439, Note_off_c, 0, 79, 55
1, 168444, Note_off_c, 0, 67, 61
1, 168474, Note_off_c, 0, 40, 58
1, 168479, Note_off_c, 0, 73, 59
1, 168493, Note_off_c, 0, 45, 53
1, 168514, Control_c, 0, 64, 93
1, 168529, Control_c, 0, 64, 62
1, 168544, Control_c, 0, 64, 0
1, 168546, Note_on_c, 0, 79, 97
1, 168551, Note_on_c, 0, 33, 81
1, 168588, Control_c, 0, 64, 54
1, 168603, Control_c, 0, 64, 76
1, 168617, Control_c, 0, 64, 89
1, 168632, Control_c, 0, 64, 100
1, 168648, Control_c, 0, 64, 103
1, 168663, Control_c, 0, 64, 104
1, 168702, Note_on_c, 0, 73, 78
1, 168703, Note_on_c, 0, 67, 66
1, 168712, Note_off_c, 0, 33, 54
1, 168715, Note_on_c, 0, 40, 65
1, 168720, Note_on_c, 0, 45, 60
1, 168740, Note_off_c, 0, 79, 59
1, 168745, Control_c, 0, 64, 104
1, 168760, Control_c, 0, 64, 106
1, 168763, Note_off_c, 0, 67, 59
1, 168774, Control_c, 0, 64, 109
1, 168777, Note_off_c, 0, 73, 63
1, 168789, Control_c, 0, 64, 111
1, 168804, Control_c, 0, 64, 112
1, 168808, Note_off_c, 0, 40, 60
1, 168833, Control_c, 0, 64, 111
1, 168835, Note_off_c, 0, 45, 58
1, 168848, Control_c, 0, 64, 107
1, 168856, Note_on_c, 0, 79, 103
1, 168863, Control_c, 0, 64, 92
1, 168864, Note_on_c, 0, 33, 80
1, 168878, Control_c, 0, 64, 75
1, 168893, Control_c, 0, 64, 0
1, 168937, Control_c, 0, 64, 62
1, 168952, Control_c, 0, 64, 73
1, 168967, Control_c, 0, 64, 81
1, 168981, Control_c, 0, 64, 87
1, 168982, Note_off_c, 0, 33, 64
1, 168996, Control_c, 0, 64, 88
1, 169011, Control_c, 0, 64, 89
1, 169015, Note_on_c, 0, 40, 62
1, 169017, Note_on_c, 0, 45, 66
1, 169020, Note_on_c, 0, 73, 84
1, 169029, Note_on_c, 0, 67, 67
1, 169041, Control_c, 0, 64, 89
1, 169047, Note_off_c, 0, 40, 65
1, 169056, Control_c, 0, 64, 90
1, 169070, Control_c, 0, 64, 90
1, 169085, Control_c, 0, 64, 92
1, 169086, Note_off_c, 0, 79, 49
1, 169100, Control_c, 0, 64, 93
1, 169115, Control_c, 0, 64, 95
1, 169124, Note_off_c, 0, 67, 30
1, 169130, Control_c, 0, 64, 96
1, 169158, Note_off_c, 0, 45, 36
1, 169160, Control_c, 0, 64, 95
1, 169173, Note_off_c, 0, 73, 64
1, 169175, Control_c, 0, 64, 90
1, 169190, Control_c, 0, 64, 75
1, 169205, Control_c, 0, 64, 0
1, 169219, Note_on_c, 0, 32, 81
1, 169222, Note_on_c, 0, 81, 103
1, 169268, Note_off_c, 0, 32, 61
1, 169294, Control_c, 0, 64, 64
1, 169309, Control_c, 0, 64, 73
1, 169323, Control_c, 0, 64, 79
1, 169338, Control_c, 0, 64, 83
1, 169353, Control_c, 0, 64, 84
1, 169368, Control_c, 0, 64, 85
1, 169383, Control_c, 0, 64, 87
1, 169396, Control_c, 0, 64, 89
1, 169411, Note_on_c, 0, 49, 66
1, 169411, Note_on_c, 0, 69, 68
1, 169411, Control_c, 0, 64, 90
1, 169416, Note_on_c, 0, 52, 64
1, 169417, Note_on_c, 0, 73, 69
1, 169426, Note_on_c, 0, 44, 50
1, 169426, Control_c, 0, 64, 90
1, 169431, Note_off_c, 0, 81, 58
1, 169448, Control_c, 0, 64, 91
1, 169463, Control_c, 0, 64, 92
1, 169467, Note_off_c, 0, 49, 53
1, 169472, Note_off_c, 0, 52, 52
1, 169478, Control_c, 0, 64, 94
1, 169480, Note_off_c, 0, 69, 62
1, 169481, Note_off_c, 0, 44, 59
1, 169493, Control_c, 0, 64, 95
1, 169508, Control_c, 0, 64, 96
1, 169514, Note_off_c, 0, 73, 63
1, 169537, Control_c, 0, 64, 95
1, 169552, Control_c, 0, 64, 89
1, 169562, Note_on_c, 0, 80, 101
1, 169567, Control_c, 0, 64, 76
1, 169577, Note_on_c, 0, 44, 60
1, 169582, Control_c, 0, 64, 38
1, 169584, Note_on_c, 0, 49, 57
1, 169596, Note_on_c, 0, 52, 53
1, 169596, Control_c, 0, 64, 0
1, 169623, Note_off_c, 0, 49, 61
1, 169630, Note_off_c, 0, 52, 66
1, 169637, Note_off_c, 0, 44, 56
1, 169641, Control_c, 0, 64, 65
1, 169655, Control_c, 0, 64, 73
1, 169670, Control_c, 0, 64, 79
1, 169685, Control_c, 0, 64, 82
1, 169700, Control_c, 0, 64, 83
1, 169717, Note_on_c, 0, 73, 67
1, 169722, Note_on_c, 0, 49, 59
1, 169723, Note_on_c, 0, 68, 56
1, 169729, Control_c, 0, 64, 83
1, 169735, Note_on_c, 0, 52, 58
1, 169740, Note_on_c, 0, 44, 49
1, 169751, Note_off_c, 0, 68, 57
1, 169765, Note_off_c, 0, 73, 60
1, 169770, Note_off_c, 0, 49, 57
1, 169771, Note_off_c, 0, 52, 66
1, 169774, Control_c, 0, 64, 84
1, 169785, Note_off_c, 0, 44, 61
1, 169789, Control_c, 0, 64, 85
1, 169804, Control_c, 0, 64, 86
1, 169819, Control_c, 0, 64, 88
1, 169834, Control_c, 0, 64, 89
1, 169848, Control_c, 0, 64, 92
1, 169863, Control_c, 0, 64, 94
1, 169863, Note_on_c, 0, 73, 77
1, 169868, Note_on_c, 0, 68, 56
1, 169871, Note_on_c, 0, 49, 62
1, 169875, Note_on_c, 0, 52, 56
1, 169878, Control_c, 0, 64, 97
1, 169893, Control_c, 0, 64, 100
1, 169894, Note_on_c, 0, 44, 43
1, 169902, Note_off_c, 0, 68, 65
1, 169905, Note_off_c, 0, 52, 66
1, 169906, Note_off_c, 0, 73, 59
1, 169908, Control_c, 0, 64, 104
1, 169911, Note_off_c, 0, 49, 60
1, 169923, Note_off_c, 0, 44, 58
1, 169923, Control_c, 0, 64, 106
1, 169938, Control_c, 0, 64, 109
1, 169953, Control_c, 0, 64, 111
1, 169968, Control_c, 0, 64, 113
1, 169983, Control_c, 0, 64, 115
1, 169993, Note_on_c, 0, 52, 53
1, 169994, Note_on_c, 0, 49, 66
1, 169998, Control_c, 0, 64, 116
1, 170003, Note_on_c, 0, 73, 82
1, 170005, Note_on_c, 0, 68, 66
1, 170012, Control_c, 0, 64, 116
1, 170016, Note_off_c, 0, 52, 59
1, 170024, Note_off_c, 0, 49, 64
1, 170027, Control_c, 0, 64, 117
1, 170038, Note_off_c, 0, 68, 61
1, 170042, Control_c, 0, 64, 117
1, 170057, Control_c, 0, 64, 118
1, 170068, Note_off_c, 0, 80, 41
1, 170071, Control_c, 0, 64, 118
1, 170101, Control_c, 0, 64, 119
1, 170116, Control_c, 0, 64, 118
1, 170131, Control_c, 0, 64, 112
1, 170145, Control_c, 0, 64, 96
1, 170154, Note_off_c, 0, 73, 60
1, 170160, Control_c, 0, 64, 75
1, 170164, Note_on_c, 0, 32, 73
1, 170175, Control_c, 0, 64, 0
1, 170203, Note_on_c, 0, 81, 101
1, 170218, Note_off_c, 0, 32, 60
1, 170242, Control_c, 0, 64, 62
1, 170257, Control_c, 0, 64, 71
1, 170271, Control_c, 0, 64, 80
1, 170286, Control_c, 0, 64, 88
1, 170301, Control_c, 0, 64, 91
1, 170316, Control_c, 0, 64, 91
1, 170345, Control_c, 0, 64, 92
1, 170375, Control_c, 0, 64, 92
1, 170388, Note_off_c, 0, 81, 59
1, 170394, Note_on_c, 0, 72, 64
1, 170402, Note_on_c, 0, 69, 54
1, 170412, Note_on_c, 0, 51, 49
1, 170414, Note_on_c, 0, 54, 51
1, 170419, Control_c, 0, 64, 93
1, 170420, Note_on_c, 0, 44, 40
1, 170454, Note_off_c, 0, 51, 58
1, 170458, Note_off_c, 0, 69, 58
1, 170464, Note_off_c, 0, 44, 50
1, 170464, Note_off_c, 0, 54, 47
1, 170464, Control_c, 0, 64, 93
1, 170478, Control_c, 0, 64, 94
1, 170493, Control_c, 0, 64, 95
1, 170504, Note_off_c, 0, 72, 63
1, 170538, Control_c, 0, 64, 93
1, 170549, Note_on_c, 0, 80, 88
1, 170552, Control_c, 0, 64, 83
1, 170562, Note_on_c, 0, 51, 48
1, 170567, Note_on_c, 0, 44, 55
1, 170567, Control_c, 0, 64, 65
1, 170579, Note_on_c, 0, 54, 50
1, 170582, Control_c, 0, 64, 0
1, 170616, Note_off_c, 0, 54, 49
1, 170621, Note_off_c, 0, 44, 57
1, 170626, Note_off_c, 0, 51, 54
1, 170656, Control_c, 0, 64, 64
1, 170671, Control_c, 0, 64, 72
1, 170686, Control_c, 0, 64, 80
1, 170701, Control_c, 0, 64, 84
1, 170716, Control_c, 0, 64, 84
1, 170721, Note_on_c, 0, 72, 56
1, 170728, Note_on_c, 0, 68, 50
1, 170735, Note_on_c, 0, 51, 39
1, 170745, Note_on_c, 0, 44, 40
1, 170746, Note_on_c, 0, 54, 31
1, 170746, Control_c, 0, 64, 85
1, 170761, Control_c, 0, 64, 86
1, 170767, Note_off_c, 0, 68, 50
1, 170776, Control_c, 0, 64, 86
1, 170782, Note_off_c, 0, 54, 46
1, 170790, Note_off_c, 0, 72, 56
1, 170790, Control_c, 0, 64, 87
1, 170802, Note_off_c, 0, 44, 41
1, 170844, Note_off_c, 0, 51, 0
1, 170865, Note_on_c, 0, 51, 18
1, 170869, Note_on_c, 0, 44, 34
1, 170881, Note_on_c, 0, 68, 46
1, 170891, Note_on_c, 0, 72, 54
1, 170897, Note_on_c, 0, 54, 35
1, 170909, Control_c, 0, 64, 88
1, 170930, Note_off_c, 0, 68, 49
1, 170934, Note_off_c, 0, 54, 47
1, 170954, Note_off_c, 0, 72, 56
1, 170984, Note_off_c, 0, 44, 35
1, 171035, Note_off_c, 0, 51, 0
1, 171041, Note_on_c, 0, 54, 41
1, 171049, Note_off_c, 0, 80, 60
1, 171057, Note_on_c, 0, 44, 4
1, 171064, Note_on_c, 0, 68, 38
1, 171065, Control_c, 0, 67, 8
1, 171073, Note_off_c, 0, 54, 52
1, 171074, Note_on_c, 0, 72, 51
1, 171080, Control_c, 0, 67, 10
1, 171094, Poly_aftertouch_c, 0, 51, 0
1, 171094, Control_c, 0, 64, 88
1, 171094, Control_c, 0, 67, 12
1, 171100, Note_off_c, 0, 72, 60
1, 171106, Note_off_c, 0, 44, 48
1, 171109, Control_c, 0, 64, 89
1, 171109, Control_c, 0, 67, 15
1, 171124, Control_c, 0, 64, 91
1, 171124, Control_c, 0, 67, 17
1, 171139, Control_c, 0, 64, 94
1, 171139, Control_c, 0, 67, 19
1, 171154, Control_c, 0, 64, 97
1, 171154, Control_c, 0, 67, 20
1, 171157, Note_off_c, 0, 68, 42
1, 171168, Control_c, 0, 64, 99
1, 171168, Control_c, 0, 67, 20
1, 171183, Control_c, 0, 64, 99
1, 171183, Control_c, 0, 67, 21
1, 171198, Control_c, 0, 67, 22
1, 171212, Control_c, 0, 67, 24
1, 171227, Control_c, 0, 64, 96
1, 171227, Control_c, 0, 67, 27
1, 171242, Control_c, 0, 64, 84
1, 171242, Control_c, 0, 67, 31
1, 171257, Control_c, 0, 64, 58
1, 171257, Control_c, 0, 67, 35
1, 171262, Note_on_c, 0, 73, 73
1, 171272, Control_c, 0, 64, 0
1, 171272, Control_c, 0, 67, 40
1, 171285, Note_on_c, 0, 37, 39
1, 171287, Control_c, 0, 67, 48
1, 171301, Control_c, 0, 67, 58
1, 171316, Control_c, 0, 67, 70
1, 171331, Control_c, 0, 64, 49
1, 171331, Control_c, 0, 67, 82
1, 171336, Note_off_c, 0, 37, 62
1, 171346, Control_c, 0, 64, 68
1, 171346, Control_c, 0, 67, 94
1, 171361, Control_c, 0, 64, 74
1, 171361, Control_c, 0, 67, 103
1, 171375, Control_c, 0, 64, 79
1, 171375, Control_c, 0, 67, 111
1, 171390, Control_c, 0, 64, 82
1, 171390, Control_c, 0, 67, 119
1, 171405, Control_c, 0, 64, 83
1, 171405, Control_c, 0, 67, 126
1, 171419, Control_c, 0, 64, 84
1, 171419, Control_c, 0, 67, 127
1, 171434, Control_c, 0, 64, 84
1, 171449, Control_c, 0, 64, 85
1, 171464, Control_c, 0, 64, 85
1, 171468, Note_on_c, 0, 68, 57
1, 171477, Note_on_c, 0, 64, 43
1, 171479, Control_c, 0, 64, 86
1, 171482, Note_on_c, 0, 61, 35
1, 171484, Note_on_c, 0, 49, 34
1, 171487, Note_on_c, 0, 44, 39
1, 171494, Control_c, 0, 64, 87
1, 171496, Note_on_c, 0, 52, 23
1, 171521, Note_off_c, 0, 61, 48
1, 171529, Note_off_c, 0, 64, 47
1, 171531, Note_off_c, 0, 49, 44
1, 171533, Note_off_c, 0, 44, 47
1, 171536, Note_off_c, 0, 52, 53
1, 171545, Note_off_c, 0, 68, 58
1, 171643, Control_c, 0, 64, 87
1, 171649, Note_on_c, 0, 61, 32
1, 171655, Note_on_c, 0, 64, 46
1, 171656, Note_on_c, 0, 44, 35
1, 171662, Note_on_c, 0, 49, 38
1, 171667, Note_on_c, 0, 68, 48
1, 171692, Note_off_c, 0, 61, 50
1, 171697, Note_off_c, 0, 64, 52
1, 171710, Note_off_c, 0, 68, 51
1, 171712, Poly_aftertouch_c, 0, 52, 127
1, 171715, Note_off_c, 0, 44, 44
1, 171715, Note_off_c, 0, 49, 45
1, 171738, Poly_aftertouch_c, 0, 52, 0
1, 171815, Note_on_c, 0, 44, 33
1, 171817, Note_on_c, 0, 61, 34
1, 171818, Note_on_c, 0, 68, 52
1, 171821, Note_on_c, 0, 49, 32
1, 171822, Note_on_c, 0, 64, 39
1, 171855, Note_off_c, 0, 61, 50
1, 171855, Note_off_c, 0, 64, 53
1, 171857, Poly_aftertouch_c, 0, 52, 127
1, 171873, Note_off_c, 0, 49, 43
1, 171879, Note_off_c, 0, 68, 53
1, 171901, Poly_aftertouch_c, 0, 52, 0
1, 171938, Note_off_c, 0, 44, 0
1, 171955, Note_on_c, 0, 44, 24
1, 171959, Note_on_c, 0, 49, 36
1, 171970, Note_on_c, 0, 61, 42
1, 171976, Note_on_c, 0, 52, 17
1, 171983, Note_on_c, 0, 64, 35
1, 171994, Note_on_c, 0, 68, 53
1, 172004, Note_off_c, 0, 61, 50
1, 172018, Note_off_c, 0, 64, 51
1, 172022, Note_off_c, 0, 52, 51
1, 172022, Note_off_c, 0, 68, 56
1, 172054, Note_off_c, 0, 49, 33
1, 172102, Note_off_c, 0, 44, 0
1, 172120, Note_on_c, 0, 49, 20
1, 172123, Note_on_c, 0, 44, 5
1, 172129, Note_on_c, 0, 68, 50
1, 172138, Note_on_c, 0, 61, 30
1, 172139, Note_on_c, 0, 64, 38
1, 172149, Note_on_c, 0, 52, 23
1, 172178, Note_off_c, 0, 61, 49
1, 172184, Note_off_c, 0, 52, 46
1, 172191, Note_off_c, 0, 64, 45
1, 172200, Note_off_c, 0, 68, 61
1, 172259, Note_off_c, 0, 49, 0
1, 172261, Note_off_c, 0, 44, 0
1, 172278, Note_on_c, 0, 49, 21
1, 172281, Note_on_c, 0, 44, 12
1, 172302, Note_on_c, 0, 61, 26
1, 172303, Note_on_c, 0, 68, 52
1, 172317, Note_on_c, 0, 52, 17
1, 172331, Note_on_c, 0, 64, 23
1, 172339, Note_off_c, 0, 61, 50
1, 172350, Note_off_c, 0, 68, 58
1, 172356, Note_off_c, 0, 52, 40
1, 172370, Note_off_c, 0, 64, 51
1, 172409, Note_off_c, 0, 49, 0
1, 172416, Note_off_c, 0, 44, 0
1, 172454, Poly_aftertouch_c, 0, 49, 127
1, 172461, Poly_aftertouch_c, 0, 44, 127
1, 172465, Note_on_c, 0, 68, 53
1, 172469, Note_on_c, 0, 61, 32
1, 172477, Note_on_c, 0, 52, 17
1, 172492, Note_off_c, 0, 73, 39
1, 172493, Note_on_c, 0, 64, 42
1, 172494, Note_off_c, 0, 68, 57
1, 172516, Note_off_c, 0, 52, 43
1, 172531, Poly_aftertouch_c, 0, 44, 0
1, 172531, Note_off_c, 0, 64, 51
1, 172533, Poly_aftertouch_c, 0, 49, 0
1, 172548, Note_off_c, 0, 61, 35
1, 172593, Control_c, 0, 64, 85
1, 172607, Note_on_c, 0, 68, 70
1, 172608, Control_c, 0, 64, 79
1, 172622, Control_c, 0, 64, 68
1, 172629, Note_on_c, 0, 49, 37
1, 172637, Control_c, 0, 64, 14
1, 172647, Note_on_c, 0, 52, 27
1, 172650, Note_on_c, 0, 44, 31
1, 172652, Control_c, 0, 64, 0
1, 172681, Control_c, 0, 64, 62
1, 172685, Note_off_c, 0, 52, 50
1, 172690, Note_off_c, 0, 44, 49
1, 172692, Note_off_c, 0, 49, 51
1, 172696, Control_c, 0, 64, 70
1, 172711, Control_c, 0, 64, 76
1, 172726, Control_c, 0, 64, 80
1, 172740, Control_c, 0, 64, 81
1, 172770, Control_c, 0, 64, 81
1, 172784, Note_on_c, 0, 64, 49
1, 172795, Note_on_c, 0, 49, 25
1, 172814, Control_c, 0, 64, 82
1, 172815, Note_on_c, 0, 52, 22
1, 172821, Note_on_c, 0, 61, 17
1, 172826, Note_on_c, 0, 44, 23
1, 172826, Note_off_c, 0, 68, 39
1, 172829, Control_c, 0, 64, 82
1, 172844, Control_c, 0, 64, 83
1, 172851, Note_off_c, 0, 52, 52
1, 172864, Note_off_c, 0, 61, 49
1, 172865, Note_off_c, 0, 44, 50
1, 172875, Note_off_c, 0, 64, 55
1, 172917, Note_off_c, 0, 49, 0
1, 172919, Control_c, 0, 64, 82
1, 172933, Control_c, 0, 64, 77
1, 172937, Note_on_c, 0, 68, 71
1, 172948, Control_c, 0, 64, 67
1, 172954, Poly_aftertouch_c, 0, 49, 127
1, 172963, Control_c, 0, 64, 23
1, 172977, Note_on_c, 0, 44, 28
1, 172978, Control_c, 0, 64, 0
1, 172981, Note_on_c, 0, 52, 23
1, 172992, Control_c, 0, 64, 56
1, 173007, Control_c, 0, 64, 67
1, 173021, Note_off_c, 0, 52, 49
1, 173022, Control_c, 0, 64, 73
1, 173028, Note_off_c, 0, 44, 44
1, 173037, Control_c, 0, 64, 78
1, 173052, Control_c, 0, 64, 81
1, 173066, Control_c, 0, 64, 81
1, 173116, Note_on_c, 0, 64, 51
1, 173141, Note_on_c, 0, 61, 21
1, 173151, Poly_aftertouch_c, 0, 52, 127
1, 173153, Note_off_c, 0, 68, 48
1, 173157, Control_c, 0, 64, 82
1, 173168, Poly_aftertouch_c, 0, 49, 0
1, 173193, Control_c, 0, 64, 82
1, 173195, Note_off_c, 0, 64, 54
1, 173203, Poly_aftertouch_c, 0, 52, 0
1, 173208, Note_off_c, 0, 61, 39
1, 173208, Control_c, 0, 64, 83
1, 173223, Control_c, 0, 64, 83
1, 173268, Control_c, 0, 64, 83
1, 173282, Control_c, 0, 64, 77
1, 173297, Control_c, 0, 64, 65
1, 173312, Control_c, 0, 64, 0
1, 173315, Note_on_c, 0, 68, 60
1, 173334, Note_on_c, 0, 37, 40
1, 173357, Control_c, 0, 64, 20
1, 173371, Control_c, 0, 64, 67
1, 173372, Note_off_c, 0, 37, 60
1, 173386, Control_c, 0, 64, 74
1, 173401, Control_c, 0, 64, 81
1, 173415, Control_c, 0, 64, 84
1, 173430, Control_c, 0, 64, 84
1, 173445, Control_c, 0, 64, 85
1, 173506, Note_on_c, 0, 64, 41
1, 173513, Note_on_c, 0, 49, 39
1, 173528, Note_on_c, 0, 61, 24
1, 173558, Note_off_c, 0, 49, 44
1, 173567, Note_off_c, 0, 61, 43
1, 173572, Poly_aftertouch_c, 0, 52, 127
1, 173601, Poly_aftertouch_c, 0, 52, 0
1, 173607, Note_off_c, 0, 64, 37
1, 173673, Note_on_c, 0, 64, 36
1, 173676, Note_on_c, 0, 61, 38
1, 173709, Note_on_c, 0, 49, 21
1, 173718, Note_off_c, 0, 61, 46
1, 173742, Note_off_c, 0, 64, 55
1, 173759, Note_off_c, 0, 49, 43
1, 173762, Poly_aftertouch_c, 0, 52, 127
1, 173793, Poly_aftertouch_c, 0, 52, 0
1, 173843, Note_on_c, 0, 64, 49
1, 173860, Control_c, 0, 64, 85
1, 173861, Note_on_c, 0, 61, 35
1, 173871, Note_on_c, 0, 52, 13
1, 173876, Note_on_c, 0, 49, 21
1, 173897, Note_off_c, 0, 61, 49
1, 173917, Note_off_c, 0, 64, 54
1, 173923, Note_off_c, 0, 52, 45
1, 173940, Note_off_c, 0, 49, 42
1, 174022, Note_on_c, 0, 64, 42
1, 174027, Note_on_c, 0, 61, 37
1, 174038, Note_on_c, 0, 49, 28
1, 174054, Note_on_c, 0, 52, 18
1, 174067, Note_off_c, 0, 61, 47
1, 174081, Note_off_c, 0, 64, 54
1, 174094, Note_off_c, 0, 52, 53
1, 174117, Note_off_c, 0, 49, 37
1, 174207, Note_on_c, 0, 61, 28
1, 174210, Note_on_c, 0, 64, 39
1, 174216, Note_on_c, 0, 49, 5
1, 174233, Note_on_c, 0, 52, 11
1, 174248, Note_off_c, 0, 61, 49
1, 174252, Note_off_c, 0, 64, 47
1, 174277, Note_off_c, 0, 52, 45
1, 174290, Note_off_c, 0, 49, 38
1, 174379, Note_on_c, 0, 64, 45
1, 174382, Note_on_c, 0, 61, 21
1, 174403, Poly_aftertouch_c, 0, 49, 127
1, 174424, Note_off_c, 0, 61, 47
1, 174426, Note_off_c, 0, 64, 47
1, 174484, Poly_aftertouch_c, 0, 52, 0
1, 174499, Poly_aftertouch_c, 0, 49, 0
1, 174536, Poly_aftertouch_c, 0, 49, 127
1, 174549, Note_on_c, 0, 61, 27
1, 174554, Note_on_c, 0, 64, 44
1, 174555, Note_off_c, 0, 68, 43
1, 174564, Poly_aftertouch_c, 0, 52, 127
1, 174603, Poly_aftertouch_c, 0, 52, 0
1, 174689, Control_c, 0, 64, 85
1, 174691, Poly_aftertouch_c, 0, 49, 0
1, 174704, Control_c, 0, 64, 79
1, 174720, Control_c, 0, 64, 70
1, 174721, Note_off_c, 0, 61, 20
1, 174725, Note_on_c, 0, 68, 66
1, 174729, Poly_aftertouch_c, 0, 49, 127
1, 174734, Note_on_c, 0, 52, 37
1, 174734, Control_c, 0, 64, 29
1, 174739, Note_off_c, 0, 64, 52
1, 174749, Control_c, 0, 64, 0
1, 174778, Note_off_c, 0, 52, 48
1, 174794, Control_c, 0, 64, 64
1, 174809, Control_c, 0, 64, 69
1, 174824, Control_c, 0, 64, 73
1, 174839, Control_c, 0, 64, 76
1, 174853, Control_c, 0, 64, 77
1, 174867, Poly_aftertouch_c, 0, 49, 0
1, 174868, Control_c, 0, 64, 77
1, 174883, Control_c, 0, 64, 78
1, 174889, Note_on_c, 0, 49, 14
1, 174897, Note_on_c, 0, 64, 42
1, 174898, Control_c, 0, 64, 80
1, 174913, Note_on_c, 0, 52, 30
1, 174913, Control_c, 0, 64, 81
1, 174922, Note_off_c, 0, 68, 51
1, 174928, Control_c, 0, 64, 81
1, 174932, Note_on_c, 0, 61, 19
1, 174942, Control_c, 0, 64, 82
1, 174952, Note_off_c, 0, 52, 51
1, 174982, Note_off_c, 0, 61, 44
1, 174986, Control_c, 0, 64, 82
1, 175021, Note_off_c, 0, 49, 31
1, 175063, Note_off_c, 0, 64, 34
1, 175065, Note_on_c, 0, 70, 68
1, 175075, Control_c, 0, 64, 77
1, 175090, Control_c, 0, 64, 68
1, 175094, Note_on_c, 0, 49, 29
1, 175105, Control_c, 0, 64, 0
1, 175137, Poly_aftertouch_c, 0, 52, 127
1, 175176, Poly_aftertouch_c, 0, 52, 0
1, 175179, Control_c, 0, 64, 54
1, 175193, Control_c, 0, 64, 65
1, 175208, Control_c, 0, 64, 68
1, 175223, Control_c, 0, 64, 71
1, 175238, Control_c, 0, 64, 74
1, 175253, Control_c, 0, 64, 77
1, 175259, Note_off_c, 0, 70, 49
1, 175268, Control_c, 0, 64, 80
1, 175271, Note_on_c, 0, 64, 39
1, 175283, Control_c, 0, 64, 81
1, 175295, Note_on_c, 0, 61, 24
1, 175298, Control_c, 0, 64, 82
1, 175312, Control_c, 0, 64, 83
1, 175313, Note_on_c, 0, 52, 3
1, 175315, Note_off_c, 0, 49, 38
1, 175327, Control_c, 0, 64, 83
1, 175333, Note_off_c, 0, 64, 46
1, 175342, Control_c, 0, 64, 84
1, 175357, Control_c, 0, 64, 84
1, 175372, Control_c, 0, 64, 85
1, 175463, Note_off_c, 0, 52, 42
1, 175494, Note_on_c, 0, 39, 31
1, 175539, Note_off_c, 0, 61, 42
1, 175543, Note_on_c, 0, 68, 54
1, 175544, Control_c, 0, 64, 83
1, 175558, Control_c, 0, 64, 77
1, 175573, Control_c, 0, 64, 66
1, 175588, Control_c, 0, 64, 0
1, 175677, Control_c, 0, 64, 57
1, 175691, Control_c, 0, 64, 65
1, 175706, Control_c, 0, 64, 68
1, 175721, Control_c, 0, 64, 69
1, 175736, Control_c, 0, 64, 70
1, 175751, Control_c, 0, 64, 73
1, 175766, Control_c, 0, 64, 76
1, 175777, Note_on_c, 0, 51, 33
1, 175780, Control_c, 0, 64, 79
1, 175786, Note_on_c, 0, 58, 35
1, 175788, Note_on_c, 0, 61, 35
1, 175795, Control_c, 0, 64, 81
1, 175822, Note_off_c, 0, 51, 45
1, 175825, Control_c, 0, 64, 81
1, 175833, Note_off_c, 0, 58, 45
1, 175837, Note_off_c, 0, 61, 44
1, 175870, Control_c, 0, 64, 82
1, 175884, Control_c, 0, 64, 82
1, 175899, Control_c, 0, 64, 83
1, 175914, Control_c, 0, 64, 83
1, 175953, Note_on_c, 0, 51, 37
1, 175958, Note_on_c, 0, 61, 45
1, 175970, Note_on_c, 0, 58, 28
1, 175996, Note_off_c, 0, 61, 47
1, 175998, Note_off_c, 0, 51, 46
1, 176007, Note_off_c, 0, 58, 49
1, 176132, Note_on_c, 0, 51, 18
1, 176139, Note_on_c, 0, 58, 26
1, 176142, Note_on_c, 0, 61, 26
1, 176172, Note_off_c, 0, 58, 52
1, 176174, Note_off_c, 0, 51, 49
1, 176185, Note_off_c, 0, 61, 44
1, 176308, Note_on_c, 0, 51, 29
1, 176308, Note_on_c, 0, 61, 34
1, 176317, Note_on_c, 0, 58, 14
1, 176341, Note_off_c, 0, 61, 50
1, 176345, Note_off_c, 0, 51, 52
1, 176362, Note_off_c, 0, 58, 49
1, 176451, Note_on_c, 0, 58, 28
1, 176462, Note_on_c, 0, 61, 38
1, 176474, Note_on_c, 0, 51, 15
1, 176502, Note_off_c, 0, 39, 0
1, 176505, Note_off_c, 0, 61, 46
1, 176513, Note_off_c, 0, 51, 50
1, 176522, Note_off_c, 0, 58, 38
1, 176539, Poly_aftertouch_c, 0, 39, 127
1, 176623, Note_on_c, 0, 58, 21
1, 176628, Note_on_c, 0, 51, 41
1, 176632, Note_on_c, 0, 61, 41
1, 176664, Note_off_c, 0, 51, 49
1, 176666, Poly_aftertouch_c, 0, 39, 0
1, 176669, Note_off_c, 0, 61, 48
1, 176675, Note_off_c, 0, 58, 43
1, 176704, Poly_aftertouch_c, 0, 39, 127
1, 176794, Note_on_c, 0, 58, 14
1, 176794, Note_on_c, 0, 61, 41
1, 176803, Note_on_c, 0, 51, 31
1, 176829, Note_off_c, 0, 61, 48
1, 176839, Note_off_c, 0, 58, 46
1, 176842, Note_off_c, 0, 51, 46
1, 176957, Note_on_c, 0, 58, 18
1, 176970, Note_on_c, 0, 61, 38
1, 176975, Note_on_c, 0, 51, 26
1, 177012, Note_off_c, 0, 51, 49
1, 177012, Note_off_c, 0, 61, 46
1, 177017, Note_off_c, 0, 58, 41
1, 177134, Note_on_c, 0, 51, 28
1, 177134, Note_on_c, 0, 58, 4
1, 177140, Note_on_c, 0, 61, 39
1, 177179, Note_off_c, 0, 51, 47
1, 177179, Note_off_c, 0, 61, 47
1, 177186, Note_off_c, 0, 58, 48
1, 177304, Note_on_c, 0, 51, 33
1, 177319, Note_on_c, 0, 61, 21
1, 177337, Note_off_c, 0, 51, 50
1, 177345, Poly_aftertouch_c, 0, 58, 127
1, 177358, Note_off_c, 0, 61, 49
1, 177383, Poly_aftertouch_c, 0, 58, 0
1, 177470, Poly_aftertouch_c, 0, 39, 0
1, 177495, Note_on_c, 0, 51, 26
1, 177506, Note_on_c, 0, 58, 21
1, 177512, Note_on_c, 0, 61, 26
1, 177523, Note_off_c, 0, 68, 40
1, 177644, Note_off_c, 0, 51, 21
1, 177718, Note_on_c, 0, 39, 30
1, 177745, Control_c, 0, 64, 81
1, 177760, Control_c, 0, 64, 75
1, 177775, Control_c, 0, 64, 64
1, 177780, Note_off_c, 0, 58, 41
1, 177786, Note_on_c, 0, 67, 53
1, 177790, Control_c, 0, 64, 0
1, 177821, Note_off_c, 0, 61, 37
1, 177879, Control_c, 0, 64, 58
1, 177894, Control_c, 0, 64, 64
1, 177909, Control_c, 0, 64, 66
1, 177924, Control_c, 0, 64, 67
1, 177939, Control_c, 0, 64, 68
1, 177954, Control_c, 0, 64, 71
1, 177968, Control_c, 0, 64, 73
1, 177983, Control_c, 0, 64, 75
1, 177998, Control_c, 0, 64, 76
1, 178002, Note_on_c, 0, 61, 37
1, 178004, Note_on_c, 0, 51, 35
1, 178009, Note_on_c, 0, 58, 30
1, 178013, Control_c, 0, 64, 77
1, 178028, Control_c, 0, 64, 78
1, 178043, Control_c, 0, 64, 79
1, 178049, Note_off_c, 0, 51, 46
1, 178050, Note_off_c, 0, 58, 47
1, 178058, Control_c, 0, 64, 80
1, 178059, Note_off_c, 0, 61, 41
1, 178073, Control_c, 0, 64, 80
1, 178117, Control_c, 0, 64, 81
1, 178202, Note_on_c, 0, 51, 28
1, 178207, Note_on_c, 0, 61, 37
1, 178219, Note_on_c, 0, 58, 8
1, 178240, Note_off_c, 0, 51, 50
1, 178251, Note_off_c, 0, 61, 45
1, 178264, Note_off_c, 0, 58, 49
1, 178375, Note_on_c, 0, 51, 31
1, 178389, Note_on_c, 0, 58, 22
1, 178393, Note_on_c, 0, 61, 20
1, 178422, Note_off_c, 0, 51, 45
1, 178434, Note_off_c, 0, 58, 49
1, 178437, Note_off_c, 0, 61, 51
1, 178559, Note_on_c, 0, 58, 24
1, 178564, Note_on_c, 0, 51, 12
1, 178580, Note_on_c, 0, 61, 17
1, 178603, Note_off_c, 0, 58, 47
1, 178612, Note_off_c, 0, 51, 47
1, 178624, Note_off_c, 0, 61, 49
1, 178738, Note_on_c, 0, 51, 28
1, 178746, Note_on_c, 0, 61, 35
1, 178749, Note_on_c, 0, 58, 4
1, 178785, Note_off_c, 0, 61, 46
1, 178787, Note_off_c, 0, 51, 47
1, 178797, Note_off_c, 0, 58, 47
1, 178919, Note_on_c, 0, 51, 23
1, 178922, Note_on_c, 0, 61, 37
1, 178923, Note_on_c, 0, 58, 19
1, 178967, Note_off_c, 0, 51, 46
1, 178971, Note_off_c, 0, 61, 43
1, 178973, Note_off_c, 0, 58, 44
1, 179116, Note_on_c, 0, 61, 25
1, 179122, Note_on_c, 0, 51, 27
1, 179124, Note_on_c, 0, 58, 4
1, 179161, Note_off_c, 0, 61, 44
1, 179166, Note_off_c, 0, 51, 47
1, 179172, Note_off_c, 0, 58, 46
1, 179325, Note_on_c, 0, 58, 13
1, 179325, Note_on_c, 0, 61, 27
1, 179328, Note_on_c, 0, 51, 31
1, 179368, Note_off_c, 0, 51, 47
1, 179372, Note_off_c, 0, 61, 43
1, 179373, Note_off_c, 0, 58, 45
1, 179534, Note_on_c, 0, 51, 24
1, 179552, Note_on_c, 0, 58, 17
1, 179555, Note_on_c, 0, 61, 29
1, 179581, Note_off_c, 0, 51, 46
1, 179598, Note_off_c, 0, 58, 47
1, 179601, Note_off_c, 0, 61, 43
1, 179802, Note_on_c, 0, 51, 31
1, 179824, Note_on_c, 0, 61, 22
1, 179846, Poly_aftertouch_c, 0, 58, 127
1, 179852, Note_off_c, 0, 51, 43
1, 179890, Poly_aftertouch_c, 0, 58, 0
1, 179957, Note_off_c, 0, 61, 24
1, 180150, Note_on_c, 0, 58, 18
1, 180159, Note_on_c, 0, 61, 22
1, 180161, Note_on_c, 0, 51, 26
1, 180161, Note_off_c, 0, 39, 15
1, 180197, Note_off_c, 0, 58, 45
1, 180248, Note_off_c, 0, 61, 0
1, 180250, Note_off_c, 0, 67, 36
1, 180285, Poly_aftertouch_c, 0, 61, 127
1, 180294, Note_off_c, 0, 51, 23
1, 180356, Poly_aftertouch_c, 0, 61, 0
1, 180629, Control_c, 0, 64, 80
1, 180800, Control_c, 0, 64, 79
1, 180814, Control_c, 0, 64, 76
1, 180829, Control_c, 0, 64, 66
1, 180844, Control_c, 0, 64, 0
1, 180859, Note_on_c, 0, 39, 14
1, 180872, Note_on_c, 0, 67, 32
1, 180918, Control_c, 0, 64, 59
1, 180933, Control_c, 0, 64, 66
1, 180943, Note_off_c, 0, 39, 53
1, 180948, Control_c, 0, 64, 70
1, 180962, Control_c, 0, 64, 73
1, 180977, Control_c, 0, 64, 76
1, 180992, Control_c, 0, 64, 79
1, 181006, Control_c, 0, 64, 81
1, 181018, Note_off_c, 0, 67, 51
1, 181021, Control_c, 0, 64, 82
1, 181035, Note_on_c, 0, 70, 50
1, 181036, Control_c, 0, 64, 83
1, 181051, Control_c, 0, 64, 83
1, 181081, Control_c, 0, 64, 84
1, 181111, Control_c, 0, 64, 84
1, 181134, Note_on_c, 0, 67, 54
1, 181152, Note_off_c, 0, 70, 36
1, 181185, Note_off_c, 0, 67, 60
1, 181215, Control_c, 0, 64, 85
1, 181247, Note_on_c, 0, 64, 35
1, 181289, Control_c, 0, 64, 84
1, 181292, Note_off_c, 0, 64, 47
1, 181304, Control_c, 0, 64, 79
1, 181310, Note_on_c, 0, 61, 46
1, 181314, Note_on_c, 0, 58, 45
1, 181319, Control_c, 0, 64, 71
1, 181332, Note_on_c, 0, 51, 35
1, 181334, Control_c, 0, 64, 53
1, 181341, Note_on_c, 0, 70, 52
1, 181349, Control_c, 0, 64, 0
1, 181378, Control_c, 0, 64, 58
1, 181393, Control_c, 0, 64, 67
1, 181408, Control_c, 0, 64, 69
1, 181428, Note_off_c, 0, 70, 60
1, 181429, Control_c, 0, 64, 70
1, 181441, Note_on_c, 0, 73, 55
1, 181507, Note_off_c, 0, 73, 57
1, 181519, Control_c, 0, 64, 70
1, 181525, Note_on_c, 0, 70, 64
1, 181534, Control_c, 0, 64, 69
1, 181549, Control_c, 0, 64, 68
1, 181563, Control_c, 0, 64, 66
1, 181564, Note_off_c, 0, 70, 65
1, 181578, Control_c, 0, 64, 64
1, 181593, Control_c, 0, 64, 59
1, 181598, Note_on_c, 0, 67, 63
1, 181608, Control_c, 0, 64, 55
1, 181623, Control_c, 0, 64, 50
1, 181637, Control_c, 0, 64, 45
1, 181652, Control_c, 0, 64, 37
1, 181653, Note_off_c, 0, 67, 52
1, 181667, Control_c, 0, 64, 25
1, 181677, Note_on_c, 0, 73, 69
1, 181682, Control_c, 0, 64, 0
1, 181736, Note_off_c, 0, 73, 63
1, 181752, Note_on_c, 0, 76, 62
1, 181770, Control_c, 0, 64, 11
1, 181785, Control_c, 0, 64, 14
1, 181800, Control_c, 0, 64, 16
1, 181810, Note_off_c, 0, 76, 65
1, 181815, Note_on_c, 0, 73, 65
1, 181815, Control_c, 0, 64, 20
1, 181829, Control_c, 0, 64, 23
1, 181844, Control_c, 0, 64, 26
1, 181870, Note_off_c, 0, 73, 60
1, 181892, Note_on_c, 0, 70, 72
1, 181905, Control_c, 0, 64, 23
1, 181920, Control_c, 0, 64, 20
1, 181934, Control_c, 0, 64, 18
1, 181949, Control_c, 0, 64, 16
1, 181952, Note_off_c, 0, 70, 63
1, 181964, Control_c, 0, 64, 11
1, 181979, Control_c, 0, 64, 0
1, 181985, Note_on_c, 0, 76, 62
1, 182051, Note_off_c, 0, 76, 67
1, 182054, Note_on_c, 0, 79, 67
1, 182121, Note_off_c, 0, 79, 61
1, 182137, Note_on_c, 0, 76, 62
1, 182167, Note_off_c, 0, 76, 63
1, 182219, Note_on_c, 0, 73, 68
1, 182253, Note_off_c, 0, 73, 57
1, 182296, Note_on_c, 0, 79, 69
1, 182364, Note_on_c, 0, 82, 75
1, 182365, Note_off_c, 0, 79, 62
1, 182434, Note_off_c, 0, 82, 63
1, 182441, Note_on_c, 0, 79, 67
1, 182468, Note_off_c, 0, 79, 64
1, 182517, Note_on_c, 0, 76, 62
1, 182535, Note_off_c, 0, 76, 65
1, 182595, Note_on_c, 0, 82, 71
1, 182653, Control_c, 0, 64, 42
1, 182668, Note_off_c, 0, 82, 62
1, 182668, Control_c, 0, 64, 59
1, 182673, Note_on_c, 0, 85, 71
1, 182683, Control_c, 0, 64, 65
1, 182699, Control_c, 0, 64, 68
1, 182714, Control_c, 0, 64, 72
1, 182729, Control_c, 0, 64, 76
1, 182735, Note_off_c, 0, 51, 40
1, 182741, Note_off_c, 0, 58, 37
1, 182744, Control_c, 0, 64, 79
1, 182745, Note_off_c, 0, 61, 39
1, 182758, Control_c, 0, 64, 80
1, 182760, Note_off_c, 0, 85, 61
1, 182771, Note_on_c, 0, 82, 71
1, 182773, Control_c, 0, 64, 80
1, 182802, Control_c, 0, 64, 81
1, 182848, Note_off_c, 0, 82, 60
1, 182857, Note_on_c, 0, 79, 61
1, 182967, Note_on_c, 0, 51, 42
1, 182974, Note_on_c, 0, 61, 44
1, 182984, Note_on_c, 0, 58, 35
1, 182988, Control_c, 0, 64, 79
1, 183001, Note_on_c, 0, 55, 37
1, 183002, Control_c, 0, 64, 74
1, 183017, Control_c, 0, 64, 66
1, 183029, Note_on_c, 0, 85, 65
1, 183032, Control_c, 0, 64, 34
1, 183047, Control_c, 0, 64, 26
1, 183062, Control_c, 0, 64, 56
1, 183076, Control_c, 0, 64, 64
1, 183083, Note_off_c, 0, 79, 37
1, 183091, Control_c, 0, 64, 68
1, 183106, Control_c, 0, 64, 71
1, 183121, Control_c, 0, 64, 72
1, 183134, Note_off_c, 0, 85, 64
1, 183148, Note_on_c, 0, 88, 76
1, 183228, Note_off_c, 0, 88, 62
1, 183233, Note_on_c, 0, 85, 73
1, 183283, Control_c, 0, 64, 71
1, 183298, Control_c, 0, 64, 71
1, 183299, Note_off_c, 0, 85, 64
1, 183310, Note_on_c, 0, 82, 75
1, 183313, Control_c, 0, 64, 70
1, 183328, Control_c, 0, 64, 68
1, 183343, Control_c, 0, 64, 66
1, 183358, Control_c, 0, 64, 63
1, 183373, Control_c, 0, 64, 59
1, 183388, Control_c, 0, 64, 56
1, 183391, Note_on_c, 0, 85, 76
1, 183402, Control_c, 0, 64, 53
1, 183410, Note_off_c, 0, 82, 59
1, 183417, Control_c, 0, 64, 49
1, 183432, Control_c, 0, 64, 44
1, 183447, Control_c, 0, 64, 39
1, 183461, Note_on_c, 0, 88, 78
1, 183461, Note_off_c, 0, 85, 65
1, 183462, Control_c, 0, 64, 34
1, 183476, Control_c, 0, 64, 27
1, 183491, Control_c, 0, 64, 20
1, 183507, Control_c, 0, 64, 11
1, 183522, Control_c, 0, 64, 0
1, 183538, Note_off_c, 0, 88, 63
1, 183540, Note_on_c, 0, 85, 72
1, 183602, Note_off_c, 0, 85, 65
1, 183610, Note_on_c, 0, 82, 77
1, 183697, Note_on_c, 0, 85, 74
1, 183713, Note_off_c, 0, 82, 62
1, 183755, Note_off_c, 0, 85, 65
1, 183760, Note_on_c, 0, 88, 77
1, 183834, Note_off_c, 0, 88, 63
1, 183843, Note_on_c, 0, 85, 73
1, 183900, Note_off_c, 0, 85, 65
1, 183910, Note_on_c, 0, 82, 75
1, 183997, Note_on_c, 0, 85, 70
1, 183998, Note_off_c, 0, 82, 61
1, 184046, Note_off_c, 0, 85, 60
1, 184062, Note_on_c, 0, 88, 70
1, 184126, Note_off_c, 0, 88, 61
1, 184145, Note_on_c, 0, 85, 63
1, 184189, Note_off_c, 0, 85, 61
1, 184217, Note_on_c, 0, 82, 64
1, 184304, Note_on_c, 0, 85, 63
1, 184307, Note_off_c, 0, 82, 58
1, 184351, Note_off_c, 0, 85, 60
1, 184368, Note_on_c, 0, 88, 64
1, 184438, Note_off_c, 0, 88, 57
1, 184464, Note_on_c, 0, 85, 60
1, 184524, Note_off_c, 0, 85, 64
1, 184539, Note_on_c, 0, 82, 59
1, 184625, Note_off_c, 0, 82, 55
1, 184626, Note_on_c, 0, 85, 58
1, 184668, Note_off_c, 0, 85, 62
1, 184701, Note_on_c, 0, 88, 58
1, 184758, Note_off_c, 0, 88, 53
1, 184783, Note_on_c, 0, 85, 57
1, 184830, Note_off_c, 0, 85, 59
1, 184857, Note_on_c, 0, 82, 55
1, 184941, Note_off_c, 0, 82, 57
1, 184947, Note_on_c, 0, 85, 60
1, 185015, Note_off_c, 0, 85, 64
1, 185033, Note_on_c, 0, 87, 56
1, 185097, Note_off_c, 0, 87, 63
1, 185116, Note_on_c, 0, 85, 52
1, 185155, Note_off_c, 0, 85, 65
1, 185203, Note_on_c, 0, 82, 54
1, 185263, Note_off_c, 0, 82, 54
1, 185286, Note_on_c, 0, 85, 47
1, 185334, Note_off_c, 0, 85, 63
1, 185354, Note_on_c, 0, 87, 51
1, 185418, Note_off_c, 0, 87, 60
1, 185451, Note_on_c, 0, 85, 45
1, 185485, Note_off_c, 0, 85, 53
1, 185527, Note_on_c, 0, 82, 51
1, 185566, Note_off_c, 0, 82, 52
1, 185592, Note_on_c, 0, 85, 51
1, 185651, Note_off_c, 0, 85, 62
1, 185668, Note_on_c, 0, 87, 55
1, 185743, Note_off_c, 0, 87, 60
1, 185765, Note_on_c, 0, 85, 47
1, 185806, Note_off_c, 0, 85, 58
1, 185842, Note_on_c, 0, 82, 50
1, 185898, Note_off_c, 0, 82, 45
1, 185927, Note_on_c, 0, 85, 55
1, 185978, Note_off_c, 0, 85, 61
1, 186007, Note_on_c, 0, 87, 49
1, 186072, Note_off_c, 0, 87, 57
1, 186097, Note_on_c, 0, 85, 49
1, 186148, Note_off_c, 0, 85, 59
1, 186187, Note_on_c, 0, 82, 40
1, 186235, Note_off_c, 0, 82, 44
1, 186266, Note_on_c, 0, 85, 51
1, 186318, Note_off_c, 0, 85, 56
1, 186353, Note_on_c, 0, 87, 43
1, 186353, Control_c, 0, 64, 14
1, 186368, Control_c, 0, 64, 40
1, 186383, Control_c, 0, 64, 50
1, 186398, Control_c, 0, 64, 55
1, 186413, Control_c, 0, 64, 59
1, 186427, Control_c, 0, 64, 62
1, 186438, Note_off_c, 0, 87, 51
1, 186442, Control_c, 0, 64, 64
1, 186451, Note_on_c, 0, 85, 43
1, 186457, Control_c, 0, 64, 65
1, 186472, Control_c, 0, 64, 67
1, 186487, Control_c, 0, 64, 68
1, 186501, Control_c, 0, 64, 70
1, 186516, Control_c, 0, 64, 71
1, 186523, Note_off_c, 0, 85, 52
1, 186531, Control_c, 0, 64, 74
1, 186545, Control_c, 0, 64, 76
1, 186552, Note_on_c, 0, 82, 35
1, 186560, Control_c, 0, 64, 77
1, 186575, Control_c, 0, 64, 78
1, 186605, Control_c, 0, 64, 78
1, 186655, Note_on_c, 0, 85, 53
1, 186655, Note_off_c, 0, 82, 42
1, 186672, Control_c, 0, 64, 79
1, 186676, Note_off_c, 0, 61, 36
1, 186700, Note_off_c, 0, 58, 33
1, 186705, Note_off_c, 0, 55, 42
1, 186747, Control_c, 0, 64, 79
1, 186747, Note_off_c, 0, 51, 27
1, 186749, Note_off_c, 0, 85, 56
1, 186786, Note_on_c, 0, 87, 40
1, 186836, Control_c, 0, 64, 80
1, 186889, Note_off_c, 0, 87, 47
1, 186900, Note_on_c, 0, 85, 39
1, 187063, Note_on_c, 0, 82, 18
1, 187117, Note_off_c, 0, 82, 45
1, 187198, Note_off_c, 0, 85, 0
1, 187236, Poly_aftertouch_c, 0, 85, 127
1, 187346, Poly_aftertouch_c, 0, 85, 0
1, 187349, Note_on_c, 0, 44, 35
1, 187354, Control_c, 0, 64, 79
1, 187368, Control_c, 0, 64, 75
1, 187383, Control_c, 0, 64, 67
1, 187398, Control_c, 0, 64, 46
1, 187421, Control_c, 0, 64, 30
1, 187436, Control_c, 0, 64, 55
1, 187436, Note_on_c, 0, 83, 39
1, 187450, Control_c, 0, 64, 64
1, 187465, Control_c, 0, 64, 68
1, 187480, Control_c, 0, 64, 72
1, 187495, Control_c, 0, 64, 75
1, 187510, Control_c, 0, 64, 77
1, 187525, Control_c, 0, 64, 79
1, 187533, Note_off_c, 0, 44, 53
1, 187540, Control_c, 0, 64, 80
1, 187555, Control_c, 0, 64, 80
1, 187568, Note_off_c, 0, 83, 52
1, 187570, Control_c, 0, 64, 81
1, 187587, Note_on_c, 0, 87, 44
1, 187599, Control_c, 0, 64, 81
1, 187644, Control_c, 0, 64, 82
1, 187668, Note_off_c, 0, 87, 46
1, 187669, Note_on_c, 0, 83, 61
1, 187731, Note_off_c, 0, 83, 56
1, 187752, Note_on_c, 0, 80, 66
1, 187788, Note_off_c, 0, 80, 62
1, 187806, Control_c, 0, 64, 81
1, 187821, Control_c, 0, 64, 81
1, 187836, Control_c, 0, 64, 79
1, 187844, Note_on_c, 0, 80, 55
1, 187845, Note_on_c, 0, 56, 45
1, 187850, Note_on_c, 0, 59, 39
1, 187851, Control_c, 0, 64, 77
1, 187861, Note_on_c, 0, 63, 35
1, 187865, Control_c, 0, 64, 74
1, 187880, Control_c, 0, 64, 70
1, 187895, Control_c, 0, 64, 65
1, 187910, Control_c, 0, 64, 58
1, 187921, Note_off_c, 0, 80, 63
1, 187925, Control_c, 0, 64, 47
1, 187932, Note_on_c, 0, 83, 61
1, 187940, Control_c, 0, 64, 41
1, 187954, Control_c, 0, 64, 40
1, 187969, Control_c, 0, 64, 40
1, 187982, Note_off_c, 0, 83, 58
1, 187984, Control_c, 0, 64, 39
1, 187996, Note_on_c, 0, 80, 66
1, 187999, Control_c, 0, 64, 34
1, 188014, Control_c, 0, 64, 33
1, 188044, Control_c, 0, 64, 32
1, 188045, Note_off_c, 0, 80, 63
1, 188073, Control_c, 0, 64, 30
1, 188085, Note_on_c, 0, 75, 61
1, 188088, Control_c, 0, 64, 28
1, 188103, Control_c, 0, 64, 25
1, 188111, Note_off_c, 0, 75, 66
1, 188117, Control_c, 0, 64, 18
1, 188132, Control_c, 0, 64, 0
1, 188179, Note_on_c, 0, 75, 58
1, 188250, Note_off_c, 0, 75, 62
1, 188253, Note_on_c, 0, 80, 66
1, 188328, Note_on_c, 0, 75, 61
1, 188330, Note_off_c, 0, 80, 62
1, 188391, Note_off_c, 0, 75, 64
1, 188408, Note_on_c, 0, 71, 66
1, 188444, Note_off_c, 0, 71, 58
1, 188501, Note_on_c, 0, 71, 54
1, 188555, Note_off_c, 0, 71, 54
1, 188584, Note_on_c, 0, 75, 59
1, 188634, Note_off_c, 0, 75, 61
1, 188658, Note_on_c, 0, 71, 70
1, 188702, Note_off_c, 0, 71, 61
1, 188743, Note_on_c, 0, 68, 62
1, 188782, Note_off_c, 0, 68, 61
1, 188821, Note_on_c, 0, 68, 59
1, 188867, Note_off_c, 0, 59, 48
1, 188896, Note_off_c, 0, 68, 63
1, 188916, Note_on_c, 0, 71, 64
1, 188930, Note_off_c, 0, 63, 43
1, 188942, Note_off_c, 0, 56, 53
1, 188978, Note_off_c, 0, 71, 61
1, 188998, Note_on_c, 0, 68, 63
1, 189040, Note_off_c, 0, 68, 64
1, 189079, Note_on_c, 0, 63, 50
1, 189109, Note_off_c, 0, 63, 57
1, 189176, Note_on_c, 0, 67, 44
1, 189180, Note_on_c, 0, 70, 52
1, 189190, Note_on_c, 0, 58, 35
1, 189207, Note_on_c, 0, 51, 30
1, 189217, Note_on_c, 0, 63, 32
1, 189236, Note_off_c, 0, 67, 55
1, 189245, Control_c, 0, 64, 56
1, 189254, Note_off_c, 0, 58, 54
1, 189260, Control_c, 0, 64, 65
1, 189265, Note_off_c, 0, 63, 49
1, 189272, Note_off_c, 0, 51, 47
1, 189275, Control_c, 0, 64, 68
1, 189285, Note_off_c, 0, 70, 50
1, 189290, Control_c, 0, 64, 71
1, 189305, Control_c, 0, 64, 74
1, 189319, Control_c, 0, 64, 78
1, 189334, Control_c, 0, 64, 81
1, 189349, Control_c, 0, 64, 81
1, 189393, Control_c, 0, 64, 82
1, 189423, Control_c, 0, 64, 82
1, 189437, Control_c, 0, 64, 83
1, 189467, Control_c, 0, 64, 83
1, 189541, Control_c, 0, 64, 83
1, 189556, Control_c, 0, 64, 79
1, 189570, Note_on_c, 0, 44, 46
1, 189570, Control_c, 0, 64, 71
1, 189583, Note_on_c, 0, 83, 57
1, 189585, Control_c, 0, 64, 55
1, 189600, Control_c, 0, 64, 0
1, 189615, Control_c, 0, 64, 34
1, 189630, Control_c, 0, 64, 64
1, 189645, Control_c, 0, 64, 69
1, 189667, Control_c, 0, 64, 73
1, 189677, Note_off_c, 0, 83, 54
1, 189682, Control_c, 0, 64, 76
1, 189697, Control_c, 0, 64, 79
1, 189698, Note_on_c, 0, 87, 54
1, 189698, Note_off_c, 0, 44, 54
1, 189711, Control_c, 0, 64, 80
1, 189726, Control_c, 0, 64, 81
1, 189741, Control_c, 0, 64, 81
1, 189749, Note_off_c, 0, 87, 55
1, 189777, Note_on_c, 0, 83, 67
1, 189800, Control_c, 0, 64, 82
1, 189833, Note_off_c, 0, 83, 56
1, 189854, Note_on_c, 0, 80, 71
1, 189884, Note_off_c, 0, 80, 64
1, 189943, Note_on_c, 0, 80, 66
1, 189949, Control_c, 0, 64, 81
1, 189959, Note_on_c, 0, 63, 47
1, 189962, Note_on_c, 0, 56, 47
1, 189964, Control_c, 0, 64, 80
1, 189977, Note_on_c, 0, 59, 31
1, 189979, Control_c, 0, 64, 77
1, 189993, Control_c, 0, 64, 70
1, 190008, Control_c, 0, 64, 55
1, 190023, Note_off_c, 0, 80, 63
1, 190023, Control_c, 0, 64, 0
1, 190034, Note_on_c, 0, 83, 63
1, 190053, Control_c, 0, 64, 25
1, 190068, Control_c, 0, 64, 51
1, 190083, Control_c, 0, 64, 57
1, 190095, Note_off_c, 0, 83, 59
1, 190107, Note_on_c, 0, 80, 68
1, 190113, Control_c, 0, 64, 56
1, 190128, Control_c, 0, 64, 55
1, 190142, Control_c, 0, 64, 54
1, 190151, Note_off_c, 0, 80, 63
1, 190157, Control_c, 0, 64, 53
1, 190172, Control_c, 0, 64, 51
1, 190179, Note_on_c, 0, 75, 72
1, 190186, Control_c, 0, 64, 48
1, 190201, Control_c, 0, 64, 46
1, 190212, Note_off_c, 0, 75, 66
1, 190216, Control_c, 0, 64, 42
1, 190231, Control_c, 0, 64, 38
1, 190246, Control_c, 0, 64, 32
1, 190260, Control_c, 0, 64, 23
1, 190275, Note_on_c, 0, 75, 60
1, 190275, Control_c, 0, 64, 0
1, 190353, Note_on_c, 0, 80, 67
1, 190360, Note_off_c, 0, 75, 62
1, 190437, Note_on_c, 0, 75, 57
1, 190442, Note_off_c, 0, 80, 61
1, 190506, Note_off_c, 0, 75, 65
1, 190526, Note_on_c, 0, 71, 68
1, 190559, Note_off_c, 0, 71, 60
1, 190619, Note_on_c, 0, 71, 63
1, 190689, Note_off_c, 0, 71, 58
1, 190707, Note_on_c, 0, 75, 61
1, 190751, Note_off_c, 0, 75, 63
1, 190784, Note_on_c, 0, 71, 59
1, 190821, Note_off_c, 0, 71, 61
1, 190866, Note_on_c, 0, 68, 62
1, 190897, Note_off_c, 0, 68, 66
1, 190948, Note_on_c, 0, 68, 59
1, 191016, Note_off_c, 0, 59, 45
1, 191019, Note_off_c, 0, 68, 62
1, 191029, Note_on_c, 0, 71, 65
1, 191050, Note_off_c, 0, 63, 50
1, 191103, Note_off_c, 0, 71, 61
1, 191114, Note_off_c, 0, 56, 36
1, 191129, Note_on_c, 0, 68, 52
1, 191171, Note_off_c, 0, 68, 58
1, 191216, Note_on_c, 0, 63, 38
1, 191255, Note_off_c, 0, 63, 52
1, 191328, Note_on_c, 0, 67, 47
1, 191333, Note_on_c, 0, 70, 52
1, 191337, Note_on_c, 0, 58, 33
1, 191343, Note_on_c, 0, 51, 36
1, 191386, Note_on_c, 0, 63, 23
1, 191400, Control_c, 0, 67, 127
1, 191415, Control_c, 0, 67, 116
1, 191430, Control_c, 0, 64, 62
1, 191430, Control_c, 0, 67, 104
1, 191445, Control_c, 0, 64, 67
1, 191445, Control_c, 0, 67, 91
1, 191460, Control_c, 0, 64, 70
1, 191460, Control_c, 0, 67, 75
1, 191469, Note_off_c, 0, 67, 37
1, 191475, Control_c, 0, 64, 73
1, 191475, Control_c, 0, 67, 59
1, 191490, Control_c, 0, 64, 76
1, 191490, Control_c, 0, 67, 41
1, 191504, Note_off_c, 0, 51, 32
1, 191505, Control_c, 0, 64, 78
1, 191505, Control_c, 0, 67, 28
1, 191505, Note_off_c, 0, 58, 42
1, 191513, Note_off_c, 0, 63, 40
1, 191520, Control_c, 0, 64, 79
1, 191520, Control_c, 0, 67, 18
1, 191526, Note_off_c, 0, 70, 63
1, 191535, Control_c, 0, 67, 13
1, 191549, Control_c, 0, 67, 10
1, 191564, Control_c, 0, 67, 8
1, 191579, Control_c, 0, 67, 0
1, 191653, Control_c, 0, 64, 78
1, 191668, Control_c, 0, 64, 75
1, 191683, Control_c, 0, 64, 68
1, 191698, Control_c, 0, 64, 41
1, 191707, Note_on_c, 0, 71, 64
1, 191712, Control_c, 0, 64, 0
1, 191719, Note_on_c, 0, 68, 53
1, 191729, Note_on_c, 0, 56, 45
1, 191738, Note_on_c, 0, 59, 40
1, 191749, Note_on_c, 0, 63, 41
1, 191756, Control_c, 0, 64, 39
1, 191771, Control_c, 0, 64, 63
1, 191786, Control_c, 0, 64, 67
1, 191801, Control_c, 0, 64, 70
1, 191807, Note_off_c, 0, 68, 49
1, 191815, Note_off_c, 0, 56, 51
1, 191816, Control_c, 0, 64, 73
1, 191830, Control_c, 0, 64, 75
1, 191845, Control_c, 0, 64, 76
1, 191853, Note_off_c, 0, 71, 56
1, 191861, Control_c, 0, 64, 78
1, 191864, Note_off_c, 0, 59, 32
1, 191876, Control_c, 0, 64, 79
1, 191891, Control_c, 0, 64, 79
1, 191913, Control_c, 0, 64, 80
1, 191936, Note_off_c, 0, 63, 39
1, 192017, Control_c, 0, 64, 80
1, 192106, Note_on_c, 0, 76, 75
1, 192106, Control_c, 0, 64, 78
1, 192118, Note_on_c, 0, 67, 57
1, 192120, Control_c, 0, 64, 71
1, 192122, Note_on_c, 0, 70, 56
1, 192127, Note_on_c, 0, 58, 45
1, 192128, Note_on_c, 0, 64, 44
1, 192135, Control_c, 0, 64, 57
1, 192137, Note_on_c, 0, 51, 36
1, 192150, Control_c, 0, 64, 0
1, 192201, Note_off_c, 0, 67, 0
1, 192201, Note_on_c, 0, 67, 20
1, 192209, Control_c, 0, 64, 57
1, 192224, Control_c, 0, 64, 66
1, 192238, Control_c, 0, 64, 69
1, 192253, Control_c, 0, 64, 72
1, 192268, Control_c, 0, 64, 75
1, 192284, Control_c, 0, 64, 78
1, 192299, Control_c, 0, 64, 80
1, 192314, Control_c, 0, 64, 81
1, 192328, Control_c, 0, 64, 82
1, 192339, Note_off_c, 0, 51, 36
1, 192343, Control_c, 0, 64, 84
1, 192347, Note_off_c, 0, 76, 55
1, 192348, Note_off_c, 0, 70, 58
1, 192350, Note_off_c, 0, 64, 38
1, 192351, Note_off_c, 0, 67, 41
1, 192358, Note_off_c, 0, 58, 35
1, 192358, Control_c, 0, 64, 85
1, 192373, Control_c, 0, 64, 86
1, 192387, Control_c, 0, 64, 87
1, 192402, Control_c, 0, 64, 89
1, 192417, Control_c, 0, 64, 90
1, 192477, Control_c, 0, 64, 89
1, 192488, Note_on_c, 0, 76, 77
1, 192491, Control_c, 0, 64, 84
1, 192497, Note_on_c, 0, 70, 56
1, 192498, Note_on_c, 0, 58, 47
1, 192506, Control_c, 0, 64, 72
1, 192508, Note_on_c, 0, 67, 47
1, 192510, Note_on_c, 0, 51, 42
1, 192516, Note_on_c, 0, 64, 33
1, 192521, Control_c, 0, 64, 0
1, 192578, Note_off_c, 0, 67, 0
1, 192578, Note_on_c, 0, 67, 15
1, 192640, Control_c, 0, 64, 46
1, 192661, Control_c, 0, 64, 68
1, 192676, Control_c, 0, 64, 73
1, 192691, Control_c, 0, 64, 81
1, 192706, Control_c, 0, 64, 86
1, 192708, Note_off_c, 0, 76, 55
1, 192718, Note_off_c, 0, 67, 41
1, 192721, Control_c, 0, 64, 89
1, 192735, Note_off_c, 0, 64, 41
1, 192736, Control_c, 0, 64, 91
1, 192737, Note_off_c, 0, 70, 40
1, 192740, Note_off_c, 0, 51, 36
1, 192749, Note_off_c, 0, 58, 35
1, 192751, Control_c, 0, 64, 92
1, 192766, Control_c, 0, 64, 93
1, 192781, Control_c, 0, 64, 94
1, 192869, Control_c, 0, 64, 91
1, 192884, Control_c, 0, 64, 84
1, 192884, Control_c, 0, 67, 8
1, 192887, Note_on_c, 0, 76, 69
1, 192889, Note_on_c, 0, 58, 51
1, 192899, Control_c, 0, 64, 72
1, 192899, Control_c, 0, 67, 10
1, 192906, Note_on_c, 0, 51, 33
1, 192906, Note_on_c, 0, 67, 38
1, 192911, Note_on_c, 0, 70, 38
1, 192913, Control_c, 0, 64, 31
1, 192913, Control_c, 0, 67, 13
1, 192917, Note_on_c, 0, 64, 28
1, 192928, Control_c, 0, 64, 0
1, 192928, Control_c, 0, 67, 15
1, 192943, Control_c, 0, 67, 17
1, 192958, Control_c, 0, 67, 18
1, 192973, Control_c, 0, 67, 20
1, 192987, Control_c, 0, 64, 53
1, 192987, Control_c, 0, 67, 22
1, 193002, Control_c, 0, 64, 64
1, 193002, Control_c, 0, 67, 27
1, 193017, Control_c, 0, 64, 67
1, 193017, Control_c, 0, 67, 32
1, 193032, Control_c, 0, 64, 70
1, 193032, Control_c, 0, 67, 37
1, 193043, Note_off_c, 0, 76, 56
1, 193047, Control_c, 0, 64, 73
1, 193047, Control_c, 0, 67, 42
1, 193054, Note_off_c, 0, 64, 41
1, 193061, Control_c, 0, 64, 77
1, 193061, Control_c, 0, 67, 48
1, 193064, Note_off_c, 0, 51, 40
1, 193073, Note_off_c, 0, 67, 38
1, 193076, Control_c, 0, 64, 80
1, 193076, Control_c, 0, 67, 54
1, 193077, Note_off_c, 0, 58, 35
1, 193092, Control_c, 0, 64, 81
1, 193092, Control_c, 0, 67, 59
1, 193107, Control_c, 0, 64, 81
1, 193107, Control_c, 0, 67, 65
1, 193122, Control_c, 0, 67, 69
1, 193128, Note_off_c, 0, 70, 47
1, 193137, Control_c, 0, 67, 72
1, 193152, Control_c, 0, 64, 82
1, 193152, Control_c, 0, 67, 75
1, 193166, Control_c, 0, 67, 77
1, 193181, Control_c, 0, 67, 79
1, 193196, Control_c, 0, 67, 81
1, 193210, Control_c, 0, 67, 84
1, 193225, Control_c, 0, 67, 87
1, 193240, Control_c, 0, 67, 90
1, 193255, Control_c, 0, 64, 81
1, 193255, Control_c, 0, 67, 94
1, 193270, Control_c, 0, 64, 78
1, 193270, Control_c, 0, 67, 98
1, 193284, Control_c, 0, 64, 70
1, 193284, Control_c, 0, 67, 101
1, 193296, Note_on_c, 0, 75, 57
1, 193299, Note_on_c, 0, 58, 39
1, 193299, Control_c, 0, 64, 51
1, 193299, Control_c, 0, 67, 104
1, 193314, Control_c, 0, 64, 0
1, 193314, Control_c, 0, 67, 108
1, 193316, Note_on_c, 0, 63, 31
1, 193316, Note_on_c, 0, 70, 46
1, 193326, Note_on_c, 0, 67, 30
1, 193329, Control_c, 0, 67, 112
1, 193335, Note_on_c, 0, 51, 29
1, 193344, Control_c, 0, 67, 118
1, 193359, Control_c, 0, 67, 124
1, 193374, Control_c, 0, 67, 127
1, 193425, Control_c, 0, 64, 62
1, 193440, Control_c, 0, 64, 66
1, 193455, Control_c, 0, 64, 69
1, 193466, Note_off_c, 0, 63, 42
1, 193469, Note_off_c, 0, 75, 59
1, 193470, Control_c, 0, 64, 73
1, 193475, Note_off_c, 0, 67, 39
1, 193477, Note_off_c, 0, 70, 55
1, 193481, Note_off_c, 0, 51, 46
1, 193484, Control_c, 0, 64, 76
1, 193489, Note_off_c, 0, 58, 40
1, 193499, Control_c, 0, 64, 79
1, 193514, Control_c, 0, 64, 80
1, 193529, Control_c, 0, 64, 81
1, 193588, Control_c, 0, 64, 81
1, 193678, Control_c, 0, 64, 81
1, 193692, Control_c, 0, 64, 78
1, 193707, Control_c, 0, 64, 71
1, 193722, Control_c, 0, 64, 55
1, 193728, Note_on_c, 0, 73, 50
1, 193733, Note_on_c, 0, 67, 38
1, 193735, Note_on_c, 0, 70, 41
1, 193736, Control_c, 0, 64, 0
1, 193737, Note_on_c, 0, 51, 32
1, 193742, Note_on_c, 0, 58, 34
1, 193744, Note_on_c, 0, 61, 35
1, 193812, Note_off_c, 0, 67, 36
1, 193821, Note_off_c, 0, 58, 56
1, 193825, Control_c, 0, 64, 62
1, 193832, Note_off_c, 0, 61, 50
1, 193840, Control_c, 0, 64, 68
1, 193848, Note_off_c, 0, 51, 47
1, 193855, Control_c, 0, 64, 71
1, 193870, Control_c, 0, 64, 75
1, 193886, Control_c, 0, 64, 80
1, 193887, Note_off_c, 0, 70, 43
1, 193901, Control_c, 0, 64, 82
1, 193915, Control_c, 0, 64, 83
1, 193925, Note_off_c, 0, 73, 57
1, 193930, Control_c, 0, 64, 84
1, 193959, Control_c, 0, 64, 84
1, 194174, Control_c, 0, 64, 82
1, 194189, Control_c, 0, 64, 77
1, 194204, Note_on_c, 0, 44, 41
1, 194204, Control_c, 0, 64, 68
1, 194219, Control_c, 0, 64, 43
1, 194221, Note_on_c, 0, 83, 49
1, 194233, Control_c, 0, 64, 36
1, 194248, Control_c, 0, 64, 56
1, 194263, Control_c, 0, 64, 64
1, 194278, Control_c, 0, 64, 68
1, 194293, Control_c, 0, 64, 70
1, 194301, Note_off_c, 0, 83, 33
1, 194307, Control_c, 0, 64, 73
1, 194317, Note_off_c, 0, 44, 55
1, 194322, Control_c, 0, 64, 75
1, 194324, Note_on_c, 0, 87, 62
1, 194337, Control_c, 0, 64, 76
1, 194352, Control_c, 0, 64, 77
1, 194366, Control_c, 0, 64, 78
1, 194381, Control_c, 0, 64, 78
1, 194388, Note_off_c, 0, 87, 60
1, 194396, Control_c, 0, 64, 79
1, 194409, Note_on_c, 0, 83, 70
1, 194411, Control_c, 0, 64, 79
1, 194458, Note_off_c, 0, 83, 49
1, 194484, Note_on_c, 0, 80, 65
1, 194515, Note_off_c, 0, 80, 63
1, 194572, Note_on_c, 0, 59, 49
1, 194572, Note_on_c, 0, 63, 49
1, 194574, Note_on_c, 0, 80, 59
1, 194574, Control_c, 0, 64, 79
1, 194588, Note_on_c, 0, 56, 38
1, 194589, Control_c, 0, 64, 78
1, 194604, Control_c, 0, 64, 76
1, 194619, Control_c, 0, 64, 74
1, 194633, Control_c, 0, 64, 71
1, 194648, Control_c, 0, 64, 68
1, 194658, Note_off_c, 0, 80, 63
1, 194663, Control_c, 0, 64, 65
1, 194666, Note_on_c, 0, 83, 74
1, 194679, Control_c, 0, 64, 62
1, 194694, Control_c, 0, 64, 59
1, 194709, Control_c, 0, 64, 58
1, 194724, Control_c, 0, 64, 58
1, 194738, Control_c, 0, 64, 57
1, 194741, Note_off_c, 0, 83, 59
1, 194751, Note_on_c, 0, 80, 68
1, 194753, Control_c, 0, 64, 56
1, 194768, Control_c, 0, 64, 55
1, 194782, Control_c, 0, 64, 53
1, 194787, Note_off_c, 0, 80, 60
1, 194797, Control_c, 0, 64, 52
1, 194812, Control_c, 0, 64, 50
1, 194826, Note_on_c, 0, 75, 61
1, 194827, Control_c, 0, 64, 48
1, 194842, Control_c, 0, 64, 45
1, 194856, Control_c, 0, 64, 40
1, 194858, Note_off_c, 0, 75, 65
1, 194871, Control_c, 0, 64, 34
1, 194886, Control_c, 0, 64, 18
1, 194909, Control_c, 0, 64, 0
1, 194923, Note_on_c, 0, 75, 65
1, 194998, Note_off_c, 0, 75, 61
1, 195001, Note_on_c, 0, 80, 70
1, 195083, Note_on_c, 0, 75, 70
1, 195085, Note_off_c, 0, 80, 61
1, 195137, Note_off_c, 0, 75, 65
1, 195168, Note_on_c, 0, 71, 69
1, 195195, Note_off_c, 0, 71, 63
1, 195253, Note_on_c, 0, 71, 58
1, 195308, Note_off_c, 0, 71, 52
1, 195333, Note_on_c, 0, 75, 63
1, 195378, Note_off_c, 0, 75, 62
1, 195407, Note_on_c, 0, 71, 66
1, 195438, Note_off_c, 0, 71, 62
1, 195477, Note_on_c, 0, 68, 65
1, 195508, Note_off_c, 0, 68, 65
1, 195564, Note_on_c, 0, 68, 61
1, 195606, Note_off_c, 0, 59, 55
1, 195631, Note_off_c, 0, 68, 62
1, 195640, Note_on_c, 0, 71, 69
1, 195678, Note_off_c, 0, 63, 56
1, 195702, Note_off_c, 0, 71, 58
1, 195714, Note_off_c, 0, 56, 42
1, 195731, Note_on_c, 0, 68, 63
1, 195777, Note_off_c, 0, 68, 65
1, 195804, Note_on_c, 0, 63, 62
1, 195844, Note_off_c, 0, 63, 62
1, 195909, Note_on_c, 0, 67, 45
1, 195911, Note_on_c, 0, 70, 54
1, 195930, Note_on_c, 0, 58, 34
1, 195940, Note_on_c, 0, 51, 34
1, 195954, Note_on_c, 0, 63, 8
1, 195998, Control_c, 0, 64, 41
1, 196003, Note_off_c, 0, 67, 58
1, 196010, Note_off_c, 0, 63, 54
1, 196011, Note_off_c, 0, 58, 48
1, 196012, Control_c, 0, 64, 67
1, 196021, Note_off_c, 0, 51, 60
1, 196027, Control_c, 0, 64, 73
1, 196038, Note_off_c, 0, 70, 53
1, 196042, Control_c, 0, 64, 79
1, 196057, Control_c, 0, 64, 82
1, 196072, Control_c, 0, 64, 83
1, 196086, Control_c, 0, 64, 84
1, 196101, Control_c, 0, 64, 84
1, 196131, Control_c, 0, 64, 85
1, 196176, Control_c, 0, 64, 85
1, 196265, Control_c, 0, 64, 83
1, 196280, Control_c, 0, 64, 79
1, 196295, Control_c, 0, 64, 70
1, 196310, Control_c, 0, 64, 43
1, 196319, Note_on_c, 0, 83, 53
1, 196325, Control_c, 0, 64, 0
1, 196369, Control_c, 0, 64, 62
1, 196369, Control_c, 0, 67, 126
1, 196384, Control_c, 0, 64, 67
1, 196384, Control_c, 0, 67, 126
1, 196406, Control_c, 0, 64, 70
1, 196415, Note_off_c, 0, 83, 55
1, 196421, Control_c, 0, 64, 74
1, 196423, Note_on_c, 0, 87, 63
1, 196435, Control_c, 0, 64, 76
1, 196435, Control_c, 0, 67, 125
1, 196438, Note_on_c, 0, 44, 44
1, 196450, Control_c, 0, 64, 78
1, 196465, Control_c, 0, 64, 79
1, 196468, Note_off_c, 0, 44, 52
1, 196480, Control_c, 0, 64, 79
1, 196480, Control_c, 0, 67, 125
1, 196491, Note_off_c, 0, 87, 59
1, 196495, Control_c, 0, 64, 80
1, 196513, Note_on_c, 0, 83, 59
1, 196525, Control_c, 0, 67, 125
1, 196554, Note_off_c, 0, 83, 53
1, 196587, Note_on_c, 0, 80, 66
1, 196620, Note_off_c, 0, 80, 64
1, 196643, Control_c, 0, 67, 125
1, 196673, Control_c, 0, 64, 78
1, 196680, Note_on_c, 0, 80, 71
1, 196688, Control_c, 0, 64, 72
1, 196699, Note_on_c, 0, 63, 50
1, 196701, Note_on_c, 0, 56, 52
1, 196702, Control_c, 0, 64, 59
1, 196702, Control_c, 0, 67, 124
1, 196703, Note_on_c, 0, 59, 45
1, 196717, Control_c, 0, 64, 0
1, 196732, Control_c, 0, 67, 124
1, 196752, Note_off_c, 0, 80, 62
1, 196754, Note_off_c, 0, 63, 0
1, 196754, Note_on_c, 0, 63, 6
1, 196763, Note_on_c, 0, 83, 68
1, 196776, Control_c, 0, 64, 51
1, 196791, Control_c, 0, 64, 64
1, 196806, Control_c, 0, 64, 66
1, 196821, Control_c, 0, 64, 67
1, 196821, Control_c, 0, 67, 124
1, 196826, Note_off_c, 0, 83, 60
1, 196833, Note_on_c, 0, 80, 70
1, 196835, Control_c, 0, 64, 68
1, 196850, Control_c, 0, 67, 124
1, 196865, Control_c, 0, 64, 68
1, 196882, Note_off_c, 0, 80, 62
1, 196909, Control_c, 0, 64, 68
1, 196921, Note_on_c, 0, 75, 64
1, 196939, Control_c, 0, 64, 67
1, 196949, Note_off_c, 0, 75, 68
1, 196954, Control_c, 0, 64, 66
1, 196969, Control_c, 0, 64, 64
1, 196984, Control_c, 0, 64, 62
1, 196984, Control_c, 0, 67, 123
1, 196999, Control_c, 0, 64, 58
1, 197013, Note_on_c, 0, 75, 68
1, 197013, Control_c, 0, 64, 54
1, 197028, Control_c, 0, 64, 48
1, 197043, Control_c, 0, 64, 40
1, 197058, Control_c, 0, 64, 29
1, 197073, Note_off_c, 0, 75, 59
1, 197073, Control_c, 0, 64, 0
1, 197082, Note_on_c, 0, 80, 73
1, 197176, Note_off_c, 0, 80, 61
1, 197178, Note_on_c, 0, 75, 72
1, 197233, Note_off_c, 0, 75, 62
1, 197244, Control_c, 0, 67, 123
1, 197255, Note_on_c, 0, 71, 68
1, 197258, Control_c, 0, 67, 122
1, 197273, Control_c, 0, 67, 121
1, 197285, Note_off_c, 0, 71, 62
1, 197288, Control_c, 0, 67, 118
1, 197303, Control_c, 0, 67, 117
1, 197318, Control_c, 0, 67, 116
1, 197332, Control_c, 0, 67, 115
1, 197347, Control_c, 0, 67, 114
1, 197354, Note_on_c, 0, 71, 51
1, 197362, Control_c, 0, 67, 112
1, 197377, Control_c, 0, 67, 111
1, 197392, Control_c, 0, 67, 109
1, 197407, Control_c, 0, 67, 109
1, 197409, Note_off_c, 0, 71, 56
1, 197422, Control_c, 0, 67, 108
1, 197431, Note_on_c, 0, 75, 57
1, 197472, Note_off_c, 0, 75, 63
1, 197506, Note_on_c, 0, 71, 58
1, 197525, Control_c, 0, 67, 108
1, 197543, Note_off_c, 0, 71, 60
1, 197587, Note_on_c, 0, 68, 60
1, 197620, Note_off_c, 0, 68, 66
1, 197625, Note_off_c, 0, 59, 48
1, 197644, Control_c, 0, 67, 107
1, 197658, Control_c, 0, 67, 107
1, 197671, Note_on_c, 0, 68, 64
1, 197673, Control_c, 0, 67, 106
1, 197688, Control_c, 0, 67, 105
1, 197702, Control_c, 0, 67, 104
1, 197714, Note_off_c, 0, 63, 46
1, 197717, Control_c, 0, 67, 104
1, 197732, Control_c, 0, 67, 103
1, 197744, Note_off_c, 0, 68, 62
1, 197756, Note_on_c, 0, 71, 61
1, 197762, Control_c, 0, 67, 103
1, 197777, Control_c, 0, 67, 102
1, 197787, Note_off_c, 0, 56, 30
1, 197806, Control_c, 0, 67, 102
1, 197818, Note_off_c, 0, 71, 61
1, 197831, Note_on_c, 0, 68, 65
1, 197866, Control_c, 0, 67, 101
1, 197882, Note_off_c, 0, 68, 63
1, 197882, Control_c, 0, 67, 101
1, 197905, Control_c, 0, 67, 100
1, 197920, Control_c, 0, 67, 98
1, 197927, Note_on_c, 0, 63, 56
1, 197934, Control_c, 0, 67, 96
1, 197949, Control_c, 0, 67, 94
1, 197964, Control_c, 0, 67, 92
1, 197977, Note_off_c, 0, 63, 56
1, 197979, Control_c, 0, 67, 90
1, 197994, Control_c, 0, 67, 88
1, 198008, Control_c, 0, 67, 86
1, 198023, Control_c, 0, 67, 84
1, 198033, Note_on_c, 0, 70, 58
1, 198034, Note_on_c, 0, 67, 44
1, 198038, Control_c, 0, 67, 82
1, 198042, Note_on_c, 0, 58, 34
1, 198049, Note_on_c, 0, 51, 32
1, 198053, Control_c, 0, 67, 80
1, 198068, Control_c, 0, 67, 76
1, 198072, Note_on_c, 0, 63, 26
1, 198082, Control_c, 0, 67, 73
1, 198097, Control_c, 0, 67, 69
1, 198112, Control_c, 0, 67, 63
1, 198126, Control_c, 0, 64, 48
1, 198126, Control_c, 0, 67, 56
1, 198141, Control_c, 0, 64, 66
1, 198141, Control_c, 0, 67, 46
1, 198156, Control_c, 0, 64, 70
1, 198156, Control_c, 0, 67, 37
1, 198158, Note_off_c, 0, 58, 52
1, 198167, Note_off_c, 0, 67, 41
1, 198171, Control_c, 0, 64, 74
1, 198171, Control_c, 0, 67, 25
1, 198186, Control_c, 0, 64, 76
1, 198186, Control_c, 0, 67, 16
1, 198196, Note_off_c, 0, 63, 41
1, 198197, Note_off_c, 0, 70, 63
1, 198200, Control_c, 0, 64, 77
1, 198200, Control_c, 0, 67, 8
1, 198215, Control_c, 0, 67, 0
1, 198216, Note_off_c, 0, 51, 38
1, 198304, Control_c, 0, 64, 77
1, 198319, Control_c, 0, 64, 76
1, 198334, Control_c, 0, 64, 72
1, 198349, Control_c, 0, 64, 67
1, 198364, Control_c, 0, 64, 55
1, 198379, Control_c, 0, 64, 0
1, 198395, Note_on_c, 0, 71, 62
1, 198409, Note_on_c, 0, 68, 56
1, 198413, Note_on_c, 0, 56, 43
1, 198414, Note_on_c, 0, 63, 45
1, 198421, Note_on_c, 0, 59, 46
1, 198468, Control_c, 0, 64, 30
1, 198482, Control_c, 0, 64, 63
1, 198492, Note_off_c, 0, 56, 53
1, 198497, Control_c, 0, 64, 67
1, 198512, Control_c, 0, 64, 70
1, 198522, Note_off_c, 0, 68, 49
1, 198526, Control_c, 0, 64, 73
1, 198531, Note_off_c, 0, 71, 57
1, 198541, Control_c, 0, 64, 76
1, 198543, Note_off_c, 0, 59, 38
1, 198556, Control_c, 0, 64, 78
1, 198571, Control_c, 0, 64, 79
1, 198584, Note_off_c, 0, 63, 42
1, 198586, Control_c, 0, 64, 80
1, 198599, Control_c, 0, 64, 80
1, 198786, Control_c, 0, 64, 79
1, 198792, Note_on_c, 0, 76, 73
1, 198799, Note_on_c, 0, 66, 61
1, 198799, Note_on_c, 0, 70, 62
1, 198801, Control_c, 0, 64, 75
1, 198814, Note_on_c, 0, 64, 42
1, 198815, Note_on_c, 0, 54, 41
1, 198815, Note_on_c, 0, 58, 39
1, 198816, Control_c, 0, 64, 67
1, 198830, Control_c, 0, 64, 33
1, 198845, Control_c, 0, 64, 0
1, 198873, Note_off_c, 0, 66, 0
1, 198873, Note_on_c, 0, 66, 6
1, 198904, Control_c, 0, 64, 56
1, 198919, Control_c, 0, 64, 66
1, 198934, Control_c, 0, 64, 71
1, 198948, Control_c, 0, 64, 75
1, 198963, Control_c, 0, 64, 78
1, 198978, Control_c, 0, 64, 80
1, 198993, Control_c, 0, 64, 82
1, 199008, Control_c, 0, 64, 83
1, 199023, Control_c, 0, 64, 84
1, 199024, Note_off_c, 0, 64, 48
1, 199029, Note_off_c, 0, 58, 56
1, 199030, Note_off_c, 0, 76, 60
1, 199033, Note_off_c, 0, 70, 61
1, 199037, Note_off_c, 0, 54, 38
1, 199037, Control_c, 0, 64, 85
1, 199042, Note_off_c, 0, 66, 42
1, 199052, Control_c, 0, 64, 85
1, 199067, Control_c, 0, 64, 86
1, 199082, Control_c, 0, 64, 86
1, 199097, Control_c, 0, 64, 87
1, 199171, Control_c, 0, 64, 86
1, 199175, Note_on_c, 0, 76, 72
1, 199184, Note_on_c, 0, 70, 58
1, 199185, Note_on_c, 0, 66, 54
1, 199186, Control_c, 0, 64, 82
1, 199201, Control_c, 0, 64, 74
1, 199201, Note_on_c, 0, 54, 44
1, 199201, Note_on_c, 0, 58, 34
1, 199213, Note_on_c, 0, 64, 37
1, 199216, Control_c, 0, 64, 62
1, 199230, Control_c, 0, 64, 0
1, 199264, Note_off_c, 0, 66, 0
1, 199264, Note_on_c, 0, 66, 14
1, 199283, Note_off_c, 0, 54, 0
1, 199283, Note_on_c, 0, 54, 7
1, 199289, Control_c, 0, 64, 60
1, 199304, Control_c, 0, 64, 68
1, 199319, Control_c, 0, 64, 73
1, 199334, Control_c, 0, 64, 76
1, 199343, Note_off_c, 0, 76, 58
1, 199348, Control_c, 0, 64, 77
1, 199354, Note_off_c, 0, 70, 58
1, 199365, Note_off_c, 0, 66, 39
1, 199396, Note_off_c, 0, 58, 35
1, 199398, Note_off_c, 0, 54, 32
1, 199401, Control_c, 0, 64, 78
1, 199406, Note_off_c, 0, 64, 39
1, 199445, Control_c, 0, 64, 78
1, 199460, Control_c, 0, 64, 79
1, 199476, Control_c, 0, 64, 80
1, 199535, Control_c, 0, 64, 79
1, 199550, Control_c, 0, 64, 75
1, 199554, Note_on_c, 0, 76, 68
1, 199562, Note_on_c, 0, 66, 56
1, 199565, Control_c, 0, 64, 66
1, 199568, Note_on_c, 0, 70, 56
1, 199578, Note_on_c, 0, 64, 30
1, 199579, Note_on_c, 0, 54, 25
1, 199579, Note_on_c, 0, 58, 22
1, 199579, Control_c, 0, 64, 0
1, 199654, Note_off_c, 0, 58, 0
1, 199668, Control_c, 0, 64, 63
1, 199683, Control_c, 0, 64, 68
1, 199691, Poly_aftertouch_c, 0, 58, 127
1, 199697, Control_c, 0, 64, 71
1, 199698, Note_off_c, 0, 64, 54
1, 199712, Control_c, 0, 64, 73
1, 199714, Note_off_c, 0, 66, 45
1, 199714, Note_off_c, 0, 76, 56
1, 199727, Control_c, 0, 64, 75
1, 199729, Note_off_c, 0, 54, 38
1, 199730, Note_off_c, 0, 70, 57
1, 199742, Control_c, 0, 64, 77
1, 199756, Poly_aftertouch_c, 0, 58, 0
1, 199757, Control_c, 0, 64, 79
1, 199771, Control_c, 0, 64, 79
1, 199816, Control_c, 0, 67, 8
1, 199831, Control_c, 0, 64, 80
1, 199831, Control_c, 0, 67, 9
1, 199845, Control_c, 0, 67, 11
1, 199860, Control_c, 0, 67, 13
1, 199875, Control_c, 0, 67, 15
1, 199890, Control_c, 0, 67, 18
1, 199905, Control_c, 0, 67, 20
1, 199920, Control_c, 0, 64, 79
1, 199920, Control_c, 0, 67, 21
1, 199935, Control_c, 0, 64, 75
1, 199935, Control_c, 0, 67, 23
1, 199944, Note_on_c, 0, 75, 62
1, 199946, Note_on_c, 0, 58, 26
1, 199946, Note_on_c, 0, 63, 46
1, 199949, Note_on_c, 0, 66, 51
1, 199950, Control_c, 0, 64, 65
1, 199950, Control_c, 0, 67, 25
1, 199952, Note_on_c, 0, 70, 47
1, 199964, Note_on_c, 0, 54, 35
1, 199965, Control_c, 0, 64, 0
1, 199965, Control_c, 0, 67, 28
1, 199979, Control_c, 0, 67, 30
1, 199994, Control_c, 0, 67, 31
1, 200039, Control_c, 0, 67, 32
1, 200053, Control_c, 0, 67, 32
1, 200068, Control_c, 0, 64, 52
1, 200068, Control_c, 0, 67, 33
1, 200083, Control_c, 0, 64, 65
1, 200083, Control_c, 0, 67, 36
1, 200097, Control_c, 0, 64, 68
1, 200097, Control_c, 0, 67, 39
1, 200105, Note_off_c, 0, 58, 33
1, 200112, Control_c, 0, 64, 71
1, 200112, Control_c, 0, 67, 41
1, 200113, Note_off_c, 0, 54, 41
1, 200116, Note_off_c, 0, 70, 49
1, 200120, Note_off_c, 0, 75, 56
1, 200127, Control_c, 0, 64, 75
1, 200127, Control_c, 0, 67, 44
1, 200149, Note_off_c, 0, 63, 38
1, 200149, Control_c, 0, 64, 78
1, 200149, Control_c, 0, 67, 46
1, 200152, Note_off_c, 0, 66, 39
1, 200164, Control_c, 0, 64, 80
1, 200164, Control_c, 0, 67, 47
1, 200179, Control_c, 0, 64, 80
1, 200179, Control_c, 0, 67, 48
1, 200194, Control_c, 0, 64, 81
1, 200194, Control_c, 0, 67, 50
1, 200209, Control_c, 0, 64, 82
1, 200209, Control_c, 0, 67, 51
1, 200224, Control_c, 0, 64, 83
1, 200224, Control_c, 0, 67, 52
1, 200239, Control_c, 0, 64, 84
1, 200239, Control_c, 0, 67, 55
1, 200253, Control_c, 0, 67, 58
1, 200268, Control_c, 0, 67, 61
1, 200284, Control_c, 0, 64, 83
1, 200284, Control_c, 0, 67, 65
1, 200298, Control_c, 0, 64, 79
1, 200298, Control_c, 0, 67, 69
1, 200313, Control_c, 0, 64, 70
1, 200313, Control_c, 0, 67, 73
1, 200319, Note_on_c, 0, 74, 53
1, 200325, Note_on_c, 0, 70, 48
1, 200328, Control_c, 0, 64, 33
1, 200328, Control_c, 0, 67, 79
1, 200334, Note_on_c, 0, 66, 34
1, 200340, Note_on_c, 0, 62, 42
1, 200343, Control_c, 0, 64, 0
1, 200343, Control_c, 0, 67, 85
1, 200348, Note_on_c, 0, 54, 38
1, 200356, Note_on_c, 0, 58, 23
1, 200358, Control_c, 0, 67, 90
1, 200373, Control_c, 0, 67, 93
1, 200388, Control_c, 0, 64, 54
1, 200388, Control_c, 0, 67, 96
1, 200402, Control_c, 0, 64, 66
1, 200402, Control_c, 0, 67, 100
1, 200417, Control_c, 0, 64, 69
1, 200417, Control_c, 0, 67, 103
1, 200432, Control_c, 0, 64, 71
1, 200432, Control_c, 0, 67, 105
1, 200434, Note_off_c, 0, 58, 49
1, 200441, Note_off_c, 0, 66, 37
1, 200447, Note_off_c, 0, 74, 58
1, 200447, Control_c, 0, 64, 73
1, 200447, Control_c, 0, 67, 106
1, 200454, Note_off_c, 0, 70, 53
1, 200460, Note_off_c, 0, 54, 37
1, 200461, Note_off_c, 0, 62, 43
1, 200462, Control_c, 0, 64, 75
1, 200462, Control_c, 0, 67, 107
1, 200476, Control_c, 0, 64, 77
1, 200491, Control_c, 0, 64, 79
1, 200491, Control_c, 0, 67, 106
1, 200506, Control_c, 0, 64, 79
1, 200506, Control_c, 0, 67, 106
1, 200535, Control_c, 0, 67, 105
1, 200550, Control_c, 0, 64, 80
1, 200550, Control_c, 0, 67, 105
1, 200565, Control_c, 0, 67, 104
1, 200580, Control_c, 0, 67, 103
1, 200594, Control_c, 0, 67, 101
1, 200609, Control_c, 0, 67, 100
1, 200624, Control_c, 0, 67, 99
1, 200639, Control_c, 0, 67, 98
1, 200654, Control_c, 0, 67, 96
1, 200668, Control_c, 0, 67, 94
1, 200683, Control_c, 0, 64, 80
1, 200683, Control_c, 0, 67, 93
1, 200698, Control_c, 0, 64, 81
1, 200698, Control_c, 0, 67, 91
1, 200713, Control_c, 0, 67, 89
1, 200728, Control_c, 0, 67, 87
1, 200743, Control_c, 0, 67, 83
1, 200757, Control_c, 0, 64, 79
1, 200757, Control_c, 0, 67, 81
1, 200772, Control_c, 0, 64, 72
1, 200772, Control_c, 0, 67, 79
1, 200781, Note_on_c, 0, 47, 43
1, 200787, Control_c, 0, 64, 61
1, 200787, Control_c, 0, 67, 79
1, 200799, Note_on_c, 0, 87, 46
1, 200802, Control_c, 0, 64, 0
1, 200802, Control_c, 0, 67, 78
1, 200817, Control_c, 0, 67, 77
1, 200832, Control_c, 0, 67, 74
1, 200847, Control_c, 0, 64, 57
1, 200847, Control_c, 0, 67, 73
1, 200861, Control_c, 0, 64, 65
1, 200861, Control_c, 0, 67, 72
1, 200876, Note_off_c, 0, 87, 52
1, 200876, Control_c, 0, 64, 68
1, 200876, Control_c, 0, 67, 71
1, 200886, Note_on_c, 0, 90, 65
1, 200898, Control_c, 0, 64, 69
1, 200898, Control_c, 0, 67, 71
1, 200913, Control_c, 0, 64, 71
1, 200918, Note_off_c, 0, 47, 52
1, 200927, Control_c, 0, 64, 74
1, 200927, Control_c, 0, 67, 70
1, 200942, Control_c, 0, 64, 77
1, 200942, Control_c, 0, 67, 69
1, 200957, Control_c, 0, 64, 79
1, 200957, Control_c, 0, 67, 68
1, 200972, Control_c, 0, 64, 80
1, 200972, Control_c, 0, 67, 67
1, 200978, Note_on_c, 0, 87, 70
1, 200980, Note_off_c, 0, 90, 57
1, 200987, Control_c, 0, 67, 66
1, 201002, Control_c, 0, 64, 80
1, 201002, Control_c, 0, 67, 65
1, 201017, Control_c, 0, 64, 81
1, 201017, Control_c, 0, 67, 65
1, 201032, Control_c, 0, 64, 81
1, 201032, Control_c, 0, 67, 64
1, 201038, Note_off_c, 0, 87, 63
1, 201046, Control_c, 0, 64, 82
1, 201046, Control_c, 0, 67, 64
1, 201057, Note_on_c, 0, 83, 69
1, 201061, Control_c, 0, 64, 83
1, 201061, Control_c, 0, 67, 63
1, 201077, Control_c, 0, 64, 84
1, 201077, Control_c, 0, 67, 63
1, 201091, Note_off_c, 0, 83, 57
1, 201092, Control_c, 0, 67, 62
1, 201106, Control_c, 0, 67, 62
1, 201136, Control_c, 0, 64, 81
1, 201145, Note_on_c, 0, 83, 60
1, 201151, Note_on_c, 0, 63, 61
1, 201151, Control_c, 0, 64, 74
1, 201152, Note_on_c, 0, 59, 53
1, 201157, Note_on_c, 0, 54, 52
1, 201166, Control_c, 0, 64, 63
1, 201166, Control_c, 0, 67, 61
1, 201181, Control_c, 0, 64, 0
1, 201181, Control_c, 0, 67, 60
1, 201196, Control_c, 0, 67, 59
1, 201211, Control_c, 0, 67, 59
1, 201220, Note_off_c, 0, 83, 57
1, 201225, Control_c, 0, 64, 53
1, 201234, Note_on_c, 0, 87, 66
1, 201240, Control_c, 0, 64, 65
1, 201255, Control_c, 0, 64, 68
1, 201255, Control_c, 0, 67, 59
1, 201270, Control_c, 0, 64, 70
1, 201285, Control_c, 0, 64, 71
1, 201285, Control_c, 0, 67, 60
1, 201299, Control_c, 0, 64, 72
1, 201299, Control_c, 0, 67, 60
1, 201305, Note_off_c, 0, 87, 60
1, 201312, Note_on_c, 0, 83, 69
1, 201314, Control_c, 0, 64, 73
1, 201314, Control_c, 0, 67, 61
1, 201329, Control_c, 0, 64, 74
1, 201329, Control_c, 0, 67, 61
1, 201343, Control_c, 0, 64, 74
1, 201358, Control_c, 0, 67, 62
1, 201363, Note_off_c, 0, 83, 61
1, 201373, Control_c, 0, 67, 62
1, 201388, Control_c, 0, 67, 63
1, 201392, Note_on_c, 0, 78, 73
1, 201424, Note_off_c, 0, 78, 60
1, 201432, Control_c, 0, 64, 74
1, 201447, Control_c, 0, 64, 73
1, 201462, Control_c, 0, 64, 71
1, 201470, Note_on_c, 0, 78, 66
1, 201477, Control_c, 0, 64, 66
1, 201477, Control_c, 0, 67, 62
1, 201491, Control_c, 0, 64, 59
1, 201506, Control_c, 0, 64, 25
1, 201521, Control_c, 0, 64, 0
1, 201545, Note_off_c, 0, 78, 63
1, 201553, Note_on_c, 0, 83, 65
1, 201565, Control_c, 0, 67, 63
1, 201596, Control_c, 0, 67, 63
1, 201612, Note_off_c, 0, 83, 59
1, 201617, Note_on_c, 0, 78, 71
1, 201625, Control_c, 0, 67, 64
1, 201670, Note_off_c, 0, 78, 63
1, 201677, Control_c, 0, 67, 64
1, 201692, Control_c, 0, 67, 65
1, 201711, Note_on_c, 0, 75, 71
1, 201738, Note_off_c, 0, 75, 66
1, 201766, Control_c, 0, 67, 64
1, 201803, Note_on_c, 0, 75, 60
1, 201811, Control_c, 0, 67, 65
1, 201853, Note_off_c, 0, 75, 62
1, 201855, Control_c, 0, 67, 64
1, 201872, Note_on_c, 0, 78, 71
1, 201946, Note_off_c, 0, 78, 62
1, 201954, Note_on_c, 0, 75, 67
1, 201960, Control_c, 0, 67, 64
1, 202015, Note_off_c, 0, 75, 64
1, 202019, Control_c, 0, 67, 63
1, 202036, Note_on_c, 0, 71, 64
1, 202064, Note_off_c, 0, 71, 65
1, 202078, Control_c, 0, 67, 64
1, 202108, Control_c, 0, 67, 65
1, 202123, Control_c, 0, 67, 66
1, 202127, Note_on_c, 0, 71, 59
1, 202138, Control_c, 0, 67, 67
1, 202153, Control_c, 0, 67, 68
1, 202167, Control_c, 0, 67, 69
1, 202179, Note_off_c, 0, 71, 54
1, 202182, Control_c, 0, 67, 69
1, 202191, Note_on_c, 0, 75, 66
1, 202197, Control_c, 0, 67, 71
1, 202212, Control_c, 0, 67, 72
1, 202222, Note_off_c, 0, 54, 56
1, 202226, Note_off_c, 0, 63, 53
1, 202227, Control_c, 0, 67, 74
1, 202241, Control_c, 0, 67, 75
1, 202251, Note_off_c, 0, 75, 63
1, 202257, Note_off_c, 0, 59, 37
1, 202271, Control_c, 0, 67, 76
1, 202277, Note_on_c, 0, 71, 66
1, 202300, Control_c, 0, 67, 76
1, 202309, Note_off_c, 0, 71, 61
1, 202330, Control_c, 0, 67, 77
1, 202350, Note_on_c, 0, 66, 59
1, 202395, Note_off_c, 0, 66, 64
1, 202441, Note_on_c, 0, 73, 58
1, 202451, Note_on_c, 0, 54, 44
1, 202456, Note_on_c, 0, 70, 49
1, 202456, Control_c, 0, 67, 76
1, 202460, Note_on_c, 0, 64, 38
1, 202486, Control_c, 0, 67, 75
1, 202500, Control_c, 0, 67, 74
1, 202515, Control_c, 0, 67, 73
1, 202525, Note_off_c, 0, 64, 46
1, 202530, Control_c, 0, 64, 64
1, 202530, Control_c, 0, 67, 72
1, 202532, Note_off_c, 0, 70, 39
1, 202545, Control_c, 0, 64, 71
1, 202545, Control_c, 0, 67, 71
1, 202550, Note_off_c, 0, 73, 59
1, 202552, Note_off_c, 0, 54, 57
1, 202560, Control_c, 0, 64, 76
1, 202560, Control_c, 0, 67, 70
1, 202574, Control_c, 0, 64, 81
1, 202574, Control_c, 0, 67, 69
1, 202589, Control_c, 0, 64, 85
1, 202589, Control_c, 0, 67, 68
1, 202604, Control_c, 0, 64, 88
1, 202604, Control_c, 0, 67, 67
1, 202619, Control_c, 0, 64, 88
1, 202634, Control_c, 0, 64, 89
1, 202634, Control_c, 0, 67, 66
1, 202664, Control_c, 0, 67, 65
1, 202709, Control_c, 0, 64, 89
1, 202723, Control_c, 0, 67, 66
1, 202738, Control_c, 0, 67, 66
1, 202753, Control_c, 0, 64, 89
1, 202768, Control_c, 0, 64, 88
1, 202783, Control_c, 0, 64, 85
1, 202797, Control_c, 0, 64, 79
1, 202797, Control_c, 0, 67, 66
1, 202807, Note_on_c, 0, 47, 52
1, 202812, Control_c, 0, 64, 69
1, 202827, Control_c, 0, 64, 26
1, 202827, Control_c, 0, 67, 65
1, 202842, Control_c, 0, 64, 0
1, 202845, Note_on_c, 0, 87, 59
1, 202871, Control_c, 0, 64, 57
1, 202886, Control_c, 0, 64, 65
1, 202886, Control_c, 0, 67, 65
1, 202901, Control_c, 0, 64, 68
1, 202916, Control_c, 0, 64, 70
1, 202919, Note_off_c, 0, 87, 62
1, 202926, Note_on_c, 0, 90, 70
1, 202931, Control_c, 0, 64, 73
1, 202931, Note_off_c, 0, 47, 62
1, 202945, Control_c, 0, 64, 76
1, 202960, Control_c, 0, 64, 79
1, 202975, Control_c, 0, 64, 81
1, 202990, Control_c, 0, 64, 83
1, 203005, Control_c, 0, 64, 85
1, 203007, Note_on_c, 0, 87, 76
1, 203017, Note_off_c, 0, 90, 61
1, 203020, Control_c, 0, 64, 87
1, 203035, Control_c, 0, 64, 88
1, 203035, Control_c, 0, 67, 65
1, 203050, Control_c, 0, 64, 89
1, 203064, Control_c, 0, 64, 89
1, 203075, Note_off_c, 0, 87, 63
1, 203083, Note_on_c, 0, 83, 74
1, 203107, Control_c, 0, 67, 65
1, 203111, Note_off_c, 0, 83, 61
1, 203159, Control_c, 0, 64, 89
1, 203172, Note_on_c, 0, 63, 69
1, 203174, Control_c, 0, 64, 84
1, 203175, Note_on_c, 0, 54, 59
1, 203181, Note_on_c, 0, 83, 61
1, 203182, Note_on_c, 0, 59, 53
1, 203189, Control_c, 0, 64, 76
1, 203203, Control_c, 0, 64, 63
1, 203218, Control_c, 0, 64, 0
1, 203218, Control_c, 0, 67, 64
1, 203233, Control_c, 0, 67, 64
1, 203258, Note_off_c, 0, 83, 58
1, 203263, Note_on_c, 0, 87, 73
1, 203277, Control_c, 0, 64, 56
1, 203292, Control_c, 0, 64, 65
1, 203307, Control_c, 0, 64, 67
1, 203321, Control_c, 0, 64, 68
1, 203321, Control_c, 0, 67, 65
1, 203326, Note_off_c, 0, 87, 61
1, 203336, Control_c, 0, 64, 69
1, 203343, Note_on_c, 0, 83, 69
1, 203351, Control_c, 0, 64, 69
1, 203351, Control_c, 0, 67, 65
1, 203396, Note_off_c, 0, 83, 60
1, 203419, Note_on_c, 0, 78, 75
1, 203440, Control_c, 0, 64, 69
1, 203455, Control_c, 0, 64, 67
1, 203458, Note_off_c, 0, 78, 60
1, 203471, Control_c, 0, 64, 65
1, 203486, Control_c, 0, 64, 60
1, 203500, Control_c, 0, 64, 47
1, 203502, Note_on_c, 0, 78, 59
1, 203515, Control_c, 0, 64, 22
1, 203530, Control_c, 0, 64, 0
1, 203583, Note_off_c, 0, 78, 63
1, 203588, Note_on_c, 0, 83, 69
1, 203645, Note_off_c, 0, 83, 58
1, 203663, Control_c, 0, 67, 66
1, 203670, Note_on_c, 0, 78, 70
1, 203693, Control_c, 0, 67, 66
1, 203716, Note_off_c, 0, 78, 63
1, 203754, Note_on_c, 0, 75, 68
1, 203788, Note_off_c, 0, 75, 62
1, 203851, Note_on_c, 0, 75, 60
1, 203870, Control_c, 0, 67, 66
1, 203926, Note_off_c, 0, 75, 62
1, 203938, Note_on_c, 0, 78, 68
1, 204019, Note_off_c, 0, 78, 62
1, 204022, Note_on_c, 0, 75, 65
1, 204056, Control_c, 0, 67, 65
1, 204074, Note_off_c, 0, 75, 61
1, 204099, Note_on_c, 0, 71, 64
1, 204115, Control_c, 0, 67, 65
1, 204129, Note_off_c, 0, 71, 63
1, 204144, Control_c, 0, 67, 64
1, 204174, Control_c, 0, 67, 63
1, 204180, Note_on_c, 0, 71, 64
1, 204189, Control_c, 0, 67, 62
1, 204204, Control_c, 0, 67, 59
1, 204218, Control_c, 0, 67, 55
1, 204233, Control_c, 0, 67, 50
1, 204247, Note_off_c, 0, 71, 57
1, 204248, Control_c, 0, 67, 45
1, 204254, Note_off_c, 0, 59, 55
1, 204264, Control_c, 0, 67, 41
1, 204265, Note_on_c, 0, 75, 62
1, 204279, Control_c, 0, 67, 37
1, 204290, Note_off_c, 0, 54, 56
1, 204293, Control_c, 0, 67, 35
1, 204308, Control_c, 0, 67, 33
1, 204309, Note_off_c, 0, 63, 45
1, 204323, Control_c, 0, 67, 31
1, 204325, Note_off_c, 0, 75, 63
1, 204338, Control_c, 0, 67, 30
1, 204348, Note_on_c, 0, 71, 57
1, 204353, Control_c, 0, 67, 29
1, 204367, Control_c, 0, 67, 28
1, 204382, Control_c, 0, 67, 26
1, 204388, Note_off_c, 0, 71, 60
1, 204397, Control_c, 0, 67, 25
1, 204412, Control_c, 0, 67, 23
1, 204427, Control_c, 0, 67, 21
1, 204433, Note_on_c, 0, 66, 50
1, 204442, Control_c, 0, 67, 19
1, 204457, Control_c, 0, 67, 17
1, 204469, Note_off_c, 0, 66, 59
1, 204472, Control_c, 0, 67, 15
1, 204486, Control_c, 0, 67, 12
1, 204501, Control_c, 0, 67, 8
1, 204516, Note_on_c, 0, 73, 58
1, 204516, Control_c, 0, 67, 0
1, 204522, Note_on_c, 0, 64, 33
1, 204525, Note_on_c, 0, 54, 36
1, 204532, Note_on_c, 0, 70, 48
1, 204621, Control_c, 0, 64, 56
1, 204642, Control_c, 0, 64, 67
1, 204655, Note_off_c, 0, 70, 43
1, 204657, Control_c, 0, 64, 74
1, 204662, Note_off_c, 0, 73, 60
1, 204672, Control_c, 0, 64, 79
1, 204686, Control_c, 0, 64, 81
1, 204697, Note_off_c, 0, 64, 42
1, 204701, Control_c, 0, 64, 82
1, 204743, Note_off_c, 0, 54, 32
1, 204850, Control_c, 0, 64, 81
1, 204865, Control_c, 0, 64, 77
1, 204880, Control_c, 0, 64, 71
1, 204892, Note_on_c, 0, 75, 70
1, 204894, Control_c, 0, 64, 63
1, 204896, Note_on_c, 0, 71, 61
1, 204899, Note_on_c, 0, 59, 33
1, 204905, Note_on_c, 0, 63, 46
1, 204909, Control_c, 0, 64, 0
1, 204983, Control_c, 0, 64, 52
1, 204998, Control_c, 0, 64, 64
1, 205008, Note_off_c, 0, 71, 54
1, 205013, Control_c, 0, 64, 67
1, 205028, Control_c, 0, 64, 70
1, 205042, Control_c, 0, 64, 73
1, 205057, Control_c, 0, 64, 77
1, 205073, Control_c, 0, 64, 79
1, 205078, Note_off_c, 0, 75, 62
1, 205088, Control_c, 0, 64, 81
1, 205098, Note_off_c, 0, 59, 36
1, 205101, Note_off_c, 0, 63, 35
1, 205191, Control_c, 0, 64, 81
1, 205285, Note_on_c, 0, 80, 79
1, 205294, Note_on_c, 0, 70, 63
1, 205295, Control_c, 0, 64, 80
1, 205296, Note_on_c, 0, 73, 61
1, 205309, Control_c, 0, 64, 75
1, 205312, Note_on_c, 0, 64, 40
1, 205312, Note_on_c, 0, 54, 39
1, 205324, Control_c, 0, 64, 66
1, 205339, Control_c, 0, 64, 0
1, 205375, Note_off_c, 0, 70, 0
1, 205375, Note_on_c, 0, 70, 10
1, 205420, Control_c, 0, 64, 26
1, 205435, Control_c, 0, 64, 63
1, 205450, Control_c, 0, 64, 67
1, 205464, Control_c, 0, 64, 70
1, 205479, Control_c, 0, 64, 72
1, 205482, Note_off_c, 0, 54, 39
1, 205494, Control_c, 0, 64, 75
1, 205505, Note_off_c, 0, 64, 41
1, 205509, Control_c, 0, 64, 78
1, 205524, Control_c, 0, 64, 79
1, 205530, Note_off_c, 0, 73, 62
1, 205533, Note_off_c, 0, 80, 59
1, 205539, Control_c, 0, 64, 80
1, 205548, Note_off_c, 0, 70, 42
1, 205554, Control_c, 0, 64, 80
1, 205569, Control_c, 0, 64, 81
1, 205583, Control_c, 0, 64, 82
1, 205598, Control_c, 0, 64, 82
1, 205659, Note_on_c, 0, 80, 80
1, 205669, Note_on_c, 0, 73, 68
1, 205670, Note_on_c, 0, 70, 61
1, 205672, Control_c, 0, 64, 81
1, 205680, Note_on_c, 0, 64, 45
1, 205685, Note_on_c, 0, 54, 46
1, 205687, Control_c, 0, 64, 76
1, 205702, Control_c, 0, 64, 64
1, 205716, Control_c, 0, 64, 0
1, 205790, Control_c, 0, 64, 61
1, 205805, Control_c, 0, 64, 66
1, 205820, Control_c, 0, 64, 69
1, 205834, Control_c, 0, 64, 72
1, 205849, Control_c, 0, 64, 75
1, 205854, Note_off_c, 0, 70, 54
1, 205866, Note_off_c, 0, 54, 43
1, 205866, Control_c, 0, 64, 78
1, 205867, Note_off_c, 0, 73, 60
1, 205867, Note_off_c, 0, 80, 59
1, 205881, Control_c, 0, 64, 80
1, 205883, Note_off_c, 0, 64, 38
1, 205895, Control_c, 0, 64, 80
1, 205925, Control_c, 0, 64, 81
1, 205939, Control_c, 0, 64, 82
1, 205954, Control_c, 0, 64, 82
1, 205969, Control_c, 0, 64, 83
1, 206028, Control_c, 0, 64, 80
1, 206029, Note_on_c, 0, 80, 77
1, 206043, Note_on_c, 0, 73, 63
1, 206043, Control_c, 0, 64, 74
1, 206048, Note_on_c, 0, 70, 55
1, 206056, Note_on_c, 0, 54, 41
1, 206058, Control_c, 0, 64, 63
1, 206060, Note_on_c, 0, 64, 33
1, 206072, Control_c, 0, 64, 0
1, 206154, Control_c, 0, 64, 47
1, 206169, Control_c, 0, 64, 64
1, 206184, Control_c, 0, 64, 67
1, 206186, Note_off_c, 0, 64, 55
1, 206199, Control_c, 0, 64, 69
1, 206201, Note_off_c, 0, 80, 54
1, 206210, Note_off_c, 0, 54, 48
1, 206213, Note_off_c, 0, 73, 60
1, 206213, Control_c, 0, 64, 71
1, 206228, Control_c, 0, 64, 74
1, 206232, Note_off_c, 0, 70, 42
1, 206243, Control_c, 0, 64, 77
1, 206258, Control_c, 0, 64, 79
1, 206272, Control_c, 0, 64, 80
1, 206302, Control_c, 0, 64, 80
1, 206421, Control_c, 0, 64, 79
1, 206423, Note_on_c, 0, 78, 68
1, 206433, Note_on_c, 0, 63, 45
1, 206436, Control_c, 0, 64, 75
1, 206439, Note_on_c, 0, 70, 50
1, 206442, Note_on_c, 0, 75, 47
1, 206445, Note_on_c, 0, 54, 39
1, 206451, Control_c, 0, 64, 66
1, 206465, Control_c, 0, 64, 0
1, 206507, Note_off_c, 0, 70, 0
1, 206507, Note_on_c, 0, 70, 7
1, 206564, Note_off_c, 0, 70, 48
1, 206569, Control_c, 0, 64, 55
1, 206583, Note_off_c, 0, 63, 39
1, 206584, Control_c, 0, 64, 66
1, 206585, Note_off_c, 0, 78, 59
1, 206586, Note_off_c, 0, 75, 57
1, 206599, Control_c, 0, 64, 71
1, 206610, Note_off_c, 0, 54, 36
1, 206613, Control_c, 0, 64, 74
1, 206613, Control_c, 0, 67, 8
1, 206628, Control_c, 0, 64, 77
1, 206628, Control_c, 0, 67, 11
1, 206643, Control_c, 0, 64, 80
1, 206643, Control_c, 0, 67, 13
1, 206659, Control_c, 0, 64, 81
1, 206659, Control_c, 0, 67, 16
1, 206674, Control_c, 0, 64, 81
1, 206674, Control_c, 0, 67, 19
1, 206688, Control_c, 0, 67, 22
1, 206703, Control_c, 0, 67, 25
1, 206718, Control_c, 0, 67, 29
1, 206733, Control_c, 0, 67, 32
1, 206748, Control_c, 0, 67, 35
1, 206762, Control_c, 0, 67, 37
1, 206777, Control_c, 0, 67, 38
1, 206792, Control_c, 0, 67, 39
1, 206807, Control_c, 0, 64, 78
1, 206807, Control_c, 0, 67, 39
1, 206822, Control_c, 0, 64, 71
1, 206822, Control_c, 0, 67, 41
1, 206836, Note_on_c, 0, 76, 51
1, 206836, Control_c, 0, 64, 34
1, 206836, Control_c, 0, 67, 44
1, 206839, Note_on_c, 0, 70, 42
1, 206844, Note_on_c, 0, 54, 37
1, 206847, Note_on_c, 0, 61, 35
1, 206851, Control_c, 0, 64, 0
1, 206851, Control_c, 0, 67, 49
1, 206866, Control_c, 0, 67, 54
1, 206888, Control_c, 0, 67, 60
1, 206903, Control_c, 0, 67, 67
1, 206918, Control_c, 0, 67, 74
1, 206933, Control_c, 0, 64, 62
1, 206933, Control_c, 0, 67, 83
1, 206936, Note_off_c, 0, 61, 53
1, 206948, Control_c, 0, 64, 67
1, 206948, Control_c, 0, 67, 94
1, 206961, Note_off_c, 0, 70, 37
1, 206962, Control_c, 0, 64, 69
1, 206962, Control_c, 0, 67, 107
1, 206964, Note_off_c, 0, 54, 48
1, 206970, Note_off_c, 0, 76, 57
1, 206977, Control_c, 0, 64, 70
1, 206977, Control_c, 0, 67, 122
1, 206992, Control_c, 0, 64, 71
1, 206992, Control_c, 0, 67, 127
1, 207007, Control_c, 0, 64, 73
1, 207022, Control_c, 0, 64, 75
1, 207036, Control_c, 0, 64, 76
1, 207362, Control_c, 0, 64, 75
1, 207368, Note_on_c, 0, 47, 41
1, 207377, Control_c, 0, 64, 71
1, 207392, Control_c, 0, 64, 62
1, 207406, Control_c, 0, 64, 0
1, 207438, Note_on_c, 0, 86, 53
1, 207482, Control_c, 0, 64, 61
1, 207497, Control_c, 0, 64, 66
1, 207511, Control_c, 0, 64, 69
1, 207526, Control_c, 0, 64, 71
1, 207535, Note_off_c, 0, 86, 64
1, 207540, Note_off_c, 0, 47, 50
1, 207541, Control_c, 0, 64, 75
1, 207556, Control_c, 0, 64, 78
1, 207566, Note_on_c, 0, 90, 57
1, 207571, Control_c, 0, 64, 79
1, 207585, Control_c, 0, 64, 79
1, 207637, Control_c, 0, 64, 80
1, 207658, Note_off_c, 0, 90, 60
1, 207661, Note_on_c, 0, 86, 71
1, 207710, Note_off_c, 0, 86, 60
1, 207711, Control_c, 0, 64, 80
1, 207743, Note_on_c, 0, 83, 66
1, 207769, Note_off_c, 0, 83, 66
1, 207785, Control_c, 0, 64, 79
1, 207800, Control_c, 0, 64, 74
1, 207815, Control_c, 0, 64, 68
1, 207824, Note_on_c, 0, 62, 45
1, 207826, Note_on_c, 0, 59, 37
1, 207828, Note_on_c, 0, 54, 39
1, 207828, Note_on_c, 0, 83, 62
1, 207830, Control_c, 0, 64, 63
1, 207845, Control_c, 0, 64, 62
1, 207859, Control_c, 0, 64, 64
1, 207874, Control_c, 0, 64, 67
1, 207888, Note_off_c, 0, 83, 58
1, 207889, Control_c, 0, 64, 69
1, 207904, Control_c, 0, 64, 71
1, 207909, Note_on_c, 0, 86, 62
1, 207958, Note_off_c, 0, 86, 59
1, 207981, Note_on_c, 0, 83, 69
1, 208032, Note_off_c, 0, 83, 58
1, 208052, Control_c, 0, 64, 70
1, 208065, Note_on_c, 0, 78, 69
1, 208067, Control_c, 0, 64, 69
1, 208082, Control_c, 0, 64, 68
1, 208096, Control_c, 0, 64, 64
1, 208101, Note_off_c, 0, 78, 59
1, 208111, Control_c, 0, 64, 60
1, 208126, Control_c, 0, 64, 52
1, 208141, Control_c, 0, 64, 37
1, 208141, Note_on_c, 0, 78, 66
1, 208156, Control_c, 0, 64, 0
1, 208217, Note_off_c, 0, 78, 63
1, 208230, Note_on_c, 0, 83, 66
1, 208295, Note_off_c, 0, 83, 58
1, 208301, Note_on_c, 0, 78, 69
1, 208362, Note_off_c, 0, 78, 62
1, 208389, Note_on_c, 0, 74, 69
1, 208430, Note_off_c, 0, 74, 66
1, 208474, Note_on_c, 0, 74, 60
1, 208533, Note_off_c, 0, 74, 64
1, 208558, Note_on_c, 0, 78, 70
1, 208622, Note_off_c, 0, 78, 63
1, 208628, Note_on_c, 0, 74, 64
1, 208681, Note_off_c, 0, 74, 63
1, 208701, Note_on_c, 0, 71, 63
1, 208730, Note_off_c, 0, 71, 64
1, 208791, Note_on_c, 0, 71, 59
1, 208863, Note_off_c, 0, 71, 59
1, 208871, Note_on_c, 0, 74, 64
1, 208871, Note_off_c, 0, 54, 54
1, 208909, Note_off_c, 0, 59, 41
1, 208931, Note_off_c, 0, 62, 46
1, 208932, Note_off_c, 0, 74, 64
1, 208940, Note_on_c, 0, 71, 55
1, 208988, Note_off_c, 0, 71, 57
1, 209029, Note_on_c, 0, 66, 56
1, 209062, Note_off_c, 0, 66, 53
1, 209108, Note_on_c, 0, 73, 56
1, 209109, Note_on_c, 0, 70, 48
1, 209141, Note_on_c, 0, 54, 37
1, 209151, Note_on_c, 0, 64, 26
1, 209214, Note_off_c, 0, 64, 45
1, 209220, Note_off_c, 0, 70, 57
1, 209224, Control_c, 0, 64, 60
1, 209238, Control_c, 0, 64, 67
1, 209247, Note_off_c, 0, 73, 55
1, 209253, Control_c, 0, 64, 70
1, 209268, Note_off_c, 0, 54, 36
1, 209268, Control_c, 0, 64, 73
1, 209283, Control_c, 0, 64, 77
1, 209298, Control_c, 0, 64, 80
1, 209313, Control_c, 0, 64, 81
1, 209313, Control_c, 0, 67, 122
1, 209328, Control_c, 0, 67, 118
1, 209342, Control_c, 0, 64, 81
1, 209342, Control_c, 0, 67, 116
1, 209357, Control_c, 0, 67, 115
1, 209372, Control_c, 0, 67, 114
1, 209387, Control_c, 0, 67, 112
1, 209402, Control_c, 0, 67, 110
1, 209417, Control_c, 0, 64, 82
1, 209417, Control_c, 0, 67, 108
1, 209431, Control_c, 0, 67, 107
1, 209446, Control_c, 0, 67, 106
1, 209490, Control_c, 0, 64, 81
1, 209505, Control_c, 0, 64, 78
1, 209520, Control_c, 0, 64, 69
1, 209528, Note_on_c, 0, 47, 45
1, 209535, Control_c, 0, 64, 53
1, 209536, Note_on_c, 0, 86, 53
1, 209550, Control_c, 0, 64, 0
1, 209579, Control_c, 0, 64, 45
1, 209594, Control_c, 0, 64, 64
1, 209609, Note_off_c, 0, 86, 53
1, 209609, Control_c, 0, 64, 67
1, 209624, Note_on_c, 0, 90, 66
1, 209624, Control_c, 0, 64, 70
1, 209624, Control_c, 0, 67, 106
1, 209638, Control_c, 0, 64, 71
1, 209653, Control_c, 0, 64, 73
1, 209658, Note_off_c, 0, 47, 53
1, 209668, Control_c, 0, 64, 74
1, 209668, Control_c, 0, 67, 106
1, 209682, Control_c, 0, 64, 76
1, 209697, Control_c, 0, 64, 76
1, 209709, Note_on_c, 0, 86, 80
1, 209712, Control_c, 0, 64, 77
1, 209718, Note_off_c, 0, 90, 62
1, 209742, Control_c, 0, 64, 78
1, 209757, Control_c, 0, 64, 79
1, 209757, Control_c, 0, 67, 106
1, 209764, Note_off_c, 0, 86, 63
1, 209772, Control_c, 0, 64, 79
1, 209787, Note_on_c, 0, 83, 75
1, 209819, Note_off_c, 0, 83, 59
1, 209846, Control_c, 0, 64, 79
1, 209861, Control_c, 0, 64, 77
1, 209861, Control_c, 0, 67, 107
1, 209868, Note_on_c, 0, 83, 67
1, 209882, Note_on_c, 0, 62, 64
1, 209884, Control_c, 0, 64, 73
1, 209890, Note_on_c, 0, 54, 53
1, 209896, Note_on_c, 0, 59, 47
1, 209899, Control_c, 0, 64, 68
1, 209913, Control_c, 0, 64, 60
1, 209928, Control_c, 0, 64, 44
1, 209943, Control_c, 0, 64, 41
1, 209943, Control_c, 0, 67, 107
1, 209951, Note_off_c, 0, 83, 61
1, 209958, Control_c, 0, 64, 45
1, 209958, Control_c, 0, 67, 108
1, 209960, Note_on_c, 0, 86, 69
1, 209973, Control_c, 0, 64, 46
1, 209973, Control_c, 0, 67, 108
1, 209987, Control_c, 0, 64, 45
1, 209987, Control_c, 0, 67, 110
1, 210002, Control_c, 0, 64, 45
1, 210002, Control_c, 0, 67, 111
1, 210017, Control_c, 0, 64, 44
1, 210017, Control_c, 0, 67, 113
1, 210028, Note_off_c, 0, 86, 61
1, 210032, Control_c, 0, 67, 114
1, 210037, Note_on_c, 0, 83, 73
1, 210047, Control_c, 0, 64, 44
1, 210047, Control_c, 0, 67, 116
1, 210061, Control_c, 0, 64, 43
1, 210061, Control_c, 0, 67, 116
1, 210076, Control_c, 0, 64, 42
1, 210076, Control_c, 0, 67, 117
1, 210091, Control_c, 0, 64, 41
1, 210093, Note_off_c, 0, 83, 59
1, 210106, Control_c, 0, 64, 39
1, 210120, Note_on_c, 0, 78, 71
1, 210120, Control_c, 0, 64, 38
1, 210120, Control_c, 0, 67, 117
1, 210135, Control_c, 0, 64, 37
1, 210150, Control_c, 0, 64, 34
1, 210159, Note_off_c, 0, 78, 62
1, 210165, Control_c, 0, 64, 30
1, 210180, Control_c, 0, 64, 23
1, 210195, Control_c, 0, 64, 11
1, 210195, Control_c, 0, 67, 117
1, 210197, Note_on_c, 0, 78, 65
1, 210210, Control_c, 0, 64, 0
1, 210210, Control_c, 0, 67, 116
1, 210239, Control_c, 0, 67, 116
1, 210275, Note_off_c, 0, 78, 63
1, 210284, Note_on_c, 0, 83, 68
1, 210313, Control_c, 0, 67, 115
1, 210343, Control_c, 0, 67, 115
1, 210351, Note_off_c, 0, 83, 59
1, 210359, Note_on_c, 0, 78, 76
1, 210416, Note_off_c, 0, 78, 61
1, 210449, Note_on_c, 0, 74, 63
1, 210461, Control_c, 0, 67, 114
1, 210476, Note_off_c, 0, 74, 68
1, 210476, Control_c, 0, 67, 114
1, 210532, Note_on_c, 0, 74, 58
1, 210550, Control_c, 0, 67, 113
1, 210580, Control_c, 0, 67, 113
1, 210597, Note_off_c, 0, 74, 63
1, 210612, Note_on_c, 0, 78, 71
1, 210691, Note_off_c, 0, 78, 63
1, 210692, Control_c, 0, 67, 112
1, 210702, Note_on_c, 0, 74, 61
1, 210707, Control_c, 0, 67, 112
1, 210736, Control_c, 0, 67, 111
1, 210750, Note_off_c, 0, 74, 64
1, 210766, Control_c, 0, 67, 111
1, 210773, Note_on_c, 0, 71, 60
1, 210781, Control_c, 0, 67, 110
1, 210796, Control_c, 0, 67, 110
1, 210805, Note_off_c, 0, 71, 62
1, 210810, Control_c, 0, 67, 109
1, 210840, Control_c, 0, 67, 108
1, 210861, Note_on_c, 0, 71, 64
1, 210869, Control_c, 0, 67, 108
1, 210884, Control_c, 0, 67, 107
1, 210899, Control_c, 0, 67, 106
1, 210900, Note_off_c, 0, 54, 58
1, 210910, Note_off_c, 0, 59, 61
1, 210914, Control_c, 0, 67, 106
1, 210928, Control_c, 0, 67, 105
1, 210933, Note_off_c, 0, 71, 61
1, 210938, Note_on_c, 0, 74, 70
1, 210943, Control_c, 0, 67, 105
1, 210958, Control_c, 0, 67, 103
1, 210973, Control_c, 0, 67, 100
1, 210988, Control_c, 0, 67, 98
1, 210989, Note_off_c, 0, 62, 55
1, 211002, Note_off_c, 0, 74, 63
1, 211003, Control_c, 0, 67, 96
1, 211017, Note_on_c, 0, 71, 61
1, 211018, Control_c, 0, 67, 95
1, 211033, Control_c, 0, 67, 94
1, 211064, Note_off_c, 0, 71, 59
1, 211077, Control_c, 0, 67, 94
1, 211101, Note_on_c, 0, 66, 61
1, 211137, Note_off_c, 0, 66, 62
1, 211151, Control_c, 0, 67, 93
1, 211166, Control_c, 0, 67, 92
1, 211181, Control_c, 0, 67, 89
1, 211185, Note_on_c, 0, 73, 62
1, 211188, Note_on_c, 0, 70, 58
1, 211195, Control_c, 0, 67, 86
1, 211206, Note_on_c, 0, 54, 44
1, 211210, Control_c, 0, 67, 80
1, 211215, Note_on_c, 0, 64, 40
1, 211225, Control_c, 0, 67, 71
1, 211240, Control_c, 0, 67, 60
1, 211254, Control_c, 0, 67, 46
1, 211269, Control_c, 0, 67, 30
1, 211284, Control_c, 0, 67, 15
1, 211299, Control_c, 0, 64, 42
1, 211299, Control_c, 0, 67, 0
1, 211313, Note_off_c, 0, 70, 57
1, 211314, Control_c, 0, 64, 66
1, 211329, Control_c, 0, 64, 71
1, 211344, Control_c, 0, 64, 76
1, 211352, Note_off_c, 0, 73, 62
1, 211359, Control_c, 0, 64, 79
1, 211381, Control_c, 0, 64, 79
1, 211389, Note_off_c, 0, 64, 40
1, 211396, Control_c, 0, 64, 80
1, 211430, Note_off_c, 0, 54, 36
1, 211471, Control_c, 0, 64, 79
1, 211501, Control_c, 0, 64, 77
1, 211516, Control_c, 0, 64, 72
1, 211530, Control_c, 0, 64, 64
1, 211545, Control_c, 0, 64, 0
1, 211568, Note_on_c, 0, 74, 64
1, 211577, Note_on_c, 0, 59, 42
1, 211577, Note_on_c, 0, 71, 54
1, 211580, Note_on_c, 0, 62, 43
1, 211580, Note_on_c, 0, 66, 54
1, 211634, Control_c, 0, 64, 45
1, 211649, Control_c, 0, 64, 64
1, 211657, Note_off_c, 0, 66, 52
1, 211664, Control_c, 0, 64, 69
1, 211678, Control_c, 0, 64, 72
1, 211689, Note_off_c, 0, 59, 61
1, 211693, Control_c, 0, 64, 75
1, 211697, Note_off_c, 0, 71, 61
1, 211703, Note_off_c, 0, 62, 59
1, 211708, Control_c, 0, 64, 77
1, 211723, Control_c, 0, 64, 79
1, 211734, Note_off_c, 0, 74, 62
1, 211738, Control_c, 0, 64, 79
1, 211752, Control_c, 0, 64, 80
1, 211812, Control_c, 0, 64, 80
1, 211841, Control_c, 0, 64, 81
1, 211856, Control_c, 0, 64, 81
1, 211915, Control_c, 0, 64, 81
1, 211930, Control_c, 0, 64, 78
1, 211936, Note_on_c, 0, 83, 78
1, 211945, Control_c, 0, 64, 72
1, 211946, Note_on_c, 0, 76, 59
1, 211951, Note_on_c, 0, 73, 56
1, 211960, Control_c, 0, 64, 62
1, 211963, Note_on_c, 0, 67, 45
1, 211972, Note_on_c, 0, 57, 37
1, 211975, Control_c, 0, 64, 0
1, 212026, Note_off_c, 0, 73, 0
1, 212026, Note_on_c, 0, 73, 11
1, 212064, Control_c, 0, 64, 59
1, 212079, Control_c, 0, 64, 66
1, 212094, Control_c, 0, 64, 69
1, 212109, Control_c, 0, 64, 72
1, 212131, Control_c, 0, 64, 75
1, 212146, Control_c, 0, 64, 78
1, 212153, Note_off_c, 0, 57, 36
1, 212160, Control_c, 0, 64, 80
1, 212175, Control_c, 0, 64, 80
1, 212183, Note_off_c, 0, 67, 37
1, 212190, Control_c, 0, 64, 81
1, 212208, Note_off_c, 0, 83, 54
1, 212228, Note_off_c, 0, 76, 64
1, 212235, Note_off_c, 0, 73, 43
1, 212249, Control_c, 0, 64, 81
1, 212335, Note_on_c, 0, 83, 73
1, 212339, Note_on_c, 0, 73, 66
1, 212339, Control_c, 0, 64, 79
1, 212344, Note_on_c, 0, 67, 43
1, 212344, Note_on_c, 0, 76, 70
1, 212352, Note_on_c, 0, 57, 43
1, 212354, Control_c, 0, 64, 73
1, 212369, Control_c, 0, 64, 63
1, 212383, Control_c, 0, 64, 0
1, 212443, Control_c, 0, 64, 28
1, 212458, Control_c, 0, 64, 63
1, 212472, Control_c, 0, 64, 67
1, 212487, Control_c, 0, 64, 70
1, 212502, Control_c, 0, 64, 72
1, 212511, Note_off_c, 0, 57, 51
1, 212517, Control_c, 0, 64, 74
1, 212523, Note_off_c, 0, 83, 52
1, 212532, Control_c, 0, 64, 76
1, 212535, Note_off_c, 0, 76, 61
1, 212542, Note_off_c, 0, 73, 31
1, 212547, Control_c, 0, 64, 78
1, 212559, Note_off_c, 0, 67, 41
1, 212562, Control_c, 0, 64, 78
1, 212576, Control_c, 0, 64, 79
1, 212591, Control_c, 0, 64, 79
1, 212621, Control_c, 0, 64, 80
1, 212695, Control_c, 0, 64, 78
1, 212701, Note_on_c, 0, 83, 74
1, 212706, Note_on_c, 0, 73, 60
1, 212709, Note_on_c, 0, 76, 58
1, 212709, Control_c, 0, 64, 73
1, 212714, Note_on_c, 0, 67, 42
1, 212719, Note_on_c, 0, 57, 44
1, 212724, Control_c, 0, 64, 63
1, 212739, Control_c, 0, 64, 0
1, 212781, Note_off_c, 0, 73, 0
1, 212798, Control_c, 0, 64, 57
1, 212813, Control_c, 0, 64, 66
1, 212818, Poly_aftertouch_c, 0, 73, 127
1, 212827, Control_c, 0, 64, 69
1, 212842, Control_c, 0, 64, 71
1, 212853, Note_off_c, 0, 83, 53
1, 212857, Control_c, 0, 64, 72
1, 212880, Control_c, 0, 64, 73
1, 212890, Note_off_c, 0, 57, 33
1, 212895, Control_c, 0, 64, 74
1, 212909, Control_c, 0, 64, 75
1, 212914, Poly_aftertouch_c, 0, 73, 0
1, 212924, Control_c, 0, 64, 76
1, 212931, Note_off_c, 0, 76, 50
1, 212939, Control_c, 0, 64, 76
1, 212955, Note_off_c, 0, 67, 33
1, 212983, Control_c, 0, 64, 77
1, 212998, Control_c, 0, 64, 77
1, 213013, Control_c, 0, 64, 78
1, 213074, Control_c, 0, 64, 77
1, 213088, Control_c, 0, 64, 73
1, 213089, Note_on_c, 0, 81, 65
1, 213093, Note_on_c, 0, 66, 44
1, 213095, Note_on_c, 0, 78, 55
1, 213103, Control_c, 0, 64, 66
1, 213106, Note_on_c, 0, 73, 44
1, 213111, Note_on_c, 0, 57, 36
1, 213118, Control_c, 0, 64, 27
1, 213132, Control_c, 0, 64, 0
1, 213177, Control_c, 0, 64, 58
1, 213192, Control_c, 0, 64, 66
1, 213203, Note_off_c, 0, 57, 43
1, 213206, Control_c, 0, 64, 69
1, 213221, Control_c, 0, 64, 71
1, 213236, Control_c, 0, 64, 73
1, 213250, Control_c, 0, 64, 75
1, 213265, Control_c, 0, 64, 76
1, 213273, Note_off_c, 0, 66, 39
1, 213280, Control_c, 0, 64, 77
1, 213295, Control_c, 0, 64, 78
1, 213320, Note_off_c, 0, 81, 58
1, 213324, Note_off_c, 0, 73, 41
1, 213325, Note_off_c, 0, 78, 52
1, 213325, Control_c, 0, 64, 79
1, 213340, Control_c, 0, 64, 79
1, 213355, Control_c, 0, 64, 80
1, 213370, Control_c, 0, 64, 81
1, 213414, Control_c, 0, 64, 80
1, 213429, Control_c, 0, 64, 78
1, 213441, Note_on_c, 0, 79, 66
1, 213444, Control_c, 0, 64, 72
1, 213444, Note_on_c, 0, 73, 56
1, 213451, Note_on_c, 0, 64, 47
1, 213458, Control_c, 0, 64, 61
1, 213473, Note_on_c, 0, 57, 28
1, 213473, Control_c, 0, 64, 0
1, 213518, Control_c, 0, 64, 30
1, 213532, Control_c, 0, 64, 64
1, 213547, Control_c, 0, 64, 69
1, 213562, Control_c, 0, 64, 71
1, 213576, Control_c, 0, 64, 71
1, 213591, Control_c, 0, 64, 72
1, 213605, Control_c, 0, 64, 73
1, 213628, Control_c, 0, 64, 75
1, 213643, Control_c, 0, 64, 77
1, 213656, Note_off_c, 0, 79, 51
1, 213657, Control_c, 0, 64, 78
1, 213709, Note_off_c, 0, 57, 33
1, 213731, Control_c, 0, 64, 78
1, 213746, Control_c, 0, 64, 79
1, 213761, Control_c, 0, 64, 79
1, 213790, Note_off_c, 0, 64, 38
1, 213797, Note_off_c, 0, 73, 37
1, 213811, Note_on_c, 0, 78, 75
1, 213818, Note_on_c, 0, 74, 57
1, 213820, Control_c, 0, 64, 78
1, 213832, Note_on_c, 0, 62, 43
1, 213835, Note_on_c, 0, 59, 40
1, 213835, Control_c, 0, 64, 73
1, 213851, Control_c, 0, 64, 64
1, 213866, Control_c, 0, 64, 0
1, 213925, Control_c, 0, 64, 58
1, 213940, Control_c, 0, 64, 66
1, 213954, Control_c, 0, 64, 69
1, 213969, Control_c, 0, 64, 71
1, 213984, Control_c, 0, 64, 73
1, 213999, Note_off_c, 0, 59, 56
1, 213999, Note_off_c, 0, 74, 49
1, 213999, Control_c, 0, 64, 74
1, 214014, Control_c, 0, 64, 76
1, 214028, Control_c, 0, 64, 78
1, 214043, Control_c, 0, 64, 79
1, 214055, Note_off_c, 0, 78, 61
1, 214058, Control_c, 0, 64, 80
1, 214073, Control_c, 0, 64, 80
1, 214191, Note_on_c, 0, 79, 74
1, 214192, Control_c, 0, 64, 79
1, 214197, Note_on_c, 0, 70, 59
1, 214204, Note_off_c, 0, 62, 53
1, 214207, Control_c, 0, 64, 72
1, 214211, Note_on_c, 0, 54, 41
1, 214212, Note_on_c, 0, 64, 42
1, 214213, Note_on_c, 0, 73, 49
1, 214221, Control_c, 0, 64, 60
1, 214236, Control_c, 0, 64, 0
1, 214288, Note_off_c, 0, 73, 0
1, 214288, Note_on_c, 0, 73, 22
1, 214310, Control_c, 0, 64, 63
1, 214326, Control_c, 0, 64, 67
1, 214341, Control_c, 0, 64, 70
1, 214355, Control_c, 0, 64, 72
1, 214377, Control_c, 0, 64, 74
1, 214392, Control_c, 0, 64, 77
1, 214392, Control_c, 0, 67, 10
1, 214407, Control_c, 0, 64, 79
1, 214407, Control_c, 0, 67, 18
1, 214422, Control_c, 0, 64, 80
1, 214422, Control_c, 0, 67, 31
1, 214425, Note_off_c, 0, 79, 52
1, 214428, Note_off_c, 0, 64, 38
1, 214432, Note_off_c, 0, 70, 40
1, 214437, Control_c, 0, 64, 81
1, 214437, Control_c, 0, 67, 46
1, 214438, Note_off_c, 0, 54, 41
1, 214442, Note_off_c, 0, 73, 46
1, 214452, Control_c, 0, 64, 81
1, 214452, Control_c, 0, 67, 59
1, 214467, Control_c, 0, 64, 82
1, 214467, Control_c, 0, 67, 69
1, 214481, Control_c, 0, 67, 73
1, 214496, Control_c, 0, 64, 82
1, 214496, Control_c, 0, 67, 74
1, 214511, Control_c, 0, 67, 75
1, 214526, Control_c, 0, 67, 76
1, 214541, Control_c, 0, 67, 76
1, 214570, Control_c, 0, 64, 81
1, 214570, Control_c, 0, 67, 77
1, 214577, Note_on_c, 0, 79, 62
1, 214581, Note_on_c, 0, 73, 52
1, 214585, Control_c, 0, 64, 78
1, 214586, Note_on_c, 0, 70, 51
1, 214588, Note_on_c, 0, 54, 30
1, 214599, Note_on_c, 0, 64, 38
1, 214599, Control_c, 0, 64, 68
1, 214599, Control_c, 0, 67, 77
1, 214614, Control_c, 0, 64, 30
1, 214614, Control_c, 0, 67, 78
1, 214629, Control_c, 0, 64, 0
1, 214629, Control_c, 0, 67, 80
1, 214644, Control_c, 0, 67, 81
1, 214675, Control_c, 0, 67, 82
1, 214690, Control_c, 0, 64, 62
1, 214704, Control_c, 0, 64, 66
1, 214719, Control_c, 0, 64, 67
1, 214719, Control_c, 0, 67, 82
1, 214734, Control_c, 0, 64, 68
1, 214749, Control_c, 0, 64, 70
1, 214764, Control_c, 0, 64, 73
1, 214778, Control_c, 0, 64, 76
1, 214786, Note_off_c, 0, 54, 37
1, 214786, Note_off_c, 0, 70, 38
1, 214787, Note_off_c, 0, 64, 36
1, 214792, Note_off_c, 0, 79, 52
1, 214793, Control_c, 0, 64, 78
1, 214793, Control_c, 0, 67, 82
1, 214808, Control_c, 0, 64, 79
1, 214808, Control_c, 0, 67, 81
1, 214823, Control_c, 0, 64, 79
1, 214824, Note_off_c, 0, 73, 33
1, 214852, Control_c, 0, 64, 80
1, 214867, Control_c, 0, 64, 81
1, 214882, Control_c, 0, 64, 82
1, 214896, Control_c, 0, 64, 82
1, 214911, Control_c, 0, 67, 81
1, 214941, Control_c, 0, 67, 80
1, 214956, Control_c, 0, 64, 81
1, 214967, Note_on_c, 0, 79, 63
1, 214971, Control_c, 0, 64, 76
1, 214979, Note_on_c, 0, 73, 44
1, 214980, Note_on_c, 0, 70, 46
1, 214985, Note_on_c, 0, 54, 35
1, 214985, Control_c, 0, 64, 68
1, 214996, Note_on_c, 0, 64, 27
1, 215000, Control_c, 0, 64, 39
1, 215015, Control_c, 0, 64, 0
1, 215015, Control_c, 0, 67, 81
1, 215045, Control_c, 0, 64, 40
1, 215060, Control_c, 0, 64, 64
1, 215066, Note_off_c, 0, 54, 0
1, 215075, Control_c, 0, 64, 69
1, 215081, Note_off_c, 0, 64, 0
1, 215081, Note_on_c, 0, 64, 3
1, 215090, Control_c, 0, 64, 72
1, 215102, Poly_aftertouch_c, 0, 54, 127
1, 215104, Control_c, 0, 64, 75
1, 215126, Control_c, 0, 64, 78
1, 215126, Control_c, 0, 67, 80
1, 215141, Control_c, 0, 64, 79
1, 215156, Control_c, 0, 64, 80
1, 215161, Poly_aftertouch_c, 0, 54, 0
1, 215164, Note_off_c, 0, 79, 52
1, 215171, Control_c, 0, 64, 81
1, 215171, Control_c, 0, 67, 80
1, 215185, Control_c, 0, 64, 81
1, 215200, Control_c, 0, 64, 82
1, 215202, Note_off_c, 0, 70, 39
1, 215209, Note_off_c, 0, 73, 50
1, 215215, Control_c, 0, 64, 83
1, 215230, Control_c, 0, 64, 84
1, 215260, Control_c, 0, 64, 84
1, 215334, Control_c, 0, 64, 83
1, 215347, Note_on_c, 0, 78, 67
1, 215349, Control_c, 0, 64, 78
1, 215355, Note_on_c, 0, 61, 47
1, 215361, Note_on_c, 0, 70, 47
1, 215364, Control_c, 0, 64, 67
1, 215374, Note_on_c, 0, 73, 25
1, 215378, Control_c, 0, 64, 0
1, 215378, Control_c, 0, 67, 79
1, 215384, Note_on_c, 0, 54, 26
1, 215408, Control_c, 0, 67, 79
1, 215415, Note_off_c, 0, 70, 0
1, 215415, Note_on_c, 0, 70, 14
1, 215422, Control_c, 0, 64, 36
1, 215422, Control_c, 0, 67, 78
1, 215437, Control_c, 0, 64, 64
1, 215437, Control_c, 0, 67, 77
1, 215441, Note_off_c, 0, 61, 0
1, 215441, Note_on_c, 0, 61, 12
1, 215453, Control_c, 0, 64, 69
1, 215453, Control_c, 0, 67, 75
1, 215468, Control_c, 0, 64, 71
1, 215468, Control_c, 0, 67, 74
1, 215483, Control_c, 0, 64, 73
1, 215483, Control_c, 0, 67, 73
1, 215498, Control_c, 0, 64, 76
1, 215498, Control_c, 0, 67, 71
1, 215513, Control_c, 0, 64, 78
1, 215513, Control_c, 0, 67, 69
1, 215522, Note_off_c, 0, 73, 37
1, 215527, Control_c, 0, 64, 79
1, 215527, Control_c, 0, 67, 65
1, 215542, Control_c, 0, 64, 80
1, 215542, Control_c, 0, 67, 59
1, 215552, Note_off_c, 0, 54, 36
1, 215557, Control_c, 0, 64, 80
1, 215557, Control_c, 0, 67, 52
1, 215572, Control_c, 0, 64, 81
1, 215572, Control_c, 0, 67, 45
1, 215587, Control_c, 0, 67, 41
1, 215601, Control_c, 0, 64, 81
1, 215601, Control_c, 0, 67, 37
1, 215616, Control_c, 0, 64, 82
1, 215616, Control_c, 0, 67, 34
1, 215631, Control_c, 0, 64, 82
1, 215631, Control_c, 0, 67, 30
1, 215645, Control_c, 0, 64, 83
1, 215645, Control_c, 0, 67, 27
1, 215650, Note_off_c, 0, 78, 43
1, 215660, Control_c, 0, 67, 23
1, 215675, Control_c, 0, 67, 20
1, 215678, Note_off_c, 0, 70, 41
1, 215690, Control_c, 0, 67, 18
1, 215701, Note_on_c, 0, 76, 64
1, 215705, Control_c, 0, 67, 16
1, 215713, Note_on_c, 0, 73, 57
1, 215719, Control_c, 0, 64, 80
1, 215719, Control_c, 0, 67, 15
1, 215723, Note_on_c, 0, 58, 44
1, 215724, Note_on_c, 0, 54, 43
1, 215728, Note_off_c, 0, 61, 25
1, 215734, Control_c, 0, 64, 74
1, 215734, Control_c, 0, 67, 13
1, 215749, Control_c, 0, 64, 62
1, 215749, Control_c, 0, 67, 11
1, 215764, Control_c, 0, 64, 0
1, 215764, Control_c, 0, 67, 9
1, 215779, Control_c, 0, 64, 14
1, 215779, Control_c, 0, 67, 0
1, 215793, Control_c, 0, 64, 59
1, 215808, Control_c, 0, 64, 66
1, 215810, Note_off_c, 0, 64, 4
1, 215822, Control_c, 0, 64, 71
1, 215837, Control_c, 0, 64, 75
1, 215851, Control_c, 0, 64, 77
1, 215874, Control_c, 0, 64, 79
1, 215889, Control_c, 0, 64, 80
1, 215903, Control_c, 0, 64, 81
1, 215916, Note_off_c, 0, 73, 31
1, 215918, Control_c, 0, 64, 81
1, 215933, Control_c, 0, 64, 82
1, 215943, Note_off_c, 0, 54, 29
1, 215948, Control_c, 0, 64, 83
1, 215963, Control_c, 0, 64, 84
1, 215978, Control_c, 0, 64, 84
1, 215993, Control_c, 0, 64, 85
1, 216007, Control_c, 0, 64, 87
1, 216022, Control_c, 0, 64, 87
1, 216037, Control_c, 0, 64, 88
1, 216052, Note_off_c, 0, 58, 46
1, 216081, Control_c, 0, 64, 87
1, 216091, Note_on_c, 0, 75, 79
1, 216096, Note_on_c, 0, 59, 59
1, 216096, Control_c, 0, 64, 81
1, 216101, Note_on_c, 0, 71, 64
1, 216103, Note_off_c, 0, 76, 60
1, 216109, Note_on_c, 0, 56, 48
1, 216111, Control_c, 0, 64, 69
1, 216125, Control_c, 0, 64, 0
1, 216199, Control_c, 0, 64, 58
1, 216214, Control_c, 0, 64, 67
1, 216229, Control_c, 0, 64, 71
1, 216245, Control_c, 0, 64, 75
1, 216260, Control_c, 0, 64, 80
1, 216274, Control_c, 0, 64, 83
1, 216277, Note_off_c, 0, 71, 56
1, 216282, Note_off_c, 0, 59, 60
1, 216289, Control_c, 0, 64, 85
1, 216304, Control_c, 0, 64, 87
1, 216310, Note_off_c, 0, 75, 58
1, 216314, Note_off_c, 0, 56, 62
1, 216319, Control_c, 0, 64, 88
1, 216334, Control_c, 0, 64, 90
1, 216348, Control_c, 0, 64, 91
1, 216363, Control_c, 0, 64, 91
1, 216408, Control_c, 0, 64, 92
1, 216437, Control_c, 0, 64, 92
1, 216452, Control_c, 0, 64, 93
1, 216482, Control_c, 0, 64, 93
1, 216512, Control_c, 0, 64, 93
1, 216528, Note_on_c, 0, 76, 83
1, 216536, Note_on_c, 0, 68, 69
1, 216538, Note_on_c, 0, 64, 63
1, 216541, Control_c, 0, 64, 91
1, 216547, Note_on_c, 0, 56, 54
1, 216550, Note_on_c, 0, 49, 53
1, 216554, Note_on_c, 0, 61, 52
1, 216556, Control_c, 0, 64, 85
1, 216571, Control_c, 0, 64, 76
1, 216586, Control_c, 0, 64, 63
1, 216601, Control_c, 0, 64, 0
1, 216652, Control_c, 0, 64, 34
1, 216667, Control_c, 0, 64, 64
1, 216681, Control_c, 0, 64, 69
1, 216696, Control_c, 0, 64, 73
1, 216711, Control_c, 0, 64, 76
1, 216726, Control_c, 0, 64, 79
1, 216741, Control_c, 0, 64, 81
1, 216756, Control_c, 0, 64, 82
1, 216771, Control_c, 0, 64, 83
1, 216777, Note_off_c, 0, 49, 54
1, 216786, Control_c, 0, 64, 84
1, 216800, Control_c, 0, 64, 85
1, 216805, Note_off_c, 0, 61, 50
1, 216815, Control_c, 0, 64, 86
1, 216820, Note_off_c, 0, 56, 53
1, 216830, Control_c, 0, 64, 87
1, 216845, Control_c, 0, 64, 88
1, 216851, Note_off_c, 0, 76, 62
1, 216854, Note_off_c, 0, 64, 63
1, 216860, Control_c, 0, 64, 89
1, 216871, Note_off_c, 0, 68, 63
1, 216874, Control_c, 0, 64, 89
1, 216948, Control_c, 0, 64, 88
1, 216954, Note_on_c, 0, 76, 86
1, 216956, Note_on_c, 0, 56, 54
1, 216961, Note_on_c, 0, 61, 52
1, 216963, Control_c, 0, 64, 84
1, 216965, Note_on_c, 0, 64, 66
1, 216965, Note_on_c, 0, 68, 72
1, 216974, Note_on_c, 0, 49, 51
1, 216978, Control_c, 0, 64, 74
1, 216992, Control_c, 0, 64, 49
1, 217007, Control_c, 0, 64, 0
1, 217068, Control_c, 0, 64, 57
1, 217083, Control_c, 0, 64, 67
1, 217097, Control_c, 0, 64, 70
1, 217112, Control_c, 0, 64, 72
1, 217127, Control_c, 0, 64, 75
1, 217142, Control_c, 0, 64, 78
1, 217157, Control_c, 0, 64, 80
1, 217171, Control_c, 0, 64, 82
1, 217186, Control_c, 0, 64, 82
1, 217201, Control_c, 0, 64, 83
1, 217211, Note_off_c, 0, 61, 49
1, 217215, Control_c, 0, 64, 84
1, 217216, Note_off_c, 0, 56, 51
1, 217230, Control_c, 0, 64, 85
1, 217236, Note_off_c, 0, 49, 34
1, 217245, Control_c, 0, 64, 86
1, 217259, Note_off_c, 0, 76, 63
1, 217260, Control_c, 0, 64, 87
1, 217266, Note_off_c, 0, 68, 64
1, 217275, Note_off_c, 0, 64, 61
1, 217275, Control_c, 0, 64, 88
1, 217290, Control_c, 0, 64, 89
1, 217359, Note_on_c, 0, 76, 85
1, 217371, Control_c, 0, 64, 87
1, 217379, Note_on_c, 0, 68, 72
1, 217380, Note_on_c, 0, 64, 64
1, 217384, Note_on_c, 0, 56, 48
1, 217386, Control_c, 0, 64, 81
1, 217390, Note_on_c, 0, 49, 44
1, 217392, Note_on_c, 0, 61, 49
1, 217401, Control_c, 0, 64, 70
1, 217416, Control_c, 0, 64, 0
1, 217475, Control_c, 0, 64, 26
1, 217490, Control_c, 0, 64, 64
1, 217504, Control_c, 0, 64, 70
1, 217519, Control_c, 0, 64, 74
1, 217534, Control_c, 0, 64, 76
1, 217549, Control_c, 0, 64, 78
1, 217551, Note_off_c, 0, 56, 42
1, 217558, Note_off_c, 0, 49, 45
1, 217564, Control_c, 0, 64, 79
1, 217571, Note_off_c, 0, 64, 57
1, 217577, Note_off_c, 0, 61, 51
1, 217579, Control_c, 0, 64, 81
1, 217594, Control_c, 0, 64, 82
1, 217609, Control_c, 0, 64, 82
1, 217611, Note_off_c, 0, 76, 50
1, 217623, Control_c, 0, 64, 83
1, 217638, Control_c, 0, 64, 84
1, 217644, Note_off_c, 0, 68, 61
1, 217653, Control_c, 0, 64, 84
1, 217683, Control_c, 0, 64, 85
1, 217712, Control_c, 0, 64, 85
1, 217742, Control_c, 0, 64, 85
1, 217754, Note_on_c, 0, 75, 75
1, 217762, Note_on_c, 0, 68, 65
1, 217764, Note_on_c, 0, 63, 58
1, 217768, Note_on_c, 0, 56, 42
1, 217771, Control_c, 0, 64, 82
1, 217773, Note_on_c, 0, 59, 47
1, 217786, Control_c, 0, 64, 75
1, 217791, Note_on_c, 0, 51, 43
1, 217801, Control_c, 0, 64, 62
1, 217815, Control_c, 0, 64, 0
1, 217876, Control_c, 0, 67, 8
1, 217891, Control_c, 0, 64, 61
1, 217891, Control_c, 0, 67, 10
1, 217906, Control_c, 0, 64, 69
1, 217906, Control_c, 0, 67, 12
1, 217920, Control_c, 0, 64, 74
1, 217920, Control_c, 0, 67, 14
1, 217935, Control_c, 0, 64, 79
1, 217935, Control_c, 0, 67, 15
1, 217950, Control_c, 0, 64, 81
1, 217950, Control_c, 0, 67, 17
1, 217965, Control_c, 0, 64, 82
1, 217965, Control_c, 0, 67, 18
1, 217977, Note_off_c, 0, 75, 56
1, 217980, Control_c, 0, 64, 83
1, 217980, Control_c, 0, 67, 19
1, 217994, Control_c, 0, 64, 84
1, 217994, Control_c, 0, 67, 21
1, 218009, Control_c, 0, 64, 85
1, 218009, Control_c, 0, 67, 22
1, 218010, Note_off_c, 0, 63, 62
1, 218017, Note_off_c, 0, 56, 38
1, 218024, Control_c, 0, 64, 86
1, 218024, Control_c, 0, 67, 24
1, 218025, Note_off_c, 0, 68, 62
1, 218034, Note_off_c, 0, 51, 30
1, 218038, Control_c, 0, 64, 86
1, 218038, Control_c, 0, 67, 27
1, 218053, Control_c, 0, 64, 87
1, 218053, Control_c, 0, 67, 29
1, 218069, Control_c, 0, 64, 87
1, 218069, Control_c, 0, 67, 30
1, 218084, Control_c, 0, 67, 32
1, 218099, Control_c, 0, 67, 34
1, 218121, Control_c, 0, 67, 35
1, 218123, Note_off_c, 0, 59, 39
1, 218136, Control_c, 0, 67, 37
1, 218138, Note_on_c, 0, 73, 72
1, 218147, Note_on_c, 0, 56, 48
1, 218151, Note_on_c, 0, 61, 55
1, 218151, Note_on_c, 0, 68, 62
1, 218151, Control_c, 0, 64, 84
1, 218151, Control_c, 0, 67, 39
1, 218166, Control_c, 0, 64, 76
1, 218166, Control_c, 0, 67, 41
1, 218175, Note_on_c, 0, 52, 41
1, 218181, Control_c, 0, 64, 63
1, 218181, Control_c, 0, 67, 44
1, 218195, Control_c, 0, 64, 0
1, 218195, Control_c, 0, 67, 46
1, 218210, Control_c, 0, 67, 48
1, 218225, Control_c, 0, 67, 51
1, 218240, Control_c, 0, 67, 53
1, 218254, Control_c, 0, 64, 48
1, 218254, Control_c, 0, 67, 56
1, 218269, Control_c, 0, 64, 66
1, 218269, Control_c, 0, 67, 59
1, 218284, Control_c, 0, 64, 71
1, 218284, Control_c, 0, 67, 62
1, 218299, Control_c, 0, 64, 76
1, 218299, Control_c, 0, 67, 65
1, 218307, Note_off_c, 0, 56, 48
1, 218314, Control_c, 0, 64, 79
1, 218314, Control_c, 0, 67, 69
1, 218325, Note_off_c, 0, 61, 54
1, 218328, Control_c, 0, 64, 81
1, 218328, Control_c, 0, 67, 72
1, 218333, Note_off_c, 0, 73, 63
1, 218343, Control_c, 0, 64, 82
1, 218343, Control_c, 0, 67, 74
1, 218358, Control_c, 0, 64, 82
1, 218358, Control_c, 0, 67, 76
1, 218373, Control_c, 0, 64, 83
1, 218373, Control_c, 0, 67, 78
1, 218388, Control_c, 0, 64, 84
1, 218388, Control_c, 0, 67, 81
1, 218395, Note_off_c, 0, 68, 31
1, 218402, Control_c, 0, 64, 84
1, 218402, Control_c, 0, 67, 83
1, 218417, Control_c, 0, 64, 85
1, 218417, Control_c, 0, 67, 86
1, 218422, Note_off_c, 0, 52, 29
1, 218432, Control_c, 0, 64, 86
1, 218432, Control_c, 0, 67, 87
1, 218446, Control_c, 0, 67, 88
1, 218461, Control_c, 0, 67, 89
1, 218491, Control_c, 0, 64, 85
1, 218491, Control_c, 0, 67, 89
1, 218506, Control_c, 0, 64, 84
1, 218506, Control_c, 0, 67, 90
1, 218508, Note_on_c, 0, 71, 65
1, 218513, Note_on_c, 0, 68, 62
1, 218521, Control_c, 0, 64, 77
1, 218521, Control_c, 0, 67, 92
1, 218527, Note_on_c, 0, 63, 45
1, 218530, Note_on_c, 0, 59, 42
1, 218533, Note_on_c, 0, 56, 40
1, 218536, Control_c, 0, 64, 65
1, 218536, Control_c, 0, 67, 95
1, 218538, Note_on_c, 0, 51, 36
1, 218550, Control_c, 0, 64, 0
1, 218550, Control_c, 0, 67, 97
1, 218565, Control_c, 0, 67, 99
1, 218580, Control_c, 0, 67, 101
1, 218595, Control_c, 0, 67, 103
1, 218610, Control_c, 0, 67, 106
1, 218625, Control_c, 0, 64, 50
1, 218625, Control_c, 0, 67, 110
1, 218640, Control_c, 0, 64, 66
1, 218640, Control_c, 0, 67, 114
1, 218655, Control_c, 0, 64, 70
1, 218655, Control_c, 0, 67, 117
1, 218670, Control_c, 0, 64, 73
1, 218670, Control_c, 0, 67, 121
1, 218685, Control_c, 0, 64, 75
1, 218685, Control_c, 0, 67, 124
1, 218700, Control_c, 0, 64, 76
1, 218700, Control_c, 0, 67, 127
1, 218714, Note_off_c, 0, 71, 54
1, 218714, Control_c, 0, 64, 78
1, 218714, Control_c, 0, 67, 127
1, 218729, Control_c, 0, 64, 79
1, 218733, Note_off_c, 0, 59, 40
1, 218734, Note_off_c, 0, 51, 38
1, 218734, Note_off_c, 0, 63, 40
1, 218736, Note_off_c, 0, 68, 39
1, 218744, Control_c, 0, 64, 80
1, 218750, Note_off_c, 0, 56, 36
1, 218759, Control_c, 0, 64, 81
1, 218789, Control_c, 0, 64, 81
1, 218818, Control_c, 0, 64, 82
1, 218902, Note_on_c, 0, 71, 70
1, 218914, Control_c, 0, 64, 79
1, 218923, Note_on_c, 0, 56, 34
1, 218926, Note_on_c, 0, 68, 48
1, 218929, Note_on_c, 0, 59, 37
1, 218929, Note_on_c, 0, 51, 37
1, 218929, Control_c, 0, 64, 71
1, 218939, Note_on_c, 0, 63, 20
1, 218944, Control_c, 0, 64, 52
1, 218959, Control_c, 0, 64, 0
1, 218993, Note_off_c, 0, 68, 0
1, 218993, Note_on_c, 0, 68, 16
1, 219018, Control_c, 0, 64, 63
1, 219033, Control_c, 0, 64, 69
1, 219048, Control_c, 0, 64, 74
1, 219063, Control_c, 0, 64, 77
1, 219077, Control_c, 0, 64, 79
1, 219092, Control_c, 0, 64, 80
1, 219107, Control_c, 0, 64, 81
1, 219122, Control_c, 0, 64, 81
1, 219137, Control_c, 0, 64, 82
1, 219138, Note_off_c, 0, 59, 39
1, 219139, Note_off_c, 0, 71, 50
1, 219147, Note_off_c, 0, 51, 39
1, 219150, Note_off_c, 0, 63, 40
1, 219151, Control_c, 0, 64, 82
1, 219158, Note_off_c, 0, 68, 43
1, 219166, Note_off_c, 0, 56, 38
1, 219181, Control_c, 0, 64, 83
1, 219284, Control_c, 0, 64, 82
1, 219285, Note_on_c, 0, 71, 68
1, 219299, Control_c, 0, 64, 78
1, 219313, Note_on_c, 0, 56, 31
1, 219314, Control_c, 0, 64, 69
1, 219317, Note_on_c, 0, 68, 38
1, 219320, Note_on_c, 0, 51, 37
1, 219326, Note_on_c, 0, 59, 29
1, 219329, Control_c, 0, 64, 23
1, 219343, Control_c, 0, 64, 0
1, 219349, Poly_aftertouch_c, 0, 63, 127
1, 219388, Control_c, 0, 64, 35
1, 219403, Control_c, 0, 64, 64
1, 219418, Control_c, 0, 64, 68
1, 219431, Note_off_c, 0, 68, 42
1, 219433, Control_c, 0, 64, 71
1, 219438, Note_off_c, 0, 59, 42
1, 219448, Control_c, 0, 64, 74
1, 219463, Control_c, 0, 64, 76
1, 219472, Note_off_c, 0, 56, 30
1, 219478, Control_c, 0, 64, 78
1, 219486, Poly_aftertouch_c, 0, 63, 0
1, 219489, Note_off_c, 0, 71, 60
1, 219492, Control_c, 0, 64, 80
1, 219507, Note_off_c, 0, 51, 35
1, 219507, Control_c, 0, 64, 80
1, 219522, Control_c, 0, 64, 81
1, 219552, Control_c, 0, 64, 81
1, 219662, Control_c, 0, 64, 81
1, 219677, Control_c, 0, 64, 80
1, 219692, Control_c, 0, 64, 77
1, 219704, Note_on_c, 0, 70, 56
1, 219707, Control_c, 0, 64, 70
1, 219713, Note_on_c, 0, 67, 49
1, 219718, Note_on_c, 0, 55, 36
1, 219719, Note_on_c, 0, 51, 44
1, 219722, Control_c, 0, 64, 26
1, 219723, Note_on_c, 0, 58, 34
1, 219737, Control_c, 0, 64, 0
1, 219753, Note_on_c, 0, 63, 13
1, 219811, Control_c, 0, 64, 11
1, 219825, Control_c, 0, 64, 63
1, 219840, Control_c, 0, 64, 67
1, 219855, Control_c, 0, 64, 69
1, 219870, Control_c, 0, 64, 71
1, 219885, Control_c, 0, 64, 73
1, 219888, Note_off_c, 0, 58, 39
1, 219892, Note_off_c, 0, 70, 53
1, 219897, Note_off_c, 0, 63, 25
1, 219899, Control_c, 0, 64, 75
1, 219912, Note_off_c, 0, 51, 36
1, 219914, Control_c, 0, 64, 77
1, 219925, Note_off_c, 0, 55, 39
1, 219929, Control_c, 0, 64, 79
1, 219933, Note_off_c, 0, 67, 36
1, 219944, Control_c, 0, 64, 79
1, 219973, Control_c, 0, 64, 80
1, 220017, Control_c, 0, 64, 80
1, 220047, Control_c, 0, 64, 81
1, 220107, Control_c, 0, 64, 79
1, 220121, Control_c, 0, 64, 74
1, 220124, Note_on_c, 0, 70, 51
1, 220136, Note_on_c, 0, 58, 34
1, 220136, Note_on_c, 0, 67, 40
1, 220136, Control_c, 0, 64, 63
1, 220138, Note_on_c, 0, 51, 33
1, 220151, Control_c, 0, 64, 0
1, 220160, Note_on_c, 0, 55, 28
1, 220173, Poly_aftertouch_c, 0, 63, 127
1, 220196, Control_c, 0, 64, 48
1, 220210, Control_c, 0, 64, 64
1, 220225, Control_c, 0, 64, 67
1, 220241, Control_c, 0, 64, 70
1, 220256, Control_c, 0, 64, 72
1, 220265, Note_off_c, 0, 58, 39
1, 220270, Control_c, 0, 64, 73
1, 220285, Control_c, 0, 64, 74
1, 220300, Control_c, 0, 64, 75
1, 220306, Note_off_c, 0, 67, 36
1, 220307, Note_off_c, 0, 70, 37
1, 220310, Note_off_c, 0, 51, 34
1, 220313, Poly_aftertouch_c, 0, 63, 0
1, 220321, Note_off_c, 0, 55, 38
1, 220330, Control_c, 0, 64, 76
1, 220367, Control_c, 0, 64, 76
1, 220382, Control_c, 0, 64, 77
1, 220545, Control_c, 0, 64, 75
1, 220560, Control_c, 0, 64, 70
1, 220575, Control_c, 0, 64, 56
1, 220589, Control_c, 0, 64, 0
1, 220607, Note_on_c, 0, 70, 42
1, 220616, Note_on_c, 0, 67, 36
1, 220623, Note_on_c, 0, 51, 18
1, 220634, Control_c, 0, 64, 59
1, 220643, Note_on_c, 0, 55, 16
1, 220648, Control_c, 0, 64, 66
1, 220651, Poly_aftertouch_c, 0, 63, 127
1, 220663, Poly_aftertouch_c, 0, 58, 127
1, 220663, Control_c, 0, 64, 69
1, 220678, Control_c, 0, 64, 71
1, 220688, Poly_aftertouch_c, 0, 63, 0
1, 220693, Control_c, 0, 64, 73
1, 220708, Control_c, 0, 64, 74
1, 220722, Control_c, 0, 64, 75
1, 220731, Note_off_c, 0, 67, 36
1, 220737, Control_c, 0, 64, 76
1, 220753, Poly_aftertouch_c, 0, 58, 0
1, 220767, Control_c, 0, 64, 76
1, 220782, Note_off_c, 0, 55, 40
1, 220782, Control_c, 0, 64, 77
1, 220792, Note_off_c, 0, 70, 54
1, 220796, Control_c, 0, 64, 77
1, 220811, Control_c, 0, 64, 78
1, 220826, Control_c, 0, 64, 78
1, 220840, Control_c, 0, 64, 79
1, 220851, Note_off_c, 0, 51, 23
1, 220900, Control_c, 0, 64, 79
1, 220929, Control_c, 0, 64, 80
1, 221324, Control_c, 0, 64, 77
1, 221329, Note_on_c, 0, 44, 36
1, 221338, Control_c, 0, 64, 71
1, 221343, Note_on_c, 0, 84, 38
1, 221353, Control_c, 0, 64, 60
1, 221368, Control_c, 0, 64, 0
1, 221397, Control_c, 0, 64, 58
1, 221412, Control_c, 0, 64, 66
1, 221427, Control_c, 0, 64, 69
1, 221442, Control_c, 0, 64, 72
1, 221457, Control_c, 0, 64, 74
1, 221472, Note_off_c, 0, 44, 53
1, 221472, Control_c, 0, 64, 77
1, 221487, Control_c, 0, 64, 78
1, 221506, Note_off_c, 0, 84, 41
1, 221516, Control_c, 0, 64, 78
1, 221517, Note_on_c, 0, 87, 50
1, 221546, Control_c, 0, 64, 79
1, 221576, Control_c, 0, 64, 79
1, 221614, Note_on_c, 0, 84, 57
1, 221615, Note_off_c, 0, 87, 56
1, 221678, Note_off_c, 0, 84, 64
1, 221707, Note_on_c, 0, 80, 58
1, 221735, Note_off_c, 0, 80, 62
1, 221779, Note_on_c, 0, 56, 42
1, 221789, Note_on_c, 0, 51, 40
1, 221789, Note_on_c, 0, 60, 38
1, 221793, Note_on_c, 0, 80, 63
1, 221812, Control_c, 0, 64, 79
1, 221827, Control_c, 0, 64, 78
1, 221843, Control_c, 0, 64, 77
1, 221865, Control_c, 0, 64, 76
1, 221873, Note_off_c, 0, 80, 61
1, 221880, Control_c, 0, 64, 73
1, 221884, Note_on_c, 0, 84, 66
1, 221895, Control_c, 0, 64, 71
1, 221910, Control_c, 0, 64, 69
1, 221925, Control_c, 0, 64, 66
1, 221940, Control_c, 0, 64, 64
1, 221946, Note_off_c, 0, 84, 62
1, 221955, Control_c, 0, 64, 63
1, 221961, Note_on_c, 0, 80, 70
1, 222014, Note_off_c, 0, 80, 63
1, 222028, Control_c, 0, 64, 62
1, 222038, Note_on_c, 0, 75, 69
1, 222066, Note_off_c, 0, 75, 66
1, 222073, Control_c, 0, 64, 62
1, 222087, Control_c, 0, 64, 61
1, 222102, Control_c, 0, 64, 60
1, 222117, Control_c, 0, 64, 59
1, 222123, Note_on_c, 0, 75, 70
1, 222132, Control_c, 0, 64, 59
1, 222147, Control_c, 0, 64, 58
1, 222161, Control_c, 0, 64, 57
1, 222176, Control_c, 0, 64, 57
1, 222191, Control_c, 0, 64, 56
1, 222193, Note_off_c, 0, 75, 63
1, 222202, Note_on_c, 0, 80, 68
1, 222275, Note_on_c, 0, 75, 61
1, 222276, Note_off_c, 0, 80, 60
1, 222309, Control_c, 0, 64, 56
1, 222324, Control_c, 0, 64, 55
1, 222339, Control_c, 0, 64, 54
1, 222345, Note_off_c, 0, 75, 64
1, 222353, Note_on_c, 0, 72, 68
1, 222354, Control_c, 0, 64, 53
1, 222369, Control_c, 0, 64, 52
1, 222384, Control_c, 0, 64, 51
1, 222384, Note_off_c, 0, 72, 62
1, 222399, Control_c, 0, 64, 49
1, 222413, Control_c, 0, 64, 48
1, 222428, Control_c, 0, 64, 47
1, 222443, Control_c, 0, 64, 46
1, 222447, Note_on_c, 0, 72, 55
1, 222473, Control_c, 0, 64, 47
1, 222487, Control_c, 0, 64, 48
1, 222502, Control_c, 0, 64, 49
1, 222508, Note_off_c, 0, 72, 64
1, 222517, Control_c, 0, 64, 50
1, 222524, Note_on_c, 0, 75, 60
1, 222532, Control_c, 0, 64, 51
1, 222546, Control_c, 0, 64, 52
1, 222561, Control_c, 0, 64, 53
1, 222576, Control_c, 0, 64, 54
1, 222579, Note_off_c, 0, 75, 63
1, 222591, Control_c, 0, 64, 54
1, 222595, Note_on_c, 0, 72, 65
1, 222613, Control_c, 0, 64, 55
1, 222643, Control_c, 0, 64, 56
1, 222645, Note_off_c, 0, 72, 65
1, 222673, Control_c, 0, 64, 55
1, 222686, Note_on_c, 0, 68, 64
1, 222703, Control_c, 0, 64, 55
1, 222714, Note_off_c, 0, 68, 68
1, 222718, Control_c, 0, 64, 54
1, 222733, Control_c, 0, 64, 54
1, 222748, Control_c, 0, 64, 53
1, 222763, Control_c, 0, 64, 52
1, 222769, Note_on_c, 0, 68, 63
1, 222777, Control_c, 0, 64, 50
1, 222792, Control_c, 0, 64, 49
1, 222807, Control_c, 0, 64, 48
1, 222822, Control_c, 0, 64, 46
1, 222836, Control_c, 0, 64, 45
1, 222840, Note_off_c, 0, 68, 61
1, 222848, Note_on_c, 0, 72, 68
1, 222851, Control_c, 0, 64, 43
1, 222866, Control_c, 0, 64, 41
1, 222881, Control_c, 0, 64, 41
1, 222885, Note_off_c, 0, 56, 34
1, 222887, Note_off_c, 0, 51, 58
1, 222892, Note_off_c, 0, 60, 36
1, 222910, Control_c, 0, 64, 40
1, 222916, Note_off_c, 0, 72, 63
1, 222929, Note_on_c, 0, 68, 62
1, 222955, Control_c, 0, 64, 41
1, 222971, Note_off_c, 0, 68, 65
1, 222999, Control_c, 0, 64, 41
1, 223008, Note_on_c, 0, 63, 52
1, 223029, Control_c, 0, 64, 41
1, 223038, Note_off_c, 0, 63, 57
1, 223043, Control_c, 0, 64, 36
1, 223058, Control_c, 0, 64, 0
1, 223105, Note_on_c, 0, 70, 60
1, 223111, Note_on_c, 0, 67, 42
1, 223117, Note_on_c, 0, 51, 43
1, 223127, Note_on_c, 0, 61, 38
1, 223151, Note_off_c, 0, 67, 47
1, 223177, Control_c, 0, 64, 37
1, 223192, Control_c, 0, 64, 64
1, 223207, Control_c, 0, 64, 67
1, 223209, Note_off_c, 0, 61, 49
1, 223210, Note_off_c, 0, 70, 55
1, 223222, Control_c, 0, 64, 70
1, 223229, Note_off_c, 0, 51, 54
1, 223236, Control_c, 0, 64, 72
1, 223251, Control_c, 0, 64, 75
1, 223266, Control_c, 0, 64, 78
1, 223281, Control_c, 0, 64, 81
1, 223296, Control_c, 0, 64, 81
1, 223310, Control_c, 0, 64, 82
1, 223340, Control_c, 0, 64, 82
1, 223377, Control_c, 0, 64, 83
1, 223391, Control_c, 0, 64, 83
1, 223406, Control_c, 0, 64, 84
1, 223481, Control_c, 0, 64, 82
1, 223496, Control_c, 0, 64, 76
1, 223511, Control_c, 0, 64, 66
1, 223518, Note_on_c, 0, 44, 40
1, 223526, Control_c, 0, 64, 29
1, 223528, Note_on_c, 0, 84, 47
1, 223541, Control_c, 0, 64, 0
1, 223555, Control_c, 0, 64, 53
1, 223570, Control_c, 0, 64, 65
1, 223585, Control_c, 0, 64, 68
1, 223600, Control_c, 0, 64, 72
1, 223609, Note_off_c, 0, 44, 56
1, 223615, Control_c, 0, 64, 73
1, 223618, Note_on_c, 0, 87, 66
1, 223621, Note_off_c, 0, 84, 39
1, 223630, Control_c, 0, 64, 73
1, 223645, Control_c, 0, 64, 74
1, 223689, Control_c, 0, 64, 74
1, 223704, Note_off_c, 0, 87, 63
1, 223707, Note_on_c, 0, 84, 70
1, 223761, Note_off_c, 0, 84, 62
1, 223785, Note_on_c, 0, 80, 64
1, 223812, Note_off_c, 0, 80, 68
1, 223837, Control_c, 0, 64, 74
1, 223852, Control_c, 0, 64, 73
1, 223865, Note_on_c, 0, 80, 71
1, 223866, Control_c, 0, 64, 71
1, 223877, Note_on_c, 0, 60, 46
1, 223881, Control_c, 0, 64, 66
1, 223885, Note_on_c, 0, 51, 43
1, 223886, Note_on_c, 0, 56, 39
1, 223896, Control_c, 0, 64, 60
1, 223911, Control_c, 0, 64, 50
1, 223926, Control_c, 0, 64, 45
1, 223940, Note_off_c, 0, 80, 62
1, 223940, Control_c, 0, 64, 42
1, 223949, Note_on_c, 0, 84, 69
1, 223955, Control_c, 0, 64, 37
1, 223970, Control_c, 0, 64, 27
1, 223985, Control_c, 0, 64, 14
1, 224000, Control_c, 0, 64, 0
1, 224014, Note_off_c, 0, 84, 64
1, 224026, Note_on_c, 0, 80, 70
1, 224074, Control_c, 0, 64, 11
1, 224086, Note_off_c, 0, 80, 63
1, 224123, Note_on_c, 0, 75, 61
1, 224152, Note_off_c, 0, 75, 65
1, 224155, Control_c, 0, 64, 0
1, 224208, Note_on_c, 0, 75, 60
1, 224274, Note_off_c, 0, 75, 64
1, 224274, Note_on_c, 0, 80, 71
1, 224360, Note_on_c, 0, 75, 69
1, 224363, Note_off_c, 0, 80, 59
1, 224414, Note_off_c, 0, 75, 64
1, 224445, Note_on_c, 0, 72, 67
1, 224472, Note_off_c, 0, 72, 68
1, 224527, Note_on_c, 0, 72, 62
1, 224578, Note_off_c, 0, 72, 57
1, 224604, Note_on_c, 0, 75, 66
1, 224666, Note_off_c, 0, 75, 64
1, 224678, Note_on_c, 0, 72, 65
1, 224689, Control_c, 0, 64, 14
1, 224704, Control_c, 0, 64, 18
1, 224722, Note_off_c, 0, 72, 63
1, 224748, Note_on_c, 0, 68, 66
1, 224763, Control_c, 0, 64, 16
1, 224778, Control_c, 0, 64, 0
1, 224784, Note_off_c, 0, 68, 64
1, 224828, Note_on_c, 0, 68, 59
1, 224913, Note_off_c, 0, 68, 64
1, 224921, Note_on_c, 0, 72, 63
1, 224983, Note_off_c, 0, 72, 63
1, 224983, Note_off_c, 0, 60, 58
1, 224999, Note_on_c, 0, 68, 64
1, 225016, Note_off_c, 0, 51, 59
1, 225043, Note_off_c, 0, 68, 65
1, 225046, Note_off_c, 0, 56, 36
1, 225080, Note_on_c, 0, 63, 52
1, 225114, Note_off_c, 0, 63, 62
1, 225172, Note_on_c, 0, 70, 58
1, 225173, Note_on_c, 0, 67, 49
1, 225200, Note_on_c, 0, 61, 41
1, 225207, Note_on_c, 0, 51, 34
1, 225216, Control_c, 0, 64, 37
1, 225231, Control_c, 0, 64, 68
1, 225246, Control_c, 0, 64, 76
1, 225248, Note_off_c, 0, 67, 53
1, 225260, Control_c, 0, 64, 79
1, 225275, Control_c, 0, 64, 80
1, 225281, Note_off_c, 0, 70, 52
1, 225284, Note_off_c, 0, 61, 57
1, 225290, Control_c, 0, 64, 80
1, 225305, Control_c, 0, 64, 81
1, 225320, Control_c, 0, 64, 82
1, 225335, Control_c, 0, 64, 82
1, 225355, Note_off_c, 0, 51, 35
1, 225498, Control_c, 0, 64, 82
1, 225512, Control_c, 0, 64, 80
1, 225527, Control_c, 0, 64, 75
1, 225542, Control_c, 0, 64, 67
1, 225556, Control_c, 0, 64, 50
1, 225563, Note_on_c, 0, 44, 42
1, 225571, Control_c, 0, 64, 0
1, 225582, Note_on_c, 0, 87, 58
1, 225586, Control_c, 0, 64, 23
1, 225609, Control_c, 0, 64, 59
1, 225624, Control_c, 0, 64, 65
1, 225638, Control_c, 0, 64, 68
1, 225653, Control_c, 0, 64, 72
1, 225666, Note_off_c, 0, 87, 63
1, 225668, Control_c, 0, 64, 75
1, 225669, Note_off_c, 0, 44, 57
1, 225675, Note_on_c, 0, 92, 78
1, 225683, Control_c, 0, 64, 77
1, 225698, Control_c, 0, 64, 78
1, 225727, Control_c, 0, 64, 78
1, 225756, Control_c, 0, 64, 79
1, 225761, Note_on_c, 0, 87, 82
1, 225768, Note_off_c, 0, 92, 64
1, 225786, Control_c, 0, 67, 112
1, 225801, Control_c, 0, 67, 79
1, 225815, Note_off_c, 0, 87, 63
1, 225816, Control_c, 0, 67, 50
1, 225832, Control_c, 0, 67, 26
1, 225843, Note_on_c, 0, 84, 71
1, 225847, Control_c, 0, 67, 14
1, 225861, Control_c, 0, 67, 8
1, 225867, Note_off_c, 0, 84, 68
1, 225876, Control_c, 0, 64, 78
1, 225876, Control_c, 0, 67, 0
1, 225891, Control_c, 0, 64, 76
1, 225906, Control_c, 0, 64, 74
1, 225919, Note_on_c, 0, 84, 74
1, 225921, Note_on_c, 0, 51, 55
1, 225921, Control_c, 0, 64, 70
1, 225925, Note_on_c, 0, 60, 54
1, 225934, Note_on_c, 0, 56, 43
1, 225935, Control_c, 0, 64, 66
1, 225950, Control_c, 0, 64, 60
1, 225965, Control_c, 0, 64, 45
1, 225979, Control_c, 0, 64, 14
1, 225994, Control_c, 0, 64, 0
1, 226001, Note_off_c, 0, 84, 59
1, 226003, Note_on_c, 0, 87, 73
1, 226077, Note_off_c, 0, 87, 62
1, 226085, Note_on_c, 0, 84, 73
1, 226152, Note_off_c, 0, 84, 63
1, 226174, Note_on_c, 0, 80, 62
1, 226201, Note_off_c, 0, 80, 65
1, 226250, Note_on_c, 0, 80, 69
1, 226301, Note_off_c, 0, 80, 57
1, 226320, Note_on_c, 0, 84, 75
1, 226393, Note_off_c, 0, 84, 64
1, 226404, Note_on_c, 0, 80, 76
1, 226455, Note_off_c, 0, 80, 63
1, 226476, Note_on_c, 0, 75, 73
1, 226506, Note_off_c, 0, 75, 66
1, 226557, Note_on_c, 0, 75, 69
1, 226627, Note_off_c, 0, 75, 64
1, 226637, Note_on_c, 0, 80, 73
1, 226712, Note_on_c, 0, 75, 70
1, 226715, Note_off_c, 0, 80, 62
1, 226769, Note_off_c, 0, 75, 62
1, 226791, Note_on_c, 0, 72, 66
1, 226817, Note_off_c, 0, 72, 69
1, 226867, Note_on_c, 0, 72, 60
1, 226933, Note_off_c, 0, 72, 65
1, 226948, Note_on_c, 0, 75, 63
1, 226984, Note_off_c, 0, 60, 58
1, 226995, Note_off_c, 0, 75, 54
1, 226999, Note_off_c, 0, 51, 58
1, 227012, Note_on_c, 0, 72, 65
1, 227056, Note_off_c, 0, 72, 62
1, 227057, Note_off_c, 0, 56, 42
1, 227085, Note_on_c, 0, 68, 64
1, 227141, Note_off_c, 0, 68, 62
1, 227180, Note_on_c, 0, 70, 63
1, 227190, Note_on_c, 0, 67, 57
1, 227200, Note_on_c, 0, 61, 49
1, 227202, Note_on_c, 0, 51, 45
1, 227222, Note_off_c, 0, 67, 52
1, 227240, Control_c, 0, 64, 60
1, 227255, Control_c, 0, 64, 66
1, 227270, Control_c, 0, 64, 70
1, 227280, Note_off_c, 0, 70, 56
1, 227284, Control_c, 0, 64, 74
1, 227285, Note_off_c, 0, 61, 58
1, 227299, Control_c, 0, 64, 78
1, 227314, Control_c, 0, 64, 80
1, 227329, Control_c, 0, 64, 81
1, 227330, Note_off_c, 0, 51, 36
1, 227344, Control_c, 0, 64, 81
1, 227388, Control_c, 0, 64, 82
1, 227402, Control_c, 0, 64, 82
1, 227417, Control_c, 0, 64, 83
1, 227433, Control_c, 0, 64, 84
1, 227507, Control_c, 0, 64, 81
1, 227522, Control_c, 0, 64, 74
1, 227537, Control_c, 0, 64, 64
1, 227551, Note_on_c, 0, 44, 40
1, 227552, Control_c, 0, 64, 0
1, 227603, Note_on_c, 0, 87, 66
1, 227611, Control_c, 0, 64, 60
1, 227625, Control_c, 0, 64, 65
1, 227640, Control_c, 0, 64, 68
1, 227655, Control_c, 0, 64, 72
1, 227670, Control_c, 0, 64, 76
1, 227682, Note_off_c, 0, 87, 63
1, 227685, Control_c, 0, 64, 80
1, 227696, Note_on_c, 0, 92, 79
1, 227699, Control_c, 0, 64, 83
1, 227711, Note_off_c, 0, 44, 55
1, 227714, Control_c, 0, 64, 84
1, 227729, Control_c, 0, 64, 85
1, 227744, Control_c, 0, 64, 86
1, 227758, Control_c, 0, 64, 87
1, 227773, Control_c, 0, 64, 88
1, 227782, Note_off_c, 0, 92, 64
1, 227785, Note_on_c, 0, 87, 80
1, 227788, Control_c, 0, 64, 89
1, 227818, Control_c, 0, 64, 89
1, 227836, Note_off_c, 0, 87, 62
1, 227866, Note_on_c, 0, 84, 72
1, 227892, Note_off_c, 0, 84, 68
1, 227914, Control_c, 0, 64, 89
1, 227928, Control_c, 0, 64, 88
1, 227943, Control_c, 0, 64, 87
1, 227947, Note_on_c, 0, 56, 49
1, 227951, Note_on_c, 0, 84, 70
1, 227957, Note_on_c, 0, 60, 48
1, 227958, Control_c, 0, 64, 84
1, 227960, Note_on_c, 0, 51, 44
1, 227973, Control_c, 0, 64, 80
1, 227988, Control_c, 0, 64, 73
1, 228003, Control_c, 0, 64, 65
1, 228018, Control_c, 0, 64, 25
1, 228031, Note_off_c, 0, 84, 62
1, 228032, Control_c, 0, 64, 0
1, 228049, Note_on_c, 0, 87, 62
1, 228126, Note_on_c, 0, 84, 68
1, 228127, Note_off_c, 0, 87, 62
1, 228176, Note_off_c, 0, 84, 62
1, 228197, Note_on_c, 0, 80, 70
1, 228229, Note_off_c, 0, 80, 63
1, 228280, Note_on_c, 0, 80, 64
1, 228347, Note_off_c, 0, 80, 62
1, 228357, Note_on_c, 0, 84, 73
1, 228423, Note_off_c, 0, 84, 63
1, 228440, Note_on_c, 0, 80, 64
1, 228492, Note_off_c, 0, 80, 64
1, 228510, Note_on_c, 0, 75, 64
1, 228539, Note_off_c, 0, 75, 67
1, 228609, Note_on_c, 0, 75, 66
1, 228665, Note_off_c, 0, 75, 59
1, 228683, Note_on_c, 0, 80, 67
1, 228757, Note_off_c, 0, 80, 62
1, 228766, Note_on_c, 0, 75, 68
1, 228817, Note_off_c, 0, 75, 59
1, 228838, Note_on_c, 0, 72, 67
1, 228867, Note_off_c, 0, 72, 63
1, 228927, Note_on_c, 0, 72, 55
1, 228959, Control_c, 0, 67, 9
1, 228973, Control_c, 0, 67, 13
1, 228982, Note_off_c, 0, 72, 57
1, 228988, Control_c, 0, 67, 16
1, 228998, Note_on_c, 0, 75, 67
1, 229003, Control_c, 0, 67, 22
1, 229018, Control_c, 0, 67, 28
1, 229034, Control_c, 0, 67, 37
1, 229034, Note_off_c, 0, 60, 59
1, 229040, Note_off_c, 0, 51, 57
1, 229049, Control_c, 0, 67, 44
1, 229056, Note_off_c, 0, 75, 61
1, 229064, Control_c, 0, 67, 52
1, 229075, Note_on_c, 0, 72, 58
1, 229078, Control_c, 0, 67, 57
1, 229093, Control_c, 0, 67, 59
1, 229101, Note_off_c, 0, 56, 33
1, 229108, Control_c, 0, 67, 59
1, 229116, Note_off_c, 0, 72, 61
1, 229138, Control_c, 0, 67, 60
1, 229154, Note_on_c, 0, 68, 57
1, 229182, Control_c, 0, 67, 60
1, 229213, Note_off_c, 0, 68, 59
1, 229241, Control_c, 0, 67, 61
1, 229256, Control_c, 0, 67, 62
1, 229270, Control_c, 0, 67, 65
1, 229275, Note_on_c, 0, 70, 50
1, 229281, Note_on_c, 0, 67, 40
1, 229285, Control_c, 0, 67, 68
1, 229300, Control_c, 0, 67, 72
1, 229303, Note_on_c, 0, 61, 33
1, 229315, Control_c, 0, 67, 75
1, 229318, Note_on_c, 0, 51, 29
1, 229330, Control_c, 0, 67, 78
1, 229352, Control_c, 0, 67, 80
1, 229367, Control_c, 0, 67, 81
1, 229382, Control_c, 0, 67, 82
1, 229397, Control_c, 0, 67, 83
1, 229411, Control_c, 0, 67, 84
1, 229426, Control_c, 0, 67, 86
1, 229441, Control_c, 0, 64, 41
1, 229441, Control_c, 0, 67, 87
1, 229456, Control_c, 0, 64, 57
1, 229456, Control_c, 0, 67, 90
1, 229471, Control_c, 0, 64, 61
1, 229471, Control_c, 0, 67, 92
1, 229485, Control_c, 0, 64, 63
1, 229485, Control_c, 0, 67, 95
1, 229493, Note_off_c, 0, 61, 43
1, 229500, Control_c, 0, 64, 64
1, 229500, Control_c, 0, 67, 98
1, 229504, Note_off_c, 0, 70, 57
1, 229512, Note_off_c, 0, 51, 39
1, 229515, Control_c, 0, 64, 65
1, 229515, Control_c, 0, 67, 102
1, 229530, Control_c, 0, 64, 66
1, 229530, Control_c, 0, 67, 107
1, 229545, Control_c, 0, 64, 67
1, 229545, Control_c, 0, 67, 113
1, 229559, Control_c, 0, 64, 67
1, 229559, Control_c, 0, 67, 117
1, 229574, Control_c, 0, 67, 121
1, 229589, Control_c, 0, 64, 68
1, 229589, Control_c, 0, 67, 124
1, 229604, Control_c, 0, 67, 127
1, 229619, Control_c, 0, 67, 127
1, 229622, Note_off_c, 0, 67, 40
1, 229663, Control_c, 0, 64, 67
1, 229678, Control_c, 0, 64, 66
1, 229693, Control_c, 0, 64, 63
1, 229708, Control_c, 0, 64, 52
1, 229722, Control_c, 0, 64, 14
1, 229737, Control_c, 0, 64, 0
1, 229780, Note_on_c, 0, 44, 40
1, 229793, Note_on_c, 0, 72, 51
1, 229810, Note_off_c, 0, 44, 57
1, 229846, Note_off_c, 0, 72, 59
1, 229873, Note_on_c, 0, 75, 49
1, 229925, Note_off_c, 0, 75, 54
1, 229951, Note_on_c, 0, 72, 58
1, 229983, Note_off_c, 0, 72, 65
1, 230019, Note_on_c, 0, 68, 55
1, 230043, Note_off_c, 0, 68, 60
1, 230104, Note_on_c, 0, 68, 56
1, 230119, Note_on_c, 0, 56, 33
1, 230120, Note_on_c, 0, 54, 38
1, 230122, Note_on_c, 0, 60, 36
1, 230174, Note_off_c, 0, 68, 62
1, 230189, Note_on_c, 0, 72, 49
1, 230232, Note_off_c, 0, 72, 53
1, 230281, Note_on_c, 0, 68, 46
1, 230310, Note_off_c, 0, 68, 57
1, 230358, Note_on_c, 0, 63, 43
1, 230400, Note_off_c, 0, 63, 50
1, 230459, Note_on_c, 0, 68, 43
1, 230506, Note_off_c, 0, 68, 57
1, 230735, Note_off_c, 0, 54, 32
1, 230782, Note_off_c, 0, 60, 43
1, 230789, Note_off_c, 0, 56, 40
1, 230792, Note_on_c, 0, 49, 43
1, 230801, Note_on_c, 0, 73, 60
1, 230856, Note_off_c, 0, 73, 59
1, 230862, Note_off_c, 0, 49, 56
1, 230885, Note_on_c, 0, 77, 63
1, 230947, Note_off_c, 0, 77, 59
1, 230966, Note_on_c, 0, 73, 65
1, 231007, Note_off_c, 0, 73, 57
1, 231045, Note_on_c, 0, 68, 61
1, 231077, Note_off_c, 0, 68, 65
1, 231128, Note_on_c, 0, 53, 38
1, 231130, Note_on_c, 0, 61, 41
1, 231131, Note_on_c, 0, 56, 28
1, 231140, Note_on_c, 0, 68, 56
1, 231192, Note_off_c, 0, 68, 61
1, 231207, Note_on_c, 0, 73, 59
1, 231276, Note_off_c, 0, 73, 57
1, 231294, Note_on_c, 0, 68, 53
1, 231325, Note_off_c, 0, 68, 60
1, 231362, Note_on_c, 0, 65, 49
1, 231406, Note_off_c, 0, 65, 53
1, 231469, Note_on_c, 0, 68, 27
1, 231547, Control_c, 0, 64, 27
1, 231549, Note_off_c, 0, 68, 47
1, 231562, Control_c, 0, 64, 59
1, 231577, Control_c, 0, 64, 64
1, 231598, Control_c, 0, 64, 65
1, 231601, Note_off_c, 0, 61, 42
1, 231613, Control_c, 0, 64, 66
1, 231623, Note_off_c, 0, 53, 22
1, 231624, Note_off_c, 0, 56, 43
1, 231628, Control_c, 0, 64, 68
1, 231643, Control_c, 0, 64, 69
1, 231658, Control_c, 0, 64, 71
1, 231672, Control_c, 0, 64, 72
1, 231687, Control_c, 0, 64, 72
1, 231732, Control_c, 0, 64, 72
1, 231747, Control_c, 0, 64, 71
1, 231762, Control_c, 0, 64, 68
1, 231777, Control_c, 0, 64, 64
1, 231792, Control_c, 0, 64, 52
1, 231795, Note_on_c, 0, 39, 58
1, 231806, Control_c, 0, 64, 0
1, 231821, Note_on_c, 0, 75, 52
1, 231827, Note_off_c, 0, 39, 57
1, 231866, Note_off_c, 0, 75, 65
1, 231891, Note_on_c, 0, 79, 66
1, 231948, Note_off_c, 0, 79, 61
1, 231966, Note_on_c, 0, 75, 63
1, 232000, Note_off_c, 0, 75, 63
1, 232036, Note_on_c, 0, 70, 63
1, 232064, Note_off_c, 0, 70, 66
1, 232114, Note_on_c, 0, 61, 47
1, 232123, Note_on_c, 0, 70, 69
1, 232124, Note_on_c, 0, 51, 47
1, 232126, Note_on_c, 0, 58, 40
1, 232170, Note_off_c, 0, 70, 57
1, 232200, Note_on_c, 0, 75, 53
1, 232252, Note_off_c, 0, 75, 59
1, 232284, Note_on_c, 0, 70, 56
1, 232322, Note_off_c, 0, 70, 63
1, 232370, Note_on_c, 0, 67, 44
1, 232423, Note_off_c, 0, 67, 44
1, 232471, Note_on_c, 0, 70, 42
1, 232509, Note_off_c, 0, 58, 39
1, 232543, Note_off_c, 0, 70, 48
1, 232633, Note_off_c, 0, 51, 51
1, 232707, Note_off_c, 0, 61, 59
1, 232805, Note_on_c, 0, 44, 42
1, 232820, Note_on_c, 0, 75, 54
1, 232850, Note_off_c, 0, 44, 62
1, 232853, Note_off_c, 0, 75, 57
1, 232901, Note_on_c, 0, 80, 65
1, 232957, Note_off_c, 0, 80, 61
1, 232969, Note_on_c, 0, 75, 64
1, 233010, Note_off_c, 0, 75, 64
1, 233044, Note_on_c, 0, 72, 65
1, 233070, Note_off_c, 0, 72, 69
1, 233131, Note_on_c, 0, 56, 40
1, 233136, Note_on_c, 0, 60, 39
1, 233136, Note_on_c, 0, 72, 58
1, 233138, Note_on_c, 0, 51, 39
1, 233180, Note_off_c, 0, 72, 59
1, 233207, Note_on_c, 0, 75, 58
1, 233259, Note_off_c, 0, 75, 57
1, 233292, Note_on_c, 0, 72, 66
1, 233333, Note_off_c, 0, 72, 56
1, 233386, Note_on_c, 0, 68, 46
1, 233428, Note_off_c, 0, 68, 55
1, 233471, Note_on_c, 0, 72, 47
1, 233519, Note_off_c, 0, 72, 61
1, 233679, Note_off_c, 0, 56, 57
1, 233701, Note_off_c, 0, 60, 61
1, 233747, Note_off_c, 0, 51, 62
1, 233807, Control_c, 0, 67, 125
1, 233819, Note_on_c, 0, 44, 55
1, 233823, Control_c, 0, 67, 118
1, 233842, Note_on_c, 0, 84, 54
1, 233846, Control_c, 0, 67, 111
1, 233850, Note_off_c, 0, 44, 58
1, 233860, Control_c, 0, 67, 103
1, 233875, Control_c, 0, 67, 95
1, 233890, Control_c, 0, 67, 88
1, 233896, Note_off_c, 0, 84, 49
1, 233905, Control_c, 0, 67, 81
1, 233920, Control_c, 0, 67, 75
1, 233924, Note_on_c, 0, 87, 67
1, 233935, Control_c, 0, 67, 71
1, 233949, Control_c, 0, 67, 66
1, 233964, Control_c, 0, 67, 62
1, 233979, Control_c, 0, 67, 58
1, 233992, Note_off_c, 0, 87, 63
1, 233993, Control_c, 0, 67, 56
1, 233995, Note_on_c, 0, 84, 71
1, 234008, Control_c, 0, 67, 54
1, 234023, Control_c, 0, 67, 52
1, 234038, Control_c, 0, 67, 51
1, 234048, Note_off_c, 0, 84, 63
1, 234053, Control_c, 0, 67, 49
1, 234067, Control_c, 0, 67, 47
1, 234072, Note_on_c, 0, 80, 67
1, 234082, Control_c, 0, 67, 44
1, 234097, Control_c, 0, 67, 41
1, 234099, Note_off_c, 0, 80, 66
1, 234112, Control_c, 0, 67, 39
1, 234127, Control_c, 0, 67, 37
1, 234141, Control_c, 0, 67, 35
1, 234147, Note_on_c, 0, 80, 72
1, 234149, Note_on_c, 0, 60, 49
1, 234150, Note_on_c, 0, 56, 43
1, 234151, Note_on_c, 0, 54, 48
1, 234156, Control_c, 0, 67, 33
1, 234171, Control_c, 0, 67, 32
1, 234186, Control_c, 0, 67, 31
1, 234200, Control_c, 0, 67, 30
1, 234202, Note_off_c, 0, 80, 62
1, 234215, Control_c, 0, 67, 29
1, 234230, Control_c, 0, 67, 28
1, 234235, Note_on_c, 0, 84, 57
1, 234260, Control_c, 0, 67, 27
1, 234275, Control_c, 0, 67, 26
1, 234290, Control_c, 0, 67, 25
1, 234291, Note_off_c, 0, 84, 55
1, 234305, Control_c, 0, 67, 25
1, 234315, Note_on_c, 0, 80, 66
1, 234319, Control_c, 0, 67, 24
1, 234334, Control_c, 0, 67, 24
1, 234343, Note_off_c, 0, 80, 68
1, 234349, Control_c, 0, 67, 23
1, 234364, Control_c, 0, 67, 23
1, 234379, Control_c, 0, 67, 22
1, 234385, Note_on_c, 0, 75, 55
1, 234393, Control_c, 0, 67, 21
1, 234408, Control_c, 0, 67, 20
1, 234423, Control_c, 0, 67, 19
1, 234427, Note_off_c, 0, 75, 63
1, 234438, Control_c, 0, 67, 18
1, 234453, Control_c, 0, 67, 17
1, 234467, Control_c, 0, 67, 17
1, 234474, Note_on_c, 0, 80, 61
1, 234482, Control_c, 0, 67, 16
1, 234497, Control_c, 0, 67, 15
1, 234511, Control_c, 0, 67, 15
1, 234519, Note_off_c, 0, 80, 59
1, 234526, Control_c, 0, 67, 14
1, 234541, Control_c, 0, 67, 14
1, 234556, Control_c, 0, 67, 13
1, 234571, Control_c, 0, 67, 13
1, 234743, Control_c, 0, 67, 12
1, 234746, Note_off_c, 0, 54, 37
1, 234772, Control_c, 0, 67, 12
1, 234787, Control_c, 0, 67, 11
1, 234800, Note_off_c, 0, 56, 50
1, 234802, Control_c, 0, 67, 0
1, 234811, Note_on_c, 0, 49, 54
1, 234816, Note_off_c, 0, 60, 52
1, 234822, Note_on_c, 0, 85, 71
1, 234853, Note_off_c, 0, 49, 59
1, 234865, Note_off_c, 0, 85, 57
1, 234897, Note_on_c, 0, 89, 72
1, 234964, Note_off_c, 0, 89, 64
1, 234973, Note_on_c, 0, 85, 75
1, 235028, Note_off_c, 0, 85, 64
1, 235052, Note_on_c, 0, 80, 70
1, 235079, Note_off_c, 0, 80, 68
1, 235133, Note_on_c, 0, 56, 47
1, 235135, Note_on_c, 0, 61, 47
1, 235136, Note_on_c, 0, 53, 45
1, 235139, Note_on_c, 0, 80, 75
1, 235203, Note_off_c, 0, 80, 63
1, 235211, Note_on_c, 0, 85, 67
1, 235281, Note_off_c, 0, 85, 65
1, 235288, Note_on_c, 0, 80, 68
1, 235331, Note_off_c, 0, 80, 62
1, 235357, Note_on_c, 0, 77, 64
1, 235440, Note_off_c, 0, 77, 54
1, 235452, Note_on_c, 0, 80, 65
1, 235485, Note_off_c, 0, 80, 62
1, 235594, Note_off_c, 0, 56, 58
1, 235595, Control_c, 0, 64, 39
1, 235602, Note_off_c, 0, 61, 62
1, 235610, Control_c, 0, 64, 63
1, 235621, Note_off_c, 0, 53, 32
1, 235625, Control_c, 0, 64, 66
1, 235639, Control_c, 0, 64, 67
1, 235654, Control_c, 0, 64, 68
1, 235669, Control_c, 0, 64, 70
1, 235684, Control_c, 0, 64, 73
1, 235699, Control_c, 0, 64, 77
1, 235713, Control_c, 0, 64, 80
1, 235728, Control_c, 0, 64, 81
1, 235787, Control_c, 0, 64, 79
1, 235801, Note_on_c, 0, 39, 62
1, 235802, Control_c, 0, 64, 73
1, 235809, Note_on_c, 0, 87, 65
1, 235817, Control_c, 0, 64, 65
1, 235832, Control_c, 0, 64, 40
1, 235846, Control_c, 0, 64, 34
1, 235861, Control_c, 0, 64, 53
1, 235862, Note_off_c, 0, 39, 59
1, 235874, Note_off_c, 0, 87, 61
1, 235876, Control_c, 0, 64, 62
1, 235887, Note_on_c, 0, 91, 77
1, 235890, Control_c, 0, 64, 64
1, 235905, Control_c, 0, 64, 64
1, 235920, Control_c, 0, 64, 62
1, 235935, Control_c, 0, 64, 57
1, 235950, Control_c, 0, 64, 46
1, 235958, Note_off_c, 0, 91, 61
1, 235962, Note_on_c, 0, 87, 76
1, 235965, Control_c, 0, 64, 11
1, 235980, Control_c, 0, 64, 0
1, 235980, Control_c, 0, 67, 8
1, 235995, Control_c, 0, 67, 12
1, 236010, Control_c, 0, 67, 17
1, 236015, Note_off_c, 0, 87, 63
1, 236025, Control_c, 0, 67, 23
1, 236037, Note_on_c, 0, 82, 73
1, 236039, Control_c, 0, 67, 28
1, 236054, Control_c, 0, 67, 32
1, 236065, Note_off_c, 0, 82, 64
1, 236069, Control_c, 0, 67, 34
1, 236090, Control_c, 0, 67, 36
1, 236105, Control_c, 0, 67, 37
1, 236120, Note_on_c, 0, 61, 58
1, 236120, Control_c, 0, 67, 39
1, 236125, Note_on_c, 0, 82, 71
1, 236135, Note_on_c, 0, 58, 49
1, 236135, Control_c, 0, 67, 41
1, 236137, Note_on_c, 0, 51, 47
1, 236150, Control_c, 0, 67, 42
1, 236165, Control_c, 0, 67, 44
1, 236180, Control_c, 0, 67, 45
1, 236183, Note_off_c, 0, 82, 61
1, 236194, Control_c, 0, 67, 46
1, 236209, Note_on_c, 0, 87, 65
1, 236209, Control_c, 0, 67, 47
1, 236225, Control_c, 0, 67, 48
1, 236240, Control_c, 0, 67, 50
1, 236255, Control_c, 0, 67, 51
1, 236269, Control_c, 0, 67, 53
1, 236272, Note_off_c, 0, 87, 58
1, 236282, Note_on_c, 0, 82, 61
1, 236284, Control_c, 0, 67, 56
1, 236299, Control_c, 0, 67, 59
1, 236314, Control_c, 0, 67, 63
1, 236329, Control_c, 0, 67, 68
1, 236338, Note_off_c, 0, 82, 59
1, 236343, Control_c, 0, 67, 71
1, 236358, Control_c, 0, 67, 75
1, 236367, Note_on_c, 0, 79, 55
1, 236373, Control_c, 0, 67, 78
1, 236388, Control_c, 0, 67, 82
1, 236403, Control_c, 0, 67, 88
1, 236418, Control_c, 0, 67, 96
1, 236421, Note_off_c, 0, 79, 49
1, 236433, Control_c, 0, 67, 108
1, 236448, Control_c, 0, 67, 116
1, 236457, Note_on_c, 0, 82, 55
1, 236463, Control_c, 0, 67, 123
1, 236477, Control_c, 0, 67, 127
1, 236513, Note_off_c, 0, 82, 54
1, 236610, Control_c, 0, 64, 60
1, 236618, Note_off_c, 0, 58, 62
1, 236625, Control_c, 0, 64, 69
1, 236640, Control_c, 0, 64, 74
1, 236655, Control_c, 0, 64, 78
1, 236669, Control_c, 0, 64, 81
1, 236675, Note_off_c, 0, 51, 58
1, 236684, Control_c, 0, 64, 82
1, 236699, Control_c, 0, 64, 82
1, 236704, Note_off_c, 0, 61, 57
1, 236713, Control_c, 0, 64, 83
1, 236728, Control_c, 0, 64, 83
1, 236758, Control_c, 0, 64, 84
1, 236773, Control_c, 0, 64, 84
1, 236803, Control_c, 0, 64, 85
1, 236855, Control_c, 0, 64, 84
1, 236869, Control_c, 0, 64, 83
1, 236883, Note_on_c, 0, 44, 37
1, 236884, Control_c, 0, 64, 78
1, 236886, Note_on_c, 0, 87, 52
1, 236899, Control_c, 0, 64, 66
1, 236913, Control_c, 0, 64, 0
1, 236961, Note_off_c, 0, 87, 63
1, 236973, Control_c, 0, 64, 48
1, 236987, Control_c, 0, 64, 65
1, 236988, Note_on_c, 0, 92, 69
1, 237002, Control_c, 0, 64, 68
1, 237006, Note_off_c, 0, 44, 57
1, 237018, Control_c, 0, 64, 71
1, 237033, Control_c, 0, 64, 73
1, 237048, Control_c, 0, 64, 76
1, 237063, Control_c, 0, 64, 77
1, 237071, Note_off_c, 0, 92, 61
1, 237078, Control_c, 0, 64, 78
1, 237083, Note_on_c, 0, 87, 69
1, 237124, Note_off_c, 0, 87, 60
1, 237159, Note_on_c, 0, 84, 61
1, 237179, Note_off_c, 0, 84, 65
1, 237196, Control_c, 0, 64, 77
1, 237211, Control_c, 0, 64, 76
1, 237226, Control_c, 0, 64, 74
1, 237238, Note_on_c, 0, 56, 44
1, 237241, Control_c, 0, 64, 69
1, 237245, Note_on_c, 0, 60, 44
1, 237256, Control_c, 0, 64, 63
1, 237260, Note_on_c, 0, 84, 55
1, 237262, Note_on_c, 0, 51, 25
1, 237271, Control_c, 0, 64, 28
1, 237285, Control_c, 0, 64, 0
1, 237315, Note_off_c, 0, 84, 60
1, 237335, Note_on_c, 0, 87, 56
1, 237414, Note_off_c, 0, 87, 59
1, 237437, Note_on_c, 0, 84, 58
1, 237510, Note_off_c, 0, 84, 62
1, 237531, Note_on_c, 0, 80, 56
1, 237593, Note_off_c, 0, 80, 47
1, 237658, Note_on_c, 0, 84, 52
1, 237737, Control_c, 0, 64, 53
1, 237750, Note_off_c, 0, 84, 57
1, 237752, Control_c, 0, 64, 64
1, 237767, Control_c, 0, 64, 67
1, 237782, Control_c, 0, 64, 69
1, 237797, Control_c, 0, 64, 72
1, 237813, Control_c, 0, 64, 76
1, 237822, Note_off_c, 0, 60, 34
1, 237828, Control_c, 0, 64, 78
1, 237842, Control_c, 0, 64, 79
1, 237855, Note_off_c, 0, 56, 34
1, 237857, Control_c, 0, 64, 80
1, 237902, Control_c, 0, 64, 81
1, 237916, Control_c, 0, 64, 81
1, 237940, Note_off_c, 0, 51, 41
1, 237990, Control_c, 0, 64, 82
1, 238268, Note_on_c, 0, 51, 45
1, 238280, Note_on_c, 0, 44, 38
1, 238283, Note_on_c, 0, 72, 48
1, 238301, Control_c, 0, 64, 81
1, 238315, Control_c, 0, 64, 76
1, 238330, Control_c, 0, 64, 68
1, 238353, Control_c, 0, 64, 55
1, 238367, Control_c, 0, 64, 0
1, 238382, Control_c, 0, 64, 27
1, 238397, Control_c, 0, 64, 56
1, 238412, Control_c, 0, 64, 64
1, 238418, Note_off_c, 0, 72, 56
1, 238427, Control_c, 0, 64, 68
1, 238441, Control_c, 0, 64, 70
1, 238452, Note_on_c, 0, 75, 39
1, 238456, Control_c, 0, 64, 72
1, 238471, Control_c, 0, 64, 74
1, 238485, Control_c, 0, 64, 75
1, 238500, Control_c, 0, 64, 77
1, 238515, Control_c, 0, 64, 78
1, 238530, Control_c, 0, 64, 79
1, 238543, Note_on_c, 0, 72, 52
1, 238545, Control_c, 0, 64, 80
1, 238559, Control_c, 0, 64, 80
1, 238574, Control_c, 0, 64, 81
1, 238577, Note_off_c, 0, 75, 38
1, 238589, Control_c, 0, 64, 81
1, 238621, Note_off_c, 0, 72, 55
1, 238635, Control_c, 0, 64, 82
1, 238646, Note_on_c, 0, 68, 35
1, 238650, Control_c, 0, 64, 82
1, 238676, Note_off_c, 0, 68, 54
1, 238679, Control_c, 0, 64, 83
1, 238719, Note_on_c, 0, 56, 67
1, 238738, Control_c, 0, 64, 81
1, 238753, Control_c, 0, 64, 77
1, 238758, Note_on_c, 0, 68, 51
1, 238768, Control_c, 0, 64, 70
1, 238782, Control_c, 0, 64, 61
1, 238797, Control_c, 0, 64, 26
1, 238801, Note_off_c, 0, 68, 52
1, 238812, Control_c, 0, 64, 40
1, 238827, Control_c, 0, 64, 58
1, 238836, Note_on_c, 0, 72, 50
1, 238842, Control_c, 0, 64, 64
1, 238856, Control_c, 0, 64, 67
1, 238871, Control_c, 0, 64, 68
1, 238886, Control_c, 0, 64, 68
1, 238892, Note_off_c, 0, 72, 60
1, 238901, Control_c, 0, 64, 69
1, 238909, Note_on_c, 0, 68, 53
1, 238916, Control_c, 0, 64, 70
1, 238918, Note_off_c, 0, 44, 56
1, 238930, Note_off_c, 0, 51, 59
1, 238931, Control_c, 0, 64, 72
1, 238946, Control_c, 0, 64, 73
1, 238961, Control_c, 0, 64, 74
1, 238974, Note_off_c, 0, 68, 60
1, 238976, Control_c, 0, 64, 75
1, 238990, Control_c, 0, 64, 76
1, 239002, Note_on_c, 0, 63, 42
1, 239005, Control_c, 0, 64, 76
1, 239050, Control_c, 0, 64, 77
1, 239065, Note_off_c, 0, 63, 41
1, 239101, Control_c, 0, 64, 77
1, 239110, Note_on_c, 0, 68, 47
1, 239131, Control_c, 0, 64, 78
1, 239190, Control_c, 0, 67, 124
1, 239205, Control_c, 0, 67, 121
1, 239217, Note_off_c, 0, 68, 35
1, 239220, Control_c, 0, 67, 120
1, 239229, Note_on_c, 0, 55, 67
1, 239235, Control_c, 0, 67, 119
1, 239290, Note_off_c, 0, 56, 35
1, 239353, Control_c, 0, 64, 77
1, 239368, Control_c, 0, 64, 76
1, 239383, Control_c, 0, 64, 71
1, 239397, Control_c, 0, 64, 63
1, 239413, Note_on_c, 0, 53, 63
1, 239413, Control_c, 0, 64, 0
1, 239413, Control_c, 0, 67, 119
1, 239417, Note_off_c, 0, 55, 60
1, 239418, Note_on_c, 0, 49, 51
1, 239428, Control_c, 0, 67, 118
1, 239435, Note_on_c, 0, 73, 58
1, 239443, Control_c, 0, 67, 116
1, 239458, Control_c, 0, 67, 113
1, 239473, Control_c, 0, 67, 110
1, 239487, Control_c, 0, 67, 108
1, 239502, Control_c, 0, 64, 53
1, 239502, Control_c, 0, 67, 107
1, 239507, Note_off_c, 0, 73, 63
1, 239517, Control_c, 0, 64, 63
1, 239517, Control_c, 0, 67, 104
1, 239521, Note_on_c, 0, 77, 64
1, 239531, Control_c, 0, 64, 65
1, 239531, Control_c, 0, 67, 101
1, 239546, Control_c, 0, 64, 66
1, 239546, Control_c, 0, 67, 97
1, 239561, Control_c, 0, 64, 68
1, 239561, Control_c, 0, 67, 94
1, 239576, Control_c, 0, 64, 70
1, 239576, Control_c, 0, 67, 93
1, 239578, Note_off_c, 0, 77, 57
1, 239591, Control_c, 0, 64, 72
1, 239591, Control_c, 0, 67, 91
1, 239603, Note_on_c, 0, 73, 63
1, 239605, Control_c, 0, 64, 75
1, 239605, Control_c, 0, 67, 90
1, 239620, Control_c, 0, 64, 76
1, 239620, Control_c, 0, 67, 88
1, 239635, Control_c, 0, 64, 77
1, 239635, Control_c, 0, 67, 87
1, 239650, Control_c, 0, 64, 78
1, 239655, Note_off_c, 0, 73, 59
1, 239665, Control_c, 0, 64, 78
1, 239665, Control_c, 0, 67, 87
1, 239679, Control_c, 0, 64, 79
1, 239679, Control_c, 0, 67, 86
1, 239694, Control_c, 0, 67, 85
1, 239697, Note_on_c, 0, 68, 49
1, 239709, Control_c, 0, 67, 84
1, 239724, Control_c, 0, 67, 82
1, 239726, Note_off_c, 0, 68, 53
1, 239739, Control_c, 0, 67, 81
1, 239754, Control_c, 0, 67, 80
1, 239769, Control_c, 0, 64, 78
1, 239769, Control_c, 0, 67, 79
1, 239774, Note_on_c, 0, 61, 77
1, 239783, Control_c, 0, 64, 74
1, 239783, Control_c, 0, 67, 77
1, 239798, Control_c, 0, 64, 66
1, 239798, Control_c, 0, 67, 75
1, 239806, Note_on_c, 0, 68, 51
1, 239813, Control_c, 0, 64, 26
1, 239813, Control_c, 0, 67, 73
1, 239835, Control_c, 0, 64, 0
1, 239835, Control_c, 0, 67, 71
1, 239850, Control_c, 0, 67, 67
1, 239862, Note_off_c, 0, 68, 62
1, 239865, Control_c, 0, 67, 62
1, 239877, Note_on_c, 0, 73, 52
1, 239880, Control_c, 0, 67, 58
1, 239894, Control_c, 0, 64, 60
1, 239894, Control_c, 0, 67, 54
1, 239909, Control_c, 0, 64, 65
1, 239909, Control_c, 0, 67, 51
1, 239924, Control_c, 0, 64, 67
1, 239924, Control_c, 0, 67, 47
1, 239930, Note_off_c, 0, 73, 59
1, 239938, Control_c, 0, 64, 67
1, 239938, Control_c, 0, 67, 44
1, 239953, Control_c, 0, 64, 68
1, 239953, Control_c, 0, 67, 42
1, 239956, Note_on_c, 0, 68, 51
1, 239968, Control_c, 0, 64, 70
1, 239968, Control_c, 0, 67, 39
1, 239983, Control_c, 0, 64, 71
1, 239983, Control_c, 0, 67, 37
1, 239998, Note_off_c, 0, 68, 64
1, 239998, Control_c, 0, 64, 73
1, 239998, Control_c, 0, 67, 34
1, 240013, Control_c, 0, 64, 74
1, 240013, Control_c, 0, 67, 33
1, 240020, Note_on_c, 0, 65, 53
1, 240024, Note_off_c, 0, 53, 62
1, 240028, Control_c, 0, 64, 76
1, 240028, Control_c, 0, 67, 31
1, 240043, Control_c, 0, 64, 76
1, 240043, Control_c, 0, 67, 30
1, 240058, Control_c, 0, 67, 30
1, 240073, Control_c, 0, 64, 77
1, 240073, Control_c, 0, 67, 28
1, 240082, Note_off_c, 0, 65, 52
1, 240087, Control_c, 0, 67, 27
1, 240102, Control_c, 0, 67, 24
1, 240103, Note_on_c, 0, 68, 57
1, 240117, Control_c, 0, 67, 23
1, 240131, Control_c, 0, 67, 21
1, 240146, Control_c, 0, 64, 77
1, 240146, Control_c, 0, 67, 20
1, 240161, Control_c, 0, 67, 20
1, 240176, Control_c, 0, 67, 19
1, 240206, Control_c, 0, 67, 18
1, 240222, Control_c, 0, 67, 17
1, 240232, Note_off_c, 0, 61, 57
1, 240236, Control_c, 0, 67, 15
1, 240246, Note_off_c, 0, 68, 38
1, 240251, Control_c, 0, 67, 15
1, 240266, Control_c, 0, 67, 14
1, 240272, Note_on_c, 0, 60, 73
1, 240281, Note_off_c, 0, 49, 61
1, 240281, Control_c, 0, 67, 13
1, 240296, Control_c, 0, 67, 12
1, 240310, Control_c, 0, 67, 12
1, 240354, Control_c, 0, 67, 11
1, 240399, Control_c, 0, 64, 76
1, 240414, Control_c, 0, 64, 75
1, 240428, Control_c, 0, 64, 72
1, 240438, Note_on_c, 0, 58, 68
1, 240443, Control_c, 0, 64, 68
1, 240449, Note_on_c, 0, 51, 63
1, 240458, Control_c, 0, 64, 64
1, 240469, Note_on_c, 0, 75, 65
1, 240473, Control_c, 0, 64, 57
1, 240478, Note_off_c, 0, 60, 47
1, 240488, Control_c, 0, 64, 47
1, 240502, Control_c, 0, 64, 39
1, 240517, Control_c, 0, 64, 37
1, 240517, Control_c, 0, 67, 11
1, 240532, Control_c, 0, 64, 34
1, 240541, Note_off_c, 0, 75, 65
1, 240547, Control_c, 0, 64, 29
1, 240559, Note_on_c, 0, 79, 68
1, 240561, Control_c, 0, 64, 0
1, 240624, Note_off_c, 0, 79, 60
1, 240648, Note_on_c, 0, 75, 64
1, 240702, Control_c, 0, 67, 11
1, 240707, Note_off_c, 0, 75, 64
1, 240731, Note_on_c, 0, 70, 64
1, 240764, Note_off_c, 0, 70, 62
1, 240806, Control_c, 0, 67, 12
1, 240808, Note_on_c, 0, 63, 79
1, 240845, Note_on_c, 0, 70, 53
1, 240891, Note_off_c, 0, 70, 59
1, 240908, Note_on_c, 0, 75, 53
1, 240939, Control_c, 0, 67, 13
1, 240953, Control_c, 0, 67, 14
1, 240968, Control_c, 0, 64, 61
1, 240968, Control_c, 0, 67, 15
1, 240977, Note_off_c, 0, 75, 56
1, 240983, Control_c, 0, 64, 66
1, 240983, Control_c, 0, 67, 17
1, 240985, Note_on_c, 0, 70, 60
1, 240998, Control_c, 0, 64, 69
1, 240998, Control_c, 0, 67, 19
1, 241014, Control_c, 0, 64, 72
1, 241014, Control_c, 0, 67, 20
1, 241029, Control_c, 0, 64, 75
1, 241029, Control_c, 0, 67, 21
1, 241038, Note_off_c, 0, 51, 57
1, 241044, Control_c, 0, 64, 77
1, 241044, Control_c, 0, 67, 22
1, 241047, Note_off_c, 0, 70, 58
1, 241058, Control_c, 0, 64, 78
1, 241058, Control_c, 0, 67, 22
1, 241062, Note_on_c, 0, 67, 55
1, 241068, Note_off_c, 0, 58, 34
1, 241073, Control_c, 0, 67, 23
1, 241088, Control_c, 0, 67, 25
1, 241102, Control_c, 0, 67, 27
1, 241117, Control_c, 0, 67, 29
1, 241132, Control_c, 0, 67, 32
1, 241147, Control_c, 0, 67, 35
1, 241149, Note_off_c, 0, 67, 53
1, 241156, Note_on_c, 0, 70, 62
1, 241162, Control_c, 0, 67, 37
1, 241176, Control_c, 0, 67, 39
1, 241191, Control_c, 0, 67, 41
1, 241206, Control_c, 0, 67, 41
1, 241221, Control_c, 0, 67, 42
1, 241251, Control_c, 0, 67, 43
1, 241265, Control_c, 0, 67, 44
1, 241280, Control_c, 0, 67, 45
1, 241291, Note_off_c, 0, 70, 55
1, 241295, Control_c, 0, 67, 45
1, 241304, Note_on_c, 0, 61, 71
1, 241336, Note_off_c, 0, 63, 53
1, 241347, Control_c, 0, 67, 46
1, 241362, Control_c, 0, 67, 46
1, 241377, Control_c, 0, 67, 47
1, 241391, Control_c, 0, 64, 77
1, 241391, Control_c, 0, 67, 48
1, 241406, Control_c, 0, 64, 77
1, 241406, Control_c, 0, 67, 50
1, 241421, Control_c, 0, 64, 76
1, 241421, Control_c, 0, 67, 51
1, 241436, Control_c, 0, 64, 75
1, 241436, Control_c, 0, 67, 52
1, 241451, Control_c, 0, 64, 72
1, 241451, Control_c, 0, 67, 53
1, 241465, Control_c, 0, 64, 69
1, 241465, Control_c, 0, 67, 55
1, 241472, Note_off_c, 0, 61, 61
1, 241480, Control_c, 0, 64, 64
1, 241480, Control_c, 0, 67, 57
1, 241495, Control_c, 0, 64, 54
1, 241495, Control_c, 0, 67, 58
1, 241496, Note_on_c, 0, 56, 53
1, 241497, Note_on_c, 0, 60, 49
1, 241509, Control_c, 0, 64, 28
1, 241509, Control_c, 0, 67, 59
1, 241517, Note_on_c, 0, 75, 58
1, 241524, Control_c, 0, 64, 0
1, 241524, Control_c, 0, 67, 60
1, 241539, Control_c, 0, 67, 60
1, 241566, Note_off_c, 0, 75, 62
1, 241569, Control_c, 0, 67, 61
1, 241584, Control_c, 0, 67, 62
1, 241590, Note_on_c, 0, 80, 69
1, 241614, Control_c, 0, 67, 62
1, 241661, Note_off_c, 0, 80, 63
1, 241673, Note_on_c, 0, 75, 65
1, 241673, Control_c, 0, 67, 62
1, 241712, Note_off_c, 0, 75, 65
1, 241732, Control_c, 0, 67, 61
1, 241745, Note_on_c, 0, 72, 59
1, 241769, Note_off_c, 0, 72, 66
1, 241821, Note_on_c, 0, 63, 63
1, 241840, Note_on_c, 0, 72, 55
1, 241879, Note_off_c, 0, 72, 52
1, 241911, Note_on_c, 0, 75, 56
1, 241911, Control_c, 0, 67, 61
1, 241925, Control_c, 0, 67, 60
1, 241957, Note_off_c, 0, 75, 60
1, 241970, Control_c, 0, 67, 60
1, 241985, Control_c, 0, 64, 42
1, 241985, Control_c, 0, 67, 59
1, 241988, Note_on_c, 0, 72, 57
1, 242000, Control_c, 0, 64, 59
1, 242000, Control_c, 0, 67, 58
1, 242007, Note_off_c, 0, 63, 55
1, 242014, Control_c, 0, 64, 63
1, 242014, Control_c, 0, 67, 58
1, 242023, Note_off_c, 0, 60, 54
1, 242025, Note_off_c, 0, 72, 62
1, 242029, Control_c, 0, 64, 65
1, 242029, Control_c, 0, 67, 57
1, 242044, Control_c, 0, 64, 67
1, 242044, Control_c, 0, 67, 57
1, 242059, Control_c, 0, 64, 69
1, 242066, Note_on_c, 0, 68, 43
1, 242074, Control_c, 0, 64, 72
1, 242074, Control_c, 0, 67, 56
1, 242095, Note_off_c, 0, 56, 33
1, 242096, Control_c, 0, 64, 75
1, 242096, Control_c, 0, 67, 55
1, 242111, Control_c, 0, 64, 77
1, 242111, Control_c, 0, 67, 54
1, 242123, Note_off_c, 0, 68, 45
1, 242126, Control_c, 0, 64, 79
1, 242126, Control_c, 0, 67, 54
1, 242140, Control_c, 0, 64, 80
1, 242140, Control_c, 0, 67, 53
1, 242155, Control_c, 0, 64, 80
1, 242158, Note_on_c, 0, 72, 53
1, 242170, Control_c, 0, 64, 81
1, 242170, Control_c, 0, 67, 53
1, 242185, Control_c, 0, 64, 81
1, 242185, Control_c, 0, 67, 52
1, 242200, Control_c, 0, 64, 82
1, 242200, Control_c, 0, 67, 51
1, 242214, Control_c, 0, 67, 49
1, 242229, Control_c, 0, 64, 82
1, 242229, Control_c, 0, 67, 47
1, 242240, Note_off_c, 0, 72, 60
1, 242244, Control_c, 0, 67, 44
1, 242259, Control_c, 0, 67, 42
1, 242274, Control_c, 0, 67, 40
1, 242288, Control_c, 0, 67, 39
1, 242303, Control_c, 0, 67, 38
1, 242332, Control_c, 0, 64, 83
1, 242332, Control_c, 0, 67, 39
1, 242347, Control_c, 0, 67, 39
1, 242392, Control_c, 0, 67, 40
1, 242481, Control_c, 0, 67, 39
1, 242570, Control_c, 0, 64, 82
1, 242583, Note_on_c, 0, 84, 58
1, 242585, Control_c, 0, 64, 79
1, 242588, Note_on_c, 0, 51, 62
1, 242600, Control_c, 0, 64, 73
1, 242600, Control_c, 0, 67, 39
1, 242607, Note_on_c, 0, 44, 47
1, 242615, Control_c, 0, 64, 64
1, 242615, Control_c, 0, 67, 38
1, 242630, Control_c, 0, 64, 0
1, 242640, Note_off_c, 0, 84, 0
1, 242640, Note_on_c, 0, 84, 12
1, 242645, Control_c, 0, 67, 38
1, 242660, Control_c, 0, 67, 37
1, 242675, Control_c, 0, 64, 49
1, 242689, Note_off_c, 0, 84, 60
1, 242690, Control_c, 0, 64, 64
1, 242690, Control_c, 0, 67, 37
1, 242697, Note_on_c, 0, 87, 61
1, 242704, Control_c, 0, 64, 67
1, 242704, Control_c, 0, 67, 35
1, 242719, Control_c, 0, 64, 69
1, 242719, Control_c, 0, 67, 33
1, 242734, Control_c, 0, 64, 70
1, 242734, Control_c, 0, 67, 32
1, 242748, Control_c, 0, 64, 72
1, 242748, Control_c, 0, 67, 31
1, 242763, Control_c, 0, 64, 74
1, 242763, Control_c, 0, 67, 30
1, 242778, Control_c, 0, 64, 76
1, 242778, Control_c, 0, 67, 29
1, 242788, Note_off_c, 0, 87, 61
1, 242789, Note_on_c, 0, 84, 63
1, 242793, Control_c, 0, 64, 77
1, 242793, Control_c, 0, 67, 27
1, 242808, Control_c, 0, 64, 78
1, 242808, Control_c, 0, 67, 26
1, 242830, Control_c, 0, 64, 79
1, 242845, Control_c, 0, 64, 79
1, 242859, Note_off_c, 0, 84, 65
1, 242860, Control_c, 0, 64, 80
1, 242873, Note_on_c, 0, 80, 57
1, 242890, Control_c, 0, 64, 80
1, 242899, Note_off_c, 0, 80, 59
1, 242904, Control_c, 0, 67, 25
1, 242919, Control_c, 0, 67, 25
1, 242934, Control_c, 0, 67, 24
1, 242943, Note_on_c, 0, 56, 73
1, 242949, Control_c, 0, 67, 23
1, 242963, Control_c, 0, 67, 23
1, 242973, Note_on_c, 0, 80, 64
1, 242978, Control_c, 0, 67, 22
1, 243008, Control_c, 0, 67, 22
1, 243023, Note_off_c, 0, 80, 61
1, 243023, Control_c, 0, 67, 21
1, 243037, Control_c, 0, 67, 21
1, 243045, Note_on_c, 0, 84, 64
1, 243052, Control_c, 0, 67, 20
1, 243067, Control_c, 0, 67, 20
1, 243081, Control_c, 0, 64, 81
1, 243096, Control_c, 0, 67, 19
1, 243109, Note_off_c, 0, 84, 62
1, 243126, Control_c, 0, 67, 19
1, 243133, Note_on_c, 0, 80, 64
1, 243161, Note_off_c, 0, 51, 39
1, 243163, Note_off_c, 0, 44, 41
1, 243174, Note_off_c, 0, 80, 65
1, 243185, Control_c, 0, 67, 18
1, 243198, Note_on_c, 0, 75, 56
1, 243215, Control_c, 0, 64, 81
1, 243289, Control_c, 0, 67, 18
1, 243289, Note_on_c, 0, 80, 61
1, 243296, Note_off_c, 0, 75, 34
1, 243334, Control_c, 0, 67, 17
1, 243429, Note_on_c, 0, 55, 73
1, 243441, Note_off_c, 0, 80, 57
1, 243494, Note_off_c, 0, 56, 34
1, 243557, Control_c, 0, 64, 81
1, 243578, Control_c, 0, 64, 80
1, 243593, Control_c, 0, 64, 77
1, 243608, Note_on_c, 0, 53, 66
1, 243608, Control_c, 0, 64, 70
1, 243608, Control_c, 0, 67, 17
1, 243610, Note_off_c, 0, 55, 61
1, 243616, Note_on_c, 0, 85, 65
1, 243617, Note_on_c, 0, 49, 57
1, 243623, Control_c, 0, 64, 52
1, 243638, Control_c, 0, 64, 0
1, 243653, Control_c, 0, 67, 16
1, 243682, Control_c, 0, 67, 15
1, 243690, Note_off_c, 0, 85, 64
1, 243709, Note_on_c, 0, 89, 71
1, 243712, Control_c, 0, 64, 55
1, 243712, Control_c, 0, 67, 15
1, 243727, Control_c, 0, 64, 64
1, 243727, Control_c, 0, 67, 14
1, 243742, Control_c, 0, 64, 66
1, 243742, Control_c, 0, 67, 14
1, 243757, Control_c, 0, 64, 68
1, 243772, Control_c, 0, 64, 71
1, 243772, Control_c, 0, 67, 13
1, 243786, Control_c, 0, 64, 74
1, 243786, Control_c, 0, 67, 12
1, 243789, Note_off_c, 0, 89, 62
1, 243790, Note_on_c, 0, 85, 70
1, 243801, Control_c, 0, 64, 77
1, 243801, Control_c, 0, 67, 11
1, 243816, Control_c, 0, 64, 79
1, 243816, Control_c, 0, 67, 9
1, 243831, Control_c, 0, 64, 80
1, 243831, Control_c, 0, 67, 9
1, 243844, Note_off_c, 0, 85, 58
1, 243846, Control_c, 0, 67, 8
1, 243860, Control_c, 0, 64, 80
1, 243867, Note_on_c, 0, 80, 72
1, 243875, Control_c, 0, 64, 81
1, 243903, Note_off_c, 0, 80, 61
1, 243904, Control_c, 0, 64, 81
1, 243945, Note_on_c, 0, 61, 81
1, 243949, Control_c, 0, 64, 80
1, 243949, Control_c, 0, 67, 8
1, 243956, Note_on_c, 0, 80, 64
1, 243964, Control_c, 0, 64, 76
1, 243978, Control_c, 0, 64, 67
1, 243993, Control_c, 0, 64, 32
1, 243993, Control_c, 0, 67, 0
1, 244008, Control_c, 0, 64, 0
1, 244023, Note_off_c, 0, 80, 63
1, 244028, Note_on_c, 0, 85, 71
1, 244052, Control_c, 0, 64, 54
1, 244067, Control_c, 0, 64, 67
1, 244082, Control_c, 0, 64, 70
1, 244097, Control_c, 0, 64, 72
1, 244108, Note_off_c, 0, 85, 61
1, 244112, Control_c, 0, 64, 73
1, 244112, Note_on_c, 0, 80, 71
1, 244127, Control_c, 0, 64, 75
1, 244142, Control_c, 0, 64, 77
1, 244156, Control_c, 0, 64, 78
1, 244169, Note_off_c, 0, 80, 65
1, 244171, Control_c, 0, 64, 79
1, 244192, Note_on_c, 0, 77, 63
1, 244201, Control_c, 0, 64, 79
1, 244216, Control_c, 0, 64, 80
1, 244246, Control_c, 0, 64, 80
1, 244261, Note_on_c, 0, 80, 78
1, 244265, Note_off_c, 0, 77, 59
1, 244306, Control_c, 0, 64, 81
1, 244364, Note_off_c, 0, 61, 61
1, 244374, Note_off_c, 0, 80, 64
1, 244417, Control_c, 0, 64, 81
1, 244421, Note_on_c, 0, 60, 79
1, 244445, Note_off_c, 0, 53, 54
1, 244446, Note_off_c, 0, 49, 48
1, 244521, Control_c, 0, 64, 82
1, 244580, Control_c, 0, 64, 81
1, 244590, Note_on_c, 0, 58, 74
1, 244591, Note_on_c, 0, 51, 70
1, 244595, Control_c, 0, 64, 78
1, 244610, Control_c, 0, 64, 70
1, 244614, Note_on_c, 0, 87, 75
1, 244621, Note_off_c, 0, 60, 53
1, 244624, Control_c, 0, 64, 44
1, 244639, Control_c, 0, 64, 0
1, 244684, Control_c, 0, 64, 18
1, 244699, Note_off_c, 0, 87, 60
1, 244699, Control_c, 0, 64, 64
1, 244707, Note_on_c, 0, 91, 83
1, 244714, Control_c, 0, 64, 68
1, 244728, Control_c, 0, 64, 71
1, 244743, Control_c, 0, 64, 74
1, 244758, Control_c, 0, 64, 76
1, 244773, Control_c, 0, 64, 78
1, 244787, Note_off_c, 0, 91, 62
1, 244788, Control_c, 0, 64, 79
1, 244794, Note_on_c, 0, 87, 73
1, 244817, Control_c, 0, 64, 79
1, 244832, Control_c, 0, 64, 80
1, 244847, Control_c, 0, 64, 81
1, 244853, Note_off_c, 0, 87, 63
1, 244862, Control_c, 0, 64, 82
1, 244865, Note_on_c, 0, 82, 74
1, 244876, Control_c, 0, 64, 83
1, 244898, Note_off_c, 0, 82, 61
1, 244931, Note_on_c, 0, 63, 90
1, 244935, Control_c, 0, 64, 80
1, 244946, Note_on_c, 0, 82, 72
1, 244950, Control_c, 0, 64, 73
1, 244965, Control_c, 0, 64, 60
1, 244980, Control_c, 0, 64, 0
1, 245025, Note_off_c, 0, 82, 64
1, 245028, Note_on_c, 0, 87, 72
1, 245039, Control_c, 0, 64, 63
1, 245054, Control_c, 0, 64, 68
1, 245077, Control_c, 0, 64, 70
1, 245092, Control_c, 0, 64, 72
1, 245106, Control_c, 0, 64, 75
1, 245113, Note_on_c, 0, 82, 75
1, 245120, Note_off_c, 0, 87, 59
1, 245121, Control_c, 0, 64, 78
1, 245136, Control_c, 0, 64, 80
1, 245150, Control_c, 0, 64, 81
1, 245165, Control_c, 0, 64, 81
1, 245170, Note_off_c, 0, 82, 65
1, 245177, Note_off_c, 0, 58, 61
1, 245180, Note_on_c, 0, 79, 71
1, 245180, Control_c, 0, 64, 82
1, 245188, Note_off_c, 0, 51, 57
1, 245210, Control_c, 0, 64, 82
1, 245239, Control_c, 0, 64, 83
1, 245260, Note_on_c, 0, 82, 78
1, 245262, Note_off_c, 0, 79, 60
1, 245283, Control_c, 0, 64, 83
1, 245358, Control_c, 0, 64, 84
1, 245361, Note_off_c, 0, 82, 64
1, 245411, Note_on_c, 0, 61, 81
1, 245417, Note_off_c, 0, 63, 63
1, 245579, Note_off_c, 0, 61, 62
1, 245585, Note_on_c, 0, 60, 70
1, 245592, Note_on_c, 0, 56, 63
1, 245595, Control_c, 0, 64, 80
1, 245601, Note_on_c, 0, 87, 75
1, 245610, Control_c, 0, 64, 71
1, 245624, Control_c, 0, 64, 41
1, 245639, Control_c, 0, 64, 0
1, 245674, Note_off_c, 0, 87, 63
1, 245680, Note_on_c, 0, 92, 85
1, 245698, Control_c, 0, 64, 62
1, 245713, Control_c, 0, 64, 67
1, 245728, Control_c, 0, 64, 69
1, 245743, Control_c, 0, 64, 72
1, 245757, Control_c, 0, 64, 76
1, 245764, Note_on_c, 0, 87, 80
1, 245772, Control_c, 0, 64, 80
1, 245776, Note_off_c, 0, 92, 63
1, 245787, Control_c, 0, 64, 82
1, 245803, Control_c, 0, 64, 83
1, 245826, Control_c, 0, 64, 84
1, 245827, Note_off_c, 0, 87, 65
1, 245841, Control_c, 0, 64, 85
1, 245847, Note_on_c, 0, 84, 71
1, 245855, Control_c, 0, 64, 86
1, 245872, Note_off_c, 0, 84, 68
1, 245915, Control_c, 0, 64, 83
1, 245924, Note_on_c, 0, 63, 88
1, 245924, Note_on_c, 0, 84, 75
1, 245929, Control_c, 0, 64, 75
1, 245944, Control_c, 0, 64, 58
1, 245959, Control_c, 0, 64, 0
1, 245996, Note_off_c, 0, 84, 62
1, 246003, Control_c, 0, 64, 30
1, 246006, Note_on_c, 0, 87, 71
1, 246018, Control_c, 0, 64, 65
1, 246033, Control_c, 0, 64, 70
1, 246047, Control_c, 0, 64, 73
1, 246052, Note_off_c, 0, 60, 57
1, 246062, Control_c, 0, 64, 76
1, 246068, Note_off_c, 0, 87, 63
1, 246077, Control_c, 0, 64, 78
1, 246079, Note_on_c, 0, 84, 73
1, 246092, Control_c, 0, 64, 80
1, 246106, Control_c, 0, 64, 81
1, 246121, Control_c, 0, 64, 82
1, 246130, Note_off_c, 0, 84, 63
1, 246136, Control_c, 0, 64, 83
1, 246154, Note_on_c, 0, 80, 67
1, 246166, Control_c, 0, 64, 84
1, 246180, Control_c, 0, 64, 84
1, 246219, Note_off_c, 0, 80, 63
1, 246226, Note_on_c, 0, 84, 73
1, 246240, Control_c, 0, 64, 85
1, 246293, Note_off_c, 0, 84, 60
1, 246347, Note_off_c, 0, 56, 56
1, 246366, Note_on_c, 0, 60, 76
1, 246386, Note_off_c, 0, 63, 58
1, 246404, Control_c, 0, 64, 85
1, 246552, Control_c, 0, 64, 83
1, 246567, Control_c, 0, 64, 75
1, 246575, Note_on_c, 0, 58, 69
1, 246577, Note_on_c, 0, 87, 65
1, 246589, Control_c, 0, 64, 52
1, 246604, Control_c, 0, 64, 0
1, 246607, Note_on_c, 0, 51, 54
1, 246619, Note_off_c, 0, 60, 54
1, 246619, Control_c, 0, 67, 10
1, 246634, Control_c, 0, 67, 14
1, 246644, Note_off_c, 0, 87, 64
1, 246649, Control_c, 0, 67, 18
1, 246662, Note_on_c, 0, 91, 74
1, 246664, Control_c, 0, 67, 22
1, 246678, Control_c, 0, 67, 22
1, 246693, Control_c, 0, 64, 63
1, 246693, Control_c, 0, 67, 22
1, 246708, Control_c, 0, 64, 68
1, 246723, Control_c, 0, 64, 72
1, 246723, Control_c, 0, 67, 21
1, 246735, Note_off_c, 0, 91, 61
1, 246738, Control_c, 0, 64, 76
1, 246738, Control_c, 0, 67, 19
1, 246741, Note_on_c, 0, 87, 68
1, 246753, Control_c, 0, 64, 80
1, 246753, Control_c, 0, 67, 16
1, 246768, Control_c, 0, 64, 81
1, 246768, Control_c, 0, 67, 14
1, 246783, Control_c, 0, 64, 82
1, 246783, Control_c, 0, 67, 12
1, 246793, Note_off_c, 0, 87, 59
1, 246797, Control_c, 0, 64, 82
1, 246797, Control_c, 0, 67, 11
1, 246812, Control_c, 0, 67, 9
1, 246815, Note_on_c, 0, 82, 72
1, 246827, Control_c, 0, 64, 83
1, 246827, Control_c, 0, 67, 8
1, 246842, Control_c, 0, 67, 0
1, 246857, Control_c, 0, 64, 83
1, 246863, Note_off_c, 0, 82, 62
1, 246871, Control_c, 0, 64, 84
1, 246886, Control_c, 0, 64, 85
1, 246901, Control_c, 0, 64, 85
1, 246905, Note_on_c, 0, 63, 90
1, 246905, Note_on_c, 0, 82, 64
1, 246916, Control_c, 0, 64, 86
1, 246982, Note_off_c, 0, 82, 64
1, 246989, Note_on_c, 0, 87, 72
1, 247066, Note_on_c, 0, 82, 76
1, 247069, Note_off_c, 0, 87, 61
1, 247087, Note_off_c, 0, 51, 49
1, 247125, Note_off_c, 0, 82, 64
1, 247134, Note_on_c, 0, 79, 74
1, 247139, Note_off_c, 0, 58, 60
1, 247210, Note_on_c, 0, 82, 86
1, 247215, Note_off_c, 0, 79, 61
1, 247301, Note_off_c, 0, 82, 64
1, 247369, Note_off_c, 0, 63, 55
1, 247376, Note_on_c, 0, 61, 86
1, 247517, Control_c, 0, 64, 85
1, 247525, Note_off_c, 0, 61, 60
1, 247532, Control_c, 0, 64, 77
1, 247545, Note_on_c, 0, 60, 70
1, 247547, Control_c, 0, 64, 60
1, 247547, Note_on_c, 0, 56, 63
1, 247559, Note_on_c, 0, 87, 79
1, 247561, Control_c, 0, 64, 0
1, 247617, Note_off_c, 0, 87, 64
1, 247632, Note_on_c, 0, 92, 86
1, 247635, Control_c, 0, 64, 48
1, 247650, Control_c, 0, 64, 65
1, 247665, Control_c, 0, 64, 69
1, 247680, Control_c, 0, 64, 73
1, 247695, Control_c, 0, 64, 77
1, 247710, Control_c, 0, 64, 81
1, 247715, Note_on_c, 0, 87, 83
1, 247717, Note_off_c, 0, 92, 65
1, 247725, Control_c, 0, 64, 82
1, 247739, Control_c, 0, 64, 83
1, 247754, Control_c, 0, 64, 84
1, 247769, Control_c, 0, 64, 85
1, 247769, Note_off_c, 0, 87, 64
1, 247784, Control_c, 0, 64, 86
1, 247790, Note_on_c, 0, 84, 70
1, 247799, Control_c, 0, 64, 87
1, 247822, Note_off_c, 0, 84, 62
1, 247843, Control_c, 0, 64, 86
1, 247858, Control_c, 0, 64, 80
1, 247868, Note_on_c, 0, 63, 97
1, 247868, Note_on_c, 0, 84, 75
1, 247872, Control_c, 0, 64, 68
1, 247887, Control_c, 0, 64, 0
1, 247932, Control_c, 0, 64, 56
1, 247934, Note_off_c, 0, 84, 64
1, 247946, Control_c, 0, 64, 67
1, 247948, Note_on_c, 0, 87, 75
1, 247955, Note_off_c, 0, 60, 59
1, 247961, Control_c, 0, 64, 71
1, 247976, Control_c, 0, 64, 74
1, 247991, Control_c, 0, 64, 75
1, 248006, Control_c, 0, 64, 77
1, 248017, Note_off_c, 0, 87, 63
1, 248019, Note_on_c, 0, 84, 79
1, 248020, Control_c, 0, 64, 78
1, 248035, Control_c, 0, 64, 79
1, 248050, Control_c, 0, 64, 80
1, 248072, Control_c, 0, 64, 81
1, 248078, Note_off_c, 0, 84, 65
1, 248087, Control_c, 0, 64, 81
1, 248097, Note_on_c, 0, 80, 75
1, 248102, Control_c, 0, 64, 82
1, 248117, Control_c, 0, 64, 82
1, 248132, Control_c, 0, 64, 83
1, 248136, Note_off_c, 0, 63, 53
1, 248146, Control_c, 0, 64, 83
1, 248151, Note_off_c, 0, 80, 64
1, 248176, Control_c, 0, 64, 84
1, 248179, Note_on_c, 0, 84, 72
1, 248248, Note_off_c, 0, 56, 60
1, 248261, Note_off_c, 0, 84, 65
1, 248317, Note_on_c, 0, 60, 92
1, 248384, Control_c, 0, 64, 84
1, 248399, Control_c, 0, 64, 85
1, 248414, Control_c, 0, 64, 86
1, 248419, Note_off_c, 0, 60, 58
1, 248473, Control_c, 0, 64, 79
1, 248488, Control_c, 0, 64, 62
1, 248503, Control_c, 0, 64, 0
1, 248505, Note_on_c, 0, 60, 92
1, 248509, Note_on_c, 0, 53, 79
1, 248520, Note_on_c, 0, 89, 88
1, 248607, Control_c, 0, 64, 64
1, 248622, Control_c, 0, 64, 69
1, 248628, Note_off_c, 0, 89, 66
1, 248631, Note_on_c, 0, 93, 83
1, 248637, Control_c, 0, 64, 73
1, 248651, Control_c, 0, 64, 78
1, 248666, Control_c, 0, 64, 85
1, 248681, Control_c, 0, 64, 89
1, 248695, Control_c, 0, 64, 92
1, 248710, Control_c, 0, 64, 94
1, 248711, Note_off_c, 0, 93, 63
1, 248718, Note_on_c, 0, 89, 69
1, 248725, Control_c, 0, 64, 95
1, 248740, Control_c, 0, 64, 96
1, 248755, Control_c, 0, 64, 98
1, 248765, Note_off_c, 0, 89, 62
1, 248768, Control_c, 0, 64, 100
1, 248783, Control_c, 0, 64, 102
1, 248794, Note_on_c, 0, 84, 66
1, 248798, Control_c, 0, 64, 103
1, 248813, Control_c, 0, 64, 104
1, 248827, Note_off_c, 0, 84, 69
1, 248836, Control_c, 0, 64, 103
1, 248850, Control_c, 0, 64, 100
1, 248864, Note_on_c, 0, 65, 99
1, 248865, Control_c, 0, 64, 88
1, 248878, Note_on_c, 0, 84, 86
1, 248880, Control_c, 0, 64, 71
1, 248894, Control_c, 0, 64, 0
1, 248939, Note_off_c, 0, 84, 64
1, 248939, Control_c, 0, 64, 65
1, 248954, Control_c, 0, 64, 76
1, 248960, Note_on_c, 0, 89, 75
1, 248968, Control_c, 0, 64, 84
1, 248983, Control_c, 0, 64, 89
1, 248999, Control_c, 0, 64, 89
1, 249008, Note_off_c, 0, 60, 56
1, 249029, Control_c, 0, 64, 90
1, 249030, Note_off_c, 0, 89, 64
1, 249033, Note_off_c, 0, 53, 62
1, 249037, Note_on_c, 0, 84, 82
1, 249087, Note_off_c, 0, 84, 65
1, 249102, Note_on_c, 0, 81, 79
1, 249165, Note_off_c, 0, 81, 58
1, 249176, Note_on_c, 0, 84, 88
1, 249214, Note_off_c, 0, 84, 62
1, 249283, Note_off_c, 0, 65, 60
1, 249325, Note_on_c, 0, 63, 94
1, 249414, Control_c, 0, 64, 90
1, 249488, Control_c, 0, 64, 88
1, 249503, Control_c, 0, 64, 77
1, 249504, Note_on_c, 0, 61, 82
1, 249506, Note_on_c, 0, 58, 78
1, 249509, Note_off_c, 0, 63, 64
1, 249514, Note_on_c, 0, 89, 90
1, 249517, Control_c, 0, 64, 0
1, 249604, Note_off_c, 0, 89, 63
1, 249606, Note_on_c, 0, 94, 85
1, 249614, Control_c, 0, 64, 61
1, 249629, Control_c, 0, 64, 68
1, 249644, Control_c, 0, 64, 72
1, 249658, Control_c, 0, 64, 76
1, 249673, Control_c, 0, 64, 80
1, 249679, Note_on_c, 0, 89, 74
1, 249680, Note_off_c, 0, 94, 66
1, 249688, Control_c, 0, 64, 82
1, 249703, Control_c, 0, 64, 83
1, 249717, Control_c, 0, 64, 84
1, 249732, Control_c, 0, 64, 85
1, 249735, Note_off_c, 0, 89, 65
1, 249747, Control_c, 0, 64, 87
1, 249758, Note_on_c, 0, 85, 76
1, 249762, Control_c, 0, 64, 89
1, 249777, Control_c, 0, 64, 91
1, 249793, Note_off_c, 0, 85, 63
1, 249793, Control_c, 0, 64, 92
1, 249808, Control_c, 0, 64, 91
1, 249822, Control_c, 0, 64, 90
1, 249837, Note_on_c, 0, 85, 71
1, 249837, Control_c, 0, 64, 81
1, 249839, Note_on_c, 0, 65, 96
1, 249852, Control_c, 0, 64, 64
1, 249867, Control_c, 0, 64, 0
1, 249900, Note_off_c, 0, 85, 65
1, 249910, Note_on_c, 0, 89, 79
1, 249926, Control_c, 0, 64, 57
1, 249940, Control_c, 0, 64, 68
1, 249955, Control_c, 0, 64, 73
1, 249970, Control_c, 0, 64, 77
1, 249984, Note_off_c, 0, 89, 64
1, 249985, Control_c, 0, 64, 79
1, 249987, Note_on_c, 0, 85, 79
1, 250000, Control_c, 0, 64, 81
1, 250014, Control_c, 0, 64, 82
1, 250029, Control_c, 0, 64, 83
1, 250040, Note_off_c, 0, 85, 65
1, 250044, Control_c, 0, 64, 83
1, 250048, Note_off_c, 0, 61, 56
1, 250058, Note_on_c, 0, 82, 81
1, 250059, Control_c, 0, 64, 84
1, 250088, Control_c, 0, 64, 84
1, 250098, Note_off_c, 0, 82, 61
1, 250133, Note_on_c, 0, 85, 91
1, 250184, Note_off_c, 0, 85, 63
1, 250256, Note_off_c, 0, 65, 51
1, 250293, Note_on_c, 0, 61, 79
1, 250306, Note_off_c, 0, 58, 60
1, 250460, Note_off_c, 0, 61, 61
1, 250482, Control_c, 0, 64, 83
1, 250487, Note_on_c, 0, 60, 61
1, 250497, Control_c, 0, 64, 77
1, 250498, Note_on_c, 0, 53, 57
1, 250505, Note_on_c, 0, 89, 79
1, 250512, Control_c, 0, 64, 63
1, 250527, Control_c, 0, 64, 0
1, 250586, Note_off_c, 0, 89, 64
1, 250595, Note_on_c, 0, 93, 80
1, 250631, Control_c, 0, 64, 58
1, 250646, Control_c, 0, 64, 64
1, 250661, Control_c, 0, 64, 66
1, 250667, Note_off_c, 0, 93, 62
1, 250669, Note_on_c, 0, 89, 74
1, 250676, Control_c, 0, 64, 67
1, 250690, Control_c, 0, 64, 69
1, 250705, Control_c, 0, 64, 71
1, 250720, Control_c, 0, 64, 73
1, 250729, Note_off_c, 0, 89, 64
1, 250735, Control_c, 0, 64, 76
1, 250750, Control_c, 0, 64, 79
1, 250750, Note_on_c, 0, 84, 70
1, 250764, Control_c, 0, 64, 81
1, 250777, Note_off_c, 0, 84, 66
1, 250779, Control_c, 0, 64, 82
1, 250794, Control_c, 0, 64, 83
1, 250824, Control_c, 0, 64, 81
1, 250825, Note_on_c, 0, 65, 86
1, 250834, Note_on_c, 0, 84, 75
1, 250838, Control_c, 0, 64, 74
1, 250853, Control_c, 0, 64, 25
1, 250868, Control_c, 0, 64, 0
1, 250893, Note_off_c, 0, 84, 64
1, 250911, Note_on_c, 0, 89, 69
1, 250927, Control_c, 0, 64, 61
1, 250942, Control_c, 0, 64, 68
1, 250957, Control_c, 0, 64, 73
1, 250971, Control_c, 0, 64, 76
1, 250979, Note_off_c, 0, 89, 64
1, 250986, Control_c, 0, 64, 78
1, 250989, Note_on_c, 0, 84, 71
1, 251001, Control_c, 0, 64, 79
1, 251016, Control_c, 0, 64, 80
1, 251031, Control_c, 0, 64, 80
1, 251036, Note_off_c, 0, 84, 63
1, 251041, Note_off_c, 0, 53, 41
1, 251045, Control_c, 0, 64, 81
1, 251056, Note_on_c, 0, 81, 69
1, 251068, Control_c, 0, 64, 81
1, 251083, Control_c, 0, 64, 82
1, 251085, Note_off_c, 0, 60, 61
1, 251097, Control_c, 0, 64, 82
1, 251127, Control_c, 0, 64, 83
1, 251130, Note_off_c, 0, 81, 56
1, 251147, Note_on_c, 0, 84, 73
1, 251186, Control_c, 0, 64, 83
1, 251215, Note_off_c, 0, 84, 59
1, 251260, Control_c, 0, 64, 84
1, 251302, Note_on_c, 0, 63, 76
1, 251313, Note_off_c, 0, 65, 53
1, 251364, Control_c, 0, 64, 84
1, 251394, Control_c, 0, 64, 85
1, 251409, Control_c, 0, 64, 85
1, 251424, Control_c, 0, 64, 86
1, 251469, Control_c, 0, 64, 83
1, 251484, Control_c, 0, 64, 73
1, 251485, Note_on_c, 0, 89, 78
1, 251492, Note_on_c, 0, 61, 68
1, 251498, Control_c, 0, 64, 42
1, 251501, Note_off_c, 0, 63, 61
1, 251501, Note_on_c, 0, 58, 60
1, 251513, Control_c, 0, 64, 0
1, 251558, Control_c, 0, 64, 53
1, 251567, Note_on_c, 0, 94, 84
1, 251570, Note_off_c, 0, 89, 63
1, 251573, Control_c, 0, 64, 67
1, 251587, Control_c, 0, 64, 72
1, 251602, Control_c, 0, 64, 76
1, 251617, Control_c, 0, 64, 80
1, 251632, Control_c, 0, 64, 81
1, 251647, Control_c, 0, 64, 82
1, 251649, Note_on_c, 0, 89, 76
1, 251650, Note_off_c, 0, 94, 65
1, 251661, Control_c, 0, 64, 82
1, 251676, Control_c, 0, 64, 83
1, 251691, Control_c, 0, 64, 83
1, 251706, Control_c, 0, 64, 84
1, 251709, Note_off_c, 0, 89, 64
1, 251720, Control_c, 0, 64, 85
1, 251732, Note_on_c, 0, 85, 66
1, 251735, Control_c, 0, 64, 86
1, 251750, Control_c, 0, 64, 88
1, 251762, Note_off_c, 0, 85, 63
1, 251765, Control_c, 0, 64, 89
1, 251780, Control_c, 0, 64, 89
1, 251817, Note_on_c, 0, 65, 94
1, 251820, Note_on_c, 0, 85, 69
1, 251847, Control_c, 0, 64, 86
1, 251862, Control_c, 0, 64, 78
1, 251876, Control_c, 0, 64, 65
1, 251886, Note_off_c, 0, 85, 65
1, 251891, Control_c, 0, 64, 0
1, 251892, Note_on_c, 0, 89, 80
1, 251920, Control_c, 0, 64, 60
1, 251935, Control_c, 0, 64, 68
1, 251950, Control_c, 0, 64, 74
1, 251965, Control_c, 0, 64, 79
1, 251967, Note_off_c, 0, 89, 65
1, 251972, Note_on_c, 0, 85, 76
1, 251980, Control_c, 0, 64, 81
1, 251994, Control_c, 0, 64, 82
1, 252024, Note_off_c, 0, 85, 65
1, 252024, Control_c, 0, 64, 82
1, 252044, Note_on_c, 0, 82, 77
1, 252095, Note_off_c, 0, 82, 55
1, 252098, Control_c, 0, 64, 83
1, 252100, Note_off_c, 0, 58, 36
1, 252118, Note_on_c, 0, 85, 87
1, 252139, Note_off_c, 0, 61, 27
1, 252178, Note_off_c, 0, 85, 62
1, 252217, Control_c, 0, 64, 83
1, 252267, Note_off_c, 0, 65, 61
1, 252282, Note_on_c, 0, 61, 89
1, 252381, Control_c, 0, 64, 84
1, 252411, Control_c, 0, 64, 84
1, 252425, Control_c, 0, 64, 85
1, 252458, Note_on_c, 0, 63, 88
1, 252461, Note_on_c, 0, 56, 74
1, 252461, Note_off_c, 0, 61, 63
1, 252468, Note_on_c, 0, 92, 91
1, 252469, Control_c, 0, 64, 84
1, 252484, Control_c, 0, 64, 74
1, 252499, Control_c, 0, 64, 0
1, 252539, Note_off_c, 0, 92, 66
1, 252548, Note_on_c, 0, 96, 88
1, 252594, Control_c, 0, 64, 65
1, 252609, Control_c, 0, 64, 72
1, 252623, Control_c, 0, 64, 78
1, 252634, Note_on_c, 0, 92, 83
1, 252634, Note_off_c, 0, 96, 64
1, 252638, Control_c, 0, 64, 82
1, 252653, Control_c, 0, 64, 84
1, 252667, Control_c, 0, 64, 86
1, 252682, Control_c, 0, 64, 90
1, 252694, Note_off_c, 0, 92, 63
1, 252697, Control_c, 0, 64, 94
1, 252710, Note_on_c, 0, 87, 78
1, 252712, Control_c, 0, 64, 98
1, 252727, Control_c, 0, 64, 104
1, 252736, Note_off_c, 0, 87, 63
1, 252741, Control_c, 0, 64, 107
1, 252756, Control_c, 0, 64, 108
1, 252788, Note_on_c, 0, 68, 100
1, 252791, Note_on_c, 0, 87, 85
1, 252801, Control_c, 0, 64, 103
1, 252816, Control_c, 0, 64, 92
1, 252831, Control_c, 0, 64, 75
1, 252846, Control_c, 0, 64, 0
1, 252858, Note_off_c, 0, 87, 63
1, 252868, Note_on_c, 0, 92, 83
1, 252890, Control_c, 0, 64, 44
1, 252905, Control_c, 0, 64, 68
1, 252920, Control_c, 0, 64, 77
1, 252934, Control_c, 0, 64, 87
1, 252944, Note_on_c, 0, 87, 80
1, 252949, Control_c, 0, 64, 92
1, 252955, Note_off_c, 0, 92, 65
1, 252964, Control_c, 0, 64, 93
1, 252979, Control_c, 0, 64, 94
1, 252995, Control_c, 0, 64, 94
1, 252999, Note_off_c, 0, 87, 66
1, 253005, Note_off_c, 0, 56, 59
1, 253008, Note_off_c, 0, 63, 63
1, 253010, Note_on_c, 0, 84, 79
1, 253010, Control_c, 0, 64, 95
1, 253025, Control_c, 0, 64, 96
1, 253039, Control_c, 0, 64, 96
1, 253069, Control_c, 0, 64, 97
1, 253084, Note_on_c, 0, 87, 91
1, 253087, Note_off_c, 0, 84, 62
1, 253113, Control_c, 0, 64, 97
1, 253141, Note_off_c, 0, 87, 63
1, 253220, Note_off_c, 0, 68, 58
1, 253253, Note_on_c, 0, 66, 93
1, 253437, Note_on_c, 0, 65, 84
1, 253441, Note_on_c, 0, 61, 78
1, 253457, Note_on_c, 0, 92, 97
1, 253459, Note_off_c, 0, 66, 59
1, 253461, Control_c, 0, 64, 97
1, 253476, Control_c, 0, 64, 90
1, 253490, Control_c, 0, 64, 73
1, 253505, Control_c, 0, 64, 0
1, 253521, Note_off_c, 0, 92, 65
1, 253534, Note_on_c, 0, 97, 87
1, 253564, Control_c, 0, 64, 28
1, 253579, Control_c, 0, 64, 67
1, 253594, Control_c, 0, 64, 75
1, 253609, Control_c, 0, 64, 82
1, 253614, Note_on_c, 0, 92, 92
1, 253624, Control_c, 0, 64, 86
1, 253633, Note_off_c, 0, 97, 64
1, 253639, Control_c, 0, 64, 87
1, 253654, Control_c, 0, 64, 88
1, 253669, Control_c, 0, 64, 90
1, 253678, Note_off_c, 0, 92, 66
1, 253683, Control_c, 0, 64, 92
1, 253689, Note_on_c, 0, 89, 71
1, 253698, Control_c, 0, 64, 94
1, 253713, Control_c, 0, 64, 95
1, 253713, Note_off_c, 0, 89, 69
1, 253757, Control_c, 0, 64, 94
1, 253760, Note_on_c, 0, 89, 87
1, 253762, Note_on_c, 0, 68, 103
1, 253772, Control_c, 0, 64, 86
1, 253788, Control_c, 0, 64, 70
1, 253803, Control_c, 0, 64, 0
1, 253840, Note_on_c, 0, 92, 84
1, 253847, Note_off_c, 0, 89, 63
1, 253847, Control_c, 0, 64, 62
1, 253862, Control_c, 0, 64, 71
1, 253877, Control_c, 0, 64, 79
1, 253892, Control_c, 0, 64, 85
1, 253895, Note_off_c, 0, 65, 62
1, 253906, Control_c, 0, 64, 86
1, 253913, Note_on_c, 0, 89, 75
1, 253916, Note_off_c, 0, 92, 64
1, 253921, Control_c, 0, 64, 87
1, 253980, Control_c, 0, 64, 87
1, 253987, Note_off_c, 0, 89, 64
1, 254001, Note_on_c, 0, 85, 75
1, 254011, Control_c, 0, 64, 88
1, 254056, Control_c, 0, 64, 88
1, 254066, Note_off_c, 0, 85, 65
1, 254067, Note_on_c, 0, 89, 78
1, 254184, Note_off_c, 0, 89, 56
1, 254200, Note_off_c, 0, 68, 55
1, 254211, Control_c, 0, 64, 89
1, 254213, Note_off_c, 0, 61, 58
1, 254221, Note_on_c, 0, 65, 94
1, 254226, Control_c, 0, 64, 91
1, 254240, Control_c, 0, 64, 94
1, 254255, Control_c, 0, 64, 95
1, 254314, Control_c, 0, 64, 93
1, 254329, Control_c, 0, 64, 81
1, 254344, Control_c, 0, 64, 35
1, 254359, Control_c, 0, 64, 0
1, 254387, Note_on_c, 0, 63, 87
1, 254387, Note_on_c, 0, 92, 93
1, 254389, Note_on_c, 0, 56, 75
1, 254392, Note_off_c, 0, 65, 65
1, 254462, Control_c, 0, 64, 59
1, 254470, Note_on_c, 0, 96, 89
1, 254473, Note_off_c, 0, 92, 63
1, 254477, Control_c, 0, 64, 72
1, 254492, Control_c, 0, 64, 76
1, 254506, Control_c, 0, 64, 77
1, 254521, Control_c, 0, 64, 78
1, 254536, Control_c, 0, 64, 79
1, 254548, Note_on_c, 0, 92, 83
1, 254551, Control_c, 0, 64, 80
1, 254554, Note_off_c, 0, 96, 65
1, 254566, Control_c, 0, 64, 81
1, 254608, Note_off_c, 0, 92, 64
1, 254611, Control_c, 0, 64, 80
1, 254621, Note_on_c, 0, 87, 78
1, 254626, Control_c, 0, 64, 75
1, 254641, Control_c, 0, 64, 64
1, 254651, Note_off_c, 0, 87, 65
1, 254655, Control_c, 0, 64, 0
1, 254690, Note_on_c, 0, 68, 107
1, 254703, Note_on_c, 0, 87, 80
1, 254730, Control_c, 0, 64, 30
1, 254745, Control_c, 0, 64, 68
1, 254758, Note_off_c, 0, 87, 65
1, 254760, Control_c, 0, 64, 78
1, 254774, Control_c, 0, 64, 87
1, 254775, Note_on_c, 0, 92, 75
1, 254789, Control_c, 0, 64, 90
1, 254811, Control_c, 0, 64, 90
1, 254816, Note_off_c, 0, 56, 54
1, 254826, Control_c, 0, 64, 91
1, 254841, Control_c, 0, 64, 91
1, 254855, Note_off_c, 0, 92, 63
1, 254856, Control_c, 0, 64, 92
1, 254861, Note_on_c, 0, 87, 85
1, 254877, Note_off_c, 0, 68, 57
1, 254885, Control_c, 0, 64, 92
1, 254917, Note_off_c, 0, 87, 63
1, 254927, Note_on_c, 0, 84, 80
1, 254995, Note_off_c, 0, 84, 45
1, 254999, Note_on_c, 0, 87, 99
1, 255004, Control_c, 0, 64, 93
1, 255054, Note_off_c, 0, 87, 64
1, 255063, Control_c, 0, 64, 93
1, 255093, Control_c, 0, 64, 94
1, 255108, Control_c, 0, 64, 94
1, 255123, Control_c, 0, 64, 95
1, 255127, Note_off_c, 0, 63, 61
1, 255137, Control_c, 0, 64, 96
1, 255152, Control_c, 0, 64, 98
1, 255167, Control_c, 0, 64, 99
1, 255177, Note_on_c, 0, 66, 97
1, 255182, Control_c, 0, 64, 100
1, 255197, Control_c, 0, 64, 101
1, 255211, Control_c, 0, 64, 101
1, 255226, Control_c, 0, 64, 102
1, 255241, Control_c, 0, 64, 103
1, 255256, Control_c, 0, 64, 103
1, 255270, Control_c, 0, 64, 104
1, 255285, Control_c, 0, 64, 105
1, 255300, Control_c, 0, 64, 107
1, 255315, Control_c, 0, 64, 109
1, 255329, Control_c, 0, 64, 113
1, 255344, Control_c, 0, 64, 117
1, 255359, Control_c, 0, 64, 123
1, 255374, Control_c, 0, 64, 125
1, 255390, Control_c, 0, 64, 127
1, 255420, Control_c, 0, 64, 127
1, 255434, Control_c, 0, 64, 127
1, 255449, Control_c, 0, 64, 122
1, 255459, Note_on_c, 0, 92, 105
1, 255463, Note_on_c, 0, 65, 99
1, 255463, Note_on_c, 0, 61, 84
1, 255464, Control_c, 0, 64, 111
1, 255478, Control_c, 0, 64, 97
1, 255492, Note_off_c, 0, 66, 62
1, 255493, Control_c, 0, 64, 78
1, 255508, Control_c, 0, 64, 0
1, 255643, Note_on_c, 0, 97, 98
1, 255657, Note_off_c, 0, 92, 65
1, 255678, Control_c, 0, 64, 53
1, 255693, Control_c, 0, 64, 63
1, 255707, Control_c, 0, 64, 65
1, 255722, Control_c, 0, 64, 70
1, 255737, Control_c, 0, 64, 79
1, 255746, Note_on_c, 0, 92, 93
1, 255752, Note_off_c, 0, 97, 63
1, 255752, Control_c, 0, 64, 88
1, 255767, Control_c, 0, 64, 92
1, 255782, Control_c, 0, 64, 95
1, 255797, Control_c, 0, 64, 97
1, 255812, Control_c, 0, 64, 99
1, 255815, Note_off_c, 0, 92, 64
1, 255820, Note_on_c, 0, 89, 79
1, 255827, Control_c, 0, 64, 100
1, 255841, Control_c, 0, 64, 101
1, 255856, Control_c, 0, 64, 102
1, 255859, Note_off_c, 0, 89, 65
1, 255871, Control_c, 0, 64, 102
1, 255885, Control_c, 0, 64, 103
1, 255895, Note_on_c, 0, 89, 72
1, 255900, Control_c, 0, 64, 105
1, 255915, Control_c, 0, 64, 108
1, 255930, Control_c, 0, 64, 114
1, 255945, Control_c, 0, 64, 120
1, 255959, Control_c, 0, 64, 127
1, 255962, Note_off_c, 0, 89, 63
1, 255976, Note_on_c, 0, 92, 78
1, 256037, Note_off_c, 0, 92, 65
1, 256039, Note_on_c, 0, 89, 74
1, 256108, Note_off_c, 0, 89, 64
1, 256121, Note_on_c, 0, 85, 70
1, 256146, Note_off_c, 0, 85, 67
1, 256195, Note_on_c, 0, 85, 80
1, 256261, Note_off_c, 0, 85, 66
1, 256266, Note_on_c, 0, 89, 80
1, 256282, Note_off_c, 0, 65, 52
1, 256350, Note_on_c, 0, 85, 84
1, 256352, Note_off_c, 0, 89, 65
1, 256414, Note_off_c, 0, 85, 64
1, 256422, Note_on_c, 0, 80, 83
1, 256456, Note_off_c, 0, 80, 63
1, 256503, Note_off_c, 0, 61, 40
1, 256503, Note_on_c, 0, 80, 84
1, 256561, Note_off_c, 0, 80, 62
1, 256578, Note_on_c, 0, 85, 83
1, 256650, Note_on_c, 0, 80, 89
1, 256662, Note_off_c, 0, 85, 61
1, 256715, Note_off_c, 0, 80, 64
1, 256728, Note_on_c, 0, 77, 74
1, 256752, Note_off_c, 0, 77, 68
1, 256792, Note_on_c, 0, 77, 80
1, 256855, Note_off_c, 0, 77, 51
1, 256869, Note_on_c, 0, 80, 83
1, 256936, Note_off_c, 0, 80, 64
1, 256943, Note_on_c, 0, 77, 85
1, 256995, Note_off_c, 0, 77, 63
1, 257016, Note_on_c, 0, 73, 74
1, 257040, Note_off_c, 0, 73, 68
1, 257096, Note_on_c, 0, 73, 87
1, 257160, Note_off_c, 0, 73, 63
1, 257167, Note_on_c, 0, 77, 82
1, 257242, Note_off_c, 0, 77, 63
1, 257246, Note_on_c, 0, 73, 76
1, 257290, Note_off_c, 0, 73, 56
1, 257322, Note_on_c, 0, 68, 66
1, 257341, Note_off_c, 0, 68, 67
1, 257450, Note_on_c, 0, 80, 91
1, 257451, Note_on_c, 0, 68, 99
1, 257481, Note_off_c, 0, 68, 66
1, 257535, Note_on_c, 0, 85, 75
1, 257538, Note_off_c, 0, 80, 64
1, 257630, Note_on_c, 0, 80, 75
1, 257632, Note_off_c, 0, 85, 62
1, 257683, Note_off_c, 0, 80, 62
1, 257707, Note_on_c, 0, 77, 63
1, 257728, Note_off_c, 0, 77, 64
1, 257754, Control_c, 0, 64, 110
1, 257769, Control_c, 0, 64, 90
1, 257782, Note_on_c, 0, 77, 86
1, 257785, Control_c, 0, 64, 71
1, 257788, Note_on_c, 0, 65, 109
1, 257800, Control_c, 0, 64, 43
1, 257822, Control_c, 0, 64, 44
1, 257836, Control_c, 0, 64, 63
1, 257842, Note_off_c, 0, 65, 64
1, 257851, Control_c, 0, 64, 72
1, 257866, Note_off_c, 0, 77, 61
1, 257866, Control_c, 0, 64, 80
1, 257868, Note_on_c, 0, 80, 80
1, 257881, Control_c, 0, 64, 89
1, 257895, Control_c, 0, 64, 93
1, 257910, Control_c, 0, 64, 95
1, 257925, Control_c, 0, 64, 96
1, 257940, Control_c, 0, 64, 97
1, 257946, Note_off_c, 0, 80, 63
1, 257948, Note_on_c, 0, 77, 78
1, 257955, Control_c, 0, 64, 98
1, 257970, Control_c, 0, 64, 99
1, 257985, Control_c, 0, 64, 100
1, 258000, Control_c, 0, 64, 101
1, 258011, Note_off_c, 0, 77, 61
1, 258015, Control_c, 0, 64, 102
1, 258029, Control_c, 0, 64, 103
1, 258030, Note_on_c, 0, 73, 66
1, 258044, Control_c, 0, 64, 103
1, 258055, Note_off_c, 0, 73, 66
1, 258107, Note_on_c, 0, 61, 94
1, 258108, Note_on_c, 0, 73, 86
1, 258148, Control_c, 0, 64, 104
1, 258158, Note_off_c, 0, 61, 63
1, 258174, Note_off_c, 0, 73, 64
1, 258182, Note_on_c, 0, 77, 82
1, 258267, Note_off_c, 0, 77, 61
1, 258270, Note_on_c, 0, 73, 72
1, 258325, Control_c, 0, 64, 105
1, 258331, Note_off_c, 0, 73, 62
1, 258340, Control_c, 0, 64, 107
1, 258344, Note_on_c, 0, 68, 69
1, 258354, Control_c, 0, 64, 109
1, 258369, Control_c, 0, 64, 111
1, 258376, Note_off_c, 0, 68, 65
1, 258384, Control_c, 0, 64, 112
1, 258399, Control_c, 0, 64, 112
1, 258444, Note_on_c, 0, 68, 79
1, 258447, Note_on_c, 0, 56, 98
1, 258493, Note_off_c, 0, 56, 59
1, 258518, Note_off_c, 0, 68, 63
1, 258526, Note_on_c, 0, 73, 75
1, 258629, Note_on_c, 0, 68, 77
1, 258632, Note_off_c, 0, 73, 58
1, 258686, Note_off_c, 0, 68, 63
1, 258703, Note_on_c, 0, 65, 67
1, 258730, Note_off_c, 0, 65, 70
1, 258748, Control_c, 0, 64, 111
1, 258763, Control_c, 0, 64, 103
1, 258778, Note_on_c, 0, 53, 95
1, 258778, Control_c, 0, 64, 89
1, 258781, Note_on_c, 0, 65, 88
1, 258793, Control_c, 0, 64, 73
1, 258808, Control_c, 0, 64, 33
1, 258822, Control_c, 0, 64, 38
1, 258837, Control_c, 0, 64, 63
1, 258852, Control_c, 0, 64, 70
1, 258857, Note_off_c, 0, 65, 61
1, 258861, Note_on_c, 0, 68, 77
1, 258867, Control_c, 0, 64, 78
1, 258882, Control_c, 0, 64, 85
1, 258897, Control_c, 0, 64, 89
1, 258911, Control_c, 0, 64, 90
1, 258926, Control_c, 0, 64, 91
1, 258937, Note_off_c, 0, 68, 63
1, 258941, Control_c, 0, 64, 92
1, 258944, Note_on_c, 0, 65, 77
1, 258944, Note_off_c, 0, 53, 58
1, 258956, Control_c, 0, 64, 92
1, 258971, Control_c, 0, 64, 93
1, 258985, Control_c, 0, 64, 94
1, 259000, Control_c, 0, 64, 96
1, 259002, Note_off_c, 0, 65, 63
1, 259015, Control_c, 0, 64, 99
1, 259025, Note_on_c, 0, 61, 67
1, 259029, Control_c, 0, 64, 100
1, 259044, Control_c, 0, 64, 101
1, 259053, Note_off_c, 0, 61, 65
1, 259074, Control_c, 0, 64, 100
1, 259089, Control_c, 0, 64, 93
1, 259100, Note_on_c, 0, 61, 94
1, 259102, Note_on_c, 0, 49, 96
1, 259103, Control_c, 0, 64, 79
1, 259118, Control_c, 0, 64, 51
1, 259133, Control_c, 0, 64, 0
1, 259165, Note_off_c, 0, 49, 62
1, 259177, Control_c, 0, 64, 64
1, 259187, Note_off_c, 0, 61, 63
1, 259192, Control_c, 0, 64, 71
1, 259193, Note_on_c, 0, 65, 75
1, 259207, Control_c, 0, 64, 76
1, 259222, Control_c, 0, 64, 80
1, 259237, Control_c, 0, 64, 81
1, 259251, Control_c, 0, 64, 81
1, 259266, Control_c, 0, 64, 82
1, 259276, Note_on_c, 0, 61, 73
1, 259276, Note_off_c, 0, 65, 64
1, 259281, Control_c, 0, 64, 83
1, 259302, Control_c, 0, 64, 85
1, 259317, Control_c, 0, 64, 86
1, 259332, Control_c, 0, 64, 87
1, 259338, Note_off_c, 0, 61, 63
1, 259347, Control_c, 0, 64, 88
1, 259362, Control_c, 0, 64, 89
1, 259374, Note_on_c, 0, 56, 64
1, 259378, Control_c, 0, 64, 90
1, 259393, Control_c, 0, 64, 91
1, 259403, Note_off_c, 0, 56, 65
1, 259407, Control_c, 0, 64, 92
1, 259422, Control_c, 0, 64, 93
1, 259437, Control_c, 0, 64, 95
1, 259451, Control_c, 0, 64, 96
1, 259466, Control_c, 0, 64, 97
1, 259511, Control_c, 0, 64, 95
1, 259523, Note_on_c, 0, 61, 95
1, 259526, Control_c, 0, 64, 86
1, 259529, Note_on_c, 0, 52, 90
1, 259532, Note_on_c, 0, 49, 83
1, 259533, Note_on_c, 0, 46, 80
1, 259538, Note_on_c, 0, 43, 74
1, 259541, Control_c, 0, 64, 70
1, 259556, Control_c, 0, 64, 0
1, 259643, Note_off_c, 0, 61, 64
1, 259648, Note_on_c, 0, 64, 82
1, 259726, Note_off_c, 0, 64, 64
1, 259730, Note_on_c, 0, 61, 78
1, 259733, Control_c, 0, 64, 65
1, 259748, Control_c, 0, 64, 69
1, 259763, Control_c, 0, 64, 72
1, 259778, Control_c, 0, 64, 77
1, 259793, Control_c, 0, 64, 83
1, 259800, Note_off_c, 0, 61, 63
1, 259802, Note_on_c, 0, 58, 73
1, 259807, Control_c, 0, 64, 87
1, 259822, Control_c, 0, 64, 89
1, 259833, Note_off_c, 0, 58, 65
1, 259837, Control_c, 0, 64, 90
1, 259851, Control_c, 0, 64, 90
1, 259880, Note_on_c, 0, 58, 67
1, 259881, Control_c, 0, 64, 91
1, 259896, Control_c, 0, 64, 91
1, 259911, Control_c, 0, 64, 92
1, 259940, Note_off_c, 0, 52, 57
1, 259947, Note_off_c, 0, 58, 56
1, 259953, Note_off_c, 0, 43, 54
1, 259955, Note_off_c, 0, 46, 54
1, 259955, Note_off_c, 0, 49, 55
1, 259972, Note_on_c, 0, 61, 71
1, 260063, Note_on_c, 0, 58, 73
1, 260092, Note_off_c, 0, 61, 60
1, 260156, Control_c, 0, 64, 92
1, 260162, Note_off_c, 0, 58, 63
1, 260169, Note_on_c, 0, 55, 64
1, 260226, Note_off_c, 0, 55, 57
1, 260246, Control_c, 0, 64, 89
1, 260252, Note_on_c, 0, 61, 91
1, 260254, Note_on_c, 0, 52, 94
1, 260257, Note_on_c, 0, 49, 84
1, 260259, Note_on_c, 0, 46, 77
1, 260260, Note_on_c, 0, 43, 79
1, 260261, Control_c, 0, 64, 78
1, 260275, Control_c, 0, 64, 58
1, 260290, Control_c, 0, 64, 0
1, 260345, Note_off_c, 0, 61, 65
1, 260352, Note_on_c, 0, 64, 73
1, 260429, Note_off_c, 0, 64, 64
1, 260436, Note_on_c, 0, 61, 74
1, 260438, Control_c, 0, 64, 23
1, 260453, Control_c, 0, 64, 61
1, 260468, Control_c, 0, 64, 65
1, 260483, Control_c, 0, 64, 68
1, 260498, Control_c, 0, 64, 72
1, 260506, Note_off_c, 0, 61, 63
1, 260510, Note_on_c, 0, 58, 69
1, 260513, Control_c, 0, 64, 75
1, 260528, Control_c, 0, 64, 79
1, 260538, Note_off_c, 0, 58, 67
1, 260542, Control_c, 0, 64, 81
1, 260557, Control_c, 0, 64, 82
1, 260572, Control_c, 0, 64, 83
1, 260587, Control_c, 0, 64, 83
1, 260600, Note_on_c, 0, 58, 75
1, 260602, Control_c, 0, 64, 84
1, 260617, Control_c, 0, 64, 84
1, 260631, Control_c, 0, 64, 85
1, 260633, Note_off_c, 0, 58, 58
1, 260646, Control_c, 0, 64, 85
1, 260661, Control_c, 0, 64, 86
1, 260686, Note_on_c, 0, 61, 73
1, 260689, Note_off_c, 0, 52, 55
1, 260690, Control_c, 0, 64, 86
1, 260705, Control_c, 0, 64, 87
1, 260709, Note_off_c, 0, 49, 52
1, 260717, Note_off_c, 0, 43, 38
1, 260730, Note_off_c, 0, 46, 35
1, 260775, Note_on_c, 0, 58, 65
1, 260807, Note_off_c, 0, 61, 57
1, 260816, Control_c, 0, 64, 87
1, 260876, Note_off_c, 0, 58, 62
1, 260876, Control_c, 0, 64, 88
1, 260885, Note_on_c, 0, 55, 60
1, 260939, Note_off_c, 0, 55, 55
1, 260949, Control_c, 0, 64, 86
1, 260962, Note_on_c, 0, 52, 90
1, 260963, Note_on_c, 0, 61, 91
1, 260964, Control_c, 0, 64, 78
1, 260966, Note_on_c, 0, 49, 77
1, 260968, Note_on_c, 0, 43, 74
1, 260971, Note_on_c, 0, 46, 70
1, 260980, Control_c, 0, 64, 62
1, 260995, Control_c, 0, 64, 0
1, 261048, Note_off_c, 0, 61, 63
1, 261058, Note_on_c, 0, 64, 72
1, 261135, Note_off_c, 0, 64, 64
1, 261139, Note_on_c, 0, 61, 74
1, 261143, Control_c, 0, 64, 29
1, 261158, Control_c, 0, 64, 62
1, 261172, Control_c, 0, 64, 66
1, 261187, Control_c, 0, 64, 70
1, 261202, Control_c, 0, 64, 72
1, 261208, Note_off_c, 0, 61, 63
1, 261209, Note_on_c, 0, 58, 67
1, 261217, Control_c, 0, 64, 75
1, 261231, Control_c, 0, 64, 78
1, 261238, Note_off_c, 0, 58, 66
1, 261246, Control_c, 0, 64, 80
1, 261261, Control_c, 0, 64, 81
1, 261276, Control_c, 0, 64, 82
1, 261291, Control_c, 0, 64, 84
1, 261301, Note_on_c, 0, 58, 74
1, 261306, Control_c, 0, 64, 84
1, 261320, Control_c, 0, 64, 85
1, 261335, Control_c, 0, 64, 86
1, 261344, Note_off_c, 0, 58, 53
1, 261350, Control_c, 0, 64, 86
1, 261365, Control_c, 0, 64, 87
1, 261383, Note_off_c, 0, 52, 33
1, 261392, Note_on_c, 0, 61, 66
1, 261395, Control_c, 0, 64, 87
1, 261439, Control_c, 0, 64, 88
1, 261453, Note_off_c, 0, 49, 27
1, 261463, Note_off_c, 0, 46, 27
1, 261473, Note_on_c, 0, 58, 65
1, 261478, Note_off_c, 0, 61, 59
1, 261484, Control_c, 0, 64, 88
1, 261505, Note_off_c, 0, 43, 30
1, 261513, Control_c, 0, 64, 89
1, 261528, Control_c, 0, 64, 90
1, 261543, Control_c, 0, 64, 92
1, 261565, Note_off_c, 0, 58, 64
1, 261565, Control_c, 0, 64, 94
1, 261580, Note_on_c, 0, 55, 62
1, 261580, Control_c, 0, 64, 94
1, 261625, Control_c, 0, 64, 89
1, 261633, Note_off_c, 0, 55, 61
1, 261639, Control_c, 0, 64, 75
1, 261654, Control_c, 0, 64, 0
1, 261656, Note_on_c, 0, 61, 85
1, 261667, Note_on_c, 0, 51, 63
1, 261671, Note_on_c, 0, 46, 46
1, 261676, Note_on_c, 0, 49, 58
1, 261680, Note_on_c, 0, 43, 48
1, 261724, Note_off_c, 0, 61, 62
1, 261738, Note_on_c, 0, 63, 72
1, 261818, Control_c, 0, 64, 54
1, 261825, Note_on_c, 0, 61, 65
1, 261830, Note_off_c, 0, 63, 62
1, 261833, Control_c, 0, 64, 65
1, 261847, Control_c, 0, 64, 70
1, 261862, Control_c, 0, 64, 76
1, 261877, Control_c, 0, 64, 80
1, 261892, Control_c, 0, 64, 81
1, 261897, Note_off_c, 0, 61, 63
1, 261898, Note_on_c, 0, 58, 68
1, 261907, Control_c, 0, 64, 82
1, 261921, Control_c, 0, 64, 83
1, 261926, Note_off_c, 0, 58, 67
1, 261936, Control_c, 0, 64, 84
1, 261951, Control_c, 0, 64, 85
1, 261966, Control_c, 0, 64, 85
1, 261981, Control_c, 0, 64, 86
1, 261995, Control_c, 0, 64, 87
1, 262003, Note_on_c, 0, 58, 62
1, 262010, Control_c, 0, 64, 87
1, 262018, Note_off_c, 0, 43, 40
1, 262036, Note_off_c, 0, 58, 52
1, 262054, Control_c, 0, 64, 88
1, 262059, Note_off_c, 0, 51, 35
1, 262062, Note_off_c, 0, 49, 31
1, 262075, Note_off_c, 0, 46, 35
1, 262100, Note_on_c, 0, 61, 44
1, 262163, Note_off_c, 0, 61, 57
1, 262173, Control_c, 0, 67, 8
1, 262175, Note_on_c, 0, 58, 52
1, 262188, Control_c, 0, 67, 10
1, 262203, Control_c, 0, 67, 12
1, 262218, Control_c, 0, 67, 13
1, 262233, Note_off_c, 0, 58, 61
1, 262233, Control_c, 0, 67, 14
1, 262247, Control_c, 0, 67, 15
1, 262262, Control_c, 0, 67, 15
1, 262279, Note_on_c, 0, 55, 42
1, 262299, Control_c, 0, 64, 87
1, 262314, Control_c, 0, 64, 83
1, 262328, Control_c, 0, 64, 73
1, 262328, Control_c, 0, 67, 16
1, 262335, Note_off_c, 0, 55, 47
1, 262343, Control_c, 0, 64, 0
1, 262343, Control_c, 0, 67, 16
1, 262356, Note_on_c, 0, 61, 75
1, 262358, Control_c, 0, 67, 17
1, 262373, Control_c, 0, 67, 20
1, 262379, Note_on_c, 0, 46, 40
1, 262385, Note_on_c, 0, 43, 26
1, 262388, Note_on_c, 0, 51, 35
1, 262388, Control_c, 0, 67, 24
1, 262394, Note_on_c, 0, 49, 23
1, 262403, Control_c, 0, 67, 29
1, 262417, Control_c, 0, 67, 36
1, 262420, Note_off_c, 0, 61, 60
1, 262432, Control_c, 0, 67, 43
1, 262445, Note_on_c, 0, 63, 57
1, 262447, Control_c, 0, 67, 51
1, 262462, Control_c, 0, 64, 61
1, 262462, Control_c, 0, 67, 59
1, 262477, Control_c, 0, 64, 64
1, 262477, Control_c, 0, 67, 66
1, 262492, Control_c, 0, 64, 66
1, 262492, Control_c, 0, 67, 73
1, 262507, Control_c, 0, 64, 67
1, 262507, Control_c, 0, 67, 79
1, 262519, Note_off_c, 0, 63, 63
1, 262522, Control_c, 0, 64, 69
1, 262522, Control_c, 0, 67, 83
1, 262531, Note_on_c, 0, 61, 56
1, 262536, Control_c, 0, 64, 73
1, 262536, Control_c, 0, 67, 87
1, 262551, Control_c, 0, 64, 78
1, 262551, Control_c, 0, 67, 91
1, 262566, Control_c, 0, 64, 81
1, 262566, Control_c, 0, 67, 94
1, 262581, Control_c, 0, 64, 82
1, 262581, Control_c, 0, 67, 96
1, 262590, Note_off_c, 0, 61, 50
1, 262596, Control_c, 0, 64, 82
1, 262596, Control_c, 0, 67, 98
1, 262611, Control_c, 0, 67, 99
1, 262614, Note_on_c, 0, 58, 57
1, 262626, Control_c, 0, 64, 83
1, 262626, Control_c, 0, 67, 100
1, 262633, Note_off_c, 0, 58, 63
1, 262641, Control_c, 0, 64, 83
1, 262641, Control_c, 0, 67, 101
1, 262656, Control_c, 0, 67, 102
1, 262670, Control_c, 0, 67, 102
1, 262685, Control_c, 0, 67, 103
1, 262700, Control_c, 0, 64, 84
1, 262700, Control_c, 0, 67, 104
1, 262709, Note_on_c, 0, 58, 64
1, 262715, Control_c, 0, 67, 105
1, 262730, Control_c, 0, 67, 107
1, 262744, Control_c, 0, 67, 108
1, 262746, Note_off_c, 0, 43, 39
1, 262759, Control_c, 0, 67, 109
1, 262769, Note_off_c, 0, 58, 51
1, 262774, Control_c, 0, 67, 109
1, 262779, Note_off_c, 0, 51, 30
1, 262789, Control_c, 0, 67, 110
1, 262804, Control_c, 0, 67, 110
1, 262815, Note_off_c, 0, 46, 37
1, 262824, Note_on_c, 0, 61, 48
1, 262827, Note_off_c, 0, 49, 34
1, 262863, Control_c, 0, 67, 111
1, 262877, Control_c, 0, 67, 111
1, 262885, Note_off_c, 0, 61, 52
1, 262902, Note_on_c, 0, 58, 49
1, 262907, Control_c, 0, 67, 113
1, 262922, Control_c, 0, 67, 116
1, 262937, Control_c, 0, 67, 117
1, 262951, Control_c, 0, 67, 119
1, 262953, Note_off_c, 0, 58, 62
1, 262966, Control_c, 0, 67, 121
1, 262981, Control_c, 0, 67, 123
1, 262989, Note_on_c, 0, 55, 52
1, 262996, Control_c, 0, 67, 124
1, 263011, Control_c, 0, 67, 125
1, 263026, Control_c, 0, 64, 83
1, 263026, Control_c, 0, 67, 127
1, 263048, Control_c, 0, 64, 81
1, 263048, Control_c, 0, 67, 127
1, 263063, Control_c, 0, 64, 74
1, 263077, Control_c, 0, 64, 62
1, 263083, Note_on_c, 0, 46, 38
1, 263083, Note_off_c, 0, 55, 50
1, 263088, Note_on_c, 0, 43, 22
1, 263092, Control_c, 0, 64, 0
1, 263102, Note_on_c, 0, 61, 64
1, 263105, Note_on_c, 0, 49, 27
1, 263122, Poly_aftertouch_c, 0, 51, 127
1, 263184, Note_off_c, 0, 61, 63
1, 263206, Note_on_c, 0, 63, 51
1, 263210, Control_c, 0, 64, 58
1, 263225, Control_c, 0, 64, 64
1, 263240, Control_c, 0, 64, 65
1, 263255, Control_c, 0, 64, 66
1, 263270, Control_c, 0, 64, 68
1, 263285, Control_c, 0, 64, 70
1, 263287, Note_off_c, 0, 63, 59
1, 263300, Control_c, 0, 64, 72
1, 263302, Note_on_c, 0, 61, 53
1, 263315, Control_c, 0, 64, 74
1, 263330, Control_c, 0, 64, 76
1, 263344, Control_c, 0, 64, 77
1, 263359, Control_c, 0, 64, 77
1, 263374, Control_c, 0, 64, 78
1, 263384, Note_off_c, 0, 61, 57
1, 263389, Control_c, 0, 64, 78
1, 263393, Note_on_c, 0, 58, 49
1, 263404, Control_c, 0, 64, 79
1, 263416, Note_off_c, 0, 58, 60
1, 263419, Control_c, 0, 64, 79
1, 263449, Control_c, 0, 64, 80
1, 263496, Note_on_c, 0, 58, 61
1, 263554, Note_off_c, 0, 43, 36
1, 263568, Control_c, 0, 64, 80
1, 263571, Note_off_c, 0, 58, 38
1, 263616, Note_on_c, 0, 61, 47
1, 263640, Note_off_c, 0, 46, 36
1, 263717, Note_off_c, 0, 49, 37
1, 263729, Note_off_c, 0, 61, 54
1, 263748, Note_on_c, 0, 58, 45
1, 263843, Poly_aftertouch_c, 0, 51, 0
1, 263865, Note_off_c, 0, 58, 61
1, 263919, Note_on_c, 0, 55, 38
1, 264137, Control_c, 0, 64, 80
1, 264183, Control_c, 0, 64, 79
1, 264212, Control_c, 0, 64, 79
1, 264234, Note_on_c, 0, 44, 33
1, 264239, Note_off_c, 0, 55, 38
1, 264242, Control_c, 0, 64, 78
1, 264286, Control_c, 0, 64, 78
1, 264301, Control_c, 0, 64, 77
1, 264316, Control_c, 0, 64, 73
1, 264331, Control_c, 0, 64, 65
1, 264332, Note_on_c, 0, 63, 60
1, 264346, Control_c, 0, 64, 0
1, 264464, Control_c, 0, 64, 61
1, 264479, Control_c, 0, 64, 65
1, 264494, Control_c, 0, 64, 67
1, 264503, Note_on_c, 0, 60, 46
1, 264509, Control_c, 0, 64, 69
1, 264523, Control_c, 0, 64, 71
1, 264538, Control_c, 0, 64, 73
1, 264561, Control_c, 0, 64, 76
1, 264576, Control_c, 0, 64, 78
1, 264591, Control_c, 0, 64, 80
1, 264594, Note_off_c, 0, 63, 36
1, 264602, Note_off_c, 0, 60, 58
1, 264605, Control_c, 0, 64, 80
1, 264620, Control_c, 0, 64, 81
1, 264635, Control_c, 0, 64, 82
1, 264638, Note_on_c, 0, 56, 42
1, 264649, Control_c, 0, 64, 82
1, 264679, Control_c, 0, 64, 83
1, 264694, Control_c, 0, 64, 83
1, 264712, Note_off_c, 0, 56, 52
1, 264734, Note_on_c, 0, 68, 69
1, 264738, Control_c, 0, 64, 84
1, 264827, Control_c, 0, 64, 84
1, 264894, Note_on_c, 0, 63, 49
1, 264979, Note_off_c, 0, 63, 57
1, 265017, Note_on_c, 0, 60, 32
1, 265035, Control_c, 0, 64, 84
1, 265050, Control_c, 0, 64, 83
1, 265060, Note_off_c, 0, 60, 46
1, 265065, Control_c, 0, 64, 79
1, 265067, Note_off_c, 0, 68, 61
1, 265079, Control_c, 0, 64, 70
1, 265082, Note_on_c, 0, 67, 71
1, 265092, Note_on_c, 0, 48, 39
1, 265094, Control_c, 0, 64, 26
1, 265109, Control_c, 0, 64, 0
1, 265125, Note_off_c, 0, 44, 32
1, 265184, Control_c, 0, 64, 54
1, 265199, Control_c, 0, 64, 65
1, 265214, Control_c, 0, 64, 68
1, 265222, Note_on_c, 0, 63, 49
1, 265228, Control_c, 0, 64, 70
1, 265242, Control_c, 0, 64, 73
1, 265257, Control_c, 0, 64, 75
1, 265271, Control_c, 0, 64, 77
1, 265286, Control_c, 0, 64, 77
1, 265303, Note_off_c, 0, 63, 62
1, 265309, Control_c, 0, 64, 78
1, 265332, Note_on_c, 0, 60, 44
1, 265339, Control_c, 0, 64, 78
1, 265369, Note_off_c, 0, 60, 49
1, 265412, Control_c, 0, 64, 77
1, 265425, Note_on_c, 0, 49, 52
1, 265427, Control_c, 0, 64, 74
1, 265434, Note_off_c, 0, 67, 61
1, 265436, Note_off_c, 0, 48, 44
1, 265442, Control_c, 0, 64, 66
1, 265449, Note_on_c, 0, 65, 67
1, 265457, Control_c, 0, 64, 0
1, 265575, Control_c, 0, 64, 57
1, 265589, Control_c, 0, 64, 64
1, 265604, Control_c, 0, 64, 66
1, 265609, Note_on_c, 0, 61, 45
1, 265619, Control_c, 0, 64, 68
1, 265634, Control_c, 0, 64, 71
1, 265649, Control_c, 0, 64, 74
1, 265664, Control_c, 0, 64, 77
1, 265679, Control_c, 0, 64, 78
1, 265693, Control_c, 0, 64, 78
1, 265708, Note_off_c, 0, 49, 38
1, 265708, Control_c, 0, 64, 79
1, 265709, Note_on_c, 0, 56, 37
1, 265717, Note_off_c, 0, 65, 30
1, 265768, Control_c, 0, 64, 79
1, 265813, Control_c, 0, 64, 79
1, 265813, Note_on_c, 0, 73, 70
1, 265826, Note_off_c, 0, 61, 58
1, 265827, Note_off_c, 0, 56, 39
1, 265828, Control_c, 0, 64, 77
1, 265833, Note_on_c, 0, 46, 45
1, 265843, Control_c, 0, 64, 71
1, 265857, Control_c, 0, 64, 63
1, 265872, Control_c, 0, 64, 0
1, 265961, Control_c, 0, 64, 47
1, 265976, Control_c, 0, 64, 66
1, 265980, Note_on_c, 0, 65, 37
1, 265990, Control_c, 0, 64, 69
1, 266005, Control_c, 0, 64, 72
1, 266019, Control_c, 0, 64, 76
1, 266042, Control_c, 0, 64, 79
1, 266057, Control_c, 0, 64, 80
1, 266084, Note_off_c, 0, 65, 41
1, 266092, Note_on_c, 0, 61, 46
1, 266101, Control_c, 0, 64, 81
1, 266161, Control_c, 0, 64, 80
1, 266166, Note_off_c, 0, 61, 51
1, 266175, Control_c, 0, 64, 77
1, 266182, Note_on_c, 0, 70, 67
1, 266190, Control_c, 0, 64, 70
1, 266196, Note_on_c, 0, 49, 42
1, 266201, Note_off_c, 0, 46, 37
1, 266205, Control_c, 0, 64, 54
1, 266207, Note_off_c, 0, 73, 34
1, 266219, Control_c, 0, 64, 0
1, 266293, Control_c, 0, 64, 50
1, 266308, Control_c, 0, 64, 65
1, 266323, Control_c, 0, 64, 69
1, 266331, Note_on_c, 0, 65, 43
1, 266338, Control_c, 0, 64, 72
1, 266353, Control_c, 0, 64, 76
1, 266367, Control_c, 0, 64, 79
1, 266382, Control_c, 0, 64, 81
1, 266388, Note_off_c, 0, 70, 54
1, 266397, Control_c, 0, 64, 81
1, 266424, Note_off_c, 0, 65, 61
1, 266427, Control_c, 0, 64, 82
1, 266445, Note_on_c, 0, 61, 47
1, 266544, Note_off_c, 0, 61, 48
1, 266546, Control_c, 0, 64, 80
1, 266549, Note_on_c, 0, 70, 66
1, 266561, Control_c, 0, 64, 76
1, 266567, Note_on_c, 0, 51, 46
1, 266576, Control_c, 0, 64, 68
1, 266591, Control_c, 0, 64, 25
1, 266606, Control_c, 0, 64, 0
1, 266627, Note_off_c, 0, 49, 28
1, 266680, Control_c, 0, 64, 61
1, 266695, Note_on_c, 0, 63, 49
1, 266695, Control_c, 0, 64, 66
1, 266709, Control_c, 0, 64, 68
1, 266724, Control_c, 0, 64, 69
1, 266740, Control_c, 0, 64, 71
1, 266755, Control_c, 0, 64, 72
1, 266762, Note_off_c, 0, 63, 57
1, 266770, Control_c, 0, 64, 73
1, 266806, Control_c, 0, 64, 74
1, 266834, Note_on_c, 0, 61, 24
1, 266836, Control_c, 0, 64, 74
1, 266871, Note_off_c, 0, 61, 46
1, 266880, Control_c, 0, 64, 73
1, 266895, Control_c, 0, 64, 71
1, 266910, Control_c, 0, 64, 64
1, 266919, Note_on_c, 0, 68, 62
1, 266925, Control_c, 0, 64, 0
1, 266944, Note_off_c, 0, 70, 48
1, 267029, Control_c, 0, 64, 52
1, 267043, Control_c, 0, 64, 63
1, 267058, Control_c, 0, 64, 64
1, 267073, Control_c, 0, 64, 64
1, 267081, Note_on_c, 0, 63, 42
1, 267088, Control_c, 0, 64, 66
1, 267103, Control_c, 0, 64, 68
1, 267117, Control_c, 0, 64, 70
1, 267132, Control_c, 0, 64, 71
1, 267147, Control_c, 0, 64, 73
1, 267162, Control_c, 0, 64, 74
1, 267166, Note_off_c, 0, 68, 58
1, 267176, Note_off_c, 0, 63, 56
1, 267176, Control_c, 0, 64, 75
1, 267191, Control_c, 0, 64, 76
1, 267202, Note_on_c, 0, 60, 37
1, 267221, Control_c, 0, 64, 76
1, 267236, Control_c, 0, 64, 77
1, 267250, Control_c, 0, 64, 77
1, 267264, Note_off_c, 0, 60, 48
1, 267265, Control_c, 0, 64, 78
1, 267295, Note_on_c, 0, 68, 59
1, 267455, Note_on_c, 0, 63, 40
1, 267538, Note_off_c, 0, 63, 56
1, 267541, Note_off_c, 0, 68, 37
1, 267580, Note_on_c, 0, 60, 36
1, 267644, Control_c, 0, 64, 77
1, 267646, Note_off_c, 0, 60, 38
1, 267659, Control_c, 0, 64, 76
1, 267673, Control_c, 0, 64, 72
1, 267688, Control_c, 0, 64, 65
1, 267691, Note_on_c, 0, 68, 57
1, 267697, Note_off_c, 0, 51, 32
1, 267703, Control_c, 0, 64, 0
1, 267709, Note_on_c, 0, 39, 24
1, 267807, Control_c, 0, 64, 62
1, 267822, Control_c, 0, 64, 68
1, 267830, Note_on_c, 0, 63, 39
1, 267837, Control_c, 0, 64, 71
1, 267852, Control_c, 0, 64, 73
1, 267866, Control_c, 0, 64, 75
1, 267881, Control_c, 0, 64, 76
1, 267896, Control_c, 0, 64, 78
1, 267911, Control_c, 0, 64, 78
1, 267925, Note_off_c, 0, 63, 38
1, 267926, Control_c, 0, 64, 79
1, 267940, Control_c, 0, 64, 79
1, 267950, Note_on_c, 0, 60, 36
1, 267991, Note_off_c, 0, 60, 47
1, 267999, Control_c, 0, 64, 79
1, 268014, Control_c, 0, 64, 76
1, 268029, Control_c, 0, 64, 69
1, 268040, Note_on_c, 0, 67, 57
1, 268044, Control_c, 0, 64, 33
1, 268058, Control_c, 0, 64, 0
1, 268068, Note_off_c, 0, 68, 53
1, 268178, Control_c, 0, 64, 53
1, 268193, Control_c, 0, 64, 62
1, 268208, Control_c, 0, 64, 64
1, 268210, Note_on_c, 0, 63, 29
1, 268222, Control_c, 0, 64, 65
1, 268237, Control_c, 0, 64, 67
1, 268252, Control_c, 0, 64, 69
1, 268265, Note_off_c, 0, 63, 44
1, 268267, Control_c, 0, 64, 71
1, 268282, Control_c, 0, 64, 73
1, 268303, Note_off_c, 0, 67, 32
1, 268304, Control_c, 0, 64, 75
1, 268310, Note_on_c, 0, 58, 32
1, 268319, Control_c, 0, 64, 76
1, 268334, Control_c, 0, 64, 76
1, 268349, Control_c, 0, 64, 77
1, 268363, Control_c, 0, 64, 78
1, 268376, Note_off_c, 0, 58, 55
1, 268378, Control_c, 0, 64, 78
1, 268393, Control_c, 0, 64, 79
1, 268408, Control_c, 0, 64, 79
1, 268412, Note_on_c, 0, 67, 57
1, 268422, Control_c, 0, 64, 80
1, 268437, Control_c, 0, 64, 81
1, 268452, Control_c, 0, 64, 81
1, 268467, Control_c, 0, 64, 82
1, 268482, Control_c, 0, 64, 83
1, 268496, Control_c, 0, 64, 83
1, 268526, Control_c, 0, 64, 84
1, 268541, Control_c, 0, 64, 84
1, 268542, Note_on_c, 0, 63, 46
1, 268544, Note_off_c, 0, 39, 31
1, 268571, Note_off_c, 0, 67, 36
1, 268652, Note_off_c, 0, 63, 43
1, 268673, Note_on_c, 0, 58, 38
1, 268723, Note_off_c, 0, 58, 47
1, 268734, Control_c, 0, 64, 84
1, 268749, Control_c, 0, 64, 81
1, 268761, Note_on_c, 0, 63, 61
1, 268763, Control_c, 0, 64, 75
1, 268778, Control_c, 0, 64, 66
1, 268793, Control_c, 0, 64, 0
1, 268806, Note_on_c, 0, 44, 27
1, 268852, Control_c, 0, 64, 50
1, 268867, Control_c, 0, 64, 62
1, 268881, Control_c, 0, 64, 64
1, 268896, Control_c, 0, 64, 66
1, 268911, Control_c, 0, 64, 67
1, 268913, Note_on_c, 0, 60, 46
1, 268926, Control_c, 0, 64, 69
1, 268940, Control_c, 0, 64, 72
1, 268943, Note_off_c, 0, 63, 57
1, 268955, Control_c, 0, 64, 74
1, 268955, Control_c, 0, 67, 124
1, 268972, Control_c, 0, 64, 77
1, 268972, Control_c, 0, 67, 112
1, 268974, Note_off_c, 0, 60, 56
1, 268986, Control_c, 0, 64, 78
1, 268986, Control_c, 0, 67, 101
1, 269001, Control_c, 0, 64, 78
1, 269001, Control_c, 0, 67, 89
1, 269016, Control_c, 0, 64, 79
1, 269016, Control_c, 0, 67, 76
1, 269031, Control_c, 0, 64, 79
1, 269031, Control_c, 0, 67, 65
1, 269047, Note_on_c, 0, 56, 34
1, 269053, Control_c, 0, 64, 80
1, 269053, Control_c, 0, 67, 54
1, 269068, Control_c, 0, 64, 80
1, 269068, Control_c, 0, 67, 42
1, 269083, Control_c, 0, 67, 30
1, 269092, Note_off_c, 0, 56, 45
1, 269098, Control_c, 0, 64, 81
1, 269098, Control_c, 0, 67, 20
1, 269113, Control_c, 0, 67, 14
1, 269127, Control_c, 0, 64, 81
1, 269127, Control_c, 0, 67, 9
1, 269127, Note_on_c, 0, 68, 71
1, 269142, Control_c, 0, 64, 82
1, 269142, Control_c, 0, 67, 0
1, 269172, Control_c, 0, 64, 82
1, 269201, Control_c, 0, 64, 83
1, 269207, Note_off_c, 0, 44, 40
1, 269259, Note_on_c, 0, 63, 47
1, 269369, Note_off_c, 0, 63, 51
1, 269369, Note_off_c, 0, 68, 59
1, 269386, Note_on_c, 0, 60, 47
1, 269437, Control_c, 0, 64, 82
1, 269442, Note_off_c, 0, 60, 54
1, 269452, Control_c, 0, 64, 79
1, 269467, Note_on_c, 0, 67, 75
1, 269467, Control_c, 0, 64, 73
1, 269482, Control_c, 0, 64, 62
1, 269492, Note_on_c, 0, 48, 49
1, 269497, Control_c, 0, 64, 0
1, 269542, Control_c, 0, 64, 61
1, 269556, Control_c, 0, 64, 67
1, 269571, Control_c, 0, 64, 71
1, 269586, Control_c, 0, 64, 75
1, 269601, Control_c, 0, 64, 76
1, 269604, Note_on_c, 0, 63, 52
1, 269616, Control_c, 0, 64, 77
1, 269630, Control_c, 0, 64, 78
1, 269645, Control_c, 0, 64, 79
1, 269660, Control_c, 0, 64, 80
1, 269675, Control_c, 0, 64, 81
1, 269690, Control_c, 0, 64, 82
1, 269702, Note_off_c, 0, 63, 62
1, 269705, Control_c, 0, 64, 83
1, 269712, Note_off_c, 0, 67, 58
1, 269718, Note_on_c, 0, 60, 54
1, 269765, Control_c, 0, 64, 82
1, 269777, Note_off_c, 0, 60, 58
1, 269780, Control_c, 0, 64, 78
1, 269802, Control_c, 0, 64, 68
1, 269807, Note_off_c, 0, 48, 44
1, 269816, Control_c, 0, 64, 18
1, 269822, Note_on_c, 0, 65, 74
1, 269831, Control_c, 0, 64, 0
1, 269835, Note_on_c, 0, 49, 44
1, 269861, Control_c, 0, 67, 8
1, 269876, Control_c, 0, 64, 54
1, 269876, Control_c, 0, 67, 8
1, 269891, Control_c, 0, 64, 65
1, 269891, Control_c, 0, 67, 9
1, 269905, Control_c, 0, 64, 69
1, 269905, Control_c, 0, 67, 11
1, 269917, Note_off_c, 0, 65, 64
1, 269920, Control_c, 0, 64, 73
1, 269920, Control_c, 0, 67, 13
1, 269935, Control_c, 0, 64, 78
1, 269935, Control_c, 0, 67, 16
1, 269939, Note_on_c, 0, 61, 60
1, 269950, Control_c, 0, 64, 81
1, 269950, Control_c, 0, 67, 19
1, 269965, Control_c, 0, 64, 83
1, 269965, Control_c, 0, 67, 20
1, 269980, Control_c, 0, 64, 83
1, 269980, Control_c, 0, 67, 22
1, 269988, Note_off_c, 0, 61, 56
1, 269994, Control_c, 0, 64, 84
1, 269994, Control_c, 0, 67, 23
1, 270009, Control_c, 0, 64, 84
1, 270009, Control_c, 0, 67, 24
1, 270024, Control_c, 0, 64, 85
1, 270024, Control_c, 0, 67, 26
1, 270030, Note_on_c, 0, 56, 56
1, 270039, Control_c, 0, 64, 85
1, 270039, Control_c, 0, 67, 29
1, 270054, Note_off_c, 0, 56, 64
1, 270054, Control_c, 0, 64, 86
1, 270054, Control_c, 0, 67, 30
1, 270068, Control_c, 0, 64, 86
1, 270068, Control_c, 0, 67, 30
1, 270083, Control_c, 0, 64, 87
1, 270083, Control_c, 0, 67, 31
1, 270098, Control_c, 0, 64, 88
1, 270142, Control_c, 0, 64, 87
1, 270142, Control_c, 0, 67, 30
1, 270157, Control_c, 0, 64, 84
1, 270172, Control_c, 0, 64, 76
1, 270177, Note_on_c, 0, 77, 86
1, 270186, Control_c, 0, 64, 61
1, 270193, Note_on_c, 0, 46, 51
1, 270195, Note_off_c, 0, 49, 45
1, 270201, Control_c, 0, 64, 0
1, 270246, Control_c, 0, 67, 31
1, 270260, Control_c, 0, 64, 52
1, 270275, Control_c, 0, 64, 65
1, 270275, Control_c, 0, 67, 31
1, 270290, Control_c, 0, 64, 67
1, 270305, Control_c, 0, 64, 69
1, 270320, Control_c, 0, 64, 71
1, 270333, Note_on_c, 0, 68, 50
1, 270335, Control_c, 0, 64, 74
1, 270350, Control_c, 0, 64, 76
1, 270351, Note_off_c, 0, 77, 54
1, 270365, Control_c, 0, 64, 78
1, 270379, Control_c, 0, 64, 80
1, 270379, Control_c, 0, 67, 32
1, 270394, Control_c, 0, 64, 80
1, 270418, Note_off_c, 0, 68, 64
1, 270424, Control_c, 0, 64, 81
1, 270424, Control_c, 0, 67, 32
1, 270439, Control_c, 0, 64, 81
1, 270442, Note_on_c, 0, 65, 56
1, 270453, Control_c, 0, 64, 82
1, 270468, Control_c, 0, 64, 83
1, 270468, Control_c, 0, 67, 33
1, 270484, Control_c, 0, 64, 83
1, 270485, Note_off_c, 0, 65, 53
1, 270499, Control_c, 0, 64, 84
1, 270499, Control_c, 0, 67, 34
1, 270514, Control_c, 0, 67, 36
1, 270525, Note_off_c, 0, 46, 34
1, 270535, Control_c, 0, 64, 83
1, 270535, Control_c, 0, 67, 37
1, 270550, Control_c, 0, 64, 83
1, 270550, Control_c, 0, 67, 38
1, 270553, Note_on_c, 0, 73, 78
1, 270560, Note_on_c, 0, 49, 52
1, 270566, Control_c, 0, 64, 78
1, 270566, Control_c, 0, 67, 40
1, 270579, Note_on_c, 0, 58, 40
1, 270581, Control_c, 0, 64, 70
1, 270581, Control_c, 0, 67, 42
1, 270596, Control_c, 0, 64, 27
1, 270596, Control_c, 0, 67, 44
1, 270610, Control_c, 0, 64, 0
1, 270610, Control_c, 0, 67, 47
1, 270625, Control_c, 0, 67, 49
1, 270640, Control_c, 0, 67, 51
1, 270655, Control_c, 0, 67, 52
1, 270670, Control_c, 0, 64, 52
1, 270670, Control_c, 0, 67, 54
1, 270684, Control_c, 0, 64, 66
1, 270684, Control_c, 0, 67, 56
1, 270685, Note_on_c, 0, 65, 51
1, 270699, Control_c, 0, 64, 70
1, 270699, Control_c, 0, 67, 58
1, 270714, Control_c, 0, 64, 73
1, 270714, Control_c, 0, 67, 59
1, 270726, Note_off_c, 0, 49, 52
1, 270729, Control_c, 0, 64, 75
1, 270729, Control_c, 0, 67, 60
1, 270744, Control_c, 0, 64, 78
1, 270744, Control_c, 0, 67, 62
1, 270758, Control_c, 0, 64, 81
1, 270758, Control_c, 0, 67, 63
1, 270773, Control_c, 0, 64, 82
1, 270773, Control_c, 0, 67, 65
1, 270788, Control_c, 0, 64, 83
1, 270788, Control_c, 0, 67, 67
1, 270791, Note_off_c, 0, 65, 64
1, 270803, Control_c, 0, 64, 84
1, 270803, Control_c, 0, 67, 70
1, 270813, Note_off_c, 0, 73, 52
1, 270818, Note_on_c, 0, 61, 51
1, 270818, Control_c, 0, 67, 74
1, 270833, Control_c, 0, 64, 84
1, 270833, Control_c, 0, 67, 79
1, 270847, Control_c, 0, 67, 84
1, 270862, Control_c, 0, 64, 85
1, 270862, Control_c, 0, 67, 88
1, 270877, Control_c, 0, 64, 85
1, 270877, Control_c, 0, 67, 91
1, 270892, Control_c, 0, 67, 94
1, 270907, Control_c, 0, 67, 96
1, 270922, Control_c, 0, 67, 99
1, 270935, Note_off_c, 0, 61, 52
1, 270937, Note_on_c, 0, 73, 73
1, 270937, Control_c, 0, 64, 85
1, 270937, Control_c, 0, 67, 101
1, 270952, Control_c, 0, 64, 80
1, 270952, Control_c, 0, 67, 103
1, 270961, Note_on_c, 0, 51, 41
1, 270966, Control_c, 0, 64, 71
1, 270966, Control_c, 0, 67, 104
1, 270981, Control_c, 0, 64, 40
1, 270981, Control_c, 0, 67, 105
1, 270994, Note_off_c, 0, 58, 36
1, 270996, Control_c, 0, 64, 0
1, 270996, Control_c, 0, 67, 106
1, 271010, Control_c, 0, 67, 106
1, 271025, Control_c, 0, 67, 107
1, 271040, Control_c, 0, 67, 108
1, 271055, Control_c, 0, 64, 57
1, 271055, Control_c, 0, 67, 110
1, 271070, Control_c, 0, 64, 68
1, 271070, Control_c, 0, 67, 111
1, 271083, Note_on_c, 0, 68, 48
1, 271084, Control_c, 0, 64, 72
1, 271084, Control_c, 0, 67, 113
1, 271099, Control_c, 0, 64, 76
1, 271099, Control_c, 0, 67, 115
1, 271114, Control_c, 0, 64, 77
1, 271114, Control_c, 0, 67, 117
1, 271129, Control_c, 0, 64, 79
1, 271129, Control_c, 0, 67, 120
1, 271143, Control_c, 0, 64, 80
1, 271143, Control_c, 0, 67, 124
1, 271158, Control_c, 0, 64, 81
1, 271158, Control_c, 0, 67, 127
1, 271168, Note_off_c, 0, 68, 60
1, 271173, Control_c, 0, 64, 81
1, 271173, Control_c, 0, 67, 127
1, 271199, Note_on_c, 0, 63, 45
1, 271202, Control_c, 0, 64, 82
1, 271232, Control_c, 0, 64, 82
1, 271299, Control_c, 0, 64, 81
1, 271305, Note_off_c, 0, 73, 64
1, 271314, Control_c, 0, 64, 78
1, 271318, Note_off_c, 0, 63, 40
1, 271318, Note_on_c, 0, 72, 66
1, 271321, Note_on_c, 0, 56, 45
1, 271329, Control_c, 0, 64, 69
1, 271343, Control_c, 0, 64, 30
1, 271360, Control_c, 0, 64, 0
1, 271433, Control_c, 0, 64, 42
1, 271448, Control_c, 0, 64, 65
1, 271463, Control_c, 0, 64, 69
1, 271470, Note_on_c, 0, 68, 54
1, 271478, Control_c, 0, 64, 71
1, 271493, Control_c, 0, 64, 74
1, 271507, Control_c, 0, 64, 77
1, 271512, Note_off_c, 0, 56, 36
1, 271522, Control_c, 0, 64, 80
1, 271537, Control_c, 0, 64, 82
1, 271547, Note_off_c, 0, 72, 51
1, 271552, Control_c, 0, 64, 83
1, 271567, Control_c, 0, 64, 83
1, 271568, Note_off_c, 0, 68, 59
1, 271581, Note_on_c, 0, 63, 42
1, 271581, Control_c, 0, 64, 84
1, 271596, Control_c, 0, 64, 84
1, 271611, Control_c, 0, 64, 85
1, 271626, Control_c, 0, 64, 86
1, 271670, Control_c, 0, 64, 85
1, 271677, Note_off_c, 0, 63, 37
1, 271678, Note_on_c, 0, 72, 64
1, 271685, Control_c, 0, 64, 82
1, 271697, Note_on_c, 0, 56, 39
1, 271700, Control_c, 0, 64, 76
1, 271715, Control_c, 0, 64, 63
1, 271730, Control_c, 0, 64, 0
1, 271775, Control_c, 0, 64, 58
1, 271789, Control_c, 0, 64, 66
1, 271804, Control_c, 0, 64, 70
1, 271816, Note_off_c, 0, 51, 37
1, 271816, Note_on_c, 0, 68, 44
1, 271819, Control_c, 0, 64, 72
1, 271833, Control_c, 0, 64, 73
1, 271848, Control_c, 0, 64, 75
1, 271863, Control_c, 0, 64, 77
1, 271878, Control_c, 0, 64, 78
1, 271893, Control_c, 0, 64, 79
1, 271894, Note_off_c, 0, 72, 37
1, 271900, Note_off_c, 0, 68, 59
1, 271922, Control_c, 0, 64, 79
1, 271938, Note_on_c, 0, 63, 43
1, 271952, Control_c, 0, 64, 80
1, 271966, Control_c, 0, 64, 80
1, 272020, Note_off_c, 0, 63, 57
1, 272026, Control_c, 0, 64, 79
1, 272048, Control_c, 0, 64, 74
1, 272055, Note_on_c, 0, 72, 56
1, 272063, Control_c, 0, 64, 66
1, 272067, Note_off_c, 0, 56, 40
1, 272070, Note_on_c, 0, 51, 39
1, 272078, Control_c, 0, 64, 0
1, 272137, Control_c, 0, 64, 38
1, 272152, Control_c, 0, 64, 62
1, 272168, Control_c, 0, 64, 66
1, 272183, Control_c, 0, 64, 68
1, 272198, Control_c, 0, 64, 70
1, 272212, Control_c, 0, 64, 71
1, 272227, Control_c, 0, 64, 73
1, 272236, Note_on_c, 0, 63, 32
1, 272242, Control_c, 0, 64, 74
1, 272256, Control_c, 0, 64, 75
1, 272258, Note_off_c, 0, 72, 38
1, 272271, Control_c, 0, 64, 76
1, 272301, Control_c, 0, 64, 76
1, 272316, Control_c, 0, 64, 77
1, 272324, Note_off_c, 0, 63, 38
1, 272326, Note_on_c, 0, 61, 43
1, 272389, Control_c, 0, 64, 75
1, 272403, Note_off_c, 0, 61, 54
1, 272404, Control_c, 0, 64, 71
1, 272419, Control_c, 0, 64, 64
1, 272427, Note_on_c, 0, 70, 56
1, 272434, Control_c, 0, 64, 0
1, 272448, Note_on_c, 0, 55, 29
1, 272523, Control_c, 0, 64, 58
1, 272538, Control_c, 0, 64, 65
1, 272546, Note_off_c, 0, 51, 0
1, 272553, Control_c, 0, 64, 66
1, 272567, Control_c, 0, 64, 67
1, 272582, Control_c, 0, 64, 68
1, 272582, Poly_aftertouch_c, 0, 51, 127
1, 272583, Note_on_c, 0, 63, 45
1, 272597, Control_c, 0, 64, 70
1, 272612, Control_c, 0, 64, 73
1, 272627, Control_c, 0, 64, 76
1, 272634, Note_off_c, 0, 70, 31
1, 272642, Control_c, 0, 64, 77
1, 272656, Control_c, 0, 64, 78
1, 272660, Note_off_c, 0, 55, 41
1, 272685, Note_off_c, 0, 63, 48
1, 272686, Control_c, 0, 64, 78
1, 272701, Control_c, 0, 64, 79
1, 272705, Note_on_c, 0, 61, 41
1, 272716, Control_c, 0, 64, 79
1, 272812, Control_c, 0, 64, 80
1, 272827, Note_off_c, 0, 61, 50
1, 272842, Note_on_c, 0, 70, 54
1, 272857, Note_on_c, 0, 55, 33
1, 273009, Note_on_c, 0, 63, 41
1, 273036, Note_off_c, 0, 70, 33
1, 273045, Poly_aftertouch_c, 0, 51, 0
1, 273160, Note_off_c, 0, 63, 53
1, 273195, Note_on_c, 0, 61, 35
1, 273233, Note_off_c, 0, 61, 49
1, 273375, Control_c, 0, 64, 79
1, 273390, Control_c, 0, 64, 79
1, 273405, Control_c, 0, 64, 77
1, 273420, Control_c, 0, 64, 73
1, 273420, Note_off_c, 0, 55, 42
1, 273432, Note_on_c, 0, 44, 46
1, 273435, Control_c, 0, 64, 66
1, 273447, Note_on_c, 0, 72, 55
1, 273450, Control_c, 0, 64, 53
1, 273461, Note_off_c, 0, 44, 57
1, 273465, Control_c, 0, 64, 0
1, 273534, Note_off_c, 0, 72, 59
1, 273553, Note_on_c, 0, 75, 56
1, 273623, Note_off_c, 0, 75, 64
1, 273634, Note_on_c, 0, 72, 59
1, 273673, Note_off_c, 0, 72, 64
1, 273703, Note_on_c, 0, 68, 56
1, 273730, Note_off_c, 0, 68, 62
1, 273782, Note_on_c, 0, 56, 38
1, 273784, Note_on_c, 0, 60, 33
1, 273784, Note_on_c, 0, 68, 59
1, 273787, Note_on_c, 0, 54, 33
1, 273831, Note_off_c, 0, 68, 61
1, 273875, Note_on_c, 0, 72, 36
1, 273903, Note_off_c, 0, 72, 56
1, 273940, Note_on_c, 0, 68, 63
1, 273975, Note_off_c, 0, 68, 62
1, 274028, Note_on_c, 0, 63, 50
1, 274082, Note_off_c, 0, 63, 49
1, 274118, Note_on_c, 0, 68, 48
1, 274185, Note_off_c, 0, 68, 56
1, 274425, Note_off_c, 0, 54, 38
1, 274443, Note_off_c, 0, 60, 34
1, 274455, Note_off_c, 0, 56, 35
1, 274463, Note_on_c, 0, 49, 30
1, 274481, Note_on_c, 0, 73, 54
1, 274510, Note_off_c, 0, 49, 46
1, 274532, Control_c, 0, 67, 127
1, 274532, Note_off_c, 0, 73, 58
1, 274547, Control_c, 0, 67, 124
1, 274553, Note_on_c, 0, 77, 65
1, 274562, Control_c, 0, 67, 120
1, 274577, Control_c, 0, 67, 116
1, 274592, Control_c, 0, 67, 110
1, 274606, Control_c, 0, 67, 105
1, 274621, Note_off_c, 0, 77, 59
1, 274621, Control_c, 0, 67, 100
1, 274636, Control_c, 0, 67, 95
1, 274639, Note_on_c, 0, 73, 67
1, 274651, Control_c, 0, 67, 91
1, 274666, Control_c, 0, 67, 88
1, 274678, Note_off_c, 0, 73, 57
1, 274681, Control_c, 0, 67, 86
1, 274696, Control_c, 0, 67, 85
1, 274711, Control_c, 0, 67, 83
1, 274717, Note_on_c, 0, 68, 59
1, 274726, Control_c, 0, 67, 82
1, 274740, Note_off_c, 0, 68, 63
1, 274740, Control_c, 0, 67, 82
1, 274755, Control_c, 0, 67, 81
1, 274784, Control_c, 0, 67, 81
1, 274786, Note_on_c, 0, 61, 41
1, 274791, Note_on_c, 0, 56, 37
1, 274798, Note_on_c, 0, 53, 35
1, 274799, Control_c, 0, 67, 80
1, 274813, Note_on_c, 0, 68, 59
1, 274829, Control_c, 0, 67, 80
1, 274860, Note_off_c, 0, 68, 61
1, 274873, Control_c, 0, 67, 79
1, 274885, Note_on_c, 0, 73, 56
1, 274888, Control_c, 0, 67, 79
1, 274903, Control_c, 0, 67, 78
1, 274918, Control_c, 0, 67, 77
1, 274932, Control_c, 0, 67, 76
1, 274943, Note_off_c, 0, 73, 53
1, 274947, Control_c, 0, 67, 75
1, 274962, Control_c, 0, 67, 74
1, 274965, Note_on_c, 0, 68, 54
1, 274976, Control_c, 0, 67, 73
1, 274991, Control_c, 0, 67, 71
1, 275001, Note_off_c, 0, 68, 64
1, 275006, Control_c, 0, 67, 69
1, 275029, Control_c, 0, 67, 67
1, 275035, Note_on_c, 0, 65, 51
1, 275044, Control_c, 0, 67, 64
1, 275058, Control_c, 0, 67, 61
1, 275073, Control_c, 0, 67, 58
1, 275086, Note_off_c, 0, 65, 60
1, 275088, Control_c, 0, 67, 53
1, 275103, Control_c, 0, 67, 46
1, 275118, Control_c, 0, 67, 37
1, 275132, Control_c, 0, 67, 24
1, 275134, Note_on_c, 0, 68, 41
1, 275147, Control_c, 0, 64, 38
1, 275147, Control_c, 0, 67, 0
1, 275162, Control_c, 0, 64, 64
1, 275176, Control_c, 0, 64, 67
1, 275191, Control_c, 0, 64, 70
1, 275200, Note_off_c, 0, 61, 46
1, 275203, Note_off_c, 0, 56, 36
1, 275206, Control_c, 0, 64, 74
1, 275221, Control_c, 0, 64, 78
1, 275236, Control_c, 0, 64, 81
1, 275242, Note_off_c, 0, 68, 63
1, 275250, Control_c, 0, 64, 82
1, 275253, Note_off_c, 0, 53, 42
1, 275399, Control_c, 0, 64, 81
1, 275414, Control_c, 0, 64, 79
1, 275429, Control_c, 0, 64, 75
1, 275444, Control_c, 0, 64, 67
1, 275459, Control_c, 0, 64, 56
1, 275474, Note_on_c, 0, 39, 48
1, 275474, Control_c, 0, 64, 0
1, 275493, Note_on_c, 0, 75, 61
1, 275531, Note_off_c, 0, 39, 61
1, 275552, Note_off_c, 0, 75, 63
1, 275566, Note_on_c, 0, 79, 69
1, 275626, Note_off_c, 0, 79, 62
1, 275638, Note_on_c, 0, 75, 67
1, 275682, Note_off_c, 0, 75, 62
1, 275711, Control_c, 0, 67, 9
1, 275718, Note_on_c, 0, 70, 65
1, 275726, Control_c, 0, 67, 11
1, 275741, Control_c, 0, 67, 13
1, 275747, Note_off_c, 0, 70, 65
1, 275755, Control_c, 0, 67, 15
1, 275770, Control_c, 0, 67, 17
1, 275793, Control_c, 0, 67, 18
1, 275796, Note_on_c, 0, 61, 50
1, 275807, Control_c, 0, 67, 20
1, 275808, Note_on_c, 0, 58, 46
1, 275815, Note_on_c, 0, 51, 41
1, 275819, Note_on_c, 0, 70, 68
1, 275822, Control_c, 0, 67, 23
1, 275837, Control_c, 0, 67, 26
1, 275852, Control_c, 0, 67, 28
1, 275859, Note_off_c, 0, 70, 56
1, 275867, Control_c, 0, 67, 30
1, 275881, Control_c, 0, 67, 32
1, 275887, Note_on_c, 0, 75, 59
1, 275896, Control_c, 0, 67, 34
1, 275911, Control_c, 0, 67, 38
1, 275926, Control_c, 0, 67, 43
1, 275941, Control_c, 0, 67, 47
1, 275945, Note_off_c, 0, 75, 57
1, 275955, Control_c, 0, 67, 52
1, 275963, Note_on_c, 0, 70, 65
1, 275970, Control_c, 0, 67, 56
1, 275985, Control_c, 0, 67, 59
1, 275999, Control_c, 0, 67, 62
1, 276007, Note_off_c, 0, 70, 63
1, 276014, Control_c, 0, 67, 65
1, 276029, Control_c, 0, 67, 68
1, 276044, Control_c, 0, 67, 72
1, 276049, Note_on_c, 0, 67, 49
1, 276059, Control_c, 0, 67, 76
1, 276073, Control_c, 0, 67, 81
1, 276088, Control_c, 0, 67, 85
1, 276103, Note_off_c, 0, 67, 50
1, 276103, Control_c, 0, 67, 92
1, 276118, Control_c, 0, 67, 98
1, 276133, Control_c, 0, 67, 106
1, 276141, Note_on_c, 0, 70, 49
1, 276149, Control_c, 0, 67, 113
1, 276164, Control_c, 0, 67, 121
1, 276178, Control_c, 0, 67, 127
1, 276193, Control_c, 0, 67, 127
1, 276199, Note_off_c, 0, 70, 42
1, 276252, Note_off_c, 0, 58, 62
1, 276252, Control_c, 0, 64, 61
1, 276267, Control_c, 0, 64, 66
1, 276282, Control_c, 0, 64, 67
1, 276297, Control_c, 0, 64, 69
1, 276304, Note_off_c, 0, 51, 54
1, 276311, Control_c, 0, 64, 72
1, 276316, Note_off_c, 0, 61, 50
1, 276326, Control_c, 0, 64, 74
1, 276341, Control_c, 0, 64, 76
1, 276356, Control_c, 0, 64, 77
1, 276386, Control_c, 0, 64, 78
1, 276460, Control_c, 0, 64, 77
1, 276475, Control_c, 0, 64, 76
1, 276482, Note_on_c, 0, 44, 36
1, 276489, Note_on_c, 0, 75, 57
1, 276490, Control_c, 0, 64, 74
1, 276505, Control_c, 0, 64, 67
1, 276516, Note_off_c, 0, 44, 54
1, 276520, Control_c, 0, 64, 56
1, 276533, Note_off_c, 0, 75, 63
1, 276542, Control_c, 0, 64, 0
1, 276576, Note_on_c, 0, 80, 67
1, 276640, Note_off_c, 0, 80, 62
1, 276651, Note_on_c, 0, 75, 68
1, 276691, Note_off_c, 0, 75, 64
1, 276731, Note_on_c, 0, 72, 57
1, 276750, Note_off_c, 0, 72, 66
1, 276801, Note_on_c, 0, 56, 41
1, 276803, Note_on_c, 0, 60, 50
1, 276808, Note_on_c, 0, 51, 40
1, 276817, Note_on_c, 0, 72, 58
1, 276857, Note_off_c, 0, 72, 59
1, 276879, Note_on_c, 0, 75, 63
1, 276923, Note_off_c, 0, 75, 60
1, 276957, Note_on_c, 0, 72, 65
1, 276997, Note_off_c, 0, 72, 59
1, 277043, Note_on_c, 0, 68, 51
1, 277075, Note_off_c, 0, 68, 59
1, 277134, Note_on_c, 0, 72, 49
1, 277173, Note_off_c, 0, 72, 60
1, 277350, Control_c, 0, 64, 54
1, 277365, Control_c, 0, 64, 63
1, 277379, Control_c, 0, 64, 64
1, 277394, Control_c, 0, 64, 66
1, 277396, Note_off_c, 0, 56, 43
1, 277409, Note_off_c, 0, 60, 59
1, 277409, Control_c, 0, 64, 69
1, 277424, Control_c, 0, 64, 73
1, 277439, Control_c, 0, 64, 75
1, 277442, Note_off_c, 0, 51, 62
1, 277453, Control_c, 0, 64, 76
1, 277483, Control_c, 0, 64, 75
1, 277498, Control_c, 0, 64, 73
1, 277513, Control_c, 0, 64, 69
1, 277517, Note_on_c, 0, 44, 61
1, 277518, Note_on_c, 0, 84, 67
1, 277528, Control_c, 0, 64, 61
1, 277540, Note_off_c, 0, 44, 59
1, 277543, Control_c, 0, 64, 0
1, 277575, Note_off_c, 0, 84, 52
1, 277610, Note_on_c, 0, 87, 63
1, 277663, Note_off_c, 0, 87, 62
1, 277677, Note_on_c, 0, 84, 79
1, 277724, Note_off_c, 0, 84, 63
1, 277760, Note_on_c, 0, 80, 67
1, 277787, Note_off_c, 0, 80, 65
1, 277828, Note_on_c, 0, 60, 51
1, 277831, Note_on_c, 0, 56, 46
1, 277832, Note_on_c, 0, 80, 71
1, 277837, Note_on_c, 0, 54, 41
1, 277885, Note_off_c, 0, 80, 61
1, 277907, Note_on_c, 0, 84, 63
1, 277943, Control_c, 0, 67, 127
1, 277958, Control_c, 0, 67, 122
1, 277972, Control_c, 0, 67, 120
1, 277977, Note_off_c, 0, 84, 64
1, 277987, Control_c, 0, 67, 117
1, 277993, Note_on_c, 0, 80, 72
1, 278001, Control_c, 0, 67, 113
1, 278023, Control_c, 0, 67, 108
1, 278031, Note_off_c, 0, 80, 62
1, 278038, Control_c, 0, 67, 101
1, 278053, Control_c, 0, 67, 95
1, 278068, Control_c, 0, 67, 90
1, 278080, Note_on_c, 0, 75, 54
1, 278082, Control_c, 0, 67, 87
1, 278097, Control_c, 0, 67, 84
1, 278112, Control_c, 0, 67, 81
1, 278127, Control_c, 0, 67, 79
1, 278137, Note_off_c, 0, 75, 60
1, 278142, Control_c, 0, 67, 77
1, 278157, Control_c, 0, 67, 76
1, 278166, Note_on_c, 0, 80, 57
1, 278172, Control_c, 0, 67, 75
1, 278186, Control_c, 0, 67, 75
1, 278201, Control_c, 0, 67, 74
1, 278216, Control_c, 0, 67, 73
1, 278227, Note_off_c, 0, 80, 60
1, 278231, Control_c, 0, 67, 71
1, 278246, Control_c, 0, 67, 70
1, 278261, Control_c, 0, 67, 68
1, 278275, Control_c, 0, 67, 67
1, 278290, Control_c, 0, 67, 66
1, 278305, Control_c, 0, 67, 65
1, 278320, Control_c, 0, 67, 63
1, 278334, Control_c, 0, 67, 60
1, 278349, Control_c, 0, 67, 58
1, 278364, Control_c, 0, 67, 55
1, 278379, Control_c, 0, 67, 53
1, 278394, Control_c, 0, 67, 50
1, 278408, Control_c, 0, 67, 47
1, 278423, Control_c, 0, 67, 45
1, 278438, Control_c, 0, 67, 42
1, 278453, Control_c, 0, 67, 39
1, 278463, Note_off_c, 0, 54, 49
1, 278468, Control_c, 0, 67, 37
1, 278476, Note_on_c, 0, 49, 53
1, 278476, Note_off_c, 0, 60, 55
1, 278482, Control_c, 0, 67, 34
1, 278486, Note_off_c, 0, 56, 50
1, 278497, Control_c, 0, 67, 32
1, 278502, Note_on_c, 0, 85, 72
1, 278512, Control_c, 0, 67, 30
1, 278523, Note_off_c, 0, 49, 57
1, 278526, Control_c, 0, 67, 28
1, 278541, Control_c, 0, 67, 25
1, 278556, Note_off_c, 0, 85, 63
1, 278558, Control_c, 0, 67, 23
1, 278572, Control_c, 0, 67, 22
1, 278579, Note_on_c, 0, 89, 77
1, 278587, Control_c, 0, 67, 21
1, 278602, Control_c, 0, 67, 20
1, 278617, Control_c, 0, 67, 19
1, 278631, Control_c, 0, 67, 18
1, 278646, Control_c, 0, 67, 17
1, 278650, Note_off_c, 0, 89, 65
1, 278657, Note_on_c, 0, 85, 70
1, 278661, Control_c, 0, 67, 17
1, 278676, Control_c, 0, 67, 16
1, 278690, Control_c, 0, 67, 15
1, 278705, Note_off_c, 0, 85, 62
1, 278705, Control_c, 0, 67, 14
1, 278720, Control_c, 0, 67, 13
1, 278725, Note_on_c, 0, 80, 73
1, 278735, Control_c, 0, 67, 12
1, 278750, Control_c, 0, 67, 11
1, 278750, Note_off_c, 0, 80, 67
1, 278772, Control_c, 0, 67, 10
1, 278787, Control_c, 0, 67, 8
1, 278802, Control_c, 0, 67, 8
1, 278812, Note_on_c, 0, 61, 54
1, 278817, Control_c, 0, 67, 0
1, 278818, Note_on_c, 0, 80, 69
1, 278821, Note_on_c, 0, 56, 47
1, 278827, Note_on_c, 0, 53, 38
1, 278869, Note_off_c, 0, 80, 60
1, 278890, Note_on_c, 0, 85, 68
1, 278960, Note_off_c, 0, 85, 61
1, 278975, Note_on_c, 0, 80, 66
1, 279011, Note_off_c, 0, 80, 63
1, 279033, Note_on_c, 0, 77, 63
1, 279082, Note_off_c, 0, 77, 57
1, 279127, Note_on_c, 0, 80, 55
1, 279188, Note_off_c, 0, 80, 56
1, 279246, Control_c, 0, 64, 59
1, 279261, Control_c, 0, 64, 66
1, 279271, Note_off_c, 0, 61, 63
1, 279271, Note_off_c, 0, 56, 61
1, 279276, Control_c, 0, 64, 69
1, 279291, Control_c, 0, 64, 71
1, 279294, Note_off_c, 0, 53, 60
1, 279305, Control_c, 0, 64, 74
1, 279320, Control_c, 0, 64, 78
1, 279335, Control_c, 0, 64, 81
1, 279351, Control_c, 0, 64, 83
1, 279366, Control_c, 0, 64, 85
1, 279425, Control_c, 0, 64, 83
1, 279440, Control_c, 0, 64, 77
1, 279454, Control_c, 0, 64, 65
1, 279469, Control_c, 0, 64, 0
1, 279477, Note_on_c, 0, 39, 53
1, 279492, Note_on_c, 0, 87, 65
1, 279499, Control_c, 0, 64, 58
1, 279521, Control_c, 0, 64, 65
1, 279536, Control_c, 0, 64, 66
1, 279545, Note_off_c, 0, 39, 60
1, 279563, Note_off_c, 0, 87, 63
1, 279566, Control_c, 0, 64, 65
1, 279579, Note_on_c, 0, 91, 77
1, 279610, Control_c, 0, 64, 65
1, 279640, Control_c, 0, 64, 64
1, 279647, Note_off_c, 0, 91, 61
1, 279654, Control_c, 0, 64, 62
1, 279656, Note_on_c, 0, 87, 75
1, 279669, Control_c, 0, 64, 57
1, 279684, Control_c, 0, 64, 41
1, 279699, Note_off_c, 0, 87, 59
1, 279699, Control_c, 0, 64, 0
1, 279728, Note_on_c, 0, 82, 69
1, 279753, Note_off_c, 0, 82, 67
1, 279795, Note_on_c, 0, 61, 53
1, 279800, Note_on_c, 0, 58, 49
1, 279809, Note_on_c, 0, 51, 43
1, 279811, Note_on_c, 0, 82, 73
1, 279865, Note_off_c, 0, 82, 60
1, 279886, Note_on_c, 0, 87, 64
1, 279936, Control_c, 0, 67, 8
1, 279939, Note_off_c, 0, 87, 55
1, 279951, Control_c, 0, 67, 10
1, 279962, Note_on_c, 0, 82, 59
1, 279966, Control_c, 0, 67, 12
1, 279980, Control_c, 0, 67, 15
1, 279995, Control_c, 0, 67, 16
1, 280003, Note_off_c, 0, 82, 62
1, 280010, Control_c, 0, 67, 17
1, 280025, Control_c, 0, 67, 18
1, 280038, Note_on_c, 0, 79, 52
1, 280040, Control_c, 0, 67, 20
1, 280054, Control_c, 0, 67, 23
1, 280069, Control_c, 0, 67, 28
1, 280080, Note_off_c, 0, 79, 50
1, 280084, Control_c, 0, 67, 33
1, 280098, Control_c, 0, 67, 38
1, 280113, Control_c, 0, 67, 42
1, 280128, Control_c, 0, 67, 44
1, 280131, Note_on_c, 0, 82, 52
1, 280144, Control_c, 0, 67, 48
1, 280159, Control_c, 0, 67, 54
1, 280174, Control_c, 0, 67, 61
1, 280189, Control_c, 0, 67, 70
1, 280190, Note_off_c, 0, 82, 52
1, 280203, Control_c, 0, 64, 40
1, 280203, Control_c, 0, 67, 79
1, 280218, Control_c, 0, 64, 64
1, 280218, Control_c, 0, 67, 89
1, 280220, Note_off_c, 0, 58, 63
1, 280233, Control_c, 0, 64, 68
1, 280233, Control_c, 0, 67, 99
1, 280248, Control_c, 0, 64, 70
1, 280248, Control_c, 0, 67, 107
1, 280256, Note_off_c, 0, 61, 61
1, 280263, Control_c, 0, 64, 71
1, 280263, Control_c, 0, 67, 116
1, 280285, Control_c, 0, 64, 74
1, 280285, Control_c, 0, 67, 121
1, 280300, Control_c, 0, 64, 77
1, 280300, Control_c, 0, 67, 126
1, 280312, Note_off_c, 0, 51, 40
1, 280315, Control_c, 0, 64, 78
1, 280315, Control_c, 0, 67, 127
1, 280477, Control_c, 0, 64, 77
1, 280492, Control_c, 0, 64, 73
1, 280507, Note_on_c, 0, 44, 35
1, 280507, Control_c, 0, 64, 64
1, 280521, Control_c, 0, 64, 0
1, 280558, Note_on_c, 0, 87, 52
1, 280581, Control_c, 0, 64, 58
1, 280595, Control_c, 0, 64, 65
1, 280610, Control_c, 0, 64, 68
1, 280613, Note_off_c, 0, 87, 58
1, 280625, Control_c, 0, 64, 69
1, 280639, Note_off_c, 0, 44, 57
1, 280643, Note_on_c, 0, 92, 70
1, 280655, Control_c, 0, 64, 70
1, 280670, Control_c, 0, 64, 70
1, 280684, Control_c, 0, 64, 71
1, 280699, Control_c, 0, 64, 71
1, 280714, Note_off_c, 0, 92, 64
1, 280724, Note_on_c, 0, 87, 73
1, 280774, Note_off_c, 0, 87, 60
1, 280801, Note_on_c, 0, 84, 63
1, 280818, Control_c, 0, 64, 71
1, 280828, Note_off_c, 0, 84, 69
1, 280833, Control_c, 0, 64, 70
1, 280848, Control_c, 0, 64, 68
1, 280862, Control_c, 0, 64, 64
1, 280877, Control_c, 0, 64, 57
1, 280892, Control_c, 0, 64, 0
1, 280893, Note_on_c, 0, 84, 68
1, 280910, Note_on_c, 0, 51, 38
1, 280910, Note_on_c, 0, 56, 40
1, 280924, Note_on_c, 0, 60, 48
1, 280959, Note_off_c, 0, 84, 57
1, 280976, Note_on_c, 0, 87, 58
1, 281060, Note_off_c, 0, 87, 62
1, 281085, Note_on_c, 0, 84, 56
1, 281139, Note_off_c, 0, 84, 58
1, 281182, Note_on_c, 0, 80, 47
1, 281229, Note_off_c, 0, 80, 47
1, 281293, Note_on_c, 0, 84, 39
1, 281330, Control_c, 0, 64, 41
1, 281343, Note_off_c, 0, 84, 0
1, 281343, Note_on_c, 0, 84, 5
1, 281344, Control_c, 0, 64, 64
1, 281359, Control_c, 0, 64, 69
1, 281369, Note_off_c, 0, 60, 37
1, 281374, Control_c, 0, 64, 75
1, 281389, Control_c, 0, 64, 79
1, 281403, Note_off_c, 0, 84, 59
1, 281404, Control_c, 0, 64, 80
1, 281418, Note_off_c, 0, 56, 42
1, 281418, Control_c, 0, 64, 81
1, 281433, Control_c, 0, 64, 83
1, 281448, Control_c, 0, 64, 84
1, 281463, Control_c, 0, 64, 85
1, 281478, Control_c, 0, 64, 86
1, 281492, Control_c, 0, 64, 86
1, 281498, Note_off_c, 0, 51, 41
1, 281507, Control_c, 0, 64, 87
1, 281522, Control_c, 0, 64, 87
1, 281537, Control_c, 0, 64, 88
1, 281552, Control_c, 0, 64, 88
1, 281871, Control_c, 0, 64, 88
1, 281881, Note_on_c, 0, 51, 49
1, 281886, Control_c, 0, 64, 85
1, 281893, Note_on_c, 0, 72, 47
1, 281894, Note_on_c, 0, 44, 40
1, 281901, Control_c, 0, 64, 79
1, 281916, Control_c, 0, 64, 72
1, 281930, Control_c, 0, 64, 64
1, 281945, Control_c, 0, 64, 51
1, 281960, Control_c, 0, 64, 57
1, 281975, Control_c, 0, 64, 64
1, 281990, Control_c, 0, 64, 69
1, 282005, Control_c, 0, 64, 72
1, 282014, Note_off_c, 0, 72, 52
1, 282020, Control_c, 0, 64, 74
1, 282035, Control_c, 0, 64, 76
1, 282049, Control_c, 0, 64, 77
1, 282059, Note_on_c, 0, 75, 41
1, 282064, Control_c, 0, 64, 78
1, 282079, Control_c, 0, 64, 78
1, 282094, Control_c, 0, 64, 79
1, 282121, Note_off_c, 0, 75, 58
1, 282123, Control_c, 0, 64, 79
1, 282137, Note_on_c, 0, 72, 43
1, 282153, Control_c, 0, 64, 80
1, 282175, Note_off_c, 0, 72, 49
1, 282214, Note_on_c, 0, 68, 39
1, 282241, Control_c, 0, 64, 80
1, 282246, Note_off_c, 0, 68, 52
1, 282297, Note_on_c, 0, 56, 67
1, 282345, Note_on_c, 0, 68, 48
1, 282379, Note_off_c, 0, 68, 51
1, 282438, Note_on_c, 0, 72, 39
1, 282470, Note_off_c, 0, 72, 52
1, 282477, Note_off_c, 0, 51, 54
1, 282482, Note_off_c, 0, 44, 47
1, 282491, Note_on_c, 0, 68, 53
1, 282539, Note_off_c, 0, 68, 55
1, 282561, Control_c, 0, 67, 126
1, 282568, Note_on_c, 0, 63, 53
1, 282576, Control_c, 0, 67, 124
1, 282590, Control_c, 0, 67, 122
1, 282605, Control_c, 0, 67, 120
1, 282620, Control_c, 0, 67, 119
1, 282635, Control_c, 0, 67, 117
1, 282640, Note_off_c, 0, 63, 43
1, 282650, Control_c, 0, 67, 116
1, 282652, Note_on_c, 0, 68, 54
1, 282664, Control_c, 0, 67, 114
1, 282679, Control_c, 0, 67, 113
1, 282694, Control_c, 0, 67, 111
1, 282709, Control_c, 0, 67, 108
1, 282715, Note_off_c, 0, 68, 38
1, 282724, Control_c, 0, 67, 106
1, 282738, Control_c, 0, 67, 102
1, 282753, Control_c, 0, 67, 98
1, 282768, Control_c, 0, 67, 93
1, 282783, Control_c, 0, 67, 86
1, 282798, Control_c, 0, 67, 80
1, 282807, Note_on_c, 0, 55, 69
1, 282813, Control_c, 0, 67, 74
1, 282828, Control_c, 0, 67, 68
1, 282839, Note_off_c, 0, 56, 47
1, 282843, Control_c, 0, 67, 62
1, 282858, Control_c, 0, 67, 56
1, 282872, Control_c, 0, 67, 51
1, 282887, Control_c, 0, 67, 46
1, 282902, Control_c, 0, 67, 43
1, 282916, Control_c, 0, 67, 40
1, 282931, Control_c, 0, 67, 38
1, 282946, Control_c, 0, 64, 79
1, 282946, Control_c, 0, 67, 36
1, 282961, Control_c, 0, 64, 78
1, 282961, Control_c, 0, 67, 33
1, 282976, Control_c, 0, 64, 74
1, 282976, Control_c, 0, 67, 31
1, 282984, Note_off_c, 0, 55, 59
1, 282985, Note_on_c, 0, 53, 60
1, 282986, Note_on_c, 0, 49, 57
1, 282990, Control_c, 0, 64, 67
1, 282990, Control_c, 0, 67, 29
1, 283001, Note_on_c, 0, 73, 55
1, 283005, Control_c, 0, 64, 20
1, 283005, Control_c, 0, 67, 28
1, 283020, Control_c, 0, 64, 0
1, 283020, Control_c, 0, 67, 26
1, 283035, Control_c, 0, 67, 24
1, 283050, Control_c, 0, 67, 23
1, 283064, Control_c, 0, 67, 22
1, 283078, Note_off_c, 0, 73, 64
1, 283079, Control_c, 0, 67, 21
1, 283094, Note_on_c, 0, 77, 65
1, 283094, Control_c, 0, 64, 43
1, 283094, Control_c, 0, 67, 20
1, 283109, Control_c, 0, 64, 61
1, 283109, Control_c, 0, 67, 19
1, 283123, Control_c, 0, 64, 65
1, 283123, Control_c, 0, 67, 18
1, 283138, Control_c, 0, 64, 67
1, 283138, Control_c, 0, 67, 17
1, 283150, Note_off_c, 0, 77, 61
1, 283153, Control_c, 0, 64, 69
1, 283153, Control_c, 0, 67, 16
1, 283161, Note_on_c, 0, 73, 64
1, 283168, Control_c, 0, 64, 71
1, 283168, Control_c, 0, 67, 15
1, 283183, Control_c, 0, 64, 73
1, 283183, Control_c, 0, 67, 14
1, 283197, Control_c, 0, 64, 76
1, 283197, Control_c, 0, 67, 13
1, 283213, Control_c, 0, 64, 77
1, 283213, Control_c, 0, 67, 12
1, 283221, Note_off_c, 0, 73, 62
1, 283228, Control_c, 0, 64, 78
1, 283243, Control_c, 0, 67, 11
1, 283244, Note_on_c, 0, 68, 60
1, 283284, Note_off_c, 0, 68, 63
1, 283295, Control_c, 0, 67, 11
1, 283310, Control_c, 0, 67, 10
1, 283324, Control_c, 0, 67, 9
1, 283339, Note_on_c, 0, 61, 79
1, 283340, Control_c, 0, 64, 77
1, 283340, Control_c, 0, 67, 9
1, 283355, Note_on_c, 0, 68, 61
1, 283355, Control_c, 0, 64, 74
1, 283355, Control_c, 0, 67, 8
1, 283370, Control_c, 0, 64, 68
1, 283385, Control_c, 0, 64, 57
1, 283385, Control_c, 0, 67, 8
1, 283400, Control_c, 0, 64, 0
1, 283409, Note_off_c, 0, 68, 62
1, 283414, Control_c, 0, 67, 0
1, 283429, Note_on_c, 0, 73, 60
1, 283488, Control_c, 0, 64, 59
1, 283498, Note_off_c, 0, 73, 58
1, 283503, Control_c, 0, 64, 64
1, 283507, Note_on_c, 0, 68, 63
1, 283518, Control_c, 0, 64, 66
1, 283533, Control_c, 0, 64, 67
1, 283547, Control_c, 0, 64, 69
1, 283549, Note_off_c, 0, 68, 65
1, 283562, Control_c, 0, 64, 71
1, 283569, Note_off_c, 0, 53, 54
1, 283573, Note_on_c, 0, 65, 61
1, 283577, Control_c, 0, 64, 73
1, 283592, Control_c, 0, 64, 74
1, 283607, Control_c, 0, 64, 74
1, 283621, Control_c, 0, 64, 75
1, 283650, Note_off_c, 0, 65, 57
1, 283665, Note_on_c, 0, 68, 64
1, 283681, Control_c, 0, 64, 75
1, 283755, Note_off_c, 0, 68, 61
1, 283762, Note_off_c, 0, 61, 59
1, 283810, Note_off_c, 0, 49, 59
1, 283818, Note_on_c, 0, 60, 77
1, 283977, Control_c, 0, 64, 73
1, 283992, Control_c, 0, 64, 68
1, 283995, Note_on_c, 0, 58, 67
1, 284004, Note_on_c, 0, 51, 60
1, 284007, Control_c, 0, 64, 54
1, 284021, Note_on_c, 0, 75, 68
1, 284026, Note_off_c, 0, 60, 50
1, 284029, Control_c, 0, 64, 0
1, 284095, Note_off_c, 0, 75, 65
1, 284103, Control_c, 0, 64, 40
1, 284108, Note_on_c, 0, 79, 76
1, 284118, Control_c, 0, 64, 63
1, 284133, Control_c, 0, 64, 67
1, 284148, Control_c, 0, 64, 69
1, 284163, Control_c, 0, 64, 70
1, 284174, Note_off_c, 0, 79, 62
1, 284178, Control_c, 0, 64, 72
1, 284189, Note_on_c, 0, 75, 70
1, 284193, Control_c, 0, 64, 73
1, 284208, Control_c, 0, 64, 74
1, 284223, Control_c, 0, 64, 75
1, 284242, Note_off_c, 0, 75, 63
1, 284252, Control_c, 0, 64, 76
1, 284265, Note_on_c, 0, 70, 75
1, 284300, Note_off_c, 0, 70, 60
1, 284326, Control_c, 0, 64, 75
1, 284341, Control_c, 0, 64, 72
1, 284353, Note_on_c, 0, 63, 85
1, 284356, Control_c, 0, 64, 66
1, 284367, Note_on_c, 0, 70, 66
1, 284370, Control_c, 0, 64, 40
1, 284385, Control_c, 0, 64, 0
1, 284432, Note_off_c, 0, 70, 61
1, 284448, Note_on_c, 0, 75, 60
1, 284504, Control_c, 0, 64, 60
1, 284510, Note_off_c, 0, 75, 56
1, 284518, Control_c, 0, 64, 66
1, 284531, Note_on_c, 0, 70, 63
1, 284533, Control_c, 0, 64, 69
1, 284548, Control_c, 0, 64, 71
1, 284560, Note_off_c, 0, 58, 52
1, 284563, Control_c, 0, 64, 72
1, 284564, Note_off_c, 0, 51, 57
1, 284577, Control_c, 0, 64, 74
1, 284579, Note_off_c, 0, 70, 58
1, 284592, Control_c, 0, 64, 75
1, 284603, Note_on_c, 0, 67, 59
1, 284607, Control_c, 0, 64, 75
1, 284622, Control_c, 0, 64, 76
1, 284667, Control_c, 0, 64, 76
1, 284682, Note_off_c, 0, 67, 58
1, 284697, Note_on_c, 0, 70, 63
1, 284829, Note_off_c, 0, 70, 58
1, 284857, Note_on_c, 0, 61, 71
1, 284881, Control_c, 0, 64, 76
1, 284898, Note_off_c, 0, 63, 56
1, 284941, Control_c, 0, 64, 75
1, 284956, Control_c, 0, 64, 75
1, 284971, Control_c, 0, 64, 74
1, 284986, Control_c, 0, 64, 73
1, 285000, Control_c, 0, 64, 72
1, 285015, Control_c, 0, 64, 70
1, 285027, Note_off_c, 0, 61, 61
1, 285030, Control_c, 0, 64, 68
1, 285045, Control_c, 0, 64, 66
1, 285046, Note_on_c, 0, 60, 53
1, 285048, Note_on_c, 0, 56, 53
1, 285060, Control_c, 0, 64, 63
1, 285066, Note_on_c, 0, 75, 55
1, 285074, Control_c, 0, 64, 58
1, 285089, Control_c, 0, 64, 48
1, 285104, Control_c, 0, 64, 20
1, 285114, Note_off_c, 0, 75, 62
1, 285119, Control_c, 0, 64, 0
1, 285147, Note_on_c, 0, 80, 63
1, 285205, Note_off_c, 0, 80, 62
1, 285221, Note_on_c, 0, 75, 72
1, 285258, Note_off_c, 0, 75, 66
1, 285299, Note_on_c, 0, 72, 55
1, 285323, Note_off_c, 0, 72, 65
1, 285361, Note_on_c, 0, 63, 67
1, 285395, Note_on_c, 0, 72, 56
1, 285430, Control_c, 0, 67, 8
1, 285439, Note_off_c, 0, 72, 63
1, 285460, Note_on_c, 0, 75, 56
1, 285516, Note_off_c, 0, 75, 60
1, 285540, Control_c, 0, 67, 8
1, 285552, Note_on_c, 0, 72, 59
1, 285582, Note_off_c, 0, 63, 57
1, 285585, Control_c, 0, 64, 35
1, 285586, Note_off_c, 0, 72, 63
1, 285597, Note_off_c, 0, 60, 54
1, 285600, Control_c, 0, 64, 59
1, 285615, Control_c, 0, 64, 63
1, 285629, Note_on_c, 0, 68, 46
1, 285630, Control_c, 0, 64, 65
1, 285645, Control_c, 0, 64, 67
1, 285657, Note_off_c, 0, 56, 44
1, 285660, Control_c, 0, 64, 69
1, 285674, Note_off_c, 0, 68, 54
1, 285674, Control_c, 0, 64, 72
1, 285689, Control_c, 0, 64, 75
1, 285703, Note_on_c, 0, 72, 53
1, 285704, Control_c, 0, 64, 77
1, 285718, Control_c, 0, 64, 78
1, 285733, Control_c, 0, 64, 79
1, 285749, Control_c, 0, 64, 80
1, 285762, Note_off_c, 0, 72, 58
1, 285764, Control_c, 0, 64, 80
1, 285764, Control_c, 0, 67, 8
1, 285779, Control_c, 0, 64, 81
1, 285794, Control_c, 0, 64, 81
1, 285809, Control_c, 0, 64, 82
1, 285809, Control_c, 0, 67, 0
1, 285823, Control_c, 0, 64, 82
1, 285838, Control_c, 0, 64, 83
1, 285853, Control_c, 0, 64, 83
1, 285897, Control_c, 0, 64, 84
1, 285986, Control_c, 0, 64, 84
1, 286163, Control_c, 0, 64, 83
1, 286178, Control_c, 0, 64, 77
1, 286186, Note_on_c, 0, 84, 85
1, 286187, Note_on_c, 0, 51, 82
1, 286190, Note_on_c, 0, 44, 74
1, 286193, Control_c, 0, 64, 67
1, 286208, Control_c, 0, 64, 0
1, 286276, Control_c, 0, 64, 30
1, 286290, Control_c, 0, 64, 63
1, 286305, Control_c, 0, 64, 68
1, 286313, Note_off_c, 0, 84, 62
1, 286315, Note_on_c, 0, 87, 68
1, 286320, Control_c, 0, 64, 71
1, 286334, Control_c, 0, 64, 74
1, 286349, Control_c, 0, 64, 75
1, 286364, Control_c, 0, 64, 77
1, 286379, Control_c, 0, 64, 77
1, 286394, Control_c, 0, 64, 78
1, 286405, Note_on_c, 0, 84, 67
1, 286408, Note_off_c, 0, 87, 61
1, 286409, Control_c, 0, 64, 79
1, 286423, Control_c, 0, 64, 79
1, 286438, Control_c, 0, 64, 80
1, 286453, Control_c, 0, 64, 80
1, 286468, Control_c, 0, 64, 81
1, 286476, Note_off_c, 0, 84, 64
1, 286492, Note_on_c, 0, 80, 56
1, 286497, Control_c, 0, 64, 81
1, 286514, Note_off_c, 0, 80, 61
1, 286563, Note_on_c, 0, 56, 88
1, 286587, Note_on_c, 0, 80, 73
1, 286643, Note_off_c, 0, 80, 56
1, 286663, Note_on_c, 0, 84, 67
1, 286706, Control_c, 0, 64, 82
1, 286732, Note_off_c, 0, 84, 63
1, 286747, Note_on_c, 0, 80, 73
1, 286748, Note_off_c, 0, 51, 57
1, 286761, Note_off_c, 0, 44, 56
1, 286780, Control_c, 0, 64, 82
1, 286813, Note_off_c, 0, 80, 62
1, 286834, Note_on_c, 0, 75, 59
1, 286886, Note_off_c, 0, 75, 56
1, 286907, Note_on_c, 0, 80, 70
1, 286972, Control_c, 0, 64, 83
1, 287026, Note_off_c, 0, 80, 62
1, 287075, Note_on_c, 0, 55, 83
1, 287099, Note_off_c, 0, 56, 56
1, 287217, Control_c, 0, 64, 82
1, 287231, Control_c, 0, 64, 77
1, 287242, Note_on_c, 0, 53, 77
1, 287245, Note_on_c, 0, 49, 72
1, 287246, Control_c, 0, 64, 66
1, 287253, Note_on_c, 0, 85, 80
1, 287254, Note_off_c, 0, 55, 63
1, 287261, Control_c, 0, 64, 0
1, 287322, Note_off_c, 0, 85, 63
1, 287344, Note_on_c, 0, 89, 81
1, 287380, Control_c, 0, 64, 55
1, 287395, Control_c, 0, 64, 63
1, 287410, Control_c, 0, 64, 67
1, 287423, Note_off_c, 0, 89, 65
1, 287425, Control_c, 0, 64, 71
1, 287433, Note_on_c, 0, 85, 75
1, 287440, Control_c, 0, 64, 75
1, 287455, Control_c, 0, 64, 79
1, 287469, Control_c, 0, 64, 81
1, 287484, Control_c, 0, 64, 81
1, 287487, Note_off_c, 0, 85, 65
1, 287499, Note_on_c, 0, 80, 74
1, 287499, Control_c, 0, 64, 82
1, 287535, Note_off_c, 0, 80, 63
1, 287573, Note_on_c, 0, 61, 97
1, 287573, Control_c, 0, 64, 81
1, 287582, Note_on_c, 0, 80, 68
1, 287588, Control_c, 0, 64, 75
1, 287603, Control_c, 0, 64, 59
1, 287618, Control_c, 0, 64, 0
1, 287652, Note_off_c, 0, 80, 62
1, 287663, Note_on_c, 0, 85, 72
1, 287692, Control_c, 0, 64, 53
1, 287706, Control_c, 0, 64, 66
1, 287721, Control_c, 0, 64, 70
1, 287736, Control_c, 0, 64, 73
1, 287737, Note_off_c, 0, 85, 63
1, 287741, Note_on_c, 0, 80, 74
1, 287751, Control_c, 0, 64, 76
1, 287773, Control_c, 0, 64, 79
1, 287788, Control_c, 0, 64, 80
1, 287803, Control_c, 0, 64, 81
1, 287807, Note_off_c, 0, 80, 65
1, 287814, Note_on_c, 0, 77, 74
1, 287848, Control_c, 0, 64, 81
1, 287895, Note_off_c, 0, 77, 60
1, 287895, Note_on_c, 0, 80, 78
1, 287921, Control_c, 0, 64, 82
1, 287974, Note_off_c, 0, 80, 65
1, 287993, Note_off_c, 0, 61, 62
1, 288057, Note_on_c, 0, 60, 89
1, 288068, Note_off_c, 0, 53, 41
1, 288089, Note_off_c, 0, 49, 58
1, 288203, Control_c, 0, 64, 80
1, 288218, Control_c, 0, 64, 73
1, 288232, Note_on_c, 0, 58, 82
1, 288233, Control_c, 0, 64, 60
1, 288238, Note_on_c, 0, 87, 83
1, 288238, Note_on_c, 0, 51, 74
1, 288248, Control_c, 0, 64, 0
1, 288267, Note_off_c, 0, 60, 57
1, 288312, Note_off_c, 0, 87, 61
1, 288323, Note_on_c, 0, 91, 85
1, 288336, Control_c, 0, 64, 58
1, 288351, Control_c, 0, 64, 66
1, 288366, Control_c, 0, 64, 71
1, 288381, Control_c, 0, 64, 74
1, 288396, Control_c, 0, 64, 78
1, 288397, Note_off_c, 0, 91, 61
1, 288399, Note_on_c, 0, 87, 77
1, 288411, Control_c, 0, 64, 80
1, 288426, Control_c, 0, 64, 81
1, 288441, Control_c, 0, 64, 82
1, 288455, Control_c, 0, 64, 83
1, 288462, Note_off_c, 0, 87, 63
1, 288470, Control_c, 0, 64, 84
1, 288477, Note_on_c, 0, 82, 74
1, 288484, Control_c, 0, 64, 85
1, 288499, Control_c, 0, 64, 85
1, 288517, Note_off_c, 0, 82, 62
1, 288565, Note_on_c, 0, 63, 95
1, 288566, Control_c, 0, 64, 82
1, 288567, Note_on_c, 0, 82, 71
1, 288581, Control_c, 0, 64, 73
1, 288596, Control_c, 0, 64, 25
1, 288610, Control_c, 0, 64, 0
1, 288642, Note_off_c, 0, 82, 63
1, 288650, Note_on_c, 0, 87, 73
1, 288670, Control_c, 0, 64, 35
1, 288684, Control_c, 0, 64, 65
1, 288699, Control_c, 0, 64, 71
1, 288714, Control_c, 0, 64, 75
1, 288723, Note_on_c, 0, 82, 79
1, 288729, Control_c, 0, 64, 79
1, 288730, Note_off_c, 0, 87, 63
1, 288743, Control_c, 0, 64, 80
1, 288758, Control_c, 0, 64, 81
1, 288765, Note_off_c, 0, 51, 58
1, 288773, Control_c, 0, 64, 81
1, 288777, Note_off_c, 0, 58, 62
1, 288778, Note_off_c, 0, 82, 66
1, 288787, Note_on_c, 0, 79, 81
1, 288803, Control_c, 0, 64, 82
1, 288817, Control_c, 0, 64, 82
1, 288847, Control_c, 0, 64, 83
1, 288860, Note_off_c, 0, 79, 54
1, 288870, Note_on_c, 0, 82, 87
1, 288877, Control_c, 0, 64, 83
1, 288906, Control_c, 0, 64, 84
1, 288951, Control_c, 0, 64, 84
1, 288956, Note_off_c, 0, 82, 61
1, 288996, Control_c, 0, 64, 85
1, 289011, Control_c, 0, 64, 85
1, 289028, Note_off_c, 0, 63, 52
1, 289037, Note_on_c, 0, 61, 93
1, 289055, Control_c, 0, 64, 86
1, 289085, Control_c, 0, 64, 86
1, 289114, Control_c, 0, 64, 87
1, 289129, Control_c, 0, 64, 88
1, 289144, Control_c, 0, 64, 88
1, 289159, Control_c, 0, 64, 89
1, 289198, Note_off_c, 0, 61, 59
1, 289206, Note_on_c, 0, 60, 75
1, 289213, Note_on_c, 0, 56, 67
1, 289219, Control_c, 0, 64, 87
1, 289229, Note_on_c, 0, 87, 85
1, 289233, Control_c, 0, 64, 79
1, 289255, Control_c, 0, 64, 65
1, 289270, Control_c, 0, 64, 0
1, 289299, Note_off_c, 0, 87, 61
1, 289308, Note_on_c, 0, 92, 88
1, 289359, Control_c, 0, 64, 64
1, 289374, Control_c, 0, 64, 70
1, 289385, Note_on_c, 0, 87, 86
1, 289389, Control_c, 0, 64, 76
1, 289403, Note_off_c, 0, 92, 65
1, 289404, Control_c, 0, 64, 83
1, 289418, Control_c, 0, 64, 88
1, 289433, Control_c, 0, 64, 89
1, 289436, Note_off_c, 0, 87, 65
1, 289448, Control_c, 0, 64, 90
1, 289462, Note_on_c, 0, 84, 76
1, 289463, Control_c, 0, 64, 90
1, 289498, Note_off_c, 0, 84, 57
1, 289507, Control_c, 0, 64, 90
1, 289522, Control_c, 0, 64, 89
1, 289535, Note_on_c, 0, 84, 69
1, 289536, Note_on_c, 0, 63, 102
1, 289537, Control_c, 0, 64, 82
1, 289552, Control_c, 0, 64, 67
1, 289566, Control_c, 0, 64, 0
1, 289619, Note_off_c, 0, 84, 60
1, 289637, Note_on_c, 0, 87, 70
1, 289655, Control_c, 0, 64, 30
1, 289670, Control_c, 0, 64, 64
1, 289684, Control_c, 0, 64, 66
1, 289697, Note_off_c, 0, 87, 63
1, 289699, Control_c, 0, 64, 69
1, 289704, Note_on_c, 0, 84, 73
1, 289714, Control_c, 0, 64, 72
1, 289717, Note_off_c, 0, 60, 59
1, 289730, Control_c, 0, 64, 77
1, 289745, Control_c, 0, 64, 81
1, 289755, Note_off_c, 0, 84, 57
1, 289760, Control_c, 0, 64, 82
1, 289774, Note_on_c, 0, 80, 75
1, 289775, Control_c, 0, 64, 83
1, 289804, Control_c, 0, 64, 83
1, 289819, Control_c, 0, 64, 84
1, 289834, Control_c, 0, 64, 84
1, 289844, Note_off_c, 0, 80, 63
1, 289853, Note_on_c, 0, 84, 81
1, 289863, Control_c, 0, 64, 85
1, 289878, Control_c, 0, 64, 85
1, 289924, Note_off_c, 0, 84, 59
1, 289937, Control_c, 0, 64, 86
1, 290004, Note_on_c, 0, 60, 89
1, 290009, Note_off_c, 0, 63, 64
1, 290036, Note_off_c, 0, 56, 63
1, 290197, Control_c, 0, 64, 81
1, 290210, Note_on_c, 0, 58, 83
1, 290211, Control_c, 0, 64, 70
1, 290212, Note_on_c, 0, 87, 87
1, 290223, Note_off_c, 0, 60, 56
1, 290224, Note_on_c, 0, 51, 70
1, 290226, Control_c, 0, 64, 0
1, 290296, Note_off_c, 0, 87, 63
1, 290298, Note_on_c, 0, 91, 84
1, 290315, Control_c, 0, 64, 45
1, 290330, Control_c, 0, 64, 64
1, 290345, Control_c, 0, 64, 68
1, 290360, Control_c, 0, 64, 72
1, 290375, Control_c, 0, 64, 77
1, 290375, Note_on_c, 0, 87, 85
1, 290385, Note_off_c, 0, 91, 59
1, 290389, Control_c, 0, 64, 81
1, 290404, Control_c, 0, 64, 83
1, 290419, Control_c, 0, 64, 84
1, 290434, Control_c, 0, 64, 85
1, 290441, Note_off_c, 0, 87, 63
1, 290449, Control_c, 0, 64, 86
1, 290451, Note_on_c, 0, 82, 78
1, 290463, Control_c, 0, 64, 87
1, 290478, Note_off_c, 0, 82, 61
1, 290478, Control_c, 0, 64, 87
1, 290521, Note_on_c, 0, 63, 99
1, 290522, Control_c, 0, 64, 87
1, 290538, Control_c, 0, 64, 82
1, 290540, Note_on_c, 0, 82, 83
1, 290553, Control_c, 0, 64, 70
1, 290568, Control_c, 0, 64, 0
1, 290596, Note_off_c, 0, 82, 63
1, 290620, Note_on_c, 0, 87, 78
1, 290657, Control_c, 0, 64, 63
1, 290672, Control_c, 0, 64, 69
1, 290686, Control_c, 0, 64, 73
1, 290697, Note_on_c, 0, 82, 86
1, 290700, Control_c, 0, 64, 77
1, 290702, Note_off_c, 0, 87, 63
1, 290715, Control_c, 0, 64, 79
1, 290730, Control_c, 0, 64, 80
1, 290745, Control_c, 0, 64, 81
1, 290746, Note_off_c, 0, 82, 65
1, 290746, Note_off_c, 0, 51, 44
1, 290767, Note_on_c, 0, 79, 79
1, 290797, Control_c, 0, 64, 81
1, 290826, Control_c, 0, 64, 82
1, 290835, Note_off_c, 0, 79, 53
1, 290843, Note_on_c, 0, 82, 93
1, 290862, Note_off_c, 0, 58, 57
1, 290871, Control_c, 0, 64, 82
1, 290893, Note_off_c, 0, 82, 63
1, 290989, Note_on_c, 0, 61, 93
1, 290995, Note_off_c, 0, 63, 64
1, 291149, Note_off_c, 0, 61, 63
1, 291152, Control_c, 0, 64, 81
1, 291160, Note_on_c, 0, 60, 80
1, 291162, Note_on_c, 0, 56, 74
1, 291167, Control_c, 0, 64, 73
1, 291182, Control_c, 0, 64, 43
1, 291183, Note_on_c, 0, 87, 92
1, 291196, Control_c, 0, 64, 0
1, 291248, Note_off_c, 0, 87, 62
1, 291258, Note_on_c, 0, 92, 89
1, 291285, Control_c, 0, 64, 64
1, 291300, Control_c, 0, 64, 69
1, 291315, Control_c, 0, 64, 73
1, 291331, Control_c, 0, 64, 79
1, 291337, Note_on_c, 0, 87, 86
1, 291346, Control_c, 0, 64, 82
1, 291347, Note_off_c, 0, 92, 65
1, 291360, Control_c, 0, 64, 84
1, 291375, Control_c, 0, 64, 85
1, 291390, Control_c, 0, 64, 86
1, 291392, Note_off_c, 0, 87, 64
1, 291407, Note_on_c, 0, 84, 76
1, 291430, Note_off_c, 0, 84, 69
1, 291449, Control_c, 0, 64, 84
1, 291464, Control_c, 0, 64, 77
1, 291468, Note_on_c, 0, 63, 98
1, 291476, Note_on_c, 0, 84, 81
1, 291479, Control_c, 0, 64, 63
1, 291494, Control_c, 0, 64, 0
1, 291557, Note_off_c, 0, 84, 58
1, 291560, Control_c, 0, 64, 57
1, 291564, Note_on_c, 0, 87, 81
1, 291575, Control_c, 0, 64, 67
1, 291590, Control_c, 0, 64, 72
1, 291605, Control_c, 0, 64, 75
1, 291620, Control_c, 0, 64, 78
1, 291632, Note_on_c, 0, 84, 86
1, 291633, Note_off_c, 0, 60, 60
1, 291633, Note_off_c, 0, 87, 63
1, 291634, Control_c, 0, 64, 80
1, 291649, Control_c, 0, 64, 81
1, 291664, Control_c, 0, 64, 82
1, 291679, Control_c, 0, 64, 82
1, 291691, Note_off_c, 0, 84, 63
1, 291694, Control_c, 0, 64, 83
1, 291704, Note_on_c, 0, 80, 89
1, 291708, Control_c, 0, 64, 83
1, 291777, Note_on_c, 0, 84, 93
1, 291779, Note_off_c, 0, 80, 65
1, 291797, Control_c, 0, 64, 84
1, 291859, Note_off_c, 0, 84, 57
1, 291908, Note_off_c, 0, 63, 57
1, 291916, Note_off_c, 0, 56, 63
1, 291922, Note_on_c, 0, 60, 91
1, 292049, Control_c, 0, 64, 84
1, 292124, Control_c, 0, 64, 83
1, 292139, Control_c, 0, 64, 72
1, 292149, Note_on_c, 0, 87, 94
1, 292154, Control_c, 0, 64, 0
1, 292157, Note_on_c, 0, 58, 81
1, 292162, Note_off_c, 0, 60, 60
1, 292163, Note_on_c, 0, 51, 73
1, 292228, Control_c, 0, 64, 41
1, 292243, Control_c, 0, 64, 66
1, 292265, Control_c, 0, 64, 71
1, 292276, Note_on_c, 0, 91, 87
1, 292277, Note_off_c, 0, 87, 64
1, 292280, Control_c, 0, 64, 75
1, 292295, Control_c, 0, 64, 79
1, 292309, Control_c, 0, 64, 82
1, 292324, Control_c, 0, 64, 82
1, 292339, Control_c, 0, 64, 83
1, 292347, Note_on_c, 0, 87, 87
1, 292352, Note_off_c, 0, 91, 62
1, 292354, Control_c, 0, 64, 84
1, 292369, Control_c, 0, 64, 84
1, 292383, Control_c, 0, 64, 86
1, 292398, Control_c, 0, 64, 87
1, 292410, Note_off_c, 0, 87, 63
1, 292413, Control_c, 0, 64, 88
1, 292421, Note_on_c, 0, 82, 83
1, 292450, Note_off_c, 0, 82, 64
1, 292472, Control_c, 0, 64, 83
1, 292487, Control_c, 0, 64, 69
1, 292489, Note_on_c, 0, 82, 83
1, 292495, Note_on_c, 0, 63, 102
1, 292501, Control_c, 0, 64, 0
1, 292549, Note_off_c, 0, 82, 63
1, 292561, Control_c, 0, 64, 54
1, 292569, Note_on_c, 0, 87, 79
1, 292575, Control_c, 0, 64, 68
1, 292590, Control_c, 0, 64, 71
1, 292605, Control_c, 0, 64, 74
1, 292620, Control_c, 0, 64, 76
1, 292635, Note_on_c, 0, 82, 85
1, 292635, Control_c, 0, 64, 77
1, 292638, Note_off_c, 0, 87, 63
1, 292650, Control_c, 0, 64, 79
1, 292665, Control_c, 0, 64, 81
1, 292679, Note_off_c, 0, 51, 32
1, 292680, Control_c, 0, 64, 82
1, 292692, Note_off_c, 0, 82, 64
1, 292694, Control_c, 0, 64, 82
1, 292698, Note_off_c, 0, 63, 53
1, 292700, Note_on_c, 0, 79, 83
1, 292709, Control_c, 0, 64, 83
1, 292724, Control_c, 0, 64, 83
1, 292754, Control_c, 0, 64, 84
1, 292764, Note_off_c, 0, 79, 53
1, 292770, Note_on_c, 0, 82, 102
1, 292783, Control_c, 0, 64, 84
1, 292810, Note_off_c, 0, 82, 66
1, 292813, Control_c, 0, 64, 85
1, 292857, Control_c, 0, 64, 85
1, 292900, Note_off_c, 0, 58, 61
1, 292948, Note_on_c, 0, 61, 98
1, 293118, Control_c, 0, 64, 86
1, 293148, Control_c, 0, 64, 86
1, 293163, Control_c, 0, 64, 87
1, 293177, Control_c, 0, 64, 88
1, 293192, Control_c, 0, 64, 88
1, 293252, Control_c, 0, 64, 88
1, 293265, Note_on_c, 0, 87, 107
1, 293267, Control_c, 0, 64, 83
1, 293274, Note_on_c, 0, 60, 93
1, 293277, Note_on_c, 0, 56, 82
1, 293282, Control_c, 0, 64, 71
1, 293296, Note_off_c, 0, 61, 59
1, 293297, Control_c, 0, 64, 0
1, 293451, Note_on_c, 0, 92, 96
1, 293463, Note_off_c, 0, 87, 62
1, 293474, Control_c, 0, 64, 63
1, 293489, Control_c, 0, 64, 64
1, 293504, Control_c, 0, 64, 65
1, 293519, Control_c, 0, 64, 68
1, 293533, Control_c, 0, 64, 73
1, 293548, Control_c, 0, 64, 79
1, 293552, Note_on_c, 0, 87, 87
1, 293563, Control_c, 0, 64, 84
1, 293575, Note_off_c, 0, 92, 62
1, 293578, Control_c, 0, 64, 87
1, 293593, Control_c, 0, 64, 88
1, 293607, Control_c, 0, 64, 89
1, 293612, Note_off_c, 0, 87, 61
1, 293622, Control_c, 0, 64, 90
1, 293635, Note_on_c, 0, 84, 75
1, 293637, Control_c, 0, 64, 91
1, 293657, Note_off_c, 0, 84, 71
1, 293666, Control_c, 0, 64, 91
1, 293704, Note_on_c, 0, 84, 84
1, 293711, Control_c, 0, 64, 92
1, 293727, Control_c, 0, 64, 92
1, 293764, Control_c, 0, 64, 93
1, 293779, Control_c, 0, 64, 94
1, 293790, Note_on_c, 0, 87, 83
1, 293791, Note_off_c, 0, 84, 61
1, 293794, Control_c, 0, 64, 94
1, 293809, Control_c, 0, 64, 96
1, 293823, Control_c, 0, 64, 97
1, 293838, Control_c, 0, 64, 98
1, 293853, Control_c, 0, 64, 99
1, 293860, Note_off_c, 0, 87, 63
1, 293864, Note_on_c, 0, 84, 82
1, 293868, Control_c, 0, 64, 100
1, 293883, Control_c, 0, 64, 100
1, 293897, Control_c, 0, 64, 101
1, 293923, Note_off_c, 0, 84, 63
1, 293927, Control_c, 0, 64, 101
1, 293940, Note_on_c, 0, 80, 79
1, 293964, Note_off_c, 0, 80, 66
1, 294007, Note_off_c, 0, 60, 52
1, 294012, Note_on_c, 0, 80, 82
1, 294037, Note_off_c, 0, 56, 55
1, 294083, Note_off_c, 0, 80, 64
1, 294086, Note_on_c, 0, 84, 79
1, 294159, Note_off_c, 0, 84, 66
1, 294160, Note_on_c, 0, 80, 86
1, 294216, Note_off_c, 0, 80, 63
1, 294223, Control_c, 0, 64, 102
1, 294234, Note_on_c, 0, 75, 79
1, 294257, Note_off_c, 0, 75, 70
1, 294297, Control_c, 0, 64, 99
1, 294306, Note_on_c, 0, 75, 87
1, 294312, Control_c, 0, 64, 90
1, 294327, Control_c, 0, 64, 75
1, 294342, Control_c, 0, 64, 60
1, 294356, Control_c, 0, 64, 18
1, 294371, Control_c, 0, 64, 56
1, 294375, Note_off_c, 0, 75, 60
1, 294380, Note_on_c, 0, 80, 85
1, 294386, Control_c, 0, 64, 67
1, 294401, Control_c, 0, 64, 72
1, 294416, Control_c, 0, 64, 78
1, 294430, Control_c, 0, 64, 80
1, 294445, Control_c, 0, 64, 81
1, 294453, Note_on_c, 0, 75, 84
1, 294460, Control_c, 0, 64, 82
1, 294462, Note_off_c, 0, 80, 62
1, 294474, Control_c, 0, 64, 83
1, 294489, Control_c, 0, 64, 83
1, 294512, Control_c, 0, 64, 84
1, 294526, Note_off_c, 0, 75, 64
1, 294528, Control_c, 0, 64, 84
1, 294538, Note_on_c, 0, 72, 73
1, 294558, Control_c, 0, 64, 85
1, 294561, Note_off_c, 0, 72, 71
1, 294602, Control_c, 0, 64, 85
1, 294608, Note_on_c, 0, 72, 82
1, 294646, Control_c, 0, 64, 86
1, 294654, Note_off_c, 0, 72, 58
1, 294661, Control_c, 0, 64, 86
1, 294676, Control_c, 0, 64, 87
1, 294679, Note_on_c, 0, 75, 78
1, 294691, Control_c, 0, 64, 88
1, 294705, Control_c, 0, 64, 89
1, 294720, Control_c, 0, 64, 91
1, 294734, Note_off_c, 0, 75, 65
1, 294735, Control_c, 0, 64, 92
1, 294745, Note_on_c, 0, 72, 85
1, 294750, Control_c, 0, 64, 93
1, 294779, Control_c, 0, 64, 93
1, 294795, Note_off_c, 0, 72, 65
1, 294809, Control_c, 0, 64, 94
1, 294814, Note_on_c, 0, 68, 79
1, 294843, Note_off_c, 0, 68, 66
1, 294886, Note_on_c, 0, 68, 80
1, 294959, Note_off_c, 0, 68, 63
1, 294960, Note_on_c, 0, 72, 80
1, 295032, Note_off_c, 0, 72, 66
1, 295033, Note_on_c, 0, 68, 81
1, 295076, Control_c, 0, 64, 94
1, 295085, Note_off_c, 0, 68, 64
1, 295091, Control_c, 0, 64, 95
1, 295103, Note_on_c, 0, 63, 75
1, 295105, Control_c, 0, 64, 96
1, 295120, Control_c, 0, 64, 98
1, 295128, Note_off_c, 0, 63, 70
1, 295135, Control_c, 0, 64, 98
1, 295165, Control_c, 0, 64, 95
1, 295179, Control_c, 0, 64, 83
1, 295193, Control_c, 0, 64, 65
1, 295208, Control_c, 0, 64, 0
1, 295236, Note_on_c, 0, 63, 104
1, 295236, Note_on_c, 0, 75, 90
1, 295260, Control_c, 0, 64, 66
1, 295273, Note_off_c, 0, 63, 66
1, 295275, Control_c, 0, 64, 76
1, 295290, Control_c, 0, 64, 87
1, 295304, Control_c, 0, 64, 93
1, 295319, Control_c, 0, 64, 94
1, 295325, Note_on_c, 0, 80, 79
1, 295330, Note_off_c, 0, 75, 64
1, 295350, Control_c, 0, 64, 94
1, 295418, Note_on_c, 0, 75, 74
1, 295422, Note_off_c, 0, 80, 61
1, 295471, Note_off_c, 0, 75, 64
1, 295493, Note_on_c, 0, 72, 65
1, 295519, Note_off_c, 0, 72, 69
1, 295574, Note_on_c, 0, 72, 79
1, 295576, Note_on_c, 0, 60, 99
1, 295619, Note_off_c, 0, 60, 64
1, 295655, Note_off_c, 0, 72, 64
1, 295663, Note_on_c, 0, 75, 72
1, 295732, Note_off_c, 0, 75, 64
1, 295738, Note_on_c, 0, 72, 77
1, 295794, Control_c, 0, 64, 95
1, 295795, Note_off_c, 0, 72, 63
1, 295809, Control_c, 0, 64, 96
1, 295821, Note_on_c, 0, 68, 72
1, 295824, Control_c, 0, 64, 97
1, 295846, Note_off_c, 0, 68, 69
1, 295868, Control_c, 0, 64, 92
1, 295883, Control_c, 0, 64, 80
1, 295894, Note_on_c, 0, 56, 92
1, 295898, Control_c, 0, 64, 61
1, 295904, Note_on_c, 0, 68, 89
1, 295912, Control_c, 0, 64, 0
1, 295955, Note_off_c, 0, 56, 63
1, 295957, Control_c, 0, 64, 66
1, 295972, Control_c, 0, 64, 74
1, 295976, Note_off_c, 0, 68, 64
1, 295981, Note_on_c, 0, 72, 80
1, 295987, Control_c, 0, 64, 82
1, 296009, Control_c, 0, 64, 86
1, 296024, Control_c, 0, 64, 87
1, 296039, Control_c, 0, 64, 88
1, 296053, Control_c, 0, 64, 88
1, 296064, Note_on_c, 0, 68, 79
1, 296067, Note_off_c, 0, 72, 63
1, 296068, Control_c, 0, 64, 89
1, 296083, Control_c, 0, 64, 90
1, 296098, Control_c, 0, 64, 92
1, 296113, Control_c, 0, 64, 96
1, 296126, Note_off_c, 0, 68, 62
1, 296128, Control_c, 0, 64, 100
1, 296139, Note_on_c, 0, 63, 79
1, 296143, Control_c, 0, 64, 101
1, 296171, Note_off_c, 0, 63, 63
1, 296173, Control_c, 0, 64, 101
1, 296188, Control_c, 0, 64, 98
1, 296203, Control_c, 0, 64, 88
1, 296218, Control_c, 0, 64, 68
1, 296221, Note_on_c, 0, 63, 80
1, 296223, Note_on_c, 0, 51, 96
1, 296232, Control_c, 0, 64, 0
1, 296277, Control_c, 0, 64, 54
1, 296292, Control_c, 0, 64, 70
1, 296304, Note_on_c, 0, 68, 81
1, 296305, Note_off_c, 0, 63, 64
1, 296306, Control_c, 0, 64, 78
1, 296321, Control_c, 0, 64, 83
1, 296336, Control_c, 0, 64, 84
1, 296361, Note_off_c, 0, 51, 57
1, 296365, Control_c, 0, 64, 85
1, 296380, Control_c, 0, 64, 85
1, 296391, Note_on_c, 0, 63, 77
1, 296395, Control_c, 0, 64, 86
1, 296400, Note_off_c, 0, 68, 59
1, 296410, Control_c, 0, 64, 88
1, 296424, Control_c, 0, 64, 91
1, 296439, Control_c, 0, 64, 93
1, 296448, Note_off_c, 0, 63, 64
1, 296454, Control_c, 0, 64, 94
1, 296459, Note_on_c, 0, 60, 76
1, 296483, Control_c, 0, 64, 94
1, 296485, Note_off_c, 0, 60, 66
1, 296498, Control_c, 0, 64, 89
1, 296513, Control_c, 0, 64, 76
1, 296528, Control_c, 0, 64, 0
1, 296544, Note_on_c, 0, 48, 93
1, 296546, Note_on_c, 0, 60, 83
1, 296602, Control_c, 0, 64, 57
1, 296612, Note_off_c, 0, 60, 58
1, 296617, Control_c, 0, 64, 69
1, 296618, Note_on_c, 0, 63, 78
1, 296632, Control_c, 0, 64, 75
1, 296647, Control_c, 0, 64, 80
1, 296661, Control_c, 0, 64, 82
1, 296676, Control_c, 0, 64, 83
1, 296692, Control_c, 0, 64, 85
1, 296702, Note_on_c, 0, 60, 78
1, 296705, Note_off_c, 0, 63, 63
1, 296707, Control_c, 0, 64, 89
1, 296722, Control_c, 0, 64, 93
1, 296743, Control_c, 0, 64, 96
1, 296758, Control_c, 0, 64, 97
1, 296776, Note_off_c, 0, 60, 61
1, 296784, Note_on_c, 0, 56, 81
1, 296818, Control_c, 0, 64, 92
1, 296832, Control_c, 0, 64, 77
1, 296847, Control_c, 0, 64, 0
1, 296853, Note_on_c, 0, 51, 88
1, 296856, Note_off_c, 0, 56, 62
1, 296859, Note_on_c, 0, 63, 91
1, 296861, Note_off_c, 0, 48, 0
1, 296916, Poly_aftertouch_c, 0, 48, 0
1, 296922, Control_c, 0, 64, 38
1, 296937, Note_on_c, 0, 68, 88
1, 296937, Control_c, 0, 64, 69
1, 296938, Note_off_c, 0, 63, 64
1, 296952, Control_c, 0, 64, 76
1, 296967, Control_c, 0, 64, 81
1, 296981, Control_c, 0, 64, 83
1, 296996, Control_c, 0, 64, 84
1, 297011, Control_c, 0, 64, 85
1, 297015, Note_on_c, 0, 63, 85
1, 297026, Note_off_c, 0, 51, 52
1, 297026, Control_c, 0, 64, 86
1, 297033, Note_off_c, 0, 68, 61
1, 297041, Control_c, 0, 64, 87
1, 297056, Control_c, 0, 64, 88
1, 297092, Note_on_c, 0, 60, 82
1, 297100, Control_c, 0, 64, 87
1, 297115, Control_c, 0, 64, 82
1, 297130, Control_c, 0, 64, 68
1, 297140, Note_off_c, 0, 63, 55
1, 297145, Control_c, 0, 64, 0
1, 297187, Note_on_c, 0, 56, 102
1, 297193, Note_on_c, 0, 44, 89
1, 297221, Note_off_c, 0, 60, 58
1, 297263, Control_c, 0, 64, 76
1, 297278, Control_c, 0, 64, 81
1, 297292, Control_c, 0, 64, 82
1, 297318, Note_off_c, 0, 56, 58
1, 297322, Control_c, 0, 64, 83
1, 297337, Control_c, 0, 64, 84
1, 297352, Control_c, 0, 64, 85
1, 297366, Control_c, 0, 64, 86
1, 297369, Note_off_c, 0, 44, 54
1, 297440, Control_c, 0, 64, 86
1, 297699, Control_c, 0, 64, 86
1, 297849, Control_c, 0, 64, 85
1, 297864, Control_c, 0, 64, 85
1, 297878, Control_c, 0, 64, 84
1, 297893, Control_c, 0, 64, 83
1, 297908, Control_c, 0, 64, 83
1, 297923, Control_c, 0, 64, 81
1, 297938, Control_c, 0, 64, 80
1, 297953, Control_c, 0, 64, 77
1, 297968, Control_c, 0, 64, 72
1, 297983, Control_c, 0, 64, 66
1, 297997, Control_c, 0, 64, 55
1, 298012, Control_c, 0, 64, 0
1, 298360, Control_c, 0, 64, 39
1, 298375, Control_c, 0, 64, 50
1, 298390, Control_c, 0, 64, 56
1, 298404, Control_c, 0, 64, 60
1, 298419, Control_c, 0, 64, 62
1, 298434, Control_c, 0, 64, 64
1, 298448, Control_c, 0, 64, 65
1, 298463, Control_c, 0, 64, 67
1, 298478, Control_c, 0, 64, 69
1, 298493, Control_c, 0, 64, 71
1, 298508, Control_c, 0, 64, 75
1, 298524, Control_c, 0, 64, 79
1, 298538, Control_c, 0, 64, 83
1, 298553, Control_c, 0, 64, 86
1, 298564, Note_on_c, 0, 87, 97
1, 298568, Control_c, 0, 64, 88
1, 298569, Note_on_c, 0, 75, 91
1, 298570, Note_on_c, 0, 82, 86
1, 298572, Note_on_c, 0, 79, 82
1, 298576, Note_on_c, 0, 51, 78
1, 298576, Note_on_c, 0, 39, 78
1, 298583, Control_c, 0, 64, 90
1, 298598, Control_c, 0, 64, 91
1, 298612, Control_c, 0, 64, 91
1, 298627, Control_c, 0, 64, 92
1, 298642, Control_c, 0, 64, 92
1, 298664, Note_off_c, 0, 39, 46
1, 298672, Control_c, 0, 64, 93
1, 298683, Note_off_c, 0, 75, 56
1, 298687, Note_off_c, 0, 87, 60
1, 298722, Note_off_c, 0, 79, 52
1, 298731, Note_off_c, 0, 51, 36
1, 298763, Note_off_c, 0, 82, 57
1, 299346, Control_c, 0, 64, 92
1, 299375, Control_c, 0, 64, 92
1, 299390, Control_c, 0, 64, 91
1, 299405, Control_c, 0, 64, 90
1, 299420, Control_c, 0, 64, 88
1, 299434, Control_c, 0, 64, 87
1, 299449, Control_c, 0, 64, 84
1, 299464, Control_c, 0, 64, 79
1, 299479, Control_c, 0, 64, 75
1, 299494, Control_c, 0, 64, 70
1, 299509, Control_c, 0, 64, 65
1, 299524, Control_c, 0, 64, 60
1, 299539, Control_c, 0, 64, 57
1, 299554, Control_c, 0, 64, 54
1, 299568, Control_c, 0, 64, 48
1, 299583, Control_c, 0, 64, 33
1, 299598, Control_c, 0, 64, 0
1, 299828, Control_c, 0, 64, 23
1, 299843, Control_c, 0, 64, 48
1, 299858, Control_c, 0, 64, 55
1, 299873, Control_c, 0, 64, 59
1, 299887, Control_c, 0, 64, 61
1, 299902, Control_c, 0, 64, 63
1, 299917, Control_c, 0, 64, 64
1, 299932, Control_c, 0, 64, 66
1, 299947, Control_c, 0, 64, 67
1, 299962, Control_c, 0, 64, 69
1, 299976, Control_c, 0, 64, 70
1, 299991, Control_c, 0, 64, 72
1, 300006, Control_c, 0, 64, 74
1, 300020, Control_c, 0, 64, 76
1, 300035, Control_c, 0, 64, 78
1, 300050, Control_c, 0, 64, 80
1, 300065, Control_c, 0, 64, 81
1, 300080, Control_c, 0, 64, 82
1, 300094, Control_c, 0, 64, 83
1, 300109, Control_c, 0, 64, 84
1, 300125, Control_c, 0, 64, 84
1, 300140, Control_c, 0, 64, 85
1, 300155, Control_c, 0, 64, 85
1, 300170, Control_c, 0, 64, 86
1, 300199, Control_c, 0, 64, 86
1, 300214, Control_c, 0, 64, 87
1, 300229, Control_c, 0, 64, 88
1, 300244, Control_c, 0, 64, 89
1, 300258, Control_c, 0, 64, 91
1, 300273, Control_c, 0, 64, 91
1, 300288, Control_c, 0, 64, 92
1, 300303, Control_c, 0, 64, 93
1, 300309, Note_on_c, 0, 72, 100
1, 300309, Note_on_c, 0, 84, 98
1, 300311, Note_on_c, 0, 75, 89
1, 300311, Note_on_c, 0, 80, 88
1, 300319, Note_on_c, 0, 44, 83
1, 300320, Note_on_c, 0, 32, 81
1, 300332, Control_c, 0, 64, 93
1, 300358, Note_off_c, 0, 72, 52
1, 300362, Control_c, 0, 64, 94
1, 300377, Control_c, 0, 64, 94
1, 300382, Note_off_c, 0, 32, 60
1, 300385, Note_off_c, 0, 84, 60
1, 300390, Note_off_c, 0, 44, 58
1, 300406, Control_c, 0, 64, 95
1, 300413, Note_off_c, 0, 75, 60
1, 300436, Note_off_c, 0, 80, 59
1, 300436, Control_c, 0, 64, 95
1, 300466, Control_c, 0, 64, 96
1, 300606, Control_c, 0, 64, 96
1, 301444, Control_c, 0, 64, 96
1, 301563, Control_c, 0, 64, 95
1, 301578, Control_c, 0, 64, 95
1, 301592, Control_c, 0, 64, 94
1, 301607, Control_c, 0, 64, 94
1, 301622, Control_c, 0, 64, 93
1, 301652, Control_c, 0, 64, 93
1, 301666, Control_c, 0, 64, 92
1, 301681, Control_c, 0, 64, 91
1, 301696, Control_c, 0, 64, 90
1, 301712, Control_c, 0, 64, 89
1, 301727, Control_c, 0, 64, 89
1, 301742, Control_c, 0, 64, 88
1, 301756, Control_c, 0, 64, 87
1, 301771, Control_c, 0, 64, 86
1, 301786, Control_c, 0, 64, 85
1, 301801, Control_c, 0, 64, 84
1, 301816, Control_c, 0, 64, 84
1, 301831, Control_c, 0, 64, 83
1, 301845, Control_c, 0, 64, 82
1, 301860, Control_c, 0, 64, 81
1, 301875, Control_c, 0, 64, 79
1, 301889, Control_c, 0, 64, 78
1, 301904, Control_c, 0, 64, 76
1, 301919, Control_c, 0, 64, 74
1, 301934, Control_c, 0, 64, 73
1, 301949, Control_c, 0, 64, 71
1, 301963, Control_c, 0, 64, 69
1, 301978, Control_c, 0, 64, 68
1, 302001, Control_c, 0, 64, 68
1, 302016, Control_c, 0, 64, 67
1, 302031, Control_c, 0, 64, 67
1, 302045, Control_c, 0, 64, 66
1, 302060, Control_c, 0, 64, 65
1, 302075, Control_c, 0, 64, 64
1, 302089, Control_c, 0, 64, 64
1, 302104, Control_c, 0, 64, 63
1, 302119, Control_c, 0, 64, 62
1, 302134, Control_c, 0, 64, 61
1, 302149, Control_c, 0, 64, 60
1, 302163, Control_c, 0, 64, 59
1, 302178, Control_c, 0, 64, 58
1, 302193, Control_c, 0, 64, 57
1, 302208, Control_c, 0, 64, 54
1, 302223, Control_c, 0, 64, 51
1, 302237, Control_c, 0, 64, 45
1, 302252, Control_c, 0, 64, 41
1, 302267, Control_c, 0, 64, 36
1, 302281, Control_c, 0, 64, 31
1, 302296, Control_c, 0, 64, 27
1, 302311, Control_c, 0, 64, 20
1, 302326, Control_c, 0, 64, 0
1, 302326, End_track
0, 0, End_of_file
