0, 0, Header, 0, 1, 384
1, 0, Start_track
1, 0, Title_t, "Sonata in A D959--Claire Huangci"
1, 0, Text_t, "2006 International Piano-e-Competition Schubert Sonata Round"
1, 0, Text_t, "St. Paul, Minnesota, July 8, 2006"
1, 0, Text_t, "http://www.piano-e-competition.com/"
1, 0, Instrument_name_t, "Yamaha Disklavier Pro Mark IV concert grand piano"
1, 0, Sequencer_specific, 39, 67, 113, 0, 1, 0, 1, 0, 83, 111, 110, 97, 116, 97, 32, 105, 110, 32, 65, 32, 68, 57, 53, 57, 67, 108, 97, 105, 114, 101, 32, 72, 117, 97, 110, 103, 99, 105, 32, 32
1, 0, Sequencer_specific, 6, 67, 113, 0, 0, 0, 69
1, 0, System_exclusive, 21, 67, 113, 126, 21, 0, 2, 2, 0, 10, 10, 12, 4, 4, 11, 0, 4, 7, 8, 0, 3, 247
1, 0, Sequencer_specific, 5, 67, 123, 12, 2, 1
1, 0, Tempo, 512820
1, 0, Time_signature, 4, 2, 24, 8
1, 0, System_exclusive, 5, 126, 127, 9, 1, 247
1, 1, System_exclusive, 8, 67, 16, 76, 0, 0, 126, 0, 247
1, 2, System_exclusive, 8, 67, 16, 76, 8, 9, 7, 1, 247
1, 3, Control_c, 0, 0, 0
1, 4, Control_c, 0, 32, 0
1, 5, Program_c, 0, 0
1, 6, Control_c, 0, 7, 100
1, 95, Control_c, 0, 64, 15
1, 184, Control_c, 0, 64, 31
1, 273, Control_c, 0, 64, 46
1, 362, Control_c, 0, 64, 63
1, 452, Control_c, 0, 64, 77
1, 541, Control_c, 0, 64, 94
1, 630, Control_c, 0, 64, 108
1, 719, Control_c, 0, 64, 127
1, 905, Note_on_c, 0, 61, 78
1, 905, Note_on_c, 0, 69, 88
1, 907, Note_on_c, 0, 57, 91
1, 908, Note_on_c, 0, 49, 88
1, 917, Note_on_c, 0, 45, 84
1, 951, Note_off_c, 0, 45, 70
1, 959, Note_off_c, 0, 49, 66
1, 1146, Control_c, 0, 64, 89
1, 1161, Control_c, 0, 64, 72
1, 1176, Control_c, 0, 64, 55
1, 1191, Control_c, 0, 64, 0
1, 1325, Control_c, 0, 64, 44
1, 1340, Control_c, 0, 64, 60
1, 1355, Control_c, 0, 64, 67
1, 1370, Control_c, 0, 64, 76
1, 1382, Note_on_c, 0, 33, 100
1, 1385, Control_c, 0, 64, 90
1, 1399, Control_c, 0, 64, 127
1, 1424, Note_off_c, 0, 33, 65
1, 1806, Control_c, 0, 64, 119
1, 1821, Control_c, 0, 64, 94
1, 1836, Control_c, 0, 64, 79
1, 1851, Control_c, 0, 64, 68
1, 1866, Control_c, 0, 64, 58
1, 1880, Control_c, 0, 64, 37
1, 1895, Control_c, 0, 64, 0
1, 2296, Control_c, 0, 64, 38
1, 2311, Control_c, 0, 64, 57
1, 2326, Control_c, 0, 64, 65
1, 2337, Note_on_c, 0, 49, 94
1, 2341, Control_c, 0, 64, 71
1, 2342, Note_off_c, 0, 57, 61
1, 2356, Control_c, 0, 64, 77
1, 2356, Note_on_c, 0, 45, 74
1, 2362, Note_off_c, 0, 61, 58
1, 2370, Control_c, 0, 64, 83
1, 2385, Control_c, 0, 64, 90
1, 2391, Note_off_c, 0, 45, 62
1, 2395, Note_off_c, 0, 69, 52
1, 2400, Control_c, 0, 64, 95
1, 2427, Note_off_c, 0, 49, 58
1, 2467, Control_c, 0, 64, 94
1, 2481, Control_c, 0, 64, 82
1, 2496, Control_c, 0, 64, 67
1, 2511, Control_c, 0, 64, 43
1, 2526, Control_c, 0, 64, 0
1, 2547, Note_on_c, 0, 50, 101
1, 2554, Note_on_c, 0, 62, 89
1, 2554, Note_on_c, 0, 69, 96
1, 2556, Note_on_c, 0, 47, 83
1, 2556, Note_on_c, 0, 59, 89
1, 2557, Note_on_c, 0, 57, 96
1, 2570, Control_c, 0, 64, 54
1, 2576, Note_off_c, 0, 50, 64
1, 2585, Control_c, 0, 64, 76
1, 2589, Note_off_c, 0, 47, 69
1, 2600, Control_c, 0, 64, 127
1, 2881, Control_c, 0, 64, 102
1, 2896, Control_c, 0, 64, 74
1, 2911, Control_c, 0, 64, 53
1, 2926, Control_c, 0, 64, 0
1, 2971, Control_c, 0, 64, 60
1, 2972, Note_on_c, 0, 33, 105
1, 2985, Control_c, 0, 64, 80
1, 3000, Control_c, 0, 64, 127
1, 3013, Note_off_c, 0, 33, 65
1, 3394, Control_c, 0, 64, 120
1, 3409, Control_c, 0, 64, 94
1, 3423, Control_c, 0, 64, 78
1, 3438, Control_c, 0, 64, 64
1, 3453, Control_c, 0, 64, 40
1, 3468, Control_c, 0, 64, 0
1, 3765, Control_c, 0, 64, 36
1, 3780, Control_c, 0, 64, 52
1, 3794, Control_c, 0, 64, 57
1, 3809, Control_c, 0, 64, 58
1, 3813, Note_off_c, 0, 62, 56
1, 3815, Note_on_c, 0, 50, 89
1, 3821, Note_off_c, 0, 59, 41
1, 3822, Note_off_c, 0, 57, 39
1, 3824, Control_c, 0, 64, 59
1, 3825, Note_on_c, 0, 47, 78
1, 3874, Note_off_c, 0, 69, 39
1, 3876, Note_off_c, 0, 47, 55
1, 3898, Control_c, 0, 64, 59
1, 3906, Note_off_c, 0, 50, 60
1, 3927, Control_c, 0, 64, 59
1, 3948, Control_c, 0, 64, 56
1, 3963, Control_c, 0, 64, 41
1, 3978, Control_c, 0, 64, 0
1, 4011, Note_on_c, 0, 52, 100
1, 4017, Note_on_c, 0, 57, 95
1, 4020, Note_on_c, 0, 49, 85
1, 4020, Note_on_c, 0, 61, 85
1, 4021, Note_on_c, 0, 64, 79
1, 4022, Note_on_c, 0, 69, 84
1, 4033, Note_off_c, 0, 52, 68
1, 4038, Control_c, 0, 64, 36
1, 4048, Note_off_c, 0, 49, 69
1, 4052, Control_c, 0, 64, 68
1, 4067, Control_c, 0, 64, 99
1, 4082, Control_c, 0, 64, 127
1, 4348, Control_c, 0, 64, 88
1, 4363, Control_c, 0, 64, 63
1, 4365, Note_on_c, 0, 33, 100
1, 4378, Control_c, 0, 64, 48
1, 4392, Control_c, 0, 64, 58
1, 4407, Control_c, 0, 64, 67
1, 4411, Note_off_c, 0, 33, 64
1, 4422, Control_c, 0, 64, 85
1, 4437, Control_c, 0, 64, 127
1, 4458, Note_off_c, 0, 57, 60
1, 4475, Note_off_c, 0, 61, 57
1, 4488, Note_off_c, 0, 64, 59
1, 4496, Note_off_c, 0, 69, 58
1, 4723, Note_on_c, 0, 54, 62
1, 4727, Control_c, 0, 64, 99
1, 4731, Note_on_c, 0, 69, 79
1, 4732, Note_on_c, 0, 57, 76
1, 4732, Note_on_c, 0, 62, 72
1, 4735, Note_on_c, 0, 50, 54
1, 4737, Note_on_c, 0, 66, 74
1, 4741, Control_c, 0, 64, 75
1, 4756, Control_c, 0, 64, 60
1, 4771, Control_c, 0, 64, 49
1, 4786, Control_c, 0, 64, 57
1, 4801, Control_c, 0, 64, 64
1, 4816, Control_c, 0, 64, 75
1, 4830, Control_c, 0, 64, 101
1, 4845, Control_c, 0, 64, 127
1, 4853, Note_off_c, 0, 62, 61
1, 4863, Note_off_c, 0, 54, 62
1, 4868, Note_off_c, 0, 50, 60
1, 4879, Note_off_c, 0, 66, 60
1, 4885, Note_off_c, 0, 57, 62
1, 4890, Note_off_c, 0, 69, 59
1, 4896, Note_on_c, 0, 45, 87
1, 5038, Control_c, 0, 64, 91
1, 5041, Note_on_c, 0, 57, 98
1, 5042, Note_on_c, 0, 69, 94
1, 5043, Note_on_c, 0, 55, 91
1, 5044, Note_on_c, 0, 52, 85
1, 5045, Note_on_c, 0, 64, 83
1, 5049, Note_on_c, 0, 67, 82
1, 5053, Control_c, 0, 64, 65
1, 5068, Control_c, 0, 64, 50
1, 5078, Note_off_c, 0, 45, 63
1, 5082, Control_c, 0, 64, 53
1, 5097, Control_c, 0, 64, 62
1, 5112, Control_c, 0, 64, 73
1, 5127, Control_c, 0, 64, 110
1, 5141, Control_c, 0, 64, 127
1, 5158, Note_off_c, 0, 64, 60
1, 5161, Note_off_c, 0, 55, 61
1, 5173, Note_on_c, 0, 45, 93
1, 5176, Note_off_c, 0, 52, 64
1, 5177, Note_off_c, 0, 67, 62
1, 5179, Note_off_c, 0, 69, 59
1, 5182, Note_off_c, 0, 57, 58
1, 5390, Note_on_c, 0, 69, 82
1, 5391, Note_on_c, 0, 57, 74
1, 5398, Note_on_c, 0, 66, 81
1, 5400, Note_on_c, 0, 62, 68
1, 5406, Note_on_c, 0, 54, 64
1, 5410, Control_c, 0, 64, 88
1, 5418, Note_on_c, 0, 50, 58
1, 5420, Note_off_c, 0, 45, 57
1, 5425, Control_c, 0, 64, 66
1, 5447, Control_c, 0, 64, 33
1, 5462, Control_c, 0, 64, 0
1, 5507, Control_c, 0, 64, 40
1, 5521, Control_c, 0, 64, 63
1, 5536, Control_c, 0, 64, 73
1, 5551, Control_c, 0, 64, 88
1, 5565, Control_c, 0, 64, 107
1, 5580, Control_c, 0, 64, 127
1, 5599, Note_off_c, 0, 62, 59
1, 5608, Note_off_c, 0, 54, 54
1, 5637, Note_off_c, 0, 57, 53
1, 5637, Note_off_c, 0, 69, 49
1, 5658, Note_off_c, 0, 66, 55
1, 5741, Note_off_c, 0, 50, 51
1, 5772, Control_c, 0, 64, 125
1, 5787, Control_c, 0, 64, 93
1, 5799, Note_on_c, 0, 69, 64
1, 5802, Control_c, 0, 64, 75
1, 5805, Note_on_c, 0, 52, 40
1, 5810, Note_on_c, 0, 49, 47
1, 5811, Note_on_c, 0, 61, 53
1, 5812, Note_on_c, 0, 57, 53
1, 5816, Note_on_c, 0, 64, 52
1, 5817, Control_c, 0, 64, 60
1, 5832, Control_c, 0, 64, 0
1, 5862, Control_c, 0, 64, 37
1, 5877, Control_c, 0, 64, 57
1, 5892, Control_c, 0, 64, 67
1, 5906, Control_c, 0, 64, 77
1, 5921, Control_c, 0, 64, 88
1, 5936, Control_c, 0, 64, 96
1, 5950, Note_off_c, 0, 49, 59
1, 5951, Control_c, 0, 64, 99
1, 5977, Note_off_c, 0, 64, 52
1, 5980, Control_c, 0, 64, 102
1, 5988, Note_off_c, 0, 61, 40
1, 5991, Note_off_c, 0, 57, 52
1, 6007, Note_off_c, 0, 69, 36
1, 6010, Control_c, 0, 64, 106
1, 6025, Control_c, 0, 64, 110
1, 6039, Control_c, 0, 64, 125
1, 6054, Control_c, 0, 64, 127
1, 6115, Control_c, 0, 64, 111
1, 6129, Control_c, 0, 64, 88
1, 6144, Control_c, 0, 64, 72
1, 6159, Control_c, 0, 64, 58
1, 6161, Note_on_c, 0, 61, 50
1, 6163, Note_on_c, 0, 69, 52
1, 6164, Note_on_c, 0, 49, 32
1, 6164, Note_off_c, 0, 52, 41
1, 6172, Note_on_c, 0, 57, 39
1, 6174, Control_c, 0, 64, 53
1, 6190, Note_on_c, 0, 45, 32
1, 6196, Control_c, 0, 64, 58
1, 6211, Control_c, 0, 64, 63
1, 6225, Control_c, 0, 64, 71
1, 6238, Note_off_c, 0, 57, 58
1, 6240, Control_c, 0, 64, 84
1, 6255, Control_c, 0, 64, 110
1, 6258, Note_off_c, 0, 69, 57
1, 6267, Note_off_c, 0, 61, 55
1, 6270, Control_c, 0, 64, 127
1, 6299, Note_off_c, 0, 45, 37
1, 6315, Note_off_c, 0, 49, 37
1, 6334, Note_on_c, 0, 50, 65
1, 6336, Note_on_c, 0, 47, 57
1, 6342, Note_on_c, 0, 62, 77
1, 6344, Note_on_c, 0, 59, 73
1, 6347, Note_on_c, 0, 69, 77
1, 6407, Note_off_c, 0, 59, 59
1, 6407, Note_off_c, 0, 62, 58
1, 6422, Note_off_c, 0, 69, 59
1, 6455, Note_off_c, 0, 47, 60
1, 6459, Note_off_c, 0, 50, 59
1, 6477, Control_c, 0, 64, 94
1, 6490, Note_on_c, 0, 45, 84
1, 6492, Note_on_c, 0, 49, 78
1, 6492, Control_c, 0, 64, 70
1, 6497, Note_on_c, 0, 57, 87
1, 6498, Note_on_c, 0, 61, 85
1, 6502, Note_on_c, 0, 69, 82
1, 6507, Control_c, 0, 64, 53
1, 6521, Control_c, 0, 64, 47
1, 6536, Control_c, 0, 64, 56
1, 6551, Control_c, 0, 64, 67
1, 6558, Note_off_c, 0, 57, 61
1, 6566, Control_c, 0, 64, 83
1, 6574, Note_off_c, 0, 69, 61
1, 6581, Note_off_c, 0, 61, 61
1, 6581, Control_c, 0, 64, 127
1, 6586, Note_off_c, 0, 45, 58
1, 6610, Note_off_c, 0, 49, 61
1, 6639, Note_on_c, 0, 50, 91
1, 6640, Note_on_c, 0, 62, 97
1, 6642, Note_on_c, 0, 47, 80
1, 6646, Note_on_c, 0, 69, 90
1, 6648, Note_on_c, 0, 59, 81
1, 6678, Poly_aftertouch_c, 0, 49, 127
1, 6687, Note_off_c, 0, 59, 44
1, 6725, Poly_aftertouch_c, 0, 49, 0
1, 6729, Note_off_c, 0, 69, 53
1, 6731, Note_off_c, 0, 62, 58
1, 6836, Note_on_c, 0, 64, 86
1, 6838, Note_on_c, 0, 49, 79
1, 6840, Note_on_c, 0, 69, 86
1, 6841, Note_on_c, 0, 52, 82
1, 6842, Note_on_c, 0, 61, 91
1, 6853, Note_off_c, 0, 50, 58
1, 6872, Note_off_c, 0, 47, 62
1, 6892, Control_c, 0, 64, 87
1, 6907, Control_c, 0, 64, 66
1, 6922, Control_c, 0, 64, 36
1, 6944, Control_c, 0, 64, 0
1, 7018, Control_c, 0, 64, 35
1, 7033, Control_c, 0, 64, 55
1, 7048, Control_c, 0, 64, 66
1, 7063, Control_c, 0, 64, 73
1, 7078, Control_c, 0, 64, 81
1, 7092, Control_c, 0, 64, 92
1, 7102, Note_off_c, 0, 52, 55
1, 7107, Control_c, 0, 64, 112
1, 7122, Control_c, 0, 64, 127
1, 7139, Note_off_c, 0, 69, 58
1, 7203, Note_off_c, 0, 61, 56
1, 7309, Note_off_c, 0, 64, 54
1, 7326, Note_off_c, 0, 49, 37
1, 7603, Note_on_c, 0, 69, 90
1, 7605, Note_on_c, 0, 57, 87
1, 7612, Note_on_c, 0, 54, 81
1, 7613, Note_on_c, 0, 62, 78
1, 7613, Note_on_c, 0, 66, 82
1, 7618, Note_on_c, 0, 50, 76
1, 7654, Control_c, 0, 64, 105
1, 7669, Control_c, 0, 64, 74
1, 7692, Control_c, 0, 64, 55
1, 7707, Control_c, 0, 64, 0
1, 7737, Control_c, 0, 64, 36
1, 7752, Control_c, 0, 64, 57
1, 7767, Control_c, 0, 64, 68
1, 7782, Control_c, 0, 64, 81
1, 7796, Control_c, 0, 64, 127
1, 7904, Note_off_c, 0, 50, 60
1, 7906, Note_off_c, 0, 54, 59
1, 7922, Note_off_c, 0, 57, 62
1, 7924, Note_off_c, 0, 69, 62
1, 7965, Note_off_c, 0, 62, 59
1, 7977, Note_off_c, 0, 66, 59
1, 8474, Note_on_c, 0, 69, 83
1, 8488, Note_on_c, 0, 64, 65
1, 8490, Note_on_c, 0, 57, 62
1, 8494, Note_on_c, 0, 62, 60
1, 8497, Note_on_c, 0, 47, 49
1, 8498, Note_on_c, 0, 52, 48
1, 8499, Note_on_c, 0, 50, 45
1, 8500, Control_c, 0, 64, 88
1, 8508, Note_on_c, 0, 40, 35
1, 8516, Control_c, 0, 64, 67
1, 8531, Control_c, 0, 64, 43
1, 8546, Control_c, 0, 64, 0
1, 8561, Control_c, 0, 64, 33
1, 8576, Control_c, 0, 64, 52
1, 8590, Control_c, 0, 64, 64
1, 8605, Control_c, 0, 64, 74
1, 8620, Control_c, 0, 64, 86
1, 8635, Control_c, 0, 64, 95
1, 8650, Control_c, 0, 64, 100
1, 8664, Control_c, 0, 64, 102
1, 8677, Note_off_c, 0, 57, 61
1, 8679, Control_c, 0, 64, 104
1, 8691, Note_off_c, 0, 69, 58
1, 8694, Control_c, 0, 64, 108
1, 8709, Control_c, 0, 64, 115
1, 8723, Control_c, 0, 64, 127
1, 8843, Control_c, 0, 64, 90
1, 8857, Control_c, 0, 64, 72
1, 8872, Control_c, 0, 64, 62
1, 8887, Control_c, 0, 64, 57
1, 8901, Control_c, 0, 64, 60
1, 8905, Note_on_c, 0, 68, 73
1, 8916, Control_c, 0, 64, 64
1, 8918, Note_on_c, 0, 56, 48
1, 8931, Control_c, 0, 64, 71
1, 8946, Control_c, 0, 64, 85
1, 8961, Control_c, 0, 64, 101
1, 8975, Control_c, 0, 64, 127
1, 8985, Note_off_c, 0, 56, 51
1, 9004, Note_off_c, 0, 68, 63
1, 9099, Note_on_c, 0, 66, 80
1, 9108, Note_on_c, 0, 54, 55
1, 9150, Note_off_c, 0, 54, 62
1, 9204, Note_off_c, 0, 66, 61
1, 9368, Note_on_c, 0, 68, 68
1, 9384, Control_c, 0, 64, 99
1, 9388, Note_on_c, 0, 56, 40
1, 9399, Control_c, 0, 64, 78
1, 9413, Control_c, 0, 64, 63
1, 9428, Control_c, 0, 64, 0
1, 9454, Note_off_c, 0, 56, 0
1, 9454, Note_on_c, 0, 56, 5
1, 9487, Control_c, 0, 64, 35
1, 9502, Control_c, 0, 64, 56
1, 9517, Control_c, 0, 64, 65
1, 9531, Control_c, 0, 64, 71
1, 9546, Control_c, 0, 64, 79
1, 9561, Control_c, 0, 64, 85
1, 9573, Note_off_c, 0, 40, 40
1, 9576, Control_c, 0, 64, 89
1, 9591, Control_c, 0, 64, 94
1, 9606, Control_c, 0, 64, 100
1, 9621, Control_c, 0, 64, 109
1, 9621, Control_c, 0, 67, 20
1, 9627, Note_off_c, 0, 47, 52
1, 9630, Note_off_c, 0, 56, 50
1, 9636, Control_c, 0, 64, 127
1, 9636, Control_c, 0, 67, 25
1, 9636, Note_off_c, 0, 50, 33
1, 9645, Note_off_c, 0, 52, 39
1, 9651, Control_c, 0, 67, 32
1, 9665, Control_c, 0, 67, 43
1, 9680, Control_c, 0, 67, 61
1, 9695, Control_c, 0, 67, 83
1, 9697, Note_off_c, 0, 62, 37
1, 9710, Note_off_c, 0, 64, 55
1, 9710, Control_c, 0, 67, 107
1, 9724, Control_c, 0, 67, 125
1, 9739, Control_c, 0, 67, 127
1, 9740, Note_off_c, 0, 68, 57
1, 10236, Control_c, 0, 64, 99
1, 10251, Control_c, 0, 64, 78
1, 10266, Control_c, 0, 64, 63
1, 10280, Control_c, 0, 64, 39
1, 10295, Control_c, 0, 64, 0
1, 10325, Control_c, 0, 64, 34
1, 10330, Note_on_c, 0, 86, 47
1, 10340, Control_c, 0, 64, 50
1, 10354, Control_c, 0, 64, 61
1, 10369, Control_c, 0, 64, 67
1, 10384, Control_c, 0, 64, 75
1, 10399, Control_c, 0, 64, 84
1, 10414, Control_c, 0, 64, 90
1, 10429, Control_c, 0, 64, 94
1, 10439, Note_on_c, 0, 83, 60
1, 10443, Control_c, 0, 64, 98
1, 10454, Note_off_c, 0, 86, 36
1, 10473, Control_c, 0, 64, 100
1, 10542, Note_off_c, 0, 83, 58
1, 10543, Note_on_c, 0, 80, 59
1, 10601, Note_off_c, 0, 80, 61
1, 10629, Note_on_c, 0, 74, 62
1, 10654, Note_off_c, 0, 74, 65
1, 10731, Note_on_c, 0, 71, 63
1, 10820, Note_on_c, 0, 68, 70
1, 10820, Note_off_c, 0, 71, 58
1, 10885, Note_off_c, 0, 68, 63
1, 10919, Note_on_c, 0, 62, 56
1, 10951, Note_off_c, 0, 62, 64
1, 11017, Note_on_c, 0, 59, 58
1, 11102, Note_on_c, 0, 56, 58
1, 11111, Note_off_c, 0, 59, 50
1, 11134, Control_c, 0, 64, 98
1, 11149, Control_c, 0, 64, 95
1, 11164, Control_c, 0, 64, 91
1, 11178, Control_c, 0, 64, 86
1, 11193, Control_c, 0, 64, 81
1, 11208, Control_c, 0, 64, 75
1, 11219, Note_on_c, 0, 50, 48
1, 11223, Note_off_c, 0, 56, 58
1, 11223, Control_c, 0, 64, 70
1, 11237, Control_c, 0, 64, 62
1, 11252, Control_c, 0, 64, 52
1, 11267, Control_c, 0, 64, 38
1, 11282, Control_c, 0, 64, 0
1, 11299, Note_off_c, 0, 50, 58
1, 11313, Note_on_c, 0, 47, 53
1, 11396, Note_off_c, 0, 47, 60
1, 11410, Note_on_c, 0, 44, 49
1, 11508, Note_off_c, 0, 44, 56
1, 11511, Control_c, 0, 67, 103
1, 11526, Control_c, 0, 67, 66
1, 11533, Note_on_c, 0, 40, 40
1, 11540, Control_c, 0, 67, 0
1, 11570, Note_off_c, 0, 40, 63
1, 11878, Note_on_c, 0, 74, 57
1, 11880, Note_on_c, 0, 68, 48
1, 11886, Note_on_c, 0, 56, 42
1, 11889, Note_on_c, 0, 62, 36
1, 11891, Note_on_c, 0, 52, 37
1, 11904, Note_off_c, 0, 68, 62
1, 11907, Note_off_c, 0, 74, 57
1, 11915, Note_off_c, 0, 56, 51
1, 11920, Note_off_c, 0, 62, 45
1, 11922, Note_off_c, 0, 52, 47
1, 12271, Note_on_c, 0, 53, 39
1, 12281, Note_on_c, 0, 62, 39
1, 12284, Note_on_c, 0, 69, 39
1, 12285, Note_on_c, 0, 57, 34
1, 12287, Note_on_c, 0, 74, 48
1, 12348, Control_c, 0, 64, 51
1, 12363, Control_c, 0, 64, 60
1, 12378, Control_c, 0, 64, 64
1, 12393, Control_c, 0, 64, 67
1, 12408, Control_c, 0, 64, 71
1, 12423, Control_c, 0, 64, 76
1, 12438, Control_c, 0, 64, 80
1, 12447, Note_off_c, 0, 62, 61
1, 12452, Control_c, 0, 64, 86
1, 12467, Control_c, 0, 64, 92
1, 12482, Control_c, 0, 64, 98
1, 12497, Control_c, 0, 64, 106
1, 12512, Control_c, 0, 64, 117
1, 12527, Control_c, 0, 64, 127
1, 12533, Note_off_c, 0, 57, 40
1, 12542, Note_off_c, 0, 74, 51
1, 12543, Note_off_c, 0, 69, 57
1, 12547, Note_off_c, 0, 53, 37
1, 12950, Control_c, 0, 64, 107
1, 12965, Control_c, 0, 64, 81
1, 12980, Control_c, 0, 64, 66
1, 12995, Control_c, 0, 64, 54
1, 13009, Control_c, 0, 64, 52
1, 13011, Note_on_c, 0, 86, 52
1, 13024, Control_c, 0, 64, 58
1, 13039, Control_c, 0, 64, 64
1, 13054, Control_c, 0, 64, 72
1, 13069, Control_c, 0, 64, 84
1, 13083, Control_c, 0, 64, 102
1, 13098, Control_c, 0, 64, 127
1, 13109, Note_on_c, 0, 81, 70
1, 13111, Note_off_c, 0, 86, 58
1, 13200, Note_on_c, 0, 77, 70
1, 13242, Note_off_c, 0, 81, 61
1, 13279, Note_off_c, 0, 77, 63
1, 13286, Note_on_c, 0, 74, 75
1, 13323, Note_off_c, 0, 74, 59
1, 13383, Note_on_c, 0, 69, 64
1, 13471, Note_on_c, 0, 65, 69
1, 13508, Note_off_c, 0, 69, 61
1, 13544, Note_off_c, 0, 65, 64
1, 13554, Note_on_c, 0, 62, 67
1, 13594, Note_off_c, 0, 62, 59
1, 13660, Note_on_c, 0, 57, 63
1, 13746, Note_on_c, 0, 53, 69
1, 13780, Note_off_c, 0, 57, 56
1, 13818, Control_c, 0, 64, 113
1, 13832, Control_c, 0, 64, 99
1, 13847, Control_c, 0, 64, 88
1, 13857, Note_on_c, 0, 50, 57
1, 13862, Control_c, 0, 64, 77
1, 13870, Note_off_c, 0, 53, 63
1, 13877, Control_c, 0, 64, 68
1, 13892, Control_c, 0, 64, 58
1, 13906, Control_c, 0, 64, 42
1, 13921, Control_c, 0, 64, 0
1, 13954, Note_on_c, 0, 45, 61
1, 13956, Note_off_c, 0, 50, 56
1, 14021, Note_off_c, 0, 45, 59
1, 14046, Note_on_c, 0, 40, 42
1, 14140, Note_off_c, 0, 40, 57
1, 14145, Note_on_c, 0, 41, 57
1, 14176, Note_off_c, 0, 41, 64
1, 14481, Note_on_c, 0, 74, 61
1, 14484, Note_on_c, 0, 69, 50
1, 14487, Note_on_c, 0, 53, 50
1, 14491, Note_on_c, 0, 57, 46
1, 14494, Note_on_c, 0, 62, 40
1, 14514, Note_off_c, 0, 53, 61
1, 14517, Note_off_c, 0, 57, 58
1, 14522, Note_off_c, 0, 69, 63
1, 14523, Note_off_c, 0, 62, 52
1, 14524, Note_off_c, 0, 74, 56
1, 14876, Note_on_c, 0, 74, 54
1, 14879, Note_on_c, 0, 54, 29
1, 14883, Note_on_c, 0, 57, 28
1, 14888, Note_on_c, 0, 62, 39
1, 14897, Note_on_c, 0, 72, 35
1, 14908, Control_c, 0, 64, 44
1, 14923, Control_c, 0, 64, 59
1, 14938, Control_c, 0, 64, 63
1, 14952, Control_c, 0, 64, 65
1, 14967, Control_c, 0, 64, 67
1, 14982, Control_c, 0, 64, 70
1, 14997, Control_c, 0, 64, 74
1, 15012, Control_c, 0, 64, 79
1, 15026, Control_c, 0, 64, 86
1, 15028, Note_off_c, 0, 62, 60
1, 15041, Control_c, 0, 64, 93
1, 15056, Control_c, 0, 64, 100
1, 15070, Control_c, 0, 64, 112
1, 15085, Control_c, 0, 64, 127
1, 15113, Note_off_c, 0, 57, 42
1, 15117, Note_off_c, 0, 54, 40
1, 15158, Note_off_c, 0, 74, 61
1, 15176, Note_off_c, 0, 72, 50
1, 15537, Control_c, 0, 64, 101
1, 15551, Control_c, 0, 64, 79
1, 15566, Control_c, 0, 64, 68
1, 15577, Note_on_c, 0, 86, 54
1, 15581, Control_c, 0, 64, 63
1, 15595, Control_c, 0, 64, 63
1, 15610, Control_c, 0, 64, 66
1, 15625, Control_c, 0, 64, 72
1, 15640, Control_c, 0, 64, 81
1, 15655, Control_c, 0, 64, 97
1, 15669, Note_on_c, 0, 83, 65
1, 15669, Control_c, 0, 64, 127
1, 15708, Note_off_c, 0, 86, 36
1, 15755, Note_on_c, 0, 79, 71
1, 15794, Note_off_c, 0, 83, 59
1, 15833, Note_off_c, 0, 79, 64
1, 15845, Note_on_c, 0, 74, 76
1, 15861, Note_on_c, 0, 43, 48
1, 15879, Note_off_c, 0, 74, 62
1, 15906, Note_off_c, 0, 43, 58
1, 15940, Note_on_c, 0, 71, 72
1, 16036, Note_on_c, 0, 67, 68
1, 16061, Note_off_c, 0, 71, 59
1, 16164, Note_on_c, 0, 44, 42
1, 16176, Note_on_c, 0, 53, 36
1, 16177, Note_on_c, 0, 50, 35
1, 16223, Note_on_c, 0, 62, 60
1, 16241, Note_off_c, 0, 67, 53
1, 16241, Control_c, 0, 64, 109
1, 16256, Control_c, 0, 64, 81
1, 16271, Control_c, 0, 64, 63
1, 16286, Control_c, 0, 64, 0
1, 16360, Control_c, 0, 64, 55
1, 16375, Control_c, 0, 64, 65
1, 16390, Control_c, 0, 64, 71
1, 16405, Control_c, 0, 64, 79
1, 16419, Control_c, 0, 64, 87
1, 16434, Control_c, 0, 64, 93
1, 16435, Note_off_c, 0, 44, 42
1, 16449, Control_c, 0, 64, 100
1, 16454, Note_off_c, 0, 53, 41
1, 16464, Control_c, 0, 64, 114
1, 16479, Control_c, 0, 64, 127
1, 16511, Note_off_c, 0, 50, 40
1, 16530, Note_off_c, 0, 62, 58
1, 16542, Note_on_c, 0, 74, 68
1, 16598, Note_off_c, 0, 74, 62
1, 16843, Control_c, 0, 64, 89
1, 16855, Note_on_c, 0, 86, 71
1, 16857, Control_c, 0, 64, 70
1, 16872, Control_c, 0, 64, 60
1, 16887, Control_c, 0, 64, 57
1, 16902, Control_c, 0, 64, 61
1, 16916, Control_c, 0, 64, 66
1, 16931, Control_c, 0, 64, 75
1, 16946, Control_c, 0, 64, 98
1, 16950, Note_on_c, 0, 81, 84
1, 16961, Control_c, 0, 64, 127
1, 16966, Note_off_c, 0, 86, 60
1, 17037, Note_on_c, 0, 77, 82
1, 17090, Note_off_c, 0, 81, 61
1, 17128, Note_on_c, 0, 74, 87
1, 17130, Note_on_c, 0, 53, 78
1, 17130, Note_off_c, 0, 77, 63
1, 17142, Note_on_c, 0, 50, 66
1, 17145, Note_on_c, 0, 45, 62
1, 17174, Note_off_c, 0, 74, 61
1, 17181, Note_off_c, 0, 45, 62
1, 17206, Note_off_c, 0, 50, 52
1, 17211, Note_off_c, 0, 53, 39
1, 17217, Note_on_c, 0, 69, 87
1, 17307, Note_on_c, 0, 65, 92
1, 17341, Note_off_c, 0, 69, 62
1, 17377, Control_c, 0, 64, 99
1, 17391, Control_c, 0, 64, 71
1, 17394, Note_on_c, 0, 53, 85
1, 17396, Note_on_c, 0, 50, 76
1, 17401, Note_on_c, 0, 46, 69
1, 17401, Note_off_c, 0, 65, 57
1, 17406, Control_c, 0, 64, 48
1, 17421, Note_on_c, 0, 62, 87
1, 17428, Control_c, 0, 64, 44
1, 17443, Control_c, 0, 64, 56
1, 17458, Control_c, 0, 64, 66
1, 17472, Control_c, 0, 64, 78
1, 17486, Note_off_c, 0, 62, 61
1, 17487, Note_off_c, 0, 50, 62
1, 17487, Control_c, 0, 64, 108
1, 17493, Note_off_c, 0, 46, 62
1, 17502, Control_c, 0, 64, 127
1, 17520, Note_on_c, 0, 74, 88
1, 17582, Note_off_c, 0, 53, 31
1, 17599, Note_on_c, 0, 73, 87
1, 17633, Note_off_c, 0, 74, 65
1, 17654, Note_off_c, 0, 73, 65
1, 17679, Note_on_c, 0, 53, 87
1, 17687, Note_on_c, 0, 50, 72
1, 17687, Note_on_c, 0, 47, 69
1, 17705, Note_on_c, 0, 74, 100
1, 17732, Note_off_c, 0, 47, 55
1, 17748, Note_off_c, 0, 53, 59
1, 17774, Note_off_c, 0, 74, 57
1, 17780, Note_off_c, 0, 50, 57
1, 17788, Note_on_c, 0, 86, 89
1, 17820, Note_on_c, 0, 84, 56
1, 17845, Note_off_c, 0, 84, 39
1, 17880, Note_on_c, 0, 85, 86
1, 17929, Note_off_c, 0, 86, 64
1, 17953, Note_off_c, 0, 85, 65
1, 17955, Note_on_c, 0, 47, 57
1, 17968, Note_on_c, 0, 56, 76
1, 17976, Note_on_c, 0, 50, 61
1, 17981, Note_on_c, 0, 52, 64
1, 17997, Note_on_c, 0, 86, 93
1, 18088, Note_on_c, 0, 85, 86
1, 18128, Note_off_c, 0, 86, 59
1, 18194, Note_on_c, 0, 88, 91
1, 18216, Note_off_c, 0, 85, 63
1, 18236, Control_c, 0, 64, 111
1, 18250, Control_c, 0, 64, 100
1, 18265, Control_c, 0, 64, 92
1, 18280, Control_c, 0, 64, 85
1, 18287, Note_on_c, 0, 86, 84
1, 18295, Control_c, 0, 64, 79
1, 18310, Control_c, 0, 64, 73
1, 18325, Control_c, 0, 64, 67
1, 18340, Control_c, 0, 64, 61
1, 18355, Control_c, 0, 64, 54
1, 18367, Note_on_c, 0, 85, 80
1, 18369, Control_c, 0, 64, 48
1, 18384, Note_off_c, 0, 88, 61
1, 18384, Control_c, 0, 64, 44
1, 18399, Control_c, 0, 64, 41
1, 18413, Control_c, 0, 64, 38
1, 18428, Control_c, 0, 64, 35
1, 18436, Note_off_c, 0, 86, 56
1, 18443, Control_c, 0, 64, 33
1, 18458, Control_c, 0, 64, 0
1, 18461, Note_on_c, 0, 83, 80
1, 18522, Note_off_c, 0, 85, 64
1, 18542, Note_off_c, 0, 83, 64
1, 18545, Note_on_c, 0, 81, 79
1, 18626, Note_on_c, 0, 80, 82
1, 18628, Note_off_c, 0, 81, 51
1, 18720, Note_on_c, 0, 83, 77
1, 18730, Note_off_c, 0, 80, 62
1, 18805, Note_on_c, 0, 81, 80
1, 18870, Note_off_c, 0, 83, 56
1, 18885, Note_on_c, 0, 80, 77
1, 18942, Note_off_c, 0, 81, 56
1, 18987, Note_on_c, 0, 78, 75
1, 19042, Note_off_c, 0, 80, 62
1, 19074, Note_off_c, 0, 78, 62
1, 19089, Note_on_c, 0, 76, 68
1, 19148, Control_c, 0, 64, 43
1, 19162, Control_c, 0, 64, 59
1, 19167, Note_off_c, 0, 76, 60
1, 19170, Note_on_c, 0, 75, 68
1, 19177, Control_c, 0, 64, 65
1, 19192, Control_c, 0, 64, 69
1, 19193, Note_off_c, 0, 47, 62
1, 19207, Control_c, 0, 64, 76
1, 19221, Note_off_c, 0, 56, 60
1, 19222, Control_c, 0, 64, 84
1, 19222, Note_off_c, 0, 50, 58
1, 19225, Note_off_c, 0, 52, 61
1, 19236, Control_c, 0, 64, 96
1, 19250, Note_off_c, 0, 75, 62
1, 19251, Control_c, 0, 64, 115
1, 19254, Note_on_c, 0, 78, 72
1, 19266, Control_c, 0, 64, 127
1, 19348, Note_on_c, 0, 76, 75
1, 19392, Note_off_c, 0, 78, 58
1, 19409, Note_off_c, 0, 76, 62
1, 19435, Note_on_c, 0, 74, 77
1, 19535, Note_off_c, 0, 74, 57
1, 19538, Note_on_c, 0, 73, 70
1, 19635, Note_on_c, 0, 59, 47
1, 19643, Note_on_c, 0, 71, 70
1, 19733, Note_off_c, 0, 59, 54
1, 19735, Note_on_c, 0, 70, 77
1, 19745, Note_on_c, 0, 58, 61
1, 19755, Note_off_c, 0, 73, 33
1, 19773, Note_off_c, 0, 71, 59
1, 19826, Note_on_c, 0, 74, 81
1, 19833, Note_off_c, 0, 58, 60
1, 19846, Note_on_c, 0, 62, 70
1, 19848, Note_off_c, 0, 70, 61
1, 19912, Note_on_c, 0, 73, 78
1, 19926, Note_off_c, 0, 62, 59
1, 19931, Note_on_c, 0, 61, 79
1, 19993, Note_off_c, 0, 61, 61
1, 20002, Note_on_c, 0, 71, 81
1, 20024, Note_off_c, 0, 74, 56
1, 20025, Note_on_c, 0, 59, 73
1, 20066, Note_off_c, 0, 73, 58
1, 20074, Control_c, 0, 64, 109
1, 20079, Note_off_c, 0, 71, 63
1, 20089, Control_c, 0, 64, 98
1, 20096, Note_on_c, 0, 69, 76
1, 20104, Control_c, 0, 64, 87
1, 20111, Note_on_c, 0, 57, 77
1, 20113, Note_off_c, 0, 59, 62
1, 20118, Control_c, 0, 64, 78
1, 20133, Control_c, 0, 64, 70
1, 20148, Control_c, 0, 64, 63
1, 20163, Control_c, 0, 64, 54
1, 20178, Control_c, 0, 64, 47
1, 20187, Note_on_c, 0, 68, 77
1, 20191, Note_off_c, 0, 69, 63
1, 20192, Control_c, 0, 64, 44
1, 20196, Note_on_c, 0, 56, 69
1, 20197, Note_off_c, 0, 57, 61
1, 20207, Control_c, 0, 64, 41
1, 20222, Control_c, 0, 64, 36
1, 20237, Control_c, 0, 64, 0
1, 20276, Note_on_c, 0, 69, 75
1, 20280, Note_off_c, 0, 56, 62
1, 20286, Note_on_c, 0, 57, 72
1, 20292, Note_off_c, 0, 68, 56
1, 20354, Note_off_c, 0, 57, 62
1, 20376, Note_on_c, 0, 71, 74
1, 20377, Note_on_c, 0, 59, 66
1, 20387, Note_off_c, 0, 69, 61
1, 20473, Note_on_c, 0, 69, 69
1, 20473, Note_off_c, 0, 59, 58
1, 20477, Note_on_c, 0, 57, 66
1, 20537, Note_off_c, 0, 71, 51
1, 20558, Note_off_c, 0, 57, 63
1, 20564, Note_on_c, 0, 56, 64
1, 20569, Note_on_c, 0, 68, 73
1, 20614, Note_off_c, 0, 69, 56
1, 20651, Note_off_c, 0, 56, 59
1, 20659, Note_on_c, 0, 66, 72
1, 20660, Note_on_c, 0, 54, 55
1, 20725, Note_off_c, 0, 68, 61
1, 20745, Note_off_c, 0, 54, 61
1, 20760, Note_on_c, 0, 52, 51
1, 20767, Note_off_c, 0, 66, 61
1, 20775, Note_on_c, 0, 64, 58
1, 20842, Note_off_c, 0, 52, 61
1, 20858, Note_off_c, 0, 64, 62
1, 20868, Note_on_c, 0, 66, 63
1, 20872, Note_on_c, 0, 54, 52
1, 20920, Note_off_c, 0, 54, 59
1, 20966, Note_on_c, 0, 52, 45
1, 20969, Note_on_c, 0, 64, 60
1, 20982, Note_off_c, 0, 66, 52
1, 21023, Note_off_c, 0, 64, 53
1, 21026, Note_off_c, 0, 52, 51
1, 21061, Note_on_c, 0, 62, 63
1, 21064, Note_on_c, 0, 50, 54
1, 21117, Note_off_c, 0, 50, 58
1, 21132, Note_off_c, 0, 62, 58
1, 21145, Note_on_c, 0, 61, 59
1, 21151, Note_on_c, 0, 49, 57
1, 21206, Note_off_c, 0, 49, 63
1, 21245, Note_on_c, 0, 47, 49
1, 21257, Note_on_c, 0, 59, 50
1, 21265, Note_off_c, 0, 61, 49
1, 21356, Note_off_c, 0, 47, 55
1, 21361, Note_off_c, 0, 59, 58
1, 21383, Note_on_c, 0, 57, 50
1, 21396, Note_on_c, 0, 49, 44
1, 21402, Note_on_c, 0, 45, 37
1, 21422, Note_off_c, 0, 57, 64
1, 21719, Note_on_c, 0, 69, 49
1, 21743, Note_off_c, 0, 69, 61
1, 22054, Note_on_c, 0, 76, 54
1, 22056, Note_off_c, 0, 45, 51
1, 22060, Note_on_c, 0, 64, 41
1, 22063, Note_off_c, 0, 49, 57
1, 22379, Note_on_c, 0, 49, 44
1, 22384, Note_on_c, 0, 57, 42
1, 22389, Note_on_c, 0, 45, 33
1, 22414, Note_off_c, 0, 49, 64
1, 22418, Note_off_c, 0, 57, 52
1, 22430, Note_off_c, 0, 45, 40
1, 22647, Control_c, 0, 64, 40
1, 22668, Control_c, 0, 64, 55
1, 22683, Control_c, 0, 64, 62
1, 22698, Control_c, 0, 64, 66
1, 22701, Note_off_c, 0, 64, 51
1, 22713, Control_c, 0, 64, 69
1, 22726, Note_on_c, 0, 57, 38
1, 22727, Note_on_c, 0, 47, 42
1, 22728, Control_c, 0, 64, 73
1, 22731, Note_on_c, 0, 50, 40
1, 22743, Control_c, 0, 64, 77
1, 22758, Control_c, 0, 64, 80
1, 22772, Control_c, 0, 64, 82
1, 22787, Control_c, 0, 64, 85
1, 22802, Control_c, 0, 64, 90
1, 22817, Control_c, 0, 64, 94
1, 22832, Control_c, 0, 64, 98
1, 22847, Control_c, 0, 64, 100
1, 23025, Control_c, 0, 64, 94
1, 23040, Note_on_c, 0, 78, 74
1, 23040, Control_c, 0, 64, 86
1, 23055, Control_c, 0, 64, 76
1, 23057, Note_on_c, 0, 66, 54
1, 23059, Note_off_c, 0, 76, 54
1, 23070, Control_c, 0, 64, 66
1, 23084, Control_c, 0, 64, 55
1, 23091, Note_off_c, 0, 66, 63
1, 23091, Note_off_c, 0, 78, 62
1, 23099, Control_c, 0, 64, 0
1, 23376, Note_off_c, 0, 47, 49
1, 23392, Note_on_c, 0, 74, 80
1, 23405, Note_off_c, 0, 57, 44
1, 23409, Note_off_c, 0, 50, 56
1, 23417, Note_on_c, 0, 62, 46
1, 23727, Note_on_c, 0, 57, 47
1, 23736, Note_on_c, 0, 50, 36
1, 23758, Poly_aftertouch_c, 0, 47, 127
1, 23766, Note_off_c, 0, 57, 63
1, 23777, Note_off_c, 0, 50, 60
1, 23796, Poly_aftertouch_c, 0, 47, 0
1, 23923, Control_c, 0, 64, 45
1, 23938, Control_c, 0, 64, 57
1, 23952, Control_c, 0, 64, 63
1, 23967, Control_c, 0, 64, 66
1, 23982, Control_c, 0, 64, 70
1, 23997, Control_c, 0, 64, 75
1, 24012, Control_c, 0, 64, 78
1, 24024, Note_off_c, 0, 62, 41
1, 24026, Control_c, 0, 64, 80
1, 24041, Control_c, 0, 64, 83
1, 24046, Note_on_c, 0, 49, 44
1, 24050, Note_on_c, 0, 57, 42
1, 24056, Control_c, 0, 64, 86
1, 24065, Note_on_c, 0, 52, 39
1, 24071, Control_c, 0, 64, 91
1, 24085, Control_c, 0, 64, 96
1, 24100, Control_c, 0, 64, 98
1, 24135, Note_off_c, 0, 74, 53
1, 24212, Control_c, 0, 64, 90
1, 24215, Note_on_c, 0, 76, 67
1, 24220, Note_on_c, 0, 64, 53
1, 24227, Control_c, 0, 64, 79
1, 24231, Note_off_c, 0, 76, 65
1, 24240, Note_off_c, 0, 64, 59
1, 24241, Control_c, 0, 64, 67
1, 24256, Control_c, 0, 64, 52
1, 24271, Control_c, 0, 64, 0
1, 24330, Control_c, 0, 64, 49
1, 24345, Control_c, 0, 64, 63
1, 24359, Control_c, 0, 64, 70
1, 24373, Note_on_c, 0, 73, 70
1, 24374, Control_c, 0, 64, 79
1, 24388, Note_off_c, 0, 52, 55
1, 24389, Control_c, 0, 64, 90
1, 24397, Note_on_c, 0, 61, 41
1, 24400, Note_off_c, 0, 57, 41
1, 24403, Note_off_c, 0, 49, 49
1, 24404, Control_c, 0, 64, 99
1, 24419, Control_c, 0, 64, 114
1, 24433, Control_c, 0, 64, 127
1, 24473, Note_off_c, 0, 73, 60
1, 24524, Note_off_c, 0, 61, 45
1, 24656, Control_c, 0, 64, 88
1, 24665, Note_on_c, 0, 54, 38
1, 24671, Control_c, 0, 64, 70
1, 24677, Note_on_c, 0, 50, 28
1, 24686, Note_on_c, 0, 57, 28
1, 24686, Control_c, 0, 64, 58
1, 24701, Note_on_c, 0, 71, 46
1, 24701, Control_c, 0, 64, 55
1, 24716, Control_c, 0, 64, 59
1, 24731, Control_c, 0, 64, 63
1, 24734, Note_off_c, 0, 71, 52
1, 24746, Control_c, 0, 64, 67
1, 24761, Control_c, 0, 64, 74
1, 24775, Control_c, 0, 64, 83
1, 24789, Note_off_c, 0, 57, 38
1, 24790, Control_c, 0, 64, 94
1, 24793, Note_on_c, 0, 59, 52
1, 24805, Control_c, 0, 64, 105
1, 24820, Control_c, 0, 64, 127
1, 24837, Note_off_c, 0, 59, 54
1, 24898, Note_on_c, 0, 71, 54
1, 24952, Note_off_c, 0, 50, 40
1, 24957, Note_on_c, 0, 52, 43
1, 24960, Control_c, 0, 64, 95
1, 24968, Note_on_c, 0, 55, 48
1, 24972, Note_on_c, 0, 70, 72
1, 24975, Control_c, 0, 64, 74
1, 24984, Note_on_c, 0, 57, 34
1, 24990, Control_c, 0, 64, 55
1, 24999, Note_off_c, 0, 54, 40
1, 25005, Control_c, 0, 64, 0
1, 25011, Note_off_c, 0, 71, 53
1, 25050, Control_c, 0, 64, 40
1, 25056, Note_off_c, 0, 57, 61
1, 25062, Note_off_c, 0, 70, 62
1, 25064, Control_c, 0, 64, 57
1, 25079, Control_c, 0, 64, 65
1, 25080, Note_on_c, 0, 58, 65
1, 25094, Control_c, 0, 64, 73
1, 25108, Control_c, 0, 64, 79
1, 25123, Control_c, 0, 64, 84
1, 25138, Control_c, 0, 64, 89
1, 25141, Note_off_c, 0, 58, 41
1, 25153, Control_c, 0, 64, 94
1, 25157, Note_on_c, 0, 70, 74
1, 25168, Control_c, 0, 64, 100
1, 25182, Control_c, 0, 64, 103
1, 25241, Control_c, 0, 64, 100
1, 25251, Note_off_c, 0, 52, 58
1, 25256, Control_c, 0, 64, 85
1, 25271, Control_c, 0, 64, 70
1, 25282, Note_on_c, 0, 57, 38
1, 25282, Note_off_c, 0, 55, 42
1, 25285, Note_off_c, 0, 70, 51
1, 25287, Control_c, 0, 64, 50
1, 25294, Note_on_c, 0, 50, 40
1, 25294, Note_on_c, 0, 71, 71
1, 25294, Note_on_c, 0, 54, 37
1, 25297, Note_on_c, 0, 59, 54
1, 25302, Control_c, 0, 64, 0
1, 25346, Control_c, 0, 64, 41
1, 25361, Control_c, 0, 64, 56
1, 25363, Note_off_c, 0, 59, 59
1, 25375, Note_off_c, 0, 50, 59
1, 25376, Control_c, 0, 64, 65
1, 25391, Control_c, 0, 64, 75
1, 25396, Note_off_c, 0, 71, 64
1, 25397, Note_off_c, 0, 57, 61
1, 25405, Control_c, 0, 64, 87
1, 25420, Control_c, 0, 64, 101
1, 25435, Control_c, 0, 64, 127
1, 25586, Note_off_c, 0, 54, 42
1, 25610, Note_on_c, 0, 52, 41
1, 25613, Note_on_c, 0, 49, 42
1, 25618, Note_on_c, 0, 73, 74
1, 25620, Note_on_c, 0, 61, 65
1, 25633, Note_on_c, 0, 57, 21
1, 25661, Note_off_c, 0, 61, 63
1, 25663, Note_off_c, 0, 52, 61
1, 25673, Note_off_c, 0, 49, 60
1, 25679, Note_off_c, 0, 73, 62
1, 25756, Note_on_c, 0, 74, 85
1, 25761, Note_on_c, 0, 62, 71
1, 25795, Note_off_c, 0, 62, 59
1, 25819, Note_off_c, 0, 74, 62
1, 25902, Control_c, 0, 64, 103
1, 25917, Control_c, 0, 64, 76
1, 25930, Note_off_c, 0, 57, 42
1, 25931, Control_c, 0, 64, 63
1, 25934, Note_on_c, 0, 64, 74
1, 25935, Note_on_c, 0, 76, 88
1, 25942, Note_on_c, 0, 49, 51
1, 25946, Note_on_c, 0, 45, 42
1, 25946, Control_c, 0, 64, 59
1, 25954, Poly_aftertouch_c, 0, 68, 0
1, 25961, Control_c, 0, 64, 63
1, 25976, Control_c, 0, 64, 67
1, 25982, Note_off_c, 0, 64, 61
1, 25991, Control_c, 0, 64, 76
1, 26005, Control_c, 0, 64, 95
1, 26016, Note_off_c, 0, 45, 58
1, 26020, Control_c, 0, 64, 127
1, 26025, Note_off_c, 0, 49, 62
1, 26034, Note_off_c, 0, 76, 65
1, 26052, Note_on_c, 0, 57, 62
1, 26096, Note_off_c, 0, 57, 59
1, 26132, Note_on_c, 0, 49, 69
1, 26152, Note_on_c, 0, 45, 40
1, 26160, Note_off_c, 0, 49, 66
1, 26190, Note_off_c, 0, 45, 46
1, 26228, Control_c, 0, 64, 111
1, 26243, Control_c, 0, 64, 75
1, 26246, Note_on_c, 0, 81, 99
1, 26247, Note_on_c, 0, 69, 87
1, 26258, Control_c, 0, 64, 56
1, 26265, Note_on_c, 0, 47, 54
1, 26266, Note_on_c, 0, 50, 51
1, 26272, Control_c, 0, 64, 39
1, 26287, Control_c, 0, 64, 52
1, 26302, Control_c, 0, 64, 60
1, 26317, Note_off_c, 0, 47, 61
1, 26317, Control_c, 0, 64, 68
1, 26329, Note_off_c, 0, 81, 65
1, 26332, Control_c, 0, 64, 87
1, 26335, Note_off_c, 0, 50, 60
1, 26347, Control_c, 0, 64, 127
1, 26353, Note_off_c, 0, 69, 63
1, 26356, Note_on_c, 0, 57, 66
1, 26446, Note_on_c, 0, 47, 58
1, 26450, Note_on_c, 0, 50, 64
1, 26450, Note_off_c, 0, 57, 61
1, 26657, Note_on_c, 0, 49, 38
1, 26675, Note_on_c, 0, 57, 46
1, 26678, Note_on_c, 0, 52, 47
1, 26680, Note_off_c, 0, 50, 49
1, 26694, Note_off_c, 0, 47, 50
1, 26759, Note_on_c, 0, 73, 53
1, 26770, Note_on_c, 0, 61, 67
1, 26813, Control_c, 0, 64, 106
1, 26816, Note_on_c, 0, 70, 25
1, 26828, Control_c, 0, 64, 75
1, 26843, Control_c, 0, 64, 55
1, 26847, Note_off_c, 0, 70, 46
1, 26858, Control_c, 0, 64, 0
1, 26948, Control_c, 0, 64, 47
1, 26963, Control_c, 0, 64, 62
1, 26977, Control_c, 0, 64, 69
1, 26992, Control_c, 0, 64, 74
1, 27007, Control_c, 0, 64, 80
1, 27022, Control_c, 0, 64, 85
1, 27037, Control_c, 0, 64, 90
1, 27051, Control_c, 0, 64, 95
1, 27066, Control_c, 0, 64, 101
1, 27081, Control_c, 0, 64, 112
1, 27082, Note_off_c, 0, 61, 57
1, 27096, Control_c, 0, 64, 127
1, 27157, Note_off_c, 0, 52, 60
1, 27170, Note_off_c, 0, 49, 41
1, 27208, Note_off_c, 0, 57, 50
1, 27275, Note_off_c, 0, 73, 54
1, 27398, Poly_aftertouch_c, 0, 78, 127
1, 27430, Poly_aftertouch_c, 0, 78, 0
1, 27467, Note_on_c, 0, 50, 35
1, 27509, Note_on_c, 0, 78, 70
1, 27513, Note_on_c, 0, 54, 38
1, 27518, Note_on_c, 0, 66, 48
1, 27534, Note_on_c, 0, 57, 32
1, 27554, Note_on_c, 0, 69, 28
1, 27563, Control_c, 0, 64, 106
1, 27577, Control_c, 0, 64, 77
1, 27592, Control_c, 0, 64, 62
1, 27607, Control_c, 0, 64, 0
1, 27666, Control_c, 0, 64, 39
1, 27682, Control_c, 0, 64, 59
1, 27697, Control_c, 0, 64, 68
1, 27712, Control_c, 0, 64, 76
1, 27726, Control_c, 0, 64, 86
1, 27741, Control_c, 0, 64, 93
1, 27756, Control_c, 0, 64, 99
1, 27771, Control_c, 0, 64, 106
1, 27786, Control_c, 0, 64, 122
1, 27792, Note_off_c, 0, 50, 40
1, 27800, Control_c, 0, 64, 127
1, 27858, Note_off_c, 0, 78, 62
1, 27863, Note_off_c, 0, 57, 40
1, 27906, Note_off_c, 0, 54, 41
1, 27926, Note_off_c, 0, 66, 60
1, 28022, Note_off_c, 0, 69, 39
1, 28216, Note_on_c, 0, 47, 40
1, 28275, Note_on_c, 0, 52, 28
1, 28294, Note_on_c, 0, 74, 59
1, 28296, Control_c, 0, 64, 87
1, 28297, Note_on_c, 0, 57, 38
1, 28304, Note_on_c, 0, 69, 41
1, 28308, Note_on_c, 0, 62, 38
1, 28311, Control_c, 0, 64, 70
1, 28326, Control_c, 0, 64, 54
1, 28341, Control_c, 0, 64, 33
1, 28356, Control_c, 0, 64, 37
1, 28370, Control_c, 0, 64, 48
1, 28385, Control_c, 0, 64, 58
1, 28400, Control_c, 0, 64, 65
1, 28415, Control_c, 0, 64, 72
1, 28430, Control_c, 0, 64, 80
1, 28437, Note_off_c, 0, 52, 50
1, 28444, Control_c, 0, 64, 87
1, 28459, Control_c, 0, 64, 92
1, 28472, Note_off_c, 0, 69, 54
1, 28475, Control_c, 0, 64, 96
1, 28490, Control_c, 0, 64, 100
1, 28505, Control_c, 0, 64, 104
1, 28520, Control_c, 0, 64, 107
1, 28535, Control_c, 0, 64, 109
1, 28609, Control_c, 0, 64, 111
1, 28698, Note_on_c, 0, 56, 35
1, 28699, Note_on_c, 0, 68, 47
1, 28809, Control_c, 0, 64, 109
1, 28824, Control_c, 0, 64, 106
1, 28839, Control_c, 0, 64, 102
1, 28851, Note_off_c, 0, 56, 41
1, 28854, Control_c, 0, 64, 98
1, 28868, Control_c, 0, 64, 93
1, 28872, Note_on_c, 0, 54, 40
1, 28874, Note_on_c, 0, 66, 50
1, 28883, Control_c, 0, 64, 87
1, 28887, Note_off_c, 0, 68, 37
1, 28898, Control_c, 0, 64, 82
1, 28913, Control_c, 0, 64, 76
1, 28928, Control_c, 0, 64, 70
1, 28943, Control_c, 0, 64, 62
1, 28957, Control_c, 0, 64, 48
1, 28972, Control_c, 0, 64, 0
1, 28972, Control_c, 0, 67, 20
1, 29001, Control_c, 0, 67, 22
1, 29016, Control_c, 0, 67, 24
1, 29046, Control_c, 0, 67, 28
1, 29061, Control_c, 0, 67, 33
1, 29069, Note_off_c, 0, 66, 38
1, 29071, Note_off_c, 0, 54, 41
1, 29074, Note_on_c, 0, 68, 39
1, 29075, Control_c, 0, 67, 43
1, 29087, Note_on_c, 0, 56, 27
1, 29090, Control_c, 0, 67, 55
1, 29105, Control_c, 0, 67, 69
1, 29120, Control_c, 0, 67, 82
1, 29135, Control_c, 0, 64, 42
1, 29135, Control_c, 0, 67, 95
1, 29149, Control_c, 0, 64, 56
1, 29149, Control_c, 0, 67, 106
1, 29164, Control_c, 0, 64, 63
1, 29164, Control_c, 0, 67, 116
1, 29179, Control_c, 0, 64, 67
1, 29179, Control_c, 0, 67, 127
1, 29193, Control_c, 0, 64, 71
1, 29197, Note_off_c, 0, 62, 50
1, 29208, Control_c, 0, 64, 75
1, 29223, Control_c, 0, 64, 78
1, 29238, Control_c, 0, 64, 82
1, 29253, Control_c, 0, 64, 87
1, 29269, Control_c, 0, 64, 91
1, 29274, Note_off_c, 0, 57, 16
1, 29279, Note_off_c, 0, 74, 60
1, 29284, Control_c, 0, 64, 95
1, 29289, Note_off_c, 0, 47, 40
1, 29289, Note_off_c, 0, 68, 60
1, 29298, Control_c, 0, 64, 99
1, 29300, Note_off_c, 0, 56, 39
1, 29313, Control_c, 0, 64, 104
1, 29328, Control_c, 0, 64, 110
1, 29343, Control_c, 0, 64, 125
1, 29358, Control_c, 0, 64, 127
1, 29617, Note_on_c, 0, 45, 36
1, 29691, Control_c, 0, 64, 118
1, 29703, Note_on_c, 0, 52, 31
1, 29706, Control_c, 0, 64, 91
1, 29721, Control_c, 0, 64, 75
1, 29736, Control_c, 0, 64, 62
1, 29751, Control_c, 0, 64, 42
1, 29766, Control_c, 0, 64, 35
1, 29779, Note_on_c, 0, 73, 53
1, 29780, Control_c, 0, 64, 45
1, 29787, Note_on_c, 0, 57, 24
1, 29795, Control_c, 0, 64, 53
1, 29810, Control_c, 0, 64, 60
1, 29824, Control_c, 0, 64, 66
1, 29839, Control_c, 0, 64, 73
1, 29854, Control_c, 0, 64, 82
1, 29869, Control_c, 0, 64, 90
1, 29873, Note_off_c, 0, 73, 61
1, 29876, Note_on_c, 0, 76, 67
1, 29884, Control_c, 0, 64, 95
1, 29898, Control_c, 0, 64, 100
1, 29913, Control_c, 0, 64, 105
1, 29928, Control_c, 0, 64, 115
1, 29943, Control_c, 0, 64, 127
1, 29956, Note_off_c, 0, 57, 41
1, 29962, Note_on_c, 0, 81, 82
1, 29962, Note_off_c, 0, 76, 63
1, 29989, Note_off_c, 0, 45, 39
1, 30047, Note_on_c, 0, 76, 77
1, 30049, Note_off_c, 0, 81, 57
1, 30075, Note_off_c, 0, 52, 38
1, 30150, Note_on_c, 0, 73, 70
1, 30176, Note_off_c, 0, 76, 54
1, 30234, Note_off_c, 0, 73, 61
1, 30245, Note_on_c, 0, 69, 65
1, 30275, Note_off_c, 0, 69, 64
1, 30368, Note_on_c, 0, 64, 58
1, 30472, Note_on_c, 0, 61, 61
1, 30485, Note_off_c, 0, 64, 51
1, 30570, Note_off_c, 0, 61, 55
1, 30572, Note_on_c, 0, 57, 60
1, 30659, Note_off_c, 0, 57, 60
1, 30672, Note_on_c, 0, 52, 54
1, 30738, Note_off_c, 0, 52, 57
1, 30754, Note_on_c, 0, 49, 60
1, 30795, Note_off_c, 0, 49, 62
1, 30840, Note_on_c, 0, 45, 70
1, 30904, Note_off_c, 0, 45, 50
1, 30952, Control_c, 0, 64, 99
1, 30967, Control_c, 0, 64, 75
1, 30971, Note_on_c, 0, 33, 60
1, 30982, Control_c, 0, 64, 58
1, 30996, Control_c, 0, 64, 0
1, 31010, Note_off_c, 0, 33, 64
1, 31026, Control_c, 0, 67, 97
1, 31041, Control_c, 0, 67, 62
1, 31056, Control_c, 0, 67, 30
1, 31070, Control_c, 0, 67, 0
1, 31313, Note_on_c, 0, 57, 42
1, 31313, Note_on_c, 0, 61, 53
1, 31325, Note_on_c, 0, 76, 52
1, 31329, Note_on_c, 0, 69, 44
1, 31337, Note_off_c, 0, 61, 60
1, 31339, Note_on_c, 0, 64, 18
1, 31342, Note_off_c, 0, 57, 55
1, 31349, Note_off_c, 0, 76, 57
1, 31353, Note_off_c, 0, 69, 58
1, 31377, Note_off_c, 0, 64, 31
1, 31694, Note_on_c, 0, 76, 57
1, 31701, Note_on_c, 0, 64, 40
1, 31704, Note_on_c, 0, 62, 36
1, 31705, Note_on_c, 0, 68, 44
1, 31707, Note_on_c, 0, 57, 23
1, 31724, Note_on_c, 0, 71, 38
1, 31790, Control_c, 0, 64, 53
1, 31805, Control_c, 0, 64, 62
1, 31819, Control_c, 0, 64, 64
1, 31830, Note_off_c, 0, 64, 54
1, 31834, Control_c, 0, 64, 67
1, 31849, Control_c, 0, 64, 70
1, 31861, Note_off_c, 0, 68, 63
1, 31864, Control_c, 0, 64, 75
1, 31879, Control_c, 0, 64, 79
1, 31893, Control_c, 0, 64, 85
1, 31900, Note_off_c, 0, 76, 61
1, 31908, Control_c, 0, 64, 92
1, 31914, Note_off_c, 0, 71, 51
1, 31923, Control_c, 0, 64, 103
1, 31938, Control_c, 0, 64, 127
1, 32308, Note_off_c, 0, 62, 40
1, 32314, Note_on_c, 0, 61, 31
1, 32323, Control_c, 0, 64, 100
1, 32337, Control_c, 0, 64, 76
1, 32352, Control_c, 0, 64, 61
1, 32364, Note_on_c, 0, 76, 50
1, 32365, Control_c, 0, 64, 44
1, 32380, Control_c, 0, 64, 50
1, 32403, Control_c, 0, 64, 57
1, 32417, Control_c, 0, 64, 62
1, 32432, Control_c, 0, 64, 70
1, 32447, Control_c, 0, 64, 80
1, 32463, Control_c, 0, 64, 98
1, 32463, Note_on_c, 0, 81, 71
1, 32478, Control_c, 0, 64, 116
1, 32493, Control_c, 0, 64, 127
1, 32502, Note_off_c, 0, 57, 35
1, 32525, Note_off_c, 0, 76, 55
1, 32546, Note_on_c, 0, 85, 81
1, 32548, Note_off_c, 0, 61, 37
1, 32548, Note_off_c, 0, 81, 64
1, 32650, Note_on_c, 0, 81, 81
1, 32678, Note_off_c, 0, 85, 62
1, 32695, Note_off_c, 0, 81, 59
1, 32735, Note_on_c, 0, 76, 71
1, 32819, Note_off_c, 0, 76, 41
1, 32837, Note_on_c, 0, 73, 73
1, 32950, Note_on_c, 0, 69, 61
1, 32967, Note_off_c, 0, 73, 56
1, 32994, Note_off_c, 0, 69, 58
1, 33034, Note_on_c, 0, 64, 63
1, 33129, Note_off_c, 0, 64, 37
1, 33141, Note_on_c, 0, 61, 70
1, 33238, Note_on_c, 0, 52, 52
1, 33266, Note_on_c, 0, 57, 58
1, 33300, Note_off_c, 0, 61, 45
1, 33311, Note_off_c, 0, 52, 59
1, 33323, Note_on_c, 0, 49, 61
1, 33351, Note_off_c, 0, 57, 61
1, 33356, Note_off_c, 0, 49, 65
1, 33399, Note_on_c, 0, 45, 74
1, 33460, Note_off_c, 0, 45, 60
1, 33507, Note_on_c, 0, 33, 75
1, 33537, Control_c, 0, 64, 105
1, 33548, Note_off_c, 0, 33, 64
1, 33552, Control_c, 0, 64, 73
1, 33567, Control_c, 0, 64, 55
1, 33582, Control_c, 0, 64, 0
1, 33841, Note_on_c, 0, 81, 89
1, 33847, Note_on_c, 0, 69, 72
1, 33849, Note_on_c, 0, 61, 60
1, 33850, Note_on_c, 0, 64, 60
1, 33859, Note_on_c, 0, 76, 61
1, 33863, Note_on_c, 0, 57, 36
1, 33868, Note_off_c, 0, 64, 63
1, 33871, Note_off_c, 0, 69, 69
1, 33879, Note_off_c, 0, 61, 63
1, 33879, Note_off_c, 0, 76, 63
1, 33904, Note_off_c, 0, 57, 54
1, 33908, Note_off_c, 0, 81, 64
1, 34213, Control_c, 0, 64, 43
1, 34225, Note_on_c, 0, 83, 83
1, 34228, Control_c, 0, 64, 52
1, 34237, Note_on_c, 0, 64, 46
1, 34239, Note_on_c, 0, 71, 63
1, 34239, Note_on_c, 0, 76, 61
1, 34243, Control_c, 0, 64, 59
1, 34244, Note_on_c, 0, 62, 38
1, 34250, Note_on_c, 0, 80, 62
1, 34258, Note_on_c, 0, 57, 31
1, 34258, Control_c, 0, 64, 63
1, 34273, Control_c, 0, 64, 68
1, 34287, Control_c, 0, 64, 74
1, 34302, Control_c, 0, 64, 84
1, 34317, Control_c, 0, 64, 101
1, 34332, Control_c, 0, 64, 127
1, 34398, Note_off_c, 0, 71, 62
1, 34451, Note_off_c, 0, 64, 61
1, 34455, Note_off_c, 0, 83, 64
1, 34466, Note_off_c, 0, 76, 61
1, 34477, Note_off_c, 0, 62, 59
1, 34481, Note_off_c, 0, 80, 62
1, 34484, Note_off_c, 0, 57, 40
1, 34912, Note_on_c, 0, 57, 38
1, 34920, Note_on_c, 0, 81, 70
1, 34927, Note_on_c, 0, 76, 50
1, 34929, Note_on_c, 0, 69, 51
1, 34947, Control_c, 0, 64, 86
1, 34961, Control_c, 0, 64, 68
1, 34976, Control_c, 0, 64, 59
1, 34991, Control_c, 0, 64, 58
1, 35006, Control_c, 0, 64, 62
1, 35021, Control_c, 0, 64, 68
1, 35036, Control_c, 0, 64, 78
1, 35046, Note_on_c, 0, 61, 64
1, 35051, Control_c, 0, 64, 101
1, 35066, Control_c, 0, 64, 127
1, 35078, Note_off_c, 0, 57, 31
1, 35110, Note_off_c, 0, 61, 61
1, 35146, Note_on_c, 0, 64, 66
1, 35224, Note_off_c, 0, 64, 54
1, 35234, Note_on_c, 0, 61, 69
1, 35313, Note_off_c, 0, 61, 58
1, 35314, Note_on_c, 0, 57, 65
1, 35375, Note_off_c, 0, 57, 61
1, 35409, Note_on_c, 0, 52, 70
1, 35466, Note_off_c, 0, 52, 58
1, 35488, Control_c, 0, 64, 113
1, 35503, Note_on_c, 0, 57, 70
1, 35503, Control_c, 0, 64, 81
1, 35517, Control_c, 0, 64, 64
1, 35532, Control_c, 0, 64, 52
1, 35547, Control_c, 0, 64, 56
1, 35562, Control_c, 0, 64, 62
1, 35576, Control_c, 0, 64, 70
1, 35591, Control_c, 0, 64, 83
1, 35596, Note_on_c, 0, 52, 73
1, 35602, Note_off_c, 0, 57, 54
1, 35606, Control_c, 0, 64, 105
1, 35621, Control_c, 0, 64, 127
1, 35677, Note_off_c, 0, 69, 48
1, 35681, Note_off_c, 0, 52, 63
1, 35683, Note_on_c, 0, 49, 82
1, 35748, Note_off_c, 0, 49, 62
1, 35755, Note_off_c, 0, 76, 40
1, 35784, Note_off_c, 0, 81, 62
1, 35785, Note_on_c, 0, 52, 83
1, 35886, Note_on_c, 0, 49, 81
1, 35902, Note_off_c, 0, 52, 60
1, 35966, Note_on_c, 0, 45, 82
1, 36002, Note_off_c, 0, 49, 61
1, 36079, Note_on_c, 0, 42, 72
1, 36103, Note_on_c, 0, 87, 86
1, 36125, Control_c, 0, 64, 89
1, 36148, Control_c, 0, 64, 63
1, 36163, Control_c, 0, 64, 0
1, 36196, Note_on_c, 0, 90, 87
1, 36224, Note_off_c, 0, 45, 60
1, 36226, Note_off_c, 0, 87, 65
1, 36237, Control_c, 0, 64, 42
1, 36252, Control_c, 0, 64, 63
1, 36266, Control_c, 0, 64, 78
1, 36281, Control_c, 0, 64, 127
1, 36286, Note_on_c, 0, 93, 88
1, 36310, Note_off_c, 0, 90, 63
1, 36374, Note_on_c, 0, 90, 86
1, 36407, Note_off_c, 0, 93, 61
1, 36461, Note_on_c, 0, 87, 86
1, 36506, Note_off_c, 0, 90, 61
1, 36535, Note_off_c, 0, 87, 63
1, 36541, Note_on_c, 0, 81, 81
1, 36598, Note_off_c, 0, 81, 62
1, 36647, Note_on_c, 0, 78, 79
1, 36735, Note_on_c, 0, 75, 84
1, 36771, Note_off_c, 0, 78, 61
1, 36809, Poly_aftertouch_c, 0, 79, 0
1, 36816, Note_off_c, 0, 75, 62
1, 36821, Note_on_c, 0, 71, 77
1, 36842, Note_off_c, 0, 42, 62
1, 36844, Note_off_c, 0, 71, 70
1, 36930, Note_on_c, 0, 69, 69
1, 36941, Note_on_c, 0, 71, 52
1, 36968, Note_off_c, 0, 71, 56
1, 37006, Note_on_c, 0, 66, 84
1, 37073, Note_off_c, 0, 69, 52
1, 37090, Note_on_c, 0, 63, 87
1, 37121, Note_off_c, 0, 66, 61
1, 37141, Note_off_c, 0, 63, 63
1, 37148, Control_c, 0, 64, 67
1, 37163, Control_c, 0, 64, 0
1, 37173, Note_on_c, 0, 40, 89
1, 37189, Note_on_c, 0, 64, 104
1, 37193, Control_c, 0, 64, 59
1, 37207, Control_c, 0, 64, 72
1, 37218, Note_off_c, 0, 40, 63
1, 37222, Control_c, 0, 64, 105
1, 37229, Note_off_c, 0, 64, 67
1, 37237, Control_c, 0, 64, 127
1, 37504, Note_on_c, 0, 64, 106
1, 37506, Note_on_c, 0, 56, 91
1, 37513, Note_on_c, 0, 52, 78
1, 37539, Note_off_c, 0, 52, 66
1, 37562, Note_off_c, 0, 56, 66
1, 37564, Control_c, 0, 64, 100
1, 37575, Note_off_c, 0, 64, 57
1, 37579, Control_c, 0, 64, 70
1, 37594, Control_c, 0, 64, 45
1, 37608, Control_c, 0, 64, 0
1, 37842, Note_on_c, 0, 64, 100
1, 37849, Note_on_c, 0, 53, 81
1, 37849, Note_on_c, 0, 57, 89
1, 38147, Note_on_c, 0, 76, 103
1, 38186, Note_off_c, 0, 76, 65
1, 38283, Control_c, 0, 64, 43
1, 38298, Control_c, 0, 64, 59
1, 38312, Control_c, 0, 64, 66
1, 38327, Control_c, 0, 64, 73
1, 38342, Control_c, 0, 64, 79
1, 38354, Note_on_c, 0, 75, 8
1, 38357, Control_c, 0, 64, 83
1, 38372, Control_c, 0, 64, 86
1, 38394, Control_c, 0, 64, 88
1, 38409, Control_c, 0, 64, 90
1, 38416, Note_off_c, 0, 53, 49
1, 38424, Control_c, 0, 64, 92
1, 38439, Control_c, 0, 64, 95
1, 38454, Control_c, 0, 64, 98
1, 38468, Control_c, 0, 64, 100
1, 38482, Note_on_c, 0, 81, 105
1, 38482, Note_off_c, 0, 64, 55
1, 38483, Control_c, 0, 64, 103
1, 38491, Note_on_c, 0, 69, 75
1, 38497, Note_off_c, 0, 75, 38
1, 38498, Control_c, 0, 64, 109
1, 38512, Control_c, 0, 64, 127
1, 38532, Note_off_c, 0, 57, 51
1, 38750, Control_c, 0, 64, 90
1, 38765, Control_c, 0, 64, 72
1, 38779, Control_c, 0, 64, 64
1, 38780, Note_on_c, 0, 57, 58
1, 38781, Note_on_c, 0, 64, 61
1, 38782, Note_on_c, 0, 54, 56
1, 38786, Note_off_c, 0, 69, 61
1, 38794, Control_c, 0, 64, 65
1, 38809, Control_c, 0, 64, 70
1, 38824, Control_c, 0, 64, 81
1, 38838, Control_c, 0, 64, 120
1, 38854, Control_c, 0, 64, 127
1, 38866, Note_off_c, 0, 54, 58
1, 38870, Note_off_c, 0, 57, 62
1, 38888, Note_off_c, 0, 64, 55
1, 39076, Control_c, 0, 64, 102
1, 39082, Note_on_c, 0, 55, 45
1, 39084, Note_on_c, 0, 64, 46
1, 39091, Control_c, 0, 64, 76
1, 39104, Note_on_c, 0, 60, 42
1, 39107, Control_c, 0, 64, 61
1, 39117, Note_off_c, 0, 81, 59
1, 39120, Note_on_c, 0, 79, 72
1, 39122, Control_c, 0, 64, 51
1, 39144, Control_c, 0, 64, 57
1, 39159, Control_c, 0, 64, 64
1, 39173, Control_c, 0, 64, 72
1, 39188, Control_c, 0, 64, 85
1, 39195, Note_off_c, 0, 55, 55
1, 39200, Note_off_c, 0, 64, 44
1, 39203, Control_c, 0, 64, 102
1, 39214, Note_on_c, 0, 81, 88
1, 39218, Control_c, 0, 64, 117
1, 39219, Note_off_c, 0, 79, 65
1, 39233, Control_c, 0, 64, 127
1, 39275, Note_off_c, 0, 60, 36
1, 39301, Note_on_c, 0, 79, 83
1, 39393, Note_on_c, 0, 77, 85
1, 39393, Note_off_c, 0, 81, 62
1, 39394, Note_on_c, 0, 55, 32
1, 39397, Note_on_c, 0, 59, 50
1, 39398, Note_on_c, 0, 62, 47
1, 39407, Note_off_c, 0, 79, 64
1, 39425, Control_c, 0, 64, 125
1, 39440, Control_c, 0, 64, 101
1, 39441, Note_off_c, 0, 55, 52
1, 39446, Note_off_c, 0, 62, 56
1, 39454, Control_c, 0, 64, 90
1, 39455, Note_off_c, 0, 59, 55
1, 39469, Control_c, 0, 64, 80
1, 39484, Control_c, 0, 64, 71
1, 39486, Note_on_c, 0, 79, 86
1, 39486, Note_off_c, 0, 77, 64
1, 39499, Control_c, 0, 64, 63
1, 39514, Control_c, 0, 64, 49
1, 39528, Control_c, 0, 64, 0
1, 39576, Note_on_c, 0, 77, 83
1, 39603, Note_off_c, 0, 79, 64
1, 39686, Note_off_c, 0, 77, 63
1, 39694, Note_on_c, 0, 76, 71
1, 39697, Note_on_c, 0, 60, 45
1, 39737, Control_c, 0, 64, 46
1, 39743, Note_off_c, 0, 60, 64
1, 39752, Control_c, 0, 64, 61
1, 39767, Control_c, 0, 64, 67
1, 39782, Control_c, 0, 64, 73
1, 39796, Control_c, 0, 64, 78
1, 39811, Control_c, 0, 64, 83
1, 39826, Control_c, 0, 64, 87
1, 39841, Control_c, 0, 64, 92
1, 39856, Control_c, 0, 64, 98
1, 39866, Note_off_c, 0, 76, 62
1, 39871, Control_c, 0, 64, 104
1, 39892, Control_c, 0, 64, 109
1, 39907, Control_c, 0, 64, 112
1, 40021, Note_on_c, 0, 48, 46
1, 40021, Note_on_c, 0, 60, 52
1, 40026, Control_c, 0, 64, 104
1, 40032, Note_on_c, 0, 52, 42
1, 40041, Control_c, 0, 64, 91
1, 40054, Note_off_c, 0, 48, 54
1, 40056, Control_c, 0, 64, 80
1, 40058, Note_off_c, 0, 60, 54
1, 40071, Control_c, 0, 64, 70
1, 40073, Note_off_c, 0, 52, 60
1, 40085, Control_c, 0, 64, 61
1, 40100, Control_c, 0, 64, 45
1, 40115, Control_c, 0, 64, 0
1, 40322, Control_c, 0, 67, 20
1, 40337, Control_c, 0, 67, 25
1, 40351, Control_c, 0, 67, 32
1, 40361, Note_on_c, 0, 49, 42
1, 40366, Control_c, 0, 67, 44
1, 40368, Note_on_c, 0, 60, 38
1, 40380, Note_on_c, 0, 53, 24
1, 40381, Control_c, 0, 67, 64
1, 40396, Control_c, 0, 67, 80
1, 40411, Control_c, 0, 67, 93
1, 40425, Control_c, 0, 67, 107
1, 40440, Control_c, 0, 67, 120
1, 40456, Control_c, 0, 67, 127
1, 40688, Note_on_c, 0, 72, 53
1, 40721, Note_off_c, 0, 72, 63
1, 40893, Control_c, 0, 64, 33
1, 40907, Control_c, 0, 64, 48
1, 40922, Control_c, 0, 64, 57
1, 40937, Control_c, 0, 64, 61
1, 40952, Control_c, 0, 64, 63
1, 40967, Control_c, 0, 64, 65
1, 40981, Control_c, 0, 64, 68
1, 40996, Control_c, 0, 64, 71
1, 41011, Note_on_c, 0, 77, 52
1, 41011, Control_c, 0, 64, 74
1, 41026, Control_c, 0, 64, 78
1, 41034, Note_off_c, 0, 49, 41
1, 41036, Note_off_c, 0, 53, 50
1, 41039, Note_on_c, 0, 65, 28
1, 41041, Control_c, 0, 64, 81
1, 41042, Note_off_c, 0, 60, 36
1, 41055, Control_c, 0, 64, 86
1, 41070, Control_c, 0, 64, 91
1, 41085, Control_c, 0, 64, 97
1, 41099, Control_c, 0, 64, 104
1, 41114, Control_c, 0, 64, 116
1, 41129, Control_c, 0, 64, 127
1, 41249, Control_c, 0, 64, 101
1, 41264, Control_c, 0, 64, 82
1, 41278, Control_c, 0, 64, 71
1, 41293, Control_c, 0, 64, 66
1, 41309, Note_on_c, 0, 50, 34
1, 41317, Note_on_c, 0, 60, 31
1, 41320, Note_on_c, 0, 56, 33
1, 41323, Control_c, 0, 64, 69
1, 41332, Note_off_c, 0, 65, 52
1, 41338, Control_c, 0, 64, 74
1, 41353, Control_c, 0, 64, 83
1, 41368, Control_c, 0, 64, 93
1, 41368, Control_c, 0, 67, 117
1, 41381, Note_off_c, 0, 50, 59
1, 41391, Control_c, 0, 64, 105
1, 41391, Control_c, 0, 67, 100
1, 41402, Note_off_c, 0, 60, 54
1, 41405, Control_c, 0, 64, 127
1, 41405, Control_c, 0, 67, 76
1, 41419, Note_off_c, 0, 56, 58
1, 41420, Control_c, 0, 67, 56
1, 41435, Control_c, 0, 67, 38
1, 41450, Control_c, 0, 67, 23
1, 41464, Control_c, 0, 67, 0
1, 41628, Note_on_c, 0, 56, 25
1, 41633, Note_on_c, 0, 51, 39
1, 41645, Note_on_c, 0, 60, 32
1, 41653, Note_off_c, 0, 77, 60
1, 41660, Note_on_c, 0, 75, 53
1, 41680, Note_off_c, 0, 51, 57
1, 41680, Note_off_c, 0, 60, 56
1, 41722, Note_off_c, 0, 56, 53
1, 41734, Note_off_c, 0, 75, 61
1, 41746, Control_c, 0, 64, 106
1, 41755, Note_on_c, 0, 77, 60
1, 41761, Control_c, 0, 64, 96
1, 41776, Control_c, 0, 64, 88
1, 41791, Control_c, 0, 64, 81
1, 41805, Control_c, 0, 64, 74
1, 41820, Control_c, 0, 64, 68
1, 41835, Control_c, 0, 64, 60
1, 41838, Note_on_c, 0, 75, 64
1, 41843, Note_off_c, 0, 77, 53
1, 41849, Control_c, 0, 64, 52
1, 41864, Control_c, 0, 64, 46
1, 41879, Control_c, 0, 64, 38
1, 41894, Control_c, 0, 64, 0
1, 41918, Note_off_c, 0, 75, 62
1, 41932, Note_on_c, 0, 73, 58
1, 41934, Note_on_c, 0, 55, 39
1, 41934, Note_on_c, 0, 58, 39
1, 41970, Note_off_c, 0, 58, 56
1, 41997, Note_off_c, 0, 55, 58
1, 42003, Note_off_c, 0, 73, 62
1, 42023, Note_on_c, 0, 75, 60
1, 42101, Note_off_c, 0, 75, 58
1, 42113, Note_on_c, 0, 73, 53
1, 42223, Note_off_c, 0, 73, 60
1, 42231, Note_on_c, 0, 56, 36
1, 42245, Note_on_c, 0, 72, 50
1, 42287, Control_c, 0, 64, 34
1, 42302, Control_c, 0, 64, 49
1, 42316, Note_off_c, 0, 72, 60
1, 42317, Control_c, 0, 64, 60
1, 42332, Control_c, 0, 64, 68
1, 42347, Control_c, 0, 64, 73
1, 42361, Control_c, 0, 64, 80
1, 42376, Control_c, 0, 64, 87
1, 42391, Control_c, 0, 64, 97
1, 42406, Control_c, 0, 64, 122
1, 42421, Control_c, 0, 64, 127
1, 42554, Note_on_c, 0, 80, 92
1, 42555, Note_on_c, 0, 68, 89
1, 42558, Note_on_c, 0, 72, 77
1, 42575, Note_off_c, 0, 68, 69
1, 42584, Note_off_c, 0, 72, 65
1, 42599, Note_off_c, 0, 80, 64
1, 42613, Control_c, 0, 64, 116
1, 42628, Control_c, 0, 64, 78
1, 42643, Control_c, 0, 64, 64
1, 42658, Control_c, 0, 64, 47
1, 42672, Control_c, 0, 64, 0
1, 42805, Control_c, 0, 64, 34
1, 42820, Control_c, 0, 64, 36
1, 42835, Control_c, 0, 64, 38
1, 42851, Control_c, 0, 64, 39
1, 42873, Control_c, 0, 64, 40
1, 42904, Note_off_c, 0, 56, 62
1, 42906, Note_on_c, 0, 69, 97
1, 42906, Note_on_c, 0, 80, 92
1, 42908, Note_on_c, 0, 73, 89
1, 42932, Control_c, 0, 64, 39
1, 43007, Control_c, 0, 64, 40
1, 43022, Control_c, 0, 64, 43
1, 43037, Control_c, 0, 64, 45
1, 43051, Control_c, 0, 64, 46
1, 43081, Control_c, 0, 64, 45
1, 43096, Control_c, 0, 64, 45
1, 43110, Control_c, 0, 64, 44
1, 43125, Control_c, 0, 64, 43
1, 43221, Note_on_c, 0, 64, 97
1, 43228, Control_c, 0, 64, 43
1, 43243, Control_c, 0, 64, 41
1, 43247, Note_off_c, 0, 64, 66
1, 43258, Control_c, 0, 64, 38
1, 43273, Control_c, 0, 64, 33
1, 43288, Control_c, 0, 64, 0
1, 43510, Control_c, 0, 64, 34
1, 43525, Control_c, 0, 64, 49
1, 43540, Control_c, 0, 64, 58
1, 43542, Note_on_c, 0, 49, 106
1, 43555, Control_c, 0, 64, 65
1, 43569, Control_c, 0, 64, 71
1, 43584, Control_c, 0, 64, 79
1, 43600, Control_c, 0, 64, 91
1, 43615, Control_c, 0, 64, 112
1, 43636, Control_c, 0, 64, 127
1, 43639, Note_off_c, 0, 69, 55
1, 43669, Note_off_c, 0, 73, 58
1, 43669, Note_off_c, 0, 80, 59
1, 43830, Control_c, 0, 64, 105
1, 43845, Control_c, 0, 64, 77
1, 43859, Control_c, 0, 64, 62
1, 43870, Note_on_c, 0, 80, 86
1, 43874, Control_c, 0, 64, 54
1, 43878, Note_on_c, 0, 70, 72
1, 43883, Note_on_c, 0, 76, 71
1, 43889, Control_c, 0, 64, 59
1, 43904, Control_c, 0, 64, 65
1, 43919, Control_c, 0, 64, 78
1, 43934, Control_c, 0, 64, 102
1, 43944, Note_off_c, 0, 70, 59
1, 43949, Control_c, 0, 64, 127
1, 43958, Note_off_c, 0, 76, 58
1, 43979, Note_off_c, 0, 80, 52
1, 44122, Note_off_c, 0, 49, 41
1, 44171, Control_c, 0, 64, 100
1, 44172, Note_on_c, 0, 80, 82
1, 44184, Note_on_c, 0, 71, 64
1, 44186, Control_c, 0, 64, 74
1, 44187, Note_on_c, 0, 47, 71
1, 44188, Note_on_c, 0, 76, 68
1, 44200, Control_c, 0, 64, 60
1, 44215, Control_c, 0, 64, 53
1, 44230, Control_c, 0, 64, 59
1, 44238, Note_off_c, 0, 76, 61
1, 44244, Note_off_c, 0, 80, 61
1, 44244, Control_c, 0, 64, 65
1, 44259, Control_c, 0, 64, 76
1, 44266, Note_off_c, 0, 47, 62
1, 44271, Note_off_c, 0, 71, 55
1, 44274, Control_c, 0, 64, 97
1, 44276, Note_on_c, 0, 49, 87
1, 44289, Control_c, 0, 64, 127
1, 44354, Note_on_c, 0, 47, 87
1, 44375, Note_off_c, 0, 49, 63
1, 44459, Note_on_c, 0, 45, 88
1, 44460, Note_on_c, 0, 78, 101
1, 44462, Note_off_c, 0, 47, 64
1, 44467, Note_on_c, 0, 71, 90
1, 44468, Note_on_c, 0, 75, 82
1, 44509, Note_off_c, 0, 75, 55
1, 44515, Note_off_c, 0, 45, 63
1, 44522, Note_off_c, 0, 71, 62
1, 44526, Note_off_c, 0, 78, 60
1, 44547, Note_on_c, 0, 47, 93
1, 44634, Note_on_c, 0, 45, 93
1, 44648, Note_off_c, 0, 47, 65
1, 44732, Note_on_c, 0, 44, 96
1, 44742, Note_on_c, 0, 76, 105
1, 44751, Note_on_c, 0, 71, 81
1, 44751, Note_off_c, 0, 45, 63
1, 44769, Note_off_c, 0, 44, 64
1, 44777, Note_off_c, 0, 71, 66
1, 44792, Note_off_c, 0, 76, 62
1, 44815, Control_c, 0, 64, 100
1, 44830, Control_c, 0, 64, 73
1, 44845, Control_c, 0, 64, 58
1, 44860, Control_c, 0, 64, 35
1, 44874, Control_c, 0, 64, 0
1, 45037, Note_on_c, 0, 40, 92
1, 45044, Note_on_c, 0, 64, 95
1, 45046, Note_on_c, 0, 68, 94
1, 45046, Note_on_c, 0, 76, 101
1, 45074, Note_off_c, 0, 64, 64
1, 45092, Note_off_c, 0, 76, 66
1, 45095, Note_off_c, 0, 68, 64
1, 45104, Note_off_c, 0, 40, 62
1, 45312, Control_c, 0, 64, 34
1, 45327, Control_c, 0, 64, 36
1, 45342, Control_c, 0, 64, 37
1, 45357, Control_c, 0, 64, 38
1, 45377, Note_on_c, 0, 65, 106
1, 45379, Note_on_c, 0, 76, 99
1, 45380, Note_on_c, 0, 69, 88
1, 45386, Control_c, 0, 64, 36
1, 45401, Control_c, 0, 64, 0
1, 45690, Note_on_c, 0, 60, 106
1, 45722, Note_off_c, 0, 60, 68
1, 45912, Control_c, 0, 64, 44
1, 45927, Control_c, 0, 64, 57
1, 45942, Control_c, 0, 64, 63
1, 45956, Control_c, 0, 64, 67
1, 45971, Control_c, 0, 64, 72
1, 45986, Control_c, 0, 64, 79
1, 46001, Control_c, 0, 64, 88
1, 46016, Control_c, 0, 64, 103
1, 46030, Control_c, 0, 64, 127
1, 46038, Note_on_c, 0, 45, 105
1, 46098, Note_off_c, 0, 69, 58
1, 46132, Note_off_c, 0, 65, 61
1, 46208, Note_off_c, 0, 76, 51
1, 46239, Control_c, 0, 64, 125
1, 46253, Control_c, 0, 64, 80
1, 46268, Control_c, 0, 64, 62
1, 46283, Control_c, 0, 64, 33
1, 46298, Control_c, 0, 64, 0
1, 46313, Control_c, 0, 64, 46
1, 46328, Control_c, 0, 64, 59
1, 46342, Control_c, 0, 64, 68
1, 46348, Note_on_c, 0, 76, 74
1, 46354, Note_on_c, 0, 66, 75
1, 46357, Control_c, 0, 64, 79
1, 46365, Note_on_c, 0, 72, 63
1, 46372, Control_c, 0, 64, 95
1, 46387, Control_c, 0, 64, 114
1, 46402, Control_c, 0, 64, 127
1, 46428, Note_off_c, 0, 66, 55
1, 46442, Note_off_c, 0, 72, 57
1, 46465, Note_off_c, 0, 76, 53
1, 46608, Control_c, 0, 64, 100
1, 46631, Control_c, 0, 64, 75
1, 46635, Note_off_c, 0, 45, 54
1, 46645, Control_c, 0, 64, 60
1, 46660, Control_c, 0, 64, 46
1, 46675, Control_c, 0, 64, 50
1, 46679, Note_on_c, 0, 43, 51
1, 46680, Note_on_c, 0, 76, 67
1, 46682, Note_on_c, 0, 67, 56
1, 46685, Note_on_c, 0, 72, 53
1, 46690, Control_c, 0, 64, 58
1, 46705, Control_c, 0, 64, 65
1, 46719, Control_c, 0, 64, 76
1, 46734, Control_c, 0, 64, 90
1, 46748, Note_off_c, 0, 43, 61
1, 46748, Note_off_c, 0, 72, 55
1, 46749, Control_c, 0, 64, 104
1, 46764, Control_c, 0, 64, 117
1, 46769, Note_on_c, 0, 45, 81
1, 46778, Control_c, 0, 64, 127
1, 46803, Note_off_c, 0, 67, 32
1, 46848, Note_on_c, 0, 43, 90
1, 46864, Note_off_c, 0, 45, 60
1, 46882, Note_off_c, 0, 76, 37
1, 46938, Note_on_c, 0, 67, 93
1, 46938, Note_on_c, 0, 74, 96
1, 46939, Note_on_c, 0, 41, 87
1, 46944, Note_on_c, 0, 71, 78
1, 46954, Note_off_c, 0, 43, 62
1, 46987, Note_off_c, 0, 67, 63
1, 46994, Note_off_c, 0, 71, 59
1, 47001, Note_off_c, 0, 41, 63
1, 47012, Note_off_c, 0, 74, 59
1, 47037, Note_on_c, 0, 43, 92
1, 47114, Note_on_c, 0, 41, 90
1, 47129, Note_on_c, 0, 67, 12
1, 47145, Note_off_c, 0, 43, 63
1, 47170, Note_off_c, 0, 67, 51
1, 47216, Note_on_c, 0, 79, 91
1, 47216, Note_on_c, 0, 40, 77
1, 47222, Note_on_c, 0, 67, 88
1, 47222, Note_on_c, 0, 72, 81
1, 47231, Note_off_c, 0, 41, 60
1, 47259, Note_off_c, 0, 79, 66
1, 47270, Note_off_c, 0, 72, 64
1, 47292, Note_off_c, 0, 40, 57
1, 47293, Note_off_c, 0, 67, 64
1, 47298, Control_c, 0, 64, 86
1, 47304, Note_on_c, 0, 41, 87
1, 47313, Control_c, 0, 64, 68
1, 47328, Control_c, 0, 64, 52
1, 47342, Control_c, 0, 64, 0
1, 47404, Note_on_c, 0, 40, 78
1, 47418, Note_off_c, 0, 41, 62
1, 47499, Note_on_c, 0, 38, 73
1, 47503, Note_off_c, 0, 40, 62
1, 47508, Note_on_c, 0, 64, 70
1, 47509, Note_on_c, 0, 71, 75
1, 47517, Note_on_c, 0, 68, 64
1, 47538, Note_off_c, 0, 64, 60
1, 47546, Note_off_c, 0, 68, 66
1, 47547, Note_off_c, 0, 71, 61
1, 47548, Note_off_c, 0, 38, 60
1, 47583, Note_on_c, 0, 40, 70
1, 47666, Note_off_c, 0, 40, 62
1, 47675, Note_on_c, 0, 38, 63
1, 47745, Note_off_c, 0, 38, 61
1, 47780, Control_c, 0, 64, 39
1, 47782, Note_on_c, 0, 36, 57
1, 47795, Control_c, 0, 64, 52
1, 47805, Note_on_c, 0, 76, 71
1, 47809, Note_on_c, 0, 64, 59
1, 47810, Control_c, 0, 64, 61
1, 47815, Note_on_c, 0, 69, 55
1, 47824, Control_c, 0, 64, 66
1, 47836, Note_off_c, 0, 64, 60
1, 47839, Control_c, 0, 64, 71
1, 47854, Control_c, 0, 64, 79
1, 47856, Note_off_c, 0, 69, 65
1, 47863, Note_off_c, 0, 36, 61
1, 47869, Control_c, 0, 64, 92
1, 47876, Note_off_c, 0, 76, 64
1, 47884, Control_c, 0, 64, 118
1, 47899, Control_c, 0, 64, 127
1, 48062, Control_c, 0, 64, 112
1, 48077, Control_c, 0, 64, 77
1, 48091, Control_c, 0, 64, 56
1, 48105, Note_on_c, 0, 80, 73
1, 48106, Control_c, 0, 64, 0
1, 48110, Note_on_c, 0, 71, 64
1, 48125, Note_on_c, 0, 76, 58
1, 48129, Note_on_c, 0, 50, 60
1, 48143, Control_c, 0, 64, 44
1, 48158, Control_c, 0, 64, 57
1, 48173, Control_c, 0, 64, 65
1, 48173, Note_off_c, 0, 76, 56
1, 48185, Note_off_c, 0, 71, 59
1, 48185, Note_off_c, 0, 80, 60
1, 48188, Control_c, 0, 64, 75
1, 48189, Note_off_c, 0, 50, 61
1, 48203, Control_c, 0, 64, 96
1, 48210, Note_on_c, 0, 52, 79
1, 48217, Control_c, 0, 64, 127
1, 48292, Note_on_c, 0, 50, 89
1, 48314, Note_off_c, 0, 52, 61
1, 48365, Control_c, 0, 64, 92
1, 48374, Note_on_c, 0, 81, 101
1, 48375, Note_on_c, 0, 69, 96
1, 48380, Note_on_c, 0, 76, 85
1, 48380, Control_c, 0, 64, 67
1, 48387, Note_on_c, 0, 48, 84
1, 48393, Note_off_c, 0, 50, 63
1, 48395, Control_c, 0, 64, 40
1, 48410, Control_c, 0, 64, 39
1, 48424, Control_c, 0, 64, 56
1, 48438, Note_off_c, 0, 76, 63
1, 48439, Note_off_c, 0, 81, 63
1, 48440, Control_c, 0, 64, 66
1, 48441, Note_off_c, 0, 48, 64
1, 48455, Control_c, 0, 64, 78
1, 48468, Note_off_c, 0, 69, 64
1, 48470, Control_c, 0, 64, 101
1, 48475, Note_on_c, 0, 50, 95
1, 48485, Control_c, 0, 64, 127
1, 48578, Note_on_c, 0, 48, 71
1, 48587, Note_off_c, 0, 50, 60
1, 48647, Control_c, 0, 64, 82
1, 48662, Control_c, 0, 64, 62
1, 48665, Note_off_c, 0, 48, 63
1, 48672, Note_on_c, 0, 74, 87
1, 48677, Control_c, 0, 64, 0
1, 48679, Note_on_c, 0, 64, 73
1, 48681, Note_on_c, 0, 47, 67
1, 48690, Note_on_c, 0, 68, 69
1, 48707, Control_c, 0, 64, 42
1, 48721, Control_c, 0, 64, 61
1, 48731, Note_off_c, 0, 47, 63
1, 48736, Control_c, 0, 64, 72
1, 48744, Note_off_c, 0, 74, 57
1, 48751, Control_c, 0, 64, 84
1, 48757, Note_off_c, 0, 68, 51
1, 48766, Control_c, 0, 64, 98
1, 48772, Note_off_c, 0, 64, 53
1, 48779, Note_on_c, 0, 48, 70
1, 48781, Control_c, 0, 64, 109
1, 48796, Control_c, 0, 64, 127
1, 48870, Note_off_c, 0, 48, 62
1, 48873, Note_on_c, 0, 47, 73
1, 48937, Control_c, 0, 64, 110
1, 48947, Note_off_c, 0, 47, 59
1, 48952, Control_c, 0, 64, 81
1, 48966, Control_c, 0, 64, 63
1, 48977, Note_on_c, 0, 45, 65
1, 48978, Note_on_c, 0, 72, 72
1, 48981, Control_c, 0, 64, 36
1, 48986, Note_on_c, 0, 64, 64
1, 48993, Note_on_c, 0, 69, 58
1, 48996, Control_c, 0, 64, 0
1, 49011, Control_c, 0, 64, 47
1, 49022, Note_off_c, 0, 69, 66
1, 49026, Control_c, 0, 64, 60
1, 49034, Note_off_c, 0, 45, 60
1, 49039, Note_off_c, 0, 72, 60
1, 49040, Control_c, 0, 64, 67
1, 49041, Note_off_c, 0, 64, 58
1, 49055, Control_c, 0, 64, 76
1, 49070, Note_on_c, 0, 47, 72
1, 49070, Control_c, 0, 64, 88
1, 49085, Control_c, 0, 64, 101
1, 49100, Control_c, 0, 64, 127
1, 49152, Note_on_c, 0, 45, 83
1, 49153, Note_off_c, 0, 47, 64
1, 49232, Note_off_c, 0, 45, 62
1, 49234, Control_c, 0, 64, 93
1, 49243, Note_on_c, 0, 43, 73
1, 49249, Control_c, 0, 64, 70
1, 49264, Control_c, 0, 64, 51
1, 49264, Note_on_c, 0, 71, 85
1, 49269, Note_on_c, 0, 59, 76
1, 49273, Note_on_c, 0, 64, 71
1, 49279, Control_c, 0, 64, 35
1, 49294, Control_c, 0, 64, 49
1, 49308, Note_off_c, 0, 43, 62
1, 49308, Control_c, 0, 64, 59
1, 49323, Control_c, 0, 64, 67
1, 49338, Control_c, 0, 64, 79
1, 49338, Note_off_c, 0, 64, 61
1, 49344, Note_on_c, 0, 45, 86
1, 49353, Control_c, 0, 64, 99
1, 49357, Note_off_c, 0, 71, 50
1, 49368, Control_c, 0, 64, 127
1, 49425, Note_off_c, 0, 59, 56
1, 49428, Note_on_c, 0, 43, 85
1, 49449, Note_off_c, 0, 45, 62
1, 49528, Note_on_c, 0, 42, 78
1, 49531, Control_c, 0, 64, 95
1, 49535, Note_off_c, 0, 43, 61
1, 49540, Note_on_c, 0, 69, 91
1, 49541, Note_on_c, 0, 59, 91
1, 49545, Control_c, 0, 64, 70
1, 49550, Note_on_c, 0, 63, 80
1, 49560, Control_c, 0, 64, 52
1, 49575, Control_c, 0, 64, 42
1, 49589, Control_c, 0, 64, 56
1, 49593, Note_off_c, 0, 42, 64
1, 49604, Control_c, 0, 64, 64
1, 49607, Note_off_c, 0, 59, 61
1, 49627, Control_c, 0, 64, 73
1, 49637, Note_off_c, 0, 69, 62
1, 49638, Note_on_c, 0, 43, 86
1, 49642, Control_c, 0, 64, 88
1, 49645, Note_off_c, 0, 63, 62
1, 49657, Control_c, 0, 64, 127
1, 49716, Note_on_c, 0, 42, 86
1, 49742, Note_off_c, 0, 43, 61
1, 49804, Control_c, 0, 64, 101
1, 49819, Control_c, 0, 64, 71
1, 49826, Note_on_c, 0, 40, 72
1, 49834, Note_on_c, 0, 61, 99
1, 49834, Control_c, 0, 64, 51
1, 49835, Note_off_c, 0, 42, 63
1, 49841, Note_on_c, 0, 69, 90
1, 49845, Note_on_c, 0, 64, 81
1, 49849, Control_c, 0, 64, 36
1, 49863, Control_c, 0, 64, 50
1, 49878, Control_c, 0, 64, 61
1, 49893, Control_c, 0, 64, 74
1, 49908, Control_c, 0, 64, 103
1, 49911, Note_off_c, 0, 40, 60
1, 49911, Note_off_c, 0, 64, 59
1, 49914, Note_off_c, 0, 69, 61
1, 49918, Note_off_c, 0, 61, 58
1, 49923, Control_c, 0, 64, 127
1, 49925, Note_on_c, 0, 42, 88
1, 50003, Note_on_c, 0, 40, 81
1, 50012, Note_off_c, 0, 42, 63
1, 50110, Note_on_c, 0, 39, 80
1, 50113, Note_off_c, 0, 40, 62
1, 50116, Control_c, 0, 64, 82
1, 50127, Note_on_c, 0, 63, 101
1, 50131, Note_on_c, 0, 69, 95
1, 50131, Control_c, 0, 64, 59
1, 50138, Note_on_c, 0, 66, 80
1, 50146, Control_c, 0, 64, 0
1, 50161, Control_c, 0, 64, 44
1, 50176, Control_c, 0, 64, 61
1, 50182, Note_off_c, 0, 39, 61
1, 50191, Control_c, 0, 64, 77
1, 50196, Note_off_c, 0, 63, 62
1, 50199, Note_off_c, 0, 66, 56
1, 50203, Note_on_c, 0, 40, 93
1, 50206, Control_c, 0, 64, 127
1, 50209, Note_off_c, 0, 69, 60
1, 50288, Note_on_c, 0, 39, 91
1, 50314, Note_off_c, 0, 40, 60
1, 50402, Note_on_c, 0, 37, 82
1, 50420, Control_c, 0, 64, 99
1, 50422, Note_off_c, 0, 39, 59
1, 50430, Note_on_c, 0, 70, 106
1, 50432, Note_on_c, 0, 64, 97
1, 50435, Control_c, 0, 64, 66
1, 50450, Control_c, 0, 64, 37
1, 50453, Note_on_c, 0, 66, 73
1, 50465, Control_c, 0, 64, 43
1, 50471, Note_on_c, 0, 71, 55
1, 50480, Control_c, 0, 64, 62
1, 50480, Note_off_c, 0, 64, 63
1, 50494, Control_c, 0, 64, 84
1, 50495, Note_off_c, 0, 71, 64
1, 50507, Note_off_c, 0, 37, 62
1, 50508, Note_on_c, 0, 39, 86
1, 50509, Note_off_c, 0, 70, 61
1, 50509, Control_c, 0, 64, 127
1, 50517, Note_off_c, 0, 66, 60
1, 50596, Note_on_c, 0, 37, 83
1, 50617, Note_off_c, 0, 39, 59
1, 50748, Note_off_c, 0, 37, 60
1, 50757, Note_on_c, 0, 35, 103
1, 50763, Note_on_c, 0, 63, 98
1, 50768, Note_on_c, 0, 71, 89
1, 50770, Note_on_c, 0, 66, 89
1, 50799, Note_off_c, 0, 35, 64
1, 50850, Control_c, 0, 64, 108
1, 50865, Control_c, 0, 64, 75
1, 50880, Control_c, 0, 64, 55
1, 50895, Control_c, 0, 64, 0
1, 50899, Poly_aftertouch_c, 0, 69, 127
1, 50947, Poly_aftertouch_c, 0, 69, 0
1, 51116, Note_on_c, 0, 47, 102
1, 51117, Note_on_c, 0, 39, 90
1, 51133, Note_on_c, 0, 35, 75
1, 51139, Control_c, 0, 64, 52
1, 51154, Control_c, 0, 64, 75
1, 51163, Note_off_c, 0, 35, 63
1, 51168, Control_c, 0, 64, 101
1, 51169, Note_off_c, 0, 71, 60
1, 51172, Note_off_c, 0, 63, 66
1, 51183, Control_c, 0, 64, 127
1, 51201, Note_off_c, 0, 47, 63
1, 51201, Note_off_c, 0, 66, 61
1, 51212, Note_off_c, 0, 39, 63
1, 51538, Control_c, 0, 64, 101
1, 51553, Control_c, 0, 64, 82
1, 51567, Note_on_c, 0, 47, 106
1, 51568, Control_c, 0, 64, 69
1, 51569, Note_on_c, 0, 40, 85
1, 51574, Note_on_c, 0, 36, 89
1, 51583, Control_c, 0, 64, 59
1, 51598, Control_c, 0, 64, 36
1, 51613, Control_c, 0, 64, 0
1, 51729, Note_on_c, 0, 78, 84
1, 51818, Note_on_c, 0, 79, 85
1, 51918, Note_off_c, 0, 78, 52
1, 51925, Note_on_c, 0, 81, 87
1, 51942, Note_off_c, 0, 79, 63
1, 51947, Control_c, 0, 64, 46
1, 51962, Control_c, 0, 64, 60
1, 51977, Control_c, 0, 64, 66
1, 51991, Control_c, 0, 64, 71
1, 52006, Control_c, 0, 64, 76
1, 52015, Note_on_c, 0, 79, 83
1, 52021, Control_c, 0, 64, 81
1, 52036, Control_c, 0, 64, 86
1, 52051, Control_c, 0, 64, 92
1, 52066, Control_c, 0, 64, 99
1, 52081, Control_c, 0, 64, 110
1, 52090, Note_off_c, 0, 81, 61
1, 52096, Control_c, 0, 64, 127
1, 52096, Note_on_c, 0, 78, 85
1, 52120, Note_off_c, 0, 79, 64
1, 52199, Note_on_c, 0, 79, 85
1, 52199, Control_c, 0, 64, 105
1, 52214, Control_c, 0, 64, 80
1, 52216, Note_off_c, 0, 78, 51
1, 52229, Control_c, 0, 64, 64
1, 52244, Control_c, 0, 64, 41
1, 52258, Control_c, 0, 64, 34
1, 52273, Control_c, 0, 64, 54
1, 52288, Note_on_c, 0, 76, 87
1, 52288, Control_c, 0, 64, 69
1, 52303, Control_c, 0, 64, 83
1, 52315, Note_off_c, 0, 79, 63
1, 52317, Control_c, 0, 64, 115
1, 52332, Control_c, 0, 64, 127
1, 52378, Note_on_c, 0, 74, 92
1, 52432, Note_off_c, 0, 76, 63
1, 52467, Note_on_c, 0, 72, 87
1, 52468, Note_off_c, 0, 74, 62
1, 52515, Note_off_c, 0, 72, 59
1, 52549, Note_on_c, 0, 71, 81
1, 52647, Note_on_c, 0, 69, 82
1, 52709, Note_off_c, 0, 71, 62
1, 52711, Control_c, 0, 64, 109
1, 52726, Control_c, 0, 64, 79
1, 52728, Note_off_c, 0, 69, 63
1, 52739, Note_on_c, 0, 67, 71
1, 52740, Control_c, 0, 64, 61
1, 52743, Note_on_c, 0, 46, 72
1, 52755, Control_c, 0, 64, 0
1, 52777, Note_off_c, 0, 47, 55
1, 52800, Control_c, 0, 64, 44
1, 52814, Control_c, 0, 64, 61
1, 52829, Note_on_c, 0, 66, 82
1, 52829, Control_c, 0, 64, 71
1, 52831, Note_off_c, 0, 67, 58
1, 52844, Control_c, 0, 64, 86
1, 52859, Control_c, 0, 64, 114
1, 52872, Note_off_c, 0, 36, 39
1, 52874, Control_c, 0, 64, 127
1, 52921, Note_on_c, 0, 64, 79
1, 52936, Poly_aftertouch_c, 0, 39, 127
1, 52977, Note_off_c, 0, 46, 58
1, 52977, Note_off_c, 0, 66, 60
1, 52999, Poly_aftertouch_c, 0, 39, 0
1, 52999, Note_off_c, 0, 40, 58
1, 53007, Note_on_c, 0, 63, 85
1, 53041, Note_off_c, 0, 64, 61
1, 53101, Note_on_c, 0, 66, 84
1, 53107, Note_off_c, 0, 63, 62
1, 53190, Note_on_c, 0, 64, 79
1, 53260, Control_c, 0, 64, 76
1, 53267, Note_off_c, 0, 66, 54
1, 53275, Control_c, 0, 64, 49
1, 53282, Note_on_c, 0, 47, 104
1, 53287, Note_on_c, 0, 39, 85
1, 53290, Control_c, 0, 64, 0
1, 53298, Note_on_c, 0, 59, 95
1, 53300, Note_on_c, 0, 35, 64
1, 53309, Note_off_c, 0, 64, 61
1, 53319, Control_c, 0, 64, 56
1, 53326, Note_off_c, 0, 35, 58
1, 53334, Control_c, 0, 64, 72
1, 53346, Note_off_c, 0, 47, 65
1, 53348, Note_off_c, 0, 39, 64
1, 53349, Control_c, 0, 64, 95
1, 53363, Note_off_c, 0, 59, 63
1, 53371, Control_c, 0, 64, 127
1, 53593, Control_c, 0, 64, 90
1, 53608, Control_c, 0, 64, 61
1, 53611, Note_on_c, 0, 59, 96
1, 53615, Note_on_c, 0, 51, 84
1, 53623, Control_c, 0, 64, 0
1, 53624, Note_on_c, 0, 47, 82
1, 53652, Control_c, 0, 64, 41
1, 53667, Control_c, 0, 64, 60
1, 53681, Note_off_c, 0, 47, 63
1, 53681, Control_c, 0, 64, 79
1, 53696, Control_c, 0, 64, 127
1, 53705, Poly_aftertouch_c, 0, 49, 127
1, 53738, Note_off_c, 0, 59, 61
1, 53741, Poly_aftertouch_c, 0, 49, 0
1, 53764, Note_off_c, 0, 51, 60
1, 54048, Note_on_c, 0, 59, 97
1, 54053, Note_on_c, 0, 48, 89
1, 54053, Note_on_c, 0, 52, 88
1, 54176, Note_on_c, 0, 90, 87
1, 54210, Control_c, 0, 64, 84
1, 54225, Control_c, 0, 64, 66
1, 54240, Control_c, 0, 64, 45
1, 54255, Control_c, 0, 64, 0
1, 54270, Note_on_c, 0, 91, 87
1, 54321, Note_off_c, 0, 90, 54
1, 54343, Control_c, 0, 64, 50
1, 54358, Control_c, 0, 64, 63
1, 54370, Note_on_c, 0, 93, 85
1, 54373, Control_c, 0, 64, 71
1, 54388, Control_c, 0, 64, 83
1, 54392, Note_off_c, 0, 91, 64
1, 54403, Control_c, 0, 64, 95
1, 54418, Control_c, 0, 64, 111
1, 54433, Control_c, 0, 64, 127
1, 54456, Note_on_c, 0, 91, 84
1, 54543, Note_on_c, 0, 90, 87
1, 54552, Note_off_c, 0, 93, 60
1, 54572, Note_off_c, 0, 91, 64
1, 54646, Note_on_c, 0, 91, 86
1, 54654, Control_c, 0, 64, 83
1, 54662, Note_off_c, 0, 90, 57
1, 54669, Control_c, 0, 64, 66
1, 54684, Control_c, 0, 64, 55
1, 54699, Control_c, 0, 64, 60
1, 54713, Control_c, 0, 64, 66
1, 54728, Control_c, 0, 64, 77
1, 54734, Note_on_c, 0, 88, 94
1, 54743, Control_c, 0, 64, 100
1, 54758, Control_c, 0, 64, 127
1, 54767, Note_off_c, 0, 91, 61
1, 54820, Note_on_c, 0, 86, 90
1, 54880, Note_off_c, 0, 88, 64
1, 54913, Note_on_c, 0, 84, 84
1, 54913, Note_off_c, 0, 86, 64
1, 54988, Note_off_c, 0, 84, 45
1, 54990, Note_on_c, 0, 83, 82
1, 55081, Note_on_c, 0, 81, 79
1, 55135, Note_off_c, 0, 83, 61
1, 55153, Note_off_c, 0, 81, 63
1, 55165, Note_on_c, 0, 79, 73
1, 55166, Control_c, 0, 64, 96
1, 55175, Note_on_c, 0, 58, 55
1, 55181, Control_c, 0, 64, 69
1, 55196, Control_c, 0, 64, 48
1, 55210, Control_c, 0, 64, 0
1, 55213, Note_off_c, 0, 59, 45
1, 55225, Control_c, 0, 64, 41
1, 55238, Note_off_c, 0, 79, 45
1, 55240, Control_c, 0, 64, 54
1, 55252, Note_on_c, 0, 78, 76
1, 55255, Control_c, 0, 64, 64
1, 55270, Control_c, 0, 64, 77
1, 55274, Note_off_c, 0, 48, 35
1, 55284, Control_c, 0, 64, 100
1, 55299, Control_c, 0, 64, 127
1, 55342, Note_on_c, 0, 76, 79
1, 55378, Note_off_c, 0, 78, 62
1, 55379, Note_off_c, 0, 58, 51
1, 55415, Note_off_c, 0, 52, 56
1, 55422, Note_on_c, 0, 75, 83
1, 55440, Note_off_c, 0, 76, 60
1, 55507, Note_on_c, 0, 78, 81
1, 55511, Note_off_c, 0, 75, 62
1, 55624, Note_on_c, 0, 76, 72
1, 55688, Note_off_c, 0, 78, 52
1, 55700, Note_off_c, 0, 76, 61
1, 55722, Control_c, 0, 64, 87
1, 55725, Note_on_c, 0, 59, 46
1, 55730, Note_on_c, 0, 47, 46
1, 55730, Note_on_c, 0, 71, 65
1, 55733, Note_on_c, 0, 51, 41
1, 55737, Control_c, 0, 64, 68
1, 55752, Control_c, 0, 64, 55
1, 55766, Control_c, 0, 64, 54
1, 55781, Control_c, 0, 64, 61
1, 55795, Note_off_c, 0, 71, 54
1, 55796, Control_c, 0, 64, 67
1, 55811, Control_c, 0, 64, 77
1, 55822, Note_on_c, 0, 75, 64
1, 55826, Control_c, 0, 64, 95
1, 55840, Control_c, 0, 64, 127
1, 55879, Note_off_c, 0, 59, 40
1, 55895, Note_off_c, 0, 47, 40
1, 55911, Note_on_c, 0, 71, 70
1, 55919, Note_off_c, 0, 75, 55
1, 56001, Note_on_c, 0, 66, 79
1, 56018, Note_off_c, 0, 51, 35
1, 56039, Note_off_c, 0, 71, 55
1, 56079, Note_on_c, 0, 63, 75
1, 56079, Note_off_c, 0, 66, 60
1, 56147, Note_off_c, 0, 63, 57
1, 56182, Note_on_c, 0, 59, 65
1, 56253, Note_on_c, 0, 48, 39
1, 56277, Note_on_c, 0, 51, 28
1, 56288, Note_on_c, 0, 54, 39
1, 56329, Note_on_c, 0, 60, 74
1, 56330, Control_c, 0, 64, 109
1, 56345, Control_c, 0, 64, 80
1, 56362, Note_off_c, 0, 59, 57
1, 56367, Control_c, 0, 64, 63
1, 56382, Control_c, 0, 64, 0
1, 56426, Control_c, 0, 64, 34
1, 56442, Control_c, 0, 64, 51
1, 56457, Control_c, 0, 64, 64
1, 56472, Control_c, 0, 64, 74
1, 56487, Control_c, 0, 64, 93
1, 56501, Control_c, 0, 64, 127
1, 56508, Note_on_c, 0, 66, 47
1, 56538, Note_off_c, 0, 60, 47
1, 56585, Note_on_c, 0, 63, 63
1, 56660, Note_on_c, 0, 60, 76
1, 56690, Note_off_c, 0, 66, 40
1, 56697, Note_off_c, 0, 63, 57
1, 56776, Note_on_c, 0, 66, 60
1, 56839, Note_on_c, 0, 63, 54
1, 56913, Note_off_c, 0, 60, 19
1, 56926, Note_off_c, 0, 48, 41
1, 56928, Note_on_c, 0, 47, 40
1, 56928, Note_off_c, 0, 66, 26
1, 56960, Control_c, 0, 64, 91
1, 56963, Note_on_c, 0, 59, 62
1, 56975, Control_c, 0, 64, 69
1, 56976, Note_off_c, 0, 63, 48
1, 56990, Control_c, 0, 64, 51
1, 57005, Control_c, 0, 64, 0
1, 57034, Control_c, 0, 64, 37
1, 57049, Control_c, 0, 64, 54
1, 57064, Control_c, 0, 64, 66
1, 57074, Note_on_c, 0, 66, 52
1, 57079, Control_c, 0, 64, 74
1, 57092, Note_off_c, 0, 59, 52
1, 57094, Control_c, 0, 64, 82
1, 57115, Control_c, 0, 64, 88
1, 57130, Control_c, 0, 64, 91
1, 57145, Control_c, 0, 64, 94
1, 57148, Note_off_c, 0, 54, 37
1, 57160, Control_c, 0, 64, 96
1, 57166, Note_on_c, 0, 63, 40
1, 57175, Control_c, 0, 64, 99
1, 57220, Control_c, 0, 64, 101
1, 57245, Note_off_c, 0, 51, 41
1, 57250, Control_c, 0, 64, 103
1, 57253, Note_off_c, 0, 66, 26
1, 57262, Note_on_c, 0, 59, 54
1, 57292, Note_off_c, 0, 63, 36
1, 57309, Control_c, 0, 64, 105
1, 57348, Note_off_c, 0, 59, 56
1, 57372, Note_on_c, 0, 66, 48
1, 57425, Note_off_c, 0, 66, 43
1, 57443, Note_on_c, 0, 63, 39
1, 57530, Note_on_c, 0, 42, 43
1, 57531, Control_c, 0, 64, 99
1, 57539, Note_off_c, 0, 47, 41
1, 57546, Control_c, 0, 64, 85
1, 57561, Control_c, 0, 64, 71
1, 57566, Note_on_c, 0, 49, 32
1, 57571, Note_off_c, 0, 63, 36
1, 57576, Control_c, 0, 64, 53
1, 57579, Note_on_c, 0, 58, 56
1, 57580, Note_on_c, 0, 54, 25
1, 57591, Control_c, 0, 64, 0
1, 57620, Control_c, 0, 64, 47
1, 57635, Control_c, 0, 64, 59
1, 57649, Control_c, 0, 64, 66
1, 57664, Control_c, 0, 64, 75
1, 57678, Note_on_c, 0, 66, 57
1, 57679, Control_c, 0, 64, 86
1, 57694, Control_c, 0, 64, 96
1, 57709, Control_c, 0, 64, 102
1, 57724, Control_c, 0, 64, 109
1, 57727, Note_off_c, 0, 58, 37
1, 57733, Note_off_c, 0, 54, 40
1, 57738, Control_c, 0, 64, 117
1, 57744, Note_off_c, 0, 42, 39
1, 57753, Control_c, 0, 64, 127
1, 57761, Note_on_c, 0, 64, 50
1, 57827, Note_off_c, 0, 66, 31
1, 57863, Note_on_c, 0, 58, 58
1, 57888, Note_off_c, 0, 49, 36
1, 57920, Note_off_c, 0, 64, 35
1, 57953, Note_on_c, 0, 66, 62
1, 57998, Note_off_c, 0, 58, 37
1, 58067, Note_on_c, 0, 64, 46
1, 58105, Note_on_c, 0, 47, 35
1, 58117, Control_c, 0, 64, 106
1, 58132, Control_c, 0, 64, 83
1, 58135, Note_off_c, 0, 64, 58
1, 58145, Note_on_c, 0, 51, 37
1, 58147, Control_c, 0, 64, 67
1, 58154, Note_off_c, 0, 66, 36
1, 58162, Control_c, 0, 64, 57
1, 58175, Note_on_c, 0, 54, 37
1, 58177, Note_on_c, 0, 59, 53
1, 58177, Control_c, 0, 64, 54
1, 58192, Control_c, 0, 64, 60
1, 58206, Control_c, 0, 64, 66
1, 58219, Note_off_c, 0, 59, 55
1, 58221, Control_c, 0, 64, 76
1, 58230, Note_off_c, 0, 54, 61
1, 58236, Control_c, 0, 64, 96
1, 58251, Control_c, 0, 64, 127
1, 58268, Note_on_c, 0, 63, 60
1, 58305, Note_off_c, 0, 47, 41
1, 58314, Note_off_c, 0, 51, 43
1, 58350, Note_on_c, 0, 59, 66
1, 58371, Note_off_c, 0, 63, 58
1, 58452, Note_on_c, 0, 54, 73
1, 58481, Note_off_c, 0, 59, 58
1, 58523, Note_off_c, 0, 54, 62
1, 58528, Note_on_c, 0, 51, 70
1, 58556, Note_off_c, 0, 51, 66
1, 58625, Note_on_c, 0, 47, 71
1, 58732, Control_c, 0, 64, 99
1, 58740, Note_on_c, 0, 36, 58
1, 58746, Control_c, 0, 64, 76
1, 58761, Control_c, 0, 64, 59
1, 58762, Note_on_c, 0, 48, 66
1, 58773, Note_off_c, 0, 47, 57
1, 58776, Control_c, 0, 64, 0
1, 58837, Control_c, 0, 64, 47
1, 58851, Control_c, 0, 64, 61
1, 58866, Control_c, 0, 64, 67
1, 58881, Control_c, 0, 64, 72
1, 58896, Control_c, 0, 64, 77
1, 58906, Note_on_c, 0, 54, 43
1, 58910, Control_c, 0, 64, 82
1, 58925, Control_c, 0, 64, 86
1, 58940, Control_c, 0, 64, 90
1, 58955, Note_off_c, 0, 48, 34
1, 58955, Control_c, 0, 64, 98
1, 58970, Control_c, 0, 64, 111
1, 58985, Control_c, 0, 64, 127
1, 58985, Note_on_c, 0, 51, 52
1, 59029, Control_c, 0, 64, 108
1, 59044, Control_c, 0, 64, 89
1, 59059, Control_c, 0, 64, 74
1, 59059, Note_off_c, 0, 54, 35
1, 59074, Control_c, 0, 64, 63
1, 59076, Note_on_c, 0, 48, 59
1, 59080, Note_off_c, 0, 51, 55
1, 59089, Control_c, 0, 64, 60
1, 59103, Control_c, 0, 64, 63
1, 59118, Control_c, 0, 64, 67
1, 59133, Control_c, 0, 64, 74
1, 59148, Control_c, 0, 64, 84
1, 59163, Control_c, 0, 64, 96
1, 59177, Control_c, 0, 64, 106
1, 59184, Note_on_c, 0, 54, 44
1, 59186, Note_off_c, 0, 48, 54
1, 59192, Control_c, 0, 64, 113
1, 59207, Control_c, 0, 64, 119
1, 59221, Control_c, 0, 64, 122
1, 59249, Note_on_c, 0, 51, 40
1, 59258, Note_off_c, 0, 54, 42
1, 59340, Control_c, 0, 64, 113
1, 59363, Control_c, 0, 64, 97
1, 59377, Control_c, 0, 64, 78
1, 59378, Note_on_c, 0, 35, 40
1, 59382, Note_on_c, 0, 47, 56
1, 59392, Note_off_c, 0, 36, 35
1, 59392, Control_c, 0, 64, 64
1, 59397, Note_off_c, 0, 51, 35
1, 59407, Control_c, 0, 64, 46
1, 59422, Control_c, 0, 64, 0
1, 59451, Control_c, 0, 64, 41
1, 59466, Control_c, 0, 64, 58
1, 59479, Note_on_c, 0, 54, 37
1, 59481, Control_c, 0, 64, 66
1, 59485, Note_off_c, 0, 47, 55
1, 59496, Control_c, 0, 64, 75
1, 59510, Control_c, 0, 64, 86
1, 59525, Control_c, 0, 64, 95
1, 59540, Control_c, 0, 64, 100
1, 59555, Control_c, 0, 64, 102
1, 59570, Note_on_c, 0, 51, 38
1, 59599, Note_off_c, 0, 54, 32
1, 59630, Control_c, 0, 64, 104
1, 59664, Note_on_c, 0, 47, 50
1, 59673, Note_off_c, 0, 51, 37
1, 59749, Note_on_c, 0, 54, 48
1, 59754, Note_off_c, 0, 47, 54
1, 59863, Note_on_c, 0, 51, 32
1, 59870, Note_off_c, 0, 54, 38
1, 59922, Note_off_c, 0, 35, 34
1, 59941, Control_c, 0, 64, 101
1, 59949, Note_on_c, 0, 30, 36
1, 59956, Control_c, 0, 64, 93
1, 59971, Control_c, 0, 64, 81
1, 59986, Control_c, 0, 64, 68
1, 59997, Note_off_c, 0, 51, 37
1, 60000, Control_c, 0, 64, 53
1, 60007, Note_on_c, 0, 46, 47
1, 60015, Control_c, 0, 64, 0
1, 60074, Control_c, 0, 64, 47
1, 60089, Control_c, 0, 64, 61
1, 60111, Control_c, 0, 64, 66
1, 60114, Note_on_c, 0, 54, 38
1, 60126, Control_c, 0, 64, 71
1, 60141, Control_c, 0, 64, 76
1, 60151, Note_off_c, 0, 46, 37
1, 60156, Control_c, 0, 64, 79
1, 60171, Control_c, 0, 64, 80
1, 60185, Control_c, 0, 64, 81
1, 60195, Note_on_c, 0, 52, 45
1, 60200, Control_c, 0, 64, 83
1, 60215, Control_c, 0, 64, 84
1, 60230, Control_c, 0, 64, 85
1, 60244, Note_off_c, 0, 54, 31
1, 60259, Control_c, 0, 64, 85
1, 60296, Note_on_c, 0, 46, 40
1, 60307, Note_off_c, 0, 30, 19
1, 60317, Note_off_c, 0, 52, 35
1, 60394, Note_on_c, 0, 54, 43
1, 60438, Control_c, 0, 64, 86
1, 60455, Note_off_c, 0, 54, 52
1, 60456, Note_off_c, 0, 46, 29
1, 60467, Note_on_c, 0, 52, 41
1, 60586, Control_c, 0, 64, 85
1, 60601, Control_c, 0, 64, 79
1, 60616, Control_c, 0, 64, 70
1, 60624, Note_on_c, 0, 47, 42
1, 60630, Control_c, 0, 64, 60
1, 60631, Note_on_c, 0, 35, 34
1, 60633, Note_off_c, 0, 52, 32
1, 60645, Control_c, 0, 64, 36
1, 60660, Control_c, 0, 64, 0
1, 60704, Control_c, 0, 64, 36
1, 60719, Control_c, 0, 64, 51
1, 60734, Note_off_c, 0, 47, 49
1, 60734, Control_c, 0, 64, 63
1, 60741, Note_on_c, 0, 54, 44
1, 60749, Control_c, 0, 64, 69
1, 60764, Control_c, 0, 64, 76
1, 60779, Control_c, 0, 64, 80
1, 60794, Control_c, 0, 64, 83
1, 60808, Control_c, 0, 64, 86
1, 60822, Control_c, 0, 64, 90
1, 60830, Note_on_c, 0, 51, 44
1, 60837, Control_c, 0, 64, 94
1, 60858, Note_off_c, 0, 54, 36
1, 60859, Control_c, 0, 64, 98
1, 60874, Control_c, 0, 64, 100
1, 60904, Control_c, 0, 64, 102
1, 60919, Note_on_c, 0, 47, 51
1, 60977, Note_off_c, 0, 47, 57
1, 60988, Note_off_c, 0, 51, 34
1, 61005, Note_on_c, 0, 54, 51
1, 61080, Note_off_c, 0, 54, 52
1, 61108, Note_on_c, 0, 51, 44
1, 61170, Control_c, 0, 64, 96
1, 61185, Control_c, 0, 64, 84
1, 61199, Control_c, 0, 64, 71
1, 61207, Note_on_c, 0, 30, 33
1, 61209, Note_off_c, 0, 35, 36
1, 61214, Control_c, 0, 64, 57
1, 61230, Control_c, 0, 64, 0
1, 61237, Note_on_c, 0, 46, 46
1, 61239, Note_off_c, 0, 51, 35
1, 61275, Control_c, 0, 64, 42
1, 61290, Control_c, 0, 64, 56
1, 61304, Control_c, 0, 64, 64
1, 61319, Control_c, 0, 64, 70
1, 61334, Control_c, 0, 64, 76
1, 61349, Control_c, 0, 64, 81
1, 61352, Note_on_c, 0, 54, 51
1, 61360, Note_off_c, 0, 46, 0
1, 61364, Control_c, 0, 64, 86
1, 61378, Control_c, 0, 64, 90
1, 61393, Control_c, 0, 64, 93
1, 61407, Poly_aftertouch_c, 0, 46, 0
1, 61408, Control_c, 0, 64, 95
1, 61438, Control_c, 0, 64, 95
1, 61440, Note_on_c, 0, 52, 54
1, 61453, Control_c, 0, 64, 85
1, 61468, Control_c, 0, 64, 73
1, 61483, Control_c, 0, 64, 63
1, 61490, Note_off_c, 0, 54, 38
1, 61497, Control_c, 0, 64, 57
1, 61512, Control_c, 0, 64, 58
1, 61527, Control_c, 0, 64, 62
1, 61530, Note_on_c, 0, 46, 50
1, 61542, Control_c, 0, 64, 66
1, 61557, Control_c, 0, 64, 73
1, 61571, Control_c, 0, 64, 80
1, 61593, Control_c, 0, 64, 85
1, 61608, Control_c, 0, 64, 88
1, 61623, Control_c, 0, 64, 89
1, 61624, Note_off_c, 0, 46, 58
1, 61629, Note_on_c, 0, 55, 55
1, 61638, Control_c, 0, 64, 89
1, 61645, Note_off_c, 0, 52, 31
1, 61652, Control_c, 0, 64, 90
1, 61709, Note_off_c, 0, 55, 55
1, 61711, Note_on_c, 0, 52, 48
1, 61801, Control_c, 0, 64, 88
1, 61805, Note_off_c, 0, 30, 39
1, 61816, Control_c, 0, 64, 86
1, 61830, Control_c, 0, 64, 82
1, 61834, Note_on_c, 0, 35, 40
1, 61845, Control_c, 0, 64, 77
1, 61856, Note_on_c, 0, 47, 44
1, 61860, Control_c, 0, 64, 71
1, 61875, Control_c, 0, 64, 64
1, 61890, Control_c, 0, 64, 52
1, 61894, Note_off_c, 0, 52, 33
1, 61904, Control_c, 0, 64, 0
1, 61951, Note_on_c, 0, 54, 43
1, 61991, Note_off_c, 0, 47, 37
1, 62039, Note_on_c, 0, 52, 43
1, 62049, Note_off_c, 0, 54, 44
1, 62098, Control_c, 0, 64, 41
1, 62113, Control_c, 0, 64, 54
1, 62127, Control_c, 0, 64, 62
1, 62140, Note_off_c, 0, 52, 51
1, 62142, Control_c, 0, 64, 66
1, 62143, Note_on_c, 0, 47, 44
1, 62157, Control_c, 0, 64, 72
1, 62172, Control_c, 0, 64, 77
1, 62187, Control_c, 0, 64, 83
1, 62201, Control_c, 0, 64, 87
1, 62216, Control_c, 0, 64, 91
1, 62218, Note_off_c, 0, 47, 57
1, 62231, Control_c, 0, 64, 95
1, 62245, Note_on_c, 0, 54, 45
1, 62246, Control_c, 0, 64, 99
1, 62261, Control_c, 0, 64, 102
1, 62304, Note_off_c, 0, 54, 55
1, 62322, Note_on_c, 0, 51, 43
1, 62335, Control_c, 0, 64, 104
1, 62431, Control_c, 0, 64, 98
1, 62440, Note_on_c, 0, 30, 38
1, 62441, Note_off_c, 0, 35, 36
1, 62445, Control_c, 0, 64, 85
1, 62460, Control_c, 0, 64, 73
1, 62475, Control_c, 0, 64, 62
1, 62486, Note_on_c, 0, 46, 41
1, 62490, Control_c, 0, 64, 46
1, 62505, Control_c, 0, 64, 35
1, 62520, Control_c, 0, 64, 41
1, 62535, Control_c, 0, 64, 51
1, 62543, Note_off_c, 0, 51, 31
1, 62550, Control_c, 0, 64, 61
1, 62564, Control_c, 0, 64, 67
1, 62579, Control_c, 0, 64, 72
1, 62594, Control_c, 0, 64, 77
1, 62604, Note_on_c, 0, 54, 43
1, 62609, Control_c, 0, 64, 80
1, 62624, Control_c, 0, 64, 81
1, 62626, Note_off_c, 0, 46, 36
1, 62639, Control_c, 0, 64, 82
1, 62653, Control_c, 0, 64, 83
1, 62663, Note_off_c, 0, 54, 51
1, 62668, Control_c, 0, 64, 83
1, 62683, Note_on_c, 0, 52, 45
1, 62683, Control_c, 0, 64, 84
1, 62773, Note_on_c, 0, 46, 45
1, 62845, Note_off_c, 0, 46, 54
1, 62876, Note_off_c, 0, 52, 24
1, 62878, Note_on_c, 0, 55, 43
1, 62936, Note_off_c, 0, 55, 53
1, 62936, Control_c, 0, 64, 83
1, 62950, Control_c, 0, 64, 81
1, 62954, Note_on_c, 0, 52, 47
1, 62965, Control_c, 0, 64, 79
1, 62980, Control_c, 0, 64, 77
1, 62994, Control_c, 0, 64, 76
1, 63009, Control_c, 0, 64, 74
1, 63024, Control_c, 0, 64, 71
1, 63039, Control_c, 0, 64, 68
1, 63054, Control_c, 0, 64, 63
1, 63068, Control_c, 0, 64, 58
1, 63083, Control_c, 0, 64, 54
1, 63096, Note_off_c, 0, 30, 41
1, 63096, Note_off_c, 0, 52, 51
1, 63106, Control_c, 0, 64, 52
1, 63119, Note_on_c, 0, 35, 27
1, 63121, Control_c, 0, 64, 52
1, 63136, Control_c, 0, 64, 51
1, 63140, Note_on_c, 0, 54, 46
1, 63150, Control_c, 0, 64, 50
1, 63155, Note_on_c, 0, 51, 33
1, 63165, Control_c, 0, 64, 47
1, 63180, Control_c, 0, 64, 44
1, 63194, Control_c, 0, 64, 42
1, 63209, Control_c, 0, 64, 41
1, 63224, Control_c, 0, 64, 40
1, 63239, Note_off_c, 0, 51, 50
1, 63239, Control_c, 0, 64, 40
1, 63254, Control_c, 0, 64, 39
1, 63266, Note_on_c, 0, 47, 51
1, 63283, Control_c, 0, 64, 38
1, 63298, Control_c, 0, 64, 37
1, 63313, Control_c, 0, 64, 36
1, 63328, Control_c, 0, 64, 34
1, 63336, Note_off_c, 0, 47, 62
1, 63343, Control_c, 0, 64, 34
1, 63355, Note_on_c, 0, 46, 49
1, 63402, Note_off_c, 0, 46, 58
1, 63448, Note_on_c, 0, 47, 56
1, 63484, Note_off_c, 0, 47, 64
1, 63522, Note_on_c, 0, 51, 59
1, 63536, Note_off_c, 0, 54, 52
1, 63591, Note_off_c, 0, 51, 60
1, 63603, Note_on_c, 0, 50, 65
1, 63697, Note_off_c, 0, 50, 58
1, 63701, Note_on_c, 0, 51, 64
1, 63714, Control_c, 0, 64, 34
1, 63787, Note_on_c, 0, 54, 62
1, 63808, Note_off_c, 0, 51, 60
1, 63831, Note_off_c, 0, 54, 60
1, 63875, Note_on_c, 0, 53, 69
1, 63914, Control_c, 0, 64, 34
1, 63929, Control_c, 0, 64, 33
1, 63944, Control_c, 0, 64, 0
1, 63961, Note_on_c, 0, 54, 69
1, 63976, Note_off_c, 0, 53, 57
1, 64047, Control_c, 0, 64, 38
1, 64055, Note_off_c, 0, 54, 63
1, 64062, Note_on_c, 0, 59, 66
1, 64062, Control_c, 0, 64, 45
1, 64077, Control_c, 0, 64, 51
1, 64091, Control_c, 0, 64, 58
1, 64106, Control_c, 0, 64, 63
1, 64121, Control_c, 0, 64, 66
1, 64133, Note_off_c, 0, 35, 45
1, 64136, Control_c, 0, 64, 70
1, 64145, Note_on_c, 0, 58, 70
1, 64149, Note_off_c, 0, 59, 61
1, 64150, Control_c, 0, 64, 75
1, 64165, Control_c, 0, 64, 78
1, 64180, Control_c, 0, 64, 82
1, 64190, Note_off_c, 0, 58, 61
1, 64195, Control_c, 0, 64, 84
1, 64210, Control_c, 0, 64, 85
1, 64238, Note_on_c, 0, 59, 70
1, 64310, Note_off_c, 0, 59, 59
1, 64314, Control_c, 0, 64, 84
1, 64329, Control_c, 0, 64, 82
1, 64333, Note_on_c, 0, 63, 71
1, 64343, Control_c, 0, 64, 78
1, 64358, Control_c, 0, 64, 75
1, 64373, Control_c, 0, 64, 73
1, 64388, Control_c, 0, 64, 70
1, 64403, Control_c, 0, 64, 68
1, 64419, Note_off_c, 0, 63, 62
1, 64419, Control_c, 0, 64, 66
1, 64427, Note_on_c, 0, 62, 70
1, 64433, Control_c, 0, 64, 63
1, 64448, Control_c, 0, 64, 59
1, 64463, Control_c, 0, 64, 55
1, 64478, Control_c, 0, 64, 51
1, 64493, Control_c, 0, 64, 47
1, 64508, Control_c, 0, 64, 44
1, 64522, Control_c, 0, 64, 41
1, 64524, Note_on_c, 0, 63, 71
1, 64537, Control_c, 0, 64, 36
1, 64541, Note_off_c, 0, 62, 52
1, 64552, Control_c, 0, 64, 0
1, 64626, Note_on_c, 0, 66, 66
1, 64647, Note_off_c, 0, 63, 60
1, 64678, Note_off_c, 0, 66, 57
1, 64708, Note_on_c, 0, 65, 74
1, 64797, Note_on_c, 0, 66, 73
1, 64803, Note_off_c, 0, 65, 56
1, 64884, Note_off_c, 0, 66, 61
1, 64893, Note_on_c, 0, 71, 64
1, 64976, Note_on_c, 0, 70, 70
1, 64985, Note_off_c, 0, 71, 59
1, 65004, Control_c, 0, 64, 33
1, 65019, Control_c, 0, 64, 34
1, 65034, Control_c, 0, 64, 35
1, 65042, Note_off_c, 0, 70, 63
1, 65048, Control_c, 0, 64, 35
1, 65063, Control_c, 0, 64, 36
1, 65078, Note_on_c, 0, 71, 64
1, 65093, Control_c, 0, 64, 37
1, 65108, Control_c, 0, 64, 38
1, 65122, Control_c, 0, 64, 38
1, 65152, Note_off_c, 0, 71, 60
1, 65152, Control_c, 0, 64, 39
1, 65158, Note_on_c, 0, 75, 67
1, 65167, Control_c, 0, 64, 39
1, 65182, Control_c, 0, 64, 40
1, 65212, Control_c, 0, 64, 40
1, 65227, Control_c, 0, 64, 41
1, 65238, Note_off_c, 0, 75, 59
1, 65248, Note_on_c, 0, 74, 72
1, 65358, Note_off_c, 0, 74, 60
1, 65360, Note_on_c, 0, 75, 61
1, 65367, Control_c, 0, 64, 40
1, 65399, Note_off_c, 0, 75, 60
1, 65411, Control_c, 0, 64, 40
1, 65426, Control_c, 0, 64, 39
1, 65441, Control_c, 0, 64, 38
1, 65456, Control_c, 0, 64, 38
1, 65471, Control_c, 0, 64, 37
1, 65486, Control_c, 0, 64, 37
1, 65501, Control_c, 0, 64, 36
1, 65516, Note_on_c, 0, 76, 66
1, 65516, Control_c, 0, 64, 36
1, 65531, Control_c, 0, 64, 35
1, 65545, Control_c, 0, 64, 35
1, 65547, Note_off_c, 0, 76, 62
1, 65575, Control_c, 0, 64, 34
1, 65619, Control_c, 0, 64, 34
1, 65662, Note_on_c, 0, 78, 66
1, 65704, Note_off_c, 0, 78, 55
1, 65802, Note_on_c, 0, 76, 64
1, 65840, Note_off_c, 0, 76, 59
1, 65915, Control_c, 0, 64, 34
1, 65942, Note_on_c, 0, 75, 57
1, 65979, Note_off_c, 0, 75, 63
1, 66034, Control_c, 0, 64, 35
1, 66087, Note_on_c, 0, 73, 50
1, 66121, Note_off_c, 0, 73, 59
1, 66228, Note_on_c, 0, 71, 56
1, 66267, Note_off_c, 0, 71, 63
1, 66294, Control_c, 0, 64, 35
1, 66378, Note_on_c, 0, 70, 50
1, 66410, Note_off_c, 0, 70, 59
1, 66413, Control_c, 0, 64, 36
1, 66526, Note_on_c, 0, 71, 48
1, 66555, Note_off_c, 0, 71, 61
1, 66605, Control_c, 0, 64, 35
1, 66657, Note_on_c, 0, 73, 52
1, 66694, Note_off_c, 0, 73, 63
1, 66797, Note_on_c, 0, 75, 54
1, 66848, Note_off_c, 0, 75, 60
1, 66896, Control_c, 0, 64, 35
1, 66911, Control_c, 0, 64, 34
1, 66925, Control_c, 0, 64, 33
1, 66940, Control_c, 0, 64, 33
1, 66951, Note_on_c, 0, 75, 49
1, 66955, Control_c, 0, 64, 0
1, 66959, Note_on_c, 0, 78, 57
1, 66970, Note_on_c, 0, 71, 39
1, 66991, Note_off_c, 0, 75, 61
1, 66995, Note_off_c, 0, 78, 60
1, 67003, Note_off_c, 0, 71, 52
1, 67103, Note_on_c, 0, 78, 63
1, 67103, Control_c, 0, 67, 19
1, 67113, Note_on_c, 0, 73, 54
1, 67117, Control_c, 0, 67, 22
1, 67122, Note_on_c, 0, 70, 48
1, 67132, Control_c, 0, 67, 24
1, 67140, Note_off_c, 0, 78, 60
1, 67147, Control_c, 0, 67, 29
1, 67152, Note_off_c, 0, 73, 62
1, 67159, Note_off_c, 0, 70, 62
1, 67161, Control_c, 0, 67, 38
1, 67176, Control_c, 0, 67, 50
1, 67191, Control_c, 0, 67, 63
1, 67206, Control_c, 0, 67, 76
1, 67221, Control_c, 0, 67, 88
1, 67236, Note_on_c, 0, 78, 81
1, 67236, Control_c, 0, 67, 100
1, 67242, Note_on_c, 0, 71, 68
1, 67245, Note_on_c, 0, 68, 59
1, 67251, Control_c, 0, 67, 112
1, 67265, Control_c, 0, 67, 124
1, 67269, Note_off_c, 0, 71, 68
1, 67272, Note_off_c, 0, 78, 55
1, 67280, Control_c, 0, 67, 127
1, 67283, Note_off_c, 0, 68, 59
1, 67373, Note_on_c, 0, 78, 80
1, 67384, Note_on_c, 0, 70, 66
1, 67392, Note_on_c, 0, 66, 54
1, 67425, Note_off_c, 0, 70, 59
1, 67427, Note_off_c, 0, 78, 57
1, 67437, Note_off_c, 0, 66, 59
1, 67522, Note_on_c, 0, 78, 72
1, 67525, Note_on_c, 0, 73, 66
1, 67552, Note_off_c, 0, 78, 59
1, 67561, Note_off_c, 0, 73, 54
1, 67690, Note_on_c, 0, 78, 59
1, 67707, Note_on_c, 0, 63, 34
1, 67708, Note_on_c, 0, 71, 45
1, 67744, Note_off_c, 0, 63, 54
1, 67838, Note_on_c, 0, 64, 50
1, 67884, Note_off_c, 0, 64, 58
1, 67985, Note_on_c, 0, 66, 59
1, 68024, Note_off_c, 0, 66, 61
1, 68138, Note_on_c, 0, 64, 58
1, 68168, Note_off_c, 0, 64, 57
1, 68285, Note_on_c, 0, 63, 62
1, 68347, Note_off_c, 0, 63, 56
1, 68429, Note_on_c, 0, 61, 59
1, 68469, Note_off_c, 0, 61, 62
1, 68574, Note_on_c, 0, 59, 47
1, 68609, Note_off_c, 0, 59, 56
1, 68715, Note_on_c, 0, 58, 51
1, 68757, Note_off_c, 0, 58, 62
1, 68866, Note_on_c, 0, 59, 44
1, 68880, Note_off_c, 0, 78, 62
1, 68911, Note_off_c, 0, 71, 63
1, 68914, Note_off_c, 0, 59, 59
1, 69010, Note_on_c, 0, 60, 47
1, 69057, Note_off_c, 0, 60, 60
1, 69170, Note_on_c, 0, 61, 47
1, 69212, Note_off_c, 0, 61, 58
1, 69334, Note_on_c, 0, 71, 51
1, 69342, Note_on_c, 0, 59, 27
1, 69348, Note_on_c, 0, 63, 37
1, 69370, Note_off_c, 0, 71, 62
1, 69377, Note_off_c, 0, 63, 56
1, 69379, Note_off_c, 0, 59, 50
1, 69507, Note_on_c, 0, 58, 49
1, 69527, Note_on_c, 0, 71, 28
1, 69530, Note_on_c, 0, 61, 41
1, 69552, Note_off_c, 0, 58, 60
1, 69562, Note_off_c, 0, 61, 60
1, 69563, Note_off_c, 0, 71, 53
1, 69690, Note_on_c, 0, 71, 48
1, 69707, Note_on_c, 0, 57, 40
1, 69707, Note_on_c, 0, 59, 41
1, 69707, Note_on_c, 0, 63, 45
1, 69733, Note_off_c, 0, 71, 60
1, 69739, Note_off_c, 0, 59, 56
1, 69741, Note_off_c, 0, 57, 55
1, 69746, Note_off_c, 0, 63, 59
1, 69904, Note_on_c, 0, 56, 46
1, 69915, Note_on_c, 0, 64, 36
1, 69915, Note_on_c, 0, 71, 39
1, 69922, Note_on_c, 0, 59, 25
1, 69947, Note_off_c, 0, 64, 52
1, 69951, Note_off_c, 0, 56, 58
1, 69951, Note_off_c, 0, 71, 50
1, 69954, Note_off_c, 0, 59, 50
1, 70128, Note_on_c, 0, 71, 44
1, 70130, Note_on_c, 0, 54, 38
1, 70133, Note_on_c, 0, 63, 40
1, 70133, Note_on_c, 0, 57, 36
1, 70174, Note_off_c, 0, 71, 57
1, 70175, Note_off_c, 0, 57, 56
1, 70175, Note_off_c, 0, 63, 57
1, 70181, Note_off_c, 0, 54, 59
1, 70476, Note_on_c, 0, 71, 43
1, 70479, Note_on_c, 0, 52, 30
1, 70481, Note_on_c, 0, 56, 30
1, 70488, Note_on_c, 0, 64, 31
1, 70557, Control_c, 0, 64, 37
1, 70572, Control_c, 0, 64, 54
1, 70594, Control_c, 0, 64, 62
1, 70609, Control_c, 0, 64, 64
1, 70624, Control_c, 0, 64, 66
1, 70638, Control_c, 0, 64, 70
1, 70653, Control_c, 0, 64, 75
1, 70668, Control_c, 0, 64, 83
1, 70683, Control_c, 0, 64, 95
1, 70698, Control_c, 0, 64, 114
1, 70712, Control_c, 0, 64, 127
1, 70802, Note_off_c, 0, 64, 38
1, 70830, Note_off_c, 0, 71, 63
1, 71308, Note_on_c, 0, 76, 38
1, 71483, Note_on_c, 0, 75, 47
1, 71571, Note_off_c, 0, 52, 39
1, 71633, Note_off_c, 0, 76, 19
1, 71643, Note_on_c, 0, 73, 55
1, 71695, Note_off_c, 0, 75, 31
1, 71787, Note_on_c, 0, 71, 55
1, 71797, Note_off_c, 0, 73, 37
1, 71841, Note_off_c, 0, 71, 54
1, 71955, Note_off_c, 0, 56, 40
1, 71963, Note_on_c, 0, 57, 37
1, 71965, Note_on_c, 0, 54, 30
1, 71966, Control_c, 0, 64, 94
1, 71981, Control_c, 0, 64, 74
1, 71989, Note_on_c, 0, 71, 45
1, 71995, Note_on_c, 0, 63, 34
1, 71996, Control_c, 0, 64, 61
1, 72011, Control_c, 0, 64, 50
1, 72025, Control_c, 0, 64, 53
1, 72040, Control_c, 0, 64, 58
1, 72056, Control_c, 0, 64, 62
1, 72071, Control_c, 0, 64, 67
1, 72092, Control_c, 0, 64, 72
1, 72107, Control_c, 0, 64, 78
1, 72108, Note_off_c, 0, 71, 62
1, 72122, Control_c, 0, 64, 83
1, 72137, Control_c, 0, 64, 87
1, 72141, Note_off_c, 0, 57, 45
1, 72152, Control_c, 0, 64, 92
1, 72166, Control_c, 0, 64, 98
1, 72166, Control_c, 0, 67, 117
1, 72167, Note_off_c, 0, 54, 39
1, 72181, Control_c, 0, 64, 105
1, 72181, Control_c, 0, 67, 106
1, 72196, Control_c, 0, 64, 115
1, 72196, Control_c, 0, 67, 93
1, 72211, Control_c, 0, 64, 127
1, 72211, Control_c, 0, 67, 79
1, 72221, Note_off_c, 0, 63, 37
1, 72226, Control_c, 0, 67, 67
1, 72241, Control_c, 0, 67, 57
1, 72255, Control_c, 0, 67, 51
1, 72270, Control_c, 0, 67, 46
1, 72285, Control_c, 0, 67, 41
1, 72300, Control_c, 0, 67, 34
1, 72315, Control_c, 0, 67, 26
1, 72330, Control_c, 0, 67, 0
1, 72333, Note_on_c, 0, 71, 47
1, 72351, Note_on_c, 0, 54, 29
1, 72351, Note_on_c, 0, 63, 33
1, 72356, Note_on_c, 0, 57, 26
1, 72444, Note_off_c, 0, 71, 55
1, 72482, Note_off_c, 0, 63, 34
1, 72502, Note_off_c, 0, 57, 36
1, 72506, Note_off_c, 0, 54, 36
1, 72666, Note_on_c, 0, 54, 36
1, 72670, Note_on_c, 0, 71, 56
1, 72675, Note_on_c, 0, 57, 32
1, 72685, Note_on_c, 0, 63, 39
1, 72768, Note_off_c, 0, 63, 52
1, 72776, Note_off_c, 0, 71, 58
1, 72797, Note_off_c, 0, 57, 48
1, 72813, Note_off_c, 0, 54, 37
1, 73001, Note_on_c, 0, 57, 33
1, 73001, Note_on_c, 0, 71, 66
1, 73008, Note_on_c, 0, 54, 34
1, 73025, Note_on_c, 0, 63, 40
1, 73092, Note_off_c, 0, 63, 49
1, 73136, Note_off_c, 0, 71, 56
1, 73368, Note_on_c, 0, 71, 61
1, 73385, Note_on_c, 0, 64, 43
1, 73391, Note_on_c, 0, 59, 24
1, 73400, Note_on_c, 0, 56, 29
1, 73420, Control_c, 0, 64, 104
1, 73435, Control_c, 0, 64, 81
1, 73449, Control_c, 0, 64, 66
1, 73464, Control_c, 0, 64, 49
1, 73467, Note_off_c, 0, 57, 44
1, 73478, Note_off_c, 0, 54, 45
1, 73479, Control_c, 0, 64, 0
1, 73509, Control_c, 0, 64, 43
1, 73523, Control_c, 0, 64, 53
1, 73538, Control_c, 0, 64, 61
1, 73552, Control_c, 0, 64, 67
1, 73567, Control_c, 0, 64, 74
1, 73590, Control_c, 0, 64, 81
1, 73604, Control_c, 0, 64, 87
1, 73619, Control_c, 0, 64, 92
1, 73634, Control_c, 0, 64, 96
1, 73649, Control_c, 0, 64, 101
1, 73663, Control_c, 0, 64, 108
1, 73678, Control_c, 0, 64, 122
1, 73693, Control_c, 0, 64, 127
1, 73707, Note_on_c, 0, 68, 72
1, 73716, Note_on_c, 0, 52, 37
1, 73749, Note_off_c, 0, 64, 55
1, 73809, Note_off_c, 0, 59, 42
1, 74136, Note_on_c, 0, 73, 64
1, 74148, Note_on_c, 0, 61, 35
1, 74149, Note_on_c, 0, 64, 37
1, 74178, Note_on_c, 0, 57, 24
1, 74183, Control_c, 0, 64, 98
1, 74198, Control_c, 0, 64, 80
1, 74213, Control_c, 0, 64, 64
1, 74214, Note_off_c, 0, 71, 58
1, 74221, Note_off_c, 0, 52, 37
1, 74227, Control_c, 0, 64, 42
1, 74233, Note_off_c, 0, 56, 42
1, 74236, Note_off_c, 0, 68, 54
1, 74242, Control_c, 0, 64, 0
1, 74302, Control_c, 0, 64, 35
1, 74317, Control_c, 0, 64, 49
1, 74339, Control_c, 0, 64, 59
1, 74354, Control_c, 0, 64, 66
1, 74369, Control_c, 0, 64, 72
1, 74384, Control_c, 0, 64, 79
1, 74399, Control_c, 0, 64, 87
1, 74413, Control_c, 0, 64, 101
1, 74428, Control_c, 0, 64, 127
1, 74548, Note_off_c, 0, 61, 41
1, 74550, Note_off_c, 0, 73, 61
1, 74563, Note_off_c, 0, 57, 42
1, 74566, Note_off_c, 0, 64, 49
1, 74724, Control_c, 0, 67, 22
1, 74739, Control_c, 0, 67, 25
1, 74753, Control_c, 0, 67, 27
1, 74783, Control_c, 0, 67, 30
1, 74799, Control_c, 0, 67, 33
1, 74814, Control_c, 0, 67, 35
1, 74829, Control_c, 0, 67, 40
1, 74844, Control_c, 0, 67, 50
1, 74852, Note_on_c, 0, 71, 42
1, 74858, Note_on_c, 0, 56, 35
1, 74858, Control_c, 0, 67, 63
1, 74873, Note_on_c, 0, 59, 30
1, 74873, Control_c, 0, 64, 112
1, 74873, Control_c, 0, 67, 77
1, 74878, Note_on_c, 0, 64, 29
1, 74888, Control_c, 0, 64, 83
1, 74888, Control_c, 0, 67, 90
1, 74903, Control_c, 0, 64, 63
1, 74903, Control_c, 0, 67, 103
1, 74917, Control_c, 0, 64, 35
1, 74917, Control_c, 0, 67, 118
1, 74932, Control_c, 0, 64, 0
1, 74932, Control_c, 0, 67, 127
1, 74977, Control_c, 0, 64, 45
1, 74992, Control_c, 0, 64, 56
1, 75007, Control_c, 0, 64, 65
1, 75021, Control_c, 0, 64, 70
1, 75036, Control_c, 0, 64, 75
1, 75050, Control_c, 0, 64, 79
1, 75053, Note_off_c, 0, 56, 39
1, 75065, Control_c, 0, 64, 82
1, 75087, Control_c, 0, 64, 85
1, 75102, Control_c, 0, 64, 87
1, 75117, Control_c, 0, 64, 90
1, 75132, Control_c, 0, 64, 91
1, 75147, Control_c, 0, 64, 92
1, 75162, Control_c, 0, 64, 93
1, 75176, Control_c, 0, 64, 94
1, 75191, Control_c, 0, 64, 94
1, 75206, Control_c, 0, 64, 95
1, 75227, Note_on_c, 0, 56, 16
1, 75233, Note_on_c, 0, 68, 49
1, 75246, Note_on_c, 0, 52, 36
1, 75265, Control_c, 0, 64, 96
1, 75296, Note_off_c, 0, 52, 47
1, 75338, Note_off_c, 0, 56, 36
1, 75397, Note_off_c, 0, 71, 28
1, 75672, Note_on_c, 0, 47, 32
1, 75681, Control_c, 0, 64, 95
1, 75693, Note_on_c, 0, 66, 34
1, 75704, Note_on_c, 0, 54, 26
1, 75707, Note_on_c, 0, 63, 32
1, 75710, Control_c, 0, 64, 94
1, 75725, Control_c, 0, 64, 92
1, 75740, Control_c, 0, 64, 89
1, 75746, Note_off_c, 0, 59, 24
1, 75755, Control_c, 0, 64, 87
1, 75770, Control_c, 0, 64, 84
1, 75785, Control_c, 0, 64, 80
1, 75798, Control_c, 0, 64, 75
1, 75813, Control_c, 0, 64, 69
1, 75828, Note_off_c, 0, 64, 34
1, 75835, Note_off_c, 0, 68, 37
1, 75836, Control_c, 0, 64, 63
1, 75850, Control_c, 0, 64, 52
1, 75865, Control_c, 0, 64, 39
1, 75880, Control_c, 0, 64, 0
1, 76161, Control_c, 0, 64, 38
1, 76175, Control_c, 0, 64, 49
1, 76190, Control_c, 0, 64, 57
1, 76205, Control_c, 0, 64, 62
1, 76220, Control_c, 0, 64, 64
1, 76235, Control_c, 0, 64, 66
1, 76250, Control_c, 0, 64, 69
1, 76265, Control_c, 0, 64, 72
1, 76280, Control_c, 0, 64, 75
1, 76295, Control_c, 0, 64, 79
1, 76310, Control_c, 0, 64, 83
1, 76324, Control_c, 0, 64, 87
1, 76339, Control_c, 0, 64, 91
1, 76354, Control_c, 0, 64, 95
1, 76368, Control_c, 0, 64, 98
1, 76383, Control_c, 0, 64, 100
1, 76399, Control_c, 0, 64, 102
1, 76400, Note_off_c, 0, 47, 41
1, 76414, Control_c, 0, 64, 105
1, 76429, Control_c, 0, 64, 107
1, 76444, Control_c, 0, 64, 109
1, 76459, Control_c, 0, 64, 111
1, 76473, Control_c, 0, 64, 113
1, 76488, Control_c, 0, 64, 119
1, 76498, Note_off_c, 0, 54, 38
1, 76503, Control_c, 0, 64, 127
1, 76517, Note_off_c, 0, 63, 28
1, 76612, Note_off_c, 0, 66, 37
1, 77058, Control_c, 0, 64, 122
1, 77073, Control_c, 0, 64, 97
1, 77088, Control_c, 0, 64, 82
1, 77102, Control_c, 0, 64, 67
1, 77117, Control_c, 0, 64, 53
1, 77132, Control_c, 0, 64, 0
1, 77233, Note_on_c, 0, 66, 44
1, 77245, Note_on_c, 0, 78, 53
1, 77396, Note_off_c, 0, 66, 50
1, 77399, Note_off_c, 0, 78, 62
1, 77405, Note_on_c, 0, 80, 64
1, 77427, Note_on_c, 0, 68, 48
1, 77496, Control_c, 0, 67, 119
1, 77511, Note_off_c, 0, 68, 59
1, 77511, Control_c, 0, 67, 106
1, 77526, Control_c, 0, 67, 95
1, 77541, Control_c, 0, 67, 87
1, 77546, Note_off_c, 0, 80, 58
1, 77549, Note_on_c, 0, 81, 66
1, 77556, Control_c, 0, 67, 80
1, 77570, Note_on_c, 0, 69, 41
1, 77570, Control_c, 0, 67, 73
1, 77585, Control_c, 0, 67, 66
1, 77600, Control_c, 0, 67, 60
1, 77615, Control_c, 0, 67, 54
1, 77630, Control_c, 0, 67, 47
1, 77645, Control_c, 0, 67, 39
1, 77660, Control_c, 0, 67, 30
1, 77675, Control_c, 0, 67, 20
1, 77690, Control_c, 0, 67, 0
1, 77743, Note_off_c, 0, 81, 54
1, 77752, Note_on_c, 0, 83, 52
1, 77767, Note_on_c, 0, 64, 24
1, 77770, Note_off_c, 0, 69, 33
1, 77772, Note_on_c, 0, 68, 30
1, 77779, Note_on_c, 0, 71, 24
1, 77783, Note_on_c, 0, 76, 30
1, 77808, Control_c, 0, 64, 40
1, 77822, Control_c, 0, 64, 47
1, 77837, Control_c, 0, 64, 53
1, 77852, Control_c, 0, 64, 60
1, 77867, Control_c, 0, 64, 64
1, 77882, Control_c, 0, 64, 67
1, 77896, Control_c, 0, 64, 72
1, 77911, Control_c, 0, 64, 77
1, 77926, Control_c, 0, 64, 82
1, 77940, Control_c, 0, 64, 90
1, 77955, Control_c, 0, 64, 102
1, 77970, Control_c, 0, 64, 127
1, 78085, Note_off_c, 0, 76, 55
1, 78104, Note_off_c, 0, 68, 48
1, 78129, Note_off_c, 0, 83, 64
1, 78170, Note_off_c, 0, 64, 52
1, 78249, Note_off_c, 0, 71, 41
1, 78481, Note_on_c, 0, 88, 54
1, 78497, Note_on_c, 0, 76, 32
1, 78644, Note_on_c, 0, 87, 68
1, 78656, Note_on_c, 0, 75, 51
1, 78656, Note_off_c, 0, 76, 42
1, 78801, Note_on_c, 0, 85, 69
1, 78802, Note_off_c, 0, 88, 37
1, 78804, Note_off_c, 0, 75, 55
1, 78831, Note_on_c, 0, 73, 49
1, 78856, Note_off_c, 0, 87, 54
1, 78897, Note_off_c, 0, 73, 51
1, 78935, Note_on_c, 0, 83, 70
1, 78945, Note_off_c, 0, 85, 61
1, 78954, Note_on_c, 0, 71, 51
1, 78977, Note_off_c, 0, 71, 64
1, 78995, Note_off_c, 0, 83, 60
1, 79113, Control_c, 0, 64, 101
1, 79128, Control_c, 0, 64, 77
1, 79129, Note_on_c, 0, 83, 56
1, 79142, Control_c, 0, 64, 61
1, 79150, Note_on_c, 0, 71, 21
1, 79150, Note_on_c, 0, 69, 34
1, 79151, Note_on_c, 0, 75, 44
1, 79155, Note_on_c, 0, 66, 29
1, 79157, Control_c, 0, 64, 39
1, 79172, Control_c, 0, 64, 35
1, 79187, Control_c, 0, 64, 48
1, 79201, Control_c, 0, 64, 56
1, 79216, Control_c, 0, 64, 63
1, 79231, Control_c, 0, 64, 70
1, 79238, Note_off_c, 0, 83, 63
1, 79246, Control_c, 0, 64, 79
1, 79261, Control_c, 0, 64, 88
1, 79274, Note_off_c, 0, 71, 53
1, 79276, Control_c, 0, 64, 94
1, 79278, Note_off_c, 0, 69, 54
1, 79281, Note_off_c, 0, 66, 46
1, 79290, Control_c, 0, 64, 99
1, 79305, Note_off_c, 0, 75, 54
1, 79305, Control_c, 0, 64, 103
1, 79320, Control_c, 0, 64, 110
1, 79335, Control_c, 0, 64, 127
1, 79469, Note_on_c, 0, 83, 62
1, 79471, Note_on_c, 0, 75, 45
1, 79485, Note_on_c, 0, 71, 37
1, 79503, Note_on_c, 0, 69, 31
1, 79510, Note_on_c, 0, 66, 39
1, 79586, Note_off_c, 0, 83, 60
1, 79588, Note_off_c, 0, 71, 56
1, 79590, Note_off_c, 0, 66, 54
1, 79594, Note_off_c, 0, 69, 60
1, 79604, Note_off_c, 0, 75, 36
1, 79815, Note_on_c, 0, 83, 80
1, 79818, Note_on_c, 0, 75, 45
1, 79819, Note_on_c, 0, 71, 44
1, 79842, Note_on_c, 0, 69, 37
1, 79845, Note_on_c, 0, 66, 43
1, 79902, Note_off_c, 0, 75, 58
1, 79915, Note_off_c, 0, 71, 62
1, 79924, Note_off_c, 0, 69, 62
1, 79928, Note_off_c, 0, 66, 61
1, 79949, Note_off_c, 0, 83, 63
1, 80146, Note_on_c, 0, 83, 88
1, 80159, Note_on_c, 0, 71, 44
1, 80160, Note_on_c, 0, 75, 42
1, 80168, Note_on_c, 0, 69, 42
1, 80176, Note_on_c, 0, 66, 48
1, 80207, Note_off_c, 0, 75, 59
1, 80226, Note_off_c, 0, 71, 60
1, 80328, Note_off_c, 0, 83, 55
1, 80506, Note_on_c, 0, 83, 81
1, 80514, Note_on_c, 0, 67, 35
1, 80526, Note_on_c, 0, 76, 56
1, 80530, Note_on_c, 0, 71, 36
1, 80551, Control_c, 0, 64, 100
1, 80566, Control_c, 0, 64, 78
1, 80575, Note_off_c, 0, 66, 36
1, 80581, Control_c, 0, 64, 63
1, 80581, Note_off_c, 0, 69, 30
1, 80596, Control_c, 0, 64, 42
1, 80611, Control_c, 0, 64, 0
1, 80626, Control_c, 0, 64, 39
1, 80640, Control_c, 0, 64, 49
1, 80655, Control_c, 0, 64, 57
1, 80670, Control_c, 0, 64, 62
1, 80685, Control_c, 0, 64, 68
1, 80700, Control_c, 0, 64, 75
1, 80714, Control_c, 0, 64, 85
1, 80729, Control_c, 0, 64, 94
1, 80744, Control_c, 0, 64, 100
1, 80759, Control_c, 0, 64, 106
1, 80773, Control_c, 0, 64, 113
1, 80788, Control_c, 0, 64, 127
1, 80843, Note_on_c, 0, 79, 85
1, 80853, Note_on_c, 0, 64, 40
1, 80888, Note_off_c, 0, 76, 42
1, 80930, Note_off_c, 0, 71, 41
1, 81242, Note_on_c, 0, 69, 33
1, 81257, Note_on_c, 0, 84, 83
1, 81275, Note_on_c, 0, 72, 28
1, 81307, Note_on_c, 0, 76, 39
1, 81315, Control_c, 0, 64, 100
1, 81330, Control_c, 0, 64, 79
1, 81344, Control_c, 0, 64, 65
1, 81359, Control_c, 0, 64, 46
1, 81374, Control_c, 0, 64, 0
1, 81381, Note_off_c, 0, 79, 61
1, 81383, Note_off_c, 0, 76, 0
1, 81383, Note_on_c, 0, 76, 28
1, 81389, Control_c, 0, 64, 34
1, 81390, Note_off_c, 0, 64, 55
1, 81396, Note_off_c, 0, 83, 59
1, 81404, Control_c, 0, 64, 45
1, 81419, Control_c, 0, 64, 54
1, 81434, Control_c, 0, 64, 61
1, 81434, Control_c, 0, 67, 19
1, 81449, Control_c, 0, 64, 68
1, 81449, Control_c, 0, 67, 27
1, 81451, Note_off_c, 0, 67, 51
1, 81463, Control_c, 0, 64, 78
1, 81463, Control_c, 0, 67, 38
1, 81478, Control_c, 0, 64, 90
1, 81478, Control_c, 0, 67, 54
1, 81493, Control_c, 0, 64, 95
1, 81493, Control_c, 0, 67, 72
1, 81508, Control_c, 0, 64, 100
1, 81508, Control_c, 0, 67, 88
1, 81522, Control_c, 0, 64, 104
1, 81522, Control_c, 0, 67, 102
1, 81537, Control_c, 0, 64, 110
1, 81537, Control_c, 0, 67, 115
1, 81552, Control_c, 0, 64, 120
1, 81552, Control_c, 0, 67, 126
1, 81567, Control_c, 0, 64, 127
1, 81589, Note_off_c, 0, 72, 41
1, 81624, Note_on_c, 0, 78, 59
1, 81644, Note_off_c, 0, 69, 52
1, 81678, Note_off_c, 0, 76, 41
1, 81690, Note_off_c, 0, 84, 58
1, 81832, Note_off_c, 0, 78, 50
1, 81944, Control_c, 0, 64, 122
1, 81959, Control_c, 0, 64, 104
1, 81974, Control_c, 0, 64, 88
1, 81990, Control_c, 0, 64, 72
1, 82005, Note_on_c, 0, 83, 62
1, 82005, Control_c, 0, 64, 60
1, 82019, Control_c, 0, 64, 45
1, 82027, Note_on_c, 0, 67, 14
1, 82031, Note_on_c, 0, 71, 11
1, 82034, Control_c, 0, 64, 39
1, 82039, Note_on_c, 0, 79, 33
1, 82049, Control_c, 0, 64, 43
1, 82064, Control_c, 0, 64, 50
1, 82079, Control_c, 0, 64, 58
1, 82093, Control_c, 0, 64, 64
1, 82108, Control_c, 0, 64, 70
1, 82123, Control_c, 0, 64, 78
1, 82137, Control_c, 0, 64, 85
1, 82152, Control_c, 0, 64, 89
1, 82160, Note_off_c, 0, 79, 49
1, 82167, Control_c, 0, 64, 91
1, 82173, Note_off_c, 0, 67, 41
1, 82182, Control_c, 0, 64, 94
1, 82188, Note_off_c, 0, 71, 43
1, 82197, Control_c, 0, 64, 96
1, 82212, Control_c, 0, 64, 98
1, 82286, Control_c, 0, 64, 100
1, 82381, Note_on_c, 0, 79, 51
1, 82386, Note_on_c, 0, 59, 31
1, 82402, Note_on_c, 0, 74, 41
1, 82413, Note_on_c, 0, 67, 27
1, 82480, Note_off_c, 0, 83, 35
1, 82493, Note_off_c, 0, 59, 31
1, 82528, Note_off_c, 0, 74, 35
1, 82530, Note_off_c, 0, 67, 41
1, 82531, Note_off_c, 0, 79, 62
1, 82903, Control_c, 0, 64, 98
1, 82909, Note_on_c, 0, 81, 50
1, 82917, Control_c, 0, 64, 96
1, 82920, Note_on_c, 0, 69, 28
1, 82932, Control_c, 0, 64, 94
1, 82935, Note_on_c, 0, 78, 36
1, 82936, Note_on_c, 0, 62, 31
1, 82947, Control_c, 0, 64, 91
1, 82961, Control_c, 0, 64, 88
1, 82965, Note_off_c, 0, 81, 0
1, 82965, Note_on_c, 0, 81, 14
1, 82976, Control_c, 0, 64, 84
1, 82991, Control_c, 0, 64, 79
1, 83006, Control_c, 0, 64, 74
1, 83021, Control_c, 0, 64, 67
1, 83035, Control_c, 0, 64, 59
1, 83050, Control_c, 0, 64, 45
1, 83065, Control_c, 0, 64, 0
1, 83183, Control_c, 0, 64, 38
1, 83198, Control_c, 0, 64, 45
1, 83213, Control_c, 0, 64, 51
1, 83228, Control_c, 0, 64, 57
1, 83243, Control_c, 0, 64, 60
1, 83258, Control_c, 0, 64, 62
1, 83273, Control_c, 0, 64, 64
1, 83287, Control_c, 0, 64, 66
1, 83302, Control_c, 0, 64, 68
1, 83324, Control_c, 0, 64, 72
1, 83339, Control_c, 0, 64, 75
1, 83354, Control_c, 0, 64, 79
1, 83368, Control_c, 0, 64, 83
1, 83383, Control_c, 0, 64, 87
1, 83398, Control_c, 0, 64, 91
1, 83413, Control_c, 0, 64, 95
1, 83428, Control_c, 0, 64, 100
1, 83443, Control_c, 0, 64, 106
1, 83458, Control_c, 0, 64, 112
1, 83473, Control_c, 0, 64, 120
1, 83487, Control_c, 0, 64, 127
1, 83777, Note_off_c, 0, 62, 41
1, 83834, Note_off_c, 0, 69, 39
1, 84344, Note_off_c, 0, 81, 50
1, 84354, Control_c, 0, 64, 116
1, 84367, Note_off_c, 0, 78, 41
1, 84369, Control_c, 0, 64, 93
1, 84385, Control_c, 0, 64, 80
1, 84400, Control_c, 0, 64, 70
1, 84414, Control_c, 0, 64, 62
1, 84429, Control_c, 0, 64, 55
1, 84444, Control_c, 0, 64, 50
1, 84459, Control_c, 0, 64, 44
1, 84474, Control_c, 0, 64, 0
1, 84532, Note_on_c, 0, 50, 42
1, 84651, Control_c, 0, 64, 33
1, 84666, Control_c, 0, 64, 41
1, 84680, Note_off_c, 0, 50, 51
1, 84680, Control_c, 0, 64, 47
1, 84695, Control_c, 0, 64, 52
1, 84710, Note_on_c, 0, 49, 41
1, 84710, Control_c, 0, 64, 57
1, 84725, Control_c, 0, 64, 60
1, 84740, Control_c, 0, 64, 63
1, 84754, Control_c, 0, 64, 65
1, 84769, Control_c, 0, 64, 68
1, 84785, Control_c, 0, 64, 71
1, 84800, Control_c, 0, 64, 75
1, 84822, Control_c, 0, 64, 78
1, 84837, Control_c, 0, 64, 80
1, 84848, Note_off_c, 0, 49, 35
1, 84852, Control_c, 0, 64, 81
1, 84863, Note_on_c, 0, 48, 40
1, 84867, Control_c, 0, 64, 83
1, 84882, Control_c, 0, 64, 84
1, 84896, Control_c, 0, 64, 86
1, 84911, Control_c, 0, 64, 88
1, 84926, Control_c, 0, 64, 88
1, 84940, Control_c, 0, 64, 89
1, 85017, Note_off_c, 0, 48, 33
1, 85040, Note_on_c, 0, 47, 41
1, 85044, Control_c, 0, 64, 88
1, 85055, Note_on_c, 0, 62, 49
1, 85058, Note_on_c, 0, 67, 47
1, 85058, Control_c, 0, 64, 85
1, 85073, Control_c, 0, 64, 77
1, 85088, Control_c, 0, 64, 69
1, 85103, Control_c, 0, 64, 61
1, 85118, Control_c, 0, 64, 48
1, 85133, Control_c, 0, 64, 42
1, 85148, Control_c, 0, 64, 46
1, 85163, Control_c, 0, 64, 52
1, 85178, Control_c, 0, 64, 59
1, 85193, Control_c, 0, 64, 63
1, 85202, Note_on_c, 0, 50, 38
1, 85208, Control_c, 0, 64, 68
1, 85223, Control_c, 0, 64, 72
1, 85237, Control_c, 0, 64, 77
1, 85252, Control_c, 0, 64, 81
1, 85267, Control_c, 0, 64, 85
1, 85282, Control_c, 0, 64, 90
1, 85297, Control_c, 0, 64, 95
1, 85312, Control_c, 0, 64, 100
1, 85327, Control_c, 0, 64, 107
1, 85342, Note_off_c, 0, 50, 33
1, 85342, Control_c, 0, 64, 112
1, 85342, Control_c, 0, 67, 109
1, 85356, Control_c, 0, 64, 116
1, 85356, Control_c, 0, 67, 92
1, 85371, Control_c, 0, 64, 120
1, 85371, Control_c, 0, 67, 77
1, 85374, Note_on_c, 0, 55, 32
1, 85386, Control_c, 0, 64, 127
1, 85386, Control_c, 0, 67, 63
1, 85401, Control_c, 0, 67, 46
1, 85416, Control_c, 0, 67, 26
1, 85430, Control_c, 0, 67, 0
1, 85461, Note_off_c, 0, 55, 53
1, 85494, Note_on_c, 0, 50, 38
1, 85667, Note_off_c, 0, 50, 33
1, 85682, Note_off_c, 0, 67, 52
1, 85689, Note_on_c, 0, 55, 28
1, 85717, Note_on_c, 0, 69, 47
1, 85851, Note_on_c, 0, 50, 34
1, 85861, Note_off_c, 0, 55, 40
1, 85863, Note_on_c, 0, 67, 62
1, 85871, Note_off_c, 0, 69, 49
1, 85953, Note_off_c, 0, 50, 53
1, 86009, Note_on_c, 0, 55, 40
1, 86012, Note_on_c, 0, 69, 64
1, 86018, Note_off_c, 0, 67, 54
1, 86147, Note_on_c, 0, 67, 66
1, 86155, Note_off_c, 0, 55, 35
1, 86157, Note_on_c, 0, 50, 43
1, 86165, Note_off_c, 0, 47, 41
1, 86182, Note_off_c, 0, 62, 39
1, 86185, Note_off_c, 0, 69, 52
1, 86268, Control_c, 0, 64, 110
1, 86283, Control_c, 0, 64, 95
1, 86288, Note_off_c, 0, 50, 36
1, 86298, Control_c, 0, 64, 80
1, 86310, Note_on_c, 0, 48, 41
1, 86319, Control_c, 0, 64, 66
1, 86334, Note_off_c, 0, 67, 60
1, 86334, Control_c, 0, 64, 49
1, 86340, Note_on_c, 0, 66, 61
1, 86349, Control_c, 0, 64, 0
1, 86379, Control_c, 0, 64, 35
1, 86394, Control_c, 0, 64, 50
1, 86409, Control_c, 0, 64, 61
1, 86424, Control_c, 0, 64, 67
1, 86439, Control_c, 0, 64, 72
1, 86454, Control_c, 0, 64, 76
1, 86468, Control_c, 0, 64, 80
1, 86470, Note_on_c, 0, 50, 39
1, 86477, Note_off_c, 0, 66, 59
1, 86483, Control_c, 0, 64, 82
1, 86498, Control_c, 0, 64, 85
1, 86512, Control_c, 0, 64, 88
1, 86527, Control_c, 0, 64, 93
1, 86542, Control_c, 0, 64, 95
1, 86572, Control_c, 0, 64, 98
1, 86635, Note_off_c, 0, 50, 38
1, 86672, Note_on_c, 0, 74, 72
1, 86675, Control_c, 0, 64, 89
1, 86683, Note_on_c, 0, 57, 32
1, 86686, Note_on_c, 0, 66, 42
1, 86690, Control_c, 0, 64, 77
1, 86704, Control_c, 0, 64, 65
1, 86707, Note_on_c, 0, 62, 29
1, 86719, Control_c, 0, 64, 51
1, 86734, Control_c, 0, 64, 39
1, 86749, Control_c, 0, 64, 44
1, 86764, Control_c, 0, 64, 53
1, 86780, Control_c, 0, 64, 60
1, 86795, Control_c, 0, 64, 67
1, 86809, Control_c, 0, 64, 73
1, 86817, Note_on_c, 0, 50, 28
1, 86824, Control_c, 0, 64, 79
1, 86832, Note_off_c, 0, 57, 41
1, 86839, Control_c, 0, 64, 81
1, 86852, Note_off_c, 0, 74, 51
1, 86853, Note_off_c, 0, 66, 36
1, 86854, Control_c, 0, 64, 83
1, 86869, Control_c, 0, 64, 84
1, 86883, Control_c, 0, 64, 86
1, 86890, Note_off_c, 0, 62, 37
1, 86898, Control_c, 0, 64, 89
1, 86913, Control_c, 0, 64, 91
1, 86927, Control_c, 0, 64, 92
1, 86942, Control_c, 0, 64, 93
1, 86957, Control_c, 0, 64, 92
1, 86972, Control_c, 0, 64, 89
1, 86987, Note_off_c, 0, 50, 34
1, 86987, Control_c, 0, 64, 80
1, 86988, Note_on_c, 0, 74, 66
1, 86996, Note_on_c, 0, 57, 38
1, 87002, Control_c, 0, 64, 69
1, 87014, Note_on_c, 0, 66, 36
1, 87014, Note_on_c, 0, 62, 40
1, 87017, Control_c, 0, 64, 61
1, 87032, Control_c, 0, 64, 56
1, 87047, Control_c, 0, 64, 58
1, 87069, Control_c, 0, 64, 63
1, 87084, Control_c, 0, 64, 68
1, 87099, Control_c, 0, 64, 76
1, 87100, Note_off_c, 0, 66, 49
1, 87114, Control_c, 0, 64, 86
1, 87129, Control_c, 0, 64, 94
1, 87143, Control_c, 0, 64, 98
1, 87145, Note_on_c, 0, 50, 38
1, 87148, Note_off_c, 0, 74, 54
1, 87148, Note_off_c, 0, 57, 37
1, 87158, Control_c, 0, 64, 101
1, 87173, Control_c, 0, 64, 104
1, 87188, Note_off_c, 0, 62, 26
1, 87188, Control_c, 0, 64, 106
1, 87203, Control_c, 0, 64, 109
1, 87217, Control_c, 0, 64, 111
1, 87232, Control_c, 0, 64, 113
1, 87247, Control_c, 0, 64, 116
1, 87261, Control_c, 0, 64, 119
1, 87288, Note_off_c, 0, 50, 36
1, 87291, Control_c, 0, 64, 122
1, 87306, Control_c, 0, 64, 125
1, 87316, Note_on_c, 0, 74, 56
1, 87321, Control_c, 0, 64, 127
1, 87333, Note_on_c, 0, 57, 29
1, 87348, Note_on_c, 0, 66, 34
1, 87348, Note_on_c, 0, 62, 21
1, 87398, Note_off_c, 0, 62, 44
1, 87411, Note_off_c, 0, 66, 37
1, 87411, Note_off_c, 0, 74, 54
1, 87431, Note_off_c, 0, 48, 40
1, 87454, Note_on_c, 0, 50, 32
1, 87472, Note_off_c, 0, 57, 41
1, 87577, Note_off_c, 0, 50, 27
1, 87625, Note_on_c, 0, 47, 39
1, 87633, Control_c, 0, 64, 108
1, 87642, Note_on_c, 0, 67, 46
1, 87648, Control_c, 0, 64, 89
1, 87663, Control_c, 0, 64, 71
1, 87671, Note_on_c, 0, 62, 31
1, 87677, Control_c, 0, 64, 58
1, 87692, Control_c, 0, 64, 0
1, 87751, Control_c, 0, 64, 37
1, 87766, Control_c, 0, 64, 54
1, 87781, Control_c, 0, 64, 63
1, 87793, Note_on_c, 0, 50, 29
1, 87796, Control_c, 0, 64, 69
1, 87819, Control_c, 0, 64, 73
1, 87833, Control_c, 0, 64, 75
1, 87848, Control_c, 0, 64, 77
1, 87863, Control_c, 0, 64, 81
1, 87878, Control_c, 0, 64, 84
1, 87892, Control_c, 0, 64, 88
1, 87907, Control_c, 0, 64, 92
1, 87922, Control_c, 0, 64, 94
1, 87937, Control_c, 0, 64, 95
1, 87946, Note_off_c, 0, 50, 35
1, 87952, Control_c, 0, 64, 96
1, 87960, Note_off_c, 0, 67, 53
1, 87962, Note_on_c, 0, 55, 40
1, 87965, Note_on_c, 0, 66, 57
1, 87966, Control_c, 0, 64, 99
1, 87981, Control_c, 0, 64, 102
1, 87996, Control_c, 0, 64, 106
1, 88011, Control_c, 0, 64, 108
1, 88055, Control_c, 0, 64, 110
1, 88070, Control_c, 0, 64, 112
1, 88097, Note_on_c, 0, 50, 43
1, 88105, Note_on_c, 0, 67, 66
1, 88114, Control_c, 0, 64, 114
1, 88116, Note_off_c, 0, 55, 36
1, 88216, Note_off_c, 0, 66, 26
1, 88233, Control_c, 0, 64, 105
1, 88248, Control_c, 0, 64, 88
1, 88263, Control_c, 0, 64, 69
1, 88265, Note_off_c, 0, 50, 51
1, 88269, Note_on_c, 0, 55, 39
1, 88277, Control_c, 0, 64, 54
1, 88283, Note_on_c, 0, 72, 65
1, 88292, Control_c, 0, 64, 0
1, 88295, Note_off_c, 0, 67, 58
1, 88382, Control_c, 0, 64, 45
1, 88397, Control_c, 0, 64, 57
1, 88408, Note_off_c, 0, 55, 48
1, 88412, Control_c, 0, 64, 64
1, 88418, Note_on_c, 0, 71, 73
1, 88421, Note_on_c, 0, 50, 43
1, 88427, Control_c, 0, 64, 68
1, 88433, Note_off_c, 0, 62, 50
1, 88442, Control_c, 0, 64, 70
1, 88456, Control_c, 0, 64, 71
1, 88486, Control_c, 0, 64, 70
1, 88500, Control_c, 0, 64, 64
1, 88515, Control_c, 0, 64, 53
1, 88529, Control_c, 0, 64, 0
1, 88539, Note_off_c, 0, 50, 55
1, 88565, Note_on_c, 0, 69, 72
1, 88573, Note_on_c, 0, 55, 42
1, 88594, Note_off_c, 0, 72, 37
1, 88616, Note_off_c, 0, 71, 54
1, 88626, Control_c, 0, 64, 50
1, 88641, Control_c, 0, 64, 61
1, 88655, Control_c, 0, 64, 65
1, 88670, Control_c, 0, 64, 67
1, 88685, Control_c, 0, 64, 68
1, 88686, Note_off_c, 0, 55, 48
1, 88687, Note_off_c, 0, 69, 59
1, 88701, Note_on_c, 0, 67, 70
1, 88708, Note_on_c, 0, 50, 39
1, 88714, Control_c, 0, 64, 69
1, 88759, Control_c, 0, 64, 69
1, 88773, Note_off_c, 0, 47, 39
1, 88803, Control_c, 0, 64, 68
1, 88810, Note_off_c, 0, 50, 47
1, 88818, Control_c, 0, 64, 64
1, 88832, Control_c, 0, 64, 57
1, 88847, Control_c, 0, 64, 44
1, 88853, Note_on_c, 0, 48, 36
1, 88859, Note_off_c, 0, 67, 53
1, 88860, Note_on_c, 0, 66, 60
1, 88862, Control_c, 0, 64, 0
1, 88937, Control_c, 0, 64, 41
1, 88952, Control_c, 0, 64, 58
1, 88966, Control_c, 0, 64, 65
1, 88981, Control_c, 0, 64, 70
1, 88996, Control_c, 0, 64, 74
1, 89011, Control_c, 0, 64, 78
1, 89016, Note_on_c, 0, 50, 32
1, 89025, Note_off_c, 0, 66, 59
1, 89025, Control_c, 0, 64, 83
1, 89040, Control_c, 0, 64, 89
1, 89055, Control_c, 0, 64, 98
1, 89070, Control_c, 0, 64, 106
1, 89085, Control_c, 0, 64, 122
1, 89099, Control_c, 0, 64, 127
1, 89186, Note_on_c, 0, 74, 73
1, 89193, Note_off_c, 0, 50, 38
1, 89194, Note_on_c, 0, 66, 46
1, 89209, Note_on_c, 0, 57, 28
1, 89214, Note_on_c, 0, 62, 41
1, 89219, Control_c, 0, 64, 98
1, 89234, Control_c, 0, 64, 76
1, 89248, Control_c, 0, 64, 63
1, 89263, Control_c, 0, 64, 56
1, 89277, Control_c, 0, 64, 59
1, 89292, Control_c, 0, 64, 62
1, 89315, Control_c, 0, 64, 66
1, 89329, Control_c, 0, 64, 71
1, 89339, Note_on_c, 0, 50, 40
1, 89344, Control_c, 0, 64, 80
1, 89358, Note_off_c, 0, 57, 41
1, 89359, Note_off_c, 0, 74, 51
1, 89359, Control_c, 0, 64, 93
1, 89374, Control_c, 0, 64, 101
1, 89384, Note_off_c, 0, 62, 31
1, 89389, Note_off_c, 0, 66, 40
1, 89389, Control_c, 0, 64, 106
1, 89403, Control_c, 0, 64, 110
1, 89418, Control_c, 0, 64, 120
1, 89433, Control_c, 0, 64, 127
1, 89525, Note_on_c, 0, 74, 76
1, 89528, Note_off_c, 0, 50, 43
1, 89536, Note_on_c, 0, 57, 29
1, 89542, Note_on_c, 0, 66, 47
1, 89555, Note_on_c, 0, 62, 36
1, 89601, Note_off_c, 0, 62, 47
1, 89641, Note_off_c, 0, 66, 49
1, 89655, Note_on_c, 0, 50, 41
1, 89663, Note_off_c, 0, 57, 39
1, 89667, Note_off_c, 0, 74, 46
1, 89812, Note_off_c, 0, 50, 35
1, 89834, Note_on_c, 0, 74, 66
1, 89838, Note_on_c, 0, 57, 33
1, 89858, Note_on_c, 0, 66, 41
1, 89902, Note_off_c, 0, 66, 48
1, 89929, Note_off_c, 0, 57, 48
1, 89932, Poly_aftertouch_c, 0, 62, 0
1, 89954, Note_on_c, 0, 50, 43
1, 89986, Note_off_c, 0, 74, 36
1, 90138, Note_off_c, 0, 50, 32
1, 90146, Note_off_c, 0, 48, 30
1, 90155, Note_on_c, 0, 47, 39
1, 90183, Note_on_c, 0, 74, 56
1, 90202, Note_on_c, 0, 67, 42
1, 90212, Control_c, 0, 64, 109
1, 90227, Control_c, 0, 64, 82
1, 90242, Control_c, 0, 64, 66
1, 90257, Control_c, 0, 64, 46
1, 90272, Control_c, 0, 64, 34
1, 90286, Control_c, 0, 64, 42
1, 90301, Control_c, 0, 64, 52
1, 90316, Control_c, 0, 64, 61
1, 90331, Control_c, 0, 64, 69
1, 90346, Control_c, 0, 64, 81
1, 90360, Control_c, 0, 64, 106
1, 90364, Note_on_c, 0, 50, 35
1, 90375, Control_c, 0, 64, 127
1, 90497, Note_off_c, 0, 50, 36
1, 90505, Note_on_c, 0, 55, 41
1, 90594, Note_off_c, 0, 55, 58
1, 90637, Note_on_c, 0, 50, 46
1, 90764, Note_off_c, 0, 50, 53
1, 90782, Note_off_c, 0, 74, 37
1, 90805, Note_on_c, 0, 73, 56
1, 90824, Note_on_c, 0, 55, 39
1, 90964, Note_on_c, 0, 74, 79
1, 90979, Note_on_c, 0, 50, 46
1, 90993, Note_off_c, 0, 55, 35
1, 91057, Note_off_c, 0, 50, 49
1, 91065, Note_off_c, 0, 73, 20
1, 91107, Note_off_c, 0, 74, 59
1, 91117, Note_on_c, 0, 79, 68
1, 91118, Note_on_c, 0, 55, 52
1, 91186, Note_off_c, 0, 55, 54
1, 91189, Note_off_c, 0, 47, 40
1, 91230, Note_on_c, 0, 50, 45
1, 91250, Note_on_c, 0, 78, 81
1, 91264, Note_off_c, 0, 50, 51
1, 91367, Note_off_c, 0, 79, 35
1, 91390, Control_c, 0, 64, 82
1, 91405, Control_c, 0, 64, 63
1, 91419, Control_c, 0, 64, 40
1, 91434, Control_c, 0, 64, 0
1, 91435, Note_on_c, 0, 35, 50
1, 91441, Note_on_c, 0, 76, 74
1, 91449, Control_c, 0, 64, 45
1, 91464, Control_c, 0, 64, 55
1, 91479, Control_c, 0, 64, 63
1, 91491, Note_off_c, 0, 67, 50
1, 91493, Control_c, 0, 64, 71
1, 91503, Note_off_c, 0, 35, 62
1, 91508, Control_c, 0, 64, 84
1, 91521, Note_off_c, 0, 78, 60
1, 91523, Control_c, 0, 64, 107
1, 91538, Control_c, 0, 64, 127
1, 91552, Note_off_c, 0, 76, 63
1, 91640, Note_on_c, 0, 57, 57
1, 91685, Note_off_c, 0, 57, 51
1, 91792, Note_on_c, 0, 47, 39
1, 91809, Note_on_c, 0, 75, 66
1, 91828, Note_on_c, 0, 66, 55
1, 91828, Control_c, 0, 64, 101
1, 91843, Control_c, 0, 64, 72
1, 91857, Control_c, 0, 64, 58
1, 91872, Control_c, 0, 64, 50
1, 91887, Control_c, 0, 64, 55
1, 91902, Control_c, 0, 64, 60
1, 91917, Control_c, 0, 64, 65
1, 91931, Control_c, 0, 64, 73
1, 91946, Control_c, 0, 64, 92
1, 91953, Note_on_c, 0, 57, 54
1, 91961, Note_off_c, 0, 47, 42
1, 91961, Control_c, 0, 64, 127
1, 91986, Note_off_c, 0, 75, 53
1, 92055, Note_off_c, 0, 66, 35
1, 92113, Note_on_c, 0, 47, 45
1, 92122, Note_off_c, 0, 57, 42
1, 92123, Note_on_c, 0, 75, 80
1, 92136, Note_on_c, 0, 66, 54
1, 92213, Note_off_c, 0, 66, 51
1, 92228, Note_off_c, 0, 47, 61
1, 92263, Note_on_c, 0, 57, 61
1, 92263, Note_off_c, 0, 75, 55
1, 92440, Note_on_c, 0, 75, 89
1, 92443, Note_on_c, 0, 48, 47
1, 92444, Control_c, 0, 64, 78
1, 92448, Note_off_c, 0, 57, 47
1, 92457, Note_on_c, 0, 66, 62
1, 92459, Control_c, 0, 64, 64
1, 92473, Control_c, 0, 64, 57
1, 92488, Control_c, 0, 64, 61
1, 92503, Control_c, 0, 64, 65
1, 92505, Note_off_c, 0, 66, 52
1, 92518, Control_c, 0, 64, 72
1, 92533, Control_c, 0, 64, 86
1, 92547, Control_c, 0, 64, 127
1, 92577, Note_on_c, 0, 57, 60
1, 92594, Note_off_c, 0, 75, 60
1, 92747, Note_off_c, 0, 57, 59
1, 92763, Note_on_c, 0, 49, 46
1, 92770, Note_off_c, 0, 48, 33
1, 92823, Note_on_c, 0, 76, 81
1, 92836, Note_on_c, 0, 64, 55
1, 92888, Control_c, 0, 64, 96
1, 92903, Control_c, 0, 64, 71
1, 92918, Control_c, 0, 64, 51
1, 92933, Control_c, 0, 64, 0
1, 92962, Control_c, 0, 64, 41
1, 92977, Control_c, 0, 64, 55
1, 92991, Control_c, 0, 64, 65
1, 93006, Control_c, 0, 64, 75
1, 93009, Note_on_c, 0, 56, 42
1, 93021, Control_c, 0, 64, 91
1, 93036, Control_c, 0, 64, 127
1, 93155, Note_off_c, 0, 49, 41
1, 93177, Note_off_c, 0, 56, 32
1, 93185, Note_on_c, 0, 52, 46
1, 93310, Note_on_c, 0, 49, 41
1, 93380, Note_off_c, 0, 52, 35
1, 93482, Note_off_c, 0, 49, 42
1, 93488, Note_on_c, 0, 45, 38
1, 93501, Note_on_c, 0, 75, 63
1, 93518, Control_c, 0, 64, 103
1, 93533, Control_c, 0, 64, 76
1, 93548, Control_c, 0, 64, 61
1, 93550, Note_off_c, 0, 76, 55
1, 93563, Control_c, 0, 64, 37
1, 93578, Control_c, 0, 64, 0
1, 93593, Control_c, 0, 64, 40
1, 93608, Control_c, 0, 64, 51
1, 93622, Control_c, 0, 64, 60
1, 93637, Control_c, 0, 64, 69
1, 93650, Note_on_c, 0, 57, 38
1, 93652, Control_c, 0, 64, 79
1, 93667, Control_c, 0, 64, 90
1, 93682, Control_c, 0, 64, 98
1, 93696, Control_c, 0, 64, 103
1, 93711, Control_c, 0, 64, 108
1, 93726, Control_c, 0, 64, 113
1, 93740, Control_c, 0, 64, 127
1, 93804, Note_on_c, 0, 73, 75
1, 93817, Note_off_c, 0, 45, 41
1, 93822, Note_on_c, 0, 52, 42
1, 93840, Note_off_c, 0, 75, 62
1, 93858, Note_off_c, 0, 57, 28
1, 93864, Note_off_c, 0, 73, 62
1, 93903, Note_off_c, 0, 64, 49
1, 93960, Note_on_c, 0, 49, 39
1, 94135, Note_off_c, 0, 49, 32
1, 94148, Note_on_c, 0, 47, 39
1, 94149, Control_c, 0, 64, 120
1, 94162, Note_on_c, 0, 71, 57
1, 94164, Control_c, 0, 64, 89
1, 94179, Control_c, 0, 64, 72
1, 94193, Control_c, 0, 64, 58
1, 94208, Control_c, 0, 64, 0
1, 94213, Note_off_c, 0, 52, 9
1, 94297, Control_c, 0, 64, 41
1, 94311, Control_c, 0, 64, 56
1, 94314, Note_on_c, 0, 59, 48
1, 94326, Control_c, 0, 64, 64
1, 94341, Control_c, 0, 64, 69
1, 94356, Control_c, 0, 64, 73
1, 94371, Control_c, 0, 64, 76
1, 94386, Control_c, 0, 64, 80
1, 94401, Control_c, 0, 64, 83
1, 94416, Control_c, 0, 64, 85
1, 94445, Control_c, 0, 64, 85
1, 94460, Control_c, 0, 64, 80
1, 94460, Note_on_c, 0, 64, 63
1, 94466, Note_on_c, 0, 52, 42
1, 94475, Control_c, 0, 64, 72
1, 94479, Note_on_c, 0, 56, 37
1, 94490, Control_c, 0, 64, 63
1, 94505, Control_c, 0, 64, 55
1, 94533, Control_c, 0, 64, 60
1, 94556, Control_c, 0, 64, 64
1, 94569, Note_off_c, 0, 52, 61
1, 94570, Control_c, 0, 64, 70
1, 94585, Control_c, 0, 64, 76
1, 94600, Control_c, 0, 64, 83
1, 94615, Control_c, 0, 64, 89
1, 94621, Note_on_c, 0, 68, 76
1, 94630, Control_c, 0, 64, 96
1, 94644, Control_c, 0, 64, 107
1, 94658, Note_off_c, 0, 64, 60
1, 94659, Control_c, 0, 64, 127
1, 94733, Control_c, 0, 64, 111
1, 94748, Control_c, 0, 64, 85
1, 94763, Control_c, 0, 64, 67
1, 94777, Note_off_c, 0, 56, 38
1, 94779, Control_c, 0, 64, 48
1, 94781, Note_on_c, 0, 66, 68
1, 94793, Note_on_c, 0, 54, 40
1, 94793, Control_c, 0, 64, 0
1, 94797, Note_on_c, 0, 57, 38
1, 94804, Note_off_c, 0, 68, 58
1, 94853, Control_c, 0, 64, 49
1, 94867, Control_c, 0, 64, 61
1, 94882, Control_c, 0, 64, 69
1, 94892, Note_off_c, 0, 57, 55
1, 94897, Control_c, 0, 64, 76
1, 94912, Control_c, 0, 64, 81
1, 94914, Note_on_c, 0, 69, 65
1, 94926, Note_off_c, 0, 59, 44
1, 94927, Control_c, 0, 64, 84
1, 94941, Control_c, 0, 64, 87
1, 94956, Control_c, 0, 64, 94
1, 94971, Control_c, 0, 64, 117
1, 94986, Control_c, 0, 64, 127
1, 95028, Note_off_c, 0, 47, 42
1, 95075, Note_on_c, 0, 51, 45
1, 95077, Note_on_c, 0, 59, 31
1, 95087, Note_on_c, 0, 63, 59
1, 95087, Note_off_c, 0, 66, 0
1, 95114, Note_off_c, 0, 59, 52
1, 95124, Note_off_c, 0, 54, 36
1, 95125, Poly_aftertouch_c, 0, 66, 127
1, 95128, Note_off_c, 0, 51, 60
1, 95142, Note_off_c, 0, 71, 40
1, 95214, Note_off_c, 0, 69, 35
1, 95225, Poly_aftertouch_c, 0, 66, 0
1, 95226, Note_off_c, 0, 63, 60
1, 95226, Note_on_c, 0, 71, 61
1, 95247, Note_off_c, 0, 71, 66
1, 95386, Note_on_c, 0, 35, 42
1, 95438, Control_c, 0, 64, 106
1, 95453, Control_c, 0, 64, 84
1, 95459, Note_on_c, 0, 59, 50
1, 95468, Control_c, 0, 64, 70
1, 95483, Control_c, 0, 64, 57
1, 95498, Control_c, 0, 64, 0
1, 95587, Note_on_c, 0, 47, 39
1, 95735, Note_on_c, 0, 52, 55
1, 95751, Control_c, 0, 64, 45
1, 95765, Control_c, 0, 64, 57
1, 95779, Note_off_c, 0, 47, 45
1, 95780, Control_c, 0, 64, 62
1, 95795, Control_c, 0, 64, 65
1, 95810, Control_c, 0, 64, 67
1, 95824, Control_c, 0, 64, 69
1, 95839, Control_c, 0, 64, 71
1, 95854, Control_c, 0, 64, 73
1, 95869, Control_c, 0, 64, 75
1, 95882, Note_on_c, 0, 56, 55
1, 95884, Control_c, 0, 64, 77
1, 95898, Control_c, 0, 64, 78
1, 95928, Control_c, 0, 64, 76
1, 95942, Control_c, 0, 64, 69
1, 95957, Control_c, 0, 64, 59
1, 95972, Control_c, 0, 64, 0
1, 96028, Note_off_c, 0, 56, 55
1, 96052, Note_off_c, 0, 52, 54
1, 96054, Control_c, 0, 64, 49
1, 96058, Note_on_c, 0, 49, 48
1, 96069, Control_c, 0, 64, 63
1, 96084, Control_c, 0, 64, 70
1, 96098, Control_c, 0, 64, 77
1, 96113, Control_c, 0, 64, 84
1, 96128, Control_c, 0, 64, 91
1, 96130, Note_off_c, 0, 49, 56
1, 96136, Note_off_c, 0, 35, 40
1, 96142, Control_c, 0, 64, 95
1, 96157, Control_c, 0, 64, 98
1, 96172, Control_c, 0, 64, 101
1, 96187, Control_c, 0, 64, 104
1, 96196, Note_on_c, 0, 57, 54
1, 96202, Control_c, 0, 64, 106
1, 96231, Control_c, 0, 64, 108
1, 96250, Note_off_c, 0, 59, 36
1, 96350, Note_on_c, 0, 51, 49
1, 96443, Note_off_c, 0, 51, 56
1, 96484, Control_c, 0, 64, 111
1, 96487, Note_on_c, 0, 59, 55
1, 96490, Note_off_c, 0, 57, 20
1, 96513, Note_off_c, 0, 59, 64
1, 96514, Control_c, 0, 64, 113
1, 96647, Control_c, 0, 64, 106
1, 96662, Control_c, 0, 64, 98
1, 96677, Control_c, 0, 64, 87
1, 96692, Control_c, 0, 64, 77
1, 96707, Control_c, 0, 64, 66
1, 96721, Control_c, 0, 64, 50
1, 96733, Note_on_c, 0, 59, 28
1, 96736, Control_c, 0, 64, 0
1, 96805, Note_on_c, 0, 71, 34
1, 96876, Note_on_c, 0, 70, 53
1, 96876, Note_off_c, 0, 71, 55
1, 96931, Note_off_c, 0, 70, 59
1, 96967, Note_on_c, 0, 71, 53
1, 97045, Note_on_c, 0, 72, 64
1, 97046, Note_off_c, 0, 71, 56
1, 97058, Note_on_c, 0, 68, 46
1, 97066, Note_on_c, 0, 65, 55
1, 97113, Control_c, 0, 64, 42
1, 97128, Note_on_c, 0, 73, 70
1, 97128, Control_c, 0, 64, 61
1, 97143, Control_c, 0, 64, 66
1, 97146, Note_off_c, 0, 65, 64
1, 97159, Control_c, 0, 64, 68
1, 97169, Note_off_c, 0, 72, 59
1, 97174, Control_c, 0, 64, 71
1, 97188, Control_c, 0, 64, 74
1, 97203, Control_c, 0, 64, 80
1, 97214, Note_on_c, 0, 74, 78
1, 97218, Control_c, 0, 64, 86
1, 97229, Note_off_c, 0, 73, 59
1, 97233, Control_c, 0, 64, 91
1, 97248, Control_c, 0, 64, 91
1, 97277, Control_c, 0, 64, 90
1, 97280, Note_off_c, 0, 74, 54
1, 97280, Note_off_c, 0, 68, 52
1, 97292, Control_c, 0, 64, 82
1, 97307, Control_c, 0, 64, 69
1, 97314, Note_on_c, 0, 73, 71
1, 97317, Note_on_c, 0, 69, 47
1, 97322, Control_c, 0, 64, 51
1, 97337, Control_c, 0, 64, 0
1, 97342, Note_on_c, 0, 66, 55
1, 97382, Control_c, 0, 64, 35
1, 97396, Control_c, 0, 64, 54
1, 97406, Note_on_c, 0, 75, 79
1, 97411, Control_c, 0, 64, 63
1, 97419, Note_off_c, 0, 69, 55
1, 97426, Control_c, 0, 64, 72
1, 97426, Note_off_c, 0, 73, 62
1, 97439, Note_off_c, 0, 59, 39
1, 97441, Control_c, 0, 64, 82
1, 97456, Control_c, 0, 64, 93
1, 97470, Control_c, 0, 64, 105
1, 97477, Note_off_c, 0, 75, 61
1, 97485, Control_c, 0, 64, 127
1, 97498, Note_on_c, 0, 76, 88
1, 97602, Note_on_c, 0, 77, 84
1, 97605, Note_on_c, 0, 63, 58
1, 97617, Note_off_c, 0, 66, 58
1, 97626, Note_off_c, 0, 76, 62
1, 97664, Note_off_c, 0, 63, 61
1, 97665, Poly_aftertouch_c, 0, 71, 127
1, 97689, Note_on_c, 0, 78, 89
1, 97692, Poly_aftertouch_c, 0, 71, 0
1, 97721, Note_off_c, 0, 77, 63
1, 97778, Note_on_c, 0, 79, 91
1, 97824, Note_off_c, 0, 78, 54
1, 97886, Note_on_c, 0, 47, 49
1, 97896, Note_on_c, 0, 80, 78
1, 97924, Note_off_c, 0, 79, 55
1, 97983, Control_c, 0, 64, 96
1, 97998, Control_c, 0, 64, 82
1, 97999, Note_on_c, 0, 78, 81
1, 98012, Control_c, 0, 64, 72
1, 98027, Control_c, 0, 64, 63
1, 98042, Control_c, 0, 64, 55
1, 98057, Control_c, 0, 64, 49
1, 98066, Note_off_c, 0, 80, 62
1, 98072, Control_c, 0, 64, 48
1, 98085, Note_on_c, 0, 76, 77
1, 98088, Note_off_c, 0, 78, 63
1, 98116, Control_c, 0, 64, 48
1, 98189, Note_on_c, 0, 75, 74
1, 98192, Note_on_c, 0, 56, 46
1, 98194, Note_off_c, 0, 76, 54
1, 98200, Note_on_c, 0, 52, 40
1, 98249, Control_c, 0, 64, 47
1, 98264, Control_c, 0, 64, 47
1, 98273, Note_on_c, 0, 76, 72
1, 98301, Control_c, 0, 64, 47
1, 98309, Note_off_c, 0, 75, 60
1, 98378, Note_on_c, 0, 73, 70
1, 98405, Control_c, 0, 64, 47
1, 98419, Note_off_c, 0, 56, 57
1, 98419, Control_c, 0, 64, 46
1, 98434, Control_c, 0, 64, 46
1, 98449, Control_c, 0, 64, 44
1, 98454, Note_off_c, 0, 76, 60
1, 98464, Note_on_c, 0, 72, 68
1, 98464, Control_c, 0, 64, 41
1, 98468, Note_off_c, 0, 52, 58
1, 98479, Control_c, 0, 64, 39
1, 98482, Note_off_c, 0, 73, 61
1, 98492, Note_on_c, 0, 57, 33
1, 98493, Control_c, 0, 64, 38
1, 98496, Note_on_c, 0, 49, 32
1, 98508, Control_c, 0, 64, 39
1, 98523, Control_c, 0, 64, 42
1, 98538, Control_c, 0, 64, 49
1, 98553, Control_c, 0, 64, 57
1, 98556, Note_on_c, 0, 73, 67
1, 98568, Control_c, 0, 64, 63
1, 98571, Note_off_c, 0, 57, 59
1, 98573, Note_off_c, 0, 72, 52
1, 98583, Control_c, 0, 64, 70
1, 98598, Control_c, 0, 64, 78
1, 98612, Control_c, 0, 64, 87
1, 98627, Control_c, 0, 64, 95
1, 98642, Control_c, 0, 64, 100
1, 98648, Note_off_c, 0, 73, 61
1, 98657, Control_c, 0, 64, 105
1, 98661, Note_on_c, 0, 69, 72
1, 98671, Control_c, 0, 64, 111
1, 98686, Control_c, 0, 64, 122
1, 98701, Control_c, 0, 64, 127
1, 98756, Note_off_c, 0, 69, 57
1, 98760, Note_off_c, 0, 47, 29
1, 98764, Note_on_c, 0, 51, 39
1, 98772, Note_on_c, 0, 68, 64
1, 98779, Note_on_c, 0, 59, 35
1, 98785, Note_off_c, 0, 49, 36
1, 98806, Control_c, 0, 64, 118
1, 98821, Control_c, 0, 64, 102
1, 98835, Control_c, 0, 64, 91
1, 98850, Control_c, 0, 64, 80
1, 98860, Note_on_c, 0, 69, 61
1, 98864, Note_off_c, 0, 68, 52
1, 98865, Control_c, 0, 64, 71
1, 98880, Control_c, 0, 64, 64
1, 98895, Control_c, 0, 64, 54
1, 98909, Control_c, 0, 64, 41
1, 98924, Control_c, 0, 64, 35
1, 98939, Control_c, 0, 64, 34
1, 98953, Note_on_c, 0, 66, 60
1, 98953, Control_c, 0, 64, 34
1, 98968, Control_c, 0, 64, 0
1, 99018, Note_off_c, 0, 69, 45
1, 99055, Note_off_c, 0, 66, 61
1, 99057, Note_on_c, 0, 65, 60
1, 99128, Note_off_c, 0, 65, 64
1, 99145, Note_on_c, 0, 66, 52
1, 99232, Note_on_c, 0, 63, 61
1, 99258, Note_off_c, 0, 59, 26
1, 99271, Note_off_c, 0, 66, 43
1, 99307, Note_off_c, 0, 63, 61
1, 99334, Note_on_c, 0, 62, 56
1, 99385, Note_off_c, 0, 62, 52
1, 99401, Note_off_c, 0, 51, 41
1, 99411, Note_on_c, 0, 63, 55
1, 99512, Note_off_c, 0, 63, 59
1, 99523, Note_on_c, 0, 59, 54
1, 99609, Note_off_c, 0, 59, 58
1, 99615, Note_on_c, 0, 58, 59
1, 99698, Note_off_c, 0, 58, 62
1, 99716, Note_on_c, 0, 59, 51
1, 99798, Note_off_c, 0, 59, 60
1, 99821, Note_on_c, 0, 58, 50
1, 99913, Note_on_c, 0, 59, 53
1, 99920, Note_off_c, 0, 58, 54
1, 99997, Note_off_c, 0, 59, 60
1, 100010, Note_on_c, 0, 61, 52
1, 100099, Note_on_c, 0, 59, 52
1, 100142, Note_off_c, 0, 61, 36
1, 100204, Note_off_c, 0, 59, 56
1, 100215, Note_on_c, 0, 58, 49
1, 100279, Note_off_c, 0, 58, 57
1, 100304, Note_on_c, 0, 59, 49
1, 100410, Note_off_c, 0, 59, 57
1, 100411, Note_on_c, 0, 58, 53
1, 100538, Note_off_c, 0, 58, 54
1, 100552, Note_on_c, 0, 59, 49
1, 100640, Note_off_c, 0, 59, 59
1, 100653, Note_on_c, 0, 61, 49
1, 100744, Note_off_c, 0, 61, 54
1, 100765, Note_on_c, 0, 59, 51
1, 100866, Note_off_c, 0, 59, 58
1, 100884, Note_on_c, 0, 61, 49
1, 100951, Note_off_c, 0, 61, 53
1, 100991, Note_on_c, 0, 59, 46
1, 101079, Note_off_c, 0, 59, 56
1, 101090, Note_on_c, 0, 61, 46
1, 101169, Note_off_c, 0, 61, 53
1, 101200, Control_c, 0, 64, 33
1, 101212, Note_on_c, 0, 59, 41
1, 101215, Control_c, 0, 64, 46
1, 101230, Control_c, 0, 64, 56
1, 101245, Control_c, 0, 64, 63
1, 101260, Control_c, 0, 64, 68
1, 101271, Note_off_c, 0, 59, 57
1, 101275, Control_c, 0, 64, 74
1, 101296, Control_c, 0, 64, 79
1, 101311, Control_c, 0, 64, 84
1, 101312, Note_on_c, 0, 61, 48
1, 101326, Control_c, 0, 64, 88
1, 101341, Control_c, 0, 64, 91
1, 101356, Control_c, 0, 64, 94
1, 101370, Note_off_c, 0, 61, 51
1, 101370, Control_c, 0, 64, 97
1, 101385, Control_c, 0, 64, 100
1, 101400, Control_c, 0, 64, 102
1, 101414, Note_on_c, 0, 59, 47
1, 101459, Control_c, 0, 64, 104
1, 101461, Note_off_c, 0, 59, 59
1, 101608, Control_c, 0, 64, 100
1, 101623, Control_c, 0, 64, 94
1, 101637, Control_c, 0, 64, 86
1, 101652, Control_c, 0, 64, 77
1, 101658, Note_on_c, 0, 40, 26
1, 101667, Control_c, 0, 64, 68
1, 101668, Note_on_c, 0, 44, 33
1, 101671, Note_on_c, 0, 59, 36
1, 101680, Note_on_c, 0, 52, 31
1, 101681, Control_c, 0, 64, 59
1, 101696, Control_c, 0, 64, 39
1, 101711, Control_c, 0, 64, 0
1, 101785, Control_c, 0, 64, 44
1, 101800, Control_c, 0, 64, 59
1, 101815, Control_c, 0, 64, 66
1, 101829, Control_c, 0, 64, 72
1, 101844, Control_c, 0, 64, 77
1, 101859, Control_c, 0, 64, 81
1, 101874, Control_c, 0, 64, 85
1, 101889, Control_c, 0, 64, 90
1, 101904, Control_c, 0, 64, 98
1, 101918, Control_c, 0, 64, 106
1, 101933, Control_c, 0, 64, 117
1, 101948, Control_c, 0, 64, 127
1, 102004, Note_off_c, 0, 52, 40
1, 102056, Note_off_c, 0, 59, 61
1, 102113, Note_off_c, 0, 40, 39
1, 102368, Note_off_c, 0, 44, 41
1, 102412, Note_on_c, 0, 64, 34
1, 102569, Note_on_c, 0, 63, 46
1, 102700, Note_off_c, 0, 64, 36
1, 102732, Note_on_c, 0, 61, 48
1, 102756, Note_off_c, 0, 63, 32
1, 102877, Note_on_c, 0, 59, 48
1, 102902, Note_off_c, 0, 61, 31
1, 102929, Note_off_c, 0, 59, 54
1, 103031, Control_c, 0, 64, 119
1, 103046, Control_c, 0, 64, 94
1, 103060, Control_c, 0, 64, 77
1, 103075, Note_on_c, 0, 42, 37
1, 103075, Control_c, 0, 64, 64
1, 103082, Note_on_c, 0, 59, 30
1, 103090, Note_on_c, 0, 45, 33
1, 103090, Control_c, 0, 64, 45
1, 103102, Note_on_c, 0, 51, 30
1, 103105, Control_c, 0, 64, 0
1, 103135, Control_c, 0, 64, 44
1, 103150, Control_c, 0, 64, 55
1, 103164, Control_c, 0, 64, 63
1, 103179, Control_c, 0, 64, 69
1, 103194, Control_c, 0, 64, 75
1, 103209, Note_off_c, 0, 59, 61
1, 103209, Control_c, 0, 64, 80
1, 103224, Control_c, 0, 64, 83
1, 103239, Control_c, 0, 64, 84
1, 103243, Note_off_c, 0, 42, 42
1, 103249, Note_off_c, 0, 45, 38
1, 103253, Control_c, 0, 64, 86
1, 103268, Control_c, 0, 64, 88
1, 103283, Control_c, 0, 64, 91
1, 103291, Note_off_c, 0, 51, 41
1, 103298, Control_c, 0, 64, 94
1, 103313, Control_c, 0, 64, 95
1, 103327, Control_c, 0, 64, 96
1, 103401, Control_c, 0, 64, 88
1, 103415, Note_on_c, 0, 59, 42
1, 103416, Control_c, 0, 64, 76
1, 103418, Note_on_c, 0, 51, 37
1, 103427, Note_on_c, 0, 42, 33
1, 103431, Note_on_c, 0, 45, 40
1, 103431, Control_c, 0, 64, 65
1, 103446, Control_c, 0, 64, 53
1, 103460, Control_c, 0, 64, 45
1, 103475, Control_c, 0, 64, 50
1, 103490, Control_c, 0, 64, 56
1, 103504, Control_c, 0, 64, 62
1, 103519, Control_c, 0, 64, 67
1, 103541, Control_c, 0, 64, 74
1, 103557, Control_c, 0, 64, 81
1, 103563, Note_off_c, 0, 59, 57
1, 103572, Control_c, 0, 64, 85
1, 103587, Control_c, 0, 64, 87
1, 103588, Note_off_c, 0, 51, 42
1, 103592, Note_off_c, 0, 42, 43
1, 103598, Note_off_c, 0, 45, 37
1, 103602, Control_c, 0, 64, 90
1, 103617, Control_c, 0, 64, 92
1, 103631, Control_c, 0, 64, 93
1, 103646, Control_c, 0, 64, 95
1, 103675, Control_c, 0, 64, 98
1, 103735, Control_c, 0, 64, 100
1, 103768, Note_on_c, 0, 59, 41
1, 103772, Note_on_c, 0, 45, 38
1, 103779, Note_on_c, 0, 42, 23
1, 103782, Note_on_c, 0, 51, 35
1, 103824, Control_c, 0, 64, 102
1, 103878, Note_off_c, 0, 59, 58
1, 103883, Control_c, 0, 64, 104
1, 103899, Note_off_c, 0, 51, 36
1, 103913, Note_off_c, 0, 45, 35
1, 103927, Note_off_c, 0, 42, 36
1, 103928, Control_c, 0, 64, 106
1, 103957, Control_c, 0, 64, 108
1, 103972, Control_c, 0, 64, 110
1, 103987, Control_c, 0, 64, 114
1, 104002, Control_c, 0, 64, 120
1, 104017, Control_c, 0, 64, 127
1, 104107, Note_on_c, 0, 42, 26
1, 104112, Note_on_c, 0, 59, 43
1, 104119, Note_on_c, 0, 45, 30
1, 104128, Note_on_c, 0, 51, 27
1, 104173, Note_off_c, 0, 59, 55
1, 104182, Note_off_c, 0, 42, 51
1, 104192, Note_off_c, 0, 51, 41
1, 104193, Note_off_c, 0, 45, 43
1, 104514, Note_on_c, 0, 59, 38
1, 104518, Note_on_c, 0, 44, 34
1, 104533, Note_on_c, 0, 40, 16
1, 104543, Control_c, 0, 64, 100
1, 104549, Note_on_c, 0, 52, 29
1, 104558, Control_c, 0, 64, 83
1, 104572, Control_c, 0, 64, 69
1, 104587, Control_c, 0, 64, 57
1, 104602, Control_c, 0, 64, 0
1, 104676, Control_c, 0, 64, 41
1, 104691, Control_c, 0, 64, 50
1, 104706, Control_c, 0, 64, 57
1, 104721, Control_c, 0, 64, 61
1, 104735, Control_c, 0, 64, 64
1, 104750, Control_c, 0, 64, 67
1, 104762, Note_off_c, 0, 40, 38
1, 104765, Control_c, 0, 64, 71
1, 104780, Control_c, 0, 64, 75
1, 104795, Control_c, 0, 64, 80
1, 104810, Control_c, 0, 64, 84
1, 104824, Control_c, 0, 64, 90
1, 104839, Control_c, 0, 64, 95
1, 104854, Control_c, 0, 64, 100
1, 104869, Control_c, 0, 64, 102
1, 104893, Note_off_c, 0, 44, 42
1, 104902, Note_off_c, 0, 59, 36
1, 104913, Control_c, 0, 64, 104
1, 104920, Note_off_c, 0, 52, 40
1, 104943, Control_c, 0, 64, 107
1, 104958, Control_c, 0, 64, 110
1, 104972, Control_c, 0, 64, 116
1, 104987, Control_c, 0, 64, 127
1, 105203, Control_c, 0, 64, 109
1, 105218, Control_c, 0, 64, 90
1, 105233, Control_c, 0, 64, 74
1, 105248, Control_c, 0, 64, 64
1, 105261, Note_on_c, 0, 59, 31
1, 105262, Control_c, 0, 64, 58
1, 105269, Note_on_c, 0, 42, 19
1, 105277, Control_c, 0, 64, 57
1, 105281, Note_on_c, 0, 45, 29
1, 105283, Note_on_c, 0, 51, 23
1, 105292, Control_c, 0, 64, 59
1, 105307, Control_c, 0, 64, 62
1, 105322, Control_c, 0, 64, 65
1, 105336, Control_c, 0, 64, 69
1, 105351, Control_c, 0, 64, 73
1, 105366, Control_c, 0, 64, 76
1, 105381, Control_c, 0, 64, 79
1, 105396, Control_c, 0, 64, 83
1, 105402, Note_off_c, 0, 45, 34
1, 105410, Control_c, 0, 64, 87
1, 105420, Note_off_c, 0, 42, 35
1, 105425, Control_c, 0, 64, 90
1, 105440, Control_c, 0, 64, 93
1, 105440, Control_c, 0, 67, 23
1, 105442, Note_off_c, 0, 59, 31
1, 105445, Note_off_c, 0, 51, 40
1, 105454, Control_c, 0, 64, 94
1, 105454, Control_c, 0, 67, 29
1, 105469, Control_c, 0, 64, 94
1, 105469, Control_c, 0, 67, 35
1, 105484, Control_c, 0, 67, 44
1, 105499, Control_c, 0, 64, 95
1, 105499, Control_c, 0, 67, 56
1, 105514, Control_c, 0, 67, 71
1, 105528, Control_c, 0, 64, 95
1, 105528, Control_c, 0, 67, 85
1, 105543, Control_c, 0, 67, 99
1, 105558, Control_c, 0, 67, 110
1, 105573, Control_c, 0, 67, 119
1, 105588, Control_c, 0, 64, 96
1, 105588, Control_c, 0, 67, 125
1, 105601, Note_on_c, 0, 59, 32
1, 105603, Note_on_c, 0, 51, 30
1, 105603, Control_c, 0, 67, 127
1, 105620, Note_on_c, 0, 42, 21
1, 105635, Note_on_c, 0, 45, 30
1, 105700, Note_off_c, 0, 45, 42
1, 105715, Note_off_c, 0, 59, 34
1, 105719, Note_off_c, 0, 42, 39
1, 105734, Note_off_c, 0, 51, 32
1, 105936, Control_c, 0, 64, 95
1, 105952, Control_c, 0, 64, 93
1, 105967, Control_c, 0, 64, 90
1, 105981, Note_on_c, 0, 59, 33
1, 105981, Control_c, 0, 64, 85
1, 105996, Control_c, 0, 64, 80
1, 106005, Note_on_c, 0, 44, 28
1, 106006, Note_on_c, 0, 40, 12
1, 106011, Control_c, 0, 64, 73
1, 106017, Note_on_c, 0, 52, 22
1, 106026, Control_c, 0, 64, 66
1, 106041, Control_c, 0, 64, 55
1, 106056, Control_c, 0, 64, 33
1, 106071, Control_c, 0, 64, 0
1, 106097, Note_off_c, 0, 40, 0
1, 106130, Control_c, 0, 64, 34
1, 106134, Poly_aftertouch_c, 0, 40, 127
1, 106145, Control_c, 0, 64, 43
1, 106159, Control_c, 0, 64, 51
1, 106174, Control_c, 0, 64, 59
1, 106189, Control_c, 0, 64, 63
1, 106204, Control_c, 0, 64, 67
1, 106219, Control_c, 0, 64, 70
1, 106233, Control_c, 0, 64, 73
1, 106248, Control_c, 0, 64, 75
1, 106257, Poly_aftertouch_c, 0, 40, 0
1, 106263, Control_c, 0, 64, 77
1, 106271, Note_off_c, 0, 44, 51
1, 106277, Control_c, 0, 64, 79
1, 106292, Control_c, 0, 64, 82
1, 106307, Control_c, 0, 64, 84
1, 106321, Note_off_c, 0, 59, 41
1, 106322, Note_off_c, 0, 52, 40
1, 106322, Control_c, 0, 64, 87
1, 106337, Control_c, 0, 64, 89
1, 106351, Control_c, 0, 64, 90
1, 106366, Control_c, 0, 64, 90
1, 106396, Control_c, 0, 64, 91
1, 106411, Control_c, 0, 64, 92
1, 106426, Control_c, 0, 64, 93
1, 106440, Control_c, 0, 64, 93
1, 106485, Control_c, 0, 64, 94
1, 106655, Control_c, 0, 64, 93
1, 106670, Control_c, 0, 64, 87
1, 106685, Control_c, 0, 64, 78
1, 106700, Control_c, 0, 64, 66
1, 106715, Control_c, 0, 64, 59
1, 106730, Control_c, 0, 64, 55
1, 106731, Note_on_c, 0, 59, 23
1, 106739, Note_on_c, 0, 45, 29
1, 106745, Control_c, 0, 64, 57
1, 106745, Note_on_c, 0, 51, 18
1, 106749, Note_on_c, 0, 42, 17
1, 106760, Control_c, 0, 64, 60
1, 106774, Control_c, 0, 64, 63
1, 106789, Control_c, 0, 64, 66
1, 106804, Control_c, 0, 64, 70
1, 106819, Control_c, 0, 64, 75
1, 106828, Note_off_c, 0, 42, 40
1, 106834, Control_c, 0, 64, 78
1, 106839, Note_off_c, 0, 45, 37
1, 106849, Control_c, 0, 64, 80
1, 106864, Control_c, 0, 64, 80
1, 106879, Control_c, 0, 64, 81
1, 106880, Note_off_c, 0, 51, 33
1, 106884, Note_off_c, 0, 59, 34
1, 106894, Control_c, 0, 64, 83
1, 106908, Control_c, 0, 64, 85
1, 106923, Control_c, 0, 64, 87
1, 106938, Control_c, 0, 64, 88
1, 106953, Control_c, 0, 64, 89
1, 107114, Note_on_c, 0, 59, 33
1, 107127, Note_on_c, 0, 42, 32
1, 107129, Note_on_c, 0, 51, 16
1, 107164, Note_off_c, 0, 59, 45
1, 107165, Note_on_c, 0, 45, 12
1, 107171, Note_off_c, 0, 51, 53
1, 107181, Note_off_c, 0, 42, 60
1, 107186, Note_off_c, 0, 45, 0
1, 107215, Poly_aftertouch_c, 0, 45, 0
1, 107433, Control_c, 0, 64, 80
1, 107448, Control_c, 0, 64, 63
1, 107463, Control_c, 0, 64, 0
1, 107493, Control_c, 0, 67, 119
1, 107506, Note_on_c, 0, 52, 100
1, 107508, Control_c, 0, 64, 49
1, 107508, Control_c, 0, 67, 66
1, 107511, Note_on_c, 0, 44, 86
1, 107511, Note_on_c, 0, 59, 87
1, 107514, Note_on_c, 0, 40, 76
1, 107523, Control_c, 0, 64, 81
1, 107523, Control_c, 0, 67, 0
1, 107537, Control_c, 0, 64, 127
1, 107542, Note_off_c, 0, 52, 67
1, 107546, Note_off_c, 0, 44, 63
1, 107546, Note_off_c, 0, 59, 61
1, 107552, Note_off_c, 0, 40, 63
1, 107875, Note_on_c, 0, 40, 95
1, 107906, Note_off_c, 0, 40, 64
1, 108247, Note_on_c, 0, 45, 105
1, 108251, Note_on_c, 0, 41, 96
1, 108272, Control_c, 0, 64, 73
1, 108287, Control_c, 0, 64, 0
1, 108362, Control_c, 0, 64, 50
1, 108377, Control_c, 0, 64, 66
1, 108392, Control_c, 0, 64, 76
1, 108407, Control_c, 0, 64, 88
1, 108421, Control_c, 0, 64, 98
1, 108436, Control_c, 0, 64, 110
1, 108451, Control_c, 0, 64, 127
1, 108504, Note_off_c, 0, 45, 53
1, 108614, Control_c, 0, 64, 89
1, 108628, Control_c, 0, 64, 67
1, 108633, Note_on_c, 0, 45, 97
1, 108643, Control_c, 0, 64, 53
1, 108658, Control_c, 0, 64, 52
1, 108673, Control_c, 0, 64, 60
1, 108688, Control_c, 0, 64, 72
1, 108703, Control_c, 0, 64, 90
1, 108718, Control_c, 0, 64, 127
1, 108819, Note_off_c, 0, 41, 0
1, 108823, Note_off_c, 0, 45, 31
1, 108856, Poly_aftertouch_c, 0, 41, 127
1, 108962, Control_c, 0, 64, 98
1, 108965, Poly_aftertouch_c, 0, 41, 0
1, 108975, Note_on_c, 0, 42, 92
1, 108977, Control_c, 0, 64, 71
1, 108990, Note_on_c, 0, 46, 65
1, 108992, Control_c, 0, 64, 41
1, 109006, Control_c, 0, 64, 0
1, 109036, Control_c, 0, 64, 51
1, 109045, Note_off_c, 0, 42, 55
1, 109051, Control_c, 0, 64, 66
1, 109066, Control_c, 0, 64, 78
1, 109080, Control_c, 0, 64, 100
1, 109089, Note_off_c, 0, 46, 61
1, 109095, Control_c, 0, 64, 125
1, 109096, Note_on_c, 0, 47, 75
1, 109110, Control_c, 0, 64, 127
1, 109215, Note_on_c, 0, 48, 71
1, 109219, Note_off_c, 0, 47, 61
1, 109292, Note_on_c, 0, 42, 95
1, 109313, Note_off_c, 0, 42, 68
1, 109314, Note_on_c, 0, 49, 76
1, 109338, Note_off_c, 0, 48, 60
1, 109395, Note_off_c, 0, 49, 62
1, 109410, Note_on_c, 0, 50, 81
1, 109489, Note_on_c, 0, 51, 80
1, 109496, Note_off_c, 0, 50, 62
1, 109565, Note_off_c, 0, 51, 61
1, 109606, Note_on_c, 0, 52, 94
1, 109609, Note_on_c, 0, 47, 90
1, 109621, Note_on_c, 0, 43, 85
1, 109636, Control_c, 0, 64, 111
1, 109651, Control_c, 0, 64, 79
1, 109666, Control_c, 0, 64, 61
1, 109681, Control_c, 0, 64, 0
1, 109716, Note_on_c, 0, 42, 81
1, 109722, Note_off_c, 0, 43, 64
1, 109777, Note_off_c, 0, 47, 57
1, 109816, Note_off_c, 0, 42, 63
1, 109819, Note_on_c, 0, 43, 78
1, 109888, Note_off_c, 0, 43, 62
1, 109916, Note_on_c, 0, 45, 74
1, 109926, Note_on_c, 0, 47, 78
1, 109932, Control_c, 0, 64, 49
1, 109948, Control_c, 0, 64, 60
1, 109963, Control_c, 0, 64, 65
1, 109978, Control_c, 0, 64, 70
1, 109992, Control_c, 0, 64, 75
1, 109998, Note_off_c, 0, 52, 57
1, 110007, Control_c, 0, 64, 83
1, 110012, Note_off_c, 0, 45, 57
1, 110017, Note_on_c, 0, 43, 70
1, 110022, Control_c, 0, 64, 92
1, 110037, Control_c, 0, 64, 105
1, 110045, Note_off_c, 0, 47, 61
1, 110051, Control_c, 0, 64, 127
1, 110065, Note_off_c, 0, 43, 60
1, 110107, Note_on_c, 0, 42, 65
1, 110208, Note_off_c, 0, 42, 59
1, 110227, Note_on_c, 0, 53, 75
1, 110229, Control_c, 0, 64, 103
1, 110240, Note_on_c, 0, 47, 69
1, 110241, Note_on_c, 0, 43, 58
1, 110244, Control_c, 0, 64, 76
1, 110267, Control_c, 0, 64, 60
1, 110282, Control_c, 0, 64, 0
1, 110326, Control_c, 0, 64, 35
1, 110341, Control_c, 0, 64, 55
1, 110354, Note_on_c, 0, 46, 74
1, 110356, Control_c, 0, 64, 68
1, 110358, Note_off_c, 0, 47, 63
1, 110370, Control_c, 0, 64, 80
1, 110385, Control_c, 0, 64, 111
1, 110400, Control_c, 0, 64, 127
1, 110435, Note_on_c, 0, 47, 92
1, 110440, Note_off_c, 0, 46, 63
1, 110542, Note_on_c, 0, 44, 93
1, 110545, Note_on_c, 0, 48, 85
1, 110554, Note_off_c, 0, 47, 64
1, 110562, Note_off_c, 0, 53, 60
1, 110569, Note_off_c, 0, 43, 60
1, 110638, Note_on_c, 0, 50, 85
1, 110658, Note_off_c, 0, 48, 64
1, 110684, Note_off_c, 0, 50, 63
1, 110722, Note_on_c, 0, 48, 88
1, 110831, Control_c, 0, 64, 104
1, 110837, Note_off_c, 0, 48, 61
1, 110846, Control_c, 0, 64, 88
1, 110854, Note_on_c, 0, 53, 87
1, 110856, Note_on_c, 0, 43, 72
1, 110859, Note_on_c, 0, 47, 88
1, 110861, Control_c, 0, 64, 75
1, 110870, Note_off_c, 0, 44, 64
1, 110875, Control_c, 0, 64, 61
1, 110890, Control_c, 0, 64, 33
1, 110905, Control_c, 0, 64, 0
1, 110942, Note_on_c, 0, 52, 85
1, 110945, Note_off_c, 0, 53, 62
1, 111061, Note_on_c, 0, 53, 82
1, 111083, Note_off_c, 0, 52, 61
1, 111139, Note_off_c, 0, 43, 61
1, 111147, Note_on_c, 0, 55, 78
1, 111186, Note_off_c, 0, 47, 58
1, 111192, Note_off_c, 0, 53, 57
1, 111233, Note_on_c, 0, 56, 77
1, 111270, Note_off_c, 0, 55, 60
1, 111325, Note_on_c, 0, 53, 86
1, 111357, Note_off_c, 0, 56, 61
1, 111398, Note_off_c, 0, 53, 64
1, 111433, Note_on_c, 0, 60, 91
1, 111435, Note_on_c, 0, 48, 102
1, 111435, Note_on_c, 0, 52, 89
1, 111460, Control_c, 0, 64, 55
1, 111473, Note_off_c, 0, 48, 65
1, 111475, Control_c, 0, 64, 73
1, 111490, Control_c, 0, 64, 90
1, 111492, Note_off_c, 0, 52, 65
1, 111505, Control_c, 0, 64, 127
1, 111574, Note_off_c, 0, 60, 64
1, 111822, Note_on_c, 0, 60, 102
1, 111851, Note_off_c, 0, 60, 67
1, 112169, Note_on_c, 0, 65, 110
1, 112176, Note_on_c, 0, 61, 91
1, 112194, Control_c, 0, 64, 100
1, 112209, Control_c, 0, 64, 71
1, 112223, Control_c, 0, 64, 47
1, 112238, Control_c, 0, 64, 0
1, 112298, Control_c, 0, 64, 52
1, 112313, Control_c, 0, 64, 65
1, 112328, Control_c, 0, 64, 79
1, 112343, Control_c, 0, 64, 125
1, 112358, Control_c, 0, 64, 127
1, 112425, Note_off_c, 0, 65, 59
1, 112525, Note_on_c, 0, 65, 103
1, 112621, Note_off_c, 0, 61, 35
1, 112829, Note_off_c, 0, 65, 57
1, 112854, Control_c, 0, 64, 89
1, 112865, Note_on_c, 0, 62, 93
1, 112869, Control_c, 0, 64, 64
1, 112876, Note_on_c, 0, 66, 71
1, 112884, Control_c, 0, 64, 0
1, 112913, Control_c, 0, 64, 38
1, 112928, Control_c, 0, 64, 57
1, 112943, Control_c, 0, 64, 67
1, 112957, Note_off_c, 0, 62, 60
1, 112958, Control_c, 0, 64, 77
1, 112972, Control_c, 0, 64, 93
1, 112984, Note_off_c, 0, 66, 61
1, 112984, Note_on_c, 0, 67, 73
1, 112987, Control_c, 0, 64, 106
1, 113002, Control_c, 0, 64, 125
1, 113017, Control_c, 0, 64, 127
1, 113077, Note_on_c, 0, 68, 78
1, 113085, Note_off_c, 0, 67, 60
1, 113165, Note_on_c, 0, 62, 93
1, 113165, Note_off_c, 0, 68, 62
1, 113174, Note_on_c, 0, 69, 83
1, 113217, Note_off_c, 0, 62, 55
1, 113271, Note_on_c, 0, 70, 88
1, 113285, Note_off_c, 0, 69, 59
1, 113364, Note_on_c, 0, 71, 83
1, 113412, Note_off_c, 0, 70, 55
1, 113464, Note_on_c, 0, 72, 99
1, 113472, Note_on_c, 0, 67, 85
1, 113493, Note_on_c, 0, 63, 78
1, 113499, Control_c, 0, 64, 98
1, 113513, Note_off_c, 0, 71, 54
1, 113514, Control_c, 0, 64, 74
1, 113529, Control_c, 0, 64, 58
1, 113544, Control_c, 0, 64, 0
1, 113573, Note_on_c, 0, 62, 84
1, 113580, Note_off_c, 0, 63, 63
1, 113639, Note_off_c, 0, 67, 56
1, 113676, Note_on_c, 0, 63, 82
1, 113682, Note_off_c, 0, 62, 60
1, 113751, Note_off_c, 0, 63, 63
1, 113776, Note_on_c, 0, 65, 80
1, 113781, Control_c, 0, 64, 39
1, 113788, Note_on_c, 0, 67, 70
1, 113795, Control_c, 0, 64, 57
1, 113810, Control_c, 0, 64, 66
1, 113825, Control_c, 0, 64, 72
1, 113833, Note_off_c, 0, 72, 60
1, 113840, Control_c, 0, 64, 82
1, 113850, Note_off_c, 0, 65, 60
1, 113855, Control_c, 0, 64, 98
1, 113864, Note_on_c, 0, 63, 74
1, 113869, Control_c, 0, 64, 127
1, 113884, Note_off_c, 0, 67, 55
1, 113925, Note_off_c, 0, 63, 61
1, 113937, Note_on_c, 0, 62, 70
1, 114048, Note_off_c, 0, 62, 59
1, 114056, Control_c, 0, 64, 111
1, 114071, Note_on_c, 0, 63, 62
1, 114071, Control_c, 0, 64, 73
1, 114078, Note_on_c, 0, 73, 66
1, 114085, Control_c, 0, 64, 57
1, 114086, Note_on_c, 0, 67, 65
1, 114100, Control_c, 0, 64, 0
1, 114130, Control_c, 0, 64, 42
1, 114144, Control_c, 0, 64, 56
1, 114159, Control_c, 0, 64, 64
1, 114174, Control_c, 0, 64, 75
1, 114178, Note_on_c, 0, 66, 80
1, 114180, Note_off_c, 0, 67, 65
1, 114189, Control_c, 0, 64, 91
1, 114191, Note_off_c, 0, 73, 60
1, 114204, Control_c, 0, 64, 127
1, 114257, Note_on_c, 0, 67, 87
1, 114268, Note_off_c, 0, 66, 59
1, 114354, Note_off_c, 0, 63, 60
1, 114363, Note_on_c, 0, 68, 82
1, 114364, Note_on_c, 0, 64, 92
1, 114394, Note_off_c, 0, 67, 59
1, 114448, Note_on_c, 0, 70, 84
1, 114449, Poly_aftertouch_c, 0, 74, 0
1, 114456, Note_off_c, 0, 68, 64
1, 114540, Note_on_c, 0, 68, 86
1, 114581, Note_off_c, 0, 70, 59
1, 114648, Control_c, 0, 64, 86
1, 114649, Note_on_c, 0, 63, 61
1, 114650, Note_off_c, 0, 68, 64
1, 114653, Note_on_c, 0, 73, 79
1, 114654, Note_on_c, 0, 67, 80
1, 114662, Control_c, 0, 64, 63
1, 114677, Control_c, 0, 64, 0
1, 114694, Note_off_c, 0, 64, 57
1, 114746, Note_on_c, 0, 72, 74
1, 114760, Note_off_c, 0, 73, 62
1, 114775, Control_c, 0, 64, 50
1, 114790, Control_c, 0, 64, 64
1, 114805, Control_c, 0, 64, 74
1, 114820, Control_c, 0, 64, 89
1, 114831, Note_off_c, 0, 67, 63
1, 114834, Control_c, 0, 64, 127
1, 114848, Note_on_c, 0, 73, 78
1, 114873, Note_off_c, 0, 63, 61
1, 114906, Note_off_c, 0, 72, 57
1, 114938, Note_on_c, 0, 75, 85
1, 114956, Note_off_c, 0, 73, 59
1, 114982, Note_off_c, 0, 75, 64
1, 115037, Note_on_c, 0, 76, 87
1, 115128, Note_on_c, 0, 73, 86
1, 115130, Control_c, 0, 64, 103
1, 115145, Control_c, 0, 64, 73
1, 115156, Note_off_c, 0, 76, 59
1, 115160, Control_c, 0, 64, 0
1, 115227, Note_on_c, 0, 72, 89
1, 115229, Note_on_c, 0, 68, 98
1, 115230, Note_on_c, 0, 44, 105
1, 115234, Control_c, 0, 64, 62
1, 115249, Control_c, 0, 64, 97
1, 115251, Note_off_c, 0, 73, 33
1, 115264, Control_c, 0, 64, 127
1, 115267, Note_off_c, 0, 44, 64
1, 115281, Note_off_c, 0, 72, 66
1, 115283, Note_off_c, 0, 68, 64
1, 115629, Note_on_c, 0, 44, 105
1, 115657, Note_off_c, 0, 44, 65
1, 115982, Note_on_c, 0, 49, 103
1, 115983, Control_c, 0, 64, 122
1, 115984, Note_on_c, 0, 45, 103
1, 115998, Control_c, 0, 64, 75
1, 116013, Control_c, 0, 64, 47
1, 116028, Control_c, 0, 64, 0
1, 116087, Control_c, 0, 64, 59
1, 116102, Control_c, 0, 64, 71
1, 116117, Control_c, 0, 64, 84
1, 116131, Control_c, 0, 64, 105
1, 116146, Note_off_c, 0, 49, 62
1, 116146, Control_c, 0, 64, 127
1, 116347, Control_c, 0, 64, 88
1, 116362, Control_c, 0, 64, 62
1, 116376, Note_on_c, 0, 49, 89
1, 116377, Control_c, 0, 64, 0
1, 116421, Control_c, 0, 64, 34
1, 116436, Control_c, 0, 64, 57
1, 116451, Control_c, 0, 64, 68
1, 116466, Control_c, 0, 64, 78
1, 116481, Control_c, 0, 64, 88
1, 116495, Control_c, 0, 64, 94
1, 116510, Control_c, 0, 64, 98
1, 116525, Control_c, 0, 64, 101
1, 116540, Control_c, 0, 64, 107
1, 116555, Control_c, 0, 64, 127
1, 116632, Note_off_c, 0, 49, 48
1, 116688, Control_c, 0, 64, 112
1, 116703, Control_c, 0, 64, 82
1, 116716, Note_on_c, 0, 46, 89
1, 116718, Control_c, 0, 64, 64
1, 116725, Note_off_c, 0, 45, 62
1, 116726, Note_on_c, 0, 50, 73
1, 116732, Control_c, 0, 64, 0
1, 116777, Control_c, 0, 64, 40
1, 116792, Control_c, 0, 64, 59
1, 116806, Control_c, 0, 64, 70
1, 116821, Control_c, 0, 64, 82
1, 116826, Note_off_c, 0, 46, 60
1, 116835, Note_on_c, 0, 51, 71
1, 116835, Note_off_c, 0, 50, 60
1, 116836, Control_c, 0, 64, 102
1, 116850, Control_c, 0, 64, 127
1, 116918, Note_off_c, 0, 51, 58
1, 116941, Note_on_c, 0, 52, 76
1, 117051, Note_on_c, 0, 53, 80
1, 117066, Note_on_c, 0, 46, 93
1, 117089, Note_off_c, 0, 46, 66
1, 117107, Note_off_c, 0, 52, 33
1, 117149, Note_on_c, 0, 54, 76
1, 117166, Note_off_c, 0, 53, 60
1, 117227, Note_on_c, 0, 55, 79
1, 117239, Note_off_c, 0, 54, 57
1, 117300, Note_off_c, 0, 55, 61
1, 117341, Note_on_c, 0, 51, 73
1, 117342, Note_on_c, 0, 56, 78
1, 117353, Note_on_c, 0, 47, 95
1, 117422, Control_c, 0, 64, 113
1, 117437, Note_off_c, 0, 51, 60
1, 117437, Control_c, 0, 64, 84
1, 117446, Note_on_c, 0, 46, 85
1, 117452, Control_c, 0, 64, 65
1, 117454, Note_off_c, 0, 47, 64
1, 117467, Control_c, 0, 64, 44
1, 117481, Control_c, 0, 64, 0
1, 117557, Note_off_c, 0, 46, 61
1, 117562, Note_on_c, 0, 47, 78
1, 117647, Note_on_c, 0, 51, 69
1, 117669, Note_off_c, 0, 47, 62
1, 117676, Note_on_c, 0, 49, 71
1, 117688, Control_c, 0, 64, 48
1, 117703, Control_c, 0, 64, 62
1, 117718, Control_c, 0, 64, 70
1, 117732, Note_off_c, 0, 56, 54
1, 117732, Control_c, 0, 64, 79
1, 117754, Control_c, 0, 64, 99
1, 117760, Note_off_c, 0, 49, 61
1, 117768, Note_off_c, 0, 51, 55
1, 117769, Control_c, 0, 64, 127
1, 117778, Note_on_c, 0, 47, 71
1, 117847, Note_off_c, 0, 47, 61
1, 117866, Note_on_c, 0, 46, 55
1, 117944, Note_off_c, 0, 46, 50
1, 117963, Control_c, 0, 64, 96
1, 117968, Note_on_c, 0, 57, 62
1, 117978, Control_c, 0, 64, 71
1, 117984, Note_on_c, 0, 51, 71
1, 117992, Control_c, 0, 64, 55
1, 117994, Note_on_c, 0, 47, 57
1, 118007, Control_c, 0, 64, 0
1, 118022, Control_c, 0, 64, 41
1, 118037, Control_c, 0, 64, 55
1, 118052, Control_c, 0, 64, 64
1, 118066, Control_c, 0, 64, 73
1, 118080, Note_on_c, 0, 50, 84
1, 118081, Note_off_c, 0, 51, 59
1, 118081, Control_c, 0, 64, 86
1, 118096, Control_c, 0, 64, 104
1, 118111, Control_c, 0, 64, 127
1, 118188, Note_on_c, 0, 51, 81
1, 118202, Note_off_c, 0, 50, 58
1, 118248, Note_off_c, 0, 51, 62
1, 118257, Note_off_c, 0, 47, 64
1, 118273, Note_on_c, 0, 48, 99
1, 118279, Note_on_c, 0, 52, 76
1, 118377, Note_on_c, 0, 54, 84
1, 118383, Note_off_c, 0, 57, 62
1, 118400, Note_off_c, 0, 52, 61
1, 118461, Note_on_c, 0, 52, 88
1, 118471, Note_off_c, 0, 54, 60
1, 118496, Control_c, 0, 64, 107
1, 118518, Control_c, 0, 64, 85
1, 118533, Control_c, 0, 64, 71
1, 118548, Control_c, 0, 64, 54
1, 118563, Control_c, 0, 64, 0
1, 118579, Note_on_c, 0, 51, 73
1, 118583, Note_on_c, 0, 57, 81
1, 118584, Note_on_c, 0, 47, 66
1, 118610, Note_off_c, 0, 52, 59
1, 118614, Note_off_c, 0, 48, 62
1, 118683, Note_on_c, 0, 56, 82
1, 118699, Note_off_c, 0, 57, 62
1, 118780, Note_on_c, 0, 57, 77
1, 118815, Control_c, 0, 64, 39
1, 118825, Note_off_c, 0, 56, 57
1, 118830, Control_c, 0, 64, 58
1, 118835, Note_off_c, 0, 47, 60
1, 118845, Control_c, 0, 64, 66
1, 118860, Control_c, 0, 64, 72
1, 118871, Note_on_c, 0, 59, 73
1, 118875, Control_c, 0, 64, 79
1, 118889, Control_c, 0, 64, 85
1, 118904, Control_c, 0, 64, 89
1, 118913, Note_off_c, 0, 51, 63
1, 118919, Control_c, 0, 64, 94
1, 118929, Note_off_c, 0, 57, 60
1, 118933, Control_c, 0, 64, 101
1, 118948, Control_c, 0, 64, 112
1, 118963, Control_c, 0, 64, 127
1, 118967, Note_on_c, 0, 60, 85
1, 118992, Note_off_c, 0, 59, 61
1, 119052, Note_on_c, 0, 57, 80
1, 119075, Note_off_c, 0, 60, 62
1, 119101, Note_off_c, 0, 57, 63
1, 119126, Control_c, 0, 64, 96
1, 119131, Poly_aftertouch_c, 0, 59, 127
1, 119141, Control_c, 0, 64, 68
1, 119154, Poly_aftertouch_c, 0, 59, 0
1, 119156, Control_c, 0, 64, 0
1, 119161, Note_on_c, 0, 52, 106
1, 119166, Note_on_c, 0, 56, 99
1, 119230, Control_c, 0, 64, 47
1, 119245, Control_c, 0, 64, 66
1, 119267, Control_c, 0, 64, 75
1, 119282, Control_c, 0, 64, 92
1, 119292, Note_off_c, 0, 52, 55
1, 119297, Control_c, 0, 64, 127
1, 119421, Note_off_c, 0, 56, 61
1, 119543, Note_on_c, 0, 52, 103
1, 119576, Note_off_c, 0, 52, 65
1, 119894, Note_on_c, 0, 53, 100
1, 119897, Note_on_c, 0, 57, 101
1, 119905, Control_c, 0, 64, 82
1, 119920, Control_c, 0, 64, 56
1, 119935, Control_c, 0, 64, 0
1, 119964, Control_c, 0, 64, 43
1, 119978, Control_c, 0, 64, 64
1, 119992, Note_off_c, 0, 53, 62
1, 119993, Control_c, 0, 64, 83
1, 120015, Control_c, 0, 64, 127
1, 120108, Note_off_c, 0, 57, 51
1, 120260, Note_on_c, 0, 57, 97
1, 120305, Note_off_c, 0, 57, 64
1, 120579, Control_c, 0, 64, 118
1, 120592, Note_on_c, 0, 60, 92
1, 120594, Control_c, 0, 64, 75
1, 120599, Note_on_c, 0, 53, 81
1, 120608, Note_on_c, 0, 69, 78
1, 120609, Control_c, 0, 64, 51
1, 120623, Control_c, 0, 64, 0
1, 120668, Control_c, 0, 64, 54
1, 120683, Control_c, 0, 64, 67
1, 120697, Control_c, 0, 64, 80
1, 120703, Note_on_c, 0, 70, 82
1, 120707, Note_off_c, 0, 69, 63
1, 120712, Control_c, 0, 64, 108
1, 120728, Control_c, 0, 64, 127
1, 120740, Note_off_c, 0, 60, 58
1, 120756, Note_off_c, 0, 53, 54
1, 120800, Note_off_c, 0, 70, 61
1, 120805, Note_on_c, 0, 71, 79
1, 120894, Note_on_c, 0, 60, 82
1, 120897, Note_on_c, 0, 72, 83
1, 120900, Note_on_c, 0, 53, 62
1, 120914, Note_off_c, 0, 71, 61
1, 120934, Note_off_c, 0, 53, 62
1, 120940, Note_off_c, 0, 60, 63
1, 120987, Note_on_c, 0, 73, 85
1, 121000, Note_off_c, 0, 72, 63
1, 121042, Note_off_c, 0, 73, 66
1, 121066, Note_on_c, 0, 74, 85
1, 121095, Note_off_c, 0, 74, 63
1, 121151, Control_c, 0, 64, 94
1, 121166, Control_c, 0, 64, 65
1, 121179, Note_on_c, 0, 75, 101
1, 121181, Note_on_c, 0, 53, 80
1, 121181, Control_c, 0, 64, 0
1, 121189, Note_on_c, 0, 69, 77
1, 121192, Note_on_c, 0, 67, 79
1, 121213, Note_off_c, 0, 67, 71
1, 121225, Control_c, 0, 64, 46
1, 121240, Control_c, 0, 64, 65
1, 121254, Control_c, 0, 64, 78
1, 121269, Control_c, 0, 64, 105
1, 121270, Note_off_c, 0, 69, 59
1, 121284, Control_c, 0, 64, 127
1, 121285, Note_on_c, 0, 54, 70
1, 121297, Note_off_c, 0, 53, 61
1, 121317, Note_off_c, 0, 75, 58
1, 121372, Note_on_c, 0, 55, 83
1, 121383, Note_off_c, 0, 54, 61
1, 121470, Note_on_c, 0, 56, 84
1, 121474, Note_on_c, 0, 75, 87
1, 121475, Note_on_c, 0, 69, 80
1, 121483, Note_off_c, 0, 55, 60
1, 121510, Note_off_c, 0, 69, 66
1, 121525, Note_off_c, 0, 75, 65
1, 121545, Note_off_c, 0, 56, 61
1, 121561, Note_on_c, 0, 57, 80
1, 121650, Note_on_c, 0, 59, 80
1, 121664, Note_off_c, 0, 57, 62
1, 121721, Control_c, 0, 64, 96
1, 121729, Note_off_c, 0, 59, 63
1, 121736, Control_c, 0, 64, 63
1, 121750, Control_c, 0, 64, 0
1, 121764, Note_on_c, 0, 60, 91
1, 121771, Note_on_c, 0, 75, 86
1, 121776, Note_on_c, 0, 54, 78
1, 121810, Control_c, 0, 64, 49
1, 121825, Control_c, 0, 64, 64
1, 121840, Control_c, 0, 64, 80
1, 121840, Note_off_c, 0, 60, 61
1, 121854, Note_off_c, 0, 54, 56
1, 121854, Control_c, 0, 64, 127
1, 121859, Note_on_c, 0, 76, 81
1, 121877, Note_off_c, 0, 75, 60
1, 121961, Note_on_c, 0, 77, 85
1, 121981, Note_off_c, 0, 76, 63
1, 122043, Note_on_c, 0, 60, 84
1, 122046, Note_on_c, 0, 54, 82
1, 122048, Note_on_c, 0, 78, 89
1, 122067, Note_off_c, 0, 60, 68
1, 122072, Note_off_c, 0, 77, 63
1, 122075, Note_off_c, 0, 54, 60
1, 122126, Note_on_c, 0, 79, 94
1, 122133, Note_off_c, 0, 78, 63
1, 122201, Note_on_c, 0, 80, 83
1, 122224, Note_off_c, 0, 79, 64
1, 122282, Note_off_c, 0, 80, 59
1, 122303, Note_on_c, 0, 81, 98
1, 122306, Note_on_c, 0, 75, 96
1, 122307, Control_c, 0, 64, 91
1, 122309, Note_on_c, 0, 54, 84
1, 122315, Note_on_c, 0, 80, 57
1, 122322, Control_c, 0, 64, 61
1, 122337, Control_c, 0, 64, 0
1, 122366, Control_c, 0, 64, 48
1, 122381, Control_c, 0, 64, 64
1, 122395, Control_c, 0, 64, 82
1, 122402, Note_on_c, 0, 55, 78
1, 122410, Control_c, 0, 64, 127
1, 122411, Note_off_c, 0, 80, 44
1, 122417, Note_off_c, 0, 54, 61
1, 122419, Note_off_c, 0, 75, 60
1, 122478, Note_off_c, 0, 81, 30
1, 122490, Note_on_c, 0, 56, 89
1, 122509, Note_off_c, 0, 55, 61
1, 122573, Note_off_c, 0, 56, 57
1, 122580, Note_on_c, 0, 57, 89
1, 122593, Note_on_c, 0, 75, 99
1, 122594, Note_on_c, 0, 81, 99
1, 122631, Note_off_c, 0, 75, 63
1, 122634, Note_off_c, 0, 81, 66
1, 122665, Note_on_c, 0, 59, 83
1, 122672, Note_off_c, 0, 57, 59
1, 122717, Note_off_c, 0, 59, 63
1, 122761, Note_on_c, 0, 60, 88
1, 122841, Control_c, 0, 64, 87
1, 122856, Control_c, 0, 64, 60
1, 122864, Note_on_c, 0, 81, 106
1, 122868, Note_on_c, 0, 59, 87
1, 122871, Control_c, 0, 64, 0
1, 122876, Note_off_c, 0, 60, 61
1, 122892, Note_on_c, 0, 54, 44
1, 122900, Control_c, 0, 64, 40
1, 122910, Note_on_c, 0, 53, 33
1, 122915, Control_c, 0, 64, 62
1, 122916, Note_off_c, 0, 59, 63
1, 122922, Note_off_c, 0, 54, 36
1, 122930, Control_c, 0, 64, 78
1, 122945, Note_off_c, 0, 53, 43
1, 122945, Control_c, 0, 64, 109
1, 122960, Control_c, 0, 64, 127
1, 122964, Note_on_c, 0, 82, 93
1, 122977, Note_off_c, 0, 81, 61
1, 123056, Note_on_c, 0, 83, 89
1, 123056, Note_off_c, 0, 82, 63
1, 123119, Note_on_c, 0, 59, 86
1, 123125, Note_on_c, 0, 54, 84
1, 123142, Note_on_c, 0, 84, 96
1, 123145, Note_off_c, 0, 59, 60
1, 123163, Note_off_c, 0, 83, 64
1, 123163, Note_off_c, 0, 54, 56
1, 123227, Note_on_c, 0, 85, 89
1, 123235, Note_off_c, 0, 84, 63
1, 123274, Note_off_c, 0, 85, 68
1, 123299, Note_on_c, 0, 86, 78
1, 123332, Note_off_c, 0, 86, 60
1, 123354, Control_c, 0, 64, 82
1, 123368, Control_c, 0, 64, 59
1, 123383, Control_c, 0, 64, 38
1, 123386, Note_on_c, 0, 54, 78
1, 123398, Control_c, 0, 64, 56
1, 123400, Note_on_c, 0, 87, 106
1, 123401, Note_on_c, 0, 81, 107
1, 123413, Control_c, 0, 64, 69
1, 123427, Control_c, 0, 64, 104
1, 123442, Control_c, 0, 64, 127
1, 123470, Note_off_c, 0, 81, 62
1, 123489, Note_on_c, 0, 55, 81
1, 123501, Note_off_c, 0, 54, 61
1, 123514, Note_off_c, 0, 87, 55
1, 123581, Note_on_c, 0, 56, 84
1, 123591, Note_off_c, 0, 55, 60
1, 123664, Note_off_c, 0, 56, 60
1, 123667, Note_on_c, 0, 87, 108
1, 123672, Note_on_c, 0, 81, 96
1, 123681, Note_on_c, 0, 57, 93
1, 123691, Note_off_c, 0, 81, 69
1, 123705, Note_off_c, 0, 87, 64
1, 123754, Note_off_c, 0, 57, 0
1, 123774, Note_on_c, 0, 59, 80
1, 123807, Poly_aftertouch_c, 0, 57, 0
1, 123826, Note_off_c, 0, 59, 63
1, 123851, Poly_aftertouch_c, 0, 57, 0
1, 123861, Note_on_c, 0, 60, 88
1, 123968, Control_c, 0, 64, 80
1, 123983, Control_c, 0, 64, 51
1, 123998, Control_c, 0, 64, 0
1, 124004, Note_on_c, 0, 88, 108
1, 124007, Note_on_c, 0, 55, 79
1, 124007, Note_on_c, 0, 59, 83
1, 124013, Control_c, 0, 64, 35
1, 124018, Note_off_c, 0, 60, 64
1, 124028, Control_c, 0, 64, 64
1, 124043, Control_c, 0, 64, 86
1, 124053, Note_off_c, 0, 59, 62
1, 124057, Control_c, 0, 64, 127
1, 124061, Note_off_c, 0, 55, 59
1, 124093, Note_on_c, 0, 83, 90
1, 124130, Note_off_c, 0, 88, 60
1, 124185, Note_on_c, 0, 79, 90
1, 124240, Note_off_c, 0, 83, 62
1, 124279, Note_off_c, 0, 79, 66
1, 124280, Note_on_c, 0, 55, 56
1, 124281, Note_on_c, 0, 76, 81
1, 124284, Note_on_c, 0, 59, 61
1, 124308, Note_off_c, 0, 76, 65
1, 124371, Note_on_c, 0, 71, 83
1, 124445, Note_off_c, 0, 55, 50
1, 124453, Note_on_c, 0, 67, 82
1, 124505, Note_off_c, 0, 71, 60
1, 124544, Note_off_c, 0, 67, 61
1, 124549, Note_off_c, 0, 59, 36
1, 124551, Note_on_c, 0, 64, 75
1, 124628, Control_c, 0, 64, 117
1, 124638, Note_off_c, 0, 64, 62
1, 124639, Note_on_c, 0, 63, 72
1, 124643, Control_c, 0, 64, 86
1, 124658, Control_c, 0, 64, 69
1, 124672, Control_c, 0, 64, 53
1, 124687, Control_c, 0, 64, 0
1, 124708, Note_off_c, 0, 63, 61
1, 124723, Note_on_c, 0, 64, 65
1, 124835, Note_off_c, 0, 64, 56
1, 124843, Note_on_c, 0, 66, 51
1, 124858, Note_on_c, 0, 57, 25
1, 124863, Note_on_c, 0, 60, 36
1, 124916, Note_off_c, 0, 66, 58
1, 124940, Note_on_c, 0, 67, 45
1, 125044, Note_on_c, 0, 66, 54
1, 125059, Note_off_c, 0, 67, 36
1, 125120, Note_off_c, 0, 66, 56
1, 125134, Note_on_c, 0, 64, 47
1, 125143, Note_on_c, 0, 55, 30
1, 125143, Note_on_c, 0, 59, 25
1, 125146, Note_off_c, 0, 60, 39
1, 125200, Note_off_c, 0, 64, 53
1, 125250, Note_off_c, 0, 57, 42
1, 125250, Note_on_c, 0, 66, 46
1, 125295, Note_off_c, 0, 66, 62
1, 125335, Note_on_c, 0, 64, 42
1, 125391, Note_off_c, 0, 64, 44
1, 125407, Note_on_c, 0, 60, 42
1, 125410, Note_on_c, 0, 66, 51
1, 125415, Note_on_c, 0, 57, 26
1, 125435, Note_off_c, 0, 55, 39
1, 125459, Note_off_c, 0, 59, 43
1, 125480, Note_off_c, 0, 66, 52
1, 125508, Note_on_c, 0, 67, 48
1, 125549, Note_off_c, 0, 60, 0
1, 125549, Note_on_c, 0, 60, 6
1, 125597, Note_on_c, 0, 66, 50
1, 125658, Note_off_c, 0, 60, 37
1, 125663, Note_on_c, 0, 59, 42
1, 125664, Note_off_c, 0, 67, 30
1, 125665, Note_on_c, 0, 55, 36
1, 125666, Note_off_c, 0, 66, 54
1, 125693, Note_on_c, 0, 64, 44
1, 125710, Note_off_c, 0, 57, 37
1, 125756, Note_off_c, 0, 64, 59
1, 125776, Note_on_c, 0, 66, 60
1, 125777, Note_off_c, 0, 59, 0
1, 125811, Note_on_c, 0, 59, 20
1, 125851, Note_on_c, 0, 64, 51
1, 125860, Note_off_c, 0, 66, 36
1, 125897, Note_off_c, 0, 55, 56
1, 125912, Note_off_c, 0, 59, 59
1, 125918, Note_off_c, 0, 64, 53
1, 125934, Note_on_c, 0, 57, 50
1, 125939, Note_on_c, 0, 54, 51
1, 125948, Note_on_c, 0, 63, 58
1, 125971, Control_c, 0, 64, 56
1, 125986, Control_c, 0, 64, 65
1, 126007, Note_off_c, 0, 63, 62
1, 126008, Control_c, 0, 64, 71
1, 126023, Control_c, 0, 64, 83
1, 126027, Note_on_c, 0, 64, 62
1, 126036, Note_off_c, 0, 54, 62
1, 126038, Control_c, 0, 64, 105
1, 126052, Control_c, 0, 64, 127
1, 126060, Note_off_c, 0, 64, 62
1, 126082, Note_on_c, 0, 63, 76
1, 126109, Note_off_c, 0, 63, 66
1, 126201, Control_c, 0, 64, 96
1, 126216, Control_c, 0, 64, 67
1, 126222, Note_on_c, 0, 59, 80
1, 126225, Note_on_c, 0, 56, 73
1, 126231, Control_c, 0, 64, 54
1, 126242, Note_on_c, 0, 88, 102
1, 126242, Note_off_c, 0, 57, 60
1, 126245, Control_c, 0, 64, 65
1, 126260, Control_c, 0, 64, 78
1, 126268, Note_on_c, 0, 81, 53
1, 126275, Control_c, 0, 64, 127
1, 126291, Note_off_c, 0, 81, 59
1, 126294, Note_off_c, 0, 59, 53
1, 126341, Note_on_c, 0, 83, 80
1, 126379, Note_off_c, 0, 56, 36
1, 126380, Note_off_c, 0, 88, 57
1, 126421, Note_on_c, 0, 80, 80
1, 126458, Note_off_c, 0, 83, 61
1, 126503, Note_off_c, 0, 80, 62
1, 126511, Note_on_c, 0, 76, 75
1, 126514, Note_on_c, 0, 56, 60
1, 126514, Note_on_c, 0, 59, 67
1, 126536, Note_off_c, 0, 76, 68
1, 126609, Note_on_c, 0, 71, 70
1, 126697, Note_on_c, 0, 68, 75
1, 126715, Note_off_c, 0, 71, 55
1, 126733, Note_off_c, 0, 59, 47
1, 126779, Note_off_c, 0, 68, 62
1, 126797, Note_off_c, 0, 56, 34
1, 126801, Control_c, 0, 64, 88
1, 126806, Note_on_c, 0, 64, 61
1, 126816, Control_c, 0, 64, 59
1, 126831, Control_c, 0, 64, 0
1, 126872, Note_off_c, 0, 64, 61
1, 126880, Note_on_c, 0, 63, 66
1, 126926, Note_off_c, 0, 63, 57
1, 126967, Note_on_c, 0, 64, 55
1, 127062, Note_on_c, 0, 61, 21
1, 127072, Note_off_c, 0, 64, 56
1, 127074, Note_on_c, 0, 57, 13
1, 127082, Note_on_c, 0, 66, 47
1, 127132, Note_off_c, 0, 66, 57
1, 127161, Note_on_c, 0, 68, 51
1, 127251, Note_on_c, 0, 66, 55
1, 127271, Note_off_c, 0, 68, 34
1, 127328, Note_off_c, 0, 66, 56
1, 127338, Note_on_c, 0, 59, 28
1, 127341, Note_on_c, 0, 56, 28
1, 127344, Note_off_c, 0, 61, 37
1, 127349, Note_on_c, 0, 64, 38
1, 127380, Note_off_c, 0, 57, 32
1, 127396, Note_off_c, 0, 64, 49
1, 127439, Note_on_c, 0, 66, 47
1, 127480, Note_off_c, 0, 66, 61
1, 127522, Note_on_c, 0, 64, 48
1, 127538, Note_off_c, 0, 59, 0
1, 127575, Poly_aftertouch_c, 0, 59, 127
1, 127593, Note_on_c, 0, 61, 42
1, 127594, Note_off_c, 0, 64, 45
1, 127595, Note_off_c, 0, 56, 46
1, 127608, Note_on_c, 0, 66, 53
1, 127634, Note_on_c, 0, 57, 31
1, 127644, Poly_aftertouch_c, 0, 59, 0
1, 127685, Note_off_c, 0, 61, 0
1, 127688, Note_off_c, 0, 66, 58
1, 127703, Note_on_c, 0, 68, 56
1, 127722, Poly_aftertouch_c, 0, 61, 127
1, 127734, Note_on_c, 0, 61, 13
1, 127794, Note_on_c, 0, 66, 52
1, 127854, Note_off_c, 0, 68, 40
1, 127858, Note_off_c, 0, 66, 56
1, 127872, Note_on_c, 0, 59, 43
1, 127882, Note_on_c, 0, 64, 55
1, 127884, Note_off_c, 0, 61, 48
1, 127886, Note_on_c, 0, 56, 27
1, 127913, Note_off_c, 0, 57, 39
1, 127951, Note_off_c, 0, 64, 60
1, 127966, Note_on_c, 0, 66, 64
1, 128049, Note_off_c, 0, 66, 49
1, 128052, Note_on_c, 0, 64, 52
1, 128108, Note_off_c, 0, 56, 49
1, 128113, Control_c, 0, 64, 56
1, 128119, Note_off_c, 0, 64, 55
1, 128128, Control_c, 0, 64, 65
1, 128137, Note_off_c, 0, 59, 52
1, 128142, Control_c, 0, 64, 70
1, 128143, Note_on_c, 0, 57, 37
1, 128149, Note_on_c, 0, 63, 62
1, 128157, Control_c, 0, 64, 78
1, 128160, Note_on_c, 0, 54, 43
1, 128172, Control_c, 0, 64, 88
1, 128174, Note_off_c, 0, 57, 51
1, 128187, Control_c, 0, 64, 106
1, 128192, Note_off_c, 0, 54, 48
1, 128200, Note_off_c, 0, 63, 58
1, 128202, Control_c, 0, 64, 127
1, 128222, Note_on_c, 0, 64, 50
1, 128250, Note_off_c, 0, 64, 61
1, 128277, Note_on_c, 0, 63, 58
1, 128296, Note_off_c, 0, 63, 65
1, 128418, Control_c, 0, 64, 73
1, 128427, Note_on_c, 0, 44, 83
1, 128433, Control_c, 0, 64, 53
1, 128437, Note_on_c, 0, 88, 105
1, 128462, Control_c, 0, 64, 67
1, 128477, Control_c, 0, 64, 86
1, 128492, Note_off_c, 0, 44, 63
1, 128492, Control_c, 0, 64, 127
1, 128532, Note_on_c, 0, 83, 82
1, 128561, Note_off_c, 0, 88, 62
1, 128612, Note_on_c, 0, 80, 88
1, 128654, Note_off_c, 0, 83, 59
1, 128707, Note_on_c, 0, 76, 87
1, 128708, Note_off_c, 0, 80, 63
1, 128712, Note_on_c, 0, 56, 77
1, 128718, Note_on_c, 0, 52, 66
1, 128732, Note_on_c, 0, 47, 53
1, 128737, Note_off_c, 0, 56, 66
1, 128747, Note_off_c, 0, 76, 59
1, 128751, Note_off_c, 0, 52, 63
1, 128764, Note_off_c, 0, 47, 64
1, 128800, Note_on_c, 0, 71, 74
1, 128859, Note_off_c, 0, 71, 60
1, 128883, Note_on_c, 0, 68, 67
1, 128900, Note_off_c, 0, 68, 66
1, 128988, Control_c, 0, 64, 93
1, 129001, Note_on_c, 0, 45, 93
1, 129003, Control_c, 0, 64, 64
1, 129016, Note_on_c, 0, 85, 99
1, 129018, Control_c, 0, 64, 0
1, 129047, Control_c, 0, 64, 54
1, 129062, Control_c, 0, 64, 68
1, 129077, Control_c, 0, 64, 87
1, 129091, Control_c, 0, 64, 127
1, 129097, Note_on_c, 0, 81, 88
1, 129138, Note_off_c, 0, 85, 56
1, 129176, Note_off_c, 0, 81, 60
1, 129189, Note_on_c, 0, 76, 79
1, 129208, Note_off_c, 0, 45, 57
1, 129233, Note_off_c, 0, 76, 59
1, 129270, Note_on_c, 0, 49, 67
1, 129273, Note_on_c, 0, 57, 71
1, 129276, Note_on_c, 0, 52, 67
1, 129295, Note_on_c, 0, 73, 81
1, 129298, Note_off_c, 0, 49, 65
1, 129300, Note_off_c, 0, 57, 69
1, 129304, Note_off_c, 0, 52, 64
1, 129380, Note_on_c, 0, 69, 75
1, 129399, Note_off_c, 0, 73, 60
1, 129450, Note_on_c, 0, 64, 76
1, 129459, Note_off_c, 0, 69, 61
1, 129480, Note_off_c, 0, 64, 65
1, 129537, Control_c, 0, 64, 125
1, 129546, Note_on_c, 0, 47, 88
1, 129551, Control_c, 0, 64, 72
1, 129555, Note_on_c, 0, 83, 100
1, 129566, Control_c, 0, 64, 42
1, 129581, Control_c, 0, 64, 0
1, 129596, Control_c, 0, 64, 49
1, 129611, Control_c, 0, 64, 69
1, 129626, Control_c, 0, 64, 90
1, 129641, Control_c, 0, 64, 127
1, 129659, Note_on_c, 0, 80, 86
1, 129741, Note_off_c, 0, 83, 59
1, 129760, Note_on_c, 0, 76, 84
1, 129786, Note_off_c, 0, 47, 60
1, 129795, Note_off_c, 0, 80, 61
1, 129806, Note_off_c, 0, 76, 62
1, 129837, Note_on_c, 0, 59, 77
1, 129841, Note_on_c, 0, 52, 70
1, 129842, Note_on_c, 0, 56, 74
1, 129843, Note_on_c, 0, 71, 74
1, 129858, Note_off_c, 0, 59, 71
1, 129868, Note_off_c, 0, 56, 67
1, 129873, Note_off_c, 0, 52, 63
1, 129891, Note_off_c, 0, 71, 62
1, 129928, Note_on_c, 0, 68, 80
1, 130008, Note_on_c, 0, 64, 75
1, 130017, Note_off_c, 0, 68, 62
1, 130029, Note_off_c, 0, 64, 70
1, 130093, Control_c, 0, 64, 93
1, 130099, Note_on_c, 0, 47, 114
1, 130108, Control_c, 0, 64, 58
1, 130123, Control_c, 0, 64, 0
1, 130125, Note_on_c, 0, 83, 100
1, 130152, Control_c, 0, 64, 51
1, 130167, Control_c, 0, 64, 67
1, 130182, Control_c, 0, 64, 87
1, 130197, Control_c, 0, 64, 127
1, 130220, Note_on_c, 0, 78, 85
1, 130285, Note_off_c, 0, 83, 56
1, 130301, Note_on_c, 0, 75, 84
1, 130350, Note_off_c, 0, 47, 60
1, 130362, Note_off_c, 0, 78, 62
1, 130371, Note_on_c, 0, 59, 92
1, 130377, Note_on_c, 0, 51, 72
1, 130377, Note_on_c, 0, 54, 81
1, 130386, Note_on_c, 0, 71, 78
1, 130388, Note_off_c, 0, 75, 62
1, 130388, Note_off_c, 0, 59, 74
1, 130398, Note_off_c, 0, 54, 71
1, 130407, Note_off_c, 0, 51, 66
1, 130429, Note_off_c, 0, 71, 63
1, 130480, Note_on_c, 0, 66, 78
1, 130568, Note_on_c, 0, 63, 80
1, 130586, Note_off_c, 0, 66, 63
1, 130616, Note_off_c, 0, 63, 63
1, 130678, Note_on_c, 0, 64, 102
1, 130678, Control_c, 0, 64, 78
1, 130693, Control_c, 0, 64, 52
1, 130709, Control_c, 0, 64, 0
1, 130724, Control_c, 0, 64, 48
1, 130739, Control_c, 0, 64, 65
1, 130754, Control_c, 0, 64, 81
1, 130768, Control_c, 0, 64, 127
1, 130776, Note_on_c, 0, 59, 85
1, 130865, Note_on_c, 0, 55, 90
1, 130869, Note_off_c, 0, 64, 60
1, 130908, Poly_aftertouch_c, 0, 60, 127
1, 130944, Note_on_c, 0, 52, 94
1, 130976, Note_off_c, 0, 55, 62
1, 130985, Poly_aftertouch_c, 0, 60, 0
1, 130992, Note_off_c, 0, 52, 67
1, 131013, Note_off_c, 0, 59, 61
1, 131050, Note_on_c, 0, 47, 95
1, 131146, Note_on_c, 0, 43, 77
1, 131184, Note_off_c, 0, 47, 61
1, 131188, Note_on_c, 0, 68, 7
1, 131244, Note_off_c, 0, 68, 49
1, 131280, Control_c, 0, 64, 113
1, 131283, Note_off_c, 0, 43, 60
1, 131291, Note_on_c, 0, 40, 55
1, 131292, Note_on_c, 0, 71, 57
1, 131294, Control_c, 0, 64, 86
1, 131303, Note_on_c, 0, 64, 43
1, 131308, Note_on_c, 0, 67, 38
1, 131309, Control_c, 0, 64, 69
1, 131324, Control_c, 0, 64, 56
1, 131339, Control_c, 0, 64, 34
1, 131354, Control_c, 0, 64, 0
1, 131358, Note_off_c, 0, 64, 52
1, 131370, Note_off_c, 0, 67, 52
1, 131380, Note_off_c, 0, 40, 59
1, 131389, Note_off_c, 0, 71, 38
1, 131392, Note_on_c, 0, 39, 67
1, 131484, Note_off_c, 0, 39, 59
1, 131494, Note_on_c, 0, 40, 60
1, 131570, Note_on_c, 0, 63, 67
1, 131572, Note_on_c, 0, 71, 66
1, 131590, Note_on_c, 0, 69, 45
1, 131592, Note_off_c, 0, 40, 57
1, 131594, Note_on_c, 0, 42, 61
1, 131607, Note_off_c, 0, 63, 59
1, 131625, Note_off_c, 0, 69, 50
1, 131640, Note_off_c, 0, 71, 52
1, 131651, Note_off_c, 0, 42, 61
1, 131679, Note_on_c, 0, 43, 73
1, 131764, Note_on_c, 0, 42, 71
1, 131779, Note_off_c, 0, 43, 57
1, 131850, Note_on_c, 0, 64, 65
1, 131850, Note_on_c, 0, 71, 65
1, 131855, Note_on_c, 0, 40, 68
1, 131855, Note_on_c, 0, 67, 62
1, 131862, Note_off_c, 0, 42, 63
1, 131885, Note_off_c, 0, 64, 60
1, 131891, Note_off_c, 0, 67, 60
1, 131892, Note_off_c, 0, 71, 60
1, 131938, Note_on_c, 0, 39, 79
1, 131949, Note_off_c, 0, 40, 63
1, 132036, Note_on_c, 0, 40, 74
1, 132058, Note_off_c, 0, 39, 59
1, 132106, Note_on_c, 0, 63, 87
1, 132109, Note_on_c, 0, 71, 76
1, 132118, Note_on_c, 0, 69, 69
1, 132132, Note_on_c, 0, 42, 81
1, 132154, Note_off_c, 0, 63, 59
1, 132156, Note_off_c, 0, 40, 59
1, 132172, Note_off_c, 0, 69, 54
1, 132173, Note_off_c, 0, 71, 62
1, 132217, Note_on_c, 0, 43, 90
1, 132225, Note_off_c, 0, 42, 63
1, 132308, Note_on_c, 0, 42, 77
1, 132333, Note_off_c, 0, 43, 62
1, 132394, Note_on_c, 0, 40, 71
1, 132400, Note_off_c, 0, 42, 64
1, 132401, Note_on_c, 0, 71, 84
1, 132404, Note_on_c, 0, 64, 74
1, 132405, Note_on_c, 0, 67, 71
1, 132428, Note_off_c, 0, 64, 69
1, 132437, Note_off_c, 0, 67, 62
1, 132462, Note_off_c, 0, 71, 62
1, 132479, Note_off_c, 0, 40, 61
1, 132483, Note_on_c, 0, 42, 81
1, 132554, Note_on_c, 0, 40, 74
1, 132578, Note_off_c, 0, 42, 63
1, 132658, Note_on_c, 0, 38, 75
1, 132669, Note_off_c, 0, 40, 61
1, 132681, Note_on_c, 0, 71, 79
1, 132681, Note_on_c, 0, 65, 79
1, 132687, Note_on_c, 0, 67, 68
1, 132706, Note_off_c, 0, 65, 68
1, 132712, Note_off_c, 0, 67, 69
1, 132730, Note_off_c, 0, 71, 63
1, 132751, Note_on_c, 0, 40, 74
1, 132752, Note_off_c, 0, 38, 56
1, 132845, Note_on_c, 0, 38, 70
1, 132856, Note_off_c, 0, 40, 61
1, 132939, Note_off_c, 0, 38, 62
1, 132961, Note_on_c, 0, 36, 63
1, 132981, Note_on_c, 0, 72, 68
1, 132983, Note_on_c, 0, 64, 62
1, 132995, Note_on_c, 0, 67, 54
1, 133027, Control_c, 0, 64, 46
1, 133042, Control_c, 0, 64, 60
1, 133048, Note_off_c, 0, 64, 61
1, 133057, Control_c, 0, 64, 67
1, 133066, Note_on_c, 0, 40, 67
1, 133072, Note_off_c, 0, 36, 61
1, 133072, Control_c, 0, 64, 75
1, 133087, Control_c, 0, 64, 91
1, 133102, Control_c, 0, 64, 127
1, 133155, Note_on_c, 0, 43, 86
1, 133161, Note_off_c, 0, 40, 62
1, 133167, Note_off_c, 0, 67, 61
1, 133195, Note_off_c, 0, 72, 61
1, 133224, Note_off_c, 0, 43, 58
1, 133239, Note_on_c, 0, 48, 87
1, 133291, Note_off_c, 0, 48, 64
1, 133329, Note_on_c, 0, 52, 91
1, 133414, Note_on_c, 0, 55, 91
1, 133443, Note_off_c, 0, 52, 63
1, 133516, Note_off_c, 0, 55, 63
1, 133520, Note_on_c, 0, 60, 84
1, 133541, Note_on_c, 0, 79, 88
1, 133543, Note_on_c, 0, 76, 88
1, 133545, Note_on_c, 0, 72, 85
1, 133588, Note_off_c, 0, 72, 55
1, 133595, Note_off_c, 0, 76, 61
1, 133600, Control_c, 0, 64, 80
1, 133614, Control_c, 0, 64, 63
1, 133620, Note_on_c, 0, 62, 86
1, 133626, Note_off_c, 0, 79, 58
1, 133629, Control_c, 0, 64, 36
1, 133634, Note_off_c, 0, 60, 66
1, 133644, Control_c, 0, 64, 0
1, 133707, Note_on_c, 0, 60, 82
1, 133728, Note_off_c, 0, 62, 61
1, 133813, Note_on_c, 0, 74, 84
1, 133814, Note_on_c, 0, 59, 66
1, 133814, Note_on_c, 0, 79, 76
1, 133816, Note_off_c, 0, 60, 61
1, 133829, Note_on_c, 0, 77, 61
1, 133840, Note_off_c, 0, 74, 61
1, 133859, Note_off_c, 0, 77, 65
1, 133873, Note_off_c, 0, 79, 61
1, 133897, Note_off_c, 0, 59, 65
1, 133914, Note_on_c, 0, 57, 63
1, 133999, Note_off_c, 0, 57, 63
1, 134011, Note_on_c, 0, 59, 63
1, 134088, Note_off_c, 0, 59, 62
1, 134103, Note_on_c, 0, 79, 69
1, 134104, Note_on_c, 0, 60, 68
1, 134107, Note_on_c, 0, 72, 58
1, 134111, Note_on_c, 0, 76, 65
1, 134127, Note_off_c, 0, 72, 63
1, 134136, Note_off_c, 0, 79, 61
1, 134139, Note_off_c, 0, 76, 66
1, 134149, Note_off_c, 0, 60, 65
1, 134189, Note_on_c, 0, 62, 72
1, 134260, Note_off_c, 0, 62, 40
1, 134288, Note_on_c, 0, 60, 65
1, 134363, Note_off_c, 0, 60, 62
1, 134370, Note_on_c, 0, 59, 66
1, 134389, Note_on_c, 0, 74, 75
1, 134391, Note_on_c, 0, 79, 70
1, 134399, Note_on_c, 0, 77, 61
1, 134412, Note_off_c, 0, 74, 66
1, 134423, Note_off_c, 0, 79, 62
1, 134425, Note_off_c, 0, 77, 67
1, 134432, Note_off_c, 0, 59, 60
1, 134466, Note_on_c, 0, 57, 65
1, 134553, Note_off_c, 0, 57, 63
1, 134553, Note_on_c, 0, 59, 72
1, 134647, Note_on_c, 0, 72, 83
1, 134648, Note_on_c, 0, 60, 83
1, 134648, Note_on_c, 0, 79, 88
1, 134652, Note_off_c, 0, 59, 61
1, 134652, Note_on_c, 0, 76, 83
1, 134665, Note_off_c, 0, 72, 69
1, 134672, Note_off_c, 0, 76, 71
1, 134689, Note_off_c, 0, 79, 65
1, 134704, Note_off_c, 0, 60, 64
1, 134730, Note_on_c, 0, 62, 88
1, 134825, Note_on_c, 0, 60, 88
1, 134847, Note_off_c, 0, 62, 61
1, 134920, Note_on_c, 0, 79, 99
1, 134924, Note_on_c, 0, 59, 82
1, 134924, Note_on_c, 0, 76, 96
1, 134934, Note_off_c, 0, 60, 63
1, 134940, Note_off_c, 0, 76, 75
1, 134954, Note_off_c, 0, 79, 59
1, 134980, Note_off_c, 0, 59, 64
1, 135022, Note_on_c, 0, 60, 85
1, 135106, Note_on_c, 0, 59, 82
1, 135114, Note_off_c, 0, 60, 64
1, 135203, Note_on_c, 0, 58, 91
1, 135209, Note_off_c, 0, 59, 64
1, 135219, Note_on_c, 0, 79, 105
1, 135230, Control_c, 0, 64, 46
1, 135242, Note_off_c, 0, 58, 68
1, 135245, Control_c, 0, 64, 79
1, 135260, Control_c, 0, 64, 127
1, 135318, Note_on_c, 0, 76, 85
1, 135400, Note_on_c, 0, 73, 83
1, 135404, Note_off_c, 0, 79, 60
1, 135445, Note_off_c, 0, 76, 58
1, 135479, Note_off_c, 0, 73, 64
1, 135483, Note_on_c, 0, 67, 75
1, 135509, Note_off_c, 0, 67, 67
1, 135576, Note_on_c, 0, 64, 77
1, 135648, Note_on_c, 0, 61, 83
1, 135655, Note_off_c, 0, 64, 62
1, 135669, Note_off_c, 0, 61, 70
1, 135769, Note_on_c, 0, 46, 89
1, 135787, Control_c, 0, 64, 75
1, 135793, Note_on_c, 0, 88, 110
1, 135802, Control_c, 0, 64, 50
1, 135817, Control_c, 0, 64, 34
1, 135832, Control_c, 0, 64, 56
1, 135847, Control_c, 0, 64, 68
1, 135862, Control_c, 0, 64, 88
1, 135877, Control_c, 0, 64, 127
1, 135930, Note_on_c, 0, 49, 77
1, 135935, Note_off_c, 0, 88, 64
1, 135940, Note_off_c, 0, 46, 58
1, 135941, Note_on_c, 0, 76, 107
1, 135975, Note_off_c, 0, 49, 56
1, 135996, Note_off_c, 0, 76, 66
1, 136078, Note_on_c, 0, 79, 101
1, 136079, Note_on_c, 0, 49, 84
1, 136083, Control_c, 0, 64, 69
1, 136089, Note_on_c, 0, 76, 89
1, 136098, Control_c, 0, 64, 40
1, 136113, Control_c, 0, 64, 0
1, 136128, Control_c, 0, 64, 56
1, 136143, Control_c, 0, 64, 70
1, 136157, Control_c, 0, 64, 101
1, 136160, Note_off_c, 0, 76, 64
1, 136172, Control_c, 0, 64, 127
1, 136176, Note_off_c, 0, 49, 63
1, 136200, Note_on_c, 0, 61, 86
1, 136204, Note_off_c, 0, 79, 55
1, 136205, Note_on_c, 0, 67, 99
1, 136220, Note_off_c, 0, 61, 70
1, 136249, Note_on_c, 0, 73, 36
1, 136290, Note_off_c, 0, 73, 50
1, 136299, Note_off_c, 0, 67, 59
1, 136350, Note_on_c, 0, 79, 98
1, 136351, Control_c, 0, 64, 72
1, 136366, Control_c, 0, 64, 0
1, 136410, Control_c, 0, 64, 57
1, 136425, Control_c, 0, 64, 76
1, 136437, Note_on_c, 0, 76, 88
1, 136440, Control_c, 0, 64, 127
1, 136500, Note_off_c, 0, 79, 50
1, 136522, Note_on_c, 0, 71, 88
1, 136568, Note_off_c, 0, 76, 62
1, 136599, Note_on_c, 0, 67, 80
1, 136604, Note_off_c, 0, 71, 65
1, 136629, Note_off_c, 0, 67, 63
1, 136678, Note_on_c, 0, 64, 84
1, 136760, Note_on_c, 0, 59, 77
1, 136781, Note_off_c, 0, 59, 70
1, 136782, Note_off_c, 0, 64, 62
1, 136864, Note_on_c, 0, 46, 89
1, 136877, Control_c, 0, 64, 89
1, 136888, Note_on_c, 0, 88, 110
1, 136892, Control_c, 0, 64, 58
1, 136906, Control_c, 0, 64, 0
1, 136931, Note_on_c, 0, 86, 43
1, 136931, Note_off_c, 0, 86, 127
1, 136936, Control_c, 0, 64, 51
1, 136951, Control_c, 0, 64, 68
1, 136966, Control_c, 0, 64, 92
1, 136980, Note_off_c, 0, 46, 60
1, 136980, Control_c, 0, 64, 127
1, 137035, Note_on_c, 0, 47, 86
1, 137039, Note_on_c, 0, 76, 106
1, 137042, Note_off_c, 0, 88, 60
1, 137092, Note_off_c, 0, 47, 62
1, 137099, Note_off_c, 0, 76, 66
1, 137174, Note_on_c, 0, 79, 107
1, 137174, Control_c, 0, 64, 76
1, 137176, Note_on_c, 0, 47, 98
1, 137186, Note_on_c, 0, 76, 92
1, 137189, Control_c, 0, 64, 48
1, 137203, Control_c, 0, 64, 0
1, 137218, Control_c, 0, 64, 40
1, 137241, Control_c, 0, 64, 63
1, 137255, Control_c, 0, 64, 82
1, 137260, Note_off_c, 0, 76, 62
1, 137270, Control_c, 0, 64, 127
1, 137282, Note_off_c, 0, 47, 64
1, 137303, Note_on_c, 0, 59, 97
1, 137304, Note_on_c, 0, 67, 96
1, 137305, Note_off_c, 0, 79, 58
1, 137324, Note_off_c, 0, 59, 68
1, 137401, Note_off_c, 0, 67, 61
1, 137442, Note_on_c, 0, 79, 98
1, 137448, Control_c, 0, 64, 105
1, 137463, Control_c, 0, 64, 66
1, 137478, Control_c, 0, 64, 0
1, 137522, Control_c, 0, 64, 58
1, 137525, Note_on_c, 0, 76, 96
1, 137537, Control_c, 0, 64, 74
1, 137552, Control_c, 0, 64, 98
1, 137565, Note_off_c, 0, 79, 59
1, 137567, Control_c, 0, 64, 127
1, 137599, Note_on_c, 0, 69, 84
1, 137606, Note_off_c, 0, 76, 66
1, 137640, Note_off_c, 0, 69, 61
1, 137686, Note_on_c, 0, 69, 78
1, 137761, Note_on_c, 0, 67, 86
1, 137781, Note_off_c, 0, 69, 63
1, 137836, Note_off_c, 0, 67, 65
1, 137838, Note_on_c, 0, 64, 74
1, 137864, Note_off_c, 0, 64, 68
1, 138030, Note_on_c, 0, 47, 46
1, 138049, Control_c, 0, 64, 85
1, 138064, Note_on_c, 0, 88, 73
1, 138064, Control_c, 0, 64, 65
1, 138078, Control_c, 0, 64, 0
1, 138138, Control_c, 0, 64, 51
1, 138152, Control_c, 0, 64, 64
1, 138167, Control_c, 0, 64, 76
1, 138182, Control_c, 0, 64, 105
1, 138194, Note_off_c, 0, 88, 61
1, 138197, Control_c, 0, 64, 127
1, 138220, Note_on_c, 0, 48, 53
1, 138225, Note_off_c, 0, 47, 44
1, 138232, Note_on_c, 0, 76, 66
1, 138250, Note_off_c, 0, 48, 64
1, 138268, Note_off_c, 0, 76, 60
1, 138375, Control_c, 0, 64, 94
1, 138377, Note_on_c, 0, 81, 81
1, 138378, Note_on_c, 0, 48, 38
1, 138390, Control_c, 0, 64, 70
1, 138396, Note_on_c, 0, 79, 59
1, 138396, Note_on_c, 0, 76, 57
1, 138404, Control_c, 0, 64, 53
1, 138419, Control_c, 0, 64, 45
1, 138434, Control_c, 0, 64, 57
1, 138435, Note_off_c, 0, 76, 61
1, 138449, Control_c, 0, 64, 64
1, 138464, Control_c, 0, 64, 72
1, 138473, Note_off_c, 0, 48, 59
1, 138478, Control_c, 0, 64, 95
1, 138493, Control_c, 0, 64, 127
1, 138511, Note_on_c, 0, 69, 61
1, 138515, Note_off_c, 0, 81, 38
1, 138518, Note_on_c, 0, 60, 60
1, 138530, Note_off_c, 0, 79, 62
1, 138531, Note_off_c, 0, 69, 64
1, 138540, Note_off_c, 0, 60, 63
1, 138656, Control_c, 0, 64, 113
1, 138662, Note_on_c, 0, 88, 91
1, 138666, Note_on_c, 0, 47, 53
1, 138670, Control_c, 0, 64, 75
1, 138685, Control_c, 0, 64, 59
1, 138701, Control_c, 0, 64, 39
1, 138716, Control_c, 0, 64, 43
1, 138739, Control_c, 0, 64, 55
1, 138753, Control_c, 0, 64, 62
1, 138768, Control_c, 0, 64, 70
1, 138783, Control_c, 0, 64, 90
1, 138789, Note_off_c, 0, 47, 61
1, 138795, Note_off_c, 0, 88, 65
1, 138798, Control_c, 0, 64, 127
1, 138810, Note_on_c, 0, 48, 64
1, 138822, Note_on_c, 0, 76, 76
1, 138842, Note_off_c, 0, 48, 64
1, 138887, Note_off_c, 0, 76, 62
1, 138946, Control_c, 0, 64, 103
1, 138950, Note_on_c, 0, 48, 70
1, 138956, Note_on_c, 0, 81, 97
1, 138961, Control_c, 0, 64, 73
1, 138968, Note_on_c, 0, 79, 80
1, 138971, Note_on_c, 0, 76, 81
1, 138975, Control_c, 0, 64, 51
1, 138990, Control_c, 0, 64, 40
1, 139005, Control_c, 0, 64, 53
1, 139010, Note_off_c, 0, 76, 56
1, 139020, Control_c, 0, 64, 61
1, 139034, Control_c, 0, 64, 70
1, 139049, Control_c, 0, 64, 91
1, 139058, Note_off_c, 0, 48, 64
1, 139064, Control_c, 0, 64, 127
1, 139082, Note_on_c, 0, 69, 83
1, 139083, Note_on_c, 0, 60, 78
1, 139104, Note_off_c, 0, 81, 57
1, 139108, Note_off_c, 0, 60, 66
1, 139110, Note_off_c, 0, 69, 60
1, 139125, Note_off_c, 0, 79, 63
1, 139236, Note_on_c, 0, 88, 103
1, 139240, Note_on_c, 0, 48, 71
1, 139242, Control_c, 0, 64, 91
1, 139257, Control_c, 0, 64, 67
1, 139272, Control_c, 0, 64, 35
1, 139287, Control_c, 0, 64, 33
1, 139288, Note_on_c, 0, 87, 58
1, 139301, Control_c, 0, 64, 52
1, 139316, Control_c, 0, 64, 64
1, 139331, Control_c, 0, 64, 79
1, 139345, Control_c, 0, 64, 127
1, 139361, Note_off_c, 0, 48, 53
1, 139365, Note_off_c, 0, 88, 59
1, 139368, Note_on_c, 0, 49, 78
1, 139368, Note_off_c, 0, 87, 56
1, 139379, Note_on_c, 0, 76, 102
1, 139419, Note_off_c, 0, 49, 60
1, 139435, Note_off_c, 0, 76, 63
1, 139517, Control_c, 0, 64, 82
1, 139525, Note_on_c, 0, 49, 83
1, 139526, Note_on_c, 0, 81, 106
1, 139531, Control_c, 0, 64, 61
1, 139533, Note_on_c, 0, 79, 88
1, 139534, Note_on_c, 0, 76, 93
1, 139546, Control_c, 0, 64, 35
1, 139561, Control_c, 0, 64, 43
1, 139576, Control_c, 0, 64, 61
1, 139579, Note_off_c, 0, 76, 62
1, 139591, Control_c, 0, 64, 71
1, 139606, Control_c, 0, 64, 95
1, 139621, Control_c, 0, 64, 127
1, 139630, Note_off_c, 0, 49, 62
1, 139644, Note_on_c, 0, 69, 83
1, 139657, Note_on_c, 0, 61, 88
1, 139658, Note_off_c, 0, 81, 60
1, 139665, Note_off_c, 0, 69, 70
1, 139669, Note_off_c, 0, 79, 64
1, 139707, Note_off_c, 0, 61, 57
1, 139798, Control_c, 0, 64, 105
1, 139802, Note_on_c, 0, 49, 86
1, 139806, Note_on_c, 0, 90, 110
1, 139813, Control_c, 0, 64, 69
1, 139828, Control_c, 0, 64, 42
1, 139843, Control_c, 0, 64, 0
1, 139857, Control_c, 0, 64, 53
1, 139872, Control_c, 0, 64, 68
1, 139887, Control_c, 0, 64, 92
1, 139895, Note_off_c, 0, 49, 62
1, 139902, Control_c, 0, 64, 127
1, 139928, Note_off_c, 0, 90, 61
1, 139940, Note_on_c, 0, 50, 81
1, 139943, Note_on_c, 0, 78, 93
1, 139989, Note_off_c, 0, 78, 63
1, 139994, Note_off_c, 0, 50, 58
1, 140080, Control_c, 0, 64, 93
1, 140083, Note_on_c, 0, 81, 101
1, 140085, Note_on_c, 0, 50, 92
1, 140091, Note_on_c, 0, 74, 101
1, 140091, Note_on_c, 0, 78, 89
1, 140095, Control_c, 0, 64, 64
1, 140110, Control_c, 0, 64, 0
1, 140124, Control_c, 0, 64, 33
1, 140139, Control_c, 0, 64, 58
1, 140145, Note_off_c, 0, 74, 60
1, 140154, Control_c, 0, 64, 73
1, 140166, Poly_aftertouch_c, 0, 51, 127
1, 140168, Control_c, 0, 64, 127
1, 140181, Note_off_c, 0, 50, 62
1, 140201, Poly_aftertouch_c, 0, 51, 0
1, 140202, Note_on_c, 0, 69, 92
1, 140205, Note_on_c, 0, 62, 89
1, 140207, Note_off_c, 0, 81, 44
1, 140227, Note_off_c, 0, 69, 72
1, 140231, Note_off_c, 0, 62, 73
1, 140253, Note_off_c, 0, 78, 63
1, 140363, Note_on_c, 0, 87, 115
1, 140365, Note_on_c, 0, 46, 76
1, 140369, Control_c, 0, 64, 88
1, 140384, Control_c, 0, 64, 60
1, 140399, Control_c, 0, 64, 0
1, 140407, Note_on_c, 0, 88, 39
1, 140414, Control_c, 0, 64, 39
1, 140429, Control_c, 0, 64, 60
1, 140440, Note_off_c, 0, 88, 52
1, 140444, Control_c, 0, 64, 76
1, 140454, Note_off_c, 0, 46, 63
1, 140459, Control_c, 0, 64, 127
1, 140494, Note_off_c, 0, 87, 59
1, 140495, Note_on_c, 0, 47, 87
1, 140503, Note_on_c, 0, 75, 101
1, 140548, Note_off_c, 0, 47, 64
1, 140549, Note_off_c, 0, 75, 61
1, 140621, Control_c, 0, 64, 114
1, 140635, Note_on_c, 0, 47, 105
1, 140636, Control_c, 0, 64, 72
1, 140643, Note_on_c, 0, 83, 94
1, 140648, Note_on_c, 0, 75, 97
1, 140651, Control_c, 0, 64, 47
1, 140666, Control_c, 0, 64, 44
1, 140668, Note_on_c, 0, 78, 45
1, 140672, Note_on_c, 0, 79, 64
1, 140680, Control_c, 0, 64, 61
1, 140695, Control_c, 0, 64, 74
1, 140703, Note_off_c, 0, 78, 51
1, 140710, Control_c, 0, 64, 127
1, 140712, Note_off_c, 0, 75, 61
1, 140715, Note_on_c, 0, 81, 14
1, 140737, Note_off_c, 0, 47, 62
1, 140760, Note_on_c, 0, 59, 93
1, 140760, Note_on_c, 0, 71, 99
1, 140767, Note_off_c, 0, 79, 38
1, 140773, Note_off_c, 0, 81, 45
1, 140779, Note_off_c, 0, 59, 71
1, 140785, Note_off_c, 0, 83, 61
1, 140798, Note_off_c, 0, 71, 61
1, 140907, Note_on_c, 0, 42, 85
1, 140913, Note_on_c, 0, 88, 105
1, 140917, Control_c, 0, 64, 93
1, 140932, Control_c, 0, 64, 65
1, 140947, Control_c, 0, 64, 33
1, 140962, Control_c, 0, 64, 48
1, 140985, Control_c, 0, 64, 64
1, 140999, Control_c, 0, 64, 79
1, 141006, Note_off_c, 0, 42, 60
1, 141014, Control_c, 0, 64, 127
1, 141045, Note_on_c, 0, 43, 89
1, 141047, Note_off_c, 0, 88, 62
1, 141051, Note_on_c, 0, 76, 110
1, 141078, Note_on_c, 0, 86, 48
1, 141087, Note_off_c, 0, 43, 60
1, 141101, Note_off_c, 0, 76, 65
1, 141105, Note_off_c, 0, 86, 56
1, 141193, Control_c, 0, 64, 75
1, 141194, Note_on_c, 0, 43, 96
1, 141194, Note_on_c, 0, 83, 109
1, 141203, Note_on_c, 0, 79, 87
1, 141207, Note_on_c, 0, 76, 88
1, 141207, Note_on_c, 0, 74, 95
1, 141208, Control_c, 0, 64, 48
1, 141222, Control_c, 0, 64, 0
1, 141237, Control_c, 0, 64, 40
1, 141246, Note_on_c, 0, 77, 14
1, 141246, Note_off_c, 0, 77, 127
1, 141252, Control_c, 0, 64, 61
1, 141264, Note_off_c, 0, 74, 54
1, 141267, Control_c, 0, 64, 79
1, 141273, Note_off_c, 0, 76, 59
1, 141282, Control_c, 0, 64, 127
1, 141303, Note_off_c, 0, 43, 62
1, 141317, Note_on_c, 0, 71, 99
1, 141323, Note_on_c, 0, 55, 98
1, 141329, Note_off_c, 0, 83, 50
1, 141355, Note_off_c, 0, 79, 65
1, 141359, Note_off_c, 0, 55, 59
1, 141370, Note_off_c, 0, 71, 62
1, 141466, Note_on_c, 0, 84, 102
1, 141467, Note_on_c, 0, 44, 92
1, 141475, Control_c, 0, 64, 73
1, 141490, Control_c, 0, 64, 46
1, 141504, Control_c, 0, 64, 0
1, 141519, Control_c, 0, 64, 51
1, 141534, Control_c, 0, 64, 69
1, 141548, Control_c, 0, 64, 96
1, 141553, Note_off_c, 0, 44, 63
1, 141563, Control_c, 0, 64, 127
1, 141591, Note_on_c, 0, 45, 92
1, 141595, Note_on_c, 0, 72, 107
1, 141600, Note_off_c, 0, 84, 60
1, 141640, Note_off_c, 0, 45, 63
1, 141642, Note_off_c, 0, 72, 64
1, 141711, Control_c, 0, 64, 99
1, 141734, Control_c, 0, 64, 65
1, 141742, Note_on_c, 0, 45, 100
1, 141746, Note_on_c, 0, 72, 103
1, 141746, Note_on_c, 0, 81, 103
1, 141748, Note_on_c, 0, 76, 102
1, 141748, Control_c, 0, 64, 34
1, 141763, Control_c, 0, 64, 46
1, 141778, Control_c, 0, 64, 65
1, 141793, Control_c, 0, 64, 82
1, 141808, Control_c, 0, 64, 127
1, 141818, Note_off_c, 0, 72, 61
1, 141840, Note_off_c, 0, 76, 59
1, 141849, Note_off_c, 0, 45, 61
1, 141866, Note_off_c, 0, 81, 60
1, 141871, Note_on_c, 0, 69, 97
1, 141873, Note_on_c, 0, 57, 92
1, 141890, Note_on_c, 0, 76, 37
1, 141910, Note_off_c, 0, 57, 60
1, 141916, Note_off_c, 0, 69, 62
1, 141926, Note_off_c, 0, 76, 52
1, 141986, Control_c, 0, 64, 107
1, 142001, Control_c, 0, 64, 68
1, 142007, Note_on_c, 0, 46, 83
1, 142012, Note_on_c, 0, 83, 107
1, 142016, Control_c, 0, 64, 36
1, 142031, Control_c, 0, 64, 39
1, 142045, Control_c, 0, 64, 62
1, 142060, Control_c, 0, 64, 78
1, 142062, Note_on_c, 0, 82, 14
1, 142062, Note_off_c, 0, 82, 127
1, 142075, Control_c, 0, 64, 127
1, 142089, Note_off_c, 0, 46, 60
1, 142131, Note_on_c, 0, 47, 97
1, 142134, Note_off_c, 0, 83, 50
1, 142137, Note_on_c, 0, 71, 101
1, 142182, Note_off_c, 0, 71, 66
1, 142193, Note_off_c, 0, 47, 62
1, 142268, Control_c, 0, 64, 69
1, 142277, Note_on_c, 0, 47, 96
1, 142278, Note_on_c, 0, 79, 102
1, 142280, Note_on_c, 0, 71, 104
1, 142283, Control_c, 0, 64, 45
1, 142283, Note_on_c, 0, 76, 95
1, 142298, Control_c, 0, 64, 51
1, 142312, Control_c, 0, 64, 66
1, 142327, Control_c, 0, 64, 90
1, 142336, Note_off_c, 0, 71, 61
1, 142342, Control_c, 0, 64, 127
1, 142360, Note_off_c, 0, 76, 64
1, 142368, Note_off_c, 0, 47, 62
1, 142375, Poly_aftertouch_c, 0, 49, 127
1, 142381, Note_off_c, 0, 79, 61
1, 142400, Note_on_c, 0, 67, 95
1, 142405, Note_on_c, 0, 59, 78
1, 142422, Note_off_c, 0, 59, 67
1, 142429, Poly_aftertouch_c, 0, 49, 0
1, 142443, Note_off_c, 0, 67, 63
1, 142541, Control_c, 0, 64, 114
1, 142556, Control_c, 0, 64, 70
1, 142565, Note_on_c, 0, 83, 103
1, 142570, Control_c, 0, 64, 53
1, 142578, Note_on_c, 0, 34, 84
1, 142585, Control_c, 0, 64, 62
1, 142600, Control_c, 0, 64, 72
1, 142604, Note_on_c, 0, 81, 57
1, 142615, Control_c, 0, 64, 111
1, 142630, Control_c, 0, 64, 127
1, 142650, Note_off_c, 0, 34, 59
1, 142677, Note_off_c, 0, 83, 63
1, 142692, Note_on_c, 0, 35, 85
1, 142696, Note_on_c, 0, 71, 94
1, 142699, Note_off_c, 0, 81, 33
1, 142736, Note_off_c, 0, 71, 68
1, 142745, Note_off_c, 0, 35, 58
1, 142822, Note_on_c, 0, 35, 102
1, 142837, Note_on_c, 0, 71, 90
1, 142840, Note_on_c, 0, 69, 84
1, 142882, Control_c, 0, 64, 90
1, 142897, Control_c, 0, 64, 56
1, 142912, Control_c, 0, 64, 0
1, 142957, Control_c, 0, 64, 65
1, 142971, Control_c, 0, 64, 127
1, 142977, Note_on_c, 0, 47, 108
1, 142984, Note_off_c, 0, 35, 47
1, 142986, Note_on_c, 0, 59, 108
1, 143007, Note_on_c, 0, 68, 50
1, 143010, Note_off_c, 0, 71, 65
1, 143012, Note_off_c, 0, 69, 66
1, 143017, Note_off_c, 0, 47, 70
1, 143025, Note_off_c, 0, 59, 70
1, 143030, Note_on_c, 0, 37, 9
1, 143031, Note_off_c, 0, 68, 60
1, 143087, Note_off_c, 0, 37, 41
1, 143231, Control_c, 0, 64, 104
1, 143246, Control_c, 0, 64, 81
1, 143261, Control_c, 0, 64, 66
1, 143276, Control_c, 0, 64, 55
1, 143290, Control_c, 0, 64, 42
1, 143305, Control_c, 0, 64, 0
1, 144677, Control_c, 0, 67, 19
1, 145022, Note_on_c, 0, 83, 81
1, 145055, Control_c, 0, 67, 22
1, 145070, Control_c, 0, 67, 26
1, 145073, Note_off_c, 0, 83, 63
1, 145085, Control_c, 0, 67, 30
1, 145100, Control_c, 0, 67, 35
1, 145115, Control_c, 0, 67, 42
1, 145130, Control_c, 0, 67, 52
1, 145145, Control_c, 0, 67, 64
1, 145159, Note_on_c, 0, 81, 65
1, 145159, Control_c, 0, 67, 78
1, 145174, Control_c, 0, 67, 90
1, 145189, Control_c, 0, 67, 99
1, 145204, Control_c, 0, 67, 105
1, 145205, Note_off_c, 0, 81, 57
1, 145219, Control_c, 0, 67, 107
1, 145291, Note_on_c, 0, 80, 62
1, 145330, Note_off_c, 0, 80, 57
1, 145423, Note_on_c, 0, 78, 63
1, 145441, Control_c, 0, 67, 105
1, 145455, Note_off_c, 0, 78, 64
1, 145567, Note_on_c, 0, 76, 59
1, 145598, Note_off_c, 0, 76, 65
1, 145690, Note_on_c, 0, 75, 64
1, 145725, Note_off_c, 0, 75, 59
1, 145827, Note_on_c, 0, 76, 68
1, 145860, Note_off_c, 0, 76, 61
1, 145961, Note_on_c, 0, 78, 70
1, 146005, Note_off_c, 0, 78, 53
1, 146091, Note_on_c, 0, 76, 66
1, 146124, Note_off_c, 0, 76, 61
1, 146242, Note_on_c, 0, 75, 61
1, 146287, Note_off_c, 0, 75, 56
1, 146370, Note_on_c, 0, 73, 61
1, 146410, Note_off_c, 0, 73, 57
1, 146478, Control_c, 0, 67, 107
1, 146516, Note_on_c, 0, 71, 56
1, 146537, Control_c, 0, 67, 110
1, 146549, Note_off_c, 0, 71, 66
1, 146552, Control_c, 0, 67, 112
1, 146566, Control_c, 0, 67, 117
1, 146581, Control_c, 0, 67, 120
1, 146611, Control_c, 0, 67, 122
1, 146641, Note_on_c, 0, 70, 58
1, 146677, Note_off_c, 0, 70, 64
1, 146790, Control_c, 0, 67, 124
1, 146790, Note_on_c, 0, 71, 49
1, 146817, Note_off_c, 0, 71, 58
1, 146820, Control_c, 0, 67, 127
1, 146919, Note_on_c, 0, 72, 51
1, 146965, Note_off_c, 0, 72, 62
1, 147067, Note_on_c, 0, 73, 57
1, 147105, Note_off_c, 0, 73, 59
1, 147203, Note_on_c, 0, 71, 51
1, 147240, Note_off_c, 0, 71, 64
1, 147341, Note_on_c, 0, 69, 51
1, 147378, Note_off_c, 0, 69, 62
1, 147470, Note_on_c, 0, 68, 49
1, 147505, Note_off_c, 0, 68, 62
1, 147604, Note_on_c, 0, 66, 54
1, 147646, Note_off_c, 0, 66, 62
1, 147743, Note_on_c, 0, 64, 49
1, 147786, Note_off_c, 0, 64, 60
1, 147881, Note_on_c, 0, 63, 48
1, 147934, Note_off_c, 0, 63, 58
1, 148028, Note_on_c, 0, 64, 47
1, 148063, Note_off_c, 0, 64, 57
1, 148195, Note_on_c, 0, 71, 45
1, 148199, Note_on_c, 0, 69, 40
1, 148202, Note_on_c, 0, 66, 35
1, 148238, Note_off_c, 0, 66, 50
1, 148242, Control_c, 0, 64, 48
1, 148257, Control_c, 0, 64, 60
1, 148272, Control_c, 0, 64, 64
1, 148287, Control_c, 0, 64, 67
1, 148302, Control_c, 0, 64, 70
1, 148317, Control_c, 0, 64, 72
1, 148331, Control_c, 0, 64, 75
1, 148336, Note_on_c, 0, 64, 45
1, 148346, Control_c, 0, 64, 78
1, 148361, Control_c, 0, 64, 81
1, 148370, Note_off_c, 0, 64, 56
1, 148376, Control_c, 0, 64, 83
1, 148391, Control_c, 0, 64, 86
1, 148406, Control_c, 0, 64, 89
1, 148421, Control_c, 0, 64, 90
1, 148429, Note_off_c, 0, 69, 54
1, 148429, Note_off_c, 0, 71, 56
1, 148436, Control_c, 0, 64, 91
1, 148488, Control_c, 0, 64, 90
1, 148503, Control_c, 0, 64, 84
1, 148518, Control_c, 0, 64, 73
1, 148519, Note_on_c, 0, 63, 47
1, 148532, Control_c, 0, 64, 62
1, 148537, Note_on_c, 0, 71, 46
1, 148541, Note_on_c, 0, 69, 31
1, 148547, Control_c, 0, 64, 37
1, 148562, Control_c, 0, 64, 0
1, 148566, Note_off_c, 0, 63, 57
1, 148577, Control_c, 0, 64, 47
1, 148592, Control_c, 0, 64, 58
1, 148606, Control_c, 0, 64, 64
1, 148621, Control_c, 0, 64, 69
1, 148636, Control_c, 0, 64, 73
1, 148651, Control_c, 0, 64, 78
1, 148665, Control_c, 0, 64, 80
1, 148677, Note_off_c, 0, 69, 57
1, 148677, Note_off_c, 0, 71, 62
1, 148680, Control_c, 0, 64, 83
1, 148695, Control_c, 0, 64, 84
1, 148709, Note_on_c, 0, 61, 41
1, 148710, Control_c, 0, 64, 85
1, 148725, Control_c, 0, 64, 87
1, 148740, Control_c, 0, 64, 87
1, 148746, Note_off_c, 0, 61, 51
1, 148873, Control_c, 0, 64, 86
1, 148888, Control_c, 0, 64, 84
1, 148897, Note_on_c, 0, 59, 36
1, 148903, Control_c, 0, 64, 80
1, 148912, Note_on_c, 0, 68, 43
1, 148917, Note_on_c, 0, 71, 40
1, 148918, Control_c, 0, 64, 74
1, 148932, Control_c, 0, 64, 67
1, 148947, Control_c, 0, 64, 56
1, 148962, Control_c, 0, 64, 37
1, 148977, Control_c, 0, 64, 0
1, 149005, Note_off_c, 0, 59, 38
1, 149096, Control_c, 0, 64, 40
1, 149111, Note_off_c, 0, 68, 46
1, 149111, Control_c, 0, 64, 52
1, 149122, Note_on_c, 0, 66, 41
1, 149126, Control_c, 0, 64, 60
1, 149135, Note_on_c, 0, 57, 36
1, 149141, Control_c, 0, 64, 64
1, 149155, Control_c, 0, 64, 66
1, 149170, Control_c, 0, 64, 68
1, 149183, Note_off_c, 0, 71, 31
1, 149184, Note_off_c, 0, 57, 58
1, 149184, Control_c, 0, 64, 71
1, 149199, Control_c, 0, 64, 73
1, 149222, Control_c, 0, 64, 74
1, 149236, Control_c, 0, 64, 76
1, 149251, Control_c, 0, 64, 79
1, 149266, Control_c, 0, 64, 80
1, 149281, Control_c, 0, 64, 81
1, 149295, Control_c, 0, 64, 81
1, 149355, Control_c, 0, 64, 82
1, 149443, Control_c, 0, 64, 81
1, 149446, Note_off_c, 0, 66, 27
1, 149450, Note_on_c, 0, 52, 24
1, 149460, Note_on_c, 0, 56, 33
1, 149462, Note_on_c, 0, 71, 41
1, 149473, Control_c, 0, 64, 80
1, 149478, Note_on_c, 0, 64, 32
1, 149488, Control_c, 0, 64, 77
1, 149503, Control_c, 0, 64, 71
1, 149518, Control_c, 0, 64, 64
1, 149532, Control_c, 0, 64, 56
1, 149547, Control_c, 0, 64, 41
1, 149562, Control_c, 0, 64, 39
1, 149577, Control_c, 0, 64, 44
1, 149592, Control_c, 0, 64, 51
1, 149607, Control_c, 0, 64, 56
1, 149622, Control_c, 0, 64, 61
1, 149636, Control_c, 0, 64, 65
1, 149651, Control_c, 0, 64, 70
1, 149666, Control_c, 0, 64, 74
1, 149680, Control_c, 0, 64, 78
1, 149695, Control_c, 0, 64, 82
1, 149710, Control_c, 0, 64, 86
1, 149725, Control_c, 0, 64, 91
1, 149740, Control_c, 0, 64, 96
1, 149754, Control_c, 0, 64, 101
1, 149769, Control_c, 0, 64, 106
1, 149784, Control_c, 0, 64, 110
1, 149795, Note_off_c, 0, 71, 61
1, 149804, Note_off_c, 0, 64, 39
1, 149813, Control_c, 0, 64, 112
1, 149828, Control_c, 0, 64, 115
1, 149828, Control_c, 0, 67, 117
1, 149843, Control_c, 0, 64, 122
1, 149843, Control_c, 0, 67, 107
1, 149858, Control_c, 0, 64, 127
1, 149858, Control_c, 0, 67, 96
1, 149873, Control_c, 0, 67, 85
1, 149889, Control_c, 0, 67, 74
1, 149903, Control_c, 0, 67, 67
1, 149918, Control_c, 0, 67, 62
1, 149933, Control_c, 0, 67, 57
1, 149948, Control_c, 0, 67, 54
1, 149971, Control_c, 0, 67, 49
1, 149985, Control_c, 0, 67, 44
1, 150000, Control_c, 0, 67, 38
1, 150015, Control_c, 0, 67, 33
1, 150030, Control_c, 0, 67, 28
1, 150045, Control_c, 0, 67, 22
1, 150059, Control_c, 0, 67, 0
1, 150071, Note_off_c, 0, 52, 32
1, 150273, Note_on_c, 0, 76, 35
1, 150333, Note_off_c, 0, 56, 16
1, 150435, Note_on_c, 0, 75, 48
1, 150593, Note_off_c, 0, 76, 36
1, 150602, Note_on_c, 0, 73, 54
1, 150647, Note_off_c, 0, 75, 32
1, 150749, Note_on_c, 0, 71, 53
1, 150786, Note_off_c, 0, 73, 34
1, 150809, Note_off_c, 0, 71, 49
1, 150882, Control_c, 0, 64, 117
1, 150897, Control_c, 0, 64, 98
1, 150912, Control_c, 0, 64, 83
1, 150917, Note_on_c, 0, 54, 30
1, 150927, Control_c, 0, 64, 70
1, 150936, Note_on_c, 0, 57, 29
1, 150941, Control_c, 0, 64, 56
1, 150956, Control_c, 0, 64, 43
1, 150957, Note_on_c, 0, 71, 45
1, 150971, Control_c, 0, 64, 45
1, 150976, Note_on_c, 0, 63, 16
1, 150986, Control_c, 0, 64, 53
1, 151001, Control_c, 0, 64, 59
1, 151015, Control_c, 0, 64, 64
1, 151030, Control_c, 0, 64, 70
1, 151045, Control_c, 0, 64, 76
1, 151049, Note_off_c, 0, 71, 63
1, 151059, Control_c, 0, 64, 81
1, 151074, Control_c, 0, 64, 84
1, 151089, Control_c, 0, 64, 87
1, 151094, Note_off_c, 0, 54, 41
1, 151101, Note_off_c, 0, 57, 38
1, 151104, Control_c, 0, 64, 89
1, 151119, Control_c, 0, 64, 93
1, 151133, Control_c, 0, 64, 97
1, 151148, Control_c, 0, 64, 100
1, 151163, Control_c, 0, 64, 102
1, 151165, Note_off_c, 0, 63, 39
1, 151178, Control_c, 0, 64, 104
1, 151208, Control_c, 0, 64, 106
1, 151252, Control_c, 0, 64, 95
1, 151267, Control_c, 0, 64, 82
1, 151277, Note_on_c, 0, 71, 44
1, 151282, Control_c, 0, 64, 70
1, 151288, Note_on_c, 0, 63, 29
1, 151297, Note_on_c, 0, 54, 23
1, 151297, Control_c, 0, 64, 60
1, 151306, Note_on_c, 0, 57, 16
1, 151312, Control_c, 0, 64, 50
1, 151326, Control_c, 0, 64, 54
1, 151341, Control_c, 0, 64, 59
1, 151356, Control_c, 0, 64, 63
1, 151371, Control_c, 0, 64, 68
1, 151385, Control_c, 0, 64, 75
1, 151400, Control_c, 0, 64, 84
1, 151415, Control_c, 0, 64, 93
1, 151418, Note_off_c, 0, 71, 57
1, 151431, Control_c, 0, 64, 100
1, 151435, Note_off_c, 0, 54, 44
1, 151440, Note_off_c, 0, 57, 37
1, 151452, Control_c, 0, 64, 105
1, 151461, Note_off_c, 0, 63, 42
1, 151467, Control_c, 0, 64, 110
1, 151483, Control_c, 0, 64, 115
1, 151498, Control_c, 0, 64, 118
1, 151513, Control_c, 0, 64, 122
1, 151528, Control_c, 0, 64, 127
1, 151608, Note_on_c, 0, 71, 48
1, 151621, Note_on_c, 0, 57, 33
1, 151623, Note_on_c, 0, 63, 38
1, 151624, Note_on_c, 0, 54, 26
1, 151714, Note_off_c, 0, 57, 52
1, 151725, Note_off_c, 0, 71, 56
1, 151750, Note_off_c, 0, 54, 36
1, 151763, Note_off_c, 0, 63, 41
1, 151883, Control_c, 0, 67, 19
1, 151945, Note_on_c, 0, 71, 53
1, 151967, Note_on_c, 0, 63, 39
1, 151980, Note_on_c, 0, 57, 34
1, 151982, Note_on_c, 0, 54, 28
1, 152046, Control_c, 0, 67, 21
1, 152069, Note_off_c, 0, 71, 59
1, 152097, Note_off_c, 0, 63, 38
1, 152216, Control_c, 0, 67, 23
1, 152321, Control_c, 0, 64, 120
1, 152322, Note_on_c, 0, 71, 50
1, 152336, Control_c, 0, 64, 102
1, 152340, Note_on_c, 0, 64, 33
1, 152346, Note_on_c, 0, 59, 31
1, 152350, Note_on_c, 0, 56, 27
1, 152351, Control_c, 0, 64, 87
1, 152366, Control_c, 0, 64, 73
1, 152380, Control_c, 0, 64, 61
1, 152395, Control_c, 0, 64, 39
1, 152410, Control_c, 0, 64, 0
1, 152410, Control_c, 0, 67, 25
1, 152414, Note_off_c, 0, 57, 43
1, 152415, Note_off_c, 0, 54, 41
1, 152439, Control_c, 0, 67, 27
1, 152454, Control_c, 0, 64, 35
1, 152469, Control_c, 0, 64, 47
1, 152484, Control_c, 0, 64, 57
1, 152484, Control_c, 0, 67, 30
1, 152498, Control_c, 0, 64, 64
1, 152513, Control_c, 0, 64, 68
1, 152513, Control_c, 0, 67, 32
1, 152528, Control_c, 0, 64, 75
1, 152528, Control_c, 0, 67, 35
1, 152543, Control_c, 0, 64, 81
1, 152543, Control_c, 0, 67, 46
1, 152558, Control_c, 0, 64, 86
1, 152558, Control_c, 0, 67, 58
1, 152573, Control_c, 0, 64, 89
1, 152573, Control_c, 0, 67, 68
1, 152588, Control_c, 0, 64, 93
1, 152588, Control_c, 0, 67, 77
1, 152603, Control_c, 0, 64, 96
1, 152603, Control_c, 0, 67, 84
1, 152618, Control_c, 0, 64, 101
1, 152618, Control_c, 0, 67, 91
1, 152632, Control_c, 0, 64, 108
1, 152632, Control_c, 0, 67, 100
1, 152647, Control_c, 0, 64, 117
1, 152647, Control_c, 0, 67, 111
1, 152653, Note_on_c, 0, 68, 69
1, 152662, Control_c, 0, 64, 127
1, 152662, Control_c, 0, 67, 121
1, 152672, Note_on_c, 0, 52, 36
1, 152677, Control_c, 0, 67, 127
1, 152747, Note_off_c, 0, 64, 39
1, 152760, Note_off_c, 0, 59, 41
1, 153079, Note_on_c, 0, 73, 60
1, 153095, Note_on_c, 0, 64, 37
1, 153114, Control_c, 0, 64, 111
1, 153121, Note_on_c, 0, 57, 23
1, 153126, Note_on_c, 0, 61, 29
1, 153128, Control_c, 0, 64, 92
1, 153132, Note_off_c, 0, 52, 40
1, 153135, Note_off_c, 0, 71, 51
1, 153143, Control_c, 0, 64, 79
1, 153149, Note_off_c, 0, 56, 40
1, 153158, Control_c, 0, 64, 66
1, 153166, Note_off_c, 0, 68, 57
1, 153173, Control_c, 0, 64, 53
1, 153188, Control_c, 0, 64, 0
1, 153232, Control_c, 0, 64, 34
1, 153247, Control_c, 0, 64, 44
1, 153262, Control_c, 0, 64, 52
1, 153276, Control_c, 0, 64, 60
1, 153291, Control_c, 0, 64, 65
1, 153306, Control_c, 0, 64, 70
1, 153321, Control_c, 0, 64, 75
1, 153336, Control_c, 0, 64, 77
1, 153351, Control_c, 0, 64, 79
1, 153366, Control_c, 0, 64, 82
1, 153381, Control_c, 0, 64, 85
1, 153395, Control_c, 0, 64, 88
1, 153410, Control_c, 0, 64, 91
1, 153425, Control_c, 0, 64, 94
1, 153432, Note_off_c, 0, 61, 40
1, 153440, Control_c, 0, 64, 97
1, 153454, Control_c, 0, 64, 99
1, 153484, Control_c, 0, 64, 101
1, 153490, Note_off_c, 0, 57, 42
1, 153533, Note_off_c, 0, 73, 61
1, 153542, Note_off_c, 0, 64, 33
1, 153543, Control_c, 0, 64, 103
1, 153788, Control_c, 0, 64, 100
1, 153803, Control_c, 0, 64, 93
1, 153818, Control_c, 0, 64, 83
1, 153823, Note_on_c, 0, 71, 39
1, 153833, Control_c, 0, 64, 72
1, 153838, Note_on_c, 0, 56, 29
1, 153848, Control_c, 0, 64, 64
1, 153849, Note_on_c, 0, 59, 21
1, 153858, Note_on_c, 0, 64, 8
1, 153862, Control_c, 0, 64, 57
1, 153878, Control_c, 0, 64, 56
1, 153893, Control_c, 0, 64, 58
1, 153908, Control_c, 0, 64, 61
1, 153923, Control_c, 0, 64, 65
1, 153938, Control_c, 0, 64, 70
1, 153952, Control_c, 0, 64, 78
1, 153964, Note_off_c, 0, 56, 45
1, 153967, Control_c, 0, 64, 85
1, 153982, Control_c, 0, 64, 90
1, 153996, Control_c, 0, 64, 92
1, 154011, Control_c, 0, 64, 93
1, 154013, Note_off_c, 0, 64, 36
1, 154026, Control_c, 0, 64, 95
1, 154041, Control_c, 0, 64, 97
1, 154056, Control_c, 0, 64, 99
1, 154115, Control_c, 0, 64, 101
1, 154180, Note_on_c, 0, 64, 37
1, 154195, Note_on_c, 0, 49, 35
1, 154204, Note_on_c, 0, 56, 17
1, 154240, Note_off_c, 0, 59, 40
1, 154295, Note_off_c, 0, 49, 37
1, 154302, Note_off_c, 0, 56, 37
1, 154597, Control_c, 0, 64, 99
1, 154607, Note_on_c, 0, 66, 41
1, 154611, Control_c, 0, 64, 96
1, 154621, Note_on_c, 0, 57, 29
1, 154624, Note_on_c, 0, 63, 29
1, 154626, Control_c, 0, 64, 91
1, 154639, Note_on_c, 0, 47, 28
1, 154641, Control_c, 0, 64, 84
1, 154642, Note_off_c, 0, 64, 32
1, 154656, Control_c, 0, 64, 76
1, 154671, Control_c, 0, 64, 68
1, 154672, Note_off_c, 0, 71, 29
1, 154686, Control_c, 0, 64, 58
1, 154701, Control_c, 0, 64, 40
1, 154716, Control_c, 0, 64, 0
1, 154790, Control_c, 0, 64, 36
1, 154805, Control_c, 0, 64, 48
1, 154820, Control_c, 0, 64, 60
1, 154834, Control_c, 0, 64, 64
1, 154849, Control_c, 0, 64, 67
1, 154864, Note_off_c, 0, 47, 50
1, 154864, Control_c, 0, 64, 69
1, 154879, Control_c, 0, 64, 71
1, 154894, Control_c, 0, 64, 73
1, 154898, Note_off_c, 0, 63, 57
1, 154908, Note_off_c, 0, 66, 57
1, 154908, Control_c, 0, 64, 74
1, 154910, Note_off_c, 0, 57, 55
1, 154923, Control_c, 0, 64, 77
1, 154938, Control_c, 0, 64, 79
1, 154938, Control_c, 0, 67, 123
1, 154953, Control_c, 0, 64, 83
1, 154953, Control_c, 0, 67, 103
1, 154968, Control_c, 0, 64, 86
1, 154968, Control_c, 0, 67, 83
1, 154982, Control_c, 0, 64, 89
1, 154982, Control_c, 0, 67, 63
1, 154997, Control_c, 0, 64, 92
1, 154997, Control_c, 0, 67, 47
1, 155012, Control_c, 0, 64, 94
1, 155012, Control_c, 0, 67, 30
1, 155026, Control_c, 0, 64, 96
1, 155026, Control_c, 0, 67, 0
1, 155041, Control_c, 0, 64, 98
1, 155056, Control_c, 0, 64, 100
1, 155086, Control_c, 0, 64, 103
1, 155116, Control_c, 0, 64, 105
1, 155160, Control_c, 0, 64, 107
1, 155212, Control_c, 0, 64, 109
1, 155390, Control_c, 0, 64, 103
1, 155405, Control_c, 0, 64, 93
1, 155420, Control_c, 0, 64, 78
1, 155434, Control_c, 0, 64, 67
1, 155449, Control_c, 0, 64, 56
1, 155464, Control_c, 0, 64, 41
1, 155465, Note_on_c, 0, 68, 38
1, 155479, Note_on_c, 0, 83, 56
1, 155479, Control_c, 0, 64, 0
1, 155480, Note_on_c, 0, 71, 26
1, 155509, Control_c, 0, 64, 36
1, 155524, Control_c, 0, 64, 44
1, 155539, Control_c, 0, 64, 51
1, 155554, Control_c, 0, 64, 57
1, 155569, Control_c, 0, 64, 61
1, 155583, Control_c, 0, 64, 65
1, 155598, Control_c, 0, 64, 69
1, 155602, Note_off_c, 0, 68, 57
1, 155613, Control_c, 0, 64, 73
1, 155628, Control_c, 0, 64, 77
1, 155643, Control_c, 0, 64, 80
1, 155657, Control_c, 0, 64, 82
1, 155672, Control_c, 0, 64, 85
1, 155687, Control_c, 0, 64, 88
1, 155702, Control_c, 0, 64, 92
1, 155717, Control_c, 0, 64, 96
1, 155731, Control_c, 0, 64, 98
1, 155761, Control_c, 0, 64, 101
1, 155790, Control_c, 0, 64, 103
1, 155820, Control_c, 0, 64, 105
1, 155821, Note_on_c, 0, 68, 26
1, 155831, Note_on_c, 0, 64, 31
1, 155844, Note_off_c, 0, 83, 58
1, 155859, Note_on_c, 0, 81, 60
1, 155928, Note_off_c, 0, 71, 40
1, 155935, Note_on_c, 0, 80, 62
1, 155953, Note_off_c, 0, 81, 57
1, 156001, Note_on_c, 0, 78, 72
1, 156015, Note_off_c, 0, 80, 63
1, 156072, Note_on_c, 0, 76, 68
1, 156076, Note_off_c, 0, 78, 50
1, 156138, Control_c, 0, 64, 100
1, 156153, Control_c, 0, 64, 91
1, 156168, Control_c, 0, 64, 80
1, 156183, Control_c, 0, 64, 70
1, 156183, Note_off_c, 0, 64, 39
1, 156192, Note_on_c, 0, 85, 65
1, 156195, Note_off_c, 0, 76, 55
1, 156198, Control_c, 0, 64, 61
1, 156201, Note_off_c, 0, 68, 42
1, 156212, Note_on_c, 0, 73, 32
1, 156213, Note_on_c, 0, 69, 27
1, 156213, Control_c, 0, 64, 45
1, 156228, Control_c, 0, 64, 35
1, 156242, Control_c, 0, 64, 36
1, 156257, Control_c, 0, 64, 38
1, 156272, Control_c, 0, 64, 42
1, 156287, Control_c, 0, 64, 46
1, 156302, Control_c, 0, 64, 51
1, 156317, Control_c, 0, 64, 58
1, 156332, Control_c, 0, 64, 64
1, 156347, Control_c, 0, 64, 69
1, 156362, Control_c, 0, 64, 77
1, 156377, Control_c, 0, 64, 85
1, 156391, Control_c, 0, 64, 91
1, 156406, Control_c, 0, 64, 94
1, 156421, Control_c, 0, 64, 96
1, 156436, Control_c, 0, 64, 98
1, 156451, Control_c, 0, 64, 101
1, 156466, Control_c, 0, 64, 104
1, 156495, Control_c, 0, 64, 106
1, 156495, Control_c, 0, 67, 22
1, 156510, Control_c, 0, 67, 27
1, 156515, Note_off_c, 0, 73, 35
1, 156525, Control_c, 0, 67, 33
1, 156540, Control_c, 0, 67, 38
1, 156547, Note_off_c, 0, 69, 40
1, 156554, Control_c, 0, 67, 46
1, 156569, Control_c, 0, 67, 56
1, 156584, Control_c, 0, 67, 65
1, 156598, Control_c, 0, 67, 73
1, 156613, Control_c, 0, 67, 81
1, 156628, Control_c, 0, 67, 87
1, 156643, Control_c, 0, 67, 93
1, 156658, Control_c, 0, 67, 99
1, 156673, Control_c, 0, 67, 105
1, 156688, Control_c, 0, 67, 109
1, 156710, Control_c, 0, 67, 113
1, 156725, Control_c, 0, 67, 117
1, 156738, Note_off_c, 0, 85, 39
1, 156740, Control_c, 0, 67, 120
1, 156755, Control_c, 0, 67, 123
1, 156770, Control_c, 0, 67, 125
1, 156785, Control_c, 0, 67, 127
1, 156918, Control_c, 0, 64, 103
1, 156932, Control_c, 0, 64, 98
1, 156947, Control_c, 0, 64, 88
1, 156958, Note_on_c, 0, 83, 53
1, 156962, Control_c, 0, 64, 76
1, 156965, Note_on_c, 0, 68, 36
1, 156973, Note_on_c, 0, 71, 28
1, 156977, Control_c, 0, 64, 65
1, 156992, Control_c, 0, 64, 52
1, 157006, Control_c, 0, 64, 44
1, 157021, Control_c, 0, 64, 50
1, 157036, Control_c, 0, 64, 57
1, 157051, Control_c, 0, 64, 63
1, 157067, Control_c, 0, 64, 68
1, 157082, Control_c, 0, 64, 75
1, 157096, Control_c, 0, 64, 81
1, 157111, Control_c, 0, 64, 86
1, 157126, Control_c, 0, 64, 87
1, 157141, Control_c, 0, 64, 88
1, 157156, Control_c, 0, 64, 88
1, 157259, Control_c, 0, 64, 89
1, 157262, Note_off_c, 0, 71, 30
1, 157301, Note_off_c, 0, 83, 37
1, 157316, Note_on_c, 0, 64, 27
1, 157320, Note_on_c, 0, 61, 8
1, 157332, Note_on_c, 0, 81, 49
1, 157348, Note_off_c, 0, 64, 54
1, 157348, Control_c, 0, 64, 89
1, 157357, Note_off_c, 0, 68, 40
1, 157367, Note_off_c, 0, 61, 50
1, 157405, Note_on_c, 0, 80, 58
1, 157450, Note_off_c, 0, 81, 37
1, 157494, Note_on_c, 0, 78, 57
1, 157494, Note_off_c, 0, 80, 58
1, 157526, Note_off_c, 0, 78, 66
1, 157561, Note_on_c, 0, 76, 54
1, 157577, Control_c, 0, 64, 89
1, 157636, Control_c, 0, 64, 87
1, 157651, Control_c, 0, 64, 84
1, 157661, Note_off_c, 0, 76, 59
1, 157666, Control_c, 0, 64, 78
1, 157681, Control_c, 0, 64, 70
1, 157688, Note_on_c, 0, 78, 41
1, 157695, Control_c, 0, 64, 62
1, 157699, Note_on_c, 0, 69, 25
1, 157708, Note_on_c, 0, 75, 39
1, 157710, Note_on_c, 0, 59, 26
1, 157710, Control_c, 0, 64, 43
1, 157725, Control_c, 0, 64, 0
1, 157754, Control_c, 0, 64, 34
1, 157769, Control_c, 0, 64, 40
1, 157784, Control_c, 0, 64, 48
1, 157799, Control_c, 0, 64, 56
1, 157814, Control_c, 0, 64, 64
1, 157828, Control_c, 0, 64, 70
1, 157843, Control_c, 0, 64, 75
1, 157858, Control_c, 0, 64, 79
1, 157874, Control_c, 0, 64, 81
1, 157889, Control_c, 0, 64, 83
1, 157904, Control_c, 0, 64, 86
1, 157918, Control_c, 0, 64, 88
1, 157933, Control_c, 0, 64, 90
1, 157948, Control_c, 0, 64, 92
1, 157962, Control_c, 0, 64, 93
1, 157964, Note_off_c, 0, 59, 42
1, 157974, Note_off_c, 0, 75, 61
1, 157977, Control_c, 0, 64, 94
1, 157992, Control_c, 0, 64, 95
1, 158022, Control_c, 0, 64, 97
1, 158087, Note_off_c, 0, 69, 40
1, 158156, Control_c, 0, 64, 99
1, 158236, Note_off_c, 0, 78, 53
1, 158459, Control_c, 0, 64, 95
1, 158474, Control_c, 0, 64, 88
1, 158489, Control_c, 0, 64, 78
1, 158491, Note_on_c, 0, 64, 38
1, 158493, Note_on_c, 0, 68, 42
1, 158493, Note_on_c, 0, 76, 55
1, 158504, Control_c, 0, 64, 66
1, 158519, Control_c, 0, 64, 53
1, 158534, Control_c, 0, 64, 0
1, 158578, Control_c, 0, 64, 39
1, 158593, Control_c, 0, 64, 50
1, 158608, Control_c, 0, 64, 60
1, 158623, Control_c, 0, 64, 65
1, 158638, Control_c, 0, 64, 70
1, 158652, Control_c, 0, 64, 75
1, 158663, Note_off_c, 0, 64, 55
1, 158668, Control_c, 0, 64, 78
1, 158683, Control_c, 0, 64, 79
1, 158698, Control_c, 0, 64, 81
1, 158713, Control_c, 0, 64, 84
1, 158728, Control_c, 0, 64, 87
1, 158742, Control_c, 0, 64, 90
1, 158757, Control_c, 0, 64, 92
1, 158772, Control_c, 0, 64, 94
1, 158786, Control_c, 0, 64, 96
1, 158793, Note_off_c, 0, 68, 40
1, 158801, Control_c, 0, 64, 99
1, 158816, Control_c, 0, 64, 101
1, 158846, Control_c, 0, 64, 104
1, 158864, Note_on_c, 0, 64, 33
1, 158875, Control_c, 0, 64, 106
1, 158890, Control_c, 0, 64, 109
1, 158905, Control_c, 0, 64, 111
1, 158943, Control_c, 0, 67, 123
1, 158958, Control_c, 0, 64, 113
1, 158958, Control_c, 0, 67, 108
1, 158973, Control_c, 0, 67, 91
1, 158988, Control_c, 0, 64, 115
1, 158988, Control_c, 0, 67, 77
1, 159002, Control_c, 0, 67, 65
1, 159017, Control_c, 0, 67, 55
1, 159032, Control_c, 0, 67, 47
1, 159047, Control_c, 0, 64, 117
1, 159047, Control_c, 0, 67, 41
1, 159062, Control_c, 0, 64, 119
1, 159062, Control_c, 0, 67, 37
1, 159076, Control_c, 0, 67, 34
1, 159091, Control_c, 0, 67, 32
1, 159106, Control_c, 0, 67, 30
1, 159135, Control_c, 0, 67, 27
1, 159150, Control_c, 0, 67, 23
1, 159165, Control_c, 0, 67, 19
1, 159180, Control_c, 0, 67, 0
1, 159194, Control_c, 0, 64, 111
1, 159209, Control_c, 0, 64, 92
1, 159224, Control_c, 0, 64, 77
1, 159225, Note_off_c, 0, 64, 33
1, 159232, Note_on_c, 0, 69, 52
1, 159237, Note_on_c, 0, 65, 45
1, 159239, Control_c, 0, 64, 65
1, 159242, Note_off_c, 0, 76, 26
1, 159254, Control_c, 0, 64, 50
1, 159268, Control_c, 0, 64, 0
1, 159283, Control_c, 0, 64, 36
1, 159298, Control_c, 0, 64, 45
1, 159313, Control_c, 0, 64, 54
1, 159328, Control_c, 0, 64, 60
1, 159343, Control_c, 0, 64, 66
1, 159343, Control_c, 0, 67, 21
1, 159357, Control_c, 0, 64, 74
1, 159357, Control_c, 0, 67, 23
1, 159372, Control_c, 0, 64, 84
1, 159372, Control_c, 0, 67, 26
1, 159387, Control_c, 0, 64, 93
1, 159387, Control_c, 0, 67, 29
1, 159402, Control_c, 0, 64, 101
1, 159402, Control_c, 0, 67, 32
1, 159417, Control_c, 0, 64, 109
1, 159417, Control_c, 0, 67, 36
1, 159432, Control_c, 0, 64, 127
1, 159432, Control_c, 0, 67, 46
1, 159447, Control_c, 0, 67, 63
1, 159462, Control_c, 0, 67, 82
1, 159477, Note_off_c, 0, 65, 58
1, 159477, Control_c, 0, 67, 100
1, 159492, Control_c, 0, 67, 111
1, 159507, Control_c, 0, 67, 119
1, 159512, Note_off_c, 0, 69, 37
1, 159521, Control_c, 0, 67, 127
1, 159646, Note_on_c, 0, 69, 43
1, 159992, Note_off_c, 0, 69, 39
1, 159993, Note_on_c, 0, 68, 43
1, 159995, Note_on_c, 0, 71, 51
1, 160001, Note_on_c, 0, 64, 29
1, 160003, Control_c, 0, 64, 95
1, 160017, Control_c, 0, 64, 76
1, 160032, Control_c, 0, 64, 63
1, 160047, Control_c, 0, 64, 46
1, 160062, Control_c, 0, 64, 37
1, 160077, Control_c, 0, 64, 41
1, 160091, Control_c, 0, 64, 47
1, 160106, Control_c, 0, 64, 54
1, 160121, Control_c, 0, 64, 59
1, 160136, Control_c, 0, 64, 63
1, 160150, Control_c, 0, 64, 68
1, 160165, Control_c, 0, 64, 76
1, 160180, Control_c, 0, 64, 84
1, 160195, Control_c, 0, 64, 91
1, 160203, Note_off_c, 0, 71, 56
1, 160210, Control_c, 0, 64, 96
1, 160225, Control_c, 0, 64, 101
1, 160240, Control_c, 0, 64, 107
1, 160246, Note_off_c, 0, 64, 38
1, 160250, Note_off_c, 0, 68, 37
1, 160255, Control_c, 0, 64, 120
1, 160270, Control_c, 0, 64, 127
1, 160362, Note_on_c, 0, 71, 40
1, 160411, Note_off_c, 0, 71, 45
1, 160676, Control_c, 0, 64, 94
1, 160690, Note_on_c, 0, 59, 35
1, 160690, Control_c, 0, 64, 75
1, 160705, Control_c, 0, 64, 63
1, 160716, Note_on_c, 0, 69, 22
1, 160720, Control_c, 0, 64, 53
1, 160735, Control_c, 0, 64, 52
1, 160743, Note_on_c, 0, 83, 42
1, 160750, Control_c, 0, 64, 56
1, 160756, Note_on_c, 0, 71, 33
1, 160764, Control_c, 0, 64, 60
1, 160770, Note_off_c, 0, 83, 53
1, 160779, Control_c, 0, 64, 63
1, 160794, Control_c, 0, 64, 66
1, 160809, Control_c, 0, 64, 73
1, 160824, Control_c, 0, 64, 81
1, 160839, Control_c, 0, 64, 88
1, 160854, Control_c, 0, 64, 91
1, 160869, Control_c, 0, 64, 93
1, 160879, Note_off_c, 0, 71, 59
1, 160883, Control_c, 0, 64, 95
1, 160885, Note_on_c, 0, 73, 63
1, 160898, Control_c, 0, 64, 100
1, 160913, Control_c, 0, 64, 105
1, 160928, Control_c, 0, 64, 113
1, 160943, Control_c, 0, 64, 127
1, 160972, Note_off_c, 0, 73, 62
1, 160976, Note_off_c, 0, 59, 40
1, 160981, Note_on_c, 0, 75, 64
1, 161002, Note_off_c, 0, 75, 66
1, 161082, Note_on_c, 0, 75, 60
1, 161093, Note_on_c, 0, 83, 63
1, 161167, Control_c, 0, 64, 105
1, 161182, Note_off_c, 0, 75, 45
1, 161182, Control_c, 0, 64, 89
1, 161192, Note_on_c, 0, 76, 67
1, 161203, Control_c, 0, 64, 75
1, 161206, Note_off_c, 0, 83, 51
1, 161218, Control_c, 0, 64, 67
1, 161233, Control_c, 0, 64, 61
1, 161248, Control_c, 0, 64, 52
1, 161263, Control_c, 0, 64, 44
1, 161277, Note_off_c, 0, 76, 60
1, 161277, Control_c, 0, 64, 39
1, 161284, Note_on_c, 0, 78, 65
1, 161292, Control_c, 0, 64, 35
1, 161307, Control_c, 0, 64, 0
1, 161397, Note_off_c, 0, 78, 59
1, 161418, Note_off_c, 0, 69, 42
1, 161426, Control_c, 0, 64, 43
1, 161432, Note_on_c, 0, 76, 50
1, 161432, Note_on_c, 0, 83, 56
1, 161441, Note_on_c, 0, 64, 14
1, 161441, Control_c, 0, 64, 53
1, 161442, Note_on_c, 0, 68, 33
1, 161456, Control_c, 0, 64, 60
1, 161470, Control_c, 0, 64, 65
1, 161485, Control_c, 0, 64, 69
1, 161500, Control_c, 0, 64, 76
1, 161510, Note_off_c, 0, 68, 59
1, 161514, Control_c, 0, 64, 83
1, 161520, Note_off_c, 0, 64, 60
1, 161529, Control_c, 0, 64, 92
1, 161544, Control_c, 0, 64, 103
1, 161559, Control_c, 0, 64, 127
1, 161569, Note_off_c, 0, 83, 58
1, 161655, Note_off_c, 0, 76, 42
1, 161788, Note_on_c, 0, 52, 39
1, 161840, Control_c, 0, 67, 108
1, 161856, Control_c, 0, 67, 89
1, 161871, Control_c, 0, 67, 73
1, 161885, Control_c, 0, 67, 61
1, 161900, Control_c, 0, 67, 49
1, 161915, Control_c, 0, 67, 33
1, 161937, Control_c, 0, 67, 0
1, 162160, Control_c, 0, 64, 95
1, 162165, Note_on_c, 0, 57, 48
1, 162174, Control_c, 0, 64, 78
1, 162183, Note_on_c, 0, 53, 41
1, 162186, Note_off_c, 0, 52, 49
1, 162189, Control_c, 0, 64, 65
1, 162204, Control_c, 0, 64, 44
1, 162219, Control_c, 0, 64, 0
1, 162249, Control_c, 0, 64, 35
1, 162264, Control_c, 0, 64, 45
1, 162279, Control_c, 0, 64, 54
1, 162293, Control_c, 0, 64, 63
1, 162308, Control_c, 0, 64, 69
1, 162323, Control_c, 0, 64, 76
1, 162337, Control_c, 0, 64, 81
1, 162352, Control_c, 0, 64, 84
1, 162367, Control_c, 0, 64, 86
1, 162382, Control_c, 0, 64, 88
1, 162389, Note_off_c, 0, 57, 53
1, 162397, Control_c, 0, 64, 91
1, 162411, Control_c, 0, 64, 94
1, 162426, Control_c, 0, 64, 96
1, 162456, Control_c, 0, 64, 98
1, 162500, Control_c, 0, 64, 100
1, 162541, Note_on_c, 0, 57, 43
1, 162589, Control_c, 0, 64, 102
1, 162818, Note_off_c, 0, 57, 42
1, 162864, Control_c, 0, 64, 100
1, 162879, Control_c, 0, 64, 90
1, 162893, Control_c, 0, 64, 77
1, 162908, Control_c, 0, 64, 66
1, 162920, Note_on_c, 0, 56, 29
1, 162922, Note_on_c, 0, 59, 34
1, 162923, Control_c, 0, 64, 53
1, 162938, Control_c, 0, 64, 33
1, 162944, Note_on_c, 0, 52, 6
1, 162953, Control_c, 0, 64, 0
1, 162982, Control_c, 0, 64, 38
1, 162987, Note_off_c, 0, 53, 36
1, 162997, Control_c, 0, 64, 49
1, 163012, Control_c, 0, 64, 58
1, 163027, Control_c, 0, 64, 66
1, 163042, Control_c, 0, 64, 74
1, 163057, Control_c, 0, 64, 83
1, 163072, Control_c, 0, 64, 90
1, 163086, Control_c, 0, 64, 95
1, 163101, Control_c, 0, 64, 98
1, 163116, Control_c, 0, 64, 101
1, 163131, Control_c, 0, 64, 104
1, 163146, Control_c, 0, 64, 108
1, 163160, Control_c, 0, 64, 112
1, 163160, Control_c, 0, 67, 22
1, 163175, Control_c, 0, 64, 119
1, 163175, Control_c, 0, 67, 27
1, 163179, Note_off_c, 0, 59, 47
1, 163190, Control_c, 0, 64, 127
1, 163190, Control_c, 0, 67, 36
1, 163205, Control_c, 0, 67, 48
1, 163220, Control_c, 0, 67, 63
1, 163229, Note_off_c, 0, 52, 40
1, 163234, Control_c, 0, 67, 79
1, 163249, Control_c, 0, 67, 98
1, 163252, Note_off_c, 0, 56, 40
1, 163264, Control_c, 0, 67, 115
1, 163279, Control_c, 0, 67, 127
1, 163313, Note_on_c, 0, 59, 49
1, 163392, Note_off_c, 0, 59, 55
1, 163597, Control_c, 0, 64, 105
1, 163612, Control_c, 0, 64, 87
1, 163622, Note_on_c, 0, 47, 37
1, 163627, Control_c, 0, 64, 73
1, 163642, Control_c, 0, 64, 62
1, 163652, Note_on_c, 0, 57, 25
1, 163657, Control_c, 0, 64, 52
1, 163672, Control_c, 0, 64, 52
1, 163674, Note_on_c, 0, 71, 52
1, 163687, Control_c, 0, 64, 57
1, 163702, Control_c, 0, 64, 61
1, 163704, Note_on_c, 0, 59, 4
1, 163707, Note_off_c, 0, 71, 59
1, 163716, Control_c, 0, 64, 65
1, 163731, Control_c, 0, 64, 70
1, 163746, Control_c, 0, 64, 77
1, 163761, Control_c, 0, 64, 83
1, 163776, Control_c, 0, 64, 87
1, 163790, Control_c, 0, 64, 89
1, 163805, Control_c, 0, 64, 92
1, 163820, Note_on_c, 0, 61, 64
1, 163820, Control_c, 0, 64, 95
1, 163822, Note_off_c, 0, 59, 52
1, 163835, Control_c, 0, 64, 99
1, 163850, Control_c, 0, 64, 102
1, 163865, Control_c, 0, 64, 104
1, 163894, Control_c, 0, 64, 107
1, 163909, Note_off_c, 0, 61, 61
1, 163918, Note_on_c, 0, 63, 61
1, 163924, Control_c, 0, 64, 109
1, 163947, Note_off_c, 0, 63, 64
1, 163983, Control_c, 0, 64, 91
1, 163998, Control_c, 0, 64, 75
1, 164013, Control_c, 0, 64, 61
1, 164022, Note_on_c, 0, 63, 59
1, 164028, Control_c, 0, 64, 40
1, 164029, Note_on_c, 0, 71, 59
1, 164042, Control_c, 0, 64, 0
1, 164052, Note_off_c, 0, 63, 50
1, 164057, Control_c, 0, 64, 35
1, 164072, Control_c, 0, 64, 45
1, 164075, Note_off_c, 0, 47, 48
1, 164087, Control_c, 0, 64, 55
1, 164102, Control_c, 0, 64, 63
1, 164116, Control_c, 0, 64, 68
1, 164130, Note_on_c, 0, 64, 57
1, 164130, Note_off_c, 0, 71, 53
1, 164131, Control_c, 0, 64, 75
1, 164146, Control_c, 0, 64, 79
1, 164162, Control_c, 0, 64, 80
1, 164177, Control_c, 0, 64, 81
1, 164198, Control_c, 0, 64, 82
1, 164213, Control_c, 0, 64, 83
1, 164215, Note_off_c, 0, 64, 60
1, 164228, Control_c, 0, 64, 83
1, 164236, Note_on_c, 0, 66, 59
1, 164258, Control_c, 0, 64, 84
1, 164318, Control_c, 0, 64, 82
1, 164332, Note_off_c, 0, 66, 49
1, 164333, Control_c, 0, 64, 76
1, 164348, Control_c, 0, 64, 68
1, 164362, Control_c, 0, 64, 58
1, 164363, Note_off_c, 0, 57, 41
1, 164377, Control_c, 0, 64, 38
1, 164384, Note_on_c, 0, 56, 34
1, 164388, Note_on_c, 0, 64, 30
1, 164389, Note_on_c, 0, 52, 29
1, 164392, Control_c, 0, 64, 0
1, 164398, Note_on_c, 0, 71, 42
1, 164422, Control_c, 0, 64, 41
1, 164437, Control_c, 0, 64, 51
1, 164452, Control_c, 0, 64, 61
1, 164467, Control_c, 0, 64, 68
1, 164481, Control_c, 0, 64, 76
1, 164496, Control_c, 0, 64, 88
1, 164511, Control_c, 0, 64, 95
1, 164514, Note_off_c, 0, 56, 50
1, 164526, Control_c, 0, 64, 99
1, 164540, Control_c, 0, 64, 101
1, 164547, Note_off_c, 0, 52, 34
1, 164562, Note_off_c, 0, 71, 52
1, 164570, Control_c, 0, 64, 103
1, 164653, Note_off_c, 0, 64, 51
1, 164742, Note_on_c, 0, 52, 29
1, 164746, Note_on_c, 0, 56, 31
1, 164812, Note_off_c, 0, 52, 41
1, 165082, Control_c, 0, 64, 94
1, 165090, Note_off_c, 0, 56, 40
1, 165096, Control_c, 0, 64, 79
1, 165111, Control_c, 0, 64, 67
1, 165120, Note_on_c, 0, 57, 29
1, 165126, Control_c, 0, 64, 54
1, 165131, Note_on_c, 0, 52, 25
1, 165141, Control_c, 0, 64, 34
1, 165156, Control_c, 0, 64, 0
1, 165163, Note_on_c, 0, 71, 49
1, 165170, Control_c, 0, 64, 40
1, 165183, Note_on_c, 0, 59, 31
1, 165185, Control_c, 0, 64, 50
1, 165199, Note_off_c, 0, 71, 49
1, 165200, Control_c, 0, 64, 58
1, 165215, Control_c, 0, 64, 63
1, 165230, Control_c, 0, 64, 68
1, 165245, Control_c, 0, 64, 72
1, 165260, Control_c, 0, 64, 76
1, 165275, Control_c, 0, 64, 77
1, 165289, Control_c, 0, 64, 78
1, 165304, Control_c, 0, 64, 79
1, 165319, Control_c, 0, 64, 79
1, 165322, Note_off_c, 0, 59, 57
1, 165325, Note_on_c, 0, 61, 63
1, 165334, Control_c, 0, 64, 80
1, 165349, Control_c, 0, 64, 81
1, 165363, Control_c, 0, 64, 82
1, 165378, Control_c, 0, 64, 83
1, 165408, Control_c, 0, 64, 83
1, 165422, Note_off_c, 0, 61, 61
1, 165423, Control_c, 0, 64, 84
1, 165428, Note_on_c, 0, 63, 57
1, 165437, Control_c, 0, 64, 84
1, 165452, Control_c, 0, 64, 85
1, 165460, Note_off_c, 0, 63, 64
1, 165496, Control_c, 0, 64, 84
1, 165511, Control_c, 0, 64, 81
1, 165526, Control_c, 0, 64, 72
1, 165533, Note_on_c, 0, 63, 59
1, 165541, Control_c, 0, 64, 62
1, 165554, Note_on_c, 0, 71, 45
1, 165555, Control_c, 0, 64, 42
1, 165570, Control_c, 0, 64, 0
1, 165580, Note_off_c, 0, 63, 41
1, 165614, Control_c, 0, 64, 34
1, 165629, Control_c, 0, 64, 48
1, 165641, Note_off_c, 0, 52, 53
1, 165644, Control_c, 0, 64, 60
1, 165645, Note_off_c, 0, 71, 50
1, 165649, Note_on_c, 0, 64, 49
1, 165659, Control_c, 0, 64, 65
1, 165681, Control_c, 0, 64, 70
1, 165696, Control_c, 0, 64, 72
1, 165711, Control_c, 0, 64, 73
1, 165726, Control_c, 0, 64, 73
1, 165736, Note_off_c, 0, 64, 57
1, 165741, Control_c, 0, 64, 74
1, 165756, Control_c, 0, 64, 75
1, 165760, Note_on_c, 0, 66, 52
1, 165770, Control_c, 0, 64, 75
1, 165785, Control_c, 0, 64, 76
1, 165860, Note_off_c, 0, 66, 48
1, 165860, Control_c, 0, 64, 75
1, 165875, Control_c, 0, 64, 70
1, 165890, Control_c, 0, 64, 62
1, 165905, Control_c, 0, 64, 47
1, 165916, Note_off_c, 0, 57, 43
1, 165919, Control_c, 0, 64, 0
1, 165921, Note_on_c, 0, 64, 25
1, 165924, Note_on_c, 0, 52, 25
1, 165934, Note_on_c, 0, 71, 41
1, 165939, Note_on_c, 0, 56, 26
1, 165964, Control_c, 0, 64, 44
1, 165979, Control_c, 0, 64, 59
1, 165993, Control_c, 0, 64, 66
1, 166008, Control_c, 0, 64, 71
1, 166023, Control_c, 0, 64, 76
1, 166038, Control_c, 0, 64, 79
1, 166053, Control_c, 0, 64, 80
1, 166060, Note_off_c, 0, 56, 33
1, 166068, Control_c, 0, 64, 82
1, 166072, Note_off_c, 0, 52, 36
1, 166082, Control_c, 0, 64, 84
1, 166097, Control_c, 0, 64, 86
1, 166112, Control_c, 0, 64, 88
1, 166127, Control_c, 0, 64, 90
1, 166142, Note_off_c, 0, 71, 32
1, 166157, Control_c, 0, 64, 90
1, 166260, Note_off_c, 0, 64, 36
1, 166309, Note_on_c, 0, 56, 33
1, 166315, Note_on_c, 0, 52, 23
1, 166384, Note_off_c, 0, 52, 40
1, 166666, Note_off_c, 0, 56, 39
1, 166684, Control_c, 0, 64, 88
1, 166699, Control_c, 0, 64, 81
1, 166711, Note_on_c, 0, 52, 27
1, 166714, Control_c, 0, 64, 73
1, 166728, Control_c, 0, 64, 63
1, 166729, Note_on_c, 0, 57, 22
1, 166743, Control_c, 0, 64, 49
1, 166758, Control_c, 0, 64, 37
1, 166773, Control_c, 0, 64, 42
1, 166788, Control_c, 0, 64, 49
1, 166803, Note_on_c, 0, 71, 40
1, 166803, Control_c, 0, 64, 56
1, 166810, Note_on_c, 0, 59, 38
1, 166817, Control_c, 0, 64, 62
1, 166831, Note_off_c, 0, 71, 52
1, 166832, Control_c, 0, 64, 66
1, 166847, Control_c, 0, 64, 70
1, 166861, Control_c, 0, 64, 73
1, 166876, Control_c, 0, 64, 75
1, 166891, Control_c, 0, 64, 76
1, 166906, Control_c, 0, 64, 78
1, 166921, Control_c, 0, 64, 78
1, 166935, Control_c, 0, 64, 79
1, 166942, Note_off_c, 0, 59, 54
1, 166950, Control_c, 0, 64, 80
1, 166955, Note_on_c, 0, 61, 53
1, 167009, Control_c, 0, 64, 80
1, 167056, Note_off_c, 0, 61, 61
1, 167075, Note_on_c, 0, 63, 49
1, 167105, Note_off_c, 0, 63, 63
1, 167158, Control_c, 0, 64, 76
1, 167173, Control_c, 0, 64, 67
1, 167195, Control_c, 0, 64, 58
1, 167209, Control_c, 0, 64, 36
1, 167210, Note_on_c, 0, 63, 43
1, 167222, Note_on_c, 0, 71, 44
1, 167224, Control_c, 0, 64, 0
1, 167254, Control_c, 0, 64, 37
1, 167269, Control_c, 0, 64, 50
1, 167284, Control_c, 0, 64, 61
1, 167299, Note_off_c, 0, 63, 31
1, 167299, Control_c, 0, 64, 66
1, 167314, Control_c, 0, 64, 70
1, 167328, Control_c, 0, 64, 73
1, 167340, Note_on_c, 0, 64, 44
1, 167343, Control_c, 0, 64, 75
1, 167346, Note_off_c, 0, 52, 40
1, 167358, Control_c, 0, 64, 75
1, 167362, Note_off_c, 0, 71, 33
1, 167373, Control_c, 0, 64, 76
1, 167387, Control_c, 0, 64, 77
1, 167402, Control_c, 0, 64, 77
1, 167432, Control_c, 0, 64, 78
1, 167436, Note_off_c, 0, 64, 55
1, 167475, Note_on_c, 0, 66, 44
1, 167611, Control_c, 0, 64, 77
1, 167625, Control_c, 0, 64, 74
1, 167634, Note_off_c, 0, 66, 30
1, 167640, Control_c, 0, 64, 70
1, 167655, Control_c, 0, 64, 64
1, 167670, Control_c, 0, 64, 52
1, 167671, Note_on_c, 0, 52, 8
1, 167684, Control_c, 0, 64, 37
1, 167685, Note_on_c, 0, 56, 23
1, 167695, Note_off_c, 0, 57, 39
1, 167695, Note_on_c, 0, 71, 23
1, 167699, Note_on_c, 0, 64, 19
1, 167699, Control_c, 0, 64, 0
1, 167744, Control_c, 0, 64, 37
1, 167758, Control_c, 0, 64, 48
1, 167773, Control_c, 0, 64, 60
1, 167788, Control_c, 0, 64, 66
1, 167802, Control_c, 0, 64, 72
1, 167817, Control_c, 0, 64, 77
1, 167832, Control_c, 0, 64, 81
1, 167844, Note_off_c, 0, 56, 41
1, 167847, Control_c, 0, 64, 83
1, 167862, Control_c, 0, 64, 85
1, 167866, Note_off_c, 0, 52, 39
1, 167877, Control_c, 0, 64, 87
1, 167892, Control_c, 0, 64, 89
1, 167905, Note_off_c, 0, 71, 37
1, 167906, Control_c, 0, 64, 90
1, 167921, Control_c, 0, 64, 92
1, 167943, Control_c, 0, 64, 93
1, 167972, Control_c, 0, 64, 93
1, 167987, Control_c, 0, 64, 94
1, 168002, Control_c, 0, 64, 94
1, 168077, Control_c, 0, 64, 95
1, 168098, Note_off_c, 0, 64, 31
1, 168146, Note_on_c, 0, 52, 31
1, 168171, Note_on_c, 0, 56, 26
1, 168269, Note_off_c, 0, 52, 37
1, 168280, Note_off_c, 0, 56, 32
1, 168751, Control_c, 0, 64, 94
1, 168756, Note_on_c, 0, 43, 32
1, 168780, Control_c, 0, 64, 93
1, 168793, Note_on_c, 0, 55, 23
1, 168795, Control_c, 0, 64, 91
1, 168810, Control_c, 0, 64, 85
1, 168825, Control_c, 0, 64, 78
1, 168840, Note_on_c, 0, 71, 39
1, 168840, Control_c, 0, 64, 68
1, 168853, Note_on_c, 0, 62, 31
1, 168855, Control_c, 0, 64, 58
1, 168870, Control_c, 0, 64, 36
1, 168884, Control_c, 0, 64, 0
1, 168914, Control_c, 0, 64, 36
1, 168929, Control_c, 0, 64, 45
1, 168944, Control_c, 0, 64, 54
1, 168958, Control_c, 0, 64, 62
1, 168973, Control_c, 0, 64, 68
1, 168988, Control_c, 0, 64, 73
1, 169003, Control_c, 0, 64, 76
1, 169018, Control_c, 0, 64, 78
1, 169032, Note_off_c, 0, 62, 54
1, 169032, Control_c, 0, 64, 79
1, 169048, Control_c, 0, 64, 80
1, 169063, Control_c, 0, 64, 81
1, 169078, Control_c, 0, 64, 81
1, 169081, Note_on_c, 0, 64, 28
1, 169093, Control_c, 0, 64, 82
1, 169122, Control_c, 0, 64, 82
1, 169137, Control_c, 0, 64, 83
1, 169214, Note_off_c, 0, 71, 40
1, 169227, Note_on_c, 0, 65, 43
1, 169251, Note_off_c, 0, 64, 35
1, 169295, Note_off_c, 0, 65, 38
1, 169344, Control_c, 0, 64, 83
1, 169359, Control_c, 0, 64, 80
1, 169373, Control_c, 0, 64, 74
1, 169388, Control_c, 0, 64, 66
1, 169404, Control_c, 0, 64, 57
1, 169418, Note_on_c, 0, 65, 34
1, 169419, Control_c, 0, 64, 46
1, 169442, Control_c, 0, 64, 46
1, 169442, Note_on_c, 0, 71, 19
1, 169456, Control_c, 0, 64, 51
1, 169471, Control_c, 0, 64, 56
1, 169486, Control_c, 0, 64, 62
1, 169501, Control_c, 0, 64, 67
1, 169516, Control_c, 0, 64, 72
1, 169530, Control_c, 0, 64, 76
1, 169545, Control_c, 0, 64, 79
1, 169560, Control_c, 0, 64, 80
1, 169575, Control_c, 0, 64, 81
1, 169578, Note_off_c, 0, 43, 39
1, 169589, Control_c, 0, 64, 81
1, 169597, Note_off_c, 0, 65, 39
1, 169604, Control_c, 0, 64, 82
1, 169623, Note_on_c, 0, 67, 29
1, 169634, Control_c, 0, 64, 82
1, 169649, Control_c, 0, 64, 83
1, 169663, Control_c, 0, 64, 84
1, 169678, Control_c, 0, 64, 85
1, 169693, Control_c, 0, 64, 85
1, 169712, Note_off_c, 0, 55, 39
1, 169769, Note_off_c, 0, 71, 17
1, 169835, Note_on_c, 0, 69, 36
1, 169897, Note_off_c, 0, 69, 52
1, 169905, Note_off_c, 0, 67, 42
1, 170190, Control_c, 0, 64, 85
1, 170193, Note_on_c, 0, 48, 18
1, 170205, Control_c, 0, 64, 81
1, 170214, Note_on_c, 0, 55, 25
1, 170220, Control_c, 0, 64, 75
1, 170235, Control_c, 0, 64, 67
1, 170250, Control_c, 0, 64, 56
1, 170255, Note_on_c, 0, 72, 37
1, 170262, Note_on_c, 0, 64, 33
1, 170265, Control_c, 0, 64, 36
1, 170279, Control_c, 0, 64, 35
1, 170294, Control_c, 0, 64, 40
1, 170309, Control_c, 0, 64, 49
1, 170324, Control_c, 0, 64, 57
1, 170339, Control_c, 0, 64, 64
1, 170353, Control_c, 0, 64, 69
1, 170368, Control_c, 0, 64, 76
1, 170383, Control_c, 0, 64, 80
1, 170397, Control_c, 0, 64, 81
1, 170412, Control_c, 0, 64, 81
1, 170427, Control_c, 0, 64, 82
1, 170442, Control_c, 0, 64, 83
1, 170457, Control_c, 0, 64, 84
1, 170472, Control_c, 0, 64, 84
1, 170501, Control_c, 0, 64, 85
1, 170531, Control_c, 0, 64, 85
1, 170595, Note_off_c, 0, 48, 23
1, 170641, Note_on_c, 0, 60, 33
1, 170694, Note_off_c, 0, 64, 28
1, 170715, Note_off_c, 0, 60, 40
1, 170860, Note_on_c, 0, 60, 44
1, 170914, Note_off_c, 0, 60, 44
1, 171043, Control_c, 0, 64, 86
1, 171059, Note_on_c, 0, 60, 39
1, 171088, Note_off_c, 0, 60, 55
1, 171117, Control_c, 0, 64, 86
1, 171162, Control_c, 0, 64, 87
1, 171176, Control_c, 0, 64, 87
1, 171191, Control_c, 0, 64, 88
1, 171206, Control_c, 0, 64, 89
1, 171220, Control_c, 0, 64, 90
1, 171235, Control_c, 0, 64, 91
1, 171237, Note_on_c, 0, 60, 40
1, 171242, Note_off_c, 0, 55, 39
1, 171250, Control_c, 0, 64, 93
1, 171265, Control_c, 0, 64, 95
1, 171272, Note_off_c, 0, 60, 52
1, 171280, Control_c, 0, 64, 97
1, 171309, Control_c, 0, 64, 100
1, 171324, Control_c, 0, 64, 102
1, 171339, Control_c, 0, 64, 105
1, 171353, Control_c, 0, 64, 110
1, 171368, Control_c, 0, 64, 113
1, 171383, Control_c, 0, 64, 117
1, 171395, Note_off_c, 0, 72, 41
1, 171398, Control_c, 0, 64, 127
1, 171409, Note_on_c, 0, 60, 38
1, 171409, Note_on_c, 0, 67, 54
1, 171428, Note_on_c, 0, 64, 35
1, 171448, Note_off_c, 0, 60, 49
1, 171448, Note_off_c, 0, 67, 60
1, 171458, Note_off_c, 0, 64, 54
1, 171582, Note_on_c, 0, 64, 41
1, 171592, Note_on_c, 0, 60, 37
1, 171618, Note_on_c, 0, 67, 21
1, 171633, Note_off_c, 0, 60, 48
1, 171642, Note_off_c, 0, 64, 51
1, 171653, Note_off_c, 0, 67, 52
1, 171771, Note_on_c, 0, 60, 38
1, 171773, Note_on_c, 0, 64, 27
1, 171789, Note_on_c, 0, 67, 21
1, 171813, Note_off_c, 0, 60, 48
1, 171828, Note_off_c, 0, 67, 47
1, 171842, Note_off_c, 0, 64, 39
1, 171969, Note_on_c, 0, 64, 25
1, 171997, Note_on_c, 0, 60, 23
1, 172020, Note_on_c, 0, 67, 3
1, 172026, Note_on_c, 0, 79, 66
1, 172061, Note_off_c, 0, 60, 41
1, 172066, Note_off_c, 0, 67, 45
1, 172073, Control_c, 0, 67, 122
1, 172088, Control_c, 0, 67, 116
1, 172103, Control_c, 0, 67, 108
1, 172117, Control_c, 0, 67, 100
1, 172132, Control_c, 0, 67, 91
1, 172147, Control_c, 0, 67, 83
1, 172162, Control_c, 0, 67, 74
1, 172165, Note_off_c, 0, 64, 0
1, 172176, Control_c, 0, 67, 66
1, 172185, Note_on_c, 0, 64, 11
1, 172191, Control_c, 0, 67, 58
1, 172201, Note_on_c, 0, 67, 39
1, 172204, Note_on_c, 0, 60, 33
1, 172206, Control_c, 0, 67, 49
1, 172221, Control_c, 0, 67, 40
1, 172236, Control_c, 0, 67, 30
1, 172239, Note_off_c, 0, 67, 51
1, 172252, Control_c, 0, 67, 0
1, 172255, Note_off_c, 0, 60, 47
1, 172265, Note_off_c, 0, 64, 49
1, 172386, Note_on_c, 0, 77, 68
1, 172390, Note_on_c, 0, 64, 31
1, 172401, Note_on_c, 0, 67, 11
1, 172404, Note_on_c, 0, 60, 20
1, 172432, Note_off_c, 0, 79, 59
1, 172455, Note_off_c, 0, 64, 47
1, 172455, Note_off_c, 0, 67, 38
1, 172461, Note_off_c, 0, 60, 49
1, 172473, Note_on_c, 0, 76, 76
1, 172516, Note_off_c, 0, 77, 59
1, 172541, Note_on_c, 0, 64, 36
1, 172553, Note_on_c, 0, 74, 82
1, 172563, Note_off_c, 0, 76, 63
1, 172578, Note_on_c, 0, 67, 15
1, 172587, Poly_aftertouch_c, 0, 60, 127
1, 172595, Note_off_c, 0, 64, 57
1, 172617, Note_off_c, 0, 74, 60
1, 172620, Note_on_c, 0, 72, 70
1, 172620, Note_off_c, 0, 67, 52
1, 172686, Poly_aftertouch_c, 0, 60, 0
1, 172688, Control_c, 0, 64, 104
1, 172703, Control_c, 0, 64, 78
1, 172718, Control_c, 0, 64, 61
1, 172724, Poly_aftertouch_c, 0, 60, 127
1, 172733, Control_c, 0, 64, 35
1, 172739, Note_off_c, 0, 72, 58
1, 172742, Note_on_c, 0, 65, 39
1, 172745, Note_on_c, 0, 69, 38
1, 172748, Control_c, 0, 64, 0
1, 172752, Note_on_c, 0, 81, 82
1, 172763, Control_c, 0, 64, 38
1, 172778, Control_c, 0, 64, 50
1, 172792, Control_c, 0, 64, 60
1, 172799, Note_off_c, 0, 69, 57
1, 172807, Control_c, 0, 64, 68
1, 172821, Note_off_c, 0, 65, 57
1, 172822, Control_c, 0, 64, 78
1, 172837, Control_c, 0, 64, 92
1, 172852, Control_c, 0, 64, 105
1, 172855, Poly_aftertouch_c, 0, 60, 0
1, 172866, Control_c, 0, 64, 115
1, 172881, Control_c, 0, 64, 127
1, 172918, Note_on_c, 0, 60, 32
1, 172931, Note_on_c, 0, 65, 28
1, 172941, Note_on_c, 0, 69, 42
1, 172974, Note_off_c, 0, 69, 55
1, 172991, Note_off_c, 0, 65, 51
1, 172998, Note_off_c, 0, 60, 49
1, 173088, Note_on_c, 0, 60, 27
1, 173100, Note_on_c, 0, 69, 39
1, 173118, Note_on_c, 0, 65, 33
1, 173136, Note_off_c, 0, 69, 52
1, 173156, Note_off_c, 0, 65, 50
1, 173218, Note_off_c, 0, 60, 0
1, 173243, Note_on_c, 0, 60, 23
1, 173264, Note_on_c, 0, 69, 38
1, 173280, Note_on_c, 0, 65, 44
1, 173281, Note_off_c, 0, 81, 40
1, 173294, Note_off_c, 0, 69, 53
1, 173314, Note_off_c, 0, 60, 51
1, 173317, Note_off_c, 0, 65, 51
1, 173437, Control_c, 0, 64, 95
1, 173452, Control_c, 0, 64, 70
1, 173460, Note_on_c, 0, 60, 33
1, 173460, Note_on_c, 0, 64, 39
1, 173467, Control_c, 0, 64, 55
1, 173474, Note_on_c, 0, 79, 70
1, 173480, Note_on_c, 0, 67, 26
1, 173482, Control_c, 0, 64, 42
1, 173496, Control_c, 0, 64, 47
1, 173511, Control_c, 0, 64, 54
1, 173522, Note_off_c, 0, 60, 52
1, 173523, Note_off_c, 0, 67, 50
1, 173526, Control_c, 0, 64, 59
1, 173530, Note_off_c, 0, 64, 49
1, 173541, Control_c, 0, 64, 66
1, 173556, Control_c, 0, 64, 77
1, 173570, Control_c, 0, 64, 94
1, 173585, Control_c, 0, 64, 127
1, 173632, Note_on_c, 0, 64, 40
1, 173636, Note_on_c, 0, 60, 35
1, 173639, Note_on_c, 0, 67, 47
1, 173675, Note_off_c, 0, 67, 60
1, 173687, Note_off_c, 0, 60, 52
1, 173690, Note_off_c, 0, 64, 55
1, 173823, Note_on_c, 0, 60, 35
1, 173829, Note_on_c, 0, 64, 43
1, 173841, Note_on_c, 0, 67, 27
1, 173855, Note_on_c, 0, 77, 64
1, 173867, Note_off_c, 0, 64, 55
1, 173879, Note_off_c, 0, 67, 51
1, 173881, Note_off_c, 0, 60, 44
1, 173886, Note_off_c, 0, 79, 57
1, 173931, Note_on_c, 0, 76, 80
1, 173981, Note_off_c, 0, 77, 55
1, 173985, Note_on_c, 0, 60, 14
1, 173994, Note_on_c, 0, 64, 39
1, 174006, Note_on_c, 0, 74, 78
1, 174015, Note_on_c, 0, 67, 35
1, 174030, Note_off_c, 0, 76, 62
1, 174046, Note_off_c, 0, 64, 56
1, 174050, Note_off_c, 0, 67, 52
1, 174053, Note_off_c, 0, 60, 43
1, 174062, Note_off_c, 0, 74, 61
1, 174074, Note_on_c, 0, 72, 72
1, 174120, Note_off_c, 0, 72, 57
1, 174158, Control_c, 0, 64, 87
1, 174172, Control_c, 0, 64, 68
1, 174181, Note_on_c, 0, 74, 72
1, 174183, Note_on_c, 0, 60, 34
1, 174187, Note_on_c, 0, 71, 55
1, 174187, Control_c, 0, 64, 49
1, 174190, Note_on_c, 0, 65, 42
1, 174198, Note_on_c, 0, 67, 30
1, 174202, Control_c, 0, 64, 0
1, 174232, Control_c, 0, 64, 44
1, 174240, Note_off_c, 0, 67, 52
1, 174246, Control_c, 0, 64, 57
1, 174247, Note_off_c, 0, 60, 51
1, 174252, Note_off_c, 0, 65, 57
1, 174261, Control_c, 0, 64, 67
1, 174276, Control_c, 0, 64, 76
1, 174291, Control_c, 0, 64, 89
1, 174306, Control_c, 0, 64, 101
1, 174320, Control_c, 0, 64, 110
1, 174335, Control_c, 0, 64, 127
1, 174368, Note_on_c, 0, 65, 37
1, 174369, Note_on_c, 0, 67, 33
1, 174370, Note_on_c, 0, 60, 27
1, 174411, Note_off_c, 0, 67, 48
1, 174426, Note_off_c, 0, 65, 45
1, 174493, Note_off_c, 0, 60, 0
1, 174515, Note_on_c, 0, 60, 29
1, 174521, Note_off_c, 0, 71, 36
1, 174525, Note_off_c, 0, 74, 50
1, 174538, Note_on_c, 0, 67, 40
1, 174560, Note_on_c, 0, 65, 38
1, 174575, Note_off_c, 0, 67, 51
1, 174599, Note_off_c, 0, 65, 47
1, 174670, Note_off_c, 0, 60, 0
1, 174705, Note_on_c, 0, 65, 59
1, 174707, Note_on_c, 0, 67, 40
1, 174707, Poly_aftertouch_c, 0, 60, 127
1, 174739, Note_off_c, 0, 67, 56
1, 174745, Note_off_c, 0, 65, 60
1, 174768, Poly_aftertouch_c, 0, 60, 0
1, 174831, Control_c, 0, 64, 91
1, 174846, Control_c, 0, 64, 67
1, 174861, Control_c, 0, 64, 50
1, 174875, Control_c, 0, 64, 38
1, 174890, Control_c, 0, 64, 49
1, 174891, Note_on_c, 0, 76, 66
1, 174892, Note_on_c, 0, 64, 43
1, 174893, Note_on_c, 0, 67, 26
1, 174899, Note_on_c, 0, 60, 28
1, 174900, Note_on_c, 0, 72, 55
1, 174905, Control_c, 0, 64, 59
1, 174920, Control_c, 0, 64, 65
1, 174927, Note_off_c, 0, 67, 57
1, 174935, Control_c, 0, 64, 73
1, 174944, Note_off_c, 0, 64, 57
1, 174948, Note_off_c, 0, 60, 47
1, 174949, Control_c, 0, 64, 86
1, 174964, Control_c, 0, 64, 97
1, 174979, Control_c, 0, 64, 105
1, 174993, Control_c, 0, 64, 115
1, 175008, Control_c, 0, 64, 127
1, 175011, Note_off_c, 0, 72, 60
1, 175040, Note_off_c, 0, 76, 59
1, 175065, Note_on_c, 0, 64, 43
1, 175073, Note_on_c, 0, 67, 22
1, 175100, Note_off_c, 0, 64, 50
1, 175112, Poly_aftertouch_c, 0, 60, 127
1, 175114, Note_off_c, 0, 67, 41
1, 175156, Poly_aftertouch_c, 0, 60, 0
1, 175216, Control_c, 0, 64, 91
1, 175231, Control_c, 0, 64, 71
1, 175237, Note_on_c, 0, 76, 73
1, 175239, Note_on_c, 0, 64, 41
1, 175241, Note_on_c, 0, 74, 76
1, 175246, Control_c, 0, 64, 57
1, 175255, Note_on_c, 0, 68, 43
1, 175261, Control_c, 0, 64, 55
1, 175275, Control_c, 0, 64, 60
1, 175278, Note_off_c, 0, 64, 48
1, 175281, Poly_aftertouch_c, 0, 60, 127
1, 175284, Note_off_c, 0, 68, 55
1, 175290, Control_c, 0, 64, 63
1, 175305, Control_c, 0, 64, 68
1, 175319, Control_c, 0, 64, 77
1, 175327, Poly_aftertouch_c, 0, 60, 0
1, 175333, Note_on_c, 0, 72, 74
1, 175334, Control_c, 0, 64, 89
1, 175349, Control_c, 0, 64, 102
1, 175364, Control_c, 0, 64, 111
1, 175366, Note_off_c, 0, 74, 59
1, 175379, Control_c, 0, 64, 118
1, 175382, Note_on_c, 0, 68, 56
1, 175393, Control_c, 0, 64, 127
1, 175395, Note_off_c, 0, 72, 63
1, 175401, Note_on_c, 0, 64, 42
1, 175405, Note_on_c, 0, 71, 77
1, 175410, Note_on_c, 0, 60, 20
1, 175422, Note_off_c, 0, 76, 61
1, 175424, Note_off_c, 0, 68, 55
1, 175469, Note_off_c, 0, 64, 39
1, 175470, Note_off_c, 0, 60, 47
1, 175486, Note_on_c, 0, 74, 82
1, 175496, Note_off_c, 0, 71, 60
1, 175520, Control_c, 0, 64, 115
1, 175535, Control_c, 0, 64, 85
1, 175550, Control_c, 0, 64, 64
1, 175565, Control_c, 0, 64, 44
1, 175577, Note_on_c, 0, 76, 70
1, 175580, Note_off_c, 0, 74, 51
1, 175580, Control_c, 0, 64, 38
1, 175589, Note_on_c, 0, 60, 38
1, 175594, Control_c, 0, 64, 49
1, 175596, Note_on_c, 0, 69, 36
1, 175603, Note_on_c, 0, 64, 21
1, 175609, Control_c, 0, 64, 59
1, 175612, Note_on_c, 0, 72, 47
1, 175624, Control_c, 0, 64, 66
1, 175637, Note_off_c, 0, 60, 46
1, 175637, Note_off_c, 0, 69, 50
1, 175639, Control_c, 0, 64, 76
1, 175654, Control_c, 0, 64, 92
1, 175657, Note_off_c, 0, 64, 45
1, 175661, Note_off_c, 0, 72, 56
1, 175669, Control_c, 0, 64, 108
1, 175684, Control_c, 0, 64, 127
1, 175756, Note_on_c, 0, 69, 50
1, 175761, Note_off_c, 0, 76, 37
1, 175768, Note_on_c, 0, 64, 55
1, 175772, Note_on_c, 0, 60, 37
1, 175785, Note_off_c, 0, 69, 53
1, 175803, Note_off_c, 0, 60, 54
1, 175809, Note_off_c, 0, 64, 58
1, 175890, Control_c, 0, 64, 115
1, 175905, Control_c, 0, 64, 80
1, 175920, Control_c, 0, 64, 62
1, 175923, Note_on_c, 0, 60, 40
1, 175923, Note_on_c, 0, 76, 78
1, 175933, Note_on_c, 0, 64, 40
1, 175934, Note_on_c, 0, 68, 49
1, 175934, Note_on_c, 0, 74, 80
1, 175935, Control_c, 0, 64, 43
1, 175949, Control_c, 0, 64, 45
1, 175964, Control_c, 0, 64, 54
1, 175978, Note_off_c, 0, 68, 61
1, 175979, Note_off_c, 0, 60, 54
1, 175979, Control_c, 0, 64, 62
1, 175988, Note_off_c, 0, 64, 52
1, 175994, Control_c, 0, 64, 70
1, 176009, Control_c, 0, 64, 80
1, 176013, Note_on_c, 0, 72, 78
1, 176024, Control_c, 0, 64, 95
1, 176039, Control_c, 0, 64, 109
1, 176054, Control_c, 0, 64, 125
1, 176057, Note_off_c, 0, 74, 60
1, 176068, Control_c, 0, 64, 127
1, 176069, Note_on_c, 0, 68, 69
1, 176074, Note_on_c, 0, 60, 44
1, 176078, Note_on_c, 0, 64, 39
1, 176080, Note_on_c, 0, 71, 84
1, 176085, Note_off_c, 0, 72, 63
1, 176088, Note_off_c, 0, 76, 58
1, 176116, Note_off_c, 0, 68, 54
1, 176126, Note_off_c, 0, 60, 55
1, 176150, Note_on_c, 0, 74, 94
1, 176150, Note_off_c, 0, 64, 48
1, 176180, Note_off_c, 0, 71, 60
1, 176210, Control_c, 0, 64, 110
1, 176224, Control_c, 0, 64, 82
1, 176239, Control_c, 0, 64, 64
1, 176250, Note_on_c, 0, 76, 85
1, 176255, Control_c, 0, 64, 0
1, 176268, Note_on_c, 0, 69, 52
1, 176271, Note_on_c, 0, 60, 38
1, 176274, Note_on_c, 0, 72, 69
1, 176279, Note_on_c, 0, 64, 24
1, 176285, Note_off_c, 0, 74, 59
1, 176315, Control_c, 0, 64, 51
1, 176321, Note_off_c, 0, 72, 59
1, 176321, Note_off_c, 0, 60, 58
1, 176325, Note_off_c, 0, 69, 53
1, 176329, Control_c, 0, 64, 65
1, 176336, Note_off_c, 0, 64, 58
1, 176344, Control_c, 0, 64, 77
1, 176355, Note_off_c, 0, 76, 63
1, 176359, Control_c, 0, 64, 92
1, 176373, Control_c, 0, 64, 110
1, 176388, Control_c, 0, 64, 127
1, 176429, Note_on_c, 0, 69, 55
1, 176445, Note_on_c, 0, 64, 44
1, 176447, Note_off_c, 0, 69, 63
1, 176455, Note_on_c, 0, 60, 27
1, 176474, Note_off_c, 0, 64, 56
1, 176506, Note_off_c, 0, 60, 45
1, 176593, Note_on_c, 0, 71, 62
1, 176596, Control_c, 0, 64, 90
1, 176604, Note_on_c, 0, 76, 72
1, 176610, Note_on_c, 0, 67, 46
1, 176611, Control_c, 0, 64, 69
1, 176612, Note_on_c, 0, 64, 39
1, 176626, Control_c, 0, 64, 55
1, 176637, Poly_aftertouch_c, 0, 60, 127
1, 176639, Note_off_c, 0, 67, 59
1, 176640, Control_c, 0, 64, 53
1, 176655, Control_c, 0, 64, 60
1, 176662, Note_off_c, 0, 64, 44
1, 176670, Control_c, 0, 64, 65
1, 176684, Control_c, 0, 64, 73
1, 176685, Note_on_c, 0, 78, 75
1, 176685, Poly_aftertouch_c, 0, 60, 0
1, 176699, Control_c, 0, 64, 86
1, 176714, Control_c, 0, 64, 102
1, 176729, Control_c, 0, 64, 127
1, 176731, Note_off_c, 0, 71, 55
1, 176739, Note_off_c, 0, 76, 54
1, 176754, Note_on_c, 0, 67, 56
1, 176758, Note_on_c, 0, 79, 83
1, 176763, Note_on_c, 0, 60, 39
1, 176772, Note_on_c, 0, 64, 45
1, 176777, Note_off_c, 0, 78, 63
1, 176792, Note_off_c, 0, 67, 59
1, 176815, Note_off_c, 0, 64, 55
1, 176816, Note_off_c, 0, 60, 47
1, 176849, Note_on_c, 0, 78, 78
1, 176915, Control_c, 0, 64, 92
1, 176930, Control_c, 0, 64, 71
1, 176945, Control_c, 0, 64, 50
1, 176960, Note_off_c, 0, 79, 57
1, 176960, Control_c, 0, 64, 0
1, 176963, Note_on_c, 0, 76, 70
1, 176972, Note_on_c, 0, 60, 36
1, 176974, Note_on_c, 0, 69, 55
1, 176988, Note_on_c, 0, 66, 39
1, 176989, Note_on_c, 0, 64, 34
1, 177004, Control_c, 0, 64, 44
1, 177019, Control_c, 0, 64, 57
1, 177031, Note_off_c, 0, 78, 39
1, 177034, Control_c, 0, 64, 66
1, 177036, Note_off_c, 0, 66, 54
1, 177040, Note_off_c, 0, 64, 45
1, 177050, Control_c, 0, 64, 78
1, 177052, Note_off_c, 0, 60, 40
1, 177064, Control_c, 0, 64, 92
1, 177076, Note_off_c, 0, 69, 61
1, 177079, Control_c, 0, 64, 102
1, 177094, Control_c, 0, 64, 107
1, 177097, Note_off_c, 0, 76, 62
1, 177109, Control_c, 0, 64, 115
1, 177124, Control_c, 0, 64, 127
1, 177147, Note_on_c, 0, 60, 37
1, 177160, Note_on_c, 0, 66, 43
1, 177161, Note_on_c, 0, 64, 42
1, 177186, Note_off_c, 0, 66, 56
1, 177188, Note_off_c, 0, 60, 50
1, 177195, Note_off_c, 0, 64, 52
1, 177287, Control_c, 0, 64, 102
1, 177302, Control_c, 0, 64, 74
1, 177316, Control_c, 0, 64, 57
1, 177331, Control_c, 0, 64, 0
1, 177332, Note_on_c, 0, 60, 36
1, 177333, Note_on_c, 0, 78, 72
1, 177338, Note_on_c, 0, 64, 41
1, 177345, Note_on_c, 0, 66, 11
1, 177355, Note_on_c, 0, 70, 51
1, 177361, Control_c, 0, 64, 36
1, 177364, Note_on_c, 0, 76, 53
1, 177376, Control_c, 0, 64, 55
1, 177384, Note_off_c, 0, 64, 52
1, 177390, Control_c, 0, 64, 65
1, 177403, Note_off_c, 0, 66, 46
1, 177405, Control_c, 0, 64, 73
1, 177405, Control_c, 0, 67, 21
1, 177416, Note_off_c, 0, 60, 36
1, 177420, Control_c, 0, 64, 81
1, 177420, Control_c, 0, 67, 28
1, 177435, Control_c, 0, 64, 86
1, 177435, Control_c, 0, 67, 36
1, 177450, Control_c, 0, 64, 87
1, 177450, Control_c, 0, 67, 48
1, 177457, Note_off_c, 0, 70, 50
1, 177464, Control_c, 0, 64, 89
1, 177464, Control_c, 0, 67, 61
1, 177472, Note_off_c, 0, 78, 55
1, 177477, Note_off_c, 0, 76, 59
1, 177479, Control_c, 0, 64, 92
1, 177479, Control_c, 0, 67, 75
1, 177493, Note_on_c, 0, 60, 18
1, 177494, Control_c, 0, 64, 96
1, 177494, Control_c, 0, 67, 90
1, 177507, Note_on_c, 0, 64, 43
1, 177508, Control_c, 0, 64, 101
1, 177508, Control_c, 0, 67, 106
1, 177523, Control_c, 0, 64, 107
1, 177523, Control_c, 0, 67, 119
1, 177535, Note_off_c, 0, 64, 61
1, 177538, Control_c, 0, 64, 120
1, 177538, Control_c, 0, 67, 127
1, 177545, Note_off_c, 0, 60, 48
1, 177547, Note_on_c, 0, 66, 25
1, 177553, Control_c, 0, 64, 127
1, 177586, Note_off_c, 0, 66, 40
1, 177738, Control_c, 0, 64, 95
1, 177753, Control_c, 0, 64, 76
1, 177768, Control_c, 0, 64, 62
1, 177772, Note_on_c, 0, 59, 29
1, 177783, Control_c, 0, 64, 35
1, 177797, Control_c, 0, 64, 0
1, 177800, Note_on_c, 0, 63, 29
1, 177817, Note_on_c, 0, 66, 20
1, 177822, Note_on_c, 0, 78, 65
1, 177854, Note_on_c, 0, 75, 34
1, 177856, Note_on_c, 0, 71, 27
1, 177858, Control_c, 0, 64, 46
1, 177873, Control_c, 0, 64, 62
1, 177887, Control_c, 0, 64, 70
1, 177891, Note_off_c, 0, 66, 40
1, 177902, Control_c, 0, 64, 78
1, 177917, Control_c, 0, 64, 84
1, 177926, Note_off_c, 0, 63, 37
1, 177932, Control_c, 0, 64, 86
1, 177937, Note_off_c, 0, 59, 35
1, 177946, Control_c, 0, 64, 91
1, 177961, Control_c, 0, 64, 95
1, 177976, Control_c, 0, 64, 102
1, 177991, Control_c, 0, 64, 110
1, 178003, Note_off_c, 0, 71, 32
1, 178006, Control_c, 0, 64, 127
1, 178057, Note_on_c, 0, 63, 30
1, 178063, Note_on_c, 0, 59, 20
1, 178077, Note_off_c, 0, 78, 38
1, 178079, Note_on_c, 0, 66, 30
1, 178122, Note_off_c, 0, 66, 47
1, 178125, Note_off_c, 0, 75, 40
1, 178126, Note_off_c, 0, 59, 41
1, 178137, Note_off_c, 0, 63, 38
1, 178244, Note_on_c, 0, 59, 25
1, 178255, Note_on_c, 0, 63, 29
1, 178256, Note_on_c, 0, 66, 38
1, 178290, Note_off_c, 0, 66, 51
1, 178295, Note_off_c, 0, 59, 45
1, 178304, Note_off_c, 0, 63, 45
1, 178417, Note_on_c, 0, 66, 42
1, 178423, Note_on_c, 0, 59, 27
1, 178427, Note_on_c, 0, 63, 35
1, 178460, Note_off_c, 0, 66, 50
1, 178481, Note_off_c, 0, 63, 44
1, 178483, Note_off_c, 0, 59, 41
1, 178588, Note_on_c, 0, 59, 22
1, 178605, Note_on_c, 0, 66, 27
1, 178610, Note_on_c, 0, 63, 30
1, 178644, Note_off_c, 0, 66, 50
1, 178659, Note_off_c, 0, 63, 45
1, 178730, Note_off_c, 0, 59, 0
1, 178766, Poly_aftertouch_c, 0, 59, 127
1, 178769, Note_on_c, 0, 59, 3
1, 178783, Note_on_c, 0, 63, 40
1, 178783, Note_on_c, 0, 66, 33
1, 178819, Note_off_c, 0, 66, 51
1, 178830, Note_off_c, 0, 63, 49
1, 178911, Note_off_c, 0, 59, 0
1, 178947, Note_on_c, 0, 59, 3
1, 178963, Note_on_c, 0, 66, 36
1, 178964, Note_on_c, 0, 63, 36
1, 178998, Note_off_c, 0, 66, 51
1, 179006, Note_off_c, 0, 63, 48
1, 179067, Note_off_c, 0, 59, 0
1, 179104, Poly_aftertouch_c, 0, 59, 127
1, 179138, Note_on_c, 0, 66, 31
1, 179145, Note_on_c, 0, 63, 29
1, 179179, Note_off_c, 0, 66, 49
1, 179197, Note_off_c, 0, 63, 49
1, 179304, Poly_aftertouch_c, 0, 59, 0
1, 179341, Poly_aftertouch_c, 0, 59, 127
1, 179358, Note_on_c, 0, 63, 36
1, 179365, Note_on_c, 0, 66, 21
1, 179383, Note_on_c, 0, 78, 52
1, 179412, Note_off_c, 0, 66, 46
1, 179427, Note_off_c, 0, 63, 39
1, 179502, Poly_aftertouch_c, 0, 59, 0
1, 179539, Poly_aftertouch_c, 0, 59, 127
1, 179551, Note_on_c, 0, 63, 36
1, 179556, Note_on_c, 0, 66, 37
1, 179589, Note_off_c, 0, 66, 52
1, 179601, Note_off_c, 0, 63, 45
1, 179667, Poly_aftertouch_c, 0, 59, 0
1, 179704, Poly_aftertouch_c, 0, 59, 127
1, 179715, Note_on_c, 0, 59, 3
1, 179726, Note_on_c, 0, 66, 39
1, 179743, Note_on_c, 0, 63, 36
1, 179763, Note_off_c, 0, 66, 51
1, 179777, Note_off_c, 0, 63, 52
1, 179778, Note_on_c, 0, 76, 58
1, 179798, Note_off_c, 0, 78, 38
1, 179839, Note_off_c, 0, 59, 0
1, 179855, Note_on_c, 0, 75, 62
1, 179860, Note_off_c, 0, 76, 56
1, 179877, Poly_aftertouch_c, 0, 59, 127
1, 179891, Note_on_c, 0, 66, 43
1, 179892, Note_on_c, 0, 63, 49
1, 179926, Note_on_c, 0, 73, 65
1, 179932, Note_off_c, 0, 75, 57
1, 179940, Note_off_c, 0, 63, 60
1, 179940, Note_off_c, 0, 66, 51
1, 179953, Poly_aftertouch_c, 0, 59, 0
1, 179986, Note_off_c, 0, 73, 52
1, 180005, Note_on_c, 0, 71, 53
1, 180059, Control_c, 0, 64, 116
1, 180074, Control_c, 0, 64, 86
1, 180089, Control_c, 0, 64, 68
1, 180097, Note_off_c, 0, 71, 49
1, 180104, Control_c, 0, 64, 51
1, 180108, Note_on_c, 0, 59, 34
1, 180118, Control_c, 0, 64, 0
1, 180126, Note_on_c, 0, 80, 56
1, 180137, Note_on_c, 0, 64, 23
1, 180148, Control_c, 0, 64, 45
1, 180163, Control_c, 0, 64, 57
1, 180165, Poly_aftertouch_c, 0, 68, 127
1, 180178, Control_c, 0, 64, 65
1, 180192, Control_c, 0, 64, 72
1, 180207, Control_c, 0, 64, 80
1, 180209, Poly_aftertouch_c, 0, 68, 0
1, 180210, Note_off_c, 0, 64, 37
1, 180222, Control_c, 0, 64, 88
1, 180238, Control_c, 0, 64, 93
1, 180253, Control_c, 0, 64, 95
1, 180260, Note_off_c, 0, 59, 0
1, 180268, Control_c, 0, 64, 97
1, 180287, Note_on_c, 0, 64, 26
1, 180297, Poly_aftertouch_c, 0, 59, 127
1, 180297, Control_c, 0, 64, 100
1, 180298, Note_on_c, 0, 59, 3
1, 180319, Note_on_c, 0, 68, 36
1, 180327, Control_c, 0, 64, 103
1, 180341, Control_c, 0, 64, 105
1, 180349, Note_off_c, 0, 68, 53
1, 180356, Control_c, 0, 64, 107
1, 180367, Note_off_c, 0, 59, 39
1, 180401, Control_c, 0, 64, 109
1, 180430, Control_c, 0, 64, 111
1, 180435, Note_off_c, 0, 64, 0
1, 180445, Control_c, 0, 64, 113
1, 180456, Note_on_c, 0, 64, 12
1, 180459, Control_c, 0, 64, 115
1, 180462, Note_on_c, 0, 68, 41
1, 180474, Note_on_c, 0, 59, 16
1, 180498, Note_off_c, 0, 68, 50
1, 180533, Note_off_c, 0, 59, 42
1, 180547, Note_off_c, 0, 80, 38
1, 180579, Control_c, 0, 64, 117
1, 180604, Note_off_c, 0, 64, 0
1, 180619, Note_on_c, 0, 64, 24
1, 180626, Note_on_c, 0, 68, 49
1, 180638, Note_on_c, 0, 59, 22
1, 180662, Note_off_c, 0, 68, 60
1, 180687, Note_off_c, 0, 59, 48
1, 180704, Note_off_c, 0, 64, 54
1, 180793, Control_c, 0, 64, 108
1, 180808, Control_c, 0, 64, 92
1, 180820, Note_on_c, 0, 59, 37
1, 180823, Control_c, 0, 64, 75
1, 180837, Note_on_c, 0, 63, 38
1, 180838, Control_c, 0, 64, 61
1, 180841, Note_on_c, 0, 78, 61
1, 180853, Note_on_c, 0, 66, 29
1, 180853, Control_c, 0, 64, 47
1, 180867, Control_c, 0, 64, 48
1, 180878, Note_off_c, 0, 59, 52
1, 180882, Control_c, 0, 64, 55
1, 180891, Note_off_c, 0, 66, 52
1, 180893, Note_off_c, 0, 63, 56
1, 180897, Control_c, 0, 64, 61
1, 180912, Control_c, 0, 64, 66
1, 180927, Control_c, 0, 64, 75
1, 180941, Control_c, 0, 64, 84
1, 180956, Control_c, 0, 64, 91
1, 180971, Control_c, 0, 64, 96
1, 180986, Control_c, 0, 64, 99
1, 181001, Control_c, 0, 64, 102
1, 181005, Note_on_c, 0, 63, 34
1, 181008, Note_on_c, 0, 66, 35
1, 181015, Control_c, 0, 64, 105
1, 181020, Note_on_c, 0, 59, 12
1, 181030, Control_c, 0, 64, 107
1, 181044, Note_off_c, 0, 66, 51
1, 181047, Note_off_c, 0, 78, 32
1, 181056, Note_off_c, 0, 63, 44
1, 181070, Note_off_c, 0, 59, 46
1, 181076, Control_c, 0, 64, 109
1, 181175, Note_on_c, 0, 66, 39
1, 181187, Note_on_c, 0, 63, 36
1, 181190, Note_on_c, 0, 76, 54
1, 181195, Note_on_c, 0, 59, 4
1, 181216, Note_off_c, 0, 66, 47
1, 181230, Note_off_c, 0, 63, 48
1, 181255, Note_off_c, 0, 59, 43
1, 181258, Note_on_c, 0, 75, 63
1, 181277, Note_off_c, 0, 76, 48
1, 181343, Note_on_c, 0, 73, 56
1, 181345, Note_on_c, 0, 66, 40
1, 181351, Note_off_c, 0, 75, 60
1, 181354, Note_on_c, 0, 63, 32
1, 181366, Poly_aftertouch_c, 0, 59, 127
1, 181376, Note_off_c, 0, 73, 65
1, 181383, Note_off_c, 0, 66, 48
1, 181387, Note_off_c, 0, 63, 53
1, 181413, Note_on_c, 0, 71, 55
1, 181437, Poly_aftertouch_c, 0, 59, 0
1, 181497, Control_c, 0, 64, 95
1, 181512, Control_c, 0, 64, 79
1, 181521, Note_off_c, 0, 71, 48
1, 181527, Control_c, 0, 64, 64
1, 181535, Note_on_c, 0, 59, 12
1, 181538, Note_on_c, 0, 73, 49
1, 181542, Control_c, 0, 64, 45
1, 181547, Note_on_c, 0, 66, 35
1, 181557, Control_c, 0, 64, 0
1, 181564, Note_on_c, 0, 64, 29
1, 181565, Note_on_c, 0, 70, 34
1, 181586, Control_c, 0, 64, 36
1, 181595, Note_off_c, 0, 66, 45
1, 181601, Control_c, 0, 64, 48
1, 181616, Note_off_c, 0, 59, 41
1, 181616, Note_off_c, 0, 64, 47
1, 181616, Control_c, 0, 64, 60
1, 181631, Control_c, 0, 64, 67
1, 181646, Control_c, 0, 64, 75
1, 181661, Control_c, 0, 64, 85
1, 181676, Control_c, 0, 64, 92
1, 181690, Control_c, 0, 64, 96
1, 181705, Control_c, 0, 64, 99
1, 181720, Control_c, 0, 64, 102
1, 181732, Note_on_c, 0, 66, 43
1, 181735, Control_c, 0, 64, 106
1, 181744, Note_on_c, 0, 64, 25
1, 181750, Control_c, 0, 64, 109
1, 181751, Note_on_c, 0, 59, 13
1, 181764, Control_c, 0, 64, 112
1, 181765, Note_off_c, 0, 66, 49
1, 181779, Control_c, 0, 64, 118
1, 181788, Note_off_c, 0, 64, 46
1, 181794, Control_c, 0, 64, 127
1, 181818, Note_off_c, 0, 59, 38
1, 181821, Note_off_c, 0, 70, 36
1, 181884, Note_off_c, 0, 73, 35
1, 181899, Note_on_c, 0, 59, 20
1, 181904, Note_on_c, 0, 66, 44
1, 181916, Note_on_c, 0, 64, 42
1, 181935, Note_off_c, 0, 66, 53
1, 181954, Note_off_c, 0, 64, 52
1, 181962, Note_off_c, 0, 59, 42
1, 182073, Note_on_c, 0, 66, 35
1, 182075, Note_on_c, 0, 64, 43
1, 182107, Poly_aftertouch_c, 0, 59, 127
1, 182114, Note_off_c, 0, 66, 48
1, 182115, Note_off_c, 0, 64, 56
1, 182227, Poly_aftertouch_c, 0, 59, 0
1, 182231, Control_c, 0, 64, 94
1, 182246, Control_c, 0, 64, 74
1, 182248, Note_on_c, 0, 59, 11
1, 182261, Control_c, 0, 64, 60
1, 182267, Note_on_c, 0, 75, 53
1, 182270, Note_on_c, 0, 66, 27
1, 182276, Control_c, 0, 64, 47
1, 182278, Note_on_c, 0, 63, 27
1, 182287, Note_on_c, 0, 71, 30
1, 182291, Control_c, 0, 64, 49
1, 182305, Control_c, 0, 64, 56
1, 182311, Note_off_c, 0, 66, 49
1, 182317, Note_off_c, 0, 59, 41
1, 182320, Control_c, 0, 64, 62
1, 182328, Note_off_c, 0, 63, 46
1, 182335, Control_c, 0, 64, 67
1, 182350, Control_c, 0, 64, 73
1, 182365, Control_c, 0, 64, 82
1, 182376, Note_off_c, 0, 75, 59
1, 182379, Control_c, 0, 64, 90
1, 182394, Control_c, 0, 64, 95
1, 182409, Control_c, 0, 64, 98
1, 182424, Control_c, 0, 64, 101
1, 182431, Note_off_c, 0, 71, 37
1, 182434, Note_on_c, 0, 66, 38
1, 182439, Control_c, 0, 64, 105
1, 182448, Note_on_c, 0, 63, 42
1, 182454, Control_c, 0, 64, 109
1, 182468, Control_c, 0, 64, 112
1, 182474, Note_on_c, 0, 59, 3
1, 182477, Note_off_c, 0, 66, 45
1, 182483, Control_c, 0, 64, 117
1, 182493, Note_off_c, 0, 63, 46
1, 182498, Control_c, 0, 64, 127
1, 182519, Note_off_c, 0, 59, 45
1, 182573, Control_c, 0, 64, 99
1, 182587, Control_c, 0, 64, 80
1, 182602, Control_c, 0, 64, 66
1, 182617, Control_c, 0, 64, 53
1, 182623, Note_on_c, 0, 59, 23
1, 182623, Note_on_c, 0, 67, 31
1, 182625, Note_on_c, 0, 64, 36
1, 182632, Control_c, 0, 64, 52
1, 182633, Note_on_c, 0, 76, 58
1, 182641, Note_on_c, 0, 71, 23
1, 182647, Control_c, 0, 64, 57
1, 182661, Note_off_c, 0, 67, 52
1, 182662, Control_c, 0, 64, 61
1, 182666, Note_off_c, 0, 59, 47
1, 182666, Note_off_c, 0, 64, 51
1, 182677, Control_c, 0, 64, 66
1, 182692, Control_c, 0, 64, 72
1, 182707, Control_c, 0, 64, 80
1, 182713, Note_on_c, 0, 78, 60
1, 182722, Control_c, 0, 64, 87
1, 182736, Control_c, 0, 64, 89
1, 182751, Control_c, 0, 64, 91
1, 182753, Note_off_c, 0, 76, 62
1, 182766, Control_c, 0, 64, 93
1, 182775, Note_on_c, 0, 67, 49
1, 182781, Control_c, 0, 64, 96
1, 182789, Note_on_c, 0, 79, 62
1, 182789, Note_off_c, 0, 78, 64
1, 182792, Note_on_c, 0, 64, 48
1, 182796, Control_c, 0, 64, 100
1, 182801, Note_off_c, 0, 71, 41
1, 182804, Note_on_c, 0, 59, 24
1, 182806, Note_off_c, 0, 67, 60
1, 182810, Control_c, 0, 64, 104
1, 182818, Note_off_c, 0, 64, 58
1, 182825, Control_c, 0, 64, 109
1, 182840, Control_c, 0, 64, 113
1, 182851, Note_off_c, 0, 59, 45
1, 182854, Control_c, 0, 64, 115
1, 182856, Note_off_c, 0, 79, 59
1, 182862, Note_on_c, 0, 76, 73
1, 182899, Control_c, 0, 64, 110
1, 182922, Control_c, 0, 64, 88
1, 182936, Control_c, 0, 64, 71
1, 182951, Control_c, 0, 64, 55
1, 182956, Note_off_c, 0, 76, 56
1, 182966, Control_c, 0, 64, 0
1, 182971, Note_on_c, 0, 75, 57
1, 182981, Control_c, 0, 64, 35
1, 182990, Note_on_c, 0, 71, 44
1, 182991, Note_on_c, 0, 59, 32
1, 182996, Control_c, 0, 64, 48
1, 182999, Note_on_c, 0, 66, 38
1, 183000, Note_on_c, 0, 69, 30
1, 183010, Control_c, 0, 64, 58
1, 183025, Control_c, 0, 64, 66
1, 183036, Note_off_c, 0, 59, 46
1, 183037, Note_off_c, 0, 66, 51
1, 183038, Note_off_c, 0, 69, 51
1, 183040, Control_c, 0, 64, 73
1, 183055, Control_c, 0, 64, 81
1, 183064, Note_off_c, 0, 71, 60
1, 183069, Control_c, 0, 64, 87
1, 183072, Note_off_c, 0, 75, 62
1, 183084, Control_c, 0, 64, 89
1, 183099, Control_c, 0, 64, 91
1, 183114, Control_c, 0, 64, 92
1, 183129, Control_c, 0, 64, 94
1, 183143, Control_c, 0, 64, 96
1, 183151, Note_on_c, 0, 66, 56
1, 183173, Control_c, 0, 64, 99
1, 183187, Control_c, 0, 64, 104
1, 183196, Note_off_c, 0, 66, 59
1, 183199, Poly_aftertouch_c, 0, 59, 127
1, 183202, Control_c, 0, 64, 109
1, 183217, Control_c, 0, 64, 114
1, 183231, Poly_aftertouch_c, 0, 69, 0
1, 183289, Poly_aftertouch_c, 0, 59, 0
1, 183291, Control_c, 0, 64, 100
1, 183306, Control_c, 0, 64, 82
1, 183307, Note_on_c, 0, 59, 21
1, 183321, Control_c, 0, 64, 65
1, 183332, Note_on_c, 0, 71, 44
1, 183332, Note_on_c, 0, 76, 63
1, 183336, Note_on_c, 0, 64, 35
1, 183336, Control_c, 0, 64, 53
1, 183339, Note_on_c, 0, 67, 26
1, 183351, Control_c, 0, 64, 52
1, 183363, Note_off_c, 0, 59, 49
1, 183366, Control_c, 0, 64, 57
1, 183369, Note_off_c, 0, 67, 47
1, 183376, Note_off_c, 0, 64, 53
1, 183380, Control_c, 0, 64, 62
1, 183395, Control_c, 0, 64, 68
1, 183407, Note_on_c, 0, 78, 66
1, 183410, Control_c, 0, 64, 76
1, 183425, Control_c, 0, 64, 86
1, 183440, Control_c, 0, 64, 91
1, 183450, Note_off_c, 0, 76, 60
1, 183455, Control_c, 0, 64, 93
1, 183470, Control_c, 0, 64, 94
1, 183472, Note_on_c, 0, 67, 48
1, 183476, Note_off_c, 0, 71, 43
1, 183479, Note_on_c, 0, 59, 24
1, 183484, Note_on_c, 0, 79, 71
1, 183485, Control_c, 0, 64, 95
1, 183490, Note_off_c, 0, 78, 64
1, 183494, Note_on_c, 0, 64, 37
1, 183497, Note_off_c, 0, 67, 57
1, 183500, Control_c, 0, 64, 98
1, 183515, Control_c, 0, 64, 101
1, 183523, Note_off_c, 0, 64, 52
1, 183526, Note_off_c, 0, 59, 45
1, 183530, Control_c, 0, 64, 104
1, 183561, Note_off_c, 0, 79, 54
1, 183562, Note_on_c, 0, 76, 75
1, 183589, Control_c, 0, 64, 100
1, 183604, Control_c, 0, 64, 86
1, 183619, Control_c, 0, 64, 69
1, 183633, Control_c, 0, 64, 52
1, 183648, Control_c, 0, 64, 0
1, 183661, Note_on_c, 0, 75, 60
1, 183665, Note_off_c, 0, 76, 55
1, 183670, Note_on_c, 0, 59, 25
1, 183682, Note_on_c, 0, 66, 38
1, 183684, Note_on_c, 0, 69, 37
1, 183696, Note_on_c, 0, 71, 41
1, 183700, Control_c, 0, 64, 40
1, 183714, Control_c, 0, 64, 54
1, 183726, Note_off_c, 0, 69, 49
1, 183729, Control_c, 0, 64, 64
1, 183732, Note_off_c, 0, 66, 60
1, 183733, Note_off_c, 0, 59, 44
1, 183741, Note_off_c, 0, 71, 64
1, 183744, Control_c, 0, 64, 70
1, 183759, Control_c, 0, 64, 77
1, 183762, Note_off_c, 0, 75, 63
1, 183774, Control_c, 0, 64, 84
1, 183789, Control_c, 0, 64, 88
1, 183804, Control_c, 0, 64, 92
1, 183818, Control_c, 0, 64, 97
1, 183833, Note_on_c, 0, 59, 30
1, 183833, Control_c, 0, 64, 101
1, 183848, Control_c, 0, 64, 104
1, 183851, Note_on_c, 0, 66, 48
1, 183852, Note_on_c, 0, 69, 38
1, 183878, Control_c, 0, 64, 106
1, 183878, Note_off_c, 0, 66, 55
1, 183881, Note_off_c, 0, 69, 55
1, 183892, Control_c, 0, 64, 109
1, 183896, Note_off_c, 0, 59, 38
1, 183907, Control_c, 0, 64, 112
1, 183922, Control_c, 0, 64, 119
1, 183937, Control_c, 0, 64, 122
1, 183952, Control_c, 0, 64, 125
1, 183966, Control_c, 0, 64, 127
1, 184000, Note_on_c, 0, 59, 31
1, 184008, Note_on_c, 0, 69, 33
1, 184010, Note_on_c, 0, 66, 42
1, 184020, Note_on_c, 0, 75, 49
1, 184020, Note_on_c, 0, 81, 65
1, 184046, Note_off_c, 0, 69, 50
1, 184053, Note_off_c, 0, 66, 47
1, 184080, Note_off_c, 0, 75, 54
1, 184101, Note_on_c, 0, 83, 67
1, 184105, Note_off_c, 0, 59, 0
1, 184128, Note_off_c, 0, 81, 58
1, 184139, Note_on_c, 0, 59, 11
1, 184174, Note_on_c, 0, 84, 80
1, 184178, Note_on_c, 0, 66, 51
1, 184189, Note_off_c, 0, 59, 49
1, 184191, Note_off_c, 0, 83, 61
1, 184205, Note_off_c, 0, 66, 58
1, 184212, Poly_aftertouch_c, 0, 69, 127
1, 184249, Poly_aftertouch_c, 0, 69, 0
1, 184257, Note_on_c, 0, 81, 72
1, 184286, Note_off_c, 0, 84, 50
1, 184308, Control_c, 0, 64, 105
1, 184323, Control_c, 0, 64, 81
1, 184337, Control_c, 0, 64, 65
1, 184352, Control_c, 0, 64, 48
1, 184363, Note_on_c, 0, 79, 58
1, 184368, Control_c, 0, 64, 0
1, 184378, Note_off_c, 0, 81, 52
1, 184379, Note_on_c, 0, 76, 39
1, 184381, Note_on_c, 0, 60, 26
1, 184382, Control_c, 0, 64, 39
1, 184390, Note_on_c, 0, 64, 25
1, 184394, Note_on_c, 0, 67, 17
1, 184397, Control_c, 0, 64, 49
1, 184420, Control_c, 0, 64, 59
1, 184431, Note_off_c, 0, 60, 49
1, 184434, Control_c, 0, 64, 65
1, 184439, Note_off_c, 0, 64, 47
1, 184439, Note_off_c, 0, 67, 45
1, 184449, Control_c, 0, 64, 72
1, 184464, Control_c, 0, 64, 79
1, 184470, Note_off_c, 0, 79, 63
1, 184478, Note_off_c, 0, 76, 57
1, 184479, Control_c, 0, 64, 86
1, 184494, Control_c, 0, 64, 91
1, 184508, Control_c, 0, 64, 95
1, 184523, Control_c, 0, 64, 99
1, 184538, Control_c, 0, 64, 106
1, 184553, Control_c, 0, 64, 122
1, 184555, Note_on_c, 0, 67, 35
1, 184564, Note_on_c, 0, 60, 27
1, 184564, Note_on_c, 0, 64, 35
1, 184568, Control_c, 0, 64, 127
1, 184592, Note_off_c, 0, 67, 51
1, 184605, Note_off_c, 0, 60, 54
1, 184606, Note_off_c, 0, 64, 48
1, 184716, Control_c, 0, 64, 103
1, 184731, Control_c, 0, 64, 81
1, 184744, Note_on_c, 0, 79, 54
1, 184746, Control_c, 0, 64, 67
1, 184748, Note_on_c, 0, 67, 25
1, 184752, Note_on_c, 0, 65, 37
1, 184760, Note_on_c, 0, 62, 32
1, 184761, Control_c, 0, 64, 53
1, 184764, Note_on_c, 0, 77, 38
1, 184773, Note_on_c, 0, 71, 33
1, 184776, Control_c, 0, 64, 43
1, 184790, Control_c, 0, 64, 48
1, 184799, Note_off_c, 0, 67, 49
1, 184804, Note_off_c, 0, 62, 55
1, 184805, Control_c, 0, 64, 56
1, 184809, Note_off_c, 0, 65, 43
1, 184820, Control_c, 0, 64, 63
1, 184834, Control_c, 0, 64, 70
1, 184849, Control_c, 0, 64, 78
1, 184864, Control_c, 0, 64, 87
1, 184879, Control_c, 0, 64, 93
1, 184888, Note_off_c, 0, 79, 54
1, 184894, Note_off_c, 0, 71, 38
1, 184894, Control_c, 0, 64, 96
1, 184908, Control_c, 0, 64, 100
1, 184917, Note_off_c, 0, 77, 36
1, 184923, Control_c, 0, 64, 104
1, 184932, Note_on_c, 0, 65, 36
1, 184938, Note_on_c, 0, 67, 23
1, 184938, Control_c, 0, 64, 111
1, 184949, Note_on_c, 0, 62, 21
1, 184952, Control_c, 0, 64, 127
1, 184978, Note_off_c, 0, 67, 52
1, 184979, Note_off_c, 0, 65, 46
1, 184993, Note_off_c, 0, 62, 50
1, 185102, Control_c, 0, 64, 102
1, 185117, Control_c, 0, 64, 80
1, 185131, Control_c, 0, 64, 66
1, 185154, Control_c, 0, 64, 52
1, 185169, Control_c, 0, 64, 40
1, 185178, Note_on_c, 0, 67, 23
1, 185184, Control_c, 0, 64, 45
1, 185186, Note_on_c, 0, 64, 22
1, 185187, Note_on_c, 0, 60, 23
1, 185199, Note_on_c, 0, 79, 45
1, 185199, Control_c, 0, 64, 51
1, 185202, Note_on_c, 0, 76, 41
1, 185213, Control_c, 0, 64, 56
1, 185228, Control_c, 0, 64, 61
1, 185229, Note_on_c, 0, 72, 15
1, 185243, Control_c, 0, 64, 65
1, 185244, Note_off_c, 0, 64, 43
1, 185247, Note_off_c, 0, 67, 43
1, 185250, Note_off_c, 0, 60, 43
1, 185257, Control_c, 0, 64, 72
1, 185272, Control_c, 0, 64, 80
1, 185287, Control_c, 0, 64, 89
1, 185302, Control_c, 0, 64, 95
1, 185317, Control_c, 0, 64, 100
1, 185331, Control_c, 0, 64, 104
1, 185346, Control_c, 0, 64, 109
1, 185361, Control_c, 0, 64, 125
1, 185376, Control_c, 0, 64, 127
1, 185409, Note_on_c, 0, 67, 32
1, 185413, Note_on_c, 0, 60, 34
1, 185416, Note_on_c, 0, 64, 32
1, 185455, Note_off_c, 0, 67, 48
1, 185457, Note_off_c, 0, 64, 47
1, 185463, Note_off_c, 0, 60, 47
1, 185586, Note_on_c, 0, 67, 34
1, 185598, Note_on_c, 0, 64, 35
1, 185599, Note_on_c, 0, 60, 26
1, 185620, Note_off_c, 0, 67, 52
1, 185628, Note_off_c, 0, 72, 37
1, 185635, Note_off_c, 0, 64, 49
1, 185644, Note_off_c, 0, 60, 48
1, 185688, Note_off_c, 0, 76, 34
1, 185697, Note_off_c, 0, 79, 38
1, 185768, Note_on_c, 0, 67, 27
1, 185769, Note_on_c, 0, 64, 41
1, 185780, Note_on_c, 0, 60, 24
1, 185802, Note_off_c, 0, 67, 53
1, 185806, Note_off_c, 0, 64, 51
1, 185828, Note_off_c, 0, 60, 51
1, 185941, Note_on_c, 0, 67, 31
1, 185961, Note_on_c, 0, 64, 37
1, 185962, Note_on_c, 0, 60, 33
1, 185988, Note_off_c, 0, 67, 48
1, 185994, Note_off_c, 0, 64, 55
1, 186001, Note_off_c, 0, 60, 51
1, 186118, Note_on_c, 0, 60, 46
1, 186121, Note_on_c, 0, 67, 38
1, 186122, Note_on_c, 0, 64, 43
1, 186154, Note_off_c, 0, 67, 53
1, 186159, Note_off_c, 0, 64, 54
1, 186165, Note_off_c, 0, 60, 51
1, 186184, Control_c, 0, 67, 118
1, 186198, Control_c, 0, 67, 102
1, 186213, Control_c, 0, 67, 84
1, 186228, Control_c, 0, 67, 68
1, 186243, Control_c, 0, 67, 54
1, 186258, Control_c, 0, 67, 40
1, 186272, Control_c, 0, 67, 29
1, 186287, Note_on_c, 0, 67, 36
1, 186287, Control_c, 0, 67, 0
1, 186299, Note_on_c, 0, 64, 40
1, 186305, Note_on_c, 0, 60, 30
1, 186324, Note_off_c, 0, 67, 50
1, 186335, Note_off_c, 0, 64, 54
1, 186347, Note_off_c, 0, 60, 49
1, 186464, Note_on_c, 0, 64, 35
1, 186469, Note_on_c, 0, 60, 28
1, 186499, Poly_aftertouch_c, 0, 67, 127
1, 186511, Note_off_c, 0, 64, 46
1, 186513, Note_off_c, 0, 60, 49
1, 186537, Poly_aftertouch_c, 0, 67, 0
1, 186673, Note_on_c, 0, 60, 25
1, 186678, Note_on_c, 0, 91, 72
1, 186681, Note_on_c, 0, 67, 27
1, 186686, Note_on_c, 0, 64, 17
1, 186728, Note_off_c, 0, 67, 47
1, 186731, Note_off_c, 0, 64, 46
1, 186734, Note_off_c, 0, 60, 44
1, 186864, Note_on_c, 0, 64, 42
1, 186871, Note_on_c, 0, 67, 34
1, 186875, Note_on_c, 0, 60, 28
1, 186904, Note_off_c, 0, 67, 53
1, 186904, Note_off_c, 0, 64, 54
1, 186916, Note_off_c, 0, 60, 48
1, 187038, Note_on_c, 0, 60, 36
1, 187048, Note_on_c, 0, 64, 33
1, 187052, Note_on_c, 0, 89, 76
1, 187077, Note_off_c, 0, 64, 54
1, 187086, Poly_aftertouch_c, 0, 67, 127
1, 187092, Note_off_c, 0, 60, 44
1, 187098, Note_off_c, 0, 91, 54
1, 187122, Note_on_c, 0, 88, 81
1, 187127, Poly_aftertouch_c, 0, 67, 0
1, 187160, Note_off_c, 0, 89, 60
1, 187185, Note_on_c, 0, 64, 49
1, 187198, Note_on_c, 0, 86, 83
1, 187204, Note_off_c, 0, 88, 66
1, 187210, Poly_aftertouch_c, 0, 60, 127
1, 187222, Note_off_c, 0, 64, 57
1, 187223, Poly_aftertouch_c, 0, 67, 0
1, 187247, Poly_aftertouch_c, 0, 67, 0
1, 187265, Note_on_c, 0, 84, 77
1, 187271, Note_off_c, 0, 86, 60
1, 187289, Poly_aftertouch_c, 0, 60, 0
1, 187318, Control_c, 0, 64, 93
1, 187318, Note_on_c, 0, 60, 10
1, 187333, Control_c, 0, 64, 71
1, 187347, Control_c, 0, 64, 57
1, 187352, Note_on_c, 0, 65, 45
1, 187356, Note_on_c, 0, 69, 36
1, 187362, Control_c, 0, 64, 52
1, 187377, Control_c, 0, 64, 60
1, 187385, Note_on_c, 0, 93, 74
1, 187392, Control_c, 0, 64, 65
1, 187414, Control_c, 0, 64, 75
1, 187418, Note_off_c, 0, 69, 57
1, 187429, Note_off_c, 0, 65, 59
1, 187430, Control_c, 0, 64, 90
1, 187437, Note_off_c, 0, 84, 38
1, 187445, Control_c, 0, 64, 127
1, 187470, Note_on_c, 0, 91, 78
1, 187515, Note_off_c, 0, 93, 57
1, 187536, Note_on_c, 0, 89, 85
1, 187540, Note_on_c, 0, 65, 52
1, 187544, Note_on_c, 0, 69, 48
1, 187578, Note_off_c, 0, 91, 60
1, 187590, Note_off_c, 0, 69, 55
1, 187592, Note_off_c, 0, 65, 55
1, 187613, Note_on_c, 0, 88, 85
1, 187643, Note_off_c, 0, 60, 0
1, 187659, Note_off_c, 0, 89, 62
1, 187680, Poly_aftertouch_c, 0, 60, 127
1, 187688, Note_off_c, 0, 88, 65
1, 187694, Note_on_c, 0, 86, 78
1, 187712, Note_on_c, 0, 69, 44
1, 187714, Note_on_c, 0, 65, 52
1, 187751, Note_off_c, 0, 69, 54
1, 187758, Note_off_c, 0, 65, 60
1, 187768, Note_off_c, 0, 86, 59
1, 187775, Note_on_c, 0, 84, 82
1, 187859, Note_on_c, 0, 83, 78
1, 187870, Note_on_c, 0, 65, 57
1, 187877, Note_on_c, 0, 69, 24
1, 187903, Note_off_c, 0, 84, 56
1, 187919, Note_off_c, 0, 65, 58
1, 187920, Note_off_c, 0, 69, 50
1, 187946, Note_on_c, 0, 81, 77
1, 187976, Poly_aftertouch_c, 0, 60, 0
1, 188006, Note_on_c, 0, 60, 5
1, 188007, Control_c, 0, 64, 103
1, 188013, Note_off_c, 0, 83, 59
1, 188022, Control_c, 0, 64, 75
1, 188034, Note_on_c, 0, 64, 41
1, 188037, Control_c, 0, 64, 57
1, 188052, Control_c, 0, 64, 0
1, 188056, Note_on_c, 0, 67, 38
1, 188062, Note_off_c, 0, 81, 61
1, 188067, Note_on_c, 0, 79, 70
1, 188081, Control_c, 0, 64, 38
1, 188096, Note_off_c, 0, 67, 57
1, 188096, Control_c, 0, 64, 51
1, 188109, Note_off_c, 0, 64, 52
1, 188111, Control_c, 0, 64, 61
1, 188126, Control_c, 0, 64, 69
1, 188148, Control_c, 0, 64, 80
1, 188163, Control_c, 0, 64, 96
1, 188177, Control_c, 0, 64, 118
1, 188186, Note_off_c, 0, 60, 0
1, 188192, Control_c, 0, 64, 127
1, 188207, Note_on_c, 0, 60, 24
1, 188221, Note_on_c, 0, 64, 36
1, 188222, Note_on_c, 0, 67, 45
1, 188256, Note_off_c, 0, 67, 58
1, 188272, Note_off_c, 0, 64, 56
1, 188291, Note_off_c, 0, 60, 39
1, 188389, Note_on_c, 0, 60, 31
1, 188397, Note_on_c, 0, 67, 37
1, 188414, Note_on_c, 0, 64, 39
1, 188429, Note_on_c, 0, 77, 60
1, 188433, Note_off_c, 0, 67, 57
1, 188448, Note_off_c, 0, 64, 53
1, 188458, Note_off_c, 0, 60, 49
1, 188460, Note_off_c, 0, 79, 47
1, 188503, Note_on_c, 0, 76, 73
1, 188520, Note_off_c, 0, 77, 58
1, 188566, Note_on_c, 0, 64, 51
1, 188567, Note_on_c, 0, 60, 28
1, 188570, Note_on_c, 0, 67, 45
1, 188576, Note_on_c, 0, 74, 80
1, 188594, Note_off_c, 0, 64, 59
1, 188597, Note_off_c, 0, 76, 61
1, 188599, Note_off_c, 0, 67, 61
1, 188620, Note_off_c, 0, 60, 45
1, 188648, Note_off_c, 0, 74, 61
1, 188661, Note_on_c, 0, 72, 67
1, 188697, Control_c, 0, 64, 101
1, 188712, Control_c, 0, 64, 76
1, 188726, Control_c, 0, 64, 61
1, 188738, Note_off_c, 0, 72, 61
1, 188741, Control_c, 0, 64, 43
1, 188750, Note_on_c, 0, 74, 74
1, 188756, Control_c, 0, 64, 44
1, 188766, Note_on_c, 0, 60, 12
1, 188770, Note_on_c, 0, 71, 36
1, 188771, Control_c, 0, 64, 53
1, 188774, Note_on_c, 0, 65, 37
1, 188786, Control_c, 0, 64, 59
1, 188792, Note_on_c, 0, 67, 17
1, 188800, Control_c, 0, 64, 67
1, 188803, Note_off_c, 0, 71, 52
1, 188815, Control_c, 0, 64, 76
1, 188816, Note_off_c, 0, 65, 49
1, 188818, Note_off_c, 0, 60, 48
1, 188830, Note_on_c, 0, 76, 74
1, 188830, Control_c, 0, 64, 91
1, 188836, Note_off_c, 0, 67, 44
1, 188845, Control_c, 0, 64, 109
1, 188860, Control_c, 0, 64, 127
1, 188860, Note_off_c, 0, 74, 57
1, 188907, Note_on_c, 0, 77, 71
1, 188925, Note_off_c, 0, 76, 63
1, 188926, Note_on_c, 0, 71, 45
1, 188943, Note_on_c, 0, 65, 54
1, 188948, Note_on_c, 0, 60, 27
1, 188949, Note_on_c, 0, 67, 48
1, 188951, Note_off_c, 0, 77, 60
1, 188954, Note_off_c, 0, 71, 57
1, 188975, Note_off_c, 0, 65, 61
1, 188975, Note_off_c, 0, 67, 61
1, 188985, Note_off_c, 0, 60, 54
1, 188988, Note_on_c, 0, 79, 82
1, 189061, Note_on_c, 0, 81, 93
1, 189077, Note_off_c, 0, 79, 60
1, 189080, Note_on_c, 0, 65, 57
1, 189083, Note_on_c, 0, 67, 47
1, 189090, Note_on_c, 0, 71, 41
1, 189110, Note_on_c, 0, 60, 18
1, 189117, Note_off_c, 0, 71, 56
1, 189137, Note_off_c, 0, 65, 51
1, 189139, Note_off_c, 0, 67, 53
1, 189142, Note_on_c, 0, 83, 87
1, 189153, Note_off_c, 0, 60, 55
1, 189162, Note_off_c, 0, 81, 64
1, 189183, Note_off_c, 0, 83, 66
1, 189212, Note_on_c, 0, 84, 96
1, 189217, Note_on_c, 0, 71, 53
1, 189225, Note_on_c, 0, 65, 55
1, 189240, Note_on_c, 0, 67, 42
1, 189248, Note_off_c, 0, 71, 58
1, 189255, Note_off_c, 0, 65, 63
1, 189273, Note_off_c, 0, 67, 53
1, 189289, Note_on_c, 0, 86, 87
1, 189301, Note_off_c, 0, 84, 64
1, 189369, Note_off_c, 0, 86, 58
1, 189386, Control_c, 0, 64, 83
1, 189401, Note_on_c, 0, 88, 87
1, 189401, Control_c, 0, 64, 62
1, 189402, Note_on_c, 0, 84, 89
1, 189416, Control_c, 0, 64, 47
1, 189419, Note_on_c, 0, 72, 38
1, 189420, Note_on_c, 0, 64, 49
1, 189421, Note_on_c, 0, 67, 45
1, 189423, Poly_aftertouch_c, 0, 60, 127
1, 189430, Control_c, 0, 64, 52
1, 189445, Note_off_c, 0, 72, 56
1, 189445, Control_c, 0, 64, 59
1, 189460, Control_c, 0, 64, 64
1, 189466, Note_off_c, 0, 67, 59
1, 189475, Control_c, 0, 64, 73
1, 189480, Poly_aftertouch_c, 0, 60, 0
1, 189480, Note_off_c, 0, 64, 53
1, 189490, Control_c, 0, 64, 94
1, 189504, Control_c, 0, 64, 127
1, 189513, Note_off_c, 0, 84, 61
1, 189567, Note_on_c, 0, 64, 42
1, 189576, Note_on_c, 0, 67, 50
1, 189584, Note_on_c, 0, 60, 30
1, 189600, Note_off_c, 0, 67, 59
1, 189601, Note_off_c, 0, 64, 58
1, 189622, Note_off_c, 0, 60, 55
1, 189656, Note_off_c, 0, 88, 27
1, 189751, Note_on_c, 0, 60, 44
1, 189759, Note_on_c, 0, 88, 85
1, 189761, Note_on_c, 0, 68, 58
1, 189763, Note_on_c, 0, 64, 48
1, 189764, Control_c, 0, 64, 100
1, 189774, Note_on_c, 0, 86, 78
1, 189779, Control_c, 0, 64, 74
1, 189794, Control_c, 0, 64, 60
1, 189809, Control_c, 0, 64, 57
1, 189813, Note_off_c, 0, 64, 58
1, 189814, Note_off_c, 0, 68, 56
1, 189825, Control_c, 0, 64, 62
1, 189840, Control_c, 0, 64, 67
1, 189854, Control_c, 0, 64, 78
1, 189866, Note_on_c, 0, 84, 88
1, 189869, Control_c, 0, 64, 98
1, 189884, Control_c, 0, 64, 127
1, 189888, Note_off_c, 0, 60, 0
1, 189908, Note_off_c, 0, 86, 62
1, 189909, Note_on_c, 0, 60, 35
1, 189920, Note_on_c, 0, 68, 69
1, 189933, Note_on_c, 0, 64, 54
1, 189933, Note_on_c, 0, 83, 88
1, 189942, Note_off_c, 0, 84, 64
1, 189951, Note_off_c, 0, 68, 60
1, 189959, Note_off_c, 0, 88, 63
1, 189985, Note_off_c, 0, 64, 46
1, 190007, Note_on_c, 0, 86, 95
1, 190029, Note_off_c, 0, 83, 64
1, 190067, Note_off_c, 0, 60, 0
1, 190076, Control_c, 0, 64, 86
1, 190084, Note_on_c, 0, 60, 35
1, 190091, Control_c, 0, 64, 63
1, 190094, Note_on_c, 0, 88, 95
1, 190097, Note_on_c, 0, 69, 48
1, 190106, Control_c, 0, 64, 47
1, 190117, Note_on_c, 0, 64, 37
1, 190120, Control_c, 0, 64, 51
1, 190124, Note_on_c, 0, 84, 76
1, 190135, Control_c, 0, 64, 59
1, 190141, Note_off_c, 0, 86, 59
1, 190150, Control_c, 0, 64, 66
1, 190155, Note_off_c, 0, 69, 50
1, 190165, Control_c, 0, 64, 78
1, 190165, Note_off_c, 0, 64, 50
1, 190180, Control_c, 0, 64, 102
1, 190195, Control_c, 0, 64, 127
1, 190205, Note_off_c, 0, 84, 60
1, 190244, Note_off_c, 0, 60, 0
1, 190252, Note_off_c, 0, 88, 56
1, 190261, Note_on_c, 0, 60, 36
1, 190263, Note_on_c, 0, 69, 58
1, 190274, Note_on_c, 0, 64, 53
1, 190288, Note_off_c, 0, 69, 57
1, 190309, Note_off_c, 0, 64, 58
1, 190310, Note_off_c, 0, 60, 60
1, 190445, Note_on_c, 0, 68, 56
1, 190447, Note_on_c, 0, 64, 46
1, 190448, Note_on_c, 0, 88, 88
1, 190457, Note_on_c, 0, 86, 77
1, 190459, Note_on_c, 0, 60, 40
1, 190493, Note_off_c, 0, 68, 54
1, 190505, Note_off_c, 0, 64, 54
1, 190529, Note_off_c, 0, 60, 37
1, 190537, Note_on_c, 0, 84, 90
1, 190585, Note_off_c, 0, 86, 62
1, 190599, Note_on_c, 0, 60, 40
1, 190604, Note_on_c, 0, 68, 68
1, 190605, Note_off_c, 0, 88, 61
1, 190606, Note_on_c, 0, 83, 87
1, 190620, Note_off_c, 0, 84, 64
1, 190625, Note_on_c, 0, 64, 53
1, 190646, Note_off_c, 0, 68, 51
1, 190676, Note_off_c, 0, 64, 52
1, 190681, Note_on_c, 0, 86, 94
1, 190708, Note_off_c, 0, 83, 64
1, 190749, Note_off_c, 0, 60, 0
1, 190751, Control_c, 0, 64, 81
1, 190766, Control_c, 0, 64, 62
1, 190775, Note_on_c, 0, 60, 20
1, 190780, Note_on_c, 0, 88, 90
1, 190781, Control_c, 0, 64, 33
1, 190785, Note_on_c, 0, 69, 46
1, 190795, Note_on_c, 0, 84, 75
1, 190795, Control_c, 0, 64, 0
1, 190809, Note_on_c, 0, 64, 34
1, 190810, Control_c, 0, 64, 43
1, 190824, Note_off_c, 0, 86, 56
1, 190825, Control_c, 0, 64, 54
1, 190840, Control_c, 0, 64, 63
1, 190855, Note_off_c, 0, 64, 50
1, 190855, Control_c, 0, 64, 73
1, 190860, Note_off_c, 0, 69, 50
1, 190861, Note_off_c, 0, 84, 63
1, 190869, Control_c, 0, 64, 91
1, 190884, Control_c, 0, 64, 127
1, 190890, Note_off_c, 0, 88, 65
1, 190928, Note_off_c, 0, 60, 0
1, 190949, Note_on_c, 0, 60, 28
1, 190954, Note_on_c, 0, 69, 52
1, 190967, Note_on_c, 0, 64, 51
1, 190981, Note_off_c, 0, 69, 62
1, 191000, Note_off_c, 0, 64, 57
1, 191037, Note_off_c, 0, 60, 37
1, 191132, Note_on_c, 0, 88, 75
1, 191145, Note_on_c, 0, 60, 37
1, 191148, Note_on_c, 0, 83, 57
1, 191149, Note_on_c, 0, 67, 53
1, 191150, Note_on_c, 0, 64, 47
1, 191182, Note_off_c, 0, 67, 59
1, 191190, Note_off_c, 0, 60, 53
1, 191202, Note_off_c, 0, 64, 56
1, 191223, Note_on_c, 0, 90, 78
1, 191277, Note_off_c, 0, 83, 60
1, 191285, Note_off_c, 0, 88, 57
1, 191296, Note_on_c, 0, 91, 87
1, 191313, Note_off_c, 0, 90, 64
1, 191314, Note_on_c, 0, 67, 50
1, 191323, Note_on_c, 0, 60, 46
1, 191338, Note_on_c, 0, 64, 38
1, 191338, Note_off_c, 0, 67, 60
1, 191366, Note_off_c, 0, 60, 47
1, 191379, Note_off_c, 0, 64, 46
1, 191388, Note_on_c, 0, 90, 79
1, 191471, Control_c, 0, 64, 101
1, 191486, Control_c, 0, 64, 71
1, 191493, Note_on_c, 0, 88, 74
1, 191500, Control_c, 0, 64, 53
1, 191504, Note_on_c, 0, 60, 35
1, 191504, Note_off_c, 0, 91, 57
1, 191508, Note_on_c, 0, 81, 62
1, 191515, Control_c, 0, 64, 0
1, 191522, Note_on_c, 0, 66, 39
1, 191527, Note_on_c, 0, 64, 32
1, 191530, Control_c, 0, 64, 36
1, 191544, Control_c, 0, 64, 44
1, 191559, Control_c, 0, 64, 53
1, 191568, Note_off_c, 0, 60, 48
1, 191569, Note_off_c, 0, 66, 56
1, 191571, Note_off_c, 0, 64, 50
1, 191574, Control_c, 0, 64, 61
1, 191583, Note_off_c, 0, 90, 35
1, 191589, Control_c, 0, 64, 70
1, 191604, Control_c, 0, 64, 80
1, 191618, Control_c, 0, 64, 91
1, 191620, Note_off_c, 0, 81, 59
1, 191633, Control_c, 0, 64, 98
1, 191638, Note_off_c, 0, 88, 64
1, 191648, Control_c, 0, 64, 104
1, 191663, Control_c, 0, 64, 118
1, 191678, Control_c, 0, 64, 127
1, 191697, Note_on_c, 0, 60, 14
1, 191707, Note_on_c, 0, 66, 28
1, 191711, Note_on_c, 0, 64, 14
1, 191746, Note_off_c, 0, 60, 47
1, 191748, Note_off_c, 0, 66, 41
1, 191751, Note_off_c, 0, 64, 49
1, 191856, Control_c, 0, 64, 87
1, 191871, Control_c, 0, 64, 68
1, 191876, Note_on_c, 0, 60, 31
1, 191880, Note_on_c, 0, 66, 34
1, 191893, Control_c, 0, 64, 56
1, 191903, Note_on_c, 0, 64, 32
1, 191905, Note_on_c, 0, 90, 67
1, 191908, Control_c, 0, 64, 57
1, 191923, Control_c, 0, 64, 62
1, 191935, Note_on_c, 0, 88, 42
1, 191938, Control_c, 0, 64, 66
1, 191948, Note_on_c, 0, 82, 42
1, 191952, Control_c, 0, 64, 75
1, 191954, Note_off_c, 0, 66, 53
1, 191961, Note_off_c, 0, 64, 41
1, 191967, Control_c, 0, 64, 91
1, 191981, Note_off_c, 0, 60, 32
1, 191982, Control_c, 0, 64, 127
1, 192012, Control_c, 0, 67, 24
1, 192026, Control_c, 0, 67, 29
1, 192041, Control_c, 0, 67, 37
1, 192056, Control_c, 0, 67, 50
1, 192059, Note_on_c, 0, 60, 24
1, 192063, Note_off_c, 0, 88, 58
1, 192071, Control_c, 0, 67, 67
1, 192073, Note_off_c, 0, 82, 45
1, 192073, Note_on_c, 0, 64, 32
1, 192082, Note_off_c, 0, 90, 47
1, 192086, Control_c, 0, 67, 82
1, 192100, Control_c, 0, 67, 96
1, 192101, Note_on_c, 0, 66, 26
1, 192109, Note_off_c, 0, 64, 58
1, 192114, Note_off_c, 0, 60, 56
1, 192115, Control_c, 0, 67, 111
1, 192130, Control_c, 0, 67, 127
1, 192145, Note_off_c, 0, 66, 49
1, 192338, Control_c, 0, 64, 93
1, 192341, Note_on_c, 0, 59, 33
1, 192353, Control_c, 0, 64, 71
1, 192368, Control_c, 0, 64, 53
1, 192368, Note_on_c, 0, 66, 30
1, 192380, Note_on_c, 0, 63, 23
1, 192383, Control_c, 0, 64, 0
1, 192383, Note_on_c, 0, 90, 61
1, 192398, Control_c, 0, 64, 40
1, 192402, Note_on_c, 0, 83, 40
1, 192402, Note_on_c, 0, 87, 43
1, 192413, Control_c, 0, 64, 52
1, 192428, Control_c, 0, 64, 61
1, 192442, Control_c, 0, 64, 67
1, 192454, Note_off_c, 0, 66, 53
1, 192457, Control_c, 0, 64, 75
1, 192472, Control_c, 0, 64, 88
1, 192486, Control_c, 0, 64, 106
1, 192490, Note_off_c, 0, 63, 36
1, 192497, Note_off_c, 0, 59, 31
1, 192501, Control_c, 0, 64, 127
1, 192599, Note_on_c, 0, 59, 17
1, 192618, Note_on_c, 0, 63, 27
1, 192631, Note_on_c, 0, 66, 38
1, 192675, Note_off_c, 0, 66, 50
1, 192692, Note_off_c, 0, 63, 41
1, 192694, Note_off_c, 0, 59, 51
1, 192694, Note_off_c, 0, 83, 39
1, 192802, Note_on_c, 0, 59, 18
1, 192813, Note_on_c, 0, 66, 38
1, 192860, Note_off_c, 0, 66, 46
1, 192866, Poly_aftertouch_c, 0, 63, 127
1, 192880, Note_off_c, 0, 59, 38
1, 192922, Poly_aftertouch_c, 0, 63, 0
1, 192963, Note_on_c, 0, 59, 26
1, 192998, Note_on_c, 0, 63, 18
1, 192998, Note_on_c, 0, 66, 40
1, 193031, Note_off_c, 0, 66, 52
1, 193036, Note_off_c, 0, 59, 49
1, 193054, Note_off_c, 0, 63, 44
1, 193148, Note_off_c, 0, 90, 41
1, 193158, Note_on_c, 0, 59, 25
1, 193185, Note_on_c, 0, 66, 24
1, 193195, Note_on_c, 0, 63, 19
1, 193223, Note_off_c, 0, 66, 51
1, 193224, Note_off_c, 0, 59, 45
1, 193238, Note_off_c, 0, 63, 48
1, 193325, Note_off_c, 0, 87, 42
1, 193346, Note_on_c, 0, 66, 31
1, 193367, Note_on_c, 0, 63, 35
1, 193382, Note_on_c, 0, 59, 3
1, 193383, Note_off_c, 0, 66, 50
1, 193415, Note_off_c, 0, 63, 48
1, 193432, Note_off_c, 0, 59, 45
1, 193523, Note_on_c, 0, 59, 23
1, 193528, Note_on_c, 0, 66, 32
1, 193539, Note_on_c, 0, 63, 34
1, 193563, Note_off_c, 0, 59, 49
1, 193566, Note_off_c, 0, 66, 49
1, 193574, Note_off_c, 0, 63, 52
1, 193683, Note_on_c, 0, 59, 37
1, 193690, Note_on_c, 0, 63, 41
1, 193690, Note_on_c, 0, 66, 41
1, 193724, Note_off_c, 0, 66, 52
1, 193732, Note_off_c, 0, 63, 54
1, 193737, Note_off_c, 0, 59, 52
1, 193850, Control_c, 0, 64, 92
1, 193865, Control_c, 0, 64, 71
1, 193880, Control_c, 0, 64, 55
1, 193894, Control_c, 0, 64, 53
1, 193896, Note_on_c, 0, 59, 22
1, 193896, Note_on_c, 0, 63, 24
1, 193896, Note_on_c, 0, 90, 50
1, 193902, Note_on_c, 0, 66, 29
1, 193909, Control_c, 0, 64, 57
1, 193924, Control_c, 0, 64, 60
1, 193939, Control_c, 0, 64, 63
1, 193948, Note_off_c, 0, 66, 58
1, 193954, Control_c, 0, 64, 69
1, 193963, Note_off_c, 0, 63, 47
1, 193969, Control_c, 0, 64, 79
1, 193984, Control_c, 0, 64, 100
1, 193999, Control_c, 0, 64, 127
1, 194018, Note_off_c, 0, 59, 0
1, 194040, Note_on_c, 0, 59, 13
1, 194055, Note_on_c, 0, 63, 31
1, 194077, Note_on_c, 0, 66, 35
1, 194110, Note_off_c, 0, 63, 42
1, 194110, Note_off_c, 0, 66, 45
1, 194198, Note_off_c, 0, 59, 0
1, 194220, Note_on_c, 0, 59, 12
1, 194237, Note_on_c, 0, 66, 40
1, 194241, Note_on_c, 0, 63, 40
1, 194266, Note_off_c, 0, 90, 44
1, 194274, Note_on_c, 0, 88, 58
1, 194278, Note_off_c, 0, 66, 46
1, 194306, Note_off_c, 0, 63, 46
1, 194359, Note_on_c, 0, 87, 63
1, 194368, Note_off_c, 0, 88, 59
1, 194398, Note_on_c, 0, 63, 32
1, 194409, Note_on_c, 0, 66, 39
1, 194424, Note_off_c, 0, 87, 61
1, 194432, Note_on_c, 0, 85, 60
1, 194436, Note_off_c, 0, 66, 58
1, 194464, Note_off_c, 0, 85, 62
1, 194473, Note_off_c, 0, 63, 53
1, 194488, Note_on_c, 0, 83, 67
1, 194524, Control_c, 0, 64, 110
1, 194527, Note_off_c, 0, 59, 0
1, 194538, Control_c, 0, 64, 80
1, 194547, Note_off_c, 0, 83, 59
1, 194553, Control_c, 0, 64, 65
1, 194564, Poly_aftertouch_c, 0, 59, 127
1, 194568, Control_c, 0, 64, 59
1, 194583, Control_c, 0, 64, 62
1, 194585, Note_on_c, 0, 92, 57
1, 194598, Control_c, 0, 64, 65
1, 194610, Note_on_c, 0, 68, 27
1, 194614, Control_c, 0, 64, 69
1, 194621, Note_on_c, 0, 64, 13
1, 194629, Control_c, 0, 64, 78
1, 194643, Control_c, 0, 64, 90
1, 194646, Note_off_c, 0, 68, 45
1, 194658, Control_c, 0, 64, 107
1, 194670, Note_off_c, 0, 64, 48
1, 194673, Control_c, 0, 64, 127
1, 194675, Note_on_c, 0, 90, 53
1, 194697, Poly_aftertouch_c, 0, 59, 0
1, 194711, Note_off_c, 0, 92, 59
1, 194713, Note_off_c, 0, 90, 63
1, 194735, Poly_aftertouch_c, 0, 59, 127
1, 194753, Note_on_c, 0, 68, 43
1, 194756, Note_on_c, 0, 88, 66
1, 194777, Note_on_c, 0, 64, 32
1, 194788, Note_off_c, 0, 68, 50
1, 194799, Note_off_c, 0, 88, 51
1, 194820, Note_off_c, 0, 64, 47
1, 194842, Note_on_c, 0, 87, 62
1, 194934, Note_on_c, 0, 85, 63
1, 194940, Note_on_c, 0, 68, 27
1, 194955, Note_on_c, 0, 64, 37
1, 194966, Note_off_c, 0, 87, 60
1, 194979, Note_off_c, 0, 68, 51
1, 194988, Note_off_c, 0, 64, 52
1, 194988, Note_off_c, 0, 85, 61
1, 195016, Note_on_c, 0, 83, 65
1, 195089, Note_off_c, 0, 83, 35
1, 195092, Note_on_c, 0, 68, 45
1, 195096, Note_on_c, 0, 82, 58
1, 195111, Note_on_c, 0, 64, 36
1, 195116, Note_off_c, 0, 68, 59
1, 195146, Note_off_c, 0, 82, 40
1, 195156, Note_off_c, 0, 64, 44
1, 195167, Note_on_c, 0, 80, 66
1, 195184, Poly_aftertouch_c, 0, 59, 0
1, 195244, Control_c, 0, 64, 103
1, 195259, Control_c, 0, 64, 77
1, 195262, Note_on_c, 0, 59, 22
1, 195271, Note_on_c, 0, 78, 55
1, 195274, Note_off_c, 0, 80, 59
1, 195274, Control_c, 0, 64, 58
1, 195277, Note_on_c, 0, 66, 41
1, 195283, Note_on_c, 0, 63, 39
1, 195288, Control_c, 0, 64, 36
1, 195303, Control_c, 0, 64, 37
1, 195318, Control_c, 0, 64, 45
1, 195326, Note_off_c, 0, 66, 58
1, 195333, Control_c, 0, 64, 51
1, 195337, Note_off_c, 0, 63, 59
1, 195345, Note_off_c, 0, 59, 56
1, 195348, Control_c, 0, 64, 57
1, 195362, Control_c, 0, 64, 63
1, 195377, Control_c, 0, 64, 72
1, 195392, Control_c, 0, 64, 85
1, 195408, Control_c, 0, 64, 100
1, 195423, Control_c, 0, 64, 111
1, 195438, Control_c, 0, 64, 125
1, 195444, Note_on_c, 0, 59, 19
1, 195446, Note_on_c, 0, 66, 47
1, 195453, Control_c, 0, 64, 127
1, 195459, Note_on_c, 0, 63, 42
1, 195479, Note_off_c, 0, 66, 51
1, 195495, Note_off_c, 0, 63, 52
1, 195497, Note_off_c, 0, 59, 45
1, 195568, Note_off_c, 0, 78, 61
1, 195620, Note_on_c, 0, 76, 52
1, 195641, Note_on_c, 0, 63, 42
1, 195655, Note_on_c, 0, 59, 23
1, 195656, Note_on_c, 0, 66, 27
1, 195670, Note_off_c, 0, 76, 57
1, 195691, Note_off_c, 0, 63, 44
1, 195695, Note_off_c, 0, 66, 43
1, 195697, Note_off_c, 0, 59, 48
1, 195711, Note_on_c, 0, 75, 53
1, 195768, Note_on_c, 0, 63, 33
1, 195787, Note_on_c, 0, 73, 62
1, 195794, Note_off_c, 0, 75, 54
1, 195802, Note_off_c, 0, 63, 54
1, 195806, Note_on_c, 0, 66, 32
1, 195828, Note_off_c, 0, 73, 56
1, 195845, Note_off_c, 0, 66, 42
1, 195871, Note_on_c, 0, 71, 59
1, 195889, Control_c, 0, 64, 117
1, 195904, Control_c, 0, 64, 83
1, 195918, Control_c, 0, 64, 68
1, 195923, Note_off_c, 0, 71, 54
1, 195933, Control_c, 0, 64, 60
1, 195946, Note_on_c, 0, 73, 62
1, 195948, Control_c, 0, 64, 61
1, 195954, Note_on_c, 0, 59, 29
1, 195963, Control_c, 0, 64, 64
1, 195966, Note_on_c, 0, 66, 42
1, 195975, Note_on_c, 0, 64, 40
1, 195978, Control_c, 0, 64, 68
1, 195980, Note_on_c, 0, 70, 24
1, 195993, Control_c, 0, 64, 75
1, 196001, Note_off_c, 0, 59, 45
1, 196008, Control_c, 0, 64, 86
1, 196015, Note_off_c, 0, 66, 45
1, 196019, Note_off_c, 0, 64, 46
1, 196022, Note_off_c, 0, 70, 40
1, 196023, Control_c, 0, 64, 96
1, 196037, Control_c, 0, 64, 103
1, 196043, Note_on_c, 0, 75, 58
1, 196044, Note_off_c, 0, 73, 60
1, 196052, Control_c, 0, 64, 107
1, 196064, Note_off_c, 0, 75, 64
1, 196082, Control_c, 0, 64, 110
1, 196097, Control_c, 0, 64, 127
1, 196115, Note_on_c, 0, 76, 71
1, 196130, Note_on_c, 0, 64, 38
1, 196133, Note_on_c, 0, 59, 28
1, 196142, Note_on_c, 0, 70, 19
1, 196149, Note_on_c, 0, 66, 35
1, 196172, Note_off_c, 0, 59, 49
1, 196181, Note_off_c, 0, 66, 53
1, 196182, Note_off_c, 0, 64, 53
1, 196184, Note_off_c, 0, 70, 39
1, 196188, Note_off_c, 0, 76, 58
1, 196195, Note_on_c, 0, 78, 70
1, 196231, Control_c, 0, 67, 98
1, 196246, Control_c, 0, 67, 57
1, 196260, Control_c, 0, 67, 23
1, 196261, Note_on_c, 0, 80, 66
1, 196275, Control_c, 0, 67, 0
1, 196279, Note_on_c, 0, 64, 46
1, 196285, Note_on_c, 0, 66, 51
1, 196290, Note_on_c, 0, 59, 42
1, 196294, Note_on_c, 0, 70, 35
1, 196300, Note_off_c, 0, 78, 50
1, 196325, Note_off_c, 0, 59, 49
1, 196325, Note_off_c, 0, 70, 50
1, 196327, Note_off_c, 0, 66, 50
1, 196342, Note_on_c, 0, 82, 69
1, 196364, Note_off_c, 0, 80, 62
1, 196371, Note_off_c, 0, 82, 66
1, 196386, Note_off_c, 0, 64, 0
1, 196414, Note_on_c, 0, 64, 30
1, 196426, Note_on_c, 0, 70, 53
1, 196434, Note_on_c, 0, 83, 71
1, 196451, Note_off_c, 0, 64, 63
1, 196473, Note_on_c, 0, 66, 24
1, 196476, Note_off_c, 0, 70, 61
1, 196492, Note_off_c, 0, 83, 60
1, 196499, Note_on_c, 0, 85, 64
1, 196509, Note_off_c, 0, 66, 52
1, 196579, Control_c, 0, 64, 113
1, 196594, Control_c, 0, 64, 79
1, 196608, Control_c, 0, 64, 62
1, 196611, Note_off_c, 0, 85, 33
1, 196620, Note_on_c, 0, 87, 65
1, 196623, Control_c, 0, 64, 49
1, 196629, Note_on_c, 0, 83, 55
1, 196632, Note_on_c, 0, 59, 35
1, 196638, Note_on_c, 0, 66, 42
1, 196638, Control_c, 0, 64, 53
1, 196640, Note_on_c, 0, 63, 47
1, 196643, Note_on_c, 0, 71, 6
1, 196653, Control_c, 0, 64, 58
1, 196665, Note_off_c, 0, 59, 51
1, 196667, Control_c, 0, 64, 62
1, 196678, Note_off_c, 0, 71, 42
1, 196681, Note_off_c, 0, 66, 59
1, 196682, Control_c, 0, 64, 68
1, 196696, Note_off_c, 0, 63, 55
1, 196697, Control_c, 0, 64, 79
1, 196700, Note_off_c, 0, 83, 62
1, 196712, Control_c, 0, 64, 101
1, 196725, Note_off_c, 0, 87, 63
1, 196727, Control_c, 0, 64, 127
1, 196786, Note_on_c, 0, 66, 59
1, 196794, Note_on_c, 0, 63, 41
1, 196795, Note_on_c, 0, 59, 33
1, 196827, Note_off_c, 0, 66, 60
1, 196830, Note_off_c, 0, 63, 58
1, 196831, Note_off_c, 0, 59, 52
1, 196953, Note_on_c, 0, 59, 45
1, 196964, Control_c, 0, 64, 78
1, 196971, Note_on_c, 0, 88, 71
1, 196976, Note_on_c, 0, 64, 48
1, 196976, Note_on_c, 0, 67, 47
1, 196979, Control_c, 0, 64, 63
1, 196991, Note_on_c, 0, 83, 45
1, 196993, Control_c, 0, 64, 50
1, 197009, Control_c, 0, 64, 53
1, 197015, Note_off_c, 0, 67, 51
1, 197023, Note_off_c, 0, 64, 59
1, 197024, Control_c, 0, 64, 59
1, 197025, Note_off_c, 0, 59, 49
1, 197039, Control_c, 0, 64, 63
1, 197048, Note_on_c, 0, 90, 70
1, 197054, Control_c, 0, 64, 67
1, 197069, Control_c, 0, 64, 76
1, 197083, Control_c, 0, 64, 91
1, 197095, Note_off_c, 0, 88, 60
1, 197098, Control_c, 0, 64, 113
1, 197113, Control_c, 0, 64, 127
1, 197117, Note_off_c, 0, 83, 54
1, 197123, Note_on_c, 0, 91, 77
1, 197134, Note_on_c, 0, 67, 49
1, 197142, Note_off_c, 0, 90, 64
1, 197143, Note_on_c, 0, 64, 50
1, 197145, Note_on_c, 0, 59, 36
1, 197167, Note_off_c, 0, 67, 49
1, 197172, Note_off_c, 0, 64, 57
1, 197200, Note_off_c, 0, 59, 41
1, 197205, Note_on_c, 0, 88, 80
1, 197269, Control_c, 0, 64, 81
1, 197283, Control_c, 0, 64, 64
1, 197298, Control_c, 0, 64, 48
1, 197299, Note_off_c, 0, 91, 27
1, 197301, Note_on_c, 0, 87, 73
1, 197303, Note_on_c, 0, 69, 43
1, 197304, Note_on_c, 0, 59, 41
1, 197313, Control_c, 0, 64, 47
1, 197317, Note_on_c, 0, 66, 51
1, 197319, Note_on_c, 0, 83, 63
1, 197328, Control_c, 0, 64, 54
1, 197343, Control_c, 0, 64, 59
1, 197355, Note_off_c, 0, 69, 52
1, 197356, Note_off_c, 0, 88, 51
1, 197357, Note_off_c, 0, 59, 55
1, 197357, Control_c, 0, 64, 64
1, 197361, Note_off_c, 0, 83, 56
1, 197365, Note_off_c, 0, 66, 59
1, 197372, Control_c, 0, 64, 74
1, 197387, Control_c, 0, 64, 93
1, 197402, Control_c, 0, 64, 127
1, 197405, Note_off_c, 0, 87, 64
1, 197471, Note_on_c, 0, 69, 50
1, 197480, Note_on_c, 0, 66, 54
1, 197484, Note_on_c, 0, 59, 32
1, 197492, Note_off_c, 0, 69, 61
1, 197505, Note_off_c, 0, 66, 59
1, 197516, Note_off_c, 0, 59, 53
1, 197626, Note_on_c, 0, 59, 43
1, 197649, Note_on_c, 0, 67, 45
1, 197653, Note_on_c, 0, 64, 47
1, 197655, Note_on_c, 0, 88, 73
1, 197666, Note_on_c, 0, 83, 48
1, 197686, Note_off_c, 0, 67, 52
1, 197692, Note_off_c, 0, 59, 55
1, 197701, Note_off_c, 0, 64, 58
1, 197731, Note_on_c, 0, 90, 79
1, 197795, Note_off_c, 0, 88, 62
1, 197801, Note_on_c, 0, 67, 51
1, 197806, Note_on_c, 0, 91, 85
1, 197810, Note_off_c, 0, 83, 40
1, 197812, Note_on_c, 0, 64, 52
1, 197820, Note_on_c, 0, 59, 38
1, 197826, Note_off_c, 0, 67, 61
1, 197829, Note_off_c, 0, 90, 65
1, 197844, Note_off_c, 0, 64, 53
1, 197857, Note_off_c, 0, 59, 49
1, 197895, Note_on_c, 0, 88, 89
1, 197943, Control_c, 0, 64, 101
1, 197958, Control_c, 0, 64, 74
1, 197973, Control_c, 0, 64, 53
1, 197981, Note_on_c, 0, 59, 46
1, 197987, Control_c, 0, 64, 0
1, 197993, Note_on_c, 0, 87, 84
1, 197999, Note_on_c, 0, 69, 44
1, 197999, Note_on_c, 0, 66, 54
1, 198002, Control_c, 0, 64, 34
1, 198010, Note_on_c, 0, 83, 67
1, 198017, Control_c, 0, 64, 48
1, 198032, Control_c, 0, 64, 57
1, 198035, Note_off_c, 0, 91, 31
1, 198047, Control_c, 0, 64, 65
1, 198051, Note_off_c, 0, 83, 60
1, 198054, Note_off_c, 0, 88, 63
1, 198057, Note_off_c, 0, 59, 52
1, 198059, Note_off_c, 0, 69, 58
1, 198062, Control_c, 0, 64, 76
1, 198076, Control_c, 0, 64, 102
1, 198079, Note_off_c, 0, 66, 61
1, 198087, Note_off_c, 0, 87, 65
1, 198091, Control_c, 0, 64, 127
1, 198154, Note_on_c, 0, 66, 63
1, 198163, Note_on_c, 0, 69, 60
1, 198164, Note_on_c, 0, 59, 50
1, 198182, Note_off_c, 0, 69, 63
1, 198195, Note_off_c, 0, 66, 58
1, 198196, Note_off_c, 0, 59, 58
1, 198222, Note_on_c, 0, 92, 6
1, 198264, Note_off_c, 0, 92, 42
1, 198306, Note_on_c, 0, 59, 53
1, 198321, Note_on_c, 0, 93, 75
1, 198324, Note_on_c, 0, 66, 65
1, 198324, Note_on_c, 0, 87, 73
1, 198325, Note_on_c, 0, 69, 46
1, 198357, Note_off_c, 0, 69, 55
1, 198372, Note_off_c, 0, 66, 49
1, 198397, Note_off_c, 0, 87, 61
1, 198404, Note_on_c, 0, 95, 82
1, 198448, Note_off_c, 0, 93, 64
1, 198464, Note_on_c, 0, 69, 44
1, 198472, Note_on_c, 0, 66, 62
1, 198479, Note_on_c, 0, 96, 93
1, 198492, Note_off_c, 0, 69, 54
1, 198511, Note_off_c, 0, 95, 63
1, 198515, Note_off_c, 0, 59, 38
1, 198516, Note_off_c, 0, 66, 58
1, 198565, Note_on_c, 0, 93, 88
1, 198637, Note_off_c, 0, 96, 63
1, 198648, Control_c, 0, 64, 93
1, 198662, Control_c, 0, 64, 68
1, 198677, Control_c, 0, 64, 50
1, 198683, Note_on_c, 0, 91, 86
1, 198689, Note_on_c, 0, 60, 48
1, 198692, Control_c, 0, 64, 36
1, 198699, Note_on_c, 0, 67, 37
1, 198701, Note_on_c, 0, 64, 37
1, 198707, Control_c, 0, 64, 46
1, 198709, Note_on_c, 0, 88, 65
1, 198722, Control_c, 0, 64, 55
1, 198736, Control_c, 0, 64, 61
1, 198745, Note_off_c, 0, 60, 57
1, 198751, Control_c, 0, 64, 67
1, 198754, Note_off_c, 0, 67, 49
1, 198762, Note_off_c, 0, 64, 57
1, 198766, Control_c, 0, 64, 81
1, 198768, Note_off_c, 0, 93, 64
1, 198781, Control_c, 0, 64, 105
1, 198796, Control_c, 0, 64, 127
1, 198807, Note_off_c, 0, 91, 64
1, 198809, Note_off_c, 0, 88, 64
1, 198868, Note_on_c, 0, 64, 45
1, 198869, Note_on_c, 0, 60, 56
1, 198873, Note_on_c, 0, 67, 49
1, 198917, Note_off_c, 0, 60, 51
1, 198918, Note_off_c, 0, 67, 50
1, 198929, Note_off_c, 0, 64, 40
1, 199060, Note_on_c, 0, 67, 49
1, 199060, Note_on_c, 0, 91, 89
1, 199062, Control_c, 0, 64, 88
1, 199070, Note_on_c, 0, 89, 87
1, 199073, Note_on_c, 0, 83, 69
1, 199077, Control_c, 0, 64, 66
1, 199089, Note_on_c, 0, 62, 45
1, 199092, Control_c, 0, 64, 48
1, 199100, Note_on_c, 0, 65, 35
1, 199107, Control_c, 0, 64, 44
1, 199116, Note_off_c, 0, 67, 54
1, 199122, Control_c, 0, 64, 54
1, 199136, Note_off_c, 0, 62, 59
1, 199136, Control_c, 0, 64, 61
1, 199137, Note_off_c, 0, 65, 53
1, 199151, Control_c, 0, 64, 68
1, 199166, Control_c, 0, 64, 83
1, 199180, Control_c, 0, 64, 118
1, 199195, Control_c, 0, 64, 127
1, 199223, Note_off_c, 0, 83, 60
1, 199249, Note_on_c, 0, 62, 47
1, 199254, Note_on_c, 0, 65, 41
1, 199275, Note_off_c, 0, 89, 57
1, 199290, Poly_aftertouch_c, 0, 67, 127
1, 199296, Note_off_c, 0, 91, 52
1, 199299, Note_off_c, 0, 65, 48
1, 199317, Note_off_c, 0, 62, 44
1, 199329, Poly_aftertouch_c, 0, 67, 0
1, 199471, Control_c, 0, 64, 100
1, 199479, Note_on_c, 0, 60, 40
1, 199483, Note_on_c, 0, 67, 42
1, 199485, Control_c, 0, 64, 75
1, 199498, Note_on_c, 0, 64, 31
1, 199500, Control_c, 0, 64, 59
1, 199515, Control_c, 0, 64, 44
1, 199530, Note_on_c, 0, 91, 87
1, 199530, Control_c, 0, 64, 51
1, 199545, Control_c, 0, 64, 59
1, 199550, Note_on_c, 0, 88, 65
1, 199551, Note_on_c, 0, 84, 62
1, 199559, Control_c, 0, 64, 67
1, 199574, Control_c, 0, 64, 79
1, 199580, Note_off_c, 0, 88, 65
1, 199586, Note_off_c, 0, 67, 61
1, 199589, Note_off_c, 0, 84, 58
1, 199589, Control_c, 0, 64, 111
1, 199591, Note_off_c, 0, 91, 64
1, 199604, Control_c, 0, 64, 127
1, 199638, Note_off_c, 0, 60, 37
1, 199672, Note_off_c, 0, 64, 40
1, 199826, Note_on_c, 0, 79, 51
1, 199849, Note_on_c, 0, 72, 24
1, 199852, Note_on_c, 0, 76, 30
1, 199884, Note_off_c, 0, 79, 52
1, 199893, Note_off_c, 0, 72, 46
1, 199897, Note_off_c, 0, 76, 47
1, 200034, Note_on_c, 0, 76, 49
1, 200035, Note_on_c, 0, 72, 42
1, 200038, Note_on_c, 0, 79, 45
1, 200072, Note_off_c, 0, 72, 53
1, 200074, Note_off_c, 0, 79, 54
1, 200080, Note_off_c, 0, 76, 56
1, 200216, Note_on_c, 0, 79, 53
1, 200221, Note_on_c, 0, 72, 48
1, 200224, Note_on_c, 0, 76, 48
1, 200259, Note_off_c, 0, 79, 58
1, 200261, Note_off_c, 0, 72, 56
1, 200267, Note_off_c, 0, 76, 55
1, 200385, Note_on_c, 0, 79, 66
1, 200390, Note_on_c, 0, 72, 52
1, 200390, Note_on_c, 0, 76, 57
1, 200428, Note_off_c, 0, 72, 55
1, 200431, Note_off_c, 0, 79, 53
1, 200432, Note_off_c, 0, 76, 57
1, 200545, Note_on_c, 0, 79, 81
1, 200552, Note_on_c, 0, 72, 67
1, 200554, Note_on_c, 0, 76, 69
1, 200601, Note_off_c, 0, 72, 46
1, 200610, Note_off_c, 0, 79, 61
1, 200614, Note_off_c, 0, 76, 57
1, 200718, Note_on_c, 0, 79, 86
1, 200723, Note_on_c, 0, 72, 76
1, 200728, Note_on_c, 0, 76, 73
1, 200778, Note_off_c, 0, 72, 46
1, 200788, Note_off_c, 0, 76, 56
1, 200788, Note_off_c, 0, 79, 60
1, 200893, Note_on_c, 0, 79, 88
1, 200896, Note_on_c, 0, 72, 79
1, 200901, Note_on_c, 0, 76, 79
1, 200959, Note_off_c, 0, 72, 47
1, 200977, Note_off_c, 0, 79, 54
1, 200988, Note_off_c, 0, 76, 52
1, 201087, Control_c, 0, 64, 103
1, 201091, Note_on_c, 0, 79, 78
1, 201095, Note_on_c, 0, 72, 70
1, 201100, Note_on_c, 0, 60, 95
1, 201102, Control_c, 0, 64, 73
1, 201109, Note_on_c, 0, 76, 68
1, 201117, Control_c, 0, 64, 52
1, 201131, Control_c, 0, 64, 0
1, 201149, Note_off_c, 0, 76, 57
1, 201161, Control_c, 0, 64, 49
1, 201163, Note_off_c, 0, 72, 50
1, 201166, Note_off_c, 0, 79, 56
1, 201176, Control_c, 0, 64, 59
1, 201191, Control_c, 0, 64, 68
1, 201205, Control_c, 0, 64, 81
1, 201220, Control_c, 0, 64, 106
1, 201235, Control_c, 0, 64, 127
1, 201268, Note_on_c, 0, 79, 75
1, 201277, Note_on_c, 0, 72, 63
1, 201279, Note_on_c, 0, 76, 61
1, 201311, Note_off_c, 0, 72, 59
1, 201315, Note_off_c, 0, 76, 61
1, 201329, Note_off_c, 0, 79, 53
1, 201442, Note_off_c, 0, 60, 60
1, 201455, Note_on_c, 0, 79, 74
1, 201463, Note_on_c, 0, 72, 63
1, 201465, Note_on_c, 0, 59, 71
1, 201466, Note_on_c, 0, 76, 65
1, 201499, Note_off_c, 0, 76, 61
1, 201499, Note_off_c, 0, 72, 58
1, 201525, Note_off_c, 0, 79, 58
1, 201557, Note_off_c, 0, 59, 63
1, 201559, Note_on_c, 0, 57, 77
1, 201605, Note_on_c, 0, 79, 65
1, 201612, Note_on_c, 0, 72, 60
1, 201612, Note_on_c, 0, 76, 54
1, 201640, Note_off_c, 0, 72, 64
1, 201640, Note_off_c, 0, 79, 65
1, 201646, Note_on_c, 0, 55, 77
1, 201647, Note_off_c, 0, 76, 54
1, 201664, Note_off_c, 0, 57, 64
1, 201701, Note_on_c, 0, 53, 78
1, 201749, Note_off_c, 0, 55, 62
1, 201808, Poly_aftertouch_c, 0, 76, 127
1, 201809, Note_on_c, 0, 80, 80
1, 201813, Note_on_c, 0, 52, 98
1, 201816, Note_on_c, 0, 74, 79
1, 201850, Control_c, 0, 64, 116
1, 201865, Control_c, 0, 64, 75
1, 201880, Control_c, 0, 64, 58
1, 201895, Control_c, 0, 64, 0
1, 201909, Note_off_c, 0, 53, 61
1, 201911, Note_off_c, 0, 74, 55
1, 201915, Poly_aftertouch_c, 0, 76, 0
1, 201916, Note_off_c, 0, 80, 55
1, 201997, Note_on_c, 0, 74, 77
1, 201998, Control_c, 0, 64, 48
1, 202002, Note_on_c, 0, 80, 73
1, 202010, Note_on_c, 0, 76, 67
1, 202013, Control_c, 0, 64, 62
1, 202028, Control_c, 0, 64, 71
1, 202043, Control_c, 0, 64, 80
1, 202058, Control_c, 0, 64, 99
1, 202072, Control_c, 0, 64, 127
1, 202087, Note_off_c, 0, 76, 32
1, 202095, Note_off_c, 0, 80, 51
1, 202112, Note_off_c, 0, 74, 35
1, 202139, Note_off_c, 0, 52, 65
1, 202169, Note_on_c, 0, 74, 85
1, 202174, Note_on_c, 0, 80, 81
1, 202181, Note_on_c, 0, 76, 68
1, 202260, Note_off_c, 0, 74, 60
1, 202266, Note_off_c, 0, 80, 61
1, 202271, Note_off_c, 0, 76, 60
1, 202322, Note_on_c, 0, 74, 79
1, 202326, Note_on_c, 0, 80, 75
1, 202333, Note_on_c, 0, 76, 64
1, 202425, Note_off_c, 0, 74, 60
1, 202426, Note_off_c, 0, 76, 58
1, 202429, Note_off_c, 0, 80, 60
1, 202515, Note_on_c, 0, 52, 92
1, 202522, Note_on_c, 0, 81, 90
1, 202523, Note_on_c, 0, 72, 80
1, 202533, Note_on_c, 0, 76, 77
1, 202540, Control_c, 0, 64, 103
1, 202554, Control_c, 0, 64, 69
1, 202569, Control_c, 0, 64, 47
1, 202584, Control_c, 0, 64, 0
1, 202600, Control_c, 0, 64, 48
1, 202615, Control_c, 0, 64, 62
1, 202623, Note_off_c, 0, 81, 58
1, 202629, Control_c, 0, 64, 72
1, 202633, Note_off_c, 0, 72, 60
1, 202634, Note_off_c, 0, 76, 60
1, 202644, Control_c, 0, 64, 90
1, 202659, Control_c, 0, 64, 127
1, 202694, Note_on_c, 0, 72, 78
1, 202696, Note_on_c, 0, 81, 95
1, 202702, Note_on_c, 0, 76, 77
1, 202786, Note_off_c, 0, 81, 57
1, 202789, Note_off_c, 0, 72, 57
1, 202795, Note_off_c, 0, 76, 59
1, 202854, Note_off_c, 0, 52, 60
1, 202865, Note_on_c, 0, 81, 101
1, 202866, Note_on_c, 0, 72, 89
1, 202870, Note_on_c, 0, 50, 83
1, 202875, Note_on_c, 0, 76, 82
1, 202946, Note_off_c, 0, 76, 56
1, 202951, Note_off_c, 0, 81, 59
1, 202956, Note_off_c, 0, 72, 59
1, 202959, Note_on_c, 0, 48, 87
1, 202968, Note_off_c, 0, 50, 62
1, 203024, Note_on_c, 0, 72, 88
1, 203025, Note_on_c, 0, 81, 100
1, 203035, Note_on_c, 0, 76, 82
1, 203051, Note_on_c, 0, 47, 89
1, 203076, Note_off_c, 0, 48, 62
1, 203085, Note_off_c, 0, 76, 59
1, 203109, Note_on_c, 0, 45, 82
1, 203130, Note_off_c, 0, 72, 55
1, 203151, Note_off_c, 0, 81, 61
1, 203171, Note_off_c, 0, 47, 63
1, 203217, Note_on_c, 0, 74, 94
1, 203219, Note_on_c, 0, 83, 93
1, 203221, Note_on_c, 0, 43, 98
1, 203224, Note_on_c, 0, 77, 83
1, 203302, Control_c, 0, 64, 95
1, 203317, Control_c, 0, 64, 70
1, 203318, Note_off_c, 0, 77, 57
1, 203319, Note_off_c, 0, 45, 64
1, 203332, Control_c, 0, 64, 45
1, 203337, Note_off_c, 0, 83, 61
1, 203347, Note_off_c, 0, 74, 58
1, 203347, Control_c, 0, 64, 0
1, 203410, Note_on_c, 0, 74, 88
1, 203411, Note_on_c, 0, 83, 93
1, 203415, Note_on_c, 0, 77, 80
1, 203466, Control_c, 0, 64, 55
1, 203481, Control_c, 0, 64, 68
1, 203484, Note_off_c, 0, 77, 55
1, 203496, Control_c, 0, 64, 81
1, 203504, Note_off_c, 0, 83, 60
1, 203511, Control_c, 0, 64, 119
1, 203525, Control_c, 0, 64, 127
1, 203526, Note_off_c, 0, 74, 58
1, 203582, Note_on_c, 0, 74, 88
1, 203582, Note_off_c, 0, 43, 63
1, 203586, Note_on_c, 0, 83, 96
1, 203588, Note_on_c, 0, 77, 81
1, 203666, Note_off_c, 0, 74, 59
1, 203670, Note_off_c, 0, 83, 61
1, 203673, Note_off_c, 0, 77, 60
1, 203740, Note_on_c, 0, 83, 98
1, 203746, Note_on_c, 0, 74, 94
1, 203747, Note_on_c, 0, 77, 75
1, 203770, Note_off_c, 0, 77, 67
1, 203843, Note_off_c, 0, 74, 49
1, 203862, Note_off_c, 0, 83, 54
1, 203918, Control_c, 0, 64, 89
1, 203932, Note_on_c, 0, 83, 87
1, 203932, Control_c, 0, 64, 65
1, 203936, Note_on_c, 0, 74, 93
1, 203946, Note_on_c, 0, 78, 74
1, 203947, Control_c, 0, 64, 37
1, 203950, Note_on_c, 0, 42, 107
1, 203962, Control_c, 0, 64, 44
1, 203976, Control_c, 0, 64, 60
1, 203991, Control_c, 0, 64, 71
1, 204006, Control_c, 0, 64, 90
1, 204021, Control_c, 0, 64, 127
1, 204035, Note_off_c, 0, 74, 57
1, 204043, Note_off_c, 0, 78, 52
1, 204044, Note_off_c, 0, 83, 61
1, 204044, Note_off_c, 0, 42, 54
1, 204106, Note_on_c, 0, 83, 91
1, 204110, Note_on_c, 0, 74, 96
1, 204149, Note_off_c, 0, 74, 57
1, 204191, Note_off_c, 0, 83, 62
1, 204274, Control_c, 0, 64, 100
1, 204282, Note_on_c, 0, 43, 100
1, 204282, Note_on_c, 0, 73, 105
1, 204283, Note_on_c, 0, 76, 95
1, 204287, Note_on_c, 0, 83, 94
1, 204289, Control_c, 0, 64, 65
1, 204304, Control_c, 0, 64, 0
1, 204327, Note_on_c, 0, 82, 47
1, 204333, Control_c, 0, 64, 58
1, 204348, Note_off_c, 0, 83, 62
1, 204348, Control_c, 0, 64, 77
1, 204360, Note_off_c, 0, 73, 57
1, 204361, Note_off_c, 0, 82, 60
1, 204362, Note_on_c, 0, 45, 94
1, 204363, Control_c, 0, 64, 127
1, 204383, Note_off_c, 0, 43, 61
1, 204408, Note_off_c, 0, 76, 56
1, 204456, Note_on_c, 0, 47, 87
1, 204458, Note_on_c, 0, 73, 89
1, 204459, Note_on_c, 0, 83, 84
1, 204459, Note_off_c, 0, 45, 60
1, 204486, Note_on_c, 0, 76, 43
1, 204515, Note_off_c, 0, 76, 51
1, 204530, Note_off_c, 0, 73, 61
1, 204535, Note_off_c, 0, 47, 65
1, 204537, Note_on_c, 0, 43, 77
1, 204558, Note_off_c, 0, 83, 54
1, 204637, Note_on_c, 0, 42, 83
1, 204637, Control_c, 0, 64, 96
1, 204652, Note_off_c, 0, 43, 53
1, 204652, Control_c, 0, 64, 61
1, 204658, Note_on_c, 0, 74, 107
1, 204661, Note_on_c, 0, 83, 100
1, 204667, Control_c, 0, 64, 0
1, 204668, Note_on_c, 0, 78, 82
1, 204712, Control_c, 0, 64, 54
1, 204726, Control_c, 0, 64, 69
1, 204741, Control_c, 0, 64, 96
1, 204751, Note_off_c, 0, 78, 60
1, 204753, Note_off_c, 0, 74, 59
1, 204756, Note_off_c, 0, 83, 59
1, 204756, Control_c, 0, 64, 127
1, 204823, Note_on_c, 0, 74, 90
1, 204825, Note_on_c, 0, 83, 94
1, 204835, Note_on_c, 0, 78, 73
1, 204879, Note_off_c, 0, 42, 38
1, 204886, Note_off_c, 0, 78, 43
1, 204888, Note_off_c, 0, 74, 46
1, 204912, Note_off_c, 0, 83, 57
1, 204987, Note_on_c, 0, 43, 99
1, 204992, Note_on_c, 0, 73, 105
1, 204993, Note_on_c, 0, 76, 93
1, 204993, Control_c, 0, 64, 120
1, 204995, Note_on_c, 0, 83, 103
1, 205009, Control_c, 0, 64, 68
1, 205023, Control_c, 0, 64, 0
1, 205053, Control_c, 0, 64, 47
1, 205067, Note_on_c, 0, 45, 92
1, 205068, Note_off_c, 0, 83, 62
1, 205068, Control_c, 0, 64, 65
1, 205078, Note_off_c, 0, 73, 59
1, 205083, Control_c, 0, 64, 88
1, 205084, Note_off_c, 0, 43, 64
1, 205097, Control_c, 0, 64, 127
1, 205102, Note_off_c, 0, 76, 57
1, 205148, Note_on_c, 0, 47, 88
1, 205151, Note_on_c, 0, 73, 89
1, 205152, Note_off_c, 0, 45, 64
1, 205153, Note_on_c, 0, 76, 65
1, 205154, Note_on_c, 0, 83, 89
1, 205211, Note_off_c, 0, 76, 63
1, 205222, Note_on_c, 0, 43, 83
1, 205233, Note_off_c, 0, 47, 64
1, 205237, Note_off_c, 0, 73, 63
1, 205260, Note_off_c, 0, 83, 59
1, 205320, Control_c, 0, 64, 113
1, 205326, Note_on_c, 0, 42, 86
1, 205335, Control_c, 0, 64, 67
1, 205338, Note_on_c, 0, 74, 98
1, 205342, Note_on_c, 0, 83, 94
1, 205348, Note_on_c, 0, 78, 82
1, 205349, Note_off_c, 0, 43, 60
1, 205349, Control_c, 0, 64, 0
1, 205386, Control_c, 0, 64, 47
1, 205399, Note_off_c, 0, 42, 66
1, 205401, Control_c, 0, 64, 65
1, 205416, Control_c, 0, 64, 83
1, 205430, Control_c, 0, 64, 127
1, 205435, Note_off_c, 0, 74, 58
1, 205441, Note_off_c, 0, 83, 59
1, 205445, Note_off_c, 0, 78, 60
1, 205511, Note_on_c, 0, 74, 95
1, 205514, Note_on_c, 0, 83, 89
1, 205515, Note_on_c, 0, 78, 78
1, 205533, Note_off_c, 0, 74, 64
1, 205542, Note_off_c, 0, 78, 61
1, 205564, Note_off_c, 0, 83, 63
1, 205593, Poly_aftertouch_c, 0, 34, 127
1, 205621, Poly_aftertouch_c, 0, 34, 0
1, 205666, Note_on_c, 0, 40, 84
1, 205670, Note_on_c, 0, 85, 88
1, 205671, Note_on_c, 0, 79, 94
1, 205673, Note_on_c, 0, 83, 90
1, 205689, Note_on_c, 0, 86, 75
1, 205714, Note_off_c, 0, 86, 53
1, 205729, Note_on_c, 0, 84, 5
1, 205729, Note_off_c, 0, 83, 56
1, 205750, Note_on_c, 0, 38, 88
1, 205752, Note_off_c, 0, 85, 55
1, 205755, Note_off_c, 0, 79, 59
1, 205771, Note_off_c, 0, 40, 63
1, 205785, Note_off_c, 0, 84, 39
1, 205829, Note_on_c, 0, 37, 88
1, 205832, Note_on_c, 0, 85, 101
1, 205838, Note_on_c, 0, 79, 88
1, 205844, Note_off_c, 0, 38, 62
1, 205857, Note_on_c, 0, 83, 53
1, 205877, Note_off_c, 0, 79, 58
1, 205898, Note_off_c, 0, 83, 42
1, 205909, Note_on_c, 0, 40, 86
1, 205933, Note_off_c, 0, 37, 60
1, 205945, Note_off_c, 0, 85, 57
1, 206018, Note_on_c, 0, 35, 100
1, 206029, Note_on_c, 0, 78, 107
1, 206031, Note_on_c, 0, 86, 103
1, 206037, Note_on_c, 0, 83, 92
1, 206039, Control_c, 0, 64, 72
1, 206047, Note_off_c, 0, 40, 62
1, 206053, Control_c, 0, 64, 35
1, 206068, Control_c, 0, 64, 0
1, 206083, Control_c, 0, 64, 40
1, 206098, Control_c, 0, 64, 62
1, 206113, Note_on_c, 0, 34, 55
1, 206113, Control_c, 0, 64, 81
1, 206135, Control_c, 0, 64, 127
1, 206140, Note_off_c, 0, 35, 62
1, 206144, Note_off_c, 0, 86, 58
1, 206147, Note_off_c, 0, 78, 57
1, 206151, Note_off_c, 0, 34, 57
1, 206158, Note_off_c, 0, 83, 52
1, 206219, Note_on_c, 0, 78, 108
1, 206225, Note_on_c, 0, 86, 101
1, 206229, Note_on_c, 0, 83, 86
1, 206301, Note_off_c, 0, 78, 56
1, 206303, Note_off_c, 0, 83, 53
1, 206326, Note_off_c, 0, 86, 59
1, 206417, Note_on_c, 0, 79, 106
1, 206417, Note_on_c, 0, 88, 110
1, 206417, Control_c, 0, 64, 79
1, 206417, Note_on_c, 0, 35, 112
1, 206419, Note_on_c, 0, 83, 97
1, 206432, Control_c, 0, 64, 52
1, 206446, Control_c, 0, 64, 34
1, 206461, Control_c, 0, 64, 59
1, 206476, Control_c, 0, 64, 73
1, 206490, Control_c, 0, 64, 127
1, 206545, Note_off_c, 0, 88, 60
1, 206557, Note_off_c, 0, 79, 60
1, 206562, Note_off_c, 0, 35, 50
1, 206565, Note_off_c, 0, 83, 59
1, 206580, Poly_aftertouch_c, 0, 33, 127
1, 206622, Poly_aftertouch_c, 0, 33, 0
1, 206631, Note_on_c, 0, 79, 101
1, 206632, Note_on_c, 0, 88, 113
1, 206634, Note_on_c, 0, 83, 91
1, 206705, Note_off_c, 0, 83, 59
1, 206708, Note_off_c, 0, 88, 56
1, 206717, Note_off_c, 0, 79, 58
1, 206869, Control_c, 0, 64, 71
1, 206873, Note_on_c, 0, 78, 109
1, 206875, Note_on_c, 0, 35, 105
1, 206876, Note_on_c, 0, 86, 100
1, 206884, Control_c, 0, 64, 0
1, 206886, Note_on_c, 0, 83, 71
1, 206908, Note_off_c, 0, 83, 71
1, 206928, Control_c, 0, 64, 61
1, 206936, Note_off_c, 0, 86, 64
1, 206943, Control_c, 0, 64, 93
1, 206944, Note_off_c, 0, 78, 67
1, 206958, Control_c, 0, 64, 127
1, 207225, Note_on_c, 0, 71, 53
1, 207230, Note_on_c, 0, 78, 62
1, 207245, Note_on_c, 0, 74, 48
1, 207263, Note_off_c, 0, 71, 63
1, 207278, Note_off_c, 0, 74, 55
1, 207305, Note_off_c, 0, 35, 54
1, 207311, Note_off_c, 0, 78, 58
1, 207451, Note_on_c, 0, 78, 65
1, 207456, Note_on_c, 0, 71, 58
1, 207457, Note_on_c, 0, 74, 65
1, 207493, Note_off_c, 0, 71, 60
1, 207508, Note_off_c, 0, 74, 53
1, 207529, Note_off_c, 0, 78, 56
1, 207650, Note_on_c, 0, 78, 74
1, 207658, Note_on_c, 0, 74, 68
1, 207663, Note_on_c, 0, 71, 58
1, 207710, Note_off_c, 0, 74, 49
1, 207718, Note_off_c, 0, 71, 44
1, 207730, Note_off_c, 0, 78, 54
1, 207847, Note_on_c, 0, 78, 68
1, 207849, Note_on_c, 0, 74, 68
1, 207857, Note_on_c, 0, 71, 61
1, 207894, Note_off_c, 0, 74, 54
1, 207896, Note_off_c, 0, 71, 59
1, 207918, Note_off_c, 0, 78, 56
1, 208015, Note_on_c, 0, 74, 71
1, 208017, Note_on_c, 0, 71, 58
1, 208022, Note_on_c, 0, 78, 68
1, 208059, Note_off_c, 0, 71, 53
1, 208062, Note_off_c, 0, 74, 53
1, 208068, Note_off_c, 0, 78, 50
1, 208193, Note_on_c, 0, 71, 59
1, 208194, Note_on_c, 0, 74, 64
1, 208195, Note_on_c, 0, 78, 60
1, 208238, Note_off_c, 0, 78, 55
1, 208238, Note_off_c, 0, 71, 53
1, 208238, Note_off_c, 0, 74, 56
1, 208371, Note_on_c, 0, 78, 52
1, 208373, Note_on_c, 0, 74, 57
1, 208375, Note_on_c, 0, 71, 56
1, 208423, Note_off_c, 0, 74, 55
1, 208426, Note_off_c, 0, 78, 50
1, 208431, Note_off_c, 0, 71, 49
1, 208584, Note_on_c, 0, 59, 46
1, 208589, Control_c, 0, 64, 110
1, 208596, Note_on_c, 0, 71, 49
1, 208598, Note_on_c, 0, 74, 54
1, 208598, Note_on_c, 0, 78, 47
1, 208604, Control_c, 0, 64, 77
1, 208619, Control_c, 0, 64, 60
1, 208634, Control_c, 0, 64, 37
1, 208648, Control_c, 0, 64, 43
1, 208653, Note_off_c, 0, 71, 44
1, 208663, Control_c, 0, 64, 53
1, 208667, Note_off_c, 0, 78, 53
1, 208670, Note_off_c, 0, 74, 41
1, 208678, Control_c, 0, 64, 61
1, 208692, Control_c, 0, 64, 69
1, 208707, Control_c, 0, 64, 80
1, 208722, Control_c, 0, 64, 100
1, 208737, Control_c, 0, 64, 127
1, 208775, Note_on_c, 0, 71, 43
1, 208789, Note_on_c, 0, 74, 51
1, 208791, Note_on_c, 0, 78, 50
1, 208829, Note_off_c, 0, 71, 49
1, 208829, Note_off_c, 0, 78, 51
1, 208830, Note_off_c, 0, 74, 51
1, 208909, Note_off_c, 0, 59, 60
1, 208957, Note_on_c, 0, 57, 50
1, 208963, Note_on_c, 0, 78, 49
1, 208969, Note_on_c, 0, 74, 47
1, 208974, Note_on_c, 0, 71, 41
1, 209013, Note_off_c, 0, 78, 51
1, 209016, Note_off_c, 0, 74, 48
1, 209017, Note_off_c, 0, 71, 47
1, 209035, Note_off_c, 0, 57, 60
1, 209046, Note_on_c, 0, 55, 61
1, 209130, Note_off_c, 0, 55, 61
1, 209131, Note_on_c, 0, 54, 65
1, 209135, Note_on_c, 0, 71, 51
1, 209139, Note_on_c, 0, 78, 52
1, 209145, Note_on_c, 0, 74, 58
1, 209174, Note_off_c, 0, 71, 59
1, 209190, Note_off_c, 0, 74, 57
1, 209194, Note_off_c, 0, 78, 50
1, 209222, Note_off_c, 0, 54, 60
1, 209225, Note_on_c, 0, 52, 64
1, 209279, Control_c, 0, 64, 105
1, 209294, Control_c, 0, 64, 80
1, 209308, Control_c, 0, 64, 63
1, 209311, Note_off_c, 0, 52, 62
1, 209323, Control_c, 0, 64, 0
1, 209324, Note_on_c, 0, 78, 51
1, 209326, Note_on_c, 0, 50, 54
1, 209335, Note_on_c, 0, 72, 43
1, 209346, Note_on_c, 0, 74, 36
1, 209380, Note_off_c, 0, 78, 51
1, 209381, Note_off_c, 0, 72, 52
1, 209383, Control_c, 0, 64, 50
1, 209396, Note_off_c, 0, 74, 45
1, 209397, Control_c, 0, 64, 62
1, 209400, Note_on_c, 0, 52, 64
1, 209401, Note_off_c, 0, 50, 59
1, 209412, Control_c, 0, 64, 67
1, 209427, Control_c, 0, 64, 71
1, 209442, Control_c, 0, 64, 72
1, 209457, Control_c, 0, 64, 73
1, 209474, Note_on_c, 0, 54, 72
1, 209487, Note_off_c, 0, 52, 62
1, 209490, Note_on_c, 0, 78, 64
1, 209507, Note_on_c, 0, 72, 38
1, 209512, Note_on_c, 0, 74, 43
1, 209530, Control_c, 0, 64, 72
1, 209541, Note_off_c, 0, 72, 51
1, 209545, Control_c, 0, 64, 67
1, 209546, Note_on_c, 0, 55, 81
1, 209550, Note_off_c, 0, 74, 50
1, 209553, Note_off_c, 0, 78, 51
1, 209559, Note_off_c, 0, 54, 62
1, 209560, Control_c, 0, 64, 58
1, 209575, Control_c, 0, 64, 0
1, 209629, Note_off_c, 0, 55, 62
1, 209631, Note_on_c, 0, 57, 79
1, 209640, Note_on_c, 0, 72, 57
1, 209650, Note_on_c, 0, 78, 64
1, 209652, Note_on_c, 0, 74, 57
1, 209663, Control_c, 0, 64, 51
1, 209678, Note_off_c, 0, 72, 61
1, 209678, Control_c, 0, 64, 63
1, 209693, Note_off_c, 0, 74, 60
1, 209693, Control_c, 0, 64, 70
1, 209702, Note_off_c, 0, 78, 55
1, 209708, Note_on_c, 0, 59, 80
1, 209708, Control_c, 0, 64, 76
1, 209721, Note_off_c, 0, 57, 63
1, 209723, Control_c, 0, 64, 81
1, 209738, Control_c, 0, 64, 84
1, 209753, Control_c, 0, 64, 87
1, 209768, Control_c, 0, 64, 90
1, 209782, Note_on_c, 0, 60, 81
1, 209782, Control_c, 0, 64, 93
1, 209786, Note_off_c, 0, 59, 63
1, 209790, Note_on_c, 0, 72, 60
1, 209795, Note_on_c, 0, 78, 63
1, 209798, Control_c, 0, 64, 95
1, 209812, Control_c, 0, 64, 97
1, 209819, Note_on_c, 0, 74, 29
1, 209828, Control_c, 0, 64, 102
1, 209836, Note_off_c, 0, 72, 46
1, 209843, Control_c, 0, 64, 108
1, 209853, Note_off_c, 0, 60, 65
1, 209858, Note_on_c, 0, 62, 82
1, 209858, Control_c, 0, 64, 114
1, 209876, Note_off_c, 0, 74, 46
1, 209877, Note_off_c, 0, 78, 52
1, 209903, Note_off_c, 0, 62, 60
1, 209940, Control_c, 0, 64, 101
1, 209954, Control_c, 0, 64, 81
1, 209969, Note_on_c, 0, 62, 72
1, 209969, Control_c, 0, 64, 64
1, 209984, Control_c, 0, 64, 0
1, 209989, Note_on_c, 0, 79, 63
1, 209991, Note_on_c, 0, 71, 59
1, 209994, Note_on_c, 0, 74, 64
1, 210039, Note_off_c, 0, 74, 55
1, 210045, Note_off_c, 0, 71, 50
1, 210053, Note_off_c, 0, 79, 53
1, 210058, Control_c, 0, 64, 35
1, 210072, Control_c, 0, 64, 54
1, 210087, Control_c, 0, 64, 65
1, 210102, Control_c, 0, 64, 73
1, 210117, Control_c, 0, 64, 82
1, 210132, Control_c, 0, 64, 92
1, 210146, Control_c, 0, 64, 100
1, 210161, Control_c, 0, 64, 108
1, 210163, Note_on_c, 0, 79, 69
1, 210170, Note_on_c, 0, 71, 59
1, 210176, Control_c, 0, 64, 119
1, 210180, Note_on_c, 0, 74, 57
1, 210191, Control_c, 0, 64, 127
1, 210206, Note_off_c, 0, 74, 57
1, 210210, Note_off_c, 0, 71, 48
1, 210211, Note_off_c, 0, 79, 45
1, 210319, Note_off_c, 0, 62, 56
1, 210341, Note_on_c, 0, 60, 68
1, 210346, Note_on_c, 0, 79, 61
1, 210359, Note_on_c, 0, 74, 43
1, 210388, Note_on_c, 0, 71, 12
1, 210391, Note_off_c, 0, 79, 51
1, 210408, Note_off_c, 0, 60, 63
1, 210411, Note_off_c, 0, 74, 43
1, 210417, Note_on_c, 0, 59, 70
1, 210431, Note_off_c, 0, 71, 53
1, 210480, Note_off_c, 0, 59, 62
1, 210491, Note_on_c, 0, 79, 67
1, 210494, Note_on_c, 0, 71, 57
1, 210504, Note_on_c, 0, 57, 82
1, 210507, Note_on_c, 0, 74, 48
1, 210520, Note_off_c, 0, 71, 63
1, 210535, Note_off_c, 0, 74, 49
1, 210551, Note_off_c, 0, 79, 58
1, 210583, Note_on_c, 0, 55, 87
1, 210585, Note_off_c, 0, 57, 65
1, 210671, Note_on_c, 0, 53, 84
1, 210674, Control_c, 0, 64, 78
1, 210676, Note_off_c, 0, 55, 64
1, 210682, Note_on_c, 0, 72, 69
1, 210686, Note_on_c, 0, 81, 77
1, 210687, Note_on_c, 0, 75, 60
1, 210689, Control_c, 0, 64, 58
1, 210703, Control_c, 0, 64, 0
1, 210723, Note_off_c, 0, 72, 54
1, 210725, Note_off_c, 0, 75, 60
1, 210728, Note_off_c, 0, 53, 63
1, 210733, Control_c, 0, 64, 37
1, 210748, Control_c, 0, 64, 57
1, 210754, Note_off_c, 0, 81, 59
1, 210757, Note_on_c, 0, 52, 88
1, 210763, Control_c, 0, 64, 69
1, 210777, Control_c, 0, 64, 80
1, 210792, Control_c, 0, 64, 99
1, 210807, Control_c, 0, 64, 127
1, 210842, Note_on_c, 0, 50, 91
1, 210847, Note_on_c, 0, 81, 92
1, 210849, Note_on_c, 0, 72, 75
1, 210850, Note_off_c, 0, 52, 63
1, 210859, Note_on_c, 0, 75, 67
1, 210907, Note_off_c, 0, 75, 49
1, 210913, Note_off_c, 0, 72, 47
1, 210920, Note_on_c, 0, 48, 87
1, 210933, Note_off_c, 0, 81, 59
1, 210939, Note_off_c, 0, 50, 63
1, 210969, Control_c, 0, 64, 96
1, 210982, Note_off_c, 0, 48, 64
1, 210984, Control_c, 0, 64, 69
1, 210999, Control_c, 0, 64, 51
1, 211006, Note_on_c, 0, 81, 97
1, 211008, Note_on_c, 0, 72, 86
1, 211009, Note_on_c, 0, 47, 98
1, 211014, Control_c, 0, 64, 53
1, 211015, Note_on_c, 0, 75, 77
1, 211029, Control_c, 0, 64, 64
1, 211043, Control_c, 0, 64, 77
1, 211058, Control_c, 0, 64, 119
1, 211073, Control_c, 0, 64, 127
1, 211094, Note_off_c, 0, 75, 59
1, 211098, Note_on_c, 0, 45, 95
1, 211103, Note_off_c, 0, 81, 61
1, 211107, Note_off_c, 0, 72, 60
1, 211109, Note_off_c, 0, 47, 64
1, 211169, Note_on_c, 0, 81, 100
1, 211172, Note_on_c, 0, 72, 86
1, 211178, Note_on_c, 0, 43, 82
1, 211180, Note_on_c, 0, 75, 80
1, 211217, Note_off_c, 0, 45, 62
1, 211240, Note_on_c, 0, 41, 79
1, 211264, Note_off_c, 0, 75, 60
1, 211285, Note_off_c, 0, 72, 58
1, 211288, Note_off_c, 0, 81, 61
1, 211291, Note_off_c, 0, 43, 63
1, 211339, Control_c, 0, 64, 110
1, 211345, Note_on_c, 0, 40, 98
1, 211361, Note_on_c, 0, 81, 103
1, 211361, Control_c, 0, 64, 69
1, 211364, Note_on_c, 0, 72, 84
1, 211366, Note_on_c, 0, 76, 81
1, 211376, Control_c, 0, 64, 33
1, 211392, Control_c, 0, 64, 0
1, 211393, Note_off_c, 0, 41, 59
1, 211422, Control_c, 0, 64, 56
1, 211437, Control_c, 0, 64, 70
1, 211443, Note_off_c, 0, 76, 50
1, 211452, Control_c, 0, 64, 92
1, 211461, Note_off_c, 0, 72, 60
1, 211466, Control_c, 0, 64, 127
1, 211467, Note_off_c, 0, 81, 60
1, 211535, Note_on_c, 0, 81, 99
1, 211538, Note_on_c, 0, 72, 83
1, 211545, Note_on_c, 0, 76, 79
1, 211568, Note_off_c, 0, 76, 67
1, 211617, Note_off_c, 0, 72, 55
1, 211636, Note_off_c, 0, 81, 58
1, 211666, Note_off_c, 0, 40, 58
1, 211706, Note_on_c, 0, 41, 104
1, 211706, Note_on_c, 0, 71, 100
1, 211706, Note_on_c, 0, 74, 101
1, 211706, Note_on_c, 0, 81, 104
1, 211717, Control_c, 0, 64, 66
1, 211732, Control_c, 0, 64, 0
1, 211762, Control_c, 0, 64, 55
1, 211777, Control_c, 0, 64, 72
1, 211792, Control_c, 0, 64, 100
1, 211799, Note_on_c, 0, 43, 89
1, 211801, Note_off_c, 0, 81, 58
1, 211806, Note_off_c, 0, 74, 52
1, 211806, Control_c, 0, 64, 127
1, 211809, Note_off_c, 0, 41, 62
1, 211810, Note_off_c, 0, 71, 57
1, 211884, Note_on_c, 0, 45, 96
1, 211891, Note_off_c, 0, 43, 61
1, 211892, Note_on_c, 0, 81, 97
1, 211895, Note_on_c, 0, 74, 84
1, 211896, Note_on_c, 0, 71, 81
1, 211944, Note_off_c, 0, 74, 59
1, 211954, Note_on_c, 0, 41, 91
1, 211971, Note_off_c, 0, 45, 62
1, 211975, Note_off_c, 0, 71, 58
1, 211997, Note_off_c, 0, 81, 59
1, 212043, Control_c, 0, 64, 109
1, 212052, Note_on_c, 0, 40, 82
1, 212058, Control_c, 0, 64, 69
1, 212066, Note_on_c, 0, 72, 95
1, 212069, Note_on_c, 0, 81, 101
1, 212073, Control_c, 0, 64, 0
1, 212077, Note_off_c, 0, 41, 62
1, 212078, Note_on_c, 0, 76, 82
1, 212125, Control_c, 0, 64, 36
1, 212140, Control_c, 0, 64, 60
1, 212155, Control_c, 0, 64, 72
1, 212164, Note_off_c, 0, 72, 57
1, 212170, Control_c, 0, 64, 85
1, 212172, Note_off_c, 0, 76, 55
1, 212185, Note_off_c, 0, 81, 60
1, 212185, Control_c, 0, 64, 116
1, 212200, Control_c, 0, 64, 127
1, 212247, Note_on_c, 0, 81, 92
1, 212250, Note_on_c, 0, 72, 87
1, 212258, Note_on_c, 0, 76, 76
1, 212286, Note_off_c, 0, 76, 61
1, 212315, Note_off_c, 0, 72, 57
1, 212339, Note_off_c, 0, 81, 60
1, 212359, Note_off_c, 0, 40, 59
1, 212393, Control_c, 0, 64, 87
1, 212403, Note_on_c, 0, 81, 102
1, 212404, Note_on_c, 0, 41, 101
1, 212405, Note_on_c, 0, 71, 103
1, 212406, Note_on_c, 0, 74, 100
1, 212407, Control_c, 0, 64, 60
1, 212422, Control_c, 0, 64, 0
1, 212437, Control_c, 0, 64, 48
1, 212452, Control_c, 0, 64, 65
1, 212466, Control_c, 0, 64, 85
1, 212481, Control_c, 0, 64, 127
1, 212493, Note_off_c, 0, 81, 60
1, 212498, Note_on_c, 0, 43, 88
1, 212498, Note_off_c, 0, 74, 56
1, 212504, Note_off_c, 0, 71, 55
1, 212516, Note_off_c, 0, 41, 62
1, 212582, Note_on_c, 0, 45, 91
1, 212585, Note_on_c, 0, 81, 102
1, 212587, Note_on_c, 0, 71, 88
1, 212592, Note_off_c, 0, 43, 63
1, 212593, Note_on_c, 0, 74, 90
1, 212611, Note_off_c, 0, 74, 69
1, 212662, Note_on_c, 0, 41, 95
1, 212670, Note_off_c, 0, 71, 55
1, 212681, Note_off_c, 0, 81, 59
1, 212682, Note_off_c, 0, 45, 64
1, 212733, Control_c, 0, 64, 87
1, 212748, Control_c, 0, 64, 62
1, 212758, Note_on_c, 0, 40, 81
1, 212762, Note_on_c, 0, 79, 97
1, 212763, Note_on_c, 0, 72, 99
1, 212763, Control_c, 0, 64, 0
1, 212769, Note_on_c, 0, 76, 95
1, 212790, Note_off_c, 0, 41, 61
1, 212793, Control_c, 0, 64, 52
1, 212807, Control_c, 0, 64, 67
1, 212823, Control_c, 0, 64, 85
1, 212838, Control_c, 0, 64, 127
1, 212845, Note_off_c, 0, 72, 59
1, 212847, Note_off_c, 0, 40, 64
1, 212862, Note_off_c, 0, 76, 60
1, 212872, Note_off_c, 0, 79, 59
1, 212936, Note_on_c, 0, 79, 91
1, 212937, Note_on_c, 0, 72, 93
1, 212940, Note_on_c, 0, 76, 89
1, 212959, Note_off_c, 0, 72, 66
1, 212963, Note_off_c, 0, 76, 62
1, 213005, Note_off_c, 0, 79, 64
1, 213097, Control_c, 0, 64, 86
1, 213100, Note_on_c, 0, 38, 91
1, 213100, Note_on_c, 0, 77, 104
1, 213102, Note_on_c, 0, 83, 102
1, 213103, Note_on_c, 0, 79, 95
1, 213112, Control_c, 0, 64, 61
1, 213127, Control_c, 0, 64, 54
1, 213142, Control_c, 0, 64, 65
1, 213157, Control_c, 0, 64, 78
1, 213172, Control_c, 0, 64, 127
1, 213179, Note_on_c, 0, 40, 72
1, 213181, Note_off_c, 0, 77, 61
1, 213194, Note_off_c, 0, 79, 59
1, 213200, Note_off_c, 0, 83, 61
1, 213206, Note_off_c, 0, 38, 62
1, 213264, Note_on_c, 0, 41, 89
1, 213266, Note_on_c, 0, 77, 102
1, 213269, Note_on_c, 0, 83, 97
1, 213274, Note_on_c, 0, 79, 88
1, 213279, Note_off_c, 0, 40, 61
1, 213348, Note_on_c, 0, 38, 88
1, 213351, Note_off_c, 0, 77, 56
1, 213363, Note_off_c, 0, 41, 63
1, 213377, Note_off_c, 0, 79, 52
1, 213382, Note_off_c, 0, 83, 49
1, 213453, Note_on_c, 0, 36, 108
1, 213458, Note_on_c, 0, 84, 110
1, 213459, Note_on_c, 0, 76, 93
1, 213467, Note_on_c, 0, 79, 84
1, 213473, Note_off_c, 0, 38, 62
1, 213482, Control_c, 0, 64, 73
1, 213497, Control_c, 0, 64, 48
1, 213512, Control_c, 0, 64, 0
1, 213527, Control_c, 0, 64, 37
1, 213542, Control_c, 0, 64, 58
1, 213556, Control_c, 0, 64, 71
1, 213558, Note_off_c, 0, 79, 53
1, 213571, Control_c, 0, 64, 97
1, 213579, Note_off_c, 0, 84, 56
1, 213586, Control_c, 0, 64, 127
1, 213589, Note_off_c, 0, 76, 59
1, 213614, Note_off_c, 0, 36, 60
1, 213659, Note_on_c, 0, 76, 95
1, 213659, Note_on_c, 0, 84, 101
1, 213663, Note_on_c, 0, 79, 88
1, 213706, Note_off_c, 0, 79, 63
1, 213787, Note_off_c, 0, 76, 46
1, 213798, Note_off_c, 0, 84, 56
1, 213857, Note_on_c, 0, 36, 100
1, 213861, Control_c, 0, 64, 74
1, 213864, Note_on_c, 0, 77, 94
1, 213864, Note_on_c, 0, 84, 98
1, 213870, Note_on_c, 0, 80, 86
1, 213876, Control_c, 0, 64, 51
1, 213891, Control_c, 0, 64, 38
1, 213905, Control_c, 0, 64, 56
1, 213920, Control_c, 0, 64, 69
1, 213935, Control_c, 0, 64, 87
1, 213950, Control_c, 0, 64, 127
1, 213996, Note_off_c, 0, 84, 51
1, 214015, Note_off_c, 0, 77, 52
1, 214056, Note_off_c, 0, 80, 27
1, 214098, Note_on_c, 0, 77, 101
1, 214098, Note_on_c, 0, 84, 103
1, 214102, Note_on_c, 0, 80, 80
1, 214124, Note_off_c, 0, 36, 36
1, 214184, Note_off_c, 0, 77, 61
1, 214196, Note_off_c, 0, 80, 62
1, 214255, Note_off_c, 0, 84, 47
1, 214445, Note_on_c, 0, 36, 48
1, 214476, Control_c, 0, 64, 82
1, 214491, Control_c, 0, 64, 60
1, 214506, Control_c, 0, 64, 0
1, 214517, Note_on_c, 0, 84, 95
1, 214529, Note_on_c, 0, 76, 72
1, 214534, Note_on_c, 0, 79, 70
1, 214535, Control_c, 0, 64, 41
1, 214550, Control_c, 0, 64, 59
1, 214564, Control_c, 0, 64, 71
1, 214579, Control_c, 0, 64, 93
1, 214596, Control_c, 0, 64, 127
1, 214606, Note_off_c, 0, 36, 59
1, 214939, Note_on_c, 0, 67, 46
1, 214944, Note_on_c, 0, 60, 50
1, 214945, Note_on_c, 0, 64, 44
1, 214990, Note_off_c, 0, 60, 63
1, 214990, Note_off_c, 0, 64, 61
1, 214993, Note_off_c, 0, 67, 60
1, 215184, Note_on_c, 0, 67, 50
1, 215186, Note_on_c, 0, 60, 51
1, 215196, Note_on_c, 0, 64, 41
1, 215232, Note_off_c, 0, 60, 57
1, 215232, Note_off_c, 0, 67, 59
1, 215238, Note_off_c, 0, 64, 59
1, 215251, Note_off_c, 0, 84, 56
1, 215273, Note_off_c, 0, 76, 62
1, 215325, Note_off_c, 0, 79, 48
1, 215369, Note_on_c, 0, 64, 50
1, 215370, Note_on_c, 0, 60, 51
1, 215372, Note_on_c, 0, 67, 51
1, 215418, Note_off_c, 0, 67, 60
1, 215419, Note_off_c, 0, 64, 54
1, 215422, Note_off_c, 0, 60, 61
1, 215556, Note_on_c, 0, 60, 53
1, 215560, Note_on_c, 0, 67, 53
1, 215561, Note_on_c, 0, 64, 51
1, 215608, Note_off_c, 0, 64, 55
1, 215608, Note_off_c, 0, 67, 58
1, 215615, Note_off_c, 0, 60, 56
1, 215744, Note_on_c, 0, 67, 58
1, 215747, Note_on_c, 0, 64, 52
1, 215748, Note_on_c, 0, 60, 53
1, 215787, Note_off_c, 0, 67, 60
1, 215793, Note_off_c, 0, 60, 61
1, 215796, Note_off_c, 0, 64, 58
1, 215914, Control_c, 0, 67, 24
1, 215929, Control_c, 0, 67, 32
1, 215941, Note_on_c, 0, 67, 51
1, 215944, Control_c, 0, 67, 44
1, 215950, Note_on_c, 0, 60, 47
1, 215952, Note_on_c, 0, 64, 40
1, 215959, Control_c, 0, 67, 61
1, 215974, Control_c, 0, 67, 79
1, 215975, Note_off_c, 0, 67, 63
1, 215983, Note_off_c, 0, 64, 52
1, 215987, Note_off_c, 0, 60, 63
1, 215989, Control_c, 0, 67, 94
1, 216003, Control_c, 0, 67, 108
1, 216018, Control_c, 0, 67, 124
1, 216033, Control_c, 0, 67, 127
1, 216107, Note_on_c, 0, 64, 49
1, 216108, Note_on_c, 0, 67, 45
1, 216126, Note_on_c, 0, 60, 35
1, 216129, Note_off_c, 0, 64, 62
1, 216138, Note_off_c, 0, 67, 52
1, 216159, Note_off_c, 0, 60, 56
1, 216315, Control_c, 0, 64, 88
1, 216329, Note_on_c, 0, 48, 51
1, 216330, Control_c, 0, 64, 66
1, 216345, Control_c, 0, 64, 45
1, 216360, Control_c, 0, 64, 43
1, 216374, Control_c, 0, 64, 56
1, 216389, Control_c, 0, 64, 65
1, 216400, Note_on_c, 0, 79, 86
1, 216404, Control_c, 0, 64, 77
1, 216419, Control_c, 0, 64, 104
1, 216433, Control_c, 0, 64, 127
1, 216448, Note_off_c, 0, 48, 60
1, 216537, Control_c, 0, 67, 114
1, 216552, Control_c, 0, 67, 62
1, 216567, Control_c, 0, 67, 0
1, 216611, Note_on_c, 0, 60, 52
1, 216611, Note_on_c, 0, 67, 54
1, 216641, Note_off_c, 0, 67, 59
1, 216653, Note_off_c, 0, 60, 59
1, 216785, Note_on_c, 0, 67, 48
1, 216801, Note_on_c, 0, 63, 47
1, 216805, Note_on_c, 0, 60, 31
1, 216812, Note_on_c, 0, 77, 77
1, 216823, Note_off_c, 0, 67, 59
1, 216841, Note_off_c, 0, 79, 63
1, 216843, Note_off_c, 0, 63, 56
1, 216853, Note_off_c, 0, 60, 48
1, 216887, Note_on_c, 0, 75, 83
1, 216932, Note_on_c, 0, 67, 49
1, 216937, Note_off_c, 0, 77, 56
1, 216953, Note_on_c, 0, 63, 46
1, 216961, Note_on_c, 0, 74, 88
1, 216961, Note_off_c, 0, 67, 53
1, 216984, Note_off_c, 0, 63, 55
1, 217015, Note_off_c, 0, 75, 43
1, 217037, Note_on_c, 0, 72, 75
1, 217042, Note_off_c, 0, 74, 58
1, 217109, Control_c, 0, 64, 97
1, 217123, Control_c, 0, 64, 68
1, 217128, Note_on_c, 0, 48, 48
1, 217132, Note_off_c, 0, 72, 62
1, 217138, Control_c, 0, 64, 38
1, 217153, Control_c, 0, 64, 0
1, 217163, Note_on_c, 0, 80, 85
1, 217168, Note_on_c, 0, 74, 73
1, 217168, Control_c, 0, 64, 37
1, 217182, Control_c, 0, 64, 59
1, 217197, Control_c, 0, 64, 73
1, 217200, Note_off_c, 0, 48, 63
1, 217212, Control_c, 0, 64, 97
1, 217227, Control_c, 0, 64, 127
1, 217271, Control_c, 0, 67, 26
1, 217286, Control_c, 0, 67, 40
1, 217301, Control_c, 0, 67, 62
1, 217315, Control_c, 0, 67, 89
1, 217330, Control_c, 0, 67, 117
1, 217352, Control_c, 0, 67, 127
1, 217375, Note_on_c, 0, 68, 54
1, 217394, Note_on_c, 0, 59, 12
1, 217396, Note_on_c, 0, 65, 39
1, 217421, Note_off_c, 0, 68, 53
1, 217446, Note_off_c, 0, 65, 45
1, 217447, Note_off_c, 0, 59, 46
1, 217519, Note_off_c, 0, 74, 37
1, 217558, Note_on_c, 0, 59, 44
1, 217562, Note_on_c, 0, 65, 54
1, 217566, Note_on_c, 0, 68, 31
1, 217593, Note_off_c, 0, 59, 50
1, 217599, Note_off_c, 0, 68, 47
1, 217600, Note_off_c, 0, 80, 38
1, 217602, Note_off_c, 0, 65, 62
1, 217712, Note_on_c, 0, 68, 54
1, 217725, Note_on_c, 0, 59, 34
1, 217732, Note_on_c, 0, 65, 43
1, 217733, Note_off_c, 0, 68, 62
1, 217760, Note_off_c, 0, 59, 50
1, 217768, Note_off_c, 0, 65, 48
1, 217886, Control_c, 0, 64, 82
1, 217901, Control_c, 0, 64, 58
1, 217916, Control_c, 0, 64, 0
1, 217926, Note_on_c, 0, 79, 78
1, 217929, Note_on_c, 0, 48, 36
1, 217931, Control_c, 0, 64, 34
1, 217938, Note_on_c, 0, 75, 64
1, 217945, Control_c, 0, 64, 51
1, 217960, Control_c, 0, 64, 62
1, 217969, Note_off_c, 0, 48, 63
1, 217975, Control_c, 0, 64, 72
1, 217975, Control_c, 0, 67, 114
1, 217990, Control_c, 0, 64, 92
1, 217990, Control_c, 0, 67, 71
1, 218004, Control_c, 0, 64, 127
1, 218004, Control_c, 0, 67, 0
1, 218028, Note_off_c, 0, 75, 54
1, 218120, Note_on_c, 0, 67, 51
1, 218144, Note_off_c, 0, 67, 60
1, 218166, Poly_aftertouch_c, 0, 60, 127
1, 218203, Poly_aftertouch_c, 0, 60, 0
1, 218287, Note_on_c, 0, 67, 53
1, 218297, Note_on_c, 0, 77, 74
1, 218306, Note_on_c, 0, 63, 51
1, 218320, Note_on_c, 0, 60, 40
1, 218327, Note_off_c, 0, 67, 61
1, 218347, Note_off_c, 0, 63, 61
1, 218359, Note_off_c, 0, 60, 49
1, 218360, Note_off_c, 0, 79, 56
1, 218370, Note_on_c, 0, 75, 86
1, 218411, Note_off_c, 0, 77, 63
1, 218420, Note_on_c, 0, 67, 51
1, 218439, Note_off_c, 0, 67, 64
1, 218451, Note_on_c, 0, 74, 89
1, 218475, Note_off_c, 0, 75, 63
1, 218522, Note_on_c, 0, 72, 73
1, 218522, Note_off_c, 0, 74, 61
1, 218581, Note_off_c, 0, 72, 63
1, 218591, Control_c, 0, 64, 88
1, 218606, Control_c, 0, 64, 65
1, 218618, Note_on_c, 0, 48, 42
1, 218620, Control_c, 0, 64, 44
1, 218635, Control_c, 0, 64, 43
1, 218650, Control_c, 0, 64, 54
1, 218659, Note_on_c, 0, 83, 85
1, 218665, Control_c, 0, 64, 62
1, 218665, Control_c, 0, 67, 20
1, 218672, Note_on_c, 0, 74, 81
1, 218680, Control_c, 0, 64, 70
1, 218680, Control_c, 0, 67, 26
1, 218686, Note_off_c, 0, 48, 63
1, 218694, Control_c, 0, 64, 91
1, 218694, Control_c, 0, 67, 34
1, 218709, Control_c, 0, 64, 127
1, 218709, Control_c, 0, 67, 47
1, 218724, Control_c, 0, 67, 67
1, 218739, Control_c, 0, 67, 90
1, 218753, Control_c, 0, 67, 113
1, 218768, Control_c, 0, 67, 127
1, 218850, Note_on_c, 0, 68, 59
1, 218883, Note_off_c, 0, 68, 58
1, 218889, Note_off_c, 0, 74, 36
1, 218917, Poly_aftertouch_c, 0, 65, 127
1, 218948, Note_off_c, 0, 83, 60
1, 218993, Poly_aftertouch_c, 0, 60, 0
1, 219010, Poly_aftertouch_c, 0, 65, 0
1, 219013, Note_on_c, 0, 60, 28
1, 219026, Note_on_c, 0, 68, 44
1, 219029, Note_on_c, 0, 65, 32
1, 219054, Note_off_c, 0, 68, 56
1, 219068, Note_off_c, 0, 60, 55
1, 219092, Note_off_c, 0, 65, 53
1, 219190, Note_on_c, 0, 68, 43
1, 219201, Note_on_c, 0, 65, 44
1, 219207, Note_on_c, 0, 60, 40
1, 219222, Note_off_c, 0, 68, 54
1, 219230, Note_off_c, 0, 65, 61
1, 219237, Note_off_c, 0, 60, 57
1, 219399, Control_c, 0, 64, 90
1, 219414, Note_on_c, 0, 60, 25
1, 219414, Control_c, 0, 64, 68
1, 219429, Control_c, 0, 64, 53
1, 219435, Note_on_c, 0, 63, 39
1, 219437, Note_on_c, 0, 67, 32
1, 219438, Note_on_c, 0, 84, 66
1, 219440, Note_on_c, 0, 75, 47
1, 219443, Control_c, 0, 64, 51
1, 219458, Control_c, 0, 64, 57
1, 219473, Control_c, 0, 64, 61
1, 219482, Note_off_c, 0, 63, 58
1, 219488, Control_c, 0, 64, 67
1, 219491, Note_off_c, 0, 67, 49
1, 219503, Control_c, 0, 64, 79
1, 219517, Control_c, 0, 64, 104
1, 219532, Control_c, 0, 64, 127
1, 219542, Note_off_c, 0, 75, 54
1, 219565, Note_off_c, 0, 60, 0
1, 219596, Note_on_c, 0, 60, 23
1, 219596, Note_off_c, 0, 84, 54
1, 219629, Note_on_c, 0, 63, 40
1, 219633, Note_on_c, 0, 67, 34
1, 219643, Control_c, 0, 67, 111
1, 219658, Control_c, 0, 67, 82
1, 219658, Note_off_c, 0, 60, 42
1, 219661, Note_off_c, 0, 63, 56
1, 219666, Note_off_c, 0, 67, 49
1, 219673, Control_c, 0, 67, 54
1, 219688, Control_c, 0, 67, 28
1, 219703, Control_c, 0, 67, 0
1, 219785, Note_on_c, 0, 67, 44
1, 219796, Note_on_c, 0, 84, 73
1, 219801, Note_on_c, 0, 58, 45
1, 219801, Note_on_c, 0, 76, 73
1, 219813, Note_on_c, 0, 60, 24
1, 219831, Note_off_c, 0, 67, 53
1, 219851, Note_off_c, 0, 58, 53
1, 219857, Note_off_c, 0, 60, 50
1, 219878, Note_on_c, 0, 77, 81
1, 219879, Note_off_c, 0, 76, 62
1, 219915, Note_off_c, 0, 84, 61
1, 219942, Note_on_c, 0, 67, 60
1, 219951, Note_on_c, 0, 79, 92
1, 219959, Note_on_c, 0, 60, 61
1, 219962, Note_on_c, 0, 58, 39
1, 219968, Note_off_c, 0, 77, 64
1, 219972, Note_off_c, 0, 67, 65
1, 219989, Note_off_c, 0, 58, 55
1, 219992, Note_off_c, 0, 60, 64
1, 220034, Note_on_c, 0, 76, 88
1, 220052, Note_off_c, 0, 79, 59
1, 220132, Control_c, 0, 64, 85
1, 220135, Note_on_c, 0, 60, 53
1, 220136, Note_on_c, 0, 65, 60
1, 220138, Note_on_c, 0, 56, 53
1, 220147, Control_c, 0, 64, 64
1, 220147, Note_on_c, 0, 84, 96
1, 220151, Note_on_c, 0, 77, 85
1, 220162, Control_c, 0, 64, 45
1, 220177, Control_c, 0, 64, 48
1, 220188, Note_off_c, 0, 76, 29
1, 220192, Control_c, 0, 64, 58
1, 220198, Note_off_c, 0, 56, 48
1, 220207, Control_c, 0, 64, 65
1, 220213, Note_off_c, 0, 65, 55
1, 220222, Control_c, 0, 64, 79
1, 220236, Control_c, 0, 64, 127
1, 220254, Note_off_c, 0, 77, 64
1, 220267, Note_off_c, 0, 60, 35
1, 220313, Note_off_c, 0, 84, 59
1, 220320, Note_on_c, 0, 56, 68
1, 220322, Note_on_c, 0, 60, 51
1, 220323, Note_on_c, 0, 65, 72
1, 220352, Note_off_c, 0, 65, 65
1, 220362, Note_off_c, 0, 56, 60
1, 220364, Note_off_c, 0, 60, 61
1, 220503, Note_on_c, 0, 84, 89
1, 220504, Note_on_c, 0, 64, 65
1, 220505, Note_on_c, 0, 55, 62
1, 220505, Note_on_c, 0, 79, 86
1, 220514, Note_on_c, 0, 60, 63
1, 220541, Note_off_c, 0, 55, 60
1, 220542, Note_off_c, 0, 64, 53
1, 220561, Note_off_c, 0, 60, 54
1, 220592, Note_on_c, 0, 80, 91
1, 220611, Note_off_c, 0, 79, 64
1, 220627, Note_off_c, 0, 84, 64
1, 220650, Note_on_c, 0, 64, 53
1, 220660, Note_on_c, 0, 55, 54
1, 220669, Note_on_c, 0, 82, 94
1, 220670, Note_off_c, 0, 64, 62
1, 220672, Note_on_c, 0, 60, 26
1, 220687, Note_off_c, 0, 55, 57
1, 220696, Note_off_c, 0, 80, 64
1, 220712, Note_off_c, 0, 60, 55
1, 220748, Note_on_c, 0, 79, 93
1, 220764, Note_off_c, 0, 82, 66
1, 220868, Note_on_c, 0, 41, 62
1, 220881, Control_c, 0, 64, 125
1, 220896, Control_c, 0, 64, 76
1, 220911, Control_c, 0, 64, 56
1, 220921, Note_off_c, 0, 79, 61
1, 220925, Control_c, 0, 64, 0
1, 220940, Control_c, 0, 64, 37
1, 220955, Note_on_c, 0, 85, 86
1, 220955, Control_c, 0, 64, 54
1, 220971, Control_c, 0, 64, 62
1, 220973, Note_on_c, 0, 82, 70
1, 220985, Note_off_c, 0, 41, 60
1, 220986, Control_c, 0, 64, 74
1, 221001, Control_c, 0, 64, 100
1, 221015, Control_c, 0, 64, 127
1, 221162, Note_on_c, 0, 65, 67
1, 221171, Note_on_c, 0, 60, 54
1, 221185, Note_on_c, 0, 53, 37
1, 221190, Note_off_c, 0, 65, 57
1, 221215, Note_off_c, 0, 60, 61
1, 221218, Note_off_c, 0, 53, 47
1, 221232, Note_off_c, 0, 82, 63
1, 221244, Note_off_c, 0, 85, 54
1, 221351, Note_on_c, 0, 65, 55
1, 221355, Note_on_c, 0, 53, 28
1, 221363, Note_on_c, 0, 60, 44
1, 221374, Note_off_c, 0, 65, 60
1, 221390, Note_off_c, 0, 53, 46
1, 221417, Note_off_c, 0, 60, 50
1, 221517, Note_on_c, 0, 53, 41
1, 221519, Note_on_c, 0, 65, 19
1, 221533, Note_on_c, 0, 84, 82
1, 221540, Note_on_c, 0, 80, 75
1, 221550, Note_off_c, 0, 53, 46
1, 221567, Note_off_c, 0, 65, 52
1, 221573, Poly_aftertouch_c, 0, 60, 127
1, 221605, Poly_aftertouch_c, 0, 60, 0
1, 221689, Control_c, 0, 64, 77
1, 221704, Control_c, 0, 64, 57
1, 221713, Note_off_c, 0, 80, 52
1, 221715, Note_on_c, 0, 41, 54
1, 221718, Note_on_c, 0, 79, 71
1, 221719, Control_c, 0, 64, 0
1, 221722, Note_on_c, 0, 82, 74
1, 221734, Control_c, 0, 64, 39
1, 221748, Control_c, 0, 64, 52
1, 221764, Control_c, 0, 64, 58
1, 221779, Control_c, 0, 64, 67
1, 221781, Note_off_c, 0, 41, 60
1, 221794, Control_c, 0, 64, 80
1, 221808, Control_c, 0, 64, 119
1, 221823, Control_c, 0, 64, 127
1, 221852, Note_off_c, 0, 84, 31
1, 221900, Note_off_c, 0, 79, 64
1, 221900, Note_on_c, 0, 80, 77
1, 221910, Note_on_c, 0, 77, 66
1, 221928, Note_on_c, 0, 60, 45
1, 221930, Note_off_c, 0, 82, 62
1, 221931, Note_on_c, 0, 53, 41
1, 221954, Note_off_c, 0, 80, 62
1, 221956, Note_off_c, 0, 60, 56
1, 221964, Note_off_c, 0, 53, 52
1, 222086, Note_on_c, 0, 53, 50
1, 222086, Note_on_c, 0, 60, 53
1, 222088, Note_on_c, 0, 79, 77
1, 222091, Note_on_c, 0, 75, 68
1, 222100, Note_off_c, 0, 77, 0
1, 222122, Note_off_c, 0, 60, 63
1, 222134, Poly_aftertouch_c, 0, 77, 0
1, 222135, Note_off_c, 0, 53, 57
1, 222197, Note_off_c, 0, 75, 62
1, 222201, Control_c, 0, 67, 23
1, 222216, Control_c, 0, 67, 34
1, 222231, Control_c, 0, 67, 49
1, 222245, Control_c, 0, 67, 61
1, 222249, Note_on_c, 0, 62, 61
1, 222252, Note_on_c, 0, 77, 78
1, 222257, Note_on_c, 0, 74, 78
1, 222260, Control_c, 0, 67, 74
1, 222270, Note_off_c, 0, 62, 63
1, 222275, Control_c, 0, 67, 91
1, 222282, Note_off_c, 0, 79, 62
1, 222290, Control_c, 0, 67, 109
1, 222304, Control_c, 0, 67, 125
1, 222319, Control_c, 0, 67, 127
1, 222334, Note_off_c, 0, 74, 55
1, 222362, Note_off_c, 0, 77, 56
1, 222423, Control_c, 0, 64, 84
1, 222433, Poly_aftertouch_c, 0, 79, 127
1, 222437, Control_c, 0, 64, 64
1, 222451, Note_on_c, 0, 43, 51
1, 222452, Control_c, 0, 64, 33
1, 222467, Control_c, 0, 64, 0
1, 222482, Control_c, 0, 64, 40
1, 222483, Note_on_c, 0, 77, 68
1, 222486, Note_on_c, 0, 74, 69
1, 222496, Control_c, 0, 64, 56
1, 222499, Note_off_c, 0, 43, 60
1, 222511, Control_c, 0, 64, 66
1, 222526, Control_c, 0, 64, 77
1, 222541, Control_c, 0, 64, 95
1, 222557, Control_c, 0, 64, 127
1, 222639, Control_c, 0, 67, 107
1, 222647, Note_off_c, 0, 77, 33
1, 222654, Control_c, 0, 67, 57
1, 222660, Note_off_c, 0, 74, 35
1, 222669, Control_c, 0, 67, 0
1, 222680, Note_on_c, 0, 60, 51
1, 222680, Note_on_c, 0, 63, 54
1, 222694, Note_on_c, 0, 55, 35
1, 222704, Note_off_c, 0, 63, 63
1, 222717, Note_off_c, 0, 60, 63
1, 222724, Note_off_c, 0, 55, 55
1, 222764, Note_on_c, 0, 75, 58
1, 222767, Note_on_c, 0, 72, 57
1, 222791, Poly_aftertouch_c, 0, 79, 0
1, 222823, Note_off_c, 0, 72, 43
1, 222833, Note_off_c, 0, 75, 62
1, 222836, Note_on_c, 0, 77, 73
1, 222848, Note_on_c, 0, 74, 73
1, 222855, Note_on_c, 0, 55, 41
1, 222862, Note_on_c, 0, 63, 42
1, 222876, Note_on_c, 0, 60, 36
1, 222888, Note_off_c, 0, 55, 61
1, 222891, Note_off_c, 0, 63, 54
1, 222909, Note_off_c, 0, 60, 53
1, 222916, Note_off_c, 0, 74, 35
1, 222929, Note_on_c, 0, 72, 76
1, 222929, Note_on_c, 0, 75, 79
1, 222940, Note_off_c, 0, 77, 61
1, 222973, Note_on_c, 0, 63, 60
1, 222983, Note_on_c, 0, 55, 51
1, 222991, Note_off_c, 0, 72, 57
1, 222992, Note_on_c, 0, 77, 68
1, 222996, Note_off_c, 0, 63, 60
1, 222999, Note_off_c, 0, 75, 63
1, 223000, Note_on_c, 0, 74, 80
1, 223014, Note_off_c, 0, 55, 51
1, 223083, Note_off_c, 0, 74, 58
1, 223085, Note_on_c, 0, 75, 72
1, 223092, Note_on_c, 0, 72, 68
1, 223093, Note_off_c, 0, 77, 63
1, 223113, Note_off_c, 0, 75, 61
1, 223115, Note_off_c, 0, 72, 69
1, 223158, Control_c, 0, 64, 101
1, 223173, Control_c, 0, 64, 68
1, 223187, Note_on_c, 0, 43, 50
1, 223188, Control_c, 0, 64, 39
1, 223202, Control_c, 0, 64, 0
1, 223202, Note_on_c, 0, 75, 72
1, 223207, Note_on_c, 0, 72, 65
1, 223232, Control_c, 0, 64, 51
1, 223238, Note_off_c, 0, 43, 61
1, 223247, Control_c, 0, 64, 63
1, 223262, Control_c, 0, 64, 73
1, 223276, Control_c, 0, 64, 91
1, 223291, Control_c, 0, 64, 127
1, 223398, Note_off_c, 0, 75, 50
1, 223402, Note_off_c, 0, 72, 56
1, 223420, Note_on_c, 0, 64, 8
1, 223443, Poly_aftertouch_c, 0, 60, 127
1, 223467, Note_off_c, 0, 64, 37
1, 223471, Note_on_c, 0, 71, 76
1, 223477, Note_on_c, 0, 74, 77
1, 223477, Poly_aftertouch_c, 0, 60, 0
1, 223521, Note_off_c, 0, 71, 57
1, 223521, Note_off_c, 0, 74, 47
1, 223551, Control_c, 0, 64, 117
1, 223559, Note_on_c, 0, 72, 75
1, 223563, Note_on_c, 0, 75, 69
1, 223566, Control_c, 0, 64, 78
1, 223580, Note_on_c, 0, 65, 60
1, 223581, Control_c, 0, 64, 60
1, 223581, Note_on_c, 0, 62, 47
1, 223591, Note_on_c, 0, 55, 44
1, 223596, Control_c, 0, 64, 56
1, 223606, Note_off_c, 0, 65, 57
1, 223611, Control_c, 0, 64, 64
1, 223614, Note_off_c, 0, 62, 56
1, 223619, Note_off_c, 0, 55, 56
1, 223625, Control_c, 0, 64, 72
1, 223640, Note_on_c, 0, 71, 77
1, 223640, Control_c, 0, 64, 87
1, 223641, Note_off_c, 0, 72, 61
1, 223646, Note_on_c, 0, 74, 85
1, 223655, Control_c, 0, 64, 127
1, 223659, Note_off_c, 0, 75, 59
1, 223684, Note_off_c, 0, 71, 61
1, 223723, Note_on_c, 0, 72, 77
1, 223723, Note_off_c, 0, 74, 63
1, 223730, Note_on_c, 0, 62, 40
1, 223732, Note_on_c, 0, 75, 63
1, 223733, Note_on_c, 0, 55, 33
1, 223760, Note_off_c, 0, 62, 54
1, 223763, Note_off_c, 0, 55, 53
1, 223796, Note_on_c, 0, 71, 75
1, 223797, Note_off_c, 0, 72, 63
1, 223799, Note_on_c, 0, 74, 78
1, 223811, Note_off_c, 0, 75, 63
1, 223820, Note_off_c, 0, 71, 70
1, 223820, Note_off_c, 0, 74, 66
1, 223909, Note_on_c, 0, 48, 54
1, 223986, Note_on_c, 0, 87, 93
1, 223995, Control_c, 0, 64, 85
1, 224002, Note_on_c, 0, 84, 75
1, 224010, Control_c, 0, 64, 62
1, 224025, Control_c, 0, 64, 0
1, 224055, Control_c, 0, 64, 38
1, 224069, Control_c, 0, 64, 56
1, 224084, Control_c, 0, 64, 67
1, 224106, Control_c, 0, 64, 81
1, 224121, Control_c, 0, 64, 127
1, 224183, Note_off_c, 0, 48, 59
1, 224204, Note_on_c, 0, 55, 52
1, 224221, Note_on_c, 0, 79, 56
1, 224246, Note_off_c, 0, 87, 50
1, 224283, Note_off_c, 0, 79, 55
1, 224296, Note_off_c, 0, 84, 37
1, 224349, Note_off_c, 0, 55, 57
1, 224392, Note_on_c, 0, 59, 43
1, 224397, Note_on_c, 0, 86, 80
1, 224404, Note_on_c, 0, 77, 71
1, 224433, Note_off_c, 0, 77, 64
1, 224451, Note_off_c, 0, 86, 57
1, 224543, Note_off_c, 0, 59, 61
1, 224574, Note_on_c, 0, 84, 86
1, 224584, Note_on_c, 0, 75, 68
1, 224603, Note_on_c, 0, 60, 50
1, 224618, Note_off_c, 0, 75, 58
1, 224620, Note_off_c, 0, 84, 60
1, 224755, Note_off_c, 0, 60, 37
1, 224777, Note_on_c, 0, 61, 43
1, 224779, Note_on_c, 0, 82, 63
1, 224784, Note_on_c, 0, 53, 46
1, 224794, Note_on_c, 0, 76, 52
1, 224803, Control_c, 0, 64, 87
1, 224818, Control_c, 0, 64, 65
1, 224840, Control_c, 0, 64, 40
1, 224855, Control_c, 0, 64, 0
1, 224885, Control_c, 0, 64, 40
1, 224899, Control_c, 0, 64, 54
1, 224914, Control_c, 0, 64, 63
1, 224929, Control_c, 0, 64, 73
1, 224933, Note_off_c, 0, 61, 57
1, 224944, Control_c, 0, 64, 87
1, 224959, Control_c, 0, 64, 118
1, 224975, Control_c, 0, 64, 127
1, 224989, Note_on_c, 0, 80, 65
1, 224994, Note_on_c, 0, 77, 54
1, 225006, Note_on_c, 0, 60, 37
1, 225030, Note_off_c, 0, 77, 64
1, 225030, Note_off_c, 0, 80, 51
1, 225042, Note_off_c, 0, 82, 37
1, 225152, Control_c, 0, 64, 83
1, 225167, Note_off_c, 0, 76, 32
1, 225167, Control_c, 0, 64, 61
1, 225179, Note_on_c, 0, 79, 53
1, 225182, Control_c, 0, 64, 51
1, 225185, Note_on_c, 0, 75, 44
1, 225197, Control_c, 0, 64, 57
1, 225212, Control_c, 0, 64, 63
1, 225227, Control_c, 0, 64, 66
1, 225241, Control_c, 0, 64, 74
1, 225256, Control_c, 0, 64, 88
1, 225271, Control_c, 0, 64, 127
1, 225289, Note_off_c, 0, 75, 57
1, 225311, Note_off_c, 0, 53, 36
1, 225313, Note_off_c, 0, 60, 44
1, 225348, Note_on_c, 0, 74, 69
1, 225349, Note_on_c, 0, 77, 57
1, 225353, Note_on_c, 0, 62, 57
1, 225377, Note_off_c, 0, 62, 59
1, 225386, Note_off_c, 0, 74, 57
1, 225390, Note_off_c, 0, 79, 30
1, 225393, Note_off_c, 0, 77, 54
1, 225507, Control_c, 0, 64, 94
1, 225522, Control_c, 0, 64, 68
1, 225537, Control_c, 0, 64, 45
1, 225553, Control_c, 0, 64, 0
1, 225559, Note_on_c, 0, 43, 45
1, 225568, Control_c, 0, 64, 50
1, 225569, Note_on_c, 0, 77, 55
1, 225578, Note_on_c, 0, 74, 49
1, 225590, Control_c, 0, 64, 59
1, 225599, Note_off_c, 0, 43, 56
1, 225605, Control_c, 0, 64, 66
1, 225618, Note_off_c, 0, 77, 59
1, 225620, Control_c, 0, 64, 76
1, 225635, Note_off_c, 0, 74, 45
1, 225635, Control_c, 0, 64, 92
1, 225649, Control_c, 0, 64, 111
1, 225664, Control_c, 0, 64, 127
1, 225694, Control_c, 0, 67, 25
1, 225709, Control_c, 0, 67, 33
1, 225723, Control_c, 0, 67, 46
1, 225738, Control_c, 0, 67, 63
1, 225753, Control_c, 0, 67, 81
1, 225769, Control_c, 0, 67, 100
1, 225777, Note_on_c, 0, 55, 42
1, 225784, Control_c, 0, 67, 120
1, 225795, Note_on_c, 0, 60, 42
1, 225799, Control_c, 0, 67, 127
1, 225808, Note_off_c, 0, 55, 57
1, 225830, Note_off_c, 0, 60, 52
1, 225847, Note_on_c, 0, 75, 54
1, 225865, Note_on_c, 0, 72, 35
1, 225906, Note_off_c, 0, 72, 47
1, 225927, Note_off_c, 0, 75, 59
1, 225936, Note_on_c, 0, 77, 60
1, 225948, Note_on_c, 0, 55, 46
1, 225952, Note_on_c, 0, 74, 54
1, 225961, Note_on_c, 0, 63, 42
1, 225969, Note_on_c, 0, 60, 38
1, 225991, Note_off_c, 0, 63, 53
1, 225992, Note_off_c, 0, 55, 56
1, 225993, Note_off_c, 0, 74, 46
1, 226002, Note_off_c, 0, 60, 54
1, 226031, Note_on_c, 0, 72, 55
1, 226031, Note_off_c, 0, 77, 54
1, 226031, Note_on_c, 0, 75, 64
1, 226070, Note_off_c, 0, 72, 54
1, 226079, Note_on_c, 0, 63, 57
1, 226097, Note_on_c, 0, 55, 42
1, 226100, Note_on_c, 0, 77, 58
1, 226101, Note_off_c, 0, 75, 60
1, 226102, Note_off_c, 0, 63, 62
1, 226103, Note_on_c, 0, 60, 31
1, 226105, Note_on_c, 0, 74, 73
1, 226128, Note_off_c, 0, 55, 53
1, 226139, Note_off_c, 0, 60, 51
1, 226180, Note_off_c, 0, 74, 33
1, 226195, Note_on_c, 0, 75, 62
1, 226195, Note_off_c, 0, 77, 58
1, 226202, Note_on_c, 0, 72, 57
1, 226221, Note_off_c, 0, 72, 63
1, 226222, Note_off_c, 0, 75, 65
1, 226243, Control_c, 0, 64, 87
1, 226257, Control_c, 0, 64, 63
1, 226272, Control_c, 0, 64, 0
1, 226301, Note_on_c, 0, 75, 62
1, 226301, Control_c, 0, 64, 40
1, 226306, Note_on_c, 0, 72, 58
1, 226306, Note_on_c, 0, 43, 38
1, 226316, Control_c, 0, 64, 54
1, 226338, Control_c, 0, 64, 63
1, 226353, Control_c, 0, 64, 71
1, 226356, Note_off_c, 0, 43, 63
1, 226368, Control_c, 0, 64, 85
1, 226383, Control_c, 0, 64, 104
1, 226398, Control_c, 0, 64, 127
1, 226412, Control_c, 0, 67, 109
1, 226427, Control_c, 0, 67, 65
1, 226442, Control_c, 0, 67, 20
1, 226457, Control_c, 0, 67, 0
1, 226503, Note_on_c, 0, 62, 55
1, 226514, Note_on_c, 0, 55, 38
1, 226517, Note_off_c, 0, 75, 50
1, 226518, Note_off_c, 0, 72, 46
1, 226526, Note_on_c, 0, 65, 32
1, 226544, Note_off_c, 0, 55, 52
1, 226547, Note_off_c, 0, 62, 57
1, 226565, Note_off_c, 0, 65, 47
1, 226599, Note_on_c, 0, 74, 57
1, 226606, Note_on_c, 0, 71, 42
1, 226634, Note_off_c, 0, 74, 50
1, 226636, Note_off_c, 0, 71, 55
1, 226684, Note_on_c, 0, 75, 59
1, 226687, Note_on_c, 0, 55, 30
1, 226690, Note_on_c, 0, 72, 49
1, 226691, Note_on_c, 0, 62, 48
1, 226697, Note_on_c, 0, 65, 34
1, 226709, Control_c, 0, 67, 19
1, 226720, Note_off_c, 0, 72, 60
1, 226721, Note_off_c, 0, 62, 58
1, 226724, Control_c, 0, 67, 28
1, 226730, Note_off_c, 0, 55, 49
1, 226731, Note_off_c, 0, 65, 48
1, 226731, Note_off_c, 0, 75, 52
1, 226739, Control_c, 0, 67, 43
1, 226754, Control_c, 0, 67, 64
1, 226767, Note_on_c, 0, 74, 73
1, 226768, Control_c, 0, 67, 86
1, 226779, Note_on_c, 0, 71, 54
1, 226783, Control_c, 0, 67, 107
1, 226798, Control_c, 0, 67, 127
1, 226806, Note_off_c, 0, 71, 62
1, 226832, Note_on_c, 0, 62, 47
1, 226840, Note_off_c, 0, 74, 61
1, 226848, Note_on_c, 0, 75, 71
1, 226852, Note_on_c, 0, 55, 31
1, 226852, Note_on_c, 0, 72, 59
1, 226857, Note_off_c, 0, 62, 56
1, 226884, Note_off_c, 0, 55, 51
1, 226886, Note_off_c, 0, 72, 59
1, 226932, Note_on_c, 0, 71, 60
1, 226938, Note_off_c, 0, 75, 54
1, 226948, Note_on_c, 0, 74, 47
1, 226952, Note_off_c, 0, 71, 65
1, 226973, Note_off_c, 0, 74, 57
1, 227043, Note_on_c, 0, 53, 41
1, 227065, Control_c, 0, 64, 92
1, 227087, Control_c, 0, 64, 69
1, 227102, Control_c, 0, 64, 49
1, 227116, Control_c, 0, 64, 0
1, 227131, Control_c, 0, 64, 36
1, 227146, Control_c, 0, 64, 51
1, 227161, Control_c, 0, 64, 63
1, 227164, Note_on_c, 0, 83, 67
1, 227176, Control_c, 0, 64, 71
1, 227185, Note_on_c, 0, 80, 43
1, 227185, Note_on_c, 0, 74, 50
1, 227191, Control_c, 0, 64, 83
1, 227206, Control_c, 0, 64, 97
1, 227210, Note_off_c, 0, 53, 60
1, 227221, Control_c, 0, 64, 107
1, 227235, Control_c, 0, 64, 118
1, 227250, Control_c, 0, 64, 127
1, 227433, Note_on_c, 0, 71, 39
1, 227470, Note_off_c, 0, 71, 48
1, 227620, Note_on_c, 0, 62, 45
1, 227630, Note_on_c, 0, 71, 34
1, 227650, Note_on_c, 0, 68, 26
1, 227671, Note_off_c, 0, 62, 54
1, 227680, Note_off_c, 0, 71, 46
1, 227687, Note_off_c, 0, 68, 47
1, 227799, Note_on_c, 0, 68, 45
1, 227806, Note_on_c, 0, 62, 42
1, 227815, Note_on_c, 0, 71, 40
1, 227853, Note_off_c, 0, 62, 54
1, 227856, Note_off_c, 0, 68, 57
1, 227857, Note_off_c, 0, 71, 51
1, 227914, Note_off_c, 0, 83, 29
1, 227990, Note_on_c, 0, 62, 40
1, 227999, Note_on_c, 0, 68, 45
1, 228001, Note_on_c, 0, 71, 38
1, 228047, Note_off_c, 0, 62, 53
1, 228048, Note_off_c, 0, 68, 59
1, 228055, Note_off_c, 0, 71, 46
1, 228106, Note_off_c, 0, 74, 39
1, 228184, Note_on_c, 0, 68, 40
1, 228190, Note_on_c, 0, 62, 43
1, 228191, Note_on_c, 0, 71, 41
1, 228222, Note_off_c, 0, 71, 53
1, 228225, Note_off_c, 0, 62, 54
1, 228232, Note_off_c, 0, 68, 49
1, 228316, Note_off_c, 0, 80, 42
1, 228356, Note_on_c, 0, 62, 45
1, 228363, Note_on_c, 0, 68, 45
1, 228383, Note_on_c, 0, 71, 16
1, 228394, Note_off_c, 0, 68, 55
1, 228406, Note_off_c, 0, 62, 54
1, 228423, Note_off_c, 0, 71, 52
1, 228540, Note_on_c, 0, 71, 45
1, 228549, Note_on_c, 0, 68, 45
1, 228566, Note_off_c, 0, 71, 56
1, 228574, Note_off_c, 0, 68, 55
1, 228632, Poly_aftertouch_c, 0, 62, 0
1, 228734, Control_c, 0, 64, 102
1, 228748, Control_c, 0, 64, 75
1, 228763, Control_c, 0, 64, 57
1, 228765, Note_on_c, 0, 53, 41
1, 228778, Control_c, 0, 64, 49
1, 228792, Control_c, 0, 64, 55
1, 228807, Control_c, 0, 64, 63
1, 228812, Note_on_c, 0, 84, 71
1, 228822, Control_c, 0, 64, 71
1, 228827, Note_off_c, 0, 53, 62
1, 228831, Note_on_c, 0, 75, 47
1, 228837, Control_c, 0, 64, 84
1, 228852, Control_c, 0, 64, 110
1, 228854, Note_on_c, 0, 81, 40
1, 228866, Control_c, 0, 64, 127
1, 229060, Note_on_c, 0, 72, 30
1, 229061, Note_on_c, 0, 63, 30
1, 229065, Note_on_c, 0, 69, 28
1, 229103, Note_off_c, 0, 72, 48
1, 229111, Note_off_c, 0, 63, 46
1, 229118, Note_off_c, 0, 69, 43
1, 229251, Note_on_c, 0, 72, 35
1, 229251, Note_on_c, 0, 63, 39
1, 229272, Note_on_c, 0, 69, 31
1, 229289, Note_off_c, 0, 63, 50
1, 229292, Note_off_c, 0, 72, 47
1, 229309, Note_off_c, 0, 69, 51
1, 229434, Note_on_c, 0, 63, 42
1, 229442, Note_on_c, 0, 72, 37
1, 229449, Note_on_c, 0, 69, 37
1, 229492, Note_off_c, 0, 72, 49
1, 229494, Note_off_c, 0, 63, 53
1, 229500, Note_off_c, 0, 69, 45
1, 229635, Note_on_c, 0, 63, 41
1, 229642, Note_on_c, 0, 72, 34
1, 229659, Note_on_c, 0, 69, 31
1, 229694, Note_off_c, 0, 72, 45
1, 229704, Note_off_c, 0, 63, 49
1, 229709, Note_off_c, 0, 69, 45
1, 229769, Note_off_c, 0, 75, 38
1, 229818, Note_on_c, 0, 63, 32
1, 229841, Note_on_c, 0, 72, 34
1, 229851, Note_on_c, 0, 69, 37
1, 229876, Note_off_c, 0, 72, 50
1, 229889, Note_off_c, 0, 69, 50
1, 229917, Note_off_c, 0, 63, 37
1, 230015, Note_on_c, 0, 63, 30
1, 230027, Note_on_c, 0, 72, 31
1, 230032, Note_on_c, 0, 69, 39
1, 230064, Note_off_c, 0, 72, 50
1, 230068, Note_off_c, 0, 69, 52
1, 230086, Note_off_c, 0, 63, 50
1, 230131, Note_off_c, 0, 81, 35
1, 230224, Note_on_c, 0, 63, 31
1, 230271, Note_off_c, 0, 84, 33
1, 230279, Note_off_c, 0, 63, 60
1, 230281, Poly_aftertouch_c, 0, 69, 127
1, 230303, Poly_aftertouch_c, 0, 72, 0
1, 230319, Poly_aftertouch_c, 0, 69, 0
1, 230527, Control_c, 0, 64, 102
1, 230529, Note_on_c, 0, 52, 36
1, 230542, Control_c, 0, 64, 78
1, 230558, Control_c, 0, 64, 62
1, 230573, Control_c, 0, 64, 53
1, 230588, Control_c, 0, 64, 55
1, 230598, Note_on_c, 0, 84, 61
1, 230603, Control_c, 0, 64, 59
1, 230613, Note_on_c, 0, 81, 50
1, 230617, Note_on_c, 0, 76, 46
1, 230617, Control_c, 0, 64, 63
1, 230625, Note_off_c, 0, 52, 59
1, 230632, Control_c, 0, 64, 69
1, 230647, Control_c, 0, 64, 80
1, 230661, Control_c, 0, 64, 92
1, 230676, Control_c, 0, 64, 102
1, 230691, Control_c, 0, 64, 106
1, 230706, Control_c, 0, 64, 109
1, 230721, Control_c, 0, 64, 112
1, 230735, Control_c, 0, 64, 122
1, 230750, Control_c, 0, 64, 127
1, 230864, Note_on_c, 0, 69, 39
1, 230868, Note_on_c, 0, 72, 41
1, 230875, Note_on_c, 0, 64, 22
1, 230912, Note_off_c, 0, 72, 50
1, 230914, Note_off_c, 0, 64, 50
1, 230919, Note_off_c, 0, 69, 48
1, 231044, Note_on_c, 0, 64, 41
1, 231055, Note_on_c, 0, 69, 46
1, 231065, Note_on_c, 0, 72, 38
1, 231096, Note_off_c, 0, 84, 55
1, 231100, Note_off_c, 0, 72, 52
1, 231104, Note_off_c, 0, 64, 53
1, 231105, Note_off_c, 0, 69, 55
1, 231120, Note_off_c, 0, 81, 43
1, 231159, Note_off_c, 0, 76, 41
1, 231226, Note_on_c, 0, 72, 43
1, 231239, Note_on_c, 0, 64, 35
1, 231241, Note_on_c, 0, 69, 38
1, 231253, Note_off_c, 0, 72, 56
1, 231267, Note_off_c, 0, 69, 54
1, 231274, Note_off_c, 0, 64, 52
1, 231380, Control_c, 0, 64, 104
1, 231390, Note_on_c, 0, 64, 46
1, 231395, Control_c, 0, 64, 80
1, 231406, Note_on_c, 0, 83, 66
1, 231407, Note_on_c, 0, 71, 44
1, 231409, Control_c, 0, 64, 65
1, 231413, Note_on_c, 0, 80, 53
1, 231418, Note_on_c, 0, 68, 38
1, 231424, Control_c, 0, 64, 56
1, 231428, Note_on_c, 0, 76, 52
1, 231439, Control_c, 0, 64, 57
1, 231445, Note_off_c, 0, 71, 53
1, 231449, Note_off_c, 0, 68, 57
1, 231454, Control_c, 0, 64, 61
1, 231469, Control_c, 0, 64, 65
1, 231483, Control_c, 0, 64, 71
1, 231483, Control_c, 0, 67, 117
1, 231498, Control_c, 0, 64, 81
1, 231498, Control_c, 0, 67, 79
1, 231513, Control_c, 0, 64, 95
1, 231513, Control_c, 0, 67, 41
1, 231528, Control_c, 0, 64, 109
1, 231528, Control_c, 0, 67, 0
1, 231531, Note_off_c, 0, 64, 0
1, 231543, Control_c, 0, 64, 127
1, 231551, Note_on_c, 0, 64, 26
1, 231555, Note_off_c, 0, 80, 48
1, 231565, Note_on_c, 0, 68, 46
1, 231585, Note_on_c, 0, 71, 38
1, 231616, Note_off_c, 0, 71, 54
1, 231618, Note_off_c, 0, 76, 37
1, 231622, Note_off_c, 0, 68, 48
1, 231716, Note_off_c, 0, 64, 0
1, 231753, Poly_aftertouch_c, 0, 64, 127
1, 231758, Control_c, 0, 64, 93
1, 231773, Control_c, 0, 64, 72
1, 231780, Note_on_c, 0, 81, 74
1, 231787, Control_c, 0, 64, 58
1, 231789, Note_off_c, 0, 83, 56
1, 231793, Note_on_c, 0, 76, 52
1, 231796, Note_on_c, 0, 69, 38
1, 231799, Note_on_c, 0, 65, 38
1, 231802, Control_c, 0, 64, 49
1, 231802, Control_c, 0, 67, 22
1, 231807, Note_on_c, 0, 77, 48
1, 231817, Control_c, 0, 64, 53
1, 231817, Control_c, 0, 67, 28
1, 231832, Control_c, 0, 64, 57
1, 231832, Control_c, 0, 67, 38
1, 231839, Note_off_c, 0, 69, 54
1, 231847, Control_c, 0, 64, 63
1, 231847, Control_c, 0, 67, 53
1, 231862, Control_c, 0, 64, 71
1, 231862, Control_c, 0, 67, 72
1, 231876, Control_c, 0, 64, 82
1, 231876, Control_c, 0, 67, 92
1, 231888, Note_off_c, 0, 65, 36
1, 231891, Control_c, 0, 64, 95
1, 231891, Control_c, 0, 67, 111
1, 231906, Control_c, 0, 64, 105
1, 231906, Control_c, 0, 67, 127
1, 231916, Poly_aftertouch_c, 0, 64, 0
1, 231921, Control_c, 0, 64, 110
1, 231936, Control_c, 0, 64, 113
1, 231950, Control_c, 0, 64, 117
1, 231953, Poly_aftertouch_c, 0, 64, 127
1, 231959, Note_off_c, 0, 76, 37
1, 231960, Note_on_c, 0, 65, 24
1, 231965, Control_c, 0, 64, 127
1, 231966, Note_on_c, 0, 69, 45
1, 231999, Note_off_c, 0, 69, 55
1, 232006, Note_off_c, 0, 65, 48
1, 232041, Poly_aftertouch_c, 0, 64, 0
1, 232127, Control_c, 0, 64, 100
1, 232142, Control_c, 0, 64, 78
1, 232155, Note_on_c, 0, 64, 41
1, 232159, Control_c, 0, 64, 64
1, 232165, Note_on_c, 0, 80, 62
1, 232169, Note_off_c, 0, 81, 53
1, 232173, Note_on_c, 0, 68, 43
1, 232173, Control_c, 0, 64, 52
1, 232178, Note_on_c, 0, 76, 47
1, 232188, Control_c, 0, 64, 50
1, 232197, Note_off_c, 0, 77, 39
1, 232203, Control_c, 0, 64, 54
1, 232214, Note_off_c, 0, 68, 61
1, 232218, Control_c, 0, 64, 59
1, 232229, Note_off_c, 0, 64, 52
1, 232232, Control_c, 0, 64, 64
1, 232247, Control_c, 0, 64, 71
1, 232262, Control_c, 0, 64, 81
1, 232271, Note_off_c, 0, 76, 57
1, 232277, Control_c, 0, 64, 95
1, 232291, Control_c, 0, 64, 105
1, 232306, Control_c, 0, 64, 109
1, 232328, Control_c, 0, 64, 112
1, 232337, Note_on_c, 0, 64, 27
1, 232343, Control_c, 0, 64, 118
1, 232348, Note_on_c, 0, 68, 45
1, 232358, Control_c, 0, 64, 127
1, 232381, Note_off_c, 0, 80, 37
1, 232396, Note_off_c, 0, 68, 46
1, 232413, Note_off_c, 0, 64, 51
1, 232506, Control_c, 0, 64, 105
1, 232521, Control_c, 0, 64, 84
1, 232530, Note_on_c, 0, 77, 72
1, 232536, Control_c, 0, 64, 69
1, 232543, Note_on_c, 0, 74, 70
1, 232551, Control_c, 0, 64, 54
1, 232554, Note_on_c, 0, 64, 32
1, 232561, Note_on_c, 0, 69, 35
1, 232565, Note_on_c, 0, 72, 29
1, 232565, Control_c, 0, 64, 47
1, 232580, Control_c, 0, 64, 52
1, 232595, Control_c, 0, 64, 57
1, 232599, Note_off_c, 0, 72, 53
1, 232607, Note_off_c, 0, 64, 45
1, 232610, Control_c, 0, 64, 62
1, 232613, Note_off_c, 0, 69, 45
1, 232624, Control_c, 0, 64, 66
1, 232639, Control_c, 0, 64, 74
1, 232654, Control_c, 0, 64, 83
1, 232669, Control_c, 0, 64, 90
1, 232684, Control_c, 0, 64, 93
1, 232698, Control_c, 0, 64, 95
1, 232713, Control_c, 0, 64, 98
1, 232718, Note_on_c, 0, 64, 24
1, 232718, Note_on_c, 0, 72, 36
1, 232727, Note_on_c, 0, 69, 38
1, 232728, Control_c, 0, 64, 102
1, 232743, Control_c, 0, 64, 111
1, 232748, Note_off_c, 0, 72, 54
1, 232757, Control_c, 0, 64, 120
1, 232759, Note_off_c, 0, 69, 56
1, 232771, Note_off_c, 0, 74, 32
1, 232772, Control_c, 0, 64, 127
1, 232774, Note_off_c, 0, 64, 44
1, 232891, Control_c, 0, 64, 96
1, 232905, Control_c, 0, 64, 79
1, 232907, Note_off_c, 0, 77, 55
1, 232920, Control_c, 0, 64, 66
1, 232923, Note_on_c, 0, 64, 32
1, 232935, Note_on_c, 0, 76, 50
1, 232935, Control_c, 0, 64, 56
1, 232951, Note_on_c, 0, 71, 26
1, 232951, Control_c, 0, 64, 54
1, 232953, Note_on_c, 0, 74, 28
1, 232954, Note_on_c, 0, 68, 29
1, 232966, Control_c, 0, 64, 56
1, 232978, Note_off_c, 0, 64, 48
1, 232981, Control_c, 0, 64, 58
1, 232988, Note_off_c, 0, 71, 52
1, 232990, Note_off_c, 0, 68, 52
1, 232995, Control_c, 0, 64, 61
1, 233010, Control_c, 0, 64, 65
1, 233025, Control_c, 0, 64, 72
1, 233041, Control_c, 0, 64, 85
1, 233055, Control_c, 0, 64, 95
1, 233078, Control_c, 0, 64, 98
1, 233105, Note_on_c, 0, 64, 19
1, 233114, Note_on_c, 0, 68, 46
1, 233116, Note_on_c, 0, 71, 39
1, 233123, Control_c, 0, 64, 102
1, 233127, Note_off_c, 0, 74, 40
1, 233137, Control_c, 0, 64, 108
1, 233148, Note_off_c, 0, 68, 52
1, 233152, Control_c, 0, 64, 113
1, 233153, Note_off_c, 0, 71, 52
1, 233167, Control_c, 0, 64, 117
1, 233171, Note_off_c, 0, 64, 39
1, 233181, Control_c, 0, 64, 120
1, 233196, Control_c, 0, 64, 122
1, 233211, Control_c, 0, 64, 125
1, 233227, Note_off_c, 0, 76, 54
1, 233270, Control_c, 0, 64, 111
1, 233285, Control_c, 0, 64, 95
1, 233300, Control_c, 0, 64, 78
1, 233315, Control_c, 0, 64, 65
1, 233329, Control_c, 0, 64, 51
1, 233330, Note_on_c, 0, 72, 18
1, 233330, Note_on_c, 0, 77, 61
1, 233335, Note_on_c, 0, 64, 21
1, 233335, Note_on_c, 0, 74, 60
1, 233338, Note_on_c, 0, 69, 24
1, 233344, Control_c, 0, 64, 39
1, 233359, Control_c, 0, 64, 44
1, 233370, Note_off_c, 0, 72, 51
1, 233374, Control_c, 0, 64, 51
1, 233385, Note_off_c, 0, 69, 47
1, 233388, Note_off_c, 0, 64, 44
1, 233388, Control_c, 0, 64, 56
1, 233403, Control_c, 0, 64, 61
1, 233418, Control_c, 0, 64, 67
1, 233433, Control_c, 0, 64, 74
1, 233448, Control_c, 0, 64, 82
1, 233463, Control_c, 0, 64, 86
1, 233478, Note_on_c, 0, 64, 29
1, 233478, Control_c, 0, 64, 89
1, 233493, Control_c, 0, 64, 93
1, 233507, Control_c, 0, 64, 99
1, 233514, Note_on_c, 0, 72, 11
1, 233516, Note_on_c, 0, 69, 28
1, 233522, Control_c, 0, 64, 108
1, 233537, Control_c, 0, 64, 119
1, 233549, Note_off_c, 0, 74, 36
1, 233552, Control_c, 0, 64, 125
1, 233555, Note_off_c, 0, 69, 52
1, 233555, Note_off_c, 0, 72, 37
1, 233559, Note_off_c, 0, 64, 35
1, 233567, Control_c, 0, 64, 127
1, 233641, Control_c, 0, 64, 110
1, 233654, Note_off_c, 0, 77, 55
1, 233655, Control_c, 0, 64, 92
1, 233670, Control_c, 0, 64, 77
1, 233685, Control_c, 0, 64, 64
1, 233700, Control_c, 0, 64, 53
1, 233715, Control_c, 0, 64, 51
1, 233719, Note_on_c, 0, 76, 48
1, 233720, Note_on_c, 0, 64, 29
1, 233729, Control_c, 0, 64, 53
1, 233733, Note_on_c, 0, 68, 21
1, 233739, Note_on_c, 0, 74, 36
1, 233745, Control_c, 0, 64, 56
1, 233760, Control_c, 0, 64, 59
1, 233761, Note_off_c, 0, 64, 48
1, 233775, Control_c, 0, 64, 63
1, 233778, Note_off_c, 0, 68, 50
1, 233790, Control_c, 0, 64, 68
1, 233804, Control_c, 0, 64, 76
1, 233826, Control_c, 0, 64, 83
1, 233841, Control_c, 0, 64, 86
1, 233856, Control_c, 0, 64, 86
1, 233871, Control_c, 0, 64, 87
1, 233886, Control_c, 0, 64, 90
1, 233897, Note_on_c, 0, 64, 23
1, 233898, Note_on_c, 0, 68, 41
1, 233901, Control_c, 0, 64, 93
1, 233913, Note_on_c, 0, 71, 27
1, 233916, Control_c, 0, 64, 95
1, 233935, Note_off_c, 0, 74, 36
1, 233937, Note_off_c, 0, 64, 51
1, 233939, Note_off_c, 0, 68, 46
1, 233946, Control_c, 0, 64, 100
1, 233949, Note_off_c, 0, 71, 47
1, 233960, Control_c, 0, 64, 105
1, 233975, Control_c, 0, 64, 109
1, 233982, Note_off_c, 0, 76, 35
1, 234003, Note_on_c, 0, 79, 48
1, 234004, Control_c, 0, 64, 107
1, 234019, Control_c, 0, 64, 96
1, 234034, Control_c, 0, 64, 79
1, 234049, Control_c, 0, 64, 67
1, 234064, Note_off_c, 0, 79, 39
1, 234064, Control_c, 0, 64, 55
1, 234078, Control_c, 0, 64, 45
1, 234092, Note_on_c, 0, 77, 55
1, 234093, Control_c, 0, 64, 48
1, 234098, Note_on_c, 0, 64, 24
1, 234107, Note_on_c, 0, 72, 34
1, 234108, Note_on_c, 0, 69, 31
1, 234108, Control_c, 0, 64, 55
1, 234115, Note_on_c, 0, 74, 42
1, 234123, Control_c, 0, 64, 62
1, 234138, Control_c, 0, 64, 68
1, 234144, Note_off_c, 0, 72, 52
1, 234151, Note_off_c, 0, 64, 45
1, 234152, Control_c, 0, 64, 76
1, 234166, Note_off_c, 0, 69, 42
1, 234167, Control_c, 0, 64, 84
1, 234182, Control_c, 0, 64, 88
1, 234197, Control_c, 0, 64, 90
1, 234211, Control_c, 0, 64, 92
1, 234226, Control_c, 0, 64, 95
1, 234238, Note_off_c, 0, 77, 45
1, 234241, Control_c, 0, 64, 100
1, 234247, Note_off_c, 0, 74, 41
1, 234256, Control_c, 0, 64, 105
1, 234271, Control_c, 0, 64, 110
1, 234285, Control_c, 0, 64, 122
1, 234288, Note_on_c, 0, 72, 31
1, 234297, Note_on_c, 0, 64, 26
1, 234300, Note_on_c, 0, 69, 32
1, 234300, Control_c, 0, 64, 127
1, 234321, Note_off_c, 0, 72, 46
1, 234332, Note_off_c, 0, 64, 51
1, 234344, Note_off_c, 0, 69, 46
1, 234434, Control_c, 0, 64, 119
1, 234449, Control_c, 0, 64, 91
1, 234464, Control_c, 0, 64, 75
1, 234478, Control_c, 0, 64, 63
1, 234486, Note_on_c, 0, 69, 35
1, 234492, Note_on_c, 0, 64, 18
1, 234493, Control_c, 0, 64, 54
1, 234494, Note_on_c, 0, 76, 50
1, 234500, Note_on_c, 0, 74, 52
1, 234515, Note_on_c, 0, 71, 29
1, 234522, Control_c, 0, 64, 58
1, 234537, Control_c, 0, 64, 62
1, 234554, Control_c, 0, 64, 66
1, 234556, Note_off_c, 0, 71, 50
1, 234572, Note_off_c, 0, 69, 49
1, 234575, Control_c, 0, 64, 74
1, 234583, Note_off_c, 0, 64, 37
1, 234590, Control_c, 0, 64, 85
1, 234600, Note_off_c, 0, 74, 59
1, 234605, Control_c, 0, 64, 94
1, 234612, Note_off_c, 0, 76, 60
1, 234620, Control_c, 0, 64, 98
1, 234634, Control_c, 0, 64, 100
1, 234649, Control_c, 0, 64, 102
1, 234664, Control_c, 0, 64, 105
1, 234679, Control_c, 0, 64, 111
1, 234694, Control_c, 0, 64, 120
1, 234708, Note_on_c, 0, 64, 15
1, 234709, Control_c, 0, 64, 127
1, 234710, Note_on_c, 0, 69, 35
1, 234711, Note_on_c, 0, 71, 29
1, 234748, Note_off_c, 0, 71, 52
1, 234748, Note_off_c, 0, 69, 50
1, 234780, Note_off_c, 0, 64, 36
1, 234887, Control_c, 0, 64, 118
1, 234901, Control_c, 0, 64, 91
1, 234913, Note_on_c, 0, 64, 24
1, 234916, Control_c, 0, 64, 75
1, 234931, Control_c, 0, 64, 61
1, 234945, Control_c, 0, 64, 53
1, 234949, Note_on_c, 0, 68, 36
1, 234960, Note_on_c, 0, 71, 24
1, 234960, Control_c, 0, 64, 57
1, 234961, Note_on_c, 0, 76, 47
1, 234963, Note_on_c, 0, 74, 47
1, 234975, Control_c, 0, 64, 61
1, 234990, Control_c, 0, 64, 66
1, 234996, Note_off_c, 0, 64, 52
1, 234998, Note_off_c, 0, 71, 54
1, 235005, Control_c, 0, 64, 75
1, 235016, Note_off_c, 0, 68, 40
1, 235020, Control_c, 0, 64, 90
1, 235034, Control_c, 0, 64, 115
1, 235043, Note_off_c, 0, 74, 57
1, 235049, Note_off_c, 0, 76, 59
1, 235049, Control_c, 0, 64, 127
1, 235173, Note_on_c, 0, 64, 38
1, 235190, Note_on_c, 0, 71, 14
1, 235195, Note_on_c, 0, 68, 25
1, 235206, Note_off_c, 0, 64, 62
1, 235230, Note_off_c, 0, 68, 44
1, 235235, Note_off_c, 0, 71, 53
1, 235473, Control_c, 0, 64, 103
1, 235488, Control_c, 0, 64, 78
1, 235494, Note_on_c, 0, 45, 45
1, 235503, Control_c, 0, 64, 64
1, 235518, Control_c, 0, 64, 56
1, 235529, Note_on_c, 0, 76, 53
1, 235532, Control_c, 0, 64, 60
1, 235546, Note_on_c, 0, 72, 38
1, 235547, Control_c, 0, 64, 64
1, 235562, Control_c, 0, 64, 68
1, 235576, Control_c, 0, 64, 78
1, 235591, Control_c, 0, 64, 93
1, 235595, Note_off_c, 0, 45, 56
1, 235606, Control_c, 0, 64, 117
1, 235621, Control_c, 0, 64, 127
1, 235678, Note_off_c, 0, 72, 60
1, 235740, Control_c, 0, 67, 116
1, 235755, Control_c, 0, 67, 86
1, 235755, Note_on_c, 0, 60, 39
1, 235765, Note_on_c, 0, 57, 21
1, 235767, Note_on_c, 0, 64, 26
1, 235769, Control_c, 0, 67, 43
1, 235784, Control_c, 0, 67, 0
1, 235798, Note_off_c, 0, 60, 47
1, 235806, Note_off_c, 0, 64, 49
1, 235809, Note_off_c, 0, 57, 51
1, 235925, Note_off_c, 0, 76, 53
1, 235930, Note_on_c, 0, 57, 38
1, 235931, Note_on_c, 0, 60, 44
1, 235935, Note_on_c, 0, 74, 59
1, 235970, Note_off_c, 0, 60, 54
1, 235973, Note_off_c, 0, 57, 48
1, 235976, Control_c, 0, 67, 25
1, 235991, Control_c, 0, 67, 36
1, 236002, Poly_aftertouch_c, 0, 64, 0
1, 236006, Control_c, 0, 67, 50
1, 236012, Note_off_c, 0, 74, 54
1, 236013, Note_on_c, 0, 72, 57
1, 236021, Control_c, 0, 67, 63
1, 236036, Control_c, 0, 67, 77
1, 236050, Control_c, 0, 67, 92
1, 236073, Control_c, 0, 67, 109
1, 236083, Note_off_c, 0, 72, 63
1, 236088, Control_c, 0, 67, 127
1, 236092, Note_on_c, 0, 71, 67
1, 236134, Poly_aftertouch_c, 0, 60, 127
1, 236137, Note_off_c, 0, 71, 54
1, 236172, Note_on_c, 0, 69, 64
1, 236174, Poly_aftertouch_c, 0, 60, 0
1, 236237, Control_c, 0, 64, 79
1, 236250, Note_off_c, 0, 69, 58
1, 236252, Control_c, 0, 64, 62
1, 236267, Control_c, 0, 64, 52
1, 236281, Control_c, 0, 64, 56
1, 236284, Note_on_c, 0, 45, 47
1, 236296, Control_c, 0, 64, 62
1, 236301, Note_on_c, 0, 77, 66
1, 236311, Control_c, 0, 64, 69
1, 236326, Control_c, 0, 64, 84
1, 236329, Note_on_c, 0, 71, 33
1, 236330, Note_off_c, 0, 45, 62
1, 236341, Control_c, 0, 64, 106
1, 236355, Control_c, 0, 64, 127
1, 236499, Note_on_c, 0, 62, 43
1, 236502, Note_on_c, 0, 65, 46
1, 236509, Note_on_c, 0, 56, 31
1, 236545, Note_off_c, 0, 65, 48
1, 236546, Note_off_c, 0, 56, 50
1, 236553, Note_off_c, 0, 62, 56
1, 236592, Control_c, 0, 67, 121
1, 236593, Note_off_c, 0, 71, 36
1, 236607, Control_c, 0, 67, 99
1, 236622, Control_c, 0, 67, 59
1, 236637, Control_c, 0, 67, 0
1, 236669, Note_off_c, 0, 77, 55
1, 236673, Note_on_c, 0, 56, 48
1, 236680, Note_on_c, 0, 65, 46
1, 236683, Note_on_c, 0, 62, 55
1, 236716, Note_off_c, 0, 56, 55
1, 236718, Note_off_c, 0, 65, 51
1, 236724, Note_off_c, 0, 62, 58
1, 236840, Note_on_c, 0, 56, 52
1, 236851, Note_on_c, 0, 65, 30
1, 236859, Note_on_c, 0, 62, 38
1, 236870, Note_off_c, 0, 56, 63
1, 236890, Note_off_c, 0, 62, 54
1, 236894, Note_off_c, 0, 65, 45
1, 237000, Control_c, 0, 64, 92
1, 237015, Control_c, 0, 64, 70
1, 237029, Control_c, 0, 64, 56
1, 237044, Control_c, 0, 64, 58
1, 237049, Note_on_c, 0, 76, 75
1, 237055, Note_on_c, 0, 45, 48
1, 237059, Control_c, 0, 64, 62
1, 237067, Note_on_c, 0, 72, 55
1, 237074, Control_c, 0, 64, 66
1, 237089, Control_c, 0, 64, 74
1, 237102, Note_off_c, 0, 45, 61
1, 237103, Control_c, 0, 64, 91
1, 237118, Control_c, 0, 64, 127
1, 237154, Note_off_c, 0, 72, 38
1, 237244, Note_on_c, 0, 64, 49
1, 237267, Note_on_c, 0, 60, 21
1, 237268, Note_off_c, 0, 64, 59
1, 237287, Poly_aftertouch_c, 0, 57, 127
1, 237310, Note_off_c, 0, 60, 54
1, 237331, Poly_aftertouch_c, 0, 57, 0
1, 237385, Note_off_c, 0, 76, 54
1, 237429, Note_on_c, 0, 60, 54
1, 237430, Note_on_c, 0, 74, 78
1, 237432, Note_on_c, 0, 64, 46
1, 237444, Note_on_c, 0, 57, 44
1, 237460, Note_off_c, 0, 64, 55
1, 237475, Note_off_c, 0, 60, 59
1, 237478, Note_off_c, 0, 57, 53
1, 237503, Note_on_c, 0, 72, 76
1, 237538, Note_off_c, 0, 74, 62
1, 237572, Note_on_c, 0, 64, 43
1, 237585, Note_on_c, 0, 57, 37
1, 237590, Note_off_c, 0, 72, 65
1, 237597, Note_on_c, 0, 71, 77
1, 237603, Note_off_c, 0, 64, 48
1, 237615, Note_off_c, 0, 57, 54
1, 237642, Note_off_c, 0, 71, 59
1, 237658, Note_on_c, 0, 69, 68
1, 237746, Note_off_c, 0, 69, 60
1, 237749, Control_c, 0, 64, 77
1, 237764, Control_c, 0, 64, 57
1, 237777, Note_on_c, 0, 45, 56
1, 237778, Control_c, 0, 64, 34
1, 237793, Control_c, 0, 64, 44
1, 237803, Note_on_c, 0, 80, 81
1, 237808, Control_c, 0, 64, 57
1, 237812, Note_on_c, 0, 71, 60
1, 237823, Control_c, 0, 64, 64
1, 237832, Note_off_c, 0, 45, 60
1, 237838, Control_c, 0, 64, 76
1, 237852, Control_c, 0, 64, 107
1, 237867, Control_c, 0, 64, 127
1, 237910, Note_off_c, 0, 71, 55
1, 237982, Note_off_c, 0, 80, 61
1, 238019, Note_on_c, 0, 65, 46
1, 238026, Note_on_c, 0, 62, 27
1, 238050, Note_off_c, 0, 65, 53
1, 238056, Poly_aftertouch_c, 0, 57, 127
1, 238065, Note_off_c, 0, 62, 49
1, 238101, Poly_aftertouch_c, 0, 57, 0
1, 238170, Note_on_c, 0, 62, 58
1, 238172, Note_on_c, 0, 65, 55
1, 238188, Note_on_c, 0, 57, 31
1, 238209, Note_off_c, 0, 65, 61
1, 238214, Note_off_c, 0, 62, 56
1, 238227, Note_off_c, 0, 57, 51
1, 238339, Note_on_c, 0, 57, 57
1, 238352, Note_on_c, 0, 65, 51
1, 238356, Note_on_c, 0, 62, 54
1, 238379, Note_off_c, 0, 65, 55
1, 238397, Note_off_c, 0, 62, 60
1, 238398, Note_off_c, 0, 57, 55
1, 238527, Control_c, 0, 64, 109
1, 238542, Control_c, 0, 64, 76
1, 238550, Note_on_c, 0, 64, 47
1, 238554, Note_on_c, 0, 60, 44
1, 238554, Note_on_c, 0, 57, 41
1, 238556, Note_on_c, 0, 81, 82
1, 238557, Control_c, 0, 64, 59
1, 238564, Note_on_c, 0, 72, 63
1, 238572, Control_c, 0, 64, 51
1, 238587, Control_c, 0, 64, 58
1, 238602, Control_c, 0, 64, 64
1, 238605, Note_off_c, 0, 57, 52
1, 238606, Note_off_c, 0, 60, 58
1, 238607, Note_off_c, 0, 64, 53
1, 238617, Control_c, 0, 64, 74
1, 238632, Control_c, 0, 64, 96
1, 238647, Control_c, 0, 64, 127
1, 238708, Note_off_c, 0, 72, 52
1, 238719, Note_on_c, 0, 60, 59
1, 238727, Note_off_c, 0, 81, 56
1, 238739, Note_off_c, 0, 60, 64
1, 238745, Note_on_c, 0, 64, 16
1, 238787, Note_off_c, 0, 64, 51
1, 238814, Poly_aftertouch_c, 0, 57, 0
1, 238904, Note_on_c, 0, 81, 85
1, 238912, Note_on_c, 0, 73, 82
1, 238913, Control_c, 0, 64, 88
1, 238917, Note_on_c, 0, 64, 63
1, 238920, Note_on_c, 0, 57, 66
1, 238921, Note_on_c, 0, 55, 59
1, 238927, Control_c, 0, 64, 68
1, 238942, Control_c, 0, 64, 60
1, 238957, Control_c, 0, 64, 63
1, 238960, Note_off_c, 0, 64, 55
1, 238967, Note_off_c, 0, 55, 55
1, 238972, Control_c, 0, 64, 70
1, 238987, Control_c, 0, 64, 83
1, 238998, Note_off_c, 0, 57, 58
1, 239001, Control_c, 0, 64, 127
1, 239010, Note_on_c, 0, 74, 92
1, 239016, Note_off_c, 0, 73, 63
1, 239088, Note_on_c, 0, 57, 54
1, 239088, Note_on_c, 0, 64, 57
1, 239100, Note_on_c, 0, 55, 42
1, 239100, Note_on_c, 0, 76, 90
1, 239109, Note_off_c, 0, 64, 63
1, 239114, Note_off_c, 0, 57, 62
1, 239116, Note_off_c, 0, 74, 58
1, 239124, Note_off_c, 0, 81, 62
1, 239126, Note_off_c, 0, 55, 54
1, 239180, Note_on_c, 0, 73, 87
1, 239227, Note_off_c, 0, 76, 61
1, 239246, Control_c, 0, 64, 87
1, 239261, Control_c, 0, 64, 65
1, 239273, Note_on_c, 0, 74, 103
1, 239276, Control_c, 0, 64, 52
1, 239276, Note_on_c, 0, 53, 63
1, 239278, Note_on_c, 0, 62, 65
1, 239278, Note_on_c, 0, 81, 94
1, 239281, Note_on_c, 0, 57, 52
1, 239290, Control_c, 0, 64, 57
1, 239293, Note_off_c, 0, 73, 63
1, 239305, Control_c, 0, 64, 65
1, 239317, Note_off_c, 0, 62, 53
1, 239320, Control_c, 0, 64, 79
1, 239335, Control_c, 0, 64, 118
1, 239342, Note_off_c, 0, 53, 51
1, 239350, Control_c, 0, 64, 127
1, 239362, Note_off_c, 0, 74, 60
1, 239368, Note_off_c, 0, 57, 53
1, 239436, Note_off_c, 0, 81, 59
1, 239437, Note_on_c, 0, 57, 61
1, 239437, Note_on_c, 0, 62, 76
1, 239441, Note_on_c, 0, 53, 64
1, 239462, Note_off_c, 0, 62, 66
1, 239467, Note_off_c, 0, 53, 68
1, 239471, Note_off_c, 0, 57, 64
1, 239618, Note_on_c, 0, 76, 90
1, 239618, Note_on_c, 0, 81, 92
1, 239627, Note_on_c, 0, 52, 52
1, 239632, Note_on_c, 0, 61, 67
1, 239634, Note_on_c, 0, 57, 61
1, 239671, Note_off_c, 0, 61, 56
1, 239672, Note_off_c, 0, 52, 59
1, 239700, Note_on_c, 0, 77, 93
1, 239704, Note_off_c, 0, 57, 59
1, 239736, Note_off_c, 0, 81, 63
1, 239746, Note_off_c, 0, 76, 33
1, 239782, Note_on_c, 0, 61, 73
1, 239790, Note_on_c, 0, 79, 94
1, 239791, Note_on_c, 0, 52, 59
1, 239817, Note_off_c, 0, 77, 65
1, 239818, Note_off_c, 0, 61, 64
1, 239827, Note_off_c, 0, 52, 67
1, 239834, Note_on_c, 0, 57, 9
1, 239862, Note_off_c, 0, 79, 60
1, 239878, Note_on_c, 0, 76, 99
1, 239882, Note_off_c, 0, 57, 53
1, 240041, Note_on_c, 0, 38, 57
1, 240054, Control_c, 0, 64, 76
1, 240057, Note_off_c, 0, 76, 60
1, 240068, Control_c, 0, 64, 53
1, 240083, Control_c, 0, 64, 0
1, 240108, Note_on_c, 0, 82, 95
1, 240113, Control_c, 0, 64, 38
1, 240119, Note_on_c, 0, 79, 69
1, 240128, Control_c, 0, 64, 59
1, 240143, Note_off_c, 0, 38, 63
1, 240144, Control_c, 0, 64, 72
1, 240159, Control_c, 0, 64, 101
1, 240173, Control_c, 0, 64, 127
1, 240323, Note_on_c, 0, 62, 52
1, 240325, Note_on_c, 0, 50, 48
1, 240325, Note_off_c, 0, 79, 63
1, 240331, Note_on_c, 0, 57, 48
1, 240353, Note_off_c, 0, 82, 59
1, 240371, Note_off_c, 0, 50, 57
1, 240371, Note_off_c, 0, 62, 51
1, 240378, Note_off_c, 0, 57, 60
1, 240483, Note_on_c, 0, 50, 61
1, 240495, Note_on_c, 0, 57, 58
1, 240498, Note_on_c, 0, 62, 51
1, 240529, Note_off_c, 0, 50, 53
1, 240529, Note_off_c, 0, 62, 50
1, 240638, Note_off_c, 0, 57, 0
1, 240656, Note_on_c, 0, 57, 36
1, 240665, Note_on_c, 0, 50, 58
1, 240680, Note_on_c, 0, 81, 89
1, 240683, Note_off_c, 0, 57, 62
1, 240683, Note_on_c, 0, 62, 10
1, 240686, Note_on_c, 0, 77, 82
1, 240691, Note_off_c, 0, 50, 65
1, 240719, Note_off_c, 0, 62, 48
1, 240833, Control_c, 0, 64, 83
1, 240847, Control_c, 0, 64, 61
1, 240862, Control_c, 0, 64, 0
1, 240872, Note_on_c, 0, 79, 79
1, 240877, Control_c, 0, 64, 39
1, 240879, Note_on_c, 0, 38, 42
1, 240882, Note_on_c, 0, 76, 79
1, 240888, Note_off_c, 0, 77, 58
1, 240891, Control_c, 0, 64, 55
1, 240906, Control_c, 0, 64, 64
1, 240921, Control_c, 0, 64, 77
1, 240930, Note_off_c, 0, 38, 61
1, 240937, Control_c, 0, 64, 98
1, 240952, Control_c, 0, 64, 127
1, 241053, Note_on_c, 0, 77, 84
1, 241058, Note_on_c, 0, 74, 88
1, 241059, Note_off_c, 0, 76, 64
1, 241069, Note_on_c, 0, 57, 57
1, 241085, Note_on_c, 0, 50, 30
1, 241090, Note_off_c, 0, 79, 62
1, 241096, Note_off_c, 0, 81, 41
1, 241097, Note_off_c, 0, 57, 63
1, 241127, Note_off_c, 0, 50, 48
1, 241135, Note_off_c, 0, 77, 63
1, 241228, Note_on_c, 0, 57, 50
1, 241239, Note_on_c, 0, 76, 88
1, 241246, Note_on_c, 0, 50, 50
1, 241249, Note_on_c, 0, 72, 76
1, 241255, Note_off_c, 0, 74, 59
1, 241264, Note_off_c, 0, 57, 62
1, 241285, Note_off_c, 0, 50, 49
1, 241401, Note_on_c, 0, 74, 93
1, 241412, Note_on_c, 0, 71, 77
1, 241427, Note_off_c, 0, 76, 62
1, 241446, Note_off_c, 0, 72, 25
1, 241466, Note_off_c, 0, 74, 51
1, 241522, Note_off_c, 0, 71, 60
1, 241582, Control_c, 0, 64, 90
1, 241596, Control_c, 0, 64, 67
1, 241601, Note_on_c, 0, 40, 43
1, 241611, Control_c, 0, 64, 37
1, 241619, Note_on_c, 0, 74, 57
1, 241621, Note_on_c, 0, 71, 60
1, 241626, Control_c, 0, 64, 0
1, 241640, Control_c, 0, 64, 46
1, 241655, Control_c, 0, 64, 60
1, 241670, Control_c, 0, 64, 68
1, 241678, Note_off_c, 0, 40, 60
1, 241685, Control_c, 0, 64, 79
1, 241700, Control_c, 0, 64, 95
1, 241714, Control_c, 0, 64, 127
1, 241812, Note_off_c, 0, 74, 36
1, 241818, Note_on_c, 0, 60, 54
1, 241824, Note_on_c, 0, 52, 38
1, 241825, Note_on_c, 0, 57, 43
1, 241834, Note_off_c, 0, 71, 56
1, 241845, Note_off_c, 0, 60, 59
1, 241857, Note_off_c, 0, 52, 50
1, 241860, Note_off_c, 0, 57, 54
1, 241893, Control_c, 0, 64, 92
1, 241907, Note_on_c, 0, 72, 63
1, 241908, Control_c, 0, 64, 67
1, 241909, Note_on_c, 0, 69, 62
1, 241923, Control_c, 0, 64, 46
1, 241937, Control_c, 0, 64, 0
1, 241943, Note_off_c, 0, 69, 60
1, 241952, Control_c, 0, 64, 45
1, 241967, Control_c, 0, 64, 58
1, 241982, Control_c, 0, 64, 68
1, 241988, Note_off_c, 0, 72, 57
1, 241989, Note_on_c, 0, 71, 69
1, 241992, Note_on_c, 0, 52, 41
1, 241994, Note_on_c, 0, 74, 71
1, 241997, Control_c, 0, 64, 84
1, 241998, Note_on_c, 0, 60, 42
1, 242008, Note_on_c, 0, 57, 38
1, 242012, Control_c, 0, 64, 120
1, 242026, Note_off_c, 0, 60, 56
1, 242027, Control_c, 0, 64, 127
1, 242032, Note_off_c, 0, 52, 56
1, 242046, Note_off_c, 0, 57, 50
1, 242072, Note_on_c, 0, 69, 73
1, 242075, Note_off_c, 0, 71, 60
1, 242077, Note_on_c, 0, 72, 71
1, 242081, Note_off_c, 0, 74, 60
1, 242137, Note_off_c, 0, 69, 41
1, 242142, Note_off_c, 0, 72, 62
1, 242145, Note_on_c, 0, 52, 47
1, 242146, Note_on_c, 0, 71, 72
1, 242146, Note_on_c, 0, 74, 71
1, 242173, Note_off_c, 0, 52, 55
1, 242191, Poly_aftertouch_c, 0, 57, 127
1, 242227, Note_on_c, 0, 72, 73
1, 242229, Note_off_c, 0, 71, 63
1, 242233, Poly_aftertouch_c, 0, 57, 0
1, 242240, Note_off_c, 0, 74, 61
1, 242254, Note_on_c, 0, 69, 52
1, 242256, Note_off_c, 0, 72, 63
1, 242278, Note_off_c, 0, 69, 57
1, 242286, Control_c, 0, 64, 96
1, 242301, Control_c, 0, 64, 68
1, 242316, Control_c, 0, 64, 0
1, 242325, Note_on_c, 0, 40, 42
1, 242340, Note_on_c, 0, 72, 67
1, 242355, Note_on_c, 0, 69, 66
1, 242375, Control_c, 0, 64, 40
1, 242389, Note_off_c, 0, 40, 62
1, 242390, Control_c, 0, 64, 60
1, 242405, Control_c, 0, 64, 72
1, 242419, Control_c, 0, 64, 88
1, 242434, Control_c, 0, 64, 127
1, 242455, Note_off_c, 0, 72, 59
1, 242523, Note_on_c, 0, 59, 47
1, 242526, Note_on_c, 0, 52, 52
1, 242527, Note_on_c, 0, 62, 54
1, 242536, Note_off_c, 0, 69, 46
1, 242552, Note_off_c, 0, 62, 58
1, 242554, Note_off_c, 0, 59, 53
1, 242555, Note_off_c, 0, 52, 55
1, 242625, Note_on_c, 0, 68, 62
1, 242629, Note_on_c, 0, 71, 59
1, 242701, Note_off_c, 0, 68, 57
1, 242703, Note_on_c, 0, 69, 68
1, 242713, Note_on_c, 0, 62, 62
1, 242717, Note_on_c, 0, 52, 49
1, 242717, Note_off_c, 0, 71, 62
1, 242720, Note_on_c, 0, 59, 45
1, 242721, Note_on_c, 0, 72, 67
1, 242740, Note_off_c, 0, 62, 63
1, 242751, Note_off_c, 0, 52, 58
1, 242751, Note_off_c, 0, 59, 55
1, 242793, Note_off_c, 0, 69, 62
1, 242796, Note_on_c, 0, 68, 74
1, 242796, Note_on_c, 0, 71, 75
1, 242816, Note_off_c, 0, 72, 59
1, 242838, Note_off_c, 0, 68, 52
1, 242869, Note_on_c, 0, 59, 43
1, 242873, Note_on_c, 0, 52, 49
1, 242877, Note_on_c, 0, 72, 61
1, 242878, Note_on_c, 0, 69, 71
1, 242880, Note_off_c, 0, 71, 63
1, 242895, Note_off_c, 0, 59, 57
1, 242897, Note_off_c, 0, 52, 59
1, 242941, Note_on_c, 0, 68, 86
1, 242947, Note_off_c, 0, 69, 63
1, 242950, Note_on_c, 0, 71, 74
1, 242960, Note_off_c, 0, 72, 61
1, 242969, Note_off_c, 0, 68, 57
1, 242972, Note_off_c, 0, 71, 70
1, 243043, Note_on_c, 0, 45, 64
1, 243130, Note_on_c, 0, 84, 94
1, 243145, Note_on_c, 0, 81, 79
1, 243154, Control_c, 0, 64, 91
1, 243168, Control_c, 0, 64, 68
1, 243183, Control_c, 0, 64, 46
1, 243198, Control_c, 0, 64, 0
1, 243212, Control_c, 0, 64, 41
1, 243227, Control_c, 0, 64, 53
1, 243242, Control_c, 0, 64, 62
1, 243257, Control_c, 0, 64, 71
1, 243272, Control_c, 0, 64, 88
1, 243286, Control_c, 0, 64, 127
1, 243309, Note_off_c, 0, 45, 60
1, 243336, Note_on_c, 0, 52, 53
1, 243350, Note_on_c, 0, 76, 72
1, 243368, Note_off_c, 0, 84, 59
1, 243416, Note_off_c, 0, 76, 61
1, 243496, Note_off_c, 0, 81, 62
1, 243532, Note_on_c, 0, 83, 85
1, 243535, Note_off_c, 0, 52, 54
1, 243536, Note_on_c, 0, 56, 55
1, 243538, Note_on_c, 0, 74, 77
1, 243573, Note_off_c, 0, 74, 65
1, 243588, Note_off_c, 0, 83, 63
1, 243708, Note_off_c, 0, 56, 60
1, 243708, Note_on_c, 0, 81, 87
1, 243733, Note_on_c, 0, 72, 52
1, 243742, Note_on_c, 0, 57, 51
1, 243769, Note_off_c, 0, 81, 59
1, 243798, Note_off_c, 0, 72, 0
1, 243798, Note_on_c, 0, 72, 24
1, 243860, Note_off_c, 0, 72, 55
1, 243902, Note_off_c, 0, 57, 51
1, 243907, Note_on_c, 0, 50, 43
1, 243914, Note_on_c, 0, 58, 48
1, 243921, Note_on_c, 0, 73, 58
1, 243926, Note_on_c, 0, 79, 63
1, 243947, Control_c, 0, 64, 85
1, 243962, Control_c, 0, 64, 65
1, 243977, Control_c, 0, 64, 46
1, 243991, Control_c, 0, 64, 0
1, 244006, Control_c, 0, 64, 43
1, 244021, Control_c, 0, 64, 54
1, 244036, Control_c, 0, 64, 60
1, 244036, Control_c, 0, 67, 22
1, 244051, Control_c, 0, 64, 65
1, 244051, Control_c, 0, 67, 27
1, 244066, Control_c, 0, 64, 74
1, 244066, Control_c, 0, 67, 34
1, 244069, Note_off_c, 0, 58, 61
1, 244081, Control_c, 0, 64, 89
1, 244081, Control_c, 0, 67, 43
1, 244096, Control_c, 0, 64, 120
1, 244096, Control_c, 0, 67, 56
1, 244096, Note_off_c, 0, 73, 61
1, 244104, Note_on_c, 0, 74, 74
1, 244107, Note_on_c, 0, 77, 71
1, 244110, Control_c, 0, 64, 127
1, 244110, Control_c, 0, 67, 73
1, 244111, Note_on_c, 0, 57, 43
1, 244125, Control_c, 0, 67, 91
1, 244138, Note_off_c, 0, 79, 60
1, 244140, Control_c, 0, 67, 104
1, 244155, Control_c, 0, 67, 115
1, 244170, Control_c, 0, 67, 124
1, 244173, Note_off_c, 0, 77, 59
1, 244185, Control_c, 0, 67, 127
1, 244224, Note_off_c, 0, 74, 61
1, 244289, Control_c, 0, 64, 81
1, 244293, Note_on_c, 0, 76, 67
1, 244311, Control_c, 0, 64, 58
1, 244316, Note_on_c, 0, 72, 51
1, 244326, Control_c, 0, 64, 0
1, 244355, Control_c, 0, 64, 41
1, 244370, Control_c, 0, 64, 58
1, 244385, Control_c, 0, 64, 67
1, 244400, Control_c, 0, 64, 77
1, 244415, Control_c, 0, 64, 89
1, 244429, Control_c, 0, 64, 99
1, 244444, Control_c, 0, 64, 109
1, 244452, Note_off_c, 0, 57, 48
1, 244454, Note_off_c, 0, 50, 34
1, 244459, Control_c, 0, 64, 125
1, 244473, Note_off_c, 0, 72, 50
1, 244474, Control_c, 0, 64, 127
1, 244476, Note_on_c, 0, 59, 54
1, 244484, Note_on_c, 0, 74, 72
1, 244495, Note_off_c, 0, 76, 33
1, 244498, Note_off_c, 0, 59, 60
1, 244501, Note_on_c, 0, 71, 55
1, 244519, Note_off_c, 0, 74, 59
1, 244591, Note_off_c, 0, 71, 53
1, 244637, Control_c, 0, 64, 90
1, 244652, Control_c, 0, 64, 71
1, 244666, Control_c, 0, 64, 57
1, 244676, Note_on_c, 0, 74, 63
1, 244681, Control_c, 0, 64, 50
1, 244695, Note_on_c, 0, 40, 23
1, 244696, Control_c, 0, 64, 57
1, 244699, Note_on_c, 0, 71, 30
1, 244711, Control_c, 0, 64, 63
1, 244726, Control_c, 0, 64, 71
1, 244737, Note_off_c, 0, 40, 61
1, 244740, Control_c, 0, 64, 83
1, 244755, Control_c, 0, 64, 98
1, 244770, Control_c, 0, 64, 110
1, 244784, Control_c, 0, 64, 117
1, 244799, Control_c, 0, 64, 119
1, 244844, Control_c, 0, 64, 125
1, 244850, Note_off_c, 0, 74, 35
1, 244859, Control_c, 0, 64, 127
1, 244886, Note_on_c, 0, 57, 46
1, 244889, Control_c, 0, 67, 102
1, 244892, Note_on_c, 0, 60, 46
1, 244903, Control_c, 0, 67, 55
1, 244909, Note_on_c, 0, 52, 21
1, 244918, Control_c, 0, 67, 0
1, 244924, Note_off_c, 0, 71, 42
1, 244933, Note_off_c, 0, 60, 49
1, 244941, Note_off_c, 0, 57, 57
1, 244952, Note_off_c, 0, 52, 51
1, 244978, Note_on_c, 0, 72, 48
1, 244987, Note_on_c, 0, 69, 39
1, 245020, Note_off_c, 0, 69, 50
1, 245038, Note_off_c, 0, 72, 58
1, 245064, Note_on_c, 0, 74, 64
1, 245067, Note_on_c, 0, 71, 53
1, 245069, Note_on_c, 0, 52, 51
1, 245091, Note_on_c, 0, 57, 42
1, 245103, Note_off_c, 0, 71, 63
1, 245103, Control_c, 0, 67, 24
1, 245113, Note_off_c, 0, 52, 57
1, 245118, Control_c, 0, 67, 30
1, 245121, Poly_aftertouch_c, 0, 60, 127
1, 245129, Note_off_c, 0, 57, 52
1, 245133, Control_c, 0, 67, 38
1, 245136, Note_off_c, 0, 74, 37
1, 245142, Note_on_c, 0, 69, 57
1, 245148, Control_c, 0, 67, 52
1, 245154, Note_on_c, 0, 72, 64
1, 245162, Control_c, 0, 67, 66
1, 245167, Poly_aftertouch_c, 0, 60, 0
1, 245177, Control_c, 0, 67, 81
1, 245187, Note_off_c, 0, 69, 50
1, 245192, Control_c, 0, 67, 97
1, 245205, Note_off_c, 0, 72, 50
1, 245207, Control_c, 0, 67, 110
1, 245216, Note_on_c, 0, 71, 69
1, 245222, Control_c, 0, 67, 121
1, 245228, Note_on_c, 0, 74, 69
1, 245236, Control_c, 0, 67, 127
1, 245246, Note_on_c, 0, 57, 21
1, 245254, Note_on_c, 0, 52, 5
1, 245264, Note_off_c, 0, 71, 51
1, 245274, Note_off_c, 0, 74, 0
1, 245287, Note_off_c, 0, 57, 45
1, 245294, Note_off_c, 0, 52, 53
1, 245303, Poly_aftertouch_c, 0, 74, 0
1, 245309, Note_on_c, 0, 69, 64
1, 245312, Note_on_c, 0, 72, 70
1, 245349, Note_off_c, 0, 69, 55
1, 245369, Control_c, 0, 64, 86
1, 245374, Note_off_c, 0, 72, 42
1, 245384, Control_c, 0, 64, 66
1, 245399, Control_c, 0, 64, 36
1, 245403, Note_on_c, 0, 71, 58
1, 245404, Note_on_c, 0, 74, 71
1, 245413, Control_c, 0, 64, 0
1, 245419, Note_on_c, 0, 39, 41
1, 245428, Control_c, 0, 64, 34
1, 245443, Control_c, 0, 64, 51
1, 245458, Control_c, 0, 64, 63
1, 245461, Note_off_c, 0, 39, 63
1, 245473, Control_c, 0, 64, 73
1, 245488, Control_c, 0, 64, 88
1, 245503, Control_c, 0, 64, 127
1, 245606, Note_on_c, 0, 60, 52
1, 245610, Note_on_c, 0, 51, 46
1, 245622, Note_on_c, 0, 57, 33
1, 245625, Note_off_c, 0, 74, 55
1, 245643, Note_off_c, 0, 60, 54
1, 245645, Note_off_c, 0, 51, 54
1, 245649, Note_off_c, 0, 71, 43
1, 245666, Control_c, 0, 67, 122
1, 245674, Note_off_c, 0, 57, 47
1, 245680, Control_c, 0, 67, 86
1, 245695, Control_c, 0, 67, 36
1, 245699, Note_on_c, 0, 69, 53
1, 245705, Note_on_c, 0, 72, 48
1, 245710, Control_c, 0, 67, 0
1, 245732, Note_off_c, 0, 69, 58
1, 245764, Note_off_c, 0, 72, 41
1, 245781, Note_on_c, 0, 74, 65
1, 245783, Note_on_c, 0, 71, 56
1, 245790, Note_on_c, 0, 51, 42
1, 245813, Note_on_c, 0, 57, 39
1, 245823, Note_off_c, 0, 71, 65
1, 245834, Note_off_c, 0, 51, 55
1, 245843, Poly_aftertouch_c, 0, 60, 127
1, 245861, Note_off_c, 0, 57, 45
1, 245878, Note_on_c, 0, 72, 69
1, 245880, Note_off_c, 0, 74, 30
1, 245883, Note_on_c, 0, 69, 55
1, 245905, Note_off_c, 0, 69, 63
1, 245907, Poly_aftertouch_c, 0, 60, 0
1, 245907, Note_off_c, 0, 72, 62
1, 245937, Note_on_c, 0, 51, 50
1, 245952, Note_on_c, 0, 71, 66
1, 245953, Note_on_c, 0, 74, 58
1, 245959, Note_off_c, 0, 51, 61
1, 245982, Note_off_c, 0, 71, 66
1, 246031, Note_on_c, 0, 72, 70
1, 246038, Note_on_c, 0, 69, 52
1, 246043, Note_off_c, 0, 74, 59
1, 246061, Note_off_c, 0, 69, 63
1, 246089, Note_off_c, 0, 72, 60
1, 246090, Control_c, 0, 64, 101
1, 246104, Control_c, 0, 64, 73
1, 246119, Control_c, 0, 64, 52
1, 246134, Control_c, 0, 64, 0
1, 246135, Note_on_c, 0, 40, 48
1, 246159, Note_on_c, 0, 71, 67
1, 246164, Control_c, 0, 64, 48
1, 246176, Note_on_c, 0, 68, 58
1, 246178, Control_c, 0, 64, 63
1, 246184, Note_off_c, 0, 40, 58
1, 246193, Control_c, 0, 64, 74
1, 246208, Control_c, 0, 64, 91
1, 246223, Control_c, 0, 64, 127
1, 246309, Note_off_c, 0, 68, 31
1, 246329, Note_on_c, 0, 59, 54
1, 246340, Note_on_c, 0, 52, 44
1, 246344, Note_on_c, 0, 56, 37
1, 246363, Note_off_c, 0, 59, 60
1, 246371, Note_off_c, 0, 52, 54
1, 246377, Note_off_c, 0, 56, 51
1, 246504, Note_on_c, 0, 56, 43
1, 246509, Note_on_c, 0, 52, 30
1, 246529, Note_on_c, 0, 59, 38
1, 246531, Note_on_c, 0, 76, 81
1, 246545, Note_off_c, 0, 71, 34
1, 246561, Note_off_c, 0, 52, 46
1, 246562, Note_off_c, 0, 56, 59
1, 246564, Note_off_c, 0, 76, 65
1, 246571, Note_off_c, 0, 59, 57
1, 246735, Note_on_c, 0, 64, 46
1, 246736, Note_on_c, 0, 56, 34
1, 246739, Note_on_c, 0, 59, 37
1, 246764, Note_off_c, 0, 64, 53
1, 246772, Note_off_c, 0, 59, 52
1, 246773, Note_off_c, 0, 56, 49
1, 246980, Note_on_c, 0, 56, 24
1, 246986, Control_c, 0, 64, 85
1, 246987, Note_on_c, 0, 53, 62
1, 247001, Control_c, 0, 64, 67
1, 247008, Note_on_c, 0, 59, 17
1, 247008, Note_on_c, 0, 64, 27
1, 247016, Control_c, 0, 64, 52
1, 247031, Control_c, 0, 64, 51
1, 247046, Control_c, 0, 64, 58
1, 247055, Note_off_c, 0, 64, 45
1, 247060, Control_c, 0, 64, 63
1, 247067, Note_off_c, 0, 59, 46
1, 247075, Control_c, 0, 64, 69
1, 247090, Control_c, 0, 64, 85
1, 247105, Control_c, 0, 64, 127
1, 247116, Note_off_c, 0, 56, 37
1, 247165, Note_off_c, 0, 53, 57
1, 247181, Note_on_c, 0, 64, 52
1, 247186, Note_on_c, 0, 56, 20
1, 247191, Note_on_c, 0, 59, 41
1, 247206, Note_off_c, 0, 64, 58
1, 247220, Note_off_c, 0, 59, 56
1, 247229, Note_off_c, 0, 56, 50
1, 247259, Note_on_c, 0, 52, 66
1, 247350, Control_c, 0, 64, 95
1, 247354, Note_on_c, 0, 56, 52
1, 247357, Note_on_c, 0, 53, 74
1, 247363, Note_on_c, 0, 59, 37
1, 247363, Note_off_c, 0, 52, 56
1, 247364, Control_c, 0, 64, 72
1, 247372, Note_on_c, 0, 64, 45
1, 247379, Control_c, 0, 64, 59
1, 247394, Control_c, 0, 64, 57
1, 247398, Note_off_c, 0, 64, 55
1, 247404, Note_off_c, 0, 59, 49
1, 247408, Control_c, 0, 64, 62
1, 247414, Note_off_c, 0, 56, 53
1, 247423, Control_c, 0, 64, 69
1, 247427, Note_on_c, 0, 52, 56
1, 247434, Note_off_c, 0, 53, 62
1, 247438, Control_c, 0, 64, 78
1, 247453, Control_c, 0, 64, 91
1, 247468, Control_c, 0, 64, 102
1, 247482, Control_c, 0, 64, 111
1, 247497, Control_c, 0, 64, 127
1, 247515, Note_on_c, 0, 59, 39
1, 247515, Note_on_c, 0, 64, 45
1, 247517, Note_off_c, 0, 52, 62
1, 247518, Note_on_c, 0, 53, 73
1, 247543, Note_off_c, 0, 59, 54
1, 247554, Note_off_c, 0, 64, 50
1, 247571, Poly_aftertouch_c, 0, 56, 127
1, 247600, Note_off_c, 0, 53, 61
1, 247601, Note_on_c, 0, 52, 71
1, 247604, Poly_aftertouch_c, 0, 56, 0
1, 247646, Control_c, 0, 64, 105
1, 247661, Control_c, 0, 64, 89
1, 247675, Control_c, 0, 64, 76
1, 247690, Control_c, 0, 64, 63
1, 247694, Note_off_c, 0, 52, 62
1, 247700, Note_on_c, 0, 57, 47
1, 247704, Note_on_c, 0, 64, 42
1, 247705, Control_c, 0, 64, 47
1, 247709, Note_on_c, 0, 53, 65
1, 247717, Note_on_c, 0, 60, 35
1, 247720, Control_c, 0, 64, 0
1, 247744, Note_off_c, 0, 57, 59
1, 247754, Note_off_c, 0, 64, 57
1, 247766, Note_off_c, 0, 60, 46
1, 247783, Note_on_c, 0, 52, 68
1, 247784, Note_off_c, 0, 53, 61
1, 247865, Note_off_c, 0, 52, 62
1, 247868, Note_on_c, 0, 53, 76
1, 247875, Note_on_c, 0, 57, 42
1, 247875, Note_on_c, 0, 60, 54
1, 247875, Note_on_c, 0, 64, 56
1, 247919, Note_off_c, 0, 64, 57
1, 247920, Note_off_c, 0, 57, 60
1, 247920, Note_off_c, 0, 60, 58
1, 247947, Note_on_c, 0, 52, 81
1, 247981, Note_off_c, 0, 53, 63
1, 248039, Note_on_c, 0, 50, 82
1, 248056, Note_on_c, 0, 64, 58
1, 248058, Note_on_c, 0, 60, 55
1, 248076, Note_off_c, 0, 52, 63
1, 248082, Note_on_c, 0, 57, 12
1, 248104, Note_off_c, 0, 64, 54
1, 248105, Note_off_c, 0, 60, 56
1, 248122, Note_on_c, 0, 48, 80
1, 248123, Note_off_c, 0, 50, 63
1, 248129, Note_off_c, 0, 57, 39
1, 248205, Note_off_c, 0, 48, 64
1, 248206, Note_on_c, 0, 50, 84
1, 248224, Note_on_c, 0, 64, 56
1, 248232, Note_on_c, 0, 60, 54
1, 248249, Note_off_c, 0, 64, 58
1, 248264, Poly_aftertouch_c, 0, 57, 127
1, 248276, Note_off_c, 0, 60, 59
1, 248278, Note_off_c, 0, 50, 60
1, 248285, Note_on_c, 0, 48, 82
1, 248301, Poly_aftertouch_c, 0, 57, 0
1, 248317, Note_off_c, 0, 48, 65
1, 248379, Note_on_c, 0, 47, 73
1, 248392, Note_on_c, 0, 60, 54
1, 248397, Note_on_c, 0, 63, 50
1, 248406, Note_on_c, 0, 57, 42
1, 248435, Note_off_c, 0, 60, 61
1, 248439, Note_off_c, 0, 57, 53
1, 248440, Note_off_c, 0, 63, 61
1, 248454, Note_on_c, 0, 45, 77
1, 248457, Note_off_c, 0, 47, 64
1, 248531, Note_off_c, 0, 45, 62
1, 248534, Note_on_c, 0, 47, 66
1, 248555, Note_on_c, 0, 57, 46
1, 248555, Note_on_c, 0, 60, 52
1, 248555, Note_on_c, 0, 63, 48
1, 248597, Note_off_c, 0, 63, 62
1, 248603, Note_off_c, 0, 60, 59
1, 248609, Note_off_c, 0, 57, 54
1, 248610, Note_on_c, 0, 45, 55
1, 248620, Note_off_c, 0, 47, 63
1, 248700, Note_off_c, 0, 45, 63
1, 248707, Note_on_c, 0, 57, 34
1, 248713, Note_on_c, 0, 44, 64
1, 248727, Note_on_c, 0, 60, 55
1, 248736, Note_on_c, 0, 63, 44
1, 248746, Note_off_c, 0, 57, 64
1, 248776, Note_off_c, 0, 60, 55
1, 248778, Note_off_c, 0, 63, 60
1, 248787, Note_off_c, 0, 44, 63
1, 248814, Note_on_c, 0, 45, 64
1, 248871, Note_off_c, 0, 45, 61
1, 248895, Note_on_c, 0, 63, 58
1, 248902, Note_on_c, 0, 44, 55
1, 248929, Poly_aftertouch_c, 0, 60, 127
1, 248940, Note_off_c, 0, 44, 65
1, 248970, Note_off_c, 0, 63, 57
1, 248973, Note_on_c, 0, 45, 56
1, 248973, Poly_aftertouch_c, 0, 60, 0
1, 249084, Note_on_c, 0, 40, 56
1, 249085, Control_c, 0, 64, 35
1, 249089, Note_on_c, 0, 56, 40
1, 249094, Note_on_c, 0, 64, 38
1, 249100, Control_c, 0, 64, 57
1, 249103, Note_on_c, 0, 59, 25
1, 249115, Control_c, 0, 64, 67
1, 249127, Note_off_c, 0, 40, 62
1, 249128, Note_off_c, 0, 45, 25
1, 249129, Control_c, 0, 64, 75
1, 249137, Note_off_c, 0, 64, 49
1, 249144, Control_c, 0, 64, 85
1, 249150, Note_off_c, 0, 56, 41
1, 249150, Note_off_c, 0, 59, 45
1, 249159, Control_c, 0, 64, 96
1, 249173, Control_c, 0, 64, 111
1, 249188, Control_c, 0, 64, 127
1, 249271, Note_on_c, 0, 59, 41
1, 249273, Note_on_c, 0, 64, 39
1, 249274, Note_on_c, 0, 56, 26
1, 249304, Note_off_c, 0, 64, 52
1, 249311, Note_off_c, 0, 59, 47
1, 249324, Note_off_c, 0, 56, 44
1, 249454, Note_on_c, 0, 56, 39
1, 249461, Note_on_c, 0, 59, 35
1, 249461, Note_on_c, 0, 64, 27
1, 249477, Note_on_c, 0, 76, 63
1, 249505, Note_off_c, 0, 59, 46
1, 249509, Note_off_c, 0, 64, 45
1, 249517, Note_off_c, 0, 76, 59
1, 249527, Note_off_c, 0, 56, 44
1, 249619, Note_on_c, 0, 56, 35
1, 249639, Note_on_c, 0, 59, 44
1, 249640, Note_on_c, 0, 64, 37
1, 249659, Note_off_c, 0, 56, 55
1, 249670, Note_off_c, 0, 59, 53
1, 249670, Note_off_c, 0, 64, 52
1, 249834, Note_on_c, 0, 59, 37
1, 249834, Control_c, 0, 64, 110
1, 249849, Control_c, 0, 64, 81
1, 249854, Note_on_c, 0, 89, 67
1, 249859, Note_on_c, 0, 62, 37
1, 249864, Control_c, 0, 64, 68
1, 249867, Note_on_c, 0, 64, 19
1, 249878, Control_c, 0, 64, 63
1, 249893, Control_c, 0, 64, 65
1, 249903, Note_off_c, 0, 59, 54
1, 249906, Note_off_c, 0, 62, 54
1, 249908, Control_c, 0, 64, 69
1, 249909, Note_off_c, 0, 64, 47
1, 249923, Control_c, 0, 64, 75
1, 249938, Control_c, 0, 64, 85
1, 249952, Control_c, 0, 64, 110
1, 249967, Control_c, 0, 64, 127
1, 250031, Note_on_c, 0, 59, 37
1, 250043, Note_on_c, 0, 62, 35
1, 250046, Note_on_c, 0, 64, 19
1, 250069, Note_off_c, 0, 59, 51
1, 250085, Note_off_c, 0, 62, 48
1, 250090, Note_off_c, 0, 64, 48
1, 250106, Note_off_c, 0, 89, 33
1, 250135, Note_on_c, 0, 88, 57
1, 250202, Note_on_c, 0, 59, 38
1, 250206, Note_on_c, 0, 62, 44
1, 250217, Note_off_c, 0, 88, 61
1, 250222, Note_on_c, 0, 89, 73
1, 250228, Note_on_c, 0, 64, 19
1, 250242, Note_off_c, 0, 59, 51
1, 250251, Note_off_c, 0, 62, 58
1, 250269, Note_off_c, 0, 64, 51
1, 250310, Note_off_c, 0, 89, 63
1, 250319, Note_on_c, 0, 88, 74
1, 250375, Note_on_c, 0, 59, 44
1, 250381, Note_off_c, 0, 88, 64
1, 250382, Note_on_c, 0, 62, 41
1, 250389, Note_on_c, 0, 89, 71
1, 250398, Note_on_c, 0, 64, 34
1, 250427, Note_off_c, 0, 62, 57
1, 250432, Note_off_c, 0, 64, 46
1, 250433, Note_off_c, 0, 59, 52
1, 250468, Note_off_c, 0, 89, 62
1, 250472, Note_on_c, 0, 88, 75
1, 250523, Control_c, 0, 64, 83
1, 250538, Control_c, 0, 64, 64
1, 250553, Control_c, 0, 64, 43
1, 250561, Note_on_c, 0, 64, 35
1, 250568, Control_c, 0, 64, 37
1, 250569, Note_on_c, 0, 57, 35
1, 250570, Note_off_c, 0, 88, 63
1, 250577, Note_on_c, 0, 60, 36
1, 250582, Control_c, 0, 64, 46
1, 250583, Note_on_c, 0, 93, 58
1, 250597, Control_c, 0, 64, 55
1, 250612, Control_c, 0, 64, 64
1, 250618, Note_off_c, 0, 64, 47
1, 250622, Note_off_c, 0, 57, 59
1, 250627, Note_off_c, 0, 60, 58
1, 250627, Control_c, 0, 64, 73
1, 250642, Control_c, 0, 64, 87
1, 250657, Control_c, 0, 64, 108
1, 250658, Note_off_c, 0, 93, 61
1, 250672, Control_c, 0, 64, 127
1, 250678, Note_on_c, 0, 88, 55
1, 250732, Note_on_c, 0, 64, 41
1, 250740, Note_off_c, 0, 88, 56
1, 250742, Note_on_c, 0, 60, 45
1, 250757, Note_on_c, 0, 57, 28
1, 250757, Note_on_c, 0, 93, 63
1, 250775, Note_off_c, 0, 64, 52
1, 250785, Note_off_c, 0, 60, 57
1, 250797, Note_off_c, 0, 57, 49
1, 250836, Note_on_c, 0, 88, 78
1, 250879, Note_off_c, 0, 93, 34
1, 250904, Note_on_c, 0, 64, 49
1, 250911, Note_on_c, 0, 60, 47
1, 250921, Note_on_c, 0, 57, 32
1, 250925, Note_on_c, 0, 86, 74
1, 250935, Note_off_c, 0, 64, 55
1, 250954, Note_off_c, 0, 88, 61
1, 250955, Note_off_c, 0, 60, 58
1, 250972, Note_off_c, 0, 57, 45
1, 250981, Note_off_c, 0, 86, 63
1, 251002, Note_on_c, 0, 84, 72
1, 251071, Note_off_c, 0, 84, 62
1, 251075, Note_on_c, 0, 86, 74
1, 251089, Note_on_c, 0, 64, 43
1, 251089, Note_on_c, 0, 60, 47
1, 251095, Note_on_c, 0, 57, 32
1, 251123, Note_off_c, 0, 64, 49
1, 251141, Note_off_c, 0, 57, 46
1, 251145, Note_off_c, 0, 86, 62
1, 251145, Note_off_c, 0, 60, 52
1, 251160, Note_on_c, 0, 84, 72
1, 251193, Note_off_c, 0, 84, 61
1, 251241, Control_c, 0, 64, 94
1, 251253, Note_on_c, 0, 60, 40
1, 251256, Note_on_c, 0, 83, 66
1, 251256, Control_c, 0, 64, 71
1, 251261, Note_on_c, 0, 57, 32
1, 251262, Note_on_c, 0, 63, 42
1, 251271, Control_c, 0, 64, 50
1, 251286, Control_c, 0, 64, 42
1, 251299, Note_off_c, 0, 60, 49
1, 251300, Control_c, 0, 64, 52
1, 251306, Note_off_c, 0, 57, 46
1, 251309, Note_off_c, 0, 63, 60
1, 251315, Control_c, 0, 64, 61
1, 251331, Control_c, 0, 64, 68
1, 251339, Note_off_c, 0, 83, 63
1, 251346, Control_c, 0, 64, 78
1, 251347, Note_on_c, 0, 81, 63
1, 251361, Control_c, 0, 64, 92
1, 251375, Control_c, 0, 64, 113
1, 251390, Control_c, 0, 64, 127
1, 251413, Note_off_c, 0, 81, 62
1, 251420, Note_on_c, 0, 63, 52
1, 251423, Note_on_c, 0, 83, 62
1, 251432, Note_on_c, 0, 60, 49
1, 251439, Note_on_c, 0, 57, 36
1, 251464, Note_off_c, 0, 63, 60
1, 251473, Note_off_c, 0, 60, 57
1, 251488, Note_off_c, 0, 57, 44
1, 251508, Note_on_c, 0, 81, 70
1, 251521, Note_off_c, 0, 83, 49
1, 251581, Note_on_c, 0, 57, 38
1, 251589, Note_on_c, 0, 63, 43
1, 251598, Note_on_c, 0, 60, 49
1, 251604, Note_off_c, 0, 81, 61
1, 251614, Note_on_c, 0, 80, 63
1, 251629, Note_off_c, 0, 63, 57
1, 251639, Note_off_c, 0, 60, 56
1, 251674, Note_off_c, 0, 80, 60
1, 251694, Note_on_c, 0, 81, 72
1, 251752, Note_on_c, 0, 63, 49
1, 251755, Note_off_c, 0, 81, 62
1, 251757, Note_on_c, 0, 60, 47
1, 251759, Note_off_c, 0, 57, 52
1, 251778, Note_on_c, 0, 80, 69
1, 251804, Note_off_c, 0, 63, 56
1, 251811, Note_off_c, 0, 60, 49
1, 251821, Note_off_c, 0, 80, 56
1, 251868, Note_on_c, 0, 81, 68
1, 251872, Control_c, 0, 64, 108
1, 251887, Control_c, 0, 64, 83
1, 251902, Control_c, 0, 64, 65
1, 251917, Control_c, 0, 64, 46
1, 251931, Control_c, 0, 64, 36
1, 251946, Control_c, 0, 64, 46
1, 251959, Note_on_c, 0, 56, 36
1, 251960, Note_off_c, 0, 81, 52
1, 251961, Control_c, 0, 64, 57
1, 251962, Note_on_c, 0, 76, 67
1, 251974, Note_on_c, 0, 64, 34
1, 251975, Control_c, 0, 64, 69
1, 251980, Note_on_c, 0, 59, 33
1, 251990, Control_c, 0, 64, 82
1, 252001, Note_off_c, 0, 76, 62
1, 252005, Control_c, 0, 64, 105
1, 252012, Note_off_c, 0, 56, 53
1, 252020, Control_c, 0, 64, 127
1, 252022, Note_off_c, 0, 59, 49
1, 252023, Note_off_c, 0, 64, 46
1, 252141, Note_on_c, 0, 59, 35
1, 252194, Note_off_c, 0, 59, 42
1, 252194, Poly_aftertouch_c, 0, 64, 127
1, 252221, Poly_aftertouch_c, 0, 64, 0
1, 252315, Note_on_c, 0, 52, 66
1, 252330, Note_on_c, 0, 59, 36
1, 252335, Note_on_c, 0, 56, 36
1, 252341, Note_on_c, 0, 64, 42
1, 252348, Note_off_c, 0, 52, 64
1, 252374, Note_off_c, 0, 64, 53
1, 252388, Note_off_c, 0, 59, 50
1, 252389, Note_off_c, 0, 56, 44
1, 252485, Note_on_c, 0, 56, 47
1, 252485, Note_on_c, 0, 64, 52
1, 252486, Note_on_c, 0, 59, 59
1, 252517, Note_off_c, 0, 56, 55
1, 252520, Note_off_c, 0, 59, 60
1, 252528, Note_off_c, 0, 64, 59
1, 252651, Control_c, 0, 64, 77
1, 252666, Control_c, 0, 64, 56
1, 252680, Control_c, 0, 64, 41
1, 252687, Note_on_c, 0, 77, 96
1, 252695, Control_c, 0, 64, 61
1, 252710, Control_c, 0, 64, 81
1, 252722, Note_on_c, 0, 64, 59
1, 252724, Control_c, 0, 64, 127
1, 252725, Note_on_c, 0, 60, 59
1, 252728, Note_on_c, 0, 57, 45
1, 252728, Note_off_c, 0, 77, 67
1, 252756, Note_off_c, 0, 64, 63
1, 252758, Note_off_c, 0, 57, 58
1, 252764, Note_off_c, 0, 60, 59
1, 252859, Note_on_c, 0, 57, 46
1, 252862, Note_on_c, 0, 64, 36
1, 252867, Note_on_c, 0, 60, 46
1, 252895, Note_off_c, 0, 64, 52
1, 252900, Note_off_c, 0, 60, 51
1, 252901, Note_off_c, 0, 57, 56
1, 253063, Note_on_c, 0, 51, 84
1, 253074, Note_on_c, 0, 57, 41
1, 253082, Note_on_c, 0, 60, 51
1, 253084, Note_on_c, 0, 64, 49
1, 253094, Note_off_c, 0, 51, 64
1, 253119, Note_off_c, 0, 64, 63
1, 253122, Note_off_c, 0, 57, 58
1, 253131, Note_off_c, 0, 60, 59
1, 253228, Note_on_c, 0, 57, 43
1, 253241, Note_on_c, 0, 60, 51
1, 253259, Note_off_c, 0, 57, 53
1, 253283, Note_off_c, 0, 60, 61
1, 253330, Poly_aftertouch_c, 0, 64, 0
1, 253385, Control_c, 0, 64, 86
1, 253400, Control_c, 0, 64, 59
1, 253415, Control_c, 0, 64, 0
1, 253427, Note_on_c, 0, 76, 100
1, 253444, Control_c, 0, 64, 61
1, 253448, Note_on_c, 0, 56, 55
1, 253453, Note_on_c, 0, 64, 54
1, 253459, Control_c, 0, 64, 77
1, 253465, Note_on_c, 0, 59, 46
1, 253473, Note_off_c, 0, 76, 66
1, 253474, Control_c, 0, 64, 127
1, 253487, Note_off_c, 0, 64, 64
1, 253497, Note_off_c, 0, 56, 51
1, 253499, Note_off_c, 0, 59, 62
1, 253590, Note_on_c, 0, 59, 51
1, 253590, Note_on_c, 0, 64, 47
1, 253608, Note_on_c, 0, 56, 37
1, 253636, Note_off_c, 0, 59, 57
1, 253641, Note_off_c, 0, 56, 51
1, 253646, Note_off_c, 0, 64, 41
1, 253800, Note_on_c, 0, 52, 92
1, 253823, Note_on_c, 0, 56, 55
1, 253825, Note_on_c, 0, 59, 57
1, 253825, Note_on_c, 0, 64, 60
1, 253827, Note_off_c, 0, 52, 66
1, 253860, Note_off_c, 0, 56, 58
1, 253864, Note_off_c, 0, 64, 60
1, 253867, Note_off_c, 0, 59, 59
1, 253963, Note_on_c, 0, 59, 58
1, 253966, Note_on_c, 0, 56, 44
1, 253981, Note_on_c, 0, 64, 52
1, 253993, Note_off_c, 0, 56, 55
1, 254010, Note_off_c, 0, 64, 57
1, 254010, Note_off_c, 0, 59, 55
1, 254104, Control_c, 0, 64, 116
1, 254119, Control_c, 0, 64, 71
1, 254134, Control_c, 0, 64, 43
1, 254149, Control_c, 0, 64, 33
1, 254155, Note_on_c, 0, 77, 96
1, 254164, Control_c, 0, 64, 59
1, 254178, Control_c, 0, 64, 72
1, 254186, Note_on_c, 0, 57, 50
1, 254188, Note_on_c, 0, 64, 54
1, 254192, Note_off_c, 0, 77, 67
1, 254193, Control_c, 0, 64, 97
1, 254195, Note_on_c, 0, 60, 51
1, 254208, Control_c, 0, 64, 127
1, 254215, Note_off_c, 0, 64, 59
1, 254222, Note_off_c, 0, 57, 54
1, 254236, Note_off_c, 0, 60, 61
1, 254340, Note_on_c, 0, 57, 45
1, 254349, Note_on_c, 0, 64, 46
1, 254350, Note_on_c, 0, 60, 48
1, 254388, Note_off_c, 0, 57, 57
1, 254388, Note_off_c, 0, 64, 50
1, 254400, Note_off_c, 0, 60, 57
1, 254538, Note_on_c, 0, 51, 76
1, 254561, Note_on_c, 0, 57, 43
1, 254567, Note_off_c, 0, 51, 67
1, 254573, Note_on_c, 0, 64, 32
1, 254576, Note_on_c, 0, 60, 33
1, 254601, Note_off_c, 0, 64, 52
1, 254609, Note_off_c, 0, 60, 52
1, 254612, Note_off_c, 0, 57, 49
1, 254708, Note_on_c, 0, 64, 48
1, 254711, Note_on_c, 0, 60, 53
1, 254741, Poly_aftertouch_c, 0, 57, 127
1, 254744, Note_off_c, 0, 64, 55
1, 254762, Note_off_c, 0, 60, 58
1, 254798, Poly_aftertouch_c, 0, 57, 0
1, 254839, Control_c, 0, 64, 100
1, 254854, Control_c, 0, 64, 69
1, 254868, Control_c, 0, 64, 0
1, 254898, Control_c, 0, 64, 40
1, 254913, Note_on_c, 0, 64, 42
1, 254913, Control_c, 0, 64, 58
1, 254923, Note_on_c, 0, 59, 35
1, 254923, Note_on_c, 0, 76, 77
1, 254927, Control_c, 0, 64, 69
1, 254942, Control_c, 0, 64, 90
1, 254944, Note_on_c, 0, 56, 26
1, 254957, Control_c, 0, 64, 127
1, 254966, Note_off_c, 0, 76, 60
1, 254967, Note_off_c, 0, 64, 58
1, 254982, Note_off_c, 0, 59, 57
1, 254991, Note_off_c, 0, 56, 46
1, 255016, Control_c, 0, 67, 27
1, 255031, Control_c, 0, 67, 45
1, 255046, Control_c, 0, 67, 70
1, 255061, Control_c, 0, 67, 99
1, 255074, Note_on_c, 0, 64, 45
1, 255075, Control_c, 0, 67, 127
1, 255105, Note_off_c, 0, 64, 51
1, 255118, Poly_aftertouch_c, 0, 56, 127
1, 255126, Poly_aftertouch_c, 0, 59, 127
1, 255167, Poly_aftertouch_c, 0, 56, 0
1, 255183, Poly_aftertouch_c, 0, 59, 0
1, 255262, Note_on_c, 0, 52, 66
1, 255274, Note_on_c, 0, 59, 28
1, 255276, Note_on_c, 0, 56, 38
1, 255279, Note_on_c, 0, 64, 37
1, 255292, Note_off_c, 0, 52, 65
1, 255319, Note_off_c, 0, 64, 53
1, 255327, Note_off_c, 0, 59, 53
1, 255328, Note_off_c, 0, 56, 50
1, 255435, Note_on_c, 0, 64, 44
1, 255468, Note_on_c, 0, 59, 19
1, 255468, Note_off_c, 0, 64, 51
1, 255501, Poly_aftertouch_c, 0, 56, 127
1, 255511, Note_off_c, 0, 59, 46
1, 255545, Poly_aftertouch_c, 0, 56, 0
1, 255616, Control_c, 0, 64, 81
1, 255620, Note_on_c, 0, 80, 71
1, 255631, Control_c, 0, 64, 61
1, 255642, Note_off_c, 0, 80, 58
1, 255646, Control_c, 0, 64, 0
1, 255660, Note_on_c, 0, 59, 30
1, 255672, Note_on_c, 0, 56, 15
1, 255697, Note_off_c, 0, 59, 50
1, 255713, Note_off_c, 0, 56, 40
1, 255805, Note_on_c, 0, 64, 48
1, 255810, Note_on_c, 0, 56, 51
1, 255810, Note_on_c, 0, 59, 45
1, 255828, Note_off_c, 0, 64, 54
1, 255848, Note_off_c, 0, 56, 59
1, 255848, Note_off_c, 0, 59, 60
1, 255967, Note_on_c, 0, 83, 70
1, 255975, Note_on_c, 0, 56, 47
1, 255989, Note_off_c, 0, 83, 69
1, 255995, Note_on_c, 0, 59, 28
1, 256014, Note_off_c, 0, 56, 59
1, 256029, Note_off_c, 0, 59, 49
1, 256134, Note_on_c, 0, 70, 54
1, 256136, Note_on_c, 0, 59, 47
1, 256138, Note_on_c, 0, 56, 40
1, 256156, Note_off_c, 0, 70, 64
1, 256174, Note_off_c, 0, 56, 56
1, 256174, Note_off_c, 0, 59, 61
1, 256306, Control_c, 0, 64, 46
1, 256306, Control_c, 0, 67, 113
1, 256312, Note_on_c, 0, 88, 87
1, 256321, Control_c, 0, 64, 69
1, 256321, Control_c, 0, 67, 59
1, 256332, Note_on_c, 0, 56, 44
1, 256336, Control_c, 0, 64, 96
1, 256336, Control_c, 0, 67, 0
1, 256341, Note_on_c, 0, 59, 38
1, 256343, Note_off_c, 0, 88, 65
1, 256351, Control_c, 0, 64, 127
1, 256382, Note_off_c, 0, 56, 52
1, 256397, Note_off_c, 0, 59, 50
1, 256454, Control_c, 0, 67, 24
1, 256469, Control_c, 0, 67, 33
1, 256480, Note_on_c, 0, 59, 43
1, 256484, Control_c, 0, 67, 47
1, 256496, Note_on_c, 0, 56, 29
1, 256499, Control_c, 0, 67, 65
1, 256514, Control_c, 0, 67, 86
1, 256529, Control_c, 0, 67, 110
1, 256538, Note_off_c, 0, 56, 47
1, 256540, Note_off_c, 0, 59, 55
1, 256544, Control_c, 0, 67, 127
1, 256682, Note_on_c, 0, 52, 48
1, 256688, Note_on_c, 0, 64, 45
1, 256693, Note_on_c, 0, 56, 18
1, 256693, Note_on_c, 0, 59, 32
1, 256710, Note_off_c, 0, 52, 55
1, 256727, Note_off_c, 0, 64, 54
1, 256738, Note_off_c, 0, 59, 47
1, 256743, Note_off_c, 0, 56, 44
1, 256855, Note_on_c, 0, 64, 45
1, 256859, Note_on_c, 0, 59, 47
1, 256863, Note_on_c, 0, 56, 41
1, 256885, Note_off_c, 0, 64, 55
1, 256902, Note_off_c, 0, 59, 58
1, 256904, Note_off_c, 0, 56, 51
1, 257003, Control_c, 0, 64, 101
1, 257018, Control_c, 0, 64, 72
1, 257018, Control_c, 0, 67, 98
1, 257024, Note_on_c, 0, 80, 76
1, 257041, Control_c, 0, 64, 49
1, 257041, Control_c, 0, 67, 47
1, 257056, Control_c, 0, 64, 0
1, 257056, Control_c, 0, 67, 0
1, 257060, Note_off_c, 0, 80, 61
1, 257061, Note_on_c, 0, 56, 33
1, 257084, Note_on_c, 0, 59, 8
1, 257092, Note_off_c, 0, 56, 49
1, 257136, Note_off_c, 0, 59, 34
1, 257206, Note_on_c, 0, 56, 44
1, 257207, Note_on_c, 0, 64, 66
1, 257232, Note_on_c, 0, 59, 26
1, 257236, Note_off_c, 0, 64, 67
1, 257250, Note_off_c, 0, 56, 58
1, 257268, Note_off_c, 0, 59, 47
1, 257377, Note_on_c, 0, 83, 63
1, 257382, Note_on_c, 0, 56, 47
1, 257385, Note_on_c, 0, 59, 43
1, 257399, Note_off_c, 0, 83, 67
1, 257417, Note_off_c, 0, 56, 58
1, 257419, Note_off_c, 0, 59, 60
1, 257539, Note_on_c, 0, 68, 67
1, 257541, Note_on_c, 0, 56, 50
1, 257545, Note_on_c, 0, 59, 48
1, 257559, Note_off_c, 0, 68, 67
1, 257577, Note_off_c, 0, 59, 62
1, 257581, Note_off_c, 0, 56, 60
1, 257707, Control_c, 0, 64, 53
1, 257723, Control_c, 0, 64, 73
1, 257723, Control_c, 0, 67, 21
1, 257724, Note_on_c, 0, 88, 85
1, 257737, Control_c, 0, 64, 101
1, 257737, Control_c, 0, 67, 31
1, 257742, Note_on_c, 0, 56, 43
1, 257745, Note_on_c, 0, 59, 39
1, 257746, Note_off_c, 0, 88, 69
1, 257752, Control_c, 0, 64, 127
1, 257752, Control_c, 0, 67, 49
1, 257767, Control_c, 0, 67, 83
1, 257790, Control_c, 0, 67, 120
1, 257799, Note_off_c, 0, 56, 47
1, 257805, Note_off_c, 0, 59, 53
1, 257805, Control_c, 0, 67, 127
1, 257902, Note_on_c, 0, 59, 38
1, 257927, Note_on_c, 0, 56, 14
1, 257941, Note_off_c, 0, 59, 58
1, 257975, Note_off_c, 0, 56, 50
1, 258085, Note_on_c, 0, 52, 54
1, 258096, Note_on_c, 0, 56, 46
1, 258102, Note_on_c, 0, 64, 44
1, 258110, Note_off_c, 0, 52, 60
1, 258113, Note_on_c, 0, 59, 14
1, 258136, Note_off_c, 0, 64, 53
1, 258149, Note_off_c, 0, 56, 53
1, 258154, Note_off_c, 0, 59, 50
1, 258260, Note_on_c, 0, 59, 42
1, 258267, Note_on_c, 0, 56, 30
1, 258271, Note_on_c, 0, 64, 27
1, 258300, Note_off_c, 0, 59, 53
1, 258306, Note_off_c, 0, 56, 48
1, 258311, Note_off_c, 0, 64, 48
1, 258426, Control_c, 0, 64, 92
1, 258441, Control_c, 0, 64, 69
1, 258455, Control_c, 0, 64, 54
1, 258459, Note_on_c, 0, 56, 44
1, 258459, Note_on_c, 0, 95, 64
1, 258470, Control_c, 0, 64, 0
1, 258482, Note_off_c, 0, 95, 66
1, 258506, Note_off_c, 0, 56, 56
1, 258553, Poly_aftertouch_c, 0, 64, 0
1, 258636, Note_on_c, 0, 80, 63
1, 258657, Note_on_c, 0, 59, 10
1, 258662, Note_off_c, 0, 80, 66
1, 258705, Note_off_c, 0, 59, 49
1, 258797, Note_on_c, 0, 99, 73
1, 258807, Note_on_c, 0, 57, 36
1, 258811, Note_on_c, 0, 66, 41
1, 258830, Note_off_c, 0, 99, 58
1, 258833, Note_on_c, 0, 59, 19
1, 258838, Note_off_c, 0, 66, 47
1, 258844, Note_off_c, 0, 57, 51
1, 258876, Note_off_c, 0, 59, 39
1, 258961, Note_on_c, 0, 66, 42
1, 258970, Note_on_c, 0, 59, 53
1, 258975, Note_on_c, 0, 83, 61
1, 258988, Note_off_c, 0, 66, 52
1, 258994, Note_off_c, 0, 83, 65
1, 259010, Note_off_c, 0, 59, 57
1, 259087, Control_c, 0, 64, 34
1, 259102, Control_c, 0, 64, 48
1, 259116, Control_c, 0, 64, 62
1, 259131, Control_c, 0, 64, 72
1, 259146, Control_c, 0, 64, 92
1, 259149, Note_on_c, 0, 100, 79
1, 259161, Note_on_c, 0, 59, 36
1, 259161, Control_c, 0, 64, 127
1, 259172, Note_off_c, 0, 100, 73
1, 259173, Note_on_c, 0, 56, 39
1, 259189, Note_on_c, 0, 64, 35
1, 259218, Note_off_c, 0, 56, 46
1, 259218, Note_off_c, 0, 59, 54
1, 259219, Note_off_c, 0, 64, 54
1, 259329, Note_on_c, 0, 64, 46
1, 259344, Note_on_c, 0, 59, 25
1, 259364, Note_off_c, 0, 64, 54
1, 259381, Poly_aftertouch_c, 0, 56, 127
1, 259386, Note_off_c, 0, 59, 49
1, 259429, Poly_aftertouch_c, 0, 56, 0
1, 259512, Note_on_c, 0, 56, 41
1, 259521, Note_on_c, 0, 52, 58
1, 259533, Note_on_c, 0, 59, 31
1, 259537, Note_on_c, 0, 64, 39
1, 259546, Note_off_c, 0, 52, 62
1, 259572, Note_off_c, 0, 56, 52
1, 259572, Note_off_c, 0, 64, 50
1, 259584, Note_off_c, 0, 59, 45
1, 259704, Note_on_c, 0, 56, 31
1, 259704, Note_on_c, 0, 64, 36
1, 259716, Note_on_c, 0, 59, 37
1, 259740, Note_off_c, 0, 64, 48
1, 259744, Note_off_c, 0, 56, 46
1, 259752, Note_off_c, 0, 59, 49
1, 259864, Control_c, 0, 64, 94
1, 259879, Control_c, 0, 64, 72
1, 259891, Note_on_c, 0, 95, 60
1, 259894, Control_c, 0, 64, 55
1, 259895, Note_on_c, 0, 56, 44
1, 259908, Control_c, 0, 64, 0
1, 259909, Note_off_c, 0, 95, 65
1, 259921, Note_on_c, 0, 59, 14
1, 259936, Note_off_c, 0, 56, 58
1, 259966, Note_off_c, 0, 59, 52
1, 260064, Note_on_c, 0, 80, 62
1, 260078, Note_on_c, 0, 59, 38
1, 260092, Note_off_c, 0, 80, 66
1, 260114, Note_off_c, 0, 59, 50
1, 260223, Note_on_c, 0, 99, 75
1, 260233, Note_on_c, 0, 57, 54
1, 260249, Note_on_c, 0, 59, 32
1, 260252, Note_off_c, 0, 99, 63
1, 260257, Note_on_c, 0, 66, 28
1, 260281, Note_off_c, 0, 59, 50
1, 260287, Note_off_c, 0, 57, 49
1, 260291, Note_off_c, 0, 66, 31
1, 260390, Note_on_c, 0, 66, 49
1, 260396, Note_on_c, 0, 83, 62
1, 260398, Note_on_c, 0, 59, 46
1, 260413, Note_off_c, 0, 83, 67
1, 260420, Note_off_c, 0, 66, 57
1, 260441, Note_off_c, 0, 59, 60
1, 260538, Control_c, 0, 64, 51
1, 260553, Control_c, 0, 64, 65
1, 260568, Control_c, 0, 64, 75
1, 260575, Note_on_c, 0, 100, 73
1, 260583, Control_c, 0, 64, 98
1, 260595, Note_on_c, 0, 56, 45
1, 260598, Note_off_c, 0, 100, 73
1, 260598, Control_c, 0, 64, 127
1, 260604, Note_on_c, 0, 64, 45
1, 260610, Note_on_c, 0, 59, 37
1, 260634, Note_off_c, 0, 56, 54
1, 260640, Note_off_c, 0, 64, 56
1, 260649, Note_off_c, 0, 59, 50
1, 260765, Note_on_c, 0, 64, 38
1, 260769, Note_on_c, 0, 56, 32
1, 260782, Note_on_c, 0, 59, 33
1, 260805, Note_off_c, 0, 64, 51
1, 260817, Note_off_c, 0, 56, 49
1, 260821, Note_off_c, 0, 59, 49
1, 260964, Note_on_c, 0, 56, 36
1, 260981, Note_on_c, 0, 52, 55
1, 260983, Note_on_c, 0, 59, 24
1, 261009, Note_off_c, 0, 52, 63
1, 261024, Note_off_c, 0, 56, 49
1, 261025, Note_on_c, 0, 64, 3
1, 261044, Note_off_c, 0, 59, 42
1, 261065, Note_off_c, 0, 64, 47
1, 261189, Note_on_c, 0, 56, 11
1, 261231, Poly_aftertouch_c, 0, 59, 127
1, 261242, Note_off_c, 0, 56, 45
1, 261286, Poly_aftertouch_c, 0, 59, 0
1, 261391, Control_c, 0, 64, 100
1, 261406, Control_c, 0, 64, 77
1, 261413, Note_on_c, 0, 88, 56
1, 261419, Note_on_c, 0, 64, 24
1, 261421, Control_c, 0, 64, 65
1, 261429, Note_on_c, 0, 56, 20
1, 261434, Note_on_c, 0, 59, 25
1, 261436, Control_c, 0, 64, 60
1, 261450, Control_c, 0, 64, 63
1, 261465, Control_c, 0, 64, 67
1, 261480, Control_c, 0, 64, 73
1, 261495, Control_c, 0, 64, 84
1, 261499, Note_off_c, 0, 64, 53
1, 261507, Note_off_c, 0, 59, 51
1, 261510, Control_c, 0, 64, 101
1, 261513, Note_off_c, 0, 56, 38
1, 261525, Control_c, 0, 64, 127
1, 261550, Note_off_c, 0, 88, 35
1, 261658, Note_on_c, 0, 64, 35
1, 261669, Note_on_c, 0, 59, 22
1, 261672, Note_on_c, 0, 76, 38
1, 261701, Poly_aftertouch_c, 0, 56, 127
1, 261706, Note_off_c, 0, 64, 45
1, 261725, Note_off_c, 0, 59, 44
1, 261752, Poly_aftertouch_c, 0, 56, 0
1, 261790, Note_off_c, 0, 76, 47
1, 261844, Note_on_c, 0, 86, 63
1, 261845, Note_on_c, 0, 56, 27
1, 261847, Note_on_c, 0, 59, 34
1, 261850, Note_on_c, 0, 64, 34
1, 261859, Control_c, 0, 67, 122
1, 261874, Control_c, 0, 67, 119
1, 261889, Control_c, 0, 67, 116
1, 261892, Note_off_c, 0, 64, 47
1, 261901, Note_off_c, 0, 59, 50
1, 261904, Note_off_c, 0, 56, 42
1, 261908, Note_off_c, 0, 86, 49
1, 261918, Control_c, 0, 67, 114
1, 262011, Note_on_c, 0, 74, 53
1, 262016, Note_on_c, 0, 64, 24
1, 262018, Note_on_c, 0, 59, 25
1, 262019, Note_on_c, 0, 56, 25
1, 262060, Note_off_c, 0, 64, 46
1, 262068, Note_off_c, 0, 56, 44
1, 262070, Note_off_c, 0, 59, 45
1, 262140, Control_c, 0, 64, 87
1, 262155, Control_c, 0, 64, 68
1, 262170, Control_c, 0, 64, 54
1, 262174, Note_off_c, 0, 74, 41
1, 262178, Note_on_c, 0, 56, 41
1, 262184, Control_c, 0, 64, 49
1, 262185, Note_on_c, 0, 83, 68
1, 262199, Control_c, 0, 64, 57
1, 262207, Note_on_c, 0, 59, 32
1, 262208, Note_on_c, 0, 64, 5
1, 262214, Control_c, 0, 64, 62
1, 262228, Control_c, 0, 64, 70
1, 262228, Control_c, 0, 67, 111
1, 262243, Control_c, 0, 64, 82
1, 262243, Control_c, 0, 67, 106
1, 262244, Note_off_c, 0, 56, 52
1, 262246, Note_off_c, 0, 59, 50
1, 262258, Note_off_c, 0, 64, 43
1, 262258, Control_c, 0, 64, 102
1, 262258, Control_c, 0, 67, 86
1, 262281, Control_c, 0, 64, 127
1, 262281, Control_c, 0, 67, 63
1, 262296, Control_c, 0, 67, 39
1, 262303, Note_off_c, 0, 83, 40
1, 262310, Control_c, 0, 67, 19
1, 262325, Control_c, 0, 67, 0
1, 262337, Note_on_c, 0, 56, 34
1, 262360, Note_on_c, 0, 64, 33
1, 262370, Note_on_c, 0, 71, 56
1, 262372, Note_off_c, 0, 56, 56
1, 262380, Note_on_c, 0, 59, 10
1, 262392, Note_off_c, 0, 64, 54
1, 262425, Note_off_c, 0, 59, 54
1, 262519, Control_c, 0, 64, 95
1, 262533, Control_c, 0, 64, 68
1, 262548, Control_c, 0, 64, 52
1, 262549, Note_on_c, 0, 57, 45
1, 262552, Note_on_c, 0, 81, 76
1, 262555, Note_off_c, 0, 71, 36
1, 262559, Note_on_c, 0, 64, 33
1, 262562, Note_on_c, 0, 61, 44
1, 262563, Control_c, 0, 64, 47
1, 262578, Control_c, 0, 64, 55
1, 262593, Control_c, 0, 64, 61
1, 262604, Note_off_c, 0, 57, 56
1, 262607, Control_c, 0, 64, 67
1, 262610, Note_off_c, 0, 64, 56
1, 262613, Note_off_c, 0, 61, 56
1, 262622, Control_c, 0, 64, 78
1, 262637, Control_c, 0, 64, 99
1, 262652, Control_c, 0, 64, 127
1, 262660, Note_off_c, 0, 81, 52
1, 262726, Note_on_c, 0, 69, 59
1, 262730, Note_on_c, 0, 57, 41
1, 262732, Note_on_c, 0, 61, 53
1, 262741, Note_on_c, 0, 64, 46
1, 262765, Note_off_c, 0, 57, 50
1, 262777, Note_off_c, 0, 64, 52
1, 262781, Note_off_c, 0, 61, 56
1, 262839, Note_off_c, 0, 69, 36
1, 262874, Control_c, 0, 64, 93
1, 262889, Control_c, 0, 64, 69
1, 262891, Note_on_c, 0, 64, 53
1, 262896, Note_on_c, 0, 62, 56
1, 262901, Note_on_c, 0, 59, 49
1, 262901, Note_on_c, 0, 80, 83
1, 262904, Control_c, 0, 64, 52
1, 262919, Control_c, 0, 64, 44
1, 262933, Control_c, 0, 64, 57
1, 262948, Control_c, 0, 64, 65
1, 262956, Note_off_c, 0, 64, 59
1, 262963, Control_c, 0, 64, 77
1, 262968, Note_off_c, 0, 62, 51
1, 262970, Note_off_c, 0, 59, 54
1, 262977, Control_c, 0, 64, 113
1, 262992, Control_c, 0, 64, 127
1, 263035, Note_off_c, 0, 80, 62
1, 263065, Note_on_c, 0, 62, 61
1, 263066, Note_on_c, 0, 59, 53
1, 263068, Note_on_c, 0, 64, 64
1, 263068, Note_on_c, 0, 68, 79
1, 263096, Note_off_c, 0, 64, 61
1, 263117, Note_off_c, 0, 62, 60
1, 263123, Note_off_c, 0, 59, 58
1, 263232, Note_off_c, 0, 68, 62
1, 263242, Note_on_c, 0, 58, 63
1, 263245, Note_on_c, 0, 78, 96
1, 263251, Note_on_c, 0, 61, 62
1, 263252, Control_c, 0, 64, 79
1, 263253, Note_on_c, 0, 64, 64
1, 263266, Control_c, 0, 64, 60
1, 263281, Control_c, 0, 64, 38
1, 263296, Control_c, 0, 64, 47
1, 263306, Note_off_c, 0, 58, 55
1, 263312, Control_c, 0, 64, 60
1, 263317, Note_off_c, 0, 64, 60
1, 263327, Control_c, 0, 64, 72
1, 263342, Control_c, 0, 64, 88
1, 263344, Note_off_c, 0, 61, 58
1, 263356, Control_c, 0, 64, 127
1, 263388, Note_off_c, 0, 78, 61
1, 263406, Note_on_c, 0, 61, 55
1, 263422, Note_on_c, 0, 66, 75
1, 263430, Note_on_c, 0, 58, 42
1, 263457, Note_off_c, 0, 58, 56
1, 263477, Note_off_c, 0, 61, 54
1, 263481, Note_off_c, 0, 66, 52
1, 263524, Poly_aftertouch_c, 0, 64, 0
1, 263549, Control_c, 0, 64, 100
1, 263564, Control_c, 0, 64, 71
1, 263579, Control_c, 0, 64, 53
1, 263594, Control_c, 0, 64, 46
1, 263608, Control_c, 0, 64, 57
1, 263623, Control_c, 0, 64, 69
1, 263624, Note_on_c, 0, 59, 48
1, 263627, Note_on_c, 0, 76, 80
1, 263635, Note_on_c, 0, 64, 48
1, 263638, Control_c, 0, 64, 89
1, 263639, Note_on_c, 0, 62, 39
1, 263653, Control_c, 0, 64, 127
1, 263668, Note_off_c, 0, 76, 55
1, 263673, Note_off_c, 0, 64, 59
1, 263683, Note_off_c, 0, 59, 49
1, 263688, Note_off_c, 0, 62, 57
1, 263796, Note_on_c, 0, 64, 51
1, 263803, Note_on_c, 0, 62, 52
1, 263816, Note_on_c, 0, 59, 32
1, 263846, Note_off_c, 0, 62, 57
1, 263860, Note_off_c, 0, 59, 48
1, 263861, Note_off_c, 0, 64, 47
1, 263996, Note_on_c, 0, 40, 53
1, 263997, Note_on_c, 0, 59, 46
1, 264015, Note_on_c, 0, 64, 43
1, 264017, Note_on_c, 0, 62, 35
1, 264028, Note_off_c, 0, 40, 63
1, 264052, Note_off_c, 0, 64, 59
1, 264058, Note_off_c, 0, 59, 45
1, 264062, Note_off_c, 0, 62, 49
1, 264169, Note_on_c, 0, 64, 46
1, 264171, Note_on_c, 0, 59, 45
1, 264174, Note_on_c, 0, 62, 51
1, 264205, Note_off_c, 0, 64, 55
1, 264219, Note_off_c, 0, 62, 59
1, 264233, Note_off_c, 0, 59, 51
1, 264402, Note_on_c, 0, 59, 38
1, 264411, Note_on_c, 0, 64, 35
1, 264425, Note_on_c, 0, 62, 36
1, 264425, Note_on_c, 0, 89, 79
1, 264485, Note_off_c, 0, 64, 57
1, 264504, Note_off_c, 0, 62, 49
1, 264540, Note_off_c, 0, 59, 36
1, 264563, Note_off_c, 0, 89, 37
1, 264630, Note_on_c, 0, 77, 62
1, 264632, Note_on_c, 0, 64, 56
1, 264642, Note_on_c, 0, 62, 53
1, 264655, Note_on_c, 0, 59, 39
1, 264680, Note_off_c, 0, 64, 56
1, 264683, Note_off_c, 0, 62, 61
1, 264691, Note_off_c, 0, 59, 51
1, 264767, Note_off_c, 0, 77, 60
1, 264793, Note_on_c, 0, 86, 92
1, 264808, Note_on_c, 0, 59, 47
1, 264809, Note_on_c, 0, 62, 48
1, 264811, Note_on_c, 0, 64, 50
1, 264848, Note_off_c, 0, 64, 51
1, 264855, Note_off_c, 0, 62, 59
1, 264867, Note_off_c, 0, 59, 56
1, 264917, Note_off_c, 0, 86, 62
1, 264949, Note_on_c, 0, 62, 64
1, 264953, Note_on_c, 0, 64, 51
1, 264960, Note_on_c, 0, 74, 78
1, 264961, Note_on_c, 0, 59, 54
1, 264989, Note_off_c, 0, 62, 61
1, 264997, Note_off_c, 0, 64, 55
1, 265052, Note_off_c, 0, 59, 31
1, 265106, Note_off_c, 0, 74, 59
1, 265136, Control_c, 0, 64, 80
1, 265141, Note_on_c, 0, 83, 90
1, 265141, Note_on_c, 0, 64, 58
1, 265145, Note_on_c, 0, 56, 58
1, 265148, Note_on_c, 0, 59, 34
1, 265151, Control_c, 0, 64, 62
1, 265166, Control_c, 0, 64, 49
1, 265180, Control_c, 0, 64, 55
1, 265195, Control_c, 0, 64, 63
1, 265210, Control_c, 0, 64, 72
1, 265224, Note_off_c, 0, 64, 59
1, 265225, Control_c, 0, 64, 95
1, 265226, Note_off_c, 0, 56, 58
1, 265232, Note_off_c, 0, 59, 58
1, 265240, Control_c, 0, 64, 127
1, 265263, Note_off_c, 0, 83, 61
1, 265307, Note_on_c, 0, 56, 62
1, 265314, Note_on_c, 0, 71, 80
1, 265318, Note_on_c, 0, 64, 59
1, 265323, Note_on_c, 0, 59, 45
1, 265345, Note_off_c, 0, 56, 53
1, 265364, Note_off_c, 0, 59, 58
1, 265382, Note_off_c, 0, 64, 58
1, 265419, Note_off_c, 0, 71, 52
1, 265481, Note_on_c, 0, 81, 102
1, 265487, Note_on_c, 0, 64, 74
1, 265489, Note_on_c, 0, 57, 65
1, 265495, Note_on_c, 0, 61, 65
1, 265552, Note_off_c, 0, 64, 57
1, 265557, Note_off_c, 0, 57, 60
1, 265588, Note_off_c, 0, 61, 57
1, 265606, Note_off_c, 0, 81, 60
1, 265643, Note_on_c, 0, 61, 60
1, 265651, Note_on_c, 0, 69, 81
1, 265654, Note_on_c, 0, 64, 76
1, 265659, Note_on_c, 0, 57, 59
1, 265690, Note_off_c, 0, 57, 65
1, 265719, Note_off_c, 0, 64, 58
1, 265740, Note_off_c, 0, 69, 52
1, 265740, Poly_aftertouch_c, 0, 76, 127
1, 265761, Note_off_c, 0, 61, 57
1, 265786, Poly_aftertouch_c, 0, 76, 0
1, 265811, Control_c, 0, 64, 82
1, 265822, Note_on_c, 0, 80, 99
1, 265826, Control_c, 0, 64, 58
1, 265836, Note_on_c, 0, 64, 81
1, 265840, Note_on_c, 0, 62, 75
1, 265841, Control_c, 0, 64, 37
1, 265841, Note_on_c, 0, 59, 67
1, 265856, Control_c, 0, 64, 51
1, 265870, Control_c, 0, 64, 64
1, 265885, Control_c, 0, 64, 76
1, 265892, Note_on_c, 0, 78, 25
1, 265899, Note_off_c, 0, 64, 60
1, 265900, Control_c, 0, 64, 112
1, 265908, Note_on_c, 0, 74, 20
1, 265915, Control_c, 0, 64, 127
1, 265932, Note_off_c, 0, 62, 60
1, 265933, Note_off_c, 0, 59, 61
1, 265944, Note_off_c, 0, 80, 62
1, 265957, Note_off_c, 0, 74, 44
1, 265972, Note_off_c, 0, 78, 37
1, 265993, Note_on_c, 0, 59, 56
1, 265994, Note_on_c, 0, 62, 66
1, 265995, Note_on_c, 0, 68, 95
1, 266005, Note_on_c, 0, 64, 70
1, 266041, Note_on_c, 0, 74, 4
1, 266072, Note_off_c, 0, 64, 58
1, 266109, Note_off_c, 0, 62, 47
1, 266148, Note_off_c, 0, 74, 29
1, 266148, Note_off_c, 0, 59, 60
1, 266159, Note_off_c, 0, 68, 61
1, 266174, Control_c, 0, 64, 73
1, 266186, Note_on_c, 0, 64, 78
1, 266187, Note_on_c, 0, 78, 101
1, 266189, Control_c, 0, 64, 50
1, 266193, Note_on_c, 0, 58, 71
1, 266193, Note_on_c, 0, 61, 75
1, 266203, Control_c, 0, 64, 43
1, 266218, Control_c, 0, 64, 62
1, 266233, Control_c, 0, 64, 77
1, 266238, Note_on_c, 0, 75, 15
1, 266248, Control_c, 0, 64, 127
1, 266258, Note_off_c, 0, 58, 62
1, 266271, Note_off_c, 0, 64, 60
1, 266285, Note_off_c, 0, 61, 59
1, 266306, Note_off_c, 0, 75, 38
1, 266316, Note_off_c, 0, 78, 62
1, 266357, Note_on_c, 0, 61, 44
1, 266366, Note_on_c, 0, 58, 61
1, 266372, Note_on_c, 0, 66, 77
1, 266397, Note_off_c, 0, 58, 62
1, 266399, Note_on_c, 0, 64, 29
1, 266425, Note_off_c, 0, 64, 56
1, 266447, Note_off_c, 0, 66, 60
1, 266474, Note_off_c, 0, 61, 44
1, 266500, Control_c, 0, 64, 125
1, 266515, Control_c, 0, 64, 70
1, 266530, Control_c, 0, 64, 47
1, 266545, Control_c, 0, 64, 0
1, 266559, Note_on_c, 0, 76, 98
1, 266560, Control_c, 0, 64, 52
1, 266562, Note_on_c, 0, 64, 59
1, 266567, Note_on_c, 0, 62, 63
1, 266575, Note_on_c, 0, 59, 49
1, 266575, Control_c, 0, 64, 68
1, 266590, Control_c, 0, 64, 90
1, 266599, Note_off_c, 0, 64, 58
1, 266604, Control_c, 0, 64, 127
1, 266609, Note_off_c, 0, 76, 66
1, 266619, Note_off_c, 0, 59, 58
1, 266625, Note_off_c, 0, 62, 50
1, 266706, Note_on_c, 0, 64, 67
1, 266726, Note_on_c, 0, 59, 49
1, 266726, Note_on_c, 0, 62, 49
1, 266761, Note_off_c, 0, 59, 59
1, 266780, Note_off_c, 0, 64, 36
1, 266782, Note_off_c, 0, 62, 55
1, 266894, Note_on_c, 0, 40, 75
1, 266906, Note_on_c, 0, 64, 76
1, 266915, Note_on_c, 0, 59, 56
1, 266915, Note_on_c, 0, 62, 68
1, 266933, Note_off_c, 0, 40, 62
1, 266960, Note_off_c, 0, 64, 58
1, 266995, Note_off_c, 0, 62, 56
1, 266998, Note_off_c, 0, 59, 54
1, 267059, Note_on_c, 0, 59, 50
1, 267063, Note_on_c, 0, 64, 74
1, 267065, Note_on_c, 0, 62, 58
1, 267099, Note_off_c, 0, 64, 61
1, 267115, Note_off_c, 0, 62, 46
1, 267165, Note_off_c, 0, 59, 37
1, 267244, Note_on_c, 0, 80, 100
1, 267259, Note_on_c, 0, 62, 78
1, 267260, Note_on_c, 0, 64, 81
1, 267265, Note_on_c, 0, 59, 75
1, 267318, Note_off_c, 0, 64, 58
1, 267350, Note_off_c, 0, 62, 60
1, 267353, Note_off_c, 0, 59, 59
1, 267366, Note_off_c, 0, 80, 60
1, 267409, Note_on_c, 0, 59, 51
1, 267412, Note_on_c, 0, 62, 63
1, 267422, Note_on_c, 0, 68, 90
1, 267426, Note_on_c, 0, 64, 61
1, 267460, Note_off_c, 0, 64, 55
1, 267499, Note_off_c, 0, 59, 56
1, 267500, Note_off_c, 0, 62, 55
1, 267567, Note_off_c, 0, 68, 61
1, 267597, Control_c, 0, 64, 83
1, 267602, Note_on_c, 0, 64, 90
1, 267606, Note_on_c, 0, 61, 78
1, 267606, Note_on_c, 0, 78, 100
1, 267607, Note_on_c, 0, 58, 82
1, 267612, Control_c, 0, 64, 56
1, 267627, Control_c, 0, 64, 0
1, 267642, Control_c, 0, 64, 52
1, 267654, Note_on_c, 0, 75, 17
1, 267657, Control_c, 0, 64, 66
1, 267672, Control_c, 0, 64, 84
1, 267687, Control_c, 0, 64, 127
1, 267695, Note_off_c, 0, 58, 60
1, 267695, Note_off_c, 0, 64, 61
1, 267709, Note_off_c, 0, 61, 59
1, 267775, Note_off_c, 0, 78, 60
1, 267783, Note_on_c, 0, 61, 62
1, 267785, Note_off_c, 0, 75, 25
1, 267791, Note_on_c, 0, 58, 62
1, 267792, Note_on_c, 0, 66, 96
1, 267794, Note_on_c, 0, 64, 59
1, 267848, Note_off_c, 0, 58, 55
1, 267865, Note_off_c, 0, 64, 51
1, 267874, Note_off_c, 0, 61, 52
1, 267888, Note_off_c, 0, 66, 59
1, 267953, Control_c, 0, 64, 76
1, 267967, Control_c, 0, 64, 52
1, 267975, Note_on_c, 0, 64, 83
1, 267979, Note_on_c, 0, 59, 70
1, 267982, Note_on_c, 0, 76, 107
1, 267982, Note_on_c, 0, 62, 75
1, 267982, Control_c, 0, 64, 0
1, 267997, Control_c, 0, 64, 49
1, 268012, Control_c, 0, 64, 68
1, 268027, Control_c, 0, 64, 86
1, 268028, Note_off_c, 0, 64, 60
1, 268038, Note_off_c, 0, 76, 65
1, 268042, Control_c, 0, 64, 127
1, 268054, Note_off_c, 0, 59, 55
1, 268055, Note_off_c, 0, 62, 57
1, 268145, Note_on_c, 0, 64, 71
1, 268148, Note_on_c, 0, 59, 52
1, 268166, Note_on_c, 0, 62, 51
1, 268193, Note_off_c, 0, 59, 54
1, 268198, Note_off_c, 0, 62, 58
1, 268204, Note_off_c, 0, 64, 48
1, 268323, Note_on_c, 0, 40, 89
1, 268330, Note_on_c, 0, 64, 84
1, 268336, Note_on_c, 0, 62, 82
1, 268337, Note_on_c, 0, 59, 71
1, 268360, Note_off_c, 0, 40, 65
1, 268384, Note_off_c, 0, 64, 59
1, 268420, Note_off_c, 0, 62, 59
1, 268425, Note_off_c, 0, 59, 59
1, 268500, Note_on_c, 0, 64, 75
1, 268503, Note_on_c, 0, 59, 59
1, 268507, Note_on_c, 0, 62, 65
1, 268557, Note_off_c, 0, 64, 56
1, 268575, Note_off_c, 0, 62, 44
1, 268642, Note_off_c, 0, 59, 35
1, 268681, Note_on_c, 0, 80, 102
1, 268685, Note_on_c, 0, 64, 83
1, 268693, Note_on_c, 0, 62, 82
1, 268694, Note_on_c, 0, 59, 62
1, 268715, Note_on_c, 0, 78, 54
1, 268737, Note_off_c, 0, 64, 61
1, 268770, Note_off_c, 0, 80, 61
1, 268771, Note_off_c, 0, 62, 60
1, 268778, Note_off_c, 0, 59, 60
1, 268814, Note_off_c, 0, 78, 27
1, 268845, Note_on_c, 0, 68, 97
1, 268846, Note_on_c, 0, 59, 61
1, 268846, Note_on_c, 0, 64, 76
1, 268854, Note_on_c, 0, 62, 68
1, 268895, Note_off_c, 0, 64, 45
1, 268896, Note_off_c, 0, 62, 46
1, 268911, Note_off_c, 0, 59, 58
1, 269006, Note_off_c, 0, 68, 60
1, 269052, Control_c, 0, 64, 75
1, 269056, Note_on_c, 0, 78, 98
1, 269058, Note_on_c, 0, 64, 85
1, 269059, Note_on_c, 0, 58, 81
1, 269062, Note_on_c, 0, 61, 81
1, 269067, Control_c, 0, 64, 48
1, 269082, Control_c, 0, 64, 0
1, 269096, Control_c, 0, 64, 40
1, 269111, Control_c, 0, 64, 62
1, 269117, Note_off_c, 0, 64, 52
1, 269126, Control_c, 0, 64, 74
1, 269138, Note_off_c, 0, 58, 62
1, 269141, Control_c, 0, 64, 101
1, 269155, Control_c, 0, 64, 127
1, 269170, Poly_aftertouch_c, 0, 74, 127
1, 269192, Note_off_c, 0, 78, 61
1, 269234, Poly_aftertouch_c, 0, 74, 0
1, 269257, Note_on_c, 0, 66, 93
1, 269261, Note_on_c, 0, 64, 57
1, 269267, Note_on_c, 0, 58, 51
1, 269289, Note_off_c, 0, 58, 64
1, 269303, Note_off_c, 0, 64, 53
1, 269330, Note_off_c, 0, 66, 60
1, 269346, Note_off_c, 0, 61, 37
1, 269421, Control_c, 0, 64, 85
1, 269436, Control_c, 0, 64, 62
1, 269440, Note_on_c, 0, 76, 87
1, 269447, Note_on_c, 0, 64, 56
1, 269451, Control_c, 0, 64, 38
1, 269457, Note_on_c, 0, 62, 53
1, 269462, Note_on_c, 0, 59, 45
1, 269466, Control_c, 0, 64, 48
1, 269481, Control_c, 0, 64, 61
1, 269485, Note_off_c, 0, 64, 57
1, 269496, Control_c, 0, 64, 72
1, 269505, Note_off_c, 0, 62, 57
1, 269511, Note_off_c, 0, 59, 58
1, 269511, Control_c, 0, 64, 96
1, 269526, Control_c, 0, 64, 127
1, 269573, Note_off_c, 0, 76, 40
1, 269609, Note_on_c, 0, 64, 59
1, 269623, Note_on_c, 0, 59, 38
1, 269633, Note_on_c, 0, 62, 18
1, 269651, Note_off_c, 0, 59, 56
1, 269669, Note_off_c, 0, 62, 48
1, 269777, Note_off_c, 0, 64, 60
1, 269785, Control_c, 0, 64, 92
1, 269794, Note_on_c, 0, 52, 56
1, 269794, Note_on_c, 0, 59, 43
1, 269800, Control_c, 0, 64, 68
1, 269806, Note_on_c, 0, 74, 77
1, 269810, Note_on_c, 0, 56, 50
1, 269815, Control_c, 0, 64, 43
1, 269830, Control_c, 0, 64, 42
1, 269844, Control_c, 0, 64, 55
1, 269851, Note_off_c, 0, 59, 47
1, 269859, Control_c, 0, 64, 63
1, 269872, Note_off_c, 0, 52, 58
1, 269874, Control_c, 0, 64, 71
1, 269884, Note_off_c, 0, 56, 59
1, 269889, Control_c, 0, 64, 85
1, 269904, Control_c, 0, 64, 110
1, 269912, Note_off_c, 0, 74, 53
1, 269919, Control_c, 0, 64, 127
1, 269966, Note_on_c, 0, 62, 67
1, 269975, Note_on_c, 0, 59, 48
1, 269983, Note_on_c, 0, 52, 53
1, 269997, Note_on_c, 0, 56, 38
1, 270001, Note_off_c, 0, 59, 57
1, 270029, Note_off_c, 0, 52, 55
1, 270032, Note_off_c, 0, 56, 50
1, 270121, Note_off_c, 0, 62, 60
1, 270140, Control_c, 0, 64, 88
1, 270155, Control_c, 0, 64, 66
1, 270157, Note_on_c, 0, 71, 86
1, 270160, Note_on_c, 0, 56, 70
1, 270163, Note_on_c, 0, 50, 65
1, 270168, Note_on_c, 0, 52, 65
1, 270170, Control_c, 0, 64, 50
1, 270185, Control_c, 0, 64, 49
1, 270199, Control_c, 0, 64, 59
1, 270214, Control_c, 0, 64, 67
1, 270229, Control_c, 0, 64, 81
1, 270235, Note_off_c, 0, 52, 43
1, 270235, Note_off_c, 0, 50, 47
1, 270235, Note_off_c, 0, 56, 57
1, 270244, Control_c, 0, 64, 120
1, 270259, Control_c, 0, 64, 127
1, 270268, Note_off_c, 0, 71, 60
1, 270316, Note_on_c, 0, 59, 76
1, 270329, Note_on_c, 0, 56, 71
1, 270333, Note_on_c, 0, 52, 66
1, 270335, Note_on_c, 0, 50, 60
1, 270353, Note_off_c, 0, 56, 67
1, 270359, Note_off_c, 0, 52, 68
1, 270363, Note_off_c, 0, 50, 63
1, 270443, Note_off_c, 0, 59, 59
1, 270493, Note_on_c, 0, 68, 96
1, 270497, Control_c, 0, 64, 76
1, 270506, Note_on_c, 0, 52, 88
1, 270510, Note_on_c, 0, 47, 80
1, 270518, Control_c, 0, 64, 59
1, 270519, Note_on_c, 0, 50, 76
1, 270533, Control_c, 0, 64, 51
1, 270540, Note_on_c, 0, 66, 44
1, 270548, Control_c, 0, 64, 60
1, 270563, Control_c, 0, 64, 69
1, 270568, Note_off_c, 0, 52, 58
1, 270578, Control_c, 0, 64, 90
1, 270582, Note_off_c, 0, 66, 45
1, 270589, Note_off_c, 0, 50, 60
1, 270592, Note_off_c, 0, 47, 62
1, 270593, Control_c, 0, 64, 127
1, 270620, Note_off_c, 0, 68, 60
1, 270670, Note_on_c, 0, 56, 92
1, 270680, Note_on_c, 0, 47, 84
1, 270680, Note_on_c, 0, 52, 79
1, 270682, Note_on_c, 0, 50, 84
1, 270709, Note_off_c, 0, 50, 65
1, 270711, Note_off_c, 0, 52, 62
1, 270733, Note_off_c, 0, 47, 59
1, 270757, Note_off_c, 0, 56, 59
1, 270758, Poly_aftertouch_c, 0, 58, 0
1, 270784, Poly_aftertouch_c, 0, 58, 0
1, 270845, Control_c, 0, 64, 91
1, 270852, Note_on_c, 0, 64, 106
1, 270858, Note_on_c, 0, 50, 82
1, 270860, Control_c, 0, 64, 66
1, 270861, Note_on_c, 0, 44, 81
1, 270873, Note_on_c, 0, 48, 55
1, 270874, Control_c, 0, 64, 48
1, 270888, Note_on_c, 0, 59, 35
1, 270888, Note_off_c, 0, 59, 127
1, 270889, Control_c, 0, 64, 50
1, 270901, Note_off_c, 0, 50, 54
1, 270904, Control_c, 0, 64, 62
1, 270912, Note_off_c, 0, 48, 52
1, 270918, Control_c, 0, 64, 71
1, 270930, Note_off_c, 0, 44, 62
1, 270933, Control_c, 0, 64, 91
1, 270948, Control_c, 0, 64, 127
1, 270992, Note_off_c, 0, 64, 55
1, 271026, Note_on_c, 0, 52, 93
1, 271028, Note_on_c, 0, 50, 87
1, 271030, Note_on_c, 0, 44, 87
1, 271037, Note_on_c, 0, 47, 75
1, 271057, Note_off_c, 0, 50, 61
1, 271063, Note_off_c, 0, 47, 67
1, 271068, Note_off_c, 0, 52, 61
1, 271080, Note_off_c, 0, 44, 62
1, 271200, Control_c, 0, 64, 105
1, 271215, Control_c, 0, 64, 71
1, 271217, Note_on_c, 0, 66, 97
1, 271220, Note_on_c, 0, 50, 93
1, 271221, Note_on_c, 0, 42, 89
1, 271225, Note_on_c, 0, 47, 77
1, 271231, Control_c, 0, 64, 47
1, 271245, Control_c, 0, 64, 0
1, 271249, Note_off_c, 0, 50, 61
1, 271267, Control_c, 0, 64, 46
1, 271270, Note_off_c, 0, 47, 59
1, 271278, Note_off_c, 0, 42, 54
1, 271282, Control_c, 0, 64, 61
1, 271298, Control_c, 0, 64, 72
1, 271313, Control_c, 0, 64, 109
1, 271328, Control_c, 0, 64, 127
1, 271336, Note_off_c, 0, 66, 47
1, 271392, Note_on_c, 0, 54, 101
1, 271396, Note_on_c, 0, 50, 97
1, 271398, Note_on_c, 0, 42, 86
1, 271404, Note_on_c, 0, 47, 76
1, 271429, Note_off_c, 0, 47, 68
1, 271434, Note_off_c, 0, 54, 65
1, 271448, Note_off_c, 0, 50, 57
1, 271460, Note_off_c, 0, 42, 59
1, 271580, Control_c, 0, 64, 81
1, 271594, Control_c, 0, 64, 58
1, 271596, Note_on_c, 0, 67, 105
1, 271598, Note_on_c, 0, 50, 92
1, 271603, Note_on_c, 0, 41, 85
1, 271609, Note_on_c, 0, 47, 78
1, 271609, Control_c, 0, 64, 0
1, 271637, Note_off_c, 0, 47, 62
1, 271639, Control_c, 0, 64, 40
1, 271654, Control_c, 0, 64, 61
1, 271666, Note_off_c, 0, 50, 59
1, 271668, Control_c, 0, 64, 77
1, 271671, Note_off_c, 0, 41, 61
1, 271683, Control_c, 0, 64, 127
1, 271741, Note_off_c, 0, 67, 54
1, 271784, Note_on_c, 0, 55, 96
1, 271786, Note_on_c, 0, 50, 96
1, 271790, Note_on_c, 0, 41, 91
1, 271796, Note_on_c, 0, 47, 85
1, 271820, Note_off_c, 0, 47, 70
1, 271830, Note_off_c, 0, 55, 63
1, 271836, Note_off_c, 0, 50, 59
1, 271843, Note_off_c, 0, 41, 61
1, 271867, Note_on_c, 0, 64, 16
1, 271949, Note_off_c, 0, 64, 39
1, 271994, Control_c, 0, 64, 77
1, 272000, Note_on_c, 0, 68, 96
1, 272006, Note_on_c, 0, 50, 98
1, 272016, Note_on_c, 0, 47, 95
1, 272016, Control_c, 0, 64, 50
1, 272020, Note_on_c, 0, 40, 79
1, 272031, Control_c, 0, 64, 0
1, 272061, Control_c, 0, 64, 56
1, 272075, Control_c, 0, 64, 67
1, 272077, Note_off_c, 0, 47, 58
1, 272083, Note_off_c, 0, 50, 58
1, 272091, Note_off_c, 0, 40, 59
1, 272091, Control_c, 0, 64, 87
1, 272106, Control_c, 0, 64, 127
1, 272152, Note_off_c, 0, 68, 57
1, 272253, Note_on_c, 0, 50, 98
1, 272253, Note_on_c, 0, 56, 103
1, 272256, Note_on_c, 0, 47, 89
1, 272259, Note_on_c, 0, 40, 80
1, 272275, Note_off_c, 0, 50, 64
1, 272294, Note_off_c, 0, 47, 64
1, 272306, Note_off_c, 0, 56, 61
1, 272352, Poly_aftertouch_c, 0, 64, 127
1, 272578, Note_off_c, 0, 40, 63
1, 272579, Note_on_c, 0, 61, 91
1, 272581, Note_on_c, 0, 57, 106
1, 272583, Note_on_c, 0, 69, 97
1, 272583, Poly_aftertouch_c, 0, 64, 0
1, 272587, Note_on_c, 0, 45, 97
1, 272587, Note_on_c, 0, 49, 105
1, 272671, Note_off_c, 0, 49, 66
1, 272688, Note_off_c, 0, 45, 62
1, 272698, Control_c, 0, 64, 78
1, 272713, Control_c, 0, 64, 56
1, 272728, Control_c, 0, 64, 0
1, 273077, Control_c, 0, 64, 39
1, 273082, Note_on_c, 0, 33, 109
1, 273092, Control_c, 0, 64, 74
1, 273107, Control_c, 0, 64, 107
1, 273121, Control_c, 0, 64, 127
1, 273124, Note_off_c, 0, 33, 65
1, 273388, Control_c, 0, 64, 101
1, 273403, Control_c, 0, 64, 86
1, 273418, Control_c, 0, 64, 75
1, 273432, Control_c, 0, 64, 66
1, 273447, Control_c, 0, 64, 56
1, 273462, Control_c, 0, 64, 41
1, 273475, Control_c, 0, 64, 0
1, 273988, Control_c, 0, 64, 33
1, 274003, Control_c, 0, 64, 53
1, 274017, Control_c, 0, 64, 63
1, 274032, Control_c, 0, 64, 69
1, 274047, Control_c, 0, 64, 77
1, 274061, Control_c, 0, 64, 88
1, 274075, Note_off_c, 0, 61, 57
1, 274076, Control_c, 0, 64, 103
1, 274078, Note_off_c, 0, 57, 40
1, 274082, Note_on_c, 0, 49, 100
1, 274091, Control_c, 0, 64, 127
1, 274094, Note_on_c, 0, 45, 85
1, 274133, Note_off_c, 0, 69, 48
1, 274174, Note_off_c, 0, 45, 53
1, 274179, Note_off_c, 0, 49, 61
1, 274209, Control_c, 0, 64, 87
1, 274225, Control_c, 0, 64, 63
1, 274240, Control_c, 0, 64, 0
1, 274283, Note_on_c, 0, 50, 104
1, 274285, Note_on_c, 0, 62, 89
1, 274285, Note_on_c, 0, 69, 98
1, 274286, Note_on_c, 0, 59, 92
1, 274286, Note_on_c, 0, 57, 99
1, 274292, Control_c, 0, 64, 41
1, 274293, Note_on_c, 0, 47, 88
1, 274307, Control_c, 0, 64, 71
1, 274318, Note_off_c, 0, 50, 65
1, 274322, Control_c, 0, 64, 127
1, 274336, Note_off_c, 0, 47, 68
1, 274619, Control_c, 0, 64, 96
1, 274633, Control_c, 0, 64, 68
1, 274648, Control_c, 0, 64, 33
1, 274663, Control_c, 0, 64, 0
1, 274692, Control_c, 0, 64, 52
1, 274701, Note_on_c, 0, 33, 110
1, 274707, Control_c, 0, 64, 76
1, 274722, Control_c, 0, 64, 127
1, 274741, Note_off_c, 0, 33, 65
1, 275174, Control_c, 0, 64, 125
1, 275189, Control_c, 0, 64, 108
1, 275204, Control_c, 0, 64, 100
1, 275218, Control_c, 0, 64, 93
1, 275233, Control_c, 0, 64, 87
1, 275248, Control_c, 0, 64, 81
1, 275263, Control_c, 0, 64, 76
1, 275278, Control_c, 0, 64, 70
1, 275294, Control_c, 0, 64, 63
1, 275308, Control_c, 0, 64, 51
1, 275323, Control_c, 0, 64, 0
1, 275456, Control_c, 0, 64, 47
1, 275471, Control_c, 0, 64, 61
1, 275486, Control_c, 0, 64, 67
1, 275501, Control_c, 0, 64, 71
1, 275515, Control_c, 0, 64, 76
1, 275520, Note_off_c, 0, 62, 57
1, 275522, Note_off_c, 0, 59, 48
1, 275523, Note_off_c, 0, 57, 56
1, 275530, Control_c, 0, 64, 83
1, 275545, Note_on_c, 0, 50, 99
1, 275545, Control_c, 0, 64, 93
1, 275557, Note_on_c, 0, 47, 85
1, 275560, Control_c, 0, 64, 108
1, 275575, Note_off_c, 0, 69, 40
1, 275575, Control_c, 0, 64, 127
1, 275625, Note_off_c, 0, 47, 55
1, 275655, Note_off_c, 0, 50, 52
1, 275693, Control_c, 0, 64, 91
1, 275708, Control_c, 0, 64, 65
1, 275723, Control_c, 0, 64, 0
1, 275739, Note_on_c, 0, 52, 111
1, 275744, Note_on_c, 0, 57, 104
1, 275747, Note_on_c, 0, 69, 90
1, 275747, Note_on_c, 0, 61, 84
1, 275747, Note_on_c, 0, 64, 85
1, 275749, Note_on_c, 0, 49, 80
1, 275777, Note_off_c, 0, 52, 68
1, 275789, Control_c, 0, 64, 67
1, 275800, Note_off_c, 0, 49, 66
1, 275804, Control_c, 0, 64, 91
1, 275819, Control_c, 0, 64, 127
1, 276071, Control_c, 0, 64, 116
1, 276087, Control_c, 0, 64, 70
1, 276097, Note_on_c, 0, 33, 103
1, 276102, Control_c, 0, 64, 46
1, 276117, Control_c, 0, 64, 40
1, 276131, Control_c, 0, 64, 58
1, 276146, Control_c, 0, 64, 69
1, 276150, Note_off_c, 0, 33, 64
1, 276161, Control_c, 0, 64, 90
1, 276176, Control_c, 0, 64, 127
1, 276191, Note_off_c, 0, 57, 56
1, 276200, Note_off_c, 0, 61, 55
1, 276218, Note_off_c, 0, 69, 57
1, 276247, Note_off_c, 0, 64, 56
1, 276438, Note_on_c, 0, 57, 87
1, 276441, Note_on_c, 0, 62, 73
1, 276442, Control_c, 0, 64, 87
1, 276443, Note_on_c, 0, 69, 82
1, 276448, Note_on_c, 0, 54, 80
1, 276448, Note_on_c, 0, 66, 76
1, 276456, Note_on_c, 0, 50, 65
1, 276456, Control_c, 0, 64, 66
1, 276471, Control_c, 0, 64, 48
1, 276486, Control_c, 0, 64, 47
1, 276501, Control_c, 0, 64, 59
1, 276524, Control_c, 0, 64, 67
1, 276538, Control_c, 0, 64, 81
1, 276553, Control_c, 0, 64, 127
1, 276558, Note_off_c, 0, 62, 61
1, 276571, Note_off_c, 0, 54, 63
1, 276595, Note_off_c, 0, 50, 60
1, 276595, Note_off_c, 0, 66, 58
1, 276608, Note_off_c, 0, 57, 61
1, 276610, Note_on_c, 0, 45, 101
1, 276638, Note_off_c, 0, 69, 34
1, 276756, Note_on_c, 0, 57, 104
1, 276759, Note_on_c, 0, 64, 81
1, 276759, Note_on_c, 0, 69, 95
1, 276760, Control_c, 0, 64, 105
1, 276763, Note_on_c, 0, 67, 86
1, 276766, Note_on_c, 0, 55, 95
1, 276767, Note_on_c, 0, 52, 90
1, 276775, Control_c, 0, 64, 70
1, 276790, Control_c, 0, 64, 36
1, 276804, Note_off_c, 0, 45, 63
1, 276805, Control_c, 0, 64, 0
1, 276820, Control_c, 0, 64, 52
1, 276835, Control_c, 0, 64, 67
1, 276850, Control_c, 0, 64, 91
1, 276864, Control_c, 0, 64, 127
1, 276872, Note_off_c, 0, 64, 62
1, 276883, Note_off_c, 0, 67, 63
1, 276895, Note_on_c, 0, 45, 102
1, 276897, Note_off_c, 0, 52, 66
1, 276900, Note_off_c, 0, 55, 55
1, 276901, Note_off_c, 0, 69, 59
1, 276915, Note_off_c, 0, 57, 58
1, 277112, Note_on_c, 0, 57, 95
1, 277115, Note_on_c, 0, 62, 80
1, 277115, Note_on_c, 0, 69, 90
1, 277118, Note_on_c, 0, 66, 82
1, 277121, Note_on_c, 0, 54, 95
1, 277124, Note_on_c, 0, 50, 74
1, 277132, Control_c, 0, 64, 83
1, 277147, Control_c, 0, 64, 62
1, 277157, Note_off_c, 0, 45, 62
1, 277161, Control_c, 0, 64, 0
1, 277205, Control_c, 0, 64, 49
1, 277220, Control_c, 0, 64, 64
1, 277235, Control_c, 0, 64, 79
1, 277258, Control_c, 0, 64, 127
1, 277331, Note_off_c, 0, 54, 59
1, 277347, Note_off_c, 0, 62, 61
1, 277362, Note_off_c, 0, 69, 36
1, 277431, Note_off_c, 0, 66, 53
1, 277445, Note_off_c, 0, 57, 35
1, 277504, Note_off_c, 0, 50, 53
1, 277553, Note_on_c, 0, 69, 75
1, 277554, Control_c, 0, 64, 90
1, 277556, Note_on_c, 0, 52, 49
1, 277556, Note_on_c, 0, 57, 66
1, 277557, Note_on_c, 0, 49, 54
1, 277564, Note_on_c, 0, 61, 64
1, 277565, Note_on_c, 0, 64, 61
1, 277568, Control_c, 0, 64, 69
1, 277583, Control_c, 0, 64, 50
1, 277598, Control_c, 0, 64, 0
1, 277613, Control_c, 0, 64, 42
1, 277628, Control_c, 0, 64, 55
1, 277643, Control_c, 0, 64, 64
1, 277658, Control_c, 0, 64, 71
1, 277673, Control_c, 0, 64, 86
1, 277675, Note_off_c, 0, 49, 63
1, 277688, Control_c, 0, 64, 108
1, 277702, Control_c, 0, 64, 127
1, 277712, Note_off_c, 0, 61, 56
1, 277721, Note_off_c, 0, 64, 57
1, 277759, Note_off_c, 0, 57, 37
1, 277788, Note_off_c, 0, 69, 37
1, 277866, Control_c, 0, 64, 93
1, 277881, Control_c, 0, 64, 70
1, 277896, Control_c, 0, 64, 59
1, 277901, Note_on_c, 0, 69, 70
1, 277904, Note_on_c, 0, 57, 62
1, 277908, Note_on_c, 0, 45, 42
1, 277910, Control_c, 0, 64, 56
1, 277915, Note_on_c, 0, 49, 47
1, 277916, Note_on_c, 0, 61, 53
1, 277922, Note_off_c, 0, 52, 51
1, 277925, Control_c, 0, 64, 60
1, 277940, Control_c, 0, 64, 65
1, 277955, Control_c, 0, 64, 73
1, 277968, Note_off_c, 0, 57, 62
1, 277970, Control_c, 0, 64, 91
1, 277984, Control_c, 0, 64, 127
1, 278008, Note_off_c, 0, 61, 55
1, 278015, Note_off_c, 0, 45, 50
1, 278016, Note_off_c, 0, 69, 61
1, 278031, Note_off_c, 0, 49, 61
1, 278075, Note_on_c, 0, 50, 73
1, 278079, Note_on_c, 0, 62, 84
1, 278081, Note_on_c, 0, 69, 81
1, 278084, Note_on_c, 0, 59, 80
1, 278090, Note_on_c, 0, 47, 68
1, 278146, Note_off_c, 0, 62, 59
1, 278150, Note_off_c, 0, 59, 58
1, 278166, Note_off_c, 0, 69, 61
1, 278194, Note_off_c, 0, 47, 60
1, 278214, Control_c, 0, 64, 90
1, 278229, Control_c, 0, 64, 68
1, 278231, Note_on_c, 0, 49, 83
1, 278235, Note_on_c, 0, 45, 84
1, 278238, Note_on_c, 0, 57, 97
1, 278238, Note_on_c, 0, 69, 88
1, 278239, Note_on_c, 0, 61, 89
1, 278243, Control_c, 0, 64, 54
1, 278257, Note_off_c, 0, 50, 33
1, 278258, Control_c, 0, 64, 56
1, 278273, Control_c, 0, 64, 64
1, 278288, Control_c, 0, 64, 75
1, 278302, Control_c, 0, 64, 106
1, 278305, Note_off_c, 0, 57, 61
1, 278316, Note_off_c, 0, 69, 60
1, 278317, Control_c, 0, 64, 127
1, 278329, Note_off_c, 0, 61, 61
1, 278355, Note_off_c, 0, 45, 59
1, 278364, Note_off_c, 0, 49, 0
1, 278382, Note_on_c, 0, 62, 101
1, 278383, Note_on_c, 0, 50, 94
1, 278390, Note_on_c, 0, 47, 76
1, 278391, Note_on_c, 0, 59, 86
1, 278391, Note_on_c, 0, 69, 93
1, 278402, Poly_aftertouch_c, 0, 49, 127
1, 278406, Note_on_c, 0, 49, 17
1, 278442, Note_off_c, 0, 59, 58
1, 278443, Note_off_c, 0, 49, 44
1, 278471, Note_off_c, 0, 69, 52
1, 278486, Note_off_c, 0, 62, 56
1, 278580, Note_on_c, 0, 61, 103
1, 278582, Note_on_c, 0, 64, 87
1, 278583, Note_on_c, 0, 49, 81
1, 278584, Note_on_c, 0, 52, 90
1, 278586, Note_on_c, 0, 69, 82
1, 278609, Note_off_c, 0, 50, 54
1, 278625, Note_off_c, 0, 47, 62
1, 278629, Control_c, 0, 64, 98
1, 278644, Control_c, 0, 64, 72
1, 278659, Control_c, 0, 64, 54
1, 278674, Control_c, 0, 64, 0
1, 278785, Control_c, 0, 64, 53
1, 278800, Control_c, 0, 64, 65
1, 278815, Control_c, 0, 64, 74
1, 278830, Control_c, 0, 64, 89
1, 278845, Control_c, 0, 64, 127
1, 278876, Note_off_c, 0, 52, 56
1, 278913, Note_off_c, 0, 69, 51
1, 278956, Note_off_c, 0, 61, 57
1, 278959, Note_off_c, 0, 49, 61
1, 279076, Note_off_c, 0, 64, 54
1, 279351, Note_on_c, 0, 57, 96
1, 279354, Note_on_c, 0, 69, 89
1, 279357, Note_on_c, 0, 54, 89
1, 279357, Note_on_c, 0, 62, 78
1, 279359, Note_on_c, 0, 50, 81
1, 279361, Note_on_c, 0, 66, 82
1, 279453, Control_c, 0, 64, 89
1, 279468, Control_c, 0, 64, 63
1, 279482, Control_c, 0, 64, 0
1, 279550, Control_c, 0, 64, 35
1, 279564, Control_c, 0, 64, 58
1, 279579, Control_c, 0, 64, 75
1, 279594, Control_c, 0, 64, 105
1, 279608, Control_c, 0, 64, 127
1, 279732, Note_off_c, 0, 54, 60
1, 279744, Note_off_c, 0, 69, 60
1, 279757, Note_off_c, 0, 57, 60
1, 279759, Note_off_c, 0, 50, 62
1, 279843, Note_off_c, 0, 62, 54
1, 279919, Note_off_c, 0, 66, 56
1, 280272, Note_on_c, 0, 40, 39
1, 280283, Control_c, 0, 64, 108
1, 280284, Note_on_c, 0, 69, 79
1, 280290, Note_on_c, 0, 47, 41
1, 280292, Note_on_c, 0, 52, 41
1, 280293, Note_on_c, 0, 50, 39
1, 280295, Note_on_c, 0, 57, 60
1, 280298, Control_c, 0, 64, 78
1, 280303, Note_on_c, 0, 64, 61
1, 280312, Control_c, 0, 64, 60
1, 280320, Note_on_c, 0, 62, 47
1, 280327, Control_c, 0, 64, 0
1, 280372, Control_c, 0, 64, 51
1, 280386, Control_c, 0, 64, 62
1, 280401, Control_c, 0, 64, 69
1, 280416, Control_c, 0, 64, 78
1, 280430, Control_c, 0, 64, 88
1, 280445, Control_c, 0, 64, 97
1, 280460, Control_c, 0, 64, 106
1, 280475, Control_c, 0, 64, 122
1, 280477, Note_off_c, 0, 69, 61
1, 280478, Note_off_c, 0, 57, 60
1, 280490, Control_c, 0, 64, 127
1, 280718, Note_on_c, 0, 68, 79
1, 280730, Note_on_c, 0, 56, 47
1, 280785, Note_off_c, 0, 56, 58
1, 280814, Note_off_c, 0, 68, 63
1, 280904, Note_on_c, 0, 66, 79
1, 280915, Note_on_c, 0, 54, 59
1, 280960, Note_off_c, 0, 54, 58
1, 281017, Note_off_c, 0, 66, 60
1, 281150, Control_c, 0, 64, 113
1, 281165, Control_c, 0, 64, 81
1, 281179, Control_c, 0, 64, 65
1, 281192, Note_on_c, 0, 68, 59
1, 281194, Control_c, 0, 64, 41
1, 281197, Note_on_c, 0, 56, 43
1, 281209, Control_c, 0, 64, 0
1, 281253, Control_c, 0, 64, 45
1, 281268, Control_c, 0, 64, 63
1, 281271, Note_off_c, 0, 40, 56
1, 281283, Control_c, 0, 64, 72
1, 281298, Control_c, 0, 64, 81
1, 281300, Note_off_c, 0, 52, 53
1, 281311, Note_off_c, 0, 50, 41
1, 281313, Note_off_c, 0, 47, 56
1, 281313, Control_c, 0, 64, 90
1, 281327, Control_c, 0, 64, 96
1, 281342, Control_c, 0, 64, 102
1, 281357, Control_c, 0, 64, 108
1, 281372, Control_c, 0, 64, 125
1, 281387, Control_c, 0, 64, 127
1, 281476, Control_c, 0, 67, 24
1, 281482, Note_off_c, 0, 56, 49
1, 281491, Control_c, 0, 67, 31
1, 281505, Control_c, 0, 67, 44
1, 281520, Control_c, 0, 67, 66
1, 281535, Control_c, 0, 67, 85
1, 281548, Note_off_c, 0, 62, 28
1, 281550, Control_c, 0, 67, 103
1, 281565, Control_c, 0, 67, 119
1, 281579, Note_off_c, 0, 64, 48
1, 281579, Control_c, 0, 67, 127
1, 281687, Note_off_c, 0, 68, 34
1, 282077, Control_c, 0, 64, 104
1, 282092, Control_c, 0, 64, 86
1, 282107, Control_c, 0, 64, 71
1, 282122, Control_c, 0, 64, 58
1, 282136, Control_c, 0, 64, 37
1, 282151, Control_c, 0, 64, 0
1, 282166, Control_c, 0, 64, 45
1, 282181, Control_c, 0, 64, 53
1, 282195, Control_c, 0, 64, 59
1, 282210, Control_c, 0, 64, 65
1, 282221, Note_on_c, 0, 86, 47
1, 282225, Control_c, 0, 64, 73
1, 282240, Control_c, 0, 64, 85
1, 282255, Control_c, 0, 64, 104
1, 282269, Control_c, 0, 64, 127
1, 282326, Note_off_c, 0, 86, 56
1, 282342, Note_on_c, 0, 83, 58
1, 282430, Note_on_c, 0, 80, 62
1, 282431, Note_off_c, 0, 83, 57
1, 282503, Note_off_c, 0, 80, 61
1, 282529, Note_on_c, 0, 74, 70
1, 282560, Note_off_c, 0, 74, 64
1, 282633, Note_on_c, 0, 71, 63
1, 282728, Note_on_c, 0, 68, 69
1, 282731, Note_off_c, 0, 71, 55
1, 282798, Note_off_c, 0, 68, 62
1, 282828, Note_on_c, 0, 62, 61
1, 282860, Note_off_c, 0, 62, 64
1, 282932, Note_on_c, 0, 59, 58
1, 283018, Control_c, 0, 64, 110
1, 283029, Note_on_c, 0, 56, 53
1, 283033, Control_c, 0, 64, 101
1, 283048, Control_c, 0, 64, 93
1, 283055, Note_off_c, 0, 59, 37
1, 283063, Control_c, 0, 64, 85
1, 283078, Control_c, 0, 64, 77
1, 283093, Control_c, 0, 64, 70
1, 283107, Control_c, 0, 64, 63
1, 283122, Control_c, 0, 64, 56
1, 283137, Control_c, 0, 64, 48
1, 283142, Note_on_c, 0, 50, 42
1, 283147, Note_off_c, 0, 56, 58
1, 283151, Control_c, 0, 64, 41
1, 283166, Control_c, 0, 64, 37
1, 283181, Control_c, 0, 64, 33
1, 283196, Control_c, 0, 64, 0
1, 283207, Note_off_c, 0, 50, 57
1, 283233, Note_on_c, 0, 47, 48
1, 283315, Note_off_c, 0, 47, 57
1, 283339, Note_on_c, 0, 44, 48
1, 283415, Note_off_c, 0, 44, 54
1, 283446, Note_on_c, 0, 40, 45
1, 283456, Control_c, 0, 67, 100
1, 283471, Control_c, 0, 67, 63
1, 283477, Note_off_c, 0, 40, 65
1, 283486, Control_c, 0, 67, 28
1, 283501, Control_c, 0, 67, 0
1, 283783, Note_on_c, 0, 74, 57
1, 283787, Note_on_c, 0, 68, 39
1, 283790, Note_on_c, 0, 52, 45
1, 283793, Note_on_c, 0, 56, 44
1, 283794, Note_on_c, 0, 62, 33
1, 283814, Note_off_c, 0, 68, 58
1, 283818, Note_off_c, 0, 52, 58
1, 283822, Note_off_c, 0, 56, 53
1, 283823, Note_off_c, 0, 74, 51
1, 283826, Note_off_c, 0, 62, 47
1, 284147, Control_c, 0, 64, 35
1, 284162, Control_c, 0, 64, 48
1, 284177, Control_c, 0, 64, 57
1, 284177, Note_on_c, 0, 74, 47
1, 284179, Note_on_c, 0, 53, 30
1, 284182, Note_on_c, 0, 57, 27
1, 284189, Note_on_c, 0, 69, 34
1, 284191, Note_on_c, 0, 62, 32
1, 284192, Control_c, 0, 64, 62
1, 284206, Control_c, 0, 64, 66
1, 284221, Control_c, 0, 64, 71
1, 284236, Control_c, 0, 64, 77
1, 284251, Control_c, 0, 64, 85
1, 284266, Control_c, 0, 64, 91
1, 284280, Control_c, 0, 64, 98
1, 284295, Control_c, 0, 64, 106
1, 284295, Control_c, 0, 67, 20
1, 284310, Control_c, 0, 64, 117
1, 284310, Control_c, 0, 67, 26
1, 284324, Control_c, 0, 64, 127
1, 284324, Control_c, 0, 67, 35
1, 284334, Note_off_c, 0, 62, 51
1, 284339, Control_c, 0, 67, 50
1, 284354, Control_c, 0, 67, 69
1, 284367, Note_off_c, 0, 53, 40
1, 284369, Control_c, 0, 67, 92
1, 284381, Note_off_c, 0, 57, 42
1, 284384, Control_c, 0, 67, 113
1, 284398, Control_c, 0, 67, 127
1, 284427, Note_off_c, 0, 74, 30
1, 284441, Note_off_c, 0, 69, 44
1, 284849, Control_c, 0, 64, 87
1, 284864, Control_c, 0, 64, 71
1, 284880, Control_c, 0, 64, 59
1, 284895, Control_c, 0, 64, 49
1, 284910, Control_c, 0, 64, 53
1, 284924, Note_on_c, 0, 86, 49
1, 284925, Control_c, 0, 64, 58
1, 284940, Control_c, 0, 64, 62
1, 284954, Control_c, 0, 64, 68
1, 284969, Control_c, 0, 64, 76
1, 284984, Control_c, 0, 64, 87
1, 284999, Control_c, 0, 64, 99
1, 285014, Control_c, 0, 64, 111
1, 285028, Control_c, 0, 64, 127
1, 285037, Note_on_c, 0, 81, 64
1, 285062, Note_off_c, 0, 86, 34
1, 285125, Note_on_c, 0, 77, 65
1, 285146, Control_c, 0, 67, 105
1, 285161, Control_c, 0, 67, 71
1, 285162, Note_off_c, 0, 81, 61
1, 285176, Control_c, 0, 67, 30
1, 285191, Control_c, 0, 67, 0
1, 285206, Note_off_c, 0, 77, 63
1, 285215, Note_on_c, 0, 74, 80
1, 285249, Note_off_c, 0, 74, 61
1, 285318, Note_on_c, 0, 69, 64
1, 285405, Note_on_c, 0, 65, 73
1, 285433, Note_off_c, 0, 69, 57
1, 285476, Note_off_c, 0, 65, 62
1, 285506, Note_on_c, 0, 62, 63
1, 285537, Note_off_c, 0, 62, 65
1, 285601, Note_on_c, 0, 57, 60
1, 285691, Note_on_c, 0, 53, 64
1, 285703, Control_c, 0, 64, 105
1, 285718, Control_c, 0, 64, 93
1, 285733, Control_c, 0, 64, 83
1, 285748, Control_c, 0, 64, 73
1, 285748, Control_c, 0, 67, 21
1, 285751, Note_off_c, 0, 57, 38
1, 285763, Control_c, 0, 64, 65
1, 285763, Control_c, 0, 67, 27
1, 285777, Control_c, 0, 64, 57
1, 285777, Control_c, 0, 67, 35
1, 285792, Control_c, 0, 64, 45
1, 285792, Control_c, 0, 67, 53
1, 285803, Note_off_c, 0, 53, 63
1, 285804, Note_on_c, 0, 50, 46
1, 285807, Control_c, 0, 64, 35
1, 285807, Control_c, 0, 67, 72
1, 285822, Control_c, 0, 64, 0
1, 285822, Control_c, 0, 67, 89
1, 285837, Control_c, 0, 67, 102
1, 285851, Control_c, 0, 67, 112
1, 285866, Control_c, 0, 67, 120
1, 285881, Control_c, 0, 67, 125
1, 285884, Note_off_c, 0, 50, 56
1, 285895, Note_on_c, 0, 45, 60
1, 285895, Control_c, 0, 67, 127
1, 285953, Note_off_c, 0, 45, 58
1, 285994, Note_on_c, 0, 40, 38
1, 286064, Note_off_c, 0, 40, 55
1, 286086, Note_on_c, 0, 41, 52
1, 286088, Control_c, 0, 67, 125
1, 286103, Control_c, 0, 67, 123
1, 286121, Note_off_c, 0, 41, 63
1, 286132, Control_c, 0, 67, 120
1, 286177, Control_c, 0, 67, 118
1, 286258, Control_c, 0, 67, 116
1, 286317, Control_c, 0, 67, 114
1, 286332, Control_c, 0, 67, 109
1, 286347, Control_c, 0, 67, 101
1, 286362, Control_c, 0, 67, 87
1, 286377, Control_c, 0, 67, 71
1, 286392, Control_c, 0, 67, 51
1, 286407, Control_c, 0, 67, 25
1, 286421, Control_c, 0, 67, 0
1, 286427, Note_on_c, 0, 74, 59
1, 286436, Note_on_c, 0, 53, 48
1, 286437, Note_on_c, 0, 69, 41
1, 286442, Note_on_c, 0, 62, 36
1, 286451, Note_on_c, 0, 57, 27
1, 286463, Note_off_c, 0, 53, 62
1, 286469, Note_off_c, 0, 69, 60
1, 286470, Note_off_c, 0, 74, 51
1, 286475, Note_off_c, 0, 62, 52
1, 286490, Note_off_c, 0, 57, 42
1, 286792, Control_c, 0, 64, 40
1, 286807, Control_c, 0, 64, 49
1, 286809, Note_on_c, 0, 54, 36
1, 286813, Note_on_c, 0, 74, 47
1, 286817, Note_on_c, 0, 57, 37
1, 286819, Note_on_c, 0, 62, 31
1, 286822, Control_c, 0, 64, 56
1, 286830, Note_on_c, 0, 72, 34
1, 286837, Control_c, 0, 64, 62
1, 286852, Control_c, 0, 64, 66
1, 286866, Control_c, 0, 64, 70
1, 286881, Control_c, 0, 64, 75
1, 286896, Control_c, 0, 64, 82
1, 286910, Control_c, 0, 64, 93
1, 286925, Control_c, 0, 64, 113
1, 286940, Control_c, 0, 64, 127
1, 286967, Note_off_c, 0, 62, 52
1, 287010, Note_off_c, 0, 57, 43
1, 287018, Note_off_c, 0, 54, 40
1, 287128, Note_off_c, 0, 74, 36
1, 287143, Note_off_c, 0, 72, 48
1, 287423, Control_c, 0, 64, 89
1, 287438, Control_c, 0, 64, 71
1, 287453, Control_c, 0, 64, 54
1, 287468, Control_c, 0, 64, 45
1, 287483, Control_c, 0, 64, 52
1, 287498, Control_c, 0, 64, 59
1, 287512, Control_c, 0, 64, 64
1, 287519, Note_on_c, 0, 86, 56
1, 287527, Control_c, 0, 64, 72
1, 287542, Control_c, 0, 64, 87
1, 287557, Control_c, 0, 64, 127
1, 287599, Note_off_c, 0, 86, 49
1, 287608, Note_on_c, 0, 83, 64
1, 287705, Note_on_c, 0, 79, 62
1, 287722, Note_off_c, 0, 83, 53
1, 287786, Note_off_c, 0, 79, 63
1, 287803, Note_on_c, 0, 74, 71
1, 287813, Note_on_c, 0, 43, 41
1, 287832, Note_off_c, 0, 74, 65
1, 287855, Note_off_c, 0, 43, 62
1, 287908, Note_on_c, 0, 71, 63
1, 287992, Note_off_c, 0, 71, 60
1, 288005, Note_on_c, 0, 67, 60
1, 288120, Note_on_c, 0, 44, 39
1, 288127, Control_c, 0, 64, 95
1, 288130, Note_on_c, 0, 53, 39
1, 288137, Note_on_c, 0, 50, 36
1, 288141, Control_c, 0, 64, 71
1, 288156, Control_c, 0, 64, 56
1, 288159, Note_off_c, 0, 67, 57
1, 288162, Note_on_c, 0, 62, 56
1, 288171, Control_c, 0, 64, 0
1, 288201, Control_c, 0, 64, 38
1, 288216, Control_c, 0, 64, 55
1, 288231, Control_c, 0, 64, 66
1, 288245, Control_c, 0, 64, 78
1, 288260, Control_c, 0, 64, 93
1, 288275, Control_c, 0, 64, 111
1, 288289, Control_c, 0, 64, 127
1, 288457, Note_off_c, 0, 62, 50
1, 288493, Note_on_c, 0, 74, 62
1, 288526, Note_off_c, 0, 44, 45
1, 288531, Note_off_c, 0, 74, 64
1, 288540, Note_off_c, 0, 53, 38
1, 288572, Note_off_c, 0, 50, 41
1, 288770, Control_c, 0, 64, 111
1, 288785, Control_c, 0, 64, 82
1, 288800, Control_c, 0, 64, 66
1, 288808, Note_on_c, 0, 86, 64
1, 288815, Control_c, 0, 64, 54
1, 288830, Control_c, 0, 64, 52
1, 288845, Control_c, 0, 64, 60
1, 288860, Control_c, 0, 64, 65
1, 288875, Control_c, 0, 64, 76
1, 288890, Control_c, 0, 64, 100
1, 288901, Note_on_c, 0, 81, 86
1, 288905, Control_c, 0, 64, 127
1, 288913, Note_off_c, 0, 86, 59
1, 288989, Note_on_c, 0, 77, 82
1, 289037, Note_off_c, 0, 81, 60
1, 289074, Note_on_c, 0, 74, 93
1, 289080, Note_off_c, 0, 77, 63
1, 289090, Note_on_c, 0, 50, 71
1, 289093, Note_on_c, 0, 53, 70
1, 289095, Note_on_c, 0, 45, 64
1, 289115, Note_off_c, 0, 74, 64
1, 289125, Note_off_c, 0, 53, 62
1, 289128, Note_off_c, 0, 45, 63
1, 289143, Note_off_c, 0, 50, 53
1, 289170, Note_on_c, 0, 69, 85
1, 289263, Note_on_c, 0, 65, 92
1, 289290, Note_off_c, 0, 69, 61
1, 289346, Note_off_c, 0, 65, 58
1, 289361, Note_on_c, 0, 53, 63
1, 289361, Note_on_c, 0, 50, 61
1, 289366, Note_on_c, 0, 46, 59
1, 289373, Control_c, 0, 64, 82
1, 289373, Note_on_c, 0, 62, 84
1, 289387, Control_c, 0, 64, 63
1, 289402, Control_c, 0, 64, 45
1, 289417, Control_c, 0, 64, 48
1, 289432, Control_c, 0, 64, 61
1, 289446, Control_c, 0, 64, 69
1, 289447, Note_off_c, 0, 62, 62
1, 289461, Control_c, 0, 64, 82
1, 289463, Note_off_c, 0, 50, 62
1, 289468, Note_on_c, 0, 74, 86
1, 289472, Note_off_c, 0, 46, 60
1, 289476, Control_c, 0, 64, 106
1, 289491, Control_c, 0, 64, 127
1, 289492, Note_off_c, 0, 53, 60
1, 289546, Note_on_c, 0, 73, 85
1, 289578, Note_off_c, 0, 74, 61
1, 289596, Note_off_c, 0, 73, 65
1, 289640, Note_on_c, 0, 53, 85
1, 289648, Note_on_c, 0, 74, 93
1, 289649, Note_on_c, 0, 47, 64
1, 289649, Note_on_c, 0, 50, 71
1, 289699, Note_off_c, 0, 74, 60
1, 289701, Note_off_c, 0, 47, 54
1, 289716, Note_off_c, 0, 53, 61
1, 289732, Note_on_c, 0, 86, 93
1, 289755, Note_off_c, 0, 50, 57
1, 289826, Note_on_c, 0, 85, 83
1, 289876, Note_off_c, 0, 86, 63
1, 289899, Note_off_c, 0, 85, 65
1, 289932, Note_on_c, 0, 47, 54
1, 289936, Note_on_c, 0, 56, 69
1, 289942, Note_on_c, 0, 50, 52
1, 289947, Note_on_c, 0, 52, 57
1, 289951, Note_on_c, 0, 86, 88
1, 290046, Note_on_c, 0, 85, 88
1, 290084, Note_off_c, 0, 86, 59
1, 290139, Note_on_c, 0, 88, 93
1, 290162, Note_off_c, 0, 85, 63
1, 290234, Note_on_c, 0, 86, 87
1, 290240, Control_c, 0, 64, 95
1, 290255, Control_c, 0, 64, 83
1, 290269, Control_c, 0, 64, 74
1, 290284, Control_c, 0, 64, 67
1, 290299, Control_c, 0, 64, 62
1, 290314, Control_c, 0, 64, 56
1, 290318, Note_on_c, 0, 85, 84
1, 290329, Control_c, 0, 64, 52
1, 290341, Note_off_c, 0, 88, 55
1, 290343, Control_c, 0, 64, 51
1, 290386, Note_off_c, 0, 86, 59
1, 290387, Control_c, 0, 64, 51
1, 290417, Note_on_c, 0, 83, 83
1, 290483, Note_off_c, 0, 85, 65
1, 290499, Note_off_c, 0, 83, 64
1, 290504, Note_on_c, 0, 81, 83
1, 290589, Note_on_c, 0, 80, 76
1, 290592, Note_off_c, 0, 81, 60
1, 290679, Note_on_c, 0, 83, 77
1, 290684, Control_c, 0, 64, 50
1, 290685, Note_off_c, 0, 80, 62
1, 290765, Control_c, 0, 64, 50
1, 290776, Note_on_c, 0, 81, 74
1, 290824, Note_off_c, 0, 83, 54
1, 290824, Control_c, 0, 64, 49
1, 290857, Note_on_c, 0, 80, 75
1, 290884, Control_c, 0, 64, 49
1, 290897, Note_off_c, 0, 81, 59
1, 290944, Control_c, 0, 64, 49
1, 290950, Note_on_c, 0, 78, 72
1, 290973, Control_c, 0, 64, 50
1, 290988, Control_c, 0, 64, 51
1, 290996, Note_off_c, 0, 80, 62
1, 291003, Control_c, 0, 64, 54
1, 291009, Note_off_c, 0, 78, 64
1, 291017, Control_c, 0, 64, 56
1, 291032, Control_c, 0, 64, 57
1, 291045, Note_on_c, 0, 76, 70
1, 291047, Control_c, 0, 64, 59
1, 291062, Control_c, 0, 64, 62
1, 291077, Control_c, 0, 64, 65
1, 291091, Control_c, 0, 64, 72
1, 291106, Control_c, 0, 64, 84
1, 291121, Control_c, 0, 64, 102
1, 291131, Note_off_c, 0, 76, 59
1, 291136, Note_on_c, 0, 75, 66
1, 291136, Control_c, 0, 64, 127
1, 291181, Note_off_c, 0, 47, 37
1, 291204, Note_off_c, 0, 56, 57
1, 291206, Note_off_c, 0, 52, 57
1, 291212, Note_off_c, 0, 75, 63
1, 291224, Note_on_c, 0, 78, 71
1, 291224, Note_off_c, 0, 50, 42
1, 291322, Note_on_c, 0, 76, 65
1, 291358, Note_off_c, 0, 78, 58
1, 291379, Note_off_c, 0, 76, 62
1, 291403, Note_on_c, 0, 74, 70
1, 291498, Note_off_c, 0, 74, 58
1, 291506, Note_on_c, 0, 73, 67
1, 291611, Note_on_c, 0, 71, 62
1, 291614, Note_on_c, 0, 59, 40
1, 291671, Note_off_c, 0, 59, 57
1, 291698, Note_on_c, 0, 58, 55
1, 291702, Note_on_c, 0, 70, 68
1, 291744, Note_off_c, 0, 73, 25
1, 291747, Note_off_c, 0, 71, 52
1, 291774, Note_off_c, 0, 58, 62
1, 291781, Control_c, 0, 64, 119
1, 291793, Note_on_c, 0, 74, 80
1, 291796, Control_c, 0, 64, 109
1, 291799, Note_off_c, 0, 70, 60
1, 291804, Note_on_c, 0, 62, 67
1, 291811, Control_c, 0, 64, 103
1, 291826, Control_c, 0, 64, 96
1, 291841, Control_c, 0, 64, 89
1, 291856, Control_c, 0, 64, 83
1, 291871, Control_c, 0, 64, 77
1, 291873, Note_on_c, 0, 73, 77
1, 291885, Note_off_c, 0, 62, 58
1, 291885, Control_c, 0, 64, 73
1, 291889, Note_on_c, 0, 61, 74
1, 291900, Control_c, 0, 64, 69
1, 291915, Control_c, 0, 64, 66
1, 291930, Control_c, 0, 64, 63
1, 291945, Control_c, 0, 64, 61
1, 291958, Note_off_c, 0, 61, 61
1, 291959, Control_c, 0, 64, 60
1, 291969, Note_on_c, 0, 71, 79
1, 291970, Note_off_c, 0, 74, 58
1, 291974, Control_c, 0, 64, 59
1, 291989, Control_c, 0, 64, 58
1, 291990, Note_on_c, 0, 59, 70
1, 292004, Control_c, 0, 64, 57
1, 292019, Control_c, 0, 64, 55
1, 292028, Note_off_c, 0, 73, 56
1, 292033, Control_c, 0, 64, 55
1, 292046, Note_off_c, 0, 71, 65
1, 292048, Control_c, 0, 64, 54
1, 292065, Note_on_c, 0, 69, 72
1, 292072, Note_off_c, 0, 59, 63
1, 292077, Note_on_c, 0, 57, 72
1, 292079, Control_c, 0, 64, 54
1, 292094, Control_c, 0, 64, 53
1, 292109, Control_c, 0, 64, 52
1, 292124, Control_c, 0, 64, 51
1, 292138, Control_c, 0, 64, 50
1, 292153, Control_c, 0, 64, 50
1, 292160, Note_off_c, 0, 57, 62
1, 292160, Note_on_c, 0, 68, 73
1, 292163, Note_off_c, 0, 69, 62
1, 292168, Note_on_c, 0, 56, 65
1, 292168, Control_c, 0, 64, 49
1, 292183, Control_c, 0, 64, 48
1, 292197, Control_c, 0, 64, 47
1, 292212, Control_c, 0, 64, 47
1, 292234, Control_c, 0, 64, 46
1, 292249, Control_c, 0, 64, 46
1, 292251, Note_off_c, 0, 56, 62
1, 292258, Note_on_c, 0, 69, 72
1, 292260, Note_off_c, 0, 68, 61
1, 292264, Control_c, 0, 64, 45
1, 292266, Note_on_c, 0, 57, 65
1, 292279, Control_c, 0, 64, 44
1, 292294, Control_c, 0, 64, 43
1, 292309, Control_c, 0, 64, 43
1, 292324, Control_c, 0, 64, 41
1, 292331, Note_off_c, 0, 57, 63
1, 292338, Control_c, 0, 64, 40
1, 292353, Control_c, 0, 64, 39
1, 292359, Note_on_c, 0, 71, 71
1, 292361, Note_on_c, 0, 59, 61
1, 292368, Control_c, 0, 64, 38
1, 292368, Note_off_c, 0, 69, 59
1, 292382, Control_c, 0, 64, 37
1, 292397, Control_c, 0, 64, 37
1, 292412, Control_c, 0, 64, 36
1, 292439, Note_off_c, 0, 59, 62
1, 292449, Note_on_c, 0, 69, 66
1, 292455, Note_on_c, 0, 57, 62
1, 292487, Note_off_c, 0, 71, 57
1, 292516, Control_c, 0, 64, 36
1, 292526, Note_off_c, 0, 57, 61
1, 292535, Note_on_c, 0, 68, 73
1, 292537, Note_on_c, 0, 56, 59
1, 292574, Note_off_c, 0, 69, 56
1, 292607, Note_off_c, 0, 56, 61
1, 292631, Note_on_c, 0, 66, 68
1, 292633, Note_on_c, 0, 54, 53
1, 292687, Note_off_c, 0, 68, 60
1, 292704, Note_off_c, 0, 54, 63
1, 292732, Note_off_c, 0, 66, 61
1, 292737, Note_on_c, 0, 64, 60
1, 292738, Note_on_c, 0, 52, 47
1, 292798, Note_off_c, 0, 52, 59
1, 292825, Note_on_c, 0, 54, 55
1, 292827, Note_off_c, 0, 64, 61
1, 292834, Note_on_c, 0, 66, 63
1, 292878, Note_off_c, 0, 54, 61
1, 292902, Control_c, 0, 64, 36
1, 292926, Note_on_c, 0, 52, 54
1, 292939, Note_on_c, 0, 64, 53
1, 292945, Note_off_c, 0, 66, 50
1, 292947, Control_c, 0, 64, 37
1, 292987, Note_off_c, 0, 64, 62
1, 293010, Note_off_c, 0, 52, 57
1, 293030, Note_on_c, 0, 62, 63
1, 293034, Note_on_c, 0, 50, 50
1, 293057, Control_c, 0, 64, 37
1, 293085, Note_off_c, 0, 50, 60
1, 293110, Note_off_c, 0, 62, 60
1, 293123, Note_on_c, 0, 49, 53
1, 293126, Note_on_c, 0, 61, 55
1, 293168, Note_off_c, 0, 49, 62
1, 293218, Note_on_c, 0, 47, 46
1, 293232, Note_on_c, 0, 59, 44
1, 293237, Note_off_c, 0, 61, 51
1, 293341, Note_off_c, 0, 59, 54
1, 293351, Note_off_c, 0, 47, 52
1, 293354, Control_c, 0, 64, 37
1, 293368, Control_c, 0, 64, 36
1, 293371, Note_on_c, 0, 57, 43
1, 293383, Control_c, 0, 64, 36
1, 293394, Note_on_c, 0, 45, 36
1, 293398, Control_c, 0, 64, 34
1, 293401, Note_on_c, 0, 49, 37
1, 293410, Note_off_c, 0, 57, 64
1, 293412, Control_c, 0, 64, 0
1, 293486, Control_c, 0, 67, 22
1, 293501, Control_c, 0, 67, 26
1, 293516, Control_c, 0, 67, 31
1, 293531, Control_c, 0, 67, 38
1, 293546, Control_c, 0, 67, 49
1, 293561, Control_c, 0, 67, 60
1, 293576, Control_c, 0, 67, 70
1, 293591, Control_c, 0, 67, 78
1, 293605, Control_c, 0, 67, 85
1, 293620, Control_c, 0, 67, 90
1, 293635, Control_c, 0, 67, 93
1, 293650, Control_c, 0, 67, 95
1, 293665, Control_c, 0, 67, 99
1, 293680, Control_c, 0, 67, 104
1, 293695, Control_c, 0, 67, 110
1, 293710, Control_c, 0, 67, 117
1, 293713, Note_on_c, 0, 69, 48
1, 293732, Control_c, 0, 67, 125
1, 293745, Note_off_c, 0, 69, 61
1, 293747, Control_c, 0, 67, 127
1, 294000, Note_off_c, 0, 45, 42
1, 294048, Note_on_c, 0, 76, 48
1, 294053, Note_on_c, 0, 64, 27
1, 294055, Note_off_c, 0, 49, 55
1, 294375, Note_on_c, 0, 49, 33
1, 294377, Note_on_c, 0, 57, 31
1, 294378, Note_on_c, 0, 45, 30
1, 294413, Note_off_c, 0, 57, 51
1, 294416, Note_off_c, 0, 49, 62
1, 294419, Note_off_c, 0, 45, 43
1, 294615, Control_c, 0, 64, 34
1, 294630, Control_c, 0, 64, 54
1, 294645, Control_c, 0, 64, 62
1, 294659, Control_c, 0, 64, 66
1, 294674, Control_c, 0, 64, 68
1, 294689, Control_c, 0, 64, 71
1, 294689, Control_c, 0, 67, 117
1, 294704, Control_c, 0, 64, 73
1, 294704, Control_c, 0, 67, 90
1, 294713, Note_off_c, 0, 64, 45
1, 294714, Note_on_c, 0, 47, 40
1, 294719, Control_c, 0, 64, 76
1, 294719, Control_c, 0, 67, 56
1, 294724, Note_on_c, 0, 57, 27
1, 294726, Note_on_c, 0, 50, 34
1, 294733, Control_c, 0, 64, 80
1, 294733, Control_c, 0, 67, 0
1, 294748, Control_c, 0, 64, 83
1, 294763, Control_c, 0, 64, 86
1, 294777, Control_c, 0, 64, 88
1, 294792, Control_c, 0, 64, 88
1, 294896, Control_c, 0, 64, 87
1, 294911, Control_c, 0, 64, 83
1, 294926, Control_c, 0, 64, 79
1, 294941, Control_c, 0, 64, 75
1, 294956, Control_c, 0, 64, 71
1, 294971, Control_c, 0, 64, 67
1, 294985, Control_c, 0, 64, 63
1, 295000, Control_c, 0, 64, 56
1, 295015, Control_c, 0, 64, 47
1, 295030, Control_c, 0, 64, 39
1, 295042, Note_off_c, 0, 76, 57
1, 295045, Control_c, 0, 64, 0
1, 295045, Note_on_c, 0, 78, 62
1, 295061, Note_on_c, 0, 66, 41
1, 295085, Note_off_c, 0, 78, 62
1, 295107, Note_off_c, 0, 66, 47
1, 295373, Note_off_c, 0, 47, 53
1, 295389, Note_on_c, 0, 74, 67
1, 295394, Note_off_c, 0, 57, 56
1, 295397, Note_off_c, 0, 50, 54
1, 295399, Note_on_c, 0, 62, 45
1, 295629, Control_c, 0, 67, 22
1, 295644, Control_c, 0, 67, 24
1, 295659, Control_c, 0, 67, 28
1, 295674, Control_c, 0, 67, 36
1, 295689, Control_c, 0, 67, 48
1, 295692, Note_on_c, 0, 47, 39
1, 295698, Note_on_c, 0, 50, 39
1, 295700, Note_on_c, 0, 57, 37
1, 295704, Control_c, 0, 67, 65
1, 295719, Control_c, 0, 67, 82
1, 295725, Note_off_c, 0, 47, 60
1, 295734, Note_off_c, 0, 57, 56
1, 295734, Control_c, 0, 67, 99
1, 295742, Note_off_c, 0, 50, 62
1, 295748, Control_c, 0, 67, 114
1, 295763, Control_c, 0, 67, 127
1, 295966, Note_off_c, 0, 62, 41
1, 295993, Control_c, 0, 64, 40
1, 296007, Control_c, 0, 64, 57
1, 296022, Control_c, 0, 64, 63
1, 296031, Note_on_c, 0, 52, 34
1, 296032, Note_on_c, 0, 49, 35
1, 296037, Control_c, 0, 64, 65
1, 296041, Note_on_c, 0, 57, 29
1, 296053, Control_c, 0, 64, 67
1, 296068, Control_c, 0, 64, 70
1, 296083, Control_c, 0, 64, 72
1, 296097, Control_c, 0, 64, 75
1, 296112, Control_c, 0, 64, 77
1, 296114, Note_off_c, 0, 74, 51
1, 296127, Control_c, 0, 64, 79
1, 296142, Control_c, 0, 64, 81
1, 296157, Control_c, 0, 64, 83
1, 296172, Control_c, 0, 64, 83
1, 296181, Note_on_c, 0, 76, 58
1, 296181, Note_on_c, 0, 64, 55
1, 296202, Note_off_c, 0, 76, 60
1, 296205, Note_off_c, 0, 64, 59
1, 296216, Control_c, 0, 64, 83
1, 296230, Control_c, 0, 64, 79
1, 296245, Control_c, 0, 64, 72
1, 296260, Control_c, 0, 64, 63
1, 296275, Control_c, 0, 64, 49
1, 296290, Control_c, 0, 64, 0
1, 296319, Control_c, 0, 64, 38
1, 296334, Control_c, 0, 64, 51
1, 296348, Control_c, 0, 64, 60
1, 296355, Note_on_c, 0, 73, 67
1, 296363, Control_c, 0, 64, 68
1, 296368, Note_on_c, 0, 61, 49
1, 296372, Note_off_c, 0, 52, 61
1, 296376, Note_off_c, 0, 57, 42
1, 296378, Control_c, 0, 64, 76
1, 296379, Note_off_c, 0, 49, 57
1, 296393, Control_c, 0, 64, 84
1, 296408, Control_c, 0, 64, 92
1, 296422, Control_c, 0, 64, 98
1, 296437, Control_c, 0, 64, 105
1, 296439, Note_off_c, 0, 73, 61
1, 296452, Control_c, 0, 64, 111
1, 296467, Control_c, 0, 64, 125
1, 296482, Control_c, 0, 64, 127
1, 296542, Note_off_c, 0, 61, 41
1, 296631, Note_on_c, 0, 50, 47
1, 296645, Note_on_c, 0, 54, 45
1, 296659, Note_on_c, 0, 71, 46
1, 296663, Note_on_c, 0, 57, 31
1, 296691, Control_c, 0, 64, 120
1, 296697, Note_off_c, 0, 71, 48
1, 296705, Control_c, 0, 64, 105
1, 296705, Control_c, 0, 67, 109
1, 296727, Control_c, 0, 64, 94
1, 296727, Control_c, 0, 67, 80
1, 296742, Control_c, 0, 64, 82
1, 296742, Control_c, 0, 67, 52
1, 296756, Control_c, 0, 64, 71
1, 296756, Control_c, 0, 67, 28
1, 296763, Note_on_c, 0, 59, 51
1, 296771, Control_c, 0, 64, 60
1, 296771, Control_c, 0, 67, 0
1, 296772, Note_off_c, 0, 57, 37
1, 296786, Control_c, 0, 64, 39
1, 296801, Control_c, 0, 64, 0
1, 296807, Note_off_c, 0, 59, 59
1, 296831, Control_c, 0, 64, 44
1, 296846, Control_c, 0, 64, 57
1, 296861, Note_on_c, 0, 71, 59
1, 296861, Control_c, 0, 64, 65
1, 296867, Note_off_c, 0, 54, 43
1, 296876, Control_c, 0, 64, 71
1, 296891, Control_c, 0, 64, 75
1, 296906, Control_c, 0, 64, 78
1, 296920, Control_c, 0, 64, 79
1, 296947, Note_on_c, 0, 70, 69
1, 296974, Note_on_c, 0, 55, 44
1, 296976, Note_on_c, 0, 52, 44
1, 296980, Control_c, 0, 64, 76
1, 296992, Note_on_c, 0, 57, 43
1, 296994, Note_off_c, 0, 71, 37
1, 296995, Note_off_c, 0, 50, 38
1, 296995, Control_c, 0, 64, 69
1, 297010, Control_c, 0, 64, 56
1, 297025, Control_c, 0, 64, 0
1, 297042, Note_off_c, 0, 70, 59
1, 297059, Note_on_c, 0, 58, 63
1, 297060, Note_off_c, 0, 57, 60
1, 297084, Control_c, 0, 64, 53
1, 297099, Control_c, 0, 64, 64
1, 297114, Control_c, 0, 64, 69
1, 297126, Note_on_c, 0, 70, 63
1, 297128, Control_c, 0, 64, 72
1, 297143, Control_c, 0, 64, 72
1, 297152, Note_off_c, 0, 58, 52
1, 297202, Control_c, 0, 64, 69
1, 297217, Control_c, 0, 64, 63
1, 297232, Control_c, 0, 64, 51
1, 297236, Note_off_c, 0, 52, 56
1, 297246, Control_c, 0, 64, 0
1, 297260, Note_off_c, 0, 55, 55
1, 297269, Note_on_c, 0, 71, 59
1, 297272, Note_on_c, 0, 50, 39
1, 297275, Note_off_c, 0, 70, 35
1, 297276, Note_on_c, 0, 59, 45
1, 297282, Note_on_c, 0, 57, 30
1, 297298, Note_on_c, 0, 54, 28
1, 297335, Control_c, 0, 64, 54
1, 297346, Note_off_c, 0, 59, 62
1, 297349, Note_off_c, 0, 50, 61
1, 297350, Control_c, 0, 64, 66
1, 297365, Note_off_c, 0, 71, 63
1, 297365, Control_c, 0, 64, 72
1, 297375, Note_off_c, 0, 57, 60
1, 297379, Control_c, 0, 64, 79
1, 297394, Control_c, 0, 64, 86
1, 297409, Control_c, 0, 64, 93
1, 297424, Control_c, 0, 64, 101
1, 297439, Control_c, 0, 64, 109
1, 297454, Control_c, 0, 64, 119
1, 297476, Control_c, 0, 64, 127
1, 297558, Note_off_c, 0, 54, 42
1, 297595, Note_on_c, 0, 52, 37
1, 297597, Note_on_c, 0, 49, 37
1, 297600, Note_on_c, 0, 73, 70
1, 297608, Note_on_c, 0, 57, 27
1, 297608, Note_on_c, 0, 61, 59
1, 297641, Note_off_c, 0, 52, 61
1, 297651, Note_off_c, 0, 49, 53
1, 297651, Note_off_c, 0, 61, 60
1, 297661, Note_off_c, 0, 73, 60
1, 297740, Note_on_c, 0, 74, 88
1, 297749, Note_on_c, 0, 62, 70
1, 297788, Note_off_c, 0, 62, 52
1, 297812, Note_off_c, 0, 74, 61
1, 297877, Control_c, 0, 64, 113
1, 297892, Control_c, 0, 64, 78
1, 297894, Note_off_c, 0, 57, 42
1, 297907, Control_c, 0, 64, 58
1, 297912, Note_on_c, 0, 45, 45
1, 297913, Note_on_c, 0, 49, 41
1, 297922, Note_on_c, 0, 76, 86
1, 297922, Control_c, 0, 64, 43
1, 297927, Note_on_c, 0, 64, 65
1, 297937, Control_c, 0, 64, 52
1, 297952, Control_c, 0, 64, 60
1, 297959, Note_off_c, 0, 64, 64
1, 297967, Control_c, 0, 64, 68
1, 297981, Control_c, 0, 64, 80
1, 297993, Note_off_c, 0, 45, 55
1, 297996, Note_off_c, 0, 49, 55
1, 297996, Control_c, 0, 64, 110
1, 298011, Control_c, 0, 64, 127
1, 298013, Note_off_c, 0, 76, 66
1, 298032, Note_on_c, 0, 57, 52
1, 298068, Note_off_c, 0, 57, 58
1, 298107, Note_on_c, 0, 49, 65
1, 298139, Note_off_c, 0, 49, 64
1, 298203, Control_c, 0, 64, 95
1, 298207, Poly_aftertouch_c, 0, 45, 0
1, 298226, Control_c, 0, 64, 69
1, 298241, Control_c, 0, 64, 54
1, 298241, Note_on_c, 0, 81, 95
1, 298247, Note_on_c, 0, 69, 76
1, 298256, Control_c, 0, 64, 53
1, 298257, Note_on_c, 0, 47, 43
1, 298259, Note_on_c, 0, 50, 46
1, 298271, Control_c, 0, 64, 61
1, 298285, Control_c, 0, 64, 66
1, 298300, Control_c, 0, 64, 75
1, 298306, Note_off_c, 0, 81, 65
1, 298315, Note_off_c, 0, 47, 62
1, 298315, Control_c, 0, 64, 98
1, 298318, Note_off_c, 0, 50, 60
1, 298329, Control_c, 0, 64, 127
1, 298331, Note_off_c, 0, 69, 61
1, 298361, Note_on_c, 0, 57, 55
1, 298419, Note_off_c, 0, 57, 53
1, 298446, Note_on_c, 0, 50, 49
1, 298464, Note_on_c, 0, 47, 42
1, 298623, Note_off_c, 0, 47, 38
1, 298625, Note_off_c, 0, 50, 51
1, 298629, Note_on_c, 0, 73, 81
1, 298643, Note_on_c, 0, 57, 35
1, 298646, Note_on_c, 0, 52, 42
1, 298648, Note_on_c, 0, 49, 42
1, 298648, Note_on_c, 0, 61, 57
1, 298656, Control_c, 0, 64, 115
1, 298671, Control_c, 0, 64, 81
1, 298686, Control_c, 0, 64, 64
1, 298700, Control_c, 0, 64, 0
1, 298774, Control_c, 0, 64, 52
1, 298789, Control_c, 0, 64, 64
1, 298804, Control_c, 0, 64, 76
1, 298819, Control_c, 0, 64, 91
1, 298834, Control_c, 0, 64, 119
1, 298849, Control_c, 0, 64, 127
1, 298868, Note_off_c, 0, 61, 60
1, 298899, Note_off_c, 0, 57, 42
1, 298923, Note_off_c, 0, 52, 58
1, 298937, Note_off_c, 0, 49, 41
1, 299066, Note_off_c, 0, 73, 54
1, 299399, Note_on_c, 0, 78, 74
1, 299403, Note_on_c, 0, 54, 43
1, 299406, Note_on_c, 0, 50, 38
1, 299411, Note_on_c, 0, 66, 58
1, 299415, Note_on_c, 0, 69, 57
1, 299419, Note_on_c, 0, 57, 32
1, 299463, Control_c, 0, 64, 101
1, 299478, Control_c, 0, 64, 75
1, 299493, Control_c, 0, 64, 57
1, 299508, Control_c, 0, 64, 35
1, 299523, Control_c, 0, 64, 0
1, 299537, Control_c, 0, 64, 38
1, 299552, Control_c, 0, 64, 51
1, 299567, Control_c, 0, 64, 59
1, 299582, Control_c, 0, 64, 65
1, 299597, Control_c, 0, 64, 76
1, 299612, Control_c, 0, 64, 90
1, 299627, Control_c, 0, 64, 111
1, 299641, Control_c, 0, 64, 127
1, 299665, Note_off_c, 0, 50, 40
1, 299680, Note_off_c, 0, 57, 43
1, 299737, Note_off_c, 0, 54, 60
1, 299746, Note_off_c, 0, 78, 61
1, 299784, Note_off_c, 0, 66, 60
1, 299821, Note_off_c, 0, 69, 36
1, 300089, Note_on_c, 0, 47, 39
1, 300113, Note_on_c, 0, 52, 31
1, 300139, Control_c, 0, 64, 114
1, 300141, Note_on_c, 0, 57, 31
1, 300146, Note_on_c, 0, 74, 66
1, 300154, Control_c, 0, 64, 81
1, 300165, Note_on_c, 0, 62, 43
1, 300165, Note_on_c, 0, 69, 38
1, 300169, Control_c, 0, 64, 64
1, 300184, Control_c, 0, 64, 45
1, 300198, Control_c, 0, 64, 39
1, 300213, Control_c, 0, 64, 49
1, 300228, Control_c, 0, 64, 57
1, 300243, Control_c, 0, 64, 63
1, 300258, Control_c, 0, 64, 70
1, 300270, Note_off_c, 0, 52, 56
1, 300272, Control_c, 0, 64, 79
1, 300287, Control_c, 0, 64, 88
1, 300295, Note_off_c, 0, 69, 53
1, 300302, Control_c, 0, 64, 93
1, 300316, Control_c, 0, 64, 96
1, 300331, Control_c, 0, 64, 99
1, 300346, Control_c, 0, 64, 104
1, 300361, Control_c, 0, 64, 111
1, 300376, Control_c, 0, 64, 125
1, 300390, Control_c, 0, 64, 127
1, 300529, Note_on_c, 0, 56, 33
1, 300536, Note_on_c, 0, 68, 44
1, 300665, Control_c, 0, 64, 118
1, 300679, Control_c, 0, 64, 108
1, 300682, Note_off_c, 0, 56, 40
1, 300691, Note_on_c, 0, 66, 46
1, 300694, Control_c, 0, 64, 101
1, 300699, Note_off_c, 0, 68, 37
1, 300700, Note_on_c, 0, 54, 44
1, 300709, Control_c, 0, 64, 96
1, 300724, Control_c, 0, 64, 93
1, 300739, Control_c, 0, 64, 89
1, 300754, Control_c, 0, 64, 86
1, 300769, Control_c, 0, 64, 83
1, 300783, Control_c, 0, 64, 78
1, 300798, Control_c, 0, 64, 73
1, 300813, Control_c, 0, 64, 67
1, 300828, Control_c, 0, 64, 62
1, 300843, Control_c, 0, 64, 56
1, 300858, Control_c, 0, 64, 49
1, 300873, Control_c, 0, 64, 40
1, 300885, Note_off_c, 0, 66, 41
1, 300888, Control_c, 0, 64, 0
1, 300906, Note_off_c, 0, 54, 45
1, 300909, Note_on_c, 0, 68, 40
1, 300915, Note_on_c, 0, 56, 30
1, 301036, Control_c, 0, 64, 40
1, 301051, Control_c, 0, 64, 54
1, 301066, Control_c, 0, 64, 62
1, 301081, Control_c, 0, 64, 66
1, 301095, Control_c, 0, 64, 70
1, 301095, Control_c, 0, 67, 23
1, 301099, Note_off_c, 0, 47, 43
1, 301110, Control_c, 0, 64, 74
1, 301110, Control_c, 0, 67, 30
1, 301125, Control_c, 0, 64, 79
1, 301125, Control_c, 0, 67, 40
1, 301139, Control_c, 0, 64, 84
1, 301139, Control_c, 0, 67, 55
1, 301141, Note_off_c, 0, 57, 41
1, 301141, Note_off_c, 0, 62, 50
1, 301149, Note_off_c, 0, 56, 52
1, 301154, Control_c, 0, 64, 89
1, 301154, Control_c, 0, 67, 74
1, 301169, Control_c, 0, 64, 94
1, 301169, Control_c, 0, 67, 98
1, 301184, Control_c, 0, 64, 99
1, 301184, Control_c, 0, 67, 119
1, 301186, Note_off_c, 0, 68, 61
1, 301199, Control_c, 0, 64, 103
1, 301199, Control_c, 0, 67, 127
1, 301221, Control_c, 0, 64, 109
1, 301236, Control_c, 0, 64, 118
1, 301251, Control_c, 0, 64, 127
1, 301606, Control_c, 0, 64, 103
1, 301609, Note_on_c, 0, 72, 47
1, 301612, Note_off_c, 0, 74, 41
1, 301615, Note_on_c, 0, 69, 41
1, 301615, Note_on_c, 0, 57, 35
1, 301619, Note_on_c, 0, 60, 39
1, 301621, Control_c, 0, 64, 84
1, 301636, Control_c, 0, 64, 69
1, 301640, Note_off_c, 0, 72, 63
1, 301642, Note_off_c, 0, 69, 58
1, 301651, Control_c, 0, 64, 56
1, 301666, Control_c, 0, 64, 0
1, 301937, Note_on_c, 0, 81, 64
1, 301943, Note_on_c, 0, 69, 41
1, 301978, Note_off_c, 0, 81, 63
1, 301979, Note_off_c, 0, 69, 50
1, 302247, Note_off_c, 0, 57, 60
1, 302257, Note_off_c, 0, 60, 59
1, 302298, Note_on_c, 0, 88, 66
1, 302304, Note_on_c, 0, 76, 56
1, 302614, Note_on_c, 0, 60, 50
1, 302626, Note_on_c, 0, 69, 43
1, 302650, Note_off_c, 0, 60, 65
1, 302656, Note_off_c, 0, 69, 57
1, 302703, Poly_aftertouch_c, 0, 57, 0
1, 302822, Control_c, 0, 64, 37
1, 302837, Control_c, 0, 64, 49
1, 302852, Control_c, 0, 64, 59
1, 302866, Control_c, 0, 64, 64
1, 302881, Control_c, 0, 64, 66
1, 302896, Control_c, 0, 64, 70
1, 302911, Control_c, 0, 64, 73
1, 302925, Control_c, 0, 64, 77
1, 302940, Control_c, 0, 64, 82
1, 302955, Control_c, 0, 64, 85
1, 302965, Note_on_c, 0, 59, 41
1, 302966, Note_on_c, 0, 69, 44
1, 302968, Note_on_c, 0, 62, 40
1, 302970, Control_c, 0, 64, 89
1, 302971, Note_off_c, 0, 76, 37
1, 302985, Control_c, 0, 64, 93
1, 302999, Control_c, 0, 64, 96
1, 303014, Control_c, 0, 64, 99
1, 303132, Control_c, 0, 64, 92
1, 303147, Control_c, 0, 64, 84
1, 303162, Control_c, 0, 64, 76
1, 303177, Control_c, 0, 64, 67
1, 303192, Control_c, 0, 64, 61
1, 303207, Control_c, 0, 64, 50
1, 303222, Control_c, 0, 64, 42
1, 303237, Control_c, 0, 64, 40
1, 303252, Control_c, 0, 64, 39
1, 303281, Note_on_c, 0, 89, 70
1, 303281, Control_c, 0, 64, 38
1, 303296, Note_on_c, 0, 77, 45
1, 303308, Note_off_c, 0, 88, 46
1, 303324, Note_off_c, 0, 89, 57
1, 303332, Note_off_c, 0, 77, 63
1, 303649, Note_on_c, 0, 86, 68
1, 303655, Note_off_c, 0, 69, 50
1, 303660, Note_on_c, 0, 74, 54
1, 303669, Note_off_c, 0, 59, 44
1, 303669, Note_off_c, 0, 62, 59
1, 303881, Control_c, 0, 64, 37
1, 303896, Control_c, 0, 64, 36
1, 303911, Control_c, 0, 64, 35
1, 303926, Control_c, 0, 64, 34
1, 303940, Control_c, 0, 64, 0
1, 303963, Note_on_c, 0, 62, 44
1, 303966, Note_on_c, 0, 69, 46
1, 303976, Note_on_c, 0, 59, 31
1, 304006, Note_off_c, 0, 59, 53
1, 304008, Note_off_c, 0, 62, 62
1, 304012, Note_off_c, 0, 69, 61
1, 304216, Control_c, 0, 64, 33
1, 304231, Control_c, 0, 64, 43
1, 304245, Control_c, 0, 64, 53
1, 304260, Control_c, 0, 64, 61
1, 304262, Note_off_c, 0, 74, 41
1, 304275, Control_c, 0, 64, 66
1, 304289, Control_c, 0, 64, 70
1, 304298, Note_on_c, 0, 64, 38
1, 304299, Note_on_c, 0, 60, 38
1, 304304, Control_c, 0, 64, 74
1, 304312, Note_on_c, 0, 69, 38
1, 304319, Control_c, 0, 64, 76
1, 304334, Control_c, 0, 64, 78
1, 304349, Control_c, 0, 64, 79
1, 304364, Control_c, 0, 64, 81
1, 304378, Control_c, 0, 64, 83
1, 304393, Control_c, 0, 64, 84
1, 304408, Note_off_c, 0, 86, 37
1, 304444, Note_on_c, 0, 88, 77
1, 304453, Control_c, 0, 64, 83
1, 304456, Note_on_c, 0, 76, 61
1, 304460, Note_off_c, 0, 88, 69
1, 304468, Control_c, 0, 64, 78
1, 304477, Note_off_c, 0, 76, 61
1, 304483, Control_c, 0, 64, 69
1, 304497, Control_c, 0, 64, 59
1, 304512, Control_c, 0, 64, 0
1, 304601, Control_c, 0, 64, 51
1, 304611, Note_on_c, 0, 84, 73
1, 304615, Control_c, 0, 64, 64
1, 304619, Note_on_c, 0, 72, 55
1, 304630, Control_c, 0, 64, 71
1, 304645, Control_c, 0, 64, 78
1, 304651, Note_off_c, 0, 72, 48
1, 304660, Control_c, 0, 64, 83
1, 304662, Note_off_c, 0, 84, 60
1, 304665, Note_off_c, 0, 69, 48
1, 304675, Control_c, 0, 64, 87
1, 304689, Control_c, 0, 64, 91
1, 304704, Control_c, 0, 64, 96
1, 304719, Control_c, 0, 64, 102
1, 304734, Control_c, 0, 64, 110
1, 304749, Control_c, 0, 64, 116
1, 304763, Control_c, 0, 64, 125
1, 304778, Control_c, 0, 64, 127
1, 304868, Control_c, 0, 64, 106
1, 304883, Control_c, 0, 64, 81
1, 304894, Note_off_c, 0, 60, 44
1, 304895, Note_off_c, 0, 64, 47
1, 304898, Control_c, 0, 64, 66
1, 304912, Control_c, 0, 64, 51
1, 304926, Note_on_c, 0, 65, 42
1, 304928, Control_c, 0, 64, 44
1, 304938, Note_on_c, 0, 62, 27
1, 304943, Control_c, 0, 64, 51
1, 304950, Note_on_c, 0, 82, 54
1, 304966, Control_c, 0, 64, 57
1, 304981, Control_c, 0, 64, 64
1, 304995, Control_c, 0, 64, 72
1, 305010, Control_c, 0, 64, 83
1, 305012, Note_off_c, 0, 65, 53
1, 305025, Control_c, 0, 64, 96
1, 305037, Note_off_c, 0, 82, 57
1, 305040, Control_c, 0, 64, 106
1, 305055, Control_c, 0, 64, 115
1, 305055, Note_on_c, 0, 70, 53
1, 305069, Control_c, 0, 64, 122
1, 305084, Control_c, 0, 64, 127
1, 305138, Note_on_c, 0, 82, 69
1, 305158, Note_off_c, 0, 70, 0
1, 305173, Note_off_c, 0, 82, 58
1, 305187, Control_c, 0, 64, 92
1, 305195, Poly_aftertouch_c, 0, 70, 127
1, 305202, Control_c, 0, 64, 73
1, 305217, Control_c, 0, 64, 58
1, 305220, Poly_aftertouch_c, 0, 70, 0
1, 305231, Control_c, 0, 64, 43
1, 305236, Note_on_c, 0, 63, 42
1, 305246, Control_c, 0, 64, 49
1, 305246, Control_c, 0, 67, 124
1, 305255, Note_on_c, 0, 81, 70
1, 305261, Control_c, 0, 64, 58
1, 305261, Control_c, 0, 67, 111
1, 305265, Note_off_c, 0, 62, 40
1, 305276, Control_c, 0, 64, 67
1, 305276, Control_c, 0, 67, 95
1, 305291, Control_c, 0, 64, 76
1, 305291, Control_c, 0, 67, 81
1, 305297, Poly_aftertouch_c, 0, 65, 127
1, 305306, Control_c, 0, 64, 87
1, 305306, Control_c, 0, 67, 70
1, 305311, Note_off_c, 0, 81, 55
1, 305320, Control_c, 0, 64, 94
1, 305320, Control_c, 0, 67, 62
1, 305335, Control_c, 0, 64, 99
1, 305335, Control_c, 0, 67, 55
1, 305343, Poly_aftertouch_c, 0, 65, 0
1, 305350, Control_c, 0, 64, 102
1, 305350, Control_c, 0, 67, 49
1, 305354, Note_on_c, 0, 69, 58
1, 305365, Control_c, 0, 64, 105
1, 305365, Control_c, 0, 67, 46
1, 305380, Control_c, 0, 64, 108
1, 305380, Control_c, 0, 67, 46
1, 305382, Note_off_c, 0, 69, 59
1, 305395, Control_c, 0, 64, 111
1, 305410, Control_c, 0, 64, 113
1, 305425, Control_c, 0, 64, 115
1, 305440, Note_on_c, 0, 81, 63
1, 305499, Control_c, 0, 64, 99
1, 305513, Control_c, 0, 64, 81
1, 305516, Note_off_c, 0, 63, 58
1, 305528, Control_c, 0, 64, 66
1, 305543, Control_c, 0, 64, 50
1, 305543, Control_c, 0, 67, 45
1, 305545, Note_on_c, 0, 65, 46
1, 305546, Note_off_c, 0, 81, 53
1, 305548, Note_on_c, 0, 62, 46
1, 305553, Note_on_c, 0, 82, 66
1, 305558, Control_c, 0, 64, 37
1, 305558, Control_c, 0, 67, 45
1, 305568, Note_on_c, 0, 70, 50
1, 305572, Control_c, 0, 64, 46
1, 305572, Control_c, 0, 67, 43
1, 305587, Control_c, 0, 64, 56
1, 305587, Control_c, 0, 67, 37
1, 305602, Control_c, 0, 64, 64
1, 305602, Control_c, 0, 67, 24
1, 305617, Control_c, 0, 64, 73
1, 305617, Control_c, 0, 67, 0
1, 305622, Note_off_c, 0, 62, 62
1, 305632, Note_off_c, 0, 70, 64
1, 305633, Control_c, 0, 64, 86
1, 305643, Note_off_c, 0, 65, 56
1, 305648, Control_c, 0, 64, 102
1, 305662, Control_c, 0, 64, 115
1, 305676, Control_c, 0, 64, 127
1, 305725, Note_off_c, 0, 82, 57
1, 305887, Note_on_c, 0, 58, 38
1, 305890, Note_on_c, 0, 62, 38
1, 305891, Note_on_c, 0, 65, 38
1, 305898, Note_on_c, 0, 84, 79
1, 305907, Note_on_c, 0, 72, 60
1, 305938, Note_off_c, 0, 62, 61
1, 305943, Note_off_c, 0, 58, 60
1, 305946, Note_off_c, 0, 72, 55
1, 305959, Note_off_c, 0, 84, 60
1, 306047, Note_on_c, 0, 86, 88
1, 306061, Note_on_c, 0, 74, 72
1, 306114, Note_off_c, 0, 86, 62
1, 306122, Note_off_c, 0, 74, 60
1, 306188, Control_c, 0, 64, 86
1, 306198, Note_on_c, 0, 84, 94
1, 306203, Control_c, 0, 64, 67
1, 306207, Note_off_c, 0, 65, 43
1, 306211, Note_on_c, 0, 72, 68
1, 306217, Control_c, 0, 64, 53
1, 306224, Note_on_c, 0, 60, 43
1, 306232, Control_c, 0, 64, 54
1, 306243, Note_off_c, 0, 72, 58
1, 306247, Control_c, 0, 64, 61
1, 306247, Note_on_c, 0, 57, 40
1, 306261, Control_c, 0, 64, 65
1, 306276, Control_c, 0, 64, 77
1, 306289, Note_off_c, 0, 57, 63
1, 306291, Control_c, 0, 64, 102
1, 306300, Note_off_c, 0, 60, 60
1, 306306, Note_off_c, 0, 84, 65
1, 306306, Control_c, 0, 64, 127
1, 306318, Note_on_c, 0, 65, 66
1, 306392, Note_off_c, 0, 65, 60
1, 306402, Note_on_c, 0, 60, 58
1, 306412, Note_on_c, 0, 57, 55
1, 306501, Note_off_c, 0, 57, 62
1, 306514, Note_off_c, 0, 60, 61
1, 306537, Control_c, 0, 64, 79
1, 306540, Note_on_c, 0, 89, 101
1, 306546, Note_on_c, 0, 56, 49
1, 306546, Note_on_c, 0, 77, 80
1, 306549, Note_on_c, 0, 59, 45
1, 306552, Control_c, 0, 64, 62
1, 306566, Control_c, 0, 64, 47
1, 306581, Control_c, 0, 64, 54
1, 306596, Control_c, 0, 64, 61
1, 306606, Note_off_c, 0, 56, 59
1, 306611, Control_c, 0, 64, 66
1, 306626, Control_c, 0, 64, 76
1, 306635, Note_off_c, 0, 59, 62
1, 306638, Note_off_c, 0, 89, 65
1, 306640, Control_c, 0, 64, 97
1, 306655, Control_c, 0, 64, 127
1, 306659, Note_on_c, 0, 65, 60
1, 306667, Note_off_c, 0, 77, 64
1, 306723, Note_off_c, 0, 65, 60
1, 306746, Note_on_c, 0, 56, 44
1, 306755, Note_on_c, 0, 59, 46
1, 306891, Note_off_c, 0, 59, 56
1, 306902, Note_off_c, 0, 56, 48
1, 306931, Note_on_c, 0, 57, 41
1, 306938, Note_on_c, 0, 60, 44
1, 306940, Note_on_c, 0, 81, 87
1, 306948, Poly_aftertouch_c, 0, 75, 127
1, 306951, Note_on_c, 0, 69, 68
1, 306955, Note_on_c, 0, 65, 49
1, 306996, Control_c, 0, 64, 112
1, 307010, Control_c, 0, 64, 79
1, 307025, Poly_aftertouch_c, 0, 75, 0
1, 307025, Control_c, 0, 64, 62
1, 307040, Control_c, 0, 64, 38
1, 307070, Control_c, 0, 64, 54
1, 307084, Control_c, 0, 64, 63
1, 307099, Control_c, 0, 64, 74
1, 307114, Control_c, 0, 64, 97
1, 307129, Control_c, 0, 64, 127
1, 307171, Note_off_c, 0, 69, 58
1, 307253, Note_off_c, 0, 60, 61
1, 307268, Note_off_c, 0, 65, 50
1, 307687, Note_on_c, 0, 86, 83
1, 307694, Note_on_c, 0, 65, 40
1, 307702, Note_off_c, 0, 57, 42
1, 307706, Note_on_c, 0, 58, 40
1, 307708, Note_on_c, 0, 74, 65
1, 307712, Note_on_c, 0, 62, 40
1, 307720, Note_on_c, 0, 77, 55
1, 307736, Note_off_c, 0, 81, 55
1, 307745, Control_c, 0, 64, 98
1, 307760, Control_c, 0, 64, 71
1, 307775, Control_c, 0, 64, 54
1, 307789, Control_c, 0, 64, 0
1, 307804, Control_c, 0, 64, 34
1, 307819, Control_c, 0, 64, 47
1, 307833, Control_c, 0, 64, 57
1, 307848, Control_c, 0, 64, 66
1, 307863, Control_c, 0, 64, 76
1, 307878, Control_c, 0, 64, 90
1, 307893, Control_c, 0, 64, 109
1, 307908, Control_c, 0, 64, 127
1, 307976, Note_off_c, 0, 74, 58
1, 307986, Note_off_c, 0, 65, 41
1, 308034, Note_off_c, 0, 86, 62
1, 308042, Note_off_c, 0, 58, 38
1, 308098, Note_off_c, 0, 77, 61
1, 308114, Note_off_c, 0, 62, 28
1, 308349, Note_on_c, 0, 55, 32
1, 308422, Note_on_c, 0, 60, 33
1, 308435, Control_c, 0, 64, 93
1, 308450, Control_c, 0, 64, 71
1, 308464, Control_c, 0, 64, 53
1, 308468, Note_on_c, 0, 82, 68
1, 308479, Control_c, 0, 64, 36
1, 308483, Note_on_c, 0, 70, 46
1, 308486, Note_on_c, 0, 77, 54
1, 308494, Control_c, 0, 64, 40
1, 308495, Note_on_c, 0, 65, 34
1, 308509, Control_c, 0, 64, 49
1, 308524, Control_c, 0, 64, 56
1, 308538, Control_c, 0, 64, 62
1, 308553, Control_c, 0, 64, 69
1, 308568, Control_c, 0, 64, 82
1, 308582, Control_c, 0, 64, 100
1, 308597, Control_c, 0, 64, 127
1, 308645, Note_off_c, 0, 65, 40
1, 308672, Note_off_c, 0, 77, 39
1, 308865, Note_on_c, 0, 76, 52
1, 308869, Note_on_c, 0, 64, 34
1, 308917, Control_c, 0, 67, 21
1, 308947, Control_c, 0, 67, 23
1, 308961, Control_c, 0, 67, 25
1, 308976, Control_c, 0, 67, 29
1, 308991, Control_c, 0, 67, 32
1, 309005, Control_c, 0, 64, 118
1, 309005, Control_c, 0, 67, 36
1, 309020, Control_c, 0, 64, 103
1, 309020, Control_c, 0, 67, 40
1, 309027, Note_off_c, 0, 76, 55
1, 309032, Note_on_c, 0, 74, 53
1, 309035, Control_c, 0, 64, 95
1, 309035, Control_c, 0, 67, 45
1, 309038, Note_off_c, 0, 64, 40
1, 309045, Note_on_c, 0, 62, 43
1, 309050, Control_c, 0, 64, 89
1, 309050, Control_c, 0, 67, 54
1, 309065, Control_c, 0, 64, 81
1, 309065, Control_c, 0, 67, 66
1, 309079, Control_c, 0, 64, 73
1, 309079, Control_c, 0, 67, 76
1, 309094, Control_c, 0, 64, 67
1, 309094, Control_c, 0, 67, 84
1, 309109, Control_c, 0, 64, 61
1, 309109, Control_c, 0, 67, 89
1, 309124, Control_c, 0, 64, 56
1, 309124, Control_c, 0, 67, 95
1, 309139, Control_c, 0, 64, 50
1, 309139, Control_c, 0, 67, 100
1, 309154, Control_c, 0, 64, 43
1, 309154, Control_c, 0, 67, 107
1, 309169, Control_c, 0, 64, 0
1, 309169, Control_c, 0, 67, 112
1, 309184, Control_c, 0, 67, 117
1, 309199, Control_c, 0, 67, 121
1, 309213, Control_c, 0, 67, 125
1, 309228, Control_c, 0, 67, 127
1, 309253, Note_off_c, 0, 74, 36
1, 309256, Note_off_c, 0, 62, 42
1, 309268, Note_on_c, 0, 76, 43
1, 309275, Note_on_c, 0, 64, 16
1, 309302, Control_c, 0, 64, 44
1, 309317, Control_c, 0, 64, 55
1, 309322, Note_off_c, 0, 70, 45
1, 309332, Control_c, 0, 64, 62
1, 309347, Control_c, 0, 64, 68
1, 309361, Control_c, 0, 64, 75
1, 309376, Control_c, 0, 64, 82
1, 309391, Control_c, 0, 64, 87
1, 309405, Control_c, 0, 64, 92
1, 309420, Control_c, 0, 64, 96
1, 309435, Control_c, 0, 64, 99
1, 309458, Note_off_c, 0, 82, 62
1, 309473, Control_c, 0, 64, 101
1, 309494, Note_off_c, 0, 76, 62
1, 309496, Note_off_c, 0, 55, 40
1, 309512, Note_off_c, 0, 64, 41
1, 309521, Note_off_c, 0, 60, 40
1, 309546, Control_c, 0, 64, 103
1, 309591, Control_c, 0, 64, 105
1, 309605, Control_c, 0, 64, 111
1, 309620, Control_c, 0, 64, 116
1, 309795, Note_on_c, 0, 53, 17
1, 309799, Control_c, 0, 64, 104
1, 309814, Control_c, 0, 64, 87
1, 309821, Note_on_c, 0, 57, 29
1, 309828, Control_c, 0, 64, 72
1, 309843, Control_c, 0, 64, 60
1, 309851, Note_on_c, 0, 60, 26
1, 309858, Control_c, 0, 64, 43
1, 309873, Control_c, 0, 64, 45
1, 309888, Control_c, 0, 64, 52
1, 309902, Control_c, 0, 64, 59
1, 309917, Control_c, 0, 64, 65
1, 309926, Note_off_c, 0, 53, 35
1, 309927, Note_on_c, 0, 69, 9
1, 309932, Note_on_c, 0, 65, 14
1, 309932, Control_c, 0, 64, 72
1, 309937, Note_on_c, 0, 81, 26
1, 309947, Control_c, 0, 64, 81
1, 309953, Note_on_c, 0, 77, 22
1, 309962, Control_c, 0, 64, 90
1, 309977, Control_c, 0, 64, 95
1, 309977, Note_off_c, 0, 69, 38
1, 309980, Note_off_c, 0, 65, 37
1, 309991, Control_c, 0, 64, 99
1, 309994, Note_off_c, 0, 60, 42
1, 309996, Note_off_c, 0, 57, 40
1, 310006, Control_c, 0, 64, 102
1, 310009, Note_off_c, 0, 77, 43
1, 310021, Control_c, 0, 64, 106
1, 310036, Control_c, 0, 64, 110
1, 310042, Note_on_c, 0, 72, 50
1, 310051, Control_c, 0, 64, 115
1, 310055, Note_off_c, 0, 81, 44
1, 310066, Control_c, 0, 64, 127
1, 310096, Note_off_c, 0, 72, 53
1, 310124, Note_on_c, 0, 77, 61
1, 310217, Note_off_c, 0, 77, 54
1, 310230, Note_on_c, 0, 72, 59
1, 310296, Note_off_c, 0, 72, 56
1, 310314, Note_on_c, 0, 69, 66
1, 310344, Note_off_c, 0, 69, 64
1, 310417, Note_on_c, 0, 65, 72
1, 310510, Note_on_c, 0, 60, 65
1, 310523, Note_off_c, 0, 65, 60
1, 310571, Note_off_c, 0, 60, 60
1, 310595, Note_on_c, 0, 57, 59
1, 310634, Note_off_c, 0, 57, 58
1, 310692, Note_on_c, 0, 53, 56
1, 310790, Note_on_c, 0, 48, 48
1, 310810, Note_off_c, 0, 53, 48
1, 310849, Note_off_c, 0, 48, 57
1, 310880, Note_on_c, 0, 45, 67
1, 310913, Note_off_c, 0, 45, 65
1, 310978, Note_on_c, 0, 41, 65
1, 311059, Control_c, 0, 64, 113
1, 311074, Control_c, 0, 64, 94
1, 311079, Note_off_c, 0, 41, 47
1, 311088, Control_c, 0, 64, 78
1, 311100, Note_on_c, 0, 29, 53
1, 311103, Control_c, 0, 64, 64
1, 311118, Control_c, 0, 64, 42
1, 311133, Control_c, 0, 64, 0
1, 311152, Note_off_c, 0, 29, 63
1, 311207, Control_c, 0, 67, 105
1, 311222, Control_c, 0, 67, 82
1, 311238, Control_c, 0, 67, 64
1, 311252, Control_c, 0, 67, 54
1, 311267, Control_c, 0, 67, 49
1, 311282, Control_c, 0, 67, 46
1, 311297, Control_c, 0, 67, 44
1, 311312, Control_c, 0, 67, 42
1, 311327, Control_c, 0, 67, 42
1, 311342, Control_c, 0, 67, 41
1, 311356, Control_c, 0, 67, 40
1, 311371, Control_c, 0, 67, 34
1, 311386, Control_c, 0, 67, 25
1, 311400, Control_c, 0, 67, 0
1, 311447, Note_on_c, 0, 72, 55
1, 311455, Note_on_c, 0, 60, 47
1, 311467, Note_on_c, 0, 65, 41
1, 311470, Note_on_c, 0, 57, 43
1, 311476, Note_on_c, 0, 53, 34
1, 311487, Note_off_c, 0, 72, 59
1, 311491, Note_off_c, 0, 60, 52
1, 311497, Note_off_c, 0, 57, 53
1, 311497, Note_off_c, 0, 65, 59
1, 311511, Note_off_c, 0, 53, 43
1, 311822, Control_c, 0, 64, 35
1, 311822, Control_c, 0, 67, 20
1, 311834, Note_on_c, 0, 72, 54
1, 311837, Control_c, 0, 64, 45
1, 311837, Control_c, 0, 67, 26
1, 311843, Note_on_c, 0, 53, 31
1, 311846, Note_on_c, 0, 58, 31
1, 311846, Note_on_c, 0, 60, 41
1, 311852, Control_c, 0, 64, 56
1, 311852, Control_c, 0, 67, 35
1, 311857, Note_on_c, 0, 67, 42
1, 311860, Note_on_c, 0, 64, 34
1, 311867, Control_c, 0, 64, 62
1, 311867, Control_c, 0, 67, 46
1, 311881, Control_c, 0, 64, 65
1, 311881, Control_c, 0, 67, 62
1, 311896, Control_c, 0, 64, 69
1, 311896, Control_c, 0, 67, 77
1, 311911, Control_c, 0, 64, 73
1, 311911, Control_c, 0, 67, 93
1, 311917, Note_off_c, 0, 60, 61
1, 311926, Control_c, 0, 64, 78
1, 311926, Control_c, 0, 67, 112
1, 311941, Control_c, 0, 64, 84
1, 311941, Control_c, 0, 67, 127
1, 311956, Control_c, 0, 64, 93
1, 311971, Control_c, 0, 64, 101
1, 311986, Control_c, 0, 64, 110
1, 312000, Control_c, 0, 64, 125
1, 312015, Control_c, 0, 64, 127
1, 312021, Note_off_c, 0, 72, 59
1, 312030, Note_off_c, 0, 64, 62
1, 312035, Note_off_c, 0, 67, 60
1, 312469, Control_c, 0, 64, 110
1, 312484, Control_c, 0, 64, 88
1, 312495, Note_off_c, 0, 58, 44
1, 312498, Control_c, 0, 64, 72
1, 312510, Note_on_c, 0, 57, 33
1, 312513, Control_c, 0, 64, 60
1, 312528, Control_c, 0, 64, 46
1, 312543, Control_c, 0, 64, 50
1, 312547, Note_on_c, 0, 72, 49
1, 312557, Control_c, 0, 64, 58
1, 312572, Control_c, 0, 64, 63
1, 312587, Control_c, 0, 64, 69
1, 312602, Control_c, 0, 64, 76
1, 312617, Control_c, 0, 64, 84
1, 312631, Control_c, 0, 64, 90
1, 312646, Control_c, 0, 64, 96
1, 312650, Note_off_c, 0, 72, 58
1, 312651, Note_on_c, 0, 77, 63
1, 312661, Control_c, 0, 64, 102
1, 312671, Note_off_c, 0, 53, 39
1, 312676, Control_c, 0, 64, 112
1, 312691, Control_c, 0, 64, 127
1, 312704, Note_off_c, 0, 57, 41
1, 312705, Control_c, 0, 67, 110
1, 312720, Control_c, 0, 67, 83
1, 312735, Control_c, 0, 67, 47
1, 312736, Note_on_c, 0, 81, 74
1, 312739, Note_off_c, 0, 77, 62
1, 312749, Control_c, 0, 67, 0
1, 312820, Note_on_c, 0, 77, 75
1, 312826, Note_off_c, 0, 81, 57
1, 312918, Note_on_c, 0, 72, 73
1, 312948, Note_off_c, 0, 77, 60
1, 312996, Note_off_c, 0, 72, 60
1, 313004, Note_on_c, 0, 69, 76
1, 313056, Note_off_c, 0, 69, 58
1, 313105, Note_on_c, 0, 65, 76
1, 313201, Note_on_c, 0, 60, 74
1, 313224, Note_off_c, 0, 65, 63
1, 313280, Note_off_c, 0, 60, 61
1, 313286, Note_on_c, 0, 57, 72
1, 313336, Control_c, 0, 64, 91
1, 313351, Control_c, 0, 64, 67
1, 313360, Note_off_c, 0, 57, 56
1, 313366, Control_c, 0, 64, 53
1, 313380, Control_c, 0, 64, 48
1, 313393, Note_on_c, 0, 48, 53
1, 313395, Control_c, 0, 64, 55
1, 313399, Note_on_c, 0, 53, 67
1, 313410, Control_c, 0, 64, 61
1, 313425, Control_c, 0, 64, 67
1, 313440, Control_c, 0, 64, 75
1, 313454, Control_c, 0, 64, 90
1, 313463, Note_off_c, 0, 48, 57
1, 313469, Control_c, 0, 64, 105
1, 313484, Control_c, 0, 64, 127
1, 313485, Note_on_c, 0, 45, 73
1, 313503, Note_off_c, 0, 53, 59
1, 313518, Note_off_c, 0, 45, 64
1, 313569, Note_on_c, 0, 41, 68
1, 313632, Note_off_c, 0, 41, 53
1, 313676, Note_on_c, 0, 29, 71
1, 313692, Control_c, 0, 64, 89
1, 313707, Control_c, 0, 64, 68
1, 313714, Note_off_c, 0, 29, 64
1, 313721, Control_c, 0, 64, 48
1, 313736, Control_c, 0, 64, 0
1, 314016, Note_on_c, 0, 77, 76
1, 314017, Note_on_c, 0, 60, 71
1, 314025, Note_on_c, 0, 53, 57
1, 314027, Note_on_c, 0, 65, 64
1, 314027, Note_on_c, 0, 72, 59
1, 314031, Note_on_c, 0, 57, 42
1, 314043, Note_off_c, 0, 60, 70
1, 314048, Note_off_c, 0, 53, 59
1, 314048, Note_off_c, 0, 65, 63
1, 314058, Note_off_c, 0, 72, 66
1, 314060, Note_off_c, 0, 57, 55
1, 314078, Note_off_c, 0, 77, 62
1, 314350, Control_c, 0, 64, 36
1, 314365, Control_c, 0, 64, 45
1, 314380, Control_c, 0, 64, 54
1, 314391, Note_on_c, 0, 79, 79
1, 314394, Control_c, 0, 64, 61
1, 314402, Note_on_c, 0, 60, 42
1, 314405, Note_on_c, 0, 58, 33
1, 314409, Note_on_c, 0, 67, 52
1, 314409, Control_c, 0, 64, 66
1, 314413, Note_on_c, 0, 53, 35
1, 314423, Note_on_c, 0, 72, 47
1, 314425, Control_c, 0, 64, 71
1, 314427, Note_on_c, 0, 76, 58
1, 314440, Control_c, 0, 64, 79
1, 314455, Control_c, 0, 64, 89
1, 314470, Control_c, 0, 64, 111
1, 314485, Control_c, 0, 64, 127
1, 314617, Note_off_c, 0, 67, 63
1, 314629, Note_off_c, 0, 79, 64
1, 314664, Note_off_c, 0, 53, 41
1, 314687, Note_off_c, 0, 72, 52
1, 314691, Note_off_c, 0, 58, 63
1, 315025, Note_on_c, 0, 53, 34
1, 315041, Control_c, 0, 64, 84
1, 315044, Note_on_c, 0, 77, 62
1, 315056, Control_c, 0, 64, 67
1, 315061, Note_on_c, 0, 65, 52
1, 315070, Control_c, 0, 64, 58
1, 315071, Note_off_c, 0, 76, 39
1, 315077, Note_on_c, 0, 72, 32
1, 315078, Note_off_c, 0, 60, 43
1, 315085, Control_c, 0, 64, 59
1, 315100, Control_c, 0, 64, 64
1, 315115, Control_c, 0, 64, 70
1, 315130, Control_c, 0, 64, 80
1, 315134, Note_on_c, 0, 57, 54
1, 315144, Control_c, 0, 64, 99
1, 315148, Note_off_c, 0, 53, 37
1, 315159, Control_c, 0, 64, 127
1, 315196, Note_off_c, 0, 57, 61
1, 315225, Note_on_c, 0, 60, 64
1, 315312, Note_on_c, 0, 57, 68
1, 315313, Note_off_c, 0, 60, 60
1, 315398, Note_off_c, 0, 57, 61
1, 315401, Note_on_c, 0, 53, 74
1, 315485, Note_off_c, 0, 53, 61
1, 315507, Note_on_c, 0, 48, 67
1, 315568, Control_c, 0, 64, 86
1, 315578, Note_off_c, 0, 48, 61
1, 315582, Control_c, 0, 64, 67
1, 315597, Control_c, 0, 64, 56
1, 315612, Control_c, 0, 64, 57
1, 315621, Note_on_c, 0, 53, 68
1, 315627, Control_c, 0, 64, 62
1, 315641, Control_c, 0, 64, 69
1, 315656, Control_c, 0, 64, 81
1, 315671, Control_c, 0, 64, 104
1, 315686, Control_c, 0, 64, 127
1, 315714, Note_on_c, 0, 48, 75
1, 315724, Note_off_c, 0, 53, 59
1, 315760, Note_off_c, 0, 65, 36
1, 315801, Note_off_c, 0, 48, 61
1, 315803, Note_on_c, 0, 45, 84
1, 315837, Note_off_c, 0, 45, 64
1, 315904, Note_on_c, 0, 41, 87
1, 315914, Note_off_c, 0, 72, 39
1, 315919, Note_off_c, 0, 77, 62
1, 316004, Note_on_c, 0, 36, 85
1, 316010, Note_off_c, 0, 41, 61
1, 316096, Note_on_c, 0, 33, 87
1, 316147, Note_off_c, 0, 36, 60
1, 316234, Note_on_c, 0, 29, 75
1, 316257, Note_on_c, 0, 77, 85
1, 316270, Control_c, 0, 64, 82
1, 316285, Control_c, 0, 64, 63
1, 316300, Control_c, 0, 64, 0
1, 316309, Poly_aftertouch_c, 0, 32, 0
1, 316351, Note_on_c, 0, 81, 92
1, 316374, Control_c, 0, 64, 48
1, 316381, Note_off_c, 0, 77, 62
1, 316389, Control_c, 0, 64, 64
1, 316393, Note_off_c, 0, 33, 61
1, 316403, Control_c, 0, 64, 79
1, 316418, Control_c, 0, 64, 127
1, 316439, Note_on_c, 0, 84, 96
1, 316456, Poly_aftertouch_c, 0, 80, 127
1, 316462, Note_off_c, 0, 81, 64
1, 316469, Note_off_c, 0, 29, 63
1, 316481, Poly_aftertouch_c, 0, 80, 0
1, 316533, Note_on_c, 0, 81, 92
1, 316585, Note_off_c, 0, 84, 56
1, 316619, Note_on_c, 0, 77, 91
1, 316648, Note_off_c, 0, 81, 62
1, 316708, Note_on_c, 0, 72, 83
1, 316715, Note_off_c, 0, 77, 64
1, 316809, Note_on_c, 0, 79, 77
1, 316810, Note_on_c, 0, 77, 81
1, 316815, Note_off_c, 0, 72, 65
1, 316842, Note_off_c, 0, 79, 64
1, 316895, Note_on_c, 0, 72, 88
1, 316916, Note_off_c, 0, 77, 63
1, 316992, Note_on_c, 0, 69, 95
1, 317045, Note_off_c, 0, 72, 61
1, 317082, Note_on_c, 0, 65, 100
1, 317097, Note_off_c, 0, 69, 58
1, 317122, Note_off_c, 0, 65, 67
1, 317169, Note_on_c, 0, 60, 91
1, 317259, Note_on_c, 0, 57, 94
1, 317316, Note_off_c, 0, 60, 59
1, 317330, Control_c, 0, 64, 78
1, 317345, Control_c, 0, 64, 44
1, 317355, Note_on_c, 0, 41, 102
1, 317358, Note_on_c, 0, 53, 104
1, 317360, Control_c, 0, 64, 0
1, 317375, Control_c, 0, 64, 36
1, 317390, Control_c, 0, 64, 57
1, 317405, Note_off_c, 0, 41, 63
1, 317405, Note_off_c, 0, 57, 56
1, 317405, Control_c, 0, 64, 72
1, 317406, Note_off_c, 0, 53, 65
1, 317419, Control_c, 0, 64, 96
1, 317434, Control_c, 0, 64, 127
1, 317688, Note_on_c, 0, 65, 109
1, 317696, Note_on_c, 0, 57, 88
1, 317700, Note_on_c, 0, 53, 85
1, 317720, Note_off_c, 0, 53, 70
1, 317729, Note_on_c, 0, 64, 43
1, 317729, Note_off_c, 0, 64, 127
1, 317739, Control_c, 0, 64, 98
1, 317746, Note_off_c, 0, 65, 60
1, 317754, Control_c, 0, 64, 70
1, 317755, Note_off_c, 0, 57, 61
1, 317769, Control_c, 0, 64, 48
1, 317784, Control_c, 0, 64, 0
1, 317917, Poly_aftertouch_c, 0, 59, 127
1, 317994, Poly_aftertouch_c, 0, 59, 0
1, 318017, Note_on_c, 0, 58, 92
1, 318018, Note_on_c, 0, 65, 103
1, 318023, Note_on_c, 0, 54, 81
1, 318037, Note_on_c, 0, 64, 66
1, 318037, Note_off_c, 0, 64, 127
1, 318053, Note_on_c, 0, 56, 46
1, 318081, Note_off_c, 0, 56, 55
1, 318328, Note_on_c, 0, 77, 97
1, 318366, Note_off_c, 0, 77, 68
1, 318503, Control_c, 0, 64, 39
1, 318517, Control_c, 0, 64, 51
1, 318532, Control_c, 0, 64, 61
1, 318547, Control_c, 0, 64, 65
1, 318562, Control_c, 0, 64, 68
1, 318577, Control_c, 0, 64, 73
1, 318591, Control_c, 0, 64, 79
1, 318606, Control_c, 0, 64, 90
1, 318621, Control_c, 0, 64, 111
1, 318636, Control_c, 0, 64, 127
1, 318660, Note_on_c, 0, 82, 95
1, 318666, Note_on_c, 0, 70, 82
1, 318669, Note_off_c, 0, 65, 59
1, 318683, Note_off_c, 0, 54, 57
1, 318691, Note_off_c, 0, 58, 61
1, 318917, Control_c, 0, 64, 114
1, 318932, Control_c, 0, 64, 74
1, 318947, Control_c, 0, 64, 59
1, 318961, Note_on_c, 0, 65, 66
1, 318962, Control_c, 0, 64, 50
1, 318971, Note_on_c, 0, 61, 57
1, 318977, Control_c, 0, 64, 58
1, 318979, Note_on_c, 0, 55, 40
1, 318985, Note_off_c, 0, 70, 59
1, 318991, Control_c, 0, 64, 64
1, 319006, Control_c, 0, 64, 74
1, 319021, Control_c, 0, 64, 90
1, 319026, Note_off_c, 0, 55, 58
1, 319036, Control_c, 0, 64, 127
1, 319043, Note_off_c, 0, 65, 59
1, 319062, Note_off_c, 0, 61, 57
1, 319268, Note_on_c, 0, 65, 58
1, 319277, Note_on_c, 0, 56, 41
1, 319280, Note_on_c, 0, 61, 46
1, 319307, Note_on_c, 0, 80, 75
1, 319314, Note_off_c, 0, 82, 61
1, 319319, Note_off_c, 0, 56, 54
1, 319322, Note_off_c, 0, 65, 60
1, 319352, Note_off_c, 0, 61, 57
1, 319396, Note_on_c, 0, 82, 83
1, 319398, Note_off_c, 0, 80, 63
1, 319480, Note_on_c, 0, 80, 80
1, 319518, Note_off_c, 0, 82, 62
1, 319551, Note_on_c, 0, 56, 39
1, 319562, Note_on_c, 0, 63, 48
1, 319563, Note_on_c, 0, 78, 81
1, 319563, Note_off_c, 0, 80, 63
1, 319564, Note_on_c, 0, 60, 50
1, 319588, Note_off_c, 0, 56, 55
1, 319602, Note_off_c, 0, 63, 56
1, 319612, Note_off_c, 0, 60, 57
1, 319638, Note_off_c, 0, 78, 64
1, 319645, Note_on_c, 0, 80, 81
1, 319681, Control_c, 0, 64, 89
1, 319696, Control_c, 0, 64, 72
1, 319711, Control_c, 0, 64, 61
1, 319726, Note_on_c, 0, 78, 75
1, 319726, Control_c, 0, 64, 37
1, 319740, Control_c, 0, 64, 0
1, 319765, Note_off_c, 0, 80, 52
1, 319843, Note_on_c, 0, 61, 45
1, 319849, Note_on_c, 0, 65, 51
1, 319863, Note_off_c, 0, 78, 58
1, 319873, Note_on_c, 0, 77, 61
1, 319873, Control_c, 0, 64, 36
1, 319888, Control_c, 0, 64, 53
1, 319891, Note_off_c, 0, 65, 65
1, 319903, Control_c, 0, 64, 62
1, 319909, Note_off_c, 0, 61, 61
1, 319918, Control_c, 0, 64, 70
1, 319940, Control_c, 0, 64, 77
1, 319955, Control_c, 0, 64, 86
1, 319970, Control_c, 0, 64, 95
1, 319985, Control_c, 0, 64, 113
1, 319999, Control_c, 0, 64, 127
1, 320100, Note_off_c, 0, 77, 59
1, 320188, Note_on_c, 0, 53, 48
1, 320191, Note_on_c, 0, 61, 46
1, 320195, Note_on_c, 0, 49, 41
1, 320208, Control_c, 0, 64, 102
1, 320208, Control_c, 0, 67, 23
1, 320223, Control_c, 0, 64, 78
1, 320223, Control_c, 0, 67, 30
1, 320229, Note_off_c, 0, 49, 54
1, 320231, Note_off_c, 0, 61, 62
1, 320233, Note_off_c, 0, 53, 62
1, 320237, Control_c, 0, 64, 65
1, 320237, Control_c, 0, 67, 43
1, 320252, Control_c, 0, 64, 48
1, 320252, Control_c, 0, 67, 61
1, 320267, Control_c, 0, 64, 0
1, 320267, Control_c, 0, 67, 78
1, 320282, Control_c, 0, 67, 91
1, 320296, Control_c, 0, 67, 102
1, 320311, Control_c, 0, 67, 113
1, 320326, Control_c, 0, 67, 127
1, 320523, Note_on_c, 0, 54, 37
1, 320524, Note_on_c, 0, 50, 37
1, 320531, Note_on_c, 0, 61, 40
1, 320869, Note_on_c, 0, 73, 54
1, 320903, Note_off_c, 0, 73, 63
1, 321105, Control_c, 0, 64, 38
1, 321119, Control_c, 0, 64, 50
1, 321134, Control_c, 0, 64, 58
1, 321149, Control_c, 0, 64, 63
1, 321164, Control_c, 0, 64, 67
1, 321179, Control_c, 0, 64, 72
1, 321194, Control_c, 0, 64, 76
1, 321200, Note_on_c, 0, 78, 52
1, 321201, Note_off_c, 0, 50, 42
1, 321209, Control_c, 0, 64, 81
1, 321211, Note_on_c, 0, 66, 32
1, 321224, Control_c, 0, 64, 88
1, 321238, Control_c, 0, 64, 94
1, 321243, Note_off_c, 0, 54, 51
1, 321253, Control_c, 0, 64, 100
1, 321255, Note_off_c, 0, 61, 39
1, 321268, Control_c, 0, 64, 111
1, 321283, Control_c, 0, 64, 127
1, 321438, Control_c, 0, 64, 91
1, 321453, Control_c, 0, 64, 73
1, 321468, Control_c, 0, 64, 62
1, 321483, Control_c, 0, 64, 55
1, 321486, Note_on_c, 0, 51, 38
1, 321498, Control_c, 0, 64, 58
1, 321507, Note_on_c, 0, 57, 31
1, 321512, Note_on_c, 0, 61, 32
1, 321512, Control_c, 0, 64, 63
1, 321527, Control_c, 0, 64, 68
1, 321529, Note_off_c, 0, 66, 42
1, 321542, Control_c, 0, 64, 75
1, 321548, Note_off_c, 0, 51, 57
1, 321557, Control_c, 0, 64, 83
1, 321558, Note_off_c, 0, 57, 56
1, 321563, Note_off_c, 0, 61, 56
1, 321572, Control_c, 0, 64, 91
1, 321586, Control_c, 0, 64, 97
1, 321601, Control_c, 0, 64, 101
1, 321617, Control_c, 0, 64, 104
1, 321807, Note_on_c, 0, 52, 42
1, 321811, Note_on_c, 0, 61, 37
1, 321823, Note_off_c, 0, 78, 56
1, 321833, Note_on_c, 0, 57, 34
1, 321833, Note_on_c, 0, 76, 59
1, 321876, Note_off_c, 0, 52, 52
1, 321878, Note_off_c, 0, 61, 40
1, 321892, Note_off_c, 0, 57, 40
1, 321925, Note_off_c, 0, 76, 61
1, 321926, Note_on_c, 0, 78, 76
1, 321972, Control_c, 0, 67, 125
1, 321987, Control_c, 0, 67, 114
1, 322002, Control_c, 0, 67, 102
1, 322008, Note_on_c, 0, 76, 71
1, 322016, Control_c, 0, 67, 89
1, 322031, Control_c, 0, 67, 78
1, 322046, Control_c, 0, 67, 67
1, 322061, Control_c, 0, 67, 53
1, 322064, Note_off_c, 0, 78, 48
1, 322076, Control_c, 0, 67, 40
1, 322086, Note_on_c, 0, 59, 47
1, 322087, Note_on_c, 0, 52, 38
1, 322090, Note_off_c, 0, 76, 60
1, 322091, Control_c, 0, 64, 96
1, 322091, Control_c, 0, 67, 27
1, 322092, Note_on_c, 0, 56, 47
1, 322100, Note_on_c, 0, 74, 74
1, 322106, Control_c, 0, 64, 85
1, 322106, Control_c, 0, 67, 0
1, 322121, Control_c, 0, 64, 74
1, 322121, Note_off_c, 0, 59, 57
1, 322123, Note_off_c, 0, 52, 50
1, 322135, Control_c, 0, 64, 65
1, 322142, Note_off_c, 0, 56, 56
1, 322151, Control_c, 0, 64, 53
1, 322166, Control_c, 0, 64, 37
1, 322172, Note_off_c, 0, 74, 62
1, 322187, Control_c, 0, 64, 0
1, 322196, Note_on_c, 0, 76, 75
1, 322270, Note_off_c, 0, 76, 62
1, 322287, Note_on_c, 0, 74, 67
1, 322397, Note_off_c, 0, 74, 61
1, 322420, Note_on_c, 0, 73, 60
1, 322426, Note_on_c, 0, 57, 37
1, 322426, Control_c, 0, 64, 39
1, 322440, Control_c, 0, 64, 56
1, 322455, Control_c, 0, 64, 65
1, 322470, Control_c, 0, 64, 71
1, 322476, Note_off_c, 0, 73, 55
1, 322484, Control_c, 0, 64, 77
1, 322499, Control_c, 0, 64, 84
1, 322514, Control_c, 0, 64, 92
1, 322529, Control_c, 0, 64, 100
1, 322544, Control_c, 0, 64, 110
1, 322559, Control_c, 0, 64, 127
1, 322732, Note_on_c, 0, 73, 93
1, 322732, Note_on_c, 0, 81, 97
1, 322735, Note_on_c, 0, 69, 90
1, 322755, Note_off_c, 0, 69, 66
1, 322775, Note_off_c, 0, 81, 65
1, 322781, Control_c, 0, 64, 109
1, 322783, Note_off_c, 0, 73, 63
1, 322796, Control_c, 0, 64, 77
1, 322810, Control_c, 0, 64, 55
1, 322825, Control_c, 0, 64, 0
1, 323061, Note_off_c, 0, 57, 64
1, 323069, Note_on_c, 0, 70, 100
1, 323070, Note_on_c, 0, 81, 104
1, 323071, Note_on_c, 0, 74, 93
1, 323373, Note_on_c, 0, 65, 102
1, 323404, Note_off_c, 0, 65, 67
1, 323648, Control_c, 0, 64, 36
1, 323663, Control_c, 0, 64, 55
1, 323686, Control_c, 0, 64, 68
1, 323701, Control_c, 0, 64, 82
1, 323710, Note_on_c, 0, 50, 104
1, 323715, Control_c, 0, 64, 127
1, 323769, Note_off_c, 0, 74, 58
1, 323781, Note_off_c, 0, 70, 60
1, 323829, Note_off_c, 0, 81, 49
1, 323952, Control_c, 0, 64, 97
1, 323966, Control_c, 0, 64, 71
1, 323981, Control_c, 0, 64, 55
1, 323996, Control_c, 0, 64, 48
1, 324012, Control_c, 0, 64, 59
1, 324016, Note_on_c, 0, 71, 72
1, 324017, Note_on_c, 0, 81, 81
1, 324027, Control_c, 0, 64, 67
1, 324034, Note_on_c, 0, 77, 60
1, 324042, Control_c, 0, 64, 79
1, 324056, Control_c, 0, 64, 101
1, 324071, Control_c, 0, 64, 127
1, 324088, Note_off_c, 0, 71, 60
1, 324097, Note_off_c, 0, 77, 46
1, 324163, Note_off_c, 0, 81, 38
1, 324308, Note_off_c, 0, 50, 51
1, 324309, Control_c, 0, 64, 92
1, 324324, Control_c, 0, 64, 70
1, 324335, Note_on_c, 0, 81, 78
1, 324338, Control_c, 0, 64, 55
1, 324342, Note_on_c, 0, 72, 65
1, 324343, Note_on_c, 0, 48, 56
1, 324353, Control_c, 0, 64, 51
1, 324356, Note_on_c, 0, 77, 56
1, 324368, Control_c, 0, 64, 60
1, 324382, Control_c, 0, 64, 67
1, 324396, Control_c, 0, 64, 79
1, 324410, Note_off_c, 0, 48, 63
1, 324411, Note_off_c, 0, 77, 56
1, 324411, Control_c, 0, 64, 108
1, 324416, Note_off_c, 0, 72, 57
1, 324434, Control_c, 0, 64, 127
1, 324440, Note_on_c, 0, 50, 83
1, 324524, Note_on_c, 0, 48, 91
1, 324541, Note_off_c, 0, 81, 57
1, 324546, Note_off_c, 0, 50, 62
1, 324611, Note_on_c, 0, 79, 99
1, 324612, Note_on_c, 0, 72, 100
1, 324616, Note_on_c, 0, 46, 86
1, 324619, Note_on_c, 0, 76, 89
1, 324628, Note_off_c, 0, 48, 62
1, 324652, Note_off_c, 0, 72, 66
1, 324664, Note_off_c, 0, 76, 62
1, 324675, Note_off_c, 0, 79, 65
1, 324677, Note_off_c, 0, 46, 63
1, 324707, Note_on_c, 0, 48, 90
1, 324790, Note_on_c, 0, 46, 86
1, 324817, Note_off_c, 0, 48, 63
1, 324889, Note_on_c, 0, 45, 90
1, 324893, Note_off_c, 0, 46, 63
1, 324895, Note_on_c, 0, 84, 104
1, 324896, Note_on_c, 0, 77, 91
1, 324897, Note_on_c, 0, 72, 95
1, 324931, Note_off_c, 0, 84, 64
1, 324939, Note_off_c, 0, 77, 66
1, 324955, Note_off_c, 0, 72, 60
1, 324960, Note_off_c, 0, 45, 60
1, 324982, Note_on_c, 0, 46, 90
1, 324982, Control_c, 0, 64, 96
1, 324997, Control_c, 0, 64, 70
1, 325012, Control_c, 0, 64, 55
1, 325027, Control_c, 0, 64, 0
1, 325069, Note_on_c, 0, 45, 88
1, 325083, Note_off_c, 0, 46, 64
1, 325172, Note_on_c, 0, 43, 77
1, 325176, Note_off_c, 0, 45, 63
1, 325203, Note_on_c, 0, 69, 69
1, 325203, Note_on_c, 0, 76, 84
1, 325206, Note_on_c, 0, 73, 71
1, 325230, Note_off_c, 0, 69, 65
1, 325233, Note_off_c, 0, 73, 64
1, 325242, Note_off_c, 0, 43, 64
1, 325242, Note_off_c, 0, 76, 61
1, 325267, Note_on_c, 0, 45, 85
1, 325354, Note_off_c, 0, 45, 60
1, 325364, Note_on_c, 0, 43, 69
1, 325438, Note_off_c, 0, 43, 61
1, 325487, Note_on_c, 0, 41, 57
1, 325505, Note_on_c, 0, 81, 76
1, 325509, Note_on_c, 0, 69, 65
1, 325515, Note_on_c, 0, 74, 68
1, 325524, Control_c, 0, 64, 50
1, 325536, Note_off_c, 0, 69, 65
1, 325538, Control_c, 0, 64, 63
1, 325546, Note_off_c, 0, 74, 65
1, 325553, Control_c, 0, 64, 73
1, 325563, Note_off_c, 0, 41, 61
1, 325564, Note_off_c, 0, 81, 65
1, 325568, Control_c, 0, 64, 89
1, 325583, Control_c, 0, 64, 127
1, 325806, Control_c, 0, 64, 87
1, 325821, Control_c, 0, 64, 64
1, 325829, Note_on_c, 0, 85, 79
1, 325835, Control_c, 0, 64, 34
1, 325836, Note_on_c, 0, 76, 68
1, 325841, Note_on_c, 0, 55, 65
1, 325844, Note_on_c, 0, 81, 62
1, 325850, Control_c, 0, 64, 0
1, 325865, Control_c, 0, 64, 54
1, 325879, Note_off_c, 0, 81, 56
1, 325880, Control_c, 0, 64, 66
1, 325895, Control_c, 0, 64, 82
1, 325896, Note_off_c, 0, 55, 60
1, 325902, Note_off_c, 0, 76, 61
1, 325910, Note_off_c, 0, 85, 57
1, 325910, Control_c, 0, 64, 100
1, 325916, Note_on_c, 0, 57, 87
1, 325932, Control_c, 0, 64, 127
1, 326005, Note_on_c, 0, 55, 91
1, 326028, Note_off_c, 0, 57, 63
1, 326095, Control_c, 0, 64, 77
1, 326097, Note_on_c, 0, 86, 101
1, 326097, Note_on_c, 0, 74, 110
1, 326100, Note_on_c, 0, 53, 88
1, 326100, Note_on_c, 0, 81, 93
1, 326106, Note_off_c, 0, 55, 63
1, 326109, Control_c, 0, 64, 56
1, 326124, Control_c, 0, 64, 42
1, 326139, Control_c, 0, 64, 57
1, 326148, Note_off_c, 0, 86, 64
1, 326154, Control_c, 0, 64, 68
1, 326154, Note_off_c, 0, 81, 63
1, 326159, Note_off_c, 0, 53, 63
1, 326169, Control_c, 0, 64, 84
1, 326181, Note_off_c, 0, 74, 64
1, 326184, Control_c, 0, 64, 127
1, 326196, Note_on_c, 0, 55, 91
1, 326297, Note_on_c, 0, 53, 79
1, 326299, Note_off_c, 0, 55, 56
1, 326376, Control_c, 0, 64, 97
1, 326383, Note_off_c, 0, 53, 59
1, 326391, Control_c, 0, 64, 68
1, 326397, Note_on_c, 0, 52, 67
1, 326407, Note_on_c, 0, 79, 87
1, 326407, Control_c, 0, 64, 0
1, 326413, Note_on_c, 0, 69, 78
1, 326423, Note_on_c, 0, 73, 74
1, 326437, Control_c, 0, 64, 33
1, 326451, Control_c, 0, 64, 56
1, 326466, Control_c, 0, 64, 69
1, 326474, Note_off_c, 0, 52, 61
1, 326481, Control_c, 0, 64, 85
1, 326494, Note_on_c, 0, 53, 82
1, 326496, Control_c, 0, 64, 127
1, 326506, Note_off_c, 0, 73, 53
1, 326509, Note_off_c, 0, 79, 60
1, 326533, Note_off_c, 0, 69, 45
1, 326590, Note_on_c, 0, 52, 77
1, 326609, Note_off_c, 0, 53, 42
1, 326690, Note_off_c, 0, 52, 61
1, 326693, Note_on_c, 0, 77, 86
1, 326696, Control_c, 0, 64, 82
1, 326699, Note_on_c, 0, 50, 67
1, 326699, Note_on_c, 0, 69, 77
1, 326707, Note_on_c, 0, 74, 77
1, 326711, Control_c, 0, 64, 64
1, 326726, Control_c, 0, 64, 52
1, 326733, Note_off_c, 0, 74, 66
1, 326740, Control_c, 0, 64, 57
1, 326755, Control_c, 0, 64, 64
1, 326756, Note_off_c, 0, 77, 61
1, 326764, Note_off_c, 0, 69, 60
1, 326770, Control_c, 0, 64, 73
1, 326774, Note_off_c, 0, 50, 62
1, 326784, Control_c, 0, 64, 91
1, 326798, Note_on_c, 0, 52, 79
1, 326799, Control_c, 0, 64, 127
1, 326889, Note_on_c, 0, 50, 81
1, 326890, Note_off_c, 0, 52, 61
1, 326962, Control_c, 0, 64, 116
1, 326977, Control_c, 0, 64, 78
1, 326980, Note_off_c, 0, 50, 57
1, 326987, Note_on_c, 0, 48, 72
1, 326991, Note_on_c, 0, 76, 91
1, 326992, Control_c, 0, 64, 59
1, 326996, Note_on_c, 0, 64, 74
1, 327001, Note_on_c, 0, 69, 70
1, 327006, Control_c, 0, 64, 0
1, 327021, Control_c, 0, 64, 33
1, 327036, Control_c, 0, 64, 53
1, 327051, Control_c, 0, 64, 67
1, 327058, Note_off_c, 0, 48, 65
1, 327064, Note_off_c, 0, 76, 63
1, 327066, Control_c, 0, 64, 84
1, 327071, Note_off_c, 0, 69, 59
1, 327081, Control_c, 0, 64, 127
1, 327088, Note_on_c, 0, 50, 81
1, 327115, Note_off_c, 0, 64, 51
1, 327173, Note_on_c, 0, 48, 87
1, 327183, Note_off_c, 0, 50, 60
1, 327266, Note_on_c, 0, 47, 85
1, 327274, Control_c, 0, 64, 77
1, 327275, Note_off_c, 0, 48, 63
1, 327277, Note_on_c, 0, 74, 102
1, 327278, Note_on_c, 0, 64, 87
1, 327285, Note_on_c, 0, 68, 81
1, 327289, Control_c, 0, 64, 54
1, 327304, Control_c, 0, 64, 33
1, 327319, Control_c, 0, 64, 49
1, 327330, Note_off_c, 0, 47, 65
1, 327334, Control_c, 0, 64, 63
1, 327343, Note_off_c, 0, 64, 59
1, 327348, Control_c, 0, 64, 75
1, 327363, Control_c, 0, 64, 119
1, 327364, Note_off_c, 0, 74, 59
1, 327366, Note_on_c, 0, 48, 90
1, 327368, Note_off_c, 0, 68, 63
1, 327378, Control_c, 0, 64, 127
1, 327458, Note_on_c, 0, 47, 95
1, 327480, Note_off_c, 0, 48, 64
1, 327549, Control_c, 0, 64, 89
1, 327558, Note_on_c, 0, 45, 88
1, 327564, Note_on_c, 0, 66, 102
1, 327564, Control_c, 0, 64, 65
1, 327566, Note_off_c, 0, 47, 63
1, 327569, Note_on_c, 0, 74, 98
1, 327573, Note_on_c, 0, 69, 82
1, 327579, Control_c, 0, 64, 42
1, 327594, Control_c, 0, 64, 45
1, 327608, Control_c, 0, 64, 62
1, 327623, Control_c, 0, 64, 72
1, 327624, Note_off_c, 0, 45, 64
1, 327630, Note_off_c, 0, 69, 62
1, 327638, Control_c, 0, 64, 102
1, 327647, Note_off_c, 0, 74, 60
1, 327653, Control_c, 0, 64, 127
1, 327653, Note_off_c, 0, 66, 61
1, 327657, Note_on_c, 0, 47, 93
1, 327746, Note_on_c, 0, 45, 91
1, 327763, Note_off_c, 0, 47, 64
1, 327842, Note_on_c, 0, 44, 89
1, 327845, Control_c, 0, 64, 87
1, 327855, Note_on_c, 0, 68, 100
1, 327856, Note_off_c, 0, 45, 61
1, 327859, Note_on_c, 0, 74, 105
1, 327860, Control_c, 0, 64, 63
1, 327868, Note_on_c, 0, 71, 77
1, 327874, Control_c, 0, 64, 0
1, 327889, Control_c, 0, 64, 39
1, 327904, Control_c, 0, 64, 61
1, 327919, Control_c, 0, 64, 72
1, 327929, Note_off_c, 0, 68, 62
1, 327930, Note_off_c, 0, 71, 61
1, 327931, Note_off_c, 0, 44, 63
1, 327934, Control_c, 0, 64, 106
1, 327943, Note_on_c, 0, 45, 99
1, 327948, Control_c, 0, 64, 127
1, 327954, Note_off_c, 0, 74, 57
1, 328024, Note_on_c, 0, 44, 94
1, 328047, Note_off_c, 0, 45, 63
1, 328127, Control_c, 0, 64, 86
1, 328130, Note_on_c, 0, 42, 84
1, 328134, Note_on_c, 0, 75, 107
1, 328137, Note_on_c, 0, 69, 97
1, 328142, Control_c, 0, 64, 62
1, 328147, Note_off_c, 0, 44, 63
1, 328156, Control_c, 0, 64, 0
1, 328159, Note_on_c, 0, 71, 61
1, 328164, Note_on_c, 0, 76, 66
1, 328178, Control_c, 0, 64, 46
1, 328193, Control_c, 0, 64, 63
1, 328199, Note_off_c, 0, 69, 66
1, 328208, Control_c, 0, 64, 83
1, 328214, Note_off_c, 0, 76, 62
1, 328223, Control_c, 0, 64, 127
1, 328229, Note_on_c, 0, 44, 86
1, 328232, Note_off_c, 0, 42, 64
1, 328238, Note_off_c, 0, 71, 60
1, 328247, Note_off_c, 0, 75, 46
1, 328322, Note_on_c, 0, 42, 86
1, 328338, Note_off_c, 0, 44, 63
1, 328453, Note_off_c, 0, 42, 62
1, 328473, Note_on_c, 0, 68, 106
1, 328476, Note_on_c, 0, 40, 95
1, 328479, Note_on_c, 0, 76, 96
1, 328482, Note_on_c, 0, 71, 80
1, 328515, Note_off_c, 0, 40, 64
1, 328578, Control_c, 0, 64, 78
1, 328593, Control_c, 0, 64, 54
1, 328608, Control_c, 0, 64, 0
1, 328816, Control_c, 0, 64, 57
1, 328819, Note_on_c, 0, 44, 96
1, 328820, Note_on_c, 0, 52, 104
1, 328831, Control_c, 0, 64, 79
1, 328837, Note_on_c, 0, 40, 66
1, 328846, Control_c, 0, 64, 127
1, 328856, Note_off_c, 0, 76, 59
1, 328862, Note_off_c, 0, 68, 66
1, 328868, Note_off_c, 0, 40, 63
1, 328880, Note_off_c, 0, 71, 61
1, 328934, Note_off_c, 0, 52, 57
1, 328950, Note_off_c, 0, 44, 62
1, 328954, Poly_aftertouch_c, 0, 42, 0
1, 329275, Note_on_c, 0, 52, 98
1, 329278, Note_on_c, 0, 45, 95
1, 329281, Note_on_c, 0, 41, 87
1, 329418, Note_on_c, 0, 83, 92
1, 329445, Control_c, 0, 64, 106
1, 329460, Control_c, 0, 64, 80
1, 329475, Control_c, 0, 64, 64
1, 329490, Control_c, 0, 64, 0
1, 329504, Note_on_c, 0, 84, 91
1, 329579, Control_c, 0, 64, 35
1, 329594, Control_c, 0, 64, 59
1, 329603, Note_off_c, 0, 83, 54
1, 329603, Note_on_c, 0, 86, 91
1, 329609, Control_c, 0, 64, 71
1, 329618, Note_off_c, 0, 84, 64
1, 329624, Control_c, 0, 64, 85
1, 329639, Control_c, 0, 64, 112
1, 329654, Control_c, 0, 64, 127
1, 329707, Note_on_c, 0, 84, 86
1, 329775, Note_off_c, 0, 86, 59
1, 329784, Note_on_c, 0, 83, 91
1, 329809, Note_off_c, 0, 84, 62
1, 329824, Control_c, 0, 64, 86
1, 329839, Control_c, 0, 64, 66
1, 329854, Control_c, 0, 64, 52
1, 329869, Control_c, 0, 64, 53
1, 329871, Note_on_c, 0, 84, 82
1, 329880, Note_off_c, 0, 83, 64
1, 329883, Control_c, 0, 64, 63
1, 329898, Control_c, 0, 64, 75
1, 329913, Control_c, 0, 64, 98
1, 329928, Control_c, 0, 64, 127
1, 329955, Note_on_c, 0, 81, 92
1, 329984, Note_off_c, 0, 84, 63
1, 330039, Note_on_c, 0, 79, 93
1, 330094, Note_off_c, 0, 81, 63
1, 330125, Note_on_c, 0, 77, 84
1, 330128, Note_off_c, 0, 79, 65
1, 330166, Note_off_c, 0, 77, 66
1, 330200, Note_on_c, 0, 76, 89
1, 330283, Note_on_c, 0, 74, 93
1, 330330, Note_off_c, 0, 76, 57
1, 330372, Control_c, 0, 64, 104
1, 330381, Note_on_c, 0, 72, 82
1, 330387, Control_c, 0, 64, 72
1, 330402, Control_c, 0, 64, 54
1, 330408, Note_on_c, 0, 51, 74
1, 330423, Note_off_c, 0, 52, 53
1, 330424, Control_c, 0, 64, 39
1, 330439, Control_c, 0, 64, 51
1, 330440, Note_off_c, 0, 74, 61
1, 330454, Control_c, 0, 64, 63
1, 330469, Control_c, 0, 64, 73
1, 330470, Note_off_c, 0, 72, 64
1, 330473, Note_on_c, 0, 71, 77
1, 330484, Control_c, 0, 64, 90
1, 330486, Note_off_c, 0, 41, 40
1, 330498, Control_c, 0, 64, 127
1, 330550, Note_off_c, 0, 71, 40
1, 330561, Note_on_c, 0, 69, 76
1, 330585, Note_off_c, 0, 45, 58
1, 330606, Note_off_c, 0, 51, 61
1, 330652, Note_on_c, 0, 68, 81
1, 330691, Note_off_c, 0, 69, 58
1, 330747, Note_on_c, 0, 71, 78
1, 330756, Note_off_c, 0, 68, 63
1, 330833, Note_on_c, 0, 69, 86
1, 330913, Control_c, 0, 64, 80
1, 330928, Control_c, 0, 64, 55
1, 330939, Note_on_c, 0, 64, 97
1, 330940, Note_on_c, 0, 52, 98
1, 330941, Note_on_c, 0, 44, 86
1, 330942, Control_c, 0, 64, 0
1, 330954, Note_on_c, 0, 40, 55
1, 330972, Control_c, 0, 64, 52
1, 330976, Note_off_c, 0, 71, 28
1, 330982, Note_off_c, 0, 40, 57
1, 330987, Control_c, 0, 64, 67
1, 330998, Note_off_c, 0, 44, 65
1, 331000, Note_off_c, 0, 52, 65
1, 331001, Note_off_c, 0, 64, 61
1, 331002, Control_c, 0, 64, 83
1, 331004, Note_off_c, 0, 69, 60
1, 331016, Control_c, 0, 64, 127
1, 331233, Control_c, 0, 64, 116
1, 331247, Control_c, 0, 64, 71
1, 331254, Note_on_c, 0, 56, 90
1, 331254, Note_on_c, 0, 64, 103
1, 331262, Control_c, 0, 64, 35
1, 331275, Note_on_c, 0, 52, 69
1, 331277, Control_c, 0, 64, 0
1, 331292, Control_c, 0, 64, 38
1, 331299, Note_off_c, 0, 52, 65
1, 331307, Control_c, 0, 64, 61
1, 331321, Control_c, 0, 64, 78
1, 331336, Control_c, 0, 64, 127
1, 331363, Note_off_c, 0, 64, 59
1, 331382, Note_off_c, 0, 56, 59
1, 331650, Note_on_c, 0, 64, 104
1, 331654, Note_on_c, 0, 57, 92
1, 331660, Note_on_c, 0, 53, 91
1, 331780, Control_c, 0, 64, 95
1, 331782, Note_on_c, 0, 95, 99
1, 331795, Control_c, 0, 64, 71
1, 331810, Control_c, 0, 64, 55
1, 331825, Control_c, 0, 64, 0
1, 331860, Note_on_c, 0, 96, 94
1, 331901, Note_off_c, 0, 95, 63
1, 331936, Control_c, 0, 64, 45
1, 331951, Control_c, 0, 64, 57
1, 331964, Note_on_c, 0, 98, 97
1, 331966, Control_c, 0, 64, 63
1, 331980, Control_c, 0, 64, 69
1, 331988, Note_off_c, 0, 96, 65
1, 331996, Control_c, 0, 64, 74
1, 332011, Control_c, 0, 64, 81
1, 332026, Control_c, 0, 64, 96
1, 332041, Control_c, 0, 64, 127
1, 332055, Note_on_c, 0, 96, 88
1, 332136, Note_on_c, 0, 95, 89
1, 332139, Note_off_c, 0, 98, 65
1, 332163, Note_off_c, 0, 96, 65
1, 332218, Control_c, 0, 64, 80
1, 332226, Note_on_c, 0, 96, 86
1, 332233, Control_c, 0, 64, 64
1, 332239, Note_off_c, 0, 95, 65
1, 332248, Control_c, 0, 64, 52
1, 332263, Control_c, 0, 64, 54
1, 332277, Control_c, 0, 64, 61
1, 332292, Control_c, 0, 64, 66
1, 332307, Control_c, 0, 64, 74
1, 332314, Note_on_c, 0, 93, 86
1, 332321, Control_c, 0, 64, 89
1, 332336, Control_c, 0, 64, 127
1, 332347, Note_off_c, 0, 96, 64
1, 332402, Note_on_c, 0, 91, 92
1, 332453, Note_off_c, 0, 93, 65
1, 332481, Note_on_c, 0, 89, 90
1, 332491, Note_off_c, 0, 91, 63
1, 332533, Note_off_c, 0, 89, 62
1, 332559, Note_on_c, 0, 88, 90
1, 332646, Note_on_c, 0, 86, 87
1, 332697, Note_off_c, 0, 88, 58
1, 332745, Control_c, 0, 64, 98
1, 332749, Note_on_c, 0, 84, 84
1, 332757, Note_on_c, 0, 63, 69
1, 332760, Control_c, 0, 64, 71
1, 332775, Control_c, 0, 64, 55
1, 332781, Note_off_c, 0, 64, 56
1, 332789, Control_c, 0, 64, 52
1, 332805, Control_c, 0, 64, 60
1, 332808, Note_off_c, 0, 86, 62
1, 332819, Control_c, 0, 64, 66
1, 332833, Note_off_c, 0, 84, 63
1, 332834, Control_c, 0, 64, 76
1, 332840, Note_on_c, 0, 83, 80
1, 332849, Control_c, 0, 64, 98
1, 332855, Note_off_c, 0, 53, 53
1, 332864, Control_c, 0, 64, 127
1, 332887, Note_off_c, 0, 83, 64
1, 332930, Note_on_c, 0, 81, 79
1, 332936, Note_off_c, 0, 63, 59
1, 333021, Note_off_c, 0, 57, 56
1, 333022, Note_on_c, 0, 80, 80
1, 333051, Note_off_c, 0, 81, 57
1, 333115, Note_on_c, 0, 83, 76
1, 333120, Note_off_c, 0, 80, 62
1, 333210, Note_on_c, 0, 81, 75
1, 333241, Note_off_c, 0, 83, 60
1, 333264, Note_off_c, 0, 81, 63
1, 333293, Note_on_c, 0, 52, 34
1, 333307, Note_on_c, 0, 56, 42
1, 333308, Control_c, 0, 64, 95
1, 333323, Control_c, 0, 64, 72
1, 333324, Note_on_c, 0, 64, 41
1, 333326, Note_on_c, 0, 76, 67
1, 333338, Control_c, 0, 64, 55
1, 333353, Control_c, 0, 64, 45
1, 333368, Control_c, 0, 64, 54
1, 333383, Control_c, 0, 64, 62
1, 333398, Control_c, 0, 64, 69
1, 333419, Control_c, 0, 64, 82
1, 333430, Note_on_c, 0, 80, 69
1, 333434, Control_c, 0, 64, 114
1, 333449, Control_c, 0, 64, 127
1, 333450, Note_off_c, 0, 76, 37
1, 333455, Note_off_c, 0, 52, 40
1, 333468, Note_off_c, 0, 64, 37
1, 333508, Note_on_c, 0, 76, 68
1, 333537, Note_off_c, 0, 80, 60
1, 333600, Note_off_c, 0, 56, 33
1, 333616, Note_on_c, 0, 71, 67
1, 333627, Note_off_c, 0, 76, 62
1, 333691, Note_off_c, 0, 71, 64
1, 333697, Note_on_c, 0, 68, 75
1, 333730, Note_off_c, 0, 68, 54
1, 333782, Note_on_c, 0, 64, 72
1, 333885, Note_on_c, 0, 53, 39
1, 333906, Note_on_c, 0, 56, 38
1, 333909, Note_on_c, 0, 59, 36
1, 333924, Control_c, 0, 64, 110
1, 333939, Control_c, 0, 64, 79
1, 333940, Note_on_c, 0, 65, 83
1, 333954, Control_c, 0, 64, 61
1, 333968, Control_c, 0, 64, 0
1, 333970, Note_off_c, 0, 64, 59
1, 333998, Control_c, 0, 64, 44
1, 334013, Control_c, 0, 64, 59
1, 334028, Control_c, 0, 64, 70
1, 334042, Control_c, 0, 64, 86
1, 334057, Control_c, 0, 64, 127
1, 334119, Note_off_c, 0, 65, 56
1, 334127, Note_on_c, 0, 71, 52
1, 334214, Note_on_c, 0, 68, 57
1, 334281, Note_off_c, 0, 71, 25
1, 334296, Note_on_c, 0, 65, 64
1, 334349, Note_off_c, 0, 68, 34
1, 334389, Note_off_c, 0, 65, 57
1, 334405, Note_on_c, 0, 71, 47
1, 334464, Note_on_c, 0, 68, 52
1, 334480, Note_off_c, 0, 71, 41
1, 334547, Note_on_c, 0, 52, 43
1, 334553, Note_off_c, 0, 53, 37
1, 334554, Control_c, 0, 64, 87
1, 334569, Control_c, 0, 64, 65
1, 334584, Control_c, 0, 64, 43
1, 334587, Note_on_c, 0, 64, 57
1, 334599, Control_c, 0, 64, 34
1, 334614, Control_c, 0, 64, 48
1, 334626, Note_off_c, 0, 68, 41
1, 334629, Control_c, 0, 64, 61
1, 334644, Control_c, 0, 64, 70
1, 334658, Control_c, 0, 64, 83
1, 334673, Control_c, 0, 64, 102
1, 334688, Control_c, 0, 64, 116
1, 334701, Note_off_c, 0, 64, 49
1, 334703, Control_c, 0, 64, 127
1, 334710, Note_on_c, 0, 71, 50
1, 334745, Note_off_c, 0, 52, 58
1, 334791, Note_on_c, 0, 68, 41
1, 334802, Note_off_c, 0, 59, 41
1, 334839, Note_off_c, 0, 56, 40
1, 334847, Note_off_c, 0, 71, 30
1, 334892, Note_on_c, 0, 64, 59
1, 334921, Note_off_c, 0, 68, 34
1, 334997, Note_off_c, 0, 64, 53
1, 334998, Note_on_c, 0, 71, 47
1, 335062, Note_on_c, 0, 68, 49
1, 335101, Note_off_c, 0, 71, 37
1, 335153, Note_on_c, 0, 47, 42
1, 335167, Note_on_c, 0, 54, 37
1, 335169, Control_c, 0, 64, 89
1, 335174, Note_on_c, 0, 59, 33
1, 335185, Control_c, 0, 64, 71
1, 335200, Control_c, 0, 64, 55
1, 335203, Note_on_c, 0, 63, 60
1, 335214, Control_c, 0, 64, 0
1, 335220, Note_off_c, 0, 68, 44
1, 335244, Control_c, 0, 64, 42
1, 335258, Control_c, 0, 64, 51
1, 335273, Control_c, 0, 64, 61
1, 335288, Control_c, 0, 64, 70
1, 335303, Control_c, 0, 64, 84
1, 335315, Note_on_c, 0, 71, 51
1, 335318, Control_c, 0, 64, 109
1, 335332, Control_c, 0, 64, 127
1, 335353, Note_off_c, 0, 63, 37
1, 335371, Note_on_c, 0, 69, 54
1, 335373, Note_off_c, 0, 47, 42
1, 335395, Note_off_c, 0, 59, 41
1, 335427, Note_off_c, 0, 71, 35
1, 335468, Note_on_c, 0, 63, 67
1, 335540, Note_off_c, 0, 54, 39
1, 335542, Note_off_c, 0, 69, 31
1, 335568, Note_on_c, 0, 71, 56
1, 335568, Note_off_c, 0, 63, 57
1, 335666, Note_on_c, 0, 69, 58
1, 335714, Note_off_c, 0, 69, 51
1, 335719, Note_off_c, 0, 71, 36
1, 335755, Control_c, 0, 64, 109
1, 335770, Control_c, 0, 64, 75
1, 335776, Note_on_c, 0, 64, 54
1, 335785, Control_c, 0, 64, 61
1, 335786, Note_on_c, 0, 52, 36
1, 335788, Note_on_c, 0, 59, 39
1, 335800, Control_c, 0, 64, 52
1, 335802, Note_on_c, 0, 56, 29
1, 335814, Control_c, 0, 64, 58
1, 335829, Control_c, 0, 64, 64
1, 335844, Control_c, 0, 64, 70
1, 335851, Note_off_c, 0, 64, 46
1, 335859, Control_c, 0, 64, 83
1, 335868, Note_on_c, 0, 68, 66
1, 335873, Control_c, 0, 64, 117
1, 335884, Note_off_c, 0, 59, 53
1, 335888, Control_c, 0, 64, 127
1, 335955, Note_off_c, 0, 56, 46
1, 335965, Note_on_c, 0, 64, 64
1, 335992, Note_off_c, 0, 68, 42
1, 336009, Note_off_c, 0, 52, 39
1, 336054, Note_on_c, 0, 59, 60
1, 336079, Note_off_c, 0, 64, 59
1, 336140, Note_off_c, 0, 59, 63
1, 336148, Note_on_c, 0, 56, 67
1, 336177, Note_off_c, 0, 56, 65
1, 336238, Note_on_c, 0, 52, 70
1, 336363, Control_c, 0, 64, 103
1, 336378, Control_c, 0, 64, 77
1, 336386, Note_on_c, 0, 41, 44
1, 336393, Note_on_c, 0, 53, 69
1, 336393, Control_c, 0, 64, 59
1, 336415, Control_c, 0, 64, 0
1, 336422, Note_off_c, 0, 52, 55
1, 336459, Control_c, 0, 64, 41
1, 336474, Control_c, 0, 64, 59
1, 336489, Control_c, 0, 64, 68
1, 336504, Control_c, 0, 64, 75
1, 336519, Control_c, 0, 64, 83
1, 336533, Control_c, 0, 64, 88
1, 336548, Control_c, 0, 64, 92
1, 336563, Control_c, 0, 64, 96
1, 336571, Note_on_c, 0, 59, 46
1, 336575, Note_off_c, 0, 53, 51
1, 336578, Control_c, 0, 64, 100
1, 336593, Control_c, 0, 64, 105
1, 336608, Control_c, 0, 64, 111
1, 336622, Control_c, 0, 64, 122
1, 336637, Control_c, 0, 64, 127
1, 336660, Note_on_c, 0, 56, 46
1, 336686, Note_off_c, 0, 59, 29
1, 336734, Note_on_c, 0, 53, 57
1, 336745, Note_off_c, 0, 56, 44
1, 336846, Note_on_c, 0, 59, 41
1, 336865, Note_off_c, 0, 53, 35
1, 336885, Note_off_c, 0, 59, 48
1, 336913, Note_on_c, 0, 56, 39
1, 337008, Control_c, 0, 64, 101
1, 337013, Note_on_c, 0, 40, 33
1, 337023, Control_c, 0, 64, 80
1, 337033, Note_off_c, 0, 41, 37
1, 337037, Control_c, 0, 64, 64
1, 337042, Note_on_c, 0, 52, 55
1, 337052, Control_c, 0, 64, 40
1, 337067, Control_c, 0, 64, 0
1, 337073, Note_off_c, 0, 56, 35
1, 337097, Control_c, 0, 64, 49
1, 337112, Control_c, 0, 64, 62
1, 337127, Control_c, 0, 64, 70
1, 337142, Control_c, 0, 64, 79
1, 337164, Control_c, 0, 64, 90
1, 337168, Note_off_c, 0, 52, 55
1, 337171, Note_on_c, 0, 59, 43
1, 337179, Control_c, 0, 64, 94
1, 337193, Control_c, 0, 64, 98
1, 337223, Control_c, 0, 64, 101
1, 337237, Control_c, 0, 64, 103
1, 337241, Note_off_c, 0, 59, 47
1, 337252, Control_c, 0, 64, 107
1, 337265, Note_on_c, 0, 56, 39
1, 337267, Control_c, 0, 64, 113
1, 337282, Control_c, 0, 64, 115
1, 337311, Control_c, 0, 64, 118
1, 337335, Note_off_c, 0, 56, 48
1, 337341, Control_c, 0, 64, 120
1, 337355, Note_on_c, 0, 52, 51
1, 337431, Note_off_c, 0, 52, 51
1, 337453, Note_on_c, 0, 59, 35
1, 337521, Note_off_c, 0, 59, 40
1, 337546, Note_on_c, 0, 56, 41
1, 337639, Control_c, 0, 64, 111
1, 337640, Note_off_c, 0, 40, 36
1, 337648, Note_on_c, 0, 35, 41
1, 337654, Control_c, 0, 64, 90
1, 337668, Control_c, 0, 64, 74
1, 337683, Control_c, 0, 64, 61
1, 337684, Note_on_c, 0, 51, 50
1, 337691, Note_off_c, 0, 56, 36
1, 337698, Control_c, 0, 64, 41
1, 337713, Control_c, 0, 64, 36
1, 337728, Control_c, 0, 64, 48
1, 337742, Control_c, 0, 64, 59
1, 337757, Control_c, 0, 64, 67
1, 337772, Control_c, 0, 64, 75
1, 337787, Control_c, 0, 64, 84
1, 337802, Control_c, 0, 64, 91
1, 337803, Note_on_c, 0, 59, 40
1, 337816, Control_c, 0, 64, 96
1, 337831, Control_c, 0, 64, 101
1, 337846, Control_c, 0, 64, 105
1, 337855, Note_off_c, 0, 51, 32
1, 337860, Control_c, 0, 64, 108
1, 337861, Note_off_c, 0, 59, 53
1, 337869, Note_on_c, 0, 57, 48
1, 337876, Control_c, 0, 64, 110
1, 337891, Control_c, 0, 64, 113
1, 337914, Control_c, 0, 64, 120
1, 337929, Control_c, 0, 64, 127
1, 337979, Note_on_c, 0, 51, 55
1, 338024, Note_off_c, 0, 57, 32
1, 338072, Note_off_c, 0, 51, 54
1, 338077, Note_on_c, 0, 59, 43
1, 338150, Note_on_c, 0, 57, 48
1, 338155, Note_off_c, 0, 59, 37
1, 338268, Control_c, 0, 64, 110
1, 338279, Note_off_c, 0, 35, 34
1, 338282, Note_on_c, 0, 40, 33
1, 338283, Control_c, 0, 64, 89
1, 338288, Note_on_c, 0, 52, 48
1, 338298, Control_c, 0, 64, 72
1, 338313, Control_c, 0, 64, 57
1, 338322, Note_off_c, 0, 57, 43
1, 338328, Control_c, 0, 64, 0
1, 338358, Control_c, 0, 64, 40
1, 338373, Control_c, 0, 64, 51
1, 338388, Control_c, 0, 64, 60
1, 338400, Note_on_c, 0, 59, 43
1, 338403, Control_c, 0, 64, 66
1, 338407, Note_off_c, 0, 52, 44
1, 338418, Control_c, 0, 64, 74
1, 338432, Control_c, 0, 64, 82
1, 338447, Control_c, 0, 64, 88
1, 338462, Control_c, 0, 64, 92
1, 338477, Control_c, 0, 64, 96
1, 338492, Control_c, 0, 64, 102
1, 338502, Note_on_c, 0, 56, 42
1, 338507, Control_c, 0, 64, 113
1, 338522, Control_c, 0, 64, 127
1, 338524, Note_off_c, 0, 59, 33
1, 338593, Note_on_c, 0, 52, 44
1, 338606, Note_off_c, 0, 56, 36
1, 338673, Note_off_c, 0, 52, 53
1, 338689, Note_on_c, 0, 59, 40
1, 338760, Note_off_c, 0, 59, 54
1, 338796, Note_on_c, 0, 56, 46
1, 338859, Note_off_c, 0, 56, 48
1, 338869, Control_c, 0, 64, 111
1, 338883, Control_c, 0, 64, 86
1, 338898, Control_c, 0, 64, 70
1, 338913, Control_c, 0, 64, 57
1, 338914, Note_off_c, 0, 40, 41
1, 338915, Note_on_c, 0, 35, 34
1, 338925, Note_on_c, 0, 51, 41
1, 338928, Control_c, 0, 64, 36
1, 338943, Control_c, 0, 64, 33
1, 338957, Control_c, 0, 64, 46
1, 338972, Control_c, 0, 64, 55
1, 338987, Control_c, 0, 64, 62
1, 339002, Control_c, 0, 64, 69
1, 339017, Control_c, 0, 64, 78
1, 339031, Control_c, 0, 64, 89
1, 339035, Note_on_c, 0, 59, 42
1, 339046, Control_c, 0, 64, 97
1, 339061, Control_c, 0, 64, 101
1, 339076, Control_c, 0, 64, 103
1, 339081, Note_off_c, 0, 51, 34
1, 339106, Control_c, 0, 64, 106
1, 339106, Note_on_c, 0, 57, 53
1, 339118, Note_off_c, 0, 59, 44
1, 339165, Control_c, 0, 64, 108
1, 339180, Control_c, 0, 67, 20
1, 339195, Control_c, 0, 67, 25
1, 339200, Note_on_c, 0, 51, 58
1, 339210, Control_c, 0, 67, 31
1, 339225, Control_c, 0, 67, 41
1, 339240, Control_c, 0, 67, 53
1, 339255, Control_c, 0, 67, 66
1, 339270, Control_c, 0, 67, 78
1, 339285, Control_c, 0, 67, 87
1, 339293, Note_on_c, 0, 60, 65
1, 339294, Note_off_c, 0, 51, 55
1, 339299, Note_off_c, 0, 57, 36
1, 339300, Control_c, 0, 67, 94
1, 339314, Control_c, 0, 67, 99
1, 339329, Control_c, 0, 67, 102
1, 339344, Control_c, 0, 67, 105
1, 339359, Control_c, 0, 67, 108
1, 339374, Control_c, 0, 67, 115
1, 339380, Note_on_c, 0, 57, 60
1, 339388, Control_c, 0, 67, 122
1, 339410, Note_off_c, 0, 60, 39
1, 339410, Control_c, 0, 67, 127
1, 339485, Control_c, 0, 64, 102
1, 339499, Control_c, 0, 64, 91
1, 339506, Note_off_c, 0, 35, 40
1, 339514, Control_c, 0, 64, 77
1, 339526, Note_on_c, 0, 40, 31
1, 339529, Control_c, 0, 64, 64
1, 339533, Note_on_c, 0, 52, 48
1, 339544, Control_c, 0, 64, 44
1, 339545, Note_off_c, 0, 57, 50
1, 339559, Control_c, 0, 64, 0
1, 339626, Note_off_c, 0, 52, 56
1, 339632, Control_c, 0, 64, 44
1, 339642, Note_on_c, 0, 59, 44
1, 339647, Control_c, 0, 64, 60
1, 339662, Control_c, 0, 64, 69
1, 339677, Control_c, 0, 64, 75
1, 339692, Control_c, 0, 64, 79
1, 339706, Control_c, 0, 64, 82
1, 339721, Control_c, 0, 64, 84
1, 339733, Note_off_c, 0, 59, 38
1, 339736, Control_c, 0, 64, 87
1, 339739, Note_on_c, 0, 56, 39
1, 339751, Control_c, 0, 64, 92
1, 339765, Control_c, 0, 64, 96
1, 339780, Control_c, 0, 64, 100
1, 339795, Control_c, 0, 64, 103
1, 339810, Control_c, 0, 64, 105
1, 339829, Note_on_c, 0, 52, 48
1, 339839, Control_c, 0, 64, 108
1, 339854, Control_c, 0, 64, 110
1, 339869, Control_c, 0, 64, 113
1, 339882, Note_off_c, 0, 56, 24
1, 339884, Control_c, 0, 64, 116
1, 339898, Note_off_c, 0, 52, 53
1, 339938, Note_on_c, 0, 59, 44
1, 339944, Control_c, 0, 64, 118
1, 339998, Note_off_c, 0, 59, 48
1, 340037, Note_on_c, 0, 56, 43
1, 340078, Control_c, 0, 64, 107
1, 340093, Control_c, 0, 64, 91
1, 340108, Control_c, 0, 64, 76
1, 340122, Note_off_c, 0, 56, 42
1, 340123, Control_c, 0, 64, 63
1, 340130, Note_on_c, 0, 35, 38
1, 340133, Note_off_c, 0, 40, 39
1, 340137, Control_c, 0, 64, 44
1, 340143, Note_on_c, 0, 51, 41
1, 340160, Control_c, 0, 64, 0
1, 340175, Control_c, 0, 64, 39
1, 340189, Control_c, 0, 64, 50
1, 340204, Control_c, 0, 64, 59
1, 340219, Control_c, 0, 64, 64
1, 340234, Control_c, 0, 64, 69
1, 340249, Control_c, 0, 64, 75
1, 340252, Note_off_c, 0, 51, 52
1, 340259, Note_on_c, 0, 59, 44
1, 340263, Control_c, 0, 64, 81
1, 340278, Control_c, 0, 64, 85
1, 340293, Control_c, 0, 64, 88
1, 340308, Control_c, 0, 64, 90
1, 340323, Control_c, 0, 64, 91
1, 340337, Control_c, 0, 64, 93
1, 340351, Note_on_c, 0, 57, 45
1, 340352, Control_c, 0, 64, 94
1, 340367, Control_c, 0, 64, 95
1, 340374, Note_off_c, 0, 59, 36
1, 340382, Control_c, 0, 64, 96
1, 340459, Note_on_c, 0, 51, 47
1, 340547, Note_off_c, 0, 51, 49
1, 340559, Note_off_c, 0, 57, 22
1, 340564, Note_on_c, 0, 60, 50
1, 340656, Note_on_c, 0, 57, 45
1, 340658, Note_off_c, 0, 60, 38
1, 340790, Note_on_c, 0, 40, 27
1, 340812, Control_c, 0, 64, 94
1, 340813, Note_on_c, 0, 56, 44
1, 340822, Note_off_c, 0, 35, 32
1, 340827, Control_c, 0, 64, 91
1, 340842, Control_c, 0, 64, 87
1, 340857, Control_c, 0, 64, 83
1, 340871, Control_c, 0, 64, 79
1, 340886, Control_c, 0, 64, 75
1, 340890, Note_off_c, 0, 57, 31
1, 340909, Control_c, 0, 64, 71
1, 340924, Control_c, 0, 64, 66
1, 340927, Note_off_c, 0, 56, 52
1, 340939, Control_c, 0, 64, 62
1, 340943, Note_on_c, 0, 52, 46
1, 340953, Control_c, 0, 64, 58
1, 340968, Control_c, 0, 64, 56
1, 340983, Control_c, 0, 64, 55
1, 340998, Control_c, 0, 64, 54
1, 341012, Control_c, 0, 64, 54
1, 341020, Note_off_c, 0, 52, 60
1, 341027, Control_c, 0, 64, 53
1, 341036, Note_on_c, 0, 51, 48
1, 341042, Control_c, 0, 64, 52
1, 341057, Control_c, 0, 64, 51
1, 341072, Control_c, 0, 64, 49
1, 341086, Control_c, 0, 64, 48
1, 341096, Note_off_c, 0, 51, 55
1, 341101, Control_c, 0, 64, 48
1, 341116, Control_c, 0, 64, 47
1, 341131, Control_c, 0, 64, 47
1, 341141, Note_on_c, 0, 52, 52
1, 341183, Note_off_c, 0, 52, 61
1, 341226, Note_on_c, 0, 56, 57
1, 341234, Control_c, 0, 64, 46
1, 341288, Note_off_c, 0, 56, 56
1, 341312, Note_on_c, 0, 55, 61
1, 341324, Control_c, 0, 64, 47
1, 341398, Control_c, 0, 64, 47
1, 341403, Note_off_c, 0, 40, 50
1, 341407, Note_on_c, 0, 56, 59
1, 341407, Note_off_c, 0, 55, 56
1, 341472, Control_c, 0, 64, 48
1, 341493, Note_off_c, 0, 56, 60
1, 341500, Note_on_c, 0, 59, 57
1, 341545, Control_c, 0, 64, 48
1, 341587, Note_on_c, 0, 58, 66
1, 341598, Note_off_c, 0, 59, 57
1, 341606, Control_c, 0, 64, 49
1, 341657, Note_off_c, 0, 58, 62
1, 341673, Control_c, 0, 64, 49
1, 341695, Note_on_c, 0, 59, 60
1, 341785, Note_off_c, 0, 59, 58
1, 341787, Note_on_c, 0, 64, 61
1, 341872, Note_off_c, 0, 64, 63
1, 341878, Note_on_c, 0, 63, 67
1, 341880, Control_c, 0, 64, 50
1, 341924, Control_c, 0, 64, 50
1, 341938, Note_off_c, 0, 63, 61
1, 341939, Control_c, 0, 64, 51
1, 341967, Note_on_c, 0, 64, 60
1, 341998, Control_c, 0, 67, 117
1, 342013, Control_c, 0, 67, 104
1, 342027, Control_c, 0, 67, 89
1, 342038, Note_off_c, 0, 64, 61
1, 342042, Control_c, 0, 67, 78
1, 342057, Control_c, 0, 67, 68
1, 342060, Note_on_c, 0, 68, 67
1, 342072, Control_c, 0, 67, 57
1, 342087, Control_c, 0, 64, 50
1, 342087, Control_c, 0, 67, 46
1, 342102, Control_c, 0, 67, 35
1, 342117, Control_c, 0, 67, 26
1, 342132, Control_c, 0, 67, 0
1, 342140, Note_off_c, 0, 68, 63
1, 342146, Control_c, 0, 64, 50
1, 342155, Note_on_c, 0, 67, 65
1, 342191, Control_c, 0, 64, 49
1, 342249, Note_on_c, 0, 68, 66
1, 342250, Control_c, 0, 64, 49
1, 342251, Note_off_c, 0, 67, 57
1, 342331, Note_on_c, 0, 71, 68
1, 342334, Note_off_c, 0, 68, 63
1, 342420, Note_on_c, 0, 70, 74
1, 342421, Control_c, 0, 64, 49
1, 342445, Note_off_c, 0, 71, 55
1, 342489, Note_off_c, 0, 70, 63
1, 342525, Note_on_c, 0, 71, 69
1, 342599, Control_c, 0, 64, 50
1, 342611, Note_on_c, 0, 76, 73
1, 342618, Note_off_c, 0, 71, 54
1, 342698, Note_on_c, 0, 75, 75
1, 342703, Note_off_c, 0, 76, 63
1, 342768, Note_off_c, 0, 75, 61
1, 342776, Control_c, 0, 64, 50
1, 342796, Note_on_c, 0, 76, 72
1, 342887, Note_on_c, 0, 80, 68
1, 342894, Note_off_c, 0, 76, 59
1, 342963, Note_on_c, 0, 79, 69
1, 342984, Note_off_c, 0, 80, 57
1, 343063, Note_off_c, 0, 79, 52
1, 343083, Note_on_c, 0, 80, 60
1, 343102, Note_off_c, 0, 80, 64
1, 343200, Control_c, 0, 64, 50
1, 343232, Note_on_c, 0, 81, 64
1, 343270, Note_off_c, 0, 81, 59
1, 343333, Control_c, 0, 64, 49
1, 343380, Note_on_c, 0, 83, 66
1, 343393, Control_c, 0, 64, 49
1, 343410, Note_off_c, 0, 83, 60
1, 343437, Control_c, 0, 64, 48
1, 343519, Note_on_c, 0, 81, 63
1, 343558, Note_off_c, 0, 81, 59
1, 343644, Control_c, 0, 64, 48
1, 343672, Note_on_c, 0, 80, 58
1, 343708, Note_off_c, 0, 80, 61
1, 343732, Control_c, 0, 67, 20
1, 343747, Control_c, 0, 67, 23
1, 343762, Control_c, 0, 67, 25
1, 343777, Control_c, 0, 67, 28
1, 343792, Control_c, 0, 67, 31
1, 343801, Note_on_c, 0, 78, 63
1, 343807, Control_c, 0, 67, 37
1, 343822, Control_c, 0, 67, 44
1, 343837, Control_c, 0, 67, 52
1, 343850, Note_off_c, 0, 78, 51
1, 343852, Control_c, 0, 67, 62
1, 343866, Control_c, 0, 67, 70
1, 343881, Control_c, 0, 67, 76
1, 343903, Control_c, 0, 67, 81
1, 343918, Control_c, 0, 67, 87
1, 343932, Control_c, 0, 67, 94
1, 343947, Control_c, 0, 67, 100
1, 343955, Note_on_c, 0, 76, 60
1, 343962, Control_c, 0, 67, 107
1, 343978, Control_c, 0, 67, 112
1, 343993, Control_c, 0, 67, 117
1, 343995, Note_off_c, 0, 76, 60
1, 344008, Control_c, 0, 67, 121
1, 344023, Control_c, 0, 67, 126
1, 344099, Note_on_c, 0, 75, 57
1, 344140, Note_off_c, 0, 75, 59
1, 344248, Note_on_c, 0, 76, 52
1, 344282, Note_off_c, 0, 76, 62
1, 344400, Note_on_c, 0, 78, 53
1, 344439, Note_off_c, 0, 78, 61
1, 344531, Note_on_c, 0, 80, 63
1, 344561, Note_off_c, 0, 80, 61
1, 344668, Note_on_c, 0, 80, 65
1, 344681, Note_on_c, 0, 76, 53
1, 344682, Note_on_c, 0, 83, 61
1, 344704, Note_off_c, 0, 80, 58
1, 344710, Note_off_c, 0, 83, 65
1, 344719, Note_off_c, 0, 76, 52
1, 344818, Note_on_c, 0, 83, 76
1, 344832, Note_on_c, 0, 75, 52
1, 344834, Note_on_c, 0, 78, 61
1, 344865, Note_off_c, 0, 78, 63
1, 344865, Note_off_c, 0, 83, 56
1, 344871, Note_off_c, 0, 75, 61
1, 344957, Note_on_c, 0, 83, 80
1, 344961, Note_on_c, 0, 73, 59
1, 344963, Note_on_c, 0, 76, 70
1, 344979, Note_off_c, 0, 76, 66
1, 344987, Note_off_c, 0, 83, 58
1, 345000, Note_off_c, 0, 73, 57
1, 345082, Control_c, 0, 64, 48
1, 345092, Note_on_c, 0, 75, 71
1, 345092, Note_on_c, 0, 83, 74
1, 345112, Note_on_c, 0, 71, 51
1, 345130, Note_off_c, 0, 75, 57
1, 345143, Note_off_c, 0, 71, 57
1, 345145, Note_off_c, 0, 83, 63
1, 345200, Control_c, 0, 67, 119
1, 345215, Control_c, 0, 67, 86
1, 345230, Control_c, 0, 67, 47
1, 345236, Note_on_c, 0, 83, 68
1, 345241, Note_on_c, 0, 69, 54
1, 345241, Note_on_c, 0, 78, 60
1, 345244, Control_c, 0, 67, 0
1, 345267, Note_off_c, 0, 83, 62
1, 345276, Note_off_c, 0, 78, 59
1, 345277, Note_off_c, 0, 69, 61
1, 345363, Control_c, 0, 64, 48
1, 345389, Note_on_c, 0, 83, 60
1, 345400, Control_c, 0, 64, 47
1, 345410, Note_on_c, 0, 76, 56
1, 345414, Note_on_c, 0, 68, 45
1, 345430, Control_c, 0, 64, 46
1, 345445, Control_c, 0, 64, 44
1, 345451, Note_off_c, 0, 68, 60
1, 345459, Control_c, 0, 64, 41
1, 345459, Control_c, 0, 67, 20
1, 345474, Control_c, 0, 64, 35
1, 345474, Control_c, 0, 67, 23
1, 345489, Control_c, 0, 64, 0
1, 345489, Control_c, 0, 67, 27
1, 345503, Control_c, 0, 67, 33
1, 345518, Control_c, 0, 67, 42
1, 345533, Control_c, 0, 67, 56
1, 345548, Control_c, 0, 67, 73
1, 345551, Note_on_c, 0, 69, 56
1, 345563, Control_c, 0, 67, 90
1, 345579, Control_c, 0, 67, 107
1, 345593, Control_c, 0, 67, 123
1, 345595, Note_off_c, 0, 69, 59
1, 345608, Control_c, 0, 67, 127
1, 345712, Note_on_c, 0, 71, 58
1, 345748, Note_off_c, 0, 71, 61
1, 345856, Note_on_c, 0, 69, 58
1, 345891, Note_off_c, 0, 69, 61
1, 345999, Note_on_c, 0, 68, 59
1, 346044, Note_off_c, 0, 68, 60
1, 346131, Note_on_c, 0, 66, 63
1, 346189, Note_off_c, 0, 66, 57
1, 346281, Note_on_c, 0, 64, 56
1, 346326, Note_off_c, 0, 64, 57
1, 346415, Note_on_c, 0, 63, 57
1, 346458, Note_off_c, 0, 63, 60
1, 346530, Note_off_c, 0, 83, 59
1, 346566, Note_off_c, 0, 76, 63
1, 346571, Note_on_c, 0, 64, 53
1, 346609, Note_off_c, 0, 64, 63
1, 346706, Note_on_c, 0, 65, 57
1, 346748, Note_off_c, 0, 65, 62
1, 346860, Note_on_c, 0, 66, 48
1, 346898, Note_off_c, 0, 66, 57
1, 347023, Note_on_c, 0, 76, 64
1, 347028, Note_on_c, 0, 64, 46
1, 347036, Note_on_c, 0, 68, 47
1, 347059, Note_off_c, 0, 76, 61
1, 347064, Note_off_c, 0, 68, 60
1, 347071, Note_off_c, 0, 64, 61
1, 347198, Note_on_c, 0, 76, 55
1, 347206, Note_on_c, 0, 63, 47
1, 347208, Note_on_c, 0, 66, 47
1, 347238, Note_off_c, 0, 76, 48
1, 347240, Note_off_c, 0, 66, 56
1, 347244, Note_off_c, 0, 63, 62
1, 347371, Note_on_c, 0, 76, 55
1, 347384, Note_on_c, 0, 68, 50
1, 347387, Note_on_c, 0, 62, 41
1, 347408, Note_on_c, 0, 64, 19
1, 347414, Note_off_c, 0, 76, 58
1, 347423, Note_off_c, 0, 62, 51
1, 347425, Note_off_c, 0, 68, 60
1, 347441, Note_off_c, 0, 64, 42
1, 347570, Note_on_c, 0, 76, 50
1, 347581, Note_on_c, 0, 69, 44
1, 347581, Note_on_c, 0, 64, 34
1, 347585, Note_on_c, 0, 61, 40
1, 347616, Note_off_c, 0, 69, 55
1, 347618, Note_off_c, 0, 76, 58
1, 347624, Note_off_c, 0, 64, 58
1, 347632, Note_off_c, 0, 61, 60
1, 347801, Note_on_c, 0, 62, 35
1, 347801, Note_on_c, 0, 76, 43
1, 347808, Note_on_c, 0, 59, 34
1, 347815, Note_on_c, 0, 68, 36
1, 347850, Note_off_c, 0, 62, 58
1, 347855, Note_off_c, 0, 68, 50
1, 347858, Note_off_c, 0, 59, 56
1, 347858, Note_off_c, 0, 76, 54
1, 348141, Note_on_c, 0, 76, 43
1, 348146, Note_on_c, 0, 61, 24
1, 348146, Note_on_c, 0, 69, 30
1, 348147, Note_on_c, 0, 57, 24
1, 348210, Control_c, 0, 64, 42
1, 348225, Control_c, 0, 64, 57
1, 348240, Control_c, 0, 64, 62
1, 348255, Control_c, 0, 64, 64
1, 348269, Control_c, 0, 64, 67
1, 348284, Control_c, 0, 64, 71
1, 348299, Control_c, 0, 64, 76
1, 348314, Control_c, 0, 64, 85
1, 348329, Control_c, 0, 64, 94
1, 348344, Control_c, 0, 64, 105
1, 348359, Control_c, 0, 64, 127
1, 348439, Note_off_c, 0, 69, 40
1, 348454, Note_off_c, 0, 76, 63
1, 348929, Note_on_c, 0, 81, 45
1, 349097, Note_on_c, 0, 80, 48
1, 349177, Note_off_c, 0, 57, 38
1, 349229, Note_off_c, 0, 81, 35
1, 349259, Note_on_c, 0, 78, 52
1, 349293, Note_off_c, 0, 80, 34
1, 349372, Note_off_c, 0, 78, 53
1, 349403, Note_on_c, 0, 76, 54
1, 349453, Note_off_c, 0, 76, 53
1, 349560, Note_off_c, 0, 61, 38
1, 349575, Control_c, 0, 64, 97
1, 349584, Note_on_c, 0, 59, 32
1, 349587, Note_on_c, 0, 62, 36
1, 349590, Control_c, 0, 64, 77
1, 349594, Note_on_c, 0, 76, 50
1, 349600, Note_on_c, 0, 68, 40
1, 349605, Control_c, 0, 64, 65
1, 349620, Control_c, 0, 64, 57
1, 349635, Control_c, 0, 64, 58
1, 349649, Control_c, 0, 64, 62
1, 349664, Control_c, 0, 64, 66
1, 349679, Control_c, 0, 64, 72
1, 349693, Control_c, 0, 64, 81
1, 349707, Note_off_c, 0, 76, 63
1, 349708, Control_c, 0, 64, 90
1, 349723, Control_c, 0, 64, 101
1, 349734, Note_off_c, 0, 62, 54
1, 349738, Control_c, 0, 64, 112
1, 349753, Control_c, 0, 64, 127
1, 349762, Note_off_c, 0, 59, 37
1, 349793, Note_off_c, 0, 68, 52
1, 349943, Note_on_c, 0, 68, 46
1, 349948, Note_on_c, 0, 76, 47
1, 349956, Note_on_c, 0, 59, 28
1, 349971, Note_on_c, 0, 62, 28
1, 350043, Note_off_c, 0, 76, 55
1, 350056, Control_c, 0, 67, 121
1, 350065, Note_off_c, 0, 62, 53
1, 350071, Control_c, 0, 67, 112
1, 350072, Note_off_c, 0, 68, 35
1, 350085, Note_off_c, 0, 59, 36
1, 350086, Control_c, 0, 67, 106
1, 350100, Control_c, 0, 67, 102
1, 350115, Control_c, 0, 67, 96
1, 350130, Control_c, 0, 67, 91
1, 350145, Control_c, 0, 67, 87
1, 350160, Control_c, 0, 67, 83
1, 350174, Control_c, 0, 67, 79
1, 350189, Control_c, 0, 67, 75
1, 350204, Control_c, 0, 67, 70
1, 350219, Control_c, 0, 67, 66
1, 350234, Control_c, 0, 67, 64
1, 350249, Control_c, 0, 67, 63
1, 350263, Control_c, 0, 67, 62
1, 350272, Note_on_c, 0, 59, 25
1, 350275, Note_on_c, 0, 76, 52
1, 350278, Note_on_c, 0, 62, 28
1, 350278, Control_c, 0, 67, 62
1, 350286, Note_on_c, 0, 68, 39
1, 350338, Control_c, 0, 67, 61
1, 350376, Note_off_c, 0, 76, 57
1, 350395, Note_off_c, 0, 59, 47
1, 350397, Note_off_c, 0, 62, 55
1, 350413, Control_c, 0, 67, 60
1, 350416, Note_off_c, 0, 68, 36
1, 350457, Control_c, 0, 67, 58
1, 350472, Control_c, 0, 67, 49
1, 350487, Control_c, 0, 67, 41
1, 350502, Control_c, 0, 67, 33
1, 350516, Control_c, 0, 67, 28
1, 350531, Control_c, 0, 67, 25
1, 350561, Control_c, 0, 67, 23
1, 350576, Control_c, 0, 67, 21
1, 350590, Control_c, 0, 67, 0
1, 350609, Note_on_c, 0, 76, 56
1, 350612, Note_on_c, 0, 59, 22
1, 350619, Note_on_c, 0, 62, 24
1, 350619, Note_on_c, 0, 68, 37
1, 350713, Note_off_c, 0, 76, 56
1, 350714, Note_off_c, 0, 68, 35
1, 350972, Note_on_c, 0, 69, 45
1, 350978, Note_on_c, 0, 76, 58
1, 350980, Note_on_c, 0, 64, 24
1, 350984, Control_c, 0, 64, 104
1, 350988, Note_on_c, 0, 61, 31
1, 350998, Control_c, 0, 64, 83
1, 351013, Control_c, 0, 64, 66
1, 351028, Control_c, 0, 64, 55
1, 351034, Note_off_c, 0, 62, 41
1, 351037, Note_off_c, 0, 59, 41
1, 351042, Control_c, 0, 64, 48
1, 351057, Control_c, 0, 64, 54
1, 351072, Control_c, 0, 64, 59
1, 351087, Control_c, 0, 64, 62
1, 351102, Control_c, 0, 64, 66
1, 351116, Control_c, 0, 64, 73
1, 351131, Control_c, 0, 64, 81
1, 351146, Control_c, 0, 64, 87
1, 351162, Control_c, 0, 64, 91
1, 351177, Control_c, 0, 64, 94
1, 351192, Control_c, 0, 64, 97
1, 351206, Control_c, 0, 64, 101
1, 351221, Control_c, 0, 64, 105
1, 351236, Control_c, 0, 64, 107
1, 351251, Control_c, 0, 64, 110
1, 351265, Control_c, 0, 64, 113
1, 351280, Control_c, 0, 64, 120
1, 351295, Control_c, 0, 64, 127
1, 351310, Note_on_c, 0, 57, 25
1, 351313, Note_on_c, 0, 73, 66
1, 351349, Note_off_c, 0, 64, 38
1, 351398, Note_off_c, 0, 69, 41
1, 351727, Note_on_c, 0, 78, 60
1, 351744, Note_on_c, 0, 62, 30
1, 351745, Note_on_c, 0, 69, 34
1, 351747, Control_c, 0, 64, 105
1, 351751, Note_off_c, 0, 57, 41
1, 351754, Note_on_c, 0, 66, 28
1, 351762, Control_c, 0, 64, 85
1, 351777, Control_c, 0, 64, 71
1, 351783, Note_off_c, 0, 76, 53
1, 351792, Control_c, 0, 64, 58
1, 351801, Note_off_c, 0, 61, 40
1, 351807, Control_c, 0, 64, 0
1, 351814, Note_off_c, 0, 73, 55
1, 351851, Control_c, 0, 64, 40
1, 351865, Control_c, 0, 64, 48
1, 351880, Control_c, 0, 64, 56
1, 351895, Control_c, 0, 64, 63
1, 351910, Control_c, 0, 64, 70
1, 351925, Control_c, 0, 64, 77
1, 351939, Control_c, 0, 64, 84
1, 351954, Control_c, 0, 64, 89
1, 351970, Control_c, 0, 64, 93
1, 351970, Control_c, 0, 67, 22
1, 351985, Control_c, 0, 64, 97
1, 351985, Control_c, 0, 67, 30
1, 352000, Control_c, 0, 64, 99
1, 352000, Control_c, 0, 67, 40
1, 352015, Control_c, 0, 67, 57
1, 352029, Control_c, 0, 64, 102
1, 352029, Control_c, 0, 67, 72
1, 352044, Control_c, 0, 67, 86
1, 352059, Control_c, 0, 64, 104
1, 352059, Control_c, 0, 67, 103
1, 352074, Control_c, 0, 67, 119
1, 352080, Note_off_c, 0, 66, 39
1, 352088, Control_c, 0, 67, 127
1, 352095, Note_off_c, 0, 69, 38
1, 352103, Control_c, 0, 64, 106
1, 352121, Note_off_c, 0, 62, 40
1, 352129, Note_off_c, 0, 78, 62
1, 352200, Control_c, 0, 64, 108
1, 352437, Control_c, 0, 64, 98
1, 352451, Note_on_c, 0, 76, 48
1, 352451, Control_c, 0, 64, 83
1, 352461, Note_on_c, 0, 61, 30
1, 352466, Control_c, 0, 64, 70
1, 352474, Note_on_c, 0, 69, 22
1, 352475, Note_on_c, 0, 64, 25
1, 352481, Control_c, 0, 64, 57
1, 352496, Control_c, 0, 64, 42
1, 352511, Control_c, 0, 64, 44
1, 352526, Control_c, 0, 64, 53
1, 352541, Control_c, 0, 64, 58
1, 352556, Control_c, 0, 64, 62
1, 352570, Control_c, 0, 64, 66
1, 352585, Control_c, 0, 64, 72
1, 352600, Control_c, 0, 64, 79
1, 352614, Control_c, 0, 64, 86
1, 352620, Note_off_c, 0, 61, 37
1, 352629, Control_c, 0, 64, 88
1, 352644, Control_c, 0, 64, 90
1, 352659, Control_c, 0, 64, 92
1, 352674, Control_c, 0, 64, 94
1, 352688, Control_c, 0, 64, 96
1, 352718, Control_c, 0, 64, 98
1, 352798, Note_on_c, 0, 73, 47
1, 352806, Note_on_c, 0, 61, 21
1, 352808, Control_c, 0, 64, 100
1, 352815, Note_on_c, 0, 57, 35
1, 352868, Note_off_c, 0, 57, 45
1, 352869, Note_off_c, 0, 76, 33
1, 352889, Note_off_c, 0, 61, 38
1, 352930, Note_off_c, 0, 69, 39
1, 352957, Note_off_c, 0, 64, 31
1, 353079, Note_off_c, 0, 73, 31
1, 353261, Note_on_c, 0, 52, 31
1, 353272, Note_on_c, 0, 71, 37
1, 353273, Note_on_c, 0, 59, 24
1, 353292, Note_on_c, 0, 68, 32
1, 353305, Control_c, 0, 64, 95
1, 353319, Control_c, 0, 64, 89
1, 353334, Control_c, 0, 64, 83
1, 353349, Control_c, 0, 64, 75
1, 353364, Control_c, 0, 64, 67
1, 353379, Control_c, 0, 64, 57
1, 353393, Control_c, 0, 64, 33
1, 353408, Control_c, 0, 64, 0
1, 353512, Control_c, 0, 64, 40
1, 353527, Control_c, 0, 64, 51
1, 353542, Control_c, 0, 64, 58
1, 353557, Control_c, 0, 64, 61
1, 353572, Control_c, 0, 64, 63
1, 353587, Control_c, 0, 64, 65
1, 353602, Control_c, 0, 64, 69
1, 353616, Control_c, 0, 64, 72
1, 353638, Control_c, 0, 64, 74
1, 353653, Control_c, 0, 64, 76
1, 353668, Control_c, 0, 64, 78
1, 353683, Control_c, 0, 64, 80
1, 353697, Control_c, 0, 64, 83
1, 353712, Control_c, 0, 64, 85
1, 353727, Control_c, 0, 64, 87
1, 353742, Control_c, 0, 64, 89
1, 353757, Control_c, 0, 64, 91
1, 353772, Control_c, 0, 64, 93
1, 353787, Control_c, 0, 64, 95
1, 353802, Control_c, 0, 64, 96
1, 353846, Control_c, 0, 64, 98
1, 353890, Control_c, 0, 64, 100
1, 353934, Control_c, 0, 64, 102
1, 353936, Note_off_c, 0, 68, 35
1, 353948, Note_off_c, 0, 52, 40
1, 353964, Control_c, 0, 64, 105
1, 353993, Control_c, 0, 64, 109
1, 354008, Control_c, 0, 64, 112
1, 354023, Control_c, 0, 64, 118
1, 354027, Note_off_c, 0, 59, 41
1, 354038, Control_c, 0, 64, 127
1, 354365, Note_off_c, 0, 71, 39
1, 354639, Control_c, 0, 64, 108
1, 354654, Control_c, 0, 64, 81
1, 354669, Control_c, 0, 64, 66
1, 354683, Control_c, 0, 64, 54
1, 354698, Control_c, 0, 64, 37
1, 354713, Control_c, 0, 64, 0
1, 354824, Note_on_c, 0, 71, 37
1, 354851, Note_on_c, 0, 83, 43
1, 354967, Note_off_c, 0, 71, 51
1, 354979, Note_off_c, 0, 83, 59
1, 355004, Note_on_c, 0, 85, 52
1, 355014, Note_on_c, 0, 73, 44
1, 355111, Note_off_c, 0, 73, 49
1, 355144, Note_off_c, 0, 85, 53
1, 355148, Note_on_c, 0, 86, 54
1, 355161, Note_on_c, 0, 74, 44
1, 355254, Control_c, 0, 64, 33
1, 355269, Control_c, 0, 64, 36
1, 355284, Control_c, 0, 64, 41
1, 355299, Control_c, 0, 64, 48
1, 355313, Control_c, 0, 64, 52
1, 355315, Note_off_c, 0, 86, 55
1, 355328, Control_c, 0, 64, 56
1, 355336, Note_on_c, 0, 88, 52
1, 355343, Control_c, 0, 64, 59
1, 355350, Note_off_c, 0, 74, 31
1, 355355, Note_on_c, 0, 69, 28
1, 355358, Control_c, 0, 64, 61
1, 355361, Note_on_c, 0, 81, 35
1, 355370, Note_on_c, 0, 73, 22
1, 355370, Note_on_c, 0, 76, 27
1, 355373, Control_c, 0, 64, 63
1, 355388, Control_c, 0, 64, 67
1, 355403, Control_c, 0, 64, 71
1, 355417, Control_c, 0, 64, 75
1, 355432, Control_c, 0, 64, 78
1, 355447, Control_c, 0, 64, 81
1, 355462, Control_c, 0, 64, 86
1, 355477, Control_c, 0, 64, 94
1, 355492, Control_c, 0, 64, 109
1, 355506, Control_c, 0, 64, 127
1, 355586, Note_off_c, 0, 81, 42
1, 355626, Note_off_c, 0, 88, 64
1, 355654, Control_c, 0, 67, 121
1, 355669, Control_c, 0, 67, 103
1, 355684, Note_off_c, 0, 73, 44
1, 355684, Control_c, 0, 67, 88
1, 355699, Control_c, 0, 67, 74
1, 355713, Control_c, 0, 67, 65
1, 355728, Control_c, 0, 67, 59
1, 355743, Control_c, 0, 67, 55
1, 355757, Control_c, 0, 67, 51
1, 355772, Control_c, 0, 67, 46
1, 355787, Control_c, 0, 67, 42
1, 355802, Control_c, 0, 67, 38
1, 355814, Note_off_c, 0, 69, 40
1, 355817, Control_c, 0, 67, 33
1, 355832, Control_c, 0, 67, 30
1, 355862, Control_c, 0, 67, 27
1, 355900, Control_c, 0, 67, 25
1, 355905, Note_off_c, 0, 76, 29
1, 356047, Note_on_c, 0, 93, 47
1, 356052, Note_on_c, 0, 81, 41
1, 356167, Control_c, 0, 67, 28
1, 356196, Control_c, 0, 67, 31
1, 356211, Control_c, 0, 67, 33
1, 356216, Note_on_c, 0, 92, 55
1, 356225, Note_off_c, 0, 81, 42
1, 356226, Control_c, 0, 67, 36
1, 356229, Note_on_c, 0, 80, 51
1, 356241, Control_c, 0, 67, 39
1, 356255, Note_off_c, 0, 93, 34
1, 356255, Control_c, 0, 67, 43
1, 356270, Control_c, 0, 67, 54
1, 356285, Control_c, 0, 67, 76
1, 356300, Control_c, 0, 67, 99
1, 356315, Control_c, 0, 67, 118
1, 356330, Control_c, 0, 67, 127
1, 356359, Note_off_c, 0, 80, 57
1, 356366, Note_on_c, 0, 90, 64
1, 356377, Note_off_c, 0, 92, 49
1, 356390, Note_on_c, 0, 78, 52
1, 356466, Note_off_c, 0, 78, 51
1, 356500, Note_off_c, 0, 90, 51
1, 356501, Note_on_c, 0, 88, 71
1, 356526, Note_on_c, 0, 76, 62
1, 356550, Note_off_c, 0, 88, 55
1, 356554, Note_off_c, 0, 76, 66
1, 356678, Control_c, 0, 64, 99
1, 356693, Control_c, 0, 64, 72
1, 356703, Note_on_c, 0, 88, 54
1, 356708, Control_c, 0, 64, 58
1, 356719, Note_on_c, 0, 76, 41
1, 356720, Note_on_c, 0, 80, 45
1, 356723, Control_c, 0, 64, 51
1, 356736, Note_on_c, 0, 74, 36
1, 356737, Control_c, 0, 64, 56
1, 356753, Control_c, 0, 64, 61
1, 356768, Control_c, 0, 64, 65
1, 356783, Control_c, 0, 64, 72
1, 356798, Control_c, 0, 64, 84
1, 356812, Control_c, 0, 64, 95
1, 356821, Note_off_c, 0, 88, 64
1, 356821, Poly_aftertouch_c, 0, 71, 127
1, 356827, Control_c, 0, 64, 108
1, 356833, Note_off_c, 0, 74, 58
1, 356834, Note_off_c, 0, 76, 56
1, 356842, Control_c, 0, 64, 127
1, 356867, Poly_aftertouch_c, 0, 72, 0
1, 356868, Poly_aftertouch_c, 0, 71, 0
1, 356878, Note_off_c, 0, 80, 49
1, 357004, Control_c, 0, 67, 113
1, 357019, Control_c, 0, 67, 101
1, 357033, Note_on_c, 0, 88, 66
1, 357034, Control_c, 0, 67, 91
1, 357042, Note_on_c, 0, 80, 42
1, 357049, Control_c, 0, 67, 81
1, 357054, Note_on_c, 0, 76, 46
1, 357064, Control_c, 0, 67, 73
1, 357070, Note_on_c, 0, 74, 51
1, 357078, Control_c, 0, 67, 66
1, 357083, Note_on_c, 0, 71, 29
1, 357093, Control_c, 0, 67, 59
1, 357108, Control_c, 0, 67, 49
1, 357114, Note_off_c, 0, 76, 55
1, 357116, Note_off_c, 0, 71, 56
1, 357117, Note_off_c, 0, 74, 61
1, 357123, Control_c, 0, 67, 37
1, 357138, Control_c, 0, 67, 23
1, 357144, Note_off_c, 0, 88, 62
1, 357152, Control_c, 0, 67, 0
1, 357157, Note_off_c, 0, 80, 41
1, 357385, Note_on_c, 0, 88, 74
1, 357386, Note_on_c, 0, 76, 47
1, 357394, Note_on_c, 0, 71, 40
1, 357396, Note_on_c, 0, 80, 49
1, 357398, Note_on_c, 0, 74, 53
1, 357453, Note_off_c, 0, 71, 61
1, 357455, Note_off_c, 0, 76, 58
1, 357457, Note_off_c, 0, 74, 61
1, 357465, Note_off_c, 0, 80, 58
1, 357497, Note_off_c, 0, 88, 63
1, 357707, Note_on_c, 0, 88, 82
1, 357722, Note_on_c, 0, 80, 50
1, 357725, Note_on_c, 0, 76, 44
1, 357732, Note_on_c, 0, 71, 40
1, 357737, Note_on_c, 0, 74, 51
1, 357755, Note_off_c, 0, 80, 57
1, 357779, Note_off_c, 0, 76, 55
1, 357821, Note_off_c, 0, 88, 63
1, 358066, Note_on_c, 0, 76, 43
1, 358067, Note_on_c, 0, 88, 81
1, 358086, Note_on_c, 0, 72, 41
1, 358091, Note_on_c, 0, 81, 54
1, 358144, Note_off_c, 0, 74, 61
1, 358146, Control_c, 0, 64, 89
1, 358148, Note_off_c, 0, 71, 55
1, 358160, Control_c, 0, 64, 70
1, 358175, Control_c, 0, 64, 56
1, 358190, Control_c, 0, 64, 47
1, 358205, Control_c, 0, 64, 55
1, 358220, Control_c, 0, 64, 61
1, 358234, Control_c, 0, 64, 68
1, 358249, Control_c, 0, 64, 79
1, 358264, Control_c, 0, 64, 96
1, 358279, Control_c, 0, 64, 127
1, 358424, Note_on_c, 0, 84, 88
1, 358428, Note_on_c, 0, 69, 43
1, 358461, Note_off_c, 0, 81, 52
1, 358517, Note_off_c, 0, 76, 36
1, 358823, Note_on_c, 0, 89, 85
1, 358831, Note_on_c, 0, 77, 32
1, 358835, Note_on_c, 0, 74, 39
1, 358857, Note_on_c, 0, 81, 54
1, 358894, Control_c, 0, 64, 95
1, 358909, Control_c, 0, 64, 73
1, 358914, Note_off_c, 0, 84, 60
1, 358922, Note_off_c, 0, 69, 36
1, 358924, Control_c, 0, 64, 59
1, 358938, Note_off_c, 0, 88, 59
1, 358938, Control_c, 0, 64, 42
1, 358953, Control_c, 0, 64, 45
1, 358968, Control_c, 0, 64, 53
1, 358983, Control_c, 0, 64, 60
1, 358992, Note_off_c, 0, 72, 43
1, 358998, Control_c, 0, 64, 66
1, 359012, Control_c, 0, 64, 75
1, 359027, Control_c, 0, 64, 88
1, 359042, Control_c, 0, 64, 103
1, 359057, Control_c, 0, 64, 118
1, 359072, Control_c, 0, 64, 127
1, 359113, Note_off_c, 0, 77, 44
1, 359115, Note_off_c, 0, 74, 56
1, 359203, Note_on_c, 0, 83, 53
1, 359251, Control_c, 0, 67, 22
1, 359266, Control_c, 0, 67, 28
1, 359280, Control_c, 0, 67, 34
1, 359295, Control_c, 0, 67, 44
1, 359302, Note_off_c, 0, 81, 25
1, 359302, Note_off_c, 0, 89, 56
1, 359310, Control_c, 0, 67, 58
1, 359324, Control_c, 0, 67, 72
1, 359339, Control_c, 0, 67, 87
1, 359354, Control_c, 0, 67, 101
1, 359369, Control_c, 0, 67, 113
1, 359384, Control_c, 0, 67, 123
1, 359398, Control_c, 0, 67, 127
1, 359413, Note_off_c, 0, 83, 38
1, 359564, Note_on_c, 0, 88, 59
1, 359576, Control_c, 0, 64, 85
1, 359585, Note_on_c, 0, 76, 28
1, 359586, Note_on_c, 0, 84, 45
1, 359590, Control_c, 0, 64, 67
1, 359602, Note_on_c, 0, 72, 25
1, 359605, Control_c, 0, 64, 51
1, 359627, Control_c, 0, 64, 37
1, 359642, Control_c, 0, 64, 43
1, 359657, Control_c, 0, 64, 52
1, 359671, Control_c, 0, 64, 60
1, 359686, Control_c, 0, 64, 68
1, 359701, Control_c, 0, 64, 76
1, 359716, Control_c, 0, 64, 86
1, 359731, Control_c, 0, 64, 94
1, 359741, Note_off_c, 0, 76, 40
1, 359746, Control_c, 0, 64, 97
1, 359761, Control_c, 0, 64, 99
1, 359764, Note_off_c, 0, 72, 35
1, 359776, Control_c, 0, 64, 101
1, 359785, Note_off_c, 0, 84, 39
1, 359790, Control_c, 0, 64, 104
1, 359805, Control_c, 0, 64, 107
1, 359820, Control_c, 0, 64, 109
1, 359850, Control_c, 0, 64, 111
1, 359879, Control_c, 0, 64, 115
1, 359894, Control_c, 0, 64, 117
1, 359909, Control_c, 0, 64, 119
1, 359938, Control_c, 0, 64, 122
1, 359954, Control_c, 0, 64, 125
1, 359972, Note_on_c, 0, 84, 51
1, 359982, Note_on_c, 0, 64, 35
1, 359984, Control_c, 0, 64, 127
1, 359984, Note_on_c, 0, 72, 28
1, 360002, Note_on_c, 0, 79, 27
1, 360029, Note_off_c, 0, 88, 38
1, 360083, Note_off_c, 0, 64, 30
1, 360092, Note_off_c, 0, 79, 38
1, 360525, Note_on_c, 0, 86, 47
1, 360532, Note_on_c, 0, 74, 36
1, 360537, Note_on_c, 0, 67, 16
1, 360539, Note_on_c, 0, 83, 40
1, 360539, Control_c, 0, 64, 120
1, 360551, Note_off_c, 0, 84, 34
1, 360554, Control_c, 0, 64, 110
1, 360568, Control_c, 0, 64, 100
1, 360583, Control_c, 0, 64, 90
1, 360598, Control_c, 0, 64, 81
1, 360613, Control_c, 0, 64, 72
1, 360628, Control_c, 0, 64, 63
1, 360633, Note_off_c, 0, 72, 43
1, 360643, Control_c, 0, 64, 50
1, 360658, Control_c, 0, 64, 37
1, 360672, Control_c, 0, 64, 35
1, 360687, Control_c, 0, 64, 38
1, 360702, Control_c, 0, 64, 44
1, 360717, Control_c, 0, 64, 49
1, 360732, Control_c, 0, 64, 55
1, 360747, Control_c, 0, 64, 61
1, 360762, Control_c, 0, 64, 65
1, 360777, Control_c, 0, 64, 70
1, 360792, Control_c, 0, 64, 76
1, 360807, Control_c, 0, 64, 81
1, 360822, Control_c, 0, 64, 84
1, 360837, Control_c, 0, 64, 86
1, 360851, Control_c, 0, 64, 88
1, 360866, Control_c, 0, 64, 91
1, 360881, Control_c, 0, 64, 95
1, 360896, Control_c, 0, 64, 98
1, 360911, Control_c, 0, 64, 100
1, 360925, Control_c, 0, 64, 102
1, 360940, Control_c, 0, 64, 106
1, 360955, Control_c, 0, 64, 111
1, 360969, Control_c, 0, 64, 118
1, 360984, Control_c, 0, 64, 122
1, 360999, Control_c, 0, 64, 125
1, 361014, Control_c, 0, 64, 127
1, 361150, Note_off_c, 0, 86, 49
1, 361165, Note_off_c, 0, 83, 42
1, 361319, Note_off_c, 0, 74, 15
1, 361532, Note_off_c, 0, 67, 42
1, 362053, Control_c, 0, 64, 115
1, 362068, Control_c, 0, 64, 96
1, 362082, Control_c, 0, 64, 83
1, 362097, Control_c, 0, 64, 75
1, 362112, Control_c, 0, 64, 67
1, 362126, Control_c, 0, 64, 61
1, 362141, Control_c, 0, 64, 55
1, 362156, Control_c, 0, 64, 51
1, 362171, Control_c, 0, 64, 48
1, 362186, Control_c, 0, 64, 46
1, 362200, Control_c, 0, 64, 40
1, 362214, Note_on_c, 0, 55, 38
1, 362215, Control_c, 0, 64, 0
1, 362354, Note_off_c, 0, 55, 53
1, 362377, Note_on_c, 0, 54, 44
1, 362379, Control_c, 0, 64, 39
1, 362394, Control_c, 0, 64, 46
1, 362409, Control_c, 0, 64, 54
1, 362423, Control_c, 0, 64, 61
1, 362438, Control_c, 0, 64, 64
1, 362453, Control_c, 0, 64, 66
1, 362468, Control_c, 0, 64, 68
1, 362483, Control_c, 0, 64, 70
1, 362497, Control_c, 0, 64, 72
1, 362512, Note_off_c, 0, 54, 54
1, 362512, Control_c, 0, 64, 74
1, 362515, Note_on_c, 0, 53, 42
1, 362527, Control_c, 0, 64, 75
1, 362542, Control_c, 0, 64, 77
1, 362557, Control_c, 0, 64, 78
1, 362572, Control_c, 0, 64, 79
1, 362665, Note_off_c, 0, 53, 55
1, 362677, Note_on_c, 0, 67, 37
1, 362680, Note_on_c, 0, 72, 42
1, 362682, Control_c, 0, 64, 77
1, 362697, Control_c, 0, 64, 72
1, 362712, Control_c, 0, 64, 64
1, 362717, Note_on_c, 0, 52, 37
1, 362727, Control_c, 0, 64, 54
1, 362742, Control_c, 0, 64, 41
1, 362756, Control_c, 0, 64, 41
1, 362771, Control_c, 0, 64, 46
1, 362786, Control_c, 0, 64, 51
1, 362801, Control_c, 0, 64, 56
1, 362816, Control_c, 0, 64, 61
1, 362831, Control_c, 0, 64, 66
1, 362846, Control_c, 0, 64, 72
1, 362861, Control_c, 0, 64, 77
1, 362865, Note_on_c, 0, 55, 41
1, 362875, Control_c, 0, 64, 80
1, 362890, Control_c, 0, 64, 83
1, 362905, Control_c, 0, 64, 85
1, 362920, Control_c, 0, 64, 87
1, 362935, Control_c, 0, 64, 90
1, 362949, Control_c, 0, 64, 91
1, 362964, Control_c, 0, 64, 93
1, 362979, Control_c, 0, 64, 94
1, 362994, Control_c, 0, 64, 95
1, 362997, Note_off_c, 0, 55, 37
1, 363009, Control_c, 0, 64, 96
1, 363038, Control_c, 0, 64, 98
1, 363046, Note_on_c, 0, 60, 36
1, 363097, Control_c, 0, 64, 100
1, 363134, Note_off_c, 0, 60, 38
1, 363157, Note_on_c, 0, 55, 34
1, 363246, Control_c, 0, 67, 119
1, 363261, Control_c, 0, 67, 110
1, 363276, Control_c, 0, 67, 100
1, 363290, Control_c, 0, 67, 89
1, 363299, Note_off_c, 0, 72, 53
1, 363305, Control_c, 0, 67, 78
1, 363310, Note_off_c, 0, 55, 36
1, 363320, Control_c, 0, 67, 67
1, 363335, Note_on_c, 0, 74, 53
1, 363336, Control_c, 0, 67, 58
1, 363347, Note_on_c, 0, 60, 31
1, 363351, Control_c, 0, 67, 50
1, 363373, Control_c, 0, 67, 43
1, 363388, Control_c, 0, 67, 39
1, 363403, Control_c, 0, 67, 34
1, 363418, Control_c, 0, 67, 30
1, 363433, Control_c, 0, 67, 25
1, 363447, Control_c, 0, 67, 21
1, 363455, Note_off_c, 0, 60, 37
1, 363462, Control_c, 0, 67, 0
1, 363477, Note_off_c, 0, 74, 56
1, 363481, Note_on_c, 0, 55, 38
1, 363490, Note_on_c, 0, 72, 55
1, 363574, Note_off_c, 0, 55, 49
1, 363639, Note_on_c, 0, 60, 36
1, 363645, Note_on_c, 0, 74, 66
1, 363645, Note_off_c, 0, 72, 55
1, 363768, Note_on_c, 0, 72, 70
1, 363774, Note_on_c, 0, 55, 41
1, 363782, Note_off_c, 0, 74, 50
1, 363784, Note_off_c, 0, 60, 40
1, 363787, Note_off_c, 0, 67, 41
1, 363806, Note_off_c, 0, 52, 38
1, 363875, Note_off_c, 0, 55, 48
1, 363906, Control_c, 0, 64, 90
1, 363916, Note_on_c, 0, 53, 40
1, 363921, Control_c, 0, 64, 78
1, 363924, Note_off_c, 0, 72, 53
1, 363934, Note_on_c, 0, 71, 58
1, 363936, Control_c, 0, 64, 65
1, 363952, Control_c, 0, 64, 46
1, 363967, Control_c, 0, 64, 0
1, 363996, Control_c, 0, 64, 34
1, 364011, Control_c, 0, 64, 48
1, 364026, Control_c, 0, 64, 60
1, 364041, Control_c, 0, 64, 66
1, 364056, Control_c, 0, 64, 71
1, 364070, Control_c, 0, 64, 75
1, 364074, Note_on_c, 0, 55, 38
1, 364084, Control_c, 0, 64, 77
1, 364099, Control_c, 0, 64, 79
1, 364102, Note_off_c, 0, 71, 64
1, 364121, Control_c, 0, 64, 80
1, 364136, Control_c, 0, 64, 82
1, 364151, Control_c, 0, 64, 85
1, 364166, Control_c, 0, 64, 88
1, 364181, Control_c, 0, 64, 90
1, 364195, Control_c, 0, 64, 91
1, 364210, Control_c, 0, 64, 92
1, 364231, Note_off_c, 0, 55, 36
1, 364269, Control_c, 0, 64, 84
1, 364275, Note_on_c, 0, 62, 41
1, 364278, Note_on_c, 0, 79, 70
1, 364284, Control_c, 0, 64, 73
1, 364299, Control_c, 0, 64, 63
1, 364302, Note_on_c, 0, 71, 39
1, 364309, Note_on_c, 0, 67, 24
1, 364314, Control_c, 0, 64, 47
1, 364328, Control_c, 0, 64, 39
1, 364343, Control_c, 0, 64, 45
1, 364358, Control_c, 0, 64, 54
1, 364373, Control_c, 0, 64, 62
1, 364382, Note_off_c, 0, 67, 38
1, 364387, Control_c, 0, 64, 67
1, 364402, Control_c, 0, 64, 75
1, 364403, Note_off_c, 0, 62, 39
1, 364417, Control_c, 0, 64, 82
1, 364419, Note_on_c, 0, 55, 38
1, 364420, Note_off_c, 0, 71, 34
1, 364432, Control_c, 0, 64, 87
1, 364447, Control_c, 0, 64, 91
1, 364462, Control_c, 0, 64, 95
1, 364476, Control_c, 0, 64, 101
1, 364484, Note_off_c, 0, 79, 53
1, 364491, Control_c, 0, 64, 110
1, 364506, Control_c, 0, 64, 127
1, 364536, Control_c, 0, 67, 20
1, 364551, Control_c, 0, 64, 109
1, 364551, Control_c, 0, 67, 22
1, 364566, Control_c, 0, 64, 84
1, 364566, Control_c, 0, 67, 25
1, 364581, Control_c, 0, 64, 68
1, 364581, Control_c, 0, 67, 30
1, 364584, Note_on_c, 0, 79, 63
1, 364592, Note_off_c, 0, 55, 37
1, 364595, Control_c, 0, 64, 55
1, 364595, Control_c, 0, 67, 39
1, 364598, Note_on_c, 0, 67, 35
1, 364609, Note_on_c, 0, 62, 25
1, 364610, Control_c, 0, 64, 45
1, 364610, Control_c, 0, 67, 54
1, 364622, Note_on_c, 0, 71, 21
1, 364625, Control_c, 0, 64, 49
1, 364625, Control_c, 0, 67, 73
1, 364639, Control_c, 0, 64, 55
1, 364639, Control_c, 0, 67, 94
1, 364654, Control_c, 0, 64, 61
1, 364654, Control_c, 0, 67, 108
1, 364669, Control_c, 0, 64, 67
1, 364669, Control_c, 0, 67, 119
1, 364684, Control_c, 0, 64, 73
1, 364684, Control_c, 0, 67, 127
1, 364689, Note_off_c, 0, 62, 38
1, 364699, Control_c, 0, 64, 81
1, 364713, Control_c, 0, 64, 88
1, 364719, Note_on_c, 0, 55, 44
1, 364725, Note_off_c, 0, 71, 36
1, 364728, Control_c, 0, 64, 92
1, 364744, Control_c, 0, 64, 95
1, 364759, Note_off_c, 0, 79, 49
1, 364759, Control_c, 0, 64, 98
1, 364769, Note_off_c, 0, 67, 28
1, 364774, Control_c, 0, 64, 102
1, 364789, Control_c, 0, 64, 105
1, 364804, Control_c, 0, 64, 108
1, 364833, Control_c, 0, 64, 111
1, 364867, Note_off_c, 0, 55, 38
1, 364870, Control_c, 0, 64, 114
1, 364885, Control_c, 0, 64, 117
1, 364900, Control_c, 0, 64, 120
1, 364906, Note_on_c, 0, 79, 56
1, 364915, Control_c, 0, 64, 127
1, 364918, Note_on_c, 0, 67, 45
1, 364930, Note_on_c, 0, 62, 22
1, 364942, Note_on_c, 0, 71, 36
1, 364956, Note_off_c, 0, 67, 49
1, 364981, Note_off_c, 0, 71, 50
1, 364984, Note_off_c, 0, 62, 44
1, 365057, Note_on_c, 0, 55, 29
1, 365066, Note_off_c, 0, 79, 38
1, 365116, Note_off_c, 0, 53, 24
1, 365143, Note_off_c, 0, 55, 44
1, 365219, Note_on_c, 0, 52, 31
1, 365228, Note_on_c, 0, 72, 50
1, 365240, Control_c, 0, 64, 93
1, 365255, Control_c, 0, 64, 74
1, 365269, Control_c, 0, 64, 58
1, 365270, Note_on_c, 0, 67, 14
1, 365284, Control_c, 0, 64, 42
1, 365299, Control_c, 0, 64, 43
1, 365314, Control_c, 0, 64, 49
1, 365329, Control_c, 0, 64, 55
1, 365344, Control_c, 0, 64, 62
1, 365359, Control_c, 0, 64, 69
1, 365365, Note_on_c, 0, 55, 31
1, 365374, Control_c, 0, 64, 77
1, 365389, Control_c, 0, 64, 84
1, 365404, Control_c, 0, 64, 88
1, 365418, Control_c, 0, 64, 90
1, 365433, Control_c, 0, 64, 93
1, 365448, Control_c, 0, 64, 95
1, 365462, Control_c, 0, 64, 99
1, 365477, Control_c, 0, 64, 102
1, 365492, Control_c, 0, 64, 104
1, 365492, Control_c, 0, 67, 116
1, 365507, Control_c, 0, 67, 95
1, 365522, Control_c, 0, 67, 74
1, 365536, Note_off_c, 0, 55, 37
1, 365538, Control_c, 0, 67, 55
1, 365553, Control_c, 0, 64, 106
1, 365553, Control_c, 0, 67, 35
1, 365558, Note_off_c, 0, 72, 52
1, 365562, Note_on_c, 0, 60, 32
1, 365563, Note_on_c, 0, 71, 51
1, 365567, Control_c, 0, 67, 0
1, 365698, Note_on_c, 0, 55, 44
1, 365704, Note_on_c, 0, 72, 67
1, 365715, Note_off_c, 0, 60, 42
1, 365772, Note_off_c, 0, 71, 35
1, 365797, Control_c, 0, 64, 101
1, 365812, Control_c, 0, 64, 90
1, 365827, Control_c, 0, 64, 76
1, 365842, Note_off_c, 0, 55, 55
1, 365842, Control_c, 0, 64, 63
1, 365857, Control_c, 0, 64, 33
1, 365858, Note_on_c, 0, 77, 68
1, 365862, Note_on_c, 0, 60, 40
1, 365872, Control_c, 0, 64, 0
1, 365872, Note_off_c, 0, 72, 57
1, 365931, Control_c, 0, 64, 33
1, 365946, Control_c, 0, 64, 48
1, 365961, Control_c, 0, 64, 62
1, 365975, Control_c, 0, 64, 67
1, 365984, Note_off_c, 0, 60, 49
1, 365990, Control_c, 0, 64, 71
1, 366000, Note_on_c, 0, 55, 45
1, 366003, Note_on_c, 0, 76, 79
1, 366005, Control_c, 0, 64, 74
1, 366020, Control_c, 0, 64, 76
1, 366035, Control_c, 0, 64, 78
1, 366049, Control_c, 0, 64, 81
1, 366062, Note_off_c, 0, 67, 43
1, 366064, Control_c, 0, 64, 83
1, 366079, Control_c, 0, 64, 85
1, 366093, Control_c, 0, 64, 87
1, 366102, Note_off_c, 0, 55, 58
1, 366108, Control_c, 0, 64, 88
1, 366123, Control_c, 0, 64, 88
1, 366143, Note_on_c, 0, 60, 46
1, 366144, Note_on_c, 0, 74, 88
1, 366153, Control_c, 0, 64, 89
1, 366155, Note_off_c, 0, 77, 27
1, 366182, Control_c, 0, 64, 89
1, 366189, Note_off_c, 0, 76, 55
1, 366257, Note_off_c, 0, 60, 38
1, 366270, Note_on_c, 0, 72, 81
1, 366273, Note_on_c, 0, 55, 51
1, 366280, Note_off_c, 0, 52, 40
1, 366298, Note_off_c, 0, 74, 60
1, 366301, Control_c, 0, 64, 89
1, 366331, Control_c, 0, 64, 86
1, 366346, Control_c, 0, 64, 79
1, 366369, Control_c, 0, 64, 68
1, 366384, Control_c, 0, 64, 56
1, 366397, Note_off_c, 0, 55, 49
1, 366398, Control_c, 0, 64, 0
1, 366433, Note_on_c, 0, 53, 38
1, 366462, Note_on_c, 0, 71, 73
1, 366474, Note_off_c, 0, 72, 53
1, 366487, Control_c, 0, 64, 43
1, 366502, Control_c, 0, 64, 59
1, 366516, Control_c, 0, 64, 66
1, 366531, Control_c, 0, 64, 71
1, 366546, Control_c, 0, 64, 76
1, 366561, Control_c, 0, 64, 81
1, 366576, Control_c, 0, 64, 87
1, 366581, Note_on_c, 0, 55, 44
1, 366581, Note_off_c, 0, 71, 57
1, 366590, Control_c, 0, 64, 93
1, 366605, Control_c, 0, 64, 101
1, 366620, Control_c, 0, 64, 110
1, 366635, Control_c, 0, 64, 127
1, 366749, Note_off_c, 0, 55, 56
1, 366784, Note_on_c, 0, 62, 42
1, 366796, Note_on_c, 0, 79, 80
1, 366798, Control_c, 0, 64, 100
1, 366813, Control_c, 0, 64, 78
1, 366819, Note_on_c, 0, 71, 47
1, 366822, Note_on_c, 0, 67, 39
1, 366828, Control_c, 0, 64, 64
1, 366842, Control_c, 0, 64, 47
1, 366857, Control_c, 0, 64, 41
1, 366872, Control_c, 0, 64, 51
1, 366887, Control_c, 0, 64, 58
1, 366902, Control_c, 0, 64, 64
1, 366916, Control_c, 0, 64, 71
1, 366931, Control_c, 0, 64, 80
1, 366946, Control_c, 0, 64, 90
1, 366952, Note_off_c, 0, 62, 34
1, 366960, Note_on_c, 0, 55, 44
1, 366961, Control_c, 0, 64, 99
1, 366976, Control_c, 0, 64, 108
1, 366980, Note_off_c, 0, 67, 35
1, 366987, Note_off_c, 0, 71, 36
1, 366990, Control_c, 0, 64, 127
1, 367019, Note_off_c, 0, 79, 57
1, 367097, Note_off_c, 0, 55, 54
1, 367116, Control_c, 0, 64, 89
1, 367118, Note_on_c, 0, 79, 79
1, 367127, Note_on_c, 0, 67, 48
1, 367131, Control_c, 0, 64, 70
1, 367136, Note_on_c, 0, 71, 42
1, 367147, Control_c, 0, 64, 58
1, 367158, Note_on_c, 0, 62, 28
1, 367162, Control_c, 0, 64, 55
1, 367177, Control_c, 0, 64, 59
1, 367192, Control_c, 0, 64, 63
1, 367207, Control_c, 0, 64, 67
1, 367221, Control_c, 0, 64, 74
1, 367236, Control_c, 0, 64, 85
1, 367251, Control_c, 0, 64, 97
1, 367256, Note_off_c, 0, 71, 36
1, 367259, Note_off_c, 0, 62, 33
1, 367265, Note_off_c, 0, 67, 38
1, 367265, Control_c, 0, 64, 105
1, 367267, Note_on_c, 0, 55, 46
1, 367280, Control_c, 0, 64, 110
1, 367295, Control_c, 0, 64, 113
1, 367296, Note_off_c, 0, 79, 53
1, 367310, Control_c, 0, 64, 122
1, 367325, Control_c, 0, 64, 127
1, 367414, Note_on_c, 0, 79, 72
1, 367419, Note_off_c, 0, 55, 36
1, 367428, Note_on_c, 0, 67, 43
1, 367440, Note_on_c, 0, 62, 42
1, 367452, Note_on_c, 0, 71, 43
1, 367457, Note_off_c, 0, 67, 56
1, 367490, Note_off_c, 0, 71, 55
1, 367501, Note_off_c, 0, 62, 50
1, 367553, Note_on_c, 0, 55, 42
1, 367555, Note_off_c, 0, 53, 41
1, 367577, Note_off_c, 0, 79, 38
1, 367697, Note_off_c, 0, 55, 33
1, 367733, Note_on_c, 0, 52, 38
1, 367759, Note_on_c, 0, 79, 61
1, 367765, Note_on_c, 0, 72, 56
1, 367783, Control_c, 0, 64, 89
1, 367798, Control_c, 0, 64, 70
1, 367813, Control_c, 0, 64, 53
1, 367827, Control_c, 0, 64, 0
1, 367879, Control_c, 0, 64, 43
1, 367894, Control_c, 0, 64, 54
1, 367909, Control_c, 0, 64, 62
1, 367919, Note_on_c, 0, 55, 34
1, 367924, Control_c, 0, 64, 70
1, 367940, Control_c, 0, 64, 82
1, 367955, Control_c, 0, 64, 104
1, 367969, Control_c, 0, 64, 127
1, 368033, Note_off_c, 0, 55, 53
1, 368080, Note_on_c, 0, 60, 44
1, 368186, Note_off_c, 0, 60, 38
1, 368213, Note_on_c, 0, 55, 42
1, 368390, Note_off_c, 0, 79, 51
1, 368393, Note_off_c, 0, 55, 35
1, 368402, Note_on_c, 0, 78, 61
1, 368409, Note_on_c, 0, 60, 35
1, 368555, Note_on_c, 0, 55, 45
1, 368555, Note_off_c, 0, 60, 36
1, 368556, Note_on_c, 0, 79, 77
1, 368584, Note_off_c, 0, 78, 57
1, 368662, Note_off_c, 0, 55, 51
1, 368718, Note_on_c, 0, 84, 85
1, 368722, Note_on_c, 0, 60, 44
1, 368744, Note_off_c, 0, 79, 62
1, 368795, Note_off_c, 0, 52, 39
1, 368800, Note_off_c, 0, 60, 45
1, 368832, Note_on_c, 0, 55, 54
1, 368849, Note_on_c, 0, 83, 87
1, 368852, Note_off_c, 0, 55, 62
1, 368887, Note_off_c, 0, 72, 50
1, 368985, Control_c, 0, 64, 90
1, 369000, Control_c, 0, 64, 68
1, 369015, Control_c, 0, 64, 49
1, 369025, Note_off_c, 0, 84, 29
1, 369030, Control_c, 0, 64, 0
1, 369038, Note_on_c, 0, 40, 36
1, 369044, Control_c, 0, 64, 42
1, 369059, Control_c, 0, 64, 52
1, 369065, Note_on_c, 0, 81, 85
1, 369074, Control_c, 0, 64, 61
1, 369089, Control_c, 0, 64, 69
1, 369091, Note_off_c, 0, 40, 62
1, 369103, Control_c, 0, 64, 79
1, 369113, Note_off_c, 0, 83, 59
1, 369118, Control_c, 0, 64, 92
1, 369133, Control_c, 0, 64, 102
1, 369139, Note_off_c, 0, 81, 65
1, 369148, Control_c, 0, 64, 111
1, 369163, Control_c, 0, 64, 120
1, 369178, Control_c, 0, 64, 127
1, 369232, Note_on_c, 0, 62, 49
1, 369270, Note_off_c, 0, 62, 54
1, 369403, Note_on_c, 0, 52, 41
1, 369422, Control_c, 0, 64, 103
1, 369434, Note_on_c, 0, 80, 75
1, 369437, Control_c, 0, 64, 77
1, 369452, Control_c, 0, 64, 61
1, 369458, Note_on_c, 0, 71, 50
1, 369466, Control_c, 0, 64, 52
1, 369481, Control_c, 0, 64, 56
1, 369496, Control_c, 0, 64, 61
1, 369511, Control_c, 0, 64, 67
1, 369526, Control_c, 0, 64, 77
1, 369533, Note_off_c, 0, 52, 58
1, 369541, Control_c, 0, 64, 93
1, 369556, Control_c, 0, 64, 127
1, 369560, Note_off_c, 0, 71, 57
1, 369570, Note_on_c, 0, 62, 60
1, 369603, Note_off_c, 0, 80, 49
1, 369700, Note_off_c, 0, 62, 33
1, 369706, Note_on_c, 0, 52, 46
1, 369734, Control_c, 0, 64, 111
1, 369738, Note_on_c, 0, 80, 86
1, 369749, Control_c, 0, 64, 74
1, 369762, Note_on_c, 0, 71, 59
1, 369764, Control_c, 0, 64, 58
1, 369779, Control_c, 0, 64, 43
1, 369794, Control_c, 0, 64, 50
1, 369808, Control_c, 0, 64, 58
1, 369823, Control_c, 0, 64, 65
1, 369833, Note_off_c, 0, 52, 61
1, 369838, Control_c, 0, 64, 75
1, 369849, Note_off_c, 0, 71, 54
1, 369852, Control_c, 0, 64, 93
1, 369867, Control_c, 0, 64, 127
1, 369886, Note_on_c, 0, 62, 63
1, 369917, Note_off_c, 0, 80, 37
1, 369999, Note_off_c, 0, 62, 48
1, 370030, Note_on_c, 0, 53, 51
1, 370045, Note_on_c, 0, 80, 90
1, 370065, Note_on_c, 0, 71, 57
1, 370089, Note_off_c, 0, 71, 60
1, 370192, Note_on_c, 0, 62, 59
1, 370206, Note_off_c, 0, 80, 60
1, 370351, Note_off_c, 0, 62, 35
1, 370358, Note_off_c, 0, 53, 56
1, 370394, Control_c, 0, 64, 94
1, 370401, Note_on_c, 0, 54, 44
1, 370408, Control_c, 0, 64, 72
1, 370417, Note_on_c, 0, 81, 76
1, 370423, Control_c, 0, 64, 56
1, 370432, Note_on_c, 0, 69, 50
1, 370438, Control_c, 0, 64, 0
1, 370438, Control_c, 0, 67, 20
1, 370453, Control_c, 0, 67, 23
1, 370468, Control_c, 0, 67, 25
1, 370483, Control_c, 0, 64, 36
1, 370483, Control_c, 0, 67, 29
1, 370498, Control_c, 0, 64, 50
1, 370498, Control_c, 0, 67, 35
1, 370513, Control_c, 0, 64, 60
1, 370513, Control_c, 0, 67, 45
1, 370528, Control_c, 0, 64, 68
1, 370528, Control_c, 0, 67, 60
1, 370543, Control_c, 0, 64, 79
1, 370543, Control_c, 0, 67, 79
1, 370557, Control_c, 0, 64, 91
1, 370557, Control_c, 0, 67, 96
1, 370572, Control_c, 0, 64, 102
1, 370572, Control_c, 0, 67, 117
1, 370587, Control_c, 0, 64, 113
1, 370587, Control_c, 0, 67, 127
1, 370587, Note_on_c, 0, 61, 46
1, 370602, Control_c, 0, 64, 127
1, 370620, Note_off_c, 0, 54, 37
1, 370704, Note_off_c, 0, 61, 36
1, 370742, Note_on_c, 0, 57, 41
1, 370882, Note_on_c, 0, 54, 41
1, 370923, Note_off_c, 0, 57, 28
1, 370980, Note_off_c, 0, 54, 41
1, 371034, Note_on_c, 0, 50, 37
1, 371039, Control_c, 0, 64, 100
1, 371054, Control_c, 0, 64, 76
1, 371069, Control_c, 0, 64, 61
1, 371083, Control_c, 0, 64, 39
1, 371088, Note_on_c, 0, 80, 64
1, 371098, Control_c, 0, 64, 35
1, 371113, Control_c, 0, 64, 45
1, 371128, Control_c, 0, 64, 54
1, 371144, Control_c, 0, 64, 61
1, 371151, Note_off_c, 0, 81, 54
1, 371159, Control_c, 0, 64, 67
1, 371174, Control_c, 0, 64, 75
1, 371188, Control_c, 0, 64, 85
1, 371203, Control_c, 0, 64, 94
1, 371218, Note_on_c, 0, 62, 44
1, 371218, Control_c, 0, 64, 102
1, 371232, Control_c, 0, 64, 111
1, 371247, Control_c, 0, 64, 127
1, 371306, Control_c, 0, 67, 109
1, 371321, Control_c, 0, 67, 86
1, 371336, Control_c, 0, 67, 65
1, 371341, Note_off_c, 0, 62, 33
1, 371344, Note_off_c, 0, 50, 16
1, 371351, Control_c, 0, 67, 48
1, 371366, Control_c, 0, 67, 32
1, 371380, Note_on_c, 0, 78, 70
1, 371380, Control_c, 0, 67, 21
1, 371381, Note_on_c, 0, 57, 42
1, 371395, Control_c, 0, 67, 0
1, 371413, Note_off_c, 0, 80, 60
1, 371436, Note_off_c, 0, 78, 61
1, 371491, Note_off_c, 0, 69, 40
1, 371513, Note_on_c, 0, 54, 43
1, 371565, Note_off_c, 0, 57, 26
1, 371665, Note_off_c, 0, 54, 48
1, 371684, Control_c, 0, 64, 99
1, 371697, Note_on_c, 0, 52, 40
1, 371699, Control_c, 0, 64, 76
1, 371714, Control_c, 0, 64, 60
1, 371716, Note_on_c, 0, 76, 51
1, 371729, Control_c, 0, 64, 0
1, 371773, Control_c, 0, 64, 40
1, 371788, Control_c, 0, 64, 52
1, 371803, Control_c, 0, 64, 62
1, 371818, Control_c, 0, 64, 69
1, 371832, Control_c, 0, 64, 78
1, 371847, Control_c, 0, 64, 89
1, 371855, Note_on_c, 0, 64, 52
1, 371862, Control_c, 0, 64, 95
1, 371877, Control_c, 0, 64, 100
1, 371892, Control_c, 0, 64, 105
1, 371906, Control_c, 0, 64, 113
1, 371921, Control_c, 0, 64, 127
1, 371999, Note_on_c, 0, 69, 57
1, 372009, Note_on_c, 0, 57, 38
1, 372012, Note_on_c, 0, 61, 36
1, 372056, Note_off_c, 0, 57, 62
1, 372134, Note_on_c, 0, 73, 73
1, 372164, Note_off_c, 0, 69, 56
1, 372211, Note_off_c, 0, 61, 50
1, 372248, Control_c, 0, 64, 104
1, 372263, Control_c, 0, 64, 75
1, 372277, Note_on_c, 0, 62, 39
1, 372277, Control_c, 0, 64, 55
1, 372292, Note_on_c, 0, 71, 64
1, 372292, Control_c, 0, 64, 0
1, 372295, Note_off_c, 0, 64, 41
1, 372299, Note_on_c, 0, 59, 39
1, 372303, Note_off_c, 0, 73, 60
1, 372336, Control_c, 0, 64, 44
1, 372358, Control_c, 0, 64, 61
1, 372373, Control_c, 0, 64, 69
1, 372386, Note_off_c, 0, 62, 60
1, 372388, Control_c, 0, 64, 78
1, 372397, Note_off_c, 0, 52, 38
1, 372403, Control_c, 0, 64, 89
1, 372418, Control_c, 0, 64, 100
1, 372427, Note_on_c, 0, 74, 68
1, 372432, Control_c, 0, 64, 120
1, 372447, Control_c, 0, 64, 127
1, 372585, Note_on_c, 0, 56, 43
1, 372594, Note_on_c, 0, 68, 58
1, 372599, Note_on_c, 0, 64, 14
1, 372602, Note_off_c, 0, 59, 56
1, 372635, Note_off_c, 0, 56, 60
1, 372641, Note_off_c, 0, 64, 40
1, 372654, Note_off_c, 0, 76, 37
1, 372719, Note_off_c, 0, 74, 27
1, 372734, Note_on_c, 0, 76, 69
1, 372735, Note_off_c, 0, 71, 43
1, 372737, Note_off_c, 0, 68, 51
1, 372751, Note_off_c, 0, 76, 67
1, 372900, Note_on_c, 0, 40, 40
1, 372927, Note_on_c, 0, 64, 55
1, 372951, Control_c, 0, 64, 92
1, 372966, Control_c, 0, 64, 69
1, 372981, Control_c, 0, 64, 43
1, 372996, Control_c, 0, 64, 0
1, 373055, Control_c, 0, 64, 51
1, 373070, Control_c, 0, 64, 62
1, 373073, Note_on_c, 0, 52, 52
1, 373084, Control_c, 0, 64, 68
1, 373106, Control_c, 0, 64, 73
1, 373121, Control_c, 0, 64, 76
1, 373136, Control_c, 0, 64, 76
1, 373151, Control_c, 0, 64, 74
1, 373166, Control_c, 0, 64, 68
1, 373181, Control_c, 0, 64, 60
1, 373196, Control_c, 0, 64, 43
1, 373210, Control_c, 0, 64, 38
1, 373225, Control_c, 0, 64, 48
1, 373234, Note_on_c, 0, 57, 53
1, 373240, Control_c, 0, 64, 58
1, 373255, Control_c, 0, 64, 65
1, 373259, Note_off_c, 0, 52, 47
1, 373270, Control_c, 0, 64, 72
1, 373284, Control_c, 0, 64, 78
1, 373299, Control_c, 0, 64, 84
1, 373314, Control_c, 0, 64, 89
1, 373328, Control_c, 0, 64, 94
1, 373343, Control_c, 0, 64, 100
1, 373352, Note_off_c, 0, 40, 57
1, 373358, Control_c, 0, 64, 107
1, 373373, Control_c, 0, 64, 127
1, 373386, Note_on_c, 0, 61, 54
1, 373537, Control_c, 0, 64, 109
1, 373545, Note_on_c, 0, 54, 56
1, 373545, Note_off_c, 0, 57, 41
1, 373547, Note_off_c, 0, 61, 40
1, 373552, Control_c, 0, 64, 82
1, 373567, Control_c, 0, 64, 69
1, 373581, Control_c, 0, 64, 64
1, 373596, Control_c, 0, 64, 65
1, 373611, Control_c, 0, 64, 67
1, 373625, Control_c, 0, 64, 73
1, 373640, Control_c, 0, 64, 80
1, 373655, Control_c, 0, 64, 89
1, 373670, Control_c, 0, 64, 100
1, 373672, Note_off_c, 0, 54, 59
1, 373685, Control_c, 0, 64, 111
1, 373691, Note_on_c, 0, 62, 58
1, 373699, Control_c, 0, 64, 127
1, 373783, Note_off_c, 0, 64, 39
1, 373866, Note_on_c, 0, 56, 46
1, 373944, Note_off_c, 0, 56, 59
1, 373947, Note_off_c, 0, 62, 28
1, 373991, Note_on_c, 0, 64, 55
1, 374024, Note_off_c, 0, 64, 64
1, 374182, Note_on_c, 0, 64, 31
1, 374197, Control_c, 0, 64, 109
1, 374212, Control_c, 0, 64, 87
1, 374226, Control_c, 0, 64, 71
1, 374233, Note_on_c, 0, 76, 61
1, 374241, Control_c, 0, 64, 60
1, 374256, Control_c, 0, 64, 43
1, 374271, Control_c, 0, 64, 0
1, 374320, Note_off_c, 0, 76, 60
1, 374321, Note_on_c, 0, 75, 63
1, 374383, Note_off_c, 0, 75, 60
1, 374408, Note_on_c, 0, 76, 74
1, 374493, Note_on_c, 0, 70, 50
1, 374498, Note_on_c, 0, 77, 70
1, 374499, Note_on_c, 0, 73, 43
1, 374499, Note_off_c, 0, 76, 59
1, 374523, Control_c, 0, 64, 44
1, 374538, Control_c, 0, 64, 57
1, 374553, Control_c, 0, 64, 64
1, 374567, Control_c, 0, 64, 69
1, 374582, Control_c, 0, 64, 75
1, 374585, Note_on_c, 0, 78, 72
1, 374604, Control_c, 0, 64, 81
1, 374619, Control_c, 0, 64, 86
1, 374634, Control_c, 0, 64, 94
1, 374639, Note_off_c, 0, 77, 60
1, 374641, Note_off_c, 0, 70, 61
1, 374648, Control_c, 0, 64, 103
1, 374663, Control_c, 0, 64, 125
1, 374678, Control_c, 0, 64, 127
1, 374682, Note_on_c, 0, 79, 72
1, 374701, Note_off_c, 0, 78, 60
1, 374707, Note_off_c, 0, 73, 59
1, 374746, Note_off_c, 0, 79, 59
1, 374752, Control_c, 0, 64, 97
1, 374767, Control_c, 0, 64, 74
1, 374781, Control_c, 0, 64, 61
1, 374796, Note_on_c, 0, 78, 74
1, 374796, Control_c, 0, 64, 54
1, 374797, Note_on_c, 0, 74, 55
1, 374805, Note_on_c, 0, 71, 47
1, 374811, Control_c, 0, 64, 59
1, 374826, Control_c, 0, 64, 64
1, 374829, Note_off_c, 0, 64, 37
1, 374841, Control_c, 0, 64, 68
1, 374856, Control_c, 0, 64, 74
1, 374863, Note_off_c, 0, 74, 63
1, 374871, Control_c, 0, 64, 85
1, 374886, Control_c, 0, 64, 99
1, 374886, Note_on_c, 0, 80, 83
1, 374900, Control_c, 0, 64, 127
1, 374904, Note_off_c, 0, 78, 64
1, 374947, Note_off_c, 0, 80, 62
1, 374969, Note_on_c, 0, 81, 82
1, 375059, Note_on_c, 0, 82, 86
1, 375063, Note_off_c, 0, 81, 57
1, 375065, Note_on_c, 0, 68, 58
1, 375084, Note_off_c, 0, 71, 61
1, 375113, Note_off_c, 0, 68, 61
1, 375139, Poly_aftertouch_c, 0, 76, 0
1, 375146, Note_on_c, 0, 83, 93
1, 375151, Note_off_c, 0, 82, 63
1, 375238, Note_on_c, 0, 84, 89
1, 375261, Note_off_c, 0, 83, 63
1, 375332, Note_on_c, 0, 52, 42
1, 375341, Note_on_c, 0, 85, 83
1, 375386, Note_off_c, 0, 84, 61
1, 375427, Control_c, 0, 64, 95
1, 375442, Control_c, 0, 64, 82
1, 375452, Note_on_c, 0, 83, 88
1, 375457, Control_c, 0, 64, 72
1, 375471, Control_c, 0, 64, 65
1, 375486, Control_c, 0, 64, 57
1, 375501, Control_c, 0, 64, 50
1, 375502, Note_off_c, 0, 85, 59
1, 375516, Control_c, 0, 64, 48
1, 375535, Note_off_c, 0, 83, 63
1, 375536, Note_on_c, 0, 81, 87
1, 375643, Note_on_c, 0, 57, 43
1, 375643, Note_on_c, 0, 61, 50
1, 375643, Note_on_c, 0, 80, 75
1, 375654, Note_off_c, 0, 81, 56
1, 375730, Note_on_c, 0, 81, 79
1, 375738, Control_c, 0, 64, 48
1, 375750, Note_off_c, 0, 80, 58
1, 375783, Control_c, 0, 64, 47
1, 375812, Control_c, 0, 64, 47
1, 375827, Control_c, 0, 64, 46
1, 375836, Note_on_c, 0, 78, 64
1, 375842, Control_c, 0, 64, 46
1, 375857, Control_c, 0, 64, 45
1, 375859, Note_off_c, 0, 61, 57
1, 375871, Control_c, 0, 64, 43
1, 375886, Control_c, 0, 64, 42
1, 375887, Note_off_c, 0, 57, 61
1, 375901, Control_c, 0, 64, 37
1, 375909, Note_off_c, 0, 81, 53
1, 375916, Control_c, 0, 64, 35
1, 375917, Note_on_c, 0, 54, 37
1, 375927, Note_on_c, 0, 77, 59
1, 375931, Note_on_c, 0, 62, 38
1, 375932, Control_c, 0, 64, 37
1, 375936, Note_off_c, 0, 78, 59
1, 375946, Control_c, 0, 64, 46
1, 375961, Control_c, 0, 64, 55
1, 375976, Control_c, 0, 64, 62
1, 375991, Control_c, 0, 64, 69
1, 376006, Control_c, 0, 64, 79
1, 376013, Note_off_c, 0, 62, 56
1, 376020, Control_c, 0, 64, 93
1, 376022, Note_on_c, 0, 78, 62
1, 376035, Control_c, 0, 64, 104
1, 376050, Control_c, 0, 64, 118
1, 376066, Control_c, 0, 64, 127
1, 376067, Note_off_c, 0, 77, 57
1, 376113, Note_off_c, 0, 78, 62
1, 376130, Note_on_c, 0, 74, 74
1, 376209, Note_on_c, 0, 56, 43
1, 376221, Note_off_c, 0, 74, 58
1, 376232, Note_on_c, 0, 64, 34
1, 376244, Note_on_c, 0, 73, 58
1, 376271, Note_off_c, 0, 54, 33
1, 376310, Control_c, 0, 64, 108
1, 376314, Note_off_c, 0, 73, 55
1, 376325, Control_c, 0, 64, 99
1, 376331, Note_on_c, 0, 74, 67
1, 376340, Control_c, 0, 64, 92
1, 376354, Control_c, 0, 64, 86
1, 376369, Control_c, 0, 64, 80
1, 376373, Note_off_c, 0, 52, 0
1, 376384, Control_c, 0, 64, 74
1, 376399, Control_c, 0, 64, 69
1, 376410, Poly_aftertouch_c, 0, 52, 127
1, 376414, Control_c, 0, 64, 63
1, 376422, Note_on_c, 0, 71, 57
1, 376428, Control_c, 0, 64, 60
1, 376439, Note_off_c, 0, 74, 51
1, 376443, Control_c, 0, 64, 57
1, 376458, Control_c, 0, 64, 56
1, 376472, Control_c, 0, 64, 55
1, 376487, Control_c, 0, 64, 55
1, 376501, Note_off_c, 0, 71, 63
1, 376502, Control_c, 0, 64, 54
1, 376517, Control_c, 0, 64, 52
1, 376519, Note_on_c, 0, 70, 57
1, 376532, Control_c, 0, 64, 51
1, 376576, Control_c, 0, 64, 51
1, 376585, Note_off_c, 0, 70, 62
1, 376606, Control_c, 0, 64, 50
1, 376618, Note_on_c, 0, 71, 62
1, 376621, Control_c, 0, 64, 50
1, 376650, Control_c, 0, 64, 49
1, 376695, Control_c, 0, 64, 49
1, 376716, Note_off_c, 0, 71, 59
1, 376724, Note_on_c, 0, 68, 59
1, 376739, Note_off_c, 0, 64, 27
1, 376785, Control_c, 0, 64, 48
1, 376797, Note_off_c, 0, 68, 62
1, 376809, Poly_aftertouch_c, 0, 52, 0
1, 376820, Note_on_c, 0, 67, 59
1, 376829, Control_c, 0, 64, 49
1, 376887, Note_off_c, 0, 67, 58
1, 376919, Note_on_c, 0, 68, 60
1, 376920, Note_off_c, 0, 56, 37
1, 376984, Control_c, 0, 64, 49
1, 377014, Note_off_c, 0, 68, 60
1, 377026, Note_on_c, 0, 64, 56
1, 377107, Note_off_c, 0, 64, 60
1, 377121, Note_on_c, 0, 63, 58
1, 377207, Control_c, 0, 64, 50
1, 377211, Note_off_c, 0, 63, 61
1, 377234, Note_on_c, 0, 64, 55
1, 377288, Note_off_c, 0, 64, 60
1, 377312, Note_on_c, 0, 63, 50
1, 377400, Note_off_c, 0, 63, 55
1, 377408, Note_on_c, 0, 64, 56
1, 377476, Note_off_c, 0, 64, 58
1, 377494, Note_on_c, 0, 66, 57
1, 377596, Note_on_c, 0, 64, 56
1, 377618, Note_off_c, 0, 66, 48
1, 377645, Control_c, 0, 64, 49
1, 377685, Note_off_c, 0, 64, 57
1, 377711, Note_on_c, 0, 63, 42
1, 377763, Note_off_c, 0, 63, 57
1, 377792, Note_on_c, 0, 64, 40
1, 377822, Control_c, 0, 64, 49
1, 377867, Note_off_c, 0, 64, 55
1, 377884, Note_on_c, 0, 63, 51
1, 377995, Note_off_c, 0, 63, 47
1, 378002, Note_on_c, 0, 64, 44
1, 378092, Note_off_c, 0, 64, 58
1, 378105, Note_on_c, 0, 66, 53
1, 378181, Note_off_c, 0, 66, 57
1, 378205, Note_on_c, 0, 64, 43
1, 378266, Control_c, 0, 64, 49
1, 378293, Note_off_c, 0, 64, 59
1, 378314, Note_on_c, 0, 66, 53
1, 378349, Control_c, 0, 64, 50
1, 378364, Control_c, 0, 64, 51
1, 378379, Control_c, 0, 64, 52
1, 378388, Note_off_c, 0, 66, 54
1, 378394, Control_c, 0, 64, 53
1, 378409, Control_c, 0, 64, 55
1, 378423, Control_c, 0, 64, 57
1, 378426, Note_on_c, 0, 64, 39
1, 378438, Control_c, 0, 64, 58
1, 378453, Control_c, 0, 64, 60
1, 378468, Control_c, 0, 64, 63
1, 378483, Control_c, 0, 64, 66
1, 378497, Control_c, 0, 64, 71
1, 378501, Note_off_c, 0, 64, 55
1, 378512, Control_c, 0, 64, 78
1, 378522, Note_on_c, 0, 66, 48
1, 378527, Control_c, 0, 64, 84
1, 378542, Control_c, 0, 64, 90
1, 378556, Control_c, 0, 64, 98
1, 378571, Control_c, 0, 64, 111
1, 378586, Control_c, 0, 64, 127
1, 378589, Note_off_c, 0, 66, 50
1, 378633, Note_on_c, 0, 64, 42
1, 378722, Note_off_c, 0, 64, 53
1, 378736, Note_on_c, 0, 66, 51
1, 378823, Control_c, 0, 67, 20
1, 378826, Note_off_c, 0, 66, 52
1, 378838, Control_c, 0, 67, 25
1, 378848, Note_on_c, 0, 64, 47
1, 378853, Control_c, 0, 67, 32
1, 378867, Control_c, 0, 67, 40
1, 378882, Control_c, 0, 67, 48
1, 378897, Control_c, 0, 67, 56
1, 378898, Note_off_c, 0, 64, 57
1, 378912, Control_c, 0, 67, 62
1, 378927, Control_c, 0, 67, 67
1, 378941, Control_c, 0, 67, 72
1, 378956, Control_c, 0, 67, 75
1, 378971, Control_c, 0, 67, 77
1, 378986, Control_c, 0, 67, 78
1, 379030, Control_c, 0, 67, 79
1, 379045, Control_c, 0, 67, 79
1, 379048, Note_on_c, 0, 45, 39
1, 379060, Control_c, 0, 64, 106
1, 379060, Control_c, 0, 67, 80
1, 379063, Note_on_c, 0, 49, 37
1, 379070, Note_on_c, 0, 57, 38
1, 379071, Note_on_c, 0, 64, 40
1, 379074, Control_c, 0, 64, 89
1, 379074, Control_c, 0, 67, 84
1, 379097, Control_c, 0, 64, 75
1, 379097, Control_c, 0, 67, 90
1, 379112, Control_c, 0, 64, 59
1, 379112, Control_c, 0, 67, 96
1, 379128, Control_c, 0, 64, 0
1, 379128, Control_c, 0, 67, 102
1, 379142, Control_c, 0, 67, 106
1, 379157, Control_c, 0, 67, 108
1, 379187, Control_c, 0, 64, 39
1, 379202, Control_c, 0, 64, 53
1, 379217, Control_c, 0, 64, 64
1, 379232, Control_c, 0, 64, 69
1, 379246, Control_c, 0, 64, 74
1, 379261, Control_c, 0, 64, 78
1, 379261, Control_c, 0, 67, 106
1, 379276, Control_c, 0, 64, 81
1, 379290, Control_c, 0, 64, 84
1, 379305, Control_c, 0, 64, 90
1, 379320, Control_c, 0, 64, 95
1, 379335, Control_c, 0, 64, 98
1, 379350, Control_c, 0, 64, 101
1, 379350, Control_c, 0, 67, 104
1, 379364, Control_c, 0, 64, 104
1, 379379, Control_c, 0, 64, 106
1, 379399, Note_off_c, 0, 57, 35
1, 379409, Control_c, 0, 64, 109
1, 379439, Control_c, 0, 64, 111
1, 379455, Note_off_c, 0, 64, 59
1, 379483, Control_c, 0, 64, 113
1, 379646, Control_c, 0, 67, 102
1, 379849, Note_on_c, 0, 69, 32
1, 379987, Note_off_c, 0, 45, 37
1, 380012, Note_on_c, 0, 68, 47
1, 380147, Note_off_c, 0, 69, 38
1, 380168, Note_on_c, 0, 66, 54
1, 380180, Note_off_c, 0, 68, 41
1, 380296, Note_off_c, 0, 66, 52
1, 380296, Note_on_c, 0, 64, 54
1, 380350, Control_c, 0, 67, 104
1, 380369, Note_off_c, 0, 64, 59
1, 380454, Control_c, 0, 64, 101
1, 380469, Control_c, 0, 64, 87
1, 380484, Note_on_c, 0, 50, 40
1, 380484, Control_c, 0, 64, 73
1, 380484, Note_off_c, 0, 49, 42
1, 380499, Control_c, 0, 64, 58
1, 380508, Note_on_c, 0, 64, 41
1, 380513, Note_on_c, 0, 47, 24
1, 380513, Control_c, 0, 64, 45
1, 380520, Note_on_c, 0, 56, 27
1, 380528, Control_c, 0, 64, 47
1, 380543, Control_c, 0, 64, 54
1, 380558, Control_c, 0, 64, 61
1, 380573, Control_c, 0, 64, 66
1, 380594, Control_c, 0, 64, 71
1, 380609, Control_c, 0, 64, 76
1, 380619, Note_off_c, 0, 64, 63
1, 380624, Control_c, 0, 64, 80
1, 380639, Control_c, 0, 64, 83
1, 380648, Note_off_c, 0, 50, 48
1, 380654, Control_c, 0, 64, 85
1, 380665, Note_off_c, 0, 47, 42
1, 380669, Control_c, 0, 64, 87
1, 380684, Control_c, 0, 64, 90
1, 380699, Control_c, 0, 64, 93
1, 380713, Control_c, 0, 64, 96
1, 380714, Note_off_c, 0, 56, 40
1, 380729, Control_c, 0, 64, 99
1, 380773, Control_c, 0, 67, 106
1, 380803, Control_c, 0, 64, 94
1, 380818, Control_c, 0, 64, 82
1, 380833, Control_c, 0, 64, 70
1, 380833, Control_c, 0, 67, 108
1, 380833, Note_on_c, 0, 64, 49
1, 380834, Note_on_c, 0, 56, 44
1, 380843, Note_on_c, 0, 50, 29
1, 380845, Note_on_c, 0, 47, 27
1, 380848, Control_c, 0, 64, 61
1, 380862, Control_c, 0, 64, 54
1, 380877, Control_c, 0, 64, 57
1, 380877, Control_c, 0, 67, 110
1, 380892, Control_c, 0, 64, 60
1, 380907, Control_c, 0, 64, 65
1, 380907, Control_c, 0, 67, 116
1, 380922, Control_c, 0, 64, 72
1, 380922, Control_c, 0, 67, 126
1, 380937, Control_c, 0, 64, 80
1, 380951, Control_c, 0, 64, 87
1, 380966, Control_c, 0, 64, 92
1, 380970, Note_off_c, 0, 64, 60
1, 380976, Note_off_c, 0, 56, 37
1, 380981, Control_c, 0, 64, 96
1, 380990, Note_off_c, 0, 50, 37
1, 380994, Note_off_c, 0, 47, 37
1, 380996, Control_c, 0, 64, 98
1, 381011, Control_c, 0, 64, 100
1, 381025, Control_c, 0, 64, 102
1, 381040, Control_c, 0, 64, 105
1, 381055, Control_c, 0, 64, 107
1, 381069, Control_c, 0, 64, 109
1, 381129, Control_c, 0, 64, 100
1, 381143, Control_c, 0, 64, 86
1, 381158, Control_c, 0, 64, 72
1, 381166, Note_on_c, 0, 64, 38
1, 381168, Note_on_c, 0, 47, 33
1, 381173, Control_c, 0, 64, 61
1, 381181, Note_on_c, 0, 56, 34
1, 381185, Note_on_c, 0, 50, 33
1, 381188, Control_c, 0, 64, 51
1, 381203, Control_c, 0, 64, 54
1, 381217, Control_c, 0, 64, 59
1, 381232, Control_c, 0, 64, 62
1, 381247, Control_c, 0, 64, 67
1, 381262, Control_c, 0, 64, 74
1, 381277, Control_c, 0, 64, 81
1, 381292, Note_off_c, 0, 50, 49
1, 381292, Control_c, 0, 64, 87
1, 381297, Note_off_c, 0, 64, 59
1, 381307, Control_c, 0, 64, 90
1, 381312, Note_off_c, 0, 47, 37
1, 381313, Note_off_c, 0, 56, 36
1, 381322, Control_c, 0, 64, 92
1, 381344, Control_c, 0, 64, 94
1, 381359, Control_c, 0, 64, 96
1, 381374, Control_c, 0, 64, 100
1, 381389, Control_c, 0, 64, 102
1, 381418, Control_c, 0, 64, 105
1, 381463, Control_c, 0, 64, 107
1, 381495, Note_on_c, 0, 47, 33
1, 381507, Control_c, 0, 64, 109
1, 381521, Note_on_c, 0, 64, 42
1, 381524, Note_on_c, 0, 50, 31
1, 381527, Note_on_c, 0, 56, 33
1, 381553, Control_c, 0, 64, 111
1, 381600, Note_off_c, 0, 64, 59
1, 381606, Note_off_c, 0, 47, 50
1, 381621, Note_off_c, 0, 50, 47
1, 381627, Control_c, 0, 64, 113
1, 381665, Note_off_c, 0, 56, 27
1, 381671, Control_c, 0, 64, 116
1, 381686, Control_c, 0, 64, 118
1, 381715, Control_c, 0, 64, 120
1, 381924, Note_on_c, 0, 64, 37
1, 381929, Note_on_c, 0, 49, 38
1, 381936, Note_on_c, 0, 57, 33
1, 381938, Control_c, 0, 64, 117
1, 381940, Note_on_c, 0, 45, 34
1, 381953, Control_c, 0, 64, 109
1, 381967, Control_c, 0, 64, 99
1, 381982, Control_c, 0, 64, 86
1, 381997, Control_c, 0, 64, 73
1, 382011, Control_c, 0, 64, 62
1, 382026, Control_c, 0, 64, 45
1, 382041, Control_c, 0, 64, 0
1, 382108, Control_c, 0, 64, 34
1, 382123, Control_c, 0, 64, 46
1, 382138, Control_c, 0, 64, 57
1, 382153, Control_c, 0, 64, 64
1, 382167, Control_c, 0, 64, 70
1, 382182, Control_c, 0, 64, 76
1, 382197, Control_c, 0, 64, 81
1, 382204, Note_off_c, 0, 45, 40
1, 382211, Control_c, 0, 64, 83
1, 382226, Control_c, 0, 64, 86
1, 382241, Control_c, 0, 64, 89
1, 382246, Note_off_c, 0, 49, 54
1, 382256, Control_c, 0, 64, 93
1, 382269, Note_off_c, 0, 64, 56
1, 382271, Control_c, 0, 64, 98
1, 382285, Control_c, 0, 64, 104
1, 382300, Control_c, 0, 64, 115
1, 382302, Note_off_c, 0, 57, 41
1, 382316, Control_c, 0, 64, 127
1, 382612, Control_c, 0, 64, 105
1, 382627, Control_c, 0, 64, 85
1, 382640, Note_on_c, 0, 50, 33
1, 382640, Note_on_c, 0, 64, 35
1, 382642, Control_c, 0, 64, 71
1, 382654, Note_on_c, 0, 56, 23
1, 382654, Note_on_c, 0, 47, 32
1, 382657, Control_c, 0, 64, 61
1, 382672, Control_c, 0, 64, 51
1, 382687, Control_c, 0, 64, 52
1, 382702, Control_c, 0, 64, 57
1, 382716, Control_c, 0, 64, 60
1, 382731, Control_c, 0, 64, 63
1, 382746, Note_off_c, 0, 47, 56
1, 382746, Control_c, 0, 64, 68
1, 382758, Note_off_c, 0, 50, 54
1, 382761, Control_c, 0, 64, 75
1, 382776, Control_c, 0, 64, 83
1, 382790, Control_c, 0, 64, 89
1, 382800, Note_off_c, 0, 56, 35
1, 382800, Note_off_c, 0, 64, 39
1, 382804, Control_c, 0, 64, 91
1, 382819, Control_c, 0, 64, 93
1, 382841, Control_c, 0, 64, 94
1, 382856, Control_c, 0, 64, 96
1, 382871, Control_c, 0, 64, 98
1, 382901, Control_c, 0, 64, 100
1, 382970, Note_on_c, 0, 64, 37
1, 382974, Note_on_c, 0, 50, 27
1, 382975, Control_c, 0, 64, 102
1, 382982, Note_on_c, 0, 56, 29
1, 382986, Note_on_c, 0, 47, 38
1, 383036, Note_off_c, 0, 47, 60
1, 383047, Note_off_c, 0, 50, 52
1, 383048, Control_c, 0, 64, 104
1, 383095, Note_off_c, 0, 56, 35
1, 383098, Note_off_c, 0, 64, 34
1, 383346, Control_c, 0, 64, 100
1, 383354, Note_on_c, 0, 64, 38
1, 383360, Control_c, 0, 64, 94
1, 383363, Note_on_c, 0, 57, 36
1, 383365, Note_on_c, 0, 45, 39
1, 383372, Note_on_c, 0, 49, 35
1, 383375, Control_c, 0, 64, 84
1, 383390, Control_c, 0, 64, 73
1, 383405, Control_c, 0, 64, 64
1, 383420, Control_c, 0, 64, 52
1, 383435, Control_c, 0, 64, 33
1, 383450, Control_c, 0, 64, 0
1, 383509, Control_c, 0, 64, 36
1, 383524, Control_c, 0, 64, 45
1, 383538, Control_c, 0, 64, 54
1, 383554, Control_c, 0, 64, 61
1, 383569, Control_c, 0, 64, 65
1, 383591, Control_c, 0, 64, 69
1, 383606, Control_c, 0, 64, 74
1, 383620, Control_c, 0, 64, 78
1, 383635, Control_c, 0, 64, 81
1, 383650, Control_c, 0, 64, 86
1, 383655, Note_off_c, 0, 45, 41
1, 383665, Control_c, 0, 64, 90
1, 383675, Note_off_c, 0, 49, 53
1, 383679, Control_c, 0, 64, 95
1, 383693, Note_off_c, 0, 64, 53
1, 383694, Control_c, 0, 64, 102
1, 383705, Note_off_c, 0, 57, 48
1, 383709, Control_c, 0, 64, 109
1, 383724, Control_c, 0, 64, 119
1, 383739, Control_c, 0, 64, 127
1, 384022, Control_c, 0, 64, 92
1, 384036, Control_c, 0, 64, 75
1, 384051, Control_c, 0, 64, 64
1, 384066, Control_c, 0, 64, 55
1, 384067, Note_on_c, 0, 64, 36
1, 384073, Note_on_c, 0, 56, 26
1, 384080, Note_on_c, 0, 50, 36
1, 384081, Control_c, 0, 64, 52
1, 384086, Note_on_c, 0, 47, 38
1, 384095, Control_c, 0, 64, 57
1, 384110, Control_c, 0, 64, 61
1, 384125, Control_c, 0, 64, 63
1, 384140, Control_c, 0, 64, 67
1, 384142, Note_off_c, 0, 50, 57
1, 384148, Note_off_c, 0, 47, 58
1, 384154, Control_c, 0, 64, 73
1, 384169, Control_c, 0, 64, 80
1, 384184, Control_c, 0, 64, 85
1, 384199, Control_c, 0, 64, 90
1, 384210, Note_off_c, 0, 64, 37
1, 384213, Control_c, 0, 64, 94
1, 384214, Note_off_c, 0, 56, 35
1, 384228, Control_c, 0, 64, 98
1, 384243, Control_c, 0, 64, 102
1, 384258, Control_c, 0, 64, 108
1, 384273, Control_c, 0, 64, 116
1, 384288, Control_c, 0, 64, 125
1, 384302, Control_c, 0, 64, 127
1, 384467, Note_on_c, 0, 64, 38
1, 384473, Note_on_c, 0, 56, 28
1, 384481, Note_on_c, 0, 47, 32
1, 384487, Note_on_c, 0, 50, 20
1, 384503, Note_off_c, 0, 64, 49
1, 384510, Note_off_c, 0, 56, 50
1, 384515, Note_off_c, 0, 47, 51
1, 384532, Note_off_c, 0, 50, 39
1, 384592, Control_c, 0, 67, 123
1, 384606, Control_c, 0, 67, 108
1, 384621, Control_c, 0, 67, 96
1, 384636, Control_c, 0, 67, 86
1, 384651, Control_c, 0, 67, 78
1, 384666, Control_c, 0, 67, 73
1, 384681, Control_c, 0, 67, 70
1, 384695, Control_c, 0, 67, 68
1, 384711, Control_c, 0, 67, 67
1, 384770, Control_c, 0, 64, 113
1, 384785, Control_c, 0, 64, 81
1, 384785, Control_c, 0, 67, 66
1, 384800, Control_c, 0, 64, 59
1, 384800, Control_c, 0, 67, 64
1, 384815, Control_c, 0, 64, 0
1, 384815, Control_c, 0, 67, 46
1, 384829, Control_c, 0, 67, 0
1, 384859, Note_on_c, 0, 57, 109
1, 384859, Control_c, 0, 64, 53
1, 384860, Note_on_c, 0, 49, 94
1, 384864, Note_on_c, 0, 64, 93
1, 384867, Note_on_c, 0, 45, 88
1, 384874, Control_c, 0, 64, 82
1, 384889, Control_c, 0, 64, 127
1, 384893, Note_off_c, 0, 49, 61
1, 384899, Note_off_c, 0, 57, 66
1, 384906, Note_off_c, 0, 45, 60
1, 384907, Note_off_c, 0, 64, 64
1, 385230, Note_on_c, 0, 45, 106
1, 385255, Note_off_c, 0, 45, 68
1, 385584, Note_on_c, 0, 46, 103
1, 385584, Note_on_c, 0, 50, 102
1, 385608, Control_c, 0, 64, 97
1, 385623, Control_c, 0, 64, 64
1, 385638, Control_c, 0, 64, 0
1, 385697, Control_c, 0, 64, 33
1, 385712, Control_c, 0, 64, 58
1, 385726, Control_c, 0, 64, 71
1, 385741, Control_c, 0, 64, 84
1, 385756, Control_c, 0, 64, 109
1, 385771, Control_c, 0, 64, 127
1, 385786, Note_off_c, 0, 50, 51
1, 385941, Control_c, 0, 64, 85
1, 385956, Control_c, 0, 64, 63
1, 385971, Control_c, 0, 64, 0
1, 385973, Note_on_c, 0, 50, 93
1, 386000, Control_c, 0, 64, 47
1, 386015, Control_c, 0, 64, 65
1, 386030, Control_c, 0, 64, 78
1, 386045, Control_c, 0, 64, 99
1, 386059, Control_c, 0, 64, 127
1, 386248, Note_off_c, 0, 50, 53
1, 386257, Note_off_c, 0, 46, 60
1, 386282, Control_c, 0, 64, 89
1, 386297, Control_c, 0, 64, 66
1, 386300, Note_on_c, 0, 47, 100
1, 386312, Control_c, 0, 64, 0
1, 386315, Note_on_c, 0, 51, 66
1, 386353, Note_off_c, 0, 47, 63
1, 386356, Control_c, 0, 64, 40
1, 386371, Control_c, 0, 64, 62
1, 386386, Control_c, 0, 64, 75
1, 386401, Note_off_c, 0, 51, 60
1, 386401, Control_c, 0, 64, 91
1, 386413, Note_on_c, 0, 52, 75
1, 386416, Control_c, 0, 64, 110
1, 386431, Control_c, 0, 64, 127
1, 386525, Note_on_c, 0, 53, 75
1, 386530, Note_off_c, 0, 52, 60
1, 386607, Note_on_c, 0, 47, 101
1, 386628, Note_off_c, 0, 47, 72
1, 386636, Note_on_c, 0, 54, 75
1, 386671, Note_off_c, 0, 53, 59
1, 386713, Note_off_c, 0, 54, 62
1, 386720, Note_on_c, 0, 55, 84
1, 386800, Note_on_c, 0, 56, 83
1, 386808, Note_off_c, 0, 55, 61
1, 386867, Note_off_c, 0, 56, 62
1, 386907, Note_on_c, 0, 48, 87
1, 386908, Note_on_c, 0, 57, 98
1, 386911, Note_on_c, 0, 52, 89
1, 386927, Control_c, 0, 64, 100
1, 386942, Control_c, 0, 64, 74
1, 386956, Control_c, 0, 64, 55
1, 386971, Control_c, 0, 64, 0
1, 387002, Note_on_c, 0, 47, 88
1, 387006, Note_off_c, 0, 48, 65
1, 387108, Note_on_c, 0, 48, 82
1, 387119, Note_off_c, 0, 52, 57
1, 387121, Note_off_c, 0, 47, 64
1, 387193, Note_off_c, 0, 48, 62
1, 387194, Control_c, 0, 64, 40
1, 387209, Control_c, 0, 64, 59
1, 387220, Note_on_c, 0, 50, 71
1, 387224, Control_c, 0, 64, 66
1, 387239, Control_c, 0, 64, 72
1, 387240, Note_on_c, 0, 52, 72
1, 387254, Control_c, 0, 64, 80
1, 387268, Control_c, 0, 64, 89
1, 387280, Note_off_c, 0, 57, 61
1, 387283, Control_c, 0, 64, 102
1, 387298, Control_c, 0, 64, 127
1, 387309, Note_off_c, 0, 50, 37
1, 387319, Note_off_c, 0, 52, 59
1, 387322, Note_on_c, 0, 48, 73
1, 387386, Note_off_c, 0, 48, 57
1, 387414, Note_on_c, 0, 47, 65
1, 387483, Control_c, 0, 64, 87
1, 387498, Control_c, 0, 64, 67
1, 387511, Note_off_c, 0, 47, 60
1, 387512, Control_c, 0, 64, 48
1, 387526, Note_on_c, 0, 58, 64
1, 387527, Control_c, 0, 64, 0
1, 387528, Note_on_c, 0, 52, 60
1, 387543, Note_on_c, 0, 48, 55
1, 387556, Control_c, 0, 64, 34
1, 387571, Control_c, 0, 64, 50
1, 387586, Control_c, 0, 64, 61
1, 387601, Control_c, 0, 64, 68
1, 387616, Control_c, 0, 64, 77
1, 387630, Control_c, 0, 64, 89
1, 387635, Note_on_c, 0, 51, 74
1, 387635, Note_off_c, 0, 52, 62
1, 387636, Note_off_c, 0, 58, 61
1, 387645, Control_c, 0, 64, 101
1, 387660, Control_c, 0, 64, 118
1, 387675, Control_c, 0, 64, 127
1, 387718, Note_on_c, 0, 52, 89
1, 387720, Note_off_c, 0, 51, 59
1, 387820, Note_on_c, 0, 49, 91
1, 387826, Note_on_c, 0, 53, 90
1, 387835, Note_off_c, 0, 52, 63
1, 387850, Note_off_c, 0, 48, 62
1, 387921, Note_on_c, 0, 55, 84
1, 387933, Note_off_c, 0, 53, 62
1, 387951, Note_off_c, 0, 55, 64
1, 388002, Note_on_c, 0, 53, 86
1, 388120, Note_on_c, 0, 52, 86
1, 388121, Note_on_c, 0, 48, 75
1, 388130, Note_off_c, 0, 53, 51
1, 388139, Note_on_c, 0, 58, 77
1, 388142, Control_c, 0, 64, 101
1, 388152, Note_off_c, 0, 49, 57
1, 388157, Control_c, 0, 64, 83
1, 388168, Note_off_c, 0, 58, 52
1, 388172, Note_on_c, 0, 57, 65
1, 388172, Control_c, 0, 64, 67
1, 388187, Control_c, 0, 64, 35
1, 388201, Control_c, 0, 64, 0
1, 388206, Note_off_c, 0, 57, 0
1, 388243, Poly_aftertouch_c, 0, 57, 127
1, 388333, Note_on_c, 0, 58, 79
1, 388348, Poly_aftertouch_c, 0, 57, 0
1, 388373, Note_off_c, 0, 48, 60
1, 388415, Note_off_c, 0, 52, 58
1, 388416, Note_on_c, 0, 60, 79
1, 388449, Note_off_c, 0, 58, 62
1, 388502, Note_on_c, 0, 61, 79
1, 388593, Note_on_c, 0, 58, 76
1, 388595, Note_off_c, 0, 60, 33
1, 388626, Note_off_c, 0, 61, 60
1, 388655, Note_off_c, 0, 58, 65
1, 388681, Note_on_c, 0, 53, 105
1, 388687, Note_on_c, 0, 65, 100
1, 388689, Note_on_c, 0, 57, 93
1, 388690, Control_c, 0, 64, 46
1, 388706, Control_c, 0, 64, 70
1, 388710, Note_off_c, 0, 53, 66
1, 388721, Control_c, 0, 64, 88
1, 388728, Note_off_c, 0, 57, 66
1, 388736, Control_c, 0, 64, 127
1, 388755, Note_off_c, 0, 65, 62
1, 389052, Note_on_c, 0, 65, 101
1, 389072, Note_off_c, 0, 65, 68
1, 389385, Note_on_c, 0, 70, 108
1, 389395, Control_c, 0, 64, 87
1, 389400, Note_on_c, 0, 66, 97
1, 389409, Control_c, 0, 64, 63
1, 389424, Control_c, 0, 64, 0
1, 389483, Control_c, 0, 64, 44
1, 389499, Control_c, 0, 64, 59
1, 389514, Control_c, 0, 64, 68
1, 389529, Control_c, 0, 64, 81
1, 389544, Control_c, 0, 64, 109
1, 389559, Control_c, 0, 64, 127
1, 389592, Note_off_c, 0, 70, 50
1, 389730, Note_on_c, 0, 70, 90
1, 390020, Note_off_c, 0, 66, 59
1, 390041, Note_off_c, 0, 70, 59
1, 390050, Note_on_c, 0, 67, 76
1, 390067, Note_on_c, 0, 71, 69
1, 390070, Control_c, 0, 64, 91
1, 390085, Control_c, 0, 64, 68
1, 390099, Control_c, 0, 64, 49
1, 390114, Control_c, 0, 64, 40
1, 390129, Control_c, 0, 64, 51
1, 390144, Control_c, 0, 64, 61
1, 390151, Note_off_c, 0, 67, 54
1, 390156, Note_on_c, 0, 72, 76
1, 390158, Control_c, 0, 64, 70
1, 390170, Note_off_c, 0, 71, 61
1, 390173, Control_c, 0, 64, 87
1, 390188, Control_c, 0, 64, 127
1, 390240, Note_on_c, 0, 73, 81
1, 390270, Note_off_c, 0, 72, 62
1, 390327, Note_off_c, 0, 73, 62
1, 390334, Note_on_c, 0, 74, 99
1, 390341, Note_on_c, 0, 67, 97
1, 390380, Note_off_c, 0, 67, 66
1, 390423, Note_on_c, 0, 75, 87
1, 390440, Note_off_c, 0, 74, 60
1, 390510, Note_on_c, 0, 76, 87
1, 390570, Note_off_c, 0, 75, 50
1, 390621, Poly_aftertouch_c, 0, 65, 127
1, 390622, Note_on_c, 0, 77, 92
1, 390629, Note_on_c, 0, 68, 81
1, 390631, Note_on_c, 0, 72, 80
1, 390652, Note_off_c, 0, 76, 61
1, 390654, Poly_aftertouch_c, 0, 65, 0
1, 390670, Control_c, 0, 64, 110
1, 390685, Control_c, 0, 64, 76
1, 390699, Control_c, 0, 64, 55
1, 390711, Note_off_c, 0, 68, 64
1, 390714, Control_c, 0, 64, 0
1, 390716, Note_on_c, 0, 67, 77
1, 390792, Note_off_c, 0, 72, 61
1, 390812, Note_on_c, 0, 68, 85
1, 390825, Note_off_c, 0, 67, 60
1, 390834, Control_c, 0, 64, 34
1, 390848, Control_c, 0, 64, 54
1, 390863, Control_c, 0, 64, 64
1, 390878, Control_c, 0, 64, 68
1, 390893, Control_c, 0, 64, 72
1, 390895, Note_off_c, 0, 68, 63
1, 390907, Control_c, 0, 64, 80
1, 390919, Note_on_c, 0, 70, 69
1, 390922, Control_c, 0, 64, 93
1, 390926, Note_on_c, 0, 72, 69
1, 390937, Control_c, 0, 64, 127
1, 390986, Note_off_c, 0, 77, 62
1, 390987, Note_off_c, 0, 70, 62
1, 391001, Note_on_c, 0, 68, 73
1, 391043, Note_off_c, 0, 72, 51
1, 391049, Note_off_c, 0, 68, 58
1, 391078, Note_on_c, 0, 67, 66
1, 391182, Control_c, 0, 64, 107
1, 391197, Control_c, 0, 64, 78
1, 391201, Note_off_c, 0, 67, 60
1, 391212, Control_c, 0, 64, 62
1, 391215, Note_on_c, 0, 68, 61
1, 391218, Note_on_c, 0, 78, 75
1, 391227, Control_c, 0, 64, 41
1, 391232, Note_on_c, 0, 72, 66
1, 391242, Control_c, 0, 64, 44
1, 391257, Control_c, 0, 64, 56
1, 391272, Control_c, 0, 64, 65
1, 391286, Control_c, 0, 64, 75
1, 391301, Control_c, 0, 64, 92
1, 391316, Control_c, 0, 64, 127
1, 391319, Note_on_c, 0, 71, 78
1, 391321, Note_off_c, 0, 72, 63
1, 391339, Note_off_c, 0, 78, 58
1, 391401, Note_off_c, 0, 71, 63
1, 391402, Note_on_c, 0, 72, 86
1, 391469, Note_off_c, 0, 68, 62
1, 391492, Note_on_c, 0, 69, 90
1, 391498, Note_on_c, 0, 73, 83
1, 391522, Note_off_c, 0, 72, 60
1, 391583, Note_on_c, 0, 75, 85
1, 391589, Note_off_c, 0, 73, 63
1, 391674, Note_on_c, 0, 73, 85
1, 391704, Note_off_c, 0, 75, 59
1, 391745, Control_c, 0, 64, 97
1, 391760, Control_c, 0, 64, 70
1, 391770, Note_on_c, 0, 68, 53
1, 391770, Note_on_c, 0, 72, 72
1, 391775, Control_c, 0, 64, 54
1, 391781, Note_off_c, 0, 73, 61
1, 391787, Note_off_c, 0, 69, 50
1, 391788, Note_on_c, 0, 78, 77
1, 391790, Control_c, 0, 64, 43
1, 391805, Control_c, 0, 64, 52
1, 391827, Control_c, 0, 64, 61
1, 391842, Control_c, 0, 64, 68
1, 391857, Control_c, 0, 64, 81
1, 391872, Note_off_c, 0, 72, 60
1, 391872, Control_c, 0, 64, 127
1, 391889, Note_on_c, 0, 77, 79
1, 391895, Note_off_c, 0, 78, 59
1, 391911, Note_off_c, 0, 68, 58
1, 391975, Note_on_c, 0, 78, 81
1, 392017, Note_off_c, 0, 77, 59
1, 392058, Note_on_c, 0, 80, 87
1, 392086, Note_off_c, 0, 78, 62
1, 392101, Note_off_c, 0, 80, 64
1, 392151, Note_on_c, 0, 81, 91
1, 392243, Note_on_c, 0, 78, 84
1, 392258, Control_c, 0, 64, 80
1, 392268, Note_off_c, 0, 81, 60
1, 392273, Control_c, 0, 64, 58
1, 392288, Control_c, 0, 64, 0
1, 392315, Note_off_c, 0, 78, 64
1, 392332, Control_c, 0, 64, 41
1, 392339, Note_on_c, 0, 77, 90
1, 392345, Note_on_c, 0, 73, 92
1, 392346, Control_c, 0, 64, 65
1, 392348, Note_on_c, 0, 49, 113
1, 392361, Control_c, 0, 64, 98
1, 392376, Control_c, 0, 64, 127
1, 392377, Note_off_c, 0, 49, 67
1, 392379, Note_off_c, 0, 77, 64
1, 392390, Note_off_c, 0, 73, 61
1, 392735, Note_on_c, 0, 49, 106
1, 392763, Note_off_c, 0, 49, 66
1, 393076, Note_on_c, 0, 50, 101
1, 393078, Note_on_c, 0, 54, 109
1, 393081, Control_c, 0, 64, 103
1, 393095, Control_c, 0, 64, 69
1, 393110, Control_c, 0, 64, 0
1, 393169, Control_c, 0, 64, 47
1, 393184, Control_c, 0, 64, 64
1, 393199, Control_c, 0, 64, 74
1, 393214, Control_c, 0, 64, 88
1, 393229, Control_c, 0, 64, 109
1, 393243, Control_c, 0, 64, 127
1, 393259, Note_off_c, 0, 54, 43
1, 393428, Control_c, 0, 64, 84
1, 393443, Control_c, 0, 64, 64
1, 393446, Note_on_c, 0, 54, 86
1, 393457, Control_c, 0, 64, 41
1, 393472, Control_c, 0, 64, 48
1, 393487, Control_c, 0, 64, 60
1, 393503, Control_c, 0, 64, 69
1, 393518, Control_c, 0, 64, 83
1, 393532, Control_c, 0, 64, 110
1, 393547, Control_c, 0, 64, 127
1, 393697, Note_off_c, 0, 54, 35
1, 393769, Note_off_c, 0, 50, 58
1, 393770, Control_c, 0, 64, 81
1, 393785, Control_c, 0, 64, 62
1, 393791, Note_on_c, 0, 51, 91
1, 393799, Control_c, 0, 64, 43
1, 393805, Note_on_c, 0, 55, 76
1, 393814, Control_c, 0, 64, 49
1, 393829, Control_c, 0, 64, 60
1, 393832, Note_off_c, 0, 51, 58
1, 393844, Control_c, 0, 64, 68
1, 393859, Control_c, 0, 64, 85
1, 393873, Control_c, 0, 64, 127
1, 393903, Note_on_c, 0, 56, 74
1, 393912, Note_off_c, 0, 55, 52
1, 394012, Note_off_c, 0, 56, 59
1, 394020, Note_on_c, 0, 57, 70
1, 394130, Note_on_c, 0, 58, 73
1, 394132, Note_off_c, 0, 57, 62
1, 394133, Note_on_c, 0, 51, 60
1, 394154, Note_off_c, 0, 51, 63
1, 394229, Note_on_c, 0, 59, 74
1, 394229, Note_off_c, 0, 58, 62
1, 394302, Poly_aftertouch_c, 0, 51, 127
1, 394313, Note_on_c, 0, 60, 75
1, 394320, Note_off_c, 0, 59, 58
1, 394366, Poly_aftertouch_c, 0, 51, 0
1, 394413, Note_on_c, 0, 61, 83
1, 394417, Note_on_c, 0, 52, 95
1, 394417, Note_on_c, 0, 56, 82
1, 394449, Note_off_c, 0, 60, 54
1, 394460, Control_c, 0, 64, 94
1, 394474, Control_c, 0, 64, 70
1, 394489, Control_c, 0, 64, 50
1, 394504, Control_c, 0, 64, 0
1, 394509, Note_on_c, 0, 51, 78
1, 394512, Note_off_c, 0, 52, 64
1, 394593, Note_off_c, 0, 56, 56
1, 394610, Note_on_c, 0, 52, 76
1, 394613, Note_off_c, 0, 51, 59
1, 394707, Note_off_c, 0, 52, 61
1, 394712, Control_c, 0, 64, 45
1, 394713, Note_on_c, 0, 54, 72
1, 394725, Note_on_c, 0, 56, 64
1, 394727, Control_c, 0, 64, 60
1, 394741, Control_c, 0, 64, 66
1, 394756, Control_c, 0, 64, 73
1, 394771, Control_c, 0, 64, 82
1, 394786, Control_c, 0, 64, 92
1, 394795, Note_off_c, 0, 54, 62
1, 394801, Control_c, 0, 64, 105
1, 394807, Note_off_c, 0, 61, 55
1, 394819, Note_on_c, 0, 52, 66
1, 394822, Control_c, 0, 64, 127
1, 394863, Note_off_c, 0, 56, 50
1, 394879, Note_off_c, 0, 52, 60
1, 394893, Note_on_c, 0, 51, 60
1, 394988, Note_off_c, 0, 51, 49
1, 395001, Control_c, 0, 64, 81
1, 395003, Note_on_c, 0, 62, 65
1, 395010, Note_on_c, 0, 52, 55
1, 395016, Control_c, 0, 64, 63
1, 395030, Control_c, 0, 64, 38
1, 395036, Note_on_c, 0, 56, 60
1, 395045, Control_c, 0, 64, 0
1, 395060, Control_c, 0, 64, 52
1, 395074, Control_c, 0, 64, 63
1, 395090, Control_c, 0, 64, 72
1, 395105, Control_c, 0, 64, 84
1, 395120, Control_c, 0, 64, 98
1, 395126, Note_off_c, 0, 56, 60
1, 395128, Note_on_c, 0, 55, 80
1, 395135, Control_c, 0, 64, 108
1, 395150, Control_c, 0, 64, 119
1, 395164, Control_c, 0, 64, 127
1, 395221, Note_on_c, 0, 56, 85
1, 395242, Note_off_c, 0, 55, 58
1, 395283, Control_c, 0, 64, 95
1, 395290, Note_off_c, 0, 52, 63
1, 395297, Control_c, 0, 64, 73
1, 395299, Note_on_c, 0, 53, 97
1, 395306, Note_on_c, 0, 57, 91
1, 395311, Note_off_c, 0, 56, 61
1, 395312, Control_c, 0, 64, 58
1, 395327, Control_c, 0, 64, 51
1, 395342, Control_c, 0, 64, 57
1, 395356, Note_off_c, 0, 62, 59
1, 395357, Control_c, 0, 64, 65
1, 395371, Control_c, 0, 64, 73
1, 395386, Control_c, 0, 64, 85
1, 395400, Note_on_c, 0, 59, 77
1, 395401, Control_c, 0, 64, 98
1, 395403, Note_off_c, 0, 57, 64
1, 395416, Control_c, 0, 64, 105
1, 395431, Control_c, 0, 64, 111
1, 395445, Control_c, 0, 64, 117
1, 395460, Control_c, 0, 64, 122
1, 395474, Note_off_c, 0, 59, 60
1, 395475, Control_c, 0, 64, 127
1, 395477, Note_on_c, 0, 57, 83
1, 395568, Note_on_c, 0, 56, 70
1, 395571, Control_c, 0, 64, 111
1, 395573, Note_on_c, 0, 52, 60
1, 395586, Control_c, 0, 64, 93
1, 395597, Note_on_c, 0, 62, 82
1, 395601, Control_c, 0, 64, 75
1, 395607, Note_off_c, 0, 53, 57
1, 395615, Note_off_c, 0, 57, 61
1, 395616, Control_c, 0, 64, 60
1, 395631, Control_c, 0, 64, 0
1, 395690, Note_on_c, 0, 61, 82
1, 395690, Control_c, 0, 64, 46
1, 395693, Note_off_c, 0, 62, 64
1, 395704, Control_c, 0, 64, 62
1, 395719, Control_c, 0, 64, 70
1, 395734, Control_c, 0, 64, 79
1, 395749, Control_c, 0, 64, 92
1, 395764, Control_c, 0, 64, 100
1, 395766, Note_off_c, 0, 52, 56
1, 395779, Control_c, 0, 64, 105
1, 395782, Note_on_c, 0, 62, 82
1, 395794, Control_c, 0, 64, 112
1, 395809, Control_c, 0, 64, 127
1, 395821, Note_off_c, 0, 61, 57
1, 395868, Note_on_c, 0, 64, 78
1, 395873, Note_off_c, 0, 56, 59
1, 395912, Note_off_c, 0, 62, 60
1, 395955, Note_on_c, 0, 65, 93
1, 395976, Note_off_c, 0, 64, 61
1, 396041, Note_on_c, 0, 62, 86
1, 396061, Control_c, 0, 64, 117
1, 396064, Note_off_c, 0, 65, 63
1, 396076, Control_c, 0, 64, 83
1, 396091, Note_off_c, 0, 62, 63
1, 396091, Control_c, 0, 64, 63
1, 396106, Control_c, 0, 64, 0
1, 396146, Note_on_c, 0, 57, 101
1, 396155, Note_on_c, 0, 61, 102
1, 396180, Control_c, 0, 64, 52
1, 396194, Control_c, 0, 64, 67
1, 396209, Control_c, 0, 64, 78
1, 396224, Control_c, 0, 64, 104
1, 396236, Note_off_c, 0, 57, 56
1, 396238, Control_c, 0, 64, 127
1, 396280, Poly_aftertouch_c, 0, 60, 127
1, 396312, Poly_aftertouch_c, 0, 60, 0
1, 396344, Note_off_c, 0, 61, 58
1, 396518, Note_on_c, 0, 57, 95
1, 396536, Note_off_c, 0, 57, 69
1, 396854, Note_on_c, 0, 62, 97
1, 396855, Control_c, 0, 64, 93
1, 396857, Note_on_c, 0, 58, 88
1, 396870, Control_c, 0, 64, 68
1, 396885, Control_c, 0, 64, 47
1, 396900, Control_c, 0, 64, 0
1, 396930, Control_c, 0, 64, 52
1, 396944, Control_c, 0, 64, 64
1, 396959, Control_c, 0, 64, 75
1, 396974, Control_c, 0, 64, 97
1, 396989, Control_c, 0, 64, 127
1, 397010, Note_off_c, 0, 58, 60
1, 397099, Note_off_c, 0, 62, 57
1, 397216, Note_on_c, 0, 62, 94
1, 397261, Note_off_c, 0, 62, 63
1, 397529, Control_c, 0, 64, 94
1, 397544, Control_c, 0, 64, 69
1, 397548, Note_on_c, 0, 58, 43
1, 397553, Note_on_c, 0, 65, 51
1, 397559, Note_on_c, 0, 74, 66
1, 397559, Control_c, 0, 64, 56
1, 397573, Control_c, 0, 64, 55
1, 397588, Control_c, 0, 64, 61
1, 397603, Control_c, 0, 64, 66
1, 397618, Control_c, 0, 64, 74
1, 397633, Control_c, 0, 64, 93
1, 397642, Note_on_c, 0, 75, 75
1, 397642, Note_off_c, 0, 74, 60
1, 397648, Control_c, 0, 64, 127
1, 397670, Note_off_c, 0, 58, 53
1, 397677, Note_off_c, 0, 65, 52
1, 397722, Note_off_c, 0, 75, 62
1, 397734, Note_on_c, 0, 76, 79
1, 397823, Note_on_c, 0, 65, 85
1, 397823, Note_on_c, 0, 77, 84
1, 397832, Note_on_c, 0, 58, 69
1, 397841, Note_off_c, 0, 76, 61
1, 397862, Note_off_c, 0, 58, 65
1, 397869, Note_off_c, 0, 65, 57
1, 397913, Note_on_c, 0, 78, 85
1, 397928, Note_off_c, 0, 77, 63
1, 397973, Note_off_c, 0, 78, 67
1, 397994, Note_on_c, 0, 79, 83
1, 398032, Note_off_c, 0, 79, 63
1, 398084, Control_c, 0, 64, 98
1, 398097, Note_on_c, 0, 58, 78
1, 398099, Control_c, 0, 64, 68
1, 398107, Note_on_c, 0, 80, 100
1, 398109, Note_on_c, 0, 74, 104
1, 398114, Control_c, 0, 64, 39
1, 398129, Control_c, 0, 64, 0
1, 398144, Control_c, 0, 64, 54
1, 398158, Control_c, 0, 64, 66
1, 398173, Control_c, 0, 64, 79
1, 398188, Control_c, 0, 64, 120
1, 398203, Control_c, 0, 64, 127
1, 398204, Note_off_c, 0, 74, 52
1, 398208, Note_on_c, 0, 60, 76
1, 398234, Note_off_c, 0, 58, 58
1, 398281, Note_off_c, 0, 80, 53
1, 398301, Note_on_c, 0, 61, 81
1, 398327, Note_off_c, 0, 60, 59
1, 398380, Note_off_c, 0, 61, 62
1, 398392, Note_on_c, 0, 80, 85
1, 398396, Note_on_c, 0, 74, 78
1, 398399, Note_on_c, 0, 62, 84
1, 398421, Note_off_c, 0, 74, 68
1, 398432, Note_off_c, 0, 80, 60
1, 398484, Note_on_c, 0, 63, 77
1, 398486, Note_off_c, 0, 62, 56
1, 398617, Note_on_c, 0, 64, 66
1, 398632, Note_off_c, 0, 63, 60
1, 398641, Control_c, 0, 64, 83
1, 398655, Control_c, 0, 64, 60
1, 398670, Control_c, 0, 64, 0
1, 398682, Note_on_c, 0, 80, 78
1, 398688, Note_on_c, 0, 65, 103
1, 398694, Note_on_c, 0, 59, 83
1, 398711, Note_off_c, 0, 64, 63
1, 398715, Control_c, 0, 64, 53
1, 398730, Control_c, 0, 64, 66
1, 398745, Control_c, 0, 64, 85
1, 398760, Control_c, 0, 64, 127
1, 398773, Note_off_c, 0, 80, 58
1, 398778, Note_on_c, 0, 81, 88
1, 398785, Note_off_c, 0, 65, 57
1, 398846, Note_off_c, 0, 59, 29
1, 398854, Note_on_c, 0, 82, 88
1, 398867, Note_off_c, 0, 81, 61
1, 398933, Note_off_c, 0, 82, 56
1, 398953, Note_on_c, 0, 83, 95
1, 398973, Note_on_c, 0, 65, 96
1, 398980, Note_on_c, 0, 59, 72
1, 399009, Note_off_c, 0, 59, 66
1, 399016, Note_off_c, 0, 65, 64
1, 399045, Note_on_c, 0, 84, 90
1, 399051, Note_off_c, 0, 83, 64
1, 399132, Note_on_c, 0, 85, 84
1, 399180, Note_off_c, 0, 84, 60
1, 399219, Control_c, 0, 64, 103
1, 399222, Note_on_c, 0, 86, 95
1, 399222, Note_on_c, 0, 59, 95
1, 399231, Note_on_c, 0, 80, 92
1, 399234, Control_c, 0, 64, 64
1, 399249, Control_c, 0, 64, 0
1, 399277, Note_off_c, 0, 85, 39
1, 399279, Control_c, 0, 64, 44
1, 399294, Control_c, 0, 64, 63
1, 399317, Control_c, 0, 64, 79
1, 399332, Control_c, 0, 64, 127
1, 399339, Note_on_c, 0, 60, 70
1, 399345, Note_off_c, 0, 80, 61
1, 399366, Note_off_c, 0, 59, 60
1, 399388, Poly_aftertouch_c, 0, 81, 0
1, 399392, Note_off_c, 0, 86, 57
1, 399416, Note_on_c, 0, 61, 83
1, 399448, Note_off_c, 0, 60, 63
1, 399494, Note_off_c, 0, 61, 59
1, 399502, Note_on_c, 0, 62, 98
1, 399506, Note_on_c, 0, 86, 92
1, 399511, Note_on_c, 0, 80, 87
1, 399532, Note_off_c, 0, 80, 68
1, 399547, Note_off_c, 0, 86, 65
1, 399571, Note_off_c, 0, 62, 0
1, 399586, Note_on_c, 0, 62, 42
1, 399590, Note_on_c, 0, 64, 87
1, 399609, Note_off_c, 0, 62, 59
1, 399645, Note_off_c, 0, 64, 61
1, 399672, Note_on_c, 0, 65, 96
1, 399732, Control_c, 0, 64, 90
1, 399734, Note_off_c, 0, 65, 65
1, 399746, Control_c, 0, 64, 60
1, 399761, Control_c, 0, 64, 0
1, 399778, Note_on_c, 0, 64, 94
1, 399778, Note_on_c, 0, 86, 102
1, 399779, Note_on_c, 0, 59, 93
1, 399790, Control_c, 0, 64, 53
1, 399805, Control_c, 0, 64, 66
1, 399820, Control_c, 0, 64, 84
1, 399835, Control_c, 0, 64, 127
1, 399861, Note_off_c, 0, 64, 59
1, 399869, Note_on_c, 0, 87, 93
1, 399882, Note_off_c, 0, 86, 61
1, 399899, Note_off_c, 0, 59, 54
1, 399955, Note_on_c, 0, 88, 95
1, 399960, Note_off_c, 0, 87, 60
1, 400029, Note_on_c, 0, 64, 91
1, 400029, Note_on_c, 0, 59, 80
1, 400039, Note_on_c, 0, 89, 96
1, 400065, Note_off_c, 0, 88, 64
1, 400081, Note_off_c, 0, 64, 62
1, 400082, Note_off_c, 0, 59, 53
1, 400134, Note_on_c, 0, 90, 90
1, 400151, Note_off_c, 0, 89, 65
1, 400190, Note_off_c, 0, 90, 68
1, 400208, Note_on_c, 0, 91, 89
1, 400246, Note_off_c, 0, 91, 65
1, 400273, Control_c, 0, 64, 110
1, 400287, Control_c, 0, 64, 71
1, 400298, Note_on_c, 0, 59, 87
1, 400302, Control_c, 0, 64, 53
1, 400316, Note_on_c, 0, 86, 101
1, 400316, Note_on_c, 0, 92, 102
1, 400317, Control_c, 0, 64, 52
1, 400332, Control_c, 0, 64, 67
1, 400347, Control_c, 0, 64, 83
1, 400361, Control_c, 0, 64, 127
1, 400387, Note_off_c, 0, 86, 58
1, 400411, Note_on_c, 0, 60, 75
1, 400421, Note_off_c, 0, 92, 57
1, 400430, Note_off_c, 0, 59, 60
1, 400493, Note_on_c, 0, 61, 82
1, 400527, Note_off_c, 0, 60, 61
1, 400582, Note_on_c, 0, 92, 100
1, 400587, Note_on_c, 0, 86, 97
1, 400591, Note_on_c, 0, 62, 95
1, 400593, Note_off_c, 0, 61, 51
1, 400605, Note_off_c, 0, 86, 69
1, 400632, Note_off_c, 0, 92, 60
1, 400638, Note_off_c, 0, 62, 61
1, 400678, Note_on_c, 0, 64, 87
1, 400733, Note_off_c, 0, 64, 62
1, 400751, Poly_aftertouch_c, 0, 62, 0
1, 400768, Note_on_c, 0, 65, 91
1, 400888, Control_c, 0, 64, 84
1, 400903, Control_c, 0, 64, 56
1, 400906, Note_on_c, 0, 64, 87
1, 400912, Note_on_c, 0, 60, 78
1, 400912, Note_on_c, 0, 93, 113
1, 400918, Control_c, 0, 64, 0
1, 400926, Note_off_c, 0, 65, 60
1, 400933, Control_c, 0, 64, 47
1, 400948, Control_c, 0, 64, 67
1, 400963, Control_c, 0, 64, 94
1, 400965, Note_off_c, 0, 60, 58
1, 400969, Note_off_c, 0, 64, 56
1, 400978, Control_c, 0, 64, 127
1, 400999, Note_on_c, 0, 88, 97
1, 401034, Note_off_c, 0, 93, 59
1, 401091, Note_on_c, 0, 84, 94
1, 401148, Note_off_c, 0, 88, 62
1, 401172, Note_on_c, 0, 60, 58
1, 401177, Note_on_c, 0, 64, 57
1, 401179, Note_on_c, 0, 81, 86
1, 401181, Note_off_c, 0, 84, 64
1, 401213, Note_off_c, 0, 81, 60
1, 401270, Note_on_c, 0, 76, 87
1, 401333, Note_off_c, 0, 60, 34
1, 401350, Note_on_c, 0, 72, 80
1, 401374, Note_off_c, 0, 64, 50
1, 401386, Note_off_c, 0, 76, 61
1, 401419, Note_off_c, 0, 72, 62
1, 401437, Note_on_c, 0, 69, 72
1, 401466, Control_c, 0, 64, 101
1, 401481, Control_c, 0, 64, 75
1, 401496, Control_c, 0, 64, 57
1, 401511, Control_c, 0, 64, 0
1, 401513, Note_off_c, 0, 69, 62
1, 401519, Note_on_c, 0, 68, 67
1, 401565, Note_off_c, 0, 68, 60
1, 401610, Note_on_c, 0, 69, 51
1, 401710, Note_off_c, 0, 69, 59
1, 401716, Note_on_c, 0, 62, 35
1, 401738, Note_on_c, 0, 71, 38
1, 401739, Note_on_c, 0, 65, 36
1, 401784, Note_off_c, 0, 71, 56
1, 401815, Note_on_c, 0, 72, 45
1, 401884, Note_off_c, 0, 72, 47
1, 401898, Note_on_c, 0, 71, 51
1, 401965, Note_off_c, 0, 71, 55
1, 401988, Note_on_c, 0, 69, 43
1, 401994, Note_on_c, 0, 64, 31
1, 402005, Note_on_c, 0, 60, 32
1, 402006, Note_off_c, 0, 65, 35
1, 402053, Note_off_c, 0, 62, 30
1, 402054, Note_off_c, 0, 69, 53
1, 402092, Note_on_c, 0, 71, 42
1, 402126, Note_off_c, 0, 71, 57
1, 402179, Note_on_c, 0, 69, 37
1, 402238, Note_on_c, 0, 65, 49
1, 402241, Note_on_c, 0, 62, 40
1, 402254, Note_off_c, 0, 69, 38
1, 402260, Note_on_c, 0, 71, 42
1, 402268, Note_off_c, 0, 60, 41
1, 402295, Note_off_c, 0, 64, 13
1, 402337, Note_off_c, 0, 71, 58
1, 402358, Note_on_c, 0, 72, 49
1, 402370, Note_off_c, 0, 65, 0
1, 402370, Note_on_c, 0, 65, 23
1, 402448, Note_on_c, 0, 71, 45
1, 402469, Note_off_c, 0, 65, 36
1, 402481, Note_off_c, 0, 72, 32
1, 402492, Note_on_c, 0, 64, 42
1, 402507, Note_on_c, 0, 60, 30
1, 402513, Note_off_c, 0, 71, 58
1, 402533, Note_off_c, 0, 62, 34
1, 402536, Note_on_c, 0, 69, 51
1, 402599, Note_off_c, 0, 69, 58
1, 402607, Note_off_c, 0, 64, 0
1, 402608, Note_on_c, 0, 71, 58
1, 402631, Note_on_c, 0, 64, 20
1, 402653, Note_off_c, 0, 71, 59
1, 402698, Note_on_c, 0, 69, 55
1, 402727, Note_off_c, 0, 60, 58
1, 402770, Control_c, 0, 64, 49
1, 402773, Note_off_c, 0, 64, 51
1, 402775, Note_off_c, 0, 69, 51
1, 402785, Control_c, 0, 64, 63
1, 402787, Note_on_c, 0, 59, 39
1, 402788, Note_on_c, 0, 62, 46
1, 402799, Control_c, 0, 64, 67
1, 402814, Control_c, 0, 64, 73
1, 402818, Note_on_c, 0, 68, 43
1, 402829, Control_c, 0, 64, 83
1, 402844, Control_c, 0, 64, 99
1, 402846, Note_off_c, 0, 68, 52
1, 402859, Control_c, 0, 64, 127
1, 402860, Note_on_c, 0, 69, 51
1, 402891, Note_off_c, 0, 69, 61
1, 402915, Note_on_c, 0, 68, 72
1, 402936, Note_off_c, 0, 68, 67
1, 403008, Note_off_c, 0, 59, 39
1, 403028, Note_off_c, 0, 62, 60
1, 403037, Control_c, 0, 64, 78
1, 403045, Note_on_c, 0, 64, 78
1, 403058, Note_on_c, 0, 61, 68
1, 403059, Control_c, 0, 64, 54
1, 403073, Note_on_c, 0, 93, 112
1, 403074, Control_c, 0, 64, 44
1, 403090, Control_c, 0, 64, 64
1, 403097, Note_off_c, 0, 64, 62
1, 403100, Note_off_c, 0, 61, 60
1, 403105, Control_c, 0, 64, 78
1, 403119, Control_c, 0, 64, 127
1, 403122, Note_on_c, 0, 86, 6
1, 403163, Note_on_c, 0, 88, 89
1, 403179, Note_off_c, 0, 86, 37
1, 403180, Note_on_c, 0, 90, 59
1, 403200, Note_off_c, 0, 90, 64
1, 403207, Note_off_c, 0, 93, 57
1, 403238, Note_on_c, 0, 85, 88
1, 403288, Note_off_c, 0, 88, 62
1, 403324, Note_on_c, 0, 64, 81
1, 403324, Note_off_c, 0, 85, 63
1, 403326, Note_on_c, 0, 81, 82
1, 403327, Note_on_c, 0, 61, 72
1, 403358, Note_off_c, 0, 81, 63
1, 403420, Note_on_c, 0, 76, 82
1, 403456, Note_off_c, 0, 64, 56
1, 403499, Note_on_c, 0, 73, 82
1, 403532, Note_off_c, 0, 76, 61
1, 403548, Note_off_c, 0, 61, 36
1, 403577, Note_off_c, 0, 73, 61
1, 403588, Note_on_c, 0, 69, 71
1, 403608, Control_c, 0, 64, 113
1, 403622, Control_c, 0, 64, 73
1, 403637, Control_c, 0, 64, 50
1, 403652, Control_c, 0, 64, 0
1, 403662, Note_off_c, 0, 69, 62
1, 403666, Note_on_c, 0, 68, 71
1, 403725, Note_off_c, 0, 68, 58
1, 403753, Note_on_c, 0, 69, 62
1, 403863, Note_off_c, 0, 69, 58
1, 403866, Note_on_c, 0, 66, 31
1, 403881, Note_on_c, 0, 71, 47
1, 403893, Note_on_c, 0, 62, 16
1, 403938, Note_off_c, 0, 71, 61
1, 403965, Note_on_c, 0, 73, 51
1, 404069, Note_on_c, 0, 71, 45
1, 404081, Note_off_c, 0, 73, 36
1, 404122, Note_off_c, 0, 71, 60
1, 404125, Note_off_c, 0, 66, 35
1, 404143, Note_on_c, 0, 64, 32
1, 404149, Note_on_c, 0, 69, 45
1, 404157, Note_on_c, 0, 61, 32
1, 404170, Note_off_c, 0, 62, 33
1, 404206, Note_off_c, 0, 69, 57
1, 404247, Note_on_c, 0, 71, 47
1, 404292, Note_off_c, 0, 71, 52
1, 404328, Note_on_c, 0, 69, 50
1, 404403, Note_on_c, 0, 66, 44
1, 404411, Note_off_c, 0, 61, 43
1, 404420, Note_on_c, 0, 71, 50
1, 404431, Note_on_c, 0, 62, 39
1, 404432, Note_off_c, 0, 69, 45
1, 404436, Note_off_c, 0, 64, 38
1, 404492, Note_off_c, 0, 71, 58
1, 404510, Note_on_c, 0, 73, 57
1, 404605, Note_off_c, 0, 73, 49
1, 404608, Note_on_c, 0, 71, 45
1, 404673, Note_off_c, 0, 71, 59
1, 404683, Note_on_c, 0, 61, 35
1, 404691, Note_on_c, 0, 64, 40
1, 404693, Note_off_c, 0, 66, 47
1, 404698, Note_off_c, 0, 62, 36
1, 404701, Note_on_c, 0, 69, 46
1, 404760, Note_off_c, 0, 69, 54
1, 404793, Note_on_c, 0, 71, 54
1, 404833, Note_off_c, 0, 71, 61
1, 404875, Note_on_c, 0, 69, 59
1, 404898, Control_c, 0, 64, 41
1, 404904, Note_off_c, 0, 61, 49
1, 404913, Control_c, 0, 64, 59
1, 404921, Note_off_c, 0, 69, 51
1, 404928, Control_c, 0, 64, 66
1, 404943, Control_c, 0, 64, 72
1, 404957, Note_off_c, 0, 64, 38
1, 404957, Control_c, 0, 64, 81
1, 404963, Note_on_c, 0, 62, 54
1, 404967, Note_on_c, 0, 59, 52
1, 404969, Note_on_c, 0, 68, 64
1, 404972, Control_c, 0, 64, 93
1, 404987, Control_c, 0, 64, 119
1, 404996, Note_off_c, 0, 62, 63
1, 404999, Note_off_c, 0, 59, 65
1, 405002, Control_c, 0, 64, 127
1, 405014, Note_off_c, 0, 68, 53
1, 405048, Note_on_c, 0, 69, 49
1, 405070, Note_off_c, 0, 69, 60
1, 405106, Note_on_c, 0, 68, 65
1, 405127, Note_off_c, 0, 68, 62
1, 405195, Control_c, 0, 64, 85
1, 405202, Note_on_c, 0, 49, 87
1, 405209, Control_c, 0, 64, 60
1, 405224, Control_c, 0, 64, 54
1, 405231, Note_on_c, 0, 91, 108
1, 405239, Control_c, 0, 64, 65
1, 405254, Control_c, 0, 64, 78
1, 405269, Control_c, 0, 64, 127
1, 405289, Note_off_c, 0, 49, 56
1, 405321, Note_on_c, 0, 86, 87
1, 405352, Note_off_c, 0, 91, 62
1, 405409, Note_on_c, 0, 84, 81
1, 405425, Note_off_c, 0, 86, 62
1, 405469, Note_off_c, 0, 84, 61
1, 405488, Note_on_c, 0, 79, 71
1, 405495, Note_on_c, 0, 81, 59
1, 405498, Note_on_c, 0, 61, 80
1, 405503, Note_on_c, 0, 57, 67
1, 405509, Note_off_c, 0, 79, 68
1, 405511, Note_on_c, 0, 52, 54
1, 405517, Note_off_c, 0, 81, 60
1, 405533, Note_off_c, 0, 57, 65
1, 405535, Note_off_c, 0, 61, 49
1, 405538, Note_off_c, 0, 52, 62
1, 405576, Note_on_c, 0, 76, 83
1, 405652, Note_off_c, 0, 76, 61
1, 405660, Note_on_c, 0, 74, 85
1, 405680, Note_off_c, 0, 74, 71
1, 405750, Note_on_c, 0, 50, 98
1, 405750, Control_c, 0, 64, 99
1, 405765, Control_c, 0, 64, 66
1, 405780, Control_c, 0, 64, 0
1, 405789, Note_on_c, 0, 90, 104
1, 405810, Control_c, 0, 64, 60
1, 405825, Control_c, 0, 64, 76
1, 405839, Control_c, 0, 64, 127
1, 405870, Note_on_c, 0, 86, 83
1, 405913, Note_off_c, 0, 90, 58
1, 405934, Note_off_c, 0, 86, 61
1, 405940, Note_on_c, 0, 81, 76
1, 405972, Note_off_c, 0, 81, 61
1, 405975, Note_off_c, 0, 50, 56
1, 406030, Note_on_c, 0, 62, 84
1, 406030, Note_on_c, 0, 54, 67
1, 406051, Note_on_c, 0, 78, 80
1, 406053, Note_on_c, 0, 57, 57
1, 406067, Note_off_c, 0, 62, 62
1, 406068, Note_off_c, 0, 54, 65
1, 406075, Note_off_c, 0, 57, 63
1, 406134, Note_on_c, 0, 74, 84
1, 406154, Note_off_c, 0, 78, 62
1, 406201, Note_on_c, 0, 69, 78
1, 406212, Note_off_c, 0, 74, 59
1, 406239, Note_off_c, 0, 69, 61
1, 406307, Note_on_c, 0, 52, 97
1, 406307, Control_c, 0, 64, 90
1, 406316, Note_on_c, 0, 88, 112
1, 406322, Control_c, 0, 64, 62
1, 406337, Control_c, 0, 64, 0
1, 406367, Control_c, 0, 64, 58
1, 406381, Control_c, 0, 64, 74
1, 406396, Control_c, 0, 64, 106
1, 406411, Control_c, 0, 64, 127
1, 406412, Note_on_c, 0, 85, 83
1, 406476, Note_off_c, 0, 88, 59
1, 406498, Note_on_c, 0, 81, 89
1, 406536, Note_off_c, 0, 85, 62
1, 406543, Note_off_c, 0, 52, 56
1, 406555, Note_off_c, 0, 81, 59
1, 406578, Note_on_c, 0, 76, 83
1, 406585, Note_on_c, 0, 64, 84
1, 406591, Note_on_c, 0, 61, 74
1, 406593, Note_on_c, 0, 57, 67
1, 406605, Note_off_c, 0, 64, 71
1, 406623, Note_off_c, 0, 76, 64
1, 406623, Note_off_c, 0, 57, 65
1, 406631, Note_off_c, 0, 61, 54
1, 406669, Note_on_c, 0, 73, 79
1, 406748, Note_on_c, 0, 69, 71
1, 406755, Note_off_c, 0, 73, 62
1, 406772, Note_off_c, 0, 69, 69
1, 406850, Note_on_c, 0, 52, 102
1, 406863, Control_c, 0, 64, 75
1, 406873, Note_on_c, 0, 88, 101
1, 406878, Control_c, 0, 64, 49
1, 406893, Control_c, 0, 64, 0
1, 406907, Control_c, 0, 64, 50
1, 406922, Control_c, 0, 64, 71
1, 406937, Control_c, 0, 64, 98
1, 406952, Control_c, 0, 64, 127
1, 406963, Note_on_c, 0, 83, 93
1, 407017, Note_off_c, 0, 88, 63
1, 407049, Note_on_c, 0, 80, 91
1, 407097, Note_off_c, 0, 52, 58
1, 407110, Note_off_c, 0, 83, 62
1, 407118, Note_on_c, 0, 64, 94
1, 407121, Note_on_c, 0, 56, 75
1, 407123, Note_on_c, 0, 59, 77
1, 407136, Note_on_c, 0, 76, 83
1, 407136, Note_off_c, 0, 64, 72
1, 407139, Note_off_c, 0, 80, 64
1, 407145, Note_off_c, 0, 59, 70
1, 407166, Note_off_c, 0, 56, 61
1, 407166, Note_off_c, 0, 76, 64
1, 407229, Note_on_c, 0, 71, 86
1, 407311, Note_on_c, 0, 68, 86
1, 407330, Note_off_c, 0, 71, 61
1, 407360, Note_off_c, 0, 68, 58
1, 407397, Control_c, 0, 64, 75
1, 407412, Control_c, 0, 64, 35
1, 407421, Note_on_c, 0, 69, 94
1, 407427, Control_c, 0, 64, 0
1, 407442, Control_c, 0, 64, 53
1, 407457, Control_c, 0, 64, 68
1, 407471, Control_c, 0, 64, 94
1, 407486, Control_c, 0, 64, 127
1, 407510, Note_on_c, 0, 64, 85
1, 407573, Note_on_c, 0, 65, 38
1, 407597, Note_off_c, 0, 69, 60
1, 407598, Note_on_c, 0, 60, 94
1, 407616, Note_off_c, 0, 65, 61
1, 407676, Note_on_c, 0, 57, 94
1, 407710, Note_off_c, 0, 60, 64
1, 407729, Note_off_c, 0, 57, 65
1, 407749, Note_off_c, 0, 64, 63
1, 407762, Note_on_c, 0, 52, 91
1, 407863, Note_on_c, 0, 48, 79
1, 407881, Note_off_c, 0, 52, 61
1, 407981, Note_off_c, 0, 48, 60
1, 407990, Note_on_c, 0, 45, 67
1, 407998, Control_c, 0, 64, 95
1, 408012, Note_on_c, 0, 76, 57
1, 408013, Control_c, 0, 64, 76
1, 408014, Note_on_c, 0, 69, 47
1, 408016, Note_on_c, 0, 72, 48
1, 408027, Control_c, 0, 64, 63
1, 408042, Control_c, 0, 64, 48
1, 408049, Note_off_c, 0, 76, 63
1, 408051, Note_off_c, 0, 69, 53
1, 408054, Note_off_c, 0, 72, 63
1, 408057, Control_c, 0, 64, 0
1, 408075, Note_off_c, 0, 45, 61
1, 408096, Note_on_c, 0, 44, 65
1, 408187, Note_off_c, 0, 44, 63
1, 408200, Note_on_c, 0, 45, 66
1, 408272, Note_on_c, 0, 68, 58
1, 408275, Note_off_c, 0, 45, 62
1, 408283, Note_on_c, 0, 76, 50
1, 408300, Note_on_c, 0, 74, 47
1, 408305, Note_on_c, 0, 47, 57
1, 408313, Note_off_c, 0, 68, 62
1, 408333, Note_off_c, 0, 74, 57
1, 408338, Note_off_c, 0, 76, 59
1, 408350, Note_off_c, 0, 47, 64
1, 408382, Note_on_c, 0, 48, 66
1, 408466, Note_off_c, 0, 48, 63
1, 408476, Note_on_c, 0, 47, 63
1, 408555, Note_off_c, 0, 47, 63
1, 408567, Note_on_c, 0, 69, 60
1, 408570, Note_on_c, 0, 76, 61
1, 408576, Note_on_c, 0, 45, 64
1, 408579, Note_on_c, 0, 72, 52
1, 408600, Note_off_c, 0, 69, 65
1, 408606, Note_off_c, 0, 72, 62
1, 408608, Note_off_c, 0, 76, 60
1, 408634, Note_off_c, 0, 45, 61
1, 408650, Note_on_c, 0, 44, 70
1, 408741, Note_on_c, 0, 45, 84
1, 408745, Note_off_c, 0, 44, 62
1, 408825, Note_on_c, 0, 68, 76
1, 408829, Note_on_c, 0, 47, 82
1, 408832, Note_on_c, 0, 76, 74
1, 408836, Note_on_c, 0, 74, 72
1, 408836, Note_off_c, 0, 45, 62
1, 408850, Note_off_c, 0, 68, 64
1, 408876, Note_off_c, 0, 74, 57
1, 408889, Note_off_c, 0, 47, 65
1, 408889, Note_off_c, 0, 76, 60
1, 408910, Note_on_c, 0, 48, 82
1, 408985, Note_on_c, 0, 47, 95
1, 409002, Note_off_c, 0, 48, 63
1, 409089, Note_on_c, 0, 45, 90
1, 409095, Note_off_c, 0, 47, 64
1, 409111, Note_on_c, 0, 76, 91
1, 409115, Note_on_c, 0, 69, 80
1, 409121, Note_on_c, 0, 72, 74
1, 409139, Note_off_c, 0, 69, 64
1, 409145, Note_off_c, 0, 72, 68
1, 409167, Note_off_c, 0, 76, 64
1, 409187, Note_on_c, 0, 47, 92
1, 409190, Note_off_c, 0, 45, 64
1, 409273, Note_on_c, 0, 45, 91
1, 409291, Note_off_c, 0, 47, 63
1, 409366, Note_on_c, 0, 43, 88
1, 409369, Note_on_c, 0, 70, 86
1, 409371, Note_on_c, 0, 76, 85
1, 409375, Note_off_c, 0, 45, 64
1, 409376, Note_on_c, 0, 72, 73
1, 409398, Note_off_c, 0, 72, 69
1, 409400, Note_off_c, 0, 70, 53
1, 409425, Note_off_c, 0, 76, 63
1, 409453, Note_on_c, 0, 45, 89
1, 409457, Note_off_c, 0, 43, 63
1, 409542, Note_on_c, 0, 43, 75
1, 409556, Note_off_c, 0, 45, 61
1, 409649, Note_off_c, 0, 43, 62
1, 409658, Note_on_c, 0, 41, 71
1, 409659, Control_c, 0, 64, 49
1, 409673, Control_c, 0, 64, 64
1, 409676, Note_on_c, 0, 77, 76
1, 409681, Note_on_c, 0, 69, 69
1, 409685, Note_on_c, 0, 72, 65
1, 409688, Control_c, 0, 64, 74
1, 409703, Control_c, 0, 64, 92
1, 409718, Control_c, 0, 64, 127
1, 409758, Note_off_c, 0, 69, 60
1, 409762, Note_on_c, 0, 45, 86
1, 409780, Note_off_c, 0, 41, 58
1, 409854, Note_on_c, 0, 48, 87
1, 409861, Note_off_c, 0, 45, 63
1, 409870, Note_off_c, 0, 72, 60
1, 409875, Note_off_c, 0, 77, 62
1, 409922, Note_off_c, 0, 48, 63
1, 409939, Note_on_c, 0, 53, 85
1, 409999, Note_off_c, 0, 53, 59
1, 410027, Note_on_c, 0, 57, 92
1, 410129, Note_on_c, 0, 60, 84
1, 410146, Note_off_c, 0, 57, 62
1, 410212, Note_off_c, 0, 60, 64
1, 410238, Note_on_c, 0, 65, 75
1, 410248, Note_on_c, 0, 84, 70
1, 410251, Note_on_c, 0, 81, 64
1, 410257, Note_on_c, 0, 77, 56
1, 410258, Control_c, 0, 64, 110
1, 410275, Control_c, 0, 64, 88
1, 410286, Note_off_c, 0, 81, 65
1, 410289, Control_c, 0, 64, 73
1, 410292, Note_off_c, 0, 77, 57
1, 410302, Note_off_c, 0, 84, 54
1, 410304, Control_c, 0, 64, 60
1, 410319, Control_c, 0, 64, 42
1, 410334, Control_c, 0, 64, 0
1, 410338, Note_on_c, 0, 67, 81
1, 410342, Note_off_c, 0, 65, 65
1, 410409, Note_on_c, 0, 65, 75
1, 410417, Note_off_c, 0, 67, 61
1, 410511, Note_on_c, 0, 64, 70
1, 410514, Note_off_c, 0, 65, 60
1, 410522, Note_on_c, 0, 79, 69
1, 410522, Note_on_c, 0, 84, 74
1, 410547, Note_on_c, 0, 82, 51
1, 410557, Note_off_c, 0, 79, 65
1, 410570, Note_off_c, 0, 82, 61
1, 410576, Note_off_c, 0, 84, 55
1, 410602, Note_off_c, 0, 64, 63
1, 410612, Note_on_c, 0, 62, 70
1, 410701, Note_off_c, 0, 62, 62
1, 410703, Note_on_c, 0, 64, 73
1, 410788, Note_off_c, 0, 64, 61
1, 410794, Note_on_c, 0, 65, 85
1, 410795, Note_on_c, 0, 84, 86
1, 410810, Note_on_c, 0, 81, 72
1, 410815, Note_on_c, 0, 77, 51
1, 410836, Note_off_c, 0, 81, 68
1, 410838, Note_off_c, 0, 77, 61
1, 410850, Note_off_c, 0, 65, 65
1, 410853, Note_off_c, 0, 84, 60
1, 410880, Note_on_c, 0, 67, 88
1, 410964, Note_on_c, 0, 65, 96
1, 410982, Note_off_c, 0, 67, 63
1, 411058, Note_on_c, 0, 64, 83
1, 411071, Note_on_c, 0, 84, 94
1, 411072, Note_on_c, 0, 79, 91
1, 411083, Note_on_c, 0, 82, 74
1, 411083, Note_off_c, 0, 65, 62
1, 411093, Note_off_c, 0, 79, 67
1, 411110, Note_off_c, 0, 82, 63
1, 411119, Note_off_c, 0, 84, 64
1, 411152, Note_on_c, 0, 62, 86
1, 411159, Note_off_c, 0, 64, 60
1, 411246, Note_on_c, 0, 64, 85
1, 411289, Note_off_c, 0, 62, 60
1, 411348, Note_on_c, 0, 84, 110
1, 411351, Note_on_c, 0, 65, 93
1, 411354, Note_on_c, 0, 77, 86
1, 411355, Note_on_c, 0, 81, 85
1, 411363, Note_off_c, 0, 64, 62
1, 411372, Note_off_c, 0, 77, 72
1, 411375, Note_off_c, 0, 81, 69
1, 411396, Note_off_c, 0, 84, 64
1, 411412, Note_off_c, 0, 65, 60
1, 411430, Note_on_c, 0, 67, 91
1, 411521, Note_on_c, 0, 65, 94
1, 411540, Note_off_c, 0, 67, 64
1, 411616, Note_on_c, 0, 84, 113
1, 411617, Note_on_c, 0, 64, 84
1, 411620, Note_on_c, 0, 81, 98
1, 411625, Note_off_c, 0, 65, 65
1, 411638, Note_off_c, 0, 81, 70
1, 411658, Note_off_c, 0, 84, 63
1, 411667, Note_off_c, 0, 64, 64
1, 411701, Note_on_c, 0, 65, 90
1, 411792, Note_on_c, 0, 64, 84
1, 411797, Note_off_c, 0, 65, 65
1, 411891, Note_on_c, 0, 63, 88
1, 411897, Note_off_c, 0, 64, 64
1, 411906, Note_on_c, 0, 84, 109
1, 411920, Control_c, 0, 64, 53
1, 411935, Control_c, 0, 64, 85
1, 411950, Control_c, 0, 64, 127
1, 411952, Note_off_c, 0, 63, 65
1, 411990, Note_on_c, 0, 81, 90
1, 412083, Note_on_c, 0, 78, 87
1, 412087, Note_off_c, 0, 84, 60
1, 412096, Note_on_c, 0, 80, 54
1, 412117, Note_off_c, 0, 81, 59
1, 412122, Note_off_c, 0, 80, 63
1, 412161, Note_on_c, 0, 72, 78
1, 412161, Note_off_c, 0, 78, 65
1, 412187, Note_off_c, 0, 72, 65
1, 412247, Note_on_c, 0, 69, 77
1, 412322, Note_on_c, 0, 66, 80
1, 412325, Note_off_c, 0, 69, 62
1, 412344, Note_off_c, 0, 66, 69
1, 412431, Control_c, 0, 64, 92
1, 412438, Note_on_c, 0, 51, 94
1, 412445, Control_c, 0, 64, 63
1, 412460, Control_c, 0, 64, 35
1, 412463, Note_on_c, 0, 95, 101
1, 412471, Note_on_c, 0, 93, 79
1, 412475, Control_c, 0, 64, 50
1, 412490, Control_c, 0, 64, 65
1, 412497, Note_off_c, 0, 93, 0
1, 412497, Note_on_c, 0, 93, 58
1, 412505, Control_c, 0, 64, 78
1, 412520, Control_c, 0, 64, 127
1, 412543, Note_off_c, 0, 95, 65
1, 412547, Poly_aftertouch_c, 0, 52, 0
1, 412563, Note_on_c, 0, 92, 32
1, 412592, Note_off_c, 0, 93, 60
1, 412594, Note_off_c, 0, 92, 32
1, 412599, Note_off_c, 0, 51, 54
1, 412600, Note_on_c, 0, 54, 80
1, 412608, Note_on_c, 0, 81, 100
1, 412656, Note_off_c, 0, 54, 60
1, 412660, Note_off_c, 0, 81, 67
1, 412736, Note_on_c, 0, 54, 84
1, 412740, Note_on_c, 0, 84, 106
1, 412743, Control_c, 0, 64, 94
1, 412755, Note_on_c, 0, 81, 91
1, 412758, Control_c, 0, 64, 63
1, 412773, Control_c, 0, 64, 0
1, 412824, Control_c, 0, 64, 58
1, 412839, Control_c, 0, 64, 74
1, 412850, Note_off_c, 0, 81, 63
1, 412851, Note_off_c, 0, 54, 63
1, 412854, Control_c, 0, 64, 96
1, 412868, Control_c, 0, 64, 127
1, 412874, Note_on_c, 0, 66, 100
1, 412874, Note_off_c, 0, 84, 59
1, 412880, Note_on_c, 0, 72, 97
1, 412894, Note_off_c, 0, 66, 70
1, 412966, Note_off_c, 0, 72, 60
1, 413003, Control_c, 0, 64, 74
1, 413013, Note_on_c, 0, 84, 105
1, 413017, Control_c, 0, 64, 34
1, 413032, Control_c, 0, 64, 0
1, 413061, Control_c, 0, 64, 47
1, 413076, Control_c, 0, 64, 71
1, 413091, Control_c, 0, 64, 127
1, 413093, Note_on_c, 0, 81, 97
1, 413131, Note_off_c, 0, 84, 61
1, 413169, Note_on_c, 0, 76, 89
1, 413210, Note_off_c, 0, 81, 63
1, 413242, Note_off_c, 0, 76, 66
1, 413243, Note_on_c, 0, 72, 80
1, 413267, Note_off_c, 0, 72, 63
1, 413321, Note_on_c, 0, 69, 82
1, 413395, Note_on_c, 0, 64, 74
1, 413413, Note_off_c, 0, 69, 63
1, 413419, Note_off_c, 0, 64, 69
1, 413516, Note_on_c, 0, 51, 86
1, 413542, Note_on_c, 0, 93, 105
1, 413544, Control_c, 0, 64, 71
1, 413559, Control_c, 0, 64, 42
1, 413566, Note_on_c, 0, 91, 46
1, 413566, Note_off_c, 0, 91, 127
1, 413573, Control_c, 0, 64, 0
1, 413588, Control_c, 0, 64, 48
1, 413603, Control_c, 0, 64, 65
1, 413618, Control_c, 0, 64, 83
1, 413631, Note_off_c, 0, 51, 59
1, 413633, Control_c, 0, 64, 127
1, 413679, Note_on_c, 0, 52, 80
1, 413682, Note_on_c, 0, 81, 107
1, 413693, Note_off_c, 0, 93, 60
1, 413703, Note_on_c, 0, 91, 36
1, 413738, Note_off_c, 0, 91, 47
1, 413748, Note_off_c, 0, 52, 59
1, 413748, Note_off_c, 0, 81, 66
1, 413818, Note_on_c, 0, 52, 89
1, 413822, Note_on_c, 0, 84, 106
1, 413825, Control_c, 0, 64, 73
1, 413834, Note_on_c, 0, 81, 93
1, 413840, Control_c, 0, 64, 40
1, 413855, Control_c, 0, 64, 0
1, 413870, Control_c, 0, 64, 45
1, 413884, Control_c, 0, 64, 68
1, 413899, Control_c, 0, 64, 93
1, 413912, Note_off_c, 0, 81, 59
1, 413913, Note_off_c, 0, 52, 62
1, 413914, Control_c, 0, 64, 127
1, 413932, Note_on_c, 0, 64, 100
1, 413942, Note_on_c, 0, 72, 99
1, 413943, Note_off_c, 0, 84, 58
1, 413961, Note_off_c, 0, 64, 65
1, 414027, Poly_aftertouch_c, 0, 79, 127
1, 414040, Note_off_c, 0, 72, 59
1, 414063, Poly_aftertouch_c, 0, 79, 0
1, 414089, Note_on_c, 0, 84, 101
1, 414106, Control_c, 0, 64, 73
1, 414121, Control_c, 0, 64, 40
1, 414136, Control_c, 0, 64, 0
1, 414163, Note_on_c, 0, 81, 94
1, 414165, Control_c, 0, 64, 57
1, 414180, Control_c, 0, 64, 74
1, 414195, Control_c, 0, 64, 99
1, 414199, Note_off_c, 0, 84, 62
1, 414210, Control_c, 0, 64, 127
1, 414234, Note_on_c, 0, 74, 91
1, 414239, Note_off_c, 0, 81, 60
1, 414274, Note_off_c, 0, 74, 61
1, 414327, Note_on_c, 0, 74, 82
1, 414404, Note_on_c, 0, 72, 85
1, 414409, Note_off_c, 0, 74, 64
1, 414462, Note_off_c, 0, 72, 65
1, 414474, Note_on_c, 0, 69, 69
1, 414500, Note_off_c, 0, 69, 68
1, 414687, Note_on_c, 0, 52, 37
1, 414693, Control_c, 0, 64, 105
1, 414708, Control_c, 0, 64, 76
1, 414718, Note_on_c, 0, 93, 65
1, 414723, Control_c, 0, 64, 58
1, 414737, Control_c, 0, 64, 0
1, 414767, Control_c, 0, 64, 33
1, 414782, Control_c, 0, 64, 52
1, 414797, Control_c, 0, 64, 64
1, 414812, Control_c, 0, 64, 74
1, 414827, Control_c, 0, 64, 88
1, 414841, Control_c, 0, 64, 111
1, 414845, Note_off_c, 0, 93, 64
1, 414856, Control_c, 0, 64, 127
1, 414883, Note_on_c, 0, 81, 64
1, 414885, Note_on_c, 0, 53, 49
1, 414892, Note_off_c, 0, 52, 39
1, 414921, Note_off_c, 0, 53, 63
1, 414928, Note_off_c, 0, 81, 52
1, 415019, Control_c, 0, 64, 85
1, 415040, Note_on_c, 0, 53, 49
1, 415041, Control_c, 0, 64, 66
1, 415045, Note_on_c, 0, 86, 68
1, 415053, Note_on_c, 0, 81, 53
1, 415056, Control_c, 0, 64, 51
1, 415063, Note_on_c, 0, 84, 59
1, 415071, Control_c, 0, 64, 52
1, 415086, Control_c, 0, 64, 62
1, 415100, Note_off_c, 0, 81, 58
1, 415101, Control_c, 0, 64, 69
1, 415116, Control_c, 0, 64, 79
1, 415131, Control_c, 0, 64, 95
1, 415137, Note_off_c, 0, 86, 59
1, 415146, Control_c, 0, 64, 122
1, 415161, Control_c, 0, 64, 127
1, 415166, Note_on_c, 0, 74, 69
1, 415169, Note_off_c, 0, 53, 35
1, 415185, Note_off_c, 0, 74, 65
1, 415188, Note_on_c, 0, 65, 63
1, 415208, Note_off_c, 0, 84, 62
1, 415209, Note_off_c, 0, 65, 64
1, 415309, Control_c, 0, 64, 111
1, 415324, Control_c, 0, 64, 78
1, 415328, Note_on_c, 0, 93, 87
1, 415338, Control_c, 0, 64, 60
1, 415342, Note_on_c, 0, 52, 47
1, 415353, Control_c, 0, 64, 36
1, 415368, Control_c, 0, 64, 38
1, 415383, Control_c, 0, 64, 55
1, 415397, Control_c, 0, 64, 65
1, 415412, Control_c, 0, 64, 75
1, 415427, Control_c, 0, 64, 90
1, 415442, Control_c, 0, 64, 119
1, 415444, Note_off_c, 0, 93, 64
1, 415456, Note_off_c, 0, 52, 61
1, 415457, Control_c, 0, 64, 127
1, 415471, Note_on_c, 0, 81, 79
1, 415471, Note_on_c, 0, 53, 62
1, 415506, Note_off_c, 0, 53, 63
1, 415533, Note_off_c, 0, 81, 61
1, 415605, Control_c, 0, 64, 93
1, 415613, Note_on_c, 0, 86, 93
1, 415615, Note_on_c, 0, 53, 76
1, 415620, Control_c, 0, 64, 69
1, 415627, Note_on_c, 0, 84, 83
1, 415629, Note_on_c, 0, 81, 83
1, 415635, Control_c, 0, 64, 51
1, 415650, Control_c, 0, 64, 44
1, 415664, Control_c, 0, 64, 55
1, 415679, Control_c, 0, 64, 66
1, 415687, Note_off_c, 0, 81, 55
1, 415694, Control_c, 0, 64, 76
1, 415709, Control_c, 0, 64, 94
1, 415724, Note_off_c, 0, 53, 62
1, 415724, Control_c, 0, 64, 127
1, 415738, Note_on_c, 0, 74, 87
1, 415741, Note_on_c, 0, 65, 81
1, 415745, Note_off_c, 0, 86, 42
1, 415759, Note_off_c, 0, 74, 66
1, 415767, Note_off_c, 0, 65, 66
1, 415787, Note_off_c, 0, 84, 63
1, 415893, Control_c, 0, 64, 109
1, 415900, Note_on_c, 0, 53, 82
1, 415902, Note_on_c, 0, 93, 103
1, 415908, Control_c, 0, 64, 75
1, 415923, Control_c, 0, 64, 57
1, 415938, Control_c, 0, 64, 33
1, 415953, Control_c, 0, 64, 44
1, 415967, Control_c, 0, 64, 58
1, 415982, Control_c, 0, 64, 69
1, 415997, Control_c, 0, 64, 84
1, 416011, Control_c, 0, 64, 127
1, 416028, Note_off_c, 0, 53, 62
1, 416031, Note_off_c, 0, 93, 64
1, 416034, Note_on_c, 0, 54, 79
1, 416041, Note_on_c, 0, 81, 98
1, 416093, Note_off_c, 0, 54, 61
1, 416102, Note_off_c, 0, 81, 65
1, 416174, Control_c, 0, 64, 82
1, 416176, Note_on_c, 0, 54, 92
1, 416182, Note_on_c, 0, 86, 108
1, 416189, Note_on_c, 0, 84, 99
1, 416189, Note_on_c, 0, 81, 103
1, 416189, Control_c, 0, 64, 63
1, 416204, Control_c, 0, 64, 49
1, 416219, Control_c, 0, 64, 57
1, 416234, Control_c, 0, 64, 64
1, 416246, Note_off_c, 0, 81, 63
1, 416249, Control_c, 0, 64, 72
1, 416264, Control_c, 0, 64, 96
1, 416279, Control_c, 0, 64, 127
1, 416282, Note_off_c, 0, 54, 62
1, 416297, Note_on_c, 0, 74, 95
1, 416306, Note_on_c, 0, 66, 90
1, 416311, Note_off_c, 0, 86, 42
1, 416320, Note_off_c, 0, 74, 64
1, 416341, Note_off_c, 0, 84, 64
1, 416344, Note_off_c, 0, 66, 54
1, 416452, Note_on_c, 0, 54, 81
1, 416452, Note_on_c, 0, 95, 108
1, 416456, Control_c, 0, 64, 120
1, 416471, Control_c, 0, 64, 70
1, 416485, Control_c, 0, 64, 47
1, 416500, Control_c, 0, 64, 36
1, 416515, Control_c, 0, 64, 56
1, 416538, Control_c, 0, 64, 67
1, 416553, Control_c, 0, 64, 87
1, 416567, Control_c, 0, 64, 127
1, 416574, Note_off_c, 0, 54, 59
1, 416584, Note_on_c, 0, 55, 78
1, 416589, Note_off_c, 0, 95, 61
1, 416592, Note_on_c, 0, 83, 108
1, 416639, Note_off_c, 0, 55, 62
1, 416651, Note_off_c, 0, 83, 65
1, 416681, Poly_aftertouch_c, 0, 93, 127
1, 416696, Poly_aftertouch_c, 0, 93, 0
1, 416716, Control_c, 0, 64, 119
1, 416731, Control_c, 0, 64, 75
1, 416735, Note_on_c, 0, 55, 95
1, 416735, Note_on_c, 0, 86, 106
1, 416744, Note_on_c, 0, 79, 94
1, 416746, Note_on_c, 0, 83, 84
1, 416746, Control_c, 0, 64, 57
1, 416761, Control_c, 0, 64, 47
1, 416776, Control_c, 0, 64, 60
1, 416787, Note_off_c, 0, 79, 65
1, 416790, Control_c, 0, 64, 69
1, 416805, Control_c, 0, 64, 88
1, 416820, Control_c, 0, 64, 127
1, 416827, Note_off_c, 0, 55, 62
1, 416836, Note_off_c, 0, 86, 62
1, 416847, Note_on_c, 0, 74, 105
1, 416856, Note_on_c, 0, 67, 87
1, 416874, Note_off_c, 0, 67, 73
1, 416874, Note_off_c, 0, 74, 63
1, 416881, Note_off_c, 0, 83, 62
1, 416961, Poly_aftertouch_c, 0, 82, 0
1, 417000, Note_on_c, 0, 92, 104
1, 417012, Control_c, 0, 64, 102
1, 417014, Note_on_c, 0, 51, 76
1, 417027, Control_c, 0, 64, 71
1, 417042, Control_c, 0, 64, 54
1, 417050, Note_on_c, 0, 93, 37
1, 417057, Control_c, 0, 64, 55
1, 417072, Control_c, 0, 64, 68
1, 417081, Note_off_c, 0, 93, 54
1, 417086, Control_c, 0, 64, 85
1, 417095, Note_off_c, 0, 51, 62
1, 417101, Control_c, 0, 64, 127
1, 417120, Note_off_c, 0, 92, 57
1, 417134, Note_on_c, 0, 80, 101
1, 417137, Note_on_c, 0, 52, 84
1, 417185, Note_off_c, 0, 80, 65
1, 417203, Note_off_c, 0, 52, 61
1, 417265, Control_c, 0, 64, 82
1, 417272, Note_on_c, 0, 52, 99
1, 417284, Note_on_c, 0, 88, 105
1, 417287, Control_c, 0, 64, 60
1, 417290, Note_on_c, 0, 80, 93
1, 417292, Note_on_c, 0, 83, 89
1, 417302, Control_c, 0, 64, 36
1, 417316, Control_c, 0, 64, 50
1, 417331, Control_c, 0, 64, 64
1, 417337, Note_on_c, 0, 84, 16
1, 417337, Note_off_c, 0, 84, 127
1, 417346, Control_c, 0, 64, 81
1, 417361, Control_c, 0, 64, 127
1, 417370, Note_off_c, 0, 80, 63
1, 417380, Note_off_c, 0, 52, 61
1, 417389, Poly_aftertouch_c, 0, 84, 0
1, 417401, Note_on_c, 0, 76, 95
1, 417403, Note_on_c, 0, 64, 92
1, 417423, Note_off_c, 0, 64, 69
1, 417431, Note_off_c, 0, 88, 61
1, 417433, Note_off_c, 0, 83, 62
1, 417435, Note_off_c, 0, 76, 61
1, 417545, Note_on_c, 0, 47, 95
1, 417548, Note_on_c, 0, 93, 109
1, 417569, Control_c, 0, 64, 68
1, 417579, Note_on_c, 0, 92, 58
1, 417584, Control_c, 0, 64, 40
1, 417599, Control_c, 0, 64, 41
1, 417614, Control_c, 0, 64, 61
1, 417618, Note_off_c, 0, 92, 0
1, 417618, Note_on_c, 0, 92, 49
1, 417629, Control_c, 0, 64, 76
1, 417644, Control_c, 0, 64, 127
1, 417651, Note_off_c, 0, 47, 0
1, 417666, Note_on_c, 0, 48, 89
1, 417677, Note_on_c, 0, 81, 103
1, 417684, Note_off_c, 0, 93, 61
1, 417687, Note_off_c, 0, 92, 63
1, 417695, Poly_aftertouch_c, 0, 47, 0
1, 417698, Note_on_c, 0, 83, 46
1, 417703, Note_on_c, 0, 91, 55
1, 417714, Note_off_c, 0, 48, 63
1, 417720, Note_off_c, 0, 83, 61
1, 417723, Note_off_c, 0, 81, 64
1, 417724, Note_off_c, 0, 91, 59
1, 417742, Poly_aftertouch_c, 0, 47, 0
1, 417806, Control_c, 0, 64, 79
1, 417808, Note_on_c, 0, 48, 95
1, 417811, Note_on_c, 0, 88, 110
1, 417815, Note_on_c, 0, 81, 105
1, 417818, Note_on_c, 0, 84, 101
1, 417821, Control_c, 0, 64, 62
1, 417836, Control_c, 0, 64, 59
1, 417850, Control_c, 0, 64, 67
1, 417865, Control_c, 0, 64, 84
1, 417880, Control_c, 0, 64, 127
1, 417891, Note_off_c, 0, 81, 59
1, 417895, Poly_aftertouch_c, 0, 49, 127
1, 417903, Note_off_c, 0, 48, 63
1, 417923, Note_off_c, 0, 88, 62
1, 417927, Note_on_c, 0, 60, 92
1, 417928, Note_on_c, 0, 76, 99
1, 417939, Poly_aftertouch_c, 0, 49, 0
1, 417960, Note_off_c, 0, 84, 62
1, 417962, Note_off_c, 0, 60, 63
1, 417977, Note_off_c, 0, 76, 62
1, 418073, Note_on_c, 0, 49, 87
1, 418077, Note_on_c, 0, 89, 121
1, 418079, Control_c, 0, 64, 73
1, 418094, Control_c, 0, 64, 52
1, 418109, Control_c, 0, 64, 48
1, 418124, Control_c, 0, 64, 63
1, 418139, Control_c, 0, 64, 79
1, 418151, Note_off_c, 0, 49, 62
1, 418154, Control_c, 0, 64, 127
1, 418195, Note_on_c, 0, 50, 89
1, 418201, Note_on_c, 0, 77, 98
1, 418202, Note_off_c, 0, 89, 62
1, 418246, Note_off_c, 0, 50, 62
1, 418249, Note_off_c, 0, 77, 65
1, 418251, Note_on_c, 0, 88, 20
1, 418300, Note_off_c, 0, 88, 39
1, 418318, Control_c, 0, 64, 116
1, 418332, Control_c, 0, 64, 72
1, 418339, Note_on_c, 0, 50, 97
1, 418346, Note_on_c, 0, 86, 105
1, 418347, Note_on_c, 0, 77, 106
1, 418347, Control_c, 0, 64, 54
1, 418349, Note_on_c, 0, 81, 101
1, 418362, Control_c, 0, 64, 55
1, 418377, Control_c, 0, 64, 67
1, 418383, Note_on_c, 0, 51, 31
1, 418392, Control_c, 0, 64, 83
1, 418406, Control_c, 0, 64, 127
1, 418426, Note_off_c, 0, 51, 49
1, 418437, Note_off_c, 0, 50, 62
1, 418459, Note_off_c, 0, 86, 62
1, 418461, Note_on_c, 0, 74, 106
1, 418466, Note_on_c, 0, 62, 99
1, 418478, Note_off_c, 0, 77, 57
1, 418489, Note_off_c, 0, 81, 62
1, 418504, Note_off_c, 0, 62, 60
1, 418508, Note_off_c, 0, 74, 63
1, 418598, Control_c, 0, 64, 71
1, 418600, Note_on_c, 0, 51, 92
1, 418606, Note_on_c, 0, 88, 114
1, 418613, Control_c, 0, 64, 45
1, 418628, Control_c, 0, 64, 37
1, 418633, Note_on_c, 0, 87, 64
1, 418633, Note_off_c, 0, 87, 127
1, 418643, Control_c, 0, 64, 60
1, 418658, Control_c, 0, 64, 77
1, 418672, Control_c, 0, 64, 127
1, 418678, Note_off_c, 0, 51, 58
1, 418730, Note_off_c, 0, 88, 63
1, 418731, Note_on_c, 0, 76, 107
1, 418736, Note_on_c, 0, 52, 79
1, 418742, Note_on_c, 0, 53, 70
1, 418767, Note_on_c, 0, 86, 41
1, 418785, Note_off_c, 0, 53, 60
1, 418789, Note_off_c, 0, 76, 65
1, 418799, Note_off_c, 0, 52, 61
1, 418805, Note_off_c, 0, 86, 52
1, 418881, Note_on_c, 0, 52, 94
1, 418881, Note_on_c, 0, 84, 108
1, 418882, Note_on_c, 0, 76, 106
1, 418884, Note_on_c, 0, 81, 108
1, 418920, Note_on_c, 0, 80, 37
1, 418932, Note_off_c, 0, 76, 58
1, 418954, Note_off_c, 0, 80, 55
1, 418960, Note_off_c, 0, 81, 60
1, 418961, Note_off_c, 0, 52, 60
1, 418987, Note_off_c, 0, 84, 63
1, 418991, Note_on_c, 0, 64, 83
1, 418998, Note_on_c, 0, 72, 99
1, 419004, Note_off_c, 0, 64, 72
1, 419039, Note_off_c, 0, 72, 64
1, 419151, Note_on_c, 0, 88, 104
1, 419155, Control_c, 0, 64, 75
1, 419158, Note_on_c, 0, 39, 89
1, 419170, Control_c, 0, 64, 44
1, 419184, Note_on_c, 0, 87, 57
1, 419184, Note_off_c, 0, 87, 127
1, 419185, Control_c, 0, 64, 41
1, 419200, Control_c, 0, 64, 61
1, 419215, Control_c, 0, 64, 77
1, 419220, Note_on_c, 0, 86, 42
1, 419229, Control_c, 0, 64, 127
1, 419237, Note_off_c, 0, 39, 58
1, 419257, Note_off_c, 0, 88, 64
1, 419258, Note_off_c, 0, 86, 0
1, 419258, Note_on_c, 0, 86, 17
1, 419279, Note_on_c, 0, 40, 79
1, 419288, Note_on_c, 0, 76, 106
1, 419301, Note_off_c, 0, 86, 41
1, 419330, Note_off_c, 0, 76, 66
1, 419346, Note_off_c, 0, 40, 58
1, 419412, Note_on_c, 0, 40, 91
1, 419420, Note_on_c, 0, 76, 111
1, 419481, Control_c, 0, 64, 103
1, 419496, Control_c, 0, 64, 64
1, 419511, Control_c, 0, 64, 0
1, 419563, Control_c, 0, 64, 68
1, 419569, Note_on_c, 0, 52, 110
1, 419572, Note_on_c, 0, 64, 112
1, 419578, Control_c, 0, 64, 127
1, 419582, Note_off_c, 0, 76, 63
1, 419584, Note_off_c, 0, 40, 59
1, 419603, Note_off_c, 0, 64, 70
1, 419612, Note_off_c, 0, 52, 69
1, 419785, Control_c, 0, 64, 111
1, 419800, Control_c, 0, 64, 83
1, 419815, Control_c, 0, 64, 68
1, 419829, Control_c, 0, 64, 57
1, 419844, Control_c, 0, 64, 39
1, 419860, Control_c, 0, 64, 0
1, 421462, Control_c, 0, 64, 33
1, 421477, Control_c, 0, 64, 34
1, 421492, Control_c, 0, 64, 35
1, 421506, Control_c, 0, 64, 35
1, 421521, Control_c, 0, 64, 36
1, 421573, Note_on_c, 0, 88, 86
1, 421580, Control_c, 0, 64, 35
1, 421595, Control_c, 0, 64, 35
1, 421624, Control_c, 0, 64, 34
1, 421627, Note_off_c, 0, 88, 64
1, 421639, Control_c, 0, 64, 34
1, 421639, Control_c, 0, 67, 20
1, 421669, Control_c, 0, 64, 33
1, 421669, Control_c, 0, 67, 24
1, 421684, Control_c, 0, 67, 27
1, 421698, Control_c, 0, 64, 33
1, 421698, Control_c, 0, 67, 31
1, 421713, Control_c, 0, 67, 37
1, 421722, Note_on_c, 0, 86, 60
1, 421728, Control_c, 0, 64, 0
1, 421728, Control_c, 0, 67, 45
1, 421743, Control_c, 0, 67, 53
1, 421757, Control_c, 0, 67, 60
1, 421762, Note_off_c, 0, 86, 60
1, 421780, Control_c, 0, 67, 65
1, 421795, Control_c, 0, 67, 70
1, 421810, Control_c, 0, 67, 74
1, 421825, Control_c, 0, 67, 78
1, 421839, Control_c, 0, 67, 81
1, 421854, Control_c, 0, 67, 82
1, 421860, Note_on_c, 0, 85, 58
1, 421869, Control_c, 0, 67, 83
1, 421884, Control_c, 0, 67, 83
1, 421904, Note_off_c, 0, 85, 58
1, 421913, Control_c, 0, 67, 84
1, 421957, Control_c, 0, 67, 84
1, 421972, Control_c, 0, 67, 85
1, 421987, Control_c, 0, 67, 87
1, 422002, Control_c, 0, 67, 90
1, 422009, Note_on_c, 0, 83, 57
1, 422017, Control_c, 0, 67, 93
1, 422032, Control_c, 0, 67, 93
1, 422041, Note_off_c, 0, 83, 64
1, 422091, Control_c, 0, 67, 94
1, 422121, Control_c, 0, 67, 95
1, 422136, Control_c, 0, 67, 95
1, 422139, Note_on_c, 0, 81, 56
1, 422150, Control_c, 0, 67, 98
1, 422162, Note_off_c, 0, 81, 57
1, 422165, Control_c, 0, 67, 100
1, 422180, Control_c, 0, 67, 102
1, 422195, Control_c, 0, 67, 105
1, 422224, Control_c, 0, 67, 107
1, 422258, Note_on_c, 0, 80, 63
1, 422285, Control_c, 0, 67, 110
1, 422300, Note_off_c, 0, 80, 58
1, 422300, Control_c, 0, 67, 113
1, 422315, Control_c, 0, 67, 116
1, 422329, Control_c, 0, 67, 119
1, 422373, Control_c, 0, 67, 122
1, 422389, Note_on_c, 0, 81, 62
1, 422403, Control_c, 0, 67, 125
1, 422418, Control_c, 0, 67, 127
1, 422434, Note_off_c, 0, 81, 59
1, 422538, Note_on_c, 0, 83, 62
1, 422572, Note_off_c, 0, 83, 58
1, 422667, Note_on_c, 0, 81, 56
1, 422707, Note_off_c, 0, 81, 58
1, 422792, Note_on_c, 0, 80, 61
1, 422840, Note_off_c, 0, 80, 57
1, 422938, Note_on_c, 0, 78, 56
1, 422980, Note_off_c, 0, 78, 57
1, 423090, Note_on_c, 0, 76, 59
1, 423126, Note_off_c, 0, 76, 63
1, 423226, Note_on_c, 0, 75, 52
1, 423277, Note_off_c, 0, 75, 58
1, 423375, Note_on_c, 0, 76, 56
1, 423410, Note_off_c, 0, 76, 60
1, 423513, Note_on_c, 0, 77, 52
1, 423550, Note_off_c, 0, 77, 63
1, 423648, Note_on_c, 0, 78, 59
1, 423689, Note_off_c, 0, 78, 57
1, 423784, Note_on_c, 0, 76, 60
1, 423825, Note_off_c, 0, 76, 58
1, 423922, Note_on_c, 0, 74, 63
1, 423967, Note_off_c, 0, 74, 57
1, 424062, Note_on_c, 0, 73, 54
1, 424111, Note_off_c, 0, 73, 57
1, 424202, Note_on_c, 0, 71, 57
1, 424249, Note_off_c, 0, 71, 55
1, 424339, Note_on_c, 0, 69, 60
1, 424392, Note_off_c, 0, 69, 57
1, 424493, Note_on_c, 0, 68, 56
1, 424533, Note_off_c, 0, 68, 63
1, 424637, Note_on_c, 0, 69, 52
1, 424675, Note_off_c, 0, 69, 61
1, 424805, Note_on_c, 0, 76, 53
1, 424813, Note_on_c, 0, 71, 42
1, 424817, Note_on_c, 0, 74, 47
1, 424846, Note_off_c, 0, 71, 56
1, 424865, Control_c, 0, 64, 40
1, 424880, Control_c, 0, 64, 55
1, 424895, Control_c, 0, 64, 63
1, 424909, Control_c, 0, 64, 66
1, 424924, Control_c, 0, 64, 69
1, 424939, Control_c, 0, 64, 73
1, 424944, Note_on_c, 0, 69, 49
1, 424954, Control_c, 0, 64, 77
1, 424969, Control_c, 0, 64, 81
1, 424980, Note_off_c, 0, 69, 61
1, 424983, Control_c, 0, 64, 84
1, 424998, Control_c, 0, 64, 87
1, 425013, Control_c, 0, 64, 88
1, 425028, Control_c, 0, 64, 89
1, 425029, Note_off_c, 0, 74, 57
1, 425033, Note_off_c, 0, 76, 59
1, 425042, Control_c, 0, 64, 89
1, 425087, Control_c, 0, 64, 89
1, 425102, Control_c, 0, 64, 84
1, 425114, Note_on_c, 0, 68, 50
1, 425117, Control_c, 0, 64, 73
1, 425130, Note_on_c, 0, 76, 57
1, 425132, Control_c, 0, 64, 62
1, 425140, Note_on_c, 0, 74, 50
1, 425147, Control_c, 0, 64, 38
1, 425149, Note_off_c, 0, 68, 61
1, 425162, Control_c, 0, 64, 0
1, 425176, Control_c, 0, 64, 47
1, 425191, Control_c, 0, 64, 57
1, 425206, Control_c, 0, 64, 64
1, 425220, Control_c, 0, 64, 68
1, 425235, Control_c, 0, 64, 73
1, 425250, Control_c, 0, 64, 77
1, 425263, Note_off_c, 0, 74, 58
1, 425265, Control_c, 0, 64, 80
1, 425275, Note_off_c, 0, 76, 64
1, 425280, Control_c, 0, 64, 81
1, 425281, Note_on_c, 0, 66, 53
1, 425294, Control_c, 0, 64, 83
1, 425309, Control_c, 0, 64, 84
1, 425317, Note_off_c, 0, 66, 64
1, 425339, Control_c, 0, 64, 84
1, 425412, Control_c, 0, 64, 83
1, 425427, Control_c, 0, 64, 80
1, 425444, Control_c, 0, 64, 72
1, 425459, Control_c, 0, 64, 65
1, 425473, Control_c, 0, 64, 53
1, 425477, Note_on_c, 0, 64, 31
1, 425482, Note_on_c, 0, 76, 45
1, 425488, Note_on_c, 0, 73, 40
1, 425488, Control_c, 0, 64, 0
1, 425589, Note_off_c, 0, 64, 33
1, 425629, Control_c, 0, 64, 36
1, 425644, Control_c, 0, 64, 45
1, 425659, Control_c, 0, 64, 53
1, 425670, Note_off_c, 0, 73, 51
1, 425673, Control_c, 0, 64, 60
1, 425688, Note_on_c, 0, 71, 42
1, 425688, Control_c, 0, 64, 64
1, 425693, Note_on_c, 0, 62, 38
1, 425703, Control_c, 0, 64, 66
1, 425718, Control_c, 0, 64, 68
1, 425730, Note_off_c, 0, 62, 54
1, 425732, Control_c, 0, 64, 70
1, 425744, Note_off_c, 0, 76, 37
1, 425747, Control_c, 0, 64, 72
1, 425762, Control_c, 0, 64, 75
1, 425777, Control_c, 0, 64, 78
1, 425792, Control_c, 0, 64, 80
1, 425806, Control_c, 0, 64, 82
1, 425821, Control_c, 0, 64, 83
1, 425836, Control_c, 0, 64, 84
1, 425850, Control_c, 0, 64, 85
1, 425880, Control_c, 0, 64, 85
1, 425971, Note_off_c, 0, 71, 32
1, 425979, Note_on_c, 0, 61, 27
1, 425984, Control_c, 0, 64, 85
1, 425987, Note_on_c, 0, 76, 39
1, 425989, Note_on_c, 0, 69, 36
1, 425991, Note_on_c, 0, 57, 26
1, 425999, Control_c, 0, 64, 82
1, 426014, Control_c, 0, 64, 77
1, 426029, Control_c, 0, 64, 70
1, 426043, Control_c, 0, 64, 62
1, 426058, Control_c, 0, 64, 51
1, 426073, Control_c, 0, 64, 41
1, 426088, Control_c, 0, 64, 41
1, 426103, Control_c, 0, 64, 47
1, 426117, Control_c, 0, 64, 52
1, 426132, Control_c, 0, 64, 57
1, 426147, Control_c, 0, 64, 63
1, 426162, Control_c, 0, 64, 67
1, 426177, Control_c, 0, 64, 73
1, 426191, Control_c, 0, 64, 79
1, 426206, Control_c, 0, 64, 85
1, 426221, Control_c, 0, 64, 89
1, 426236, Control_c, 0, 64, 94
1, 426251, Control_c, 0, 64, 100
1, 426274, Control_c, 0, 64, 109
1, 426288, Control_c, 0, 64, 118
1, 426295, Note_off_c, 0, 76, 62
1, 426303, Control_c, 0, 64, 127
1, 426315, Note_off_c, 0, 69, 35
1, 426421, Control_c, 0, 67, 125
1, 426436, Control_c, 0, 67, 114
1, 426451, Control_c, 0, 67, 101
1, 426466, Control_c, 0, 67, 89
1, 426480, Control_c, 0, 67, 78
1, 426495, Control_c, 0, 67, 72
1, 426510, Control_c, 0, 67, 67
1, 426525, Control_c, 0, 67, 64
1, 426540, Control_c, 0, 67, 62
1, 426554, Control_c, 0, 67, 57
1, 426569, Control_c, 0, 67, 48
1, 426584, Control_c, 0, 67, 39
1, 426599, Control_c, 0, 67, 30
1, 426614, Control_c, 0, 67, 22
1, 426628, Control_c, 0, 67, 0
1, 426707, Note_off_c, 0, 57, 29
1, 426720, Note_on_c, 0, 81, 42
1, 426883, Note_on_c, 0, 80, 51
1, 426977, Note_off_c, 0, 61, 38
1, 427046, Note_on_c, 0, 78, 61
1, 427055, Note_off_c, 0, 81, 43
1, 427113, Note_off_c, 0, 80, 37
1, 427173, Note_on_c, 0, 76, 63
1, 427178, Note_off_c, 0, 78, 55
1, 427235, Note_off_c, 0, 76, 59
1, 427334, Control_c, 0, 64, 104
1, 427349, Control_c, 0, 64, 82
1, 427364, Control_c, 0, 64, 67
1, 427365, Note_on_c, 0, 59, 23
1, 427374, Note_on_c, 0, 62, 28
1, 427378, Control_c, 0, 64, 55
1, 427379, Note_on_c, 0, 76, 46
1, 427382, Note_on_c, 0, 68, 40
1, 427393, Control_c, 0, 64, 49
1, 427408, Control_c, 0, 64, 52
1, 427423, Control_c, 0, 64, 57
1, 427438, Control_c, 0, 64, 63
1, 427452, Control_c, 0, 64, 70
1, 427467, Control_c, 0, 64, 79
1, 427482, Control_c, 0, 64, 88
1, 427484, Note_off_c, 0, 76, 61
1, 427496, Control_c, 0, 64, 94
1, 427511, Control_c, 0, 64, 98
1, 427526, Control_c, 0, 64, 102
1, 427541, Control_c, 0, 64, 105
1, 427543, Note_off_c, 0, 62, 45
1, 427554, Note_off_c, 0, 59, 41
1, 427556, Control_c, 0, 64, 109
1, 427570, Control_c, 0, 64, 113
1, 427585, Control_c, 0, 64, 119
1, 427593, Note_off_c, 0, 68, 54
1, 427600, Control_c, 0, 64, 125
1, 427615, Control_c, 0, 64, 127
1, 427675, Control_c, 0, 64, 115
1, 427689, Control_c, 0, 64, 97
1, 427704, Control_c, 0, 64, 81
1, 427710, Note_on_c, 0, 76, 52
1, 427719, Control_c, 0, 64, 69
1, 427727, Note_on_c, 0, 59, 18
1, 427734, Control_c, 0, 64, 61
1, 427736, Note_on_c, 0, 68, 35
1, 427737, Note_on_c, 0, 62, 13
1, 427749, Control_c, 0, 64, 60
1, 427770, Control_c, 0, 64, 62
1, 427785, Control_c, 0, 64, 66
1, 427800, Control_c, 0, 64, 71
1, 427815, Control_c, 0, 64, 78
1, 427830, Control_c, 0, 64, 87
1, 427846, Control_c, 0, 64, 95
1, 427861, Control_c, 0, 64, 102
1, 427875, Control_c, 0, 64, 109
1, 427877, Note_off_c, 0, 62, 50
1, 427889, Note_off_c, 0, 76, 53
1, 427890, Control_c, 0, 64, 117
1, 427896, Note_off_c, 0, 59, 39
1, 427905, Control_c, 0, 64, 127
1, 427912, Note_off_c, 0, 68, 42
1, 428050, Note_on_c, 0, 76, 59
1, 428056, Note_on_c, 0, 68, 42
1, 428062, Note_on_c, 0, 59, 26
1, 428068, Note_on_c, 0, 62, 41
1, 428169, Note_off_c, 0, 59, 58
1, 428169, Note_off_c, 0, 62, 60
1, 428178, Note_off_c, 0, 76, 59
1, 428198, Note_off_c, 0, 68, 43
1, 428376, Note_on_c, 0, 76, 73
1, 428379, Note_on_c, 0, 59, 43
1, 428385, Note_on_c, 0, 68, 48
1, 428395, Note_on_c, 0, 62, 43
1, 428466, Note_off_c, 0, 68, 50
1, 428519, Note_off_c, 0, 76, 57
1, 428742, Control_c, 0, 64, 110
1, 428745, Note_on_c, 0, 76, 68
1, 428747, Note_on_c, 0, 64, 37
1, 428757, Control_c, 0, 64, 91
1, 428769, Note_on_c, 0, 69, 42
1, 428772, Control_c, 0, 64, 77
1, 428781, Note_on_c, 0, 61, 31
1, 428787, Control_c, 0, 64, 67
1, 428802, Control_c, 0, 64, 57
1, 428816, Control_c, 0, 64, 43
1, 428821, Note_off_c, 0, 59, 42
1, 428831, Note_off_c, 0, 62, 54
1, 428831, Control_c, 0, 64, 34
1, 428846, Control_c, 0, 64, 33
1, 428861, Control_c, 0, 64, 33
1, 428876, Control_c, 0, 64, 37
1, 428891, Control_c, 0, 64, 46
1, 428906, Control_c, 0, 64, 55
1, 428921, Control_c, 0, 64, 62
1, 428935, Control_c, 0, 64, 69
1, 428950, Control_c, 0, 64, 75
1, 428965, Control_c, 0, 64, 82
1, 428980, Control_c, 0, 64, 87
1, 428995, Control_c, 0, 64, 95
1, 429009, Control_c, 0, 64, 104
1, 429024, Control_c, 0, 64, 127
1, 429091, Note_on_c, 0, 73, 70
1, 429093, Note_on_c, 0, 57, 33
1, 429187, Note_off_c, 0, 69, 40
1, 429189, Note_off_c, 0, 64, 40
1, 429342, Control_c, 0, 67, 19
1, 429401, Control_c, 0, 67, 22
1, 429523, Note_on_c, 0, 78, 58
1, 429549, Note_on_c, 0, 69, 41
1, 429575, Note_on_c, 0, 62, 33
1, 429578, Note_on_c, 0, 66, 32
1, 429580, Control_c, 0, 67, 24
1, 429610, Control_c, 0, 64, 103
1, 429617, Note_off_c, 0, 76, 56
1, 429625, Control_c, 0, 64, 84
1, 429639, Control_c, 0, 64, 71
1, 429643, Note_off_c, 0, 61, 38
1, 429648, Note_off_c, 0, 57, 41
1, 429652, Note_off_c, 0, 73, 55
1, 429654, Control_c, 0, 64, 60
1, 429669, Control_c, 0, 64, 49
1, 429684, Control_c, 0, 64, 46
1, 429684, Control_c, 0, 67, 28
1, 429699, Control_c, 0, 64, 49
1, 429699, Control_c, 0, 67, 33
1, 429714, Control_c, 0, 64, 52
1, 429714, Control_c, 0, 67, 39
1, 429728, Control_c, 0, 64, 55
1, 429728, Control_c, 0, 67, 50
1, 429743, Control_c, 0, 64, 57
1, 429743, Control_c, 0, 67, 65
1, 429758, Control_c, 0, 64, 62
1, 429758, Control_c, 0, 67, 82
1, 429773, Control_c, 0, 64, 67
1, 429773, Control_c, 0, 67, 100
1, 429788, Control_c, 0, 64, 74
1, 429788, Control_c, 0, 67, 117
1, 429803, Control_c, 0, 64, 81
1, 429803, Control_c, 0, 67, 127
1, 429817, Control_c, 0, 64, 87
1, 429832, Control_c, 0, 64, 92
1, 429847, Control_c, 0, 64, 95
1, 429862, Control_c, 0, 64, 98
1, 429877, Control_c, 0, 64, 102
1, 429891, Control_c, 0, 64, 106
1, 429906, Control_c, 0, 64, 108
1, 429936, Control_c, 0, 64, 111
1, 429940, Note_off_c, 0, 66, 42
1, 429951, Control_c, 0, 64, 113
1, 429973, Note_off_c, 0, 62, 57
1, 429980, Note_off_c, 0, 78, 62
1, 429994, Control_c, 0, 64, 115
1, 430009, Note_off_c, 0, 69, 44
1, 430209, Control_c, 0, 64, 108
1, 430223, Control_c, 0, 64, 93
1, 430239, Control_c, 0, 64, 79
1, 430246, Note_on_c, 0, 76, 49
1, 430254, Control_c, 0, 64, 67
1, 430269, Control_c, 0, 64, 56
1, 430271, Note_on_c, 0, 69, 19
1, 430273, Note_on_c, 0, 61, 29
1, 430273, Note_on_c, 0, 64, 24
1, 430284, Control_c, 0, 64, 49
1, 430299, Control_c, 0, 64, 54
1, 430313, Control_c, 0, 64, 58
1, 430328, Control_c, 0, 64, 61
1, 430343, Note_off_c, 0, 61, 50
1, 430343, Control_c, 0, 64, 65
1, 430358, Control_c, 0, 64, 71
1, 430373, Control_c, 0, 64, 79
1, 430387, Control_c, 0, 64, 86
1, 430402, Control_c, 0, 64, 90
1, 430416, Note_off_c, 0, 69, 35
1, 430417, Control_c, 0, 64, 92
1, 430432, Control_c, 0, 64, 93
1, 430447, Control_c, 0, 64, 95
1, 430477, Control_c, 0, 64, 98
1, 430601, Note_on_c, 0, 54, 35
1, 430604, Note_off_c, 0, 64, 32
1, 430611, Note_on_c, 0, 69, 38
1, 430617, Note_on_c, 0, 61, 33
1, 430690, Note_off_c, 0, 61, 50
1, 430724, Note_off_c, 0, 54, 37
1, 431022, Note_on_c, 0, 71, 41
1, 431028, Note_on_c, 0, 62, 30
1, 431031, Note_on_c, 0, 52, 34
1, 431032, Control_c, 0, 64, 95
1, 431036, Note_on_c, 0, 68, 39
1, 431040, Note_off_c, 0, 69, 32
1, 431048, Control_c, 0, 64, 91
1, 431062, Control_c, 0, 64, 85
1, 431077, Control_c, 0, 64, 76
1, 431092, Control_c, 0, 64, 67
1, 431107, Control_c, 0, 64, 56
1, 431115, Note_off_c, 0, 76, 36
1, 431122, Control_c, 0, 64, 0
1, 431181, Control_c, 0, 64, 34
1, 431196, Control_c, 0, 64, 41
1, 431210, Control_c, 0, 64, 50
1, 431225, Control_c, 0, 64, 61
1, 431240, Control_c, 0, 64, 65
1, 431255, Control_c, 0, 64, 70
1, 431261, Note_off_c, 0, 52, 50
1, 431270, Control_c, 0, 64, 73
1, 431284, Control_c, 0, 64, 76
1, 431292, Note_off_c, 0, 62, 48
1, 431299, Control_c, 0, 64, 78
1, 431309, Note_off_c, 0, 68, 49
1, 431314, Control_c, 0, 64, 81
1, 431320, Note_off_c, 0, 71, 57
1, 431329, Control_c, 0, 64, 84
1, 431344, Control_c, 0, 64, 86
1, 431359, Control_c, 0, 64, 89
1, 431374, Control_c, 0, 64, 91
1, 431389, Control_c, 0, 64, 93
1, 431404, Control_c, 0, 64, 95
1, 431418, Control_c, 0, 64, 96
1, 431462, Control_c, 0, 64, 98
1, 431707, Control_c, 0, 64, 94
1, 431722, Control_c, 0, 64, 89
1, 431736, Control_c, 0, 64, 83
1, 431751, Control_c, 0, 64, 76
1, 431766, Control_c, 0, 64, 70
1, 431780, Control_c, 0, 64, 64
1, 431795, Control_c, 0, 64, 58
1, 431810, Control_c, 0, 64, 51
1, 431825, Control_c, 0, 64, 47
1, 431841, Control_c, 0, 64, 45
1, 431871, Control_c, 0, 64, 45
1, 431885, Control_c, 0, 64, 47
1, 431900, Control_c, 0, 64, 50
1, 431906, Note_on_c, 0, 73, 28
1, 431913, Note_on_c, 0, 88, 51
1, 431915, Control_c, 0, 64, 55
1, 431930, Control_c, 0, 64, 58
1, 431931, Note_on_c, 0, 76, 26
1, 431945, Control_c, 0, 64, 60
1, 431959, Control_c, 0, 64, 63
1, 431974, Control_c, 0, 64, 68
1, 431989, Control_c, 0, 64, 73
1, 432001, Note_off_c, 0, 73, 56
1, 432004, Control_c, 0, 64, 79
1, 432018, Control_c, 0, 64, 83
1, 432033, Control_c, 0, 64, 86
1, 432048, Control_c, 0, 64, 89
1, 432063, Control_c, 0, 64, 93
1, 432078, Control_c, 0, 64, 97
1, 432092, Control_c, 0, 64, 101
1, 432107, Control_c, 0, 64, 104
1, 432167, Control_c, 0, 64, 106
1, 432264, Control_c, 0, 64, 108
1, 432274, Note_off_c, 0, 88, 43
1, 432279, Note_on_c, 0, 69, 20
1, 432279, Note_on_c, 0, 73, 31
1, 432286, Note_on_c, 0, 86, 46
1, 432336, Note_off_c, 0, 76, 38
1, 432359, Note_off_c, 0, 86, 56
1, 432369, Note_on_c, 0, 85, 53
1, 432432, Note_off_c, 0, 85, 63
1, 432436, Note_on_c, 0, 83, 55
1, 432481, Note_off_c, 0, 83, 56
1, 432519, Note_on_c, 0, 81, 58
1, 432552, Note_off_c, 0, 69, 38
1, 432560, Control_c, 0, 64, 104
1, 432575, Control_c, 0, 64, 99
1, 432588, Note_off_c, 0, 73, 39
1, 432590, Control_c, 0, 64, 91
1, 432604, Control_c, 0, 64, 82
1, 432619, Control_c, 0, 64, 71
1, 432624, Note_on_c, 0, 74, 38
1, 432635, Control_c, 0, 64, 63
1, 432636, Note_off_c, 0, 81, 33
1, 432638, Note_on_c, 0, 90, 49
1, 432639, Note_on_c, 0, 78, 34
1, 432650, Control_c, 0, 64, 52
1, 432665, Control_c, 0, 64, 44
1, 432694, Control_c, 0, 64, 46
1, 432709, Control_c, 0, 64, 49
1, 432724, Control_c, 0, 64, 54
1, 432739, Control_c, 0, 64, 58
1, 432754, Control_c, 0, 64, 61
1, 432769, Control_c, 0, 64, 65
1, 432783, Control_c, 0, 64, 70
1, 432798, Control_c, 0, 64, 77
1, 432813, Control_c, 0, 64, 84
1, 432827, Control_c, 0, 64, 88
1, 432842, Control_c, 0, 64, 93
1, 432853, Note_off_c, 0, 90, 58
1, 432857, Control_c, 0, 64, 100
1, 432858, Note_off_c, 0, 78, 46
1, 432872, Control_c, 0, 64, 108
1, 432887, Control_c, 0, 64, 127
1, 432903, Note_off_c, 0, 74, 41
1, 433367, Note_on_c, 0, 73, 34
1, 433375, Note_on_c, 0, 76, 38
1, 433382, Control_c, 0, 64, 93
1, 433392, Note_on_c, 0, 88, 51
1, 433397, Control_c, 0, 64, 75
1, 433412, Control_c, 0, 64, 61
1, 433428, Control_c, 0, 64, 51
1, 433443, Control_c, 0, 64, 53
1, 433457, Control_c, 0, 64, 56
1, 433472, Control_c, 0, 64, 59
1, 433487, Control_c, 0, 64, 62
1, 433502, Control_c, 0, 64, 66
1, 433517, Control_c, 0, 64, 74
1, 433531, Control_c, 0, 64, 84
1, 433546, Control_c, 0, 64, 91
1, 433561, Control_c, 0, 64, 95
1, 433575, Control_c, 0, 64, 99
1, 433590, Control_c, 0, 64, 101
1, 433605, Control_c, 0, 64, 105
1, 433620, Control_c, 0, 64, 110
1, 433635, Control_c, 0, 64, 112
1, 433649, Control_c, 0, 64, 115
1, 433664, Control_c, 0, 64, 117
1, 433679, Control_c, 0, 64, 119
1, 433724, Control_c, 0, 64, 122
1, 433732, Note_on_c, 0, 66, 33
1, 433735, Note_off_c, 0, 76, 34
1, 433741, Note_on_c, 0, 69, 27
1, 433761, Control_c, 0, 64, 125
1, 433785, Note_on_c, 0, 86, 44
1, 433802, Note_off_c, 0, 88, 31
1, 433809, Note_off_c, 0, 69, 43
1, 433830, Note_off_c, 0, 73, 42
1, 433836, Note_off_c, 0, 86, 50
1, 433848, Note_on_c, 0, 85, 49
1, 433855, Note_off_c, 0, 66, 32
1, 433917, Note_on_c, 0, 83, 54
1, 433929, Note_off_c, 0, 85, 60
1, 433947, Note_off_c, 0, 83, 61
1, 433991, Note_on_c, 0, 81, 57
1, 434027, Note_off_c, 0, 81, 48
1, 434057, Control_c, 0, 64, 122
1, 434072, Control_c, 0, 64, 111
1, 434087, Control_c, 0, 64, 98
1, 434088, Note_on_c, 0, 83, 45
1, 434098, Note_on_c, 0, 64, 37
1, 434101, Control_c, 0, 64, 84
1, 434106, Note_on_c, 0, 80, 39
1, 434110, Note_on_c, 0, 74, 35
1, 434116, Control_c, 0, 64, 70
1, 434131, Control_c, 0, 64, 58
1, 434146, Control_c, 0, 64, 41
1, 434161, Control_c, 0, 64, 34
1, 434167, Note_off_c, 0, 83, 0
1, 434167, Note_on_c, 0, 83, 11
1, 434176, Control_c, 0, 64, 38
1, 434190, Control_c, 0, 64, 45
1, 434205, Control_c, 0, 64, 52
1, 434220, Control_c, 0, 64, 58
1, 434236, Control_c, 0, 64, 64
1, 434250, Control_c, 0, 64, 69
1, 434265, Control_c, 0, 64, 76
1, 434280, Control_c, 0, 64, 83
1, 434295, Control_c, 0, 64, 88
1, 434310, Control_c, 0, 64, 93
1, 434325, Control_c, 0, 64, 98
1, 434328, Note_off_c, 0, 64, 40
1, 434340, Control_c, 0, 64, 103
1, 434348, Note_off_c, 0, 74, 42
1, 434354, Control_c, 0, 64, 108
1, 434366, Note_off_c, 0, 80, 45
1, 434369, Control_c, 0, 64, 111
1, 434384, Control_c, 0, 64, 115
1, 434398, Control_c, 0, 64, 125
1, 434413, Control_c, 0, 64, 127
1, 434820, Control_c, 0, 64, 107
1, 434835, Control_c, 0, 64, 90
1, 434844, Note_on_c, 0, 73, 33
1, 434848, Note_on_c, 0, 69, 34
1, 434850, Control_c, 0, 64, 75
1, 434854, Note_on_c, 0, 81, 44
1, 434865, Control_c, 0, 64, 63
1, 434879, Control_c, 0, 64, 48
1, 434894, Control_c, 0, 64, 42
1, 434900, Note_off_c, 0, 83, 39
1, 434909, Control_c, 0, 64, 47
1, 434924, Control_c, 0, 64, 53
1, 434939, Control_c, 0, 64, 58
1, 434954, Control_c, 0, 64, 63
1, 434969, Control_c, 0, 64, 70
1, 434984, Control_c, 0, 64, 78
1, 434999, Control_c, 0, 64, 87
1, 435002, Note_off_c, 0, 69, 54
1, 435013, Control_c, 0, 64, 94
1, 435017, Note_off_c, 0, 73, 58
1, 435028, Control_c, 0, 64, 97
1, 435043, Control_c, 0, 64, 100
1, 435058, Control_c, 0, 64, 103
1, 435073, Control_c, 0, 64, 107
1, 435088, Control_c, 0, 64, 109
1, 435133, Control_c, 0, 64, 111
1, 435212, Note_on_c, 0, 69, 38
1, 435318, Control_c, 0, 64, 113
1, 435348, Control_c, 0, 67, 115
1, 435362, Control_c, 0, 64, 116
1, 435362, Control_c, 0, 67, 92
1, 435377, Control_c, 0, 67, 72
1, 435392, Control_c, 0, 64, 119
1, 435392, Control_c, 0, 67, 57
1, 435407, Control_c, 0, 67, 47
1, 435422, Control_c, 0, 64, 122
1, 435422, Control_c, 0, 67, 38
1, 435437, Control_c, 0, 67, 29
1, 435452, Control_c, 0, 67, 0
1, 435467, Control_c, 0, 64, 125
1, 435541, Control_c, 0, 64, 122
1, 435547, Note_off_c, 0, 81, 29
1, 435570, Control_c, 0, 64, 113
1, 435585, Control_c, 0, 64, 98
1, 435598, Note_on_c, 0, 74, 55
1, 435600, Control_c, 0, 64, 79
1, 435607, Note_on_c, 0, 70, 41
1, 435615, Control_c, 0, 64, 67
1, 435620, Note_off_c, 0, 69, 39
1, 435629, Control_c, 0, 64, 56
1, 435644, Control_c, 0, 64, 48
1, 435659, Control_c, 0, 64, 51
1, 435674, Control_c, 0, 64, 55
1, 435689, Control_c, 0, 64, 59
1, 435703, Control_c, 0, 64, 63
1, 435718, Control_c, 0, 64, 68
1, 435733, Control_c, 0, 64, 76
1, 435747, Control_c, 0, 64, 86
1, 435762, Control_c, 0, 64, 94
1, 435777, Control_c, 0, 64, 98
1, 435792, Control_c, 0, 64, 102
1, 435807, Control_c, 0, 64, 106
1, 435822, Control_c, 0, 64, 110
1, 435822, Control_c, 0, 67, 23
1, 435838, Control_c, 0, 64, 113
1, 435838, Control_c, 0, 67, 28
1, 435843, Note_off_c, 0, 74, 56
1, 435852, Control_c, 0, 67, 35
1, 435867, Control_c, 0, 67, 45
1, 435882, Control_c, 0, 64, 116
1, 435882, Control_c, 0, 67, 60
1, 435897, Control_c, 0, 67, 75
1, 435912, Control_c, 0, 67, 89
1, 435926, Control_c, 0, 67, 101
1, 435941, Control_c, 0, 67, 111
1, 435956, Control_c, 0, 67, 118
1, 435971, Control_c, 0, 64, 118
1, 435971, Control_c, 0, 67, 124
1, 435982, Note_on_c, 0, 74, 52
1, 435985, Control_c, 0, 67, 127
1, 436298, Note_off_c, 0, 74, 41
1, 436317, Note_off_c, 0, 70, 42
1, 436319, Control_c, 0, 64, 108
1, 436334, Control_c, 0, 64, 95
1, 436349, Control_c, 0, 64, 81
1, 436353, Note_on_c, 0, 76, 38
1, 436364, Control_c, 0, 64, 68
1, 436371, Note_on_c, 0, 73, 25
1, 436377, Note_on_c, 0, 69, 21
1, 436378, Control_c, 0, 64, 56
1, 436393, Control_c, 0, 64, 39
1, 436408, Note_off_c, 0, 76, 0
1, 436408, Note_on_c, 0, 76, 13
1, 436408, Control_c, 0, 64, 37
1, 436423, Control_c, 0, 64, 42
1, 436438, Control_c, 0, 64, 48
1, 436452, Control_c, 0, 64, 54
1, 436467, Control_c, 0, 64, 59
1, 436482, Control_c, 0, 64, 65
1, 436496, Control_c, 0, 64, 73
1, 436511, Control_c, 0, 64, 82
1, 436526, Control_c, 0, 64, 89
1, 436541, Control_c, 0, 64, 94
1, 436556, Control_c, 0, 64, 98
1, 436570, Control_c, 0, 64, 103
1, 436577, Note_off_c, 0, 69, 40
1, 436578, Note_off_c, 0, 76, 41
1, 436585, Note_off_c, 0, 73, 41
1, 436585, Control_c, 0, 64, 110
1, 436600, Control_c, 0, 64, 122
1, 436615, Control_c, 0, 64, 127
1, 436727, Note_on_c, 0, 76, 49
1, 436812, Note_off_c, 0, 76, 58
1, 437038, Control_c, 0, 64, 111
1, 437053, Control_c, 0, 64, 88
1, 437067, Control_c, 0, 64, 72
1, 437082, Control_c, 0, 64, 61
1, 437097, Control_c, 0, 64, 49
1, 437097, Note_on_c, 0, 64, 28
1, 437102, Note_on_c, 0, 88, 46
1, 437107, Note_on_c, 0, 74, 29
1, 437112, Control_c, 0, 64, 51
1, 437126, Control_c, 0, 64, 55
1, 437127, Note_on_c, 0, 76, 35
1, 437131, Note_off_c, 0, 88, 52
1, 437141, Control_c, 0, 64, 59
1, 437156, Control_c, 0, 64, 62
1, 437171, Control_c, 0, 64, 67
1, 437186, Control_c, 0, 64, 74
1, 437200, Control_c, 0, 64, 85
1, 437215, Control_c, 0, 64, 91
1, 437230, Control_c, 0, 64, 95
1, 437245, Control_c, 0, 64, 97
1, 437249, Note_on_c, 0, 78, 63
1, 437253, Note_off_c, 0, 76, 44
1, 437260, Control_c, 0, 64, 99
1, 437274, Control_c, 0, 64, 102
1, 437289, Control_c, 0, 64, 104
1, 437304, Control_c, 0, 64, 107
1, 437318, Control_c, 0, 64, 111
1, 437333, Control_c, 0, 64, 116
1, 437341, Note_off_c, 0, 78, 63
1, 437348, Control_c, 0, 64, 120
1, 437350, Note_on_c, 0, 80, 62
1, 437372, Note_off_c, 0, 80, 66
1, 437378, Control_c, 0, 64, 122
1, 437407, Control_c, 0, 64, 125
1, 437423, Control_c, 0, 64, 127
1, 437461, Note_on_c, 0, 80, 57
1, 437465, Note_on_c, 0, 88, 67
1, 437537, Note_off_c, 0, 80, 35
1, 437561, Note_on_c, 0, 81, 68
1, 437586, Note_off_c, 0, 88, 37
1, 437610, Control_c, 0, 64, 125
1, 437639, Control_c, 0, 64, 119
1, 437643, Note_off_c, 0, 81, 62
1, 437654, Control_c, 0, 64, 113
1, 437661, Note_on_c, 0, 83, 63
1, 437669, Control_c, 0, 64, 106
1, 437684, Control_c, 0, 64, 97
1, 437699, Control_c, 0, 64, 84
1, 437705, Note_off_c, 0, 64, 30
1, 437713, Control_c, 0, 64, 73
1, 437728, Control_c, 0, 64, 62
1, 437743, Control_c, 0, 64, 45
1, 437757, Control_c, 0, 64, 0
1, 437763, Note_off_c, 0, 83, 37
1, 437766, Note_off_c, 0, 74, 42
1, 437792, Note_on_c, 0, 73, 43
1, 437799, Note_on_c, 0, 88, 57
1, 437802, Control_c, 0, 64, 39
1, 437805, Note_on_c, 0, 69, 22
1, 437817, Control_c, 0, 64, 49
1, 437824, Note_on_c, 0, 81, 33
1, 437831, Control_c, 0, 64, 60
1, 437846, Control_c, 0, 64, 68
1, 437861, Control_c, 0, 64, 77
1, 437876, Control_c, 0, 64, 89
1, 437887, Note_off_c, 0, 73, 61
1, 437891, Control_c, 0, 64, 102
1, 437902, Note_off_c, 0, 69, 56
1, 437905, Control_c, 0, 64, 118
1, 437911, Note_off_c, 0, 88, 61
1, 437920, Control_c, 0, 64, 127
1, 437960, Note_off_c, 0, 81, 49
1, 438167, Note_on_c, 0, 57, 39
1, 438257, Note_off_c, 0, 57, 55
1, 438536, Control_c, 0, 64, 110
1, 438549, Note_on_c, 0, 62, 46
1, 438551, Control_c, 0, 64, 90
1, 438566, Control_c, 0, 64, 75
1, 438571, Note_on_c, 0, 58, 36
1, 438580, Control_c, 0, 64, 63
1, 438595, Control_c, 0, 64, 47
1, 438610, Control_c, 0, 64, 43
1, 438625, Control_c, 0, 64, 48
1, 438640, Control_c, 0, 64, 54
1, 438654, Control_c, 0, 64, 59
1, 438669, Control_c, 0, 64, 64
1, 438684, Control_c, 0, 64, 69
1, 438698, Control_c, 0, 64, 75
1, 438713, Control_c, 0, 64, 81
1, 438728, Control_c, 0, 64, 84
1, 438743, Control_c, 0, 64, 86
1, 438758, Control_c, 0, 64, 87
1, 438772, Control_c, 0, 64, 89
1, 438778, Note_off_c, 0, 62, 56
1, 438787, Control_c, 0, 64, 90
1, 438802, Control_c, 0, 64, 91
1, 438817, Control_c, 0, 64, 92
1, 438832, Control_c, 0, 64, 93
1, 438906, Control_c, 0, 64, 93
1, 438925, Note_on_c, 0, 62, 43
1, 439144, Note_off_c, 0, 62, 32
1, 439270, Control_c, 0, 64, 93
1, 439285, Control_c, 0, 64, 90
1, 439300, Control_c, 0, 64, 82
1, 439315, Control_c, 0, 64, 72
1, 439316, Note_off_c, 0, 58, 35
1, 439321, Note_on_c, 0, 64, 44
1, 439329, Control_c, 0, 64, 63
1, 439331, Note_on_c, 0, 57, 24
1, 439335, Note_on_c, 0, 61, 26
1, 439344, Control_c, 0, 64, 52
1, 439359, Control_c, 0, 64, 44
1, 439374, Control_c, 0, 64, 46
1, 439389, Control_c, 0, 64, 51
1, 439403, Control_c, 0, 64, 55
1, 439418, Control_c, 0, 64, 60
1, 439433, Control_c, 0, 64, 66
1, 439448, Control_c, 0, 64, 73
1, 439463, Control_c, 0, 64, 82
1, 439477, Control_c, 0, 64, 88
1, 439492, Control_c, 0, 64, 91
1, 439507, Control_c, 0, 64, 94
1, 439521, Control_c, 0, 64, 96
1, 439536, Control_c, 0, 64, 99
1, 439551, Control_c, 0, 64, 101
1, 439580, Note_off_c, 0, 57, 44
1, 439581, Control_c, 0, 64, 104
1, 439631, Note_off_c, 0, 61, 39
1, 439663, Note_off_c, 0, 64, 0
1, 439682, Note_on_c, 0, 64, 13
1, 439821, Note_off_c, 0, 64, 46
1, 440005, Control_c, 0, 64, 95
1, 440019, Control_c, 0, 64, 83
1, 440034, Control_c, 0, 64, 71
1, 440045, Note_on_c, 0, 52, 27
1, 440049, Control_c, 0, 64, 60
1, 440058, Note_on_c, 0, 62, 22
1, 440064, Control_c, 0, 64, 46
1, 440078, Control_c, 0, 64, 45
1, 440087, Note_on_c, 0, 76, 51
1, 440093, Control_c, 0, 64, 51
1, 440108, Control_c, 0, 64, 56
1, 440110, Note_on_c, 0, 64, 25
1, 440121, Note_off_c, 0, 76, 51
1, 440123, Control_c, 0, 64, 60
1, 440138, Control_c, 0, 64, 65
1, 440153, Control_c, 0, 64, 72
1, 440168, Control_c, 0, 64, 81
1, 440182, Control_c, 0, 64, 87
1, 440197, Control_c, 0, 64, 90
1, 440212, Control_c, 0, 64, 91
1, 440227, Control_c, 0, 64, 92
1, 440239, Note_on_c, 0, 66, 61
1, 440242, Control_c, 0, 64, 94
1, 440243, Note_off_c, 0, 64, 47
1, 440257, Control_c, 0, 64, 96
1, 440271, Control_c, 0, 64, 98
1, 440286, Control_c, 0, 64, 101
1, 440301, Control_c, 0, 64, 105
1, 440316, Control_c, 0, 64, 108
1, 440336, Note_off_c, 0, 66, 61
1, 440343, Note_on_c, 0, 68, 62
1, 440345, Control_c, 0, 64, 110
1, 440370, Note_off_c, 0, 68, 66
1, 440375, Control_c, 0, 64, 112
1, 440419, Control_c, 0, 64, 110
1, 440434, Control_c, 0, 64, 96
1, 440449, Control_c, 0, 64, 80
1, 440459, Note_on_c, 0, 68, 46
1, 440464, Control_c, 0, 64, 67
1, 440468, Note_on_c, 0, 76, 48
1, 440478, Control_c, 0, 64, 54
1, 440501, Control_c, 0, 64, 40
1, 440516, Control_c, 0, 64, 43
1, 440531, Control_c, 0, 64, 47
1, 440546, Control_c, 0, 64, 52
1, 440548, Note_off_c, 0, 68, 35
1, 440560, Control_c, 0, 64, 57
1, 440575, Control_c, 0, 64, 63
1, 440576, Note_on_c, 0, 69, 54
1, 440590, Control_c, 0, 64, 69
1, 440597, Note_off_c, 0, 76, 44
1, 440605, Control_c, 0, 64, 75
1, 440620, Control_c, 0, 64, 80
1, 440636, Control_c, 0, 64, 82
1, 440650, Control_c, 0, 64, 83
1, 440654, Note_off_c, 0, 52, 32
1, 440659, Note_off_c, 0, 69, 61
1, 440665, Control_c, 0, 64, 83
1, 440680, Control_c, 0, 64, 84
1, 440682, Note_on_c, 0, 71, 52
1, 440754, Control_c, 0, 64, 82
1, 440768, Control_c, 0, 64, 77
1, 440783, Control_c, 0, 64, 69
1, 440791, Note_off_c, 0, 62, 38
1, 440798, Control_c, 0, 64, 59
1, 440800, Note_off_c, 0, 71, 39
1, 440813, Control_c, 0, 64, 46
1, 440823, Note_on_c, 0, 61, 36
1, 440828, Control_c, 0, 64, 40
1, 440842, Control_c, 0, 64, 41
1, 440845, Note_on_c, 0, 57, 25
1, 440845, Note_on_c, 0, 69, 34
1, 440855, Note_on_c, 0, 76, 33
1, 440857, Control_c, 0, 64, 44
1, 440872, Control_c, 0, 64, 49
1, 440887, Control_c, 0, 64, 57
1, 440901, Control_c, 0, 64, 63
1, 440916, Control_c, 0, 64, 68
1, 440931, Control_c, 0, 64, 75
1, 440946, Note_off_c, 0, 61, 53
1, 440946, Control_c, 0, 64, 81
1, 440961, Control_c, 0, 64, 85
1, 440975, Control_c, 0, 64, 87
1, 440979, Note_off_c, 0, 57, 35
1, 440990, Control_c, 0, 64, 91
1, 441005, Control_c, 0, 64, 94
1, 441014, Note_off_c, 0, 76, 37
1, 441020, Control_c, 0, 64, 98
1, 441035, Control_c, 0, 64, 103
1, 441050, Control_c, 0, 64, 109
1, 441055, Note_off_c, 0, 69, 56
1, 441065, Control_c, 0, 64, 114
1, 441094, Control_c, 0, 64, 117
1, 441124, Control_c, 0, 64, 119
1, 441214, Note_on_c, 0, 57, 29
1, 441223, Note_on_c, 0, 61, 32
1, 441278, Note_off_c, 0, 57, 44
1, 441429, Note_off_c, 0, 61, 35
1, 441591, Control_c, 0, 64, 114
1, 441605, Control_c, 0, 64, 100
1, 441620, Control_c, 0, 64, 85
1, 441635, Control_c, 0, 64, 73
1, 441637, Note_on_c, 0, 62, 32
1, 441647, Note_on_c, 0, 57, 21
1, 441650, Control_c, 0, 64, 62
1, 441665, Control_c, 0, 64, 49
1, 441679, Control_c, 0, 64, 46
1, 441685, Note_on_c, 0, 76, 38
1, 441688, Note_on_c, 0, 64, 36
1, 441694, Control_c, 0, 64, 52
1, 441709, Control_c, 0, 64, 57
1, 441716, Note_off_c, 0, 76, 52
1, 441724, Control_c, 0, 64, 61
1, 441738, Control_c, 0, 64, 64
1, 441753, Control_c, 0, 64, 69
1, 441768, Control_c, 0, 64, 77
1, 441783, Control_c, 0, 64, 86
1, 441798, Control_c, 0, 64, 90
1, 441813, Control_c, 0, 64, 92
1, 441828, Control_c, 0, 64, 93
1, 441834, Note_off_c, 0, 64, 57
1, 441839, Note_on_c, 0, 66, 60
1, 441843, Control_c, 0, 64, 95
1, 441858, Control_c, 0, 64, 97
1, 441872, Control_c, 0, 64, 99
1, 441902, Control_c, 0, 64, 102
1, 441916, Control_c, 0, 64, 105
1, 441931, Control_c, 0, 64, 108
1, 441948, Note_off_c, 0, 66, 59
1, 441958, Note_on_c, 0, 68, 52
1, 441976, Control_c, 0, 64, 110
1, 441983, Note_off_c, 0, 68, 62
1, 442057, Control_c, 0, 64, 99
1, 442072, Control_c, 0, 64, 83
1, 442087, Control_c, 0, 64, 68
1, 442102, Control_c, 0, 64, 55
1, 442105, Note_on_c, 0, 68, 33
1, 442116, Control_c, 0, 64, 43
1, 442119, Note_on_c, 0, 76, 35
1, 442131, Control_c, 0, 64, 44
1, 442146, Control_c, 0, 64, 48
1, 442161, Control_c, 0, 64, 53
1, 442168, Note_off_c, 0, 68, 40
1, 442176, Control_c, 0, 64, 58
1, 442180, Note_off_c, 0, 57, 57
1, 442190, Control_c, 0, 64, 63
1, 442204, Note_off_c, 0, 76, 31
1, 442205, Control_c, 0, 64, 69
1, 442219, Note_on_c, 0, 69, 49
1, 442221, Control_c, 0, 64, 76
1, 442236, Control_c, 0, 64, 83
1, 442251, Control_c, 0, 64, 86
1, 442265, Control_c, 0, 64, 87
1, 442280, Control_c, 0, 64, 88
1, 442295, Control_c, 0, 64, 89
1, 442311, Note_off_c, 0, 69, 59
1, 442325, Control_c, 0, 64, 89
1, 442332, Note_on_c, 0, 71, 50
1, 442399, Control_c, 0, 64, 88
1, 442414, Control_c, 0, 64, 84
1, 442428, Control_c, 0, 64, 77
1, 442443, Control_c, 0, 64, 69
1, 442455, Note_off_c, 0, 62, 39
1, 442458, Control_c, 0, 64, 62
1, 442463, Note_off_c, 0, 71, 34
1, 442472, Control_c, 0, 64, 51
1, 442487, Control_c, 0, 64, 40
1, 442501, Note_on_c, 0, 57, 24
1, 442502, Note_on_c, 0, 69, 25
1, 442504, Note_on_c, 0, 76, 36
1, 442506, Note_on_c, 0, 61, 23
1, 442517, Control_c, 0, 64, 43
1, 442532, Control_c, 0, 64, 49
1, 442546, Control_c, 0, 64, 55
1, 442561, Control_c, 0, 64, 60
1, 442576, Control_c, 0, 64, 65
1, 442591, Control_c, 0, 64, 71
1, 442606, Control_c, 0, 64, 78
1, 442621, Control_c, 0, 64, 84
1, 442636, Control_c, 0, 64, 87
1, 442642, Note_off_c, 0, 57, 41
1, 442644, Note_off_c, 0, 61, 37
1, 442651, Control_c, 0, 64, 90
1, 442665, Control_c, 0, 64, 93
1, 442680, Control_c, 0, 64, 98
1, 442695, Control_c, 0, 64, 102
1, 442705, Note_off_c, 0, 76, 39
1, 442710, Control_c, 0, 64, 106
1, 442725, Control_c, 0, 64, 112
1, 442747, Control_c, 0, 64, 119
1, 442762, Control_c, 0, 64, 127
1, 442815, Note_off_c, 0, 69, 38
1, 442928, Note_on_c, 0, 61, 30
1, 442935, Note_on_c, 0, 57, 33
1, 443038, Note_off_c, 0, 57, 38
1, 443430, Control_c, 0, 64, 125
1, 443444, Control_c, 0, 64, 118
1, 443459, Control_c, 0, 64, 113
1, 443473, Note_off_c, 0, 61, 38
1, 443474, Control_c, 0, 64, 104
1, 443496, Control_c, 0, 64, 93
1, 443511, Control_c, 0, 64, 80
1, 443519, Note_on_c, 0, 62, 29
1, 443526, Control_c, 0, 64, 68
1, 443534, Note_on_c, 0, 57, 22
1, 443541, Control_c, 0, 64, 56
1, 443556, Note_on_c, 0, 76, 52
1, 443556, Control_c, 0, 64, 44
1, 443570, Control_c, 0, 64, 46
1, 443575, Note_on_c, 0, 64, 30
1, 443585, Control_c, 0, 64, 52
1, 443600, Control_c, 0, 64, 58
1, 443615, Control_c, 0, 64, 63
1, 443629, Control_c, 0, 64, 68
1, 443644, Control_c, 0, 64, 75
1, 443646, Note_off_c, 0, 76, 55
1, 443659, Control_c, 0, 64, 82
1, 443674, Control_c, 0, 64, 85
1, 443689, Control_c, 0, 64, 86
1, 443703, Control_c, 0, 64, 87
1, 443733, Control_c, 0, 64, 87
1, 443748, Control_c, 0, 64, 88
1, 443777, Control_c, 0, 64, 88
1, 443786, Note_on_c, 0, 66, 42
1, 443792, Control_c, 0, 64, 89
1, 443807, Control_c, 0, 64, 89
1, 443823, Note_off_c, 0, 64, 28
1, 443853, Control_c, 0, 64, 90
1, 443984, Note_on_c, 0, 68, 47
1, 444001, Note_off_c, 0, 66, 38
1, 444010, Note_off_c, 0, 68, 59
1, 444179, Control_c, 0, 64, 89
1, 444207, Control_c, 0, 64, 89
1, 444222, Control_c, 0, 64, 88
1, 444243, Control_c, 0, 64, 87
1, 444251, Note_on_c, 0, 68, 39
1, 444258, Control_c, 0, 64, 85
1, 444264, Note_on_c, 0, 76, 34
1, 444273, Control_c, 0, 64, 83
1, 444288, Control_c, 0, 64, 81
1, 444303, Control_c, 0, 64, 79
1, 444317, Control_c, 0, 64, 76
1, 444332, Control_c, 0, 64, 73
1, 444347, Control_c, 0, 64, 69
1, 444362, Control_c, 0, 64, 66
1, 444377, Control_c, 0, 64, 62
1, 444391, Control_c, 0, 64, 58
1, 444406, Control_c, 0, 64, 56
1, 444421, Control_c, 0, 64, 56
1, 444436, Control_c, 0, 64, 55
1, 444481, Control_c, 0, 64, 55
1, 444496, Control_c, 0, 64, 54
1, 444511, Control_c, 0, 64, 54
1, 444525, Control_c, 0, 64, 53
1, 444540, Control_c, 0, 64, 53
1, 444555, Control_c, 0, 64, 52
1, 444566, Note_off_c, 0, 68, 41
1, 444570, Control_c, 0, 64, 52
1, 444570, Note_on_c, 0, 69, 31
1, 444585, Control_c, 0, 64, 50
1, 444599, Control_c, 0, 64, 47
1, 444615, Control_c, 0, 64, 46
1, 444630, Control_c, 0, 64, 45
1, 444674, Control_c, 0, 64, 46
1, 444689, Control_c, 0, 64, 48
1, 444704, Control_c, 0, 64, 51
1, 444719, Control_c, 0, 64, 54
1, 444733, Control_c, 0, 64, 57
1, 444748, Control_c, 0, 64, 60
1, 444763, Control_c, 0, 64, 63
1, 444778, Control_c, 0, 64, 67
1, 444793, Control_c, 0, 64, 71
1, 444807, Control_c, 0, 64, 76
1, 444822, Control_c, 0, 64, 78
1, 444837, Control_c, 0, 64, 79
1, 444852, Control_c, 0, 64, 80
1, 444866, Control_c, 0, 64, 81
1, 444881, Control_c, 0, 64, 82
1, 444896, Control_c, 0, 64, 83
1, 444926, Control_c, 0, 64, 83
1, 444940, Control_c, 0, 64, 84
1, 444956, Control_c, 0, 64, 85
1, 444971, Control_c, 0, 64, 85
1, 445006, Note_on_c, 0, 71, 27
1, 445023, Control_c, 0, 64, 86
1, 445208, Note_off_c, 0, 57, 36
1, 445211, Note_off_c, 0, 62, 34
1, 445234, Note_off_c, 0, 69, 30
1, 445393, Control_c, 0, 64, 85
1, 445395, Note_off_c, 0, 76, 36
1, 445438, Control_c, 0, 64, 85
1, 445453, Control_c, 0, 64, 84
1, 445468, Control_c, 0, 64, 84
1, 445483, Control_c, 0, 64, 83
1, 445512, Control_c, 0, 64, 83
1, 445515, Note_off_c, 0, 71, 35
1, 445542, Control_c, 0, 64, 82
1, 445587, Control_c, 0, 64, 82
1, 445616, Control_c, 0, 64, 81
1, 445646, Control_c, 0, 64, 81
1, 445676, Control_c, 0, 64, 80
1, 445720, Control_c, 0, 64, 80
1, 445787, Control_c, 0, 64, 79
1, 445846, Control_c, 0, 64, 79
1, 445876, Control_c, 0, 64, 78
1, 445890, Control_c, 0, 64, 78
1, 445935, Control_c, 0, 64, 77
1, 445964, Control_c, 0, 64, 77
1, 446008, Control_c, 0, 64, 76
1, 446038, Control_c, 0, 64, 76
1, 446068, Control_c, 0, 64, 75
1, 446112, Control_c, 0, 64, 75
1, 446142, Control_c, 0, 64, 74
1, 446156, Control_c, 0, 64, 74
1, 446171, Control_c, 0, 64, 73
1, 446186, Control_c, 0, 64, 73
1, 446201, Control_c, 0, 64, 72
1, 446217, Control_c, 0, 64, 71
1, 446232, Control_c, 0, 64, 71
1, 446246, Control_c, 0, 64, 70
1, 446261, Control_c, 0, 64, 69
1, 446276, Control_c, 0, 64, 68
1, 446291, Control_c, 0, 64, 68
1, 446306, Control_c, 0, 64, 67
1, 446335, Control_c, 0, 64, 67
1, 446365, Control_c, 0, 64, 66
1, 446380, Control_c, 0, 64, 65
1, 446395, Control_c, 0, 64, 64
1, 446410, Control_c, 0, 64, 63
1, 446424, Control_c, 0, 64, 63
1, 446469, Control_c, 0, 64, 62
1, 446550, Control_c, 0, 64, 62
1, 446565, Control_c, 0, 64, 61
1, 446580, Control_c, 0, 64, 61
1, 446594, Control_c, 0, 64, 60
1, 446609, Control_c, 0, 64, 59
1, 446639, Control_c, 0, 64, 59
1, 446669, Control_c, 0, 64, 58
1, 446684, Control_c, 0, 64, 58
1, 446699, Control_c, 0, 64, 57
1, 446713, Control_c, 0, 64, 56
1, 446728, Control_c, 0, 64, 54
1, 446743, Control_c, 0, 64, 53
1, 446758, Control_c, 0, 64, 52
1, 446773, Control_c, 0, 64, 50
1, 446787, Control_c, 0, 64, 49
1, 446802, Control_c, 0, 64, 48
1, 446817, Control_c, 0, 64, 46
1, 446831, Control_c, 0, 64, 45
1, 446846, Control_c, 0, 64, 43
1, 446861, Control_c, 0, 64, 41
1, 446876, Control_c, 0, 64, 39
1, 446891, Control_c, 0, 64, 36
1, 446905, Control_c, 0, 64, 34
1, 446920, Control_c, 0, 64, 0
1, 447114, Control_c, 0, 64, 34
1, 447129, Control_c, 0, 64, 36
1, 447143, Control_c, 0, 64, 39
1, 447158, Control_c, 0, 64, 44
1, 447173, Control_c, 0, 64, 49
1, 447188, Control_c, 0, 64, 52
1, 447202, Control_c, 0, 64, 54
1, 447217, Control_c, 0, 64, 57
1, 447239, Control_c, 0, 64, 58
1, 447254, Control_c, 0, 64, 60
1, 447268, Control_c, 0, 64, 61
1, 447283, Control_c, 0, 64, 63
1, 447298, Control_c, 0, 64, 64
1, 447313, Control_c, 0, 64, 66
1, 447328, Control_c, 0, 64, 68
1, 447343, Control_c, 0, 64, 69
1, 447357, Control_c, 0, 64, 71
1, 447372, Control_c, 0, 64, 74
1, 447387, Control_c, 0, 64, 75
1, 447402, Control_c, 0, 64, 77
1, 447417, Control_c, 0, 64, 79
1, 447432, Control_c, 0, 64, 80
1, 447447, Control_c, 0, 64, 82
1, 447461, Control_c, 0, 64, 84
1, 447476, Control_c, 0, 64, 85
1, 447491, Control_c, 0, 64, 86
1, 447506, Control_c, 0, 64, 87
1, 447521, Control_c, 0, 64, 88
1, 447535, Control_c, 0, 64, 89
1, 447550, Control_c, 0, 64, 89
1, 447565, Control_c, 0, 64, 90
1, 447579, Control_c, 0, 64, 91
1, 447594, Control_c, 0, 64, 92
1, 447609, Control_c, 0, 64, 93
1, 447624, Control_c, 0, 64, 94
1, 447653, Control_c, 0, 64, 94
1, 447683, Control_c, 0, 64, 95
1, 447727, Control_c, 0, 64, 95
1, 448407, Note_on_c, 0, 73, 39
1, 448412, Note_on_c, 0, 81, 41
1, 448427, Note_on_c, 0, 69, 29
1, 448432, Note_on_c, 0, 57, 33
1, 448445, Note_on_c, 0, 61, 24
1, 448492, Control_c, 0, 64, 95
1, 448507, Control_c, 0, 64, 92
1, 448522, Control_c, 0, 64, 87
1, 448536, Control_c, 0, 64, 79
1, 448542, Note_off_c, 0, 57, 50
1, 448551, Control_c, 0, 64, 68
1, 448559, Note_off_c, 0, 61, 36
1, 448566, Control_c, 0, 64, 58
1, 448581, Control_c, 0, 64, 46
1, 448596, Control_c, 0, 64, 46
1, 448612, Control_c, 0, 64, 48
1, 448626, Control_c, 0, 64, 52
1, 448641, Control_c, 0, 64, 55
1, 448656, Control_c, 0, 64, 59
1, 448671, Control_c, 0, 64, 63
1, 448686, Control_c, 0, 64, 66
1, 448700, Control_c, 0, 64, 69
1, 448715, Control_c, 0, 64, 72
1, 448738, Control_c, 0, 64, 75
1, 448753, Control_c, 0, 64, 77
1, 448767, Control_c, 0, 64, 79
1, 448782, Control_c, 0, 64, 81
1, 448797, Control_c, 0, 64, 82
1, 448812, Control_c, 0, 64, 83
1, 448827, Control_c, 0, 64, 84
1, 448841, Control_c, 0, 64, 85
1, 448856, Control_c, 0, 64, 85
1, 448871, Control_c, 0, 64, 86
1, 448901, Control_c, 0, 64, 86
1, 448946, Note_on_c, 0, 45, 31
1, 449097, Note_off_c, 0, 45, 45
1, 449137, Control_c, 0, 64, 85
1, 449152, Control_c, 0, 64, 82
1, 449167, Control_c, 0, 64, 78
1, 449182, Control_c, 0, 64, 73
1, 449197, Control_c, 0, 64, 69
1, 449212, Control_c, 0, 64, 64
1, 449227, Control_c, 0, 64, 59
1, 449241, Control_c, 0, 64, 54
1, 449256, Control_c, 0, 64, 51
1, 449271, Control_c, 0, 64, 49
1, 449286, Control_c, 0, 64, 48
1, 449300, Control_c, 0, 64, 46
1, 449315, Control_c, 0, 64, 43
1, 449330, Control_c, 0, 64, 41
1, 449345, Control_c, 0, 64, 40
1, 449405, Control_c, 0, 64, 39
1, 449435, Control_c, 0, 64, 39
1, 449449, Control_c, 0, 64, 38
1, 449464, Control_c, 0, 64, 38
1, 449486, Control_c, 0, 64, 37
1, 450034, Control_c, 0, 64, 39
1, 450049, Control_c, 0, 64, 43
1, 450057, Note_on_c, 0, 61, 31
1, 450064, Control_c, 0, 64, 49
1, 450066, Note_on_c, 0, 57, 16
1, 450079, Control_c, 0, 64, 54
1, 450094, Control_c, 0, 64, 59
1, 450103, Note_off_c, 0, 61, 56
1, 450108, Control_c, 0, 64, 64
1, 450115, Note_off_c, 0, 57, 51
1, 450123, Control_c, 0, 64, 67
1, 450138, Control_c, 0, 64, 70
1, 450153, Note_off_c, 0, 69, 50
1, 450153, Control_c, 0, 64, 74
1, 450168, Control_c, 0, 64, 77
1, 450182, Control_c, 0, 64, 79
1, 450191, Note_off_c, 0, 73, 41
1, 450193, Note_off_c, 0, 81, 41
1, 450198, Control_c, 0, 64, 80
1, 450213, Control_c, 0, 64, 82
1, 450236, Control_c, 0, 64, 82
1, 450280, Control_c, 0, 64, 81
1, 450295, Control_c, 0, 64, 76
1, 450308, Note_on_c, 0, 81, 53
1, 450310, Control_c, 0, 64, 69
1, 450323, Note_on_c, 0, 62, 32
1, 450325, Control_c, 0, 64, 61
1, 450329, Note_on_c, 0, 74, 45
1, 450333, Note_on_c, 0, 59, 20
1, 450340, Control_c, 0, 64, 53
1, 450341, Note_on_c, 0, 71, 23
1, 450344, Note_on_c, 0, 69, 35
1, 450354, Control_c, 0, 64, 51
1, 450369, Control_c, 0, 64, 54
1, 450384, Control_c, 0, 64, 58
1, 450399, Control_c, 0, 64, 61
1, 450413, Control_c, 0, 64, 64
1, 450425, Note_off_c, 0, 62, 58
1, 450428, Control_c, 0, 64, 68
1, 450435, Note_off_c, 0, 59, 45
1, 450443, Control_c, 0, 64, 73
1, 450458, Control_c, 0, 64, 76
1, 450473, Control_c, 0, 64, 77
1, 450487, Control_c, 0, 64, 78
1, 450517, Control_c, 0, 64, 78
1, 450577, Control_c, 0, 64, 78
1, 450592, Control_c, 0, 64, 76
1, 450606, Control_c, 0, 64, 72
1, 450621, Control_c, 0, 64, 67
1, 450636, Control_c, 0, 64, 62
1, 450651, Control_c, 0, 64, 55
1, 450666, Control_c, 0, 64, 53
1, 450680, Control_c, 0, 64, 53
1, 450695, Control_c, 0, 64, 54
1, 450710, Control_c, 0, 64, 56
1, 450724, Control_c, 0, 64, 58
1, 450739, Control_c, 0, 64, 60
1, 450754, Control_c, 0, 64, 62
1, 450769, Control_c, 0, 64, 65
1, 450783, Note_on_c, 0, 45, 29
1, 450784, Control_c, 0, 64, 67
1, 450798, Control_c, 0, 64, 70
1, 450813, Control_c, 0, 64, 73
1, 450828, Control_c, 0, 64, 75
1, 450843, Control_c, 0, 64, 78
1, 450858, Control_c, 0, 64, 79
1, 450873, Control_c, 0, 64, 79
1, 450887, Control_c, 0, 64, 80
1, 450902, Control_c, 0, 64, 80
1, 450934, Note_off_c, 0, 45, 51
1, 450946, Control_c, 0, 64, 81
1, 451030, Control_c, 0, 64, 80
1, 451059, Control_c, 0, 64, 79
1, 451074, Control_c, 0, 64, 77
1, 451089, Control_c, 0, 64, 75
1, 451103, Control_c, 0, 64, 72
1, 451118, Control_c, 0, 64, 70
1, 451133, Control_c, 0, 64, 68
1, 451148, Control_c, 0, 64, 66
1, 451162, Control_c, 0, 64, 64
1, 451177, Control_c, 0, 64, 61
1, 451192, Control_c, 0, 64, 58
1, 451207, Control_c, 0, 64, 56
1, 451222, Control_c, 0, 64, 56
1, 451236, Control_c, 0, 64, 55
1, 451251, Control_c, 0, 64, 54
1, 451266, Control_c, 0, 64, 52
1, 451281, Control_c, 0, 64, 48
1, 451296, Control_c, 0, 64, 45
1, 451310, Control_c, 0, 64, 43
1, 451325, Control_c, 0, 64, 42
1, 451340, Control_c, 0, 64, 42
1, 451370, Control_c, 0, 64, 41
1, 451400, Control_c, 0, 64, 41
1, 451414, Control_c, 0, 64, 40
1, 451444, Control_c, 0, 64, 40
1, 451607, Control_c, 0, 64, 39
1, 451651, Control_c, 0, 64, 39
1, 451761, Control_c, 0, 64, 40
1, 451776, Control_c, 0, 64, 42
1, 451791, Control_c, 0, 64, 47
1, 451807, Control_c, 0, 64, 52
1, 451822, Control_c, 0, 64, 56
1, 451829, Note_on_c, 0, 59, 29
1, 451835, Note_on_c, 0, 62, 29
1, 451837, Control_c, 0, 64, 61
1, 451852, Control_c, 0, 64, 65
1, 451866, Control_c, 0, 64, 69
1, 451874, Note_off_c, 0, 74, 60
1, 451877, Note_off_c, 0, 59, 56
1, 451881, Control_c, 0, 64, 74
1, 451894, Note_off_c, 0, 62, 53
1, 451896, Control_c, 0, 64, 78
1, 451911, Control_c, 0, 64, 80
1, 451926, Control_c, 0, 64, 81
1, 451940, Control_c, 0, 64, 82
1, 451945, Note_off_c, 0, 71, 41
1, 451955, Control_c, 0, 64, 83
1, 451966, Note_off_c, 0, 81, 41
1, 451979, Note_off_c, 0, 69, 30
1, 452014, Control_c, 0, 64, 81
1, 452029, Control_c, 0, 64, 77
1, 452044, Control_c, 0, 64, 68
1, 452058, Control_c, 0, 64, 60
1, 452061, Note_on_c, 0, 69, 27
1, 452070, Note_on_c, 0, 61, 40
1, 452070, Note_on_c, 0, 73, 47
1, 452073, Control_c, 0, 64, 46
1, 452074, Note_on_c, 0, 81, 54
1, 452085, Note_on_c, 0, 64, 24
1, 452088, Control_c, 0, 64, 39
1, 452090, Note_on_c, 0, 76, 46
1, 452103, Control_c, 0, 64, 42
1, 452118, Control_c, 0, 64, 48
1, 452133, Control_c, 0, 64, 53
1, 452148, Control_c, 0, 64, 59
1, 452163, Control_c, 0, 64, 65
1, 452175, Note_off_c, 0, 64, 41
1, 452177, Control_c, 0, 64, 69
1, 452188, Note_off_c, 0, 61, 51
1, 452192, Control_c, 0, 64, 75
1, 452207, Control_c, 0, 64, 79
1, 452222, Control_c, 0, 64, 81
1, 452237, Control_c, 0, 64, 82
1, 452251, Control_c, 0, 64, 84
1, 452251, Control_c, 0, 67, 119
1, 452266, Control_c, 0, 64, 85
1, 452266, Control_c, 0, 67, 106
1, 452281, Control_c, 0, 64, 86
1, 452281, Control_c, 0, 67, 90
1, 452295, Control_c, 0, 64, 86
1, 452295, Control_c, 0, 67, 75
1, 452310, Control_c, 0, 64, 87
1, 452310, Control_c, 0, 67, 61
1, 452325, Control_c, 0, 64, 87
1, 452325, Control_c, 0, 67, 50
1, 452340, Control_c, 0, 67, 42
1, 452355, Control_c, 0, 67, 37
1, 452369, Control_c, 0, 67, 36
1, 452384, Control_c, 0, 67, 36
1, 452444, Control_c, 0, 64, 87
1, 452459, Control_c, 0, 64, 85
1, 452482, Control_c, 0, 64, 81
1, 452497, Control_c, 0, 64, 75
1, 452511, Control_c, 0, 64, 67
1, 452526, Control_c, 0, 64, 59
1, 452527, Note_on_c, 0, 45, 40
1, 452541, Control_c, 0, 64, 43
1, 452556, Control_c, 0, 64, 0
1, 452585, Control_c, 0, 67, 35
1, 452601, Control_c, 0, 67, 35
1, 452616, Control_c, 0, 67, 34
1, 452631, Control_c, 0, 64, 41
1, 452631, Control_c, 0, 67, 34
1, 452646, Control_c, 0, 64, 54
1, 452646, Control_c, 0, 67, 33
1, 452661, Control_c, 0, 64, 62
1, 452661, Control_c, 0, 67, 27
1, 452675, Control_c, 0, 64, 67
1, 452675, Control_c, 0, 67, 21
1, 452678, Note_off_c, 0, 45, 58
1, 452690, Control_c, 0, 64, 72
1, 452690, Control_c, 0, 67, 0
1, 452705, Control_c, 0, 64, 76
1, 452720, Control_c, 0, 64, 78
1, 452734, Control_c, 0, 64, 81
1, 452749, Control_c, 0, 64, 86
1, 452764, Control_c, 0, 64, 91
1, 452779, Control_c, 0, 64, 98
1, 452794, Control_c, 0, 64, 106
1, 452794, Control_c, 0, 67, 20
1, 452797, Note_off_c, 0, 73, 61
1, 452802, Note_off_c, 0, 81, 57
1, 452808, Control_c, 0, 64, 110
1, 452818, Note_off_c, 0, 69, 39
1, 452823, Control_c, 0, 67, 22
1, 452838, Control_c, 0, 64, 112
1, 452868, Control_c, 0, 67, 24
1, 452912, Control_c, 0, 67, 27
1, 452926, Control_c, 0, 64, 110
1, 452941, Control_c, 0, 64, 98
1, 452941, Control_c, 0, 67, 29
1, 452956, Control_c, 0, 64, 84
1, 452971, Note_on_c, 0, 62, 34
1, 452971, Control_c, 0, 64, 71
1, 452971, Control_c, 0, 67, 32
1, 452975, Note_on_c, 0, 81, 71
1, 452980, Note_off_c, 0, 76, 53
1, 452986, Control_c, 0, 64, 60
1, 452986, Control_c, 0, 67, 35
1, 452987, Note_on_c, 0, 66, 29
1, 452997, Note_on_c, 0, 78, 56
1, 452997, Note_on_c, 0, 74, 48
1, 453001, Control_c, 0, 64, 42
1, 453001, Control_c, 0, 67, 43
1, 453004, Note_on_c, 0, 69, 35
1, 453016, Control_c, 0, 64, 0
1, 453016, Control_c, 0, 67, 54
1, 453031, Control_c, 0, 67, 66
1, 453046, Control_c, 0, 67, 79
1, 453061, Control_c, 0, 64, 39
1, 453061, Control_c, 0, 67, 94
1, 453075, Control_c, 0, 64, 50
1, 453075, Control_c, 0, 67, 105
1, 453090, Control_c, 0, 64, 58
1, 453090, Control_c, 0, 67, 116
1, 453105, Control_c, 0, 64, 64
1, 453105, Control_c, 0, 67, 126
1, 453117, Note_off_c, 0, 66, 56
1, 453120, Control_c, 0, 64, 69
1, 453131, Note_off_c, 0, 62, 60
1, 453134, Control_c, 0, 64, 75
1, 453149, Control_c, 0, 64, 78
1, 453164, Control_c, 0, 64, 80
1, 453179, Control_c, 0, 64, 82
1, 453194, Control_c, 0, 64, 84
1, 453209, Control_c, 0, 64, 86
1, 453231, Control_c, 0, 64, 88
1, 453246, Control_c, 0, 64, 90
1, 453261, Control_c, 0, 64, 91
1, 453275, Control_c, 0, 64, 91
1, 453379, Control_c, 0, 64, 91
1, 453394, Control_c, 0, 64, 85
1, 453410, Control_c, 0, 64, 74
1, 453424, Control_c, 0, 64, 64
1, 453430, Note_on_c, 0, 45, 42
1, 453439, Control_c, 0, 64, 48
1, 453454, Control_c, 0, 64, 37
1, 453469, Control_c, 0, 64, 39
1, 453484, Control_c, 0, 64, 43
1, 453498, Control_c, 0, 64, 48
1, 453513, Control_c, 0, 64, 54
1, 453528, Control_c, 0, 64, 58
1, 453543, Control_c, 0, 64, 63
1, 453558, Control_c, 0, 64, 67
1, 453564, Note_off_c, 0, 45, 53
1, 453573, Control_c, 0, 64, 73
1, 453588, Control_c, 0, 64, 79
1, 453602, Control_c, 0, 64, 83
1, 453617, Control_c, 0, 64, 86
1, 453632, Control_c, 0, 64, 88
1, 453647, Control_c, 0, 64, 91
1, 453662, Control_c, 0, 64, 93
1, 453677, Control_c, 0, 64, 96
1, 453692, Control_c, 0, 64, 100
1, 453706, Control_c, 0, 64, 103
1, 453737, Note_off_c, 0, 78, 54
1, 453745, Note_off_c, 0, 74, 56
1, 453746, Note_off_c, 0, 81, 52
1, 453760, Note_off_c, 0, 69, 39
1, 453765, Control_c, 0, 64, 105
1, 454025, Control_c, 0, 64, 99
1, 454039, Control_c, 0, 64, 85
1, 454054, Control_c, 0, 64, 72
1, 454063, Note_on_c, 0, 64, 30
1, 454066, Note_on_c, 0, 81, 49
1, 454069, Control_c, 0, 64, 62
1, 454076, Note_on_c, 0, 69, 36
1, 454083, Control_c, 0, 64, 47
1, 454086, Note_on_c, 0, 74, 45
1, 454091, Note_on_c, 0, 67, 13
1, 454094, Note_on_c, 0, 79, 34
1, 454098, Control_c, 0, 64, 39
1, 454113, Control_c, 0, 64, 43
1, 454128, Control_c, 0, 64, 50
1, 454143, Control_c, 0, 64, 56
1, 454157, Control_c, 0, 64, 61
1, 454172, Control_c, 0, 64, 66
1, 454187, Control_c, 0, 64, 72
1, 454194, Note_off_c, 0, 67, 46
1, 454203, Control_c, 0, 64, 79
1, 454212, Note_off_c, 0, 64, 54
1, 454218, Control_c, 0, 64, 82
1, 454233, Control_c, 0, 64, 84
1, 454247, Control_c, 0, 64, 86
1, 454262, Control_c, 0, 64, 89
1, 454277, Control_c, 0, 64, 91
1, 454292, Control_c, 0, 64, 93
1, 454307, Control_c, 0, 64, 94
1, 454321, Control_c, 0, 64, 95
1, 454332, Note_off_c, 0, 74, 59
1, 454336, Control_c, 0, 64, 95
1, 454351, Control_c, 0, 64, 96
1, 454386, Note_off_c, 0, 69, 56
1, 454514, Control_c, 0, 64, 95
1, 454529, Control_c, 0, 64, 93
1, 454544, Control_c, 0, 64, 90
1, 454559, Control_c, 0, 64, 86
1, 454573, Control_c, 0, 64, 83
1, 454588, Control_c, 0, 64, 79
1, 454595, Note_on_c, 0, 45, 41
1, 454603, Control_c, 0, 64, 76
1, 454618, Control_c, 0, 64, 73
1, 454633, Control_c, 0, 64, 69
1, 454646, Note_on_c, 0, 73, 44
1, 454647, Control_c, 0, 64, 66
1, 454662, Control_c, 0, 64, 64
1, 454677, Control_c, 0, 64, 61
1, 454692, Control_c, 0, 64, 59
1, 454706, Control_c, 0, 64, 57
1, 454729, Control_c, 0, 64, 56
1, 454738, Note_off_c, 0, 73, 55
1, 454744, Control_c, 0, 64, 55
1, 454759, Control_c, 0, 64, 54
1, 454774, Control_c, 0, 64, 51
1, 454788, Control_c, 0, 64, 49
1, 454803, Control_c, 0, 64, 48
1, 454818, Control_c, 0, 64, 48
1, 454848, Control_c, 0, 64, 47
1, 454862, Control_c, 0, 64, 47
1, 454880, Note_on_c, 0, 71, 47
1, 454892, Control_c, 0, 64, 46
1, 454921, Control_c, 0, 64, 46
1, 454939, Note_off_c, 0, 71, 51
1, 454980, Control_c, 0, 64, 45
1, 454996, Control_c, 0, 64, 45
1, 455026, Control_c, 0, 64, 44
1, 455056, Control_c, 0, 64, 44
1, 455085, Control_c, 0, 64, 43
1, 455100, Control_c, 0, 64, 43
1, 455129, Control_c, 0, 64, 42
1, 455144, Control_c, 0, 64, 40
1, 455147, Note_on_c, 0, 73, 49
1, 455159, Control_c, 0, 64, 40
1, 455189, Control_c, 0, 64, 40
1, 455203, Control_c, 0, 64, 42
1, 455218, Control_c, 0, 64, 45
1, 455230, Note_off_c, 0, 45, 42
1, 455233, Control_c, 0, 64, 50
1, 455248, Control_c, 0, 64, 53
1, 455263, Control_c, 0, 64, 57
1, 455278, Control_c, 0, 64, 62
1, 455293, Control_c, 0, 64, 67
1, 455308, Control_c, 0, 64, 73
1, 455322, Control_c, 0, 64, 79
1, 455337, Control_c, 0, 64, 85
1, 455352, Control_c, 0, 64, 89
1, 455367, Control_c, 0, 64, 93
1, 455382, Control_c, 0, 64, 97
1, 455396, Control_c, 0, 64, 102
1, 455397, Note_off_c, 0, 81, 55
1, 455411, Control_c, 0, 64, 109
1, 455426, Control_c, 0, 64, 119
1, 455441, Control_c, 0, 64, 127
1, 455597, Note_on_c, 0, 81, 57
1, 455631, Note_off_c, 0, 73, 44
1, 455687, Note_off_c, 0, 79, 44
1, 455790, Note_on_c, 0, 45, 41
1, 456026, Note_off_c, 0, 45, 41
1, 456071, Control_c, 0, 64, 117
1, 456086, Control_c, 0, 64, 109
1, 456087, Note_on_c, 0, 50, 31
1, 456091, Note_on_c, 0, 78, 48
1, 456099, Note_on_c, 0, 74, 45
1, 456100, Control_c, 0, 64, 103
1, 456109, Note_on_c, 0, 69, 30
1, 456115, Control_c, 0, 64, 98
1, 456130, Control_c, 0, 64, 92
1, 456145, Control_c, 0, 64, 87
1, 456160, Control_c, 0, 64, 81
1, 456174, Note_off_c, 0, 81, 39
1, 456175, Control_c, 0, 64, 74
1, 456187, Note_off_c, 0, 50, 53
1, 456190, Control_c, 0, 64, 68
1, 456205, Control_c, 0, 64, 62
1, 456226, Control_c, 0, 64, 55
1, 456241, Control_c, 0, 64, 47
1, 456256, Control_c, 0, 64, 45
1, 456270, Control_c, 0, 64, 44
1, 456285, Control_c, 0, 64, 44
1, 456300, Control_c, 0, 64, 43
1, 456315, Control_c, 0, 64, 42
1, 456330, Control_c, 0, 64, 41
1, 456345, Control_c, 0, 64, 41
1, 456360, Control_c, 0, 64, 40
1, 456596, Note_on_c, 0, 62, 30
1, 456688, Note_off_c, 0, 62, 56
1, 457398, Note_on_c, 0, 59, 39
1, 457446, Note_off_c, 0, 59, 58
1, 457617, Note_on_c, 0, 57, 50
1, 457643, Control_c, 0, 64, 40
1, 457658, Note_off_c, 0, 57, 62
1, 457740, Control_c, 0, 64, 41
1, 457755, Control_c, 0, 64, 44
1, 457770, Control_c, 0, 64, 50
1, 457785, Control_c, 0, 64, 56
1, 457799, Control_c, 0, 64, 61
1, 457814, Control_c, 0, 64, 66
1, 457823, Note_on_c, 0, 55, 49
1, 457829, Control_c, 0, 64, 74
1, 457843, Control_c, 0, 64, 83
1, 457858, Control_c, 0, 64, 91
1, 457866, Note_off_c, 0, 55, 59
1, 457866, Note_off_c, 0, 69, 52
1, 457873, Control_c, 0, 64, 97
1, 457888, Control_c, 0, 64, 103
1, 457903, Control_c, 0, 64, 109
1, 457910, Note_off_c, 0, 78, 54
1, 457917, Control_c, 0, 64, 116
1, 457932, Control_c, 0, 64, 127
1, 458080, Control_c, 0, 64, 117
1, 458088, Note_on_c, 0, 78, 65
1, 458095, Control_c, 0, 64, 101
1, 458098, Note_on_c, 0, 54, 40
1, 458110, Control_c, 0, 64, 87
1, 458113, Note_on_c, 0, 70, 43
1, 458113, Note_on_c, 0, 76, 52
1, 458125, Control_c, 0, 64, 72
1, 458139, Control_c, 0, 64, 61
1, 458154, Control_c, 0, 64, 42
1, 458169, Control_c, 0, 64, 0
1, 458214, Control_c, 0, 64, 39
1, 458229, Control_c, 0, 64, 50
1, 458235, Note_off_c, 0, 54, 62
1, 458244, Control_c, 0, 64, 58
1, 458259, Control_c, 0, 64, 64
1, 458274, Control_c, 0, 64, 68
1, 458288, Control_c, 0, 64, 74
1, 458303, Control_c, 0, 64, 78
1, 458318, Control_c, 0, 64, 81
1, 458319, Note_off_c, 0, 74, 31
1, 458333, Control_c, 0, 64, 82
1, 458348, Control_c, 0, 64, 83
1, 458408, Control_c, 0, 64, 82
1, 458422, Control_c, 0, 64, 78
1, 458435, Control_c, 0, 64, 73
1, 458450, Control_c, 0, 64, 67
1, 458472, Control_c, 0, 64, 63
1, 458487, Control_c, 0, 64, 57
1, 458502, Control_c, 0, 64, 53
1, 458517, Control_c, 0, 64, 51
1, 458532, Control_c, 0, 64, 50
1, 458546, Control_c, 0, 64, 48
1, 458561, Control_c, 0, 64, 46
1, 458566, Note_on_c, 0, 42, 38
1, 458576, Control_c, 0, 64, 44
1, 458591, Control_c, 0, 64, 43
1, 458620, Control_c, 0, 64, 43
1, 458716, Note_off_c, 0, 42, 52
1, 458724, Control_c, 0, 64, 42
1, 458739, Control_c, 0, 64, 42
1, 458753, Control_c, 0, 64, 41
1, 458768, Control_c, 0, 64, 40
1, 458783, Control_c, 0, 64, 39
1, 458798, Control_c, 0, 64, 38
1, 458813, Control_c, 0, 64, 38
1, 458887, Control_c, 0, 64, 39
1, 458902, Control_c, 0, 64, 43
1, 458917, Control_c, 0, 64, 48
1, 458932, Control_c, 0, 64, 52
1, 458946, Control_c, 0, 64, 55
1, 458961, Control_c, 0, 64, 58
1, 458976, Control_c, 0, 64, 62
1, 458992, Control_c, 0, 64, 65
1, 459007, Control_c, 0, 64, 70
1, 459022, Control_c, 0, 64, 75
1, 459036, Control_c, 0, 64, 78
1, 459051, Control_c, 0, 64, 81
1, 459066, Control_c, 0, 64, 86
1, 459081, Control_c, 0, 64, 94
1, 459095, Control_c, 0, 64, 107
1, 459110, Control_c, 0, 64, 127
1, 459540, Note_on_c, 0, 79, 50
1, 459729, Note_off_c, 0, 76, 24
1, 459745, Note_on_c, 0, 42, 40
1, 459755, Note_off_c, 0, 70, 41
1, 459761, Note_off_c, 0, 78, 32
1, 459765, Note_off_c, 0, 79, 38
1, 459916, Note_off_c, 0, 42, 45
1, 460015, Note_on_c, 0, 79, 48
1, 460026, Note_on_c, 0, 47, 38
1, 460029, Control_c, 0, 64, 115
1, 460035, Note_on_c, 0, 71, 38
1, 460044, Control_c, 0, 64, 99
1, 460049, Note_on_c, 0, 76, 36
1, 460059, Control_c, 0, 64, 89
1, 460074, Control_c, 0, 64, 81
1, 460078, Note_off_c, 0, 47, 62
1, 460089, Control_c, 0, 64, 73
1, 460104, Control_c, 0, 64, 65
1, 460118, Control_c, 0, 64, 55
1, 460133, Control_c, 0, 64, 43
1, 460148, Control_c, 0, 64, 37
1, 460192, Control_c, 0, 64, 37
1, 460207, Control_c, 0, 64, 36
1, 460222, Control_c, 0, 64, 36
1, 460251, Control_c, 0, 64, 35
1, 460266, Control_c, 0, 64, 35
1, 460325, Control_c, 0, 64, 34
1, 460378, Note_off_c, 0, 79, 52
1, 460385, Control_c, 0, 64, 34
1, 460420, Note_on_c, 0, 59, 36
1, 460429, Control_c, 0, 64, 35
1, 460435, Note_on_c, 0, 78, 51
1, 460444, Control_c, 0, 64, 41
1, 460450, Note_on_c, 0, 74, 49
1, 460459, Control_c, 0, 64, 50
1, 460468, Note_off_c, 0, 59, 59
1, 460473, Control_c, 0, 64, 56
1, 460488, Control_c, 0, 64, 61
1, 460503, Control_c, 0, 64, 66
1, 460518, Control_c, 0, 64, 72
1, 460524, Note_off_c, 0, 76, 38
1, 460533, Control_c, 0, 64, 79
1, 460548, Control_c, 0, 64, 86
1, 460559, Note_off_c, 0, 71, 52
1, 460562, Control_c, 0, 64, 90
1, 460577, Control_c, 0, 64, 94
1, 460593, Control_c, 0, 64, 98
1, 460601, Note_off_c, 0, 74, 60
1, 460608, Control_c, 0, 64, 102
1, 460623, Control_c, 0, 64, 106
1, 460637, Control_c, 0, 64, 110
1, 460697, Control_c, 0, 64, 112
1, 460735, Note_on_c, 0, 47, 38
1, 460809, Control_c, 0, 64, 107
1, 460823, Control_c, 0, 64, 97
1, 460834, Note_off_c, 0, 47, 52
1, 460838, Control_c, 0, 64, 85
1, 460843, Note_off_c, 0, 78, 54
1, 460849, Note_on_c, 0, 76, 56
1, 460853, Control_c, 0, 64, 74
1, 460867, Control_c, 0, 64, 64
1, 460870, Note_on_c, 0, 50, 37
1, 460878, Note_on_c, 0, 73, 36
1, 460882, Note_on_c, 0, 66, 30
1, 460882, Control_c, 0, 64, 49
1, 460897, Control_c, 0, 64, 0
1, 460908, Note_off_c, 0, 50, 59
1, 460971, Control_c, 0, 64, 42
1, 460986, Control_c, 0, 64, 56
1, 461001, Control_c, 0, 64, 64
1, 461016, Control_c, 0, 64, 71
1, 461031, Control_c, 0, 64, 75
1, 461046, Control_c, 0, 64, 78
1, 461050, Note_off_c, 0, 73, 54
1, 461060, Control_c, 0, 64, 79
1, 461075, Control_c, 0, 64, 81
1, 461090, Control_c, 0, 64, 83
1, 461105, Control_c, 0, 64, 85
1, 461120, Control_c, 0, 64, 87
1, 461135, Control_c, 0, 64, 88
1, 461149, Control_c, 0, 64, 89
1, 461164, Control_c, 0, 64, 89
1, 461223, Control_c, 0, 64, 83
1, 461238, Control_c, 0, 64, 73
1, 461251, Note_on_c, 0, 74, 51
1, 461251, Note_off_c, 0, 76, 44
1, 461253, Control_c, 0, 64, 63
1, 461264, Note_on_c, 0, 62, 35
1, 461267, Control_c, 0, 64, 52
1, 461282, Control_c, 0, 64, 45
1, 461288, Note_on_c, 0, 71, 27
1, 461297, Control_c, 0, 64, 49
1, 461312, Control_c, 0, 64, 57
1, 461317, Note_off_c, 0, 62, 52
1, 461327, Control_c, 0, 64, 61
1, 461341, Control_c, 0, 64, 65
1, 461356, Control_c, 0, 64, 70
1, 461371, Control_c, 0, 64, 75
1, 461387, Control_c, 0, 64, 78
1, 461402, Control_c, 0, 64, 79
1, 461417, Control_c, 0, 64, 81
1, 461431, Control_c, 0, 64, 82
1, 461446, Control_c, 0, 64, 84
1, 461466, Note_off_c, 0, 71, 41
1, 461469, Control_c, 0, 64, 85
1, 461484, Control_c, 0, 64, 86
1, 461492, Note_off_c, 0, 66, 52
1, 461538, Note_on_c, 0, 50, 38
1, 461661, Control_c, 0, 64, 85
1, 461676, Control_c, 0, 64, 83
1, 461690, Control_c, 0, 64, 79
1, 461693, Note_on_c, 0, 52, 37
1, 461694, Note_on_c, 0, 73, 43
1, 461703, Note_on_c, 0, 64, 31
1, 461704, Note_off_c, 0, 50, 32
1, 461705, Note_on_c, 0, 69, 35
1, 461705, Control_c, 0, 64, 75
1, 461715, Note_off_c, 0, 74, 35
1, 461720, Control_c, 0, 64, 68
1, 461735, Control_c, 0, 64, 62
1, 461750, Control_c, 0, 64, 52
1, 461752, Note_off_c, 0, 52, 52
1, 461764, Control_c, 0, 64, 40
1, 461779, Control_c, 0, 64, 33
1, 461794, Control_c, 0, 64, 0
1, 462196, Note_on_c, 0, 40, 22
1, 462287, Note_off_c, 0, 40, 53
1, 462557, Control_c, 0, 64, 34
1, 462572, Control_c, 0, 64, 39
1, 462587, Control_c, 0, 64, 44
1, 462602, Control_c, 0, 64, 48
1, 462617, Control_c, 0, 64, 53
1, 462631, Control_c, 0, 64, 57
1, 462646, Control_c, 0, 64, 61
1, 462661, Control_c, 0, 64, 64
1, 462676, Control_c, 0, 64, 66
1, 462691, Control_c, 0, 64, 71
1, 462705, Control_c, 0, 64, 76
1, 462720, Control_c, 0, 64, 81
1, 462735, Control_c, 0, 64, 85
1, 462750, Control_c, 0, 64, 89
1, 462764, Control_c, 0, 64, 94
1, 462779, Control_c, 0, 64, 99
1, 462794, Control_c, 0, 64, 105
1, 462809, Control_c, 0, 64, 116
1, 462824, Control_c, 0, 64, 127
1, 462979, Note_off_c, 0, 73, 54
1, 462980, Note_off_c, 0, 64, 53
1, 463016, Note_off_c, 0, 69, 40
1, 463352, Note_on_c, 0, 51, 36
1, 463603, Control_c, 0, 64, 105
1, 463612, Note_off_c, 0, 51, 40
1, 463613, Note_on_c, 0, 52, 36
1, 463618, Control_c, 0, 64, 94
1, 463623, Note_on_c, 0, 62, 34
1, 463626, Note_on_c, 0, 71, 36
1, 463633, Note_on_c, 0, 69, 32
1, 463633, Control_c, 0, 64, 84
1, 463648, Control_c, 0, 64, 75
1, 463660, Note_on_c, 0, 64, 24
1, 463662, Control_c, 0, 64, 65
1, 463677, Control_c, 0, 64, 55
1, 463692, Control_c, 0, 64, 37
1, 463714, Control_c, 0, 64, 0
1, 463721, Note_off_c, 0, 52, 56
1, 463804, Control_c, 0, 64, 44
1, 463818, Control_c, 0, 64, 55
1, 463833, Control_c, 0, 64, 61
1, 463848, Control_c, 0, 64, 65
1, 463863, Control_c, 0, 64, 67
1, 463878, Control_c, 0, 64, 70
1, 463885, Note_off_c, 0, 64, 49
1, 463893, Control_c, 0, 64, 72
1, 463907, Control_c, 0, 64, 74
1, 463922, Control_c, 0, 64, 75
1, 463937, Control_c, 0, 64, 77
1, 463952, Control_c, 0, 64, 79
1, 463958, Note_off_c, 0, 69, 39
1, 463967, Control_c, 0, 64, 80
1, 463982, Control_c, 0, 64, 81
1, 463997, Control_c, 0, 64, 82
1, 464041, Control_c, 0, 64, 83
1, 464117, Note_on_c, 0, 40, 14
1, 464139, Note_on_c, 0, 68, 38
1, 464322, Control_c, 0, 64, 82
1, 464324, Note_off_c, 0, 40, 34
1, 464337, Control_c, 0, 64, 81
1, 464352, Control_c, 0, 64, 80
1, 464367, Control_c, 0, 64, 79
1, 464372, Note_off_c, 0, 68, 45
1, 464377, Note_on_c, 0, 66, 39
1, 464381, Control_c, 0, 64, 78
1, 464396, Control_c, 0, 64, 77
1, 464411, Control_c, 0, 64, 75
1, 464426, Control_c, 0, 64, 74
1, 464441, Control_c, 0, 64, 73
1, 464463, Control_c, 0, 64, 71
1, 464478, Control_c, 0, 64, 69
1, 464492, Control_c, 0, 64, 67
1, 464507, Control_c, 0, 64, 65
1, 464522, Control_c, 0, 64, 63
1, 464536, Control_c, 0, 64, 61
1, 464551, Control_c, 0, 64, 60
1, 464566, Control_c, 0, 64, 59
1, 464582, Control_c, 0, 64, 58
1, 464597, Control_c, 0, 64, 57
1, 464611, Note_off_c, 0, 66, 40
1, 464612, Control_c, 0, 64, 55
1, 464627, Control_c, 0, 64, 52
1, 464628, Note_on_c, 0, 68, 42
1, 464641, Control_c, 0, 64, 48
1, 464656, Control_c, 0, 64, 43
1, 464671, Control_c, 0, 64, 38
1, 464686, Control_c, 0, 64, 36
1, 464715, Control_c, 0, 64, 37
1, 464730, Control_c, 0, 64, 41
1, 464745, Control_c, 0, 64, 47
1, 464760, Control_c, 0, 64, 53
1, 464775, Control_c, 0, 64, 59
1, 464790, Control_c, 0, 64, 63
1, 464805, Control_c, 0, 64, 68
1, 464820, Control_c, 0, 64, 73
1, 464834, Control_c, 0, 64, 77
1, 464849, Control_c, 0, 64, 81
1, 464864, Control_c, 0, 64, 85
1, 464879, Control_c, 0, 64, 88
1, 464894, Control_c, 0, 64, 92
1, 464908, Control_c, 0, 64, 96
1, 464923, Control_c, 0, 64, 100
1, 464938, Control_c, 0, 64, 102
1, 464957, Note_off_c, 0, 71, 34
1, 464967, Control_c, 0, 64, 104
1, 465034, Note_off_c, 0, 68, 59
1, 465137, Note_off_c, 0, 62, 48
1, 465258, Note_on_c, 0, 40, 26
1, 465577, Note_off_c, 0, 40, 36
1, 465578, Note_on_c, 0, 69, 43
1, 465580, Note_on_c, 0, 61, 32
1, 465583, Control_c, 0, 64, 101
1, 465597, Note_on_c, 0, 57, 30
1, 465598, Control_c, 0, 64, 97
1, 465599, Note_on_c, 0, 49, 31
1, 465608, Note_on_c, 0, 45, 27
1, 465613, Control_c, 0, 64, 92
1, 465627, Control_c, 0, 64, 87
1, 465642, Control_c, 0, 64, 82
1, 465657, Control_c, 0, 64, 77
1, 465672, Control_c, 0, 64, 72
1, 465687, Control_c, 0, 64, 67
1, 465702, Control_c, 0, 64, 60
1, 465707, Note_off_c, 0, 49, 39
1, 465714, Note_off_c, 0, 45, 31
1, 465717, Control_c, 0, 64, 53
1, 465731, Control_c, 0, 64, 46
1, 465746, Control_c, 0, 64, 42
1, 465761, Control_c, 0, 64, 40
1, 465790, Control_c, 0, 64, 40
1, 465820, Control_c, 0, 64, 41
1, 465835, Control_c, 0, 64, 44
1, 465850, Control_c, 0, 64, 48
1, 465864, Control_c, 0, 64, 52
1, 465879, Control_c, 0, 64, 55
1, 465894, Control_c, 0, 64, 60
1, 465909, Control_c, 0, 64, 63
1, 465924, Control_c, 0, 64, 65
1, 465938, Control_c, 0, 64, 68
1, 465961, Control_c, 0, 64, 72
1, 465976, Control_c, 0, 64, 74
1, 465990, Control_c, 0, 64, 76
1, 466005, Control_c, 0, 64, 79
1, 466020, Control_c, 0, 64, 81
1, 466035, Control_c, 0, 64, 82
1, 466050, Control_c, 0, 64, 84
1, 466064, Control_c, 0, 64, 85
1, 466079, Control_c, 0, 64, 85
1, 466094, Control_c, 0, 64, 86
1, 466098, Note_on_c, 0, 33, 38
1, 466258, Control_c, 0, 64, 85
1, 466259, Note_off_c, 0, 33, 38
1, 466273, Control_c, 0, 64, 84
1, 466287, Control_c, 0, 64, 81
1, 466302, Control_c, 0, 64, 79
1, 466317, Control_c, 0, 64, 76
1, 466332, Control_c, 0, 64, 73
1, 466347, Control_c, 0, 64, 70
1, 466361, Control_c, 0, 64, 67
1, 466376, Control_c, 0, 64, 63
1, 466391, Control_c, 0, 64, 60
1, 466405, Control_c, 0, 64, 57
1, 466420, Control_c, 0, 64, 55
1, 466435, Control_c, 0, 64, 54
1, 466450, Control_c, 0, 64, 52
1, 466465, Control_c, 0, 64, 51
1, 466480, Control_c, 0, 64, 49
1, 466495, Control_c, 0, 64, 47
1, 466510, Control_c, 0, 64, 45
1, 466525, Control_c, 0, 64, 44
1, 466540, Control_c, 0, 64, 42
1, 466554, Control_c, 0, 64, 41
1, 466569, Control_c, 0, 64, 40
1, 466584, Control_c, 0, 64, 39
1, 466598, Control_c, 0, 64, 38
1, 466613, Control_c, 0, 64, 36
1, 466628, Control_c, 0, 64, 35
1, 466643, Control_c, 0, 64, 34
1, 466658, Control_c, 0, 64, 33
1, 466672, Control_c, 0, 64, 33
1, 466724, Control_c, 0, 64, 0
1, 467214, Control_c, 0, 64, 33
1, 467228, Control_c, 0, 64, 35
1, 467243, Control_c, 0, 64, 39
1, 467258, Control_c, 0, 64, 45
1, 467273, Control_c, 0, 64, 51
1, 467288, Note_on_c, 0, 49, 41
1, 467288, Control_c, 0, 64, 57
1, 467295, Note_on_c, 0, 45, 36
1, 467303, Control_c, 0, 64, 61
1, 467318, Control_c, 0, 64, 65
1, 467333, Control_c, 0, 64, 69
1, 467336, Note_off_c, 0, 49, 59
1, 467346, Note_off_c, 0, 45, 46
1, 467347, Control_c, 0, 64, 72
1, 467362, Control_c, 0, 64, 74
1, 467371, Note_off_c, 0, 57, 54
1, 467375, Note_off_c, 0, 61, 51
1, 467377, Control_c, 0, 64, 76
1, 467392, Control_c, 0, 64, 76
1, 467407, Control_c, 0, 64, 77
1, 467408, Note_off_c, 0, 69, 37
1, 467473, Control_c, 0, 64, 76
1, 467488, Control_c, 0, 64, 73
1, 467502, Control_c, 0, 64, 66
1, 467517, Control_c, 0, 64, 59
1, 467532, Control_c, 0, 64, 47
1, 467547, Note_on_c, 0, 69, 50
1, 467547, Control_c, 0, 64, 41
1, 467562, Control_c, 0, 64, 44
1, 467564, Note_on_c, 0, 62, 41
1, 467566, Note_on_c, 0, 50, 32
1, 467577, Control_c, 0, 64, 50
1, 467583, Note_on_c, 0, 57, 36
1, 467583, Note_on_c, 0, 59, 37
1, 467592, Control_c, 0, 64, 57
1, 467594, Note_on_c, 0, 47, 13
1, 467607, Control_c, 0, 64, 62
1, 467622, Control_c, 0, 64, 67
1, 467636, Control_c, 0, 64, 73
1, 467651, Control_c, 0, 64, 77
1, 467663, Note_off_c, 0, 47, 57
1, 467663, Note_off_c, 0, 50, 52
1, 467666, Control_c, 0, 64, 79
1, 467681, Control_c, 0, 64, 80
1, 467696, Control_c, 0, 64, 81
1, 467696, Control_c, 0, 67, 108
1, 467710, Control_c, 0, 64, 82
1, 467710, Control_c, 0, 67, 85
1, 467725, Control_c, 0, 64, 83
1, 467725, Control_c, 0, 67, 63
1, 467740, Control_c, 0, 67, 47
1, 467754, Control_c, 0, 64, 83
1, 467754, Control_c, 0, 67, 33
1, 467769, Control_c, 0, 67, 20
1, 467785, Control_c, 0, 67, 0
1, 467830, Control_c, 0, 64, 83
1, 467845, Control_c, 0, 64, 81
1, 467859, Control_c, 0, 64, 79
1, 467874, Control_c, 0, 64, 76
1, 467889, Control_c, 0, 64, 71
1, 467904, Control_c, 0, 64, 67
1, 467919, Control_c, 0, 64, 63
1, 467933, Control_c, 0, 64, 59
1, 467948, Control_c, 0, 64, 55
1, 467963, Control_c, 0, 64, 52
1, 467977, Control_c, 0, 64, 50
1, 467992, Control_c, 0, 64, 47
1, 468007, Control_c, 0, 64, 45
1, 468022, Control_c, 0, 64, 41
1, 468037, Control_c, 0, 64, 37
1, 468051, Control_c, 0, 64, 34
1, 468056, Note_on_c, 0, 33, 33
1, 468066, Control_c, 0, 64, 0
1, 468259, Note_off_c, 0, 33, 47
1, 469061, Control_c, 0, 64, 33
1, 469075, Control_c, 0, 64, 40
1, 469090, Control_c, 0, 64, 48
1, 469105, Control_c, 0, 64, 52
1, 469120, Control_c, 0, 64, 57
1, 469134, Control_c, 0, 64, 60
1, 469149, Control_c, 0, 64, 63
1, 469164, Control_c, 0, 64, 67
1, 469169, Note_on_c, 0, 50, 37
1, 469172, Note_on_c, 0, 47, 41
1, 469179, Control_c, 0, 64, 71
1, 469190, Note_off_c, 0, 62, 54
1, 469194, Control_c, 0, 64, 76
1, 469208, Control_c, 0, 64, 79
1, 469222, Note_off_c, 0, 47, 59
1, 469223, Control_c, 0, 64, 81
1, 469238, Control_c, 0, 64, 82
1, 469253, Control_c, 0, 64, 84
1, 469255, Note_off_c, 0, 50, 48
1, 469268, Control_c, 0, 64, 85
1, 469269, Note_off_c, 0, 59, 38
1, 469285, Note_off_c, 0, 57, 36
1, 469288, Note_off_c, 0, 69, 40
1, 469297, Control_c, 0, 64, 85
1, 469342, Control_c, 0, 64, 85
1, 469357, Control_c, 0, 64, 81
1, 469372, Control_c, 0, 64, 74
1, 469387, Control_c, 0, 64, 64
1, 469402, Control_c, 0, 64, 48
1, 469417, Control_c, 0, 64, 0
1, 469434, Note_on_c, 0, 69, 43
1, 469444, Note_on_c, 0, 49, 35
1, 469445, Note_on_c, 0, 57, 35
1, 469447, Note_on_c, 0, 52, 31
1, 469454, Note_on_c, 0, 61, 37
1, 469466, Note_on_c, 0, 64, 27
1, 469491, Control_c, 0, 64, 48
1, 469506, Control_c, 0, 64, 59
1, 469521, Control_c, 0, 64, 66
1, 469529, Note_off_c, 0, 52, 55
1, 469535, Control_c, 0, 64, 70
1, 469550, Control_c, 0, 64, 74
1, 469565, Control_c, 0, 64, 76
1, 469577, Note_off_c, 0, 49, 55
1, 469580, Control_c, 0, 64, 78
1, 469595, Control_c, 0, 64, 80
1, 469610, Control_c, 0, 64, 83
1, 469624, Control_c, 0, 64, 85
1, 469639, Control_c, 0, 64, 87
1, 469654, Control_c, 0, 64, 88
1, 469669, Control_c, 0, 64, 90
1, 469684, Control_c, 0, 64, 92
1, 469705, Control_c, 0, 64, 93
1, 469720, Control_c, 0, 64, 93
1, 469750, Control_c, 0, 64, 94
1, 469839, Control_c, 0, 64, 93
1, 469854, Control_c, 0, 64, 87
1, 469869, Control_c, 0, 64, 78
1, 469883, Control_c, 0, 64, 65
1, 469898, Control_c, 0, 64, 53
1, 469904, Note_on_c, 0, 33, 43
1, 469913, Control_c, 0, 64, 37
1, 469928, Control_c, 0, 64, 35
1, 469943, Control_c, 0, 64, 40
1, 469957, Control_c, 0, 64, 48
1, 469972, Control_c, 0, 64, 55
1, 469987, Control_c, 0, 64, 62
1, 470002, Control_c, 0, 64, 67
1, 470017, Control_c, 0, 64, 75
1, 470031, Control_c, 0, 64, 83
1, 470045, Note_off_c, 0, 33, 60
1, 470046, Control_c, 0, 64, 90
1, 470061, Control_c, 0, 64, 95
1, 470075, Control_c, 0, 64, 100
1, 470090, Control_c, 0, 64, 107
1, 470105, Control_c, 0, 64, 115
1, 470120, Control_c, 0, 64, 127
1, 470130, Note_off_c, 0, 61, 39
1, 470136, Note_off_c, 0, 69, 30
1, 470172, Note_off_c, 0, 57, 32
1, 470299, Control_c, 0, 64, 120
1, 470310, Note_off_c, 0, 64, 35
1, 470313, Control_c, 0, 64, 96
1, 470328, Control_c, 0, 64, 78
1, 470339, Note_on_c, 0, 50, 39
1, 470342, Note_on_c, 0, 69, 54
1, 470343, Control_c, 0, 64, 65
1, 470345, Note_on_c, 0, 53, 41
1, 470355, Note_on_c, 0, 65, 46
1, 470358, Control_c, 0, 64, 54
1, 470370, Note_on_c, 0, 57, 22
1, 470373, Control_c, 0, 64, 50
1, 470373, Note_on_c, 0, 62, 28
1, 470388, Control_c, 0, 64, 56
1, 470403, Control_c, 0, 64, 60
1, 470418, Control_c, 0, 64, 64
1, 470433, Control_c, 0, 64, 71
1, 470454, Control_c, 0, 64, 81
1, 470469, Note_off_c, 0, 53, 61
1, 470469, Control_c, 0, 64, 91
1, 470470, Note_off_c, 0, 57, 56
1, 470480, Note_off_c, 0, 65, 62
1, 470484, Control_c, 0, 64, 99
1, 470485, Note_off_c, 0, 62, 60
1, 470498, Note_off_c, 0, 69, 61
1, 470498, Note_off_c, 0, 50, 51
1, 470499, Control_c, 0, 64, 104
1, 470513, Control_c, 0, 64, 108
1, 470528, Control_c, 0, 64, 114
1, 470543, Control_c, 0, 64, 127
1, 470751, Control_c, 0, 64, 107
1, 470763, Note_on_c, 0, 71, 76
1, 470766, Control_c, 0, 64, 83
1, 470775, Note_on_c, 0, 38, 45
1, 470778, Note_on_c, 0, 59, 49
1, 470780, Control_c, 0, 64, 66
1, 470781, Note_on_c, 0, 67, 55
1, 470785, Note_on_c, 0, 65, 57
1, 470795, Control_c, 0, 64, 53
1, 470810, Control_c, 0, 64, 49
1, 470825, Control_c, 0, 64, 55
1, 470840, Control_c, 0, 64, 60
1, 470854, Control_c, 0, 64, 64
1, 470869, Control_c, 0, 64, 72
1, 470884, Control_c, 0, 64, 84
1, 470898, Control_c, 0, 64, 97
1, 470913, Control_c, 0, 64, 106
1, 470924, Note_off_c, 0, 59, 57
1, 470928, Control_c, 0, 64, 110
1, 470943, Control_c, 0, 64, 112
1, 470958, Control_c, 0, 64, 114
1, 470974, Control_c, 0, 64, 117
1, 470987, Note_off_c, 0, 38, 48
1, 470994, Note_off_c, 0, 71, 56
1, 471003, Control_c, 0, 64, 119
1, 471015, Note_off_c, 0, 67, 57
1, 471053, Note_off_c, 0, 65, 37
1, 471336, Control_c, 0, 64, 116
1, 471351, Control_c, 0, 64, 111
1, 471363, Note_on_c, 0, 48, 38
1, 471366, Control_c, 0, 64, 104
1, 471381, Control_c, 0, 64, 94
1, 471395, Control_c, 0, 64, 85
1, 471397, Note_on_c, 0, 72, 53
1, 471410, Control_c, 0, 64, 75
1, 471416, Note_on_c, 0, 67, 38
1, 471419, Note_on_c, 0, 60, 28
1, 471425, Control_c, 0, 64, 65
1, 471431, Note_on_c, 0, 65, 43
1, 471440, Control_c, 0, 64, 52
1, 471455, Control_c, 0, 64, 34
1, 471470, Control_c, 0, 64, 0
1, 471485, Control_c, 0, 64, 39
1, 471500, Control_c, 0, 64, 46
1, 471515, Control_c, 0, 64, 54
1, 471529, Control_c, 0, 64, 62
1, 471544, Control_c, 0, 64, 67
1, 471559, Control_c, 0, 64, 74
1, 471574, Control_c, 0, 64, 81
1, 471589, Control_c, 0, 64, 83
1, 471603, Control_c, 0, 64, 84
1, 471618, Control_c, 0, 64, 85
1, 471633, Control_c, 0, 64, 85
1, 471647, Note_off_c, 0, 48, 42
1, 471647, Control_c, 0, 64, 86
1, 471657, Note_off_c, 0, 65, 58
1, 471662, Control_c, 0, 64, 86
1, 471702, Note_off_c, 0, 60, 42
1, 471886, Control_c, 0, 64, 85
1, 471900, Control_c, 0, 64, 81
1, 471915, Control_c, 0, 64, 75
1, 471926, Note_on_c, 0, 36, 30
1, 471930, Control_c, 0, 64, 67
1, 471952, Control_c, 0, 64, 59
1, 471967, Control_c, 0, 64, 45
1, 471982, Control_c, 0, 64, 38
1, 471997, Control_c, 0, 64, 42
1, 472012, Control_c, 0, 64, 48
1, 472026, Control_c, 0, 64, 53
1, 472041, Control_c, 0, 64, 59
1, 472049, Note_on_c, 0, 64, 34
1, 472056, Control_c, 0, 64, 64
1, 472070, Control_c, 0, 64, 67
1, 472085, Control_c, 0, 64, 71
1, 472100, Control_c, 0, 64, 74
1, 472115, Control_c, 0, 64, 75
1, 472130, Control_c, 0, 64, 76
1, 472144, Control_c, 0, 64, 77
1, 472159, Control_c, 0, 64, 78
1, 472174, Control_c, 0, 64, 79
1, 472193, Note_off_c, 0, 36, 39
1, 472204, Control_c, 0, 67, 20
1, 472218, Control_c, 0, 67, 23
1, 472248, Control_c, 0, 67, 27
1, 472261, Note_off_c, 0, 64, 53
1, 472263, Control_c, 0, 67, 30
1, 472267, Note_on_c, 0, 62, 54
1, 472278, Control_c, 0, 67, 34
1, 472293, Control_c, 0, 67, 39
1, 472308, Control_c, 0, 67, 48
1, 472323, Control_c, 0, 67, 57
1, 472337, Control_c, 0, 64, 78
1, 472337, Control_c, 0, 67, 68
1, 472352, Control_c, 0, 64, 78
1, 472352, Control_c, 0, 67, 81
1, 472367, Control_c, 0, 64, 77
1, 472367, Control_c, 0, 67, 93
1, 472382, Control_c, 0, 64, 76
1, 472382, Control_c, 0, 67, 104
1, 472397, Control_c, 0, 64, 75
1, 472397, Control_c, 0, 67, 113
1, 472412, Control_c, 0, 64, 73
1, 472412, Control_c, 0, 67, 122
1, 472426, Control_c, 0, 64, 72
1, 472426, Control_c, 0, 67, 127
1, 472441, Control_c, 0, 64, 71
1, 472456, Control_c, 0, 64, 69
1, 472470, Control_c, 0, 64, 66
1, 472485, Control_c, 0, 64, 62
1, 472487, Note_off_c, 0, 62, 57
1, 472500, Control_c, 0, 64, 55
1, 472503, Note_on_c, 0, 64, 42
1, 472515, Control_c, 0, 64, 45
1, 472530, Control_c, 0, 64, 0
1, 472605, Control_c, 0, 64, 34
1, 472608, Note_off_c, 0, 67, 59
1, 472620, Control_c, 0, 64, 48
1, 472635, Control_c, 0, 64, 60
1, 472649, Control_c, 0, 64, 65
1, 472662, Control_c, 0, 64, 70
1, 472677, Control_c, 0, 64, 73
1, 472699, Control_c, 0, 64, 75
1, 472714, Control_c, 0, 64, 77
1, 472729, Control_c, 0, 64, 78
1, 472744, Control_c, 0, 64, 80
1, 472759, Control_c, 0, 64, 82
1, 472773, Control_c, 0, 64, 85
1, 472788, Control_c, 0, 64, 86
1, 472803, Control_c, 0, 64, 87
1, 472847, Control_c, 0, 64, 87
1, 472972, Note_on_c, 0, 74, 50
1, 473002, Note_off_c, 0, 72, 34
1, 473154, Note_off_c, 0, 74, 54
1, 473161, Note_on_c, 0, 48, 35
1, 473180, Note_on_c, 0, 70, 45
1, 473214, Note_off_c, 0, 48, 45
1, 473214, Note_off_c, 0, 70, 55
1, 473246, Note_off_c, 0, 64, 39
1, 473396, Control_c, 0, 64, 87
1, 473427, Control_c, 0, 64, 86
1, 473449, Control_c, 0, 64, 84
1, 473460, Note_on_c, 0, 53, 38
1, 473464, Control_c, 0, 64, 82
1, 473479, Control_c, 0, 64, 80
1, 473486, Note_on_c, 0, 69, 37
1, 473494, Control_c, 0, 64, 78
1, 473496, Note_on_c, 0, 60, 38
1, 473508, Note_on_c, 0, 65, 28
1, 473509, Control_c, 0, 64, 75
1, 473523, Control_c, 0, 64, 71
1, 473538, Control_c, 0, 64, 67
1, 473553, Control_c, 0, 64, 62
1, 473568, Control_c, 0, 64, 55
1, 473583, Control_c, 0, 64, 49
1, 473597, Control_c, 0, 64, 46
1, 473612, Control_c, 0, 64, 44
1, 473614, Note_off_c, 0, 53, 44
1, 473627, Control_c, 0, 64, 42
1, 473641, Control_c, 0, 64, 39
1, 473656, Control_c, 0, 64, 34
1, 473671, Control_c, 0, 64, 0
1, 473959, Note_on_c, 0, 41, 27
1, 474121, Note_off_c, 0, 41, 55
1, 474709, Note_on_c, 0, 41, 44
1, 474756, Note_off_c, 0, 41, 56
1, 474916, Note_on_c, 0, 43, 50
1, 474924, Control_c, 0, 67, 115
1, 474946, Control_c, 0, 67, 103
1, 474961, Control_c, 0, 67, 93
1, 474965, Note_off_c, 0, 43, 61
1, 474976, Control_c, 0, 67, 85
1, 474991, Control_c, 0, 67, 79
1, 475006, Control_c, 0, 67, 74
1, 475021, Control_c, 0, 67, 69
1, 475036, Control_c, 0, 67, 63
1, 475050, Control_c, 0, 67, 57
1, 475065, Control_c, 0, 64, 33
1, 475065, Control_c, 0, 67, 49
1, 475080, Control_c, 0, 64, 42
1, 475080, Control_c, 0, 67, 37
1, 475095, Control_c, 0, 64, 50
1, 475095, Control_c, 0, 67, 25
1, 475110, Control_c, 0, 64, 58
1, 475110, Control_c, 0, 67, 0
1, 475125, Control_c, 0, 64, 63
1, 475126, Note_on_c, 0, 45, 50
1, 475140, Control_c, 0, 64, 67
1, 475154, Control_c, 0, 64, 72
1, 475163, Note_off_c, 0, 45, 57
1, 475169, Control_c, 0, 64, 78
1, 475175, Note_off_c, 0, 60, 51
1, 475184, Control_c, 0, 64, 82
1, 475199, Control_c, 0, 64, 86
1, 475213, Control_c, 0, 64, 91
1, 475220, Note_off_c, 0, 69, 50
1, 475228, Control_c, 0, 64, 96
1, 475243, Control_c, 0, 64, 101
1, 475258, Control_c, 0, 64, 106
1, 475288, Control_c, 0, 64, 108
1, 475387, Note_off_c, 0, 65, 45
1, 475396, Note_on_c, 0, 37, 39
1, 475396, Note_on_c, 0, 69, 52
1, 475406, Control_c, 0, 64, 105
1, 475418, Note_on_c, 0, 64, 44
1, 475420, Control_c, 0, 64, 98
1, 475425, Note_on_c, 0, 57, 40
1, 475435, Control_c, 0, 64, 90
1, 475450, Control_c, 0, 64, 81
1, 475465, Control_c, 0, 64, 69
1, 475480, Control_c, 0, 64, 60
1, 475494, Control_c, 0, 64, 43
1, 475509, Control_c, 0, 64, 0
1, 475515, Note_off_c, 0, 37, 49
1, 475959, Note_on_c, 0, 49, 48
1, 476108, Note_off_c, 0, 49, 59
1, 476171, Control_c, 0, 67, 19
1, 476185, Control_c, 0, 67, 22
1, 476200, Control_c, 0, 67, 25
1, 476215, Control_c, 0, 67, 31
1, 476230, Control_c, 0, 67, 39
1, 476244, Control_c, 0, 64, 34
1, 476244, Control_c, 0, 67, 50
1, 476259, Control_c, 0, 64, 40
1, 476259, Control_c, 0, 67, 64
1, 476274, Control_c, 0, 64, 46
1, 476274, Control_c, 0, 67, 78
1, 476289, Control_c, 0, 64, 51
1, 476289, Control_c, 0, 67, 92
1, 476304, Control_c, 0, 64, 56
1, 476304, Control_c, 0, 67, 104
1, 476318, Control_c, 0, 64, 61
1, 476318, Control_c, 0, 67, 116
1, 476333, Control_c, 0, 64, 64
1, 476333, Control_c, 0, 67, 127
1, 476348, Control_c, 0, 64, 68
1, 476363, Control_c, 0, 64, 73
1, 476378, Control_c, 0, 64, 78
1, 476392, Control_c, 0, 64, 81
1, 476406, Control_c, 0, 64, 86
1, 476421, Control_c, 0, 64, 93
1, 476443, Control_c, 0, 64, 102
1, 476458, Control_c, 0, 64, 117
1, 476473, Control_c, 0, 64, 127
1, 476865, Note_on_c, 0, 68, 43
1, 476932, Note_off_c, 0, 69, 35
1, 476996, Note_off_c, 0, 64, 59
1, 477012, Note_off_c, 0, 57, 42
1, 477037, Note_off_c, 0, 68, 62
1, 477065, Note_on_c, 0, 37, 36
1, 477311, Control_c, 0, 64, 122
1, 477318, Note_off_c, 0, 37, 40
1, 477326, Control_c, 0, 64, 110
1, 477340, Control_c, 0, 64, 102
1, 477341, Note_on_c, 0, 38, 40
1, 477346, Note_on_c, 0, 68, 47
1, 477353, Note_on_c, 0, 64, 36
1, 477355, Control_c, 0, 64, 94
1, 477368, Note_on_c, 0, 57, 31
1, 477371, Control_c, 0, 64, 87
1, 477386, Control_c, 0, 64, 79
1, 477401, Control_c, 0, 64, 70
1, 477415, Control_c, 0, 64, 62
1, 477430, Control_c, 0, 64, 51
1, 477444, Note_off_c, 0, 38, 61
1, 477445, Control_c, 0, 64, 36
1, 477460, Control_c, 0, 64, 0
1, 477727, Note_off_c, 0, 68, 47
1, 477791, Note_on_c, 0, 66, 44
1, 477793, Note_on_c, 0, 62, 26
1, 477801, Note_on_c, 0, 50, 36
1, 477830, Control_c, 0, 64, 33
1, 477840, Note_off_c, 0, 50, 54
1, 477845, Control_c, 0, 64, 41
1, 477860, Control_c, 0, 64, 49
1, 477875, Control_c, 0, 64, 58
1, 477889, Control_c, 0, 64, 63
1, 477904, Control_c, 0, 64, 67
1, 477919, Control_c, 0, 64, 71
1, 477937, Note_off_c, 0, 64, 39
1, 477942, Control_c, 0, 64, 73
1, 477948, Note_off_c, 0, 57, 46
1, 477956, Control_c, 0, 64, 75
1, 477964, Note_off_c, 0, 62, 54
1, 477971, Control_c, 0, 64, 76
1, 477986, Control_c, 0, 64, 77
1, 478001, Control_c, 0, 64, 79
1, 478015, Control_c, 0, 64, 81
1, 478030, Control_c, 0, 64, 82
1, 478045, Control_c, 0, 64, 83
1, 478112, Note_on_c, 0, 34, 39
1, 478134, Control_c, 0, 64, 82
1, 478148, Control_c, 0, 64, 78
1, 478165, Control_c, 0, 64, 74
1, 478177, Note_off_c, 0, 34, 55
1, 478180, Control_c, 0, 64, 68
1, 478190, Note_off_c, 0, 66, 54
1, 478194, Control_c, 0, 64, 61
1, 478198, Note_on_c, 0, 64, 40
1, 478209, Control_c, 0, 64, 49
1, 478210, Note_on_c, 0, 35, 47
1, 478222, Note_on_c, 0, 54, 28
1, 478224, Control_c, 0, 64, 0
1, 478247, Note_on_c, 0, 61, 37
1, 478255, Note_off_c, 0, 35, 60
1, 478312, Control_c, 0, 64, 35
1, 478327, Control_c, 0, 64, 49
1, 478342, Control_c, 0, 64, 59
1, 478357, Control_c, 0, 64, 64
1, 478372, Control_c, 0, 64, 66
1, 478383, Note_off_c, 0, 61, 54
1, 478386, Control_c, 0, 64, 68
1, 478401, Control_c, 0, 64, 70
1, 478416, Control_c, 0, 64, 71
1, 478430, Control_c, 0, 64, 73
1, 478445, Control_c, 0, 64, 75
1, 478460, Control_c, 0, 64, 78
1, 478475, Control_c, 0, 64, 80
1, 478490, Control_c, 0, 64, 81
1, 478505, Control_c, 0, 64, 82
1, 478550, Control_c, 0, 64, 82
1, 478565, Control_c, 0, 64, 78
1, 478579, Control_c, 0, 64, 70
1, 478593, Note_off_c, 0, 64, 51
1, 478594, Control_c, 0, 64, 62
1, 478597, Note_on_c, 0, 47, 46
1, 478609, Control_c, 0, 64, 49
1, 478617, Note_on_c, 0, 62, 41
1, 478624, Control_c, 0, 64, 35
1, 478633, Note_off_c, 0, 47, 65
1, 478638, Control_c, 0, 64, 36
1, 478642, Note_on_c, 0, 59, 15
1, 478654, Control_c, 0, 64, 45
1, 478669, Control_c, 0, 64, 52
1, 478691, Control_c, 0, 64, 60
1, 478706, Control_c, 0, 64, 65
1, 478720, Control_c, 0, 64, 69
1, 478735, Control_c, 0, 64, 73
1, 478750, Control_c, 0, 64, 75
1, 478764, Control_c, 0, 64, 76
1, 478779, Control_c, 0, 64, 78
1, 478794, Control_c, 0, 64, 79
1, 478809, Control_c, 0, 64, 81
1, 478824, Control_c, 0, 64, 82
1, 478830, Note_off_c, 0, 59, 40
1, 478839, Control_c, 0, 64, 83
1, 478846, Note_off_c, 0, 54, 41
1, 478854, Control_c, 0, 64, 84
1, 478906, Note_on_c, 0, 35, 40
1, 478973, Note_off_c, 0, 35, 50
1, 479018, Control_c, 0, 64, 82
1, 479033, Control_c, 0, 64, 79
1, 479044, Note_on_c, 0, 61, 40
1, 479047, Control_c, 0, 64, 73
1, 479054, Note_off_c, 0, 62, 40
1, 479062, Note_on_c, 0, 40, 21
1, 479062, Control_c, 0, 64, 68
1, 479063, Note_on_c, 0, 52, 32
1, 479075, Note_on_c, 0, 57, 29
1, 479077, Control_c, 0, 64, 62
1, 479092, Control_c, 0, 64, 52
1, 479101, Note_off_c, 0, 40, 52
1, 479107, Control_c, 0, 64, 39
1, 479122, Control_c, 0, 64, 0
1, 479493, Note_on_c, 0, 40, 30
1, 479584, Note_off_c, 0, 40, 51
1, 479900, Control_c, 0, 64, 33
1, 479915, Control_c, 0, 64, 40
1, 479930, Control_c, 0, 64, 46
1, 479945, Control_c, 0, 64, 53
1, 479959, Control_c, 0, 64, 58
1, 479974, Control_c, 0, 64, 62
1, 479989, Control_c, 0, 64, 65
1, 480004, Control_c, 0, 64, 67
1, 480018, Control_c, 0, 64, 69
1, 480033, Control_c, 0, 64, 72
1, 480048, Control_c, 0, 64, 75
1, 480063, Control_c, 0, 64, 79
1, 480077, Control_c, 0, 64, 83
1, 480092, Control_c, 0, 64, 87
1, 480107, Control_c, 0, 64, 90
1, 480122, Control_c, 0, 64, 94
1, 480137, Control_c, 0, 64, 98
1, 480151, Control_c, 0, 64, 101
1, 480156, Note_off_c, 0, 61, 56
1, 480166, Control_c, 0, 64, 104
1, 480171, Note_off_c, 0, 52, 41
1, 480189, Control_c, 0, 64, 106
1, 480194, Note_off_c, 0, 57, 41
1, 480204, Control_c, 0, 64, 108
1, 480233, Control_c, 0, 64, 110
1, 480583, Note_on_c, 0, 39, 39
1, 480738, Control_c, 0, 64, 107
1, 480753, Control_c, 0, 64, 105
1, 480782, Control_c, 0, 64, 101
1, 480797, Control_c, 0, 64, 98
1, 480812, Control_c, 0, 64, 95
1, 480826, Control_c, 0, 64, 91
1, 480841, Control_c, 0, 64, 86
1, 480856, Control_c, 0, 64, 81
1, 480871, Control_c, 0, 64, 75
1, 480872, Note_on_c, 0, 40, 21
1, 480874, Note_on_c, 0, 59, 33
1, 480880, Note_off_c, 0, 39, 37
1, 480886, Control_c, 0, 64, 69
1, 480891, Note_on_c, 0, 57, 27
1, 480901, Control_c, 0, 64, 64
1, 480902, Note_on_c, 0, 50, 18
1, 480905, Note_on_c, 0, 52, 7
1, 480915, Control_c, 0, 64, 56
1, 480937, Control_c, 0, 64, 46
1, 480949, Note_off_c, 0, 40, 56
1, 480952, Control_c, 0, 64, 35
1, 480967, Control_c, 0, 64, 0
1, 481041, Control_c, 0, 64, 39
1, 481056, Control_c, 0, 64, 49
1, 481071, Control_c, 0, 64, 58
1, 481086, Control_c, 0, 64, 63
1, 481101, Control_c, 0, 64, 66
1, 481115, Control_c, 0, 64, 69
1, 481130, Control_c, 0, 64, 71
1, 481140, Note_off_c, 0, 52, 39
1, 481145, Control_c, 0, 64, 73
1, 481159, Control_c, 0, 64, 75
1, 481167, Note_off_c, 0, 57, 41
1, 481174, Control_c, 0, 64, 76
1, 481189, Control_c, 0, 64, 78
1, 481204, Control_c, 0, 64, 79
1, 481219, Control_c, 0, 64, 80
1, 481233, Control_c, 0, 64, 81
1, 481263, Control_c, 0, 64, 81
1, 481346, Note_on_c, 0, 40, 15
1, 481361, Note_on_c, 0, 56, 33
1, 481575, Control_c, 0, 64, 81
1, 481585, Note_on_c, 0, 54, 39
1, 481611, Note_off_c, 0, 56, 39
1, 481649, Control_c, 0, 64, 80
1, 481686, Control_c, 0, 64, 80
1, 481707, Note_off_c, 0, 40, 32
1, 481716, Control_c, 0, 64, 79
1, 481731, Control_c, 0, 64, 78
1, 481745, Control_c, 0, 64, 77
1, 481760, Control_c, 0, 64, 74
1, 481775, Control_c, 0, 64, 71
1, 481790, Control_c, 0, 64, 66
1, 481805, Control_c, 0, 64, 59
1, 481820, Control_c, 0, 64, 49
1, 481835, Control_c, 0, 64, 35
1, 481847, Note_on_c, 0, 56, 30
1, 481850, Control_c, 0, 64, 0
1, 481864, Control_c, 0, 64, 33
1, 481879, Control_c, 0, 64, 35
1, 481894, Control_c, 0, 64, 40
1, 481908, Control_c, 0, 64, 48
1, 481923, Control_c, 0, 64, 57
1, 481938, Control_c, 0, 64, 64
1, 481953, Control_c, 0, 64, 68
1, 481968, Control_c, 0, 64, 73
1, 481982, Control_c, 0, 64, 76
1, 481987, Note_off_c, 0, 54, 34
1, 481997, Control_c, 0, 64, 78
1, 482012, Control_c, 0, 64, 79
1, 482027, Control_c, 0, 64, 81
1, 482042, Control_c, 0, 64, 83
1, 482056, Control_c, 0, 64, 84
1, 482071, Control_c, 0, 64, 84
1, 482086, Control_c, 0, 64, 85
1, 482100, Control_c, 0, 64, 85
1, 482132, Note_off_c, 0, 59, 35
1, 482191, Control_c, 0, 64, 85
1, 482205, Control_c, 0, 64, 80
1, 482220, Control_c, 0, 64, 71
1, 482235, Control_c, 0, 64, 61
1, 482250, Control_c, 0, 64, 50
1, 482265, Control_c, 0, 64, 48
1, 482279, Control_c, 0, 64, 50
1, 482294, Control_c, 0, 64, 54
1, 482309, Control_c, 0, 64, 57
1, 482324, Control_c, 0, 64, 62
1, 482339, Control_c, 0, 64, 66
1, 482353, Control_c, 0, 64, 71
1, 482368, Control_c, 0, 64, 75
1, 482383, Control_c, 0, 64, 77
1, 482398, Control_c, 0, 64, 78
1, 482413, Control_c, 0, 64, 78
1, 482435, Control_c, 0, 64, 80
1, 482450, Control_c, 0, 64, 81
1, 482463, Note_on_c, 0, 40, 27
1, 482465, Control_c, 0, 64, 81
1, 482479, Control_c, 0, 64, 82
1, 482494, Control_c, 0, 64, 83
1, 482509, Control_c, 0, 64, 83
1, 482524, Note_off_c, 0, 56, 54
1, 482524, Control_c, 0, 64, 84
1, 482529, Note_off_c, 0, 40, 44
1, 482531, Note_off_c, 0, 50, 41
1, 482765, Note_on_c, 0, 33, 22
1, 482776, Control_c, 0, 64, 80
1, 482791, Control_c, 0, 64, 73
1, 482805, Control_c, 0, 64, 65
1, 482820, Control_c, 0, 64, 54
1, 482835, Control_c, 0, 64, 39
1, 482837, Note_on_c, 0, 57, 34
1, 482849, Note_on_c, 0, 49, 31
1, 482850, Control_c, 0, 64, 40
1, 482865, Note_on_c, 0, 52, 17
1, 482865, Control_c, 0, 64, 46
1, 482879, Control_c, 0, 64, 53
1, 482894, Control_c, 0, 64, 61
1, 482909, Control_c, 0, 64, 66
1, 482924, Control_c, 0, 64, 72
1, 482938, Control_c, 0, 64, 78
1, 482954, Control_c, 0, 64, 82
1, 482969, Control_c, 0, 64, 84
1, 482984, Control_c, 0, 64, 85
1, 482999, Control_c, 0, 64, 86
1, 483008, Note_on_c, 0, 37, 31
1, 483014, Control_c, 0, 64, 87
1, 483020, Note_off_c, 0, 33, 34
1, 483025, Note_off_c, 0, 57, 46
1, 483028, Control_c, 0, 64, 87
1, 483043, Control_c, 0, 64, 88
1, 483048, Note_off_c, 0, 52, 40
1, 483096, Note_off_c, 0, 49, 40
1, 483110, Note_on_c, 0, 40, 29
1, 483253, Note_on_c, 0, 45, 44
1, 483406, Note_on_c, 0, 49, 39
1, 483441, Note_off_c, 0, 49, 61
1, 483502, Note_on_c, 0, 52, 40
1, 483606, Note_off_c, 0, 52, 35
1, 483625, Note_on_c, 0, 57, 43
1, 483722, Note_off_c, 0, 57, 53
1, 483748, Note_on_c, 0, 61, 44
1, 483781, Note_off_c, 0, 61, 63
1, 483838, Control_c, 0, 64, 88
1, 483871, Note_on_c, 0, 64, 40
1, 483888, Note_off_c, 0, 45, 34
1, 483898, Note_off_c, 0, 40, 33
1, 483900, Note_off_c, 0, 37, 36
1, 483939, Note_off_c, 0, 64, 40
1, 483963, Control_c, 0, 64, 89
1, 483993, Note_on_c, 0, 69, 44
1, 484008, Control_c, 0, 64, 89
1, 484038, Control_c, 0, 64, 90
1, 484052, Control_c, 0, 64, 91
1, 484067, Control_c, 0, 64, 92
1, 484082, Control_c, 0, 64, 94
1, 484097, Control_c, 0, 64, 95
1, 484103, Note_off_c, 0, 69, 49
1, 484115, Note_on_c, 0, 73, 50
1, 484141, Control_c, 0, 64, 98
1, 484149, Note_off_c, 0, 73, 65
1, 484156, Control_c, 0, 64, 100
1, 484185, Control_c, 0, 64, 102
1, 484215, Control_c, 0, 64, 105
1, 484230, Control_c, 0, 64, 107
1, 484259, Control_c, 0, 64, 110
1, 484282, Poly_aftertouch_c, 0, 76, 127
1, 484289, Control_c, 0, 64, 112
1, 484343, Poly_aftertouch_c, 0, 76, 0
1, 484348, Control_c, 0, 64, 114
1, 484398, Note_on_c, 0, 81, 50
1, 484467, Control_c, 0, 64, 118
1, 484474, Note_off_c, 0, 81, 47
1, 484496, Control_c, 0, 64, 122
1, 484511, Control_c, 0, 64, 125
1, 484526, Control_c, 0, 64, 127
1, 484890, Note_on_c, 0, 69, 31
1, 484952, Note_on_c, 0, 73, 38
1, 485036, Note_on_c, 0, 76, 36
1, 485075, Note_on_c, 0, 93, 47
1, 485085, Note_on_c, 0, 81, 33
1, 485093, Note_on_c, 0, 85, 34
1, 485107, Note_on_c, 0, 88, 35
1, 485289, Note_off_c, 0, 69, 38
1, 485381, Note_off_c, 0, 73, 33
1, 485453, Note_off_c, 0, 76, 40
1, 486314, Note_off_c, 0, 93, 37
1, 486387, Note_off_c, 0, 81, 38
1, 486446, Note_off_c, 0, 88, 43
1, 486479, Note_off_c, 0, 85, 43
1, 487421, Note_on_c, 0, 34, 37
1, 487490, Control_c, 0, 64, 105
1, 487505, Control_c, 0, 64, 87
1, 487519, Control_c, 0, 64, 70
1, 487534, Control_c, 0, 64, 58
1, 487549, Control_c, 0, 64, 39
1, 487564, Control_c, 0, 64, 0
1, 487594, Control_c, 0, 64, 37
1, 487609, Control_c, 0, 64, 44
1, 487624, Control_c, 0, 64, 55
1, 487638, Control_c, 0, 64, 62
1, 487653, Control_c, 0, 64, 66
1, 487662, Note_on_c, 0, 38, 20
1, 487675, Control_c, 0, 64, 71
1, 487690, Control_c, 0, 64, 75
1, 487705, Control_c, 0, 64, 79
1, 487719, Control_c, 0, 64, 81
1, 487734, Control_c, 0, 64, 83
1, 487750, Control_c, 0, 64, 84
1, 487765, Control_c, 0, 64, 86
1, 487775, Note_on_c, 0, 41, 34
1, 487780, Control_c, 0, 64, 88
1, 487795, Control_c, 0, 64, 90
1, 487810, Control_c, 0, 64, 91
1, 487824, Control_c, 0, 64, 92
1, 487839, Control_c, 0, 64, 92
1, 487854, Control_c, 0, 64, 93
1, 487868, Control_c, 0, 64, 93
1, 487883, Control_c, 0, 64, 94
1, 487893, Note_off_c, 0, 34, 0
1, 487898, Control_c, 0, 64, 94
1, 487913, Control_c, 0, 64, 95
1, 487920, Note_on_c, 0, 46, 34
1, 487931, Poly_aftertouch_c, 0, 34, 127
1, 488000, Note_on_c, 0, 50, 40
1, 488047, Control_c, 0, 64, 96
1, 488089, Note_off_c, 0, 50, 49
1, 488133, Note_on_c, 0, 53, 43
1, 488181, Poly_aftertouch_c, 0, 34, 0
1, 488209, Note_off_c, 0, 53, 46
1, 488243, Note_on_c, 0, 58, 46
1, 488274, Note_off_c, 0, 58, 64
1, 488353, Note_on_c, 0, 62, 56
1, 488366, Note_off_c, 0, 46, 33
1, 488401, Note_off_c, 0, 38, 38
1, 488403, Control_c, 0, 64, 98
1, 488455, Note_off_c, 0, 41, 35
1, 488459, Note_off_c, 0, 62, 57
1, 488486, Note_on_c, 0, 65, 54
1, 488529, Control_c, 0, 64, 100
1, 488583, Note_off_c, 0, 65, 57
1, 488589, Control_c, 0, 64, 102
1, 488604, Control_c, 0, 64, 105
1, 488611, Note_on_c, 0, 70, 51
1, 488619, Control_c, 0, 64, 109
1, 488634, Control_c, 0, 64, 113
1, 488643, Note_off_c, 0, 70, 65
1, 488648, Control_c, 0, 64, 119
1, 488663, Control_c, 0, 64, 127
1, 488725, Note_on_c, 0, 74, 64
1, 488843, Note_on_c, 0, 77, 52
1, 488851, Note_off_c, 0, 74, 37
1, 488977, Note_off_c, 0, 77, 59
1, 488981, Note_on_c, 0, 82, 59
1, 489018, Control_c, 0, 67, 120
1, 489033, Control_c, 0, 67, 110
1, 489042, Note_off_c, 0, 82, 57
1, 489048, Control_c, 0, 67, 100
1, 489063, Control_c, 0, 67, 88
1, 489078, Control_c, 0, 67, 74
1, 489092, Control_c, 0, 67, 61
1, 489107, Control_c, 0, 67, 50
1, 489122, Control_c, 0, 67, 39
1, 489137, Control_c, 0, 67, 33
1, 489152, Control_c, 0, 67, 27
1, 489174, Control_c, 0, 67, 20
1, 489189, Control_c, 0, 67, 0
1, 489502, Note_on_c, 0, 70, 38
1, 489570, Note_on_c, 0, 74, 39
1, 489631, Note_on_c, 0, 80, 36
1, 489633, Note_on_c, 0, 98, 68
1, 489652, Note_on_c, 0, 86, 39
1, 489654, Note_on_c, 0, 92, 42
1, 490156, Note_off_c, 0, 70, 28
1, 490232, Note_off_c, 0, 74, 30
1, 490295, Note_off_c, 0, 80, 40
1, 490634, Control_c, 0, 67, 20
1, 490686, Control_c, 0, 67, 22
1, 490716, Control_c, 0, 67, 24
1, 490731, Control_c, 0, 67, 26
1, 490760, Control_c, 0, 67, 29
1, 490789, Control_c, 0, 67, 36
1, 490804, Control_c, 0, 67, 43
1, 490819, Control_c, 0, 67, 51
1, 490834, Control_c, 0, 67, 62
1, 490849, Control_c, 0, 67, 75
1, 490864, Control_c, 0, 67, 90
1, 490879, Control_c, 0, 67, 100
1, 490894, Control_c, 0, 67, 108
1, 490908, Control_c, 0, 67, 113
1, 490916, Note_off_c, 0, 86, 29
1, 490923, Control_c, 0, 67, 118
1, 490939, Control_c, 0, 67, 123
1, 490954, Control_c, 0, 67, 127
1, 490980, Note_off_c, 0, 98, 35
1, 491046, Note_off_c, 0, 92, 43
1, 491904, Note_on_c, 0, 33, 33
1, 491940, Control_c, 0, 64, 90
1, 491955, Control_c, 0, 64, 72
1, 491970, Control_c, 0, 64, 58
1, 491984, Control_c, 0, 64, 39
1, 491999, Control_c, 0, 64, 37
1, 492014, Control_c, 0, 64, 45
1, 492029, Control_c, 0, 64, 55
1, 492043, Control_c, 0, 64, 62
1, 492058, Control_c, 0, 64, 67
1, 492073, Control_c, 0, 64, 73
1, 492088, Control_c, 0, 64, 79
1, 492103, Control_c, 0, 64, 86
1, 492117, Control_c, 0, 64, 89
1, 492132, Control_c, 0, 64, 91
1, 492147, Control_c, 0, 64, 92
1, 492152, Note_off_c, 0, 33, 36
1, 492169, Control_c, 0, 64, 93
1, 492184, Control_c, 0, 64, 93
1, 492185, Note_on_c, 0, 37, 30
1, 492199, Control_c, 0, 64, 95
1, 492214, Control_c, 0, 64, 95
1, 492288, Control_c, 0, 64, 96
1, 492291, Note_on_c, 0, 40, 26
1, 492307, Note_off_c, 0, 37, 29
1, 492358, Note_off_c, 0, 40, 57
1, 492424, Note_on_c, 0, 45, 44
1, 492494, Note_off_c, 0, 45, 56
1, 492563, Note_on_c, 0, 49, 44
1, 492678, Note_on_c, 0, 52, 38
1, 492823, Note_on_c, 0, 57, 28
1, 492837, Control_c, 0, 64, 98
1, 492921, Note_on_c, 0, 61, 38
1, 492933, Control_c, 0, 64, 100
1, 492971, Note_off_c, 0, 61, 43
1, 492992, Control_c, 0, 64, 102
1, 493037, Note_on_c, 0, 64, 38
1, 493141, Note_off_c, 0, 64, 38
1, 493156, Note_on_c, 0, 69, 44
1, 493259, Control_c, 0, 64, 104
1, 493263, Note_off_c, 0, 69, 56
1, 493278, Note_on_c, 0, 73, 50
1, 493303, Note_off_c, 0, 73, 62
1, 493334, Control_c, 0, 64, 106
1, 493363, Control_c, 0, 64, 109
1, 493393, Control_c, 0, 64, 111
1, 493400, Note_on_c, 0, 76, 52
1, 493422, Control_c, 0, 64, 113
1, 493461, Note_off_c, 0, 76, 36
1, 493467, Control_c, 0, 64, 117
1, 493471, Note_off_c, 0, 49, 38
1, 493472, Note_off_c, 0, 57, 37
1, 493481, Control_c, 0, 64, 120
1, 493496, Control_c, 0, 64, 127
1, 493508, Note_off_c, 0, 52, 38
1, 493526, Note_on_c, 0, 81, 50
1, 493642, Note_on_c, 0, 85, 53
1, 493664, Note_off_c, 0, 81, 43
1, 493756, Note_on_c, 0, 88, 66
1, 493761, Note_off_c, 0, 85, 59
1, 493880, Note_off_c, 0, 88, 54
1, 493892, Note_on_c, 0, 85, 50
1, 494007, Note_on_c, 0, 81, 43
1, 494021, Note_off_c, 0, 85, 42
1, 494075, Note_off_c, 0, 81, 42
1, 494119, Note_on_c, 0, 76, 36
1, 494167, Note_off_c, 0, 76, 47
1, 494247, Note_on_c, 0, 81, 52
1, 494341, Note_off_c, 0, 81, 37
1, 494364, Note_on_c, 0, 76, 50
1, 494477, Note_off_c, 0, 76, 56
1, 494484, Note_on_c, 0, 73, 51
1, 494540, Note_off_c, 0, 73, 58
1, 494581, Note_on_c, 0, 69, 51
1, 494614, Note_off_c, 0, 69, 65
1, 494714, Note_on_c, 0, 64, 45
1, 494830, Note_off_c, 0, 64, 59
1, 494853, Note_on_c, 0, 61, 41
1, 494910, Note_off_c, 0, 61, 57
1, 494966, Note_on_c, 0, 57, 44
1, 495100, Note_off_c, 0, 57, 36
1, 495104, Note_on_c, 0, 61, 35
1, 495182, Note_off_c, 0, 61, 50
1, 495217, Note_on_c, 0, 64, 43
1, 495344, Note_off_c, 0, 64, 43
1, 495350, Note_on_c, 0, 61, 37
1, 495480, Note_off_c, 0, 61, 36
1, 495483, Note_on_c, 0, 57, 36
1, 495535, Note_off_c, 0, 57, 56
1, 495585, Note_on_c, 0, 52, 39
1, 495711, Note_off_c, 0, 52, 50
1, 495759, Note_on_c, 0, 57, 38
1, 495892, Note_on_c, 0, 52, 35
1, 496040, Note_on_c, 0, 49, 41
1, 496151, Note_off_c, 0, 57, 37
1, 496210, Note_on_c, 0, 45, 38
1, 496261, Note_off_c, 0, 49, 38
1, 496294, Note_off_c, 0, 52, 38
1, 496383, Note_on_c, 0, 40, 32
1, 496551, Note_on_c, 0, 37, 44
1, 496551, Control_c, 0, 64, 119
1, 496566, Control_c, 0, 64, 115
1, 496581, Control_c, 0, 64, 113
1, 496596, Control_c, 0, 64, 110
1, 496611, Control_c, 0, 64, 108
1, 496626, Control_c, 0, 64, 106
1, 496663, Control_c, 0, 64, 102
1, 496693, Control_c, 0, 64, 98
1, 496707, Control_c, 0, 64, 96
1, 496722, Control_c, 0, 64, 94
1, 496737, Control_c, 0, 64, 93
1, 496752, Control_c, 0, 64, 91
1, 496766, Control_c, 0, 64, 90
1, 496781, Control_c, 0, 64, 88
1, 496796, Control_c, 0, 64, 87
1, 496811, Control_c, 0, 64, 86
1, 496813, Note_off_c, 0, 45, 27
1, 496826, Control_c, 0, 64, 85
1, 496840, Control_c, 0, 64, 83
1, 496855, Control_c, 0, 64, 82
1, 496870, Control_c, 0, 64, 81
1, 496885, Control_c, 0, 64, 79
1, 496900, Control_c, 0, 64, 79
1, 496909, Note_on_c, 0, 33, 37
1, 496915, Control_c, 0, 64, 78
1, 496930, Control_c, 0, 64, 78
1, 496945, Control_c, 0, 64, 77
1, 496959, Control_c, 0, 64, 77
1, 496974, Control_c, 0, 64, 76
1, 496987, Note_off_c, 0, 40, 23
1, 497019, Control_c, 0, 64, 76
1, 497020, Note_off_c, 0, 37, 35
1, 497048, Control_c, 0, 64, 75
1, 497078, Control_c, 0, 64, 75
1, 497093, Control_c, 0, 64, 74
1, 497107, Control_c, 0, 64, 74
1, 497122, Control_c, 0, 64, 73
1, 497137, Control_c, 0, 64, 72
1, 497151, Control_c, 0, 64, 71
1, 497166, Control_c, 0, 64, 70
1, 497181, Control_c, 0, 64, 69
1, 497196, Control_c, 0, 64, 68
1, 497211, Control_c, 0, 64, 67
1, 497240, Control_c, 0, 64, 67
1, 497255, Control_c, 0, 64, 66
1, 497270, Control_c, 0, 64, 64
1, 497285, Control_c, 0, 64, 61
1, 497300, Control_c, 0, 64, 59
1, 497314, Control_c, 0, 64, 59
1, 497427, Control_c, 0, 64, 60
1, 497442, Control_c, 0, 64, 61
1, 497456, Control_c, 0, 64, 63
1, 497471, Control_c, 0, 64, 64
1, 497486, Control_c, 0, 64, 65
1, 497501, Control_c, 0, 64, 68
1, 497516, Control_c, 0, 64, 71
1, 497517, Note_off_c, 0, 33, 50
1, 497530, Control_c, 0, 64, 75
1, 497545, Control_c, 0, 64, 78
1, 497560, Control_c, 0, 64, 80
1, 497575, Control_c, 0, 64, 82
1, 497589, Control_c, 0, 64, 84
1, 497604, Control_c, 0, 64, 86
1, 497619, Control_c, 0, 64, 88
1, 497634, Control_c, 0, 64, 89
1, 497649, Control_c, 0, 64, 89
1, 497663, Control_c, 0, 64, 90
1, 497678, Control_c, 0, 64, 91
1, 497693, Control_c, 0, 64, 92
1, 497708, Control_c, 0, 64, 93
1, 497723, Control_c, 0, 64, 93
1, 497753, Control_c, 0, 64, 94
1, 497797, Control_c, 0, 64, 94
1, 498048, Control_c, 0, 64, 94
1, 498139, Control_c, 0, 64, 93
1, 498191, Control_c, 0, 64, 93
1, 498220, Control_c, 0, 64, 92
1, 498235, Control_c, 0, 64, 92
1, 498250, Control_c, 0, 64, 91
1, 498265, Control_c, 0, 64, 91
1, 498279, Control_c, 0, 64, 90
1, 498294, Control_c, 0, 64, 90
1, 498309, Control_c, 0, 64, 89
1, 498324, Control_c, 0, 64, 89
1, 498338, Control_c, 0, 64, 88
1, 498353, Control_c, 0, 64, 87
1, 498368, Control_c, 0, 64, 86
1, 498383, Control_c, 0, 64, 85
1, 498394, Note_on_c, 0, 69, 38
1, 498398, Control_c, 0, 64, 83
1, 498409, Note_on_c, 0, 57, 30
1, 498412, Control_c, 0, 64, 82
1, 498417, Note_on_c, 0, 52, 15
1, 498427, Note_on_c, 0, 45, 28
1, 498427, Control_c, 0, 64, 81
1, 498433, Note_on_c, 0, 49, 16
1, 498439, Note_on_c, 0, 64, 19
1, 498441, Note_on_c, 0, 61, 23
1, 498442, Control_c, 0, 64, 80
1, 498457, Control_c, 0, 64, 79
1, 498472, Control_c, 0, 64, 77
1, 498486, Control_c, 0, 64, 74
1, 498501, Control_c, 0, 64, 71
1, 498516, Control_c, 0, 64, 68
1, 498531, Control_c, 0, 64, 65
1, 498546, Control_c, 0, 64, 63
1, 498560, Control_c, 0, 64, 60
1, 498575, Control_c, 0, 64, 58
1, 498590, Control_c, 0, 64, 56
1, 498605, Control_c, 0, 64, 54
1, 498620, Control_c, 0, 64, 52
1, 498635, Control_c, 0, 64, 49
1, 498650, Control_c, 0, 64, 46
1, 498665, Control_c, 0, 64, 44
1, 498679, Control_c, 0, 64, 42
1, 498694, Control_c, 0, 64, 41
1, 498724, Control_c, 0, 64, 41
1, 498738, Control_c, 0, 64, 43
1, 498753, Control_c, 0, 64, 46
1, 498768, Control_c, 0, 64, 50
1, 498783, Control_c, 0, 64, 53
1, 498798, Control_c, 0, 64, 55
1, 498812, Control_c, 0, 64, 59
1, 498827, Control_c, 0, 64, 62
1, 498842, Control_c, 0, 64, 65
1, 498857, Control_c, 0, 64, 68
1, 498872, Control_c, 0, 64, 72
1, 498887, Control_c, 0, 64, 75
1, 498909, Control_c, 0, 64, 77
1, 498924, Control_c, 0, 64, 78
1, 498940, Control_c, 0, 64, 80
1, 498954, Control_c, 0, 64, 81
1, 498969, Control_c, 0, 64, 83
1, 498984, Control_c, 0, 64, 85
1, 498999, Control_c, 0, 64, 87
1, 499014, Control_c, 0, 64, 89
1, 499028, Control_c, 0, 64, 90
1, 499043, Control_c, 0, 64, 91
1, 499058, Control_c, 0, 64, 92
1, 499073, Control_c, 0, 64, 94
1, 499088, Control_c, 0, 64, 95
1, 499118, Control_c, 0, 64, 97
1, 499207, Control_c, 0, 64, 99
1, 499281, Control_c, 0, 64, 101
1, 499295, Note_off_c, 0, 57, 38
1, 499305, Note_off_c, 0, 52, 39
1, 499321, Note_off_c, 0, 69, 36
1, 499380, Note_off_c, 0, 45, 37
1, 499437, Note_off_c, 0, 49, 41
1, 499476, Note_off_c, 0, 64, 31
1, 499564, Note_off_c, 0, 61, 27
1, 499702, Control_c, 0, 64, 99
1, 499732, Control_c, 0, 64, 97
1, 499762, Control_c, 0, 64, 96
1, 499792, Control_c, 0, 64, 95
1, 499806, Control_c, 0, 64, 94
1, 499821, Control_c, 0, 64, 93
1, 499836, Control_c, 0, 64, 92
1, 499851, Control_c, 0, 64, 91
1, 499866, Control_c, 0, 64, 90
1, 499881, Control_c, 0, 64, 89
1, 499925, Control_c, 0, 64, 88
1, 499999, Control_c, 0, 64, 88
1, 500540, Note_on_c, 0, 69, 41
1, 500569, Note_on_c, 0, 52, 27
1, 500569, Note_on_c, 0, 64, 32
1, 500570, Control_c, 0, 64, 87
1, 500575, Note_on_c, 0, 57, 26
1, 500576, Note_on_c, 0, 49, 31
1, 500578, Note_on_c, 0, 45, 35
1, 500582, Note_on_c, 0, 61, 29
1, 500600, Control_c, 0, 64, 87
1, 500629, Control_c, 0, 64, 86
1, 500644, Control_c, 0, 64, 85
1, 500659, Control_c, 0, 64, 84
1, 500674, Control_c, 0, 64, 83
1, 500689, Control_c, 0, 64, 81
1, 500704, Control_c, 0, 64, 79
1, 500719, Control_c, 0, 64, 77
1, 500733, Control_c, 0, 64, 74
1, 500748, Control_c, 0, 64, 70
1, 500763, Control_c, 0, 64, 67
1, 500778, Control_c, 0, 64, 62
1, 500793, Control_c, 0, 64, 58
1, 500807, Control_c, 0, 64, 54
1, 500822, Control_c, 0, 64, 50
1, 500837, Control_c, 0, 64, 47
1, 500852, Control_c, 0, 64, 44
1, 500867, Control_c, 0, 64, 41
1, 500881, Control_c, 0, 64, 36
1, 500896, Control_c, 0, 64, 0
1, 501029, Control_c, 0, 64, 38
1, 501044, Control_c, 0, 64, 44
1, 501059, Control_c, 0, 64, 50
1, 501073, Control_c, 0, 64, 54
1, 501088, Control_c, 0, 64, 57
1, 501103, Control_c, 0, 64, 60
1, 501118, Control_c, 0, 64, 62
1, 501133, Control_c, 0, 64, 65
1, 501155, Control_c, 0, 64, 67
1, 501170, Control_c, 0, 64, 69
1, 501185, Control_c, 0, 64, 70
1, 501199, Control_c, 0, 64, 71
1, 501214, Control_c, 0, 64, 73
1, 501229, Control_c, 0, 64, 75
1, 501244, Control_c, 0, 64, 77
1, 501258, Control_c, 0, 64, 78
1, 501273, Control_c, 0, 64, 81
1, 501288, Control_c, 0, 64, 82
1, 501303, Control_c, 0, 64, 85
1, 501318, Control_c, 0, 64, 88
1, 501334, Control_c, 0, 64, 91
1, 501348, Control_c, 0, 64, 95
1, 501363, Control_c, 0, 64, 99
1, 501378, Control_c, 0, 64, 102
1, 501393, Control_c, 0, 64, 105
1, 501422, Control_c, 0, 64, 108
1, 501452, Control_c, 0, 64, 112
1, 501467, Control_c, 0, 64, 115
1, 501482, Control_c, 0, 64, 117
1, 501512, Control_c, 0, 64, 119
1, 501541, Control_c, 0, 64, 122
1, 501556, Control_c, 0, 64, 125
1, 501571, Control_c, 0, 64, 127
1, 504072, Note_off_c, 0, 52, 24
1, 504154, Note_off_c, 0, 49, 30
1, 504239, Control_c, 0, 64, 117
1, 504254, Control_c, 0, 64, 111
1, 504255, Note_off_c, 0, 57, 14
1, 504269, Control_c, 0, 64, 106
1, 504281, Note_off_c, 0, 45, 16
1, 504284, Control_c, 0, 64, 104
1, 504299, Control_c, 0, 64, 102
1, 504314, Control_c, 0, 64, 100
1, 504329, Control_c, 0, 64, 98
1, 504343, Control_c, 0, 64, 95
1, 504358, Control_c, 0, 64, 92
1, 504373, Control_c, 0, 64, 90
1, 504388, Control_c, 0, 64, 88
1, 504400, Note_off_c, 0, 61, 21
1, 504403, Control_c, 0, 64, 87
1, 504418, Control_c, 0, 64, 85
1, 504432, Control_c, 0, 64, 85
1, 504447, Control_c, 0, 64, 84
1, 504462, Control_c, 0, 64, 83
1, 504476, Control_c, 0, 64, 83
1, 504491, Control_c, 0, 64, 82
1, 504506, Control_c, 0, 64, 82
1, 504522, Control_c, 0, 64, 81
1, 504537, Control_c, 0, 64, 81
1, 504552, Control_c, 0, 64, 80
1, 504573, Note_off_c, 0, 64, 17
1, 504581, Control_c, 0, 64, 80
1, 504611, Control_c, 0, 64, 79
1, 504670, Control_c, 0, 64, 79
1, 504744, Control_c, 0, 64, 78
1, 504788, Control_c, 0, 64, 78
1, 504847, Control_c, 0, 64, 77
1, 504899, Control_c, 0, 64, 77
1, 504914, Control_c, 0, 64, 76
1, 504944, Control_c, 0, 64, 76
1, 505017, Control_c, 0, 64, 75
1, 505136, Control_c, 0, 64, 75
1, 505255, Control_c, 0, 64, 74
1, 505285, Control_c, 0, 64, 74
1, 505299, Control_c, 0, 64, 73
1, 505330, Control_c, 0, 64, 73
1, 505360, Control_c, 0, 64, 72
1, 505375, Control_c, 0, 64, 72
1, 505389, Control_c, 0, 64, 71
1, 505434, Control_c, 0, 64, 71
1, 505449, Control_c, 0, 64, 70
1, 505463, Control_c, 0, 64, 70
1, 505478, Control_c, 0, 64, 69
1, 505493, Control_c, 0, 64, 68
1, 505508, Control_c, 0, 64, 68
1, 505522, Control_c, 0, 64, 67
1, 505552, Control_c, 0, 64, 67
1, 505567, Control_c, 0, 64, 66
1, 505582, Control_c, 0, 64, 66
1, 505610, Control_c, 0, 64, 65
1, 505662, Control_c, 0, 64, 65
1, 505710, Note_off_c, 0, 69, 1
1, 505721, Control_c, 0, 64, 64
1, 505736, Control_c, 0, 64, 64
1, 505766, Control_c, 0, 64, 63
1, 505810, Control_c, 0, 64, 63
1, 505840, Control_c, 0, 64, 62
1, 505855, Control_c, 0, 64, 62
1, 505929, Control_c, 0, 64, 61
1, 506018, Control_c, 0, 64, 61
1, 506047, Control_c, 0, 64, 60
1, 506062, Control_c, 0, 64, 60
1, 506123, Control_c, 0, 64, 59
1, 506152, Control_c, 0, 64, 59
1, 506212, Control_c, 0, 64, 58
1, 506256, Control_c, 0, 64, 58
1, 506315, Control_c, 0, 64, 57
1, 506427, Control_c, 0, 64, 57
1, 506560, Control_c, 0, 64, 56
1, 506649, Control_c, 0, 64, 56
1, 507828, Control_c, 0, 64, 55
1, 507910, Control_c, 0, 64, 55
1, 507969, Control_c, 0, 64, 54
1, 508013, Control_c, 0, 64, 54
1, 508058, Control_c, 0, 64, 53
1, 508073, Control_c, 0, 64, 52
1, 508087, Control_c, 0, 64, 49
1, 508102, Control_c, 0, 64, 46
1, 508117, Control_c, 0, 64, 43
1, 508132, Control_c, 0, 64, 40
1, 508147, Control_c, 0, 64, 35
1, 508162, Control_c, 0, 64, 0
1, 508383, Control_c, 0, 67, 117
1, 508398, Control_c, 0, 67, 91
1, 508413, Control_c, 0, 67, 61
1, 508428, Control_c, 0, 67, 26
1, 508442, Control_c, 0, 67, 0
1, 514124, Control_c, 0, 67, 19
1, 514168, Control_c, 0, 67, 22
1, 514183, Control_c, 0, 67, 24
1, 514198, Control_c, 0, 67, 27
1, 514212, Control_c, 0, 67, 29
1, 514227, Control_c, 0, 67, 31
1, 514242, Control_c, 0, 67, 34
1, 514257, Control_c, 0, 67, 39
1, 514272, Control_c, 0, 67, 45
1, 514286, Control_c, 0, 67, 53
1, 514301, Control_c, 0, 67, 60
1, 514316, Control_c, 0, 67, 66
1, 514330, Control_c, 0, 67, 73
1, 514345, Control_c, 0, 67, 77
1, 514360, Control_c, 0, 67, 81
1, 514375, Control_c, 0, 67, 82
1, 514390, Control_c, 0, 67, 85
1, 514404, Control_c, 0, 67, 88
1, 514419, Control_c, 0, 67, 92
1, 514434, Control_c, 0, 67, 96
1, 514449, Control_c, 0, 67, 102
1, 514464, Control_c, 0, 67, 106
1, 514478, Control_c, 0, 67, 111
1, 514493, Control_c, 0, 67, 117
1, 514508, Control_c, 0, 67, 121
1, 514523, Control_c, 0, 67, 126
1, 514768, Control_c, 0, 64, 36
1, 514783, Control_c, 0, 64, 46
1, 514797, Control_c, 0, 64, 52
1, 514812, Control_c, 0, 64, 56
1, 514827, Control_c, 0, 64, 59
1, 514842, Control_c, 0, 64, 61
1, 514857, Control_c, 0, 64, 62
1, 514872, Control_c, 0, 64, 64
1, 514886, Control_c, 0, 64, 66
1, 514902, Control_c, 0, 64, 68
1, 514917, Control_c, 0, 64, 70
1, 514932, Control_c, 0, 64, 72
1, 514946, Control_c, 0, 64, 74
1, 514961, Control_c, 0, 64, 76
1, 514976, Control_c, 0, 64, 78
1, 514991, Control_c, 0, 64, 80
1, 515006, Control_c, 0, 64, 83
1, 515021, Control_c, 0, 64, 87
1, 515035, Control_c, 0, 64, 89
1, 515050, Control_c, 0, 64, 91
1, 515065, Control_c, 0, 64, 92
1, 515080, Control_c, 0, 64, 93
1, 515095, Control_c, 0, 64, 93
1, 515109, Control_c, 0, 64, 94
1, 515139, Control_c, 0, 64, 94
1, 515168, Control_c, 0, 64, 95
1, 515183, Control_c, 0, 64, 95
1, 515198, Control_c, 0, 64, 96
1, 515316, Control_c, 0, 64, 98
1, 515791, Note_on_c, 0, 69, 51
1, 515792, Note_on_c, 0, 42, 34
1, 515942, Note_off_c, 0, 42, 36
1, 515990, Control_c, 0, 64, 96
1, 516005, Control_c, 0, 64, 94
1, 516020, Control_c, 0, 64, 92
1, 516035, Control_c, 0, 64, 90
1, 516049, Control_c, 0, 64, 88
1, 516064, Control_c, 0, 64, 86
1, 516079, Control_c, 0, 64, 84
1, 516093, Control_c, 0, 64, 82
1, 516108, Control_c, 0, 64, 80
1, 516130, Control_c, 0, 64, 78
1, 516145, Control_c, 0, 64, 77
1, 516160, Control_c, 0, 64, 75
1, 516175, Control_c, 0, 64, 74
1, 516190, Control_c, 0, 64, 73
1, 516204, Control_c, 0, 64, 72
1, 516219, Control_c, 0, 64, 70
1, 516234, Control_c, 0, 64, 69
1, 516249, Control_c, 0, 64, 68
1, 516264, Control_c, 0, 64, 67
1, 516279, Control_c, 0, 64, 66
1, 516294, Control_c, 0, 64, 65
1, 516308, Control_c, 0, 64, 64
1, 516323, Control_c, 0, 64, 63
1, 516338, Control_c, 0, 64, 62
1, 516353, Control_c, 0, 64, 59
1, 516368, Control_c, 0, 64, 55
1, 516382, Control_c, 0, 64, 51
1, 516392, Note_on_c, 0, 61, 34
1, 516397, Control_c, 0, 64, 46
1, 516412, Control_c, 0, 64, 41
1, 516427, Control_c, 0, 64, 35
1, 516442, Control_c, 0, 64, 0
1, 516517, Control_c, 0, 64, 38
1, 516531, Control_c, 0, 64, 43
1, 516546, Control_c, 0, 64, 49
1, 516561, Control_c, 0, 64, 54
1, 516576, Control_c, 0, 64, 59
1, 516591, Control_c, 0, 64, 62
1, 516605, Control_c, 0, 64, 64
1, 516620, Control_c, 0, 64, 67
1, 516635, Control_c, 0, 64, 71
1, 516650, Control_c, 0, 64, 74
1, 516665, Control_c, 0, 64, 76
1, 516679, Control_c, 0, 64, 78
1, 516694, Control_c, 0, 64, 81
1, 516709, Control_c, 0, 64, 84
1, 516723, Control_c, 0, 64, 87
1, 516738, Control_c, 0, 64, 89
1, 516753, Control_c, 0, 64, 92
1, 516768, Control_c, 0, 64, 94
1, 516783, Control_c, 0, 64, 95
1, 516813, Control_c, 0, 64, 98
1, 516858, Control_c, 0, 64, 100
1, 516878, Note_on_c, 0, 49, 32
1, 516910, Control_c, 0, 64, 102
1, 516966, Note_off_c, 0, 61, 37
1, 517046, Note_off_c, 0, 49, 42
1, 517370, Control_c, 0, 64, 98
1, 517379, Note_on_c, 0, 41, 26
1, 517385, Control_c, 0, 64, 89
1, 517391, Note_on_c, 0, 68, 54
1, 517400, Control_c, 0, 64, 78
1, 517415, Control_c, 0, 64, 65
1, 517429, Control_c, 0, 64, 52
1, 517432, Note_off_c, 0, 69, 34
1, 517444, Control_c, 0, 64, 37
1, 517459, Control_c, 0, 64, 37
1, 517474, Control_c, 0, 64, 44
1, 517489, Control_c, 0, 64, 51
1, 517503, Control_c, 0, 64, 57
1, 517518, Control_c, 0, 64, 62
1, 517533, Control_c, 0, 64, 65
1, 517547, Control_c, 0, 64, 69
1, 517562, Control_c, 0, 64, 73
1, 517577, Control_c, 0, 64, 76
1, 517581, Note_off_c, 0, 41, 37
1, 517592, Control_c, 0, 64, 78
1, 517607, Control_c, 0, 64, 80
1, 517629, Control_c, 0, 64, 81
1, 517644, Control_c, 0, 64, 83
1, 517659, Control_c, 0, 64, 84
1, 517673, Control_c, 0, 64, 84
1, 517688, Control_c, 0, 64, 85
1, 517807, Control_c, 0, 64, 84
1, 517821, Control_c, 0, 64, 83
1, 517836, Control_c, 0, 64, 80
1, 517851, Control_c, 0, 64, 78
1, 517866, Control_c, 0, 64, 76
1, 517880, Control_c, 0, 64, 73
1, 517895, Control_c, 0, 64, 69
1, 517910, Control_c, 0, 64, 64
1, 517925, Control_c, 0, 64, 56
1, 517940, Control_c, 0, 64, 45
1, 517947, Note_on_c, 0, 61, 26
1, 517954, Control_c, 0, 64, 40
1, 517969, Control_c, 0, 64, 41
1, 517984, Control_c, 0, 64, 43
1, 517999, Control_c, 0, 64, 45
1, 518014, Control_c, 0, 64, 48
1, 518029, Control_c, 0, 64, 52
1, 518044, Control_c, 0, 64, 57
1, 518059, Control_c, 0, 64, 61
1, 518073, Control_c, 0, 64, 64
1, 518088, Control_c, 0, 64, 67
1, 518103, Control_c, 0, 64, 72
1, 518118, Control_c, 0, 64, 76
1, 518133, Control_c, 0, 64, 79
1, 518148, Control_c, 0, 64, 83
1, 518163, Control_c, 0, 64, 86
1, 518178, Control_c, 0, 64, 90
1, 518193, Control_c, 0, 64, 94
1, 518208, Control_c, 0, 64, 99
1, 518223, Control_c, 0, 64, 102
1, 518252, Control_c, 0, 64, 104
1, 518430, Note_on_c, 0, 49, 31
1, 518467, Note_off_c, 0, 61, 31
1, 518571, Note_off_c, 0, 68, 30
1, 518577, Note_off_c, 0, 49, 37
1, 518833, Note_on_c, 0, 71, 47
1, 518837, Control_c, 0, 64, 100
1, 518851, Control_c, 0, 64, 93
1, 518866, Control_c, 0, 64, 82
1, 518881, Control_c, 0, 64, 70
1, 518886, Note_on_c, 0, 42, 37
1, 518887, Note_off_c, 0, 71, 55
1, 518897, Control_c, 0, 64, 58
1, 518909, Note_on_c, 0, 69, 44
1, 518912, Control_c, 0, 64, 50
1, 518941, Control_c, 0, 64, 52
1, 518956, Control_c, 0, 64, 55
1, 518971, Control_c, 0, 64, 58
1, 518986, Control_c, 0, 64, 61
1, 519001, Control_c, 0, 64, 65
1, 519015, Control_c, 0, 64, 70
1, 519030, Control_c, 0, 64, 75
1, 519045, Control_c, 0, 64, 78
1, 519060, Control_c, 0, 64, 81
1, 519061, Note_off_c, 0, 42, 36
1, 519075, Control_c, 0, 64, 83
1, 519090, Control_c, 0, 64, 85
1, 519105, Control_c, 0, 64, 87
1, 519127, Control_c, 0, 64, 88
1, 519142, Control_c, 0, 64, 89
1, 519164, Note_on_c, 0, 68, 61
1, 519209, Note_off_c, 0, 69, 37
1, 519290, Control_c, 0, 64, 88
1, 519305, Control_c, 0, 64, 87
1, 519320, Control_c, 0, 64, 85
1, 519334, Control_c, 0, 64, 83
1, 519349, Control_c, 0, 64, 82
1, 519364, Control_c, 0, 64, 81
1, 519379, Control_c, 0, 64, 79
1, 519394, Control_c, 0, 64, 76
1, 519403, Note_on_c, 0, 61, 32
1, 519409, Control_c, 0, 64, 71
1, 519424, Control_c, 0, 64, 66
1, 519439, Control_c, 0, 64, 62
1, 519439, Note_on_c, 0, 69, 41
1, 519453, Control_c, 0, 64, 55
1, 519464, Note_off_c, 0, 68, 53
1, 519468, Control_c, 0, 64, 47
1, 519483, Control_c, 0, 64, 40
1, 519498, Control_c, 0, 64, 34
1, 519513, Control_c, 0, 64, 0
1, 519542, Control_c, 0, 64, 34
1, 519557, Control_c, 0, 64, 39
1, 519572, Control_c, 0, 64, 47
1, 519587, Control_c, 0, 64, 53
1, 519601, Control_c, 0, 64, 60
1, 519616, Control_c, 0, 64, 64
1, 519631, Control_c, 0, 64, 68
1, 519645, Control_c, 0, 64, 72
1, 519660, Control_c, 0, 64, 75
1, 519675, Control_c, 0, 64, 76
1, 519691, Control_c, 0, 64, 78
1, 519706, Control_c, 0, 64, 79
1, 519721, Control_c, 0, 64, 81
1, 519736, Control_c, 0, 64, 81
1, 519750, Control_c, 0, 64, 82
1, 519767, Note_off_c, 0, 69, 56
1, 519801, Note_on_c, 0, 73, 47
1, 519824, Control_c, 0, 64, 82
1, 519839, Control_c, 0, 64, 78
1, 519854, Note_off_c, 0, 73, 53
1, 519854, Control_c, 0, 64, 73
1, 519876, Control_c, 0, 64, 67
1, 519890, Note_off_c, 0, 61, 36
1, 519891, Control_c, 0, 64, 60
1, 519900, Note_on_c, 0, 49, 33
1, 519904, Note_on_c, 0, 69, 44
1, 519906, Control_c, 0, 64, 51
1, 519936, Control_c, 0, 64, 54
1, 519950, Control_c, 0, 64, 58
1, 519965, Control_c, 0, 64, 61
1, 519980, Control_c, 0, 64, 65
1, 519995, Control_c, 0, 64, 70
1, 520010, Control_c, 0, 64, 76
1, 520024, Control_c, 0, 64, 81
1, 520039, Control_c, 0, 64, 83
1, 520052, Note_off_c, 0, 49, 57
1, 520054, Control_c, 0, 64, 85
1, 520068, Control_c, 0, 64, 86
1, 520083, Control_c, 0, 64, 88
1, 520098, Control_c, 0, 64, 90
1, 520113, Control_c, 0, 64, 91
1, 520128, Control_c, 0, 64, 92
1, 520276, Control_c, 0, 64, 90
1, 520291, Control_c, 0, 64, 87
1, 520306, Control_c, 0, 64, 82
1, 520321, Control_c, 0, 64, 78
1, 520336, Control_c, 0, 64, 72
1, 520350, Control_c, 0, 64, 65
1, 520365, Control_c, 0, 64, 58
1, 520377, Note_on_c, 0, 41, 30
1, 520380, Control_c, 0, 64, 50
1, 520390, Note_on_c, 0, 68, 46
1, 520394, Control_c, 0, 64, 45
1, 520424, Control_c, 0, 64, 45
1, 520439, Control_c, 0, 64, 47
1, 520441, Note_off_c, 0, 69, 36
1, 520454, Control_c, 0, 64, 49
1, 520468, Control_c, 0, 64, 54
1, 520483, Control_c, 0, 64, 58
1, 520499, Control_c, 0, 64, 62
1, 520514, Control_c, 0, 64, 65
1, 520529, Control_c, 0, 64, 69
1, 520544, Control_c, 0, 64, 73
1, 520559, Control_c, 0, 64, 77
1, 520573, Control_c, 0, 64, 80
1, 520584, Note_off_c, 0, 41, 37
1, 520587, Control_c, 0, 64, 81
1, 520602, Control_c, 0, 64, 83
1, 520625, Control_c, 0, 64, 84
1, 520640, Control_c, 0, 64, 85
1, 520669, Control_c, 0, 64, 86
1, 520802, Control_c, 0, 64, 85
1, 520816, Control_c, 0, 64, 83
1, 520831, Control_c, 0, 64, 80
1, 520846, Control_c, 0, 64, 77
1, 520861, Control_c, 0, 64, 75
1, 520876, Control_c, 0, 64, 73
1, 520890, Control_c, 0, 64, 71
1, 520905, Control_c, 0, 64, 69
1, 520920, Control_c, 0, 64, 66
1, 520935, Control_c, 0, 64, 63
1, 520941, Note_on_c, 0, 61, 29
1, 520950, Control_c, 0, 64, 60
1, 520965, Control_c, 0, 64, 58
1, 520980, Control_c, 0, 64, 56
1, 520995, Control_c, 0, 64, 53
1, 521010, Control_c, 0, 64, 50
1, 521024, Control_c, 0, 64, 45
1, 521039, Control_c, 0, 64, 39
1, 521054, Control_c, 0, 64, 34
1, 521069, Control_c, 0, 64, 0
1, 521172, Control_c, 0, 64, 34
1, 521187, Control_c, 0, 64, 42
1, 521202, Control_c, 0, 64, 50
1, 521216, Control_c, 0, 64, 55
1, 521231, Control_c, 0, 64, 60
1, 521246, Control_c, 0, 64, 63
1, 521261, Control_c, 0, 64, 66
1, 521276, Control_c, 0, 64, 70
1, 521292, Control_c, 0, 64, 74
1, 521292, Control_c, 0, 67, 121
1, 521307, Control_c, 0, 64, 77
1, 521307, Control_c, 0, 67, 111
1, 521321, Control_c, 0, 64, 79
1, 521321, Control_c, 0, 67, 103
1, 521336, Control_c, 0, 64, 82
1, 521336, Control_c, 0, 67, 95
1, 521351, Control_c, 0, 64, 85
1, 521351, Control_c, 0, 67, 89
1, 521373, Control_c, 0, 64, 89
1, 521373, Control_c, 0, 67, 84
1, 521388, Control_c, 0, 64, 91
1, 521388, Control_c, 0, 67, 79
1, 521403, Control_c, 0, 64, 94
1, 521403, Control_c, 0, 67, 73
1, 521418, Control_c, 0, 64, 96
1, 521418, Control_c, 0, 67, 65
1, 521433, Control_c, 0, 64, 100
1, 521433, Control_c, 0, 67, 57
1, 521437, Note_on_c, 0, 49, 30
1, 521447, Control_c, 0, 64, 105
1, 521447, Control_c, 0, 67, 49
1, 521462, Control_c, 0, 64, 112
1, 521462, Control_c, 0, 67, 41
1, 521477, Control_c, 0, 64, 122
1, 521477, Control_c, 0, 67, 34
1, 521492, Control_c, 0, 64, 127
1, 521492, Control_c, 0, 67, 25
1, 521507, Control_c, 0, 67, 0
1, 521538, Note_off_c, 0, 61, 32
1, 521614, Note_off_c, 0, 49, 41
1, 521949, Note_on_c, 0, 45, 28
1, 521966, Control_c, 0, 64, 103
1, 521980, Note_on_c, 0, 73, 68
1, 521981, Control_c, 0, 64, 87
1, 521995, Control_c, 0, 64, 72
1, 522001, Note_off_c, 0, 68, 46
1, 522010, Control_c, 0, 64, 61
1, 522025, Control_c, 0, 64, 46
1, 522039, Control_c, 0, 64, 40
1, 522054, Control_c, 0, 64, 42
1, 522069, Control_c, 0, 64, 49
1, 522086, Control_c, 0, 64, 56
1, 522101, Control_c, 0, 64, 60
1, 522123, Control_c, 0, 64, 64
1, 522138, Control_c, 0, 64, 69
1, 522152, Control_c, 0, 64, 75
1, 522167, Control_c, 0, 64, 80
1, 522182, Control_c, 0, 64, 84
1, 522197, Control_c, 0, 64, 88
1, 522212, Control_c, 0, 64, 92
1, 522226, Control_c, 0, 64, 96
1, 522238, Note_off_c, 0, 45, 42
1, 522241, Control_c, 0, 64, 101
1, 522256, Control_c, 0, 64, 104
1, 522271, Control_c, 0, 64, 108
1, 522285, Control_c, 0, 64, 117
1, 522300, Control_c, 0, 64, 127
1, 522345, Control_c, 0, 67, 19
1, 522405, Control_c, 0, 67, 21
1, 522449, Control_c, 0, 64, 111
1, 522463, Control_c, 0, 64, 102
1, 522478, Control_c, 0, 64, 94
1, 522493, Control_c, 0, 64, 85
1, 522508, Control_c, 0, 64, 77
1, 522523, Control_c, 0, 64, 70
1, 522537, Control_c, 0, 64, 63
1, 522545, Note_on_c, 0, 61, 35
1, 522552, Control_c, 0, 64, 54
1, 522567, Control_c, 0, 64, 48
1, 522582, Control_c, 0, 64, 47
1, 522597, Control_c, 0, 64, 48
1, 522611, Control_c, 0, 64, 50
1, 522626, Control_c, 0, 64, 52
1, 522641, Control_c, 0, 64, 55
1, 522656, Control_c, 0, 64, 58
1, 522670, Control_c, 0, 64, 62
1, 522685, Control_c, 0, 64, 65
1, 522700, Control_c, 0, 64, 69
1, 522715, Control_c, 0, 64, 74
1, 522730, Control_c, 0, 64, 81
1, 522745, Control_c, 0, 64, 86
1, 522759, Control_c, 0, 64, 90
1, 522774, Control_c, 0, 64, 95
1, 522789, Control_c, 0, 64, 103
1, 522804, Control_c, 0, 64, 113
1, 522819, Control_c, 0, 64, 127
1, 522885, Control_c, 0, 67, 19
1, 522931, Control_c, 0, 67, 0
1, 523031, Note_on_c, 0, 49, 37
1, 523060, Note_off_c, 0, 61, 37
1, 523553, Control_c, 0, 64, 114
1, 523567, Control_c, 0, 64, 96
1, 523570, Note_on_c, 0, 47, 39
1, 523582, Control_c, 0, 64, 81
1, 523596, Note_on_c, 0, 74, 69
1, 523597, Control_c, 0, 64, 69
1, 523619, Control_c, 0, 64, 59
1, 523629, Note_off_c, 0, 49, 40
1, 523634, Control_c, 0, 64, 44
1, 523649, Control_c, 0, 64, 36
1, 523660, Note_off_c, 0, 73, 55
1, 523679, Control_c, 0, 64, 37
1, 523679, Control_c, 0, 67, 19
1, 523695, Control_c, 0, 64, 41
1, 523710, Control_c, 0, 64, 44
1, 523724, Control_c, 0, 64, 50
1, 523739, Control_c, 0, 64, 55
1, 523739, Control_c, 0, 67, 22
1, 523754, Control_c, 0, 64, 61
1, 523769, Control_c, 0, 64, 65
1, 523769, Control_c, 0, 67, 24
1, 523784, Control_c, 0, 64, 71
1, 523798, Control_c, 0, 64, 76
1, 523798, Control_c, 0, 67, 31
1, 523813, Control_c, 0, 64, 80
1, 523813, Control_c, 0, 67, 37
1, 523828, Control_c, 0, 64, 82
1, 523828, Control_c, 0, 67, 45
1, 523842, Control_c, 0, 64, 84
1, 523842, Control_c, 0, 67, 54
1, 523855, Note_off_c, 0, 47, 42
1, 523857, Control_c, 0, 64, 85
1, 523857, Control_c, 0, 67, 64
1, 523872, Control_c, 0, 64, 87
1, 523872, Control_c, 0, 67, 77
1, 523887, Control_c, 0, 64, 89
1, 523887, Control_c, 0, 67, 88
1, 523902, Control_c, 0, 64, 90
1, 523902, Control_c, 0, 67, 97
1, 523916, Control_c, 0, 64, 91
1, 523916, Control_c, 0, 67, 106
1, 523931, Control_c, 0, 67, 113
1, 523946, Control_c, 0, 67, 118
1, 523961, Control_c, 0, 67, 123
1, 523976, Control_c, 0, 67, 126
1, 524005, Control_c, 0, 64, 90
1, 524035, Control_c, 0, 64, 89
1, 524050, Control_c, 0, 64, 87
1, 524065, Control_c, 0, 64, 84
1, 524080, Control_c, 0, 64, 80
1, 524095, Control_c, 0, 64, 76
1, 524109, Control_c, 0, 64, 71
1, 524124, Control_c, 0, 64, 66
1, 524139, Control_c, 0, 64, 59
1, 524154, Control_c, 0, 64, 50
1, 524169, Control_c, 0, 64, 43
1, 524175, Note_on_c, 0, 65, 46
1, 524183, Control_c, 0, 64, 39
1, 524186, Note_on_c, 0, 61, 29
1, 524198, Control_c, 0, 64, 36
1, 524213, Control_c, 0, 64, 34
1, 524228, Control_c, 0, 64, 0
1, 524287, Control_c, 0, 64, 37
1, 524302, Control_c, 0, 64, 44
1, 524316, Control_c, 0, 64, 52
1, 524331, Control_c, 0, 64, 58
1, 524346, Control_c, 0, 64, 63
1, 524368, Control_c, 0, 64, 67
1, 524383, Control_c, 0, 64, 73
1, 524398, Control_c, 0, 64, 78
1, 524413, Control_c, 0, 64, 82
1, 524428, Control_c, 0, 64, 85
1, 524442, Control_c, 0, 64, 88
1, 524457, Control_c, 0, 64, 91
1, 524472, Control_c, 0, 64, 95
1, 524488, Control_c, 0, 64, 100
1, 524503, Control_c, 0, 64, 104
1, 524547, Control_c, 0, 64, 106
1, 524688, Note_on_c, 0, 49, 30
1, 524697, Note_off_c, 0, 61, 33
1, 524703, Note_off_c, 0, 74, 33
1, 524789, Note_off_c, 0, 65, 42
1, 525246, Note_off_c, 0, 49, 5
1, 525251, Control_c, 0, 64, 104
1, 525265, Control_c, 0, 64, 97
1, 525280, Control_c, 0, 64, 84
1, 525296, Control_c, 0, 64, 73
1, 525297, Note_on_c, 0, 45, 38
1, 525299, Note_on_c, 0, 74, 43
1, 525299, Note_on_c, 0, 66, 33
1, 525311, Control_c, 0, 64, 64
1, 525326, Control_c, 0, 64, 55
1, 525341, Control_c, 0, 64, 49
1, 525356, Control_c, 0, 64, 51
1, 525370, Control_c, 0, 64, 55
1, 525385, Control_c, 0, 64, 59
1, 525400, Control_c, 0, 64, 62
1, 525414, Control_c, 0, 64, 66
1, 525429, Control_c, 0, 64, 71
1, 525444, Control_c, 0, 64, 77
1, 525458, Note_off_c, 0, 45, 54
1, 525459, Control_c, 0, 64, 81
1, 525474, Control_c, 0, 64, 82
1, 525488, Control_c, 0, 64, 84
1, 525503, Control_c, 0, 64, 84
1, 525518, Control_c, 0, 64, 85
1, 525533, Control_c, 0, 64, 85
1, 525548, Control_c, 0, 64, 86
1, 525561, Note_off_c, 0, 74, 34
1, 525572, Note_on_c, 0, 73, 48
1, 525577, Control_c, 0, 64, 86
1, 525606, Control_c, 0, 64, 87
1, 525612, Note_off_c, 0, 73, 62
1, 525663, Note_off_c, 0, 66, 27
1, 525755, Control_c, 0, 64, 85
1, 525770, Control_c, 0, 64, 81
1, 525785, Control_c, 0, 64, 71
1, 525800, Control_c, 0, 64, 63
1, 525803, Note_on_c, 0, 44, 31
1, 525805, Note_on_c, 0, 73, 51
1, 525814, Control_c, 0, 64, 53
1, 525821, Note_on_c, 0, 65, 38
1, 525829, Control_c, 0, 64, 48
1, 525844, Control_c, 0, 64, 51
1, 525866, Control_c, 0, 64, 54
1, 525881, Control_c, 0, 64, 58
1, 525895, Control_c, 0, 64, 62
1, 525910, Control_c, 0, 64, 66
1, 525925, Control_c, 0, 64, 71
1, 525940, Control_c, 0, 64, 77
1, 525955, Control_c, 0, 64, 81
1, 525970, Control_c, 0, 64, 82
1, 525985, Control_c, 0, 64, 83
1, 526000, Control_c, 0, 64, 84
1, 526012, Note_off_c, 0, 44, 45
1, 526014, Control_c, 0, 64, 84
1, 526029, Control_c, 0, 64, 85
1, 526032, Note_on_c, 0, 71, 53
1, 526059, Control_c, 0, 64, 86
1, 526068, Note_off_c, 0, 71, 65
1, 526074, Control_c, 0, 64, 86
1, 526080, Note_off_c, 0, 73, 27
1, 526179, Control_c, 0, 64, 86
1, 526193, Control_c, 0, 64, 83
1, 526208, Control_c, 0, 64, 78
1, 526222, Note_off_c, 0, 65, 29
1, 526223, Control_c, 0, 64, 70
1, 526237, Control_c, 0, 64, 62
1, 526252, Control_c, 0, 64, 50
1, 526255, Note_on_c, 0, 66, 43
1, 526257, Note_on_c, 0, 42, 23
1, 526262, Note_on_c, 0, 71, 42
1, 526267, Control_c, 0, 64, 43
1, 526282, Control_c, 0, 64, 46
1, 526297, Control_c, 0, 64, 50
1, 526311, Control_c, 0, 64, 54
1, 526326, Control_c, 0, 64, 58
1, 526326, Control_c, 0, 67, 115
1, 526341, Control_c, 0, 64, 63
1, 526341, Control_c, 0, 67, 101
1, 526355, Control_c, 0, 64, 67
1, 526355, Control_c, 0, 67, 86
1, 526370, Control_c, 0, 64, 73
1, 526370, Control_c, 0, 67, 72
1, 526385, Control_c, 0, 64, 76
1, 526385, Control_c, 0, 67, 59
1, 526400, Control_c, 0, 64, 78
1, 526400, Control_c, 0, 67, 45
1, 526415, Control_c, 0, 64, 79
1, 526415, Control_c, 0, 67, 31
1, 526429, Control_c, 0, 64, 80
1, 526429, Control_c, 0, 67, 20
1, 526444, Control_c, 0, 64, 81
1, 526444, Control_c, 0, 67, 0
1, 526459, Control_c, 0, 64, 81
1, 526463, Note_on_c, 0, 69, 54
1, 526471, Note_off_c, 0, 66, 47
1, 526474, Control_c, 0, 64, 82
1, 526489, Control_c, 0, 64, 82
1, 526502, Note_off_c, 0, 71, 32
1, 526516, Note_off_c, 0, 42, 39
1, 526533, Control_c, 0, 64, 83
1, 526554, Note_off_c, 0, 69, 34
1, 526675, Control_c, 0, 64, 82
1, 526705, Control_c, 0, 64, 81
1, 526719, Control_c, 0, 64, 77
1, 526733, Note_on_c, 0, 37, 30
1, 526734, Control_c, 0, 64, 71
1, 526749, Control_c, 0, 64, 64
1, 526763, Control_c, 0, 64, 54
1, 526770, Note_on_c, 0, 68, 40
1, 526778, Control_c, 0, 64, 36
1, 526781, Note_on_c, 0, 65, 42
1, 526793, Control_c, 0, 64, 0
1, 526808, Control_c, 0, 64, 34
1, 526823, Control_c, 0, 64, 40
1, 526837, Control_c, 0, 64, 48
1, 526852, Control_c, 0, 64, 56
1, 526867, Control_c, 0, 64, 63
1, 526883, Control_c, 0, 64, 67
1, 526898, Control_c, 0, 64, 72
1, 526913, Control_c, 0, 64, 76
1, 526922, Note_off_c, 0, 37, 39
1, 526928, Control_c, 0, 64, 78
1, 526942, Control_c, 0, 64, 80
1, 526957, Control_c, 0, 64, 81
1, 526972, Control_c, 0, 64, 83
1, 526986, Control_c, 0, 64, 85
1, 527001, Control_c, 0, 64, 85
1, 527016, Control_c, 0, 64, 86
1, 527031, Control_c, 0, 64, 86
1, 527046, Control_c, 0, 64, 87
1, 527318, Note_on_c, 0, 61, 26
1, 527365, Control_c, 0, 64, 86
1, 527380, Control_c, 0, 64, 83
1, 527394, Control_c, 0, 64, 76
1, 527409, Control_c, 0, 64, 67
1, 527424, Control_c, 0, 64, 57
1, 527439, Control_c, 0, 64, 44
1, 527454, Control_c, 0, 64, 42
1, 527468, Control_c, 0, 64, 47
1, 527483, Control_c, 0, 64, 53
1, 527498, Control_c, 0, 64, 57
1, 527513, Control_c, 0, 64, 62
1, 527528, Control_c, 0, 64, 67
1, 527542, Control_c, 0, 64, 73
1, 527557, Control_c, 0, 64, 79
1, 527572, Control_c, 0, 64, 83
1, 527586, Control_c, 0, 64, 85
1, 527601, Control_c, 0, 64, 88
1, 527616, Control_c, 0, 64, 92
1, 527631, Control_c, 0, 64, 96
1, 527646, Control_c, 0, 64, 99
1, 527675, Control_c, 0, 64, 102
1, 527691, Control_c, 0, 64, 104
1, 527706, Control_c, 0, 64, 107
1, 527717, Note_off_c, 0, 65, 42
1, 527736, Control_c, 0, 64, 109
1, 527743, Note_off_c, 0, 68, 35
1, 527780, Control_c, 0, 64, 112
1, 527824, Control_c, 0, 64, 114
1, 527827, Note_on_c, 0, 49, 32
1, 527928, Control_c, 0, 64, 117
1, 527937, Note_off_c, 0, 61, 40
1, 527999, Note_off_c, 0, 49, 42
1, 528365, Control_c, 0, 64, 111
1, 528380, Note_on_c, 0, 42, 28
1, 528380, Control_c, 0, 64, 100
1, 528395, Control_c, 0, 64, 88
1, 528405, Note_on_c, 0, 69, 58
1, 528409, Control_c, 0, 64, 75
1, 528424, Control_c, 0, 64, 65
1, 528439, Control_c, 0, 64, 55
1, 528454, Control_c, 0, 64, 47
1, 528469, Control_c, 0, 64, 50
1, 528485, Control_c, 0, 64, 54
1, 528500, Control_c, 0, 64, 58
1, 528514, Control_c, 0, 64, 61
1, 528529, Control_c, 0, 64, 66
1, 528544, Control_c, 0, 64, 71
1, 528558, Control_c, 0, 64, 79
1, 528573, Control_c, 0, 64, 85
1, 528588, Control_c, 0, 64, 88
1, 528603, Control_c, 0, 64, 91
1, 528618, Control_c, 0, 64, 94
1, 528632, Control_c, 0, 64, 96
1, 528638, Note_off_c, 0, 42, 41
1, 528647, Control_c, 0, 64, 98
1, 528824, Control_c, 0, 64, 93
1, 528839, Control_c, 0, 64, 90
1, 528861, Control_c, 0, 64, 86
1, 528876, Control_c, 0, 64, 83
1, 528891, Control_c, 0, 64, 80
1, 528906, Control_c, 0, 64, 76
1, 528921, Control_c, 0, 64, 71
1, 528936, Control_c, 0, 64, 66
1, 528951, Control_c, 0, 64, 61
1, 528965, Control_c, 0, 64, 55
1, 528980, Control_c, 0, 64, 50
1, 528989, Note_on_c, 0, 61, 34
1, 528995, Control_c, 0, 64, 46
1, 529010, Control_c, 0, 64, 41
1, 529025, Control_c, 0, 64, 36
1, 529039, Control_c, 0, 64, 33
1, 529069, Control_c, 0, 64, 36
1, 529084, Control_c, 0, 64, 42
1, 529099, Control_c, 0, 64, 49
1, 529113, Control_c, 0, 64, 56
1, 529128, Control_c, 0, 64, 62
1, 529143, Control_c, 0, 64, 66
1, 529143, Control_c, 0, 67, 19
1, 529157, Control_c, 0, 64, 71
1, 529157, Control_c, 0, 67, 22
1, 529172, Control_c, 0, 64, 78
1, 529172, Control_c, 0, 67, 24
1, 529187, Control_c, 0, 64, 83
1, 529187, Control_c, 0, 67, 27
1, 529202, Control_c, 0, 64, 87
1, 529202, Control_c, 0, 67, 30
1, 529217, Control_c, 0, 64, 91
1, 529217, Control_c, 0, 67, 36
1, 529231, Control_c, 0, 64, 95
1, 529231, Control_c, 0, 67, 43
1, 529246, Control_c, 0, 64, 99
1, 529246, Control_c, 0, 67, 53
1, 529261, Control_c, 0, 64, 104
1, 529261, Control_c, 0, 67, 67
1, 529277, Control_c, 0, 64, 111
1, 529277, Control_c, 0, 67, 80
1, 529292, Control_c, 0, 64, 119
1, 529292, Control_c, 0, 67, 90
1, 529307, Control_c, 0, 64, 127
1, 529307, Control_c, 0, 67, 99
1, 529322, Control_c, 0, 67, 107
1, 529336, Control_c, 0, 67, 113
1, 529351, Control_c, 0, 67, 118
1, 529366, Control_c, 0, 67, 121
1, 529467, Note_on_c, 0, 49, 32
1, 529571, Note_off_c, 0, 61, 40
1, 529641, Note_off_c, 0, 49, 40
1, 529774, Control_c, 0, 67, 119
1, 529848, Control_c, 0, 67, 117
1, 529892, Control_c, 0, 67, 114
1, 529906, Control_c, 0, 64, 114
1, 529921, Control_c, 0, 64, 106
1, 529921, Control_c, 0, 67, 111
1, 529936, Control_c, 0, 64, 98
1, 529951, Control_c, 0, 64, 89
1, 529951, Control_c, 0, 67, 107
1, 529966, Control_c, 0, 64, 78
1, 529966, Control_c, 0, 67, 105
1, 529980, Control_c, 0, 64, 69
1, 529980, Control_c, 0, 67, 99
1, 529981, Note_on_c, 0, 41, 30
1, 529995, Control_c, 0, 64, 60
1, 529995, Control_c, 0, 67, 91
1, 530010, Control_c, 0, 64, 49
1, 530010, Control_c, 0, 67, 81
1, 530021, Note_on_c, 0, 68, 57
1, 530025, Control_c, 0, 64, 42
1, 530025, Control_c, 0, 67, 73
1, 530040, Control_c, 0, 64, 41
1, 530040, Control_c, 0, 67, 68
1, 530054, Control_c, 0, 64, 41
1, 530054, Control_c, 0, 67, 64
1, 530069, Control_c, 0, 64, 42
1, 530069, Control_c, 0, 67, 62
1, 530085, Control_c, 0, 64, 44
1, 530085, Control_c, 0, 67, 60
1, 530098, Note_off_c, 0, 69, 38
1, 530100, Control_c, 0, 64, 48
1, 530100, Control_c, 0, 67, 58
1, 530115, Control_c, 0, 64, 54
1, 530115, Control_c, 0, 67, 55
1, 530129, Control_c, 0, 64, 59
1, 530129, Control_c, 0, 67, 54
1, 530144, Control_c, 0, 64, 63
1, 530159, Control_c, 0, 64, 68
1, 530174, Control_c, 0, 64, 74
1, 530189, Control_c, 0, 64, 80
1, 530203, Control_c, 0, 64, 84
1, 530218, Control_c, 0, 64, 88
1, 530218, Control_c, 0, 67, 54
1, 530221, Note_off_c, 0, 41, 40
1, 530233, Control_c, 0, 64, 91
1, 530233, Control_c, 0, 67, 56
1, 530248, Control_c, 0, 64, 94
1, 530248, Control_c, 0, 67, 57
1, 530263, Control_c, 0, 64, 98
1, 530263, Control_c, 0, 67, 57
1, 530277, Control_c, 0, 64, 102
1, 530277, Control_c, 0, 67, 59
1, 530292, Control_c, 0, 64, 105
1, 530292, Control_c, 0, 67, 60
1, 530307, Control_c, 0, 67, 62
1, 530322, Control_c, 0, 64, 107
1, 530322, Control_c, 0, 67, 63
1, 530337, Control_c, 0, 67, 64
1, 530359, Control_c, 0, 67, 65
1, 530374, Control_c, 0, 67, 66
1, 530389, Control_c, 0, 67, 67
1, 530418, Control_c, 0, 67, 67
1, 530433, Control_c, 0, 67, 68
1, 530463, Control_c, 0, 64, 104
1, 530463, Control_c, 0, 67, 68
1, 530477, Control_c, 0, 64, 102
1, 530477, Control_c, 0, 67, 69
1, 530492, Control_c, 0, 64, 98
1, 530492, Control_c, 0, 67, 69
1, 530507, Control_c, 0, 64, 94
1, 530507, Control_c, 0, 67, 70
1, 530522, Control_c, 0, 64, 89
1, 530522, Control_c, 0, 67, 75
1, 530537, Control_c, 0, 64, 83
1, 530537, Control_c, 0, 67, 80
1, 530552, Control_c, 0, 64, 78
1, 530552, Control_c, 0, 67, 85
1, 530563, Note_on_c, 0, 61, 30
1, 530566, Control_c, 0, 64, 71
1, 530566, Control_c, 0, 67, 89
1, 530581, Control_c, 0, 64, 65
1, 530581, Control_c, 0, 67, 92
1, 530596, Control_c, 0, 64, 58
1, 530596, Control_c, 0, 67, 95
1, 530611, Control_c, 0, 64, 49
1, 530611, Control_c, 0, 67, 99
1, 530626, Control_c, 0, 64, 40
1, 530626, Control_c, 0, 67, 102
1, 530641, Control_c, 0, 64, 37
1, 530641, Control_c, 0, 67, 105
1, 530656, Control_c, 0, 64, 37
1, 530656, Control_c, 0, 67, 108
1, 530671, Control_c, 0, 64, 38
1, 530671, Control_c, 0, 67, 110
1, 530685, Control_c, 0, 64, 42
1, 530700, Control_c, 0, 64, 49
1, 530700, Control_c, 0, 67, 113
1, 530715, Control_c, 0, 64, 55
1, 530715, Control_c, 0, 67, 115
1, 530729, Control_c, 0, 64, 60
1, 530729, Control_c, 0, 67, 118
1, 530744, Control_c, 0, 64, 64
1, 530744, Control_c, 0, 67, 122
1, 530759, Control_c, 0, 64, 69
1, 530759, Control_c, 0, 67, 127
1, 530774, Control_c, 0, 64, 75
1, 530789, Control_c, 0, 64, 80
1, 530803, Control_c, 0, 64, 83
1, 530818, Control_c, 0, 64, 85
1, 530833, Control_c, 0, 64, 88
1, 530847, Control_c, 0, 64, 92
1, 530862, Control_c, 0, 64, 97
1, 530879, Control_c, 0, 64, 102
1, 530894, Control_c, 0, 64, 106
1, 530908, Control_c, 0, 64, 110
1, 530923, Control_c, 0, 64, 112
1, 530938, Control_c, 0, 64, 115
1, 530952, Control_c, 0, 64, 119
1, 530967, Control_c, 0, 64, 125
1, 531035, Note_on_c, 0, 49, 33
1, 531056, Control_c, 0, 64, 127
1, 531085, Note_off_c, 0, 61, 36
1, 531160, Note_off_c, 0, 49, 37
1, 531374, Control_c, 0, 64, 125
1, 531419, Control_c, 0, 64, 122
1, 531433, Control_c, 0, 64, 114
1, 531434, Note_off_c, 0, 68, 40
1, 531437, Note_on_c, 0, 71, 51
1, 531448, Control_c, 0, 64, 107
1, 531463, Control_c, 0, 64, 96
1, 531477, Control_c, 0, 64, 83
1, 531489, Note_on_c, 0, 42, 36
1, 531492, Control_c, 0, 64, 70
1, 531507, Control_c, 0, 64, 58
1, 531517, Note_off_c, 0, 71, 54
1, 531522, Note_on_c, 0, 69, 53
1, 531522, Control_c, 0, 64, 41
1, 531537, Control_c, 0, 64, 38
1, 531551, Control_c, 0, 64, 44
1, 531551, Control_c, 0, 67, 125
1, 531566, Control_c, 0, 64, 53
1, 531566, Control_c, 0, 67, 122
1, 531581, Control_c, 0, 64, 59
1, 531581, Control_c, 0, 67, 119
1, 531596, Control_c, 0, 64, 63
1, 531596, Control_c, 0, 67, 116
1, 531611, Control_c, 0, 64, 67
1, 531611, Control_c, 0, 67, 105
1, 531625, Control_c, 0, 64, 72
1, 531625, Control_c, 0, 67, 90
1, 531640, Control_c, 0, 64, 76
1, 531640, Control_c, 0, 67, 76
1, 531655, Control_c, 0, 64, 79
1, 531655, Control_c, 0, 67, 63
1, 531671, Control_c, 0, 64, 80
1, 531671, Control_c, 0, 67, 50
1, 531683, Note_off_c, 0, 42, 38
1, 531686, Control_c, 0, 64, 81
1, 531686, Control_c, 0, 67, 38
1, 531700, Control_c, 0, 64, 83
1, 531700, Control_c, 0, 67, 24
1, 531715, Control_c, 0, 64, 84
1, 531715, Control_c, 0, 67, 0
1, 531730, Control_c, 0, 64, 84
1, 531745, Control_c, 0, 64, 85
1, 531760, Control_c, 0, 64, 85
1, 531784, Note_on_c, 0, 68, 60
1, 531821, Note_off_c, 0, 69, 52
1, 531887, Control_c, 0, 64, 85
1, 531901, Control_c, 0, 64, 83
1, 531916, Control_c, 0, 64, 81
1, 531931, Control_c, 0, 64, 79
1, 531946, Control_c, 0, 64, 78
1, 531961, Control_c, 0, 64, 76
1, 531975, Control_c, 0, 64, 75
1, 531990, Control_c, 0, 64, 73
1, 532005, Control_c, 0, 64, 72
1, 532020, Control_c, 0, 64, 71
1, 532035, Control_c, 0, 64, 69
1, 532049, Control_c, 0, 64, 68
1, 532052, Note_on_c, 0, 69, 51
1, 532057, Note_on_c, 0, 61, 31
1, 532064, Control_c, 0, 64, 66
1, 532079, Control_c, 0, 64, 63
1, 532082, Note_off_c, 0, 68, 57
1, 532094, Control_c, 0, 64, 60
1, 532108, Control_c, 0, 64, 55
1, 532123, Control_c, 0, 64, 49
1, 532138, Control_c, 0, 64, 42
1, 532153, Control_c, 0, 64, 34
1, 532168, Control_c, 0, 64, 0
1, 532227, Control_c, 0, 64, 36
1, 532242, Control_c, 0, 64, 48
1, 532257, Control_c, 0, 64, 58
1, 532272, Control_c, 0, 64, 64
1, 532286, Control_c, 0, 64, 67
1, 532301, Control_c, 0, 64, 70
1, 532316, Control_c, 0, 64, 72
1, 532331, Control_c, 0, 64, 73
1, 532346, Control_c, 0, 64, 74
1, 532361, Control_c, 0, 64, 76
1, 532375, Control_c, 0, 64, 77
1, 532390, Control_c, 0, 64, 78
1, 532397, Note_off_c, 0, 69, 46
1, 532405, Control_c, 0, 64, 79
1, 532418, Note_on_c, 0, 73, 45
1, 532464, Control_c, 0, 64, 78
1, 532480, Control_c, 0, 64, 74
1, 532480, Control_c, 0, 67, 21
1, 532489, Note_off_c, 0, 73, 49
1, 532495, Control_c, 0, 64, 69
1, 532495, Control_c, 0, 67, 24
1, 532510, Control_c, 0, 64, 62
1, 532510, Control_c, 0, 67, 26
1, 532514, Note_off_c, 0, 61, 37
1, 532520, Note_on_c, 0, 69, 42
1, 532524, Control_c, 0, 64, 52
1, 532524, Control_c, 0, 67, 32
1, 532534, Note_on_c, 0, 49, 33
1, 532539, Control_c, 0, 64, 42
1, 532539, Control_c, 0, 67, 41
1, 532554, Control_c, 0, 64, 45
1, 532554, Control_c, 0, 67, 53
1, 532569, Control_c, 0, 64, 51
1, 532569, Control_c, 0, 67, 69
1, 532584, Control_c, 0, 64, 57
1, 532584, Control_c, 0, 67, 86
1, 532605, Control_c, 0, 64, 63
1, 532605, Control_c, 0, 67, 101
1, 532620, Control_c, 0, 64, 68
1, 532620, Control_c, 0, 67, 115
1, 532635, Control_c, 0, 64, 74
1, 532635, Control_c, 0, 67, 124
1, 532650, Control_c, 0, 64, 79
1, 532650, Control_c, 0, 67, 127
1, 532665, Control_c, 0, 64, 82
1, 532675, Note_off_c, 0, 49, 57
1, 532680, Control_c, 0, 64, 84
1, 532695, Control_c, 0, 64, 85
1, 532710, Control_c, 0, 64, 87
1, 532724, Control_c, 0, 64, 87
1, 532739, Control_c, 0, 64, 88
1, 532902, Control_c, 0, 64, 87
1, 532917, Control_c, 0, 64, 86
1, 532931, Control_c, 0, 64, 85
1, 532946, Control_c, 0, 64, 83
1, 532961, Control_c, 0, 64, 81
1, 532976, Control_c, 0, 64, 77
1, 532991, Control_c, 0, 64, 72
1, 533005, Control_c, 0, 64, 65
1, 533020, Note_on_c, 0, 41, 31
1, 533020, Control_c, 0, 64, 58
1, 533035, Control_c, 0, 64, 47
1, 533044, Note_on_c, 0, 68, 49
1, 533050, Control_c, 0, 64, 42
1, 533064, Control_c, 0, 64, 43
1, 533079, Control_c, 0, 64, 44
1, 533094, Control_c, 0, 64, 46
1, 533103, Note_off_c, 0, 69, 32
1, 533109, Control_c, 0, 64, 49
1, 533124, Control_c, 0, 64, 53
1, 533139, Control_c, 0, 64, 58
1, 533154, Control_c, 0, 64, 64
1, 533169, Control_c, 0, 64, 67
1, 533184, Control_c, 0, 64, 71
1, 533198, Control_c, 0, 64, 75
1, 533213, Control_c, 0, 64, 78
1, 533228, Control_c, 0, 64, 81
1, 533228, Control_c, 0, 67, 112
1, 533242, Control_c, 0, 64, 83
1, 533242, Control_c, 0, 67, 97
1, 533249, Note_off_c, 0, 41, 38
1, 533257, Control_c, 0, 64, 87
1, 533257, Control_c, 0, 67, 83
1, 533273, Control_c, 0, 64, 90
1, 533273, Control_c, 0, 67, 72
1, 533288, Control_c, 0, 64, 93
1, 533288, Control_c, 0, 67, 64
1, 533303, Control_c, 0, 64, 94
1, 533303, Control_c, 0, 67, 57
1, 533318, Control_c, 0, 64, 94
1, 533318, Control_c, 0, 67, 51
1, 533333, Control_c, 0, 64, 95
1, 533333, Control_c, 0, 67, 45
1, 533354, Control_c, 0, 67, 40
1, 533369, Control_c, 0, 64, 95
1, 533369, Control_c, 0, 67, 36
1, 533384, Control_c, 0, 67, 34
1, 533399, Control_c, 0, 67, 32
1, 533428, Control_c, 0, 67, 30
1, 533488, Control_c, 0, 64, 95
1, 533503, Control_c, 0, 64, 92
1, 533518, Control_c, 0, 64, 88
1, 533532, Control_c, 0, 64, 84
1, 533547, Control_c, 0, 64, 80
1, 533562, Control_c, 0, 64, 78
1, 533577, Control_c, 0, 64, 75
1, 533592, Control_c, 0, 64, 72
1, 533607, Control_c, 0, 64, 69
1, 533618, Note_on_c, 0, 61, 27
1, 533621, Control_c, 0, 64, 65
1, 533636, Control_c, 0, 64, 62
1, 533651, Control_c, 0, 64, 59
1, 533666, Control_c, 0, 64, 57
1, 533680, Control_c, 0, 64, 56
1, 533695, Control_c, 0, 64, 53
1, 533710, Control_c, 0, 64, 49
1, 533725, Control_c, 0, 64, 44
1, 533740, Control_c, 0, 64, 37
1, 533754, Control_c, 0, 64, 0
1, 533887, Control_c, 0, 64, 41
1, 533902, Control_c, 0, 64, 50
1, 533917, Control_c, 0, 64, 58
1, 533932, Control_c, 0, 64, 63
1, 533947, Control_c, 0, 64, 67
1, 533962, Control_c, 0, 64, 71
1, 533977, Control_c, 0, 64, 75
1, 533991, Control_c, 0, 64, 79
1, 534006, Control_c, 0, 64, 83
1, 534021, Control_c, 0, 64, 89
1, 534036, Control_c, 0, 64, 95
1, 534051, Control_c, 0, 64, 104
1, 534060, Note_off_c, 0, 68, 57
1, 534066, Control_c, 0, 64, 115
1, 534081, Control_c, 0, 64, 127
1, 534121, Note_on_c, 0, 49, 33
1, 534188, Note_off_c, 0, 61, 39
1, 534192, Control_c, 0, 67, 32
1, 534207, Control_c, 0, 67, 32
1, 534237, Control_c, 0, 67, 33
1, 534251, Control_c, 0, 67, 33
1, 534260, Note_off_c, 0, 49, 42
1, 534266, Control_c, 0, 67, 34
1, 534281, Control_c, 0, 67, 34
1, 534310, Control_c, 0, 67, 35
1, 534325, Control_c, 0, 67, 35
1, 534400, Control_c, 0, 67, 36
1, 534430, Control_c, 0, 67, 36
1, 534459, Control_c, 0, 67, 37
1, 534474, Control_c, 0, 67, 37
1, 534518, Control_c, 0, 67, 38
1, 534563, Control_c, 0, 67, 38
1, 534695, Control_c, 0, 64, 97
1, 534710, Control_c, 0, 64, 78
1, 534718, Note_on_c, 0, 71, 73
1, 534719, Note_on_c, 0, 42, 28
1, 534725, Control_c, 0, 64, 66
1, 534737, Note_on_c, 0, 66, 52
1, 534740, Control_c, 0, 64, 54
1, 534755, Control_c, 0, 64, 51
1, 534770, Control_c, 0, 64, 56
1, 534770, Control_c, 0, 67, 39
1, 534784, Control_c, 0, 64, 60
1, 534784, Control_c, 0, 67, 39
1, 534799, Control_c, 0, 64, 63
1, 534799, Control_c, 0, 67, 40
1, 534814, Control_c, 0, 64, 67
1, 534814, Control_c, 0, 67, 41
1, 534829, Control_c, 0, 64, 73
1, 534829, Control_c, 0, 67, 42
1, 534851, Control_c, 0, 64, 82
1, 534851, Control_c, 0, 67, 43
1, 534866, Control_c, 0, 64, 89
1, 534866, Control_c, 0, 67, 46
1, 534880, Note_off_c, 0, 42, 46
1, 534882, Control_c, 0, 64, 94
1, 534882, Control_c, 0, 67, 48
1, 534897, Control_c, 0, 64, 99
1, 534897, Control_c, 0, 67, 57
1, 534912, Control_c, 0, 64, 103
1, 534912, Control_c, 0, 67, 68
1, 534926, Control_c, 0, 64, 106
1, 534926, Control_c, 0, 67, 80
1, 534941, Control_c, 0, 64, 108
1, 534941, Control_c, 0, 67, 91
1, 534956, Control_c, 0, 67, 101
1, 534971, Control_c, 0, 67, 111
1, 534986, Control_c, 0, 64, 110
1, 534986, Control_c, 0, 67, 121
1, 535000, Control_c, 0, 67, 127
1, 535074, Control_c, 0, 64, 108
1, 535089, Control_c, 0, 64, 104
1, 535104, Control_c, 0, 64, 101
1, 535118, Control_c, 0, 64, 98
1, 535133, Control_c, 0, 64, 94
1, 535148, Control_c, 0, 64, 89
1, 535163, Control_c, 0, 64, 85
1, 535178, Control_c, 0, 64, 82
1, 535193, Control_c, 0, 64, 80
1, 535208, Control_c, 0, 64, 78
1, 535223, Control_c, 0, 64, 75
1, 535238, Control_c, 0, 64, 72
1, 535252, Control_c, 0, 64, 68
1, 535267, Control_c, 0, 64, 65
1, 535282, Control_c, 0, 64, 64
1, 535297, Control_c, 0, 64, 62
1, 535312, Control_c, 0, 64, 61
1, 535326, Control_c, 0, 64, 59
1, 535341, Control_c, 0, 64, 55
1, 535356, Control_c, 0, 64, 50
1, 535357, Note_on_c, 0, 62, 42
1, 535371, Control_c, 0, 64, 44
1, 535386, Control_c, 0, 64, 35
1, 535400, Control_c, 0, 64, 0
1, 535533, Control_c, 0, 64, 36
1, 535548, Control_c, 0, 64, 49
1, 535563, Control_c, 0, 64, 58
1, 535578, Control_c, 0, 64, 63
1, 535600, Control_c, 0, 64, 66
1, 535615, Control_c, 0, 64, 70
1, 535630, Control_c, 0, 64, 73
1, 535644, Control_c, 0, 64, 76
1, 535659, Control_c, 0, 64, 79
1, 535675, Control_c, 0, 64, 82
1, 535690, Control_c, 0, 64, 85
1, 535705, Control_c, 0, 64, 89
1, 535720, Control_c, 0, 64, 92
1, 535735, Control_c, 0, 64, 95
1, 535749, Control_c, 0, 64, 98
1, 535779, Control_c, 0, 64, 100
1, 535823, Control_c, 0, 64, 102
1, 535861, Note_on_c, 0, 50, 32
1, 535904, Note_off_c, 0, 62, 34
1, 535923, Note_off_c, 0, 66, 60
1, 536017, Note_off_c, 0, 50, 41
1, 536373, Note_on_c, 0, 42, 35
1, 536393, Control_c, 0, 64, 96
1, 536394, Note_on_c, 0, 69, 58
1, 536408, Control_c, 0, 64, 88
1, 536416, Note_on_c, 0, 66, 40
1, 536423, Control_c, 0, 64, 78
1, 536438, Control_c, 0, 64, 66
1, 536453, Control_c, 0, 64, 56
1, 536469, Control_c, 0, 64, 46
1, 536481, Note_off_c, 0, 71, 54
1, 536484, Control_c, 0, 64, 50
1, 536498, Control_c, 0, 64, 55
1, 536513, Control_c, 0, 64, 59
1, 536528, Control_c, 0, 64, 63
1, 536543, Control_c, 0, 64, 67
1, 536543, Control_c, 0, 67, 120
1, 536558, Control_c, 0, 64, 72
1, 536558, Control_c, 0, 67, 93
1, 536572, Control_c, 0, 64, 76
1, 536572, Control_c, 0, 67, 62
1, 536587, Control_c, 0, 64, 78
1, 536587, Control_c, 0, 67, 29
1, 536592, Note_off_c, 0, 42, 51
1, 536602, Control_c, 0, 64, 80
1, 536602, Control_c, 0, 67, 0
1, 536617, Control_c, 0, 64, 81
1, 536632, Control_c, 0, 64, 82
1, 536646, Control_c, 0, 64, 83
1, 536735, Control_c, 0, 67, 19
1, 536750, Control_c, 0, 67, 23
1, 536764, Control_c, 0, 64, 82
1, 536764, Control_c, 0, 67, 28
1, 536779, Control_c, 0, 64, 80
1, 536779, Control_c, 0, 67, 34
1, 536794, Control_c, 0, 64, 78
1, 536794, Control_c, 0, 67, 43
1, 536809, Control_c, 0, 64, 76
1, 536809, Control_c, 0, 67, 54
1, 536824, Control_c, 0, 64, 74
1, 536824, Control_c, 0, 67, 65
1, 536838, Control_c, 0, 64, 71
1, 536838, Control_c, 0, 67, 77
1, 536853, Control_c, 0, 64, 69
1, 536853, Control_c, 0, 67, 87
1, 536868, Control_c, 0, 64, 67
1, 536868, Control_c, 0, 67, 96
1, 536883, Control_c, 0, 64, 64
1, 536883, Control_c, 0, 67, 105
1, 536898, Control_c, 0, 64, 62
1, 536898, Control_c, 0, 67, 116
1, 536913, Control_c, 0, 64, 59
1, 536913, Control_c, 0, 67, 124
1, 536928, Control_c, 0, 64, 57
1, 536928, Control_c, 0, 67, 127
1, 536943, Control_c, 0, 64, 53
1, 536957, Control_c, 0, 64, 49
1, 536972, Control_c, 0, 64, 43
1, 536973, Note_on_c, 0, 61, 31
1, 536987, Control_c, 0, 64, 34
1, 537002, Control_c, 0, 64, 0
1, 537098, Control_c, 0, 64, 38
1, 537113, Control_c, 0, 64, 47
1, 537128, Control_c, 0, 64, 56
1, 537143, Control_c, 0, 64, 62
1, 537158, Control_c, 0, 64, 65
1, 537172, Control_c, 0, 64, 67
1, 537187, Control_c, 0, 64, 69
1, 537202, Control_c, 0, 64, 72
1, 537217, Control_c, 0, 64, 74
1, 537232, Control_c, 0, 64, 76
1, 537247, Control_c, 0, 64, 78
1, 537262, Control_c, 0, 64, 80
1, 537277, Control_c, 0, 64, 82
1, 537292, Control_c, 0, 64, 85
1, 537307, Control_c, 0, 64, 87
1, 537321, Control_c, 0, 64, 88
1, 537336, Control_c, 0, 64, 90
1, 537351, Control_c, 0, 64, 90
1, 537366, Control_c, 0, 64, 91
1, 537396, Control_c, 0, 64, 91
1, 537482, Note_on_c, 0, 49, 21
1, 537485, Note_off_c, 0, 69, 55
1, 537513, Note_off_c, 0, 61, 36
1, 537555, Note_off_c, 0, 66, 32
1, 537631, Note_off_c, 0, 49, 41
1, 537879, Note_on_c, 0, 69, 44
1, 537936, Control_c, 0, 64, 91
1, 537951, Control_c, 0, 64, 90
1, 537965, Control_c, 0, 64, 86
1, 537980, Control_c, 0, 64, 80
1, 537995, Control_c, 0, 64, 71
1, 538010, Control_c, 0, 64, 62
1, 538011, Note_off_c, 0, 69, 37
1, 538013, Note_on_c, 0, 68, 44
1, 538017, Note_on_c, 0, 37, 32
1, 538025, Control_c, 0, 64, 47
1, 538034, Note_on_c, 0, 65, 45
1, 538040, Control_c, 0, 64, 0
1, 538054, Control_c, 0, 64, 33
1, 538070, Control_c, 0, 64, 40
1, 538085, Control_c, 0, 64, 47
1, 538100, Control_c, 0, 64, 54
1, 538115, Control_c, 0, 64, 60
1, 538130, Control_c, 0, 64, 64
1, 538144, Control_c, 0, 64, 68
1, 538159, Control_c, 0, 64, 71
1, 538174, Control_c, 0, 64, 73
1, 538189, Note_off_c, 0, 37, 39
1, 538189, Control_c, 0, 64, 75
1, 538204, Control_c, 0, 64, 76
1, 538218, Control_c, 0, 64, 78
1, 538233, Control_c, 0, 64, 79
1, 538248, Control_c, 0, 64, 81
1, 538263, Control_c, 0, 64, 82
1, 538278, Control_c, 0, 64, 83
1, 538293, Control_c, 0, 64, 83
1, 538308, Control_c, 0, 64, 84
1, 538352, Control_c, 0, 64, 84
1, 538367, Note_off_c, 0, 65, 52
1, 538397, Note_off_c, 0, 68, 36
1, 538500, Control_c, 0, 64, 84
1, 538515, Control_c, 0, 64, 82
1, 538519, Note_on_c, 0, 68, 50
1, 538530, Control_c, 0, 64, 75
1, 538531, Note_on_c, 0, 65, 40
1, 538544, Control_c, 0, 64, 68
1, 538552, Note_on_c, 0, 61, 22
1, 538559, Control_c, 0, 64, 60
1, 538574, Control_c, 0, 64, 50
1, 538596, Control_c, 0, 64, 51
1, 538611, Control_c, 0, 64, 55
1, 538626, Control_c, 0, 64, 59
1, 538641, Control_c, 0, 64, 63
1, 538656, Control_c, 0, 64, 66
1, 538670, Control_c, 0, 64, 70
1, 538685, Control_c, 0, 64, 74
1, 538700, Control_c, 0, 64, 76
1, 538715, Control_c, 0, 64, 77
1, 538730, Control_c, 0, 64, 78
1, 538744, Control_c, 0, 64, 79
1, 538759, Control_c, 0, 64, 80
1, 538774, Control_c, 0, 64, 80
1, 538778, Note_off_c, 0, 61, 39
1, 538788, Control_c, 0, 64, 81
1, 538818, Control_c, 0, 64, 81
1, 538885, Note_off_c, 0, 68, 33
1, 538896, Note_off_c, 0, 65, 41
1, 538907, Note_on_c, 0, 69, 41
1, 538967, Control_c, 0, 64, 79
1, 538982, Control_c, 0, 64, 74
1, 538997, Control_c, 0, 64, 67
1, 539000, Note_off_c, 0, 69, 34
1, 539002, Note_on_c, 0, 49, 36
1, 539011, Control_c, 0, 64, 60
1, 539022, Note_on_c, 0, 68, 46
1, 539026, Control_c, 0, 64, 49
1, 539036, Note_on_c, 0, 65, 36
1, 539041, Control_c, 0, 64, 47
1, 539044, Note_on_c, 0, 61, 35
1, 539056, Control_c, 0, 64, 51
1, 539071, Control_c, 0, 64, 55
1, 539086, Control_c, 0, 64, 59
1, 539101, Control_c, 0, 64, 63
1, 539116, Control_c, 0, 64, 67
1, 539131, Control_c, 0, 64, 72
1, 539145, Note_off_c, 0, 49, 57
1, 539145, Control_c, 0, 64, 75
1, 539160, Control_c, 0, 64, 77
1, 539175, Control_c, 0, 64, 78
1, 539190, Control_c, 0, 64, 79
1, 539205, Control_c, 0, 64, 81
1, 539217, Note_off_c, 0, 61, 40
1, 539219, Control_c, 0, 64, 81
1, 539232, Note_off_c, 0, 65, 56
1, 539234, Control_c, 0, 64, 82
1, 539264, Control_c, 0, 64, 82
1, 539537, Control_c, 0, 64, 82
1, 539552, Control_c, 0, 64, 80
1, 539560, Note_on_c, 0, 42, 29
1, 539561, Note_off_c, 0, 68, 35
1, 539566, Control_c, 0, 64, 78
1, 539581, Control_c, 0, 64, 73
1, 539584, Note_on_c, 0, 69, 38
1, 539596, Control_c, 0, 64, 68
1, 539610, Control_c, 0, 64, 61
1, 539619, Note_on_c, 0, 66, 33
1, 539621, Note_on_c, 0, 61, 24
1, 539625, Control_c, 0, 64, 49
1, 539640, Control_c, 0, 64, 46
1, 539656, Control_c, 0, 64, 47
1, 539671, Control_c, 0, 64, 50
1, 539686, Control_c, 0, 64, 53
1, 539701, Control_c, 0, 64, 56
1, 539715, Control_c, 0, 64, 61
1, 539730, Control_c, 0, 64, 66
1, 539745, Control_c, 0, 64, 70
1, 539760, Control_c, 0, 64, 74
1, 539775, Control_c, 0, 64, 76
1, 539782, Note_off_c, 0, 42, 41
1, 539789, Control_c, 0, 64, 76
1, 539804, Control_c, 0, 64, 77
1, 539834, Control_c, 0, 64, 78
1, 539953, Control_c, 0, 64, 77
1, 539968, Control_c, 0, 64, 77
1, 539982, Control_c, 0, 64, 76
1, 539997, Control_c, 0, 64, 75
1, 540012, Control_c, 0, 64, 73
1, 540027, Control_c, 0, 64, 71
1, 540041, Control_c, 0, 64, 68
1, 540057, Control_c, 0, 64, 64
1, 540072, Control_c, 0, 64, 59
1, 540094, Control_c, 0, 64, 51
1, 540109, Control_c, 0, 64, 43
1, 540123, Control_c, 0, 64, 37
1, 540127, Note_on_c, 0, 57, 32
1, 540153, Control_c, 0, 64, 40
1, 540168, Control_c, 0, 64, 45
1, 540183, Control_c, 0, 64, 51
1, 540198, Control_c, 0, 64, 58
1, 540213, Control_c, 0, 64, 63
1, 540228, Control_c, 0, 64, 67
1, 540242, Control_c, 0, 64, 72
1, 540257, Control_c, 0, 64, 75
1, 540272, Control_c, 0, 64, 78
1, 540287, Control_c, 0, 64, 80
1, 540302, Control_c, 0, 64, 82
1, 540316, Control_c, 0, 64, 84
1, 540331, Control_c, 0, 64, 87
1, 540346, Control_c, 0, 64, 89
1, 540360, Control_c, 0, 64, 90
1, 540375, Control_c, 0, 64, 90
1, 540420, Control_c, 0, 64, 91
1, 540633, Note_on_c, 0, 49, 32
1, 540726, Note_off_c, 0, 57, 39
1, 540760, Note_off_c, 0, 69, 32
1, 540782, Note_off_c, 0, 66, 34
1, 540801, Note_off_c, 0, 49, 38
1, 541007, Note_off_c, 0, 61, 34
1, 541038, Note_on_c, 0, 69, 41
1, 541125, Control_c, 0, 64, 90
1, 541139, Control_c, 0, 64, 89
1, 541154, Control_c, 0, 64, 87
1, 541169, Control_c, 0, 64, 83
1, 541176, Note_off_c, 0, 69, 33
1, 541183, Control_c, 0, 64, 77
1, 541187, Note_on_c, 0, 37, 30
1, 541198, Control_c, 0, 64, 70
1, 541208, Note_on_c, 0, 68, 41
1, 541213, Control_c, 0, 64, 60
1, 541228, Control_c, 0, 64, 47
1, 541237, Note_on_c, 0, 61, 21
1, 541241, Note_on_c, 0, 65, 35
1, 541243, Control_c, 0, 64, 38
1, 541259, Control_c, 0, 64, 39
1, 541274, Control_c, 0, 64, 43
1, 541288, Control_c, 0, 64, 47
1, 541303, Control_c, 0, 64, 52
1, 541318, Control_c, 0, 64, 60
1, 541333, Note_off_c, 0, 37, 36
1, 541333, Control_c, 0, 64, 64
1, 541348, Control_c, 0, 64, 69
1, 541362, Control_c, 0, 64, 73
1, 541377, Control_c, 0, 64, 77
1, 541392, Control_c, 0, 64, 78
1, 541406, Control_c, 0, 64, 79
1, 541421, Control_c, 0, 64, 80
1, 541436, Control_c, 0, 64, 82
1, 541451, Control_c, 0, 64, 83
1, 541466, Control_c, 0, 64, 83
1, 541480, Control_c, 0, 64, 84
1, 541485, Note_off_c, 0, 61, 40
1, 541495, Control_c, 0, 64, 84
1, 541510, Control_c, 0, 64, 85
1, 541546, Note_off_c, 0, 68, 33
1, 541550, Note_off_c, 0, 65, 40
1, 541749, Note_on_c, 0, 68, 34
1, 541754, Control_c, 0, 64, 84
1, 541769, Control_c, 0, 64, 83
1, 541782, Note_on_c, 0, 65, 29
1, 541784, Note_on_c, 0, 61, 26
1, 541784, Control_c, 0, 64, 80
1, 541799, Control_c, 0, 64, 75
1, 541813, Control_c, 0, 64, 68
1, 541828, Control_c, 0, 64, 60
1, 541843, Control_c, 0, 64, 51
1, 541873, Control_c, 0, 64, 54
1, 541888, Control_c, 0, 64, 57
1, 541903, Control_c, 0, 64, 60
1, 541918, Control_c, 0, 64, 63
1, 541932, Control_c, 0, 64, 67
1, 541947, Control_c, 0, 64, 71
1, 541962, Control_c, 0, 64, 75
1, 541977, Control_c, 0, 64, 77
1, 541983, Note_off_c, 0, 61, 40
1, 541992, Control_c, 0, 64, 78
1, 542006, Control_c, 0, 64, 79
1, 542021, Control_c, 0, 64, 79
1, 542036, Control_c, 0, 64, 80
1, 542067, Control_c, 0, 64, 80
1, 542106, Note_off_c, 0, 68, 41
1, 542135, Note_on_c, 0, 69, 35
1, 542135, Note_off_c, 0, 65, 40
1, 542215, Control_c, 0, 64, 77
1, 542229, Control_c, 0, 64, 73
1, 542237, Note_off_c, 0, 69, 36
1, 542244, Control_c, 0, 64, 67
1, 542249, Note_on_c, 0, 49, 31
1, 542252, Note_on_c, 0, 68, 38
1, 542259, Control_c, 0, 64, 61
1, 542274, Control_c, 0, 64, 54
1, 542289, Note_on_c, 0, 65, 33
1, 542289, Control_c, 0, 64, 53
1, 542293, Note_on_c, 0, 61, 25
1, 542304, Control_c, 0, 64, 55
1, 542319, Control_c, 0, 64, 58
1, 542341, Control_c, 0, 64, 60
1, 542356, Control_c, 0, 64, 63
1, 542371, Control_c, 0, 64, 66
1, 542386, Control_c, 0, 64, 70
1, 542401, Control_c, 0, 64, 74
1, 542407, Note_off_c, 0, 49, 55
1, 542416, Control_c, 0, 64, 76
1, 542429, Note_off_c, 0, 68, 57
1, 542430, Control_c, 0, 64, 77
1, 542445, Control_c, 0, 64, 78
1, 542457, Note_off_c, 0, 65, 40
1, 542460, Control_c, 0, 64, 79
1, 542475, Control_c, 0, 64, 79
1, 542505, Control_c, 0, 64, 80
1, 542505, Note_off_c, 0, 61, 40
1, 542800, Control_c, 0, 64, 79
1, 542814, Note_on_c, 0, 42, 29
1, 542815, Control_c, 0, 64, 79
1, 542825, Note_on_c, 0, 66, 36
1, 542830, Control_c, 0, 64, 78
1, 542842, Note_on_c, 0, 57, 21
1, 542845, Control_c, 0, 64, 77
1, 542850, Note_on_c, 0, 61, 15
1, 542860, Control_c, 0, 64, 75
1, 542875, Control_c, 0, 64, 72
1, 542890, Control_c, 0, 64, 68
1, 542905, Control_c, 0, 64, 62
1, 542920, Control_c, 0, 64, 52
1, 542934, Control_c, 0, 64, 46
1, 542949, Control_c, 0, 64, 46
1, 542964, Control_c, 0, 64, 47
1, 542979, Control_c, 0, 64, 49
1, 542994, Control_c, 0, 64, 52
1, 543009, Control_c, 0, 64, 55
1, 543024, Control_c, 0, 64, 61
1, 543039, Control_c, 0, 64, 65
1, 543052, Control_c, 0, 64, 68
1, 543067, Control_c, 0, 64, 72
1, 543089, Control_c, 0, 64, 75
1, 543104, Control_c, 0, 64, 76
1, 543119, Control_c, 0, 64, 78
1, 543134, Control_c, 0, 64, 79
1, 543149, Control_c, 0, 64, 80
1, 543164, Control_c, 0, 64, 81
1, 543179, Control_c, 0, 64, 81
1, 543193, Control_c, 0, 64, 82
1, 543208, Control_c, 0, 64, 83
1, 543267, Control_c, 0, 64, 83
1, 543316, Note_off_c, 0, 57, 36
1, 543352, Note_on_c, 0, 49, 30
1, 543356, Control_c, 0, 64, 84
1, 543364, Note_off_c, 0, 66, 26
1, 543438, Note_off_c, 0, 61, 24
1, 543489, Control_c, 0, 64, 84
1, 543550, Note_off_c, 0, 42, 41
1, 543593, Control_c, 0, 64, 85
1, 543638, Control_c, 0, 64, 85
1, 543712, Control_c, 0, 64, 86
1, 543757, Control_c, 0, 64, 86
1, 543867, Control_c, 0, 64, 87
1, 543936, Note_on_c, 0, 54, 19
1, 544051, Note_off_c, 0, 49, 40
1, 544171, Note_off_c, 0, 54, 40
1, 544735, Control_c, 0, 64, 86
1, 544750, Control_c, 0, 64, 86
1, 544764, Note_on_c, 0, 40, 16
1, 544764, Control_c, 0, 64, 85
1, 544779, Note_on_c, 0, 69, 38
1, 544779, Control_c, 0, 64, 84
1, 544794, Control_c, 0, 64, 82
1, 544809, Control_c, 0, 64, 78
1, 544824, Control_c, 0, 64, 72
1, 544839, Control_c, 0, 64, 64
1, 544854, Control_c, 0, 64, 56
1, 544869, Control_c, 0, 64, 48
1, 544884, Control_c, 0, 64, 49
1, 544899, Control_c, 0, 64, 52
1, 544913, Control_c, 0, 64, 56
1, 544928, Control_c, 0, 64, 59
1, 544943, Control_c, 0, 64, 63
1, 544957, Control_c, 0, 64, 66
1, 544972, Control_c, 0, 64, 70
1, 544982, Note_off_c, 0, 40, 36
1, 544987, Control_c, 0, 64, 75
1, 545002, Control_c, 0, 64, 77
1, 545017, Control_c, 0, 64, 78
1, 545031, Control_c, 0, 64, 79
1, 545046, Control_c, 0, 64, 79
1, 545061, Control_c, 0, 64, 80
1, 545179, Control_c, 0, 64, 79
1, 545194, Control_c, 0, 64, 78
1, 545209, Control_c, 0, 64, 76
1, 545224, Control_c, 0, 64, 74
1, 545238, Control_c, 0, 64, 71
1, 545254, Control_c, 0, 64, 69
1, 545269, Control_c, 0, 64, 66
1, 545284, Control_c, 0, 64, 64
1, 545298, Control_c, 0, 64, 62
1, 545313, Control_c, 0, 64, 60
1, 545335, Control_c, 0, 64, 59
1, 545350, Control_c, 0, 64, 58
1, 545379, Control_c, 0, 64, 57
1, 545394, Control_c, 0, 64, 53
1, 545396, Note_on_c, 0, 57, 30
1, 545409, Control_c, 0, 64, 48
1, 545424, Control_c, 0, 64, 43
1, 545439, Control_c, 0, 64, 40
1, 545468, Control_c, 0, 64, 41
1, 545483, Control_c, 0, 64, 43
1, 545498, Control_c, 0, 64, 47
1, 545513, Control_c, 0, 64, 52
1, 545528, Control_c, 0, 64, 57
1, 545542, Control_c, 0, 64, 61
1, 545557, Control_c, 0, 64, 64
1, 545572, Control_c, 0, 64, 67
1, 545587, Control_c, 0, 64, 72
1, 545602, Control_c, 0, 64, 76
1, 545617, Control_c, 0, 64, 79
1, 545632, Control_c, 0, 64, 81
1, 545647, Control_c, 0, 64, 84
1, 545661, Control_c, 0, 64, 86
1, 545676, Control_c, 0, 64, 88
1, 545691, Control_c, 0, 64, 90
1, 545705, Control_c, 0, 64, 92
1, 545720, Control_c, 0, 64, 92
1, 545735, Control_c, 0, 64, 93
1, 545839, Control_c, 0, 64, 93
1, 545900, Note_on_c, 0, 49, 26
1, 546017, Note_off_c, 0, 57, 41
1, 546079, Note_off_c, 0, 49, 41
1, 546335, Control_c, 0, 64, 93
1, 546380, Control_c, 0, 64, 91
1, 546395, Control_c, 0, 64, 89
1, 546396, Note_on_c, 0, 68, 43
1, 546401, Note_on_c, 0, 40, 25
1, 546410, Control_c, 0, 64, 86
1, 546425, Control_c, 0, 64, 82
1, 546440, Control_c, 0, 64, 75
1, 546455, Control_c, 0, 64, 67
1, 546470, Control_c, 0, 64, 59
1, 546473, Note_off_c, 0, 69, 35
1, 546484, Control_c, 0, 64, 50
1, 546499, Control_c, 0, 64, 50
1, 546514, Control_c, 0, 64, 51
1, 546528, Control_c, 0, 64, 54
1, 546543, Control_c, 0, 64, 56
1, 546558, Control_c, 0, 64, 58
1, 546573, Control_c, 0, 64, 62
1, 546581, Note_off_c, 0, 40, 35
1, 546588, Control_c, 0, 64, 65
1, 546602, Control_c, 0, 64, 69
1, 546617, Control_c, 0, 64, 72
1, 546632, Control_c, 0, 64, 75
1, 546647, Control_c, 0, 64, 77
1, 546662, Control_c, 0, 64, 78
1, 546676, Control_c, 0, 64, 79
1, 546691, Control_c, 0, 64, 80
1, 546720, Control_c, 0, 64, 80
1, 546750, Control_c, 0, 64, 81
1, 546847, Control_c, 0, 64, 80
1, 546863, Control_c, 0, 64, 80
1, 546878, Control_c, 0, 64, 79
1, 546893, Control_c, 0, 64, 78
1, 546907, Control_c, 0, 64, 77
1, 546922, Control_c, 0, 64, 76
1, 546937, Control_c, 0, 64, 75
1, 546951, Control_c, 0, 64, 71
1, 546959, Note_on_c, 0, 59, 28
1, 546966, Control_c, 0, 64, 67
1, 546981, Control_c, 0, 64, 61
1, 546996, Control_c, 0, 64, 54
1, 547011, Control_c, 0, 64, 46
1, 547025, Control_c, 0, 64, 44
1, 547055, Control_c, 0, 64, 46
1, 547070, Control_c, 0, 64, 48
1, 547085, Control_c, 0, 64, 52
1, 547099, Control_c, 0, 64, 57
1, 547114, Control_c, 0, 64, 61
1, 547129, Control_c, 0, 64, 64
1, 547144, Control_c, 0, 64, 66
1, 547158, Control_c, 0, 64, 70
1, 547173, Control_c, 0, 64, 74
1, 547188, Control_c, 0, 64, 77
1, 547203, Control_c, 0, 64, 80
1, 547218, Control_c, 0, 64, 81
1, 547233, Control_c, 0, 64, 82
1, 547248, Control_c, 0, 64, 83
1, 547262, Control_c, 0, 64, 84
1, 547277, Control_c, 0, 64, 85
1, 547292, Control_c, 0, 64, 85
1, 547307, Control_c, 0, 64, 86
1, 547322, Control_c, 0, 64, 86
1, 547366, Control_c, 0, 64, 87
1, 547449, Note_on_c, 0, 50, 35
1, 547519, Note_off_c, 0, 59, 24
1, 547618, Note_off_c, 0, 50, 32
1, 547683, Note_off_c, 0, 68, 22
1, 547837, Note_on_c, 0, 71, 40
1, 547849, Control_c, 0, 64, 86
1, 547864, Control_c, 0, 64, 85
1, 547879, Control_c, 0, 64, 82
1, 547891, Note_off_c, 0, 71, 56
1, 547894, Control_c, 0, 64, 75
1, 547908, Control_c, 0, 64, 68
1, 547919, Note_on_c, 0, 69, 39
1, 547923, Control_c, 0, 64, 61
1, 547933, Note_on_c, 0, 40, 13
1, 547938, Control_c, 0, 64, 54
1, 547968, Control_c, 0, 64, 56
1, 547982, Control_c, 0, 64, 58
1, 547997, Control_c, 0, 64, 60
1, 548012, Control_c, 0, 64, 63
1, 548027, Control_c, 0, 64, 66
1, 548042, Control_c, 0, 64, 70
1, 548056, Control_c, 0, 64, 75
1, 548071, Control_c, 0, 64, 77
1, 548082, Note_off_c, 0, 40, 35
1, 548086, Control_c, 0, 64, 78
1, 548100, Control_c, 0, 64, 79
1, 548115, Control_c, 0, 64, 79
1, 548130, Control_c, 0, 64, 80
1, 548145, Control_c, 0, 64, 80
1, 548160, Control_c, 0, 64, 81
1, 548195, Note_on_c, 0, 68, 52
1, 548198, Note_off_c, 0, 69, 55
1, 548204, Control_c, 0, 64, 81
1, 548404, Control_c, 0, 64, 81
1, 548419, Control_c, 0, 64, 80
1, 548426, Note_on_c, 0, 57, 28
1, 548434, Control_c, 0, 64, 77
1, 548449, Note_off_c, 0, 68, 57
1, 548450, Control_c, 0, 64, 73
1, 548460, Note_on_c, 0, 69, 43
1, 548465, Control_c, 0, 64, 67
1, 548479, Control_c, 0, 64, 62
1, 548494, Control_c, 0, 64, 54
1, 548509, Control_c, 0, 64, 47
1, 548538, Control_c, 0, 64, 49
1, 548553, Control_c, 0, 64, 51
1, 548568, Control_c, 0, 64, 54
1, 548583, Control_c, 0, 64, 57
1, 548598, Control_c, 0, 64, 63
1, 548613, Control_c, 0, 64, 66
1, 548628, Control_c, 0, 64, 70
1, 548643, Control_c, 0, 64, 74
1, 548658, Control_c, 0, 64, 75
1, 548672, Control_c, 0, 64, 76
1, 548687, Control_c, 0, 64, 76
1, 548702, Control_c, 0, 64, 77
1, 548717, Control_c, 0, 64, 77
1, 548731, Control_c, 0, 64, 78
1, 548746, Control_c, 0, 64, 78
1, 548761, Control_c, 0, 64, 79
1, 548807, Note_off_c, 0, 69, 35
1, 548816, Note_on_c, 0, 73, 42
1, 548864, Control_c, 0, 64, 78
1, 548875, Note_off_c, 0, 73, 52
1, 548879, Control_c, 0, 64, 76
1, 548894, Control_c, 0, 64, 70
1, 548909, Control_c, 0, 64, 64
1, 548911, Note_on_c, 0, 69, 40
1, 548923, Control_c, 0, 64, 55
1, 548932, Note_on_c, 0, 49, 22
1, 548938, Control_c, 0, 64, 48
1, 548953, Control_c, 0, 64, 49
1, 548956, Note_off_c, 0, 57, 35
1, 548968, Control_c, 0, 64, 52
1, 548983, Control_c, 0, 64, 56
1, 548997, Control_c, 0, 64, 60
1, 549012, Control_c, 0, 64, 65
1, 549027, Control_c, 0, 64, 69
1, 549042, Control_c, 0, 64, 75
1, 549057, Control_c, 0, 64, 78
1, 549079, Control_c, 0, 64, 79
1, 549089, Note_off_c, 0, 49, 45
1, 549094, Control_c, 0, 64, 80
1, 549123, Control_c, 0, 64, 80
1, 549138, Control_c, 0, 64, 81
1, 549153, Control_c, 0, 64, 81
1, 549376, Control_c, 0, 64, 81
1, 549391, Control_c, 0, 64, 79
1, 549406, Control_c, 0, 64, 78
1, 549421, Control_c, 0, 64, 75
1, 549423, Note_on_c, 0, 40, 16
1, 549436, Control_c, 0, 64, 70
1, 549450, Control_c, 0, 64, 65
1, 549456, Note_on_c, 0, 68, 42
1, 549465, Control_c, 0, 64, 58
1, 549480, Control_c, 0, 64, 49
1, 549495, Control_c, 0, 64, 42
1, 549498, Note_off_c, 0, 69, 33
1, 549510, Control_c, 0, 64, 41
1, 549525, Control_c, 0, 64, 43
1, 549540, Control_c, 0, 64, 46
1, 549554, Control_c, 0, 64, 51
1, 549569, Control_c, 0, 64, 55
1, 549584, Control_c, 0, 64, 61
1, 549599, Control_c, 0, 64, 65
1, 549614, Control_c, 0, 64, 68
1, 549627, Note_off_c, 0, 40, 40
1, 549628, Control_c, 0, 64, 72
1, 549643, Control_c, 0, 64, 75
1, 549658, Control_c, 0, 64, 76
1, 549672, Control_c, 0, 64, 77
1, 549687, Control_c, 0, 64, 78
1, 549702, Control_c, 0, 64, 79
1, 549717, Control_c, 0, 64, 79
1, 549732, Control_c, 0, 64, 80
1, 549746, Control_c, 0, 64, 80
1, 549761, Control_c, 0, 64, 81
1, 549776, Control_c, 0, 64, 81
1, 549791, Control_c, 0, 64, 82
1, 549872, Control_c, 0, 64, 82
1, 549976, Control_c, 0, 64, 82
1, 549989, Note_on_c, 0, 59, 31
1, 549991, Control_c, 0, 64, 81
1, 550006, Control_c, 0, 64, 79
1, 550020, Control_c, 0, 64, 77
1, 550035, Control_c, 0, 64, 73
1, 550051, Control_c, 0, 64, 67
1, 550066, Control_c, 0, 64, 60
1, 550081, Control_c, 0, 64, 50
1, 550095, Control_c, 0, 64, 38
1, 550110, Control_c, 0, 64, 38
1, 550125, Control_c, 0, 64, 41
1, 550140, Control_c, 0, 64, 46
1, 550155, Control_c, 0, 64, 51
1, 550169, Control_c, 0, 64, 56
1, 550184, Control_c, 0, 64, 63
1, 550199, Control_c, 0, 64, 67
1, 550214, Control_c, 0, 64, 71
1, 550229, Control_c, 0, 64, 74
1, 550243, Control_c, 0, 64, 77
1, 550258, Control_c, 0, 64, 79
1, 550273, Control_c, 0, 64, 81
1, 550288, Control_c, 0, 64, 83
1, 550303, Control_c, 0, 64, 86
1, 550318, Control_c, 0, 64, 90
1, 550333, Control_c, 0, 64, 94
1, 550348, Control_c, 0, 64, 99
1, 550363, Control_c, 0, 64, 104
1, 550377, Control_c, 0, 64, 111
1, 550392, Control_c, 0, 64, 127
1, 550422, Note_off_c, 0, 68, 46
1, 550452, Note_on_c, 0, 50, 33
1, 550525, Control_c, 0, 67, 118
1, 550540, Control_c, 0, 67, 108
1, 550555, Control_c, 0, 67, 95
1, 550556, Note_off_c, 0, 59, 36
1, 550577, Control_c, 0, 67, 84
1, 550592, Control_c, 0, 67, 72
1, 550607, Control_c, 0, 67, 59
1, 550621, Control_c, 0, 67, 47
1, 550634, Note_off_c, 0, 50, 35
1, 550636, Control_c, 0, 67, 36
1, 550651, Control_c, 0, 67, 24
1, 550666, Control_c, 0, 67, 0
1, 550989, Note_on_c, 0, 40, 16
1, 551034, Note_on_c, 0, 73, 58
1, 551037, Control_c, 0, 64, 105
1, 551051, Control_c, 0, 64, 86
1, 551066, Control_c, 0, 64, 72
1, 551081, Control_c, 0, 64, 60
1, 551096, Control_c, 0, 64, 49
1, 551111, Control_c, 0, 64, 48
1, 551126, Control_c, 0, 64, 52
1, 551141, Control_c, 0, 64, 55
1, 551156, Control_c, 0, 64, 58
1, 551170, Control_c, 0, 64, 61
1, 551185, Control_c, 0, 64, 66
1, 551200, Control_c, 0, 64, 71
1, 551215, Control_c, 0, 64, 78
1, 551230, Control_c, 0, 64, 83
1, 551244, Control_c, 0, 64, 85
1, 551254, Note_off_c, 0, 40, 41
1, 551259, Control_c, 0, 64, 88
1, 551274, Control_c, 0, 64, 92
1, 551289, Control_c, 0, 64, 96
1, 551304, Control_c, 0, 64, 101
1, 551325, Control_c, 0, 64, 105
1, 551340, Control_c, 0, 64, 110
1, 551355, Control_c, 0, 64, 119
1, 551370, Control_c, 0, 64, 127
1, 551504, Control_c, 0, 64, 114
1, 551518, Control_c, 0, 64, 92
1, 551533, Control_c, 0, 64, 77
1, 551548, Control_c, 0, 64, 66
1, 551563, Control_c, 0, 64, 61
1, 551566, Note_on_c, 0, 57, 34
1, 551578, Control_c, 0, 64, 62
1, 551592, Control_c, 0, 64, 65
1, 551607, Control_c, 0, 64, 67
1, 551622, Control_c, 0, 64, 70
1, 551637, Control_c, 0, 64, 73
1, 551653, Control_c, 0, 64, 78
1, 551667, Control_c, 0, 64, 83
1, 551682, Control_c, 0, 64, 88
1, 551697, Control_c, 0, 64, 91
1, 551712, Control_c, 0, 64, 93
1, 551727, Control_c, 0, 64, 95
1, 551741, Control_c, 0, 64, 96
1, 551749, Note_off_c, 0, 73, 37
1, 551756, Control_c, 0, 64, 99
1, 551771, Control_c, 0, 64, 102
1, 551786, Control_c, 0, 64, 106
1, 551859, Control_c, 0, 64, 108
1, 551926, Note_on_c, 0, 73, 59
1, 552053, Control_c, 0, 64, 105
1, 552070, Note_on_c, 0, 49, 33
1, 552074, Control_c, 0, 64, 94
1, 552089, Control_c, 0, 64, 78
1, 552104, Control_c, 0, 64, 68
1, 552119, Control_c, 0, 64, 61
1, 552124, Note_off_c, 0, 57, 40
1, 552134, Control_c, 0, 64, 59
1, 552147, Note_off_c, 0, 73, 56
1, 552148, Control_c, 0, 64, 60
1, 552157, Note_on_c, 0, 74, 57
1, 552163, Control_c, 0, 64, 62
1, 552178, Control_c, 0, 64, 64
1, 552193, Control_c, 0, 64, 67
1, 552208, Control_c, 0, 64, 71
1, 552223, Control_c, 0, 64, 77
1, 552238, Control_c, 0, 64, 82
1, 552253, Control_c, 0, 64, 85
1, 552267, Control_c, 0, 64, 88
1, 552274, Note_off_c, 0, 49, 49
1, 552282, Control_c, 0, 64, 90
1, 552290, Note_on_c, 0, 73, 69
1, 552297, Control_c, 0, 64, 91
1, 552312, Control_c, 0, 64, 92
1, 552327, Control_c, 0, 64, 92
1, 552341, Control_c, 0, 64, 93
1, 552356, Control_c, 0, 64, 93
1, 552371, Control_c, 0, 64, 94
1, 552379, Note_off_c, 0, 74, 32
1, 552393, Note_on_c, 0, 71, 73
1, 552397, Note_off_c, 0, 73, 61
1, 552478, Note_on_c, 0, 73, 75
1, 552505, Note_off_c, 0, 71, 59
1, 552520, Control_c, 0, 64, 93
1, 552535, Control_c, 0, 64, 91
1, 552549, Note_on_c, 0, 40, 29
1, 552550, Control_c, 0, 64, 87
1, 552564, Control_c, 0, 64, 80
1, 552579, Control_c, 0, 64, 71
1, 552594, Control_c, 0, 64, 63
1, 552609, Control_c, 0, 64, 53
1, 552619, Note_on_c, 0, 76, 68
1, 552624, Control_c, 0, 64, 43
1, 552631, Note_off_c, 0, 73, 61
1, 552638, Control_c, 0, 64, 40
1, 552668, Control_c, 0, 64, 40
1, 552683, Control_c, 0, 64, 43
1, 552697, Control_c, 0, 64, 49
1, 552712, Control_c, 0, 64, 55
1, 552727, Control_c, 0, 64, 62
1, 552742, Control_c, 0, 64, 66
1, 552757, Control_c, 0, 64, 71
1, 552757, Control_c, 0, 67, 20
1, 552771, Control_c, 0, 64, 77
1, 552787, Control_c, 0, 64, 82
1, 552787, Control_c, 0, 67, 22
1, 552802, Control_c, 0, 64, 83
1, 552820, Note_off_c, 0, 40, 40
1, 552824, Control_c, 0, 64, 84
1, 552824, Control_c, 0, 67, 25
1, 552839, Control_c, 0, 64, 85
1, 552854, Control_c, 0, 64, 87
1, 552854, Control_c, 0, 67, 30
1, 552869, Control_c, 0, 64, 89
1, 552869, Control_c, 0, 67, 34
1, 552884, Control_c, 0, 64, 90
1, 552884, Control_c, 0, 67, 39
1, 552898, Control_c, 0, 64, 91
1, 552898, Control_c, 0, 67, 45
1, 552913, Control_c, 0, 67, 52
1, 552928, Control_c, 0, 67, 60
1, 552943, Control_c, 0, 67, 67
1, 552958, Control_c, 0, 67, 75
1, 552972, Control_c, 0, 67, 81
1, 552987, Control_c, 0, 64, 90
1, 552987, Control_c, 0, 67, 86
1, 553002, Control_c, 0, 64, 88
1, 553002, Control_c, 0, 67, 92
1, 553016, Control_c, 0, 64, 87
1, 553016, Control_c, 0, 67, 97
1, 553031, Control_c, 0, 64, 85
1, 553031, Control_c, 0, 67, 104
1, 553046, Control_c, 0, 64, 83
1, 553046, Control_c, 0, 67, 111
1, 553061, Control_c, 0, 64, 81
1, 553061, Control_c, 0, 67, 119
1, 553076, Control_c, 0, 64, 79
1, 553076, Control_c, 0, 67, 126
1, 553090, Control_c, 0, 64, 77
1, 553105, Control_c, 0, 64, 75
1, 553120, Control_c, 0, 64, 72
1, 553135, Control_c, 0, 64, 69
1, 553150, Control_c, 0, 64, 65
1, 553165, Control_c, 0, 64, 61
1, 553180, Control_c, 0, 64, 53
1, 553184, Note_on_c, 0, 56, 26
1, 553191, Note_on_c, 0, 74, 60
1, 553194, Control_c, 0, 64, 45
1, 553209, Control_c, 0, 64, 39
1, 553224, Control_c, 0, 64, 36
1, 553239, Control_c, 0, 64, 35
1, 553254, Note_off_c, 0, 76, 51
1, 553269, Control_c, 0, 64, 36
1, 553284, Control_c, 0, 64, 42
1, 553299, Control_c, 0, 64, 49
1, 553314, Control_c, 0, 64, 55
1, 553329, Control_c, 0, 64, 61
1, 553344, Control_c, 0, 64, 65
1, 553358, Control_c, 0, 64, 69
1, 553373, Control_c, 0, 64, 75
1, 553388, Control_c, 0, 64, 79
1, 553403, Control_c, 0, 64, 81
1, 553418, Control_c, 0, 64, 82
1, 553433, Control_c, 0, 64, 84
1, 553447, Control_c, 0, 64, 86
1, 553462, Control_c, 0, 64, 87
1, 553477, Control_c, 0, 64, 89
1, 553492, Control_c, 0, 64, 90
1, 553521, Control_c, 0, 64, 90
1, 553601, Note_off_c, 0, 74, 46
1, 553692, Note_on_c, 0, 47, 32
1, 553810, Note_off_c, 0, 56, 37
1, 554225, Control_c, 0, 64, 90
1, 554240, Control_c, 0, 64, 87
1, 554255, Control_c, 0, 64, 82
1, 554256, Note_on_c, 0, 40, 19
1, 554256, Note_on_c, 0, 74, 44
1, 554269, Control_c, 0, 64, 74
1, 554284, Control_c, 0, 64, 66
1, 554291, Note_off_c, 0, 47, 38
1, 554299, Control_c, 0, 64, 56
1, 554321, Control_c, 0, 64, 46
1, 554336, Control_c, 0, 64, 46
1, 554351, Control_c, 0, 64, 51
1, 554366, Control_c, 0, 64, 56
1, 554381, Control_c, 0, 64, 62
1, 554395, Control_c, 0, 64, 66
1, 554410, Control_c, 0, 64, 70
1, 554425, Control_c, 0, 64, 75
1, 554440, Control_c, 0, 64, 79
1, 554448, Note_off_c, 0, 40, 59
1, 554455, Control_c, 0, 64, 81
1, 554469, Control_c, 0, 64, 81
1, 554484, Control_c, 0, 64, 82
1, 554499, Control_c, 0, 64, 83
1, 554514, Control_c, 0, 64, 84
1, 554529, Control_c, 0, 64, 84
1, 554535, Note_off_c, 0, 74, 46
1, 554536, Note_on_c, 0, 73, 46
1, 554543, Control_c, 0, 64, 85
1, 554573, Control_c, 0, 64, 85
1, 554574, Note_off_c, 0, 73, 61
1, 554676, Control_c, 0, 64, 85
1, 554691, Control_c, 0, 64, 84
1, 554706, Control_c, 0, 64, 80
1, 554721, Control_c, 0, 64, 74
1, 554736, Control_c, 0, 64, 67
1, 554751, Control_c, 0, 64, 58
1, 554762, Note_on_c, 0, 41, 32
1, 554765, Control_c, 0, 64, 46
1, 554774, Note_on_c, 0, 73, 49
1, 554780, Control_c, 0, 64, 43
1, 554782, Note_on_c, 0, 68, 37
1, 554792, Note_on_c, 0, 49, 26
1, 554795, Control_c, 0, 64, 46
1, 554810, Control_c, 0, 64, 50
1, 554825, Control_c, 0, 64, 54
1, 554840, Control_c, 0, 64, 59
1, 554855, Control_c, 0, 64, 64
1, 554870, Control_c, 0, 64, 70
1, 554885, Control_c, 0, 64, 75
1, 554900, Control_c, 0, 64, 79
1, 554914, Control_c, 0, 64, 80
1, 554929, Control_c, 0, 64, 81
1, 554944, Control_c, 0, 64, 82
1, 554959, Control_c, 0, 64, 83
1, 554963, Note_off_c, 0, 49, 41
1, 554974, Control_c, 0, 64, 84
1, 554989, Control_c, 0, 64, 84
1, 555001, Note_off_c, 0, 68, 41
1, 555002, Note_on_c, 0, 71, 54
1, 555004, Control_c, 0, 64, 85
1, 555018, Control_c, 0, 64, 85
1, 555034, Control_c, 0, 64, 86
1, 555037, Note_off_c, 0, 71, 65
1, 555049, Control_c, 0, 64, 87
1, 555051, Note_off_c, 0, 73, 37
1, 555071, Control_c, 0, 64, 88
1, 555086, Control_c, 0, 64, 88
1, 555120, Note_off_c, 0, 41, 18
1, 555174, Control_c, 0, 64, 88
1, 555189, Control_c, 0, 64, 84
1, 555204, Control_c, 0, 64, 76
1, 555219, Control_c, 0, 64, 68
1, 555233, Note_on_c, 0, 71, 41
1, 555233, Control_c, 0, 64, 59
1, 555248, Control_c, 0, 64, 47
1, 555251, Note_on_c, 0, 66, 39
1, 555254, Note_on_c, 0, 42, 19
1, 555263, Control_c, 0, 64, 39
1, 555266, Note_on_c, 0, 49, 23
1, 555278, Control_c, 0, 64, 40
1, 555293, Control_c, 0, 64, 43
1, 555308, Control_c, 0, 64, 48
1, 555323, Control_c, 0, 64, 53
1, 555338, Control_c, 0, 64, 59
1, 555353, Control_c, 0, 64, 64
1, 555367, Control_c, 0, 64, 69
1, 555382, Control_c, 0, 64, 74
1, 555394, Note_off_c, 0, 49, 37
1, 555397, Control_c, 0, 64, 77
1, 555411, Control_c, 0, 64, 78
1, 555426, Control_c, 0, 64, 79
1, 555430, Note_off_c, 0, 66, 35
1, 555441, Control_c, 0, 64, 80
1, 555451, Note_on_c, 0, 69, 46
1, 555456, Control_c, 0, 64, 81
1, 555471, Control_c, 0, 64, 83
1, 555485, Control_c, 0, 64, 83
1, 555489, Note_off_c, 0, 71, 29
1, 555490, Note_off_c, 0, 42, 44
1, 555500, Control_c, 0, 64, 84
1, 555556, Note_off_c, 0, 69, 29
1, 555679, Control_c, 0, 64, 81
1, 555694, Control_c, 0, 64, 76
1, 555708, Control_c, 0, 64, 69
1, 555710, Note_on_c, 0, 37, 31
1, 555723, Control_c, 0, 64, 61
1, 555738, Control_c, 0, 64, 49
1, 555751, Note_on_c, 0, 68, 41
1, 555753, Control_c, 0, 64, 41
1, 555768, Control_c, 0, 64, 44
1, 555777, Note_on_c, 0, 65, 33
1, 555782, Control_c, 0, 64, 50
1, 555797, Control_c, 0, 64, 54
1, 555820, Control_c, 0, 64, 58
1, 555835, Control_c, 0, 64, 63
1, 555849, Control_c, 0, 64, 67
1, 555864, Control_c, 0, 64, 73
1, 555879, Control_c, 0, 64, 79
1, 555894, Control_c, 0, 64, 81
1, 555909, Control_c, 0, 64, 82
1, 555923, Control_c, 0, 64, 84
1, 555929, Note_off_c, 0, 37, 39
1, 555938, Control_c, 0, 64, 85
1, 555953, Control_c, 0, 64, 87
1, 555968, Control_c, 0, 64, 88
1, 556160, Control_c, 0, 64, 87
1, 556175, Control_c, 0, 64, 86
1, 556190, Control_c, 0, 64, 84
1, 556205, Control_c, 0, 64, 83
1, 556220, Control_c, 0, 64, 81
1, 556234, Control_c, 0, 64, 80
1, 556249, Control_c, 0, 64, 78
1, 556264, Control_c, 0, 64, 76
1, 556279, Control_c, 0, 64, 74
1, 556294, Control_c, 0, 64, 71
1, 556300, Note_on_c, 0, 61, 33
1, 556308, Control_c, 0, 64, 69
1, 556323, Control_c, 0, 64, 65
1, 556338, Control_c, 0, 64, 62
1, 556353, Control_c, 0, 64, 57
1, 556367, Control_c, 0, 64, 50
1, 556382, Control_c, 0, 64, 43
1, 556397, Control_c, 0, 64, 35
1, 556412, Control_c, 0, 64, 0
1, 556502, Control_c, 0, 64, 34
1, 556517, Control_c, 0, 64, 47
1, 556531, Control_c, 0, 64, 58
1, 556546, Control_c, 0, 64, 63
1, 556569, Control_c, 0, 64, 68
1, 556583, Control_c, 0, 64, 72
1, 556598, Control_c, 0, 64, 77
1, 556613, Control_c, 0, 64, 81
1, 556628, Control_c, 0, 64, 86
1, 556643, Control_c, 0, 64, 93
1, 556658, Control_c, 0, 64, 101
1, 556669, Note_off_c, 0, 65, 47
1, 556672, Note_off_c, 0, 68, 62
1, 556672, Control_c, 0, 64, 120
1, 556687, Control_c, 0, 64, 127
1, 556805, Control_c, 0, 67, 124
1, 556820, Control_c, 0, 67, 114
1, 556835, Control_c, 0, 67, 103
1, 556845, Note_on_c, 0, 49, 35
1, 556850, Control_c, 0, 67, 91
1, 556864, Control_c, 0, 67, 77
1, 556879, Control_c, 0, 67, 66
1, 556894, Control_c, 0, 67, 56
1, 556909, Control_c, 0, 67, 47
1, 556924, Control_c, 0, 67, 40
1, 556938, Control_c, 0, 67, 32
1, 556945, Note_off_c, 0, 61, 41
1, 556953, Control_c, 0, 67, 25
1, 556968, Control_c, 0, 67, 0
1, 556993, Note_off_c, 0, 49, 44
1, 557466, Note_on_c, 0, 42, 33
1, 557481, Control_c, 0, 64, 118
1, 557496, Control_c, 0, 64, 88
1, 557507, Note_on_c, 0, 78, 83
1, 557511, Control_c, 0, 64, 73
1, 557526, Control_c, 0, 64, 62
1, 557532, Note_on_c, 0, 71, 47
1, 557541, Note_on_c, 0, 66, 43
1, 557541, Control_c, 0, 64, 51
1, 557555, Control_c, 0, 64, 51
1, 557570, Control_c, 0, 64, 55
1, 557585, Control_c, 0, 64, 59
1, 557600, Control_c, 0, 64, 62
1, 557614, Control_c, 0, 64, 65
1, 557629, Control_c, 0, 64, 71
1, 557644, Control_c, 0, 64, 78
1, 557659, Control_c, 0, 64, 85
1, 557672, Note_off_c, 0, 42, 42
1, 557674, Control_c, 0, 64, 90
1, 557688, Control_c, 0, 64, 94
1, 557703, Control_c, 0, 64, 98
1, 557718, Control_c, 0, 64, 101
1, 557732, Control_c, 0, 64, 104
1, 557747, Control_c, 0, 64, 107
1, 557762, Control_c, 0, 64, 110
1, 557792, Control_c, 0, 64, 113
1, 557792, Control_c, 0, 67, 19
1, 557836, Control_c, 0, 67, 22
1, 557880, Control_c, 0, 67, 24
1, 557925, Control_c, 0, 64, 110
1, 557940, Control_c, 0, 64, 108
1, 557940, Control_c, 0, 67, 26
1, 557955, Control_c, 0, 64, 105
1, 557970, Control_c, 0, 64, 102
1, 557985, Control_c, 0, 64, 98
1, 557985, Control_c, 0, 67, 28
1, 558000, Control_c, 0, 64, 95
1, 558014, Control_c, 0, 64, 93
1, 558028, Control_c, 0, 64, 90
1, 558028, Control_c, 0, 67, 30
1, 558043, Control_c, 0, 64, 88
1, 558065, Control_c, 0, 64, 85
1, 558065, Control_c, 0, 67, 35
1, 558080, Control_c, 0, 64, 82
1, 558080, Control_c, 0, 67, 39
1, 558095, Control_c, 0, 64, 79
1, 558095, Control_c, 0, 67, 44
1, 558110, Control_c, 0, 64, 75
1, 558110, Control_c, 0, 67, 49
1, 558125, Control_c, 0, 64, 70
1, 558125, Control_c, 0, 67, 54
1, 558140, Control_c, 0, 64, 63
1, 558140, Control_c, 0, 67, 60
1, 558145, Note_on_c, 0, 62, 45
1, 558155, Control_c, 0, 64, 55
1, 558155, Control_c, 0, 67, 67
1, 558169, Control_c, 0, 64, 43
1, 558169, Control_c, 0, 67, 75
1, 558184, Control_c, 0, 64, 40
1, 558184, Control_c, 0, 67, 82
1, 558199, Control_c, 0, 67, 91
1, 558214, Control_c, 0, 64, 40
1, 558214, Control_c, 0, 67, 100
1, 558229, Control_c, 0, 67, 107
1, 558243, Control_c, 0, 64, 42
1, 558243, Control_c, 0, 67, 115
1, 558258, Control_c, 0, 64, 47
1, 558258, Control_c, 0, 67, 124
1, 558273, Control_c, 0, 64, 53
1, 558273, Control_c, 0, 67, 127
1, 558288, Control_c, 0, 64, 57
1, 558303, Control_c, 0, 64, 61
1, 558317, Control_c, 0, 64, 64
1, 558332, Control_c, 0, 64, 68
1, 558347, Control_c, 0, 64, 74
1, 558361, Control_c, 0, 64, 80
1, 558376, Control_c, 0, 64, 84
1, 558391, Control_c, 0, 64, 88
1, 558406, Control_c, 0, 64, 92
1, 558421, Control_c, 0, 64, 96
1, 558435, Control_c, 0, 64, 100
1, 558450, Control_c, 0, 64, 105
1, 558465, Control_c, 0, 64, 109
1, 558480, Control_c, 0, 64, 111
1, 558495, Control_c, 0, 64, 113
1, 558524, Control_c, 0, 64, 116
1, 558554, Control_c, 0, 64, 118
1, 558635, Note_on_c, 0, 50, 37
1, 558718, Note_off_c, 0, 62, 39
1, 558748, Note_off_c, 0, 78, 54
1, 558783, Note_off_c, 0, 71, 56
1, 558873, Note_off_c, 0, 50, 39
1, 558885, Note_off_c, 0, 66, 39
1, 559126, Control_c, 0, 64, 116
1, 559140, Control_c, 0, 64, 109
1, 559141, Note_on_c, 0, 42, 39
1, 559155, Control_c, 0, 64, 96
1, 559170, Note_on_c, 0, 73, 52
1, 559170, Control_c, 0, 64, 83
1, 559184, Control_c, 0, 64, 71
1, 559199, Control_c, 0, 64, 60
1, 559203, Note_on_c, 0, 69, 28
1, 559207, Note_on_c, 0, 66, 28
1, 559214, Control_c, 0, 64, 45
1, 559229, Control_c, 0, 64, 42
1, 559244, Control_c, 0, 64, 47
1, 559258, Control_c, 0, 64, 54
1, 559273, Control_c, 0, 64, 58
1, 559288, Control_c, 0, 64, 63
1, 559302, Control_c, 0, 64, 67
1, 559317, Control_c, 0, 64, 72
1, 559332, Control_c, 0, 64, 77
1, 559344, Note_off_c, 0, 42, 41
1, 559347, Control_c, 0, 64, 80
1, 559362, Control_c, 0, 64, 81
1, 559377, Control_c, 0, 64, 82
1, 559392, Control_c, 0, 64, 83
1, 559407, Control_c, 0, 64, 84
1, 559422, Control_c, 0, 64, 85
1, 559436, Control_c, 0, 64, 85
1, 559562, Control_c, 0, 64, 85
1, 559577, Control_c, 0, 64, 84
1, 559591, Control_c, 0, 64, 84
1, 559606, Control_c, 0, 64, 83
1, 559621, Control_c, 0, 64, 82
1, 559637, Control_c, 0, 64, 81
1, 559652, Control_c, 0, 64, 80
1, 559667, Control_c, 0, 64, 79
1, 559681, Control_c, 0, 64, 77
1, 559696, Control_c, 0, 64, 74
1, 559711, Control_c, 0, 64, 70
1, 559726, Note_on_c, 0, 61, 30
1, 559726, Control_c, 0, 64, 64
1, 559741, Control_c, 0, 64, 55
1, 559755, Control_c, 0, 64, 39
1, 559770, Control_c, 0, 64, 0
1, 559860, Control_c, 0, 64, 36
1, 559875, Control_c, 0, 64, 44
1, 559889, Control_c, 0, 64, 52
1, 559904, Control_c, 0, 64, 59
1, 559919, Control_c, 0, 64, 63
1, 559933, Control_c, 0, 64, 67
1, 559948, Control_c, 0, 64, 71
1, 559963, Control_c, 0, 64, 75
1, 559978, Control_c, 0, 64, 78
1, 559993, Control_c, 0, 64, 80
1, 560007, Control_c, 0, 64, 84
1, 560022, Control_c, 0, 64, 87
1, 560037, Control_c, 0, 64, 89
1, 560052, Control_c, 0, 64, 91
1, 560067, Control_c, 0, 64, 92
1, 560081, Control_c, 0, 64, 93
1, 560096, Control_c, 0, 64, 95
1, 560125, Control_c, 0, 64, 98
1, 560185, Control_c, 0, 64, 100
1, 560231, Note_on_c, 0, 49, 28
1, 560253, Note_off_c, 0, 61, 35
1, 560339, Note_off_c, 0, 69, 41
1, 560360, Note_off_c, 0, 49, 35
1, 560395, Note_off_c, 0, 66, 26
1, 560468, Note_off_c, 0, 73, 31
1, 560534, Control_c, 0, 64, 102
1, 560671, Note_on_c, 0, 69, 38
1, 560742, Control_c, 0, 64, 99
1, 560755, Note_off_c, 0, 69, 37
1, 560756, Control_c, 0, 64, 90
1, 560771, Control_c, 0, 64, 79
1, 560772, Note_on_c, 0, 37, 32
1, 560784, Note_on_c, 0, 73, 43
1, 560786, Control_c, 0, 64, 68
1, 560793, Note_on_c, 0, 68, 41
1, 560800, Note_on_c, 0, 65, 41
1, 560801, Control_c, 0, 64, 56
1, 560816, Control_c, 0, 64, 34
1, 560830, Control_c, 0, 64, 0
1, 560860, Control_c, 0, 64, 39
1, 560875, Control_c, 0, 64, 47
1, 560890, Control_c, 0, 64, 57
1, 560904, Control_c, 0, 64, 64
1, 560919, Control_c, 0, 64, 69
1, 560934, Control_c, 0, 64, 74
1, 560942, Note_off_c, 0, 37, 39
1, 560948, Control_c, 0, 64, 78
1, 560963, Control_c, 0, 64, 79
1, 560978, Control_c, 0, 64, 80
1, 560993, Control_c, 0, 64, 82
1, 561008, Control_c, 0, 64, 83
1, 561022, Control_c, 0, 64, 85
1, 561037, Control_c, 0, 64, 86
1, 561060, Control_c, 0, 64, 87
1, 561075, Control_c, 0, 64, 88
1, 561122, Note_off_c, 0, 68, 51
1, 561145, Note_off_c, 0, 65, 40
1, 561148, Note_off_c, 0, 73, 31
1, 561283, Control_c, 0, 64, 87
1, 561298, Control_c, 0, 64, 84
1, 561313, Control_c, 0, 64, 78
1, 561328, Note_on_c, 0, 61, 30
1, 561328, Control_c, 0, 64, 70
1, 561329, Note_on_c, 0, 68, 37
1, 561336, Note_on_c, 0, 65, 40
1, 561342, Control_c, 0, 64, 61
1, 561350, Note_on_c, 0, 73, 38
1, 561357, Control_c, 0, 64, 46
1, 561372, Control_c, 0, 64, 40
1, 561386, Control_c, 0, 64, 41
1, 561401, Control_c, 0, 64, 45
1, 561416, Control_c, 0, 64, 51
1, 561431, Control_c, 0, 64, 56
1, 561446, Control_c, 0, 64, 63
1, 561461, Control_c, 0, 64, 68
1, 561475, Control_c, 0, 64, 73
1, 561490, Control_c, 0, 64, 77
1, 561505, Control_c, 0, 64, 78
1, 561520, Control_c, 0, 64, 79
1, 561535, Control_c, 0, 64, 80
1, 561550, Control_c, 0, 64, 83
1, 561565, Control_c, 0, 64, 85
1, 561579, Control_c, 0, 64, 87
1, 561594, Control_c, 0, 64, 88
1, 561609, Control_c, 0, 64, 90
1, 561653, Control_c, 0, 64, 90
1, 561684, Note_off_c, 0, 68, 36
1, 561690, Note_off_c, 0, 73, 42
1, 561694, Note_off_c, 0, 65, 42
1, 561704, Note_on_c, 0, 69, 48
1, 561742, Control_c, 0, 64, 90
1, 561754, Note_off_c, 0, 69, 58
1, 561757, Control_c, 0, 64, 84
1, 561768, Note_off_c, 0, 61, 33
1, 561771, Control_c, 0, 64, 75
1, 561786, Control_c, 0, 64, 66
1, 561796, Note_on_c, 0, 73, 53
1, 561809, Control_c, 0, 64, 54
1, 561815, Note_on_c, 0, 68, 48
1, 561819, Note_on_c, 0, 49, 27
1, 561824, Control_c, 0, 64, 44
1, 561833, Note_on_c, 0, 65, 35
1, 561839, Control_c, 0, 64, 47
1, 561853, Control_c, 0, 64, 53
1, 561868, Control_c, 0, 64, 58
1, 561883, Control_c, 0, 64, 63
1, 561898, Control_c, 0, 64, 68
1, 561912, Control_c, 0, 64, 73
1, 561927, Control_c, 0, 64, 78
1, 561934, Note_off_c, 0, 49, 52
1, 561942, Control_c, 0, 64, 80
1, 561950, Note_off_c, 0, 73, 51
1, 561957, Control_c, 0, 64, 81
1, 561972, Control_c, 0, 64, 82
1, 561986, Control_c, 0, 64, 83
1, 561994, Note_off_c, 0, 65, 40
1, 562001, Control_c, 0, 64, 84
1, 562016, Control_c, 0, 64, 86
1, 562032, Control_c, 0, 64, 86
1, 562047, Control_c, 0, 64, 87
1, 562062, Control_c, 0, 64, 87
1, 562106, Control_c, 0, 64, 88
1, 562269, Control_c, 0, 64, 87
1, 562283, Control_c, 0, 64, 86
1, 562298, Control_c, 0, 64, 82
1, 562303, Note_off_c, 0, 68, 36
1, 562308, Note_on_c, 0, 42, 28
1, 562313, Control_c, 0, 64, 76
1, 562328, Control_c, 0, 64, 68
1, 562330, Note_on_c, 0, 73, 38
1, 562337, Note_on_c, 0, 66, 29
1, 562343, Control_c, 0, 64, 58
1, 562346, Note_on_c, 0, 69, 28
1, 562358, Control_c, 0, 64, 44
1, 562373, Control_c, 0, 64, 41
1, 562388, Control_c, 0, 64, 42
1, 562402, Control_c, 0, 64, 46
1, 562417, Control_c, 0, 64, 50
1, 562432, Control_c, 0, 64, 55
1, 562447, Control_c, 0, 64, 62
1, 562462, Control_c, 0, 64, 66
1, 562476, Control_c, 0, 64, 71
1, 562491, Control_c, 0, 64, 74
1, 562506, Control_c, 0, 64, 76
1, 562511, Note_off_c, 0, 42, 42
1, 562521, Control_c, 0, 64, 76
1, 562536, Control_c, 0, 64, 77
1, 562558, Control_c, 0, 64, 78
1, 562573, Control_c, 0, 64, 78
1, 562677, Control_c, 0, 64, 78
1, 562692, Control_c, 0, 64, 76
1, 562707, Control_c, 0, 64, 74
1, 562721, Control_c, 0, 64, 70
1, 562736, Control_c, 0, 64, 64
1, 562751, Control_c, 0, 64, 54
1, 562766, Control_c, 0, 64, 42
1, 562781, Control_c, 0, 64, 34
1, 562796, Control_c, 0, 64, 0
1, 562841, Control_c, 0, 64, 36
1, 562856, Control_c, 0, 64, 44
1, 562857, Note_on_c, 0, 61, 28
1, 562870, Control_c, 0, 64, 53
1, 562885, Control_c, 0, 64, 60
1, 562900, Control_c, 0, 64, 65
1, 562915, Control_c, 0, 64, 68
1, 562930, Control_c, 0, 64, 72
1, 562945, Control_c, 0, 64, 76
1, 562959, Control_c, 0, 64, 78
1, 562974, Control_c, 0, 64, 80
1, 562989, Control_c, 0, 64, 82
1, 562996, Note_off_c, 0, 73, 33
1, 563004, Control_c, 0, 64, 83
1, 563019, Control_c, 0, 64, 85
1, 563033, Control_c, 0, 64, 87
1, 563048, Control_c, 0, 64, 88
1, 563063, Control_c, 0, 64, 89
1, 563078, Control_c, 0, 64, 89
1, 563092, Control_c, 0, 64, 90
1, 563099, Note_off_c, 0, 66, 39
1, 563107, Control_c, 0, 64, 90
1, 563122, Control_c, 0, 64, 91
1, 563166, Control_c, 0, 64, 92
1, 563179, Note_off_c, 0, 69, 40
1, 563318, Note_off_c, 0, 61, 25
1, 563380, Note_on_c, 0, 49, 26
1, 563523, Note_off_c, 0, 49, 35
1, 563770, Note_on_c, 0, 69, 38
1, 563812, Control_c, 0, 64, 91
1, 563842, Control_c, 0, 64, 90
1, 563856, Control_c, 0, 64, 87
1, 563871, Control_c, 0, 64, 83
1, 563886, Control_c, 0, 64, 76
1, 563900, Control_c, 0, 64, 68
1, 563911, Note_on_c, 0, 37, 25
1, 563915, Control_c, 0, 64, 60
1, 563918, Note_off_c, 0, 69, 41
1, 563929, Note_on_c, 0, 68, 36
1, 563930, Control_c, 0, 64, 46
1, 563945, Control_c, 0, 64, 39
1, 563952, Note_on_c, 0, 65, 33
1, 563960, Control_c, 0, 64, 42
1, 563974, Control_c, 0, 64, 47
1, 563989, Control_c, 0, 64, 53
1, 564004, Control_c, 0, 64, 59
1, 564018, Control_c, 0, 64, 64
1, 564033, Control_c, 0, 64, 68
1, 564055, Control_c, 0, 64, 73
1, 564070, Control_c, 0, 64, 76
1, 564074, Note_off_c, 0, 37, 38
1, 564085, Control_c, 0, 64, 78
1, 564099, Control_c, 0, 64, 79
1, 564114, Control_c, 0, 64, 80
1, 564129, Control_c, 0, 64, 81
1, 564144, Control_c, 0, 64, 82
1, 564159, Control_c, 0, 64, 83
1, 564173, Control_c, 0, 64, 84
1, 564188, Control_c, 0, 64, 85
1, 564203, Control_c, 0, 64, 86
1, 564218, Control_c, 0, 64, 87
1, 564226, Note_off_c, 0, 68, 40
1, 564263, Control_c, 0, 64, 88
1, 564285, Note_off_c, 0, 65, 41
1, 564441, Control_c, 0, 64, 86
1, 564456, Control_c, 0, 64, 80
1, 564471, Control_c, 0, 64, 72
1, 564481, Note_on_c, 0, 65, 35
1, 564486, Control_c, 0, 64, 64
1, 564486, Note_on_c, 0, 61, 24
1, 564486, Note_on_c, 0, 68, 36
1, 564501, Control_c, 0, 64, 58
1, 564516, Control_c, 0, 64, 55
1, 564530, Control_c, 0, 64, 57
1, 564545, Control_c, 0, 64, 60
1, 564560, Control_c, 0, 64, 63
1, 564575, Control_c, 0, 64, 66
1, 564590, Control_c, 0, 64, 70
1, 564604, Control_c, 0, 64, 75
1, 564619, Control_c, 0, 64, 79
1, 564634, Control_c, 0, 64, 81
1, 564649, Control_c, 0, 64, 81
1, 564656, Note_off_c, 0, 61, 40
1, 564664, Control_c, 0, 64, 82
1, 564678, Control_c, 0, 64, 84
1, 564693, Control_c, 0, 64, 85
1, 564708, Control_c, 0, 64, 86
1, 564722, Control_c, 0, 64, 87
1, 564752, Control_c, 0, 64, 87
1, 564820, Note_off_c, 0, 68, 43
1, 564832, Note_off_c, 0, 65, 38
1, 564858, Note_on_c, 0, 69, 28
1, 564922, Control_c, 0, 64, 84
1, 564937, Control_c, 0, 64, 77
1, 564949, Note_off_c, 0, 69, 32
1, 564952, Control_c, 0, 64, 69
1, 564964, Note_on_c, 0, 68, 40
1, 564967, Control_c, 0, 64, 61
1, 564976, Note_on_c, 0, 49, 20
1, 564982, Control_c, 0, 64, 53
1, 564991, Note_on_c, 0, 65, 25
1, 564997, Control_c, 0, 64, 52
1, 565011, Control_c, 0, 64, 54
1, 565026, Control_c, 0, 64, 57
1, 565029, Poly_aftertouch_c, 0, 61, 127
1, 565041, Control_c, 0, 64, 60
1, 565055, Control_c, 0, 64, 63
1, 565070, Control_c, 0, 64, 67
1, 565085, Control_c, 0, 64, 72
1, 565100, Control_c, 0, 64, 76
1, 565112, Note_off_c, 0, 68, 56
1, 565115, Control_c, 0, 64, 78
1, 565128, Note_off_c, 0, 49, 42
1, 565130, Control_c, 0, 64, 78
1, 565136, Note_off_c, 0, 65, 55
1, 565145, Control_c, 0, 64, 79
1, 565160, Control_c, 0, 64, 80
1, 565190, Control_c, 0, 64, 80
1, 565195, Poly_aftertouch_c, 0, 61, 0
1, 565506, Note_on_c, 0, 42, 21
1, 565515, Note_on_c, 0, 66, 34
1, 565517, Control_c, 0, 64, 80
1, 565532, Control_c, 0, 64, 79
1, 565541, Note_on_c, 0, 61, 15
1, 565542, Note_on_c, 0, 57, 14
1, 565553, Control_c, 0, 64, 78
1, 565568, Control_c, 0, 64, 76
1, 565583, Control_c, 0, 64, 73
1, 565598, Control_c, 0, 64, 69
1, 565613, Control_c, 0, 64, 64
1, 565628, Control_c, 0, 64, 57
1, 565643, Control_c, 0, 64, 48
1, 565658, Control_c, 0, 64, 47
1, 565672, Control_c, 0, 64, 48
1, 565687, Control_c, 0, 64, 50
1, 565702, Control_c, 0, 64, 52
1, 565717, Control_c, 0, 64, 56
1, 565732, Control_c, 0, 64, 60
1, 565746, Control_c, 0, 64, 64
1, 565761, Control_c, 0, 64, 66
1, 565776, Control_c, 0, 64, 69
1, 565791, Control_c, 0, 64, 72
1, 565806, Control_c, 0, 64, 74
1, 565820, Control_c, 0, 64, 76
1, 565835, Control_c, 0, 64, 77
1, 565850, Control_c, 0, 64, 79
1, 565865, Control_c, 0, 64, 81
1, 565879, Control_c, 0, 64, 84
1, 565894, Control_c, 0, 64, 86
1, 565909, Control_c, 0, 64, 87
1, 565924, Control_c, 0, 64, 88
1, 565939, Control_c, 0, 64, 88
1, 565953, Control_c, 0, 64, 89
1, 565968, Control_c, 0, 64, 90
1, 565975, Note_off_c, 0, 57, 41
1, 565983, Control_c, 0, 64, 90
1, 565997, Control_c, 0, 64, 91
1, 566014, Control_c, 0, 64, 91
1, 566029, Control_c, 0, 64, 92
1, 566033, Note_off_c, 0, 66, 34
1, 566043, Control_c, 0, 64, 92
1, 566058, Control_c, 0, 64, 93
1, 566063, Note_on_c, 0, 49, 27
1, 566073, Control_c, 0, 64, 93
1, 566088, Control_c, 0, 64, 94
1, 566090, Note_off_c, 0, 61, 34
1, 566102, Control_c, 0, 64, 94
1, 566117, Control_c, 0, 64, 95
1, 566147, Control_c, 0, 64, 97
1, 566221, Control_c, 0, 64, 100
1, 566270, Note_off_c, 0, 42, 36
1, 566302, Control_c, 0, 64, 102
1, 566332, Control_c, 0, 64, 104
1, 566391, Control_c, 0, 64, 106
1, 566421, Control_c, 0, 64, 108
1, 566465, Control_c, 0, 64, 110
1, 566495, Control_c, 0, 64, 112
1, 566525, Control_c, 0, 64, 114
1, 566555, Control_c, 0, 64, 118
1, 566573, Note_on_c, 0, 54, 31
1, 566584, Control_c, 0, 64, 122
1, 566599, Control_c, 0, 64, 125
1, 566614, Control_c, 0, 64, 127
1, 566688, Control_c, 0, 67, 118
1, 566702, Control_c, 0, 67, 106
1, 566717, Control_c, 0, 67, 96
1, 566732, Control_c, 0, 67, 87
1, 566747, Control_c, 0, 67, 77
1, 566762, Control_c, 0, 67, 67
1, 566776, Control_c, 0, 67, 57
1, 566791, Control_c, 0, 67, 46
1, 566806, Control_c, 0, 67, 36
1, 566822, Control_c, 0, 67, 28
1, 566837, Control_c, 0, 67, 0
1, 566966, Note_off_c, 0, 54, 36
1, 567333, Note_on_c, 0, 42, 25
1, 567354, Note_on_c, 0, 81, 65
1, 567390, Note_on_c, 0, 69, 27
1, 567392, Note_off_c, 0, 49, 35
1, 567437, Control_c, 0, 64, 101
1, 567451, Control_c, 0, 64, 82
1, 567466, Control_c, 0, 64, 69
1, 567481, Control_c, 0, 64, 60
1, 567496, Control_c, 0, 64, 55
1, 567511, Control_c, 0, 64, 56
1, 567525, Control_c, 0, 64, 59
1, 567540, Control_c, 0, 64, 60
1, 567555, Control_c, 0, 64, 62
1, 567565, Note_off_c, 0, 42, 45
1, 567570, Control_c, 0, 64, 65
1, 567585, Control_c, 0, 64, 69
1, 567599, Control_c, 0, 64, 75
1, 567615, Control_c, 0, 64, 78
1, 567630, Control_c, 0, 64, 80
1, 567645, Control_c, 0, 64, 80
1, 567660, Control_c, 0, 64, 81
1, 567674, Control_c, 0, 64, 82
1, 567689, Control_c, 0, 64, 83
1, 567704, Control_c, 0, 64, 84
1, 567861, Control_c, 0, 64, 83
1, 567875, Control_c, 0, 64, 83
1, 567890, Control_c, 0, 64, 82
1, 567905, Control_c, 0, 64, 81
1, 567920, Control_c, 0, 64, 79
1, 567935, Control_c, 0, 64, 77
1, 567949, Control_c, 0, 64, 74
1, 567964, Control_c, 0, 64, 70
1, 567979, Control_c, 0, 64, 66
1, 567994, Control_c, 0, 64, 61
1, 568009, Control_c, 0, 64, 56
1, 568010, Note_on_c, 0, 61, 24
1, 568023, Control_c, 0, 64, 55
1, 568038, Control_c, 0, 64, 57
1, 568053, Control_c, 0, 64, 58
1, 568067, Control_c, 0, 64, 60
1, 568082, Control_c, 0, 64, 61
1, 568097, Control_c, 0, 64, 64
1, 568112, Control_c, 0, 64, 67
1, 568127, Control_c, 0, 64, 73
1, 568141, Control_c, 0, 64, 78
1, 568156, Control_c, 0, 64, 82
1, 568171, Control_c, 0, 64, 85
1, 568186, Control_c, 0, 64, 90
1, 568200, Control_c, 0, 64, 97
1, 568215, Control_c, 0, 64, 106
1, 568230, Control_c, 0, 64, 127
1, 568499, Note_on_c, 0, 49, 33
1, 568501, Note_off_c, 0, 69, 37
1, 568580, Note_off_c, 0, 61, 37
1, 568649, Note_off_c, 0, 49, 38
1, 569011, Note_on_c, 0, 41, 30
1, 569011, Note_on_c, 0, 80, 57
1, 569023, Control_c, 0, 64, 87
1, 569026, Note_on_c, 0, 68, 39
1, 569038, Control_c, 0, 64, 71
1, 569053, Control_c, 0, 64, 59
1, 569068, Control_c, 0, 64, 43
1, 569083, Control_c, 0, 64, 39
1, 569093, Note_off_c, 0, 81, 42
1, 569097, Control_c, 0, 64, 44
1, 569112, Control_c, 0, 64, 51
1, 569127, Control_c, 0, 64, 55
1, 569142, Control_c, 0, 64, 60
1, 569157, Control_c, 0, 64, 65
1, 569157, Control_c, 0, 67, 19
1, 569171, Control_c, 0, 64, 72
1, 569186, Control_c, 0, 64, 80
1, 569186, Control_c, 0, 67, 25
1, 569201, Note_off_c, 0, 41, 39
1, 569201, Control_c, 0, 64, 86
1, 569201, Control_c, 0, 67, 29
1, 569217, Control_c, 0, 64, 90
1, 569217, Control_c, 0, 67, 35
1, 569232, Control_c, 0, 64, 94
1, 569232, Control_c, 0, 67, 43
1, 569246, Control_c, 0, 64, 98
1, 569246, Control_c, 0, 67, 55
1, 569261, Control_c, 0, 64, 103
1, 569261, Control_c, 0, 67, 67
1, 569276, Control_c, 0, 64, 107
1, 569276, Control_c, 0, 67, 78
1, 569298, Control_c, 0, 67, 88
1, 569313, Control_c, 0, 64, 109
1, 569313, Control_c, 0, 67, 94
1, 569327, Control_c, 0, 67, 99
1, 569342, Control_c, 0, 64, 111
1, 569342, Control_c, 0, 67, 102
1, 569357, Control_c, 0, 67, 105
1, 569372, Control_c, 0, 67, 108
1, 569387, Control_c, 0, 67, 111
1, 569402, Control_c, 0, 67, 116
1, 569417, Control_c, 0, 67, 121
1, 569431, Control_c, 0, 67, 125
1, 569446, Control_c, 0, 67, 127
1, 569476, Control_c, 0, 64, 104
1, 569491, Control_c, 0, 64, 100
1, 569506, Control_c, 0, 64, 95
1, 569520, Control_c, 0, 64, 88
1, 569535, Control_c, 0, 64, 79
1, 569550, Control_c, 0, 64, 70
1, 569565, Control_c, 0, 64, 60
1, 569578, Note_on_c, 0, 61, 26
1, 569580, Control_c, 0, 64, 49
1, 569594, Control_c, 0, 64, 46
1, 569609, Control_c, 0, 64, 47
1, 569624, Control_c, 0, 64, 48
1, 569638, Control_c, 0, 64, 50
1, 569653, Control_c, 0, 64, 53
1, 569668, Control_c, 0, 64, 57
1, 569683, Control_c, 0, 64, 60
1, 569698, Control_c, 0, 64, 64
1, 569712, Control_c, 0, 64, 68
1, 569727, Control_c, 0, 64, 74
1, 569742, Control_c, 0, 64, 80
1, 569757, Control_c, 0, 64, 85
1, 569772, Control_c, 0, 64, 90
1, 569786, Control_c, 0, 64, 94
1, 569801, Control_c, 0, 64, 98
1, 569816, Control_c, 0, 64, 106
1, 569831, Control_c, 0, 64, 119
1, 569846, Control_c, 0, 64, 127
1, 570057, Note_on_c, 0, 49, 36
1, 570124, Note_off_c, 0, 61, 39
1, 570183, Note_off_c, 0, 68, 39
1, 570220, Note_off_c, 0, 49, 42
1, 570506, Control_c, 0, 64, 111
1, 570521, Control_c, 0, 64, 84
1, 570535, Note_on_c, 0, 42, 28
1, 570535, Control_c, 0, 64, 70
1, 570550, Control_c, 0, 64, 60
1, 570565, Control_c, 0, 64, 54
1, 570570, Note_on_c, 0, 69, 40
1, 570574, Note_on_c, 0, 81, 46
1, 570579, Control_c, 0, 64, 56
1, 570594, Control_c, 0, 64, 60
1, 570609, Control_c, 0, 64, 63
1, 570619, Note_off_c, 0, 81, 0
1, 570619, Note_on_c, 0, 81, 4
1, 570624, Control_c, 0, 64, 67
1, 570635, Note_off_c, 0, 80, 32
1, 570639, Control_c, 0, 64, 73
1, 570654, Control_c, 0, 64, 81
1, 570666, Note_off_c, 0, 69, 61
1, 570669, Control_c, 0, 64, 87
1, 570683, Control_c, 0, 64, 90
1, 570698, Control_c, 0, 64, 93
1, 570713, Control_c, 0, 64, 96
1, 570728, Control_c, 0, 64, 99
1, 570743, Control_c, 0, 64, 101
1, 570758, Note_off_c, 0, 42, 50
1, 570824, Note_on_c, 0, 80, 70
1, 570860, Note_on_c, 0, 68, 43
1, 570878, Note_off_c, 0, 81, 42
1, 570930, Control_c, 0, 64, 99
1, 570960, Control_c, 0, 64, 96
1, 570974, Control_c, 0, 64, 95
1, 570989, Control_c, 0, 64, 92
1, 571004, Control_c, 0, 64, 87
1, 571018, Control_c, 0, 64, 80
1, 571033, Control_c, 0, 64, 73
1, 571048, Control_c, 0, 64, 65
1, 571055, Note_off_c, 0, 68, 46
1, 571063, Control_c, 0, 64, 58
1, 571078, Control_c, 0, 64, 51
1, 571092, Control_c, 0, 64, 48
1, 571094, Note_on_c, 0, 61, 17
1, 571107, Control_c, 0, 64, 50
1, 571115, Note_on_c, 0, 81, 68
1, 571120, Note_on_c, 0, 69, 41
1, 571122, Control_c, 0, 64, 55
1, 571137, Control_c, 0, 64, 58
1, 571152, Control_c, 0, 64, 61
1, 571155, Note_off_c, 0, 80, 60
1, 571166, Control_c, 0, 64, 66
1, 571181, Control_c, 0, 64, 72
1, 571188, Note_off_c, 0, 69, 62
1, 571196, Control_c, 0, 64, 80
1, 571211, Control_c, 0, 64, 90
1, 571218, Note_off_c, 0, 81, 63
1, 571226, Control_c, 0, 64, 97
1, 571241, Control_c, 0, 64, 105
1, 571256, Control_c, 0, 64, 122
1, 571271, Control_c, 0, 64, 127
1, 571453, Note_on_c, 0, 85, 60
1, 571467, Note_on_c, 0, 73, 44
1, 571470, Note_off_c, 0, 85, 67
1, 571494, Note_off_c, 0, 73, 55
1, 571538, Note_off_c, 0, 61, 38
1, 571555, Note_on_c, 0, 49, 39
1, 571559, Control_c, 0, 64, 86
1, 571574, Control_c, 0, 64, 68
1, 571579, Note_on_c, 0, 69, 54
1, 571579, Note_on_c, 0, 81, 55
1, 571589, Control_c, 0, 64, 55
1, 571604, Control_c, 0, 64, 49
1, 571619, Control_c, 0, 64, 54
1, 571634, Control_c, 0, 64, 57
1, 571649, Control_c, 0, 64, 60
1, 571664, Control_c, 0, 64, 65
1, 571679, Control_c, 0, 64, 72
1, 571694, Control_c, 0, 64, 82
1, 571694, Note_off_c, 0, 49, 55
1, 571709, Control_c, 0, 64, 91
1, 571723, Control_c, 0, 64, 96
1, 571738, Control_c, 0, 64, 98
1, 571748, Note_off_c, 0, 69, 59
1, 571753, Control_c, 0, 64, 100
1, 571768, Control_c, 0, 64, 102
1, 571797, Control_c, 0, 64, 104
1, 571856, Control_c, 0, 64, 106
1, 571901, Control_c, 0, 64, 109
1, 571915, Control_c, 0, 64, 111
1, 572049, Control_c, 0, 64, 101
1, 572064, Control_c, 0, 64, 89
1, 572076, Note_on_c, 0, 41, 31
1, 572078, Control_c, 0, 64, 76
1, 572093, Control_c, 0, 64, 65
1, 572102, Note_on_c, 0, 68, 36
1, 572108, Control_c, 0, 64, 49
1, 572109, Note_on_c, 0, 80, 52
1, 572123, Control_c, 0, 64, 38
1, 572138, Control_c, 0, 64, 39
1, 572153, Control_c, 0, 64, 44
1, 572167, Control_c, 0, 64, 51
1, 572182, Control_c, 0, 64, 57
1, 572197, Control_c, 0, 64, 63
1, 572203, Note_off_c, 0, 81, 37
1, 572212, Control_c, 0, 64, 71
1, 572227, Control_c, 0, 64, 79
1, 572241, Control_c, 0, 64, 87
1, 572254, Control_c, 0, 64, 90
1, 572269, Control_c, 0, 64, 92
1, 572292, Control_c, 0, 64, 94
1, 572307, Control_c, 0, 64, 96
1, 572319, Note_off_c, 0, 41, 40
1, 572336, Control_c, 0, 64, 98
1, 572470, Control_c, 0, 64, 95
1, 572485, Control_c, 0, 64, 91
1, 572500, Control_c, 0, 64, 86
1, 572515, Control_c, 0, 64, 81
1, 572529, Control_c, 0, 64, 77
1, 572544, Control_c, 0, 64, 73
1, 572559, Control_c, 0, 64, 68
1, 572574, Control_c, 0, 64, 64
1, 572588, Control_c, 0, 64, 61
1, 572603, Control_c, 0, 64, 58
1, 572618, Control_c, 0, 64, 56
1, 572625, Note_on_c, 0, 61, 25
1, 572633, Control_c, 0, 64, 53
1, 572648, Control_c, 0, 64, 49
1, 572663, Control_c, 0, 64, 44
1, 572678, Control_c, 0, 64, 39
1, 572693, Control_c, 0, 64, 35
1, 572707, Control_c, 0, 64, 34
1, 572722, Control_c, 0, 64, 35
1, 572737, Control_c, 0, 64, 37
1, 572752, Control_c, 0, 64, 43
1, 572767, Control_c, 0, 64, 50
1, 572781, Control_c, 0, 64, 57
1, 572796, Control_c, 0, 64, 62
1, 572811, Control_c, 0, 64, 68
1, 572826, Control_c, 0, 64, 74
1, 572841, Control_c, 0, 64, 80
1, 572855, Control_c, 0, 64, 84
1, 572870, Control_c, 0, 64, 86
1, 572885, Control_c, 0, 64, 90
1, 572885, Control_c, 0, 67, 114
1, 572898, Note_off_c, 0, 68, 36
1, 572900, Control_c, 0, 64, 94
1, 572900, Control_c, 0, 67, 104
1, 572915, Control_c, 0, 64, 98
1, 572915, Control_c, 0, 67, 97
1, 572929, Control_c, 0, 64, 102
1, 572929, Control_c, 0, 67, 91
1, 572944, Control_c, 0, 64, 107
1, 572944, Control_c, 0, 67, 85
1, 572959, Control_c, 0, 64, 112
1, 572959, Control_c, 0, 67, 77
1, 572974, Control_c, 0, 64, 120
1, 572974, Control_c, 0, 67, 71
1, 572988, Control_c, 0, 64, 127
1, 572988, Control_c, 0, 67, 66
1, 573004, Control_c, 0, 67, 61
1, 573019, Control_c, 0, 67, 58
1, 573041, Control_c, 0, 67, 54
1, 573056, Control_c, 0, 67, 51
1, 573071, Control_c, 0, 67, 46
1, 573071, Note_on_c, 0, 49, 30
1, 573086, Control_c, 0, 67, 43
1, 573088, Note_off_c, 0, 61, 38
1, 573101, Control_c, 0, 67, 40
1, 573116, Control_c, 0, 67, 38
1, 573145, Control_c, 0, 67, 38
1, 573160, Control_c, 0, 67, 37
1, 573239, Note_off_c, 0, 49, 39
1, 573375, Note_off_c, 0, 80, 60
1, 573655, Note_on_c, 0, 45, 33
1, 573664, Note_on_c, 0, 85, 72
1, 573664, Control_c, 0, 64, 91
1, 573679, Control_c, 0, 64, 74
1, 573694, Control_c, 0, 64, 62
1, 573697, Note_on_c, 0, 73, 42
1, 573709, Control_c, 0, 64, 49
1, 573724, Control_c, 0, 64, 51
1, 573738, Control_c, 0, 64, 55
1, 573753, Control_c, 0, 64, 59
1, 573768, Control_c, 0, 64, 62
1, 573790, Control_c, 0, 64, 65
1, 573805, Control_c, 0, 64, 71
1, 573819, Control_c, 0, 64, 78
1, 573834, Control_c, 0, 64, 84
1, 573849, Control_c, 0, 64, 88
1, 573849, Control_c, 0, 67, 37
1, 573864, Control_c, 0, 64, 90
1, 573879, Control_c, 0, 64, 93
1, 573894, Control_c, 0, 64, 96
1, 573909, Control_c, 0, 64, 101
1, 573922, Note_off_c, 0, 45, 41
1, 573924, Control_c, 0, 64, 105
1, 573983, Control_c, 0, 64, 107
1, 574103, Control_c, 0, 64, 104
1, 574117, Control_c, 0, 64, 100
1, 574132, Control_c, 0, 64, 94
1, 574147, Control_c, 0, 64, 88
1, 574161, Control_c, 0, 64, 81
1, 574176, Control_c, 0, 64, 74
1, 574191, Control_c, 0, 64, 66
1, 574206, Control_c, 0, 64, 55
1, 574221, Control_c, 0, 64, 42
1, 574235, Control_c, 0, 64, 36
1, 574247, Note_on_c, 0, 61, 34
1, 574250, Control_c, 0, 64, 35
1, 574295, Control_c, 0, 64, 36
1, 574309, Control_c, 0, 64, 43
1, 574324, Control_c, 0, 64, 51
1, 574339, Control_c, 0, 64, 57
1, 574353, Control_c, 0, 64, 62
1, 574368, Control_c, 0, 64, 66
1, 574383, Control_c, 0, 64, 72
1, 574398, Control_c, 0, 64, 82
1, 574413, Control_c, 0, 64, 91
1, 574427, Control_c, 0, 64, 99
1, 574442, Control_c, 0, 64, 109
1, 574457, Control_c, 0, 64, 127
1, 574502, Note_off_c, 0, 73, 43
1, 574675, Note_off_c, 0, 61, 38
1, 574742, Note_on_c, 0, 49, 38
1, 574760, Control_c, 0, 67, 37
1, 574806, Control_c, 0, 67, 38
1, 574821, Control_c, 0, 67, 39
1, 574836, Control_c, 0, 67, 39
1, 574851, Control_c, 0, 67, 40
1, 574880, Control_c, 0, 67, 41
1, 574895, Control_c, 0, 67, 42
1, 574925, Control_c, 0, 67, 43
1, 574939, Control_c, 0, 67, 44
1, 574954, Control_c, 0, 67, 44
1, 574961, Note_off_c, 0, 85, 60
1, 574969, Control_c, 0, 67, 45
1, 574983, Control_c, 0, 67, 46
1, 574998, Control_c, 0, 67, 46
1, 575013, Control_c, 0, 67, 47
1, 575043, Control_c, 0, 67, 47
1, 575057, Control_c, 0, 67, 48
1, 575072, Control_c, 0, 67, 48
1, 575102, Control_c, 0, 67, 49
1, 575161, Control_c, 0, 67, 49
1, 575191, Control_c, 0, 67, 50
1, 575235, Control_c, 0, 67, 50
1, 575250, Control_c, 0, 67, 51
1, 575263, Note_on_c, 0, 47, 38
1, 575288, Control_c, 0, 64, 110
1, 575291, Note_on_c, 0, 86, 77
1, 575301, Note_off_c, 0, 49, 37
1, 575303, Control_c, 0, 64, 81
1, 575303, Control_c, 0, 67, 51
1, 575314, Note_on_c, 0, 74, 46
1, 575317, Control_c, 0, 64, 67
1, 575317, Control_c, 0, 67, 52
1, 575332, Control_c, 0, 64, 54
1, 575347, Control_c, 0, 64, 43
1, 575347, Control_c, 0, 67, 52
1, 575362, Control_c, 0, 64, 45
1, 575362, Control_c, 0, 67, 53
1, 575377, Control_c, 0, 64, 51
1, 575391, Control_c, 0, 64, 55
1, 575391, Control_c, 0, 67, 53
1, 575406, Control_c, 0, 64, 59
1, 575406, Control_c, 0, 67, 54
1, 575421, Control_c, 0, 64, 64
1, 575421, Control_c, 0, 67, 55
1, 575436, Control_c, 0, 64, 69
1, 575436, Control_c, 0, 67, 59
1, 575451, Control_c, 0, 64, 78
1, 575451, Control_c, 0, 67, 70
1, 575465, Control_c, 0, 64, 88
1, 575465, Control_c, 0, 67, 81
1, 575480, Control_c, 0, 64, 95
1, 575480, Control_c, 0, 67, 91
1, 575495, Control_c, 0, 64, 99
1, 575495, Control_c, 0, 67, 100
1, 575510, Control_c, 0, 64, 103
1, 575510, Control_c, 0, 67, 107
1, 575524, Control_c, 0, 64, 107
1, 575524, Control_c, 0, 67, 112
1, 575539, Control_c, 0, 64, 113
1, 575539, Control_c, 0, 67, 118
1, 575544, Note_off_c, 0, 47, 42
1, 575554, Control_c, 0, 64, 120
1, 575554, Control_c, 0, 67, 125
1, 575569, Control_c, 0, 64, 127
1, 575569, Control_c, 0, 67, 127
1, 575703, Control_c, 0, 64, 125
1, 575718, Control_c, 0, 64, 119
1, 575733, Control_c, 0, 64, 113
1, 575748, Control_c, 0, 64, 108
1, 575763, Control_c, 0, 64, 103
1, 575778, Control_c, 0, 64, 98
1, 575793, Control_c, 0, 64, 91
1, 575807, Control_c, 0, 64, 83
1, 575822, Control_c, 0, 64, 75
1, 575837, Control_c, 0, 64, 67
1, 575852, Control_c, 0, 64, 60
1, 575867, Control_c, 0, 64, 50
1, 575871, Note_on_c, 0, 61, 29
1, 575879, Note_on_c, 0, 77, 51
1, 575881, Control_c, 0, 64, 44
1, 575896, Control_c, 0, 64, 44
1, 575925, Control_c, 0, 64, 44
1, 575940, Control_c, 0, 64, 45
1, 575955, Control_c, 0, 64, 49
1, 575970, Control_c, 0, 64, 55
1, 575985, Control_c, 0, 64, 60
1, 575999, Control_c, 0, 64, 65
1, 576014, Control_c, 0, 64, 69
1, 576037, Control_c, 0, 64, 76
1, 576052, Control_c, 0, 64, 84
1, 576067, Control_c, 0, 64, 90
1, 576081, Control_c, 0, 64, 94
1, 576096, Control_c, 0, 64, 100
1, 576111, Control_c, 0, 64, 107
1, 576112, Note_off_c, 0, 74, 41
1, 576126, Control_c, 0, 64, 117
1, 576140, Control_c, 0, 64, 127
1, 576302, Note_off_c, 0, 61, 39
1, 576337, Note_on_c, 0, 49, 36
1, 576397, Note_off_c, 0, 77, 59
1, 576401, Note_off_c, 0, 86, 60
1, 576873, Note_off_c, 0, 49, 38
1, 576875, Control_c, 0, 64, 105
1, 576890, Control_c, 0, 64, 86
1, 576901, Note_on_c, 0, 45, 39
1, 576904, Control_c, 0, 64, 69
1, 576914, Note_on_c, 0, 86, 52
1, 576919, Control_c, 0, 64, 59
1, 576934, Control_c, 0, 64, 53
1, 576936, Note_on_c, 0, 74, 38
1, 576943, Note_on_c, 0, 78, 37
1, 576949, Control_c, 0, 64, 55
1, 576963, Control_c, 0, 64, 58
1, 576978, Control_c, 0, 64, 61
1, 576993, Control_c, 0, 64, 66
1, 577008, Control_c, 0, 64, 71
1, 577023, Note_off_c, 0, 86, 58
1, 577023, Control_c, 0, 64, 78
1, 577037, Control_c, 0, 64, 84
1, 577052, Control_c, 0, 64, 87
1, 577057, Note_off_c, 0, 74, 36
1, 577067, Control_c, 0, 64, 88
1, 577081, Control_c, 0, 64, 90
1, 577086, Note_off_c, 0, 45, 48
1, 577096, Control_c, 0, 64, 91
1, 577111, Control_c, 0, 64, 93
1, 577126, Control_c, 0, 64, 95
1, 577141, Control_c, 0, 64, 98
1, 577155, Control_c, 0, 64, 101
1, 577170, Control_c, 0, 64, 104
1, 577197, Note_off_c, 0, 78, 33
1, 577228, Note_on_c, 0, 85, 34
1, 577243, Note_on_c, 0, 73, 19
1, 577280, Note_off_c, 0, 85, 43
1, 577303, Note_off_c, 0, 73, 41
1, 577393, Control_c, 0, 64, 93
1, 577408, Control_c, 0, 64, 80
1, 577423, Control_c, 0, 64, 67
1, 577438, Control_c, 0, 64, 56
1, 577453, Control_c, 0, 64, 50
1, 577460, Note_on_c, 0, 85, 47
1, 577463, Note_on_c, 0, 44, 32
1, 577468, Control_c, 0, 64, 53
1, 577474, Note_on_c, 0, 77, 34
1, 577475, Note_on_c, 0, 73, 27
1, 577483, Control_c, 0, 64, 58
1, 577497, Control_c, 0, 64, 61
1, 577512, Control_c, 0, 64, 65
1, 577534, Control_c, 0, 64, 71
1, 577549, Note_off_c, 0, 85, 64
1, 577549, Control_c, 0, 64, 80
1, 577561, Note_off_c, 0, 73, 57
1, 577564, Control_c, 0, 64, 86
1, 577578, Control_c, 0, 64, 88
1, 577593, Control_c, 0, 64, 90
1, 577608, Control_c, 0, 64, 91
1, 577623, Control_c, 0, 64, 93
1, 577637, Note_off_c, 0, 44, 45
1, 577638, Control_c, 0, 64, 94
1, 577653, Control_c, 0, 64, 95
1, 577668, Control_c, 0, 64, 95
1, 577703, Note_on_c, 0, 83, 56
1, 577709, Note_on_c, 0, 71, 44
1, 577709, Note_off_c, 0, 77, 36
1, 577712, Control_c, 0, 64, 96
1, 577747, Note_off_c, 0, 83, 46
1, 577748, Note_off_c, 0, 71, 47
1, 577772, Control_c, 0, 64, 98
1, 577846, Control_c, 0, 64, 95
1, 577860, Control_c, 0, 64, 87
1, 577875, Control_c, 0, 64, 76
1, 577890, Control_c, 0, 64, 64
1, 577904, Control_c, 0, 64, 52
1, 577919, Control_c, 0, 64, 46
1, 577923, Note_on_c, 0, 42, 32
1, 577930, Note_on_c, 0, 83, 47
1, 577934, Control_c, 0, 64, 48
1, 577937, Note_on_c, 0, 78, 45
1, 577939, Note_on_c, 0, 71, 33
1, 577949, Control_c, 0, 64, 52
1, 577964, Control_c, 0, 64, 55
1, 577978, Control_c, 0, 64, 60
1, 577994, Control_c, 0, 64, 66
1, 578007, Note_off_c, 0, 83, 41
1, 578009, Control_c, 0, 64, 72
1, 578024, Control_c, 0, 64, 79
1, 578039, Control_c, 0, 64, 84
1, 578042, Note_off_c, 0, 71, 42
1, 578054, Control_c, 0, 64, 84
1, 578068, Control_c, 0, 64, 85
1, 578083, Control_c, 0, 64, 86
1, 578098, Control_c, 0, 64, 87
1, 578113, Control_c, 0, 64, 87
1, 578119, Note_off_c, 0, 42, 42
1, 578121, Note_off_c, 0, 78, 60
1, 578128, Control_c, 0, 64, 88
1, 578151, Note_on_c, 0, 81, 57
1, 578158, Control_c, 0, 64, 88
1, 578173, Note_on_c, 0, 69, 36
1, 578173, Control_c, 0, 64, 89
1, 578188, Control_c, 0, 64, 89
1, 578189, Note_off_c, 0, 81, 45
1, 578204, Note_off_c, 0, 69, 54
1, 578217, Control_c, 0, 64, 90
1, 578344, Control_c, 0, 64, 87
1, 578359, Control_c, 0, 64, 81
1, 578374, Control_c, 0, 64, 73
1, 578389, Control_c, 0, 64, 63
1, 578403, Control_c, 0, 64, 52
1, 578408, Note_on_c, 0, 37, 25
1, 578418, Control_c, 0, 64, 45
1, 578433, Control_c, 0, 64, 47
1, 578437, Note_on_c, 0, 80, 50
1, 578448, Control_c, 0, 64, 51
1, 578452, Note_on_c, 0, 77, 36
1, 578453, Note_on_c, 0, 68, 39
1, 578463, Control_c, 0, 64, 55
1, 578477, Control_c, 0, 64, 58
1, 578492, Control_c, 0, 64, 62
1, 578507, Control_c, 0, 64, 65
1, 578522, Control_c, 0, 64, 68
1, 578536, Control_c, 0, 64, 72
1, 578551, Control_c, 0, 64, 75
1, 578566, Control_c, 0, 64, 77
1, 578581, Control_c, 0, 64, 77
1, 578593, Note_off_c, 0, 37, 39
1, 578640, Control_c, 0, 64, 78
1, 578714, Control_c, 0, 64, 77
1, 578729, Control_c, 0, 64, 77
1, 578744, Control_c, 0, 64, 76
1, 578759, Control_c, 0, 64, 75
1, 578774, Control_c, 0, 64, 75
1, 578789, Control_c, 0, 64, 74
1, 578804, Control_c, 0, 64, 73
1, 578819, Control_c, 0, 64, 72
1, 578833, Control_c, 0, 64, 71
1, 578848, Control_c, 0, 64, 70
1, 578863, Control_c, 0, 64, 70
1, 578878, Control_c, 0, 64, 69
1, 578893, Control_c, 0, 64, 67
1, 578908, Control_c, 0, 64, 65
1, 578923, Control_c, 0, 64, 61
1, 578938, Control_c, 0, 64, 55
1, 578952, Control_c, 0, 64, 48
1, 578963, Note_on_c, 0, 61, 34
1, 578967, Control_c, 0, 64, 42
1, 578982, Control_c, 0, 64, 38
1, 578996, Control_c, 0, 64, 37
1, 579011, Control_c, 0, 64, 39
1, 579033, Control_c, 0, 64, 44
1, 579048, Control_c, 0, 64, 51
1, 579063, Control_c, 0, 64, 57
1, 579077, Control_c, 0, 64, 63
1, 579092, Control_c, 0, 64, 67
1, 579107, Control_c, 0, 64, 72
1, 579122, Control_c, 0, 64, 77
1, 579137, Control_c, 0, 64, 80
1, 579151, Control_c, 0, 64, 83
1, 579166, Control_c, 0, 64, 86
1, 579181, Control_c, 0, 64, 90
1, 579196, Control_c, 0, 64, 97
1, 579211, Control_c, 0, 64, 104
1, 579225, Control_c, 0, 64, 113
1, 579240, Control_c, 0, 64, 127
1, 579379, Note_off_c, 0, 68, 43
1, 579433, Note_off_c, 0, 80, 38
1, 579461, Note_on_c, 0, 49, 33
1, 579472, Note_off_c, 0, 77, 49
1, 579558, Note_off_c, 0, 61, 39
1, 579625, Note_off_c, 0, 49, 54
1, 580000, Note_on_c, 0, 42, 28
1, 580004, Control_c, 0, 64, 120
1, 580019, Note_on_c, 0, 81, 58
1, 580019, Control_c, 0, 64, 99
1, 580034, Control_c, 0, 64, 84
1, 580045, Note_on_c, 0, 69, 38
1, 580048, Control_c, 0, 64, 70
1, 580063, Control_c, 0, 64, 59
1, 580078, Control_c, 0, 64, 50
1, 580092, Control_c, 0, 64, 52
1, 580107, Control_c, 0, 64, 55
1, 580122, Control_c, 0, 64, 58
1, 580137, Control_c, 0, 64, 62
1, 580152, Control_c, 0, 64, 66
1, 580167, Control_c, 0, 64, 71
1, 580181, Control_c, 0, 64, 79
1, 580196, Control_c, 0, 64, 83
1, 580211, Control_c, 0, 64, 84
1, 580225, Note_off_c, 0, 42, 43
1, 580226, Control_c, 0, 64, 85
1, 580241, Control_c, 0, 64, 85
1, 580255, Control_c, 0, 64, 86
1, 580359, Control_c, 0, 64, 85
1, 580374, Control_c, 0, 64, 84
1, 580389, Control_c, 0, 64, 82
1, 580404, Control_c, 0, 64, 80
1, 580419, Control_c, 0, 64, 78
1, 580434, Control_c, 0, 64, 75
1, 580449, Control_c, 0, 64, 70
1, 580464, Control_c, 0, 64, 65
1, 580479, Control_c, 0, 64, 58
1, 580494, Control_c, 0, 64, 51
1, 580509, Control_c, 0, 64, 46
1, 580531, Control_c, 0, 64, 45
1, 580546, Control_c, 0, 64, 46
1, 580561, Control_c, 0, 64, 46
1, 580576, Control_c, 0, 64, 49
1, 580580, Note_on_c, 0, 61, 29
1, 580591, Control_c, 0, 64, 53
1, 580605, Control_c, 0, 64, 58
1, 580620, Control_c, 0, 64, 63
1, 580635, Control_c, 0, 64, 67
1, 580649, Control_c, 0, 64, 71
1, 580664, Control_c, 0, 64, 75
1, 580679, Control_c, 0, 64, 79
1, 580694, Control_c, 0, 64, 81
1, 580709, Control_c, 0, 64, 82
1, 580723, Control_c, 0, 64, 84
1, 580738, Control_c, 0, 64, 86
1, 580753, Control_c, 0, 64, 89
1, 580768, Control_c, 0, 64, 93
1, 580783, Control_c, 0, 64, 98
1, 580783, Control_c, 0, 67, 118
1, 580798, Control_c, 0, 64, 103
1, 580798, Control_c, 0, 67, 102
1, 580813, Control_c, 0, 64, 106
1, 580813, Control_c, 0, 67, 81
1, 580827, Control_c, 0, 64, 108
1, 580827, Control_c, 0, 67, 66
1, 580836, Note_off_c, 0, 69, 40
1, 580842, Control_c, 0, 64, 112
1, 580842, Control_c, 0, 67, 54
1, 580857, Control_c, 0, 64, 120
1, 580857, Control_c, 0, 67, 44
1, 580872, Control_c, 0, 64, 127
1, 580872, Control_c, 0, 67, 36
1, 580887, Control_c, 0, 67, 29
1, 580902, Control_c, 0, 67, 23
1, 580916, Control_c, 0, 67, 0
1, 581075, Note_on_c, 0, 49, 32
1, 581146, Note_off_c, 0, 61, 36
1, 581223, Note_off_c, 0, 49, 33
1, 581369, Control_c, 0, 67, 19
1, 581458, Control_c, 0, 67, 22
1, 581561, Control_c, 0, 64, 119
1, 581574, Note_on_c, 0, 41, 31
1, 581576, Control_c, 0, 64, 93
1, 581591, Control_c, 0, 64, 78
1, 581606, Note_on_c, 0, 80, 53
1, 581606, Control_c, 0, 64, 66
1, 581606, Control_c, 0, 67, 24
1, 581620, Note_on_c, 0, 68, 36
1, 581620, Control_c, 0, 64, 55
1, 581635, Control_c, 0, 64, 43
1, 581650, Control_c, 0, 64, 42
1, 581665, Control_c, 0, 64, 45
1, 581680, Control_c, 0, 64, 50
1, 581695, Control_c, 0, 64, 54
1, 581708, Note_off_c, 0, 81, 40
1, 581710, Control_c, 0, 64, 59
1, 581725, Control_c, 0, 64, 64
1, 581725, Control_c, 0, 67, 27
1, 581740, Control_c, 0, 64, 70
1, 581740, Control_c, 0, 67, 30
1, 581754, Control_c, 0, 64, 77
1, 581769, Control_c, 0, 64, 83
1, 581769, Control_c, 0, 67, 36
1, 581784, Control_c, 0, 64, 86
1, 581784, Control_c, 0, 67, 44
1, 581799, Control_c, 0, 64, 88
1, 581799, Control_c, 0, 67, 54
1, 581814, Control_c, 0, 64, 92
1, 581814, Control_c, 0, 67, 66
1, 581828, Control_c, 0, 64, 95
1, 581828, Control_c, 0, 67, 81
1, 581832, Note_off_c, 0, 41, 40
1, 581843, Control_c, 0, 64, 99
1, 581843, Control_c, 0, 67, 93
1, 581858, Control_c, 0, 64, 102
1, 581858, Control_c, 0, 67, 103
1, 581872, Control_c, 0, 64, 104
1, 581872, Control_c, 0, 67, 111
1, 581887, Control_c, 0, 67, 118
1, 581902, Control_c, 0, 67, 125
1, 581917, Control_c, 0, 67, 127
1, 582029, Control_c, 0, 64, 101
1, 582044, Control_c, 0, 64, 96
1, 582059, Control_c, 0, 64, 89
1, 582073, Control_c, 0, 64, 79
1, 582088, Control_c, 0, 64, 70
1, 582103, Control_c, 0, 64, 62
1, 582118, Control_c, 0, 64, 52
1, 582133, Control_c, 0, 64, 42
1, 582148, Control_c, 0, 64, 36
1, 582163, Control_c, 0, 64, 34
1, 582182, Note_on_c, 0, 61, 25
1, 582207, Control_c, 0, 64, 36
1, 582222, Control_c, 0, 64, 42
1, 582237, Control_c, 0, 64, 50
1, 582251, Control_c, 0, 64, 56
1, 582266, Control_c, 0, 64, 62
1, 582281, Control_c, 0, 64, 67
1, 582295, Control_c, 0, 64, 72
1, 582310, Control_c, 0, 64, 78
1, 582325, Control_c, 0, 64, 85
1, 582340, Control_c, 0, 64, 91
1, 582355, Control_c, 0, 64, 99
1, 582369, Control_c, 0, 64, 111
1, 582384, Control_c, 0, 64, 127
1, 582494, Note_off_c, 0, 68, 56
1, 582657, Note_on_c, 0, 49, 25
1, 582739, Note_off_c, 0, 61, 38
1, 582811, Note_off_c, 0, 49, 40
1, 583123, Note_on_c, 0, 42, 31
1, 583132, Control_c, 0, 64, 93
1, 583147, Control_c, 0, 64, 75
1, 583161, Note_on_c, 0, 81, 50
1, 583162, Control_c, 0, 64, 63
1, 583171, Note_on_c, 0, 69, 32
1, 583177, Control_c, 0, 64, 52
1, 583188, Note_off_c, 0, 80, 34
1, 583191, Control_c, 0, 64, 53
1, 583206, Control_c, 0, 64, 58
1, 583221, Control_c, 0, 64, 63
1, 583236, Control_c, 0, 64, 67
1, 583251, Control_c, 0, 64, 73
1, 583266, Control_c, 0, 64, 80
1, 583281, Control_c, 0, 64, 85
1, 583283, Note_off_c, 0, 69, 37
1, 583296, Control_c, 0, 64, 88
1, 583311, Control_c, 0, 64, 91
1, 583325, Control_c, 0, 64, 95
1, 583340, Control_c, 0, 64, 98
1, 583340, Note_off_c, 0, 42, 44
1, 583355, Control_c, 0, 64, 101
1, 583370, Control_c, 0, 64, 103
1, 583399, Control_c, 0, 64, 105
1, 583401, Note_on_c, 0, 80, 66
1, 583424, Note_on_c, 0, 68, 44
1, 583442, Note_off_c, 0, 81, 40
1, 583443, Control_c, 0, 64, 107
1, 583473, Control_c, 0, 64, 109
1, 583504, Control_c, 0, 64, 112
1, 583540, Control_c, 0, 64, 114
1, 583570, Control_c, 0, 64, 117
1, 583599, Note_off_c, 0, 68, 47
1, 583660, Control_c, 0, 64, 107
1, 583668, Note_on_c, 0, 61, 29
1, 583674, Control_c, 0, 64, 92
1, 583685, Note_on_c, 0, 81, 65
1, 583689, Control_c, 0, 64, 78
1, 583692, Note_on_c, 0, 69, 49
1, 583704, Control_c, 0, 64, 67
1, 583707, Note_off_c, 0, 80, 37
1, 583719, Control_c, 0, 64, 56
1, 583734, Control_c, 0, 64, 45
1, 583749, Control_c, 0, 64, 49
1, 583763, Note_off_c, 0, 69, 58
1, 583764, Control_c, 0, 64, 55
1, 583779, Control_c, 0, 64, 59
1, 583793, Control_c, 0, 64, 63
1, 583796, Note_off_c, 0, 81, 63
1, 583808, Control_c, 0, 64, 68
1, 583823, Control_c, 0, 64, 76
1, 583838, Control_c, 0, 64, 87
1, 583853, Control_c, 0, 64, 96
1, 583867, Control_c, 0, 64, 105
1, 583882, Control_c, 0, 64, 127
1, 584032, Note_on_c, 0, 85, 65
1, 584050, Note_on_c, 0, 73, 46
1, 584055, Note_off_c, 0, 85, 69
1, 584075, Note_off_c, 0, 73, 57
1, 584130, Note_off_c, 0, 61, 39
1, 584134, Control_c, 0, 64, 90
1, 584139, Note_on_c, 0, 49, 36
1, 584145, Note_on_c, 0, 81, 63
1, 584148, Control_c, 0, 64, 70
1, 584163, Control_c, 0, 64, 54
1, 584176, Note_on_c, 0, 69, 17
1, 584178, Control_c, 0, 64, 46
1, 584187, Note_off_c, 0, 81, 0
1, 584187, Note_on_c, 0, 81, 25
1, 584193, Control_c, 0, 64, 52
1, 584208, Control_c, 0, 64, 56
1, 584223, Control_c, 0, 64, 59
1, 584238, Control_c, 0, 64, 63
1, 584253, Control_c, 0, 64, 69
1, 584274, Control_c, 0, 64, 79
1, 584289, Control_c, 0, 64, 89
1, 584304, Control_c, 0, 64, 94
1, 584307, Note_off_c, 0, 69, 55
1, 584319, Control_c, 0, 64, 95
1, 584331, Note_off_c, 0, 49, 39
1, 584334, Control_c, 0, 64, 97
1, 584348, Control_c, 0, 64, 100
1, 584363, Control_c, 0, 64, 105
1, 584378, Control_c, 0, 64, 109
1, 584394, Control_c, 0, 64, 113
1, 584423, Control_c, 0, 64, 116
1, 584453, Control_c, 0, 64, 118
1, 584616, Control_c, 0, 64, 109
1, 584631, Control_c, 0, 64, 98
1, 584634, Note_on_c, 0, 80, 53
1, 584634, Note_on_c, 0, 41, 33
1, 584637, Note_on_c, 0, 68, 48
1, 584646, Control_c, 0, 64, 83
1, 584661, Control_c, 0, 64, 68
1, 584676, Control_c, 0, 64, 54
1, 584690, Control_c, 0, 64, 40
1, 584705, Control_c, 0, 64, 42
1, 584720, Control_c, 0, 64, 48
1, 584735, Control_c, 0, 64, 52
1, 584743, Note_off_c, 0, 81, 41
1, 584750, Control_c, 0, 64, 56
1, 584764, Control_c, 0, 64, 62
1, 584779, Control_c, 0, 64, 66
1, 584794, Control_c, 0, 64, 73
1, 584809, Control_c, 0, 64, 80
1, 584823, Control_c, 0, 64, 84
1, 584837, Note_off_c, 0, 41, 38
1, 584838, Control_c, 0, 64, 85
1, 584853, Control_c, 0, 64, 88
1, 584868, Control_c, 0, 64, 90
1, 584883, Control_c, 0, 64, 91
1, 584897, Control_c, 0, 64, 93
1, 584897, Control_c, 0, 67, 120
1, 584912, Control_c, 0, 64, 94
1, 584912, Control_c, 0, 67, 108
1, 584927, Control_c, 0, 64, 94
1, 584927, Control_c, 0, 67, 98
1, 584942, Control_c, 0, 64, 95
1, 584942, Control_c, 0, 67, 89
1, 584957, Control_c, 0, 67, 83
1, 584971, Control_c, 0, 67, 78
1, 584986, Control_c, 0, 67, 73
1, 585001, Control_c, 0, 67, 68
1, 585023, Control_c, 0, 64, 94
1, 585023, Control_c, 0, 67, 63
1, 585038, Control_c, 0, 64, 93
1, 585038, Control_c, 0, 67, 58
1, 585053, Control_c, 0, 64, 91
1, 585053, Control_c, 0, 67, 55
1, 585068, Control_c, 0, 64, 88
1, 585068, Control_c, 0, 67, 53
1, 585083, Control_c, 0, 64, 85
1, 585083, Control_c, 0, 67, 52
1, 585097, Control_c, 0, 64, 81
1, 585097, Control_c, 0, 67, 51
1, 585112, Control_c, 0, 64, 77
1, 585112, Control_c, 0, 67, 51
1, 585127, Control_c, 0, 64, 71
1, 585142, Control_c, 0, 64, 64
1, 585157, Control_c, 0, 64, 56
1, 585171, Control_c, 0, 64, 45
1, 585181, Note_on_c, 0, 61, 34
1, 585186, Control_c, 0, 64, 39
1, 585202, Control_c, 0, 64, 38
1, 585202, Control_c, 0, 67, 50
1, 585217, Control_c, 0, 64, 39
1, 585217, Control_c, 0, 67, 50
1, 585232, Control_c, 0, 64, 42
1, 585232, Control_c, 0, 67, 49
1, 585246, Control_c, 0, 64, 48
1, 585246, Control_c, 0, 67, 49
1, 585261, Control_c, 0, 64, 56
1, 585261, Control_c, 0, 67, 44
1, 585276, Control_c, 0, 64, 61
1, 585276, Control_c, 0, 67, 35
1, 585291, Control_c, 0, 64, 65
1, 585291, Control_c, 0, 67, 25
1, 585306, Control_c, 0, 64, 71
1, 585306, Control_c, 0, 67, 0
1, 585320, Control_c, 0, 64, 79
1, 585335, Control_c, 0, 64, 90
1, 585350, Control_c, 0, 64, 99
1, 585355, Note_off_c, 0, 68, 59
1, 585365, Control_c, 0, 64, 109
1, 585380, Control_c, 0, 64, 127
1, 585413, Note_off_c, 0, 80, 51
1, 585680, Note_on_c, 0, 49, 41
1, 585772, Note_off_c, 0, 61, 40
1, 585843, Note_off_c, 0, 49, 36
1, 586346, Note_on_c, 0, 83, 88
1, 586357, Note_on_c, 0, 42, 35
1, 586365, Control_c, 0, 64, 111
1, 586376, Note_on_c, 0, 78, 55
1, 586377, Note_on_c, 0, 71, 50
1, 586380, Control_c, 0, 64, 84
1, 586394, Control_c, 0, 64, 67
1, 586409, Control_c, 0, 64, 52
1, 586424, Control_c, 0, 64, 39
1, 586439, Control_c, 0, 64, 44
1, 586454, Control_c, 0, 64, 52
1, 586468, Control_c, 0, 64, 58
1, 586483, Control_c, 0, 64, 63
1, 586498, Control_c, 0, 64, 69
1, 586521, Control_c, 0, 64, 77
1, 586535, Control_c, 0, 64, 87
1, 586550, Control_c, 0, 64, 94
1, 586565, Control_c, 0, 64, 99
1, 586566, Note_off_c, 0, 42, 39
1, 586580, Control_c, 0, 64, 105
1, 586594, Control_c, 0, 64, 113
1, 586609, Control_c, 0, 64, 127
1, 586757, Control_c, 0, 64, 117
1, 586772, Control_c, 0, 64, 110
1, 586788, Control_c, 0, 64, 105
1, 586803, Control_c, 0, 64, 101
1, 586817, Control_c, 0, 64, 97
1, 586832, Control_c, 0, 64, 93
1, 586847, Control_c, 0, 64, 90
1, 586862, Control_c, 0, 64, 86
1, 586877, Control_c, 0, 64, 84
1, 586891, Control_c, 0, 64, 81
1, 586891, Control_c, 0, 67, 20
1, 586906, Control_c, 0, 64, 78
1, 586921, Control_c, 0, 64, 75
1, 586921, Control_c, 0, 67, 23
1, 586936, Control_c, 0, 64, 70
1, 586936, Control_c, 0, 67, 26
1, 586951, Control_c, 0, 64, 64
1, 586951, Control_c, 0, 67, 29
1, 586965, Control_c, 0, 64, 58
1, 586965, Control_c, 0, 67, 34
1, 586980, Control_c, 0, 64, 48
1, 586980, Control_c, 0, 67, 41
1, 586995, Control_c, 0, 64, 37
1, 586995, Control_c, 0, 67, 50
1, 587003, Note_on_c, 0, 62, 42
1, 587010, Control_c, 0, 64, 0
1, 587010, Control_c, 0, 67, 60
1, 587025, Control_c, 0, 67, 73
1, 587040, Control_c, 0, 67, 86
1, 587055, Control_c, 0, 67, 98
1, 587069, Control_c, 0, 64, 33
1, 587069, Control_c, 0, 67, 107
1, 587084, Control_c, 0, 64, 43
1, 587084, Control_c, 0, 67, 114
1, 587099, Control_c, 0, 64, 53
1, 587099, Control_c, 0, 67, 122
1, 587114, Control_c, 0, 64, 61
1, 587114, Control_c, 0, 67, 127
1, 587129, Control_c, 0, 64, 66
1, 587144, Control_c, 0, 64, 70
1, 587158, Control_c, 0, 64, 77
1, 587173, Control_c, 0, 64, 82
1, 587188, Control_c, 0, 64, 85
1, 587203, Control_c, 0, 64, 90
1, 587217, Control_c, 0, 64, 94
1, 587232, Control_c, 0, 64, 98
1, 587247, Control_c, 0, 64, 103
1, 587269, Control_c, 0, 64, 107
1, 587284, Control_c, 0, 64, 109
1, 587314, Control_c, 0, 64, 111
1, 587358, Control_c, 0, 64, 113
1, 587436, Note_off_c, 0, 83, 56
1, 587517, Note_off_c, 0, 62, 38
1, 587517, Note_on_c, 0, 50, 34
1, 587538, Note_off_c, 0, 78, 36
1, 587615, Note_off_c, 0, 71, 38
1, 587669, Note_off_c, 0, 50, 48
1, 587982, Control_c, 0, 64, 111
1, 588019, Control_c, 0, 64, 108
1, 588034, Control_c, 0, 64, 105
1, 588048, Note_on_c, 0, 42, 31
1, 588048, Control_c, 0, 64, 100
1, 588063, Control_c, 0, 64, 95
1, 588078, Control_c, 0, 64, 87
1, 588083, Note_on_c, 0, 81, 57
1, 588093, Control_c, 0, 64, 77
1, 588101, Note_on_c, 0, 78, 41
1, 588108, Control_c, 0, 64, 66
1, 588109, Note_on_c, 0, 69, 24
1, 588122, Control_c, 0, 64, 55
1, 588137, Control_c, 0, 64, 44
1, 588152, Control_c, 0, 64, 45
1, 588166, Control_c, 0, 64, 50
1, 588181, Control_c, 0, 64, 54
1, 588196, Control_c, 0, 64, 59
1, 588211, Control_c, 0, 64, 64
1, 588224, Note_off_c, 0, 42, 41
1, 588226, Control_c, 0, 64, 67
1, 588241, Control_c, 0, 64, 71
1, 588256, Control_c, 0, 64, 75
1, 588271, Control_c, 0, 64, 76
1, 588286, Control_c, 0, 64, 77
1, 588301, Control_c, 0, 64, 78
1, 588315, Control_c, 0, 64, 78
1, 588330, Control_c, 0, 64, 79
1, 588359, Control_c, 0, 64, 79
1, 588494, Control_c, 0, 64, 79
1, 588509, Control_c, 0, 64, 77
1, 588524, Control_c, 0, 64, 76
1, 588538, Control_c, 0, 64, 74
1, 588553, Control_c, 0, 64, 71
1, 588568, Control_c, 0, 64, 68
1, 588582, Control_c, 0, 64, 63
1, 588597, Control_c, 0, 64, 56
1, 588612, Control_c, 0, 64, 46
1, 588627, Control_c, 0, 64, 37
1, 588634, Note_on_c, 0, 61, 31
1, 588642, Control_c, 0, 64, 36
1, 588656, Control_c, 0, 64, 37
1, 588671, Control_c, 0, 64, 40
1, 588686, Control_c, 0, 64, 45
1, 588701, Control_c, 0, 64, 52
1, 588716, Control_c, 0, 64, 59
1, 588730, Control_c, 0, 64, 64
1, 588745, Control_c, 0, 64, 69
1, 588768, Control_c, 0, 64, 73
1, 588783, Control_c, 0, 64, 77
1, 588797, Control_c, 0, 64, 80
1, 588812, Control_c, 0, 64, 82
1, 588827, Control_c, 0, 64, 84
1, 588842, Control_c, 0, 64, 87
1, 588857, Control_c, 0, 64, 91
1, 588871, Control_c, 0, 64, 93
1, 588886, Control_c, 0, 64, 95
1, 588901, Control_c, 0, 64, 95
1, 588916, Control_c, 0, 64, 96
1, 588960, Control_c, 0, 64, 98
1, 589165, Note_on_c, 0, 49, 31
1, 589208, Note_off_c, 0, 61, 34
1, 589214, Note_off_c, 0, 69, 41
1, 589240, Note_off_c, 0, 81, 34
1, 589260, Note_off_c, 0, 49, 38
1, 589265, Note_off_c, 0, 78, 60
1, 589376, Control_c, 0, 64, 100
1, 589465, Control_c, 0, 64, 102
1, 589609, Note_on_c, 0, 81, 50
1, 589679, Control_c, 0, 64, 94
1, 589693, Control_c, 0, 64, 83
1, 589708, Control_c, 0, 64, 72
1, 589719, Note_on_c, 0, 80, 45
1, 589723, Control_c, 0, 64, 62
1, 589725, Note_off_c, 0, 81, 46
1, 589737, Control_c, 0, 64, 47
1, 589740, Note_on_c, 0, 37, 14
1, 589749, Note_on_c, 0, 77, 33
1, 589752, Control_c, 0, 64, 40
1, 589767, Control_c, 0, 64, 44
1, 589782, Control_c, 0, 64, 50
1, 589797, Control_c, 0, 64, 55
1, 589812, Control_c, 0, 64, 60
1, 589824, Note_off_c, 0, 37, 41
1, 589827, Control_c, 0, 64, 65
1, 589842, Control_c, 0, 64, 72
1, 589857, Control_c, 0, 64, 79
1, 589872, Control_c, 0, 64, 83
1, 589886, Control_c, 0, 64, 85
1, 589901, Control_c, 0, 64, 88
1, 589916, Control_c, 0, 64, 91
1, 589930, Control_c, 0, 64, 95
1, 589945, Control_c, 0, 64, 100
1, 589960, Control_c, 0, 64, 106
1, 589975, Control_c, 0, 64, 118
1, 589991, Control_c, 0, 64, 127
1, 590078, Note_off_c, 0, 80, 38
1, 590080, Note_off_c, 0, 77, 41
1, 590245, Note_on_c, 0, 77, 34
1, 590245, Note_on_c, 0, 80, 43
1, 590259, Note_on_c, 0, 61, 32
1, 590271, Note_on_c, 0, 73, 33
1, 590587, Note_off_c, 0, 80, 35
1, 590614, Note_on_c, 0, 81, 49
1, 590614, Note_off_c, 0, 73, 40
1, 590615, Note_off_c, 0, 77, 42
1, 590664, Control_c, 0, 64, 122
1, 590679, Control_c, 0, 64, 96
1, 590694, Control_c, 0, 64, 81
1, 590709, Control_c, 0, 64, 68
1, 590713, Note_on_c, 0, 80, 43
1, 590716, Note_off_c, 0, 61, 40
1, 590722, Note_off_c, 0, 81, 43
1, 590724, Control_c, 0, 64, 60
1, 590736, Note_on_c, 0, 49, 28
1, 590739, Control_c, 0, 64, 57
1, 590748, Note_on_c, 0, 77, 40
1, 590750, Note_on_c, 0, 73, 38
1, 590753, Control_c, 0, 64, 59
1, 590768, Control_c, 0, 64, 62
1, 590784, Control_c, 0, 64, 65
1, 590799, Control_c, 0, 64, 70
1, 590813, Control_c, 0, 64, 78
1, 590828, Control_c, 0, 64, 86
1, 590843, Control_c, 0, 64, 92
1, 590858, Control_c, 0, 64, 96
1, 590858, Note_off_c, 0, 73, 38
1, 590873, Control_c, 0, 64, 98
1, 590882, Note_off_c, 0, 77, 54
1, 590903, Control_c, 0, 64, 100
1, 590908, Note_off_c, 0, 49, 39
1, 590932, Control_c, 0, 64, 102
1, 591252, Control_c, 0, 64, 98
1, 591261, Note_on_c, 0, 42, 34
1, 591266, Control_c, 0, 64, 89
1, 591270, Note_on_c, 0, 81, 48
1, 591277, Note_off_c, 0, 80, 38
1, 591281, Control_c, 0, 64, 79
1, 591288, Note_on_c, 0, 73, 31
1, 591296, Control_c, 0, 64, 68
1, 591303, Note_on_c, 0, 78, 29
1, 591310, Control_c, 0, 64, 58
1, 591325, Control_c, 0, 64, 48
1, 591340, Control_c, 0, 64, 50
1, 591355, Control_c, 0, 64, 54
1, 591370, Control_c, 0, 64, 57
1, 591384, Control_c, 0, 64, 61
1, 591399, Control_c, 0, 64, 65
1, 591413, Note_off_c, 0, 42, 56
1, 591414, Control_c, 0, 64, 71
1, 591429, Control_c, 0, 64, 78
1, 591444, Control_c, 0, 64, 84
1, 591458, Control_c, 0, 64, 85
1, 591473, Control_c, 0, 64, 87
1, 591488, Control_c, 0, 64, 88
1, 591502, Control_c, 0, 64, 90
1, 591517, Control_c, 0, 64, 90
1, 591532, Control_c, 0, 64, 91
1, 591667, Control_c, 0, 64, 90
1, 591681, Control_c, 0, 64, 89
1, 591696, Control_c, 0, 64, 88
1, 591711, Control_c, 0, 64, 86
1, 591726, Control_c, 0, 64, 83
1, 591741, Control_c, 0, 64, 76
1, 591763, Control_c, 0, 64, 68
1, 591778, Control_c, 0, 64, 59
1, 591793, Control_c, 0, 64, 48
1, 591807, Control_c, 0, 64, 43
1, 591822, Control_c, 0, 64, 45
1, 591831, Note_on_c, 0, 61, 28
1, 591837, Control_c, 0, 64, 50
1, 591852, Control_c, 0, 64, 52
1, 591867, Control_c, 0, 64, 55
1, 591881, Control_c, 0, 64, 58
1, 591896, Control_c, 0, 64, 63
1, 591911, Control_c, 0, 64, 67
1, 591926, Control_c, 0, 64, 71
1, 591940, Control_c, 0, 64, 77
1, 591955, Control_c, 0, 64, 80
1, 591970, Control_c, 0, 64, 81
1, 591985, Control_c, 0, 64, 83
1, 592000, Control_c, 0, 64, 86
1, 592015, Control_c, 0, 64, 89
1, 592030, Control_c, 0, 64, 93
1, 592045, Control_c, 0, 64, 99
1, 592059, Control_c, 0, 64, 104
1, 592074, Control_c, 0, 64, 107
1, 592119, Control_c, 0, 64, 109
1, 592306, Note_on_c, 0, 49, 36
1, 592319, Note_off_c, 0, 61, 36
1, 592380, Note_off_c, 0, 49, 55
1, 592410, Note_off_c, 0, 73, 41
1, 592413, Note_off_c, 0, 78, 43
1, 592443, Note_off_c, 0, 81, 43
1, 592703, Note_on_c, 0, 81, 48
1, 592808, Control_c, 0, 64, 103
1, 592823, Control_c, 0, 64, 93
1, 592835, Note_off_c, 0, 81, 38
1, 592838, Control_c, 0, 64, 80
1, 592849, Note_on_c, 0, 37, 29
1, 592852, Control_c, 0, 64, 68
1, 592857, Note_on_c, 0, 80, 38
1, 592867, Control_c, 0, 64, 56
1, 592877, Note_on_c, 0, 73, 32
1, 592882, Control_c, 0, 64, 37
1, 592887, Note_on_c, 0, 77, 29
1, 592897, Control_c, 0, 64, 0
1, 592912, Control_c, 0, 64, 36
1, 592927, Control_c, 0, 64, 44
1, 592942, Control_c, 0, 64, 50
1, 592956, Control_c, 0, 64, 55
1, 592971, Control_c, 0, 64, 61
1, 592986, Control_c, 0, 64, 66
1, 592994, Note_off_c, 0, 37, 53
1, 593001, Control_c, 0, 64, 70
1, 593016, Control_c, 0, 64, 75
1, 593030, Control_c, 0, 64, 79
1, 593045, Control_c, 0, 64, 80
1, 593060, Control_c, 0, 64, 82
1, 593074, Control_c, 0, 64, 84
1, 593089, Control_c, 0, 64, 86
1, 593104, Control_c, 0, 64, 88
1, 593119, Control_c, 0, 64, 90
1, 593134, Control_c, 0, 64, 92
1, 593148, Control_c, 0, 64, 93
1, 593163, Control_c, 0, 64, 93
1, 593211, Note_off_c, 0, 80, 38
1, 593218, Note_off_c, 0, 73, 41
1, 593229, Note_off_c, 0, 77, 44
1, 593402, Note_on_c, 0, 80, 43
1, 593409, Control_c, 0, 64, 92
1, 593410, Note_on_c, 0, 77, 32
1, 593414, Note_on_c, 0, 61, 32
1, 593415, Note_on_c, 0, 73, 33
1, 593424, Control_c, 0, 64, 87
1, 593439, Control_c, 0, 64, 78
1, 593453, Control_c, 0, 64, 69
1, 593468, Control_c, 0, 64, 61
1, 593483, Control_c, 0, 64, 51
1, 593498, Control_c, 0, 64, 47
1, 593512, Control_c, 0, 64, 50
1, 593527, Control_c, 0, 64, 54
1, 593542, Control_c, 0, 64, 58
1, 593557, Control_c, 0, 64, 62
1, 593572, Control_c, 0, 64, 66
1, 593586, Control_c, 0, 64, 71
1, 593601, Control_c, 0, 64, 76
1, 593616, Control_c, 0, 64, 80
1, 593631, Control_c, 0, 64, 81
1, 593646, Control_c, 0, 64, 82
1, 593660, Control_c, 0, 64, 83
1, 593675, Control_c, 0, 64, 85
1, 593690, Control_c, 0, 64, 87
1, 593705, Control_c, 0, 64, 88
1, 593720, Control_c, 0, 64, 88
1, 593735, Control_c, 0, 64, 89
1, 593753, Note_off_c, 0, 73, 40
1, 593755, Note_off_c, 0, 80, 49
1, 593776, Note_off_c, 0, 77, 43
1, 593779, Note_on_c, 0, 81, 47
1, 593794, Control_c, 0, 64, 89
1, 593853, Control_c, 0, 64, 89
1, 593868, Control_c, 0, 64, 86
1, 593883, Control_c, 0, 64, 79
1, 593891, Note_off_c, 0, 61, 36
1, 593897, Control_c, 0, 64, 71
1, 593902, Note_on_c, 0, 80, 39
1, 593912, Control_c, 0, 64, 63
1, 593916, Note_on_c, 0, 49, 28
1, 593917, Note_off_c, 0, 81, 42
1, 593918, Note_on_c, 0, 77, 30
1, 593927, Control_c, 0, 64, 54
1, 593929, Note_on_c, 0, 73, 38
1, 593957, Control_c, 0, 64, 57
1, 593973, Control_c, 0, 64, 60
1, 593988, Control_c, 0, 64, 63
1, 594009, Control_c, 0, 64, 67
1, 594024, Control_c, 0, 64, 72
1, 594039, Control_c, 0, 64, 79
1, 594054, Control_c, 0, 64, 83
1, 594060, Note_off_c, 0, 80, 57
1, 594069, Control_c, 0, 64, 84
1, 594077, Note_off_c, 0, 49, 52
1, 594084, Control_c, 0, 64, 85
1, 594087, Note_off_c, 0, 77, 44
1, 594098, Control_c, 0, 64, 87
1, 594113, Control_c, 0, 64, 90
1, 594127, Note_off_c, 0, 73, 53
1, 594128, Control_c, 0, 64, 92
1, 594143, Control_c, 0, 64, 94
1, 594158, Control_c, 0, 64, 95
1, 594188, Control_c, 0, 64, 95
1, 594454, Control_c, 0, 64, 95
1, 594474, Note_on_c, 0, 42, 31
1, 594483, Control_c, 0, 64, 94
1, 594487, Note_on_c, 0, 78, 46
1, 594498, Control_c, 0, 64, 92
1, 594503, Note_on_c, 0, 69, 31
1, 594513, Control_c, 0, 64, 89
1, 594520, Note_on_c, 0, 73, 29
1, 594528, Control_c, 0, 64, 82
1, 594543, Control_c, 0, 64, 73
1, 594557, Control_c, 0, 64, 65
1, 594572, Control_c, 0, 64, 55
1, 594587, Control_c, 0, 64, 47
1, 594602, Control_c, 0, 64, 49
1, 594617, Control_c, 0, 64, 52
1, 594632, Control_c, 0, 64, 56
1, 594646, Control_c, 0, 64, 59
1, 594661, Control_c, 0, 64, 63
1, 594676, Control_c, 0, 64, 67
1, 594691, Control_c, 0, 64, 72
1, 594706, Control_c, 0, 64, 77
1, 594720, Control_c, 0, 64, 81
1, 594735, Control_c, 0, 64, 83
1, 594757, Control_c, 0, 64, 85
1, 594772, Control_c, 0, 64, 87
1, 594788, Control_c, 0, 64, 87
1, 594803, Control_c, 0, 64, 88
1, 594818, Control_c, 0, 64, 89
1, 594832, Control_c, 0, 64, 90
1, 594847, Control_c, 0, 64, 91
1, 594892, Control_c, 0, 64, 92
1, 594897, Note_off_c, 0, 78, 32
1, 594921, Control_c, 0, 64, 92
1, 594951, Control_c, 0, 64, 93
1, 594996, Control_c, 0, 64, 93
1, 595011, Control_c, 0, 64, 94
1, 595025, Control_c, 0, 64, 95
1, 595037, Note_on_c, 0, 49, 34
1, 595055, Control_c, 0, 64, 96
1, 595070, Note_off_c, 0, 69, 39
1, 595084, Control_c, 0, 64, 98
1, 595114, Control_c, 0, 64, 100
1, 595158, Control_c, 0, 64, 102
1, 595161, Note_off_c, 0, 73, 34
1, 595173, Control_c, 0, 64, 104
1, 595203, Control_c, 0, 64, 107
1, 595232, Control_c, 0, 64, 109
1, 595258, Note_off_c, 0, 42, 44
1, 595262, Control_c, 0, 64, 113
1, 595291, Control_c, 0, 64, 117
1, 595306, Control_c, 0, 64, 119
1, 595336, Control_c, 0, 64, 122
1, 595350, Control_c, 0, 64, 127
1, 595640, Note_on_c, 0, 54, 27
1, 595767, Note_off_c, 0, 49, 43
1, 595897, Note_off_c, 0, 54, 40
1, 596366, Note_on_c, 0, 40, 20
1, 596383, Note_on_c, 0, 81, 50
1, 596408, Note_on_c, 0, 69, 32
1, 596420, Control_c, 0, 64, 111
1, 596434, Note_off_c, 0, 81, 0
1, 596434, Note_on_c, 0, 81, 13
1, 596435, Control_c, 0, 64, 95
1, 596450, Control_c, 0, 64, 82
1, 596465, Control_c, 0, 64, 70
1, 596479, Control_c, 0, 64, 60
1, 596494, Control_c, 0, 64, 46
1, 596509, Control_c, 0, 64, 43
1, 596523, Control_c, 0, 64, 48
1, 596538, Control_c, 0, 64, 53
1, 596553, Control_c, 0, 64, 57
1, 596568, Control_c, 0, 64, 62
1, 596583, Control_c, 0, 64, 67
1, 596592, Note_off_c, 0, 40, 40
1, 596597, Control_c, 0, 64, 74
1, 596612, Control_c, 0, 64, 82
1, 596627, Control_c, 0, 64, 90
1, 596642, Control_c, 0, 64, 93
1, 596657, Control_c, 0, 64, 96
1, 596671, Control_c, 0, 64, 98
1, 596701, Control_c, 0, 64, 100
1, 596894, Control_c, 0, 64, 96
1, 596909, Control_c, 0, 64, 92
1, 596923, Control_c, 0, 64, 85
1, 596938, Control_c, 0, 64, 78
1, 596953, Control_c, 0, 64, 69
1, 596968, Control_c, 0, 64, 61
1, 596973, Note_on_c, 0, 57, 26
1, 596983, Control_c, 0, 64, 53
1, 597020, Control_c, 0, 64, 56
1, 597035, Control_c, 0, 64, 58
1, 597049, Control_c, 0, 64, 61
1, 597064, Control_c, 0, 64, 64
1, 597079, Control_c, 0, 64, 70
1, 597094, Control_c, 0, 64, 78
1, 597109, Control_c, 0, 64, 86
1, 597123, Control_c, 0, 64, 90
1, 597138, Control_c, 0, 64, 93
1, 597153, Control_c, 0, 64, 95
1, 597168, Control_c, 0, 64, 98
1, 597184, Control_c, 0, 64, 103
1, 597199, Control_c, 0, 64, 109
1, 597213, Control_c, 0, 64, 120
1, 597228, Control_c, 0, 64, 127
1, 597479, Note_on_c, 0, 49, 34
1, 597502, Note_off_c, 0, 69, 40
1, 597592, Note_off_c, 0, 57, 40
1, 597653, Note_off_c, 0, 49, 42
1, 597991, Control_c, 0, 64, 115
1, 597993, Note_on_c, 0, 40, 22
1, 598006, Control_c, 0, 64, 104
1, 598021, Control_c, 0, 64, 90
1, 598031, Note_on_c, 0, 80, 48
1, 598036, Control_c, 0, 64, 77
1, 598046, Note_on_c, 0, 68, 31
1, 598050, Control_c, 0, 64, 66
1, 598065, Control_c, 0, 64, 55
1, 598080, Control_c, 0, 64, 47
1, 598083, Note_off_c, 0, 81, 43
1, 598094, Control_c, 0, 64, 50
1, 598109, Control_c, 0, 64, 54
1, 598124, Control_c, 0, 64, 58
1, 598139, Control_c, 0, 64, 62
1, 598154, Control_c, 0, 64, 66
1, 598168, Control_c, 0, 64, 72
1, 598183, Control_c, 0, 64, 80
1, 598192, Note_off_c, 0, 40, 41
1, 598198, Control_c, 0, 64, 86
1, 598213, Control_c, 0, 64, 90
1, 598227, Control_c, 0, 64, 92
1, 598242, Control_c, 0, 64, 94
1, 598257, Control_c, 0, 64, 96
1, 598287, Control_c, 0, 64, 98
1, 598517, Control_c, 0, 64, 96
1, 598532, Control_c, 0, 64, 90
1, 598547, Control_c, 0, 64, 80
1, 598562, Control_c, 0, 64, 71
1, 598567, Note_on_c, 0, 59, 27
1, 598576, Control_c, 0, 64, 62
1, 598591, Control_c, 0, 64, 53
1, 598606, Control_c, 0, 64, 52
1, 598620, Control_c, 0, 64, 56
1, 598635, Control_c, 0, 64, 59
1, 598650, Control_c, 0, 64, 63
1, 598665, Control_c, 0, 64, 68
1, 598680, Control_c, 0, 64, 75
1, 598695, Control_c, 0, 64, 83
1, 598710, Control_c, 0, 64, 90
1, 598725, Control_c, 0, 64, 92
1, 598740, Control_c, 0, 64, 93
1, 598755, Control_c, 0, 64, 94
1, 598770, Control_c, 0, 64, 95
1, 598785, Control_c, 0, 64, 97
1, 598829, Control_c, 0, 64, 99
1, 599036, Note_on_c, 0, 50, 33
1, 599070, Note_off_c, 0, 59, 33
1, 599130, Note_off_c, 0, 68, 42
1, 599175, Note_off_c, 0, 50, 36
1, 599443, Control_c, 0, 64, 93
1, 599458, Control_c, 0, 64, 84
1, 599473, Control_c, 0, 64, 75
1, 599480, Note_on_c, 0, 40, 22
1, 599488, Control_c, 0, 64, 65
1, 599503, Control_c, 0, 64, 57
1, 599518, Control_c, 0, 64, 54
1, 599524, Note_on_c, 0, 81, 47
1, 599533, Control_c, 0, 64, 57
1, 599548, Note_on_c, 0, 69, 17
1, 599548, Control_c, 0, 64, 60
1, 599555, Note_off_c, 0, 80, 33
1, 599563, Control_c, 0, 64, 63
1, 599578, Control_c, 0, 64, 67
1, 599593, Control_c, 0, 64, 73
1, 599608, Control_c, 0, 64, 82
1, 599622, Control_c, 0, 64, 88
1, 599631, Note_off_c, 0, 69, 39
1, 599637, Control_c, 0, 64, 91
1, 599641, Note_off_c, 0, 40, 50
1, 599652, Control_c, 0, 64, 93
1, 599667, Control_c, 0, 64, 95
1, 599682, Control_c, 0, 64, 98
1, 599697, Control_c, 0, 64, 100
1, 599711, Control_c, 0, 64, 103
1, 599726, Control_c, 0, 64, 106
1, 599741, Control_c, 0, 64, 110
1, 599756, Control_c, 0, 64, 114
1, 599763, Note_on_c, 0, 80, 57
1, 599771, Control_c, 0, 64, 118
1, 599771, Note_off_c, 0, 81, 40
1, 599777, Note_on_c, 0, 68, 45
1, 599786, Control_c, 0, 64, 120
1, 599801, Control_c, 0, 64, 127
1, 599943, Note_off_c, 0, 68, 41
1, 600015, Control_c, 0, 64, 119
1, 600024, Note_on_c, 0, 57, 29
1, 600030, Control_c, 0, 64, 88
1, 600038, Note_on_c, 0, 81, 62
1, 600042, Note_off_c, 0, 80, 39
1, 600045, Control_c, 0, 64, 72
1, 600048, Note_on_c, 0, 69, 39
1, 600060, Control_c, 0, 64, 61
1, 600074, Control_c, 0, 64, 54
1, 600089, Control_c, 0, 64, 56
1, 600104, Control_c, 0, 64, 60
1, 600105, Note_off_c, 0, 69, 60
1, 600119, Control_c, 0, 64, 63
1, 600133, Note_off_c, 0, 81, 63
1, 600134, Control_c, 0, 64, 67
1, 600148, Control_c, 0, 64, 75
1, 600163, Control_c, 0, 64, 85
1, 600178, Control_c, 0, 64, 96
1, 600192, Control_c, 0, 64, 105
1, 600207, Control_c, 0, 64, 127
1, 600383, Note_on_c, 0, 85, 56
1, 600386, Note_on_c, 0, 73, 58
1, 600401, Note_off_c, 0, 85, 65
1, 600406, Note_off_c, 0, 73, 64
1, 600458, Note_on_c, 0, 49, 37
1, 600489, Note_off_c, 0, 57, 39
1, 600492, Note_on_c, 0, 81, 65
1, 600505, Control_c, 0, 64, 80
1, 600508, Note_on_c, 0, 69, 38
1, 600520, Control_c, 0, 64, 64
1, 600535, Control_c, 0, 64, 51
1, 600547, Note_off_c, 0, 81, 0
1, 600547, Note_on_c, 0, 81, 18
1, 600550, Control_c, 0, 64, 50
1, 600564, Control_c, 0, 64, 54
1, 600579, Control_c, 0, 64, 58
1, 600594, Control_c, 0, 64, 61
1, 600609, Control_c, 0, 64, 67
1, 600621, Note_off_c, 0, 49, 54
1, 600624, Control_c, 0, 64, 74
1, 600639, Control_c, 0, 64, 84
1, 600653, Control_c, 0, 64, 91
1, 600668, Control_c, 0, 64, 95
1, 600679, Note_off_c, 0, 69, 61
1, 600683, Control_c, 0, 64, 97
1, 600698, Control_c, 0, 64, 99
1, 600712, Control_c, 0, 64, 102
1, 600727, Control_c, 0, 64, 106
1, 600749, Control_c, 0, 64, 109
1, 600764, Control_c, 0, 64, 113
1, 600779, Control_c, 0, 64, 119
1, 600794, Control_c, 0, 64, 127
1, 600957, Control_c, 0, 64, 114
1, 600971, Control_c, 0, 64, 104
1, 600972, Note_on_c, 0, 40, 18
1, 600986, Control_c, 0, 64, 91
1, 600999, Note_on_c, 0, 80, 50
1, 601001, Control_c, 0, 64, 76
1, 601008, Note_on_c, 0, 68, 40
1, 601015, Control_c, 0, 64, 65
1, 601030, Control_c, 0, 64, 54
1, 601045, Control_c, 0, 64, 45
1, 601060, Control_c, 0, 64, 48
1, 601075, Control_c, 0, 64, 54
1, 601084, Note_off_c, 0, 81, 42
1, 601089, Control_c, 0, 64, 58
1, 601104, Control_c, 0, 64, 61
1, 601119, Control_c, 0, 64, 65
1, 601134, Control_c, 0, 64, 71
1, 601143, Note_off_c, 0, 40, 50
1, 601148, Control_c, 0, 64, 80
1, 601165, Control_c, 0, 64, 87
1, 601180, Control_c, 0, 64, 90
1, 601194, Control_c, 0, 64, 91
1, 601209, Control_c, 0, 64, 92
1, 601224, Control_c, 0, 64, 93
1, 601238, Control_c, 0, 64, 95
1, 601253, Control_c, 0, 64, 97
1, 601387, Control_c, 0, 64, 96
1, 601402, Control_c, 0, 64, 94
1, 601417, Control_c, 0, 64, 93
1, 601431, Control_c, 0, 64, 91
1, 601446, Control_c, 0, 64, 88
1, 601461, Control_c, 0, 64, 83
1, 601476, Control_c, 0, 64, 77
1, 601498, Control_c, 0, 64, 71
1, 601513, Control_c, 0, 64, 63
1, 601521, Note_on_c, 0, 59, 28
1, 601527, Control_c, 0, 64, 57
1, 601542, Control_c, 0, 64, 52
1, 601557, Control_c, 0, 64, 51
1, 601572, Control_c, 0, 64, 52
1, 601586, Control_c, 0, 64, 54
1, 601601, Control_c, 0, 64, 56
1, 601616, Control_c, 0, 64, 61
1, 601631, Control_c, 0, 64, 64
1, 601646, Control_c, 0, 64, 68
1, 601661, Control_c, 0, 64, 75
1, 601676, Control_c, 0, 64, 83
1, 601691, Control_c, 0, 64, 90
1, 601706, Control_c, 0, 64, 96
1, 601716, Note_off_c, 0, 68, 53
1, 601720, Control_c, 0, 64, 104
1, 601735, Control_c, 0, 64, 119
1, 601750, Control_c, 0, 64, 127
1, 601764, Control_c, 0, 67, 118
1, 601779, Control_c, 0, 67, 102
1, 601794, Control_c, 0, 67, 77
1, 601809, Control_c, 0, 67, 55
1, 601824, Control_c, 0, 67, 35
1, 601838, Control_c, 0, 67, 0
1, 601964, Note_on_c, 0, 50, 33
1, 601983, Note_off_c, 0, 59, 32
1, 602072, Note_off_c, 0, 50, 51
1, 602139, Note_off_c, 0, 80, 56
1, 602450, Note_on_c, 0, 40, 16
1, 602537, Note_on_c, 0, 85, 66
1, 602543, Control_c, 0, 64, 107
1, 602558, Control_c, 0, 64, 82
1, 602564, Note_on_c, 0, 73, 36
1, 602573, Control_c, 0, 64, 68
1, 602587, Control_c, 0, 64, 57
1, 602602, Control_c, 0, 64, 54
1, 602617, Control_c, 0, 64, 57
1, 602632, Control_c, 0, 64, 60
1, 602647, Control_c, 0, 64, 63
1, 602661, Control_c, 0, 64, 67
1, 602676, Control_c, 0, 64, 73
1, 602691, Control_c, 0, 64, 83
1, 602706, Control_c, 0, 64, 92
1, 602721, Control_c, 0, 64, 96
1, 602725, Note_off_c, 0, 40, 40
1, 602735, Control_c, 0, 64, 100
1, 602750, Control_c, 0, 64, 104
1, 602766, Control_c, 0, 64, 109
1, 602781, Control_c, 0, 64, 117
1, 602796, Control_c, 0, 64, 127
1, 603040, Control_c, 0, 64, 93
1, 603046, Note_on_c, 0, 57, 36
1, 603055, Control_c, 0, 64, 78
1, 603070, Control_c, 0, 64, 70
1, 603085, Control_c, 0, 64, 69
1, 603099, Control_c, 0, 64, 72
1, 603114, Control_c, 0, 64, 77
1, 603116, Note_off_c, 0, 73, 62
1, 603129, Control_c, 0, 64, 86
1, 603144, Control_c, 0, 64, 98
1, 603159, Control_c, 0, 64, 127
1, 603172, Note_off_c, 0, 85, 63
1, 603392, Note_on_c, 0, 85, 69
1, 603509, Note_on_c, 0, 49, 33
1, 603587, Note_on_c, 0, 86, 72
1, 603596, Note_off_c, 0, 57, 31
1, 603603, Note_off_c, 0, 85, 62
1, 603708, Note_on_c, 0, 85, 80
1, 603713, Note_off_c, 0, 49, 40
1, 603761, Note_off_c, 0, 86, 56
1, 603815, Note_on_c, 0, 83, 79
1, 603821, Note_off_c, 0, 85, 64
1, 603900, Note_on_c, 0, 85, 81
1, 603960, Note_on_c, 0, 40, 31
1, 604026, Control_c, 0, 64, 122
1, 604040, Control_c, 0, 64, 90
1, 604050, Note_on_c, 0, 88, 88
1, 604055, Control_c, 0, 64, 73
1, 604062, Note_off_c, 0, 83, 48
1, 604065, Note_off_c, 0, 85, 64
1, 604070, Control_c, 0, 64, 59
1, 604075, Note_on_c, 0, 76, 55
1, 604085, Control_c, 0, 64, 35
1, 604100, Control_c, 0, 64, 0
1, 604129, Control_c, 0, 64, 39
1, 604144, Control_c, 0, 64, 49
1, 604159, Control_c, 0, 64, 59
1, 604174, Control_c, 0, 64, 66
1, 604189, Control_c, 0, 64, 76
1, 604204, Control_c, 0, 64, 86
1, 604219, Control_c, 0, 64, 94
1, 604225, Note_off_c, 0, 40, 40
1, 604233, Control_c, 0, 64, 98
1, 604248, Control_c, 0, 64, 104
1, 604263, Control_c, 0, 64, 111
1, 604278, Control_c, 0, 64, 127
1, 604358, Note_off_c, 0, 88, 53
1, 604393, Note_off_c, 0, 76, 42
1, 604615, Note_on_c, 0, 56, 36
1, 604674, Note_on_c, 0, 86, 72
1, 604692, Note_on_c, 0, 74, 42
1, 604731, Control_c, 0, 64, 93
1, 604745, Control_c, 0, 64, 75
1, 604760, Control_c, 0, 64, 62
1, 604775, Control_c, 0, 64, 52
1, 604789, Control_c, 0, 64, 54
1, 604804, Control_c, 0, 64, 58
1, 604819, Control_c, 0, 64, 62
1, 604834, Control_c, 0, 64, 68
1, 604849, Control_c, 0, 64, 77
1, 604863, Control_c, 0, 64, 89
1, 604878, Control_c, 0, 64, 102
1, 604893, Control_c, 0, 64, 112
1, 604907, Control_c, 0, 64, 118
1, 604922, Control_c, 0, 64, 125
1, 604922, Control_c, 0, 67, 20
1, 604937, Control_c, 0, 64, 127
1, 604937, Control_c, 0, 67, 24
1, 604952, Control_c, 0, 67, 28
1, 604967, Control_c, 0, 67, 34
1, 604982, Control_c, 0, 67, 43
1, 604997, Control_c, 0, 67, 56
1, 605012, Control_c, 0, 67, 71
1, 605026, Control_c, 0, 67, 86
1, 605041, Control_c, 0, 67, 100
1, 605056, Control_c, 0, 67, 113
1, 605071, Control_c, 0, 67, 123
1, 605086, Control_c, 0, 67, 127
1, 605095, Note_off_c, 0, 86, 52
1, 605123, Note_off_c, 0, 74, 35
1, 605149, Note_off_c, 0, 56, 37
1, 605168, Note_on_c, 0, 47, 36
1, 605672, Control_c, 0, 64, 115
1, 605686, Control_c, 0, 64, 101
1, 605701, Control_c, 0, 64, 89
1, 605716, Control_c, 0, 64, 78
1, 605730, Control_c, 0, 64, 67
1, 605745, Control_c, 0, 64, 56
1, 605760, Control_c, 0, 64, 47
1, 605769, Note_on_c, 0, 86, 52
1, 605770, Note_on_c, 0, 74, 42
1, 605775, Control_c, 0, 64, 49
1, 605789, Note_on_c, 0, 40, 3
1, 605790, Note_off_c, 0, 47, 35
1, 605790, Control_c, 0, 64, 54
1, 605804, Control_c, 0, 64, 58
1, 605819, Control_c, 0, 64, 62
1, 605834, Control_c, 0, 64, 66
1, 605849, Control_c, 0, 64, 72
1, 605864, Control_c, 0, 64, 79
1, 605879, Control_c, 0, 64, 85
1, 605885, Note_off_c, 0, 74, 56
1, 605894, Control_c, 0, 64, 87
1, 605902, Note_off_c, 0, 86, 54
1, 605909, Control_c, 0, 64, 88
1, 605924, Control_c, 0, 64, 90
1, 605938, Control_c, 0, 64, 91
1, 605954, Control_c, 0, 64, 93
1, 605961, Note_off_c, 0, 40, 39
1, 605969, Control_c, 0, 64, 95
1, 605992, Control_c, 0, 64, 98
1, 606007, Control_c, 0, 64, 102
1, 606022, Control_c, 0, 64, 105
1, 606066, Control_c, 0, 64, 107
1, 606097, Note_on_c, 0, 85, 50
1, 606098, Note_on_c, 0, 73, 49
1, 606153, Note_off_c, 0, 73, 42
1, 606190, Note_off_c, 0, 85, 31
1, 606273, Control_c, 0, 64, 104
1, 606288, Control_c, 0, 64, 90
1, 606302, Control_c, 0, 64, 76
1, 606317, Control_c, 0, 64, 65
1, 606332, Control_c, 0, 64, 54
1, 606344, Note_on_c, 0, 85, 50
1, 606347, Control_c, 0, 64, 52
1, 606351, Note_on_c, 0, 41, 35
1, 606358, Note_on_c, 0, 73, 40
1, 606362, Control_c, 0, 64, 58
1, 606365, Note_on_c, 0, 49, 24
1, 606365, Note_on_c, 0, 80, 37
1, 606377, Control_c, 0, 64, 63
1, 606392, Control_c, 0, 64, 69
1, 606407, Control_c, 0, 64, 76
1, 606421, Control_c, 0, 64, 82
1, 606436, Control_c, 0, 64, 86
1, 606446, Note_off_c, 0, 85, 63
1, 606451, Control_c, 0, 64, 87
1, 606461, Note_off_c, 0, 73, 59
1, 606466, Control_c, 0, 64, 88
1, 606481, Control_c, 0, 64, 89
1, 606508, Note_off_c, 0, 80, 61
1, 606510, Control_c, 0, 64, 89
1, 606520, Note_off_c, 0, 49, 43
1, 606525, Control_c, 0, 64, 90
1, 606540, Control_c, 0, 64, 91
1, 606554, Control_c, 0, 64, 91
1, 606604, Note_on_c, 0, 83, 50
1, 606609, Note_on_c, 0, 71, 35
1, 606661, Note_off_c, 0, 71, 43
1, 606672, Note_off_c, 0, 83, 35
1, 606702, Control_c, 0, 64, 92
1, 606755, Control_c, 0, 64, 91
1, 606770, Control_c, 0, 64, 87
1, 606782, Note_off_c, 0, 41, 35
1, 606785, Control_c, 0, 64, 78
1, 606800, Control_c, 0, 64, 67
1, 606815, Control_c, 0, 64, 58
1, 606817, Note_on_c, 0, 83, 56
1, 606830, Control_c, 0, 64, 52
1, 606837, Note_on_c, 0, 42, 27
1, 606842, Note_on_c, 0, 71, 35
1, 606845, Control_c, 0, 64, 54
1, 606850, Note_on_c, 0, 49, 30
1, 606852, Note_on_c, 0, 78, 37
1, 606859, Control_c, 0, 64, 57
1, 606874, Control_c, 0, 64, 60
1, 606889, Control_c, 0, 64, 64
1, 606904, Control_c, 0, 64, 70
1, 606905, Note_off_c, 0, 83, 51
1, 606919, Control_c, 0, 64, 77
1, 606933, Control_c, 0, 64, 85
1, 606948, Control_c, 0, 64, 90
1, 606953, Note_off_c, 0, 71, 41
1, 606963, Control_c, 0, 64, 91
1, 606978, Control_c, 0, 64, 92
1, 606992, Control_c, 0, 64, 93
1, 606997, Note_off_c, 0, 49, 40
1, 607007, Control_c, 0, 64, 93
1, 607014, Note_off_c, 0, 78, 63
1, 607022, Control_c, 0, 64, 94
1, 607037, Control_c, 0, 64, 95
1, 607051, Control_c, 0, 64, 96
1, 607056, Note_on_c, 0, 81, 62
1, 607067, Note_on_c, 0, 69, 43
1, 607100, Note_off_c, 0, 69, 52
1, 607100, Note_off_c, 0, 81, 47
1, 607127, Note_off_c, 0, 42, 45
1, 607303, Control_c, 0, 64, 92
1, 607318, Control_c, 0, 64, 85
1, 607325, Note_on_c, 0, 37, 32
1, 607333, Control_c, 0, 64, 74
1, 607348, Control_c, 0, 64, 64
1, 607360, Note_on_c, 0, 80, 45
1, 607363, Control_c, 0, 64, 51
1, 607366, Note_on_c, 0, 77, 32
1, 607366, Note_on_c, 0, 68, 38
1, 607377, Control_c, 0, 64, 0
1, 607392, Control_c, 0, 64, 33
1, 607407, Control_c, 0, 64, 42
1, 607422, Control_c, 0, 64, 50
1, 607437, Control_c, 0, 64, 57
1, 607451, Control_c, 0, 64, 63
1, 607466, Control_c, 0, 64, 67
1, 607489, Control_c, 0, 64, 74
1, 607504, Control_c, 0, 64, 78
1, 607516, Note_off_c, 0, 37, 39
1, 607518, Control_c, 0, 64, 79
1, 607533, Control_c, 0, 64, 80
1, 607548, Control_c, 0, 64, 81
1, 607563, Control_c, 0, 64, 82
1, 607578, Control_c, 0, 64, 83
1, 607593, Control_c, 0, 64, 84
1, 607608, Control_c, 0, 64, 86
1, 607623, Control_c, 0, 64, 88
1, 607638, Control_c, 0, 64, 90
1, 607653, Control_c, 0, 64, 92
1, 607682, Control_c, 0, 64, 92
1, 607712, Control_c, 0, 64, 93
1, 607845, Control_c, 0, 64, 92
1, 607860, Control_c, 0, 64, 89
1, 607875, Control_c, 0, 64, 83
1, 607889, Control_c, 0, 64, 73
1, 607892, Note_on_c, 0, 61, 37
1, 607904, Control_c, 0, 64, 65
1, 607919, Control_c, 0, 64, 55
1, 607933, Control_c, 0, 64, 46
1, 607948, Control_c, 0, 64, 48
1, 607963, Control_c, 0, 64, 52
1, 607978, Control_c, 0, 64, 58
1, 607993, Control_c, 0, 64, 62
1, 608004, Note_off_c, 0, 68, 50
1, 608007, Control_c, 0, 64, 67
1, 608022, Control_c, 0, 64, 73
1, 608037, Control_c, 0, 64, 81
1, 608052, Control_c, 0, 64, 87
1, 608067, Control_c, 0, 64, 91
1, 608082, Control_c, 0, 64, 97
1, 608097, Control_c, 0, 64, 106
1, 608112, Control_c, 0, 64, 127
1, 608186, Control_c, 0, 67, 125
1, 608199, Control_c, 0, 67, 108
1, 608206, Note_off_c, 0, 80, 38
1, 608207, Note_off_c, 0, 77, 45
1, 608214, Control_c, 0, 67, 97
1, 608237, Control_c, 0, 67, 90
1, 608252, Control_c, 0, 67, 85
1, 608266, Control_c, 0, 67, 79
1, 608281, Control_c, 0, 67, 72
1, 608296, Control_c, 0, 67, 63
1, 608311, Control_c, 0, 67, 53
1, 608326, Control_c, 0, 67, 45
1, 608340, Control_c, 0, 67, 38
1, 608356, Control_c, 0, 67, 30
1, 608371, Control_c, 0, 67, 23
1, 608386, Control_c, 0, 67, 0
1, 608418, Note_off_c, 0, 61, 40
1, 608431, Note_on_c, 0, 49, 38
1, 608481, Note_off_c, 0, 49, 57
1, 609006, Note_on_c, 0, 42, 37
1, 609060, Note_on_c, 0, 90, 97
1, 609077, Note_on_c, 0, 83, 71
1, 609081, Note_on_c, 0, 78, 64
1, 609104, Control_c, 0, 64, 85
1, 609119, Control_c, 0, 64, 66
1, 609134, Note_off_c, 0, 78, 0
1, 609134, Control_c, 0, 64, 53
1, 609150, Control_c, 0, 64, 49
1, 609165, Note_on_c, 0, 78, 28
1, 609165, Control_c, 0, 64, 55
1, 609179, Control_c, 0, 64, 60
1, 609194, Control_c, 0, 64, 64
1, 609209, Control_c, 0, 64, 68
1, 609213, Note_off_c, 0, 42, 41
1, 609224, Control_c, 0, 64, 77
1, 609239, Control_c, 0, 64, 93
1, 609253, Control_c, 0, 64, 127
1, 609283, Control_c, 0, 67, 20
1, 609298, Control_c, 0, 67, 24
1, 609313, Control_c, 0, 67, 30
1, 609328, Control_c, 0, 67, 40
1, 609343, Control_c, 0, 67, 53
1, 609358, Control_c, 0, 67, 70
1, 609373, Control_c, 0, 67, 88
1, 609387, Control_c, 0, 67, 107
1, 609402, Control_c, 0, 67, 125
1, 609417, Control_c, 0, 67, 127
1, 609668, Control_c, 0, 64, 116
1, 609677, Note_on_c, 0, 62, 48
1, 609683, Control_c, 0, 64, 87
1, 609697, Control_c, 0, 64, 71
1, 609712, Control_c, 0, 64, 59
1, 609735, Control_c, 0, 64, 44
1, 609750, Control_c, 0, 64, 43
1, 609765, Control_c, 0, 64, 49
1, 609779, Control_c, 0, 64, 56
1, 609794, Control_c, 0, 64, 60
1, 609809, Control_c, 0, 64, 64
1, 609824, Control_c, 0, 64, 70
1, 609839, Control_c, 0, 64, 79
1, 609853, Control_c, 0, 64, 91
1, 609868, Control_c, 0, 64, 103
1, 609883, Control_c, 0, 64, 117
1, 609898, Control_c, 0, 64, 127
1, 610185, Note_on_c, 0, 50, 35
1, 610239, Note_off_c, 0, 90, 51
1, 610259, Note_off_c, 0, 62, 41
1, 610276, Note_off_c, 0, 83, 60
1, 610353, Note_off_c, 0, 78, 56
1, 610358, Note_off_c, 0, 50, 41
1, 610681, Note_on_c, 0, 42, 40
1, 610706, Control_c, 0, 64, 102
1, 610721, Control_c, 0, 64, 82
1, 610723, Note_on_c, 0, 85, 56
1, 610733, Note_on_c, 0, 73, 43
1, 610735, Note_on_c, 0, 81, 51
1, 610735, Control_c, 0, 64, 69
1, 610749, Note_on_c, 0, 78, 37
1, 610751, Control_c, 0, 64, 58
1, 610766, Control_c, 0, 64, 49
1, 610781, Control_c, 0, 64, 52
1, 610796, Control_c, 0, 64, 56
1, 610811, Control_c, 0, 64, 58
1, 610825, Control_c, 0, 64, 62
1, 610840, Control_c, 0, 64, 66
1, 610855, Control_c, 0, 64, 72
1, 610869, Note_off_c, 0, 42, 43
1, 610870, Control_c, 0, 64, 82
1, 610885, Control_c, 0, 64, 88
1, 610899, Control_c, 0, 64, 90
1, 610914, Control_c, 0, 64, 91
1, 610929, Control_c, 0, 64, 92
1, 610944, Control_c, 0, 64, 93
1, 610958, Control_c, 0, 64, 93
1, 610973, Control_c, 0, 64, 94
1, 610988, Control_c, 0, 64, 94
1, 611003, Control_c, 0, 64, 95
1, 611033, Control_c, 0, 64, 97
1, 611277, Control_c, 0, 64, 95
1, 611279, Note_on_c, 0, 61, 34
1, 611292, Control_c, 0, 64, 93
1, 611307, Control_c, 0, 64, 91
1, 611322, Control_c, 0, 64, 88
1, 611337, Control_c, 0, 64, 84
1, 611352, Control_c, 0, 64, 78
1, 611367, Control_c, 0, 64, 70
1, 611382, Control_c, 0, 64, 62
1, 611397, Control_c, 0, 64, 52
1, 611412, Control_c, 0, 64, 45
1, 611426, Control_c, 0, 64, 46
1, 611441, Control_c, 0, 64, 48
1, 611456, Control_c, 0, 64, 51
1, 611471, Control_c, 0, 64, 55
1, 611485, Control_c, 0, 64, 59
1, 611500, Control_c, 0, 64, 63
1, 611515, Control_c, 0, 64, 68
1, 611530, Control_c, 0, 64, 73
1, 611545, Control_c, 0, 64, 79
1, 611561, Control_c, 0, 64, 83
1, 611575, Control_c, 0, 64, 86
1, 611590, Control_c, 0, 64, 88
1, 611605, Control_c, 0, 64, 90
1, 611620, Control_c, 0, 64, 93
1, 611635, Control_c, 0, 64, 96
1, 611649, Control_c, 0, 64, 98
1, 611679, Control_c, 0, 64, 100
1, 611708, Control_c, 0, 64, 103
1, 611723, Control_c, 0, 64, 105
1, 611738, Control_c, 0, 64, 107
1, 611764, Note_on_c, 0, 49, 32
1, 611802, Note_off_c, 0, 61, 36
1, 611812, Control_c, 0, 64, 109
1, 611820, Note_off_c, 0, 85, 45
1, 611828, Note_off_c, 0, 49, 43
1, 611830, Note_off_c, 0, 81, 58
1, 611867, Note_off_c, 0, 78, 38
1, 611896, Note_off_c, 0, 73, 41
1, 612169, Note_on_c, 0, 81, 57
1, 612263, Control_c, 0, 64, 104
1, 612278, Control_c, 0, 64, 93
1, 612291, Note_off_c, 0, 81, 40
1, 612293, Control_c, 0, 64, 81
1, 612306, Note_on_c, 0, 85, 47
1, 612307, Note_on_c, 0, 80, 45
1, 612307, Control_c, 0, 64, 69
1, 612309, Note_on_c, 0, 37, 29
1, 612318, Note_on_c, 0, 73, 39
1, 612322, Control_c, 0, 64, 59
1, 612337, Control_c, 0, 64, 48
1, 612346, Note_on_c, 0, 77, 28
1, 612353, Control_c, 0, 64, 50
1, 612368, Control_c, 0, 64, 56
1, 612383, Control_c, 0, 64, 59
1, 612397, Control_c, 0, 64, 63
1, 612412, Control_c, 0, 64, 67
1, 612425, Note_off_c, 0, 37, 35
1, 612427, Control_c, 0, 64, 73
1, 612442, Control_c, 0, 64, 80
1, 612457, Control_c, 0, 64, 86
1, 612471, Control_c, 0, 64, 90
1, 612486, Control_c, 0, 64, 93
1, 612501, Control_c, 0, 64, 95
1, 612516, Control_c, 0, 64, 98
1, 612530, Control_c, 0, 64, 101
1, 612548, Note_off_c, 0, 85, 33
1, 612558, Note_off_c, 0, 73, 41
1, 612560, Control_c, 0, 64, 105
1, 612562, Note_off_c, 0, 80, 54
1, 612590, Control_c, 0, 64, 108
1, 612595, Note_off_c, 0, 77, 42
1, 612678, Control_c, 0, 64, 110
1, 612842, Note_on_c, 0, 80, 49
1, 612844, Note_on_c, 0, 61, 39
1, 612848, Note_on_c, 0, 85, 42
1, 612849, Note_on_c, 0, 73, 35
1, 612895, Note_on_c, 0, 77, 16
1, 613164, Note_off_c, 0, 80, 38
1, 613197, Note_off_c, 0, 85, 38
1, 613230, Note_on_c, 0, 81, 57
1, 613233, Note_off_c, 0, 73, 40
1, 613234, Note_off_c, 0, 77, 26
1, 613279, Control_c, 0, 64, 101
1, 613290, Note_off_c, 0, 81, 42
1, 613294, Control_c, 0, 64, 87
1, 613309, Control_c, 0, 64, 74
1, 613311, Note_on_c, 0, 85, 57
1, 613317, Note_on_c, 0, 80, 55
1, 613320, Note_on_c, 0, 49, 34
1, 613322, Note_off_c, 0, 61, 36
1, 613324, Control_c, 0, 64, 63
1, 613339, Control_c, 0, 64, 52
1, 613349, Note_on_c, 0, 73, 39
1, 613353, Control_c, 0, 64, 54
1, 613367, Note_on_c, 0, 77, 30
1, 613368, Control_c, 0, 64, 57
1, 613383, Control_c, 0, 64, 61
1, 613398, Control_c, 0, 64, 64
1, 613413, Control_c, 0, 64, 69
1, 613417, Note_off_c, 0, 49, 37
1, 613427, Control_c, 0, 64, 77
1, 613442, Control_c, 0, 64, 84
1, 613457, Control_c, 0, 64, 90
1, 613479, Control_c, 0, 64, 92
1, 613494, Control_c, 0, 64, 93
1, 613509, Control_c, 0, 64, 94
1, 613524, Control_c, 0, 64, 97
1, 613539, Control_c, 0, 64, 99
1, 613545, Note_off_c, 0, 85, 32
1, 613557, Note_off_c, 0, 73, 41
1, 613560, Note_off_c, 0, 80, 61
1, 613568, Control_c, 0, 64, 101
1, 613575, Note_off_c, 0, 77, 39
1, 613598, Control_c, 0, 64, 104
1, 613820, Control_c, 0, 64, 98
1, 613823, Note_on_c, 0, 42, 33
1, 613835, Control_c, 0, 64, 88
1, 613850, Control_c, 0, 64, 77
1, 613856, Note_on_c, 0, 73, 33
1, 613857, Note_on_c, 0, 85, 41
1, 613862, Note_on_c, 0, 81, 39
1, 613865, Control_c, 0, 64, 65
1, 613868, Note_on_c, 0, 78, 31
1, 613879, Control_c, 0, 64, 57
1, 613894, Control_c, 0, 64, 55
1, 613909, Control_c, 0, 64, 56
1, 613924, Control_c, 0, 64, 59
1, 613939, Control_c, 0, 64, 61
1, 613954, Control_c, 0, 64, 64
1, 613969, Control_c, 0, 64, 69
1, 613984, Control_c, 0, 64, 75
1, 613992, Note_off_c, 0, 42, 38
1, 613999, Control_c, 0, 64, 82
1, 614014, Control_c, 0, 64, 87
1, 614029, Control_c, 0, 64, 90
1, 614043, Control_c, 0, 64, 91
1, 614058, Control_c, 0, 64, 93
1, 614073, Control_c, 0, 64, 95
1, 614088, Control_c, 0, 64, 95
1, 614117, Control_c, 0, 64, 97
1, 614333, Control_c, 0, 64, 95
1, 614348, Control_c, 0, 64, 91
1, 614363, Control_c, 0, 64, 85
1, 614377, Control_c, 0, 64, 78
1, 614392, Control_c, 0, 64, 71
1, 614404, Note_on_c, 0, 61, 27
1, 614407, Control_c, 0, 64, 65
1, 614421, Control_c, 0, 64, 60
1, 614436, Control_c, 0, 64, 58
1, 614451, Control_c, 0, 64, 59
1, 614466, Control_c, 0, 64, 60
1, 614481, Control_c, 0, 64, 62
1, 614495, Control_c, 0, 64, 64
1, 614510, Control_c, 0, 64, 66
1, 614525, Control_c, 0, 64, 71
1, 614540, Control_c, 0, 64, 78
1, 614555, Control_c, 0, 64, 83
1, 614569, Control_c, 0, 64, 85
1, 614584, Control_c, 0, 64, 86
1, 614599, Control_c, 0, 64, 87
1, 614613, Control_c, 0, 64, 88
1, 614628, Control_c, 0, 64, 88
1, 614643, Control_c, 0, 64, 90
1, 614658, Control_c, 0, 64, 91
1, 614673, Control_c, 0, 64, 91
1, 614688, Control_c, 0, 64, 92
1, 614709, Note_off_c, 0, 85, 40
1, 614803, Note_off_c, 0, 73, 24
1, 614871, Note_off_c, 0, 61, 31
1, 614892, Note_off_c, 0, 81, 42
1, 614906, Note_on_c, 0, 49, 25
1, 614961, Note_off_c, 0, 78, 27
1, 614992, Note_off_c, 0, 49, 41
1, 615278, Note_on_c, 0, 81, 38
1, 615391, Control_c, 0, 64, 91
1, 615406, Control_c, 0, 64, 90
1, 615421, Control_c, 0, 64, 87
1, 615424, Note_off_c, 0, 81, 35
1, 615435, Control_c, 0, 64, 82
1, 615449, Note_on_c, 0, 80, 37
1, 615450, Control_c, 0, 64, 74
1, 615452, Note_on_c, 0, 37, 32
1, 615465, Control_c, 0, 64, 66
1, 615478, Note_on_c, 0, 77, 30
1, 615480, Control_c, 0, 64, 59
1, 615483, Note_on_c, 0, 73, 22
1, 615495, Control_c, 0, 64, 53
1, 615510, Control_c, 0, 64, 53
1, 615524, Control_c, 0, 64, 55
1, 615540, Control_c, 0, 64, 57
1, 615555, Control_c, 0, 64, 60
1, 615570, Control_c, 0, 64, 63
1, 615585, Control_c, 0, 64, 67
1, 615600, Control_c, 0, 64, 72
1, 615614, Control_c, 0, 64, 78
1, 615629, Control_c, 0, 64, 81
1, 615630, Note_off_c, 0, 37, 37
1, 615644, Control_c, 0, 64, 83
1, 615658, Control_c, 0, 64, 84
1, 615673, Control_c, 0, 64, 85
1, 615688, Control_c, 0, 64, 85
1, 615740, Control_c, 0, 64, 86
1, 615764, Note_off_c, 0, 80, 35
1, 615770, Control_c, 0, 64, 86
1, 615785, Note_off_c, 0, 77, 41
1, 615786, Note_off_c, 0, 73, 40
1, 615918, Control_c, 0, 64, 86
1, 615933, Control_c, 0, 64, 85
1, 615962, Control_c, 0, 64, 84
1, 615977, Control_c, 0, 64, 83
1, 615991, Control_c, 0, 64, 81
1, 616004, Note_on_c, 0, 80, 38
1, 616006, Control_c, 0, 64, 78
1, 616011, Note_on_c, 0, 61, 30
1, 616019, Note_on_c, 0, 73, 31
1, 616021, Control_c, 0, 64, 74
1, 616036, Note_on_c, 0, 77, 20
1, 616036, Control_c, 0, 64, 69
1, 616051, Control_c, 0, 64, 64
1, 616065, Control_c, 0, 64, 58
1, 616080, Control_c, 0, 64, 50
1, 616095, Control_c, 0, 64, 47
1, 616110, Control_c, 0, 64, 47
1, 616125, Control_c, 0, 64, 49
1, 616139, Control_c, 0, 64, 51
1, 616154, Control_c, 0, 64, 55
1, 616169, Control_c, 0, 64, 60
1, 616184, Control_c, 0, 64, 64
1, 616199, Control_c, 0, 64, 68
1, 616214, Control_c, 0, 64, 73
1, 616229, Control_c, 0, 64, 76
1, 616244, Control_c, 0, 64, 77
1, 616258, Control_c, 0, 64, 78
1, 616273, Control_c, 0, 64, 79
1, 616288, Control_c, 0, 64, 79
1, 616303, Control_c, 0, 64, 80
1, 616318, Control_c, 0, 64, 80
1, 616333, Control_c, 0, 64, 81
1, 616335, Note_off_c, 0, 73, 41
1, 616348, Control_c, 0, 64, 81
1, 616363, Note_off_c, 0, 80, 31
1, 616363, Control_c, 0, 64, 82
1, 616364, Note_off_c, 0, 77, 37
1, 616378, Control_c, 0, 64, 82
1, 616386, Note_on_c, 0, 81, 39
1, 616437, Control_c, 0, 64, 82
1, 616452, Control_c, 0, 64, 79
1, 616456, Note_off_c, 0, 61, 34
1, 616475, Control_c, 0, 64, 73
1, 616476, Note_off_c, 0, 81, 34
1, 616489, Control_c, 0, 64, 67
1, 616498, Note_on_c, 0, 80, 42
1, 616504, Control_c, 0, 64, 61
1, 616518, Note_on_c, 0, 49, 22
1, 616519, Control_c, 0, 64, 53
1, 616523, Note_on_c, 0, 77, 25
1, 616533, Note_on_c, 0, 73, 29
1, 616534, Control_c, 0, 64, 50
1, 616549, Control_c, 0, 64, 52
1, 616563, Control_c, 0, 64, 55
1, 616578, Control_c, 0, 64, 57
1, 616593, Control_c, 0, 64, 60
1, 616608, Control_c, 0, 64, 63
1, 616622, Control_c, 0, 64, 66
1, 616637, Control_c, 0, 64, 70
1, 616652, Control_c, 0, 64, 75
1, 616658, Note_off_c, 0, 80, 56
1, 616667, Control_c, 0, 64, 78
1, 616682, Control_c, 0, 64, 79
1, 616688, Note_off_c, 0, 49, 42
1, 616695, Note_off_c, 0, 77, 42
1, 616697, Control_c, 0, 64, 80
1, 616712, Control_c, 0, 64, 81
1, 616726, Control_c, 0, 64, 82
1, 616734, Note_off_c, 0, 73, 41
1, 616741, Control_c, 0, 64, 83
1, 616756, Control_c, 0, 64, 84
1, 616771, Control_c, 0, 64, 85
1, 616786, Control_c, 0, 64, 85
1, 616801, Control_c, 0, 64, 86
1, 616815, Control_c, 0, 64, 87
1, 616830, Control_c, 0, 64, 87
1, 616875, Control_c, 0, 64, 88
1, 617067, Control_c, 0, 64, 87
1, 617082, Control_c, 0, 64, 86
1, 617096, Control_c, 0, 64, 84
1, 617099, Note_on_c, 0, 78, 37
1, 617103, Note_on_c, 0, 30, 21
1, 617108, Note_on_c, 0, 69, 27
1, 617111, Control_c, 0, 64, 80
1, 617120, Note_on_c, 0, 73, 29
1, 617126, Control_c, 0, 64, 75
1, 617142, Control_c, 0, 64, 68
1, 617157, Control_c, 0, 64, 61
1, 617172, Control_c, 0, 64, 54
1, 617186, Control_c, 0, 64, 52
1, 617201, Control_c, 0, 64, 54
1, 617224, Control_c, 0, 64, 57
1, 617239, Control_c, 0, 64, 59
1, 617253, Control_c, 0, 64, 62
1, 617267, Note_off_c, 0, 30, 40
1, 617268, Control_c, 0, 64, 65
1, 617283, Control_c, 0, 64, 68
1, 617298, Control_c, 0, 64, 73
1, 617312, Control_c, 0, 64, 76
1, 617327, Control_c, 0, 64, 79
1, 617342, Control_c, 0, 64, 80
1, 617357, Control_c, 0, 64, 81
1, 617372, Control_c, 0, 64, 82
1, 617386, Control_c, 0, 64, 83
1, 617401, Control_c, 0, 64, 84
1, 617431, Control_c, 0, 64, 84
1, 617445, Control_c, 0, 64, 85
1, 617723, Note_on_c, 0, 54, 15
1, 617771, Control_c, 0, 64, 84
1, 617786, Control_c, 0, 64, 81
1, 617801, Control_c, 0, 64, 77
1, 617816, Control_c, 0, 64, 71
1, 617831, Control_c, 0, 64, 66
1, 617845, Control_c, 0, 64, 63
1, 617860, Control_c, 0, 64, 63
1, 617875, Control_c, 0, 64, 65
1, 617890, Control_c, 0, 64, 67
1, 617905, Control_c, 0, 64, 70
1, 617919, Control_c, 0, 64, 75
1, 617935, Control_c, 0, 64, 83
1, 617950, Control_c, 0, 64, 89
1, 617972, Control_c, 0, 64, 93
1, 617987, Control_c, 0, 64, 95
1, 618017, Control_c, 0, 64, 98
1, 618040, Note_off_c, 0, 78, 50
1, 618047, Control_c, 0, 64, 101
1, 618108, Note_off_c, 0, 69, 42
1, 618136, Note_off_c, 0, 73, 44
1, 618259, Note_on_c, 0, 42, 30
1, 618368, Note_off_c, 0, 54, 38
1, 618426, Note_off_c, 0, 42, 45
1, 618855, Control_c, 0, 64, 96
1, 618864, Note_on_c, 0, 30, 23
1, 618870, Control_c, 0, 64, 91
1, 618882, Note_on_c, 0, 66, 31
1, 618885, Control_c, 0, 64, 84
1, 618891, Note_on_c, 0, 59, 25
1, 618899, Control_c, 0, 64, 75
1, 618909, Note_on_c, 0, 62, 23
1, 618914, Control_c, 0, 64, 67
1, 618929, Control_c, 0, 64, 59
1, 618944, Control_c, 0, 64, 53
1, 618959, Control_c, 0, 64, 55
1, 618973, Control_c, 0, 64, 58
1, 618988, Control_c, 0, 64, 61
1, 619003, Control_c, 0, 64, 63
1, 619017, Control_c, 0, 64, 66
1, 619030, Note_off_c, 0, 30, 41
1, 619032, Control_c, 0, 64, 70
1, 619047, Control_c, 0, 64, 75
1, 619062, Control_c, 0, 64, 79
1, 619077, Control_c, 0, 64, 80
1, 619091, Control_c, 0, 64, 80
1, 619136, Control_c, 0, 64, 81
1, 619314, Control_c, 0, 64, 80
1, 619328, Control_c, 0, 64, 79
1, 619343, Control_c, 0, 64, 77
1, 619358, Control_c, 0, 64, 73
1, 619373, Control_c, 0, 64, 69
1, 619388, Control_c, 0, 64, 64
1, 619402, Control_c, 0, 64, 58
1, 619417, Control_c, 0, 64, 53
1, 619432, Control_c, 0, 64, 53
1, 619447, Control_c, 0, 64, 56
1, 619452, Note_on_c, 0, 54, 30
1, 619469, Control_c, 0, 64, 58
1, 619484, Control_c, 0, 64, 60
1, 619499, Control_c, 0, 64, 63
1, 619514, Control_c, 0, 64, 67
1, 619529, Control_c, 0, 64, 73
1, 619544, Control_c, 0, 64, 80
1, 619559, Control_c, 0, 64, 84
1, 619573, Control_c, 0, 64, 86
1, 619588, Control_c, 0, 64, 88
1, 619603, Control_c, 0, 64, 90
1, 619618, Control_c, 0, 64, 92
1, 619633, Control_c, 0, 64, 93
1, 619648, Control_c, 0, 64, 94
1, 619678, Control_c, 0, 64, 94
1, 619692, Control_c, 0, 64, 95
1, 619694, Note_off_c, 0, 66, 37
1, 619737, Control_c, 0, 64, 95
1, 619750, Note_off_c, 0, 59, 42
1, 619832, Note_off_c, 0, 62, 41
1, 619982, Note_on_c, 0, 42, 31
1, 620065, Note_off_c, 0, 54, 33
1, 620183, Note_off_c, 0, 42, 43
1, 620515, Control_c, 0, 64, 95
1, 620560, Control_c, 0, 64, 94
1, 620575, Control_c, 0, 64, 94
1, 620582, Note_on_c, 0, 30, 22
1, 620589, Control_c, 0, 64, 93
1, 620594, Note_on_c, 0, 66, 45
1, 620604, Control_c, 0, 64, 90
1, 620605, Note_on_c, 0, 57, 32
1, 620619, Control_c, 0, 64, 87
1, 620624, Note_on_c, 0, 61, 29
1, 620634, Control_c, 0, 64, 79
1, 620649, Control_c, 0, 64, 70
1, 620663, Control_c, 0, 64, 62
1, 620678, Control_c, 0, 64, 52
1, 620693, Control_c, 0, 64, 50
1, 620708, Control_c, 0, 64, 53
1, 620723, Control_c, 0, 64, 57
1, 620737, Control_c, 0, 64, 60
1, 620751, Note_off_c, 0, 30, 40
1, 620752, Control_c, 0, 64, 64
1, 620767, Control_c, 0, 64, 68
1, 620781, Control_c, 0, 64, 73
1, 620796, Control_c, 0, 64, 78
1, 620811, Control_c, 0, 64, 81
1, 620826, Control_c, 0, 64, 81
1, 620855, Control_c, 0, 64, 82
1, 620915, Control_c, 0, 64, 82
1, 621160, Control_c, 0, 64, 82
1, 621175, Control_c, 0, 64, 81
1, 621188, Note_on_c, 0, 54, 29
1, 621190, Control_c, 0, 64, 80
1, 621204, Control_c, 0, 64, 77
1, 621219, Control_c, 0, 64, 74
1, 621234, Control_c, 0, 64, 67
1, 621249, Control_c, 0, 64, 61
1, 621264, Control_c, 0, 64, 52
1, 621278, Control_c, 0, 64, 46
1, 621293, Control_c, 0, 64, 47
1, 621308, Control_c, 0, 64, 49
1, 621323, Control_c, 0, 64, 52
1, 621338, Control_c, 0, 64, 56
1, 621353, Control_c, 0, 64, 60
1, 621368, Control_c, 0, 64, 64
1, 621383, Control_c, 0, 64, 68
1, 621398, Control_c, 0, 64, 73
1, 621412, Control_c, 0, 64, 77
1, 621427, Control_c, 0, 64, 79
1, 621442, Control_c, 0, 64, 80
1, 621457, Control_c, 0, 64, 80
1, 621472, Control_c, 0, 64, 81
1, 621486, Note_off_c, 0, 66, 32
1, 621486, Control_c, 0, 64, 82
1, 621501, Control_c, 0, 64, 82
1, 621516, Control_c, 0, 64, 83
1, 621579, Note_off_c, 0, 57, 37
1, 621619, Control_c, 0, 64, 83
1, 621727, Note_off_c, 0, 54, 35
1, 621740, Note_on_c, 0, 42, 26
1, 621827, Note_off_c, 0, 61, 32
1, 621863, Note_off_c, 0, 42, 36
1, 622427, Control_c, 0, 64, 83
1, 622442, Control_c, 0, 64, 82
1, 622465, Control_c, 0, 64, 80
1, 622466, Note_on_c, 0, 30, 16
1, 622470, Note_on_c, 0, 66, 33
1, 622476, Note_on_c, 0, 56, 23
1, 622480, Control_c, 0, 64, 76
1, 622494, Control_c, 0, 64, 70
1, 622503, Note_on_c, 0, 59, 20
1, 622509, Control_c, 0, 64, 63
1, 622524, Control_c, 0, 64, 52
1, 622539, Control_c, 0, 64, 42
1, 622554, Control_c, 0, 64, 40
1, 622568, Control_c, 0, 64, 42
1, 622583, Control_c, 0, 64, 48
1, 622598, Control_c, 0, 64, 53
1, 622613, Control_c, 0, 64, 59
1, 622628, Control_c, 0, 64, 65
1, 622635, Note_off_c, 0, 30, 22
1, 622642, Control_c, 0, 64, 69
1, 622657, Control_c, 0, 64, 74
1, 622672, Control_c, 0, 64, 77
1, 622686, Control_c, 0, 64, 77
1, 622716, Control_c, 0, 64, 78
1, 622732, Control_c, 0, 64, 78
1, 622747, Control_c, 0, 64, 79
1, 622762, Control_c, 0, 64, 80
1, 622777, Control_c, 0, 64, 81
1, 622806, Control_c, 0, 64, 81
1, 622821, Control_c, 0, 64, 82
1, 622836, Control_c, 0, 64, 82
1, 622851, Control_c, 0, 64, 83
1, 622895, Control_c, 0, 64, 83
1, 622924, Control_c, 0, 64, 84
1, 623043, Control_c, 0, 64, 83
1, 623058, Control_c, 0, 64, 81
1, 623073, Control_c, 0, 64, 78
1, 623088, Control_c, 0, 64, 73
1, 623102, Control_c, 0, 64, 68
1, 623112, Note_on_c, 0, 54, 17
1, 623117, Control_c, 0, 64, 62
1, 623132, Control_c, 0, 64, 53
1, 623147, Control_c, 0, 64, 46
1, 623162, Control_c, 0, 64, 41
1, 623176, Control_c, 0, 64, 41
1, 623213, Control_c, 0, 64, 42
1, 623228, Control_c, 0, 64, 48
1, 623243, Control_c, 0, 64, 54
1, 623258, Control_c, 0, 64, 59
1, 623273, Control_c, 0, 64, 63
1, 623287, Control_c, 0, 64, 66
1, 623302, Control_c, 0, 64, 71
1, 623317, Control_c, 0, 64, 77
1, 623332, Control_c, 0, 64, 82
1, 623347, Control_c, 0, 64, 84
1, 623362, Control_c, 0, 64, 85
1, 623377, Control_c, 0, 64, 86
1, 623391, Control_c, 0, 64, 89
1, 623406, Control_c, 0, 64, 91
1, 623421, Control_c, 0, 64, 93
1, 623436, Control_c, 0, 64, 94
1, 623451, Control_c, 0, 64, 95
1, 623465, Control_c, 0, 64, 95
1, 623495, Control_c, 0, 64, 96
1, 623651, Note_on_c, 0, 42, 23
1, 623749, Note_off_c, 0, 54, 37
1, 623764, Note_off_c, 0, 59, 41
1, 623774, Note_off_c, 0, 66, 36
1, 623797, Note_off_c, 0, 56, 40
1, 623798, Note_off_c, 0, 42, 43
1, 624331, Note_on_c, 0, 66, 31
1, 624334, Control_c, 0, 64, 95
1, 624337, Note_on_c, 0, 54, 23
1, 624339, Note_on_c, 0, 30, 22
1, 624349, Control_c, 0, 64, 89
1, 624355, Note_on_c, 0, 57, 15
1, 624364, Control_c, 0, 64, 80
1, 624378, Control_c, 0, 64, 71
1, 624393, Control_c, 0, 64, 62
1, 624408, Control_c, 0, 64, 50
1, 624423, Control_c, 0, 64, 45
1, 624438, Control_c, 0, 64, 50
1, 624453, Control_c, 0, 64, 54
1, 624468, Control_c, 0, 64, 58
1, 624483, Control_c, 0, 64, 63
1, 624492, Note_off_c, 0, 30, 38
1, 624498, Control_c, 0, 64, 67
1, 624512, Control_c, 0, 64, 74
1, 624527, Control_c, 0, 64, 81
1, 624542, Control_c, 0, 64, 84
1, 624556, Control_c, 0, 64, 85
1, 624571, Control_c, 0, 64, 86
1, 624586, Control_c, 0, 64, 87
1, 624601, Control_c, 0, 64, 87
1, 624616, Control_c, 0, 64, 88
1, 624660, Control_c, 0, 64, 88
1, 624689, Control_c, 0, 64, 89
1, 624721, Note_off_c, 0, 54, 41
1, 624742, Control_c, 0, 64, 89
1, 624786, Control_c, 0, 64, 90
1, 624921, Note_off_c, 0, 57, 36
1, 624963, Control_c, 0, 64, 90
1, 625060, Note_off_c, 0, 66, 38
1, 625082, Note_on_c, 0, 54, 19
1, 625142, Control_c, 0, 64, 91
1, 625172, Control_c, 0, 64, 91
1, 625231, Control_c, 0, 64, 92
1, 625261, Control_c, 0, 64, 92
1, 625291, Control_c, 0, 64, 93
1, 625335, Control_c, 0, 64, 93
1, 625365, Control_c, 0, 64, 94
1, 625379, Control_c, 0, 64, 95
1, 625394, Control_c, 0, 64, 95
1, 625409, Control_c, 0, 64, 96
1, 625520, Control_c, 0, 64, 98
1, 625855, Note_on_c, 0, 42, 22
1, 625890, Control_c, 0, 64, 100
1, 626009, Control_c, 0, 64, 102
1, 626045, Note_off_c, 0, 54, 39
1, 626068, Note_off_c, 0, 42, 42
1, 626084, Control_c, 0, 64, 105
1, 626113, Control_c, 0, 64, 107
1, 626173, Control_c, 0, 64, 109
1, 626269, Control_c, 0, 64, 111
1, 626402, Control_c, 0, 64, 113
1, 626817, Control_c, 0, 64, 116
1, 627018, Note_on_c, 0, 65, 32
1, 627576, Note_on_c, 0, 66, 36
1, 627729, Note_off_c, 0, 65, 40
1, 627951, Note_off_c, 0, 66, 40
1, 628000, Note_on_c, 0, 73, 35
1, 628290, Note_off_c, 0, 73, 53
1, 628334, Note_on_c, 0, 72, 40
1, 628604, Note_on_c, 0, 74, 40
1, 628684, Note_off_c, 0, 72, 21
1, 628787, Note_off_c, 0, 74, 43
1, 628810, Note_on_c, 0, 73, 42
1, 628993, Note_off_c, 0, 73, 40
1, 629036, Note_on_c, 0, 78, 45
1, 629167, Control_c, 0, 64, 113
1, 629209, Note_off_c, 0, 78, 61
1, 629219, Control_c, 0, 64, 111
1, 629248, Note_on_c, 0, 77, 55
1, 629293, Control_c, 0, 64, 109
1, 629367, Control_c, 0, 64, 107
1, 629426, Control_c, 0, 64, 104
1, 629456, Control_c, 0, 64, 102
1, 629467, Note_on_c, 0, 80, 51
1, 629485, Control_c, 0, 64, 100
1, 629530, Control_c, 0, 64, 98
1, 629583, Note_off_c, 0, 77, 40
1, 629589, Control_c, 0, 64, 96
1, 629604, Control_c, 0, 64, 95
1, 629619, Control_c, 0, 64, 95
1, 629634, Control_c, 0, 64, 94
1, 629663, Note_on_c, 0, 78, 63
1, 629663, Control_c, 0, 64, 94
1, 629678, Control_c, 0, 64, 93
1, 629693, Control_c, 0, 64, 92
1, 629708, Control_c, 0, 64, 91
1, 629720, Note_off_c, 0, 80, 53
1, 629723, Control_c, 0, 64, 91
1, 629737, Control_c, 0, 64, 90
1, 629752, Control_c, 0, 64, 90
1, 629767, Control_c, 0, 64, 89
1, 629782, Control_c, 0, 64, 89
1, 629796, Control_c, 0, 64, 88
1, 629826, Control_c, 0, 64, 88
1, 629856, Control_c, 0, 64, 87
1, 629885, Control_c, 0, 64, 87
1, 629900, Control_c, 0, 64, 86
1, 629921, Note_on_c, 0, 83, 56
1, 629931, Control_c, 0, 64, 86
1, 629968, Note_off_c, 0, 78, 58
1, 629968, Control_c, 0, 64, 85
1, 630027, Control_c, 0, 64, 85
1, 630072, Control_c, 0, 64, 84
1, 630101, Control_c, 0, 64, 84
1, 630161, Control_c, 0, 64, 83
1, 630190, Control_c, 0, 64, 83
1, 630205, Control_c, 0, 64, 82
1, 630215, Note_on_c, 0, 81, 52
1, 630219, Control_c, 0, 64, 82
1, 630234, Control_c, 0, 64, 81
1, 630245, Note_off_c, 0, 83, 56
1, 630264, Control_c, 0, 64, 81
1, 630279, Control_c, 0, 64, 80
1, 630293, Control_c, 0, 64, 80
1, 630308, Control_c, 0, 64, 79
1, 630323, Control_c, 0, 64, 79
1, 630338, Control_c, 0, 64, 78
1, 630353, Control_c, 0, 64, 78
1, 630367, Control_c, 0, 64, 77
1, 630397, Control_c, 0, 64, 77
1, 630412, Control_c, 0, 64, 76
1, 630427, Control_c, 0, 64, 75
1, 630442, Control_c, 0, 64, 75
1, 630457, Control_c, 0, 64, 74
1, 630471, Control_c, 0, 64, 73
1, 630486, Control_c, 0, 64, 72
1, 630501, Control_c, 0, 64, 70
1, 630516, Control_c, 0, 64, 70
1, 630531, Control_c, 0, 64, 69
1, 630560, Control_c, 0, 64, 68
1, 630575, Control_c, 0, 64, 68
1, 630605, Control_c, 0, 64, 67
1, 630619, Control_c, 0, 64, 67
1, 630625, Note_on_c, 0, 86, 40
1, 630634, Control_c, 0, 64, 66
1, 630664, Control_c, 0, 64, 66
1, 630791, Control_c, 0, 64, 65
1, 630794, Note_off_c, 0, 81, 53
1, 630865, Control_c, 0, 64, 65
1, 630880, Control_c, 0, 64, 64
1, 630895, Control_c, 0, 64, 64
1, 630910, Control_c, 0, 64, 63
1, 630969, Control_c, 0, 64, 63
1, 631042, Control_c, 0, 64, 62
1, 631087, Control_c, 0, 64, 62
1, 631116, Control_c, 0, 64, 61
1, 631123, Note_on_c, 0, 85, 37
1, 631131, Control_c, 0, 64, 61
1, 631146, Control_c, 0, 64, 60
1, 631176, Control_c, 0, 64, 60
1, 631205, Note_off_c, 0, 86, 35
1, 631249, Control_c, 0, 64, 59
1, 631398, Control_c, 0, 64, 59
1, 631480, Note_on_c, 0, 83, 39
1, 631553, Note_off_c, 0, 85, 37
1, 631728, Note_off_c, 0, 83, 56
1, 631740, Note_on_c, 0, 81, 47
1, 631952, Note_off_c, 0, 81, 56
1, 631971, Note_on_c, 0, 80, 50
1, 632171, Note_on_c, 0, 78, 55
1, 632194, Note_off_c, 0, 80, 51
1, 632400, Note_on_c, 0, 76, 49
1, 632472, Note_off_c, 0, 78, 37
1, 632596, Note_off_c, 0, 76, 61
1, 632611, Note_on_c, 0, 74, 55
1, 632812, Note_off_c, 0, 74, 54
1, 632835, Note_on_c, 0, 73, 47
1, 632910, Control_c, 0, 64, 58
1, 633067, Note_on_c, 0, 71, 44
1, 633122, Note_off_c, 0, 73, 35
1, 633335, Note_off_c, 0, 71, 60
1, 633356, Note_on_c, 0, 69, 38
1, 633378, Control_c, 0, 64, 59
1, 633393, Control_c, 0, 64, 60
1, 633408, Control_c, 0, 64, 60
1, 633423, Control_c, 0, 64, 61
1, 633437, Control_c, 0, 64, 63
1, 633452, Control_c, 0, 64, 65
1, 633467, Control_c, 0, 64, 69
1, 633482, Control_c, 0, 64, 76
1, 633497, Control_c, 0, 64, 83
1, 633511, Control_c, 0, 64, 90
1, 633526, Control_c, 0, 64, 97
1, 633541, Control_c, 0, 64, 103
1, 633554, Note_off_c, 0, 69, 53
1, 633556, Control_c, 0, 64, 107
1, 633570, Control_c, 0, 64, 110
1, 633580, Note_on_c, 0, 68, 46
1, 633585, Control_c, 0, 64, 115
1, 633600, Control_c, 0, 64, 120
1, 633615, Control_c, 0, 64, 122
1, 633761, Note_on_c, 0, 66, 50
1, 633762, Note_on_c, 0, 56, 35
1, 633765, Note_off_c, 0, 68, 35
1, 633785, Control_c, 0, 64, 120
1, 633800, Control_c, 0, 64, 116
1, 633815, Control_c, 0, 64, 112
1, 633830, Control_c, 0, 64, 108
1, 633843, Note_on_c, 0, 59, 25
1, 633844, Control_c, 0, 64, 104
1, 633859, Control_c, 0, 64, 99
1, 633874, Control_c, 0, 64, 95
1, 633889, Control_c, 0, 64, 91
1, 633904, Control_c, 0, 64, 87
1, 633912, Note_on_c, 0, 62, 34
1, 633920, Control_c, 0, 64, 82
1, 633935, Control_c, 0, 64, 77
1, 633949, Control_c, 0, 64, 71
1, 633964, Control_c, 0, 64, 64
1, 633974, Note_on_c, 0, 65, 44
1, 633979, Control_c, 0, 64, 55
1, 633993, Control_c, 0, 64, 41
1, 634008, Control_c, 0, 64, 37
1, 634038, Control_c, 0, 64, 38
1, 634052, Note_off_c, 0, 66, 35
1, 634053, Control_c, 0, 64, 40
1, 634067, Control_c, 0, 64, 44
1, 634082, Control_c, 0, 64, 50
1, 634097, Control_c, 0, 64, 56
1, 634112, Control_c, 0, 64, 61
1, 634126, Note_off_c, 0, 65, 58
1, 634127, Control_c, 0, 64, 65
1, 634141, Control_c, 0, 64, 69
1, 634148, Note_on_c, 0, 64, 40
1, 634156, Control_c, 0, 64, 74
1, 634171, Control_c, 0, 64, 78
1, 634186, Control_c, 0, 64, 82
1, 634201, Control_c, 0, 64, 83
1, 634215, Control_c, 0, 64, 85
1, 634230, Control_c, 0, 64, 86
1, 634245, Control_c, 0, 64, 87
1, 634260, Control_c, 0, 64, 87
1, 634272, Note_off_c, 0, 64, 52
1, 634275, Control_c, 0, 64, 88
1, 634283, Note_on_c, 0, 65, 46
1, 634349, Control_c, 0, 64, 87
1, 634352, Note_off_c, 0, 65, 60
1, 634364, Control_c, 0, 64, 84
1, 634378, Control_c, 0, 64, 75
1, 634394, Control_c, 0, 64, 66
1, 634401, Note_on_c, 0, 71, 44
1, 634409, Control_c, 0, 64, 57
1, 634424, Control_c, 0, 64, 46
1, 634446, Control_c, 0, 64, 46
1, 634461, Control_c, 0, 64, 51
1, 634475, Control_c, 0, 64, 56
1, 634490, Control_c, 0, 64, 62
1, 634505, Control_c, 0, 64, 66
1, 634515, Note_on_c, 0, 70, 54
1, 634520, Control_c, 0, 64, 71
1, 634535, Control_c, 0, 64, 78
1, 634546, Note_off_c, 0, 71, 36
1, 634549, Control_c, 0, 64, 81
1, 634564, Control_c, 0, 64, 82
1, 634571, Note_off_c, 0, 70, 57
1, 634579, Control_c, 0, 64, 83
1, 634594, Control_c, 0, 64, 83
1, 634609, Control_c, 0, 64, 84
1, 634639, Note_on_c, 0, 71, 46
1, 634683, Control_c, 0, 64, 78
1, 634698, Control_c, 0, 64, 70
1, 634713, Control_c, 0, 64, 62
1, 634728, Control_c, 0, 64, 51
1, 634740, Note_on_c, 0, 74, 62
1, 634743, Note_off_c, 0, 71, 56
1, 634743, Control_c, 0, 64, 46
1, 634758, Control_c, 0, 64, 49
1, 634773, Control_c, 0, 64, 55
1, 634788, Control_c, 0, 64, 61
1, 634788, Control_c, 0, 67, 116
1, 634803, Control_c, 0, 64, 65
1, 634803, Control_c, 0, 67, 97
1, 634817, Control_c, 0, 64, 70
1, 634817, Control_c, 0, 67, 84
1, 634832, Control_c, 0, 64, 77
1, 634832, Control_c, 0, 67, 74
1, 634836, Note_off_c, 0, 74, 60
1, 634846, Note_on_c, 0, 73, 62
1, 634847, Control_c, 0, 64, 82
1, 634847, Control_c, 0, 67, 67
1, 634862, Control_c, 0, 64, 85
1, 634862, Control_c, 0, 67, 61
1, 634877, Control_c, 0, 64, 87
1, 634877, Control_c, 0, 67, 56
1, 634891, Control_c, 0, 64, 89
1, 634891, Control_c, 0, 67, 54
1, 634906, Control_c, 0, 64, 92
1, 634906, Control_c, 0, 67, 53
1, 634917, Note_off_c, 0, 73, 61
1, 634921, Control_c, 0, 64, 94
1, 634936, Control_c, 0, 64, 95
1, 634950, Note_on_c, 0, 74, 71
1, 634951, Control_c, 0, 64, 95
1, 635009, Control_c, 0, 64, 93
1, 635024, Control_c, 0, 64, 85
1, 635039, Control_c, 0, 64, 74
1, 635054, Note_off_c, 0, 74, 56
1, 635054, Control_c, 0, 64, 64
1, 635057, Note_on_c, 0, 77, 60
1, 635069, Control_c, 0, 64, 53
1, 635083, Control_c, 0, 64, 48
1, 635098, Control_c, 0, 64, 51
1, 635098, Control_c, 0, 67, 54
1, 635113, Control_c, 0, 64, 55
1, 635128, Control_c, 0, 64, 59
1, 635128, Control_c, 0, 67, 54
1, 635142, Control_c, 0, 64, 64
1, 635157, Control_c, 0, 64, 69
1, 635157, Control_c, 0, 67, 55
1, 635172, Control_c, 0, 64, 79
1, 635177, Note_on_c, 0, 76, 65
1, 635177, Note_off_c, 0, 77, 61
1, 635195, Control_c, 0, 64, 87
1, 635209, Control_c, 0, 64, 91
1, 635224, Control_c, 0, 64, 95
1, 635235, Note_off_c, 0, 76, 48
1, 635239, Control_c, 0, 64, 100
1, 635239, Control_c, 0, 67, 55
1, 635254, Control_c, 0, 64, 106
1, 635254, Control_c, 0, 67, 56
1, 635269, Control_c, 0, 64, 114
1, 635275, Note_on_c, 0, 77, 62
1, 635283, Control_c, 0, 64, 117
1, 635298, Control_c, 0, 67, 56
1, 635313, Control_c, 0, 67, 57
1, 635342, Control_c, 0, 67, 57
1, 635357, Control_c, 0, 64, 104
1, 635357, Control_c, 0, 67, 58
1, 635372, Control_c, 0, 64, 87
1, 635377, Note_off_c, 0, 77, 57
1, 635387, Control_c, 0, 64, 71
1, 635400, Note_on_c, 0, 83, 62
1, 635402, Control_c, 0, 64, 61
1, 635402, Control_c, 0, 67, 58
1, 635417, Control_c, 0, 64, 53
1, 635417, Control_c, 0, 67, 59
1, 635432, Control_c, 0, 64, 55
1, 635447, Control_c, 0, 64, 58
1, 635447, Control_c, 0, 67, 60
1, 635461, Control_c, 0, 64, 62
1, 635461, Control_c, 0, 67, 60
1, 635476, Control_c, 0, 64, 66
1, 635476, Control_c, 0, 67, 61
1, 635491, Control_c, 0, 64, 72
1, 635491, Control_c, 0, 67, 61
1, 635506, Control_c, 0, 64, 82
1, 635506, Control_c, 0, 67, 62
1, 635507, Note_on_c, 0, 82, 64
1, 635521, Control_c, 0, 64, 94
1, 635521, Control_c, 0, 67, 63
1, 635536, Note_off_c, 0, 83, 57
1, 635536, Control_c, 0, 64, 104
1, 635536, Control_c, 0, 67, 63
1, 635551, Control_c, 0, 64, 116
1, 635551, Control_c, 0, 67, 64
1, 635566, Control_c, 0, 64, 127
1, 635566, Control_c, 0, 67, 64
1, 635581, Control_c, 0, 67, 65
1, 635582, Note_off_c, 0, 82, 62
1, 635610, Control_c, 0, 67, 66
1, 635624, Note_on_c, 0, 83, 66
1, 635640, Control_c, 0, 67, 66
1, 635655, Control_c, 0, 67, 67
1, 635670, Control_c, 0, 64, 98
1, 635670, Control_c, 0, 67, 67
1, 635685, Control_c, 0, 64, 75
1, 635685, Control_c, 0, 67, 68
1, 635700, Control_c, 0, 64, 63
1, 635700, Control_c, 0, 67, 69
1, 635714, Control_c, 0, 64, 53
1, 635714, Control_c, 0, 67, 74
1, 635729, Control_c, 0, 64, 51
1, 635729, Control_c, 0, 67, 80
1, 635736, Note_off_c, 0, 83, 56
1, 635744, Control_c, 0, 64, 53
1, 635744, Control_c, 0, 67, 86
1, 635748, Note_on_c, 0, 86, 57
1, 635758, Control_c, 0, 64, 57
1, 635758, Control_c, 0, 67, 91
1, 635773, Control_c, 0, 64, 62
1, 635773, Control_c, 0, 67, 96
1, 635788, Control_c, 0, 64, 66
1, 635788, Control_c, 0, 67, 102
1, 635803, Control_c, 0, 64, 73
1, 635803, Control_c, 0, 67, 109
1, 635818, Control_c, 0, 64, 82
1, 635818, Control_c, 0, 67, 116
1, 635832, Control_c, 0, 64, 92
1, 635832, Control_c, 0, 67, 120
1, 635847, Control_c, 0, 64, 99
1, 635847, Control_c, 0, 67, 122
1, 635857, Note_off_c, 0, 86, 55
1, 635862, Control_c, 0, 64, 104
1, 635862, Control_c, 0, 67, 125
1, 635869, Note_on_c, 0, 85, 55
1, 635877, Control_c, 0, 64, 111
1, 635877, Control_c, 0, 67, 127
1, 635892, Control_c, 0, 64, 127
1, 635956, Note_off_c, 0, 85, 58
1, 636004, Note_on_c, 0, 86, 59
1, 636195, Note_on_c, 0, 55, 36
1, 636195, Control_c, 0, 64, 116
1, 636210, Control_c, 0, 64, 110
1, 636225, Control_c, 0, 64, 105
1, 636239, Control_c, 0, 64, 101
1, 636254, Control_c, 0, 64, 96
1, 636266, Note_off_c, 0, 56, 30
1, 636267, Note_off_c, 0, 86, 48
1, 636269, Control_c, 0, 64, 90
1, 636284, Control_c, 0, 64, 82
1, 636299, Control_c, 0, 64, 74
1, 636303, Note_on_c, 0, 89, 47
1, 636315, Control_c, 0, 64, 66
1, 636329, Control_c, 0, 64, 59
1, 636344, Control_c, 0, 64, 49
1, 636359, Control_c, 0, 64, 40
1, 636374, Control_c, 0, 64, 35
1, 636403, Control_c, 0, 64, 36
1, 636418, Control_c, 0, 64, 40
1, 636433, Control_c, 0, 64, 46
1, 636448, Control_c, 0, 64, 52
1, 636463, Control_c, 0, 64, 57
1, 636478, Control_c, 0, 64, 60
1, 636487, Note_off_c, 0, 89, 56
1, 636493, Control_c, 0, 64, 63
1, 636505, Note_on_c, 0, 91, 45
1, 636508, Control_c, 0, 64, 67
1, 636523, Control_c, 0, 64, 74
1, 636537, Control_c, 0, 64, 84
1, 636552, Control_c, 0, 64, 95
1, 636567, Control_c, 0, 64, 105
1, 636581, Control_c, 0, 64, 116
1, 636596, Control_c, 0, 64, 127
1, 636633, Note_on_c, 0, 89, 51
1, 636663, Note_off_c, 0, 91, 45
1, 636731, Note_on_c, 0, 88, 56
1, 636731, Note_off_c, 0, 89, 53
1, 636824, Note_on_c, 0, 86, 56
1, 636834, Note_off_c, 0, 88, 60
1, 636866, Note_off_c, 0, 86, 61
1, 636902, Note_on_c, 0, 84, 64
1, 636932, Note_off_c, 0, 84, 62
1, 636993, Note_on_c, 0, 83, 64
1, 637073, Note_on_c, 0, 81, 64
1, 637113, Note_off_c, 0, 83, 36
1, 637116, Note_off_c, 0, 81, 61
1, 637165, Note_on_c, 0, 79, 60
1, 637210, Note_off_c, 0, 79, 48
1, 637243, Note_on_c, 0, 78, 60
1, 637333, Note_on_c, 0, 77, 56
1, 637336, Note_off_c, 0, 78, 52
1, 637416, Note_on_c, 0, 76, 59
1, 637436, Note_off_c, 0, 77, 59
1, 637485, Control_c, 0, 64, 125
1, 637488, Note_off_c, 0, 76, 58
1, 637500, Control_c, 0, 64, 110
1, 637515, Control_c, 0, 64, 102
1, 637527, Note_on_c, 0, 74, 54
1, 637530, Control_c, 0, 64, 97
1, 637545, Control_c, 0, 64, 93
1, 637560, Control_c, 0, 64, 89
1, 637575, Control_c, 0, 64, 85
1, 637577, Note_off_c, 0, 74, 40
1, 637590, Control_c, 0, 64, 82
1, 637605, Control_c, 0, 64, 79
1, 637611, Note_on_c, 0, 76, 61
1, 637619, Control_c, 0, 64, 75
1, 637634, Control_c, 0, 64, 72
1, 637649, Control_c, 0, 64, 68
1, 637664, Control_c, 0, 64, 65
1, 637679, Control_c, 0, 64, 63
1, 637682, Note_off_c, 0, 76, 61
1, 637693, Control_c, 0, 64, 62
1, 637697, Note_on_c, 0, 77, 57
1, 637708, Control_c, 0, 64, 62
1, 637737, Control_c, 0, 64, 61
1, 637752, Control_c, 0, 64, 61
1, 637767, Control_c, 0, 64, 60
1, 637781, Note_off_c, 0, 77, 53
1, 637782, Control_c, 0, 64, 59
1, 637785, Note_on_c, 0, 76, 61
1, 637797, Control_c, 0, 64, 58
1, 637811, Control_c, 0, 64, 56
1, 637826, Control_c, 0, 64, 53
1, 637841, Control_c, 0, 64, 49
1, 637856, Control_c, 0, 64, 46
1, 637867, Note_off_c, 0, 76, 56
1, 637870, Note_on_c, 0, 74, 62
1, 637871, Control_c, 0, 64, 41
1, 637885, Control_c, 0, 64, 36
1, 637901, Control_c, 0, 64, 0
1, 637959, Note_on_c, 0, 72, 54
1, 637985, Note_off_c, 0, 74, 60
1, 638028, Note_off_c, 0, 72, 61
1, 638049, Note_on_c, 0, 71, 60
1, 638117, Note_off_c, 0, 71, 38
1, 638148, Note_on_c, 0, 69, 53
1, 638153, Control_c, 0, 64, 38
1, 638168, Control_c, 0, 64, 48
1, 638190, Control_c, 0, 64, 54
1, 638205, Control_c, 0, 64, 59
1, 638220, Control_c, 0, 64, 63
1, 638225, Note_off_c, 0, 62, 41
1, 638234, Control_c, 0, 64, 66
1, 638246, Note_off_c, 0, 69, 57
1, 638249, Control_c, 0, 64, 70
1, 638250, Note_on_c, 0, 67, 45
1, 638264, Control_c, 0, 64, 74
1, 638279, Control_c, 0, 64, 80
1, 638294, Control_c, 0, 64, 85
1, 638296, Note_off_c, 0, 59, 41
1, 638308, Control_c, 0, 64, 89
1, 638323, Control_c, 0, 64, 93
1, 638330, Note_off_c, 0, 55, 41
1, 638338, Control_c, 0, 64, 97
1, 638350, Note_off_c, 0, 67, 59
1, 638353, Control_c, 0, 64, 100
1, 638355, Note_on_c, 0, 65, 52
1, 638368, Control_c, 0, 64, 104
1, 638383, Control_c, 0, 64, 106
1, 638413, Note_off_c, 0, 65, 57
1, 638413, Control_c, 0, 64, 109
1, 638442, Control_c, 0, 64, 111
1, 638451, Note_on_c, 0, 64, 44
1, 638515, Note_off_c, 0, 64, 36
1, 638557, Note_on_c, 0, 62, 44
1, 638710, Control_c, 0, 64, 109
1, 638739, Control_c, 0, 64, 106
1, 638754, Control_c, 0, 64, 104
1, 638769, Control_c, 0, 64, 100
1, 638783, Control_c, 0, 64, 97
1, 638788, Note_on_c, 0, 43, 33
1, 638788, Note_on_c, 0, 55, 27
1, 638798, Control_c, 0, 64, 90
1, 638813, Control_c, 0, 64, 82
1, 638828, Control_c, 0, 64, 72
1, 638840, Note_on_c, 0, 61, 43
1, 638842, Note_off_c, 0, 62, 32
1, 638843, Control_c, 0, 64, 63
1, 638857, Control_c, 0, 64, 46
1, 638872, Control_c, 0, 64, 37
1, 638887, Control_c, 0, 64, 40
1, 638901, Control_c, 0, 64, 46
1, 638916, Control_c, 0, 64, 52
1, 638939, Control_c, 0, 64, 57
1, 638954, Control_c, 0, 64, 63
1, 638969, Control_c, 0, 64, 69
1, 638983, Control_c, 0, 64, 77
1, 638998, Control_c, 0, 64, 84
1, 639013, Control_c, 0, 64, 88
1, 639028, Control_c, 0, 64, 91
1, 639043, Control_c, 0, 64, 94
1, 639057, Control_c, 0, 64, 98
1, 639072, Control_c, 0, 64, 102
1, 639087, Control_c, 0, 64, 104
1, 639131, Control_c, 0, 64, 107
1, 639136, Note_on_c, 0, 70, 39
1, 639146, Control_c, 0, 64, 109
1, 639176, Control_c, 0, 64, 111
1, 639186, Note_off_c, 0, 61, 31
1, 639235, Control_c, 0, 64, 113
1, 639271, Note_off_c, 0, 70, 36
1, 639280, Note_on_c, 0, 64, 42
1, 639382, Note_on_c, 0, 61, 46
1, 639393, Note_off_c, 0, 64, 36
1, 639426, Note_off_c, 0, 61, 50
1, 639443, Control_c, 0, 64, 116
1, 639470, Note_on_c, 0, 61, 39
1, 639532, Control_c, 0, 64, 118
1, 639565, Note_off_c, 0, 61, 38
1, 639587, Note_on_c, 0, 70, 40
1, 639626, Note_off_c, 0, 70, 49
1, 639668, Note_on_c, 0, 64, 46
1, 639742, Note_off_c, 0, 64, 49
1, 639763, Note_on_c, 0, 61, 38
1, 639793, Note_off_c, 0, 61, 48
1, 639807, Control_c, 0, 64, 120
1, 639843, Note_on_c, 0, 64, 47
1, 639881, Control_c, 0, 64, 122
1, 639897, Note_off_c, 0, 64, 52
1, 639911, Control_c, 0, 64, 125
1, 639933, Note_on_c, 0, 67, 52
1, 639999, Note_off_c, 0, 67, 53
1, 640013, Note_on_c, 0, 70, 58
1, 640014, Control_c, 0, 64, 127
1, 640098, Note_off_c, 0, 70, 59
1, 640100, Note_on_c, 0, 73, 61
1, 640121, Note_off_c, 0, 73, 65
1, 640201, Note_on_c, 0, 76, 56
1, 640207, Control_c, 0, 67, 119
1, 640222, Control_c, 0, 67, 93
1, 640237, Control_c, 0, 67, 60
1, 640251, Control_c, 0, 67, 21
1, 640266, Control_c, 0, 67, 0
1, 640270, Note_off_c, 0, 76, 56
1, 640293, Note_on_c, 0, 79, 52
1, 640348, Note_off_c, 0, 79, 57
1, 640367, Note_on_c, 0, 82, 64
1, 640408, Note_off_c, 0, 55, 39
1, 640449, Note_off_c, 0, 82, 62
1, 640465, Note_on_c, 0, 85, 62
1, 640466, Note_off_c, 0, 43, 40
1, 640561, Note_off_c, 0, 85, 60
1, 640569, Note_on_c, 0, 82, 61
1, 640649, Note_on_c, 0, 79, 51
1, 640652, Note_off_c, 0, 82, 57
1, 640678, Note_off_c, 0, 79, 66
1, 640735, Note_on_c, 0, 76, 59
1, 640774, Note_off_c, 0, 76, 58
1, 640836, Note_on_c, 0, 73, 55
1, 640919, Note_on_c, 0, 70, 55
1, 640925, Note_off_c, 0, 73, 59
1, 641015, Note_on_c, 0, 67, 40
1, 641030, Note_off_c, 0, 70, 59
1, 641047, Note_off_c, 0, 67, 59
1, 641096, Note_on_c, 0, 64, 50
1, 641152, Note_off_c, 0, 64, 44
1, 641209, Note_on_c, 0, 61, 46
1, 641343, Note_on_c, 0, 43, 33
1, 641345, Note_on_c, 0, 54, 37
1, 641364, Control_c, 0, 64, 115
1, 641378, Control_c, 0, 64, 83
1, 641393, Control_c, 0, 64, 66
1, 641396, Note_on_c, 0, 60, 48
1, 641396, Note_off_c, 0, 61, 37
1, 641408, Control_c, 0, 64, 49
1, 641423, Control_c, 0, 64, 38
1, 641438, Control_c, 0, 64, 46
1, 641452, Control_c, 0, 64, 57
1, 641467, Control_c, 0, 64, 64
1, 641482, Control_c, 0, 64, 72
1, 641497, Control_c, 0, 64, 85
1, 641511, Control_c, 0, 64, 101
1, 641526, Control_c, 0, 64, 122
1, 641541, Control_c, 0, 64, 127
1, 641563, Note_off_c, 0, 60, 48
1, 641579, Note_on_c, 0, 69, 46
1, 641656, Note_off_c, 0, 69, 50
1, 641680, Note_on_c, 0, 63, 47
1, 641740, Note_off_c, 0, 63, 54
1, 641772, Note_on_c, 0, 60, 36
1, 641838, Note_off_c, 0, 60, 0
1, 641853, Note_on_c, 0, 60, 43
1, 641896, Note_off_c, 0, 60, 57
1, 641950, Note_on_c, 0, 69, 44
1, 642058, Note_on_c, 0, 63, 46
1, 642083, Note_off_c, 0, 69, 35
1, 642096, Note_off_c, 0, 63, 56
1, 642142, Note_on_c, 0, 60, 45
1, 642198, Note_off_c, 0, 60, 55
1, 642216, Note_on_c, 0, 63, 47
1, 642300, Note_on_c, 0, 66, 60
1, 642309, Note_off_c, 0, 63, 60
1, 642386, Note_on_c, 0, 69, 57
1, 642390, Note_off_c, 0, 66, 57
1, 642416, Note_off_c, 0, 69, 66
1, 642487, Note_on_c, 0, 72, 58
1, 642556, Note_off_c, 0, 72, 43
1, 642585, Note_on_c, 0, 75, 54
1, 642648, Note_off_c, 0, 75, 53
1, 642657, Note_on_c, 0, 78, 63
1, 642757, Note_off_c, 0, 78, 63
1, 642762, Note_on_c, 0, 81, 60
1, 642843, Note_off_c, 0, 81, 62
1, 642847, Note_on_c, 0, 84, 72
1, 642854, Note_off_c, 0, 54, 40
1, 642929, Note_off_c, 0, 43, 31
1, 642939, Note_off_c, 0, 84, 52
1, 642944, Note_on_c, 0, 81, 60
1, 643025, Note_on_c, 0, 78, 67
1, 643026, Note_off_c, 0, 81, 59
1, 643129, Note_on_c, 0, 75, 51
1, 643147, Note_off_c, 0, 78, 62
1, 643164, Note_off_c, 0, 75, 61
1, 643191, Note_on_c, 0, 72, 60
1, 643219, Note_off_c, 0, 72, 67
1, 643288, Note_on_c, 0, 69, 61
1, 643370, Note_on_c, 0, 66, 61
1, 643447, Note_off_c, 0, 69, 35
1, 643465, Note_on_c, 0, 63, 55
1, 643507, Note_off_c, 0, 66, 59
1, 643539, Note_off_c, 0, 63, 61
1, 643549, Note_on_c, 0, 60, 58
1, 643599, Note_off_c, 0, 60, 55
1, 643658, Note_on_c, 0, 53, 36
1, 643665, Note_on_c, 0, 43, 35
1, 643713, Control_c, 0, 64, 90
1, 643719, Note_on_c, 0, 59, 51
1, 643727, Control_c, 0, 64, 70
1, 643742, Control_c, 0, 64, 48
1, 643757, Control_c, 0, 64, 0
1, 643772, Control_c, 0, 64, 33
1, 643787, Control_c, 0, 64, 44
1, 643802, Control_c, 0, 64, 56
1, 643816, Control_c, 0, 64, 64
1, 643831, Control_c, 0, 64, 71
1, 643846, Control_c, 0, 64, 84
1, 643861, Control_c, 0, 64, 96
1, 643876, Control_c, 0, 64, 104
1, 643891, Control_c, 0, 64, 111
1, 643905, Control_c, 0, 64, 119
1, 643920, Control_c, 0, 64, 127
1, 643938, Note_off_c, 0, 59, 55
1, 643941, Note_on_c, 0, 68, 47
1, 644015, Note_off_c, 0, 68, 49
1, 644033, Note_on_c, 0, 62, 44
1, 644113, Note_off_c, 0, 62, 46
1, 644120, Note_on_c, 0, 59, 43
1, 644152, Note_off_c, 0, 59, 55
1, 644218, Note_on_c, 0, 59, 48
1, 644270, Note_off_c, 0, 59, 56
1, 644311, Note_on_c, 0, 68, 52
1, 644383, Note_off_c, 0, 68, 50
1, 644402, Note_on_c, 0, 62, 48
1, 644444, Note_off_c, 0, 62, 59
1, 644488, Note_on_c, 0, 59, 43
1, 644541, Note_off_c, 0, 59, 53
1, 644553, Note_on_c, 0, 62, 49
1, 644642, Note_off_c, 0, 62, 57
1, 644670, Note_on_c, 0, 65, 52
1, 644747, Note_off_c, 0, 65, 60
1, 644753, Note_on_c, 0, 68, 63
1, 644781, Note_off_c, 0, 68, 68
1, 644842, Note_on_c, 0, 71, 60
1, 644933, Note_off_c, 0, 71, 59
1, 644939, Note_on_c, 0, 74, 69
1, 645028, Note_off_c, 0, 74, 60
1, 645038, Note_on_c, 0, 77, 64
1, 645115, Note_on_c, 0, 80, 68
1, 645124, Note_off_c, 0, 77, 62
1, 645197, Note_off_c, 0, 80, 62
1, 645199, Note_on_c, 0, 83, 72
1, 645214, Note_off_c, 0, 43, 40
1, 645272, Note_off_c, 0, 53, 35
1, 645294, Note_on_c, 0, 80, 71
1, 645328, Note_off_c, 0, 83, 38
1, 645373, Note_on_c, 0, 77, 66
1, 645390, Note_off_c, 0, 80, 60
1, 645468, Note_on_c, 0, 74, 64
1, 645472, Note_off_c, 0, 77, 61
1, 645501, Note_off_c, 0, 74, 64
1, 645546, Note_on_c, 0, 71, 64
1, 645639, Note_off_c, 0, 71, 37
1, 645647, Note_on_c, 0, 68, 63
1, 645744, Note_on_c, 0, 65, 71
1, 645773, Note_off_c, 0, 68, 61
1, 645831, Note_on_c, 0, 62, 64
1, 645842, Note_off_c, 0, 65, 59
1, 645916, Note_off_c, 0, 62, 57
1, 645918, Note_on_c, 0, 59, 53
1, 645960, Note_off_c, 0, 59, 56
1, 646025, Note_on_c, 0, 43, 41
1, 646030, Note_on_c, 0, 53, 39
1, 646035, Control_c, 0, 64, 99
1, 646049, Control_c, 0, 64, 76
1, 646053, Note_on_c, 0, 59, 50
1, 646064, Control_c, 0, 64, 60
1, 646079, Control_c, 0, 64, 38
1, 646093, Control_c, 0, 64, 0
1, 646108, Control_c, 0, 64, 39
1, 646123, Control_c, 0, 64, 50
1, 646138, Control_c, 0, 64, 61
1, 646153, Control_c, 0, 64, 69
1, 646167, Control_c, 0, 64, 79
1, 646182, Control_c, 0, 64, 91
1, 646197, Control_c, 0, 64, 102
1, 646212, Control_c, 0, 64, 107
1, 646214, Note_off_c, 0, 59, 58
1, 646220, Note_on_c, 0, 67, 53
1, 646226, Control_c, 0, 64, 111
1, 646241, Control_c, 0, 64, 125
1, 646256, Control_c, 0, 64, 127
1, 646321, Note_on_c, 0, 62, 53
1, 646352, Note_off_c, 0, 67, 37
1, 646395, Note_off_c, 0, 62, 58
1, 646401, Note_on_c, 0, 59, 54
1, 646433, Note_off_c, 0, 59, 63
1, 646510, Note_on_c, 0, 59, 58
1, 646553, Note_off_c, 0, 59, 59
1, 646588, Note_on_c, 0, 67, 64
1, 646680, Note_off_c, 0, 67, 61
1, 646685, Note_on_c, 0, 62, 67
1, 646739, Note_off_c, 0, 62, 52
1, 646758, Note_on_c, 0, 59, 63
1, 646839, Note_off_c, 0, 59, 61
1, 646847, Note_on_c, 0, 62, 70
1, 646944, Note_on_c, 0, 65, 68
1, 646950, Note_off_c, 0, 62, 56
1, 647019, Note_on_c, 0, 67, 66
1, 647030, Note_off_c, 0, 65, 64
1, 647046, Note_off_c, 0, 67, 66
1, 647077, Note_off_c, 0, 53, 39
1, 647106, Note_on_c, 0, 71, 68
1, 647197, Note_off_c, 0, 71, 58
1, 647203, Note_on_c, 0, 74, 79
1, 647233, Note_off_c, 0, 43, 39
1, 647294, Note_on_c, 0, 77, 72
1, 647322, Note_off_c, 0, 74, 51
1, 647376, Note_on_c, 0, 79, 74
1, 647406, Note_off_c, 0, 77, 57
1, 647469, Note_on_c, 0, 83, 80
1, 647472, Note_off_c, 0, 79, 65
1, 647563, Note_on_c, 0, 79, 78
1, 647601, Note_off_c, 0, 83, 54
1, 647643, Note_on_c, 0, 77, 81
1, 647670, Note_off_c, 0, 79, 63
1, 647734, Note_on_c, 0, 74, 84
1, 647767, Note_off_c, 0, 77, 63
1, 647816, Note_on_c, 0, 71, 78
1, 647817, Note_off_c, 0, 74, 61
1, 647864, Note_off_c, 0, 71, 63
1, 647919, Note_on_c, 0, 67, 77
1, 648001, Note_on_c, 0, 65, 82
1, 648047, Note_off_c, 0, 67, 58
1, 648092, Note_on_c, 0, 62, 81
1, 648137, Note_off_c, 0, 65, 61
1, 648187, Note_on_c, 0, 36, 73
1, 648189, Note_on_c, 0, 59, 79
1, 648191, Note_off_c, 0, 62, 62
1, 648237, Note_off_c, 0, 59, 63
1, 648473, Control_c, 0, 64, 105
1, 648488, Control_c, 0, 64, 76
1, 648503, Control_c, 0, 64, 58
1, 648515, Note_on_c, 0, 60, 73
1, 648518, Control_c, 0, 64, 0
1, 648525, Note_on_c, 0, 43, 49
1, 648533, Note_on_c, 0, 51, 61
1, 648592, Control_c, 0, 64, 49
1, 648607, Control_c, 0, 64, 64
1, 648621, Control_c, 0, 64, 74
1, 648636, Control_c, 0, 64, 90
1, 648651, Control_c, 0, 64, 106
1, 648667, Note_off_c, 0, 51, 63
1, 648673, Control_c, 0, 64, 127
1, 648697, Note_off_c, 0, 60, 63
1, 648997, Note_on_c, 0, 72, 65
1, 649081, Note_off_c, 0, 72, 56
1, 649355, Note_on_c, 0, 67, 62
1, 649442, Note_off_c, 0, 67, 59
1, 649637, Note_on_c, 0, 65, 72
1, 649683, Note_off_c, 0, 65, 60
1, 649850, Note_on_c, 0, 63, 74
1, 649928, Note_off_c, 0, 63, 56
1, 650056, Note_on_c, 0, 62, 79
1, 650118, Note_off_c, 0, 62, 60
1, 650231, Control_c, 0, 64, 108
1, 650246, Control_c, 0, 64, 80
1, 650260, Control_c, 0, 64, 72
1, 650261, Note_on_c, 0, 60, 82
1, 650275, Control_c, 0, 64, 71
1, 650290, Control_c, 0, 64, 72
1, 650305, Control_c, 0, 64, 77
1, 650320, Control_c, 0, 64, 90
1, 650334, Control_c, 0, 64, 127
1, 650336, Note_off_c, 0, 60, 63
1, 650416, Note_off_c, 0, 43, 60
1, 650419, Note_off_c, 0, 36, 59
1, 650449, Note_on_c, 0, 63, 87
1, 650503, Note_off_c, 0, 63, 62
1, 650633, Note_on_c, 0, 67, 83
1, 650686, Note_off_c, 0, 67, 64
1, 650825, Note_on_c, 0, 72, 89
1, 650875, Note_off_c, 0, 72, 62
1, 651035, Note_on_c, 0, 75, 86
1, 651099, Note_off_c, 0, 75, 60
1, 651235, Note_on_c, 0, 77, 90
1, 651305, Note_off_c, 0, 77, 57
1, 651427, Note_on_c, 0, 48, 50
1, 651514, Control_c, 0, 64, 85
1, 651518, Note_on_c, 0, 79, 69
1, 651529, Control_c, 0, 64, 64
1, 651543, Control_c, 0, 64, 54
1, 651558, Control_c, 0, 64, 56
1, 651573, Control_c, 0, 64, 60
1, 651588, Control_c, 0, 64, 64
1, 651603, Control_c, 0, 64, 70
1, 651617, Control_c, 0, 64, 85
1, 651626, Note_off_c, 0, 79, 59
1, 651631, Control_c, 0, 64, 127
1, 651634, Note_on_c, 0, 80, 72
1, 651698, Note_off_c, 0, 80, 62
1, 651705, Note_on_c, 0, 79, 70
1, 651758, Note_on_c, 0, 80, 72
1, 651761, Note_off_c, 0, 79, 63
1, 651798, Note_off_c, 0, 48, 51
1, 651808, Note_off_c, 0, 80, 61
1, 651809, Note_on_c, 0, 60, 74
1, 651821, Note_on_c, 0, 79, 67
1, 651847, Note_off_c, 0, 60, 61
1, 651873, Note_off_c, 0, 79, 62
1, 651874, Note_on_c, 0, 80, 71
1, 651905, Note_off_c, 0, 80, 63
1, 651918, Note_on_c, 0, 79, 64
1, 651974, Note_on_c, 0, 80, 74
1, 651976, Note_off_c, 0, 79, 59
1, 652004, Note_off_c, 0, 80, 57
1, 652029, Note_on_c, 0, 79, 64
1, 652035, Note_on_c, 0, 55, 78
1, 652077, Note_off_c, 0, 79, 63
1, 652080, Note_on_c, 0, 80, 80
1, 652092, Note_off_c, 0, 55, 58
1, 652123, Note_off_c, 0, 80, 58
1, 652125, Note_on_c, 0, 79, 70
1, 652176, Note_off_c, 0, 79, 61
1, 652178, Note_on_c, 0, 80, 72
1, 652222, Note_off_c, 0, 80, 56
1, 652231, Note_on_c, 0, 53, 85
1, 652231, Note_on_c, 0, 79, 72
1, 652270, Note_off_c, 0, 53, 60
1, 652287, Note_off_c, 0, 79, 60
1, 652296, Note_on_c, 0, 80, 75
1, 652335, Note_off_c, 0, 80, 60
1, 652339, Note_on_c, 0, 79, 69
1, 652388, Note_off_c, 0, 79, 59
1, 652393, Note_on_c, 0, 80, 75
1, 652396, Control_c, 0, 64, 88
1, 652419, Control_c, 0, 64, 67
1, 652434, Note_on_c, 0, 51, 81
1, 652434, Control_c, 0, 64, 57
1, 652449, Control_c, 0, 64, 61
1, 652453, Note_off_c, 0, 80, 60
1, 652456, Note_on_c, 0, 79, 76
1, 652463, Control_c, 0, 64, 66
1, 652478, Control_c, 0, 64, 75
1, 652493, Control_c, 0, 64, 95
1, 652502, Note_off_c, 0, 51, 52
1, 652508, Control_c, 0, 64, 127
1, 652509, Note_off_c, 0, 79, 54
1, 652516, Note_on_c, 0, 80, 77
1, 652566, Note_off_c, 0, 80, 61
1, 652567, Note_on_c, 0, 79, 71
1, 652611, Note_on_c, 0, 80, 69
1, 652618, Note_on_c, 0, 50, 90
1, 652624, Note_off_c, 0, 79, 59
1, 652665, Note_off_c, 0, 50, 59
1, 652668, Note_off_c, 0, 80, 60
1, 652673, Note_on_c, 0, 79, 74
1, 652720, Note_off_c, 0, 79, 60
1, 652744, Note_on_c, 0, 80, 73
1, 652775, Control_c, 0, 64, 88
1, 652780, Note_off_c, 0, 80, 60
1, 652789, Control_c, 0, 64, 64
1, 652799, Note_on_c, 0, 79, 72
1, 652804, Control_c, 0, 64, 43
1, 652805, Note_on_c, 0, 48, 83
1, 652819, Control_c, 0, 64, 49
1, 652834, Control_c, 0, 64, 59
1, 652836, Note_off_c, 0, 48, 66
1, 652840, Note_off_c, 0, 79, 61
1, 652846, Note_on_c, 0, 80, 71
1, 652849, Control_c, 0, 64, 67
1, 652863, Control_c, 0, 64, 83
1, 652876, Note_off_c, 0, 80, 60
1, 652878, Control_c, 0, 64, 127
1, 652904, Note_on_c, 0, 79, 68
1, 652938, Note_off_c, 0, 79, 60
1, 652957, Note_on_c, 0, 80, 73
1, 652987, Note_off_c, 0, 80, 57
1, 652995, Note_on_c, 0, 51, 93
1, 653011, Note_on_c, 0, 79, 78
1, 653023, Note_off_c, 0, 51, 60
1, 653057, Note_off_c, 0, 79, 62
1, 653067, Note_on_c, 0, 80, 71
1, 653098, Note_off_c, 0, 80, 60
1, 653126, Note_on_c, 0, 79, 69
1, 653168, Control_c, 0, 64, 93
1, 653178, Note_off_c, 0, 79, 59
1, 653183, Control_c, 0, 64, 71
1, 653189, Note_on_c, 0, 80, 77
1, 653195, Note_on_c, 0, 55, 97
1, 653198, Control_c, 0, 64, 62
1, 653212, Control_c, 0, 64, 65
1, 653227, Control_c, 0, 64, 71
1, 653236, Note_off_c, 0, 55, 66
1, 653242, Control_c, 0, 64, 84
1, 653244, Note_on_c, 0, 79, 72
1, 653245, Note_off_c, 0, 80, 60
1, 653257, Control_c, 0, 64, 127
1, 653291, Note_on_c, 0, 80, 65
1, 653298, Note_off_c, 0, 79, 62
1, 653347, Note_off_c, 0, 80, 61
1, 653356, Note_on_c, 0, 79, 73
1, 653387, Note_on_c, 0, 60, 95
1, 653405, Note_off_c, 0, 60, 74
1, 653407, Note_off_c, 0, 79, 60
1, 653414, Note_on_c, 0, 80, 73
1, 653461, Note_off_c, 0, 80, 61
1, 653478, Note_on_c, 0, 79, 73
1, 653513, Note_off_c, 0, 79, 61
1, 653520, Note_on_c, 0, 80, 67
1, 653557, Note_off_c, 0, 80, 60
1, 653584, Note_on_c, 0, 79, 71
1, 653615, Note_on_c, 0, 63, 95
1, 653625, Note_off_c, 0, 79, 62
1, 653629, Note_on_c, 0, 80, 72
1, 653633, Note_off_c, 0, 63, 70
1, 653669, Note_off_c, 0, 80, 55
1, 653693, Note_on_c, 0, 79, 69
1, 653732, Note_off_c, 0, 79, 62
1, 653740, Note_on_c, 0, 80, 72
1, 653780, Note_off_c, 0, 80, 58
1, 653803, Note_on_c, 0, 79, 68
1, 653845, Note_off_c, 0, 79, 63
1, 653846, Note_on_c, 0, 80, 70
1, 653848, Note_on_c, 0, 65, 100
1, 653866, Note_off_c, 0, 65, 74
1, 653892, Note_off_c, 0, 80, 58
1, 653911, Note_on_c, 0, 79, 67
1, 653952, Note_off_c, 0, 79, 62
1, 653957, Note_on_c, 0, 80, 66
1, 653997, Note_off_c, 0, 80, 58
1, 654009, Note_on_c, 0, 79, 61
1, 654044, Note_off_c, 0, 79, 62
1, 654051, Note_on_c, 0, 80, 70
1, 654094, Note_off_c, 0, 80, 61
1, 654095, Control_c, 0, 64, 97
1, 654110, Control_c, 0, 64, 64
1, 654116, Note_on_c, 0, 79, 88
1, 654125, Control_c, 0, 64, 40
1, 654130, Note_on_c, 0, 67, 87
1, 654140, Control_c, 0, 64, 45
1, 654155, Control_c, 0, 64, 59
1, 654169, Control_c, 0, 64, 68
1, 654172, Note_off_c, 0, 79, 66
1, 654180, Note_on_c, 0, 80, 75
1, 654182, Note_off_c, 0, 67, 63
1, 654184, Control_c, 0, 64, 86
1, 654199, Control_c, 0, 64, 127
1, 654205, Note_on_c, 0, 68, 57
1, 654226, Note_off_c, 0, 80, 57
1, 654237, Note_off_c, 0, 68, 66
1, 654238, Note_on_c, 0, 79, 70
1, 654241, Note_on_c, 0, 67, 63
1, 654281, Note_off_c, 0, 79, 62
1, 654286, Note_on_c, 0, 80, 61
1, 654289, Note_off_c, 0, 67, 61
1, 654307, Note_on_c, 0, 68, 59
1, 654316, Note_off_c, 0, 80, 58
1, 654322, Note_on_c, 0, 79, 69
1, 654332, Note_on_c, 0, 67, 55
1, 654336, Note_off_c, 0, 68, 65
1, 654369, Note_off_c, 0, 79, 65
1, 654379, Note_on_c, 0, 80, 72
1, 654386, Note_off_c, 0, 67, 63
1, 654405, Note_on_c, 0, 68, 66
1, 654419, Note_off_c, 0, 80, 50
1, 654423, Note_on_c, 0, 79, 77
1, 654437, Note_off_c, 0, 68, 63
1, 654446, Note_on_c, 0, 67, 61
1, 654479, Note_off_c, 0, 79, 62
1, 654493, Note_off_c, 0, 67, 63
1, 654496, Note_on_c, 0, 80, 58
1, 654503, Note_on_c, 0, 68, 63
1, 654518, Note_off_c, 0, 80, 62
1, 654520, Note_on_c, 0, 79, 71
1, 654547, Note_off_c, 0, 68, 62
1, 654550, Note_on_c, 0, 67, 66
1, 654568, Note_off_c, 0, 79, 65
1, 654581, Note_on_c, 0, 80, 71
1, 654601, Note_off_c, 0, 80, 59
1, 654604, Note_off_c, 0, 67, 63
1, 654618, Note_on_c, 0, 68, 67
1, 654620, Note_on_c, 0, 79, 80
1, 654664, Note_off_c, 0, 68, 64
1, 654665, Note_on_c, 0, 67, 65
1, 654686, Note_off_c, 0, 79, 57
1, 654688, Note_on_c, 0, 80, 71
1, 654722, Note_off_c, 0, 67, 62
1, 654727, Note_off_c, 0, 80, 59
1, 654729, Note_on_c, 0, 79, 73
1, 654733, Note_on_c, 0, 68, 70
1, 654776, Note_off_c, 0, 79, 62
1, 654782, Note_on_c, 0, 67, 63
1, 654782, Note_off_c, 0, 68, 62
1, 654784, Note_on_c, 0, 80, 73
1, 654801, Note_off_c, 0, 80, 67
1, 654828, Note_on_c, 0, 79, 81
1, 654828, Note_off_c, 0, 67, 62
1, 654848, Note_on_c, 0, 68, 66
1, 654878, Note_off_c, 0, 68, 63
1, 654888, Note_on_c, 0, 67, 66
1, 654889, Note_off_c, 0, 79, 44
1, 654897, Note_on_c, 0, 80, 63
1, 654932, Note_off_c, 0, 67, 60
1, 654934, Note_on_c, 0, 79, 71
1, 654938, Note_off_c, 0, 80, 61
1, 654961, Note_on_c, 0, 68, 69
1, 654977, Note_off_c, 0, 79, 65
1, 654978, Note_on_c, 0, 80, 63
1, 654993, Note_off_c, 0, 68, 64
1, 655007, Note_on_c, 0, 67, 55
1, 655024, Note_off_c, 0, 80, 61
1, 655026, Note_on_c, 0, 79, 72
1, 655049, Note_off_c, 0, 67, 62
1, 655060, Note_on_c, 0, 68, 72
1, 655076, Note_on_c, 0, 80, 69
1, 655081, Note_off_c, 0, 79, 62
1, 655101, Note_on_c, 0, 67, 51
1, 655106, Note_off_c, 0, 68, 63
1, 655141, Note_off_c, 0, 80, 64
1, 655156, Note_on_c, 0, 77, 72
1, 655157, Note_on_c, 0, 65, 72
1, 655164, Note_off_c, 0, 67, 64
1, 655202, Note_off_c, 0, 77, 53
1, 655204, Poly_aftertouch_c, 0, 67, 0
1, 655212, Note_on_c, 0, 67, 60
1, 655221, Note_on_c, 0, 79, 63
1, 655221, Note_off_c, 0, 65, 62
1, 655248, Note_off_c, 0, 67, 61
1, 655308, Note_on_c, 0, 67, 82
1, 655317, Note_on_c, 0, 82, 78
1, 655359, Note_off_c, 0, 79, 48
1, 655363, Control_c, 0, 64, 99
1, 655377, Control_c, 0, 64, 71
1, 655392, Control_c, 0, 64, 52
1, 655415, Control_c, 0, 64, 0
1, 655474, Control_c, 0, 64, 41
1, 655490, Control_c, 0, 64, 56
1, 655505, Control_c, 0, 64, 64
1, 655520, Control_c, 0, 64, 72
1, 655534, Control_c, 0, 64, 79
1, 655549, Control_c, 0, 64, 83
1, 655564, Control_c, 0, 64, 83
1, 655608, Control_c, 0, 64, 81
1, 655623, Control_c, 0, 64, 74
1, 655638, Control_c, 0, 64, 65
1, 655653, Control_c, 0, 64, 55
1, 655668, Control_c, 0, 64, 40
1, 655682, Control_c, 0, 64, 0
1, 655711, Note_off_c, 0, 67, 60
1, 655711, Note_on_c, 0, 80, 77
1, 655715, Note_on_c, 0, 68, 62
1, 655715, Note_off_c, 0, 82, 63
1, 655756, Control_c, 0, 64, 50
1, 655771, Control_c, 0, 64, 60
1, 655786, Control_c, 0, 64, 65
1, 655800, Control_c, 0, 64, 72
1, 655815, Control_c, 0, 64, 88
1, 655830, Control_c, 0, 64, 127
1, 655862, Note_off_c, 0, 80, 58
1, 655956, Note_off_c, 0, 68, 65
1, 655970, Note_on_c, 0, 80, 92
1, 655983, Note_on_c, 0, 69, 75
1, 656071, Note_off_c, 0, 80, 62
1, 656133, Note_off_c, 0, 69, 59
1, 656170, Note_on_c, 0, 70, 87
1, 656175, Note_on_c, 0, 80, 99
1, 656266, Note_off_c, 0, 80, 61
1, 656356, Note_on_c, 0, 80, 98
1, 656364, Note_on_c, 0, 71, 95
1, 656403, Note_off_c, 0, 70, 62
1, 656447, Note_off_c, 0, 80, 60
1, 656523, Note_off_c, 0, 71, 63
1, 656531, Note_on_c, 0, 72, 95
1, 656536, Note_on_c, 0, 80, 98
1, 656618, Note_off_c, 0, 80, 58
1, 656816, Control_c, 0, 64, 96
1, 656817, Note_on_c, 0, 75, 63
1, 656824, Note_on_c, 0, 80, 67
1, 656830, Control_c, 0, 64, 75
1, 656845, Control_c, 0, 64, 60
1, 656849, Note_off_c, 0, 72, 57
1, 656859, Control_c, 0, 64, 0
1, 656926, Control_c, 0, 64, 33
1, 656941, Control_c, 0, 64, 52
1, 656955, Control_c, 0, 64, 65
1, 656970, Control_c, 0, 64, 73
1, 656985, Control_c, 0, 64, 81
1, 656996, Note_off_c, 0, 80, 57
1, 657000, Control_c, 0, 64, 88
1, 657015, Control_c, 0, 64, 95
1, 657029, Control_c, 0, 64, 105
1, 657044, Control_c, 0, 64, 127
1, 657149, Control_c, 0, 64, 91
1, 657164, Control_c, 0, 64, 72
1, 657174, Note_on_c, 0, 80, 57
1, 657175, Note_off_c, 0, 75, 61
1, 657178, Control_c, 0, 64, 57
1, 657192, Note_on_c, 0, 76, 53
1, 657193, Control_c, 0, 64, 0
1, 657201, Note_on_c, 0, 73, 53
1, 657238, Control_c, 0, 64, 45
1, 657252, Control_c, 0, 64, 60
1, 657267, Control_c, 0, 64, 69
1, 657282, Control_c, 0, 64, 79
1, 657297, Control_c, 0, 64, 95
1, 657311, Control_c, 0, 64, 127
1, 657313, Note_off_c, 0, 76, 53
1, 657323, Note_off_c, 0, 80, 55
1, 657336, Note_off_c, 0, 73, 60
1, 657434, Note_on_c, 0, 80, 73
1, 657442, Note_on_c, 0, 76, 75
1, 657444, Note_on_c, 0, 73, 70
1, 657496, Note_off_c, 0, 76, 62
1, 657517, Note_off_c, 0, 80, 58
1, 657523, Note_off_c, 0, 73, 57
1, 657621, Note_on_c, 0, 80, 83
1, 657623, Note_on_c, 0, 73, 87
1, 657623, Note_on_c, 0, 76, 83
1, 657679, Note_off_c, 0, 76, 62
1, 657706, Note_off_c, 0, 73, 53
1, 657707, Note_off_c, 0, 80, 61
1, 657794, Note_on_c, 0, 76, 86
1, 657797, Note_on_c, 0, 80, 83
1, 657801, Note_on_c, 0, 73, 85
1, 657844, Note_off_c, 0, 76, 59
1, 657869, Note_off_c, 0, 80, 61
1, 657875, Note_off_c, 0, 73, 60
1, 657958, Note_on_c, 0, 76, 83
1, 657967, Note_on_c, 0, 80, 80
1, 657981, Note_on_c, 0, 72, 52
1, 657982, Note_off_c, 0, 76, 66
1, 657997, Note_off_c, 0, 80, 61
1, 658002, Note_off_c, 0, 72, 58
1, 658179, Note_on_c, 0, 73, 56
1, 658187, Note_on_c, 0, 80, 70
1, 658209, Control_c, 0, 64, 96
1, 658224, Control_c, 0, 64, 71
1, 658239, Control_c, 0, 64, 55
1, 658253, Control_c, 0, 64, 0
1, 658313, Control_c, 0, 64, 39
1, 658328, Control_c, 0, 64, 53
1, 658343, Control_c, 0, 64, 61
1, 658357, Control_c, 0, 64, 67
1, 658366, Note_on_c, 0, 74, 71
1, 658370, Note_on_c, 0, 92, 74
1, 658372, Control_c, 0, 64, 75
1, 658385, Note_off_c, 0, 80, 62
1, 658387, Control_c, 0, 64, 88
1, 658408, Control_c, 0, 64, 117
1, 658423, Control_c, 0, 64, 127
1, 658453, Note_off_c, 0, 73, 26
1, 658483, Note_off_c, 0, 74, 62
1, 658485, Note_on_c, 0, 75, 80
1, 658486, Note_on_c, 0, 80, 88
1, 658498, Note_off_c, 0, 92, 60
1, 658580, Note_off_c, 0, 75, 62
1, 658589, Note_on_c, 0, 92, 88
1, 658597, Note_on_c, 0, 76, 87
1, 658602, Note_off_c, 0, 80, 58
1, 658623, Note_on_c, 0, 90, 46
1, 658653, Note_off_c, 0, 90, 57
1, 658676, Control_c, 0, 64, 113
1, 658677, Note_on_c, 0, 80, 89
1, 658688, Note_on_c, 0, 75, 83
1, 658691, Control_c, 0, 64, 75
1, 658692, Note_off_c, 0, 92, 65
1, 658695, Note_off_c, 0, 76, 63
1, 658706, Control_c, 0, 64, 51
1, 658721, Control_c, 0, 64, 0
1, 658736, Control_c, 0, 64, 44
1, 658750, Control_c, 0, 64, 60
1, 658765, Control_c, 0, 64, 70
1, 658776, Note_on_c, 0, 92, 97
1, 658780, Control_c, 0, 64, 85
1, 658781, Note_on_c, 0, 76, 92
1, 658787, Note_off_c, 0, 75, 62
1, 658791, Note_off_c, 0, 80, 61
1, 658795, Control_c, 0, 64, 120
1, 658810, Control_c, 0, 64, 127
1, 658820, Note_on_c, 0, 90, 45
1, 658847, Note_off_c, 0, 90, 57
1, 658867, Note_on_c, 0, 80, 94
1, 658872, Note_on_c, 0, 78, 92
1, 658875, Note_off_c, 0, 76, 63
1, 658879, Note_off_c, 0, 92, 67
1, 658883, Control_c, 0, 64, 92
1, 658898, Control_c, 0, 64, 65
1, 658913, Control_c, 0, 64, 0
1, 658957, Note_on_c, 0, 75, 84
1, 658957, Control_c, 0, 64, 41
1, 658958, Note_on_c, 0, 92, 93
1, 658969, Note_off_c, 0, 78, 60
1, 658972, Note_off_c, 0, 80, 63
1, 658972, Control_c, 0, 64, 61
1, 658987, Control_c, 0, 64, 71
1, 659002, Control_c, 0, 64, 84
1, 659017, Control_c, 0, 64, 96
1, 659031, Control_c, 0, 64, 104
1, 659042, Note_on_c, 0, 80, 98
1, 659046, Control_c, 0, 64, 111
1, 659048, Poly_aftertouch_c, 0, 90, 127
1, 659051, Note_on_c, 0, 76, 92
1, 659059, Note_off_c, 0, 92, 65
1, 659061, Control_c, 0, 64, 127
1, 659067, Note_off_c, 0, 75, 60
1, 659079, Poly_aftertouch_c, 0, 90, 0
1, 659139, Note_on_c, 0, 92, 94
1, 659148, Note_off_c, 0, 76, 64
1, 659150, Note_on_c, 0, 78, 96
1, 659159, Note_off_c, 0, 80, 62
1, 659177, Note_on_c, 0, 90, 54
1, 659201, Note_off_c, 0, 90, 57
1, 659202, Control_c, 0, 64, 88
1, 659217, Control_c, 0, 64, 65
1, 659229, Note_on_c, 0, 80, 95
1, 659230, Note_on_c, 0, 75, 84
1, 659231, Control_c, 0, 64, 45
1, 659241, Note_off_c, 0, 78, 64
1, 659246, Control_c, 0, 64, 47
1, 659251, Note_off_c, 0, 92, 62
1, 659261, Control_c, 0, 64, 59
1, 659276, Control_c, 0, 64, 69
1, 659291, Control_c, 0, 64, 84
1, 659306, Control_c, 0, 64, 127
1, 659324, Note_on_c, 0, 76, 91
1, 659327, Note_on_c, 0, 92, 97
1, 659337, Note_off_c, 0, 75, 59
1, 659344, Note_off_c, 0, 80, 62
1, 659380, Note_on_c, 0, 90, 29
1, 659415, Note_on_c, 0, 80, 98
1, 659416, Note_on_c, 0, 78, 96
1, 659419, Note_off_c, 0, 76, 61
1, 659421, Note_off_c, 0, 90, 54
1, 659433, Note_off_c, 0, 92, 64
1, 659454, Control_c, 0, 64, 83
1, 659470, Control_c, 0, 64, 66
1, 659485, Control_c, 0, 64, 59
1, 659499, Control_c, 0, 64, 65
1, 659509, Note_on_c, 0, 75, 85
1, 659512, Note_on_c, 0, 92, 95
1, 659514, Control_c, 0, 64, 75
1, 659518, Note_off_c, 0, 78, 57
1, 659526, Note_off_c, 0, 80, 62
1, 659529, Control_c, 0, 64, 98
1, 659544, Note_on_c, 0, 90, 54
1, 659544, Control_c, 0, 64, 127
1, 659576, Note_off_c, 0, 90, 50
1, 659607, Note_on_c, 0, 80, 98
1, 659613, Note_on_c, 0, 76, 94
1, 659619, Note_off_c, 0, 92, 66
1, 659622, Note_off_c, 0, 75, 60
1, 659691, Note_off_c, 0, 80, 60
1, 659696, Note_off_c, 0, 76, 59
1, 659702, Note_on_c, 0, 92, 93
1, 659706, Note_on_c, 0, 78, 93
1, 659744, Note_on_c, 0, 90, 35
1, 659790, Note_on_c, 0, 80, 92
1, 659801, Note_on_c, 0, 75, 75
1, 659805, Note_off_c, 0, 78, 63
1, 659812, Note_off_c, 0, 90, 34
1, 659819, Note_off_c, 0, 92, 60
1, 659841, Poly_aftertouch_c, 0, 86, 127
1, 659865, Note_off_c, 0, 80, 63
1, 659875, Poly_aftertouch_c, 0, 86, 0
1, 659888, Note_on_c, 0, 76, 78
1, 659902, Note_on_c, 0, 92, 98
1, 659910, Note_off_c, 0, 76, 67
1, 659917, Note_off_c, 0, 75, 60
1, 659929, Note_on_c, 0, 90, 55
1, 659944, Note_off_c, 0, 92, 68
1, 659952, Note_off_c, 0, 90, 63
1, 660095, Note_on_c, 0, 40, 60
1, 660099, Control_c, 0, 64, 91
1, 660114, Control_c, 0, 64, 66
1, 660129, Control_c, 0, 64, 37
1, 660144, Control_c, 0, 64, 0
1, 660151, Note_on_c, 0, 47, 75
1, 660159, Control_c, 0, 64, 52
1, 660160, Note_off_c, 0, 40, 63
1, 660173, Control_c, 0, 64, 65
1, 660188, Control_c, 0, 64, 86
1, 660194, Note_on_c, 0, 64, 109
1, 660203, Control_c, 0, 64, 127
1, 660211, Note_on_c, 0, 55, 89
1, 660222, Note_off_c, 0, 47, 62
1, 660263, Note_off_c, 0, 55, 64
1, 660545, Note_on_c, 0, 76, 99
1, 660563, Note_off_c, 0, 64, 61
1, 660830, Note_on_c, 0, 71, 81
1, 660902, Note_off_c, 0, 76, 60
1, 660984, Note_on_c, 0, 72, 80
1, 661005, Note_off_c, 0, 71, 62
1, 661087, Note_on_c, 0, 71, 86
1, 661141, Note_off_c, 0, 72, 57
1, 661175, Note_on_c, 0, 69, 86
1, 661228, Note_off_c, 0, 71, 61
1, 661270, Note_off_c, 0, 69, 62
1, 661270, Note_on_c, 0, 67, 86
1, 661360, Note_on_c, 0, 69, 82
1, 661413, Note_off_c, 0, 67, 24
1, 661446, Note_on_c, 0, 67, 72
1, 661490, Note_off_c, 0, 69, 59
1, 661542, Note_on_c, 0, 66, 87
1, 661565, Note_off_c, 0, 67, 64
1, 661627, Control_c, 0, 64, 86
1, 661628, Note_off_c, 0, 66, 60
1, 661633, Note_on_c, 0, 64, 75
1, 661642, Control_c, 0, 64, 64
1, 661657, Control_c, 0, 64, 36
1, 661671, Control_c, 0, 64, 0
1, 661701, Control_c, 0, 64, 45
1, 661716, Control_c, 0, 64, 59
1, 661717, Note_on_c, 0, 66, 81
1, 661723, Note_off_c, 0, 64, 61
1, 661731, Control_c, 0, 64, 67
1, 661745, Control_c, 0, 64, 77
1, 661760, Control_c, 0, 64, 91
1, 661775, Control_c, 0, 64, 109
1, 661790, Control_c, 0, 64, 127
1, 661794, Note_on_c, 0, 67, 78
1, 661795, Note_off_c, 0, 66, 63
1, 661826, Note_off_c, 0, 67, 62
1, 661869, Note_on_c, 0, 69, 81
1, 661939, Note_on_c, 0, 71, 84
1, 661958, Note_off_c, 0, 69, 56
1, 661968, Control_c, 0, 64, 118
1, 661982, Note_on_c, 0, 73, 74
1, 661983, Control_c, 0, 64, 76
1, 661998, Control_c, 0, 64, 59
1, 662013, Control_c, 0, 64, 39
1, 662027, Control_c, 0, 64, 46
1, 662031, Note_off_c, 0, 71, 62
1, 662042, Control_c, 0, 64, 57
1, 662044, Note_on_c, 0, 75, 74
1, 662057, Control_c, 0, 64, 66
1, 662068, Note_off_c, 0, 73, 63
1, 662072, Control_c, 0, 64, 76
1, 662084, Note_off_c, 0, 75, 63
1, 662087, Control_c, 0, 64, 98
1, 662102, Control_c, 0, 64, 127
1, 662110, Note_on_c, 0, 76, 92
1, 662179, Note_on_c, 0, 78, 86
1, 662191, Note_off_c, 0, 76, 59
1, 662225, Note_on_c, 0, 79, 78
1, 662232, Note_off_c, 0, 78, 65
1, 662246, Note_off_c, 0, 79, 70
1, 662281, Note_on_c, 0, 81, 92
1, 662346, Note_on_c, 0, 83, 89
1, 662387, Note_off_c, 0, 81, 51
1, 662420, Control_c, 0, 64, 86
1, 662421, Note_on_c, 0, 52, 67
1, 662435, Control_c, 0, 64, 65
1, 662439, Note_on_c, 0, 84, 84
1, 662450, Control_c, 0, 64, 41
1, 662457, Note_off_c, 0, 83, 63
1, 662465, Control_c, 0, 64, 0
1, 662480, Control_c, 0, 64, 49
1, 662494, Control_c, 0, 64, 62
1, 662509, Control_c, 0, 64, 73
1, 662512, Note_off_c, 0, 84, 62
1, 662524, Control_c, 0, 64, 93
1, 662528, Note_on_c, 0, 83, 80
1, 662539, Control_c, 0, 64, 127
1, 662577, Note_off_c, 0, 83, 63
1, 662580, Note_on_c, 0, 84, 74
1, 662626, Note_off_c, 0, 84, 60
1, 662635, Note_on_c, 0, 83, 73
1, 662675, Note_off_c, 0, 52, 60
1, 662686, Note_off_c, 0, 83, 63
1, 662688, Note_on_c, 0, 84, 73
1, 662731, Note_off_c, 0, 84, 60
1, 662733, Note_on_c, 0, 64, 84
1, 662740, Note_on_c, 0, 83, 70
1, 662762, Note_off_c, 0, 64, 62
1, 662790, Note_on_c, 0, 84, 74
1, 662790, Note_off_c, 0, 83, 63
1, 662844, Note_off_c, 0, 84, 62
1, 662852, Note_on_c, 0, 83, 74
1, 662912, Note_off_c, 0, 83, 64
1, 662913, Note_on_c, 0, 84, 72
1, 662954, Note_on_c, 0, 59, 75
1, 662965, Note_off_c, 0, 84, 63
1, 662975, Note_on_c, 0, 83, 67
1, 663006, Control_c, 0, 64, 88
1, 663021, Control_c, 0, 64, 67
1, 663030, Note_off_c, 0, 83, 63
1, 663035, Note_on_c, 0, 84, 72
1, 663036, Control_c, 0, 64, 50
1, 663050, Control_c, 0, 64, 49
1, 663061, Note_off_c, 0, 59, 61
1, 663065, Control_c, 0, 64, 59
1, 663074, Note_on_c, 0, 60, 85
1, 663080, Control_c, 0, 64, 69
1, 663085, Note_off_c, 0, 84, 60
1, 663095, Control_c, 0, 64, 83
1, 663100, Note_on_c, 0, 83, 68
1, 663110, Control_c, 0, 64, 115
1, 663124, Control_c, 0, 64, 127
1, 663136, Note_off_c, 0, 83, 60
1, 663151, Note_on_c, 0, 84, 73
1, 663170, Note_on_c, 0, 59, 89
1, 663197, Note_off_c, 0, 84, 60
1, 663205, Note_off_c, 0, 60, 26
1, 663214, Note_on_c, 0, 83, 80
1, 663250, Note_on_c, 0, 57, 79
1, 663257, Note_off_c, 0, 59, 65
1, 663266, Note_on_c, 0, 84, 77
1, 663266, Note_off_c, 0, 83, 58
1, 663317, Note_off_c, 0, 84, 61
1, 663317, Control_c, 0, 64, 82
1, 663332, Control_c, 0, 64, 61
1, 663333, Note_on_c, 0, 55, 79
1, 663333, Note_on_c, 0, 83, 77
1, 663342, Note_off_c, 0, 57, 63
1, 663347, Control_c, 0, 64, 0
1, 663373, Note_off_c, 0, 83, 59
1, 663382, Note_off_c, 0, 55, 64
1, 663391, Control_c, 0, 64, 33
1, 663404, Note_on_c, 0, 84, 78
1, 663406, Control_c, 0, 64, 55
1, 663416, Note_on_c, 0, 57, 87
1, 663421, Control_c, 0, 64, 67
1, 663435, Control_c, 0, 64, 76
1, 663443, Note_off_c, 0, 84, 61
1, 663450, Control_c, 0, 64, 89
1, 663452, Note_on_c, 0, 83, 79
1, 663466, Control_c, 0, 64, 99
1, 663481, Control_c, 0, 64, 109
1, 663496, Control_c, 0, 64, 120
1, 663503, Note_on_c, 0, 55, 79
1, 663508, Note_off_c, 0, 57, 64
1, 663510, Note_on_c, 0, 84, 79
1, 663511, Control_c, 0, 64, 127
1, 663512, Note_off_c, 0, 83, 61
1, 663572, Note_on_c, 0, 54, 79
1, 663574, Note_off_c, 0, 84, 62
1, 663580, Note_on_c, 0, 83, 82
1, 663585, Note_off_c, 0, 55, 61
1, 663651, Note_off_c, 0, 83, 54
1, 663667, Control_c, 0, 64, 101
1, 663670, Note_on_c, 0, 84, 77
1, 663681, Control_c, 0, 64, 73
1, 663682, Note_on_c, 0, 52, 76
1, 663684, Note_off_c, 0, 54, 62
1, 663696, Control_c, 0, 64, 56
1, 663711, Control_c, 0, 64, 0
1, 663726, Note_off_c, 0, 84, 61
1, 663736, Note_on_c, 0, 83, 76
1, 663793, Note_on_c, 0, 84, 71
1, 663797, Note_off_c, 0, 83, 57
1, 663829, Note_on_c, 0, 54, 68
1, 663829, Control_c, 0, 64, 51
1, 663844, Note_off_c, 0, 52, 60
1, 663844, Control_c, 0, 64, 64
1, 663852, Note_off_c, 0, 84, 62
1, 663859, Control_c, 0, 64, 72
1, 663863, Note_on_c, 0, 83, 68
1, 663873, Control_c, 0, 64, 79
1, 663888, Control_c, 0, 64, 87
1, 663898, Note_on_c, 0, 55, 75
1, 663903, Control_c, 0, 64, 93
1, 663910, Note_off_c, 0, 54, 62
1, 663914, Note_off_c, 0, 83, 58
1, 663918, Control_c, 0, 64, 100
1, 663925, Note_on_c, 0, 84, 81
1, 663933, Control_c, 0, 64, 112
1, 663947, Control_c, 0, 64, 127
1, 663965, Note_on_c, 0, 57, 81
1, 663975, Note_off_c, 0, 55, 63
1, 663979, Note_off_c, 0, 84, 63
1, 663986, Note_on_c, 0, 83, 78
1, 664023, Note_off_c, 0, 57, 54
1, 664033, Note_on_c, 0, 59, 77
1, 664033, Note_on_c, 0, 84, 74
1, 664039, Note_off_c, 0, 83, 58
1, 664086, Note_off_c, 0, 84, 62
1, 664099, Note_on_c, 0, 83, 74
1, 664104, Note_on_c, 0, 61, 83
1, 664108, Note_off_c, 0, 59, 57
1, 664151, Note_on_c, 0, 84, 84
1, 664151, Note_off_c, 0, 83, 61
1, 664168, Note_on_c, 0, 63, 87
1, 664176, Note_off_c, 0, 61, 60
1, 664202, Note_off_c, 0, 84, 61
1, 664217, Note_on_c, 0, 83, 78
1, 664223, Note_off_c, 0, 63, 65
1, 664229, Control_c, 0, 64, 120
1, 664230, Note_on_c, 0, 64, 79
1, 664244, Control_c, 0, 64, 80
1, 664260, Control_c, 0, 64, 64
1, 664269, Note_on_c, 0, 84, 80
1, 664272, Note_off_c, 0, 83, 60
1, 664275, Control_c, 0, 64, 58
1, 664289, Control_c, 0, 64, 64
1, 664298, Note_on_c, 0, 66, 86
1, 664304, Control_c, 0, 64, 72
1, 664308, Note_off_c, 0, 64, 61
1, 664319, Control_c, 0, 64, 88
1, 664323, Note_off_c, 0, 84, 60
1, 664329, Note_on_c, 0, 83, 83
1, 664334, Control_c, 0, 64, 127
1, 664366, Note_on_c, 0, 67, 82
1, 664383, Note_on_c, 0, 84, 82
1, 664385, Note_off_c, 0, 83, 62
1, 664416, Note_off_c, 0, 66, 61
1, 664420, Note_on_c, 0, 69, 83
1, 664446, Note_off_c, 0, 67, 64
1, 664448, Note_on_c, 0, 83, 82
1, 664448, Note_off_c, 0, 84, 63
1, 664478, Note_on_c, 0, 71, 83
1, 664487, Note_off_c, 0, 69, 65
1, 664513, Note_on_c, 0, 84, 87
1, 664514, Note_off_c, 0, 83, 61
1, 664549, Control_c, 0, 64, 94
1, 664557, Note_off_c, 0, 84, 62
1, 664564, Note_on_c, 0, 83, 72
1, 664564, Control_c, 0, 64, 68
1, 664578, Control_c, 0, 64, 47
1, 664581, Note_on_c, 0, 72, 71
1, 664581, Note_off_c, 0, 71, 64
1, 664593, Control_c, 0, 64, 52
1, 664608, Control_c, 0, 64, 64
1, 664612, Note_off_c, 0, 83, 60
1, 664622, Control_c, 0, 64, 76
1, 664628, Note_on_c, 0, 84, 79
1, 664633, Note_on_c, 0, 71, 63
1, 664633, Note_off_c, 0, 72, 62
1, 664637, Control_c, 0, 64, 127
1, 664654, Note_off_c, 0, 84, 64
1, 664671, Note_on_c, 0, 83, 80
1, 664687, Note_off_c, 0, 71, 62
1, 664694, Note_on_c, 0, 72, 71
1, 664710, Note_off_c, 0, 83, 61
1, 664726, Note_on_c, 0, 84, 81
1, 664744, Note_on_c, 0, 71, 77
1, 664746, Note_off_c, 0, 84, 57
1, 664751, Note_off_c, 0, 72, 62
1, 664771, Note_on_c, 0, 83, 86
1, 664789, Note_off_c, 0, 71, 63
1, 664810, Note_on_c, 0, 72, 75
1, 664816, Note_off_c, 0, 83, 61
1, 664824, Note_on_c, 0, 84, 88
1, 664862, Note_on_c, 0, 71, 80
1, 664862, Note_off_c, 0, 72, 63
1, 664871, Note_on_c, 0, 83, 88
1, 664874, Note_off_c, 0, 84, 62
1, 664895, Note_off_c, 0, 71, 58
1, 664914, Note_off_c, 0, 83, 63
1, 664922, Note_on_c, 0, 72, 79
1, 664929, Note_on_c, 0, 84, 85
1, 664972, Note_off_c, 0, 72, 64
1, 664977, Note_on_c, 0, 71, 81
1, 664979, Note_on_c, 0, 83, 90
1, 664981, Note_off_c, 0, 84, 64
1, 665023, Note_off_c, 0, 83, 64
1, 665024, Note_off_c, 0, 71, 60
1, 665029, Note_on_c, 0, 72, 75
1, 665034, Note_on_c, 0, 84, 89
1, 665037, Control_c, 0, 64, 99
1, 665052, Control_c, 0, 64, 69
1, 665068, Control_c, 0, 64, 49
1, 665083, Control_c, 0, 64, 54
1, 665085, Note_on_c, 0, 71, 82
1, 665086, Note_off_c, 0, 72, 64
1, 665088, Note_off_c, 0, 84, 64
1, 665089, Note_on_c, 0, 83, 90
1, 665098, Control_c, 0, 64, 64
1, 665112, Control_c, 0, 64, 77
1, 665127, Control_c, 0, 64, 117
1, 665143, Note_off_c, 0, 83, 58
1, 665148, Note_off_c, 0, 71, 61
1, 665149, Note_on_c, 0, 84, 94
1, 665150, Control_c, 0, 64, 127
1, 665155, Note_on_c, 0, 72, 81
1, 665201, Note_off_c, 0, 84, 60
1, 665204, Note_on_c, 0, 83, 85
1, 665207, Note_on_c, 0, 71, 80
1, 665208, Note_off_c, 0, 72, 65
1, 665253, Note_off_c, 0, 83, 58
1, 665258, Note_on_c, 0, 84, 86
1, 665261, Note_off_c, 0, 71, 61
1, 665267, Note_on_c, 0, 72, 85
1, 665303, Note_off_c, 0, 84, 62
1, 665307, Note_on_c, 0, 83, 79
1, 665315, Note_off_c, 0, 72, 63
1, 665321, Note_on_c, 0, 71, 78
1, 665355, Note_on_c, 0, 84, 79
1, 665357, Note_off_c, 0, 83, 64
1, 665378, Note_on_c, 0, 72, 80
1, 665378, Note_off_c, 0, 71, 60
1, 665396, Note_off_c, 0, 84, 60
1, 665403, Note_on_c, 0, 83, 71
1, 665425, Note_on_c, 0, 71, 73
1, 665425, Note_off_c, 0, 72, 62
1, 665447, Note_on_c, 0, 84, 79
1, 665453, Note_off_c, 0, 83, 64
1, 665475, Note_off_c, 0, 71, 59
1, 665480, Note_on_c, 0, 72, 81
1, 665494, Note_off_c, 0, 84, 63
1, 665500, Note_on_c, 0, 83, 74
1, 665545, Note_on_c, 0, 71, 61
1, 665551, Note_off_c, 0, 72, 60
1, 665552, Note_off_c, 0, 83, 65
1, 665553, Note_on_c, 0, 81, 84
1, 665566, Note_on_c, 0, 69, 73
1, 665574, Note_off_c, 0, 71, 66
1, 665578, Note_off_c, 0, 81, 60
1, 665621, Note_on_c, 0, 83, 88
1, 665628, Note_off_c, 0, 69, 61
1, 665632, Note_on_c, 0, 71, 77
1, 665665, Note_off_c, 0, 71, 60
1, 665668, Control_c, 0, 64, 83
1, 665683, Control_c, 0, 64, 63
1, 665698, Control_c, 0, 64, 0
1, 665709, Note_off_c, 0, 83, 36
1, 665712, Note_on_c, 0, 86, 85
1, 665717, Note_on_c, 0, 71, 65
1, 665742, Control_c, 0, 64, 39
1, 665757, Control_c, 0, 64, 56
1, 665771, Control_c, 0, 64, 66
1, 665786, Control_c, 0, 64, 73
1, 665801, Control_c, 0, 64, 81
1, 665816, Control_c, 0, 64, 88
1, 665831, Control_c, 0, 64, 91
1, 665846, Control_c, 0, 64, 94
1, 665861, Control_c, 0, 64, 96
1, 665899, Control_c, 0, 64, 98
1, 665987, Control_c, 0, 64, 94
1, 666002, Control_c, 0, 64, 82
1, 666017, Control_c, 0, 64, 70
1, 666032, Control_c, 0, 64, 59
1, 666047, Control_c, 0, 64, 36
1, 666061, Control_c, 0, 64, 0
1, 666063, Note_off_c, 0, 71, 64
1, 666084, Note_on_c, 0, 72, 64
1, 666093, Note_on_c, 0, 84, 77
1, 666106, Note_off_c, 0, 86, 62
1, 666106, Control_c, 0, 64, 44
1, 666121, Control_c, 0, 64, 56
1, 666135, Control_c, 0, 64, 66
1, 666150, Control_c, 0, 64, 76
1, 666165, Control_c, 0, 64, 89
1, 666180, Control_c, 0, 64, 101
1, 666195, Control_c, 0, 64, 112
1, 666209, Control_c, 0, 64, 127
1, 666267, Note_off_c, 0, 84, 60
1, 666304, Note_off_c, 0, 72, 55
1, 666329, Control_c, 0, 64, 106
1, 666341, Note_on_c, 0, 73, 67
1, 666343, Control_c, 0, 64, 79
1, 666347, Note_on_c, 0, 84, 93
1, 666358, Control_c, 0, 64, 65
1, 666373, Control_c, 0, 64, 58
1, 666387, Control_c, 0, 64, 63
1, 666402, Control_c, 0, 64, 67
1, 666417, Control_c, 0, 64, 74
1, 666432, Control_c, 0, 64, 88
1, 666445, Note_off_c, 0, 84, 61
1, 666447, Control_c, 0, 64, 127
1, 666500, Note_off_c, 0, 73, 63
1, 666530, Note_on_c, 0, 84, 102
1, 666532, Note_on_c, 0, 74, 97
1, 666624, Note_off_c, 0, 84, 61
1, 666660, Note_off_c, 0, 74, 60
1, 666705, Note_on_c, 0, 75, 96
1, 666708, Note_on_c, 0, 84, 110
1, 666806, Note_off_c, 0, 84, 61
1, 666864, Note_on_c, 0, 76, 98
1, 666874, Note_on_c, 0, 84, 105
1, 666901, Note_off_c, 0, 75, 62
1, 666966, Note_off_c, 0, 84, 60
1, 667121, Control_c, 0, 64, 97
1, 667127, Note_off_c, 0, 76, 56
1, 667135, Control_c, 0, 64, 73
1, 667143, Note_on_c, 0, 84, 75
1, 667150, Control_c, 0, 64, 59
1, 667161, Note_on_c, 0, 79, 66
1, 667165, Control_c, 0, 64, 42
1, 667180, Control_c, 0, 64, 36
1, 667195, Control_c, 0, 64, 41
1, 667209, Control_c, 0, 64, 54
1, 667224, Control_c, 0, 64, 63
1, 667239, Control_c, 0, 64, 70
1, 667254, Control_c, 0, 64, 80
1, 667269, Control_c, 0, 64, 102
1, 667276, Note_off_c, 0, 84, 62
1, 667283, Control_c, 0, 64, 127
1, 667347, Note_off_c, 0, 79, 58
1, 667455, Control_c, 0, 64, 87
1, 667465, Note_on_c, 0, 84, 70
1, 667470, Control_c, 0, 64, 67
1, 667472, Note_on_c, 0, 77, 48
1, 667476, Note_on_c, 0, 80, 58
1, 667485, Control_c, 0, 64, 62
1, 667500, Control_c, 0, 64, 65
1, 667515, Control_c, 0, 64, 73
1, 667530, Control_c, 0, 64, 86
1, 667545, Control_c, 0, 64, 116
1, 667560, Control_c, 0, 64, 127
1, 667563, Note_off_c, 0, 80, 48
1, 667583, Note_off_c, 0, 84, 56
1, 667584, Note_off_c, 0, 77, 60
1, 667685, Note_on_c, 0, 80, 68
1, 667689, Note_on_c, 0, 84, 79
1, 667691, Note_on_c, 0, 77, 67
1, 667717, Note_off_c, 0, 77, 66
1, 667718, Note_off_c, 0, 80, 58
1, 667740, Note_off_c, 0, 84, 60
1, 667846, Note_on_c, 0, 84, 83
1, 667852, Note_on_c, 0, 77, 69
1, 667855, Note_on_c, 0, 80, 61
1, 667879, Note_off_c, 0, 77, 67
1, 667880, Note_off_c, 0, 80, 65
1, 667894, Note_off_c, 0, 84, 61
1, 667986, Note_on_c, 0, 80, 71
1, 667987, Note_on_c, 0, 77, 70
1, 667990, Note_on_c, 0, 84, 88
1, 668016, Note_off_c, 0, 80, 62
1, 668020, Note_off_c, 0, 77, 61
1, 668023, Note_off_c, 0, 84, 56
1, 668112, Note_on_c, 0, 77, 85
1, 668114, Note_on_c, 0, 84, 98
1, 668116, Note_on_c, 0, 80, 81
1, 668153, Note_off_c, 0, 80, 57
1, 668160, Note_off_c, 0, 77, 60
1, 668163, Note_off_c, 0, 84, 64
1, 668238, Note_on_c, 0, 77, 93
1, 668242, Note_on_c, 0, 80, 87
1, 668242, Note_on_c, 0, 84, 95
1, 668278, Note_off_c, 0, 77, 65
1, 668287, Note_off_c, 0, 84, 62
1, 668288, Note_off_c, 0, 80, 61
1, 668357, Note_on_c, 0, 77, 97
1, 668362, Note_on_c, 0, 84, 98
1, 668362, Note_on_c, 0, 80, 88
1, 668395, Note_off_c, 0, 77, 65
1, 668409, Note_off_c, 0, 84, 63
1, 668412, Note_off_c, 0, 80, 61
1, 668472, Note_on_c, 0, 80, 83
1, 668477, Note_on_c, 0, 77, 94
1, 668478, Note_on_c, 0, 84, 91
1, 668517, Note_off_c, 0, 77, 61
1, 668520, Note_off_c, 0, 80, 60
1, 668538, Note_off_c, 0, 84, 62
1, 668650, Note_on_c, 0, 77, 56
1, 668657, Note_on_c, 0, 84, 81
1, 668663, Control_c, 0, 64, 89
1, 668678, Control_c, 0, 64, 67
1, 668693, Control_c, 0, 64, 49
1, 668707, Control_c, 0, 64, 0
1, 668737, Control_c, 0, 64, 34
1, 668752, Control_c, 0, 64, 49
1, 668767, Control_c, 0, 64, 60
1, 668782, Note_off_c, 0, 84, 63
1, 668782, Control_c, 0, 64, 66
1, 668797, Control_c, 0, 64, 75
1, 668812, Note_off_c, 0, 77, 61
1, 668812, Control_c, 0, 64, 95
1, 668827, Control_c, 0, 64, 127
1, 668836, Note_on_c, 0, 96, 82
1, 668841, Note_on_c, 0, 78, 60
1, 668934, Note_off_c, 0, 78, 63
1, 668955, Note_off_c, 0, 96, 53
1, 668977, Note_on_c, 0, 79, 63
1, 668978, Note_on_c, 0, 84, 84
1, 669026, Control_c, 0, 64, 85
1, 669041, Control_c, 0, 64, 67
1, 669053, Note_off_c, 0, 84, 62
1, 669056, Control_c, 0, 64, 59
1, 669072, Control_c, 0, 64, 63
1, 669074, Note_off_c, 0, 79, 45
1, 669086, Control_c, 0, 64, 68
1, 669095, Note_on_c, 0, 96, 89
1, 669097, Note_on_c, 0, 80, 65
1, 669101, Control_c, 0, 64, 75
1, 669116, Control_c, 0, 64, 88
1, 669131, Control_c, 0, 64, 127
1, 669176, Note_off_c, 0, 80, 59
1, 669199, Note_on_c, 0, 79, 67
1, 669200, Note_on_c, 0, 84, 100
1, 669211, Note_off_c, 0, 96, 40
1, 669257, Note_off_c, 0, 84, 65
1, 669288, Note_on_c, 0, 80, 82
1, 669294, Control_c, 0, 64, 120
1, 669296, Note_off_c, 0, 79, 55
1, 669297, Note_on_c, 0, 96, 101
1, 669309, Control_c, 0, 64, 77
1, 669324, Control_c, 0, 64, 59
1, 669338, Control_c, 0, 64, 44
1, 669353, Control_c, 0, 64, 54
1, 669368, Control_c, 0, 64, 64
1, 669382, Note_off_c, 0, 80, 59
1, 669383, Control_c, 0, 64, 75
1, 669392, Note_on_c, 0, 82, 98
1, 669395, Note_on_c, 0, 84, 105
1, 669398, Control_c, 0, 64, 104
1, 669403, Note_off_c, 0, 96, 42
1, 669412, Control_c, 0, 64, 127
1, 669452, Note_off_c, 0, 84, 66
1, 669454, Note_off_c, 0, 82, 59
1, 669486, Note_on_c, 0, 79, 87
1, 669488, Note_on_c, 0, 96, 105
1, 669569, Note_off_c, 0, 96, 58
1, 669582, Note_on_c, 0, 84, 107
1, 669583, Note_on_c, 0, 80, 91
1, 669599, Note_off_c, 0, 79, 62
1, 669642, Control_c, 0, 64, 78
1, 669643, Note_off_c, 0, 84, 67
1, 669657, Control_c, 0, 64, 60
1, 669672, Control_c, 0, 64, 54
1, 669682, Note_on_c, 0, 96, 102
1, 669684, Note_on_c, 0, 82, 92
1, 669685, Note_off_c, 0, 80, 61
1, 669686, Control_c, 0, 64, 63
1, 669701, Control_c, 0, 64, 73
1, 669716, Control_c, 0, 64, 95
1, 669731, Control_c, 0, 64, 127
1, 669751, Note_off_c, 0, 82, 57
1, 669764, Note_off_c, 0, 96, 57
1, 669772, Note_on_c, 0, 84, 103
1, 669781, Note_on_c, 0, 79, 87
1, 669822, Note_off_c, 0, 84, 68
1, 669864, Note_on_c, 0, 96, 107
1, 669870, Note_on_c, 0, 80, 92
1, 669881, Note_off_c, 0, 79, 60
1, 669939, Note_off_c, 0, 96, 56
1, 669955, Note_on_c, 0, 84, 112
1, 669961, Note_on_c, 0, 82, 98
1, 669980, Note_off_c, 0, 80, 54
1, 670009, Note_off_c, 0, 84, 66
1, 670019, Note_off_c, 0, 82, 63
1, 670049, Note_on_c, 0, 96, 106
1, 670054, Note_on_c, 0, 79, 85
1, 670141, Note_on_c, 0, 84, 104
1, 670143, Note_off_c, 0, 96, 53
1, 670145, Note_on_c, 0, 80, 97
1, 670149, Note_off_c, 0, 79, 64
1, 670198, Note_off_c, 0, 84, 67
1, 670240, Note_on_c, 0, 82, 100
1, 670240, Note_on_c, 0, 96, 109
1, 670263, Note_off_c, 0, 80, 59
1, 670329, Note_on_c, 0, 84, 107
1, 670332, Note_off_c, 0, 82, 62
1, 670334, Note_on_c, 0, 79, 74
1, 670344, Note_off_c, 0, 96, 61
1, 670345, Note_on_c, 0, 95, 29
1, 670391, Note_off_c, 0, 95, 43
1, 670398, Note_off_c, 0, 84, 66
1, 670416, Note_on_c, 0, 80, 76
1, 670418, Note_off_c, 0, 79, 66
1, 670430, Note_on_c, 0, 96, 99
1, 670431, Note_off_c, 0, 80, 70
1, 670532, Note_off_c, 0, 96, 53
1, 670568, Control_c, 0, 64, 107
1, 670583, Control_c, 0, 64, 70
1, 670596, Note_on_c, 0, 85, 104
1, 670598, Control_c, 0, 64, 44
1, 670612, Note_on_c, 0, 42, 77
1, 670613, Control_c, 0, 64, 0
1, 670628, Control_c, 0, 64, 46
1, 670642, Control_c, 0, 64, 63
1, 670658, Control_c, 0, 64, 79
1, 670673, Control_c, 0, 64, 125
1, 670688, Control_c, 0, 64, 127
1, 670728, Note_off_c, 0, 42, 61
1, 670754, Note_off_c, 0, 85, 57
1, 670767, Note_on_c, 0, 43, 85
1, 670773, Note_on_c, 0, 97, 98
1, 670794, Note_on_c, 0, 93, 51
1, 670838, Note_off_c, 0, 93, 44
1, 670854, Note_on_c, 0, 44, 94
1, 670866, Note_off_c, 0, 43, 62
1, 670869, Note_on_c, 0, 85, 101
1, 670891, Note_off_c, 0, 97, 65
1, 670949, Note_off_c, 0, 44, 55
1, 670950, Note_on_c, 0, 45, 100
1, 670950, Poly_aftertouch_c, 0, 93, 0
1, 670964, Note_on_c, 0, 97, 95
1, 670971, Poly_aftertouch_c, 0, 93, 0
1, 670976, Note_off_c, 0, 85, 67
1, 671042, Note_on_c, 0, 44, 90
1, 671047, Note_on_c, 0, 85, 101
1, 671048, Note_off_c, 0, 45, 64
1, 671058, Poly_aftertouch_c, 0, 93, 0
1, 671065, Note_off_c, 0, 97, 65
1, 671115, Poly_aftertouch_c, 0, 93, 0
1, 671140, Note_on_c, 0, 45, 96
1, 671146, Note_on_c, 0, 97, 97
1, 671155, Note_off_c, 0, 44, 62
1, 671158, Note_off_c, 0, 85, 66
1, 671228, Note_on_c, 0, 85, 104
1, 671235, Note_on_c, 0, 47, 100
1, 671238, Poly_aftertouch_c, 0, 93, 127
1, 671258, Note_off_c, 0, 45, 61
1, 671259, Note_off_c, 0, 97, 64
1, 671289, Poly_aftertouch_c, 0, 93, 0
1, 671302, Control_c, 0, 64, 96
1, 671310, Note_on_c, 0, 97, 88
1, 671316, Control_c, 0, 64, 67
1, 671317, Note_on_c, 0, 44, 91
1, 671328, Note_off_c, 0, 85, 65
1, 671331, Control_c, 0, 64, 0
1, 671334, Note_off_c, 0, 47, 66
1, 671407, Note_on_c, 0, 85, 98
1, 671408, Note_on_c, 0, 45, 96
1, 671423, Note_off_c, 0, 44, 62
1, 671424, Note_off_c, 0, 97, 66
1, 671450, Control_c, 0, 64, 34
1, 671466, Control_c, 0, 64, 59
1, 671480, Control_c, 0, 64, 68
1, 671495, Control_c, 0, 64, 76
1, 671497, Note_on_c, 0, 97, 99
1, 671498, Note_on_c, 0, 47, 105
1, 671510, Note_off_c, 0, 85, 63
1, 671510, Control_c, 0, 64, 86
1, 671522, Note_off_c, 0, 45, 63
1, 671524, Control_c, 0, 64, 97
1, 671539, Control_c, 0, 64, 110
1, 671554, Control_c, 0, 64, 127
1, 671581, Note_on_c, 0, 44, 90
1, 671582, Note_on_c, 0, 85, 99
1, 671597, Note_off_c, 0, 47, 65
1, 671602, Note_off_c, 0, 97, 63
1, 671675, Note_on_c, 0, 97, 91
1, 671676, Note_on_c, 0, 45, 92
1, 671679, Note_off_c, 0, 85, 63
1, 671688, Note_off_c, 0, 44, 64
1, 671718, Control_c, 0, 64, 90
1, 671732, Control_c, 0, 64, 63
1, 671747, Control_c, 0, 64, 0
1, 671758, Note_on_c, 0, 47, 102
1, 671762, Note_on_c, 0, 85, 103
1, 671771, Note_off_c, 0, 97, 64
1, 671787, Note_off_c, 0, 45, 60
1, 671806, Control_c, 0, 64, 55
1, 671821, Control_c, 0, 64, 69
1, 671836, Control_c, 0, 64, 84
1, 671840, Note_on_c, 0, 44, 88
1, 671849, Note_on_c, 0, 97, 91
1, 671850, Control_c, 0, 64, 111
1, 671855, Note_off_c, 0, 47, 65
1, 671860, Note_off_c, 0, 85, 64
1, 671865, Control_c, 0, 64, 127
1, 671942, Note_on_c, 0, 45, 89
1, 671951, Note_on_c, 0, 85, 99
1, 671959, Note_off_c, 0, 44, 63
1, 671969, Note_off_c, 0, 97, 63
1, 672028, Note_on_c, 0, 47, 103
1, 672039, Note_on_c, 0, 97, 86
1, 672045, Note_off_c, 0, 45, 62
1, 672052, Note_off_c, 0, 85, 63
1, 672112, Note_on_c, 0, 44, 89
1, 672121, Note_off_c, 0, 47, 61
1, 672127, Note_on_c, 0, 85, 93
1, 672136, Note_off_c, 0, 97, 64
1, 672200, Note_on_c, 0, 45, 93
1, 672207, Note_off_c, 0, 44, 63
1, 672209, Note_on_c, 0, 97, 83
1, 672219, Note_off_c, 0, 85, 64
1, 672249, Note_off_c, 0, 45, 64
1, 672259, Control_c, 0, 64, 78
1, 672274, Control_c, 0, 64, 55
1, 672288, Note_on_c, 0, 47, 106
1, 672288, Note_on_c, 0, 85, 95
1, 672288, Note_off_c, 0, 97, 65
1, 672288, Control_c, 0, 64, 34
1, 672303, Control_c, 0, 64, 53
1, 672318, Control_c, 0, 64, 66
1, 672333, Control_c, 0, 64, 81
1, 672347, Control_c, 0, 64, 127
1, 672359, Note_off_c, 0, 85, 62
1, 672374, Note_on_c, 0, 97, 88
1, 672377, Note_on_c, 0, 44, 82
1, 672390, Note_off_c, 0, 47, 62
1, 672426, Poly_aftertouch_c, 0, 93, 127
1, 672438, Note_off_c, 0, 97, 67
1, 672443, Note_on_c, 0, 85, 85
1, 672454, Note_on_c, 0, 45, 85
1, 672457, Note_off_c, 0, 44, 64
1, 672461, Poly_aftertouch_c, 0, 93, 0
1, 672466, Note_off_c, 0, 85, 66
1, 672484, Note_off_c, 0, 45, 66
1, 672541, Control_c, 0, 64, 70
1, 672541, Note_on_c, 0, 81, 105
1, 672555, Control_c, 0, 64, 42
1, 672557, Note_on_c, 0, 50, 100
1, 672570, Control_c, 0, 64, 0
1, 672583, Note_on_c, 0, 52, 44
1, 672583, Note_off_c, 0, 52, 127
1, 672585, Control_c, 0, 64, 53
1, 672600, Control_c, 0, 64, 67
1, 672611, Note_off_c, 0, 81, 56
1, 672615, Control_c, 0, 64, 85
1, 672633, Note_on_c, 0, 93, 86
1, 672636, Control_c, 0, 64, 127
1, 672653, Note_on_c, 0, 48, 79
1, 672653, Poly_aftertouch_c, 0, 52, 0
1, 672659, Note_off_c, 0, 50, 60
1, 672693, Note_off_c, 0, 93, 59
1, 672705, Note_on_c, 0, 81, 94
1, 672714, Note_on_c, 0, 49, 82
1, 672714, Note_off_c, 0, 48, 64
1, 672726, Note_off_c, 0, 81, 67
1, 672740, Note_off_c, 0, 49, 70
1, 672800, Control_c, 0, 64, 74
1, 672801, Note_on_c, 0, 78, 110
1, 672809, Note_on_c, 0, 56, 99
1, 672815, Control_c, 0, 64, 55
1, 672827, Note_on_c, 0, 57, 77
1, 672829, Control_c, 0, 64, 50
1, 672844, Note_on_c, 0, 86, 26
1, 672844, Control_c, 0, 64, 64
1, 672850, Note_off_c, 0, 57, 67
1, 672859, Control_c, 0, 64, 79
1, 672873, Note_off_c, 0, 78, 60
1, 672873, Control_c, 0, 64, 127
1, 672889, Note_on_c, 0, 90, 85
1, 672908, Note_off_c, 0, 56, 61
1, 672909, Note_on_c, 0, 53, 79
1, 672931, Note_off_c, 0, 86, 42
1, 672948, Note_off_c, 0, 90, 66
1, 672955, Note_on_c, 0, 78, 92
1, 672978, Note_off_c, 0, 53, 64
1, 672979, Note_on_c, 0, 54, 80
1, 672982, Note_off_c, 0, 78, 63
1, 673003, Note_off_c, 0, 54, 69
1, 673036, Control_c, 0, 64, 76
1, 673052, Control_c, 0, 64, 48
1, 673057, Note_on_c, 0, 73, 108
1, 673067, Control_c, 0, 64, 44
1, 673069, Note_on_c, 0, 59, 102
1, 673082, Control_c, 0, 64, 60
1, 673097, Control_c, 0, 64, 72
1, 673111, Control_c, 0, 64, 100
1, 673126, Control_c, 0, 64, 127
1, 673138, Note_off_c, 0, 73, 58
1, 673146, Note_on_c, 0, 85, 81
1, 673155, Note_on_c, 0, 56, 75
1, 673156, Note_off_c, 0, 59, 59
1, 673215, Note_off_c, 0, 85, 65
1, 673218, Note_on_c, 0, 73, 91
1, 673235, Note_on_c, 0, 57, 73
1, 673237, Note_off_c, 0, 56, 62
1, 673247, Note_off_c, 0, 73, 61
1, 673261, Note_off_c, 0, 57, 68
1, 673289, Control_c, 0, 64, 114
1, 673304, Control_c, 0, 64, 69
1, 673312, Note_on_c, 0, 69, 100
1, 673319, Control_c, 0, 64, 0
1, 673321, Note_on_c, 0, 62, 101
1, 673349, Control_c, 0, 64, 42
1, 673364, Note_off_c, 0, 69, 66
1, 673364, Control_c, 0, 64, 64
1, 673385, Control_c, 0, 64, 84
1, 673400, Control_c, 0, 64, 127
1, 673418, Note_on_c, 0, 81, 87
1, 673427, Note_on_c, 0, 60, 82
1, 673427, Note_off_c, 0, 62, 57
1, 673449, Note_on_c, 0, 80, 51
1, 673474, Note_off_c, 0, 80, 56
1, 673492, Note_off_c, 0, 60, 66
1, 673495, Note_on_c, 0, 61, 83
1, 673495, Note_on_c, 0, 69, 91
1, 673519, Note_off_c, 0, 81, 40
1, 673527, Note_off_c, 0, 61, 60
1, 673536, Note_off_c, 0, 69, 62
1, 673588, Note_on_c, 0, 80, 93
1, 673601, Note_on_c, 0, 68, 97
1, 673609, Note_on_c, 0, 66, 84
1, 673623, Note_off_c, 0, 66, 70
1, 673680, Note_on_c, 0, 77, 92
1, 673703, Note_off_c, 0, 80, 61
1, 673706, Note_on_c, 0, 65, 71
1, 673708, Note_off_c, 0, 68, 60
1, 673739, Note_on_c, 0, 66, 58
1, 673750, Note_off_c, 0, 65, 64
1, 673763, Note_off_c, 0, 77, 65
1, 673763, Note_on_c, 0, 78, 84
1, 673763, Note_off_c, 0, 66, 68
1, 673781, Note_off_c, 0, 78, 73
1, 673920, Note_on_c, 0, 44, 72
1, 673920, Control_c, 0, 64, 73
1, 673934, Control_c, 0, 64, 0
1, 673949, Note_on_c, 0, 49, 80
1, 673953, Note_off_c, 0, 44, 69
1, 673954, Note_on_c, 0, 52, 85
1, 673954, Note_on_c, 0, 100, 120
1, 673959, Note_on_c, 0, 56, 94
1, 673964, Control_c, 0, 64, 56
1, 673978, Note_off_c, 0, 49, 68
1, 673979, Control_c, 0, 64, 80
1, 673982, Note_on_c, 0, 95, 57
1, 673993, Note_off_c, 0, 52, 61
1, 673994, Control_c, 0, 64, 127
1, 674003, Note_off_c, 0, 95, 63
1, 674004, Note_off_c, 0, 56, 59
1, 674029, Note_on_c, 0, 99, 80
1, 674061, Note_on_c, 0, 97, 84
1, 674115, Note_off_c, 0, 100, 61
1, 674116, Note_on_c, 0, 95, 77
1, 674142, Note_off_c, 0, 99, 63
1, 674157, Note_off_c, 0, 97, 65
1, 674173, Note_on_c, 0, 93, 79
1, 674176, Note_off_c, 0, 95, 64
1, 674213, Note_off_c, 0, 93, 61
1, 674244, Note_on_c, 0, 92, 76
1, 674282, Note_on_c, 0, 90, 79
1, 674317, Note_off_c, 0, 92, 66
1, 674335, Note_on_c, 0, 88, 87
1, 674338, Note_off_c, 0, 90, 65
1, 674398, Note_on_c, 0, 87, 87
1, 674401, Note_off_c, 0, 88, 61
1, 674440, Note_on_c, 0, 85, 80
1, 674481, Note_on_c, 0, 83, 81
1, 674492, Note_off_c, 0, 87, 62
1, 674517, Note_off_c, 0, 85, 64
1, 674533, Note_on_c, 0, 81, 83
1, 674536, Note_off_c, 0, 83, 65
1, 674596, Note_off_c, 0, 81, 56
1, 674601, Note_on_c, 0, 80, 78
1, 674643, Note_on_c, 0, 78, 75
1, 674685, Note_off_c, 0, 80, 62
1, 674701, Note_on_c, 0, 76, 84
1, 674705, Note_off_c, 0, 78, 64
1, 674743, Note_off_c, 0, 76, 60
1, 674770, Note_on_c, 0, 75, 82
1, 674812, Note_on_c, 0, 73, 80
1, 674843, Note_off_c, 0, 75, 59
1, 674860, Note_on_c, 0, 71, 71
1, 674893, Note_off_c, 0, 73, 64
1, 674903, Note_on_c, 0, 69, 78
1, 674908, Note_off_c, 0, 71, 63
1, 674914, Control_c, 0, 64, 76
1, 674923, Note_on_c, 0, 56, 90
1, 674929, Control_c, 0, 64, 42
1, 674944, Control_c, 0, 64, 0
1, 674958, Control_c, 0, 64, 44
1, 674966, Note_on_c, 0, 68, 85
1, 674973, Control_c, 0, 64, 66
1, 674974, Note_off_c, 0, 69, 62
1, 674988, Control_c, 0, 64, 89
1, 675003, Control_c, 0, 64, 127
1, 675007, Note_on_c, 0, 70, 27
1, 675010, Note_on_c, 0, 54, 83
1, 675027, Note_on_c, 0, 66, 84
1, 675030, Note_off_c, 0, 56, 60
1, 675042, Note_off_c, 0, 70, 44
1, 675066, Note_off_c, 0, 68, 63
1, 675071, Note_off_c, 0, 54, 63
1, 675087, Note_on_c, 0, 64, 83
1, 675090, Note_off_c, 0, 66, 64
1, 675093, Note_on_c, 0, 52, 84
1, 675155, Note_on_c, 0, 63, 86
1, 675158, Note_on_c, 0, 51, 85
1, 675162, Note_off_c, 0, 64, 60
1, 675175, Note_off_c, 0, 52, 60
1, 675204, Note_on_c, 0, 49, 83
1, 675204, Note_on_c, 0, 61, 84
1, 675221, Note_off_c, 0, 51, 63
1, 675247, Note_on_c, 0, 59, 78
1, 675248, Note_off_c, 0, 49, 61
1, 675257, Note_off_c, 0, 63, 62
1, 675270, Note_on_c, 0, 47, 91
1, 675293, Note_off_c, 0, 61, 61
1, 675301, Note_on_c, 0, 57, 77
1, 675310, Note_off_c, 0, 59, 63
1, 675339, Note_on_c, 0, 45, 92
1, 675348, Note_off_c, 0, 47, 63
1, 675370, Note_on_c, 0, 56, 81
1, 675377, Note_off_c, 0, 57, 58
1, 675388, Note_on_c, 0, 44, 79
1, 675403, Note_on_c, 0, 58, 44
1, 675417, Note_on_c, 0, 54, 80
1, 675417, Note_off_c, 0, 45, 63
1, 675432, Note_off_c, 0, 58, 54
1, 675450, Note_off_c, 0, 44, 63
1, 675465, Note_off_c, 0, 56, 60
1, 675467, Note_on_c, 0, 42, 13
1, 675481, Note_on_c, 0, 52, 85
1, 675486, Note_off_c, 0, 54, 65
1, 675493, Note_on_c, 0, 40, 76
1, 675509, Note_off_c, 0, 42, 54
1, 675550, Note_on_c, 0, 51, 80
1, 675552, Note_off_c, 0, 52, 56
1, 675575, Note_on_c, 0, 38, 70
1, 675575, Note_off_c, 0, 40, 60
1, 675596, Note_on_c, 0, 49, 78
1, 675602, Note_on_c, 0, 37, 76
1, 675617, Note_off_c, 0, 38, 64
1, 675639, Note_on_c, 0, 47, 74
1, 675644, Note_off_c, 0, 37, 62
1, 675646, Note_off_c, 0, 51, 62
1, 675674, Note_off_c, 0, 49, 64
1, 675675, Note_on_c, 0, 35, 77
1, 675692, Note_off_c, 0, 47, 63
1, 675695, Note_on_c, 0, 45, 81
1, 675736, Control_c, 0, 64, 83
1, 675741, Note_on_c, 0, 33, 88
1, 675748, Note_off_c, 0, 35, 62
1, 675751, Control_c, 0, 64, 55
1, 675757, Note_on_c, 0, 44, 90
1, 675763, Note_off_c, 0, 45, 64
1, 675766, Control_c, 0, 64, 0
1, 675773, Note_on_c, 0, 32, 80
1, 675810, Note_off_c, 0, 33, 61
1, 675811, Control_c, 0, 64, 42
1, 675825, Control_c, 0, 64, 64
1, 675840, Control_c, 0, 64, 79
1, 675855, Control_c, 0, 64, 107
1, 675870, Control_c, 0, 64, 127
1, 675909, Note_off_c, 0, 44, 63
1, 675978, Note_on_c, 0, 31, 83
1, 676029, Note_off_c, 0, 32, 28
1, 676121, Control_c, 0, 64, 79
1, 676136, Control_c, 0, 64, 52
1, 676149, Note_on_c, 0, 49, 83
1, 676151, Control_c, 0, 64, 0
1, 676153, Note_on_c, 0, 56, 79
1, 676154, Note_on_c, 0, 32, 81
1, 676166, Control_c, 0, 64, 36
1, 676167, Note_on_c, 0, 52, 64
1, 676179, Note_off_c, 0, 31, 59
1, 676181, Control_c, 0, 64, 58
1, 676195, Control_c, 0, 64, 71
1, 676210, Control_c, 0, 64, 93
1, 676225, Control_c, 0, 64, 127
1, 676240, Note_off_c, 0, 49, 61
1, 676257, Note_off_c, 0, 52, 61
1, 676261, Note_off_c, 0, 56, 60
1, 676283, Note_on_c, 0, 31, 83
1, 676300, Note_off_c, 0, 32, 60
1, 676406, Note_on_c, 0, 61, 96
1, 676407, Note_on_c, 0, 32, 91
1, 676408, Note_on_c, 0, 52, 85
1, 676413, Note_on_c, 0, 56, 76
1, 676426, Note_off_c, 0, 31, 59
1, 676430, Note_off_c, 0, 52, 70
1, 676444, Note_off_c, 0, 56, 56
1, 676455, Note_off_c, 0, 61, 59
1, 676493, Note_on_c, 0, 31, 78
1, 676502, Note_off_c, 0, 32, 60
1, 676581, Note_on_c, 0, 56, 97
1, 676587, Note_on_c, 0, 32, 92
1, 676587, Note_on_c, 0, 64, 80
1, 676595, Note_on_c, 0, 61, 74
1, 676604, Note_off_c, 0, 56, 60
1, 676607, Note_off_c, 0, 31, 60
1, 676614, Note_on_c, 0, 63, 53
1, 676628, Note_off_c, 0, 61, 52
1, 676642, Note_off_c, 0, 63, 58
1, 676642, Note_off_c, 0, 64, 61
1, 676666, Note_on_c, 0, 31, 74
1, 676676, Note_off_c, 0, 32, 61
1, 676746, Note_on_c, 0, 61, 86
1, 676746, Note_on_c, 0, 68, 95
1, 676747, Note_on_c, 0, 32, 91
1, 676753, Note_on_c, 0, 64, 79
1, 676765, Note_off_c, 0, 61, 71
1, 676766, Note_off_c, 0, 31, 61
1, 676786, Note_off_c, 0, 64, 61
1, 676792, Note_off_c, 0, 68, 49
1, 676830, Note_on_c, 0, 31, 74
1, 676840, Note_off_c, 0, 32, 61
1, 676892, Note_on_c, 0, 73, 102
1, 676894, Note_on_c, 0, 64, 90
1, 676899, Note_on_c, 0, 68, 86
1, 676903, Note_on_c, 0, 32, 84
1, 676917, Note_off_c, 0, 64, 68
1, 676921, Note_off_c, 0, 31, 62
1, 676929, Note_off_c, 0, 73, 43
1, 676936, Note_off_c, 0, 68, 49
1, 676987, Note_on_c, 0, 31, 81
1, 677002, Note_off_c, 0, 32, 59
1, 677030, Note_on_c, 0, 68, 111
1, 677036, Note_on_c, 0, 76, 94
1, 677043, Note_on_c, 0, 73, 73
1, 677054, Note_off_c, 0, 68, 54
1, 677054, Note_on_c, 0, 75, 64
1, 677064, Note_on_c, 0, 32, 82
1, 677069, Note_off_c, 0, 76, 51
1, 677073, Note_off_c, 0, 73, 61
1, 677078, Note_off_c, 0, 75, 66
1, 677085, Note_off_c, 0, 31, 61
1, 677148, Note_on_c, 0, 31, 75
1, 677161, Note_off_c, 0, 32, 61
1, 677180, Note_on_c, 0, 73, 104
1, 677182, Note_on_c, 0, 80, 107
1, 677187, Note_on_c, 0, 76, 94
1, 677197, Note_off_c, 0, 73, 67
1, 677201, Note_on_c, 0, 29, 37
1, 677219, Note_off_c, 0, 76, 51
1, 677232, Note_off_c, 0, 80, 60
1, 677233, Note_on_c, 0, 32, 85
1, 677245, Note_off_c, 0, 29, 43
1, 677251, Note_off_c, 0, 31, 60
1, 677303, Note_on_c, 0, 31, 74
1, 677316, Note_off_c, 0, 32, 60
1, 677326, Note_on_c, 0, 76, 109
1, 677326, Note_on_c, 0, 85, 108
1, 677330, Note_on_c, 0, 80, 97
1, 677343, Note_off_c, 0, 76, 67
1, 677347, Note_on_c, 0, 82, 59
1, 677347, Note_off_c, 0, 82, 127
1, 677364, Note_off_c, 0, 85, 60
1, 677368, Note_off_c, 0, 80, 54
1, 677388, Note_on_c, 0, 32, 82
1, 677406, Note_off_c, 0, 31, 59
1, 677407, Poly_aftertouch_c, 0, 29, 0
1, 677434, Poly_aftertouch_c, 0, 29, 0
1, 677448, Note_on_c, 0, 31, 69
1, 677460, Note_on_c, 0, 80, 118
1, 677465, Note_off_c, 0, 32, 59
1, 677467, Note_on_c, 0, 88, 98
1, 677469, Note_on_c, 0, 85, 88
1, 677474, Note_on_c, 0, 87, 77
1, 677483, Note_off_c, 0, 80, 68
1, 677509, Note_off_c, 0, 87, 55
1, 677510, Note_off_c, 0, 88, 64
1, 677515, Note_off_c, 0, 85, 65
1, 677552, Note_on_c, 0, 32, 87
1, 677576, Note_off_c, 0, 31, 60
1, 677611, Note_on_c, 0, 85, 109
1, 677614, Note_on_c, 0, 31, 64
1, 677614, Note_on_c, 0, 88, 101
1, 677614, Note_on_c, 0, 92, 105
1, 677631, Note_off_c, 0, 92, 73
1, 677640, Note_off_c, 0, 32, 60
1, 677644, Note_off_c, 0, 88, 61
1, 677652, Note_on_c, 0, 93, 38
1, 677652, Note_off_c, 0, 93, 127
1, 677652, Note_off_c, 0, 85, 60
1, 677699, Note_on_c, 0, 32, 79
1, 677730, Note_off_c, 0, 31, 61
1, 677749, Poly_aftertouch_c, 0, 29, 0
1, 677771, Note_on_c, 0, 31, 61
1, 677784, Note_off_c, 0, 32, 61
1, 677796, Note_on_c, 0, 61, 107
1, 677800, Note_on_c, 0, 68, 94
1, 677819, Note_on_c, 0, 64, 61
1, 677822, Note_off_c, 0, 68, 62
1, 677841, Note_off_c, 0, 61, 55
1, 677841, Note_off_c, 0, 64, 61
1, 677856, Note_on_c, 0, 32, 86
1, 677910, Note_off_c, 0, 31, 0
1, 677939, Note_on_c, 0, 31, 25
1, 677950, Note_off_c, 0, 32, 50
1, 677954, Control_c, 0, 64, 83
1, 677967, Note_on_c, 0, 61, 108
1, 677969, Control_c, 0, 64, 45
1, 677971, Note_on_c, 0, 67, 91
1, 677975, Note_on_c, 0, 32, 68
1, 677982, Note_on_c, 0, 64, 72
1, 677983, Control_c, 0, 64, 0
1, 678004, Note_off_c, 0, 64, 70
1, 678007, Note_off_c, 0, 61, 59
1, 678013, Control_c, 0, 64, 48
1, 678027, Control_c, 0, 64, 69
1, 678028, Note_off_c, 0, 67, 64
1, 678030, Note_off_c, 0, 31, 60
1, 678042, Control_c, 0, 64, 83
1, 678057, Control_c, 0, 64, 127
1, 678097, Note_on_c, 0, 33, 90
1, 678115, Note_off_c, 0, 32, 60
1, 678205, Control_c, 0, 64, 76
1, 678211, Note_on_c, 0, 79, 89
1, 678213, Note_on_c, 0, 32, 87
1, 678217, Note_on_c, 0, 76, 80
1, 678219, Note_on_c, 0, 73, 84
1, 678220, Control_c, 0, 64, 62
1, 678225, Note_off_c, 0, 33, 65
1, 678234, Control_c, 0, 64, 65
1, 678249, Control_c, 0, 64, 76
1, 678264, Control_c, 0, 64, 118
1, 678275, Note_off_c, 0, 79, 63
1, 678278, Note_off_c, 0, 76, 63
1, 678279, Control_c, 0, 64, 127
1, 678286, Note_off_c, 0, 73, 60
1, 678297, Note_on_c, 0, 33, 91
1, 678308, Note_off_c, 0, 32, 62
1, 678371, Note_on_c, 0, 32, 87
1, 678371, Note_on_c, 0, 67, 101
1, 678375, Note_on_c, 0, 76, 97
1, 678378, Note_off_c, 0, 33, 63
1, 678391, Note_on_c, 0, 73, 62
1, 678391, Note_off_c, 0, 73, 127
1, 678400, Note_off_c, 0, 76, 57
1, 678405, Note_off_c, 0, 67, 57
1, 678437, Note_on_c, 0, 33, 81
1, 678448, Note_off_c, 0, 32, 60
1, 678498, Note_on_c, 0, 73, 78
1, 678501, Note_on_c, 0, 64, 104
1, 678506, Note_on_c, 0, 32, 87
1, 678517, Note_off_c, 0, 33, 62
1, 678533, Note_on_c, 0, 70, 40
1, 678538, Note_off_c, 0, 64, 55
1, 678541, Note_off_c, 0, 73, 61
1, 678561, Note_off_c, 0, 70, 58
1, 678570, Note_on_c, 0, 33, 75
1, 678586, Note_off_c, 0, 32, 61
1, 678637, Note_on_c, 0, 61, 105
1, 678640, Note_on_c, 0, 67, 90
1, 678642, Note_on_c, 0, 32, 78
1, 678654, Note_on_c, 0, 64, 73
1, 678655, Note_off_c, 0, 33, 61
1, 678668, Note_off_c, 0, 64, 71
1, 678670, Note_off_c, 0, 61, 61
1, 678676, Note_on_c, 0, 70, 23
1, 678676, Note_off_c, 0, 70, 127
1, 678685, Note_off_c, 0, 67, 65
1, 678710, Note_on_c, 0, 33, 75
1, 678723, Note_off_c, 0, 32, 60
1, 678736, Poly_aftertouch_c, 0, 68, 0
1, 678757, Note_on_c, 0, 64, 69
1, 678763, Note_on_c, 0, 32, 65
1, 678775, Note_off_c, 0, 33, 59
1, 678780, Note_on_c, 0, 72, 69
1, 678782, Note_on_c, 0, 67, 71
1, 678794, Note_off_c, 0, 64, 63
1, 678796, Note_off_c, 0, 67, 70
1, 678804, Note_on_c, 0, 70, 40
1, 678805, Note_off_c, 0, 72, 60
1, 678829, Note_on_c, 0, 33, 72
1, 678833, Note_off_c, 0, 70, 44
1, 678843, Note_off_c, 0, 32, 61
1, 678854, Note_off_c, 0, 33, 68
1, 678861, Poly_aftertouch_c, 0, 74, 0
1, 678880, Control_c, 0, 64, 77
1, 678889, Poly_aftertouch_c, 0, 33, 0
1, 678895, Control_c, 0, 64, 46
1, 678896, Note_on_c, 0, 33, 81
1, 678899, Note_on_c, 0, 67, 82
1, 678902, Note_on_c, 0, 76, 105
1, 678910, Control_c, 0, 64, 0
1, 678920, Note_on_c, 0, 73, 53
1, 678920, Note_off_c, 0, 73, 127
1, 678924, Control_c, 0, 64, 63
1, 678926, Note_on_c, 0, 74, 55
1, 678934, Note_off_c, 0, 67, 67
1, 678939, Control_c, 0, 64, 90
1, 678944, Note_off_c, 0, 76, 60
1, 678953, Note_off_c, 0, 74, 52
1, 678954, Control_c, 0, 64, 127
1, 678981, Note_on_c, 0, 34, 84
1, 678989, Note_off_c, 0, 33, 62
1, 679013, Poly_aftertouch_c, 0, 71, 0
1, 679037, Note_on_c, 0, 64, 99
1, 679039, Note_on_c, 0, 68, 96
1, 679039, Note_on_c, 0, 73, 88
1, 679045, Note_on_c, 0, 33, 85
1, 679053, Note_off_c, 0, 34, 63
1, 679054, Note_off_c, 0, 68, 75
1, 679065, Note_off_c, 0, 64, 57
1, 679085, Note_on_c, 0, 76, 17
1, 679087, Note_off_c, 0, 73, 62
1, 679117, Poly_aftertouch_c, 0, 74, 127
1, 679124, Note_on_c, 0, 34, 74
1, 679126, Note_off_c, 0, 76, 39
1, 679128, Note_off_c, 0, 33, 62
1, 679143, Poly_aftertouch_c, 0, 74, 0
1, 679176, Note_on_c, 0, 33, 75
1, 679176, Note_on_c, 0, 79, 94
1, 679179, Note_on_c, 0, 73, 104
1, 679181, Note_on_c, 0, 76, 102
1, 679188, Note_off_c, 0, 34, 62
1, 679193, Note_on_c, 0, 69, 69
1, 679193, Note_off_c, 0, 69, 127
1, 679215, Note_off_c, 0, 79, 66
1, 679218, Note_off_c, 0, 73, 63
1, 679222, Note_off_c, 0, 76, 59
1, 679224, Note_on_c, 0, 75, 18
1, 679257, Note_on_c, 0, 34, 78
1, 679266, Note_off_c, 0, 75, 38
1, 679272, Note_off_c, 0, 33, 60
1, 679298, Note_on_c, 0, 67, 100
1, 679299, Note_on_c, 0, 76, 98
1, 679306, Note_on_c, 0, 73, 83
1, 679309, Poly_aftertouch_c, 0, 33, 0
1, 679317, Note_on_c, 0, 33, 70
1, 679320, Note_off_c, 0, 67, 65
1, 679327, Note_off_c, 0, 73, 62
1, 679328, Note_off_c, 0, 34, 61
1, 679343, Note_off_c, 0, 76, 65
1, 679400, Note_on_c, 0, 34, 66
1, 679417, Note_off_c, 0, 33, 59
1, 679453, Note_on_c, 0, 85, 118
1, 679455, Note_on_c, 0, 76, 107
1, 679457, Note_on_c, 0, 33, 56
1, 679459, Note_on_c, 0, 79, 91
1, 679467, Note_off_c, 0, 76, 77
1, 679472, Note_on_c, 0, 82, 62
1, 679472, Note_off_c, 0, 82, 127
1, 679475, Note_off_c, 0, 34, 58
1, 679476, Note_off_c, 0, 79, 73
1, 679498, Note_off_c, 0, 85, 62
1, 679534, Note_on_c, 0, 34, 65
1, 679563, Note_off_c, 0, 33, 59
1, 679593, Note_on_c, 0, 33, 51
1, 679611, Note_off_c, 0, 34, 61
1, 679618, Note_on_c, 0, 97, 111
1, 679620, Note_on_c, 0, 88, 109
1, 679624, Note_on_c, 0, 91, 87
1, 679638, Note_on_c, 0, 94, 64
1, 679638, Note_off_c, 0, 94, 127
1, 679639, Note_off_c, 0, 88, 63
1, 679641, Note_off_c, 0, 91, 73
1, 679653, Note_off_c, 0, 97, 63
1, 679683, Note_on_c, 0, 34, 68
1, 679690, Note_off_c, 0, 33, 61
1, 679728, Note_off_c, 0, 34, 61
1, 679776, Note_on_c, 0, 34, 74
1, 679790, Note_on_c, 0, 88, 99
1, 679791, Control_c, 0, 64, 82
1, 679806, Control_c, 0, 64, 53
1, 679821, Control_c, 0, 64, 0
1, 679836, Control_c, 0, 64, 52
1, 679850, Note_on_c, 0, 90, 92
1, 679851, Control_c, 0, 64, 70
1, 679862, Note_on_c, 0, 35, 87
1, 679865, Control_c, 0, 64, 127
1, 679874, Note_on_c, 0, 91, 89
1, 679875, Note_off_c, 0, 88, 65
1, 679879, Note_off_c, 0, 34, 61
1, 679900, Note_on_c, 0, 93, 70
1, 679917, Note_off_c, 0, 90, 60
1, 679937, Note_on_c, 0, 95, 110
1, 679946, Note_on_c, 0, 34, 74
1, 679947, Note_off_c, 0, 91, 42
1, 679965, Note_off_c, 0, 93, 66
1, 680005, Note_on_c, 0, 93, 72
1, 680022, Note_off_c, 0, 35, 0
1, 680035, Note_on_c, 0, 35, 59
1, 680038, Note_on_c, 0, 91, 86
1, 680061, Note_off_c, 0, 34, 56
1, 680083, Note_on_c, 0, 90, 88
1, 680098, Note_off_c, 0, 95, 44
1, 680108, Note_off_c, 0, 93, 64
1, 680121, Note_off_c, 0, 91, 65
1, 680132, Note_on_c, 0, 34, 68
1, 680139, Note_on_c, 0, 88, 91
1, 680142, Note_off_c, 0, 35, 60
1, 680145, Note_off_c, 0, 90, 66
1, 680149, Poly_aftertouch_c, 0, 29, 0
1, 680172, Note_off_c, 0, 88, 63
1, 680200, Note_on_c, 0, 86, 90
1, 680218, Note_on_c, 0, 35, 90
1, 680236, Note_on_c, 0, 84, 82
1, 680240, Note_off_c, 0, 34, 61
1, 680274, Note_on_c, 0, 83, 79
1, 680288, Note_off_c, 0, 86, 61
1, 680297, Note_on_c, 0, 34, 75
1, 680303, Note_off_c, 0, 84, 64
1, 680312, Note_on_c, 0, 81, 89
1, 680315, Note_off_c, 0, 35, 60
1, 680320, Note_off_c, 0, 83, 64
1, 680387, Note_on_c, 0, 35, 90
1, 680405, Note_off_c, 0, 34, 61
1, 680431, Note_on_c, 0, 79, 59
1, 680464, Note_on_c, 0, 76, 82
1, 680468, Note_on_c, 0, 34, 77
1, 680471, Note_off_c, 0, 81, 61
1, 680479, Note_off_c, 0, 35, 61
1, 680499, Note_off_c, 0, 79, 65
1, 680518, Note_on_c, 0, 74, 87
1, 680545, Note_off_c, 0, 76, 66
1, 680548, Note_on_c, 0, 35, 87
1, 680548, Note_off_c, 0, 74, 58
1, 680567, Note_off_c, 0, 34, 62
1, 680586, Note_on_c, 0, 74, 72
1, 680614, Note_on_c, 0, 72, 44
1, 680617, Note_on_c, 0, 34, 71
1, 680633, Note_off_c, 0, 35, 61
1, 680641, Note_on_c, 0, 71, 57
1, 680646, Note_off_c, 0, 74, 63
1, 680669, Note_off_c, 0, 72, 61
1, 680681, Note_off_c, 0, 71, 65
1, 680693, Note_on_c, 0, 69, 60
1, 680694, Note_on_c, 0, 35, 84
1, 680706, Note_off_c, 0, 34, 61
1, 680713, Note_off_c, 0, 69, 62
1, 680751, Note_on_c, 0, 66, 82
1, 680777, Note_off_c, 0, 66, 62
1, 680787, Note_off_c, 0, 35, 0
1, 680796, Note_on_c, 0, 64, 94
1, 680804, Note_on_c, 0, 35, 52
1, 680808, Note_on_c, 0, 36, 86
1, 680808, Control_c, 0, 64, 77
1, 680822, Control_c, 0, 64, 38
1, 680837, Control_c, 0, 64, 0
1, 680848, Note_off_c, 0, 35, 49
1, 680852, Control_c, 0, 64, 40
1, 680867, Note_off_c, 0, 64, 64
1, 680874, Control_c, 0, 64, 61
1, 680889, Control_c, 0, 64, 76
1, 680898, Note_on_c, 0, 37, 87
1, 680903, Control_c, 0, 64, 125
1, 680918, Control_c, 0, 64, 127
1, 680929, Note_off_c, 0, 36, 60
1, 680942, Note_on_c, 0, 70, 49
1, 680966, Note_off_c, 0, 70, 60
1, 680976, Note_on_c, 0, 38, 76
1, 680977, Control_c, 0, 64, 79
1, 680979, Note_off_c, 0, 37, 60
1, 680990, Note_on_c, 0, 64, 99
1, 680992, Note_on_c, 0, 76, 107
1, 680992, Control_c, 0, 64, 55
1, 681007, Control_c, 0, 64, 43
1, 681022, Control_c, 0, 64, 58
1, 681037, Control_c, 0, 64, 66
1, 681045, Note_off_c, 0, 64, 67
1, 681052, Control_c, 0, 64, 88
1, 681061, Note_on_c, 0, 39, 86
1, 681067, Control_c, 0, 64, 127
1, 681068, Note_off_c, 0, 38, 63
1, 681076, Poly_aftertouch_c, 0, 74, 127
1, 681092, Note_off_c, 0, 76, 66
1, 681103, Poly_aftertouch_c, 0, 74, 0
1, 681135, Note_on_c, 0, 40, 81
1, 681146, Note_off_c, 0, 39, 58
1, 681191, Note_on_c, 0, 41, 85
1, 681226, Note_off_c, 0, 40, 57
1, 681235, Note_on_c, 0, 82, 45
1, 681266, Note_off_c, 0, 82, 55
1, 681278, Note_on_c, 0, 42, 86
1, 681303, Note_on_c, 0, 76, 113
1, 681305, Note_on_c, 0, 88, 111
1, 681309, Note_off_c, 0, 41, 61
1, 681330, Note_on_c, 0, 86, 57
1, 681333, Note_off_c, 0, 76, 67
1, 681343, Note_on_c, 0, 82, 29
1, 681349, Note_on_c, 0, 43, 83
1, 681351, Note_off_c, 0, 86, 59
1, 681361, Note_off_c, 0, 42, 64
1, 681367, Note_off_c, 0, 88, 67
1, 681384, Note_off_c, 0, 82, 50
1, 681433, Note_on_c, 0, 44, 84
1, 681442, Note_off_c, 0, 43, 63
1, 681509, Note_on_c, 0, 45, 93
1, 681515, Note_on_c, 0, 94, 41
1, 681515, Note_off_c, 0, 44, 62
1, 681560, Note_off_c, 0, 94, 65
1, 681580, Note_on_c, 0, 46, 86
1, 681600, Control_c, 0, 64, 84
1, 681602, Note_off_c, 0, 45, 60
1, 681612, Note_on_c, 0, 88, 118
1, 681614, Note_on_c, 0, 100, 111
1, 681623, Control_c, 0, 64, 67
1, 681638, Control_c, 0, 64, 69
1, 681652, Note_off_c, 0, 100, 72
1, 681652, Control_c, 0, 64, 93
1, 681654, Note_on_c, 0, 98, 40
1, 681654, Note_on_c, 0, 99, 23
1, 681654, Note_off_c, 0, 99, 127
1, 681658, Note_on_c, 0, 94, 18
1, 681658, Note_off_c, 0, 94, 127
1, 681659, Note_on_c, 0, 47, 85
1, 681665, Note_off_c, 0, 88, 64
1, 681667, Control_c, 0, 64, 127
1, 681685, Note_off_c, 0, 98, 57
1, 681695, Note_off_c, 0, 46, 63
1, 681755, Note_on_c, 0, 48, 85
1, 681766, Note_off_c, 0, 47, 64
1, 681826, Note_on_c, 0, 47, 83
1, 681853, Note_off_c, 0, 48, 64
1, 681918, Note_on_c, 0, 76, 111
1, 681920, Note_on_c, 0, 88, 99
1, 681923, Note_on_c, 0, 46, 84
1, 681945, Note_off_c, 0, 47, 62
1, 681952, Note_on_c, 0, 82, 43
1, 681956, Note_on_c, 0, 86, 40
1, 681956, Note_off_c, 0, 86, 127
1, 681959, Note_off_c, 0, 88, 68
1, 681973, Note_off_c, 0, 76, 67
1, 681981, Note_off_c, 0, 82, 58
1, 681986, Poly_aftertouch_c, 0, 86, 0
1, 681990, Note_off_c, 0, 46, 59
1, 682014, Note_on_c, 0, 45, 100
1, 682097, Note_on_c, 0, 44, 88
1, 682121, Note_off_c, 0, 45, 63
1, 682165, Note_on_c, 0, 43, 83
1, 682208, Note_off_c, 0, 44, 63
1, 682231, Control_c, 0, 64, 101
1, 682238, Note_on_c, 0, 64, 104
1, 682239, Note_on_c, 0, 76, 98
1, 682246, Control_c, 0, 64, 67
1, 682256, Note_on_c, 0, 42, 77
1, 682260, Control_c, 0, 64, 0
1, 682287, Note_off_c, 0, 43, 64
1, 682290, Control_c, 0, 64, 51
1, 682304, Control_c, 0, 64, 70
1, 682313, Note_off_c, 0, 76, 64
1, 682319, Control_c, 0, 64, 90
1, 682330, Note_off_c, 0, 42, 63
1, 682334, Control_c, 0, 64, 127
1, 682348, Note_on_c, 0, 41, 91
1, 682354, Poly_aftertouch_c, 0, 74, 0
1, 682395, Note_off_c, 0, 64, 50
1, 682443, Note_on_c, 0, 40, 79
1, 682469, Note_off_c, 0, 41, 58
1, 682514, Note_on_c, 0, 39, 83
1, 682534, Control_c, 0, 64, 125
1, 682549, Control_c, 0, 64, 77
1, 682551, Note_off_c, 0, 40, 61
1, 682564, Control_c, 0, 64, 54
1, 682571, Note_on_c, 0, 64, 95
1, 682579, Control_c, 0, 64, 0
1, 682593, Control_c, 0, 64, 40
1, 682605, Note_off_c, 0, 39, 63
1, 682608, Control_c, 0, 64, 59
1, 682623, Note_on_c, 0, 38, 71
1, 682623, Control_c, 0, 64, 70
1, 682626, Note_on_c, 0, 36, 76
1, 682639, Control_c, 0, 64, 87
1, 682654, Control_c, 0, 64, 127
1, 682715, Note_off_c, 0, 64, 51
1, 682723, Note_off_c, 0, 38, 62
1, 682864, Note_off_c, 0, 36, 54
1, 682895, Note_on_c, 0, 37, 50
1, 682906, Control_c, 0, 64, 97
1, 682920, Control_c, 0, 64, 71
1, 682935, Control_c, 0, 64, 49
1, 682950, Control_c, 0, 64, 0
1, 682972, Note_on_c, 0, 64, 43
1, 682995, Control_c, 0, 64, 43
1, 683009, Control_c, 0, 64, 62
1, 683024, Control_c, 0, 64, 72
1, 683039, Control_c, 0, 64, 85
1, 683054, Note_off_c, 0, 37, 50
1, 683054, Control_c, 0, 64, 107
1, 683069, Control_c, 0, 64, 127
1, 683104, Note_on_c, 0, 49, 46
1, 683156, Note_off_c, 0, 49, 58
1, 683173, Note_off_c, 0, 64, 37
1, 683180, Note_on_c, 0, 37, 49
1, 683201, Note_on_c, 0, 65, 50
1, 683223, Note_off_c, 0, 37, 57
1, 683251, Note_off_c, 0, 65, 46
1, 683260, Note_on_c, 0, 49, 58
1, 683294, Note_off_c, 0, 49, 63
1, 683332, Note_on_c, 0, 37, 51
1, 683334, Note_on_c, 0, 66, 58
1, 683364, Note_off_c, 0, 37, 61
1, 683382, Note_off_c, 0, 66, 56
1, 683387, Note_on_c, 0, 49, 63
1, 683416, Note_off_c, 0, 49, 66
1, 683454, Note_on_c, 0, 37, 65
1, 683470, Note_on_c, 0, 67, 59
1, 683490, Note_off_c, 0, 37, 62
1, 683514, Note_on_c, 0, 49, 75
1, 683534, Note_off_c, 0, 67, 58
1, 683542, Note_off_c, 0, 49, 68
1, 683578, Note_on_c, 0, 37, 74
1, 683591, Note_on_c, 0, 68, 74
1, 683618, Note_off_c, 0, 37, 59
1, 683631, Note_on_c, 0, 49, 80
1, 683645, Note_off_c, 0, 68, 61
1, 683664, Note_off_c, 0, 49, 62
1, 683698, Note_on_c, 0, 37, 77
1, 683701, Note_on_c, 0, 69, 84
1, 683737, Note_off_c, 0, 37, 59
1, 683749, Note_on_c, 0, 49, 78
1, 683765, Note_off_c, 0, 69, 60
1, 683794, Note_off_c, 0, 49, 64
1, 683823, Note_on_c, 0, 37, 76
1, 683824, Note_on_c, 0, 70, 85
1, 683844, Note_on_c, 0, 41, 17
1, 683870, Note_off_c, 0, 37, 62
1, 683877, Note_on_c, 0, 49, 73
1, 683895, Note_off_c, 0, 41, 53
1, 683915, Note_off_c, 0, 49, 56
1, 683921, Note_off_c, 0, 70, 57
1, 683950, Note_on_c, 0, 37, 76
1, 683953, Note_on_c, 0, 71, 80
1, 683985, Note_off_c, 0, 37, 57
1, 684004, Note_off_c, 0, 71, 63
1, 684006, Note_on_c, 0, 49, 74
1, 684008, Poly_aftertouch_c, 0, 74, 127
1, 684036, Note_off_c, 0, 49, 66
1, 684038, Poly_aftertouch_c, 0, 74, 0
1, 684058, Note_on_c, 0, 72, 79
1, 684077, Note_on_c, 0, 37, 67
1, 684113, Note_off_c, 0, 37, 60
1, 684130, Note_on_c, 0, 49, 59
1, 684166, Control_c, 0, 64, 114
1, 684175, Note_off_c, 0, 72, 62
1, 684181, Note_off_c, 0, 49, 57
1, 684181, Control_c, 0, 64, 75
1, 684196, Control_c, 0, 64, 51
1, 684211, Control_c, 0, 64, 0
1, 684214, Note_on_c, 0, 37, 53
1, 684227, Note_on_c, 0, 73, 75
1, 684238, Note_on_c, 0, 61, 59
1, 684241, Control_c, 0, 64, 53
1, 684256, Control_c, 0, 64, 66
1, 684265, Note_off_c, 0, 37, 58
1, 684271, Control_c, 0, 64, 77
1, 684275, Note_off_c, 0, 61, 63
1, 684286, Control_c, 0, 64, 94
1, 684294, Note_off_c, 0, 73, 62
1, 684301, Control_c, 0, 64, 127
1, 684322, Note_on_c, 0, 49, 52
1, 684357, Note_off_c, 0, 49, 55
1, 684379, Note_on_c, 0, 37, 61
1, 684393, Note_on_c, 0, 62, 61
1, 684396, Note_on_c, 0, 74, 61
1, 684414, Note_off_c, 0, 37, 61
1, 684414, Note_off_c, 0, 62, 61
1, 684417, Note_off_c, 0, 74, 59
1, 684451, Note_on_c, 0, 49, 59
1, 684478, Note_off_c, 0, 49, 64
1, 684503, Note_on_c, 0, 63, 79
1, 684504, Note_on_c, 0, 75, 79
1, 684510, Note_on_c, 0, 37, 57
1, 684527, Note_off_c, 0, 63, 70
1, 684527, Note_off_c, 0, 75, 69
1, 684542, Note_off_c, 0, 37, 63
1, 684563, Note_on_c, 0, 49, 65
1, 684609, Note_off_c, 0, 49, 62
1, 684637, Note_on_c, 0, 37, 64
1, 684647, Note_on_c, 0, 64, 54
1, 684650, Note_on_c, 0, 76, 55
1, 684668, Note_off_c, 0, 37, 63
1, 684669, Note_off_c, 0, 64, 59
1, 684673, Note_off_c, 0, 76, 58
1, 684701, Note_on_c, 0, 49, 61
1, 684708, Poly_aftertouch_c, 0, 65, 127
1, 684730, Note_off_c, 0, 49, 66
1, 684742, Poly_aftertouch_c, 0, 65, 0
1, 684757, Note_on_c, 0, 37, 67
1, 684758, Note_on_c, 0, 77, 68
1, 684760, Note_on_c, 0, 65, 58
1, 684782, Note_off_c, 0, 77, 66
1, 684784, Note_off_c, 0, 65, 64
1, 684793, Note_off_c, 0, 37, 61
1, 684816, Note_on_c, 0, 49, 68
1, 684847, Note_off_c, 0, 49, 66
1, 684873, Note_on_c, 0, 78, 81
1, 684878, Note_on_c, 0, 66, 78
1, 684879, Note_on_c, 0, 37, 72
1, 684903, Note_off_c, 0, 66, 68
1, 684911, Note_off_c, 0, 37, 62
1, 684917, Note_off_c, 0, 78, 60
1, 684936, Note_on_c, 0, 49, 74
1, 684963, Note_off_c, 0, 49, 65
1, 684988, Note_on_c, 0, 79, 87
1, 684989, Note_on_c, 0, 67, 83
1, 684989, Control_c, 0, 64, 106
1, 684992, Note_on_c, 0, 37, 75
1, 685004, Control_c, 0, 64, 68
1, 685012, Note_off_c, 0, 67, 67
1, 685019, Control_c, 0, 64, 52
1, 685027, Note_off_c, 0, 79, 57
1, 685034, Control_c, 0, 64, 55
1, 685049, Control_c, 0, 64, 64
1, 685052, Note_off_c, 0, 37, 58
1, 685061, Note_on_c, 0, 49, 67
1, 685064, Control_c, 0, 64, 73
1, 685079, Control_c, 0, 64, 104
1, 685091, Note_off_c, 0, 49, 64
1, 685093, Control_c, 0, 64, 127
1, 685100, Note_on_c, 0, 80, 98
1, 685102, Note_on_c, 0, 68, 95
1, 685115, Note_on_c, 0, 37, 74
1, 685128, Note_off_c, 0, 68, 61
1, 685144, Note_off_c, 0, 80, 65
1, 685164, Note_off_c, 0, 37, 59
1, 685177, Note_on_c, 0, 49, 68
1, 685209, Note_off_c, 0, 49, 64
1, 685220, Note_on_c, 0, 81, 88
1, 685222, Note_on_c, 0, 69, 81
1, 685242, Note_off_c, 0, 69, 71
1, 685245, Note_on_c, 0, 37, 69
1, 685252, Note_on_c, 0, 80, 44
1, 685272, Note_off_c, 0, 81, 62
1, 685272, Note_off_c, 0, 37, 64
1, 685277, Note_off_c, 0, 80, 60
1, 685300, Note_on_c, 0, 49, 67
1, 685341, Note_off_c, 0, 49, 54
1, 685345, Control_c, 0, 64, 97
1, 685368, Control_c, 0, 64, 68
1, 685383, Control_c, 0, 64, 42
1, 685385, Note_on_c, 0, 37, 45
1, 685394, Note_on_c, 0, 70, 68
1, 685398, Control_c, 0, 64, 0
1, 685427, Control_c, 0, 64, 38
1, 685442, Control_c, 0, 64, 56
1, 685457, Control_c, 0, 64, 65
1, 685465, Note_off_c, 0, 37, 54
1, 685472, Control_c, 0, 64, 77
1, 685486, Control_c, 0, 64, 103
1, 685491, Note_on_c, 0, 82, 67
1, 685495, Note_off_c, 0, 70, 60
1, 685501, Control_c, 0, 64, 127
1, 685522, Note_on_c, 0, 49, 41
1, 685570, Note_off_c, 0, 82, 62
1, 685576, Note_off_c, 0, 49, 50
1, 685595, Note_on_c, 0, 71, 69
1, 685598, Note_on_c, 0, 37, 51
1, 685633, Note_off_c, 0, 71, 61
1, 685636, Note_off_c, 0, 37, 60
1, 685660, Note_on_c, 0, 49, 53
1, 685684, Note_on_c, 0, 83, 70
1, 685708, Note_off_c, 0, 49, 60
1, 685739, Note_off_c, 0, 83, 63
1, 685745, Note_on_c, 0, 37, 56
1, 685768, Note_on_c, 0, 72, 73
1, 685797, Note_off_c, 0, 37, 55
1, 685812, Note_off_c, 0, 72, 61
1, 685827, Note_on_c, 0, 49, 64
1, 685850, Note_on_c, 0, 84, 73
1, 685878, Note_off_c, 0, 49, 61
1, 685892, Note_off_c, 0, 84, 60
1, 685919, Note_on_c, 0, 37, 66
1, 685927, Note_on_c, 0, 73, 83
1, 685964, Note_off_c, 0, 37, 59
1, 685982, Note_off_c, 0, 73, 62
1, 685989, Note_on_c, 0, 49, 68
1, 686012, Note_on_c, 0, 85, 71
1, 686056, Note_off_c, 0, 49, 61
1, 686064, Note_off_c, 0, 85, 66
1, 686079, Control_c, 0, 64, 97
1, 686094, Note_on_c, 0, 37, 68
1, 686094, Control_c, 0, 64, 70
1, 686104, Note_on_c, 0, 74, 85
1, 686116, Control_c, 0, 64, 64
1, 686131, Control_c, 0, 64, 67
1, 686146, Control_c, 0, 64, 74
1, 686150, Note_off_c, 0, 74, 65
1, 686160, Control_c, 0, 64, 87
1, 686172, Note_off_c, 0, 37, 59
1, 686175, Control_c, 0, 64, 127
1, 686182, Note_on_c, 0, 49, 73
1, 686185, Note_on_c, 0, 86, 77
1, 686241, Note_off_c, 0, 86, 63
1, 686244, Note_off_c, 0, 49, 63
1, 686262, Note_on_c, 0, 75, 93
1, 686279, Note_on_c, 0, 37, 80
1, 686333, Note_off_c, 0, 37, 61
1, 686337, Note_on_c, 0, 87, 85
1, 686341, Note_off_c, 0, 75, 60
1, 686342, Poly_aftertouch_c, 0, 82, 127
1, 686348, Note_on_c, 0, 49, 84
1, 686395, Poly_aftertouch_c, 0, 82, 0
1, 686405, Note_off_c, 0, 49, 63
1, 686407, Note_off_c, 0, 87, 66
1, 686425, Note_on_c, 0, 76, 96
1, 686432, Note_on_c, 0, 37, 88
1, 686441, Control_c, 0, 64, 78
1, 686456, Control_c, 0, 64, 61
1, 686471, Control_c, 0, 64, 51
1, 686474, Note_off_c, 0, 76, 68
1, 686486, Control_c, 0, 64, 61
1, 686496, Note_off_c, 0, 37, 60
1, 686500, Control_c, 0, 64, 70
1, 686502, Note_on_c, 0, 49, 93
1, 686510, Note_on_c, 0, 88, 94
1, 686515, Control_c, 0, 64, 86
1, 686528, Note_on_c, 0, 87, 68
1, 686530, Control_c, 0, 64, 127
1, 686555, Note_off_c, 0, 87, 67
1, 686567, Note_off_c, 0, 49, 63
1, 686590, Note_on_c, 0, 77, 101
1, 686593, Note_on_c, 0, 37, 89
1, 686616, Note_off_c, 0, 88, 57
1, 686638, Note_off_c, 0, 77, 68
1, 686667, Note_on_c, 0, 49, 92
1, 686668, Note_off_c, 0, 37, 56
1, 686673, Note_on_c, 0, 89, 100
1, 686730, Note_off_c, 0, 49, 63
1, 686756, Note_on_c, 0, 37, 96
1, 686757, Note_off_c, 0, 89, 61
1, 686760, Note_on_c, 0, 78, 110
1, 686821, Note_off_c, 0, 78, 62
1, 686834, Note_off_c, 0, 37, 58
1, 686837, Note_on_c, 0, 49, 94
1, 686846, Note_on_c, 0, 88, 46
1, 686849, Note_on_c, 0, 90, 91
1, 686901, Note_off_c, 0, 88, 64
1, 686902, Note_off_c, 0, 49, 64
1, 686912, Note_off_c, 0, 90, 65
1, 686936, Note_on_c, 0, 37, 93
1, 686942, Note_on_c, 0, 79, 101
1, 686975, Note_on_c, 0, 85, 30
1, 686978, Note_on_c, 0, 87, 37
1, 687010, Note_off_c, 0, 85, 31
1, 687013, Note_off_c, 0, 87, 32
1, 687015, Note_off_c, 0, 79, 46
1, 687019, Note_on_c, 0, 91, 89
1, 687020, Note_off_c, 0, 37, 50
1, 687022, Note_on_c, 0, 49, 87
1, 687035, Poly_aftertouch_c, 0, 36, 127
1, 687054, Note_on_c, 0, 90, 40
1, 687067, Poly_aftertouch_c, 0, 36, 0
1, 687080, Note_off_c, 0, 49, 63
1, 687082, Note_off_c, 0, 91, 65
1, 687084, Note_off_c, 0, 90, 50
1, 687087, Control_c, 0, 64, 108
1, 687102, Control_c, 0, 64, 67
1, 687106, Note_on_c, 0, 88, 99
1, 687107, Note_on_c, 0, 80, 108
1, 687110, Note_on_c, 0, 37, 96
1, 687116, Control_c, 0, 64, 52
1, 687131, Control_c, 0, 64, 61
1, 687146, Control_c, 0, 64, 71
1, 687161, Control_c, 0, 64, 92
1, 687176, Control_c, 0, 64, 127
1, 687190, Note_off_c, 0, 80, 60
1, 687199, Note_on_c, 0, 49, 92
1, 687204, Poly_aftertouch_c, 0, 39, 127
1, 687209, Note_on_c, 0, 92, 87
1, 687214, Note_off_c, 0, 37, 52
1, 687228, Poly_aftertouch_c, 0, 39, 0
1, 687249, Note_off_c, 0, 88, 61
1, 687268, Note_off_c, 0, 49, 64
1, 687281, Note_off_c, 0, 92, 60
1, 687300, Note_on_c, 0, 80, 102
1, 687301, Note_on_c, 0, 88, 97
1, 687302, Note_on_c, 0, 37, 91
1, 687347, Note_on_c, 0, 87, 10
1, 687360, Note_on_c, 0, 36, 21
1, 687373, Note_off_c, 0, 87, 34
1, 687380, Note_off_c, 0, 37, 61
1, 687391, Note_off_c, 0, 80, 45
1, 687392, Note_on_c, 0, 49, 85
1, 687395, Note_on_c, 0, 92, 84
1, 687407, Note_off_c, 0, 36, 39
1, 687417, Note_off_c, 0, 88, 60
1, 687442, Note_off_c, 0, 49, 65
1, 687458, Note_off_c, 0, 92, 65
1, 687502, Control_c, 0, 64, 89
1, 687517, Control_c, 0, 64, 60
1, 687520, Note_on_c, 0, 88, 103
1, 687520, Note_on_c, 0, 37, 103
1, 687520, Note_on_c, 0, 80, 107
1, 687522, Note_on_c, 0, 85, 93
1, 687525, Note_on_c, 0, 92, 92
1, 687532, Control_c, 0, 64, 41
1, 687547, Note_on_c, 0, 90, 55
1, 687547, Control_c, 0, 64, 61
1, 687562, Control_c, 0, 64, 78
1, 687568, Note_on_c, 0, 39, 27
1, 687577, Control_c, 0, 64, 127
1, 687592, Note_off_c, 0, 92, 65
1, 687613, Note_off_c, 0, 80, 61
1, 687618, Note_off_c, 0, 39, 46
1, 687623, Note_off_c, 0, 90, 55
1, 687633, Note_off_c, 0, 85, 62
1, 687651, Note_off_c, 0, 37, 60
1, 687666, Note_off_c, 0, 88, 54
1, 687671, Note_on_c, 0, 49, 87
1, 687761, Note_off_c, 0, 49, 61
1, 687776, Control_c, 0, 64, 81
1, 687791, Control_c, 0, 64, 41
1, 687795, Note_on_c, 0, 39, 86
1, 687796, Note_on_c, 0, 80, 106
1, 687797, Note_on_c, 0, 88, 100
1, 687799, Note_on_c, 0, 92, 102
1, 687805, Note_on_c, 0, 85, 82
1, 687806, Control_c, 0, 64, 0
1, 687821, Control_c, 0, 64, 40
1, 687830, Note_on_c, 0, 90, 46
1, 687836, Control_c, 0, 64, 63
1, 687850, Control_c, 0, 64, 78
1, 687865, Control_c, 0, 64, 125
1, 687866, Note_off_c, 0, 90, 49
1, 687872, Note_off_c, 0, 80, 61
1, 687875, Note_off_c, 0, 39, 61
1, 687875, Note_off_c, 0, 92, 63
1, 687880, Control_c, 0, 64, 127
1, 687882, Note_on_c, 0, 51, 81
1, 687883, Note_off_c, 0, 85, 56
1, 687899, Poly_aftertouch_c, 0, 42, 0
1, 687922, Note_off_c, 0, 88, 61
1, 687940, Note_off_c, 0, 51, 62
1, 687954, Control_c, 0, 64, 73
1, 687964, Note_on_c, 0, 40, 79
1, 687969, Control_c, 0, 64, 51
1, 687973, Note_on_c, 0, 80, 106
1, 687975, Note_on_c, 0, 88, 93
1, 687976, Note_on_c, 0, 92, 95
1, 687983, Note_on_c, 0, 85, 78
1, 687984, Control_c, 0, 64, 53
1, 687999, Control_c, 0, 64, 67
1, 688012, Note_on_c, 0, 90, 34
1, 688013, Control_c, 0, 64, 93
1, 688021, Note_off_c, 0, 40, 62
1, 688021, Poly_aftertouch_c, 0, 45, 0
1, 688026, Note_on_c, 0, 52, 87
1, 688028, Control_c, 0, 64, 127
1, 688046, Note_off_c, 0, 80, 63
1, 688046, Note_off_c, 0, 92, 65
1, 688052, Note_off_c, 0, 90, 49
1, 688063, Note_off_c, 0, 85, 56
1, 688075, Note_off_c, 0, 52, 63
1, 688083, Note_off_c, 0, 88, 62
1, 688126, Note_on_c, 0, 42, 85
1, 688130, Note_on_c, 0, 88, 89
1, 688131, Note_on_c, 0, 80, 108
1, 688134, Note_on_c, 0, 92, 97
1, 688143, Note_on_c, 0, 85, 76
1, 688167, Note_on_c, 0, 90, 34
1, 688186, Note_off_c, 0, 42, 63
1, 688195, Note_on_c, 0, 54, 79
1, 688200, Note_off_c, 0, 90, 55
1, 688203, Note_off_c, 0, 92, 64
1, 688208, Note_off_c, 0, 80, 61
1, 688212, Note_off_c, 0, 85, 54
1, 688238, Note_off_c, 0, 88, 63
1, 688239, Note_off_c, 0, 54, 59
1, 688251, Control_c, 0, 64, 116
1, 688266, Control_c, 0, 64, 72
1, 688280, Control_c, 0, 64, 55
1, 688284, Note_on_c, 0, 44, 79
1, 688290, Note_on_c, 0, 80, 113
1, 688292, Note_on_c, 0, 88, 102
1, 688293, Note_on_c, 0, 92, 105
1, 688295, Control_c, 0, 64, 59
1, 688303, Note_on_c, 0, 85, 79
1, 688310, Control_c, 0, 64, 73
1, 688319, Note_on_c, 0, 90, 45
1, 688325, Control_c, 0, 64, 127
1, 688341, Note_on_c, 0, 56, 89
1, 688355, Note_on_c, 0, 48, 36
1, 688366, Note_off_c, 0, 90, 48
1, 688366, Note_off_c, 0, 92, 65
1, 688367, Note_off_c, 0, 44, 64
1, 688369, Note_off_c, 0, 56, 70
1, 688370, Note_off_c, 0, 80, 64
1, 688380, Note_off_c, 0, 85, 63
1, 688393, Note_off_c, 0, 48, 46
1, 688396, Note_off_c, 0, 88, 62
1, 688450, Note_on_c, 0, 39, 94
1, 688452, Note_on_c, 0, 80, 111
1, 688454, Note_on_c, 0, 88, 101
1, 688454, Note_on_c, 0, 92, 100
1, 688465, Note_on_c, 0, 85, 81
1, 688477, Note_on_c, 0, 90, 50
1, 688513, Note_off_c, 0, 90, 48
1, 688521, Note_off_c, 0, 39, 60
1, 688522, Note_off_c, 0, 80, 61
1, 688525, Note_off_c, 0, 92, 64
1, 688531, Note_on_c, 0, 51, 79
1, 688536, Note_off_c, 0, 85, 60
1, 688558, Note_off_c, 0, 88, 62
1, 688564, Note_off_c, 0, 51, 64
1, 688569, Control_c, 0, 64, 81
1, 688584, Control_c, 0, 64, 57
1, 688598, Note_on_c, 0, 40, 80
1, 688599, Control_c, 0, 64, 40
1, 688609, Note_on_c, 0, 80, 112
1, 688611, Note_on_c, 0, 88, 97
1, 688612, Note_on_c, 0, 92, 104
1, 688614, Control_c, 0, 64, 60
1, 688618, Note_on_c, 0, 85, 86
1, 688629, Control_c, 0, 64, 79
1, 688633, Note_on_c, 0, 90, 53
1, 688644, Control_c, 0, 64, 127
1, 688650, Note_off_c, 0, 40, 63
1, 688664, Note_off_c, 0, 90, 52
1, 688669, Note_on_c, 0, 52, 86
1, 688679, Note_off_c, 0, 80, 61
1, 688679, Note_off_c, 0, 92, 65
1, 688694, Note_off_c, 0, 85, 61
1, 688704, Note_off_c, 0, 52, 62
1, 688706, Note_off_c, 0, 88, 62
1, 688758, Note_on_c, 0, 42, 83
1, 688765, Note_on_c, 0, 80, 111
1, 688768, Note_on_c, 0, 88, 103
1, 688768, Note_on_c, 0, 92, 103
1, 688774, Note_on_c, 0, 85, 82
1, 688793, Note_on_c, 0, 90, 48
1, 688820, Note_off_c, 0, 42, 63
1, 688837, Note_off_c, 0, 90, 47
1, 688838, Note_off_c, 0, 92, 64
1, 688839, Note_off_c, 0, 80, 60
1, 688844, Note_on_c, 0, 54, 72
1, 688847, Note_off_c, 0, 85, 59
1, 688875, Note_off_c, 0, 88, 61
1, 688876, Poly_aftertouch_c, 0, 46, 0
1, 688880, Control_c, 0, 64, 95
1, 688885, Note_off_c, 0, 54, 62
1, 688895, Control_c, 0, 64, 60
1, 688910, Control_c, 0, 64, 40
1, 688925, Control_c, 0, 64, 58
1, 688926, Note_on_c, 0, 44, 80
1, 688927, Note_on_c, 0, 80, 109
1, 688930, Note_on_c, 0, 92, 100
1, 688932, Note_on_c, 0, 88, 90
1, 688936, Note_on_c, 0, 85, 85
1, 688940, Control_c, 0, 64, 75
1, 688953, Note_on_c, 0, 90, 51
1, 688954, Control_c, 0, 64, 127
1, 688984, Note_on_c, 0, 43, 14
1, 688985, Note_off_c, 0, 90, 50
1, 688993, Note_off_c, 0, 44, 64
1, 688999, Note_on_c, 0, 56, 90
1, 689000, Note_off_c, 0, 92, 65
1, 689007, Note_off_c, 0, 80, 59
1, 689010, Note_off_c, 0, 85, 60
1, 689031, Note_off_c, 0, 43, 52
1, 689036, Note_off_c, 0, 88, 61
1, 689045, Note_off_c, 0, 56, 61
1, 689059, Control_c, 0, 64, 90
1, 689074, Control_c, 0, 64, 60
1, 689089, Control_c, 0, 64, 39
1, 689092, Note_on_c, 0, 80, 113
1, 689101, Note_on_c, 0, 48, 88
1, 689101, Note_on_c, 0, 92, 101
1, 689103, Note_on_c, 0, 88, 93
1, 689106, Note_on_c, 0, 85, 93
1, 689111, Control_c, 0, 64, 62
1, 689126, Control_c, 0, 64, 85
1, 689127, Note_on_c, 0, 90, 48
1, 689141, Control_c, 0, 64, 127
1, 689160, Note_off_c, 0, 90, 50
1, 689161, Note_off_c, 0, 48, 65
1, 689162, Note_on_c, 0, 49, 5
1, 689176, Note_off_c, 0, 92, 65
1, 689184, Note_off_c, 0, 80, 58
1, 689189, Note_off_c, 0, 85, 60
1, 689190, Note_on_c, 0, 62, 82
1, 689210, Note_off_c, 0, 49, 51
1, 689214, Note_off_c, 0, 62, 64
1, 689219, Note_on_c, 0, 60, 36
1, 689219, Note_off_c, 0, 88, 61
1, 689245, Control_c, 0, 64, 75
1, 689246, Note_off_c, 0, 60, 57
1, 689259, Control_c, 0, 64, 59
1, 689274, Control_c, 0, 64, 62
1, 689277, Note_on_c, 0, 80, 113
1, 689278, Note_on_c, 0, 49, 93
1, 689279, Note_on_c, 0, 88, 97
1, 689279, Note_on_c, 0, 92, 100
1, 689284, Note_on_c, 0, 85, 89
1, 689289, Control_c, 0, 64, 82
1, 689303, Control_c, 0, 64, 127
1, 689306, Note_on_c, 0, 90, 50
1, 689326, Note_on_c, 0, 48, 28
1, 689332, Note_off_c, 0, 90, 56
1, 689343, Note_off_c, 0, 49, 63
1, 689347, Note_off_c, 0, 80, 60
1, 689347, Note_off_c, 0, 92, 64
1, 689363, Note_on_c, 0, 61, 83
1, 689363, Note_off_c, 0, 85, 60
1, 689364, Note_off_c, 0, 48, 48
1, 689374, Note_off_c, 0, 88, 63
1, 689411, Note_off_c, 0, 61, 58
1, 689437, Note_on_c, 0, 80, 104
1, 689440, Note_on_c, 0, 92, 95
1, 689446, Note_on_c, 0, 51, 84
1, 689446, Note_on_c, 0, 88, 83
1, 689450, Note_on_c, 0, 85, 73
1, 689461, Note_on_c, 0, 90, 50
1, 689467, Note_off_c, 0, 88, 68
1, 689472, Note_off_c, 0, 80, 58
1, 689472, Note_off_c, 0, 85, 69
1, 689485, Note_off_c, 0, 90, 58
1, 689494, Note_off_c, 0, 92, 66
1, 689509, Note_on_c, 0, 50, 9
1, 689517, Note_on_c, 0, 63, 88
1, 689531, Note_off_c, 0, 51, 63
1, 689533, Note_off_c, 0, 50, 0
1, 689558, Note_off_c, 0, 63, 60
1, 689571, Poly_aftertouch_c, 0, 50, 0
1, 689651, Note_on_c, 0, 88, 82
1, 689654, Note_on_c, 0, 92, 98
1, 689657, Note_on_c, 0, 97, 105
1, 689659, Note_on_c, 0, 85, 109
1, 689664, Note_on_c, 0, 56, 105
1, 689664, Note_on_c, 0, 64, 109
1, 689672, Note_on_c, 0, 94, 76
1, 689678, Note_on_c, 0, 52, 79
1, 689680, Note_on_c, 0, 54, 66
1, 689689, Note_on_c, 0, 58, 58
1, 689696, Note_on_c, 0, 55, 61
1, 689712, Note_off_c, 0, 58, 60
1, 689732, Note_off_c, 0, 55, 44
1, 689748, Control_c, 0, 64, 119
1, 689763, Control_c, 0, 64, 65
1, 689775, Note_off_c, 0, 94, 48
1, 689777, Control_c, 0, 64, 0
1, 689783, Note_off_c, 0, 54, 44
1, 689838, Control_c, 0, 64, 63
1, 689860, Control_c, 0, 64, 98
1, 689875, Control_c, 0, 64, 127
1, 689877, Note_off_c, 0, 97, 64
1, 689882, Note_off_c, 0, 85, 62
1, 689884, Note_off_c, 0, 52, 58
1, 689905, Note_off_c, 0, 88, 65
1, 689906, Note_off_c, 0, 56, 57
1, 689907, Note_off_c, 0, 92, 61
1, 689929, Note_off_c, 0, 64, 42
1, 690438, Control_c, 0, 64, 109
1, 690452, Control_c, 0, 64, 99
1, 690467, Control_c, 0, 64, 91
1, 690482, Control_c, 0, 64, 84
1, 690497, Control_c, 0, 64, 78
1, 690512, Control_c, 0, 64, 73
1, 690526, Control_c, 0, 64, 69
1, 690541, Control_c, 0, 64, 66
1, 690557, Control_c, 0, 64, 64
1, 690639, Control_c, 0, 64, 63
1, 690669, Control_c, 0, 64, 63
1, 690683, Control_c, 0, 64, 62
1, 690698, Control_c, 0, 64, 61
1, 690713, Control_c, 0, 64, 60
1, 690728, Control_c, 0, 64, 59
1, 690743, Control_c, 0, 64, 58
1, 690757, Control_c, 0, 64, 58
1, 690772, Control_c, 0, 64, 57
1, 690787, Control_c, 0, 64, 55
1, 690802, Control_c, 0, 64, 51
1, 690817, Control_c, 0, 64, 45
1, 690832, Control_c, 0, 64, 37
1, 690847, Control_c, 0, 64, 0
1, 691113, Control_c, 0, 64, 39
1, 691128, Control_c, 0, 64, 45
1, 691142, Control_c, 0, 64, 52
1, 691157, Control_c, 0, 64, 58
1, 691172, Control_c, 0, 64, 62
1, 691187, Control_c, 0, 64, 63
1, 691201, Control_c, 0, 64, 63
1, 691216, Control_c, 0, 64, 65
1, 691231, Control_c, 0, 64, 68
1, 691246, Control_c, 0, 64, 71
1, 691261, Control_c, 0, 64, 73
1, 691276, Control_c, 0, 64, 75
1, 691291, Control_c, 0, 64, 77
1, 691305, Control_c, 0, 64, 79
1, 691320, Control_c, 0, 64, 83
1, 691335, Control_c, 0, 64, 86
1, 691356, Control_c, 0, 64, 88
1, 691371, Control_c, 0, 64, 90
1, 691386, Control_c, 0, 64, 92
1, 691401, Control_c, 0, 64, 96
1, 691416, Control_c, 0, 64, 100
1, 691432, Control_c, 0, 64, 104
1, 691446, Control_c, 0, 64, 107
1, 691476, Control_c, 0, 64, 110
1, 691491, Control_c, 0, 64, 112
1, 691505, Control_c, 0, 64, 114
1, 691550, Control_c, 0, 64, 117
1, 691580, Control_c, 0, 64, 120
1, 691595, Control_c, 0, 64, 122
1, 691610, Control_c, 0, 64, 127
1, 691985, Note_on_c, 0, 60, 36
1, 692370, Note_on_c, 0, 61, 46
1, 692516, Note_off_c, 0, 60, 40
1, 692632, Note_on_c, 0, 63, 55
1, 692669, Control_c, 0, 64, 119
1, 692675, Note_off_c, 0, 61, 61
1, 692684, Control_c, 0, 64, 111
1, 692699, Control_c, 0, 64, 106
1, 692714, Control_c, 0, 64, 102
1, 692728, Control_c, 0, 64, 98
1, 692743, Control_c, 0, 64, 95
1, 692758, Control_c, 0, 64, 92
1, 692772, Control_c, 0, 64, 88
1, 692787, Control_c, 0, 64, 86
1, 692803, Control_c, 0, 64, 83
1, 692818, Control_c, 0, 64, 80
1, 692833, Control_c, 0, 64, 78
1, 692847, Note_off_c, 0, 63, 60
1, 692855, Control_c, 0, 64, 75
1, 692858, Note_on_c, 0, 61, 51
1, 692870, Control_c, 0, 64, 73
1, 692885, Control_c, 0, 64, 69
1, 692900, Control_c, 0, 64, 67
1, 692915, Control_c, 0, 64, 64
1, 692929, Control_c, 0, 64, 61
1, 692944, Control_c, 0, 64, 58
1, 692959, Control_c, 0, 64, 58
1, 692973, Control_c, 0, 64, 57
1, 693003, Control_c, 0, 64, 56
1, 693019, Control_c, 0, 64, 54
1, 693034, Control_c, 0, 64, 52
1, 693049, Control_c, 0, 64, 52
1, 693078, Control_c, 0, 64, 51
1, 693093, Control_c, 0, 64, 50
1, 693108, Control_c, 0, 64, 48
1, 693123, Control_c, 0, 64, 44
1, 693138, Control_c, 0, 64, 40
1, 693152, Control_c, 0, 64, 34
1, 693167, Control_c, 0, 64, 0
1, 693243, Note_on_c, 0, 64, 33
1, 693258, Note_off_c, 0, 61, 43
1, 693345, Control_c, 0, 64, 39
1, 693360, Control_c, 0, 64, 52
1, 693374, Control_c, 0, 64, 63
1, 693389, Control_c, 0, 64, 68
1, 693404, Control_c, 0, 64, 74
1, 693419, Control_c, 0, 64, 82
1, 693434, Control_c, 0, 64, 96
1, 693449, Control_c, 0, 64, 127
1, 693487, Note_off_c, 0, 64, 62
1, 693797, Note_on_c, 0, 63, 65
1, 693828, Note_off_c, 0, 63, 65
1, 693887, Control_c, 0, 64, 86
1, 693900, Note_on_c, 0, 97, 109
1, 693901, Control_c, 0, 64, 52
1, 693902, Note_on_c, 0, 85, 99
1, 693902, Note_on_c, 0, 88, 96
1, 693902, Note_on_c, 0, 92, 95
1, 693913, Note_on_c, 0, 52, 104
1, 693914, Note_on_c, 0, 44, 107
1, 693916, Control_c, 0, 64, 0
1, 693917, Note_on_c, 0, 94, 76
1, 693928, Note_on_c, 0, 40, 73
1, 693931, Control_c, 0, 64, 50
1, 693943, Note_on_c, 0, 46, 42
1, 693943, Note_off_c, 0, 46, 127
1, 693944, Note_off_c, 0, 94, 53
1, 693946, Control_c, 0, 64, 80
1, 693960, Note_on_c, 0, 43, 41
1, 693961, Control_c, 0, 64, 127
1, 693962, Note_off_c, 0, 40, 62
1, 693975, Note_off_c, 0, 97, 66
1, 693980, Poly_aftertouch_c, 0, 46, 0
1, 693980, Note_off_c, 0, 85, 65
1, 693989, Note_off_c, 0, 44, 66
1, 693989, Note_off_c, 0, 52, 60
1, 693996, Note_off_c, 0, 43, 48
1, 694004, Note_off_c, 0, 88, 64
1, 694014, Note_off_c, 0, 92, 64
1, 694457, Control_c, 0, 64, 107
1, 694471, Control_c, 0, 64, 97
1, 694486, Control_c, 0, 64, 91
1, 694501, Control_c, 0, 64, 87
1, 694516, Control_c, 0, 64, 82
1, 694531, Control_c, 0, 64, 78
1, 694545, Control_c, 0, 64, 75
1, 694560, Control_c, 0, 64, 72
1, 694575, Control_c, 0, 64, 68
1, 694590, Control_c, 0, 64, 65
1, 694590, Control_c, 0, 67, 19
1, 694605, Control_c, 0, 64, 62
1, 694620, Control_c, 0, 64, 60
1, 694635, Control_c, 0, 64, 59
1, 694650, Control_c, 0, 67, 23
1, 694665, Control_c, 0, 64, 58
1, 694680, Control_c, 0, 64, 56
1, 694680, Control_c, 0, 67, 25
1, 694695, Control_c, 0, 64, 52
1, 694695, Control_c, 0, 67, 27
1, 694710, Control_c, 0, 64, 48
1, 694710, Control_c, 0, 67, 31
1, 694724, Control_c, 0, 64, 45
1, 694724, Control_c, 0, 67, 35
1, 694739, Control_c, 0, 64, 41
1, 694739, Control_c, 0, 67, 40
1, 694754, Control_c, 0, 64, 34
1, 694754, Control_c, 0, 67, 45
1, 694769, Control_c, 0, 64, 0
1, 694769, Control_c, 0, 67, 52
1, 694784, Control_c, 0, 67, 57
1, 694798, Control_c, 0, 67, 63
1, 694813, Control_c, 0, 67, 71
1, 694828, Control_c, 0, 67, 80
1, 694842, Control_c, 0, 67, 91
1, 694857, Control_c, 0, 67, 100
1, 694872, Control_c, 0, 67, 107
1, 694887, Control_c, 0, 67, 113
1, 694902, Control_c, 0, 67, 118
1, 694916, Control_c, 0, 67, 122
1, 694931, Control_c, 0, 67, 126
1, 694990, Control_c, 0, 64, 36
1, 695005, Control_c, 0, 64, 43
1, 695020, Control_c, 0, 64, 47
1, 695035, Control_c, 0, 64, 50
1, 695050, Control_c, 0, 64, 54
1, 695065, Control_c, 0, 64, 61
1, 695080, Control_c, 0, 64, 65
1, 695102, Control_c, 0, 64, 67
1, 695116, Control_c, 0, 64, 70
1, 695131, Control_c, 0, 64, 72
1, 695146, Control_c, 0, 64, 74
1, 695161, Control_c, 0, 64, 78
1, 695175, Control_c, 0, 64, 84
1, 695190, Control_c, 0, 64, 89
1, 695205, Control_c, 0, 64, 93
1, 695220, Control_c, 0, 64, 97
1, 695235, Control_c, 0, 64, 101
1, 695249, Control_c, 0, 64, 106
1, 695264, Control_c, 0, 64, 110
1, 695279, Control_c, 0, 64, 113
1, 695294, Control_c, 0, 64, 115
1, 695309, Control_c, 0, 64, 118
1, 695324, Control_c, 0, 64, 120
1, 695339, Control_c, 0, 64, 125
1, 695354, Control_c, 0, 64, 127
1, 696099, Note_on_c, 0, 60, 34
1, 696221, Control_c, 0, 64, 125
1, 696236, Control_c, 0, 64, 120
1, 696251, Control_c, 0, 64, 118
1, 696266, Control_c, 0, 64, 116
1, 696281, Control_c, 0, 64, 113
1, 696296, Control_c, 0, 64, 111
1, 696311, Control_c, 0, 64, 109
1, 696326, Control_c, 0, 64, 106
1, 696355, Control_c, 0, 64, 102
1, 696370, Control_c, 0, 64, 100
1, 696385, Control_c, 0, 64, 98
1, 696400, Control_c, 0, 64, 96
1, 696414, Control_c, 0, 64, 95
1, 696429, Control_c, 0, 64, 94
1, 696444, Control_c, 0, 64, 93
1, 696451, Note_on_c, 0, 61, 49
1, 696459, Control_c, 0, 64, 92
1, 696474, Control_c, 0, 64, 90
1, 696488, Control_c, 0, 64, 89
1, 696503, Control_c, 0, 64, 87
1, 696518, Control_c, 0, 64, 86
1, 696533, Control_c, 0, 64, 85
1, 696547, Control_c, 0, 64, 83
1, 696562, Control_c, 0, 64, 82
1, 696577, Control_c, 0, 64, 80
1, 696600, Control_c, 0, 64, 78
1, 696615, Control_c, 0, 64, 76
1, 696622, Note_off_c, 0, 60, 39
1, 696629, Control_c, 0, 64, 74
1, 696644, Control_c, 0, 64, 73
1, 696659, Control_c, 0, 64, 71
1, 696674, Control_c, 0, 64, 70
1, 696689, Control_c, 0, 64, 68
1, 696703, Control_c, 0, 64, 67
1, 696718, Control_c, 0, 64, 66
1, 696733, Control_c, 0, 64, 65
1, 696741, Note_on_c, 0, 63, 56
1, 696747, Control_c, 0, 64, 65
1, 696777, Control_c, 0, 64, 64
1, 696778, Note_off_c, 0, 61, 60
1, 696792, Control_c, 0, 64, 64
1, 696807, Control_c, 0, 64, 63
1, 696821, Control_c, 0, 64, 62
1, 696836, Control_c, 0, 64, 62
1, 696866, Control_c, 0, 64, 61
1, 696895, Control_c, 0, 64, 61
1, 696910, Control_c, 0, 64, 60
1, 696925, Control_c, 0, 64, 60
1, 696933, Note_on_c, 0, 61, 65
1, 696940, Control_c, 0, 64, 59
1, 696945, Note_off_c, 0, 63, 59
1, 696955, Control_c, 0, 64, 59
1, 696984, Control_c, 0, 64, 58
1, 696984, Control_c, 0, 67, 124
1, 697015, Control_c, 0, 64, 58
1, 697015, Control_c, 0, 67, 122
1, 697030, Control_c, 0, 64, 57
1, 697044, Control_c, 0, 64, 56
1, 697059, Control_c, 0, 64, 55
1, 697074, Control_c, 0, 64, 54
1, 697089, Control_c, 0, 64, 53
1, 697104, Control_c, 0, 64, 53
1, 697118, Control_c, 0, 64, 52
1, 697133, Control_c, 0, 64, 52
1, 697148, Control_c, 0, 64, 51
1, 697148, Control_c, 0, 67, 120
1, 697163, Control_c, 0, 64, 49
1, 697178, Control_c, 0, 64, 48
1, 697193, Control_c, 0, 64, 46
1, 697208, Control_c, 0, 64, 45
1, 697210, Note_on_c, 0, 64, 38
1, 697223, Control_c, 0, 64, 43
1, 697237, Control_c, 0, 64, 41
1, 697252, Control_c, 0, 64, 37
1, 697252, Control_c, 0, 67, 118
1, 697267, Control_c, 0, 64, 33
1, 697267, Control_c, 0, 67, 115
1, 697282, Control_c, 0, 64, 0
1, 697282, Control_c, 0, 67, 106
1, 697282, Note_off_c, 0, 61, 52
1, 697297, Control_c, 0, 67, 96
1, 697311, Control_c, 0, 67, 87
1, 697326, Control_c, 0, 67, 79
1, 697348, Control_c, 0, 67, 72
1, 697363, Control_c, 0, 67, 67
1, 697378, Control_c, 0, 67, 64
1, 697393, Control_c, 0, 67, 61
1, 697408, Control_c, 0, 67, 57
1, 697423, Control_c, 0, 67, 53
1, 697437, Control_c, 0, 67, 47
1, 697452, Control_c, 0, 64, 38
1, 697452, Control_c, 0, 67, 40
1, 697467, Control_c, 0, 64, 46
1, 697467, Control_c, 0, 67, 34
1, 697482, Control_c, 0, 64, 50
1, 697482, Control_c, 0, 67, 28
1, 697497, Control_c, 0, 64, 54
1, 697497, Control_c, 0, 67, 24
1, 697512, Control_c, 0, 64, 59
1, 697512, Control_c, 0, 67, 19
1, 697526, Control_c, 0, 64, 62
1, 697526, Control_c, 0, 67, 0
1, 697541, Control_c, 0, 64, 64
1, 697556, Control_c, 0, 64, 66
1, 697570, Control_c, 0, 64, 67
1, 697585, Control_c, 0, 64, 69
1, 697600, Control_c, 0, 64, 72
1, 697615, Control_c, 0, 64, 76
1, 697630, Control_c, 0, 64, 79
1, 697644, Control_c, 0, 64, 82
1, 697659, Control_c, 0, 64, 85
1, 697674, Control_c, 0, 64, 88
1, 697689, Control_c, 0, 64, 92
1, 697704, Control_c, 0, 64, 95
1, 697718, Control_c, 0, 64, 98
1, 697748, Control_c, 0, 64, 101
1, 697777, Control_c, 0, 64, 105
1, 697792, Control_c, 0, 64, 107
1, 697864, Note_on_c, 0, 68, 48
1, 697956, Control_c, 0, 64, 105
1, 697971, Control_c, 0, 64, 102
1, 697986, Control_c, 0, 64, 98
1, 698001, Control_c, 0, 64, 92
1, 698016, Control_c, 0, 64, 86
1, 698027, Note_on_c, 0, 62, 42
1, 698031, Control_c, 0, 64, 81
1, 698046, Control_c, 0, 64, 76
1, 698060, Control_c, 0, 64, 69
1, 698070, Note_off_c, 0, 68, 26
1, 698075, Note_off_c, 0, 64, 30
1, 698075, Control_c, 0, 64, 64
1, 698098, Control_c, 0, 64, 57
1, 698113, Control_c, 0, 64, 49
1, 698128, Control_c, 0, 64, 43
1, 698142, Control_c, 0, 64, 39
1, 698157, Control_c, 0, 64, 36
1, 698172, Control_c, 0, 64, 34
1, 698216, Control_c, 0, 64, 35
1, 698231, Control_c, 0, 64, 37
1, 698246, Control_c, 0, 64, 39
1, 698260, Control_c, 0, 64, 44
1, 698275, Control_c, 0, 64, 49
1, 698290, Control_c, 0, 64, 52
1, 698305, Control_c, 0, 64, 54
1, 698320, Control_c, 0, 64, 56
1, 698335, Control_c, 0, 64, 60
1, 698350, Control_c, 0, 64, 64
1, 698364, Control_c, 0, 64, 68
1, 698379, Control_c, 0, 64, 71
1, 698394, Control_c, 0, 64, 74
1, 698409, Control_c, 0, 64, 77
1, 698424, Control_c, 0, 64, 80
1, 698439, Control_c, 0, 64, 84
1, 698454, Control_c, 0, 64, 90
1, 698468, Control_c, 0, 64, 95
1, 698483, Control_c, 0, 64, 102
1, 698498, Control_c, 0, 64, 110
1, 698512, Control_c, 0, 64, 122
1, 698527, Control_c, 0, 64, 127
1, 698800, Note_on_c, 0, 57, 34
1, 698809, Control_c, 0, 67, 19
1, 699001, Note_on_c, 0, 56, 41
1, 699006, Note_off_c, 0, 57, 39
1, 699142, Note_on_c, 0, 55, 40
1, 699154, Note_off_c, 0, 56, 38
1, 699202, Control_c, 0, 67, 21
1, 699204, Note_off_c, 0, 55, 57
1, 699210, Note_on_c, 0, 54, 54
1, 699251, Note_off_c, 0, 54, 62
1, 699284, Note_on_c, 0, 53, 64
1, 699355, Note_off_c, 0, 53, 61
1, 699364, Note_on_c, 0, 52, 67
1, 699365, Control_c, 0, 64, 120
1, 699380, Control_c, 0, 64, 88
1, 699395, Control_c, 0, 64, 69
1, 699411, Control_c, 0, 64, 46
1, 699422, Note_off_c, 0, 52, 61
1, 699426, Control_c, 0, 64, 0
1, 699429, Note_on_c, 0, 51, 57
1, 699468, Note_off_c, 0, 51, 64
1, 699489, Note_on_c, 0, 50, 68
1, 699543, Control_c, 0, 64, 51
1, 699553, Note_off_c, 0, 50, 63
1, 699557, Control_c, 0, 64, 64
1, 699558, Note_on_c, 0, 49, 72
1, 699572, Control_c, 0, 64, 72
1, 699595, Control_c, 0, 64, 82
1, 699610, Control_c, 0, 64, 94
1, 699619, Note_off_c, 0, 49, 59
1, 699622, Note_off_c, 0, 62, 61
1, 699625, Control_c, 0, 64, 110
1, 699634, Note_on_c, 0, 48, 76
1, 699639, Control_c, 0, 64, 127
1, 699705, Note_on_c, 0, 47, 80
1, 699705, Note_off_c, 0, 48, 62
1, 699758, Note_on_c, 0, 46, 75
1, 699768, Note_off_c, 0, 47, 62
1, 699813, Note_off_c, 0, 46, 64
1, 699828, Note_on_c, 0, 45, 89
1, 699831, Control_c, 0, 67, 0
1, 699899, Note_on_c, 0, 44, 84
1, 699919, Note_off_c, 0, 45, 61
1, 699941, Note_on_c, 0, 43, 73
1, 699995, Note_on_c, 0, 42, 80
1, 699995, Note_off_c, 0, 44, 63
1, 700011, Note_off_c, 0, 43, 62
1, 700023, Note_off_c, 0, 42, 69
1, 700063, Note_on_c, 0, 41, 87
1, 700117, Note_off_c, 0, 41, 63
1, 700129, Note_on_c, 0, 40, 68
1, 700152, Note_on_c, 0, 39, 69
1, 700155, Note_off_c, 0, 40, 65
1, 700179, Note_off_c, 0, 39, 62
1, 700200, Note_on_c, 0, 93, 93
1, 700201, Note_on_c, 0, 90, 102
1, 700203, Note_on_c, 0, 86, 102
1, 700206, Note_on_c, 0, 98, 102
1, 700211, Note_on_c, 0, 38, 121
1, 700246, Note_on_c, 0, 96, 41
1, 700277, Control_c, 0, 64, 71
1, 700291, Control_c, 0, 64, 0
1, 700293, Note_off_c, 0, 96, 46
1, 700343, Control_c, 0, 64, 60
1, 700358, Control_c, 0, 64, 114
1, 700373, Control_c, 0, 64, 127
1, 700382, Note_off_c, 0, 98, 65
1, 700383, Note_off_c, 0, 38, 65
1, 700387, Note_off_c, 0, 86, 61
1, 700408, Note_off_c, 0, 93, 62
1, 700409, Note_off_c, 0, 90, 62
1, 700654, Control_c, 0, 64, 90
1, 700669, Control_c, 0, 64, 76
1, 700684, Control_c, 0, 64, 66
1, 700699, Control_c, 0, 64, 57
1, 700713, Control_c, 0, 64, 47
1, 700728, Control_c, 0, 64, 46
1, 700743, Control_c, 0, 64, 46
1, 700758, Control_c, 0, 64, 46
1, 700773, Control_c, 0, 64, 45
1, 700787, Control_c, 0, 64, 43
1, 700802, Control_c, 0, 64, 42
1, 700832, Control_c, 0, 64, 41
1, 700847, Control_c, 0, 64, 37
1, 700861, Control_c, 0, 64, 33
1, 700876, Control_c, 0, 64, 0
1, 701285, Control_c, 0, 64, 35
1, 701300, Control_c, 0, 64, 38
1, 701315, Control_c, 0, 64, 40
1, 701330, Control_c, 0, 64, 43
1, 701344, Control_c, 0, 64, 47
1, 701359, Control_c, 0, 64, 50
1, 701374, Control_c, 0, 64, 53
1, 701389, Control_c, 0, 64, 56
1, 701403, Control_c, 0, 64, 57
1, 701418, Control_c, 0, 64, 60
1, 701433, Control_c, 0, 64, 64
1, 701448, Control_c, 0, 64, 70
1, 701463, Control_c, 0, 64, 74
1, 701478, Control_c, 0, 64, 78
1, 701492, Control_c, 0, 64, 80
1, 701507, Control_c, 0, 64, 84
1, 701522, Control_c, 0, 64, 91
1, 701536, Control_c, 0, 64, 106
1, 701551, Control_c, 0, 64, 127
1, 702153, Note_on_c, 0, 61, 38
1, 702404, Control_c, 0, 64, 111
1, 702419, Control_c, 0, 64, 101
1, 702433, Control_c, 0, 64, 93
1, 702448, Control_c, 0, 64, 89
1, 702463, Control_c, 0, 64, 85
1, 702477, Control_c, 0, 64, 80
1, 702492, Control_c, 0, 64, 76
1, 702507, Control_c, 0, 64, 71
1, 702522, Control_c, 0, 64, 67
1, 702537, Control_c, 0, 64, 64
1, 702551, Control_c, 0, 64, 61
1, 702566, Control_c, 0, 64, 59
1, 702585, Note_on_c, 0, 62, 59
1, 702588, Control_c, 0, 64, 57
1, 702604, Control_c, 0, 64, 57
1, 702619, Control_c, 0, 64, 55
1, 702634, Control_c, 0, 64, 53
1, 702649, Control_c, 0, 64, 50
1, 702651, Note_off_c, 0, 61, 41
1, 702663, Control_c, 0, 64, 47
1, 702678, Control_c, 0, 64, 45
1, 702693, Control_c, 0, 64, 42
1, 702708, Control_c, 0, 64, 40
1, 702723, Control_c, 0, 64, 37
1, 702737, Control_c, 0, 64, 35
1, 702752, Control_c, 0, 64, 34
1, 702767, Control_c, 0, 64, 34
1, 702782, Control_c, 0, 64, 33
1, 702797, Control_c, 0, 64, 33
1, 702812, Control_c, 0, 64, 0
1, 702866, Note_on_c, 0, 64, 47
1, 702896, Note_off_c, 0, 62, 51
1, 703093, Note_off_c, 0, 64, 60
1, 703104, Note_on_c, 0, 62, 42
1, 703452, Note_on_c, 0, 66, 40
1, 703539, Note_off_c, 0, 62, 37
1, 703576, Control_c, 0, 64, 36
1, 703591, Control_c, 0, 64, 52
1, 703605, Control_c, 0, 64, 63
1, 703620, Control_c, 0, 64, 69
1, 703635, Control_c, 0, 64, 79
1, 703650, Control_c, 0, 64, 93
1, 703665, Control_c, 0, 64, 127
1, 703693, Note_off_c, 0, 66, 63
1, 703966, Note_on_c, 0, 64, 47
1, 703991, Note_off_c, 0, 64, 55
1, 704049, Control_c, 0, 64, 73
1, 704053, Note_on_c, 0, 93, 102
1, 704055, Note_on_c, 0, 90, 103
1, 704056, Note_on_c, 0, 86, 113
1, 704058, Note_on_c, 0, 98, 108
1, 704062, Note_on_c, 0, 54, 103
1, 704064, Control_c, 0, 64, 0
1, 704076, Note_on_c, 0, 50, 89
1, 704085, Note_on_c, 0, 45, 79
1, 704102, Note_on_c, 0, 42, 43
1, 704102, Control_c, 0, 64, 55
1, 704115, Note_on_c, 0, 96, 26
1, 704117, Control_c, 0, 64, 92
1, 704131, Control_c, 0, 64, 127
1, 704135, Note_off_c, 0, 42, 53
1, 704135, Note_off_c, 0, 98, 68
1, 704138, Note_off_c, 0, 50, 58
1, 704141, Note_on_c, 0, 95, 29
1, 704141, Note_off_c, 0, 45, 63
1, 704145, Note_off_c, 0, 86, 66
1, 704156, Note_off_c, 0, 96, 51
1, 704160, Note_off_c, 0, 93, 66
1, 704163, Note_off_c, 0, 95, 53
1, 704164, Note_off_c, 0, 54, 59
1, 704171, Note_off_c, 0, 90, 65
1, 704814, Control_c, 0, 64, 116
1, 704836, Control_c, 0, 64, 102
1, 704851, Control_c, 0, 64, 95
1, 704866, Control_c, 0, 64, 90
1, 704880, Control_c, 0, 64, 85
1, 704895, Control_c, 0, 64, 79
1, 704910, Control_c, 0, 64, 73
1, 704925, Control_c, 0, 64, 68
1, 704940, Control_c, 0, 64, 64
1, 704954, Control_c, 0, 64, 61
1, 704969, Control_c, 0, 64, 59
1, 704984, Control_c, 0, 64, 57
1, 704999, Control_c, 0, 64, 54
1, 705015, Control_c, 0, 64, 53
1, 705030, Control_c, 0, 64, 52
1, 705045, Control_c, 0, 64, 52
1, 705059, Control_c, 0, 64, 50
1, 705074, Control_c, 0, 64, 47
1, 705089, Control_c, 0, 64, 43
1, 705103, Control_c, 0, 64, 41
1, 705118, Control_c, 0, 64, 40
1, 705133, Control_c, 0, 64, 38
1, 705148, Control_c, 0, 64, 35
1, 705163, Control_c, 0, 64, 0
1, 705340, Control_c, 0, 64, 33
1, 705355, Control_c, 0, 64, 38
1, 705370, Control_c, 0, 64, 43
1, 705385, Control_c, 0, 64, 50
1, 705399, Control_c, 0, 64, 57
1, 705414, Control_c, 0, 64, 62
1, 705429, Control_c, 0, 64, 65
1, 705444, Control_c, 0, 64, 67
1, 705459, Control_c, 0, 64, 69
1, 705474, Control_c, 0, 64, 72
1, 705489, Control_c, 0, 64, 76
1, 705503, Control_c, 0, 64, 81
1, 705518, Control_c, 0, 64, 88
1, 705534, Control_c, 0, 64, 95
1, 705548, Control_c, 0, 64, 104
1, 705563, Control_c, 0, 64, 127
1, 706360, Note_on_c, 0, 61, 39
1, 706800, Note_on_c, 0, 62, 60
1, 706872, Note_off_c, 0, 61, 37
1, 707084, Note_on_c, 0, 64, 66
1, 707131, Note_off_c, 0, 62, 58
1, 707279, Note_on_c, 0, 62, 82
1, 707316, Note_off_c, 0, 64, 59
1, 707319, Control_c, 0, 64, 110
1, 707334, Control_c, 0, 64, 100
1, 707349, Control_c, 0, 64, 91
1, 707364, Control_c, 0, 64, 84
1, 707379, Control_c, 0, 64, 78
1, 707394, Control_c, 0, 64, 72
1, 707409, Control_c, 0, 64, 66
1, 707424, Control_c, 0, 64, 59
1, 707439, Control_c, 0, 64, 51
1, 707453, Control_c, 0, 64, 47
1, 707468, Control_c, 0, 64, 46
1, 707483, Control_c, 0, 64, 44
1, 707498, Control_c, 0, 64, 35
1, 707513, Control_c, 0, 64, 0
1, 707543, Note_on_c, 0, 66, 64
1, 707622, Note_off_c, 0, 62, 59
1, 707735, Control_c, 0, 64, 39
1, 707750, Control_c, 0, 64, 49
1, 707765, Control_c, 0, 64, 54
1, 707779, Control_c, 0, 64, 60
1, 707794, Control_c, 0, 64, 65
1, 707809, Control_c, 0, 64, 70
1, 707831, Control_c, 0, 64, 76
1, 707846, Control_c, 0, 64, 79
1, 707861, Control_c, 0, 64, 82
1, 707876, Control_c, 0, 64, 86
1, 707891, Control_c, 0, 64, 92
1, 707905, Control_c, 0, 64, 101
1, 707920, Control_c, 0, 64, 127
1, 708113, Note_on_c, 0, 69, 48
1, 708246, Control_c, 0, 64, 94
1, 708261, Note_on_c, 0, 61, 47
1, 708261, Control_c, 0, 64, 80
1, 708276, Control_c, 0, 64, 70
1, 708281, Note_off_c, 0, 69, 46
1, 708291, Control_c, 0, 64, 62
1, 708306, Control_c, 0, 64, 52
1, 708321, Control_c, 0, 64, 40
1, 708336, Control_c, 0, 64, 33
1, 708351, Control_c, 0, 64, 0
1, 708352, Note_off_c, 0, 66, 40
1, 708365, Control_c, 0, 64, 33
1, 708380, Control_c, 0, 64, 35
1, 708395, Control_c, 0, 64, 40
1, 708410, Control_c, 0, 64, 47
1, 708425, Control_c, 0, 64, 52
1, 708439, Control_c, 0, 64, 55
1, 708454, Control_c, 0, 64, 58
1, 708469, Control_c, 0, 64, 60
1, 708484, Control_c, 0, 64, 63
1, 708499, Control_c, 0, 64, 66
1, 708513, Control_c, 0, 64, 70
1, 708529, Control_c, 0, 64, 74
1, 708544, Control_c, 0, 64, 79
1, 708559, Control_c, 0, 64, 83
1, 708581, Control_c, 0, 64, 88
1, 708596, Control_c, 0, 64, 93
1, 708610, Control_c, 0, 64, 98
1, 708625, Control_c, 0, 64, 111
1, 708640, Control_c, 0, 64, 127
1, 709096, Note_on_c, 0, 68, 48
1, 709203, Control_c, 0, 64, 120
1, 709218, Control_c, 0, 64, 103
1, 709233, Control_c, 0, 64, 94
1, 709248, Control_c, 0, 64, 87
1, 709263, Control_c, 0, 64, 82
1, 709278, Control_c, 0, 64, 77
1, 709292, Control_c, 0, 64, 72
1, 709307, Control_c, 0, 64, 66
1, 709310, Note_off_c, 0, 61, 46
1, 709330, Control_c, 0, 64, 61
1, 709344, Control_c, 0, 64, 56
1, 709359, Control_c, 0, 64, 54
1, 709374, Control_c, 0, 64, 52
1, 709389, Control_c, 0, 64, 50
1, 709403, Control_c, 0, 64, 47
1, 709418, Control_c, 0, 64, 43
1, 709433, Control_c, 0, 64, 40
1, 709448, Control_c, 0, 64, 38
1, 709463, Control_c, 0, 64, 37
1, 709477, Control_c, 0, 64, 35
1, 709492, Control_c, 0, 64, 33
1, 709507, Control_c, 0, 64, 0
1, 709893, Control_c, 0, 64, 42
1, 709908, Control_c, 0, 64, 57
1, 709923, Control_c, 0, 64, 63
1, 709938, Control_c, 0, 64, 66
1, 709953, Control_c, 0, 64, 69
1, 709967, Control_c, 0, 64, 72
1, 709982, Control_c, 0, 64, 74
1, 709997, Control_c, 0, 64, 78
1, 710011, Control_c, 0, 64, 86
1, 710026, Control_c, 0, 64, 100
1, 710041, Control_c, 0, 64, 127
1, 710138, Note_on_c, 0, 44, 47
1, 710181, Note_on_c, 0, 49, 61
1, 710181, Note_off_c, 0, 44, 53
1, 710224, Note_on_c, 0, 52, 67
1, 710248, Note_off_c, 0, 49, 60
1, 710270, Note_on_c, 0, 56, 85
1, 710297, Note_off_c, 0, 52, 61
1, 710335, Note_off_c, 0, 56, 62
1, 710656, Control_c, 0, 64, 122
1, 710671, Control_c, 0, 64, 103
1, 710686, Control_c, 0, 64, 91
1, 710701, Control_c, 0, 64, 80
1, 710715, Control_c, 0, 64, 73
1, 710730, Control_c, 0, 64, 66
1, 710745, Control_c, 0, 64, 60
1, 710759, Control_c, 0, 64, 52
1, 710775, Control_c, 0, 64, 44
1, 710790, Control_c, 0, 64, 36
1, 710805, Control_c, 0, 64, 0
1, 711015, Note_on_c, 0, 66, 46
1, 711276, Note_on_c, 0, 64, 61
1, 711289, Note_off_c, 0, 68, 49
1, 711448, Note_off_c, 0, 66, 26
1, 711471, Note_on_c, 0, 63, 74
1, 711564, Note_off_c, 0, 64, 54
1, 711662, Note_on_c, 0, 61, 75
1, 711693, Note_off_c, 0, 63, 61
1, 711897, Note_on_c, 0, 60, 66
1, 712047, Note_off_c, 0, 61, 58
1, 712479, Note_on_c, 0, 68, 52
1, 712675, Note_off_c, 0, 60, 58
1, 712962, Control_c, 0, 64, 48
1, 712977, Control_c, 0, 64, 60
1, 712992, Control_c, 0, 64, 65
1, 713007, Control_c, 0, 64, 68
1, 713022, Control_c, 0, 64, 72
1, 713036, Control_c, 0, 64, 78
1, 713051, Control_c, 0, 64, 86
1, 713074, Control_c, 0, 64, 97
1, 713089, Control_c, 0, 64, 118
1, 713104, Control_c, 0, 64, 127
1, 713330, Note_on_c, 0, 72, 51
1, 713373, Note_off_c, 0, 72, 57
1, 713376, Note_on_c, 0, 75, 66
1, 713424, Note_on_c, 0, 78, 78
1, 713437, Note_off_c, 0, 75, 62
1, 713478, Note_on_c, 0, 81, 91
1, 713482, Note_off_c, 0, 78, 66
1, 713516, Note_off_c, 0, 81, 66
1, 713681, Control_c, 0, 67, 19
1, 713710, Control_c, 0, 67, 21
1, 713740, Control_c, 0, 67, 26
1, 713755, Control_c, 0, 67, 29
1, 713769, Control_c, 0, 67, 33
1, 713785, Control_c, 0, 67, 39
1, 713800, Control_c, 0, 67, 49
1, 713822, Control_c, 0, 67, 59
1, 713837, Control_c, 0, 67, 70
1, 713852, Control_c, 0, 67, 80
1, 713866, Control_c, 0, 67, 87
1, 713881, Control_c, 0, 64, 104
1, 713881, Control_c, 0, 67, 93
1, 713896, Control_c, 0, 64, 93
1, 713896, Control_c, 0, 67, 97
1, 713911, Control_c, 0, 64, 86
1, 713911, Control_c, 0, 67, 100
1, 713926, Control_c, 0, 64, 80
1, 713926, Control_c, 0, 67, 102
1, 713940, Control_c, 0, 64, 75
1, 713940, Control_c, 0, 67, 105
1, 713955, Control_c, 0, 64, 70
1, 713955, Control_c, 0, 67, 109
1, 713970, Control_c, 0, 64, 66
1, 713970, Control_c, 0, 67, 112
1, 713984, Control_c, 0, 64, 62
1, 713984, Control_c, 0, 67, 115
1, 713999, Control_c, 0, 64, 57
1, 713999, Control_c, 0, 67, 117
1, 714014, Control_c, 0, 64, 54
1, 714029, Control_c, 0, 64, 52
1, 714044, Control_c, 0, 64, 50
1, 714044, Control_c, 0, 67, 120
1, 714059, Control_c, 0, 64, 47
1, 714074, Control_c, 0, 64, 43
1, 714074, Control_c, 0, 67, 122
1, 714089, Control_c, 0, 64, 39
1, 714089, Control_c, 0, 67, 125
1, 714104, Control_c, 0, 64, 33
1, 714104, Control_c, 0, 67, 127
1, 714112, Note_on_c, 0, 67, 51
1, 714118, Control_c, 0, 64, 0
1, 714160, Note_off_c, 0, 68, 57
1, 714401, Note_on_c, 0, 68, 65
1, 714423, Note_off_c, 0, 67, 60
1, 714618, Note_on_c, 0, 66, 64
1, 714793, Control_c, 0, 67, 125
1, 714834, Note_on_c, 0, 63, 64
1, 714879, Note_off_c, 0, 66, 57
1, 714926, Control_c, 0, 67, 123
1, 715019, Note_off_c, 0, 68, 24
1, 715092, Note_on_c, 0, 64, 50
1, 715140, Note_off_c, 0, 63, 60
1, 715694, Note_on_c, 0, 68, 46
1, 715927, Control_c, 0, 67, 121
1, 715956, Note_off_c, 0, 64, 56
1, 716232, Control_c, 0, 64, 34
1, 716247, Control_c, 0, 64, 53
1, 716262, Control_c, 0, 64, 62
1, 716277, Control_c, 0, 64, 65
1, 716292, Control_c, 0, 64, 68
1, 716306, Control_c, 0, 64, 72
1, 716321, Control_c, 0, 64, 76
1, 716336, Control_c, 0, 64, 81
1, 716351, Control_c, 0, 64, 88
1, 716366, Control_c, 0, 64, 95
1, 716380, Control_c, 0, 64, 105
1, 716395, Control_c, 0, 64, 127
1, 716673, Note_on_c, 0, 56, 63
1, 716680, Note_on_c, 0, 49, 63
1, 716682, Note_on_c, 0, 52, 60
1, 716686, Note_on_c, 0, 44, 55
1, 716732, Note_off_c, 0, 44, 61
1, 716758, Note_off_c, 0, 56, 52
1, 716769, Note_off_c, 0, 49, 60
1, 716785, Note_off_c, 0, 52, 58
1, 716861, Control_c, 0, 67, 123
1, 717114, Control_c, 0, 64, 107
1, 717129, Control_c, 0, 64, 100
1, 717143, Control_c, 0, 64, 91
1, 717143, Control_c, 0, 67, 121
1, 717158, Control_c, 0, 64, 81
1, 717173, Control_c, 0, 64, 72
1, 717173, Control_c, 0, 67, 118
1, 717188, Control_c, 0, 64, 63
1, 717188, Control_c, 0, 67, 116
1, 717203, Control_c, 0, 64, 56
1, 717203, Control_c, 0, 67, 104
1, 717217, Control_c, 0, 64, 52
1, 717217, Control_c, 0, 67, 87
1, 717232, Control_c, 0, 64, 50
1, 717232, Control_c, 0, 67, 68
1, 717247, Control_c, 0, 67, 51
1, 717262, Control_c, 0, 67, 34
1, 717276, Control_c, 0, 64, 50
1, 717276, Control_c, 0, 67, 0
1, 717291, Control_c, 0, 64, 48
1, 717306, Control_c, 0, 64, 47
1, 717321, Control_c, 0, 64, 47
1, 717365, Control_c, 0, 64, 46
1, 717368, Note_on_c, 0, 66, 51
1, 717380, Control_c, 0, 64, 44
1, 717395, Control_c, 0, 64, 44
1, 717409, Note_off_c, 0, 68, 52
1, 717424, Control_c, 0, 64, 43
1, 717454, Control_c, 0, 64, 43
1, 717499, Control_c, 0, 64, 42
1, 717528, Control_c, 0, 64, 42
1, 717547, Note_on_c, 0, 68, 58
1, 717578, Note_off_c, 0, 66, 58
1, 717595, Control_c, 0, 64, 41
1, 717692, Note_on_c, 0, 66, 67
1, 717714, Control_c, 0, 64, 41
1, 717773, Note_off_c, 0, 68, 58
1, 717773, Control_c, 0, 64, 40
1, 717779, Note_on_c, 0, 64, 64
1, 717803, Control_c, 0, 64, 39
1, 717818, Control_c, 0, 64, 37
1, 717833, Control_c, 0, 64, 37
1, 717844, Note_off_c, 0, 66, 54
1, 717869, Note_off_c, 0, 64, 63
1, 717874, Note_on_c, 0, 63, 72
1, 717922, Control_c, 0, 64, 36
1, 717951, Note_off_c, 0, 63, 62
1, 717952, Control_c, 0, 64, 36
1, 717966, Control_c, 0, 64, 35
1, 717970, Note_on_c, 0, 64, 69
1, 717981, Control_c, 0, 64, 35
1, 718026, Control_c, 0, 64, 34
1, 718040, Control_c, 0, 64, 0
1, 718053, Note_on_c, 0, 63, 78
1, 718099, Note_off_c, 0, 64, 57
1, 718142, Note_on_c, 0, 61, 75
1, 718224, Note_off_c, 0, 63, 58
1, 718253, Note_on_c, 0, 60, 76
1, 718286, Note_off_c, 0, 61, 61
1, 718749, Note_on_c, 0, 68, 71
1, 718760, Poly_aftertouch_c, 0, 64, 127
1, 718829, Poly_aftertouch_c, 0, 64, 0
1, 718876, Note_off_c, 0, 60, 55
1, 719153, Control_c, 0, 64, 44
1, 719168, Control_c, 0, 64, 54
1, 719182, Control_c, 0, 64, 59
1, 719197, Control_c, 0, 64, 62
1, 719212, Control_c, 0, 64, 64
1, 719226, Control_c, 0, 64, 66
1, 719241, Control_c, 0, 64, 69
1, 719256, Control_c, 0, 64, 73
1, 719271, Control_c, 0, 64, 80
1, 719286, Control_c, 0, 64, 89
1, 719300, Control_c, 0, 64, 100
1, 719315, Control_c, 0, 64, 127
1, 719836, Note_on_c, 0, 81, 65
1, 719850, Note_on_c, 0, 72, 52
1, 719850, Note_on_c, 0, 75, 50
1, 719851, Note_on_c, 0, 78, 54
1, 719913, Note_off_c, 0, 72, 55
1, 719939, Note_off_c, 0, 75, 61
1, 719960, Note_off_c, 0, 78, 57
1, 719970, Note_off_c, 0, 81, 57
1, 720480, Control_c, 0, 64, 119
1, 720495, Note_on_c, 0, 67, 38
1, 720495, Control_c, 0, 64, 110
1, 720509, Control_c, 0, 64, 105
1, 720524, Control_c, 0, 64, 101
1, 720539, Control_c, 0, 64, 96
1, 720560, Control_c, 0, 64, 91
1, 720575, Control_c, 0, 64, 85
1, 720590, Control_c, 0, 64, 81
1, 720593, Note_off_c, 0, 68, 35
1, 720605, Control_c, 0, 64, 77
1, 720620, Control_c, 0, 64, 74
1, 720635, Control_c, 0, 64, 71
1, 720650, Control_c, 0, 64, 68
1, 720665, Control_c, 0, 64, 66
1, 720679, Control_c, 0, 64, 64
1, 720694, Control_c, 0, 64, 63
1, 720709, Control_c, 0, 64, 61
1, 720724, Control_c, 0, 64, 60
1, 720739, Control_c, 0, 64, 59
1, 720753, Control_c, 0, 64, 59
1, 720757, Note_on_c, 0, 68, 50
1, 720768, Control_c, 0, 64, 58
1, 720783, Control_c, 0, 64, 57
1, 720797, Control_c, 0, 64, 55
1, 720797, Control_c, 0, 67, 20
1, 720812, Control_c, 0, 64, 54
1, 720812, Control_c, 0, 67, 22
1, 720827, Control_c, 0, 64, 52
1, 720827, Control_c, 0, 67, 25
1, 720842, Control_c, 0, 64, 52
1, 720842, Control_c, 0, 67, 28
1, 720857, Control_c, 0, 64, 51
1, 720857, Control_c, 0, 67, 32
1, 720872, Control_c, 0, 64, 50
1, 720872, Control_c, 0, 67, 38
1, 720873, Note_off_c, 0, 67, 25
1, 720886, Control_c, 0, 64, 48
1, 720886, Control_c, 0, 67, 49
1, 720901, Control_c, 0, 64, 46
1, 720901, Control_c, 0, 67, 62
1, 720912, Note_off_c, 0, 68, 57
1, 720914, Note_on_c, 0, 69, 55
1, 720916, Control_c, 0, 64, 45
1, 720916, Control_c, 0, 67, 74
1, 720931, Control_c, 0, 64, 45
1, 720931, Control_c, 0, 67, 85
1, 720946, Control_c, 0, 64, 44
1, 720946, Control_c, 0, 67, 95
1, 720960, Control_c, 0, 67, 102
1, 720976, Control_c, 0, 64, 44
1, 720976, Control_c, 0, 67, 109
1, 720991, Control_c, 0, 64, 43
1, 720991, Control_c, 0, 67, 113
1, 721006, Control_c, 0, 64, 43
1, 721006, Control_c, 0, 67, 115
1, 721034, Note_on_c, 0, 68, 64
1, 721050, Control_c, 0, 64, 42
1, 721092, Note_off_c, 0, 69, 28
1, 721141, Note_on_c, 0, 67, 61
1, 721142, Note_off_c, 0, 68, 57
1, 721168, Control_c, 0, 67, 113
1, 721229, Note_off_c, 0, 67, 64
1, 721249, Note_on_c, 0, 68, 69
1, 721373, Note_on_c, 0, 66, 67
1, 721384, Control_c, 0, 67, 111
1, 721428, Note_off_c, 0, 68, 38
1, 721473, Control_c, 0, 67, 109
1, 721475, Note_on_c, 0, 63, 58
1, 721487, Note_off_c, 0, 66, 54
1, 721502, Control_c, 0, 64, 42
1, 721502, Control_c, 0, 67, 107
1, 721532, Control_c, 0, 67, 105
1, 721577, Control_c, 0, 67, 102
1, 721592, Control_c, 0, 67, 100
1, 721607, Control_c, 0, 67, 95
1, 721621, Control_c, 0, 67, 89
1, 721636, Control_c, 0, 67, 83
1, 721637, Note_on_c, 0, 61, 50
1, 721651, Control_c, 0, 67, 75
1, 721666, Control_c, 0, 67, 67
1, 721681, Control_c, 0, 67, 59
1, 721695, Control_c, 0, 67, 50
1, 721697, Note_off_c, 0, 63, 47
1, 721710, Control_c, 0, 64, 41
1, 721710, Control_c, 0, 67, 44
1, 721725, Control_c, 0, 67, 37
1, 721740, Control_c, 0, 67, 29
1, 721755, Control_c, 0, 67, 20
1, 721771, Control_c, 0, 67, 0
1, 722337, Note_on_c, 0, 68, 43
1, 722504, Control_c, 0, 64, 41
1, 722533, Control_c, 0, 64, 40
1, 722546, Note_off_c, 0, 61, 53
1, 722563, Control_c, 0, 64, 40
1, 722578, Control_c, 0, 64, 39
1, 722608, Control_c, 0, 67, 20
1, 722638, Control_c, 0, 64, 40
1, 722638, Control_c, 0, 67, 24
1, 722653, Control_c, 0, 64, 40
1, 722653, Control_c, 0, 67, 29
1, 722667, Control_c, 0, 64, 42
1, 722667, Control_c, 0, 67, 34
1, 722682, Control_c, 0, 64, 45
1, 722682, Control_c, 0, 67, 43
1, 722697, Control_c, 0, 64, 48
1, 722697, Control_c, 0, 67, 54
1, 722712, Control_c, 0, 64, 52
1, 722712, Control_c, 0, 67, 70
1, 722727, Control_c, 0, 64, 55
1, 722727, Control_c, 0, 67, 83
1, 722742, Control_c, 0, 64, 59
1, 722742, Control_c, 0, 67, 94
1, 722756, Control_c, 0, 64, 63
1, 722756, Control_c, 0, 67, 105
1, 722771, Control_c, 0, 64, 66
1, 722771, Control_c, 0, 67, 115
1, 722786, Control_c, 0, 64, 70
1, 722786, Control_c, 0, 67, 124
1, 722808, Control_c, 0, 64, 75
1, 722808, Control_c, 0, 67, 127
1, 722823, Control_c, 0, 64, 81
1, 722838, Control_c, 0, 64, 87
1, 722853, Control_c, 0, 64, 92
1, 722868, Control_c, 0, 64, 99
1, 722882, Control_c, 0, 64, 105
1, 722897, Control_c, 0, 64, 118
1, 722912, Control_c, 0, 64, 127
1, 723157, Note_on_c, 0, 44, 42
1, 723229, Note_off_c, 0, 44, 52
1, 723285, Note_on_c, 0, 49, 40
1, 723389, Note_on_c, 0, 53, 40
1, 723555, Note_on_c, 0, 56, 43
1, 723686, Note_off_c, 0, 49, 39
1, 723693, Note_off_c, 0, 56, 36
1, 723695, Note_off_c, 0, 53, 39
1, 724381, Control_c, 0, 64, 118
1, 724395, Control_c, 0, 64, 111
1, 724410, Control_c, 0, 64, 107
1, 724425, Control_c, 0, 64, 105
1, 724454, Control_c, 0, 64, 102
1, 724469, Control_c, 0, 64, 100
1, 724499, Control_c, 0, 64, 97
1, 724514, Control_c, 0, 64, 96
1, 724528, Control_c, 0, 64, 94
1, 724543, Control_c, 0, 64, 92
1, 724558, Control_c, 0, 64, 89
1, 724573, Control_c, 0, 64, 87
1, 724588, Control_c, 0, 64, 85
1, 724590, Note_on_c, 0, 66, 41
1, 724602, Control_c, 0, 64, 84
1, 724617, Control_c, 0, 64, 82
1, 724632, Control_c, 0, 64, 81
1, 724647, Control_c, 0, 64, 80
1, 724662, Control_c, 0, 64, 78
1, 724677, Control_c, 0, 64, 77
1, 724692, Control_c, 0, 64, 76
1, 724707, Control_c, 0, 64, 74
1, 724721, Control_c, 0, 64, 73
1, 724736, Control_c, 0, 64, 72
1, 724751, Control_c, 0, 64, 70
1, 724766, Control_c, 0, 64, 68
1, 724780, Control_c, 0, 64, 66
1, 724795, Control_c, 0, 64, 65
1, 724810, Control_c, 0, 64, 64
1, 724825, Control_c, 0, 64, 63
1, 724839, Control_c, 0, 64, 62
1, 724854, Control_c, 0, 64, 62
1, 724884, Control_c, 0, 64, 61
1, 724884, Control_c, 0, 67, 125
1, 724899, Control_c, 0, 67, 120
1, 724913, Control_c, 0, 64, 61
1, 724913, Control_c, 0, 67, 116
1, 724928, Control_c, 0, 64, 60
1, 724928, Control_c, 0, 67, 113
1, 724931, Note_on_c, 0, 65, 53
1, 724943, Control_c, 0, 64, 60
1, 724943, Control_c, 0, 67, 108
1, 724958, Control_c, 0, 64, 59
1, 724958, Control_c, 0, 67, 102
1, 724974, Control_c, 0, 64, 59
1, 724974, Control_c, 0, 67, 96
1, 724988, Control_c, 0, 67, 91
1, 724992, Note_off_c, 0, 68, 29
1, 725002, Control_c, 0, 67, 87
1, 725017, Control_c, 0, 64, 58
1, 725017, Control_c, 0, 67, 84
1, 725032, Control_c, 0, 67, 82
1, 725055, Control_c, 0, 64, 58
1, 725055, Control_c, 0, 67, 79
1, 725069, Control_c, 0, 67, 77
1, 725084, Control_c, 0, 64, 57
1, 725084, Control_c, 0, 67, 74
1, 725099, Control_c, 0, 64, 57
1, 725099, Control_c, 0, 67, 71
1, 725114, Control_c, 0, 67, 68
1, 725129, Control_c, 0, 64, 56
1, 725129, Control_c, 0, 67, 66
1, 725143, Control_c, 0, 64, 56
1, 725143, Control_c, 0, 67, 63
1, 725158, Control_c, 0, 64, 55
1, 725158, Control_c, 0, 67, 60
1, 725160, Note_on_c, 0, 63, 59
1, 725172, Note_off_c, 0, 66, 28
1, 725173, Control_c, 0, 67, 56
1, 725188, Control_c, 0, 64, 54
1, 725188, Control_c, 0, 67, 52
1, 725202, Control_c, 0, 67, 49
1, 725204, Note_off_c, 0, 65, 56
1, 725217, Control_c, 0, 64, 53
1, 725217, Control_c, 0, 67, 47
1, 725232, Control_c, 0, 67, 47
1, 725247, Control_c, 0, 67, 46
1, 725262, Control_c, 0, 67, 44
1, 725276, Control_c, 0, 67, 43
1, 725291, Control_c, 0, 67, 42
1, 725354, Note_on_c, 0, 61, 64
1, 725372, Note_off_c, 0, 63, 60
1, 725612, Note_on_c, 0, 60, 61
1, 725647, Control_c, 0, 67, 41
1, 725676, Control_c, 0, 67, 41
1, 725691, Control_c, 0, 67, 40
1, 725706, Control_c, 0, 67, 38
1, 725721, Control_c, 0, 67, 30
1, 725727, Note_off_c, 0, 61, 60
1, 725736, Control_c, 0, 67, 20
1, 725750, Control_c, 0, 67, 0
1, 725781, Control_c, 0, 64, 54
1, 726094, Note_on_c, 0, 69, 75
1, 726261, Note_off_c, 0, 60, 52
1, 726336, Control_c, 0, 64, 54
1, 726396, Control_c, 0, 64, 55
1, 726425, Control_c, 0, 64, 55
1, 726552, Control_c, 0, 64, 56
1, 726823, Note_on_c, 0, 70, 71
1, 726938, Control_c, 0, 64, 55
1, 726982, Control_c, 0, 64, 55
1, 727012, Control_c, 0, 64, 54
1, 727056, Note_off_c, 0, 69, 52
1, 727056, Control_c, 0, 64, 55
1, 727086, Control_c, 0, 64, 55
1, 727101, Control_c, 0, 64, 56
1, 727115, Control_c, 0, 64, 58
1, 727130, Control_c, 0, 64, 60
1, 727145, Control_c, 0, 64, 62
1, 727160, Control_c, 0, 64, 64
1, 727175, Control_c, 0, 64, 67
1, 727190, Control_c, 0, 64, 70
1, 727205, Control_c, 0, 64, 75
1, 727220, Control_c, 0, 64, 79
1, 727234, Control_c, 0, 64, 83
1, 727249, Control_c, 0, 64, 88
1, 727264, Control_c, 0, 64, 93
1, 727279, Control_c, 0, 64, 98
1, 727301, Control_c, 0, 64, 101
1, 727315, Control_c, 0, 64, 105
1, 727330, Control_c, 0, 64, 111
1, 727345, Control_c, 0, 64, 127
1, 727774, Note_on_c, 0, 75, 45
1, 727854, Note_on_c, 0, 78, 60
1, 727929, Note_on_c, 0, 84, 81
1, 727949, Note_off_c, 0, 75, 41
1, 727987, Note_off_c, 0, 78, 58
1, 728016, Note_off_c, 0, 84, 61
1, 728301, Control_c, 0, 67, 21
1, 728346, Control_c, 0, 67, 23
1, 728361, Control_c, 0, 67, 25
1, 728375, Control_c, 0, 67, 28
1, 728390, Control_c, 0, 67, 30
1, 728405, Control_c, 0, 67, 32
1, 728419, Control_c, 0, 67, 34
1, 728434, Control_c, 0, 67, 39
1, 728449, Control_c, 0, 67, 46
1, 728464, Control_c, 0, 64, 117
1, 728464, Control_c, 0, 67, 54
1, 728479, Control_c, 0, 64, 112
1, 728479, Control_c, 0, 67, 63
1, 728493, Control_c, 0, 64, 108
1, 728493, Control_c, 0, 67, 70
1, 728508, Control_c, 0, 64, 104
1, 728508, Control_c, 0, 67, 77
1, 728523, Control_c, 0, 64, 100
1, 728523, Control_c, 0, 67, 83
1, 728537, Control_c, 0, 64, 96
1, 728537, Control_c, 0, 67, 90
1, 728552, Control_c, 0, 64, 94
1, 728552, Control_c, 0, 67, 97
1, 728567, Control_c, 0, 64, 91
1, 728567, Control_c, 0, 67, 102
1, 728582, Control_c, 0, 64, 89
1, 728582, Control_c, 0, 67, 106
1, 728597, Control_c, 0, 64, 86
1, 728597, Control_c, 0, 67, 109
1, 728612, Control_c, 0, 64, 84
1, 728627, Control_c, 0, 64, 82
1, 728627, Control_c, 0, 67, 111
1, 728642, Control_c, 0, 64, 80
1, 728656, Control_c, 0, 64, 78
1, 728656, Control_c, 0, 67, 114
1, 728671, Control_c, 0, 64, 76
1, 728671, Control_c, 0, 67, 118
1, 728686, Control_c, 0, 64, 74
1, 728686, Control_c, 0, 67, 121
1, 728701, Control_c, 0, 64, 72
1, 728701, Control_c, 0, 67, 123
1, 728716, Control_c, 0, 64, 70
1, 728730, Control_c, 0, 64, 69
1, 728730, Control_c, 0, 67, 125
1, 728746, Control_c, 0, 64, 67
1, 728761, Control_c, 0, 64, 66
1, 728761, Control_c, 0, 67, 127
1, 728776, Control_c, 0, 64, 65
1, 728798, Control_c, 0, 64, 64
1, 728812, Control_c, 0, 64, 62
1, 728827, Control_c, 0, 64, 62
1, 728842, Control_c, 0, 64, 61
1, 728857, Control_c, 0, 64, 60
1, 728872, Control_c, 0, 64, 58
1, 728886, Control_c, 0, 64, 56
1, 728901, Control_c, 0, 64, 54
1, 728916, Control_c, 0, 64, 51
1, 728931, Control_c, 0, 64, 49
1, 728946, Control_c, 0, 64, 44
1, 728961, Control_c, 0, 64, 36
1, 728976, Control_c, 0, 64, 0
1, 729124, Control_c, 0, 64, 41
1, 729139, Control_c, 0, 64, 54
1, 729154, Control_c, 0, 64, 60
1, 729169, Control_c, 0, 64, 63
1, 729184, Control_c, 0, 64, 66
1, 729199, Control_c, 0, 64, 68
1, 729214, Control_c, 0, 64, 71
1, 729229, Control_c, 0, 64, 74
1, 729243, Control_c, 0, 64, 77
1, 729258, Control_c, 0, 64, 81
1, 729273, Control_c, 0, 64, 86
1, 729288, Control_c, 0, 64, 91
1, 729303, Control_c, 0, 64, 95
1, 729317, Control_c, 0, 64, 99
1, 729332, Control_c, 0, 64, 103
1, 729347, Control_c, 0, 64, 105
1, 729376, Control_c, 0, 64, 108
1, 729391, Control_c, 0, 64, 111
1, 729406, Control_c, 0, 64, 113
1, 729421, Control_c, 0, 64, 116
1, 729450, Control_c, 0, 64, 118
1, 729480, Control_c, 0, 64, 122
1, 729495, Control_c, 0, 64, 125
1, 729588, Note_on_c, 0, 44, 34
1, 729678, Note_on_c, 0, 51, 30
1, 729763, Note_on_c, 0, 56, 30
1, 729835, Note_off_c, 0, 44, 41
1, 729877, Note_on_c, 0, 60, 42
1, 729901, Note_off_c, 0, 56, 40
1, 729916, Note_off_c, 0, 51, 40
1, 729962, Control_c, 0, 64, 122
1, 729977, Control_c, 0, 64, 120
1, 730007, Control_c, 0, 64, 117
1, 730022, Control_c, 0, 64, 115
1, 730037, Control_c, 0, 64, 111
1, 730051, Control_c, 0, 64, 109
1, 730066, Control_c, 0, 64, 107
1, 730081, Control_c, 0, 64, 105
1, 730110, Control_c, 0, 64, 103
1, 730125, Control_c, 0, 64, 101
1, 730140, Control_c, 0, 64, 97
1, 730154, Note_off_c, 0, 60, 43
1, 730155, Control_c, 0, 64, 94
1, 730170, Control_c, 0, 64, 90
1, 730184, Control_c, 0, 64, 85
1, 730199, Control_c, 0, 64, 81
1, 730214, Control_c, 0, 64, 76
1, 730229, Control_c, 0, 64, 72
1, 730244, Control_c, 0, 64, 68
1, 730258, Control_c, 0, 64, 65
1, 730273, Control_c, 0, 64, 62
1, 730296, Control_c, 0, 64, 59
1, 730311, Control_c, 0, 64, 55
1, 730325, Control_c, 0, 64, 51
1, 730340, Control_c, 0, 64, 48
1, 730355, Control_c, 0, 64, 44
1, 730370, Control_c, 0, 64, 40
1, 730385, Control_c, 0, 64, 0
1, 730829, Control_c, 0, 64, 39
1, 730844, Control_c, 0, 64, 48
1, 730859, Control_c, 0, 64, 54
1, 730874, Control_c, 0, 64, 57
1, 730889, Control_c, 0, 64, 59
1, 730904, Control_c, 0, 64, 61
1, 730919, Control_c, 0, 64, 64
1, 730933, Control_c, 0, 64, 66
1, 730948, Control_c, 0, 64, 67
1, 730963, Control_c, 0, 64, 69
1, 730978, Control_c, 0, 64, 71
1, 730992, Control_c, 0, 64, 74
1, 731006, Control_c, 0, 64, 77
1, 731021, Control_c, 0, 64, 80
1, 731044, Control_c, 0, 64, 84
1, 731059, Control_c, 0, 64, 87
1, 731074, Control_c, 0, 64, 90
1, 731088, Control_c, 0, 64, 93
1, 731103, Control_c, 0, 64, 97
1, 731118, Control_c, 0, 64, 100
1, 731133, Control_c, 0, 64, 103
1, 731147, Control_c, 0, 64, 106
1, 731162, Control_c, 0, 64, 110
1, 731177, Control_c, 0, 64, 113
1, 731192, Control_c, 0, 64, 118
1, 731207, Control_c, 0, 64, 122
1, 731221, Control_c, 0, 64, 127
1, 731827, Note_on_c, 0, 68, 44
1, 732010, Note_off_c, 0, 70, 40
1, 732045, Control_c, 0, 64, 117
1, 732060, Control_c, 0, 64, 109
1, 732075, Control_c, 0, 64, 102
1, 732089, Control_c, 0, 64, 95
1, 732104, Control_c, 0, 64, 88
1, 732119, Control_c, 0, 64, 81
1, 732134, Control_c, 0, 64, 74
1, 732149, Control_c, 0, 64, 69
1, 732165, Control_c, 0, 64, 65
1, 732179, Control_c, 0, 64, 60
1, 732194, Control_c, 0, 64, 55
1, 732209, Control_c, 0, 64, 52
1, 732224, Control_c, 0, 64, 51
1, 732239, Control_c, 0, 64, 49
1, 732253, Control_c, 0, 64, 46
1, 732268, Control_c, 0, 64, 41
1, 732283, Control_c, 0, 64, 35
1, 732298, Control_c, 0, 64, 0
1, 732483, Note_on_c, 0, 66, 37
1, 732671, Note_off_c, 0, 68, 42
1, 732948, Note_off_c, 0, 66, 48
1, 733180, Control_c, 0, 64, 36
1, 733195, Control_c, 0, 64, 48
1, 733209, Control_c, 0, 64, 56
1, 733224, Control_c, 0, 64, 60
1, 733239, Control_c, 0, 64, 62
1, 733254, Control_c, 0, 64, 63
1, 733269, Control_c, 0, 64, 65
1, 733291, Control_c, 0, 64, 68
1, 733306, Control_c, 0, 64, 71
1, 733321, Control_c, 0, 64, 75
1, 733335, Control_c, 0, 64, 80
1, 733350, Control_c, 0, 64, 83
1, 733365, Control_c, 0, 64, 86
1, 733380, Control_c, 0, 64, 90
1, 733395, Control_c, 0, 64, 95
1, 733409, Control_c, 0, 64, 102
1, 733424, Control_c, 0, 64, 120
1, 733439, Control_c, 0, 64, 127
1, 733748, Note_on_c, 0, 65, 47
1, 734085, Control_c, 0, 64, 113
1, 734100, Control_c, 0, 64, 104
1, 734114, Control_c, 0, 64, 100
1, 734144, Control_c, 0, 64, 97
1, 734159, Control_c, 0, 64, 95
1, 734174, Control_c, 0, 64, 93
1, 734189, Control_c, 0, 64, 91
1, 734204, Control_c, 0, 64, 90
1, 734219, Control_c, 0, 64, 89
1, 734233, Control_c, 0, 64, 88
1, 734248, Control_c, 0, 64, 87
1, 734263, Control_c, 0, 64, 86
1, 734277, Control_c, 0, 64, 85
1, 734292, Control_c, 0, 64, 84
1, 734307, Control_c, 0, 64, 84
1, 734322, Control_c, 0, 64, 83
1, 734337, Control_c, 0, 64, 83
1, 734351, Control_c, 0, 64, 82
1, 734353, Note_on_c, 0, 63, 40
1, 734366, Control_c, 0, 64, 82
1, 734396, Control_c, 0, 64, 81
1, 734411, Control_c, 0, 64, 80
1, 734425, Control_c, 0, 64, 79
1, 734440, Control_c, 0, 64, 77
1, 734455, Control_c, 0, 64, 75
1, 734470, Control_c, 0, 64, 72
1, 734484, Control_c, 0, 64, 69
1, 734499, Control_c, 0, 64, 67
1, 734500, Note_off_c, 0, 65, 34
1, 734514, Control_c, 0, 64, 64
1, 734529, Control_c, 0, 64, 62
1, 734544, Control_c, 0, 64, 59
1, 734560, Control_c, 0, 64, 57
1, 734574, Control_c, 0, 64, 55
1, 734589, Control_c, 0, 64, 51
1, 734604, Control_c, 0, 64, 45
1, 734619, Control_c, 0, 64, 35
1, 734634, Control_c, 0, 64, 0
1, 734899, Note_off_c, 0, 63, 43
1, 735115, Control_c, 0, 64, 35
1, 735130, Control_c, 0, 64, 48
1, 735145, Control_c, 0, 64, 56
1, 735160, Control_c, 0, 64, 60
1, 735174, Control_c, 0, 64, 62
1, 735189, Control_c, 0, 64, 64
1, 735204, Control_c, 0, 64, 65
1, 735219, Control_c, 0, 64, 66
1, 735233, Control_c, 0, 64, 68
1, 735248, Control_c, 0, 64, 70
1, 735263, Control_c, 0, 64, 72
1, 735278, Control_c, 0, 64, 74
1, 735293, Control_c, 0, 64, 77
1, 735307, Control_c, 0, 64, 80
1, 735322, Control_c, 0, 64, 83
1, 735337, Control_c, 0, 64, 86
1, 735353, Control_c, 0, 64, 90
1, 735368, Control_c, 0, 64, 94
1, 735383, Control_c, 0, 64, 98
1, 735397, Control_c, 0, 64, 102
1, 735412, Control_c, 0, 64, 106
1, 735427, Control_c, 0, 64, 111
1, 735442, Control_c, 0, 64, 114
1, 735471, Control_c, 0, 64, 117
1, 735501, Control_c, 0, 64, 120
1, 735515, Control_c, 0, 64, 122
1, 735537, Control_c, 0, 64, 125
1, 735552, Control_c, 0, 64, 127
1, 735951, Note_on_c, 0, 61, 38
1, 735962, Note_on_c, 0, 37, 29
1, 736224, Note_off_c, 0, 37, 38
1, 736303, Note_on_c, 0, 53, 25
1, 736524, Control_c, 0, 64, 125
1, 736539, Control_c, 0, 64, 122
1, 736551, Note_on_c, 0, 56, 31
1, 736553, Control_c, 0, 64, 119
1, 736568, Control_c, 0, 64, 114
1, 736574, Note_off_c, 0, 53, 36
1, 736583, Control_c, 0, 64, 110
1, 736598, Control_c, 0, 64, 105
1, 736613, Control_c, 0, 64, 97
1, 736627, Control_c, 0, 64, 87
1, 736642, Control_c, 0, 64, 76
1, 736657, Control_c, 0, 64, 65
1, 736672, Control_c, 0, 64, 56
1, 736687, Control_c, 0, 64, 52
1, 736702, Control_c, 0, 64, 53
1, 736717, Control_c, 0, 64, 55
1, 736732, Control_c, 0, 64, 58
1, 736747, Control_c, 0, 64, 62
1, 736756, Note_on_c, 0, 53, 11
1, 736761, Control_c, 0, 64, 65
1, 736776, Control_c, 0, 64, 69
1, 736776, Note_off_c, 0, 56, 39
1, 736791, Control_c, 0, 64, 72
1, 736805, Control_c, 0, 64, 74
1, 736820, Control_c, 0, 64, 76
1, 736835, Control_c, 0, 64, 78
1, 736850, Control_c, 0, 64, 81
1, 736865, Control_c, 0, 64, 83
1, 736879, Control_c, 0, 64, 85
1, 736894, Control_c, 0, 64, 86
1, 736909, Control_c, 0, 64, 87
1, 736924, Control_c, 0, 64, 88
1, 736939, Control_c, 0, 64, 89
1, 736952, Note_on_c, 0, 56, 35
1, 736955, Control_c, 0, 64, 90
1, 736999, Control_c, 0, 64, 90
1, 737161, Note_on_c, 0, 49, 41
1, 737273, Note_off_c, 0, 61, 35
1, 737323, Note_off_c, 0, 49, 25
1, 737406, Control_c, 0, 64, 89
1, 737420, Control_c, 0, 64, 85
1, 737429, Note_on_c, 0, 34, 35
1, 737435, Control_c, 0, 64, 77
1, 737449, Note_on_c, 0, 61, 41
1, 737450, Control_c, 0, 64, 68
1, 737454, Note_off_c, 0, 53, 38
1, 737465, Control_c, 0, 64, 59
1, 737480, Control_c, 0, 64, 45
1, 737495, Control_c, 0, 64, 39
1, 737495, Note_off_c, 0, 56, 40
1, 737510, Control_c, 0, 64, 46
1, 737525, Control_c, 0, 64, 53
1, 737540, Control_c, 0, 64, 58
1, 737554, Control_c, 0, 64, 62
1, 737569, Control_c, 0, 64, 65
1, 737584, Control_c, 0, 64, 69
1, 737599, Control_c, 0, 64, 72
1, 737614, Control_c, 0, 64, 75
1, 737628, Control_c, 0, 64, 76
1, 737643, Control_c, 0, 64, 78
1, 737658, Control_c, 0, 64, 80
1, 737673, Control_c, 0, 64, 81
1, 737688, Control_c, 0, 64, 83
1, 737693, Note_on_c, 0, 54, 32
1, 737702, Control_c, 0, 64, 85
1, 737717, Control_c, 0, 64, 86
1, 737732, Note_off_c, 0, 34, 40
1, 737732, Control_c, 0, 64, 87
1, 737785, Control_c, 0, 64, 87
1, 737902, Note_off_c, 0, 54, 39
1, 737912, Note_on_c, 0, 58, 35
1, 737948, Control_c, 0, 64, 87
1, 737978, Control_c, 0, 64, 86
1, 737993, Control_c, 0, 64, 83
1, 738007, Control_c, 0, 64, 77
1, 738022, Control_c, 0, 64, 71
1, 738037, Control_c, 0, 64, 64
1, 738051, Control_c, 0, 64, 54
1, 738066, Control_c, 0, 64, 45
1, 738081, Control_c, 0, 64, 45
1, 738096, Control_c, 0, 64, 48
1, 738100, Note_off_c, 0, 58, 37
1, 738109, Note_on_c, 0, 54, 33
1, 738111, Control_c, 0, 64, 53
1, 738125, Control_c, 0, 64, 57
1, 738140, Control_c, 0, 64, 61
1, 738155, Control_c, 0, 64, 66
1, 738170, Control_c, 0, 64, 70
1, 738185, Control_c, 0, 64, 75
1, 738199, Control_c, 0, 64, 78
1, 738214, Control_c, 0, 64, 79
1, 738229, Control_c, 0, 64, 80
1, 738243, Control_c, 0, 64, 82
1, 738258, Control_c, 0, 64, 84
1, 738273, Control_c, 0, 64, 85
1, 738288, Control_c, 0, 64, 86
1, 738303, Control_c, 0, 64, 87
1, 738318, Control_c, 0, 64, 87
1, 738332, Control_c, 0, 64, 88
1, 738344, Note_on_c, 0, 58, 39
1, 738347, Control_c, 0, 64, 88
1, 738532, Note_on_c, 0, 49, 40
1, 738566, Note_off_c, 0, 61, 27
1, 738741, Control_c, 0, 64, 87
1, 738756, Control_c, 0, 64, 84
1, 738756, Note_on_c, 0, 37, 36
1, 738771, Control_c, 0, 64, 78
1, 738779, Note_on_c, 0, 61, 46
1, 738786, Control_c, 0, 64, 70
1, 738793, Note_off_c, 0, 54, 37
1, 738800, Control_c, 0, 64, 61
1, 738814, Note_off_c, 0, 49, 14
1, 738815, Control_c, 0, 64, 51
1, 738830, Control_c, 0, 64, 48
1, 738839, Note_off_c, 0, 58, 26
1, 738845, Control_c, 0, 64, 49
1, 738860, Control_c, 0, 64, 51
1, 738874, Control_c, 0, 64, 54
1, 738889, Control_c, 0, 64, 58
1, 738904, Control_c, 0, 64, 62
1, 738919, Control_c, 0, 64, 65
1, 738934, Control_c, 0, 64, 68
1, 738948, Control_c, 0, 64, 71
1, 738963, Control_c, 0, 64, 74
1, 738978, Control_c, 0, 64, 76
1, 738992, Control_c, 0, 64, 78
1, 739007, Control_c, 0, 64, 80
1, 739013, Note_off_c, 0, 37, 50
1, 739020, Note_on_c, 0, 53, 38
1, 739022, Control_c, 0, 64, 81
1, 739037, Control_c, 0, 64, 83
1, 739052, Control_c, 0, 64, 84
1, 739066, Control_c, 0, 64, 86
1, 739081, Control_c, 0, 64, 86
1, 739111, Control_c, 0, 64, 87
1, 739220, Note_off_c, 0, 53, 39
1, 739232, Note_on_c, 0, 56, 35
1, 739311, Control_c, 0, 64, 86
1, 739326, Control_c, 0, 64, 85
1, 739341, Control_c, 0, 64, 82
1, 739357, Control_c, 0, 64, 76
1, 739371, Control_c, 0, 64, 68
1, 739386, Control_c, 0, 64, 60
1, 739401, Control_c, 0, 64, 52
1, 739416, Control_c, 0, 64, 52
1, 739430, Control_c, 0, 64, 55
1, 739433, Note_on_c, 0, 53, 36
1, 739444, Note_off_c, 0, 56, 39
1, 739445, Control_c, 0, 64, 58
1, 739460, Control_c, 0, 64, 61
1, 739475, Control_c, 0, 64, 64
1, 739490, Control_c, 0, 64, 68
1, 739504, Control_c, 0, 64, 72
1, 739519, Control_c, 0, 64, 75
1, 739534, Control_c, 0, 64, 77
1, 739549, Control_c, 0, 64, 78
1, 739564, Control_c, 0, 64, 79
1, 739578, Control_c, 0, 64, 81
1, 739593, Control_c, 0, 64, 82
1, 739608, Control_c, 0, 64, 84
1, 739623, Control_c, 0, 64, 85
1, 739638, Control_c, 0, 64, 86
1, 739653, Control_c, 0, 64, 86
1, 739665, Note_on_c, 0, 56, 38
1, 739668, Control_c, 0, 64, 87
1, 739683, Control_c, 0, 64, 87
1, 739697, Control_c, 0, 64, 88
1, 739847, Note_on_c, 0, 49, 39
1, 739927, Note_off_c, 0, 49, 40
1, 739962, Note_off_c, 0, 56, 26
1, 739968, Note_off_c, 0, 53, 37
1, 740150, Control_c, 0, 64, 87
1, 740180, Control_c, 0, 64, 87
1, 740185, Note_on_c, 0, 44, 37
1, 740209, Control_c, 0, 64, 86
1, 740224, Control_c, 0, 64, 84
1, 740231, Note_on_c, 0, 60, 44
1, 740239, Control_c, 0, 64, 78
1, 740253, Control_c, 0, 64, 70
1, 740268, Control_c, 0, 64, 61
1, 740283, Control_c, 0, 64, 47
1, 740298, Control_c, 0, 64, 43
1, 740312, Note_off_c, 0, 61, 36
1, 740313, Control_c, 0, 64, 47
1, 740327, Control_c, 0, 64, 53
1, 740342, Control_c, 0, 64, 59
1, 740357, Control_c, 0, 64, 63
1, 740372, Control_c, 0, 64, 67
1, 740387, Control_c, 0, 64, 72
1, 740401, Control_c, 0, 64, 77
1, 740416, Control_c, 0, 64, 80
1, 740425, Note_off_c, 0, 44, 43
1, 740431, Control_c, 0, 64, 82
1, 740446, Control_c, 0, 64, 84
1, 740461, Control_c, 0, 64, 87
1, 740476, Control_c, 0, 64, 89
1, 740491, Control_c, 0, 64, 91
1, 740502, Note_off_c, 0, 60, 57
1, 740506, Control_c, 0, 64, 92
1, 740512, Note_on_c, 0, 54, 37
1, 740520, Control_c, 0, 64, 93
1, 740535, Control_c, 0, 64, 94
1, 740550, Control_c, 0, 64, 95
1, 740565, Control_c, 0, 64, 95
1, 740579, Control_c, 0, 64, 96
1, 740711, Note_off_c, 0, 54, 40
1, 740757, Note_on_c, 0, 66, 53
1, 740773, Note_on_c, 0, 56, 42
1, 740976, Note_off_c, 0, 56, 40
1, 740992, Note_on_c, 0, 54, 38
1, 741106, Control_c, 0, 64, 95
1, 741121, Control_c, 0, 64, 92
1, 741136, Control_c, 0, 64, 86
1, 741150, Control_c, 0, 64, 78
1, 741165, Control_c, 0, 64, 68
1, 741180, Control_c, 0, 64, 58
1, 741184, Note_on_c, 0, 56, 32
1, 741192, Note_on_c, 0, 60, 53
1, 741194, Control_c, 0, 64, 50
1, 741195, Note_off_c, 0, 66, 56
1, 741209, Control_c, 0, 64, 52
1, 741224, Control_c, 0, 64, 56
1, 741239, Control_c, 0, 64, 60
1, 741254, Control_c, 0, 64, 65
1, 741269, Control_c, 0, 64, 70
1, 741284, Control_c, 0, 64, 76
1, 741298, Control_c, 0, 64, 83
1, 741313, Control_c, 0, 64, 86
1, 741328, Control_c, 0, 64, 88
1, 741343, Control_c, 0, 64, 90
1, 741358, Control_c, 0, 64, 91
1, 741373, Control_c, 0, 64, 93
1, 741374, Note_off_c, 0, 56, 41
1, 741387, Control_c, 0, 64, 94
1, 741402, Control_c, 0, 64, 95
1, 741406, Note_on_c, 0, 51, 36
1, 741417, Control_c, 0, 64, 95
1, 741427, Note_off_c, 0, 54, 40
1, 741440, Note_off_c, 0, 51, 52
1, 741447, Control_c, 0, 64, 96
1, 741647, Control_c, 0, 64, 95
1, 741662, Control_c, 0, 64, 90
1, 741677, Control_c, 0, 64, 81
1, 741690, Note_on_c, 0, 37, 31
1, 741692, Control_c, 0, 64, 71
1, 741707, Control_c, 0, 64, 62
1, 741715, Note_on_c, 0, 61, 50
1, 741719, Note_off_c, 0, 60, 60
1, 741722, Control_c, 0, 64, 54
1, 741737, Control_c, 0, 64, 52
1, 741752, Control_c, 0, 64, 56
1, 741766, Control_c, 0, 64, 59
1, 741781, Control_c, 0, 64, 63
1, 741796, Control_c, 0, 64, 65
1, 741811, Control_c, 0, 64, 68
1, 741811, Control_c, 0, 67, 125
1, 741826, Control_c, 0, 64, 71
1, 741826, Control_c, 0, 67, 105
1, 741841, Control_c, 0, 64, 73
1, 741841, Control_c, 0, 67, 84
1, 741856, Control_c, 0, 64, 75
1, 741856, Control_c, 0, 67, 60
1, 741871, Control_c, 0, 64, 76
1, 741871, Control_c, 0, 67, 38
1, 741886, Control_c, 0, 64, 76
1, 741886, Control_c, 0, 67, 0
1, 741900, Control_c, 0, 64, 77
1, 741915, Control_c, 0, 64, 78
1, 741930, Control_c, 0, 64, 79
1, 741945, Control_c, 0, 64, 80
1, 741974, Note_on_c, 0, 53, 45
1, 742004, Control_c, 0, 64, 80
1, 742136, Control_c, 0, 64, 80
1, 742149, Note_off_c, 0, 37, 35
1, 742150, Note_off_c, 0, 53, 35
1, 742181, Control_c, 0, 64, 79
1, 742181, Control_c, 0, 67, 22
1, 742196, Control_c, 0, 64, 78
1, 742196, Control_c, 0, 67, 26
1, 742207, Note_on_c, 0, 56, 38
1, 742211, Control_c, 0, 64, 77
1, 742211, Control_c, 0, 67, 31
1, 742225, Control_c, 0, 64, 76
1, 742225, Control_c, 0, 67, 38
1, 742240, Control_c, 0, 64, 76
1, 742240, Control_c, 0, 67, 49
1, 742255, Control_c, 0, 64, 75
1, 742255, Control_c, 0, 67, 64
1, 742277, Control_c, 0, 64, 74
1, 742277, Control_c, 0, 67, 77
1, 742291, Control_c, 0, 64, 73
1, 742291, Control_c, 0, 67, 90
1, 742306, Control_c, 0, 64, 72
1, 742306, Control_c, 0, 67, 106
1, 742321, Control_c, 0, 64, 68
1, 742321, Control_c, 0, 67, 122
1, 742336, Control_c, 0, 64, 63
1, 742336, Control_c, 0, 67, 127
1, 742351, Control_c, 0, 64, 54
1, 742366, Control_c, 0, 64, 41
1, 742380, Control_c, 0, 64, 37
1, 742395, Control_c, 0, 64, 41
1, 742404, Note_on_c, 0, 53, 34
1, 742410, Control_c, 0, 64, 48
1, 742419, Note_off_c, 0, 56, 36
1, 742425, Control_c, 0, 64, 53
1, 742440, Control_c, 0, 64, 59
1, 742455, Control_c, 0, 64, 64
1, 742470, Control_c, 0, 64, 68
1, 742485, Control_c, 0, 64, 73
1, 742499, Control_c, 0, 64, 77
1, 742514, Control_c, 0, 64, 78
1, 742529, Control_c, 0, 64, 79
1, 742544, Control_c, 0, 64, 80
1, 742559, Control_c, 0, 64, 81
1, 742574, Control_c, 0, 64, 82
1, 742589, Control_c, 0, 64, 82
1, 742619, Control_c, 0, 64, 83
1, 742620, Note_on_c, 0, 56, 36
1, 742648, Control_c, 0, 64, 83
1, 742863, Note_on_c, 0, 49, 33
1, 742970, Note_off_c, 0, 61, 25
1, 743048, Note_off_c, 0, 49, 21
1, 743100, Control_c, 0, 64, 83
1, 743114, Control_c, 0, 64, 80
1, 743129, Control_c, 0, 64, 75
1, 743144, Control_c, 0, 64, 68
1, 743159, Control_c, 0, 64, 62
1, 743173, Control_c, 0, 64, 57
1, 743182, Note_on_c, 0, 33, 22
1, 743188, Control_c, 0, 64, 55
1, 743203, Control_c, 0, 64, 57
1, 743206, Note_off_c, 0, 53, 32
1, 743218, Control_c, 0, 64, 59
1, 743233, Control_c, 0, 64, 62
1, 743241, Note_on_c, 0, 61, 43
1, 743248, Control_c, 0, 64, 65
1, 743263, Control_c, 0, 64, 70
1, 743278, Control_c, 0, 64, 75
1, 743290, Note_off_c, 0, 56, 39
1, 743293, Control_c, 0, 64, 79
1, 743308, Control_c, 0, 64, 80
1, 743322, Control_c, 0, 64, 82
1, 743337, Control_c, 0, 64, 83
1, 743352, Control_c, 0, 64, 84
1, 743367, Control_c, 0, 64, 84
1, 743382, Control_c, 0, 64, 85
1, 743391, Note_off_c, 0, 33, 38
1, 743412, Control_c, 0, 64, 85
1, 743431, Note_on_c, 0, 35, 37
1, 743442, Control_c, 0, 64, 86
1, 743474, Note_off_c, 0, 35, 53
1, 743501, Control_c, 0, 64, 86
1, 743533, Note_on_c, 0, 33, 38
1, 743566, Note_on_c, 0, 54, 31
1, 743573, Note_off_c, 0, 33, 46
1, 743589, Control_c, 0, 64, 87
1, 743601, Note_on_c, 0, 35, 44
1, 743643, Note_off_c, 0, 35, 58
1, 743672, Note_on_c, 0, 33, 48
1, 743713, Note_off_c, 0, 33, 62
1, 743764, Note_on_c, 0, 35, 47
1, 743800, Note_off_c, 0, 35, 55
1, 743818, Note_off_c, 0, 54, 40
1, 743827, Note_on_c, 0, 33, 46
1, 743864, Note_on_c, 0, 57, 32
1, 743868, Note_off_c, 0, 33, 49
1, 743888, Note_on_c, 0, 35, 45
1, 743928, Note_off_c, 0, 35, 59
1, 743965, Note_on_c, 0, 33, 42
1, 743999, Note_off_c, 0, 33, 49
1, 744020, Note_on_c, 0, 35, 47
1, 744053, Note_off_c, 0, 35, 59
1, 744086, Note_on_c, 0, 33, 46
1, 744093, Note_off_c, 0, 57, 44
1, 744095, Note_on_c, 0, 54, 42
1, 744119, Note_off_c, 0, 33, 52
1, 744148, Note_on_c, 0, 35, 48
1, 744187, Note_off_c, 0, 35, 47
1, 744205, Note_on_c, 0, 33, 50
1, 744236, Note_off_c, 0, 33, 54
1, 744252, Note_on_c, 0, 35, 52
1, 744291, Note_off_c, 0, 35, 60
1, 744333, Note_on_c, 0, 33, 37
1, 744353, Control_c, 0, 64, 86
1, 744368, Note_off_c, 0, 33, 46
1, 744377, Note_on_c, 0, 35, 58
1, 744382, Note_on_c, 0, 57, 41
1, 744383, Control_c, 0, 64, 86
1, 744398, Control_c, 0, 64, 85
1, 744412, Control_c, 0, 64, 84
1, 744420, Note_off_c, 0, 35, 55
1, 744427, Control_c, 0, 64, 81
1, 744442, Control_c, 0, 64, 78
1, 744449, Note_on_c, 0, 33, 51
1, 744457, Control_c, 0, 64, 73
1, 744473, Control_c, 0, 64, 66
1, 744482, Note_off_c, 0, 33, 64
1, 744487, Control_c, 0, 64, 55
1, 744493, Note_on_c, 0, 35, 50
1, 744502, Control_c, 0, 64, 35
1, 744524, Control_c, 0, 64, 0
1, 744551, Note_off_c, 0, 35, 51
1, 744591, Note_on_c, 0, 33, 52
1, 744592, Note_off_c, 0, 61, 33
1, 744594, Note_off_c, 0, 54, 12
1, 744596, Note_on_c, 0, 49, 32
1, 744613, Control_c, 0, 64, 35
1, 744628, Control_c, 0, 64, 50
1, 744643, Control_c, 0, 64, 60
1, 744656, Note_off_c, 0, 33, 61
1, 744658, Control_c, 0, 64, 64
1, 744673, Control_c, 0, 64, 66
1, 744687, Control_c, 0, 64, 69
1, 744694, Note_on_c, 0, 35, 54
1, 744702, Control_c, 0, 64, 70
1, 744717, Control_c, 0, 64, 71
1, 744732, Control_c, 0, 64, 71
1, 744820, Control_c, 0, 64, 70
1, 744835, Control_c, 0, 64, 67
1, 744850, Control_c, 0, 64, 63
1, 744865, Control_c, 0, 64, 54
1, 744880, Control_c, 0, 64, 0
1, 744884, Note_off_c, 0, 57, 47
1, 744891, Note_on_c, 0, 61, 45
1, 744893, Note_on_c, 0, 37, 35
1, 744941, Note_off_c, 0, 35, 37
1, 745043, Control_c, 0, 64, 45
1, 745058, Control_c, 0, 64, 57
1, 745073, Control_c, 0, 64, 63
1, 745088, Control_c, 0, 64, 67
1, 745103, Control_c, 0, 64, 70
1, 745117, Control_c, 0, 64, 73
1, 745132, Control_c, 0, 64, 77
1, 745135, Note_off_c, 0, 37, 40
1, 745147, Control_c, 0, 64, 81
1, 745152, Note_on_c, 0, 53, 43
1, 745162, Control_c, 0, 64, 86
1, 745177, Control_c, 0, 64, 92
1, 745191, Control_c, 0, 64, 98
1, 745206, Control_c, 0, 64, 104
1, 745221, Control_c, 0, 64, 110
1, 745236, Control_c, 0, 64, 113
1, 745251, Control_c, 0, 64, 115
1, 745273, Control_c, 0, 64, 118
1, 745288, Control_c, 0, 64, 125
1, 745303, Control_c, 0, 64, 127
1, 745370, Note_off_c, 0, 53, 40
1, 745391, Note_on_c, 0, 56, 35
1, 745596, Note_on_c, 0, 53, 41
1, 745599, Control_c, 0, 64, 119
1, 745614, Control_c, 0, 64, 113
1, 745615, Note_off_c, 0, 56, 37
1, 745629, Control_c, 0, 64, 109
1, 745643, Control_c, 0, 64, 104
1, 745658, Control_c, 0, 64, 100
1, 745673, Control_c, 0, 64, 96
1, 745687, Control_c, 0, 64, 91
1, 745702, Control_c, 0, 64, 87
1, 745717, Control_c, 0, 64, 82
1, 745722, Note_off_c, 0, 49, 37
1, 745733, Control_c, 0, 64, 76
1, 745748, Control_c, 0, 64, 69
1, 745763, Control_c, 0, 64, 61
1, 745778, Control_c, 0, 64, 46
1, 745792, Control_c, 0, 64, 0
1, 745798, Note_on_c, 0, 56, 26
1, 745883, Note_on_c, 0, 39, 44
1, 745928, Note_off_c, 0, 39, 59
1, 746017, Note_on_c, 0, 41, 51
1, 746049, Note_on_c, 0, 49, 26
1, 746051, Control_c, 0, 64, 37
1, 746065, Note_off_c, 0, 41, 56
1, 746065, Control_c, 0, 64, 52
1, 746080, Control_c, 0, 64, 61
1, 746089, Note_off_c, 0, 56, 41
1, 746095, Control_c, 0, 64, 64
1, 746109, Note_off_c, 0, 53, 38
1, 746110, Control_c, 0, 64, 65
1, 746125, Control_c, 0, 64, 66
1, 746125, Note_on_c, 0, 42, 54
1, 746139, Control_c, 0, 64, 67
1, 746149, Note_off_c, 0, 49, 39
1, 746154, Control_c, 0, 64, 68
1, 746169, Control_c, 0, 64, 70
1, 746170, Note_off_c, 0, 42, 55
1, 746184, Control_c, 0, 64, 71
1, 746199, Control_c, 0, 64, 72
1, 746214, Control_c, 0, 64, 73
1, 746259, Control_c, 0, 64, 72
1, 746273, Control_c, 0, 64, 67
1, 746285, Note_on_c, 0, 44, 42
1, 746288, Control_c, 0, 64, 61
1, 746303, Control_c, 0, 64, 46
1, 746317, Control_c, 0, 64, 0
1, 746329, Note_on_c, 0, 60, 46
1, 746347, Control_c, 0, 64, 36
1, 746356, Note_off_c, 0, 61, 40
1, 746362, Control_c, 0, 64, 46
1, 746377, Control_c, 0, 64, 58
1, 746391, Control_c, 0, 64, 64
1, 746406, Control_c, 0, 64, 68
1, 746420, Note_off_c, 0, 44, 48
1, 746421, Control_c, 0, 64, 72
1, 746436, Control_c, 0, 64, 74
1, 746451, Control_c, 0, 64, 75
1, 746465, Control_c, 0, 64, 76
1, 746480, Control_c, 0, 64, 78
1, 746495, Control_c, 0, 64, 80
1, 746509, Control_c, 0, 64, 82
1, 746524, Control_c, 0, 64, 83
1, 746540, Control_c, 0, 64, 85
1, 746555, Control_c, 0, 64, 86
1, 746557, Note_off_c, 0, 60, 59
1, 746570, Control_c, 0, 64, 87
1, 746585, Control_c, 0, 64, 89
1, 746593, Note_on_c, 0, 54, 34
1, 746600, Control_c, 0, 64, 90
1, 746614, Control_c, 0, 64, 92
1, 746629, Control_c, 0, 64, 93
1, 746644, Control_c, 0, 64, 93
1, 746659, Control_c, 0, 64, 94
1, 746674, Control_c, 0, 64, 94
1, 746771, Control_c, 0, 64, 95
1, 746801, Note_off_c, 0, 54, 39
1, 746825, Note_on_c, 0, 66, 58
1, 746837, Note_on_c, 0, 56, 24
1, 746875, Control_c, 0, 67, 119
1, 746889, Control_c, 0, 67, 96
1, 746904, Control_c, 0, 67, 76
1, 746919, Control_c, 0, 67, 60
1, 746933, Control_c, 0, 67, 45
1, 746948, Control_c, 0, 67, 26
1, 746963, Control_c, 0, 67, 0
1, 747034, Note_off_c, 0, 56, 38
1, 747048, Note_on_c, 0, 54, 38
1, 747111, Control_c, 0, 64, 94
1, 747156, Control_c, 0, 64, 94
1, 747171, Control_c, 0, 64, 93
1, 747186, Control_c, 0, 64, 93
1, 747201, Control_c, 0, 64, 91
1, 747215, Control_c, 0, 64, 88
1, 747230, Control_c, 0, 64, 83
1, 747245, Control_c, 0, 64, 75
1, 747259, Control_c, 0, 64, 65
1, 747265, Note_on_c, 0, 56, 28
1, 747269, Note_on_c, 0, 60, 54
1, 747274, Control_c, 0, 64, 50
1, 747289, Control_c, 0, 64, 0
1, 747293, Note_off_c, 0, 66, 56
1, 747335, Control_c, 0, 64, 39
1, 747350, Control_c, 0, 64, 47
1, 747364, Control_c, 0, 64, 56
1, 747379, Control_c, 0, 64, 64
1, 747394, Control_c, 0, 64, 70
1, 747409, Control_c, 0, 64, 75
1, 747424, Control_c, 0, 64, 78
1, 747438, Control_c, 0, 64, 80
1, 747446, Note_off_c, 0, 56, 41
1, 747453, Control_c, 0, 64, 83
1, 747468, Control_c, 0, 64, 87
1, 747481, Note_on_c, 0, 51, 39
1, 747483, Control_c, 0, 64, 89
1, 747485, Note_off_c, 0, 54, 37
1, 747498, Control_c, 0, 64, 91
1, 747520, Control_c, 0, 64, 92
1, 747520, Note_off_c, 0, 51, 55
1, 747564, Control_c, 0, 64, 93
1, 747756, Control_c, 0, 64, 92
1, 747771, Control_c, 0, 64, 90
1, 747779, Note_on_c, 0, 37, 37
1, 747786, Control_c, 0, 64, 85
1, 747801, Control_c, 0, 64, 77
1, 747805, Note_on_c, 0, 61, 52
1, 747816, Control_c, 0, 64, 68
1, 747830, Note_off_c, 0, 60, 54
1, 747830, Control_c, 0, 64, 58
1, 747845, Control_c, 0, 64, 41
1, 747860, Control_c, 0, 64, 36
1, 747875, Control_c, 0, 64, 41
1, 747889, Control_c, 0, 64, 47
1, 747904, Control_c, 0, 64, 53
1, 747919, Control_c, 0, 64, 60
1, 747934, Control_c, 0, 64, 65
1, 747949, Control_c, 0, 64, 70
1, 747964, Control_c, 0, 64, 73
1, 747979, Control_c, 0, 64, 75
1, 747994, Control_c, 0, 64, 76
1, 748008, Control_c, 0, 64, 77
1, 748023, Control_c, 0, 64, 78
1, 748038, Control_c, 0, 64, 79
1, 748071, Note_on_c, 0, 53, 40
1, 748097, Control_c, 0, 67, 23
1, 748112, Control_c, 0, 67, 28
1, 748128, Control_c, 0, 67, 34
1, 748142, Note_off_c, 0, 37, 40
1, 748143, Control_c, 0, 67, 45
1, 748157, Control_c, 0, 67, 59
1, 748172, Control_c, 0, 67, 77
1, 748187, Control_c, 0, 67, 94
1, 748202, Control_c, 0, 67, 111
1, 748217, Control_c, 0, 67, 126
1, 748291, Note_off_c, 0, 53, 40
1, 748312, Control_c, 0, 64, 79
1, 748315, Note_on_c, 0, 56, 33
1, 748327, Control_c, 0, 64, 78
1, 748342, Control_c, 0, 64, 77
1, 748357, Control_c, 0, 64, 75
1, 748372, Control_c, 0, 64, 69
1, 748387, Control_c, 0, 64, 62
1, 748402, Control_c, 0, 64, 47
1, 748417, Control_c, 0, 64, 0
1, 748491, Control_c, 0, 64, 43
1, 748505, Control_c, 0, 64, 57
1, 748520, Control_c, 0, 64, 64
1, 748528, Note_on_c, 0, 53, 30
1, 748533, Note_off_c, 0, 56, 39
1, 748535, Control_c, 0, 64, 68
1, 748550, Control_c, 0, 64, 73
1, 748565, Control_c, 0, 64, 76
1, 748579, Control_c, 0, 64, 78
1, 748594, Control_c, 0, 64, 81
1, 748609, Control_c, 0, 64, 83
1, 748624, Control_c, 0, 64, 86
1, 748639, Control_c, 0, 64, 88
1, 748653, Control_c, 0, 64, 90
1, 748668, Control_c, 0, 64, 90
1, 748698, Control_c, 0, 64, 91
1, 748709, Note_off_c, 0, 53, 40
1, 748727, Control_c, 0, 64, 91
1, 748757, Note_on_c, 0, 56, 32
1, 748772, Control_c, 0, 64, 92
1, 748988, Note_on_c, 0, 49, 28
1, 749012, Note_off_c, 0, 61, 0
1, 749049, Poly_aftertouch_c, 0, 61, 127
1, 749118, Poly_aftertouch_c, 0, 61, 0
1, 749243, Note_off_c, 0, 49, 36
1, 749269, Control_c, 0, 64, 87
1, 749275, Note_on_c, 0, 61, 40
1, 749284, Control_c, 0, 64, 80
1, 749287, Note_on_c, 0, 35, 32
1, 749299, Control_c, 0, 64, 70
1, 749314, Control_c, 0, 64, 61
1, 749314, Note_off_c, 0, 56, 42
1, 749328, Control_c, 0, 64, 48
1, 749343, Control_c, 0, 64, 44
1, 749358, Control_c, 0, 64, 50
1, 749373, Control_c, 0, 64, 57
1, 749388, Control_c, 0, 64, 62
1, 749402, Control_c, 0, 64, 66
1, 749417, Control_c, 0, 64, 70
1, 749432, Control_c, 0, 64, 73
1, 749447, Control_c, 0, 64, 75
1, 749461, Control_c, 0, 64, 77
1, 749476, Control_c, 0, 64, 78
1, 749491, Control_c, 0, 64, 79
1, 749506, Control_c, 0, 64, 80
1, 749521, Control_c, 0, 64, 81
1, 749535, Control_c, 0, 64, 82
1, 749542, Note_on_c, 0, 53, 37
1, 749550, Control_c, 0, 64, 83
1, 749565, Control_c, 0, 64, 84
1, 749570, Note_off_c, 0, 35, 39
1, 749624, Control_c, 0, 64, 84
1, 749764, Note_off_c, 0, 53, 36
1, 749791, Note_on_c, 0, 56, 29
1, 749870, Control_c, 0, 64, 84
1, 749884, Control_c, 0, 64, 83
1, 749899, Control_c, 0, 64, 82
1, 749914, Control_c, 0, 64, 80
1, 749929, Control_c, 0, 64, 76
1, 749944, Control_c, 0, 64, 70
1, 749958, Control_c, 0, 64, 63
1, 749973, Control_c, 0, 64, 48
1, 749988, Control_c, 0, 64, 36
1, 750018, Control_c, 0, 64, 42
1, 750020, Note_on_c, 0, 53, 25
1, 750022, Note_off_c, 0, 56, 41
1, 750032, Control_c, 0, 64, 51
1, 750047, Control_c, 0, 64, 58
1, 750062, Control_c, 0, 64, 64
1, 750077, Control_c, 0, 64, 67
1, 750092, Control_c, 0, 64, 70
1, 750107, Control_c, 0, 64, 73
1, 750122, Control_c, 0, 64, 75
1, 750137, Control_c, 0, 64, 77
1, 750151, Control_c, 0, 64, 79
1, 750166, Control_c, 0, 64, 82
1, 750181, Control_c, 0, 64, 84
1, 750196, Control_c, 0, 64, 87
1, 750211, Control_c, 0, 64, 88
1, 750225, Control_c, 0, 64, 89
1, 750226, Note_on_c, 0, 56, 35
1, 750240, Control_c, 0, 64, 90
1, 750255, Control_c, 0, 64, 91
1, 750270, Control_c, 0, 64, 92
1, 750284, Control_c, 0, 64, 93
1, 750344, Control_c, 0, 64, 93
1, 750445, Note_on_c, 0, 49, 35
1, 750577, Note_off_c, 0, 61, 37
1, 750652, Note_off_c, 0, 49, 36
1, 750722, Control_c, 0, 64, 93
1, 750737, Control_c, 0, 64, 91
1, 750752, Control_c, 0, 64, 85
1, 750767, Control_c, 0, 64, 74
1, 750773, Note_on_c, 0, 33, 35
1, 750773, Note_off_c, 0, 53, 37
1, 750781, Control_c, 0, 64, 65
1, 750783, Note_on_c, 0, 61, 40
1, 750796, Control_c, 0, 64, 55
1, 750811, Control_c, 0, 64, 47
1, 750822, Note_off_c, 0, 56, 40
1, 750826, Control_c, 0, 64, 48
1, 750840, Control_c, 0, 64, 53
1, 750855, Control_c, 0, 64, 58
1, 750870, Control_c, 0, 64, 62
1, 750885, Control_c, 0, 64, 65
1, 750900, Control_c, 0, 64, 69
1, 750915, Control_c, 0, 64, 72
1, 750930, Control_c, 0, 64, 75
1, 750945, Control_c, 0, 64, 76
1, 750960, Control_c, 0, 64, 77
1, 750974, Control_c, 0, 64, 78
1, 750989, Control_c, 0, 64, 80
1, 751004, Control_c, 0, 64, 82
1, 751019, Control_c, 0, 64, 83
1, 751033, Control_c, 0, 64, 84
1, 751048, Note_on_c, 0, 54, 36
1, 751048, Control_c, 0, 64, 85
1, 751063, Control_c, 0, 64, 86
1, 751073, Note_off_c, 0, 33, 40
1, 751078, Control_c, 0, 64, 86
1, 751093, Control_c, 0, 64, 87
1, 751107, Control_c, 0, 64, 87
1, 751137, Control_c, 0, 64, 88
1, 751263, Note_off_c, 0, 54, 36
1, 751295, Note_on_c, 0, 57, 29
1, 751398, Control_c, 0, 64, 87
1, 751412, Control_c, 0, 64, 86
1, 751427, Control_c, 0, 64, 86
1, 751442, Control_c, 0, 64, 84
1, 751457, Control_c, 0, 64, 81
1, 751472, Control_c, 0, 64, 74
1, 751486, Control_c, 0, 64, 67
1, 751501, Control_c, 0, 64, 58
1, 751503, Note_on_c, 0, 54, 31
1, 751516, Control_c, 0, 64, 47
1, 751530, Control_c, 0, 64, 43
1, 751544, Note_off_c, 0, 57, 39
1, 751545, Control_c, 0, 64, 45
1, 751560, Control_c, 0, 64, 50
1, 751575, Control_c, 0, 64, 55
1, 751590, Control_c, 0, 64, 60
1, 751604, Control_c, 0, 64, 63
1, 751619, Control_c, 0, 64, 67
1, 751634, Control_c, 0, 64, 70
1, 751648, Control_c, 0, 64, 74
1, 751663, Control_c, 0, 64, 77
1, 751678, Control_c, 0, 64, 79
1, 751693, Control_c, 0, 64, 80
1, 751708, Control_c, 0, 64, 81
1, 751723, Control_c, 0, 64, 83
1, 751738, Note_on_c, 0, 57, 31
1, 751738, Control_c, 0, 64, 84
1, 751752, Control_c, 0, 64, 84
1, 751767, Control_c, 0, 64, 85
1, 751782, Control_c, 0, 64, 85
1, 751797, Control_c, 0, 64, 86
1, 751812, Control_c, 0, 64, 87
1, 751871, Control_c, 0, 64, 88
1, 751988, Note_on_c, 0, 49, 32
1, 752083, Note_off_c, 0, 49, 35
1, 752101, Note_off_c, 0, 61, 37
1, 752250, Control_c, 0, 64, 87
1, 752280, Control_c, 0, 64, 85
1, 752295, Control_c, 0, 64, 81
1, 752310, Control_c, 0, 64, 76
1, 752313, Note_on_c, 0, 32, 31
1, 752325, Control_c, 0, 64, 69
1, 752331, Note_on_c, 0, 61, 41
1, 752340, Control_c, 0, 64, 62
1, 752345, Note_off_c, 0, 54, 36
1, 752354, Control_c, 0, 64, 51
1, 752366, Note_off_c, 0, 57, 40
1, 752369, Control_c, 0, 64, 47
1, 752384, Control_c, 0, 64, 48
1, 752399, Control_c, 0, 64, 50
1, 752414, Control_c, 0, 64, 52
1, 752428, Control_c, 0, 64, 55
1, 752443, Control_c, 0, 64, 59
1, 752458, Control_c, 0, 64, 64
1, 752472, Control_c, 0, 64, 67
1, 752487, Control_c, 0, 64, 71
1, 752502, Control_c, 0, 64, 74
1, 752517, Control_c, 0, 64, 76
1, 752532, Control_c, 0, 64, 77
1, 752546, Control_c, 0, 64, 79
1, 752561, Control_c, 0, 64, 80
1, 752563, Note_off_c, 0, 32, 37
1, 752576, Control_c, 0, 64, 81
1, 752591, Control_c, 0, 64, 83
1, 752606, Control_c, 0, 64, 84
1, 752618, Note_on_c, 0, 53, 35
1, 752621, Control_c, 0, 64, 85
1, 752635, Control_c, 0, 64, 87
1, 752650, Control_c, 0, 64, 88
1, 752694, Control_c, 0, 64, 88
1, 752761, Control_c, 0, 64, 89
1, 752906, Note_on_c, 0, 59, 33
1, 752912, Note_off_c, 0, 53, 34
1, 752970, Control_c, 0, 64, 88
1, 752984, Control_c, 0, 64, 88
1, 752999, Control_c, 0, 64, 87
1, 753044, Control_c, 0, 64, 87
1, 753058, Control_c, 0, 64, 86
1, 753073, Control_c, 0, 64, 85
1, 753088, Control_c, 0, 64, 84
1, 753103, Control_c, 0, 64, 83
1, 753118, Control_c, 0, 64, 81
1, 753133, Control_c, 0, 64, 79
1, 753148, Control_c, 0, 64, 75
1, 753162, Control_c, 0, 64, 71
1, 753169, Note_on_c, 0, 53, 29
1, 753177, Control_c, 0, 64, 67
1, 753192, Control_c, 0, 64, 63
1, 753207, Control_c, 0, 64, 58
1, 753211, Note_off_c, 0, 59, 35
1, 753221, Control_c, 0, 64, 54
1, 753236, Control_c, 0, 64, 51
1, 753251, Control_c, 0, 64, 50
1, 753266, Control_c, 0, 64, 50
1, 753281, Control_c, 0, 64, 50
1, 753295, Control_c, 0, 64, 53
1, 753310, Control_c, 0, 64, 56
1, 753325, Control_c, 0, 64, 59
1, 753340, Control_c, 0, 64, 63
1, 753355, Control_c, 0, 64, 66
1, 753369, Control_c, 0, 64, 69
1, 753384, Control_c, 0, 64, 72
1, 753399, Control_c, 0, 64, 76
1, 753414, Control_c, 0, 64, 79
1, 753428, Control_c, 0, 64, 82
1, 753443, Control_c, 0, 64, 84
1, 753458, Control_c, 0, 64, 87
1, 753473, Control_c, 0, 64, 90
1, 753474, Note_on_c, 0, 59, 29
1, 753488, Control_c, 0, 64, 91
1, 753510, Control_c, 0, 64, 92
1, 753539, Note_off_c, 0, 53, 26
1, 753540, Control_c, 0, 64, 93
1, 753555, Control_c, 0, 64, 94
1, 753570, Control_c, 0, 64, 95
1, 753599, Control_c, 0, 64, 95
1, 753702, Control_c, 0, 64, 97
1, 753856, Note_on_c, 0, 49, 30
1, 754003, Note_off_c, 0, 49, 43
1, 754064, Note_off_c, 0, 59, 38
1, 754086, Note_off_c, 0, 61, 37
1, 754511, Control_c, 0, 64, 95
1, 754519, Note_on_c, 0, 30, 30
1, 754527, Control_c, 0, 64, 88
1, 754542, Control_c, 0, 64, 78
1, 754556, Control_c, 0, 64, 66
1, 754571, Control_c, 0, 64, 56
1, 754585, Note_on_c, 0, 69, 50
1, 754586, Control_c, 0, 64, 54
1, 754601, Control_c, 0, 64, 57
1, 754616, Control_c, 0, 64, 60
1, 754630, Control_c, 0, 64, 65
1, 754644, Note_off_c, 0, 30, 43
1, 754645, Control_c, 0, 64, 70
1, 754660, Control_c, 0, 64, 79
1, 754674, Control_c, 0, 64, 85
1, 754689, Control_c, 0, 64, 89
1, 754704, Control_c, 0, 64, 92
1, 754719, Control_c, 0, 64, 94
1, 754734, Control_c, 0, 64, 96
1, 754748, Control_c, 0, 64, 98
1, 754763, Control_c, 0, 64, 101
1, 754778, Control_c, 0, 64, 103
1, 754808, Control_c, 0, 64, 105
1, 754838, Control_c, 0, 64, 107
1, 754867, Control_c, 0, 64, 110
1, 754897, Control_c, 0, 64, 112
1, 754912, Control_c, 0, 64, 115
1, 754927, Control_c, 0, 64, 118
1, 754941, Control_c, 0, 64, 120
1, 754950, Note_on_c, 0, 57, 19
1, 754956, Control_c, 0, 64, 122
1, 754986, Control_c, 0, 64, 125
1, 755018, Note_off_c, 0, 57, 41
1, 755023, Control_c, 0, 64, 127
1, 755263, Note_on_c, 0, 61, 30
1, 755328, Note_on_c, 0, 73, 42
1, 755371, Note_off_c, 0, 73, 48
1, 755483, Note_on_c, 0, 73, 53
1, 755498, Note_off_c, 0, 61, 37
1, 755501, Note_off_c, 0, 69, 36
1, 755531, Note_off_c, 0, 73, 53
1, 755547, Note_on_c, 0, 57, 26
1, 755641, Note_on_c, 0, 73, 32
1, 755678, Note_off_c, 0, 73, 51
1, 755731, Note_on_c, 0, 61, 38
1, 755793, Note_on_c, 0, 73, 46
1, 755889, Note_off_c, 0, 61, 31
1, 755967, Note_off_c, 0, 57, 42
1, 756002, Note_on_c, 0, 49, 35
1, 756036, Note_off_c, 0, 49, 50
1, 756173, Control_c, 0, 64, 102
1, 756188, Control_c, 0, 64, 83
1, 756202, Control_c, 0, 64, 67
1, 756217, Control_c, 0, 64, 56
1, 756232, Control_c, 0, 64, 52
1, 756246, Control_c, 0, 64, 55
1, 756251, Note_on_c, 0, 41, 44
1, 756261, Control_c, 0, 64, 60
1, 756276, Control_c, 0, 64, 65
1, 756291, Control_c, 0, 64, 72
1, 756295, Note_off_c, 0, 73, 49
1, 756305, Note_on_c, 0, 68, 46
1, 756306, Control_c, 0, 64, 80
1, 756320, Control_c, 0, 64, 90
1, 756335, Control_c, 0, 64, 97
1, 756340, Note_off_c, 0, 41, 52
1, 756350, Control_c, 0, 64, 103
1, 756365, Control_c, 0, 64, 106
1, 756380, Control_c, 0, 64, 110
1, 756394, Control_c, 0, 64, 118
1, 756409, Control_c, 0, 64, 127
1, 756497, Note_off_c, 0, 68, 36
1, 756513, Note_on_c, 0, 56, 43
1, 756742, Note_on_c, 0, 61, 33
1, 756757, Note_off_c, 0, 56, 35
1, 756815, Note_on_c, 0, 73, 46
1, 756865, Note_off_c, 0, 73, 57
1, 756967, Note_on_c, 0, 73, 58
1, 756982, Note_off_c, 0, 61, 38
1, 757000, Note_off_c, 0, 73, 64
1, 757002, Note_on_c, 0, 56, 35
1, 757093, Note_on_c, 0, 73, 35
1, 757133, Note_off_c, 0, 73, 49
1, 757179, Note_on_c, 0, 61, 37
1, 757230, Note_on_c, 0, 73, 57
1, 757318, Note_off_c, 0, 61, 27
1, 757398, Note_off_c, 0, 56, 35
1, 757416, Note_on_c, 0, 49, 33
1, 757457, Note_off_c, 0, 49, 53
1, 757580, Control_c, 0, 64, 116
1, 757588, Note_off_c, 0, 73, 42
1, 757594, Control_c, 0, 64, 91
1, 757609, Control_c, 0, 64, 74
1, 757615, Note_on_c, 0, 71, 41
1, 757624, Control_c, 0, 64, 61
1, 757639, Control_c, 0, 64, 49
1, 757653, Note_on_c, 0, 42, 27
1, 757654, Control_c, 0, 64, 52
1, 757667, Note_off_c, 0, 71, 57
1, 757668, Control_c, 0, 64, 55
1, 757681, Note_on_c, 0, 69, 44
1, 757683, Control_c, 0, 64, 59
1, 757698, Control_c, 0, 64, 63
1, 757714, Control_c, 0, 64, 68
1, 757729, Control_c, 0, 64, 75
1, 757744, Control_c, 0, 64, 81
1, 757759, Control_c, 0, 64, 85
1, 757768, Note_off_c, 0, 42, 36
1, 757773, Control_c, 0, 64, 87
1, 757788, Control_c, 0, 64, 90
1, 757803, Control_c, 0, 64, 93
1, 757817, Control_c, 0, 64, 97
1, 757817, Control_c, 0, 67, 111
1, 757832, Control_c, 0, 64, 101
1, 757832, Control_c, 0, 67, 95
1, 757847, Control_c, 0, 64, 104
1, 757847, Control_c, 0, 67, 79
1, 757862, Control_c, 0, 64, 106
1, 757862, Control_c, 0, 67, 67
1, 757877, Control_c, 0, 64, 111
1, 757877, Control_c, 0, 67, 56
1, 757891, Control_c, 0, 64, 119
1, 757891, Control_c, 0, 67, 45
1, 757906, Control_c, 0, 64, 127
1, 757906, Control_c, 0, 67, 35
1, 757921, Control_c, 0, 67, 25
1, 757931, Note_off_c, 0, 69, 59
1, 757936, Control_c, 0, 67, 0
1, 757957, Note_on_c, 0, 68, 51
1, 757964, Note_on_c, 0, 57, 21
1, 758176, Note_on_c, 0, 69, 56
1, 758179, Note_off_c, 0, 57, 41
1, 758191, Note_on_c, 0, 61, 27
1, 758221, Note_off_c, 0, 68, 33
1, 758368, Note_off_c, 0, 61, 39
1, 758378, Note_on_c, 0, 73, 66
1, 758384, Note_off_c, 0, 69, 62
1, 758391, Note_on_c, 0, 57, 35
1, 758611, Control_c, 0, 64, 94
1, 758620, Note_on_c, 0, 61, 36
1, 758626, Control_c, 0, 64, 77
1, 758640, Control_c, 0, 64, 62
1, 758640, Control_c, 0, 67, 22
1, 758641, Note_on_c, 0, 78, 62
1, 758655, Control_c, 0, 64, 48
1, 758655, Control_c, 0, 67, 26
1, 758659, Note_off_c, 0, 73, 56
1, 758668, Note_on_c, 0, 69, 38
1, 758670, Control_c, 0, 64, 42
1, 758670, Control_c, 0, 67, 31
1, 758685, Control_c, 0, 64, 45
1, 758685, Control_c, 0, 67, 39
1, 758700, Control_c, 0, 64, 52
1, 758700, Control_c, 0, 67, 51
1, 758714, Control_c, 0, 64, 57
1, 758714, Control_c, 0, 67, 66
1, 758729, Control_c, 0, 64, 64
1, 758729, Control_c, 0, 67, 84
1, 758752, Control_c, 0, 64, 71
1, 758752, Control_c, 0, 67, 102
1, 758766, Control_c, 0, 64, 82
1, 758766, Control_c, 0, 67, 123
1, 758781, Control_c, 0, 64, 97
1, 758781, Control_c, 0, 67, 127
1, 758796, Control_c, 0, 64, 111
1, 758803, Note_off_c, 0, 61, 38
1, 758809, Note_off_c, 0, 69, 54
1, 758811, Control_c, 0, 64, 127
1, 758845, Note_off_c, 0, 57, 41
1, 758856, Note_on_c, 0, 49, 41
1, 758889, Note_off_c, 0, 49, 57
1, 758912, Note_off_c, 0, 78, 54
1, 759047, Control_c, 0, 64, 98
1, 759062, Control_c, 0, 64, 73
1, 759077, Control_c, 0, 64, 56
1, 759092, Control_c, 0, 64, 36
1, 759094, Note_on_c, 0, 41, 40
1, 759107, Control_c, 0, 64, 39
1, 759116, Note_on_c, 0, 68, 57
1, 759121, Control_c, 0, 64, 47
1, 759136, Control_c, 0, 64, 55
1, 759151, Control_c, 0, 64, 62
1, 759166, Control_c, 0, 64, 69
1, 759172, Note_off_c, 0, 41, 58
1, 759181, Control_c, 0, 64, 79
1, 759196, Control_c, 0, 64, 91
1, 759211, Control_c, 0, 64, 99
1, 759226, Control_c, 0, 64, 102
1, 759240, Control_c, 0, 64, 106
1, 759255, Control_c, 0, 64, 113
1, 759270, Control_c, 0, 64, 127
1, 759326, Note_off_c, 0, 68, 37
1, 759351, Note_on_c, 0, 56, 37
1, 759610, Note_on_c, 0, 61, 31
1, 759617, Note_off_c, 0, 56, 37
1, 759686, Note_on_c, 0, 73, 53
1, 759731, Note_off_c, 0, 73, 56
1, 759853, Note_on_c, 0, 73, 53
1, 759867, Note_off_c, 0, 61, 37
1, 759878, Note_off_c, 0, 73, 60
1, 759885, Note_on_c, 0, 56, 32
1, 759978, Note_on_c, 0, 73, 41
1, 760004, Note_off_c, 0, 73, 56
1, 760051, Note_on_c, 0, 61, 37
1, 760093, Note_on_c, 0, 73, 52
1, 760174, Note_off_c, 0, 61, 37
1, 760280, Note_off_c, 0, 56, 36
1, 760284, Note_on_c, 0, 49, 38
1, 760317, Note_off_c, 0, 49, 55
1, 760442, Note_off_c, 0, 73, 48
1, 760557, Note_on_c, 0, 45, 47
1, 760575, Control_c, 0, 64, 98
1, 760590, Control_c, 0, 64, 75
1, 760605, Control_c, 0, 64, 62
1, 760619, Control_c, 0, 64, 53
1, 760634, Control_c, 0, 64, 56
1, 760642, Note_on_c, 0, 73, 66
1, 760649, Control_c, 0, 64, 60
1, 760664, Control_c, 0, 64, 64
1, 760679, Control_c, 0, 64, 71
1, 760679, Control_c, 0, 67, 117
1, 760693, Control_c, 0, 64, 80
1, 760693, Control_c, 0, 67, 85
1, 760704, Note_off_c, 0, 45, 62
1, 760708, Control_c, 0, 64, 92
1, 760708, Control_c, 0, 67, 57
1, 760723, Control_c, 0, 64, 103
1, 760723, Control_c, 0, 67, 30
1, 760737, Control_c, 0, 64, 111
1, 760737, Control_c, 0, 67, 0
1, 760752, Control_c, 0, 64, 120
1, 760767, Control_c, 0, 64, 127
1, 760877, Note_on_c, 0, 60, 39
1, 761092, Note_off_c, 0, 60, 39
1, 761139, Note_on_c, 0, 61, 35
1, 761221, Note_on_c, 0, 78, 41
1, 761339, Note_off_c, 0, 78, 51
1, 761362, Note_on_c, 0, 81, 48
1, 761405, Note_on_c, 0, 49, 33
1, 761408, Note_off_c, 0, 61, 36
1, 761486, Note_on_c, 0, 80, 46
1, 761508, Note_off_c, 0, 81, 38
1, 761560, Control_c, 0, 67, 22
1, 761563, Note_off_c, 0, 49, 43
1, 761575, Control_c, 0, 67, 26
1, 761590, Control_c, 0, 67, 32
1, 761596, Note_off_c, 0, 80, 52
1, 761605, Control_c, 0, 67, 43
1, 761616, Note_on_c, 0, 78, 49
1, 761618, Note_on_c, 0, 61, 30
1, 761620, Control_c, 0, 67, 64
1, 761631, Note_off_c, 0, 73, 43
1, 761634, Control_c, 0, 67, 82
1, 761649, Control_c, 0, 67, 100
1, 761664, Control_c, 0, 67, 114
1, 761679, Control_c, 0, 67, 124
1, 761694, Control_c, 0, 67, 127
1, 761760, Note_off_c, 0, 61, 35
1, 761795, Note_on_c, 0, 49, 36
1, 761830, Note_off_c, 0, 49, 51
1, 761969, Control_c, 0, 64, 94
1, 761983, Control_c, 0, 64, 73
1, 761998, Control_c, 0, 64, 60
1, 762007, Note_on_c, 0, 47, 46
1, 762013, Control_c, 0, 64, 54
1, 762028, Control_c, 0, 64, 58
1, 762043, Control_c, 0, 64, 61
1, 762058, Control_c, 0, 64, 65
1, 762062, Note_on_c, 0, 74, 67
1, 762070, Note_off_c, 0, 78, 57
1, 762072, Control_c, 0, 64, 71
1, 762072, Control_c, 0, 67, 123
1, 762087, Control_c, 0, 64, 79
1, 762087, Control_c, 0, 67, 120
1, 762094, Note_off_c, 0, 47, 60
1, 762102, Control_c, 0, 64, 89
1, 762102, Control_c, 0, 67, 113
1, 762117, Control_c, 0, 64, 99
1, 762117, Control_c, 0, 67, 102
1, 762132, Control_c, 0, 64, 106
1, 762132, Control_c, 0, 67, 86
1, 762147, Control_c, 0, 64, 115
1, 762147, Control_c, 0, 67, 73
1, 762162, Control_c, 0, 64, 127
1, 762162, Control_c, 0, 67, 63
1, 762177, Control_c, 0, 67, 54
1, 762191, Control_c, 0, 67, 47
1, 762206, Control_c, 0, 67, 40
1, 762221, Control_c, 0, 67, 34
1, 762236, Control_c, 0, 67, 29
1, 762251, Control_c, 0, 67, 27
1, 762280, Control_c, 0, 67, 24
1, 762295, Control_c, 0, 67, 21
1, 762299, Note_on_c, 0, 60, 13
1, 762309, Control_c, 0, 67, 0
1, 762466, Note_off_c, 0, 60, 42
1, 762541, Note_on_c, 0, 61, 18
1, 762595, Note_on_c, 0, 77, 36
1, 762730, Note_on_c, 0, 80, 50
1, 762732, Note_off_c, 0, 77, 36
1, 762781, Note_on_c, 0, 49, 31
1, 762782, Note_off_c, 0, 61, 37
1, 762837, Control_c, 0, 67, 21
1, 762852, Control_c, 0, 67, 24
1, 762857, Note_on_c, 0, 78, 47
1, 762867, Control_c, 0, 67, 26
1, 762881, Control_c, 0, 67, 29
1, 762886, Note_off_c, 0, 80, 31
1, 762896, Control_c, 0, 67, 32
1, 762911, Control_c, 0, 67, 38
1, 762926, Control_c, 0, 67, 45
1, 762940, Control_c, 0, 67, 57
1, 762944, Note_off_c, 0, 49, 43
1, 762955, Control_c, 0, 67, 70
1, 762964, Note_off_c, 0, 78, 50
1, 762970, Control_c, 0, 67, 81
1, 762985, Control_c, 0, 67, 91
1, 763000, Control_c, 0, 67, 99
1, 763001, Note_on_c, 0, 77, 33
1, 763011, Note_on_c, 0, 61, 28
1, 763014, Control_c, 0, 67, 108
1, 763029, Control_c, 0, 67, 117
1, 763044, Control_c, 0, 67, 127
1, 763062, Note_off_c, 0, 74, 39
1, 763134, Note_off_c, 0, 61, 27
1, 763218, Note_on_c, 0, 49, 34
1, 763264, Note_off_c, 0, 49, 50
1, 763274, Note_off_c, 0, 77, 43
1, 763551, Note_on_c, 0, 45, 41
1, 763571, Control_c, 0, 64, 107
1, 763586, Control_c, 0, 64, 83
1, 763601, Note_on_c, 0, 78, 51
1, 763601, Control_c, 0, 64, 67
1, 763612, Note_on_c, 0, 74, 46
1, 763616, Control_c, 0, 64, 51
1, 763630, Control_c, 0, 64, 48
1, 763645, Control_c, 0, 64, 52
1, 763660, Control_c, 0, 64, 57
1, 763675, Control_c, 0, 64, 61
1, 763689, Control_c, 0, 64, 66
1, 763704, Control_c, 0, 64, 72
1, 763719, Control_c, 0, 64, 81
1, 763734, Control_c, 0, 64, 89
1, 763749, Control_c, 0, 64, 95
1, 763763, Control_c, 0, 64, 101
1, 763776, Note_off_c, 0, 45, 41
1, 763778, Control_c, 0, 64, 113
1, 763793, Control_c, 0, 64, 127
1, 763801, Note_off_c, 0, 78, 50
1, 763853, Note_on_c, 0, 49, 33
1, 763873, Note_off_c, 0, 74, 36
1, 763935, Note_on_c, 0, 73, 57
1, 763968, Note_off_c, 0, 73, 59
1, 763998, Note_off_c, 0, 49, 36
1, 764023, Control_c, 0, 64, 102
1, 764037, Control_c, 0, 64, 77
1, 764038, Note_on_c, 0, 44, 40
1, 764052, Control_c, 0, 64, 62
1, 764058, Note_on_c, 0, 77, 52
1, 764067, Control_c, 0, 64, 48
1, 764071, Note_on_c, 0, 73, 45
1, 764082, Control_c, 0, 64, 49
1, 764096, Control_c, 0, 64, 55
1, 764112, Control_c, 0, 64, 59
1, 764127, Control_c, 0, 64, 65
1, 764142, Control_c, 0, 64, 73
1, 764157, Control_c, 0, 64, 86
1, 764172, Control_c, 0, 64, 107
1, 764186, Control_c, 0, 64, 127
1, 764275, Note_on_c, 0, 49, 34
1, 764309, Note_off_c, 0, 77, 36
1, 764342, Note_off_c, 0, 73, 43
1, 764359, Note_on_c, 0, 71, 57
1, 764394, Note_off_c, 0, 71, 62
1, 764424, Note_off_c, 0, 44, 43
1, 764429, Note_off_c, 0, 49, 41
1, 764463, Note_on_c, 0, 42, 39
1, 764468, Control_c, 0, 64, 109
1, 764483, Note_on_c, 0, 78, 61
1, 764483, Control_c, 0, 64, 79
1, 764498, Control_c, 0, 64, 63
1, 764508, Note_on_c, 0, 71, 37
1, 764512, Control_c, 0, 64, 46
1, 764527, Control_c, 0, 64, 46
1, 764542, Control_c, 0, 64, 50
1, 764557, Control_c, 0, 64, 55
1, 764572, Control_c, 0, 64, 60
1, 764586, Control_c, 0, 64, 65
1, 764601, Control_c, 0, 64, 72
1, 764616, Control_c, 0, 64, 86
1, 764631, Control_c, 0, 64, 96
1, 764646, Control_c, 0, 64, 101
1, 764651, Note_off_c, 0, 78, 35
1, 764654, Note_off_c, 0, 42, 40
1, 764660, Control_c, 0, 64, 105
1, 764675, Control_c, 0, 64, 114
1, 764686, Note_on_c, 0, 49, 48
1, 764690, Control_c, 0, 64, 127
1, 764777, Note_off_c, 0, 49, 49
1, 764794, Note_off_c, 0, 71, 41
1, 764802, Note_on_c, 0, 69, 54
1, 764833, Note_off_c, 0, 69, 61
1, 764948, Note_on_c, 0, 37, 38
1, 764950, Control_c, 0, 64, 114
1, 764965, Control_c, 0, 64, 81
1, 764980, Control_c, 0, 64, 64
1, 764995, Control_c, 0, 64, 44
1, 765009, Control_c, 0, 64, 35
1, 765024, Control_c, 0, 64, 44
1, 765031, Note_on_c, 0, 80, 51
1, 765039, Control_c, 0, 64, 52
1, 765045, Note_on_c, 0, 68, 48
1, 765054, Control_c, 0, 64, 57
1, 765061, Note_on_c, 0, 77, 37
1, 765062, Note_on_c, 0, 73, 32
1, 765067, Note_off_c, 0, 37, 57
1, 765069, Control_c, 0, 64, 62
1, 765083, Control_c, 0, 64, 67
1, 765098, Control_c, 0, 64, 76
1, 765113, Control_c, 0, 64, 88
1, 765128, Control_c, 0, 64, 95
1, 765143, Control_c, 0, 64, 100
1, 765158, Control_c, 0, 64, 109
1, 765172, Control_c, 0, 64, 127
1, 765318, Note_off_c, 0, 68, 34
1, 765351, Note_on_c, 0, 56, 33
1, 765603, Note_on_c, 0, 61, 24
1, 765626, Note_off_c, 0, 80, 30
1, 765787, Note_off_c, 0, 77, 35
1, 765790, Note_off_c, 0, 61, 38
1, 765798, Note_on_c, 0, 53, 36
1, 765965, Note_off_c, 0, 53, 40
1, 766014, Note_on_c, 0, 61, 37
1, 766140, Note_off_c, 0, 73, 40
1, 766148, Note_off_c, 0, 61, 36
1, 766242, Note_on_c, 0, 49, 35
1, 766250, Note_off_c, 0, 56, 38
1, 766278, Note_off_c, 0, 49, 52
1, 766507, Control_c, 0, 64, 103
1, 766511, Note_on_c, 0, 42, 40
1, 766522, Control_c, 0, 64, 77
1, 766537, Control_c, 0, 64, 64
1, 766552, Control_c, 0, 64, 57
1, 766567, Control_c, 0, 64, 59
1, 766581, Control_c, 0, 64, 62
1, 766582, Note_on_c, 0, 69, 54
1, 766596, Control_c, 0, 64, 67
1, 766611, Note_off_c, 0, 42, 60
1, 766611, Control_c, 0, 64, 76
1, 766626, Control_c, 0, 64, 88
1, 766641, Control_c, 0, 64, 103
1, 766655, Control_c, 0, 64, 125
1, 766670, Control_c, 0, 64, 127
1, 766838, Note_on_c, 0, 57, 39
1, 766878, Control_c, 0, 67, 112
1, 766892, Control_c, 0, 67, 91
1, 766907, Control_c, 0, 67, 66
1, 766922, Control_c, 0, 67, 45
1, 766937, Control_c, 0, 67, 29
1, 766952, Control_c, 0, 67, 0
1, 767096, Note_off_c, 0, 57, 28
1, 767135, Note_on_c, 0, 61, 23
1, 767152, Control_c, 0, 67, 19
1, 767167, Control_c, 0, 67, 23
1, 767182, Control_c, 0, 67, 27
1, 767197, Control_c, 0, 67, 32
1, 767211, Control_c, 0, 67, 41
1, 767223, Note_on_c, 0, 73, 52
1, 767226, Control_c, 0, 67, 58
1, 767241, Control_c, 0, 67, 73
1, 767256, Control_c, 0, 67, 87
1, 767271, Note_off_c, 0, 73, 56
1, 767271, Control_c, 0, 67, 100
1, 767286, Control_c, 0, 67, 110
1, 767301, Control_c, 0, 67, 119
1, 767316, Control_c, 0, 67, 127
1, 767347, Note_off_c, 0, 61, 38
1, 767394, Note_on_c, 0, 73, 52
1, 767403, Note_off_c, 0, 69, 34
1, 767420, Note_on_c, 0, 57, 26
1, 767429, Note_off_c, 0, 73, 62
1, 767533, Note_on_c, 0, 73, 31
1, 767572, Note_off_c, 0, 73, 52
1, 767583, Note_on_c, 0, 61, 38
1, 767683, Note_on_c, 0, 73, 44
1, 767691, Note_off_c, 0, 61, 37
1, 767793, Note_off_c, 0, 57, 41
1, 767847, Note_on_c, 0, 49, 24
1, 767891, Note_off_c, 0, 49, 43
1, 768034, Control_c, 0, 64, 116
1, 768049, Control_c, 0, 64, 81
1, 768064, Control_c, 0, 64, 64
1, 768070, Note_on_c, 0, 41, 41
1, 768079, Control_c, 0, 64, 53
1, 768094, Control_c, 0, 64, 54
1, 768109, Control_c, 0, 64, 59
1, 768124, Control_c, 0, 64, 63
1, 768139, Control_c, 0, 64, 69
1, 768153, Control_c, 0, 64, 79
1, 768161, Note_on_c, 0, 68, 59
1, 768168, Control_c, 0, 64, 92
1, 768179, Note_off_c, 0, 41, 50
1, 768183, Control_c, 0, 64, 105
1, 768198, Control_c, 0, 64, 119
1, 768207, Note_off_c, 0, 73, 50
1, 768213, Control_c, 0, 64, 127
1, 768346, Note_on_c, 0, 56, 44
1, 768346, Control_c, 0, 67, 119
1, 768361, Control_c, 0, 67, 96
1, 768376, Control_c, 0, 67, 61
1, 768391, Control_c, 0, 67, 24
1, 768395, Note_off_c, 0, 68, 52
1, 768406, Control_c, 0, 67, 0
1, 768516, Control_c, 0, 67, 23
1, 768531, Control_c, 0, 67, 26
1, 768546, Control_c, 0, 67, 32
1, 768560, Control_c, 0, 67, 39
1, 768575, Control_c, 0, 67, 50
1, 768590, Control_c, 0, 67, 64
1, 768604, Note_on_c, 0, 61, 33
1, 768604, Control_c, 0, 67, 77
1, 768619, Control_c, 0, 67, 88
1, 768630, Note_off_c, 0, 56, 36
1, 768634, Control_c, 0, 67, 100
1, 768649, Control_c, 0, 67, 112
1, 768664, Control_c, 0, 67, 122
1, 768678, Control_c, 0, 67, 127
1, 768738, Note_on_c, 0, 73, 46
1, 768783, Note_off_c, 0, 73, 60
1, 768881, Note_off_c, 0, 61, 39
1, 768901, Note_on_c, 0, 73, 52
1, 768916, Note_on_c, 0, 56, 30
1, 768928, Note_off_c, 0, 73, 61
1, 769018, Note_on_c, 0, 73, 53
1, 769048, Note_off_c, 0, 73, 59
1, 769098, Note_on_c, 0, 61, 36
1, 769148, Note_on_c, 0, 73, 56
1, 769239, Note_off_c, 0, 61, 36
1, 769347, Note_off_c, 0, 56, 36
1, 769369, Note_on_c, 0, 49, 36
1, 769405, Note_off_c, 0, 49, 50
1, 769553, Note_off_c, 0, 73, 38
1, 769568, Note_on_c, 0, 71, 46
1, 769590, Control_c, 0, 64, 108
1, 769605, Control_c, 0, 64, 83
1, 769620, Control_c, 0, 64, 67
1, 769628, Note_on_c, 0, 42, 39
1, 769634, Note_off_c, 0, 71, 50
1, 769635, Control_c, 0, 64, 56
1, 769647, Note_on_c, 0, 69, 45
1, 769650, Control_c, 0, 64, 53
1, 769665, Control_c, 0, 64, 56
1, 769680, Control_c, 0, 64, 59
1, 769695, Control_c, 0, 64, 63
1, 769710, Control_c, 0, 64, 67
1, 769724, Control_c, 0, 64, 75
1, 769739, Control_c, 0, 64, 85
1, 769745, Note_off_c, 0, 42, 57
1, 769754, Control_c, 0, 64, 95
1, 769754, Control_c, 0, 67, 113
1, 769769, Control_c, 0, 64, 100
1, 769769, Control_c, 0, 67, 81
1, 769784, Control_c, 0, 64, 104
1, 769784, Control_c, 0, 67, 55
1, 769799, Control_c, 0, 64, 110
1, 769799, Control_c, 0, 67, 31
1, 769814, Control_c, 0, 64, 127
1, 769814, Control_c, 0, 67, 0
1, 769937, Note_on_c, 0, 57, 36
1, 769963, Note_on_c, 0, 68, 54
1, 769991, Note_off_c, 0, 69, 36
1, 770179, Note_off_c, 0, 57, 41
1, 770180, Note_on_c, 0, 69, 61
1, 770207, Note_on_c, 0, 61, 30
1, 770237, Note_off_c, 0, 68, 37
1, 770377, Note_off_c, 0, 61, 39
1, 770382, Note_on_c, 0, 73, 67
1, 770389, Note_on_c, 0, 57, 35
1, 770398, Note_off_c, 0, 69, 61
1, 770548, Control_c, 0, 64, 105
1, 770563, Control_c, 0, 64, 79
1, 770578, Control_c, 0, 64, 63
1, 770593, Control_c, 0, 64, 43
1, 770608, Control_c, 0, 64, 40
1, 770609, Note_on_c, 0, 61, 39
1, 770622, Control_c, 0, 64, 50
1, 770631, Note_on_c, 0, 78, 68
1, 770637, Control_c, 0, 64, 57
1, 770652, Control_c, 0, 64, 63
1, 770652, Control_c, 0, 67, 22
1, 770664, Note_on_c, 0, 69, 32
1, 770666, Control_c, 0, 64, 68
1, 770666, Control_c, 0, 67, 28
1, 770680, Control_c, 0, 64, 78
1, 770680, Control_c, 0, 67, 37
1, 770695, Control_c, 0, 64, 95
1, 770695, Control_c, 0, 67, 49
1, 770710, Control_c, 0, 64, 118
1, 770710, Control_c, 0, 67, 65
1, 770723, Note_off_c, 0, 73, 38
1, 770730, Note_off_c, 0, 61, 37
1, 770732, Control_c, 0, 64, 127
1, 770732, Control_c, 0, 67, 82
1, 770747, Control_c, 0, 67, 98
1, 770762, Control_c, 0, 67, 114
1, 770777, Control_c, 0, 67, 127
1, 770793, Note_off_c, 0, 69, 36
1, 770809, Note_off_c, 0, 57, 42
1, 770824, Note_on_c, 0, 49, 43
1, 770857, Note_off_c, 0, 49, 55
1, 771056, Note_on_c, 0, 41, 44
1, 771072, Control_c, 0, 64, 100
1, 771087, Control_c, 0, 64, 70
1, 771102, Control_c, 0, 64, 54
1, 771110, Note_off_c, 0, 78, 39
1, 771117, Control_c, 0, 64, 42
1, 771132, Control_c, 0, 64, 47
1, 771146, Control_c, 0, 64, 53
1, 771156, Note_on_c, 0, 68, 60
1, 771161, Control_c, 0, 64, 58
1, 771176, Control_c, 0, 64, 62
1, 771191, Control_c, 0, 64, 67
1, 771206, Control_c, 0, 64, 75
1, 771213, Note_off_c, 0, 41, 56
1, 771221, Control_c, 0, 64, 87
1, 771236, Control_c, 0, 64, 100
1, 771251, Control_c, 0, 64, 111
1, 771265, Control_c, 0, 64, 127
1, 771405, Note_off_c, 0, 68, 48
1, 771406, Note_on_c, 0, 56, 38
1, 771661, Note_on_c, 0, 61, 32
1, 771661, Note_off_c, 0, 56, 31
1, 771765, Note_on_c, 0, 73, 44
1, 771805, Note_off_c, 0, 73, 57
1, 771912, Note_on_c, 0, 73, 56
1, 771920, Note_off_c, 0, 61, 37
1, 771951, Note_on_c, 0, 56, 27
1, 771954, Note_off_c, 0, 73, 56
1, 772069, Note_on_c, 0, 73, 48
1, 772102, Note_off_c, 0, 73, 56
1, 772118, Note_on_c, 0, 61, 33
1, 772195, Note_on_c, 0, 73, 60
1, 772267, Note_off_c, 0, 61, 32
1, 772305, Control_c, 0, 67, 125
1, 772319, Control_c, 0, 67, 105
1, 772334, Control_c, 0, 67, 85
1, 772349, Control_c, 0, 67, 66
1, 772364, Control_c, 0, 67, 50
1, 772378, Control_c, 0, 67, 37
1, 772393, Control_c, 0, 67, 25
1, 772398, Note_off_c, 0, 56, 35
1, 772408, Control_c, 0, 67, 0
1, 772413, Note_on_c, 0, 49, 36
1, 772448, Note_off_c, 0, 49, 51
1, 772702, Note_on_c, 0, 42, 40
1, 772763, Control_c, 0, 64, 110
1, 772778, Control_c, 0, 64, 76
1, 772793, Control_c, 0, 64, 61
1, 772808, Control_c, 0, 64, 48
1, 772823, Control_c, 0, 64, 51
1, 772836, Note_on_c, 0, 71, 65
1, 772837, Control_c, 0, 64, 56
1, 772847, Note_off_c, 0, 73, 55
1, 772852, Control_c, 0, 64, 61
1, 772867, Control_c, 0, 64, 66
1, 772882, Control_c, 0, 64, 78
1, 772898, Control_c, 0, 64, 95
1, 772913, Control_c, 0, 64, 127
1, 772926, Note_off_c, 0, 42, 50
1, 773118, Note_on_c, 0, 59, 40
1, 773394, Note_on_c, 0, 62, 36
1, 773420, Note_off_c, 0, 59, 37
1, 773508, Note_on_c, 0, 78, 53
1, 773687, Note_off_c, 0, 62, 40
1, 773709, Note_off_c, 0, 78, 54
1, 773720, Note_on_c, 0, 59, 26
1, 773722, Note_on_c, 0, 80, 55
1, 773876, Note_on_c, 0, 78, 54
1, 773918, Note_off_c, 0, 78, 56
1, 773974, Note_off_c, 0, 59, 41
1, 774009, Note_on_c, 0, 62, 31
1, 774048, Note_on_c, 0, 78, 48
1, 774062, Note_off_c, 0, 80, 42
1, 774152, Note_off_c, 0, 71, 36
1, 774172, Control_c, 0, 67, 20
1, 774187, Control_c, 0, 67, 22
1, 774200, Note_off_c, 0, 62, 38
1, 774202, Control_c, 0, 67, 25
1, 774217, Control_c, 0, 67, 29
1, 774231, Control_c, 0, 67, 34
1, 774246, Control_c, 0, 67, 44
1, 774261, Control_c, 0, 67, 55
1, 774276, Control_c, 0, 67, 68
1, 774278, Note_on_c, 0, 50, 44
1, 774291, Control_c, 0, 67, 83
1, 774306, Control_c, 0, 67, 101
1, 774317, Note_off_c, 0, 50, 62
1, 774321, Control_c, 0, 67, 118
1, 774336, Control_c, 0, 67, 127
1, 774454, Control_c, 0, 64, 115
1, 774476, Control_c, 0, 64, 77
1, 774492, Control_c, 0, 64, 61
1, 774506, Note_on_c, 0, 42, 33
1, 774507, Control_c, 0, 64, 47
1, 774521, Control_c, 0, 64, 51
1, 774528, Note_off_c, 0, 78, 52
1, 774536, Control_c, 0, 64, 58
1, 774541, Note_on_c, 0, 69, 63
1, 774551, Control_c, 0, 64, 63
1, 774565, Control_c, 0, 64, 71
1, 774575, Note_off_c, 0, 42, 62
1, 774580, Control_c, 0, 64, 86
1, 774595, Control_c, 0, 64, 111
1, 774610, Control_c, 0, 64, 127
1, 774655, Control_c, 0, 67, 116
1, 774670, Control_c, 0, 67, 90
1, 774685, Control_c, 0, 67, 62
1, 774699, Control_c, 0, 67, 36
1, 774714, Control_c, 0, 67, 0
1, 774762, Note_on_c, 0, 57, 28
1, 775014, Note_on_c, 0, 61, 28
1, 775048, Note_off_c, 0, 57, 35
1, 775063, Note_on_c, 0, 78, 43
1, 775230, Note_on_c, 0, 80, 46
1, 775231, Note_off_c, 0, 78, 39
1, 775271, Note_off_c, 0, 61, 39
1, 775290, Note_on_c, 0, 57, 33
1, 775346, Note_on_c, 0, 78, 54
1, 775397, Note_off_c, 0, 78, 51
1, 775486, Note_on_c, 0, 61, 34
1, 775504, Note_off_c, 0, 80, 43
1, 775510, Note_on_c, 0, 78, 55
1, 775587, Note_off_c, 0, 61, 45
1, 775667, Note_off_c, 0, 57, 42
1, 775674, Note_off_c, 0, 69, 49
1, 775716, Note_on_c, 0, 49, 45
1, 775748, Note_off_c, 0, 49, 55
1, 775923, Note_off_c, 0, 78, 50
1, 775940, Note_on_c, 0, 37, 45
1, 775974, Control_c, 0, 64, 81
1, 775988, Control_c, 0, 64, 62
1, 776003, Control_c, 0, 64, 42
1, 776009, Note_on_c, 0, 77, 67
1, 776016, Note_on_c, 0, 68, 61
1, 776018, Control_c, 0, 64, 45
1, 776021, Note_on_c, 0, 73, 49
1, 776033, Control_c, 0, 64, 55
1, 776048, Control_c, 0, 64, 61
1, 776062, Control_c, 0, 64, 69
1, 776074, Note_off_c, 0, 37, 56
1, 776077, Control_c, 0, 64, 88
1, 776093, Control_c, 0, 64, 127
1, 776138, Note_off_c, 0, 68, 55
1, 776190, Note_off_c, 0, 77, 57
1, 776196, Note_off_c, 0, 73, 59
1, 776232, Note_on_c, 0, 56, 52
1, 776438, Note_on_c, 0, 61, 46
1, 776500, Note_on_c, 0, 77, 56
1, 776502, Note_on_c, 0, 68, 52
1, 776518, Note_on_c, 0, 73, 40
1, 776570, Note_off_c, 0, 68, 57
1, 776573, Note_off_c, 0, 77, 61
1, 776574, Note_off_c, 0, 73, 51
1, 776619, Note_off_c, 0, 61, 37
1, 776643, Note_on_c, 0, 78, 77
1, 776654, Note_on_c, 0, 69, 59
1, 776672, Note_on_c, 0, 73, 45
1, 776679, Note_on_c, 0, 53, 50
1, 776684, Note_off_c, 0, 69, 63
1, 776696, Note_off_c, 0, 78, 58
1, 776723, Note_off_c, 0, 73, 61
1, 776768, Note_on_c, 0, 80, 81
1, 776772, Note_on_c, 0, 71, 70
1, 776800, Note_off_c, 0, 71, 63
1, 776825, Note_off_c, 0, 80, 58
1, 776870, Note_off_c, 0, 53, 55
1, 776901, Note_on_c, 0, 61, 61
1, 776902, Control_c, 0, 64, 84
1, 776908, Note_on_c, 0, 77, 81
1, 776916, Control_c, 0, 64, 64
1, 776924, Note_on_c, 0, 68, 57
1, 776928, Note_on_c, 0, 73, 58
1, 776931, Control_c, 0, 64, 43
1, 776946, Control_c, 0, 64, 39
1, 776960, Control_c, 0, 64, 49
1, 776975, Control_c, 0, 64, 59
1, 776990, Control_c, 0, 64, 65
1, 777005, Control_c, 0, 64, 77
1, 777020, Control_c, 0, 64, 107
1, 777031, Note_off_c, 0, 68, 40
1, 777035, Control_c, 0, 64, 127
1, 777042, Note_off_c, 0, 61, 51
1, 777090, Note_off_c, 0, 73, 60
1, 777102, Note_off_c, 0, 77, 62
1, 777117, Note_on_c, 0, 49, 64
1, 777124, Note_off_c, 0, 56, 59
1, 777145, Note_off_c, 0, 49, 65
1, 777329, Note_on_c, 0, 42, 54
1, 777360, Control_c, 0, 64, 81
1, 777373, Note_on_c, 0, 81, 87
1, 777375, Control_c, 0, 64, 63
1, 777383, Note_on_c, 0, 73, 50
1, 777390, Control_c, 0, 64, 48
1, 777405, Control_c, 0, 64, 51
1, 777406, Note_on_c, 0, 78, 47
1, 777421, Control_c, 0, 64, 59
1, 777434, Note_off_c, 0, 42, 63
1, 777435, Control_c, 0, 64, 65
1, 777450, Control_c, 0, 64, 72
1, 777472, Control_c, 0, 64, 88
1, 777487, Control_c, 0, 64, 127
1, 777648, Note_on_c, 0, 57, 32
1, 777923, Note_off_c, 0, 57, 15
1, 777955, Note_on_c, 0, 61, 32
1, 778016, Note_on_c, 0, 85, 72
1, 778161, Note_off_c, 0, 73, 42
1, 778279, Note_off_c, 0, 61, 38
1, 778324, Note_on_c, 0, 57, 33
1, 778327, Note_off_c, 0, 85, 58
1, 778397, Note_off_c, 0, 81, 56
1, 778400, Note_off_c, 0, 78, 35
1, 778535, Note_on_c, 0, 61, 41
1, 778563, Control_c, 0, 67, 21
1, 778578, Control_c, 0, 67, 24
1, 778593, Control_c, 0, 67, 27
1, 778607, Control_c, 0, 67, 32
1, 778622, Control_c, 0, 67, 44
1, 778637, Control_c, 0, 67, 61
1, 778652, Control_c, 0, 67, 76
1, 778661, Note_off_c, 0, 61, 37
1, 778667, Control_c, 0, 67, 87
1, 778681, Control_c, 0, 67, 96
1, 778696, Control_c, 0, 67, 104
1, 778711, Control_c, 0, 67, 110
1, 778726, Control_c, 0, 67, 113
1, 778755, Control_c, 0, 67, 116
1, 778767, Note_off_c, 0, 57, 41
1, 778770, Control_c, 0, 67, 120
1, 778785, Control_c, 0, 67, 125
1, 778800, Control_c, 0, 67, 127
1, 778809, Note_on_c, 0, 49, 33
1, 778853, Note_off_c, 0, 49, 59
1, 779162, Note_on_c, 0, 37, 34
1, 779192, Control_c, 0, 64, 94
1, 779206, Control_c, 0, 64, 72
1, 779221, Control_c, 0, 64, 55
1, 779236, Control_c, 0, 64, 35
1, 779251, Control_c, 0, 64, 39
1, 779264, Note_on_c, 0, 73, 42
1, 779265, Note_on_c, 0, 65, 44
1, 779265, Control_c, 0, 64, 49
1, 779272, Note_on_c, 0, 68, 33
1, 779281, Control_c, 0, 64, 57
1, 779296, Control_c, 0, 64, 65
1, 779311, Control_c, 0, 64, 72
1, 779318, Note_off_c, 0, 37, 56
1, 779326, Control_c, 0, 64, 82
1, 779341, Control_c, 0, 64, 92
1, 779355, Control_c, 0, 64, 97
1, 779370, Control_c, 0, 64, 99
1, 779385, Control_c, 0, 64, 101
1, 779400, Control_c, 0, 64, 103
1, 779415, Control_c, 0, 64, 107
1, 779429, Control_c, 0, 64, 112
1, 779444, Control_c, 0, 64, 117
1, 779459, Control_c, 0, 64, 125
1, 779474, Control_c, 0, 64, 127
1, 779517, Note_on_c, 0, 56, 46
1, 779539, Note_off_c, 0, 65, 36
1, 779578, Note_off_c, 0, 68, 37
1, 779605, Note_off_c, 0, 73, 35
1, 779790, Note_on_c, 0, 61, 23
1, 779852, Note_on_c, 0, 65, 45
1, 779871, Note_on_c, 0, 73, 29
1, 779882, Note_off_c, 0, 65, 57
1, 779894, Note_on_c, 0, 68, 28
1, 779913, Note_off_c, 0, 73, 49
1, 779948, Note_off_c, 0, 68, 44
1, 780020, Note_on_c, 0, 73, 51
1, 780034, Note_off_c, 0, 61, 36
1, 780035, Note_on_c, 0, 66, 43
1, 780059, Note_on_c, 0, 69, 43
1, 780074, Note_on_c, 0, 53, 30
1, 780095, Note_off_c, 0, 66, 45
1, 780095, Note_off_c, 0, 73, 47
1, 780104, Note_off_c, 0, 69, 54
1, 780182, Note_on_c, 0, 73, 39
1, 780200, Note_on_c, 0, 71, 44
1, 780226, Note_on_c, 0, 68, 17
1, 780232, Note_off_c, 0, 73, 51
1, 780244, Note_off_c, 0, 71, 47
1, 780278, Note_off_c, 0, 68, 46
1, 780294, Note_off_c, 0, 53, 39
1, 780312, Note_on_c, 0, 61, 33
1, 780327, Control_c, 0, 64, 125
1, 780342, Control_c, 0, 64, 90
1, 780356, Note_on_c, 0, 73, 48
1, 780357, Control_c, 0, 64, 70
1, 780372, Control_c, 0, 64, 56
1, 780373, Note_on_c, 0, 68, 33
1, 780374, Note_off_c, 0, 56, 41
1, 780377, Note_on_c, 0, 65, 42
1, 780386, Control_c, 0, 64, 44
1, 780401, Control_c, 0, 64, 47
1, 780416, Control_c, 0, 64, 54
1, 780431, Control_c, 0, 64, 58
1, 780446, Control_c, 0, 64, 63
1, 780468, Control_c, 0, 64, 69
1, 780482, Control_c, 0, 64, 78
1, 780497, Control_c, 0, 64, 88
1, 780512, Control_c, 0, 64, 95
1, 780527, Control_c, 0, 64, 98
1, 780542, Control_c, 0, 64, 101
1, 780557, Control_c, 0, 64, 105
1, 780572, Control_c, 0, 64, 110
1, 780586, Note_off_c, 0, 61, 31
1, 780586, Control_c, 0, 64, 113
1, 780591, Note_off_c, 0, 65, 36
1, 780601, Control_c, 0, 64, 120
1, 780616, Control_c, 0, 64, 127
1, 780629, Note_on_c, 0, 49, 37
1, 780629, Note_off_c, 0, 73, 34
1, 780664, Note_off_c, 0, 49, 57
1, 780864, Note_off_c, 0, 68, 42
1, 780898, Control_c, 0, 64, 92
1, 780913, Control_c, 0, 64, 73
1, 780919, Note_on_c, 0, 42, 34
1, 780927, Control_c, 0, 64, 61
1, 780942, Control_c, 0, 64, 51
1, 780951, Note_on_c, 0, 66, 39
1, 780955, Note_on_c, 0, 73, 29
1, 780957, Control_c, 0, 64, 53
1, 780964, Note_on_c, 0, 69, 31
1, 780972, Control_c, 0, 64, 56
1, 780987, Control_c, 0, 64, 60
1, 781001, Control_c, 0, 64, 63
1, 781010, Note_off_c, 0, 42, 59
1, 781016, Control_c, 0, 64, 68
1, 781031, Control_c, 0, 64, 74
1, 781046, Control_c, 0, 64, 83
1, 781061, Control_c, 0, 64, 87
1, 781076, Control_c, 0, 64, 90
1, 781091, Control_c, 0, 64, 92
1, 781105, Control_c, 0, 64, 95
1, 781120, Control_c, 0, 64, 99
1, 781135, Control_c, 0, 64, 102
1, 781150, Control_c, 0, 64, 108
1, 781165, Control_c, 0, 64, 117
1, 781180, Control_c, 0, 64, 127
1, 781294, Note_on_c, 0, 54, 33
1, 781542, Note_on_c, 0, 57, 18
1, 781623, Note_off_c, 0, 66, 38
1, 781624, Note_off_c, 0, 73, 37
1, 781736, Note_off_c, 0, 57, 40
1, 781779, Note_off_c, 0, 54, 41
1, 781781, Note_on_c, 0, 49, 33
1, 781785, Note_off_c, 0, 69, 40
1, 781982, Note_off_c, 0, 49, 39
1, 782027, Note_on_c, 0, 54, 34
1, 782248, Note_off_c, 0, 54, 38
1, 782301, Note_on_c, 0, 45, 36
1, 782460, Note_off_c, 0, 45, 36
1, 782758, Note_on_c, 0, 40, 27
1, 782772, Note_on_c, 0, 69, 44
1, 782789, Control_c, 0, 64, 105
1, 782804, Control_c, 0, 64, 82
1, 782819, Control_c, 0, 64, 67
1, 782833, Control_c, 0, 64, 54
1, 782848, Control_c, 0, 64, 49
1, 782863, Control_c, 0, 64, 52
1, 782878, Control_c, 0, 64, 57
1, 782893, Control_c, 0, 64, 60
1, 782907, Control_c, 0, 64, 64
1, 782922, Control_c, 0, 64, 68
1, 782937, Note_off_c, 0, 40, 58
1, 782937, Control_c, 0, 64, 75
1, 782952, Control_c, 0, 64, 82
1, 782967, Control_c, 0, 64, 87
1, 782981, Control_c, 0, 64, 88
1, 782996, Control_c, 0, 64, 90
1, 783011, Control_c, 0, 64, 93
1, 783025, Control_c, 0, 64, 94
1, 783115, Control_c, 0, 64, 94
1, 783129, Control_c, 0, 64, 91
1, 783144, Control_c, 0, 64, 88
1, 783159, Control_c, 0, 64, 85
1, 783174, Control_c, 0, 64, 83
1, 783189, Control_c, 0, 64, 80
1, 783204, Control_c, 0, 64, 77
1, 783219, Control_c, 0, 64, 75
1, 783233, Control_c, 0, 64, 73
1, 783248, Control_c, 0, 64, 72
1, 783278, Control_c, 0, 64, 72
1, 783293, Control_c, 0, 64, 71
1, 783338, Control_c, 0, 64, 71
1, 783353, Control_c, 0, 64, 69
1, 783362, Note_on_c, 0, 57, 24
1, 783368, Control_c, 0, 64, 66
1, 783383, Control_c, 0, 64, 63
1, 783397, Note_on_c, 0, 76, 49
1, 783397, Control_c, 0, 64, 57
1, 783411, Control_c, 0, 64, 52
1, 783426, Control_c, 0, 64, 51
1, 783441, Control_c, 0, 64, 52
1, 783463, Control_c, 0, 64, 52
1, 783478, Control_c, 0, 64, 53
1, 783493, Control_c, 0, 64, 56
1, 783508, Control_c, 0, 64, 59
1, 783523, Control_c, 0, 64, 62
1, 783537, Control_c, 0, 64, 65
1, 783552, Control_c, 0, 64, 69
1, 783567, Control_c, 0, 64, 74
1, 783582, Control_c, 0, 64, 82
1, 783582, Control_c, 0, 67, 125
1, 783597, Control_c, 0, 64, 89
1, 783611, Control_c, 0, 64, 95
1, 783626, Control_c, 0, 64, 104
1, 783641, Control_c, 0, 64, 118
1, 783655, Control_c, 0, 64, 127
1, 783877, Note_on_c, 0, 49, 28
1, 783981, Note_off_c, 0, 57, 42
1, 784026, Note_off_c, 0, 49, 37
1, 784351, Note_on_c, 0, 40, 20
1, 784360, Control_c, 0, 64, 114
1, 784372, Note_on_c, 0, 68, 44
1, 784375, Control_c, 0, 64, 91
1, 784390, Control_c, 0, 64, 75
1, 784404, Control_c, 0, 64, 63
1, 784411, Note_off_c, 0, 69, 45
1, 784419, Control_c, 0, 64, 52
1, 784434, Control_c, 0, 64, 51
1, 784449, Control_c, 0, 64, 56
1, 784464, Control_c, 0, 64, 60
1, 784478, Control_c, 0, 64, 64
1, 784487, Note_off_c, 0, 76, 42
1, 784493, Control_c, 0, 64, 69
1, 784508, Control_c, 0, 64, 76
1, 784511, Note_off_c, 0, 40, 58
1, 784523, Control_c, 0, 64, 84
1, 784538, Control_c, 0, 64, 90
1, 784552, Control_c, 0, 64, 93
1, 784567, Control_c, 0, 64, 96
1, 784582, Control_c, 0, 64, 98
1, 784597, Control_c, 0, 64, 100
1, 784611, Control_c, 0, 64, 103
1, 784626, Control_c, 0, 64, 107
1, 784641, Control_c, 0, 64, 109
1, 784715, Control_c, 0, 64, 111
1, 784864, Control_c, 0, 64, 107
1, 784879, Control_c, 0, 64, 101
1, 784894, Control_c, 0, 64, 96
1, 784909, Control_c, 0, 64, 92
1, 784924, Control_c, 0, 64, 87
1, 784926, Note_on_c, 0, 59, 32
1, 784939, Control_c, 0, 64, 78
1, 784939, Control_c, 0, 67, 127
1, 784961, Control_c, 0, 64, 69
1, 784964, Note_on_c, 0, 76, 45
1, 784975, Control_c, 0, 64, 61
1, 784990, Control_c, 0, 64, 51
1, 785005, Control_c, 0, 64, 48
1, 785034, Control_c, 0, 64, 48
1, 785049, Control_c, 0, 64, 49
1, 785064, Control_c, 0, 64, 53
1, 785079, Control_c, 0, 64, 58
1, 785094, Control_c, 0, 64, 63
1, 785109, Control_c, 0, 64, 69
1, 785124, Control_c, 0, 64, 75
1, 785139, Control_c, 0, 64, 83
1, 785153, Control_c, 0, 64, 87
1, 785168, Control_c, 0, 64, 89
1, 785183, Control_c, 0, 64, 92
1, 785198, Control_c, 0, 64, 95
1, 785213, Control_c, 0, 64, 97
1, 785242, Control_c, 0, 64, 100
1, 785257, Control_c, 0, 64, 103
1, 785272, Control_c, 0, 64, 106
1, 785301, Control_c, 0, 64, 108
1, 785331, Control_c, 0, 64, 111
1, 785346, Control_c, 0, 64, 113
1, 785378, Note_on_c, 0, 50, 38
1, 785419, Control_c, 0, 64, 116
1, 785445, Note_off_c, 0, 50, 57
1, 785451, Note_off_c, 0, 59, 40
1, 785742, Note_off_c, 0, 76, 37
1, 785743, Note_off_c, 0, 68, 42
1, 785783, Control_c, 0, 64, 112
1, 785785, Note_on_c, 0, 71, 38
1, 785797, Control_c, 0, 64, 108
1, 785812, Control_c, 0, 64, 99
1, 785827, Control_c, 0, 64, 84
1, 785842, Control_c, 0, 64, 71
1, 785854, Note_on_c, 0, 40, 20
1, 785854, Note_on_c, 0, 69, 45
1, 785857, Control_c, 0, 64, 60
1, 785857, Note_off_c, 0, 71, 37
1, 785872, Control_c, 0, 64, 47
1, 785887, Control_c, 0, 64, 45
1, 785902, Control_c, 0, 64, 50
1, 785917, Control_c, 0, 64, 55
1, 785931, Control_c, 0, 64, 59
1, 785946, Control_c, 0, 64, 63
1, 785961, Control_c, 0, 64, 68
1, 785976, Control_c, 0, 64, 76
1, 785991, Control_c, 0, 64, 84
1, 786000, Note_off_c, 0, 40, 54
1, 786005, Control_c, 0, 64, 89
1, 786020, Control_c, 0, 64, 92
1, 786035, Control_c, 0, 64, 95
1, 786049, Control_c, 0, 64, 98
1, 786064, Control_c, 0, 64, 101
1, 786079, Control_c, 0, 64, 104
1, 786094, Control_c, 0, 64, 106
1, 786103, Note_off_c, 0, 69, 58
1, 786109, Control_c, 0, 64, 108
1, 786123, Note_on_c, 0, 68, 48
1, 786123, Control_c, 0, 64, 111
1, 786316, Control_c, 0, 64, 108
1, 786331, Control_c, 0, 64, 102
1, 786346, Control_c, 0, 64, 97
1, 786361, Control_c, 0, 64, 91
1, 786375, Control_c, 0, 64, 86
1, 786379, Note_on_c, 0, 69, 42
1, 786381, Note_on_c, 0, 57, 27
1, 786385, Note_on_c, 0, 76, 45
1, 786390, Control_c, 0, 64, 81
1, 786398, Note_off_c, 0, 68, 34
1, 786405, Control_c, 0, 64, 74
1, 786420, Control_c, 0, 64, 68
1, 786435, Control_c, 0, 64, 59
1, 786456, Control_c, 0, 64, 47
1, 786472, Control_c, 0, 64, 36
1, 786487, Control_c, 0, 64, 0
1, 786517, Control_c, 0, 64, 33
1, 786532, Control_c, 0, 64, 39
1, 786546, Control_c, 0, 64, 49
1, 786561, Control_c, 0, 64, 59
1, 786576, Control_c, 0, 64, 65
1, 786591, Control_c, 0, 64, 70
1, 786605, Control_c, 0, 64, 76
1, 786614, Note_off_c, 0, 69, 55
1, 786615, Note_on_c, 0, 73, 52
1, 786620, Control_c, 0, 64, 78
1, 786635, Control_c, 0, 64, 79
1, 786680, Control_c, 0, 64, 79
1, 786695, Control_c, 0, 64, 80
1, 786769, Control_c, 0, 64, 79
1, 786784, Control_c, 0, 64, 75
1, 786798, Control_c, 0, 64, 68
1, 786813, Control_c, 0, 64, 61
1, 786828, Control_c, 0, 64, 49
1, 786840, Note_on_c, 0, 49, 22
1, 786843, Control_c, 0, 64, 41
1, 786858, Control_c, 0, 64, 40
1, 786862, Note_on_c, 0, 69, 43
1, 786868, Note_off_c, 0, 73, 37
1, 786870, Note_off_c, 0, 57, 40
1, 786872, Control_c, 0, 64, 43
1, 786887, Control_c, 0, 64, 50
1, 786902, Control_c, 0, 64, 56
1, 786917, Control_c, 0, 64, 62
1, 786932, Control_c, 0, 64, 68
1, 786946, Control_c, 0, 64, 74
1, 786961, Control_c, 0, 64, 82
1, 786976, Control_c, 0, 64, 88
1, 786990, Control_c, 0, 64, 93
1, 787003, Note_off_c, 0, 49, 53
1, 787005, Control_c, 0, 64, 100
1, 787020, Control_c, 0, 64, 109
1, 787035, Control_c, 0, 64, 127
1, 787351, Note_on_c, 0, 40, 24
1, 787368, Note_on_c, 0, 68, 45
1, 787369, Control_c, 0, 64, 108
1, 787384, Control_c, 0, 64, 87
1, 787399, Control_c, 0, 64, 72
1, 787414, Control_c, 0, 64, 60
1, 787428, Control_c, 0, 64, 46
1, 787432, Note_off_c, 0, 76, 40
1, 787434, Note_off_c, 0, 69, 51
1, 787443, Control_c, 0, 64, 48
1, 787458, Control_c, 0, 64, 53
1, 787473, Control_c, 0, 64, 57
1, 787488, Control_c, 0, 64, 59
1, 787502, Control_c, 0, 64, 63
1, 787517, Control_c, 0, 64, 66
1, 787532, Control_c, 0, 64, 73
1, 787547, Control_c, 0, 64, 81
1, 787548, Note_off_c, 0, 40, 54
1, 787562, Control_c, 0, 64, 86
1, 787577, Control_c, 0, 64, 88
1, 787592, Control_c, 0, 64, 90
1, 787607, Control_c, 0, 64, 92
1, 787621, Control_c, 0, 64, 94
1, 787636, Control_c, 0, 64, 95
1, 787666, Control_c, 0, 64, 96
1, 787769, Control_c, 0, 64, 95
1, 787784, Control_c, 0, 64, 92
1, 787799, Control_c, 0, 64, 90
1, 787813, Control_c, 0, 64, 87
1, 787828, Control_c, 0, 64, 82
1, 787843, Control_c, 0, 64, 78
1, 787858, Control_c, 0, 64, 74
1, 787873, Control_c, 0, 64, 69
1, 787887, Control_c, 0, 64, 65
1, 787903, Control_c, 0, 64, 61
1, 787916, Note_on_c, 0, 59, 17
1, 787918, Control_c, 0, 64, 57
1, 787933, Control_c, 0, 64, 54
1, 787948, Note_on_c, 0, 76, 28
1, 787955, Control_c, 0, 64, 51
1, 787970, Control_c, 0, 64, 46
1, 787985, Control_c, 0, 64, 40
1, 788000, Control_c, 0, 64, 39
1, 788015, Control_c, 0, 64, 43
1, 788029, Control_c, 0, 64, 50
1, 788044, Control_c, 0, 64, 53
1, 788059, Control_c, 0, 64, 58
1, 788075, Control_c, 0, 64, 64
1, 788090, Control_c, 0, 64, 70
1, 788105, Control_c, 0, 64, 78
1, 788119, Control_c, 0, 64, 85
1, 788134, Control_c, 0, 64, 91
1, 788149, Control_c, 0, 64, 95
1, 788164, Control_c, 0, 64, 101
1, 788178, Control_c, 0, 64, 106
1, 788193, Control_c, 0, 64, 115
1, 788208, Control_c, 0, 64, 127
1, 788394, Note_on_c, 0, 50, 36
1, 788483, Note_off_c, 0, 50, 51
1, 788491, Note_off_c, 0, 59, 39
1, 788514, Note_off_c, 0, 68, 35
1, 788823, Control_c, 0, 67, 125
1, 788927, Control_c, 0, 64, 98
1, 788927, Control_c, 0, 67, 123
1, 788929, Note_on_c, 0, 40, 25
1, 788942, Control_c, 0, 64, 84
1, 788957, Control_c, 0, 64, 72
1, 788957, Control_c, 0, 67, 121
1, 788958, Note_on_c, 0, 73, 61
1, 788972, Control_c, 0, 64, 62
1, 788987, Control_c, 0, 64, 50
1, 788987, Control_c, 0, 67, 117
1, 789001, Control_c, 0, 64, 42
1, 789001, Control_c, 0, 67, 115
1, 789016, Control_c, 0, 64, 44
1, 789016, Control_c, 0, 67, 106
1, 789023, Note_off_c, 0, 76, 56
1, 789031, Control_c, 0, 64, 48
1, 789031, Control_c, 0, 67, 92
1, 789046, Control_c, 0, 64, 52
1, 789046, Control_c, 0, 67, 77
1, 789060, Control_c, 0, 64, 56
1, 789060, Control_c, 0, 67, 60
1, 789075, Control_c, 0, 64, 61
1, 789075, Control_c, 0, 67, 43
1, 789090, Control_c, 0, 64, 66
1, 789090, Control_c, 0, 67, 27
1, 789105, Control_c, 0, 64, 71
1, 789105, Control_c, 0, 67, 0
1, 789120, Control_c, 0, 64, 78
1, 789135, Control_c, 0, 64, 85
1, 789149, Control_c, 0, 64, 87
1, 789156, Note_off_c, 0, 40, 39
1, 789164, Control_c, 0, 64, 89
1, 789179, Control_c, 0, 64, 90
1, 789193, Control_c, 0, 64, 90
1, 789208, Control_c, 0, 64, 91
1, 789223, Control_c, 0, 64, 92
1, 789238, Control_c, 0, 64, 94
1, 789253, Control_c, 0, 64, 95
1, 789267, Control_c, 0, 64, 95
1, 789371, Control_c, 0, 64, 95
1, 789400, Control_c, 0, 64, 94
1, 789415, Control_c, 0, 64, 91
1, 789430, Control_c, 0, 64, 89
1, 789452, Control_c, 0, 64, 87
1, 789467, Control_c, 0, 64, 85
1, 789482, Control_c, 0, 64, 84
1, 789497, Control_c, 0, 64, 81
1, 789512, Control_c, 0, 64, 78
1, 789526, Control_c, 0, 64, 71
1, 789541, Control_c, 0, 64, 64
1, 789547, Note_on_c, 0, 57, 28
1, 789556, Control_c, 0, 64, 55
1, 789560, Note_on_c, 0, 76, 54
1, 789571, Control_c, 0, 64, 43
1, 789586, Control_c, 0, 64, 35
1, 789600, Control_c, 0, 64, 0
1, 789660, Control_c, 0, 64, 34
1, 789676, Control_c, 0, 64, 43
1, 789690, Control_c, 0, 64, 51
1, 789705, Control_c, 0, 64, 57
1, 789720, Control_c, 0, 64, 63
1, 789735, Control_c, 0, 64, 67
1, 789750, Control_c, 0, 64, 73
1, 789764, Control_c, 0, 64, 78
1, 789779, Control_c, 0, 64, 82
1, 789794, Control_c, 0, 64, 85
1, 789809, Control_c, 0, 64, 90
1, 789823, Control_c, 0, 64, 98
1, 789835, Note_off_c, 0, 73, 57
1, 789838, Control_c, 0, 64, 108
1, 789853, Control_c, 0, 64, 127
1, 790058, Note_on_c, 0, 49, 39
1, 790078, Note_off_c, 0, 57, 40
1, 790154, Note_off_c, 0, 49, 54
1, 790527, Note_on_c, 0, 40, 25
1, 790558, Note_on_c, 0, 74, 77
1, 790558, Control_c, 0, 64, 107
1, 790563, Note_off_c, 0, 76, 61
1, 790573, Control_c, 0, 64, 86
1, 790588, Control_c, 0, 64, 71
1, 790603, Control_c, 0, 64, 59
1, 790617, Control_c, 0, 64, 39
1, 790632, Control_c, 0, 64, 35
1, 790647, Control_c, 0, 64, 41
1, 790662, Control_c, 0, 64, 51
1, 790677, Control_c, 0, 64, 56
1, 790692, Control_c, 0, 64, 61
1, 790707, Control_c, 0, 64, 66
1, 790721, Control_c, 0, 64, 75
1, 790736, Control_c, 0, 64, 84
1, 790751, Control_c, 0, 64, 90
1, 790756, Note_off_c, 0, 40, 40
1, 790765, Control_c, 0, 64, 94
1, 790780, Control_c, 0, 64, 98
1, 790795, Control_c, 0, 64, 105
1, 790810, Control_c, 0, 64, 119
1, 790825, Control_c, 0, 64, 127
1, 791039, Control_c, 0, 64, 120
1, 791054, Control_c, 0, 64, 107
1, 791069, Control_c, 0, 64, 97
1, 791084, Control_c, 0, 64, 89
1, 791098, Control_c, 0, 64, 83
1, 791113, Control_c, 0, 64, 78
1, 791118, Note_on_c, 0, 56, 35
1, 791128, Control_c, 0, 64, 74
1, 791130, Note_on_c, 0, 76, 57
1, 791143, Control_c, 0, 64, 69
1, 791158, Control_c, 0, 64, 63
1, 791172, Control_c, 0, 64, 55
1, 791187, Control_c, 0, 64, 45
1, 791202, Control_c, 0, 64, 38
1, 791217, Control_c, 0, 64, 37
1, 791232, Control_c, 0, 64, 38
1, 791246, Control_c, 0, 64, 41
1, 791262, Control_c, 0, 64, 48
1, 791277, Control_c, 0, 64, 56
1, 791292, Control_c, 0, 64, 62
1, 791307, Control_c, 0, 64, 69
1, 791322, Control_c, 0, 64, 80
1, 791336, Control_c, 0, 64, 93
1, 791351, Control_c, 0, 64, 110
1, 791366, Control_c, 0, 64, 127
1, 791539, Note_off_c, 0, 56, 39
1, 791581, Note_off_c, 0, 74, 63
1, 791647, Note_off_c, 0, 76, 59
1, 791652, Note_on_c, 0, 47, 42
1, 792346, Note_on_c, 0, 81, 59
1, 792352, Note_off_c, 0, 47, 42
1, 792362, Note_on_c, 0, 40, 29
1, 792365, Note_on_c, 0, 74, 41
1, 792397, Control_c, 0, 64, 109
1, 792411, Control_c, 0, 64, 80
1, 792426, Control_c, 0, 64, 65
1, 792448, Control_c, 0, 64, 50
1, 792463, Control_c, 0, 64, 46
1, 792478, Control_c, 0, 64, 51
1, 792492, Control_c, 0, 64, 56
1, 792507, Control_c, 0, 64, 61
1, 792522, Control_c, 0, 64, 67
1, 792537, Control_c, 0, 64, 75
1, 792552, Control_c, 0, 64, 85
1, 792567, Control_c, 0, 64, 95
1, 792582, Control_c, 0, 64, 101
1, 792587, Note_off_c, 0, 81, 59
1, 792597, Control_c, 0, 64, 107
1, 792598, Note_off_c, 0, 40, 38
1, 792611, Control_c, 0, 64, 118
1, 792626, Control_c, 0, 64, 127
1, 792656, Note_off_c, 0, 74, 51
1, 792747, Note_on_c, 0, 73, 60
1, 792775, Note_off_c, 0, 73, 57
1, 792850, Note_on_c, 0, 80, 70
1, 792861, Note_on_c, 0, 73, 64
1, 792864, Control_c, 0, 64, 100
1, 792872, Note_on_c, 0, 41, 42
1, 792879, Control_c, 0, 64, 75
1, 792892, Note_on_c, 0, 49, 25
1, 792894, Control_c, 0, 64, 59
1, 792908, Control_c, 0, 64, 0
1, 792938, Control_c, 0, 64, 33
1, 792953, Control_c, 0, 64, 46
1, 792967, Control_c, 0, 64, 57
1, 792982, Control_c, 0, 64, 64
1, 792997, Control_c, 0, 64, 70
1, 793012, Control_c, 0, 64, 80
1, 793027, Control_c, 0, 64, 88
1, 793041, Control_c, 0, 64, 93
1, 793047, Note_off_c, 0, 49, 47
1, 793056, Control_c, 0, 64, 97
1, 793071, Control_c, 0, 64, 104
1, 793086, Control_c, 0, 64, 127
1, 793131, Note_off_c, 0, 80, 37
1, 793133, Note_off_c, 0, 73, 50
1, 793233, Note_on_c, 0, 71, 54
1, 793260, Note_off_c, 0, 71, 58
1, 793339, Note_on_c, 0, 78, 72
1, 793346, Control_c, 0, 64, 113
1, 793351, Note_on_c, 0, 42, 45
1, 793352, Note_on_c, 0, 71, 65
1, 793358, Note_off_c, 0, 41, 39
1, 793360, Control_c, 0, 64, 80
1, 793365, Note_on_c, 0, 49, 38
1, 793375, Control_c, 0, 64, 63
1, 793390, Control_c, 0, 64, 45
1, 793405, Control_c, 0, 64, 47
1, 793420, Control_c, 0, 64, 54
1, 793434, Control_c, 0, 64, 59
1, 793449, Control_c, 0, 64, 64
1, 793464, Control_c, 0, 64, 72
1, 793479, Control_c, 0, 64, 85
1, 793494, Control_c, 0, 64, 106
1, 793501, Note_off_c, 0, 78, 55
1, 793509, Control_c, 0, 64, 127
1, 793518, Note_off_c, 0, 49, 38
1, 793663, Note_off_c, 0, 71, 57
1, 793704, Note_on_c, 0, 69, 59
1, 793735, Note_off_c, 0, 69, 67
1, 793813, Note_off_c, 0, 42, 42
1, 793873, Note_on_c, 0, 37, 39
1, 793894, Control_c, 0, 64, 108
1, 793908, Control_c, 0, 64, 78
1, 793917, Note_on_c, 0, 77, 60
1, 793923, Control_c, 0, 64, 63
1, 793946, Control_c, 0, 64, 42
1, 793957, Note_on_c, 0, 73, 45
1, 793961, Control_c, 0, 64, 0
1, 793968, Note_on_c, 0, 68, 40
1, 794005, Control_c, 0, 64, 47
1, 794020, Control_c, 0, 64, 57
1, 794035, Control_c, 0, 64, 64
1, 794050, Control_c, 0, 64, 71
1, 794064, Control_c, 0, 64, 80
1, 794079, Control_c, 0, 64, 88
1, 794094, Control_c, 0, 64, 93
1, 794108, Control_c, 0, 64, 98
1, 794120, Note_off_c, 0, 37, 40
1, 794123, Control_c, 0, 64, 105
1, 794138, Control_c, 0, 64, 118
1, 794153, Control_c, 0, 64, 127
1, 794331, Control_c, 0, 64, 122
1, 794346, Control_c, 0, 64, 110
1, 794361, Control_c, 0, 64, 102
1, 794376, Control_c, 0, 64, 97
1, 794390, Control_c, 0, 64, 92
1, 794405, Control_c, 0, 64, 86
1, 794420, Control_c, 0, 64, 81
1, 794434, Control_c, 0, 64, 76
1, 794449, Control_c, 0, 64, 72
1, 794466, Control_c, 0, 64, 67
1, 794480, Control_c, 0, 64, 63
1, 794494, Note_on_c, 0, 61, 43
1, 794495, Control_c, 0, 64, 57
1, 794510, Control_c, 0, 64, 50
1, 794525, Control_c, 0, 64, 44
1, 794539, Control_c, 0, 64, 36
1, 794554, Control_c, 0, 64, 0
1, 794628, Control_c, 0, 64, 33
1, 794643, Control_c, 0, 64, 45
1, 794658, Control_c, 0, 64, 56
1, 794680, Control_c, 0, 64, 64
1, 794695, Control_c, 0, 64, 70
1, 794710, Control_c, 0, 64, 79
1, 794725, Control_c, 0, 64, 90
1, 794739, Control_c, 0, 64, 103
1, 794754, Control_c, 0, 64, 127
1, 794957, Note_off_c, 0, 77, 37
1, 794970, Note_on_c, 0, 49, 58
1, 795016, Note_off_c, 0, 49, 64
1, 795038, Note_off_c, 0, 68, 41
1, 795038, Note_off_c, 0, 61, 61
1, 795102, Note_off_c, 0, 73, 56
1, 795259, Control_c, 0, 67, 20
1, 795274, Control_c, 0, 67, 24
1, 795288, Control_c, 0, 67, 30
1, 795303, Control_c, 0, 67, 32
1, 795503, Control_c, 0, 67, 30
1, 795572, Note_on_c, 0, 42, 63
1, 795584, Note_on_c, 0, 78, 93
1, 795593, Note_on_c, 0, 66, 81
1, 795599, Note_on_c, 0, 71, 72
1, 795608, Control_c, 0, 64, 86
1, 795622, Control_c, 0, 64, 66
1, 795622, Control_c, 0, 67, 28
1, 795637, Control_c, 0, 64, 41
1, 795652, Control_c, 0, 64, 0
1, 795652, Control_c, 0, 67, 26
1, 795681, Control_c, 0, 64, 37
1, 795681, Control_c, 0, 67, 24
1, 795696, Control_c, 0, 64, 57
1, 795696, Control_c, 0, 67, 22
1, 795711, Control_c, 0, 64, 65
1, 795711, Control_c, 0, 67, 19
1, 795726, Control_c, 0, 64, 73
1, 795726, Control_c, 0, 67, 0
1, 795741, Control_c, 0, 64, 80
1, 795755, Control_c, 0, 64, 86
1, 795757, Note_off_c, 0, 42, 39
1, 795770, Control_c, 0, 64, 90
1, 795785, Control_c, 0, 64, 96
1, 795800, Control_c, 0, 64, 105
1, 795815, Control_c, 0, 64, 127
1, 796156, Control_c, 0, 64, 111
1, 796171, Control_c, 0, 64, 100
1, 796193, Control_c, 0, 64, 90
1, 796208, Control_c, 0, 64, 79
1, 796219, Note_on_c, 0, 62, 75
1, 796223, Control_c, 0, 64, 71
1, 796238, Control_c, 0, 64, 64
1, 796253, Control_c, 0, 64, 55
1, 796267, Control_c, 0, 64, 47
1, 796282, Control_c, 0, 64, 42
1, 796297, Control_c, 0, 64, 33
1, 796311, Control_c, 0, 64, 0
1, 796475, Control_c, 0, 64, 41
1, 796490, Control_c, 0, 64, 58
1, 796504, Control_c, 0, 64, 66
1, 796519, Control_c, 0, 64, 71
1, 796534, Control_c, 0, 64, 76
1, 796549, Control_c, 0, 64, 83
1, 796564, Control_c, 0, 64, 92
1, 796574, Note_off_c, 0, 66, 61
1, 796578, Control_c, 0, 64, 105
1, 796593, Control_c, 0, 64, 127
1, 796645, Note_off_c, 0, 71, 62
1, 796677, Note_off_c, 0, 78, 62
1, 796707, Note_on_c, 0, 50, 74
1, 796756, Note_off_c, 0, 62, 61
1, 796809, Note_off_c, 0, 50, 62
1, 797247, Note_on_c, 0, 90, 91
1, 797250, Note_on_c, 0, 78, 93
1, 797251, Note_on_c, 0, 81, 88
1, 797258, Note_on_c, 0, 42, 107
1, 797283, Control_c, 0, 64, 87
1, 797294, Note_on_c, 0, 82, 23
1, 797298, Control_c, 0, 64, 58
1, 797313, Control_c, 0, 64, 0
1, 797337, Note_off_c, 0, 82, 29
1, 797357, Control_c, 0, 64, 55
1, 797361, Note_off_c, 0, 42, 58
1, 797372, Control_c, 0, 64, 67
1, 797387, Control_c, 0, 64, 76
1, 797401, Control_c, 0, 64, 91
1, 797416, Control_c, 0, 64, 109
1, 797431, Control_c, 0, 64, 127
1, 797765, Control_c, 0, 64, 101
1, 797780, Control_c, 0, 64, 88
1, 797795, Control_c, 0, 64, 75
1, 797810, Control_c, 0, 64, 65
1, 797825, Control_c, 0, 64, 55
1, 797839, Control_c, 0, 64, 42
1, 797854, Control_c, 0, 64, 0
1, 797868, Note_on_c, 0, 61, 88
1, 797943, Control_c, 0, 64, 46
1, 797957, Control_c, 0, 64, 63
1, 797972, Control_c, 0, 64, 74
1, 797987, Control_c, 0, 64, 93
1, 798002, Control_c, 0, 64, 127
1, 798358, Note_off_c, 0, 90, 56
1, 798360, Note_on_c, 0, 49, 79
1, 798412, Note_off_c, 0, 61, 61
1, 798443, Note_off_c, 0, 49, 60
1, 798469, Note_off_c, 0, 81, 49
1, 798523, Note_off_c, 0, 78, 51
1, 799028, Note_on_c, 0, 37, 68
1, 799051, Note_on_c, 0, 86, 94
1, 799060, Note_on_c, 0, 77, 74
1, 799061, Note_on_c, 0, 80, 79
1, 799077, Control_c, 0, 64, 102
1, 799092, Control_c, 0, 64, 70
1, 799106, Control_c, 0, 64, 53
1, 799121, Control_c, 0, 64, 48
1, 799135, Control_c, 0, 64, 57
1, 799150, Control_c, 0, 64, 64
1, 799165, Control_c, 0, 64, 75
1, 799178, Note_off_c, 0, 80, 58
1, 799187, Control_c, 0, 64, 106
1, 799191, Note_off_c, 0, 37, 49
1, 799202, Control_c, 0, 64, 127
1, 799253, Note_off_c, 0, 77, 61
1, 799345, Note_on_c, 0, 85, 79
1, 799364, Note_on_c, 0, 80, 65
1, 799367, Note_on_c, 0, 77, 44
1, 799460, Note_off_c, 0, 77, 38
1, 799468, Note_off_c, 0, 80, 37
1, 799507, Note_off_c, 0, 86, 58
1, 799533, Note_on_c, 0, 83, 84
1, 799539, Note_on_c, 0, 80, 70
1, 799549, Note_on_c, 0, 77, 65
1, 799575, Note_off_c, 0, 85, 60
1, 799600, Note_off_c, 0, 83, 62
1, 799605, Note_off_c, 0, 80, 58
1, 799615, Note_off_c, 0, 77, 64
1, 799676, Note_on_c, 0, 61, 53
1, 799691, Control_c, 0, 64, 102
1, 799706, Control_c, 0, 64, 75
1, 799710, Note_on_c, 0, 83, 85
1, 799718, Note_on_c, 0, 74, 75
1, 799721, Control_c, 0, 64, 61
1, 799736, Note_on_c, 0, 77, 54
1, 799736, Control_c, 0, 64, 54
1, 799751, Control_c, 0, 64, 60
1, 799761, Note_off_c, 0, 74, 52
1, 799766, Control_c, 0, 64, 65
1, 799775, Note_off_c, 0, 77, 59
1, 799781, Control_c, 0, 64, 77
1, 799795, Control_c, 0, 64, 100
1, 799810, Control_c, 0, 64, 127
1, 799878, Note_on_c, 0, 81, 81
1, 799881, Note_on_c, 0, 77, 65
1, 799890, Note_on_c, 0, 74, 67
1, 799927, Note_off_c, 0, 74, 65
1, 799954, Note_off_c, 0, 77, 60
1, 799966, Note_off_c, 0, 83, 50
1, 799974, Note_off_c, 0, 81, 61
1, 800016, Note_on_c, 0, 80, 76
1, 800017, Note_on_c, 0, 74, 79
1, 800053, Note_off_c, 0, 74, 61
1, 800064, Note_off_c, 0, 80, 58
1, 800094, Poly_aftertouch_c, 0, 81, 0
1, 800117, Note_off_c, 0, 61, 36
1, 800144, Control_c, 0, 64, 105
1, 800158, Control_c, 0, 64, 75
1, 800165, Note_on_c, 0, 49, 45
1, 800173, Control_c, 0, 64, 57
1, 800176, Note_on_c, 0, 80, 80
1, 800185, Note_on_c, 0, 71, 62
1, 800188, Control_c, 0, 64, 47
1, 800198, Note_on_c, 0, 74, 54
1, 800203, Control_c, 0, 64, 56
1, 800218, Control_c, 0, 64, 63
1, 800220, Note_off_c, 0, 71, 60
1, 800232, Control_c, 0, 64, 70
1, 800244, Note_off_c, 0, 74, 59
1, 800247, Control_c, 0, 64, 81
1, 800262, Control_c, 0, 64, 95
1, 800276, Control_c, 0, 64, 115
1, 800291, Control_c, 0, 64, 127
1, 800323, Note_on_c, 0, 78, 80
1, 800333, Note_on_c, 0, 71, 59
1, 800336, Note_on_c, 0, 74, 76
1, 800353, Note_off_c, 0, 80, 0
1, 800353, Note_on_c, 0, 80, 4
1, 800368, Note_off_c, 0, 71, 57
1, 800410, Note_off_c, 0, 74, 57
1, 800415, Note_off_c, 0, 80, 51
1, 800425, Control_c, 0, 64, 89
1, 800436, Note_off_c, 0, 78, 61
1, 800440, Control_c, 0, 64, 68
1, 800454, Control_c, 0, 64, 59
1, 800469, Control_c, 0, 64, 62
1, 800479, Note_on_c, 0, 77, 77
1, 800484, Control_c, 0, 64, 67
1, 800484, Control_c, 0, 67, 23
1, 800485, Note_on_c, 0, 74, 64
1, 800490, Note_on_c, 0, 71, 59
1, 800499, Control_c, 0, 64, 77
1, 800499, Control_c, 0, 67, 29
1, 800514, Control_c, 0, 64, 93
1, 800514, Control_c, 0, 67, 37
1, 800529, Control_c, 0, 64, 119
1, 800529, Control_c, 0, 67, 52
1, 800532, Note_off_c, 0, 74, 58
1, 800535, Note_off_c, 0, 49, 43
1, 800541, Note_off_c, 0, 71, 58
1, 800543, Control_c, 0, 64, 127
1, 800543, Control_c, 0, 67, 66
1, 800558, Control_c, 0, 67, 78
1, 800573, Note_off_c, 0, 77, 60
1, 800573, Control_c, 0, 67, 87
1, 800588, Control_c, 0, 67, 95
1, 800602, Control_c, 0, 67, 103
1, 800617, Control_c, 0, 67, 111
1, 800633, Control_c, 0, 67, 120
1, 800648, Control_c, 0, 64, 125
1, 800648, Control_c, 0, 67, 127
1, 800663, Control_c, 0, 64, 97
1, 800675, Note_on_c, 0, 54, 52
1, 800684, Control_c, 0, 64, 78
1, 800696, Note_on_c, 0, 78, 67
1, 800699, Control_c, 0, 64, 67
1, 800704, Note_on_c, 0, 69, 52
1, 800713, Note_on_c, 0, 73, 49
1, 800714, Control_c, 0, 64, 56
1, 800724, Note_off_c, 0, 54, 59
1, 800729, Control_c, 0, 64, 43
1, 800744, Control_c, 0, 64, 36
1, 800759, Control_c, 0, 64, 36
1, 800773, Control_c, 0, 64, 35
1, 800788, Control_c, 0, 64, 34
1, 800803, Control_c, 0, 64, 0
1, 800863, Note_on_c, 0, 50, 64
1, 800930, Note_off_c, 0, 50, 56
1, 801024, Note_on_c, 0, 49, 74
1, 801063, Note_off_c, 0, 49, 63
1, 801167, Note_on_c, 0, 47, 72
1, 801225, Note_off_c, 0, 47, 60
1, 801313, Note_on_c, 0, 45, 74
1, 801370, Note_off_c, 0, 45, 57
1, 801466, Note_on_c, 0, 44, 65
1, 801527, Note_off_c, 0, 44, 60
1, 801628, Note_on_c, 0, 42, 50
1, 801718, Note_off_c, 0, 42, 62
1, 801817, Note_on_c, 0, 37, 50
1, 801884, Note_off_c, 0, 37, 53
1, 801997, Control_c, 0, 64, 47
1, 802012, Control_c, 0, 64, 60
1, 802022, Note_on_c, 0, 33, 44
1, 802027, Control_c, 0, 64, 65
1, 802041, Control_c, 0, 64, 68
1, 802056, Control_c, 0, 64, 72
1, 802071, Control_c, 0, 64, 77
1, 802086, Control_c, 0, 64, 81
1, 802091, Note_off_c, 0, 33, 55
1, 802101, Control_c, 0, 64, 85
1, 802115, Control_c, 0, 64, 90
1, 802130, Control_c, 0, 64, 94
1, 802145, Control_c, 0, 64, 98
1, 802160, Control_c, 0, 64, 103
1, 802177, Note_off_c, 0, 69, 40
1, 802182, Control_c, 0, 64, 107
1, 802330, Control_c, 0, 64, 104
1, 802345, Control_c, 0, 64, 96
1, 802360, Control_c, 0, 64, 84
1, 802369, Note_on_c, 0, 30, 34
1, 802374, Control_c, 0, 64, 71
1, 802389, Control_c, 0, 64, 61
1, 802404, Control_c, 0, 64, 43
1, 802410, Note_on_c, 0, 69, 54
1, 802419, Control_c, 0, 64, 0
1, 802428, Note_off_c, 0, 73, 40
1, 802466, Note_off_c, 0, 78, 33
1, 802479, Control_c, 0, 64, 40
1, 802494, Control_c, 0, 64, 48
1, 802509, Control_c, 0, 64, 58
1, 802524, Control_c, 0, 64, 65
1, 802539, Control_c, 0, 64, 69
1, 802553, Control_c, 0, 64, 73
1, 802568, Control_c, 0, 64, 77
1, 802583, Control_c, 0, 64, 79
1, 802596, Note_off_c, 0, 30, 51
1, 802598, Control_c, 0, 64, 81
1, 802613, Control_c, 0, 64, 82
1, 802628, Control_c, 0, 64, 83
1, 802642, Control_c, 0, 64, 83
1, 802717, Control_c, 0, 64, 83
1, 802732, Control_c, 0, 64, 81
1, 802746, Control_c, 0, 64, 77
1, 802761, Control_c, 0, 64, 71
1, 802776, Control_c, 0, 64, 62
1, 802790, Control_c, 0, 64, 48
1, 802805, Control_c, 0, 64, 0
1, 802850, Control_c, 0, 64, 36
1, 802864, Control_c, 0, 64, 45
1, 802880, Control_c, 0, 64, 54
1, 802895, Control_c, 0, 64, 61
1, 802910, Control_c, 0, 64, 65
1, 802932, Control_c, 0, 64, 70
1, 802946, Control_c, 0, 64, 73
1, 802961, Control_c, 0, 64, 75
1, 802976, Control_c, 0, 64, 78
1, 802991, Control_c, 0, 64, 81
1, 803006, Control_c, 0, 64, 86
1, 803021, Control_c, 0, 64, 90
1, 803036, Control_c, 0, 64, 93
1, 803051, Control_c, 0, 64, 96
1, 803066, Control_c, 0, 64, 98
1, 803095, Control_c, 0, 64, 102
1, 803110, Control_c, 0, 64, 105
1, 803125, Note_on_c, 0, 61, 37
1, 803125, Control_c, 0, 64, 109
1, 803140, Control_c, 0, 64, 116
1, 803144, Note_on_c, 0, 49, 27
1, 803154, Control_c, 0, 64, 127
1, 803315, Note_off_c, 0, 61, 38
1, 803340, Note_off_c, 0, 49, 41
1, 804527, Note_on_c, 0, 40, 28
1, 804528, Note_on_c, 0, 67, 40
1, 804577, Control_c, 0, 64, 110
1, 804592, Control_c, 0, 64, 87
1, 804607, Control_c, 0, 64, 71
1, 804615, Note_off_c, 0, 69, 32
1, 804622, Control_c, 0, 64, 57
1, 804637, Control_c, 0, 64, 0
1, 804681, Control_c, 0, 64, 40
1, 804696, Control_c, 0, 64, 48
1, 804711, Control_c, 0, 64, 56
1, 804725, Control_c, 0, 64, 62
1, 804740, Control_c, 0, 64, 66
1, 804747, Note_off_c, 0, 40, 44
1, 804755, Control_c, 0, 64, 70
1, 804769, Control_c, 0, 64, 72
1, 804784, Control_c, 0, 64, 73
1, 804874, Control_c, 0, 64, 73
1, 804889, Control_c, 0, 64, 71
1, 804904, Control_c, 0, 64, 68
1, 804919, Control_c, 0, 64, 65
1, 804933, Control_c, 0, 64, 61
1, 804948, Control_c, 0, 64, 57
1, 804963, Control_c, 0, 64, 54
1, 804978, Control_c, 0, 64, 52
1, 804992, Control_c, 0, 64, 51
1, 805007, Control_c, 0, 64, 48
1, 805022, Control_c, 0, 64, 45
1, 805037, Control_c, 0, 64, 44
1, 805052, Control_c, 0, 64, 46
1, 805066, Control_c, 0, 64, 49
1, 805081, Control_c, 0, 64, 52
1, 805096, Control_c, 0, 64, 56
1, 805111, Control_c, 0, 64, 60
1, 805126, Control_c, 0, 64, 64
1, 805126, Note_on_c, 0, 61, 35
1, 805140, Control_c, 0, 64, 68
1, 805155, Control_c, 0, 64, 73
1, 805165, Note_on_c, 0, 49, 13
1, 805178, Control_c, 0, 64, 78
1, 805192, Control_c, 0, 64, 83
1, 805207, Control_c, 0, 64, 88
1, 805222, Control_c, 0, 64, 94
1, 805237, Control_c, 0, 64, 102
1, 805252, Control_c, 0, 64, 114
1, 805266, Control_c, 0, 64, 127
1, 805381, Note_off_c, 0, 61, 39
1, 805537, Note_off_c, 0, 49, 43
1, 805666, Note_off_c, 0, 67, 52
1, 806150, Note_on_c, 0, 67, 40
1, 806203, Note_on_c, 0, 38, 31
1, 806209, Control_c, 0, 64, 102
1, 806223, Control_c, 0, 64, 85
1, 806238, Control_c, 0, 64, 73
1, 806248, Note_on_c, 0, 66, 41
1, 806253, Control_c, 0, 64, 63
1, 806256, Note_off_c, 0, 67, 38
1, 806268, Control_c, 0, 64, 47
1, 806283, Control_c, 0, 64, 40
1, 806297, Control_c, 0, 64, 45
1, 806312, Control_c, 0, 64, 52
1, 806327, Control_c, 0, 64, 58
1, 806342, Control_c, 0, 64, 63
1, 806357, Control_c, 0, 64, 69
1, 806372, Note_off_c, 0, 38, 42
1, 806372, Control_c, 0, 64, 74
1, 806386, Control_c, 0, 64, 80
1, 806401, Control_c, 0, 64, 83
1, 806416, Control_c, 0, 64, 86
1, 806431, Control_c, 0, 64, 89
1, 806446, Control_c, 0, 64, 92
1, 806461, Control_c, 0, 64, 97
1, 806476, Control_c, 0, 64, 100
1, 806506, Control_c, 0, 64, 104
1, 806521, Control_c, 0, 64, 110
1, 806536, Control_c, 0, 64, 115
1, 806550, Control_c, 0, 64, 117
1, 806601, Note_off_c, 0, 66, 48
1, 806614, Note_on_c, 0, 64, 41
1, 806691, Control_c, 0, 64, 111
1, 806706, Control_c, 0, 64, 97
1, 806720, Control_c, 0, 64, 82
1, 806735, Control_c, 0, 64, 69
1, 806741, Note_off_c, 0, 64, 41
1, 806743, Note_on_c, 0, 50, 41
1, 806750, Control_c, 0, 64, 57
1, 806753, Note_on_c, 0, 62, 19
1, 806757, Note_on_c, 0, 66, 43
1, 806765, Control_c, 0, 64, 48
1, 806780, Control_c, 0, 64, 52
1, 806795, Control_c, 0, 64, 57
1, 806810, Control_c, 0, 64, 62
1, 806825, Control_c, 0, 64, 65
1, 806826, Note_off_c, 0, 62, 36
1, 806839, Control_c, 0, 64, 71
1, 806854, Control_c, 0, 64, 76
1, 806869, Control_c, 0, 64, 80
1, 806884, Control_c, 0, 64, 83
1, 806899, Control_c, 0, 64, 85
1, 806912, Note_off_c, 0, 50, 39
1, 806913, Control_c, 0, 64, 88
1, 806928, Control_c, 0, 64, 91
1, 806943, Control_c, 0, 64, 94
1, 806958, Control_c, 0, 64, 98
1, 806972, Control_c, 0, 64, 100
1, 806974, Note_on_c, 0, 69, 54
1, 806983, Note_off_c, 0, 66, 54
1, 806987, Control_c, 0, 64, 102
1, 807002, Control_c, 0, 64, 104
1, 807061, Control_c, 0, 64, 106
1, 807164, Control_c, 0, 64, 103
1, 807179, Control_c, 0, 64, 93
1, 807194, Control_c, 0, 64, 80
1, 807204, Note_on_c, 0, 45, 43
1, 807209, Control_c, 0, 64, 69
1, 807224, Control_c, 0, 64, 60
1, 807230, Note_on_c, 0, 66, 54
1, 807240, Control_c, 0, 64, 47
1, 807255, Control_c, 0, 64, 46
1, 807263, Note_off_c, 0, 69, 53
1, 807269, Control_c, 0, 64, 53
1, 807272, Poly_aftertouch_c, 0, 57, 0
1, 807284, Control_c, 0, 64, 58
1, 807299, Control_c, 0, 64, 62
1, 807314, Control_c, 0, 64, 65
1, 807329, Control_c, 0, 64, 69
1, 807343, Control_c, 0, 64, 74
1, 807358, Control_c, 0, 64, 80
1, 807373, Control_c, 0, 64, 83
1, 807388, Control_c, 0, 64, 85
1, 807403, Control_c, 0, 64, 89
1, 807421, Note_off_c, 0, 45, 57
1, 807425, Control_c, 0, 64, 94
1, 807440, Control_c, 0, 64, 99
1, 807455, Control_c, 0, 64, 104
1, 807469, Control_c, 0, 64, 108
1, 807484, Control_c, 0, 64, 111
1, 807499, Control_c, 0, 64, 113
1, 807528, Control_c, 0, 64, 115
1, 807662, Control_c, 0, 64, 107
1, 807671, Note_on_c, 0, 37, 34
1, 807677, Control_c, 0, 64, 95
1, 807692, Control_c, 0, 64, 80
1, 807698, Note_on_c, 0, 64, 44
1, 807706, Control_c, 0, 64, 67
1, 807721, Control_c, 0, 64, 53
1, 807736, Control_c, 0, 64, 0
1, 807737, Note_off_c, 0, 66, 51
1, 807781, Control_c, 0, 64, 37
1, 807795, Control_c, 0, 64, 46
1, 807810, Control_c, 0, 64, 54
1, 807825, Control_c, 0, 64, 61
1, 807840, Control_c, 0, 64, 65
1, 807855, Control_c, 0, 64, 71
1, 807861, Note_off_c, 0, 37, 52
1, 807869, Control_c, 0, 64, 76
1, 807884, Control_c, 0, 64, 79
1, 807899, Control_c, 0, 64, 82
1, 807913, Control_c, 0, 64, 85
1, 807928, Control_c, 0, 64, 88
1, 807943, Control_c, 0, 64, 91
1, 807958, Control_c, 0, 64, 94
1, 807973, Control_c, 0, 64, 96
1, 808078, Control_c, 0, 64, 94
1, 808092, Control_c, 0, 64, 91
1, 808107, Control_c, 0, 64, 87
1, 808122, Control_c, 0, 64, 82
1, 808136, Control_c, 0, 64, 77
1, 808151, Control_c, 0, 64, 69
1, 808174, Control_c, 0, 64, 62
1, 808189, Control_c, 0, 64, 53
1, 808204, Control_c, 0, 64, 49
1, 808218, Note_on_c, 0, 45, 43
1, 808218, Control_c, 0, 64, 53
1, 808221, Note_on_c, 0, 57, 22
1, 808233, Control_c, 0, 64, 57
1, 808248, Control_c, 0, 64, 61
1, 808263, Control_c, 0, 64, 65
1, 808278, Control_c, 0, 64, 69
1, 808292, Control_c, 0, 64, 75
1, 808298, Note_off_c, 0, 57, 36
1, 808307, Control_c, 0, 64, 80
1, 808322, Control_c, 0, 64, 85
1, 808336, Control_c, 0, 64, 89
1, 808351, Control_c, 0, 64, 93
1, 808366, Control_c, 0, 64, 95
1, 808381, Control_c, 0, 64, 98
1, 808396, Control_c, 0, 64, 100
1, 808410, Control_c, 0, 64, 103
1, 808425, Control_c, 0, 64, 105
1, 808440, Control_c, 0, 64, 109
1, 808455, Control_c, 0, 64, 112
1, 808466, Note_off_c, 0, 45, 53
1, 808500, Control_c, 0, 64, 114
1, 808745, Note_on_c, 0, 36, 35
1, 809297, Note_on_c, 0, 35, 41
1, 809306, Note_on_c, 0, 67, 42
1, 809308, Control_c, 0, 64, 107
1, 809311, Note_on_c, 0, 55, 39
1, 809323, Control_c, 0, 64, 102
1, 809338, Control_c, 0, 64, 98
1, 809352, Control_c, 0, 64, 94
1, 809367, Control_c, 0, 64, 89
1, 809382, Control_c, 0, 64, 83
1, 809397, Control_c, 0, 64, 75
1, 809412, Control_c, 0, 64, 66
1, 809412, Note_off_c, 0, 36, 39
1, 809427, Control_c, 0, 64, 56
1, 809440, Note_off_c, 0, 64, 56
1, 809441, Control_c, 0, 64, 41
1, 809456, Note_off_c, 0, 35, 57
1, 809456, Control_c, 0, 64, 0
1, 809574, Control_c, 0, 64, 35
1, 809589, Control_c, 0, 64, 45
1, 809604, Control_c, 0, 64, 54
1, 809619, Control_c, 0, 64, 60
1, 809635, Control_c, 0, 64, 64
1, 809657, Control_c, 0, 64, 67
1, 809671, Control_c, 0, 64, 70
1, 809686, Control_c, 0, 64, 73
1, 809701, Control_c, 0, 64, 76
1, 809716, Control_c, 0, 64, 80
1, 809731, Control_c, 0, 64, 85
1, 809746, Control_c, 0, 64, 90
1, 809761, Control_c, 0, 64, 95
1, 809776, Control_c, 0, 64, 100
1, 809790, Control_c, 0, 64, 105
1, 809805, Control_c, 0, 64, 109
1, 809820, Control_c, 0, 64, 112
1, 809835, Control_c, 0, 64, 118
1, 809850, Control_c, 0, 64, 127
1, 809925, Note_on_c, 0, 50, 35
1, 809934, Note_on_c, 0, 38, 38
1, 810473, Note_off_c, 0, 50, 31
1, 810486, Note_off_c, 0, 67, 59
1, 810504, Note_off_c, 0, 55, 46
1, 810555, Note_off_c, 0, 38, 39
1, 811233, Note_on_c, 0, 54, 31
1, 811241, Note_on_c, 0, 66, 37
1, 811260, Note_on_c, 0, 33, 33
1, 811348, Control_c, 0, 64, 118
1, 811362, Control_c, 0, 64, 101
1, 811377, Control_c, 0, 64, 90
1, 811392, Control_c, 0, 64, 78
1, 811407, Control_c, 0, 64, 67
1, 811418, Note_off_c, 0, 33, 59
1, 811422, Control_c, 0, 64, 54
1, 811436, Control_c, 0, 64, 0
1, 811526, Control_c, 0, 64, 40
1, 811540, Control_c, 0, 64, 53
1, 811555, Control_c, 0, 64, 61
1, 811570, Control_c, 0, 64, 65
1, 811585, Control_c, 0, 64, 68
1, 811600, Control_c, 0, 64, 71
1, 811615, Control_c, 0, 64, 74
1, 811629, Control_c, 0, 64, 77
1, 811644, Control_c, 0, 64, 83
1, 811659, Control_c, 0, 64, 88
1, 811674, Control_c, 0, 64, 94
1, 811688, Control_c, 0, 64, 101
1, 811703, Control_c, 0, 64, 112
1, 811718, Control_c, 0, 64, 127
1, 811865, Note_on_c, 0, 49, 30
1, 811875, Note_on_c, 0, 37, 33
1, 812129, Note_off_c, 0, 54, 41
1, 812131, Note_off_c, 0, 66, 40
1, 812160, Note_off_c, 0, 49, 42
1, 813448, Note_on_c, 0, 32, 31
1, 813484, Note_on_c, 0, 61, 35
1, 813487, Note_off_c, 0, 37, 34
1, 813489, Control_c, 0, 64, 108
1, 813493, Note_on_c, 0, 53, 30
1, 813504, Control_c, 0, 64, 91
1, 813508, Note_on_c, 0, 59, 26
1, 813519, Control_c, 0, 64, 77
1, 813533, Control_c, 0, 64, 64
1, 813548, Control_c, 0, 64, 53
1, 813563, Control_c, 0, 64, 49
1, 813577, Control_c, 0, 64, 54
1, 813592, Control_c, 0, 64, 59
1, 813607, Control_c, 0, 64, 63
1, 813622, Control_c, 0, 64, 67
1, 813638, Control_c, 0, 64, 75
1, 813653, Control_c, 0, 64, 81
1, 813668, Control_c, 0, 64, 85
1, 813674, Note_off_c, 0, 32, 40
1, 813682, Control_c, 0, 64, 89
1, 813697, Control_c, 0, 64, 92
1, 813712, Control_c, 0, 64, 95
1, 813727, Control_c, 0, 64, 99
1, 813742, Control_c, 0, 64, 105
1, 813756, Control_c, 0, 64, 113
1, 813771, Control_c, 0, 64, 127
1, 813818, Note_off_c, 0, 61, 37
1, 813837, Note_off_c, 0, 53, 36
1, 813848, Note_off_c, 0, 59, 40
1, 814121, Note_on_c, 0, 37, 30
1, 814127, Control_c, 0, 64, 101
1, 814138, Note_on_c, 0, 49, 19
1, 814139, Note_on_c, 0, 61, 38
1, 814140, Note_on_c, 0, 59, 32
1, 814142, Control_c, 0, 64, 84
1, 814143, Note_on_c, 0, 53, 34
1, 814164, Control_c, 0, 64, 73
1, 814179, Control_c, 0, 64, 65
1, 814193, Control_c, 0, 64, 60
1, 814202, Note_off_c, 0, 49, 46
1, 814223, Control_c, 0, 64, 63
1, 814238, Control_c, 0, 64, 65
1, 814253, Control_c, 0, 64, 69
1, 814268, Control_c, 0, 64, 73
1, 814282, Control_c, 0, 64, 77
1, 814297, Control_c, 0, 64, 80
1, 814312, Control_c, 0, 64, 83
1, 814327, Control_c, 0, 64, 85
1, 814342, Control_c, 0, 64, 89
1, 814352, Note_off_c, 0, 37, 48
1, 814356, Control_c, 0, 64, 93
1, 814371, Control_c, 0, 64, 97
1, 814386, Control_c, 0, 64, 101
1, 814400, Control_c, 0, 64, 105
1, 814415, Control_c, 0, 64, 110
1, 814432, Control_c, 0, 64, 119
1, 814447, Control_c, 0, 64, 127
1, 814502, Poly_aftertouch_c, 0, 37, 127
1, 814530, Note_off_c, 0, 61, 35
1, 814553, Note_on_c, 0, 62, 43
1, 814609, Control_c, 0, 64, 114
1, 814623, Control_c, 0, 64, 94
1, 814638, Control_c, 0, 64, 77
1, 814653, Control_c, 0, 64, 66
1, 814658, Poly_aftertouch_c, 0, 37, 0
1, 814668, Control_c, 0, 64, 57
1, 814676, Note_on_c, 0, 31, 23
1, 814683, Note_on_c, 0, 61, 35
1, 814683, Control_c, 0, 64, 55
1, 814685, Note_off_c, 0, 62, 37
1, 814697, Control_c, 0, 64, 58
1, 814712, Control_c, 0, 64, 61
1, 814727, Control_c, 0, 64, 65
1, 814742, Control_c, 0, 64, 70
1, 814757, Control_c, 0, 64, 76
1, 814772, Control_c, 0, 64, 83
1, 814781, Note_off_c, 0, 59, 39
1, 814787, Control_c, 0, 64, 87
1, 814802, Control_c, 0, 64, 90
1, 814808, Note_off_c, 0, 61, 59
1, 814816, Control_c, 0, 64, 93
1, 814831, Control_c, 0, 64, 95
1, 814846, Control_c, 0, 64, 97
1, 814851, Note_off_c, 0, 31, 40
1, 814858, Note_off_c, 0, 53, 39
1, 814860, Control_c, 0, 64, 100
1, 814875, Control_c, 0, 64, 105
1, 814890, Control_c, 0, 64, 111
1, 814912, Control_c, 0, 64, 119
1, 814927, Control_c, 0, 64, 127
1, 815156, Note_on_c, 0, 45, 40
1, 815208, Control_c, 0, 64, 114
1, 815224, Control_c, 0, 64, 93
1, 815231, Note_on_c, 0, 49, 38
1, 815239, Control_c, 0, 64, 80
1, 815253, Control_c, 0, 64, 68
1, 815268, Control_c, 0, 64, 58
1, 815283, Control_c, 0, 64, 42
1, 815298, Control_c, 0, 64, 0
1, 815313, Control_c, 0, 64, 35
1, 815316, Note_on_c, 0, 54, 36
1, 815327, Control_c, 0, 64, 42
1, 815342, Control_c, 0, 64, 46
1, 815357, Control_c, 0, 64, 50
1, 815372, Control_c, 0, 64, 54
1, 815387, Control_c, 0, 64, 61
1, 815401, Control_c, 0, 64, 66
1, 815416, Control_c, 0, 64, 71
1, 815431, Control_c, 0, 64, 78
1, 815445, Control_c, 0, 64, 82
1, 815460, Control_c, 0, 64, 86
1, 815475, Control_c, 0, 64, 90
1, 815490, Control_c, 0, 64, 93
1, 815505, Control_c, 0, 64, 95
1, 815520, Control_c, 0, 64, 98
1, 815535, Control_c, 0, 64, 101
1, 815550, Control_c, 0, 64, 105
1, 815565, Control_c, 0, 64, 110
1, 815580, Control_c, 0, 64, 115
1, 815594, Control_c, 0, 64, 119
1, 815609, Control_c, 0, 64, 122
1, 815624, Control_c, 0, 64, 127
1, 815720, Note_on_c, 0, 30, 37
1, 815750, Control_c, 0, 64, 116
1, 815765, Control_c, 0, 64, 102
1, 815767, Note_on_c, 0, 33, 40
1, 815775, Note_off_c, 0, 54, 38
1, 815779, Control_c, 0, 64, 90
1, 815780, Note_off_c, 0, 45, 40
1, 815794, Control_c, 0, 64, 78
1, 815809, Control_c, 0, 64, 68
1, 815824, Control_c, 0, 64, 57
1, 815839, Control_c, 0, 64, 52
1, 815840, Note_on_c, 0, 37, 22
1, 815843, Note_off_c, 0, 49, 43
1, 815854, Control_c, 0, 64, 54
1, 815869, Control_c, 0, 64, 57
1, 815884, Note_on_c, 0, 42, 32
1, 815884, Control_c, 0, 64, 60
1, 815899, Control_c, 0, 64, 62
1, 815913, Control_c, 0, 64, 66
1, 815928, Control_c, 0, 64, 72
1, 815943, Control_c, 0, 64, 79
1, 815958, Control_c, 0, 64, 85
1, 815972, Control_c, 0, 64, 89
1, 815987, Control_c, 0, 64, 92
1, 816002, Control_c, 0, 64, 95
1, 816017, Control_c, 0, 64, 98
1, 816033, Control_c, 0, 64, 101
1, 816048, Control_c, 0, 64, 104
1, 816059, Note_off_c, 0, 30, 33
1, 816062, Control_c, 0, 64, 107
1, 816092, Control_c, 0, 64, 110
1, 816107, Control_c, 0, 64, 112
1, 816112, Note_off_c, 0, 42, 42
1, 816121, Note_off_c, 0, 33, 37
1, 816137, Control_c, 0, 64, 114
1, 816159, Note_off_c, 0, 37, 37
1, 816257, Note_on_c, 0, 45, 38
1, 816299, Control_c, 0, 64, 110
1, 816314, Control_c, 0, 64, 102
1, 816329, Control_c, 0, 64, 93
1, 816343, Control_c, 0, 64, 85
1, 816344, Note_on_c, 0, 49, 41
1, 816358, Control_c, 0, 64, 76
1, 816373, Control_c, 0, 64, 67
1, 816388, Control_c, 0, 64, 58
1, 816410, Control_c, 0, 64, 50
1, 816426, Note_on_c, 0, 54, 28
1, 816440, Control_c, 0, 64, 53
1, 816455, Control_c, 0, 64, 56
1, 816470, Control_c, 0, 64, 59
1, 816484, Control_c, 0, 64, 63
1, 816499, Control_c, 0, 64, 67
1, 816514, Control_c, 0, 64, 72
1, 816529, Control_c, 0, 64, 79
1, 816544, Control_c, 0, 64, 82
1, 816558, Control_c, 0, 64, 85
1, 816573, Control_c, 0, 64, 87
1, 816588, Control_c, 0, 64, 91
1, 816602, Control_c, 0, 64, 95
1, 816617, Control_c, 0, 64, 98
1, 816632, Control_c, 0, 64, 100
1, 816662, Control_c, 0, 64, 102
1, 816669, Note_off_c, 0, 45, 38
1, 816677, Control_c, 0, 64, 105
1, 816683, Note_off_c, 0, 54, 37
1, 816797, Note_off_c, 0, 49, 41
1, 816834, Note_on_c, 0, 30, 29
1, 816840, Control_c, 0, 64, 99
1, 816855, Control_c, 0, 64, 87
1, 816870, Control_c, 0, 64, 74
1, 816883, Note_on_c, 0, 35, 37
1, 816885, Control_c, 0, 64, 63
1, 816900, Control_c, 0, 64, 50
1, 816915, Control_c, 0, 64, 46
1, 816930, Control_c, 0, 64, 48
1, 816945, Control_c, 0, 64, 51
1, 816948, Note_on_c, 0, 38, 18
1, 816960, Control_c, 0, 64, 55
1, 816974, Control_c, 0, 64, 58
1, 816977, Note_on_c, 0, 42, 36
1, 816989, Control_c, 0, 64, 63
1, 817004, Control_c, 0, 64, 67
1, 817018, Control_c, 0, 64, 72
1, 817033, Control_c, 0, 64, 77
1, 817048, Control_c, 0, 64, 81
1, 817063, Control_c, 0, 64, 84
1, 817078, Control_c, 0, 64, 87
1, 817092, Control_c, 0, 64, 92
1, 817107, Control_c, 0, 64, 98
1, 817122, Control_c, 0, 64, 104
1, 817145, Control_c, 0, 64, 108
1, 817159, Control_c, 0, 64, 111
1, 817172, Note_off_c, 0, 30, 22
1, 817174, Control_c, 0, 64, 117
1, 817189, Control_c, 0, 64, 125
1, 817204, Control_c, 0, 64, 127
1, 817308, Note_off_c, 0, 35, 33
1, 817336, Note_off_c, 0, 42, 42
1, 817370, Note_off_c, 0, 38, 39
1, 817395, Note_on_c, 0, 47, 38
1, 817470, Control_c, 0, 64, 103
1, 817476, Note_on_c, 0, 50, 39
1, 817485, Control_c, 0, 64, 86
1, 817499, Control_c, 0, 64, 73
1, 817514, Control_c, 0, 64, 62
1, 817529, Control_c, 0, 64, 52
1, 817544, Control_c, 0, 64, 51
1, 817550, Note_on_c, 0, 54, 39
1, 817559, Control_c, 0, 64, 54
1, 817574, Control_c, 0, 64, 57
1, 817589, Control_c, 0, 64, 60
1, 817604, Control_c, 0, 64, 62
1, 817619, Control_c, 0, 64, 66
1, 817634, Control_c, 0, 64, 72
1, 817648, Control_c, 0, 64, 78
1, 817663, Control_c, 0, 64, 82
1, 817678, Control_c, 0, 64, 83
1, 817693, Control_c, 0, 64, 85
1, 817708, Control_c, 0, 64, 88
1, 817723, Control_c, 0, 64, 92
1, 817738, Control_c, 0, 64, 94
1, 817753, Control_c, 0, 64, 95
1, 817768, Control_c, 0, 64, 95
1, 817782, Control_c, 0, 64, 96
1, 817797, Control_c, 0, 64, 98
1, 817812, Control_c, 0, 64, 100
1, 817920, Note_off_c, 0, 54, 38
1, 817927, Note_on_c, 0, 30, 28
1, 817932, Note_off_c, 0, 47, 41
1, 817952, Control_c, 0, 64, 98
1, 817967, Control_c, 0, 64, 93
1, 817971, Note_off_c, 0, 50, 39
1, 817982, Note_on_c, 0, 35, 44
1, 817982, Control_c, 0, 64, 85
1, 817997, Control_c, 0, 64, 75
1, 818012, Control_c, 0, 64, 66
1, 818027, Control_c, 0, 64, 57
1, 818042, Control_c, 0, 64, 51
1, 818056, Control_c, 0, 64, 48
1, 818067, Note_on_c, 0, 38, 29
1, 818086, Control_c, 0, 64, 49
1, 818101, Note_on_c, 0, 42, 42
1, 818101, Control_c, 0, 64, 50
1, 818115, Control_c, 0, 64, 54
1, 818130, Control_c, 0, 64, 58
1, 818145, Control_c, 0, 64, 62
1, 818160, Control_c, 0, 64, 65
1, 818174, Control_c, 0, 64, 69
1, 818189, Control_c, 0, 64, 73
1, 818204, Control_c, 0, 64, 78
1, 818219, Control_c, 0, 64, 82
1, 818234, Control_c, 0, 64, 86
1, 818248, Control_c, 0, 64, 89
1, 818263, Control_c, 0, 64, 91
1, 818278, Note_off_c, 0, 30, 12
1, 818278, Control_c, 0, 64, 93
1, 818293, Control_c, 0, 64, 95
1, 818308, Control_c, 0, 64, 99
1, 818322, Control_c, 0, 64, 105
1, 818337, Control_c, 0, 64, 110
1, 818367, Control_c, 0, 64, 113
1, 818371, Note_off_c, 0, 35, 14
1, 818397, Control_c, 0, 64, 116
1, 818411, Control_c, 0, 64, 118
1, 818417, Note_off_c, 0, 42, 43
1, 818468, Note_off_c, 0, 38, 39
1, 818516, Note_on_c, 0, 45, 38
1, 818560, Control_c, 0, 64, 115
1, 818575, Control_c, 0, 64, 110
1, 818590, Control_c, 0, 64, 102
1, 818593, Note_on_c, 0, 49, 40
1, 818605, Control_c, 0, 64, 95
1, 818620, Control_c, 0, 64, 87
1, 818635, Control_c, 0, 64, 79
1, 818657, Control_c, 0, 64, 70
1, 818671, Control_c, 0, 64, 63
1, 818675, Note_on_c, 0, 54, 39
1, 818686, Control_c, 0, 64, 53
1, 818701, Control_c, 0, 64, 43
1, 818716, Control_c, 0, 64, 41
1, 818731, Control_c, 0, 64, 44
1, 818745, Control_c, 0, 64, 48
1, 818760, Control_c, 0, 64, 50
1, 818775, Control_c, 0, 64, 53
1, 818790, Control_c, 0, 64, 57
1, 818805, Control_c, 0, 64, 62
1, 818820, Control_c, 0, 64, 65
1, 818835, Control_c, 0, 64, 68
1, 818850, Control_c, 0, 64, 72
1, 818865, Control_c, 0, 64, 76
1, 818879, Control_c, 0, 64, 80
1, 818894, Control_c, 0, 64, 82
1, 818909, Control_c, 0, 64, 85
1, 818924, Control_c, 0, 64, 87
1, 818939, Control_c, 0, 64, 90
1, 818953, Control_c, 0, 64, 94
1, 818968, Control_c, 0, 64, 96
1, 819012, Control_c, 0, 64, 98
1, 819039, Note_on_c, 0, 30, 23
1, 819043, Note_off_c, 0, 45, 38
1, 819078, Note_off_c, 0, 54, 41
1, 819088, Note_on_c, 0, 33, 31
1, 819107, Note_off_c, 0, 49, 41
1, 819131, Control_c, 0, 64, 96
1, 819145, Control_c, 0, 64, 94
1, 819158, Note_on_c, 0, 37, 29
1, 819160, Control_c, 0, 64, 91
1, 819175, Control_c, 0, 64, 87
1, 819189, Control_c, 0, 64, 83
1, 819204, Control_c, 0, 64, 79
1, 819220, Note_on_c, 0, 42, 36
1, 819220, Control_c, 0, 64, 72
1, 819235, Control_c, 0, 64, 65
1, 819250, Control_c, 0, 64, 57
1, 819265, Control_c, 0, 64, 45
1, 819280, Control_c, 0, 64, 40
1, 819294, Control_c, 0, 64, 42
1, 819309, Control_c, 0, 64, 48
1, 819324, Control_c, 0, 64, 52
1, 819339, Control_c, 0, 64, 57
1, 819354, Control_c, 0, 64, 63
1, 819365, Note_off_c, 0, 30, 24
1, 819368, Control_c, 0, 64, 68
1, 819383, Control_c, 0, 64, 75
1, 819406, Control_c, 0, 64, 81
1, 819420, Control_c, 0, 64, 86
1, 819435, Control_c, 0, 64, 88
1, 819450, Control_c, 0, 64, 90
1, 819465, Control_c, 0, 64, 92
1, 819474, Note_off_c, 0, 33, 27
1, 819480, Control_c, 0, 64, 94
1, 819494, Control_c, 0, 64, 95
1, 819505, Note_off_c, 0, 42, 41
1, 819524, Control_c, 0, 64, 98
1, 819544, Note_off_c, 0, 37, 38
1, 819616, Note_on_c, 0, 45, 39
1, 819698, Note_on_c, 0, 49, 38
1, 819732, Control_c, 0, 64, 94
1, 819746, Control_c, 0, 64, 89
1, 819761, Control_c, 0, 64, 81
1, 819776, Control_c, 0, 64, 71
1, 819783, Note_on_c, 0, 54, 35
1, 819791, Control_c, 0, 64, 61
1, 819806, Control_c, 0, 64, 46
1, 819820, Control_c, 0, 64, 44
1, 819835, Control_c, 0, 64, 47
1, 819850, Control_c, 0, 64, 52
1, 819865, Control_c, 0, 64, 56
1, 819880, Control_c, 0, 64, 60
1, 819894, Control_c, 0, 64, 65
1, 819909, Control_c, 0, 64, 70
1, 819924, Control_c, 0, 64, 75
1, 819938, Control_c, 0, 64, 79
1, 819953, Control_c, 0, 64, 80
1, 819968, Control_c, 0, 64, 81
1, 819983, Control_c, 0, 64, 81
1, 819998, Control_c, 0, 64, 82
1, 820014, Control_c, 0, 64, 84
1, 820029, Control_c, 0, 64, 86
1, 820043, Control_c, 0, 64, 86
1, 820058, Control_c, 0, 64, 87
1, 820073, Control_c, 0, 64, 88
1, 820081, Note_off_c, 0, 45, 35
1, 820088, Control_c, 0, 64, 88
1, 820103, Control_c, 0, 64, 89
1, 820117, Control_c, 0, 64, 90
1, 820142, Note_off_c, 0, 54, 32
1, 820202, Note_on_c, 0, 30, 16
1, 820229, Control_c, 0, 64, 89
1, 820230, Note_on_c, 0, 32, 28
1, 820235, Note_off_c, 0, 49, 38
1, 820243, Control_c, 0, 64, 88
1, 820258, Control_c, 0, 64, 87
1, 820273, Control_c, 0, 64, 85
1, 820288, Control_c, 0, 64, 80
1, 820303, Control_c, 0, 64, 72
1, 820314, Note_on_c, 0, 35, 27
1, 820317, Control_c, 0, 64, 63
1, 820332, Control_c, 0, 64, 56
1, 820347, Control_c, 0, 64, 50
1, 820355, Note_on_c, 0, 42, 39
1, 820376, Control_c, 0, 64, 52
1, 820391, Control_c, 0, 64, 54
1, 820406, Control_c, 0, 64, 56
1, 820421, Control_c, 0, 64, 59
1, 820436, Control_c, 0, 64, 64
1, 820450, Control_c, 0, 64, 68
1, 820465, Control_c, 0, 64, 74
1, 820480, Control_c, 0, 64, 78
1, 820495, Control_c, 0, 64, 81
1, 820510, Control_c, 0, 64, 83
1, 820525, Note_off_c, 0, 30, 21
1, 820525, Control_c, 0, 64, 84
1, 820540, Control_c, 0, 64, 85
1, 820555, Control_c, 0, 64, 85
1, 820569, Control_c, 0, 64, 86
1, 820584, Control_c, 0, 64, 88
1, 820599, Control_c, 0, 64, 89
1, 820614, Control_c, 0, 64, 91
1, 820629, Control_c, 0, 64, 93
1, 820640, Note_off_c, 0, 32, 19
1, 820643, Control_c, 0, 64, 93
1, 820658, Control_c, 0, 64, 94
1, 820673, Control_c, 0, 64, 95
1, 820677, Note_off_c, 0, 35, 37
1, 820687, Note_off_c, 0, 42, 44
1, 820703, Control_c, 0, 64, 96
1, 820791, Note_on_c, 0, 44, 40
1, 820895, Note_on_c, 0, 47, 41
1, 820904, Control_c, 0, 64, 95
1, 820919, Control_c, 0, 64, 91
1, 820934, Control_c, 0, 64, 85
1, 820948, Control_c, 0, 64, 79
1, 820963, Control_c, 0, 64, 73
1, 820978, Control_c, 0, 64, 66
1, 820993, Control_c, 0, 64, 59
1, 821000, Note_on_c, 0, 54, 32
1, 821008, Control_c, 0, 64, 52
1, 821023, Control_c, 0, 64, 51
1, 821038, Control_c, 0, 64, 53
1, 821053, Control_c, 0, 64, 56
1, 821067, Control_c, 0, 64, 59
1, 821082, Control_c, 0, 64, 62
1, 821097, Control_c, 0, 64, 66
1, 821112, Control_c, 0, 64, 72
1, 821127, Control_c, 0, 64, 78
1, 821141, Control_c, 0, 64, 81
1, 821156, Control_c, 0, 64, 83
1, 821171, Control_c, 0, 64, 84
1, 821186, Control_c, 0, 64, 86
1, 821200, Control_c, 0, 64, 88
1, 821215, Control_c, 0, 64, 90
1, 821230, Control_c, 0, 64, 91
1, 821245, Control_c, 0, 64, 91
1, 821260, Control_c, 0, 64, 92
1, 821274, Control_c, 0, 64, 94
1, 821289, Control_c, 0, 64, 95
1, 821348, Control_c, 0, 64, 95
1, 821437, Control_c, 0, 64, 95
1, 821452, Control_c, 0, 64, 91
1, 821467, Control_c, 0, 64, 84
1, 821482, Control_c, 0, 64, 73
1, 821496, Note_on_c, 0, 30, 24
1, 821497, Control_c, 0, 64, 63
1, 821511, Control_c, 0, 64, 50
1, 821526, Control_c, 0, 64, 45
1, 821541, Control_c, 0, 64, 47
1, 821545, Note_on_c, 0, 32, 25
1, 821556, Control_c, 0, 64, 50
1, 821571, Control_c, 0, 64, 53
1, 821585, Control_c, 0, 64, 56
1, 821600, Control_c, 0, 64, 62
1, 821606, Note_on_c, 0, 35, 30
1, 821616, Control_c, 0, 64, 66
1, 821631, Control_c, 0, 64, 71
1, 821653, Control_c, 0, 64, 78
1, 821668, Control_c, 0, 64, 82
1, 821669, Note_on_c, 0, 42, 40
1, 821678, Note_off_c, 0, 30, 41
1, 821683, Control_c, 0, 64, 85
1, 821687, Note_off_c, 0, 44, 45
1, 821697, Control_c, 0, 64, 86
1, 821711, Note_off_c, 0, 54, 38
1, 821712, Control_c, 0, 64, 87
1, 821724, Note_off_c, 0, 42, 59
1, 821727, Control_c, 0, 64, 88
1, 821735, Note_off_c, 0, 32, 39
1, 821744, Note_off_c, 0, 47, 41
1, 821756, Control_c, 0, 64, 88
1, 821764, Note_off_c, 0, 35, 35
1, 821771, Control_c, 0, 64, 89
1, 821786, Control_c, 0, 64, 91
1, 821801, Control_c, 0, 64, 92
1, 821831, Control_c, 0, 64, 92
1, 821845, Control_c, 0, 64, 93
1, 821860, Control_c, 0, 64, 93
1, 821875, Control_c, 0, 64, 94
1, 821935, Control_c, 0, 64, 94
1, 822260, Control_c, 0, 64, 93
1, 822275, Control_c, 0, 64, 89
1, 822290, Control_c, 0, 64, 83
1, 822304, Note_on_c, 0, 42, 28
1, 822304, Control_c, 0, 64, 73
1, 822316, Note_on_c, 0, 30, 22
1, 822319, Control_c, 0, 64, 65
1, 822334, Control_c, 0, 64, 55
1, 822349, Control_c, 0, 64, 49
1, 822364, Control_c, 0, 64, 51
1, 822379, Control_c, 0, 64, 54
1, 822401, Control_c, 0, 64, 58
1, 822417, Control_c, 0, 64, 61
1, 822432, Control_c, 0, 64, 64
1, 822446, Control_c, 0, 64, 67
1, 822461, Control_c, 0, 64, 71
1, 822476, Control_c, 0, 64, 75
1, 822491, Control_c, 0, 64, 78
1, 822492, Note_on_c, 0, 45, 28
1, 822498, Note_off_c, 0, 42, 40
1, 822506, Control_c, 0, 64, 80
1, 822512, Note_on_c, 0, 33, 13
1, 822520, Control_c, 0, 64, 82
1, 822535, Control_c, 0, 64, 82
1, 822550, Control_c, 0, 64, 83
1, 822579, Control_c, 0, 64, 83
1, 822594, Control_c, 0, 64, 84
1, 822609, Control_c, 0, 64, 85
1, 822624, Control_c, 0, 64, 86
1, 822683, Control_c, 0, 64, 86
1, 822698, Control_c, 0, 64, 87
1, 822757, Control_c, 0, 64, 87
1, 822764, Note_on_c, 0, 54, 25
1, 822767, Note_on_c, 0, 42, 29
1, 822920, Control_c, 0, 64, 87
1, 822935, Control_c, 0, 64, 86
1, 822950, Control_c, 0, 64, 85
1, 822964, Control_c, 0, 64, 82
1, 822979, Control_c, 0, 64, 80
1, 822994, Control_c, 0, 64, 77
1, 823009, Control_c, 0, 64, 74
1, 823024, Control_c, 0, 64, 70
1, 823038, Control_c, 0, 64, 65
1, 823053, Control_c, 0, 64, 60
1, 823068, Control_c, 0, 64, 54
1, 823083, Control_c, 0, 64, 49
1, 823097, Control_c, 0, 64, 47
1, 823127, Control_c, 0, 64, 48
1, 823150, Control_c, 0, 64, 48
1, 823164, Control_c, 0, 64, 50
1, 823179, Control_c, 0, 64, 52
1, 823194, Control_c, 0, 64, 54
1, 823209, Control_c, 0, 64, 57
1, 823225, Control_c, 0, 64, 59
1, 823240, Control_c, 0, 64, 61
1, 823255, Control_c, 0, 64, 64
1, 823269, Control_c, 0, 64, 67
1, 823284, Control_c, 0, 64, 70
1, 823299, Control_c, 0, 64, 74
1, 823314, Control_c, 0, 64, 76
1, 823329, Control_c, 0, 64, 78
1, 823343, Control_c, 0, 64, 80
1, 823358, Control_c, 0, 64, 82
1, 823373, Control_c, 0, 64, 84
1, 823387, Control_c, 0, 64, 87
1, 823402, Control_c, 0, 64, 89
1, 823417, Control_c, 0, 64, 90
1, 823432, Control_c, 0, 64, 91
1, 823447, Control_c, 0, 64, 93
1, 823461, Control_c, 0, 64, 95
1, 823521, Control_c, 0, 64, 97
1, 823655, Note_off_c, 0, 30, 32
1, 823684, Note_off_c, 0, 45, 1
1, 823738, Note_off_c, 0, 42, 39
1, 823869, Note_off_c, 0, 33, 23
1, 824056, Note_off_c, 0, 54, 38
1, 824343, Control_c, 0, 64, 96
1, 824358, Control_c, 0, 64, 95
1, 824373, Control_c, 0, 64, 94
1, 824388, Control_c, 0, 64, 93
1, 824403, Control_c, 0, 64, 92
1, 824418, Control_c, 0, 64, 90
1, 824433, Control_c, 0, 64, 89
1, 824448, Control_c, 0, 64, 88
1, 824463, Control_c, 0, 64, 86
1, 824478, Control_c, 0, 64, 85
1, 824492, Control_c, 0, 64, 83
1, 824507, Control_c, 0, 64, 82
1, 824522, Control_c, 0, 64, 81
1, 824536, Control_c, 0, 64, 80
1, 824551, Control_c, 0, 64, 79
1, 824566, Control_c, 0, 64, 79
1, 824581, Control_c, 0, 64, 78
1, 824596, Control_c, 0, 64, 78
1, 824610, Control_c, 0, 64, 77
1, 824625, Control_c, 0, 64, 77
1, 824647, Control_c, 0, 64, 76
1, 824662, Control_c, 0, 64, 76
1, 824677, Control_c, 0, 64, 75
1, 824692, Control_c, 0, 64, 74
1, 824707, Control_c, 0, 64, 72
1, 824722, Control_c, 0, 64, 71
1, 824736, Control_c, 0, 64, 68
1, 824751, Control_c, 0, 64, 65
1, 824766, Control_c, 0, 64, 63
1, 824781, Control_c, 0, 64, 60
1, 824796, Control_c, 0, 64, 57
1, 824811, Control_c, 0, 64, 54
1, 824826, Control_c, 0, 64, 51
1, 824841, Control_c, 0, 64, 47
1, 824856, Control_c, 0, 64, 41
1, 824871, Control_c, 0, 64, 33
1, 824886, Control_c, 0, 64, 0
1, 824938, Note_on_c, 0, 54, 38
1, 824948, Note_on_c, 0, 30, 31
1, 824958, Note_on_c, 0, 42, 20
1, 825181, Control_c, 0, 64, 33
1, 825196, Control_c, 0, 64, 43
1, 825211, Control_c, 0, 64, 50
1, 825226, Control_c, 0, 64, 56
1, 825241, Control_c, 0, 64, 60
1, 825256, Control_c, 0, 64, 62
1, 825270, Control_c, 0, 64, 64
1, 825285, Control_c, 0, 64, 66
1, 825300, Control_c, 0, 64, 67
1, 825315, Control_c, 0, 64, 69
1, 825330, Control_c, 0, 64, 71
1, 825345, Control_c, 0, 64, 73
1, 825359, Control_c, 0, 64, 74
1, 825374, Control_c, 0, 64, 75
1, 825396, Control_c, 0, 64, 77
1, 825411, Control_c, 0, 64, 78
1, 825426, Control_c, 0, 64, 80
1, 825440, Control_c, 0, 64, 82
1, 825455, Control_c, 0, 64, 84
1, 825470, Control_c, 0, 64, 86
1, 825485, Control_c, 0, 64, 87
1, 825500, Control_c, 0, 64, 88
1, 825515, Control_c, 0, 64, 89
1, 825530, Control_c, 0, 64, 91
1, 825545, Control_c, 0, 64, 92
1, 825559, Control_c, 0, 64, 93
1, 825574, Control_c, 0, 64, 94
1, 825589, Control_c, 0, 64, 95
1, 825619, Control_c, 0, 64, 97
1, 825694, Control_c, 0, 64, 99
1, 825768, Control_c, 0, 64, 101
1, 825871, Control_c, 0, 64, 103
1, 825927, Note_off_c, 0, 54, 2
1, 825938, Note_off_c, 0, 30, 35
1, 826014, Note_off_c, 0, 42, 19
1, 826828, Control_c, 0, 64, 101
1, 826894, Control_c, 0, 64, 99
1, 826924, Control_c, 0, 64, 96
1, 826938, Control_c, 0, 64, 96
1, 826953, Control_c, 0, 64, 95
1, 826983, Control_c, 0, 64, 95
1, 827012, Control_c, 0, 64, 94
1, 827042, Control_c, 0, 64, 94
1, 827071, Control_c, 0, 64, 93
1, 827101, Control_c, 0, 64, 93
1, 827131, Control_c, 0, 64, 92
1, 827145, Control_c, 0, 64, 91
1, 827160, Control_c, 0, 64, 90
1, 827175, Control_c, 0, 64, 88
1, 827190, Control_c, 0, 64, 87
1, 827206, Control_c, 0, 64, 86
1, 827221, Control_c, 0, 64, 84
1, 827235, Control_c, 0, 64, 83
1, 827250, Control_c, 0, 64, 81
1, 827265, Control_c, 0, 64, 80
1, 827280, Control_c, 0, 64, 79
1, 827295, Control_c, 0, 64, 79
1, 827309, Control_c, 0, 64, 78
1, 827324, Control_c, 0, 64, 77
1, 827339, Control_c, 0, 64, 77
1, 827354, Control_c, 0, 64, 75
1, 827369, Control_c, 0, 64, 75
1, 827384, Control_c, 0, 64, 74
1, 827399, Control_c, 0, 64, 73
1, 827414, Control_c, 0, 64, 71
1, 827428, Control_c, 0, 64, 70
1, 827443, Control_c, 0, 64, 67
1, 827458, Control_c, 0, 64, 65
1, 827472, Control_c, 0, 64, 63
1, 827487, Control_c, 0, 64, 62
1, 827547, Control_c, 0, 64, 62
1, 827576, Control_c, 0, 64, 62
1, 827590, Control_c, 0, 64, 63
1, 827605, Control_c, 0, 64, 65
1, 827620, Control_c, 0, 64, 67
1, 827642, Control_c, 0, 64, 67
1, 827657, Control_c, 0, 64, 68
1, 827672, Control_c, 0, 64, 69
1, 827686, Control_c, 0, 64, 69
1, 827701, Control_c, 0, 64, 70
1, 827716, Control_c, 0, 64, 72
1, 827730, Note_on_c, 0, 54, 37
1, 827731, Control_c, 0, 64, 72
1, 827746, Control_c, 0, 64, 73
1, 827752, Note_on_c, 0, 30, 26
1, 827760, Control_c, 0, 64, 74
1, 827775, Note_on_c, 0, 42, 8
1, 827775, Control_c, 0, 64, 76
1, 827790, Control_c, 0, 64, 77
1, 827805, Control_c, 0, 64, 79
1, 827820, Control_c, 0, 64, 81
1, 827834, Control_c, 0, 64, 83
1, 827894, Control_c, 0, 64, 83
1, 828073, Control_c, 0, 64, 84
1, 828087, Control_c, 0, 64, 84
1, 828117, Control_c, 0, 64, 85
1, 828132, Control_c, 0, 64, 86
1, 828147, Control_c, 0, 64, 87
1, 828162, Control_c, 0, 64, 88
1, 828176, Control_c, 0, 64, 90
1, 828191, Control_c, 0, 64, 91
1, 828206, Control_c, 0, 64, 93
1, 828221, Control_c, 0, 64, 94
1, 828236, Control_c, 0, 64, 95
1, 828280, Control_c, 0, 64, 97
1, 828324, Control_c, 0, 64, 100
1, 828340, Control_c, 0, 64, 102
1, 828355, Control_c, 0, 64, 105
1, 828377, Control_c, 0, 64, 110
1, 828391, Control_c, 0, 64, 118
1, 828406, Control_c, 0, 64, 127
1, 833176, Note_off_c, 0, 30, 7
1, 833190, Note_off_c, 0, 42, 19
1, 833438, Note_off_c, 0, 54, 24
1, 833551, Control_c, 0, 64, 120
1, 833566, Control_c, 0, 64, 117
1, 833581, Control_c, 0, 64, 114
1, 833611, Control_c, 0, 64, 111
1, 833648, Control_c, 0, 64, 108
1, 833663, Control_c, 0, 64, 106
1, 833693, Control_c, 0, 64, 104
1, 833722, Control_c, 0, 64, 101
1, 833767, Control_c, 0, 64, 98
1, 833796, Control_c, 0, 64, 96
1, 833811, Control_c, 0, 64, 95
1, 833826, Control_c, 0, 64, 93
1, 833841, Control_c, 0, 64, 92
1, 833855, Control_c, 0, 64, 91
1, 833870, Control_c, 0, 64, 89
1, 833885, Control_c, 0, 64, 88
1, 833900, Control_c, 0, 64, 86
1, 833915, Control_c, 0, 64, 84
1, 833930, Control_c, 0, 64, 81
1, 833945, Control_c, 0, 64, 79
1, 833960, Control_c, 0, 64, 77
1, 833974, Control_c, 0, 64, 76
1, 833989, Control_c, 0, 64, 74
1, 834004, Control_c, 0, 64, 73
1, 834019, Control_c, 0, 64, 71
1, 834034, Control_c, 0, 64, 69
1, 834048, Control_c, 0, 64, 68
1, 834063, Control_c, 0, 64, 66
1, 834078, Control_c, 0, 64, 65
1, 834093, Control_c, 0, 64, 64
1, 834108, Control_c, 0, 64, 64
1, 834181, Control_c, 0, 64, 63
1, 834226, Control_c, 0, 64, 63
1, 834270, Control_c, 0, 64, 62
1, 834300, Control_c, 0, 64, 62
1, 834315, Control_c, 0, 64, 61
1, 834329, Control_c, 0, 64, 61
1, 834344, Control_c, 0, 64, 60
1, 834412, Control_c, 0, 64, 60
1, 834457, Control_c, 0, 64, 59
1, 834486, Control_c, 0, 64, 59
1, 834501, Control_c, 0, 64, 58
1, 834531, Control_c, 0, 64, 58
1, 834590, Control_c, 0, 64, 57
1, 834619, Control_c, 0, 64, 57
1, 834693, Control_c, 0, 64, 56
1, 834783, Control_c, 0, 64, 56
1, 834842, Control_c, 0, 64, 55
1, 834871, Control_c, 0, 64, 54
1, 834886, Control_c, 0, 64, 54
1, 834916, Control_c, 0, 64, 53
1, 835049, Control_c, 0, 64, 53
1, 835145, Control_c, 0, 64, 52
1, 835206, Control_c, 0, 64, 52
1, 835250, Control_c, 0, 64, 51
1, 835265, Control_c, 0, 64, 50
1, 835280, Control_c, 0, 64, 50
1, 835398, Control_c, 0, 64, 49
1, 835561, Control_c, 0, 64, 49
1, 835620, Control_c, 0, 64, 48
1, 835650, Control_c, 0, 64, 47
1, 835665, Control_c, 0, 64, 45
1, 835680, Control_c, 0, 64, 45
1, 835694, Control_c, 0, 64, 44
1, 835709, Control_c, 0, 64, 43
1, 835724, Control_c, 0, 64, 43
1, 835753, Control_c, 0, 64, 41
1, 835768, Control_c, 0, 64, 41
1, 835783, Control_c, 0, 64, 39
1, 835798, Control_c, 0, 64, 37
1, 835812, Control_c, 0, 64, 36
1, 835827, Control_c, 0, 64, 35
1, 835857, Control_c, 0, 64, 35
1, 835880, Control_c, 0, 64, 34
1, 835894, Control_c, 0, 64, 34
1, 835924, Control_c, 0, 64, 33
1, 835938, Control_c, 0, 64, 33
1, 835953, Control_c, 0, 64, 0
1, 836206, Control_c, 0, 67, 125
1, 836221, Control_c, 0, 67, 113
1, 836236, Control_c, 0, 67, 102
1, 836250, Control_c, 0, 67, 91
1, 836265, Control_c, 0, 67, 81
1, 836280, Control_c, 0, 67, 71
1, 836295, Control_c, 0, 67, 62
1, 836310, Control_c, 0, 67, 51
1, 836324, Control_c, 0, 67, 38
1, 836339, Control_c, 0, 67, 23
1, 836354, Control_c, 0, 67, 0
1, 840612, Note_on_c, 0, 81, 64
1, 840637, Note_on_c, 0, 85, 66
1, 840640, Note_off_c, 0, 81, 64
1, 840661, Note_on_c, 0, 88, 94
1, 840672, Note_off_c, 0, 85, 65
1, 840689, Note_off_c, 0, 88, 65
1, 840964, Note_on_c, 0, 76, 70
1, 840968, Note_on_c, 0, 69, 61
1, 841004, Note_off_c, 0, 69, 60
1, 841004, Note_off_c, 0, 76, 55
1, 841209, Note_on_c, 0, 64, 53
1, 841218, Note_on_c, 0, 57, 45
1, 841221, Note_on_c, 0, 61, 39
1, 841236, Note_off_c, 0, 64, 55
1, 841251, Note_off_c, 0, 57, 53
1, 841253, Note_off_c, 0, 61, 46
1, 841421, Note_on_c, 0, 56, 59
1, 841424, Note_on_c, 0, 64, 57
1, 841442, Note_on_c, 0, 59, 34
1, 841442, Note_off_c, 0, 56, 61
1, 841444, Note_off_c, 0, 64, 61
1, 841475, Note_off_c, 0, 59, 50
1, 841624, Note_on_c, 0, 68, 54
1, 841630, Note_on_c, 0, 71, 52
1, 841645, Note_off_c, 0, 68, 64
1, 841668, Note_off_c, 0, 71, 62
1, 841713, Note_on_c, 0, 76, 58
1, 841755, Note_off_c, 0, 76, 58
1, 841792, Note_on_c, 0, 61, 55
1, 841798, Note_on_c, 0, 64, 41
1, 841805, Control_c, 0, 64, 64
1, 841812, Note_on_c, 0, 69, 58
1, 841814, Note_on_c, 0, 73, 58
1, 841816, Note_on_c, 0, 57, 37
1, 841818, Control_c, 0, 64, 80
1, 841833, Control_c, 0, 64, 98
1, 841835, Note_off_c, 0, 69, 64
1, 841848, Control_c, 0, 64, 127
1, 841877, Note_on_c, 0, 76, 70
1, 841880, Note_off_c, 0, 73, 59
1, 841901, Note_off_c, 0, 76, 67
1, 841918, Note_off_c, 0, 64, 47
1, 841994, Note_on_c, 0, 88, 100
1, 841999, Note_off_c, 0, 57, 32
1, 842002, Note_on_c, 0, 86, 79
1, 842006, Note_on_c, 0, 83, 58
1, 842018, Control_c, 0, 64, 113
1, 842023, Note_off_c, 0, 61, 53
1, 842023, Note_off_c, 0, 86, 71
1, 842026, Note_off_c, 0, 83, 65
1, 842030, Note_off_c, 0, 88, 66
1, 842033, Control_c, 0, 64, 67
1, 842048, Control_c, 0, 64, 0
1, 842210, Note_on_c, 0, 71, 70
1, 842212, Note_on_c, 0, 76, 70
1, 842216, Note_on_c, 0, 74, 64
1, 842234, Note_off_c, 0, 71, 69
1, 842237, Note_off_c, 0, 74, 64
1, 842238, Note_off_c, 0, 76, 68
1, 842409, Note_on_c, 0, 59, 44
1, 842412, Note_on_c, 0, 62, 46
1, 842413, Note_on_c, 0, 64, 45
1, 842438, Note_off_c, 0, 64, 54
1, 842440, Note_off_c, 0, 59, 55
1, 842440, Note_off_c, 0, 62, 57
1, 842610, Note_on_c, 0, 57, 54
1, 842613, Note_on_c, 0, 64, 49
1, 842619, Note_on_c, 0, 61, 50
1, 842634, Note_off_c, 0, 57, 58
1, 842636, Note_off_c, 0, 64, 53
1, 842645, Note_off_c, 0, 61, 55
1, 842805, Note_on_c, 0, 69, 55
1, 842807, Note_on_c, 0, 73, 61
1, 842827, Note_off_c, 0, 69, 63
1, 842857, Note_off_c, 0, 73, 54
1, 842892, Note_on_c, 0, 76, 61
1, 842926, Note_off_c, 0, 76, 62
1, 842963, Note_on_c, 0, 64, 59
1, 842971, Note_on_c, 0, 59, 45
1, 842971, Note_on_c, 0, 62, 50
1, 842974, Note_on_c, 0, 71, 62
1, 842974, Control_c, 0, 64, 55
1, 842989, Note_on_c, 0, 74, 56
1, 842989, Control_c, 0, 64, 70
1, 843001, Note_off_c, 0, 71, 65
1, 843004, Control_c, 0, 64, 77
1, 843019, Control_c, 0, 64, 90
1, 843034, Control_c, 0, 64, 110
1, 843035, Note_off_c, 0, 74, 63
1, 843038, Note_on_c, 0, 76, 62
1, 843049, Control_c, 0, 64, 127
1, 843058, Note_off_c, 0, 76, 59
1, 843123, Note_off_c, 0, 64, 60
1, 843128, Note_off_c, 0, 59, 62
1, 843129, Note_off_c, 0, 62, 61
1, 843155, Note_on_c, 0, 85, 66
1, 843157, Note_on_c, 0, 93, 95
1, 843158, Note_on_c, 0, 88, 85
1, 843171, Note_off_c, 0, 85, 66
1, 843178, Note_off_c, 0, 88, 72
1, 843192, Note_off_c, 0, 93, 65
1, 843198, Control_c, 0, 64, 78
1, 843213, Control_c, 0, 64, 53
1, 843227, Control_c, 0, 64, 0
1, 843368, Note_on_c, 0, 81, 78
1, 843388, Note_off_c, 0, 81, 68
1, 843389, Note_on_c, 0, 73, 44
1, 843418, Note_off_c, 0, 73, 55
1, 843561, Note_on_c, 0, 64, 65
1, 843591, Note_on_c, 0, 61, 16
1, 843591, Note_off_c, 0, 64, 65
1, 843628, Note_off_c, 0, 61, 39
1, 843779, Note_on_c, 0, 59, 62
1, 843783, Note_on_c, 0, 67, 70
1, 843786, Note_on_c, 0, 62, 59
1, 843961, Note_on_c, 0, 79, 70
1, 843964, Note_on_c, 0, 74, 59
1, 843987, Note_off_c, 0, 79, 68
1, 843990, Note_off_c, 0, 74, 56
1, 844098, Note_off_c, 0, 67, 62
1, 844114, Note_off_c, 0, 59, 63
1, 844131, Control_c, 0, 64, 34
1, 844133, Note_on_c, 0, 83, 71
1, 844135, Note_off_c, 0, 62, 63
1, 844146, Control_c, 0, 64, 64
1, 844149, Note_on_c, 0, 86, 85
1, 844152, Note_off_c, 0, 83, 68
1, 844157, Note_on_c, 0, 91, 92
1, 844161, Control_c, 0, 64, 70
1, 844166, Note_off_c, 0, 86, 72
1, 844175, Control_c, 0, 64, 73
1, 844192, Note_off_c, 0, 91, 66
1, 844205, Control_c, 0, 64, 72
1, 844220, Control_c, 0, 64, 66
1, 844235, Control_c, 0, 64, 55
1, 844250, Control_c, 0, 64, 0
1, 844325, Note_on_c, 0, 54, 47
1, 844354, Control_c, 0, 67, 20
1, 844369, Control_c, 0, 67, 26
1, 844372, Note_on_c, 0, 91, 73
1, 844372, Note_on_c, 0, 59, 33
1, 844383, Control_c, 0, 67, 33
1, 844398, Control_c, 0, 67, 46
1, 844399, Note_on_c, 0, 62, 33
1, 844413, Control_c, 0, 67, 65
1, 844420, Note_on_c, 0, 90, 61
1, 844423, Note_off_c, 0, 91, 59
1, 844428, Control_c, 0, 67, 88
1, 844442, Control_c, 0, 67, 105
1, 844447, Note_off_c, 0, 90, 66
1, 844457, Control_c, 0, 67, 118
1, 844460, Note_off_c, 0, 54, 62
1, 844462, Note_off_c, 0, 62, 60
1, 844465, Note_off_c, 0, 59, 63
1, 844472, Control_c, 0, 67, 127
1, 844473, Note_on_c, 0, 89, 80
1, 844541, Note_off_c, 0, 89, 58
1, 844542, Note_on_c, 0, 90, 67
1, 844579, Note_off_c, 0, 90, 56
1, 844620, Note_on_c, 0, 93, 63
1, 844645, Note_off_c, 0, 93, 69
1, 844691, Note_on_c, 0, 54, 43
1, 844694, Note_on_c, 0, 61, 51
1, 844705, Note_on_c, 0, 88, 69
1, 844712, Note_on_c, 0, 64, 15
1, 844721, Note_off_c, 0, 54, 54
1, 844724, Note_off_c, 0, 61, 62
1, 844741, Note_off_c, 0, 88, 64
1, 844751, Note_off_c, 0, 64, 30
1, 844786, Note_on_c, 0, 94, 72
1, 844813, Note_off_c, 0, 94, 65
1, 844828, Control_c, 0, 67, 124
1, 844843, Control_c, 0, 67, 103
1, 844861, Note_on_c, 0, 95, 96
1, 844865, Control_c, 0, 67, 60
1, 844877, Note_on_c, 0, 62, 57
1, 844879, Note_on_c, 0, 59, 54
1, 844880, Control_c, 0, 67, 0
1, 844956, Note_on_c, 0, 90, 78
1, 844959, Note_off_c, 0, 95, 61
1, 844969, Control_c, 0, 64, 58
1, 844984, Control_c, 0, 64, 78
1, 844999, Control_c, 0, 64, 97
1, 845013, Control_c, 0, 64, 127
1, 845043, Note_on_c, 0, 86, 72
1, 845069, Note_off_c, 0, 90, 61
1, 845095, Note_off_c, 0, 86, 59
1, 845117, Note_on_c, 0, 83, 67
1, 845140, Note_off_c, 0, 83, 70
1, 845204, Note_off_c, 0, 59, 59
1, 845234, Note_on_c, 0, 74, 28
1, 845274, Note_off_c, 0, 74, 44
1, 845314, Note_off_c, 0, 62, 35
1, 845357, Note_on_c, 0, 83, 63
1, 845374, Note_off_c, 0, 83, 65
1, 845375, Note_on_c, 0, 86, 94
1, 845383, Note_on_c, 0, 91, 95
1, 845392, Note_off_c, 0, 86, 72
1, 845398, Control_c, 0, 64, 95
1, 845409, Note_off_c, 0, 91, 62
1, 845413, Control_c, 0, 64, 59
1, 845428, Control_c, 0, 64, 0
1, 845572, Note_on_c, 0, 71, 74
1, 845572, Note_on_c, 0, 79, 79
1, 845576, Note_on_c, 0, 74, 77
1, 845591, Note_off_c, 0, 79, 73
1, 845602, Note_off_c, 0, 71, 71
1, 845609, Note_off_c, 0, 74, 68
1, 845770, Note_on_c, 0, 67, 62
1, 845771, Note_on_c, 0, 62, 60
1, 845777, Note_on_c, 0, 59, 47
1, 845789, Note_off_c, 0, 67, 64
1, 845803, Note_off_c, 0, 59, 58
1, 845803, Note_off_c, 0, 62, 65
1, 845970, Note_on_c, 0, 65, 84
1, 845974, Note_on_c, 0, 57, 68
1, 845983, Note_on_c, 0, 60, 66
1, 846148, Note_on_c, 0, 72, 61
1, 846152, Note_on_c, 0, 77, 69
1, 846166, Note_off_c, 0, 72, 64
1, 846170, Note_on_c, 0, 69, 18
1, 846175, Note_off_c, 0, 77, 68
1, 846214, Note_off_c, 0, 69, 30
1, 846307, Note_off_c, 0, 65, 62
1, 846316, Note_off_c, 0, 57, 63
1, 846321, Note_on_c, 0, 81, 69
1, 846331, Note_off_c, 0, 60, 65
1, 846334, Note_on_c, 0, 84, 88
1, 846338, Note_off_c, 0, 81, 67
1, 846341, Note_on_c, 0, 89, 95
1, 846358, Note_off_c, 0, 84, 73
1, 846363, Control_c, 0, 67, 26
1, 846378, Control_c, 0, 67, 46
1, 846385, Note_off_c, 0, 89, 65
1, 846393, Control_c, 0, 67, 76
1, 846408, Control_c, 0, 67, 108
1, 846423, Control_c, 0, 67, 127
1, 846570, Note_on_c, 0, 44, 46
1, 846593, Note_on_c, 0, 89, 68
1, 846630, Control_c, 0, 64, 40
1, 846634, Note_on_c, 0, 88, 62
1, 846645, Control_c, 0, 64, 59
1, 846660, Control_c, 0, 64, 67
1, 846664, Note_off_c, 0, 89, 45
1, 846675, Control_c, 0, 64, 72
1, 846685, Note_off_c, 0, 88, 55
1, 846690, Control_c, 0, 64, 80
1, 846700, Note_on_c, 0, 87, 68
1, 846704, Control_c, 0, 64, 89
1, 846719, Control_c, 0, 64, 100
1, 846723, Note_off_c, 0, 44, 35
1, 846734, Control_c, 0, 64, 119
1, 846745, Note_off_c, 0, 87, 54
1, 846749, Control_c, 0, 64, 127
1, 846777, Note_on_c, 0, 52, 41
1, 846787, Note_on_c, 0, 88, 71
1, 846863, Note_off_c, 0, 88, 55
1, 846868, Note_on_c, 0, 87, 69
1, 846941, Note_off_c, 0, 87, 62
1, 846947, Note_on_c, 0, 59, 45
1, 846960, Note_on_c, 0, 88, 66
1, 846974, Note_off_c, 0, 59, 62
1, 846998, Note_off_c, 0, 88, 62
1, 847021, Note_off_c, 0, 52, 19
1, 847024, Note_on_c, 0, 90, 75
1, 847055, Note_off_c, 0, 90, 59
1, 847075, Control_c, 0, 64, 116
1, 847090, Control_c, 0, 64, 79
1, 847112, Control_c, 0, 64, 55
1, 847115, Note_on_c, 0, 45, 44
1, 847126, Control_c, 0, 64, 0
1, 847143, Note_on_c, 0, 90, 62
1, 847172, Control_c, 0, 64, 55
1, 847187, Control_c, 0, 64, 68
1, 847198, Note_off_c, 0, 45, 57
1, 847201, Control_c, 0, 64, 79
1, 847215, Note_on_c, 0, 88, 73
1, 847216, Control_c, 0, 64, 93
1, 847219, Note_off_c, 0, 90, 56
1, 847231, Control_c, 0, 64, 100
1, 847246, Control_c, 0, 64, 107
1, 847261, Control_c, 0, 64, 113
1, 847276, Control_c, 0, 64, 127
1, 847305, Note_on_c, 0, 52, 39
1, 847305, Note_on_c, 0, 85, 66
1, 847314, Note_off_c, 0, 88, 60
1, 847350, Note_off_c, 0, 85, 57
1, 847389, Note_on_c, 0, 81, 57
1, 847409, Note_off_c, 0, 81, 62
1, 847477, Note_on_c, 0, 76, 68
1, 847481, Note_on_c, 0, 61, 50
1, 847503, Note_off_c, 0, 76, 68
1, 847506, Note_off_c, 0, 61, 61
1, 847634, Note_off_c, 0, 52, 40
1, 847645, Control_c, 0, 64, 113
1, 847660, Control_c, 0, 64, 80
1, 847671, Note_on_c, 0, 47, 54
1, 847675, Control_c, 0, 64, 60
1, 847690, Control_c, 0, 64, 0
1, 847701, Note_on_c, 0, 76, 77
1, 847705, Note_on_c, 0, 74, 79
1, 847722, Note_off_c, 0, 76, 69
1, 847728, Note_off_c, 0, 74, 69
1, 847784, Note_off_c, 0, 47, 43
1, 847801, Note_on_c, 0, 76, 59
1, 847809, Note_on_c, 0, 74, 54
1, 847820, Note_off_c, 0, 76, 62
1, 847835, Note_off_c, 0, 74, 55
1, 847875, Control_c, 0, 67, 112
1, 847880, Note_on_c, 0, 76, 77
1, 847882, Note_on_c, 0, 74, 59
1, 847887, Note_on_c, 0, 56, 49
1, 847890, Control_c, 0, 67, 58
1, 847902, Note_off_c, 0, 76, 70
1, 847904, Note_off_c, 0, 74, 62
1, 847904, Control_c, 0, 67, 0
1, 847964, Note_on_c, 0, 76, 79
1, 847981, Note_on_c, 0, 74, 64
1, 847991, Note_off_c, 0, 76, 62
1, 848001, Note_off_c, 0, 74, 63
1, 848040, Note_on_c, 0, 62, 52
1, 848064, Note_on_c, 0, 76, 41
1, 848064, Note_off_c, 0, 62, 60
1, 848091, Note_off_c, 0, 76, 47
1, 848134, Note_on_c, 0, 76, 57
1, 848143, Poly_aftertouch_c, 0, 74, 127
1, 848161, Poly_aftertouch_c, 0, 74, 0
1, 848179, Note_off_c, 0, 76, 62
1, 848188, Note_off_c, 0, 56, 54
1, 848234, Note_on_c, 0, 49, 48
1, 848236, Note_on_c, 0, 78, 73
1, 848247, Note_on_c, 0, 73, 62
1, 848280, Note_off_c, 0, 73, 62
1, 848320, Control_c, 0, 67, 21
1, 848335, Note_on_c, 0, 76, 71
1, 848335, Control_c, 0, 67, 24
1, 848344, Note_off_c, 0, 78, 59
1, 848349, Control_c, 0, 67, 27
1, 848364, Control_c, 0, 67, 31
1, 848379, Control_c, 0, 67, 37
1, 848393, Control_c, 0, 67, 45
1, 848408, Control_c, 0, 67, 56
1, 848416, Note_off_c, 0, 76, 62
1, 848417, Note_on_c, 0, 57, 34
1, 848418, Note_on_c, 0, 73, 63
1, 848423, Control_c, 0, 67, 65
1, 848438, Control_c, 0, 67, 72
1, 848453, Control_c, 0, 67, 76
1, 848456, Note_off_c, 0, 73, 61
1, 848468, Control_c, 0, 67, 79
1, 848483, Control_c, 0, 67, 85
1, 848493, Note_on_c, 0, 69, 60
1, 848498, Control_c, 0, 67, 94
1, 848513, Control_c, 0, 67, 105
1, 848523, Note_off_c, 0, 69, 66
1, 848527, Control_c, 0, 67, 118
1, 848534, Note_off_c, 0, 49, 44
1, 848534, Note_off_c, 0, 57, 59
1, 848542, Control_c, 0, 67, 127
1, 848587, Control_c, 0, 64, 39
1, 848599, Note_on_c, 0, 61, 55
1, 848607, Note_on_c, 0, 64, 55
1, 848608, Control_c, 0, 64, 58
1, 848622, Note_off_c, 0, 61, 61
1, 848623, Control_c, 0, 64, 63
1, 848632, Note_off_c, 0, 64, 59
1, 848638, Control_c, 0, 64, 65
1, 848653, Control_c, 0, 64, 66
1, 848668, Control_c, 0, 64, 68
1, 848683, Control_c, 0, 64, 70
1, 848697, Control_c, 0, 64, 71
1, 848712, Control_c, 0, 64, 71
1, 848742, Control_c, 0, 64, 69
1, 848757, Control_c, 0, 64, 63
1, 848772, Control_c, 0, 64, 44
1, 848787, Control_c, 0, 64, 0
1, 848788, Note_on_c, 0, 47, 45
1, 848809, Note_on_c, 0, 64, 55
1, 848857, Note_off_c, 0, 64, 53
1, 848896, Note_on_c, 0, 66, 55
1, 848917, Note_off_c, 0, 47, 54
1, 848945, Note_off_c, 0, 66, 58
1, 848961, Note_on_c, 0, 50, 41
1, 848988, Note_on_c, 0, 62, 59
1, 848993, Note_off_c, 0, 50, 46
1, 849025, Note_off_c, 0, 62, 63
1, 849056, Note_on_c, 0, 66, 56
1, 849094, Note_off_c, 0, 66, 63
1, 849113, Control_c, 0, 67, 121
1, 849128, Control_c, 0, 67, 82
1, 849140, Note_on_c, 0, 68, 63
1, 849143, Control_c, 0, 67, 27
1, 849149, Note_on_c, 0, 61, 43
1, 849158, Control_c, 0, 67, 0
1, 849159, Note_on_c, 0, 64, 32
1, 849162, Note_on_c, 0, 52, 23
1, 849188, Note_off_c, 0, 68, 59
1, 849191, Note_off_c, 0, 64, 45
1, 849197, Note_off_c, 0, 61, 58
1, 849200, Note_off_c, 0, 52, 44
1, 849222, Note_on_c, 0, 59, 56
1, 849230, Note_on_c, 0, 62, 55
1, 849243, Note_off_c, 0, 59, 64
1, 849255, Note_off_c, 0, 62, 61
1, 849332, Note_on_c, 0, 61, 53
1, 849332, Note_on_c, 0, 69, 53
1, 849428, Note_on_c, 0, 57, 49
1, 849481, Note_off_c, 0, 57, 57
1, 849523, Note_on_c, 0, 52, 49
1, 849558, Note_off_c, 0, 52, 63
1, 849607, Note_on_c, 0, 49, 53
1, 849649, Note_off_c, 0, 61, 61
1, 849673, Note_off_c, 0, 49, 58
1, 849688, Note_off_c, 0, 69, 63
1, 849700, Control_c, 0, 64, 48
1, 849715, Control_c, 0, 64, 66
1, 849720, Note_on_c, 0, 45, 58
1, 849729, Control_c, 0, 64, 74
1, 849744, Control_c, 0, 64, 88
1, 849752, Note_off_c, 0, 45, 64
1, 849759, Control_c, 0, 64, 117
1, 849774, Control_c, 0, 64, 127
1, 849922, Note_on_c, 0, 81, 64
1, 849939, Note_on_c, 0, 85, 80
1, 849940, Note_off_c, 0, 81, 65
1, 849955, Note_on_c, 0, 88, 93
1, 849969, Note_off_c, 0, 85, 65
1, 849981, Control_c, 0, 64, 116
1, 849988, Note_off_c, 0, 88, 65
1, 849996, Control_c, 0, 64, 69
1, 850011, Control_c, 0, 64, 34
1, 850026, Control_c, 0, 64, 0
1, 850218, Note_on_c, 0, 73, 59
1, 850220, Note_on_c, 0, 69, 52
1, 850233, Note_on_c, 0, 76, 38
1, 850243, Note_off_c, 0, 69, 60
1, 850253, Note_off_c, 0, 73, 60
1, 850259, Note_off_c, 0, 76, 47
1, 850422, Note_on_c, 0, 64, 48
1, 850424, Note_on_c, 0, 61, 45
1, 850425, Note_on_c, 0, 57, 45
1, 850446, Note_off_c, 0, 64, 58
1, 850451, Note_off_c, 0, 61, 54
1, 850464, Note_off_c, 0, 57, 59
1, 850617, Note_on_c, 0, 56, 70
1, 850632, Note_on_c, 0, 59, 55
1, 850634, Note_on_c, 0, 64, 45
1, 850645, Note_off_c, 0, 56, 65
1, 850654, Note_off_c, 0, 59, 60
1, 850660, Note_off_c, 0, 64, 36
1, 850818, Note_on_c, 0, 68, 56
1, 850827, Note_on_c, 0, 71, 51
1, 850849, Note_off_c, 0, 68, 65
1, 850874, Note_off_c, 0, 71, 62
1, 850921, Note_on_c, 0, 76, 52
1, 850972, Note_off_c, 0, 76, 56
1, 850998, Note_on_c, 0, 64, 49
1, 851004, Control_c, 0, 64, 36
1, 851006, Note_on_c, 0, 69, 62
1, 851011, Note_on_c, 0, 57, 36
1, 851016, Note_on_c, 0, 73, 57
1, 851019, Control_c, 0, 64, 58
1, 851023, Note_on_c, 0, 61, 39
1, 851034, Control_c, 0, 64, 65
1, 851038, Note_off_c, 0, 69, 63
1, 851049, Control_c, 0, 64, 71
1, 851063, Control_c, 0, 64, 80
1, 851069, Note_off_c, 0, 73, 60
1, 851076, Note_on_c, 0, 76, 68
1, 851078, Control_c, 0, 64, 94
1, 851093, Control_c, 0, 64, 127
1, 851102, Note_off_c, 0, 76, 67
1, 851109, Note_off_c, 0, 64, 58
1, 851183, Note_on_c, 0, 83, 89
1, 851192, Note_on_c, 0, 88, 98
1, 851196, Note_on_c, 0, 86, 83
1, 851200, Note_off_c, 0, 83, 74
1, 851215, Note_off_c, 0, 86, 71
1, 851225, Note_off_c, 0, 88, 67
1, 851231, Note_off_c, 0, 57, 32
1, 851236, Note_off_c, 0, 61, 56
1, 851242, Control_c, 0, 64, 76
1, 851257, Control_c, 0, 64, 52
1, 851272, Control_c, 0, 64, 0
1, 851418, Note_on_c, 0, 71, 48
1, 851418, Note_on_c, 0, 76, 57
1, 851420, Note_on_c, 0, 74, 52
1, 851442, Note_off_c, 0, 76, 58
1, 851442, Note_off_c, 0, 71, 57
1, 851446, Note_off_c, 0, 74, 58
1, 851617, Note_on_c, 0, 62, 55
1, 851618, Note_on_c, 0, 64, 57
1, 851619, Note_on_c, 0, 59, 50
1, 851644, Note_off_c, 0, 64, 58
1, 851648, Note_off_c, 0, 62, 61
1, 851660, Note_off_c, 0, 59, 62
1, 851811, Note_on_c, 0, 64, 67
1, 851812, Note_on_c, 0, 57, 65
1, 851818, Note_on_c, 0, 61, 65
1, 851828, Note_off_c, 0, 64, 66
1, 851833, Note_off_c, 0, 57, 65
1, 851844, Note_off_c, 0, 61, 63
1, 852015, Note_on_c, 0, 69, 59
1, 852024, Note_on_c, 0, 73, 63
1, 852045, Note_off_c, 0, 69, 66
1, 852092, Note_off_c, 0, 73, 58
1, 852097, Note_on_c, 0, 76, 73
1, 852134, Note_off_c, 0, 76, 59
1, 852170, Note_on_c, 0, 64, 70
1, 852176, Note_on_c, 0, 62, 61
1, 852178, Note_on_c, 0, 59, 56
1, 852183, Note_on_c, 0, 71, 74
1, 852195, Note_on_c, 0, 74, 71
1, 852215, Control_c, 0, 64, 52
1, 852216, Note_off_c, 0, 71, 59
1, 852230, Control_c, 0, 64, 64
1, 852244, Control_c, 0, 64, 69
1, 852246, Note_on_c, 0, 76, 81
1, 852257, Note_off_c, 0, 74, 65
1, 852259, Control_c, 0, 64, 76
1, 852266, Note_off_c, 0, 76, 70
1, 852274, Control_c, 0, 64, 89
1, 852289, Control_c, 0, 64, 127
1, 852329, Note_off_c, 0, 64, 58
1, 852358, Note_off_c, 0, 62, 61
1, 852363, Note_off_c, 0, 59, 61
1, 852374, Note_on_c, 0, 85, 76
1, 852377, Note_on_c, 0, 88, 101
1, 852385, Note_on_c, 0, 93, 90
1, 852388, Note_off_c, 0, 85, 72
1, 852393, Note_off_c, 0, 88, 73
1, 852418, Note_off_c, 0, 93, 65
1, 852429, Control_c, 0, 64, 110
1, 852443, Control_c, 0, 64, 73
1, 852458, Control_c, 0, 64, 47
1, 852473, Control_c, 0, 64, 0
1, 852576, Note_on_c, 0, 73, 80
1, 852579, Note_on_c, 0, 81, 78
1, 852589, Note_on_c, 0, 76, 62
1, 852595, Note_off_c, 0, 73, 70
1, 852602, Note_off_c, 0, 81, 66
1, 852610, Note_off_c, 0, 76, 66
1, 852769, Note_on_c, 0, 64, 73
1, 852775, Note_on_c, 0, 61, 61
1, 852792, Note_off_c, 0, 64, 69
1, 852807, Note_off_c, 0, 61, 64
1, 853020, Note_on_c, 0, 67, 88
1, 853023, Note_on_c, 0, 59, 75
1, 853026, Note_on_c, 0, 62, 83
1, 853218, Note_on_c, 0, 74, 78
1, 853225, Note_on_c, 0, 71, 52
1, 853227, Note_on_c, 0, 79, 73
1, 853241, Note_off_c, 0, 74, 66
1, 853247, Note_off_c, 0, 71, 60
1, 853250, Note_off_c, 0, 79, 69
1, 853266, Control_c, 0, 64, 43
1, 853281, Control_c, 0, 64, 59
1, 853296, Control_c, 0, 64, 65
1, 853311, Control_c, 0, 64, 70
1, 853321, Note_off_c, 0, 67, 61
1, 853325, Control_c, 0, 64, 77
1, 853334, Note_off_c, 0, 59, 61
1, 853340, Control_c, 0, 64, 88
1, 853355, Control_c, 0, 64, 100
1, 853356, Note_off_c, 0, 62, 61
1, 853370, Control_c, 0, 64, 125
1, 853385, Control_c, 0, 64, 127
1, 853392, Note_on_c, 0, 83, 70
1, 853404, Note_on_c, 0, 86, 90
1, 853412, Note_on_c, 0, 91, 92
1, 853413, Note_off_c, 0, 83, 67
1, 853423, Note_off_c, 0, 86, 70
1, 853429, Control_c, 0, 64, 94
1, 853444, Control_c, 0, 64, 73
1, 853449, Note_off_c, 0, 91, 67
1, 853459, Control_c, 0, 64, 57
1, 853473, Control_c, 0, 64, 0
1, 853585, Note_on_c, 0, 54, 39
1, 853593, Control_c, 0, 67, 22
1, 853607, Control_c, 0, 67, 30
1, 853622, Control_c, 0, 67, 40
1, 853626, Note_on_c, 0, 59, 35
1, 853628, Note_on_c, 0, 91, 63
1, 853637, Control_c, 0, 67, 57
1, 853648, Note_on_c, 0, 62, 42
1, 853652, Control_c, 0, 67, 79
1, 853664, Note_off_c, 0, 91, 56
1, 853667, Control_c, 0, 67, 99
1, 853668, Note_on_c, 0, 90, 68
1, 853681, Control_c, 0, 67, 115
1, 853690, Note_off_c, 0, 62, 62
1, 853691, Note_off_c, 0, 54, 60
1, 853692, Note_off_c, 0, 90, 69
1, 853696, Control_c, 0, 67, 127
1, 853700, Note_off_c, 0, 59, 61
1, 853729, Note_on_c, 0, 89, 76
1, 853796, Note_on_c, 0, 90, 67
1, 853798, Note_off_c, 0, 89, 60
1, 853842, Note_off_c, 0, 90, 55
1, 853892, Note_on_c, 0, 93, 56
1, 853910, Note_off_c, 0, 93, 64
1, 853963, Note_on_c, 0, 54, 43
1, 853968, Note_on_c, 0, 64, 45
1, 853970, Note_on_c, 0, 61, 45
1, 853973, Note_on_c, 0, 88, 62
1, 853991, Note_off_c, 0, 54, 56
1, 853992, Note_off_c, 0, 64, 52
1, 853996, Note_off_c, 0, 61, 56
1, 854004, Note_off_c, 0, 88, 65
1, 854048, Note_on_c, 0, 94, 72
1, 854088, Note_off_c, 0, 94, 59
1, 854132, Note_on_c, 0, 95, 91
1, 854159, Note_on_c, 0, 59, 44
1, 854161, Note_on_c, 0, 62, 49
1, 854179, Control_c, 0, 67, 107
1, 854194, Control_c, 0, 67, 72
1, 854209, Control_c, 0, 64, 48
1, 854209, Control_c, 0, 67, 26
1, 854220, Note_on_c, 0, 90, 78
1, 854223, Control_c, 0, 64, 68
1, 854223, Control_c, 0, 67, 0
1, 854228, Note_off_c, 0, 95, 62
1, 854238, Control_c, 0, 64, 82
1, 854253, Control_c, 0, 64, 116
1, 854267, Control_c, 0, 64, 127
1, 854324, Note_on_c, 0, 86, 62
1, 854338, Note_off_c, 0, 90, 61
1, 854364, Note_off_c, 0, 86, 58
1, 854383, Note_on_c, 0, 83, 71
1, 854406, Note_off_c, 0, 83, 70
1, 854415, Note_off_c, 0, 62, 51
1, 854434, Note_off_c, 0, 59, 35
1, 854480, Note_on_c, 0, 74, 76
1, 854504, Note_off_c, 0, 74, 66
1, 854643, Note_on_c, 0, 83, 73
1, 854666, Note_on_c, 0, 86, 91
1, 854671, Note_off_c, 0, 83, 57
1, 854675, Note_on_c, 0, 91, 92
1, 854686, Note_off_c, 0, 86, 70
1, 854690, Control_c, 0, 64, 101
1, 854705, Note_off_c, 0, 91, 64
1, 854705, Control_c, 0, 64, 69
1, 854720, Control_c, 0, 64, 0
1, 854871, Note_on_c, 0, 79, 75
1, 854876, Note_on_c, 0, 71, 62
1, 854877, Note_on_c, 0, 74, 67
1, 854892, Note_off_c, 0, 79, 71
1, 854895, Note_off_c, 0, 71, 65
1, 854895, Note_off_c, 0, 74, 64
1, 855059, Note_on_c, 0, 67, 64
1, 855067, Note_on_c, 0, 62, 59
1, 855073, Note_on_c, 0, 59, 43
1, 855080, Note_off_c, 0, 67, 66
1, 855097, Note_off_c, 0, 62, 62
1, 855100, Note_off_c, 0, 59, 56
1, 855277, Note_on_c, 0, 65, 84
1, 855281, Note_on_c, 0, 57, 69
1, 855287, Note_on_c, 0, 60, 71
1, 855480, Note_on_c, 0, 77, 69
1, 855481, Note_on_c, 0, 72, 54
1, 855486, Note_on_c, 0, 69, 41
1, 855503, Note_off_c, 0, 72, 57
1, 855503, Note_off_c, 0, 77, 68
1, 855517, Note_off_c, 0, 69, 53
1, 855573, Control_c, 0, 64, 38
1, 855587, Control_c, 0, 64, 56
1, 855602, Control_c, 0, 64, 63
1, 855617, Control_c, 0, 64, 67
1, 855623, Note_off_c, 0, 65, 59
1, 855632, Control_c, 0, 64, 75
1, 855646, Note_off_c, 0, 57, 60
1, 855647, Control_c, 0, 64, 91
1, 855661, Control_c, 0, 64, 127
1, 855669, Note_on_c, 0, 81, 70
1, 855670, Note_off_c, 0, 60, 62
1, 855685, Note_on_c, 0, 84, 86
1, 855687, Note_off_c, 0, 81, 67
1, 855696, Note_on_c, 0, 89, 94
1, 855703, Note_off_c, 0, 84, 72
1, 855721, Note_off_c, 0, 89, 63
1, 855765, Control_c, 0, 64, 94
1, 855780, Control_c, 0, 64, 72
1, 855795, Control_c, 0, 64, 59
1, 855810, Control_c, 0, 64, 0
1, 855810, Control_c, 0, 67, 20
1, 855825, Control_c, 0, 67, 23
1, 855840, Control_c, 0, 67, 28
1, 855855, Control_c, 0, 67, 35
1, 855869, Control_c, 0, 67, 46
1, 855884, Control_c, 0, 67, 62
1, 855899, Control_c, 0, 67, 76
1, 855913, Control_c, 0, 67, 87
1, 855917, Note_on_c, 0, 44, 37
1, 855928, Control_c, 0, 67, 96
1, 855943, Control_c, 0, 64, 42
1, 855943, Control_c, 0, 67, 109
1, 855952, Note_on_c, 0, 89, 61
1, 855959, Control_c, 0, 64, 57
1, 855959, Control_c, 0, 67, 121
1, 855974, Control_c, 0, 64, 63
1, 855974, Control_c, 0, 67, 127
1, 855975, Note_on_c, 0, 88, 58
1, 855989, Control_c, 0, 64, 67
1, 855992, Note_off_c, 0, 89, 55
1, 856004, Control_c, 0, 64, 71
1, 856018, Control_c, 0, 64, 76
1, 856033, Control_c, 0, 64, 80
1, 856034, Note_off_c, 0, 88, 60
1, 856043, Note_on_c, 0, 87, 67
1, 856046, Control_c, 0, 64, 84
1, 856061, Control_c, 0, 64, 87
1, 856076, Control_c, 0, 64, 89
1, 856078, Note_off_c, 0, 87, 62
1, 856087, Note_off_c, 0, 44, 48
1, 856098, Control_c, 0, 64, 90
1, 856113, Control_c, 0, 64, 91
1, 856128, Control_c, 0, 64, 91
1, 856137, Note_on_c, 0, 52, 34
1, 856141, Note_on_c, 0, 88, 64
1, 856142, Control_c, 0, 64, 92
1, 856157, Control_c, 0, 64, 93
1, 856172, Control_c, 0, 64, 94
1, 856187, Control_c, 0, 64, 96
1, 856206, Note_off_c, 0, 88, 45
1, 856227, Note_on_c, 0, 87, 64
1, 856246, Control_c, 0, 64, 98
1, 856261, Control_c, 0, 64, 100
1, 856276, Control_c, 0, 64, 106
1, 856290, Control_c, 0, 64, 110
1, 856299, Note_off_c, 0, 87, 60
1, 856314, Note_on_c, 0, 88, 69
1, 856314, Note_on_c, 0, 59, 44
1, 856339, Note_off_c, 0, 59, 56
1, 856364, Note_off_c, 0, 88, 59
1, 856393, Note_on_c, 0, 90, 69
1, 856403, Note_off_c, 0, 52, 18
1, 856418, Note_off_c, 0, 90, 66
1, 856424, Control_c, 0, 64, 95
1, 856439, Control_c, 0, 64, 77
1, 856453, Control_c, 0, 64, 63
1, 856468, Control_c, 0, 64, 36
1, 856478, Note_on_c, 0, 45, 43
1, 856483, Control_c, 0, 64, 0
1, 856485, Note_on_c, 0, 90, 70
1, 856513, Control_c, 0, 64, 47
1, 856527, Control_c, 0, 64, 60
1, 856542, Control_c, 0, 64, 68
1, 856557, Control_c, 0, 64, 76
1, 856569, Note_off_c, 0, 45, 51
1, 856572, Control_c, 0, 64, 88
1, 856574, Note_off_c, 0, 90, 58
1, 856585, Note_on_c, 0, 88, 64
1, 856587, Control_c, 0, 64, 96
1, 856601, Control_c, 0, 64, 103
1, 856616, Control_c, 0, 64, 110
1, 856631, Control_c, 0, 64, 127
1, 856665, Note_on_c, 0, 52, 34
1, 856669, Note_off_c, 0, 88, 61
1, 856674, Note_on_c, 0, 85, 60
1, 856707, Note_off_c, 0, 85, 62
1, 856743, Note_on_c, 0, 81, 68
1, 856780, Note_off_c, 0, 81, 63
1, 856844, Note_on_c, 0, 76, 70
1, 856864, Note_on_c, 0, 61, 50
1, 856869, Note_off_c, 0, 76, 67
1, 856889, Note_off_c, 0, 61, 59
1, 857011, Note_off_c, 0, 52, 40
1, 857011, Control_c, 0, 64, 90
1, 857026, Control_c, 0, 64, 68
1, 857040, Control_c, 0, 64, 37
1, 857044, Note_on_c, 0, 47, 48
1, 857055, Control_c, 0, 64, 0
1, 857065, Note_on_c, 0, 76, 77
1, 857069, Note_on_c, 0, 74, 75
1, 857086, Note_off_c, 0, 76, 68
1, 857094, Note_off_c, 0, 74, 68
1, 857158, Note_on_c, 0, 76, 72
1, 857163, Note_on_c, 0, 74, 67
1, 857176, Note_off_c, 0, 47, 50
1, 857182, Note_off_c, 0, 74, 65
1, 857183, Note_off_c, 0, 76, 69
1, 857241, Note_on_c, 0, 76, 73
1, 857249, Note_on_c, 0, 74, 75
1, 857268, Note_on_c, 0, 56, 46
1, 857268, Note_off_c, 0, 76, 65
1, 857275, Note_off_c, 0, 74, 67
1, 857327, Note_on_c, 0, 76, 69
1, 857339, Note_on_c, 0, 74, 67
1, 857355, Note_off_c, 0, 76, 63
1, 857357, Note_off_c, 0, 74, 62
1, 857411, Note_on_c, 0, 76, 67
1, 857414, Note_on_c, 0, 62, 47
1, 857425, Note_on_c, 0, 74, 68
1, 857440, Note_off_c, 0, 76, 66
1, 857440, Note_off_c, 0, 62, 55
1, 857443, Note_off_c, 0, 74, 64
1, 857459, Note_off_c, 0, 56, 0
1, 857496, Poly_aftertouch_c, 0, 56, 127
1, 857497, Note_on_c, 0, 76, 67
1, 857518, Note_on_c, 0, 74, 57
1, 857537, Note_off_c, 0, 76, 60
1, 857542, Note_off_c, 0, 74, 57
1, 857551, Poly_aftertouch_c, 0, 56, 0
1, 857600, Note_on_c, 0, 49, 46
1, 857604, Note_on_c, 0, 73, 66
1, 857610, Note_on_c, 0, 78, 63
1, 857641, Note_off_c, 0, 73, 59
1, 857656, Control_c, 0, 67, 92
1, 857670, Control_c, 0, 67, 46
1, 857685, Control_c, 0, 67, 0
1, 857698, Note_on_c, 0, 76, 63
1, 857700, Note_off_c, 0, 78, 55
1, 857776, Note_off_c, 0, 76, 60
1, 857779, Note_on_c, 0, 57, 40
1, 857788, Note_on_c, 0, 73, 61
1, 857824, Note_off_c, 0, 73, 62
1, 857873, Note_on_c, 0, 69, 51
1, 857894, Note_off_c, 0, 49, 42
1, 857902, Note_off_c, 0, 57, 62
1, 857902, Note_off_c, 0, 69, 63
1, 857907, Control_c, 0, 64, 45
1, 857922, Control_c, 0, 64, 61
1, 857937, Control_c, 0, 64, 68
1, 857952, Control_c, 0, 64, 73
1, 857967, Control_c, 0, 64, 80
1, 857971, Note_on_c, 0, 61, 49
1, 857981, Control_c, 0, 64, 86
1, 857982, Note_on_c, 0, 64, 41
1, 857996, Note_off_c, 0, 61, 57
1, 857996, Control_c, 0, 64, 92
1, 858009, Note_off_c, 0, 64, 48
1, 858011, Control_c, 0, 64, 96
1, 858026, Control_c, 0, 64, 102
1, 858041, Control_c, 0, 64, 108
1, 858055, Control_c, 0, 64, 116
1, 858070, Control_c, 0, 64, 127
1, 858144, Control_c, 0, 64, 97
1, 858159, Control_c, 0, 64, 75
1, 858165, Note_on_c, 0, 47, 50
1, 858174, Control_c, 0, 64, 47
1, 858177, Note_on_c, 0, 64, 51
1, 858189, Control_c, 0, 64, 0
1, 858204, Note_off_c, 0, 64, 62
1, 858260, Note_on_c, 0, 66, 61
1, 858302, Note_off_c, 0, 66, 58
1, 858321, Note_off_c, 0, 47, 39
1, 858359, Note_on_c, 0, 50, 45
1, 858367, Note_on_c, 0, 62, 57
1, 858389, Note_off_c, 0, 50, 49
1, 858405, Note_off_c, 0, 62, 61
1, 858428, Note_on_c, 0, 66, 62
1, 858478, Note_off_c, 0, 66, 52
1, 858527, Note_on_c, 0, 68, 59
1, 858543, Note_on_c, 0, 61, 50
1, 858570, Note_on_c, 0, 52, 15
1, 858591, Note_off_c, 0, 68, 58
1, 858599, Poly_aftertouch_c, 0, 64, 127
1, 858602, Note_off_c, 0, 61, 50
1, 858613, Note_off_c, 0, 52, 40
1, 858621, Note_on_c, 0, 62, 51
1, 858626, Poly_aftertouch_c, 0, 64, 0
1, 858639, Note_on_c, 0, 59, 46
1, 858648, Note_off_c, 0, 62, 59
1, 858663, Note_off_c, 0, 59, 55
1, 858720, Note_on_c, 0, 69, 57
1, 858731, Note_on_c, 0, 61, 47
1, 858826, Note_on_c, 0, 57, 50
1, 858886, Note_off_c, 0, 57, 58
1, 858913, Note_on_c, 0, 52, 48
1, 858941, Note_off_c, 0, 52, 60
1, 858982, Control_c, 0, 64, 39
1, 858991, Note_on_c, 0, 49, 51
1, 858996, Control_c, 0, 64, 54
1, 859011, Control_c, 0, 64, 63
1, 859026, Control_c, 0, 64, 68
1, 859035, Note_off_c, 0, 49, 61
1, 859041, Note_off_c, 0, 69, 57
1, 859041, Control_c, 0, 64, 77
1, 859056, Control_c, 0, 64, 95
1, 859071, Control_c, 0, 64, 127
1, 859087, Note_off_c, 0, 61, 62
1, 859095, Note_on_c, 0, 45, 68
1, 859125, Note_off_c, 0, 45, 65
1, 859375, Note_on_c, 0, 41, 94
1, 859382, Note_on_c, 0, 53, 98
1, 859410, Note_on_c, 0, 52, 85
1, 859432, Note_on_c, 0, 40, 73
1, 859450, Note_off_c, 0, 53, 62
1, 859450, Control_c, 0, 64, 119
1, 859454, Note_off_c, 0, 41, 56
1, 859464, Control_c, 0, 64, 75
1, 859479, Control_c, 0, 64, 51
1, 859494, Control_c, 0, 64, 0
1, 859497, Note_on_c, 0, 51, 86
1, 859516, Note_off_c, 0, 52, 60
1, 859518, Note_on_c, 0, 39, 80
1, 859531, Note_off_c, 0, 40, 63
1, 859583, Control_c, 0, 64, 36
1, 859589, Note_on_c, 0, 52, 80
1, 859596, Note_on_c, 0, 40, 76
1, 859598, Control_c, 0, 64, 60
1, 859605, Note_off_c, 0, 39, 61
1, 859613, Control_c, 0, 64, 68
1, 859627, Control_c, 0, 64, 76
1, 859642, Control_c, 0, 64, 87
1, 859646, Note_off_c, 0, 51, 45
1, 859657, Control_c, 0, 64, 100
1, 859670, Note_on_c, 0, 51, 64
1, 859672, Control_c, 0, 64, 118
1, 859677, Note_on_c, 0, 39, 80
1, 859684, Note_off_c, 0, 40, 63
1, 859685, Note_off_c, 0, 52, 62
1, 859686, Control_c, 0, 64, 127
1, 859759, Note_on_c, 0, 40, 75
1, 859759, Note_on_c, 0, 52, 83
1, 859766, Note_off_c, 0, 39, 57
1, 859801, Note_off_c, 0, 51, 60
1, 859858, Note_on_c, 0, 53, 88
1, 859870, Note_on_c, 0, 41, 82
1, 859891, Note_off_c, 0, 52, 62
1, 859894, Note_off_c, 0, 40, 57
1, 859913, Note_off_c, 0, 41, 62
1, 859916, Control_c, 0, 64, 84
1, 859918, Note_off_c, 0, 53, 62
1, 859931, Control_c, 0, 64, 62
1, 859946, Control_c, 0, 64, 0
1, 859965, Note_on_c, 0, 53, 88
1, 859968, Note_on_c, 0, 41, 92
1, 859991, Control_c, 0, 64, 36
1, 860006, Control_c, 0, 64, 62
1, 860021, Control_c, 0, 64, 74
1, 860036, Control_c, 0, 64, 88
1, 860051, Control_c, 0, 64, 105
1, 860055, Note_on_c, 0, 40, 85
1, 860059, Note_on_c, 0, 52, 91
1, 860065, Control_c, 0, 64, 114
1, 860074, Note_off_c, 0, 41, 62
1, 860096, Note_off_c, 0, 53, 62
1, 860139, Note_on_c, 0, 36, 99
1, 860139, Control_c, 0, 64, 117
1, 860141, Note_off_c, 0, 40, 40
1, 860144, Note_off_c, 0, 52, 40
1, 860147, Note_on_c, 0, 48, 89
1, 860187, Note_off_c, 0, 48, 68
1, 860198, Control_c, 0, 64, 119
1, 860219, Note_on_c, 0, 43, 91
1, 860223, Note_on_c, 0, 55, 91
1, 860248, Note_off_c, 0, 36, 61
1, 860272, Control_c, 0, 64, 122
1, 860287, Control_c, 0, 64, 127
1, 860293, Note_off_c, 0, 55, 61
1, 860318, Note_on_c, 0, 64, 95
1, 860320, Note_on_c, 0, 52, 98
1, 860324, Note_on_c, 0, 55, 46
1, 860326, Note_on_c, 0, 60, 85
1, 860327, Note_off_c, 0, 43, 63
1, 860341, Note_off_c, 0, 52, 69
1, 860351, Note_off_c, 0, 55, 54
1, 860356, Note_off_c, 0, 60, 64
1, 860374, Note_off_c, 0, 64, 65
1, 860376, Control_c, 0, 64, 105
1, 860391, Control_c, 0, 64, 75
1, 860406, Control_c, 0, 64, 56
1, 860421, Control_c, 0, 64, 0
1, 860546, Note_on_c, 0, 64, 91
1, 860550, Note_on_c, 0, 52, 92
1, 860606, Control_c, 0, 64, 57
1, 860621, Control_c, 0, 64, 68
1, 860634, Note_on_c, 0, 62, 87
1, 860635, Control_c, 0, 64, 77
1, 860649, Note_on_c, 0, 50, 90
1, 860650, Control_c, 0, 64, 91
1, 860658, Note_off_c, 0, 52, 62
1, 860665, Control_c, 0, 64, 116
1, 860680, Control_c, 0, 64, 127
1, 860731, Note_on_c, 0, 59, 87
1, 860733, Note_off_c, 0, 64, 55
1, 860738, Note_on_c, 0, 47, 81
1, 860764, Note_off_c, 0, 50, 54
1, 860772, Note_off_c, 0, 62, 57
1, 860799, Note_on_c, 0, 43, 84
1, 860802, Note_on_c, 0, 55, 87
1, 860821, Note_off_c, 0, 47, 64
1, 860825, Note_off_c, 0, 59, 61
1, 860852, Note_off_c, 0, 55, 66
1, 860891, Note_off_c, 0, 43, 65
1, 860899, Note_on_c, 0, 50, 93
1, 860900, Note_on_c, 0, 59, 91
1, 860901, Note_on_c, 0, 67, 92
1, 860902, Note_on_c, 0, 55, 92
1, 860916, Note_off_c, 0, 50, 74
1, 860922, Note_off_c, 0, 55, 68
1, 860927, Note_off_c, 0, 59, 69
1, 860957, Note_off_c, 0, 67, 62
1, 860962, Control_c, 0, 64, 74
1, 860977, Control_c, 0, 64, 56
1, 860992, Control_c, 0, 64, 0
1, 861137, Note_on_c, 0, 60, 73
1, 861140, Note_on_c, 0, 65, 78
1, 861151, Note_on_c, 0, 48, 64
1, 861152, Note_on_c, 0, 55, 64
1, 861180, Note_off_c, 0, 48, 66
1, 861183, Note_off_c, 0, 55, 65
1, 861227, Note_on_c, 0, 64, 74
1, 861231, Note_off_c, 0, 60, 30
1, 861267, Note_off_c, 0, 65, 58
1, 861306, Note_on_c, 0, 67, 81
1, 861308, Note_off_c, 0, 64, 62
1, 861312, Note_on_c, 0, 59, 77
1, 861330, Note_on_c, 0, 55, 66
1, 861341, Note_on_c, 0, 50, 60
1, 861369, Note_off_c, 0, 55, 61
1, 861374, Note_off_c, 0, 50, 62
1, 861405, Note_on_c, 0, 65, 91
1, 861412, Note_off_c, 0, 59, 47
1, 861431, Note_off_c, 0, 67, 63
1, 861501, Note_on_c, 0, 69, 87
1, 861503, Note_on_c, 0, 55, 68
1, 861505, Note_on_c, 0, 60, 84
1, 861511, Note_on_c, 0, 52, 63
1, 861512, Note_off_c, 0, 65, 59
1, 861536, Note_off_c, 0, 55, 63
1, 861539, Note_off_c, 0, 52, 65
1, 861565, Note_off_c, 0, 60, 45
1, 861593, Note_on_c, 0, 67, 85
1, 861685, Note_on_c, 0, 62, 86
1, 861692, Note_on_c, 0, 59, 74
1, 861703, Note_off_c, 0, 69, 60
1, 861720, Note_off_c, 0, 67, 63
1, 861798, Note_on_c, 0, 55, 70
1, 861852, Note_off_c, 0, 55, 59
1, 861876, Note_on_c, 0, 50, 75
1, 861933, Note_off_c, 0, 50, 61
1, 861948, Control_c, 0, 64, 47
1, 861952, Note_on_c, 0, 47, 68
1, 861962, Control_c, 0, 64, 60
1, 861977, Control_c, 0, 64, 65
1, 861992, Control_c, 0, 64, 70
1, 862001, Note_off_c, 0, 59, 54
1, 862002, Note_off_c, 0, 47, 62
1, 862007, Control_c, 0, 64, 77
1, 862022, Control_c, 0, 64, 86
1, 862037, Control_c, 0, 64, 97
1, 862052, Control_c, 0, 64, 115
1, 862058, Note_on_c, 0, 43, 60
1, 862074, Control_c, 0, 64, 127
1, 862076, Note_off_c, 0, 62, 62
1, 862110, Note_off_c, 0, 43, 59
1, 862207, Control_c, 0, 64, 115
1, 862222, Control_c, 0, 64, 101
1, 862237, Control_c, 0, 64, 90
1, 862252, Control_c, 0, 64, 76
1, 862267, Control_c, 0, 64, 66
1, 862281, Control_c, 0, 64, 53
1, 862294, Note_on_c, 0, 67, 49
1, 862296, Control_c, 0, 64, 0
1, 862316, Note_on_c, 0, 43, 27
1, 862316, Note_on_c, 0, 59, 34
1, 862345, Note_on_c, 0, 65, 57
1, 862386, Control_c, 0, 64, 38
1, 862401, Note_off_c, 0, 67, 30
1, 862401, Control_c, 0, 64, 55
1, 862416, Control_c, 0, 64, 65
1, 862421, Note_off_c, 0, 65, 62
1, 862425, Note_on_c, 0, 64, 64
1, 862430, Control_c, 0, 64, 72
1, 862445, Control_c, 0, 64, 79
1, 862460, Control_c, 0, 64, 87
1, 862475, Control_c, 0, 64, 95
1, 862490, Control_c, 0, 64, 106
1, 862505, Control_c, 0, 64, 127
1, 862505, Note_off_c, 0, 64, 60
1, 862515, Note_on_c, 0, 65, 78
1, 862530, Note_on_c, 0, 50, 44
1, 862584, Note_off_c, 0, 65, 64
1, 862589, Note_on_c, 0, 64, 68
1, 862650, Note_off_c, 0, 59, 40
1, 862674, Note_on_c, 0, 65, 80
1, 862674, Note_off_c, 0, 64, 62
1, 862682, Note_off_c, 0, 43, 40
1, 862690, Note_on_c, 0, 55, 49
1, 862757, Note_on_c, 0, 69, 69
1, 862771, Note_off_c, 0, 55, 48
1, 862776, Note_off_c, 0, 65, 57
1, 862786, Note_off_c, 0, 69, 61
1, 862815, Control_c, 0, 64, 111
1, 862833, Note_off_c, 0, 50, 56
1, 862837, Control_c, 0, 64, 83
1, 862852, Control_c, 0, 64, 63
1, 862854, Note_on_c, 0, 43, 44
1, 862866, Note_on_c, 0, 69, 69
1, 862867, Control_c, 0, 64, 0
1, 862877, Note_on_c, 0, 60, 61
1, 862884, Note_on_c, 0, 64, 49
1, 862910, Note_off_c, 0, 64, 63
1, 862952, Note_off_c, 0, 60, 60
1, 862961, Note_on_c, 0, 67, 75
1, 862970, Control_c, 0, 64, 41
1, 862985, Control_c, 0, 64, 60
1, 863000, Control_c, 0, 64, 69
1, 863015, Control_c, 0, 64, 76
1, 863030, Control_c, 0, 64, 82
1, 863044, Control_c, 0, 64, 87
1, 863047, Note_on_c, 0, 52, 58
1, 863050, Note_off_c, 0, 69, 47
1, 863054, Note_off_c, 0, 43, 58
1, 863056, Note_on_c, 0, 64, 79
1, 863059, Control_c, 0, 64, 93
1, 863074, Control_c, 0, 64, 100
1, 863089, Control_c, 0, 64, 108
1, 863104, Control_c, 0, 64, 125
1, 863119, Control_c, 0, 64, 127
1, 863122, Note_off_c, 0, 64, 60
1, 863133, Note_on_c, 0, 60, 75
1, 863206, Note_off_c, 0, 67, 38
1, 863208, Note_on_c, 0, 55, 63
1, 863211, Note_off_c, 0, 60, 63
1, 863217, Note_on_c, 0, 64, 74
1, 863239, Note_off_c, 0, 64, 71
1, 863266, Note_off_c, 0, 55, 56
1, 863310, Note_on_c, 0, 76, 85
1, 863349, Note_off_c, 0, 76, 61
1, 863372, Control_c, 0, 64, 91
1, 863384, Note_off_c, 0, 52, 40
1, 863387, Control_c, 0, 64, 69
1, 863401, Control_c, 0, 64, 43
1, 863405, Note_on_c, 0, 76, 80
1, 863411, Note_on_c, 0, 43, 50
1, 863414, Note_on_c, 0, 65, 79
1, 863416, Control_c, 0, 64, 0
1, 863417, Note_on_c, 0, 71, 66
1, 863443, Note_off_c, 0, 71, 69
1, 863459, Note_off_c, 0, 65, 48
1, 863486, Note_on_c, 0, 74, 86
1, 863511, Note_off_c, 0, 76, 63
1, 863524, Note_off_c, 0, 74, 62
1, 863586, Note_on_c, 0, 50, 53
1, 863597, Note_on_c, 0, 62, 76
1, 863600, Note_on_c, 0, 72, 69
1, 863613, Note_on_c, 0, 65, 64
1, 863634, Note_off_c, 0, 62, 49
1, 863634, Note_off_c, 0, 65, 61
1, 863674, Note_on_c, 0, 71, 76
1, 863694, Note_off_c, 0, 72, 61
1, 863700, Note_off_c, 0, 43, 40
1, 863709, Note_off_c, 0, 71, 65
1, 863780, Note_on_c, 0, 69, 73
1, 863781, Note_on_c, 0, 55, 45
1, 863783, Note_on_c, 0, 59, 69
1, 863789, Note_on_c, 0, 65, 66
1, 863812, Note_off_c, 0, 59, 50
1, 863820, Note_off_c, 0, 65, 67
1, 863855, Note_off_c, 0, 55, 60
1, 863859, Note_on_c, 0, 67, 70
1, 863868, Note_off_c, 0, 69, 58
1, 863912, Note_off_c, 0, 50, 51
1, 863914, Note_off_c, 0, 67, 57
1, 863966, Note_on_c, 0, 43, 36
1, 863978, Note_on_c, 0, 69, 62
1, 863988, Note_on_c, 0, 64, 47
1, 863993, Note_on_c, 0, 60, 42
1, 864043, Note_off_c, 0, 60, 46
1, 864045, Note_off_c, 0, 64, 58
1, 864062, Note_on_c, 0, 67, 72
1, 864106, Note_off_c, 0, 69, 45
1, 864150, Control_c, 0, 64, 50
1, 864159, Note_on_c, 0, 64, 66
1, 864162, Note_on_c, 0, 52, 45
1, 864165, Control_c, 0, 64, 61
1, 864180, Control_c, 0, 64, 66
1, 864192, Note_off_c, 0, 67, 60
1, 864194, Control_c, 0, 64, 72
1, 864209, Control_c, 0, 64, 79
1, 864220, Note_off_c, 0, 43, 40
1, 864220, Note_off_c, 0, 64, 61
1, 864224, Control_c, 0, 64, 85
1, 864234, Note_on_c, 0, 60, 73
1, 864239, Control_c, 0, 64, 89
1, 864254, Control_c, 0, 64, 92
1, 864268, Control_c, 0, 64, 94
1, 864276, Note_off_c, 0, 60, 60
1, 864284, Control_c, 0, 64, 95
1, 864302, Note_off_c, 0, 52, 35
1, 864314, Control_c, 0, 64, 98
1, 864336, Control_c, 0, 64, 101
1, 864339, Note_on_c, 0, 55, 69
1, 864358, Note_off_c, 0, 55, 65
1, 864380, Control_c, 0, 64, 103
1, 864410, Control_c, 0, 64, 105
1, 864469, Control_c, 0, 64, 98
1, 864484, Control_c, 0, 64, 90
1, 864499, Control_c, 0, 64, 81
1, 864514, Control_c, 0, 64, 72
1, 864529, Control_c, 0, 64, 63
1, 864539, Note_on_c, 0, 43, 44
1, 864544, Control_c, 0, 64, 42
1, 864547, Note_on_c, 0, 79, 73
1, 864558, Control_c, 0, 64, 0
1, 864560, Note_on_c, 0, 71, 60
1, 864592, Note_on_c, 0, 77, 76
1, 864653, Note_off_c, 0, 79, 58
1, 864663, Note_on_c, 0, 76, 86
1, 864671, Note_off_c, 0, 77, 65
1, 864738, Note_on_c, 0, 77, 87
1, 864741, Note_on_c, 0, 50, 50
1, 864746, Note_off_c, 0, 76, 64
1, 864752, Control_c, 0, 64, 54
1, 864766, Control_c, 0, 64, 65
1, 864781, Control_c, 0, 64, 70
1, 864796, Control_c, 0, 64, 77
1, 864811, Control_c, 0, 64, 84
1, 864824, Note_on_c, 0, 76, 91
1, 864825, Note_off_c, 0, 77, 65
1, 864825, Control_c, 0, 64, 93
1, 864840, Control_c, 0, 64, 105
1, 864855, Control_c, 0, 64, 127
1, 864887, Note_on_c, 0, 55, 59
1, 864909, Note_on_c, 0, 77, 87
1, 864929, Note_off_c, 0, 43, 33
1, 864948, Note_off_c, 0, 76, 40
1, 864960, Note_off_c, 0, 71, 40
1, 864964, Note_off_c, 0, 55, 59
1, 864989, Note_on_c, 0, 81, 88
1, 865010, Note_off_c, 0, 77, 63
1, 865032, Note_off_c, 0, 81, 65
1, 865060, Note_off_c, 0, 50, 58
1, 865082, Note_on_c, 0, 43, 53
1, 865099, Control_c, 0, 64, 125
1, 865101, Note_on_c, 0, 81, 94
1, 865108, Note_on_c, 0, 72, 76
1, 865114, Control_c, 0, 64, 82
1, 865116, Note_on_c, 0, 76, 69
1, 865129, Control_c, 0, 64, 62
1, 865144, Control_c, 0, 64, 0
1, 865146, Note_off_c, 0, 76, 66
1, 865192, Note_off_c, 0, 72, 58
1, 865193, Note_on_c, 0, 79, 85
1, 865218, Control_c, 0, 64, 35
1, 865232, Control_c, 0, 64, 57
1, 865247, Control_c, 0, 64, 70
1, 865255, Note_off_c, 0, 43, 58
1, 865262, Control_c, 0, 64, 79
1, 865277, Control_c, 0, 64, 90
1, 865281, Note_on_c, 0, 52, 58
1, 865290, Note_on_c, 0, 76, 93
1, 865292, Control_c, 0, 64, 98
1, 865307, Control_c, 0, 64, 109
1, 865322, Control_c, 0, 64, 127
1, 865343, Note_off_c, 0, 81, 0
1, 865362, Note_off_c, 0, 76, 63
1, 865363, Note_on_c, 0, 72, 79
1, 865380, Poly_aftertouch_c, 0, 81, 127
1, 865403, Note_off_c, 0, 79, 61
1, 865438, Note_off_c, 0, 72, 64
1, 865447, Note_on_c, 0, 76, 81
1, 865453, Note_on_c, 0, 55, 58
1, 865471, Note_off_c, 0, 76, 69
1, 865482, Poly_aftertouch_c, 0, 81, 0
1, 865497, Note_off_c, 0, 55, 59
1, 865542, Note_on_c, 0, 88, 90
1, 865568, Note_off_c, 0, 88, 62
1, 865575, Note_off_c, 0, 52, 59
1, 865619, Control_c, 0, 64, 103
1, 865634, Control_c, 0, 64, 78
1, 865639, Note_on_c, 0, 88, 91
1, 865641, Note_on_c, 0, 77, 76
1, 865642, Note_on_c, 0, 83, 71
1, 865648, Control_c, 0, 64, 61
1, 865649, Note_on_c, 0, 43, 45
1, 865663, Control_c, 0, 64, 36
1, 865667, Note_off_c, 0, 83, 66
1, 865678, Control_c, 0, 64, 0
1, 865693, Control_c, 0, 67, 20
1, 865694, Note_off_c, 0, 77, 54
1, 865708, Control_c, 0, 67, 22
1, 865713, Note_on_c, 0, 86, 85
1, 865722, Control_c, 0, 67, 25
1, 865737, Note_off_c, 0, 88, 65
1, 865748, Note_off_c, 0, 86, 63
1, 865822, Note_on_c, 0, 84, 86
1, 865823, Note_on_c, 0, 74, 87
1, 865835, Note_on_c, 0, 77, 62
1, 865843, Note_on_c, 0, 50, 53
1, 865847, Note_off_c, 0, 74, 64
1, 865860, Note_off_c, 0, 77, 62
1, 865897, Note_on_c, 0, 83, 53
1, 865917, Note_off_c, 0, 84, 63
1, 865937, Note_off_c, 0, 83, 64
1, 865990, Note_off_c, 0, 43, 55
1, 866008, Note_on_c, 0, 55, 52
1, 866010, Note_on_c, 0, 81, 80
1, 866016, Note_on_c, 0, 71, 62
1, 866017, Note_on_c, 0, 77, 62
1, 866036, Note_off_c, 0, 71, 60
1, 866057, Note_off_c, 0, 77, 54
1, 866083, Note_on_c, 0, 79, 72
1, 866085, Note_off_c, 0, 81, 58
1, 866132, Note_off_c, 0, 79, 58
1, 866137, Note_off_c, 0, 50, 58
1, 866142, Note_off_c, 0, 55, 0
1, 866160, Control_c, 0, 67, 23
1, 866172, Poly_aftertouch_c, 0, 55, 0
1, 866176, Note_on_c, 0, 43, 33
1, 866194, Note_on_c, 0, 81, 73
1, 866204, Control_c, 0, 67, 20
1, 866204, Note_on_c, 0, 72, 56
1, 866209, Note_on_c, 0, 76, 55
1, 866219, Control_c, 0, 67, 0
1, 866243, Note_off_c, 0, 76, 63
1, 866273, Note_on_c, 0, 79, 83
1, 866280, Note_off_c, 0, 72, 63
1, 866293, Control_c, 0, 64, 37
1, 866308, Control_c, 0, 64, 58
1, 866322, Control_c, 0, 64, 66
1, 866337, Control_c, 0, 64, 74
1, 866353, Control_c, 0, 64, 82
1, 866368, Control_c, 0, 64, 90
1, 866371, Note_on_c, 0, 52, 56
1, 866377, Note_on_c, 0, 76, 86
1, 866383, Control_c, 0, 64, 98
1, 866397, Control_c, 0, 64, 110
1, 866410, Note_off_c, 0, 81, 0
1, 866411, Note_off_c, 0, 43, 41
1, 866412, Control_c, 0, 64, 127
1, 866438, Note_off_c, 0, 76, 62
1, 866448, Poly_aftertouch_c, 0, 81, 127
1, 866451, Note_on_c, 0, 72, 78
1, 866481, Note_off_c, 0, 79, 61
1, 866524, Note_off_c, 0, 72, 62
1, 866531, Note_on_c, 0, 76, 70
1, 866535, Note_on_c, 0, 55, 60
1, 866546, Note_off_c, 0, 76, 67
1, 866551, Poly_aftertouch_c, 0, 81, 0
1, 866577, Note_off_c, 0, 55, 64
1, 866627, Note_on_c, 0, 88, 85
1, 866654, Note_off_c, 0, 88, 64
1, 866671, Control_c, 0, 64, 99
1, 866675, Note_off_c, 0, 52, 45
1, 866686, Control_c, 0, 64, 75
1, 866701, Control_c, 0, 64, 59
1, 866716, Control_c, 0, 64, 0
1, 866726, Note_on_c, 0, 43, 45
1, 866730, Note_on_c, 0, 77, 70
1, 866730, Note_on_c, 0, 88, 81
1, 866735, Note_on_c, 0, 83, 61
1, 866753, Note_off_c, 0, 83, 65
1, 866771, Note_off_c, 0, 77, 54
1, 866789, Control_c, 0, 67, 21
1, 866796, Note_on_c, 0, 86, 77
1, 866804, Control_c, 0, 67, 24
1, 866812, Note_off_c, 0, 88, 60
1, 866819, Control_c, 0, 67, 27
1, 866821, Note_off_c, 0, 86, 67
1, 866834, Control_c, 0, 67, 31
1, 866849, Control_c, 0, 67, 38
1, 866863, Control_c, 0, 67, 48
1, 866878, Control_c, 0, 67, 59
1, 866893, Control_c, 0, 67, 67
1, 866895, Note_on_c, 0, 84, 84
1, 866898, Note_on_c, 0, 74, 79
1, 866908, Control_c, 0, 67, 73
1, 866911, Note_on_c, 0, 77, 53
1, 866914, Note_on_c, 0, 50, 45
1, 866920, Note_off_c, 0, 74, 62
1, 866923, Control_c, 0, 67, 80
1, 866931, Note_off_c, 0, 77, 62
1, 866938, Control_c, 0, 67, 85
1, 866952, Control_c, 0, 67, 90
1, 866967, Control_c, 0, 67, 91
1, 866974, Note_off_c, 0, 84, 59
1, 866976, Note_on_c, 0, 83, 68
1, 866997, Note_off_c, 0, 83, 68
1, 867039, Note_off_c, 0, 43, 27
1, 867071, Control_c, 0, 67, 90
1, 867080, Note_on_c, 0, 81, 71
1, 867082, Note_on_c, 0, 77, 58
1, 867085, Note_on_c, 0, 71, 61
1, 867086, Control_c, 0, 67, 90
1, 867099, Note_on_c, 0, 55, 45
1, 867101, Control_c, 0, 67, 89
1, 867107, Note_off_c, 0, 71, 58
1, 867116, Note_off_c, 0, 77, 63
1, 867130, Control_c, 0, 67, 89
1, 867146, Control_c, 0, 67, 88
1, 867149, Note_off_c, 0, 81, 54
1, 867161, Control_c, 0, 67, 88
1, 867166, Note_on_c, 0, 79, 59
1, 867176, Control_c, 0, 67, 87
1, 867191, Control_c, 0, 67, 86
1, 867199, Note_off_c, 0, 79, 63
1, 867206, Control_c, 0, 67, 86
1, 867217, Note_off_c, 0, 50, 53
1, 867250, Control_c, 0, 67, 85
1, 867265, Control_c, 0, 67, 85
1, 867271, Note_on_c, 0, 43, 32
1, 867275, Note_on_c, 0, 81, 57
1, 867292, Note_on_c, 0, 72, 37
1, 867292, Note_on_c, 0, 76, 45
1, 867294, Control_c, 0, 67, 84
1, 867355, Note_off_c, 0, 76, 60
1, 867370, Note_off_c, 0, 72, 56
1, 867373, Note_on_c, 0, 79, 70
1, 867391, Control_c, 0, 67, 85
1, 867423, Note_off_c, 0, 81, 46
1, 867453, Note_off_c, 0, 55, 41
1, 867462, Note_on_c, 0, 76, 73
1, 867468, Note_off_c, 0, 79, 59
1, 867479, Note_on_c, 0, 52, 45
1, 867509, Control_c, 0, 67, 84
1, 867524, Control_c, 0, 67, 84
1, 867525, Note_off_c, 0, 76, 59
1, 867539, Control_c, 0, 67, 83
1, 867546, Note_on_c, 0, 72, 63
1, 867553, Control_c, 0, 67, 82
1, 867568, Control_c, 0, 67, 81
1, 867581, Note_off_c, 0, 72, 58
1, 867583, Control_c, 0, 67, 80
1, 867598, Control_c, 0, 67, 79
1, 867613, Control_c, 0, 67, 78
1, 867627, Control_c, 0, 67, 77
1, 867640, Note_on_c, 0, 67, 62
1, 867642, Note_off_c, 0, 43, 41
1, 867642, Control_c, 0, 67, 74
1, 867643, Note_on_c, 0, 55, 42
1, 867657, Control_c, 0, 67, 64
1, 867661, Note_off_c, 0, 67, 66
1, 867672, Control_c, 0, 67, 48
1, 867686, Control_c, 0, 67, 29
1, 867701, Control_c, 0, 67, 0
1, 867751, Note_off_c, 0, 55, 31
1, 867822, Note_on_c, 0, 43, 32
1, 867823, Note_off_c, 0, 52, 41
1, 867830, Note_on_c, 0, 81, 67
1, 867838, Note_on_c, 0, 72, 53
1, 867852, Note_on_c, 0, 76, 46
1, 867872, Note_off_c, 0, 72, 52
1, 867897, Note_off_c, 0, 76, 57
1, 867916, Note_off_c, 0, 81, 52
1, 867924, Note_on_c, 0, 79, 65
1, 868023, Note_off_c, 0, 79, 57
1, 868023, Note_on_c, 0, 52, 40
1, 868026, Note_on_c, 0, 76, 56
1, 868075, Note_off_c, 0, 76, 61
1, 868118, Note_on_c, 0, 72, 50
1, 868142, Note_off_c, 0, 72, 61
1, 868203, Note_off_c, 0, 43, 39
1, 868212, Note_on_c, 0, 55, 41
1, 868220, Note_on_c, 0, 67, 43
1, 868246, Note_off_c, 0, 67, 52
1, 868413, Note_off_c, 0, 52, 39
1, 868417, Note_on_c, 0, 81, 66
1, 868424, Note_on_c, 0, 43, 33
1, 868449, Note_on_c, 0, 72, 19
1, 868450, Note_on_c, 0, 76, 26
1, 868480, Note_off_c, 0, 81, 40
1, 868492, Note_off_c, 0, 72, 51
1, 868492, Note_off_c, 0, 76, 52
1, 868514, Note_on_c, 0, 79, 59
1, 868541, Note_off_c, 0, 55, 37
1, 868596, Note_on_c, 0, 52, 36
1, 868596, Note_off_c, 0, 79, 58
1, 868604, Note_on_c, 0, 76, 48
1, 868638, Note_off_c, 0, 76, 53
1, 868681, Note_on_c, 0, 72, 54
1, 868718, Note_off_c, 0, 72, 62
1, 868801, Note_on_c, 0, 55, 41
1, 868802, Note_on_c, 0, 67, 52
1, 868823, Note_off_c, 0, 43, 54
1, 868829, Control_c, 0, 64, 50
1, 868832, Note_off_c, 0, 67, 62
1, 868844, Control_c, 0, 64, 66
1, 868848, Note_off_c, 0, 55, 64
1, 868859, Control_c, 0, 64, 74
1, 868869, Note_off_c, 0, 52, 56
1, 868873, Control_c, 0, 64, 93
1, 868888, Control_c, 0, 64, 127
1, 869067, Note_on_c, 0, 56, 95
1, 869069, Note_on_c, 0, 93, 106
1, 869075, Note_on_c, 0, 49, 80
1, 869078, Note_on_c, 0, 52, 79
1, 869089, Note_on_c, 0, 44, 58
1, 869099, Note_off_c, 0, 56, 56
1, 869116, Note_off_c, 0, 44, 58
1, 869122, Note_off_c, 0, 52, 52
1, 869123, Note_off_c, 0, 49, 60
1, 869129, Note_on_c, 0, 92, 69
1, 869155, Control_c, 0, 64, 95
1, 869170, Control_c, 0, 64, 70
1, 869181, Note_on_c, 0, 90, 78
1, 869185, Control_c, 0, 64, 49
1, 869199, Control_c, 0, 64, 0
1, 869225, Note_off_c, 0, 92, 64
1, 869226, Note_off_c, 0, 93, 61
1, 869230, Note_on_c, 0, 88, 94
1, 869237, Note_off_c, 0, 90, 64
1, 869290, Note_off_c, 0, 88, 45
1, 869297, Note_on_c, 0, 52, 82
1, 869297, Note_on_c, 0, 56, 94
1, 869298, Note_on_c, 0, 87, 86
1, 869300, Note_on_c, 0, 49, 85
1, 869311, Note_on_c, 0, 44, 72
1, 869341, Note_on_c, 0, 85, 81
1, 869379, Note_on_c, 0, 83, 84
1, 869403, Note_off_c, 0, 87, 63
1, 869411, Note_off_c, 0, 85, 66
1, 869421, Control_c, 0, 64, 54
1, 869432, Note_off_c, 0, 83, 65
1, 869433, Note_on_c, 0, 81, 81
1, 869436, Control_c, 0, 64, 63
1, 869451, Control_c, 0, 64, 70
1, 869465, Control_c, 0, 64, 81
1, 869480, Control_c, 0, 64, 101
1, 869489, Note_off_c, 0, 81, 58
1, 869491, Note_on_c, 0, 80, 82
1, 869495, Control_c, 0, 64, 127
1, 869537, Note_on_c, 0, 78, 85
1, 869581, Note_off_c, 0, 80, 63
1, 869597, Note_off_c, 0, 78, 66
1, 869603, Note_on_c, 0, 76, 82
1, 869665, Note_on_c, 0, 75, 80
1, 869671, Note_off_c, 0, 76, 59
1, 869697, Control_c, 0, 64, 93
1, 869712, Control_c, 0, 64, 65
1, 869727, Control_c, 0, 64, 0
1, 869728, Note_on_c, 0, 74, 80
1, 869734, Note_on_c, 0, 73, 33
1, 869756, Note_on_c, 0, 71, 71
1, 869757, Note_off_c, 0, 75, 61
1, 869771, Control_c, 0, 64, 34
1, 869774, Note_off_c, 0, 73, 51
1, 869781, Note_off_c, 0, 74, 64
1, 869786, Control_c, 0, 64, 59
1, 869801, Control_c, 0, 64, 73
1, 869802, Note_off_c, 0, 71, 64
1, 869809, Note_on_c, 0, 69, 70
1, 869815, Control_c, 0, 64, 92
1, 869830, Control_c, 0, 64, 127
1, 869835, Note_off_c, 0, 56, 61
1, 869864, Note_off_c, 0, 52, 58
1, 869873, Note_on_c, 0, 68, 82
1, 869879, Note_off_c, 0, 69, 61
1, 869887, Note_off_c, 0, 49, 60
1, 869898, Note_off_c, 0, 44, 63
1, 869920, Note_on_c, 0, 66, 84
1, 869957, Note_off_c, 0, 68, 63
1, 869979, Note_on_c, 0, 64, 86
1, 869986, Note_off_c, 0, 66, 62
1, 870044, Note_on_c, 0, 63, 85
1, 870052, Note_off_c, 0, 64, 61
1, 870089, Note_on_c, 0, 61, 78
1, 870126, Note_on_c, 0, 59, 71
1, 870133, Note_off_c, 0, 63, 62
1, 870155, Note_off_c, 0, 61, 62
1, 870163, Note_on_c, 0, 57, 80
1, 870165, Note_off_c, 0, 59, 62
1, 870222, Note_on_c, 0, 56, 93
1, 870228, Note_off_c, 0, 57, 66
1, 870234, Note_on_c, 0, 44, 109
1, 870241, Note_off_c, 0, 56, 72
1, 870252, Note_on_c, 0, 32, 60
1, 870263, Note_off_c, 0, 44, 66
1, 870279, Note_off_c, 0, 32, 58
1, 870288, Control_c, 0, 64, 79
1, 870303, Control_c, 0, 64, 59
1, 870325, Control_c, 0, 64, 0
1, 870474, Control_c, 0, 64, 52
1, 870476, Note_on_c, 0, 56, 95
1, 870477, Note_on_c, 0, 68, 108
1, 870479, Note_on_c, 0, 60, 107
1, 870486, Note_on_c, 0, 63, 85
1, 870488, Note_on_c, 0, 44, 68
1, 870488, Control_c, 0, 64, 105
1, 870500, Note_off_c, 0, 60, 68
1, 870503, Note_on_c, 0, 66, 53
1, 870503, Control_c, 0, 64, 127
1, 870512, Note_off_c, 0, 44, 67
1, 870515, Note_off_c, 0, 56, 61
1, 870518, Note_off_c, 0, 68, 62
1, 870527, Note_off_c, 0, 63, 67
1, 870527, Note_off_c, 0, 66, 59
1, 870800, Control_c, 0, 64, 108
1, 870815, Control_c, 0, 64, 90
1, 870830, Control_c, 0, 64, 78
1, 870844, Control_c, 0, 64, 69
1, 870859, Control_c, 0, 64, 62
1, 870874, Control_c, 0, 64, 54
1, 870888, Control_c, 0, 64, 49
1, 870903, Control_c, 0, 64, 46
1, 870918, Control_c, 0, 64, 43
1, 870933, Control_c, 0, 64, 38
1, 870948, Control_c, 0, 64, 33
1, 870962, Control_c, 0, 64, 0
1, 871652, Control_c, 0, 67, 21
1, 871667, Control_c, 0, 67, 30
1, 871682, Control_c, 0, 67, 45
1, 871697, Control_c, 0, 67, 65
1, 871711, Control_c, 0, 67, 86
1, 871726, Control_c, 0, 67, 111
1, 871741, Control_c, 0, 67, 127
1, 872080, Note_on_c, 0, 75, 44
1, 872106, Note_on_c, 0, 73, 61
1, 872108, Note_off_c, 0, 75, 58
1, 872143, Note_off_c, 0, 73, 59
1, 872193, Note_on_c, 0, 72, 48
1, 872239, Control_c, 0, 67, 105
1, 872253, Note_off_c, 0, 72, 56
1, 872254, Control_c, 0, 67, 73
1, 872269, Control_c, 0, 67, 40
1, 872271, Note_on_c, 0, 73, 55
1, 872273, Note_on_c, 0, 61, 30
1, 872274, Note_on_c, 0, 68, 35
1, 872283, Control_c, 0, 67, 0
1, 872297, Note_off_c, 0, 68, 53
1, 872308, Note_off_c, 0, 61, 41
1, 872315, Note_off_c, 0, 73, 56
1, 872369, Note_on_c, 0, 76, 51
1, 872419, Note_off_c, 0, 76, 59
1, 872464, Note_on_c, 0, 73, 55
1, 872489, Note_off_c, 0, 73, 64
1, 872723, Note_on_c, 0, 78, 56
1, 872955, Note_on_c, 0, 66, 48
1, 872962, Note_on_c, 0, 57, 35
1, 872966, Note_on_c, 0, 61, 38
1, 872983, Note_off_c, 0, 66, 59
1, 872993, Note_off_c, 0, 57, 50
1, 872995, Note_off_c, 0, 61, 59
1, 873047, Control_c, 0, 64, 33
1, 873062, Control_c, 0, 64, 50
1, 873077, Control_c, 0, 64, 63
1, 873091, Control_c, 0, 64, 69
1, 873106, Control_c, 0, 64, 75
1, 873121, Control_c, 0, 64, 85
1, 873136, Control_c, 0, 64, 94
1, 873151, Control_c, 0, 64, 108
1, 873165, Control_c, 0, 64, 127
1, 873218, Note_off_c, 0, 78, 38
1, 873391, Note_on_c, 0, 75, 61
1, 873409, Control_c, 0, 64, 102
1, 873419, Note_on_c, 0, 73, 68
1, 873424, Note_off_c, 0, 75, 63
1, 873424, Control_c, 0, 64, 73
1, 873439, Control_c, 0, 64, 57
1, 873454, Control_c, 0, 64, 0
1, 873463, Note_off_c, 0, 73, 60
1, 873496, Note_on_c, 0, 72, 65
1, 873591, Note_on_c, 0, 64, 62
1, 873591, Note_on_c, 0, 73, 76
1, 873595, Note_on_c, 0, 56, 57
1, 873602, Note_on_c, 0, 61, 58
1, 873609, Note_off_c, 0, 72, 57
1, 873615, Note_off_c, 0, 64, 65
1, 873625, Note_off_c, 0, 56, 63
1, 873625, Note_off_c, 0, 61, 62
1, 873677, Note_off_c, 0, 73, 62
1, 873678, Note_on_c, 0, 76, 79
1, 873770, Note_on_c, 0, 73, 88
1, 873773, Note_off_c, 0, 76, 62
1, 873798, Note_off_c, 0, 73, 66
1, 874009, Note_on_c, 0, 81, 97
1, 874268, Note_on_c, 0, 54, 48
1, 874278, Note_on_c, 0, 62, 43
1, 874283, Note_on_c, 0, 57, 45
1, 874291, Control_c, 0, 67, 20
1, 874306, Control_c, 0, 67, 24
1, 874313, Note_off_c, 0, 54, 61
1, 874319, Note_off_c, 0, 62, 63
1, 874321, Control_c, 0, 67, 29
1, 874329, Note_off_c, 0, 57, 62
1, 874336, Control_c, 0, 67, 38
1, 874351, Control_c, 0, 67, 55
1, 874366, Control_c, 0, 67, 79
1, 874381, Control_c, 0, 67, 111
1, 874396, Control_c, 0, 64, 34
1, 874396, Control_c, 0, 67, 127
1, 874411, Control_c, 0, 64, 56
1, 874426, Control_c, 0, 64, 65
1, 874440, Control_c, 0, 64, 70
1, 874455, Control_c, 0, 64, 76
1, 874470, Control_c, 0, 64, 84
1, 874485, Control_c, 0, 64, 93
1, 874500, Control_c, 0, 64, 100
1, 874515, Control_c, 0, 64, 105
1, 874529, Control_c, 0, 64, 107
1, 874570, Note_off_c, 0, 81, 57
1, 874798, Note_on_c, 0, 81, 50
1, 874849, Control_c, 0, 64, 105
1, 874863, Control_c, 0, 64, 103
1, 874878, Control_c, 0, 64, 100
1, 874893, Control_c, 0, 64, 95
1, 874908, Note_on_c, 0, 80, 48
1, 874908, Control_c, 0, 64, 87
1, 874923, Control_c, 0, 64, 78
1, 874937, Control_c, 0, 64, 68
1, 874952, Control_c, 0, 64, 58
1, 874967, Control_c, 0, 64, 0
1, 874971, Note_off_c, 0, 81, 41
1, 874978, Note_on_c, 0, 56, 31
1, 874987, Note_off_c, 0, 80, 42
1, 874990, Note_on_c, 0, 64, 26
1, 874998, Note_on_c, 0, 61, 26
1, 875009, Note_on_c, 0, 78, 50
1, 875016, Note_off_c, 0, 56, 51
1, 875023, Note_off_c, 0, 64, 55
1, 875040, Note_off_c, 0, 61, 50
1, 875047, Note_off_c, 0, 78, 63
1, 875096, Note_on_c, 0, 76, 58
1, 875155, Note_off_c, 0, 76, 42
1, 875187, Note_on_c, 0, 75, 49
1, 875242, Note_off_c, 0, 75, 51
1, 875270, Note_on_c, 0, 73, 46
1, 875296, Note_off_c, 0, 73, 58
1, 875360, Note_on_c, 0, 56, 35
1, 875382, Note_on_c, 0, 64, 27
1, 875394, Note_on_c, 0, 73, 42
1, 875541, Note_off_c, 0, 56, 30
1, 875567, Note_off_c, 0, 73, 59
1, 875578, Note_off_c, 0, 64, 49
1, 875594, Note_on_c, 0, 68, 51
1, 875594, Note_on_c, 0, 76, 57
1, 875618, Note_off_c, 0, 68, 57
1, 875633, Note_off_c, 0, 76, 58
1, 875775, Control_c, 0, 64, 53
1, 875787, Note_on_c, 0, 56, 38
1, 875788, Note_on_c, 0, 75, 52
1, 875789, Note_on_c, 0, 68, 31
1, 875790, Control_c, 0, 64, 66
1, 875796, Note_on_c, 0, 72, 45
1, 875804, Control_c, 0, 64, 73
1, 875810, Note_off_c, 0, 75, 62
1, 875817, Note_off_c, 0, 56, 50
1, 875818, Note_off_c, 0, 72, 52
1, 875819, Control_c, 0, 64, 82
1, 875826, Note_off_c, 0, 68, 32
1, 875834, Control_c, 0, 64, 88
1, 875849, Control_c, 0, 64, 95
1, 875864, Control_c, 0, 64, 102
1, 875878, Control_c, 0, 64, 113
1, 875893, Control_c, 0, 64, 127
1, 875991, Note_on_c, 0, 63, 69
1, 876013, Control_c, 0, 64, 85
1, 876020, Note_off_c, 0, 63, 65
1, 876022, Note_on_c, 0, 61, 65
1, 876027, Control_c, 0, 64, 66
1, 876027, Control_c, 0, 67, 125
1, 876042, Control_c, 0, 64, 0
1, 876042, Control_c, 0, 67, 88
1, 876055, Note_off_c, 0, 61, 63
1, 876057, Control_c, 0, 67, 40
1, 876072, Control_c, 0, 67, 0
1, 876095, Note_on_c, 0, 60, 70
1, 876185, Note_on_c, 0, 49, 55
1, 876186, Note_on_c, 0, 56, 48
1, 876189, Note_on_c, 0, 61, 65
1, 876191, Note_off_c, 0, 60, 54
1, 876208, Note_on_c, 0, 52, 30
1, 876214, Note_off_c, 0, 56, 54
1, 876220, Note_off_c, 0, 49, 64
1, 876244, Note_off_c, 0, 52, 50
1, 876246, Note_off_c, 0, 61, 54
1, 876289, Note_on_c, 0, 64, 58
1, 876342, Note_off_c, 0, 64, 59
1, 876390, Note_on_c, 0, 56, 44
1, 876396, Note_on_c, 0, 61, 62
1, 876398, Note_on_c, 0, 52, 25
1, 876402, Note_on_c, 0, 49, 36
1, 876417, Note_off_c, 0, 56, 55
1, 876427, Note_off_c, 0, 61, 64
1, 876437, Note_off_c, 0, 49, 47
1, 876438, Note_off_c, 0, 52, 42
1, 876610, Note_on_c, 0, 66, 73
1, 876822, Note_on_c, 0, 45, 55
1, 876822, Note_on_c, 0, 54, 44
1, 876838, Note_on_c, 0, 49, 35
1, 876853, Note_off_c, 0, 45, 61
1, 876853, Note_off_c, 0, 54, 52
1, 876870, Note_off_c, 0, 49, 50
1, 876984, Control_c, 0, 64, 50
1, 876998, Control_c, 0, 64, 66
1, 877013, Control_c, 0, 64, 74
1, 877028, Control_c, 0, 64, 90
1, 877033, Note_on_c, 0, 54, 59
1, 877036, Note_on_c, 0, 45, 59
1, 877040, Note_on_c, 0, 49, 52
1, 877050, Control_c, 0, 64, 127
1, 877060, Note_off_c, 0, 66, 52
1, 877062, Note_off_c, 0, 54, 60
1, 877070, Note_off_c, 0, 45, 56
1, 877074, Note_off_c, 0, 49, 57
1, 877231, Note_on_c, 0, 63, 75
1, 877268, Note_on_c, 0, 61, 78
1, 877272, Control_c, 0, 64, 95
1, 877287, Control_c, 0, 64, 72
1, 877302, Note_off_c, 0, 63, 61
1, 877302, Control_c, 0, 64, 48
1, 877317, Control_c, 0, 64, 0
1, 877338, Note_on_c, 0, 60, 85
1, 877338, Note_off_c, 0, 61, 61
1, 877431, Note_on_c, 0, 61, 88
1, 877433, Note_on_c, 0, 52, 73
1, 877439, Note_on_c, 0, 44, 67
1, 877446, Note_on_c, 0, 49, 52
1, 877457, Note_off_c, 0, 52, 66
1, 877459, Note_off_c, 0, 60, 63
1, 877465, Note_off_c, 0, 44, 64
1, 877475, Note_off_c, 0, 49, 58
1, 877516, Note_on_c, 0, 64, 81
1, 877529, Note_off_c, 0, 61, 61
1, 877617, Note_on_c, 0, 61, 89
1, 877618, Note_on_c, 0, 52, 83
1, 877620, Note_off_c, 0, 64, 65
1, 877623, Note_on_c, 0, 49, 65
1, 877627, Note_on_c, 0, 44, 68
1, 877639, Note_off_c, 0, 52, 68
1, 877648, Note_off_c, 0, 49, 65
1, 877650, Note_off_c, 0, 44, 63
1, 877656, Note_off_c, 0, 61, 64
1, 877853, Note_on_c, 0, 69, 97
1, 878097, Note_on_c, 0, 50, 55
1, 878102, Note_on_c, 0, 42, 49
1, 878113, Note_on_c, 0, 45, 47
1, 878131, Note_off_c, 0, 50, 61
1, 878143, Note_off_c, 0, 42, 61
1, 878146, Note_off_c, 0, 45, 57
1, 878273, Control_c, 0, 64, 45
1, 878273, Control_c, 0, 67, 25
1, 878288, Control_c, 0, 64, 60
1, 878288, Control_c, 0, 67, 33
1, 878303, Control_c, 0, 64, 67
1, 878303, Control_c, 0, 67, 47
1, 878318, Control_c, 0, 64, 72
1, 878318, Control_c, 0, 67, 70
1, 878334, Control_c, 0, 64, 78
1, 878334, Control_c, 0, 67, 94
1, 878348, Control_c, 0, 64, 87
1, 878348, Control_c, 0, 67, 120
1, 878363, Control_c, 0, 64, 101
1, 878363, Control_c, 0, 67, 127
1, 878369, Note_on_c, 0, 42, 50
1, 878378, Control_c, 0, 64, 127
1, 878381, Note_on_c, 0, 45, 48
1, 878392, Note_on_c, 0, 50, 37
1, 878440, Note_off_c, 0, 42, 54
1, 878450, Note_off_c, 0, 45, 58
1, 878450, Note_off_c, 0, 50, 58
1, 878623, Note_off_c, 0, 69, 37
1, 878754, Note_on_c, 0, 69, 46
1, 878829, Control_c, 0, 64, 122
1, 878844, Control_c, 0, 64, 105
1, 878859, Control_c, 0, 64, 95
1, 878862, Note_on_c, 0, 68, 60
1, 878874, Control_c, 0, 64, 85
1, 878889, Control_c, 0, 64, 73
1, 878903, Control_c, 0, 64, 61
1, 878918, Control_c, 0, 64, 35
1, 878933, Control_c, 0, 64, 0
1, 878973, Note_off_c, 0, 69, 39
1, 878975, Note_on_c, 0, 40, 44
1, 878977, Note_on_c, 0, 66, 74
1, 878980, Note_on_c, 0, 49, 47
1, 879013, Note_off_c, 0, 49, 57
1, 879015, Note_off_c, 0, 40, 61
1, 879063, Note_off_c, 0, 68, 38
1, 879067, Control_c, 0, 64, 36
1, 879078, Note_on_c, 0, 64, 67
1, 879082, Control_c, 0, 64, 56
1, 879096, Control_c, 0, 64, 66
1, 879111, Control_c, 0, 64, 69
1, 879126, Control_c, 0, 64, 73
1, 879128, Note_off_c, 0, 66, 61
1, 879141, Control_c, 0, 64, 76
1, 879148, Note_off_c, 0, 64, 61
1, 879156, Control_c, 0, 64, 78
1, 879159, Note_on_c, 0, 62, 74
1, 879171, Control_c, 0, 64, 79
1, 879181, Note_on_c, 0, 40, 30
1, 879186, Control_c, 0, 64, 81
1, 879193, Note_on_c, 0, 45, 51
1, 879201, Control_c, 0, 64, 84
1, 879216, Control_c, 0, 64, 86
1, 879226, Note_off_c, 0, 45, 55
1, 879229, Note_off_c, 0, 40, 54
1, 879231, Control_c, 0, 64, 87
1, 879245, Control_c, 0, 64, 88
1, 879255, Note_off_c, 0, 62, 35
1, 879260, Control_c, 0, 64, 89
1, 879265, Note_on_c, 0, 61, 67
1, 879324, Note_off_c, 0, 61, 50
1, 879386, Control_c, 0, 64, 88
1, 879401, Control_c, 0, 64, 86
1, 879416, Control_c, 0, 64, 81
1, 879431, Control_c, 0, 64, 76
1, 879445, Control_c, 0, 64, 69
1, 879458, Note_on_c, 0, 61, 51
1, 879460, Control_c, 0, 64, 61
1, 879468, Note_on_c, 0, 52, 28
1, 879470, Note_on_c, 0, 40, 23
1, 879472, Note_on_c, 0, 57, 46
1, 879475, Control_c, 0, 64, 46
1, 879490, Control_c, 0, 64, 0
1, 879767, Note_off_c, 0, 61, 51
1, 879813, Note_off_c, 0, 57, 45
1, 879850, Note_on_c, 0, 62, 46
1, 879949, Note_off_c, 0, 62, 59
1, 879972, Note_off_c, 0, 40, 55
1, 879973, Note_on_c, 0, 56, 48
1, 879976, Note_on_c, 0, 59, 45
1, 879985, Note_off_c, 0, 52, 46
1, 879994, Control_c, 0, 64, 57
1, 880005, Note_off_c, 0, 56, 62
1, 880009, Control_c, 0, 64, 65
1, 880009, Control_c, 0, 67, 98
1, 880016, Note_off_c, 0, 59, 65
1, 880024, Control_c, 0, 64, 70
1, 880024, Control_c, 0, 67, 56
1, 880047, Control_c, 0, 64, 81
1, 880047, Control_c, 0, 67, 0
1, 880062, Control_c, 0, 64, 103
1, 880076, Control_c, 0, 64, 127
1, 880288, Note_on_c, 0, 81, 67
1, 880308, Note_on_c, 0, 85, 75
1, 880311, Note_off_c, 0, 81, 66
1, 880326, Note_on_c, 0, 88, 90
1, 880334, Note_off_c, 0, 85, 66
1, 880343, Control_c, 0, 64, 88
1, 880355, Note_off_c, 0, 88, 65
1, 880358, Control_c, 0, 64, 65
1, 880372, Control_c, 0, 64, 0
1, 880476, Control_c, 0, 67, 21
1, 880491, Control_c, 0, 67, 25
1, 880506, Control_c, 0, 67, 30
1, 880521, Control_c, 0, 67, 38
1, 880536, Control_c, 0, 67, 53
1, 880550, Control_c, 0, 67, 73
1, 880565, Control_c, 0, 67, 91
1, 880573, Note_on_c, 0, 76, 63
1, 880575, Note_on_c, 0, 73, 58
1, 880580, Control_c, 0, 67, 105
1, 880582, Note_on_c, 0, 69, 48
1, 880594, Control_c, 0, 67, 116
1, 880604, Note_off_c, 0, 76, 65
1, 880606, Note_off_c, 0, 69, 57
1, 880609, Control_c, 0, 67, 123
1, 880611, Note_off_c, 0, 73, 60
1, 880624, Control_c, 0, 67, 127
1, 880759, Control_c, 0, 67, 125
1, 880773, Control_c, 0, 67, 95
1, 880796, Control_c, 0, 67, 43
1, 880803, Note_on_c, 0, 61, 51
1, 880808, Note_on_c, 0, 64, 48
1, 880811, Control_c, 0, 67, 0
1, 880815, Note_on_c, 0, 57, 39
1, 880829, Note_off_c, 0, 61, 58
1, 880831, Note_off_c, 0, 64, 57
1, 880846, Note_off_c, 0, 57, 55
1, 880999, Note_on_c, 0, 56, 59
1, 881012, Note_on_c, 0, 59, 47
1, 881014, Note_on_c, 0, 64, 44
1, 881020, Note_off_c, 0, 56, 59
1, 881037, Note_off_c, 0, 59, 56
1, 881042, Note_off_c, 0, 64, 38
1, 881214, Note_on_c, 0, 68, 57
1, 881224, Note_on_c, 0, 71, 53
1, 881235, Note_off_c, 0, 68, 64
1, 881262, Note_off_c, 0, 71, 60
1, 881297, Note_on_c, 0, 76, 63
1, 881351, Note_off_c, 0, 76, 52
1, 881388, Note_on_c, 0, 64, 46
1, 881388, Control_c, 0, 64, 34
1, 881391, Note_on_c, 0, 57, 37
1, 881402, Note_on_c, 0, 61, 36
1, 881403, Control_c, 0, 64, 58
1, 881406, Note_on_c, 0, 73, 58
1, 881413, Note_on_c, 0, 69, 46
1, 881417, Control_c, 0, 64, 69
1, 881432, Control_c, 0, 64, 78
1, 881440, Note_off_c, 0, 69, 51
1, 881447, Control_c, 0, 64, 93
1, 881457, Note_off_c, 0, 73, 60
1, 881461, Note_off_c, 0, 64, 52
1, 881461, Note_off_c, 0, 57, 43
1, 881462, Control_c, 0, 64, 116
1, 881463, Note_on_c, 0, 76, 74
1, 881477, Control_c, 0, 64, 127
1, 881486, Note_off_c, 0, 76, 69
1, 881579, Note_on_c, 0, 83, 90
1, 881589, Note_on_c, 0, 88, 92
1, 881591, Note_on_c, 0, 86, 84
1, 881595, Note_off_c, 0, 83, 74
1, 881610, Note_off_c, 0, 86, 71
1, 881618, Control_c, 0, 64, 125
1, 881621, Note_off_c, 0, 88, 62
1, 881633, Control_c, 0, 64, 77
1, 881639, Note_off_c, 0, 61, 39
1, 881647, Control_c, 0, 64, 56
1, 881662, Control_c, 0, 64, 0
1, 881805, Note_on_c, 0, 74, 68
1, 881807, Note_on_c, 0, 71, 59
1, 881809, Note_on_c, 0, 76, 57
1, 881827, Note_off_c, 0, 71, 63
1, 881830, Note_off_c, 0, 76, 63
1, 881831, Note_off_c, 0, 74, 65
1, 882003, Note_on_c, 0, 59, 49
1, 882005, Note_on_c, 0, 62, 55
1, 882005, Note_on_c, 0, 64, 53
1, 882031, Note_off_c, 0, 59, 57
1, 882031, Note_off_c, 0, 64, 57
1, 882035, Note_off_c, 0, 62, 61
1, 882205, Note_on_c, 0, 57, 66
1, 882215, Note_on_c, 0, 64, 55
1, 882216, Note_on_c, 0, 61, 65
1, 882231, Note_off_c, 0, 57, 65
1, 882235, Note_off_c, 0, 61, 63
1, 882236, Note_off_c, 0, 64, 58
1, 882429, Note_on_c, 0, 69, 63
1, 882439, Note_on_c, 0, 73, 60
1, 882457, Note_off_c, 0, 69, 68
1, 882481, Note_off_c, 0, 73, 58
1, 882515, Note_on_c, 0, 76, 69
1, 882546, Note_off_c, 0, 76, 64
1, 882584, Note_on_c, 0, 64, 59
1, 882588, Note_on_c, 0, 59, 52
1, 882602, Note_on_c, 0, 62, 47
1, 882607, Note_on_c, 0, 71, 65
1, 882619, Control_c, 0, 64, 56
1, 882620, Note_on_c, 0, 74, 61
1, 882634, Note_off_c, 0, 71, 64
1, 882634, Control_c, 0, 64, 65
1, 882649, Control_c, 0, 64, 71
1, 882664, Note_on_c, 0, 76, 74
1, 882664, Control_c, 0, 64, 80
1, 882664, Note_off_c, 0, 74, 63
1, 882678, Control_c, 0, 64, 97
1, 882680, Note_off_c, 0, 76, 66
1, 882693, Control_c, 0, 64, 127
1, 882747, Note_off_c, 0, 62, 61
1, 882751, Note_off_c, 0, 59, 61
1, 882755, Note_off_c, 0, 64, 60
1, 882773, Note_on_c, 0, 85, 82
1, 882783, Note_on_c, 0, 88, 101
1, 882789, Note_off_c, 0, 85, 69
1, 882792, Note_on_c, 0, 93, 91
1, 882799, Note_off_c, 0, 88, 72
1, 882822, Note_off_c, 0, 93, 64
1, 882826, Control_c, 0, 64, 89
1, 882841, Control_c, 0, 64, 66
1, 882856, Control_c, 0, 64, 36
1, 882870, Control_c, 0, 64, 0
1, 882990, Note_on_c, 0, 81, 88
1, 882992, Note_on_c, 0, 73, 78
1, 882999, Note_on_c, 0, 76, 72
1, 883008, Note_off_c, 0, 81, 72
1, 883009, Note_off_c, 0, 73, 68
1, 883017, Note_off_c, 0, 76, 67
1, 883178, Note_on_c, 0, 64, 72
1, 883190, Note_on_c, 0, 61, 54
1, 883202, Note_off_c, 0, 64, 69
1, 883213, Note_off_c, 0, 61, 59
1, 883400, Note_on_c, 0, 67, 92
1, 883402, Note_on_c, 0, 59, 80
1, 883403, Note_on_c, 0, 62, 79
1, 883601, Note_on_c, 0, 74, 67
1, 883603, Note_on_c, 0, 79, 75
1, 883619, Control_c, 0, 64, 46
1, 883620, Note_off_c, 0, 74, 61
1, 883624, Note_off_c, 0, 79, 71
1, 883634, Control_c, 0, 64, 64
1, 883649, Control_c, 0, 64, 72
1, 883664, Control_c, 0, 64, 84
1, 883679, Control_c, 0, 64, 103
1, 883693, Control_c, 0, 64, 127
1, 883768, Note_off_c, 0, 59, 59
1, 883768, Note_on_c, 0, 83, 74
1, 883775, Note_off_c, 0, 67, 61
1, 883777, Note_on_c, 0, 86, 97
1, 883792, Note_on_c, 0, 91, 97
1, 883792, Note_off_c, 0, 83, 69
1, 883801, Note_off_c, 0, 86, 72
1, 883802, Note_off_c, 0, 62, 60
1, 883819, Control_c, 0, 64, 82
1, 883827, Note_off_c, 0, 91, 67
1, 883834, Control_c, 0, 64, 61
1, 883834, Control_c, 0, 67, 27
1, 883849, Control_c, 0, 64, 0
1, 883849, Control_c, 0, 67, 38
1, 883864, Control_c, 0, 67, 58
1, 883879, Control_c, 0, 67, 79
1, 883893, Control_c, 0, 67, 102
1, 883908, Control_c, 0, 67, 124
1, 883924, Control_c, 0, 67, 127
1, 884001, Note_on_c, 0, 91, 65
1, 884030, Note_off_c, 0, 91, 63
1, 884032, Note_on_c, 0, 90, 69
1, 884060, Note_off_c, 0, 90, 62
1, 884108, Note_on_c, 0, 89, 66
1, 884168, Note_off_c, 0, 89, 54
1, 884178, Note_on_c, 0, 90, 63
1, 884194, Note_on_c, 0, 66, 45
1, 884195, Note_on_c, 0, 57, 41
1, 884200, Note_on_c, 0, 62, 37
1, 884212, Note_off_c, 0, 90, 60
1, 884224, Note_off_c, 0, 66, 51
1, 884230, Note_off_c, 0, 57, 52
1, 884230, Note_off_c, 0, 62, 49
1, 884271, Note_on_c, 0, 93, 61
1, 884333, Note_off_c, 0, 93, 43
1, 884368, Note_on_c, 0, 88, 58
1, 884376, Note_on_c, 0, 67, 40
1, 884381, Note_on_c, 0, 61, 36
1, 884396, Note_off_c, 0, 88, 55
1, 884403, Note_off_c, 0, 67, 50
1, 884412, Note_off_c, 0, 61, 55
1, 884441, Poly_aftertouch_c, 0, 57, 0
1, 884449, Note_on_c, 0, 93, 58
1, 884552, Note_off_c, 0, 93, 57
1, 884567, Note_on_c, 0, 90, 59
1, 884573, Note_on_c, 0, 62, 38
1, 884596, Note_on_c, 0, 66, 27
1, 884641, Control_c, 0, 64, 54
1, 884647, Note_off_c, 0, 90, 55
1, 884650, Note_on_c, 0, 86, 57
1, 884656, Control_c, 0, 64, 66
1, 884671, Control_c, 0, 64, 74
1, 884683, Note_off_c, 0, 86, 65
1, 884685, Note_off_c, 0, 62, 53
1, 884686, Control_c, 0, 64, 92
1, 884686, Control_c, 0, 67, 98
1, 884699, Note_off_c, 0, 66, 40
1, 884701, Control_c, 0, 64, 120
1, 884701, Control_c, 0, 67, 57
1, 884717, Control_c, 0, 64, 127
1, 884717, Control_c, 0, 67, 0
1, 884735, Note_on_c, 0, 81, 68
1, 884777, Note_off_c, 0, 81, 56
1, 884820, Note_on_c, 0, 78, 70
1, 884909, Note_on_c, 0, 74, 72
1, 884909, Note_off_c, 0, 78, 61
1, 884926, Note_off_c, 0, 74, 66
1, 885066, Note_on_c, 0, 83, 75
1, 885087, Note_on_c, 0, 86, 90
1, 885090, Note_off_c, 0, 83, 65
1, 885094, Note_on_c, 0, 91, 95
1, 885104, Note_off_c, 0, 86, 72
1, 885125, Note_off_c, 0, 91, 66
1, 885131, Control_c, 0, 64, 81
1, 885146, Control_c, 0, 64, 59
1, 885161, Control_c, 0, 64, 0
1, 885282, Note_on_c, 0, 79, 87
1, 885297, Note_on_c, 0, 71, 72
1, 885301, Note_on_c, 0, 74, 71
1, 885309, Note_off_c, 0, 79, 70
1, 885315, Note_off_c, 0, 71, 68
1, 885320, Note_off_c, 0, 74, 65
1, 885492, Note_on_c, 0, 67, 75
1, 885499, Note_on_c, 0, 59, 63
1, 885502, Note_on_c, 0, 62, 61
1, 885515, Note_off_c, 0, 67, 68
1, 885535, Note_off_c, 0, 62, 63
1, 885554, Note_off_c, 0, 59, 59
1, 885711, Note_on_c, 0, 65, 95
1, 885715, Note_on_c, 0, 57, 78
1, 885716, Note_on_c, 0, 60, 81
1, 885899, Note_on_c, 0, 69, 62
1, 885905, Note_on_c, 0, 72, 67
1, 885908, Note_on_c, 0, 77, 75
1, 885918, Note_off_c, 0, 69, 65
1, 885925, Note_off_c, 0, 72, 66
1, 885929, Note_off_c, 0, 77, 70
1, 886013, Control_c, 0, 64, 33
1, 886028, Control_c, 0, 64, 55
1, 886051, Control_c, 0, 64, 66
1, 886066, Control_c, 0, 64, 77
1, 886081, Control_c, 0, 64, 98
1, 886089, Note_off_c, 0, 57, 59
1, 886092, Note_on_c, 0, 81, 80
1, 886095, Note_off_c, 0, 65, 57
1, 886095, Control_c, 0, 64, 127
1, 886109, Note_on_c, 0, 84, 92
1, 886113, Note_off_c, 0, 81, 67
1, 886119, Note_on_c, 0, 89, 96
1, 886126, Note_off_c, 0, 84, 72
1, 886141, Note_off_c, 0, 60, 61
1, 886154, Note_off_c, 0, 89, 66
1, 886169, Control_c, 0, 64, 78
1, 886169, Control_c, 0, 67, 22
1, 886184, Control_c, 0, 64, 57
1, 886184, Control_c, 0, 67, 33
1, 886199, Control_c, 0, 64, 0
1, 886199, Control_c, 0, 67, 56
1, 886213, Control_c, 0, 67, 86
1, 886228, Control_c, 0, 67, 117
1, 886243, Control_c, 0, 67, 127
1, 886331, Note_on_c, 0, 89, 73
1, 886361, Note_on_c, 0, 88, 65
1, 886382, Note_off_c, 0, 89, 50
1, 886414, Note_off_c, 0, 88, 62
1, 886430, Note_on_c, 0, 87, 69
1, 886489, Note_off_c, 0, 87, 50
1, 886525, Note_on_c, 0, 64, 43
1, 886525, Note_on_c, 0, 88, 60
1, 886526, Note_on_c, 0, 60, 41
1, 886554, Note_off_c, 0, 64, 53
1, 886557, Note_on_c, 0, 55, 3
1, 886557, Note_off_c, 0, 60, 55
1, 886563, Note_off_c, 0, 88, 62
1, 886596, Note_off_c, 0, 55, 33
1, 886600, Note_on_c, 0, 91, 58
1, 886681, Note_off_c, 0, 91, 38
1, 886694, Note_on_c, 0, 55, 40
1, 886705, Note_on_c, 0, 86, 52
1, 886707, Note_on_c, 0, 65, 48
1, 886720, Note_on_c, 0, 59, 27
1, 886725, Note_off_c, 0, 55, 56
1, 886734, Note_off_c, 0, 65, 53
1, 886746, Note_off_c, 0, 86, 57
1, 886755, Note_off_c, 0, 59, 51
1, 886790, Note_on_c, 0, 91, 65
1, 886869, Note_off_c, 0, 91, 39
1, 886888, Control_c, 0, 64, 48
1, 886897, Note_on_c, 0, 88, 63
1, 886903, Control_c, 0, 64, 63
1, 886910, Note_on_c, 0, 60, 35
1, 886918, Control_c, 0, 64, 68
1, 886922, Note_on_c, 0, 64, 25
1, 886933, Control_c, 0, 64, 73
1, 886948, Control_c, 0, 64, 79
1, 886962, Control_c, 0, 64, 86
1, 886968, Note_off_c, 0, 64, 45
1, 886977, Control_c, 0, 64, 90
1, 886984, Note_on_c, 0, 84, 63
1, 886992, Note_off_c, 0, 88, 43
1, 886992, Control_c, 0, 64, 94
1, 887002, Note_off_c, 0, 60, 49
1, 887007, Control_c, 0, 64, 99
1, 887022, Control_c, 0, 64, 104
1, 887026, Note_off_c, 0, 84, 60
1, 887036, Control_c, 0, 64, 107
1, 887066, Control_c, 0, 64, 109
1, 887070, Note_on_c, 0, 79, 60
1, 887088, Note_off_c, 0, 79, 67
1, 887111, Control_c, 0, 64, 112
1, 887126, Control_c, 0, 64, 115
1, 887160, Note_on_c, 0, 76, 67
1, 887200, Control_c, 0, 64, 117
1, 887215, Control_c, 0, 64, 120
1, 887230, Control_c, 0, 64, 125
1, 887246, Note_off_c, 0, 76, 60
1, 887252, Note_on_c, 0, 72, 55
1, 887271, Note_off_c, 0, 72, 62
1, 887437, Control_c, 0, 64, 120
1, 887452, Control_c, 0, 64, 108
1, 887452, Note_on_c, 0, 47, 32
1, 887467, Control_c, 0, 64, 89
1, 887482, Control_c, 0, 64, 74
1, 887497, Control_c, 0, 64, 62
1, 887506, Note_on_c, 0, 93, 53
1, 887511, Control_c, 0, 64, 44
1, 887533, Control_c, 0, 64, 34
1, 887542, Note_on_c, 0, 91, 58
1, 887548, Control_c, 0, 64, 43
1, 887563, Control_c, 0, 64, 55
1, 887578, Control_c, 0, 64, 63
1, 887588, Note_off_c, 0, 93, 58
1, 887592, Control_c, 0, 64, 70
1, 887607, Control_c, 0, 64, 78
1, 887616, Note_on_c, 0, 90, 71
1, 887618, Note_off_c, 0, 91, 61
1, 887622, Control_c, 0, 64, 89
1, 887637, Control_c, 0, 64, 98
1, 887652, Control_c, 0, 64, 109
1, 887658, Note_off_c, 0, 47, 44
1, 887667, Control_c, 0, 64, 127
1, 887689, Note_on_c, 0, 55, 46
1, 887691, Note_off_c, 0, 90, 62
1, 887697, Note_on_c, 0, 91, 81
1, 887697, Control_c, 0, 67, 112
1, 887711, Control_c, 0, 67, 79
1, 887726, Control_c, 0, 67, 38
1, 887741, Control_c, 0, 67, 0
1, 887782, Note_off_c, 0, 91, 62
1, 887784, Note_on_c, 0, 90, 91
1, 887813, Note_off_c, 0, 55, 59
1, 887855, Note_on_c, 0, 62, 55
1, 887866, Note_on_c, 0, 91, 84
1, 887870, Note_off_c, 0, 90, 64
1, 887895, Note_off_c, 0, 62, 60
1, 887939, Note_off_c, 0, 91, 63
1, 887947, Note_on_c, 0, 93, 76
1, 887979, Control_c, 0, 64, 118
1, 887987, Note_off_c, 0, 93, 63
1, 887994, Control_c, 0, 64, 83
1, 888008, Control_c, 0, 64, 66
1, 888020, Note_on_c, 0, 48, 36
1, 888023, Control_c, 0, 64, 50
1, 888038, Control_c, 0, 64, 42
1, 888053, Control_c, 0, 64, 51
1, 888054, Note_on_c, 0, 93, 67
1, 888068, Control_c, 0, 64, 59
1, 888082, Control_c, 0, 64, 65
1, 888097, Control_c, 0, 64, 75
1, 888112, Control_c, 0, 64, 91
1, 888127, Control_c, 0, 64, 127
1, 888143, Note_on_c, 0, 91, 83
1, 888156, Control_c, 0, 67, 20
1, 888168, Note_off_c, 0, 93, 62
1, 888171, Control_c, 0, 67, 25
1, 888183, Note_off_c, 0, 48, 51
1, 888186, Control_c, 0, 67, 33
1, 888200, Control_c, 0, 67, 45
1, 888215, Control_c, 0, 67, 63
1, 888222, Note_on_c, 0, 55, 44
1, 888230, Control_c, 0, 67, 86
1, 888242, Note_on_c, 0, 88, 87
1, 888245, Control_c, 0, 67, 105
1, 888255, Note_off_c, 0, 91, 61
1, 888260, Control_c, 0, 67, 121
1, 888282, Control_c, 0, 67, 127
1, 888320, Note_off_c, 0, 88, 64
1, 888322, Note_on_c, 0, 84, 83
1, 888361, Note_off_c, 0, 84, 60
1, 888389, Note_off_c, 0, 55, 33
1, 888416, Note_on_c, 0, 79, 77
1, 888428, Note_on_c, 0, 64, 53
1, 888439, Note_off_c, 0, 79, 70
1, 888461, Note_off_c, 0, 64, 65
1, 888579, Control_c, 0, 64, 107
1, 888594, Control_c, 0, 64, 78
1, 888608, Control_c, 0, 64, 58
1, 888613, Note_on_c, 0, 50, 47
1, 888623, Control_c, 0, 64, 0
1, 888633, Note_on_c, 0, 79, 79
1, 888634, Note_on_c, 0, 77, 79
1, 888653, Note_off_c, 0, 79, 73
1, 888655, Note_off_c, 0, 77, 69
1, 888733, Note_on_c, 0, 79, 65
1, 888750, Note_off_c, 0, 79, 68
1, 888752, Note_on_c, 0, 77, 39
1, 888754, Note_off_c, 0, 50, 57
1, 888811, Note_on_c, 0, 79, 74
1, 888820, Note_on_c, 0, 59, 47
1, 888827, Note_off_c, 0, 77, 0
1, 888827, Note_on_c, 0, 77, 27
1, 888832, Note_off_c, 0, 79, 71
1, 888858, Note_off_c, 0, 77, 47
1, 888895, Note_on_c, 0, 79, 79
1, 888900, Note_on_c, 0, 77, 59
1, 888922, Note_off_c, 0, 79, 64
1, 888926, Note_off_c, 0, 77, 67
1, 888982, Note_on_c, 0, 79, 71
1, 888987, Note_on_c, 0, 77, 65
1, 889005, Note_off_c, 0, 77, 68
1, 889009, Note_off_c, 0, 79, 67
1, 889011, Note_on_c, 0, 65, 51
1, 889043, Note_off_c, 0, 65, 61
1, 889075, Note_on_c, 0, 79, 63
1, 889080, Note_on_c, 0, 77, 65
1, 889103, Note_off_c, 0, 77, 66
1, 889116, Note_off_c, 0, 79, 64
1, 889147, Note_off_c, 0, 59, 42
1, 889184, Note_on_c, 0, 81, 67
1, 889186, Note_on_c, 0, 52, 37
1, 889196, Note_on_c, 0, 76, 51
1, 889221, Note_off_c, 0, 76, 62
1, 889273, Note_on_c, 0, 79, 69
1, 889284, Note_off_c, 0, 81, 55
1, 889349, Note_off_c, 0, 52, 58
1, 889357, Note_off_c, 0, 79, 61
1, 889357, Control_c, 0, 64, 42
1, 889371, Note_on_c, 0, 76, 56
1, 889372, Note_on_c, 0, 60, 40
1, 889372, Control_c, 0, 64, 55
1, 889387, Control_c, 0, 64, 61
1, 889402, Control_c, 0, 64, 65
1, 889411, Note_off_c, 0, 76, 61
1, 889417, Control_c, 0, 64, 68
1, 889431, Control_c, 0, 64, 72
1, 889446, Control_c, 0, 64, 75
1, 889458, Note_on_c, 0, 72, 53
1, 889461, Control_c, 0, 64, 78
1, 889476, Control_c, 0, 64, 81
1, 889489, Note_off_c, 0, 72, 66
1, 889490, Control_c, 0, 64, 85
1, 889506, Control_c, 0, 64, 89
1, 889520, Note_off_c, 0, 60, 45
1, 889521, Control_c, 0, 64, 93
1, 889536, Control_c, 0, 64, 97
1, 889551, Control_c, 0, 64, 102
1, 889554, Note_on_c, 0, 64, 34
1, 889557, Note_on_c, 0, 67, 61
1, 889566, Control_c, 0, 64, 106
1, 889577, Note_off_c, 0, 67, 64
1, 889580, Control_c, 0, 64, 111
1, 889585, Note_off_c, 0, 64, 48
1, 889595, Control_c, 0, 64, 115
1, 889610, Control_c, 0, 64, 118
1, 889625, Control_c, 0, 64, 120
1, 889640, Control_c, 0, 64, 122
1, 889654, Control_c, 0, 64, 125
1, 889669, Control_c, 0, 64, 127
1, 889713, Control_c, 0, 64, 125
1, 889728, Control_c, 0, 64, 106
1, 889744, Control_c, 0, 64, 86
1, 889759, Control_c, 0, 64, 65
1, 889771, Note_on_c, 0, 90, 60
1, 889771, Note_on_c, 0, 44, 44
1, 889774, Control_c, 0, 64, 40
1, 889795, Control_c, 0, 64, 0
1, 889812, Note_on_c, 0, 88, 72
1, 889825, Control_c, 0, 67, 117
1, 889840, Control_c, 0, 64, 50
1, 889840, Control_c, 0, 67, 74
1, 889855, Control_c, 0, 64, 65
1, 889855, Control_c, 0, 67, 26
1, 889870, Control_c, 0, 64, 72
1, 889870, Control_c, 0, 67, 0
1, 889885, Control_c, 0, 64, 83
1, 889888, Note_on_c, 0, 87, 79
1, 889892, Note_off_c, 0, 88, 63
1, 889899, Control_c, 0, 64, 95
1, 889900, Note_off_c, 0, 90, 36
1, 889914, Control_c, 0, 64, 107
1, 889929, Control_c, 0, 64, 127
1, 889956, Note_on_c, 0, 88, 85
1, 889956, Note_off_c, 0, 44, 46
1, 889962, Note_off_c, 0, 87, 64
1, 889971, Note_on_c, 0, 52, 44
1, 890051, Note_on_c, 0, 87, 89
1, 890055, Note_off_c, 0, 88, 64
1, 890133, Note_on_c, 0, 88, 82
1, 890137, Note_off_c, 0, 87, 63
1, 890152, Note_on_c, 0, 59, 22
1, 890189, Note_off_c, 0, 59, 51
1, 890204, Note_off_c, 0, 88, 63
1, 890212, Note_off_c, 0, 52, 23
1, 890218, Note_on_c, 0, 90, 78
1, 890254, Control_c, 0, 64, 89
1, 890256, Note_off_c, 0, 90, 56
1, 890269, Control_c, 0, 64, 67
1, 890284, Control_c, 0, 64, 45
1, 890290, Note_on_c, 0, 45, 39
1, 890300, Control_c, 0, 64, 0
1, 890317, Note_on_c, 0, 90, 64
1, 890329, Control_c, 0, 64, 41
1, 890344, Control_c, 0, 64, 58
1, 890359, Control_c, 0, 64, 68
1, 890374, Control_c, 0, 64, 79
1, 890389, Control_c, 0, 64, 96
1, 890401, Note_on_c, 0, 88, 71
1, 890403, Control_c, 0, 64, 127
1, 890413, Note_off_c, 0, 45, 37
1, 890418, Note_off_c, 0, 90, 53
1, 890418, Control_c, 0, 67, 20
1, 890433, Control_c, 0, 67, 28
1, 890448, Control_c, 0, 67, 40
1, 890463, Control_c, 0, 67, 59
1, 890470, Note_on_c, 0, 52, 42
1, 890478, Control_c, 0, 67, 84
1, 890493, Control_c, 0, 67, 105
1, 890498, Note_on_c, 0, 85, 71
1, 890508, Control_c, 0, 67, 124
1, 890511, Note_off_c, 0, 88, 62
1, 890522, Control_c, 0, 67, 127
1, 890564, Note_off_c, 0, 85, 60
1, 890588, Note_on_c, 0, 81, 68
1, 890618, Note_off_c, 0, 81, 65
1, 890672, Note_on_c, 0, 76, 80
1, 890683, Note_on_c, 0, 61, 57
1, 890692, Note_off_c, 0, 76, 71
1, 890714, Note_off_c, 0, 61, 64
1, 890826, Control_c, 0, 64, 104
1, 890829, Note_off_c, 0, 52, 39
1, 890841, Control_c, 0, 64, 74
1, 890855, Note_on_c, 0, 47, 55
1, 890855, Control_c, 0, 64, 43
1, 890870, Control_c, 0, 64, 0
1, 890876, Note_on_c, 0, 76, 83
1, 890878, Note_on_c, 0, 74, 84
1, 890896, Note_off_c, 0, 76, 70
1, 890901, Note_off_c, 0, 74, 68
1, 890966, Note_off_c, 0, 47, 55
1, 890973, Note_on_c, 0, 76, 72
1, 890981, Note_on_c, 0, 74, 63
1, 890998, Note_off_c, 0, 76, 67
1, 891001, Note_off_c, 0, 74, 61
1, 891056, Note_on_c, 0, 76, 74
1, 891067, Note_on_c, 0, 74, 66
1, 891078, Note_on_c, 0, 56, 46
1, 891078, Note_off_c, 0, 76, 70
1, 891086, Note_off_c, 0, 74, 64
1, 891147, Note_on_c, 0, 76, 78
1, 891151, Note_on_c, 0, 74, 72
1, 891166, Note_off_c, 0, 74, 66
1, 891169, Note_off_c, 0, 76, 68
1, 891208, Note_on_c, 0, 62, 55
1, 891232, Note_on_c, 0, 74, 77
1, 891233, Note_on_c, 0, 76, 73
1, 891240, Note_off_c, 0, 62, 64
1, 891257, Note_off_c, 0, 74, 68
1, 891259, Note_off_c, 0, 76, 67
1, 891321, Note_on_c, 0, 76, 68
1, 891333, Note_on_c, 0, 74, 67
1, 891352, Note_off_c, 0, 74, 63
1, 891367, Note_off_c, 0, 76, 63
1, 891389, Note_off_c, 0, 56, 41
1, 891415, Note_on_c, 0, 49, 48
1, 891434, Note_on_c, 0, 78, 69
1, 891440, Note_on_c, 0, 73, 59
1, 891456, Control_c, 0, 67, 120
1, 891470, Note_off_c, 0, 73, 66
1, 891471, Control_c, 0, 67, 85
1, 891485, Control_c, 0, 67, 43
1, 891500, Control_c, 0, 67, 0
1, 891512, Note_off_c, 0, 78, 61
1, 891521, Note_on_c, 0, 76, 67
1, 891605, Note_on_c, 0, 57, 38
1, 891614, Note_off_c, 0, 76, 61
1, 891623, Note_on_c, 0, 73, 57
1, 891661, Note_off_c, 0, 73, 60
1, 891709, Note_on_c, 0, 69, 51
1, 891747, Note_off_c, 0, 49, 38
1, 891748, Note_off_c, 0, 69, 63
1, 891782, Control_c, 0, 64, 47
1, 891792, Note_off_c, 0, 57, 56
1, 891797, Control_c, 0, 64, 64
1, 891810, Note_on_c, 0, 64, 51
1, 891811, Control_c, 0, 64, 71
1, 891819, Note_on_c, 0, 61, 45
1, 891826, Control_c, 0, 64, 80
1, 891834, Note_off_c, 0, 64, 55
1, 891841, Control_c, 0, 64, 93
1, 891846, Note_off_c, 0, 61, 56
1, 891856, Control_c, 0, 64, 127
1, 891998, Note_on_c, 0, 79, 75
1, 892009, Note_on_c, 0, 81, 93
1, 892010, Note_on_c, 0, 88, 96
1, 892029, Note_off_c, 0, 79, 70
1, 892031, Note_on_c, 0, 85, 82
1, 892035, Note_off_c, 0, 81, 71
1, 892049, Note_off_c, 0, 85, 73
1, 892055, Note_off_c, 0, 88, 63
1, 892056, Control_c, 0, 64, 75
1, 892071, Control_c, 0, 64, 38
1, 892086, Control_c, 0, 64, 0
1, 892227, Note_on_c, 0, 76, 93
1, 892228, Note_on_c, 0, 67, 89
1, 892243, Note_off_c, 0, 76, 75
1, 892245, Note_off_c, 0, 67, 75
1, 892250, Note_on_c, 0, 69, 47
1, 892257, Note_on_c, 0, 73, 47
1, 892275, Note_off_c, 0, 69, 55
1, 892284, Note_off_c, 0, 73, 54
1, 892420, Note_on_c, 0, 64, 86
1, 892422, Note_on_c, 0, 61, 81
1, 892429, Note_on_c, 0, 57, 75
1, 892440, Note_off_c, 0, 64, 66
1, 892443, Note_off_c, 0, 61, 69
1, 892457, Note_off_c, 0, 57, 67
1, 892631, Note_on_c, 0, 62, 100
1, 892633, Note_on_c, 0, 50, 82
1, 892634, Note_on_c, 0, 57, 90
1, 892648, Control_c, 0, 64, 67
1, 892657, Note_off_c, 0, 50, 69
1, 892663, Control_c, 0, 64, 90
1, 892670, Note_off_c, 0, 62, 63
1, 892678, Control_c, 0, 64, 127
1, 892681, Note_off_c, 0, 57, 59
1, 892836, Note_on_c, 0, 78, 97
1, 892838, Note_on_c, 0, 90, 94
1, 892839, Note_on_c, 0, 86, 84
1, 892856, Note_off_c, 0, 78, 64
1, 892857, Note_off_c, 0, 86, 72
1, 892910, Note_off_c, 0, 90, 63
1, 892988, Note_on_c, 0, 81, 80
1, 893003, Note_on_c, 0, 86, 90
1, 893022, Note_on_c, 0, 90, 89
1, 893023, Note_on_c, 0, 93, 92
1, 893033, Note_off_c, 0, 81, 62
1, 893044, Note_off_c, 0, 86, 66
1, 893057, Control_c, 0, 64, 105
1, 893060, Note_off_c, 0, 90, 65
1, 893065, Note_off_c, 0, 93, 67
1, 893072, Control_c, 0, 64, 71
1, 893087, Control_c, 0, 64, 41
1, 893102, Control_c, 0, 64, 0
1, 893102, Control_c, 0, 67, 20
1, 893131, Control_c, 0, 67, 26
1, 893146, Control_c, 0, 67, 31
1, 893161, Control_c, 0, 67, 37
1, 893175, Control_c, 0, 67, 46
1, 893190, Control_c, 0, 67, 56
1, 893205, Control_c, 0, 67, 67
1, 893220, Control_c, 0, 67, 81
1, 893235, Control_c, 0, 67, 92
1, 893250, Control_c, 0, 67, 104
1, 893265, Control_c, 0, 67, 115
1, 893270, Note_on_c, 0, 100, 66
1, 893280, Control_c, 0, 67, 127
1, 893291, Note_on_c, 0, 61, 40
1, 893295, Note_on_c, 0, 57, 37
1, 893318, Note_on_c, 0, 97, 50
1, 893322, Note_off_c, 0, 100, 50
1, 893325, Note_off_c, 0, 61, 50
1, 893331, Note_off_c, 0, 57, 53
1, 893353, Note_off_c, 0, 97, 62
1, 893365, Poly_aftertouch_c, 0, 52, 0
1, 893373, Note_on_c, 0, 93, 41
1, 893399, Note_off_c, 0, 93, 58
1, 893442, Note_on_c, 0, 97, 73
1, 893460, Note_on_c, 0, 64, 42
1, 893469, Note_on_c, 0, 61, 34
1, 893472, Note_on_c, 0, 52, 33
1, 893478, Note_on_c, 0, 57, 23
1, 893488, Note_off_c, 0, 64, 48
1, 893494, Note_on_c, 0, 93, 66
1, 893500, Note_off_c, 0, 97, 64
1, 893501, Note_off_c, 0, 61, 47
1, 893506, Note_off_c, 0, 52, 48
1, 893529, Note_off_c, 0, 93, 65
1, 893530, Note_off_c, 0, 57, 52
1, 893554, Note_on_c, 0, 88, 64
1, 893580, Note_off_c, 0, 88, 67
1, 893643, Note_on_c, 0, 93, 63
1, 893669, Note_off_c, 0, 93, 65
1, 893670, Note_on_c, 0, 88, 65
1, 893721, Note_off_c, 0, 88, 62
1, 893731, Note_on_c, 0, 85, 56
1, 893751, Note_off_c, 0, 85, 66
1, 893834, Note_on_c, 0, 88, 74
1, 893840, Note_on_c, 0, 52, 49
1, 893858, Note_on_c, 0, 62, 28
1, 893864, Note_on_c, 0, 64, 24
1, 893864, Note_off_c, 0, 88, 59
1, 893867, Note_on_c, 0, 86, 67
1, 893868, Note_on_c, 0, 59, 21
1, 893872, Note_off_c, 0, 52, 59
1, 893898, Note_off_c, 0, 64, 41
1, 893900, Note_off_c, 0, 62, 49
1, 893902, Note_off_c, 0, 86, 57
1, 893909, Note_off_c, 0, 59, 41
1, 893925, Note_on_c, 0, 83, 55
1, 893945, Note_off_c, 0, 83, 61
1, 894017, Note_on_c, 0, 86, 64
1, 894028, Note_on_c, 0, 59, 47
1, 894034, Note_on_c, 0, 52, 8
1, 894040, Note_on_c, 0, 83, 69
1, 894052, Note_off_c, 0, 59, 57
1, 894057, Note_off_c, 0, 86, 51
1, 894079, Note_off_c, 0, 52, 27
1, 894084, Note_off_c, 0, 83, 58
1, 894113, Note_on_c, 0, 80, 58
1, 894133, Note_off_c, 0, 80, 64
1, 894201, Note_on_c, 0, 83, 77
1, 894206, Control_c, 0, 64, 46
1, 894218, Note_on_c, 0, 80, 72
1, 894221, Control_c, 0, 64, 69
1, 894236, Control_c, 0, 64, 95
1, 894251, Control_c, 0, 64, 127
1, 894251, Control_c, 0, 67, 116
1, 894253, Note_off_c, 0, 83, 61
1, 894260, Note_off_c, 0, 80, 60
1, 894262, Note_on_c, 0, 76, 70
1, 894266, Control_c, 0, 67, 78
1, 894287, Control_c, 0, 67, 33
1, 894289, Note_off_c, 0, 76, 66
1, 894303, Control_c, 0, 67, 0
1, 894404, Note_on_c, 0, 76, 103
1, 894407, Note_on_c, 0, 67, 93
1, 894410, Note_on_c, 0, 69, 83
1, 894419, Note_off_c, 0, 67, 74
1, 894421, Note_off_c, 0, 76, 74
1, 894429, Note_off_c, 0, 69, 71
1, 894431, Note_on_c, 0, 73, 38
1, 894431, Note_off_c, 0, 73, 127
1, 894466, Control_c, 0, 64, 116
1, 894481, Control_c, 0, 64, 72
1, 894496, Control_c, 0, 64, 43
1, 894511, Control_c, 0, 64, 0
1, 894612, Note_on_c, 0, 55, 103
1, 894612, Note_on_c, 0, 64, 95
1, 894625, Note_on_c, 0, 61, 69
1, 894626, Note_off_c, 0, 55, 77
1, 894627, Note_off_c, 0, 64, 75
1, 894630, Note_on_c, 0, 57, 58
1, 894651, Note_off_c, 0, 61, 66
1, 894653, Note_off_c, 0, 57, 62
1, 894800, Note_on_c, 0, 52, 100
1, 894806, Note_on_c, 0, 49, 85
1, 894817, Note_on_c, 0, 45, 82
1, 894836, Note_off_c, 0, 52, 60
1, 894838, Note_off_c, 0, 49, 65
1, 894846, Note_off_c, 0, 45, 69
1, 895012, Note_on_c, 0, 50, 107
1, 895013, Note_on_c, 0, 45, 87
1, 895036, Note_on_c, 0, 38, 51
1, 895050, Note_off_c, 0, 45, 68
1, 895052, Control_c, 0, 64, 38
1, 895062, Note_off_c, 0, 50, 66
1, 895067, Control_c, 0, 64, 71
1, 895068, Note_off_c, 0, 38, 55
1, 895082, Control_c, 0, 64, 90
1, 895097, Control_c, 0, 64, 127
1, 895207, Note_on_c, 0, 54, 94
1, 895214, Note_on_c, 0, 62, 77
1, 895215, Note_on_c, 0, 66, 88
1, 895225, Note_off_c, 0, 54, 71
1, 895239, Note_off_c, 0, 62, 67
1, 895262, Note_off_c, 0, 66, 63
1, 895393, Note_on_c, 0, 69, 76
1, 895405, Note_on_c, 0, 74, 91
1, 895418, Note_on_c, 0, 81, 90
1, 895420, Note_off_c, 0, 69, 66
1, 895421, Note_on_c, 0, 78, 84
1, 895431, Note_off_c, 0, 74, 61
1, 895438, Control_c, 0, 64, 90
1, 895446, Note_off_c, 0, 78, 66
1, 895453, Control_c, 0, 64, 64
1, 895454, Note_off_c, 0, 81, 67
1, 895468, Control_c, 0, 64, 0
1, 895674, Note_on_c, 0, 88, 62
1, 895682, Note_on_c, 0, 61, 54
1, 895682, Note_on_c, 0, 64, 47
1, 895685, Note_on_c, 0, 52, 33
1, 895688, Note_on_c, 0, 57, 49
1, 895706, Note_off_c, 0, 64, 57
1, 895712, Note_off_c, 0, 88, 54
1, 895718, Note_off_c, 0, 61, 61
1, 895721, Note_off_c, 0, 52, 53
1, 895723, Note_on_c, 0, 85, 35
1, 895724, Note_off_c, 0, 57, 64
1, 895752, Note_off_c, 0, 85, 57
1, 895782, Note_on_c, 0, 81, 46
1, 895811, Note_off_c, 0, 81, 58
1, 895864, Note_on_c, 0, 85, 61
1, 895878, Note_on_c, 0, 64, 39
1, 895890, Note_on_c, 0, 61, 29
1, 895906, Note_off_c, 0, 64, 47
1, 895912, Note_on_c, 0, 81, 66
1, 895924, Note_off_c, 0, 85, 63
1, 895928, Note_off_c, 0, 61, 30
1, 895948, Note_off_c, 0, 81, 62
1, 895970, Note_on_c, 0, 76, 62
1, 895993, Note_off_c, 0, 76, 66
1, 896058, Note_on_c, 0, 81, 69
1, 896084, Note_on_c, 0, 76, 70
1, 896091, Note_off_c, 0, 81, 57
1, 896121, Note_off_c, 0, 76, 62
1, 896143, Note_on_c, 0, 73, 58
1, 896172, Note_off_c, 0, 73, 65
1, 896255, Note_on_c, 0, 76, 72
1, 896258, Note_on_c, 0, 52, 55
1, 896264, Note_on_c, 0, 64, 48
1, 896267, Note_on_c, 0, 59, 48
1, 896275, Note_on_c, 0, 62, 38
1, 896284, Note_on_c, 0, 74, 73
1, 896289, Note_off_c, 0, 64, 53
1, 896291, Note_off_c, 0, 52, 64
1, 896293, Note_off_c, 0, 59, 57
1, 896294, Note_off_c, 0, 76, 54
1, 896306, Note_off_c, 0, 62, 48
1, 896326, Note_off_c, 0, 74, 54
1, 896349, Note_on_c, 0, 71, 60
1, 896371, Note_off_c, 0, 71, 64
1, 896445, Note_on_c, 0, 52, 48
1, 896446, Note_on_c, 0, 59, 45
1, 896446, Note_on_c, 0, 74, 77
1, 896454, Note_on_c, 0, 64, 38
1, 896470, Note_off_c, 0, 59, 60
1, 896473, Note_off_c, 0, 52, 53
1, 896481, Note_off_c, 0, 64, 50
1, 896487, Note_on_c, 0, 71, 62
1, 896525, Note_off_c, 0, 74, 47
1, 896551, Note_off_c, 0, 71, 61
1, 896553, Note_on_c, 0, 68, 69
1, 896577, Note_off_c, 0, 68, 67
1, 896648, Note_on_c, 0, 71, 83
1, 896682, Note_on_c, 0, 68, 66
1, 896733, Note_off_c, 0, 71, 61
1, 896749, Note_on_c, 0, 64, 68
1, 896758, Note_off_c, 0, 68, 64
1, 896773, Note_off_c, 0, 64, 68
1, 896818, Note_on_c, 0, 69, 96
1, 896829, Note_on_c, 0, 57, 74
1, 896846, Control_c, 0, 64, 37
1, 896855, Note_on_c, 0, 52, 66
1, 896861, Control_c, 0, 64, 61
1, 896863, Note_off_c, 0, 57, 59
1, 896875, Note_on_c, 0, 64, 79
1, 896876, Control_c, 0, 64, 71
1, 896890, Control_c, 0, 64, 84
1, 896905, Control_c, 0, 64, 109
1, 896914, Note_off_c, 0, 69, 59
1, 896915, Note_on_c, 0, 49, 76
1, 896915, Note_on_c, 0, 65, 24
1, 896917, Note_off_c, 0, 52, 63
1, 896920, Control_c, 0, 64, 127
1, 896940, Note_off_c, 0, 64, 65
1, 896944, Note_off_c, 0, 49, 67
1, 896956, Note_off_c, 0, 65, 46
1, 896986, Note_on_c, 0, 62, 13
1, 897009, Control_c, 0, 64, 102
1, 897013, Note_on_c, 0, 52, 79
1, 897021, Note_on_c, 0, 64, 83
1, 897024, Control_c, 0, 64, 73
1, 897030, Note_off_c, 0, 62, 43
1, 897032, Poly_aftertouch_c, 0, 61, 0
1, 897039, Control_c, 0, 64, 45
1, 897054, Control_c, 0, 64, 0
1, 897072, Note_on_c, 0, 61, 64
1, 897073, Note_on_c, 0, 49, 73
1, 897083, Note_off_c, 0, 52, 57
1, 897112, Note_off_c, 0, 64, 62
1, 897119, Note_on_c, 0, 57, 76
1, 897123, Note_off_c, 0, 49, 64
1, 897124, Note_on_c, 0, 45, 77
1, 897127, Note_off_c, 0, 61, 63
1, 897142, Note_off_c, 0, 57, 69
1, 897149, Note_off_c, 0, 45, 66
1, 897221, Note_on_c, 0, 45, 77
1, 897223, Note_on_c, 0, 57, 72
1, 897262, Note_on_c, 0, 52, 71
1, 897262, Note_off_c, 0, 45, 60
1, 897289, Note_off_c, 0, 57, 61
1, 897297, Note_on_c, 0, 40, 50
1, 897298, Note_off_c, 0, 52, 66
1, 897326, Note_off_c, 0, 40, 60
1, 897329, Note_on_c, 0, 49, 53
1, 897343, Note_on_c, 0, 37, 50
1, 897356, Note_off_c, 0, 49, 57
1, 897384, Note_off_c, 0, 37, 59
1, 897461, Note_on_c, 0, 45, 96
1, 897462, Note_on_c, 0, 33, 97
1, 897477, Control_c, 0, 64, 59
1, 897492, Control_c, 0, 64, 90
1, 897494, Note_off_c, 0, 45, 67
1, 897498, Note_off_c, 0, 33, 58
1, 897507, Control_c, 0, 64, 127
1, 897907, Control_c, 0, 64, 82
1, 897921, Control_c, 0, 64, 61
1, 897936, Control_c, 0, 64, 0
1, 898064, Note_on_c, 0, 53, 90
1, 898067, Note_on_c, 0, 41, 82
1, 898091, Note_on_c, 0, 52, 89
1, 898103, Note_on_c, 0, 40, 67
1, 898119, Note_off_c, 0, 41, 61
1, 898128, Note_off_c, 0, 53, 63
1, 898151, Control_c, 0, 64, 56
1, 898166, Note_on_c, 0, 51, 85
1, 898166, Control_c, 0, 64, 71
1, 898180, Note_on_c, 0, 39, 80
1, 898180, Control_c, 0, 64, 86
1, 898189, Note_off_c, 0, 52, 60
1, 898192, Note_off_c, 0, 40, 63
1, 898195, Control_c, 0, 64, 127
1, 898249, Note_on_c, 0, 52, 79
1, 898253, Note_off_c, 0, 51, 63
1, 898259, Note_on_c, 0, 40, 80
1, 898273, Note_off_c, 0, 39, 55
1, 898338, Note_on_c, 0, 39, 73
1, 898344, Note_on_c, 0, 51, 87
1, 898351, Note_off_c, 0, 52, 60
1, 898352, Note_off_c, 0, 40, 61
1, 898427, Note_on_c, 0, 40, 77
1, 898434, Note_on_c, 0, 52, 86
1, 898440, Note_off_c, 0, 51, 59
1, 898441, Note_off_c, 0, 39, 55
1, 898520, Note_on_c, 0, 53, 86
1, 898523, Note_on_c, 0, 41, 86
1, 898550, Note_off_c, 0, 40, 59
1, 898556, Note_off_c, 0, 52, 61
1, 898568, Note_off_c, 0, 41, 62
1, 898577, Note_off_c, 0, 53, 62
1, 898596, Control_c, 0, 64, 112
1, 898611, Control_c, 0, 64, 74
1, 898626, Control_c, 0, 64, 0
1, 898638, Note_on_c, 0, 53, 96
1, 898640, Note_on_c, 0, 41, 101
1, 898700, Control_c, 0, 64, 62
1, 898714, Control_c, 0, 64, 77
1, 898728, Control_c, 0, 64, 113
1, 898729, Note_on_c, 0, 40, 81
1, 898730, Note_on_c, 0, 52, 93
1, 898743, Control_c, 0, 64, 127
1, 898747, Note_off_c, 0, 41, 61
1, 898771, Note_off_c, 0, 53, 58
1, 898800, Note_off_c, 0, 40, 62
1, 898827, Note_on_c, 0, 36, 104
1, 898828, Note_on_c, 0, 48, 90
1, 898837, Note_off_c, 0, 52, 58
1, 898893, Note_off_c, 0, 48, 63
1, 898908, Note_on_c, 0, 43, 90
1, 898920, Note_on_c, 0, 55, 90
1, 898946, Note_off_c, 0, 36, 61
1, 898993, Note_off_c, 0, 55, 64
1, 899012, Note_on_c, 0, 52, 98
1, 899018, Note_on_c, 0, 64, 91
1, 899021, Note_off_c, 0, 43, 63
1, 899027, Note_on_c, 0, 60, 85
1, 899031, Note_off_c, 0, 52, 73
1, 899051, Note_off_c, 0, 60, 67
1, 899069, Note_off_c, 0, 64, 65
1, 899076, Control_c, 0, 64, 83
1, 899092, Control_c, 0, 64, 62
1, 899099, Poly_aftertouch_c, 0, 55, 0
1, 899107, Control_c, 0, 64, 0
1, 899239, Note_on_c, 0, 64, 88
1, 899247, Note_on_c, 0, 52, 101
1, 899323, Note_on_c, 0, 62, 83
1, 899329, Control_c, 0, 64, 61
1, 899336, Note_on_c, 0, 50, 91
1, 899343, Control_c, 0, 64, 73
1, 899351, Note_off_c, 0, 52, 62
1, 899358, Control_c, 0, 64, 93
1, 899373, Control_c, 0, 64, 127
1, 899414, Note_on_c, 0, 59, 83
1, 899414, Note_off_c, 0, 64, 59
1, 899434, Note_on_c, 0, 47, 82
1, 899440, Note_off_c, 0, 50, 61
1, 899486, Note_on_c, 0, 55, 85
1, 899490, Note_on_c, 0, 43, 83
1, 899501, Note_off_c, 0, 47, 61
1, 899504, Note_off_c, 0, 62, 0
1, 899506, Note_off_c, 0, 59, 62
1, 899562, Note_off_c, 0, 55, 63
1, 899575, Poly_aftertouch_c, 0, 62, 0
1, 899599, Note_off_c, 0, 43, 64
1, 899603, Note_on_c, 0, 50, 92
1, 899603, Note_on_c, 0, 55, 92
1, 899603, Note_on_c, 0, 59, 90
1, 899608, Note_on_c, 0, 67, 92
1, 899622, Note_off_c, 0, 50, 72
1, 899622, Note_off_c, 0, 55, 68
1, 899629, Note_off_c, 0, 59, 62
1, 899662, Note_off_c, 0, 67, 61
1, 899662, Control_c, 0, 64, 94
1, 899677, Control_c, 0, 64, 69
1, 899692, Control_c, 0, 64, 46
1, 899707, Control_c, 0, 64, 0
1, 899826, Note_on_c, 0, 60, 79
1, 899831, Note_on_c, 0, 65, 82
1, 899846, Note_on_c, 0, 48, 72
1, 899846, Note_on_c, 0, 55, 76
1, 899869, Note_off_c, 0, 48, 67
1, 899869, Note_off_c, 0, 55, 69
1, 899915, Note_on_c, 0, 64, 82
1, 899930, Note_off_c, 0, 60, 31
1, 899958, Note_off_c, 0, 65, 59
1, 900008, Note_on_c, 0, 67, 86
1, 900009, Note_off_c, 0, 64, 60
1, 900012, Note_on_c, 0, 59, 81
1, 900027, Note_on_c, 0, 55, 78
1, 900035, Note_on_c, 0, 50, 64
1, 900058, Note_off_c, 0, 55, 59
1, 900063, Control_c, 0, 64, 46
1, 900067, Note_off_c, 0, 50, 63
1, 900078, Control_c, 0, 64, 61
1, 900093, Control_c, 0, 64, 66
1, 900099, Note_on_c, 0, 65, 95
1, 900108, Control_c, 0, 64, 68
1, 900118, Note_off_c, 0, 59, 61
1, 900122, Control_c, 0, 64, 69
1, 900124, Note_off_c, 0, 67, 64
1, 900152, Control_c, 0, 64, 68
1, 900166, Control_c, 0, 64, 66
1, 900181, Control_c, 0, 64, 62
1, 900196, Control_c, 0, 64, 55
1, 900198, Note_on_c, 0, 69, 91
1, 900200, Note_on_c, 0, 55, 75
1, 900200, Note_on_c, 0, 60, 88
1, 900208, Note_on_c, 0, 52, 70
1, 900208, Note_off_c, 0, 65, 58
1, 900211, Control_c, 0, 64, 39
1, 900227, Control_c, 0, 64, 0
1, 900228, Note_off_c, 0, 55, 66
1, 900235, Note_off_c, 0, 52, 65
1, 900237, Note_off_c, 0, 60, 62
1, 900295, Note_on_c, 0, 67, 87
1, 900391, Note_on_c, 0, 62, 90
1, 900398, Note_on_c, 0, 59, 80
1, 900403, Note_off_c, 0, 69, 60
1, 900412, Note_off_c, 0, 67, 64
1, 900512, Note_on_c, 0, 55, 75
1, 900565, Note_off_c, 0, 55, 59
1, 900595, Note_on_c, 0, 50, 70
1, 900645, Note_off_c, 0, 50, 57
1, 900675, Note_on_c, 0, 47, 67
1, 900678, Control_c, 0, 64, 40
1, 900694, Control_c, 0, 64, 57
1, 900694, Control_c, 0, 67, 23
1, 900709, Control_c, 0, 64, 66
1, 900709, Control_c, 0, 67, 32
1, 900717, Note_off_c, 0, 59, 54
1, 900720, Note_off_c, 0, 47, 62
1, 900723, Control_c, 0, 64, 73
1, 900723, Control_c, 0, 67, 49
1, 900738, Control_c, 0, 64, 82
1, 900738, Control_c, 0, 67, 68
1, 900753, Control_c, 0, 64, 92
1, 900753, Control_c, 0, 67, 87
1, 900764, Note_off_c, 0, 62, 64
1, 900768, Control_c, 0, 64, 104
1, 900768, Control_c, 0, 67, 103
1, 900775, Note_on_c, 0, 43, 56
1, 900783, Control_c, 0, 64, 127
1, 900783, Control_c, 0, 67, 119
1, 900798, Control_c, 0, 67, 127
1, 900815, Note_off_c, 0, 43, 61
1, 900931, Control_c, 0, 64, 101
1, 900946, Control_c, 0, 64, 87
1, 900961, Control_c, 0, 64, 76
1, 900976, Control_c, 0, 64, 66
1, 900990, Control_c, 0, 64, 53
1, 901005, Control_c, 0, 64, 0
1, 901007, Note_on_c, 0, 67, 43
1, 901024, Note_on_c, 0, 59, 37
1, 901028, Note_on_c, 0, 43, 32
1, 901054, Note_on_c, 0, 65, 59
1, 901078, Note_off_c, 0, 67, 39
1, 901120, Note_off_c, 0, 65, 60
1, 901126, Note_on_c, 0, 64, 51
1, 901207, Note_off_c, 0, 64, 61
1, 901239, Note_on_c, 0, 65, 55
1, 901261, Note_on_c, 0, 50, 30
1, 901264, Control_c, 0, 64, 50
1, 901279, Control_c, 0, 64, 63
1, 901292, Note_off_c, 0, 65, 57
1, 901294, Control_c, 0, 64, 68
1, 901309, Control_c, 0, 64, 73
1, 901323, Control_c, 0, 64, 79
1, 901325, Note_on_c, 0, 64, 49
1, 901338, Control_c, 0, 64, 82
1, 901353, Control_c, 0, 64, 84
1, 901368, Control_c, 0, 64, 85
1, 901382, Control_c, 0, 64, 86
1, 901397, Control_c, 0, 64, 87
1, 901398, Note_off_c, 0, 64, 52
1, 901401, Note_off_c, 0, 59, 34
1, 901409, Note_on_c, 0, 65, 69
1, 901412, Control_c, 0, 64, 87
1, 901418, Note_off_c, 0, 43, 34
1, 901427, Control_c, 0, 64, 88
1, 901451, Note_on_c, 0, 55, 40
1, 901488, Note_on_c, 0, 69, 63
1, 901498, Note_off_c, 0, 65, 38
1, 901506, Note_off_c, 0, 55, 45
1, 901521, Note_off_c, 0, 69, 61
1, 901546, Control_c, 0, 64, 87
1, 901561, Control_c, 0, 64, 85
1, 901576, Control_c, 0, 64, 80
1, 901591, Control_c, 0, 64, 71
1, 901597, Note_off_c, 0, 50, 40
1, 901606, Control_c, 0, 64, 59
1, 901607, Note_on_c, 0, 69, 57
1, 901611, Note_on_c, 0, 64, 48
1, 901620, Control_c, 0, 64, 0
1, 901623, Note_on_c, 0, 43, 36
1, 901632, Note_on_c, 0, 60, 41
1, 901648, Note_off_c, 0, 64, 63
1, 901695, Note_on_c, 0, 67, 66
1, 901701, Note_off_c, 0, 60, 65
1, 901776, Control_c, 0, 64, 33
1, 901791, Control_c, 0, 64, 56
1, 901791, Control_c, 0, 67, 102
1, 901799, Note_on_c, 0, 52, 50
1, 901799, Note_on_c, 0, 64, 69
1, 901802, Note_off_c, 0, 43, 53
1, 901806, Control_c, 0, 64, 67
1, 901806, Control_c, 0, 67, 67
1, 901820, Control_c, 0, 64, 75
1, 901820, Control_c, 0, 67, 27
1, 901835, Control_c, 0, 64, 83
1, 901835, Control_c, 0, 67, 0
1, 901850, Control_c, 0, 64, 90
1, 901862, Note_off_c, 0, 64, 59
1, 901865, Control_c, 0, 64, 97
1, 901880, Control_c, 0, 64, 106
1, 901883, Note_on_c, 0, 60, 65
1, 901895, Control_c, 0, 64, 127
1, 901953, Note_off_c, 0, 67, 37
1, 901963, Note_off_c, 0, 60, 63
1, 901969, Note_on_c, 0, 64, 67
1, 901972, Note_off_c, 0, 69, 12
1, 901976, Note_on_c, 0, 55, 57
1, 901994, Note_off_c, 0, 64, 65
1, 902023, Note_off_c, 0, 55, 59
1, 902070, Note_on_c, 0, 76, 76
1, 902087, Control_c, 0, 64, 108
1, 902095, Note_off_c, 0, 76, 66
1, 902102, Control_c, 0, 64, 81
1, 902111, Note_off_c, 0, 52, 54
1, 902117, Control_c, 0, 64, 60
1, 902132, Control_c, 0, 64, 0
1, 902173, Note_on_c, 0, 43, 44
1, 902174, Note_on_c, 0, 76, 76
1, 902178, Note_on_c, 0, 65, 71
1, 902188, Note_on_c, 0, 71, 51
1, 902211, Note_off_c, 0, 71, 63
1, 902241, Note_off_c, 0, 65, 45
1, 902249, Note_on_c, 0, 74, 83
1, 902269, Note_off_c, 0, 76, 61
1, 902282, Note_off_c, 0, 74, 63
1, 902348, Note_on_c, 0, 50, 52
1, 902354, Note_on_c, 0, 72, 81
1, 902360, Note_on_c, 0, 62, 69
1, 902365, Note_on_c, 0, 65, 69
1, 902384, Note_off_c, 0, 62, 59
1, 902393, Note_off_c, 0, 65, 66
1, 902437, Note_on_c, 0, 71, 70
1, 902438, Note_off_c, 0, 72, 59
1, 902462, Note_off_c, 0, 71, 68
1, 902517, Note_off_c, 0, 43, 36
1, 902556, Note_on_c, 0, 69, 69
1, 902560, Note_on_c, 0, 59, 61
1, 902562, Note_on_c, 0, 55, 46
1, 902562, Note_on_c, 0, 65, 65
1, 902581, Note_off_c, 0, 59, 59
1, 902589, Note_off_c, 0, 65, 61
1, 902626, Note_off_c, 0, 55, 54
1, 902634, Note_on_c, 0, 67, 65
1, 902637, Note_off_c, 0, 69, 57
1, 902670, Note_off_c, 0, 67, 59
1, 902697, Note_off_c, 0, 50, 59
1, 902756, Note_on_c, 0, 43, 31
1, 902756, Note_on_c, 0, 60, 52
1, 902757, Note_on_c, 0, 69, 59
1, 902762, Note_on_c, 0, 64, 45
1, 902804, Note_off_c, 0, 64, 54
1, 902812, Note_off_c, 0, 60, 50
1, 902838, Note_on_c, 0, 67, 72
1, 902877, Note_off_c, 0, 69, 48
1, 902925, Control_c, 0, 64, 42
1, 902936, Note_on_c, 0, 64, 66
1, 902938, Note_on_c, 0, 52, 44
1, 902940, Control_c, 0, 64, 60
1, 902941, Note_off_c, 0, 67, 61
1, 902955, Control_c, 0, 64, 67
1, 902969, Control_c, 0, 64, 73
1, 902984, Control_c, 0, 64, 79
1, 902998, Note_off_c, 0, 64, 57
1, 902999, Control_c, 0, 64, 83
1, 903014, Control_c, 0, 64, 87
1, 903027, Note_on_c, 0, 60, 69
1, 903029, Control_c, 0, 64, 90
1, 903043, Control_c, 0, 64, 92
1, 903046, Note_off_c, 0, 43, 39
1, 903058, Control_c, 0, 64, 93
1, 903061, Note_off_c, 0, 60, 62
1, 903073, Control_c, 0, 64, 93
1, 903089, Control_c, 0, 64, 94
1, 903103, Control_c, 0, 64, 94
1, 903111, Note_off_c, 0, 52, 37
1, 903121, Note_on_c, 0, 55, 72
1, 903141, Note_off_c, 0, 55, 66
1, 903163, Control_c, 0, 64, 95
1, 903177, Control_c, 0, 64, 95
1, 903207, Control_c, 0, 64, 95
1, 903222, Control_c, 0, 64, 94
1, 903237, Control_c, 0, 64, 88
1, 903259, Control_c, 0, 64, 79
1, 903274, Control_c, 0, 64, 70
1, 903289, Control_c, 0, 64, 61
1, 903304, Control_c, 0, 64, 43
1, 903318, Control_c, 0, 64, 0
1, 903342, Note_on_c, 0, 43, 42
1, 903347, Note_on_c, 0, 79, 75
1, 903363, Note_on_c, 0, 71, 57
1, 903388, Note_on_c, 0, 77, 67
1, 903453, Note_off_c, 0, 79, 62
1, 903461, Note_on_c, 0, 76, 82
1, 903469, Note_off_c, 0, 77, 65
1, 903539, Note_on_c, 0, 77, 86
1, 903545, Note_off_c, 0, 76, 62
1, 903552, Note_on_c, 0, 50, 50
1, 903600, Control_c, 0, 64, 50
1, 903615, Control_c, 0, 64, 64
1, 903616, Note_off_c, 0, 71, 0
1, 903616, Note_on_c, 0, 71, 23
1, 903629, Control_c, 0, 64, 69
1, 903630, Note_on_c, 0, 76, 90
1, 903630, Note_off_c, 0, 77, 65
1, 903644, Control_c, 0, 64, 74
1, 903659, Control_c, 0, 64, 79
1, 903674, Control_c, 0, 64, 84
1, 903683, Note_off_c, 0, 71, 59
1, 903689, Control_c, 0, 64, 88
1, 903704, Control_c, 0, 64, 93
1, 903707, Note_on_c, 0, 55, 53
1, 903714, Note_on_c, 0, 77, 85
1, 903718, Control_c, 0, 64, 96
1, 903731, Note_off_c, 0, 76, 58
1, 903733, Control_c, 0, 64, 98
1, 903744, Note_off_c, 0, 43, 39
1, 903748, Control_c, 0, 64, 100
1, 903763, Control_c, 0, 64, 102
1, 903767, Note_off_c, 0, 55, 52
1, 903778, Control_c, 0, 64, 104
1, 903812, Note_on_c, 0, 81, 87
1, 903831, Note_off_c, 0, 77, 55
1, 903857, Note_off_c, 0, 81, 66
1, 903867, Note_off_c, 0, 50, 53
1, 903882, Control_c, 0, 64, 97
1, 903897, Note_on_c, 0, 43, 48
1, 903897, Control_c, 0, 64, 78
1, 903912, Control_c, 0, 64, 62
1, 903919, Note_on_c, 0, 81, 87
1, 903926, Control_c, 0, 64, 0
1, 903929, Note_on_c, 0, 76, 77
1, 903937, Note_on_c, 0, 72, 59
1, 903984, Note_off_c, 0, 76, 60
1, 904028, Note_on_c, 0, 79, 86
1, 904032, Note_off_c, 0, 72, 60
1, 904038, Control_c, 0, 64, 39
1, 904053, Control_c, 0, 64, 60
1, 904068, Control_c, 0, 64, 69
1, 904082, Note_off_c, 0, 43, 58
1, 904082, Control_c, 0, 64, 76
1, 904097, Control_c, 0, 64, 83
1, 904107, Note_on_c, 0, 52, 55
1, 904112, Control_c, 0, 64, 89
1, 904117, Note_on_c, 0, 76, 88
1, 904127, Control_c, 0, 64, 95
1, 904141, Control_c, 0, 64, 103
1, 904156, Control_c, 0, 64, 117
1, 904171, Control_c, 0, 64, 127
1, 904184, Note_off_c, 0, 76, 64
1, 904187, Note_on_c, 0, 72, 77
1, 904235, Note_off_c, 0, 79, 61
1, 904261, Note_off_c, 0, 72, 62
1, 904270, Note_on_c, 0, 76, 79
1, 904275, Note_on_c, 0, 55, 61
1, 904293, Note_off_c, 0, 76, 69
1, 904296, Note_off_c, 0, 81, 42
1, 904310, Note_off_c, 0, 55, 62
1, 904365, Note_on_c, 0, 88, 85
1, 904378, Control_c, 0, 64, 89
1, 904393, Control_c, 0, 64, 68
1, 904394, Note_off_c, 0, 88, 63
1, 904408, Control_c, 0, 64, 41
1, 904411, Note_off_c, 0, 52, 56
1, 904422, Control_c, 0, 64, 0
1, 904466, Note_on_c, 0, 77, 73
1, 904470, Note_on_c, 0, 88, 77
1, 904473, Note_on_c, 0, 43, 43
1, 904473, Note_on_c, 0, 83, 66
1, 904497, Note_off_c, 0, 83, 69
1, 904506, Note_off_c, 0, 77, 46
1, 904541, Note_on_c, 0, 86, 81
1, 904559, Note_off_c, 0, 88, 62
1, 904571, Note_off_c, 0, 86, 62
1, 904641, Note_on_c, 0, 84, 90
1, 904645, Note_on_c, 0, 74, 81
1, 904655, Note_on_c, 0, 77, 61
1, 904666, Note_on_c, 0, 50, 43
1, 904670, Note_off_c, 0, 74, 64
1, 904673, Note_off_c, 0, 77, 67
1, 904721, Note_on_c, 0, 83, 79
1, 904729, Note_off_c, 0, 84, 60
1, 904760, Note_off_c, 0, 83, 63
1, 904820, Note_off_c, 0, 43, 41
1, 904841, Note_on_c, 0, 81, 80
1, 904845, Note_on_c, 0, 77, 67
1, 904850, Note_on_c, 0, 55, 48
1, 904852, Note_on_c, 0, 71, 60
1, 904872, Note_off_c, 0, 71, 64
1, 904877, Note_off_c, 0, 77, 59
1, 904911, Note_off_c, 0, 81, 62
1, 904925, Note_on_c, 0, 79, 57
1, 904946, Note_off_c, 0, 79, 63
1, 904949, Note_off_c, 0, 55, 51
1, 904971, Note_off_c, 0, 50, 56
1, 905013, Note_on_c, 0, 43, 37
1, 905031, Note_on_c, 0, 81, 69
1, 905043, Note_on_c, 0, 76, 52
1, 905044, Note_on_c, 0, 72, 45
1, 905087, Note_off_c, 0, 76, 60
1, 905102, Note_off_c, 0, 72, 52
1, 905123, Note_on_c, 0, 79, 79
1, 905156, Control_c, 0, 64, 36
1, 905171, Control_c, 0, 64, 55
1, 905186, Control_c, 0, 64, 66
1, 905201, Control_c, 0, 64, 74
1, 905204, Note_on_c, 0, 76, 82
1, 905211, Note_on_c, 0, 52, 52
1, 905216, Control_c, 0, 64, 82
1, 905230, Control_c, 0, 64, 91
1, 905245, Control_c, 0, 64, 98
1, 905251, Note_off_c, 0, 81, 0
1, 905260, Control_c, 0, 64, 105
1, 905264, Note_off_c, 0, 76, 59
1, 905275, Control_c, 0, 64, 112
1, 905277, Note_on_c, 0, 72, 76
1, 905287, Poly_aftertouch_c, 0, 81, 127
1, 905290, Control_c, 0, 64, 127
1, 905346, Note_off_c, 0, 79, 37
1, 905349, Note_off_c, 0, 72, 62
1, 905351, Note_on_c, 0, 55, 51
1, 905356, Note_on_c, 0, 76, 75
1, 905374, Note_off_c, 0, 43, 40
1, 905378, Note_off_c, 0, 76, 67
1, 905381, Poly_aftertouch_c, 0, 81, 0
1, 905387, Note_off_c, 0, 55, 63
1, 905438, Control_c, 0, 64, 107
1, 905451, Note_on_c, 0, 88, 85
1, 905453, Control_c, 0, 64, 81
1, 905469, Control_c, 0, 64, 64
1, 905474, Note_off_c, 0, 52, 58
1, 905483, Note_off_c, 0, 88, 64
1, 905484, Control_c, 0, 64, 37
1, 905499, Control_c, 0, 64, 0
1, 905546, Note_on_c, 0, 43, 31
1, 905566, Note_on_c, 0, 77, 69
1, 905567, Note_on_c, 0, 83, 69
1, 905567, Note_on_c, 0, 88, 78
1, 905589, Note_off_c, 0, 83, 69
1, 905590, Note_off_c, 0, 77, 59
1, 905636, Note_on_c, 0, 86, 76
1, 905641, Note_off_c, 0, 88, 61
1, 905660, Note_off_c, 0, 86, 67
1, 905734, Note_on_c, 0, 84, 87
1, 905739, Note_on_c, 0, 74, 80
1, 905745, Note_on_c, 0, 50, 47
1, 905753, Note_on_c, 0, 77, 56
1, 905764, Note_off_c, 0, 74, 65
1, 905775, Note_off_c, 0, 77, 62
1, 905813, Note_on_c, 0, 83, 75
1, 905813, Note_off_c, 0, 84, 59
1, 905835, Note_off_c, 0, 83, 66
1, 905904, Note_off_c, 0, 43, 42
1, 905919, Note_on_c, 0, 81, 78
1, 905924, Note_on_c, 0, 77, 59
1, 905925, Note_on_c, 0, 55, 48
1, 905925, Note_on_c, 0, 71, 67
1, 905956, Note_off_c, 0, 71, 64
1, 905964, Note_off_c, 0, 77, 57
1, 905987, Note_off_c, 0, 81, 59
1, 905990, Note_on_c, 0, 79, 71
1, 906023, Note_off_c, 0, 79, 64
1, 906087, Note_off_c, 0, 50, 35
1, 906100, Note_on_c, 0, 43, 37
1, 906114, Note_on_c, 0, 81, 63
1, 906121, Note_on_c, 0, 72, 54
1, 906123, Note_on_c, 0, 76, 55
1, 906169, Note_off_c, 0, 76, 58
1, 906186, Note_off_c, 0, 81, 0
1, 906186, Note_on_c, 0, 81, 15
1, 906198, Note_off_c, 0, 72, 58
1, 906205, Note_on_c, 0, 79, 73
1, 906217, Control_c, 0, 67, 20
1, 906240, Note_off_c, 0, 81, 50
1, 906281, Note_off_c, 0, 55, 39
1, 906306, Note_on_c, 0, 52, 44
1, 906310, Note_off_c, 0, 79, 57
1, 906317, Note_on_c, 0, 76, 63
1, 906369, Note_off_c, 0, 76, 55
1, 906394, Note_on_c, 0, 72, 61
1, 906425, Note_off_c, 0, 72, 61
1, 906432, Control_c, 0, 67, 0
1, 906480, Note_off_c, 0, 43, 41
1, 906485, Note_on_c, 0, 55, 36
1, 906490, Note_on_c, 0, 67, 55
1, 906512, Note_off_c, 0, 67, 61
1, 906688, Note_off_c, 0, 52, 40
1, 906690, Note_on_c, 0, 81, 63
1, 906691, Note_on_c, 0, 43, 23
1, 906697, Note_on_c, 0, 72, 48
1, 906703, Note_on_c, 0, 76, 50
1, 906739, Note_off_c, 0, 72, 46
1, 906762, Note_off_c, 0, 76, 52
1, 906762, Note_off_c, 0, 81, 36
1, 906787, Note_on_c, 0, 79, 62
1, 906830, Note_off_c, 0, 55, 35
1, 906879, Note_off_c, 0, 79, 59
1, 906882, Note_on_c, 0, 76, 63
1, 906884, Note_on_c, 0, 52, 37
1, 906927, Note_off_c, 0, 76, 60
1, 906971, Note_on_c, 0, 72, 50
1, 907001, Note_off_c, 0, 72, 61
1, 907039, Note_off_c, 0, 43, 41
1, 907054, Note_on_c, 0, 55, 43
1, 907072, Note_on_c, 0, 67, 38
1, 907102, Note_off_c, 0, 67, 49
1, 907261, Note_off_c, 0, 52, 39
1, 907266, Note_on_c, 0, 43, 28
1, 907281, Note_on_c, 0, 81, 59
1, 907296, Note_on_c, 0, 76, 47
1, 907304, Note_on_c, 0, 72, 12
1, 907348, Note_off_c, 0, 81, 37
1, 907350, Note_off_c, 0, 72, 50
1, 907353, Note_off_c, 0, 76, 59
1, 907379, Note_on_c, 0, 79, 62
1, 907394, Note_off_c, 0, 55, 26
1, 907454, Note_on_c, 0, 52, 32
1, 907468, Note_off_c, 0, 79, 56
1, 907484, Note_on_c, 0, 76, 48
1, 907518, Note_off_c, 0, 76, 52
1, 907554, Note_on_c, 0, 72, 52
1, 907587, Note_off_c, 0, 72, 64
1, 907662, Note_on_c, 0, 67, 53
1, 907663, Note_on_c, 0, 55, 44
1, 907665, Note_off_c, 0, 43, 52
1, 907670, Control_c, 0, 64, 46
1, 907684, Note_off_c, 0, 67, 61
1, 907684, Control_c, 0, 64, 62
1, 907697, Note_off_c, 0, 55, 63
1, 907699, Control_c, 0, 64, 69
1, 907707, Note_off_c, 0, 52, 55
1, 907715, Control_c, 0, 64, 79
1, 907730, Control_c, 0, 64, 110
1, 907745, Control_c, 0, 64, 127
1, 907929, Note_on_c, 0, 56, 94
1, 907931, Note_on_c, 0, 93, 105
1, 907939, Note_on_c, 0, 52, 73
1, 907940, Note_on_c, 0, 49, 80
1, 907952, Note_on_c, 0, 44, 58
1, 907969, Note_off_c, 0, 56, 58
1, 907975, Control_c, 0, 64, 75
1, 907979, Note_off_c, 0, 44, 57
1, 907980, Note_off_c, 0, 52, 54
1, 907986, Note_off_c, 0, 49, 59
1, 907987, Note_on_c, 0, 92, 71
1, 907990, Control_c, 0, 64, 0
1, 908041, Note_on_c, 0, 90, 84
1, 908085, Note_off_c, 0, 93, 56
1, 908092, Note_off_c, 0, 92, 65
1, 908100, Note_on_c, 0, 88, 91
1, 908106, Note_off_c, 0, 90, 64
1, 908146, Note_off_c, 0, 88, 54
1, 908155, Note_on_c, 0, 56, 92
1, 908158, Note_on_c, 0, 49, 80
1, 908158, Note_on_c, 0, 52, 74
1, 908163, Note_on_c, 0, 87, 87
1, 908169, Note_on_c, 0, 44, 73
1, 908182, Control_c, 0, 64, 55
1, 908197, Control_c, 0, 64, 72
1, 908206, Note_on_c, 0, 85, 83
1, 908212, Control_c, 0, 64, 87
1, 908226, Control_c, 0, 64, 127
1, 908251, Note_on_c, 0, 83, 76
1, 908264, Note_off_c, 0, 87, 63
1, 908276, Note_off_c, 0, 85, 65
1, 908292, Note_on_c, 0, 81, 79
1, 908294, Note_off_c, 0, 83, 56
1, 908338, Note_off_c, 0, 81, 56
1, 908347, Note_on_c, 0, 80, 80
1, 908390, Note_on_c, 0, 78, 84
1, 908417, Note_off_c, 0, 80, 63
1, 908441, Note_off_c, 0, 78, 65
1, 908442, Note_on_c, 0, 76, 81
1, 908449, Control_c, 0, 64, 83
1, 908464, Control_c, 0, 64, 64
1, 908479, Control_c, 0, 64, 0
1, 908506, Note_off_c, 0, 76, 57
1, 908511, Note_on_c, 0, 75, 81
1, 908559, Note_on_c, 0, 73, 78
1, 908601, Note_on_c, 0, 71, 81
1, 908605, Control_c, 0, 64, 54
1, 908609, Note_off_c, 0, 75, 62
1, 908620, Control_c, 0, 64, 71
1, 908634, Control_c, 0, 64, 88
1, 908637, Note_off_c, 0, 56, 61
1, 908637, Note_off_c, 0, 73, 64
1, 908649, Note_on_c, 0, 69, 78
1, 908649, Control_c, 0, 64, 127
1, 908653, Note_off_c, 0, 71, 61
1, 908667, Note_off_c, 0, 52, 59
1, 908682, Note_off_c, 0, 49, 61
1, 908688, Note_off_c, 0, 44, 63
1, 908713, Note_on_c, 0, 68, 85
1, 908713, Note_off_c, 0, 69, 58
1, 908764, Note_on_c, 0, 66, 83
1, 908804, Note_off_c, 0, 68, 63
1, 908822, Note_on_c, 0, 64, 81
1, 908828, Note_off_c, 0, 66, 64
1, 908888, Note_on_c, 0, 63, 82
1, 908896, Note_off_c, 0, 64, 60
1, 908936, Note_on_c, 0, 61, 78
1, 908973, Note_on_c, 0, 59, 74
1, 908981, Note_off_c, 0, 63, 62
1, 909004, Note_off_c, 0, 61, 63
1, 909023, Note_on_c, 0, 57, 80
1, 909027, Note_off_c, 0, 59, 61
1, 909066, Note_on_c, 0, 44, 103
1, 909072, Note_on_c, 0, 56, 90
1, 909076, Note_off_c, 0, 57, 65
1, 909079, Note_on_c, 0, 32, 65
1, 909092, Note_off_c, 0, 56, 70
1, 909093, Note_off_c, 0, 44, 68
1, 909107, Note_off_c, 0, 32, 56
1, 909109, Control_c, 0, 64, 87
1, 909123, Control_c, 0, 64, 65
1, 909138, Control_c, 0, 64, 0
1, 909309, Control_c, 0, 64, 42
1, 909315, Note_on_c, 0, 56, 97
1, 909320, Note_on_c, 0, 68, 109
1, 909322, Note_on_c, 0, 60, 99
1, 909324, Control_c, 0, 64, 77
1, 909326, Note_on_c, 0, 63, 93
1, 909332, Note_on_c, 0, 44, 66
1, 909338, Control_c, 0, 64, 127
1, 909340, Note_off_c, 0, 60, 71
1, 909347, Note_on_c, 0, 66, 50
1, 909353, Note_off_c, 0, 56, 65
1, 909362, Note_off_c, 0, 44, 65
1, 909362, Note_off_c, 0, 68, 61
1, 909368, Note_off_c, 0, 63, 66
1, 909371, Note_off_c, 0, 66, 57
1, 909710, Control_c, 0, 64, 104
1, 909725, Control_c, 0, 64, 91
1, 909740, Control_c, 0, 64, 82
1, 909754, Control_c, 0, 64, 74
1, 909769, Control_c, 0, 64, 67
1, 909784, Control_c, 0, 64, 60
1, 909798, Control_c, 0, 64, 53
1, 909813, Control_c, 0, 64, 49
1, 909828, Control_c, 0, 64, 47
1, 909843, Control_c, 0, 64, 46
1, 909858, Control_c, 0, 64, 43
1, 909872, Control_c, 0, 64, 38
1, 909887, Control_c, 0, 64, 35
1, 909902, Control_c, 0, 64, 35
1, 909946, Control_c, 0, 64, 34
1, 909961, Control_c, 0, 64, 34
1, 909998, Control_c, 0, 64, 33
1, 910013, Control_c, 0, 64, 0
1, 910533, Control_c, 0, 67, 20
1, 910548, Control_c, 0, 67, 22
1, 910563, Control_c, 0, 67, 28
1, 910577, Control_c, 0, 67, 35
1, 910592, Control_c, 0, 67, 42
1, 910607, Control_c, 0, 67, 53
1, 910621, Control_c, 0, 67, 63
1, 910636, Control_c, 0, 64, 33
1, 910636, Control_c, 0, 67, 75
1, 910651, Control_c, 0, 67, 82
1, 910666, Control_c, 0, 67, 90
1, 910681, Control_c, 0, 67, 97
1, 910695, Control_c, 0, 67, 105
1, 910710, Control_c, 0, 64, 33
1, 910710, Control_c, 0, 67, 112
1, 910725, Control_c, 0, 64, 34
1, 910725, Control_c, 0, 67, 119
1, 910748, Control_c, 0, 67, 125
1, 910763, Control_c, 0, 67, 127
1, 910823, Note_on_c, 0, 75, 56
1, 910851, Control_c, 0, 64, 33
1, 910854, Note_off_c, 0, 75, 64
1, 910859, Note_on_c, 0, 73, 59
1, 910881, Control_c, 0, 64, 33
1, 910895, Control_c, 0, 64, 0
1, 910898, Note_off_c, 0, 73, 61
1, 910910, Control_c, 0, 67, 125
1, 910942, Note_on_c, 0, 72, 52
1, 910984, Control_c, 0, 67, 118
1, 910999, Control_c, 0, 67, 107
1, 911012, Note_off_c, 0, 72, 57
1, 911014, Control_c, 0, 67, 79
1, 911022, Note_on_c, 0, 73, 63
1, 911028, Note_on_c, 0, 68, 51
1, 911028, Control_c, 0, 67, 32
1, 911035, Note_on_c, 0, 61, 45
1, 911038, Note_on_c, 0, 64, 39
1, 911043, Control_c, 0, 67, 0
1, 911052, Note_off_c, 0, 68, 62
1, 911061, Note_off_c, 0, 61, 57
1, 911064, Note_off_c, 0, 64, 51
1, 911077, Note_off_c, 0, 73, 54
1, 911128, Note_on_c, 0, 76, 53
1, 911172, Note_off_c, 0, 76, 61
1, 911228, Note_on_c, 0, 73, 53
1, 911254, Note_off_c, 0, 73, 62
1, 911479, Note_on_c, 0, 78, 55
1, 911709, Note_on_c, 0, 66, 55
1, 911714, Note_on_c, 0, 57, 50
1, 911728, Note_on_c, 0, 61, 30
1, 911731, Note_off_c, 0, 66, 59
1, 911739, Note_off_c, 0, 57, 60
1, 911758, Note_off_c, 0, 61, 45
1, 911867, Control_c, 0, 64, 33
1, 911882, Control_c, 0, 64, 42
1, 911897, Control_c, 0, 64, 50
1, 911912, Control_c, 0, 64, 57
1, 911927, Control_c, 0, 64, 63
1, 911941, Control_c, 0, 64, 68
1, 911956, Control_c, 0, 64, 74
1, 911971, Control_c, 0, 64, 84
1, 911986, Control_c, 0, 64, 93
1, 912000, Control_c, 0, 64, 107
1, 912015, Control_c, 0, 64, 127
1, 912091, Note_off_c, 0, 78, 51
1, 912126, Note_on_c, 0, 75, 72
1, 912167, Note_on_c, 0, 73, 71
1, 912182, Note_off_c, 0, 75, 59
1, 912193, Control_c, 0, 64, 91
1, 912208, Control_c, 0, 64, 72
1, 912219, Note_off_c, 0, 73, 63
1, 912223, Control_c, 0, 64, 59
1, 912231, Note_on_c, 0, 72, 70
1, 912238, Control_c, 0, 64, 0
1, 912316, Note_on_c, 0, 64, 68
1, 912320, Note_on_c, 0, 56, 59
1, 912322, Note_on_c, 0, 73, 89
1, 912328, Note_on_c, 0, 61, 60
1, 912340, Note_off_c, 0, 64, 65
1, 912342, Note_off_c, 0, 56, 61
1, 912346, Note_off_c, 0, 72, 62
1, 912347, Note_off_c, 0, 61, 62
1, 912400, Note_on_c, 0, 76, 84
1, 912405, Note_off_c, 0, 73, 64
1, 912496, Note_on_c, 0, 73, 91
1, 912499, Note_off_c, 0, 76, 64
1, 912528, Note_off_c, 0, 73, 65
1, 912745, Note_on_c, 0, 81, 100
1, 912897, Control_c, 0, 67, 19
1, 912927, Control_c, 0, 67, 23
1, 912956, Control_c, 0, 67, 25
1, 912986, Control_c, 0, 67, 28
1, 913008, Control_c, 0, 67, 33
1, 913015, Note_on_c, 0, 54, 45
1, 913021, Note_on_c, 0, 57, 42
1, 913022, Note_on_c, 0, 62, 43
1, 913022, Control_c, 0, 67, 42
1, 913037, Control_c, 0, 67, 54
1, 913051, Note_off_c, 0, 62, 60
1, 913052, Control_c, 0, 67, 67
1, 913055, Note_off_c, 0, 54, 63
1, 913063, Note_off_c, 0, 57, 60
1, 913067, Control_c, 0, 67, 82
1, 913082, Control_c, 0, 67, 97
1, 913097, Control_c, 0, 67, 115
1, 913112, Control_c, 0, 67, 127
1, 913127, Control_c, 0, 64, 43
1, 913142, Control_c, 0, 64, 58
1, 913156, Control_c, 0, 64, 64
1, 913171, Control_c, 0, 64, 68
1, 913186, Control_c, 0, 64, 72
1, 913201, Control_c, 0, 64, 77
1, 913216, Control_c, 0, 64, 84
1, 913230, Control_c, 0, 64, 95
1, 913245, Control_c, 0, 64, 108
1, 913260, Control_c, 0, 64, 127
1, 913293, Note_off_c, 0, 81, 59
1, 913602, Note_on_c, 0, 81, 44
1, 913684, Note_on_c, 0, 80, 52
1, 913690, Control_c, 0, 64, 104
1, 913705, Control_c, 0, 64, 85
1, 913720, Control_c, 0, 64, 71
1, 913742, Control_c, 0, 64, 59
1, 913747, Note_off_c, 0, 81, 43
1, 913757, Control_c, 0, 64, 0
1, 913765, Note_off_c, 0, 80, 41
1, 913780, Note_on_c, 0, 56, 32
1, 913787, Note_on_c, 0, 78, 57
1, 913793, Note_on_c, 0, 64, 21
1, 913803, Note_on_c, 0, 61, 23
1, 913818, Note_off_c, 0, 56, 50
1, 913824, Note_off_c, 0, 64, 48
1, 913827, Note_off_c, 0, 78, 62
1, 913839, Note_off_c, 0, 61, 50
1, 913873, Note_on_c, 0, 76, 55
1, 913906, Note_off_c, 0, 76, 55
1, 913974, Note_on_c, 0, 75, 32
1, 914014, Note_off_c, 0, 75, 49
1, 914038, Note_on_c, 0, 73, 48
1, 914063, Note_off_c, 0, 73, 59
1, 914146, Note_on_c, 0, 56, 36
1, 914161, Note_on_c, 0, 73, 53
1, 914171, Note_on_c, 0, 64, 24
1, 914320, Note_off_c, 0, 73, 60
1, 914337, Note_off_c, 0, 56, 40
1, 914340, Note_off_c, 0, 64, 56
1, 914359, Note_on_c, 0, 76, 57
1, 914382, Note_on_c, 0, 68, 42
1, 914407, Note_off_c, 0, 68, 52
1, 914441, Note_off_c, 0, 76, 37
1, 914565, Control_c, 0, 64, 56
1, 914573, Note_on_c, 0, 75, 57
1, 914580, Control_c, 0, 64, 70
1, 914581, Note_on_c, 0, 72, 45
1, 914590, Note_on_c, 0, 68, 12
1, 914594, Note_off_c, 0, 75, 64
1, 914594, Control_c, 0, 64, 80
1, 914605, Note_off_c, 0, 72, 48
1, 914609, Control_c, 0, 64, 92
1, 914624, Control_c, 0, 64, 99
1, 914636, Note_off_c, 0, 68, 28
1, 914639, Control_c, 0, 64, 109
1, 914654, Control_c, 0, 64, 127
1, 914774, Note_on_c, 0, 63, 69
1, 914787, Control_c, 0, 64, 108
1, 914787, Control_c, 0, 67, 121
1, 914795, Note_on_c, 0, 61, 73
1, 914801, Note_off_c, 0, 63, 68
1, 914802, Control_c, 0, 64, 76
1, 914802, Control_c, 0, 67, 81
1, 914817, Control_c, 0, 64, 55
1, 914817, Control_c, 0, 67, 22
1, 914832, Control_c, 0, 64, 0
1, 914832, Control_c, 0, 67, 0
1, 914838, Note_off_c, 0, 61, 59
1, 914885, Note_on_c, 0, 60, 65
1, 914969, Note_on_c, 0, 56, 48
1, 914970, Note_on_c, 0, 61, 64
1, 914972, Note_on_c, 0, 49, 54
1, 914978, Note_on_c, 0, 52, 45
1, 914979, Note_off_c, 0, 60, 51
1, 914993, Note_off_c, 0, 56, 57
1, 915002, Note_off_c, 0, 49, 63
1, 915009, Note_off_c, 0, 52, 55
1, 915022, Note_off_c, 0, 61, 54
1, 915073, Note_on_c, 0, 64, 40
1, 915126, Note_off_c, 0, 64, 59
1, 915166, Note_on_c, 0, 49, 53
1, 915169, Note_on_c, 0, 61, 65
1, 915172, Note_on_c, 0, 56, 36
1, 915174, Note_on_c, 0, 52, 33
1, 915191, Note_off_c, 0, 49, 60
1, 915202, Note_off_c, 0, 61, 61
1, 915205, Note_off_c, 0, 56, 47
1, 915210, Note_off_c, 0, 52, 45
1, 915389, Note_on_c, 0, 66, 78
1, 915582, Note_on_c, 0, 54, 56
1, 915586, Note_on_c, 0, 45, 58
1, 915606, Note_on_c, 0, 49, 37
1, 915610, Note_off_c, 0, 54, 59
1, 915628, Note_off_c, 0, 45, 61
1, 915637, Note_off_c, 0, 49, 53
1, 915789, Control_c, 0, 64, 48
1, 915798, Note_on_c, 0, 54, 69
1, 915804, Control_c, 0, 64, 69
1, 915804, Note_on_c, 0, 45, 64
1, 915807, Note_on_c, 0, 49, 61
1, 915818, Control_c, 0, 64, 86
1, 915821, Note_off_c, 0, 66, 56
1, 915828, Note_off_c, 0, 54, 65
1, 915830, Note_off_c, 0, 45, 57
1, 915830, Note_off_c, 0, 49, 63
1, 915833, Control_c, 0, 64, 127
1, 916002, Note_on_c, 0, 63, 74
1, 916043, Note_on_c, 0, 61, 78
1, 916048, Control_c, 0, 64, 98
1, 916063, Control_c, 0, 64, 69
1, 916078, Control_c, 0, 64, 47
1, 916084, Note_off_c, 0, 63, 61
1, 916093, Control_c, 0, 64, 0
1, 916110, Note_on_c, 0, 60, 84
1, 916114, Note_off_c, 0, 61, 60
1, 916210, Note_on_c, 0, 61, 87
1, 916211, Note_on_c, 0, 52, 67
1, 916212, Note_on_c, 0, 44, 67
1, 916215, Note_on_c, 0, 49, 66
1, 916239, Note_off_c, 0, 49, 64
1, 916241, Note_off_c, 0, 52, 64
1, 916241, Note_off_c, 0, 60, 61
1, 916247, Note_off_c, 0, 44, 63
1, 916297, Note_on_c, 0, 64, 82
1, 916311, Note_off_c, 0, 61, 61
1, 916400, Note_on_c, 0, 52, 72
1, 916400, Note_on_c, 0, 61, 90
1, 916401, Note_off_c, 0, 64, 64
1, 916406, Note_on_c, 0, 49, 70
1, 916409, Note_on_c, 0, 44, 62
1, 916419, Note_off_c, 0, 52, 66
1, 916433, Note_off_c, 0, 49, 64
1, 916435, Note_off_c, 0, 44, 60
1, 916441, Note_off_c, 0, 61, 64
1, 916635, Note_on_c, 0, 69, 90
1, 916894, Note_on_c, 0, 45, 53
1, 916896, Note_on_c, 0, 50, 43
1, 916900, Note_on_c, 0, 42, 38
1, 916935, Note_off_c, 0, 50, 54
1, 916939, Note_off_c, 0, 45, 60
1, 916939, Note_off_c, 0, 42, 54
1, 916960, Control_c, 0, 67, 20
1, 916975, Control_c, 0, 67, 23
1, 916989, Control_c, 0, 67, 26
1, 917004, Control_c, 0, 67, 32
1, 917019, Control_c, 0, 67, 41
1, 917034, Control_c, 0, 67, 56
1, 917049, Control_c, 0, 67, 73
1, 917063, Control_c, 0, 67, 89
1, 917078, Control_c, 0, 67, 102
1, 917093, Control_c, 0, 64, 41
1, 917093, Control_c, 0, 67, 114
1, 917107, Control_c, 0, 64, 54
1, 917107, Control_c, 0, 67, 127
1, 917122, Control_c, 0, 64, 61
1, 917137, Control_c, 0, 64, 63
1, 917152, Control_c, 0, 64, 66
1, 917167, Control_c, 0, 64, 69
1, 917178, Note_on_c, 0, 42, 41
1, 917182, Control_c, 0, 64, 75
1, 917190, Note_on_c, 0, 50, 38
1, 917196, Control_c, 0, 64, 86
1, 917200, Note_on_c, 0, 45, 37
1, 917211, Control_c, 0, 64, 99
1, 917226, Control_c, 0, 64, 113
1, 917241, Control_c, 0, 64, 127
1, 917263, Note_off_c, 0, 45, 46
1, 917270, Note_off_c, 0, 50, 50
1, 917280, Note_off_c, 0, 69, 55
1, 917318, Note_off_c, 0, 42, 37
1, 917533, Note_on_c, 0, 69, 40
1, 917619, Control_c, 0, 64, 108
1, 917634, Control_c, 0, 64, 98
1, 917637, Note_on_c, 0, 68, 60
1, 917649, Control_c, 0, 64, 89
1, 917664, Control_c, 0, 64, 78
1, 917679, Control_c, 0, 64, 68
1, 917693, Control_c, 0, 64, 56
1, 917708, Control_c, 0, 64, 0
1, 917734, Note_on_c, 0, 40, 37
1, 917740, Note_on_c, 0, 49, 36
1, 917743, Note_on_c, 0, 66, 76
1, 917744, Note_off_c, 0, 69, 37
1, 917776, Note_off_c, 0, 49, 54
1, 917779, Note_off_c, 0, 40, 61
1, 917802, Note_off_c, 0, 68, 56
1, 917838, Note_on_c, 0, 64, 71
1, 917871, Control_c, 0, 64, 39
1, 917886, Control_c, 0, 64, 57
1, 917901, Control_c, 0, 64, 64
1, 917904, Note_off_c, 0, 66, 61
1, 917916, Control_c, 0, 64, 66
1, 917917, Note_on_c, 0, 40, 37
1, 917927, Note_off_c, 0, 64, 59
1, 917931, Control_c, 0, 64, 69
1, 917944, Note_on_c, 0, 62, 70
1, 917945, Control_c, 0, 64, 72
1, 917946, Note_on_c, 0, 45, 42
1, 917960, Control_c, 0, 64, 76
1, 917975, Control_c, 0, 64, 78
1, 917981, Note_off_c, 0, 40, 48
1, 917985, Note_off_c, 0, 45, 50
1, 917990, Control_c, 0, 64, 79
1, 918005, Control_c, 0, 64, 81
1, 918019, Control_c, 0, 64, 83
1, 918034, Control_c, 0, 64, 84
1, 918042, Note_off_c, 0, 62, 58
1, 918044, Note_on_c, 0, 61, 63
1, 918123, Note_off_c, 0, 61, 57
1, 918138, Control_c, 0, 64, 84
1, 918152, Control_c, 0, 64, 81
1, 918167, Control_c, 0, 64, 79
1, 918182, Control_c, 0, 64, 75
1, 918198, Control_c, 0, 64, 70
1, 918212, Control_c, 0, 64, 65
1, 918234, Note_on_c, 0, 40, 23
1, 918235, Control_c, 0, 64, 60
1, 918241, Note_on_c, 0, 61, 46
1, 918250, Control_c, 0, 64, 51
1, 918256, Note_on_c, 0, 57, 38
1, 918259, Note_on_c, 0, 52, 15
1, 918266, Control_c, 0, 64, 39
1, 918281, Control_c, 0, 64, 0
1, 918525, Note_off_c, 0, 61, 50
1, 918599, Note_off_c, 0, 57, 43
1, 918626, Note_on_c, 0, 62, 45
1, 918724, Note_off_c, 0, 62, 61
1, 918725, Control_c, 0, 67, 119
1, 918740, Control_c, 0, 67, 84
1, 918747, Note_off_c, 0, 40, 57
1, 918749, Note_on_c, 0, 59, 48
1, 918755, Control_c, 0, 64, 62
1, 918755, Control_c, 0, 67, 38
1, 918757, Note_on_c, 0, 56, 42
1, 918770, Control_c, 0, 64, 69
1, 918770, Control_c, 0, 67, 0
1, 918774, Note_off_c, 0, 52, 40
1, 918783, Note_off_c, 0, 56, 56
1, 918784, Control_c, 0, 64, 80
1, 918787, Note_off_c, 0, 59, 65
1, 918799, Control_c, 0, 64, 107
1, 918814, Control_c, 0, 64, 127
1, 919088, Note_on_c, 0, 81, 63
1, 919115, Note_on_c, 0, 85, 67
1, 919115, Note_off_c, 0, 81, 64
1, 919136, Note_on_c, 0, 88, 89
1, 919141, Note_off_c, 0, 85, 69
1, 919148, Control_c, 0, 64, 102
1, 919161, Note_off_c, 0, 88, 65
1, 919163, Control_c, 0, 64, 69
1, 919178, Control_c, 0, 64, 0
1, 919208, Control_c, 0, 67, 23
1, 919223, Control_c, 0, 67, 30
1, 919238, Control_c, 0, 67, 39
1, 919252, Control_c, 0, 67, 53
1, 919267, Control_c, 0, 67, 70
1, 919282, Control_c, 0, 67, 87
1, 919297, Control_c, 0, 67, 106
1, 919311, Control_c, 0, 67, 127
1, 919404, Note_on_c, 0, 73, 56
1, 919407, Note_on_c, 0, 76, 53
1, 919411, Note_on_c, 0, 69, 47
1, 919435, Note_off_c, 0, 69, 59
1, 919435, Note_off_c, 0, 76, 62
1, 919443, Note_off_c, 0, 73, 59
1, 919626, Note_on_c, 0, 64, 54
1, 919631, Note_on_c, 0, 61, 47
1, 919638, Note_on_c, 0, 57, 41
1, 919647, Note_off_c, 0, 64, 61
1, 919656, Note_off_c, 0, 61, 58
1, 919670, Note_off_c, 0, 57, 56
1, 919832, Note_on_c, 0, 56, 57
1, 919837, Control_c, 0, 67, 115
1, 919843, Note_on_c, 0, 59, 45
1, 919848, Note_on_c, 0, 64, 34
1, 919852, Control_c, 0, 67, 55
1, 919854, Note_off_c, 0, 56, 61
1, 919868, Control_c, 0, 67, 0
1, 919871, Note_off_c, 0, 59, 55
1, 919879, Note_off_c, 0, 64, 34
1, 920035, Note_on_c, 0, 68, 59
1, 920048, Note_on_c, 0, 71, 53
1, 920063, Note_off_c, 0, 68, 66
1, 920086, Note_off_c, 0, 71, 63
1, 920134, Note_on_c, 0, 76, 57
1, 920174, Note_off_c, 0, 76, 59
1, 920208, Control_c, 0, 64, 35
1, 920209, Note_on_c, 0, 64, 44
1, 920209, Note_on_c, 0, 57, 33
1, 920218, Note_on_c, 0, 61, 37
1, 920223, Control_c, 0, 64, 55
1, 920233, Note_on_c, 0, 69, 57
1, 920235, Note_on_c, 0, 73, 58
1, 920238, Control_c, 0, 64, 66
1, 920252, Control_c, 0, 64, 77
1, 920260, Note_off_c, 0, 69, 62
1, 920266, Note_off_c, 0, 57, 43
1, 920267, Control_c, 0, 64, 93
1, 920278, Note_off_c, 0, 64, 45
1, 920280, Note_off_c, 0, 73, 59
1, 920282, Control_c, 0, 64, 127
1, 920297, Note_on_c, 0, 76, 65
1, 920323, Note_off_c, 0, 76, 66
1, 920384, Note_off_c, 0, 61, 32
1, 920414, Note_on_c, 0, 83, 90
1, 920424, Note_on_c, 0, 86, 83
1, 920424, Note_on_c, 0, 88, 91
1, 920430, Note_off_c, 0, 83, 74
1, 920430, Control_c, 0, 64, 125
1, 920446, Control_c, 0, 64, 71
1, 920449, Note_off_c, 0, 86, 64
1, 920454, Note_off_c, 0, 88, 67
1, 920460, Control_c, 0, 64, 37
1, 920460, Control_c, 0, 67, 20
1, 920475, Control_c, 0, 64, 0
1, 920475, Control_c, 0, 67, 23
1, 920513, Control_c, 0, 67, 25
1, 920631, Control_c, 0, 67, 23
1, 920644, Note_on_c, 0, 71, 61
1, 920647, Note_on_c, 0, 74, 59
1, 920647, Note_on_c, 0, 76, 58
1, 920665, Note_off_c, 0, 71, 65
1, 920671, Note_off_c, 0, 76, 60
1, 920675, Note_off_c, 0, 74, 61
1, 920780, Control_c, 0, 67, 25
1, 920810, Control_c, 0, 67, 27
1, 920839, Control_c, 0, 67, 34
1, 920847, Note_on_c, 0, 59, 49
1, 920847, Note_on_c, 0, 62, 56
1, 920853, Note_on_c, 0, 64, 44
1, 920854, Control_c, 0, 67, 38
1, 920869, Control_c, 0, 67, 39
1, 920874, Note_off_c, 0, 62, 62
1, 920878, Note_off_c, 0, 64, 54
1, 920883, Control_c, 0, 67, 38
1, 920885, Note_off_c, 0, 59, 60
1, 920898, Control_c, 0, 67, 37
1, 920913, Control_c, 0, 67, 37
1, 920928, Control_c, 0, 67, 36
1, 920943, Control_c, 0, 67, 36
1, 920957, Control_c, 0, 67, 35
1, 920972, Control_c, 0, 67, 34
1, 920987, Control_c, 0, 67, 33
1, 921002, Control_c, 0, 67, 32
1, 921032, Control_c, 0, 67, 30
1, 921041, Note_on_c, 0, 57, 65
1, 921045, Note_on_c, 0, 64, 58
1, 921055, Note_on_c, 0, 61, 60
1, 921066, Note_off_c, 0, 64, 62
1, 921071, Note_off_c, 0, 57, 65
1, 921077, Note_off_c, 0, 61, 63
1, 921249, Note_on_c, 0, 69, 68
1, 921263, Note_on_c, 0, 73, 60
1, 921276, Note_off_c, 0, 69, 64
1, 921304, Note_off_c, 0, 73, 59
1, 921305, Control_c, 0, 67, 28
1, 921345, Note_on_c, 0, 76, 65
1, 921364, Control_c, 0, 67, 25
1, 921376, Note_off_c, 0, 76, 63
1, 921379, Control_c, 0, 67, 23
1, 921394, Control_c, 0, 67, 0
1, 921416, Note_on_c, 0, 64, 59
1, 921420, Note_on_c, 0, 59, 51
1, 921422, Note_on_c, 0, 62, 55
1, 921423, Control_c, 0, 64, 44
1, 921438, Control_c, 0, 64, 62
1, 921440, Note_on_c, 0, 71, 51
1, 921440, Note_on_c, 0, 74, 64
1, 921453, Control_c, 0, 64, 69
1, 921463, Note_off_c, 0, 71, 60
1, 921469, Control_c, 0, 64, 76
1, 921484, Control_c, 0, 64, 88
1, 921491, Note_on_c, 0, 76, 76
1, 921497, Note_off_c, 0, 74, 64
1, 921499, Control_c, 0, 64, 108
1, 921506, Note_off_c, 0, 76, 67
1, 921513, Control_c, 0, 64, 127
1, 921584, Note_off_c, 0, 64, 61
1, 921587, Note_off_c, 0, 59, 61
1, 921588, Note_off_c, 0, 62, 61
1, 921613, Note_on_c, 0, 85, 74
1, 921617, Note_on_c, 0, 88, 91
1, 921620, Note_on_c, 0, 93, 87
1, 921626, Note_off_c, 0, 85, 70
1, 921634, Note_off_c, 0, 88, 74
1, 921646, Control_c, 0, 64, 86
1, 921655, Note_off_c, 0, 93, 67
1, 921661, Control_c, 0, 64, 64
1, 921676, Control_c, 0, 64, 0
1, 921822, Note_on_c, 0, 73, 76
1, 921823, Note_on_c, 0, 81, 76
1, 921831, Note_on_c, 0, 76, 63
1, 921837, Note_off_c, 0, 73, 69
1, 921837, Note_off_c, 0, 81, 69
1, 921849, Note_off_c, 0, 76, 65
1, 922025, Note_on_c, 0, 64, 72
1, 922025, Note_on_c, 0, 61, 69
1, 922048, Note_off_c, 0, 64, 69
1, 922052, Note_off_c, 0, 61, 66
1, 922257, Note_on_c, 0, 67, 90
1, 922260, Note_on_c, 0, 59, 75
1, 922265, Note_on_c, 0, 62, 81
1, 922442, Note_on_c, 0, 74, 76
1, 922455, Note_on_c, 0, 79, 67
1, 922463, Note_off_c, 0, 74, 66
1, 922465, Note_on_c, 0, 71, 25
1, 922474, Note_off_c, 0, 79, 68
1, 922484, Control_c, 0, 64, 42
1, 922499, Control_c, 0, 64, 58
1, 922503, Note_off_c, 0, 71, 33
1, 922514, Control_c, 0, 64, 67
1, 922528, Control_c, 0, 64, 76
1, 922543, Control_c, 0, 64, 94
1, 922558, Control_c, 0, 64, 127
1, 922603, Note_off_c, 0, 59, 60
1, 922605, Note_off_c, 0, 67, 61
1, 922626, Note_on_c, 0, 86, 92
1, 922627, Note_off_c, 0, 62, 60
1, 922630, Note_on_c, 0, 91, 95
1, 922633, Control_c, 0, 64, 89
1, 922635, Note_on_c, 0, 83, 43
1, 922642, Note_off_c, 0, 86, 74
1, 922648, Control_c, 0, 64, 66
1, 922658, Note_off_c, 0, 83, 57
1, 922662, Control_c, 0, 64, 0
1, 922668, Note_off_c, 0, 91, 66
1, 922692, Control_c, 0, 67, 23
1, 922707, Control_c, 0, 67, 31
1, 922728, Control_c, 0, 67, 42
1, 922743, Control_c, 0, 67, 54
1, 922758, Control_c, 0, 67, 68
1, 922773, Control_c, 0, 67, 86
1, 922788, Control_c, 0, 67, 101
1, 922803, Control_c, 0, 67, 117
1, 922818, Control_c, 0, 67, 127
1, 922838, Note_on_c, 0, 91, 66
1, 922865, Note_off_c, 0, 91, 56
1, 922877, Note_on_c, 0, 90, 68
1, 922909, Note_off_c, 0, 90, 63
1, 922958, Note_on_c, 0, 89, 54
1, 923011, Note_off_c, 0, 89, 56
1, 923032, Note_on_c, 0, 90, 59
1, 923039, Note_on_c, 0, 66, 44
1, 923044, Note_on_c, 0, 57, 39
1, 923045, Note_on_c, 0, 62, 40
1, 923061, Note_off_c, 0, 90, 67
1, 923067, Note_off_c, 0, 66, 48
1, 923074, Note_off_c, 0, 62, 53
1, 923080, Note_off_c, 0, 57, 52
1, 923131, Note_on_c, 0, 93, 54
1, 923174, Note_off_c, 0, 93, 57
1, 923210, Note_on_c, 0, 57, 26
1, 923217, Note_on_c, 0, 67, 41
1, 923217, Note_on_c, 0, 88, 56
1, 923226, Note_on_c, 0, 61, 40
1, 923239, Note_off_c, 0, 88, 59
1, 923241, Note_off_c, 0, 67, 51
1, 923247, Note_off_c, 0, 57, 45
1, 923256, Note_off_c, 0, 61, 57
1, 923286, Note_on_c, 0, 93, 64
1, 923367, Note_off_c, 0, 93, 33
1, 923404, Note_on_c, 0, 90, 55
1, 923408, Note_on_c, 0, 62, 35
1, 923433, Note_on_c, 0, 66, 19
1, 923485, Note_off_c, 0, 90, 56
1, 923491, Note_on_c, 0, 86, 55
1, 923508, Control_c, 0, 64, 56
1, 923523, Control_c, 0, 64, 68
1, 923524, Note_off_c, 0, 86, 61
1, 923538, Control_c, 0, 64, 78
1, 923553, Control_c, 0, 64, 90
1, 923567, Control_c, 0, 64, 104
1, 923578, Note_on_c, 0, 81, 62
1, 923582, Control_c, 0, 64, 127
1, 923582, Control_c, 0, 67, 115
1, 923597, Control_c, 0, 67, 79
1, 923608, Note_off_c, 0, 81, 58
1, 923611, Control_c, 0, 67, 40
1, 923626, Control_c, 0, 67, 0
1, 923673, Note_on_c, 0, 78, 63
1, 923675, Note_off_c, 0, 66, 39
1, 923751, Note_off_c, 0, 78, 58
1, 923763, Note_on_c, 0, 74, 61
1, 923786, Note_off_c, 0, 74, 58
1, 923798, Note_off_c, 0, 62, 40
1, 923925, Note_on_c, 0, 83, 65
1, 923947, Note_on_c, 0, 86, 90
1, 923950, Note_off_c, 0, 83, 66
1, 923955, Note_on_c, 0, 91, 94
1, 923965, Note_off_c, 0, 86, 73
1, 923983, Control_c, 0, 64, 80
1, 923984, Note_off_c, 0, 91, 62
1, 923998, Control_c, 0, 64, 57
1, 924013, Control_c, 0, 64, 0
1, 924156, Note_on_c, 0, 79, 84
1, 924166, Note_on_c, 0, 71, 66
1, 924170, Note_on_c, 0, 74, 64
1, 924174, Note_off_c, 0, 79, 74
1, 924184, Note_off_c, 0, 71, 65
1, 924189, Note_off_c, 0, 74, 62
1, 924362, Note_on_c, 0, 67, 75
1, 924371, Note_on_c, 0, 62, 64
1, 924371, Note_on_c, 0, 59, 58
1, 924381, Note_off_c, 0, 67, 71
1, 924402, Note_off_c, 0, 62, 64
1, 924412, Note_off_c, 0, 59, 62
1, 924581, Note_on_c, 0, 65, 100
1, 924585, Note_on_c, 0, 60, 83
1, 924586, Note_on_c, 0, 57, 77
1, 924767, Note_on_c, 0, 72, 69
1, 924771, Note_on_c, 0, 77, 75
1, 924785, Note_on_c, 0, 69, 34
1, 924785, Note_off_c, 0, 72, 67
1, 924792, Note_off_c, 0, 77, 72
1, 924820, Note_off_c, 0, 69, 34
1, 924946, Note_on_c, 0, 81, 74
1, 924959, Note_on_c, 0, 84, 94
1, 924964, Note_off_c, 0, 81, 68
1, 924965, Note_off_c, 0, 65, 61
1, 924975, Note_off_c, 0, 57, 61
1, 924976, Note_on_c, 0, 89, 100
1, 924982, Note_off_c, 0, 84, 73
1, 924993, Note_off_c, 0, 60, 63
1, 925005, Control_c, 0, 67, 20
1, 925012, Note_off_c, 0, 89, 64
1, 925020, Control_c, 0, 67, 30
1, 925035, Control_c, 0, 67, 45
1, 925049, Control_c, 0, 67, 69
1, 925064, Control_c, 0, 67, 95
1, 925079, Control_c, 0, 67, 118
1, 925094, Control_c, 0, 67, 127
1, 925175, Note_on_c, 0, 89, 68
1, 925218, Note_on_c, 0, 88, 67
1, 925232, Note_off_c, 0, 89, 54
1, 925255, Note_off_c, 0, 88, 59
1, 925280, Note_on_c, 0, 87, 67
1, 925325, Note_off_c, 0, 87, 55
1, 925359, Note_on_c, 0, 88, 65
1, 925375, Note_on_c, 0, 64, 47
1, 925375, Note_on_c, 0, 60, 42
1, 925378, Note_on_c, 0, 55, 33
1, 925394, Note_off_c, 0, 88, 59
1, 925402, Note_off_c, 0, 64, 56
1, 925404, Note_off_c, 0, 60, 57
1, 925413, Note_off_c, 0, 55, 52
1, 925443, Note_on_c, 0, 91, 63
1, 925524, Note_off_c, 0, 91, 37
1, 925548, Note_on_c, 0, 65, 59
1, 925550, Note_on_c, 0, 55, 18
1, 925554, Note_on_c, 0, 86, 58
1, 925557, Note_on_c, 0, 59, 43
1, 925578, Note_off_c, 0, 65, 62
1, 925591, Note_off_c, 0, 55, 41
1, 925594, Note_off_c, 0, 59, 60
1, 925594, Note_off_c, 0, 86, 59
1, 925632, Note_on_c, 0, 91, 60
1, 925713, Note_off_c, 0, 91, 41
1, 925725, Control_c, 0, 64, 35
1, 925740, Control_c, 0, 64, 61
1, 925751, Note_on_c, 0, 88, 58
1, 925754, Control_c, 0, 64, 67
1, 925763, Note_on_c, 0, 60, 39
1, 925769, Control_c, 0, 64, 72
1, 925770, Note_on_c, 0, 64, 29
1, 925784, Control_c, 0, 64, 78
1, 925798, Control_c, 0, 64, 87
1, 925803, Note_off_c, 0, 64, 53
1, 925812, Note_off_c, 0, 60, 61
1, 925813, Control_c, 0, 64, 99
1, 925822, Note_off_c, 0, 88, 60
1, 925828, Control_c, 0, 64, 127
1, 925838, Note_on_c, 0, 84, 60
1, 925880, Note_off_c, 0, 84, 60
1, 925934, Note_on_c, 0, 79, 57
1, 925953, Note_off_c, 0, 79, 65
1, 926025, Note_on_c, 0, 76, 64
1, 926119, Note_off_c, 0, 76, 61
1, 926121, Note_on_c, 0, 72, 56
1, 926143, Note_off_c, 0, 72, 64
1, 926303, Control_c, 0, 64, 113
1, 926318, Control_c, 0, 64, 79
1, 926330, Note_on_c, 0, 47, 40
1, 926333, Control_c, 0, 64, 63
1, 926348, Control_c, 0, 64, 40
1, 926363, Control_c, 0, 64, 0
1, 926367, Note_on_c, 0, 93, 65
1, 926377, Control_c, 0, 64, 42
1, 926392, Control_c, 0, 64, 54
1, 926397, Note_on_c, 0, 91, 65
1, 926407, Control_c, 0, 64, 63
1, 926421, Control_c, 0, 64, 71
1, 926436, Control_c, 0, 64, 80
1, 926436, Control_c, 0, 67, 103
1, 926439, Note_off_c, 0, 93, 54
1, 926451, Control_c, 0, 64, 90
1, 926451, Control_c, 0, 67, 59
1, 926466, Control_c, 0, 64, 99
1, 926466, Control_c, 0, 67, 0
1, 926478, Note_off_c, 0, 91, 64
1, 926481, Note_on_c, 0, 90, 68
1, 926489, Control_c, 0, 64, 108
1, 926499, Note_off_c, 0, 47, 37
1, 926503, Control_c, 0, 64, 127
1, 926534, Note_off_c, 0, 90, 61
1, 926570, Note_on_c, 0, 55, 29
1, 926574, Note_on_c, 0, 91, 64
1, 926618, Note_off_c, 0, 91, 57
1, 926648, Note_on_c, 0, 90, 69
1, 926674, Note_off_c, 0, 55, 56
1, 926714, Note_on_c, 0, 62, 55
1, 926720, Note_off_c, 0, 90, 55
1, 926734, Note_on_c, 0, 91, 69
1, 926754, Note_off_c, 0, 62, 61
1, 926787, Note_off_c, 0, 91, 57
1, 926822, Note_on_c, 0, 93, 64
1, 926844, Control_c, 0, 64, 119
1, 926849, Note_off_c, 0, 93, 68
1, 926859, Control_c, 0, 64, 81
1, 926874, Control_c, 0, 64, 62
1, 926889, Control_c, 0, 64, 35
1, 926902, Note_on_c, 0, 48, 39
1, 926903, Control_c, 0, 64, 0
1, 926912, Note_on_c, 0, 93, 80
1, 926918, Control_c, 0, 64, 50
1, 926933, Control_c, 0, 64, 63
1, 926947, Control_c, 0, 64, 73
1, 926962, Control_c, 0, 64, 86
1, 926977, Control_c, 0, 64, 100
1, 926992, Control_c, 0, 64, 108
1, 926992, Control_c, 0, 67, 24
1, 927003, Note_on_c, 0, 91, 80
1, 927007, Control_c, 0, 64, 111
1, 927007, Control_c, 0, 67, 34
1, 927021, Note_off_c, 0, 93, 60
1, 927021, Control_c, 0, 64, 113
1, 927021, Control_c, 0, 67, 51
1, 927030, Note_off_c, 0, 48, 46
1, 927036, Control_c, 0, 67, 75
1, 927052, Control_c, 0, 64, 116
1, 927052, Control_c, 0, 67, 104
1, 927067, Control_c, 0, 67, 127
1, 927082, Control_c, 0, 64, 119
1, 927089, Note_off_c, 0, 91, 56
1, 927097, Control_c, 0, 64, 127
1, 927104, Note_on_c, 0, 88, 72
1, 927109, Note_on_c, 0, 55, 40
1, 927145, Note_off_c, 0, 88, 57
1, 927172, Note_off_c, 0, 55, 57
1, 927178, Note_on_c, 0, 84, 70
1, 927203, Note_off_c, 0, 84, 69
1, 927278, Note_on_c, 0, 79, 71
1, 927299, Note_off_c, 0, 79, 69
1, 927301, Note_on_c, 0, 64, 40
1, 927328, Note_off_c, 0, 64, 56
1, 927483, Note_on_c, 0, 50, 49
1, 927488, Control_c, 0, 64, 90
1, 927503, Control_c, 0, 64, 69
1, 927510, Note_on_c, 0, 79, 80
1, 927516, Note_on_c, 0, 77, 72
1, 927517, Control_c, 0, 64, 0
1, 927530, Note_off_c, 0, 79, 68
1, 927538, Note_off_c, 0, 77, 67
1, 927615, Note_on_c, 0, 79, 61
1, 927620, Note_on_c, 0, 77, 43
1, 927623, Note_off_c, 0, 50, 58
1, 927635, Note_off_c, 0, 79, 64
1, 927673, Note_off_c, 0, 77, 0
1, 927688, Note_on_c, 0, 77, 42
1, 927689, Note_on_c, 0, 79, 62
1, 927697, Note_on_c, 0, 59, 48
1, 927712, Note_off_c, 0, 79, 68
1, 927715, Note_off_c, 0, 77, 61
1, 927778, Note_on_c, 0, 79, 68
1, 927781, Note_on_c, 0, 77, 56
1, 927799, Note_off_c, 0, 79, 68
1, 927801, Note_off_c, 0, 77, 63
1, 927862, Note_on_c, 0, 79, 74
1, 927869, Note_on_c, 0, 77, 64
1, 927880, Note_on_c, 0, 65, 57
1, 927886, Note_off_c, 0, 79, 69
1, 927889, Note_off_c, 0, 77, 68
1, 927903, Note_off_c, 0, 65, 62
1, 927957, Note_on_c, 0, 77, 63
1, 927974, Note_on_c, 0, 79, 58
1, 927986, Note_off_c, 0, 77, 61
1, 928001, Note_off_c, 0, 79, 58
1, 928010, Note_off_c, 0, 59, 41
1, 928063, Note_on_c, 0, 52, 50
1, 928070, Note_on_c, 0, 81, 74
1, 928071, Note_on_c, 0, 76, 70
1, 928106, Note_off_c, 0, 76, 59
1, 928164, Note_on_c, 0, 79, 71
1, 928175, Note_off_c, 0, 81, 51
1, 928210, Note_off_c, 0, 52, 57
1, 928245, Note_off_c, 0, 79, 62
1, 928247, Note_on_c, 0, 60, 39
1, 928255, Note_on_c, 0, 76, 68
1, 928267, Control_c, 0, 64, 49
1, 928282, Control_c, 0, 64, 59
1, 928293, Note_off_c, 0, 76, 59
1, 928296, Control_c, 0, 64, 63
1, 928311, Control_c, 0, 64, 66
1, 928326, Control_c, 0, 64, 69
1, 928341, Control_c, 0, 64, 73
1, 928347, Note_on_c, 0, 72, 59
1, 928356, Control_c, 0, 64, 79
1, 928371, Control_c, 0, 64, 85
1, 928375, Note_off_c, 0, 72, 67
1, 928386, Control_c, 0, 64, 93
1, 928392, Note_off_c, 0, 60, 56
1, 928400, Control_c, 0, 64, 103
1, 928415, Control_c, 0, 64, 127
1, 928429, Note_on_c, 0, 64, 28
1, 928452, Note_on_c, 0, 67, 38
1, 928464, Note_off_c, 0, 64, 43
1, 928482, Note_off_c, 0, 67, 57
1, 928607, Control_c, 0, 64, 116
1, 928622, Control_c, 0, 64, 80
1, 928638, Control_c, 0, 64, 61
1, 928642, Note_on_c, 0, 44, 51
1, 928649, Note_on_c, 0, 90, 65
1, 928653, Control_c, 0, 64, 0
1, 928680, Note_on_c, 0, 88, 66
1, 928683, Control_c, 0, 67, 112
1, 928697, Control_c, 0, 64, 50
1, 928697, Control_c, 0, 67, 70
1, 928720, Control_c, 0, 64, 64
1, 928720, Control_c, 0, 67, 24
1, 928735, Control_c, 0, 64, 72
1, 928735, Control_c, 0, 67, 0
1, 928735, Note_off_c, 0, 90, 58
1, 928748, Note_off_c, 0, 88, 64
1, 928750, Control_c, 0, 64, 83
1, 928756, Note_on_c, 0, 87, 74
1, 928764, Control_c, 0, 64, 98
1, 928779, Control_c, 0, 64, 127
1, 928800, Note_off_c, 0, 44, 37
1, 928808, Note_off_c, 0, 87, 52
1, 928839, Note_on_c, 0, 88, 76
1, 928850, Note_on_c, 0, 52, 45
1, 928914, Note_on_c, 0, 87, 67
1, 928922, Note_off_c, 0, 88, 63
1, 929005, Note_off_c, 0, 87, 63
1, 929008, Note_on_c, 0, 88, 79
1, 929013, Note_on_c, 0, 59, 44
1, 929037, Note_off_c, 0, 59, 60
1, 929064, Note_off_c, 0, 88, 63
1, 929081, Note_on_c, 0, 90, 80
1, 929097, Note_off_c, 0, 52, 20
1, 929126, Note_off_c, 0, 90, 61
1, 929149, Control_c, 0, 64, 95
1, 929164, Control_c, 0, 64, 70
1, 929179, Control_c, 0, 64, 52
1, 929181, Note_on_c, 0, 45, 43
1, 929185, Note_on_c, 0, 90, 70
1, 929194, Control_c, 0, 64, 0
1, 929223, Control_c, 0, 64, 47
1, 929238, Control_c, 0, 64, 60
1, 929253, Control_c, 0, 64, 69
1, 929268, Note_on_c, 0, 88, 78
1, 929268, Control_c, 0, 64, 81
1, 929268, Control_c, 0, 67, 21
1, 929277, Note_off_c, 0, 45, 55
1, 929283, Control_c, 0, 64, 102
1, 929283, Control_c, 0, 67, 29
1, 929288, Note_off_c, 0, 90, 55
1, 929297, Control_c, 0, 64, 127
1, 929297, Control_c, 0, 67, 40
1, 929312, Control_c, 0, 67, 59
1, 929327, Control_c, 0, 67, 86
1, 929341, Control_c, 0, 67, 114
1, 929342, Note_on_c, 0, 52, 54
1, 929356, Control_c, 0, 67, 127
1, 929364, Note_on_c, 0, 85, 77
1, 929391, Note_off_c, 0, 88, 63
1, 929424, Note_off_c, 0, 85, 63
1, 929454, Note_on_c, 0, 81, 65
1, 929483, Note_off_c, 0, 81, 63
1, 929548, Note_on_c, 0, 76, 78
1, 929566, Note_on_c, 0, 61, 49
1, 929569, Note_off_c, 0, 76, 70
1, 929591, Note_off_c, 0, 61, 57
1, 929718, Note_off_c, 0, 52, 44
1, 929750, Control_c, 0, 64, 90
1, 929751, Note_on_c, 0, 47, 55
1, 929765, Control_c, 0, 64, 68
1, 929779, Control_c, 0, 64, 34
1, 929780, Note_on_c, 0, 72, 64
1, 929780, Note_on_c, 0, 74, 71
1, 929780, Note_on_c, 0, 76, 61
1, 929794, Control_c, 0, 64, 0
1, 929799, Note_off_c, 0, 74, 67
1, 929800, Note_off_c, 0, 76, 62
1, 929806, Note_off_c, 0, 72, 65
1, 929858, Note_off_c, 0, 47, 55
1, 929864, Note_on_c, 0, 76, 75
1, 929873, Note_on_c, 0, 74, 69
1, 929887, Note_off_c, 0, 76, 70
1, 929892, Note_off_c, 0, 74, 65
1, 929953, Note_on_c, 0, 76, 74
1, 929959, Note_on_c, 0, 74, 69
1, 929973, Note_on_c, 0, 56, 46
1, 929975, Note_off_c, 0, 76, 69
1, 929978, Note_off_c, 0, 74, 66
1, 930043, Note_on_c, 0, 76, 78
1, 930045, Note_on_c, 0, 74, 79
1, 930067, Note_off_c, 0, 76, 68
1, 930070, Note_off_c, 0, 74, 69
1, 930130, Note_on_c, 0, 62, 55
1, 930133, Note_on_c, 0, 76, 65
1, 930141, Note_on_c, 0, 74, 65
1, 930155, Note_off_c, 0, 76, 66
1, 930157, Note_off_c, 0, 62, 63
1, 930161, Note_off_c, 0, 74, 61
1, 930231, Note_on_c, 0, 76, 71
1, 930239, Note_on_c, 0, 74, 58
1, 930260, Note_off_c, 0, 76, 65
1, 930263, Note_off_c, 0, 74, 58
1, 930287, Note_off_c, 0, 56, 42
1, 930334, Note_on_c, 0, 49, 44
1, 930334, Note_on_c, 0, 78, 70
1, 930336, Note_on_c, 0, 73, 62
1, 930362, Note_off_c, 0, 73, 68
1, 930404, Note_off_c, 0, 78, 61
1, 930410, Control_c, 0, 67, 114
1, 930417, Note_on_c, 0, 76, 70
1, 930425, Control_c, 0, 67, 88
1, 930440, Control_c, 0, 67, 63
1, 930455, Control_c, 0, 67, 46
1, 930469, Control_c, 0, 67, 36
1, 930484, Control_c, 0, 67, 29
1, 930494, Note_on_c, 0, 57, 37
1, 930499, Control_c, 0, 67, 26
1, 930510, Note_off_c, 0, 76, 58
1, 930517, Note_on_c, 0, 73, 58
1, 930553, Note_off_c, 0, 73, 62
1, 930601, Note_on_c, 0, 69, 54
1, 930632, Control_c, 0, 67, 23
1, 930636, Note_off_c, 0, 69, 64
1, 930647, Control_c, 0, 67, 20
1, 930661, Note_off_c, 0, 49, 44
1, 930662, Control_c, 0, 67, 0
1, 930684, Note_off_c, 0, 57, 52
1, 930691, Control_c, 0, 64, 46
1, 930706, Note_on_c, 0, 64, 44
1, 930706, Control_c, 0, 64, 67
1, 930720, Note_on_c, 0, 61, 33
1, 930720, Control_c, 0, 64, 73
1, 930732, Note_off_c, 0, 64, 52
1, 930735, Control_c, 0, 64, 87
1, 930750, Control_c, 0, 64, 109
1, 930756, Note_off_c, 0, 61, 42
1, 930765, Control_c, 0, 64, 127
1, 930902, Note_on_c, 0, 79, 76
1, 930914, Note_on_c, 0, 88, 102
1, 930914, Note_on_c, 0, 81, 89
1, 930927, Note_on_c, 0, 85, 78
1, 930928, Note_off_c, 0, 79, 69
1, 930935, Note_off_c, 0, 81, 72
1, 930944, Control_c, 0, 64, 113
1, 930946, Note_off_c, 0, 85, 72
1, 930952, Note_off_c, 0, 88, 64
1, 930958, Control_c, 0, 64, 66
1, 930981, Control_c, 0, 64, 0
1, 931133, Note_on_c, 0, 67, 97
1, 931137, Note_on_c, 0, 76, 94
1, 931146, Note_on_c, 0, 69, 67
1, 931147, Note_off_c, 0, 67, 77
1, 931155, Note_off_c, 0, 76, 71
1, 931157, Note_on_c, 0, 73, 51
1, 931165, Note_off_c, 0, 69, 64
1, 931181, Note_off_c, 0, 73, 58
1, 931326, Note_on_c, 0, 64, 86
1, 931331, Note_on_c, 0, 61, 78
1, 931342, Note_on_c, 0, 57, 70
1, 931347, Note_off_c, 0, 64, 67
1, 931351, Note_off_c, 0, 61, 69
1, 931367, Note_off_c, 0, 57, 67
1, 931536, Note_on_c, 0, 62, 105
1, 931538, Note_on_c, 0, 57, 84
1, 931543, Note_on_c, 0, 50, 57
1, 931544, Control_c, 0, 64, 59
1, 931559, Control_c, 0, 64, 93
1, 931563, Note_off_c, 0, 57, 69
1, 931569, Note_off_c, 0, 62, 68
1, 931570, Note_off_c, 0, 50, 55
1, 931574, Control_c, 0, 64, 127
1, 931738, Note_on_c, 0, 78, 91
1, 931738, Note_on_c, 0, 86, 84
1, 931738, Note_on_c, 0, 90, 92
1, 931754, Note_off_c, 0, 78, 74
1, 931759, Note_off_c, 0, 86, 68
1, 931804, Note_off_c, 0, 90, 63
1, 931903, Note_on_c, 0, 81, 87
1, 931912, Note_on_c, 0, 86, 94
1, 931935, Note_on_c, 0, 93, 88
1, 931936, Note_off_c, 0, 81, 60
1, 931937, Control_c, 0, 64, 114
1, 931938, Note_on_c, 0, 90, 74
1, 931950, Note_off_c, 0, 86, 67
1, 931952, Control_c, 0, 64, 71
1, 931960, Note_off_c, 0, 90, 62
1, 931966, Control_c, 0, 64, 35
1, 931977, Note_off_c, 0, 93, 66
1, 931981, Control_c, 0, 64, 0
1, 932055, Control_c, 0, 67, 21
1, 932070, Control_c, 0, 67, 24
1, 932085, Control_c, 0, 67, 28
1, 932100, Control_c, 0, 67, 33
1, 932115, Control_c, 0, 67, 43
1, 932130, Control_c, 0, 67, 64
1, 932145, Control_c, 0, 67, 84
1, 932159, Control_c, 0, 67, 102
1, 932174, Control_c, 0, 67, 116
1, 932176, Note_on_c, 0, 52, 47
1, 932185, Note_on_c, 0, 100, 70
1, 932188, Note_on_c, 0, 64, 43
1, 932189, Note_on_c, 0, 61, 55
1, 932189, Control_c, 0, 67, 126
1, 932191, Note_on_c, 0, 57, 51
1, 932207, Note_off_c, 0, 52, 56
1, 932214, Note_off_c, 0, 64, 49
1, 932232, Note_off_c, 0, 61, 58
1, 932234, Note_off_c, 0, 57, 59
1, 932245, Note_on_c, 0, 97, 34
1, 932248, Note_off_c, 0, 100, 52
1, 932279, Note_off_c, 0, 97, 47
1, 932282, Note_on_c, 0, 93, 50
1, 932306, Note_off_c, 0, 93, 64
1, 932358, Note_on_c, 0, 97, 69
1, 932370, Note_on_c, 0, 61, 55
1, 932385, Note_on_c, 0, 57, 28
1, 932407, Note_on_c, 0, 93, 70
1, 932407, Note_off_c, 0, 61, 63
1, 932416, Note_off_c, 0, 97, 65
1, 932422, Note_off_c, 0, 57, 49
1, 932434, Note_off_c, 0, 93, 65
1, 932446, Poly_aftertouch_c, 0, 52, 0
1, 932466, Note_on_c, 0, 88, 58
1, 932492, Note_off_c, 0, 88, 67
1, 932553, Note_on_c, 0, 93, 65
1, 932572, Note_on_c, 0, 88, 74
1, 932579, Note_off_c, 0, 93, 66
1, 932613, Note_off_c, 0, 88, 61
1, 932631, Note_on_c, 0, 85, 59
1, 932658, Note_off_c, 0, 85, 67
1, 932738, Note_on_c, 0, 88, 80
1, 932751, Note_on_c, 0, 52, 52
1, 932767, Note_on_c, 0, 86, 71
1, 932768, Note_on_c, 0, 62, 32
1, 932770, Note_on_c, 0, 64, 30
1, 932773, Note_on_c, 0, 59, 36
1, 932780, Note_off_c, 0, 52, 58
1, 932789, Note_off_c, 0, 88, 54
1, 932800, Note_off_c, 0, 64, 46
1, 932802, Note_off_c, 0, 62, 45
1, 932805, Note_off_c, 0, 59, 47
1, 932810, Note_off_c, 0, 86, 61
1, 932827, Note_on_c, 0, 83, 61
1, 932845, Note_off_c, 0, 83, 65
1, 932926, Note_on_c, 0, 86, 74
1, 932932, Note_on_c, 0, 59, 46
1, 932938, Note_on_c, 0, 52, 26
1, 932947, Note_on_c, 0, 83, 70
1, 932956, Note_off_c, 0, 59, 60
1, 932974, Note_off_c, 0, 86, 52
1, 932976, Note_off_c, 0, 52, 48
1, 933000, Note_off_c, 0, 83, 64
1, 933012, Note_on_c, 0, 80, 63
1, 933036, Note_off_c, 0, 80, 66
1, 933108, Note_on_c, 0, 83, 81
1, 933115, Control_c, 0, 64, 45
1, 933115, Control_c, 0, 67, 91
1, 933123, Note_on_c, 0, 80, 72
1, 933130, Control_c, 0, 64, 71
1, 933130, Control_c, 0, 67, 31
1, 933145, Control_c, 0, 64, 102
1, 933145, Control_c, 0, 67, 0
1, 933153, Note_off_c, 0, 83, 63
1, 933155, Note_on_c, 0, 76, 77
1, 933160, Control_c, 0, 64, 127
1, 933161, Note_off_c, 0, 80, 60
1, 933179, Note_off_c, 0, 76, 70
1, 933313, Note_on_c, 0, 67, 101
1, 933318, Note_on_c, 0, 76, 98
1, 933319, Note_on_c, 0, 69, 84
1, 933327, Note_on_c, 0, 73, 79
1, 933327, Note_off_c, 0, 67, 77
1, 933334, Note_off_c, 0, 76, 74
1, 933337, Note_off_c, 0, 69, 72
1, 933348, Note_off_c, 0, 73, 71
1, 933376, Control_c, 0, 64, 84
1, 933390, Control_c, 0, 64, 61
1, 933405, Control_c, 0, 64, 0
1, 933514, Note_on_c, 0, 55, 101
1, 933515, Note_on_c, 0, 64, 98
1, 933529, Note_off_c, 0, 55, 77
1, 933531, Note_off_c, 0, 64, 74
1, 933537, Note_on_c, 0, 57, 50
1, 933537, Note_off_c, 0, 57, 127
1, 933703, Note_on_c, 0, 52, 102
1, 933710, Note_on_c, 0, 49, 83
1, 933724, Note_on_c, 0, 45, 78
1, 933735, Note_off_c, 0, 52, 61
1, 933736, Note_off_c, 0, 49, 69
1, 933749, Note_off_c, 0, 45, 66
1, 933921, Note_on_c, 0, 50, 103
1, 933926, Note_on_c, 0, 45, 90
1, 933939, Note_on_c, 0, 38, 54
1, 933960, Note_off_c, 0, 45, 70
1, 933961, Control_c, 0, 64, 65
1, 933972, Note_off_c, 0, 50, 66
1, 933976, Control_c, 0, 64, 91
1, 933979, Note_off_c, 0, 38, 37
1, 933991, Control_c, 0, 64, 127
1, 934124, Note_on_c, 0, 54, 87
1, 934131, Note_on_c, 0, 62, 73
1, 934133, Note_on_c, 0, 66, 85
1, 934146, Note_off_c, 0, 54, 71
1, 934158, Note_off_c, 0, 62, 67
1, 934179, Note_off_c, 0, 66, 60
1, 934321, Note_on_c, 0, 69, 76
1, 934327, Note_on_c, 0, 74, 93
1, 934340, Note_on_c, 0, 81, 88
1, 934342, Note_off_c, 0, 69, 70
1, 934342, Note_on_c, 0, 78, 81
1, 934349, Note_off_c, 0, 74, 66
1, 934362, Control_c, 0, 64, 83
1, 934365, Note_off_c, 0, 78, 69
1, 934377, Note_off_c, 0, 81, 66
1, 934377, Control_c, 0, 64, 62
1, 934392, Control_c, 0, 64, 0
1, 934586, Note_on_c, 0, 61, 48
1, 934590, Note_on_c, 0, 57, 49
1, 934592, Note_on_c, 0, 88, 55
1, 934596, Note_on_c, 0, 64, 28
1, 934601, Note_on_c, 0, 52, 11
1, 934621, Note_off_c, 0, 61, 63
1, 934625, Note_on_c, 0, 85, 51
1, 934625, Note_off_c, 0, 88, 55
1, 934627, Note_off_c, 0, 57, 64
1, 934629, Note_off_c, 0, 64, 42
1, 934644, Note_off_c, 0, 52, 44
1, 934667, Note_off_c, 0, 85, 61
1, 934683, Note_on_c, 0, 81, 50
1, 934722, Note_off_c, 0, 81, 56
1, 934777, Note_on_c, 0, 85, 68
1, 934783, Note_on_c, 0, 61, 43
1, 934792, Note_on_c, 0, 64, 20
1, 934813, Note_off_c, 0, 61, 49
1, 934825, Note_on_c, 0, 81, 69
1, 934831, Note_off_c, 0, 64, 31
1, 934837, Note_off_c, 0, 85, 64
1, 934859, Note_off_c, 0, 81, 62
1, 934880, Note_on_c, 0, 76, 63
1, 934903, Note_off_c, 0, 76, 66
1, 934974, Note_on_c, 0, 81, 59
1, 934985, Note_on_c, 0, 76, 71
1, 934999, Note_off_c, 0, 81, 54
1, 935029, Note_off_c, 0, 76, 62
1, 935045, Note_on_c, 0, 73, 63
1, 935072, Note_off_c, 0, 73, 67
1, 935156, Note_on_c, 0, 76, 75
1, 935162, Note_on_c, 0, 52, 55
1, 935170, Note_on_c, 0, 59, 48
1, 935170, Note_on_c, 0, 64, 44
1, 935185, Note_on_c, 0, 74, 76
1, 935194, Note_off_c, 0, 52, 60
1, 935194, Note_off_c, 0, 59, 59
1, 935195, Note_off_c, 0, 64, 53
1, 935211, Note_off_c, 0, 76, 53
1, 935248, Note_off_c, 0, 74, 61
1, 935254, Note_on_c, 0, 71, 62
1, 935282, Note_off_c, 0, 71, 67
1, 935336, Note_on_c, 0, 62, 64
1, 935341, Note_on_c, 0, 59, 47
1, 935342, Note_on_c, 0, 52, 48
1, 935351, Note_on_c, 0, 74, 84
1, 935357, Note_off_c, 0, 62, 61
1, 935364, Note_off_c, 0, 59, 58
1, 935370, Note_off_c, 0, 52, 53
1, 935390, Note_on_c, 0, 71, 71
1, 935435, Note_off_c, 0, 74, 60
1, 935451, Note_off_c, 0, 71, 65
1, 935462, Note_on_c, 0, 68, 71
1, 935484, Note_off_c, 0, 68, 68
1, 935548, Note_on_c, 0, 71, 87
1, 935562, Control_c, 0, 64, 54
1, 935577, Control_c, 0, 64, 69
1, 935589, Note_on_c, 0, 68, 64
1, 935591, Control_c, 0, 64, 83
1, 935606, Control_c, 0, 64, 111
1, 935621, Control_c, 0, 64, 127
1, 935651, Note_off_c, 0, 71, 62
1, 935653, Note_on_c, 0, 64, 81
1, 935664, Note_off_c, 0, 68, 63
1, 935674, Note_off_c, 0, 64, 70
1, 935727, Note_on_c, 0, 69, 102
1, 935734, Note_on_c, 0, 57, 77
1, 935767, Note_on_c, 0, 52, 66
1, 935775, Note_off_c, 0, 57, 59
1, 935781, Note_on_c, 0, 64, 81
1, 935784, Control_c, 0, 64, 88
1, 935799, Control_c, 0, 64, 65
1, 935814, Control_c, 0, 64, 0
1, 935830, Note_off_c, 0, 69, 60
1, 935832, Note_off_c, 0, 52, 62
1, 935834, Note_on_c, 0, 49, 68
1, 935844, Note_on_c, 0, 61, 79
1, 935853, Note_off_c, 0, 64, 65
1, 935862, Note_off_c, 0, 49, 58
1, 935867, Note_off_c, 0, 61, 70
1, 935880, Poly_aftertouch_c, 0, 65, 0
1, 935927, Note_on_c, 0, 52, 75
1, 935937, Note_on_c, 0, 64, 79
1, 935981, Note_on_c, 0, 61, 74
1, 935984, Note_on_c, 0, 49, 65
1, 935987, Note_off_c, 0, 52, 58
1, 936026, Note_off_c, 0, 64, 62
1, 936030, Note_on_c, 0, 57, 76
1, 936032, Note_on_c, 0, 45, 69
1, 936038, Note_off_c, 0, 49, 63
1, 936038, Note_off_c, 0, 61, 62
1, 936053, Note_off_c, 0, 57, 70
1, 936058, Note_off_c, 0, 45, 66
1, 936133, Note_on_c, 0, 45, 80
1, 936134, Note_on_c, 0, 57, 73
1, 936165, Note_off_c, 0, 45, 66
1, 936168, Note_on_c, 0, 52, 73
1, 936175, Note_off_c, 0, 57, 57
1, 936208, Note_off_c, 0, 52, 62
1, 936226, Note_on_c, 0, 49, 71
1, 936247, Note_on_c, 0, 37, 59
1, 936252, Note_off_c, 0, 49, 66
1, 936305, Note_off_c, 0, 37, 55
1, 936380, Note_on_c, 0, 33, 95
1, 936385, Note_on_c, 0, 45, 102
1, 936401, Control_c, 0, 64, 70
1, 936415, Note_off_c, 0, 45, 67
1, 936415, Control_c, 0, 64, 115
1, 936430, Control_c, 0, 64, 127
1, 936444, Note_off_c, 0, 33, 58
1, 936890, Control_c, 0, 64, 111
1, 936905, Control_c, 0, 64, 96
1, 936920, Control_c, 0, 64, 88
1, 936935, Control_c, 0, 64, 81
1, 936956, Control_c, 0, 64, 75
1, 936971, Control_c, 0, 64, 70
1, 936986, Control_c, 0, 64, 64
1, 937001, Control_c, 0, 64, 60
1, 937016, Control_c, 0, 64, 58
1, 937031, Control_c, 0, 64, 56
1, 937045, Control_c, 0, 64, 55
1, 937060, Control_c, 0, 64, 54
1, 937075, Control_c, 0, 64, 52
1, 937090, Control_c, 0, 64, 50
1, 937105, Control_c, 0, 64, 49
1, 937120, Control_c, 0, 64, 48
1, 937135, Control_c, 0, 64, 46
1, 937150, Control_c, 0, 64, 45
1, 937164, Control_c, 0, 64, 42
1, 937179, Control_c, 0, 64, 40
1, 937194, Control_c, 0, 64, 39
1, 937208, Control_c, 0, 64, 38
1, 937223, Control_c, 0, 64, 35
1, 937238, Control_c, 0, 64, 0
1, 937282, Control_c, 0, 67, 21
1, 937297, Control_c, 0, 67, 24
1, 937312, Control_c, 0, 67, 27
1, 937327, Control_c, 0, 67, 31
1, 937342, Control_c, 0, 67, 37
1, 937356, Control_c, 0, 67, 45
1, 937371, Control_c, 0, 67, 54
1, 937386, Control_c, 0, 67, 64
1, 937401, Control_c, 0, 67, 74
1, 937415, Control_c, 0, 67, 83
1, 937432, Control_c, 0, 67, 94
1, 937447, Control_c, 0, 67, 104
1, 937461, Control_c, 0, 67, 112
1, 937476, Control_c, 0, 67, 120
1, 937491, Control_c, 0, 67, 127
1, 937496, Note_on_c, 0, 66, 49
1, 937502, Note_on_c, 0, 50, 42
1, 937517, Note_on_c, 0, 57, 38
1, 937535, Note_on_c, 0, 62, 30
1, 937561, Note_off_c, 0, 50, 57
1, 937917, Note_on_c, 0, 74, 63
1, 937951, Note_off_c, 0, 74, 65
1, 938047, Control_c, 0, 64, 38
1, 938062, Control_c, 0, 64, 59
1, 938077, Control_c, 0, 64, 68
1, 938092, Control_c, 0, 64, 73
1, 938106, Control_c, 0, 64, 81
1, 938121, Control_c, 0, 64, 89
1, 938136, Control_c, 0, 64, 100
1, 938151, Control_c, 0, 64, 112
1, 938166, Control_c, 0, 64, 127
1, 938211, Note_off_c, 0, 57, 42
1, 938273, Note_off_c, 0, 62, 32
1, 938582, Note_on_c, 0, 50, 40
1, 938599, Note_on_c, 0, 67, 45
1, 938610, Note_on_c, 0, 59, 34
1, 938610, Note_on_c, 0, 62, 38
1, 938619, Control_c, 0, 64, 108
1, 938625, Note_off_c, 0, 66, 29
1, 938634, Control_c, 0, 64, 98
1, 938649, Control_c, 0, 64, 89
1, 938652, Note_off_c, 0, 50, 56
1, 938663, Control_c, 0, 64, 81
1, 938678, Control_c, 0, 64, 73
1, 938693, Control_c, 0, 64, 66
1, 938708, Control_c, 0, 64, 59
1, 938723, Control_c, 0, 64, 49
1, 938737, Control_c, 0, 64, 43
1, 938752, Control_c, 0, 64, 42
1, 938767, Control_c, 0, 64, 41
1, 938781, Control_c, 0, 64, 39
1, 938796, Control_c, 0, 64, 35
1, 938811, Control_c, 0, 64, 0
1, 938964, Note_on_c, 0, 74, 59
1, 938993, Note_off_c, 0, 74, 65
1, 939064, Control_c, 0, 64, 53
1, 939078, Control_c, 0, 64, 66
1, 939093, Control_c, 0, 64, 71
1, 939108, Control_c, 0, 64, 77
1, 939123, Control_c, 0, 64, 81
1, 939138, Control_c, 0, 64, 87
1, 939153, Control_c, 0, 64, 95
1, 939168, Control_c, 0, 64, 106
1, 939183, Control_c, 0, 64, 127
1, 939222, Note_off_c, 0, 67, 52
1, 939232, Note_off_c, 0, 62, 41
1, 939239, Note_off_c, 0, 59, 41
1, 939561, Note_on_c, 0, 59, 41
1, 939570, Note_on_c, 0, 50, 46
1, 939574, Note_on_c, 0, 67, 35
1, 939579, Note_on_c, 0, 62, 30
1, 939599, Note_off_c, 0, 50, 59
1, 939629, Note_off_c, 0, 59, 54
1, 939732, Note_off_c, 0, 62, 33
1, 939857, Note_off_c, 0, 67, 41
1, 939862, Note_on_c, 0, 66, 55
1, 939874, Note_on_c, 0, 57, 37
1, 939874, Note_on_c, 0, 74, 67
1, 939887, Control_c, 0, 64, 93
1, 939894, Note_on_c, 0, 62, 22
1, 939901, Control_c, 0, 64, 76
1, 939905, Note_off_c, 0, 57, 54
1, 939916, Control_c, 0, 64, 63
1, 939920, Note_off_c, 0, 74, 58
1, 939931, Control_c, 0, 64, 43
1, 939943, Note_off_c, 0, 62, 45
1, 939953, Control_c, 0, 64, 0
1, 940010, Note_on_c, 0, 76, 57
1, 940050, Note_off_c, 0, 76, 63
1, 940128, Note_on_c, 0, 62, 47
1, 940138, Note_on_c, 0, 78, 67
1, 940146, Control_c, 0, 64, 51
1, 940160, Control_c, 0, 64, 63
1, 940164, Note_on_c, 0, 54, 17
1, 940165, Note_off_c, 0, 66, 54
1, 940166, Note_off_c, 0, 62, 62
1, 940175, Control_c, 0, 64, 67
1, 940176, Note_off_c, 0, 78, 58
1, 940190, Control_c, 0, 64, 71
1, 940205, Control_c, 0, 64, 74
1, 940220, Control_c, 0, 64, 79
1, 940234, Control_c, 0, 64, 84
1, 940240, Note_off_c, 0, 54, 57
1, 940249, Control_c, 0, 64, 90
1, 940264, Control_c, 0, 64, 96
1, 940265, Note_on_c, 0, 79, 58
1, 940279, Control_c, 0, 64, 102
1, 940296, Note_off_c, 0, 79, 53
1, 940338, Control_c, 0, 64, 87
1, 940353, Control_c, 0, 64, 71
1, 940368, Control_c, 0, 64, 57
1, 940382, Control_c, 0, 64, 37
1, 940397, Control_c, 0, 64, 49
1, 940411, Note_on_c, 0, 81, 64
1, 940412, Control_c, 0, 64, 61
1, 940426, Note_on_c, 0, 61, 51
1, 940426, Control_c, 0, 64, 68
1, 940428, Note_off_c, 0, 81, 64
1, 940429, Note_on_c, 0, 52, 38
1, 940440, Note_on_c, 0, 57, 37
1, 940441, Control_c, 0, 64, 77
1, 940456, Control_c, 0, 64, 89
1, 940471, Control_c, 0, 64, 100
1, 940486, Control_c, 0, 64, 110
1, 940500, Control_c, 0, 64, 127
1, 940665, Control_c, 0, 64, 104
1, 940680, Control_c, 0, 64, 87
1, 940703, Control_c, 0, 64, 72
1, 940718, Control_c, 0, 64, 59
1, 940727, Note_on_c, 0, 45, 63
1, 940732, Control_c, 0, 64, 0
1, 940762, Note_off_c, 0, 45, 62
1, 940858, Note_on_c, 0, 43, 62
1, 940892, Note_off_c, 0, 43, 63
1, 940980, Note_off_c, 0, 52, 42
1, 940983, Control_c, 0, 64, 35
1, 940995, Note_on_c, 0, 42, 52
1, 940998, Control_c, 0, 64, 55
1, 941013, Control_c, 0, 64, 64
1, 941024, Note_off_c, 0, 57, 44
1, 941028, Control_c, 0, 64, 68
1, 941031, Note_off_c, 0, 61, 61
1, 941043, Note_off_c, 0, 42, 62
1, 941043, Control_c, 0, 64, 71
1, 941058, Control_c, 0, 64, 74
1, 941073, Control_c, 0, 64, 77
1, 941088, Control_c, 0, 64, 80
1, 941102, Control_c, 0, 64, 82
1, 941109, Note_on_c, 0, 40, 49
1, 941117, Control_c, 0, 64, 83
1, 941132, Control_c, 0, 64, 84
1, 941147, Note_off_c, 0, 40, 61
1, 941176, Control_c, 0, 64, 83
1, 941191, Control_c, 0, 64, 77
1, 941206, Control_c, 0, 64, 67
1, 941221, Control_c, 0, 64, 50
1, 941236, Control_c, 0, 64, 0
1, 941284, Note_on_c, 0, 38, 53
1, 941299, Note_on_c, 0, 66, 48
1, 941308, Note_on_c, 0, 57, 41
1, 941310, Control_c, 0, 64, 53
1, 941324, Control_c, 0, 64, 65
1, 941326, Note_on_c, 0, 62, 26
1, 941327, Note_off_c, 0, 38, 66
1, 941339, Control_c, 0, 64, 69
1, 941354, Control_c, 0, 64, 74
1, 941369, Control_c, 0, 64, 77
1, 941383, Control_c, 0, 64, 80
1, 941398, Control_c, 0, 64, 82
1, 941412, Control_c, 0, 64, 85
1, 941428, Control_c, 0, 64, 88
1, 941451, Control_c, 0, 64, 89
1, 941466, Control_c, 0, 64, 90
1, 941540, Control_c, 0, 64, 88
1, 941554, Control_c, 0, 64, 85
1, 941569, Control_c, 0, 64, 78
1, 941584, Control_c, 0, 64, 71
1, 941598, Control_c, 0, 64, 64
1, 941613, Control_c, 0, 64, 51
1, 941628, Control_c, 0, 64, 0
1, 941633, Note_on_c, 0, 74, 60
1, 941676, Note_off_c, 0, 74, 61
1, 941761, Control_c, 0, 64, 37
1, 941776, Control_c, 0, 64, 56
1, 941791, Control_c, 0, 64, 65
1, 941806, Control_c, 0, 64, 70
1, 941821, Control_c, 0, 64, 74
1, 941823, Note_off_c, 0, 57, 60
1, 941836, Control_c, 0, 64, 78
1, 941851, Control_c, 0, 64, 82
1, 941866, Control_c, 0, 64, 87
1, 941874, Note_off_c, 0, 62, 44
1, 941880, Control_c, 0, 64, 93
1, 941895, Control_c, 0, 64, 98
1, 941910, Control_c, 0, 64, 102
1, 941925, Control_c, 0, 64, 106
1, 941940, Control_c, 0, 64, 108
1, 942191, Note_on_c, 0, 67, 39
1, 942204, Note_on_c, 0, 58, 35
1, 942211, Note_on_c, 0, 50, 38
1, 942212, Control_c, 0, 64, 105
1, 942225, Note_on_c, 0, 62, 29
1, 942225, Note_off_c, 0, 66, 24
1, 942228, Control_c, 0, 64, 99
1, 942243, Control_c, 0, 64, 89
1, 942255, Note_off_c, 0, 50, 52
1, 942258, Control_c, 0, 64, 79
1, 942273, Control_c, 0, 64, 69
1, 942288, Control_c, 0, 64, 62
1, 942302, Control_c, 0, 64, 52
1, 942311, Note_off_c, 0, 62, 0
1, 942317, Control_c, 0, 64, 44
1, 942332, Control_c, 0, 64, 38
1, 942347, Control_c, 0, 64, 34
1, 942348, Poly_aftertouch_c, 0, 62, 127
1, 942362, Control_c, 0, 64, 0
1, 942547, Note_on_c, 0, 74, 59
1, 942584, Note_off_c, 0, 74, 65
1, 942643, Control_c, 0, 64, 40
1, 942658, Control_c, 0, 64, 53
1, 942673, Control_c, 0, 64, 63
1, 942688, Control_c, 0, 64, 69
1, 942702, Control_c, 0, 64, 75
1, 942717, Control_c, 0, 64, 83
1, 942732, Control_c, 0, 64, 92
1, 942746, Control_c, 0, 64, 104
1, 942761, Control_c, 0, 64, 127
1, 942779, Note_off_c, 0, 58, 43
1, 942792, Poly_aftertouch_c, 0, 62, 0
1, 943051, Control_c, 0, 64, 91
1, 943066, Control_c, 0, 64, 71
1, 943078, Note_on_c, 0, 45, 56
1, 943081, Control_c, 0, 64, 61
1, 943088, Note_off_c, 0, 67, 43
1, 943096, Control_c, 0, 64, 57
1, 943097, Note_on_c, 0, 66, 41
1, 943104, Note_on_c, 0, 57, 18
1, 943108, Note_off_c, 0, 45, 64
1, 943111, Control_c, 0, 64, 61
1, 943112, Note_on_c, 0, 62, 13
1, 943125, Control_c, 0, 64, 65
1, 943140, Control_c, 0, 64, 72
1, 943155, Control_c, 0, 64, 81
1, 943164, Note_off_c, 0, 66, 54
1, 943170, Control_c, 0, 64, 93
1, 943184, Control_c, 0, 64, 102
1, 943199, Note_off_c, 0, 57, 35
1, 943199, Control_c, 0, 64, 112
1, 943214, Control_c, 0, 64, 127
1, 943383, Note_on_c, 0, 81, 61
1, 943391, Note_on_c, 0, 69, 45
1, 943404, Note_on_c, 0, 57, 25
1, 943407, Control_c, 0, 67, 125
1, 943413, Note_on_c, 0, 66, 35
1, 943422, Control_c, 0, 67, 101
1, 943425, Note_off_c, 0, 81, 52
1, 943436, Control_c, 0, 67, 69
1, 943451, Control_c, 0, 67, 41
1, 943466, Control_c, 0, 67, 0
1, 943507, Note_on_c, 0, 81, 76
1, 943510, Note_off_c, 0, 69, 39
1, 943540, Control_c, 0, 64, 99
1, 943546, Note_off_c, 0, 57, 27
1, 943555, Control_c, 0, 64, 73
1, 943561, Note_off_c, 0, 81, 61
1, 943568, Note_off_c, 0, 66, 41
1, 943569, Control_c, 0, 64, 56
1, 943584, Control_c, 0, 64, 0
1, 943599, Note_off_c, 0, 62, 40
1, 943626, Note_on_c, 0, 67, 55
1, 943629, Control_c, 0, 64, 40
1, 943635, Note_on_c, 0, 64, 44
1, 943636, Note_on_c, 0, 83, 74
1, 943643, Control_c, 0, 64, 58
1, 943657, Note_on_c, 0, 57, 25
1, 943659, Control_c, 0, 64, 69
1, 943674, Control_c, 0, 64, 76
1, 943696, Control_c, 0, 64, 84
1, 943705, Note_off_c, 0, 83, 62
1, 943711, Control_c, 0, 64, 89
1, 943726, Control_c, 0, 64, 92
1, 943741, Control_c, 0, 64, 97
1, 943751, Note_off_c, 0, 64, 52
1, 943755, Control_c, 0, 64, 101
1, 943756, Note_on_c, 0, 85, 77
1, 943770, Control_c, 0, 64, 105
1, 943775, Note_off_c, 0, 57, 33
1, 943815, Control_c, 0, 64, 101
1, 943824, Note_off_c, 0, 85, 61
1, 943830, Control_c, 0, 64, 85
1, 943845, Control_c, 0, 64, 69
1, 943860, Control_c, 0, 64, 52
1, 943875, Control_c, 0, 64, 43
1, 943890, Control_c, 0, 64, 52
1, 943904, Control_c, 0, 64, 61
1, 943910, Note_on_c, 0, 86, 73
1, 943919, Control_c, 0, 64, 67
1, 943932, Note_off_c, 0, 86, 69
1, 943934, Control_c, 0, 64, 76
1, 943936, Note_on_c, 0, 66, 55
1, 943941, Note_off_c, 0, 67, 35
1, 943943, Note_on_c, 0, 57, 30
1, 943949, Control_c, 0, 64, 89
1, 943959, Note_on_c, 0, 62, 35
1, 943964, Control_c, 0, 64, 105
1, 943979, Control_c, 0, 64, 127
1, 944215, Control_c, 0, 64, 107
1, 944220, Note_on_c, 0, 45, 66
1, 944230, Control_c, 0, 64, 81
1, 944245, Control_c, 0, 64, 64
1, 944254, Note_off_c, 0, 45, 66
1, 944260, Control_c, 0, 64, 0
1, 944343, Note_on_c, 0, 45, 64
1, 944395, Note_off_c, 0, 45, 59
1, 944483, Note_on_c, 0, 47, 69
1, 944529, Note_off_c, 0, 47, 61
1, 944596, Note_on_c, 0, 49, 67
1, 944643, Note_off_c, 0, 49, 59
1, 944648, Note_off_c, 0, 62, 40
1, 944677, Note_off_c, 0, 66, 58
1, 944691, Note_off_c, 0, 57, 43
1, 944766, Note_on_c, 0, 50, 63
1, 944790, Note_on_c, 0, 66, 52
1, 944802, Control_c, 0, 64, 53
1, 944802, Control_c, 0, 67, 19
1, 944804, Note_on_c, 0, 62, 23
1, 944816, Note_on_c, 0, 57, 28
1, 944817, Control_c, 0, 64, 65
1, 944817, Control_c, 0, 67, 26
1, 944827, Note_off_c, 0, 50, 59
1, 944831, Control_c, 0, 64, 70
1, 944831, Control_c, 0, 67, 33
1, 944846, Control_c, 0, 64, 75
1, 944846, Control_c, 0, 67, 45
1, 944861, Control_c, 0, 64, 79
1, 944861, Control_c, 0, 67, 68
1, 944876, Control_c, 0, 64, 80
1, 944876, Control_c, 0, 67, 89
1, 944891, Control_c, 0, 67, 110
1, 944905, Control_c, 0, 67, 127
1, 944920, Control_c, 0, 64, 80
1, 944935, Control_c, 0, 64, 78
1, 944949, Control_c, 0, 64, 73
1, 944964, Control_c, 0, 64, 67
1, 944979, Control_c, 0, 64, 63
1, 944994, Control_c, 0, 64, 58
1, 945009, Control_c, 0, 64, 52
1, 945023, Control_c, 0, 64, 45
1, 945038, Control_c, 0, 64, 39
1, 945053, Control_c, 0, 64, 0
1, 945117, Note_on_c, 0, 74, 71
1, 945176, Note_off_c, 0, 74, 61
1, 945268, Control_c, 0, 64, 46
1, 945283, Control_c, 0, 64, 59
1, 945297, Control_c, 0, 64, 65
1, 945312, Control_c, 0, 64, 70
1, 945327, Control_c, 0, 64, 76
1, 945341, Control_c, 0, 64, 82
1, 945356, Control_c, 0, 64, 91
1, 945371, Control_c, 0, 64, 99
1, 945386, Control_c, 0, 64, 108
1, 945393, Note_off_c, 0, 57, 41
1, 945401, Control_c, 0, 64, 120
1, 945405, Note_off_c, 0, 62, 41
1, 945417, Control_c, 0, 64, 127
1, 945705, Note_on_c, 0, 50, 44
1, 945720, Note_on_c, 0, 67, 41
1, 945726, Note_on_c, 0, 59, 34
1, 945738, Note_on_c, 0, 62, 31
1, 945758, Control_c, 0, 64, 113
1, 945772, Control_c, 0, 64, 101
1, 945786, Note_off_c, 0, 50, 57
1, 945787, Control_c, 0, 64, 93
1, 945802, Control_c, 0, 64, 84
1, 945805, Note_off_c, 0, 66, 38
1, 945817, Control_c, 0, 64, 76
1, 945832, Control_c, 0, 64, 69
1, 945846, Control_c, 0, 64, 60
1, 945861, Control_c, 0, 64, 48
1, 945876, Control_c, 0, 64, 36
1, 945891, Control_c, 0, 64, 0
1, 946062, Note_on_c, 0, 74, 63
1, 946112, Note_off_c, 0, 74, 60
1, 946150, Control_c, 0, 64, 43
1, 946164, Control_c, 0, 64, 55
1, 946179, Control_c, 0, 64, 63
1, 946194, Control_c, 0, 64, 68
1, 946209, Control_c, 0, 64, 72
1, 946225, Control_c, 0, 64, 78
1, 946240, Control_c, 0, 64, 84
1, 946255, Control_c, 0, 64, 92
1, 946269, Control_c, 0, 64, 100
1, 946284, Control_c, 0, 64, 109
1, 946288, Note_off_c, 0, 59, 36
1, 946291, Note_off_c, 0, 67, 52
1, 946292, Note_off_c, 0, 62, 41
1, 946299, Control_c, 0, 64, 127
1, 946590, Note_on_c, 0, 50, 49
1, 946592, Note_on_c, 0, 67, 45
1, 946614, Note_on_c, 0, 59, 34
1, 946623, Note_on_c, 0, 62, 33
1, 946626, Note_off_c, 0, 50, 63
1, 946680, Note_off_c, 0, 59, 56
1, 946784, Note_off_c, 0, 62, 32
1, 946863, Note_off_c, 0, 67, 51
1, 946869, Control_c, 0, 64, 101
1, 946870, Note_on_c, 0, 74, 66
1, 946878, Note_on_c, 0, 66, 59
1, 946884, Control_c, 0, 64, 79
1, 946888, Note_on_c, 0, 57, 49
1, 946899, Control_c, 0, 64, 63
1, 946901, Note_on_c, 0, 62, 25
1, 946914, Note_off_c, 0, 74, 55
1, 946914, Control_c, 0, 64, 35
1, 946928, Control_c, 0, 64, 0
1, 946945, Note_off_c, 0, 57, 60
1, 946958, Control_c, 0, 64, 50
1, 946958, Control_c, 0, 67, 119
1, 946972, Note_off_c, 0, 62, 57
1, 946973, Control_c, 0, 64, 61
1, 946973, Control_c, 0, 67, 97
1, 946988, Control_c, 0, 64, 66
1, 946988, Control_c, 0, 67, 77
1, 946992, Note_on_c, 0, 76, 83
1, 947002, Control_c, 0, 64, 70
1, 947002, Control_c, 0, 67, 60
1, 947018, Control_c, 0, 64, 71
1, 947018, Control_c, 0, 67, 44
1, 947033, Control_c, 0, 67, 32
1, 947048, Control_c, 0, 64, 69
1, 947048, Control_c, 0, 67, 23
1, 947063, Control_c, 0, 64, 63
1, 947063, Control_c, 0, 67, 0
1, 947064, Note_off_c, 0, 76, 61
1, 947078, Control_c, 0, 64, 51
1, 947092, Control_c, 0, 64, 0
1, 947122, Note_on_c, 0, 62, 59
1, 947131, Note_on_c, 0, 78, 73
1, 947151, Note_on_c, 0, 54, 47
1, 947166, Control_c, 0, 64, 36
1, 947167, Note_off_c, 0, 66, 56
1, 947181, Control_c, 0, 64, 57
1, 947191, Note_off_c, 0, 78, 62
1, 947192, Note_off_c, 0, 62, 63
1, 947196, Control_c, 0, 64, 67
1, 947210, Control_c, 0, 64, 72
1, 947225, Control_c, 0, 64, 75
1, 947240, Control_c, 0, 64, 77
1, 947246, Note_on_c, 0, 79, 78
1, 947249, Note_off_c, 0, 54, 63
1, 947255, Control_c, 0, 64, 81
1, 947270, Control_c, 0, 64, 85
1, 947285, Control_c, 0, 64, 90
1, 947300, Control_c, 0, 64, 92
1, 947305, Note_off_c, 0, 79, 61
1, 947315, Control_c, 0, 64, 93
1, 947330, Control_c, 0, 64, 92
1, 947344, Control_c, 0, 64, 81
1, 947359, Control_c, 0, 64, 68
1, 947374, Control_c, 0, 64, 54
1, 947389, Control_c, 0, 64, 38
1, 947395, Note_on_c, 0, 81, 71
1, 947404, Control_c, 0, 64, 49
1, 947410, Note_off_c, 0, 81, 66
1, 947418, Control_c, 0, 64, 60
1, 947419, Note_on_c, 0, 61, 54
1, 947424, Note_on_c, 0, 52, 43
1, 947440, Control_c, 0, 64, 70
1, 947452, Note_on_c, 0, 57, 27
1, 947455, Control_c, 0, 64, 79
1, 947470, Control_c, 0, 64, 91
1, 947485, Control_c, 0, 64, 100
1, 947499, Control_c, 0, 64, 108
1, 947514, Control_c, 0, 64, 117
1, 947529, Control_c, 0, 64, 127
1, 947648, Control_c, 0, 64, 99
1, 947663, Control_c, 0, 64, 81
1, 947677, Control_c, 0, 64, 66
1, 947692, Control_c, 0, 64, 44
1, 947707, Control_c, 0, 64, 0
1, 947714, Note_on_c, 0, 45, 49
1, 947745, Note_off_c, 0, 45, 62
1, 947829, Note_on_c, 0, 43, 55
1, 947864, Note_off_c, 0, 43, 65
1, 947920, Note_off_c, 0, 52, 40
1, 947945, Control_c, 0, 64, 57
1, 947955, Note_on_c, 0, 42, 51
1, 947959, Control_c, 0, 64, 64
1, 947974, Control_c, 0, 64, 67
1, 947977, Note_off_c, 0, 57, 44
1, 947985, Note_off_c, 0, 61, 61
1, 947989, Control_c, 0, 64, 69
1, 947994, Note_off_c, 0, 42, 63
1, 948004, Control_c, 0, 64, 71
1, 948019, Control_c, 0, 64, 72
1, 948033, Control_c, 0, 64, 73
1, 948048, Control_c, 0, 64, 75
1, 948063, Control_c, 0, 64, 76
1, 948069, Note_on_c, 0, 40, 48
1, 948078, Control_c, 0, 64, 77
1, 948109, Note_off_c, 0, 40, 60
1, 948152, Control_c, 0, 64, 73
1, 948167, Control_c, 0, 64, 66
1, 948189, Control_c, 0, 64, 52
1, 948204, Control_c, 0, 64, 0
1, 948259, Note_on_c, 0, 38, 44
1, 948271, Note_on_c, 0, 66, 50
1, 948278, Control_c, 0, 64, 53
1, 948284, Note_on_c, 0, 57, 34
1, 948291, Note_on_c, 0, 62, 32
1, 948292, Control_c, 0, 64, 64
1, 948307, Control_c, 0, 64, 68
1, 948322, Control_c, 0, 64, 72
1, 948337, Note_off_c, 0, 38, 62
1, 948337, Control_c, 0, 64, 74
1, 948352, Control_c, 0, 64, 75
1, 948367, Control_c, 0, 64, 76
1, 948382, Control_c, 0, 64, 76
1, 948441, Control_c, 0, 64, 75
1, 948456, Control_c, 0, 64, 71
1, 948471, Control_c, 0, 64, 66
1, 948485, Control_c, 0, 64, 61
1, 948500, Control_c, 0, 64, 53
1, 948515, Control_c, 0, 64, 46
1, 948530, Control_c, 0, 64, 41
1, 948545, Control_c, 0, 64, 35
1, 948560, Control_c, 0, 64, 0
1, 948604, Note_on_c, 0, 74, 69
1, 948659, Note_off_c, 0, 74, 61
1, 948694, Control_c, 0, 67, 22
1, 948709, Control_c, 0, 67, 27
1, 948723, Control_c, 0, 67, 37
1, 948738, Control_c, 0, 64, 35
1, 948738, Control_c, 0, 67, 58
1, 948753, Control_c, 0, 64, 56
1, 948753, Control_c, 0, 67, 80
1, 948768, Control_c, 0, 64, 65
1, 948768, Control_c, 0, 67, 102
1, 948783, Control_c, 0, 64, 71
1, 948783, Control_c, 0, 67, 121
1, 948797, Control_c, 0, 64, 77
1, 948797, Control_c, 0, 67, 127
1, 948800, Note_off_c, 0, 57, 47
1, 948812, Control_c, 0, 64, 81
1, 948827, Control_c, 0, 64, 85
1, 948842, Control_c, 0, 64, 90
1, 948856, Note_off_c, 0, 62, 40
1, 948856, Control_c, 0, 64, 93
1, 948871, Control_c, 0, 64, 97
1, 948886, Control_c, 0, 64, 100
1, 948902, Control_c, 0, 64, 103
1, 948916, Control_c, 0, 64, 105
1, 949178, Note_on_c, 0, 50, 48
1, 949180, Note_on_c, 0, 67, 44
1, 949184, Note_on_c, 0, 58, 39
1, 949198, Note_on_c, 0, 62, 43
1, 949208, Note_off_c, 0, 66, 28
1, 949235, Control_c, 0, 64, 102
1, 949250, Control_c, 0, 64, 97
1, 949255, Note_off_c, 0, 50, 61
1, 949264, Control_c, 0, 64, 89
1, 949279, Control_c, 0, 64, 81
1, 949294, Control_c, 0, 64, 73
1, 949309, Control_c, 0, 64, 66
1, 949324, Control_c, 0, 64, 59
1, 949339, Control_c, 0, 64, 48
1, 949354, Control_c, 0, 64, 40
1, 949368, Control_c, 0, 64, 0
1, 949529, Note_on_c, 0, 74, 60
1, 949582, Note_off_c, 0, 74, 60
1, 949651, Control_c, 0, 64, 40
1, 949666, Control_c, 0, 64, 53
1, 949681, Control_c, 0, 64, 62
1, 949702, Control_c, 0, 64, 67
1, 949717, Control_c, 0, 64, 72
1, 949732, Control_c, 0, 64, 77
1, 949738, Note_off_c, 0, 62, 49
1, 949747, Control_c, 0, 64, 83
1, 949754, Note_off_c, 0, 58, 49
1, 949762, Control_c, 0, 64, 88
1, 949777, Control_c, 0, 64, 94
1, 949792, Control_c, 0, 64, 101
1, 949807, Control_c, 0, 64, 110
1, 949821, Control_c, 0, 64, 127
1, 950028, Control_c, 0, 64, 95
1, 950043, Control_c, 0, 64, 74
1, 950057, Control_c, 0, 64, 63
1, 950072, Control_c, 0, 64, 55
1, 950076, Note_on_c, 0, 45, 55
1, 950084, Note_off_c, 0, 67, 46
1, 950087, Control_c, 0, 64, 57
1, 950099, Note_on_c, 0, 66, 41
1, 950102, Control_c, 0, 64, 61
1, 950107, Note_off_c, 0, 45, 63
1, 950110, Note_on_c, 0, 57, 22
1, 950117, Control_c, 0, 64, 67
1, 950131, Poly_aftertouch_c, 0, 62, 127
1, 950132, Control_c, 0, 64, 74
1, 950146, Control_c, 0, 64, 82
1, 950154, Note_off_c, 0, 66, 58
1, 950161, Control_c, 0, 64, 89
1, 950176, Control_c, 0, 64, 96
1, 950191, Note_off_c, 0, 57, 37
1, 950191, Control_c, 0, 64, 102
1, 950207, Control_c, 0, 64, 108
1, 950222, Control_c, 0, 64, 113
1, 950236, Control_c, 0, 64, 122
1, 950251, Control_c, 0, 64, 127
1, 950367, Note_on_c, 0, 81, 67
1, 950380, Note_on_c, 0, 69, 45
1, 950394, Note_on_c, 0, 57, 24
1, 950397, Note_on_c, 0, 66, 38
1, 950399, Control_c, 0, 67, 94
1, 950412, Note_off_c, 0, 81, 56
1, 950414, Control_c, 0, 67, 57
1, 950436, Control_c, 0, 67, 21
1, 950451, Control_c, 0, 67, 0
1, 950498, Note_off_c, 0, 69, 42
1, 950499, Note_on_c, 0, 81, 80
1, 950510, Control_c, 0, 64, 115
1, 950525, Control_c, 0, 64, 93
1, 950540, Control_c, 0, 64, 74
1, 950549, Note_off_c, 0, 57, 43
1, 950551, Note_off_c, 0, 66, 44
1, 950555, Control_c, 0, 64, 60
1, 950558, Note_off_c, 0, 81, 62
1, 950569, Control_c, 0, 64, 0
1, 950579, Poly_aftertouch_c, 0, 62, 0
1, 950609, Note_on_c, 0, 67, 66
1, 950622, Note_on_c, 0, 83, 77
1, 950629, Control_c, 0, 64, 36
1, 950631, Note_on_c, 0, 64, 43
1, 950638, Note_on_c, 0, 57, 30
1, 950643, Control_c, 0, 64, 58
1, 950658, Control_c, 0, 64, 68
1, 950673, Control_c, 0, 64, 74
1, 950681, Note_off_c, 0, 83, 61
1, 950687, Control_c, 0, 64, 81
1, 950702, Control_c, 0, 64, 83
1, 950704, Note_off_c, 0, 64, 54
1, 950717, Control_c, 0, 64, 84
1, 950720, Note_off_c, 0, 57, 34
1, 950724, Note_on_c, 0, 85, 79
1, 950732, Control_c, 0, 64, 85
1, 950761, Control_c, 0, 64, 84
1, 950776, Control_c, 0, 64, 77
1, 950786, Note_off_c, 0, 85, 62
1, 950791, Control_c, 0, 64, 66
1, 950806, Control_c, 0, 64, 52
1, 950821, Control_c, 0, 64, 0
1, 950850, Control_c, 0, 64, 46
1, 950865, Control_c, 0, 64, 61
1, 950873, Note_on_c, 0, 86, 60
1, 950880, Control_c, 0, 64, 71
1, 950891, Note_off_c, 0, 86, 62
1, 950895, Control_c, 0, 64, 83
1, 950895, Note_on_c, 0, 66, 61
1, 950910, Control_c, 0, 64, 105
1, 950916, Note_on_c, 0, 57, 35
1, 950922, Note_on_c, 0, 62, 43
1, 950925, Control_c, 0, 64, 127
1, 950957, Note_off_c, 0, 67, 35
1, 951200, Control_c, 0, 64, 92
1, 951203, Note_on_c, 0, 45, 67
1, 951215, Control_c, 0, 64, 70
1, 951230, Control_c, 0, 64, 49
1, 951240, Note_off_c, 0, 45, 63
1, 951245, Control_c, 0, 64, 0
1, 951317, Note_on_c, 0, 49, 63
1, 951355, Note_off_c, 0, 49, 63
1, 951437, Control_c, 0, 64, 42
1, 951452, Control_c, 0, 64, 62
1, 951457, Note_on_c, 0, 50, 69
1, 951467, Control_c, 0, 64, 70
1, 951469, Note_off_c, 0, 66, 59
1, 951479, Note_off_c, 0, 50, 65
1, 951479, Note_off_c, 0, 62, 48
1, 951482, Control_c, 0, 64, 78
1, 951497, Control_c, 0, 64, 89
1, 951498, Note_off_c, 0, 57, 41
1, 951511, Control_c, 0, 64, 108
1, 951526, Control_c, 0, 64, 127
1, 951738, Note_on_c, 0, 69, 101
1, 951756, Note_on_c, 0, 57, 89
1, 951756, Note_on_c, 0, 64, 83
1, 951763, Note_on_c, 0, 61, 77
1, 951768, Note_off_c, 0, 69, 70
1, 951823, Control_c, 0, 64, 112
1, 951838, Control_c, 0, 64, 75
1, 951853, Control_c, 0, 64, 57
1, 951868, Control_c, 0, 64, 0
1, 952038, Note_on_c, 0, 45, 105
1, 952069, Note_off_c, 0, 45, 65
1, 952171, Control_c, 0, 67, 19
1, 952186, Control_c, 0, 67, 24
1, 952201, Control_c, 0, 67, 31
1, 952215, Control_c, 0, 64, 37
1, 952215, Control_c, 0, 67, 45
1, 952230, Control_c, 0, 64, 57
1, 952230, Control_c, 0, 67, 63
1, 952245, Control_c, 0, 64, 66
1, 952245, Control_c, 0, 67, 81
1, 952260, Control_c, 0, 64, 71
1, 952260, Control_c, 0, 67, 98
1, 952275, Control_c, 0, 64, 78
1, 952275, Control_c, 0, 67, 112
1, 952290, Control_c, 0, 64, 85
1, 952290, Control_c, 0, 67, 127
1, 952305, Control_c, 0, 64, 92
1, 952320, Control_c, 0, 64, 102
1, 952334, Control_c, 0, 64, 127
1, 952353, Note_off_c, 0, 57, 50
1, 952445, Note_off_c, 0, 61, 27
1, 952495, Note_off_c, 0, 64, 36
1, 952608, Note_on_c, 0, 69, 87
1, 952631, Note_on_c, 0, 65, 70
1, 952637, Note_off_c, 0, 69, 63
1, 952644, Note_on_c, 0, 62, 56
1, 952646, Note_on_c, 0, 57, 48
1, 952683, Control_c, 0, 64, 96
1, 952698, Control_c, 0, 64, 77
1, 952713, Control_c, 0, 64, 63
1, 952728, Control_c, 0, 64, 39
1, 952743, Control_c, 0, 64, 0
1, 952915, Note_on_c, 0, 45, 66
1, 952946, Note_off_c, 0, 45, 65
1, 953068, Control_c, 0, 64, 41
1, 953083, Control_c, 0, 64, 59
1, 953098, Control_c, 0, 64, 67
1, 953112, Control_c, 0, 64, 73
1, 953127, Control_c, 0, 64, 81
1, 953142, Control_c, 0, 64, 87
1, 953157, Control_c, 0, 64, 91
1, 953166, Note_off_c, 0, 62, 56
1, 953172, Control_c, 0, 64, 94
1, 953176, Note_off_c, 0, 57, 50
1, 953187, Note_off_c, 0, 65, 59
1, 953187, Control_c, 0, 64, 96
1, 953201, Control_c, 0, 64, 98
1, 953231, Control_c, 0, 64, 103
1, 953246, Control_c, 0, 64, 107
1, 953261, Control_c, 0, 64, 111
1, 953276, Control_c, 0, 64, 114
1, 953290, Control_c, 0, 64, 120
1, 953305, Control_c, 0, 64, 127
1, 953350, Control_c, 0, 64, 115
1, 953364, Control_c, 0, 64, 93
1, 953379, Control_c, 0, 64, 76
1, 953394, Control_c, 0, 64, 64
1, 953408, Note_on_c, 0, 69, 53
1, 953410, Control_c, 0, 64, 57
1, 953425, Control_c, 0, 64, 61
1, 953438, Note_off_c, 0, 69, 62
1, 953440, Note_on_c, 0, 65, 47
1, 953446, Control_c, 0, 64, 65
1, 953451, Note_on_c, 0, 57, 23
1, 953458, Note_on_c, 0, 62, 12
1, 953461, Control_c, 0, 64, 71
1, 953476, Control_c, 0, 64, 78
1, 953491, Control_c, 0, 64, 85
1, 953506, Control_c, 0, 64, 90
1, 953521, Control_c, 0, 64, 93
1, 953536, Control_c, 0, 64, 94
1, 953551, Control_c, 0, 64, 95
1, 953562, Note_off_c, 0, 57, 34
1, 953566, Control_c, 0, 64, 95
1, 953595, Control_c, 0, 64, 96
1, 953625, Control_c, 0, 64, 95
1, 953629, Note_off_c, 0, 62, 37
1, 953639, Control_c, 0, 64, 90
1, 953654, Control_c, 0, 64, 77
1, 953669, Control_c, 0, 64, 64
1, 953684, Control_c, 0, 64, 49
1, 953695, Note_on_c, 0, 76, 43
1, 953699, Control_c, 0, 64, 44
1, 953700, Note_on_c, 0, 64, 39
1, 953713, Control_c, 0, 64, 53
1, 953715, Note_on_c, 0, 57, 21
1, 953724, Note_off_c, 0, 65, 34
1, 953724, Note_off_c, 0, 76, 56
1, 953727, Note_on_c, 0, 61, 14
1, 953728, Control_c, 0, 64, 62
1, 953743, Control_c, 0, 64, 69
1, 953758, Control_c, 0, 64, 76
1, 953773, Control_c, 0, 64, 85
1, 953787, Control_c, 0, 64, 93
1, 953788, Note_off_c, 0, 61, 41
1, 953802, Control_c, 0, 64, 99
1, 953804, Note_on_c, 0, 77, 69
1, 953817, Control_c, 0, 64, 105
1, 953831, Control_c, 0, 64, 109
1, 953853, Note_off_c, 0, 64, 54
1, 953855, Note_off_c, 0, 57, 27
1, 953861, Control_c, 0, 64, 100
1, 953868, Note_off_c, 0, 77, 60
1, 953876, Control_c, 0, 64, 83
1, 953891, Control_c, 0, 64, 69
1, 953905, Control_c, 0, 64, 60
1, 953918, Note_on_c, 0, 65, 61
1, 953919, Note_on_c, 0, 79, 79
1, 953920, Control_c, 0, 64, 61
1, 953922, Note_on_c, 0, 57, 33
1, 953935, Control_c, 0, 64, 65
1, 953941, Note_on_c, 0, 62, 28
1, 953950, Control_c, 0, 64, 71
1, 953958, Note_off_c, 0, 65, 65
1, 953965, Control_c, 0, 64, 79
1, 953967, Note_off_c, 0, 57, 47
1, 953978, Note_off_c, 0, 62, 40
1, 953980, Control_c, 0, 64, 88
1, 953983, Note_off_c, 0, 79, 62
1, 953995, Control_c, 0, 64, 95
1, 954010, Control_c, 0, 64, 104
1, 954024, Control_c, 0, 64, 122
1, 954028, Note_on_c, 0, 80, 86
1, 954039, Control_c, 0, 64, 127
1, 954113, Control_c, 0, 64, 113
1, 954114, Note_off_c, 0, 80, 62
1, 954128, Control_c, 0, 64, 78
1, 954143, Control_c, 0, 64, 61
1, 954158, Control_c, 0, 64, 45
1, 954165, Note_on_c, 0, 81, 81
1, 954171, Note_on_c, 0, 67, 56
1, 954173, Control_c, 0, 64, 50
1, 954184, Note_on_c, 0, 57, 48
1, 954192, Note_off_c, 0, 81, 71
1, 954195, Control_c, 0, 64, 60
1, 954210, Control_c, 0, 64, 67
1, 954225, Control_c, 0, 64, 80
1, 954237, Poly_aftertouch_c, 0, 64, 127
1, 954240, Control_c, 0, 64, 99
1, 954255, Control_c, 0, 64, 127
1, 954437, Note_on_c, 0, 45, 59
1, 954448, Control_c, 0, 64, 96
1, 954462, Control_c, 0, 64, 76
1, 954476, Note_off_c, 0, 45, 62
1, 954477, Control_c, 0, 64, 61
1, 954492, Control_c, 0, 64, 0
1, 954551, Note_on_c, 0, 46, 42
1, 954590, Note_off_c, 0, 46, 61
1, 954610, Control_c, 0, 64, 48
1, 954625, Control_c, 0, 64, 65
1, 954629, Note_off_c, 0, 67, 60
1, 954633, Poly_aftertouch_c, 0, 64, 0
1, 954640, Control_c, 0, 64, 72
1, 954648, Note_on_c, 0, 45, 69
1, 954654, Control_c, 0, 64, 80
1, 954657, Note_off_c, 0, 57, 59
1, 954669, Control_c, 0, 64, 88
1, 954670, Note_off_c, 0, 45, 62
1, 954684, Control_c, 0, 64, 98
1, 954699, Control_c, 0, 64, 117
1, 954699, Control_c, 0, 67, 122
1, 954714, Control_c, 0, 64, 127
1, 954714, Control_c, 0, 67, 104
1, 954728, Control_c, 0, 67, 89
1, 954743, Control_c, 0, 67, 80
1, 954758, Control_c, 0, 67, 75
1, 954773, Control_c, 0, 67, 74
1, 954862, Control_c, 0, 67, 72
1, 954877, Control_c, 0, 67, 64
1, 954892, Control_c, 0, 67, 40
1, 954907, Control_c, 0, 67, 0
1, 954907, Note_on_c, 0, 69, 96
1, 954930, Note_on_c, 0, 64, 89
1, 954943, Note_off_c, 0, 69, 69
1, 954944, Note_on_c, 0, 57, 73
1, 954955, Note_on_c, 0, 61, 69
1, 955019, Control_c, 0, 64, 108
1, 955033, Control_c, 0, 64, 99
1, 955048, Control_c, 0, 64, 90
1, 955063, Control_c, 0, 64, 80
1, 955077, Control_c, 0, 64, 71
1, 955092, Control_c, 0, 64, 64
1, 955107, Control_c, 0, 64, 53
1, 955122, Control_c, 0, 64, 0
1, 955132, Poly_aftertouch_c, 0, 49, 127
1, 955159, Poly_aftertouch_c, 0, 49, 0
1, 955177, Note_on_c, 0, 45, 102
1, 955211, Note_off_c, 0, 45, 67
1, 955345, Control_c, 0, 64, 40
1, 955359, Control_c, 0, 64, 54
1, 955374, Control_c, 0, 64, 64
1, 955374, Control_c, 0, 67, 25
1, 955389, Control_c, 0, 64, 71
1, 955389, Control_c, 0, 67, 37
1, 955403, Control_c, 0, 64, 80
1, 955403, Control_c, 0, 67, 56
1, 955418, Control_c, 0, 64, 98
1, 955418, Control_c, 0, 67, 79
1, 955433, Control_c, 0, 64, 127
1, 955433, Control_c, 0, 67, 98
1, 955448, Control_c, 0, 67, 113
1, 955463, Control_c, 0, 67, 127
1, 955545, Note_off_c, 0, 57, 36
1, 955571, Note_off_c, 0, 64, 38
1, 955602, Note_off_c, 0, 61, 24
1, 955787, Note_on_c, 0, 69, 48
1, 955791, Note_on_c, 0, 65, 58
1, 955814, Note_off_c, 0, 69, 61
1, 955822, Note_on_c, 0, 57, 36
1, 955831, Note_on_c, 0, 60, 46
1, 955885, Control_c, 0, 64, 93
1, 955900, Control_c, 0, 64, 78
1, 955915, Control_c, 0, 64, 66
1, 955929, Control_c, 0, 64, 56
1, 955944, Control_c, 0, 64, 46
1, 955959, Control_c, 0, 64, 43
1, 955989, Control_c, 0, 64, 42
1, 956004, Control_c, 0, 64, 37
1, 956019, Control_c, 0, 64, 0
1, 956073, Note_on_c, 0, 45, 67
1, 956108, Note_off_c, 0, 45, 63
1, 956285, Control_c, 0, 64, 35
1, 956299, Control_c, 0, 64, 56
1, 956314, Control_c, 0, 64, 65
1, 956327, Note_on_c, 0, 41, 50
1, 956329, Note_off_c, 0, 57, 62
1, 956329, Control_c, 0, 64, 70
1, 956344, Control_c, 0, 64, 75
1, 956350, Note_off_c, 0, 60, 56
1, 956353, Note_off_c, 0, 65, 64
1, 956359, Control_c, 0, 64, 80
1, 956367, Note_off_c, 0, 41, 59
1, 956374, Control_c, 0, 64, 84
1, 956389, Control_c, 0, 64, 88
1, 956403, Control_c, 0, 64, 93
1, 956425, Control_c, 0, 64, 101
1, 956440, Control_c, 0, 64, 110
1, 956455, Control_c, 0, 64, 127
1, 956573, Control_c, 0, 64, 113
1, 956588, Control_c, 0, 64, 90
1, 956604, Control_c, 0, 64, 74
1, 956619, Control_c, 0, 64, 61
1, 956634, Control_c, 0, 64, 55
1, 956642, Note_on_c, 0, 36, 40
1, 956645, Note_on_c, 0, 65, 53
1, 956648, Note_on_c, 0, 60, 41
1, 956648, Control_c, 0, 64, 59
1, 956655, Note_on_c, 0, 69, 51
1, 956663, Control_c, 0, 64, 64
1, 956678, Control_c, 0, 64, 71
1, 956678, Control_c, 0, 67, 121
1, 956682, Note_off_c, 0, 36, 62
1, 956693, Control_c, 0, 64, 81
1, 956693, Control_c, 0, 67, 102
1, 956708, Control_c, 0, 64, 94
1, 956708, Control_c, 0, 67, 78
1, 956722, Control_c, 0, 64, 127
1, 956722, Control_c, 0, 67, 52
1, 956737, Control_c, 0, 67, 23
1, 956739, Note_off_c, 0, 69, 58
1, 956752, Control_c, 0, 67, 0
1, 956796, Note_off_c, 0, 60, 49
1, 956820, Note_off_c, 0, 65, 56
1, 956880, Note_on_c, 0, 70, 79
1, 956889, Note_on_c, 0, 64, 59
1, 956895, Note_on_c, 0, 60, 61
1, 956907, Note_on_c, 0, 67, 45
1, 956978, Note_off_c, 0, 67, 41
1, 957006, Note_off_c, 0, 70, 54
1, 957080, Note_off_c, 0, 64, 47
1, 957094, Note_off_c, 0, 60, 37
1, 957109, Note_on_c, 0, 72, 98
1, 957129, Note_on_c, 0, 60, 67
1, 957131, Note_on_c, 0, 67, 77
1, 957164, Note_off_c, 0, 67, 62
1, 957166, Note_off_c, 0, 72, 61
1, 957169, Note_off_c, 0, 60, 61
1, 957381, Control_c, 0, 64, 93
1, 957397, Control_c, 0, 64, 70
1, 957412, Control_c, 0, 64, 48
1, 957415, Note_on_c, 0, 77, 76
1, 957425, Note_on_c, 0, 74, 67
1, 957427, Control_c, 0, 64, 35
1, 957429, Note_on_c, 0, 70, 68
1, 957442, Control_c, 0, 64, 46
1, 957445, Note_on_c, 0, 60, 56
1, 957457, Control_c, 0, 64, 55
1, 957471, Control_c, 0, 64, 62
1, 957486, Control_c, 0, 64, 69
1, 957501, Note_off_c, 0, 70, 63
1, 957501, Control_c, 0, 64, 82
1, 957504, Note_off_c, 0, 77, 65
1, 957516, Control_c, 0, 64, 127
1, 957523, Note_off_c, 0, 74, 64
1, 957571, Note_off_c, 0, 60, 56
1, 957673, Note_on_c, 0, 72, 74
1, 957675, Note_on_c, 0, 69, 63
1, 957685, Note_on_c, 0, 60, 62
1, 957852, Note_off_c, 0, 60, 60
1, 957909, Note_on_c, 0, 48, 86
1, 957926, Note_off_c, 0, 69, 59
1, 957981, Note_off_c, 0, 48, 59
1, 958116, Control_c, 0, 64, 83
1, 958130, Control_c, 0, 64, 62
1, 958145, Control_c, 0, 64, 0
1, 958175, Note_on_c, 0, 36, 79
1, 958195, Note_on_c, 0, 65, 74
1, 958201, Note_on_c, 0, 60, 71
1, 958205, Note_on_c, 0, 69, 75
1, 958206, Control_c, 0, 64, 51
1, 958220, Control_c, 0, 64, 65
1, 958225, Note_off_c, 0, 36, 62
1, 958229, Note_off_c, 0, 72, 52
1, 958235, Control_c, 0, 64, 76
1, 958250, Control_c, 0, 64, 93
1, 958265, Control_c, 0, 64, 127
1, 958329, Note_off_c, 0, 60, 48
1, 958352, Note_off_c, 0, 65, 38
1, 958394, Note_off_c, 0, 69, 60
1, 958421, Note_on_c, 0, 70, 86
1, 958426, Note_on_c, 0, 67, 75
1, 958428, Note_on_c, 0, 60, 81
1, 958443, Note_on_c, 0, 64, 61
1, 958513, Note_off_c, 0, 64, 53
1, 958535, Note_off_c, 0, 67, 49
1, 958535, Note_off_c, 0, 70, 62
1, 958585, Note_off_c, 0, 60, 37
1, 958645, Note_on_c, 0, 72, 99
1, 958656, Note_on_c, 0, 60, 80
1, 958660, Note_on_c, 0, 67, 84
1, 958675, Note_on_c, 0, 64, 61
1, 958702, Note_off_c, 0, 64, 67
1, 958708, Note_off_c, 0, 72, 63
1, 958728, Note_off_c, 0, 67, 60
1, 958737, Note_off_c, 0, 60, 56
1, 958910, Control_c, 0, 64, 113
1, 958925, Control_c, 0, 64, 77
1, 958931, Note_on_c, 0, 77, 85
1, 958939, Note_on_c, 0, 74, 80
1, 958940, Control_c, 0, 64, 58
1, 958952, Note_on_c, 0, 70, 75
1, 958954, Control_c, 0, 64, 0
1, 958956, Note_on_c, 0, 60, 72
1, 958984, Control_c, 0, 64, 50
1, 959000, Control_c, 0, 64, 63
1, 959015, Control_c, 0, 64, 78
1, 959030, Control_c, 0, 64, 113
1, 959036, Note_off_c, 0, 70, 63
1, 959044, Note_off_c, 0, 77, 65
1, 959044, Control_c, 0, 64, 127
1, 959058, Note_off_c, 0, 74, 64
1, 959083, Note_off_c, 0, 60, 55
1, 959191, Note_on_c, 0, 72, 83
1, 959194, Note_on_c, 0, 69, 74
1, 959194, Note_on_c, 0, 60, 79
1, 959353, Note_off_c, 0, 60, 60
1, 959369, Control_c, 0, 64, 86
1, 959384, Control_c, 0, 64, 62
1, 959399, Control_c, 0, 64, 0
1, 959430, Note_on_c, 0, 48, 94
1, 959437, Control_c, 0, 64, 35
1, 959450, Note_off_c, 0, 69, 57
1, 959451, Control_c, 0, 64, 59
1, 959466, Control_c, 0, 64, 70
1, 959481, Control_c, 0, 64, 80
1, 959489, Note_off_c, 0, 48, 63
1, 959496, Control_c, 0, 64, 93
1, 959511, Control_c, 0, 64, 104
1, 959525, Control_c, 0, 64, 122
1, 959540, Control_c, 0, 64, 127
1, 959672, Note_off_c, 0, 72, 37
1, 959673, Control_c, 0, 64, 85
1, 959676, Note_on_c, 0, 36, 96
1, 959688, Control_c, 0, 64, 63
1, 959689, Note_on_c, 0, 60, 89
1, 959690, Note_on_c, 0, 69, 83
1, 959691, Note_on_c, 0, 65, 84
1, 959703, Control_c, 0, 64, 0
1, 959715, Note_off_c, 0, 36, 65
1, 959718, Control_c, 0, 64, 33
1, 959733, Control_c, 0, 64, 52
1, 959748, Control_c, 0, 64, 66
1, 959763, Control_c, 0, 64, 82
1, 959777, Control_c, 0, 64, 127
1, 959833, Note_off_c, 0, 60, 58
1, 959838, Note_off_c, 0, 65, 31
1, 959879, Note_off_c, 0, 69, 60
1, 959918, Note_on_c, 0, 70, 87
1, 959921, Note_on_c, 0, 60, 81
1, 959922, Note_on_c, 0, 67, 77
1, 959936, Note_on_c, 0, 64, 66
1, 959995, Note_off_c, 0, 67, 61
1, 960016, Note_off_c, 0, 70, 56
1, 960019, Note_off_c, 0, 64, 54
1, 960112, Note_off_c, 0, 60, 25
1, 960163, Control_c, 0, 64, 110
1, 960185, Note_on_c, 0, 72, 98
1, 960186, Control_c, 0, 64, 71
1, 960195, Note_on_c, 0, 67, 86
1, 960196, Note_on_c, 0, 60, 87
1, 960200, Control_c, 0, 64, 41
1, 960202, Note_on_c, 0, 64, 78
1, 960215, Control_c, 0, 64, 41
1, 960230, Control_c, 0, 64, 58
1, 960245, Control_c, 0, 64, 70
1, 960260, Control_c, 0, 64, 92
1, 960264, Note_off_c, 0, 60, 60
1, 960274, Control_c, 0, 64, 127
1, 960278, Note_off_c, 0, 64, 59
1, 960292, Note_off_c, 0, 67, 62
1, 960465, Note_on_c, 0, 73, 106
1, 960483, Note_on_c, 0, 57, 97
1, 960484, Note_off_c, 0, 72, 60
1, 960484, Note_on_c, 0, 69, 90
1, 960493, Note_on_c, 0, 67, 81
1, 960493, Note_off_c, 0, 73, 68
1, 960498, Note_on_c, 0, 64, 73
1, 960500, Note_off_c, 0, 57, 72
1, 960538, Note_on_c, 0, 62, 17
1, 960580, Note_off_c, 0, 62, 46
1, 960742, Note_on_c, 0, 61, 102
1, 960775, Note_off_c, 0, 61, 60
1, 960809, Control_c, 0, 64, 115
1, 960823, Control_c, 0, 64, 80
1, 960838, Control_c, 0, 64, 61
1, 960853, Control_c, 0, 64, 0
1, 960892, Note_on_c, 0, 57, 25
1, 961019, Note_on_c, 0, 49, 105
1, 961053, Note_off_c, 0, 49, 68
1, 961294, Note_on_c, 0, 37, 97
1, 961320, Note_off_c, 0, 37, 67
1, 961586, Control_c, 0, 64, 39
1, 961601, Control_c, 0, 64, 55
1, 961616, Control_c, 0, 64, 65
1, 961632, Control_c, 0, 64, 73
1, 961646, Control_c, 0, 64, 88
1, 961668, Control_c, 0, 64, 127
1, 961674, Note_on_c, 0, 45, 106
1, 961706, Note_off_c, 0, 45, 64
1, 961787, Control_c, 0, 64, 100
1, 961802, Control_c, 0, 64, 74
1, 961817, Control_c, 0, 64, 60
1, 961832, Control_c, 0, 64, 35
1, 961846, Control_c, 0, 64, 0
1, 962083, Control_c, 0, 64, 40
1, 962097, Control_c, 0, 64, 54
1, 962112, Control_c, 0, 64, 61
1, 962127, Control_c, 0, 64, 66
1, 962142, Control_c, 0, 64, 70
1, 962157, Control_c, 0, 64, 75
1, 962171, Control_c, 0, 64, 84
1, 962187, Control_c, 0, 64, 100
1, 962202, Control_c, 0, 64, 127
1, 962458, Note_off_c, 0, 64, 40
1, 962476, Control_c, 0, 67, 21
1, 962491, Note_off_c, 0, 67, 40
1, 962491, Control_c, 0, 67, 25
1, 962506, Control_c, 0, 67, 29
1, 962520, Control_c, 0, 67, 32
1, 962532, Note_off_c, 0, 57, 39
1, 962535, Control_c, 0, 67, 38
1, 962550, Control_c, 0, 67, 46
1, 962565, Control_c, 0, 67, 58
1, 962580, Control_c, 0, 67, 70
1, 962595, Control_c, 0, 67, 86
1, 962610, Control_c, 0, 67, 100
1, 962625, Control_c, 0, 67, 114
1, 962639, Control_c, 0, 67, 127
1, 963030, Note_off_c, 0, 69, 15
1, 963099, Control_c, 0, 64, 108
1, 963103, Note_on_c, 0, 66, 41
1, 963105, Note_on_c, 0, 50, 38
1, 963114, Control_c, 0, 64, 94
1, 963120, Note_on_c, 0, 57, 29
1, 963129, Control_c, 0, 64, 82
1, 963136, Note_on_c, 0, 62, 24
1, 963143, Control_c, 0, 64, 72
1, 963166, Control_c, 0, 64, 63
1, 963181, Control_c, 0, 64, 50
1, 963188, Note_off_c, 0, 50, 58
1, 963196, Control_c, 0, 64, 35
1, 963211, Control_c, 0, 64, 33
1, 963524, Note_on_c, 0, 72, 49
1, 963566, Note_off_c, 0, 72, 62
1, 963611, Control_c, 0, 64, 33
1, 963625, Control_c, 0, 64, 36
1, 963640, Control_c, 0, 64, 44
1, 963655, Control_c, 0, 64, 53
1, 963669, Control_c, 0, 64, 62
1, 963684, Control_c, 0, 64, 68
1, 963699, Control_c, 0, 64, 74
1, 963714, Control_c, 0, 64, 80
1, 963729, Control_c, 0, 64, 85
1, 963743, Control_c, 0, 64, 92
1, 963758, Control_c, 0, 64, 99
1, 963773, Control_c, 0, 64, 107
1, 963777, Note_off_c, 0, 57, 41
1, 963789, Control_c, 0, 64, 127
1, 963806, Note_off_c, 0, 62, 37
1, 964099, Note_on_c, 0, 50, 36
1, 964107, Note_on_c, 0, 67, 36
1, 964121, Note_on_c, 0, 62, 38
1, 964127, Note_on_c, 0, 59, 26
1, 964160, Note_off_c, 0, 50, 55
1, 964167, Control_c, 0, 64, 109
1, 964182, Control_c, 0, 64, 97
1, 964197, Control_c, 0, 64, 85
1, 964212, Control_c, 0, 64, 76
1, 964227, Control_c, 0, 64, 68
1, 964231, Note_off_c, 0, 66, 38
1, 964241, Control_c, 0, 64, 60
1, 964256, Control_c, 0, 64, 51
1, 964271, Control_c, 0, 64, 46
1, 964285, Control_c, 0, 64, 45
1, 964300, Control_c, 0, 64, 45
1, 964330, Control_c, 0, 64, 44
1, 964345, Control_c, 0, 64, 42
1, 964359, Control_c, 0, 64, 41
1, 964374, Control_c, 0, 64, 40
1, 964389, Control_c, 0, 64, 38
1, 964404, Control_c, 0, 64, 34
1, 964419, Control_c, 0, 64, 0
1, 964425, Note_on_c, 0, 71, 53
1, 964462, Note_off_c, 0, 71, 66
1, 964508, Control_c, 0, 64, 39
1, 964523, Control_c, 0, 64, 51
1, 964538, Control_c, 0, 64, 62
1, 964553, Control_c, 0, 64, 69
1, 964567, Control_c, 0, 64, 76
1, 964582, Control_c, 0, 64, 83
1, 964598, Control_c, 0, 64, 88
1, 964613, Control_c, 0, 64, 93
1, 964627, Control_c, 0, 64, 99
1, 964629, Note_off_c, 0, 62, 52
1, 964637, Note_off_c, 0, 67, 50
1, 964642, Control_c, 0, 64, 105
1, 964657, Control_c, 0, 64, 113
1, 964669, Note_off_c, 0, 59, 42
1, 964678, Control_c, 0, 64, 125
1, 964693, Control_c, 0, 64, 127
1, 964901, Control_c, 0, 64, 111
1, 964915, Control_c, 0, 64, 88
1, 964930, Control_c, 0, 64, 72
1, 964945, Control_c, 0, 64, 60
1, 964953, Note_on_c, 0, 50, 36
1, 964960, Control_c, 0, 64, 52
1, 964968, Note_on_c, 0, 64, 17
1, 964970, Note_on_c, 0, 67, 34
1, 964975, Control_c, 0, 64, 58
1, 964976, Note_on_c, 0, 57, 36
1, 964989, Control_c, 0, 64, 64
1, 964997, Note_off_c, 0, 50, 63
1, 965004, Control_c, 0, 64, 70
1, 965019, Control_c, 0, 64, 78
1, 965034, Control_c, 0, 64, 85
1, 965049, Control_c, 0, 64, 90
1, 965063, Control_c, 0, 64, 93
1, 965078, Control_c, 0, 64, 98
1, 965093, Control_c, 0, 64, 100
1, 965108, Control_c, 0, 64, 102
1, 965130, Note_off_c, 0, 57, 33
1, 965137, Control_c, 0, 64, 104
1, 965170, Note_off_c, 0, 64, 34
1, 965197, Control_c, 0, 64, 97
1, 965212, Control_c, 0, 64, 83
1, 965227, Control_c, 0, 64, 68
1, 965241, Control_c, 0, 64, 52
1, 965248, Note_on_c, 0, 73, 62
1, 965256, Control_c, 0, 64, 0
1, 965268, Note_on_c, 0, 69, 46
1, 965277, Note_on_c, 0, 66, 36
1, 965286, Control_c, 0, 64, 39
1, 965289, Note_on_c, 0, 57, 23
1, 965296, Note_off_c, 0, 73, 54
1, 965301, Control_c, 0, 64, 54
1, 965315, Control_c, 0, 64, 64
1, 965330, Control_c, 0, 64, 72
1, 965345, Control_c, 0, 64, 82
1, 965345, Control_c, 0, 67, 103
1, 965360, Control_c, 0, 64, 94
1, 965360, Control_c, 0, 67, 72
1, 965375, Control_c, 0, 64, 107
1, 965375, Control_c, 0, 67, 42
1, 965384, Note_off_c, 0, 69, 58
1, 965385, Note_off_c, 0, 66, 58
1, 965391, Control_c, 0, 64, 127
1, 965391, Control_c, 0, 67, 0
1, 965394, Note_off_c, 0, 67, 38
1, 965450, Note_off_c, 0, 57, 41
1, 965518, Note_on_c, 0, 67, 62
1, 965530, Note_on_c, 0, 57, 46
1, 965531, Note_on_c, 0, 64, 47
1, 965578, Note_off_c, 0, 64, 60
1, 965582, Note_off_c, 0, 57, 59
1, 965768, Control_c, 0, 64, 97
1, 965783, Control_c, 0, 64, 78
1, 965798, Control_c, 0, 64, 65
1, 965802, Note_on_c, 0, 50, 38
1, 965805, Note_off_c, 0, 67, 53
1, 965812, Control_c, 0, 64, 51
1, 965814, Note_on_c, 0, 66, 46
1, 965827, Note_on_c, 0, 62, 30
1, 965827, Control_c, 0, 64, 0
1, 965827, Control_c, 0, 67, 19
1, 965837, Note_on_c, 0, 57, 26
1, 965842, Control_c, 0, 67, 23
1, 965856, Control_c, 0, 67, 29
1, 965871, Control_c, 0, 67, 37
1, 965886, Control_c, 0, 67, 51
1, 965889, Note_off_c, 0, 50, 61
1, 965901, Control_c, 0, 67, 68
1, 965916, Control_c, 0, 67, 83
1, 965930, Control_c, 0, 67, 97
1, 965945, Control_c, 0, 67, 110
1, 965960, Control_c, 0, 67, 124
1, 965975, Control_c, 0, 67, 127
1, 966126, Note_on_c, 0, 74, 60
1, 966171, Note_off_c, 0, 74, 62
1, 966235, Control_c, 0, 64, 43
1, 966250, Control_c, 0, 64, 55
1, 966265, Control_c, 0, 64, 63
1, 966280, Control_c, 0, 64, 69
1, 966294, Control_c, 0, 64, 75
1, 966295, Note_off_c, 0, 57, 54
1, 966309, Control_c, 0, 64, 82
1, 966324, Control_c, 0, 64, 90
1, 966339, Control_c, 0, 64, 99
1, 966342, Note_off_c, 0, 62, 49
1, 966354, Control_c, 0, 64, 113
1, 966365, Note_off_c, 0, 66, 61
1, 966369, Control_c, 0, 64, 127
1, 966697, Note_on_c, 0, 62, 45
1, 966718, Note_on_c, 0, 78, 48
1, 966724, Note_on_c, 0, 69, 37
1, 966724, Control_c, 0, 64, 114
1, 966739, Control_c, 0, 64, 93
1, 966741, Note_on_c, 0, 74, 39
1, 966753, Control_c, 0, 64, 79
1, 966758, Note_off_c, 0, 62, 58
1, 966768, Control_c, 0, 64, 69
1, 966783, Control_c, 0, 64, 59
1, 966798, Control_c, 0, 64, 48
1, 966813, Control_c, 0, 64, 43
1, 967044, Note_on_c, 0, 84, 59
1, 967074, Control_c, 0, 64, 44
1, 967089, Note_off_c, 0, 84, 57
1, 967089, Control_c, 0, 64, 45
1, 967104, Control_c, 0, 64, 46
1, 967118, Control_c, 0, 64, 50
1, 967133, Control_c, 0, 64, 55
1, 967148, Control_c, 0, 64, 59
1, 967163, Control_c, 0, 64, 63
1, 967178, Control_c, 0, 64, 69
1, 967192, Control_c, 0, 64, 77
1, 967207, Control_c, 0, 64, 86
1, 967222, Control_c, 0, 64, 96
1, 967237, Control_c, 0, 64, 110
1, 967252, Control_c, 0, 64, 127
1, 967265, Note_off_c, 0, 69, 41
1, 967289, Note_off_c, 0, 74, 38
1, 967595, Note_on_c, 0, 62, 37
1, 967615, Note_on_c, 0, 79, 40
1, 967627, Note_on_c, 0, 74, 36
1, 967628, Note_off_c, 0, 78, 20
1, 967642, Note_off_c, 0, 62, 61
1, 967647, Note_on_c, 0, 71, 20
1, 967689, Control_c, 0, 64, 110
1, 967704, Control_c, 0, 64, 98
1, 967718, Control_c, 0, 64, 90
1, 967733, Control_c, 0, 64, 81
1, 967748, Control_c, 0, 64, 72
1, 967763, Control_c, 0, 64, 64
1, 967778, Control_c, 0, 64, 51
1, 967793, Control_c, 0, 64, 40
1, 967808, Control_c, 0, 64, 37
1, 967838, Control_c, 0, 64, 37
1, 967853, Control_c, 0, 64, 36
1, 967867, Control_c, 0, 64, 35
1, 967914, Note_on_c, 0, 83, 56
1, 967941, Control_c, 0, 64, 36
1, 967953, Note_off_c, 0, 83, 61
1, 967956, Control_c, 0, 64, 40
1, 967971, Control_c, 0, 64, 48
1, 967986, Control_c, 0, 64, 55
1, 968001, Control_c, 0, 64, 62
1, 968015, Control_c, 0, 64, 67
1, 968030, Control_c, 0, 64, 74
1, 968045, Control_c, 0, 64, 82
1, 968059, Control_c, 0, 64, 90
1, 968074, Control_c, 0, 64, 99
1, 968089, Control_c, 0, 64, 111
1, 968097, Note_off_c, 0, 74, 54
1, 968104, Control_c, 0, 64, 127
1, 968108, Note_off_c, 0, 79, 55
1, 968114, Note_off_c, 0, 71, 41
1, 968401, Control_c, 0, 64, 96
1, 968422, Control_c, 0, 64, 76
1, 968437, Control_c, 0, 64, 64
1, 968452, Control_c, 0, 64, 58
1, 968461, Note_on_c, 0, 62, 35
1, 968467, Control_c, 0, 64, 61
1, 968474, Note_on_c, 0, 69, 42
1, 968476, Note_on_c, 0, 79, 39
1, 968482, Control_c, 0, 64, 64
1, 968494, Note_on_c, 0, 76, 28
1, 968494, Note_off_c, 0, 62, 59
1, 968497, Control_c, 0, 64, 69
1, 968512, Control_c, 0, 64, 75
1, 968527, Control_c, 0, 64, 82
1, 968541, Control_c, 0, 64, 87
1, 968556, Control_c, 0, 64, 93
1, 968571, Control_c, 0, 64, 100
1, 968586, Control_c, 0, 64, 106
1, 968601, Control_c, 0, 64, 115
1, 968615, Note_off_c, 0, 69, 35
1, 968616, Control_c, 0, 64, 127
1, 968629, Note_off_c, 0, 76, 42
1, 968705, Control_c, 0, 64, 116
1, 968720, Control_c, 0, 64, 89
1, 968735, Control_c, 0, 64, 73
1, 968750, Control_c, 0, 64, 61
1, 968755, Note_on_c, 0, 85, 54
1, 968764, Control_c, 0, 64, 52
1, 968779, Control_c, 0, 64, 56
1, 968780, Note_on_c, 0, 78, 36
1, 968781, Note_on_c, 0, 81, 46
1, 968792, Note_off_c, 0, 85, 61
1, 968794, Control_c, 0, 64, 61
1, 968802, Note_on_c, 0, 69, 28
1, 968809, Control_c, 0, 64, 64
1, 968824, Control_c, 0, 64, 70
1, 968838, Control_c, 0, 64, 79
1, 968853, Control_c, 0, 64, 89
1, 968866, Note_off_c, 0, 79, 20
1, 968868, Control_c, 0, 64, 97
1, 968873, Note_off_c, 0, 78, 52
1, 968882, Control_c, 0, 64, 100
1, 968897, Control_c, 0, 64, 103
1, 968901, Note_off_c, 0, 81, 42
1, 968912, Control_c, 0, 64, 105
1, 968927, Control_c, 0, 64, 108
1, 968934, Note_off_c, 0, 69, 30
1, 968942, Control_c, 0, 64, 111
1, 968956, Control_c, 0, 64, 114
1, 968986, Control_c, 0, 64, 117
1, 969016, Control_c, 0, 64, 119
1, 969028, Note_on_c, 0, 69, 39
1, 969034, Note_on_c, 0, 76, 41
1, 969038, Note_on_c, 0, 79, 43
1, 969086, Note_off_c, 0, 76, 50
1, 969089, Note_off_c, 0, 69, 41
1, 969245, Control_c, 0, 64, 109
1, 969260, Control_c, 0, 64, 93
1, 969275, Control_c, 0, 64, 74
1, 969290, Control_c, 0, 64, 61
1, 969293, Note_off_c, 0, 79, 47
1, 969305, Control_c, 0, 64, 41
1, 969320, Control_c, 0, 64, 39
1, 969329, Note_on_c, 0, 78, 43
1, 969330, Note_on_c, 0, 62, 27
1, 969335, Control_c, 0, 64, 50
1, 969349, Note_on_c, 0, 69, 23
1, 969349, Control_c, 0, 64, 59
1, 969359, Note_off_c, 0, 62, 53
1, 969361, Note_on_c, 0, 74, 12
1, 969364, Control_c, 0, 64, 66
1, 969379, Control_c, 0, 64, 73
1, 969394, Control_c, 0, 64, 81
1, 969409, Control_c, 0, 64, 88
1, 969424, Control_c, 0, 64, 90
1, 969439, Control_c, 0, 64, 91
1, 969454, Control_c, 0, 64, 91
1, 969484, Control_c, 0, 64, 92
1, 969528, Control_c, 0, 64, 91
1, 969543, Control_c, 0, 64, 89
1, 969558, Control_c, 0, 64, 81
1, 969573, Control_c, 0, 64, 69
1, 969587, Control_c, 0, 64, 58
1, 969602, Control_c, 0, 64, 39
1, 969617, Control_c, 0, 64, 0
1, 969651, Note_on_c, 0, 86, 46
1, 969694, Note_off_c, 0, 86, 62
1, 969735, Control_c, 0, 64, 36
1, 969750, Control_c, 0, 64, 45
1, 969765, Control_c, 0, 64, 54
1, 969779, Control_c, 0, 64, 61
1, 969794, Control_c, 0, 64, 68
1, 969809, Control_c, 0, 64, 77
1, 969823, Control_c, 0, 64, 88
1, 969829, Note_off_c, 0, 78, 63
1, 969838, Control_c, 0, 64, 99
1, 969847, Note_off_c, 0, 74, 56
1, 969853, Control_c, 0, 64, 116
1, 969868, Control_c, 0, 64, 127
1, 969868, Note_off_c, 0, 69, 55
1, 969964, Control_c, 0, 67, 113
1, 969978, Control_c, 0, 67, 98
1, 969993, Control_c, 0, 67, 87
1, 970008, Control_c, 0, 67, 83
1, 970023, Control_c, 0, 67, 82
1, 970156, Control_c, 0, 67, 80
1, 970171, Control_c, 0, 67, 75
1, 970187, Control_c, 0, 67, 55
1, 970193, Note_on_c, 0, 69, 100
1, 970202, Control_c, 0, 67, 23
1, 970214, Note_on_c, 0, 64, 93
1, 970217, Control_c, 0, 67, 0
1, 970223, Note_off_c, 0, 69, 70
1, 970226, Note_on_c, 0, 57, 76
1, 970229, Note_on_c, 0, 61, 73
1, 970335, Control_c, 0, 64, 109
1, 970350, Control_c, 0, 64, 90
1, 970365, Control_c, 0, 64, 76
1, 970380, Control_c, 0, 64, 66
1, 970395, Control_c, 0, 64, 56
1, 970409, Control_c, 0, 64, 45
1, 970424, Control_c, 0, 64, 40
1, 970439, Control_c, 0, 64, 39
1, 970453, Control_c, 0, 64, 0
1, 970476, Note_on_c, 0, 45, 106
1, 970511, Note_off_c, 0, 45, 66
1, 970512, Note_on_c, 0, 47, 35
1, 970512, Note_off_c, 0, 47, 127
1, 970698, Control_c, 0, 64, 45
1, 970698, Control_c, 0, 67, 20
1, 970713, Control_c, 0, 64, 62
1, 970713, Control_c, 0, 67, 29
1, 970727, Control_c, 0, 64, 70
1, 970727, Control_c, 0, 67, 40
1, 970742, Control_c, 0, 64, 79
1, 970742, Control_c, 0, 67, 62
1, 970757, Control_c, 0, 64, 93
1, 970757, Control_c, 0, 67, 82
1, 970759, Note_off_c, 0, 61, 55
1, 970763, Note_off_c, 0, 64, 48
1, 970772, Control_c, 0, 64, 127
1, 970772, Control_c, 0, 67, 101
1, 970786, Control_c, 0, 67, 119
1, 970801, Control_c, 0, 67, 127
1, 970824, Note_off_c, 0, 57, 33
1, 970986, Note_on_c, 0, 69, 89
1, 970995, Note_on_c, 0, 65, 86
1, 971007, Note_off_c, 0, 69, 66
1, 971009, Note_on_c, 0, 62, 67
1, 971011, Note_on_c, 0, 57, 60
1, 971069, Control_c, 0, 64, 100
1, 971084, Control_c, 0, 64, 84
1, 971099, Control_c, 0, 64, 71
1, 971114, Control_c, 0, 64, 62
1, 971129, Control_c, 0, 64, 47
1, 971144, Control_c, 0, 64, 0
1, 971265, Note_on_c, 0, 45, 68
1, 971294, Note_off_c, 0, 45, 65
1, 971365, Control_c, 0, 64, 51
1, 971380, Control_c, 0, 64, 64
1, 971383, Note_off_c, 0, 62, 61
1, 971402, Control_c, 0, 64, 69
1, 971417, Control_c, 0, 64, 73
1, 971424, Note_off_c, 0, 65, 55
1, 971432, Control_c, 0, 64, 76
1, 971447, Control_c, 0, 64, 79
1, 971451, Note_off_c, 0, 57, 36
1, 971462, Control_c, 0, 64, 82
1, 971476, Control_c, 0, 64, 85
1, 971491, Control_c, 0, 64, 89
1, 971506, Control_c, 0, 64, 93
1, 971521, Control_c, 0, 64, 96
1, 971536, Control_c, 0, 64, 101
1, 971550, Control_c, 0, 64, 105
1, 971565, Control_c, 0, 64, 108
1, 971580, Control_c, 0, 64, 110
1, 971595, Control_c, 0, 64, 113
1, 971609, Control_c, 0, 64, 118
1, 971624, Control_c, 0, 64, 122
1, 971654, Control_c, 0, 64, 125
1, 971707, Note_on_c, 0, 69, 54
1, 971713, Control_c, 0, 64, 127
1, 971730, Note_off_c, 0, 69, 61
1, 971743, Note_on_c, 0, 57, 39
1, 971749, Note_on_c, 0, 65, 50
1, 971753, Note_on_c, 0, 62, 41
1, 971807, Note_off_c, 0, 57, 40
1, 971941, Note_off_c, 0, 65, 50
1, 971952, Control_c, 0, 64, 119
1, 971967, Control_c, 0, 64, 97
1, 971973, Note_off_c, 0, 62, 23
1, 971981, Note_on_c, 0, 67, 52
1, 971981, Control_c, 0, 64, 80
1, 971993, Note_on_c, 0, 76, 64
1, 971995, Note_on_c, 0, 64, 37
1, 971996, Control_c, 0, 64, 67
1, 972008, Note_on_c, 0, 57, 31
1, 972011, Control_c, 0, 64, 54
1, 972025, Control_c, 0, 64, 0
1, 972031, Note_off_c, 0, 76, 60
1, 972098, Note_off_c, 0, 57, 46
1, 972107, Note_on_c, 0, 77, 75
1, 972155, Note_off_c, 0, 64, 58
1, 972177, Note_off_c, 0, 77, 63
1, 972196, Control_c, 0, 67, 111
1, 972211, Control_c, 0, 67, 75
1, 972211, Note_on_c, 0, 65, 67
1, 972214, Note_on_c, 0, 62, 54
1, 972216, Note_off_c, 0, 67, 58
1, 972224, Note_on_c, 0, 79, 84
1, 972226, Control_c, 0, 64, 40
1, 972226, Control_c, 0, 67, 41
1, 972227, Note_on_c, 0, 57, 45
1, 972240, Control_c, 0, 64, 55
1, 972240, Control_c, 0, 67, 20
1, 972255, Control_c, 0, 64, 65
1, 972255, Control_c, 0, 67, 0
1, 972270, Control_c, 0, 64, 68
1, 972282, Note_off_c, 0, 79, 64
1, 972285, Control_c, 0, 64, 70
1, 972286, Note_off_c, 0, 57, 57
1, 972298, Note_off_c, 0, 62, 60
1, 972299, Control_c, 0, 64, 70
1, 972314, Control_c, 0, 64, 71
1, 972332, Note_on_c, 0, 80, 81
1, 972344, Control_c, 0, 64, 70
1, 972358, Control_c, 0, 64, 66
1, 972373, Control_c, 0, 64, 58
1, 972388, Control_c, 0, 64, 40
1, 972403, Control_c, 0, 64, 0
1, 972413, Note_off_c, 0, 80, 61
1, 972446, Note_off_c, 0, 65, 52
1, 972447, Control_c, 0, 64, 46
1, 972452, Note_on_c, 0, 81, 88
1, 972462, Control_c, 0, 64, 65
1, 972470, Note_off_c, 0, 81, 72
1, 972472, Note_on_c, 0, 64, 61
1, 972477, Control_c, 0, 64, 77
1, 972485, Note_on_c, 0, 57, 53
1, 972490, Note_on_c, 0, 61, 51
1, 972492, Control_c, 0, 64, 95
1, 972506, Control_c, 0, 64, 127
1, 972722, Note_on_c, 0, 47, 41
1, 972754, Note_off_c, 0, 47, 56
1, 972760, Control_c, 0, 64, 105
1, 972775, Control_c, 0, 64, 82
1, 972789, Control_c, 0, 64, 67
1, 972804, Control_c, 0, 64, 50
1, 972814, Poly_aftertouch_c, 0, 45, 0
1, 972815, Note_on_c, 0, 46, 69
1, 972819, Control_c, 0, 64, 0
1, 972883, Note_off_c, 0, 46, 63
1, 972941, Note_off_c, 0, 64, 62
1, 972947, Note_on_c, 0, 45, 93
1, 972959, Note_off_c, 0, 57, 59
1, 972959, Control_c, 0, 64, 42
1, 972968, Note_off_c, 0, 45, 68
1, 972971, Note_off_c, 0, 61, 43
1, 972974, Control_c, 0, 64, 64
1, 972989, Control_c, 0, 64, 75
1, 973004, Control_c, 0, 64, 94
1, 973019, Control_c, 0, 64, 127
1, 973205, Note_on_c, 0, 69, 98
1, 973216, Note_on_c, 0, 64, 94
1, 973229, Note_on_c, 0, 57, 75
1, 973234, Note_on_c, 0, 61, 75
1, 973237, Note_off_c, 0, 69, 68
1, 973300, Control_c, 0, 64, 112
1, 973315, Control_c, 0, 64, 79
1, 973329, Control_c, 0, 64, 61
1, 973344, Control_c, 0, 64, 0
1, 973458, Note_on_c, 0, 45, 104
1, 973496, Note_off_c, 0, 45, 67
1, 973627, Control_c, 0, 64, 43
1, 973649, Control_c, 0, 64, 61
1, 973664, Control_c, 0, 64, 71
1, 973678, Control_c, 0, 64, 81
1, 973693, Control_c, 0, 64, 98
1, 973708, Control_c, 0, 64, 127
1, 973743, Note_off_c, 0, 64, 58
1, 973817, Note_off_c, 0, 57, 38
1, 973973, Note_on_c, 0, 69, 55
1, 973984, Note_off_c, 0, 61, 51
1, 973994, Note_off_c, 0, 69, 60
1, 973997, Note_on_c, 0, 65, 58
1, 974000, Note_on_c, 0, 57, 44
1, 974019, Note_on_c, 0, 60, 45
1, 974019, Control_c, 0, 64, 103
1, 974034, Control_c, 0, 64, 85
1, 974049, Control_c, 0, 64, 70
1, 974064, Control_c, 0, 64, 59
1, 974078, Control_c, 0, 64, 42
1, 974093, Control_c, 0, 64, 0
1, 974248, Note_on_c, 0, 45, 59
1, 974272, Control_c, 0, 67, 20
1, 974281, Note_off_c, 0, 45, 59
1, 974301, Control_c, 0, 67, 23
1, 974316, Control_c, 0, 67, 28
1, 974331, Control_c, 0, 67, 34
1, 974346, Control_c, 0, 67, 42
1, 974362, Control_c, 0, 67, 54
1, 974376, Control_c, 0, 67, 66
1, 974399, Control_c, 0, 67, 75
1, 974414, Control_c, 0, 67, 84
1, 974428, Control_c, 0, 67, 91
1, 974443, Control_c, 0, 67, 98
1, 974458, Control_c, 0, 67, 104
1, 974473, Control_c, 0, 67, 109
1, 974488, Control_c, 0, 64, 35
1, 974488, Control_c, 0, 67, 111
1, 974502, Control_c, 0, 64, 56
1, 974504, Note_on_c, 0, 41, 50
1, 974517, Control_c, 0, 64, 65
1, 974532, Control_c, 0, 64, 68
1, 974534, Note_off_c, 0, 57, 56
1, 974540, Note_off_c, 0, 41, 61
1, 974546, Note_off_c, 0, 60, 63
1, 974546, Control_c, 0, 64, 73
1, 974561, Control_c, 0, 64, 77
1, 974576, Control_c, 0, 64, 81
1, 974581, Note_off_c, 0, 65, 62
1, 974591, Control_c, 0, 64, 85
1, 974606, Control_c, 0, 64, 90
1, 974620, Control_c, 0, 64, 97
1, 974635, Control_c, 0, 64, 108
1, 974650, Control_c, 0, 64, 127
1, 974754, Control_c, 0, 64, 117
1, 974769, Control_c, 0, 64, 87
1, 974784, Control_c, 0, 64, 70
1, 974799, Control_c, 0, 64, 56
1, 974803, Note_on_c, 0, 36, 38
1, 974805, Note_on_c, 0, 69, 56
1, 974811, Note_on_c, 0, 65, 49
1, 974813, Control_c, 0, 64, 47
1, 974816, Note_on_c, 0, 60, 39
1, 974828, Control_c, 0, 64, 55
1, 974828, Control_c, 0, 67, 109
1, 974841, Note_off_c, 0, 36, 61
1, 974843, Control_c, 0, 64, 64
1, 974843, Control_c, 0, 67, 105
1, 974858, Control_c, 0, 64, 72
1, 974858, Control_c, 0, 67, 100
1, 974873, Control_c, 0, 64, 83
1, 974873, Control_c, 0, 67, 93
1, 974888, Control_c, 0, 64, 101
1, 974888, Control_c, 0, 67, 80
1, 974902, Control_c, 0, 64, 127
1, 974902, Control_c, 0, 67, 55
1, 974909, Note_off_c, 0, 69, 56
1, 974917, Control_c, 0, 67, 22
1, 974932, Control_c, 0, 67, 0
1, 974965, Note_off_c, 0, 60, 56
1, 974986, Note_off_c, 0, 65, 58
1, 975042, Note_on_c, 0, 70, 77
1, 975052, Note_on_c, 0, 60, 60
1, 975055, Note_on_c, 0, 67, 62
1, 975056, Note_on_c, 0, 64, 57
1, 975151, Note_off_c, 0, 70, 62
1, 975162, Note_off_c, 0, 67, 35
1, 975257, Note_off_c, 0, 64, 39
1, 975264, Note_on_c, 0, 72, 97
1, 975264, Note_off_c, 0, 60, 0
1, 975278, Note_on_c, 0, 60, 58
1, 975283, Note_on_c, 0, 67, 74
1, 975318, Note_off_c, 0, 67, 63
1, 975325, Note_off_c, 0, 72, 63
1, 975338, Note_off_c, 0, 60, 61
1, 975517, Control_c, 0, 64, 85
1, 975532, Control_c, 0, 64, 66
1, 975547, Control_c, 0, 64, 47
1, 975554, Note_on_c, 0, 77, 73
1, 975562, Control_c, 0, 64, 50
1, 975567, Note_on_c, 0, 70, 65
1, 975567, Note_on_c, 0, 74, 62
1, 975576, Control_c, 0, 64, 58
1, 975589, Note_on_c, 0, 60, 38
1, 975591, Control_c, 0, 64, 62
1, 975606, Control_c, 0, 64, 69
1, 975621, Control_c, 0, 64, 82
1, 975636, Control_c, 0, 64, 127
1, 975647, Note_off_c, 0, 70, 63
1, 975659, Note_off_c, 0, 77, 63
1, 975670, Note_off_c, 0, 74, 62
1, 975740, Note_off_c, 0, 60, 43
1, 975810, Note_on_c, 0, 72, 65
1, 975814, Note_on_c, 0, 69, 59
1, 975830, Note_on_c, 0, 60, 44
1, 976032, Note_off_c, 0, 69, 56
1, 976039, Note_off_c, 0, 60, 37
1, 976049, Note_on_c, 0, 48, 76
1, 976088, Control_c, 0, 64, 89
1, 976103, Control_c, 0, 64, 70
1, 976117, Control_c, 0, 64, 50
1, 976132, Control_c, 0, 64, 0
1, 976171, Note_off_c, 0, 48, 30
1, 976191, Control_c, 0, 64, 36
1, 976206, Control_c, 0, 64, 54
1, 976221, Control_c, 0, 64, 64
1, 976236, Control_c, 0, 64, 71
1, 976251, Control_c, 0, 64, 79
1, 976265, Control_c, 0, 64, 83
1, 976280, Control_c, 0, 64, 87
1, 976295, Control_c, 0, 64, 92
1, 976302, Note_on_c, 0, 36, 75
1, 976310, Note_on_c, 0, 65, 65
1, 976310, Control_c, 0, 64, 100
1, 976314, Note_on_c, 0, 69, 66
1, 976316, Note_on_c, 0, 60, 62
1, 976323, Note_off_c, 0, 72, 54
1, 976325, Control_c, 0, 64, 116
1, 976340, Control_c, 0, 64, 127
1, 976349, Note_off_c, 0, 36, 61
1, 976414, Note_off_c, 0, 65, 56
1, 976417, Note_off_c, 0, 60, 50
1, 976492, Note_off_c, 0, 69, 60
1, 976533, Note_on_c, 0, 60, 79
1, 976535, Note_on_c, 0, 70, 82
1, 976539, Note_on_c, 0, 67, 72
1, 976548, Note_on_c, 0, 64, 63
1, 976589, Note_off_c, 0, 64, 55
1, 976608, Note_off_c, 0, 67, 59
1, 976632, Note_off_c, 0, 70, 63
1, 976706, Note_off_c, 0, 60, 48
1, 976776, Note_on_c, 0, 72, 98
1, 976780, Note_on_c, 0, 67, 78
1, 976782, Note_on_c, 0, 60, 77
1, 976798, Note_on_c, 0, 64, 47
1, 976821, Note_off_c, 0, 64, 58
1, 976828, Note_off_c, 0, 67, 62
1, 976838, Note_off_c, 0, 72, 61
1, 976840, Note_off_c, 0, 60, 59
1, 977031, Control_c, 0, 64, 81
1, 977045, Note_on_c, 0, 77, 79
1, 977046, Control_c, 0, 64, 59
1, 977055, Note_on_c, 0, 74, 72
1, 977061, Control_c, 0, 64, 0
1, 977067, Note_on_c, 0, 70, 66
1, 977073, Note_on_c, 0, 60, 64
1, 977090, Control_c, 0, 64, 42
1, 977105, Control_c, 0, 64, 58
1, 977120, Control_c, 0, 64, 68
1, 977135, Control_c, 0, 64, 83
1, 977147, Note_off_c, 0, 77, 65
1, 977149, Control_c, 0, 64, 113
1, 977164, Control_c, 0, 64, 127
1, 977165, Note_off_c, 0, 70, 61
1, 977165, Note_off_c, 0, 74, 64
1, 977206, Note_off_c, 0, 60, 37
1, 977274, Note_on_c, 0, 72, 79
1, 977282, Note_on_c, 0, 60, 71
1, 977289, Note_on_c, 0, 69, 63
1, 977383, Note_off_c, 0, 60, 57
1, 977469, Control_c, 0, 64, 85
1, 977484, Control_c, 0, 64, 62
1, 977499, Control_c, 0, 64, 0
1, 977510, Note_off_c, 0, 69, 57
1, 977517, Note_on_c, 0, 48, 90
1, 977543, Control_c, 0, 64, 56
1, 977558, Control_c, 0, 64, 67
1, 977572, Control_c, 0, 64, 75
1, 977575, Note_off_c, 0, 48, 63
1, 977587, Control_c, 0, 64, 83
1, 977602, Control_c, 0, 64, 88
1, 977617, Control_c, 0, 64, 94
1, 977632, Control_c, 0, 64, 102
1, 977646, Control_c, 0, 64, 127
1, 977750, Control_c, 0, 64, 83
1, 977765, Control_c, 0, 64, 63
1, 977774, Note_on_c, 0, 36, 94
1, 977779, Control_c, 0, 64, 0
1, 977788, Note_on_c, 0, 60, 85
1, 977789, Note_on_c, 0, 69, 81
1, 977790, Note_on_c, 0, 65, 79
1, 977817, Note_off_c, 0, 36, 64
1, 977823, Note_off_c, 0, 72, 29
1, 977824, Control_c, 0, 64, 57
1, 977839, Control_c, 0, 64, 71
1, 977854, Control_c, 0, 64, 86
1, 977869, Control_c, 0, 64, 122
1, 977884, Control_c, 0, 64, 127
1, 977887, Note_off_c, 0, 60, 53
1, 977892, Note_off_c, 0, 65, 58
1, 977952, Note_off_c, 0, 69, 60
1, 978017, Note_on_c, 0, 60, 80
1, 978018, Note_on_c, 0, 70, 88
1, 978021, Note_on_c, 0, 67, 76
1, 978031, Note_on_c, 0, 64, 66
1, 978079, Note_off_c, 0, 67, 62
1, 978112, Note_off_c, 0, 70, 61
1, 978115, Note_off_c, 0, 64, 46
1, 978188, Note_off_c, 0, 60, 29
1, 978262, Control_c, 0, 64, 94
1, 978274, Note_on_c, 0, 72, 104
1, 978277, Control_c, 0, 64, 67
1, 978285, Note_on_c, 0, 67, 87
1, 978287, Note_on_c, 0, 60, 83
1, 978292, Control_c, 0, 64, 50
1, 978295, Note_on_c, 0, 64, 78
1, 978307, Control_c, 0, 64, 55
1, 978321, Control_c, 0, 64, 64
1, 978336, Control_c, 0, 64, 80
1, 978342, Note_off_c, 0, 60, 63
1, 978351, Control_c, 0, 64, 127
1, 978367, Note_off_c, 0, 64, 54
1, 978382, Note_off_c, 0, 67, 57
1, 978566, Note_on_c, 0, 73, 103
1, 978578, Note_off_c, 0, 72, 65
1, 978581, Note_on_c, 0, 69, 88
1, 978584, Note_on_c, 0, 57, 90
1, 978587, Note_on_c, 0, 64, 68
1, 978591, Note_on_c, 0, 67, 79
1, 978594, Note_off_c, 0, 73, 66
1, 978613, Note_on_c, 0, 74, 37
1, 978613, Note_off_c, 0, 74, 127
1, 978647, Poly_aftertouch_c, 0, 74, 0
1, 978662, Control_c, 0, 64, 97
1, 978677, Control_c, 0, 64, 77
1, 978692, Control_c, 0, 64, 65
1, 978707, Control_c, 0, 64, 52
1, 978721, Control_c, 0, 64, 41
1, 978751, Control_c, 0, 64, 41
1, 978781, Control_c, 0, 64, 41
1, 978795, Control_c, 0, 64, 40
1, 978840, Control_c, 0, 64, 41
1, 978853, Note_on_c, 0, 61, 102
1, 978879, Note_off_c, 0, 61, 65
1, 978921, Control_c, 0, 64, 40
1, 978936, Control_c, 0, 64, 40
1, 978981, Control_c, 0, 64, 40
1, 979135, Note_on_c, 0, 49, 106
1, 979167, Note_off_c, 0, 49, 67
1, 979218, Control_c, 0, 64, 40
1, 979366, Control_c, 0, 64, 40
1, 979405, Note_on_c, 0, 37, 104
1, 979410, Control_c, 0, 64, 41
1, 979453, Note_off_c, 0, 37, 59
1, 979633, Control_c, 0, 64, 41
1, 979655, Control_c, 0, 64, 42
1, 979669, Control_c, 0, 64, 43
1, 979684, Control_c, 0, 64, 45
1, 979699, Control_c, 0, 64, 50
1, 979714, Control_c, 0, 64, 55
1, 979729, Control_c, 0, 64, 62
1, 979744, Control_c, 0, 64, 69
1, 979759, Control_c, 0, 64, 80
1, 979774, Control_c, 0, 64, 100
1, 979776, Note_on_c, 0, 45, 109
1, 979789, Control_c, 0, 64, 127
1, 979811, Note_off_c, 0, 45, 66
1, 979878, Control_c, 0, 64, 86
1, 979893, Control_c, 0, 64, 67
1, 979908, Control_c, 0, 64, 49
1, 979923, Control_c, 0, 64, 0
1, 980463, Control_c, 0, 64, 34
1, 980478, Control_c, 0, 64, 40
1, 980492, Control_c, 0, 64, 46
1, 980507, Control_c, 0, 64, 53
1, 980522, Control_c, 0, 64, 59
1, 980537, Control_c, 0, 64, 64
1, 980552, Control_c, 0, 64, 67
1, 980568, Control_c, 0, 64, 71
1, 980583, Control_c, 0, 64, 77
1, 980597, Control_c, 0, 64, 85
1, 980612, Control_c, 0, 64, 97
1, 980627, Control_c, 0, 64, 122
1, 980642, Control_c, 0, 64, 127
1, 980775, Control_c, 0, 67, 20
1, 980790, Control_c, 0, 67, 24
1, 980805, Control_c, 0, 67, 28
1, 980820, Control_c, 0, 67, 35
1, 980835, Control_c, 0, 67, 46
1, 980850, Control_c, 0, 67, 58
1, 980864, Control_c, 0, 67, 70
1, 980879, Control_c, 0, 67, 84
1, 980894, Control_c, 0, 67, 100
1, 980908, Control_c, 0, 67, 117
1, 980923, Control_c, 0, 67, 127
1, 980948, Note_off_c, 0, 64, 59
1, 980960, Note_off_c, 0, 67, 50
1, 981056, Note_off_c, 0, 57, 39
1, 981368, Note_on_c, 0, 50, 30
1, 981376, Control_c, 0, 64, 112
1, 981384, Note_on_c, 0, 66, 41
1, 981389, Note_on_c, 0, 62, 36
1, 981391, Note_on_c, 0, 57, 36
1, 981391, Control_c, 0, 64, 94
1, 981406, Control_c, 0, 64, 81
1, 981417, Note_off_c, 0, 69, 35
1, 981420, Control_c, 0, 64, 69
1, 981435, Control_c, 0, 64, 58
1, 981445, Note_off_c, 0, 50, 55
1, 981450, Control_c, 0, 64, 39
1, 981465, Control_c, 0, 64, 0
1, 981767, Note_on_c, 0, 72, 58
1, 981801, Note_off_c, 0, 72, 63
1, 981887, Control_c, 0, 64, 42
1, 981902, Control_c, 0, 64, 56
1, 981917, Control_c, 0, 64, 64
1, 981932, Control_c, 0, 64, 71
1, 981947, Control_c, 0, 64, 77
1, 981962, Control_c, 0, 64, 84
1, 981977, Control_c, 0, 64, 91
1, 981991, Control_c, 0, 64, 98
1, 982006, Control_c, 0, 64, 106
1, 982021, Control_c, 0, 64, 127
1, 982033, Note_off_c, 0, 57, 41
1, 982035, Note_off_c, 0, 62, 37
1, 982356, Note_on_c, 0, 50, 38
1, 982367, Note_on_c, 0, 67, 39
1, 982391, Note_on_c, 0, 62, 37
1, 982395, Note_on_c, 0, 59, 30
1, 982407, Control_c, 0, 64, 105
1, 982419, Note_off_c, 0, 50, 56
1, 982422, Control_c, 0, 64, 92
1, 982436, Control_c, 0, 64, 81
1, 982451, Control_c, 0, 64, 72
1, 982460, Note_off_c, 0, 66, 34
1, 982466, Control_c, 0, 64, 63
1, 982481, Control_c, 0, 64, 54
1, 982495, Control_c, 0, 64, 44
1, 982510, Control_c, 0, 64, 38
1, 982525, Control_c, 0, 64, 37
1, 982540, Control_c, 0, 64, 36
1, 982555, Control_c, 0, 64, 36
1, 982570, Control_c, 0, 64, 35
1, 982614, Control_c, 0, 64, 34
1, 982636, Control_c, 0, 64, 34
1, 982666, Control_c, 0, 64, 33
1, 982681, Control_c, 0, 64, 33
1, 982693, Note_on_c, 0, 71, 52
1, 982695, Control_c, 0, 64, 0
1, 982729, Note_off_c, 0, 71, 66
1, 982784, Control_c, 0, 64, 38
1, 982799, Control_c, 0, 64, 49
1, 982814, Control_c, 0, 64, 59
1, 982829, Control_c, 0, 64, 68
1, 982844, Control_c, 0, 64, 75
1, 982859, Control_c, 0, 64, 84
1, 982874, Control_c, 0, 64, 92
1, 982888, Control_c, 0, 64, 100
1, 982903, Control_c, 0, 64, 111
1, 982918, Control_c, 0, 64, 127
1, 982947, Note_off_c, 0, 67, 50
1, 982948, Note_off_c, 0, 62, 48
1, 982975, Note_off_c, 0, 59, 41
1, 983200, Control_c, 0, 64, 105
1, 983215, Control_c, 0, 64, 81
1, 983229, Control_c, 0, 64, 67
1, 983244, Control_c, 0, 64, 54
1, 983246, Note_on_c, 0, 50, 37
1, 983253, Note_on_c, 0, 67, 38
1, 983259, Control_c, 0, 64, 45
1, 983260, Note_on_c, 0, 57, 35
1, 983265, Note_on_c, 0, 64, 28
1, 983274, Control_c, 0, 64, 53
1, 983289, Control_c, 0, 64, 61
1, 983292, Note_off_c, 0, 50, 60
1, 983304, Control_c, 0, 64, 67
1, 983318, Control_c, 0, 64, 75
1, 983333, Control_c, 0, 64, 81
1, 983348, Control_c, 0, 64, 86
1, 983363, Control_c, 0, 64, 89
1, 983378, Control_c, 0, 64, 92
1, 983397, Note_off_c, 0, 57, 0
1, 983399, Control_c, 0, 64, 96
1, 983414, Control_c, 0, 64, 100
1, 983429, Control_c, 0, 64, 103
1, 983433, Poly_aftertouch_c, 0, 57, 0
1, 983503, Control_c, 0, 64, 90
1, 983518, Control_c, 0, 64, 75
1, 983533, Control_c, 0, 64, 63
1, 983539, Note_on_c, 0, 73, 58
1, 983540, Note_off_c, 0, 64, 29
1, 983548, Control_c, 0, 64, 44
1, 983556, Note_on_c, 0, 69, 47
1, 983556, Note_on_c, 0, 66, 41
1, 983562, Control_c, 0, 64, 0
1, 983568, Note_on_c, 0, 57, 34
1, 983579, Note_off_c, 0, 73, 58
1, 983592, Control_c, 0, 64, 43
1, 983607, Control_c, 0, 64, 54
1, 983622, Control_c, 0, 64, 64
1, 983636, Control_c, 0, 64, 72
1, 983651, Control_c, 0, 64, 82
1, 983666, Control_c, 0, 64, 91
1, 983680, Note_off_c, 0, 69, 58
1, 983681, Control_c, 0, 64, 96
1, 983688, Note_off_c, 0, 66, 60
1, 983692, Note_off_c, 0, 67, 42
1, 983696, Control_c, 0, 64, 100
1, 983710, Control_c, 0, 64, 109
1, 983725, Control_c, 0, 64, 127
1, 983729, Note_off_c, 0, 57, 36
1, 983771, Control_c, 0, 64, 125
1, 983786, Control_c, 0, 64, 95
1, 983801, Control_c, 0, 64, 79
1, 983805, Note_on_c, 0, 67, 54
1, 983810, Note_on_c, 0, 64, 47
1, 983815, Control_c, 0, 64, 69
1, 983824, Note_on_c, 0, 57, 28
1, 983830, Control_c, 0, 64, 68
1, 983845, Control_c, 0, 64, 70
1, 983859, Control_c, 0, 64, 74
1, 983874, Control_c, 0, 64, 79
1, 983884, Note_off_c, 0, 64, 57
1, 983889, Control_c, 0, 64, 84
1, 983896, Note_off_c, 0, 57, 41
1, 983904, Control_c, 0, 64, 88
1, 983919, Control_c, 0, 64, 90
1, 984037, Control_c, 0, 64, 89
1, 984051, Control_c, 0, 64, 84
1, 984066, Control_c, 0, 64, 76
1, 984075, Note_on_c, 0, 50, 38
1, 984081, Control_c, 0, 64, 67
1, 984087, Note_off_c, 0, 67, 48
1, 984091, Note_on_c, 0, 66, 42
1, 984096, Control_c, 0, 64, 56
1, 984104, Note_on_c, 0, 57, 33
1, 984111, Control_c, 0, 64, 33
1, 984115, Note_on_c, 0, 62, 28
1, 984133, Control_c, 0, 64, 0
1, 984179, Note_off_c, 0, 50, 58
1, 984489, Poly_aftertouch_c, 0, 74, 0
1, 984519, Control_c, 0, 64, 35
1, 984533, Control_c, 0, 64, 45
1, 984548, Control_c, 0, 64, 57
1, 984564, Control_c, 0, 64, 65
1, 984579, Control_c, 0, 64, 72
1, 984594, Control_c, 0, 64, 83
1, 984598, Note_off_c, 0, 57, 62
1, 984609, Control_c, 0, 64, 100
1, 984624, Control_c, 0, 64, 127
1, 984640, Note_off_c, 0, 62, 49
1, 984656, Note_off_c, 0, 66, 61
1, 984999, Note_on_c, 0, 62, 42
1, 985011, Note_on_c, 0, 78, 49
1, 985015, Control_c, 0, 64, 120
1, 985027, Note_on_c, 0, 74, 38
1, 985030, Control_c, 0, 64, 93
1, 985044, Note_on_c, 0, 69, 34
1, 985045, Control_c, 0, 64, 78
1, 985051, Note_off_c, 0, 62, 62
1, 985060, Control_c, 0, 64, 66
1, 985075, Control_c, 0, 64, 56
1, 985089, Control_c, 0, 64, 41
1, 985104, Control_c, 0, 64, 34
1, 985134, Control_c, 0, 64, 34
1, 985208, Control_c, 0, 64, 35
1, 985223, Control_c, 0, 64, 35
1, 985253, Control_c, 0, 64, 36
1, 985268, Control_c, 0, 64, 36
1, 985282, Control_c, 0, 64, 37
1, 985297, Control_c, 0, 64, 37
1, 985319, Note_on_c, 0, 84, 62
1, 985327, Control_c, 0, 64, 38
1, 985357, Control_c, 0, 64, 38
1, 985364, Note_off_c, 0, 84, 60
1, 985387, Control_c, 0, 64, 40
1, 985402, Control_c, 0, 64, 42
1, 985417, Control_c, 0, 64, 48
1, 985431, Control_c, 0, 64, 54
1, 985446, Control_c, 0, 64, 61
1, 985461, Control_c, 0, 64, 66
1, 985476, Control_c, 0, 64, 71
1, 985491, Control_c, 0, 64, 77
1, 985505, Control_c, 0, 64, 86
1, 985520, Control_c, 0, 64, 95
1, 985535, Control_c, 0, 64, 105
1, 985548, Note_off_c, 0, 69, 40
1, 985550, Control_c, 0, 64, 125
1, 985565, Control_c, 0, 64, 127
1, 985566, Note_off_c, 0, 74, 41
1, 985872, Note_on_c, 0, 62, 39
1, 985902, Note_on_c, 0, 79, 39
1, 985905, Note_on_c, 0, 74, 39
1, 985912, Note_on_c, 0, 71, 31
1, 985920, Note_off_c, 0, 62, 59
1, 985926, Control_c, 0, 64, 101
1, 985941, Control_c, 0, 64, 90
1, 985956, Control_c, 0, 64, 81
1, 985971, Control_c, 0, 64, 74
1, 985981, Note_off_c, 0, 78, 42
1, 985986, Control_c, 0, 64, 67
1, 986001, Control_c, 0, 64, 59
1, 986016, Control_c, 0, 64, 50
1, 986030, Control_c, 0, 64, 46
1, 986045, Control_c, 0, 64, 46
1, 986075, Control_c, 0, 64, 45
1, 986090, Control_c, 0, 64, 44
1, 986104, Control_c, 0, 64, 44
1, 986119, Control_c, 0, 64, 43
1, 986179, Note_on_c, 0, 83, 57
1, 986195, Control_c, 0, 64, 44
1, 986209, Control_c, 0, 64, 45
1, 986216, Note_off_c, 0, 83, 61
1, 986224, Control_c, 0, 64, 48
1, 986239, Control_c, 0, 64, 52
1, 986253, Control_c, 0, 64, 56
1, 986268, Control_c, 0, 64, 61
1, 986283, Control_c, 0, 64, 66
1, 986298, Control_c, 0, 64, 74
1, 986313, Control_c, 0, 64, 83
1, 986327, Control_c, 0, 64, 92
1, 986342, Control_c, 0, 64, 101
1, 986357, Control_c, 0, 64, 110
1, 986379, Control_c, 0, 64, 127
1, 986385, Note_off_c, 0, 74, 45
1, 986397, Note_off_c, 0, 71, 40
1, 986426, Note_off_c, 0, 79, 38
1, 986675, Control_c, 0, 64, 94
1, 986690, Control_c, 0, 64, 75
1, 986705, Control_c, 0, 64, 60
1, 986707, Note_on_c, 0, 62, 39
1, 986720, Control_c, 0, 64, 52
1, 986723, Note_on_c, 0, 69, 41
1, 986726, Note_on_c, 0, 79, 40
1, 986730, Note_on_c, 0, 76, 27
1, 986734, Control_c, 0, 64, 56
1, 986744, Note_off_c, 0, 62, 63
1, 986749, Control_c, 0, 64, 61
1, 986764, Control_c, 0, 64, 65
1, 986779, Control_c, 0, 64, 69
1, 986794, Control_c, 0, 64, 75
1, 986809, Control_c, 0, 64, 83
1, 986824, Control_c, 0, 64, 89
1, 986838, Control_c, 0, 64, 94
1, 986847, Note_off_c, 0, 69, 36
1, 986853, Control_c, 0, 64, 99
1, 986868, Control_c, 0, 64, 105
1, 986883, Control_c, 0, 64, 109
1, 986898, Control_c, 0, 64, 113
1, 986936, Note_off_c, 0, 76, 37
1, 986958, Control_c, 0, 64, 110
1, 986973, Control_c, 0, 64, 96
1, 986987, Control_c, 0, 64, 81
1, 987002, Note_on_c, 0, 85, 57
1, 987002, Control_c, 0, 64, 66
1, 987008, Note_on_c, 0, 81, 54
1, 987017, Control_c, 0, 64, 56
1, 987027, Note_on_c, 0, 78, 37
1, 987032, Control_c, 0, 64, 53
1, 987033, Note_on_c, 0, 69, 25
1, 987039, Note_off_c, 0, 85, 60
1, 987047, Control_c, 0, 64, 59
1, 987062, Control_c, 0, 64, 63
1, 987076, Control_c, 0, 64, 66
1, 987092, Control_c, 0, 64, 71
1, 987107, Control_c, 0, 64, 79
1, 987122, Control_c, 0, 64, 87
1, 987139, Note_off_c, 0, 78, 53
1, 987139, Note_off_c, 0, 81, 58
1, 987144, Control_c, 0, 64, 93
1, 987150, Note_off_c, 0, 79, 43
1, 987158, Control_c, 0, 64, 100
1, 987173, Control_c, 0, 64, 105
1, 987188, Control_c, 0, 64, 108
1, 987193, Note_off_c, 0, 69, 36
1, 987217, Control_c, 0, 64, 100
1, 987232, Control_c, 0, 64, 86
1, 987247, Control_c, 0, 64, 73
1, 987261, Note_on_c, 0, 79, 55
1, 987262, Control_c, 0, 64, 66
1, 987268, Note_on_c, 0, 69, 50
1, 987271, Note_on_c, 0, 76, 52
1, 987277, Control_c, 0, 64, 66
1, 987292, Control_c, 0, 64, 69
1, 987306, Control_c, 0, 64, 75
1, 987321, Control_c, 0, 64, 82
1, 987336, Control_c, 0, 64, 89
1, 987343, Note_off_c, 0, 76, 62
1, 987351, Control_c, 0, 64, 95
1, 987357, Note_off_c, 0, 69, 36
1, 987366, Control_c, 0, 64, 100
1, 987381, Control_c, 0, 64, 104
1, 987396, Control_c, 0, 64, 108
1, 987440, Control_c, 0, 64, 110
1, 987514, Control_c, 0, 64, 104
1, 987529, Control_c, 0, 64, 89
1, 987544, Control_c, 0, 64, 74
1, 987558, Control_c, 0, 64, 60
1, 987567, Note_off_c, 0, 79, 52
1, 987569, Note_on_c, 0, 62, 42
1, 987569, Note_on_c, 0, 78, 49
1, 987573, Control_c, 0, 64, 42
1, 987588, Control_c, 0, 64, 40
1, 987593, Note_on_c, 0, 69, 32
1, 987599, Note_on_c, 0, 74, 33
1, 987602, Control_c, 0, 64, 50
1, 987617, Control_c, 0, 64, 57
1, 987619, Note_off_c, 0, 62, 61
1, 987632, Control_c, 0, 64, 63
1, 987647, Control_c, 0, 64, 69
1, 987662, Control_c, 0, 64, 77
1, 987676, Control_c, 0, 64, 84
1, 987691, Control_c, 0, 64, 85
1, 987767, Control_c, 0, 64, 85
1, 987781, Control_c, 0, 64, 82
1, 987796, Control_c, 0, 64, 74
1, 987811, Control_c, 0, 64, 67
1, 987825, Control_c, 0, 64, 59
1, 987840, Control_c, 0, 64, 51
1, 987855, Control_c, 0, 64, 49
1, 987878, Control_c, 0, 64, 48
1, 987887, Note_on_c, 0, 86, 58
1, 987893, Control_c, 0, 64, 48
1, 987907, Control_c, 0, 64, 46
1, 987922, Control_c, 0, 64, 45
1, 987934, Note_off_c, 0, 86, 58
1, 987952, Control_c, 0, 64, 47
1, 987967, Control_c, 0, 64, 51
1, 987981, Control_c, 0, 64, 55
1, 987996, Control_c, 0, 64, 58
1, 988011, Control_c, 0, 64, 62
1, 988026, Control_c, 0, 64, 68
1, 988040, Control_c, 0, 64, 76
1, 988055, Control_c, 0, 64, 88
1, 988070, Control_c, 0, 64, 98
1, 988085, Control_c, 0, 64, 105
1, 988100, Control_c, 0, 64, 117
1, 988114, Control_c, 0, 64, 127
1, 988120, Note_off_c, 0, 74, 50
1, 988132, Note_off_c, 0, 78, 53
1, 988157, Note_off_c, 0, 69, 39
1, 988425, Control_c, 0, 64, 89
1, 988440, Control_c, 0, 64, 70
1, 988455, Control_c, 0, 64, 57
1, 988470, Control_c, 0, 64, 46
1, 988471, Note_on_c, 0, 62, 35
1, 988475, Note_on_c, 0, 79, 41
1, 988485, Control_c, 0, 64, 50
1, 988487, Note_on_c, 0, 76, 28
1, 988497, Note_on_c, 0, 69, 26
1, 988499, Control_c, 0, 64, 55
1, 988506, Note_off_c, 0, 62, 60
1, 988514, Control_c, 0, 64, 60
1, 988529, Control_c, 0, 64, 64
1, 988545, Control_c, 0, 64, 71
1, 988560, Control_c, 0, 64, 80
1, 988575, Control_c, 0, 64, 88
1, 988590, Control_c, 0, 64, 92
1, 988604, Control_c, 0, 64, 94
1, 988627, Control_c, 0, 64, 96
1, 988633, Note_off_c, 0, 69, 35
1, 988640, Note_off_c, 0, 76, 36
1, 988656, Control_c, 0, 64, 98
1, 988730, Control_c, 0, 64, 93
1, 988745, Control_c, 0, 64, 81
1, 988760, Control_c, 0, 64, 69
1, 988772, Note_on_c, 0, 85, 54
1, 988775, Control_c, 0, 64, 59
1, 988784, Note_on_c, 0, 81, 53
1, 988789, Control_c, 0, 64, 51
1, 988800, Note_on_c, 0, 78, 40
1, 988804, Control_c, 0, 64, 53
1, 988809, Note_on_c, 0, 69, 30
1, 988812, Note_off_c, 0, 85, 57
1, 988819, Control_c, 0, 64, 55
1, 988834, Control_c, 0, 64, 59
1, 988848, Control_c, 0, 64, 63
1, 988863, Control_c, 0, 64, 68
1, 988878, Control_c, 0, 64, 76
1, 988893, Control_c, 0, 64, 85
1, 988897, Note_off_c, 0, 79, 17
1, 988898, Note_off_c, 0, 78, 53
1, 988902, Note_off_c, 0, 81, 55
1, 988908, Control_c, 0, 64, 92
1, 988922, Control_c, 0, 64, 95
1, 988937, Control_c, 0, 64, 99
1, 988952, Control_c, 0, 64, 105
1, 988954, Note_off_c, 0, 69, 38
1, 988967, Control_c, 0, 64, 114
1, 988982, Control_c, 0, 64, 127
1, 989036, Note_on_c, 0, 79, 48
1, 989043, Note_on_c, 0, 76, 47
1, 989053, Note_on_c, 0, 69, 33
1, 989102, Note_off_c, 0, 76, 57
1, 989110, Note_off_c, 0, 69, 41
1, 989293, Control_c, 0, 64, 107
1, 989308, Control_c, 0, 64, 93
1, 989322, Control_c, 0, 64, 79
1, 989336, Note_off_c, 0, 79, 32
1, 989338, Control_c, 0, 64, 66
1, 989354, Control_c, 0, 64, 54
1, 989360, Note_on_c, 0, 78, 45
1, 989360, Note_on_c, 0, 62, 28
1, 989376, Control_c, 0, 64, 46
1, 989387, Note_on_c, 0, 69, 31
1, 989390, Note_on_c, 0, 74, 33
1, 989391, Control_c, 0, 64, 49
1, 989405, Control_c, 0, 64, 54
1, 989420, Control_c, 0, 64, 58
1, 989428, Note_off_c, 0, 62, 60
1, 989435, Control_c, 0, 64, 63
1, 989450, Control_c, 0, 64, 69
1, 989465, Control_c, 0, 64, 77
1, 989480, Control_c, 0, 64, 87
1, 989494, Control_c, 0, 64, 93
1, 989509, Control_c, 0, 64, 95
1, 989524, Control_c, 0, 64, 96
1, 989554, Control_c, 0, 64, 100
1, 989569, Control_c, 0, 64, 103
1, 989584, Control_c, 0, 64, 105
1, 989746, Control_c, 0, 64, 98
1, 989760, Note_on_c, 0, 86, 53
1, 989761, Control_c, 0, 64, 90
1, 989776, Control_c, 0, 64, 79
1, 989791, Control_c, 0, 64, 69
1, 989805, Control_c, 0, 64, 61
1, 989820, Control_c, 0, 64, 52
1, 989831, Note_off_c, 0, 86, 59
1, 989835, Control_c, 0, 64, 48
1, 989865, Control_c, 0, 64, 48
1, 989879, Control_c, 0, 64, 49
1, 989894, Control_c, 0, 64, 52
1, 989909, Control_c, 0, 64, 57
1, 989924, Control_c, 0, 64, 61
1, 989939, Control_c, 0, 64, 65
1, 989953, Control_c, 0, 64, 71
1, 989968, Control_c, 0, 64, 79
1, 989983, Control_c, 0, 64, 88
1, 989998, Control_c, 0, 64, 93
1, 990013, Control_c, 0, 64, 99
1, 990028, Control_c, 0, 64, 104
1, 990031, Note_off_c, 0, 69, 51
1, 990038, Note_off_c, 0, 78, 53
1, 990043, Control_c, 0, 64, 110
1, 990058, Control_c, 0, 64, 125
1, 990061, Note_off_c, 0, 74, 39
1, 990072, Control_c, 0, 64, 127
1, 990553, Note_on_c, 0, 78, 45
1, 990556, Note_on_c, 0, 59, 38
1, 990576, Note_on_c, 0, 71, 30
1, 990583, Control_c, 0, 64, 116
1, 990585, Note_on_c, 0, 74, 41
1, 990598, Control_c, 0, 64, 97
1, 990607, Note_off_c, 0, 59, 59
1, 990613, Control_c, 0, 64, 84
1, 990627, Control_c, 0, 64, 73
1, 990642, Control_c, 0, 64, 63
1, 990657, Control_c, 0, 64, 53
1, 990672, Control_c, 0, 64, 44
1, 990687, Control_c, 0, 64, 42
1, 990746, Control_c, 0, 64, 45
1, 990761, Control_c, 0, 64, 50
1, 990776, Control_c, 0, 64, 55
1, 990791, Control_c, 0, 64, 58
1, 990806, Control_c, 0, 64, 62
1, 990820, Control_c, 0, 64, 65
1, 990835, Control_c, 0, 64, 70
1, 990850, Control_c, 0, 64, 76
1, 990872, Control_c, 0, 64, 80
1, 990887, Control_c, 0, 64, 82
1, 990901, Control_c, 0, 64, 83
1, 990916, Control_c, 0, 64, 87
1, 990931, Control_c, 0, 64, 92
1, 990947, Control_c, 0, 64, 97
1, 990962, Control_c, 0, 64, 100
1, 991006, Control_c, 0, 64, 105
1, 991021, Control_c, 0, 64, 110
1, 991036, Control_c, 0, 64, 116
1, 991050, Control_c, 0, 64, 118
1, 991071, Note_on_c, 0, 90, 48
1, 991077, Note_on_c, 0, 86, 50
1, 991095, Control_c, 0, 64, 122
1, 991125, Control_c, 0, 64, 125
1, 991135, Note_off_c, 0, 86, 55
1, 991162, Note_off_c, 0, 90, 53
1, 991184, Control_c, 0, 64, 122
1, 991258, Control_c, 0, 64, 120
1, 991273, Control_c, 0, 64, 117
1, 991288, Control_c, 0, 64, 110
1, 991303, Control_c, 0, 64, 104
1, 991317, Control_c, 0, 64, 97
1, 991332, Control_c, 0, 64, 90
1, 991347, Control_c, 0, 64, 82
1, 991362, Control_c, 0, 64, 74
1, 991376, Control_c, 0, 64, 66
1, 991391, Control_c, 0, 64, 58
1, 991406, Control_c, 0, 64, 52
1, 991421, Control_c, 0, 64, 51
1, 991436, Control_c, 0, 64, 52
1, 991450, Control_c, 0, 64, 52
1, 991465, Control_c, 0, 64, 53
1, 991480, Control_c, 0, 64, 54
1, 991495, Control_c, 0, 64, 56
1, 991510, Control_c, 0, 64, 59
1, 991524, Control_c, 0, 64, 61
1, 991539, Control_c, 0, 64, 62
1, 991554, Control_c, 0, 64, 65
1, 991569, Control_c, 0, 64, 69
1, 991584, Control_c, 0, 64, 77
1, 991599, Control_c, 0, 64, 83
1, 991621, Control_c, 0, 64, 87
1, 991636, Control_c, 0, 64, 89
1, 991650, Control_c, 0, 64, 92
1, 991665, Control_c, 0, 64, 97
1, 991680, Control_c, 0, 64, 104
1, 991694, Control_c, 0, 64, 120
1, 991709, Control_c, 0, 64, 127
1, 991796, Note_off_c, 0, 71, 37
1, 991811, Note_off_c, 0, 74, 36
1, 991828, Note_off_c, 0, 78, 34
1, 992278, Note_on_c, 0, 76, 40
1, 992286, Note_on_c, 0, 56, 30
1, 992288, Note_on_c, 0, 74, 39
1, 992290, Note_on_c, 0, 71, 33
1, 992317, Control_c, 0, 64, 115
1, 992333, Control_c, 0, 64, 97
1, 992348, Control_c, 0, 64, 83
1, 992371, Control_c, 0, 64, 70
1, 992379, Note_off_c, 0, 56, 41
1, 992386, Control_c, 0, 64, 55
1, 992400, Control_c, 0, 64, 34
1, 992415, Control_c, 0, 64, 0
1, 992445, Control_c, 0, 64, 34
1, 992460, Control_c, 0, 64, 39
1, 992474, Control_c, 0, 64, 45
1, 992489, Control_c, 0, 64, 55
1, 992504, Control_c, 0, 64, 62
1, 992518, Control_c, 0, 64, 66
1, 992533, Control_c, 0, 64, 70
1, 992549, Control_c, 0, 64, 75
1, 992564, Control_c, 0, 64, 80
1, 992579, Control_c, 0, 64, 84
1, 992594, Control_c, 0, 64, 91
1, 992609, Control_c, 0, 64, 99
1, 992623, Control_c, 0, 64, 113
1, 992638, Control_c, 0, 64, 127
1, 993100, Note_on_c, 0, 88, 41
1, 993109, Note_on_c, 0, 83, 37
1, 993136, Note_on_c, 0, 86, 30
1, 994047, Note_off_c, 0, 83, 38
1, 994055, Note_off_c, 0, 71, 41
1, 994074, Note_off_c, 0, 88, 33
1, 994090, Note_off_c, 0, 86, 34
1, 994252, Note_off_c, 0, 76, 33
1, 994263, Note_off_c, 0, 74, 32
1, 994401, Control_c, 0, 67, 107
1, 994416, Control_c, 0, 67, 66
1, 994431, Control_c, 0, 67, 21
1, 994446, Control_c, 0, 67, 0
1, 994847, Note_on_c, 0, 81, 58
1, 994863, Note_on_c, 0, 85, 74
1, 994868, Note_off_c, 0, 81, 60
1, 994881, Note_on_c, 0, 88, 88
1, 994887, Note_off_c, 0, 85, 67
1, 994899, Control_c, 0, 64, 87
1, 994905, Note_off_c, 0, 88, 66
1, 994913, Control_c, 0, 64, 63
1, 994928, Control_c, 0, 64, 0
1, 994928, Control_c, 0, 67, 27
1, 994944, Control_c, 0, 67, 37
1, 994958, Control_c, 0, 67, 51
1, 994973, Control_c, 0, 67, 68
1, 994988, Control_c, 0, 67, 91
1, 995003, Control_c, 0, 67, 113
1, 995018, Control_c, 0, 67, 127
1, 995211, Note_on_c, 0, 73, 59
1, 995211, Note_on_c, 0, 76, 67
1, 995220, Note_on_c, 0, 69, 49
1, 995239, Note_off_c, 0, 76, 67
1, 995240, Note_off_c, 0, 73, 66
1, 995244, Note_off_c, 0, 69, 59
1, 995471, Note_on_c, 0, 64, 49
1, 995478, Note_on_c, 0, 61, 44
1, 995480, Note_on_c, 0, 57, 41
1, 995496, Note_off_c, 0, 64, 59
1, 995504, Note_off_c, 0, 61, 55
1, 995511, Note_off_c, 0, 57, 55
1, 995699, Note_on_c, 0, 56, 66
1, 995703, Note_on_c, 0, 64, 65
1, 995707, Control_c, 0, 67, 99
1, 995714, Note_on_c, 0, 59, 47
1, 995722, Note_off_c, 0, 64, 64
1, 995722, Control_c, 0, 67, 24
1, 995727, Note_off_c, 0, 56, 63
1, 995737, Control_c, 0, 67, 0
1, 995741, Note_off_c, 0, 59, 56
1, 995929, Note_on_c, 0, 68, 55
1, 995936, Note_on_c, 0, 71, 53
1, 995951, Note_off_c, 0, 68, 64
1, 995967, Note_off_c, 0, 71, 65
1, 996023, Note_on_c, 0, 76, 57
1, 996061, Note_off_c, 0, 76, 61
1, 996138, Note_on_c, 0, 64, 50
1, 996144, Note_on_c, 0, 69, 57
1, 996145, Control_c, 0, 64, 64
1, 996145, Note_on_c, 0, 61, 41
1, 996151, Note_on_c, 0, 73, 50
1, 996152, Note_on_c, 0, 57, 27
1, 996160, Control_c, 0, 64, 73
1, 996165, Note_off_c, 0, 69, 62
1, 996174, Control_c, 0, 64, 89
1, 996189, Control_c, 0, 64, 115
1, 996195, Note_off_c, 0, 73, 62
1, 996199, Note_on_c, 0, 76, 71
1, 996204, Control_c, 0, 64, 127
1, 996222, Note_off_c, 0, 64, 58
1, 996225, Note_off_c, 0, 76, 68
1, 996321, Note_on_c, 0, 83, 77
1, 996323, Note_on_c, 0, 88, 93
1, 996327, Note_on_c, 0, 86, 84
1, 996327, Note_off_c, 0, 57, 41
1, 996335, Note_off_c, 0, 83, 71
1, 996343, Note_off_c, 0, 61, 61
1, 996345, Note_off_c, 0, 86, 69
1, 996352, Control_c, 0, 64, 80
1, 996356, Note_off_c, 0, 88, 63
1, 996366, Control_c, 0, 64, 45
1, 996366, Control_c, 0, 67, 21
1, 996381, Control_c, 0, 64, 0
1, 996381, Control_c, 0, 67, 24
1, 996546, Note_on_c, 0, 71, 60
1, 996547, Note_on_c, 0, 76, 57
1, 996551, Note_on_c, 0, 74, 50
1, 996565, Note_off_c, 0, 71, 64
1, 996567, Note_off_c, 0, 76, 62
1, 996577, Note_off_c, 0, 74, 53
1, 996738, Control_c, 0, 67, 22
1, 996747, Note_on_c, 0, 62, 57
1, 996750, Note_on_c, 0, 59, 50
1, 996756, Note_on_c, 0, 64, 46
1, 996780, Note_off_c, 0, 64, 55
1, 996780, Note_off_c, 0, 62, 61
1, 996786, Note_off_c, 0, 59, 58
1, 996950, Note_on_c, 0, 57, 60
1, 996956, Note_on_c, 0, 61, 63
1, 996971, Note_on_c, 0, 64, 25
1, 996971, Note_off_c, 0, 57, 62
1, 996976, Note_off_c, 0, 61, 63
1, 997006, Note_off_c, 0, 64, 32
1, 997086, Control_c, 0, 67, 20
1, 997130, Control_c, 0, 67, 0
1, 997176, Note_on_c, 0, 69, 47
1, 997176, Note_on_c, 0, 73, 56
1, 997200, Note_off_c, 0, 69, 58
1, 997213, Note_off_c, 0, 73, 59
1, 997256, Note_on_c, 0, 76, 62
1, 997289, Note_off_c, 0, 76, 64
1, 997328, Note_on_c, 0, 64, 57
1, 997338, Note_on_c, 0, 59, 42
1, 997338, Control_c, 0, 64, 42
1, 997340, Note_on_c, 0, 62, 51
1, 997346, Note_on_c, 0, 71, 59
1, 997353, Control_c, 0, 64, 62
1, 997359, Note_on_c, 0, 74, 54
1, 997368, Control_c, 0, 64, 70
1, 997373, Note_off_c, 0, 71, 62
1, 997383, Control_c, 0, 64, 79
1, 997398, Control_c, 0, 64, 91
1, 997400, Note_off_c, 0, 74, 65
1, 997400, Note_on_c, 0, 76, 75
1, 997412, Control_c, 0, 64, 127
1, 997415, Note_off_c, 0, 76, 66
1, 997489, Note_off_c, 0, 64, 61
1, 997498, Note_off_c, 0, 59, 62
1, 997502, Note_off_c, 0, 62, 62
1, 997521, Note_on_c, 0, 85, 69
1, 997526, Note_on_c, 0, 93, 83
1, 997528, Note_on_c, 0, 88, 75
1, 997535, Note_off_c, 0, 85, 68
1, 997544, Note_off_c, 0, 88, 68
1, 997544, Note_off_c, 0, 93, 73
1, 997556, Note_on_c, 0, 91, 29
1, 997561, Control_c, 0, 64, 73
1, 997576, Control_c, 0, 64, 44
1, 997585, Note_off_c, 0, 91, 35
1, 997591, Control_c, 0, 64, 0
1, 997613, Control_c, 0, 67, 19
1, 997737, Note_on_c, 0, 73, 76
1, 997742, Note_on_c, 0, 81, 73
1, 997746, Note_on_c, 0, 76, 67
1, 997757, Note_off_c, 0, 81, 68
1, 997759, Note_off_c, 0, 73, 65
1, 997761, Control_c, 0, 67, 0
1, 997763, Note_off_c, 0, 76, 66
1, 997923, Note_on_c, 0, 64, 69
1, 997931, Note_on_c, 0, 61, 54
1, 997948, Note_off_c, 0, 64, 67
1, 997954, Note_off_c, 0, 61, 59
1, 998148, Note_on_c, 0, 67, 84
1, 998148, Note_on_c, 0, 59, 69
1, 998154, Note_on_c, 0, 62, 77
1, 998334, Note_on_c, 0, 74, 72
1, 998340, Note_on_c, 0, 79, 74
1, 998351, Note_off_c, 0, 74, 65
1, 998369, Note_off_c, 0, 79, 70
1, 998483, Note_off_c, 0, 67, 62
1, 998491, Note_off_c, 0, 59, 62
1, 998509, Note_off_c, 0, 62, 62
1, 998532, Note_on_c, 0, 86, 90
1, 998535, Note_on_c, 0, 91, 97
1, 998538, Note_on_c, 0, 83, 49
1, 998549, Note_off_c, 0, 86, 73
1, 998562, Note_off_c, 0, 83, 36
1, 998571, Note_off_c, 0, 91, 66
1, 998686, Control_c, 0, 67, 20
1, 998701, Control_c, 0, 67, 23
1, 998716, Control_c, 0, 67, 28
1, 998728, Note_on_c, 0, 54, 47
1, 998731, Control_c, 0, 67, 37
1, 998746, Note_on_c, 0, 91, 65
1, 998746, Control_c, 0, 67, 53
1, 998759, Note_on_c, 0, 59, 36
1, 998760, Control_c, 0, 67, 76
1, 998772, Note_on_c, 0, 62, 44
1, 998775, Control_c, 0, 67, 93
1, 998780, Note_on_c, 0, 90, 66
1, 998787, Note_off_c, 0, 91, 58
1, 998790, Control_c, 0, 67, 108
1, 998804, Note_off_c, 0, 90, 68
1, 998804, Control_c, 0, 67, 124
1, 998819, Control_c, 0, 67, 127
1, 998840, Note_off_c, 0, 59, 63
1, 998841, Note_off_c, 0, 62, 61
1, 998844, Note_on_c, 0, 89, 67
1, 998846, Note_off_c, 0, 54, 62
1, 998908, Note_off_c, 0, 89, 63
1, 998914, Note_on_c, 0, 90, 60
1, 998939, Note_off_c, 0, 90, 65
1, 998954, Control_c, 0, 67, 102
1, 998969, Control_c, 0, 67, 42
1, 998983, Control_c, 0, 67, 0
1, 998994, Note_on_c, 0, 93, 58
1, 999021, Note_off_c, 0, 93, 67
1, 999079, Note_on_c, 0, 54, 37
1, 999081, Note_on_c, 0, 88, 69
1, 999084, Note_on_c, 0, 61, 41
1, 999085, Note_on_c, 0, 64, 33
1, 999119, Note_off_c, 0, 61, 51
1, 999120, Note_off_c, 0, 54, 50
1, 999120, Note_off_c, 0, 88, 64
1, 999123, Note_off_c, 0, 64, 43
1, 999178, Note_on_c, 0, 94, 63
1, 999206, Note_off_c, 0, 94, 67
1, 999247, Note_on_c, 0, 95, 96
1, 999266, Note_on_c, 0, 59, 55
1, 999266, Note_on_c, 0, 62, 61
1, 999302, Control_c, 0, 64, 60
1, 999317, Control_c, 0, 64, 90
1, 999331, Control_c, 0, 64, 127
1, 999334, Note_on_c, 0, 90, 81
1, 999339, Note_off_c, 0, 95, 62
1, 999430, Note_on_c, 0, 86, 69
1, 999451, Note_off_c, 0, 90, 62
1, 999472, Note_off_c, 0, 86, 58
1, 999506, Note_on_c, 0, 83, 59
1, 999527, Note_off_c, 0, 83, 66
1, 999600, Note_on_c, 0, 74, 70
1, 999621, Note_off_c, 0, 74, 66
1, 999622, Note_off_c, 0, 59, 52
1, 999650, Note_off_c, 0, 62, 41
1, 999768, Note_on_c, 0, 83, 64
1, 999775, Note_on_c, 0, 86, 93
1, 999779, Note_on_c, 0, 91, 97
1, 999785, Note_off_c, 0, 83, 66
1, 999790, Note_off_c, 0, 86, 74
1, 999792, Control_c, 0, 64, 116
1, 999806, Control_c, 0, 64, 71
1, 999810, Note_off_c, 0, 91, 63
1, 999822, Control_c, 0, 64, 38
1, 999837, Control_c, 0, 64, 0
1, 999992, Note_on_c, 0, 79, 74
1, 999994, Note_on_c, 0, 71, 64
1, 999999, Note_on_c, 0, 74, 63
1, 1000012, Note_off_c, 0, 71, 66
1, 1000014, Note_off_c, 0, 79, 68
1, 1000019, Note_off_c, 0, 74, 62
1, 1000181, Note_on_c, 0, 67, 70
1, 1000187, Note_on_c, 0, 59, 60
1, 1000190, Note_on_c, 0, 62, 64
1, 1000203, Note_off_c, 0, 67, 70
1, 1000219, Note_off_c, 0, 59, 63
1, 1000221, Note_off_c, 0, 62, 64
1, 1000393, Note_on_c, 0, 65, 95
1, 1000396, Note_on_c, 0, 57, 76
1, 1000402, Note_on_c, 0, 60, 77
1, 1000589, Note_on_c, 0, 72, 65
1, 1000594, Note_on_c, 0, 77, 74
1, 1000610, Note_on_c, 0, 69, 39
1, 1000613, Note_off_c, 0, 72, 66
1, 1000623, Note_off_c, 0, 77, 71
1, 1000641, Note_off_c, 0, 69, 34
1, 1000769, Note_off_c, 0, 65, 62
1, 1000770, Control_c, 0, 64, 45
1, 1000777, Note_off_c, 0, 57, 62
1, 1000785, Control_c, 0, 64, 68
1, 1000792, Note_off_c, 0, 60, 65
1, 1000800, Control_c, 0, 64, 82
1, 1000803, Note_on_c, 0, 81, 55
1, 1000807, Note_on_c, 0, 84, 86
1, 1000807, Note_on_c, 0, 89, 102
1, 1000814, Control_c, 0, 64, 107
1, 1000814, Control_c, 0, 67, 28
1, 1000825, Note_off_c, 0, 84, 73
1, 1000827, Note_off_c, 0, 81, 58
1, 1000829, Control_c, 0, 64, 122
1, 1000829, Control_c, 0, 67, 40
1, 1000836, Note_off_c, 0, 89, 63
1, 1000844, Control_c, 0, 64, 120
1, 1000844, Control_c, 0, 67, 61
1, 1000859, Control_c, 0, 64, 107
1, 1000859, Control_c, 0, 67, 92
1, 1000874, Control_c, 0, 64, 90
1, 1000874, Control_c, 0, 67, 127
1, 1000888, Control_c, 0, 64, 74
1, 1000903, Control_c, 0, 64, 60
1, 1000918, Control_c, 0, 64, 0
1, 1001063, Note_on_c, 0, 44, 43
1, 1001080, Note_on_c, 0, 89, 62
1, 1001111, Control_c, 0, 64, 48
1, 1001117, Note_on_c, 0, 88, 68
1, 1001126, Control_c, 0, 64, 61
1, 1001141, Control_c, 0, 64, 65
1, 1001155, Control_c, 0, 64, 70
1, 1001159, Note_off_c, 0, 89, 37
1, 1001170, Control_c, 0, 64, 75
1, 1001182, Note_off_c, 0, 88, 56
1, 1001185, Control_c, 0, 64, 81
1, 1001200, Control_c, 0, 64, 87
1, 1001203, Note_on_c, 0, 87, 62
1, 1001214, Control_c, 0, 64, 95
1, 1001229, Control_c, 0, 64, 102
1, 1001242, Note_off_c, 0, 87, 57
1, 1001244, Control_c, 0, 64, 111
1, 1001247, Note_off_c, 0, 44, 44
1, 1001259, Control_c, 0, 64, 122
1, 1001266, Note_on_c, 0, 52, 48
1, 1001274, Control_c, 0, 64, 127
1, 1001285, Note_on_c, 0, 88, 68
1, 1001370, Note_off_c, 0, 88, 58
1, 1001379, Note_on_c, 0, 87, 66
1, 1001452, Note_off_c, 0, 87, 61
1, 1001454, Note_on_c, 0, 59, 47
1, 1001473, Note_on_c, 0, 88, 66
1, 1001481, Note_off_c, 0, 59, 63
1, 1001505, Note_off_c, 0, 88, 64
1, 1001536, Note_on_c, 0, 90, 73
1, 1001540, Note_off_c, 0, 52, 17
1, 1001562, Note_off_c, 0, 90, 63
1, 1001578, Control_c, 0, 64, 101
1, 1001593, Control_c, 0, 64, 76
1, 1001608, Control_c, 0, 64, 58
1, 1001623, Control_c, 0, 64, 0
1, 1001625, Note_on_c, 0, 45, 43
1, 1001650, Note_on_c, 0, 90, 64
1, 1001652, Control_c, 0, 64, 38
1, 1001667, Control_c, 0, 64, 58
1, 1001682, Control_c, 0, 64, 70
1, 1001697, Control_c, 0, 64, 83
1, 1001702, Note_off_c, 0, 45, 57
1, 1001711, Control_c, 0, 64, 104
1, 1001712, Note_off_c, 0, 90, 59
1, 1001725, Note_on_c, 0, 88, 66
1, 1001726, Control_c, 0, 64, 127
1, 1001802, Note_on_c, 0, 52, 43
1, 1001815, Note_on_c, 0, 85, 59
1, 1001820, Note_off_c, 0, 88, 61
1, 1001848, Note_off_c, 0, 85, 61
1, 1001887, Note_on_c, 0, 81, 63
1, 1001919, Note_off_c, 0, 81, 65
1, 1001983, Note_on_c, 0, 76, 71
1, 1001995, Note_on_c, 0, 61, 49
1, 1002009, Note_off_c, 0, 76, 68
1, 1002020, Note_off_c, 0, 61, 58
1, 1002165, Control_c, 0, 64, 90
1, 1002170, Note_off_c, 0, 52, 41
1, 1002180, Control_c, 0, 64, 67
1, 1002193, Note_on_c, 0, 47, 52
1, 1002195, Control_c, 0, 64, 0
1, 1002215, Note_on_c, 0, 76, 82
1, 1002218, Note_on_c, 0, 74, 83
1, 1002237, Note_off_c, 0, 76, 69
1, 1002241, Note_off_c, 0, 74, 68
1, 1002303, Note_off_c, 0, 47, 55
1, 1002313, Note_on_c, 0, 76, 70
1, 1002315, Note_on_c, 0, 74, 62
1, 1002330, Note_off_c, 0, 76, 67
1, 1002336, Note_off_c, 0, 74, 61
1, 1002372, Control_c, 0, 67, 124
1, 1002387, Control_c, 0, 67, 112
1, 1002394, Note_on_c, 0, 76, 74
1, 1002402, Control_c, 0, 67, 99
1, 1002403, Note_on_c, 0, 56, 48
1, 1002408, Note_on_c, 0, 74, 60
1, 1002417, Control_c, 0, 67, 87
1, 1002419, Note_off_c, 0, 76, 67
1, 1002429, Note_off_c, 0, 74, 60
1, 1002432, Control_c, 0, 67, 76
1, 1002446, Control_c, 0, 67, 70
1, 1002461, Control_c, 0, 67, 65
1, 1002476, Note_on_c, 0, 76, 77
1, 1002476, Control_c, 0, 67, 61
1, 1002486, Note_on_c, 0, 74, 73
1, 1002491, Control_c, 0, 67, 56
1, 1002500, Note_off_c, 0, 76, 67
1, 1002505, Note_off_c, 0, 74, 67
1, 1002506, Control_c, 0, 67, 51
1, 1002521, Control_c, 0, 67, 46
1, 1002535, Control_c, 0, 67, 44
1, 1002550, Control_c, 0, 67, 40
1, 1002560, Note_on_c, 0, 62, 49
1, 1002565, Control_c, 0, 67, 34
1, 1002572, Note_on_c, 0, 74, 72
1, 1002579, Control_c, 0, 67, 22
1, 1002580, Note_on_c, 0, 76, 54
1, 1002584, Note_off_c, 0, 62, 59
1, 1002590, Note_off_c, 0, 74, 65
1, 1002594, Control_c, 0, 67, 0
1, 1002603, Note_off_c, 0, 76, 58
1, 1002658, Note_on_c, 0, 76, 61
1, 1002661, Note_on_c, 0, 74, 64
1, 1002682, Note_off_c, 0, 74, 62
1, 1002690, Note_off_c, 0, 76, 61
1, 1002710, Note_off_c, 0, 56, 44
1, 1002752, Note_on_c, 0, 78, 69
1, 1002756, Note_on_c, 0, 73, 60
1, 1002756, Note_on_c, 0, 49, 46
1, 1002793, Note_off_c, 0, 73, 59
1, 1002855, Note_on_c, 0, 76, 71
1, 1002855, Note_off_c, 0, 78, 59
1, 1002930, Note_on_c, 0, 57, 42
1, 1002934, Note_off_c, 0, 76, 59
1, 1002945, Note_on_c, 0, 73, 63
1, 1002977, Note_off_c, 0, 73, 61
1, 1003026, Note_on_c, 0, 69, 57
1, 1003060, Note_off_c, 0, 69, 65
1, 1003067, Note_off_c, 0, 57, 57
1, 1003077, Control_c, 0, 64, 53
1, 1003091, Control_c, 0, 64, 64
1, 1003094, Note_off_c, 0, 49, 42
1, 1003106, Control_c, 0, 64, 70
1, 1003121, Control_c, 0, 64, 77
1, 1003136, Control_c, 0, 64, 82
1, 1003138, Note_on_c, 0, 64, 52
1, 1003138, Note_on_c, 0, 61, 50
1, 1003150, Control_c, 0, 64, 88
1, 1003162, Note_off_c, 0, 61, 59
1, 1003163, Note_off_c, 0, 64, 57
1, 1003165, Control_c, 0, 64, 92
1, 1003180, Control_c, 0, 64, 96
1, 1003195, Control_c, 0, 64, 101
1, 1003210, Control_c, 0, 64, 108
1, 1003224, Control_c, 0, 64, 114
1, 1003239, Control_c, 0, 64, 122
1, 1003254, Control_c, 0, 64, 125
1, 1003299, Control_c, 0, 64, 110
1, 1003314, Control_c, 0, 64, 86
1, 1003329, Control_c, 0, 64, 64
1, 1003344, Control_c, 0, 64, 0
1, 1003348, Note_on_c, 0, 47, 47
1, 1003359, Note_on_c, 0, 64, 54
1, 1003386, Note_off_c, 0, 64, 62
1, 1003447, Note_on_c, 0, 66, 57
1, 1003496, Note_off_c, 0, 66, 56
1, 1003514, Note_off_c, 0, 47, 36
1, 1003530, Note_on_c, 0, 50, 50
1, 1003541, Note_on_c, 0, 62, 63
1, 1003557, Note_off_c, 0, 50, 53
1, 1003577, Note_off_c, 0, 62, 61
1, 1003624, Note_on_c, 0, 66, 58
1, 1003670, Note_off_c, 0, 66, 59
1, 1003725, Note_on_c, 0, 68, 61
1, 1003743, Note_on_c, 0, 61, 50
1, 1003749, Note_on_c, 0, 64, 31
1, 1003750, Note_on_c, 0, 52, 36
1, 1003783, Note_off_c, 0, 52, 47
1, 1003789, Note_off_c, 0, 64, 47
1, 1003794, Note_off_c, 0, 68, 55
1, 1003798, Note_off_c, 0, 61, 57
1, 1003823, Note_on_c, 0, 59, 49
1, 1003825, Note_on_c, 0, 62, 45
1, 1003846, Note_off_c, 0, 59, 57
1, 1003852, Note_off_c, 0, 62, 58
1, 1003923, Note_on_c, 0, 69, 54
1, 1003934, Note_on_c, 0, 61, 42
1, 1004021, Note_on_c, 0, 57, 54
1, 1004065, Note_off_c, 0, 57, 59
1, 1004110, Note_on_c, 0, 52, 49
1, 1004140, Note_off_c, 0, 52, 62
1, 1004202, Note_on_c, 0, 49, 53
1, 1004243, Note_off_c, 0, 69, 58
1, 1004245, Note_off_c, 0, 49, 62
1, 1004255, Control_c, 0, 64, 62
1, 1004270, Control_c, 0, 64, 77
1, 1004284, Note_off_c, 0, 61, 62
1, 1004285, Control_c, 0, 64, 103
1, 1004295, Note_on_c, 0, 45, 69
1, 1004299, Control_c, 0, 64, 127
1, 1004319, Note_off_c, 0, 45, 63
1, 1004563, Note_on_c, 0, 41, 90
1, 1004566, Note_on_c, 0, 53, 101
1, 1004596, Note_on_c, 0, 52, 81
1, 1004614, Note_on_c, 0, 40, 77
1, 1004627, Note_off_c, 0, 41, 61
1, 1004633, Control_c, 0, 64, 116
1, 1004647, Control_c, 0, 64, 73
1, 1004662, Control_c, 0, 64, 48
1, 1004677, Control_c, 0, 64, 0
1, 1004687, Note_on_c, 0, 51, 85
1, 1004691, Note_off_c, 0, 53, 61
1, 1004694, Note_off_c, 0, 52, 61
1, 1004706, Note_on_c, 0, 39, 77
1, 1004718, Note_off_c, 0, 40, 62
1, 1004731, Note_on_c, 0, 38, 68
1, 1004750, Note_off_c, 0, 39, 56
1, 1004766, Control_c, 0, 64, 47
1, 1004774, Note_on_c, 0, 52, 83
1, 1004780, Control_c, 0, 64, 66
1, 1004786, Note_off_c, 0, 38, 55
1, 1004793, Note_on_c, 0, 40, 73
1, 1004795, Control_c, 0, 64, 76
1, 1004810, Control_c, 0, 64, 94
1, 1004825, Control_c, 0, 64, 127
1, 1004845, Note_off_c, 0, 51, 0
1, 1004845, Note_on_c, 0, 51, 58
1, 1004862, Note_off_c, 0, 52, 61
1, 1004873, Note_on_c, 0, 39, 55
1, 1004876, Note_off_c, 0, 40, 61
1, 1004941, Note_on_c, 0, 52, 82
1, 1004955, Note_on_c, 0, 40, 79
1, 1004961, Note_off_c, 0, 39, 58
1, 1004965, Note_off_c, 0, 51, 54
1, 1005027, Note_on_c, 0, 53, 83
1, 1005044, Note_on_c, 0, 41, 85
1, 1005057, Note_off_c, 0, 52, 62
1, 1005060, Note_off_c, 0, 40, 59
1, 1005076, Note_off_c, 0, 53, 64
1, 1005076, Note_off_c, 0, 41, 66
1, 1005129, Control_c, 0, 64, 80
1, 1005144, Control_c, 0, 64, 47
1, 1005147, Note_on_c, 0, 53, 97
1, 1005159, Note_on_c, 0, 41, 102
1, 1005159, Control_c, 0, 64, 0
1, 1005204, Control_c, 0, 64, 50
1, 1005219, Control_c, 0, 64, 71
1, 1005234, Control_c, 0, 64, 93
1, 1005244, Note_on_c, 0, 52, 97
1, 1005246, Note_on_c, 0, 40, 85
1, 1005248, Control_c, 0, 64, 127
1, 1005261, Note_off_c, 0, 41, 61
1, 1005269, Note_off_c, 0, 53, 61
1, 1005302, Note_off_c, 0, 40, 63
1, 1005335, Note_on_c, 0, 36, 96
1, 1005335, Note_on_c, 0, 48, 85
1, 1005338, Note_on_c, 0, 38, 84
1, 1005348, Note_off_c, 0, 52, 57
1, 1005383, Note_off_c, 0, 36, 60
1, 1005392, Note_off_c, 0, 48, 64
1, 1005424, Note_on_c, 0, 43, 69
1, 1005424, Note_on_c, 0, 56, 69
1, 1005433, Note_on_c, 0, 55, 88
1, 1005434, Note_on_c, 0, 45, 76
1, 1005443, Note_off_c, 0, 56, 65
1, 1005451, Note_off_c, 0, 38, 61
1, 1005502, Note_off_c, 0, 55, 0
1, 1005514, Note_on_c, 0, 52, 93
1, 1005514, Note_off_c, 0, 43, 63
1, 1005517, Note_on_c, 0, 64, 87
1, 1005530, Poly_aftertouch_c, 0, 55, 0
1, 1005535, Note_on_c, 0, 60, 69
1, 1005538, Note_off_c, 0, 52, 70
1, 1005544, Note_off_c, 0, 45, 43
1, 1005553, Note_off_c, 0, 60, 69
1, 1005560, Control_c, 0, 64, 109
1, 1005569, Note_off_c, 0, 64, 63
1, 1005575, Control_c, 0, 64, 72
1, 1005590, Control_c, 0, 64, 44
1, 1005604, Control_c, 0, 64, 0
1, 1005732, Note_on_c, 0, 64, 87
1, 1005737, Note_on_c, 0, 52, 91
1, 1005816, Note_on_c, 0, 62, 88
1, 1005822, Note_on_c, 0, 50, 34
1, 1005827, Note_off_c, 0, 52, 58
1, 1005878, Note_off_c, 0, 64, 55
1, 1005878, Control_c, 0, 64, 54
1, 1005893, Control_c, 0, 64, 67
1, 1005908, Control_c, 0, 64, 75
1, 1005914, Note_on_c, 0, 59, 82
1, 1005923, Control_c, 0, 64, 88
1, 1005930, Note_on_c, 0, 47, 83
1, 1005937, Note_off_c, 0, 50, 62
1, 1005937, Control_c, 0, 64, 110
1, 1005952, Control_c, 0, 64, 127
1, 1005954, Note_off_c, 0, 62, 58
1, 1005985, Note_on_c, 0, 55, 86
1, 1005991, Note_on_c, 0, 43, 77
1, 1005992, Note_off_c, 0, 47, 64
1, 1006002, Note_off_c, 0, 59, 63
1, 1006048, Note_off_c, 0, 55, 61
1, 1006082, Note_off_c, 0, 43, 64
1, 1006090, Note_on_c, 0, 50, 84
1, 1006090, Note_on_c, 0, 55, 82
1, 1006090, Note_on_c, 0, 59, 85
1, 1006090, Note_on_c, 0, 67, 90
1, 1006108, Note_off_c, 0, 59, 72
1, 1006112, Note_off_c, 0, 50, 70
1, 1006112, Note_off_c, 0, 55, 70
1, 1006131, Control_c, 0, 64, 74
1, 1006131, Control_c, 0, 67, 19
1, 1006146, Control_c, 0, 64, 49
1, 1006146, Control_c, 0, 67, 29
1, 1006161, Control_c, 0, 64, 0
1, 1006161, Control_c, 0, 67, 45
1, 1006176, Control_c, 0, 67, 75
1, 1006190, Control_c, 0, 67, 117
1, 1006205, Control_c, 0, 67, 127
1, 1006227, Note_off_c, 0, 67, 37
1, 1006310, Note_on_c, 0, 60, 65
1, 1006314, Note_on_c, 0, 65, 74
1, 1006323, Note_on_c, 0, 55, 67
1, 1006325, Note_on_c, 0, 48, 64
1, 1006339, Control_c, 0, 67, 119
1, 1006348, Note_off_c, 0, 55, 66
1, 1006351, Note_off_c, 0, 48, 66
1, 1006353, Control_c, 0, 67, 57
1, 1006358, Note_off_c, 0, 60, 51
1, 1006368, Control_c, 0, 67, 0
1, 1006402, Note_on_c, 0, 64, 73
1, 1006438, Note_off_c, 0, 65, 60
1, 1006489, Note_off_c, 0, 64, 59
1, 1006489, Note_on_c, 0, 67, 82
1, 1006494, Note_on_c, 0, 59, 77
1, 1006503, Note_on_c, 0, 55, 67
1, 1006512, Note_on_c, 0, 50, 57
1, 1006544, Note_off_c, 0, 55, 59
1, 1006547, Note_off_c, 0, 50, 63
1, 1006575, Note_on_c, 0, 65, 91
1, 1006599, Note_off_c, 0, 59, 56
1, 1006605, Note_off_c, 0, 67, 62
1, 1006677, Note_on_c, 0, 55, 67
1, 1006682, Note_on_c, 0, 60, 87
1, 1006682, Note_on_c, 0, 69, 84
1, 1006685, Note_on_c, 0, 52, 67
1, 1006691, Note_off_c, 0, 65, 47
1, 1006704, Note_off_c, 0, 55, 66
1, 1006715, Note_off_c, 0, 52, 66
1, 1006723, Note_off_c, 0, 60, 63
1, 1006769, Note_on_c, 0, 67, 88
1, 1006856, Note_off_c, 0, 69, 55
1, 1006867, Note_on_c, 0, 62, 89
1, 1006873, Note_on_c, 0, 59, 81
1, 1006881, Note_off_c, 0, 67, 62
1, 1006973, Note_on_c, 0, 55, 69
1, 1007027, Note_off_c, 0, 55, 60
1, 1007052, Note_on_c, 0, 50, 67
1, 1007088, Note_off_c, 0, 50, 63
1, 1007142, Note_on_c, 0, 47, 61
1, 1007162, Control_c, 0, 64, 35
1, 1007175, Note_off_c, 0, 59, 48
1, 1007176, Note_off_c, 0, 47, 64
1, 1007176, Control_c, 0, 64, 57
1, 1007191, Control_c, 0, 64, 66
1, 1007206, Control_c, 0, 64, 70
1, 1007221, Control_c, 0, 64, 79
1, 1007235, Note_off_c, 0, 62, 63
1, 1007236, Control_c, 0, 64, 87
1, 1007243, Note_on_c, 0, 43, 50
1, 1007250, Control_c, 0, 64, 94
1, 1007265, Control_c, 0, 64, 98
1, 1007281, Note_off_c, 0, 43, 49
1, 1007407, Control_c, 0, 64, 94
1, 1007422, Control_c, 0, 64, 89
1, 1007436, Control_c, 0, 64, 83
1, 1007451, Control_c, 0, 64, 76
1, 1007466, Control_c, 0, 64, 68
1, 1007481, Control_c, 0, 64, 57
1, 1007487, Note_on_c, 0, 43, 29
1, 1007488, Note_on_c, 0, 67, 38
1, 1007491, Note_on_c, 0, 59, 40
1, 1007496, Control_c, 0, 64, 0
1, 1007523, Note_on_c, 0, 65, 61
1, 1007538, Note_off_c, 0, 67, 45
1, 1007591, Note_off_c, 0, 65, 63
1, 1007596, Note_on_c, 0, 64, 62
1, 1007644, Control_c, 0, 64, 53
1, 1007659, Control_c, 0, 64, 65
1, 1007674, Control_c, 0, 64, 70
1, 1007677, Note_off_c, 0, 64, 59
1, 1007688, Note_on_c, 0, 50, 45
1, 1007689, Control_c, 0, 64, 77
1, 1007695, Note_on_c, 0, 65, 72
1, 1007703, Control_c, 0, 64, 84
1, 1007711, Note_off_c, 0, 43, 41
1, 1007720, Control_c, 0, 64, 92
1, 1007735, Control_c, 0, 64, 102
1, 1007749, Control_c, 0, 64, 116
1, 1007764, Control_c, 0, 64, 127
1, 1007769, Note_off_c, 0, 65, 61
1, 1007787, Note_on_c, 0, 64, 68
1, 1007845, Note_on_c, 0, 55, 55
1, 1007866, Note_on_c, 0, 65, 79
1, 1007867, Note_off_c, 0, 64, 60
1, 1007885, Note_off_c, 0, 59, 36
1, 1007888, Note_off_c, 0, 55, 61
1, 1007958, Note_on_c, 0, 69, 76
1, 1007973, Note_off_c, 0, 65, 52
1, 1008009, Note_off_c, 0, 69, 60
1, 1008030, Control_c, 0, 64, 107
1, 1008031, Note_off_c, 0, 50, 40
1, 1008045, Control_c, 0, 64, 80
1, 1008054, Note_on_c, 0, 43, 45
1, 1008060, Control_c, 0, 64, 62
1, 1008074, Note_on_c, 0, 69, 61
1, 1008074, Control_c, 0, 64, 0
1, 1008081, Note_on_c, 0, 60, 62
1, 1008083, Note_on_c, 0, 64, 58
1, 1008122, Note_off_c, 0, 64, 65
1, 1008158, Note_off_c, 0, 60, 61
1, 1008167, Note_on_c, 0, 67, 75
1, 1008186, Control_c, 0, 64, 50
1, 1008200, Control_c, 0, 64, 67
1, 1008215, Control_c, 0, 64, 76
1, 1008230, Control_c, 0, 64, 91
1, 1008245, Control_c, 0, 64, 100
1, 1008252, Note_on_c, 0, 52, 60
1, 1008253, Note_off_c, 0, 43, 59
1, 1008260, Control_c, 0, 64, 110
1, 1008267, Note_on_c, 0, 64, 75
1, 1008274, Control_c, 0, 64, 127
1, 1008280, Note_off_c, 0, 69, 34
1, 1008327, Note_off_c, 0, 64, 58
1, 1008334, Note_on_c, 0, 60, 77
1, 1008414, Note_off_c, 0, 60, 63
1, 1008415, Note_off_c, 0, 67, 39
1, 1008423, Note_on_c, 0, 55, 64
1, 1008426, Note_on_c, 0, 64, 68
1, 1008447, Note_off_c, 0, 64, 64
1, 1008471, Note_off_c, 0, 55, 58
1, 1008531, Note_on_c, 0, 77, 59
1, 1008533, Note_on_c, 0, 76, 68
1, 1008550, Note_off_c, 0, 77, 66
1, 1008557, Control_c, 0, 64, 93
1, 1008559, Note_off_c, 0, 76, 66
1, 1008566, Note_off_c, 0, 52, 51
1, 1008572, Control_c, 0, 64, 68
1, 1008587, Control_c, 0, 64, 0
1, 1008617, Note_on_c, 0, 76, 82
1, 1008623, Note_on_c, 0, 65, 70
1, 1008631, Note_on_c, 0, 43, 42
1, 1008641, Note_off_c, 0, 65, 65
1, 1008700, Note_on_c, 0, 74, 82
1, 1008718, Note_off_c, 0, 76, 62
1, 1008724, Note_off_c, 0, 74, 66
1, 1008788, Note_on_c, 0, 50, 56
1, 1008799, Note_on_c, 0, 72, 81
1, 1008812, Note_on_c, 0, 62, 63
1, 1008817, Note_on_c, 0, 65, 55
1, 1008843, Note_off_c, 0, 62, 58
1, 1008863, Note_off_c, 0, 65, 45
1, 1008881, Note_off_c, 0, 72, 53
1, 1008887, Note_on_c, 0, 71, 69
1, 1008912, Note_off_c, 0, 71, 69
1, 1008915, Note_off_c, 0, 43, 37
1, 1008986, Note_on_c, 0, 69, 77
1, 1008991, Note_on_c, 0, 55, 59
1, 1008993, Note_on_c, 0, 59, 68
1, 1009017, Note_on_c, 0, 64, 24
1, 1009030, Note_off_c, 0, 59, 54
1, 1009051, Note_off_c, 0, 64, 41
1, 1009058, Note_off_c, 0, 69, 58
1, 1009062, Note_on_c, 0, 67, 68
1, 1009074, Note_off_c, 0, 55, 61
1, 1009102, Note_off_c, 0, 67, 60
1, 1009139, Note_off_c, 0, 50, 50
1, 1009176, Note_on_c, 0, 69, 68
1, 1009178, Note_on_c, 0, 43, 45
1, 1009183, Note_on_c, 0, 64, 45
1, 1009187, Note_on_c, 0, 60, 55
1, 1009231, Note_off_c, 0, 64, 60
1, 1009243, Note_off_c, 0, 60, 55
1, 1009273, Note_on_c, 0, 67, 63
1, 1009282, Note_off_c, 0, 69, 55
1, 1009358, Note_on_c, 0, 52, 45
1, 1009365, Note_on_c, 0, 64, 72
1, 1009371, Note_off_c, 0, 43, 53
1, 1009373, Note_off_c, 0, 67, 61
1, 1009379, Control_c, 0, 64, 40
1, 1009394, Control_c, 0, 64, 59
1, 1009409, Control_c, 0, 64, 67
1, 1009424, Control_c, 0, 64, 74
1, 1009431, Note_off_c, 0, 64, 59
1, 1009438, Control_c, 0, 64, 81
1, 1009451, Note_on_c, 0, 60, 70
1, 1009453, Control_c, 0, 64, 89
1, 1009461, Note_off_c, 0, 52, 53
1, 1009468, Control_c, 0, 64, 98
1, 1009483, Control_c, 0, 64, 110
1, 1009484, Note_off_c, 0, 60, 64
1, 1009498, Control_c, 0, 64, 127
1, 1009538, Note_on_c, 0, 55, 75
1, 1009562, Note_off_c, 0, 55, 69
1, 1009727, Control_c, 0, 64, 120
1, 1009742, Control_c, 0, 64, 94
1, 1009757, Control_c, 0, 64, 79
1, 1009771, Control_c, 0, 64, 67
1, 1009781, Note_on_c, 0, 43, 33
1, 1009782, Note_on_c, 0, 79, 67
1, 1009786, Control_c, 0, 64, 52
1, 1009788, Note_on_c, 0, 71, 60
1, 1009801, Control_c, 0, 64, 0
1, 1009812, Note_on_c, 0, 77, 70
1, 1009868, Note_off_c, 0, 79, 57
1, 1009882, Note_on_c, 0, 76, 84
1, 1009885, Note_off_c, 0, 71, 0
1, 1009885, Note_on_c, 0, 71, 23
1, 1009887, Note_off_c, 0, 77, 65
1, 1009961, Note_on_c, 0, 77, 88
1, 1009965, Note_off_c, 0, 76, 62
1, 1009973, Note_on_c, 0, 50, 51
1, 1009994, Control_c, 0, 64, 43
1, 1010009, Control_c, 0, 64, 62
1, 1010024, Control_c, 0, 64, 70
1, 1010038, Control_c, 0, 64, 78
1, 1010041, Note_on_c, 0, 76, 88
1, 1010044, Note_off_c, 0, 77, 65
1, 1010053, Control_c, 0, 64, 85
1, 1010068, Control_c, 0, 64, 93
1, 1010083, Control_c, 0, 64, 101
1, 1010097, Control_c, 0, 64, 113
1, 1010113, Control_c, 0, 64, 127
1, 1010122, Note_on_c, 0, 55, 58
1, 1010132, Note_on_c, 0, 77, 86
1, 1010143, Note_off_c, 0, 43, 40
1, 1010152, Note_off_c, 0, 76, 49
1, 1010185, Note_off_c, 0, 55, 56
1, 1010188, Note_off_c, 0, 71, 40
1, 1010221, Note_on_c, 0, 81, 89
1, 1010249, Note_off_c, 0, 77, 62
1, 1010265, Note_off_c, 0, 81, 66
1, 1010291, Note_on_c, 0, 43, 45
1, 1010296, Note_off_c, 0, 50, 56
1, 1010326, Note_on_c, 0, 81, 93
1, 1010335, Note_on_c, 0, 72, 74
1, 1010344, Note_on_c, 0, 76, 74
1, 1010373, Control_c, 0, 64, 99
1, 1010388, Control_c, 0, 64, 73
1, 1010395, Note_off_c, 0, 76, 60
1, 1010402, Control_c, 0, 64, 48
1, 1010417, Control_c, 0, 64, 0
1, 1010429, Note_off_c, 0, 72, 61
1, 1010432, Note_on_c, 0, 79, 89
1, 1010492, Control_c, 0, 64, 42
1, 1010496, Note_off_c, 0, 43, 59
1, 1010507, Control_c, 0, 64, 63
1, 1010513, Note_on_c, 0, 52, 64
1, 1010521, Note_on_c, 0, 76, 89
1, 1010521, Control_c, 0, 64, 73
1, 1010536, Control_c, 0, 64, 85
1, 1010551, Control_c, 0, 64, 100
1, 1010566, Control_c, 0, 64, 122
1, 1010581, Control_c, 0, 64, 127
1, 1010589, Note_off_c, 0, 81, 0
1, 1010591, Note_on_c, 0, 72, 79
1, 1010596, Note_off_c, 0, 76, 64
1, 1010626, Poly_aftertouch_c, 0, 81, 127
1, 1010646, Note_off_c, 0, 79, 59
1, 1010667, Note_off_c, 0, 72, 63
1, 1010683, Note_on_c, 0, 76, 83
1, 1010688, Note_on_c, 0, 55, 62
1, 1010702, Note_off_c, 0, 76, 72
1, 1010712, Poly_aftertouch_c, 0, 81, 0
1, 1010733, Note_off_c, 0, 55, 57
1, 1010781, Note_on_c, 0, 88, 90
1, 1010802, Control_c, 0, 64, 117
1, 1010817, Control_c, 0, 64, 80
1, 1010826, Note_off_c, 0, 88, 64
1, 1010832, Control_c, 0, 64, 63
1, 1010836, Note_off_c, 0, 52, 57
1, 1010847, Control_c, 0, 64, 0
1, 1010873, Note_on_c, 0, 88, 77
1, 1010879, Note_on_c, 0, 83, 74
1, 1010880, Note_on_c, 0, 77, 75
1, 1010882, Note_on_c, 0, 43, 50
1, 1010915, Note_off_c, 0, 83, 61
1, 1010946, Note_off_c, 0, 77, 60
1, 1010955, Note_on_c, 0, 86, 84
1, 1010981, Note_off_c, 0, 88, 64
1, 1010993, Note_off_c, 0, 86, 63
1, 1011057, Note_on_c, 0, 74, 82
1, 1011058, Note_on_c, 0, 84, 85
1, 1011059, Note_on_c, 0, 50, 59
1, 1011067, Note_on_c, 0, 77, 67
1, 1011103, Note_off_c, 0, 74, 50
1, 1011103, Note_off_c, 0, 77, 63
1, 1011141, Note_off_c, 0, 43, 56
1, 1011142, Note_on_c, 0, 83, 78
1, 1011157, Note_off_c, 0, 84, 61
1, 1011171, Note_off_c, 0, 83, 59
1, 1011243, Note_on_c, 0, 55, 56
1, 1011249, Note_on_c, 0, 81, 80
1, 1011255, Note_on_c, 0, 77, 67
1, 1011255, Note_on_c, 0, 71, 67
1, 1011297, Note_off_c, 0, 71, 52
1, 1011312, Note_off_c, 0, 77, 54
1, 1011324, Note_on_c, 0, 79, 74
1, 1011329, Note_off_c, 0, 81, 56
1, 1011363, Note_off_c, 0, 79, 60
1, 1011383, Note_off_c, 0, 50, 57
1, 1011434, Note_on_c, 0, 43, 37
1, 1011441, Note_on_c, 0, 81, 74
1, 1011458, Note_on_c, 0, 76, 58
1, 1011461, Note_on_c, 0, 72, 47
1, 1011490, Note_off_c, 0, 76, 65
1, 1011517, Note_off_c, 0, 72, 38
1, 1011522, Control_c, 0, 64, 48
1, 1011526, Note_on_c, 0, 79, 83
1, 1011537, Control_c, 0, 64, 64
1, 1011551, Control_c, 0, 64, 71
1, 1011557, Note_off_c, 0, 55, 16
1, 1011566, Control_c, 0, 64, 82
1, 1011581, Control_c, 0, 64, 95
1, 1011596, Control_c, 0, 64, 118
1, 1011606, Note_off_c, 0, 81, 34
1, 1011610, Control_c, 0, 64, 127
1, 1011615, Note_on_c, 0, 52, 66
1, 1011619, Note_on_c, 0, 76, 87
1, 1011690, Note_off_c, 0, 76, 63
1, 1011692, Note_on_c, 0, 72, 79
1, 1011723, Note_off_c, 0, 43, 39
1, 1011765, Note_off_c, 0, 79, 41
1, 1011775, Note_off_c, 0, 72, 63
1, 1011780, Note_on_c, 0, 76, 81
1, 1011788, Note_on_c, 0, 55, 61
1, 1011799, Note_off_c, 0, 76, 72
1, 1011816, Note_off_c, 0, 55, 65
1, 1011884, Note_on_c, 0, 88, 90
1, 1011915, Control_c, 0, 64, 89
1, 1011926, Note_off_c, 0, 88, 63
1, 1011927, Note_off_c, 0, 52, 59
1, 1011930, Control_c, 0, 64, 68
1, 1011945, Control_c, 0, 64, 46
1, 1011960, Control_c, 0, 64, 0
1, 1011977, Note_on_c, 0, 88, 79
1, 1011983, Note_on_c, 0, 77, 77
1, 1011986, Note_on_c, 0, 83, 71
1, 1011988, Note_on_c, 0, 43, 48
1, 1012009, Note_off_c, 0, 83, 70
1, 1012037, Note_off_c, 0, 77, 51
1, 1012060, Note_on_c, 0, 86, 78
1, 1012075, Note_off_c, 0, 88, 65
1, 1012084, Note_off_c, 0, 86, 68
1, 1012156, Note_on_c, 0, 50, 56
1, 1012164, Note_on_c, 0, 84, 84
1, 1012167, Note_on_c, 0, 74, 82
1, 1012175, Note_on_c, 0, 77, 60
1, 1012191, Note_off_c, 0, 74, 64
1, 1012194, Note_off_c, 0, 77, 66
1, 1012240, Note_on_c, 0, 83, 76
1, 1012240, Note_off_c, 0, 84, 57
1, 1012267, Note_off_c, 0, 83, 60
1, 1012276, Note_off_c, 0, 43, 39
1, 1012344, Note_on_c, 0, 55, 48
1, 1012349, Note_on_c, 0, 81, 80
1, 1012358, Note_on_c, 0, 71, 62
1, 1012361, Note_on_c, 0, 77, 55
1, 1012382, Note_off_c, 0, 71, 55
1, 1012401, Note_off_c, 0, 77, 55
1, 1012416, Note_off_c, 0, 81, 62
1, 1012423, Note_on_c, 0, 79, 66
1, 1012453, Note_off_c, 0, 79, 64
1, 1012464, Note_off_c, 0, 50, 56
1, 1012528, Note_on_c, 0, 43, 37
1, 1012540, Note_on_c, 0, 81, 73
1, 1012553, Note_on_c, 0, 72, 52
1, 1012556, Note_on_c, 0, 76, 57
1, 1012600, Note_off_c, 0, 76, 63
1, 1012629, Note_off_c, 0, 72, 55
1, 1012633, Note_on_c, 0, 79, 80
1, 1012687, Note_off_c, 0, 81, 48
1, 1012699, Note_off_c, 0, 55, 41
1, 1012719, Note_on_c, 0, 52, 51
1, 1012728, Note_on_c, 0, 76, 82
1, 1012761, Note_off_c, 0, 79, 60
1, 1012796, Note_off_c, 0, 76, 60
1, 1012815, Note_on_c, 0, 72, 74
1, 1012850, Note_off_c, 0, 72, 63
1, 1012882, Note_off_c, 0, 43, 42
1, 1012895, Note_on_c, 0, 55, 47
1, 1012904, Note_on_c, 0, 67, 70
1, 1012927, Note_off_c, 0, 67, 70
1, 1013077, Note_off_c, 0, 52, 44
1, 1013101, Note_on_c, 0, 43, 33
1, 1013103, Note_on_c, 0, 81, 74
1, 1013104, Note_on_c, 0, 72, 66
1, 1013112, Note_on_c, 0, 76, 64
1, 1013154, Note_off_c, 0, 72, 52
1, 1013166, Note_off_c, 0, 76, 59
1, 1013187, Note_on_c, 0, 79, 75
1, 1013222, Note_off_c, 0, 81, 56
1, 1013240, Note_off_c, 0, 55, 38
1, 1013294, Note_on_c, 0, 76, 67
1, 1013298, Note_off_c, 0, 79, 58
1, 1013300, Note_on_c, 0, 52, 44
1, 1013345, Note_off_c, 0, 76, 59
1, 1013386, Note_on_c, 0, 72, 58
1, 1013410, Note_off_c, 0, 72, 62
1, 1013457, Note_off_c, 0, 43, 41
1, 1013472, Note_on_c, 0, 55, 39
1, 1013485, Note_on_c, 0, 67, 50
1, 1013509, Note_off_c, 0, 67, 61
1, 1013684, Note_on_c, 0, 81, 69
1, 1013685, Note_off_c, 0, 52, 41
1, 1013690, Note_on_c, 0, 72, 56
1, 1013695, Note_on_c, 0, 43, 28
1, 1013702, Note_on_c, 0, 76, 48
1, 1013723, Note_off_c, 0, 72, 57
1, 1013736, Note_off_c, 0, 81, 42
1, 1013740, Note_off_c, 0, 76, 54
1, 1013777, Note_on_c, 0, 79, 61
1, 1013810, Note_off_c, 0, 55, 33
1, 1013861, Note_on_c, 0, 52, 34
1, 1013866, Note_off_c, 0, 79, 55
1, 1013869, Note_on_c, 0, 76, 49
1, 1013914, Note_off_c, 0, 76, 51
1, 1013956, Note_on_c, 0, 72, 51
1, 1013991, Note_off_c, 0, 72, 64
1, 1014059, Note_off_c, 0, 43, 53
1, 1014063, Note_on_c, 0, 55, 42
1, 1014063, Note_on_c, 0, 67, 54
1, 1014063, Control_c, 0, 64, 44
1, 1014086, Control_c, 0, 64, 61
1, 1014092, Note_off_c, 0, 67, 61
1, 1014101, Control_c, 0, 64, 68
1, 1014102, Note_off_c, 0, 55, 62
1, 1014109, Note_off_c, 0, 52, 57
1, 1014117, Control_c, 0, 64, 78
1, 1014132, Control_c, 0, 64, 95
1, 1014146, Control_c, 0, 64, 127
1, 1014320, Note_on_c, 0, 56, 97
1, 1014322, Note_on_c, 0, 93, 105
1, 1014328, Note_on_c, 0, 52, 75
1, 1014332, Note_on_c, 0, 49, 79
1, 1014345, Note_off_c, 0, 56, 62
1, 1014349, Note_on_c, 0, 44, 48
1, 1014361, Note_off_c, 0, 52, 55
1, 1014364, Note_off_c, 0, 49, 64
1, 1014382, Note_on_c, 0, 92, 76
1, 1014383, Control_c, 0, 64, 115
1, 1014384, Note_off_c, 0, 44, 54
1, 1014398, Control_c, 0, 64, 72
1, 1014413, Control_c, 0, 64, 50
1, 1014428, Control_c, 0, 64, 0
1, 1014436, Note_on_c, 0, 90, 81
1, 1014465, Note_off_c, 0, 93, 61
1, 1014477, Note_off_c, 0, 92, 65
1, 1014489, Note_on_c, 0, 88, 86
1, 1014494, Note_off_c, 0, 90, 65
1, 1014534, Note_off_c, 0, 88, 56
1, 1014547, Note_on_c, 0, 56, 87
1, 1014551, Note_on_c, 0, 52, 74
1, 1014553, Note_on_c, 0, 87, 87
1, 1014555, Note_on_c, 0, 49, 71
1, 1014558, Note_on_c, 0, 44, 71
1, 1014597, Note_on_c, 0, 85, 80
1, 1014638, Note_on_c, 0, 83, 77
1, 1014647, Note_off_c, 0, 87, 64
1, 1014663, Note_off_c, 0, 85, 65
1, 1014674, Note_off_c, 0, 83, 63
1, 1014680, Note_on_c, 0, 81, 75
1, 1014694, Control_c, 0, 64, 52
1, 1014709, Control_c, 0, 64, 67
1, 1014710, Note_off_c, 0, 81, 58
1, 1014724, Control_c, 0, 64, 74
1, 1014737, Note_on_c, 0, 80, 78
1, 1014739, Control_c, 0, 64, 81
1, 1014753, Control_c, 0, 64, 88
1, 1014768, Control_c, 0, 64, 97
1, 1014777, Note_on_c, 0, 78, 85
1, 1014783, Control_c, 0, 64, 110
1, 1014798, Control_c, 0, 64, 127
1, 1014804, Note_off_c, 0, 80, 64
1, 1014837, Note_off_c, 0, 78, 65
1, 1014839, Note_on_c, 0, 76, 80
1, 1014865, Control_c, 0, 64, 108
1, 1014880, Control_c, 0, 64, 77
1, 1014893, Note_off_c, 0, 76, 57
1, 1014894, Control_c, 0, 64, 57
1, 1014897, Note_on_c, 0, 75, 81
1, 1014910, Control_c, 0, 64, 0
1, 1014947, Note_on_c, 0, 73, 80
1, 1014984, Control_c, 0, 64, 50
1, 1014993, Note_off_c, 0, 75, 63
1, 1014994, Note_on_c, 0, 71, 79
1, 1014999, Control_c, 0, 64, 70
1, 1015014, Control_c, 0, 64, 98
1, 1015028, Control_c, 0, 64, 127
1, 1015029, Note_off_c, 0, 73, 63
1, 1015036, Note_off_c, 0, 56, 61
1, 1015038, Note_on_c, 0, 69, 76
1, 1015040, Note_off_c, 0, 71, 64
1, 1015067, Note_off_c, 0, 52, 60
1, 1015079, Note_off_c, 0, 49, 60
1, 1015086, Note_off_c, 0, 44, 62
1, 1015088, Note_off_c, 0, 69, 51
1, 1015102, Note_on_c, 0, 68, 84
1, 1015151, Note_on_c, 0, 66, 86
1, 1015190, Note_off_c, 0, 68, 64
1, 1015214, Note_on_c, 0, 64, 83
1, 1015223, Note_off_c, 0, 66, 59
1, 1015267, Note_off_c, 0, 64, 43
1, 1015278, Note_on_c, 0, 63, 85
1, 1015331, Note_on_c, 0, 61, 79
1, 1015362, Note_off_c, 0, 63, 59
1, 1015372, Note_on_c, 0, 59, 74
1, 1015401, Note_off_c, 0, 61, 62
1, 1015415, Note_on_c, 0, 57, 78
1, 1015419, Note_off_c, 0, 59, 64
1, 1015461, Note_on_c, 0, 44, 107
1, 1015470, Note_on_c, 0, 56, 94
1, 1015476, Note_on_c, 0, 32, 63
1, 1015476, Note_off_c, 0, 57, 68
1, 1015489, Note_off_c, 0, 44, 66
1, 1015492, Note_off_c, 0, 56, 68
1, 1015502, Control_c, 0, 64, 70
1, 1015503, Note_off_c, 0, 32, 58
1, 1015517, Control_c, 0, 64, 0
1, 1015714, Note_on_c, 0, 56, 97
1, 1015718, Note_on_c, 0, 68, 103
1, 1015718, Control_c, 0, 64, 56
1, 1015720, Note_on_c, 0, 60, 100
1, 1015726, Note_on_c, 0, 63, 89
1, 1015732, Control_c, 0, 64, 127
1, 1015735, Note_on_c, 0, 44, 54
1, 1015739, Note_off_c, 0, 60, 70
1, 1015753, Note_off_c, 0, 56, 64
1, 1015753, Note_on_c, 0, 66, 44
1, 1015763, Note_off_c, 0, 68, 62
1, 1015766, Note_off_c, 0, 44, 55
1, 1015766, Note_off_c, 0, 63, 67
1, 1015783, Note_off_c, 0, 66, 54
1, 1016000, Control_c, 0, 64, 93
1, 1016014, Control_c, 0, 64, 79
1, 1016029, Control_c, 0, 64, 68
1, 1016044, Control_c, 0, 64, 58
1, 1016058, Control_c, 0, 64, 43
1, 1016073, Control_c, 0, 64, 0
1, 1016970, Control_c, 0, 67, 21
1, 1016985, Control_c, 0, 67, 25
1, 1016999, Control_c, 0, 67, 29
1, 1017014, Control_c, 0, 67, 33
1, 1017029, Control_c, 0, 67, 38
1, 1017044, Control_c, 0, 67, 43
1, 1017059, Control_c, 0, 67, 52
1, 1017081, Control_c, 0, 67, 62
1, 1017096, Control_c, 0, 67, 73
1, 1017111, Control_c, 0, 67, 80
1, 1017126, Control_c, 0, 67, 85
1, 1017141, Control_c, 0, 67, 88
1, 1017156, Control_c, 0, 67, 89
1, 1017185, Control_c, 0, 67, 88
1, 1017200, Control_c, 0, 67, 87
1, 1017214, Note_on_c, 0, 75, 54
1, 1017214, Control_c, 0, 67, 86
1, 1017229, Control_c, 0, 67, 85
1, 1017238, Note_on_c, 0, 73, 58
1, 1017244, Control_c, 0, 67, 84
1, 1017249, Note_off_c, 0, 75, 62
1, 1017259, Control_c, 0, 67, 83
1, 1017281, Note_off_c, 0, 73, 62
1, 1017304, Control_c, 0, 67, 83
1, 1017319, Control_c, 0, 67, 81
1, 1017322, Note_on_c, 0, 72, 50
1, 1017334, Control_c, 0, 67, 78
1, 1017349, Control_c, 0, 67, 71
1, 1017364, Control_c, 0, 67, 52
1, 1017378, Control_c, 0, 67, 0
1, 1017392, Note_off_c, 0, 72, 50
1, 1017411, Note_on_c, 0, 64, 41
1, 1017411, Note_on_c, 0, 68, 41
1, 1017412, Note_on_c, 0, 73, 53
1, 1017431, Note_on_c, 0, 61, 8
1, 1017437, Note_off_c, 0, 64, 48
1, 1017437, Note_off_c, 0, 68, 52
1, 1017452, Note_off_c, 0, 73, 59
1, 1017479, Note_off_c, 0, 61, 27
1, 1017506, Note_on_c, 0, 76, 54
1, 1017550, Note_off_c, 0, 76, 61
1, 1017606, Note_on_c, 0, 73, 59
1, 1017631, Note_off_c, 0, 73, 64
1, 1017862, Note_on_c, 0, 78, 56
1, 1018078, Note_on_c, 0, 66, 55
1, 1018080, Note_on_c, 0, 57, 47
1, 1018103, Note_off_c, 0, 66, 62
1, 1018104, Note_on_c, 0, 61, 26
1, 1018106, Note_off_c, 0, 57, 60
1, 1018137, Note_off_c, 0, 61, 42
1, 1018291, Control_c, 0, 64, 43
1, 1018306, Control_c, 0, 64, 60
1, 1018321, Control_c, 0, 64, 66
1, 1018335, Control_c, 0, 64, 70
1, 1018350, Control_c, 0, 64, 75
1, 1018365, Control_c, 0, 64, 80
1, 1018380, Control_c, 0, 64, 84
1, 1018388, Note_off_c, 0, 78, 38
1, 1018395, Control_c, 0, 64, 88
1, 1018409, Control_c, 0, 64, 90
1, 1018424, Control_c, 0, 64, 93
1, 1018439, Control_c, 0, 64, 95
1, 1018469, Control_c, 0, 64, 98
1, 1018521, Note_on_c, 0, 75, 68
1, 1018543, Control_c, 0, 64, 96
1, 1018551, Note_on_c, 0, 73, 71
1, 1018558, Control_c, 0, 64, 86
1, 1018579, Control_c, 0, 64, 73
1, 1018581, Note_off_c, 0, 75, 54
1, 1018594, Control_c, 0, 64, 60
1, 1018609, Control_c, 0, 64, 0
1, 1018612, Note_off_c, 0, 73, 62
1, 1018621, Note_on_c, 0, 72, 73
1, 1018716, Note_on_c, 0, 73, 84
1, 1018724, Note_on_c, 0, 64, 55
1, 1018728, Note_on_c, 0, 56, 49
1, 1018729, Note_on_c, 0, 61, 53
1, 1018741, Note_off_c, 0, 72, 59
1, 1018744, Note_off_c, 0, 64, 62
1, 1018752, Note_off_c, 0, 61, 59
1, 1018752, Note_off_c, 0, 56, 56
1, 1018794, Note_on_c, 0, 76, 84
1, 1018799, Note_off_c, 0, 73, 64
1, 1018892, Note_on_c, 0, 73, 90
1, 1018894, Note_off_c, 0, 76, 65
1, 1018927, Note_off_c, 0, 73, 65
1, 1019139, Note_on_c, 0, 81, 99
1, 1019431, Note_on_c, 0, 54, 47
1, 1019435, Note_on_c, 0, 62, 52
1, 1019453, Note_on_c, 0, 57, 35
1, 1019461, Control_c, 0, 67, 21
1, 1019470, Note_off_c, 0, 54, 63
1, 1019473, Note_off_c, 0, 62, 64
1, 1019476, Control_c, 0, 67, 25
1, 1019483, Note_off_c, 0, 57, 51
1, 1019491, Control_c, 0, 67, 29
1, 1019506, Control_c, 0, 67, 34
1, 1019521, Control_c, 0, 64, 37
1, 1019521, Control_c, 0, 67, 42
1, 1019536, Control_c, 0, 64, 52
1, 1019536, Control_c, 0, 67, 56
1, 1019550, Control_c, 0, 64, 61
1, 1019550, Control_c, 0, 67, 69
1, 1019565, Control_c, 0, 64, 66
1, 1019565, Control_c, 0, 67, 82
1, 1019580, Control_c, 0, 64, 70
1, 1019580, Control_c, 0, 67, 96
1, 1019595, Control_c, 0, 64, 78
1, 1019595, Control_c, 0, 67, 111
1, 1019609, Control_c, 0, 64, 90
1, 1019609, Control_c, 0, 67, 127
1, 1019624, Control_c, 0, 64, 116
1, 1019639, Control_c, 0, 64, 127
1, 1019694, Note_off_c, 0, 81, 57
1, 1019971, Note_on_c, 0, 81, 46
1, 1020010, Control_c, 0, 64, 108
1, 1020025, Control_c, 0, 64, 90
1, 1020040, Control_c, 0, 64, 77
1, 1020054, Note_on_c, 0, 80, 47
1, 1020055, Control_c, 0, 64, 66
1, 1020078, Control_c, 0, 64, 54
1, 1020093, Control_c, 0, 64, 0
1, 1020109, Note_off_c, 0, 81, 42
1, 1020126, Note_off_c, 0, 80, 43
1, 1020141, Note_on_c, 0, 56, 31
1, 1020142, Note_on_c, 0, 64, 37
1, 1020150, Note_on_c, 0, 78, 58
1, 1020152, Note_on_c, 0, 61, 37
1, 1020171, Note_off_c, 0, 64, 58
1, 1020175, Note_off_c, 0, 56, 54
1, 1020186, Note_off_c, 0, 61, 59
1, 1020192, Note_off_c, 0, 78, 59
1, 1020231, Note_on_c, 0, 76, 62
1, 1020288, Note_off_c, 0, 76, 40
1, 1020317, Note_on_c, 0, 75, 57
1, 1020387, Note_off_c, 0, 75, 42
1, 1020397, Note_on_c, 0, 73, 55
1, 1020431, Note_off_c, 0, 73, 64
1, 1020514, Note_on_c, 0, 56, 37
1, 1020519, Note_on_c, 0, 73, 51
1, 1020544, Note_on_c, 0, 64, 37
1, 1020690, Note_off_c, 0, 73, 59
1, 1020705, Note_off_c, 0, 64, 55
1, 1020706, Note_off_c, 0, 56, 40
1, 1020725, Note_on_c, 0, 76, 61
1, 1020734, Note_on_c, 0, 68, 53
1, 1020758, Note_off_c, 0, 68, 59
1, 1020760, Note_off_c, 0, 76, 59
1, 1020928, Note_on_c, 0, 75, 57
1, 1020930, Control_c, 0, 64, 50
1, 1020930, Control_c, 0, 67, 88
1, 1020931, Note_on_c, 0, 68, 33
1, 1020937, Note_on_c, 0, 72, 49
1, 1020937, Note_on_c, 0, 56, 25
1, 1020945, Control_c, 0, 64, 67
1, 1020945, Control_c, 0, 67, 44
1, 1020949, Note_off_c, 0, 75, 63
1, 1020960, Control_c, 0, 64, 76
1, 1020960, Control_c, 0, 67, 0
1, 1020961, Note_off_c, 0, 72, 52
1, 1020967, Note_off_c, 0, 68, 31
1, 1020974, Control_c, 0, 64, 90
1, 1020975, Note_off_c, 0, 56, 31
1, 1020989, Control_c, 0, 64, 104
1, 1021004, Control_c, 0, 64, 127
1, 1021125, Note_on_c, 0, 63, 70
1, 1021137, Control_c, 0, 64, 100
1, 1021149, Note_on_c, 0, 61, 73
1, 1021152, Control_c, 0, 64, 74
1, 1021156, Note_off_c, 0, 63, 65
1, 1021167, Control_c, 0, 64, 55
1, 1021181, Control_c, 0, 64, 0
1, 1021190, Note_off_c, 0, 61, 58
1, 1021237, Note_on_c, 0, 60, 65
1, 1021322, Note_on_c, 0, 61, 65
1, 1021330, Note_on_c, 0, 56, 38
1, 1021330, Note_on_c, 0, 49, 48
1, 1021341, Note_off_c, 0, 60, 51
1, 1021348, Note_on_c, 0, 52, 20
1, 1021359, Note_off_c, 0, 49, 61
1, 1021362, Note_off_c, 0, 56, 49
1, 1021378, Note_off_c, 0, 61, 55
1, 1021391, Note_off_c, 0, 52, 40
1, 1021423, Note_on_c, 0, 64, 53
1, 1021468, Note_off_c, 0, 64, 60
1, 1021518, Note_on_c, 0, 56, 39
1, 1021519, Note_on_c, 0, 52, 42
1, 1021521, Note_on_c, 0, 49, 40
1, 1021521, Note_on_c, 0, 61, 62
1, 1021548, Note_off_c, 0, 56, 49
1, 1021550, Note_off_c, 0, 52, 51
1, 1021550, Note_off_c, 0, 61, 64
1, 1021554, Note_off_c, 0, 49, 47
1, 1021748, Note_on_c, 0, 66, 75
1, 1021942, Note_on_c, 0, 54, 55
1, 1021949, Note_on_c, 0, 45, 51
1, 1021960, Note_on_c, 0, 49, 39
1, 1021967, Note_off_c, 0, 54, 59
1, 1021983, Note_off_c, 0, 45, 57
1, 1021992, Note_off_c, 0, 49, 53
1, 1022153, Control_c, 0, 64, 44
1, 1022157, Note_on_c, 0, 54, 65
1, 1022158, Note_on_c, 0, 45, 68
1, 1022168, Note_on_c, 0, 49, 51
1, 1022168, Control_c, 0, 64, 65
1, 1022178, Note_off_c, 0, 54, 62
1, 1022182, Note_off_c, 0, 45, 60
1, 1022183, Control_c, 0, 64, 75
1, 1022191, Note_off_c, 0, 66, 52
1, 1022198, Note_off_c, 0, 49, 55
1, 1022198, Control_c, 0, 64, 90
1, 1022213, Control_c, 0, 64, 105
1, 1022228, Control_c, 0, 64, 127
1, 1022353, Note_on_c, 0, 63, 77
1, 1022398, Control_c, 0, 64, 93
1, 1022399, Note_on_c, 0, 61, 80
1, 1022413, Control_c, 0, 64, 71
1, 1022427, Control_c, 0, 64, 53
1, 1022430, Note_off_c, 0, 63, 63
1, 1022442, Control_c, 0, 64, 0
1, 1022469, Note_off_c, 0, 61, 61
1, 1022470, Note_on_c, 0, 60, 86
1, 1022555, Note_on_c, 0, 52, 67
1, 1022559, Note_on_c, 0, 49, 61
1, 1022560, Note_on_c, 0, 44, 63
1, 1022565, Note_on_c, 0, 61, 87
1, 1022584, Note_off_c, 0, 52, 65
1, 1022585, Note_off_c, 0, 49, 60
1, 1022586, Note_off_c, 0, 44, 61
1, 1022597, Note_off_c, 0, 60, 61
1, 1022653, Note_on_c, 0, 64, 80
1, 1022660, Note_off_c, 0, 61, 62
1, 1022745, Note_on_c, 0, 52, 71
1, 1022746, Note_on_c, 0, 49, 69
1, 1022751, Note_on_c, 0, 44, 65
1, 1022751, Note_on_c, 0, 61, 89
1, 1022752, Note_off_c, 0, 64, 65
1, 1022764, Note_off_c, 0, 52, 66
1, 1022771, Note_off_c, 0, 49, 66
1, 1022776, Note_off_c, 0, 44, 60
1, 1022783, Note_off_c, 0, 61, 64
1, 1022966, Note_on_c, 0, 69, 98
1, 1023219, Note_on_c, 0, 50, 47
1, 1023220, Note_on_c, 0, 42, 48
1, 1023223, Note_on_c, 0, 45, 53
1, 1023250, Note_off_c, 0, 50, 56
1, 1023256, Note_off_c, 0, 42, 61
1, 1023259, Note_off_c, 0, 45, 62
1, 1023310, Control_c, 0, 67, 20
1, 1023325, Control_c, 0, 67, 22
1, 1023340, Control_c, 0, 67, 26
1, 1023355, Control_c, 0, 67, 31
1, 1023369, Control_c, 0, 67, 41
1, 1023384, Control_c, 0, 67, 59
1, 1023399, Control_c, 0, 64, 48
1, 1023399, Control_c, 0, 67, 79
1, 1023414, Control_c, 0, 64, 59
1, 1023414, Control_c, 0, 67, 100
1, 1023429, Control_c, 0, 64, 63
1, 1023429, Control_c, 0, 67, 116
1, 1023443, Control_c, 0, 64, 65
1, 1023443, Control_c, 0, 67, 127
1, 1023458, Control_c, 0, 64, 69
1, 1023473, Control_c, 0, 64, 74
1, 1023477, Note_on_c, 0, 42, 43
1, 1023488, Control_c, 0, 64, 81
1, 1023502, Control_c, 0, 64, 87
1, 1023505, Note_on_c, 0, 50, 38
1, 1023510, Note_on_c, 0, 45, 37
1, 1023517, Control_c, 0, 64, 92
1, 1023532, Control_c, 0, 64, 97
1, 1023547, Control_c, 0, 64, 104
1, 1023560, Note_off_c, 0, 50, 56
1, 1023562, Control_c, 0, 64, 118
1, 1023565, Note_off_c, 0, 45, 50
1, 1023569, Note_off_c, 0, 69, 57
1, 1023569, Note_off_c, 0, 42, 58
1, 1023576, Control_c, 0, 64, 127
1, 1023870, Note_on_c, 0, 69, 33
1, 1023896, Control_c, 0, 64, 111
1, 1023911, Control_c, 0, 64, 101
1, 1023925, Control_c, 0, 64, 94
1, 1023940, Control_c, 0, 64, 87
1, 1023955, Control_c, 0, 64, 81
1, 1023970, Control_c, 0, 64, 74
1, 1023978, Note_on_c, 0, 68, 54
1, 1023985, Control_c, 0, 64, 69
1, 1023999, Control_c, 0, 64, 63
1, 1024014, Control_c, 0, 64, 53
1, 1024029, Control_c, 0, 64, 38
1, 1024039, Note_off_c, 0, 69, 26
1, 1024044, Control_c, 0, 64, 0
1, 1024106, Note_on_c, 0, 49, 44
1, 1024106, Note_on_c, 0, 66, 61
1, 1024109, Note_on_c, 0, 40, 37
1, 1024136, Note_off_c, 0, 49, 59
1, 1024147, Note_off_c, 0, 40, 59
1, 1024161, Note_off_c, 0, 68, 36
1, 1024203, Note_on_c, 0, 64, 54
1, 1024252, Control_c, 0, 64, 49
1, 1024253, Note_off_c, 0, 66, 53
1, 1024266, Control_c, 0, 64, 62
1, 1024273, Note_off_c, 0, 64, 58
1, 1024281, Control_c, 0, 64, 65
1, 1024296, Control_c, 0, 64, 67
1, 1024308, Note_on_c, 0, 40, 18
1, 1024310, Note_on_c, 0, 62, 56
1, 1024311, Control_c, 0, 64, 69
1, 1024320, Note_on_c, 0, 45, 40
1, 1024325, Control_c, 0, 64, 71
1, 1024340, Control_c, 0, 64, 72
1, 1024350, Note_off_c, 0, 40, 49
1, 1024355, Note_off_c, 0, 45, 51
1, 1024355, Control_c, 0, 64, 73
1, 1024370, Control_c, 0, 64, 75
1, 1024385, Control_c, 0, 64, 75
1, 1024398, Note_off_c, 0, 62, 57
1, 1024417, Note_on_c, 0, 61, 53
1, 1024466, Note_off_c, 0, 61, 56
1, 1024534, Control_c, 0, 64, 74
1, 1024548, Control_c, 0, 64, 73
1, 1024571, Control_c, 0, 64, 72
1, 1024586, Control_c, 0, 64, 70
1, 1024601, Control_c, 0, 64, 68
1, 1024615, Control_c, 0, 64, 66
1, 1024619, Note_on_c, 0, 61, 41
1, 1024623, Note_on_c, 0, 40, 26
1, 1024630, Control_c, 0, 64, 64
1, 1024631, Note_on_c, 0, 52, 28
1, 1024633, Note_on_c, 0, 57, 35
1, 1024645, Control_c, 0, 64, 62
1, 1024660, Control_c, 0, 64, 59
1, 1024675, Control_c, 0, 64, 54
1, 1024690, Control_c, 0, 64, 49
1, 1024704, Control_c, 0, 64, 43
1, 1024719, Control_c, 0, 64, 0
1, 1024961, Note_off_c, 0, 61, 35
1, 1024996, Note_off_c, 0, 57, 43
1, 1025033, Note_on_c, 0, 62, 45
1, 1025116, Note_off_c, 0, 62, 60
1, 1025143, Note_off_c, 0, 40, 58
1, 1025148, Control_c, 0, 67, 95
1, 1025156, Note_off_c, 0, 52, 49
1, 1025158, Note_on_c, 0, 56, 43
1, 1025161, Note_on_c, 0, 59, 35
1, 1025163, Control_c, 0, 64, 48
1, 1025163, Control_c, 0, 67, 44
1, 1025178, Control_c, 0, 64, 65
1, 1025178, Control_c, 0, 67, 0
1, 1025185, Note_off_c, 0, 56, 58
1, 1025189, Note_off_c, 0, 59, 59
1, 1025193, Control_c, 0, 64, 71
1, 1025208, Control_c, 0, 64, 83
1, 1025222, Control_c, 0, 64, 109
1, 1025237, Control_c, 0, 64, 127
1, 1025486, Note_on_c, 0, 81, 67
1, 1025505, Note_on_c, 0, 85, 71
1, 1025512, Note_off_c, 0, 81, 66
1, 1025524, Note_on_c, 0, 88, 90
1, 1025531, Note_off_c, 0, 85, 67
1, 1025542, Control_c, 0, 64, 90
1, 1025554, Note_off_c, 0, 88, 63
1, 1025557, Control_c, 0, 64, 64
1, 1025572, Control_c, 0, 64, 0
1, 1025572, Control_c, 0, 67, 20
1, 1025587, Control_c, 0, 67, 26
1, 1025602, Control_c, 0, 67, 35
1, 1025617, Control_c, 0, 67, 46
1, 1025632, Control_c, 0, 67, 59
1, 1025646, Control_c, 0, 67, 73
1, 1025661, Control_c, 0, 67, 90
1, 1025676, Control_c, 0, 67, 104
1, 1025690, Control_c, 0, 67, 117
1, 1025705, Control_c, 0, 67, 127
1, 1025770, Note_on_c, 0, 69, 55
1, 1025774, Note_on_c, 0, 73, 55
1, 1025774, Note_on_c, 0, 76, 54
1, 1025793, Note_off_c, 0, 69, 62
1, 1025797, Note_off_c, 0, 76, 60
1, 1025808, Note_off_c, 0, 73, 63
1, 1025978, Note_on_c, 0, 61, 44
1, 1025989, Note_on_c, 0, 57, 39
1, 1025990, Note_on_c, 0, 64, 32
1, 1026004, Note_off_c, 0, 61, 56
1, 1026019, Note_off_c, 0, 57, 53
1, 1026022, Note_off_c, 0, 64, 42
1, 1026158, Control_c, 0, 67, 125
1, 1026173, Control_c, 0, 67, 88
1, 1026188, Control_c, 0, 67, 26
1, 1026198, Note_on_c, 0, 56, 59
1, 1026202, Control_c, 0, 67, 0
1, 1026203, Note_on_c, 0, 64, 55
1, 1026207, Note_on_c, 0, 59, 48
1, 1026219, Note_off_c, 0, 56, 60
1, 1026224, Note_off_c, 0, 64, 57
1, 1026231, Note_off_c, 0, 59, 58
1, 1026401, Note_on_c, 0, 68, 53
1, 1026409, Note_on_c, 0, 71, 45
1, 1026424, Note_off_c, 0, 68, 61
1, 1026436, Note_off_c, 0, 71, 59
1, 1026490, Note_on_c, 0, 76, 54
1, 1026533, Note_off_c, 0, 76, 58
1, 1026589, Note_on_c, 0, 69, 59
1, 1026592, Note_on_c, 0, 64, 38
1, 1026592, Note_on_c, 0, 61, 45
1, 1026596, Note_on_c, 0, 57, 30
1, 1026602, Control_c, 0, 64, 59
1, 1026603, Note_on_c, 0, 73, 47
1, 1026617, Control_c, 0, 64, 68
1, 1026618, Note_off_c, 0, 69, 66
1, 1026632, Control_c, 0, 64, 77
1, 1026643, Note_off_c, 0, 73, 61
1, 1026646, Control_c, 0, 64, 91
1, 1026654, Note_on_c, 0, 76, 67
1, 1026655, Note_off_c, 0, 64, 44
1, 1026661, Control_c, 0, 64, 127
1, 1026675, Note_off_c, 0, 76, 66
1, 1026695, Note_off_c, 0, 57, 36
1, 1026770, Note_on_c, 0, 83, 93
1, 1026774, Note_on_c, 0, 88, 97
1, 1026780, Note_on_c, 0, 86, 81
1, 1026783, Note_off_c, 0, 83, 76
1, 1026793, Control_c, 0, 64, 101
1, 1026798, Note_off_c, 0, 86, 71
1, 1026813, Note_off_c, 0, 88, 62
1, 1026815, Control_c, 0, 64, 70
1, 1026830, Note_off_c, 0, 61, 37
1, 1026830, Control_c, 0, 64, 39
1, 1026845, Control_c, 0, 64, 0
1, 1027009, Note_on_c, 0, 74, 54
1, 1027009, Note_on_c, 0, 76, 53
1, 1027015, Note_on_c, 0, 71, 44
1, 1027033, Note_off_c, 0, 76, 57
1, 1027036, Note_off_c, 0, 74, 60
1, 1027042, Note_off_c, 0, 71, 55
1, 1027217, Note_on_c, 0, 62, 54
1, 1027218, Note_on_c, 0, 59, 48
1, 1027218, Note_on_c, 0, 64, 56
1, 1027240, Note_off_c, 0, 64, 60
1, 1027248, Note_off_c, 0, 59, 61
1, 1027248, Note_off_c, 0, 62, 62
1, 1027412, Note_on_c, 0, 57, 64
1, 1027419, Note_on_c, 0, 64, 53
1, 1027423, Note_on_c, 0, 61, 58
1, 1027432, Note_off_c, 0, 57, 65
1, 1027441, Note_off_c, 0, 64, 58
1, 1027444, Note_off_c, 0, 61, 60
1, 1027623, Note_on_c, 0, 69, 67
1, 1027639, Note_on_c, 0, 73, 58
1, 1027650, Note_off_c, 0, 69, 65
1, 1027675, Note_off_c, 0, 73, 61
1, 1027726, Note_on_c, 0, 76, 62
1, 1027760, Note_off_c, 0, 76, 65
1, 1027796, Note_on_c, 0, 64, 69
1, 1027803, Note_on_c, 0, 59, 55
1, 1027808, Note_on_c, 0, 62, 59
1, 1027809, Note_on_c, 0, 71, 69
1, 1027817, Control_c, 0, 64, 51
1, 1027827, Note_on_c, 0, 74, 60
1, 1027832, Control_c, 0, 64, 64
1, 1027835, Note_off_c, 0, 71, 69
1, 1027847, Control_c, 0, 64, 71
1, 1027862, Control_c, 0, 64, 81
1, 1027868, Note_off_c, 0, 74, 64
1, 1027868, Note_on_c, 0, 76, 73
1, 1027877, Control_c, 0, 64, 95
1, 1027883, Note_off_c, 0, 76, 66
1, 1027891, Control_c, 0, 64, 127
1, 1027952, Note_off_c, 0, 64, 61
1, 1027952, Note_off_c, 0, 59, 61
1, 1027957, Note_off_c, 0, 62, 61
1, 1027982, Note_on_c, 0, 85, 82
1, 1027987, Note_on_c, 0, 88, 98
1, 1027992, Note_on_c, 0, 93, 90
1, 1027995, Note_off_c, 0, 85, 72
1, 1028002, Note_off_c, 0, 88, 76
1, 1028010, Control_c, 0, 64, 125
1, 1028014, Note_off_c, 0, 93, 66
1, 1028025, Control_c, 0, 64, 76
1, 1028039, Control_c, 0, 64, 53
1, 1028054, Control_c, 0, 64, 0
1, 1028192, Note_on_c, 0, 81, 81
1, 1028193, Note_on_c, 0, 73, 75
1, 1028198, Note_on_c, 0, 76, 70
1, 1028213, Note_off_c, 0, 81, 70
1, 1028216, Note_off_c, 0, 73, 68
1, 1028216, Note_off_c, 0, 76, 66
1, 1028395, Note_on_c, 0, 64, 65
1, 1028401, Note_on_c, 0, 61, 57
1, 1028413, Note_off_c, 0, 64, 65
1, 1028422, Note_off_c, 0, 61, 60
1, 1028625, Note_on_c, 0, 59, 77
1, 1028625, Note_on_c, 0, 67, 88
1, 1028628, Note_on_c, 0, 62, 81
1, 1028810, Note_on_c, 0, 74, 77
1, 1028813, Note_on_c, 0, 71, 55
1, 1028821, Note_on_c, 0, 79, 72
1, 1028829, Note_off_c, 0, 74, 67
1, 1028835, Note_off_c, 0, 71, 62
1, 1028844, Note_off_c, 0, 79, 69
1, 1028893, Control_c, 0, 64, 35
1, 1028907, Control_c, 0, 64, 59
1, 1028922, Control_c, 0, 64, 70
1, 1028937, Control_c, 0, 64, 83
1, 1028952, Control_c, 0, 64, 116
1, 1028967, Control_c, 0, 64, 127
1, 1028979, Note_off_c, 0, 59, 59
1, 1028980, Note_off_c, 0, 67, 62
1, 1029002, Note_on_c, 0, 86, 95
1, 1029002, Note_off_c, 0, 62, 60
1, 1029008, Note_on_c, 0, 91, 92
1, 1029011, Control_c, 0, 64, 98
1, 1029017, Note_on_c, 0, 83, 36
1, 1029019, Note_off_c, 0, 86, 72
1, 1029026, Control_c, 0, 64, 72
1, 1029040, Control_c, 0, 64, 48
1, 1029040, Control_c, 0, 67, 26
1, 1029044, Note_off_c, 0, 91, 65
1, 1029048, Note_off_c, 0, 83, 34
1, 1029063, Control_c, 0, 64, 0
1, 1029063, Control_c, 0, 67, 36
1, 1029078, Control_c, 0, 67, 51
1, 1029093, Control_c, 0, 67, 71
1, 1029108, Control_c, 0, 67, 94
1, 1029122, Control_c, 0, 67, 120
1, 1029137, Control_c, 0, 67, 127
1, 1029212, Note_on_c, 0, 91, 60
1, 1029237, Note_off_c, 0, 91, 55
1, 1029240, Note_on_c, 0, 90, 69
1, 1029282, Note_off_c, 0, 90, 61
1, 1029328, Note_on_c, 0, 89, 58
1, 1029390, Note_off_c, 0, 89, 59
1, 1029399, Note_on_c, 0, 90, 66
1, 1029412, Note_on_c, 0, 66, 50
1, 1029421, Note_on_c, 0, 57, 30
1, 1029422, Note_on_c, 0, 62, 35
1, 1029439, Note_off_c, 0, 66, 56
1, 1029444, Note_off_c, 0, 90, 54
1, 1029454, Note_off_c, 0, 62, 51
1, 1029459, Note_off_c, 0, 57, 52
1, 1029510, Note_on_c, 0, 93, 43
1, 1029552, Note_off_c, 0, 93, 50
1, 1029596, Note_on_c, 0, 67, 45
1, 1029596, Note_on_c, 0, 88, 55
1, 1029605, Note_on_c, 0, 57, 4
1, 1029606, Note_on_c, 0, 61, 40
1, 1029619, Note_off_c, 0, 67, 57
1, 1029628, Note_off_c, 0, 88, 50
1, 1029638, Note_off_c, 0, 61, 56
1, 1029657, Note_off_c, 0, 57, 34
1, 1029671, Note_on_c, 0, 93, 55
1, 1029764, Note_off_c, 0, 93, 54
1, 1029784, Note_on_c, 0, 62, 41
1, 1029784, Note_on_c, 0, 90, 53
1, 1029856, Poly_aftertouch_c, 0, 66, 127
1, 1029870, Note_on_c, 0, 86, 62
1, 1029870, Control_c, 0, 64, 56
1, 1029877, Note_off_c, 0, 90, 51
1, 1029885, Control_c, 0, 64, 67
1, 1029886, Note_off_c, 0, 62, 53
1, 1029889, Poly_aftertouch_c, 0, 66, 0
1, 1029900, Control_c, 0, 64, 74
1, 1029903, Note_off_c, 0, 86, 62
1, 1029915, Control_c, 0, 64, 84
1, 1029930, Control_c, 0, 64, 94
1, 1029944, Control_c, 0, 64, 109
1, 1029959, Control_c, 0, 64, 127
1, 1029965, Note_on_c, 0, 81, 60
1, 1029989, Control_c, 0, 67, 111
1, 1030004, Control_c, 0, 67, 69
1, 1030006, Note_off_c, 0, 81, 50
1, 1030018, Control_c, 0, 67, 27
1, 1030033, Control_c, 0, 67, 0
1, 1030053, Note_on_c, 0, 78, 69
1, 1030148, Note_on_c, 0, 74, 71
1, 1030150, Note_off_c, 0, 78, 61
1, 1030166, Note_off_c, 0, 74, 66
1, 1030308, Note_on_c, 0, 83, 75
1, 1030327, Note_on_c, 0, 86, 94
1, 1030329, Note_off_c, 0, 83, 71
1, 1030334, Note_on_c, 0, 91, 96
1, 1030345, Note_off_c, 0, 86, 71
1, 1030345, Control_c, 0, 64, 89
1, 1030360, Control_c, 0, 64, 65
1, 1030362, Note_off_c, 0, 91, 64
1, 1030375, Control_c, 0, 64, 0
1, 1030535, Note_on_c, 0, 71, 72
1, 1030537, Note_on_c, 0, 79, 71
1, 1030539, Note_on_c, 0, 74, 73
1, 1030561, Note_off_c, 0, 79, 68
1, 1030565, Note_off_c, 0, 71, 70
1, 1030566, Note_off_c, 0, 74, 65
1, 1030724, Note_on_c, 0, 67, 73
1, 1030732, Note_on_c, 0, 62, 65
1, 1030734, Note_on_c, 0, 59, 55
1, 1030747, Note_off_c, 0, 67, 70
1, 1030764, Note_off_c, 0, 62, 64
1, 1030768, Note_off_c, 0, 59, 62
1, 1030946, Note_on_c, 0, 65, 95
1, 1030950, Note_on_c, 0, 57, 76
1, 1030953, Note_on_c, 0, 60, 78
1, 1031132, Note_on_c, 0, 72, 68
1, 1031138, Note_on_c, 0, 69, 52
1, 1031139, Note_on_c, 0, 77, 72
1, 1031154, Control_c, 0, 64, 56
1, 1031156, Note_off_c, 0, 72, 66
1, 1031161, Note_off_c, 0, 69, 57
1, 1031163, Note_off_c, 0, 77, 70
1, 1031169, Control_c, 0, 64, 66
1, 1031183, Control_c, 0, 64, 71
1, 1031198, Control_c, 0, 64, 79
1, 1031213, Control_c, 0, 64, 89
1, 1031227, Control_c, 0, 64, 107
1, 1031242, Control_c, 0, 64, 127
1, 1031331, Note_off_c, 0, 65, 60
1, 1031341, Note_off_c, 0, 57, 60
1, 1031346, Note_on_c, 0, 84, 107
1, 1031349, Note_on_c, 0, 89, 101
1, 1031350, Note_on_c, 0, 81, 58
1, 1031354, Control_c, 0, 64, 99
1, 1031354, Control_c, 0, 67, 31
1, 1031356, Note_off_c, 0, 60, 63
1, 1031361, Note_off_c, 0, 84, 74
1, 1031369, Control_c, 0, 64, 70
1, 1031369, Control_c, 0, 67, 50
1, 1031373, Note_off_c, 0, 81, 61
1, 1031383, Control_c, 0, 64, 37
1, 1031383, Control_c, 0, 67, 80
1, 1031385, Note_off_c, 0, 89, 66
1, 1031398, Control_c, 0, 64, 0
1, 1031398, Control_c, 0, 67, 114
1, 1031413, Control_c, 0, 67, 127
1, 1031578, Note_on_c, 0, 89, 62
1, 1031611, Note_on_c, 0, 88, 65
1, 1031619, Note_off_c, 0, 89, 57
1, 1031647, Note_off_c, 0, 88, 60
1, 1031672, Note_on_c, 0, 87, 66
1, 1031729, Note_off_c, 0, 87, 49
1, 1031752, Note_on_c, 0, 55, 17
1, 1031752, Note_on_c, 0, 64, 39
1, 1031758, Note_on_c, 0, 60, 29
1, 1031765, Note_on_c, 0, 88, 64
1, 1031779, Note_off_c, 0, 64, 56
1, 1031792, Note_off_c, 0, 60, 52
1, 1031793, Note_off_c, 0, 55, 41
1, 1031827, Note_off_c, 0, 88, 51
1, 1031868, Note_on_c, 0, 91, 51
1, 1031926, Note_off_c, 0, 91, 41
1, 1031934, Note_on_c, 0, 55, 19
1, 1031944, Note_on_c, 0, 65, 55
1, 1031950, Note_on_c, 0, 59, 37
1, 1031957, Note_on_c, 0, 86, 54
1, 1031972, Note_off_c, 0, 65, 60
1, 1031974, Note_off_c, 0, 55, 45
1, 1031984, Note_off_c, 0, 59, 55
1, 1031999, Note_off_c, 0, 86, 59
1, 1032043, Note_on_c, 0, 91, 58
1, 1032133, Control_c, 0, 64, 35
1, 1032147, Control_c, 0, 64, 57
1, 1032153, Note_off_c, 0, 91, 38
1, 1032162, Control_c, 0, 64, 64
1, 1032167, Note_on_c, 0, 60, 29
1, 1032169, Note_on_c, 0, 88, 57
1, 1032177, Control_c, 0, 64, 68
1, 1032180, Note_on_c, 0, 64, 5
1, 1032191, Control_c, 0, 64, 73
1, 1032206, Control_c, 0, 64, 80
1, 1032221, Control_c, 0, 64, 89
1, 1032226, Note_off_c, 0, 64, 43
1, 1032232, Note_off_c, 0, 60, 44
1, 1032236, Control_c, 0, 64, 98
1, 1032251, Control_c, 0, 64, 104
1, 1032252, Note_off_c, 0, 88, 55
1, 1032258, Note_on_c, 0, 84, 62
1, 1032265, Control_c, 0, 64, 106
1, 1032295, Control_c, 0, 64, 109
1, 1032308, Note_off_c, 0, 84, 58
1, 1032310, Control_c, 0, 64, 112
1, 1032325, Control_c, 0, 64, 116
1, 1032339, Control_c, 0, 64, 119
1, 1032345, Note_on_c, 0, 79, 64
1, 1032369, Control_c, 0, 64, 122
1, 1032371, Note_off_c, 0, 79, 68
1, 1032447, Note_on_c, 0, 76, 65
1, 1032531, Note_off_c, 0, 76, 61
1, 1032533, Control_c, 0, 64, 125
1, 1032540, Note_on_c, 0, 72, 55
1, 1032560, Note_off_c, 0, 72, 64
1, 1032741, Control_c, 0, 64, 116
1, 1032755, Control_c, 0, 64, 96
1, 1032762, Note_on_c, 0, 47, 39
1, 1032771, Control_c, 0, 64, 79
1, 1032786, Control_c, 0, 64, 64
1, 1032807, Control_c, 0, 64, 44
1, 1032818, Note_on_c, 0, 93, 50
1, 1032822, Control_c, 0, 64, 0
1, 1032837, Control_c, 0, 64, 34
1, 1032849, Note_on_c, 0, 91, 57
1, 1032852, Control_c, 0, 64, 50
1, 1032867, Control_c, 0, 64, 61
1, 1032881, Control_c, 0, 64, 68
1, 1032896, Control_c, 0, 64, 75
1, 1032899, Note_off_c, 0, 93, 57
1, 1032911, Control_c, 0, 64, 83
1, 1032923, Note_on_c, 0, 90, 69
1, 1032926, Control_c, 0, 64, 88
1, 1032927, Note_off_c, 0, 91, 62
1, 1032941, Control_c, 0, 64, 91
1, 1032949, Note_off_c, 0, 47, 42
1, 1032956, Control_c, 0, 64, 94
1, 1032971, Control_c, 0, 64, 98
1, 1032986, Control_c, 0, 64, 103
1, 1032986, Note_off_c, 0, 90, 59
1, 1032988, Note_on_c, 0, 55, 45
1, 1033001, Control_c, 0, 64, 108
1, 1033001, Control_c, 0, 67, 102
1, 1033015, Control_c, 0, 64, 113
1, 1033015, Control_c, 0, 67, 74
1, 1033024, Note_on_c, 0, 91, 67
1, 1033030, Control_c, 0, 64, 118
1, 1033030, Control_c, 0, 67, 50
1, 1033045, Control_c, 0, 67, 30
1, 1033060, Control_c, 0, 67, 0
1, 1033075, Control_c, 0, 64, 120
1, 1033094, Note_off_c, 0, 91, 61
1, 1033108, Note_on_c, 0, 90, 71
1, 1033130, Note_off_c, 0, 55, 48
1, 1033174, Note_on_c, 0, 62, 56
1, 1033195, Note_off_c, 0, 90, 59
1, 1033206, Note_on_c, 0, 91, 69
1, 1033214, Note_off_c, 0, 62, 60
1, 1033263, Note_off_c, 0, 91, 56
1, 1033283, Control_c, 0, 64, 109
1, 1033296, Note_on_c, 0, 93, 54
1, 1033298, Control_c, 0, 64, 92
1, 1033312, Control_c, 0, 64, 75
1, 1033320, Note_off_c, 0, 93, 65
1, 1033327, Control_c, 0, 64, 58
1, 1033342, Control_c, 0, 64, 0
1, 1033376, Note_on_c, 0, 48, 26
1, 1033386, Control_c, 0, 64, 33
1, 1033400, Note_on_c, 0, 93, 67
1, 1033401, Control_c, 0, 64, 50
1, 1033416, Control_c, 0, 64, 63
1, 1033416, Control_c, 0, 67, 21
1, 1033430, Control_c, 0, 64, 73
1, 1033430, Control_c, 0, 67, 24
1, 1033445, Control_c, 0, 64, 84
1, 1033445, Control_c, 0, 67, 27
1, 1033460, Control_c, 0, 64, 96
1, 1033460, Control_c, 0, 67, 34
1, 1033475, Control_c, 0, 64, 102
1, 1033475, Control_c, 0, 67, 45
1, 1033486, Note_on_c, 0, 91, 74
1, 1033490, Note_off_c, 0, 93, 59
1, 1033490, Control_c, 0, 64, 106
1, 1033490, Control_c, 0, 67, 66
1, 1033504, Control_c, 0, 64, 108
1, 1033504, Control_c, 0, 67, 87
1, 1033519, Control_c, 0, 64, 112
1, 1033519, Control_c, 0, 67, 107
1, 1033534, Control_c, 0, 64, 117
1, 1033534, Control_c, 0, 67, 122
1, 1033546, Note_off_c, 0, 48, 40
1, 1033556, Control_c, 0, 64, 122
1, 1033556, Control_c, 0, 67, 127
1, 1033571, Control_c, 0, 64, 127
1, 1033574, Note_on_c, 0, 55, 42
1, 1033576, Note_off_c, 0, 91, 60
1, 1033580, Note_on_c, 0, 88, 71
1, 1033628, Note_off_c, 0, 88, 54
1, 1033655, Note_on_c, 0, 84, 74
1, 1033691, Note_off_c, 0, 84, 59
1, 1033738, Note_off_c, 0, 55, 39
1, 1033763, Note_on_c, 0, 79, 68
1, 1033782, Note_on_c, 0, 64, 51
1, 1033786, Note_off_c, 0, 79, 71
1, 1033811, Note_off_c, 0, 64, 53
1, 1033926, Control_c, 0, 64, 105
1, 1033941, Control_c, 0, 64, 85
1, 1033955, Control_c, 0, 64, 68
1, 1033964, Note_on_c, 0, 50, 44
1, 1033970, Control_c, 0, 64, 45
1, 1033984, Note_on_c, 0, 79, 77
1, 1033984, Note_on_c, 0, 77, 80
1, 1033985, Control_c, 0, 64, 0
1, 1034008, Note_off_c, 0, 79, 66
1, 1034011, Note_off_c, 0, 77, 63
1, 1034093, Note_on_c, 0, 79, 62
1, 1034107, Note_off_c, 0, 50, 57
1, 1034111, Note_off_c, 0, 79, 68
1, 1034114, Note_on_c, 0, 77, 24
1, 1034170, Note_off_c, 0, 77, 0
1, 1034174, Note_on_c, 0, 79, 74
1, 1034182, Note_on_c, 0, 59, 49
1, 1034188, Note_on_c, 0, 77, 31
1, 1034195, Note_off_c, 0, 79, 71
1, 1034211, Note_off_c, 0, 77, 53
1, 1034264, Note_on_c, 0, 79, 71
1, 1034276, Note_on_c, 0, 77, 49
1, 1034286, Note_off_c, 0, 79, 70
1, 1034308, Note_off_c, 0, 77, 57
1, 1034357, Note_on_c, 0, 79, 77
1, 1034372, Note_on_c, 0, 65, 65
1, 1034377, Note_on_c, 0, 77, 49
1, 1034380, Note_off_c, 0, 79, 67
1, 1034399, Note_off_c, 0, 77, 60
1, 1034404, Note_off_c, 0, 65, 66
1, 1034448, Note_on_c, 0, 79, 68
1, 1034460, Note_on_c, 0, 77, 41
1, 1034486, Note_off_c, 0, 79, 61
1, 1034487, Note_off_c, 0, 77, 56
1, 1034495, Note_off_c, 0, 59, 42
1, 1034541, Note_on_c, 0, 52, 45
1, 1034551, Note_on_c, 0, 81, 71
1, 1034569, Note_on_c, 0, 76, 53
1, 1034572, Control_c, 0, 67, 119
1, 1034586, Control_c, 0, 67, 102
1, 1034592, Note_off_c, 0, 76, 62
1, 1034601, Control_c, 0, 67, 77
1, 1034616, Control_c, 0, 67, 49
1, 1034631, Control_c, 0, 67, 31
1, 1034640, Note_on_c, 0, 79, 67
1, 1034643, Note_off_c, 0, 81, 57
1, 1034646, Control_c, 0, 67, 20
1, 1034660, Control_c, 0, 67, 0
1, 1034699, Note_off_c, 0, 52, 57
1, 1034705, Control_c, 0, 64, 48
1, 1034719, Control_c, 0, 64, 61
1, 1034720, Note_off_c, 0, 79, 59
1, 1034721, Note_on_c, 0, 60, 46
1, 1034731, Note_on_c, 0, 76, 60
1, 1034734, Control_c, 0, 64, 66
1, 1034749, Control_c, 0, 64, 69
1, 1034764, Control_c, 0, 64, 72
1, 1034772, Note_off_c, 0, 76, 58
1, 1034778, Control_c, 0, 64, 76
1, 1034793, Control_c, 0, 64, 80
1, 1034808, Control_c, 0, 64, 85
1, 1034816, Note_on_c, 0, 72, 58
1, 1034823, Control_c, 0, 64, 90
1, 1034838, Control_c, 0, 64, 93
1, 1034846, Note_off_c, 0, 72, 67
1, 1034852, Control_c, 0, 64, 97
1, 1034867, Control_c, 0, 64, 101
1, 1034883, Control_c, 0, 64, 108
1, 1034898, Control_c, 0, 64, 119
1, 1034901, Note_on_c, 0, 64, 49
1, 1034908, Note_off_c, 0, 60, 37
1, 1034911, Note_on_c, 0, 67, 60
1, 1034913, Control_c, 0, 64, 127
1, 1034923, Note_off_c, 0, 64, 59
1, 1034931, Note_off_c, 0, 67, 64
1, 1035083, Control_c, 0, 64, 103
1, 1035098, Control_c, 0, 64, 79
1, 1035113, Control_c, 0, 64, 63
1, 1035128, Control_c, 0, 64, 0
1, 1035140, Note_on_c, 0, 90, 59
1, 1035159, Note_on_c, 0, 44, 40
1, 1035180, Note_on_c, 0, 88, 69
1, 1035201, Control_c, 0, 64, 48
1, 1035216, Control_c, 0, 64, 61
1, 1035231, Control_c, 0, 64, 68
1, 1035246, Control_c, 0, 64, 75
1, 1035251, Note_off_c, 0, 88, 63
1, 1035252, Note_on_c, 0, 87, 73
1, 1035261, Control_c, 0, 64, 81
1, 1035264, Note_off_c, 0, 90, 36
1, 1035275, Control_c, 0, 64, 85
1, 1035290, Control_c, 0, 64, 90
1, 1035305, Control_c, 0, 64, 96
1, 1035320, Control_c, 0, 64, 104
1, 1035324, Note_off_c, 0, 87, 62
1, 1035326, Note_off_c, 0, 44, 48
1, 1035331, Note_on_c, 0, 88, 85
1, 1035335, Control_c, 0, 64, 113
1, 1035347, Note_on_c, 0, 52, 45
1, 1035350, Control_c, 0, 64, 127
1, 1035420, Note_off_c, 0, 88, 64
1, 1035421, Note_on_c, 0, 87, 85
1, 1035507, Note_off_c, 0, 87, 63
1, 1035510, Note_on_c, 0, 88, 79
1, 1035576, Poly_aftertouch_c, 0, 59, 127
1, 1035578, Note_off_c, 0, 88, 63
1, 1035593, Note_on_c, 0, 90, 81
1, 1035606, Poly_aftertouch_c, 0, 59, 0
1, 1035638, Note_off_c, 0, 52, 36
1, 1035639, Note_off_c, 0, 90, 62
1, 1035661, Control_c, 0, 64, 89
1, 1035677, Control_c, 0, 64, 68
1, 1035692, Control_c, 0, 64, 47
1, 1035697, Note_on_c, 0, 90, 64
1, 1035700, Note_on_c, 0, 45, 37
1, 1035706, Control_c, 0, 64, 0
1, 1035736, Control_c, 0, 64, 37
1, 1035751, Control_c, 0, 64, 56
1, 1035767, Control_c, 0, 64, 66
1, 1035778, Note_on_c, 0, 88, 77
1, 1035781, Control_c, 0, 64, 75
1, 1035781, Control_c, 0, 67, 19
1, 1035803, Control_c, 0, 64, 88
1, 1035805, Note_off_c, 0, 90, 58
1, 1035818, Control_c, 0, 64, 105
1, 1035833, Control_c, 0, 64, 127
1, 1035846, Note_off_c, 0, 45, 35
1, 1035882, Note_on_c, 0, 85, 78
1, 1035883, Note_on_c, 0, 52, 44
1, 1035906, Note_off_c, 0, 88, 62
1, 1035949, Note_off_c, 0, 85, 63
1, 1035970, Note_on_c, 0, 81, 74
1, 1036004, Note_off_c, 0, 81, 62
1, 1036059, Note_on_c, 0, 76, 85
1, 1036077, Note_on_c, 0, 61, 57
1, 1036080, Note_off_c, 0, 76, 69
1, 1036109, Note_off_c, 0, 61, 63
1, 1036114, Control_c, 0, 67, 0
1, 1036188, Control_c, 0, 64, 115
1, 1036203, Control_c, 0, 64, 90
1, 1036218, Control_c, 0, 64, 72
1, 1036223, Note_off_c, 0, 52, 41
1, 1036232, Control_c, 0, 64, 44
1, 1036247, Control_c, 0, 64, 0
1, 1036256, Note_on_c, 0, 47, 50
1, 1036266, Note_on_c, 0, 76, 87
1, 1036274, Note_on_c, 0, 74, 78
1, 1036289, Note_off_c, 0, 76, 64
1, 1036296, Note_off_c, 0, 74, 69
1, 1036366, Note_on_c, 0, 74, 78
1, 1036368, Note_off_c, 0, 47, 54
1, 1036371, Note_on_c, 0, 76, 67
1, 1036390, Note_off_c, 0, 76, 66
1, 1036393, Note_off_c, 0, 74, 65
1, 1036450, Note_on_c, 0, 74, 71
1, 1036452, Note_on_c, 0, 76, 76
1, 1036464, Note_on_c, 0, 56, 52
1, 1036476, Note_off_c, 0, 76, 69
1, 1036477, Note_off_c, 0, 74, 67
1, 1036539, Note_on_c, 0, 76, 76
1, 1036541, Note_on_c, 0, 74, 72
1, 1036573, Note_off_c, 0, 76, 65
1, 1036575, Note_off_c, 0, 74, 67
1, 1036624, Note_on_c, 0, 62, 49
1, 1036636, Note_on_c, 0, 74, 77
1, 1036639, Note_on_c, 0, 76, 61
1, 1036652, Note_off_c, 0, 62, 62
1, 1036658, Note_off_c, 0, 74, 69
1, 1036664, Note_off_c, 0, 76, 65
1, 1036727, Note_on_c, 0, 76, 72
1, 1036729, Note_on_c, 0, 74, 74
1, 1036756, Note_off_c, 0, 74, 66
1, 1036769, Note_off_c, 0, 76, 59
1, 1036786, Note_off_c, 0, 56, 40
1, 1036814, Note_on_c, 0, 49, 45
1, 1036831, Note_on_c, 0, 78, 66
1, 1036835, Note_on_c, 0, 73, 61
1, 1036864, Note_off_c, 0, 73, 66
1, 1036910, Note_off_c, 0, 78, 62
1, 1036918, Note_on_c, 0, 76, 65
1, 1036988, Note_on_c, 0, 57, 45
1, 1036994, Note_off_c, 0, 76, 57
1, 1037017, Note_on_c, 0, 73, 55
1, 1037054, Note_off_c, 0, 73, 63
1, 1037096, Note_off_c, 0, 49, 44
1, 1037102, Note_on_c, 0, 69, 54
1, 1037139, Note_off_c, 0, 69, 63
1, 1037160, Control_c, 0, 64, 43
1, 1037162, Note_off_c, 0, 57, 56
1, 1037174, Control_c, 0, 64, 62
1, 1037189, Control_c, 0, 64, 68
1, 1037197, Note_on_c, 0, 64, 60
1, 1037202, Note_on_c, 0, 61, 48
1, 1037204, Control_c, 0, 64, 75
1, 1037216, Note_off_c, 0, 64, 64
1, 1037219, Control_c, 0, 64, 86
1, 1037227, Note_off_c, 0, 61, 58
1, 1037234, Control_c, 0, 64, 98
1, 1037248, Control_c, 0, 64, 127
1, 1037396, Note_on_c, 0, 79, 92
1, 1037403, Note_on_c, 0, 88, 103
1, 1037404, Note_on_c, 0, 81, 97
1, 1037411, Note_off_c, 0, 79, 75
1, 1037415, Note_on_c, 0, 85, 79
1, 1037420, Note_off_c, 0, 81, 74
1, 1037426, Note_off_c, 0, 88, 62
1, 1037435, Note_off_c, 0, 85, 73
1, 1037435, Control_c, 0, 64, 73
1, 1037450, Control_c, 0, 64, 41
1, 1037465, Control_c, 0, 64, 0
1, 1037608, Note_on_c, 0, 67, 95
1, 1037610, Note_on_c, 0, 76, 96
1, 1037623, Note_off_c, 0, 67, 77
1, 1037627, Note_off_c, 0, 76, 73
1, 1037630, Note_on_c, 0, 69, 48
1, 1037633, Note_on_c, 0, 73, 50
1, 1037655, Note_off_c, 0, 69, 57
1, 1037658, Note_off_c, 0, 73, 57
1, 1037802, Note_on_c, 0, 64, 89
1, 1037806, Note_on_c, 0, 61, 81
1, 1037819, Note_on_c, 0, 57, 69
1, 1037823, Note_off_c, 0, 64, 67
1, 1037830, Note_off_c, 0, 61, 67
1, 1037845, Note_off_c, 0, 57, 66
1, 1038016, Note_on_c, 0, 62, 101
1, 1038018, Note_on_c, 0, 57, 79
1, 1038024, Note_on_c, 0, 50, 72
1, 1038027, Control_c, 0, 64, 55
1, 1038050, Control_c, 0, 64, 80
1, 1038058, Note_off_c, 0, 62, 67
1, 1038059, Note_off_c, 0, 50, 67
1, 1038065, Control_c, 0, 64, 127
1, 1038073, Note_off_c, 0, 57, 61
1, 1038213, Note_on_c, 0, 78, 93
1, 1038216, Note_on_c, 0, 86, 89
1, 1038216, Note_on_c, 0, 90, 93
1, 1038232, Note_off_c, 0, 78, 67
1, 1038237, Note_off_c, 0, 86, 65
1, 1038288, Note_off_c, 0, 90, 63
1, 1038389, Note_on_c, 0, 81, 83
1, 1038405, Note_on_c, 0, 86, 90
1, 1038420, Control_c, 0, 67, 20
1, 1038423, Note_off_c, 0, 81, 63
1, 1038432, Note_on_c, 0, 90, 87
1, 1038432, Note_on_c, 0, 93, 87
1, 1038435, Control_c, 0, 67, 22
1, 1038442, Note_off_c, 0, 86, 66
1, 1038450, Control_c, 0, 64, 92
1, 1038450, Control_c, 0, 67, 24
1, 1038459, Note_off_c, 0, 90, 63
1, 1038465, Control_c, 0, 64, 65
1, 1038465, Control_c, 0, 67, 27
1, 1038466, Note_off_c, 0, 93, 68
1, 1038480, Control_c, 0, 64, 0
1, 1038480, Control_c, 0, 67, 33
1, 1038495, Control_c, 0, 67, 42
1, 1038509, Control_c, 0, 67, 52
1, 1038524, Control_c, 0, 67, 63
1, 1038539, Control_c, 0, 67, 75
1, 1038554, Control_c, 0, 67, 85
1, 1038569, Control_c, 0, 67, 93
1, 1038584, Control_c, 0, 67, 102
1, 1038599, Control_c, 0, 67, 109
1, 1038614, Control_c, 0, 67, 120
1, 1038628, Control_c, 0, 67, 127
1, 1038689, Note_on_c, 0, 100, 70
1, 1038693, Note_on_c, 0, 52, 45
1, 1038697, Note_on_c, 0, 57, 53
1, 1038698, Note_on_c, 0, 64, 40
1, 1038701, Note_on_c, 0, 61, 44
1, 1038722, Note_off_c, 0, 52, 55
1, 1038726, Note_off_c, 0, 64, 49
1, 1038727, Note_on_c, 0, 97, 62
1, 1038733, Note_off_c, 0, 61, 52
1, 1038738, Note_off_c, 0, 57, 61
1, 1038742, Note_off_c, 0, 100, 56
1, 1038758, Note_off_c, 0, 97, 53
1, 1038802, Note_on_c, 0, 93, 48
1, 1038824, Note_off_c, 0, 93, 63
1, 1038883, Note_on_c, 0, 97, 64
1, 1038888, Note_on_c, 0, 61, 48
1, 1038890, Note_on_c, 0, 52, 27
1, 1038890, Note_on_c, 0, 57, 36
1, 1038890, Note_on_c, 0, 64, 31
1, 1038918, Note_off_c, 0, 61, 59
1, 1038921, Note_off_c, 0, 57, 55
1, 1038922, Note_off_c, 0, 64, 32
1, 1038924, Note_on_c, 0, 93, 67
1, 1038927, Note_off_c, 0, 52, 41
1, 1038938, Note_off_c, 0, 97, 65
1, 1038952, Note_off_c, 0, 93, 66
1, 1038983, Note_on_c, 0, 88, 62
1, 1039004, Note_off_c, 0, 88, 66
1, 1039067, Note_on_c, 0, 93, 64
1, 1039092, Note_on_c, 0, 88, 69
1, 1039095, Note_off_c, 0, 93, 65
1, 1039127, Note_off_c, 0, 88, 61
1, 1039140, Control_c, 0, 67, 120
1, 1039144, Note_on_c, 0, 85, 61
1, 1039155, Control_c, 0, 67, 93
1, 1039169, Control_c, 0, 67, 60
1, 1039171, Note_off_c, 0, 85, 68
1, 1039184, Control_c, 0, 67, 26
1, 1039199, Control_c, 0, 67, 0
1, 1039253, Note_on_c, 0, 88, 73
1, 1039263, Note_on_c, 0, 52, 53
1, 1039281, Note_on_c, 0, 62, 27
1, 1039284, Note_on_c, 0, 59, 32
1, 1039288, Note_on_c, 0, 86, 64
1, 1039290, Note_off_c, 0, 52, 61
1, 1039300, Note_off_c, 0, 88, 51
1, 1039304, Note_on_c, 0, 64, 3
1, 1039318, Note_off_c, 0, 59, 46
1, 1039318, Note_off_c, 0, 62, 32
1, 1039329, Note_off_c, 0, 86, 50
1, 1039342, Note_off_c, 0, 64, 29
1, 1039356, Note_on_c, 0, 83, 47
1, 1039380, Note_off_c, 0, 83, 54
1, 1039447, Note_on_c, 0, 59, 48
1, 1039448, Note_on_c, 0, 86, 56
1, 1039457, Note_on_c, 0, 64, 20
1, 1039465, Note_on_c, 0, 83, 69
1, 1039471, Note_off_c, 0, 59, 60
1, 1039484, Note_off_c, 0, 86, 51
1, 1039493, Note_off_c, 0, 64, 32
1, 1039523, Note_off_c, 0, 83, 61
1, 1039535, Note_on_c, 0, 80, 57
1, 1039564, Note_off_c, 0, 80, 61
1, 1039621, Control_c, 0, 64, 50
1, 1039636, Control_c, 0, 64, 71
1, 1039637, Note_on_c, 0, 83, 80
1, 1039647, Note_on_c, 0, 80, 70
1, 1039651, Control_c, 0, 64, 91
1, 1039666, Control_c, 0, 64, 127
1, 1039685, Note_off_c, 0, 83, 62
1, 1039687, Note_on_c, 0, 76, 75
1, 1039693, Note_off_c, 0, 80, 60
1, 1039711, Note_off_c, 0, 76, 70
1, 1039820, Note_on_c, 0, 67, 101
1, 1039824, Note_on_c, 0, 76, 98
1, 1039830, Note_on_c, 0, 69, 77
1, 1039833, Note_on_c, 0, 73, 85
1, 1039834, Note_off_c, 0, 67, 78
1, 1039839, Note_off_c, 0, 76, 76
1, 1039851, Note_off_c, 0, 69, 71
1, 1039852, Note_off_c, 0, 73, 72
1, 1039889, Control_c, 0, 64, 108
1, 1039904, Control_c, 0, 64, 75
1, 1039918, Control_c, 0, 64, 51
1, 1039933, Control_c, 0, 64, 0
1, 1040024, Note_on_c, 0, 55, 105
1, 1040027, Note_on_c, 0, 64, 94
1, 1040039, Note_on_c, 0, 57, 66
1, 1040041, Note_off_c, 0, 55, 71
1, 1040045, Note_off_c, 0, 64, 73
1, 1040062, Note_off_c, 0, 57, 65
1, 1040229, Note_on_c, 0, 52, 96
1, 1040235, Note_on_c, 0, 49, 86
1, 1040244, Note_on_c, 0, 45, 81
1, 1040259, Note_off_c, 0, 52, 64
1, 1040259, Note_off_c, 0, 49, 70
1, 1040273, Note_off_c, 0, 45, 68
1, 1040451, Note_on_c, 0, 50, 108
1, 1040455, Note_on_c, 0, 45, 88
1, 1040459, Note_on_c, 0, 38, 66
1, 1040484, Note_off_c, 0, 45, 70
1, 1040486, Note_off_c, 0, 38, 62
1, 1040490, Control_c, 0, 64, 67
1, 1040497, Note_off_c, 0, 50, 67
1, 1040504, Control_c, 0, 64, 117
1, 1040519, Control_c, 0, 64, 127
1, 1040643, Note_on_c, 0, 54, 94
1, 1040651, Note_on_c, 0, 62, 76
1, 1040651, Note_on_c, 0, 66, 88
1, 1040662, Note_off_c, 0, 54, 72
1, 1040674, Note_off_c, 0, 62, 70
1, 1040703, Note_off_c, 0, 66, 65
1, 1040836, Note_on_c, 0, 69, 85
1, 1040849, Note_on_c, 0, 74, 91
1, 1040864, Note_on_c, 0, 81, 87
1, 1040868, Note_off_c, 0, 69, 66
1, 1040869, Note_on_c, 0, 78, 79
1, 1040875, Note_off_c, 0, 74, 60
1, 1040875, Control_c, 0, 64, 94
1, 1040889, Control_c, 0, 64, 66
1, 1040890, Note_off_c, 0, 78, 70
1, 1040900, Note_off_c, 0, 81, 66
1, 1040904, Control_c, 0, 64, 0
1, 1041120, Note_on_c, 0, 64, 52
1, 1041125, Note_on_c, 0, 61, 54
1, 1041127, Note_on_c, 0, 57, 54
1, 1041128, Note_on_c, 0, 88, 63
1, 1041132, Note_on_c, 0, 52, 33
1, 1041142, Note_off_c, 0, 64, 59
1, 1041156, Note_off_c, 0, 61, 63
1, 1041160, Note_off_c, 0, 88, 63
1, 1041161, Note_off_c, 0, 57, 65
1, 1041165, Note_off_c, 0, 52, 44
1, 1041169, Note_on_c, 0, 85, 45
1, 1041206, Note_off_c, 0, 85, 57
1, 1041225, Note_on_c, 0, 81, 53
1, 1041256, Note_off_c, 0, 81, 55
1, 1041308, Note_on_c, 0, 85, 68
1, 1041319, Note_on_c, 0, 61, 54
1, 1041323, Note_on_c, 0, 52, 29
1, 1041331, Note_on_c, 0, 64, 28
1, 1041338, Note_on_c, 0, 57, 10
1, 1041341, Note_off_c, 0, 61, 59
1, 1041359, Note_off_c, 0, 52, 49
1, 1041361, Note_on_c, 0, 81, 67
1, 1041365, Note_off_c, 0, 64, 34
1, 1041369, Note_off_c, 0, 85, 64
1, 1041383, Note_off_c, 0, 57, 27
1, 1041392, Note_off_c, 0, 81, 63
1, 1041421, Note_on_c, 0, 76, 63
1, 1041446, Note_off_c, 0, 76, 66
1, 1041502, Note_on_c, 0, 81, 65
1, 1041538, Note_on_c, 0, 76, 64
1, 1041544, Note_off_c, 0, 81, 49
1, 1041579, Note_off_c, 0, 76, 62
1, 1041595, Note_on_c, 0, 73, 55
1, 1041626, Note_off_c, 0, 73, 65
1, 1041708, Note_on_c, 0, 52, 55
1, 1041714, Note_on_c, 0, 76, 65
1, 1041716, Note_on_c, 0, 62, 45
1, 1041717, Note_on_c, 0, 59, 50
1, 1041728, Note_on_c, 0, 64, 30
1, 1041728, Note_off_c, 0, 64, 127
1, 1041732, Note_off_c, 0, 52, 60
1, 1041738, Note_on_c, 0, 74, 75
1, 1041741, Note_off_c, 0, 59, 58
1, 1041747, Note_off_c, 0, 62, 36
1, 1041750, Note_off_c, 0, 76, 56
1, 1041782, Note_off_c, 0, 74, 57
1, 1041823, Note_on_c, 0, 71, 48
1, 1041846, Note_off_c, 0, 71, 56
1, 1041897, Note_on_c, 0, 52, 60
1, 1041898, Note_on_c, 0, 59, 54
1, 1041899, Note_on_c, 0, 62, 55
1, 1041902, Note_on_c, 0, 74, 78
1, 1041918, Note_on_c, 0, 64, 27
1, 1041920, Note_off_c, 0, 52, 59
1, 1041921, Note_off_c, 0, 59, 63
1, 1041926, Note_off_c, 0, 62, 36
1, 1041945, Note_on_c, 0, 71, 67
1, 1041954, Note_off_c, 0, 64, 32
1, 1041981, Note_off_c, 0, 74, 59
1, 1042004, Note_off_c, 0, 71, 65
1, 1042012, Note_on_c, 0, 68, 59
1, 1042040, Note_off_c, 0, 68, 66
1, 1042110, Note_on_c, 0, 71, 68
1, 1042134, Control_c, 0, 64, 48
1, 1042142, Note_on_c, 0, 68, 69
1, 1042149, Control_c, 0, 64, 63
1, 1042164, Control_c, 0, 64, 69
1, 1042179, Control_c, 0, 64, 74
1, 1042191, Note_off_c, 0, 71, 62
1, 1042194, Control_c, 0, 64, 81
1, 1042203, Note_on_c, 0, 64, 71
1, 1042203, Note_off_c, 0, 68, 64
1, 1042209, Control_c, 0, 64, 91
1, 1042224, Control_c, 0, 64, 114
1, 1042226, Note_off_c, 0, 64, 69
1, 1042239, Control_c, 0, 64, 127
1, 1042292, Note_on_c, 0, 69, 96
1, 1042295, Note_on_c, 0, 57, 86
1, 1042323, Note_on_c, 0, 52, 67
1, 1042339, Note_on_c, 0, 64, 79
1, 1042340, Note_off_c, 0, 57, 60
1, 1042357, Control_c, 0, 64, 102
1, 1042372, Control_c, 0, 64, 74
1, 1042380, Note_off_c, 0, 69, 56
1, 1042386, Control_c, 0, 64, 55
1, 1042392, Note_off_c, 0, 52, 63
1, 1042400, Note_on_c, 0, 49, 68
1, 1042401, Control_c, 0, 64, 0
1, 1042408, Note_off_c, 0, 64, 65
1, 1042410, Note_on_c, 0, 61, 76
1, 1042428, Note_off_c, 0, 49, 65
1, 1042432, Note_off_c, 0, 61, 67
1, 1042495, Note_on_c, 0, 64, 87
1, 1042496, Note_on_c, 0, 52, 75
1, 1042540, Note_on_c, 0, 61, 60
1, 1042560, Note_on_c, 0, 49, 70
1, 1042569, Note_off_c, 0, 52, 61
1, 1042595, Note_off_c, 0, 64, 63
1, 1042599, Note_on_c, 0, 57, 75
1, 1042613, Note_off_c, 0, 61, 62
1, 1042622, Note_off_c, 0, 49, 64
1, 1042623, Note_off_c, 0, 57, 70
1, 1042626, Note_on_c, 0, 45, 69
1, 1042649, Note_off_c, 0, 45, 60
1, 1042706, Note_on_c, 0, 57, 83
1, 1042712, Note_on_c, 0, 45, 85
1, 1042739, Note_on_c, 0, 52, 78
1, 1042744, Note_off_c, 0, 45, 62
1, 1042760, Note_off_c, 0, 57, 62
1, 1042772, Note_on_c, 0, 40, 58
1, 1042776, Note_off_c, 0, 52, 63
1, 1042787, Note_on_c, 0, 49, 76
1, 1042803, Note_off_c, 0, 40, 64
1, 1042811, Note_off_c, 0, 49, 67
1, 1042865, Note_on_c, 0, 37, 3
1, 1042903, Note_off_c, 0, 37, 26
1, 1042970, Note_on_c, 0, 33, 98
1, 1042978, Note_on_c, 0, 45, 98
1, 1043076, Control_c, 0, 64, 58
1, 1043091, Control_c, 0, 64, 69
1, 1043106, Control_c, 0, 64, 84
1, 1043121, Control_c, 0, 64, 122
1, 1043135, Control_c, 0, 64, 127
1, 1043616, Note_off_c, 0, 33, 62
1, 1043635, Note_off_c, 0, 45, 63
1, 1043707, Control_c, 0, 64, 113
1, 1043722, Control_c, 0, 64, 88
1, 1043737, Control_c, 0, 64, 74
1, 1043752, Control_c, 0, 64, 64
1, 1043766, Control_c, 0, 64, 51
1, 1043781, Control_c, 0, 64, 0
1, 1049007, Control_c, 0, 67, 20
1, 1049037, Control_c, 0, 67, 22
1, 1049052, Control_c, 0, 67, 24
1, 1049081, Control_c, 0, 67, 27
1, 1049096, Control_c, 0, 67, 29
1, 1049111, Control_c, 0, 67, 31
1, 1049126, Control_c, 0, 67, 34
1, 1049141, Control_c, 0, 67, 37
1, 1049155, Control_c, 0, 67, 40
1, 1049170, Control_c, 0, 67, 44
1, 1049185, Control_c, 0, 67, 49
1, 1049199, Control_c, 0, 67, 53
1, 1049214, Control_c, 0, 67, 56
1, 1049229, Control_c, 0, 67, 62
1, 1049244, Control_c, 0, 67, 68
1, 1049260, Control_c, 0, 67, 74
1, 1049282, Control_c, 0, 67, 79
1, 1049297, Control_c, 0, 67, 84
1, 1049312, Control_c, 0, 67, 88
1, 1049327, Control_c, 0, 67, 92
1, 1049342, Control_c, 0, 67, 97
1, 1049357, Control_c, 0, 67, 101
1, 1049372, Control_c, 0, 67, 104
1, 1049401, Control_c, 0, 67, 107
1, 1049416, Control_c, 0, 67, 109
1, 1049430, Control_c, 0, 67, 112
1, 1049445, Control_c, 0, 67, 114
1, 1049460, Control_c, 0, 67, 117
1, 1049475, Control_c, 0, 67, 119
1, 1049490, Control_c, 0, 67, 121
1, 1049519, Control_c, 0, 67, 124
1, 1049534, Control_c, 0, 67, 126
1, 1050357, Control_c, 0, 64, 43
1, 1050372, Control_c, 0, 64, 54
1, 1050386, Control_c, 0, 64, 59
1, 1050401, Control_c, 0, 64, 62
1, 1050416, Control_c, 0, 64, 63
1, 1050431, Control_c, 0, 64, 65
1, 1050446, Control_c, 0, 64, 66
1, 1050460, Control_c, 0, 64, 69
1, 1050475, Control_c, 0, 64, 73
1, 1050490, Control_c, 0, 64, 77
1, 1050505, Control_c, 0, 64, 80
1, 1050520, Control_c, 0, 64, 84
1, 1050534, Control_c, 0, 64, 88
1, 1050549, Control_c, 0, 64, 91
1, 1050564, Control_c, 0, 64, 94
1, 1050579, Control_c, 0, 64, 98
1, 1050594, Control_c, 0, 64, 101
1, 1050609, Control_c, 0, 64, 104
1, 1050624, Control_c, 0, 64, 106
1, 1050668, Control_c, 0, 64, 108
1, 1050997, Note_on_c, 0, 45, 38
1, 1050997, Note_on_c, 0, 61, 37
1, 1051047, Control_c, 0, 64, 103
1, 1051062, Control_c, 0, 64, 93
1, 1051077, Control_c, 0, 64, 78
1, 1051092, Control_c, 0, 64, 65
1, 1051101, Note_off_c, 0, 61, 60
1, 1051107, Control_c, 0, 64, 49
1, 1051122, Control_c, 0, 64, 0
1, 1051166, Control_c, 0, 64, 43
1, 1051181, Control_c, 0, 64, 56
1, 1051188, Note_on_c, 0, 52, 20
1, 1051196, Control_c, 0, 64, 62
1, 1051210, Control_c, 0, 64, 66
1, 1051225, Control_c, 0, 64, 69
1, 1051240, Control_c, 0, 64, 73
1, 1051255, Control_c, 0, 64, 75
1, 1051270, Control_c, 0, 64, 78
1, 1051284, Control_c, 0, 64, 80
1, 1051299, Control_c, 0, 64, 84
1, 1051307, Note_off_c, 0, 45, 23
1, 1051314, Control_c, 0, 64, 87
1, 1051329, Control_c, 0, 64, 90
1, 1051344, Control_c, 0, 64, 93
1, 1051358, Control_c, 0, 64, 96
1, 1051373, Control_c, 0, 64, 100
1, 1051388, Control_c, 0, 64, 105
1, 1051401, Note_off_c, 0, 52, 35
1, 1051402, Control_c, 0, 64, 111
1, 1051403, Note_on_c, 0, 64, 46
1, 1051406, Note_on_c, 0, 61, 34
1, 1051416, Note_on_c, 0, 57, 20
1, 1051417, Control_c, 0, 64, 122
1, 1051432, Control_c, 0, 64, 127
1, 1051432, Control_c, 0, 67, 120
1, 1051447, Control_c, 0, 67, 112
1, 1051462, Control_c, 0, 67, 102
1, 1051476, Control_c, 0, 67, 91
1, 1051491, Control_c, 0, 67, 80
1, 1051506, Control_c, 0, 67, 69
1, 1051528, Control_c, 0, 67, 59
1, 1051543, Control_c, 0, 67, 51
1, 1051558, Control_c, 0, 67, 44
1, 1051566, Note_on_c, 0, 52, 37
1, 1051573, Control_c, 0, 67, 37
1, 1051588, Control_c, 0, 67, 31
1, 1051602, Control_c, 0, 67, 24
1, 1051617, Control_c, 0, 67, 0
1, 1051643, Note_off_c, 0, 57, 24
1, 1051700, Note_off_c, 0, 64, 54
1, 1051706, Note_off_c, 0, 61, 39
1, 1051715, Note_off_c, 0, 52, 36
1, 1051733, Note_on_c, 0, 49, 38
1, 1051869, Note_on_c, 0, 52, 42
1, 1052021, Note_off_c, 0, 52, 46
1, 1052036, Note_on_c, 0, 69, 62
1, 1052055, Note_on_c, 0, 57, 31
1, 1052055, Note_on_c, 0, 64, 42
1, 1052059, Note_on_c, 0, 61, 41
1, 1052138, Note_off_c, 0, 61, 47
1, 1052141, Note_off_c, 0, 64, 52
1, 1052176, Note_on_c, 0, 52, 46
1, 1052230, Note_off_c, 0, 69, 37
1, 1052332, Note_off_c, 0, 49, 41
1, 1052350, Note_off_c, 0, 52, 32
1, 1052350, Control_c, 0, 64, 101
1, 1052357, Note_on_c, 0, 47, 42
1, 1052365, Control_c, 0, 64, 77
1, 1052373, Note_on_c, 0, 69, 51
1, 1052380, Control_c, 0, 64, 62
1, 1052395, Control_c, 0, 64, 36
1, 1052405, Note_on_c, 0, 64, 36
1, 1052410, Control_c, 0, 64, 0
1, 1052416, Note_on_c, 0, 62, 30
1, 1052485, Control_c, 0, 64, 46
1, 1052492, Note_off_c, 0, 57, 52
1, 1052500, Control_c, 0, 64, 61
1, 1052515, Control_c, 0, 64, 66
1, 1052529, Control_c, 0, 64, 69
1, 1052535, Note_on_c, 0, 52, 35
1, 1052544, Control_c, 0, 64, 70
1, 1052573, Control_c, 0, 64, 71
1, 1052603, Control_c, 0, 64, 70
1, 1052618, Control_c, 0, 64, 68
1, 1052633, Control_c, 0, 64, 64
1, 1052648, Control_c, 0, 64, 58
1, 1052663, Control_c, 0, 64, 38
1, 1052678, Control_c, 0, 64, 0
1, 1052697, Note_on_c, 0, 68, 58
1, 1052697, Note_off_c, 0, 52, 39
1, 1052721, Note_on_c, 0, 56, 32
1, 1052722, Control_c, 0, 64, 43
1, 1052737, Control_c, 0, 64, 57
1, 1052741, Note_off_c, 0, 69, 39
1, 1052747, Note_off_c, 0, 64, 56
1, 1052752, Control_c, 0, 64, 65
1, 1052767, Control_c, 0, 64, 70
1, 1052781, Note_off_c, 0, 62, 54
1, 1052781, Control_c, 0, 64, 74
1, 1052796, Control_c, 0, 64, 77
1, 1052811, Control_c, 0, 64, 79
1, 1052825, Note_off_c, 0, 68, 61
1, 1052826, Control_c, 0, 64, 82
1, 1052827, Note_on_c, 0, 52, 43
1, 1052841, Control_c, 0, 64, 85
1, 1052850, Note_off_c, 0, 47, 41
1, 1052855, Control_c, 0, 64, 89
1, 1052870, Control_c, 0, 64, 91
1, 1052885, Control_c, 0, 64, 92
1, 1052929, Control_c, 0, 64, 91
1, 1052944, Control_c, 0, 64, 89
1, 1052959, Control_c, 0, 64, 79
1, 1052973, Control_c, 0, 64, 68
1, 1052983, Note_off_c, 0, 56, 38
1, 1052988, Note_off_c, 0, 52, 37
1, 1052988, Control_c, 0, 64, 57
1, 1053003, Control_c, 0, 64, 0
1, 1053023, Note_on_c, 0, 49, 36
1, 1053038, Note_on_c, 0, 69, 51
1, 1053052, Note_on_c, 0, 64, 40
1, 1053074, Note_on_c, 0, 61, 27
1, 1053085, Control_c, 0, 64, 37
1, 1053099, Control_c, 0, 64, 51
1, 1053114, Control_c, 0, 64, 62
1, 1053129, Control_c, 0, 64, 68
1, 1053144, Control_c, 0, 64, 72
1, 1053159, Control_c, 0, 64, 76
1, 1053171, Note_off_c, 0, 61, 50
1, 1053173, Note_on_c, 0, 52, 32
1, 1053173, Control_c, 0, 64, 81
1, 1053188, Control_c, 0, 64, 88
1, 1053203, Control_c, 0, 64, 95
1, 1053218, Control_c, 0, 64, 105
1, 1053233, Control_c, 0, 64, 127
1, 1053244, Note_off_c, 0, 69, 36
1, 1053259, Note_off_c, 0, 64, 61
1, 1053342, Note_off_c, 0, 52, 43
1, 1053363, Note_on_c, 0, 57, 42
1, 1053404, Note_off_c, 0, 49, 39
1, 1053479, Note_on_c, 0, 52, 40
1, 1053575, Note_off_c, 0, 52, 54
1, 1053655, Note_on_c, 0, 50, 36
1, 1053664, Control_c, 0, 64, 90
1, 1053672, Note_on_c, 0, 71, 64
1, 1053678, Control_c, 0, 64, 71
1, 1053687, Note_on_c, 0, 69, 49
1, 1053693, Control_c, 0, 64, 56
1, 1053694, Note_on_c, 0, 66, 47
1, 1053708, Control_c, 0, 64, 0
1, 1053750, Note_off_c, 0, 57, 8
1, 1053775, Control_c, 0, 64, 53
1, 1053790, Control_c, 0, 64, 64
1, 1053804, Control_c, 0, 64, 71
1, 1053816, Note_off_c, 0, 66, 59
1, 1053819, Control_c, 0, 64, 81
1, 1053834, Note_on_c, 0, 54, 43
1, 1053834, Control_c, 0, 64, 92
1, 1053849, Control_c, 0, 64, 106
1, 1053857, Note_off_c, 0, 69, 55
1, 1053864, Control_c, 0, 64, 127
1, 1053873, Note_off_c, 0, 71, 61
1, 1053927, Note_off_c, 0, 54, 58
1, 1053976, Note_on_c, 0, 59, 52
1, 1054106, Note_on_c, 0, 71, 76
1, 1054118, Note_on_c, 0, 69, 59
1, 1054129, Note_on_c, 0, 66, 52
1, 1054136, Note_on_c, 0, 54, 47
1, 1054168, Note_off_c, 0, 66, 49
1, 1054188, Note_off_c, 0, 69, 59
1, 1054227, Note_off_c, 0, 59, 36
1, 1054269, Note_off_c, 0, 50, 40
1, 1054272, Note_off_c, 0, 54, 47
1, 1054280, Control_c, 0, 64, 94
1, 1054282, Note_on_c, 0, 51, 38
1, 1054294, Control_c, 0, 64, 71
1, 1054306, Note_on_c, 0, 73, 71
1, 1054309, Control_c, 0, 64, 53
1, 1054311, Note_on_c, 0, 69, 59
1, 1054324, Control_c, 0, 64, 0
1, 1054325, Note_off_c, 0, 71, 61
1, 1054333, Note_on_c, 0, 66, 48
1, 1054353, Control_c, 0, 64, 41
1, 1054368, Control_c, 0, 64, 54
1, 1054377, Note_off_c, 0, 69, 63
1, 1054383, Control_c, 0, 64, 62
1, 1054398, Control_c, 0, 64, 69
1, 1054398, Control_c, 0, 67, 21
1, 1054404, Note_off_c, 0, 66, 61
1, 1054413, Control_c, 0, 64, 78
1, 1054413, Control_c, 0, 67, 24
1, 1054427, Control_c, 0, 64, 90
1, 1054427, Control_c, 0, 67, 30
1, 1054442, Control_c, 0, 64, 99
1, 1054442, Control_c, 0, 67, 39
1, 1054452, Note_on_c, 0, 54, 52
1, 1054457, Control_c, 0, 64, 107
1, 1054457, Control_c, 0, 67, 53
1, 1054472, Control_c, 0, 64, 113
1, 1054472, Control_c, 0, 67, 75
1, 1054487, Control_c, 0, 64, 117
1, 1054487, Control_c, 0, 67, 92
1, 1054502, Control_c, 0, 64, 122
1, 1054502, Control_c, 0, 67, 107
1, 1054517, Control_c, 0, 64, 127
1, 1054517, Control_c, 0, 67, 119
1, 1054539, Control_c, 0, 67, 127
1, 1054574, Note_off_c, 0, 54, 54
1, 1054626, Note_on_c, 0, 69, 66
1, 1054634, Note_on_c, 0, 61, 50
1, 1054636, Note_on_c, 0, 66, 60
1, 1054645, Note_on_c, 0, 57, 36
1, 1054669, Note_off_c, 0, 73, 55
1, 1054727, Note_off_c, 0, 69, 61
1, 1054732, Note_off_c, 0, 57, 40
1, 1054760, Note_on_c, 0, 54, 48
1, 1054770, Note_off_c, 0, 66, 33
1, 1054785, Note_off_c, 0, 51, 40
1, 1054787, Note_off_c, 0, 54, 54
1, 1054810, Note_off_c, 0, 61, 43
1, 1054910, Control_c, 0, 64, 109
1, 1054925, Control_c, 0, 64, 91
1, 1054940, Control_c, 0, 64, 75
1, 1054955, Control_c, 0, 64, 60
1, 1054965, Note_on_c, 0, 69, 60
1, 1054968, Note_on_c, 0, 40, 26
1, 1054969, Control_c, 0, 64, 45
1, 1054984, Control_c, 0, 64, 43
1, 1054991, Note_on_c, 0, 64, 37
1, 1054993, Note_on_c, 0, 61, 45
1, 1054999, Control_c, 0, 64, 49
1, 1055014, Control_c, 0, 64, 56
1, 1055029, Control_c, 0, 64, 61
1, 1055043, Control_c, 0, 64, 67
1, 1055058, Control_c, 0, 64, 74
1, 1055058, Control_c, 0, 67, 125
1, 1055073, Control_c, 0, 64, 81
1, 1055088, Control_c, 0, 64, 85
1, 1055089, Note_off_c, 0, 40, 57
1, 1055103, Control_c, 0, 64, 88
1, 1055117, Control_c, 0, 64, 91
1, 1055132, Note_off_c, 0, 61, 56
1, 1055132, Control_c, 0, 64, 93
1, 1055145, Note_on_c, 0, 52, 52
1, 1055147, Control_c, 0, 64, 94
1, 1055162, Control_c, 0, 64, 95
1, 1055162, Control_c, 0, 67, 123
1, 1055171, Note_off_c, 0, 52, 60
1, 1055206, Control_c, 0, 64, 97
1, 1055310, Note_on_c, 0, 57, 45
1, 1055412, Note_off_c, 0, 57, 57
1, 1055445, Note_on_c, 0, 61, 45
1, 1055508, Control_c, 0, 64, 95
1, 1055523, Control_c, 0, 64, 94
1, 1055538, Control_c, 0, 64, 93
1, 1055553, Control_c, 0, 64, 91
1, 1055567, Control_c, 0, 64, 90
1, 1055582, Control_c, 0, 64, 88
1, 1055597, Control_c, 0, 64, 87
1, 1055612, Control_c, 0, 64, 85
1, 1055627, Control_c, 0, 64, 83
1, 1055635, Note_on_c, 0, 59, 34
1, 1055640, Note_off_c, 0, 64, 37
1, 1055643, Control_c, 0, 64, 81
1, 1055644, Note_on_c, 0, 68, 52
1, 1055658, Control_c, 0, 64, 78
1, 1055672, Control_c, 0, 64, 75
1, 1055687, Control_c, 0, 64, 70
1, 1055702, Control_c, 0, 64, 65
1, 1055716, Control_c, 0, 64, 57
1, 1055731, Control_c, 0, 64, 43
1, 1055733, Note_off_c, 0, 61, 19
1, 1055746, Control_c, 0, 64, 0
1, 1055792, Note_off_c, 0, 59, 36
1, 1055808, Note_on_c, 0, 62, 42
1, 1055809, Note_on_c, 0, 66, 69
1, 1055836, Note_off_c, 0, 69, 40
1, 1055881, Note_off_c, 0, 62, 54
1, 1055906, Note_off_c, 0, 68, 35
1, 1055939, Control_c, 0, 64, 48
1, 1055954, Control_c, 0, 64, 61
1, 1055963, Note_on_c, 0, 61, 37
1, 1055969, Control_c, 0, 64, 65
1, 1055969, Control_c, 0, 67, 121
1, 1055970, Note_on_c, 0, 64, 61
1, 1055984, Control_c, 0, 64, 68
1, 1055998, Control_c, 0, 64, 70
1, 1056021, Note_off_c, 0, 61, 57
1, 1056021, Control_c, 0, 64, 72
1, 1056021, Control_c, 0, 67, 118
1, 1056031, Note_off_c, 0, 66, 54
1, 1056036, Control_c, 0, 64, 75
1, 1056036, Control_c, 0, 67, 111
1, 1056051, Control_c, 0, 64, 77
1, 1056051, Control_c, 0, 67, 102
1, 1056066, Control_c, 0, 64, 79
1, 1056066, Control_c, 0, 67, 93
1, 1056080, Control_c, 0, 64, 79
1, 1056080, Control_c, 0, 67, 86
1, 1056083, Note_off_c, 0, 64, 62
1, 1056095, Control_c, 0, 67, 80
1, 1056104, Note_on_c, 0, 59, 47
1, 1056107, Note_on_c, 0, 62, 67
1, 1056110, Control_c, 0, 67, 74
1, 1056124, Control_c, 0, 67, 70
1, 1056139, Control_c, 0, 67, 66
1, 1056142, Note_off_c, 0, 59, 56
1, 1056154, Control_c, 0, 67, 62
1, 1056169, Control_c, 0, 67, 59
1, 1056184, Control_c, 0, 67, 57
1, 1056198, Control_c, 0, 64, 78
1, 1056198, Control_c, 0, 67, 56
1, 1056213, Control_c, 0, 64, 74
1, 1056228, Control_c, 0, 64, 69
1, 1056243, Control_c, 0, 64, 63
1, 1056258, Control_c, 0, 64, 51
1, 1056271, Note_off_c, 0, 62, 56
1, 1056273, Control_c, 0, 64, 0
1, 1056276, Note_on_c, 0, 61, 54
1, 1056279, Note_on_c, 0, 45, 41
1, 1056394, Note_off_c, 0, 61, 60
1, 1056428, Note_on_c, 0, 52, 40
1, 1056580, Note_off_c, 0, 52, 36
1, 1056610, Note_on_c, 0, 64, 52
1, 1056613, Note_on_c, 0, 57, 36
1, 1056621, Note_on_c, 0, 61, 43
1, 1056718, Control_c, 0, 64, 35
1, 1056718, Control_c, 0, 67, 56
1, 1056733, Control_c, 0, 64, 49
1, 1056747, Control_c, 0, 64, 61
1, 1056747, Control_c, 0, 67, 55
1, 1056770, Control_c, 0, 64, 65
1, 1056785, Control_c, 0, 64, 69
1, 1056785, Control_c, 0, 67, 55
1, 1056791, Note_on_c, 0, 52, 8
1, 1056800, Control_c, 0, 64, 73
1, 1056815, Control_c, 0, 64, 78
1, 1056829, Control_c, 0, 64, 83
1, 1056829, Control_c, 0, 67, 54
1, 1056844, Control_c, 0, 64, 92
1, 1056859, Control_c, 0, 64, 101
1, 1056873, Control_c, 0, 64, 114
1, 1056888, Control_c, 0, 64, 127
1, 1056921, Note_off_c, 0, 52, 37
1, 1056925, Note_on_c, 0, 49, 44
1, 1056928, Note_off_c, 0, 61, 55
1, 1056945, Note_off_c, 0, 64, 62
1, 1057036, Note_off_c, 0, 57, 42
1, 1057057, Note_off_c, 0, 45, 34
1, 1057064, Note_on_c, 0, 52, 45
1, 1057080, Control_c, 0, 67, 55
1, 1057185, Control_c, 0, 67, 55
1, 1057204, Note_off_c, 0, 52, 47
1, 1057214, Control_c, 0, 67, 56
1, 1057220, Note_on_c, 0, 69, 68
1, 1057237, Note_on_c, 0, 61, 48
1, 1057238, Note_on_c, 0, 57, 34
1, 1057239, Note_on_c, 0, 64, 50
1, 1057259, Control_c, 0, 67, 56
1, 1057274, Control_c, 0, 67, 57
1, 1057304, Control_c, 0, 67, 57
1, 1057319, Control_c, 0, 67, 58
1, 1057319, Note_off_c, 0, 61, 50
1, 1057333, Note_off_c, 0, 64, 53
1, 1057349, Control_c, 0, 67, 59
1, 1057363, Control_c, 0, 67, 59
1, 1057369, Note_on_c, 0, 52, 42
1, 1057378, Control_c, 0, 67, 60
1, 1057388, Note_off_c, 0, 69, 51
1, 1057391, Note_off_c, 0, 49, 40
1, 1057408, Control_c, 0, 67, 60
1, 1057467, Control_c, 0, 67, 61
1, 1057522, Note_off_c, 0, 52, 35
1, 1057534, Control_c, 0, 64, 92
1, 1057548, Control_c, 0, 64, 70
1, 1057560, Note_on_c, 0, 69, 52
1, 1057561, Note_on_c, 0, 47, 37
1, 1057563, Control_c, 0, 64, 55
1, 1057563, Control_c, 0, 67, 61
1, 1057578, Control_c, 0, 64, 0
1, 1057578, Control_c, 0, 67, 62
1, 1057582, Note_on_c, 0, 64, 46
1, 1057585, Note_on_c, 0, 62, 46
1, 1057623, Control_c, 0, 67, 63
1, 1057638, Control_c, 0, 67, 65
1, 1057652, Control_c, 0, 67, 66
1, 1057667, Control_c, 0, 67, 68
1, 1057682, Control_c, 0, 64, 50
1, 1057682, Control_c, 0, 67, 71
1, 1057692, Note_off_c, 0, 57, 42
1, 1057696, Control_c, 0, 64, 61
1, 1057696, Control_c, 0, 67, 73
1, 1057711, Control_c, 0, 64, 67
1, 1057711, Control_c, 0, 67, 80
1, 1057726, Control_c, 0, 64, 71
1, 1057726, Control_c, 0, 67, 92
1, 1057733, Note_on_c, 0, 52, 38
1, 1057741, Control_c, 0, 64, 75
1, 1057741, Control_c, 0, 67, 108
1, 1057756, Control_c, 0, 64, 80
1, 1057756, Control_c, 0, 67, 119
1, 1057770, Control_c, 0, 64, 86
1, 1057770, Control_c, 0, 67, 127
1, 1057785, Control_c, 0, 64, 93
1, 1057800, Control_c, 0, 64, 100
1, 1057815, Control_c, 0, 64, 105
1, 1057830, Control_c, 0, 64, 109
1, 1057844, Control_c, 0, 64, 111
1, 1057859, Control_c, 0, 64, 113
1, 1057881, Note_on_c, 0, 68, 62
1, 1057888, Control_c, 0, 64, 117
1, 1057905, Note_off_c, 0, 52, 33
1, 1057911, Note_on_c, 0, 56, 35
1, 1057948, Note_off_c, 0, 64, 39
1, 1057961, Note_off_c, 0, 62, 55
1, 1057971, Note_off_c, 0, 69, 37
1, 1058016, Note_off_c, 0, 68, 60
1, 1058022, Control_c, 0, 64, 115
1, 1058031, Note_on_c, 0, 52, 50
1, 1058038, Control_c, 0, 64, 111
1, 1058053, Control_c, 0, 64, 106
1, 1058067, Control_c, 0, 64, 100
1, 1058082, Control_c, 0, 64, 93
1, 1058094, Note_off_c, 0, 47, 40
1, 1058097, Control_c, 0, 64, 84
1, 1058112, Control_c, 0, 64, 75
1, 1058127, Control_c, 0, 64, 66
1, 1058139, Note_off_c, 0, 56, 21
1, 1058142, Control_c, 0, 64, 51
1, 1058157, Control_c, 0, 64, 0
1, 1058182, Note_off_c, 0, 52, 35
1, 1058210, Note_on_c, 0, 49, 36
1, 1058212, Note_on_c, 0, 69, 54
1, 1058229, Note_on_c, 0, 64, 38
1, 1058246, Control_c, 0, 64, 33
1, 1058263, Note_on_c, 0, 61, 12
1, 1058267, Control_c, 0, 64, 51
1, 1058282, Control_c, 0, 64, 61
1, 1058297, Control_c, 0, 64, 67
1, 1058312, Control_c, 0, 64, 71
1, 1058326, Control_c, 0, 64, 76
1, 1058341, Control_c, 0, 64, 82
1, 1058341, Control_c, 0, 67, 122
1, 1058349, Note_off_c, 0, 61, 57
1, 1058356, Control_c, 0, 64, 87
1, 1058356, Control_c, 0, 67, 109
1, 1058357, Note_on_c, 0, 52, 39
1, 1058371, Control_c, 0, 64, 93
1, 1058371, Control_c, 0, 67, 96
1, 1058386, Control_c, 0, 64, 99
1, 1058386, Control_c, 0, 67, 84
1, 1058401, Control_c, 0, 64, 104
1, 1058401, Control_c, 0, 67, 73
1, 1058416, Control_c, 0, 64, 108
1, 1058416, Control_c, 0, 67, 64
1, 1058425, Note_off_c, 0, 69, 47
1, 1058431, Control_c, 0, 64, 112
1, 1058431, Control_c, 0, 67, 56
1, 1058431, Note_off_c, 0, 64, 62
1, 1058445, Control_c, 0, 64, 118
1, 1058445, Control_c, 0, 67, 50
1, 1058460, Control_c, 0, 64, 127
1, 1058460, Control_c, 0, 67, 45
1, 1058461, Note_off_c, 0, 52, 50
1, 1058475, Control_c, 0, 67, 37
1, 1058490, Control_c, 0, 67, 28
1, 1058505, Control_c, 0, 67, 0
1, 1058511, Note_on_c, 0, 57, 40
1, 1058615, Note_off_c, 0, 49, 40
1, 1058635, Note_off_c, 0, 57, 37
1, 1058639, Note_on_c, 0, 52, 42
1, 1058809, Note_off_c, 0, 52, 40
1, 1058815, Control_c, 0, 64, 104
1, 1058831, Control_c, 0, 64, 84
1, 1058833, Note_on_c, 0, 50, 39
1, 1058844, Note_on_c, 0, 71, 60
1, 1058846, Control_c, 0, 64, 67
1, 1058851, Note_on_c, 0, 69, 51
1, 1058855, Note_on_c, 0, 66, 51
1, 1058861, Control_c, 0, 64, 50
1, 1058876, Control_c, 0, 64, 0
1, 1058905, Control_c, 0, 64, 44
1, 1058920, Control_c, 0, 64, 57
1, 1058935, Control_c, 0, 64, 66
1, 1058949, Control_c, 0, 64, 73
1, 1058955, Note_off_c, 0, 50, 56
1, 1058958, Note_off_c, 0, 69, 58
1, 1058964, Control_c, 0, 64, 80
1, 1058974, Note_off_c, 0, 66, 59
1, 1058979, Control_c, 0, 64, 87
1, 1058985, Note_on_c, 0, 54, 55
1, 1058994, Control_c, 0, 64, 91
1, 1059016, Control_c, 0, 64, 97
1, 1059031, Control_c, 0, 64, 104
1, 1059046, Control_c, 0, 64, 110
1, 1059061, Control_c, 0, 64, 120
1, 1059075, Control_c, 0, 64, 125
1, 1059105, Control_c, 0, 64, 122
1, 1059120, Control_c, 0, 64, 108
1, 1059128, Note_off_c, 0, 54, 36
1, 1059134, Control_c, 0, 64, 90
1, 1059149, Control_c, 0, 64, 72
1, 1059164, Control_c, 0, 64, 59
1, 1059167, Note_on_c, 0, 49, 44
1, 1059176, Note_on_c, 0, 73, 73
1, 1059176, Note_off_c, 0, 71, 61
1, 1059179, Control_c, 0, 64, 52
1, 1059180, Note_on_c, 0, 57, 37
1, 1059185, Note_on_c, 0, 69, 50
1, 1059194, Control_c, 0, 64, 57
1, 1059203, Note_on_c, 0, 64, 23
1, 1059209, Control_c, 0, 64, 63
1, 1059224, Control_c, 0, 64, 68
1, 1059237, Note_off_c, 0, 57, 55
1, 1059239, Control_c, 0, 64, 78
1, 1059239, Note_off_c, 0, 64, 45
1, 1059246, Note_off_c, 0, 69, 54
1, 1059254, Control_c, 0, 64, 88
1, 1059257, Note_off_c, 0, 73, 58
1, 1059268, Control_c, 0, 64, 96
1, 1059283, Control_c, 0, 64, 102
1, 1059286, Note_off_c, 0, 49, 48
1, 1059298, Control_c, 0, 64, 106
1, 1059313, Control_c, 0, 64, 110
1, 1059318, Note_on_c, 0, 74, 83
1, 1059326, Note_on_c, 0, 57, 45
1, 1059328, Control_c, 0, 64, 115
1, 1059331, Note_on_c, 0, 62, 56
1, 1059336, Note_on_c, 0, 69, 46
1, 1059337, Note_on_c, 0, 47, 44
1, 1059342, Control_c, 0, 64, 125
1, 1059357, Control_c, 0, 64, 127
1, 1059370, Note_off_c, 0, 62, 49
1, 1059388, Note_off_c, 0, 74, 61
1, 1059391, Note_off_c, 0, 69, 57
1, 1059446, Control_c, 0, 64, 96
1, 1059459, Note_off_c, 0, 57, 33
1, 1059460, Control_c, 0, 64, 78
1, 1059469, Note_on_c, 0, 49, 40
1, 1059475, Control_c, 0, 64, 64
1, 1059477, Note_off_c, 0, 47, 37
1, 1059483, Note_on_c, 0, 73, 69
1, 1059490, Control_c, 0, 64, 41
1, 1059505, Control_c, 0, 64, 0
1, 1059507, Note_on_c, 0, 64, 33
1, 1059508, Note_on_c, 0, 69, 47
1, 1059534, Control_c, 0, 64, 44
1, 1059549, Control_c, 0, 64, 56
1, 1059564, Control_c, 0, 64, 64
1, 1059579, Control_c, 0, 64, 72
1, 1059588, Note_off_c, 0, 69, 63
1, 1059594, Control_c, 0, 64, 82
1, 1059608, Control_c, 0, 64, 92
1, 1059616, Note_off_c, 0, 73, 61
1, 1059623, Control_c, 0, 64, 97
1, 1059639, Note_off_c, 0, 64, 61
1, 1059639, Control_c, 0, 64, 102
1, 1059644, Note_on_c, 0, 57, 43
1, 1059654, Control_c, 0, 64, 108
1, 1059669, Control_c, 0, 64, 118
1, 1059683, Control_c, 0, 64, 127
1, 1059713, Control_c, 0, 67, 19
1, 1059728, Control_c, 0, 67, 21
1, 1059765, Control_c, 0, 67, 25
1, 1059780, Control_c, 0, 64, 103
1, 1059780, Control_c, 0, 67, 31
1, 1059790, Note_off_c, 0, 57, 36
1, 1059795, Control_c, 0, 64, 84
1, 1059795, Control_c, 0, 67, 39
1, 1059810, Control_c, 0, 64, 68
1, 1059810, Control_c, 0, 67, 50
1, 1059813, Note_on_c, 0, 71, 56
1, 1059818, Note_on_c, 0, 64, 44
1, 1059820, Note_on_c, 0, 62, 48
1, 1059825, Control_c, 0, 64, 53
1, 1059825, Control_c, 0, 67, 64
1, 1059832, Note_on_c, 0, 52, 32
1, 1059839, Control_c, 0, 64, 37
1, 1059839, Control_c, 0, 67, 75
1, 1059841, Note_off_c, 0, 49, 40
1, 1059854, Control_c, 0, 64, 41
1, 1059854, Control_c, 0, 67, 84
1, 1059869, Control_c, 0, 64, 48
1, 1059869, Control_c, 0, 67, 92
1, 1059884, Control_c, 0, 64, 56
1, 1059884, Control_c, 0, 67, 101
1, 1059898, Control_c, 0, 64, 63
1, 1059898, Control_c, 0, 67, 108
1, 1059913, Control_c, 0, 64, 69
1, 1059913, Control_c, 0, 67, 112
1, 1059928, Control_c, 0, 64, 75
1, 1059928, Control_c, 0, 67, 114
1, 1059943, Control_c, 0, 64, 82
1, 1059957, Control_c, 0, 64, 84
1, 1059972, Control_c, 0, 64, 85
1, 1059974, Note_off_c, 0, 64, 59
1, 1059976, Note_off_c, 0, 62, 56
1, 1059981, Note_on_c, 0, 56, 43
1, 1059987, Note_off_c, 0, 52, 32
1, 1059987, Control_c, 0, 64, 86
1, 1060002, Note_off_c, 0, 71, 35
1, 1060002, Control_c, 0, 64, 88
1, 1060017, Control_c, 0, 64, 90
1, 1060032, Control_c, 0, 64, 90
1, 1060043, Note_off_c, 0, 56, 46
1, 1060046, Control_c, 0, 64, 91
1, 1060077, Poly_aftertouch_c, 0, 67, 127
1, 1060106, Control_c, 0, 64, 90
1, 1060121, Control_c, 0, 64, 87
1, 1060136, Control_c, 0, 64, 76
1, 1060151, Control_c, 0, 64, 66
1, 1060157, Note_on_c, 0, 71, 47
1, 1060160, Poly_aftertouch_c, 0, 67, 0
1, 1060161, Note_on_c, 0, 45, 34
1, 1060165, Control_c, 0, 64, 55
1, 1060166, Note_on_c, 0, 64, 27
1, 1060175, Note_on_c, 0, 62, 38
1, 1060180, Control_c, 0, 64, 38
1, 1060180, Control_c, 0, 67, 112
1, 1060195, Control_c, 0, 64, 0
1, 1060210, Control_c, 0, 64, 34
1, 1060225, Control_c, 0, 64, 42
1, 1060239, Control_c, 0, 64, 52
1, 1060239, Control_c, 0, 67, 110
1, 1060254, Control_c, 0, 64, 61
1, 1060269, Control_c, 0, 64, 67
1, 1060283, Control_c, 0, 64, 75
1, 1060298, Control_c, 0, 64, 81
1, 1060310, Note_on_c, 0, 52, 42
1, 1060313, Control_c, 0, 64, 85
1, 1060328, Control_c, 0, 64, 87
1, 1060343, Control_c, 0, 64, 89
1, 1060357, Control_c, 0, 64, 91
1, 1060372, Control_c, 0, 64, 93
1, 1060387, Control_c, 0, 64, 94
1, 1060402, Control_c, 0, 64, 95
1, 1060416, Control_c, 0, 64, 95
1, 1060433, Control_c, 0, 64, 96
1, 1060434, Note_off_c, 0, 62, 54
1, 1060449, Note_off_c, 0, 52, 53
1, 1060485, Note_on_c, 0, 56, 44
1, 1060492, Control_c, 0, 67, 108
1, 1060550, Note_off_c, 0, 56, 50
1, 1060559, Control_c, 0, 67, 106
1, 1060588, Control_c, 0, 67, 103
1, 1060603, Control_c, 0, 67, 100
1, 1060618, Control_c, 0, 67, 97
1, 1060621, Note_on_c, 0, 52, 41
1, 1060633, Control_c, 0, 67, 89
1, 1060647, Control_c, 0, 67, 79
1, 1060662, Control_c, 0, 67, 69
1, 1060677, Control_c, 0, 67, 58
1, 1060692, Control_c, 0, 67, 45
1, 1060707, Control_c, 0, 67, 34
1, 1060721, Control_c, 0, 67, 26
1, 1060736, Control_c, 0, 64, 95
1, 1060736, Control_c, 0, 67, 0
1, 1060751, Control_c, 0, 64, 94
1, 1060754, Note_off_c, 0, 71, 34
1, 1060766, Control_c, 0, 64, 92
1, 1060781, Control_c, 0, 64, 89
1, 1060792, Note_off_c, 0, 64, 37
1, 1060795, Control_c, 0, 64, 86
1, 1060810, Control_c, 0, 64, 84
1, 1060813, Note_on_c, 0, 69, 47
1, 1060817, Note_on_c, 0, 61, 48
1, 1060821, Note_on_c, 0, 57, 38
1, 1060825, Control_c, 0, 64, 82
1, 1060839, Control_c, 0, 64, 80
1, 1060854, Control_c, 0, 64, 78
1, 1060860, Note_off_c, 0, 61, 61
1, 1060869, Control_c, 0, 64, 75
1, 1060884, Control_c, 0, 64, 71
1, 1060896, Note_off_c, 0, 45, 34
1, 1060899, Control_c, 0, 64, 65
1, 1060906, Note_off_c, 0, 69, 39
1, 1060914, Control_c, 0, 64, 58
1, 1060924, Note_off_c, 0, 57, 33
1, 1060929, Control_c, 0, 64, 47
1, 1060944, Control_c, 0, 64, 0
1, 1060971, Note_off_c, 0, 52, 47
1, 1060975, Note_on_c, 0, 71, 65
1, 1060980, Note_on_c, 0, 59, 55
1, 1061001, Note_off_c, 0, 59, 63
1, 1061007, Note_off_c, 0, 71, 64
1, 1061123, Note_on_c, 0, 73, 69
1, 1061129, Note_on_c, 0, 61, 62
1, 1061150, Note_off_c, 0, 73, 64
1, 1061154, Note_off_c, 0, 61, 63
1, 1061271, Note_on_c, 0, 74, 80
1, 1061278, Note_on_c, 0, 62, 63
1, 1061298, Note_off_c, 0, 62, 62
1, 1061315, Note_off_c, 0, 74, 58
1, 1061456, Note_on_c, 0, 49, 35
1, 1061465, Note_on_c, 0, 64, 55
1, 1061466, Note_on_c, 0, 76, 66
1, 1061531, Control_c, 0, 64, 42
1, 1061545, Control_c, 0, 64, 59
1, 1061560, Control_c, 0, 64, 65
1, 1061575, Control_c, 0, 64, 70
1, 1061590, Control_c, 0, 64, 78
1, 1061605, Control_c, 0, 64, 93
1, 1061613, Note_on_c, 0, 52, 47
1, 1061619, Control_c, 0, 64, 127
1, 1061666, Note_off_c, 0, 64, 43
1, 1061684, Note_off_c, 0, 76, 64
1, 1061752, Note_on_c, 0, 57, 49
1, 1061766, Note_off_c, 0, 52, 37
1, 1061839, Note_off_c, 0, 57, 57
1, 1061874, Note_off_c, 0, 49, 42
1, 1061895, Note_on_c, 0, 52, 56
1, 1061906, Note_on_c, 0, 76, 84
1, 1061911, Note_on_c, 0, 64, 65
1, 1061929, Note_off_c, 0, 64, 65
1, 1061953, Note_off_c, 0, 76, 59
1, 1062052, Note_off_c, 0, 52, 34
1, 1062081, Note_on_c, 0, 46, 43
1, 1062116, Control_c, 0, 64, 88
1, 1062124, Note_on_c, 0, 78, 83
1, 1062131, Control_c, 0, 64, 66
1, 1062138, Note_on_c, 0, 66, 59
1, 1062146, Control_c, 0, 64, 49
1, 1062160, Control_c, 0, 64, 38
1, 1062175, Control_c, 0, 64, 42
1, 1062190, Control_c, 0, 64, 52
1, 1062205, Control_c, 0, 64, 61
1, 1062220, Control_c, 0, 64, 67
1, 1062234, Control_c, 0, 64, 76
1, 1062249, Control_c, 0, 64, 93
1, 1062264, Control_c, 0, 64, 127
1, 1062278, Note_off_c, 0, 46, 42
1, 1062282, Note_on_c, 0, 54, 54
1, 1062331, Note_off_c, 0, 66, 62
1, 1062392, Note_off_c, 0, 54, 56
1, 1062432, Note_on_c, 0, 61, 45
1, 1062483, Note_off_c, 0, 78, 62
1, 1062491, Note_off_c, 0, 61, 56
1, 1062549, Note_on_c, 0, 54, 47
1, 1062634, Note_off_c, 0, 54, 39
1, 1062708, Control_c, 0, 64, 92
1, 1062713, Note_on_c, 0, 47, 36
1, 1062723, Control_c, 0, 64, 71
1, 1062738, Control_c, 0, 64, 56
1, 1062759, Control_c, 0, 64, 0
1, 1062784, Note_on_c, 0, 76, 63
1, 1062789, Control_c, 0, 64, 34
1, 1062790, Note_on_c, 0, 64, 36
1, 1062804, Control_c, 0, 64, 45
1, 1062819, Control_c, 0, 64, 55
1, 1062834, Control_c, 0, 64, 64
1, 1062849, Control_c, 0, 64, 71
1, 1062864, Control_c, 0, 64, 79
1, 1062879, Control_c, 0, 64, 86
1, 1062894, Control_c, 0, 64, 92
1, 1062908, Control_c, 0, 64, 98
1, 1062913, Note_on_c, 0, 54, 41
1, 1062923, Control_c, 0, 64, 106
1, 1062938, Control_c, 0, 64, 127
1, 1062941, Note_off_c, 0, 64, 44
1, 1063089, Note_off_c, 0, 54, 38
1, 1063101, Note_on_c, 0, 75, 64
1, 1063105, Note_on_c, 0, 63, 52
1, 1063112, Note_on_c, 0, 59, 24
1, 1063135, Note_off_c, 0, 76, 59
1, 1063165, Note_off_c, 0, 59, 45
1, 1063167, Note_off_c, 0, 75, 60
1, 1063198, Note_off_c, 0, 63, 60
1, 1063218, Note_off_c, 0, 47, 15
1, 1063228, Note_on_c, 0, 54, 43
1, 1063338, Control_c, 0, 64, 104
1, 1063344, Note_off_c, 0, 54, 35
1, 1063353, Control_c, 0, 64, 82
1, 1063368, Control_c, 0, 64, 65
1, 1063382, Control_c, 0, 64, 41
1, 1063391, Note_on_c, 0, 47, 37
1, 1063397, Control_c, 0, 64, 0
1, 1063411, Note_on_c, 0, 71, 64
1, 1063421, Note_on_c, 0, 59, 43
1, 1063427, Control_c, 0, 64, 33
1, 1063442, Control_c, 0, 64, 51
1, 1063457, Control_c, 0, 64, 64
1, 1063472, Control_c, 0, 64, 74
1, 1063487, Control_c, 0, 64, 86
1, 1063509, Control_c, 0, 64, 99
1, 1063513, Note_off_c, 0, 59, 59
1, 1063524, Control_c, 0, 64, 108
1, 1063539, Control_c, 0, 64, 127
1, 1063563, Note_off_c, 0, 71, 63
1, 1063589, Note_on_c, 0, 54, 51
1, 1063714, Note_off_c, 0, 54, 59
1, 1063734, Note_off_c, 0, 47, 33
1, 1063753, Note_on_c, 0, 59, 55
1, 1063810, Note_off_c, 0, 59, 51
1, 1063869, Note_on_c, 0, 54, 57
1, 1063871, Note_on_c, 0, 73, 81
1, 1063883, Note_on_c, 0, 61, 65
1, 1063890, Note_off_c, 0, 54, 64
1, 1063953, Note_off_c, 0, 61, 57
1, 1064039, Note_on_c, 0, 74, 87
1, 1064042, Note_on_c, 0, 42, 45
1, 1064044, Control_c, 0, 64, 83
1, 1064051, Note_on_c, 0, 62, 65
1, 1064058, Control_c, 0, 64, 63
1, 1064065, Note_off_c, 0, 73, 52
1, 1064073, Control_c, 0, 64, 0
1, 1064118, Control_c, 0, 64, 40
1, 1064132, Control_c, 0, 64, 57
1, 1064147, Control_c, 0, 64, 68
1, 1064150, Note_off_c, 0, 42, 63
1, 1064162, Control_c, 0, 64, 78
1, 1064176, Control_c, 0, 64, 97
1, 1064191, Control_c, 0, 64, 127
1, 1064197, Note_on_c, 0, 54, 63
1, 1064233, Note_off_c, 0, 62, 37
1, 1064296, Note_off_c, 0, 74, 56
1, 1064319, Note_off_c, 0, 54, 60
1, 1064342, Note_on_c, 0, 57, 59
1, 1064405, Note_off_c, 0, 57, 60
1, 1064476, Note_on_c, 0, 54, 51
1, 1064485, Note_on_c, 0, 74, 93
1, 1064494, Note_on_c, 0, 62, 73
1, 1064529, Note_off_c, 0, 62, 57
1, 1064555, Note_off_c, 0, 54, 52
1, 1064587, Note_off_c, 0, 74, 57
1, 1064636, Note_on_c, 0, 44, 47
1, 1064659, Control_c, 0, 64, 102
1, 1064673, Control_c, 0, 64, 74
1, 1064688, Control_c, 0, 64, 56
1, 1064690, Note_on_c, 0, 76, 81
1, 1064703, Control_c, 0, 64, 0
1, 1064706, Note_on_c, 0, 64, 48
1, 1064762, Control_c, 0, 64, 46
1, 1064777, Control_c, 0, 64, 59
1, 1064792, Control_c, 0, 64, 67
1, 1064807, Control_c, 0, 64, 76
1, 1064822, Control_c, 0, 64, 92
1, 1064835, Note_off_c, 0, 64, 41
1, 1064837, Control_c, 0, 64, 108
1, 1064840, Note_off_c, 0, 44, 41
1, 1064841, Note_on_c, 0, 52, 47
1, 1064852, Control_c, 0, 64, 127
1, 1064881, Note_off_c, 0, 76, 61
1, 1064947, Note_off_c, 0, 52, 58
1, 1064990, Note_on_c, 0, 59, 48
1, 1065054, Note_off_c, 0, 59, 57
1, 1065131, Note_on_c, 0, 52, 39
1, 1065273, Note_off_c, 0, 52, 37
1, 1065296, Note_on_c, 0, 49, 49
1, 1065340, Note_on_c, 0, 69, 49
1, 1065349, Control_c, 0, 64, 91
1, 1065364, Control_c, 0, 64, 76
1, 1065378, Control_c, 0, 64, 65
1, 1065393, Control_c, 0, 64, 52
1, 1065408, Control_c, 0, 64, 0
1, 1065454, Note_off_c, 0, 69, 58
1, 1065475, Note_on_c, 0, 71, 62
1, 1065484, Note_on_c, 0, 52, 34
1, 1065521, Note_on_c, 0, 69, 60
1, 1065545, Note_off_c, 0, 71, 60
1, 1065558, Note_off_c, 0, 69, 65
1, 1065565, Note_on_c, 0, 68, 74
1, 1065624, Note_on_c, 0, 69, 68
1, 1065628, Note_off_c, 0, 68, 62
1, 1065630, Control_c, 0, 64, 45
1, 1065633, Note_off_c, 0, 52, 34
1, 1065633, Note_on_c, 0, 57, 43
1, 1065645, Control_c, 0, 64, 58
1, 1065659, Control_c, 0, 64, 66
1, 1065674, Control_c, 0, 64, 71
1, 1065689, Control_c, 0, 64, 76
1, 1065704, Control_c, 0, 64, 80
1, 1065719, Control_c, 0, 64, 85
1, 1065732, Note_off_c, 0, 49, 40
1, 1065734, Note_off_c, 0, 57, 38
1, 1065734, Control_c, 0, 64, 90
1, 1065749, Control_c, 0, 64, 95
1, 1065762, Note_on_c, 0, 52, 49
1, 1065767, Note_on_c, 0, 71, 80
1, 1065770, Control_c, 0, 64, 100
1, 1065779, Note_off_c, 0, 69, 59
1, 1065785, Control_c, 0, 64, 103
1, 1065888, Note_off_c, 0, 52, 37
1, 1065889, Control_c, 0, 64, 97
1, 1065904, Control_c, 0, 64, 86
1, 1065918, Note_on_c, 0, 45, 46
1, 1065919, Control_c, 0, 64, 72
1, 1065934, Control_c, 0, 64, 62
1, 1065949, Control_c, 0, 64, 41
1, 1065954, Note_off_c, 0, 71, 58
1, 1065961, Note_on_c, 0, 73, 63
1, 1065963, Control_c, 0, 64, 0
1, 1065989, Note_on_c, 0, 69, 40
1, 1065992, Note_on_c, 0, 64, 31
1, 1066023, Control_c, 0, 64, 35
1, 1066038, Control_c, 0, 64, 51
1, 1066053, Control_c, 0, 64, 63
1, 1066053, Note_off_c, 0, 45, 46
1, 1066068, Control_c, 0, 64, 71
1, 1066083, Control_c, 0, 64, 78
1, 1066098, Control_c, 0, 64, 84
1, 1066113, Control_c, 0, 64, 89
1, 1066122, Note_on_c, 0, 52, 46
1, 1066127, Control_c, 0, 64, 95
1, 1066142, Control_c, 0, 64, 101
1, 1066153, Note_off_c, 0, 64, 54
1, 1066157, Control_c, 0, 64, 111
1, 1066172, Control_c, 0, 64, 127
1, 1066194, Note_off_c, 0, 73, 38
1, 1066204, Note_off_c, 0, 52, 60
1, 1066271, Note_off_c, 0, 69, 50
1, 1066292, Note_on_c, 0, 61, 42
1, 1066343, Note_off_c, 0, 61, 57
1, 1066435, Note_on_c, 0, 52, 36
1, 1066579, Control_c, 0, 64, 82
1, 1066588, Note_off_c, 0, 52, 35
1, 1066594, Control_c, 0, 64, 63
1, 1066609, Control_c, 0, 64, 37
1, 1066612, Note_on_c, 0, 71, 68
1, 1066613, Note_on_c, 0, 50, 43
1, 1066622, Note_on_c, 0, 66, 56
1, 1066624, Control_c, 0, 64, 37
1, 1066637, Note_on_c, 0, 69, 41
1, 1066639, Control_c, 0, 64, 52
1, 1066653, Control_c, 0, 64, 64
1, 1066668, Control_c, 0, 64, 73
1, 1066683, Control_c, 0, 64, 85
1, 1066697, Note_off_c, 0, 66, 40
1, 1066698, Control_c, 0, 64, 101
1, 1066713, Control_c, 0, 64, 127
1, 1066774, Note_on_c, 0, 54, 39
1, 1066791, Note_off_c, 0, 71, 38
1, 1066837, Note_off_c, 0, 69, 35
1, 1066906, Control_c, 0, 64, 117
1, 1066921, Control_c, 0, 64, 76
1, 1066936, Control_c, 0, 64, 63
1, 1066941, Note_on_c, 0, 71, 66
1, 1066942, Note_off_c, 0, 54, 39
1, 1066945, Note_on_c, 0, 69, 49
1, 1066950, Note_on_c, 0, 66, 52
1, 1066950, Control_c, 0, 64, 57
1, 1066965, Control_c, 0, 64, 61
1, 1066980, Control_c, 0, 64, 66
1, 1066982, Note_on_c, 0, 59, 28
1, 1066995, Control_c, 0, 64, 75
1, 1067010, Control_c, 0, 64, 93
1, 1067025, Control_c, 0, 64, 125
1, 1067040, Control_c, 0, 64, 127
1, 1067046, Note_off_c, 0, 66, 37
1, 1067066, Note_off_c, 0, 50, 40
1, 1067072, Note_off_c, 0, 69, 47
1, 1067077, Note_on_c, 0, 54, 40
1, 1067173, Note_off_c, 0, 71, 28
1, 1067231, Control_c, 0, 64, 114
1, 1067254, Control_c, 0, 64, 79
1, 1067258, Note_off_c, 0, 54, 35
1, 1067269, Control_c, 0, 64, 61
1, 1067279, Note_on_c, 0, 71, 56
1, 1067283, Control_c, 0, 64, 34
1, 1067284, Note_on_c, 0, 52, 38
1, 1067292, Note_on_c, 0, 68, 44
1, 1067294, Note_on_c, 0, 64, 35
1, 1067298, Control_c, 0, 64, 33
1, 1067313, Control_c, 0, 64, 48
1, 1067327, Control_c, 0, 64, 59
1, 1067342, Control_c, 0, 64, 68
1, 1067347, Note_off_c, 0, 68, 55
1, 1067357, Control_c, 0, 64, 78
1, 1067372, Control_c, 0, 64, 90
1, 1067377, Note_off_c, 0, 59, 25
1, 1067387, Control_c, 0, 64, 100
1, 1067401, Control_c, 0, 64, 105
1, 1067416, Control_c, 0, 64, 115
1, 1067431, Control_c, 0, 64, 127
1, 1067436, Note_on_c, 0, 56, 38
1, 1067440, Note_off_c, 0, 64, 21
1, 1067558, Note_off_c, 0, 71, 49
1, 1067587, Note_on_c, 0, 74, 67
1, 1067594, Note_off_c, 0, 56, 34
1, 1067609, Note_on_c, 0, 68, 43
1, 1067613, Note_on_c, 0, 64, 26
1, 1067629, Note_on_c, 0, 59, 20
1, 1067649, Note_off_c, 0, 68, 50
1, 1067657, Note_off_c, 0, 64, 46
1, 1067701, Note_off_c, 0, 59, 41
1, 1067707, Note_off_c, 0, 52, 40
1, 1067713, Note_off_c, 0, 74, 35
1, 1067736, Note_on_c, 0, 56, 46
1, 1067762, Note_off_c, 0, 56, 60
1, 1067828, Note_on_c, 0, 73, 66
1, 1067854, Note_off_c, 0, 73, 68
1, 1067862, Control_c, 0, 64, 85
1, 1067877, Control_c, 0, 64, 63
1, 1067892, Control_c, 0, 64, 0
1, 1067903, Note_on_c, 0, 73, 76
1, 1067907, Note_on_c, 0, 45, 52
1, 1067921, Control_c, 0, 64, 34
1, 1067923, Note_on_c, 0, 69, 56
1, 1067928, Note_on_c, 0, 64, 40
1, 1067936, Control_c, 0, 64, 55
1, 1067950, Control_c, 0, 64, 66
1, 1067965, Control_c, 0, 64, 76
1, 1067980, Control_c, 0, 64, 90
1, 1067988, Note_off_c, 0, 45, 58
1, 1067991, Note_off_c, 0, 64, 50
1, 1068002, Control_c, 0, 64, 105
1, 1068017, Control_c, 0, 64, 127
1, 1068073, Note_on_c, 0, 52, 51
1, 1068077, Note_off_c, 0, 69, 52
1, 1068212, Note_off_c, 0, 52, 58
1, 1068265, Note_on_c, 0, 61, 64
1, 1068326, Note_off_c, 0, 61, 60
1, 1068357, Note_off_c, 0, 73, 32
1, 1068396, Note_on_c, 0, 52, 50
1, 1068521, Control_c, 0, 64, 81
1, 1068536, Control_c, 0, 64, 63
1, 1068543, Note_off_c, 0, 52, 36
1, 1068551, Control_c, 0, 64, 39
1, 1068562, Note_on_c, 0, 49, 44
1, 1068566, Control_c, 0, 64, 0
1, 1068571, Note_on_c, 0, 76, 74
1, 1068582, Note_on_c, 0, 64, 56
1, 1068587, Note_on_c, 0, 69, 38
1, 1068596, Control_c, 0, 64, 43
1, 1068611, Control_c, 0, 64, 58
1, 1068625, Control_c, 0, 64, 67
1, 1068640, Control_c, 0, 64, 78
1, 1068655, Control_c, 0, 64, 99
1, 1068670, Control_c, 0, 64, 127
1, 1068700, Note_on_c, 0, 52, 44
1, 1068732, Note_off_c, 0, 64, 55
1, 1068736, Note_off_c, 0, 76, 63
1, 1068843, Note_off_c, 0, 52, 36
1, 1068862, Note_on_c, 0, 57, 41
1, 1068928, Note_off_c, 0, 57, 49
1, 1068967, Note_off_c, 0, 49, 40
1, 1069004, Note_on_c, 0, 52, 41
1, 1069039, Note_on_c, 0, 74, 65
1, 1069061, Note_off_c, 0, 69, 39
1, 1069102, Note_on_c, 0, 73, 66
1, 1069136, Note_off_c, 0, 74, 59
1, 1069137, Control_c, 0, 64, 82
1, 1069152, Control_c, 0, 64, 64
1, 1069158, Note_off_c, 0, 52, 35
1, 1069167, Control_c, 0, 64, 38
1, 1069181, Control_c, 0, 64, 0
1, 1069183, Note_off_c, 0, 73, 61
1, 1069189, Note_on_c, 0, 69, 45
1, 1069196, Control_c, 0, 64, 41
1, 1069204, Note_on_c, 0, 50, 30
1, 1069205, Note_on_c, 0, 71, 57
1, 1069211, Control_c, 0, 64, 55
1, 1069219, Note_on_c, 0, 66, 45
1, 1069227, Control_c, 0, 64, 64
1, 1069242, Control_c, 0, 64, 72
1, 1069257, Control_c, 0, 64, 82
1, 1069271, Control_c, 0, 64, 93
1, 1069286, Control_c, 0, 64, 98
1, 1069301, Control_c, 0, 64, 104
1, 1069316, Control_c, 0, 64, 110
1, 1069331, Control_c, 0, 64, 125
1, 1069334, Note_off_c, 0, 66, 30
1, 1069345, Control_c, 0, 64, 127
1, 1069361, Note_on_c, 0, 54, 38
1, 1069399, Note_off_c, 0, 71, 35
1, 1069463, Control_c, 0, 64, 99
1, 1069477, Control_c, 0, 64, 75
1, 1069497, Note_off_c, 0, 54, 39
1, 1069499, Note_off_c, 0, 69, 0
1, 1069499, Control_c, 0, 64, 62
1, 1069514, Control_c, 0, 64, 51
1, 1069516, Note_on_c, 0, 69, 29
1, 1069523, Note_on_c, 0, 71, 62
1, 1069529, Control_c, 0, 64, 56
1, 1069544, Control_c, 0, 64, 61
1, 1069546, Note_on_c, 0, 66, 29
1, 1069550, Note_on_c, 0, 59, 22
1, 1069559, Control_c, 0, 64, 65
1, 1069573, Control_c, 0, 64, 73
1, 1069588, Control_c, 0, 64, 84
1, 1069603, Control_c, 0, 64, 98
1, 1069615, Note_off_c, 0, 66, 37
1, 1069618, Control_c, 0, 64, 105
1, 1069618, Note_off_c, 0, 69, 56
1, 1069633, Control_c, 0, 64, 109
1, 1069643, Note_off_c, 0, 50, 40
1, 1069648, Control_c, 0, 64, 111
1, 1069663, Control_c, 0, 64, 113
1, 1069671, Note_on_c, 0, 54, 42
1, 1069677, Control_c, 0, 64, 119
1, 1069692, Control_c, 0, 64, 127
1, 1069752, Note_off_c, 0, 71, 22
1, 1069810, Control_c, 0, 64, 97
1, 1069825, Control_c, 0, 64, 77
1, 1069836, Note_off_c, 0, 54, 35
1, 1069840, Control_c, 0, 64, 63
1, 1069845, Note_on_c, 0, 71, 42
1, 1069855, Control_c, 0, 64, 49
1, 1069861, Note_on_c, 0, 52, 33
1, 1069869, Control_c, 0, 64, 49
1, 1069872, Note_on_c, 0, 68, 36
1, 1069884, Control_c, 0, 64, 54
1, 1069899, Control_c, 0, 64, 60
1, 1069905, Poly_aftertouch_c, 0, 64, 127
1, 1069914, Control_c, 0, 64, 65
1, 1069920, Note_off_c, 0, 68, 50
1, 1069928, Control_c, 0, 64, 73
1, 1069943, Control_c, 0, 64, 84
1, 1069953, Note_off_c, 0, 59, 39
1, 1069953, Poly_aftertouch_c, 0, 64, 0
1, 1069958, Control_c, 0, 64, 97
1, 1069973, Control_c, 0, 64, 104
1, 1069988, Control_c, 0, 64, 110
1, 1070000, Note_on_c, 0, 56, 39
1, 1070003, Control_c, 0, 64, 127
1, 1070137, Control_c, 0, 64, 95
1, 1070141, Note_off_c, 0, 56, 36
1, 1070148, Note_off_c, 0, 71, 33
1, 1070152, Control_c, 0, 64, 75
1, 1070167, Control_c, 0, 64, 65
1, 1070176, Note_on_c, 0, 74, 54
1, 1070180, Note_on_c, 0, 59, 17
1, 1070182, Control_c, 0, 64, 62
1, 1070186, Note_on_c, 0, 64, 38
1, 1070196, Control_c, 0, 64, 65
1, 1070211, Control_c, 0, 64, 70
1, 1070226, Control_c, 0, 64, 76
1, 1070248, Control_c, 0, 64, 87
1, 1070263, Control_c, 0, 64, 98
1, 1070274, Note_off_c, 0, 64, 55
1, 1070277, Note_off_c, 0, 52, 40
1, 1070278, Control_c, 0, 64, 115
1, 1070279, Note_off_c, 0, 59, 35
1, 1070292, Control_c, 0, 64, 127
1, 1070305, Poly_aftertouch_c, 0, 68, 0
1, 1070311, Note_on_c, 0, 56, 46
1, 1070337, Note_off_c, 0, 56, 59
1, 1070378, Note_off_c, 0, 74, 40
1, 1070382, Note_on_c, 0, 73, 50
1, 1070456, Control_c, 0, 64, 92
1, 1070471, Control_c, 0, 64, 71
1, 1070486, Control_c, 0, 64, 55
1, 1070490, Note_on_c, 0, 69, 45
1, 1070500, Control_c, 0, 64, 0
1, 1070507, Note_on_c, 0, 45, 40
1, 1070511, Note_on_c, 0, 61, 34
1, 1070530, Control_c, 0, 64, 43
1, 1070530, Note_off_c, 0, 73, 43
1, 1070544, Control_c, 0, 64, 53
1, 1070559, Control_c, 0, 64, 61
1, 1070574, Control_c, 0, 64, 69
1, 1070589, Control_c, 0, 64, 77
1, 1070596, Note_off_c, 0, 69, 62
1, 1070604, Control_c, 0, 64, 87
1, 1070618, Control_c, 0, 64, 92
1, 1070633, Control_c, 0, 64, 96
1, 1070648, Note_on_c, 0, 52, 41
1, 1070648, Control_c, 0, 64, 102
1, 1070650, Note_off_c, 0, 61, 51
1, 1070663, Control_c, 0, 64, 113
1, 1070677, Control_c, 0, 64, 127
1, 1070749, Note_off_c, 0, 45, 37
1, 1070807, Note_on_c, 0, 57, 46
1, 1070831, Note_off_c, 0, 52, 57
1, 1070837, Note_off_c, 0, 57, 60
1, 1070961, Note_on_c, 0, 68, 60
1, 1071032, Note_off_c, 0, 68, 48
1, 1071071, Control_c, 0, 64, 87
1, 1071086, Control_c, 0, 64, 68
1, 1071100, Control_c, 0, 64, 46
1, 1071115, Control_c, 0, 64, 0
1, 1071125, Note_on_c, 0, 69, 58
1, 1071162, Note_off_c, 0, 69, 59
1, 1071271, Note_on_c, 0, 71, 69
1, 1071280, Note_on_c, 0, 59, 51
1, 1071299, Note_off_c, 0, 71, 66
1, 1071302, Note_off_c, 0, 59, 59
1, 1071416, Note_on_c, 0, 73, 77
1, 1071427, Note_on_c, 0, 61, 59
1, 1071440, Note_off_c, 0, 73, 65
1, 1071451, Note_off_c, 0, 61, 63
1, 1071553, Note_on_c, 0, 74, 84
1, 1071563, Note_on_c, 0, 62, 58
1, 1071585, Note_off_c, 0, 62, 60
1, 1071603, Note_off_c, 0, 74, 56
1, 1071751, Note_on_c, 0, 76, 67
1, 1071757, Note_on_c, 0, 49, 33
1, 1071757, Note_on_c, 0, 64, 46
1, 1071776, Control_c, 0, 64, 49
1, 1071791, Control_c, 0, 64, 60
1, 1071806, Control_c, 0, 64, 67
1, 1071820, Note_off_c, 0, 64, 0
1, 1071821, Control_c, 0, 64, 73
1, 1071836, Control_c, 0, 64, 82
1, 1071851, Control_c, 0, 64, 96
1, 1071857, Poly_aftertouch_c, 0, 64, 127
1, 1071866, Control_c, 0, 64, 127
1, 1071906, Note_on_c, 0, 52, 44
1, 1071922, Poly_aftertouch_c, 0, 64, 0
1, 1071959, Note_off_c, 0, 76, 63
1, 1071997, Note_off_c, 0, 52, 60
1, 1072033, Note_on_c, 0, 57, 65
1, 1072112, Note_off_c, 0, 57, 62
1, 1072156, Note_off_c, 0, 49, 41
1, 1072166, Note_on_c, 0, 52, 52
1, 1072173, Note_on_c, 0, 76, 92
1, 1072183, Note_on_c, 0, 64, 65
1, 1072200, Note_off_c, 0, 64, 67
1, 1072229, Note_off_c, 0, 76, 62
1, 1072265, Note_off_c, 0, 52, 54
1, 1072325, Note_on_c, 0, 46, 44
1, 1072384, Control_c, 0, 64, 107
1, 1072385, Note_on_c, 0, 78, 84
1, 1072398, Control_c, 0, 64, 74
1, 1072400, Note_on_c, 0, 66, 62
1, 1072414, Control_c, 0, 64, 58
1, 1072429, Control_c, 0, 64, 39
1, 1072444, Control_c, 0, 64, 45
1, 1072459, Control_c, 0, 64, 55
1, 1072474, Control_c, 0, 64, 61
1, 1072495, Control_c, 0, 64, 69
1, 1072510, Control_c, 0, 64, 81
1, 1072525, Control_c, 0, 64, 109
1, 1072540, Control_c, 0, 64, 127
1, 1072552, Note_off_c, 0, 46, 47
1, 1072552, Note_off_c, 0, 66, 61
1, 1072563, Note_on_c, 0, 54, 49
1, 1072672, Note_off_c, 0, 54, 58
1, 1072710, Note_on_c, 0, 61, 46
1, 1072769, Note_off_c, 0, 78, 61
1, 1072770, Note_off_c, 0, 61, 56
1, 1072842, Note_on_c, 0, 54, 41
1, 1072905, Note_off_c, 0, 54, 47
1, 1072999, Control_c, 0, 64, 104
1, 1073013, Control_c, 0, 64, 75
1, 1073024, Note_on_c, 0, 47, 33
1, 1073028, Control_c, 0, 64, 58
1, 1073043, Control_c, 0, 64, 0
1, 1073045, Note_on_c, 0, 76, 60
1, 1073060, Note_on_c, 0, 64, 44
1, 1073073, Control_c, 0, 64, 35
1, 1073088, Control_c, 0, 64, 51
1, 1073103, Control_c, 0, 64, 62
1, 1073118, Control_c, 0, 64, 69
1, 1073133, Control_c, 0, 64, 78
1, 1073147, Control_c, 0, 64, 88
1, 1073162, Control_c, 0, 64, 93
1, 1073177, Control_c, 0, 64, 95
1, 1073191, Note_off_c, 0, 64, 62
1, 1073191, Control_c, 0, 64, 98
1, 1073198, Note_on_c, 0, 54, 40
1, 1073206, Control_c, 0, 64, 102
1, 1073222, Control_c, 0, 64, 110
1, 1073243, Control_c, 0, 64, 119
1, 1073258, Control_c, 0, 64, 127
1, 1073353, Note_on_c, 0, 75, 67
1, 1073366, Note_off_c, 0, 54, 35
1, 1073376, Note_off_c, 0, 76, 53
1, 1073381, Note_on_c, 0, 59, 27
1, 1073386, Note_on_c, 0, 63, 45
1, 1073419, Note_off_c, 0, 75, 62
1, 1073425, Note_off_c, 0, 59, 47
1, 1073441, Note_off_c, 0, 63, 59
1, 1073484, Note_off_c, 0, 47, 41
1, 1073490, Note_on_c, 0, 54, 48
1, 1073614, Control_c, 0, 64, 125
1, 1073629, Control_c, 0, 64, 91
1, 1073635, Note_off_c, 0, 54, 37
1, 1073643, Control_c, 0, 64, 73
1, 1073658, Control_c, 0, 64, 58
1, 1073672, Note_on_c, 0, 71, 68
1, 1073672, Note_on_c, 0, 47, 33
1, 1073673, Control_c, 0, 64, 35
1, 1073684, Note_on_c, 0, 59, 43
1, 1073687, Control_c, 0, 64, 38
1, 1073702, Control_c, 0, 64, 50
1, 1073717, Control_c, 0, 64, 58
1, 1073732, Control_c, 0, 64, 65
1, 1073747, Control_c, 0, 64, 75
1, 1073750, Note_off_c, 0, 59, 62
1, 1073762, Control_c, 0, 64, 88
1, 1073776, Control_c, 0, 64, 108
1, 1073791, Control_c, 0, 64, 127
1, 1073806, Note_off_c, 0, 71, 64
1, 1073840, Note_on_c, 0, 54, 55
1, 1073941, Note_off_c, 0, 54, 58
1, 1073997, Note_on_c, 0, 59, 54
1, 1074043, Note_off_c, 0, 59, 50
1, 1074057, Note_off_c, 0, 47, 37
1, 1074120, Note_on_c, 0, 54, 48
1, 1074125, Note_on_c, 0, 73, 76
1, 1074137, Note_on_c, 0, 61, 63
1, 1074142, Note_off_c, 0, 54, 60
1, 1074207, Note_off_c, 0, 61, 56
1, 1074283, Note_on_c, 0, 42, 49
1, 1074289, Control_c, 0, 64, 86
1, 1074295, Note_on_c, 0, 74, 86
1, 1074304, Control_c, 0, 64, 67
1, 1074307, Note_off_c, 0, 73, 57
1, 1074310, Note_on_c, 0, 62, 62
1, 1074319, Control_c, 0, 64, 50
1, 1074334, Control_c, 0, 64, 0
1, 1074349, Control_c, 0, 64, 36
1, 1074364, Control_c, 0, 64, 46
1, 1074379, Control_c, 0, 64, 55
1, 1074393, Control_c, 0, 64, 64
1, 1074402, Note_off_c, 0, 42, 60
1, 1074408, Control_c, 0, 64, 72
1, 1074423, Control_c, 0, 64, 89
1, 1074438, Control_c, 0, 64, 127
1, 1074441, Note_on_c, 0, 54, 64
1, 1074495, Note_off_c, 0, 62, 33
1, 1074555, Note_off_c, 0, 74, 56
1, 1074563, Note_off_c, 0, 54, 60
1, 1074578, Note_on_c, 0, 57, 62
1, 1074646, Note_off_c, 0, 57, 61
1, 1074692, Note_on_c, 0, 54, 58
1, 1074721, Note_on_c, 0, 74, 93
1, 1074730, Note_on_c, 0, 62, 71
1, 1074769, Note_off_c, 0, 62, 62
1, 1074808, Note_off_c, 0, 54, 50
1, 1074816, Note_off_c, 0, 74, 60
1, 1074868, Note_on_c, 0, 44, 47
1, 1074920, Note_on_c, 0, 76, 87
1, 1074920, Control_c, 0, 64, 91
1, 1074934, Note_on_c, 0, 64, 57
1, 1074935, Control_c, 0, 64, 68
1, 1074949, Control_c, 0, 64, 48
1, 1074964, Control_c, 0, 64, 0
1, 1075008, Control_c, 0, 64, 48
1, 1075023, Control_c, 0, 64, 59
1, 1075038, Control_c, 0, 64, 66
1, 1075053, Control_c, 0, 64, 79
1, 1075067, Control_c, 0, 64, 103
1, 1075082, Control_c, 0, 64, 127
1, 1075084, Note_on_c, 0, 52, 50
1, 1075084, Note_off_c, 0, 44, 39
1, 1075125, Note_off_c, 0, 64, 40
1, 1075185, Note_off_c, 0, 52, 56
1, 1075225, Note_on_c, 0, 59, 50
1, 1075255, Note_off_c, 0, 76, 54
1, 1075273, Note_off_c, 0, 59, 55
1, 1075345, Note_on_c, 0, 52, 42
1, 1075500, Note_off_c, 0, 52, 36
1, 1075518, Note_on_c, 0, 49, 42
1, 1075520, Control_c, 0, 64, 111
1, 1075535, Control_c, 0, 64, 80
1, 1075549, Control_c, 0, 64, 64
1, 1075553, Note_on_c, 0, 69, 47
1, 1075564, Control_c, 0, 64, 38
1, 1075579, Control_c, 0, 64, 0
1, 1075667, Note_off_c, 0, 69, 55
1, 1075696, Note_on_c, 0, 71, 58
1, 1075712, Note_on_c, 0, 52, 29
1, 1075728, Control_c, 0, 64, 36
1, 1075741, Note_on_c, 0, 69, 59
1, 1075743, Control_c, 0, 64, 41
1, 1075758, Control_c, 0, 64, 47
1, 1075763, Note_off_c, 0, 71, 57
1, 1075772, Control_c, 0, 64, 52
1, 1075781, Note_off_c, 0, 69, 65
1, 1075787, Control_c, 0, 64, 58
1, 1075793, Note_on_c, 0, 68, 69
1, 1075802, Control_c, 0, 64, 63
1, 1075817, Control_c, 0, 64, 68
1, 1075831, Control_c, 0, 64, 73
1, 1075840, Note_off_c, 0, 52, 36
1, 1075846, Control_c, 0, 64, 80
1, 1075853, Note_on_c, 0, 69, 69
1, 1075856, Note_on_c, 0, 57, 43
1, 1075861, Control_c, 0, 64, 87
1, 1075876, Control_c, 0, 64, 96
1, 1075879, Note_off_c, 0, 68, 57
1, 1075890, Control_c, 0, 64, 106
1, 1075905, Control_c, 0, 64, 127
1, 1075954, Note_off_c, 0, 49, 42
1, 1075965, Note_off_c, 0, 57, 37
1, 1075982, Note_on_c, 0, 52, 48
1, 1075985, Note_on_c, 0, 71, 80
1, 1076003, Note_off_c, 0, 69, 60
1, 1076098, Control_c, 0, 64, 113
1, 1076112, Note_off_c, 0, 52, 37
1, 1076113, Control_c, 0, 64, 87
1, 1076128, Control_c, 0, 64, 70
1, 1076143, Control_c, 0, 64, 55
1, 1076146, Note_on_c, 0, 45, 39
1, 1076157, Control_c, 0, 64, 0
1, 1076160, Note_off_c, 0, 71, 58
1, 1076164, Note_on_c, 0, 73, 67
1, 1076171, Note_on_c, 0, 69, 45
1, 1076200, Note_on_c, 0, 64, 33
1, 1076239, Control_c, 0, 64, 44
1, 1076254, Control_c, 0, 64, 57
1, 1076269, Control_c, 0, 64, 66
1, 1076284, Control_c, 0, 64, 74
1, 1076298, Control_c, 0, 64, 82
1, 1076313, Control_c, 0, 64, 88
1, 1076328, Control_c, 0, 64, 95
1, 1076334, Note_on_c, 0, 52, 44
1, 1076343, Control_c, 0, 64, 105
1, 1076355, Note_off_c, 0, 45, 40
1, 1076358, Control_c, 0, 64, 127
1, 1076361, Note_off_c, 0, 64, 40
1, 1076389, Note_off_c, 0, 73, 38
1, 1076466, Note_off_c, 0, 69, 52
1, 1076485, Note_off_c, 0, 52, 35
1, 1076504, Note_on_c, 0, 57, 38
1, 1076561, Note_off_c, 0, 57, 55
1, 1076620, Note_on_c, 0, 52, 37
1, 1076756, Note_off_c, 0, 52, 36
1, 1076788, Control_c, 0, 64, 86
1, 1076803, Control_c, 0, 64, 68
1, 1076814, Note_on_c, 0, 50, 36
1, 1076818, Control_c, 0, 64, 55
1, 1076822, Note_on_c, 0, 66, 51
1, 1076824, Note_on_c, 0, 71, 49
1, 1076832, Control_c, 0, 64, 50
1, 1076841, Note_on_c, 0, 69, 41
1, 1076847, Control_c, 0, 64, 56
1, 1076862, Control_c, 0, 64, 62
1, 1076877, Control_c, 0, 64, 68
1, 1076892, Control_c, 0, 64, 76
1, 1076906, Control_c, 0, 64, 85
1, 1076921, Control_c, 0, 64, 94
1, 1076936, Control_c, 0, 64, 104
1, 1076951, Control_c, 0, 64, 116
1, 1076966, Note_off_c, 0, 66, 33
1, 1076966, Control_c, 0, 64, 127
1, 1076995, Note_off_c, 0, 71, 35
1, 1077011, Note_on_c, 0, 54, 30
1, 1077030, Note_off_c, 0, 69, 28
1, 1077107, Control_c, 0, 64, 102
1, 1077121, Control_c, 0, 64, 78
1, 1077136, Control_c, 0, 64, 63
1, 1077145, Note_off_c, 0, 54, 43
1, 1077150, Note_on_c, 0, 71, 57
1, 1077151, Control_c, 0, 64, 53
1, 1077162, Note_on_c, 0, 69, 42
1, 1077166, Note_on_c, 0, 66, 41
1, 1077166, Control_c, 0, 64, 57
1, 1077181, Control_c, 0, 64, 63
1, 1077187, Note_on_c, 0, 59, 23
1, 1077196, Control_c, 0, 64, 67
1, 1077211, Control_c, 0, 64, 75
1, 1077226, Control_c, 0, 64, 84
1, 1077241, Control_c, 0, 64, 94
1, 1077256, Control_c, 0, 64, 100
1, 1077264, Note_off_c, 0, 50, 40
1, 1077264, Note_off_c, 0, 69, 50
1, 1077270, Control_c, 0, 64, 105
1, 1077281, Note_on_c, 0, 54, 36
1, 1077285, Control_c, 0, 64, 109
1, 1077300, Control_c, 0, 64, 117
1, 1077309, Note_off_c, 0, 66, 40
1, 1077315, Control_c, 0, 64, 127
1, 1077325, Note_off_c, 0, 59, 0
1, 1077362, Poly_aftertouch_c, 0, 59, 127
1, 1077416, Note_off_c, 0, 71, 33
1, 1077434, Control_c, 0, 64, 94
1, 1077449, Note_off_c, 0, 54, 38
1, 1077449, Control_c, 0, 64, 73
1, 1077463, Control_c, 0, 64, 57
1, 1077468, Note_on_c, 0, 71, 40
1, 1077478, Control_c, 0, 64, 36
1, 1077482, Note_on_c, 0, 52, 36
1, 1077493, Control_c, 0, 64, 44
1, 1077495, Note_on_c, 0, 68, 35
1, 1077508, Control_c, 0, 64, 54
1, 1077512, Poly_aftertouch_c, 0, 59, 0
1, 1077523, Control_c, 0, 64, 62
1, 1077533, Note_off_c, 0, 68, 53
1, 1077537, Poly_aftertouch_c, 0, 64, 127
1, 1077537, Control_c, 0, 64, 69
1, 1077552, Control_c, 0, 64, 78
1, 1077567, Control_c, 0, 64, 88
1, 1077582, Control_c, 0, 64, 95
1, 1077597, Control_c, 0, 64, 100
1, 1077611, Poly_aftertouch_c, 0, 64, 0
1, 1077611, Control_c, 0, 64, 104
1, 1077620, Note_on_c, 0, 56, 39
1, 1077626, Control_c, 0, 64, 107
1, 1077641, Control_c, 0, 64, 112
1, 1077655, Control_c, 0, 64, 117
1, 1077670, Control_c, 0, 64, 122
1, 1077684, Control_c, 0, 64, 127
1, 1077748, Note_off_c, 0, 71, 36
1, 1077756, Note_off_c, 0, 56, 36
1, 1077759, Note_on_c, 0, 74, 67
1, 1077781, Note_on_c, 0, 68, 38
1, 1077788, Note_on_c, 0, 64, 26
1, 1077810, Note_on_c, 0, 59, 29
1, 1077828, Note_off_c, 0, 68, 44
1, 1077869, Note_off_c, 0, 59, 43
1, 1077884, Note_off_c, 0, 52, 40
1, 1077911, Note_on_c, 0, 56, 44
1, 1077920, Note_off_c, 0, 74, 39
1, 1077939, Note_off_c, 0, 56, 54
1, 1077971, Note_on_c, 0, 73, 72
1, 1078001, Note_off_c, 0, 64, 29
1, 1078002, Note_off_c, 0, 73, 61
1, 1078033, Control_c, 0, 64, 110
1, 1078048, Control_c, 0, 64, 76
1, 1078060, Note_on_c, 0, 73, 75
1, 1078063, Control_c, 0, 64, 57
1, 1078070, Note_on_c, 0, 64, 47
1, 1078078, Control_c, 0, 64, 0
1, 1078079, Note_on_c, 0, 45, 55
1, 1078084, Note_on_c, 0, 69, 55
1, 1078108, Control_c, 0, 64, 42
1, 1078123, Control_c, 0, 64, 54
1, 1078138, Control_c, 0, 64, 64
1, 1078152, Control_c, 0, 64, 74
1, 1078167, Control_c, 0, 64, 92
1, 1078182, Control_c, 0, 64, 127
1, 1078190, Note_off_c, 0, 45, 56
1, 1078214, Note_off_c, 0, 64, 61
1, 1078228, Note_on_c, 0, 52, 60
1, 1078291, Note_off_c, 0, 69, 46
1, 1078326, Note_off_c, 0, 52, 61
1, 1078382, Note_on_c, 0, 61, 67
1, 1078439, Note_off_c, 0, 61, 61
1, 1078516, Note_on_c, 0, 52, 59
1, 1078630, Note_off_c, 0, 52, 54
1, 1078632, Note_off_c, 0, 73, 51
1, 1078663, Control_c, 0, 64, 101
1, 1078669, Note_on_c, 0, 49, 49
1, 1078677, Control_c, 0, 64, 72
1, 1078680, Note_on_c, 0, 69, 52
1, 1078686, Note_on_c, 0, 76, 76
1, 1078687, Note_on_c, 0, 64, 60
1, 1078692, Control_c, 0, 64, 57
1, 1078707, Control_c, 0, 64, 34
1, 1078722, Control_c, 0, 64, 0
1, 1078752, Control_c, 0, 64, 41
1, 1078767, Control_c, 0, 64, 56
1, 1078781, Control_c, 0, 64, 63
1, 1078796, Control_c, 0, 64, 72
1, 1078812, Control_c, 0, 64, 90
1, 1078824, Note_off_c, 0, 64, 46
1, 1078827, Control_c, 0, 64, 127
1, 1078845, Note_off_c, 0, 76, 63
1, 1078847, Note_on_c, 0, 52, 51
1, 1078990, Note_off_c, 0, 52, 52
1, 1079032, Note_on_c, 0, 57, 49
1, 1079047, Note_off_c, 0, 49, 42
1, 1079168, Note_off_c, 0, 57, 36
1, 1079172, Note_on_c, 0, 74, 64
1, 1079175, Note_on_c, 0, 52, 40
1, 1079195, Note_off_c, 0, 69, 39
1, 1079240, Note_on_c, 0, 73, 64
1, 1079273, Note_off_c, 0, 52, 51
1, 1079279, Control_c, 0, 64, 95
1, 1079286, Note_off_c, 0, 74, 52
1, 1079294, Control_c, 0, 64, 71
1, 1079309, Control_c, 0, 64, 51
1, 1079324, Control_c, 0, 64, 0
1, 1079332, Note_off_c, 0, 73, 60
1, 1079348, Note_on_c, 0, 50, 34
1, 1079352, Note_on_c, 0, 69, 39
1, 1079357, Note_on_c, 0, 71, 54
1, 1079383, Control_c, 0, 64, 46
1, 1079398, Control_c, 0, 64, 60
1, 1079398, Note_on_c, 0, 66, 29
1, 1079413, Control_c, 0, 64, 69
1, 1079428, Control_c, 0, 64, 76
1, 1079442, Control_c, 0, 64, 84
1, 1079457, Control_c, 0, 64, 90
1, 1079472, Control_c, 0, 64, 100
1, 1079487, Control_c, 0, 64, 118
1, 1079498, Note_on_c, 0, 54, 46
1, 1079500, Note_off_c, 0, 71, 62
1, 1079502, Control_c, 0, 64, 127
1, 1079510, Note_off_c, 0, 66, 36
1, 1079622, Note_off_c, 0, 54, 49
1, 1079646, Note_off_c, 0, 69, 0
1, 1079651, Control_c, 0, 64, 88
1, 1079665, Control_c, 0, 64, 67
1, 1079667, Note_on_c, 0, 69, 16
1, 1079680, Control_c, 0, 64, 54
1, 1079683, Note_on_c, 0, 59, 32
1, 1079689, Note_on_c, 0, 71, 51
1, 1079695, Control_c, 0, 64, 53
1, 1079701, Note_on_c, 0, 66, 39
1, 1079710, Control_c, 0, 64, 59
1, 1079724, Control_c, 0, 64, 64
1, 1079739, Control_c, 0, 64, 69
1, 1079754, Control_c, 0, 64, 77
1, 1079769, Control_c, 0, 64, 88
1, 1079771, Note_off_c, 0, 50, 41
1, 1079784, Control_c, 0, 64, 95
1, 1079789, Note_off_c, 0, 69, 54
1, 1079799, Control_c, 0, 64, 101
1, 1079808, Note_on_c, 0, 54, 37
1, 1079813, Control_c, 0, 64, 105
1, 1079822, Note_off_c, 0, 66, 35
1, 1079828, Control_c, 0, 64, 112
1, 1079843, Control_c, 0, 64, 127
1, 1079860, Note_off_c, 0, 71, 35
1, 1079908, Note_off_c, 0, 54, 48
1, 1079962, Control_c, 0, 64, 88
1, 1079983, Control_c, 0, 64, 70
1, 1079998, Control_c, 0, 64, 56
1, 1080002, Note_on_c, 0, 71, 50
1, 1080004, Note_on_c, 0, 52, 32
1, 1080008, Note_on_c, 0, 64, 31
1, 1080013, Control_c, 0, 64, 48
1, 1080017, Note_on_c, 0, 68, 39
1, 1080027, Note_off_c, 0, 59, 36
1, 1080028, Control_c, 0, 64, 54
1, 1080043, Control_c, 0, 64, 60
1, 1080057, Control_c, 0, 64, 65
1, 1080071, Note_off_c, 0, 68, 58
1, 1080072, Control_c, 0, 64, 74
1, 1080087, Control_c, 0, 64, 84
1, 1080094, Note_off_c, 0, 64, 37
1, 1080102, Control_c, 0, 64, 93
1, 1080117, Control_c, 0, 64, 99
1, 1080120, Note_on_c, 0, 56, 37
1, 1080132, Control_c, 0, 64, 104
1, 1080147, Control_c, 0, 64, 107
1, 1080162, Control_c, 0, 64, 111
1, 1080176, Control_c, 0, 64, 115
1, 1080206, Control_c, 0, 64, 117
1, 1080254, Note_off_c, 0, 56, 35
1, 1080281, Note_off_c, 0, 71, 34
1, 1080299, Note_on_c, 0, 74, 60
1, 1080307, Note_on_c, 0, 59, 26
1, 1080338, Note_on_c, 0, 68, 13
1, 1080340, Note_on_c, 0, 64, 27
1, 1080379, Note_off_c, 0, 59, 38
1, 1080397, Note_off_c, 0, 68, 43
1, 1080398, Note_off_c, 0, 64, 42
1, 1080412, Note_off_c, 0, 52, 40
1, 1080438, Note_on_c, 0, 56, 48
1, 1080468, Note_off_c, 0, 56, 53
1, 1080525, Note_off_c, 0, 74, 38
1, 1080531, Note_on_c, 0, 73, 54
1, 1080547, Control_c, 0, 64, 115
1, 1080562, Control_c, 0, 64, 98
1, 1080577, Control_c, 0, 64, 80
1, 1080592, Control_c, 0, 64, 65
1, 1080606, Control_c, 0, 64, 43
1, 1080621, Control_c, 0, 64, 0
1, 1080628, Note_off_c, 0, 73, 57
1, 1080642, Note_on_c, 0, 45, 39
1, 1080643, Note_on_c, 0, 69, 43
1, 1080651, Note_on_c, 0, 61, 40
1, 1080680, Control_c, 0, 64, 48
1, 1080695, Control_c, 0, 64, 62
1, 1080710, Control_c, 0, 64, 70
1, 1080733, Control_c, 0, 64, 76
1, 1080748, Control_c, 0, 64, 82
1, 1080762, Control_c, 0, 64, 86
1, 1080777, Control_c, 0, 64, 90
1, 1080792, Control_c, 0, 64, 94
1, 1080806, Control_c, 0, 64, 101
1, 1080808, Note_on_c, 0, 52, 52
1, 1080821, Control_c, 0, 64, 110
1, 1080836, Control_c, 0, 64, 122
1, 1080851, Control_c, 0, 64, 127
1, 1080889, Note_off_c, 0, 45, 41
1, 1080943, Note_off_c, 0, 52, 62
1, 1080972, Note_on_c, 0, 57, 65
1, 1081110, Note_on_c, 0, 56, 77
1, 1081129, Note_off_c, 0, 57, 55
1, 1081208, Control_c, 0, 64, 87
1, 1081223, Control_c, 0, 64, 66
1, 1081237, Control_c, 0, 64, 42
1, 1081252, Control_c, 0, 64, 0
1, 1081256, Note_off_c, 0, 56, 58
1, 1081274, Note_on_c, 0, 57, 65
1, 1081297, Control_c, 0, 64, 41
1, 1081311, Control_c, 0, 64, 57
1, 1081326, Control_c, 0, 64, 66
1, 1081341, Control_c, 0, 64, 74
1, 1081356, Control_c, 0, 64, 85
1, 1081371, Control_c, 0, 64, 92
1, 1081378, Note_off_c, 0, 57, 49
1, 1081385, Control_c, 0, 64, 101
1, 1081400, Control_c, 0, 64, 116
1, 1081407, Note_off_c, 0, 61, 60
1, 1081408, Note_on_c, 0, 54, 61
1, 1081411, Note_on_c, 0, 50, 56
1, 1081415, Control_c, 0, 64, 127
1, 1081431, Note_off_c, 0, 54, 63
1, 1081435, Note_off_c, 0, 50, 61
1, 1081510, Note_off_c, 0, 69, 39
1, 1081566, Note_on_c, 0, 52, 69
1, 1081575, Note_on_c, 0, 49, 60
1, 1081689, Control_c, 0, 64, 100
1, 1081702, Note_off_c, 0, 49, 58
1, 1081703, Control_c, 0, 64, 82
1, 1081704, Note_on_c, 0, 50, 74
1, 1081711, Note_off_c, 0, 52, 58
1, 1081712, Note_on_c, 0, 47, 63
1, 1081718, Control_c, 0, 64, 70
1, 1081733, Control_c, 0, 64, 61
1, 1081748, Control_c, 0, 64, 50
1, 1081762, Control_c, 0, 64, 40
1, 1081777, Control_c, 0, 64, 35
1, 1081792, Control_c, 0, 64, 34
1, 1081807, Control_c, 0, 64, 33
1, 1081822, Control_c, 0, 64, 0
1, 1081905, Note_off_c, 0, 47, 49
1, 1081911, Note_on_c, 0, 45, 45
1, 1081924, Note_on_c, 0, 49, 41
1, 1081927, Note_on_c, 0, 85, 60
1, 1082016, Note_off_c, 0, 50, 61
1, 1082043, Note_on_c, 0, 86, 74
1, 1082069, Note_off_c, 0, 85, 59
1, 1082129, Note_on_c, 0, 88, 84
1, 1082150, Note_off_c, 0, 86, 61
1, 1082208, Control_c, 0, 64, 35
1, 1082230, Control_c, 0, 64, 40
1, 1082239, Note_on_c, 0, 86, 76
1, 1082245, Control_c, 0, 64, 47
1, 1082260, Note_on_c, 0, 52, 74
1, 1082260, Control_c, 0, 64, 54
1, 1082275, Control_c, 0, 64, 59
1, 1082290, Control_c, 0, 64, 63
1, 1082305, Control_c, 0, 64, 69
1, 1082320, Control_c, 0, 64, 78
1, 1082329, Note_on_c, 0, 85, 80
1, 1082334, Control_c, 0, 64, 92
1, 1082338, Note_off_c, 0, 88, 55
1, 1082349, Control_c, 0, 64, 113
1, 1082358, Note_off_c, 0, 49, 49
1, 1082364, Control_c, 0, 64, 127
1, 1082404, Note_off_c, 0, 86, 56
1, 1082430, Note_on_c, 0, 83, 83
1, 1082526, Control_c, 0, 64, 93
1, 1082534, Note_on_c, 0, 81, 84
1, 1082534, Note_off_c, 0, 83, 61
1, 1082541, Control_c, 0, 64, 70
1, 1082556, Control_c, 0, 64, 51
1, 1082569, Note_off_c, 0, 85, 35
1, 1082571, Control_c, 0, 64, 34
1, 1082572, Note_on_c, 0, 49, 56
1, 1082585, Control_c, 0, 64, 37
1, 1082600, Control_c, 0, 64, 48
1, 1082615, Control_c, 0, 64, 58
1, 1082617, Note_on_c, 0, 83, 78
1, 1082630, Control_c, 0, 64, 64
1, 1082631, Note_off_c, 0, 81, 58
1, 1082645, Control_c, 0, 64, 69
1, 1082660, Control_c, 0, 64, 81
1, 1082674, Control_c, 0, 64, 97
1, 1082689, Control_c, 0, 64, 122
1, 1082704, Control_c, 0, 64, 127
1, 1082716, Note_on_c, 0, 85, 76
1, 1082762, Note_off_c, 0, 83, 61
1, 1082796, Note_off_c, 0, 85, 63
1, 1082812, Note_on_c, 0, 57, 77
1, 1082816, Note_on_c, 0, 81, 78
1, 1082821, Note_off_c, 0, 45, 40
1, 1082911, Note_on_c, 0, 80, 75
1, 1082934, Note_off_c, 0, 81, 38
1, 1083011, Note_on_c, 0, 78, 73
1, 1083068, Note_off_c, 0, 80, 54
1, 1083068, Control_c, 0, 64, 107
1, 1083083, Control_c, 0, 64, 95
1, 1083096, Note_on_c, 0, 47, 56
1, 1083098, Control_c, 0, 64, 86
1, 1083101, Note_off_c, 0, 78, 58
1, 1083113, Control_c, 0, 64, 77
1, 1083123, Note_on_c, 0, 76, 73
1, 1083127, Control_c, 0, 64, 69
1, 1083142, Control_c, 0, 64, 62
1, 1083157, Control_c, 0, 64, 50
1, 1083166, Note_off_c, 0, 49, 61
1, 1083172, Control_c, 0, 64, 42
1, 1083179, Note_off_c, 0, 52, 61
1, 1083187, Control_c, 0, 64, 40
1, 1083195, Note_off_c, 0, 76, 62
1, 1083201, Control_c, 0, 64, 40
1, 1083202, Note_on_c, 0, 75, 66
1, 1083216, Control_c, 0, 64, 38
1, 1083231, Control_c, 0, 64, 33
1, 1083246, Control_c, 0, 64, 0
1, 1083288, Note_off_c, 0, 75, 59
1, 1083309, Note_on_c, 0, 76, 62
1, 1083410, Note_off_c, 0, 76, 57
1, 1083419, Note_on_c, 0, 77, 58
1, 1083420, Note_on_c, 0, 56, 60
1, 1083459, Note_off_c, 0, 57, 62
1, 1083482, Control_c, 0, 64, 49
1, 1083497, Control_c, 0, 64, 62
1, 1083509, Note_on_c, 0, 78, 64
1, 1083512, Control_c, 0, 64, 65
1, 1083519, Note_off_c, 0, 77, 55
1, 1083527, Control_c, 0, 64, 67
1, 1083542, Control_c, 0, 64, 67
1, 1083557, Control_c, 0, 64, 68
1, 1083572, Control_c, 0, 64, 69
1, 1083590, Note_off_c, 0, 78, 61
1, 1083602, Control_c, 0, 64, 69
1, 1083614, Note_on_c, 0, 74, 63
1, 1083661, Control_c, 0, 64, 69
1, 1083675, Control_c, 0, 64, 68
1, 1083690, Control_c, 0, 64, 65
1, 1083695, Note_off_c, 0, 56, 60
1, 1083704, Note_on_c, 0, 49, 47
1, 1083704, Note_on_c, 0, 57, 47
1, 1083704, Control_c, 0, 64, 61
1, 1083709, Note_off_c, 0, 74, 57
1, 1083727, Control_c, 0, 64, 48
1, 1083742, Control_c, 0, 64, 0
1, 1083746, Note_on_c, 0, 73, 58
1, 1083762, Note_off_c, 0, 47, 53
1, 1083845, Control_c, 0, 64, 52
1, 1083847, Note_on_c, 0, 71, 64
1, 1083860, Control_c, 0, 64, 65
1, 1083875, Control_c, 0, 64, 71
1, 1083890, Control_c, 0, 64, 76
1, 1083894, Note_off_c, 0, 73, 61
1, 1083904, Control_c, 0, 64, 80
1, 1083909, Note_off_c, 0, 71, 64
1, 1083917, Note_off_c, 0, 49, 59
1, 1083919, Control_c, 0, 64, 85
1, 1083934, Control_c, 0, 64, 93
1, 1083941, Note_on_c, 0, 69, 73
1, 1083948, Control_c, 0, 64, 112
1, 1083963, Control_c, 0, 64, 127
1, 1083969, Note_off_c, 0, 57, 62
1, 1084023, Note_on_c, 0, 68, 77
1, 1084054, Note_off_c, 0, 69, 54
1, 1084113, Note_off_c, 0, 68, 63
1, 1084114, Note_on_c, 0, 71, 79
1, 1084201, Control_c, 0, 64, 106
1, 1084212, Note_on_c, 0, 69, 76
1, 1084216, Control_c, 0, 64, 84
1, 1084230, Control_c, 0, 64, 69
1, 1084245, Control_c, 0, 64, 53
1, 1084260, Control_c, 0, 64, 0
1, 1084272, Note_off_c, 0, 71, 50
1, 1084300, Note_on_c, 0, 50, 53
1, 1084304, Note_on_c, 0, 59, 49
1, 1084326, Note_on_c, 0, 66, 76
1, 1084334, Control_c, 0, 64, 35
1, 1084348, Control_c, 0, 64, 55
1, 1084353, Note_off_c, 0, 69, 58
1, 1084363, Control_c, 0, 64, 66
1, 1084378, Control_c, 0, 64, 75
1, 1084394, Control_c, 0, 64, 86
1, 1084409, Control_c, 0, 64, 96
1, 1084413, Note_off_c, 0, 66, 62
1, 1084416, Note_on_c, 0, 69, 74
1, 1084424, Control_c, 0, 64, 111
1, 1084439, Control_c, 0, 64, 127
1, 1084462, Note_off_c, 0, 50, 61
1, 1084492, Note_off_c, 0, 59, 61
1, 1084493, Note_off_c, 0, 69, 62
1, 1084525, Note_on_c, 0, 81, 93
1, 1084605, Note_off_c, 0, 81, 54
1, 1084615, Note_on_c, 0, 69, 83
1, 1084696, Note_off_c, 0, 69, 62
1, 1084719, Note_on_c, 0, 81, 86
1, 1084728, Note_on_c, 0, 59, 79
1, 1084772, Note_off_c, 0, 81, 62
1, 1084812, Note_on_c, 0, 69, 74
1, 1084903, Note_on_c, 0, 61, 84
1, 1084905, Note_on_c, 0, 51, 69
1, 1084910, Note_off_c, 0, 59, 64
1, 1084918, Note_on_c, 0, 66, 78
1, 1084918, Note_off_c, 0, 69, 63
1, 1084950, Control_c, 0, 64, 109
1, 1084965, Control_c, 0, 64, 78
1, 1084968, Note_off_c, 0, 66, 59
1, 1084979, Control_c, 0, 64, 60
1, 1084994, Control_c, 0, 64, 0
1, 1084998, Note_on_c, 0, 69, 76
1, 1085050, Note_off_c, 0, 69, 64
1, 1085068, Control_c, 0, 64, 42
1, 1085083, Control_c, 0, 64, 57
1, 1085091, Note_on_c, 0, 81, 88
1, 1085098, Control_c, 0, 64, 66
1, 1085113, Control_c, 0, 64, 74
1, 1085128, Control_c, 0, 64, 83
1, 1085143, Control_c, 0, 64, 94
1, 1085158, Control_c, 0, 64, 116
1, 1085164, Note_off_c, 0, 81, 56
1, 1085172, Control_c, 0, 64, 127
1, 1085179, Note_on_c, 0, 57, 77
1, 1085191, Note_off_c, 0, 51, 60
1, 1085196, Note_on_c, 0, 69, 82
1, 1085204, Note_off_c, 0, 61, 61
1, 1085278, Note_off_c, 0, 69, 58
1, 1085286, Note_on_c, 0, 73, 79
1, 1085289, Note_off_c, 0, 57, 63
1, 1085308, Note_off_c, 0, 73, 70
1, 1085381, Note_on_c, 0, 85, 80
1, 1085458, Note_off_c, 0, 85, 65
1, 1085477, Control_c, 0, 64, 85
1, 1085488, Note_on_c, 0, 57, 61
1, 1085489, Note_on_c, 0, 52, 54
1, 1085491, Note_on_c, 0, 73, 79
1, 1085491, Control_c, 0, 64, 65
1, 1085506, Control_c, 0, 64, 45
1, 1085521, Control_c, 0, 64, 0
1, 1085536, Control_c, 0, 64, 34
1, 1085551, Control_c, 0, 64, 48
1, 1085566, Control_c, 0, 64, 59
1, 1085581, Control_c, 0, 64, 64
1, 1085582, Note_on_c, 0, 76, 80
1, 1085584, Note_off_c, 0, 73, 61
1, 1085595, Control_c, 0, 64, 72
1, 1085610, Control_c, 0, 64, 86
1, 1085625, Control_c, 0, 64, 127
1, 1085679, Note_on_c, 0, 80, 79
1, 1085686, Note_off_c, 0, 76, 66
1, 1085709, Note_off_c, 0, 80, 55
1, 1085763, Note_on_c, 0, 81, 84
1, 1085855, Note_on_c, 0, 83, 81
1, 1085873, Note_off_c, 0, 81, 59
1, 1085950, Note_on_c, 0, 85, 74
1, 1085957, Note_off_c, 0, 83, 62
1, 1086072, Note_off_c, 0, 57, 55
1, 1086074, Note_on_c, 0, 56, 53
1, 1086084, Note_on_c, 0, 83, 67
1, 1086085, Note_off_c, 0, 85, 59
1, 1086092, Control_c, 0, 64, 119
1, 1086107, Control_c, 0, 64, 106
1, 1086122, Control_c, 0, 64, 98
1, 1086137, Control_c, 0, 64, 92
1, 1086146, Note_off_c, 0, 52, 36
1, 1086151, Control_c, 0, 64, 87
1, 1086166, Control_c, 0, 64, 84
1, 1086181, Control_c, 0, 64, 81
1, 1086184, Note_off_c, 0, 83, 53
1, 1086196, Note_on_c, 0, 85, 68
1, 1086196, Control_c, 0, 64, 77
1, 1086211, Control_c, 0, 64, 73
1, 1086225, Control_c, 0, 64, 70
1, 1086231, Note_on_c, 0, 54, 64
1, 1086240, Control_c, 0, 64, 67
1, 1086255, Note_off_c, 0, 56, 49
1, 1086255, Control_c, 0, 64, 64
1, 1086270, Control_c, 0, 64, 62
1, 1086285, Control_c, 0, 64, 61
1, 1086289, Note_on_c, 0, 86, 65
1, 1086289, Note_off_c, 0, 85, 63
1, 1086299, Control_c, 0, 64, 60
1, 1086314, Control_c, 0, 64, 58
1, 1086329, Control_c, 0, 64, 57
1, 1086344, Control_c, 0, 64, 54
1, 1086359, Control_c, 0, 64, 52
1, 1086374, Control_c, 0, 64, 51
1, 1086380, Note_off_c, 0, 54, 63
1, 1086383, Note_on_c, 0, 52, 67
1, 1086389, Control_c, 0, 64, 50
1, 1086391, Note_off_c, 0, 86, 59
1, 1086398, Note_on_c, 0, 85, 64
1, 1086404, Control_c, 0, 64, 48
1, 1086418, Control_c, 0, 64, 46
1, 1086433, Control_c, 0, 64, 44
1, 1086448, Control_c, 0, 64, 43
1, 1086463, Control_c, 0, 64, 42
1, 1086478, Control_c, 0, 64, 40
1, 1086487, Note_off_c, 0, 85, 60
1, 1086492, Control_c, 0, 64, 36
1, 1086493, Note_on_c, 0, 86, 67
1, 1086507, Control_c, 0, 64, 0
1, 1086517, Note_on_c, 0, 50, 76
1, 1086535, Note_off_c, 0, 52, 58
1, 1086569, Note_off_c, 0, 86, 58
1, 1086590, Note_on_c, 0, 83, 56
1, 1086678, Note_on_c, 0, 45, 53
1, 1086690, Note_on_c, 0, 49, 61
1, 1086719, Note_off_c, 0, 83, 52
1, 1086731, Note_on_c, 0, 85, 56
1, 1086802, Note_off_c, 0, 50, 64
1, 1086833, Note_on_c, 0, 86, 66
1, 1086837, Note_off_c, 0, 85, 58
1, 1086931, Note_on_c, 0, 88, 69
1, 1086934, Note_off_c, 0, 86, 57
1, 1087028, Note_on_c, 0, 52, 75
1, 1087035, Note_on_c, 0, 86, 67
1, 1087064, Control_c, 0, 64, 41
1, 1087079, Control_c, 0, 64, 56
1, 1087090, Note_off_c, 0, 49, 62
1, 1087093, Control_c, 0, 64, 63
1, 1087108, Control_c, 0, 64, 66
1, 1087122, Note_on_c, 0, 85, 73
1, 1087123, Control_c, 0, 64, 69
1, 1087138, Control_c, 0, 64, 73
1, 1087153, Control_c, 0, 64, 77
1, 1087164, Note_off_c, 0, 88, 41
1, 1087167, Control_c, 0, 64, 81
1, 1087182, Control_c, 0, 64, 85
1, 1087197, Control_c, 0, 64, 88
1, 1087208, Note_on_c, 0, 83, 81
1, 1087210, Note_off_c, 0, 86, 38
1, 1087212, Control_c, 0, 64, 89
1, 1087227, Control_c, 0, 64, 90
1, 1087271, Control_c, 0, 64, 87
1, 1087286, Control_c, 0, 64, 79
1, 1087301, Control_c, 0, 64, 68
1, 1087316, Note_on_c, 0, 81, 81
1, 1087316, Control_c, 0, 64, 55
1, 1087318, Note_off_c, 0, 83, 62
1, 1087324, Note_on_c, 0, 49, 59
1, 1087331, Control_c, 0, 64, 0
1, 1087346, Control_c, 0, 64, 34
1, 1087348, Note_off_c, 0, 85, 46
1, 1087360, Control_c, 0, 64, 48
1, 1087375, Control_c, 0, 64, 58
1, 1087390, Control_c, 0, 64, 65
1, 1087404, Note_on_c, 0, 83, 80
1, 1087405, Control_c, 0, 64, 72
1, 1087420, Control_c, 0, 64, 83
1, 1087423, Note_off_c, 0, 81, 59
1, 1087430, Note_off_c, 0, 45, 36
1, 1087435, Control_c, 0, 64, 101
1, 1087449, Control_c, 0, 64, 127
1, 1087508, Note_on_c, 0, 85, 73
1, 1087570, Note_off_c, 0, 83, 62
1, 1087596, Note_on_c, 0, 57, 79
1, 1087599, Note_off_c, 0, 85, 63
1, 1087614, Note_on_c, 0, 81, 77
1, 1087712, Note_on_c, 0, 80, 77
1, 1087721, Note_off_c, 0, 81, 50
1, 1087801, Note_on_c, 0, 78, 69
1, 1087854, Note_off_c, 0, 80, 59
1, 1087875, Note_off_c, 0, 78, 56
1, 1087886, Note_on_c, 0, 47, 57
1, 1087905, Note_on_c, 0, 76, 68
1, 1087931, Control_c, 0, 64, 104
1, 1087946, Control_c, 0, 64, 89
1, 1087948, Note_off_c, 0, 49, 61
1, 1087961, Control_c, 0, 64, 78
1, 1087963, Note_off_c, 0, 52, 62
1, 1087966, Note_off_c, 0, 76, 59
1, 1087976, Control_c, 0, 64, 68
1, 1087986, Note_on_c, 0, 75, 58
1, 1087990, Control_c, 0, 64, 59
1, 1088005, Control_c, 0, 64, 46
1, 1088020, Control_c, 0, 64, 36
1, 1088035, Control_c, 0, 64, 0
1, 1088054, Note_off_c, 0, 75, 54
1, 1088090, Note_on_c, 0, 76, 54
1, 1088176, Note_off_c, 0, 76, 59
1, 1088195, Note_on_c, 0, 77, 51
1, 1088198, Note_on_c, 0, 56, 66
1, 1088275, Note_off_c, 0, 57, 62
1, 1088289, Note_on_c, 0, 78, 59
1, 1088325, Note_off_c, 0, 77, 36
1, 1088359, Note_off_c, 0, 78, 61
1, 1088386, Note_on_c, 0, 74, 69
1, 1088478, Note_off_c, 0, 74, 49
1, 1088511, Note_on_c, 0, 49, 44
1, 1088514, Note_on_c, 0, 73, 57
1, 1088514, Note_on_c, 0, 57, 49
1, 1088542, Note_off_c, 0, 56, 60
1, 1088568, Note_off_c, 0, 47, 59
1, 1088612, Note_on_c, 0, 71, 58
1, 1088635, Control_c, 0, 64, 41
1, 1088650, Control_c, 0, 64, 51
1, 1088657, Note_off_c, 0, 73, 56
1, 1088665, Control_c, 0, 64, 61
1, 1088675, Note_off_c, 0, 71, 62
1, 1088680, Control_c, 0, 64, 67
1, 1088694, Control_c, 0, 64, 74
1, 1088706, Note_on_c, 0, 69, 65
1, 1088709, Note_off_c, 0, 49, 60
1, 1088709, Control_c, 0, 64, 83
1, 1088724, Control_c, 0, 64, 92
1, 1088738, Control_c, 0, 64, 104
1, 1088753, Control_c, 0, 64, 122
1, 1088768, Control_c, 0, 64, 127
1, 1088792, Note_off_c, 0, 57, 62
1, 1088803, Note_on_c, 0, 68, 65
1, 1088815, Note_off_c, 0, 69, 52
1, 1088871, Note_off_c, 0, 68, 60
1, 1088890, Note_on_c, 0, 71, 61
1, 1088988, Note_on_c, 0, 69, 59
1, 1089021, Note_off_c, 0, 71, 35
1, 1089025, Note_off_c, 0, 69, 63
1, 1089028, Control_c, 0, 64, 99
1, 1089043, Control_c, 0, 64, 76
1, 1089058, Control_c, 0, 64, 62
1, 1089072, Control_c, 0, 64, 44
1, 1089087, Control_c, 0, 64, 42
1, 1089102, Control_c, 0, 64, 49
1, 1089112, Note_on_c, 0, 50, 46
1, 1089117, Control_c, 0, 64, 56
1, 1089120, Note_on_c, 0, 69, 57
1, 1089121, Note_on_c, 0, 59, 40
1, 1089132, Control_c, 0, 64, 63
1, 1089146, Control_c, 0, 64, 70
1, 1089161, Control_c, 0, 64, 80
1, 1089176, Control_c, 0, 64, 94
1, 1089180, Note_off_c, 0, 69, 53
1, 1089192, Control_c, 0, 64, 108
1, 1089194, Note_off_c, 0, 59, 62
1, 1089207, Control_c, 0, 64, 127
1, 1089228, Note_on_c, 0, 78, 64
1, 1089238, Note_off_c, 0, 50, 56
1, 1089310, Note_on_c, 0, 69, 57
1, 1089388, Note_off_c, 0, 69, 50
1, 1089399, Control_c, 0, 64, 95
1, 1089402, Note_on_c, 0, 61, 59
1, 1089414, Control_c, 0, 64, 73
1, 1089420, Note_on_c, 0, 76, 61
1, 1089424, Note_on_c, 0, 52, 39
1, 1089429, Note_off_c, 0, 78, 37
1, 1089429, Control_c, 0, 64, 60
1, 1089444, Control_c, 0, 64, 59
1, 1089459, Control_c, 0, 64, 64
1, 1089474, Control_c, 0, 64, 70
1, 1089477, Note_off_c, 0, 61, 60
1, 1089481, Note_off_c, 0, 52, 56
1, 1089488, Control_c, 0, 64, 80
1, 1089503, Control_c, 0, 64, 101
1, 1089513, Note_on_c, 0, 69, 67
1, 1089518, Control_c, 0, 64, 127
1, 1089522, Note_off_c, 0, 76, 49
1, 1089538, Note_on_c, 0, 62, 79
1, 1089551, Note_on_c, 0, 54, 63
1, 1089590, Note_off_c, 0, 62, 55
1, 1089607, Note_on_c, 0, 74, 71
1, 1089614, Note_off_c, 0, 69, 59
1, 1089683, Note_off_c, 0, 54, 62
1, 1089699, Note_on_c, 0, 61, 91
1, 1089700, Note_off_c, 0, 74, 63
1, 1089702, Note_on_c, 0, 76, 69
1, 1089706, Note_on_c, 0, 52, 70
1, 1089718, Control_c, 0, 64, 83
1, 1089733, Control_c, 0, 64, 62
1, 1089748, Control_c, 0, 64, 49
1, 1089763, Control_c, 0, 64, 55
1, 1089777, Control_c, 0, 64, 62
1, 1089780, Note_off_c, 0, 76, 61
1, 1089792, Control_c, 0, 64, 69
1, 1089804, Note_on_c, 0, 69, 70
1, 1089807, Control_c, 0, 64, 81
1, 1089822, Control_c, 0, 64, 104
1, 1089837, Control_c, 0, 64, 127
1, 1089847, Note_off_c, 0, 52, 58
1, 1089850, Note_off_c, 0, 61, 54
1, 1089862, Note_off_c, 0, 69, 60
1, 1089897, Note_on_c, 0, 81, 78
1, 1089983, Note_off_c, 0, 81, 42
1, 1090008, Note_on_c, 0, 76, 70
1, 1090009, Note_on_c, 0, 59, 84
1, 1090015, Control_c, 0, 64, 82
1, 1090016, Note_on_c, 0, 52, 76
1, 1090030, Control_c, 0, 64, 64
1, 1090045, Control_c, 0, 64, 58
1, 1090060, Control_c, 0, 64, 62
1, 1090070, Note_off_c, 0, 52, 61
1, 1090074, Control_c, 0, 64, 66
1, 1090089, Control_c, 0, 64, 72
1, 1090097, Note_on_c, 0, 68, 73
1, 1090099, Note_off_c, 0, 59, 62
1, 1090104, Control_c, 0, 64, 87
1, 1090118, Control_c, 0, 64, 127
1, 1090172, Note_off_c, 0, 68, 61
1, 1090174, Note_off_c, 0, 76, 49
1, 1090185, Note_on_c, 0, 80, 73
1, 1090224, Note_off_c, 0, 80, 55
1, 1090329, Note_on_c, 0, 59, 68
1, 1090344, Note_on_c, 0, 80, 66
1, 1090350, Note_on_c, 0, 50, 42
1, 1090354, Note_on_c, 0, 45, 56
1, 1090364, Note_on_c, 0, 52, 51
1, 1090371, Control_c, 0, 64, 102
1, 1090385, Control_c, 0, 64, 75
1, 1090400, Control_c, 0, 64, 60
1, 1090415, Control_c, 0, 64, 34
1, 1090430, Control_c, 0, 64, 0
1, 1090467, Control_c, 0, 64, 42
1, 1090467, Note_on_c, 0, 86, 66
1, 1090481, Control_c, 0, 64, 54
1, 1090489, Note_off_c, 0, 80, 55
1, 1090496, Control_c, 0, 64, 62
1, 1090511, Control_c, 0, 64, 69
1, 1090526, Control_c, 0, 64, 83
1, 1090541, Control_c, 0, 64, 106
1, 1090548, Note_on_c, 0, 85, 68
1, 1090556, Control_c, 0, 64, 127
1, 1090639, Note_on_c, 0, 83, 77
1, 1090645, Note_off_c, 0, 59, 63
1, 1090646, Note_off_c, 0, 86, 51
1, 1090673, Note_off_c, 0, 50, 61
1, 1090682, Note_off_c, 0, 85, 59
1, 1090696, Note_off_c, 0, 83, 62
1, 1090733, Note_on_c, 0, 81, 66
1, 1090812, Note_on_c, 0, 80, 68
1, 1090815, Note_off_c, 0, 81, 52
1, 1090938, Note_off_c, 0, 45, 40
1, 1090938, Note_on_c, 0, 49, 49
1, 1090951, Note_on_c, 0, 81, 67
1, 1090955, Note_off_c, 0, 52, 36
1, 1090960, Note_on_c, 0, 57, 54
1, 1090960, Note_off_c, 0, 80, 38
1, 1090974, Note_off_c, 0, 49, 64
1, 1091015, Note_off_c, 0, 57, 59
1, 1091060, Control_c, 0, 64, 102
1, 1091075, Control_c, 0, 64, 85
1, 1091090, Control_c, 0, 64, 72
1, 1091104, Control_c, 0, 64, 61
1, 1091119, Note_on_c, 0, 59, 67
1, 1091119, Control_c, 0, 64, 42
1, 1091134, Control_c, 0, 64, 0
1, 1091173, Note_off_c, 0, 59, 59
1, 1091274, Note_on_c, 0, 61, 69
1, 1091330, Note_off_c, 0, 61, 56
1, 1091420, Note_on_c, 0, 62, 73
1, 1091445, Note_off_c, 0, 81, 51
1, 1091476, Note_off_c, 0, 62, 58
1, 1091593, Note_on_c, 0, 64, 44
1, 1091596, Note_on_c, 0, 61, 42
1, 1091623, Note_on_c, 0, 69, 50
1, 1091675, Note_off_c, 0, 69, 58
1, 1091754, Note_on_c, 0, 71, 51
1, 1091794, Control_c, 0, 64, 39
1, 1091796, Note_off_c, 0, 71, 60
1, 1091809, Control_c, 0, 64, 50
1, 1091824, Control_c, 0, 64, 61
1, 1091838, Control_c, 0, 64, 68
1, 1091853, Control_c, 0, 64, 76
1, 1091865, Note_off_c, 0, 64, 57
1, 1091868, Control_c, 0, 64, 86
1, 1091882, Note_on_c, 0, 73, 70
1, 1091883, Control_c, 0, 64, 97
1, 1091897, Control_c, 0, 64, 111
1, 1091912, Control_c, 0, 64, 127
1, 1091955, Note_off_c, 0, 73, 60
1, 1092029, Note_off_c, 0, 61, 33
1, 1092030, Note_on_c, 0, 74, 84
1, 1092055, Note_on_c, 0, 64, 56
1, 1092172, Control_c, 0, 64, 120
1, 1092184, Note_off_c, 0, 74, 54
1, 1092187, Control_c, 0, 64, 91
1, 1092201, Control_c, 0, 64, 74
1, 1092212, Note_off_c, 0, 64, 45
1, 1092213, Note_on_c, 0, 76, 60
1, 1092216, Control_c, 0, 64, 61
1, 1092227, Note_on_c, 0, 58, 35
1, 1092231, Control_c, 0, 64, 0
1, 1092231, Note_on_c, 0, 66, 44
1, 1092276, Control_c, 0, 64, 37
1, 1092290, Control_c, 0, 64, 48
1, 1092303, Note_off_c, 0, 76, 62
1, 1092305, Control_c, 0, 64, 58
1, 1092312, Note_on_c, 0, 75, 66
1, 1092320, Control_c, 0, 64, 66
1, 1092335, Control_c, 0, 64, 73
1, 1092350, Control_c, 0, 64, 82
1, 1092364, Control_c, 0, 64, 91
1, 1092379, Control_c, 0, 64, 98
1, 1092381, Note_off_c, 0, 75, 63
1, 1092395, Control_c, 0, 64, 105
1, 1092407, Note_on_c, 0, 76, 70
1, 1092410, Control_c, 0, 64, 119
1, 1092425, Control_c, 0, 64, 127
1, 1092491, Note_off_c, 0, 76, 59
1, 1092497, Note_on_c, 0, 78, 69
1, 1092562, Note_off_c, 0, 58, 47
1, 1092579, Note_on_c, 0, 85, 68
1, 1092594, Note_off_c, 0, 78, 56
1, 1092666, Note_on_c, 0, 77, 58
1, 1092699, Note_off_c, 0, 85, 47
1, 1092758, Control_c, 0, 64, 113
1, 1092761, Note_off_c, 0, 77, 52
1, 1092765, Note_off_c, 0, 66, 34
1, 1092773, Control_c, 0, 64, 105
1, 1092781, Note_on_c, 0, 59, 38
1, 1092783, Note_on_c, 0, 64, 40
1, 1092787, Control_c, 0, 64, 98
1, 1092796, Note_on_c, 0, 78, 50
1, 1092802, Control_c, 0, 64, 92
1, 1092817, Control_c, 0, 64, 85
1, 1092831, Control_c, 0, 64, 81
1, 1092846, Control_c, 0, 64, 75
1, 1092848, Note_off_c, 0, 78, 54
1, 1092861, Control_c, 0, 64, 69
1, 1092876, Control_c, 0, 64, 64
1, 1092891, Control_c, 0, 64, 58
1, 1092900, Note_on_c, 0, 77, 44
1, 1092906, Control_c, 0, 64, 53
1, 1092920, Control_c, 0, 64, 51
1, 1092935, Control_c, 0, 64, 50
1, 1092941, Note_off_c, 0, 77, 59
1, 1092950, Control_c, 0, 64, 50
1, 1092965, Control_c, 0, 64, 49
1, 1092973, Note_on_c, 0, 78, 56
1, 1092980, Control_c, 0, 64, 48
1, 1092994, Control_c, 0, 64, 47
1, 1093009, Control_c, 0, 64, 46
1, 1093024, Control_c, 0, 64, 43
1, 1093039, Control_c, 0, 64, 42
1, 1093048, Note_off_c, 0, 78, 60
1, 1093054, Control_c, 0, 64, 40
1, 1093087, Note_on_c, 0, 79, 44
1, 1093096, Note_off_c, 0, 64, 38
1, 1093099, Control_c, 0, 64, 40
1, 1093110, Note_on_c, 0, 63, 40
1, 1093113, Control_c, 0, 64, 39
1, 1093128, Control_c, 0, 64, 39
1, 1093143, Control_c, 0, 64, 38
1, 1093155, Note_off_c, 0, 79, 58
1, 1093173, Control_c, 0, 64, 38
1, 1093179, Note_off_c, 0, 59, 38
1, 1093188, Note_on_c, 0, 80, 41
1, 1093203, Control_c, 0, 64, 37
1, 1093218, Control_c, 0, 64, 37
1, 1093230, Note_off_c, 0, 63, 55
1, 1093233, Control_c, 0, 64, 36
1, 1093275, Note_on_c, 0, 82, 48
1, 1093276, Note_off_c, 0, 80, 46
1, 1093412, Note_off_c, 0, 82, 36
1, 1093435, Note_on_c, 0, 83, 44
1, 1093440, Control_c, 0, 64, 37
1, 1093442, Note_on_c, 0, 59, 31
1, 1093462, Control_c, 0, 64, 40
1, 1093477, Control_c, 0, 64, 43
1, 1093492, Control_c, 0, 64, 47
1, 1093507, Control_c, 0, 64, 52
1, 1093522, Control_c, 0, 64, 58
1, 1093536, Control_c, 0, 64, 64
1, 1093551, Control_c, 0, 64, 70
1, 1093566, Control_c, 0, 64, 80
1, 1093581, Control_c, 0, 64, 94
1, 1093595, Control_c, 0, 64, 114
1, 1093610, Control_c, 0, 64, 127
1, 1093662, Note_off_c, 0, 83, 35
1, 1093929, Note_on_c, 0, 61, 61
1, 1093951, Note_off_c, 0, 59, 37
1, 1094054, Note_off_c, 0, 61, 58
1, 1094070, Control_c, 0, 64, 111
1, 1094072, Note_on_c, 0, 62, 76
1, 1094085, Control_c, 0, 64, 86
1, 1094100, Control_c, 0, 64, 70
1, 1094115, Control_c, 0, 64, 54
1, 1094130, Control_c, 0, 64, 0
1, 1094229, Note_on_c, 0, 54, 58
1, 1094247, Note_on_c, 0, 74, 65
1, 1094268, Note_off_c, 0, 54, 63
1, 1094282, Note_off_c, 0, 74, 61
1, 1094389, Control_c, 0, 64, 45
1, 1094401, Note_on_c, 0, 56, 50
1, 1094404, Control_c, 0, 64, 60
1, 1094405, Note_on_c, 0, 76, 54
1, 1094419, Control_c, 0, 64, 68
1, 1094434, Control_c, 0, 64, 74
1, 1094441, Note_off_c, 0, 56, 60
1, 1094446, Note_off_c, 0, 76, 59
1, 1094449, Control_c, 0, 64, 79
1, 1094464, Control_c, 0, 64, 85
1, 1094479, Control_c, 0, 64, 93
1, 1094493, Control_c, 0, 64, 102
1, 1094506, Note_off_c, 0, 62, 53
1, 1094508, Control_c, 0, 64, 125
1, 1094523, Control_c, 0, 64, 127
1, 1094541, Note_on_c, 0, 78, 53
1, 1094547, Note_on_c, 0, 57, 39
1, 1094563, Note_off_c, 0, 78, 61
1, 1094577, Note_off_c, 0, 57, 55
1, 1094709, Note_on_c, 0, 64, 53
1, 1094712, Note_on_c, 0, 56, 48
1, 1094715, Control_c, 0, 64, 96
1, 1094721, Note_on_c, 0, 76, 62
1, 1094729, Control_c, 0, 64, 77
1, 1094744, Control_c, 0, 64, 64
1, 1094759, Control_c, 0, 64, 44
1, 1094775, Control_c, 0, 64, 0
1, 1094820, Note_on_c, 0, 80, 65
1, 1094820, Control_c, 0, 64, 44
1, 1094834, Control_c, 0, 64, 53
1, 1094849, Control_c, 0, 64, 61
1, 1094864, Control_c, 0, 64, 69
1, 1094879, Control_c, 0, 64, 77
1, 1094894, Control_c, 0, 64, 88
1, 1094906, Note_off_c, 0, 76, 37
1, 1094908, Control_c, 0, 64, 100
1, 1094923, Control_c, 0, 64, 119
1, 1094926, Note_on_c, 0, 81, 73
1, 1094938, Control_c, 0, 64, 127
1, 1094992, Note_off_c, 0, 56, 36
1, 1095001, Note_off_c, 0, 80, 54
1, 1095015, Note_on_c, 0, 83, 69
1, 1095045, Note_off_c, 0, 81, 57
1, 1095103, Note_on_c, 0, 80, 70
1, 1095122, Note_off_c, 0, 83, 57
1, 1095173, Note_off_c, 0, 80, 61
1, 1095198, Note_on_c, 0, 74, 67
1, 1095308, Note_off_c, 0, 74, 53
1, 1095311, Note_on_c, 0, 57, 45
1, 1095401, Note_off_c, 0, 64, 35
1, 1095405, Control_c, 0, 64, 98
1, 1095416, Note_on_c, 0, 71, 64
1, 1095420, Control_c, 0, 64, 83
1, 1095425, Poly_aftertouch_c, 0, 72, 0
1, 1095434, Control_c, 0, 64, 71
1, 1095449, Control_c, 0, 64, 60
1, 1095464, Control_c, 0, 64, 41
1, 1095479, Control_c, 0, 64, 0
1, 1095499, Note_off_c, 0, 71, 56
1, 1095513, Note_on_c, 0, 73, 60
1, 1095618, Note_off_c, 0, 73, 61
1, 1095621, Note_on_c, 0, 74, 70
1, 1095727, Note_on_c, 0, 73, 63
1, 1095734, Note_off_c, 0, 74, 56
1, 1095752, Note_on_c, 0, 59, 43
1, 1095770, Note_off_c, 0, 73, 61
1, 1095822, Note_on_c, 0, 74, 67
1, 1095877, Note_off_c, 0, 59, 59
1, 1095911, Note_off_c, 0, 74, 56
1, 1095914, Note_on_c, 0, 61, 51
1, 1095919, Note_on_c, 0, 76, 61
1, 1095931, Control_c, 0, 64, 42
1, 1095946, Control_c, 0, 64, 52
1, 1095961, Control_c, 0, 64, 60
1, 1095976, Control_c, 0, 64, 66
1, 1095990, Control_c, 0, 64, 73
1, 1096005, Control_c, 0, 64, 81
1, 1096007, Note_on_c, 0, 78, 67
1, 1096020, Control_c, 0, 64, 88
1, 1096035, Control_c, 0, 64, 94
1, 1096050, Control_c, 0, 64, 101
1, 1096065, Control_c, 0, 64, 110
1, 1096072, Note_off_c, 0, 76, 33
1, 1096080, Control_c, 0, 64, 127
1, 1096094, Note_off_c, 0, 57, 49
1, 1096095, Note_on_c, 0, 80, 70
1, 1096113, Note_off_c, 0, 61, 37
1, 1096162, Note_off_c, 0, 78, 57
1, 1096192, Note_on_c, 0, 81, 77
1, 1096205, Note_off_c, 0, 80, 60
1, 1096288, Note_on_c, 0, 76, 66
1, 1096343, Note_off_c, 0, 81, 28
1, 1096368, Note_off_c, 0, 76, 57
1, 1096377, Note_on_c, 0, 73, 52
1, 1096434, Note_off_c, 0, 73, 50
1, 1096458, Control_c, 0, 64, 99
1, 1096473, Control_c, 0, 64, 75
1, 1096487, Control_c, 0, 64, 60
1, 1096502, Control_c, 0, 64, 40
1, 1096505, Note_on_c, 0, 78, 52
1, 1096511, Note_on_c, 0, 59, 37
1, 1096517, Control_c, 0, 64, 44
1, 1096524, Note_on_c, 0, 50, 36
1, 1096532, Control_c, 0, 64, 54
1, 1096547, Control_c, 0, 64, 61
1, 1096561, Control_c, 0, 64, 67
1, 1096574, Note_off_c, 0, 78, 56
1, 1096576, Control_c, 0, 64, 74
1, 1096591, Control_c, 0, 64, 84
1, 1096605, Control_c, 0, 64, 94
1, 1096616, Note_on_c, 0, 71, 39
1, 1096620, Control_c, 0, 64, 100
1, 1096635, Control_c, 0, 64, 107
1, 1096650, Control_c, 0, 64, 120
1, 1096665, Control_c, 0, 64, 127
1, 1096669, Note_off_c, 0, 59, 32
1, 1096697, Note_on_c, 0, 78, 52
1, 1096757, Note_off_c, 0, 78, 47
1, 1096800, Note_off_c, 0, 71, 34
1, 1096807, Note_on_c, 0, 59, 58
1, 1096813, Note_on_c, 0, 81, 58
1, 1096827, Note_off_c, 0, 50, 48
1, 1096860, Note_off_c, 0, 59, 58
1, 1096898, Note_off_c, 0, 81, 58
1, 1096920, Note_on_c, 0, 71, 52
1, 1096988, Note_off_c, 0, 71, 43
1, 1097019, Note_on_c, 0, 81, 53
1, 1097110, Note_on_c, 0, 59, 75
1, 1097118, Note_on_c, 0, 52, 61
1, 1097123, Note_on_c, 0, 80, 58
1, 1097138, Control_c, 0, 64, 94
1, 1097141, Note_off_c, 0, 81, 36
1, 1097154, Control_c, 0, 64, 70
1, 1097169, Control_c, 0, 64, 54
1, 1097185, Control_c, 0, 64, 36
1, 1097207, Control_c, 0, 64, 48
1, 1097213, Note_off_c, 0, 80, 57
1, 1097222, Control_c, 0, 64, 57
1, 1097233, Note_on_c, 0, 71, 61
1, 1097236, Control_c, 0, 64, 63
1, 1097251, Control_c, 0, 64, 69
1, 1097266, Control_c, 0, 64, 78
1, 1097281, Control_c, 0, 64, 90
1, 1097296, Control_c, 0, 64, 101
1, 1097297, Note_off_c, 0, 71, 57
1, 1097311, Control_c, 0, 64, 110
1, 1097326, Control_c, 0, 64, 115
1, 1097329, Note_on_c, 0, 80, 68
1, 1097355, Control_c, 0, 64, 110
1, 1097370, Control_c, 0, 64, 89
1, 1097385, Control_c, 0, 64, 70
1, 1097400, Control_c, 0, 64, 49
1, 1097400, Note_off_c, 0, 80, 56
1, 1097415, Control_c, 0, 64, 0
1, 1097420, Note_on_c, 0, 62, 90
1, 1097429, Control_c, 0, 64, 37
1, 1097430, Note_on_c, 0, 83, 67
1, 1097444, Control_c, 0, 64, 50
1, 1097446, Note_off_c, 0, 59, 63
1, 1097459, Control_c, 0, 64, 60
1, 1097474, Control_c, 0, 64, 67
1, 1097489, Control_c, 0, 64, 78
1, 1097503, Control_c, 0, 64, 100
1, 1097518, Note_on_c, 0, 80, 70
1, 1097518, Control_c, 0, 64, 127
1, 1097543, Note_off_c, 0, 83, 55
1, 1097618, Note_off_c, 0, 80, 61
1, 1097628, Note_on_c, 0, 83, 71
1, 1097632, Note_off_c, 0, 62, 42
1, 1097642, Note_on_c, 0, 61, 67
1, 1097670, Note_off_c, 0, 61, 65
1, 1097727, Note_on_c, 0, 61, 78
1, 1097729, Note_on_c, 0, 81, 73
1, 1097733, Note_off_c, 0, 83, 63
1, 1097740, Control_c, 0, 64, 97
1, 1097755, Control_c, 0, 64, 69
1, 1097769, Note_off_c, 0, 52, 40
1, 1097770, Control_c, 0, 64, 47
1, 1097773, Note_on_c, 0, 57, 50
1, 1097785, Control_c, 0, 64, 0
1, 1097821, Note_on_c, 0, 83, 72
1, 1097829, Control_c, 0, 64, 36
1, 1097844, Control_c, 0, 64, 52
1, 1097859, Control_c, 0, 64, 60
1, 1097862, Note_off_c, 0, 81, 54
1, 1097874, Control_c, 0, 64, 65
1, 1097889, Control_c, 0, 64, 74
1, 1097902, Control_c, 0, 64, 89
1, 1097913, Note_on_c, 0, 80, 80
1, 1097917, Control_c, 0, 64, 111
1, 1097932, Control_c, 0, 64, 127
1, 1097933, Note_off_c, 0, 83, 55
1, 1097987, Note_off_c, 0, 80, 64
1, 1098023, Note_on_c, 0, 81, 90
1, 1098110, Note_on_c, 0, 83, 90
1, 1098128, Note_off_c, 0, 81, 63
1, 1098181, Note_off_c, 0, 83, 51
1, 1098199, Note_on_c, 0, 84, 93
1, 1098281, Control_c, 0, 64, 98
1, 1098284, Note_on_c, 0, 64, 91
1, 1098296, Control_c, 0, 64, 69
1, 1098303, Note_on_c, 0, 85, 81
1, 1098311, Control_c, 0, 64, 53
1, 1098315, Note_off_c, 0, 84, 58
1, 1098322, Note_off_c, 0, 61, 62
1, 1098325, Control_c, 0, 64, 36
1, 1098340, Control_c, 0, 64, 44
1, 1098355, Control_c, 0, 64, 54
1, 1098369, Control_c, 0, 64, 63
1, 1098381, Note_off_c, 0, 85, 64
1, 1098384, Control_c, 0, 64, 70
1, 1098391, Note_on_c, 0, 86, 87
1, 1098399, Control_c, 0, 64, 88
1, 1098414, Control_c, 0, 64, 127
1, 1098452, Note_off_c, 0, 64, 59
1, 1098482, Note_on_c, 0, 88, 80
1, 1098485, Note_off_c, 0, 86, 61
1, 1098567, Note_on_c, 0, 90, 75
1, 1098624, Note_on_c, 0, 62, 58
1, 1098640, Note_off_c, 0, 88, 62
1, 1098679, Note_on_c, 0, 92, 68
1, 1098697, Note_off_c, 0, 90, 62
1, 1098702, Note_off_c, 0, 62, 55
1, 1098724, Note_on_c, 0, 61, 61
1, 1098729, Note_on_c, 0, 93, 62
1, 1098748, Note_off_c, 0, 61, 63
1, 1098749, Note_off_c, 0, 92, 63
1, 1098755, Note_off_c, 0, 93, 68
1, 1098767, Note_off_c, 0, 57, 44
1, 1098837, Control_c, 0, 64, 85
1, 1098852, Control_c, 0, 64, 63
1, 1098867, Note_on_c, 0, 59, 50
1, 1098867, Control_c, 0, 64, 0
1, 1098873, Note_on_c, 0, 50, 50
1, 1098883, Note_on_c, 0, 78, 66
1, 1098896, Control_c, 0, 64, 40
1, 1098911, Control_c, 0, 64, 56
1, 1098926, Control_c, 0, 64, 65
1, 1098941, Control_c, 0, 64, 74
1, 1098952, Note_off_c, 0, 50, 61
1, 1098954, Note_off_c, 0, 78, 60
1, 1098955, Control_c, 0, 64, 86
1, 1098960, Note_off_c, 0, 59, 62
1, 1098970, Control_c, 0, 64, 99
1, 1098985, Control_c, 0, 64, 113
1, 1098999, Control_c, 0, 64, 127
1, 1099061, Poly_aftertouch_c, 0, 71, 127
1, 1099087, Note_on_c, 0, 78, 51
1, 1099114, Poly_aftertouch_c, 0, 71, 0
1, 1099170, Note_off_c, 0, 78, 38
1, 1099177, Control_c, 0, 64, 80
1, 1099181, Note_on_c, 0, 51, 47
1, 1099183, Note_on_c, 0, 59, 52
1, 1099192, Control_c, 0, 64, 60
1, 1099201, Note_on_c, 0, 81, 46
1, 1099207, Control_c, 0, 64, 48
1, 1099221, Control_c, 0, 64, 54
1, 1099236, Control_c, 0, 64, 60
1, 1099251, Note_off_c, 0, 51, 54
1, 1099251, Control_c, 0, 64, 65
1, 1099263, Note_off_c, 0, 59, 56
1, 1099266, Control_c, 0, 64, 74
1, 1099272, Note_off_c, 0, 81, 40
1, 1099281, Control_c, 0, 64, 86
1, 1099296, Control_c, 0, 64, 108
1, 1099301, Note_on_c, 0, 71, 47
1, 1099311, Control_c, 0, 64, 127
1, 1099350, Note_off_c, 0, 71, 53
1, 1099395, Note_on_c, 0, 81, 52
1, 1099481, Control_c, 0, 64, 95
1, 1099485, Note_on_c, 0, 59, 55
1, 1099492, Note_on_c, 0, 52, 48
1, 1099493, Note_on_c, 0, 80, 62
1, 1099496, Control_c, 0, 64, 67
1, 1099511, Control_c, 0, 64, 45
1, 1099526, Control_c, 0, 64, 0
1, 1099530, Note_off_c, 0, 81, 43
1, 1099540, Control_c, 0, 64, 34
1, 1099554, Note_off_c, 0, 80, 57
1, 1099555, Control_c, 0, 64, 50
1, 1099570, Control_c, 0, 64, 60
1, 1099580, Note_on_c, 0, 71, 65
1, 1099586, Control_c, 0, 64, 69
1, 1099601, Control_c, 0, 64, 82
1, 1099616, Control_c, 0, 64, 101
1, 1099630, Control_c, 0, 64, 127
1, 1099667, Note_on_c, 0, 80, 70
1, 1099674, Note_off_c, 0, 71, 36
1, 1099753, Note_off_c, 0, 59, 56
1, 1099770, Note_off_c, 0, 80, 37
1, 1099776, Note_on_c, 0, 62, 76
1, 1099776, Note_on_c, 0, 83, 61
1, 1099822, Note_off_c, 0, 83, 55
1, 1099865, Note_on_c, 0, 80, 72
1, 1099906, Note_off_c, 0, 80, 52
1, 1099943, Note_off_c, 0, 52, 34
1, 1099944, Note_off_c, 0, 62, 53
1, 1099964, Note_on_c, 0, 88, 75
1, 1099967, Note_on_c, 0, 61, 66
1, 1099991, Note_off_c, 0, 61, 63
1, 1100075, Control_c, 0, 64, 97
1, 1100086, Note_on_c, 0, 85, 61
1, 1100090, Control_c, 0, 64, 67
1, 1100104, Control_c, 0, 64, 44
1, 1100116, Note_on_c, 0, 45, 52
1, 1100119, Note_on_c, 0, 57, 43
1, 1100119, Control_c, 0, 64, 0
1, 1100123, Note_off_c, 0, 88, 33
1, 1100149, Control_c, 0, 64, 42
1, 1100163, Control_c, 0, 64, 57
1, 1100169, Note_on_c, 0, 81, 62
1, 1100178, Control_c, 0, 64, 66
1, 1100201, Control_c, 0, 64, 81
1, 1100212, Note_off_c, 0, 57, 61
1, 1100216, Note_off_c, 0, 85, 46
1, 1100216, Control_c, 0, 64, 105
1, 1100219, Note_off_c, 0, 45, 51
1, 1100230, Control_c, 0, 64, 127
1, 1100236, Note_off_c, 0, 81, 62
1, 1100277, Note_on_c, 0, 76, 68
1, 1100332, Note_off_c, 0, 76, 59
1, 1100395, Note_on_c, 0, 73, 53
1, 1100445, Note_off_c, 0, 73, 56
1, 1100473, Note_on_c, 0, 74, 55
1, 1100578, Note_off_c, 0, 74, 54
1, 1100583, Note_on_c, 0, 71, 49
1, 1100676, Control_c, 0, 64, 122
1, 1100682, Note_on_c, 0, 57, 51
1, 1100686, Note_on_c, 0, 69, 52
1, 1100691, Control_c, 0, 64, 96
1, 1100705, Control_c, 0, 64, 85
1, 1100720, Control_c, 0, 64, 75
1, 1100727, Note_off_c, 0, 57, 59
1, 1100730, Note_off_c, 0, 71, 30
1, 1100735, Control_c, 0, 64, 65
1, 1100750, Control_c, 0, 64, 54
1, 1100765, Control_c, 0, 64, 36
1, 1100779, Control_c, 0, 64, 0
1, 1100830, Note_on_c, 0, 59, 64
1, 1100884, Note_off_c, 0, 59, 51
1, 1100989, Note_on_c, 0, 61, 68
1, 1101032, Note_off_c, 0, 61, 57
1, 1101113, Note_on_c, 0, 62, 78
1, 1101148, Note_off_c, 0, 62, 54
1, 1101165, Note_off_c, 0, 69, 35
1, 1101295, Note_on_c, 0, 64, 50
1, 1101300, Note_on_c, 0, 61, 45
1, 1101346, Note_on_c, 0, 69, 53
1, 1101393, Note_off_c, 0, 69, 59
1, 1101475, Note_on_c, 0, 71, 59
1, 1101528, Control_c, 0, 64, 50
1, 1101542, Note_off_c, 0, 71, 55
1, 1101543, Control_c, 0, 64, 63
1, 1101544, Note_off_c, 0, 64, 61
1, 1101558, Control_c, 0, 64, 68
1, 1101573, Control_c, 0, 64, 73
1, 1101588, Control_c, 0, 64, 81
1, 1101602, Control_c, 0, 64, 89
1, 1101609, Note_on_c, 0, 73, 70
1, 1101617, Control_c, 0, 64, 99
1, 1101632, Control_c, 0, 64, 114
1, 1101647, Control_c, 0, 64, 127
1, 1101697, Note_off_c, 0, 73, 60
1, 1101721, Note_off_c, 0, 61, 53
1, 1101761, Note_on_c, 0, 74, 83
1, 1101767, Note_on_c, 0, 64, 56
1, 1101889, Note_off_c, 0, 64, 52
1, 1101891, Control_c, 0, 64, 102
1, 1101906, Control_c, 0, 64, 80
1, 1101920, Control_c, 0, 64, 65
1, 1101921, Note_off_c, 0, 74, 51
1, 1101931, Note_on_c, 0, 58, 37
1, 1101935, Control_c, 0, 64, 48
1, 1101938, Note_on_c, 0, 66, 38
1, 1101941, Note_on_c, 0, 76, 67
1, 1101950, Control_c, 0, 64, 33
1, 1101966, Control_c, 0, 64, 38
1, 1101981, Control_c, 0, 64, 49
1, 1101996, Control_c, 0, 64, 56
1, 1102011, Control_c, 0, 64, 63
1, 1102025, Control_c, 0, 64, 69
1, 1102032, Note_off_c, 0, 76, 63
1, 1102040, Control_c, 0, 64, 77
1, 1102041, Note_on_c, 0, 75, 71
1, 1102055, Control_c, 0, 64, 86
1, 1102070, Control_c, 0, 64, 92
1, 1102085, Control_c, 0, 64, 99
1, 1102099, Control_c, 0, 64, 108
1, 1102111, Note_off_c, 0, 75, 61
1, 1102114, Control_c, 0, 64, 127
1, 1102137, Note_on_c, 0, 76, 75
1, 1102225, Note_on_c, 0, 78, 75
1, 1102229, Note_off_c, 0, 76, 56
1, 1102262, Note_off_c, 0, 58, 60
1, 1102310, Note_on_c, 0, 85, 70
1, 1102323, Note_off_c, 0, 78, 56
1, 1102398, Note_on_c, 0, 77, 58
1, 1102417, Note_off_c, 0, 85, 48
1, 1102462, Control_c, 0, 64, 114
1, 1102477, Control_c, 0, 64, 101
1, 1102487, Note_off_c, 0, 77, 60
1, 1102489, Note_off_c, 0, 66, 41
1, 1102492, Control_c, 0, 64, 91
1, 1102506, Control_c, 0, 64, 84
1, 1102507, Note_on_c, 0, 59, 35
1, 1102520, Note_on_c, 0, 78, 51
1, 1102521, Control_c, 0, 64, 76
1, 1102527, Note_on_c, 0, 64, 36
1, 1102536, Control_c, 0, 64, 69
1, 1102551, Control_c, 0, 64, 63
1, 1102566, Control_c, 0, 64, 56
1, 1102581, Control_c, 0, 64, 52
1, 1102590, Note_off_c, 0, 78, 55
1, 1102596, Control_c, 0, 64, 52
1, 1102602, Note_off_c, 0, 64, 54
1, 1102611, Control_c, 0, 64, 51
1, 1102619, Note_on_c, 0, 77, 51
1, 1102625, Control_c, 0, 64, 51
1, 1102640, Control_c, 0, 64, 49
1, 1102655, Control_c, 0, 64, 48
1, 1102665, Note_off_c, 0, 77, 60
1, 1102669, Control_c, 0, 64, 48
1, 1102684, Control_c, 0, 64, 47
1, 1102690, Poly_aftertouch_c, 0, 64, 127
1, 1102703, Note_on_c, 0, 78, 59
1, 1102743, Control_c, 0, 64, 48
1, 1102754, Note_off_c, 0, 78, 56
1, 1102795, Note_on_c, 0, 79, 49
1, 1102804, Control_c, 0, 64, 47
1, 1102817, Poly_aftertouch_c, 0, 64, 0
1, 1102840, Note_on_c, 0, 63, 35
1, 1102852, Note_off_c, 0, 79, 56
1, 1102882, Note_on_c, 0, 80, 51
1, 1102884, Note_off_c, 0, 59, 38
1, 1102901, Note_off_c, 0, 63, 55
1, 1102979, Note_on_c, 0, 82, 49
1, 1102981, Note_off_c, 0, 80, 48
1, 1103122, Note_off_c, 0, 82, 36
1, 1103138, Note_on_c, 0, 59, 27
1, 1103147, Note_on_c, 0, 83, 46
1, 1103159, Control_c, 0, 64, 48
1, 1103174, Control_c, 0, 64, 50
1, 1103196, Control_c, 0, 64, 53
1, 1103211, Control_c, 0, 64, 57
1, 1103226, Control_c, 0, 64, 60
1, 1103241, Control_c, 0, 64, 65
1, 1103255, Control_c, 0, 64, 72
1, 1103270, Control_c, 0, 64, 81
1, 1103285, Control_c, 0, 64, 96
1, 1103299, Control_c, 0, 64, 115
1, 1103314, Control_c, 0, 64, 127
1, 1103347, Note_off_c, 0, 83, 52
1, 1103642, Note_on_c, 0, 61, 57
1, 1103644, Note_off_c, 0, 59, 41
1, 1103767, Note_off_c, 0, 61, 60
1, 1103788, Note_on_c, 0, 62, 77
1, 1103804, Control_c, 0, 64, 100
1, 1103819, Control_c, 0, 64, 83
1, 1103834, Control_c, 0, 64, 69
1, 1103849, Control_c, 0, 64, 56
1, 1103863, Control_c, 0, 64, 0
1, 1103943, Note_on_c, 0, 54, 55
1, 1103964, Note_on_c, 0, 74, 61
1, 1103981, Note_off_c, 0, 54, 62
1, 1104004, Note_off_c, 0, 74, 61
1, 1104098, Note_on_c, 0, 56, 50
1, 1104108, Note_on_c, 0, 76, 53
1, 1104122, Control_c, 0, 64, 39
1, 1104135, Note_off_c, 0, 56, 61
1, 1104137, Control_c, 0, 64, 55
1, 1104149, Note_off_c, 0, 76, 60
1, 1104152, Control_c, 0, 64, 63
1, 1104167, Control_c, 0, 64, 67
1, 1104182, Control_c, 0, 64, 71
1, 1104197, Control_c, 0, 64, 74
1, 1104202, Note_off_c, 0, 62, 54
1, 1104212, Control_c, 0, 64, 77
1, 1104226, Note_on_c, 0, 57, 52
1, 1104226, Control_c, 0, 64, 81
1, 1104229, Note_on_c, 0, 78, 65
1, 1104241, Control_c, 0, 64, 85
1, 1104256, Control_c, 0, 64, 88
1, 1104261, Note_off_c, 0, 78, 62
1, 1104268, Note_off_c, 0, 57, 61
1, 1104271, Control_c, 0, 64, 89
1, 1104286, Control_c, 0, 64, 90
1, 1104301, Control_c, 0, 64, 91
1, 1104315, Control_c, 0, 64, 91
1, 1104375, Control_c, 0, 64, 91
1, 1104390, Control_c, 0, 64, 85
1, 1104405, Control_c, 0, 64, 75
1, 1104411, Note_on_c, 0, 64, 43
1, 1104412, Note_on_c, 0, 56, 48
1, 1104420, Control_c, 0, 64, 64
1, 1104432, Note_on_c, 0, 76, 56
1, 1104435, Control_c, 0, 64, 47
1, 1104450, Control_c, 0, 64, 0
1, 1104494, Control_c, 0, 64, 42
1, 1104509, Control_c, 0, 64, 53
1, 1104524, Control_c, 0, 64, 63
1, 1104525, Note_on_c, 0, 80, 64
1, 1104538, Control_c, 0, 64, 70
1, 1104553, Control_c, 0, 64, 77
1, 1104568, Note_off_c, 0, 76, 54
1, 1104568, Control_c, 0, 64, 85
1, 1104583, Control_c, 0, 64, 91
1, 1104598, Control_c, 0, 64, 100
1, 1104612, Control_c, 0, 64, 119
1, 1104626, Note_on_c, 0, 81, 73
1, 1104627, Control_c, 0, 64, 127
1, 1104653, Note_off_c, 0, 56, 34
1, 1104705, Note_off_c, 0, 80, 60
1, 1104715, Note_on_c, 0, 83, 76
1, 1104742, Note_off_c, 0, 81, 61
1, 1104810, Note_on_c, 0, 80, 70
1, 1104829, Note_off_c, 0, 83, 55
1, 1104870, Note_off_c, 0, 80, 61
1, 1104897, Note_on_c, 0, 74, 73
1, 1104988, Note_off_c, 0, 74, 53
1, 1104989, Note_off_c, 0, 64, 36
1, 1104990, Note_on_c, 0, 57, 35
1, 1104999, Note_on_c, 0, 73, 62
1, 1105035, Control_c, 0, 64, 111
1, 1105050, Control_c, 0, 64, 91
1, 1105064, Control_c, 0, 64, 79
1, 1105079, Control_c, 0, 64, 67
1, 1105082, Note_off_c, 0, 73, 59
1, 1105088, Note_on_c, 0, 71, 63
1, 1105094, Control_c, 0, 64, 58
1, 1105109, Control_c, 0, 64, 44
1, 1105124, Control_c, 0, 64, 0
1, 1105172, Note_off_c, 0, 71, 60
1, 1105185, Note_on_c, 0, 73, 65
1, 1105275, Note_on_c, 0, 74, 70
1, 1105282, Note_off_c, 0, 73, 60
1, 1105384, Note_on_c, 0, 73, 65
1, 1105398, Note_off_c, 0, 74, 50
1, 1105399, Note_on_c, 0, 59, 34
1, 1105457, Note_off_c, 0, 73, 62
1, 1105498, Note_on_c, 0, 74, 64
1, 1105536, Note_off_c, 0, 59, 56
1, 1105567, Note_on_c, 0, 61, 39
1, 1105589, Note_off_c, 0, 74, 56
1, 1105605, Note_on_c, 0, 76, 52
1, 1105621, Control_c, 0, 64, 43
1, 1105636, Control_c, 0, 64, 52
1, 1105651, Control_c, 0, 64, 60
1, 1105666, Control_c, 0, 64, 65
1, 1105681, Control_c, 0, 64, 71
1, 1105685, Note_on_c, 0, 78, 64
1, 1105695, Control_c, 0, 64, 78
1, 1105710, Control_c, 0, 64, 87
1, 1105720, Note_off_c, 0, 76, 38
1, 1105725, Control_c, 0, 64, 96
1, 1105740, Control_c, 0, 64, 110
1, 1105755, Control_c, 0, 64, 127
1, 1105780, Note_on_c, 0, 80, 60
1, 1105782, Note_off_c, 0, 61, 59
1, 1105794, Note_off_c, 0, 57, 41
1, 1105830, Note_off_c, 0, 78, 59
1, 1105853, Note_on_c, 0, 81, 74
1, 1105857, Note_off_c, 0, 80, 61
1, 1105926, Note_off_c, 0, 81, 53
1, 1105942, Note_on_c, 0, 76, 65
1, 1106026, Note_on_c, 0, 73, 56
1, 1106030, Note_off_c, 0, 76, 55
1, 1106110, Control_c, 0, 64, 100
1, 1106118, Note_off_c, 0, 73, 54
1, 1106125, Control_c, 0, 64, 79
1, 1106140, Control_c, 0, 64, 64
1, 1106155, Control_c, 0, 64, 46
1, 1106160, Note_on_c, 0, 78, 53
1, 1106168, Note_on_c, 0, 59, 29
1, 1106170, Note_on_c, 0, 50, 34
1, 1106170, Control_c, 0, 64, 39
1, 1106192, Control_c, 0, 64, 50
1, 1106207, Control_c, 0, 64, 59
1, 1106222, Control_c, 0, 64, 66
1, 1106230, Note_off_c, 0, 78, 51
1, 1106237, Control_c, 0, 64, 74
1, 1106251, Control_c, 0, 64, 85
1, 1106265, Note_on_c, 0, 71, 48
1, 1106266, Control_c, 0, 64, 97
1, 1106281, Control_c, 0, 64, 111
1, 1106296, Control_c, 0, 64, 127
1, 1106308, Note_off_c, 0, 59, 35
1, 1106358, Note_on_c, 0, 78, 54
1, 1106438, Note_off_c, 0, 71, 40
1, 1106462, Note_off_c, 0, 78, 34
1, 1106475, Note_on_c, 0, 81, 61
1, 1106483, Note_on_c, 0, 59, 53
1, 1106487, Note_off_c, 0, 50, 40
1, 1106520, Note_off_c, 0, 59, 61
1, 1106581, Note_on_c, 0, 71, 54
1, 1106587, Note_off_c, 0, 81, 38
1, 1106654, Note_off_c, 0, 71, 52
1, 1106704, Note_on_c, 0, 81, 51
1, 1106740, Control_c, 0, 64, 99
1, 1106756, Control_c, 0, 64, 75
1, 1106763, Note_on_c, 0, 59, 72
1, 1106769, Note_on_c, 0, 52, 54
1, 1106771, Control_c, 0, 64, 54
1, 1106786, Control_c, 0, 64, 0
1, 1106801, Note_on_c, 0, 80, 60
1, 1106801, Control_c, 0, 64, 33
1, 1106815, Control_c, 0, 64, 48
1, 1106827, Note_off_c, 0, 81, 44
1, 1106830, Control_c, 0, 64, 62
1, 1106845, Control_c, 0, 64, 71
1, 1106859, Control_c, 0, 64, 84
1, 1106862, Note_off_c, 0, 80, 57
1, 1106874, Control_c, 0, 64, 96
1, 1106885, Note_on_c, 0, 71, 68
1, 1106889, Control_c, 0, 64, 108
1, 1106904, Control_c, 0, 64, 127
1, 1106980, Note_on_c, 0, 80, 76
1, 1107006, Note_off_c, 0, 71, 32
1, 1107045, Control_c, 0, 64, 85
1, 1107060, Control_c, 0, 64, 64
1, 1107061, Note_on_c, 0, 62, 89
1, 1107065, Note_off_c, 0, 59, 43
1, 1107069, Note_off_c, 0, 80, 58
1, 1107074, Control_c, 0, 64, 0
1, 1107079, Note_on_c, 0, 83, 77
1, 1107104, Control_c, 0, 64, 48
1, 1107119, Control_c, 0, 64, 61
1, 1107134, Control_c, 0, 64, 70
1, 1107148, Control_c, 0, 64, 83
1, 1107163, Control_c, 0, 64, 116
1, 1107172, Note_on_c, 0, 80, 81
1, 1107178, Control_c, 0, 64, 127
1, 1107189, Note_off_c, 0, 83, 59
1, 1107265, Note_on_c, 0, 83, 82
1, 1107273, Note_off_c, 0, 80, 63
1, 1107277, Note_off_c, 0, 62, 42
1, 1107285, Note_on_c, 0, 61, 70
1, 1107312, Note_off_c, 0, 61, 67
1, 1107370, Note_on_c, 0, 61, 76
1, 1107378, Note_on_c, 0, 81, 81
1, 1107386, Control_c, 0, 64, 83
1, 1107392, Note_off_c, 0, 83, 59
1, 1107394, Note_off_c, 0, 52, 39
1, 1107401, Control_c, 0, 64, 63
1, 1107412, Note_on_c, 0, 57, 52
1, 1107415, Control_c, 0, 64, 35
1, 1107430, Control_c, 0, 64, 0
1, 1107464, Note_on_c, 0, 83, 77
1, 1107474, Control_c, 0, 64, 46
1, 1107489, Control_c, 0, 64, 58
1, 1107501, Note_off_c, 0, 81, 59
1, 1107504, Control_c, 0, 64, 67
1, 1107519, Control_c, 0, 64, 77
1, 1107533, Control_c, 0, 64, 95
1, 1107548, Control_c, 0, 64, 127
1, 1107564, Note_on_c, 0, 80, 86
1, 1107589, Note_off_c, 0, 83, 62
1, 1107624, Note_off_c, 0, 80, 65
1, 1107660, Note_on_c, 0, 81, 89
1, 1107758, Note_on_c, 0, 83, 87
1, 1107769, Note_off_c, 0, 81, 65
1, 1107815, Note_off_c, 0, 83, 62
1, 1107849, Note_on_c, 0, 84, 89
1, 1107954, Note_on_c, 0, 85, 81
1, 1107961, Note_on_c, 0, 64, 85
1, 1107969, Note_off_c, 0, 61, 59
1, 1107970, Note_off_c, 0, 84, 55
1, 1107986, Control_c, 0, 64, 90
1, 1108001, Control_c, 0, 64, 68
1, 1108015, Control_c, 0, 64, 51
1, 1108030, Control_c, 0, 64, 0
1, 1108036, Note_off_c, 0, 85, 63
1, 1108045, Control_c, 0, 64, 38
1, 1108047, Note_on_c, 0, 86, 85
1, 1108060, Control_c, 0, 64, 53
1, 1108075, Control_c, 0, 64, 62
1, 1108090, Control_c, 0, 64, 71
1, 1108105, Control_c, 0, 64, 91
1, 1108118, Note_off_c, 0, 64, 61
1, 1108119, Control_c, 0, 64, 127
1, 1108132, Note_on_c, 0, 88, 83
1, 1108146, Note_off_c, 0, 86, 58
1, 1108223, Note_on_c, 0, 90, 80
1, 1108286, Note_off_c, 0, 88, 51
1, 1108309, Note_on_c, 0, 62, 61
1, 1108327, Note_on_c, 0, 92, 68
1, 1108376, Note_off_c, 0, 62, 58
1, 1108376, Note_off_c, 0, 90, 56
1, 1108400, Note_on_c, 0, 93, 68
1, 1108403, Note_on_c, 0, 61, 59
1, 1108417, Note_off_c, 0, 92, 65
1, 1108425, Note_off_c, 0, 61, 62
1, 1108425, Note_off_c, 0, 93, 69
1, 1108427, Note_off_c, 0, 57, 38
1, 1108498, Control_c, 0, 64, 109
1, 1108513, Control_c, 0, 64, 74
1, 1108528, Control_c, 0, 64, 55
1, 1108537, Note_on_c, 0, 59, 48
1, 1108543, Control_c, 0, 64, 39
1, 1108546, Note_on_c, 0, 50, 52
1, 1108558, Note_on_c, 0, 78, 63
1, 1108558, Control_c, 0, 64, 49
1, 1108573, Control_c, 0, 64, 59
1, 1108587, Control_c, 0, 64, 67
1, 1108602, Control_c, 0, 64, 78
1, 1108617, Control_c, 0, 64, 94
1, 1108618, Note_off_c, 0, 50, 60
1, 1108627, Note_off_c, 0, 59, 61
1, 1108627, Note_off_c, 0, 78, 60
1, 1108632, Control_c, 0, 64, 118
1, 1108646, Control_c, 0, 64, 127
1, 1108673, Note_on_c, 0, 71, 55
1, 1108755, Note_on_c, 0, 78, 59
1, 1108761, Note_off_c, 0, 71, 48
1, 1108832, Note_on_c, 0, 51, 50
1, 1108838, Control_c, 0, 64, 90
1, 1108841, Note_on_c, 0, 59, 47
1, 1108853, Control_c, 0, 64, 67
1, 1108856, Note_on_c, 0, 81, 58
1, 1108868, Control_c, 0, 64, 45
1, 1108876, Note_off_c, 0, 78, 42
1, 1108883, Control_c, 0, 64, 44
1, 1108898, Control_c, 0, 64, 54
1, 1108912, Control_c, 0, 64, 63
1, 1108927, Control_c, 0, 64, 71
1, 1108931, Note_off_c, 0, 81, 57
1, 1108939, Note_off_c, 0, 51, 57
1, 1108942, Control_c, 0, 64, 84
1, 1108948, Note_on_c, 0, 71, 62
1, 1108957, Control_c, 0, 64, 110
1, 1108966, Note_off_c, 0, 59, 59
1, 1108972, Control_c, 0, 64, 127
1, 1108999, Note_off_c, 0, 71, 58
1, 1109041, Note_on_c, 0, 81, 75
1, 1109135, Control_c, 0, 64, 98
1, 1109139, Note_on_c, 0, 59, 83
1, 1109142, Note_on_c, 0, 80, 77
1, 1109146, Note_on_c, 0, 52, 70
1, 1109150, Control_c, 0, 64, 67
1, 1109151, Note_off_c, 0, 81, 56
1, 1109166, Control_c, 0, 64, 39
1, 1109188, Control_c, 0, 64, 0
1, 1109217, Control_c, 0, 64, 46
1, 1109232, Control_c, 0, 64, 63
1, 1109233, Note_off_c, 0, 80, 61
1, 1109243, Note_on_c, 0, 71, 77
1, 1109247, Control_c, 0, 64, 74
1, 1109261, Control_c, 0, 64, 92
1, 1109276, Control_c, 0, 64, 108
1, 1109291, Control_c, 0, 64, 127
1, 1109334, Note_on_c, 0, 80, 84
1, 1109355, Note_off_c, 0, 71, 37
1, 1109401, Note_off_c, 0, 80, 62
1, 1109410, Control_c, 0, 64, 81
1, 1109415, Note_off_c, 0, 59, 51
1, 1109416, Note_on_c, 0, 62, 91
1, 1109425, Control_c, 0, 64, 63
1, 1109437, Note_on_c, 0, 83, 77
1, 1109440, Control_c, 0, 64, 45
1, 1109455, Control_c, 0, 64, 52
1, 1109469, Control_c, 0, 64, 61
1, 1109484, Control_c, 0, 64, 68
1, 1109499, Control_c, 0, 64, 81
1, 1109514, Control_c, 0, 64, 127
1, 1109515, Note_on_c, 0, 80, 83
1, 1109518, Note_off_c, 0, 83, 64
1, 1109546, Note_off_c, 0, 80, 59
1, 1109599, Note_on_c, 0, 88, 94
1, 1109628, Note_off_c, 0, 52, 39
1, 1109644, Note_on_c, 0, 61, 68
1, 1109647, Note_off_c, 0, 62, 61
1, 1109673, Note_off_c, 0, 61, 64
1, 1109714, Note_off_c, 0, 88, 58
1, 1109735, Control_c, 0, 64, 93
1, 1109738, Note_on_c, 0, 61, 75
1, 1109745, Note_on_c, 0, 85, 76
1, 1109750, Control_c, 0, 64, 66
1, 1109752, Note_on_c, 0, 53, 65
1, 1109764, Poly_aftertouch_c, 0, 87, 0
1, 1109765, Control_c, 0, 64, 44
1, 1109780, Control_c, 0, 64, 0
1, 1109827, Note_off_c, 0, 85, 65
1, 1109839, Control_c, 0, 64, 51
1, 1109847, Note_on_c, 0, 80, 78
1, 1109854, Control_c, 0, 64, 64
1, 1109869, Control_c, 0, 64, 76
1, 1109884, Control_c, 0, 64, 99
1, 1109899, Control_c, 0, 64, 127
1, 1109913, Note_off_c, 0, 80, 63
1, 1109947, Note_on_c, 0, 92, 78
1, 1110042, Note_on_c, 0, 89, 89
1, 1110055, Note_off_c, 0, 92, 64
1, 1110109, Note_off_c, 0, 53, 61
1, 1110132, Note_on_c, 0, 85, 88
1, 1110223, Note_on_c, 0, 97, 90
1, 1110235, Note_off_c, 0, 85, 64
1, 1110255, Note_off_c, 0, 89, 60
1, 1110307, Note_on_c, 0, 92, 84
1, 1110364, Note_off_c, 0, 97, 61
1, 1110405, Note_on_c, 0, 89, 88
1, 1110456, Note_off_c, 0, 92, 63
1, 1110482, Note_on_c, 0, 85, 81
1, 1110485, Note_off_c, 0, 89, 64
1, 1110504, Note_off_c, 0, 85, 69
1, 1110551, Note_off_c, 0, 61, 56
1, 1110576, Note_on_c, 0, 59, 58
1, 1110606, Note_on_c, 0, 73, 86
1, 1110618, Control_c, 0, 64, 78
1, 1110632, Control_c, 0, 64, 55
1, 1110647, Control_c, 0, 64, 0
1, 1110662, Control_c, 0, 64, 48
1, 1110684, Control_c, 0, 64, 63
1, 1110696, Note_off_c, 0, 73, 55
1, 1110699, Control_c, 0, 64, 74
1, 1110707, Note_on_c, 0, 85, 83
1, 1110714, Control_c, 0, 64, 92
1, 1110728, Control_c, 0, 64, 127
1, 1110789, Note_on_c, 0, 73, 91
1, 1110820, Note_on_c, 0, 61, 72
1, 1110831, Note_off_c, 0, 59, 60
1, 1110866, Note_off_c, 0, 73, 62
1, 1110883, Note_off_c, 0, 61, 59
1, 1110893, Control_c, 0, 64, 102
1, 1110898, Note_on_c, 0, 62, 89
1, 1110899, Note_on_c, 0, 54, 82
1, 1110907, Note_on_c, 0, 81, 83
1, 1110907, Control_c, 0, 64, 71
1, 1110922, Control_c, 0, 64, 49
1, 1110937, Control_c, 0, 64, 0
1, 1110952, Control_c, 0, 64, 46
1, 1110967, Control_c, 0, 64, 63
1, 1110981, Control_c, 0, 64, 77
1, 1110988, Note_off_c, 0, 85, 33
1, 1110996, Control_c, 0, 64, 108
1, 1111006, Note_on_c, 0, 78, 92
1, 1111011, Control_c, 0, 64, 127
1, 1111035, Note_off_c, 0, 81, 61
1, 1111046, Note_off_c, 0, 62, 53
1, 1111097, Note_on_c, 0, 86, 86
1, 1111104, Note_off_c, 0, 78, 65
1, 1111183, Note_off_c, 0, 54, 62
1, 1111187, Note_on_c, 0, 62, 96
1, 1111194, Note_on_c, 0, 81, 92
1, 1111233, Note_off_c, 0, 86, 55
1, 1111238, Note_off_c, 0, 62, 61
1, 1111270, Note_off_c, 0, 81, 52
1, 1111283, Note_on_c, 0, 78, 90
1, 1111338, Note_off_c, 0, 78, 65
1, 1111381, Note_on_c, 0, 90, 95
1, 1111449, Note_on_c, 0, 91, 23
1, 1111478, Control_c, 0, 64, 104
1, 1111488, Note_on_c, 0, 86, 87
1, 1111490, Note_on_c, 0, 54, 71
1, 1111491, Note_on_c, 0, 62, 89
1, 1111493, Control_c, 0, 64, 72
1, 1111503, Note_off_c, 0, 91, 45
1, 1111507, Control_c, 0, 64, 52
1, 1111522, Control_c, 0, 64, 0
1, 1111525, Note_off_c, 0, 90, 50
1, 1111553, Control_c, 0, 64, 51
1, 1111556, Note_off_c, 0, 54, 62
1, 1111568, Control_c, 0, 64, 62
1, 1111582, Control_c, 0, 64, 76
1, 1111597, Control_c, 0, 64, 101
1, 1111604, Note_on_c, 0, 81, 91
1, 1111612, Control_c, 0, 64, 127
1, 1111624, Note_off_c, 0, 86, 62
1, 1111646, Note_off_c, 0, 81, 65
1, 1111680, Note_on_c, 0, 93, 82
1, 1111700, Note_off_c, 0, 93, 72
1, 1111766, Note_off_c, 0, 62, 59
1, 1111780, Note_on_c, 0, 66, 83
1, 1111786, Note_on_c, 0, 78, 93
1, 1111795, Note_on_c, 0, 68, 81
1, 1111825, Note_off_c, 0, 68, 47
1, 1111863, Note_on_c, 0, 80, 88
1, 1111886, Note_off_c, 0, 78, 63
1, 1111948, Note_off_c, 0, 66, 55
1, 1111951, Note_on_c, 0, 81, 92
1, 1111986, Note_on_c, 0, 64, 78
1, 1111994, Note_off_c, 0, 80, 53
1, 1112015, Note_off_c, 0, 64, 63
1, 1112063, Note_on_c, 0, 83, 86
1, 1112083, Note_on_c, 0, 64, 84
1, 1112086, Control_c, 0, 64, 79
1, 1112089, Note_on_c, 0, 56, 75
1, 1112090, Note_off_c, 0, 81, 62
1, 1112101, Control_c, 0, 64, 55
1, 1112116, Control_c, 0, 64, 0
1, 1112160, Control_c, 0, 64, 42
1, 1112164, Note_on_c, 0, 76, 85
1, 1112168, Note_off_c, 0, 83, 59
1, 1112182, Control_c, 0, 64, 62
1, 1112197, Control_c, 0, 64, 77
1, 1112212, Control_c, 0, 64, 116
1, 1112227, Note_off_c, 0, 76, 65
1, 1112227, Control_c, 0, 64, 127
1, 1112268, Note_on_c, 0, 88, 90
1, 1112333, Note_off_c, 0, 56, 58
1, 1112357, Note_off_c, 0, 64, 58
1, 1112363, Note_on_c, 0, 83, 84
1, 1112370, Note_off_c, 0, 88, 62
1, 1112421, Note_off_c, 0, 83, 61
1, 1112450, Note_on_c, 0, 80, 85
1, 1112505, Note_off_c, 0, 80, 61
1, 1112550, Note_on_c, 0, 92, 84
1, 1112644, Note_on_c, 0, 88, 83
1, 1112653, Note_off_c, 0, 92, 63
1, 1112729, Note_on_c, 0, 83, 87
1, 1112737, Note_off_c, 0, 88, 64
1, 1112776, Note_off_c, 0, 83, 64
1, 1112810, Note_on_c, 0, 95, 94
1, 1112867, Note_on_c, 0, 94, 42
1, 1112917, Note_on_c, 0, 92, 82
1, 1112919, Note_off_c, 0, 94, 0
1, 1112919, Note_on_c, 0, 94, 13
1, 1112940, Note_off_c, 0, 95, 57
1, 1112965, Note_off_c, 0, 94, 56
1, 1113013, Note_on_c, 0, 88, 86
1, 1113037, Note_off_c, 0, 92, 65
1, 1113056, Note_off_c, 0, 88, 65
1, 1113087, Note_on_c, 0, 100, 86
1, 1113103, Note_off_c, 0, 100, 74
1, 1113181, Note_on_c, 0, 50, 48
1, 1113195, Note_on_c, 0, 59, 49
1, 1113206, Note_on_c, 0, 56, 42
1, 1113207, Note_on_c, 0, 52, 43
1, 1113213, Control_c, 0, 64, 76
1, 1113227, Control_c, 0, 64, 55
1, 1113242, Control_c, 0, 64, 43
1, 1113253, Note_on_c, 0, 76, 73
1, 1113257, Control_c, 0, 64, 55
1, 1113272, Control_c, 0, 64, 64
1, 1113287, Control_c, 0, 64, 73
1, 1113301, Control_c, 0, 64, 90
1, 1113311, Note_off_c, 0, 76, 49
1, 1113316, Control_c, 0, 64, 127
1, 1113321, Note_off_c, 0, 59, 54
1, 1113340, Note_on_c, 0, 64, 73
1, 1113349, Note_off_c, 0, 56, 58
1, 1113363, Note_off_c, 0, 50, 35
1, 1113373, Note_off_c, 0, 64, 57
1, 1113387, Note_off_c, 0, 52, 32
1, 1113420, Note_on_c, 0, 76, 81
1, 1113444, Note_off_c, 0, 76, 68
1, 1113507, Note_on_c, 0, 59, 76
1, 1113508, Note_on_c, 0, 50, 66
1, 1113512, Note_on_c, 0, 56, 70
1, 1113527, Note_on_c, 0, 80, 89
1, 1113528, Note_on_c, 0, 52, 57
1, 1113568, Note_off_c, 0, 59, 60
1, 1113589, Note_off_c, 0, 50, 58
1, 1113599, Note_off_c, 0, 56, 58
1, 1113607, Note_on_c, 0, 68, 83
1, 1113610, Poly_aftertouch_c, 0, 78, 127
1, 1113617, Note_off_c, 0, 80, 60
1, 1113619, Note_off_c, 0, 52, 51
1, 1113643, Poly_aftertouch_c, 0, 78, 0
1, 1113680, Note_off_c, 0, 68, 62
1, 1113700, Note_on_c, 0, 80, 84
1, 1113743, Note_off_c, 0, 80, 63
1, 1113790, Note_on_c, 0, 50, 70
1, 1113792, Note_on_c, 0, 59, 77
1, 1113801, Note_on_c, 0, 83, 98
1, 1113802, Note_on_c, 0, 56, 73
1, 1113813, Note_on_c, 0, 52, 54
1, 1113853, Note_off_c, 0, 59, 61
1, 1113872, Note_off_c, 0, 50, 60
1, 1113882, Note_off_c, 0, 56, 60
1, 1113885, Note_off_c, 0, 52, 58
1, 1113889, Note_off_c, 0, 83, 58
1, 1113896, Note_on_c, 0, 71, 83
1, 1113919, Note_on_c, 0, 78, 30
1, 1113919, Note_off_c, 0, 78, 127
1, 1113954, Note_off_c, 0, 71, 63
1, 1113978, Note_on_c, 0, 83, 86
1, 1114007, Note_off_c, 0, 83, 62
1, 1114060, Note_on_c, 0, 59, 69
1, 1114060, Note_on_c, 0, 50, 58
1, 1114073, Note_on_c, 0, 56, 64
1, 1114078, Note_on_c, 0, 86, 97
1, 1114080, Note_on_c, 0, 52, 62
1, 1114097, Note_off_c, 0, 50, 62
1, 1114108, Note_off_c, 0, 59, 60
1, 1114111, Note_on_c, 0, 88, 50
1, 1114111, Note_off_c, 0, 88, 127
1, 1114139, Note_off_c, 0, 56, 61
1, 1114141, Note_off_c, 0, 52, 57
1, 1114175, Note_off_c, 0, 86, 57
1, 1114189, Note_on_c, 0, 76, 75
1, 1114229, Note_off_c, 0, 76, 60
1, 1114259, Note_on_c, 0, 88, 88
1, 1114350, Note_on_c, 0, 57, 66
1, 1114350, Note_off_c, 0, 88, 60
1, 1114353, Note_on_c, 0, 49, 62
1, 1114353, Note_on_c, 0, 61, 75
1, 1114354, Note_on_c, 0, 52, 46
1, 1114361, Control_c, 0, 64, 102
1, 1114372, Note_on_c, 0, 76, 81
1, 1114376, Control_c, 0, 64, 72
1, 1114391, Control_c, 0, 64, 52
1, 1114406, Control_c, 0, 64, 0
1, 1114460, Note_off_c, 0, 76, 61
1, 1114472, Control_c, 0, 64, 47
1, 1114477, Note_on_c, 0, 88, 91
1, 1114487, Control_c, 0, 64, 62
1, 1114494, Note_off_c, 0, 49, 62
1, 1114502, Control_c, 0, 64, 76
1, 1114517, Control_c, 0, 64, 108
1, 1114531, Control_c, 0, 64, 127
1, 1114567, Note_on_c, 0, 85, 83
1, 1114567, Note_off_c, 0, 52, 46
1, 1114599, Note_off_c, 0, 57, 62
1, 1114603, Note_off_c, 0, 61, 60
1, 1114627, Note_off_c, 0, 88, 52
1, 1114657, Note_on_c, 0, 81, 78
1, 1114694, Note_off_c, 0, 85, 62
1, 1114704, Note_off_c, 0, 81, 63
1, 1114731, Note_on_c, 0, 76, 77
1, 1114827, Note_off_c, 0, 76, 58
1, 1114829, Note_on_c, 0, 72, 69
1, 1114903, Control_c, 0, 64, 86
1, 1114914, Note_on_c, 0, 73, 66
1, 1114917, Note_off_c, 0, 72, 54
1, 1114918, Control_c, 0, 64, 64
1, 1114932, Control_c, 0, 64, 0
1, 1114968, Note_on_c, 0, 61, 36
1, 1114970, Note_on_c, 0, 69, 42
1, 1115008, Note_on_c, 0, 75, 71
1, 1115036, Note_off_c, 0, 73, 63
1, 1115036, Control_c, 0, 64, 57
1, 1115043, Note_off_c, 0, 75, 63
1, 1115051, Control_c, 0, 64, 70
1, 1115066, Control_c, 0, 64, 81
1, 1115080, Control_c, 0, 64, 98
1, 1115095, Control_c, 0, 64, 125
1, 1115097, Note_on_c, 0, 76, 77
1, 1115110, Control_c, 0, 64, 127
1, 1115187, Note_off_c, 0, 69, 33
1, 1115200, Note_on_c, 0, 78, 80
1, 1115217, Note_on_c, 0, 66, 64
1, 1115225, Note_off_c, 0, 76, 60
1, 1115227, Note_on_c, 0, 57, 59
1, 1115234, Note_off_c, 0, 61, 36
1, 1115236, Note_off_c, 0, 66, 62
1, 1115250, Note_off_c, 0, 57, 60
1, 1115289, Note_on_c, 0, 80, 81
1, 1115334, Note_off_c, 0, 78, 57
1, 1115389, Note_on_c, 0, 47, 36
1, 1115391, Note_on_c, 0, 81, 84
1, 1115424, Note_off_c, 0, 47, 46
1, 1115448, Note_on_c, 0, 56, 72
1, 1115459, Control_c, 0, 64, 83
1, 1115473, Control_c, 0, 64, 64
1, 1115488, Control_c, 0, 64, 48
1, 1115491, Note_off_c, 0, 80, 58
1, 1115494, Note_on_c, 0, 83, 94
1, 1115503, Control_c, 0, 64, 54
1, 1115509, Note_off_c, 0, 56, 57
1, 1115510, Note_on_c, 0, 64, 83
1, 1115513, Note_off_c, 0, 81, 56
1, 1115518, Control_c, 0, 64, 62
1, 1115528, Note_off_c, 0, 64, 72
1, 1115533, Control_c, 0, 64, 72
1, 1115548, Control_c, 0, 64, 88
1, 1115563, Control_c, 0, 64, 127
1, 1115596, Note_on_c, 0, 80, 86
1, 1115664, Note_off_c, 0, 83, 58
1, 1115702, Note_on_c, 0, 76, 72
1, 1115734, Note_off_c, 0, 80, 60
1, 1115753, Note_off_c, 0, 76, 61
1, 1115789, Note_on_c, 0, 71, 67
1, 1115877, Note_on_c, 0, 56, 48
1, 1115879, Note_off_c, 0, 71, 55
1, 1115883, Note_on_c, 0, 68, 68
1, 1115894, Note_on_c, 0, 64, 43
1, 1115930, Note_off_c, 0, 64, 53
1, 1115932, Note_off_c, 0, 56, 53
1, 1115938, Note_off_c, 0, 68, 59
1, 1115981, Note_on_c, 0, 71, 53
1, 1116001, Control_c, 0, 64, 91
1, 1116016, Control_c, 0, 64, 71
1, 1116030, Control_c, 0, 64, 55
1, 1116045, Control_c, 0, 64, 0
1, 1116049, Note_off_c, 0, 71, 58
1, 1116076, Note_on_c, 0, 59, 41
1, 1116078, Note_on_c, 0, 68, 52
1, 1116104, Control_c, 0, 64, 36
1, 1116110, Note_on_c, 0, 64, 36
1, 1116112, Note_on_c, 0, 80, 56
1, 1116119, Control_c, 0, 64, 53
1, 1116123, Note_off_c, 0, 59, 59
1, 1116134, Control_c, 0, 64, 67
1, 1116148, Control_c, 0, 64, 76
1, 1116162, Note_off_c, 0, 68, 61
1, 1116163, Control_c, 0, 64, 88
1, 1116178, Control_c, 0, 64, 100
1, 1116183, Note_on_c, 0, 71, 52
1, 1116193, Control_c, 0, 64, 116
1, 1116208, Control_c, 0, 64, 127
1, 1116257, Note_off_c, 0, 80, 51
1, 1116271, Note_off_c, 0, 71, 52
1, 1116284, Note_on_c, 0, 76, 54
1, 1116341, Note_off_c, 0, 64, 35
1, 1116341, Control_c, 0, 64, 98
1, 1116357, Control_c, 0, 64, 76
1, 1116371, Note_on_c, 0, 66, 49
1, 1116371, Control_c, 0, 64, 66
1, 1116377, Note_on_c, 0, 63, 44
1, 1116377, Note_on_c, 0, 59, 32
1, 1116386, Control_c, 0, 64, 64
1, 1116395, Note_off_c, 0, 76, 56
1, 1116397, Note_on_c, 0, 78, 55
1, 1116401, Control_c, 0, 64, 66
1, 1116409, Note_off_c, 0, 66, 62
1, 1116412, Note_off_c, 0, 59, 63
1, 1116416, Control_c, 0, 64, 70
1, 1116421, Note_off_c, 0, 63, 63
1, 1116431, Control_c, 0, 64, 77
1, 1116445, Control_c, 0, 64, 89
1, 1116460, Control_c, 0, 64, 108
1, 1116475, Control_c, 0, 64, 127
1, 1116480, Note_on_c, 0, 71, 49
1, 1116514, Note_off_c, 0, 71, 59
1, 1116549, Note_off_c, 0, 78, 32
1, 1116575, Note_on_c, 0, 75, 52
1, 1116639, Control_c, 0, 64, 102
1, 1116653, Control_c, 0, 64, 75
1, 1116675, Control_c, 0, 64, 56
1, 1116686, Note_on_c, 0, 50, 37
1, 1116687, Note_on_c, 0, 59, 30
1, 1116690, Note_on_c, 0, 56, 40
1, 1116690, Control_c, 0, 64, 0
1, 1116696, Note_on_c, 0, 52, 37
1, 1116710, Note_on_c, 0, 64, 40
1, 1116734, Control_c, 0, 64, 51
1, 1116738, Note_off_c, 0, 64, 49
1, 1116740, Note_off_c, 0, 75, 38
1, 1116749, Control_c, 0, 64, 63
1, 1116764, Control_c, 0, 64, 73
1, 1116777, Note_off_c, 0, 59, 57
1, 1116779, Control_c, 0, 64, 85
1, 1116794, Control_c, 0, 64, 102
1, 1116797, Note_off_c, 0, 52, 53
1, 1116805, Note_off_c, 0, 56, 58
1, 1116807, Note_off_c, 0, 50, 37
1, 1116809, Control_c, 0, 64, 127
1, 1116812, Note_on_c, 0, 78, 63
1, 1116891, Note_on_c, 0, 76, 74
1, 1116920, Note_off_c, 0, 78, 37
1, 1116957, Control_c, 0, 64, 77
1, 1116967, Note_off_c, 0, 76, 61
1, 1116970, Note_on_c, 0, 59, 72
1, 1116971, Control_c, 0, 64, 53
1, 1116972, Note_on_c, 0, 56, 58
1, 1116976, Note_on_c, 0, 50, 53
1, 1116982, Note_on_c, 0, 68, 80
1, 1116986, Note_on_c, 0, 52, 48
1, 1116986, Control_c, 0, 64, 0
1, 1117031, Control_c, 0, 64, 48
1, 1117035, Note_off_c, 0, 68, 64
1, 1117045, Control_c, 0, 64, 65
1, 1117060, Note_off_c, 0, 59, 59
1, 1117060, Control_c, 0, 64, 79
1, 1117071, Note_on_c, 0, 81, 87
1, 1117075, Control_c, 0, 64, 114
1, 1117087, Note_off_c, 0, 50, 54
1, 1117090, Control_c, 0, 64, 127
1, 1117101, Note_off_c, 0, 56, 60
1, 1117107, Note_off_c, 0, 52, 51
1, 1117155, Note_on_c, 0, 80, 86
1, 1117181, Note_off_c, 0, 81, 63
1, 1117255, Note_on_c, 0, 71, 85
1, 1117255, Control_c, 0, 64, 82
1, 1117269, Control_c, 0, 64, 60
1, 1117270, Note_on_c, 0, 59, 89
1, 1117270, Note_off_c, 0, 80, 61
1, 1117276, Note_on_c, 0, 56, 79
1, 1117280, Note_on_c, 0, 50, 70
1, 1117284, Control_c, 0, 64, 0
1, 1117285, Note_on_c, 0, 52, 67
1, 1117296, Note_off_c, 0, 71, 65
1, 1117314, Control_c, 0, 64, 49
1, 1117328, Control_c, 0, 64, 68
1, 1117343, Control_c, 0, 64, 88
1, 1117355, Note_on_c, 0, 85, 86
1, 1117358, Note_off_c, 0, 50, 58
1, 1117358, Note_off_c, 0, 59, 60
1, 1117358, Control_c, 0, 64, 127
1, 1117390, Note_off_c, 0, 56, 58
1, 1117397, Note_off_c, 0, 52, 50
1, 1117447, Note_on_c, 0, 83, 88
1, 1117484, Note_off_c, 0, 85, 61
1, 1117528, Control_c, 0, 64, 75
1, 1117543, Note_on_c, 0, 59, 88
1, 1117543, Control_c, 0, 64, 56
1, 1117544, Note_on_c, 0, 76, 87
1, 1117547, Note_on_c, 0, 50, 68
1, 1117549, Note_on_c, 0, 56, 79
1, 1117551, Note_on_c, 0, 52, 57
1, 1117558, Control_c, 0, 64, 50
1, 1117560, Note_off_c, 0, 83, 60
1, 1117573, Control_c, 0, 64, 62
1, 1117581, Note_off_c, 0, 76, 67
1, 1117588, Control_c, 0, 64, 71
1, 1117596, Note_off_c, 0, 50, 58
1, 1117602, Control_c, 0, 64, 95
1, 1117617, Control_c, 0, 64, 127
1, 1117620, Note_off_c, 0, 59, 62
1, 1117635, Note_on_c, 0, 90, 88
1, 1117638, Note_off_c, 0, 56, 63
1, 1117642, Note_off_c, 0, 52, 61
1, 1117726, Note_on_c, 0, 88, 94
1, 1117765, Note_off_c, 0, 90, 60
1, 1117790, Note_off_c, 0, 88, 63
1, 1117848, Note_on_c, 0, 52, 50
1, 1117849, Note_on_c, 0, 57, 58
1, 1117852, Note_on_c, 0, 61, 68
1, 1117855, Note_on_c, 0, 49, 57
1, 1117861, Note_on_c, 0, 76, 91
1, 1117899, Control_c, 0, 64, 83
1, 1117914, Control_c, 0, 64, 61
1, 1117928, Control_c, 0, 64, 0
1, 1117959, Note_on_c, 0, 88, 92
1, 1117967, Note_off_c, 0, 76, 54
1, 1117989, Control_c, 0, 64, 53
1, 1118004, Control_c, 0, 64, 69
1, 1118018, Control_c, 0, 64, 97
1, 1118033, Control_c, 0, 64, 127
1, 1118048, Note_on_c, 0, 85, 84
1, 1118050, Note_off_c, 0, 61, 62
1, 1118064, Note_off_c, 0, 49, 59
1, 1118070, Note_on_c, 0, 53, 28
1, 1118081, Note_off_c, 0, 57, 62
1, 1118103, Note_off_c, 0, 52, 61
1, 1118106, Note_off_c, 0, 53, 49
1, 1118127, Note_off_c, 0, 88, 61
1, 1118132, Note_on_c, 0, 81, 87
1, 1118178, Note_off_c, 0, 85, 61
1, 1118190, Note_off_c, 0, 81, 62
1, 1118219, Note_on_c, 0, 76, 80
1, 1118317, Note_on_c, 0, 72, 75
1, 1118330, Note_off_c, 0, 76, 57
1, 1118406, Note_on_c, 0, 73, 76
1, 1118415, Note_on_c, 0, 54, 56
1, 1118421, Note_on_c, 0, 49, 54
1, 1118423, Note_on_c, 0, 57, 52
1, 1118428, Note_on_c, 0, 45, 43
1, 1118433, Note_off_c, 0, 72, 57
1, 1118440, Control_c, 0, 64, 78
1, 1118455, Control_c, 0, 64, 54
1, 1118469, Control_c, 0, 64, 0
1, 1118502, Note_on_c, 0, 75, 74
1, 1118514, Note_off_c, 0, 45, 57
1, 1118514, Control_c, 0, 64, 52
1, 1118525, Note_off_c, 0, 73, 63
1, 1118529, Control_c, 0, 64, 69
1, 1118538, Note_off_c, 0, 75, 61
1, 1118544, Control_c, 0, 64, 85
1, 1118559, Control_c, 0, 64, 127
1, 1118563, Note_off_c, 0, 57, 59
1, 1118588, Note_on_c, 0, 76, 88
1, 1118646, Note_off_c, 0, 54, 61
1, 1118680, Note_on_c, 0, 78, 88
1, 1118694, Note_off_c, 0, 76, 62
1, 1118743, Note_off_c, 0, 49, 35
1, 1118768, Note_on_c, 0, 80, 84
1, 1118800, Note_off_c, 0, 78, 63
1, 1118853, Note_on_c, 0, 81, 87
1, 1118952, Control_c, 0, 64, 111
1, 1118963, Note_on_c, 0, 52, 59
1, 1118967, Control_c, 0, 64, 75
1, 1118967, Note_on_c, 0, 56, 62
1, 1118976, Note_on_c, 0, 47, 47
1, 1118976, Note_off_c, 0, 80, 37
1, 1118980, Note_on_c, 0, 44, 51
1, 1118980, Note_on_c, 0, 71, 81
1, 1118982, Control_c, 0, 64, 52
1, 1118993, Note_off_c, 0, 81, 53
1, 1118997, Control_c, 0, 64, 0
1, 1119056, Control_c, 0, 64, 36
1, 1119071, Control_c, 0, 64, 60
1, 1119073, Note_off_c, 0, 44, 63
1, 1119075, Note_on_c, 0, 83, 85
1, 1119081, Note_off_c, 0, 71, 61
1, 1119086, Control_c, 0, 64, 73
1, 1119100, Control_c, 0, 64, 93
1, 1119113, Note_off_c, 0, 47, 62
1, 1119115, Control_c, 0, 64, 127
1, 1119156, Note_on_c, 0, 80, 83
1, 1119160, Note_off_c, 0, 52, 61
1, 1119176, Note_off_c, 0, 56, 59
1, 1119232, Note_off_c, 0, 83, 40
1, 1119247, Note_on_c, 0, 76, 82
1, 1119283, Note_off_c, 0, 80, 61
1, 1119295, Note_off_c, 0, 76, 63
1, 1119322, Note_on_c, 0, 71, 79
1, 1119420, Note_on_c, 0, 68, 81
1, 1119431, Note_off_c, 0, 71, 55
1, 1119441, Control_c, 0, 64, 84
1, 1119456, Control_c, 0, 64, 62
1, 1119471, Control_c, 0, 64, 0
1, 1119500, Note_on_c, 0, 70, 82
1, 1119500, Control_c, 0, 64, 50
1, 1119507, Note_on_c, 0, 61, 83
1, 1119507, Note_off_c, 0, 68, 64
1, 1119509, Note_on_c, 0, 58, 74
1, 1119515, Control_c, 0, 64, 66
1, 1119520, Note_on_c, 0, 54, 66
1, 1119521, Note_off_c, 0, 70, 71
1, 1119527, Note_on_c, 0, 52, 61
1, 1119530, Control_c, 0, 64, 80
1, 1119545, Note_on_c, 0, 49, 37
1, 1119545, Control_c, 0, 64, 127
1, 1119550, Note_off_c, 0, 61, 59
1, 1119567, Note_off_c, 0, 52, 63
1, 1119574, Note_off_c, 0, 58, 62
1, 1119581, Note_off_c, 0, 54, 60
1, 1119582, Note_off_c, 0, 49, 53
1, 1119621, Note_on_c, 0, 88, 95
1, 1119712, Note_on_c, 0, 85, 83
1, 1119757, Note_off_c, 0, 88, 59
1, 1119807, Note_on_c, 0, 82, 90
1, 1119857, Note_off_c, 0, 85, 59
1, 1119892, Note_on_c, 0, 78, 86
1, 1119903, Note_off_c, 0, 82, 62
1, 1119983, Note_on_c, 0, 82, 83
1, 1120005, Note_off_c, 0, 78, 52
1, 1120079, Note_on_c, 0, 51, 43
1, 1120081, Note_on_c, 0, 54, 46
1, 1120084, Note_on_c, 0, 47, 55
1, 1120088, Note_on_c, 0, 59, 35
1, 1120093, Note_off_c, 0, 82, 58
1, 1120146, Control_c, 0, 64, 78
1, 1120149, Note_on_c, 0, 83, 100
1, 1120161, Control_c, 0, 64, 58
1, 1120176, Control_c, 0, 64, 0
1, 1120182, Note_off_c, 0, 47, 63
1, 1120199, Note_off_c, 0, 59, 61
1, 1120205, Control_c, 0, 64, 47
1, 1120220, Control_c, 0, 64, 62
1, 1120225, Note_off_c, 0, 51, 62
1, 1120235, Control_c, 0, 64, 75
1, 1120249, Control_c, 0, 64, 102
1, 1120252, Note_off_c, 0, 54, 64
1, 1120264, Control_c, 0, 64, 127
1, 1120279, Note_off_c, 0, 83, 38
1, 1120472, Note_on_c, 0, 82, 94
1, 1120478, Note_on_c, 0, 78, 83
1, 1120480, Note_on_c, 0, 76, 87
1, 1120480, Control_c, 0, 64, 94
1, 1120495, Control_c, 0, 64, 65
1, 1120506, Note_on_c, 0, 61, 60
1, 1120508, Poly_aftertouch_c, 0, 51, 127
1, 1120510, Control_c, 0, 64, 40
1, 1120525, Control_c, 0, 64, 45
1, 1120540, Control_c, 0, 64, 58
1, 1120545, Note_off_c, 0, 76, 63
1, 1120550, Poly_aftertouch_c, 0, 51, 0
1, 1120554, Control_c, 0, 64, 68
1, 1120562, Note_off_c, 0, 61, 53
1, 1120569, Control_c, 0, 64, 84
1, 1120577, Note_on_c, 0, 54, 65
1, 1120577, Note_off_c, 0, 78, 63
1, 1120584, Control_c, 0, 64, 127
1, 1120658, Note_off_c, 0, 54, 58
1, 1120689, Note_on_c, 0, 47, 58
1, 1120776, Control_c, 0, 64, 89
1, 1120791, Control_c, 0, 64, 66
1, 1120797, Note_off_c, 0, 82, 55
1, 1120806, Control_c, 0, 64, 41
1, 1120808, Note_on_c, 0, 83, 81
1, 1120821, Control_c, 0, 64, 35
1, 1120824, Note_on_c, 0, 76, 67
1, 1120830, Note_on_c, 0, 78, 55
1, 1120836, Control_c, 0, 64, 51
1, 1120838, Note_on_c, 0, 59, 38
1, 1120840, Note_off_c, 0, 47, 37
1, 1120851, Control_c, 0, 64, 62
1, 1120865, Control_c, 0, 64, 69
1, 1120880, Control_c, 0, 64, 79
1, 1120895, Control_c, 0, 64, 91
1, 1120902, Note_off_c, 0, 59, 54
1, 1120906, Note_off_c, 0, 83, 61
1, 1120910, Control_c, 0, 64, 103
1, 1120923, Note_on_c, 0, 54, 52
1, 1120925, Control_c, 0, 64, 117
1, 1120939, Control_c, 0, 64, 127
1, 1120949, Note_off_c, 0, 78, 59
1, 1120957, Note_off_c, 0, 76, 35
1, 1120997, Note_off_c, 0, 54, 46
1, 1121013, Note_on_c, 0, 47, 28
1, 1121058, Control_c, 0, 64, 108
1, 1121072, Control_c, 0, 64, 77
1, 1121087, Control_c, 0, 64, 60
1, 1121102, Control_c, 0, 64, 43
1, 1121116, Control_c, 0, 64, 51
1, 1121118, Note_on_c, 0, 85, 65
1, 1121122, Note_off_c, 0, 47, 44
1, 1121129, Note_on_c, 0, 76, 55
1, 1121131, Control_c, 0, 64, 59
1, 1121147, Control_c, 0, 64, 65
1, 1121152, Note_on_c, 0, 78, 23
1, 1121153, Note_on_c, 0, 58, 38
1, 1121169, Control_c, 0, 64, 74
1, 1121184, Control_c, 0, 64, 90
1, 1121193, Note_off_c, 0, 85, 61
1, 1121199, Control_c, 0, 64, 115
1, 1121211, Note_off_c, 0, 76, 60
1, 1121214, Control_c, 0, 64, 127
1, 1121224, Note_off_c, 0, 58, 57
1, 1121247, Note_on_c, 0, 54, 45
1, 1121256, Note_off_c, 0, 78, 32
1, 1121292, Note_off_c, 0, 54, 53
1, 1121333, Note_on_c, 0, 47, 50
1, 1121376, Control_c, 0, 64, 84
1, 1121387, Note_off_c, 0, 47, 50
1, 1121391, Control_c, 0, 64, 65
1, 1121406, Control_c, 0, 64, 55
1, 1121421, Control_c, 0, 64, 59
1, 1121424, Note_on_c, 0, 83, 70
1, 1121436, Control_c, 0, 64, 64
1, 1121441, Note_on_c, 0, 75, 53
1, 1121450, Control_c, 0, 64, 72
1, 1121455, Note_off_c, 0, 83, 63
1, 1121463, Note_on_c, 0, 59, 41
1, 1121465, Control_c, 0, 64, 85
1, 1121480, Control_c, 0, 64, 109
1, 1121486, Note_off_c, 0, 75, 62
1, 1121495, Control_c, 0, 64, 127
1, 1121504, Note_off_c, 0, 59, 59
1, 1121510, Control_c, 0, 67, 22
1, 1121525, Control_c, 0, 67, 27
1, 1121529, Poly_aftertouch_c, 0, 78, 0
1, 1121540, Note_on_c, 0, 54, 44
1, 1121540, Control_c, 0, 67, 31
1, 1121554, Control_c, 0, 67, 37
1, 1121569, Control_c, 0, 67, 45
1, 1121584, Control_c, 0, 67, 55
1, 1121599, Control_c, 0, 67, 64
1, 1121609, Note_off_c, 0, 54, 57
1, 1121613, Control_c, 0, 67, 74
1, 1121616, Note_on_c, 0, 47, 48
1, 1121628, Control_c, 0, 67, 82
1, 1121643, Control_c, 0, 67, 89
1, 1121644, Note_off_c, 0, 47, 57
1, 1121658, Control_c, 0, 67, 97
1, 1121673, Control_c, 0, 67, 105
1, 1121687, Control_c, 0, 64, 108
1, 1121687, Control_c, 0, 67, 113
1, 1121702, Control_c, 0, 64, 77
1, 1121702, Control_c, 0, 67, 121
1, 1121717, Control_c, 0, 64, 55
1, 1121717, Control_c, 0, 67, 127
1, 1121732, Control_c, 0, 64, 34
1, 1121738, Note_on_c, 0, 73, 71
1, 1121747, Control_c, 0, 64, 42
1, 1121748, Note_on_c, 0, 54, 45
1, 1121754, Note_on_c, 0, 52, 34
1, 1121760, Note_on_c, 0, 46, 32
1, 1121761, Control_c, 0, 64, 55
1, 1121776, Control_c, 0, 64, 63
1, 1121791, Control_c, 0, 64, 71
1, 1121796, Note_off_c, 0, 54, 61
1, 1121798, Note_off_c, 0, 46, 55
1, 1121805, Control_c, 0, 64, 81
1, 1121809, Note_off_c, 0, 52, 55
1, 1121820, Control_c, 0, 64, 94
1, 1121835, Control_c, 0, 64, 101
1, 1121837, Note_on_c, 0, 66, 53
1, 1121850, Control_c, 0, 64, 110
1, 1121865, Control_c, 0, 64, 125
1, 1121879, Control_c, 0, 64, 127
1, 1121900, Note_off_c, 0, 73, 38
1, 1121957, Note_on_c, 0, 64, 38
1, 1122007, Control_c, 0, 64, 107
1, 1122008, Note_off_c, 0, 66, 35
1, 1122021, Note_off_c, 0, 64, 40
1, 1122022, Control_c, 0, 64, 77
1, 1122037, Control_c, 0, 64, 60
1, 1122047, Note_on_c, 0, 47, 41
1, 1122048, Note_on_c, 0, 71, 58
1, 1122049, Note_on_c, 0, 54, 44
1, 1122051, Control_c, 0, 64, 33
1, 1122066, Control_c, 0, 64, 0
1, 1122077, Note_on_c, 0, 52, 23
1, 1122081, Control_c, 0, 64, 39
1, 1122093, Note_off_c, 0, 47, 62
1, 1122096, Control_c, 0, 64, 52
1, 1122106, Note_off_c, 0, 54, 59
1, 1122111, Control_c, 0, 64, 63
1, 1122122, Note_off_c, 0, 52, 48
1, 1122125, Control_c, 0, 64, 70
1, 1122128, Note_off_c, 0, 71, 54
1, 1122130, Note_on_c, 0, 66, 52
1, 1122140, Control_c, 0, 64, 79
1, 1122155, Control_c, 0, 64, 87
1, 1122170, Control_c, 0, 64, 91
1, 1122185, Control_c, 0, 64, 94
1, 1122199, Control_c, 0, 64, 97
1, 1122214, Control_c, 0, 64, 104
1, 1122229, Control_c, 0, 64, 116
1, 1122239, Note_on_c, 0, 64, 45
1, 1122243, Control_c, 0, 64, 127
1, 1122303, Control_c, 0, 64, 95
1, 1122318, Control_c, 0, 64, 72
1, 1122326, Note_off_c, 0, 64, 53
1, 1122328, Note_off_c, 0, 66, 23
1, 1122332, Control_c, 0, 64, 57
1, 1122332, Control_c, 0, 67, 123
1, 1122338, Note_on_c, 0, 54, 41
1, 1122346, Note_on_c, 0, 49, 43
1, 1122346, Note_on_c, 0, 70, 57
1, 1122347, Control_c, 0, 64, 43
1, 1122347, Control_c, 0, 67, 102
1, 1122353, Note_on_c, 0, 52, 33
1, 1122362, Control_c, 0, 64, 48
1, 1122362, Control_c, 0, 67, 68
1, 1122377, Control_c, 0, 64, 56
1, 1122377, Control_c, 0, 67, 29
1, 1122392, Control_c, 0, 64, 64
1, 1122392, Control_c, 0, 67, 0
1, 1122398, Note_off_c, 0, 54, 58
1, 1122407, Control_c, 0, 64, 73
1, 1122414, Note_off_c, 0, 49, 56
1, 1122418, Note_off_c, 0, 52, 53
1, 1122422, Control_c, 0, 64, 85
1, 1122431, Note_on_c, 0, 66, 68
1, 1122436, Control_c, 0, 64, 100
1, 1122437, Note_off_c, 0, 70, 57
1, 1122451, Control_c, 0, 64, 127
1, 1122540, Note_on_c, 0, 64, 49
1, 1122594, Note_off_c, 0, 64, 56
1, 1122599, Control_c, 0, 64, 88
1, 1122607, Note_off_c, 0, 66, 29
1, 1122615, Control_c, 0, 64, 64
1, 1122630, Control_c, 0, 64, 41
1, 1122634, Note_on_c, 0, 71, 73
1, 1122640, Note_on_c, 0, 54, 55
1, 1122642, Note_on_c, 0, 47, 42
1, 1122644, Control_c, 0, 64, 33
1, 1122652, Note_on_c, 0, 51, 48
1, 1122666, Control_c, 0, 64, 44
1, 1122681, Control_c, 0, 64, 58
1, 1122696, Control_c, 0, 64, 66
1, 1122705, Note_off_c, 0, 47, 60
1, 1122711, Control_c, 0, 64, 77
1, 1122726, Control_c, 0, 64, 90
1, 1122728, Note_off_c, 0, 54, 62
1, 1122738, Note_on_c, 0, 66, 73
1, 1122740, Note_off_c, 0, 71, 62
1, 1122741, Control_c, 0, 64, 111
1, 1122756, Control_c, 0, 64, 127
1, 1122775, Note_off_c, 0, 51, 53
1, 1122805, Note_on_c, 0, 63, 70
1, 1122806, Note_off_c, 0, 66, 62
1, 1122831, Note_off_c, 0, 63, 67
1, 1122918, Poly_aftertouch_c, 0, 47, 127
1, 1122920, Control_c, 0, 64, 95
1, 1122935, Control_c, 0, 64, 68
1, 1122935, Note_on_c, 0, 58, 67
1, 1122945, Note_on_c, 0, 85, 100
1, 1122949, Note_on_c, 0, 76, 87
1, 1122949, Control_c, 0, 64, 48
1, 1122964, Control_c, 0, 64, 38
1, 1122967, Note_on_c, 0, 78, 67
1, 1122967, Poly_aftertouch_c, 0, 47, 0
1, 1122979, Control_c, 0, 64, 51
1, 1122994, Control_c, 0, 64, 60
1, 1123009, Control_c, 0, 64, 69
1, 1123023, Control_c, 0, 64, 84
1, 1123038, Control_c, 0, 64, 127
1, 1123064, Note_on_c, 0, 54, 67
1, 1123082, Control_c, 0, 67, 19
1, 1123112, Control_c, 0, 67, 22
1, 1123127, Control_c, 0, 67, 25
1, 1123128, Note_off_c, 0, 78, 55
1, 1123128, Note_off_c, 0, 85, 64
1, 1123134, Note_off_c, 0, 58, 62
1, 1123141, Control_c, 0, 67, 28
1, 1123156, Control_c, 0, 67, 31
1, 1123165, Note_on_c, 0, 47, 50
1, 1123171, Control_c, 0, 67, 32
1, 1123186, Control_c, 0, 67, 33
1, 1123201, Control_c, 0, 67, 33
1, 1123203, Note_off_c, 0, 76, 52
1, 1123215, Control_c, 0, 67, 36
1, 1123222, Note_off_c, 0, 54, 55
1, 1123230, Control_c, 0, 67, 43
1, 1123245, Control_c, 0, 64, 91
1, 1123245, Control_c, 0, 67, 56
1, 1123252, Note_on_c, 0, 83, 92
1, 1123259, Control_c, 0, 64, 67
1, 1123259, Control_c, 0, 67, 67
1, 1123266, Note_on_c, 0, 76, 55
1, 1123268, Note_on_c, 0, 59, 51
1, 1123272, Note_on_c, 0, 78, 58
1, 1123274, Control_c, 0, 64, 47
1, 1123274, Control_c, 0, 67, 78
1, 1123289, Control_c, 0, 64, 35
1, 1123289, Control_c, 0, 67, 89
1, 1123304, Control_c, 0, 64, 48
1, 1123304, Control_c, 0, 67, 100
1, 1123319, Control_c, 0, 64, 57
1, 1123319, Control_c, 0, 67, 111
1, 1123334, Control_c, 0, 64, 63
1, 1123334, Control_c, 0, 67, 125
1, 1123349, Control_c, 0, 64, 72
1, 1123349, Control_c, 0, 67, 127
1, 1123364, Control_c, 0, 64, 90
1, 1123364, Note_off_c, 0, 47, 43
1, 1123376, Note_on_c, 0, 54, 52
1, 1123379, Control_c, 0, 64, 127
1, 1123400, Note_off_c, 0, 59, 38
1, 1123459, Note_on_c, 0, 47, 48
1, 1123468, Note_off_c, 0, 76, 30
1, 1123478, Note_off_c, 0, 78, 33
1, 1123489, Note_off_c, 0, 54, 52
1, 1123492, Note_off_c, 0, 47, 51
1, 1123514, Note_off_c, 0, 83, 32
1, 1123550, Control_c, 0, 64, 95
1, 1123564, Control_c, 0, 64, 70
1, 1123567, Note_on_c, 0, 82, 80
1, 1123570, Note_on_c, 0, 78, 37
1, 1123578, Note_on_c, 0, 76, 67
1, 1123579, Control_c, 0, 64, 56
1, 1123594, Control_c, 0, 64, 54
1, 1123604, Note_on_c, 0, 61, 54
1, 1123609, Control_c, 0, 64, 61
1, 1123618, Note_off_c, 0, 78, 60
1, 1123624, Control_c, 0, 64, 66
1, 1123632, Note_off_c, 0, 76, 55
1, 1123638, Control_c, 0, 64, 74
1, 1123643, Note_off_c, 0, 61, 62
1, 1123653, Control_c, 0, 64, 89
1, 1123668, Control_c, 0, 64, 122
1, 1123683, Control_c, 0, 64, 127
1, 1123690, Note_on_c, 0, 54, 52
1, 1123736, Note_off_c, 0, 54, 59
1, 1123769, Note_on_c, 0, 47, 48
1, 1123846, Control_c, 0, 64, 87
1, 1123861, Control_c, 0, 64, 67
1, 1123869, Note_off_c, 0, 47, 37
1, 1123876, Control_c, 0, 64, 56
1, 1123883, Note_on_c, 0, 83, 76
1, 1123890, Control_c, 0, 64, 57
1, 1123899, Note_on_c, 0, 59, 44
1, 1123903, Note_on_c, 0, 78, 39
1, 1123904, Note_on_c, 0, 75, 50
1, 1123905, Control_c, 0, 64, 63
1, 1123920, Note_off_c, 0, 82, 59
1, 1123920, Control_c, 0, 64, 68
1, 1123930, Note_off_c, 0, 78, 58
1, 1123932, Note_off_c, 0, 83, 63
1, 1123934, Note_off_c, 0, 75, 60
1, 1123935, Control_c, 0, 64, 76
1, 1123950, Note_off_c, 0, 59, 56
1, 1123950, Control_c, 0, 64, 89
1, 1123964, Control_c, 0, 64, 103
1, 1123967, Note_on_c, 0, 54, 45
1, 1123979, Control_c, 0, 64, 114
1, 1123994, Control_c, 0, 64, 127
1, 1124022, Note_off_c, 0, 54, 56
1, 1124065, Note_on_c, 0, 47, 40
1, 1124113, Note_off_c, 0, 47, 51
1, 1124142, Control_c, 0, 64, 116
1, 1124164, Control_c, 0, 64, 83
1, 1124179, Control_c, 0, 64, 65
1, 1124194, Control_c, 0, 64, 48
1, 1124200, Note_on_c, 0, 70, 64
1, 1124209, Control_c, 0, 64, 49
1, 1124218, Note_on_c, 0, 52, 29
1, 1124221, Note_on_c, 0, 49, 27
1, 1124223, Note_on_c, 0, 54, 36
1, 1124223, Control_c, 0, 64, 55
1, 1124238, Control_c, 0, 64, 62
1, 1124253, Control_c, 0, 64, 68
1, 1124258, Note_off_c, 0, 54, 57
1, 1124268, Control_c, 0, 64, 76
1, 1124270, Note_off_c, 0, 49, 50
1, 1124275, Note_off_c, 0, 52, 49
1, 1124283, Control_c, 0, 64, 86
1, 1124297, Control_c, 0, 64, 95
1, 1124298, Note_on_c, 0, 66, 62
1, 1124309, Note_off_c, 0, 70, 53
1, 1124312, Control_c, 0, 64, 100
1, 1124327, Control_c, 0, 64, 103
1, 1124343, Control_c, 0, 64, 108
1, 1124358, Control_c, 0, 64, 116
1, 1124373, Control_c, 0, 64, 127
1, 1124419, Note_on_c, 0, 64, 43
1, 1124431, Control_c, 0, 64, 105
1, 1124439, Note_off_c, 0, 66, 31
1, 1124446, Control_c, 0, 64, 85
1, 1124461, Control_c, 0, 64, 68
1, 1124473, Note_off_c, 0, 64, 49
1, 1124476, Control_c, 0, 64, 56
1, 1124483, Note_on_c, 0, 47, 43
1, 1124487, Note_on_c, 0, 71, 59
1, 1124491, Control_c, 0, 64, 51
1, 1124493, Note_on_c, 0, 54, 35
1, 1124501, Note_on_c, 0, 52, 29
1, 1124506, Control_c, 0, 64, 56
1, 1124520, Control_c, 0, 64, 62
1, 1124535, Control_c, 0, 64, 67
1, 1124545, Note_off_c, 0, 47, 61
1, 1124547, Note_off_c, 0, 54, 57
1, 1124550, Control_c, 0, 64, 76
1, 1124559, Note_off_c, 0, 52, 56
1, 1124565, Note_off_c, 0, 71, 60
1, 1124565, Control_c, 0, 64, 87
1, 1124577, Note_on_c, 0, 66, 52
1, 1124580, Control_c, 0, 64, 97
1, 1124595, Control_c, 0, 64, 101
1, 1124610, Control_c, 0, 64, 105
1, 1124625, Control_c, 0, 64, 108
1, 1124639, Control_c, 0, 64, 110
1, 1124687, Note_on_c, 0, 64, 46
1, 1124713, Control_c, 0, 64, 93
1, 1124728, Control_c, 0, 64, 76
1, 1124733, Note_off_c, 0, 66, 36
1, 1124743, Control_c, 0, 64, 62
1, 1124758, Control_c, 0, 64, 46
1, 1124767, Note_on_c, 0, 46, 33
1, 1124767, Note_off_c, 0, 64, 55
1, 1124773, Control_c, 0, 64, 43
1, 1124778, Note_on_c, 0, 73, 58
1, 1124782, Note_on_c, 0, 52, 33
1, 1124787, Control_c, 0, 64, 48
1, 1124788, Note_on_c, 0, 54, 31
1, 1124802, Control_c, 0, 64, 55
1, 1124811, Note_off_c, 0, 46, 54
1, 1124817, Control_c, 0, 64, 62
1, 1124831, Control_c, 0, 64, 69
1, 1124834, Note_off_c, 0, 52, 61
1, 1124838, Note_off_c, 0, 54, 56
1, 1124846, Control_c, 0, 64, 78
1, 1124855, Note_on_c, 0, 66, 53
1, 1124862, Control_c, 0, 64, 86
1, 1124877, Control_c, 0, 64, 91
1, 1124892, Note_off_c, 0, 73, 58
1, 1124892, Control_c, 0, 64, 92
1, 1124912, Note_off_c, 0, 66, 56
1, 1124914, Control_c, 0, 64, 92
1, 1124929, Control_c, 0, 64, 93
1, 1124944, Control_c, 0, 64, 93
1, 1124954, Note_on_c, 0, 64, 43
1, 1124959, Control_c, 0, 64, 94
1, 1125016, Note_off_c, 0, 64, 55
1, 1125018, Control_c, 0, 64, 91
1, 1125033, Control_c, 0, 64, 82
1, 1125047, Control_c, 0, 64, 71
1, 1125062, Control_c, 0, 64, 61
1, 1125077, Control_c, 0, 64, 51
1, 1125081, Note_on_c, 0, 47, 39
1, 1125086, Note_on_c, 0, 54, 34
1, 1125092, Control_c, 0, 64, 52
1, 1125096, Note_on_c, 0, 71, 50
1, 1125107, Control_c, 0, 64, 57
1, 1125121, Control_c, 0, 64, 62
1, 1125124, Note_on_c, 0, 51, 14
1, 1125137, Control_c, 0, 64, 67
1, 1125152, Control_c, 0, 64, 75
1, 1125165, Note_off_c, 0, 71, 55
1, 1125167, Control_c, 0, 64, 84
1, 1125170, Note_off_c, 0, 54, 51
1, 1125182, Control_c, 0, 64, 91
1, 1125184, Note_on_c, 0, 66, 54
1, 1125196, Note_off_c, 0, 47, 38
1, 1125197, Control_c, 0, 64, 94
1, 1125211, Control_c, 0, 64, 95
1, 1125241, Control_c, 0, 64, 96
1, 1125242, Note_off_c, 0, 51, 33
1, 1125282, Note_on_c, 0, 63, 52
1, 1125285, Control_c, 0, 64, 98
1, 1125340, Note_off_c, 0, 66, 35
1, 1125341, Note_off_c, 0, 63, 59
1, 1125377, Note_on_c, 0, 59, 48
1, 1125404, Note_off_c, 0, 59, 63
1, 1125474, Note_on_c, 0, 54, 58
1, 1125572, Note_on_c, 0, 51, 56
1, 1125640, Note_off_c, 0, 54, 36
1, 1125676, Control_c, 0, 64, 95
1, 1125681, Note_on_c, 0, 47, 55
1, 1125691, Control_c, 0, 64, 93
1, 1125706, Control_c, 0, 64, 90
1, 1125713, Note_off_c, 0, 51, 35
1, 1125721, Control_c, 0, 64, 88
1, 1125735, Control_c, 0, 64, 85
1, 1125750, Control_c, 0, 64, 82
1, 1125765, Control_c, 0, 64, 79
1, 1125779, Control_c, 0, 64, 77
1, 1125781, Note_off_c, 0, 47, 62
1, 1125790, Note_on_c, 0, 45, 70
1, 1125794, Control_c, 0, 64, 74
1, 1125809, Control_c, 0, 64, 70
1, 1125824, Control_c, 0, 64, 67
1, 1125839, Control_c, 0, 64, 63
1, 1125854, Control_c, 0, 64, 61
1, 1125868, Control_c, 0, 64, 59
1, 1125875, Note_on_c, 0, 44, 64
1, 1125875, Note_off_c, 0, 45, 63
1, 1125883, Control_c, 0, 64, 58
1, 1125898, Control_c, 0, 64, 57
1, 1125913, Control_c, 0, 64, 55
1, 1125928, Control_c, 0, 64, 52
1, 1125944, Control_c, 0, 64, 49
1, 1125957, Note_off_c, 0, 44, 64
1, 1125958, Control_c, 0, 64, 46
1, 1125973, Control_c, 0, 64, 43
1, 1125976, Note_on_c, 0, 45, 72
1, 1125988, Control_c, 0, 64, 39
1, 1126003, Control_c, 0, 64, 36
1, 1126017, Control_c, 0, 64, 34
1, 1126032, Control_c, 0, 64, 0
1, 1126049, Note_off_c, 0, 45, 62
1, 1126057, Note_on_c, 0, 44, 69
1, 1126160, Note_on_c, 0, 42, 54
1, 1126163, Note_off_c, 0, 44, 57
1, 1126238, Note_off_c, 0, 42, 61
1, 1126261, Note_on_c, 0, 40, 40
1, 1126299, Control_c, 0, 64, 42
1, 1126314, Control_c, 0, 64, 52
1, 1126329, Control_c, 0, 64, 61
1, 1126344, Control_c, 0, 64, 66
1, 1126358, Control_c, 0, 64, 72
1, 1126361, Note_off_c, 0, 40, 58
1, 1126373, Control_c, 0, 64, 79
1, 1126374, Note_on_c, 0, 44, 50
1, 1126388, Control_c, 0, 64, 86
1, 1126410, Control_c, 0, 64, 92
1, 1126425, Control_c, 0, 64, 99
1, 1126440, Control_c, 0, 64, 108
1, 1126455, Control_c, 0, 64, 122
1, 1126470, Note_on_c, 0, 47, 56
1, 1126470, Note_off_c, 0, 44, 57
1, 1126470, Control_c, 0, 64, 127
1, 1126504, Note_off_c, 0, 47, 66
1, 1126559, Note_on_c, 0, 52, 44
1, 1126621, Note_off_c, 0, 52, 52
1, 1126649, Note_on_c, 0, 56, 56
1, 1126747, Note_on_c, 0, 59, 48
1, 1126808, Note_off_c, 0, 59, 55
1, 1126811, Control_c, 0, 64, 106
1, 1126826, Control_c, 0, 64, 95
1, 1126834, Note_off_c, 0, 56, 34
1, 1126840, Control_c, 0, 64, 87
1, 1126852, Note_on_c, 0, 52, 43
1, 1126855, Control_c, 0, 64, 79
1, 1126866, Note_on_c, 0, 71, 54
1, 1126870, Control_c, 0, 64, 72
1, 1126885, Control_c, 0, 64, 65
1, 1126900, Control_c, 0, 64, 56
1, 1126914, Note_off_c, 0, 71, 56
1, 1126914, Control_c, 0, 64, 46
1, 1126929, Control_c, 0, 64, 40
1, 1126944, Control_c, 0, 64, 38
1, 1126959, Control_c, 0, 64, 37
1, 1126965, Note_on_c, 0, 56, 46
1, 1126974, Control_c, 0, 64, 33
1, 1126989, Control_c, 0, 64, 0
1, 1126993, Note_off_c, 0, 52, 57
1, 1127059, Note_on_c, 0, 59, 43
1, 1127079, Note_off_c, 0, 56, 47
1, 1127142, Note_on_c, 0, 52, 44
1, 1127171, Note_on_c, 0, 71, 58
1, 1127213, Note_off_c, 0, 71, 63
1, 1127215, Note_off_c, 0, 59, 37
1, 1127218, Control_c, 0, 64, 43
1, 1127233, Control_c, 0, 64, 55
1, 1127248, Control_c, 0, 64, 63
1, 1127258, Note_off_c, 0, 52, 61
1, 1127263, Note_on_c, 0, 56, 37
1, 1127263, Control_c, 0, 64, 68
1, 1127278, Control_c, 0, 64, 71
1, 1127293, Control_c, 0, 64, 74
1, 1127307, Control_c, 0, 64, 76
1, 1127322, Control_c, 0, 64, 77
1, 1127337, Control_c, 0, 64, 79
1, 1127351, Control_c, 0, 64, 79
1, 1127353, Note_on_c, 0, 59, 41
1, 1127366, Control_c, 0, 64, 80
1, 1127395, Note_off_c, 0, 56, 36
1, 1127411, Control_c, 0, 64, 79
1, 1127425, Control_c, 0, 64, 76
1, 1127440, Control_c, 0, 64, 69
1, 1127454, Note_off_c, 0, 59, 45
1, 1127455, Control_c, 0, 64, 61
1, 1127467, Note_on_c, 0, 51, 32
1, 1127470, Control_c, 0, 64, 47
1, 1127485, Control_c, 0, 64, 39
1, 1127496, Note_on_c, 0, 71, 58
1, 1127500, Control_c, 0, 64, 44
1, 1127514, Control_c, 0, 64, 52
1, 1127530, Control_c, 0, 64, 60
1, 1127545, Control_c, 0, 64, 67
1, 1127560, Control_c, 0, 64, 75
1, 1127573, Note_on_c, 0, 54, 45
1, 1127575, Control_c, 0, 64, 85
1, 1127590, Control_c, 0, 64, 95
1, 1127594, Note_off_c, 0, 51, 36
1, 1127604, Control_c, 0, 64, 104
1, 1127619, Control_c, 0, 64, 114
1, 1127634, Control_c, 0, 64, 127
1, 1127649, Control_c, 0, 67, 124
1, 1127662, Note_off_c, 0, 71, 65
1, 1127663, Control_c, 0, 67, 102
1, 1127666, Note_off_c, 0, 54, 52
1, 1127678, Control_c, 0, 67, 72
1, 1127693, Control_c, 0, 67, 38
1, 1127701, Note_on_c, 0, 59, 40
1, 1127708, Control_c, 0, 67, 0
1, 1127752, Note_off_c, 0, 59, 56
1, 1127766, Note_on_c, 0, 51, 25
1, 1127830, Note_off_c, 0, 51, 52
1, 1127856, Note_on_c, 0, 54, 44
1, 1127907, Note_off_c, 0, 54, 61
1, 1127968, Note_on_c, 0, 59, 46
1, 1128064, Note_off_c, 0, 59, 48
1, 1128071, Control_c, 0, 64, 103
1, 1128074, Note_on_c, 0, 71, 73
1, 1128086, Note_on_c, 0, 54, 52
1, 1128086, Control_c, 0, 64, 76
1, 1128100, Control_c, 0, 64, 61
1, 1128105, Note_off_c, 0, 71, 60
1, 1128115, Control_c, 0, 64, 0
1, 1128199, Note_on_c, 0, 57, 47
1, 1128202, Note_off_c, 0, 54, 50
1, 1128222, Note_on_c, 0, 71, 70
1, 1128253, Note_off_c, 0, 57, 59
1, 1128259, Note_off_c, 0, 71, 59
1, 1128289, Note_on_c, 0, 59, 44
1, 1128357, Note_off_c, 0, 59, 47
1, 1128370, Note_on_c, 0, 73, 71
1, 1128371, Note_on_c, 0, 54, 39
1, 1128405, Note_off_c, 0, 73, 61
1, 1128484, Note_on_c, 0, 57, 45
1, 1128488, Note_on_c, 0, 75, 69
1, 1128532, Note_off_c, 0, 57, 58
1, 1128545, Note_off_c, 0, 75, 52
1, 1128563, Note_off_c, 0, 54, 44
1, 1128576, Note_on_c, 0, 59, 32
1, 1128637, Note_off_c, 0, 59, 49
1, 1128677, Note_on_c, 0, 52, 35
1, 1128677, Note_on_c, 0, 76, 69
1, 1128730, Control_c, 0, 64, 54
1, 1128745, Control_c, 0, 64, 67
1, 1128756, Note_off_c, 0, 52, 53
1, 1128760, Control_c, 0, 64, 79
1, 1128775, Control_c, 0, 64, 104
1, 1128785, Note_on_c, 0, 56, 45
1, 1128790, Note_off_c, 0, 76, 62
1, 1128790, Control_c, 0, 64, 127
1, 1128852, Note_off_c, 0, 56, 49
1, 1128876, Note_on_c, 0, 59, 45
1, 1128930, Note_off_c, 0, 59, 51
1, 1128945, Note_on_c, 0, 52, 40
1, 1129002, Note_off_c, 0, 52, 56
1, 1129041, Note_on_c, 0, 56, 46
1, 1129074, Note_off_c, 0, 56, 60
1, 1129130, Note_on_c, 0, 59, 48
1, 1129206, Control_c, 0, 64, 125
1, 1129209, Note_off_c, 0, 59, 53
1, 1129220, Control_c, 0, 64, 81
1, 1129235, Note_on_c, 0, 76, 88
1, 1129235, Control_c, 0, 64, 62
1, 1129245, Note_on_c, 0, 64, 74
1, 1129248, Note_on_c, 0, 50, 46
1, 1129250, Control_c, 0, 64, 0
1, 1129269, Note_off_c, 0, 64, 68
1, 1129275, Note_off_c, 0, 76, 58
1, 1129311, Note_off_c, 0, 50, 54
1, 1129320, Note_on_c, 0, 52, 53
1, 1129386, Note_on_c, 0, 64, 72
1, 1129386, Note_on_c, 0, 76, 80
1, 1129411, Note_off_c, 0, 64, 66
1, 1129417, Note_off_c, 0, 76, 66
1, 1129427, Note_on_c, 0, 59, 49
1, 1129439, Note_off_c, 0, 52, 53
1, 1129506, Note_off_c, 0, 59, 54
1, 1129516, Note_on_c, 0, 50, 39
1, 1129529, Note_on_c, 0, 78, 79
1, 1129546, Note_on_c, 0, 66, 57
1, 1129552, Note_off_c, 0, 78, 66
1, 1129567, Note_off_c, 0, 66, 58
1, 1129608, Note_off_c, 0, 50, 60
1, 1129612, Note_on_c, 0, 52, 43
1, 1129654, Note_on_c, 0, 80, 78
1, 1129659, Note_on_c, 0, 68, 73
1, 1129675, Note_off_c, 0, 80, 68
1, 1129684, Note_off_c, 0, 68, 69
1, 1129702, Note_on_c, 0, 59, 47
1, 1129752, Note_off_c, 0, 52, 58
1, 1129765, Note_off_c, 0, 59, 54
1, 1129804, Note_on_c, 0, 49, 49
1, 1129810, Note_on_c, 0, 81, 72
1, 1129813, Note_on_c, 0, 69, 58
1, 1129820, Control_c, 0, 64, 34
1, 1129835, Control_c, 0, 64, 51
1, 1129850, Control_c, 0, 64, 62
1, 1129855, Note_off_c, 0, 81, 0
1, 1129855, Note_on_c, 0, 81, 36
1, 1129865, Control_c, 0, 64, 68
1, 1129880, Control_c, 0, 64, 75
1, 1129895, Control_c, 0, 64, 85
1, 1129898, Note_off_c, 0, 49, 58
1, 1129901, Note_off_c, 0, 69, 56
1, 1129907, Note_on_c, 0, 52, 50
1, 1129909, Control_c, 0, 64, 103
1, 1129925, Control_c, 0, 64, 127
1, 1129973, Note_off_c, 0, 81, 37
1, 1130020, Note_on_c, 0, 57, 42
1, 1130030, Note_off_c, 0, 52, 38
1, 1130080, Note_off_c, 0, 57, 56
1, 1130119, Note_on_c, 0, 49, 44
1, 1130196, Note_off_c, 0, 49, 56
1, 1130207, Note_on_c, 0, 52, 43
1, 1130253, Note_off_c, 0, 52, 62
1, 1130315, Note_on_c, 0, 57, 48
1, 1130351, Note_off_c, 0, 57, 62
1, 1130407, Control_c, 0, 64, 103
1, 1130422, Control_c, 0, 64, 79
1, 1130437, Control_c, 0, 64, 65
1, 1130451, Control_c, 0, 64, 54
1, 1130458, Note_on_c, 0, 45, 47
1, 1130458, Note_on_c, 0, 85, 70
1, 1130466, Control_c, 0, 64, 52
1, 1130475, Note_on_c, 0, 73, 53
1, 1130481, Control_c, 0, 64, 57
1, 1130496, Control_c, 0, 64, 62
1, 1130510, Control_c, 0, 64, 66
1, 1130525, Control_c, 0, 64, 73
1, 1130540, Control_c, 0, 64, 86
1, 1130555, Control_c, 0, 64, 108
1, 1130570, Control_c, 0, 64, 127
1, 1130572, Note_on_c, 0, 49, 52
1, 1130586, Note_off_c, 0, 73, 36
1, 1130592, Note_off_c, 0, 45, 36
1, 1130605, Note_off_c, 0, 85, 49
1, 1130660, Note_on_c, 0, 52, 59
1, 1130707, Note_off_c, 0, 49, 36
1, 1130746, Note_on_c, 0, 85, 89
1, 1130756, Note_on_c, 0, 45, 50
1, 1130761, Note_on_c, 0, 73, 76
1, 1130775, Note_off_c, 0, 52, 37
1, 1130846, Note_off_c, 0, 45, 61
1, 1130863, Note_off_c, 0, 85, 65
1, 1130870, Note_on_c, 0, 49, 52
1, 1130880, Note_off_c, 0, 73, 59
1, 1130935, Note_off_c, 0, 49, 55
1, 1130960, Note_on_c, 0, 52, 54
1, 1131052, Note_off_c, 0, 52, 51
1, 1131052, Control_c, 0, 64, 97
1, 1131054, Note_on_c, 0, 44, 49
1, 1131064, Note_on_c, 0, 83, 96
1, 1131067, Control_c, 0, 64, 71
1, 1131072, Note_on_c, 0, 71, 77
1, 1131081, Control_c, 0, 64, 47
1, 1131096, Control_c, 0, 64, 39
1, 1131111, Control_c, 0, 64, 53
1, 1131126, Control_c, 0, 64, 63
1, 1131141, Control_c, 0, 64, 71
1, 1131156, Note_off_c, 0, 71, 46
1, 1131156, Control_c, 0, 64, 85
1, 1131171, Control_c, 0, 64, 110
1, 1131180, Note_on_c, 0, 47, 60
1, 1131185, Note_off_c, 0, 44, 60
1, 1131186, Control_c, 0, 64, 127
1, 1131206, Note_off_c, 0, 83, 61
1, 1131224, Note_off_c, 0, 47, 64
1, 1131291, Note_on_c, 0, 52, 46
1, 1131373, Note_on_c, 0, 42, 47
1, 1131378, Control_c, 0, 64, 91
1, 1131379, Note_on_c, 0, 85, 89
1, 1131388, Note_off_c, 0, 52, 48
1, 1131393, Control_c, 0, 64, 68
1, 1131397, Note_on_c, 0, 73, 66
1, 1131407, Control_c, 0, 64, 52
1, 1131422, Control_c, 0, 64, 48
1, 1131437, Control_c, 0, 64, 57
1, 1131452, Control_c, 0, 64, 65
1, 1131467, Control_c, 0, 64, 75
1, 1131477, Note_off_c, 0, 42, 60
1, 1131481, Control_c, 0, 64, 96
1, 1131496, Control_c, 0, 64, 127
1, 1131507, Note_on_c, 0, 45, 50
1, 1131526, Note_off_c, 0, 85, 64
1, 1131546, Note_off_c, 0, 73, 63
1, 1131576, Note_off_c, 0, 45, 51
1, 1131590, Note_on_c, 0, 52, 37
1, 1131652, Control_c, 0, 67, 24
1, 1131667, Control_c, 0, 64, 96
1, 1131667, Control_c, 0, 67, 32
1, 1131682, Control_c, 0, 64, 68
1, 1131682, Control_c, 0, 67, 44
1, 1131687, Note_on_c, 0, 83, 79
1, 1131692, Note_on_c, 0, 44, 42
1, 1131694, Note_off_c, 0, 52, 37
1, 1131697, Control_c, 0, 64, 50
1, 1131697, Control_c, 0, 67, 67
1, 1131703, Note_on_c, 0, 71, 53
1, 1131711, Control_c, 0, 64, 41
1, 1131711, Control_c, 0, 67, 87
1, 1131726, Control_c, 0, 64, 50
1, 1131726, Control_c, 0, 67, 105
1, 1131741, Control_c, 0, 64, 61
1, 1131741, Control_c, 0, 67, 119
1, 1131755, Control_c, 0, 64, 69
1, 1131755, Control_c, 0, 67, 127
1, 1131770, Control_c, 0, 64, 80
1, 1131773, Note_off_c, 0, 44, 56
1, 1131779, Note_off_c, 0, 83, 60
1, 1131785, Control_c, 0, 64, 95
1, 1131800, Control_c, 0, 64, 102
1, 1131802, Note_off_c, 0, 71, 63
1, 1131806, Note_on_c, 0, 47, 54
1, 1131815, Control_c, 0, 64, 109
1, 1131830, Control_c, 0, 64, 125
1, 1131844, Control_c, 0, 64, 127
1, 1131884, Note_on_c, 0, 52, 41
1, 1131885, Note_off_c, 0, 47, 41
1, 1131931, Note_off_c, 0, 52, 47
1, 1131968, Note_on_c, 0, 40, 36
1, 1131978, Control_c, 0, 64, 83
1, 1131993, Control_c, 0, 64, 65
1, 1131997, Note_on_c, 0, 80, 62
1, 1132008, Control_c, 0, 64, 52
1, 1132018, Note_on_c, 0, 68, 43
1, 1132022, Control_c, 0, 64, 52
1, 1132037, Control_c, 0, 64, 58
1, 1132052, Control_c, 0, 64, 64
1, 1132067, Control_c, 0, 64, 71
1, 1132072, Note_off_c, 0, 40, 55
1, 1132082, Control_c, 0, 64, 83
1, 1132087, Note_off_c, 0, 80, 60
1, 1132096, Control_c, 0, 64, 93
1, 1132105, Note_on_c, 0, 47, 48
1, 1132111, Control_c, 0, 64, 98
1, 1132126, Control_c, 0, 64, 100
1, 1132143, Note_off_c, 0, 47, 64
1, 1132152, Note_off_c, 0, 68, 52
1, 1132185, Control_c, 0, 64, 103
1, 1132187, Note_on_c, 0, 52, 51
1, 1132260, Note_off_c, 0, 52, 48
1, 1132289, Control_c, 0, 64, 93
1, 1132297, Note_on_c, 0, 47, 48
1, 1132304, Control_c, 0, 64, 78
1, 1132319, Control_c, 0, 64, 65
1, 1132325, Note_on_c, 0, 78, 57
1, 1132333, Note_on_c, 0, 66, 45
1, 1132334, Control_c, 0, 64, 47
1, 1132350, Control_c, 0, 64, 0
1, 1132379, Control_c, 0, 64, 39
1, 1132402, Control_c, 0, 64, 50
1, 1132417, Control_c, 0, 64, 60
1, 1132420, Note_off_c, 0, 47, 57
1, 1132432, Control_c, 0, 64, 67
1, 1132440, Note_on_c, 0, 51, 42
1, 1132447, Control_c, 0, 64, 74
1, 1132461, Control_c, 0, 64, 81
1, 1132476, Control_c, 0, 64, 85
1, 1132491, Control_c, 0, 64, 86
1, 1132499, Note_off_c, 0, 66, 35
1, 1132505, Note_off_c, 0, 78, 38
1, 1132505, Control_c, 0, 64, 86
1, 1132518, Note_off_c, 0, 51, 52
1, 1132535, Control_c, 0, 64, 87
1, 1132536, Note_on_c, 0, 54, 56
1, 1132565, Control_c, 0, 64, 87
1, 1132580, Note_off_c, 0, 54, 63
1, 1132645, Note_on_c, 0, 59, 47
1, 1132694, Note_off_c, 0, 59, 55
1, 1132732, Note_on_c, 0, 58, 51
1, 1132769, Note_off_c, 0, 58, 65
1, 1132772, Control_c, 0, 64, 87
1, 1132786, Control_c, 0, 64, 85
1, 1132801, Control_c, 0, 64, 83
1, 1132816, Control_c, 0, 64, 81
1, 1132818, Note_on_c, 0, 57, 49
1, 1132831, Control_c, 0, 64, 78
1, 1132846, Control_c, 0, 64, 73
1, 1132861, Control_c, 0, 64, 66
1, 1132862, Note_off_c, 0, 57, 49
1, 1132876, Control_c, 0, 64, 51
1, 1132891, Control_c, 0, 64, 0
1, 1132927, Note_on_c, 0, 56, 39
1, 1132956, Note_on_c, 0, 71, 49
1, 1132964, Control_c, 0, 64, 44
1, 1132979, Control_c, 0, 64, 60
1, 1132994, Control_c, 0, 64, 67
1, 1133009, Control_c, 0, 64, 72
1, 1133024, Control_c, 0, 64, 77
1, 1133038, Control_c, 0, 64, 81
1, 1133052, Note_off_c, 0, 56, 52
1, 1133053, Control_c, 0, 64, 85
1, 1133065, Note_on_c, 0, 59, 41
1, 1133068, Control_c, 0, 64, 90
1, 1133083, Control_c, 0, 64, 95
1, 1133097, Control_c, 0, 64, 102
1, 1133111, Note_off_c, 0, 59, 59
1, 1133112, Control_c, 0, 64, 107
1, 1133128, Control_c, 0, 64, 113
1, 1133145, Note_off_c, 0, 71, 37
1, 1133150, Control_c, 0, 64, 127
1, 1133172, Note_on_c, 0, 64, 40
1, 1133225, Control_c, 0, 64, 106
1, 1133240, Control_c, 0, 64, 85
1, 1133246, Note_on_c, 0, 56, 38
1, 1133250, Note_off_c, 0, 64, 37
1, 1133254, Control_c, 0, 64, 69
1, 1133260, Note_on_c, 0, 71, 61
1, 1133269, Control_c, 0, 64, 55
1, 1133284, Control_c, 0, 64, 53
1, 1133299, Control_c, 0, 64, 58
1, 1133314, Control_c, 0, 64, 63
1, 1133317, Note_off_c, 0, 56, 56
1, 1133328, Control_c, 0, 64, 67
1, 1133340, Note_on_c, 0, 59, 40
1, 1133343, Control_c, 0, 64, 74
1, 1133358, Control_c, 0, 64, 82
1, 1133373, Control_c, 0, 64, 90
1, 1133388, Control_c, 0, 64, 93
1, 1133392, Note_off_c, 0, 59, 56
1, 1133402, Control_c, 0, 64, 95
1, 1133404, Note_off_c, 0, 71, 52
1, 1133432, Control_c, 0, 64, 99
1, 1133442, Note_on_c, 0, 64, 37
1, 1133462, Control_c, 0, 64, 101
1, 1133520, Note_off_c, 0, 64, 35
1, 1133549, Note_on_c, 0, 54, 40
1, 1133550, Control_c, 0, 64, 92
1, 1133565, Control_c, 0, 64, 76
1, 1133580, Control_c, 0, 64, 64
1, 1133591, Note_on_c, 0, 71, 48
1, 1133594, Control_c, 0, 64, 49
1, 1133609, Control_c, 0, 64, 43
1, 1133624, Control_c, 0, 64, 49
1, 1133639, Control_c, 0, 64, 56
1, 1133654, Control_c, 0, 64, 62
1, 1133664, Note_off_c, 0, 54, 59
1, 1133669, Control_c, 0, 64, 69
1, 1133684, Control_c, 0, 64, 78
1, 1133696, Note_on_c, 0, 57, 43
1, 1133699, Control_c, 0, 64, 90
1, 1133714, Control_c, 0, 64, 101
1, 1133728, Control_c, 0, 64, 109
1, 1133743, Control_c, 0, 64, 120
1, 1133758, Control_c, 0, 64, 127
1, 1133760, Note_off_c, 0, 57, 51
1, 1133797, Note_off_c, 0, 71, 62
1, 1133797, Note_on_c, 0, 63, 44
1, 1133851, Note_off_c, 0, 63, 48
1, 1133877, Note_on_c, 0, 54, 42
1, 1133937, Note_off_c, 0, 54, 60
1, 1133985, Note_on_c, 0, 57, 45
1, 1134018, Note_off_c, 0, 57, 59
1, 1134073, Note_on_c, 0, 63, 50
1, 1134127, Note_off_c, 0, 63, 54
1, 1134151, Control_c, 0, 64, 91
1, 1134166, Control_c, 0, 64, 65
1, 1134181, Control_c, 0, 64, 0
1, 1134181, Control_c, 0, 67, 116
1, 1134182, Note_on_c, 0, 71, 65
1, 1134187, Note_on_c, 0, 54, 45
1, 1134196, Control_c, 0, 67, 83
1, 1134210, Note_off_c, 0, 71, 67
1, 1134211, Control_c, 0, 67, 39
1, 1134225, Control_c, 0, 67, 0
1, 1134258, Note_off_c, 0, 54, 55
1, 1134294, Note_on_c, 0, 57, 39
1, 1134337, Note_on_c, 0, 71, 66
1, 1134350, Note_off_c, 0, 57, 60
1, 1134366, Note_off_c, 0, 71, 65
1, 1134385, Note_on_c, 0, 62, 46
1, 1134444, Note_off_c, 0, 62, 55
1, 1134466, Note_on_c, 0, 73, 65
1, 1134473, Note_on_c, 0, 54, 41
1, 1134500, Note_off_c, 0, 73, 60
1, 1134589, Note_on_c, 0, 57, 30
1, 1134599, Note_on_c, 0, 74, 73
1, 1134649, Note_off_c, 0, 74, 56
1, 1134652, Note_off_c, 0, 57, 45
1, 1134667, Note_on_c, 0, 62, 41
1, 1134692, Note_off_c, 0, 54, 50
1, 1134721, Note_off_c, 0, 62, 48
1, 1134759, Note_on_c, 0, 53, 42
1, 1134775, Note_on_c, 0, 73, 63
1, 1134811, Control_c, 0, 64, 51
1, 1134826, Control_c, 0, 64, 65
1, 1134840, Control_c, 0, 64, 72
1, 1134845, Note_off_c, 0, 53, 58
1, 1134855, Control_c, 0, 64, 83
1, 1134870, Control_c, 0, 64, 101
1, 1134872, Note_off_c, 0, 73, 56
1, 1134879, Note_on_c, 0, 56, 45
1, 1134885, Control_c, 0, 64, 127
1, 1134951, Note_off_c, 0, 56, 49
1, 1134965, Note_on_c, 0, 61, 43
1, 1135018, Note_off_c, 0, 61, 55
1, 1135034, Note_on_c, 0, 53, 50
1, 1135103, Note_off_c, 0, 53, 59
1, 1135144, Note_on_c, 0, 56, 37
1, 1135174, Note_off_c, 0, 56, 52
1, 1135194, Note_on_c, 0, 61, 67
1, 1135223, Note_off_c, 0, 61, 63
1, 1135332, Note_on_c, 0, 47, 55
1, 1135339, Note_on_c, 0, 61, 74
1, 1135339, Note_on_c, 0, 73, 80
1, 1135345, Control_c, 0, 64, 86
1, 1135360, Control_c, 0, 64, 63
1, 1135365, Note_off_c, 0, 61, 66
1, 1135365, Note_off_c, 0, 73, 60
1, 1135374, Control_c, 0, 64, 33
1, 1135397, Control_c, 0, 64, 0
1, 1135413, Note_off_c, 0, 47, 64
1, 1135434, Note_on_c, 0, 49, 58
1, 1135486, Note_on_c, 0, 73, 83
1, 1135495, Note_on_c, 0, 61, 69
1, 1135514, Note_off_c, 0, 73, 58
1, 1135522, Note_off_c, 0, 49, 37
1, 1135524, Note_off_c, 0, 61, 66
1, 1135539, Note_on_c, 0, 56, 38
1, 1135580, Note_off_c, 0, 56, 49
1, 1135609, Note_on_c, 0, 47, 50
1, 1135623, Note_on_c, 0, 75, 80
1, 1135627, Note_on_c, 0, 63, 76
1, 1135645, Note_off_c, 0, 75, 68
1, 1135651, Note_off_c, 0, 63, 69
1, 1135708, Note_on_c, 0, 49, 45
1, 1135745, Note_on_c, 0, 77, 83
1, 1135749, Note_on_c, 0, 65, 83
1, 1135751, Note_off_c, 0, 49, 60
1, 1135767, Note_off_c, 0, 77, 65
1, 1135771, Note_off_c, 0, 65, 71
1, 1135791, Note_on_c, 0, 56, 47
1, 1135824, Note_off_c, 0, 56, 57
1, 1135866, Note_off_c, 0, 47, 39
1, 1135895, Note_on_c, 0, 45, 52
1, 1135925, Note_on_c, 0, 78, 79
1, 1135927, Note_on_c, 0, 66, 72
1, 1135946, Control_c, 0, 64, 36
1, 1135961, Control_c, 0, 64, 55
1, 1135976, Control_c, 0, 64, 64
1, 1135990, Control_c, 0, 64, 69
1, 1135993, Note_off_c, 0, 45, 62
1, 1136005, Control_c, 0, 64, 76
1, 1136020, Control_c, 0, 64, 85
1, 1136029, Note_on_c, 0, 49, 45
1, 1136034, Control_c, 0, 64, 102
1, 1136049, Control_c, 0, 64, 127
1, 1136071, Note_off_c, 0, 66, 57
1, 1136086, Note_off_c, 0, 49, 54
1, 1136104, Note_on_c, 0, 54, 47
1, 1136150, Note_off_c, 0, 54, 58
1, 1136211, Note_on_c, 0, 45, 49
1, 1136226, Note_off_c, 0, 78, 60
1, 1136261, Note_off_c, 0, 45, 58
1, 1136299, Note_on_c, 0, 49, 47
1, 1136340, Note_off_c, 0, 49, 62
1, 1136386, Note_on_c, 0, 54, 47
1, 1136419, Note_off_c, 0, 54, 61
1, 1136486, Control_c, 0, 64, 120
1, 1136501, Control_c, 0, 64, 82
1, 1136507, Note_on_c, 0, 47, 25
1, 1136516, Control_c, 0, 64, 66
1, 1136531, Control_c, 0, 64, 54
1, 1136536, Note_on_c, 0, 80, 80
1, 1136545, Control_c, 0, 64, 53
1, 1136552, Note_on_c, 0, 68, 59
1, 1136560, Control_c, 0, 64, 60
1, 1136575, Control_c, 0, 64, 64
1, 1136590, Control_c, 0, 64, 69
1, 1136605, Control_c, 0, 64, 79
1, 1136620, Control_c, 0, 64, 98
1, 1136635, Control_c, 0, 64, 127
1, 1136642, Note_on_c, 0, 56, 66
1, 1136651, Poly_aftertouch_c, 0, 48, 127
1, 1136663, Note_off_c, 0, 68, 35
1, 1136664, Note_off_c, 0, 80, 56
1, 1136684, Note_off_c, 0, 47, 42
1, 1136688, Poly_aftertouch_c, 0, 48, 0
1, 1136727, Note_off_c, 0, 56, 60
1, 1136731, Note_on_c, 0, 59, 65
1, 1136796, Note_off_c, 0, 59, 53
1, 1136804, Note_on_c, 0, 47, 63
1, 1136817, Note_on_c, 0, 80, 94
1, 1136818, Note_on_c, 0, 68, 96
1, 1136873, Note_off_c, 0, 47, 60
1, 1136921, Note_off_c, 0, 68, 63
1, 1136935, Note_on_c, 0, 56, 62
1, 1136954, Poly_aftertouch_c, 0, 78, 0
1, 1136969, Note_off_c, 0, 80, 60
1, 1136984, Note_off_c, 0, 56, 55
1, 1137013, Note_on_c, 0, 59, 57
1, 1137087, Note_off_c, 0, 59, 56
1, 1137100, Note_on_c, 0, 49, 51
1, 1137147, Control_c, 0, 64, 84
1, 1137153, Note_on_c, 0, 81, 94
1, 1137162, Control_c, 0, 64, 62
1, 1137166, Note_on_c, 0, 69, 61
1, 1137176, Control_c, 0, 64, 43
1, 1137191, Control_c, 0, 64, 45
1, 1137206, Control_c, 0, 64, 55
1, 1137221, Control_c, 0, 64, 63
1, 1137236, Control_c, 0, 64, 70
1, 1137250, Control_c, 0, 64, 82
1, 1137265, Control_c, 0, 64, 106
1, 1137280, Control_c, 0, 64, 127
1, 1137283, Note_on_c, 0, 57, 52
1, 1137299, Note_off_c, 0, 49, 37
1, 1137305, Note_off_c, 0, 81, 62
1, 1137317, Note_off_c, 0, 69, 61
1, 1137332, Note_off_c, 0, 57, 59
1, 1137368, Note_on_c, 0, 61, 56
1, 1137421, Note_off_c, 0, 61, 52
1, 1137468, Note_on_c, 0, 49, 30
1, 1137472, Control_c, 0, 64, 85
1, 1137484, Note_on_c, 0, 80, 87
1, 1137487, Control_c, 0, 64, 66
1, 1137502, Control_c, 0, 64, 53
1, 1137502, Note_on_c, 0, 68, 65
1, 1137509, Note_off_c, 0, 49, 53
1, 1137517, Control_c, 0, 64, 54
1, 1137532, Control_c, 0, 64, 61
1, 1137547, Control_c, 0, 64, 67
1, 1137561, Control_c, 0, 64, 77
1, 1137576, Control_c, 0, 64, 94
1, 1137592, Control_c, 0, 64, 127
1, 1137604, Note_on_c, 0, 59, 51
1, 1137623, Note_off_c, 0, 80, 59
1, 1137651, Note_off_c, 0, 59, 64
1, 1137655, Note_off_c, 0, 68, 60
1, 1137694, Note_on_c, 0, 62, 51
1, 1137719, Note_off_c, 0, 62, 57
1, 1137776, Control_c, 0, 64, 97
1, 1137791, Control_c, 0, 64, 72
1, 1137793, Note_on_c, 0, 78, 74
1, 1137797, Note_on_c, 0, 49, 50
1, 1137800, Note_on_c, 0, 66, 57
1, 1137806, Control_c, 0, 64, 57
1, 1137821, Control_c, 0, 64, 49
1, 1137836, Control_c, 0, 64, 55
1, 1137851, Control_c, 0, 64, 61
1, 1137855, Note_off_c, 0, 49, 56
1, 1137866, Control_c, 0, 64, 65
1, 1137881, Control_c, 0, 64, 73
1, 1137895, Control_c, 0, 64, 86
1, 1137898, Note_on_c, 0, 57, 52
1, 1137910, Control_c, 0, 64, 105
1, 1137926, Control_c, 0, 64, 127
1, 1137942, Note_off_c, 0, 57, 61
1, 1137991, Note_off_c, 0, 78, 61
1, 1137992, Note_on_c, 0, 61, 45
1, 1138001, Note_off_c, 0, 66, 54
1, 1138036, Note_off_c, 0, 61, 55
1, 1138061, Note_on_c, 0, 49, 51
1, 1138089, Control_c, 0, 64, 88
1, 1138101, Note_on_c, 0, 65, 63
1, 1138104, Control_c, 0, 64, 68
1, 1138113, Note_on_c, 0, 77, 55
1, 1138118, Control_c, 0, 64, 51
1, 1138133, Control_c, 0, 64, 44
1, 1138148, Control_c, 0, 64, 51
1, 1138152, Note_off_c, 0, 65, 41
1, 1138163, Control_c, 0, 64, 58
1, 1138172, Note_on_c, 0, 56, 46
1, 1138178, Control_c, 0, 64, 64
1, 1138188, Note_off_c, 0, 49, 47
1, 1138192, Control_c, 0, 64, 70
1, 1138207, Control_c, 0, 64, 78
1, 1138214, Note_off_c, 0, 56, 60
1, 1138222, Control_c, 0, 64, 86
1, 1138236, Control_c, 0, 64, 90
1, 1138251, Control_c, 0, 64, 92
1, 1138266, Control_c, 0, 64, 93
1, 1138275, Note_on_c, 0, 59, 37
1, 1138281, Control_c, 0, 64, 94
1, 1138296, Control_c, 0, 64, 96
1, 1138311, Note_off_c, 0, 59, 50
1, 1138355, Control_c, 0, 64, 91
1, 1138370, Control_c, 0, 64, 78
1, 1138392, Control_c, 0, 64, 65
1, 1138398, Note_on_c, 0, 54, 36
1, 1138407, Control_c, 0, 64, 46
1, 1138410, Note_on_c, 0, 78, 60
1, 1138422, Control_c, 0, 64, 0
1, 1138451, Control_c, 0, 64, 43
1, 1138453, Note_on_c, 0, 66, 23
1, 1138453, Note_off_c, 0, 77, 57
1, 1138466, Control_c, 0, 64, 55
1, 1138481, Control_c, 0, 64, 64
1, 1138484, Note_off_c, 0, 78, 64
1, 1138496, Control_c, 0, 64, 72
1, 1138511, Control_c, 0, 64, 83
1, 1138526, Note_on_c, 0, 57, 49
1, 1138526, Control_c, 0, 64, 95
1, 1138531, Note_off_c, 0, 54, 48
1, 1138541, Control_c, 0, 64, 104
1, 1138546, Note_off_c, 0, 66, 57
1, 1138556, Control_c, 0, 64, 125
1, 1138571, Control_c, 0, 64, 127
1, 1138607, Note_off_c, 0, 57, 58
1, 1138614, Note_on_c, 0, 61, 54
1, 1138651, Note_off_c, 0, 61, 62
1, 1138710, Note_on_c, 0, 66, 50
1, 1138793, Note_on_c, 0, 69, 49
1, 1138825, Note_off_c, 0, 66, 37
1, 1138894, Note_on_c, 0, 73, 51
1, 1138987, Control_c, 0, 64, 97
1, 1138987, Note_on_c, 0, 61, 80
1, 1138993, Note_off_c, 0, 69, 32
1, 1139002, Control_c, 0, 64, 75
1, 1139013, Note_on_c, 0, 66, 55
1, 1139016, Control_c, 0, 64, 62
1, 1139020, Note_off_c, 0, 61, 61
1, 1139031, Control_c, 0, 64, 42
1, 1139046, Control_c, 0, 64, 0
1, 1139079, Note_off_c, 0, 73, 46
1, 1139100, Note_on_c, 0, 69, 57
1, 1139101, Note_off_c, 0, 66, 53
1, 1139187, Note_on_c, 0, 73, 55
1, 1139252, Note_off_c, 0, 69, 30
1, 1139294, Note_on_c, 0, 61, 94
1, 1139308, Note_on_c, 0, 66, 58
1, 1139326, Note_off_c, 0, 61, 63
1, 1139374, Note_off_c, 0, 73, 52
1, 1139387, Note_on_c, 0, 69, 54
1, 1139398, Note_off_c, 0, 66, 54
1, 1139474, Note_off_c, 0, 69, 56
1, 1139482, Note_on_c, 0, 73, 53
1, 1139543, Control_c, 0, 64, 33
1, 1139557, Control_c, 0, 64, 39
1, 1139572, Control_c, 0, 64, 47
1, 1139587, Control_c, 0, 64, 55
1, 1139602, Control_c, 0, 64, 61
1, 1139616, Note_on_c, 0, 61, 90
1, 1139617, Control_c, 0, 64, 67
1, 1139627, Note_on_c, 0, 65, 64
1, 1139632, Control_c, 0, 64, 75
1, 1139646, Control_c, 0, 64, 92
1, 1139661, Control_c, 0, 64, 127
1, 1139689, Note_off_c, 0, 73, 18
1, 1139704, Note_on_c, 0, 68, 66
1, 1139731, Note_off_c, 0, 61, 56
1, 1139735, Note_off_c, 0, 65, 52
1, 1139809, Note_on_c, 0, 73, 56
1, 1139816, Note_off_c, 0, 68, 49
1, 1139914, Note_on_c, 0, 65, 54
1, 1139985, Note_off_c, 0, 73, 31
1, 1139998, Note_on_c, 0, 68, 53
1, 1140000, Note_off_c, 0, 65, 57
1, 1140097, Note_on_c, 0, 73, 53
1, 1140123, Note_off_c, 0, 68, 34
1, 1140219, Note_on_c, 0, 61, 79
1, 1140230, Note_on_c, 0, 68, 74
1, 1140253, Note_off_c, 0, 61, 55
1, 1140260, Control_c, 0, 64, 86
1, 1140275, Control_c, 0, 64, 67
1, 1140289, Control_c, 0, 64, 49
1, 1140297, Note_off_c, 0, 73, 43
1, 1140305, Control_c, 0, 64, 0
1, 1140319, Note_off_c, 0, 68, 59
1, 1140338, Note_on_c, 0, 71, 53
1, 1140350, Note_on_c, 0, 61, 83
1, 1140403, Note_off_c, 0, 61, 60
1, 1140408, Note_on_c, 0, 73, 60
1, 1140471, Note_off_c, 0, 71, 36
1, 1140483, Note_on_c, 0, 68, 70
1, 1140486, Note_on_c, 0, 63, 79
1, 1140531, Note_off_c, 0, 63, 56
1, 1140531, Note_off_c, 0, 73, 49
1, 1140576, Note_off_c, 0, 68, 60
1, 1140576, Note_on_c, 0, 71, 68
1, 1140609, Note_on_c, 0, 65, 90
1, 1140643, Note_off_c, 0, 65, 65
1, 1140668, Note_on_c, 0, 73, 69
1, 1140707, Note_off_c, 0, 71, 54
1, 1140757, Control_c, 0, 64, 48
1, 1140772, Control_c, 0, 64, 65
1, 1140782, Note_on_c, 0, 66, 102
1, 1140787, Control_c, 0, 64, 86
1, 1140797, Note_on_c, 0, 69, 70
1, 1140799, Note_off_c, 0, 73, 61
1, 1140801, Note_off_c, 0, 66, 68
1, 1140802, Control_c, 0, 64, 127
1, 1140883, Note_off_c, 0, 69, 60
1, 1140899, Note_on_c, 0, 73, 68
1, 1140969, Note_off_c, 0, 73, 60
1, 1140981, Note_on_c, 0, 69, 58
1, 1141057, Note_off_c, 0, 69, 57
1, 1141070, Note_on_c, 0, 66, 69
1, 1141139, Note_off_c, 0, 66, 58
1, 1141158, Note_on_c, 0, 69, 52
1, 1141230, Note_off_c, 0, 69, 61
1, 1141249, Note_on_c, 0, 73, 52
1, 1141275, Note_off_c, 0, 73, 63
1, 1141356, Note_on_c, 0, 73, 87
1, 1141371, Note_on_c, 0, 54, 82
1, 1141403, Control_c, 0, 64, 114
1, 1141404, Note_off_c, 0, 54, 67
1, 1141418, Control_c, 0, 64, 76
1, 1141431, Note_off_c, 0, 73, 56
1, 1141433, Control_c, 0, 64, 58
1, 1141448, Control_c, 0, 64, 0
1, 1141467, Note_on_c, 0, 76, 66
1, 1141514, Note_on_c, 0, 54, 81
1, 1141550, Note_off_c, 0, 54, 57
1, 1141555, Note_on_c, 0, 78, 68
1, 1141581, Note_off_c, 0, 76, 57
1, 1141645, Note_on_c, 0, 73, 76
1, 1141646, Note_on_c, 0, 54, 84
1, 1141670, Note_off_c, 0, 78, 55
1, 1141694, Note_off_c, 0, 54, 60
1, 1141756, Note_on_c, 0, 76, 73
1, 1141760, Note_off_c, 0, 73, 53
1, 1141775, Note_on_c, 0, 56, 79
1, 1141783, Note_on_c, 0, 58, 73
1, 1141798, Note_off_c, 0, 56, 69
1, 1141808, Note_off_c, 0, 58, 69
1, 1141849, Note_on_c, 0, 78, 72
1, 1141861, Note_off_c, 0, 76, 59
1, 1141899, Note_off_c, 0, 78, 56
1, 1141923, Note_on_c, 0, 59, 104
1, 1141941, Note_on_c, 0, 71, 79
1, 1141967, Control_c, 0, 64, 37
1, 1141982, Control_c, 0, 64, 56
1, 1141997, Control_c, 0, 64, 68
1, 1142011, Control_c, 0, 64, 83
1, 1142026, Control_c, 0, 64, 127
1, 1142034, Note_on_c, 0, 74, 80
1, 1142052, Note_off_c, 0, 71, 57
1, 1142054, Note_off_c, 0, 59, 59
1, 1142117, Note_on_c, 0, 78, 67
1, 1142150, Note_off_c, 0, 74, 60
1, 1142216, Note_on_c, 0, 71, 66
1, 1142260, Note_off_c, 0, 78, 47
1, 1142302, Note_on_c, 0, 74, 67
1, 1142319, Note_off_c, 0, 71, 57
1, 1142371, Note_off_c, 0, 74, 61
1, 1142385, Note_on_c, 0, 78, 63
1, 1142413, Note_off_c, 0, 78, 66
1, 1142503, Note_on_c, 0, 78, 88
1, 1142510, Note_on_c, 0, 47, 88
1, 1142559, Note_off_c, 0, 47, 64
1, 1142600, Note_on_c, 0, 83, 72
1, 1142615, Note_off_c, 0, 78, 59
1, 1142640, Note_on_c, 0, 47, 91
1, 1142675, Note_on_c, 0, 86, 79
1, 1142686, Note_off_c, 0, 47, 65
1, 1142721, Note_off_c, 0, 83, 57
1, 1142768, Note_on_c, 0, 78, 93
1, 1142775, Control_c, 0, 64, 84
1, 1142778, Note_on_c, 0, 49, 86
1, 1142789, Control_c, 0, 64, 64
1, 1142804, Control_c, 0, 64, 37
1, 1142813, Note_off_c, 0, 49, 61
1, 1142819, Control_c, 0, 64, 0
1, 1142834, Control_c, 0, 67, 19
1, 1142845, Note_off_c, 0, 86, 39
1, 1142862, Note_on_c, 0, 83, 71
1, 1142874, Note_off_c, 0, 78, 60
1, 1142900, Note_on_c, 0, 50, 82
1, 1142925, Note_off_c, 0, 50, 66
1, 1142963, Note_on_c, 0, 86, 72
1, 1143067, Note_on_c, 0, 49, 75
1, 1143080, Note_on_c, 0, 76, 71
1, 1143103, Note_off_c, 0, 83, 21
1, 1143123, Control_c, 0, 64, 54
1, 1143138, Control_c, 0, 64, 68
1, 1143153, Control_c, 0, 64, 76
1, 1143163, Note_on_c, 0, 81, 75
1, 1143163, Note_off_c, 0, 86, 38
1, 1143167, Control_c, 0, 64, 88
1, 1143182, Control_c, 0, 64, 103
1, 1143188, Note_off_c, 0, 76, 61
1, 1143197, Control_c, 0, 64, 127
1, 1143252, Note_on_c, 0, 88, 74
1, 1143300, Control_c, 0, 67, 0
1, 1143351, Note_on_c, 0, 78, 77
1, 1143360, Note_off_c, 0, 81, 31
1, 1143361, Note_on_c, 0, 50, 90
1, 1143369, Note_off_c, 0, 88, 40
1, 1143422, Note_off_c, 0, 49, 60
1, 1143429, Note_on_c, 0, 81, 76
1, 1143464, Note_off_c, 0, 78, 55
1, 1143546, Note_on_c, 0, 86, 69
1, 1143613, Control_c, 0, 64, 104
1, 1143635, Control_c, 0, 64, 90
1, 1143643, Note_off_c, 0, 81, 38
1, 1143650, Control_c, 0, 64, 78
1, 1143657, Note_on_c, 0, 52, 81
1, 1143664, Control_c, 0, 64, 66
1, 1143679, Control_c, 0, 64, 53
1, 1143679, Control_c, 0, 67, 19
1, 1143681, Note_off_c, 0, 50, 57
1, 1143682, Note_on_c, 0, 76, 66
1, 1143694, Control_c, 0, 64, 0
1, 1143703, Note_off_c, 0, 52, 59
1, 1143709, Control_c, 0, 67, 22
1, 1143738, Control_c, 0, 67, 28
1, 1143753, Control_c, 0, 67, 37
1, 1143760, Note_off_c, 0, 86, 24
1, 1143768, Control_c, 0, 67, 52
1, 1143770, Note_on_c, 0, 81, 61
1, 1143783, Control_c, 0, 67, 72
1, 1143797, Note_off_c, 0, 76, 54
1, 1143798, Control_c, 0, 67, 90
1, 1143813, Control_c, 0, 67, 106
1, 1143828, Control_c, 0, 67, 115
1, 1143843, Control_c, 0, 67, 122
1, 1143857, Control_c, 0, 67, 127
1, 1143859, Note_on_c, 0, 85, 56
1, 1143893, Note_off_c, 0, 81, 59
1, 1143938, Note_off_c, 0, 85, 61
1, 1143964, Note_on_c, 0, 52, 61
1, 1143970, Note_on_c, 0, 76, 58
1, 1143998, Note_off_c, 0, 52, 64
1, 1144060, Note_on_c, 0, 80, 61
1, 1144096, Note_off_c, 0, 76, 46
1, 1144158, Note_on_c, 0, 83, 54
1, 1144160, Note_off_c, 0, 80, 58
1, 1144243, Note_off_c, 0, 83, 59
1, 1144266, Note_on_c, 0, 81, 55
1, 1144272, Control_c, 0, 64, 40
1, 1144272, Note_on_c, 0, 45, 45
1, 1144287, Control_c, 0, 64, 56
1, 1144302, Control_c, 0, 64, 63
1, 1144317, Control_c, 0, 64, 67
1, 1144332, Control_c, 0, 64, 74
1, 1144342, Note_off_c, 0, 45, 59
1, 1144343, Note_off_c, 0, 81, 60
1, 1144346, Control_c, 0, 64, 81
1, 1144350, Note_on_c, 0, 85, 55
1, 1144361, Control_c, 0, 64, 89
1, 1144384, Control_c, 0, 64, 96
1, 1144399, Control_c, 0, 64, 104
1, 1144413, Control_c, 0, 64, 114
1, 1144428, Control_c, 0, 64, 127
1, 1144457, Note_on_c, 0, 81, 62
1, 1144487, Note_off_c, 0, 85, 34
1, 1144491, Note_off_c, 0, 81, 58
1, 1144553, Note_on_c, 0, 76, 55
1, 1144586, Note_off_c, 0, 76, 55
1, 1144647, Note_on_c, 0, 73, 53
1, 1144743, Note_on_c, 0, 69, 49
1, 1144754, Control_c, 0, 64, 103
1, 1144769, Control_c, 0, 64, 84
1, 1144776, Note_off_c, 0, 73, 34
1, 1144784, Control_c, 0, 64, 69
1, 1144799, Control_c, 0, 64, 58
1, 1144813, Control_c, 0, 64, 47
1, 1144817, Note_off_c, 0, 69, 54
1, 1144828, Control_c, 0, 64, 53
1, 1144838, Note_on_c, 0, 57, 34
1, 1144841, Note_on_c, 0, 64, 33
1, 1144843, Control_c, 0, 64, 59
1, 1144858, Control_c, 0, 64, 64
1, 1144867, Note_on_c, 0, 61, 22
1, 1144870, Note_on_c, 0, 76, 44
1, 1144873, Control_c, 0, 64, 71
1, 1144887, Control_c, 0, 64, 78
1, 1144902, Control_c, 0, 64, 87
1, 1144909, Note_off_c, 0, 57, 55
1, 1144917, Control_c, 0, 64, 92
1, 1144922, Note_off_c, 0, 64, 61
1, 1144923, Note_off_c, 0, 61, 44
1, 1144931, Control_c, 0, 64, 95
1, 1144960, Note_off_c, 0, 76, 37
1, 1144966, Note_on_c, 0, 73, 44
1, 1145064, Note_off_c, 0, 73, 33
1, 1145072, Note_on_c, 0, 69, 38
1, 1145166, Note_on_c, 0, 57, 30
1, 1145170, Note_off_c, 0, 69, 38
1, 1145171, Note_on_c, 0, 61, 36
1, 1145173, Note_on_c, 0, 64, 33
1, 1145178, Note_on_c, 0, 76, 38
1, 1145201, Note_off_c, 0, 57, 53
1, 1145203, Note_off_c, 0, 64, 54
1, 1145214, Note_off_c, 0, 61, 61
1, 1145243, Note_on_c, 0, 73, 42
1, 1145302, Note_off_c, 0, 76, 25
1, 1145339, Note_off_c, 0, 73, 34
1, 1145346, Note_on_c, 0, 69, 38
1, 1145414, Control_c, 0, 64, 92
1, 1145428, Control_c, 0, 64, 81
1, 1145443, Control_c, 0, 64, 69
1, 1145453, Note_off_c, 0, 69, 35
1, 1145454, Note_on_c, 0, 68, 48
1, 1145455, Note_on_c, 0, 64, 35
1, 1145456, Note_on_c, 0, 57, 34
1, 1145458, Note_on_c, 0, 62, 40
1, 1145458, Control_c, 0, 64, 56
1, 1145473, Control_c, 0, 64, 0
1, 1145518, Control_c, 0, 64, 47
1, 1145533, Control_c, 0, 64, 62
1, 1145533, Note_off_c, 0, 68, 59
1, 1145548, Control_c, 0, 64, 69
1, 1145548, Control_c, 0, 67, 108
1, 1145561, Note_on_c, 0, 71, 48
1, 1145562, Control_c, 0, 64, 77
1, 1145562, Control_c, 0, 67, 76
1, 1145577, Control_c, 0, 64, 85
1, 1145577, Control_c, 0, 67, 35
1, 1145592, Control_c, 0, 64, 92
1, 1145592, Control_c, 0, 67, 0
1, 1145607, Control_c, 0, 64, 97
1, 1145622, Control_c, 0, 64, 104
1, 1145636, Control_c, 0, 64, 116
1, 1145651, Control_c, 0, 64, 127
1, 1145655, Note_on_c, 0, 76, 54
1, 1145709, Note_off_c, 0, 71, 35
1, 1145710, Note_off_c, 0, 57, 42
1, 1145713, Note_off_c, 0, 64, 55
1, 1145737, Note_on_c, 0, 68, 67
1, 1145790, Note_off_c, 0, 76, 28
1, 1145802, Note_off_c, 0, 62, 36
1, 1145828, Note_on_c, 0, 71, 68
1, 1145842, Note_off_c, 0, 68, 58
1, 1145912, Note_on_c, 0, 76, 80
1, 1145923, Note_off_c, 0, 71, 62
1, 1145956, Note_off_c, 0, 76, 60
1, 1146022, Note_on_c, 0, 62, 58
1, 1146022, Note_on_c, 0, 64, 60
1, 1146031, Note_on_c, 0, 57, 52
1, 1146031, Control_c, 0, 64, 87
1, 1146038, Note_on_c, 0, 76, 77
1, 1146046, Control_c, 0, 64, 68
1, 1146060, Control_c, 0, 64, 55
1, 1146075, Control_c, 0, 64, 53
1, 1146090, Control_c, 0, 64, 59
1, 1146105, Control_c, 0, 64, 63
1, 1146120, Control_c, 0, 64, 68
1, 1146124, Note_on_c, 0, 80, 85
1, 1146134, Control_c, 0, 64, 81
1, 1146148, Note_off_c, 0, 76, 60
1, 1146149, Control_c, 0, 64, 101
1, 1146164, Control_c, 0, 64, 127
1, 1146169, Note_off_c, 0, 57, 53
1, 1146178, Note_off_c, 0, 64, 59
1, 1146200, Note_off_c, 0, 62, 56
1, 1146206, Note_on_c, 0, 83, 81
1, 1146222, Note_off_c, 0, 80, 64
1, 1146243, Note_off_c, 0, 83, 63
1, 1146306, Note_on_c, 0, 88, 90
1, 1146308, Note_on_c, 0, 64, 55
1, 1146311, Note_on_c, 0, 57, 47
1, 1146319, Note_on_c, 0, 62, 57
1, 1146356, Note_off_c, 0, 57, 58
1, 1146387, Note_off_c, 0, 64, 56
1, 1146388, Note_on_c, 0, 92, 79
1, 1146411, Note_off_c, 0, 88, 63
1, 1146484, Note_on_c, 0, 95, 80
1, 1146498, Note_off_c, 0, 92, 60
1, 1146529, Note_off_c, 0, 95, 63
1, 1146552, Note_off_c, 0, 62, 56
1, 1146585, Note_on_c, 0, 64, 32
1, 1146588, Note_on_c, 0, 57, 43
1, 1146592, Control_c, 0, 64, 99
1, 1146592, Control_c, 0, 67, 22
1, 1146601, Note_on_c, 0, 93, 70
1, 1146607, Control_c, 0, 64, 74
1, 1146607, Control_c, 0, 67, 26
1, 1146615, Note_on_c, 0, 61, 34
1, 1146630, Control_c, 0, 64, 57
1, 1146630, Control_c, 0, 67, 31
1, 1146645, Control_c, 0, 64, 39
1, 1146645, Control_c, 0, 67, 39
1, 1146659, Control_c, 0, 64, 37
1, 1146659, Control_c, 0, 67, 50
1, 1146674, Control_c, 0, 64, 41
1, 1146674, Control_c, 0, 67, 66
1, 1146678, Note_off_c, 0, 93, 48
1, 1146689, Control_c, 0, 64, 50
1, 1146689, Control_c, 0, 67, 80
1, 1146704, Control_c, 0, 64, 57
1, 1146704, Control_c, 0, 67, 94
1, 1146706, Note_on_c, 0, 88, 63
1, 1146719, Control_c, 0, 64, 62
1, 1146719, Control_c, 0, 67, 111
1, 1146734, Control_c, 0, 64, 69
1, 1146734, Control_c, 0, 67, 127
1, 1146749, Control_c, 0, 64, 78
1, 1146764, Control_c, 0, 64, 92
1, 1146779, Control_c, 0, 64, 111
1, 1146794, Control_c, 0, 64, 127
1, 1146818, Note_on_c, 0, 85, 59
1, 1146824, Note_off_c, 0, 64, 38
1, 1146840, Note_off_c, 0, 88, 57
1, 1146873, Note_off_c, 0, 85, 61
1, 1146874, Note_off_c, 0, 57, 33
1, 1146910, Note_on_c, 0, 81, 56
1, 1146913, Note_off_c, 0, 61, 40
1, 1146931, Note_off_c, 0, 81, 60
1, 1147011, Note_on_c, 0, 76, 59
1, 1147081, Note_off_c, 0, 76, 55
1, 1147100, Note_on_c, 0, 73, 55
1, 1147163, Control_c, 0, 64, 85
1, 1147175, Note_off_c, 0, 73, 53
1, 1147178, Control_c, 0, 64, 66
1, 1147193, Control_c, 0, 64, 43
1, 1147208, Control_c, 0, 64, 0
1, 1147213, Note_on_c, 0, 76, 51
1, 1147217, Note_on_c, 0, 64, 30
1, 1147238, Note_on_c, 0, 61, 19
1, 1147253, Control_c, 0, 64, 44
1, 1147255, Poly_aftertouch_c, 0, 57, 127
1, 1147267, Control_c, 0, 64, 57
1, 1147282, Control_c, 0, 64, 66
1, 1147297, Control_c, 0, 64, 73
1, 1147297, Note_off_c, 0, 76, 52
1, 1147302, Poly_aftertouch_c, 0, 57, 0
1, 1147305, Note_off_c, 0, 64, 59
1, 1147306, Note_on_c, 0, 73, 51
1, 1147306, Note_off_c, 0, 61, 56
1, 1147312, Control_c, 0, 64, 80
1, 1147326, Control_c, 0, 64, 83
1, 1147341, Control_c, 0, 64, 84
1, 1147353, Note_off_c, 0, 73, 52
1, 1147356, Control_c, 0, 64, 86
1, 1147378, Control_c, 0, 64, 88
1, 1147393, Control_c, 0, 64, 91
1, 1147408, Control_c, 0, 64, 94
1, 1147423, Control_c, 0, 64, 96
1, 1147432, Note_on_c, 0, 69, 39
1, 1147504, Note_off_c, 0, 69, 37
1, 1147531, Note_on_c, 0, 76, 51
1, 1147539, Note_on_c, 0, 57, 36
1, 1147539, Note_on_c, 0, 64, 38
1, 1147547, Note_on_c, 0, 61, 41
1, 1147578, Note_off_c, 0, 64, 49
1, 1147581, Note_off_c, 0, 57, 48
1, 1147587, Note_off_c, 0, 76, 51
1, 1147619, Note_on_c, 0, 73, 47
1, 1147691, Note_off_c, 0, 73, 39
1, 1147727, Note_on_c, 0, 69, 45
1, 1147822, Note_off_c, 0, 61, 51
1, 1147823, Control_c, 0, 64, 86
1, 1147838, Control_c, 0, 64, 73
1, 1147846, Note_on_c, 0, 68, 50
1, 1147846, Note_off_c, 0, 69, 35
1, 1147850, Note_on_c, 0, 62, 40
1, 1147853, Control_c, 0, 64, 60
1, 1147855, Note_on_c, 0, 64, 35
1, 1147868, Control_c, 0, 64, 0
1, 1147871, Note_on_c, 0, 57, 27
1, 1147923, Note_off_c, 0, 68, 57
1, 1147941, Control_c, 0, 64, 50
1, 1147941, Control_c, 0, 67, 103
1, 1147947, Note_on_c, 0, 71, 51
1, 1147956, Control_c, 0, 64, 63
1, 1147956, Control_c, 0, 67, 68
1, 1147971, Control_c, 0, 64, 70
1, 1147971, Control_c, 0, 67, 31
1, 1147986, Control_c, 0, 64, 77
1, 1147986, Control_c, 0, 67, 0
1, 1148001, Control_c, 0, 64, 83
1, 1148016, Control_c, 0, 64, 86
1, 1148031, Control_c, 0, 64, 90
1, 1148040, Note_on_c, 0, 76, 64
1, 1148046, Control_c, 0, 64, 94
1, 1148058, Note_off_c, 0, 71, 58
1, 1148061, Control_c, 0, 64, 100
1, 1148076, Control_c, 0, 64, 108
1, 1148086, Note_off_c, 0, 64, 62
1, 1148090, Control_c, 0, 64, 120
1, 1148102, Note_off_c, 0, 57, 42
1, 1148105, Control_c, 0, 64, 127
1, 1148133, Note_on_c, 0, 68, 74
1, 1148149, Note_off_c, 0, 62, 60
1, 1148152, Note_off_c, 0, 76, 36
1, 1148223, Note_on_c, 0, 71, 74
1, 1148254, Note_off_c, 0, 68, 61
1, 1148311, Note_on_c, 0, 76, 77
1, 1148314, Note_off_c, 0, 71, 65
1, 1148350, Note_off_c, 0, 76, 60
1, 1148414, Note_on_c, 0, 62, 69
1, 1148420, Note_on_c, 0, 57, 60
1, 1148421, Note_on_c, 0, 76, 79
1, 1148421, Note_on_c, 0, 64, 69
1, 1148425, Control_c, 0, 64, 98
1, 1148440, Control_c, 0, 64, 72
1, 1148454, Control_c, 0, 64, 54
1, 1148469, Control_c, 0, 64, 43
1, 1148484, Control_c, 0, 64, 52
1, 1148499, Control_c, 0, 64, 60
1, 1148508, Note_on_c, 0, 80, 85
1, 1148514, Control_c, 0, 64, 65
1, 1148529, Control_c, 0, 64, 73
1, 1148532, Note_off_c, 0, 76, 62
1, 1148544, Control_c, 0, 64, 88
1, 1148558, Control_c, 0, 64, 127
1, 1148570, Note_off_c, 0, 57, 55
1, 1148574, Note_off_c, 0, 64, 59
1, 1148590, Note_on_c, 0, 83, 88
1, 1148603, Note_off_c, 0, 62, 60
1, 1148612, Note_off_c, 0, 80, 64
1, 1148633, Note_off_c, 0, 83, 66
1, 1148702, Note_on_c, 0, 88, 89
1, 1148717, Note_on_c, 0, 57, 47
1, 1148719, Note_on_c, 0, 64, 57
1, 1148727, Note_on_c, 0, 62, 56
1, 1148769, Note_off_c, 0, 57, 55
1, 1148788, Note_off_c, 0, 64, 51
1, 1148790, Note_on_c, 0, 92, 79
1, 1148810, Note_off_c, 0, 88, 55
1, 1148892, Note_on_c, 0, 95, 76
1, 1148910, Note_off_c, 0, 92, 60
1, 1148939, Note_off_c, 0, 95, 63
1, 1148976, Note_off_c, 0, 62, 58
1, 1148994, Note_on_c, 0, 64, 42
1, 1148999, Note_on_c, 0, 57, 40
1, 1149004, Note_on_c, 0, 61, 36
1, 1149010, Control_c, 0, 64, 81
1, 1149016, Note_on_c, 0, 93, 66
1, 1149025, Control_c, 0, 64, 61
1, 1149040, Control_c, 0, 64, 47
1, 1149054, Control_c, 0, 64, 52
1, 1149069, Control_c, 0, 64, 59
1, 1149084, Control_c, 0, 64, 63
1, 1149098, Note_off_c, 0, 93, 61
1, 1149100, Control_c, 0, 64, 67
1, 1149109, Note_on_c, 0, 88, 67
1, 1149115, Control_c, 0, 64, 76
1, 1149129, Control_c, 0, 64, 95
1, 1149144, Control_c, 0, 64, 127
1, 1149167, Note_off_c, 0, 64, 57
1, 1149200, Note_on_c, 0, 85, 79
1, 1149235, Note_off_c, 0, 88, 62
1, 1149259, Note_off_c, 0, 57, 36
1, 1149285, Note_off_c, 0, 61, 62
1, 1149288, Note_off_c, 0, 85, 64
1, 1149295, Note_on_c, 0, 81, 75
1, 1149318, Note_off_c, 0, 81, 70
1, 1149384, Note_on_c, 0, 76, 86
1, 1149475, Note_on_c, 0, 73, 87
1, 1149494, Note_off_c, 0, 76, 65
1, 1149533, Note_off_c, 0, 73, 65
1, 1149559, Control_c, 0, 64, 100
1, 1149574, Control_c, 0, 64, 71
1, 1149581, Note_on_c, 0, 62, 77
1, 1149584, Note_on_c, 0, 64, 77
1, 1149585, Note_on_c, 0, 57, 72
1, 1149587, Note_on_c, 0, 76, 84
1, 1149589, Control_c, 0, 64, 43
1, 1149603, Control_c, 0, 64, 0
1, 1149640, Control_c, 0, 64, 35
1, 1149655, Control_c, 0, 64, 52
1, 1149670, Control_c, 0, 64, 64
1, 1149685, Control_c, 0, 64, 73
1, 1149685, Note_on_c, 0, 80, 92
1, 1149695, Note_off_c, 0, 76, 60
1, 1149700, Control_c, 0, 64, 87
1, 1149715, Control_c, 0, 64, 127
1, 1149742, Note_off_c, 0, 64, 61
1, 1149751, Note_off_c, 0, 57, 56
1, 1149773, Note_on_c, 0, 83, 90
1, 1149775, Note_off_c, 0, 62, 61
1, 1149797, Note_off_c, 0, 80, 65
1, 1149813, Note_off_c, 0, 83, 68
1, 1149864, Note_on_c, 0, 64, 70
1, 1149869, Note_on_c, 0, 57, 60
1, 1149870, Note_on_c, 0, 62, 71
1, 1149875, Note_on_c, 0, 88, 98
1, 1149955, Note_on_c, 0, 92, 84
1, 1149959, Note_off_c, 0, 64, 57
1, 1149959, Note_off_c, 0, 57, 57
1, 1149981, Note_off_c, 0, 88, 63
1, 1150049, Note_on_c, 0, 95, 89
1, 1150080, Note_off_c, 0, 92, 64
1, 1150101, Note_off_c, 0, 95, 65
1, 1150108, Note_off_c, 0, 62, 60
1, 1150139, Note_on_c, 0, 61, 55
1, 1150144, Note_on_c, 0, 64, 49
1, 1150146, Note_on_c, 0, 57, 46
1, 1150159, Control_c, 0, 64, 110
1, 1150163, Note_on_c, 0, 93, 91
1, 1150174, Control_c, 0, 64, 75
1, 1150189, Control_c, 0, 64, 58
1, 1150204, Control_c, 0, 64, 42
1, 1150219, Control_c, 0, 64, 52
1, 1150232, Note_off_c, 0, 64, 58
1, 1150234, Control_c, 0, 64, 60
1, 1150246, Note_on_c, 0, 88, 93
1, 1150249, Control_c, 0, 64, 67
1, 1150263, Control_c, 0, 64, 78
1, 1150276, Note_off_c, 0, 93, 64
1, 1150278, Control_c, 0, 64, 114
1, 1150293, Control_c, 0, 64, 127
1, 1150325, Note_off_c, 0, 57, 37
1, 1150339, Note_on_c, 0, 85, 89
1, 1150400, Note_off_c, 0, 88, 61
1, 1150435, Note_off_c, 0, 85, 65
1, 1150438, Note_on_c, 0, 81, 81
1, 1150463, Note_off_c, 0, 81, 67
1, 1150521, Note_on_c, 0, 76, 91
1, 1150606, Note_on_c, 0, 73, 89
1, 1150628, Note_off_c, 0, 76, 66
1, 1150685, Control_c, 0, 64, 88
1, 1150696, Note_off_c, 0, 73, 57
1, 1150701, Control_c, 0, 64, 66
1, 1150716, Control_c, 0, 64, 36
1, 1150720, Note_on_c, 0, 76, 86
1, 1150726, Note_off_c, 0, 61, 60
1, 1150729, Note_on_c, 0, 62, 65
1, 1150731, Control_c, 0, 64, 0
1, 1150734, Note_on_c, 0, 64, 63
1, 1150737, Note_on_c, 0, 57, 61
1, 1150746, Control_c, 0, 64, 42
1, 1150761, Control_c, 0, 64, 56
1, 1150775, Control_c, 0, 64, 65
1, 1150790, Control_c, 0, 64, 76
1, 1150805, Control_c, 0, 64, 97
1, 1150814, Note_on_c, 0, 80, 92
1, 1150820, Control_c, 0, 64, 127
1, 1150836, Note_off_c, 0, 76, 64
1, 1150863, Note_off_c, 0, 64, 60
1, 1150870, Note_off_c, 0, 57, 49
1, 1150881, Note_off_c, 0, 62, 59
1, 1150902, Note_on_c, 0, 83, 90
1, 1150925, Note_off_c, 0, 80, 64
1, 1150941, Note_off_c, 0, 83, 67
1, 1150985, Note_on_c, 0, 64, 69
1, 1150991, Note_on_c, 0, 62, 72
1, 1151006, Note_on_c, 0, 57, 52
1, 1151007, Note_on_c, 0, 88, 98
1, 1151053, Note_off_c, 0, 57, 53
1, 1151086, Note_on_c, 0, 92, 85
1, 1151122, Note_off_c, 0, 88, 62
1, 1151122, Note_off_c, 0, 64, 38
1, 1151176, Note_on_c, 0, 93, 18
1, 1151190, Note_on_c, 0, 95, 89
1, 1151206, Note_off_c, 0, 93, 57
1, 1151210, Note_off_c, 0, 92, 64
1, 1151235, Note_off_c, 0, 95, 65
1, 1151250, Note_off_c, 0, 62, 60
1, 1151280, Note_on_c, 0, 64, 50
1, 1151282, Note_on_c, 0, 61, 46
1, 1151285, Note_on_c, 0, 57, 46
1, 1151286, Control_c, 0, 64, 97
1, 1151292, Note_on_c, 0, 93, 87
1, 1151301, Control_c, 0, 64, 71
1, 1151316, Control_c, 0, 64, 51
1, 1151331, Control_c, 0, 64, 47
1, 1151346, Control_c, 0, 64, 57
1, 1151360, Control_c, 0, 64, 64
1, 1151373, Note_off_c, 0, 57, 57
1, 1151375, Control_c, 0, 64, 75
1, 1151384, Note_on_c, 0, 88, 91
1, 1151390, Control_c, 0, 64, 103
1, 1151405, Control_c, 0, 64, 127
1, 1151421, Note_off_c, 0, 93, 64
1, 1151429, Note_off_c, 0, 64, 55
1, 1151474, Note_on_c, 0, 85, 88
1, 1151507, Note_off_c, 0, 61, 57
1, 1151536, Note_off_c, 0, 88, 64
1, 1151541, Poly_aftertouch_c, 0, 64, 127
1, 1151557, Note_on_c, 0, 81, 82
1, 1151563, Note_off_c, 0, 85, 64
1, 1151601, Note_off_c, 0, 81, 63
1, 1151656, Note_on_c, 0, 76, 84
1, 1151721, Poly_aftertouch_c, 0, 64, 0
1, 1151743, Note_on_c, 0, 73, 77
1, 1151762, Note_off_c, 0, 76, 61
1, 1151887, Control_c, 0, 64, 95
1, 1151902, Control_c, 0, 64, 75
1, 1151910, Note_on_c, 0, 61, 22
1, 1151916, Control_c, 0, 64, 61
1, 1151931, Control_c, 0, 64, 36
1, 1151946, Control_c, 0, 64, 0
1, 1151946, Control_c, 0, 67, 21
1, 1151961, Control_c, 0, 67, 24
1, 1151976, Control_c, 0, 67, 29
1, 1151984, Note_off_c, 0, 73, 59
1, 1151990, Control_c, 0, 67, 35
1, 1152004, Note_on_c, 0, 76, 48
1, 1152005, Control_c, 0, 67, 44
1, 1152020, Control_c, 0, 67, 55
1, 1152035, Control_c, 0, 64, 46
1, 1152035, Control_c, 0, 67, 69
1, 1152049, Control_c, 0, 64, 62
1, 1152049, Control_c, 0, 67, 83
1, 1152064, Control_c, 0, 64, 70
1, 1152064, Control_c, 0, 67, 99
1, 1152079, Control_c, 0, 64, 78
1, 1152079, Control_c, 0, 67, 111
1, 1152094, Control_c, 0, 64, 86
1, 1152094, Control_c, 0, 67, 122
1, 1152109, Control_c, 0, 64, 95
1, 1152109, Control_c, 0, 67, 127
1, 1152124, Control_c, 0, 64, 102
1, 1152130, Note_on_c, 0, 64, 34
1, 1152138, Control_c, 0, 64, 109
1, 1152153, Control_c, 0, 64, 117
1, 1152168, Control_c, 0, 64, 127
1, 1152169, Note_off_c, 0, 61, 40
1, 1152189, Note_off_c, 0, 76, 57
1, 1152237, Note_on_c, 0, 69, 35
1, 1152266, Note_off_c, 0, 64, 33
1, 1152347, Note_on_c, 0, 61, 27
1, 1152362, Note_on_c, 0, 76, 50
1, 1152374, Note_off_c, 0, 69, 29
1, 1152446, Note_off_c, 0, 76, 53
1, 1152451, Note_off_c, 0, 61, 35
1, 1152453, Note_on_c, 0, 64, 38
1, 1152512, Note_off_c, 0, 64, 53
1, 1152562, Note_on_c, 0, 69, 31
1, 1152636, Control_c, 0, 64, 105
1, 1152651, Control_c, 0, 64, 85
1, 1152665, Control_c, 0, 64, 71
1, 1152669, Note_on_c, 0, 76, 50
1, 1152676, Note_on_c, 0, 59, 24
1, 1152680, Control_c, 0, 64, 62
1, 1152684, Note_off_c, 0, 69, 41
1, 1152695, Control_c, 0, 64, 58
1, 1152710, Control_c, 0, 64, 61
1, 1152725, Control_c, 0, 64, 64
1, 1152739, Control_c, 0, 64, 69
1, 1152754, Control_c, 0, 64, 76
1, 1152769, Control_c, 0, 64, 85
1, 1152784, Control_c, 0, 64, 93
1, 1152799, Control_c, 0, 64, 101
1, 1152809, Note_off_c, 0, 59, 35
1, 1152814, Control_c, 0, 64, 105
1, 1152817, Note_on_c, 0, 62, 37
1, 1152828, Control_c, 0, 64, 109
1, 1152843, Control_c, 0, 64, 113
1, 1152858, Control_c, 0, 64, 117
1, 1152872, Control_c, 0, 64, 119
1, 1152880, Note_off_c, 0, 62, 41
1, 1152887, Control_c, 0, 64, 125
1, 1152902, Control_c, 0, 64, 127
1, 1152906, Note_on_c, 0, 68, 32
1, 1152917, Note_off_c, 0, 76, 51
1, 1152952, Note_off_c, 0, 68, 46
1, 1152970, Note_on_c, 0, 59, 29
1, 1153040, Note_off_c, 0, 59, 54
1, 1153099, Note_on_c, 0, 62, 35
1, 1153150, Note_off_c, 0, 62, 43
1, 1153188, Note_on_c, 0, 68, 32
1, 1153229, Control_c, 0, 64, 106
1, 1153244, Control_c, 0, 64, 87
1, 1153259, Control_c, 0, 64, 72
1, 1153259, Note_off_c, 0, 68, 38
1, 1153262, Note_on_c, 0, 58, 36
1, 1153274, Control_c, 0, 64, 58
1, 1153276, Note_on_c, 0, 76, 53
1, 1153288, Control_c, 0, 64, 42
1, 1153319, Control_c, 0, 64, 48
1, 1153334, Control_c, 0, 64, 54
1, 1153349, Control_c, 0, 64, 60
1, 1153355, Note_off_c, 0, 58, 57
1, 1153370, Control_c, 0, 64, 67
1, 1153385, Control_c, 0, 64, 74
1, 1153398, Note_on_c, 0, 62, 41
1, 1153400, Control_c, 0, 64, 85
1, 1153415, Control_c, 0, 64, 91
1, 1153430, Control_c, 0, 64, 94
1, 1153444, Control_c, 0, 64, 96
1, 1153456, Note_off_c, 0, 76, 57
1, 1153456, Note_off_c, 0, 62, 51
1, 1153459, Control_c, 0, 64, 99
1, 1153474, Control_c, 0, 64, 102
1, 1153489, Control_c, 0, 64, 105
1, 1153503, Note_on_c, 0, 67, 27
1, 1153504, Control_c, 0, 64, 107
1, 1153519, Control_c, 0, 64, 109
1, 1153534, Control_c, 0, 64, 111
1, 1153548, Control_c, 0, 64, 113
1, 1153555, Note_off_c, 0, 67, 44
1, 1153563, Control_c, 0, 64, 116
1, 1153580, Note_on_c, 0, 76, 61
1, 1153590, Note_on_c, 0, 58, 30
1, 1153593, Control_c, 0, 64, 118
1, 1153622, Control_c, 0, 64, 120
1, 1153637, Control_c, 0, 64, 122
1, 1153641, Note_off_c, 0, 58, 46
1, 1153661, Note_off_c, 0, 76, 58
1, 1153667, Control_c, 0, 64, 125
1, 1153688, Note_on_c, 0, 62, 36
1, 1153711, Control_c, 0, 64, 127
1, 1153723, Note_off_c, 0, 62, 54
1, 1153784, Note_on_c, 0, 67, 42
1, 1153829, Control_c, 0, 64, 125
1, 1153844, Control_c, 0, 64, 110
1, 1153859, Control_c, 0, 64, 92
1, 1153864, Note_off_c, 0, 67, 36
1, 1153874, Control_c, 0, 64, 76
1, 1153889, Note_on_c, 0, 57, 33
1, 1153890, Control_c, 0, 64, 64
1, 1153902, Note_on_c, 0, 76, 52
1, 1153905, Control_c, 0, 64, 53
1, 1153919, Control_c, 0, 64, 54
1, 1153934, Control_c, 0, 64, 56
1, 1153949, Control_c, 0, 64, 59
1, 1153960, Note_off_c, 0, 57, 56
1, 1153964, Control_c, 0, 64, 63
1, 1153979, Control_c, 0, 64, 68
1, 1153993, Control_c, 0, 64, 77
1, 1153999, Note_on_c, 0, 61, 39
1, 1154008, Control_c, 0, 64, 85
1, 1154023, Control_c, 0, 64, 90
1, 1154037, Control_c, 0, 64, 93
1, 1154052, Control_c, 0, 64, 95
1, 1154059, Note_off_c, 0, 61, 53
1, 1154064, Note_off_c, 0, 76, 53
1, 1154082, Control_c, 0, 64, 98
1, 1154097, Control_c, 0, 64, 100
1, 1154119, Control_c, 0, 64, 102
1, 1154123, Note_on_c, 0, 67, 32
1, 1154149, Control_c, 0, 64, 104
1, 1154179, Control_c, 0, 64, 106
1, 1154199, Note_on_c, 0, 57, 36
1, 1154200, Note_off_c, 0, 67, 40
1, 1154208, Control_c, 0, 64, 108
1, 1154238, Control_c, 0, 64, 110
1, 1154243, Note_off_c, 0, 57, 49
1, 1154252, Control_c, 0, 64, 112
1, 1154282, Control_c, 0, 64, 114
1, 1154294, Note_on_c, 0, 61, 45
1, 1154335, Note_off_c, 0, 61, 62
1, 1154341, Control_c, 0, 64, 117
1, 1154378, Note_on_c, 0, 67, 38
1, 1154407, Note_off_c, 0, 67, 53
1, 1154416, Control_c, 0, 64, 114
1, 1154431, Control_c, 0, 64, 100
1, 1154445, Control_c, 0, 64, 83
1, 1154460, Control_c, 0, 64, 68
1, 1154475, Control_c, 0, 64, 56
1, 1154490, Control_c, 0, 64, 48
1, 1154493, Note_on_c, 0, 55, 42
1, 1154499, Note_on_c, 0, 76, 55
1, 1154505, Control_c, 0, 64, 53
1, 1154519, Control_c, 0, 64, 58
1, 1154534, Control_c, 0, 64, 63
1, 1154544, Note_off_c, 0, 76, 57
1, 1154549, Control_c, 0, 64, 69
1, 1154563, Control_c, 0, 64, 77
1, 1154574, Note_off_c, 0, 55, 62
1, 1154578, Control_c, 0, 64, 86
1, 1154593, Control_c, 0, 64, 94
1, 1154593, Control_c, 0, 67, 121
1, 1154608, Control_c, 0, 64, 98
1, 1154608, Control_c, 0, 67, 98
1, 1154619, Note_on_c, 0, 57, 43
1, 1154623, Control_c, 0, 64, 100
1, 1154623, Control_c, 0, 67, 75
1, 1154637, Control_c, 0, 64, 103
1, 1154637, Control_c, 0, 67, 53
1, 1154648, Note_on_c, 0, 76, 74
1, 1154652, Control_c, 0, 64, 109
1, 1154652, Control_c, 0, 67, 30
1, 1154667, Control_c, 0, 64, 127
1, 1154667, Control_c, 0, 67, 0
1, 1154714, Note_on_c, 0, 61, 43
1, 1154729, Note_off_c, 0, 57, 34
1, 1154742, Control_c, 0, 64, 95
1, 1154757, Control_c, 0, 64, 75
1, 1154768, Note_off_c, 0, 61, 44
1, 1154771, Note_off_c, 0, 76, 38
1, 1154772, Control_c, 0, 64, 60
1, 1154780, Note_on_c, 0, 78, 73
1, 1154787, Control_c, 0, 64, 44
1, 1154802, Control_c, 0, 64, 49
1, 1154803, Note_on_c, 0, 55, 38
1, 1154815, Control_c, 0, 64, 57
1, 1154830, Control_c, 0, 64, 63
1, 1154845, Control_c, 0, 64, 68
1, 1154866, Control_c, 0, 64, 76
1, 1154872, Note_off_c, 0, 55, 57
1, 1154881, Control_c, 0, 64, 85
1, 1154896, Control_c, 0, 64, 90
1, 1154896, Control_c, 0, 67, 20
1, 1154904, Note_off_c, 0, 78, 49
1, 1154907, Note_on_c, 0, 57, 43
1, 1154911, Control_c, 0, 64, 91
1, 1154911, Control_c, 0, 67, 22
1, 1154917, Note_on_c, 0, 79, 77
1, 1154926, Control_c, 0, 64, 92
1, 1154926, Control_c, 0, 67, 25
1, 1154941, Control_c, 0, 64, 92
1, 1154941, Control_c, 0, 67, 29
1, 1154955, Control_c, 0, 64, 93
1, 1154955, Control_c, 0, 67, 35
1, 1154970, Control_c, 0, 67, 44
1, 1154985, Control_c, 0, 67, 55
1, 1155000, Control_c, 0, 64, 92
1, 1155000, Control_c, 0, 67, 68
1, 1155009, Note_off_c, 0, 57, 35
1, 1155015, Control_c, 0, 64, 85
1, 1155015, Control_c, 0, 67, 81
1, 1155020, Note_on_c, 0, 61, 32
1, 1155030, Control_c, 0, 64, 73
1, 1155030, Control_c, 0, 67, 90
1, 1155045, Control_c, 0, 64, 62
1, 1155045, Control_c, 0, 67, 100
1, 1155060, Control_c, 0, 64, 42
1, 1155060, Control_c, 0, 67, 108
1, 1155072, Note_off_c, 0, 61, 44
1, 1155074, Control_c, 0, 64, 0
1, 1155074, Control_c, 0, 67, 116
1, 1155087, Note_off_c, 0, 79, 61
1, 1155089, Control_c, 0, 67, 124
1, 1155093, Note_on_c, 0, 54, 39
1, 1155104, Control_c, 0, 67, 127
1, 1155105, Note_on_c, 0, 81, 62
1, 1155119, Control_c, 0, 64, 39
1, 1155134, Control_c, 0, 64, 50
1, 1155148, Control_c, 0, 64, 61
1, 1155163, Control_c, 0, 64, 68
1, 1155178, Control_c, 0, 64, 76
1, 1155193, Control_c, 0, 64, 85
1, 1155208, Control_c, 0, 64, 89
1, 1155212, Note_on_c, 0, 57, 38
1, 1155222, Control_c, 0, 64, 93
1, 1155237, Control_c, 0, 64, 98
1, 1155252, Control_c, 0, 64, 107
1, 1155266, Control_c, 0, 64, 127
1, 1155271, Note_off_c, 0, 57, 52
1, 1155316, Note_on_c, 0, 62, 32
1, 1155331, Note_off_c, 0, 54, 38
1, 1155340, Control_c, 0, 64, 95
1, 1155355, Control_c, 0, 64, 75
1, 1155368, Note_off_c, 0, 62, 45
1, 1155370, Control_c, 0, 64, 61
1, 1155385, Control_c, 0, 64, 49
1, 1155400, Control_c, 0, 64, 53
1, 1155400, Note_on_c, 0, 55, 36
1, 1155410, Note_on_c, 0, 79, 60
1, 1155414, Control_c, 0, 64, 59
1, 1155417, Note_off_c, 0, 81, 52
1, 1155429, Control_c, 0, 64, 63
1, 1155444, Control_c, 0, 64, 69
1, 1155459, Control_c, 0, 64, 76
1, 1155472, Note_off_c, 0, 55, 54
1, 1155474, Control_c, 0, 64, 83
1, 1155489, Control_c, 0, 64, 90
1, 1155504, Control_c, 0, 64, 93
1, 1155505, Note_on_c, 0, 59, 46
1, 1155519, Control_c, 0, 64, 95
1, 1155534, Control_c, 0, 64, 98
1, 1155543, Note_off_c, 0, 59, 64
1, 1155549, Control_c, 0, 64, 100
1, 1155579, Control_c, 0, 64, 102
1, 1155616, Note_on_c, 0, 62, 43
1, 1155657, Note_off_c, 0, 62, 49
1, 1155661, Control_c, 0, 64, 94
1, 1155676, Control_c, 0, 64, 79
1, 1155690, Control_c, 0, 64, 64
1, 1155700, Note_on_c, 0, 78, 58
1, 1155705, Control_c, 0, 64, 48
1, 1155719, Note_off_c, 0, 79, 52
1, 1155720, Control_c, 0, 64, 43
1, 1155731, Note_on_c, 0, 57, 41
1, 1155735, Control_c, 0, 64, 49
1, 1155750, Control_c, 0, 64, 56
1, 1155764, Control_c, 0, 64, 62
1, 1155779, Control_c, 0, 64, 68
1, 1155794, Control_c, 0, 64, 77
1, 1155807, Note_off_c, 0, 57, 57
1, 1155809, Control_c, 0, 64, 84
1, 1155823, Note_on_c, 0, 62, 42
1, 1155823, Control_c, 0, 64, 89
1, 1155838, Control_c, 0, 64, 92
1, 1155853, Control_c, 0, 64, 94
1, 1155868, Control_c, 0, 64, 96
1, 1155873, Note_off_c, 0, 62, 55
1, 1155897, Control_c, 0, 64, 98
1, 1155930, Note_on_c, 0, 66, 34
1, 1155957, Control_c, 0, 64, 86
1, 1155968, Note_off_c, 0, 66, 50
1, 1155972, Control_c, 0, 64, 72
1, 1155987, Control_c, 0, 64, 59
1, 1155993, Note_on_c, 0, 57, 36
1, 1155997, Note_on_c, 0, 76, 60
1, 1156002, Control_c, 0, 64, 49
1, 1156014, Note_off_c, 0, 78, 58
1, 1156016, Control_c, 0, 64, 51
1, 1156031, Control_c, 0, 64, 55
1, 1156046, Control_c, 0, 64, 59
1, 1156061, Control_c, 0, 64, 63
1, 1156061, Note_off_c, 0, 57, 57
1, 1156076, Control_c, 0, 64, 69
1, 1156090, Control_c, 0, 64, 77
1, 1156105, Control_c, 0, 64, 84
1, 1156106, Note_on_c, 0, 61, 40
1, 1156120, Control_c, 0, 64, 87
1, 1156135, Control_c, 0, 64, 88
1, 1156148, Note_off_c, 0, 61, 61
1, 1156150, Control_c, 0, 64, 90
1, 1156164, Control_c, 0, 64, 91
1, 1156179, Control_c, 0, 64, 91
1, 1156193, Note_on_c, 0, 67, 48
1, 1156249, Note_off_c, 0, 67, 47
1, 1156253, Control_c, 0, 64, 86
1, 1156268, Control_c, 0, 64, 74
1, 1156278, Note_off_c, 0, 76, 59
1, 1156280, Note_on_c, 0, 78, 61
1, 1156284, Control_c, 0, 64, 61
1, 1156299, Control_c, 0, 64, 42
1, 1156313, Control_c, 0, 64, 35
1, 1156326, Note_on_c, 0, 62, 30
1, 1156328, Control_c, 0, 64, 42
1, 1156343, Control_c, 0, 64, 52
1, 1156365, Control_c, 0, 64, 60
1, 1156380, Control_c, 0, 64, 66
1, 1156395, Control_c, 0, 64, 75
1, 1156400, Note_off_c, 0, 62, 57
1, 1156410, Control_c, 0, 64, 84
1, 1156425, Control_c, 0, 64, 94
1, 1156431, Note_on_c, 0, 66, 44
1, 1156439, Control_c, 0, 64, 102
1, 1156449, Note_off_c, 0, 78, 63
1, 1156454, Control_c, 0, 64, 116
1, 1156466, Note_off_c, 0, 66, 51
1, 1156469, Control_c, 0, 64, 127
1, 1156484, Control_c, 0, 67, 120
1, 1156499, Control_c, 0, 67, 104
1, 1156512, Note_on_c, 0, 69, 47
1, 1156513, Control_c, 0, 67, 87
1, 1156528, Control_c, 0, 67, 73
1, 1156543, Control_c, 0, 67, 61
1, 1156558, Note_off_c, 0, 69, 58
1, 1156558, Control_c, 0, 67, 50
1, 1156573, Control_c, 0, 67, 44
1, 1156583, Note_on_c, 0, 62, 38
1, 1156587, Control_c, 0, 67, 42
1, 1156643, Note_off_c, 0, 62, 57
1, 1156677, Note_on_c, 0, 66, 47
1, 1156705, Note_off_c, 0, 66, 58
1, 1156750, Control_c, 0, 67, 42
1, 1156759, Note_on_c, 0, 69, 52
1, 1156780, Control_c, 0, 67, 43
1, 1156810, Control_c, 0, 67, 43
1, 1156820, Note_off_c, 0, 69, 53
1, 1156854, Control_c, 0, 64, 101
1, 1156863, Note_on_c, 0, 66, 29
1, 1156869, Control_c, 0, 64, 76
1, 1156884, Control_c, 0, 64, 58
1, 1156899, Control_c, 0, 64, 44
1, 1156900, Note_on_c, 0, 81, 64
1, 1156913, Control_c, 0, 64, 49
1, 1156928, Control_c, 0, 64, 54
1, 1156943, Control_c, 0, 64, 58
1, 1156957, Control_c, 0, 64, 63
1, 1156972, Control_c, 0, 64, 69
1, 1156987, Control_c, 0, 64, 84
1, 1157002, Control_c, 0, 64, 103
1, 1157017, Control_c, 0, 64, 127
1, 1157019, Note_on_c, 0, 69, 46
1, 1157027, Note_off_c, 0, 66, 42
1, 1157049, Note_off_c, 0, 81, 55
1, 1157060, Control_c, 0, 67, 43
1, 1157075, Control_c, 0, 67, 42
1, 1157114, Control_c, 0, 67, 42
1, 1157117, Note_on_c, 0, 74, 56
1, 1157124, Note_off_c, 0, 69, 46
1, 1157129, Control_c, 0, 67, 41
1, 1157143, Control_c, 0, 67, 40
1, 1157158, Control_c, 0, 67, 39
1, 1157173, Control_c, 0, 67, 37
1, 1157188, Control_c, 0, 67, 27
1, 1157193, Note_off_c, 0, 74, 46
1, 1157201, Note_on_c, 0, 81, 86
1, 1157203, Control_c, 0, 67, 0
1, 1157214, Note_on_c, 0, 66, 40
1, 1157277, Note_off_c, 0, 66, 53
1, 1157306, Note_on_c, 0, 69, 50
1, 1157340, Note_off_c, 0, 81, 50
1, 1157353, Note_off_c, 0, 69, 55
1, 1157389, Note_on_c, 0, 74, 44
1, 1157440, Note_off_c, 0, 74, 41
1, 1157498, Note_on_c, 0, 64, 39
1, 1157498, Control_c, 0, 64, 84
1, 1157513, Control_c, 0, 64, 66
1, 1157514, Note_on_c, 0, 81, 79
1, 1157528, Control_c, 0, 64, 51
1, 1157543, Control_c, 0, 64, 48
1, 1157558, Control_c, 0, 64, 54
1, 1157573, Control_c, 0, 64, 59
1, 1157587, Control_c, 0, 64, 64
1, 1157602, Control_c, 0, 64, 70
1, 1157615, Note_off_c, 0, 64, 58
1, 1157617, Control_c, 0, 64, 83
1, 1157632, Control_c, 0, 64, 106
1, 1157647, Control_c, 0, 64, 127
1, 1157652, Note_on_c, 0, 67, 38
1, 1157723, Note_off_c, 0, 67, 41
1, 1157728, Note_on_c, 0, 73, 50
1, 1157757, Note_off_c, 0, 81, 63
1, 1157777, Note_off_c, 0, 73, 55
1, 1157809, Note_on_c, 0, 64, 38
1, 1157868, Note_off_c, 0, 64, 60
1, 1157916, Note_on_c, 0, 67, 38
1, 1157964, Note_off_c, 0, 67, 51
1, 1158006, Note_on_c, 0, 73, 44
1, 1158054, Note_off_c, 0, 73, 50
1, 1158084, Control_c, 0, 64, 118
1, 1158099, Control_c, 0, 64, 83
1, 1158108, Note_on_c, 0, 63, 41
1, 1158114, Control_c, 0, 64, 66
1, 1158128, Note_on_c, 0, 81, 78
1, 1158129, Control_c, 0, 64, 55
1, 1158144, Control_c, 0, 64, 52
1, 1158158, Control_c, 0, 64, 57
1, 1158173, Control_c, 0, 64, 61
1, 1158188, Control_c, 0, 64, 65
1, 1158202, Control_c, 0, 64, 74
1, 1158208, Note_off_c, 0, 63, 59
1, 1158217, Control_c, 0, 64, 89
1, 1158232, Control_c, 0, 64, 127
1, 1158233, Note_on_c, 0, 67, 47
1, 1158264, Note_off_c, 0, 81, 59
1, 1158280, Note_off_c, 0, 67, 58
1, 1158311, Note_on_c, 0, 72, 56
1, 1158383, Note_off_c, 0, 72, 52
1, 1158423, Note_on_c, 0, 63, 45
1, 1158429, Note_on_c, 0, 81, 86
1, 1158488, Note_off_c, 0, 63, 57
1, 1158527, Note_off_c, 0, 81, 60
1, 1158527, Note_on_c, 0, 67, 45
1, 1158572, Note_off_c, 0, 67, 61
1, 1158625, Note_on_c, 0, 72, 44
1, 1158669, Note_off_c, 0, 72, 44
1, 1158730, Control_c, 0, 64, 98
1, 1158739, Note_on_c, 0, 62, 42
1, 1158745, Control_c, 0, 64, 73
1, 1158760, Note_on_c, 0, 81, 68
1, 1158760, Control_c, 0, 64, 58
1, 1158775, Control_c, 0, 64, 46
1, 1158789, Control_c, 0, 64, 52
1, 1158789, Control_c, 0, 67, 20
1, 1158804, Control_c, 0, 64, 58
1, 1158804, Control_c, 0, 67, 26
1, 1158819, Control_c, 0, 64, 62
1, 1158819, Control_c, 0, 67, 31
1, 1158834, Control_c, 0, 64, 69
1, 1158834, Control_c, 0, 67, 41
1, 1158838, Note_off_c, 0, 62, 59
1, 1158848, Control_c, 0, 64, 83
1, 1158848, Control_c, 0, 67, 59
1, 1158863, Note_on_c, 0, 66, 50
1, 1158863, Control_c, 0, 64, 127
1, 1158863, Control_c, 0, 67, 82
1, 1158878, Control_c, 0, 67, 105
1, 1158893, Control_c, 0, 67, 127
1, 1158954, Note_off_c, 0, 66, 51
1, 1158974, Note_off_c, 0, 81, 62
1, 1158975, Note_on_c, 0, 72, 23
1, 1159013, Note_on_c, 0, 62, 43
1, 1159015, Note_off_c, 0, 72, 50
1, 1159077, Note_off_c, 0, 62, 57
1, 1159112, Note_on_c, 0, 66, 46
1, 1159161, Note_off_c, 0, 66, 59
1, 1159202, Note_on_c, 0, 72, 50
1, 1159230, Note_off_c, 0, 72, 61
1, 1159278, Control_c, 0, 64, 90
1, 1159293, Control_c, 0, 64, 70
1, 1159308, Control_c, 0, 64, 56
1, 1159314, Note_on_c, 0, 60, 40
1, 1159322, Control_c, 0, 64, 51
1, 1159337, Control_c, 0, 64, 57
1, 1159352, Note_on_c, 0, 81, 66
1, 1159359, Control_c, 0, 64, 61
1, 1159374, Control_c, 0, 64, 66
1, 1159389, Control_c, 0, 64, 73
1, 1159403, Note_off_c, 0, 60, 62
1, 1159404, Control_c, 0, 64, 84
1, 1159406, Note_off_c, 0, 81, 60
1, 1159419, Control_c, 0, 64, 96
1, 1159433, Control_c, 0, 64, 106
1, 1159445, Note_on_c, 0, 62, 51
1, 1159448, Control_c, 0, 64, 116
1, 1159463, Control_c, 0, 64, 127
1, 1159488, Note_on_c, 0, 81, 83
1, 1159495, Note_off_c, 0, 62, 57
1, 1159524, Control_c, 0, 67, 121
1, 1159538, Control_c, 0, 67, 108
1, 1159547, Note_on_c, 0, 66, 50
1, 1159553, Control_c, 0, 67, 91
1, 1159568, Control_c, 0, 67, 69
1, 1159575, Note_off_c, 0, 81, 63
1, 1159581, Note_off_c, 0, 66, 51
1, 1159582, Control_c, 0, 67, 46
1, 1159597, Control_c, 0, 67, 26
1, 1159612, Control_c, 0, 67, 0
1, 1159625, Note_on_c, 0, 60, 50
1, 1159627, Note_on_c, 0, 83, 88
1, 1159694, Note_off_c, 0, 60, 57
1, 1159713, Note_off_c, 0, 83, 63
1, 1159728, Note_on_c, 0, 62, 49
1, 1159750, Note_on_c, 0, 84, 94
1, 1159782, Note_off_c, 0, 62, 51
1, 1159806, Note_on_c, 0, 66, 51
1, 1159841, Note_off_c, 0, 66, 49
1, 1159864, Control_c, 0, 64, 113
1, 1159879, Control_c, 0, 64, 75
1, 1159894, Control_c, 0, 64, 59
1, 1159897, Note_on_c, 0, 59, 42
1, 1159903, Note_on_c, 0, 86, 81
1, 1159903, Note_off_c, 0, 84, 50
1, 1159909, Control_c, 0, 64, 36
1, 1159924, Control_c, 0, 64, 37
1, 1159938, Control_c, 0, 64, 46
1, 1159953, Control_c, 0, 64, 55
1, 1159968, Control_c, 0, 64, 62
1, 1159982, Control_c, 0, 64, 71
1, 1159996, Note_off_c, 0, 59, 58
1, 1159997, Control_c, 0, 64, 85
1, 1160012, Control_c, 0, 64, 110
1, 1160018, Note_on_c, 0, 62, 48
1, 1160027, Control_c, 0, 64, 127
1, 1160058, Note_off_c, 0, 62, 62
1, 1160115, Note_on_c, 0, 67, 44
1, 1160182, Control_c, 0, 64, 88
1, 1160187, Note_off_c, 0, 67, 46
1, 1160197, Control_c, 0, 64, 68
1, 1160212, Control_c, 0, 64, 54
1, 1160217, Note_on_c, 0, 60, 42
1, 1160220, Note_on_c, 0, 84, 77
1, 1160222, Note_off_c, 0, 86, 60
1, 1160227, Control_c, 0, 64, 49
1, 1160242, Control_c, 0, 64, 55
1, 1160256, Control_c, 0, 64, 60
1, 1160271, Control_c, 0, 64, 66
1, 1160287, Control_c, 0, 64, 74
1, 1160302, Control_c, 0, 64, 87
1, 1160310, Note_off_c, 0, 60, 60
1, 1160317, Control_c, 0, 64, 104
1, 1160327, Note_on_c, 0, 64, 32
1, 1160332, Control_c, 0, 64, 125
1, 1160347, Control_c, 0, 64, 127
1, 1160357, Note_off_c, 0, 64, 54
1, 1160416, Note_on_c, 0, 67, 44
1, 1160463, Note_off_c, 0, 67, 51
1, 1160494, Control_c, 0, 64, 91
1, 1160509, Control_c, 0, 64, 72
1, 1160524, Control_c, 0, 64, 58
1, 1160527, Note_on_c, 0, 83, 60
1, 1160532, Note_off_c, 0, 84, 56
1, 1160537, Note_on_c, 0, 62, 38
1, 1160539, Control_c, 0, 64, 45
1, 1160554, Control_c, 0, 64, 50
1, 1160568, Control_c, 0, 64, 58
1, 1160583, Control_c, 0, 64, 62
1, 1160598, Control_c, 0, 64, 67
1, 1160600, Note_off_c, 0, 62, 58
1, 1160613, Control_c, 0, 64, 75
1, 1160628, Control_c, 0, 64, 86
1, 1160628, Note_on_c, 0, 67, 41
1, 1160643, Control_c, 0, 64, 99
1, 1160658, Control_c, 0, 64, 111
1, 1160662, Note_off_c, 0, 67, 61
1, 1160673, Control_c, 0, 64, 127
1, 1160727, Note_on_c, 0, 71, 42
1, 1160776, Control_c, 0, 64, 116
1, 1160786, Note_off_c, 0, 71, 55
1, 1160791, Control_c, 0, 64, 85
1, 1160805, Note_on_c, 0, 62, 41
1, 1160805, Control_c, 0, 64, 68
1, 1160820, Control_c, 0, 64, 54
1, 1160835, Control_c, 0, 64, 49
1, 1160836, Note_off_c, 0, 83, 50
1, 1160837, Note_on_c, 0, 81, 58
1, 1160858, Control_c, 0, 64, 54
1, 1160873, Control_c, 0, 64, 59
1, 1160883, Note_off_c, 0, 62, 60
1, 1160887, Control_c, 0, 64, 64
1, 1160902, Control_c, 0, 64, 69
1, 1160917, Control_c, 0, 64, 78
1, 1160931, Control_c, 0, 64, 89
1, 1160939, Note_on_c, 0, 66, 43
1, 1160946, Control_c, 0, 64, 96
1, 1160961, Control_c, 0, 64, 100
1, 1160976, Control_c, 0, 64, 104
1, 1160991, Control_c, 0, 64, 109
1, 1160995, Note_off_c, 0, 66, 39
1, 1161005, Control_c, 0, 64, 114
1, 1161020, Control_c, 0, 64, 119
1, 1161025, Note_on_c, 0, 72, 39
1, 1161065, Control_c, 0, 64, 116
1, 1161069, Note_off_c, 0, 72, 46
1, 1161081, Control_c, 0, 64, 94
1, 1161096, Control_c, 0, 64, 76
1, 1161110, Control_c, 0, 64, 62
1, 1161123, Note_off_c, 0, 81, 61
1, 1161125, Control_c, 0, 64, 45
1, 1161134, Note_on_c, 0, 83, 58
1, 1161140, Control_c, 0, 64, 40
1, 1161147, Note_on_c, 0, 63, 37
1, 1161154, Control_c, 0, 64, 45
1, 1161169, Control_c, 0, 64, 53
1, 1161184, Control_c, 0, 64, 60
1, 1161199, Control_c, 0, 64, 67
1, 1161208, Note_off_c, 0, 63, 59
1, 1161214, Control_c, 0, 64, 77
1, 1161228, Control_c, 0, 64, 95
1, 1161243, Control_c, 0, 64, 127
1, 1161265, Note_on_c, 0, 66, 39
1, 1161271, Note_off_c, 0, 83, 61
1, 1161305, Note_off_c, 0, 66, 48
1, 1161334, Note_on_c, 0, 71, 45
1, 1161380, Note_off_c, 0, 71, 52
1, 1161427, Note_on_c, 0, 63, 49
1, 1161475, Note_off_c, 0, 63, 59
1, 1161527, Note_on_c, 0, 66, 39
1, 1161561, Note_off_c, 0, 66, 43
1, 1161591, Note_on_c, 0, 71, 43
1, 1161626, Note_off_c, 0, 71, 55
1, 1161695, Control_c, 0, 64, 81
1, 1161698, Note_on_c, 0, 59, 52
1, 1161710, Control_c, 0, 64, 63
1, 1161715, Note_on_c, 0, 83, 85
1, 1161718, Note_on_c, 0, 71, 71
1, 1161725, Control_c, 0, 64, 40
1, 1161738, Note_off_c, 0, 83, 62
1, 1161740, Control_c, 0, 64, 0
1, 1161745, Note_off_c, 0, 71, 66
1, 1161834, Note_on_c, 0, 63, 42
1, 1161847, Note_on_c, 0, 83, 81
1, 1161856, Note_on_c, 0, 71, 69
1, 1161872, Note_off_c, 0, 83, 62
1, 1161874, Note_off_c, 0, 71, 66
1, 1161886, Note_off_c, 0, 63, 60
1, 1161907, Note_on_c, 0, 66, 53
1, 1161936, Note_off_c, 0, 59, 60
1, 1161954, Note_off_c, 0, 66, 57
1, 1161978, Note_on_c, 0, 57, 54
1, 1161983, Note_on_c, 0, 85, 84
1, 1161987, Note_on_c, 0, 73, 79
1, 1162008, Note_off_c, 0, 73, 70
1, 1162012, Note_off_c, 0, 85, 57
1, 1162074, Note_off_c, 0, 57, 60
1, 1162077, Note_on_c, 0, 59, 50
1, 1162110, Note_on_c, 0, 87, 89
1, 1162121, Note_on_c, 0, 75, 65
1, 1162141, Note_off_c, 0, 75, 64
1, 1162162, Note_on_c, 0, 66, 50
1, 1162166, Note_off_c, 0, 87, 39
1, 1162213, Note_off_c, 0, 66, 58
1, 1162220, Note_off_c, 0, 59, 56
1, 1162250, Note_on_c, 0, 56, 46
1, 1162266, Note_on_c, 0, 88, 94
1, 1162269, Note_on_c, 0, 76, 84
1, 1162288, Control_c, 0, 64, 56
1, 1162303, Control_c, 0, 64, 70
1, 1162318, Control_c, 0, 64, 86
1, 1162333, Control_c, 0, 64, 127
1, 1162358, Note_on_c, 0, 59, 55
1, 1162360, Note_off_c, 0, 76, 62
1, 1162366, Note_off_c, 0, 56, 58
1, 1162402, Note_off_c, 0, 88, 63
1, 1162470, Note_on_c, 0, 64, 58
1, 1162534, Note_off_c, 0, 59, 36
1, 1162567, Note_off_c, 0, 64, 55
1, 1162569, Note_on_c, 0, 56, 58
1, 1162639, Note_off_c, 0, 56, 58
1, 1162642, Note_on_c, 0, 59, 59
1, 1162693, Note_off_c, 0, 59, 58
1, 1162745, Note_on_c, 0, 64, 50
1, 1162766, Note_off_c, 0, 64, 62
1, 1162833, Note_on_c, 0, 52, 57
1, 1162840, Note_on_c, 0, 88, 101
1, 1162845, Note_on_c, 0, 76, 88
1, 1162845, Control_c, 0, 64, 88
1, 1162860, Control_c, 0, 64, 65
1, 1162867, Note_off_c, 0, 76, 66
1, 1162874, Control_c, 0, 64, 44
1, 1162886, Note_off_c, 0, 88, 63
1, 1162889, Control_c, 0, 64, 0
1, 1162933, Note_off_c, 0, 52, 61
1, 1162941, Note_on_c, 0, 56, 53
1, 1162979, Note_on_c, 0, 76, 88
1, 1162981, Note_on_c, 0, 88, 90
1, 1162982, Note_off_c, 0, 56, 64
1, 1162996, Note_off_c, 0, 76, 72
1, 1163001, Note_off_c, 0, 88, 67
1, 1163016, Note_on_c, 0, 59, 60
1, 1163111, Note_off_c, 0, 59, 58
1, 1163117, Note_on_c, 0, 50, 60
1, 1163125, Note_on_c, 0, 90, 91
1, 1163126, Note_on_c, 0, 78, 87
1, 1163144, Note_off_c, 0, 78, 71
1, 1163156, Note_off_c, 0, 90, 60
1, 1163226, Note_off_c, 0, 50, 62
1, 1163227, Note_on_c, 0, 52, 57
1, 1163248, Note_on_c, 0, 92, 84
1, 1163250, Note_on_c, 0, 80, 83
1, 1163277, Note_off_c, 0, 80, 63
1, 1163296, Note_off_c, 0, 92, 65
1, 1163306, Note_on_c, 0, 59, 53
1, 1163371, Control_c, 0, 64, 46
1, 1163373, Note_off_c, 0, 59, 59
1, 1163376, Note_off_c, 0, 52, 60
1, 1163386, Control_c, 0, 64, 60
1, 1163400, Control_c, 0, 64, 73
1, 1163402, Note_on_c, 0, 81, 99
1, 1163403, Note_on_c, 0, 93, 98
1, 1163410, Note_on_c, 0, 49, 59
1, 1163415, Control_c, 0, 64, 104
1, 1163430, Control_c, 0, 64, 127
1, 1163460, Note_off_c, 0, 93, 66
1, 1163467, Note_off_c, 0, 81, 61
1, 1163502, Note_off_c, 0, 49, 60
1, 1163503, Note_on_c, 0, 52, 60
1, 1163597, Note_on_c, 0, 57, 60
1, 1163609, Note_off_c, 0, 52, 55
1, 1163685, Note_off_c, 0, 57, 59
1, 1163705, Note_on_c, 0, 49, 51
1, 1163776, Note_off_c, 0, 49, 55
1, 1163781, Note_on_c, 0, 52, 56
1, 1163827, Note_off_c, 0, 52, 61
1, 1163904, Note_on_c, 0, 57, 43
1, 1163930, Note_off_c, 0, 57, 58
1, 1164002, Control_c, 0, 64, 82
1, 1164006, Note_on_c, 0, 45, 52
1, 1164017, Control_c, 0, 64, 64
1, 1164020, Note_on_c, 0, 85, 67
1, 1164026, Note_on_c, 0, 73, 51
1, 1164031, Control_c, 0, 64, 52
1, 1164046, Control_c, 0, 64, 56
1, 1164061, Control_c, 0, 64, 63
1, 1164075, Control_c, 0, 64, 70
1, 1164090, Control_c, 0, 64, 85
1, 1164105, Control_c, 0, 64, 127
1, 1164112, Note_off_c, 0, 45, 60
1, 1164125, Note_on_c, 0, 49, 61
1, 1164155, Note_off_c, 0, 85, 55
1, 1164211, Note_off_c, 0, 73, 31
1, 1164217, Note_on_c, 0, 52, 62
1, 1164279, Note_off_c, 0, 49, 37
1, 1164298, Note_on_c, 0, 45, 63
1, 1164302, Note_on_c, 0, 85, 91
1, 1164307, Note_on_c, 0, 73, 86
1, 1164349, Note_off_c, 0, 52, 58
1, 1164389, Note_off_c, 0, 45, 62
1, 1164393, Note_off_c, 0, 85, 66
1, 1164396, Note_on_c, 0, 49, 67
1, 1164408, Note_off_c, 0, 73, 59
1, 1164462, Note_off_c, 0, 49, 62
1, 1164480, Note_on_c, 0, 52, 68
1, 1164580, Control_c, 0, 64, 87
1, 1164588, Note_on_c, 0, 83, 95
1, 1164602, Note_on_c, 0, 71, 79
1, 1164602, Control_c, 0, 64, 64
1, 1164603, Note_off_c, 0, 52, 57
1, 1164604, Note_on_c, 0, 44, 60
1, 1164617, Control_c, 0, 64, 41
1, 1164632, Control_c, 0, 64, 38
1, 1164647, Control_c, 0, 64, 51
1, 1164661, Control_c, 0, 64, 63
1, 1164676, Control_c, 0, 64, 73
1, 1164688, Note_off_c, 0, 44, 61
1, 1164691, Control_c, 0, 64, 91
1, 1164696, Note_on_c, 0, 47, 66
1, 1164706, Control_c, 0, 64, 127
1, 1164761, Note_off_c, 0, 47, 58
1, 1164764, Note_off_c, 0, 83, 56
1, 1164789, Note_off_c, 0, 71, 60
1, 1164792, Note_on_c, 0, 52, 61
1, 1164897, Note_off_c, 0, 52, 53
1, 1164898, Control_c, 0, 64, 93
1, 1164913, Control_c, 0, 64, 69
1, 1164914, Note_on_c, 0, 45, 56
1, 1164921, Note_on_c, 0, 81, 92
1, 1164928, Control_c, 0, 64, 51
1, 1164936, Note_on_c, 0, 69, 63
1, 1164943, Control_c, 0, 64, 34
1, 1164958, Control_c, 0, 64, 47
1, 1164972, Control_c, 0, 64, 58
1, 1164987, Control_c, 0, 64, 65
1, 1165002, Control_c, 0, 64, 75
1, 1165009, Note_off_c, 0, 45, 61
1, 1165017, Note_on_c, 0, 49, 50
1, 1165017, Control_c, 0, 64, 90
1, 1165030, Note_off_c, 0, 81, 56
1, 1165032, Control_c, 0, 64, 127
1, 1165041, Note_off_c, 0, 69, 59
1, 1165059, Note_off_c, 0, 49, 58
1, 1165105, Note_on_c, 0, 52, 57
1, 1165170, Note_off_c, 0, 52, 53
1, 1165198, Poly_aftertouch_c, 0, 74, 127
1, 1165210, Control_c, 0, 64, 87
1, 1165213, Note_on_c, 0, 47, 52
1, 1165225, Control_c, 0, 64, 65
1, 1165228, Note_on_c, 0, 80, 74
1, 1165233, Poly_aftertouch_c, 0, 74, 0
1, 1165240, Control_c, 0, 64, 42
1, 1165244, Note_on_c, 0, 68, 59
1, 1165255, Control_c, 0, 64, 36
1, 1165269, Control_c, 0, 64, 50
1, 1165284, Control_c, 0, 64, 60
1, 1165299, Control_c, 0, 64, 68
1, 1165305, Note_off_c, 0, 47, 62
1, 1165314, Control_c, 0, 64, 81
1, 1165328, Control_c, 0, 64, 110
1, 1165329, Note_on_c, 0, 52, 54
1, 1165335, Note_off_c, 0, 80, 56
1, 1165350, Control_c, 0, 64, 127
1, 1165401, Note_off_c, 0, 68, 61
1, 1165404, Note_off_c, 0, 52, 54
1, 1165439, Note_on_c, 0, 56, 39
1, 1165488, Note_off_c, 0, 56, 51
1, 1165499, Control_c, 0, 64, 117
1, 1165508, Note_on_c, 0, 47, 48
1, 1165514, Control_c, 0, 64, 78
1, 1165528, Control_c, 0, 64, 62
1, 1165536, Note_on_c, 0, 78, 63
1, 1165543, Control_c, 0, 64, 50
1, 1165544, Note_on_c, 0, 66, 56
1, 1165558, Control_c, 0, 64, 56
1, 1165573, Control_c, 0, 64, 62
1, 1165588, Control_c, 0, 64, 66
1, 1165594, Note_off_c, 0, 47, 61
1, 1165602, Control_c, 0, 64, 77
1, 1165617, Control_c, 0, 64, 96
1, 1165624, Note_on_c, 0, 51, 51
1, 1165627, Note_off_c, 0, 78, 63
1, 1165632, Control_c, 0, 64, 127
1, 1165634, Note_off_c, 0, 66, 56
1, 1165663, Note_off_c, 0, 51, 62
1, 1165712, Note_on_c, 0, 57, 50
1, 1165771, Note_off_c, 0, 57, 48
1, 1165809, Control_c, 0, 64, 90
1, 1165818, Note_on_c, 0, 52, 49
1, 1165824, Control_c, 0, 64, 67
1, 1165839, Control_c, 0, 64, 44
1, 1165844, Note_on_c, 0, 76, 62
1, 1165854, Control_c, 0, 64, 0
1, 1165863, Note_on_c, 0, 64, 29
1, 1165885, Control_c, 0, 64, 40
1, 1165899, Control_c, 0, 64, 55
1, 1165910, Note_off_c, 0, 76, 63
1, 1165914, Control_c, 0, 64, 65
1, 1165929, Control_c, 0, 64, 73
1, 1165937, Note_on_c, 0, 56, 53
1, 1165942, Note_off_c, 0, 52, 57
1, 1165943, Control_c, 0, 64, 89
1, 1165958, Control_c, 0, 64, 108
1, 1165970, Note_off_c, 0, 64, 39
1, 1165973, Control_c, 0, 64, 127
1, 1166019, Note_off_c, 0, 56, 59
1, 1166031, Note_on_c, 0, 59, 60
1, 1166062, Note_off_c, 0, 59, 66
1, 1166136, Note_on_c, 0, 64, 62
1, 1166217, Note_on_c, 0, 68, 68
1, 1166253, Note_off_c, 0, 64, 55
1, 1166327, Note_on_c, 0, 71, 64
1, 1166405, Note_on_c, 0, 59, 94
1, 1166420, Note_off_c, 0, 68, 34
1, 1166423, Note_on_c, 0, 64, 68
1, 1166426, Control_c, 0, 64, 95
1, 1166437, Note_off_c, 0, 59, 61
1, 1166441, Control_c, 0, 64, 72
1, 1166456, Control_c, 0, 64, 53
1, 1166470, Control_c, 0, 64, 0
1, 1166506, Note_off_c, 0, 71, 59
1, 1166522, Note_on_c, 0, 68, 69
1, 1166552, Note_off_c, 0, 64, 54
1, 1166635, Note_on_c, 0, 71, 55
1, 1166703, Note_off_c, 0, 68, 36
1, 1166724, Note_on_c, 0, 59, 95
1, 1166728, Note_on_c, 0, 64, 60
1, 1166755, Note_off_c, 0, 59, 66
1, 1166798, Note_off_c, 0, 71, 61
1, 1166813, Note_on_c, 0, 68, 62
1, 1166834, Note_off_c, 0, 64, 58
1, 1166933, Note_on_c, 0, 71, 53
1, 1167012, Control_c, 0, 64, 36
1, 1167027, Control_c, 0, 64, 56
1, 1167042, Control_c, 0, 64, 67
1, 1167043, Note_on_c, 0, 59, 89
1, 1167043, Note_off_c, 0, 68, 36
1, 1167056, Control_c, 0, 64, 84
1, 1167061, Note_on_c, 0, 63, 67
1, 1167071, Control_c, 0, 64, 127
1, 1167109, Note_off_c, 0, 59, 61
1, 1167134, Note_off_c, 0, 71, 51
1, 1167144, Note_on_c, 0, 66, 69
1, 1167192, Note_off_c, 0, 63, 57
1, 1167258, Note_on_c, 0, 71, 57
1, 1167291, Note_off_c, 0, 66, 45
1, 1167341, Note_on_c, 0, 63, 62
1, 1167422, Note_on_c, 0, 66, 60
1, 1167426, Note_off_c, 0, 63, 55
1, 1167434, Note_off_c, 0, 71, 41
1, 1167526, Note_off_c, 0, 66, 56
1, 1167546, Note_on_c, 0, 71, 53
1, 1167646, Note_on_c, 0, 59, 79
1, 1167661, Note_on_c, 0, 66, 78
1, 1167672, Control_c, 0, 64, 120
1, 1167687, Control_c, 0, 64, 79
1, 1167696, Note_off_c, 0, 59, 62
1, 1167702, Control_c, 0, 64, 60
1, 1167706, Note_off_c, 0, 71, 50
1, 1167716, Control_c, 0, 64, 0
1, 1167744, Note_off_c, 0, 66, 56
1, 1167749, Note_on_c, 0, 69, 67
1, 1167789, Note_on_c, 0, 59, 76
1, 1167833, Note_on_c, 0, 71, 65
1, 1167835, Note_off_c, 0, 59, 59
1, 1167876, Note_off_c, 0, 69, 57
1, 1167899, Note_on_c, 0, 66, 70
1, 1167931, Note_on_c, 0, 61, 79
1, 1167955, Note_off_c, 0, 71, 63
1, 1167959, Note_off_c, 0, 61, 61
1, 1167964, Note_off_c, 0, 66, 63
1, 1167976, Note_on_c, 0, 69, 72
1, 1168051, Note_on_c, 0, 63, 84
1, 1168070, Note_on_c, 0, 71, 78
1, 1168077, Note_on_c, 0, 64, 62
1, 1168095, Note_off_c, 0, 69, 50
1, 1168096, Note_off_c, 0, 64, 64
1, 1168099, Note_off_c, 0, 63, 61
1, 1168189, Note_on_c, 0, 64, 104
1, 1168197, Note_on_c, 0, 67, 80
1, 1168212, Note_off_c, 0, 71, 60
1, 1168220, Control_c, 0, 64, 39
1, 1168226, Note_off_c, 0, 64, 63
1, 1168235, Control_c, 0, 64, 65
1, 1168249, Control_c, 0, 64, 81
1, 1168265, Control_c, 0, 64, 127
1, 1168272, Note_off_c, 0, 67, 62
1, 1168298, Note_on_c, 0, 71, 75
1, 1168396, Note_on_c, 0, 67, 71
1, 1168396, Note_off_c, 0, 71, 59
1, 1168458, Note_off_c, 0, 67, 59
1, 1168483, Note_on_c, 0, 64, 71
1, 1168566, Note_off_c, 0, 64, 60
1, 1168570, Note_on_c, 0, 67, 70
1, 1168660, Note_off_c, 0, 67, 59
1, 1168672, Note_on_c, 0, 71, 54
1, 1168696, Note_off_c, 0, 71, 64
1, 1168771, Note_on_c, 0, 71, 88
1, 1168775, Note_on_c, 0, 52, 89
1, 1168807, Control_c, 0, 64, 80
1, 1168820, Note_off_c, 0, 52, 62
1, 1168821, Control_c, 0, 64, 64
1, 1168836, Control_c, 0, 64, 45
1, 1168843, Note_off_c, 0, 71, 54
1, 1168851, Control_c, 0, 64, 0
1, 1168874, Note_on_c, 0, 74, 77
1, 1168909, Note_on_c, 0, 52, 82
1, 1168950, Note_off_c, 0, 52, 59
1, 1168953, Note_on_c, 0, 76, 76
1, 1168986, Note_off_c, 0, 74, 58
1, 1169041, Note_on_c, 0, 71, 84
1, 1169047, Note_on_c, 0, 54, 80
1, 1169094, Note_off_c, 0, 54, 60
1, 1169108, Note_off_c, 0, 76, 56
1, 1169145, Note_on_c, 0, 74, 87
1, 1169165, Note_off_c, 0, 71, 60
1, 1169171, Note_on_c, 0, 56, 90
1, 1169216, Note_off_c, 0, 56, 63
1, 1169238, Note_on_c, 0, 76, 82
1, 1169285, Note_off_c, 0, 74, 56
1, 1169326, Note_on_c, 0, 57, 106
1, 1169332, Control_c, 0, 64, 37
1, 1169341, Note_on_c, 0, 69, 85
1, 1169347, Control_c, 0, 64, 69
1, 1169361, Control_c, 0, 64, 117
1, 1169362, Note_off_c, 0, 57, 63
1, 1169376, Control_c, 0, 64, 127
1, 1169419, Note_off_c, 0, 76, 39
1, 1169423, Note_on_c, 0, 72, 87
1, 1169458, Note_off_c, 0, 69, 62
1, 1169523, Note_on_c, 0, 76, 83
1, 1169536, Note_off_c, 0, 72, 54
1, 1169611, Note_on_c, 0, 69, 83
1, 1169659, Note_off_c, 0, 76, 57
1, 1169689, Note_on_c, 0, 72, 82
1, 1169708, Note_off_c, 0, 69, 58
1, 1169780, Note_on_c, 0, 76, 84
1, 1169785, Note_off_c, 0, 72, 63
1, 1169827, Note_off_c, 0, 76, 62
1, 1169902, Note_on_c, 0, 76, 91
1, 1169902, Note_on_c, 0, 45, 90
1, 1169943, Note_off_c, 0, 45, 61
1, 1169991, Note_on_c, 0, 81, 90
1, 1170021, Note_off_c, 0, 76, 61
1, 1170051, Note_on_c, 0, 45, 86
1, 1170078, Note_on_c, 0, 84, 96
1, 1170096, Note_off_c, 0, 45, 62
1, 1170124, Note_off_c, 0, 81, 59
1, 1170170, Control_c, 0, 64, 105
1, 1170177, Note_on_c, 0, 76, 103
1, 1170184, Control_c, 0, 64, 72
1, 1170191, Note_on_c, 0, 47, 98
1, 1170199, Control_c, 0, 64, 42
1, 1170214, Control_c, 0, 64, 0
1, 1170230, Note_off_c, 0, 47, 66
1, 1170242, Note_off_c, 0, 84, 45
1, 1170274, Note_on_c, 0, 81, 86
1, 1170308, Note_off_c, 0, 76, 63
1, 1170314, Note_on_c, 0, 48, 94
1, 1170348, Note_off_c, 0, 48, 62
1, 1170372, Note_on_c, 0, 84, 97
1, 1170433, Note_off_c, 0, 81, 61
1, 1170459, Note_on_c, 0, 47, 95
1, 1170477, Note_on_c, 0, 74, 101
1, 1170495, Control_c, 0, 64, 55
1, 1170510, Control_c, 0, 64, 69
1, 1170525, Control_c, 0, 64, 80
1, 1170540, Control_c, 0, 64, 110
1, 1170554, Control_c, 0, 64, 127
1, 1170566, Note_on_c, 0, 79, 94
1, 1170592, Note_off_c, 0, 84, 63
1, 1170614, Note_off_c, 0, 74, 59
1, 1170668, Note_on_c, 0, 86, 92
1, 1170733, Note_off_c, 0, 79, 61
1, 1170757, Poly_aftertouch_c, 0, 45, 127
1, 1170760, Note_on_c, 0, 76, 95
1, 1170767, Note_on_c, 0, 48, 101
1, 1170799, Poly_aftertouch_c, 0, 45, 0
1, 1170810, Poly_aftertouch_c, 0, 84, 127
1, 1170815, Note_off_c, 0, 86, 59
1, 1170819, Note_off_c, 0, 47, 59
1, 1170851, Note_on_c, 0, 79, 90
1, 1170856, Poly_aftertouch_c, 0, 84, 0
1, 1170888, Note_off_c, 0, 76, 62
1, 1170936, Note_on_c, 0, 84, 100
1, 1170993, Note_off_c, 0, 79, 62
1, 1171039, Note_on_c, 0, 50, 95
1, 1171047, Note_on_c, 0, 74, 105
1, 1171052, Control_c, 0, 64, 109
1, 1171061, Note_off_c, 0, 84, 60
1, 1171066, Control_c, 0, 64, 73
1, 1171077, Note_off_c, 0, 50, 64
1, 1171080, Note_off_c, 0, 48, 57
1, 1171081, Control_c, 0, 64, 44
1, 1171096, Control_c, 0, 64, 0
1, 1171139, Note_on_c, 0, 79, 87
1, 1171164, Note_off_c, 0, 74, 62
1, 1171222, Note_on_c, 0, 83, 82
1, 1171260, Note_off_c, 0, 79, 53
1, 1171318, Note_on_c, 0, 50, 96
1, 1171329, Note_on_c, 0, 74, 102
1, 1171366, Note_off_c, 0, 50, 63
1, 1171428, Note_on_c, 0, 78, 89
1, 1171430, Note_off_c, 0, 83, 60
1, 1171446, Note_off_c, 0, 74, 60
1, 1171518, Note_on_c, 0, 81, 88
1, 1171541, Note_off_c, 0, 78, 63
1, 1171586, Note_off_c, 0, 81, 64
1, 1171600, Note_on_c, 0, 51, 92
1, 1171606, Note_on_c, 0, 47, 83
1, 1171607, Note_on_c, 0, 39, 69
1, 1171622, Control_c, 0, 64, 56
1, 1171624, Note_on_c, 0, 83, 104
1, 1171635, Note_off_c, 0, 47, 69
1, 1171637, Note_off_c, 0, 51, 61
1, 1171637, Control_c, 0, 64, 127
1, 1171638, Note_off_c, 0, 39, 64
1, 1171715, Note_on_c, 0, 81, 90
1, 1171789, Note_off_c, 0, 83, 40
1, 1171813, Note_on_c, 0, 78, 83
1, 1171884, Note_off_c, 0, 81, 57
1, 1171902, Note_off_c, 0, 78, 63
1, 1171910, Note_on_c, 0, 71, 76
1, 1171953, Note_off_c, 0, 71, 65
1, 1172003, Note_on_c, 0, 69, 78
1, 1172098, Note_on_c, 0, 66, 85
1, 1172111, Note_off_c, 0, 69, 56
1, 1172163, Note_on_c, 0, 67, 3
1, 1172200, Note_on_c, 0, 47, 106
1, 1172205, Note_on_c, 0, 59, 100
1, 1172206, Note_on_c, 0, 39, 95
1, 1172207, Control_c, 0, 64, 70
1, 1172222, Control_c, 0, 64, 0
1, 1172252, Control_c, 0, 64, 40
1, 1172266, Note_off_c, 0, 67, 46
1, 1172268, Control_c, 0, 64, 61
1, 1172283, Control_c, 0, 64, 76
1, 1172298, Control_c, 0, 64, 127
1, 1172301, Note_off_c, 0, 59, 58
1, 1172312, Note_off_c, 0, 66, 57
1, 1172315, Note_on_c, 0, 71, 84
1, 1172315, Note_off_c, 0, 39, 56
1, 1172317, Note_off_c, 0, 47, 55
1, 1172424, Note_on_c, 0, 59, 85
1, 1172440, Note_off_c, 0, 71, 60
1, 1172504, Note_on_c, 0, 47, 103
1, 1172507, Note_on_c, 0, 39, 86
1, 1172508, Note_off_c, 0, 59, 58
1, 1172530, Note_on_c, 0, 71, 80
1, 1172565, Note_off_c, 0, 39, 43
1, 1172566, Note_off_c, 0, 47, 62
1, 1172580, Note_on_c, 0, 69, 21
1, 1172580, Note_off_c, 0, 69, 127
1, 1172615, Note_on_c, 0, 59, 90
1, 1172632, Note_off_c, 0, 71, 57
1, 1172734, Note_on_c, 0, 71, 75
1, 1172734, Note_off_c, 0, 59, 56
1, 1172808, Note_on_c, 0, 48, 105
1, 1172809, Note_on_c, 0, 40, 93
1, 1172816, Control_c, 0, 64, 105
1, 1172835, Note_on_c, 0, 66, 86
1, 1172838, Control_c, 0, 64, 70
1, 1172845, Note_off_c, 0, 71, 59
1, 1172853, Control_c, 0, 64, 0
1, 1172897, Control_c, 0, 64, 38
1, 1172912, Control_c, 0, 64, 63
1, 1172927, Control_c, 0, 64, 78
1, 1172927, Note_off_c, 0, 66, 63
1, 1172928, Note_on_c, 0, 69, 70
1, 1172942, Control_c, 0, 64, 103
1, 1172953, Note_off_c, 0, 69, 68
1, 1172957, Control_c, 0, 64, 127
1, 1173014, Note_on_c, 0, 72, 88
1, 1173105, Note_on_c, 0, 78, 90
1, 1173123, Note_off_c, 0, 48, 58
1, 1173127, Note_off_c, 0, 40, 54
1, 1173130, Note_off_c, 0, 72, 63
1, 1173189, Note_on_c, 0, 81, 90
1, 1173191, Note_off_c, 0, 78, 66
1, 1173210, Note_off_c, 0, 81, 68
1, 1173272, Note_on_c, 0, 84, 106
1, 1173357, Note_off_c, 0, 84, 56
1, 1173372, Control_c, 0, 64, 74
1, 1173379, Note_on_c, 0, 90, 107
1, 1173383, Note_on_c, 0, 48, 103
1, 1173386, Control_c, 0, 64, 40
1, 1173388, Note_on_c, 0, 40, 89
1, 1173401, Control_c, 0, 64, 0
1, 1173416, Control_c, 0, 64, 43
1, 1173431, Control_c, 0, 64, 63
1, 1173437, Note_on_c, 0, 91, 28
1, 1173446, Control_c, 0, 64, 84
1, 1173447, Note_on_c, 0, 89, 35
1, 1173461, Control_c, 0, 64, 127
1, 1173475, Note_off_c, 0, 91, 43
1, 1173483, Note_off_c, 0, 90, 61
1, 1173485, Note_off_c, 0, 89, 51
1, 1173491, Note_on_c, 0, 78, 89
1, 1173518, Note_on_c, 0, 77, 61
1, 1173534, Note_off_c, 0, 48, 54
1, 1173538, Note_off_c, 0, 40, 52
1, 1173538, Note_off_c, 0, 77, 65
1, 1173595, Poly_aftertouch_c, 0, 86, 0
1, 1173601, Note_on_c, 0, 90, 81
1, 1173611, Note_off_c, 0, 78, 60
1, 1173692, Note_on_c, 0, 48, 94
1, 1173695, Note_on_c, 0, 40, 69
1, 1173702, Note_on_c, 0, 78, 99
1, 1173709, Note_off_c, 0, 90, 57
1, 1173730, Note_off_c, 0, 40, 64
1, 1173755, Note_off_c, 0, 48, 59
1, 1173771, Note_off_c, 0, 78, 63
1, 1173798, Note_on_c, 0, 90, 93
1, 1173852, Note_off_c, 0, 90, 66
1, 1173871, Note_on_c, 0, 78, 90
1, 1173927, Note_off_c, 0, 78, 64
1, 1173977, Note_on_c, 0, 39, 104
1, 1173977, Note_on_c, 0, 47, 102
1, 1173978, Note_on_c, 0, 83, 92
1, 1173989, Control_c, 0, 64, 100
1, 1174003, Control_c, 0, 64, 63
1, 1174018, Control_c, 0, 64, 0
1, 1174063, Control_c, 0, 64, 57
1, 1174074, Note_on_c, 0, 81, 89
1, 1174075, Poly_aftertouch_c, 0, 38, 127
1, 1174076, Note_on_c, 0, 38, 3
1, 1174077, Control_c, 0, 64, 76
1, 1174092, Control_c, 0, 64, 127
1, 1174121, Note_off_c, 0, 83, 55
1, 1174164, Note_on_c, 0, 78, 90
1, 1174164, Note_off_c, 0, 38, 30
1, 1174167, Note_off_c, 0, 39, 54
1, 1174179, Note_off_c, 0, 47, 63
1, 1174224, Note_off_c, 0, 81, 59
1, 1174268, Note_on_c, 0, 71, 78
1, 1174268, Note_off_c, 0, 78, 63
1, 1174279, Note_on_c, 0, 72, 50
1, 1174303, Note_off_c, 0, 72, 54
1, 1174307, Note_off_c, 0, 71, 63
1, 1174367, Note_on_c, 0, 69, 83
1, 1174456, Note_on_c, 0, 66, 87
1, 1174480, Note_off_c, 0, 69, 56
1, 1174548, Poly_aftertouch_c, 0, 67, 127
1, 1174552, Note_on_c, 0, 47, 101
1, 1174557, Note_on_c, 0, 39, 96
1, 1174558, Control_c, 0, 64, 104
1, 1174564, Note_on_c, 0, 59, 93
1, 1174573, Control_c, 0, 64, 68
1, 1174588, Control_c, 0, 64, 0
1, 1174632, Control_c, 0, 64, 53
1, 1174647, Control_c, 0, 64, 70
1, 1174656, Note_off_c, 0, 66, 61
1, 1174658, Note_off_c, 0, 59, 63
1, 1174663, Note_on_c, 0, 71, 84
1, 1174663, Control_c, 0, 64, 90
1, 1174667, Note_off_c, 0, 47, 50
1, 1174671, Poly_aftertouch_c, 0, 67, 0
1, 1174672, Note_off_c, 0, 39, 56
1, 1174678, Control_c, 0, 64, 127
1, 1174708, Poly_aftertouch_c, 0, 67, 127
1, 1174750, Poly_aftertouch_c, 0, 69, 127
1, 1174757, Note_on_c, 0, 59, 91
1, 1174775, Note_off_c, 0, 71, 61
1, 1174788, Poly_aftertouch_c, 0, 69, 0
1, 1174812, Poly_aftertouch_c, 0, 67, 0
1, 1174835, Poly_aftertouch_c, 0, 43, 0
1, 1174847, Note_off_c, 0, 59, 51
1, 1174864, Note_on_c, 0, 71, 81
1, 1174866, Note_on_c, 0, 47, 89
1, 1174872, Note_on_c, 0, 39, 78
1, 1174930, Note_off_c, 0, 39, 54
1, 1174934, Note_off_c, 0, 47, 60
1, 1174950, Note_on_c, 0, 59, 91
1, 1174954, Note_off_c, 0, 71, 58
1, 1175049, Note_on_c, 0, 71, 83
1, 1175054, Note_off_c, 0, 59, 60
1, 1175152, Note_on_c, 0, 40, 94
1, 1175153, Note_on_c, 0, 48, 102
1, 1175159, Note_on_c, 0, 66, 91
1, 1175174, Control_c, 0, 64, 79
1, 1175187, Note_off_c, 0, 71, 61
1, 1175189, Control_c, 0, 64, 54
1, 1175204, Control_c, 0, 64, 0
1, 1175252, Note_on_c, 0, 69, 78
1, 1175263, Control_c, 0, 64, 46
1, 1175272, Note_off_c, 0, 66, 63
1, 1175278, Control_c, 0, 64, 65
1, 1175288, Note_off_c, 0, 69, 66
1, 1175293, Control_c, 0, 64, 82
1, 1175307, Control_c, 0, 64, 127
1, 1175349, Note_on_c, 0, 72, 89
1, 1175437, Note_on_c, 0, 78, 90
1, 1175463, Note_off_c, 0, 72, 63
1, 1175464, Note_off_c, 0, 40, 56
1, 1175466, Note_off_c, 0, 48, 57
1, 1175518, Note_on_c, 0, 81, 89
1, 1175527, Note_off_c, 0, 78, 65
1, 1175545, Note_off_c, 0, 81, 65
1, 1175608, Note_on_c, 0, 84, 98
1, 1175682, Note_off_c, 0, 84, 62
1, 1175694, Control_c, 0, 64, 93
1, 1175708, Control_c, 0, 64, 58
1, 1175714, Note_on_c, 0, 48, 102
1, 1175716, Note_on_c, 0, 90, 102
1, 1175720, Note_on_c, 0, 40, 88
1, 1175723, Control_c, 0, 64, 0
1, 1175753, Control_c, 0, 64, 50
1, 1175768, Control_c, 0, 64, 64
1, 1175782, Control_c, 0, 64, 82
1, 1175797, Control_c, 0, 64, 127
1, 1175814, Note_on_c, 0, 78, 93
1, 1175841, Note_off_c, 0, 90, 61
1, 1175870, Note_off_c, 0, 40, 57
1, 1175879, Note_off_c, 0, 48, 51
1, 1175922, Note_on_c, 0, 90, 90
1, 1175923, Note_off_c, 0, 78, 43
1, 1176013, Note_on_c, 0, 48, 95
1, 1176015, Note_on_c, 0, 78, 91
1, 1176019, Note_on_c, 0, 40, 74
1, 1176028, Note_off_c, 0, 90, 65
1, 1176058, Note_off_c, 0, 40, 60
1, 1176098, Note_off_c, 0, 48, 62
1, 1176099, Note_off_c, 0, 78, 57
1, 1176108, Note_on_c, 0, 90, 84
1, 1176185, Note_on_c, 0, 78, 91
1, 1176209, Note_off_c, 0, 90, 60
1, 1176224, Note_off_c, 0, 78, 67
1, 1176323, Note_on_c, 0, 47, 92
1, 1176324, Note_on_c, 0, 39, 100
1, 1176331, Note_on_c, 0, 93, 95
1, 1176417, Poly_aftertouch_c, 0, 40, 0
1, 1176430, Note_on_c, 0, 92, 82
1, 1176444, Poly_aftertouch_c, 0, 40, 0
1, 1176537, Note_on_c, 0, 90, 85
1, 1176561, Control_c, 0, 64, 107
1, 1176583, Control_c, 0, 64, 92
1, 1176598, Control_c, 0, 64, 82
1, 1176609, Note_off_c, 0, 93, 38
1, 1176612, Control_c, 0, 64, 75
1, 1176615, Note_off_c, 0, 92, 64
1, 1176627, Control_c, 0, 64, 69
1, 1176639, Note_on_c, 0, 88, 80
1, 1176642, Control_c, 0, 64, 63
1, 1176643, Note_off_c, 0, 90, 62
1, 1176657, Control_c, 0, 64, 57
1, 1176672, Control_c, 0, 64, 52
1, 1176686, Control_c, 0, 64, 50
1, 1176701, Control_c, 0, 64, 50
1, 1176716, Control_c, 0, 64, 49
1, 1176731, Note_on_c, 0, 87, 80
1, 1176731, Control_c, 0, 64, 48
1, 1176746, Control_c, 0, 64, 47
1, 1176752, Note_off_c, 0, 88, 50
1, 1176761, Control_c, 0, 64, 46
1, 1176791, Control_c, 0, 64, 45
1, 1176805, Control_c, 0, 64, 45
1, 1176820, Control_c, 0, 64, 43
1, 1176822, Note_on_c, 0, 85, 76
1, 1176835, Control_c, 0, 64, 40
1, 1176850, Control_c, 0, 64, 35
1, 1176865, Control_c, 0, 64, 0
1, 1176883, Note_off_c, 0, 87, 58
1, 1176907, Note_on_c, 0, 83, 80
1, 1176968, Control_c, 0, 64, 43
1, 1176970, Note_off_c, 0, 85, 63
1, 1176983, Control_c, 0, 64, 55
1, 1176989, Note_off_c, 0, 83, 63
1, 1176997, Control_c, 0, 64, 63
1, 1177002, Note_on_c, 0, 81, 83
1, 1177012, Control_c, 0, 64, 72
1, 1177027, Control_c, 0, 64, 85
1, 1177042, Control_c, 0, 64, 109
1, 1177058, Control_c, 0, 64, 127
1, 1177098, Note_off_c, 0, 39, 44
1, 1177100, Note_on_c, 0, 80, 74
1, 1177109, Note_off_c, 0, 47, 55
1, 1177124, Note_off_c, 0, 81, 38
1, 1177196, Note_on_c, 0, 78, 79
1, 1177267, Note_off_c, 0, 80, 61
1, 1177286, Note_off_c, 0, 78, 64
1, 1177299, Note_on_c, 0, 76, 78
1, 1177402, Note_off_c, 0, 76, 61
1, 1177406, Note_on_c, 0, 75, 73
1, 1177505, Note_on_c, 0, 73, 75
1, 1177564, Note_off_c, 0, 75, 58
1, 1177593, Note_on_c, 0, 71, 72
1, 1177655, Note_off_c, 0, 73, 61
1, 1177671, Note_off_c, 0, 71, 62
1, 1177692, Note_on_c, 0, 69, 76
1, 1177792, Note_off_c, 0, 69, 58
1, 1177793, Note_on_c, 0, 68, 73
1, 1177890, Note_on_c, 0, 66, 77
1, 1177911, Control_c, 0, 64, 118
1, 1177925, Control_c, 0, 64, 109
1, 1177940, Control_c, 0, 64, 103
1, 1177948, Note_off_c, 0, 68, 61
1, 1177955, Control_c, 0, 64, 98
1, 1177969, Control_c, 0, 64, 93
1, 1177974, Note_off_c, 0, 66, 62
1, 1177983, Note_on_c, 0, 64, 68
1, 1177984, Control_c, 0, 64, 87
1, 1177999, Control_c, 0, 64, 81
1, 1178014, Control_c, 0, 64, 77
1, 1178029, Control_c, 0, 64, 74
1, 1178043, Control_c, 0, 64, 70
1, 1178058, Control_c, 0, 64, 68
1, 1178074, Note_off_c, 0, 64, 58
1, 1178081, Control_c, 0, 64, 65
1, 1178091, Note_on_c, 0, 63, 64
1, 1178096, Control_c, 0, 64, 63
1, 1178111, Control_c, 0, 64, 61
1, 1178125, Control_c, 0, 64, 61
1, 1178140, Control_c, 0, 64, 60
1, 1178170, Control_c, 0, 64, 60
1, 1178173, Note_on_c, 0, 61, 66
1, 1178184, Control_c, 0, 64, 59
1, 1178199, Control_c, 0, 64, 58
1, 1178214, Control_c, 0, 64, 57
1, 1178225, Note_off_c, 0, 63, 56
1, 1178258, Note_off_c, 0, 61, 58
1, 1178263, Note_on_c, 0, 59, 62
1, 1178273, Control_c, 0, 64, 56
1, 1178332, Control_c, 0, 64, 56
1, 1178344, Note_off_c, 0, 59, 59
1, 1178356, Note_on_c, 0, 58, 62
1, 1178406, Control_c, 0, 64, 55
1, 1178427, Note_off_c, 0, 58, 63
1, 1178447, Note_on_c, 0, 59, 61
1, 1178548, Note_off_c, 0, 59, 58
1, 1178552, Note_on_c, 0, 61, 64
1, 1178655, Note_on_c, 0, 63, 58
1, 1178680, Note_off_c, 0, 61, 59
1, 1178725, Note_off_c, 0, 63, 62
1, 1178743, Note_on_c, 0, 64, 61
1, 1178845, Note_off_c, 0, 64, 57
1, 1178860, Note_on_c, 0, 66, 59
1, 1178952, Note_on_c, 0, 68, 59
1, 1178979, Note_off_c, 0, 66, 58
1, 1179040, Note_off_c, 0, 68, 63
1, 1179065, Note_on_c, 0, 69, 55
1, 1179156, Control_c, 0, 64, 55
1, 1179160, Note_off_c, 0, 69, 55
1, 1179169, Note_on_c, 0, 70, 52
1, 1179186, Control_c, 0, 64, 54
1, 1179230, Control_c, 0, 64, 54
1, 1179245, Control_c, 0, 64, 53
1, 1179260, Control_c, 0, 64, 53
1, 1179274, Control_c, 0, 64, 52
1, 1179289, Control_c, 0, 64, 52
1, 1179304, Control_c, 0, 64, 51
1, 1179319, Control_c, 0, 64, 48
1, 1179333, Control_c, 0, 64, 48
1, 1179363, Control_c, 0, 64, 48
1, 1179378, Control_c, 0, 64, 50
1, 1179381, Note_off_c, 0, 70, 57
1, 1179393, Control_c, 0, 64, 52
1, 1179398, Note_on_c, 0, 71, 46
1, 1179402, Note_on_c, 0, 52, 12
1, 1179408, Control_c, 0, 64, 56
1, 1179423, Control_c, 0, 64, 59
1, 1179438, Control_c, 0, 64, 64
1, 1179453, Control_c, 0, 64, 69
1, 1179468, Control_c, 0, 64, 78
1, 1179483, Control_c, 0, 64, 90
1, 1179497, Control_c, 0, 64, 116
1, 1179512, Control_c, 0, 64, 127
1, 1179556, Note_on_c, 0, 55, 39
1, 1179582, Note_off_c, 0, 52, 40
1, 1179601, Note_off_c, 0, 71, 36
1, 1179619, Note_off_c, 0, 55, 54
1, 1179652, Note_on_c, 0, 59, 41
1, 1179727, Note_off_c, 0, 59, 45
1, 1179745, Note_on_c, 0, 52, 31
1, 1179749, Note_on_c, 0, 71, 43
1, 1179812, Note_off_c, 0, 52, 56
1, 1179872, Note_off_c, 0, 71, 53
1, 1179873, Note_on_c, 0, 55, 33
1, 1179923, Note_off_c, 0, 55, 46
1, 1179963, Note_on_c, 0, 59, 35
1, 1180022, Control_c, 0, 64, 86
1, 1180037, Control_c, 0, 64, 68
1, 1180048, Note_off_c, 0, 59, 48
1, 1180052, Control_c, 0, 64, 55
1, 1180062, Note_on_c, 0, 71, 42
1, 1180067, Control_c, 0, 64, 49
1, 1180081, Control_c, 0, 64, 54
1, 1180084, Note_on_c, 0, 51, 15
1, 1180096, Control_c, 0, 64, 60
1, 1180111, Control_c, 0, 64, 64
1, 1180126, Control_c, 0, 64, 72
1, 1180134, Note_off_c, 0, 51, 49
1, 1180141, Control_c, 0, 64, 84
1, 1180156, Control_c, 0, 64, 102
1, 1180171, Control_c, 0, 64, 127
1, 1180184, Note_on_c, 0, 54, 30
1, 1180236, Note_off_c, 0, 54, 43
1, 1180278, Note_on_c, 0, 59, 31
1, 1180336, Note_off_c, 0, 71, 55
1, 1180365, Note_off_c, 0, 59, 40
1, 1180365, Note_on_c, 0, 51, 31
1, 1180386, Control_c, 0, 67, 21
1, 1180401, Control_c, 0, 67, 25
1, 1180416, Control_c, 0, 67, 30
1, 1180421, Note_off_c, 0, 51, 48
1, 1180431, Control_c, 0, 67, 37
1, 1180445, Control_c, 0, 67, 49
1, 1180460, Control_c, 0, 67, 65
1, 1180474, Note_on_c, 0, 54, 35
1, 1180475, Control_c, 0, 67, 80
1, 1180490, Control_c, 0, 67, 95
1, 1180505, Control_c, 0, 67, 106
1, 1180509, Note_off_c, 0, 54, 51
1, 1180520, Control_c, 0, 67, 115
1, 1180535, Control_c, 0, 67, 122
1, 1180544, Note_on_c, 0, 59, 47
1, 1180549, Control_c, 0, 67, 126
1, 1180606, Note_off_c, 0, 59, 48
1, 1180624, Control_c, 0, 64, 115
1, 1180639, Control_c, 0, 64, 92
1, 1180653, Control_c, 0, 64, 75
1, 1180668, Control_c, 0, 64, 62
1, 1180683, Control_c, 0, 64, 43
1, 1180689, Note_on_c, 0, 47, 28
1, 1180697, Control_c, 0, 64, 38
1, 1180709, Note_on_c, 0, 71, 45
1, 1180712, Control_c, 0, 64, 45
1, 1180727, Control_c, 0, 64, 53
1, 1180742, Control_c, 0, 64, 59
1, 1180757, Control_c, 0, 64, 64
1, 1180770, Note_off_c, 0, 71, 55
1, 1180771, Control_c, 0, 64, 68
1, 1180786, Control_c, 0, 64, 74
1, 1180801, Control_c, 0, 64, 79
1, 1180814, Note_on_c, 0, 54, 39
1, 1180816, Control_c, 0, 64, 81
1, 1180860, Control_c, 0, 64, 81
1, 1180865, Note_off_c, 0, 47, 40
1, 1180870, Note_on_c, 0, 71, 52
1, 1180895, Note_off_c, 0, 54, 54
1, 1180907, Note_off_c, 0, 71, 55
1, 1180919, Control_c, 0, 64, 81
1, 1180922, Note_on_c, 0, 57, 40
1, 1180934, Control_c, 0, 64, 77
1, 1180949, Control_c, 0, 64, 70
1, 1180964, Control_c, 0, 64, 61
1, 1180979, Control_c, 0, 64, 44
1, 1180994, Control_c, 0, 64, 0
1, 1181015, Note_on_c, 0, 47, 33
1, 1181022, Note_on_c, 0, 73, 52
1, 1181026, Note_off_c, 0, 57, 38
1, 1181055, Control_c, 0, 64, 34
1, 1181077, Control_c, 0, 64, 46
1, 1181083, Note_off_c, 0, 73, 53
1, 1181092, Control_c, 0, 64, 60
1, 1181107, Control_c, 0, 64, 68
1, 1181121, Note_on_c, 0, 54, 18
1, 1181122, Control_c, 0, 64, 73
1, 1181136, Control_c, 0, 64, 77
1, 1181151, Control_c, 0, 64, 79
1, 1181166, Control_c, 0, 64, 80
1, 1181171, Note_off_c, 0, 47, 42
1, 1181175, Note_on_c, 0, 75, 55
1, 1181181, Control_c, 0, 64, 81
1, 1181196, Control_c, 0, 64, 83
1, 1181210, Control_c, 0, 64, 84
1, 1181240, Control_c, 0, 64, 85
1, 1181247, Note_on_c, 0, 57, 32
1, 1181277, Note_off_c, 0, 54, 40
1, 1181284, Note_off_c, 0, 75, 31
1, 1181314, Control_c, 0, 64, 84
1, 1181343, Control_c, 0, 64, 83
1, 1181358, Control_c, 0, 64, 78
1, 1181373, Control_c, 0, 64, 72
1, 1181381, Note_off_c, 0, 57, 31
1, 1181386, Note_on_c, 0, 48, 35
1, 1181388, Control_c, 0, 64, 65
1, 1181402, Control_c, 0, 64, 58
1, 1181417, Control_c, 0, 64, 51
1, 1181430, Note_on_c, 0, 76, 46
1, 1181432, Control_c, 0, 64, 48
1, 1181447, Control_c, 0, 64, 49
1, 1181462, Control_c, 0, 64, 52
1, 1181477, Control_c, 0, 64, 55
1, 1181491, Control_c, 0, 64, 58
1, 1181506, Control_c, 0, 64, 62
1, 1181521, Control_c, 0, 64, 67
1, 1181536, Control_c, 0, 64, 74
1, 1181540, Note_off_c, 0, 48, 36
1, 1181548, Note_on_c, 0, 52, 30
1, 1181551, Control_c, 0, 64, 82
1, 1181566, Control_c, 0, 64, 88
1, 1181581, Control_c, 0, 64, 91
1, 1181595, Control_c, 0, 64, 95
1, 1181607, Note_off_c, 0, 52, 47
1, 1181610, Control_c, 0, 64, 97
1, 1181625, Control_c, 0, 64, 99
1, 1181654, Control_c, 0, 64, 101
1, 1181656, Note_on_c, 0, 55, 29
1, 1181684, Control_c, 0, 64, 104
1, 1181701, Note_on_c, 0, 48, 30
1, 1181712, Note_off_c, 0, 55, 43
1, 1181745, Note_off_c, 0, 76, 38
1, 1181773, Control_c, 0, 64, 106
1, 1181791, Note_off_c, 0, 48, 39
1, 1181820, Note_on_c, 0, 52, 36
1, 1181873, Note_off_c, 0, 52, 46
1, 1181912, Note_on_c, 0, 55, 35
1, 1181989, Control_c, 0, 64, 100
1, 1182002, Note_on_c, 0, 48, 35
1, 1182004, Control_c, 0, 64, 86
1, 1182018, Control_c, 0, 64, 74
1, 1182033, Control_c, 0, 64, 63
1, 1182040, Note_on_c, 0, 67, 46
1, 1182048, Control_c, 0, 64, 50
1, 1182049, Note_off_c, 0, 55, 34
1, 1182063, Control_c, 0, 64, 48
1, 1182077, Control_c, 0, 64, 53
1, 1182092, Control_c, 0, 64, 59
1, 1182107, Control_c, 0, 64, 63
1, 1182122, Control_c, 0, 64, 68
1, 1182128, Note_off_c, 0, 48, 48
1, 1182137, Control_c, 0, 64, 74
1, 1182147, Note_on_c, 0, 52, 31
1, 1182151, Control_c, 0, 64, 81
1, 1182151, Control_c, 0, 67, 121
1, 1182166, Control_c, 0, 64, 87
1, 1182166, Control_c, 0, 67, 86
1, 1182181, Control_c, 0, 64, 93
1, 1182181, Control_c, 0, 67, 41
1, 1182196, Control_c, 0, 64, 98
1, 1182196, Control_c, 0, 67, 0
1, 1182211, Control_c, 0, 64, 101
1, 1182222, Note_off_c, 0, 67, 60
1, 1182240, Control_c, 0, 64, 105
1, 1182250, Note_on_c, 0, 55, 37
1, 1182255, Control_c, 0, 64, 107
1, 1182267, Note_off_c, 0, 52, 32
1, 1182269, Control_c, 0, 64, 109
1, 1182284, Control_c, 0, 64, 111
1, 1182299, Control_c, 0, 64, 114
1, 1182314, Control_c, 0, 64, 117
1, 1182329, Control_c, 0, 64, 120
1, 1182330, Note_on_c, 0, 48, 38
1, 1182344, Note_off_c, 0, 55, 40
1, 1182344, Control_c, 0, 64, 127
1, 1182347, Note_on_c, 0, 67, 56
1, 1182422, Note_off_c, 0, 67, 61
1, 1182442, Note_on_c, 0, 52, 38
1, 1182462, Note_off_c, 0, 48, 37
1, 1182517, Note_off_c, 0, 52, 47
1, 1182553, Note_on_c, 0, 55, 37
1, 1182618, Control_c, 0, 64, 101
1, 1182633, Control_c, 0, 64, 81
1, 1182648, Control_c, 0, 64, 66
1, 1182651, Note_on_c, 0, 48, 28
1, 1182658, Note_off_c, 0, 55, 46
1, 1182659, Note_on_c, 0, 67, 42
1, 1182663, Control_c, 0, 64, 49
1, 1182678, Control_c, 0, 64, 0
1, 1182693, Control_c, 0, 64, 34
1, 1182708, Control_c, 0, 64, 44
1, 1182723, Control_c, 0, 64, 55
1, 1182737, Control_c, 0, 64, 63
1, 1182752, Control_c, 0, 64, 72
1, 1182767, Control_c, 0, 64, 86
1, 1182767, Note_off_c, 0, 48, 37
1, 1182774, Note_on_c, 0, 52, 40
1, 1182782, Control_c, 0, 64, 116
1, 1182788, Note_off_c, 0, 67, 63
1, 1182797, Control_c, 0, 64, 127
1, 1182834, Note_off_c, 0, 52, 54
1, 1182889, Note_on_c, 0, 55, 34
1, 1182947, Note_off_c, 0, 55, 48
1, 1182988, Note_on_c, 0, 48, 33
1, 1183041, Note_off_c, 0, 48, 55
1, 1183080, Note_on_c, 0, 52, 36
1, 1183145, Note_off_c, 0, 52, 50
1, 1183187, Note_on_c, 0, 55, 33
1, 1183282, Note_on_c, 0, 76, 58
1, 1183295, Note_on_c, 0, 48, 35
1, 1183304, Note_on_c, 0, 64, 21
1, 1183367, Note_off_c, 0, 55, 28
1, 1183390, Note_off_c, 0, 76, 53
1, 1183447, Note_on_c, 0, 52, 37
1, 1183450, Note_off_c, 0, 64, 36
1, 1183461, Note_off_c, 0, 48, 37
1, 1183518, Note_on_c, 0, 55, 38
1, 1183521, Note_off_c, 0, 52, 49
1, 1183587, Note_on_c, 0, 76, 80
1, 1183599, Note_on_c, 0, 64, 58
1, 1183600, Note_on_c, 0, 48, 37
1, 1183634, Note_off_c, 0, 64, 62
1, 1183650, Note_off_c, 0, 55, 35
1, 1183690, Note_off_c, 0, 48, 56
1, 1183716, Note_on_c, 0, 52, 33
1, 1183748, Note_off_c, 0, 52, 52
1, 1183787, Note_on_c, 0, 55, 49
1, 1183855, Note_off_c, 0, 55, 46
1, 1183879, Note_on_c, 0, 47, 44
1, 1183914, Control_c, 0, 64, 110
1, 1183924, Note_on_c, 0, 77, 75
1, 1183929, Control_c, 0, 64, 84
1, 1183942, Note_on_c, 0, 65, 60
1, 1183944, Control_c, 0, 64, 68
1, 1183959, Control_c, 0, 64, 54
1, 1183960, Note_off_c, 0, 76, 60
1, 1183974, Control_c, 0, 64, 0
1, 1184003, Control_c, 0, 64, 33
1, 1184019, Control_c, 0, 64, 42
1, 1184034, Control_c, 0, 64, 51
1, 1184034, Control_c, 0, 67, 22
1, 1184048, Control_c, 0, 64, 61
1, 1184048, Control_c, 0, 67, 27
1, 1184053, Note_on_c, 0, 50, 32
1, 1184068, Note_off_c, 0, 47, 44
1, 1184070, Control_c, 0, 64, 69
1, 1184070, Control_c, 0, 67, 33
1, 1184085, Control_c, 0, 64, 82
1, 1184085, Control_c, 0, 67, 44
1, 1184100, Control_c, 0, 64, 93
1, 1184100, Control_c, 0, 67, 62
1, 1184115, Control_c, 0, 64, 98
1, 1184115, Control_c, 0, 67, 83
1, 1184124, Note_off_c, 0, 50, 48
1, 1184130, Control_c, 0, 64, 100
1, 1184130, Control_c, 0, 67, 103
1, 1184144, Control_c, 0, 67, 120
1, 1184155, Note_on_c, 0, 55, 39
1, 1184159, Control_c, 0, 64, 104
1, 1184159, Control_c, 0, 67, 127
1, 1184192, Note_off_c, 0, 77, 59
1, 1184213, Note_off_c, 0, 55, 50
1, 1184216, Note_on_c, 0, 47, 38
1, 1184296, Note_off_c, 0, 47, 55
1, 1184335, Note_on_c, 0, 50, 42
1, 1184379, Note_off_c, 0, 50, 54
1, 1184428, Note_on_c, 0, 55, 39
1, 1184486, Control_c, 0, 64, 94
1, 1184501, Control_c, 0, 64, 82
1, 1184514, Note_off_c, 0, 55, 45
1, 1184516, Control_c, 0, 64, 70
1, 1184520, Note_off_c, 0, 65, 36
1, 1184527, Note_on_c, 0, 47, 32
1, 1184531, Control_c, 0, 64, 59
1, 1184544, Note_on_c, 0, 67, 53
1, 1184545, Control_c, 0, 64, 45
1, 1184560, Control_c, 0, 64, 46
1, 1184575, Control_c, 0, 64, 51
1, 1184590, Control_c, 0, 64, 59
1, 1184605, Control_c, 0, 64, 64
1, 1184619, Control_c, 0, 64, 69
1, 1184624, Note_off_c, 0, 47, 50
1, 1184634, Control_c, 0, 64, 76
1, 1184649, Control_c, 0, 64, 81
1, 1184657, Note_on_c, 0, 50, 36
1, 1184663, Control_c, 0, 64, 84
1, 1184678, Control_c, 0, 64, 85
1, 1184690, Note_off_c, 0, 67, 60
1, 1184708, Control_c, 0, 64, 86
1, 1184716, Note_off_c, 0, 50, 49
1, 1184753, Control_c, 0, 64, 86
1, 1184763, Note_on_c, 0, 55, 32
1, 1184797, Control_c, 0, 64, 86
1, 1184819, Control_c, 0, 64, 81
1, 1184834, Control_c, 0, 64, 72
1, 1184836, Note_on_c, 0, 47, 40
1, 1184849, Control_c, 0, 64, 64
1, 1184851, Note_on_c, 0, 67, 50
1, 1184863, Control_c, 0, 64, 54
1, 1184868, Note_off_c, 0, 55, 31
1, 1184878, Control_c, 0, 64, 49
1, 1184893, Control_c, 0, 64, 53
1, 1184908, Control_c, 0, 64, 58
1, 1184923, Control_c, 0, 64, 62
1, 1184927, Note_off_c, 0, 47, 50
1, 1184938, Control_c, 0, 64, 66
1, 1184952, Control_c, 0, 64, 72
1, 1184954, Note_off_c, 0, 67, 60
1, 1184955, Note_on_c, 0, 50, 35
1, 1184967, Control_c, 0, 64, 77
1, 1184982, Control_c, 0, 64, 80
1, 1184997, Control_c, 0, 64, 82
1, 1185007, Note_off_c, 0, 50, 55
1, 1185012, Control_c, 0, 64, 83
1, 1185027, Control_c, 0, 64, 84
1, 1185042, Note_on_c, 0, 55, 35
1, 1185042, Control_c, 0, 64, 85
1, 1185057, Control_c, 0, 64, 86
1, 1185072, Control_c, 0, 64, 86
1, 1185116, Control_c, 0, 64, 83
1, 1185128, Note_on_c, 0, 47, 36
1, 1185131, Control_c, 0, 64, 75
1, 1185146, Control_c, 0, 64, 66
1, 1185161, Control_c, 0, 64, 56
1, 1185170, Note_off_c, 0, 55, 36
1, 1185173, Note_on_c, 0, 67, 45
1, 1185176, Control_c, 0, 64, 52
1, 1185191, Control_c, 0, 64, 56
1, 1185206, Control_c, 0, 64, 61
1, 1185221, Note_off_c, 0, 47, 50
1, 1185221, Control_c, 0, 64, 66
1, 1185235, Control_c, 0, 64, 73
1, 1185250, Control_c, 0, 64, 81
1, 1185250, Note_off_c, 0, 67, 64
1, 1185258, Note_on_c, 0, 50, 34
1, 1185265, Control_c, 0, 64, 90
1, 1185280, Control_c, 0, 64, 97
1, 1185294, Control_c, 0, 64, 103
1, 1185309, Control_c, 0, 64, 109
1, 1185309, Control_c, 0, 67, 114
1, 1185312, Note_off_c, 0, 50, 53
1, 1185324, Control_c, 0, 64, 120
1, 1185324, Control_c, 0, 67, 93
1, 1185339, Control_c, 0, 64, 127
1, 1185339, Control_c, 0, 67, 68
1, 1185351, Note_on_c, 0, 55, 27
1, 1185354, Control_c, 0, 67, 39
1, 1185368, Control_c, 0, 67, 0
1, 1185441, Note_on_c, 0, 47, 33
1, 1185445, Note_off_c, 0, 55, 38
1, 1185489, Note_off_c, 0, 47, 56
1, 1185535, Note_on_c, 0, 50, 36
1, 1185587, Note_off_c, 0, 50, 48
1, 1185623, Note_on_c, 0, 55, 39
1, 1185719, Note_off_c, 0, 55, 43
1, 1185742, Note_on_c, 0, 47, 37
1, 1185770, Note_on_c, 0, 89, 66
1, 1185794, Note_off_c, 0, 47, 57
1, 1185812, Note_off_c, 0, 89, 56
1, 1185823, Note_on_c, 0, 86, 72
1, 1185841, Note_on_c, 0, 50, 28
1, 1185879, Note_off_c, 0, 50, 46
1, 1185896, Note_on_c, 0, 83, 75
1, 1185905, Note_off_c, 0, 86, 59
1, 1185911, Note_on_c, 0, 55, 46
1, 1185953, Note_off_c, 0, 83, 63
1, 1185964, Note_on_c, 0, 77, 71
1, 1185969, Control_c, 0, 67, 20
1, 1185984, Control_c, 0, 67, 25
1, 1185998, Note_off_c, 0, 77, 62
1, 1185999, Control_c, 0, 67, 31
1, 1186000, Note_off_c, 0, 55, 45
1, 1186013, Control_c, 0, 67, 42
1, 1186019, Note_on_c, 0, 47, 42
1, 1186028, Control_c, 0, 67, 56
1, 1186043, Control_c, 0, 67, 71
1, 1186058, Control_c, 0, 67, 84
1, 1186064, Note_on_c, 0, 74, 76
1, 1186073, Control_c, 0, 67, 95
1, 1186088, Control_c, 0, 67, 106
1, 1186096, Note_off_c, 0, 47, 53
1, 1186103, Control_c, 0, 67, 113
1, 1186117, Control_c, 0, 67, 119
1, 1186130, Note_on_c, 0, 50, 38
1, 1186132, Control_c, 0, 67, 121
1, 1186136, Note_off_c, 0, 74, 55
1, 1186158, Note_on_c, 0, 71, 69
1, 1186169, Note_off_c, 0, 50, 61
1, 1186191, Control_c, 0, 67, 123
1, 1186206, Control_c, 0, 67, 125
1, 1186210, Note_off_c, 0, 71, 61
1, 1186225, Note_on_c, 0, 55, 45
1, 1186235, Control_c, 0, 67, 127
1, 1186246, Note_on_c, 0, 65, 71
1, 1186265, Control_c, 0, 64, 118
1, 1186280, Control_c, 0, 64, 90
1, 1186295, Control_c, 0, 64, 74
1, 1186317, Control_c, 0, 64, 61
1, 1186319, Note_off_c, 0, 65, 59
1, 1186325, Note_off_c, 0, 55, 48
1, 1186332, Control_c, 0, 64, 38
1, 1186347, Control_c, 0, 64, 0
1, 1186362, Note_on_c, 0, 48, 35
1, 1186383, Note_on_c, 0, 64, 51
1, 1186406, Control_c, 0, 64, 40
1, 1186421, Control_c, 0, 64, 54
1, 1186435, Control_c, 0, 64, 64
1, 1186450, Control_c, 0, 64, 70
1, 1186465, Control_c, 0, 64, 77
1, 1186480, Control_c, 0, 64, 83
1, 1186487, Note_on_c, 0, 52, 39
1, 1186495, Control_c, 0, 64, 86
1, 1186495, Control_c, 0, 67, 125
1, 1186501, Note_off_c, 0, 48, 32
1, 1186509, Control_c, 0, 64, 89
1, 1186524, Control_c, 0, 64, 93
1, 1186524, Control_c, 0, 67, 123
1, 1186537, Note_off_c, 0, 52, 57
1, 1186537, Note_off_c, 0, 64, 60
1, 1186539, Control_c, 0, 64, 98
1, 1186554, Control_c, 0, 64, 104
1, 1186554, Control_c, 0, 67, 119
1, 1186568, Control_c, 0, 64, 110
1, 1186568, Control_c, 0, 67, 117
1, 1186582, Note_on_c, 0, 55, 44
1, 1186583, Control_c, 0, 64, 120
1, 1186583, Control_c, 0, 67, 115
1, 1186598, Control_c, 0, 64, 127
1, 1186598, Control_c, 0, 67, 111
1, 1186613, Control_c, 0, 67, 106
1, 1186628, Control_c, 0, 67, 92
1, 1186644, Control_c, 0, 67, 69
1, 1186650, Note_off_c, 0, 55, 47
1, 1186658, Control_c, 0, 67, 42
1, 1186663, Note_on_c, 0, 48, 43
1, 1186673, Control_c, 0, 67, 0
1, 1186743, Note_off_c, 0, 48, 53
1, 1186780, Note_on_c, 0, 52, 39
1, 1186842, Note_off_c, 0, 52, 45
1, 1186867, Note_on_c, 0, 55, 31
1, 1186926, Control_c, 0, 64, 118
1, 1186940, Control_c, 0, 64, 91
1, 1186942, Note_off_c, 0, 55, 40
1, 1186955, Control_c, 0, 64, 76
1, 1186956, Note_on_c, 0, 48, 32
1, 1186960, Note_on_c, 0, 67, 48
1, 1186970, Control_c, 0, 64, 65
1, 1186984, Control_c, 0, 64, 58
1, 1186999, Control_c, 0, 64, 60
1, 1187014, Control_c, 0, 64, 63
1, 1187029, Control_c, 0, 64, 66
1, 1187044, Control_c, 0, 64, 72
1, 1187066, Control_c, 0, 64, 80
1, 1187079, Note_on_c, 0, 52, 36
1, 1187081, Control_c, 0, 64, 89
1, 1187090, Note_off_c, 0, 67, 61
1, 1187094, Note_off_c, 0, 48, 33
1, 1187096, Control_c, 0, 64, 97
1, 1187110, Control_c, 0, 64, 106
1, 1187125, Control_c, 0, 64, 113
1, 1187140, Control_c, 0, 64, 119
1, 1187143, Note_off_c, 0, 52, 43
1, 1187155, Control_c, 0, 64, 125
1, 1187170, Control_c, 0, 64, 127
1, 1187172, Note_on_c, 0, 55, 41
1, 1187224, Note_off_c, 0, 55, 45
1, 1187254, Note_on_c, 0, 67, 59
1, 1187268, Note_on_c, 0, 48, 34
1, 1187309, Note_off_c, 0, 67, 60
1, 1187346, Note_off_c, 0, 48, 49
1, 1187377, Note_on_c, 0, 52, 41
1, 1187423, Note_off_c, 0, 52, 53
1, 1187483, Note_on_c, 0, 55, 26
1, 1187544, Note_off_c, 0, 55, 41
1, 1187552, Note_on_c, 0, 48, 22
1, 1187556, Control_c, 0, 64, 100
1, 1187570, Control_c, 0, 64, 81
1, 1187585, Control_c, 0, 64, 69
1, 1187593, Note_on_c, 0, 67, 44
1, 1187600, Control_c, 0, 64, 60
1, 1187614, Control_c, 0, 64, 54
1, 1187629, Control_c, 0, 64, 57
1, 1187644, Control_c, 0, 64, 60
1, 1187659, Control_c, 0, 64, 64
1, 1187674, Control_c, 0, 64, 70
1, 1187689, Control_c, 0, 64, 77
1, 1187692, Note_on_c, 0, 52, 18
1, 1187701, Note_off_c, 0, 48, 35
1, 1187704, Control_c, 0, 64, 86
1, 1187719, Control_c, 0, 64, 93
1, 1187733, Control_c, 0, 64, 100
1, 1187748, Control_c, 0, 64, 105
1, 1187763, Control_c, 0, 64, 111
1, 1187772, Note_off_c, 0, 67, 57
1, 1187774, Note_off_c, 0, 52, 36
1, 1187778, Control_c, 0, 64, 119
1, 1187793, Control_c, 0, 64, 125
1, 1187794, Note_on_c, 0, 55, 29
1, 1187814, Control_c, 0, 64, 127
1, 1187863, Note_off_c, 0, 55, 43
1, 1187882, Note_on_c, 0, 48, 33
1, 1187951, Note_off_c, 0, 48, 53
1, 1187996, Note_on_c, 0, 52, 27
1, 1188043, Note_off_c, 0, 52, 46
1, 1188079, Note_on_c, 0, 55, 27
1, 1188111, Control_c, 0, 64, 111
1, 1188126, Control_c, 0, 64, 93
1, 1188140, Control_c, 0, 64, 78
1, 1188148, Note_off_c, 0, 55, 40
1, 1188155, Control_c, 0, 64, 67
1, 1188170, Control_c, 0, 64, 59
1, 1188185, Control_c, 0, 64, 57
1, 1188195, Note_on_c, 0, 48, 26
1, 1188200, Note_on_c, 0, 76, 50
1, 1188200, Control_c, 0, 64, 59
1, 1188212, Note_on_c, 0, 64, 32
1, 1188214, Control_c, 0, 64, 62
1, 1188230, Control_c, 0, 64, 65
1, 1188240, Note_off_c, 0, 76, 48
1, 1188245, Control_c, 0, 64, 69
1, 1188257, Note_off_c, 0, 64, 47
1, 1188260, Control_c, 0, 64, 76
1, 1188275, Control_c, 0, 64, 85
1, 1188290, Control_c, 0, 64, 90
1, 1188304, Note_off_c, 0, 48, 38
1, 1188304, Control_c, 0, 64, 93
1, 1188319, Control_c, 0, 64, 95
1, 1188320, Note_on_c, 0, 52, 37
1, 1188334, Control_c, 0, 64, 98
1, 1188347, Note_on_c, 0, 76, 67
1, 1188349, Control_c, 0, 64, 101
1, 1188363, Note_on_c, 0, 64, 52
1, 1188378, Control_c, 0, 64, 103
1, 1188392, Note_off_c, 0, 64, 55
1, 1188395, Note_off_c, 0, 76, 47
1, 1188396, Note_off_c, 0, 52, 35
1, 1188401, Note_on_c, 0, 55, 36
1, 1188437, Control_c, 0, 64, 105
1, 1188462, Note_off_c, 0, 55, 42
1, 1188485, Note_on_c, 0, 64, 64
1, 1188485, Note_on_c, 0, 76, 80
1, 1188491, Note_on_c, 0, 48, 46
1, 1188511, Control_c, 0, 64, 107
1, 1188523, Note_off_c, 0, 64, 53
1, 1188539, Note_off_c, 0, 76, 62
1, 1188576, Note_off_c, 0, 48, 54
1, 1188609, Note_on_c, 0, 52, 42
1, 1188617, Note_on_c, 0, 76, 75
1, 1188623, Note_on_c, 0, 64, 63
1, 1188637, Note_off_c, 0, 52, 56
1, 1188647, Note_off_c, 0, 64, 58
1, 1188676, Note_off_c, 0, 76, 63
1, 1188684, Note_on_c, 0, 55, 42
1, 1188740, Note_off_c, 0, 55, 47
1, 1188756, Control_c, 0, 64, 95
1, 1188771, Control_c, 0, 64, 77
1, 1188782, Note_on_c, 0, 47, 41
1, 1188783, Note_on_c, 0, 77, 62
1, 1188786, Control_c, 0, 64, 63
1, 1188799, Note_on_c, 0, 65, 45
1, 1188801, Control_c, 0, 64, 43
1, 1188816, Control_c, 0, 64, 0
1, 1188845, Control_c, 0, 64, 36
1, 1188860, Control_c, 0, 64, 48
1, 1188875, Control_c, 0, 64, 61
1, 1188875, Control_c, 0, 67, 23
1, 1188890, Control_c, 0, 64, 70
1, 1188890, Control_c, 0, 67, 28
1, 1188905, Control_c, 0, 64, 80
1, 1188905, Control_c, 0, 67, 35
1, 1188907, Note_off_c, 0, 47, 35
1, 1188909, Note_on_c, 0, 50, 34
1, 1188919, Control_c, 0, 64, 92
1, 1188919, Control_c, 0, 67, 46
1, 1188934, Control_c, 0, 64, 97
1, 1188934, Control_c, 0, 67, 64
1, 1188943, Note_off_c, 0, 77, 45
1, 1188949, Control_c, 0, 67, 80
1, 1188963, Control_c, 0, 64, 100
1, 1188963, Control_c, 0, 67, 97
1, 1188975, Note_off_c, 0, 50, 48
1, 1188978, Control_c, 0, 67, 112
1, 1188993, Control_c, 0, 64, 102
1, 1188993, Control_c, 0, 67, 124
1, 1189008, Control_c, 0, 67, 127
1, 1189022, Note_on_c, 0, 55, 25
1, 1189067, Note_off_c, 0, 65, 56
1, 1189074, Note_off_c, 0, 55, 44
1, 1189084, Note_on_c, 0, 47, 36
1, 1189144, Note_off_c, 0, 47, 42
1, 1189165, Note_on_c, 0, 50, 40
1, 1189215, Note_off_c, 0, 50, 55
1, 1189269, Note_on_c, 0, 55, 31
1, 1189313, Control_c, 0, 64, 96
1, 1189328, Control_c, 0, 64, 86
1, 1189343, Control_c, 0, 64, 75
1, 1189358, Control_c, 0, 64, 64
1, 1189368, Note_off_c, 0, 55, 33
1, 1189373, Control_c, 0, 64, 45
1, 1189376, Note_on_c, 0, 47, 31
1, 1189378, Poly_aftertouch_c, 0, 64, 0
1, 1189384, Note_on_c, 0, 69, 51
1, 1189387, Control_c, 0, 64, 37
1, 1189402, Control_c, 0, 64, 42
1, 1189417, Control_c, 0, 64, 49
1, 1189422, Note_on_c, 0, 67, 55
1, 1189432, Control_c, 0, 64, 56
1, 1189447, Control_c, 0, 64, 62
1, 1189447, Control_c, 0, 67, 119
1, 1189461, Control_c, 0, 64, 67
1, 1189461, Control_c, 0, 67, 103
1, 1189474, Note_off_c, 0, 69, 36
1, 1189476, Control_c, 0, 64, 73
1, 1189476, Control_c, 0, 67, 78
1, 1189487, Note_on_c, 0, 50, 29
1, 1189491, Control_c, 0, 64, 78
1, 1189491, Control_c, 0, 67, 54
1, 1189502, Note_off_c, 0, 47, 32
1, 1189506, Control_c, 0, 64, 82
1, 1189506, Control_c, 0, 67, 33
1, 1189521, Control_c, 0, 64, 84
1, 1189521, Control_c, 0, 67, 0
1, 1189535, Control_c, 0, 64, 86
1, 1189546, Note_on_c, 0, 66, 80
1, 1189550, Control_c, 0, 64, 88
1, 1189551, Note_off_c, 0, 50, 41
1, 1189565, Note_off_c, 0, 67, 54
1, 1189565, Control_c, 0, 64, 90
1, 1189567, Note_on_c, 0, 55, 50
1, 1189580, Control_c, 0, 64, 91
1, 1189594, Control_c, 0, 64, 90
1, 1189609, Control_c, 0, 64, 88
1, 1189624, Control_c, 0, 64, 79
1, 1189639, Control_c, 0, 64, 68
1, 1189654, Control_c, 0, 64, 59
1, 1189668, Control_c, 0, 64, 54
1, 1189674, Note_on_c, 0, 47, 39
1, 1189677, Note_off_c, 0, 55, 38
1, 1189683, Control_c, 0, 64, 58
1, 1189686, Note_on_c, 0, 67, 75
1, 1189698, Control_c, 0, 64, 62
1, 1189700, Note_off_c, 0, 66, 58
1, 1189713, Control_c, 0, 64, 66
1, 1189728, Control_c, 0, 64, 72
1, 1189743, Control_c, 0, 64, 79
1, 1189752, Note_off_c, 0, 47, 54
1, 1189757, Control_c, 0, 64, 85
1, 1189772, Control_c, 0, 64, 86
1, 1189776, Note_on_c, 0, 50, 46
1, 1189787, Control_c, 0, 64, 87
1, 1189802, Control_c, 0, 64, 87
1, 1189810, Note_on_c, 0, 69, 77
1, 1189817, Control_c, 0, 64, 88
1, 1189828, Note_off_c, 0, 67, 57
1, 1189832, Control_c, 0, 64, 89
1, 1189840, Note_off_c, 0, 50, 52
1, 1189847, Control_c, 0, 64, 90
1, 1189862, Control_c, 0, 64, 91
1, 1189871, Note_on_c, 0, 55, 48
1, 1189877, Control_c, 0, 64, 91
1, 1189879, Note_off_c, 0, 69, 59
1, 1189921, Control_c, 0, 64, 91
1, 1189936, Control_c, 0, 64, 86
1, 1189944, Note_on_c, 0, 47, 38
1, 1189947, Note_off_c, 0, 55, 42
1, 1189951, Control_c, 0, 64, 75
1, 1189966, Control_c, 0, 64, 61
1, 1189981, Note_on_c, 0, 69, 65
1, 1189981, Control_c, 0, 64, 36
1, 1189996, Control_c, 0, 64, 0
1, 1190024, Control_c, 0, 64, 36
1, 1190039, Control_c, 0, 64, 51
1, 1190060, Note_off_c, 0, 47, 46
1, 1190062, Control_c, 0, 64, 64
1, 1190076, Control_c, 0, 64, 72
1, 1190083, Note_on_c, 0, 50, 29
1, 1190091, Control_c, 0, 64, 80
1, 1190106, Control_c, 0, 64, 88
1, 1190121, Control_c, 0, 64, 91
1, 1190124, Note_off_c, 0, 50, 46
1, 1190136, Control_c, 0, 64, 95
1, 1190151, Control_c, 0, 64, 99
1, 1190153, Note_on_c, 0, 55, 46
1, 1190165, Control_c, 0, 64, 102
1, 1190209, Note_off_c, 0, 55, 51
1, 1190209, Control_c, 0, 64, 94
1, 1190224, Control_c, 0, 64, 77
1, 1190231, Note_on_c, 0, 47, 34
1, 1190239, Control_c, 0, 64, 63
1, 1190254, Control_c, 0, 64, 40
1, 1190269, Control_c, 0, 64, 35
1, 1190279, Note_on_c, 0, 67, 60
1, 1190283, Control_c, 0, 64, 47
1, 1190285, Note_off_c, 0, 69, 42
1, 1190298, Control_c, 0, 64, 57
1, 1190307, Note_off_c, 0, 67, 67
1, 1190310, Note_off_c, 0, 47, 57
1, 1190313, Control_c, 0, 64, 66
1, 1190328, Control_c, 0, 64, 76
1, 1190343, Control_c, 0, 64, 93
1, 1190344, Note_on_c, 0, 50, 41
1, 1190357, Control_c, 0, 64, 127
1, 1190378, Note_off_c, 0, 50, 57
1, 1190433, Note_on_c, 0, 55, 49
1, 1190509, Note_off_c, 0, 55, 43
1, 1190535, Control_c, 0, 64, 98
1, 1190541, Note_on_c, 0, 47, 39
1, 1190550, Control_c, 0, 64, 72
1, 1190551, Note_on_c, 0, 89, 84
1, 1190565, Control_c, 0, 64, 55
1, 1190582, Note_off_c, 0, 47, 54
1, 1190595, Control_c, 0, 64, 62
1, 1190608, Note_on_c, 0, 86, 73
1, 1190609, Note_off_c, 0, 89, 57
1, 1190609, Control_c, 0, 64, 66
1, 1190624, Control_c, 0, 64, 75
1, 1190625, Note_on_c, 0, 50, 26
1, 1190640, Control_c, 0, 64, 90
1, 1190655, Control_c, 0, 64, 113
1, 1190666, Note_off_c, 0, 50, 42
1, 1190670, Control_c, 0, 64, 127
1, 1190675, Note_on_c, 0, 83, 73
1, 1190683, Note_off_c, 0, 86, 59
1, 1190701, Note_on_c, 0, 55, 50
1, 1190728, Note_off_c, 0, 83, 61
1, 1190749, Note_on_c, 0, 77, 63
1, 1190777, Note_off_c, 0, 77, 68
1, 1190813, Note_on_c, 0, 47, 44
1, 1190816, Note_off_c, 0, 55, 44
1, 1190860, Note_on_c, 0, 74, 73
1, 1190903, Note_off_c, 0, 47, 52
1, 1190922, Note_on_c, 0, 50, 43
1, 1190941, Note_off_c, 0, 74, 54
1, 1190948, Note_on_c, 0, 71, 73
1, 1190962, Note_off_c, 0, 50, 62
1, 1191004, Note_off_c, 0, 71, 63
1, 1191023, Note_on_c, 0, 55, 49
1, 1191034, Note_on_c, 0, 65, 66
1, 1191062, Control_c, 0, 64, 98
1, 1191077, Control_c, 0, 64, 77
1, 1191092, Control_c, 0, 64, 61
1, 1191093, Note_off_c, 0, 65, 55
1, 1191095, Note_off_c, 0, 55, 51
1, 1191106, Control_c, 0, 64, 0
1, 1191141, Note_on_c, 0, 64, 65
1, 1191145, Note_on_c, 0, 48, 32
1, 1191150, Control_c, 0, 64, 49
1, 1191165, Control_c, 0, 64, 63
1, 1191180, Control_c, 0, 64, 72
1, 1191195, Control_c, 0, 64, 82
1, 1191209, Note_off_c, 0, 48, 53
1, 1191210, Control_c, 0, 64, 95
1, 1191224, Control_c, 0, 64, 104
1, 1191239, Control_c, 0, 64, 116
1, 1191244, Note_on_c, 0, 52, 48
1, 1191251, Note_off_c, 0, 64, 61
1, 1191254, Control_c, 0, 64, 127
1, 1191296, Note_off_c, 0, 52, 61
1, 1191341, Note_on_c, 0, 55, 52
1, 1191376, Note_off_c, 0, 55, 54
1, 1191416, Note_on_c, 0, 48, 48
1, 1191501, Note_off_c, 0, 48, 49
1, 1191527, Note_on_c, 0, 52, 43
1, 1191555, Note_on_c, 0, 88, 76
1, 1191570, Note_off_c, 0, 52, 62
1, 1191618, Note_on_c, 0, 55, 47
1, 1191626, Note_off_c, 0, 88, 61
1, 1191649, Control_c, 0, 64, 95
1, 1191663, Control_c, 0, 64, 66
1, 1191678, Control_c, 0, 64, 45
1, 1191683, Note_off_c, 0, 55, 50
1, 1191693, Control_c, 0, 64, 44
1, 1191695, Note_on_c, 0, 89, 99
1, 1191702, Note_on_c, 0, 47, 52
1, 1191708, Control_c, 0, 64, 60
1, 1191723, Control_c, 0, 64, 70
1, 1191737, Control_c, 0, 64, 85
1, 1191740, Note_off_c, 0, 47, 65
1, 1191752, Control_c, 0, 64, 127
1, 1191762, Note_on_c, 0, 86, 86
1, 1191777, Note_off_c, 0, 89, 56
1, 1191796, Note_on_c, 0, 50, 41
1, 1191829, Note_off_c, 0, 50, 58
1, 1191837, Note_on_c, 0, 83, 81
1, 1191848, Note_off_c, 0, 86, 61
1, 1191862, Note_on_c, 0, 55, 56
1, 1191893, Note_off_c, 0, 83, 62
1, 1191904, Note_on_c, 0, 77, 73
1, 1191938, Note_off_c, 0, 77, 62
1, 1191957, Note_on_c, 0, 47, 50
1, 1191965, Note_off_c, 0, 55, 51
1, 1191991, Note_on_c, 0, 74, 86
1, 1192017, Note_off_c, 0, 47, 51
1, 1192051, Note_on_c, 0, 50, 57
1, 1192066, Note_on_c, 0, 71, 85
1, 1192083, Note_off_c, 0, 74, 61
1, 1192089, Note_off_c, 0, 50, 62
1, 1192130, Note_off_c, 0, 71, 60
1, 1192143, Note_on_c, 0, 55, 57
1, 1192146, Note_on_c, 0, 65, 84
1, 1192205, Note_off_c, 0, 65, 57
1, 1192211, Control_c, 0, 64, 83
1, 1192226, Note_off_c, 0, 55, 56
1, 1192227, Control_c, 0, 64, 62
1, 1192242, Control_c, 0, 64, 0
1, 1192247, Note_on_c, 0, 64, 84
1, 1192249, Note_on_c, 0, 48, 53
1, 1192286, Control_c, 0, 64, 49
1, 1192309, Control_c, 0, 64, 64
1, 1192324, Control_c, 0, 64, 74
1, 1192338, Control_c, 0, 64, 85
1, 1192340, Note_off_c, 0, 48, 62
1, 1192353, Control_c, 0, 64, 97
1, 1192358, Note_on_c, 0, 52, 61
1, 1192368, Control_c, 0, 64, 110
1, 1192369, Note_off_c, 0, 64, 65
1, 1192383, Control_c, 0, 64, 127
1, 1192408, Note_off_c, 0, 52, 60
1, 1192443, Note_on_c, 0, 55, 68
1, 1192506, Note_off_c, 0, 55, 44
1, 1192519, Note_on_c, 0, 48, 69
1, 1192589, Note_off_c, 0, 48, 58
1, 1192601, Note_on_c, 0, 52, 65
1, 1192640, Note_off_c, 0, 52, 62
1, 1192646, Note_on_c, 0, 88, 97
1, 1192691, Note_on_c, 0, 55, 65
1, 1192733, Note_off_c, 0, 88, 63
1, 1192738, Control_c, 0, 64, 107
1, 1192753, Control_c, 0, 64, 68
1, 1192766, Note_off_c, 0, 55, 59
1, 1192768, Control_c, 0, 64, 40
1, 1192781, Note_on_c, 0, 47, 61
1, 1192781, Note_on_c, 0, 89, 106
1, 1192783, Control_c, 0, 64, 0
1, 1192797, Control_c, 0, 64, 52
1, 1192812, Control_c, 0, 64, 66
1, 1192827, Control_c, 0, 64, 81
1, 1192842, Control_c, 0, 64, 127
1, 1192845, Note_off_c, 0, 47, 61
1, 1192852, Note_on_c, 0, 86, 88
1, 1192863, Note_on_c, 0, 50, 57
1, 1192881, Note_off_c, 0, 89, 62
1, 1192905, Note_off_c, 0, 50, 62
1, 1192926, Note_on_c, 0, 83, 82
1, 1192933, Note_off_c, 0, 86, 62
1, 1192941, Note_on_c, 0, 55, 57
1, 1192985, Note_off_c, 0, 83, 64
1, 1192992, Note_on_c, 0, 77, 73
1, 1193025, Note_off_c, 0, 77, 62
1, 1193051, Note_on_c, 0, 47, 65
1, 1193060, Note_off_c, 0, 55, 56
1, 1193087, Note_on_c, 0, 74, 88
1, 1193128, Note_off_c, 0, 47, 62
1, 1193147, Note_on_c, 0, 50, 59
1, 1193165, Note_on_c, 0, 71, 85
1, 1193181, Note_off_c, 0, 50, 64
1, 1193184, Note_off_c, 0, 74, 61
1, 1193230, Note_off_c, 0, 71, 62
1, 1193234, Note_on_c, 0, 55, 58
1, 1193244, Note_on_c, 0, 65, 81
1, 1193309, Control_c, 0, 64, 84
1, 1193324, Control_c, 0, 64, 62
1, 1193331, Note_off_c, 0, 65, 54
1, 1193335, Note_off_c, 0, 55, 56
1, 1193339, Control_c, 0, 64, 0
1, 1193349, Note_on_c, 0, 48, 49
1, 1193354, Note_on_c, 0, 64, 73
1, 1193383, Control_c, 0, 64, 48
1, 1193398, Control_c, 0, 64, 64
1, 1193412, Note_off_c, 0, 64, 64
1, 1193413, Control_c, 0, 64, 74
1, 1193427, Control_c, 0, 64, 86
1, 1193433, Note_off_c, 0, 48, 61
1, 1193442, Control_c, 0, 64, 104
1, 1193457, Note_on_c, 0, 52, 57
1, 1193457, Control_c, 0, 64, 127
1, 1193492, Note_off_c, 0, 52, 64
1, 1193553, Note_on_c, 0, 55, 50
1, 1193621, Control_c, 0, 64, 88
1, 1193621, Note_off_c, 0, 55, 49
1, 1193635, Control_c, 0, 64, 66
1, 1193647, Note_on_c, 0, 48, 50
1, 1193650, Control_c, 0, 64, 34
1, 1193665, Control_c, 0, 64, 0
1, 1193671, Note_on_c, 0, 88, 63
1, 1193694, Control_c, 0, 64, 50
1, 1193707, Note_off_c, 0, 88, 60
1, 1193709, Control_c, 0, 64, 62
1, 1193710, Note_off_c, 0, 48, 56
1, 1193724, Control_c, 0, 64, 72
1, 1193739, Control_c, 0, 64, 84
1, 1193754, Control_c, 0, 64, 113
1, 1193761, Note_on_c, 0, 76, 66
1, 1193761, Note_on_c, 0, 52, 39
1, 1193769, Control_c, 0, 64, 127
1, 1193793, Note_off_c, 0, 52, 50
1, 1193806, Note_off_c, 0, 76, 59
1, 1193847, Note_on_c, 0, 55, 57
1, 1193858, Note_on_c, 0, 88, 66
1, 1193885, Note_off_c, 0, 88, 67
1, 1193924, Note_off_c, 0, 55, 51
1, 1193925, Control_c, 0, 64, 107
1, 1193940, Control_c, 0, 64, 75
1, 1193946, Note_on_c, 0, 47, 53
1, 1193955, Control_c, 0, 64, 54
1, 1193961, Note_on_c, 0, 89, 74
1, 1193970, Control_c, 0, 64, 40
1, 1193984, Control_c, 0, 64, 48
1, 1193999, Control_c, 0, 64, 58
1, 1194004, Note_off_c, 0, 47, 61
1, 1194014, Control_c, 0, 64, 65
1, 1194024, Note_off_c, 0, 89, 58
1, 1194029, Control_c, 0, 64, 76
1, 1194040, Note_on_c, 0, 50, 46
1, 1194044, Control_c, 0, 64, 97
1, 1194053, Note_on_c, 0, 77, 64
1, 1194059, Control_c, 0, 64, 127
1, 1194073, Note_off_c, 0, 50, 59
1, 1194089, Note_off_c, 0, 77, 63
1, 1194134, Note_on_c, 0, 55, 53
1, 1194135, Note_on_c, 0, 89, 74
1, 1194158, Note_off_c, 0, 89, 68
1, 1194209, Note_off_c, 0, 55, 47
1, 1194222, Control_c, 0, 64, 93
1, 1194237, Note_on_c, 0, 47, 59
1, 1194237, Control_c, 0, 64, 68
1, 1194250, Note_on_c, 0, 90, 76
1, 1194251, Control_c, 0, 64, 47
1, 1194266, Control_c, 0, 64, 48
1, 1194281, Control_c, 0, 64, 58
1, 1194296, Control_c, 0, 64, 64
1, 1194310, Control_c, 0, 64, 74
1, 1194312, Note_off_c, 0, 47, 63
1, 1194320, Note_off_c, 0, 90, 61
1, 1194325, Control_c, 0, 64, 95
1, 1194340, Control_c, 0, 64, 127
1, 1194343, Note_on_c, 0, 50, 52
1, 1194347, Note_on_c, 0, 78, 71
1, 1194385, Note_off_c, 0, 50, 59
1, 1194404, Note_off_c, 0, 78, 62
1, 1194424, Note_on_c, 0, 54, 75
1, 1194429, Note_on_c, 0, 90, 82
1, 1194461, Note_off_c, 0, 90, 59
1, 1194489, Note_off_c, 0, 54, 57
1, 1194502, Control_c, 0, 64, 83
1, 1194517, Control_c, 0, 64, 60
1, 1194528, Note_on_c, 0, 47, 67
1, 1194528, Note_on_c, 0, 91, 98
1, 1194532, Control_c, 0, 64, 0
1, 1194569, Control_c, 0, 64, 34
1, 1194584, Control_c, 0, 64, 55
1, 1194598, Control_c, 0, 64, 69
1, 1194610, Note_off_c, 0, 91, 60
1, 1194613, Note_off_c, 0, 47, 64
1, 1194613, Control_c, 0, 64, 91
1, 1194622, Note_on_c, 0, 50, 70
1, 1194623, Note_on_c, 0, 79, 88
1, 1194629, Control_c, 0, 64, 127
1, 1194670, Note_off_c, 0, 79, 66
1, 1194673, Note_off_c, 0, 50, 59
1, 1194709, Note_on_c, 0, 53, 77
1, 1194710, Note_on_c, 0, 91, 90
1, 1194742, Note_off_c, 0, 91, 62
1, 1194789, Note_off_c, 0, 53, 55
1, 1194792, Control_c, 0, 64, 95
1, 1194801, Note_on_c, 0, 47, 85
1, 1194807, Control_c, 0, 64, 68
1, 1194816, Note_on_c, 0, 92, 99
1, 1194822, Control_c, 0, 64, 54
1, 1194837, Control_c, 0, 64, 58
1, 1194852, Control_c, 0, 64, 67
1, 1194867, Control_c, 0, 64, 79
1, 1194881, Control_c, 0, 64, 127
1, 1194896, Note_off_c, 0, 92, 60
1, 1194903, Note_on_c, 0, 50, 80
1, 1194907, Note_off_c, 0, 47, 63
1, 1194913, Note_on_c, 0, 80, 90
1, 1194943, Note_off_c, 0, 50, 59
1, 1194978, Note_off_c, 0, 80, 63
1, 1194993, Note_on_c, 0, 52, 80
1, 1194995, Note_on_c, 0, 92, 94
1, 1195041, Note_off_c, 0, 92, 65
1, 1195049, Note_off_c, 0, 52, 60
1, 1195088, Control_c, 0, 64, 76
1, 1195094, Note_on_c, 0, 48, 76
1, 1195102, Note_on_c, 0, 93, 100
1, 1195103, Control_c, 0, 64, 51
1, 1195117, Control_c, 0, 64, 0
1, 1195132, Control_c, 0, 64, 41
1, 1195147, Control_c, 0, 64, 61
1, 1195154, Note_on_c, 0, 92, 12
1, 1195154, Note_off_c, 0, 92, 127
1, 1195162, Control_c, 0, 64, 71
1, 1195177, Control_c, 0, 64, 97
1, 1195184, Note_off_c, 0, 48, 63
1, 1195190, Note_off_c, 0, 93, 54
1, 1195192, Control_c, 0, 64, 127
1, 1195193, Note_on_c, 0, 52, 70
1, 1195194, Note_on_c, 0, 81, 95
1, 1195234, Note_off_c, 0, 81, 66
1, 1195251, Note_off_c, 0, 52, 58
1, 1195272, Note_on_c, 0, 93, 92
1, 1195279, Note_on_c, 0, 57, 76
1, 1195301, Note_on_c, 0, 92, 43
1, 1195318, Note_off_c, 0, 93, 64
1, 1195326, Note_off_c, 0, 92, 59
1, 1195347, Control_c, 0, 64, 84
1, 1195349, Note_off_c, 0, 57, 62
1, 1195362, Control_c, 0, 64, 61
1, 1195368, Note_on_c, 0, 49, 85
1, 1195377, Control_c, 0, 64, 40
1, 1195383, Note_on_c, 0, 94, 102
1, 1195392, Control_c, 0, 64, 53
1, 1195406, Control_c, 0, 64, 64
1, 1195422, Control_c, 0, 64, 75
1, 1195433, Note_on_c, 0, 92, 17
1, 1195437, Control_c, 0, 64, 115
1, 1195452, Control_c, 0, 64, 127
1, 1195462, Note_on_c, 0, 52, 71
1, 1195468, Note_off_c, 0, 49, 62
1, 1195483, Note_on_c, 0, 82, 94
1, 1195483, Note_off_c, 0, 92, 46
1, 1195487, Note_off_c, 0, 94, 48
1, 1195513, Note_off_c, 0, 52, 51
1, 1195548, Note_on_c, 0, 55, 57
1, 1195549, Note_off_c, 0, 82, 63
1, 1195558, Poly_aftertouch_c, 0, 88, 0
1, 1195569, Note_on_c, 0, 94, 93
1, 1195578, Note_off_c, 0, 55, 64
1, 1195615, Poly_aftertouch_c, 0, 88, 0
1, 1195621, Note_off_c, 0, 94, 66
1, 1195679, Note_on_c, 0, 56, 93
1, 1195681, Note_on_c, 0, 95, 104
1, 1195685, Note_on_c, 0, 47, 80
1, 1195689, Note_on_c, 0, 52, 80
1, 1195704, Control_c, 0, 64, 72
1, 1195719, Control_c, 0, 64, 38
1, 1195734, Control_c, 0, 64, 0
1, 1195778, Control_c, 0, 64, 58
1, 1195779, Note_on_c, 0, 92, 77
1, 1195793, Control_c, 0, 64, 75
1, 1195808, Control_c, 0, 64, 127
1, 1195838, Note_off_c, 0, 47, 62
1, 1195849, Note_off_c, 0, 95, 56
1, 1195871, Note_on_c, 0, 88, 88
1, 1195884, Note_off_c, 0, 56, 60
1, 1195889, Note_off_c, 0, 52, 61
1, 1195916, Note_off_c, 0, 92, 62
1, 1195931, Note_off_c, 0, 88, 65
1, 1195958, Note_on_c, 0, 83, 82
1, 1196028, Note_off_c, 0, 83, 0
1, 1196060, Note_on_c, 0, 80, 85
1, 1196075, Poly_aftertouch_c, 0, 83, 0
1, 1196149, Note_on_c, 0, 76, 88
1, 1196191, Note_off_c, 0, 80, 59
1, 1196243, Note_off_c, 0, 76, 50
1, 1196246, Control_c, 0, 64, 95
1, 1196255, Note_on_c, 0, 83, 97
1, 1196260, Control_c, 0, 64, 65
1, 1196268, Note_on_c, 0, 59, 86
1, 1196275, Control_c, 0, 64, 0
1, 1196304, Control_c, 0, 64, 55
1, 1196319, Control_c, 0, 64, 70
1, 1196334, Control_c, 0, 64, 91
1, 1196349, Control_c, 0, 64, 127
1, 1196351, Note_on_c, 0, 80, 87
1, 1196362, Note_on_c, 0, 56, 82
1, 1196376, Note_off_c, 0, 59, 57
1, 1196380, Note_on_c, 0, 57, 21
1, 1196414, Note_off_c, 0, 83, 55
1, 1196428, Note_off_c, 0, 57, 50
1, 1196437, Note_on_c, 0, 76, 84
1, 1196447, Note_on_c, 0, 52, 72
1, 1196465, Note_off_c, 0, 56, 61
1, 1196482, Note_off_c, 0, 80, 59
1, 1196491, Note_off_c, 0, 76, 61
1, 1196495, Note_off_c, 0, 52, 59
1, 1196527, Note_on_c, 0, 71, 78
1, 1196560, Note_on_c, 0, 47, 83
1, 1196583, Note_off_c, 0, 71, 61
1, 1196626, Note_on_c, 0, 68, 79
1, 1196642, Note_on_c, 0, 44, 84
1, 1196646, Note_off_c, 0, 47, 62
1, 1196721, Note_on_c, 0, 64, 81
1, 1196735, Note_on_c, 0, 40, 71
1, 1196748, Control_c, 0, 64, 82
1, 1196758, Note_off_c, 0, 44, 63
1, 1196763, Control_c, 0, 64, 56
1, 1196766, Note_off_c, 0, 68, 61
1, 1196778, Control_c, 0, 64, 0
1, 1196830, Control_c, 0, 64, 53
1, 1196831, Note_on_c, 0, 59, 95
1, 1196843, Note_on_c, 0, 35, 82
1, 1196845, Control_c, 0, 64, 76
1, 1196849, Note_off_c, 0, 40, 64
1, 1196860, Note_off_c, 0, 64, 55
1, 1196860, Control_c, 0, 64, 127
1, 1196872, Note_off_c, 0, 35, 63
1, 1196876, Note_off_c, 0, 59, 68
1, 1196938, Poly_aftertouch_c, 0, 38, 0
1, 1197113, Control_c, 0, 64, 93
1, 1197127, Control_c, 0, 64, 77
1, 1197142, Control_c, 0, 64, 65
1, 1197157, Control_c, 0, 64, 52
1, 1197172, Control_c, 0, 64, 0
1, 1197241, Note_on_c, 0, 68, 90
1, 1197242, Note_on_c, 0, 59, 84
1, 1197243, Note_on_c, 0, 56, 81
1, 1197247, Note_on_c, 0, 47, 73
1, 1197247, Note_on_c, 0, 64, 80
1, 1197248, Note_on_c, 0, 52, 76
1, 1197290, Control_c, 0, 64, 43
1, 1197305, Control_c, 0, 64, 65
1, 1197320, Control_c, 0, 64, 77
1, 1197335, Control_c, 0, 64, 104
1, 1197350, Control_c, 0, 64, 127
1, 1197455, Note_off_c, 0, 47, 62
1, 1197517, Note_off_c, 0, 56, 57
1, 1197565, Note_off_c, 0, 59, 56
1, 1197887, Note_off_c, 0, 68, 43
1, 1197965, Control_c, 0, 64, 98
1, 1197980, Control_c, 0, 64, 76
1, 1197991, Note_off_c, 0, 52, 56
1, 1197995, Control_c, 0, 64, 59
1, 1197996, Note_off_c, 0, 64, 56
1, 1198010, Control_c, 0, 64, 0
1, 1198028, Note_on_c, 0, 54, 39
1, 1198036, Note_on_c, 0, 47, 22
1, 1198043, Note_on_c, 0, 66, 61
1, 1198050, Note_on_c, 0, 51, 26
1, 1198068, Note_on_c, 0, 59, 25
1, 1198068, Control_c, 0, 64, 49
1, 1198083, Control_c, 0, 64, 64
1, 1198089, Poly_aftertouch_c, 0, 63, 127
1, 1198098, Control_c, 0, 64, 73
1, 1198113, Control_c, 0, 64, 85
1, 1198128, Note_off_c, 0, 47, 58
1, 1198128, Control_c, 0, 64, 98
1, 1198135, Note_off_c, 0, 51, 56
1, 1198136, Poly_aftertouch_c, 0, 63, 0
1, 1198143, Note_off_c, 0, 66, 55
1, 1198143, Control_c, 0, 64, 104
1, 1198158, Control_c, 0, 64, 108
1, 1198170, Note_off_c, 0, 54, 58
1, 1198173, Control_c, 0, 64, 112
1, 1198187, Control_c, 0, 64, 119
1, 1198202, Control_c, 0, 64, 125
1, 1198217, Control_c, 0, 64, 127
1, 1198328, Control_c, 0, 64, 109
1, 1198342, Control_c, 0, 64, 88
1, 1198357, Control_c, 0, 64, 72
1, 1198372, Control_c, 0, 64, 58
1, 1198387, Control_c, 0, 64, 0
1, 1198403, Note_on_c, 0, 64, 46
1, 1198405, Note_off_c, 0, 59, 35
1, 1198417, Note_on_c, 0, 40, 19
1, 1198417, Control_c, 0, 64, 44
1, 1198419, Note_on_c, 0, 52, 38
1, 1198432, Control_c, 0, 64, 55
1, 1198447, Control_c, 0, 64, 65
1, 1198462, Control_c, 0, 64, 74
1, 1198472, Note_off_c, 0, 64, 53
1, 1198476, Control_c, 0, 64, 87
1, 1198491, Control_c, 0, 64, 111
1, 1198494, Note_on_c, 0, 59, 38
1, 1198501, Note_off_c, 0, 52, 54
1, 1198506, Control_c, 0, 64, 127
1, 1198518, Note_off_c, 0, 40, 37
1, 1198580, Control_c, 0, 67, 20
1, 1198595, Note_on_c, 0, 56, 52
1, 1198595, Control_c, 0, 67, 25
1, 1198599, Note_off_c, 0, 59, 56
1, 1198610, Control_c, 0, 67, 33
1, 1198626, Control_c, 0, 67, 43
1, 1198629, Note_off_c, 0, 56, 63
1, 1198640, Control_c, 0, 67, 58
1, 1198655, Control_c, 0, 67, 71
1, 1198670, Control_c, 0, 67, 82
1, 1198685, Control_c, 0, 67, 91
1, 1198687, Note_on_c, 0, 59, 45
1, 1198699, Control_c, 0, 67, 98
1, 1198714, Control_c, 0, 67, 101
1, 1198728, Note_off_c, 0, 59, 57
1, 1198798, Note_on_c, 0, 64, 48
1, 1198870, Note_off_c, 0, 64, 52
1, 1198877, Control_c, 0, 67, 103
1, 1198885, Note_on_c, 0, 68, 53
1, 1198891, Control_c, 0, 64, 110
1, 1198906, Control_c, 0, 64, 88
1, 1198921, Control_c, 0, 64, 68
1, 1198921, Control_c, 0, 67, 109
1, 1198936, Control_c, 0, 64, 52
1, 1198936, Control_c, 0, 67, 114
1, 1198951, Control_c, 0, 64, 0
1, 1198951, Control_c, 0, 67, 121
1, 1198966, Control_c, 0, 67, 127
1, 1198980, Control_c, 0, 64, 33
1, 1198989, Note_on_c, 0, 52, 39
1, 1198995, Note_off_c, 0, 68, 44
1, 1198996, Control_c, 0, 64, 49
1, 1199006, Note_on_c, 0, 71, 50
1, 1199011, Control_c, 0, 64, 60
1, 1199015, Note_on_c, 0, 59, 34
1, 1199021, Note_on_c, 0, 56, 24
1, 1199025, Control_c, 0, 64, 67
1, 1199048, Control_c, 0, 64, 73
1, 1199063, Control_c, 0, 64, 78
1, 1199078, Control_c, 0, 64, 82
1, 1199080, Note_off_c, 0, 59, 56
1, 1199089, Note_off_c, 0, 52, 55
1, 1199093, Control_c, 0, 64, 83
1, 1199098, Note_off_c, 0, 56, 58
1, 1199107, Control_c, 0, 64, 85
1, 1199118, Note_on_c, 0, 68, 60
1, 1199122, Control_c, 0, 64, 86
1, 1199137, Control_c, 0, 64, 88
1, 1199139, Note_off_c, 0, 71, 36
1, 1199152, Control_c, 0, 64, 90
1, 1199167, Control_c, 0, 64, 91
1, 1199181, Control_c, 0, 64, 93
1, 1199196, Control_c, 0, 64, 94
1, 1199222, Note_on_c, 0, 64, 42
1, 1199231, Note_off_c, 0, 68, 29
1, 1199240, Control_c, 0, 64, 92
1, 1199255, Control_c, 0, 64, 85
1, 1199270, Control_c, 0, 64, 73
1, 1199285, Control_c, 0, 64, 62
1, 1199299, Control_c, 0, 64, 47
1, 1199302, Note_off_c, 0, 64, 43
1, 1199314, Control_c, 0, 64, 41
1, 1199318, Note_on_c, 0, 52, 39
1, 1199323, Note_on_c, 0, 71, 46
1, 1199329, Control_c, 0, 64, 49
1, 1199338, Note_on_c, 0, 56, 38
1, 1199344, Control_c, 0, 64, 60
1, 1199346, Note_on_c, 0, 59, 15
1, 1199359, Control_c, 0, 64, 66
1, 1199374, Control_c, 0, 64, 72
1, 1199383, Note_off_c, 0, 52, 56
1, 1199389, Control_c, 0, 64, 79
1, 1199391, Note_off_c, 0, 59, 53
1, 1199404, Control_c, 0, 64, 83
1, 1199416, Note_on_c, 0, 68, 53
1, 1199419, Control_c, 0, 64, 85
1, 1199434, Control_c, 0, 64, 88
1, 1199449, Control_c, 0, 64, 89
1, 1199463, Control_c, 0, 64, 90
1, 1199490, Note_off_c, 0, 68, 50
1, 1199493, Control_c, 0, 64, 91
1, 1199500, Note_off_c, 0, 71, 21
1, 1199508, Control_c, 0, 64, 91
1, 1199517, Note_on_c, 0, 64, 43
1, 1199523, Control_c, 0, 64, 92
1, 1199568, Control_c, 0, 64, 91
1, 1199578, Note_off_c, 0, 56, 58
1, 1199583, Control_c, 0, 64, 86
1, 1199597, Control_c, 0, 64, 76
1, 1199609, Note_off_c, 0, 64, 33
1, 1199612, Control_c, 0, 64, 64
1, 1199613, Note_on_c, 0, 63, 48
1, 1199616, Note_on_c, 0, 57, 39
1, 1199621, Note_on_c, 0, 52, 32
1, 1199627, Control_c, 0, 64, 41
1, 1199637, Note_on_c, 0, 59, 25
1, 1199641, Control_c, 0, 64, 0
1, 1199671, Control_c, 0, 64, 34
1, 1199686, Control_c, 0, 64, 48
1, 1199697, Note_off_c, 0, 63, 56
1, 1199701, Control_c, 0, 64, 60
1, 1199701, Control_c, 0, 67, 125
1, 1199711, Note_on_c, 0, 66, 45
1, 1199715, Control_c, 0, 64, 68
1, 1199715, Control_c, 0, 67, 114
1, 1199730, Control_c, 0, 64, 77
1, 1199730, Control_c, 0, 67, 91
1, 1199745, Control_c, 0, 64, 85
1, 1199745, Control_c, 0, 67, 64
1, 1199760, Control_c, 0, 64, 89
1, 1199760, Control_c, 0, 67, 33
1, 1199775, Control_c, 0, 64, 91
1, 1199775, Control_c, 0, 67, 0
1, 1199797, Control_c, 0, 64, 93
1, 1199803, Note_off_c, 0, 52, 51
1, 1199812, Control_c, 0, 64, 94
1, 1199816, Note_off_c, 0, 59, 56
1, 1199827, Control_c, 0, 64, 96
1, 1199829, Note_on_c, 0, 71, 43
1, 1199831, Note_off_c, 0, 57, 62
1, 1199842, Control_c, 0, 64, 98
1, 1199851, Note_off_c, 0, 66, 0
1, 1199856, Control_c, 0, 64, 100
1, 1199866, Note_off_c, 0, 71, 47
1, 1199886, Control_c, 0, 64, 102
1, 1199891, Poly_aftertouch_c, 0, 66, 0
1, 1199904, Note_on_c, 0, 63, 57
1, 1199916, Control_c, 0, 64, 108
1, 1199930, Control_c, 0, 64, 125
1, 1199945, Control_c, 0, 64, 127
1, 1199997, Note_on_c, 0, 66, 67
1, 1199997, Note_off_c, 0, 63, 56
1, 1200092, Note_on_c, 0, 71, 64
1, 1200104, Note_off_c, 0, 66, 60
1, 1200121, Note_off_c, 0, 71, 67
1, 1200167, Control_c, 0, 64, 113
1, 1200182, Control_c, 0, 64, 83
1, 1200192, Note_on_c, 0, 59, 67
1, 1200193, Note_on_c, 0, 52, 60
1, 1200193, Note_on_c, 0, 57, 63
1, 1200197, Control_c, 0, 64, 66
1, 1200212, Control_c, 0, 64, 49
1, 1200219, Note_on_c, 0, 71, 57
1, 1200227, Control_c, 0, 64, 44
1, 1200242, Control_c, 0, 64, 53
1, 1200257, Control_c, 0, 64, 61
1, 1200271, Control_c, 0, 64, 68
1, 1200286, Control_c, 0, 64, 79
1, 1200294, Note_on_c, 0, 75, 76
1, 1200301, Control_c, 0, 64, 94
1, 1200316, Control_c, 0, 64, 113
1, 1200322, Note_off_c, 0, 71, 62
1, 1200331, Control_c, 0, 64, 127
1, 1200354, Note_off_c, 0, 59, 59
1, 1200364, Note_off_c, 0, 52, 54
1, 1200370, Note_off_c, 0, 57, 59
1, 1200387, Note_on_c, 0, 78, 81
1, 1200402, Note_off_c, 0, 75, 63
1, 1200428, Note_off_c, 0, 78, 61
1, 1200468, Note_on_c, 0, 59, 64
1, 1200479, Control_c, 0, 64, 105
1, 1200483, Note_on_c, 0, 57, 64
1, 1200486, Note_on_c, 0, 52, 50
1, 1200488, Note_on_c, 0, 83, 82
1, 1200493, Control_c, 0, 64, 77
1, 1200508, Control_c, 0, 64, 62
1, 1200523, Control_c, 0, 64, 53
1, 1200545, Control_c, 0, 64, 59
1, 1200558, Note_off_c, 0, 52, 55
1, 1200560, Control_c, 0, 64, 64
1, 1200575, Control_c, 0, 64, 71
1, 1200578, Note_on_c, 0, 87, 76
1, 1200581, Note_off_c, 0, 59, 56
1, 1200581, Note_off_c, 0, 83, 59
1, 1200590, Control_c, 0, 64, 85
1, 1200605, Control_c, 0, 64, 108
1, 1200619, Control_c, 0, 64, 127
1, 1200674, Note_on_c, 0, 90, 78
1, 1200687, Note_off_c, 0, 87, 59
1, 1200726, Note_off_c, 0, 90, 64
1, 1200740, Note_off_c, 0, 57, 59
1, 1200767, Control_c, 0, 64, 81
1, 1200769, Note_on_c, 0, 59, 42
1, 1200782, Control_c, 0, 64, 63
1, 1200784, Note_on_c, 0, 88, 76
1, 1200786, Note_on_c, 0, 52, 32
1, 1200793, Note_on_c, 0, 56, 29
1, 1200796, Control_c, 0, 64, 33
1, 1200796, Control_c, 0, 67, 19
1, 1200811, Control_c, 0, 64, 0
1, 1200811, Control_c, 0, 67, 21
1, 1200841, Control_c, 0, 64, 43
1, 1200841, Control_c, 0, 67, 25
1, 1200856, Control_c, 0, 64, 56
1, 1200856, Control_c, 0, 67, 27
1, 1200870, Control_c, 0, 64, 66
1, 1200872, Note_off_c, 0, 88, 53
1, 1200885, Control_c, 0, 64, 77
1, 1200885, Control_c, 0, 67, 30
1, 1200886, Note_on_c, 0, 83, 64
1, 1200900, Control_c, 0, 64, 92
1, 1200915, Control_c, 0, 64, 112
1, 1200919, Note_off_c, 0, 52, 54
1, 1200930, Control_c, 0, 64, 127
1, 1200935, Note_off_c, 0, 59, 36
1, 1200977, Note_on_c, 0, 80, 67
1, 1200996, Note_off_c, 0, 83, 50
1, 1201040, Note_off_c, 0, 80, 62
1, 1201064, Note_on_c, 0, 76, 68
1, 1201079, Control_c, 0, 67, 28
1, 1201090, Note_off_c, 0, 76, 66
1, 1201130, Note_off_c, 0, 56, 39
1, 1201153, Control_c, 0, 67, 26
1, 1201225, Poly_aftertouch_c, 0, 71, 127
1, 1201266, Note_on_c, 0, 68, 54
1, 1201271, Poly_aftertouch_c, 0, 71, 0
1, 1201294, Control_c, 0, 67, 24
1, 1201308, Control_c, 0, 64, 93
1, 1201323, Control_c, 0, 64, 69
1, 1201332, Note_off_c, 0, 68, 52
1, 1201338, Control_c, 0, 64, 52
1, 1201353, Control_c, 0, 64, 34
1, 1201359, Note_on_c, 0, 52, 35
1, 1201368, Control_c, 0, 64, 42
1, 1201368, Control_c, 0, 67, 22
1, 1201377, Note_on_c, 0, 59, 13
1, 1201383, Control_c, 0, 64, 54
1, 1201388, Note_on_c, 0, 71, 46
1, 1201391, Note_on_c, 0, 56, 14
1, 1201398, Control_c, 0, 64, 63
1, 1201412, Control_c, 0, 64, 69
1, 1201412, Control_c, 0, 67, 20
1, 1201427, Control_c, 0, 64, 78
1, 1201427, Control_c, 0, 67, 0
1, 1201442, Control_c, 0, 64, 86
1, 1201449, Note_off_c, 0, 71, 51
1, 1201457, Control_c, 0, 64, 90
1, 1201472, Control_c, 0, 64, 94
1, 1201472, Note_on_c, 0, 68, 50
1, 1201486, Control_c, 0, 64, 96
1, 1201501, Control_c, 0, 64, 99
1, 1201508, Note_off_c, 0, 59, 42
1, 1201511, Note_off_c, 0, 52, 34
1, 1201516, Control_c, 0, 64, 102
1, 1201526, Note_off_c, 0, 68, 55
1, 1201529, Note_off_c, 0, 56, 42
1, 1201531, Control_c, 0, 64, 104
1, 1201546, Control_c, 0, 64, 106
1, 1201560, Control_c, 0, 64, 109
1, 1201575, Control_c, 0, 64, 111
1, 1201595, Note_on_c, 0, 64, 38
1, 1201619, Control_c, 0, 64, 105
1, 1201634, Control_c, 0, 64, 90
1, 1201649, Control_c, 0, 64, 75
1, 1201656, Note_off_c, 0, 64, 40
1, 1201664, Control_c, 0, 64, 62
1, 1201669, Note_on_c, 0, 52, 38
1, 1201679, Control_c, 0, 64, 44
1, 1201684, Note_on_c, 0, 56, 28
1, 1201687, Note_on_c, 0, 71, 44
1, 1201690, Note_on_c, 0, 59, 25
1, 1201693, Control_c, 0, 64, 40
1, 1201708, Control_c, 0, 64, 50
1, 1201723, Control_c, 0, 64, 60
1, 1201738, Control_c, 0, 64, 66
1, 1201753, Control_c, 0, 64, 73
1, 1201768, Control_c, 0, 64, 80
1, 1201782, Control_c, 0, 64, 85
1, 1201783, Note_on_c, 0, 68, 46
1, 1201787, Note_off_c, 0, 59, 38
1, 1201794, Note_off_c, 0, 71, 35
1, 1201797, Control_c, 0, 64, 88
1, 1201813, Control_c, 0, 64, 90
1, 1201814, Note_off_c, 0, 52, 34
1, 1201828, Control_c, 0, 64, 91
1, 1201842, Control_c, 0, 64, 91
1, 1201847, Note_off_c, 0, 68, 52
1, 1201857, Control_c, 0, 64, 92
1, 1201872, Control_c, 0, 64, 93
1, 1201887, Control_c, 0, 64, 94
1, 1201902, Control_c, 0, 64, 95
1, 1201905, Note_on_c, 0, 64, 31
1, 1201946, Control_c, 0, 64, 94
1, 1201961, Control_c, 0, 64, 90
1, 1201976, Control_c, 0, 64, 79
1, 1201985, Note_off_c, 0, 56, 40
1, 1201989, Note_on_c, 0, 52, 33
1, 1201991, Control_c, 0, 64, 66
1, 1201996, Note_on_c, 0, 57, 35
1, 1202000, Note_on_c, 0, 59, 30
1, 1202006, Control_c, 0, 64, 51
1, 1202009, Note_on_c, 0, 63, 41
1, 1202015, Note_off_c, 0, 64, 38
1, 1202021, Control_c, 0, 64, 0
1, 1202058, Control_c, 0, 64, 40
1, 1202073, Control_c, 0, 64, 52
1, 1202088, Control_c, 0, 64, 62
1, 1202096, Note_off_c, 0, 63, 55
1, 1202103, Control_c, 0, 64, 70
1, 1202107, Note_on_c, 0, 66, 49
1, 1202117, Control_c, 0, 64, 81
1, 1202132, Control_c, 0, 64, 97
1, 1202147, Control_c, 0, 64, 105
1, 1202162, Control_c, 0, 64, 113
1, 1202177, Control_c, 0, 64, 127
1, 1202193, Note_on_c, 0, 71, 59
1, 1202222, Note_off_c, 0, 66, 55
1, 1202253, Note_off_c, 0, 59, 59
1, 1202256, Note_off_c, 0, 52, 40
1, 1202278, Note_on_c, 0, 63, 69
1, 1202328, Note_off_c, 0, 57, 43
1, 1202356, Note_on_c, 0, 66, 73
1, 1202372, Note_off_c, 0, 71, 42
1, 1202384, Note_off_c, 0, 63, 61
1, 1202453, Note_on_c, 0, 71, 78
1, 1202465, Note_off_c, 0, 66, 61
1, 1202484, Note_off_c, 0, 71, 65
1, 1202566, Note_on_c, 0, 59, 71
1, 1202566, Note_on_c, 0, 71, 77
1, 1202567, Note_on_c, 0, 52, 66
1, 1202568, Note_on_c, 0, 57, 68
1, 1202576, Control_c, 0, 64, 81
1, 1202591, Control_c, 0, 64, 63
1, 1202607, Control_c, 0, 64, 40
1, 1202622, Control_c, 0, 64, 37
1, 1202637, Control_c, 0, 64, 49
1, 1202652, Control_c, 0, 64, 58
1, 1202656, Note_on_c, 0, 75, 83
1, 1202666, Control_c, 0, 64, 65
1, 1202678, Note_off_c, 0, 71, 61
1, 1202681, Control_c, 0, 64, 74
1, 1202696, Control_c, 0, 64, 88
1, 1202711, Control_c, 0, 64, 112
1, 1202726, Control_c, 0, 64, 127
1, 1202742, Note_on_c, 0, 78, 86
1, 1202745, Note_off_c, 0, 52, 53
1, 1202746, Note_off_c, 0, 59, 58
1, 1202763, Note_off_c, 0, 75, 64
1, 1202772, Note_off_c, 0, 57, 60
1, 1202793, Note_off_c, 0, 78, 66
1, 1202859, Note_on_c, 0, 83, 83
1, 1202876, Note_on_c, 0, 52, 47
1, 1202876, Note_on_c, 0, 59, 51
1, 1202881, Control_c, 0, 64, 87
1, 1202883, Note_on_c, 0, 57, 50
1, 1202896, Control_c, 0, 64, 68
1, 1202911, Control_c, 0, 64, 55
1, 1202926, Control_c, 0, 64, 53
1, 1202940, Control_c, 0, 64, 59
1, 1202945, Note_on_c, 0, 87, 73
1, 1202952, Note_off_c, 0, 59, 57
1, 1202955, Control_c, 0, 64, 64
1, 1202955, Control_c, 0, 67, 20
1, 1202956, Note_off_c, 0, 52, 55
1, 1202961, Note_off_c, 0, 83, 58
1, 1202970, Control_c, 0, 64, 68
1, 1202984, Control_c, 0, 64, 78
1, 1202987, Note_on_c, 0, 86, 51
1, 1202999, Control_c, 0, 64, 93
1, 1203014, Control_c, 0, 64, 127
1, 1203046, Note_on_c, 0, 90, 75
1, 1203053, Note_off_c, 0, 87, 63
1, 1203065, Note_off_c, 0, 86, 43
1, 1203070, Note_off_c, 0, 90, 68
1, 1203131, Note_off_c, 0, 57, 57
1, 1203140, Note_on_c, 0, 52, 43
1, 1203148, Control_c, 0, 64, 94
1, 1203151, Note_on_c, 0, 88, 79
1, 1203154, Note_on_c, 0, 59, 41
1, 1203163, Control_c, 0, 64, 70
1, 1203167, Note_on_c, 0, 56, 38
1, 1203178, Control_c, 0, 64, 52
1, 1203192, Control_c, 0, 64, 0
1, 1203222, Control_c, 0, 64, 38
1, 1203237, Control_c, 0, 64, 54
1, 1203243, Note_off_c, 0, 88, 58
1, 1203245, Note_on_c, 0, 83, 70
1, 1203252, Control_c, 0, 64, 63
1, 1203266, Control_c, 0, 64, 72
1, 1203281, Control_c, 0, 64, 86
1, 1203296, Control_c, 0, 64, 127
1, 1203296, Control_c, 0, 67, 0
1, 1203334, Note_on_c, 0, 80, 78
1, 1203337, Note_off_c, 0, 52, 40
1, 1203349, Note_off_c, 0, 59, 58
1, 1203371, Note_off_c, 0, 83, 57
1, 1203416, Note_off_c, 0, 80, 61
1, 1203426, Note_on_c, 0, 76, 80
1, 1203460, Note_off_c, 0, 76, 61
1, 1203526, Note_on_c, 0, 71, 78
1, 1203616, Note_on_c, 0, 68, 81
1, 1203625, Note_off_c, 0, 71, 63
1, 1203678, Note_off_c, 0, 68, 63
1, 1203730, Note_on_c, 0, 71, 80
1, 1203734, Control_c, 0, 64, 106
1, 1203741, Note_on_c, 0, 59, 79
1, 1203742, Note_on_c, 0, 52, 71
1, 1203744, Note_off_c, 0, 56, 60
1, 1203746, Note_on_c, 0, 57, 75
1, 1203749, Control_c, 0, 64, 75
1, 1203763, Control_c, 0, 64, 54
1, 1203778, Control_c, 0, 64, 0
1, 1203808, Control_c, 0, 64, 36
1, 1203821, Note_on_c, 0, 75, 84
1, 1203822, Control_c, 0, 64, 59
1, 1203837, Control_c, 0, 64, 68
1, 1203839, Note_off_c, 0, 71, 58
1, 1203852, Control_c, 0, 64, 77
1, 1203867, Control_c, 0, 64, 87
1, 1203881, Control_c, 0, 64, 95
1, 1203896, Control_c, 0, 64, 105
1, 1203904, Note_off_c, 0, 59, 59
1, 1203908, Note_off_c, 0, 52, 57
1, 1203911, Note_on_c, 0, 78, 90
1, 1203911, Control_c, 0, 64, 127
1, 1203929, Note_off_c, 0, 57, 61
1, 1203932, Note_off_c, 0, 75, 64
1, 1203961, Note_off_c, 0, 78, 64
1, 1204030, Note_on_c, 0, 83, 83
1, 1204042, Note_on_c, 0, 59, 58
1, 1204045, Control_c, 0, 64, 90
1, 1204049, Note_on_c, 0, 57, 53
1, 1204052, Note_on_c, 0, 52, 52
1, 1204060, Control_c, 0, 64, 67
1, 1204075, Control_c, 0, 64, 48
1, 1204089, Control_c, 0, 64, 44
1, 1204104, Control_c, 0, 64, 56
1, 1204119, Control_c, 0, 64, 63
1, 1204119, Note_on_c, 0, 87, 81
1, 1204128, Note_off_c, 0, 59, 59
1, 1204129, Note_off_c, 0, 83, 57
1, 1204133, Control_c, 0, 64, 68
1, 1204148, Control_c, 0, 64, 79
1, 1204155, Note_off_c, 0, 52, 58
1, 1204163, Control_c, 0, 64, 102
1, 1204178, Control_c, 0, 64, 127
1, 1204223, Note_on_c, 0, 90, 83
1, 1204237, Note_off_c, 0, 87, 59
1, 1204284, Note_off_c, 0, 90, 63
1, 1204315, Note_off_c, 0, 57, 57
1, 1204318, Note_on_c, 0, 52, 48
1, 1204326, Note_on_c, 0, 56, 44
1, 1204328, Note_on_c, 0, 59, 49
1, 1204340, Note_on_c, 0, 88, 82
1, 1204350, Control_c, 0, 64, 101
1, 1204365, Control_c, 0, 64, 75
1, 1204380, Control_c, 0, 64, 60
1, 1204394, Control_c, 0, 64, 35
1, 1204409, Control_c, 0, 64, 33
1, 1204421, Note_on_c, 0, 83, 83
1, 1204424, Control_c, 0, 64, 50
1, 1204432, Note_off_c, 0, 88, 59
1, 1204438, Control_c, 0, 64, 59
1, 1204453, Control_c, 0, 64, 66
1, 1204468, Control_c, 0, 64, 78
1, 1204483, Control_c, 0, 64, 105
1, 1204498, Control_c, 0, 64, 127
1, 1204507, Note_on_c, 0, 80, 85
1, 1204526, Note_off_c, 0, 52, 37
1, 1204538, Note_off_c, 0, 59, 58
1, 1204570, Note_off_c, 0, 83, 58
1, 1204599, Note_on_c, 0, 76, 86
1, 1204602, Note_off_c, 0, 80, 63
1, 1204641, Note_off_c, 0, 76, 62
1, 1204695, Note_on_c, 0, 71, 89
1, 1204780, Note_on_c, 0, 68, 87
1, 1204798, Note_off_c, 0, 71, 61
1, 1204814, Note_on_c, 0, 67, 59
1, 1204826, Note_off_c, 0, 68, 65
1, 1204833, Note_off_c, 0, 67, 65
1, 1204884, Note_off_c, 0, 56, 56
1, 1204884, Control_c, 0, 64, 82
1, 1204886, Note_on_c, 0, 71, 89
1, 1204889, Note_on_c, 0, 59, 88
1, 1204894, Note_on_c, 0, 52, 75
1, 1204895, Note_on_c, 0, 57, 78
1, 1204899, Control_c, 0, 64, 60
1, 1204913, Control_c, 0, 64, 0
1, 1204957, Control_c, 0, 64, 44
1, 1204972, Control_c, 0, 64, 61
1, 1204975, Note_on_c, 0, 75, 90
1, 1204986, Note_off_c, 0, 71, 61
1, 1204987, Control_c, 0, 64, 70
1, 1205001, Note_off_c, 0, 59, 58
1, 1205002, Control_c, 0, 64, 80
1, 1205017, Control_c, 0, 64, 93
1, 1205037, Note_off_c, 0, 52, 48
1, 1205040, Control_c, 0, 64, 104
1, 1205055, Control_c, 0, 64, 127
1, 1205070, Note_on_c, 0, 78, 90
1, 1205076, Note_off_c, 0, 57, 51
1, 1205092, Note_off_c, 0, 75, 65
1, 1205113, Note_off_c, 0, 78, 66
1, 1205166, Note_on_c, 0, 59, 83
1, 1205170, Note_on_c, 0, 57, 81
1, 1205172, Note_on_c, 0, 52, 68
1, 1205175, Note_on_c, 0, 83, 88
1, 1205211, Note_off_c, 0, 52, 59
1, 1205252, Note_on_c, 0, 87, 90
1, 1205255, Note_off_c, 0, 59, 60
1, 1205264, Note_off_c, 0, 83, 60
1, 1205345, Note_on_c, 0, 90, 89
1, 1205377, Note_off_c, 0, 87, 61
1, 1205393, Note_off_c, 0, 90, 67
1, 1205439, Note_on_c, 0, 56, 57
1, 1205440, Note_off_c, 0, 57, 61
1, 1205443, Note_on_c, 0, 52, 57
1, 1205455, Note_on_c, 0, 59, 57
1, 1205457, Note_on_c, 0, 88, 92
1, 1205484, Control_c, 0, 64, 91
1, 1205499, Control_c, 0, 64, 68
1, 1205514, Control_c, 0, 64, 50
1, 1205543, Control_c, 0, 64, 59
1, 1205545, Note_on_c, 0, 83, 86
1, 1205558, Control_c, 0, 64, 65
1, 1205573, Control_c, 0, 64, 72
1, 1205574, Note_off_c, 0, 88, 63
1, 1205587, Control_c, 0, 64, 91
1, 1205602, Control_c, 0, 64, 127
1, 1205628, Note_on_c, 0, 80, 85
1, 1205629, Note_off_c, 0, 52, 59
1, 1205654, Note_off_c, 0, 59, 55
1, 1205661, Note_off_c, 0, 56, 60
1, 1205678, Note_off_c, 0, 83, 62
1, 1205714, Note_on_c, 0, 76, 83
1, 1205717, Note_off_c, 0, 80, 63
1, 1205743, Note_off_c, 0, 76, 62
1, 1205813, Note_on_c, 0, 71, 81
1, 1205887, Note_on_c, 0, 68, 86
1, 1205892, Note_off_c, 0, 71, 63
1, 1205917, Note_off_c, 0, 68, 63
1, 1206016, Note_on_c, 0, 47, 73
1, 1206025, Control_c, 0, 64, 83
1, 1206033, Note_on_c, 0, 83, 100
1, 1206040, Note_on_c, 0, 75, 82
1, 1206040, Control_c, 0, 64, 58
1, 1206050, Note_on_c, 0, 81, 71
1, 1206055, Control_c, 0, 64, 0
1, 1206072, Note_off_c, 0, 75, 47
1, 1206099, Control_c, 0, 64, 54
1, 1206114, Control_c, 0, 64, 66
1, 1206129, Control_c, 0, 64, 78
1, 1206144, Control_c, 0, 64, 98
1, 1206147, Note_on_c, 0, 51, 76
1, 1206158, Control_c, 0, 64, 127
1, 1206169, Note_off_c, 0, 47, 61
1, 1206192, Note_off_c, 0, 83, 62
1, 1206194, Note_off_c, 0, 81, 59
1, 1206233, Note_on_c, 0, 54, 87
1, 1206233, Poly_aftertouch_c, 0, 49, 127
1, 1206266, Poly_aftertouch_c, 0, 49, 0
1, 1206272, Note_off_c, 0, 51, 61
1, 1206321, Note_off_c, 0, 54, 62
1, 1206336, Control_c, 0, 64, 120
1, 1206337, Note_on_c, 0, 59, 67
1, 1206344, Note_on_c, 0, 83, 95
1, 1206348, Note_on_c, 0, 75, 88
1, 1206351, Control_c, 0, 64, 76
1, 1206354, Note_on_c, 0, 81, 88
1, 1206366, Control_c, 0, 64, 58
1, 1206381, Control_c, 0, 64, 51
1, 1206396, Control_c, 0, 64, 59
1, 1206410, Control_c, 0, 64, 67
1, 1206425, Control_c, 0, 64, 78
1, 1206433, Note_off_c, 0, 59, 60
1, 1206433, Note_on_c, 0, 63, 79
1, 1206440, Control_c, 0, 64, 106
1, 1206455, Control_c, 0, 64, 127
1, 1206465, Note_off_c, 0, 75, 52
1, 1206510, Note_off_c, 0, 81, 40
1, 1206522, Note_on_c, 0, 66, 85
1, 1206533, Note_off_c, 0, 63, 63
1, 1206534, Note_off_c, 0, 83, 56
1, 1206611, Note_off_c, 0, 66, 60
1, 1206639, Note_on_c, 0, 64, 69
1, 1206651, Note_on_c, 0, 83, 86
1, 1206656, Control_c, 0, 64, 95
1, 1206658, Note_on_c, 0, 76, 86
1, 1206666, Note_on_c, 0, 80, 77
1, 1206671, Control_c, 0, 64, 70
1, 1206686, Control_c, 0, 64, 51
1, 1206701, Control_c, 0, 64, 35
1, 1206716, Control_c, 0, 64, 49
1, 1206731, Control_c, 0, 64, 58
1, 1206746, Control_c, 0, 64, 63
1, 1206747, Note_off_c, 0, 64, 61
1, 1206750, Note_on_c, 0, 59, 70
1, 1206760, Control_c, 0, 64, 73
1, 1206775, Control_c, 0, 64, 90
1, 1206790, Control_c, 0, 64, 127
1, 1206835, Note_off_c, 0, 59, 61
1, 1206840, Note_on_c, 0, 56, 73
1, 1206923, Note_off_c, 0, 56, 61
1, 1206950, Note_on_c, 0, 59, 72
1, 1206960, Note_off_c, 0, 76, 59
1, 1206965, Note_off_c, 0, 83, 63
1, 1207004, Note_off_c, 0, 80, 62
1, 1207032, Note_on_c, 0, 56, 79
1, 1207052, Note_off_c, 0, 59, 58
1, 1207126, Note_on_c, 0, 52, 71
1, 1207169, Note_off_c, 0, 56, 60
1, 1207220, Control_c, 0, 64, 79
1, 1207234, Control_c, 0, 64, 58
1, 1207244, Note_on_c, 0, 47, 61
1, 1207248, Note_off_c, 0, 52, 62
1, 1207249, Control_c, 0, 64, 0
1, 1207252, Note_on_c, 0, 83, 84
1, 1207263, Note_on_c, 0, 81, 77
1, 1207264, Note_on_c, 0, 75, 67
1, 1207301, Control_c, 0, 64, 46
1, 1207315, Control_c, 0, 64, 64
1, 1207330, Control_c, 0, 64, 73
1, 1207345, Control_c, 0, 64, 84
1, 1207360, Control_c, 0, 64, 98
1, 1207364, Note_on_c, 0, 51, 71
1, 1207364, Note_off_c, 0, 75, 49
1, 1207367, Note_off_c, 0, 47, 63
1, 1207375, Control_c, 0, 64, 115
1, 1207390, Control_c, 0, 64, 127
1, 1207408, Note_off_c, 0, 83, 60
1, 1207431, Note_off_c, 0, 81, 60
1, 1207455, Note_on_c, 0, 54, 79
1, 1207476, Note_off_c, 0, 51, 61
1, 1207479, Control_c, 0, 67, 24
1, 1207494, Control_c, 0, 67, 32
1, 1207509, Control_c, 0, 64, 119
1, 1207509, Control_c, 0, 67, 50
1, 1207524, Control_c, 0, 64, 78
1, 1207524, Control_c, 0, 67, 75
1, 1207533, Note_off_c, 0, 54, 61
1, 1207539, Control_c, 0, 64, 58
1, 1207539, Control_c, 0, 67, 102
1, 1207553, Control_c, 0, 64, 0
1, 1207553, Control_c, 0, 67, 124
1, 1207560, Note_on_c, 0, 59, 59
1, 1207561, Note_on_c, 0, 83, 80
1, 1207568, Control_c, 0, 64, 34
1, 1207568, Control_c, 0, 67, 127
1, 1207571, Note_on_c, 0, 75, 68
1, 1207572, Note_on_c, 0, 81, 66
1, 1207583, Control_c, 0, 64, 51
1, 1207598, Control_c, 0, 64, 63
1, 1207613, Control_c, 0, 64, 72
1, 1207628, Control_c, 0, 64, 80
1, 1207636, Note_off_c, 0, 59, 53
1, 1207643, Control_c, 0, 64, 87
1, 1207657, Control_c, 0, 64, 89
1, 1207659, Note_on_c, 0, 63, 69
1, 1207672, Control_c, 0, 64, 91
1, 1207676, Note_off_c, 0, 75, 39
1, 1207687, Control_c, 0, 64, 93
1, 1207702, Control_c, 0, 64, 94
1, 1207706, Note_off_c, 0, 83, 54
1, 1207709, Note_off_c, 0, 81, 36
1, 1207717, Control_c, 0, 64, 94
1, 1207731, Control_c, 0, 64, 95
1, 1207754, Note_off_c, 0, 63, 61
1, 1207759, Note_on_c, 0, 66, 65
1, 1207805, Control_c, 0, 64, 90
1, 1207819, Note_off_c, 0, 66, 60
1, 1207820, Control_c, 0, 64, 77
1, 1207835, Control_c, 0, 64, 64
1, 1207849, Control_c, 0, 64, 40
1, 1207856, Note_on_c, 0, 83, 63
1, 1207863, Note_on_c, 0, 64, 51
1, 1207864, Control_c, 0, 64, 0
1, 1207870, Note_on_c, 0, 76, 54
1, 1207870, Note_on_c, 0, 80, 54
1, 1207894, Control_c, 0, 64, 44
1, 1207908, Control_c, 0, 64, 61
1, 1207923, Control_c, 0, 64, 71
1, 1207938, Control_c, 0, 64, 84
1, 1207943, Note_off_c, 0, 64, 54
1, 1207953, Control_c, 0, 64, 101
1, 1207966, Note_on_c, 0, 59, 56
1, 1207968, Control_c, 0, 64, 119
1, 1207983, Control_c, 0, 64, 127
1, 1208006, Note_off_c, 0, 59, 58
1, 1208054, Note_on_c, 0, 56, 56
1, 1208065, Note_off_c, 0, 76, 53
1, 1208066, Note_off_c, 0, 83, 48
1, 1208106, Note_off_c, 0, 56, 56
1, 1208156, Note_on_c, 0, 59, 50
1, 1208162, Note_off_c, 0, 80, 51
1, 1208223, Note_off_c, 0, 59, 57
1, 1208237, Note_on_c, 0, 56, 59
1, 1208326, Note_off_c, 0, 56, 55
1, 1208346, Note_on_c, 0, 52, 52
1, 1208406, Control_c, 0, 64, 108
1, 1208421, Control_c, 0, 64, 85
1, 1208433, Note_off_c, 0, 52, 54
1, 1208436, Control_c, 0, 64, 68
1, 1208451, Control_c, 0, 64, 50
1, 1208463, Note_on_c, 0, 83, 67
1, 1208466, Control_c, 0, 64, 0
1, 1208472, Note_on_c, 0, 47, 42
1, 1208487, Note_on_c, 0, 75, 51
1, 1208490, Note_on_c, 0, 81, 49
1, 1208495, Control_c, 0, 64, 40
1, 1208510, Control_c, 0, 64, 54
1, 1208524, Control_c, 0, 64, 63
1, 1208539, Control_c, 0, 64, 70
1, 1208554, Control_c, 0, 64, 79
1, 1208569, Control_c, 0, 64, 90
1, 1208570, Note_off_c, 0, 47, 60
1, 1208581, Note_on_c, 0, 51, 55
1, 1208584, Control_c, 0, 64, 97
1, 1208599, Control_c, 0, 64, 105
1, 1208613, Control_c, 0, 64, 114
1, 1208621, Note_off_c, 0, 75, 38
1, 1208626, Note_off_c, 0, 83, 52
1, 1208628, Control_c, 0, 64, 127
1, 1208662, Note_off_c, 0, 81, 40
1, 1208678, Note_off_c, 0, 51, 60
1, 1208691, Note_on_c, 0, 54, 46
1, 1208731, Note_off_c, 0, 54, 63
1, 1208766, Note_on_c, 0, 83, 61
1, 1208791, Note_on_c, 0, 59, 46
1, 1208794, Note_on_c, 0, 81, 50
1, 1208797, Note_on_c, 0, 75, 51
1, 1208834, Note_off_c, 0, 59, 59
1, 1208845, Note_off_c, 0, 75, 53
1, 1208891, Note_on_c, 0, 63, 55
1, 1208926, Note_off_c, 0, 83, 48
1, 1208944, Note_off_c, 0, 81, 37
1, 1208949, Note_off_c, 0, 63, 43
1, 1208999, Note_on_c, 0, 66, 44
1, 1209040, Note_off_c, 0, 66, 51
1, 1209065, Control_c, 0, 64, 92
1, 1209080, Control_c, 0, 64, 74
1, 1209095, Note_on_c, 0, 64, 50
1, 1209095, Control_c, 0, 64, 58
1, 1209103, Note_on_c, 0, 83, 48
1, 1209110, Control_c, 0, 64, 41
1, 1209125, Note_on_c, 0, 76, 42
1, 1209137, Note_on_c, 0, 80, 35
1, 1209139, Control_c, 0, 64, 49
1, 1209154, Control_c, 0, 64, 57
1, 1209169, Control_c, 0, 64, 63
1, 1209176, Note_off_c, 0, 64, 57
1, 1209184, Control_c, 0, 64, 68
1, 1209199, Control_c, 0, 64, 75
1, 1209207, Note_on_c, 0, 59, 51
1, 1209214, Control_c, 0, 64, 82
1, 1209228, Control_c, 0, 64, 85
1, 1209243, Control_c, 0, 64, 87
1, 1209256, Note_off_c, 0, 59, 55
1, 1209258, Control_c, 0, 64, 88
1, 1209273, Control_c, 0, 64, 89
1, 1209288, Control_c, 0, 64, 91
1, 1209301, Note_on_c, 0, 56, 48
1, 1209302, Control_c, 0, 64, 93
1, 1209317, Control_c, 0, 64, 94
1, 1209355, Note_off_c, 0, 56, 56
1, 1209391, Control_c, 0, 64, 95
1, 1209403, Note_on_c, 0, 59, 48
1, 1209487, Note_off_c, 0, 59, 56
1, 1209492, Note_on_c, 0, 56, 52
1, 1209569, Note_off_c, 0, 56, 60
1, 1209604, Note_on_c, 0, 52, 51
1, 1209607, Control_c, 0, 64, 94
1, 1209622, Control_c, 0, 64, 90
1, 1209636, Control_c, 0, 64, 80
1, 1209646, Note_off_c, 0, 52, 63
1, 1209651, Control_c, 0, 64, 69
1, 1209666, Control_c, 0, 64, 57
1, 1209680, Control_c, 0, 64, 43
1, 1209691, Note_on_c, 0, 56, 55
1, 1209695, Control_c, 0, 64, 47
1, 1209710, Control_c, 0, 64, 55
1, 1209725, Control_c, 0, 64, 61
1, 1209740, Control_c, 0, 64, 66
1, 1209747, Note_off_c, 0, 56, 52
1, 1209754, Control_c, 0, 64, 71
1, 1209769, Control_c, 0, 64, 77
1, 1209774, Note_on_c, 0, 52, 54
1, 1209784, Control_c, 0, 64, 81
1, 1209800, Control_c, 0, 64, 83
1, 1209815, Control_c, 0, 64, 84
1, 1209825, Note_off_c, 0, 52, 59
1, 1209830, Control_c, 0, 64, 85
1, 1209845, Control_c, 0, 64, 85
1, 1209859, Control_c, 0, 64, 86
1, 1209874, Control_c, 0, 64, 87
1, 1209884, Note_on_c, 0, 47, 50
1, 1209889, Control_c, 0, 64, 88
1, 1209904, Control_c, 0, 64, 89
1, 1209927, Note_off_c, 0, 47, 64
1, 1209989, Note_on_c, 0, 52, 44
1, 1210007, Control_c, 0, 64, 89
1, 1210012, Note_off_c, 0, 83, 38
1, 1210060, Note_off_c, 0, 52, 49
1, 1210060, Note_off_c, 0, 76, 34
1, 1210090, Note_on_c, 0, 47, 48
1, 1210132, Note_off_c, 0, 80, 41
1, 1210138, Note_off_c, 0, 47, 56
1, 1210162, Note_on_c, 0, 44, 51
1, 1210215, Control_c, 0, 64, 89
1, 1210230, Control_c, 0, 64, 87
1, 1210245, Control_c, 0, 64, 81
1, 1210245, Note_off_c, 0, 44, 58
1, 1210259, Control_c, 0, 64, 71
1, 1210281, Control_c, 0, 64, 58
1, 1210283, Note_on_c, 0, 40, 45
1, 1210296, Control_c, 0, 64, 0
1, 1210345, Note_off_c, 0, 40, 56
1, 1210387, Note_on_c, 0, 44, 51
1, 1210454, Note_off_c, 0, 44, 60
1, 1210483, Note_on_c, 0, 47, 48
1, 1210548, Note_off_c, 0, 47, 59
1, 1210582, Note_on_c, 0, 44, 48
1, 1210651, Note_off_c, 0, 44, 58
1, 1210677, Note_on_c, 0, 47, 52
1, 1210723, Note_off_c, 0, 47, 59
1, 1210759, Note_on_c, 0, 52, 46
1, 1210850, Note_on_c, 0, 40, 33
1, 1210855, Note_off_c, 0, 52, 38
1, 1210908, Note_off_c, 0, 40, 51
1, 1210958, Note_on_c, 0, 44, 43
1, 1211013, Note_off_c, 0, 44, 57
1, 1211045, Note_on_c, 0, 47, 39
1, 1211099, Note_off_c, 0, 47, 59
1, 1211154, Note_on_c, 0, 44, 42
1, 1211215, Note_off_c, 0, 44, 57
1, 1211232, Note_on_c, 0, 47, 48
1, 1211285, Note_off_c, 0, 47, 58
1, 1211330, Note_on_c, 0, 52, 38
1, 1211387, Note_off_c, 0, 52, 45
1, 1211424, Note_on_c, 0, 64, 48
1, 1211426, Note_on_c, 0, 40, 26
1, 1211461, Note_off_c, 0, 64, 64
1, 1211521, Note_off_c, 0, 40, 38
1, 1211546, Note_on_c, 0, 44, 26
1, 1211587, Note_on_c, 0, 47, 44
1, 1211589, Note_off_c, 0, 44, 51
1, 1211634, Note_off_c, 0, 47, 61
1, 1211716, Note_on_c, 0, 44, 36
1, 1211735, Note_on_c, 0, 64, 57
1, 1211808, Control_c, 0, 64, 47
1, 1211822, Control_c, 0, 64, 58
1, 1211834, Note_off_c, 0, 44, 44
1, 1211836, Note_on_c, 0, 47, 35
1, 1211837, Control_c, 0, 64, 63
1, 1211852, Control_c, 0, 64, 65
1, 1211867, Control_c, 0, 64, 67
1, 1211882, Control_c, 0, 64, 69
1, 1211889, Note_off_c, 0, 47, 56
1, 1211897, Control_c, 0, 64, 71
1, 1211912, Control_c, 0, 64, 73
1, 1211926, Control_c, 0, 64, 75
1, 1211933, Note_on_c, 0, 52, 25
1, 1211941, Control_c, 0, 64, 76
1, 1211971, Control_c, 0, 64, 73
1, 1211976, Note_off_c, 0, 52, 47
1, 1211986, Control_c, 0, 64, 66
1, 1212001, Control_c, 0, 64, 57
1, 1212016, Control_c, 0, 64, 46
1, 1212028, Note_on_c, 0, 40, 33
1, 1212030, Control_c, 0, 64, 51
1, 1212045, Control_c, 0, 64, 58
1, 1212060, Control_c, 0, 64, 64
1, 1212060, Control_c, 0, 67, 113
1, 1212074, Control_c, 0, 64, 69
1, 1212074, Control_c, 0, 67, 102
1, 1212076, Note_off_c, 0, 40, 56
1, 1212089, Control_c, 0, 64, 74
1, 1212089, Control_c, 0, 67, 96
1, 1212104, Control_c, 0, 64, 78
1, 1212104, Control_c, 0, 67, 96
1, 1212119, Control_c, 0, 64, 82
1, 1212128, Note_on_c, 0, 44, 36
1, 1212134, Control_c, 0, 64, 88
1, 1212134, Control_c, 0, 67, 95
1, 1212148, Control_c, 0, 64, 94
1, 1212163, Control_c, 0, 64, 98
1, 1212172, Note_off_c, 0, 44, 55
1, 1212193, Control_c, 0, 64, 101
1, 1212204, Note_on_c, 0, 47, 48
1, 1212209, Control_c, 0, 64, 104
1, 1212224, Control_c, 0, 67, 96
1, 1212239, Control_c, 0, 64, 107
1, 1212244, Note_off_c, 0, 47, 50
1, 1212254, Note_off_c, 0, 64, 17
1, 1212268, Control_c, 0, 64, 109
1, 1212297, Control_c, 0, 64, 111
1, 1212312, Control_c, 0, 64, 113
1, 1212319, Note_on_c, 0, 44, 35
1, 1212327, Control_c, 0, 67, 98
1, 1212342, Note_on_c, 0, 76, 58
1, 1212342, Control_c, 0, 64, 116
1, 1212371, Control_c, 0, 64, 118
1, 1212400, Note_off_c, 0, 44, 38
1, 1212401, Control_c, 0, 64, 120
1, 1212416, Control_c, 0, 64, 125
1, 1212416, Control_c, 0, 67, 100
1, 1212431, Control_c, 0, 64, 127
1, 1212445, Note_on_c, 0, 47, 27
1, 1212456, Note_off_c, 0, 76, 53
1, 1212478, Note_off_c, 0, 47, 47
1, 1212490, Control_c, 0, 67, 102
1, 1212534, Note_on_c, 0, 52, 49
1, 1212597, Note_off_c, 0, 52, 52
1, 1212601, Control_c, 0, 67, 104
1, 1212616, Control_c, 0, 64, 105
1, 1212616, Control_c, 0, 67, 107
1, 1212631, Control_c, 0, 64, 78
1, 1212631, Control_c, 0, 67, 111
1, 1212632, Note_on_c, 0, 40, 49
1, 1212645, Control_c, 0, 64, 60
1, 1212645, Control_c, 0, 67, 117
1, 1212660, Control_c, 0, 64, 0
1, 1212660, Control_c, 0, 67, 127
1, 1212733, Note_on_c, 0, 41, 45
1, 1212734, Note_off_c, 0, 40, 37
1, 1212734, Control_c, 0, 64, 47
1, 1212749, Control_c, 0, 64, 59
1, 1212764, Control_c, 0, 64, 66
1, 1212779, Control_c, 0, 64, 70
1, 1212791, Note_off_c, 0, 41, 56
1, 1212794, Control_c, 0, 64, 75
1, 1212809, Control_c, 0, 64, 77
1, 1212824, Control_c, 0, 64, 80
1, 1212839, Control_c, 0, 64, 83
1, 1212842, Note_on_c, 0, 45, 39
1, 1212853, Control_c, 0, 64, 87
1, 1212868, Control_c, 0, 64, 90
1, 1212883, Control_c, 0, 64, 93
1, 1212889, Note_off_c, 0, 45, 46
1, 1212897, Control_c, 0, 64, 95
1, 1212912, Control_c, 0, 64, 98
1, 1212923, Note_on_c, 0, 41, 40
1, 1212927, Control_c, 0, 64, 100
1, 1212942, Control_c, 0, 64, 102
1, 1212971, Control_c, 0, 64, 104
1, 1212995, Note_off_c, 0, 41, 46
1, 1213002, Control_c, 0, 64, 108
1, 1213017, Control_c, 0, 64, 110
1, 1213032, Control_c, 0, 64, 112
1, 1213037, Note_on_c, 0, 45, 44
1, 1213062, Control_c, 0, 64, 115
1, 1213076, Control_c, 0, 64, 118
1, 1213091, Control_c, 0, 64, 125
1, 1213099, Note_off_c, 0, 45, 49
1, 1213106, Control_c, 0, 64, 127
1, 1213140, Note_on_c, 0, 52, 40
1, 1213180, Control_c, 0, 64, 99
1, 1213193, Note_off_c, 0, 52, 48
1, 1213194, Control_c, 0, 64, 80
1, 1213209, Control_c, 0, 64, 65
1, 1213224, Control_c, 0, 64, 55
1, 1213230, Note_on_c, 0, 40, 37
1, 1213239, Control_c, 0, 64, 54
1, 1213254, Control_c, 0, 64, 59
1, 1213276, Control_c, 0, 64, 61
1, 1213291, Control_c, 0, 64, 64
1, 1213306, Control_c, 0, 64, 67
1, 1213320, Control_c, 0, 64, 73
1, 1213335, Control_c, 0, 64, 79
1, 1213343, Note_on_c, 0, 41, 36
1, 1213350, Control_c, 0, 64, 88
1, 1213365, Control_c, 0, 64, 98
1, 1213380, Control_c, 0, 64, 110
1, 1213387, Note_off_c, 0, 41, 52
1, 1213394, Control_c, 0, 64, 125
1, 1213409, Control_c, 0, 64, 127
1, 1213429, Note_on_c, 0, 45, 47
1, 1213479, Note_off_c, 0, 40, 20
1, 1213479, Note_off_c, 0, 45, 58
1, 1213512, Note_on_c, 0, 41, 42
1, 1213578, Note_off_c, 0, 41, 52
1, 1213605, Note_on_c, 0, 45, 54
1, 1213665, Note_off_c, 0, 45, 49
1, 1213725, Note_on_c, 0, 52, 25
1, 1213775, Note_off_c, 0, 52, 45
1, 1213810, Control_c, 0, 64, 88
1, 1213812, Note_on_c, 0, 40, 38
1, 1213825, Control_c, 0, 64, 69
1, 1213828, Note_on_c, 0, 64, 48
1, 1213840, Control_c, 0, 64, 51
1, 1213855, Control_c, 0, 64, 0
1, 1213869, Note_off_c, 0, 64, 63
1, 1213914, Control_c, 0, 64, 41
1, 1213929, Control_c, 0, 64, 56
1, 1213930, Note_on_c, 0, 41, 36
1, 1213943, Control_c, 0, 64, 65
1, 1213958, Control_c, 0, 64, 72
1, 1213973, Control_c, 0, 64, 78
1, 1213981, Note_off_c, 0, 41, 56
1, 1213988, Control_c, 0, 64, 80
1, 1214003, Control_c, 0, 64, 82
1, 1214025, Note_on_c, 0, 45, 44
1, 1214025, Control_c, 0, 64, 84
1, 1214040, Control_c, 0, 64, 86
1, 1214055, Control_c, 0, 64, 89
1, 1214070, Control_c, 0, 64, 91
1, 1214084, Control_c, 0, 64, 93
1, 1214099, Control_c, 0, 64, 93
1, 1214100, Note_off_c, 0, 45, 46
1, 1214114, Control_c, 0, 64, 94
1, 1214129, Control_c, 0, 64, 94
1, 1214143, Control_c, 0, 64, 95
1, 1214148, Note_on_c, 0, 41, 38
1, 1214150, Note_on_c, 0, 64, 68
1, 1214203, Control_c, 0, 64, 95
1, 1214208, Note_off_c, 0, 40, 35
1, 1214262, Control_c, 0, 67, 114
1, 1214263, Note_on_c, 0, 45, 57
1, 1214276, Control_c, 0, 67, 103
1, 1214291, Control_c, 0, 64, 96
1, 1214291, Control_c, 0, 67, 95
1, 1214293, Note_off_c, 0, 41, 34
1, 1214306, Control_c, 0, 67, 91
1, 1214321, Control_c, 0, 67, 90
1, 1214336, Control_c, 0, 67, 89
1, 1214350, Control_c, 0, 67, 87
1, 1214363, Note_on_c, 0, 52, 49
1, 1214365, Control_c, 0, 64, 95
1, 1214365, Control_c, 0, 67, 86
1, 1214380, Control_c, 0, 64, 82
1, 1214380, Control_c, 0, 67, 83
1, 1214395, Control_c, 0, 64, 67
1, 1214395, Control_c, 0, 67, 79
1, 1214410, Control_c, 0, 64, 43
1, 1214410, Control_c, 0, 67, 69
1, 1214413, Note_off_c, 0, 52, 58
1, 1214419, Note_off_c, 0, 45, 32
1, 1214424, Control_c, 0, 64, 0
1, 1214424, Control_c, 0, 67, 54
1, 1214439, Control_c, 0, 67, 31
1, 1214454, Control_c, 0, 64, 34
1, 1214454, Control_c, 0, 67, 0
1, 1214457, Note_on_c, 0, 40, 42
1, 1214469, Control_c, 0, 64, 59
1, 1214484, Control_c, 0, 64, 69
1, 1214499, Control_c, 0, 64, 77
1, 1214514, Control_c, 0, 64, 88
1, 1214519, Note_off_c, 0, 40, 58
1, 1214529, Control_c, 0, 64, 95
1, 1214543, Control_c, 0, 64, 101
1, 1214546, Note_on_c, 0, 41, 50
1, 1214558, Control_c, 0, 64, 108
1, 1214573, Control_c, 0, 64, 119
1, 1214588, Control_c, 0, 64, 127
1, 1214594, Note_off_c, 0, 41, 54
1, 1214635, Note_on_c, 0, 45, 56
1, 1214696, Note_off_c, 0, 45, 55
1, 1214716, Note_off_c, 0, 64, 40
1, 1214741, Note_on_c, 0, 41, 42
1, 1214746, Note_on_c, 0, 76, 75
1, 1214807, Note_off_c, 0, 41, 54
1, 1214846, Note_on_c, 0, 45, 54
1, 1214854, Note_off_c, 0, 76, 54
1, 1214900, Note_off_c, 0, 45, 56
1, 1214937, Note_on_c, 0, 52, 52
1, 1214995, Note_off_c, 0, 52, 54
1, 1215026, Control_c, 0, 64, 79
1, 1215029, Note_on_c, 0, 40, 63
1, 1215041, Control_c, 0, 64, 57
1, 1215056, Control_c, 0, 64, 0
1, 1215100, Control_c, 0, 64, 42
1, 1215115, Control_c, 0, 64, 59
1, 1215123, Note_on_c, 0, 42, 63
1, 1215130, Control_c, 0, 64, 69
1, 1215139, Note_off_c, 0, 40, 54
1, 1215145, Control_c, 0, 64, 77
1, 1215160, Control_c, 0, 64, 88
1, 1215174, Control_c, 0, 64, 96
1, 1215189, Control_c, 0, 64, 104
1, 1215201, Note_off_c, 0, 42, 61
1, 1215204, Control_c, 0, 64, 111
1, 1215218, Control_c, 0, 64, 117
1, 1215220, Note_on_c, 0, 45, 63
1, 1215233, Control_c, 0, 64, 122
1, 1215248, Control_c, 0, 64, 127
1, 1215305, Note_off_c, 0, 45, 60
1, 1215326, Note_on_c, 0, 42, 57
1, 1215393, Note_off_c, 0, 42, 58
1, 1215429, Note_on_c, 0, 45, 65
1, 1215538, Note_on_c, 0, 52, 60
1, 1215545, Note_off_c, 0, 45, 38
1, 1215579, Note_off_c, 0, 52, 60
1, 1215611, Note_on_c, 0, 40, 76
1, 1215626, Control_c, 0, 64, 76
1, 1215641, Control_c, 0, 64, 52
1, 1215656, Control_c, 0, 64, 0
1, 1215715, Control_c, 0, 64, 38
1, 1215724, Note_on_c, 0, 43, 67
1, 1215730, Control_c, 0, 64, 56
1, 1215745, Control_c, 0, 64, 67
1, 1215760, Control_c, 0, 64, 75
1, 1215775, Control_c, 0, 64, 88
1, 1215790, Control_c, 0, 64, 98
1, 1215800, Note_off_c, 0, 43, 62
1, 1215804, Control_c, 0, 64, 110
1, 1215817, Note_on_c, 0, 46, 64
1, 1215819, Control_c, 0, 64, 127
1, 1215876, Note_off_c, 0, 46, 59
1, 1215920, Note_on_c, 0, 43, 64
1, 1215921, Note_off_c, 0, 40, 53
1, 1215997, Note_off_c, 0, 43, 61
1, 1215998, Note_on_c, 0, 46, 64
1, 1216046, Note_off_c, 0, 46, 54
1, 1216080, Note_on_c, 0, 52, 55
1, 1216150, Note_off_c, 0, 52, 50
1, 1216165, Note_on_c, 0, 40, 48
1, 1216189, Note_on_c, 0, 76, 76
1, 1216190, Control_c, 0, 64, 83
1, 1216205, Control_c, 0, 64, 64
1, 1216219, Control_c, 0, 64, 33
1, 1216228, Note_off_c, 0, 76, 63
1, 1216234, Control_c, 0, 64, 0
1, 1216295, Note_on_c, 0, 44, 54
1, 1216301, Control_c, 0, 64, 45
1, 1216316, Control_c, 0, 64, 61
1, 1216331, Control_c, 0, 64, 71
1, 1216345, Control_c, 0, 64, 84
1, 1216353, Note_off_c, 0, 44, 62
1, 1216357, Note_on_c, 0, 47, 58
1, 1216360, Control_c, 0, 64, 107
1, 1216375, Control_c, 0, 64, 127
1, 1216422, Note_off_c, 0, 47, 51
1, 1216502, Note_on_c, 0, 44, 45
1, 1216526, Note_on_c, 0, 76, 81
1, 1216606, Note_on_c, 0, 47, 65
1, 1216632, Note_off_c, 0, 44, 35
1, 1216670, Note_off_c, 0, 40, 38
1, 1216699, Note_on_c, 0, 52, 67
1, 1216708, Note_off_c, 0, 47, 60
1, 1216716, Control_c, 0, 67, 20
1, 1216745, Control_c, 0, 67, 22
1, 1216775, Control_c, 0, 67, 24
1, 1216783, Note_on_c, 0, 45, 77
1, 1216804, Control_c, 0, 64, 97
1, 1216804, Control_c, 0, 67, 27
1, 1216808, Note_off_c, 0, 52, 57
1, 1216819, Control_c, 0, 64, 71
1, 1216834, Control_c, 0, 64, 51
1, 1216849, Control_c, 0, 64, 0
1, 1216881, Note_on_c, 0, 48, 74
1, 1216893, Control_c, 0, 64, 46
1, 1216897, Note_off_c, 0, 45, 63
1, 1216908, Control_c, 0, 64, 62
1, 1216908, Control_c, 0, 67, 24
1, 1216923, Control_c, 0, 64, 73
1, 1216937, Control_c, 0, 64, 88
1, 1216952, Control_c, 0, 64, 127
1, 1216952, Control_c, 0, 67, 22
1, 1216964, Note_on_c, 0, 52, 65
1, 1216984, Control_c, 0, 67, 20
1, 1216999, Control_c, 0, 67, 0
1, 1217008, Note_off_c, 0, 48, 61
1, 1217076, Note_on_c, 0, 88, 100
1, 1217086, Note_on_c, 0, 46, 59
1, 1217092, Note_off_c, 0, 52, 54
1, 1217092, Note_off_c, 0, 76, 63
1, 1217120, Note_off_c, 0, 88, 66
1, 1217170, Note_off_c, 0, 46, 62
1, 1217174, Note_on_c, 0, 49, 59
1, 1217230, Note_on_c, 0, 52, 59
1, 1217231, Note_off_c, 0, 49, 59
1, 1217307, Note_off_c, 0, 52, 53
1, 1217346, Note_on_c, 0, 40, 46
1, 1217361, Control_c, 0, 64, 87
1, 1217373, Note_on_c, 0, 64, 73
1, 1217376, Control_c, 0, 64, 60
1, 1217391, Control_c, 0, 64, 0
1, 1217412, Note_off_c, 0, 64, 63
1, 1217435, Control_c, 0, 64, 42
1, 1217450, Control_c, 0, 64, 61
1, 1217465, Note_off_c, 0, 40, 62
1, 1217465, Control_c, 0, 64, 73
1, 1217470, Note_on_c, 0, 47, 58
1, 1217480, Control_c, 0, 64, 84
1, 1217495, Control_c, 0, 64, 95
1, 1217510, Note_off_c, 0, 47, 64
1, 1217510, Control_c, 0, 64, 103
1, 1217525, Control_c, 0, 64, 112
1, 1217540, Control_c, 0, 64, 127
1, 1217545, Note_on_c, 0, 50, 67
1, 1217651, Note_off_c, 0, 50, 44
1, 1217674, Note_on_c, 0, 47, 55
1, 1217686, Note_on_c, 0, 64, 79
1, 1217790, Note_on_c, 0, 50, 68
1, 1217798, Note_off_c, 0, 47, 62
1, 1217846, Note_off_c, 0, 50, 60
1, 1217891, Note_on_c, 0, 52, 72
1, 1217948, Control_c, 0, 64, 99
1, 1217963, Control_c, 0, 64, 68
1, 1217978, Control_c, 0, 64, 41
1, 1217981, Note_off_c, 0, 52, 61
1, 1217985, Note_on_c, 0, 50, 55
1, 1217992, Control_c, 0, 64, 0
1, 1218022, Control_c, 0, 64, 51
1, 1218036, Control_c, 0, 64, 65
1, 1218051, Control_c, 0, 64, 77
1, 1218066, Control_c, 0, 64, 99
1, 1218067, Note_off_c, 0, 50, 63
1, 1218072, Note_on_c, 0, 52, 66
1, 1218081, Control_c, 0, 64, 127
1, 1218107, Poly_aftertouch_c, 0, 51, 127
1, 1218139, Note_off_c, 0, 52, 48
1, 1218146, Poly_aftertouch_c, 0, 51, 0
1, 1218162, Note_on_c, 0, 56, 67
1, 1218180, Note_on_c, 0, 70, 35
1, 1218228, Note_off_c, 0, 56, 50
1, 1218261, Note_on_c, 0, 52, 62
1, 1218275, Note_on_c, 0, 76, 92
1, 1218291, Note_off_c, 0, 70, 58
1, 1218337, Note_off_c, 0, 64, 59
1, 1218354, Note_on_c, 0, 56, 67
1, 1218391, Note_off_c, 0, 76, 59
1, 1218413, Note_off_c, 0, 56, 61
1, 1218436, Note_on_c, 0, 59, 68
1, 1218532, Control_c, 0, 64, 81
1, 1218535, Note_off_c, 0, 59, 49
1, 1218547, Control_c, 0, 64, 60
1, 1218550, Note_on_c, 0, 56, 65
1, 1218562, Control_c, 0, 64, 0
1, 1218608, Control_c, 0, 64, 51
1, 1218622, Control_c, 0, 64, 66
1, 1218637, Control_c, 0, 64, 75
1, 1218642, Note_on_c, 0, 59, 74
1, 1218652, Control_c, 0, 64, 87
1, 1218662, Note_off_c, 0, 56, 58
1, 1218666, Control_c, 0, 64, 99
1, 1218681, Control_c, 0, 64, 109
1, 1218696, Control_c, 0, 64, 125
1, 1218711, Control_c, 0, 64, 127
1, 1218724, Note_off_c, 0, 59, 61
1, 1218725, Note_on_c, 0, 62, 72
1, 1218835, Note_off_c, 0, 62, 55
1, 1218837, Note_on_c, 0, 64, 83
1, 1218860, Note_on_c, 0, 56, 55
1, 1218870, Note_off_c, 0, 52, 50
1, 1218946, Note_on_c, 0, 59, 57
1, 1218981, Note_off_c, 0, 56, 54
1, 1219014, Note_off_c, 0, 59, 58
1, 1219027, Note_on_c, 0, 62, 65
1, 1219037, Control_c, 0, 64, 112
1, 1219052, Control_c, 0, 64, 81
1, 1219066, Control_c, 0, 64, 58
1, 1219079, Note_off_c, 0, 62, 58
1, 1219081, Control_c, 0, 64, 0
1, 1219126, Control_c, 0, 64, 51
1, 1219130, Note_on_c, 0, 52, 52
1, 1219140, Control_c, 0, 64, 65
1, 1219155, Control_c, 0, 64, 75
1, 1219170, Control_c, 0, 64, 84
1, 1219185, Control_c, 0, 64, 91
1, 1219194, Note_off_c, 0, 52, 60
1, 1219200, Control_c, 0, 64, 95
1, 1219215, Control_c, 0, 64, 99
1, 1219215, Control_c, 0, 67, 21
1, 1219221, Note_on_c, 0, 56, 53
1, 1219230, Control_c, 0, 67, 23
1, 1219245, Control_c, 0, 64, 102
1, 1219245, Control_c, 0, 67, 27
1, 1219262, Note_off_c, 0, 56, 63
1, 1219266, Control_c, 0, 64, 105
1, 1219266, Control_c, 0, 67, 33
1, 1219281, Control_c, 0, 64, 108
1, 1219281, Control_c, 0, 67, 41
1, 1219296, Control_c, 0, 64, 111
1, 1219296, Control_c, 0, 67, 53
1, 1219311, Control_c, 0, 67, 65
1, 1219317, Note_on_c, 0, 59, 53
1, 1219326, Control_c, 0, 67, 79
1, 1219340, Control_c, 0, 67, 93
1, 1219355, Control_c, 0, 64, 106
1, 1219355, Control_c, 0, 67, 106
1, 1219370, Control_c, 0, 64, 87
1, 1219370, Control_c, 0, 67, 117
1, 1219375, Note_off_c, 0, 59, 55
1, 1219386, Control_c, 0, 64, 72
1, 1219386, Control_c, 0, 67, 125
1, 1219401, Control_c, 0, 64, 59
1, 1219401, Control_c, 0, 67, 127
1, 1219415, Control_c, 0, 64, 48
1, 1219420, Note_on_c, 0, 50, 45
1, 1219430, Control_c, 0, 64, 53
1, 1219441, Note_on_c, 0, 76, 70
1, 1219445, Control_c, 0, 64, 60
1, 1219460, Control_c, 0, 64, 66
1, 1219475, Control_c, 0, 64, 72
1, 1219480, Note_off_c, 0, 50, 61
1, 1219489, Control_c, 0, 64, 78
1, 1219504, Control_c, 0, 64, 81
1, 1219505, Note_off_c, 0, 76, 59
1, 1219511, Note_on_c, 0, 52, 56
1, 1219519, Control_c, 0, 64, 83
1, 1219534, Control_c, 0, 64, 85
1, 1219544, Note_off_c, 0, 52, 63
1, 1219549, Control_c, 0, 64, 86
1, 1219564, Control_c, 0, 64, 87
1, 1219571, Note_off_c, 0, 64, 56
1, 1219578, Control_c, 0, 64, 88
1, 1219593, Control_c, 0, 64, 90
1, 1219604, Note_on_c, 0, 56, 53
1, 1219608, Control_c, 0, 64, 91
1, 1219623, Control_c, 0, 64, 91
1, 1219650, Note_off_c, 0, 56, 57
1, 1219697, Control_c, 0, 64, 90
1, 1219712, Control_c, 0, 64, 80
1, 1219716, Note_on_c, 0, 47, 50
1, 1219720, Note_on_c, 0, 62, 61
1, 1219727, Control_c, 0, 64, 66
1, 1219742, Control_c, 0, 64, 44
1, 1219756, Control_c, 0, 64, 0
1, 1219768, Note_off_c, 0, 62, 57
1, 1219830, Control_c, 0, 64, 44
1, 1219845, Note_on_c, 0, 50, 41
1, 1219845, Control_c, 0, 64, 61
1, 1219860, Control_c, 0, 64, 69
1, 1219875, Control_c, 0, 64, 75
1, 1219888, Note_off_c, 0, 50, 61
1, 1219889, Control_c, 0, 64, 78
1, 1219904, Control_c, 0, 64, 80
1, 1219919, Control_c, 0, 64, 82
1, 1219924, Note_on_c, 0, 52, 45
1, 1219933, Control_c, 0, 64, 83
1, 1219948, Control_c, 0, 64, 85
1, 1219963, Control_c, 0, 64, 85
1, 1219978, Control_c, 0, 64, 86
1, 1219985, Note_off_c, 0, 52, 54
1, 1219993, Control_c, 0, 64, 87
1, 1220015, Control_c, 0, 64, 88
1, 1220045, Control_c, 0, 64, 88
1, 1220060, Control_c, 0, 64, 89
1, 1220065, Note_on_c, 0, 50, 35
1, 1220068, Note_on_c, 0, 64, 57
1, 1220075, Control_c, 0, 64, 89
1, 1220089, Control_c, 0, 64, 90
1, 1220094, Note_off_c, 0, 47, 40
1, 1220104, Control_c, 0, 64, 90
1, 1220119, Control_c, 0, 64, 91
1, 1220133, Control_c, 0, 64, 92
1, 1220148, Control_c, 0, 64, 93
1, 1220163, Control_c, 0, 64, 95
1, 1220165, Note_on_c, 0, 52, 45
1, 1220178, Control_c, 0, 64, 95
1, 1220209, Control_c, 0, 64, 96
1, 1220238, Control_c, 0, 64, 95
1, 1220240, Note_off_c, 0, 52, 53
1, 1220253, Control_c, 0, 64, 90
1, 1220268, Control_c, 0, 64, 78
1, 1220279, Note_on_c, 0, 56, 30
1, 1220283, Control_c, 0, 64, 65
1, 1220298, Control_c, 0, 64, 49
1, 1220306, Note_off_c, 0, 50, 19
1, 1220312, Control_c, 0, 64, 0
1, 1220327, Control_c, 0, 64, 42
1, 1220330, Note_off_c, 0, 56, 44
1, 1220342, Control_c, 0, 64, 58
1, 1220349, Note_on_c, 0, 47, 46
1, 1220357, Control_c, 0, 64, 67
1, 1220372, Control_c, 0, 64, 76
1, 1220386, Control_c, 0, 64, 86
1, 1220401, Control_c, 0, 64, 93
1, 1220416, Control_c, 0, 64, 98
1, 1220431, Control_c, 0, 64, 100
1, 1220462, Note_on_c, 0, 50, 41
1, 1220530, Note_off_c, 0, 50, 54
1, 1220571, Note_on_c, 0, 52, 41
1, 1220616, Note_off_c, 0, 52, 50
1, 1220674, Note_on_c, 0, 76, 58
1, 1220683, Note_on_c, 0, 50, 41
1, 1220727, Note_off_c, 0, 47, 39
1, 1220730, Note_off_c, 0, 76, 47
1, 1220762, Note_off_c, 0, 64, 20
1, 1220804, Note_on_c, 0, 52, 36
1, 1220840, Note_off_c, 0, 50, 30
1, 1220852, Note_off_c, 0, 52, 49
1, 1220875, Note_on_c, 0, 56, 37
1, 1220938, Note_off_c, 0, 56, 41
1, 1220956, Control_c, 0, 64, 97
1, 1220962, Note_on_c, 0, 47, 44
1, 1220965, Note_on_c, 0, 62, 58
1, 1220971, Control_c, 0, 64, 85
1, 1220987, Control_c, 0, 64, 71
1, 1221002, Control_c, 0, 64, 57
1, 1221017, Control_c, 0, 64, 0
1, 1221026, Note_off_c, 0, 62, 60
1, 1221091, Control_c, 0, 64, 46
1, 1221097, Note_on_c, 0, 50, 40
1, 1221106, Control_c, 0, 64, 61
1, 1221121, Control_c, 0, 64, 67
1, 1221135, Control_c, 0, 64, 72
1, 1221139, Note_off_c, 0, 50, 60
1, 1221150, Control_c, 0, 64, 75
1, 1221165, Control_c, 0, 64, 77
1, 1221166, Note_on_c, 0, 52, 42
1, 1221179, Control_c, 0, 64, 78
1, 1221194, Control_c, 0, 64, 81
1, 1221209, Control_c, 0, 64, 83
1, 1221217, Note_off_c, 0, 52, 56
1, 1221224, Control_c, 0, 64, 85
1, 1221239, Control_c, 0, 64, 86
1, 1221254, Control_c, 0, 64, 87
1, 1221269, Control_c, 0, 64, 88
1, 1221284, Control_c, 0, 64, 89
1, 1221287, Note_on_c, 0, 50, 36
1, 1221298, Control_c, 0, 64, 89
1, 1221313, Note_on_c, 0, 64, 55
1, 1221313, Control_c, 0, 64, 90
1, 1221328, Control_c, 0, 64, 90
1, 1221343, Control_c, 0, 64, 91
1, 1221358, Control_c, 0, 64, 91
1, 1221364, Note_off_c, 0, 47, 40
1, 1221373, Control_c, 0, 64, 92
1, 1221387, Control_c, 0, 64, 92
1, 1221404, Note_on_c, 0, 52, 39
1, 1221479, Note_off_c, 0, 52, 47
1, 1221516, Note_on_c, 0, 56, 37
1, 1221543, Control_c, 0, 64, 90
1, 1221558, Control_c, 0, 64, 78
1, 1221572, Note_off_c, 0, 50, 33
1, 1221573, Control_c, 0, 64, 66
1, 1221587, Control_c, 0, 64, 51
1, 1221597, Note_on_c, 0, 47, 38
1, 1221602, Control_c, 0, 64, 0
1, 1221606, Note_off_c, 0, 56, 38
1, 1221632, Control_c, 0, 64, 38
1, 1221647, Control_c, 0, 64, 53
1, 1221661, Control_c, 0, 64, 64
1, 1221676, Control_c, 0, 64, 71
1, 1221691, Control_c, 0, 64, 79
1, 1221705, Control_c, 0, 64, 88
1, 1221710, Note_on_c, 0, 50, 44
1, 1221720, Control_c, 0, 64, 94
1, 1221735, Control_c, 0, 64, 100
1, 1221750, Control_c, 0, 64, 105
1, 1221765, Control_c, 0, 64, 110
1, 1221768, Note_off_c, 0, 50, 56
1, 1221781, Control_c, 0, 64, 115
1, 1221796, Control_c, 0, 64, 120
1, 1221810, Control_c, 0, 64, 127
1, 1221817, Note_on_c, 0, 52, 39
1, 1221868, Note_off_c, 0, 52, 46
1, 1221969, Note_on_c, 0, 50, 34
1, 1221972, Note_off_c, 0, 47, 41
1, 1221978, Note_off_c, 0, 64, 37
1, 1221999, Note_on_c, 0, 76, 55
1, 1222038, Note_off_c, 0, 76, 59
1, 1222103, Note_on_c, 0, 52, 36
1, 1222109, Note_off_c, 0, 50, 31
1, 1222174, Note_off_c, 0, 52, 47
1, 1222220, Note_on_c, 0, 56, 41
1, 1222259, Note_off_c, 0, 56, 56
1, 1222407, Note_on_c, 0, 45, 45
1, 1222425, Control_c, 0, 64, 117
1, 1222440, Control_c, 0, 64, 88
1, 1222449, Note_on_c, 0, 73, 57
1, 1222455, Note_on_c, 0, 61, 50
1, 1222455, Control_c, 0, 64, 67
1, 1222470, Control_c, 0, 64, 41
1, 1222479, Note_off_c, 0, 61, 59
1, 1222485, Control_c, 0, 64, 0
1, 1222494, Note_off_c, 0, 73, 57
1, 1222536, Note_on_c, 0, 49, 46
1, 1222544, Control_c, 0, 64, 37
1, 1222559, Control_c, 0, 64, 55
1, 1222574, Control_c, 0, 64, 66
1, 1222589, Control_c, 0, 64, 73
1, 1222601, Note_off_c, 0, 49, 60
1, 1222604, Control_c, 0, 64, 82
1, 1222619, Control_c, 0, 64, 90
1, 1222631, Note_on_c, 0, 52, 49
1, 1222634, Control_c, 0, 64, 98
1, 1222649, Control_c, 0, 64, 115
1, 1222649, Control_c, 0, 67, 109
1, 1222664, Control_c, 0, 64, 127
1, 1222664, Control_c, 0, 67, 79
1, 1222677, Note_off_c, 0, 52, 58
1, 1222679, Control_c, 0, 67, 52
1, 1222693, Control_c, 0, 67, 25
1, 1222708, Control_c, 0, 67, 0
1, 1222780, Note_on_c, 0, 49, 38
1, 1222798, Note_off_c, 0, 45, 39
1, 1222807, Note_on_c, 0, 76, 77
1, 1222822, Note_on_c, 0, 64, 52
1, 1222849, Note_off_c, 0, 49, 58
1, 1222869, Note_on_c, 0, 52, 52
1, 1222874, Note_off_c, 0, 64, 58
1, 1222894, Note_off_c, 0, 52, 61
1, 1222969, Note_on_c, 0, 57, 47
1, 1223029, Note_off_c, 0, 57, 54
1, 1223072, Note_on_c, 0, 49, 54
1, 1223158, Note_off_c, 0, 49, 55
1, 1223174, Note_on_c, 0, 52, 54
1, 1223224, Note_off_c, 0, 52, 57
1, 1223251, Note_on_c, 0, 57, 60
1, 1223296, Note_off_c, 0, 57, 55
1, 1223359, Note_on_c, 0, 52, 47
1, 1223370, Note_off_c, 0, 76, 59
1, 1223379, Note_on_c, 0, 81, 94
1, 1223395, Note_on_c, 0, 69, 69
1, 1223427, Note_off_c, 0, 69, 59
1, 1223448, Note_off_c, 0, 52, 55
1, 1223452, Note_on_c, 0, 57, 44
1, 1223489, Note_off_c, 0, 57, 64
1, 1223535, Note_on_c, 0, 61, 56
1, 1223566, Note_off_c, 0, 61, 64
1, 1223584, Note_off_c, 0, 81, 45
1, 1223652, Note_on_c, 0, 47, 53
1, 1223664, Control_c, 0, 64, 125
1, 1223679, Control_c, 0, 64, 81
1, 1223694, Control_c, 0, 64, 63
1, 1223707, Note_on_c, 0, 81, 88
1, 1223708, Control_c, 0, 64, 46
1, 1223720, Note_on_c, 0, 69, 55
1, 1223722, Control_c, 0, 64, 50
1, 1223737, Control_c, 0, 64, 59
1, 1223760, Control_c, 0, 64, 66
1, 1223775, Control_c, 0, 64, 76
1, 1223781, Note_off_c, 0, 69, 53
1, 1223789, Control_c, 0, 64, 93
1, 1223804, Control_c, 0, 64, 127
1, 1223826, Note_on_c, 0, 50, 48
1, 1223885, Note_off_c, 0, 50, 58
1, 1223919, Note_on_c, 0, 52, 52
1, 1223973, Note_off_c, 0, 52, 59
1, 1224017, Note_on_c, 0, 80, 80
1, 1224018, Note_on_c, 0, 50, 53
1, 1224031, Note_on_c, 0, 68, 61
1, 1224035, Note_off_c, 0, 47, 41
1, 1224068, Note_off_c, 0, 81, 60
1, 1224083, Note_off_c, 0, 50, 59
1, 1224099, Note_on_c, 0, 52, 55
1, 1224104, Note_off_c, 0, 68, 55
1, 1224130, Note_off_c, 0, 52, 56
1, 1224148, Note_off_c, 0, 80, 59
1, 1224178, Note_on_c, 0, 59, 53
1, 1224250, Control_c, 0, 64, 86
1, 1224255, Note_off_c, 0, 59, 56
1, 1224264, Control_c, 0, 64, 67
1, 1224279, Control_c, 0, 64, 45
1, 1224294, Control_c, 0, 64, 0
1, 1224297, Note_on_c, 0, 49, 43
1, 1224330, Note_on_c, 0, 81, 91
1, 1224346, Note_on_c, 0, 69, 55
1, 1224353, Control_c, 0, 64, 49
1, 1224368, Control_c, 0, 64, 64
1, 1224383, Control_c, 0, 64, 74
1, 1224397, Control_c, 0, 64, 86
1, 1224412, Control_c, 0, 64, 101
1, 1224419, Note_off_c, 0, 69, 60
1, 1224427, Control_c, 0, 64, 113
1, 1224432, Note_on_c, 0, 52, 54
1, 1224442, Control_c, 0, 64, 127
1, 1224458, Note_off_c, 0, 49, 38
1, 1224491, Note_off_c, 0, 52, 57
1, 1224532, Note_on_c, 0, 57, 56
1, 1224579, Note_off_c, 0, 57, 57
1, 1224631, Note_on_c, 0, 52, 52
1, 1224673, Note_off_c, 0, 81, 60
1, 1224682, Note_off_c, 0, 52, 58
1, 1224712, Note_on_c, 0, 57, 57
1, 1224754, Note_off_c, 0, 57, 57
1, 1224795, Note_on_c, 0, 61, 55
1, 1224824, Note_off_c, 0, 61, 63
1, 1224903, Note_on_c, 0, 50, 49
1, 1224935, Note_on_c, 0, 83, 90
1, 1224938, Control_c, 0, 64, 93
1, 1224953, Control_c, 0, 64, 70
1, 1224957, Note_on_c, 0, 71, 59
1, 1224968, Control_c, 0, 64, 52
1, 1224984, Control_c, 0, 64, 0
1, 1225014, Control_c, 0, 64, 44
1, 1225028, Control_c, 0, 64, 58
1, 1225043, Control_c, 0, 64, 66
1, 1225049, Note_on_c, 0, 54, 52
1, 1225058, Control_c, 0, 64, 80
1, 1225067, Note_off_c, 0, 71, 58
1, 1225073, Control_c, 0, 64, 105
1, 1225088, Control_c, 0, 64, 127
1, 1225122, Note_off_c, 0, 54, 62
1, 1225124, Note_off_c, 0, 83, 64
1, 1225127, Note_on_c, 0, 57, 66
1, 1225199, Note_off_c, 0, 57, 56
1, 1225217, Note_on_c, 0, 54, 66
1, 1225230, Note_off_c, 0, 50, 38
1, 1225298, Note_off_c, 0, 54, 60
1, 1225323, Note_on_c, 0, 57, 62
1, 1225358, Note_off_c, 0, 57, 63
1, 1225367, Note_on_c, 0, 83, 90
1, 1225371, Note_on_c, 0, 71, 77
1, 1225386, Note_off_c, 0, 71, 70
1, 1225401, Note_on_c, 0, 59, 60
1, 1225409, Note_off_c, 0, 83, 66
1, 1225482, Note_off_c, 0, 59, 54
1, 1225494, Note_on_c, 0, 51, 54
1, 1225539, Control_c, 0, 64, 114
1, 1225553, Control_c, 0, 64, 77
1, 1225563, Note_on_c, 0, 85, 86
1, 1225568, Control_c, 0, 64, 60
1, 1225574, Note_on_c, 0, 73, 66
1, 1225583, Control_c, 0, 64, 42
1, 1225598, Control_c, 0, 64, 46
1, 1225613, Control_c, 0, 64, 55
1, 1225613, Control_c, 0, 67, 21
1, 1225627, Control_c, 0, 64, 62
1, 1225627, Control_c, 0, 67, 24
1, 1225642, Control_c, 0, 64, 69
1, 1225642, Control_c, 0, 67, 28
1, 1225652, Note_on_c, 0, 54, 51
1, 1225657, Control_c, 0, 64, 84
1, 1225657, Control_c, 0, 67, 32
1, 1225671, Control_c, 0, 64, 127
1, 1225671, Control_c, 0, 67, 41
1, 1225677, Note_off_c, 0, 51, 50
1, 1225683, Note_off_c, 0, 85, 65
1, 1225686, Control_c, 0, 67, 53
1, 1225701, Note_off_c, 0, 73, 61
1, 1225701, Control_c, 0, 67, 71
1, 1225713, Note_off_c, 0, 54, 60
1, 1225716, Control_c, 0, 67, 85
1, 1225722, Note_on_c, 0, 57, 63
1, 1225731, Control_c, 0, 67, 98
1, 1225746, Control_c, 0, 67, 111
1, 1225761, Control_c, 0, 67, 122
1, 1225776, Control_c, 0, 67, 127
1, 1225817, Note_off_c, 0, 57, 52
1, 1225847, Note_on_c, 0, 54, 53
1, 1225853, Note_on_c, 0, 81, 94
1, 1225871, Note_on_c, 0, 69, 63
1, 1225932, Note_off_c, 0, 54, 60
1, 1225934, Note_on_c, 0, 57, 56
1, 1225967, Note_off_c, 0, 69, 28
1, 1225968, Note_off_c, 0, 57, 62
1, 1226024, Note_on_c, 0, 61, 56
1, 1226042, Note_off_c, 0, 81, 49
1, 1226077, Note_off_c, 0, 61, 53
1, 1226119, Note_on_c, 0, 52, 52
1, 1226165, Note_on_c, 0, 81, 87
1, 1226169, Control_c, 0, 64, 83
1, 1226183, Control_c, 0, 64, 64
1, 1226185, Note_on_c, 0, 69, 57
1, 1226198, Control_c, 0, 64, 47
1, 1226213, Control_c, 0, 64, 46
1, 1226228, Control_c, 0, 64, 55
1, 1226243, Control_c, 0, 64, 65
1, 1226245, Note_off_c, 0, 52, 60
1, 1226257, Control_c, 0, 64, 75
1, 1226272, Control_c, 0, 64, 90
1, 1226281, Note_on_c, 0, 57, 50
1, 1226287, Control_c, 0, 64, 127
1, 1226341, Note_off_c, 0, 57, 55
1, 1226356, Note_on_c, 0, 61, 56
1, 1226402, Note_off_c, 0, 61, 53
1, 1226409, Note_off_c, 0, 81, 62
1, 1226429, Note_off_c, 0, 69, 37
1, 1226482, Note_on_c, 0, 57, 46
1, 1226524, Note_off_c, 0, 57, 60
1, 1226548, Note_on_c, 0, 61, 52
1, 1226590, Note_off_c, 0, 61, 61
1, 1226640, Note_on_c, 0, 64, 49
1, 1226683, Note_off_c, 0, 64, 56
1, 1226703, Control_c, 0, 64, 104
1, 1226717, Control_c, 0, 64, 79
1, 1226732, Control_c, 0, 64, 62
1, 1226752, Note_on_c, 0, 52, 40
1, 1226754, Control_c, 0, 64, 42
1, 1226769, Control_c, 0, 64, 37
1, 1226781, Note_on_c, 0, 80, 69
1, 1226784, Control_c, 0, 64, 46
1, 1226798, Control_c, 0, 64, 55
1, 1226804, Note_on_c, 0, 68, 48
1, 1226813, Control_c, 0, 64, 62
1, 1226828, Control_c, 0, 64, 67
1, 1226840, Note_off_c, 0, 80, 62
1, 1226842, Note_off_c, 0, 68, 65
1, 1226843, Control_c, 0, 64, 77
1, 1226858, Control_c, 0, 64, 86
1, 1226873, Control_c, 0, 64, 92
1, 1226888, Note_off_c, 0, 52, 46
1, 1226888, Control_c, 0, 64, 95
1, 1226889, Note_on_c, 0, 59, 44
1, 1226903, Control_c, 0, 64, 100
1, 1226917, Control_c, 0, 64, 107
1, 1226923, Note_off_c, 0, 59, 61
1, 1226932, Control_c, 0, 64, 127
1, 1226935, Note_on_c, 0, 78, 78
1, 1226950, Note_on_c, 0, 66, 64
1, 1226980, Note_on_c, 0, 62, 54
1, 1226984, Note_off_c, 0, 66, 65
1, 1226989, Note_off_c, 0, 78, 64
1, 1227025, Note_off_c, 0, 62, 58
1, 1227036, Control_c, 0, 64, 105
1, 1227051, Control_c, 0, 64, 78
1, 1227066, Control_c, 0, 64, 65
1, 1227080, Control_c, 0, 64, 61
1, 1227087, Note_on_c, 0, 61, 44
1, 1227088, Note_on_c, 0, 76, 77
1, 1227095, Control_c, 0, 64, 64
1, 1227099, Note_on_c, 0, 64, 60
1, 1227110, Control_c, 0, 64, 68
1, 1227124, Control_c, 0, 64, 78
1, 1227125, Note_off_c, 0, 61, 62
1, 1227129, Note_off_c, 0, 76, 60
1, 1227132, Note_off_c, 0, 64, 51
1, 1227139, Control_c, 0, 64, 90
1, 1227154, Control_c, 0, 64, 105
1, 1227159, Note_on_c, 0, 62, 56
1, 1227169, Control_c, 0, 64, 120
1, 1227184, Control_c, 0, 64, 127
1, 1227184, Control_c, 0, 67, 113
1, 1227198, Control_c, 0, 67, 86
1, 1227213, Control_c, 0, 67, 61
1, 1227215, Note_off_c, 0, 62, 0
1, 1227219, Note_on_c, 0, 74, 89
1, 1227228, Control_c, 0, 67, 41
1, 1227239, Note_on_c, 0, 62, 38
1, 1227240, Note_on_c, 0, 64, 41
1, 1227243, Control_c, 0, 67, 22
1, 1227254, Note_on_c, 0, 59, 40
1, 1227257, Control_c, 0, 67, 0
1, 1227265, Note_off_c, 0, 62, 60
1, 1227273, Note_off_c, 0, 64, 46
1, 1227282, Note_off_c, 0, 59, 55
1, 1227312, Note_off_c, 0, 74, 57
1, 1227347, Control_c, 0, 64, 91
1, 1227362, Control_c, 0, 64, 69
1, 1227369, Note_on_c, 0, 73, 73
1, 1227377, Control_c, 0, 64, 46
1, 1227385, Note_on_c, 0, 61, 56
1, 1227392, Control_c, 0, 64, 0
1, 1227405, Note_on_c, 0, 45, 45
1, 1227421, Note_off_c, 0, 61, 63
1, 1227467, Control_c, 0, 64, 41
1, 1227468, Note_off_c, 0, 73, 62
1, 1227482, Control_c, 0, 64, 59
1, 1227504, Control_c, 0, 64, 68
1, 1227510, Note_on_c, 0, 49, 52
1, 1227519, Control_c, 0, 64, 73
1, 1227534, Control_c, 0, 64, 77
1, 1227548, Control_c, 0, 64, 79
1, 1227556, Note_off_c, 0, 49, 60
1, 1227563, Control_c, 0, 64, 81
1, 1227578, Control_c, 0, 64, 84
1, 1227583, Note_on_c, 0, 52, 57
1, 1227593, Control_c, 0, 64, 86
1, 1227608, Control_c, 0, 64, 86
1, 1227633, Note_off_c, 0, 52, 53
1, 1227652, Control_c, 0, 64, 84
1, 1227667, Control_c, 0, 64, 74
1, 1227681, Control_c, 0, 64, 63
1, 1227696, Control_c, 0, 64, 37
1, 1227709, Note_on_c, 0, 76, 86
1, 1227711, Control_c, 0, 64, 0
1, 1227725, Note_on_c, 0, 49, 45
1, 1227728, Note_on_c, 0, 64, 60
1, 1227770, Control_c, 0, 64, 47
1, 1227782, Note_off_c, 0, 45, 45
1, 1227785, Control_c, 0, 64, 62
1, 1227800, Control_c, 0, 64, 70
1, 1227812, Note_on_c, 0, 52, 55
1, 1227815, Control_c, 0, 64, 80
1, 1227825, Note_off_c, 0, 49, 62
1, 1227830, Control_c, 0, 64, 95
1, 1227833, Note_off_c, 0, 64, 55
1, 1227844, Control_c, 0, 64, 109
1, 1227847, Note_off_c, 0, 52, 62
1, 1227859, Control_c, 0, 64, 127
1, 1227890, Note_on_c, 0, 57, 60
1, 1227976, Note_off_c, 0, 57, 61
1, 1227988, Note_on_c, 0, 49, 58
1, 1228076, Note_on_c, 0, 52, 65
1, 1228077, Note_off_c, 0, 49, 58
1, 1228089, Note_off_c, 0, 76, 61
1, 1228156, Note_off_c, 0, 52, 60
1, 1228171, Note_on_c, 0, 57, 69
1, 1228235, Note_off_c, 0, 57, 61
1, 1228291, Note_on_c, 0, 52, 54
1, 1228316, Note_on_c, 0, 81, 94
1, 1228334, Note_on_c, 0, 69, 65
1, 1228375, Note_off_c, 0, 52, 58
1, 1228379, Note_on_c, 0, 57, 54
1, 1228412, Note_off_c, 0, 57, 65
1, 1228462, Note_on_c, 0, 61, 60
1, 1228487, Note_off_c, 0, 69, 23
1, 1228493, Note_off_c, 0, 61, 64
1, 1228519, Note_off_c, 0, 81, 56
1, 1228584, Note_on_c, 0, 47, 55
1, 1228623, Control_c, 0, 64, 98
1, 1228629, Note_on_c, 0, 81, 83
1, 1228638, Control_c, 0, 64, 72
1, 1228645, Note_on_c, 0, 69, 56
1, 1228652, Control_c, 0, 64, 55
1, 1228667, Control_c, 0, 64, 33
1, 1228682, Control_c, 0, 64, 41
1, 1228697, Control_c, 0, 64, 53
1, 1228712, Control_c, 0, 64, 61
1, 1228718, Note_off_c, 0, 69, 59
1, 1228727, Control_c, 0, 64, 71
1, 1228742, Control_c, 0, 64, 83
1, 1228745, Note_on_c, 0, 50, 48
1, 1228757, Control_c, 0, 64, 102
1, 1228771, Control_c, 0, 64, 127
1, 1228789, Note_off_c, 0, 50, 57
1, 1228809, Note_on_c, 0, 52, 52
1, 1228868, Note_off_c, 0, 52, 56
1, 1228875, Control_c, 0, 64, 104
1, 1228890, Control_c, 0, 64, 78
1, 1228904, Control_c, 0, 64, 62
1, 1228919, Control_c, 0, 64, 40
1, 1228921, Note_on_c, 0, 50, 36
1, 1228930, Note_on_c, 0, 80, 73
1, 1228934, Control_c, 0, 64, 40
1, 1228946, Note_off_c, 0, 47, 53
1, 1228949, Control_c, 0, 64, 51
1, 1228950, Note_on_c, 0, 68, 55
1, 1228964, Control_c, 0, 64, 60
1, 1228979, Note_off_c, 0, 81, 53
1, 1228980, Control_c, 0, 64, 67
1, 1229001, Control_c, 0, 64, 76
1, 1229012, Note_on_c, 0, 52, 57
1, 1229012, Note_off_c, 0, 50, 59
1, 1229016, Control_c, 0, 64, 86
1, 1229031, Control_c, 0, 64, 94
1, 1229046, Note_off_c, 0, 52, 64
1, 1229046, Control_c, 0, 64, 96
1, 1229057, Note_off_c, 0, 68, 52
1, 1229076, Control_c, 0, 64, 98
1, 1229098, Note_off_c, 0, 80, 39
1, 1229114, Note_on_c, 0, 59, 42
1, 1229135, Control_c, 0, 64, 100
1, 1229189, Note_off_c, 0, 59, 58
1, 1229209, Control_c, 0, 64, 98
1, 1229224, Control_c, 0, 64, 86
1, 1229239, Control_c, 0, 64, 72
1, 1229253, Control_c, 0, 64, 58
1, 1229260, Note_on_c, 0, 81, 77
1, 1229268, Control_c, 0, 64, 0
1, 1229281, Note_on_c, 0, 69, 41
1, 1229298, Control_c, 0, 64, 43
1, 1229313, Control_c, 0, 64, 57
1, 1229327, Control_c, 0, 64, 67
1, 1229332, Note_off_c, 0, 69, 49
1, 1229342, Control_c, 0, 64, 78
1, 1229347, Note_on_c, 0, 52, 46
1, 1229357, Control_c, 0, 64, 91
1, 1229372, Control_c, 0, 64, 105
1, 1229387, Control_c, 0, 64, 115
1, 1229401, Control_c, 0, 64, 127
1, 1229404, Note_off_c, 0, 52, 56
1, 1229442, Note_on_c, 0, 57, 55
1, 1229487, Note_off_c, 0, 57, 57
1, 1229535, Note_on_c, 0, 52, 47
1, 1229596, Note_off_c, 0, 52, 55
1, 1229609, Control_c, 0, 67, 20
1, 1229624, Control_c, 0, 67, 24
1, 1229626, Note_on_c, 0, 57, 48
1, 1229626, Note_off_c, 0, 81, 50
1, 1229638, Control_c, 0, 67, 28
1, 1229653, Control_c, 0, 67, 33
1, 1229666, Note_off_c, 0, 57, 62
1, 1229668, Control_c, 0, 67, 40
1, 1229683, Control_c, 0, 67, 51
1, 1229698, Control_c, 0, 67, 60
1, 1229713, Control_c, 0, 67, 67
1, 1229719, Note_on_c, 0, 61, 54
1, 1229727, Control_c, 0, 67, 71
1, 1229749, Control_c, 0, 67, 71
1, 1229770, Note_off_c, 0, 61, 59
1, 1229824, Control_c, 0, 64, 107
1, 1229824, Control_c, 0, 67, 72
1, 1229839, Control_c, 0, 64, 83
1, 1229840, Note_on_c, 0, 50, 46
1, 1229854, Control_c, 0, 64, 66
1, 1229869, Control_c, 0, 64, 50
1, 1229883, Control_c, 0, 64, 38
1, 1229885, Note_on_c, 0, 83, 75
1, 1229898, Control_c, 0, 64, 45
1, 1229907, Note_on_c, 0, 71, 48
1, 1229913, Control_c, 0, 64, 55
1, 1229928, Control_c, 0, 64, 62
1, 1229932, Note_off_c, 0, 71, 58
1, 1229943, Control_c, 0, 64, 69
1, 1229958, Note_off_c, 0, 50, 59
1, 1229958, Control_c, 0, 64, 80
1, 1229960, Note_off_c, 0, 83, 65
1, 1229967, Note_on_c, 0, 54, 42
1, 1229973, Control_c, 0, 64, 97
1, 1229988, Control_c, 0, 64, 127
1, 1229988, Control_c, 0, 67, 71
1, 1230003, Control_c, 0, 67, 71
1, 1230032, Control_c, 0, 67, 70
1, 1230050, Note_on_c, 0, 57, 52
1, 1230062, Control_c, 0, 67, 69
1, 1230076, Control_c, 0, 67, 69
1, 1230091, Control_c, 0, 67, 68
1, 1230107, Note_off_c, 0, 57, 52
1, 1230121, Control_c, 0, 67, 68
1, 1230143, Note_off_c, 0, 54, 33
1, 1230150, Control_c, 0, 67, 67
1, 1230173, Note_on_c, 0, 52, 43
1, 1230184, Note_on_c, 0, 85, 73
1, 1230195, Note_on_c, 0, 73, 56
1, 1230210, Control_c, 0, 67, 66
1, 1230232, Note_off_c, 0, 73, 61
1, 1230239, Control_c, 0, 67, 66
1, 1230251, Note_off_c, 0, 85, 63
1, 1230298, Note_on_c, 0, 57, 42
1, 1230314, Note_off_c, 0, 52, 50
1, 1230323, Note_on_c, 0, 86, 88
1, 1230334, Note_on_c, 0, 74, 69
1, 1230354, Note_off_c, 0, 74, 60
1, 1230369, Note_off_c, 0, 57, 48
1, 1230383, Note_on_c, 0, 54, 48
1, 1230402, Control_c, 0, 67, 66
1, 1230417, Control_c, 0, 67, 67
1, 1230432, Control_c, 0, 67, 67
1, 1230447, Control_c, 0, 67, 68
1, 1230450, Note_off_c, 0, 54, 54
1, 1230461, Control_c, 0, 64, 83
1, 1230461, Control_c, 0, 67, 69
1, 1230476, Control_c, 0, 64, 65
1, 1230476, Control_c, 0, 67, 70
1, 1230479, Note_on_c, 0, 52, 44
1, 1230498, Control_c, 0, 64, 47
1, 1230498, Control_c, 0, 67, 71
1, 1230503, Note_on_c, 0, 85, 74
1, 1230513, Control_c, 0, 64, 41
1, 1230513, Control_c, 0, 67, 73
1, 1230527, Note_on_c, 0, 73, 61
1, 1230528, Control_c, 0, 64, 53
1, 1230528, Control_c, 0, 67, 75
1, 1230541, Note_off_c, 0, 86, 30
1, 1230542, Control_c, 0, 64, 60
1, 1230542, Control_c, 0, 67, 82
1, 1230557, Control_c, 0, 64, 64
1, 1230557, Control_c, 0, 67, 98
1, 1230573, Control_c, 0, 64, 71
1, 1230573, Control_c, 0, 67, 114
1, 1230588, Note_off_c, 0, 52, 58
1, 1230588, Control_c, 0, 64, 84
1, 1230588, Control_c, 0, 67, 127
1, 1230591, Note_off_c, 0, 85, 66
1, 1230603, Control_c, 0, 64, 111
1, 1230606, Note_on_c, 0, 57, 53
1, 1230618, Control_c, 0, 64, 127
1, 1230635, Note_off_c, 0, 73, 59
1, 1230656, Note_off_c, 0, 57, 54
1, 1230694, Note_on_c, 0, 61, 44
1, 1230738, Note_off_c, 0, 61, 51
1, 1230762, Note_on_c, 0, 52, 43
1, 1230796, Control_c, 0, 64, 87
1, 1230797, Note_on_c, 0, 83, 83
1, 1230810, Control_c, 0, 64, 68
1, 1230816, Note_on_c, 0, 71, 59
1, 1230825, Control_c, 0, 64, 55
1, 1230840, Control_c, 0, 64, 56
1, 1230855, Control_c, 0, 64, 62
1, 1230862, Note_off_c, 0, 52, 56
1, 1230870, Control_c, 0, 64, 65
1, 1230883, Note_on_c, 0, 56, 46
1, 1230885, Control_c, 0, 64, 71
1, 1230899, Control_c, 0, 64, 83
1, 1230914, Control_c, 0, 64, 108
1, 1230928, Note_off_c, 0, 56, 60
1, 1230929, Control_c, 0, 64, 127
1, 1230963, Note_off_c, 0, 71, 32
1, 1230971, Note_on_c, 0, 62, 50
1, 1230992, Note_off_c, 0, 83, 45
1, 1230995, Note_off_c, 0, 62, 57
1, 1231105, Note_on_c, 0, 45, 56
1, 1231106, Control_c, 0, 64, 88
1, 1231113, Note_on_c, 0, 83, 69
1, 1231121, Control_c, 0, 64, 66
1, 1231135, Note_on_c, 0, 71, 45
1, 1231136, Control_c, 0, 64, 55
1, 1231151, Control_c, 0, 64, 56
1, 1231165, Control_c, 0, 64, 61
1, 1231180, Note_off_c, 0, 45, 59
1, 1231180, Control_c, 0, 64, 65
1, 1231195, Control_c, 0, 64, 71
1, 1231210, Control_c, 0, 64, 85
1, 1231221, Note_on_c, 0, 52, 54
1, 1231225, Control_c, 0, 64, 103
1, 1231247, Control_c, 0, 64, 127
1, 1231273, Note_off_c, 0, 52, 60
1, 1231311, Note_on_c, 0, 56, 53
1, 1231314, Note_off_c, 0, 83, 60
1, 1231318, Note_off_c, 0, 71, 37
1, 1231339, Note_on_c, 0, 76, 11
1, 1231365, Note_off_c, 0, 56, 57
1, 1231413, Note_on_c, 0, 52, 56
1, 1231440, Control_c, 0, 67, 110
1, 1231455, Control_c, 0, 67, 73
1, 1231470, Control_c, 0, 67, 34
1, 1231485, Control_c, 0, 67, 0
1, 1231499, Note_off_c, 0, 52, 59
1, 1231518, Note_on_c, 0, 56, 56
1, 1231553, Note_off_c, 0, 56, 63
1, 1231607, Note_on_c, 0, 62, 49
1, 1231616, Note_off_c, 0, 76, 39
1, 1231670, Note_off_c, 0, 62, 56
1, 1231678, Control_c, 0, 64, 108
1, 1231693, Control_c, 0, 64, 79
1, 1231708, Control_c, 0, 64, 60
1, 1231722, Control_c, 0, 64, 0
1, 1231736, Note_on_c, 0, 81, 71
1, 1231739, Note_on_c, 0, 57, 50
1, 1231749, Note_on_c, 0, 61, 49
1, 1231753, Note_on_c, 0, 69, 43
1, 1231776, Note_off_c, 0, 57, 64
1, 1231789, Note_off_c, 0, 61, 62
1, 1231884, Note_on_c, 0, 59, 69
1, 1231940, Note_off_c, 0, 59, 54
1, 1232030, Note_on_c, 0, 61, 71
1, 1232072, Note_off_c, 0, 61, 55
1, 1232086, Note_off_c, 0, 69, 42
1, 1232092, Note_off_c, 0, 81, 62
1, 1232160, Note_on_c, 0, 62, 78
1, 1232188, Note_off_c, 0, 62, 62
1, 1232332, Note_on_c, 0, 61, 48
1, 1232333, Note_on_c, 0, 64, 52
1, 1232360, Note_on_c, 0, 69, 59
1, 1232395, Note_off_c, 0, 69, 61
1, 1232496, Note_on_c, 0, 71, 58
1, 1232532, Note_off_c, 0, 71, 62
1, 1232575, Control_c, 0, 64, 40
1, 1232589, Control_c, 0, 64, 61
1, 1232599, Note_off_c, 0, 64, 60
1, 1232604, Control_c, 0, 64, 72
1, 1232604, Control_c, 0, 67, 19
1, 1232619, Control_c, 0, 64, 81
1, 1232629, Note_on_c, 0, 73, 67
1, 1232634, Control_c, 0, 64, 94
1, 1232649, Control_c, 0, 64, 110
1, 1232649, Control_c, 0, 67, 21
1, 1232663, Control_c, 0, 64, 127
1, 1232678, Control_c, 0, 67, 23
1, 1232700, Note_off_c, 0, 73, 59
1, 1232709, Control_c, 0, 67, 26
1, 1232745, Control_c, 0, 67, 28
1, 1232761, Note_off_c, 0, 61, 58
1, 1232793, Note_on_c, 0, 64, 54
1, 1232798, Note_on_c, 0, 74, 66
1, 1232820, Control_c, 0, 67, 30
1, 1232849, Control_c, 0, 67, 33
1, 1232864, Control_c, 0, 67, 36
1, 1232879, Control_c, 0, 67, 37
1, 1232894, Control_c, 0, 67, 38
1, 1232922, Note_off_c, 0, 74, 34
1, 1232924, Control_c, 0, 64, 95
1, 1232924, Control_c, 0, 67, 40
1, 1232927, Note_off_c, 0, 64, 53
1, 1232938, Control_c, 0, 64, 77
1, 1232938, Control_c, 0, 67, 44
1, 1232953, Control_c, 0, 64, 64
1, 1232953, Control_c, 0, 67, 51
1, 1232962, Note_on_c, 0, 76, 59
1, 1232966, Note_on_c, 0, 58, 39
1, 1232969, Control_c, 0, 64, 48
1, 1232969, Control_c, 0, 67, 57
1, 1232984, Note_on_c, 0, 66, 38
1, 1232984, Control_c, 0, 64, 0
1, 1232984, Control_c, 0, 67, 63
1, 1232998, Control_c, 0, 67, 68
1, 1233013, Control_c, 0, 67, 72
1, 1233028, Control_c, 0, 67, 76
1, 1233043, Control_c, 0, 64, 34
1, 1233043, Control_c, 0, 67, 81
1, 1233054, Note_off_c, 0, 76, 62
1, 1233058, Control_c, 0, 64, 45
1, 1233058, Control_c, 0, 67, 85
1, 1233061, Note_on_c, 0, 75, 65
1, 1233073, Control_c, 0, 64, 58
1, 1233073, Control_c, 0, 67, 89
1, 1233087, Control_c, 0, 64, 67
1, 1233087, Control_c, 0, 67, 92
1, 1233102, Control_c, 0, 64, 74
1, 1233102, Control_c, 0, 67, 96
1, 1233117, Control_c, 0, 64, 84
1, 1233117, Control_c, 0, 67, 99
1, 1233120, Note_off_c, 0, 75, 62
1, 1233132, Control_c, 0, 64, 92
1, 1233132, Control_c, 0, 67, 101
1, 1233147, Control_c, 0, 64, 103
1, 1233147, Control_c, 0, 67, 107
1, 1233153, Note_on_c, 0, 76, 68
1, 1233161, Control_c, 0, 64, 127
1, 1233161, Control_c, 0, 67, 114
1, 1233176, Control_c, 0, 67, 120
1, 1233191, Control_c, 0, 67, 125
1, 1233206, Control_c, 0, 67, 127
1, 1233234, Note_off_c, 0, 76, 61
1, 1233235, Note_on_c, 0, 78, 79
1, 1233250, Note_off_c, 0, 58, 59
1, 1233321, Note_on_c, 0, 85, 75
1, 1233362, Note_off_c, 0, 78, 52
1, 1233399, Note_on_c, 0, 77, 69
1, 1233455, Note_off_c, 0, 85, 50
1, 1233493, Note_off_c, 0, 66, 35
1, 1233506, Note_on_c, 0, 64, 41
1, 1233509, Note_on_c, 0, 59, 35
1, 1233515, Note_off_c, 0, 77, 59
1, 1233530, Note_on_c, 0, 78, 56
1, 1233568, Control_c, 0, 64, 95
1, 1233583, Control_c, 0, 64, 81
1, 1233595, Note_off_c, 0, 78, 54
1, 1233598, Control_c, 0, 64, 71
1, 1233613, Control_c, 0, 64, 62
1, 1233627, Control_c, 0, 64, 52
1, 1233630, Note_on_c, 0, 77, 57
1, 1233642, Control_c, 0, 64, 44
1, 1233657, Control_c, 0, 64, 40
1, 1233672, Control_c, 0, 64, 39
1, 1233680, Note_off_c, 0, 77, 51
1, 1233687, Control_c, 0, 64, 39
1, 1233702, Control_c, 0, 64, 38
1, 1233714, Note_on_c, 0, 78, 62
1, 1233717, Control_c, 0, 64, 37
1, 1233732, Control_c, 0, 64, 37
1, 1233747, Control_c, 0, 64, 36
1, 1233788, Note_off_c, 0, 78, 60
1, 1233820, Note_on_c, 0, 79, 47
1, 1233821, Note_on_c, 0, 63, 41
1, 1233840, Note_off_c, 0, 64, 38
1, 1233887, Note_off_c, 0, 79, 58
1, 1233894, Note_off_c, 0, 59, 35
1, 1233914, Note_on_c, 0, 80, 47
1, 1233940, Control_c, 0, 64, 36
1, 1233955, Note_off_c, 0, 63, 57
1, 1234006, Note_on_c, 0, 82, 49
1, 1234032, Note_off_c, 0, 80, 36
1, 1234110, Note_off_c, 0, 82, 48
1, 1234153, Note_on_c, 0, 59, 35
1, 1234161, Note_on_c, 0, 83, 46
1, 1234176, Control_c, 0, 64, 38
1, 1234191, Control_c, 0, 64, 43
1, 1234206, Control_c, 0, 64, 51
1, 1234221, Control_c, 0, 64, 58
1, 1234242, Control_c, 0, 64, 63
1, 1234257, Control_c, 0, 64, 70
1, 1234272, Control_c, 0, 64, 79
1, 1234287, Control_c, 0, 64, 94
1, 1234302, Control_c, 0, 64, 127
1, 1234368, Note_off_c, 0, 83, 36
1, 1234420, Control_c, 0, 67, 108
1, 1234435, Control_c, 0, 67, 71
1, 1234450, Control_c, 0, 67, 34
1, 1234465, Control_c, 0, 67, 0
1, 1234633, Note_off_c, 0, 59, 57
1, 1234651, Note_on_c, 0, 61, 58
1, 1234748, Note_off_c, 0, 61, 60
1, 1234777, Note_on_c, 0, 62, 73
1, 1234806, Control_c, 0, 64, 86
1, 1234821, Control_c, 0, 64, 70
1, 1234836, Control_c, 0, 64, 57
1, 1234851, Control_c, 0, 64, 0
1, 1234927, Note_on_c, 0, 54, 58
1, 1234940, Note_on_c, 0, 74, 67
1, 1234973, Note_off_c, 0, 54, 59
1, 1234989, Note_off_c, 0, 74, 58
1, 1235096, Control_c, 0, 64, 43
1, 1235105, Note_on_c, 0, 56, 52
1, 1235105, Note_on_c, 0, 76, 54
1, 1235111, Control_c, 0, 64, 58
1, 1235126, Control_c, 0, 64, 64
1, 1235140, Control_c, 0, 64, 67
1, 1235145, Note_off_c, 0, 56, 60
1, 1235148, Note_off_c, 0, 76, 58
1, 1235155, Control_c, 0, 64, 70
1, 1235170, Control_c, 0, 64, 73
1, 1235184, Control_c, 0, 64, 77
1, 1235199, Control_c, 0, 64, 82
1, 1235214, Control_c, 0, 64, 86
1, 1235216, Note_off_c, 0, 62, 36
1, 1235229, Control_c, 0, 64, 89
1, 1235234, Note_on_c, 0, 57, 54
1, 1235235, Note_on_c, 0, 78, 58
1, 1235244, Control_c, 0, 64, 91
1, 1235258, Control_c, 0, 64, 92
1, 1235269, Note_off_c, 0, 78, 58
1, 1235273, Control_c, 0, 64, 93
1, 1235275, Note_off_c, 0, 57, 63
1, 1235288, Control_c, 0, 64, 94
1, 1235303, Control_c, 0, 64, 95
1, 1235318, Control_c, 0, 64, 95
1, 1235378, Control_c, 0, 64, 95
1, 1235393, Control_c, 0, 64, 89
1, 1235407, Note_on_c, 0, 64, 46
1, 1235407, Control_c, 0, 64, 75
1, 1235408, Note_on_c, 0, 56, 46
1, 1235422, Note_on_c, 0, 76, 54
1, 1235422, Control_c, 0, 64, 63
1, 1235437, Control_c, 0, 64, 46
1, 1235452, Control_c, 0, 64, 0
1, 1235471, Note_off_c, 0, 64, 0
1, 1235471, Note_on_c, 0, 64, 3
1, 1235482, Control_c, 0, 64, 37
1, 1235496, Control_c, 0, 64, 51
1, 1235511, Note_on_c, 0, 80, 70
1, 1235511, Control_c, 0, 64, 58
1, 1235526, Control_c, 0, 64, 62
1, 1235541, Control_c, 0, 64, 67
1, 1235546, Note_off_c, 0, 76, 62
1, 1235556, Control_c, 0, 64, 75
1, 1235571, Control_c, 0, 64, 84
1, 1235586, Control_c, 0, 64, 93
1, 1235601, Control_c, 0, 64, 102
1, 1235615, Control_c, 0, 64, 111
1, 1235617, Note_on_c, 0, 81, 78
1, 1235630, Control_c, 0, 64, 127
1, 1235640, Note_off_c, 0, 56, 32
1, 1235690, Note_off_c, 0, 80, 58
1, 1235705, Note_on_c, 0, 83, 80
1, 1235747, Note_off_c, 0, 81, 59
1, 1235806, Note_on_c, 0, 80, 70
1, 1235830, Note_off_c, 0, 83, 53
1, 1235869, Note_off_c, 0, 80, 61
1, 1235897, Note_on_c, 0, 74, 72
1, 1235981, Note_off_c, 0, 74, 33
1, 1235993, Control_c, 0, 64, 117
1, 1235994, Note_on_c, 0, 57, 37
1, 1236001, Note_on_c, 0, 73, 61
1, 1236007, Control_c, 0, 64, 105
1, 1236022, Control_c, 0, 64, 97
1, 1236037, Control_c, 0, 64, 89
1, 1236052, Control_c, 0, 64, 81
1, 1236063, Note_off_c, 0, 64, 38
1, 1236067, Control_c, 0, 64, 73
1, 1236081, Control_c, 0, 64, 66
1, 1236087, Note_off_c, 0, 73, 59
1, 1236096, Control_c, 0, 64, 57
1, 1236097, Note_on_c, 0, 71, 53
1, 1236111, Control_c, 0, 64, 48
1, 1236126, Control_c, 0, 64, 43
1, 1236140, Control_c, 0, 64, 41
1, 1236157, Control_c, 0, 64, 38
1, 1236172, Control_c, 0, 64, 0
1, 1236185, Note_off_c, 0, 71, 60
1, 1236197, Note_on_c, 0, 73, 61
1, 1236295, Note_on_c, 0, 74, 65
1, 1236301, Note_off_c, 0, 73, 60
1, 1236401, Note_on_c, 0, 73, 63
1, 1236415, Note_on_c, 0, 59, 39
1, 1236427, Note_off_c, 0, 74, 52
1, 1236470, Note_off_c, 0, 73, 61
1, 1236514, Note_on_c, 0, 74, 59
1, 1236560, Note_off_c, 0, 59, 57
1, 1236609, Note_on_c, 0, 61, 41
1, 1236618, Note_off_c, 0, 74, 55
1, 1236625, Note_on_c, 0, 76, 58
1, 1236698, Control_c, 0, 64, 40
1, 1236712, Control_c, 0, 64, 50
1, 1236719, Note_on_c, 0, 78, 64
1, 1236727, Control_c, 0, 64, 56
1, 1236742, Control_c, 0, 64, 60
1, 1236742, Note_off_c, 0, 76, 43
1, 1236756, Control_c, 0, 64, 63
1, 1236771, Control_c, 0, 64, 67
1, 1236786, Control_c, 0, 64, 71
1, 1236801, Control_c, 0, 64, 77
1, 1236804, Note_on_c, 0, 80, 59
1, 1236816, Control_c, 0, 64, 82
1, 1236826, Note_off_c, 0, 61, 55
1, 1236829, Note_off_c, 0, 57, 37
1, 1236830, Control_c, 0, 64, 88
1, 1236845, Control_c, 0, 64, 93
1, 1236853, Note_off_c, 0, 78, 57
1, 1236860, Control_c, 0, 64, 99
1, 1236875, Control_c, 0, 64, 105
1, 1236884, Note_on_c, 0, 81, 72
1, 1236888, Note_off_c, 0, 80, 60
1, 1236890, Control_c, 0, 64, 111
1, 1236904, Control_c, 0, 64, 114
1, 1236971, Note_on_c, 0, 76, 70
1, 1236994, Note_off_c, 0, 81, 34
1, 1237052, Note_off_c, 0, 76, 58
1, 1237065, Note_on_c, 0, 73, 50
1, 1237098, Control_c, 0, 64, 103
1, 1237113, Control_c, 0, 64, 89
1, 1237127, Control_c, 0, 64, 74
1, 1237141, Note_off_c, 0, 73, 55
1, 1237142, Control_c, 0, 64, 62
1, 1237157, Control_c, 0, 64, 46
1, 1237172, Control_c, 0, 64, 42
1, 1237185, Note_on_c, 0, 78, 49
1, 1237187, Control_c, 0, 64, 51
1, 1237191, Note_on_c, 0, 59, 34
1, 1237193, Note_on_c, 0, 50, 31
1, 1237202, Control_c, 0, 64, 58
1, 1237217, Control_c, 0, 64, 63
1, 1237240, Control_c, 0, 64, 68
1, 1237255, Control_c, 0, 64, 73
1, 1237262, Note_off_c, 0, 78, 44
1, 1237269, Control_c, 0, 64, 78
1, 1237284, Control_c, 0, 64, 82
1, 1237291, Note_on_c, 0, 71, 44
1, 1237299, Control_c, 0, 64, 86
1, 1237314, Control_c, 0, 64, 88
1, 1237329, Control_c, 0, 64, 91
1, 1237343, Control_c, 0, 64, 95
1, 1237358, Control_c, 0, 64, 98
1, 1237364, Note_off_c, 0, 59, 30
1, 1237373, Control_c, 0, 64, 101
1, 1237387, Control_c, 0, 64, 104
1, 1237398, Note_on_c, 0, 78, 49
1, 1237447, Control_c, 0, 64, 98
1, 1237460, Note_off_c, 0, 71, 31
1, 1237461, Control_c, 0, 64, 83
1, 1237476, Control_c, 0, 64, 70
1, 1237478, Note_off_c, 0, 78, 41
1, 1237491, Control_c, 0, 64, 62
1, 1237506, Control_c, 0, 64, 63
1, 1237512, Note_on_c, 0, 59, 49
1, 1237512, Note_on_c, 0, 81, 57
1, 1237521, Control_c, 0, 64, 66
1, 1237523, Note_off_c, 0, 50, 52
1, 1237535, Control_c, 0, 64, 72
1, 1237550, Control_c, 0, 64, 82
1, 1237565, Control_c, 0, 64, 98
1, 1237580, Control_c, 0, 64, 127
1, 1237588, Note_off_c, 0, 59, 51
1, 1237607, Note_off_c, 0, 81, 39
1, 1237622, Note_on_c, 0, 71, 47
1, 1237677, Note_off_c, 0, 71, 53
1, 1237720, Note_on_c, 0, 81, 54
1, 1237789, Control_c, 0, 64, 90
1, 1237803, Control_c, 0, 64, 68
1, 1237812, Note_on_c, 0, 59, 71
1, 1237818, Control_c, 0, 64, 49
1, 1237819, Note_on_c, 0, 52, 57
1, 1237828, Note_on_c, 0, 80, 58
1, 1237833, Control_c, 0, 64, 38
1, 1237848, Control_c, 0, 64, 50
1, 1237851, Note_off_c, 0, 81, 36
1, 1237863, Control_c, 0, 64, 61
1, 1237877, Control_c, 0, 64, 69
1, 1237882, Note_off_c, 0, 80, 55
1, 1237892, Control_c, 0, 64, 80
1, 1237907, Control_c, 0, 64, 91
1, 1237917, Note_on_c, 0, 71, 65
1, 1237922, Control_c, 0, 64, 99
1, 1237936, Control_c, 0, 64, 109
1, 1237950, Control_c, 0, 64, 127
1, 1237989, Note_off_c, 0, 71, 62
1, 1238013, Note_on_c, 0, 80, 73
1, 1238091, Control_c, 0, 64, 86
1, 1238103, Note_off_c, 0, 80, 59
1, 1238105, Note_on_c, 0, 62, 86
1, 1238105, Note_off_c, 0, 59, 53
1, 1238106, Control_c, 0, 64, 67
1, 1238114, Note_on_c, 0, 83, 74
1, 1238121, Control_c, 0, 64, 55
1, 1238135, Control_c, 0, 64, 57
1, 1238150, Control_c, 0, 64, 62
1, 1238165, Control_c, 0, 64, 69
1, 1238180, Control_c, 0, 64, 80
1, 1238195, Control_c, 0, 64, 101
1, 1238209, Control_c, 0, 64, 127
1, 1238212, Note_on_c, 0, 80, 76
1, 1238238, Note_off_c, 0, 83, 59
1, 1238313, Note_off_c, 0, 62, 47
1, 1238313, Note_off_c, 0, 80, 61
1, 1238329, Note_on_c, 0, 83, 73
1, 1238347, Note_on_c, 0, 61, 67
1, 1238368, Note_off_c, 0, 61, 63
1, 1238403, Control_c, 0, 64, 103
1, 1238417, Control_c, 0, 64, 74
1, 1238432, Note_on_c, 0, 61, 78
1, 1238432, Note_off_c, 0, 83, 62
1, 1238432, Control_c, 0, 64, 57
1, 1238433, Note_on_c, 0, 81, 73
1, 1238440, Note_off_c, 0, 52, 48
1, 1238447, Control_c, 0, 64, 0
1, 1238485, Note_on_c, 0, 57, 42
1, 1238491, Control_c, 0, 64, 37
1, 1238506, Control_c, 0, 64, 51
1, 1238521, Control_c, 0, 64, 62
1, 1238528, Note_on_c, 0, 83, 73
1, 1238535, Control_c, 0, 64, 70
1, 1238551, Note_off_c, 0, 81, 50
1, 1238551, Control_c, 0, 64, 80
1, 1238566, Control_c, 0, 64, 93
1, 1238581, Control_c, 0, 64, 116
1, 1238596, Control_c, 0, 64, 127
1, 1238619, Note_on_c, 0, 80, 80
1, 1238635, Note_off_c, 0, 83, 57
1, 1238672, Note_off_c, 0, 80, 63
1, 1238706, Note_on_c, 0, 81, 89
1, 1238737, Control_c, 0, 67, 19
1, 1238766, Control_c, 0, 67, 21
1, 1238796, Note_on_c, 0, 83, 89
1, 1238811, Note_off_c, 0, 81, 62
1, 1238840, Control_c, 0, 67, 23
1, 1238853, Note_off_c, 0, 83, 61
1, 1238870, Control_c, 0, 67, 25
1, 1238887, Note_on_c, 0, 84, 95
1, 1238900, Control_c, 0, 67, 27
1, 1238929, Control_c, 0, 67, 29
1, 1238984, Note_on_c, 0, 64, 88
1, 1238986, Note_on_c, 0, 85, 84
1, 1238988, Control_c, 0, 64, 95
1, 1238998, Note_off_c, 0, 84, 57
1, 1239003, Control_c, 0, 64, 69
1, 1239003, Control_c, 0, 67, 31
1, 1239012, Note_off_c, 0, 61, 59
1, 1239018, Control_c, 0, 64, 51
1, 1239032, Control_c, 0, 64, 42
1, 1239032, Control_c, 0, 67, 32
1, 1239047, Control_c, 0, 64, 50
1, 1239059, Note_off_c, 0, 85, 64
1, 1239062, Control_c, 0, 64, 58
1, 1239062, Control_c, 0, 67, 33
1, 1239077, Control_c, 0, 64, 64
1, 1239077, Control_c, 0, 67, 33
1, 1239080, Note_on_c, 0, 86, 86
1, 1239092, Control_c, 0, 64, 78
1, 1239092, Control_c, 0, 67, 35
1, 1239106, Control_c, 0, 64, 119
1, 1239106, Control_c, 0, 67, 41
1, 1239121, Control_c, 0, 64, 127
1, 1239121, Control_c, 0, 67, 52
1, 1239136, Control_c, 0, 67, 65
1, 1239137, Note_off_c, 0, 64, 60
1, 1239151, Control_c, 0, 67, 80
1, 1239166, Control_c, 0, 67, 94
1, 1239172, Note_on_c, 0, 88, 82
1, 1239181, Control_c, 0, 67, 104
1, 1239187, Note_off_c, 0, 86, 59
1, 1239196, Control_c, 0, 67, 110
1, 1239211, Control_c, 0, 67, 115
1, 1239226, Control_c, 0, 67, 118
1, 1239259, Note_on_c, 0, 90, 80
1, 1239329, Note_off_c, 0, 88, 63
1, 1239344, Control_c, 0, 67, 116
1, 1239354, Note_on_c, 0, 62, 60
1, 1239358, Note_on_c, 0, 92, 67
1, 1239412, Note_off_c, 0, 62, 57
1, 1239426, Note_off_c, 0, 90, 60
1, 1239427, Note_on_c, 0, 93, 67
1, 1239442, Note_on_c, 0, 61, 57
1, 1239447, Note_off_c, 0, 92, 64
1, 1239451, Note_off_c, 0, 93, 69
1, 1239462, Control_c, 0, 67, 114
1, 1239464, Note_off_c, 0, 61, 63
1, 1239481, Note_off_c, 0, 57, 42
1, 1239529, Control_c, 0, 64, 96
1, 1239544, Control_c, 0, 64, 69
1, 1239559, Control_c, 0, 64, 48
1, 1239574, Note_on_c, 0, 59, 49
1, 1239574, Control_c, 0, 64, 34
1, 1239574, Control_c, 0, 67, 111
1, 1239578, Note_on_c, 0, 50, 47
1, 1239588, Control_c, 0, 64, 50
1, 1239589, Note_on_c, 0, 78, 56
1, 1239603, Control_c, 0, 64, 61
1, 1239603, Control_c, 0, 67, 107
1, 1239618, Control_c, 0, 64, 69
1, 1239618, Control_c, 0, 67, 104
1, 1239633, Control_c, 0, 64, 82
1, 1239633, Control_c, 0, 67, 96
1, 1239648, Control_c, 0, 64, 101
1, 1239648, Control_c, 0, 67, 84
1, 1239659, Note_off_c, 0, 78, 58
1, 1239662, Control_c, 0, 64, 127
1, 1239662, Control_c, 0, 67, 65
1, 1239665, Note_off_c, 0, 50, 59
1, 1239670, Note_off_c, 0, 59, 59
1, 1239677, Control_c, 0, 67, 50
1, 1239692, Control_c, 0, 67, 40
1, 1239700, Note_on_c, 0, 71, 57
1, 1239707, Control_c, 0, 67, 35
1, 1239722, Control_c, 0, 67, 31
1, 1239736, Control_c, 0, 67, 28
1, 1239751, Control_c, 0, 67, 24
1, 1239766, Control_c, 0, 67, 0
1, 1239785, Note_on_c, 0, 78, 56
1, 1239810, Note_off_c, 0, 71, 36
1, 1239855, Control_c, 0, 64, 98
1, 1239869, Control_c, 0, 64, 73
1, 1239877, Note_on_c, 0, 51, 48
1, 1239881, Note_on_c, 0, 59, 48
1, 1239881, Note_on_c, 0, 81, 63
1, 1239881, Note_off_c, 0, 78, 50
1, 1239884, Control_c, 0, 64, 56
1, 1239899, Control_c, 0, 64, 53
1, 1239914, Control_c, 0, 64, 59
1, 1239929, Control_c, 0, 64, 65
1, 1239944, Control_c, 0, 64, 72
1, 1239956, Note_off_c, 0, 51, 54
1, 1239959, Control_c, 0, 64, 85
1, 1239966, Note_off_c, 0, 81, 48
1, 1239973, Control_c, 0, 64, 104
1, 1239985, Note_on_c, 0, 71, 51
1, 1239988, Control_c, 0, 64, 127
1, 1239995, Note_off_c, 0, 59, 53
1, 1240033, Note_off_c, 0, 71, 60
1, 1240091, Note_on_c, 0, 81, 53
1, 1240152, Control_c, 0, 64, 106
1, 1240167, Control_c, 0, 64, 76
1, 1240181, Note_on_c, 0, 59, 49
1, 1240182, Control_c, 0, 64, 56
1, 1240184, Note_on_c, 0, 80, 57
1, 1240190, Note_off_c, 0, 81, 37
1, 1240193, Note_on_c, 0, 52, 38
1, 1240197, Control_c, 0, 64, 46
1, 1240211, Control_c, 0, 64, 54
1, 1240233, Control_c, 0, 64, 62
1, 1240248, Control_c, 0, 64, 70
1, 1240252, Note_off_c, 0, 80, 57
1, 1240263, Control_c, 0, 64, 81
1, 1240278, Control_c, 0, 64, 98
1, 1240281, Note_on_c, 0, 71, 64
1, 1240293, Control_c, 0, 64, 127
1, 1240367, Note_on_c, 0, 80, 69
1, 1240370, Note_off_c, 0, 71, 36
1, 1240397, Control_c, 0, 64, 91
1, 1240411, Control_c, 0, 64, 68
1, 1240426, Control_c, 0, 64, 49
1, 1240441, Control_c, 0, 64, 36
1, 1240445, Note_off_c, 0, 59, 63
1, 1240456, Control_c, 0, 64, 46
1, 1240462, Note_off_c, 0, 80, 53
1, 1240471, Note_on_c, 0, 83, 63
1, 1240471, Control_c, 0, 64, 57
1, 1240480, Note_on_c, 0, 62, 57
1, 1240485, Control_c, 0, 64, 66
1, 1240500, Control_c, 0, 64, 77
1, 1240515, Control_c, 0, 64, 96
1, 1240524, Note_off_c, 0, 83, 53
1, 1240529, Control_c, 0, 64, 127
1, 1240570, Note_on_c, 0, 80, 67
1, 1240622, Note_off_c, 0, 80, 54
1, 1240623, Note_off_c, 0, 52, 40
1, 1240628, Note_off_c, 0, 62, 48
1, 1240668, Note_on_c, 0, 88, 74
1, 1240670, Note_on_c, 0, 61, 62
1, 1240690, Note_off_c, 0, 61, 62
1, 1240752, Control_c, 0, 64, 94
1, 1240767, Control_c, 0, 64, 69
1, 1240776, Note_on_c, 0, 85, 62
1, 1240780, Note_off_c, 0, 88, 43
1, 1240782, Control_c, 0, 64, 44
1, 1240796, Control_c, 0, 64, 0
1, 1240800, Note_on_c, 0, 57, 57
1, 1240811, Control_c, 0, 64, 36
1, 1240814, Note_on_c, 0, 45, 52
1, 1240826, Control_c, 0, 64, 50
1, 1240841, Control_c, 0, 64, 59
1, 1240856, Control_c, 0, 64, 67
1, 1240859, Note_on_c, 0, 81, 64
1, 1240859, Note_off_c, 0, 57, 0
1, 1240870, Control_c, 0, 64, 81
1, 1240877, Note_off_c, 0, 85, 51
1, 1240885, Control_c, 0, 64, 127
1, 1240896, Poly_aftertouch_c, 0, 57, 127
1, 1240910, Note_off_c, 0, 81, 60
1, 1240956, Note_on_c, 0, 76, 63
1, 1241002, Note_off_c, 0, 76, 58
1, 1241081, Note_on_c, 0, 73, 48
1, 1241132, Note_off_c, 0, 73, 55
1, 1241150, Note_on_c, 0, 74, 70
1, 1241210, Poly_aftertouch_c, 0, 57, 0
1, 1241250, Note_off_c, 0, 74, 55
1, 1241259, Note_on_c, 0, 71, 52
1, 1241261, Note_off_c, 0, 45, 38
1, 1241336, Note_off_c, 0, 71, 54
1, 1241363, Note_on_c, 0, 69, 66
1, 1241367, Control_c, 0, 64, 108
1, 1241382, Control_c, 0, 64, 80
1, 1241397, Control_c, 0, 64, 66
1, 1241412, Control_c, 0, 64, 53
1, 1241426, Control_c, 0, 64, 36
1, 1241441, Control_c, 0, 64, 0
1, 1241547, Note_on_c, 0, 44, 73
1, 1241591, Note_off_c, 0, 44, 57
1, 1241700, Note_on_c, 0, 45, 91
1, 1241761, Control_c, 0, 64, 34
1, 1241772, Note_off_c, 0, 45, 62
1, 1241775, Control_c, 0, 64, 57
1, 1241785, Note_off_c, 0, 69, 60
1, 1241790, Control_c, 0, 64, 72
1, 1241805, Control_c, 0, 64, 84
1, 1241820, Control_c, 0, 64, 125
1, 1241835, Control_c, 0, 64, 127
1, 1241857, Note_on_c, 0, 47, 102
1, 1241933, Note_off_c, 0, 47, 51
1, 1242018, Poly_aftertouch_c, 0, 81, 127
1, 1242057, Poly_aftertouch_c, 0, 81, 0
1, 1242058, Note_on_c, 0, 45, 88
1, 1242062, Note_on_c, 0, 48, 79
1, 1242087, Control_c, 0, 64, 98
1, 1242092, Note_on_c, 0, 84, 83
1, 1242101, Control_c, 0, 64, 77
1, 1242116, Control_c, 0, 64, 62
1, 1242131, Control_c, 0, 64, 33
1, 1242146, Control_c, 0, 64, 0
1, 1242181, Note_on_c, 0, 86, 85
1, 1242249, Control_c, 0, 64, 51
1, 1242260, Note_off_c, 0, 84, 37
1, 1242264, Control_c, 0, 64, 65
1, 1242274, Note_on_c, 0, 88, 92
1, 1242279, Control_c, 0, 64, 75
1, 1242294, Control_c, 0, 64, 85
1, 1242301, Note_off_c, 0, 86, 63
1, 1242308, Control_c, 0, 64, 97
1, 1242323, Control_c, 0, 64, 118
1, 1242338, Control_c, 0, 64, 127
1, 1242367, Note_on_c, 0, 86, 84
1, 1242374, Note_on_c, 0, 52, 80
1, 1242394, Note_off_c, 0, 48, 64
1, 1242451, Note_on_c, 0, 84, 95
1, 1242478, Note_off_c, 0, 88, 62
1, 1242558, Note_on_c, 0, 83, 95
1, 1242621, Note_off_c, 0, 86, 54
1, 1242652, Note_on_c, 0, 48, 58
1, 1242654, Note_on_c, 0, 81, 93
1, 1242663, Note_off_c, 0, 83, 64
1, 1242673, Note_off_c, 0, 84, 35
1, 1242688, Control_c, 0, 64, 82
1, 1242703, Control_c, 0, 64, 61
1, 1242718, Control_c, 0, 64, 0
1, 1242747, Note_on_c, 0, 83, 95
1, 1242747, Control_c, 0, 64, 51
1, 1242762, Control_c, 0, 64, 66
1, 1242770, Note_off_c, 0, 81, 64
1, 1242777, Control_c, 0, 64, 85
1, 1242792, Control_c, 0, 64, 127
1, 1242839, Note_on_c, 0, 84, 92
1, 1242883, Note_off_c, 0, 45, 57
1, 1242926, Note_off_c, 0, 83, 61
1, 1242938, Note_on_c, 0, 57, 90
1, 1242944, Note_on_c, 0, 81, 91
1, 1242947, Note_off_c, 0, 84, 62
1, 1242996, Note_off_c, 0, 81, 63
1, 1243036, Note_on_c, 0, 79, 85
1, 1243119, Note_on_c, 0, 77, 88
1, 1243162, Note_off_c, 0, 79, 60
1, 1243224, Note_off_c, 0, 77, 56
1, 1243225, Note_on_c, 0, 76, 81
1, 1243233, Note_on_c, 0, 47, 75
1, 1243267, Note_off_c, 0, 48, 61
1, 1243273, Control_c, 0, 64, 93
1, 1243280, Note_off_c, 0, 52, 60
1, 1243288, Control_c, 0, 64, 69
1, 1243303, Control_c, 0, 64, 39
1, 1243318, Control_c, 0, 64, 0
1, 1243321, Note_on_c, 0, 75, 75
1, 1243324, Note_off_c, 0, 76, 56
1, 1243408, Control_c, 0, 64, 47
1, 1243414, Note_off_c, 0, 75, 62
1, 1243421, Note_on_c, 0, 76, 76
1, 1243423, Control_c, 0, 64, 61
1, 1243438, Control_c, 0, 64, 66
1, 1243453, Control_c, 0, 64, 66
1, 1243467, Control_c, 0, 64, 64
1, 1243482, Control_c, 0, 64, 56
1, 1243497, Control_c, 0, 64, 40
1, 1243512, Control_c, 0, 64, 0
1, 1243526, Note_off_c, 0, 76, 57
1, 1243532, Note_on_c, 0, 77, 65
1, 1243548, Note_on_c, 0, 56, 75
1, 1243571, Control_c, 0, 64, 37
1, 1243586, Control_c, 0, 64, 58
1, 1243596, Note_off_c, 0, 57, 61
1, 1243601, Control_c, 0, 64, 68
1, 1243616, Control_c, 0, 64, 75
1, 1243621, Note_off_c, 0, 47, 63
1, 1243630, Control_c, 0, 64, 83
1, 1243640, Note_on_c, 0, 76, 73
1, 1243645, Control_c, 0, 64, 87
1, 1243660, Control_c, 0, 64, 91
1, 1243674, Control_c, 0, 64, 97
1, 1243679, Note_off_c, 0, 77, 52
1, 1243689, Control_c, 0, 64, 105
1, 1243704, Control_c, 0, 64, 118
1, 1243719, Control_c, 0, 64, 127
1, 1243736, Note_on_c, 0, 74, 76
1, 1243801, Note_off_c, 0, 76, 58
1, 1243808, Control_c, 0, 64, 98
1, 1243822, Control_c, 0, 64, 76
1, 1243824, Note_off_c, 0, 56, 61
1, 1243828, Note_on_c, 0, 48, 63
1, 1243830, Note_off_c, 0, 74, 61
1, 1243831, Note_on_c, 0, 57, 61
1, 1243837, Control_c, 0, 64, 59
1, 1243847, Note_on_c, 0, 72, 67
1, 1243852, Control_c, 0, 64, 0
1, 1243890, Note_off_c, 0, 72, 58
1, 1243912, Control_c, 0, 64, 43
1, 1243926, Control_c, 0, 64, 60
1, 1243936, Note_on_c, 0, 71, 73
1, 1243941, Control_c, 0, 64, 68
1, 1243956, Control_c, 0, 64, 77
1, 1243978, Control_c, 0, 64, 91
1, 1243993, Control_c, 0, 64, 105
1, 1244008, Control_c, 0, 64, 127
1, 1244014, Note_off_c, 0, 48, 59
1, 1244024, Note_off_c, 0, 57, 62
1, 1244030, Note_on_c, 0, 69, 79
1, 1244076, Note_off_c, 0, 71, 52
1, 1244111, Note_on_c, 0, 68, 86
1, 1244140, Note_off_c, 0, 69, 57
1, 1244203, Note_off_c, 0, 68, 62
1, 1244206, Note_on_c, 0, 71, 82
1, 1244290, Note_on_c, 0, 69, 84
1, 1244365, Control_c, 0, 64, 90
1, 1244379, Control_c, 0, 64, 70
1, 1244389, Note_off_c, 0, 71, 54
1, 1244394, Control_c, 0, 64, 53
1, 1244409, Note_on_c, 0, 50, 77
1, 1244409, Control_c, 0, 64, 0
1, 1244413, Note_on_c, 0, 59, 76
1, 1244425, Note_on_c, 0, 65, 89
1, 1244452, Note_off_c, 0, 69, 58
1, 1244468, Control_c, 0, 64, 46
1, 1244483, Control_c, 0, 64, 63
1, 1244497, Control_c, 0, 64, 78
1, 1244512, Control_c, 0, 64, 115
1, 1244526, Note_off_c, 0, 65, 61
1, 1244527, Control_c, 0, 64, 127
1, 1244530, Note_on_c, 0, 69, 89
1, 1244596, Note_off_c, 0, 69, 63
1, 1244620, Note_on_c, 0, 81, 98
1, 1244627, Note_off_c, 0, 59, 59
1, 1244707, Note_on_c, 0, 69, 93
1, 1244720, Note_off_c, 0, 81, 62
1, 1244737, Note_off_c, 0, 50, 50
1, 1244795, Note_off_c, 0, 69, 63
1, 1244815, Note_on_c, 0, 81, 96
1, 1244824, Note_on_c, 0, 59, 91
1, 1244869, Note_off_c, 0, 59, 62
1, 1244883, Note_off_c, 0, 81, 61
1, 1244908, Note_on_c, 0, 69, 85
1, 1244979, Control_c, 0, 64, 77
1, 1244986, Note_on_c, 0, 51, 94
1, 1244986, Note_on_c, 0, 60, 99
1, 1244994, Control_c, 0, 64, 50
1, 1245009, Control_c, 0, 64, 0
1, 1245009, Note_on_c, 0, 66, 90
1, 1245019, Note_off_c, 0, 69, 63
1, 1245053, Control_c, 0, 64, 41
1, 1245059, Note_off_c, 0, 66, 62
1, 1245068, Control_c, 0, 64, 63
1, 1245083, Control_c, 0, 64, 74
1, 1245093, Note_on_c, 0, 69, 87
1, 1245098, Control_c, 0, 64, 92
1, 1245113, Control_c, 0, 64, 127
1, 1245155, Note_off_c, 0, 69, 61
1, 1245183, Note_on_c, 0, 81, 101
1, 1245215, Note_off_c, 0, 60, 57
1, 1245249, Note_off_c, 0, 51, 52
1, 1245268, Note_on_c, 0, 58, 95
1, 1245286, Note_on_c, 0, 69, 95
1, 1245289, Note_on_c, 0, 57, 89
1, 1245289, Note_off_c, 0, 58, 63
1, 1245313, Note_off_c, 0, 57, 68
1, 1245348, Note_off_c, 0, 81, 40
1, 1245357, Note_off_c, 0, 69, 66
1, 1245375, Note_on_c, 0, 72, 94
1, 1245414, Note_off_c, 0, 72, 66
1, 1245488, Note_on_c, 0, 84, 100
1, 1245590, Note_on_c, 0, 52, 89
1, 1245590, Note_on_c, 0, 57, 102
1, 1245594, Control_c, 0, 64, 73
1, 1245595, Note_on_c, 0, 72, 100
1, 1245608, Note_off_c, 0, 84, 0
1, 1245609, Control_c, 0, 64, 0
1, 1245636, Note_on_c, 0, 83, 31
1, 1245645, Poly_aftertouch_c, 0, 84, 127
1, 1245668, Control_c, 0, 64, 55
1, 1245683, Control_c, 0, 64, 72
1, 1245690, Note_on_c, 0, 76, 93
1, 1245698, Control_c, 0, 64, 101
1, 1245711, Note_off_c, 0, 72, 61
1, 1245713, Control_c, 0, 64, 127
1, 1245717, Note_off_c, 0, 83, 33
1, 1245719, Poly_aftertouch_c, 0, 84, 0
1, 1245789, Note_on_c, 0, 80, 88
1, 1245807, Note_off_c, 0, 76, 64
1, 1245833, Note_off_c, 0, 80, 66
1, 1245834, Note_on_c, 0, 53, 5
1, 1245881, Note_on_c, 0, 81, 103
1, 1245887, Note_off_c, 0, 53, 47
1, 1245971, Note_on_c, 0, 83, 99
1, 1245982, Note_off_c, 0, 81, 66
1, 1246066, Note_on_c, 0, 84, 102
1, 1246087, Note_off_c, 0, 83, 65
1, 1246112, Note_off_c, 0, 57, 57
1, 1246117, Note_off_c, 0, 52, 55
1, 1246144, Note_on_c, 0, 56, 78
1, 1246163, Note_on_c, 0, 83, 102
1, 1246168, Note_off_c, 0, 56, 69
1, 1246189, Note_off_c, 0, 84, 64
1, 1246272, Note_on_c, 0, 84, 100
1, 1246290, Note_off_c, 0, 83, 66
1, 1246305, Note_on_c, 0, 50, 104
1, 1246312, Note_off_c, 0, 84, 68
1, 1246347, Note_off_c, 0, 50, 65
1, 1246360, Note_on_c, 0, 86, 99
1, 1246432, Control_c, 0, 64, 78
1, 1246447, Control_c, 0, 64, 58
1, 1246451, Note_on_c, 0, 48, 89
1, 1246457, Note_on_c, 0, 88, 95
1, 1246462, Control_c, 0, 64, 0
1, 1246466, Note_off_c, 0, 86, 61
1, 1246496, Note_off_c, 0, 48, 66
1, 1246546, Note_on_c, 0, 90, 90
1, 1246565, Note_off_c, 0, 88, 62
1, 1246573, Note_on_c, 0, 47, 85
1, 1246596, Note_off_c, 0, 47, 68
1, 1246628, Note_on_c, 0, 92, 80
1, 1246655, Control_c, 0, 64, 57
1, 1246668, Note_off_c, 0, 90, 50
1, 1246670, Control_c, 0, 64, 79
1, 1246685, Control_c, 0, 64, 127
1, 1246696, Note_off_c, 0, 92, 66
1, 1246712, Note_on_c, 0, 45, 106
1, 1246716, Note_on_c, 0, 93, 104
1, 1246720, Note_on_c, 0, 33, 88
1, 1246741, Note_off_c, 0, 33, 66
1, 1246743, Note_off_c, 0, 45, 61
1, 1246746, Note_on_c, 0, 91, 43
1, 1246746, Note_off_c, 0, 91, 127
1, 1246749, Note_on_c, 0, 34, 33
1, 1246755, Note_off_c, 0, 93, 69
1, 1246774, Poly_aftertouch_c, 0, 91, 0
1, 1246789, Note_off_c, 0, 34, 50
1, 1246800, Poly_aftertouch_c, 0, 39, 0
1, 1246804, Poly_aftertouch_c, 0, 37, 0
1, 1246834, Poly_aftertouch_c, 0, 39, 0
1, 1246840, Poly_aftertouch_c, 0, 37, 0
1, 1246848, Control_c, 0, 64, 91
1, 1246863, Control_c, 0, 64, 67
1, 1246878, Control_c, 0, 64, 51
1, 1246881, Note_on_c, 0, 72, 101
1, 1246892, Control_c, 0, 64, 0
1, 1246926, Note_off_c, 0, 72, 63
1, 1247028, Note_on_c, 0, 48, 104
1, 1247034, Note_on_c, 0, 36, 90
1, 1247039, Note_on_c, 0, 76, 114
1, 1247090, Note_off_c, 0, 76, 66
1, 1247174, Note_on_c, 0, 69, 101
1, 1247234, Note_off_c, 0, 69, 61
1, 1247271, Control_c, 0, 64, 53
1, 1247284, Note_off_c, 0, 36, 60
1, 1247286, Control_c, 0, 64, 69
1, 1247300, Control_c, 0, 64, 84
1, 1247315, Control_c, 0, 64, 127
1, 1247324, Note_on_c, 0, 72, 107
1, 1247388, Note_off_c, 0, 72, 60
1, 1247454, Note_on_c, 0, 64, 101
1, 1247530, Note_off_c, 0, 64, 57
1, 1247553, Control_c, 0, 64, 77
1, 1247560, Note_off_c, 0, 48, 60
1, 1247568, Control_c, 0, 64, 50
1, 1247583, Control_c, 0, 64, 0
1, 1247593, Note_on_c, 0, 53, 104
1, 1247594, Note_on_c, 0, 69, 104
1, 1247602, Note_on_c, 0, 41, 82
1, 1247612, Control_c, 0, 64, 35
1, 1247627, Control_c, 0, 64, 62
1, 1247632, Note_off_c, 0, 53, 63
1, 1247632, Note_off_c, 0, 41, 64
1, 1247641, Control_c, 0, 64, 79
1, 1247656, Control_c, 0, 64, 127
1, 1247698, Note_off_c, 0, 69, 59
1, 1247726, Note_on_c, 0, 60, 96
1, 1247761, Note_off_c, 0, 60, 68
1, 1247877, Note_on_c, 0, 52, 106
1, 1247884, Note_on_c, 0, 83, 101
1, 1247888, Note_on_c, 0, 40, 86
1, 1247946, Control_c, 0, 64, 87
1, 1247956, Note_off_c, 0, 52, 58
1, 1247957, Note_off_c, 0, 83, 62
1, 1247961, Control_c, 0, 64, 63
1, 1247976, Control_c, 0, 64, 37
1, 1247990, Control_c, 0, 64, 0
1, 1248017, Note_on_c, 0, 78, 91
1, 1248108, Note_off_c, 0, 78, 61
1, 1248141, Note_off_c, 0, 40, 55
1, 1248165, Note_on_c, 0, 51, 100
1, 1248165, Note_on_c, 0, 81, 101
1, 1248168, Note_on_c, 0, 39, 81
1, 1248191, Note_off_c, 0, 39, 66
1, 1248209, Note_off_c, 0, 51, 63
1, 1248228, Control_c, 0, 64, 46
1, 1248243, Control_c, 0, 64, 67
1, 1248258, Poly_aftertouch_c, 0, 80, 127
1, 1248258, Control_c, 0, 64, 88
1, 1248267, Note_off_c, 0, 81, 58
1, 1248273, Control_c, 0, 64, 127
1, 1248302, Note_on_c, 0, 71, 100
1, 1248348, Note_off_c, 0, 71, 66
1, 1248352, Poly_aftertouch_c, 0, 80, 0
1, 1248453, Note_on_c, 0, 52, 105
1, 1248467, Note_on_c, 0, 40, 89
1, 1248472, Control_c, 0, 64, 81
1, 1248475, Note_on_c, 0, 71, 98
1, 1248487, Control_c, 0, 64, 61
1, 1248502, Control_c, 0, 64, 0
1, 1248556, Note_off_c, 0, 71, 62
1, 1248609, Note_on_c, 0, 64, 97
1, 1248677, Note_off_c, 0, 64, 60
1, 1248753, Note_on_c, 0, 67, 98
1, 1248759, Note_off_c, 0, 52, 56
1, 1248768, Control_c, 0, 64, 44
1, 1248778, Note_off_c, 0, 40, 53
1, 1248783, Control_c, 0, 64, 67
1, 1248797, Control_c, 0, 64, 79
1, 1248812, Control_c, 0, 64, 110
1, 1248827, Control_c, 0, 64, 127
1, 1248879, Note_on_c, 0, 59, 92
1, 1248905, Note_off_c, 0, 59, 65
1, 1248916, Note_off_c, 0, 67, 64
1, 1249030, Note_on_c, 0, 52, 112
1, 1249036, Note_on_c, 0, 40, 76
1, 1249042, Note_on_c, 0, 88, 114
1, 1249062, Note_off_c, 0, 40, 65
1, 1249068, Note_on_c, 0, 46, 32
1, 1249080, Note_off_c, 0, 52, 61
1, 1249102, Note_off_c, 0, 88, 66
1, 1249107, Note_off_c, 0, 46, 51
1, 1249163, Note_on_c, 0, 79, 102
1, 1249235, Control_c, 0, 64, 90
1, 1249246, Note_off_c, 0, 79, 59
1, 1249250, Control_c, 0, 64, 71
1, 1249265, Control_c, 0, 64, 59
1, 1249280, Control_c, 0, 64, 34
1, 1249295, Control_c, 0, 64, 0
1, 1249327, Note_on_c, 0, 55, 112
1, 1249327, Note_on_c, 0, 83, 106
1, 1249334, Note_on_c, 0, 43, 89
1, 1249404, Note_off_c, 0, 83, 61
1, 1249468, Note_on_c, 0, 76, 99
1, 1249522, Note_off_c, 0, 76, 65
1, 1249612, Note_on_c, 0, 79, 96
1, 1249620, Control_c, 0, 64, 63
1, 1249627, Note_off_c, 0, 43, 63
1, 1249635, Control_c, 0, 64, 92
1, 1249650, Control_c, 0, 64, 127
1, 1249674, Note_off_c, 0, 79, 63
1, 1249736, Note_on_c, 0, 71, 91
1, 1249836, Note_off_c, 0, 71, 59
1, 1249853, Note_off_c, 0, 55, 58
1, 1249873, Control_c, 0, 64, 70
1, 1249879, Note_on_c, 0, 60, 107
1, 1249883, Note_on_c, 0, 76, 97
1, 1249888, Control_c, 0, 64, 0
1, 1249891, Note_on_c, 0, 48, 74
1, 1249912, Note_off_c, 0, 60, 71
1, 1249918, Control_c, 0, 64, 37
1, 1249921, Note_off_c, 0, 48, 66
1, 1249933, Control_c, 0, 64, 57
1, 1249938, Note_on_c, 0, 50, 7
1, 1249938, Note_off_c, 0, 50, 127
1, 1249948, Control_c, 0, 64, 79
1, 1249971, Control_c, 0, 64, 127
1, 1249998, Poly_aftertouch_c, 0, 50, 0
1, 1250012, Note_off_c, 0, 76, 0
1, 1250019, Note_on_c, 0, 67, 93
1, 1250035, Note_off_c, 0, 67, 74
1, 1250040, Note_on_c, 0, 76, 33
1, 1250064, Note_off_c, 0, 76, 54
1, 1250163, Note_on_c, 0, 59, 108
1, 1250171, Note_on_c, 0, 47, 96
1, 1250184, Note_on_c, 0, 90, 102
1, 1250236, Note_off_c, 0, 59, 60
1, 1250258, Note_off_c, 0, 90, 54
1, 1250286, Poly_aftertouch_c, 0, 51, 0
1, 1250311, Control_c, 0, 64, 81
1, 1250326, Control_c, 0, 64, 60
1, 1250326, Note_on_c, 0, 85, 48
1, 1250329, Note_on_c, 0, 84, 74
1, 1250341, Control_c, 0, 64, 0
1, 1250358, Note_off_c, 0, 84, 61
1, 1250359, Note_off_c, 0, 85, 52
1, 1250430, Note_off_c, 0, 47, 59
1, 1250461, Note_on_c, 0, 58, 109
1, 1250464, Note_on_c, 0, 46, 73
1, 1250472, Note_on_c, 0, 88, 96
1, 1250489, Note_off_c, 0, 46, 66
1, 1250489, Control_c, 0, 64, 62
1, 1250496, Note_off_c, 0, 58, 67
1, 1250504, Control_c, 0, 64, 75
1, 1250518, Control_c, 0, 64, 81
1, 1250520, Note_on_c, 0, 87, 15
1, 1250534, Control_c, 0, 64, 83
1, 1250549, Control_c, 0, 64, 80
1, 1250564, Control_c, 0, 64, 71
1, 1250565, Note_off_c, 0, 87, 45
1, 1250569, Note_off_c, 0, 88, 57
1, 1250579, Control_c, 0, 64, 57
1, 1250592, Note_on_c, 0, 78, 100
1, 1250593, Control_c, 0, 64, 0
1, 1250641, Note_off_c, 0, 78, 62
1, 1250756, Note_on_c, 0, 59, 104
1, 1250762, Note_on_c, 0, 47, 94
1, 1250764, Control_c, 0, 64, 52
1, 1250769, Note_on_c, 0, 78, 97
1, 1250779, Control_c, 0, 64, 127
1, 1250821, Note_off_c, 0, 47, 63
1, 1250899, Note_on_c, 0, 71, 81
1, 1250917, Note_off_c, 0, 78, 33
1, 1250921, Note_off_c, 0, 59, 59
1, 1251000, Note_off_c, 0, 71, 60
1, 1251041, Note_on_c, 0, 74, 94
1, 1251158, Note_on_c, 0, 62, 94
1, 1251166, Note_on_c, 0, 66, 99
1, 1251167, Note_on_c, 0, 50, 73
1, 1251175, Note_off_c, 0, 62, 73
1, 1251183, Note_off_c, 0, 66, 70
1, 1251191, Note_off_c, 0, 50, 65
1, 1251200, Note_off_c, 0, 74, 55
1, 1251316, Note_on_c, 0, 57, 93
1, 1251321, Note_on_c, 0, 55, 82
1, 1251322, Note_on_c, 0, 88, 108
1, 1251323, Note_on_c, 0, 45, 82
1, 1251331, Note_on_c, 0, 43, 64
1, 1251355, Note_off_c, 0, 43, 61
1, 1251358, Control_c, 0, 64, 86
1, 1251362, Note_off_c, 0, 57, 61
1, 1251372, Control_c, 0, 64, 61
1, 1251387, Control_c, 0, 64, 0
1, 1251392, Note_off_c, 0, 55, 60
1, 1251451, Note_on_c, 0, 83, 96
1, 1251551, Note_off_c, 0, 83, 62
1, 1251563, Note_off_c, 0, 88, 59
1, 1251596, Note_off_c, 0, 45, 63
1, 1251604, Note_on_c, 0, 56, 105
1, 1251604, Note_on_c, 0, 86, 103
1, 1251610, Note_on_c, 0, 44, 88
1, 1251616, Control_c, 0, 64, 54
1, 1251631, Note_off_c, 0, 44, 67
1, 1251631, Control_c, 0, 64, 70
1, 1251635, Note_on_c, 0, 88, 36
1, 1251641, Note_off_c, 0, 56, 62
1, 1251646, Control_c, 0, 64, 87
1, 1251661, Control_c, 0, 64, 127
1, 1251670, Note_off_c, 0, 88, 54
1, 1251707, Note_off_c, 0, 86, 62
1, 1251733, Note_on_c, 0, 76, 94
1, 1251780, Note_off_c, 0, 76, 65
1, 1251808, Control_c, 0, 64, 100
1, 1251823, Control_c, 0, 64, 73
1, 1251838, Control_c, 0, 64, 39
1, 1251853, Control_c, 0, 64, 0
1, 1251885, Note_on_c, 0, 57, 105
1, 1251888, Note_on_c, 0, 45, 91
1, 1251896, Note_on_c, 0, 76, 103
1, 1251912, Control_c, 0, 64, 39
1, 1251913, Note_on_c, 0, 47, 61
1, 1251927, Control_c, 0, 64, 69
1, 1251942, Control_c, 0, 64, 127
1, 1251977, Note_off_c, 0, 45, 61
1, 1252025, Note_off_c, 0, 47, 24
1, 1252035, Note_on_c, 0, 69, 88
1, 1252094, Note_off_c, 0, 57, 56
1, 1252123, Note_off_c, 0, 69, 62
1, 1252173, Note_on_c, 0, 72, 88
1, 1252222, Note_off_c, 0, 76, 56
1, 1252281, Note_on_c, 0, 60, 93
1, 1252287, Note_off_c, 0, 72, 0
1, 1252291, Note_on_c, 0, 48, 76
1, 1252292, Note_on_c, 0, 64, 89
1, 1252297, Note_off_c, 0, 60, 75
1, 1252307, Poly_aftertouch_c, 0, 72, 0
1, 1252315, Note_off_c, 0, 48, 67
1, 1252331, Note_off_c, 0, 64, 60
1, 1252440, Note_on_c, 0, 83, 99
1, 1252445, Note_on_c, 0, 52, 98
1, 1252450, Note_on_c, 0, 40, 84
1, 1252484, Control_c, 0, 64, 115
1, 1252499, Control_c, 0, 64, 75
1, 1252513, Control_c, 0, 64, 47
1, 1252525, Note_off_c, 0, 52, 59
1, 1252528, Control_c, 0, 64, 0
1, 1252532, Poly_aftertouch_c, 0, 53, 0
1, 1252556, Poly_aftertouch_c, 0, 41, 0
1, 1252581, Note_on_c, 0, 78, 85
1, 1252699, Note_off_c, 0, 40, 59
1, 1252700, Note_off_c, 0, 78, 62
1, 1252705, Control_c, 0, 64, 39
1, 1252720, Control_c, 0, 64, 67
1, 1252722, Note_on_c, 0, 51, 111
1, 1252725, Note_on_c, 0, 39, 82
1, 1252735, Control_c, 0, 64, 110
1, 1252747, Note_on_c, 0, 81, 91
1, 1252750, Note_on_c, 0, 80, 65
1, 1252750, Control_c, 0, 64, 127
1, 1252751, Note_off_c, 0, 51, 66
1, 1252755, Note_off_c, 0, 39, 66
1, 1252774, Note_off_c, 0, 83, 61
1, 1252822, Note_off_c, 0, 81, 62
1, 1252833, Note_off_c, 0, 80, 58
1, 1252862, Note_on_c, 0, 71, 78
1, 1252902, Note_off_c, 0, 71, 62
1, 1253041, Note_on_c, 0, 52, 109
1, 1253045, Note_on_c, 0, 71, 100
1, 1253047, Note_on_c, 0, 40, 81
1, 1253054, Note_on_c, 0, 64, 94
1, 1253055, Note_on_c, 0, 67, 89
1, 1253055, Control_c, 0, 64, 73
1, 1253069, Control_c, 0, 64, 0
1, 1253092, Note_on_c, 0, 41, 37
1, 1253114, Control_c, 0, 64, 55
1, 1253129, Control_c, 0, 64, 75
1, 1253142, Note_off_c, 0, 64, 61
1, 1253143, Control_c, 0, 64, 127
1, 1253161, Note_off_c, 0, 71, 64
1, 1253172, Note_off_c, 0, 41, 0
1, 1253173, Note_off_c, 0, 67, 58
1, 1253195, Note_on_c, 0, 59, 83
1, 1253197, Note_off_c, 0, 52, 56
1, 1253206, Note_off_c, 0, 40, 58
1, 1253209, Poly_aftertouch_c, 0, 41, 127
1, 1253272, Poly_aftertouch_c, 0, 41, 0
1, 1253281, Note_off_c, 0, 59, 60
1, 1253340, Note_on_c, 0, 70, 90
1, 1253340, Note_on_c, 0, 67, 85
1, 1253345, Note_on_c, 0, 64, 77
1, 1253431, Note_off_c, 0, 64, 59
1, 1253450, Note_off_c, 0, 70, 61
1, 1253464, Note_on_c, 0, 58, 98
1, 1253482, Note_on_c, 0, 48, 92
1, 1253504, Note_on_c, 0, 36, 56
1, 1253516, Note_on_c, 0, 50, 31
1, 1253516, Note_off_c, 0, 50, 127
1, 1253530, Note_off_c, 0, 58, 63
1, 1253534, Note_off_c, 0, 36, 55
1, 1253539, Note_off_c, 0, 48, 55
1, 1253555, Poly_aftertouch_c, 0, 50, 0
1, 1253574, Poly_aftertouch_c, 0, 38, 127
1, 1253605, Poly_aftertouch_c, 0, 38, 0
1, 1253632, Note_off_c, 0, 67, 0
1, 1253632, Control_c, 0, 64, 73
1, 1253641, Note_on_c, 0, 47, 110
1, 1253647, Note_on_c, 0, 71, 81
1, 1253647, Control_c, 0, 64, 35
1, 1253650, Note_on_c, 0, 67, 55
1, 1253650, Note_on_c, 0, 63, 91
1, 1253656, Note_on_c, 0, 35, 86
1, 1253662, Control_c, 0, 64, 0
1, 1253690, Note_off_c, 0, 35, 59
1, 1253692, Note_on_c, 0, 39, 24
1, 1253692, Control_c, 0, 64, 49
1, 1253695, Note_on_c, 0, 37, 15
1, 1253713, Control_c, 0, 64, 68
1, 1253728, Control_c, 0, 64, 84
1, 1253734, Note_off_c, 0, 67, 64
1, 1253743, Note_off_c, 0, 71, 61
1, 1253745, Control_c, 0, 64, 127
1, 1253748, Note_off_c, 0, 63, 59
1, 1253749, Note_off_c, 0, 39, 33
1, 1253752, Note_off_c, 0, 37, 36
1, 1253766, Note_off_c, 0, 47, 65
1, 1253778, Note_on_c, 0, 59, 70
1, 1253795, Note_off_c, 0, 59, 67
1, 1253952, Control_c, 0, 64, 87
1, 1253966, Control_c, 0, 64, 65
1, 1253981, Control_c, 0, 64, 0
1, 1253984, Note_on_c, 0, 75, 73
1, 1253993, Note_on_c, 0, 72, 65
1, 1253995, Note_on_c, 0, 47, 54
1, 1254007, Note_on_c, 0, 45, 51
1, 1254026, Control_c, 0, 64, 38
1, 1254041, Control_c, 0, 64, 60
1, 1254056, Control_c, 0, 64, 70
1, 1254070, Control_c, 0, 64, 81
1, 1254085, Control_c, 0, 64, 104
1, 1254096, Note_off_c, 0, 75, 59
1, 1254100, Control_c, 0, 64, 127
1, 1254127, Note_on_c, 0, 71, 81
1, 1254146, Note_off_c, 0, 72, 30
1, 1254198, Note_off_c, 0, 47, 40
1, 1254241, Note_off_c, 0, 71, 64
1, 1254248, Control_c, 0, 64, 90
1, 1254249, Note_off_c, 0, 45, 37
1, 1254263, Control_c, 0, 64, 66
1, 1254269, Note_on_c, 0, 47, 109
1, 1254278, Control_c, 0, 64, 43
1, 1254279, Note_on_c, 0, 76, 103
1, 1254289, Note_on_c, 0, 43, 70
1, 1254292, Control_c, 0, 64, 45
1, 1254307, Control_c, 0, 64, 59
1, 1254322, Control_c, 0, 64, 66
1, 1254336, Note_off_c, 0, 76, 63
1, 1254336, Control_c, 0, 64, 83
1, 1254351, Control_c, 0, 64, 127
1, 1254380, Note_off_c, 0, 47, 51
1, 1254386, Note_on_c, 0, 71, 87
1, 1254392, Note_off_c, 0, 43, 60
1, 1254529, Note_off_c, 0, 71, 61
1, 1254553, Control_c, 0, 64, 120
1, 1254555, Note_on_c, 0, 47, 106
1, 1254556, Note_on_c, 0, 78, 93
1, 1254556, Note_on_c, 0, 75, 93
1, 1254558, Note_on_c, 0, 42, 86
1, 1254567, Control_c, 0, 64, 72
1, 1254582, Control_c, 0, 64, 43
1, 1254597, Control_c, 0, 64, 0
1, 1254627, Control_c, 0, 64, 51
1, 1254641, Control_c, 0, 64, 69
1, 1254646, Note_off_c, 0, 75, 59
1, 1254656, Control_c, 0, 64, 94
1, 1254671, Control_c, 0, 64, 127
1, 1254675, Note_on_c, 0, 71, 99
1, 1254682, Note_off_c, 0, 78, 56
1, 1254794, Note_off_c, 0, 71, 61
1, 1254799, Note_off_c, 0, 42, 59
1, 1254814, Note_off_c, 0, 47, 59
1, 1254825, Note_on_c, 0, 40, 71
1, 1254847, Note_on_c, 0, 79, 104
1, 1254853, Note_on_c, 0, 76, 100
1, 1254890, Note_off_c, 0, 40, 60
1, 1254899, Note_off_c, 0, 76, 60
1, 1254988, Note_off_c, 0, 79, 56
1, 1254994, Note_on_c, 0, 55, 93
1, 1255025, Note_on_c, 0, 57, 33
1, 1255025, Note_off_c, 0, 57, 127
1, 1255036, Note_off_c, 0, 55, 65
1, 1255060, Poly_aftertouch_c, 0, 57, 0
1, 1255142, Note_on_c, 0, 59, 93
1, 1255144, Note_on_c, 0, 67, 104
1, 1255147, Note_on_c, 0, 79, 102
1, 1255187, Note_off_c, 0, 59, 61
1, 1255189, Control_c, 0, 64, 84
1, 1255212, Control_c, 0, 64, 64
1, 1255227, Control_c, 0, 64, 37
1, 1255241, Control_c, 0, 64, 0
1, 1255256, Note_off_c, 0, 67, 61
1, 1255279, Note_on_c, 0, 52, 93
1, 1255334, Note_off_c, 0, 52, 63
1, 1255440, Note_on_c, 0, 55, 98
1, 1255489, Note_off_c, 0, 55, 65
1, 1255555, Note_on_c, 0, 47, 100
1, 1255588, Note_off_c, 0, 47, 64
1, 1255698, Note_off_c, 0, 79, 53
1, 1255701, Control_c, 0, 64, 58
1, 1255711, Note_on_c, 0, 84, 102
1, 1255712, Note_on_c, 0, 52, 86
1, 1255713, Note_on_c, 0, 72, 95
1, 1255716, Control_c, 0, 64, 70
1, 1255731, Control_c, 0, 64, 87
1, 1255746, Note_on_c, 0, 82, 52
1, 1255746, Control_c, 0, 64, 127
1, 1255758, Note_off_c, 0, 52, 63
1, 1255780, Note_off_c, 0, 82, 49
1, 1255823, Note_off_c, 0, 84, 59
1, 1255842, Note_on_c, 0, 43, 94
1, 1255847, Note_off_c, 0, 72, 59
1, 1255892, Note_off_c, 0, 43, 61
1, 1255938, Control_c, 0, 64, 78
1, 1255960, Control_c, 0, 64, 51
1, 1255975, Control_c, 0, 64, 0
1, 1255990, Note_on_c, 0, 71, 99
1, 1255992, Note_on_c, 0, 83, 103
1, 1256002, Note_on_c, 0, 53, 96
1, 1256005, Control_c, 0, 64, 43
1, 1256020, Control_c, 0, 64, 62
1, 1256035, Control_c, 0, 64, 77
1, 1256047, Note_off_c, 0, 53, 65
1, 1256050, Control_c, 0, 64, 101
1, 1256064, Control_c, 0, 64, 127
1, 1256087, Note_off_c, 0, 71, 64
1, 1256124, Note_on_c, 0, 43, 96
1, 1256170, Note_off_c, 0, 43, 64
1, 1256213, Control_c, 0, 64, 119
1, 1256228, Control_c, 0, 64, 69
1, 1256243, Control_c, 0, 64, 41
1, 1256258, Control_c, 0, 64, 33
1, 1256265, Note_off_c, 0, 83, 0
1, 1256273, Control_c, 0, 64, 57
1, 1256273, Note_on_c, 0, 82, 91
1, 1256276, Note_on_c, 0, 70, 99
1, 1256276, Note_on_c, 0, 54, 82
1, 1256285, Note_on_c, 0, 83, 43
1, 1256287, Control_c, 0, 64, 70
1, 1256302, Control_c, 0, 64, 95
1, 1256311, Note_off_c, 0, 83, 54
1, 1256312, Note_off_c, 0, 54, 63
1, 1256317, Control_c, 0, 64, 127
1, 1256318, Note_on_c, 0, 53, 35
1, 1256343, Note_off_c, 0, 70, 65
1, 1256345, Note_off_c, 0, 53, 56
1, 1256351, Poly_aftertouch_c, 0, 51, 127
1, 1256369, Note_off_c, 0, 82, 63
1, 1256385, Poly_aftertouch_c, 0, 51, 0
1, 1256400, Note_on_c, 0, 42, 96
1, 1256439, Note_off_c, 0, 42, 57
1, 1256524, Control_c, 0, 64, 97
1, 1256539, Control_c, 0, 64, 66
1, 1256548, Note_on_c, 0, 71, 108
1, 1256551, Note_on_c, 0, 83, 99
1, 1256554, Note_on_c, 0, 51, 94
1, 1256554, Control_c, 0, 64, 0
1, 1256580, Note_on_c, 0, 78, 41
1, 1256603, Note_off_c, 0, 51, 61
1, 1256607, Note_off_c, 0, 78, 53
1, 1256628, Control_c, 0, 64, 54
1, 1256643, Control_c, 0, 64, 72
1, 1256658, Control_c, 0, 64, 111
1, 1256672, Control_c, 0, 64, 127
1, 1256680, Note_on_c, 0, 39, 96
1, 1256712, Note_off_c, 0, 83, 63
1, 1256723, Note_off_c, 0, 39, 58
1, 1256760, Note_off_c, 0, 71, 60
1, 1256828, Note_on_c, 0, 46, 96
1, 1256881, Note_off_c, 0, 46, 64
1, 1256948, Note_on_c, 0, 34, 89
1, 1257035, Note_off_c, 0, 34, 53
1, 1257041, Poly_aftertouch_c, 0, 37, 127
1, 1257081, Control_c, 0, 64, 73
1, 1257081, Poly_aftertouch_c, 0, 37, 0
1, 1257096, Control_c, 0, 64, 46
1, 1257110, Control_c, 0, 64, 33
1, 1257111, Note_on_c, 0, 35, 105
1, 1257119, Note_on_c, 0, 59, 103
1, 1257123, Note_on_c, 0, 71, 100
1, 1257125, Control_c, 0, 64, 61
1, 1257140, Control_c, 0, 64, 76
1, 1257154, Control_c, 0, 64, 127
1, 1257165, Note_off_c, 0, 35, 62
1, 1257177, Note_on_c, 0, 69, 16
1, 1257179, Note_off_c, 0, 59, 60
1, 1257210, Note_off_c, 0, 71, 66
1, 1257227, Note_off_c, 0, 69, 36
1, 1257263, Note_on_c, 0, 50, 100
1, 1257301, Note_off_c, 0, 50, 66
1, 1257416, Note_on_c, 0, 54, 99
1, 1257416, Note_on_c, 0, 62, 103
1, 1257417, Note_on_c, 0, 74, 101
1, 1257476, Note_off_c, 0, 54, 63
1, 1257534, Note_off_c, 0, 62, 59
1, 1257556, Note_on_c, 0, 47, 100
1, 1257606, Note_off_c, 0, 47, 64
1, 1257621, Control_c, 0, 64, 110
1, 1257636, Control_c, 0, 64, 90
1, 1257651, Control_c, 0, 64, 74
1, 1257665, Control_c, 0, 64, 59
1, 1257680, Control_c, 0, 64, 0
1, 1257714, Note_on_c, 0, 50, 99
1, 1257764, Note_off_c, 0, 50, 63
1, 1257838, Note_on_c, 0, 42, 93
1, 1257868, Note_on_c, 0, 41, 59
1, 1257893, Note_off_c, 0, 42, 62
1, 1257895, Note_off_c, 0, 41, 55
1, 1257992, Note_on_c, 0, 79, 96
1, 1257993, Note_on_c, 0, 67, 88
1, 1258005, Note_on_c, 0, 47, 76
1, 1258005, Note_off_c, 0, 74, 53
1, 1258022, Note_on_c, 0, 45, 59
1, 1258037, Control_c, 0, 64, 55
1, 1258044, Note_off_c, 0, 47, 63
1, 1258050, Note_off_c, 0, 45, 53
1, 1258051, Control_c, 0, 64, 67
1, 1258066, Control_c, 0, 64, 76
1, 1258081, Control_c, 0, 64, 91
1, 1258092, Note_off_c, 0, 79, 62
1, 1258095, Control_c, 0, 64, 118
1, 1258096, Note_off_c, 0, 67, 63
1, 1258110, Control_c, 0, 64, 127
1, 1258132, Note_on_c, 0, 38, 87
1, 1258188, Note_off_c, 0, 38, 61
1, 1258250, Poly_aftertouch_c, 0, 44, 0
1, 1258252, Control_c, 0, 64, 95
1, 1258267, Control_c, 0, 64, 68
1, 1258282, Control_c, 0, 64, 35
1, 1258288, Note_on_c, 0, 78, 96
1, 1258291, Note_on_c, 0, 66, 98
1, 1258297, Control_c, 0, 64, 0
1, 1258305, Note_on_c, 0, 48, 86
1, 1258326, Control_c, 0, 64, 56
1, 1258341, Control_c, 0, 64, 68
1, 1258356, Control_c, 0, 64, 81
1, 1258369, Note_off_c, 0, 48, 61
1, 1258371, Control_c, 0, 64, 112
1, 1258385, Control_c, 0, 64, 127
1, 1258420, Note_on_c, 0, 43, 17
1, 1258420, Note_on_c, 0, 38, 88
1, 1258441, Note_off_c, 0, 66, 60
1, 1258443, Note_off_c, 0, 78, 61
1, 1258497, Note_off_c, 0, 38, 61
1, 1258534, Control_c, 0, 64, 94
1, 1258549, Control_c, 0, 64, 66
1, 1258564, Control_c, 0, 64, 36
1, 1258567, Note_on_c, 0, 65, 112
1, 1258570, Note_on_c, 0, 77, 99
1, 1258575, Note_on_c, 0, 49, 97
1, 1258579, Control_c, 0, 64, 41
1, 1258593, Note_off_c, 0, 43, 0
1, 1258594, Control_c, 0, 64, 61
1, 1258595, Note_on_c, 0, 73, 50
1, 1258608, Control_c, 0, 64, 75
1, 1258611, Note_on_c, 0, 76, 34
1, 1258619, Note_off_c, 0, 73, 56
1, 1258623, Control_c, 0, 64, 127
1, 1258630, Poly_aftertouch_c, 0, 43, 127
1, 1258643, Note_off_c, 0, 77, 62
1, 1258649, Note_off_c, 0, 65, 58
1, 1258654, Note_off_c, 0, 49, 62
1, 1258659, Note_on_c, 0, 74, 47
1, 1258661, Note_off_c, 0, 76, 63
1, 1258670, Poly_aftertouch_c, 0, 43, 0
1, 1258685, Note_off_c, 0, 74, 59
1, 1258691, Note_on_c, 0, 37, 81
1, 1258694, Note_on_c, 0, 39, 69
1, 1258694, Note_off_c, 0, 39, 127
1, 1258722, Poly_aftertouch_c, 0, 39, 0
1, 1258729, Note_off_c, 0, 37, 59
1, 1258857, Note_on_c, 0, 45, 104
1, 1258858, Note_on_c, 0, 66, 106
1, 1258861, Note_on_c, 0, 78, 103
1, 1258890, Control_c, 0, 64, 73
1, 1258904, Control_c, 0, 64, 34
1, 1258914, Poly_aftertouch_c, 0, 74, 127
1, 1258919, Control_c, 0, 64, 0
1, 1258933, Control_c, 0, 64, 36
1, 1258956, Control_c, 0, 64, 60
1, 1258962, Note_off_c, 0, 45, 55
1, 1258971, Control_c, 0, 64, 80
1, 1258986, Control_c, 0, 64, 127
1, 1258997, Note_on_c, 0, 33, 86
1, 1259074, Control_c, 0, 64, 122
1, 1259089, Control_c, 0, 64, 69
1, 1259092, Note_off_c, 0, 33, 60
1, 1259104, Control_c, 0, 64, 0
1, 1259116, Poly_aftertouch_c, 0, 34, 0
1, 1259145, Note_on_c, 0, 45, 84
1, 1259148, Control_c, 0, 64, 33
1, 1259163, Control_c, 0, 64, 62
1, 1259178, Control_c, 0, 64, 80
1, 1259193, Control_c, 0, 64, 114
1, 1259197, Note_off_c, 0, 45, 64
1, 1259197, Poly_aftertouch_c, 0, 74, 0
1, 1259208, Control_c, 0, 64, 127
1, 1259213, Note_off_c, 0, 78, 55
1, 1259240, Note_off_c, 0, 66, 58
1, 1259273, Note_on_c, 0, 47, 93
1, 1259301, Note_off_c, 0, 47, 66
1, 1259417, Control_c, 0, 64, 112
1, 1259431, Control_c, 0, 64, 69
1, 1259433, Note_on_c, 0, 48, 94
1, 1259439, Note_on_c, 0, 64, 96
1, 1259439, Note_on_c, 0, 76, 102
1, 1259446, Control_c, 0, 64, 0
1, 1259475, Control_c, 0, 64, 43
1, 1259490, Control_c, 0, 64, 63
1, 1259505, Control_c, 0, 64, 79
1, 1259520, Control_c, 0, 64, 127
1, 1259545, Note_off_c, 0, 64, 63
1, 1259567, Note_on_c, 0, 58, 98
1, 1259624, Note_off_c, 0, 58, 62
1, 1259684, Note_off_c, 0, 48, 52
1, 1259705, Control_c, 0, 64, 72
1, 1259720, Control_c, 0, 64, 0
1, 1259727, Note_on_c, 0, 59, 92
1, 1259731, Note_on_c, 0, 63, 104
1, 1259735, Note_on_c, 0, 75, 86
1, 1259749, Control_c, 0, 64, 33
1, 1259763, Note_off_c, 0, 76, 61
1, 1259764, Control_c, 0, 64, 58
1, 1259778, Note_off_c, 0, 59, 58
1, 1259779, Control_c, 0, 64, 73
1, 1259791, Note_off_c, 0, 63, 64
1, 1259794, Control_c, 0, 64, 104
1, 1259809, Control_c, 0, 64, 127
1, 1259839, Note_off_c, 0, 75, 58
1, 1259853, Note_on_c, 0, 47, 96
1, 1259901, Note_off_c, 0, 47, 66
1, 1260010, Note_on_c, 0, 43, 92
1, 1260010, Note_on_c, 0, 64, 102
1, 1260014, Note_on_c, 0, 76, 101
1, 1260017, Control_c, 0, 64, 96
1, 1260031, Control_c, 0, 64, 64
1, 1260046, Control_c, 0, 64, 0
1, 1260090, Control_c, 0, 64, 40
1, 1260105, Control_c, 0, 64, 64
1, 1260113, Note_off_c, 0, 64, 63
1, 1260121, Control_c, 0, 64, 84
1, 1260136, Control_c, 0, 64, 127
1, 1260158, Note_on_c, 0, 55, 100
1, 1260235, Note_off_c, 0, 55, 60
1, 1260253, Note_on_c, 0, 77, 30
1, 1260256, Note_off_c, 0, 43, 56
1, 1260286, Note_off_c, 0, 77, 59
1, 1260299, Note_on_c, 0, 52, 102
1, 1260357, Note_off_c, 0, 52, 65
1, 1260372, Note_off_c, 0, 76, 57
1, 1260414, Note_on_c, 0, 48, 98
1, 1260426, Note_on_c, 0, 67, 101
1, 1260430, Note_on_c, 0, 79, 90
1, 1260453, Note_off_c, 0, 79, 75
1, 1260456, Note_off_c, 0, 48, 69
1, 1260470, Note_off_c, 0, 67, 65
1, 1260544, Control_c, 0, 64, 90
1, 1260559, Control_c, 0, 64, 60
1, 1260573, Control_c, 0, 64, 0
1, 1260579, Note_on_c, 0, 53, 104
1, 1260583, Note_on_c, 0, 59, 104
1, 1260586, Note_on_c, 0, 71, 101
1, 1260603, Control_c, 0, 64, 57
1, 1260612, Note_on_c, 0, 68, 49
1, 1260618, Control_c, 0, 64, 75
1, 1260619, Note_on_c, 0, 66, 41
1, 1260619, Note_off_c, 0, 66, 127
1, 1260621, Note_off_c, 0, 53, 67
1, 1260633, Control_c, 0, 64, 110
1, 1260639, Note_off_c, 0, 68, 38
1, 1260647, Control_c, 0, 64, 127
1, 1260691, Note_off_c, 0, 59, 54
1, 1260712, Note_on_c, 0, 45, 108
1, 1260751, Note_off_c, 0, 45, 62
1, 1260816, Note_off_c, 0, 71, 51
1, 1260825, Control_c, 0, 64, 96
1, 1260840, Control_c, 0, 64, 64
1, 1260855, Control_c, 0, 64, 0
1, 1260865, Note_on_c, 0, 58, 104
1, 1260867, Note_on_c, 0, 70, 84
1, 1260868, Note_on_c, 0, 54, 101
1, 1260885, Control_c, 0, 64, 59
1, 1260885, Note_on_c, 0, 63, 63
1, 1260885, Note_off_c, 0, 63, 127
1, 1260899, Control_c, 0, 64, 76
1, 1260906, Note_off_c, 0, 54, 69
1, 1260911, Note_on_c, 0, 68, 26
1, 1260914, Control_c, 0, 64, 127
1, 1260916, Note_off_c, 0, 70, 66
1, 1260921, Note_on_c, 0, 51, 24
1, 1260930, Note_on_c, 0, 69, 8
1, 1260944, Note_off_c, 0, 58, 63
1, 1260965, Note_off_c, 0, 51, 52
1, 1260985, Note_off_c, 0, 69, 50
1, 1260986, Poly_aftertouch_c, 0, 49, 0
1, 1260991, Note_on_c, 0, 42, 96
1, 1261012, Note_off_c, 0, 68, 43
1, 1261043, Note_off_c, 0, 42, 61
1, 1261108, Control_c, 0, 64, 99
1, 1261122, Control_c, 0, 64, 63
1, 1261137, Control_c, 0, 64, 0
1, 1261141, Note_on_c, 0, 59, 106
1, 1261144, Note_on_c, 0, 71, 103
1, 1261148, Note_on_c, 0, 51, 100
1, 1261167, Control_c, 0, 64, 43
1, 1261182, Control_c, 0, 64, 64
1, 1261195, Note_on_c, 0, 69, 35
1, 1261198, Note_off_c, 0, 51, 65
1, 1261204, Control_c, 0, 64, 85
1, 1261219, Control_c, 0, 64, 127
1, 1261282, Note_off_c, 0, 71, 56
1, 1261296, Note_on_c, 0, 39, 89
1, 1261307, Note_off_c, 0, 69, 26
1, 1261328, Note_off_c, 0, 39, 63
1, 1261355, Note_off_c, 0, 59, 56
1, 1261439, Note_on_c, 0, 52, 102
1, 1261482, Note_off_c, 0, 52, 65
1, 1261564, Note_on_c, 0, 41, 89
1, 1261567, Note_on_c, 0, 55, 97
1, 1261573, Note_on_c, 0, 67, 88
1, 1261591, Note_on_c, 0, 57, 60
1, 1261591, Note_off_c, 0, 57, 127
1, 1261591, Note_on_c, 0, 66, 59
1, 1261592, Note_off_c, 0, 67, 69
1, 1261606, Note_off_c, 0, 41, 62
1, 1261606, Note_off_c, 0, 55, 56
1, 1261614, Note_off_c, 0, 66, 56
1, 1261633, Control_c, 0, 64, 92
1, 1261634, Poly_aftertouch_c, 0, 63, 0
1, 1261648, Control_c, 0, 64, 63
1, 1261663, Control_c, 0, 64, 0
1, 1261670, Poly_aftertouch_c, 0, 63, 0
1, 1261725, Note_on_c, 0, 50, 111
1, 1261726, Note_on_c, 0, 54, 104
1, 1261726, Note_on_c, 0, 66, 92
1, 1261738, Control_c, 0, 64, 67
1, 1261752, Control_c, 0, 64, 127
1, 1261758, Note_on_c, 0, 47, 49
1, 1261758, Note_off_c, 0, 47, 127
1, 1261762, Note_off_c, 0, 50, 65
1, 1261803, Note_off_c, 0, 66, 64
1, 1261848, Note_off_c, 0, 54, 57
1, 1261859, Note_on_c, 0, 42, 96
1, 1261917, Note_off_c, 0, 42, 59
1, 1261952, Control_c, 0, 64, 98
1, 1261967, Control_c, 0, 64, 63
1, 1261982, Control_c, 0, 64, 0
1, 1262027, Note_on_c, 0, 52, 107
1, 1262030, Note_on_c, 0, 64, 103
1, 1262031, Note_on_c, 0, 43, 99
1, 1262041, Control_c, 0, 64, 44
1, 1262056, Control_c, 0, 64, 70
1, 1262071, Control_c, 0, 64, 94
1, 1262078, Note_off_c, 0, 43, 62
1, 1262086, Control_c, 0, 64, 127
1, 1262090, Note_off_c, 0, 64, 59
1, 1262107, Note_on_c, 0, 58, 6
1, 1262133, Note_off_c, 0, 52, 58
1, 1262154, Note_off_c, 0, 58, 41
1, 1262161, Note_on_c, 0, 47, 109
1, 1262201, Note_off_c, 0, 47, 66
1, 1262264, Control_c, 0, 64, 84
1, 1262278, Control_c, 0, 64, 54
1, 1262293, Control_c, 0, 64, 0
1, 1262301, Note_on_c, 0, 50, 102
1, 1262304, Note_on_c, 0, 62, 99
1, 1262305, Note_on_c, 0, 42, 94
1, 1262338, Control_c, 0, 64, 64
1, 1262352, Control_c, 0, 64, 86
1, 1262357, Note_off_c, 0, 42, 63
1, 1262361, Note_off_c, 0, 62, 61
1, 1262367, Control_c, 0, 64, 127
1, 1262378, Note_off_c, 0, 50, 62
1, 1262415, Poly_aftertouch_c, 0, 60, 0
1, 1262436, Note_on_c, 0, 47, 111
1, 1262474, Note_off_c, 0, 47, 66
1, 1262516, Control_c, 0, 64, 101
1, 1262531, Control_c, 0, 64, 64
1, 1262546, Control_c, 0, 64, 0
1, 1262583, Note_on_c, 0, 42, 93
1, 1262584, Note_on_c, 0, 49, 102
1, 1262588, Note_on_c, 0, 61, 89
1, 1262605, Control_c, 0, 64, 67
1, 1262620, Note_on_c, 0, 44, 44
1, 1262620, Control_c, 0, 64, 87
1, 1262634, Note_off_c, 0, 42, 63
1, 1262635, Note_off_c, 0, 49, 65
1, 1262635, Control_c, 0, 64, 127
1, 1262654, Note_off_c, 0, 44, 56
1, 1262706, Note_off_c, 0, 61, 62
1, 1262727, Note_on_c, 0, 46, 61
1, 1262733, Note_on_c, 0, 45, 86
1, 1262754, Note_off_c, 0, 46, 59
1, 1262758, Note_on_c, 0, 44, 34
1, 1262758, Note_off_c, 0, 44, 127
1, 1262760, Note_off_c, 0, 45, 67
1, 1262799, Poly_aftertouch_c, 0, 44, 0
1, 1262820, Control_c, 0, 64, 92
1, 1262834, Control_c, 0, 64, 57
1, 1262849, Control_c, 0, 64, 0
1, 1262872, Note_on_c, 0, 47, 122
1, 1262908, Note_off_c, 0, 47, 67
1, 1262909, Control_c, 0, 64, 64
1, 1262924, Control_c, 0, 64, 94
1, 1262936, Note_on_c, 0, 59, 86
1, 1262939, Control_c, 0, 64, 127
1, 1263014, Note_on_c, 0, 61, 81
1, 1263024, Note_off_c, 0, 59, 59
1, 1263085, Note_on_c, 0, 62, 76
1, 1263093, Note_off_c, 0, 61, 59
1, 1263110, Note_off_c, 0, 62, 68
1, 1263154, Note_on_c, 0, 64, 75
1, 1263224, Note_on_c, 0, 66, 84
1, 1263224, Note_off_c, 0, 64, 63
1, 1263273, Note_on_c, 0, 68, 71
1, 1263284, Note_on_c, 0, 59, 87
1, 1263317, Note_off_c, 0, 66, 58
1, 1263332, Note_off_c, 0, 59, 63
1, 1263347, Note_on_c, 0, 70, 74
1, 1263378, Note_off_c, 0, 68, 63
1, 1263383, Control_c, 0, 64, 125
1, 1263398, Note_off_c, 0, 70, 63
1, 1263398, Control_c, 0, 64, 66
1, 1263413, Control_c, 0, 64, 0
1, 1263428, Note_on_c, 0, 71, 85
1, 1263431, Note_on_c, 0, 67, 99
1, 1263435, Note_on_c, 0, 55, 95
1, 1263465, Control_c, 0, 64, 58
1, 1263466, Note_on_c, 0, 58, 47
1, 1263480, Control_c, 0, 64, 76
1, 1263493, Note_off_c, 0, 58, 59
1, 1263495, Control_c, 0, 64, 127
1, 1263516, Note_on_c, 0, 73, 86
1, 1263531, Note_off_c, 0, 71, 60
1, 1263537, Note_off_c, 0, 67, 59
1, 1263539, Poly_aftertouch_c, 0, 61, 0
1, 1263573, Note_on_c, 0, 74, 86
1, 1263593, Note_off_c, 0, 73, 63
1, 1263609, Note_off_c, 0, 74, 60
1, 1263651, Note_on_c, 0, 76, 87
1, 1263660, Note_off_c, 0, 55, 60
1, 1263705, Note_on_c, 0, 66, 101
1, 1263709, Note_on_c, 0, 54, 86
1, 1263713, Note_on_c, 0, 78, 89
1, 1263734, Note_off_c, 0, 76, 61
1, 1263745, Note_off_c, 0, 54, 57
1, 1263745, Note_off_c, 0, 66, 64
1, 1263758, Note_on_c, 0, 80, 74
1, 1263785, Note_off_c, 0, 78, 62
1, 1263803, Note_on_c, 0, 82, 76
1, 1263825, Note_off_c, 0, 80, 64
1, 1263846, Note_off_c, 0, 82, 60
1, 1263870, Note_on_c, 0, 83, 84
1, 1263910, Control_c, 0, 64, 103
1, 1263910, Note_off_c, 0, 83, 64
1, 1263924, Control_c, 0, 64, 63
1, 1263939, Control_c, 0, 64, 0
1, 1263951, Note_on_c, 0, 65, 108
1, 1263956, Note_on_c, 0, 61, 93
1, 1263964, Note_on_c, 0, 56, 75
1, 1263965, Note_on_c, 0, 85, 103
1, 1263967, Note_on_c, 0, 53, 69
1, 1263977, Note_off_c, 0, 65, 63
1, 1263983, Control_c, 0, 64, 62
1, 1263997, Note_on_c, 0, 58, 33
1, 1263998, Control_c, 0, 64, 95
1, 1264005, Note_off_c, 0, 53, 56
1, 1264009, Note_off_c, 0, 61, 64
1, 1264013, Control_c, 0, 64, 127
1, 1264029, Note_off_c, 0, 58, 54
1, 1264039, Note_off_c, 0, 56, 59
1, 1264085, Note_off_c, 0, 85, 61
1, 1264102, Note_on_c, 0, 73, 99
1, 1264133, Note_off_c, 0, 73, 57
1, 1264265, Note_on_c, 0, 97, 106
1, 1264293, Note_on_c, 0, 96, 73
1, 1264299, Note_on_c, 0, 94, 47
1, 1264299, Note_off_c, 0, 94, 127
1, 1264303, Note_on_c, 0, 95, 46
1, 1264320, Note_off_c, 0, 97, 66
1, 1264340, Note_off_c, 0, 95, 47
1, 1264364, Note_off_c, 0, 96, 64
1, 1264381, Note_on_c, 0, 85, 100
1, 1264411, Note_off_c, 0, 85, 67
1, 1264554, Control_c, 0, 64, 93
1, 1264563, Note_on_c, 0, 43, 109
1, 1264569, Control_c, 0, 64, 58
1, 1264570, Note_on_c, 0, 71, 94
1, 1264572, Note_on_c, 0, 31, 87
1, 1264584, Note_on_c, 0, 37, 66
1, 1264584, Control_c, 0, 64, 0
1, 1264598, Note_on_c, 0, 32, 50
1, 1264610, Note_off_c, 0, 37, 37
1, 1264614, Control_c, 0, 64, 53
1, 1264629, Control_c, 0, 64, 72
1, 1264633, Note_off_c, 0, 32, 48
1, 1264637, Note_on_c, 0, 73, 81
1, 1264644, Control_c, 0, 64, 107
1, 1264644, Note_off_c, 0, 43, 63
1, 1264659, Control_c, 0, 64, 127
1, 1264668, Note_off_c, 0, 71, 59
1, 1264682, Note_on_c, 0, 74, 86
1, 1264705, Note_off_c, 0, 73, 61
1, 1264711, Note_off_c, 0, 74, 63
1, 1264768, Note_on_c, 0, 76, 86
1, 1264820, Note_off_c, 0, 31, 49
1, 1264829, Note_on_c, 0, 78, 91
1, 1264833, Note_on_c, 0, 42, 107
1, 1264843, Note_on_c, 0, 30, 84
1, 1264858, Note_off_c, 0, 76, 62
1, 1264882, Note_off_c, 0, 30, 59
1, 1264893, Note_on_c, 0, 80, 74
1, 1264908, Note_off_c, 0, 42, 62
1, 1264933, Note_off_c, 0, 78, 62
1, 1264950, Note_on_c, 0, 82, 81
1, 1264971, Note_off_c, 0, 80, 66
1, 1264993, Note_off_c, 0, 82, 65
1, 1265026, Note_on_c, 0, 83, 84
1, 1265065, Note_off_c, 0, 83, 65
1, 1265096, Control_c, 0, 64, 76
1, 1265106, Note_on_c, 0, 41, 101
1, 1265109, Note_on_c, 0, 37, 91
1, 1265111, Control_c, 0, 64, 0
1, 1265122, Note_on_c, 0, 29, 78
1, 1265124, Note_on_c, 0, 32, 77
1, 1265133, Note_on_c, 0, 85, 104
1, 1265156, Control_c, 0, 64, 43
1, 1265164, Note_on_c, 0, 31, 22
1, 1265170, Control_c, 0, 64, 67
1, 1265175, Note_on_c, 0, 84, 52
1, 1265185, Control_c, 0, 64, 95
1, 1265193, Poly_aftertouch_c, 0, 34, 0
1, 1265198, Note_off_c, 0, 85, 66
1, 1265200, Note_off_c, 0, 31, 34
1, 1265200, Control_c, 0, 64, 127
1, 1265223, Note_off_c, 0, 84, 45
1, 1265245, Note_off_c, 0, 29, 50
1, 1265268, Note_on_c, 0, 73, 103
1, 1265278, Note_off_c, 0, 41, 51
1, 1265296, Note_on_c, 0, 82, 32
1, 1265302, Note_off_c, 0, 73, 62
1, 1265308, Poly_aftertouch_c, 0, 34, 0
1, 1265323, Note_off_c, 0, 32, 57
1, 1265335, Note_off_c, 0, 82, 54
1, 1265347, Note_off_c, 0, 37, 59
1, 1265374, Poly_aftertouch_c, 0, 34, 0
1, 1265425, Note_on_c, 0, 97, 118
1, 1265459, Note_on_c, 0, 95, 51
1, 1265499, Note_off_c, 0, 95, 43
1, 1265535, Note_off_c, 0, 97, 64
1, 1265552, Note_on_c, 0, 85, 101
1, 1265583, Note_off_c, 0, 85, 67
1, 1265742, Control_c, 0, 64, 93
1, 1265744, Note_on_c, 0, 41, 102
1, 1265750, Note_on_c, 0, 85, 96
1, 1265752, Note_on_c, 0, 73, 103
1, 1265757, Note_on_c, 0, 80, 85
1, 1265757, Control_c, 0, 64, 60
1, 1265765, Note_on_c, 0, 82, 15
1, 1265772, Control_c, 0, 64, 38
1, 1265787, Control_c, 0, 64, 60
1, 1265801, Control_c, 0, 64, 89
1, 1265816, Control_c, 0, 64, 127
1, 1265844, Note_off_c, 0, 85, 64
1, 1265866, Note_off_c, 0, 73, 63
1, 1265869, Note_on_c, 0, 44, 80
1, 1265889, Note_off_c, 0, 41, 58
1, 1265916, Note_off_c, 0, 80, 59
1, 1265963, Note_on_c, 0, 49, 67
1, 1265967, Note_off_c, 0, 44, 64
1, 1265981, Note_on_c, 0, 48, 72
1, 1265987, Note_off_c, 0, 82, 38
1, 1266011, Note_off_c, 0, 48, 66
1, 1266043, Note_on_c, 0, 53, 81
1, 1266069, Note_off_c, 0, 49, 43
1, 1266089, Note_off_c, 0, 53, 65
1, 1266139, Note_on_c, 0, 56, 78
1, 1266170, Note_off_c, 0, 56, 54
1, 1266175, Note_on_c, 0, 85, 90
1, 1266176, Note_on_c, 0, 73, 97
1, 1266179, Note_on_c, 0, 80, 81
1, 1266179, Note_on_c, 0, 57, 48
1, 1266200, Note_on_c, 0, 75, 55
1, 1266206, Note_on_c, 0, 61, 83
1, 1266206, Note_off_c, 0, 57, 56
1, 1266222, Note_on_c, 0, 86, 31
1, 1266223, Note_off_c, 0, 75, 61
1, 1266233, Note_off_c, 0, 85, 62
1, 1266248, Note_off_c, 0, 80, 60
1, 1266250, Note_off_c, 0, 61, 60
1, 1266253, Note_off_c, 0, 73, 63
1, 1266259, Note_off_c, 0, 86, 47
1, 1266316, Note_on_c, 0, 81, 105
1, 1266319, Control_c, 0, 64, 84
1, 1266321, Note_on_c, 0, 78, 105
1, 1266334, Note_on_c, 0, 42, 88
1, 1266334, Control_c, 0, 64, 52
1, 1266349, Control_c, 0, 64, 0
1, 1266376, Note_on_c, 0, 44, 29
1, 1266379, Control_c, 0, 64, 58
1, 1266394, Control_c, 0, 64, 84
1, 1266396, Note_off_c, 0, 78, 62
1, 1266405, Note_off_c, 0, 42, 62
1, 1266408, Control_c, 0, 64, 127
1, 1266414, Note_off_c, 0, 44, 54
1, 1266419, Note_on_c, 0, 73, 94
1, 1266429, Note_on_c, 0, 54, 76
1, 1266447, Note_off_c, 0, 81, 60
1, 1266472, Note_off_c, 0, 54, 61
1, 1266509, Note_on_c, 0, 42, 82
1, 1266511, Note_on_c, 0, 81, 87
1, 1266513, Note_on_c, 0, 78, 82
1, 1266518, Note_off_c, 0, 73, 57
1, 1266519, Note_on_c, 0, 44, 57
1, 1266537, Note_off_c, 0, 42, 65
1, 1266540, Note_on_c, 0, 74, 24
1, 1266547, Note_off_c, 0, 44, 58
1, 1266553, Note_off_c, 0, 81, 65
1, 1266556, Note_off_c, 0, 78, 66
1, 1266581, Note_off_c, 0, 74, 44
1, 1266594, Control_c, 0, 64, 105
1, 1266609, Control_c, 0, 64, 64
1, 1266611, Note_on_c, 0, 83, 101
1, 1266617, Note_on_c, 0, 35, 96
1, 1266618, Note_on_c, 0, 80, 97
1, 1266624, Control_c, 0, 64, 0
1, 1266632, Note_on_c, 0, 81, 82
1, 1266654, Control_c, 0, 64, 50
1, 1266658, Note_off_c, 0, 81, 62
1, 1266668, Control_c, 0, 64, 69
1, 1266683, Control_c, 0, 64, 98
1, 1266695, Note_off_c, 0, 35, 60
1, 1266698, Control_c, 0, 64, 127
1, 1266701, Note_on_c, 0, 74, 91
1, 1266707, Note_on_c, 0, 47, 87
1, 1266721, Note_off_c, 0, 80, 62
1, 1266721, Note_off_c, 0, 83, 61
1, 1266751, Note_on_c, 0, 72, 21
1, 1266754, Note_off_c, 0, 74, 66
1, 1266757, Note_off_c, 0, 47, 64
1, 1266790, Note_off_c, 0, 72, 42
1, 1266799, Note_on_c, 0, 35, 80
1, 1266799, Note_on_c, 0, 83, 94
1, 1266805, Note_on_c, 0, 80, 90
1, 1266825, Note_off_c, 0, 35, 65
1, 1266850, Note_off_c, 0, 83, 63
1, 1266851, Note_off_c, 0, 80, 63
1, 1266876, Control_c, 0, 64, 98
1, 1266891, Control_c, 0, 64, 57
1, 1266898, Note_on_c, 0, 81, 93
1, 1266906, Note_on_c, 0, 78, 100
1, 1266906, Control_c, 0, 64, 0
1, 1266907, Note_on_c, 0, 37, 82
1, 1266935, Control_c, 0, 64, 56
1, 1266949, Note_on_c, 0, 80, 9
1, 1266950, Control_c, 0, 64, 73
1, 1266965, Control_c, 0, 64, 127
1, 1266971, Note_on_c, 0, 77, 38
1, 1266984, Note_off_c, 0, 37, 60
1, 1266987, Note_on_c, 0, 73, 93
1, 1266997, Note_on_c, 0, 49, 87
1, 1266998, Note_off_c, 0, 77, 58
1, 1266999, Note_off_c, 0, 78, 57
1, 1267005, Note_off_c, 0, 80, 25
1, 1267025, Note_off_c, 0, 81, 62
1, 1267058, Note_off_c, 0, 49, 64
1, 1267083, Note_on_c, 0, 81, 88
1, 1267085, Note_on_c, 0, 37, 86
1, 1267085, Note_on_c, 0, 78, 89
1, 1267100, Note_off_c, 0, 73, 61
1, 1267125, Note_off_c, 0, 37, 59
1, 1267130, Note_off_c, 0, 78, 65
1, 1267136, Note_off_c, 0, 81, 65
1, 1267187, Note_on_c, 0, 80, 88
1, 1267191, Note_on_c, 0, 77, 87
1, 1267195, Note_on_c, 0, 37, 86
1, 1267201, Note_on_c, 0, 82, 73
1, 1267225, Note_off_c, 0, 82, 66
1, 1267273, Note_off_c, 0, 37, 55
1, 1267275, Note_on_c, 0, 73, 90
1, 1267284, Note_off_c, 0, 77, 59
1, 1267287, Note_on_c, 0, 49, 81
1, 1267289, Poly_aftertouch_c, 0, 39, 0
1, 1267290, Note_off_c, 0, 80, 64
1, 1267331, Note_on_c, 0, 43, 8
1, 1267347, Note_off_c, 0, 49, 62
1, 1267354, Note_on_c, 0, 77, 84
1, 1267365, Note_off_c, 0, 73, 59
1, 1267365, Note_on_c, 0, 80, 81
1, 1267371, Note_on_c, 0, 37, 79
1, 1267378, Note_off_c, 0, 77, 67
1, 1267385, Note_off_c, 0, 80, 71
1, 1267410, Note_off_c, 0, 37, 49
1, 1267445, Poly_aftertouch_c, 0, 39, 127
1, 1267470, Note_off_c, 0, 43, 35
1, 1267480, Note_on_c, 0, 38, 104
1, 1267485, Poly_aftertouch_c, 0, 39, 0
1, 1267535, Control_c, 0, 64, 77
1, 1267550, Control_c, 0, 64, 44
1, 1267565, Control_c, 0, 64, 0
1, 1267571, Note_on_c, 0, 54, 78
1, 1267624, Control_c, 0, 64, 63
1, 1267639, Note_on_c, 0, 56, 78
1, 1267639, Control_c, 0, 64, 82
1, 1267649, Note_off_c, 0, 54, 62
1, 1267654, Control_c, 0, 64, 127
1, 1267675, Note_off_c, 0, 38, 63
1, 1267681, Note_off_c, 0, 56, 59
1, 1267704, Note_on_c, 0, 57, 89
1, 1267776, Note_on_c, 0, 59, 82
1, 1267794, Note_off_c, 0, 57, 62
1, 1267836, Note_on_c, 0, 61, 84
1, 1267851, Note_off_c, 0, 59, 63
1, 1267878, Note_off_c, 0, 61, 60
1, 1267907, Note_on_c, 0, 62, 91
1, 1267988, Note_on_c, 0, 64, 84
1, 1267997, Note_off_c, 0, 62, 61
1, 1268016, Control_c, 0, 64, 93
1, 1268031, Control_c, 0, 64, 64
1, 1268044, Note_on_c, 0, 62, 100
1, 1268046, Control_c, 0, 64, 0
1, 1268052, Note_on_c, 0, 50, 85
1, 1268052, Note_on_c, 0, 66, 78
1, 1268076, Control_c, 0, 64, 55
1, 1268084, Note_on_c, 0, 51, 39
1, 1268085, Note_off_c, 0, 64, 61
1, 1268090, Control_c, 0, 64, 70
1, 1268105, Control_c, 0, 64, 103
1, 1268111, Note_off_c, 0, 62, 55
1, 1268118, Note_on_c, 0, 68, 77
1, 1268120, Note_off_c, 0, 51, 54
1, 1268121, Control_c, 0, 64, 127
1, 1268143, Note_off_c, 0, 66, 63
1, 1268158, Note_off_c, 0, 68, 64
1, 1268188, Note_on_c, 0, 69, 84
1, 1268251, Note_on_c, 0, 71, 80
1, 1268275, Note_off_c, 0, 50, 59
1, 1268280, Note_off_c, 0, 69, 61
1, 1268311, Note_on_c, 0, 73, 84
1, 1268313, Note_on_c, 0, 61, 106
1, 1268319, Note_on_c, 0, 49, 85
1, 1268351, Note_off_c, 0, 71, 64
1, 1268355, Note_on_c, 0, 75, 74
1, 1268361, Note_off_c, 0, 61, 60
1, 1268375, Note_off_c, 0, 49, 60
1, 1268386, Note_off_c, 0, 73, 65
1, 1268398, Note_off_c, 0, 75, 61
1, 1268432, Note_on_c, 0, 77, 86
1, 1268496, Note_on_c, 0, 78, 89
1, 1268498, Note_off_c, 0, 77, 59
1, 1268531, Note_off_c, 0, 78, 63
1, 1268551, Control_c, 0, 64, 93
1, 1268565, Control_c, 0, 64, 58
1, 1268571, Note_on_c, 0, 60, 104
1, 1268576, Note_on_c, 0, 56, 88
1, 1268580, Control_c, 0, 64, 0
1, 1268585, Note_on_c, 0, 51, 70
1, 1268587, Note_on_c, 0, 48, 71
1, 1268592, Note_on_c, 0, 80, 104
1, 1268610, Control_c, 0, 64, 58
1, 1268612, Note_on_c, 0, 81, 77
1, 1268625, Control_c, 0, 64, 78
1, 1268639, Control_c, 0, 64, 127
1, 1268641, Note_off_c, 0, 60, 61
1, 1268646, Note_off_c, 0, 81, 56
1, 1268677, Note_off_c, 0, 48, 39
1, 1268722, Note_off_c, 0, 80, 60
1, 1268734, Note_off_c, 0, 56, 59
1, 1268754, Note_on_c, 0, 68, 95
1, 1268759, Note_off_c, 0, 51, 61
1, 1268769, Note_off_c, 0, 68, 73
1, 1268782, Note_on_c, 0, 76, 50
1, 1268805, Note_off_c, 0, 76, 58
1, 1268900, Note_on_c, 0, 92, 105
1, 1268928, Note_on_c, 0, 90, 64
1, 1268961, Note_off_c, 0, 90, 51
1, 1269002, Note_off_c, 0, 92, 62
1, 1269023, Note_on_c, 0, 80, 101
1, 1269052, Note_off_c, 0, 80, 62
1, 1269196, Control_c, 0, 64, 79
1, 1269196, Note_on_c, 0, 50, 100
1, 1269205, Note_on_c, 0, 38, 86
1, 1269208, Note_on_c, 0, 66, 81
1, 1269210, Control_c, 0, 64, 46
1, 1269225, Control_c, 0, 64, 0
1, 1269234, Note_on_c, 0, 39, 50
1, 1269240, Control_c, 0, 64, 42
1, 1269255, Control_c, 0, 64, 65
1, 1269263, Note_off_c, 0, 39, 56
1, 1269270, Control_c, 0, 64, 90
1, 1269275, Note_on_c, 0, 68, 79
1, 1269279, Note_off_c, 0, 50, 62
1, 1269284, Note_off_c, 0, 66, 63
1, 1269285, Control_c, 0, 64, 127
1, 1269315, Note_off_c, 0, 68, 62
1, 1269339, Note_on_c, 0, 69, 85
1, 1269411, Note_on_c, 0, 71, 82
1, 1269446, Note_off_c, 0, 69, 61
1, 1269456, Note_off_c, 0, 38, 60
1, 1269475, Note_on_c, 0, 73, 79
1, 1269484, Note_on_c, 0, 49, 109
1, 1269493, Note_on_c, 0, 37, 84
1, 1269516, Note_off_c, 0, 49, 69
1, 1269523, Note_off_c, 0, 37, 65
1, 1269523, Note_off_c, 0, 71, 63
1, 1269528, Note_on_c, 0, 75, 74
1, 1269553, Note_off_c, 0, 73, 64
1, 1269566, Note_off_c, 0, 75, 60
1, 1269610, Note_on_c, 0, 77, 78
1, 1269640, Note_off_c, 0, 77, 57
1, 1269673, Note_on_c, 0, 78, 91
1, 1269705, Note_off_c, 0, 78, 62
1, 1269719, Poly_aftertouch_c, 0, 39, 127
1, 1269741, Poly_aftertouch_c, 0, 39, 0
1, 1269752, Note_on_c, 0, 48, 105
1, 1269753, Note_on_c, 0, 44, 100
1, 1269755, Note_on_c, 0, 39, 59
1, 1269765, Note_on_c, 0, 36, 74
1, 1269766, Control_c, 0, 64, 66
1, 1269768, Note_on_c, 0, 80, 105
1, 1269769, Note_on_c, 0, 42, 61
1, 1269781, Control_c, 0, 64, 0
1, 1269787, Note_on_c, 0, 38, 51
1, 1269795, Note_off_c, 0, 42, 60
1, 1269823, Note_off_c, 0, 38, 48
1, 1269825, Control_c, 0, 64, 50
1, 1269840, Control_c, 0, 64, 78
1, 1269855, Control_c, 0, 64, 127
1, 1269889, Note_off_c, 0, 80, 61
1, 1269908, Note_on_c, 0, 68, 98
1, 1269944, Note_on_c, 0, 76, 34
1, 1269944, Note_off_c, 0, 68, 63
1, 1269952, Note_on_c, 0, 70, 19
1, 1269973, Note_off_c, 0, 76, 53
1, 1269991, Note_off_c, 0, 48, 47
1, 1269991, Note_off_c, 0, 70, 41
1, 1270062, Note_off_c, 0, 36, 35
1, 1270073, Note_on_c, 0, 92, 106
1, 1270089, Note_on_c, 0, 90, 82
1, 1270108, Note_off_c, 0, 90, 67
1, 1270182, Note_off_c, 0, 92, 64
1, 1270206, Note_on_c, 0, 80, 97
1, 1270218, Note_off_c, 0, 44, 57
1, 1270240, Note_off_c, 0, 80, 62
1, 1270391, Note_off_c, 0, 39, 37
1, 1270398, Note_on_c, 0, 36, 107
1, 1270403, Note_on_c, 0, 75, 53
1, 1270406, Note_on_c, 0, 80, 96
1, 1270406, Note_on_c, 0, 68, 103
1, 1270410, Control_c, 0, 64, 66
1, 1270417, Note_on_c, 0, 70, 75
1, 1270425, Control_c, 0, 64, 0
1, 1270433, Note_off_c, 0, 70, 43
1, 1270440, Control_c, 0, 64, 47
1, 1270455, Note_on_c, 0, 78, 17
1, 1270455, Control_c, 0, 64, 66
1, 1270470, Control_c, 0, 64, 127
1, 1270492, Note_off_c, 0, 80, 56
1, 1270505, Note_off_c, 0, 78, 46
1, 1270507, Note_on_c, 0, 39, 73
1, 1270510, Note_off_c, 0, 68, 63
1, 1270531, Note_off_c, 0, 36, 58
1, 1270558, Note_off_c, 0, 75, 62
1, 1270595, Note_on_c, 0, 44, 80
1, 1270612, Note_off_c, 0, 39, 60
1, 1270662, Note_off_c, 0, 44, 62
1, 1270671, Note_on_c, 0, 48, 80
1, 1270719, Note_off_c, 0, 48, 63
1, 1270763, Note_on_c, 0, 51, 79
1, 1270803, Note_on_c, 0, 80, 91
1, 1270805, Note_on_c, 0, 68, 93
1, 1270811, Note_on_c, 0, 75, 80
1, 1270847, Note_on_c, 0, 56, 80
1, 1270857, Note_off_c, 0, 51, 60
1, 1270878, Note_off_c, 0, 80, 61
1, 1270882, Note_off_c, 0, 75, 59
1, 1270883, Note_off_c, 0, 56, 61
1, 1270907, Note_off_c, 0, 68, 63
1, 1270963, Note_on_c, 0, 76, 108
1, 1270970, Note_on_c, 0, 73, 102
1, 1270982, Control_c, 0, 64, 72
1, 1270984, Note_on_c, 0, 37, 95
1, 1270997, Control_c, 0, 64, 0
1, 1271027, Control_c, 0, 64, 40
1, 1271041, Control_c, 0, 64, 59
1, 1271052, Note_off_c, 0, 37, 59
1, 1271056, Control_c, 0, 64, 76
1, 1271058, Note_off_c, 0, 73, 57
1, 1271064, Note_on_c, 0, 68, 89
1, 1271071, Control_c, 0, 64, 127
1, 1271074, Note_on_c, 0, 49, 84
1, 1271078, Note_off_c, 0, 76, 59
1, 1271109, Note_off_c, 0, 49, 62
1, 1271156, Note_on_c, 0, 73, 84
1, 1271157, Note_on_c, 0, 37, 80
1, 1271163, Note_on_c, 0, 76, 76
1, 1271175, Note_off_c, 0, 68, 62
1, 1271182, Note_on_c, 0, 39, 45
1, 1271182, Note_off_c, 0, 37, 64
1, 1271190, Note_off_c, 0, 76, 65
1, 1271201, Note_off_c, 0, 73, 59
1, 1271219, Note_off_c, 0, 39, 47
1, 1271234, Control_c, 0, 64, 88
1, 1271249, Control_c, 0, 64, 55
1, 1271249, Note_on_c, 0, 78, 100
1, 1271257, Note_on_c, 0, 30, 99
1, 1271258, Note_on_c, 0, 75, 73
1, 1271264, Control_c, 0, 64, 0
1, 1271267, Note_on_c, 0, 79, 89
1, 1271269, Note_on_c, 0, 76, 85
1, 1271273, Note_on_c, 0, 77, 67
1, 1271278, Control_c, 0, 64, 45
1, 1271293, Note_off_c, 0, 75, 50
1, 1271293, Control_c, 0, 64, 63
1, 1271300, Note_on_c, 0, 31, 29
1, 1271300, Note_off_c, 0, 31, 127
1, 1271309, Control_c, 0, 64, 90
1, 1271317, Note_off_c, 0, 77, 47
1, 1271324, Control_c, 0, 64, 127
1, 1271328, Note_off_c, 0, 79, 62
1, 1271334, Note_off_c, 0, 30, 59
1, 1271346, Poly_aftertouch_c, 0, 31, 0
1, 1271351, Note_off_c, 0, 76, 61
1, 1271354, Note_on_c, 0, 69, 75
1, 1271357, Note_on_c, 0, 42, 86
1, 1271362, Note_off_c, 0, 78, 61
1, 1271399, Note_off_c, 0, 69, 60
1, 1271416, Note_off_c, 0, 42, 64
1, 1271441, Note_on_c, 0, 30, 85
1, 1271441, Note_on_c, 0, 78, 93
1, 1271445, Note_on_c, 0, 75, 86
1, 1271479, Note_off_c, 0, 30, 61
1, 1271491, Note_off_c, 0, 78, 62
1, 1271493, Note_off_c, 0, 75, 63
1, 1271531, Control_c, 0, 64, 71
1, 1271545, Note_on_c, 0, 76, 109
1, 1271546, Control_c, 0, 64, 0
1, 1271552, Note_on_c, 0, 32, 80
1, 1271569, Note_on_c, 0, 74, 81
1, 1271573, Note_on_c, 0, 73, 50
1, 1271573, Note_on_c, 0, 78, 60
1, 1271575, Control_c, 0, 64, 56
1, 1271587, Note_on_c, 0, 31, 41
1, 1271590, Control_c, 0, 64, 76
1, 1271601, Note_off_c, 0, 73, 35
1, 1271605, Control_c, 0, 64, 127
1, 1271624, Note_off_c, 0, 78, 44
1, 1271627, Note_off_c, 0, 31, 44
1, 1271639, Note_off_c, 0, 32, 59
1, 1271639, Note_off_c, 0, 74, 61
1, 1271647, Note_on_c, 0, 44, 89
1, 1271654, Note_on_c, 0, 68, 81
1, 1271669, Note_off_c, 0, 76, 54
1, 1271708, Note_off_c, 0, 44, 63
1, 1271716, Poly_aftertouch_c, 0, 38, 127
1, 1271746, Note_on_c, 0, 32, 92
1, 1271747, Note_on_c, 0, 73, 89
1, 1271751, Note_on_c, 0, 76, 89
1, 1271768, Note_off_c, 0, 68, 63
1, 1271779, Poly_aftertouch_c, 0, 38, 0
1, 1271793, Note_off_c, 0, 73, 63
1, 1271793, Note_off_c, 0, 32, 55
1, 1271803, Note_off_c, 0, 76, 64
1, 1271837, Poly_aftertouch_c, 0, 34, 0
1, 1271846, Note_on_c, 0, 75, 96
1, 1271849, Note_on_c, 0, 72, 89
1, 1271852, Note_on_c, 0, 32, 88
1, 1271863, Note_on_c, 0, 76, 62
1, 1271899, Note_off_c, 0, 76, 56
1, 1271941, Note_on_c, 0, 44, 82
1, 1271942, Poly_aftertouch_c, 0, 34, 0
1, 1271947, Note_on_c, 0, 68, 89
1, 1271958, Note_on_c, 0, 38, 47
1, 1271958, Note_off_c, 0, 32, 57
1, 1271960, Note_off_c, 0, 75, 62
1, 1271974, Note_off_c, 0, 72, 55
1, 1271982, Note_off_c, 0, 44, 62
1, 1272016, Note_on_c, 0, 32, 72
1, 1272017, Note_off_c, 0, 68, 62
1, 1272024, Note_on_c, 0, 72, 63
1, 1272047, Note_on_c, 0, 75, 83
1, 1272063, Note_off_c, 0, 38, 48
1, 1272064, Note_off_c, 0, 72, 62
1, 1272068, Note_on_c, 0, 31, 43
1, 1272088, Note_off_c, 0, 75, 64
1, 1272102, Note_off_c, 0, 32, 57
1, 1272112, Note_off_c, 0, 31, 42
1, 1272120, Note_on_c, 0, 73, 110
1, 1272122, Note_on_c, 0, 37, 81
1, 1272138, Note_on_c, 0, 38, 39
1, 1272151, Note_off_c, 0, 73, 70
1, 1272197, Note_off_c, 0, 38, 41
1, 1272211, Note_on_c, 0, 36, 81
1, 1272223, Note_off_c, 0, 37, 59
1, 1272236, Control_c, 0, 64, 89
1, 1272251, Control_c, 0, 64, 69
1, 1272266, Control_c, 0, 64, 50
1, 1272280, Control_c, 0, 64, 0
1, 1272310, Note_on_c, 0, 37, 73
1, 1272325, Note_off_c, 0, 36, 53
1, 1272434, Note_off_c, 0, 37, 56
1, 1272458, Note_on_c, 0, 40, 40
1, 1272489, Note_on_c, 0, 52, 53
1, 1272490, Note_on_c, 0, 64, 59
1, 1272529, Note_off_c, 0, 40, 57
1, 1272539, Control_c, 0, 64, 35
1, 1272554, Control_c, 0, 64, 60
1, 1272567, Note_on_c, 0, 37, 53
1, 1272569, Control_c, 0, 64, 71
1, 1272584, Control_c, 0, 64, 81
1, 1272599, Control_c, 0, 64, 98
1, 1272613, Control_c, 0, 64, 127
1, 1272641, Note_off_c, 0, 37, 56
1, 1272665, Note_off_c, 0, 52, 39
1, 1272674, Note_on_c, 0, 40, 47
1, 1272759, Note_off_c, 0, 40, 54
1, 1272768, Note_on_c, 0, 37, 57
1, 1272776, Control_c, 0, 64, 90
1, 1272791, Control_c, 0, 64, 74
1, 1272805, Control_c, 0, 64, 66
1, 1272820, Control_c, 0, 64, 65
1, 1272835, Control_c, 0, 64, 67
1, 1272838, Note_on_c, 0, 36, 74
1, 1272838, Note_off_c, 0, 37, 60
1, 1272850, Control_c, 0, 64, 74
1, 1272865, Control_c, 0, 64, 88
1, 1272880, Control_c, 0, 64, 118
1, 1272895, Control_c, 0, 64, 127
1, 1272921, Note_on_c, 0, 37, 78
1, 1272966, Note_off_c, 0, 36, 54
1, 1273038, Note_off_c, 0, 64, 62
1, 1273043, Note_off_c, 0, 37, 59
1, 1273056, Note_on_c, 0, 40, 71
1, 1273063, Note_on_c, 0, 69, 83
1, 1273064, Note_on_c, 0, 57, 80
1, 1273106, Note_off_c, 0, 57, 58
1, 1273129, Note_off_c, 0, 69, 58
1, 1273143, Note_off_c, 0, 40, 56
1, 1273157, Note_on_c, 0, 37, 76
1, 1273238, Note_off_c, 0, 37, 59
1, 1273265, Note_on_c, 0, 40, 70
1, 1273348, Control_c, 0, 64, 111
1, 1273362, Poly_aftertouch_c, 0, 35, 127
1, 1273363, Control_c, 0, 64, 73
1, 1273378, Control_c, 0, 64, 54
1, 1273387, Note_on_c, 0, 68, 85
1, 1273391, Note_on_c, 0, 37, 58
1, 1273393, Note_on_c, 0, 56, 78
1, 1273393, Control_c, 0, 64, 0
1, 1273397, Poly_aftertouch_c, 0, 35, 0
1, 1273397, Note_off_c, 0, 40, 55
1, 1273408, Control_c, 0, 64, 43
1, 1273423, Control_c, 0, 64, 59
1, 1273437, Control_c, 0, 64, 69
1, 1273452, Control_c, 0, 64, 83
1, 1273467, Control_c, 0, 64, 127
1, 1273489, Note_on_c, 0, 36, 78
1, 1273489, Note_off_c, 0, 37, 60
1, 1273527, Note_off_c, 0, 68, 56
1, 1273554, Note_off_c, 0, 56, 58
1, 1273583, Note_on_c, 0, 37, 84
1, 1273622, Note_off_c, 0, 36, 58
1, 1273689, Note_on_c, 0, 55, 87
1, 1273691, Note_on_c, 0, 67, 84
1, 1273691, Note_off_c, 0, 37, 60
1, 1273706, Note_on_c, 0, 40, 89
1, 1273722, Note_on_c, 0, 66, 43
1, 1273731, Note_off_c, 0, 55, 58
1, 1273740, Note_off_c, 0, 67, 64
1, 1273752, Note_off_c, 0, 66, 54
1, 1273804, Note_on_c, 0, 37, 80
1, 1273807, Note_off_c, 0, 40, 60
1, 1273838, Control_c, 0, 64, 99
1, 1273852, Control_c, 0, 64, 87
1, 1273867, Control_c, 0, 64, 77
1, 1273880, Note_off_c, 0, 37, 56
1, 1273882, Control_c, 0, 64, 69
1, 1273896, Control_c, 0, 64, 62
1, 1273902, Note_on_c, 0, 40, 70
1, 1273911, Control_c, 0, 64, 50
1, 1273933, Control_c, 0, 64, 0
1, 1273983, Note_on_c, 0, 56, 98
1, 1273989, Note_on_c, 0, 68, 98
1, 1273991, Note_on_c, 0, 64, 81
1, 1273992, Note_on_c, 0, 61, 84
1, 1273996, Note_on_c, 0, 37, 84
1, 1274022, Control_c, 0, 64, 66
1, 1274035, Note_on_c, 0, 38, 39
1, 1274035, Note_on_c, 0, 66, 44
1, 1274037, Control_c, 0, 64, 127
1, 1274060, Note_off_c, 0, 40, 23
1, 1274074, Note_off_c, 0, 38, 53
1, 1274094, Note_off_c, 0, 68, 61
1, 1274096, Note_off_c, 0, 56, 59
1, 1274099, Note_off_c, 0, 37, 60
1, 1274105, Note_on_c, 0, 36, 73
1, 1274171, Note_off_c, 0, 64, 55
1, 1274174, Note_off_c, 0, 66, 23
1, 1274201, Note_on_c, 0, 37, 72
1, 1274202, Note_off_c, 0, 61, 34
1, 1274206, Note_off_c, 0, 36, 51
1, 1274280, Note_off_c, 0, 37, 59
1, 1274302, Note_on_c, 0, 40, 63
1, 1274360, Note_off_c, 0, 40, 56
1, 1274391, Note_on_c, 0, 37, 64
1, 1274426, Poly_aftertouch_c, 0, 35, 0
1, 1274436, Note_off_c, 0, 37, 60
1, 1274481, Control_c, 0, 64, 110
1, 1274490, Note_on_c, 0, 40, 51
1, 1274497, Control_c, 0, 64, 92
1, 1274512, Control_c, 0, 64, 76
1, 1274526, Control_c, 0, 64, 62
1, 1274541, Control_c, 0, 64, 0
1, 1274594, Note_off_c, 0, 40, 48
1, 1274618, Note_on_c, 0, 68, 64
1, 1274628, Note_on_c, 0, 56, 48
1, 1274630, Control_c, 0, 64, 36
1, 1274635, Note_on_c, 0, 39, 48
1, 1274645, Control_c, 0, 64, 59
1, 1274660, Control_c, 0, 64, 72
1, 1274682, Control_c, 0, 64, 86
1, 1274697, Control_c, 0, 64, 113
1, 1274712, Control_c, 0, 64, 127
1, 1274722, Note_off_c, 0, 39, 60
1, 1274739, Note_on_c, 0, 38, 68
1, 1274786, Note_off_c, 0, 56, 37
1, 1274791, Note_off_c, 0, 68, 36
1, 1274824, Note_on_c, 0, 39, 83
1, 1274853, Note_off_c, 0, 38, 55
1, 1274919, Note_off_c, 0, 39, 58
1, 1274922, Note_on_c, 0, 55, 93
1, 1274926, Note_on_c, 0, 67, 84
1, 1274927, Note_on_c, 0, 42, 90
1, 1274967, Note_off_c, 0, 55, 60
1, 1274973, Note_off_c, 0, 67, 63
1, 1275009, Note_off_c, 0, 42, 64
1, 1275010, Note_on_c, 0, 39, 86
1, 1275088, Note_on_c, 0, 42, 87
1, 1275095, Note_off_c, 0, 39, 60
1, 1275097, Control_c, 0, 64, 105
1, 1275112, Control_c, 0, 64, 89
1, 1275126, Control_c, 0, 64, 75
1, 1275141, Control_c, 0, 64, 62
1, 1275156, Control_c, 0, 64, 0
1, 1275179, Note_off_c, 0, 42, 61
1, 1275211, Note_on_c, 0, 39, 87
1, 1275212, Note_on_c, 0, 56, 105
1, 1275215, Note_on_c, 0, 68, 98
1, 1275220, Note_on_c, 0, 63, 86
1, 1275225, Note_on_c, 0, 66, 84
1, 1275244, Control_c, 0, 64, 66
1, 1275259, Control_c, 0, 64, 127
1, 1275304, Note_off_c, 0, 56, 61
1, 1275310, Note_on_c, 0, 38, 65
1, 1275321, Note_off_c, 0, 39, 60
1, 1275326, Note_off_c, 0, 68, 56
1, 1275395, Note_off_c, 0, 63, 58
1, 1275402, Note_off_c, 0, 66, 54
1, 1275430, Note_on_c, 0, 39, 74
1, 1275431, Note_off_c, 0, 38, 60
1, 1275503, Note_off_c, 0, 39, 58
1, 1275527, Note_on_c, 0, 42, 73
1, 1275598, Note_off_c, 0, 42, 60
1, 1275620, Note_on_c, 0, 39, 67
1, 1275672, Note_off_c, 0, 39, 60
1, 1275718, Note_on_c, 0, 42, 55
1, 1275786, Control_c, 0, 64, 95
1, 1275801, Control_c, 0, 64, 73
1, 1275816, Control_c, 0, 64, 56
1, 1275818, Note_off_c, 0, 42, 56
1, 1275831, Control_c, 0, 64, 0
1, 1275855, Note_on_c, 0, 40, 37
1, 1275862, Note_on_c, 0, 68, 64
1, 1275864, Note_on_c, 0, 56, 52
1, 1275875, Control_c, 0, 64, 33
1, 1275890, Control_c, 0, 64, 55
1, 1275905, Control_c, 0, 64, 68
1, 1275920, Control_c, 0, 64, 83
1, 1275924, Note_off_c, 0, 40, 60
1, 1275935, Control_c, 0, 64, 127
1, 1275949, Note_on_c, 0, 39, 69
1, 1276017, Note_off_c, 0, 68, 50
1, 1276019, Note_off_c, 0, 56, 58
1, 1276035, Note_on_c, 0, 40, 73
1, 1276126, Note_off_c, 0, 39, 36
1, 1276151, Note_on_c, 0, 44, 89
1, 1276154, Note_off_c, 0, 40, 56
1, 1276159, Note_on_c, 0, 55, 92
1, 1276163, Note_on_c, 0, 67, 91
1, 1276184, Note_off_c, 0, 55, 72
1, 1276213, Note_off_c, 0, 67, 63
1, 1276249, Note_off_c, 0, 44, 62
1, 1276255, Note_on_c, 0, 40, 71
1, 1276314, Note_off_c, 0, 40, 59
1, 1276336, Note_on_c, 0, 44, 86
1, 1276344, Control_c, 0, 64, 103
1, 1276359, Control_c, 0, 64, 84
1, 1276373, Control_c, 0, 64, 71
1, 1276388, Control_c, 0, 64, 56
1, 1276403, Control_c, 0, 64, 0
1, 1276427, Note_off_c, 0, 44, 62
1, 1276448, Note_on_c, 0, 40, 76
1, 1276452, Note_on_c, 0, 61, 101
1, 1276454, Note_on_c, 0, 73, 103
1, 1276458, Note_on_c, 0, 68, 91
1, 1276477, Control_c, 0, 64, 44
1, 1276479, Note_on_c, 0, 70, 53
1, 1276492, Control_c, 0, 64, 79
1, 1276506, Control_c, 0, 64, 127
1, 1276532, Note_off_c, 0, 73, 62
1, 1276550, Note_off_c, 0, 61, 57
1, 1276556, Note_off_c, 0, 40, 60
1, 1276558, Note_on_c, 0, 39, 75
1, 1276582, Note_off_c, 0, 70, 27
1, 1276612, Note_off_c, 0, 68, 56
1, 1276657, Note_off_c, 0, 39, 60
1, 1276663, Note_on_c, 0, 40, 66
1, 1276743, Note_off_c, 0, 40, 59
1, 1276769, Note_on_c, 0, 44, 68
1, 1276831, Note_off_c, 0, 44, 60
1, 1276860, Note_on_c, 0, 40, 54
1, 1276897, Note_off_c, 0, 40, 62
1, 1276956, Note_on_c, 0, 44, 62
1, 1277033, Control_c, 0, 64, 80
1, 1277043, Note_off_c, 0, 44, 59
1, 1277047, Control_c, 0, 64, 61
1, 1277062, Control_c, 0, 64, 0
1, 1277079, Note_on_c, 0, 42, 48
1, 1277089, Note_on_c, 0, 57, 56
1, 1277092, Note_on_c, 0, 69, 60
1, 1277092, Control_c, 0, 64, 50
1, 1277107, Control_c, 0, 64, 65
1, 1277122, Control_c, 0, 64, 79
1, 1277137, Control_c, 0, 64, 127
1, 1277151, Note_off_c, 0, 69, 59
1, 1277171, Note_off_c, 0, 42, 57
1, 1277178, Note_off_c, 0, 57, 59
1, 1277188, Note_on_c, 0, 41, 61
1, 1277280, Note_on_c, 0, 42, 74
1, 1277292, Note_off_c, 0, 41, 50
1, 1277374, Control_c, 0, 64, 82
1, 1277378, Note_off_c, 0, 42, 60
1, 1277380, Note_on_c, 0, 66, 88
1, 1277383, Note_on_c, 0, 54, 83
1, 1277389, Control_c, 0, 64, 63
1, 1277392, Note_on_c, 0, 45, 83
1, 1277403, Control_c, 0, 64, 41
1, 1277418, Control_c, 0, 64, 42
1, 1277433, Control_c, 0, 64, 56
1, 1277447, Control_c, 0, 64, 69
1, 1277462, Control_c, 0, 64, 83
1, 1277469, Note_off_c, 0, 66, 63
1, 1277473, Note_on_c, 0, 42, 86
1, 1277476, Note_off_c, 0, 45, 64
1, 1277477, Control_c, 0, 64, 114
1, 1277492, Note_off_c, 0, 54, 55
1, 1277492, Control_c, 0, 64, 127
1, 1277560, Note_on_c, 0, 45, 95
1, 1277566, Note_off_c, 0, 42, 61
1, 1277654, Control_c, 0, 64, 96
1, 1277658, Note_on_c, 0, 51, 82
1, 1277659, Note_on_c, 0, 63, 86
1, 1277670, Note_on_c, 0, 44, 80
1, 1277676, Control_c, 0, 64, 67
1, 1277688, Note_off_c, 0, 45, 58
1, 1277691, Control_c, 0, 64, 0
1, 1277720, Note_off_c, 0, 51, 60
1, 1277737, Control_c, 0, 64, 33
1, 1277751, Control_c, 0, 64, 61
1, 1277763, Note_on_c, 0, 43, 73
1, 1277766, Control_c, 0, 64, 70
1, 1277773, Note_off_c, 0, 44, 63
1, 1277781, Control_c, 0, 64, 79
1, 1277796, Control_c, 0, 64, 90
1, 1277811, Control_c, 0, 64, 98
1, 1277825, Control_c, 0, 64, 106
1, 1277840, Control_c, 0, 64, 113
1, 1277855, Control_c, 0, 64, 119
1, 1277865, Note_on_c, 0, 44, 81
1, 1277900, Control_c, 0, 64, 107
1, 1277902, Note_off_c, 0, 43, 58
1, 1277915, Control_c, 0, 64, 83
1, 1277930, Control_c, 0, 64, 63
1, 1277944, Control_c, 0, 64, 0
1, 1277946, Note_off_c, 0, 63, 62
1, 1277949, Note_off_c, 0, 44, 61
1, 1277959, Note_on_c, 0, 68, 79
1, 1277963, Note_on_c, 0, 56, 67
1, 1277976, Note_on_c, 0, 48, 67
1, 1277992, Note_off_c, 0, 56, 64
1, 1278004, Control_c, 0, 64, 53
1, 1278018, Note_off_c, 0, 68, 64
1, 1278018, Control_c, 0, 64, 68
1, 1278033, Control_c, 0, 64, 79
1, 1278035, Note_off_c, 0, 48, 53
1, 1278048, Control_c, 0, 64, 107
1, 1278062, Note_on_c, 0, 44, 66
1, 1278063, Control_c, 0, 64, 127
1, 1278105, Note_off_c, 0, 44, 63
1, 1278159, Note_on_c, 0, 48, 59
1, 1278207, Note_off_c, 0, 48, 51
1, 1278240, Note_on_c, 0, 49, 68
1, 1278240, Control_c, 0, 64, 81
1, 1278255, Control_c, 0, 64, 60
1, 1278256, Note_on_c, 0, 73, 54
1, 1278261, Note_off_c, 0, 49, 62
1, 1278269, Control_c, 0, 64, 0
1, 1278284, Note_off_c, 0, 73, 64
1, 1278323, Note_on_c, 0, 72, 59
1, 1278356, Note_off_c, 0, 72, 61
1, 1278377, Note_on_c, 0, 73, 55
1, 1278450, Note_off_c, 0, 73, 58
1, 1278454, Note_on_c, 0, 75, 56
1, 1278492, Note_off_c, 0, 75, 64
1, 1278553, Note_on_c, 0, 52, 71
1, 1278556, Note_on_c, 0, 76, 58
1, 1278591, Note_off_c, 0, 76, 62
1, 1278624, Note_on_c, 0, 78, 61
1, 1278664, Note_off_c, 0, 78, 61
1, 1278699, Note_on_c, 0, 76, 61
1, 1278731, Note_off_c, 0, 76, 61
1, 1278777, Note_on_c, 0, 75, 59
1, 1278829, Note_off_c, 0, 75, 51
1, 1278854, Note_on_c, 0, 73, 51
1, 1278883, Note_off_c, 0, 73, 64
1, 1278923, Note_on_c, 0, 72, 50
1, 1278952, Note_off_c, 0, 72, 62
1, 1278979, Note_on_c, 0, 73, 49
1, 1279022, Note_off_c, 0, 73, 59
1, 1279034, Note_on_c, 0, 75, 52
1, 1279071, Note_off_c, 0, 75, 64
1, 1279140, Note_on_c, 0, 76, 48
1, 1279146, Note_on_c, 0, 57, 67
1, 1279176, Note_off_c, 0, 76, 55
1, 1279205, Note_off_c, 0, 52, 59
1, 1279217, Note_on_c, 0, 78, 52
1, 1279253, Note_off_c, 0, 78, 65
1, 1279274, Note_on_c, 0, 76, 61
1, 1279322, Note_off_c, 0, 76, 55
1, 1279364, Note_on_c, 0, 75, 60
1, 1279425, Note_off_c, 0, 75, 44
1, 1279451, Note_on_c, 0, 73, 59
1, 1279459, Note_on_c, 0, 56, 80
1, 1279484, Note_off_c, 0, 73, 63
1, 1279492, Note_off_c, 0, 57, 63
1, 1279502, Control_c, 0, 64, 44
1, 1279517, Control_c, 0, 64, 63
1, 1279527, Note_on_c, 0, 72, 61
1, 1279531, Control_c, 0, 64, 72
1, 1279546, Control_c, 0, 64, 84
1, 1279561, Control_c, 0, 64, 97
1, 1279576, Control_c, 0, 64, 116
1, 1279581, Note_off_c, 0, 72, 54
1, 1279585, Note_on_c, 0, 73, 63
1, 1279590, Control_c, 0, 64, 127
1, 1279650, Note_on_c, 0, 75, 58
1, 1279670, Note_off_c, 0, 73, 57
1, 1279692, Note_off_c, 0, 75, 59
1, 1279736, Note_on_c, 0, 55, 84
1, 1279746, Note_on_c, 0, 76, 78
1, 1279760, Note_off_c, 0, 56, 60
1, 1279786, Note_off_c, 0, 55, 63
1, 1279805, Note_off_c, 0, 76, 53
1, 1279823, Note_on_c, 0, 78, 69
1, 1279857, Control_c, 0, 64, 111
1, 1279872, Control_c, 0, 64, 86
1, 1279886, Note_off_c, 0, 78, 63
1, 1279887, Control_c, 0, 64, 71
1, 1279902, Control_c, 0, 64, 60
1, 1279923, Note_on_c, 0, 76, 71
1, 1279924, Control_c, 0, 64, 41
1, 1279939, Control_c, 0, 64, 0
1, 1280001, Note_off_c, 0, 76, 56
1, 1280007, Note_on_c, 0, 75, 63
1, 1280057, Control_c, 0, 64, 49
1, 1280058, Note_on_c, 0, 56, 93
1, 1280068, Note_on_c, 0, 52, 72
1, 1280072, Note_on_c, 0, 49, 70
1, 1280072, Control_c, 0, 64, 69
1, 1280081, Note_on_c, 0, 73, 67
1, 1280087, Control_c, 0, 64, 91
1, 1280103, Control_c, 0, 64, 127
1, 1280103, Note_off_c, 0, 75, 51
1, 1280111, Note_on_c, 0, 55, 18
1, 1280112, Note_off_c, 0, 73, 64
1, 1280141, Note_on_c, 0, 72, 71
1, 1280153, Note_off_c, 0, 55, 43
1, 1280212, Note_on_c, 0, 73, 67
1, 1280222, Note_off_c, 0, 72, 57
1, 1280272, Note_on_c, 0, 75, 70
1, 1280293, Note_off_c, 0, 73, 58
1, 1280320, Note_off_c, 0, 75, 58
1, 1280358, Note_on_c, 0, 76, 73
1, 1280389, Note_off_c, 0, 56, 57
1, 1280416, Note_on_c, 0, 78, 71
1, 1280418, Note_off_c, 0, 76, 53
1, 1280484, Note_on_c, 0, 76, 55
1, 1280513, Note_off_c, 0, 78, 52
1, 1280547, Note_off_c, 0, 76, 63
1, 1280559, Note_on_c, 0, 73, 62
1, 1280636, Control_c, 0, 64, 97
1, 1280648, Note_off_c, 0, 73, 54
1, 1280649, Note_on_c, 0, 75, 65
1, 1280651, Control_c, 0, 64, 75
1, 1280654, Note_off_c, 0, 49, 53
1, 1280660, Note_off_c, 0, 52, 58
1, 1280672, Note_on_c, 0, 56, 62
1, 1280673, Control_c, 0, 64, 56
1, 1280688, Note_off_c, 0, 75, 63
1, 1280688, Control_c, 0, 64, 0
1, 1280738, Note_on_c, 0, 74, 63
1, 1280786, Note_off_c, 0, 74, 58
1, 1280792, Note_on_c, 0, 75, 72
1, 1280827, Note_off_c, 0, 75, 59
1, 1280872, Note_on_c, 0, 76, 75
1, 1280896, Control_c, 0, 64, 42
1, 1280911, Control_c, 0, 64, 62
1, 1280925, Note_on_c, 0, 55, 82
1, 1280926, Control_c, 0, 64, 69
1, 1280940, Note_on_c, 0, 78, 85
1, 1280941, Control_c, 0, 64, 80
1, 1280943, Note_off_c, 0, 56, 63
1, 1280956, Control_c, 0, 64, 91
1, 1280967, Note_off_c, 0, 76, 60
1, 1280970, Control_c, 0, 64, 102
1, 1280973, Note_off_c, 0, 55, 63
1, 1280985, Control_c, 0, 64, 114
1, 1281000, Control_c, 0, 64, 127
1, 1281002, Note_on_c, 0, 80, 88
1, 1281005, Note_off_c, 0, 78, 64
1, 1281074, Control_c, 0, 64, 120
1, 1281086, Note_on_c, 0, 78, 63
1, 1281089, Control_c, 0, 64, 107
1, 1281103, Note_on_c, 0, 79, 70
1, 1281104, Control_c, 0, 64, 95
1, 1281119, Note_off_c, 0, 80, 59
1, 1281119, Control_c, 0, 64, 85
1, 1281121, Note_off_c, 0, 79, 68
1, 1281134, Control_c, 0, 64, 72
1, 1281140, Note_on_c, 0, 76, 78
1, 1281149, Control_c, 0, 64, 62
1, 1281154, Note_off_c, 0, 78, 39
1, 1281163, Control_c, 0, 64, 37
1, 1281178, Control_c, 0, 64, 0
1, 1281184, Note_off_c, 0, 76, 57
1, 1281209, Note_on_c, 0, 56, 100
1, 1281217, Note_on_c, 0, 54, 80
1, 1281218, Note_on_c, 0, 75, 84
1, 1281223, Note_on_c, 0, 48, 71
1, 1281267, Control_c, 0, 64, 48
1, 1281281, Control_c, 0, 64, 69
1, 1281284, Note_off_c, 0, 75, 61
1, 1281286, Note_on_c, 0, 74, 86
1, 1281296, Control_c, 0, 64, 87
1, 1281311, Control_c, 0, 64, 127
1, 1281357, Note_off_c, 0, 74, 60
1, 1281358, Note_on_c, 0, 75, 76
1, 1281415, Note_off_c, 0, 75, 61
1, 1281436, Note_on_c, 0, 76, 78
1, 1281447, Note_off_c, 0, 48, 59
1, 1281495, Note_off_c, 0, 56, 59
1, 1281510, Note_on_c, 0, 78, 81
1, 1281526, Note_off_c, 0, 76, 52
1, 1281567, Note_off_c, 0, 78, 63
1, 1281576, Note_on_c, 0, 80, 72
1, 1281652, Note_on_c, 0, 78, 70
1, 1281667, Note_off_c, 0, 80, 60
1, 1281711, Note_on_c, 0, 75, 64
1, 1281715, Note_off_c, 0, 78, 62
1, 1281772, Note_off_c, 0, 75, 52
1, 1281804, Note_on_c, 0, 76, 74
1, 1281812, Note_off_c, 0, 54, 58
1, 1281819, Note_on_c, 0, 56, 57
1, 1281838, Control_c, 0, 64, 82
1, 1281853, Control_c, 0, 64, 62
1, 1281867, Control_c, 0, 64, 0
1, 1281869, Note_off_c, 0, 76, 62
1, 1281875, Note_on_c, 0, 75, 75
1, 1281900, Note_off_c, 0, 75, 65
1, 1281927, Control_c, 0, 64, 53
1, 1281933, Note_on_c, 0, 76, 79
1, 1281942, Control_c, 0, 64, 68
1, 1281957, Control_c, 0, 64, 80
1, 1281971, Control_c, 0, 64, 106
1, 1281986, Control_c, 0, 64, 127
1, 1282008, Note_on_c, 0, 78, 86
1, 1282026, Note_off_c, 0, 76, 62
1, 1282069, Note_on_c, 0, 80, 80
1, 1282076, Note_on_c, 0, 55, 85
1, 1282107, Note_off_c, 0, 78, 62
1, 1282115, Note_off_c, 0, 56, 28
1, 1282121, Note_on_c, 0, 81, 89
1, 1282121, Note_off_c, 0, 55, 64
1, 1282142, Note_off_c, 0, 80, 64
1, 1282210, Note_on_c, 0, 80, 82
1, 1282246, Note_off_c, 0, 81, 60
1, 1282270, Note_on_c, 0, 78, 85
1, 1282332, Control_c, 0, 64, 79
1, 1282338, Note_off_c, 0, 80, 61
1, 1282347, Control_c, 0, 64, 54
1, 1282350, Note_off_c, 0, 78, 63
1, 1282354, Note_on_c, 0, 76, 89
1, 1282362, Note_on_c, 0, 61, 103
1, 1282362, Control_c, 0, 64, 0
1, 1282366, Note_on_c, 0, 56, 84
1, 1282373, Note_on_c, 0, 52, 67
1, 1282434, Note_on_c, 0, 75, 82
1, 1282437, Control_c, 0, 64, 40
1, 1282442, Note_off_c, 0, 76, 62
1, 1282451, Control_c, 0, 64, 63
1, 1282466, Control_c, 0, 64, 75
1, 1282481, Control_c, 0, 64, 91
1, 1282491, Note_off_c, 0, 75, 61
1, 1282496, Control_c, 0, 64, 127
1, 1282513, Note_on_c, 0, 76, 80
1, 1282595, Note_on_c, 0, 78, 77
1, 1282609, Note_off_c, 0, 76, 55
1, 1282654, Note_on_c, 0, 80, 73
1, 1282666, Note_off_c, 0, 78, 61
1, 1282702, Note_off_c, 0, 56, 58
1, 1282707, Note_off_c, 0, 80, 63
1, 1282711, Note_on_c, 0, 81, 76
1, 1282783, Note_on_c, 0, 80, 70
1, 1282790, Note_off_c, 0, 81, 58
1, 1282850, Note_off_c, 0, 80, 57
1, 1282854, Note_on_c, 0, 76, 66
1, 1282924, Note_off_c, 0, 76, 57
1, 1282948, Control_c, 0, 64, 98
1, 1282951, Note_on_c, 0, 78, 61
1, 1282959, Note_off_c, 0, 61, 50
1, 1282963, Control_c, 0, 64, 74
1, 1282971, Note_on_c, 0, 57, 51
1, 1282978, Control_c, 0, 64, 56
1, 1282992, Control_c, 0, 64, 0
1, 1282997, Note_off_c, 0, 78, 58
1, 1282997, Note_off_c, 0, 52, 38
1, 1283027, Note_on_c, 0, 77, 59
1, 1283081, Note_off_c, 0, 77, 59
1, 1283102, Note_on_c, 0, 78, 60
1, 1283177, Note_on_c, 0, 80, 55
1, 1283179, Note_off_c, 0, 78, 52
1, 1283251, Note_off_c, 0, 80, 57
1, 1283259, Note_on_c, 0, 54, 39
1, 1283268, Note_on_c, 0, 81, 55
1, 1283314, Note_off_c, 0, 81, 63
1, 1283334, Control_c, 0, 64, 45
1, 1283337, Note_off_c, 0, 57, 55
1, 1283339, Note_on_c, 0, 83, 49
1, 1283349, Control_c, 0, 64, 60
1, 1283364, Control_c, 0, 64, 66
1, 1283379, Control_c, 0, 64, 70
1, 1283394, Control_c, 0, 64, 74
1, 1283402, Note_on_c, 0, 81, 46
1, 1283408, Control_c, 0, 64, 76
1, 1283423, Control_c, 0, 64, 78
1, 1283431, Note_off_c, 0, 83, 32
1, 1283438, Control_c, 0, 64, 79
1, 1283453, Control_c, 0, 64, 81
1, 1283468, Control_c, 0, 64, 83
1, 1283471, Note_on_c, 0, 80, 60
1, 1283482, Control_c, 0, 64, 84
1, 1283527, Control_c, 0, 64, 80
1, 1283534, Note_off_c, 0, 81, 34
1, 1283539, Note_off_c, 0, 80, 62
1, 1283542, Control_c, 0, 64, 71
1, 1283543, Note_on_c, 0, 78, 68
1, 1283556, Note_on_c, 0, 51, 50
1, 1283556, Control_c, 0, 64, 60
1, 1283564, Note_off_c, 0, 54, 55
1, 1283571, Control_c, 0, 64, 34
1, 1283586, Control_c, 0, 64, 0
1, 1283601, Control_c, 0, 64, 45
1, 1283607, Note_off_c, 0, 78, 62
1, 1283616, Control_c, 0, 64, 61
1, 1283631, Control_c, 0, 64, 73
1, 1283632, Note_on_c, 0, 80, 70
1, 1283646, Control_c, 0, 64, 88
1, 1283668, Control_c, 0, 64, 122
1, 1283683, Control_c, 0, 64, 127
1, 1283707, Note_on_c, 0, 78, 75
1, 1283742, Note_off_c, 0, 80, 62
1, 1283761, Note_off_c, 0, 78, 63
1, 1283769, Note_on_c, 0, 76, 78
1, 1283823, Note_on_c, 0, 55, 82
1, 1283826, Note_off_c, 0, 51, 61
1, 1283865, Note_off_c, 0, 76, 60
1, 1283895, Note_on_c, 0, 76, 58
1, 1283958, Poly_aftertouch_c, 0, 74, 0
1, 1283982, Note_on_c, 0, 75, 81
1, 1284000, Note_off_c, 0, 76, 60
1, 1284026, Note_on_c, 0, 73, 76
1, 1284058, Note_off_c, 0, 75, 60
1, 1284068, Control_c, 0, 64, 117
1, 1284083, Note_off_c, 0, 73, 63
1, 1284084, Control_c, 0, 64, 79
1, 1284097, Note_on_c, 0, 72, 71
1, 1284099, Control_c, 0, 64, 60
1, 1284108, Note_on_c, 0, 56, 81
1, 1284112, Note_off_c, 0, 55, 60
1, 1284113, Control_c, 0, 64, 0
1, 1284143, Control_c, 0, 64, 44
1, 1284157, Control_c, 0, 64, 60
1, 1284165, Note_off_c, 0, 72, 62
1, 1284169, Note_on_c, 0, 75, 74
1, 1284172, Control_c, 0, 64, 71
1, 1284187, Control_c, 0, 64, 88
1, 1284202, Control_c, 0, 64, 127
1, 1284231, Note_off_c, 0, 56, 57
1, 1284249, Note_on_c, 0, 72, 74
1, 1284283, Note_off_c, 0, 75, 60
1, 1284306, Note_off_c, 0, 72, 63
1, 1284318, Note_on_c, 0, 69, 73
1, 1284391, Note_on_c, 0, 56, 69
1, 1284394, Control_c, 0, 64, 111
1, 1284395, Note_on_c, 0, 54, 70
1, 1284403, Note_on_c, 0, 68, 76
1, 1284416, Control_c, 0, 64, 77
1, 1284428, Note_off_c, 0, 69, 30
1, 1284431, Control_c, 0, 64, 58
1, 1284446, Control_c, 0, 64, 50
1, 1284461, Control_c, 0, 64, 60
1, 1284467, Note_off_c, 0, 68, 63
1, 1284469, Note_on_c, 0, 69, 61
1, 1284476, Control_c, 0, 64, 67
1, 1284484, Note_off_c, 0, 56, 58
1, 1284491, Control_c, 0, 64, 76
1, 1284506, Control_c, 0, 64, 97
1, 1284520, Control_c, 0, 64, 127
1, 1284541, Note_on_c, 0, 68, 83
1, 1284577, Note_off_c, 0, 69, 58
1, 1284597, Note_on_c, 0, 66, 89
1, 1284661, Note_off_c, 0, 68, 62
1, 1284678, Note_on_c, 0, 56, 99
1, 1284678, Note_on_c, 0, 64, 84
1, 1284683, Control_c, 0, 64, 90
1, 1284685, Note_on_c, 0, 52, 80
1, 1284687, Note_off_c, 0, 54, 55
1, 1284689, Note_off_c, 0, 66, 58
1, 1284698, Control_c, 0, 64, 67
1, 1284712, Control_c, 0, 64, 53
1, 1284727, Control_c, 0, 64, 59
1, 1284742, Control_c, 0, 64, 67
1, 1284753, Note_on_c, 0, 68, 80
1, 1284756, Control_c, 0, 64, 80
1, 1284766, Note_off_c, 0, 64, 61
1, 1284771, Control_c, 0, 64, 127
1, 1284812, Note_off_c, 0, 56, 59
1, 1284820, Note_on_c, 0, 66, 83
1, 1284868, Note_off_c, 0, 68, 61
1, 1284886, Note_on_c, 0, 64, 80
1, 1284954, Note_on_c, 0, 56, 99
1, 1284958, Note_on_c, 0, 51, 80
1, 1284958, Note_off_c, 0, 66, 57
1, 1284965, Note_on_c, 0, 63, 93
1, 1284976, Note_off_c, 0, 64, 62
1, 1285031, Note_off_c, 0, 52, 53
1, 1285040, Note_on_c, 0, 66, 86
1, 1285054, Note_off_c, 0, 63, 60
1, 1285112, Note_on_c, 0, 64, 80
1, 1285172, Note_off_c, 0, 66, 60
1, 1285185, Note_on_c, 0, 63, 81
1, 1285224, Control_c, 0, 64, 98
1, 1285230, Note_off_c, 0, 51, 60
1, 1285234, Note_off_c, 0, 64, 58
1, 1285239, Control_c, 0, 64, 65
1, 1285254, Control_c, 0, 64, 0
1, 1285262, Note_off_c, 0, 56, 52
1, 1285263, Note_on_c, 0, 49, 69
1, 1285266, Note_on_c, 0, 61, 101
1, 1285269, Control_c, 0, 64, 38
1, 1285284, Control_c, 0, 64, 61
1, 1285286, Note_off_c, 0, 63, 61
1, 1285298, Control_c, 0, 64, 75
1, 1285313, Control_c, 0, 64, 127
1, 1285336, Note_off_c, 0, 61, 58
1, 1285356, Note_on_c, 0, 52, 70
1, 1285359, Note_off_c, 0, 49, 61
1, 1285451, Note_on_c, 0, 56, 64
1, 1285564, Note_off_c, 0, 52, 58
1, 1285569, Note_on_c, 0, 64, 75
1, 1285572, Note_on_c, 0, 49, 63
1, 1285605, Note_off_c, 0, 56, 37
1, 1285620, Note_off_c, 0, 64, 59
1, 1285639, Control_c, 0, 64, 117
1, 1285653, Control_c, 0, 64, 86
1, 1285660, Note_off_c, 0, 49, 61
1, 1285668, Control_c, 0, 64, 70
1, 1285675, Note_on_c, 0, 52, 67
1, 1285684, Control_c, 0, 64, 57
1, 1285699, Control_c, 0, 64, 38
1, 1285714, Control_c, 0, 64, 0
1, 1285719, Note_on_c, 0, 68, 74
1, 1285745, Note_on_c, 0, 56, 73
1, 1285808, Note_off_c, 0, 68, 62
1, 1285833, Note_off_c, 0, 56, 59
1, 1285851, Note_off_c, 0, 52, 38
1, 1285856, Note_on_c, 0, 49, 83
1, 1285858, Note_on_c, 0, 73, 86
1, 1285921, Note_off_c, 0, 73, 64
1, 1285929, Control_c, 0, 64, 48
1, 1285944, Control_c, 0, 64, 65
1, 1285959, Control_c, 0, 64, 76
1, 1285963, Note_off_c, 0, 49, 63
1, 1285963, Note_on_c, 0, 52, 74
1, 1285974, Control_c, 0, 64, 97
1, 1285989, Control_c, 0, 64, 127
1, 1285990, Note_on_c, 0, 76, 99
1, 1286036, Note_off_c, 0, 76, 65
1, 1286038, Note_on_c, 0, 56, 84
1, 1286115, Note_on_c, 0, 80, 93
1, 1286130, Note_on_c, 0, 49, 80
1, 1286132, Note_off_c, 0, 56, 41
1, 1286142, Note_off_c, 0, 52, 30
1, 1286180, Note_off_c, 0, 80, 61
1, 1286214, Note_on_c, 0, 52, 73
1, 1286223, Note_off_c, 0, 49, 63
1, 1286237, Note_on_c, 0, 85, 100
1, 1286263, Note_off_c, 0, 52, 58
1, 1286286, Note_off_c, 0, 85, 62
1, 1286292, Note_on_c, 0, 56, 82
1, 1286297, Note_on_c, 0, 86, 30
1, 1286335, Note_off_c, 0, 86, 43
1, 1286371, Poly_aftertouch_c, 0, 84, 0
1, 1286374, Note_off_c, 0, 56, 59
1, 1286389, Control_c, 0, 64, 80
1, 1286403, Control_c, 0, 64, 56
1, 1286404, Note_on_c, 0, 72, 108
1, 1286405, Note_on_c, 0, 84, 99
1, 1286406, Note_on_c, 0, 52, 84
1, 1286418, Control_c, 0, 64, 58
1, 1286433, Control_c, 0, 64, 77
1, 1286448, Control_c, 0, 64, 127
1, 1286480, Note_off_c, 0, 72, 63
1, 1286493, Poly_aftertouch_c, 0, 83, 127
1, 1286500, Note_on_c, 0, 56, 80
1, 1286512, Poly_aftertouch_c, 0, 83, 0
1, 1286514, Poly_aftertouch_c, 0, 80, 0
1, 1286516, Poly_aftertouch_c, 0, 78, 0
1, 1286522, Note_off_c, 0, 52, 55
1, 1286606, Note_on_c, 0, 61, 83
1, 1286607, Poly_aftertouch_c, 0, 55, 127
1, 1286638, Note_off_c, 0, 84, 61
1, 1286690, Note_on_c, 0, 73, 105
1, 1286692, Note_on_c, 0, 85, 95
1, 1286696, Poly_aftertouch_c, 0, 80, 0
1, 1286712, Poly_aftertouch_c, 0, 55, 0
1, 1286720, Note_on_c, 0, 52, 73
1, 1286722, Note_off_c, 0, 85, 68
1, 1286724, Note_off_c, 0, 61, 58
1, 1286726, Note_on_c, 0, 86, 26
1, 1286726, Note_off_c, 0, 86, 127
1, 1286726, Note_off_c, 0, 56, 47
1, 1286727, Note_off_c, 0, 73, 67
1, 1286808, Note_off_c, 0, 52, 62
1, 1286809, Note_on_c, 0, 56, 69
1, 1286866, Note_off_c, 0, 56, 60
1, 1286892, Note_on_c, 0, 61, 70
1, 1286938, Note_off_c, 0, 61, 53
1, 1286989, Control_c, 0, 64, 81
1, 1287004, Control_c, 0, 64, 47
1, 1287014, Note_on_c, 0, 52, 101
1, 1287019, Control_c, 0, 64, 0
1, 1287020, Note_on_c, 0, 40, 98
1, 1287048, Control_c, 0, 64, 41
1, 1287063, Control_c, 0, 64, 68
1, 1287078, Control_c, 0, 64, 102
1, 1287093, Control_c, 0, 64, 127
1, 1287110, Note_off_c, 0, 40, 53
1, 1287137, Note_off_c, 0, 52, 60
1, 1287147, Note_on_c, 0, 56, 78
1, 1287246, Note_on_c, 0, 61, 74
1, 1287326, Note_off_c, 0, 56, 58
1, 1287350, Note_on_c, 0, 52, 66
1, 1287361, Note_off_c, 0, 61, 53
1, 1287436, Note_off_c, 0, 52, 61
1, 1287441, Note_on_c, 0, 56, 75
1, 1287548, Note_on_c, 0, 61, 71
1, 1287571, Note_on_c, 0, 78, 11
1, 1287580, Note_off_c, 0, 56, 30
1, 1287597, Note_off_c, 0, 61, 59
1, 1287603, Note_off_c, 0, 78, 0
1, 1287609, Note_on_c, 0, 72, 107
1, 1287612, Note_on_c, 0, 84, 106
1, 1287618, Note_on_c, 0, 54, 105
1, 1287618, Note_on_c, 0, 78, 45
1, 1287620, Control_c, 0, 64, 103
1, 1287635, Control_c, 0, 64, 65
1, 1287641, Note_off_c, 0, 78, 55
1, 1287644, Note_on_c, 0, 83, 47
1, 1287647, Note_on_c, 0, 80, 5
1, 1287647, Note_off_c, 0, 80, 127
1, 1287650, Control_c, 0, 64, 0
1, 1287664, Control_c, 0, 64, 36
1, 1287669, Note_off_c, 0, 83, 56
1, 1287679, Control_c, 0, 64, 66
1, 1287683, Note_on_c, 0, 55, 4
1, 1287694, Control_c, 0, 64, 109
1, 1287708, Control_c, 0, 64, 127
1, 1287712, Poly_aftertouch_c, 0, 53, 127
1, 1287727, Note_off_c, 0, 72, 63
1, 1287733, Note_off_c, 0, 54, 60
1, 1287740, Note_on_c, 0, 57, 77
1, 1287745, Note_off_c, 0, 55, 46
1, 1287750, Poly_aftertouch_c, 0, 53, 0
1, 1287830, Note_on_c, 0, 61, 89
1, 1287867, Note_on_c, 0, 80, 30
1, 1287868, Note_off_c, 0, 84, 57
1, 1287905, Note_off_c, 0, 61, 60
1, 1287909, Note_on_c, 0, 73, 111
1, 1287912, Note_on_c, 0, 85, 92
1, 1287912, Note_off_c, 0, 80, 40
1, 1287925, Note_off_c, 0, 57, 38
1, 1287926, Note_off_c, 0, 85, 75
1, 1287927, Note_on_c, 0, 54, 83
1, 1287947, Note_off_c, 0, 73, 65
1, 1288004, Note_off_c, 0, 54, 62
1, 1288014, Note_on_c, 0, 57, 72
1, 1288101, Note_on_c, 0, 61, 79
1, 1288199, Note_off_c, 0, 61, 58
1, 1288205, Control_c, 0, 64, 87
1, 1288217, Note_on_c, 0, 54, 88
1, 1288220, Control_c, 0, 64, 51
1, 1288223, Note_on_c, 0, 42, 112
1, 1288224, Note_off_c, 0, 57, 49
1, 1288235, Control_c, 0, 64, 0
1, 1288264, Control_c, 0, 64, 41
1, 1288279, Control_c, 0, 64, 67
1, 1288294, Control_c, 0, 64, 92
1, 1288309, Control_c, 0, 64, 127
1, 1288309, Note_off_c, 0, 42, 64
1, 1288312, Note_on_c, 0, 57, 75
1, 1288334, Note_off_c, 0, 54, 57
1, 1288401, Note_on_c, 0, 61, 74
1, 1288462, Note_off_c, 0, 57, 36
1, 1288481, Note_off_c, 0, 61, 57
1, 1288483, Note_on_c, 0, 54, 77
1, 1288560, Note_off_c, 0, 54, 61
1, 1288568, Note_on_c, 0, 57, 77
1, 1288616, Note_off_c, 0, 57, 62
1, 1288655, Note_on_c, 0, 61, 76
1, 1288732, Note_off_c, 0, 61, 59
1, 1288756, Note_on_c, 0, 56, 80
1, 1288764, Note_on_c, 0, 76, 113
1, 1288765, Note_on_c, 0, 88, 107
1, 1288768, Control_c, 0, 64, 68
1, 1288783, Control_c, 0, 64, 0
1, 1288795, Note_on_c, 0, 86, 54
1, 1288812, Control_c, 0, 64, 64
1, 1288822, Note_off_c, 0, 86, 52
1, 1288827, Control_c, 0, 64, 87
1, 1288842, Control_c, 0, 64, 127
1, 1288856, Note_off_c, 0, 88, 62
1, 1288875, Note_off_c, 0, 76, 47
1, 1288877, Note_on_c, 0, 61, 74
1, 1288884, Note_off_c, 0, 56, 59
1, 1288974, Note_on_c, 0, 64, 80
1, 1289019, Note_on_c, 0, 79, 4
1, 1289057, Note_off_c, 0, 64, 53
1, 1289057, Poly_aftertouch_c, 0, 80, 0
1, 1289059, Note_on_c, 0, 73, 104
1, 1289060, Note_on_c, 0, 85, 91
1, 1289069, Note_on_c, 0, 56, 77
1, 1289074, Note_off_c, 0, 85, 77
1, 1289077, Note_off_c, 0, 79, 33
1, 1289084, Note_off_c, 0, 61, 38
1, 1289101, Note_off_c, 0, 73, 62
1, 1289152, Note_off_c, 0, 56, 59
1, 1289162, Note_on_c, 0, 61, 72
1, 1289233, Note_on_c, 0, 64, 65
1, 1289344, Note_off_c, 0, 64, 56
1, 1289346, Note_on_c, 0, 56, 62
1, 1289351, Note_off_c, 0, 61, 22
1, 1289369, Control_c, 0, 64, 106
1, 1289373, Note_on_c, 0, 44, 105
1, 1289384, Control_c, 0, 64, 71
1, 1289399, Control_c, 0, 64, 60
1, 1289414, Control_c, 0, 64, 67
1, 1289428, Control_c, 0, 64, 83
1, 1289443, Control_c, 0, 64, 127
1, 1289457, Note_off_c, 0, 56, 59
1, 1289458, Note_on_c, 0, 61, 75
1, 1289540, Note_off_c, 0, 44, 62
1, 1289543, Note_on_c, 0, 64, 74
1, 1289640, Note_off_c, 0, 61, 34
1, 1289640, Note_off_c, 0, 64, 61
1, 1289658, Control_c, 0, 64, 76
1, 1289662, Note_on_c, 0, 57, 74
1, 1289665, Note_on_c, 0, 45, 109
1, 1289674, Control_c, 0, 64, 54
1, 1289689, Control_c, 0, 64, 0
1, 1289703, Control_c, 0, 64, 41
1, 1289718, Control_c, 0, 64, 61
1, 1289733, Control_c, 0, 64, 76
1, 1289748, Control_c, 0, 64, 127
1, 1289770, Note_off_c, 0, 57, 63
1, 1289772, Note_on_c, 0, 61, 72
1, 1289831, Note_off_c, 0, 61, 60
1, 1289847, Note_on_c, 0, 64, 78
1, 1289853, Note_off_c, 0, 45, 56
1, 1289937, Note_off_c, 0, 64, 54
1, 1289975, Note_on_c, 0, 59, 65
1, 1289988, Note_on_c, 0, 47, 112
1, 1289999, Control_c, 0, 64, 83
1, 1290014, Control_c, 0, 64, 56
1, 1290029, Control_c, 0, 64, 0
1, 1290074, Control_c, 0, 64, 48
1, 1290088, Note_on_c, 0, 64, 75
1, 1290089, Control_c, 0, 64, 67
1, 1290096, Note_off_c, 0, 59, 62
1, 1290103, Control_c, 0, 64, 91
1, 1290118, Control_c, 0, 64, 127
1, 1290151, Note_off_c, 0, 47, 61
1, 1290186, Note_off_c, 0, 64, 56
1, 1290195, Note_on_c, 0, 68, 75
1, 1290276, Note_off_c, 0, 68, 57
1, 1290293, Note_on_c, 0, 59, 67
1, 1290366, Note_off_c, 0, 59, 61
1, 1290368, Note_on_c, 0, 64, 71
1, 1290443, Note_off_c, 0, 64, 55
1, 1290452, Note_on_c, 0, 68, 83
1, 1290554, Note_off_c, 0, 68, 52
1, 1290575, Note_on_c, 0, 59, 58
1, 1290578, Note_on_c, 0, 71, 104
1, 1290580, Note_on_c, 0, 83, 99
1, 1290616, Note_off_c, 0, 71, 65
1, 1290651, Note_off_c, 0, 83, 67
1, 1290665, Note_off_c, 0, 59, 62
1, 1290675, Note_on_c, 0, 64, 67
1, 1290738, Note_off_c, 0, 64, 57
1, 1290751, Note_on_c, 0, 68, 79
1, 1290845, Note_off_c, 0, 68, 56
1, 1290864, Note_on_c, 0, 73, 106
1, 1290865, Note_on_c, 0, 59, 60
1, 1290867, Note_on_c, 0, 85, 103
1, 1290941, Note_off_c, 0, 73, 61
1, 1290944, Note_off_c, 0, 59, 61
1, 1290950, Note_on_c, 0, 64, 66
1, 1290950, Note_off_c, 0, 85, 65
1, 1290968, Poly_aftertouch_c, 0, 82, 0
1, 1290994, Note_off_c, 0, 64, 58
1, 1291034, Note_on_c, 0, 68, 75
1, 1291137, Note_off_c, 0, 68, 56
1, 1291166, Note_on_c, 0, 60, 48
1, 1291216, Note_on_c, 0, 75, 99
1, 1291219, Note_on_c, 0, 87, 99
1, 1291246, Control_c, 0, 64, 108
1, 1291260, Control_c, 0, 64, 70
1, 1291269, Note_on_c, 0, 85, 42
1, 1291276, Control_c, 0, 64, 45
1, 1291291, Control_c, 0, 64, 36
1, 1291301, Note_on_c, 0, 66, 68
1, 1291306, Control_c, 0, 64, 59
1, 1291321, Control_c, 0, 64, 69
1, 1291336, Control_c, 0, 64, 98
1, 1291350, Control_c, 0, 64, 127
1, 1291369, Note_off_c, 0, 60, 37
1, 1291394, Note_on_c, 0, 68, 68
1, 1291448, Note_off_c, 0, 66, 61
1, 1291473, Note_on_c, 0, 60, 73
1, 1291492, Note_off_c, 0, 68, 63
1, 1291509, Note_off_c, 0, 75, 61
1, 1291557, Note_off_c, 0, 60, 63
1, 1291565, Note_off_c, 0, 85, 34
1, 1291568, Note_on_c, 0, 66, 73
1, 1291576, Note_off_c, 0, 87, 60
1, 1291645, Note_off_c, 0, 66, 60
1, 1291647, Note_on_c, 0, 68, 74
1, 1291748, Note_off_c, 0, 68, 53
1, 1291766, Note_on_c, 0, 61, 55
1, 1291795, Control_c, 0, 64, 94
1, 1291799, Note_on_c, 0, 88, 107
1, 1291801, Note_on_c, 0, 76, 105
1, 1291810, Control_c, 0, 64, 67
1, 1291824, Control_c, 0, 64, 48
1, 1291839, Control_c, 0, 64, 50
1, 1291854, Control_c, 0, 64, 62
1, 1291868, Control_c, 0, 64, 77
1, 1291883, Control_c, 0, 64, 127
1, 1291909, Note_off_c, 0, 61, 58
1, 1291915, Note_on_c, 0, 64, 57
1, 1291940, Note_off_c, 0, 88, 65
1, 1291965, Note_off_c, 0, 76, 68
1, 1292008, Note_on_c, 0, 68, 73
1, 1292074, Note_off_c, 0, 64, 36
1, 1292075, Note_off_c, 0, 68, 59
1, 1292092, Note_on_c, 0, 61, 64
1, 1292166, Note_off_c, 0, 61, 60
1, 1292186, Note_on_c, 0, 64, 61
1, 1292272, Note_on_c, 0, 68, 60
1, 1292307, Note_off_c, 0, 64, 38
1, 1292345, Note_off_c, 0, 68, 56
1, 1292375, Note_on_c, 0, 61, 60
1, 1292376, Note_on_c, 0, 42, 101
1, 1292411, Control_c, 0, 64, 91
1, 1292425, Control_c, 0, 64, 65
1, 1292440, Control_c, 0, 64, 40
1, 1292455, Control_c, 0, 64, 38
1, 1292470, Control_c, 0, 64, 54
1, 1292476, Note_off_c, 0, 61, 58
1, 1292485, Control_c, 0, 64, 65
1, 1292492, Note_on_c, 0, 63, 59
1, 1292499, Control_c, 0, 64, 86
1, 1292514, Control_c, 0, 64, 127
1, 1292578, Note_on_c, 0, 69, 59
1, 1292624, Note_off_c, 0, 63, 36
1, 1292638, Note_off_c, 0, 42, 61
1, 1292679, Note_on_c, 0, 61, 60
1, 1292703, Note_off_c, 0, 69, 35
1, 1292752, Note_off_c, 0, 61, 59
1, 1292768, Note_on_c, 0, 63, 58
1, 1292843, Note_on_c, 0, 69, 54
1, 1292925, Note_off_c, 0, 69, 51
1, 1292962, Note_off_c, 0, 63, 36
1, 1292983, Note_on_c, 0, 60, 52
1, 1293004, Note_on_c, 0, 44, 95
1, 1293055, Control_c, 0, 64, 98
1, 1293070, Control_c, 0, 64, 70
1, 1293085, Control_c, 0, 64, 47
1, 1293099, Control_c, 0, 64, 0
1, 1293113, Note_off_c, 0, 60, 58
1, 1293114, Control_c, 0, 64, 47
1, 1293121, Note_on_c, 0, 63, 49
1, 1293129, Control_c, 0, 64, 63
1, 1293144, Control_c, 0, 64, 75
1, 1293159, Control_c, 0, 64, 101
1, 1293174, Control_c, 0, 64, 127
1, 1293212, Note_on_c, 0, 68, 54
1, 1293239, Note_off_c, 0, 63, 52
1, 1293256, Note_off_c, 0, 68, 57
1, 1293278, Note_on_c, 0, 60, 51
1, 1293353, Note_off_c, 0, 60, 63
1, 1293378, Note_on_c, 0, 63, 48
1, 1293420, Note_off_c, 0, 63, 65
1, 1293445, Note_on_c, 0, 68, 60
1, 1293471, Note_off_c, 0, 44, 58
1, 1293478, Note_off_c, 0, 68, 64
1, 1293567, Control_c, 0, 64, 103
1, 1293581, Control_c, 0, 64, 74
1, 1293588, Note_on_c, 0, 57, 43
1, 1293596, Control_c, 0, 64, 50
1, 1293611, Control_c, 0, 64, 0
1, 1293619, Note_on_c, 0, 45, 79
1, 1293626, Control_c, 0, 64, 37
1, 1293641, Control_c, 0, 64, 56
1, 1293655, Control_c, 0, 64, 67
1, 1293671, Control_c, 0, 64, 81
1, 1293686, Control_c, 0, 64, 110
1, 1293700, Note_off_c, 0, 45, 66
1, 1293700, Note_off_c, 0, 57, 56
1, 1293701, Control_c, 0, 64, 127
1, 1293712, Note_on_c, 0, 61, 55
1, 1293815, Note_on_c, 0, 64, 48
1, 1293836, Note_off_c, 0, 61, 35
1, 1293872, Note_off_c, 0, 64, 51
1, 1293880, Note_on_c, 0, 57, 48
1, 1293955, Note_off_c, 0, 57, 61
1, 1293975, Note_on_c, 0, 61, 51
1, 1294035, Note_on_c, 0, 69, 69
1, 1294057, Note_on_c, 0, 64, 56
1, 1294101, Control_c, 0, 64, 79
1, 1294110, Note_off_c, 0, 69, 54
1, 1294116, Control_c, 0, 64, 59
1, 1294119, Note_off_c, 0, 61, 35
1, 1294131, Control_c, 0, 64, 0
1, 1294172, Note_off_c, 0, 64, 56
1, 1294173, Note_on_c, 0, 56, 52
1, 1294181, Note_on_c, 0, 73, 83
1, 1294182, Control_c, 0, 64, 52
1, 1294196, Control_c, 0, 64, 68
1, 1294211, Control_c, 0, 64, 82
1, 1294226, Control_c, 0, 64, 127
1, 1294232, Note_off_c, 0, 73, 64
1, 1294276, Note_on_c, 0, 61, 60
1, 1294328, Note_on_c, 0, 76, 95
1, 1294359, Note_on_c, 0, 64, 71
1, 1294381, Note_off_c, 0, 76, 63
1, 1294391, Note_off_c, 0, 56, 59
1, 1294404, Control_c, 0, 64, 97
1, 1294407, Note_off_c, 0, 61, 57
1, 1294419, Control_c, 0, 64, 68
1, 1294423, Note_off_c, 0, 64, 59
1, 1294434, Control_c, 0, 64, 52
1, 1294441, Note_on_c, 0, 54, 85
1, 1294444, Note_on_c, 0, 81, 99
1, 1294449, Control_c, 0, 64, 60
1, 1294464, Control_c, 0, 64, 72
1, 1294480, Control_c, 0, 64, 113
1, 1294494, Control_c, 0, 64, 127
1, 1294505, Note_off_c, 0, 81, 65
1, 1294542, Note_on_c, 0, 61, 72
1, 1294560, Note_off_c, 0, 54, 60
1, 1294563, Note_on_c, 0, 85, 100
1, 1294605, Note_off_c, 0, 61, 59
1, 1294618, Note_on_c, 0, 64, 63
1, 1294627, Note_off_c, 0, 85, 62
1, 1294651, Note_off_c, 0, 64, 60
1, 1294721, Note_on_c, 0, 52, 75
1, 1294722, Note_on_c, 0, 72, 103
1, 1294724, Note_on_c, 0, 84, 106
1, 1294731, Control_c, 0, 64, 90
1, 1294746, Control_c, 0, 64, 59
1, 1294753, Note_on_c, 0, 78, 43
1, 1294761, Control_c, 0, 64, 0
1, 1294763, Note_on_c, 0, 83, 37
1, 1294775, Control_c, 0, 64, 51
1, 1294781, Note_off_c, 0, 78, 36
1, 1294790, Control_c, 0, 64, 75
1, 1294795, Note_off_c, 0, 83, 54
1, 1294805, Control_c, 0, 64, 127
1, 1294817, Note_off_c, 0, 72, 61
1, 1294832, Note_on_c, 0, 56, 75
1, 1294843, Note_off_c, 0, 52, 59
1, 1294924, Note_on_c, 0, 61, 80
1, 1294982, Note_off_c, 0, 84, 61
1, 1295018, Note_on_c, 0, 73, 110
1, 1295021, Note_on_c, 0, 85, 96
1, 1295024, Note_off_c, 0, 56, 60
1, 1295033, Note_on_c, 0, 84, 56
1, 1295034, Note_on_c, 0, 52, 72
1, 1295052, Note_off_c, 0, 85, 68
1, 1295058, Note_off_c, 0, 84, 33
1, 1295062, Note_off_c, 0, 73, 64
1, 1295064, Note_off_c, 0, 61, 48
1, 1295124, Note_off_c, 0, 52, 62
1, 1295132, Note_on_c, 0, 56, 72
1, 1295199, Note_off_c, 0, 56, 58
1, 1295208, Note_on_c, 0, 61, 75
1, 1295246, Note_off_c, 0, 61, 58
1, 1295347, Control_c, 0, 64, 74
1, 1295351, Note_on_c, 0, 52, 98
1, 1295362, Control_c, 0, 64, 42
1, 1295365, Note_on_c, 0, 40, 103
1, 1295377, Control_c, 0, 64, 0
1, 1295391, Control_c, 0, 64, 44
1, 1295406, Control_c, 0, 64, 65
1, 1295421, Control_c, 0, 64, 88
1, 1295436, Control_c, 0, 64, 127
1, 1295484, Note_off_c, 0, 52, 62
1, 1295486, Note_on_c, 0, 56, 76
1, 1295493, Note_off_c, 0, 40, 49
1, 1295577, Note_off_c, 0, 56, 60
1, 1295585, Note_on_c, 0, 61, 67
1, 1295666, Note_off_c, 0, 61, 57
1, 1295686, Note_on_c, 0, 52, 61
1, 1295760, Note_off_c, 0, 52, 63
1, 1295770, Note_on_c, 0, 56, 69
1, 1295806, Poly_aftertouch_c, 0, 53, 0
1, 1295859, Note_on_c, 0, 61, 72
1, 1295899, Note_off_c, 0, 56, 59
1, 1295916, Note_off_c, 0, 61, 61
1, 1295929, Note_on_c, 0, 72, 107
1, 1295931, Note_on_c, 0, 84, 106
1, 1295934, Note_on_c, 0, 54, 98
1, 1295946, Control_c, 0, 64, 78
1, 1295961, Control_c, 0, 64, 46
1, 1295976, Control_c, 0, 64, 0
1, 1295991, Control_c, 0, 64, 56
1, 1296006, Control_c, 0, 64, 77
1, 1296021, Control_c, 0, 64, 127
1, 1296042, Note_off_c, 0, 72, 56
1, 1296049, Note_on_c, 0, 57, 74
1, 1296051, Note_off_c, 0, 54, 60
1, 1296149, Note_on_c, 0, 61, 82
1, 1296184, Note_on_c, 0, 80, 50
1, 1296198, Note_off_c, 0, 84, 60
1, 1296208, Note_off_c, 0, 80, 58
1, 1296235, Note_on_c, 0, 73, 108
1, 1296239, Note_on_c, 0, 85, 93
1, 1296243, Note_off_c, 0, 57, 38
1, 1296249, Note_on_c, 0, 54, 82
1, 1296259, Note_off_c, 0, 61, 57
1, 1296259, Note_off_c, 0, 85, 68
1, 1296273, Note_off_c, 0, 73, 65
1, 1296333, Note_off_c, 0, 54, 62
1, 1296342, Note_on_c, 0, 57, 77
1, 1296435, Note_on_c, 0, 61, 75
1, 1296539, Note_off_c, 0, 61, 57
1, 1296546, Control_c, 0, 64, 89
1, 1296559, Note_on_c, 0, 54, 80
1, 1296559, Note_off_c, 0, 57, 61
1, 1296561, Control_c, 0, 64, 57
1, 1296563, Note_on_c, 0, 42, 100
1, 1296576, Control_c, 0, 64, 0
1, 1296605, Control_c, 0, 64, 49
1, 1296611, Note_on_c, 0, 46, 9
1, 1296620, Control_c, 0, 64, 69
1, 1296635, Control_c, 0, 64, 98
1, 1296641, Poly_aftertouch_c, 0, 44, 0
1, 1296645, Note_off_c, 0, 46, 0
1, 1296650, Control_c, 0, 64, 127
1, 1296659, Note_off_c, 0, 42, 65
1, 1296662, Note_on_c, 0, 57, 80
1, 1296665, Poly_aftertouch_c, 0, 46, 0
1, 1296666, Note_off_c, 0, 54, 57
1, 1296751, Note_on_c, 0, 61, 75
1, 1296826, Note_off_c, 0, 57, 36
1, 1296832, Note_off_c, 0, 61, 57
1, 1296838, Note_on_c, 0, 54, 73
1, 1296915, Note_off_c, 0, 54, 61
1, 1296918, Note_on_c, 0, 57, 73
1, 1296957, Note_off_c, 0, 57, 60
1, 1296993, Note_on_c, 0, 61, 76
1, 1297084, Note_off_c, 0, 61, 53
1, 1297105, Note_on_c, 0, 56, 74
1, 1297110, Control_c, 0, 64, 87
1, 1297112, Note_on_c, 0, 76, 111
1, 1297115, Note_on_c, 0, 88, 101
1, 1297125, Control_c, 0, 64, 60
1, 1297148, Control_c, 0, 64, 0
1, 1297162, Control_c, 0, 64, 52
1, 1297174, Note_on_c, 0, 86, 31
1, 1297177, Control_c, 0, 64, 71
1, 1297192, Control_c, 0, 64, 96
1, 1297207, Control_c, 0, 64, 127
1, 1297211, Note_off_c, 0, 86, 49
1, 1297239, Note_off_c, 0, 88, 64
1, 1297253, Note_on_c, 0, 61, 69
1, 1297271, Note_off_c, 0, 76, 57
1, 1297272, Note_off_c, 0, 56, 58
1, 1297338, Note_on_c, 0, 64, 77
1, 1297425, Note_on_c, 0, 73, 98
1, 1297428, Note_on_c, 0, 85, 85
1, 1297437, Note_off_c, 0, 64, 56
1, 1297447, Note_on_c, 0, 56, 73
1, 1297448, Note_off_c, 0, 85, 71
1, 1297453, Note_off_c, 0, 61, 36
1, 1297473, Note_off_c, 0, 73, 63
1, 1297530, Note_off_c, 0, 56, 61
1, 1297539, Note_on_c, 0, 61, 75
1, 1297618, Note_on_c, 0, 64, 67
1, 1297711, Note_off_c, 0, 61, 49
1, 1297712, Note_on_c, 0, 56, 65
1, 1297726, Note_off_c, 0, 64, 57
1, 1297726, Control_c, 0, 64, 118
1, 1297741, Control_c, 0, 64, 75
1, 1297742, Note_on_c, 0, 44, 109
1, 1297756, Control_c, 0, 64, 61
1, 1297771, Control_c, 0, 64, 63
1, 1297785, Control_c, 0, 64, 70
1, 1297800, Control_c, 0, 64, 88
1, 1297815, Control_c, 0, 64, 127
1, 1297833, Note_on_c, 0, 61, 77
1, 1297842, Note_off_c, 0, 56, 57
1, 1297924, Note_on_c, 0, 64, 74
1, 1297933, Note_off_c, 0, 44, 57
1, 1298015, Control_c, 0, 64, 88
1, 1298027, Note_on_c, 0, 45, 112
1, 1298027, Note_off_c, 0, 64, 57
1, 1298030, Control_c, 0, 64, 62
1, 1298034, Note_on_c, 0, 57, 76
1, 1298034, Note_off_c, 0, 61, 42
1, 1298044, Control_c, 0, 64, 0
1, 1298074, Control_c, 0, 64, 51
1, 1298089, Control_c, 0, 64, 64
1, 1298104, Control_c, 0, 64, 83
1, 1298118, Control_c, 0, 64, 127
1, 1298133, Note_on_c, 0, 61, 75
1, 1298134, Note_off_c, 0, 57, 62
1, 1298200, Note_off_c, 0, 61, 60
1, 1298207, Note_off_c, 0, 45, 55
1, 1298210, Note_on_c, 0, 64, 75
1, 1298320, Note_off_c, 0, 64, 53
1, 1298348, Note_on_c, 0, 59, 60
1, 1298349, Note_on_c, 0, 47, 108
1, 1298385, Control_c, 0, 64, 83
1, 1298400, Control_c, 0, 64, 58
1, 1298414, Control_c, 0, 64, 0
1, 1298460, Note_off_c, 0, 59, 61
1, 1298462, Note_on_c, 0, 64, 69
1, 1298474, Control_c, 0, 64, 49
1, 1298489, Control_c, 0, 64, 67
1, 1298504, Control_c, 0, 64, 84
1, 1298519, Control_c, 0, 64, 127
1, 1298537, Note_off_c, 0, 47, 62
1, 1298558, Note_off_c, 0, 64, 59
1, 1298568, Note_on_c, 0, 68, 77
1, 1298671, Note_on_c, 0, 59, 64
1, 1298671, Note_off_c, 0, 68, 61
1, 1298754, Note_on_c, 0, 64, 70
1, 1298758, Note_off_c, 0, 59, 61
1, 1298832, Note_on_c, 0, 68, 74
1, 1298836, Note_off_c, 0, 64, 56
1, 1298944, Note_off_c, 0, 68, 57
1, 1298957, Note_on_c, 0, 59, 47
1, 1298974, Note_on_c, 0, 92, 89
1, 1298975, Note_on_c, 0, 80, 89
1, 1299023, Note_off_c, 0, 80, 61
1, 1299049, Note_off_c, 0, 59, 61
1, 1299058, Note_on_c, 0, 64, 67
1, 1299065, Note_off_c, 0, 92, 63
1, 1299133, Note_on_c, 0, 68, 83
1, 1299150, Note_off_c, 0, 64, 54
1, 1299237, Note_on_c, 0, 59, 67
1, 1299241, Note_off_c, 0, 68, 62
1, 1299247, Note_on_c, 0, 81, 105
1, 1299248, Note_on_c, 0, 93, 102
1, 1299312, Note_off_c, 0, 81, 60
1, 1299336, Note_off_c, 0, 59, 61
1, 1299338, Note_off_c, 0, 93, 67
1, 1299341, Note_on_c, 0, 64, 73
1, 1299422, Note_on_c, 0, 68, 80
1, 1299505, Note_off_c, 0, 64, 31
1, 1299533, Note_on_c, 0, 59, 63
1, 1299576, Note_on_c, 0, 83, 105
1, 1299576, Note_on_c, 0, 95, 107
1, 1299617, Note_off_c, 0, 68, 49
1, 1299631, Control_c, 0, 64, 91
1, 1299646, Control_c, 0, 64, 69
1, 1299660, Control_c, 0, 64, 60
1, 1299675, Control_c, 0, 64, 69
1, 1299687, Note_on_c, 0, 64, 72
1, 1299690, Control_c, 0, 64, 85
1, 1299705, Control_c, 0, 64, 127
1, 1299744, Note_off_c, 0, 59, 61
1, 1299772, Note_on_c, 0, 68, 77
1, 1299811, Note_off_c, 0, 83, 59
1, 1299848, Note_off_c, 0, 64, 59
1, 1299858, Note_on_c, 0, 59, 77
1, 1299878, Note_off_c, 0, 68, 62
1, 1299945, Note_off_c, 0, 59, 62
1, 1299955, Note_on_c, 0, 64, 76
1, 1300007, Note_off_c, 0, 64, 63
1, 1300022, Note_on_c, 0, 68, 82
1, 1300081, Note_off_c, 0, 95, 36
1, 1300115, Note_off_c, 0, 68, 59
1, 1300149, Note_on_c, 0, 56, 72
1, 1300151, Note_on_c, 0, 84, 110
1, 1300151, Note_on_c, 0, 96, 105
1, 1300172, Control_c, 0, 64, 106
1, 1300187, Control_c, 0, 64, 72
1, 1300202, Control_c, 0, 64, 56
1, 1300232, Control_c, 0, 64, 67
1, 1300246, Control_c, 0, 64, 85
1, 1300261, Control_c, 0, 64, 127
1, 1300280, Note_on_c, 0, 63, 72
1, 1300303, Note_off_c, 0, 56, 59
1, 1300353, Note_on_c, 0, 66, 73
1, 1300393, Note_off_c, 0, 63, 60
1, 1300419, Note_on_c, 0, 56, 68
1, 1300431, Note_off_c, 0, 66, 59
1, 1300433, Note_off_c, 0, 84, 59
1, 1300442, Note_off_c, 0, 96, 64
1, 1300514, Note_on_c, 0, 63, 65
1, 1300537, Note_off_c, 0, 56, 56
1, 1300573, Poly_aftertouch_c, 0, 91, 127
1, 1300576, Note_off_c, 0, 63, 56
1, 1300582, Note_on_c, 0, 66, 66
1, 1300650, Note_off_c, 0, 66, 59
1, 1300721, Note_on_c, 0, 57, 72
1, 1300722, Note_on_c, 0, 85, 101
1, 1300723, Note_on_c, 0, 97, 105
1, 1300735, Control_c, 0, 64, 95
1, 1300750, Control_c, 0, 64, 68
1, 1300764, Control_c, 0, 64, 54
1, 1300778, Note_on_c, 0, 93, 16
1, 1300779, Control_c, 0, 64, 63
1, 1300794, Control_c, 0, 64, 76
1, 1300809, Control_c, 0, 64, 127
1, 1300844, Note_on_c, 0, 61, 68
1, 1300853, Note_off_c, 0, 97, 65
1, 1300858, Note_off_c, 0, 57, 57
1, 1300875, Note_off_c, 0, 93, 59
1, 1300891, Poly_aftertouch_c, 0, 91, 0
1, 1300903, Note_off_c, 0, 85, 66
1, 1300940, Note_on_c, 0, 64, 71
1, 1300989, Note_off_c, 0, 61, 52
1, 1301022, Note_on_c, 0, 57, 65
1, 1301030, Note_off_c, 0, 64, 60
1, 1301104, Note_on_c, 0, 61, 75
1, 1301119, Note_off_c, 0, 57, 62
1, 1301194, Note_on_c, 0, 64, 79
1, 1301306, Note_on_c, 0, 42, 102
1, 1301311, Note_on_c, 0, 57, 74
1, 1301317, Note_off_c, 0, 61, 44
1, 1301336, Control_c, 0, 64, 96
1, 1301351, Control_c, 0, 64, 64
1, 1301363, Note_off_c, 0, 64, 54
1, 1301366, Control_c, 0, 64, 0
1, 1301370, Note_on_c, 0, 45, 43
1, 1301395, Control_c, 0, 64, 49
1, 1301410, Control_c, 0, 64, 67
1, 1301425, Note_on_c, 0, 61, 73
1, 1301425, Control_c, 0, 64, 96
1, 1301437, Note_off_c, 0, 45, 51
1, 1301440, Control_c, 0, 64, 127
1, 1301455, Note_off_c, 0, 57, 60
1, 1301516, Note_on_c, 0, 63, 82
1, 1301520, Note_off_c, 0, 42, 64
1, 1301574, Note_off_c, 0, 61, 59
1, 1301601, Note_on_c, 0, 57, 68
1, 1301613, Note_off_c, 0, 63, 60
1, 1301710, Note_on_c, 0, 61, 75
1, 1301723, Note_off_c, 0, 57, 61
1, 1301804, Note_on_c, 0, 63, 82
1, 1301831, Note_off_c, 0, 61, 58
1, 1301914, Note_on_c, 0, 44, 105
1, 1301923, Note_off_c, 0, 63, 61
1, 1301933, Note_on_c, 0, 56, 68
1, 1301967, Control_c, 0, 64, 92
1, 1301982, Control_c, 0, 64, 66
1, 1301997, Control_c, 0, 64, 0
1, 1302041, Control_c, 0, 64, 59
1, 1302051, Note_on_c, 0, 61, 70
1, 1302051, Note_off_c, 0, 56, 60
1, 1302056, Control_c, 0, 64, 77
1, 1302071, Control_c, 0, 64, 127
1, 1302129, Note_on_c, 0, 64, 72
1, 1302155, Note_off_c, 0, 61, 47
1, 1302183, Note_off_c, 0, 44, 58
1, 1302211, Note_on_c, 0, 56, 69
1, 1302217, Note_off_c, 0, 64, 60
1, 1302284, Note_on_c, 0, 61, 72
1, 1302304, Note_off_c, 0, 56, 55
1, 1302343, Note_off_c, 0, 61, 60
1, 1302357, Note_on_c, 0, 64, 68
1, 1302474, Note_off_c, 0, 64, 52
1, 1302479, Control_c, 0, 64, 87
1, 1302485, Note_on_c, 0, 57, 62
1, 1302494, Control_c, 0, 64, 63
1, 1302500, Note_on_c, 0, 45, 113
1, 1302508, Control_c, 0, 64, 0
1, 1302538, Control_c, 0, 64, 36
1, 1302553, Control_c, 0, 64, 59
1, 1302567, Control_c, 0, 64, 74
1, 1302582, Control_c, 0, 64, 98
1, 1302597, Control_c, 0, 64, 127
1, 1302601, Note_off_c, 0, 57, 62
1, 1302608, Note_on_c, 0, 64, 74
1, 1302627, Note_off_c, 0, 45, 64
1, 1302694, Note_on_c, 0, 66, 85
1, 1302700, Note_off_c, 0, 64, 61
1, 1302775, Control_c, 0, 64, 86
1, 1302790, Note_on_c, 0, 46, 106
1, 1302790, Control_c, 0, 64, 61
1, 1302796, Note_off_c, 0, 66, 60
1, 1302799, Note_on_c, 0, 58, 72
1, 1302805, Control_c, 0, 64, 0
1, 1302820, Control_c, 0, 64, 40
1, 1302834, Control_c, 0, 64, 60
1, 1302849, Control_c, 0, 64, 73
1, 1302864, Control_c, 0, 64, 127
1, 1302886, Note_on_c, 0, 64, 72
1, 1302899, Note_off_c, 0, 58, 60
1, 1302969, Note_off_c, 0, 64, 60
1, 1302971, Note_on_c, 0, 66, 75
1, 1303057, Note_off_c, 0, 66, 58
1, 1303088, Note_on_c, 0, 59, 60
1, 1303095, Note_off_c, 0, 46, 37
1, 1303105, Note_on_c, 0, 47, 105
1, 1303152, Control_c, 0, 64, 77
1, 1303166, Control_c, 0, 64, 43
1, 1303181, Control_c, 0, 64, 0
1, 1303211, Note_on_c, 0, 64, 70
1, 1303212, Note_off_c, 0, 59, 61
1, 1303226, Control_c, 0, 64, 37
1, 1303240, Control_c, 0, 64, 60
1, 1303256, Control_c, 0, 64, 73
1, 1303271, Control_c, 0, 64, 91
1, 1303277, Note_off_c, 0, 47, 64
1, 1303285, Note_off_c, 0, 64, 61
1, 1303286, Control_c, 0, 64, 127
1, 1303295, Note_on_c, 0, 68, 78
1, 1303399, Note_off_c, 0, 68, 59
1, 1303402, Note_on_c, 0, 59, 64
1, 1303487, Note_on_c, 0, 64, 68
1, 1303494, Note_off_c, 0, 59, 60
1, 1303563, Note_on_c, 0, 68, 79
1, 1303637, Note_off_c, 0, 64, 34
1, 1303674, Note_on_c, 0, 59, 65
1, 1303679, Note_on_c, 0, 83, 105
1, 1303680, Note_off_c, 0, 68, 61
1, 1303681, Note_on_c, 0, 95, 103
1, 1303762, Note_off_c, 0, 83, 60
1, 1303774, Note_on_c, 0, 64, 71
1, 1303774, Note_off_c, 0, 59, 61
1, 1303787, Note_off_c, 0, 95, 65
1, 1303848, Note_on_c, 0, 68, 90
1, 1303934, Note_off_c, 0, 64, 37
1, 1303968, Note_off_c, 0, 68, 61
1, 1303969, Note_on_c, 0, 96, 104
1, 1303970, Note_on_c, 0, 84, 111
1, 1303971, Note_on_c, 0, 60, 75
1, 1304021, Note_on_c, 0, 95, 32
1, 1304054, Note_off_c, 0, 84, 60
1, 1304060, Note_off_c, 0, 95, 53
1, 1304066, Note_off_c, 0, 60, 63
1, 1304069, Note_on_c, 0, 64, 73
1, 1304075, Note_off_c, 0, 96, 65
1, 1304139, Note_on_c, 0, 68, 75
1, 1304244, Note_on_c, 0, 61, 67
1, 1304248, Note_off_c, 0, 64, 58
1, 1304286, Note_on_c, 0, 85, 102
1, 1304287, Note_on_c, 0, 97, 103
1, 1304289, Note_off_c, 0, 68, 38
1, 1304314, Note_on_c, 0, 91, 34
1, 1304317, Control_c, 0, 64, 80
1, 1304331, Control_c, 0, 64, 60
1, 1304346, Control_c, 0, 64, 50
1, 1304353, Note_off_c, 0, 91, 41
1, 1304361, Control_c, 0, 64, 64
1, 1304375, Note_on_c, 0, 64, 70
1, 1304376, Control_c, 0, 64, 76
1, 1304391, Control_c, 0, 64, 127
1, 1304403, Note_off_c, 0, 97, 66
1, 1304411, Note_off_c, 0, 61, 59
1, 1304412, Note_on_c, 0, 93, 29
1, 1304435, Note_off_c, 0, 85, 67
1, 1304448, Note_off_c, 0, 93, 43
1, 1304460, Note_on_c, 0, 68, 75
1, 1304516, Note_off_c, 0, 64, 60
1, 1304537, Note_on_c, 0, 61, 69
1, 1304546, Note_off_c, 0, 68, 61
1, 1304627, Note_off_c, 0, 61, 60
1, 1304639, Note_on_c, 0, 64, 67
1, 1304718, Note_on_c, 0, 68, 66
1, 1304722, Note_off_c, 0, 64, 51
1, 1304764, Note_off_c, 0, 68, 60
1, 1304830, Note_on_c, 0, 45, 115
1, 1304837, Note_on_c, 0, 57, 66
1, 1304843, Control_c, 0, 64, 92
1, 1304859, Control_c, 0, 64, 62
1, 1304874, Control_c, 0, 64, 36
1, 1304889, Control_c, 0, 64, 47
1, 1304903, Control_c, 0, 64, 61
1, 1304918, Control_c, 0, 64, 73
1, 1304933, Control_c, 0, 64, 108
1, 1304937, Note_off_c, 0, 57, 63
1, 1304945, Note_on_c, 0, 64, 76
1, 1304948, Control_c, 0, 64, 127
1, 1304960, Note_off_c, 0, 45, 63
1, 1305028, Note_on_c, 0, 66, 82
1, 1305032, Note_off_c, 0, 64, 60
1, 1305123, Note_on_c, 0, 46, 101
1, 1305125, Control_c, 0, 64, 106
1, 1305130, Note_on_c, 0, 58, 72
1, 1305135, Note_off_c, 0, 66, 60
1, 1305140, Control_c, 0, 64, 73
1, 1305154, Control_c, 0, 64, 55
1, 1305169, Control_c, 0, 64, 56
1, 1305184, Control_c, 0, 64, 64
1, 1305199, Control_c, 0, 64, 76
1, 1305214, Control_c, 0, 64, 103
1, 1305226, Note_on_c, 0, 64, 68
1, 1305227, Note_off_c, 0, 58, 62
1, 1305229, Control_c, 0, 64, 127
1, 1305240, Poly_aftertouch_c, 0, 47, 0
1, 1305241, Note_off_c, 0, 46, 59
1, 1305270, Poly_aftertouch_c, 0, 52, 127
1, 1305306, Note_on_c, 0, 66, 74
1, 1305317, Note_off_c, 0, 64, 56
1, 1305318, Poly_aftertouch_c, 0, 52, 0
1, 1305409, Note_off_c, 0, 66, 55
1, 1305427, Note_on_c, 0, 59, 57
1, 1305449, Note_on_c, 0, 47, 106
1, 1305473, Control_c, 0, 64, 79
1, 1305488, Control_c, 0, 64, 55
1, 1305503, Control_c, 0, 64, 0
1, 1305548, Control_c, 0, 64, 46
1, 1305554, Note_on_c, 0, 64, 68
1, 1305559, Note_off_c, 0, 59, 61
1, 1305562, Control_c, 0, 64, 63
1, 1305577, Control_c, 0, 64, 72
1, 1305592, Control_c, 0, 64, 84
1, 1305606, Note_off_c, 0, 47, 65
1, 1305607, Control_c, 0, 64, 101
1, 1305622, Control_c, 0, 64, 127
1, 1305631, Note_on_c, 0, 68, 79
1, 1305656, Note_off_c, 0, 64, 54
1, 1305731, Note_on_c, 0, 59, 67
1, 1305733, Note_off_c, 0, 68, 59
1, 1305821, Note_on_c, 0, 64, 69
1, 1305830, Note_off_c, 0, 59, 58
1, 1305893, Note_on_c, 0, 68, 78
1, 1305959, Note_off_c, 0, 64, 55
1, 1305989, Note_on_c, 0, 59, 62
1, 1305998, Note_on_c, 0, 83, 104
1, 1306000, Note_on_c, 0, 95, 101
1, 1306002, Note_off_c, 0, 68, 60
1, 1306084, Note_off_c, 0, 83, 60
1, 1306093, Note_on_c, 0, 64, 70
1, 1306094, Note_off_c, 0, 59, 62
1, 1306110, Note_off_c, 0, 95, 65
1, 1306174, Note_on_c, 0, 68, 82
1, 1306242, Note_off_c, 0, 64, 55
1, 1306278, Note_on_c, 0, 60, 75
1, 1306284, Note_on_c, 0, 84, 109
1, 1306284, Note_off_c, 0, 68, 61
1, 1306286, Note_on_c, 0, 96, 107
1, 1306377, Note_off_c, 0, 60, 64
1, 1306378, Note_on_c, 0, 64, 72
1, 1306379, Note_off_c, 0, 84, 60
1, 1306396, Note_off_c, 0, 96, 64
1, 1306449, Note_on_c, 0, 68, 79
1, 1306529, Poly_aftertouch_c, 0, 91, 127
1, 1306564, Poly_aftertouch_c, 0, 91, 0
1, 1306584, Note_on_c, 0, 61, 68
1, 1306588, Note_off_c, 0, 64, 54
1, 1306597, Note_on_c, 0, 85, 99
1, 1306598, Note_on_c, 0, 97, 99
1, 1306623, Note_off_c, 0, 68, 54
1, 1306623, Control_c, 0, 64, 98
1, 1306638, Control_c, 0, 64, 68
1, 1306652, Control_c, 0, 64, 46
1, 1306667, Control_c, 0, 64, 58
1, 1306682, Poly_aftertouch_c, 0, 93, 127
1, 1306682, Control_c, 0, 64, 71
1, 1306697, Control_c, 0, 64, 93
1, 1306706, Note_off_c, 0, 97, 65
1, 1306707, Note_on_c, 0, 64, 73
1, 1306712, Control_c, 0, 64, 127
1, 1306737, Poly_aftertouch_c, 0, 93, 0
1, 1306737, Note_off_c, 0, 61, 58
1, 1306746, Note_off_c, 0, 85, 66
1, 1306797, Note_on_c, 0, 68, 69
1, 1306853, Note_off_c, 0, 64, 57
1, 1306889, Note_on_c, 0, 61, 64
1, 1306895, Note_off_c, 0, 68, 61
1, 1306976, Note_on_c, 0, 64, 68
1, 1306980, Note_off_c, 0, 61, 58
1, 1307064, Note_on_c, 0, 68, 63
1, 1307122, Note_off_c, 0, 64, 36
1, 1307160, Note_on_c, 0, 42, 98
1, 1307164, Note_off_c, 0, 68, 52
1, 1307178, Control_c, 0, 64, 100
1, 1307181, Note_on_c, 0, 61, 67
1, 1307193, Control_c, 0, 64, 70
1, 1307208, Control_c, 0, 64, 51
1, 1307223, Control_c, 0, 64, 52
1, 1307238, Control_c, 0, 64, 65
1, 1307253, Control_c, 0, 64, 77
1, 1307268, Control_c, 0, 64, 109
1, 1307274, Note_off_c, 0, 61, 61
1, 1307276, Note_on_c, 0, 63, 75
1, 1307283, Control_c, 0, 64, 127
1, 1307330, Note_off_c, 0, 42, 60
1, 1307348, Note_on_c, 0, 69, 81
1, 1307437, Note_off_c, 0, 63, 54
1, 1307448, Note_on_c, 0, 43, 105
1, 1307460, Note_on_c, 0, 61, 73
1, 1307495, Note_off_c, 0, 69, 54
1, 1307565, Note_on_c, 0, 63, 74
1, 1307566, Note_off_c, 0, 43, 59
1, 1307575, Note_off_c, 0, 61, 58
1, 1307653, Note_on_c, 0, 69, 75
1, 1307682, Note_off_c, 0, 63, 60
1, 1307749, Poly_aftertouch_c, 0, 65, 127
1, 1307787, Note_on_c, 0, 61, 59
1, 1307788, Note_off_c, 0, 69, 57
1, 1307804, Note_on_c, 0, 44, 103
1, 1307838, Control_c, 0, 64, 86
1, 1307853, Control_c, 0, 64, 62
1, 1307868, Control_c, 0, 64, 0
1, 1307912, Control_c, 0, 64, 46
1, 1307922, Poly_aftertouch_c, 0, 65, 0
1, 1307923, Note_on_c, 0, 64, 63
1, 1307926, Note_off_c, 0, 61, 61
1, 1307927, Control_c, 0, 64, 64
1, 1307942, Control_c, 0, 64, 79
1, 1307956, Control_c, 0, 64, 103
1, 1307971, Control_c, 0, 64, 127
1, 1308025, Note_on_c, 0, 68, 80
1, 1308079, Note_off_c, 0, 64, 37
1, 1308118, Note_off_c, 0, 68, 58
1, 1308126, Note_on_c, 0, 61, 71
1, 1308141, Note_off_c, 0, 44, 56
1, 1308219, Note_off_c, 0, 61, 61
1, 1308224, Note_on_c, 0, 64, 69
1, 1308303, Note_on_c, 0, 68, 80
1, 1308305, Note_off_c, 0, 64, 55
1, 1308389, Note_off_c, 0, 68, 61
1, 1308412, Note_on_c, 0, 45, 111
1, 1308427, Note_on_c, 0, 61, 72
1, 1308439, Control_c, 0, 64, 77
1, 1308454, Control_c, 0, 64, 54
1, 1308469, Control_c, 0, 64, 0
1, 1308498, Control_c, 0, 64, 43
1, 1308513, Control_c, 0, 64, 63
1, 1308528, Control_c, 0, 64, 77
1, 1308534, Note_off_c, 0, 61, 60
1, 1308535, Note_on_c, 0, 64, 69
1, 1308543, Control_c, 0, 64, 125
1, 1308558, Control_c, 0, 64, 127
1, 1308634, Note_on_c, 0, 69, 73
1, 1308684, Note_off_c, 0, 64, 35
1, 1308729, Note_on_c, 0, 61, 65
1, 1308750, Note_off_c, 0, 69, 55
1, 1308811, Note_off_c, 0, 61, 60
1, 1308817, Note_on_c, 0, 64, 65
1, 1308901, Note_on_c, 0, 69, 62
1, 1308963, Note_off_c, 0, 64, 59
1, 1308978, Note_off_c, 0, 69, 60
1, 1309020, Note_on_c, 0, 61, 53
1, 1309022, Note_on_c, 0, 42, 98
1, 1309062, Control_c, 0, 64, 112
1, 1309077, Control_c, 0, 64, 76
1, 1309083, Note_off_c, 0, 45, 48
1, 1309092, Control_c, 0, 64, 55
1, 1309107, Control_c, 0, 64, 0
1, 1309140, Note_off_c, 0, 61, 60
1, 1309146, Note_on_c, 0, 63, 58
1, 1309159, Control_c, 0, 64, 50
1, 1309174, Control_c, 0, 64, 65
1, 1309189, Control_c, 0, 64, 75
1, 1309203, Control_c, 0, 64, 89
1, 1309218, Control_c, 0, 64, 107
1, 1309231, Note_on_c, 0, 66, 69
1, 1309233, Control_c, 0, 64, 127
1, 1309300, Note_off_c, 0, 63, 29
1, 1309306, Note_off_c, 0, 66, 58
1, 1309339, Note_on_c, 0, 61, 55
1, 1309417, Note_off_c, 0, 61, 59
1, 1309432, Note_on_c, 0, 63, 52
1, 1309522, Note_on_c, 0, 66, 60
1, 1309608, Note_off_c, 0, 66, 50
1, 1309619, Note_on_c, 0, 44, 86
1, 1309624, Note_off_c, 0, 63, 42
1, 1309635, Note_off_c, 0, 42, 55
1, 1309645, Note_on_c, 0, 60, 55
1, 1309649, Control_c, 0, 64, 102
1, 1309664, Control_c, 0, 64, 75
1, 1309678, Control_c, 0, 64, 56
1, 1309693, Control_c, 0, 64, 0
1, 1309723, Control_c, 0, 64, 41
1, 1309738, Control_c, 0, 64, 61
1, 1309750, Note_on_c, 0, 63, 54
1, 1309752, Control_c, 0, 64, 70
1, 1309753, Note_off_c, 0, 60, 59
1, 1309767, Control_c, 0, 64, 79
1, 1309782, Control_c, 0, 64, 92
1, 1309797, Control_c, 0, 64, 105
1, 1309812, Control_c, 0, 64, 127
1, 1309839, Note_on_c, 0, 68, 58
1, 1309897, Note_off_c, 0, 63, 37
1, 1309932, Note_off_c, 0, 68, 51
1, 1309933, Note_on_c, 0, 60, 47
1, 1310013, Note_off_c, 0, 60, 60
1, 1310024, Note_on_c, 0, 63, 55
1, 1310077, Note_off_c, 0, 63, 56
1, 1310122, Note_on_c, 0, 68, 44
1, 1310240, Note_off_c, 0, 68, 37
1, 1310278, Control_c, 0, 64, 100
1, 1310278, Note_on_c, 0, 61, 46
1, 1310293, Control_c, 0, 64, 73
1, 1310295, Note_on_c, 0, 37, 92
1, 1310299, Note_off_c, 0, 44, 56
1, 1310308, Control_c, 0, 64, 51
1, 1310323, Control_c, 0, 64, 0
1, 1310352, Control_c, 0, 64, 52
1, 1310367, Control_c, 0, 64, 65
1, 1310382, Control_c, 0, 64, 77
1, 1310389, Note_off_c, 0, 37, 62
1, 1310396, Control_c, 0, 64, 93
1, 1310407, Note_off_c, 0, 61, 56
1, 1310411, Control_c, 0, 64, 119
1, 1310426, Control_c, 0, 64, 127
1, 1310430, Note_on_c, 0, 65, 50
1, 1310505, Note_off_c, 0, 65, 49
1, 1310529, Note_on_c, 0, 68, 48
1, 1310585, Note_off_c, 0, 68, 54
1, 1310639, Note_on_c, 0, 61, 41
1, 1310696, Note_off_c, 0, 61, 54
1, 1310736, Note_on_c, 0, 65, 48
1, 1310792, Note_off_c, 0, 65, 54
1, 1310826, Note_on_c, 0, 68, 47
1, 1310885, Note_off_c, 0, 68, 52
1, 1310919, Note_on_c, 0, 84, 80
1, 1310934, Note_on_c, 0, 61, 40
1, 1310980, Note_off_c, 0, 84, 58
1, 1310989, Note_off_c, 0, 61, 56
1, 1311030, Note_on_c, 0, 65, 51
1, 1311083, Note_off_c, 0, 65, 56
1, 1311125, Note_on_c, 0, 68, 48
1, 1311188, Note_off_c, 0, 68, 52
1, 1311227, Note_on_c, 0, 61, 41
1, 1311227, Note_on_c, 0, 85, 86
1, 1311290, Note_off_c, 0, 61, 54
1, 1311295, Note_off_c, 0, 85, 65
1, 1311316, Note_on_c, 0, 65, 52
1, 1311377, Note_off_c, 0, 65, 58
1, 1311414, Note_on_c, 0, 68, 52
1, 1311469, Note_off_c, 0, 68, 54
1, 1311538, Control_c, 0, 64, 90
1, 1311539, Note_on_c, 0, 61, 39
1, 1311553, Control_c, 0, 64, 67
1, 1311567, Control_c, 0, 64, 51
1, 1311572, Note_on_c, 0, 86, 86
1, 1311582, Control_c, 0, 64, 49
1, 1311597, Control_c, 0, 64, 57
1, 1311612, Control_c, 0, 64, 65
1, 1311627, Control_c, 0, 64, 78
1, 1311641, Control_c, 0, 64, 100
1, 1311656, Control_c, 0, 64, 127
1, 1311687, Note_on_c, 0, 66, 54
1, 1311705, Note_off_c, 0, 86, 62
1, 1311708, Note_off_c, 0, 61, 42
1, 1311748, Note_off_c, 0, 66, 49
1, 1311788, Note_on_c, 0, 69, 45
1, 1311875, Note_on_c, 0, 61, 38
1, 1311912, Note_off_c, 0, 69, 36
1, 1311934, Note_off_c, 0, 61, 53
1, 1311953, Note_on_c, 0, 66, 50
1, 1312038, Note_off_c, 0, 66, 48
1, 1312046, Note_on_c, 0, 69, 49
1, 1312188, Note_on_c, 0, 61, 40
1, 1312196, Note_on_c, 0, 42, 66
1, 1312207, Note_off_c, 0, 69, 34
1, 1312264, Note_off_c, 0, 42, 59
1, 1312270, Note_off_c, 0, 61, 51
1, 1312281, Note_on_c, 0, 66, 53
1, 1312340, Note_off_c, 0, 66, 53
1, 1312384, Note_on_c, 0, 69, 45
1, 1312490, Note_on_c, 0, 45, 78
1, 1312513, Note_off_c, 0, 69, 35
1, 1312514, Note_on_c, 0, 61, 34
1, 1312556, Note_off_c, 0, 45, 58
1, 1312559, Note_off_c, 0, 61, 48
1, 1312576, Note_on_c, 0, 66, 51
1, 1312619, Note_off_c, 0, 66, 61
1, 1312666, Note_on_c, 0, 69, 41
1, 1312769, Note_off_c, 0, 69, 51
1, 1312790, Control_c, 0, 64, 98
1, 1312801, Note_on_c, 0, 61, 37
1, 1312805, Control_c, 0, 64, 73
1, 1312820, Control_c, 0, 64, 49
1, 1312828, Note_on_c, 0, 49, 70
1, 1312836, Control_c, 0, 64, 0
1, 1312873, Control_c, 0, 64, 44
1, 1312878, Note_off_c, 0, 61, 54
1, 1312887, Control_c, 0, 64, 59
1, 1312902, Control_c, 0, 64, 68
1, 1312916, Note_on_c, 0, 65, 42
1, 1312917, Control_c, 0, 64, 79
1, 1312932, Control_c, 0, 64, 93
1, 1312947, Control_c, 0, 64, 106
1, 1312962, Control_c, 0, 64, 127
1, 1312964, Note_off_c, 0, 49, 59
1, 1313024, Note_on_c, 0, 68, 48
1, 1313024, Note_off_c, 0, 65, 36
1, 1313095, Note_off_c, 0, 68, 45
1, 1313121, Note_on_c, 0, 61, 38
1, 1313177, Note_off_c, 0, 61, 52
1, 1313212, Note_on_c, 0, 65, 44
1, 1313287, Note_off_c, 0, 65, 47
1, 1313301, Note_on_c, 0, 68, 42
1, 1313385, Note_off_c, 0, 68, 46
1, 1313407, Note_on_c, 0, 84, 76
1, 1313415, Note_on_c, 0, 61, 40
1, 1313478, Note_off_c, 0, 84, 57
1, 1313501, Note_off_c, 0, 61, 46
1, 1313513, Note_on_c, 0, 65, 44
1, 1313616, Note_on_c, 0, 68, 43
1, 1313643, Note_off_c, 0, 65, 29
1, 1313671, Note_off_c, 0, 68, 48
1, 1313700, Note_on_c, 0, 61, 39
1, 1313712, Note_on_c, 0, 85, 79
1, 1313771, Note_off_c, 0, 85, 63
1, 1313778, Note_off_c, 0, 61, 51
1, 1313805, Note_on_c, 0, 65, 48
1, 1313854, Note_off_c, 0, 65, 58
1, 1313887, Note_on_c, 0, 68, 44
1, 1313941, Note_off_c, 0, 68, 49
1, 1313961, Control_c, 0, 64, 99
1, 1313976, Control_c, 0, 64, 75
1, 1313980, Note_on_c, 0, 61, 32
1, 1313991, Control_c, 0, 64, 60
1, 1314006, Control_c, 0, 64, 50
1, 1314020, Note_on_c, 0, 86, 78
1, 1314021, Control_c, 0, 64, 55
1, 1314035, Control_c, 0, 64, 60
1, 1314050, Control_c, 0, 64, 66
1, 1314065, Control_c, 0, 64, 75
1, 1314080, Control_c, 0, 64, 90
1, 1314095, Control_c, 0, 64, 120
1, 1314109, Control_c, 0, 64, 127
1, 1314121, Note_on_c, 0, 66, 48
1, 1314133, Note_off_c, 0, 61, 41
1, 1314152, Note_off_c, 0, 86, 62
1, 1314176, Note_off_c, 0, 66, 54
1, 1314225, Note_on_c, 0, 69, 39
1, 1314318, Note_on_c, 0, 61, 36
1, 1314320, Note_off_c, 0, 69, 37
1, 1314376, Note_off_c, 0, 61, 47
1, 1314389, Note_on_c, 0, 66, 48
1, 1314487, Note_off_c, 0, 66, 33
1, 1314495, Note_on_c, 0, 69, 35
1, 1314616, Note_on_c, 0, 42, 58
1, 1314618, Note_on_c, 0, 61, 37
1, 1314632, Note_off_c, 0, 69, 30
1, 1314677, Note_off_c, 0, 42, 58
1, 1314682, Note_off_c, 0, 61, 50
1, 1314696, Note_on_c, 0, 66, 43
1, 1314786, Note_off_c, 0, 66, 48
1, 1314817, Note_on_c, 0, 69, 33
1, 1314904, Note_on_c, 0, 45, 65
1, 1314918, Note_on_c, 0, 61, 34
1, 1314954, Note_off_c, 0, 69, 35
1, 1314960, Note_off_c, 0, 45, 55
1, 1314970, Note_off_c, 0, 61, 43
1, 1314993, Note_on_c, 0, 66, 43
1, 1315044, Note_off_c, 0, 66, 50
1, 1315090, Note_on_c, 0, 69, 43
1, 1315177, Note_off_c, 0, 69, 45
1, 1315192, Control_c, 0, 64, 113
1, 1315207, Control_c, 0, 64, 78
1, 1315222, Note_on_c, 0, 49, 57
1, 1315222, Control_c, 0, 64, 60
1, 1315229, Note_on_c, 0, 61, 36
1, 1315238, Control_c, 0, 64, 36
1, 1315253, Control_c, 0, 64, 35
1, 1315268, Control_c, 0, 64, 46
1, 1315283, Control_c, 0, 64, 58
1, 1315297, Control_c, 0, 64, 66
1, 1315312, Control_c, 0, 64, 76
1, 1315318, Note_off_c, 0, 61, 54
1, 1315327, Control_c, 0, 64, 87
1, 1315341, Control_c, 0, 64, 99
1, 1315356, Control_c, 0, 64, 107
1, 1315358, Note_on_c, 0, 65, 42
1, 1315371, Control_c, 0, 64, 118
1, 1315386, Control_c, 0, 64, 127
1, 1315387, Note_off_c, 0, 49, 56
1, 1315429, Note_off_c, 0, 65, 38
1, 1315447, Note_on_c, 0, 68, 42
1, 1315522, Note_off_c, 0, 68, 42
1, 1315528, Note_on_c, 0, 61, 44
1, 1315594, Note_off_c, 0, 61, 50
1, 1315646, Note_on_c, 0, 65, 45
1, 1315691, Note_off_c, 0, 65, 56
1, 1315723, Note_on_c, 0, 68, 42
1, 1315780, Note_off_c, 0, 68, 55
1, 1315815, Control_c, 0, 64, 106
1, 1315823, Note_on_c, 0, 61, 40
1, 1315823, Note_on_c, 0, 78, 63
1, 1315830, Control_c, 0, 64, 78
1, 1315845, Control_c, 0, 64, 63
1, 1315868, Control_c, 0, 64, 49
1, 1315883, Control_c, 0, 64, 52
1, 1315897, Control_c, 0, 64, 60
1, 1315912, Control_c, 0, 64, 69
1, 1315927, Control_c, 0, 64, 78
1, 1315939, Note_on_c, 0, 66, 47
1, 1315941, Control_c, 0, 64, 90
1, 1315942, Note_off_c, 0, 61, 47
1, 1315956, Control_c, 0, 64, 100
1, 1315971, Control_c, 0, 64, 111
1, 1315986, Control_c, 0, 64, 127
1, 1315999, Note_off_c, 0, 78, 38
1, 1316020, Note_off_c, 0, 66, 41
1, 1316064, Note_on_c, 0, 69, 19
1, 1316129, Note_off_c, 0, 69, 41
1, 1316132, Note_on_c, 0, 61, 31
1, 1316141, Note_on_c, 0, 81, 69
1, 1316208, Note_off_c, 0, 61, 37
1, 1316217, Note_on_c, 0, 66, 46
1, 1316228, Note_off_c, 0, 81, 51
1, 1316273, Note_off_c, 0, 66, 52
1, 1316318, Note_on_c, 0, 69, 28
1, 1316416, Control_c, 0, 64, 91
1, 1316422, Note_on_c, 0, 61, 34
1, 1316428, Note_off_c, 0, 69, 33
1, 1316431, Control_c, 0, 64, 70
1, 1316446, Control_c, 0, 64, 59
1, 1316455, Note_on_c, 0, 85, 64
1, 1316461, Control_c, 0, 64, 56
1, 1316476, Control_c, 0, 64, 59
1, 1316491, Control_c, 0, 64, 63
1, 1316505, Control_c, 0, 64, 68
1, 1316508, Note_off_c, 0, 61, 50
1, 1316520, Control_c, 0, 64, 77
1, 1316535, Control_c, 0, 64, 90
1, 1316546, Note_on_c, 0, 65, 43
1, 1316550, Control_c, 0, 64, 110
1, 1316553, Note_off_c, 0, 85, 63
1, 1316565, Control_c, 0, 64, 127
1, 1316625, Note_off_c, 0, 65, 38
1, 1316642, Note_on_c, 0, 68, 44
1, 1316708, Note_off_c, 0, 68, 52
1, 1316720, Note_on_c, 0, 61, 35
1, 1316784, Note_off_c, 0, 61, 47
1, 1316811, Note_on_c, 0, 65, 43
1, 1316886, Note_off_c, 0, 65, 53
1, 1316919, Note_on_c, 0, 68, 38
1, 1316994, Note_off_c, 0, 68, 49
1, 1317012, Note_on_c, 0, 61, 39
1, 1317018, Note_on_c, 0, 42, 49
1, 1317018, Control_c, 0, 64, 92
1, 1317033, Control_c, 0, 64, 71
1, 1317048, Control_c, 0, 64, 57
1, 1317062, Control_c, 0, 64, 49
1, 1317077, Control_c, 0, 64, 55
1, 1317092, Control_c, 0, 64, 63
1, 1317106, Control_c, 0, 64, 71
1, 1317111, Note_off_c, 0, 61, 50
1, 1317117, Note_on_c, 0, 66, 45
1, 1317121, Control_c, 0, 64, 81
1, 1317136, Control_c, 0, 64, 91
1, 1317151, Control_c, 0, 64, 98
1, 1317166, Control_c, 0, 64, 101
1, 1317180, Control_c, 0, 64, 104
1, 1317193, Note_off_c, 0, 66, 48
1, 1317202, Note_off_c, 0, 42, 41
1, 1317232, Note_on_c, 0, 69, 36
1, 1317240, Control_c, 0, 64, 107
1, 1317254, Control_c, 0, 64, 109
1, 1317299, Note_on_c, 0, 45, 64
1, 1317312, Note_on_c, 0, 61, 32
1, 1317313, Control_c, 0, 64, 111
1, 1317331, Note_off_c, 0, 69, 35
1, 1317391, Note_on_c, 0, 66, 43
1, 1317394, Control_c, 0, 64, 113
1, 1317412, Note_off_c, 0, 45, 38
1, 1317415, Note_off_c, 0, 61, 34
1, 1317453, Note_off_c, 0, 66, 53
1, 1317489, Note_on_c, 0, 69, 37
1, 1317602, Control_c, 0, 64, 104
1, 1317609, Note_off_c, 0, 69, 35
1, 1317612, Note_on_c, 0, 61, 35
1, 1317617, Control_c, 0, 64, 92
1, 1317632, Control_c, 0, 64, 81
1, 1317647, Control_c, 0, 64, 70
1, 1317659, Note_on_c, 0, 49, 58
1, 1317662, Control_c, 0, 64, 62
1, 1317677, Control_c, 0, 64, 56
1, 1317692, Control_c, 0, 64, 58
1, 1317707, Control_c, 0, 64, 63
1, 1317722, Control_c, 0, 64, 69
1, 1317736, Control_c, 0, 64, 77
1, 1317751, Control_c, 0, 64, 85
1, 1317763, Note_off_c, 0, 61, 43
1, 1317766, Control_c, 0, 64, 92
1, 1317781, Control_c, 0, 64, 97
1, 1317787, Note_on_c, 0, 65, 41
1, 1317796, Control_c, 0, 64, 102
1, 1317810, Control_c, 0, 64, 106
1, 1317825, Control_c, 0, 64, 108
1, 1317855, Control_c, 0, 64, 115
1, 1317859, Note_on_c, 0, 68, 48
1, 1317870, Control_c, 0, 64, 127
1, 1317872, Note_off_c, 0, 65, 36
1, 1317916, Note_off_c, 0, 49, 37
1, 1317933, Note_off_c, 0, 68, 44
1, 1317952, Note_on_c, 0, 61, 41
1, 1318006, Note_off_c, 0, 61, 56
1, 1318044, Note_on_c, 0, 65, 46
1, 1318072, Note_off_c, 0, 65, 62
1, 1318130, Note_on_c, 0, 68, 53
1, 1318187, Note_off_c, 0, 68, 55
1, 1318232, Control_c, 0, 64, 95
1, 1318247, Control_c, 0, 64, 73
1, 1318262, Control_c, 0, 64, 57
1, 1318270, Poly_aftertouch_c, 0, 58, 127
1, 1318272, Note_on_c, 0, 49, 71
1, 1318277, Control_c, 0, 64, 39
1, 1318291, Control_c, 0, 64, 43
1, 1318302, Note_on_c, 0, 57, 24
1, 1318306, Control_c, 0, 64, 54
1, 1318321, Control_c, 0, 64, 61
1, 1318327, Poly_aftertouch_c, 0, 58, 0
1, 1318336, Control_c, 0, 64, 68
1, 1318351, Control_c, 0, 64, 77
1, 1318366, Control_c, 0, 64, 91
1, 1318380, Control_c, 0, 64, 105
1, 1318389, Note_off_c, 0, 57, 39
1, 1318395, Note_on_c, 0, 61, 48
1, 1318395, Control_c, 0, 64, 118
1, 1318410, Control_c, 0, 64, 127
1, 1318466, Note_off_c, 0, 61, 51
1, 1318496, Note_on_c, 0, 66, 47
1, 1318547, Note_off_c, 0, 49, 37
1, 1318547, Note_off_c, 0, 66, 45
1, 1318556, Note_on_c, 0, 57, 41
1, 1318640, Note_off_c, 0, 57, 60
1, 1318675, Note_on_c, 0, 61, 40
1, 1318717, Note_off_c, 0, 61, 51
1, 1318744, Note_on_c, 0, 66, 51
1, 1318795, Note_off_c, 0, 66, 49
1, 1318847, Note_on_c, 0, 56, 41
1, 1318863, Control_c, 0, 64, 87
1, 1318878, Control_c, 0, 64, 66
1, 1318888, Note_on_c, 0, 49, 59
1, 1318893, Control_c, 0, 64, 47
1, 1318908, Control_c, 0, 64, 33
1, 1318923, Control_c, 0, 64, 39
1, 1318938, Control_c, 0, 64, 50
1, 1318953, Control_c, 0, 64, 59
1, 1318967, Control_c, 0, 64, 66
1, 1318971, Note_off_c, 0, 56, 57
1, 1318982, Control_c, 0, 64, 75
1, 1318990, Note_on_c, 0, 61, 40
1, 1318997, Control_c, 0, 64, 92
1, 1319012, Control_c, 0, 64, 111
1, 1319027, Control_c, 0, 64, 127
1, 1319038, Note_off_c, 0, 61, 56
1, 1319075, Note_on_c, 0, 65, 55
1, 1319130, Control_c, 0, 67, 23
1, 1319145, Control_c, 0, 67, 27
1, 1319159, Control_c, 0, 67, 31
1, 1319163, Note_off_c, 0, 49, 36
1, 1319164, Note_off_c, 0, 65, 50
1, 1319170, Note_on_c, 0, 56, 39
1, 1319174, Control_c, 0, 67, 37
1, 1319189, Control_c, 0, 67, 44
1, 1319204, Control_c, 0, 67, 53
1, 1319219, Control_c, 0, 67, 65
1, 1319235, Control_c, 0, 67, 76
1, 1319236, Note_off_c, 0, 56, 53
1, 1319250, Control_c, 0, 67, 88
1, 1319263, Note_on_c, 0, 61, 39
1, 1319264, Control_c, 0, 67, 104
1, 1319279, Control_c, 0, 67, 118
1, 1319294, Control_c, 0, 67, 127
1, 1319302, Note_off_c, 0, 61, 57
1, 1319333, Note_on_c, 0, 65, 53
1, 1319399, Note_off_c, 0, 65, 37
1, 1319465, Note_on_c, 0, 54, 41
1, 1319472, Control_c, 0, 64, 95
1, 1319486, Control_c, 0, 64, 72
1, 1319489, Note_on_c, 0, 49, 58
1, 1319501, Control_c, 0, 64, 53
1, 1319516, Control_c, 0, 64, 33
1, 1319531, Control_c, 0, 64, 37
1, 1319546, Control_c, 0, 64, 49
1, 1319561, Control_c, 0, 64, 57
1, 1319569, Note_off_c, 0, 54, 59
1, 1319576, Control_c, 0, 64, 63
1, 1319591, Control_c, 0, 64, 68
1, 1319612, Note_on_c, 0, 57, 33
1, 1319613, Control_c, 0, 64, 75
1, 1319628, Control_c, 0, 64, 82
1, 1319643, Control_c, 0, 64, 86
1, 1319657, Control_c, 0, 64, 88
1, 1319672, Control_c, 0, 64, 90
1, 1319682, Note_off_c, 0, 57, 51
1, 1319687, Control_c, 0, 64, 91
1, 1319702, Control_c, 0, 64, 95
1, 1319716, Control_c, 0, 64, 99
1, 1319722, Note_on_c, 0, 62, 25
1, 1319722, Note_off_c, 0, 49, 37
1, 1319731, Control_c, 0, 64, 104
1, 1319746, Control_c, 0, 64, 108
1, 1319761, Control_c, 0, 64, 111
1, 1319774, Note_off_c, 0, 62, 43
1, 1319776, Control_c, 0, 64, 115
1, 1319790, Control_c, 0, 64, 127
1, 1319805, Note_on_c, 0, 54, 32
1, 1319855, Note_off_c, 0, 54, 46
1, 1319924, Note_on_c, 0, 57, 28
1, 1319973, Note_off_c, 0, 57, 46
1, 1319993, Note_on_c, 0, 62, 40
1, 1320056, Note_off_c, 0, 62, 50
1, 1320090, Note_on_c, 0, 53, 38
1, 1320103, Control_c, 0, 64, 105
1, 1320118, Control_c, 0, 64, 81
1, 1320122, Note_on_c, 0, 49, 49
1, 1320132, Control_c, 0, 64, 65
1, 1320147, Control_c, 0, 64, 50
1, 1320162, Control_c, 0, 64, 41
1, 1320177, Control_c, 0, 64, 45
1, 1320192, Control_c, 0, 64, 51
1, 1320205, Note_off_c, 0, 53, 56
1, 1320206, Control_c, 0, 64, 56
1, 1320221, Control_c, 0, 64, 61
1, 1320229, Note_on_c, 0, 56, 37
1, 1320236, Control_c, 0, 64, 66
1, 1320251, Control_c, 0, 64, 73
1, 1320266, Control_c, 0, 64, 83
1, 1320280, Control_c, 0, 64, 91
1, 1320295, Control_c, 0, 64, 96
1, 1320300, Note_off_c, 0, 56, 46
1, 1320310, Control_c, 0, 64, 100
1, 1320313, Note_on_c, 0, 61, 25
1, 1320324, Control_c, 0, 64, 110
1, 1320339, Control_c, 0, 64, 127
1, 1320389, Note_on_c, 0, 53, 43
1, 1320416, Note_off_c, 0, 61, 33
1, 1320510, Note_off_c, 0, 53, 55
1, 1320534, Note_on_c, 0, 56, 42
1, 1320600, Note_off_c, 0, 56, 48
1, 1320620, Note_on_c, 0, 61, 37
1, 1320712, Note_off_c, 0, 49, 40
1, 1320718, Note_on_c, 0, 53, 44
1, 1320723, Note_off_c, 0, 61, 36
1, 1320806, Note_off_c, 0, 53, 54
1, 1320831, Note_on_c, 0, 56, 41
1, 1320902, Note_on_c, 0, 61, 41
1, 1320905, Note_off_c, 0, 56, 44
1, 1320995, Note_off_c, 0, 61, 49
1, 1321003, Note_on_c, 0, 53, 40
1, 1321081, Note_off_c, 0, 53, 56
1, 1321120, Note_on_c, 0, 56, 46
1, 1321162, Note_off_c, 0, 56, 59
1, 1321220, Note_on_c, 0, 61, 40
1, 1321314, Note_off_c, 0, 61, 50
1, 1321332, Note_on_c, 0, 50, 50
1, 1321377, Control_c, 0, 64, 120
1, 1321392, Control_c, 0, 64, 78
1, 1321407, Control_c, 0, 64, 62
1, 1321422, Control_c, 0, 64, 44
1, 1321436, Control_c, 0, 64, 45
1, 1321451, Control_c, 0, 64, 52
1, 1321454, Note_on_c, 0, 54, 40
1, 1321466, Control_c, 0, 64, 57
1, 1321481, Control_c, 0, 64, 60
1, 1321496, Control_c, 0, 64, 65
1, 1321510, Control_c, 0, 64, 71
1, 1321522, Note_off_c, 0, 50, 47
1, 1321525, Control_c, 0, 64, 79
1, 1321540, Control_c, 0, 64, 86
1, 1321555, Control_c, 0, 64, 90
1, 1321558, Note_on_c, 0, 61, 44
1, 1321570, Control_c, 0, 64, 93
1, 1321585, Control_c, 0, 64, 98
1, 1321599, Control_c, 0, 64, 102
1, 1321610, Note_off_c, 0, 54, 34
1, 1321614, Control_c, 0, 64, 109
1, 1321630, Control_c, 0, 64, 118
1, 1321645, Control_c, 0, 64, 127
1, 1321677, Note_on_c, 0, 50, 40
1, 1321688, Note_off_c, 0, 61, 34
1, 1321764, Note_on_c, 0, 54, 36
1, 1321773, Note_off_c, 0, 50, 53
1, 1321838, Note_off_c, 0, 54, 52
1, 1321867, Note_on_c, 0, 61, 38
1, 1321968, Note_off_c, 0, 61, 45
1, 1321977, Note_on_c, 0, 50, 35
1, 1322050, Note_off_c, 0, 50, 54
1, 1322095, Note_on_c, 0, 54, 38
1, 1322160, Note_off_c, 0, 54, 51
1, 1322195, Note_on_c, 0, 61, 30
1, 1322248, Note_on_c, 0, 50, 39
1, 1322306, Note_off_c, 0, 61, 33
1, 1322342, Note_off_c, 0, 50, 55
1, 1322392, Note_on_c, 0, 54, 38
1, 1322451, Note_off_c, 0, 54, 54
1, 1322475, Note_on_c, 0, 61, 30
1, 1322608, Control_c, 0, 64, 88
1, 1322613, Note_on_c, 0, 49, 36
1, 1322623, Control_c, 0, 64, 70
1, 1322627, Note_off_c, 0, 61, 35
1, 1322638, Control_c, 0, 64, 57
1, 1322652, Control_c, 0, 64, 49
1, 1322667, Control_c, 0, 64, 51
1, 1322682, Control_c, 0, 64, 57
1, 1322697, Control_c, 0, 64, 61
1, 1322712, Control_c, 0, 64, 65
1, 1322724, Note_on_c, 0, 53, 29
1, 1322727, Control_c, 0, 64, 70
1, 1322736, Note_off_c, 0, 49, 34
1, 1322742, Control_c, 0, 64, 77
1, 1322756, Control_c, 0, 64, 82
1, 1322771, Control_c, 0, 64, 85
1, 1322786, Control_c, 0, 64, 86
1, 1322801, Control_c, 0, 64, 87
1, 1322816, Control_c, 0, 64, 88
1, 1322831, Control_c, 0, 64, 91
1, 1322836, Note_on_c, 0, 61, 34
1, 1322846, Control_c, 0, 64, 94
1, 1322857, Note_off_c, 0, 53, 31
1, 1322860, Control_c, 0, 64, 97
1, 1322890, Control_c, 0, 64, 99
1, 1322920, Control_c, 0, 64, 102
1, 1322936, Note_off_c, 0, 61, 33
1, 1322937, Note_on_c, 0, 49, 30
1, 1322949, Control_c, 0, 64, 104
1, 1322992, Note_off_c, 0, 49, 44
1, 1323008, Control_c, 0, 64, 106
1, 1323033, Note_on_c, 0, 53, 33
1, 1323141, Control_c, 0, 64, 108
1, 1323153, Note_on_c, 0, 61, 33
1, 1323214, Note_off_c, 0, 53, 27
1, 1323266, Note_on_c, 0, 49, 31
1, 1323281, Note_off_c, 0, 61, 30
1, 1323329, Note_off_c, 0, 49, 42
1, 1323391, Note_on_c, 0, 53, 34
1, 1323514, Note_on_c, 0, 61, 22
1, 1323542, Note_off_c, 0, 53, 27
1, 1323583, Note_off_c, 0, 61, 36
1, 1323613, Note_on_c, 0, 49, 31
1, 1323669, Control_c, 0, 64, 110
1, 1323679, Note_off_c, 0, 49, 41
1, 1323721, Note_on_c, 0, 53, 34
1, 1323772, Control_c, 0, 64, 112
1, 1323816, Control_c, 0, 64, 114
1, 1323853, Note_on_c, 0, 61, 32
1, 1323861, Control_c, 0, 64, 117
1, 1323920, Control_c, 0, 64, 119
1, 1323994, Control_c, 0, 64, 122
1, 1324025, Control_c, 0, 64, 125
1, 1324075, Note_off_c, 0, 61, 15
1, 1324110, Note_on_c, 0, 49, 33
1, 1324137, Control_c, 0, 64, 127
1, 1324330, Note_off_c, 0, 49, 42
1, 1324378, Note_off_c, 0, 53, 38
1, 1324391, Note_on_c, 0, 61, 38
1, 1324403, Control_c, 0, 64, 125
1, 1324417, Control_c, 0, 64, 122
1, 1324438, Note_off_c, 0, 61, 45
1, 1324447, Control_c, 0, 64, 120
1, 1324462, Control_c, 0, 64, 117
1, 1324477, Control_c, 0, 64, 113
1, 1324492, Control_c, 0, 64, 109
1, 1324506, Control_c, 0, 64, 104
1, 1324521, Control_c, 0, 64, 100
1, 1324536, Control_c, 0, 64, 96
1, 1324551, Control_c, 0, 64, 93
1, 1324566, Control_c, 0, 64, 89
1, 1324581, Control_c, 0, 64, 84
1, 1324596, Control_c, 0, 64, 81
1, 1324598, Note_on_c, 0, 61, 41
1, 1324611, Control_c, 0, 64, 78
1, 1324618, Note_on_c, 0, 73, 51
1, 1324625, Control_c, 0, 64, 75
1, 1324640, Control_c, 0, 64, 73
1, 1324649, Note_off_c, 0, 61, 59
1, 1324655, Control_c, 0, 64, 71
1, 1324670, Control_c, 0, 64, 69
1, 1324685, Control_c, 0, 64, 66
1, 1324699, Control_c, 0, 64, 64
1, 1324714, Control_c, 0, 64, 63
1, 1324729, Control_c, 0, 64, 63
1, 1324759, Control_c, 0, 64, 62
1, 1324773, Control_c, 0, 64, 61
1, 1324777, Note_on_c, 0, 61, 44
1, 1324788, Control_c, 0, 64, 60
1, 1324801, Control_c, 0, 64, 58
1, 1324817, Control_c, 0, 64, 56
1, 1324832, Control_c, 0, 64, 55
1, 1324836, Note_off_c, 0, 61, 54
1, 1324854, Control_c, 0, 64, 53
1, 1324869, Control_c, 0, 64, 50
1, 1324884, Control_c, 0, 64, 46
1, 1324899, Control_c, 0, 64, 42
1, 1324914, Control_c, 0, 64, 37
1, 1324928, Control_c, 0, 64, 0
1, 1324977, Note_on_c, 0, 61, 39
1, 1325021, Note_off_c, 0, 61, 59
1, 1325150, Note_on_c, 0, 61, 39
1, 1325201, Note_off_c, 0, 61, 48
1, 1325334, Note_on_c, 0, 72, 49
1, 1325344, Note_off_c, 0, 73, 38
1, 1325353, Note_on_c, 0, 61, 27
1, 1325410, Note_off_c, 0, 61, 43
1, 1325446, Control_c, 0, 64, 39
1, 1325461, Control_c, 0, 64, 47
1, 1325476, Control_c, 0, 64, 57
1, 1325491, Control_c, 0, 64, 63
1, 1325500, Note_off_c, 0, 72, 55
1, 1325506, Control_c, 0, 64, 67
1, 1325520, Control_c, 0, 64, 70
1, 1325534, Note_on_c, 0, 61, 28
1, 1325535, Control_c, 0, 64, 73
1, 1325539, Note_on_c, 0, 71, 43
1, 1325550, Control_c, 0, 64, 76
1, 1325564, Control_c, 0, 64, 78
1, 1325579, Control_c, 0, 64, 80
1, 1325602, Control_c, 0, 64, 82
1, 1325617, Control_c, 0, 64, 84
1, 1325633, Control_c, 0, 64, 86
1, 1325642, Note_off_c, 0, 61, 33
1, 1325648, Control_c, 0, 64, 87
1, 1325663, Control_c, 0, 64, 87
1, 1325677, Control_c, 0, 64, 88
1, 1325692, Control_c, 0, 64, 88
1, 1325751, Control_c, 0, 64, 87
1, 1325765, Note_on_c, 0, 54, 28
1, 1325766, Control_c, 0, 64, 83
1, 1325781, Control_c, 0, 64, 75
1, 1325796, Control_c, 0, 64, 67
1, 1325811, Control_c, 0, 64, 60
1, 1325825, Note_off_c, 0, 71, 36
1, 1325825, Control_c, 0, 64, 55
1, 1325832, Note_on_c, 0, 70, 34
1, 1325840, Control_c, 0, 64, 57
1, 1325855, Control_c, 0, 64, 61
1, 1325869, Control_c, 0, 64, 65
1, 1325884, Control_c, 0, 64, 70
1, 1325899, Control_c, 0, 64, 74
1, 1325914, Control_c, 0, 64, 77
1, 1325929, Control_c, 0, 64, 79
1, 1325943, Control_c, 0, 64, 81
1, 1325958, Control_c, 0, 64, 82
1, 1325973, Control_c, 0, 64, 83
1, 1326000, Note_on_c, 0, 61, 41
1, 1326003, Control_c, 0, 64, 83
1, 1326006, Note_off_c, 0, 54, 37
1, 1326018, Control_c, 0, 64, 84
1, 1326055, Note_off_c, 0, 61, 51
1, 1326062, Note_off_c, 0, 70, 27
1, 1326122, Control_c, 0, 64, 83
1, 1326137, Control_c, 0, 64, 81
1, 1326151, Control_c, 0, 64, 78
1, 1326166, Control_c, 0, 64, 72
1, 1326181, Control_c, 0, 64, 66
1, 1326191, Note_on_c, 0, 73, 50
1, 1326194, Note_on_c, 0, 61, 41
1, 1326195, Control_c, 0, 64, 57
1, 1326208, Note_on_c, 0, 70, 42
1, 1326210, Control_c, 0, 64, 44
1, 1326225, Control_c, 0, 64, 0
1, 1326238, Note_off_c, 0, 61, 58
1, 1326357, Note_on_c, 0, 61, 46
1, 1326410, Note_off_c, 0, 61, 53
1, 1326441, Control_c, 0, 64, 41
1, 1326456, Control_c, 0, 64, 52
1, 1326471, Control_c, 0, 64, 62
1, 1326486, Control_c, 0, 64, 66
1, 1326500, Control_c, 0, 64, 71
1, 1326515, Note_on_c, 0, 58, 44
1, 1326515, Control_c, 0, 64, 75
1, 1326530, Control_c, 0, 64, 78
1, 1326545, Control_c, 0, 64, 81
1, 1326560, Control_c, 0, 64, 84
1, 1326574, Control_c, 0, 64, 86
1, 1326589, Control_c, 0, 64, 88
1, 1326604, Control_c, 0, 64, 89
1, 1326618, Control_c, 0, 64, 90
1, 1326620, Note_off_c, 0, 58, 54
1, 1326633, Control_c, 0, 64, 90
1, 1326635, Note_off_c, 0, 70, 55
1, 1326648, Control_c, 0, 64, 91
1, 1326665, Note_on_c, 0, 61, 52
1, 1326705, Note_off_c, 0, 61, 59
1, 1326722, Control_c, 0, 64, 91
1, 1326737, Control_c, 0, 64, 84
1, 1326752, Control_c, 0, 64, 73
1, 1326766, Control_c, 0, 64, 59
1, 1326781, Control_c, 0, 64, 0
1, 1326806, Note_on_c, 0, 78, 71
1, 1326807, Note_on_c, 0, 61, 56
1, 1326810, Note_off_c, 0, 73, 62
1, 1326821, Note_on_c, 0, 70, 56
1, 1326825, Control_c, 0, 64, 35
1, 1326840, Control_c, 0, 64, 53
1, 1326849, Note_off_c, 0, 61, 59
1, 1326855, Control_c, 0, 64, 64
1, 1326870, Control_c, 0, 64, 71
1, 1326876, Note_off_c, 0, 70, 54
1, 1326885, Control_c, 0, 64, 76
1, 1326900, Control_c, 0, 64, 81
1, 1326915, Control_c, 0, 64, 84
1, 1326930, Control_c, 0, 64, 87
1, 1326945, Control_c, 0, 64, 90
1, 1326948, Note_off_c, 0, 78, 55
1, 1326960, Control_c, 0, 64, 91
1, 1326960, Note_on_c, 0, 61, 62
1, 1326974, Control_c, 0, 64, 92
1, 1326983, Note_off_c, 0, 61, 60
1, 1326989, Control_c, 0, 64, 92
1, 1327100, Control_c, 0, 64, 90
1, 1327115, Control_c, 0, 64, 84
1, 1327130, Control_c, 0, 64, 75
1, 1327145, Control_c, 0, 64, 66
1, 1327146, Note_on_c, 0, 56, 36
1, 1327147, Note_on_c, 0, 78, 73
1, 1327160, Control_c, 0, 64, 56
1, 1327165, Note_on_c, 0, 71, 45
1, 1327174, Control_c, 0, 64, 36
1, 1327189, Control_c, 0, 64, 0
1, 1327286, Note_on_c, 0, 61, 46
1, 1327311, Note_off_c, 0, 56, 35
1, 1327326, Note_off_c, 0, 61, 61
1, 1327450, Note_on_c, 0, 61, 44
1, 1327466, Note_on_c, 0, 77, 64
1, 1327488, Note_off_c, 0, 78, 58
1, 1327490, Note_off_c, 0, 61, 62
1, 1327608, Note_on_c, 0, 61, 41
1, 1327645, Note_off_c, 0, 61, 57
1, 1327761, Note_off_c, 0, 77, 51
1, 1327768, Note_on_c, 0, 58, 31
1, 1327782, Control_c, 0, 64, 37
1, 1327784, Note_on_c, 0, 78, 60
1, 1327785, Note_off_c, 0, 71, 51
1, 1327795, Note_on_c, 0, 73, 44
1, 1327797, Control_c, 0, 64, 47
1, 1327812, Control_c, 0, 64, 58
1, 1327827, Control_c, 0, 64, 64
1, 1327848, Control_c, 0, 64, 68
1, 1327863, Control_c, 0, 64, 72
1, 1327878, Control_c, 0, 64, 75
1, 1327893, Control_c, 0, 64, 77
1, 1327908, Control_c, 0, 64, 79
1, 1327922, Control_c, 0, 64, 81
1, 1327950, Note_on_c, 0, 61, 36
1, 1327981, Note_off_c, 0, 61, 57
1, 1327982, Control_c, 0, 64, 79
1, 1327997, Control_c, 0, 64, 73
1, 1328012, Control_c, 0, 64, 64
1, 1328027, Control_c, 0, 64, 47
1, 1328042, Control_c, 0, 64, 0
1, 1328086, Control_c, 0, 64, 41
1, 1328092, Note_on_c, 0, 61, 39
1, 1328101, Note_off_c, 0, 58, 17
1, 1328101, Control_c, 0, 64, 56
1, 1328116, Control_c, 0, 64, 64
1, 1328131, Control_c, 0, 64, 70
1, 1328146, Control_c, 0, 64, 75
1, 1328161, Control_c, 0, 64, 80
1, 1328166, Note_off_c, 0, 61, 51
1, 1328176, Control_c, 0, 64, 81
1, 1328190, Control_c, 0, 64, 84
1, 1328205, Control_c, 0, 64, 86
1, 1328220, Control_c, 0, 64, 89
1, 1328235, Control_c, 0, 64, 91
1, 1328235, Note_on_c, 0, 66, 43
1, 1328250, Control_c, 0, 64, 92
1, 1328362, Note_off_c, 0, 66, 25
1, 1328368, Control_c, 0, 64, 90
1, 1328383, Control_c, 0, 64, 83
1, 1328396, Note_off_c, 0, 78, 38
1, 1328397, Control_c, 0, 64, 74
1, 1328412, Control_c, 0, 64, 64
1, 1328414, Note_on_c, 0, 80, 55
1, 1328427, Note_off_c, 0, 73, 38
1, 1328427, Control_c, 0, 64, 50
1, 1328431, Note_on_c, 0, 59, 30
1, 1328436, Note_on_c, 0, 75, 39
1, 1328442, Control_c, 0, 64, 35
1, 1328457, Control_c, 0, 64, 39
1, 1328471, Control_c, 0, 64, 48
1, 1328486, Control_c, 0, 64, 55
1, 1328501, Control_c, 0, 64, 62
1, 1328516, Control_c, 0, 64, 68
1, 1328531, Control_c, 0, 64, 74
1, 1328538, Note_off_c, 0, 59, 56
1, 1328545, Control_c, 0, 64, 80
1, 1328560, Control_c, 0, 64, 84
1, 1328575, Control_c, 0, 64, 86
1, 1328597, Control_c, 0, 64, 88
1, 1328598, Note_on_c, 0, 66, 41
1, 1328612, Control_c, 0, 64, 91
1, 1328627, Note_off_c, 0, 80, 57
1, 1328627, Control_c, 0, 64, 93
1, 1328629, Note_off_c, 0, 66, 54
1, 1328635, Note_off_c, 0, 75, 55
1, 1328642, Control_c, 0, 64, 94
1, 1328657, Control_c, 0, 64, 96
1, 1328686, Control_c, 0, 64, 99
1, 1328715, Control_c, 0, 64, 101
1, 1328724, Note_on_c, 0, 66, 57
1, 1328770, Note_off_c, 0, 66, 58
1, 1328820, Control_c, 0, 64, 103
1, 1328873, Note_on_c, 0, 80, 74
1, 1328897, Note_on_c, 0, 75, 46
1, 1328908, Note_on_c, 0, 66, 29
1, 1328925, Note_off_c, 0, 75, 54
1, 1328945, Note_off_c, 0, 66, 42
1, 1328984, Control_c, 0, 64, 94
1, 1328998, Control_c, 0, 64, 81
1, 1329013, Control_c, 0, 64, 68
1, 1329028, Control_c, 0, 64, 54
1, 1329034, Note_on_c, 0, 60, 28
1, 1329043, Control_c, 0, 64, 0
1, 1329077, Note_on_c, 0, 82, 72
1, 1329087, Control_c, 0, 64, 38
1, 1329100, Note_on_c, 0, 75, 43
1, 1329102, Control_c, 0, 64, 50
1, 1329103, Note_off_c, 0, 80, 57
1, 1329117, Control_c, 0, 64, 61
1, 1329132, Control_c, 0, 64, 69
1, 1329147, Control_c, 0, 64, 76
1, 1329161, Control_c, 0, 64, 86
1, 1329176, Control_c, 0, 64, 91
1, 1329191, Control_c, 0, 64, 97
1, 1329196, Note_off_c, 0, 60, 49
1, 1329199, Note_off_c, 0, 75, 36
1, 1329206, Control_c, 0, 64, 105
1, 1329213, Note_on_c, 0, 66, 45
1, 1329220, Control_c, 0, 64, 122
1, 1329235, Control_c, 0, 64, 127
1, 1329300, Note_off_c, 0, 66, 38
1, 1329347, Control_c, 0, 64, 91
1, 1329358, Note_on_c, 0, 60, 36
1, 1329362, Control_c, 0, 64, 71
1, 1329377, Control_c, 0, 64, 60
1, 1329387, Note_on_c, 0, 78, 61
1, 1329392, Control_c, 0, 64, 52
1, 1329404, Note_off_c, 0, 82, 56
1, 1329404, Note_on_c, 0, 75, 39
1, 1329407, Control_c, 0, 64, 56
1, 1329421, Control_c, 0, 64, 60
1, 1329436, Control_c, 0, 64, 63
1, 1329451, Control_c, 0, 64, 67
1, 1329466, Control_c, 0, 64, 74
1, 1329469, Note_off_c, 0, 60, 55
1, 1329476, Note_off_c, 0, 75, 0
1, 1329476, Note_on_c, 0, 75, 14
1, 1329481, Control_c, 0, 64, 80
1, 1329490, Note_off_c, 0, 78, 58
1, 1329495, Control_c, 0, 64, 84
1, 1329510, Control_c, 0, 64, 87
1, 1329525, Control_c, 0, 64, 89
1, 1329535, Note_on_c, 0, 70, 45
1, 1329539, Control_c, 0, 64, 92
1, 1329548, Note_off_c, 0, 75, 39
1, 1329554, Control_c, 0, 64, 95
1, 1329569, Control_c, 0, 64, 96
1, 1329610, Note_off_c, 0, 70, 36
1, 1329674, Control_c, 0, 64, 95
1, 1329689, Control_c, 0, 64, 93
1, 1329704, Control_c, 0, 64, 89
1, 1329718, Control_c, 0, 64, 84
1, 1329727, Note_on_c, 0, 78, 61
1, 1329729, Note_on_c, 0, 61, 38
1, 1329733, Control_c, 0, 64, 79
1, 1329738, Note_on_c, 0, 73, 41
1, 1329748, Control_c, 0, 64, 75
1, 1329762, Control_c, 0, 64, 72
1, 1329777, Control_c, 0, 64, 68
1, 1329792, Control_c, 0, 64, 64
1, 1329807, Control_c, 0, 64, 60
1, 1329822, Control_c, 0, 64, 56
1, 1329836, Control_c, 0, 64, 54
1, 1329845, Note_off_c, 0, 61, 55
1, 1329851, Control_c, 0, 64, 53
1, 1329866, Control_c, 0, 64, 52
1, 1329881, Control_c, 0, 64, 51
1, 1329887, Note_on_c, 0, 70, 47
1, 1329896, Control_c, 0, 64, 48
1, 1329911, Control_c, 0, 64, 45
1, 1329926, Control_c, 0, 64, 43
1, 1329931, Note_off_c, 0, 70, 61
1, 1329940, Control_c, 0, 64, 41
1, 1329955, Control_c, 0, 64, 40
1, 1329970, Control_c, 0, 64, 39
1, 1330044, Control_c, 0, 64, 39
1, 1330048, Note_on_c, 0, 70, 41
1, 1330074, Control_c, 0, 64, 38
1, 1330075, Note_off_c, 0, 70, 57
1, 1330111, Control_c, 0, 64, 38
1, 1330125, Control_c, 0, 64, 37
1, 1330140, Control_c, 0, 64, 37
1, 1330143, Note_off_c, 0, 73, 0
1, 1330179, Poly_aftertouch_c, 0, 73, 127
1, 1330183, Note_on_c, 0, 70, 48
1, 1330185, Control_c, 0, 64, 36
1, 1330218, Note_off_c, 0, 70, 58
1, 1330244, Control_c, 0, 64, 36
1, 1330289, Control_c, 0, 64, 35
1, 1330348, Poly_aftertouch_c, 0, 73, 0
1, 1330373, Note_on_c, 0, 68, 32
1, 1330376, Note_on_c, 0, 77, 49
1, 1330438, Control_c, 0, 64, 36
1, 1330453, Control_c, 0, 64, 37
1, 1330456, Note_off_c, 0, 78, 32
1, 1330467, Control_c, 0, 64, 40
1, 1330482, Control_c, 0, 64, 44
1, 1330497, Control_c, 0, 64, 48
1, 1330512, Control_c, 0, 64, 52
1, 1330527, Control_c, 0, 64, 57
1, 1330530, Note_off_c, 0, 68, 50
1, 1330541, Control_c, 0, 64, 63
1, 1330553, Note_off_c, 0, 77, 55
1, 1330556, Control_c, 0, 64, 69
1, 1330558, Note_on_c, 0, 75, 50
1, 1330562, Note_on_c, 0, 71, 36
1, 1330571, Control_c, 0, 64, 76
1, 1330585, Control_c, 0, 64, 83
1, 1330600, Control_c, 0, 64, 88
1, 1330615, Control_c, 0, 64, 92
1, 1330630, Control_c, 0, 64, 96
1, 1330645, Control_c, 0, 64, 100
1, 1330652, Note_off_c, 0, 71, 35
1, 1330659, Control_c, 0, 64, 106
1, 1330674, Control_c, 0, 64, 111
1, 1330689, Control_c, 0, 64, 116
1, 1330704, Control_c, 0, 64, 118
1, 1330712, Note_on_c, 0, 73, 55
1, 1330722, Note_off_c, 0, 75, 48
1, 1330733, Control_c, 0, 64, 122
1, 1330748, Control_c, 0, 64, 127
1, 1330775, Poly_aftertouch_c, 0, 70, 127
1, 1330844, Note_off_c, 0, 73, 58
1, 1330850, Poly_aftertouch_c, 0, 70, 0
1, 1330861, Note_on_c, 0, 68, 51
1, 1330867, Note_on_c, 0, 71, 55
1, 1330884, Note_off_c, 0, 68, 61
1, 1330978, Control_c, 0, 64, 120
1, 1330993, Control_c, 0, 64, 102
1, 1331008, Control_c, 0, 64, 86
1, 1331023, Control_c, 0, 64, 72
1, 1331023, Note_off_c, 0, 71, 48
1, 1331036, Note_on_c, 0, 54, 41
1, 1331037, Control_c, 0, 64, 59
1, 1331038, Note_on_c, 0, 70, 47
1, 1331047, Note_on_c, 0, 66, 39
1, 1331052, Control_c, 0, 64, 40
1, 1331082, Control_c, 0, 64, 46
1, 1331097, Control_c, 0, 64, 54
1, 1331111, Control_c, 0, 64, 60
1, 1331118, Note_off_c, 0, 66, 53
1, 1331126, Control_c, 0, 64, 65
1, 1331141, Control_c, 0, 64, 70
1, 1331156, Control_c, 0, 64, 78
1, 1331171, Control_c, 0, 64, 83
1, 1331185, Control_c, 0, 64, 84
1, 1331190, Note_on_c, 0, 61, 49
1, 1331200, Control_c, 0, 64, 84
1, 1331210, Note_off_c, 0, 54, 38
1, 1331226, Note_off_c, 0, 70, 57
1, 1331228, Note_off_c, 0, 61, 63
1, 1331261, Control_c, 0, 64, 85
1, 1331290, Control_c, 0, 64, 84
1, 1331320, Control_c, 0, 64, 82
1, 1331334, Control_c, 0, 64, 77
1, 1331349, Control_c, 0, 64, 68
1, 1331351, Note_on_c, 0, 61, 43
1, 1331364, Control_c, 0, 64, 59
1, 1331365, Note_on_c, 0, 73, 62
1, 1331374, Note_on_c, 0, 70, 48
1, 1331379, Control_c, 0, 64, 38
1, 1331392, Note_off_c, 0, 61, 61
1, 1331394, Control_c, 0, 64, 0
1, 1331453, Control_c, 0, 64, 35
1, 1331468, Control_c, 0, 64, 51
1, 1331482, Control_c, 0, 64, 64
1, 1331497, Control_c, 0, 64, 71
1, 1331505, Note_on_c, 0, 61, 49
1, 1331512, Control_c, 0, 64, 77
1, 1331527, Control_c, 0, 64, 80
1, 1331541, Control_c, 0, 64, 81
1, 1331547, Note_off_c, 0, 61, 58
1, 1331556, Control_c, 0, 64, 82
1, 1331571, Control_c, 0, 64, 83
1, 1331623, Control_c, 0, 64, 82
1, 1331638, Control_c, 0, 64, 76
1, 1331653, Control_c, 0, 64, 65
1, 1331668, Control_c, 0, 64, 53
1, 1331682, Control_c, 0, 64, 34
1, 1331684, Note_on_c, 0, 58, 38
1, 1331697, Control_c, 0, 64, 0
1, 1331704, Note_off_c, 0, 70, 57
1, 1331712, Control_c, 0, 64, 40
1, 1331727, Control_c, 0, 64, 51
1, 1331741, Control_c, 0, 64, 60
1, 1331756, Control_c, 0, 64, 67
1, 1331771, Control_c, 0, 64, 72
1, 1331786, Control_c, 0, 64, 77
1, 1331801, Control_c, 0, 64, 80
1, 1331815, Control_c, 0, 64, 81
1, 1331821, Note_on_c, 0, 61, 38
1, 1331830, Control_c, 0, 64, 83
1, 1331845, Control_c, 0, 64, 85
1, 1331860, Control_c, 0, 64, 88
1, 1331864, Note_off_c, 0, 61, 58
1, 1331875, Control_c, 0, 64, 88
1, 1331890, Control_c, 0, 64, 89
1, 1331920, Control_c, 0, 64, 88
1, 1331934, Control_c, 0, 64, 85
1, 1331949, Control_c, 0, 64, 76
1, 1331964, Control_c, 0, 64, 66
1, 1331976, Note_off_c, 0, 58, 43
1, 1331979, Control_c, 0, 64, 55
1, 1331985, Note_on_c, 0, 78, 65
1, 1331988, Note_on_c, 0, 61, 43
1, 1331994, Control_c, 0, 64, 43
1, 1331999, Note_off_c, 0, 73, 61
1, 1332005, Note_on_c, 0, 70, 38
1, 1332009, Control_c, 0, 64, 46
1, 1332024, Control_c, 0, 64, 52
1, 1332032, Note_off_c, 0, 61, 60
1, 1332039, Control_c, 0, 64, 58
1, 1332054, Control_c, 0, 64, 63
1, 1332069, Control_c, 0, 64, 67
1, 1332084, Control_c, 0, 64, 72
1, 1332099, Control_c, 0, 64, 77
1, 1332113, Control_c, 0, 64, 80
1, 1332128, Control_c, 0, 64, 81
1, 1332143, Control_c, 0, 64, 82
1, 1332152, Note_off_c, 0, 78, 57
1, 1332154, Note_on_c, 0, 61, 38
1, 1332157, Control_c, 0, 64, 83
1, 1332172, Control_c, 0, 64, 84
1, 1332184, Note_off_c, 0, 61, 53
1, 1332196, Note_off_c, 0, 70, 39
1, 1332261, Control_c, 0, 64, 83
1, 1332276, Control_c, 0, 64, 79
1, 1332291, Control_c, 0, 64, 73
1, 1332305, Control_c, 0, 64, 65
1, 1332307, Note_on_c, 0, 56, 31
1, 1332317, Note_on_c, 0, 78, 49
1, 1332320, Control_c, 0, 64, 56
1, 1332343, Control_c, 0, 64, 46
1, 1332353, Note_on_c, 0, 71, 36
1, 1332358, Control_c, 0, 64, 40
1, 1332372, Control_c, 0, 64, 37
1, 1332387, Control_c, 0, 64, 34
1, 1332402, Control_c, 0, 64, 0
1, 1332474, Note_on_c, 0, 61, 46
1, 1332520, Note_off_c, 0, 61, 58
1, 1332569, Note_off_c, 0, 56, 28
1, 1332632, Note_on_c, 0, 77, 57
1, 1332640, Note_on_c, 0, 61, 44
1, 1332649, Note_off_c, 0, 78, 54
1, 1332678, Note_off_c, 0, 61, 62
1, 1332792, Note_on_c, 0, 61, 39
1, 1332825, Note_off_c, 0, 61, 54
1, 1332932, Note_off_c, 0, 77, 56
1, 1332949, Note_on_c, 0, 58, 26
1, 1332960, Note_on_c, 0, 78, 55
1, 1332984, Note_on_c, 0, 73, 38
1, 1333050, Note_off_c, 0, 71, 36
1, 1333117, Note_on_c, 0, 61, 35
1, 1333148, Note_off_c, 0, 58, 36
1, 1333151, Note_off_c, 0, 61, 54
1, 1333195, Control_c, 0, 64, 38
1, 1333210, Control_c, 0, 64, 46
1, 1333225, Control_c, 0, 64, 54
1, 1333240, Control_c, 0, 64, 61
1, 1333255, Control_c, 0, 64, 66
1, 1333268, Note_on_c, 0, 61, 46
1, 1333269, Control_c, 0, 64, 70
1, 1333284, Control_c, 0, 64, 74
1, 1333299, Control_c, 0, 64, 76
1, 1333313, Control_c, 0, 64, 78
1, 1333328, Control_c, 0, 64, 81
1, 1333343, Control_c, 0, 64, 84
1, 1333348, Note_off_c, 0, 61, 52
1, 1333358, Control_c, 0, 64, 87
1, 1333373, Control_c, 0, 64, 89
1, 1333387, Control_c, 0, 64, 91
1, 1333402, Control_c, 0, 64, 92
1, 1333409, Note_on_c, 0, 66, 46
1, 1333432, Control_c, 0, 64, 93
1, 1333488, Note_off_c, 0, 66, 43
1, 1333550, Control_c, 0, 64, 92
1, 1333565, Control_c, 0, 64, 91
1, 1333578, Note_on_c, 0, 59, 32
1, 1333580, Control_c, 0, 64, 85
1, 1333595, Control_c, 0, 64, 77
1, 1333610, Control_c, 0, 64, 68
1, 1333615, Note_off_c, 0, 73, 42
1, 1333618, Note_off_c, 0, 78, 37
1, 1333625, Control_c, 0, 64, 58
1, 1333631, Note_on_c, 0, 80, 51
1, 1333640, Note_on_c, 0, 74, 48
1, 1333640, Control_c, 0, 64, 46
1, 1333655, Control_c, 0, 64, 48
1, 1333670, Control_c, 0, 64, 54
1, 1333684, Control_c, 0, 64, 59
1, 1333699, Control_c, 0, 64, 63
1, 1333714, Control_c, 0, 64, 68
1, 1333729, Control_c, 0, 64, 75
1, 1333744, Control_c, 0, 64, 82
1, 1333759, Control_c, 0, 64, 87
1, 1333774, Control_c, 0, 64, 91
1, 1333778, Note_off_c, 0, 59, 38
1, 1333789, Control_c, 0, 64, 93
1, 1333803, Control_c, 0, 64, 95
1, 1333818, Note_on_c, 0, 66, 42
1, 1333818, Control_c, 0, 64, 96
1, 1333855, Control_c, 0, 64, 98
1, 1333861, Note_off_c, 0, 80, 57
1, 1333869, Note_off_c, 0, 74, 49
1, 1333872, Note_off_c, 0, 66, 47
1, 1334003, Note_on_c, 0, 66, 32
1, 1334034, Note_off_c, 0, 66, 51
1, 1334114, Note_on_c, 0, 80, 57
1, 1334125, Note_on_c, 0, 66, 51
1, 1334150, Note_on_c, 0, 74, 33
1, 1334182, Note_off_c, 0, 66, 46
1, 1334197, Note_off_c, 0, 74, 46
1, 1334269, Control_c, 0, 64, 93
1, 1334284, Control_c, 0, 64, 83
1, 1334299, Control_c, 0, 64, 73
1, 1334309, Note_on_c, 0, 60, 31
1, 1334314, Control_c, 0, 64, 63
1, 1334325, Note_off_c, 0, 80, 52
1, 1334328, Control_c, 0, 64, 50
1, 1334343, Control_c, 0, 64, 42
1, 1334352, Note_on_c, 0, 81, 55
1, 1334358, Control_c, 0, 64, 46
1, 1334361, Note_on_c, 0, 74, 37
1, 1334373, Control_c, 0, 64, 52
1, 1334388, Control_c, 0, 64, 58
1, 1334404, Control_c, 0, 64, 64
1, 1334419, Control_c, 0, 64, 69
1, 1334433, Control_c, 0, 64, 76
1, 1334448, Control_c, 0, 64, 82
1, 1334460, Note_off_c, 0, 60, 36
1, 1334463, Control_c, 0, 64, 85
1, 1334475, Note_on_c, 0, 66, 43
1, 1334478, Control_c, 0, 64, 87
1, 1334493, Control_c, 0, 64, 89
1, 1334495, Note_off_c, 0, 74, 33
1, 1334507, Control_c, 0, 64, 93
1, 1334522, Control_c, 0, 64, 96
1, 1334530, Note_off_c, 0, 66, 54
1, 1334605, Control_c, 0, 64, 94
1, 1334620, Control_c, 0, 64, 86
1, 1334634, Control_c, 0, 64, 76
1, 1334642, Note_on_c, 0, 60, 24
1, 1334649, Control_c, 0, 64, 66
1, 1334664, Control_c, 0, 64, 58
1, 1334674, Note_off_c, 0, 81, 49
1, 1334679, Control_c, 0, 64, 53
1, 1334683, Note_on_c, 0, 78, 49
1, 1334693, Control_c, 0, 64, 56
1, 1334695, Note_on_c, 0, 74, 29
1, 1334708, Control_c, 0, 64, 60
1, 1334723, Control_c, 0, 64, 63
1, 1334738, Control_c, 0, 64, 67
1, 1334752, Control_c, 0, 64, 72
1, 1334767, Control_c, 0, 64, 77
1, 1334782, Note_off_c, 0, 78, 60
1, 1334782, Control_c, 0, 64, 79
1, 1334797, Control_c, 0, 64, 80
1, 1334802, Note_off_c, 0, 60, 36
1, 1334812, Control_c, 0, 64, 80
1, 1334835, Note_on_c, 0, 69, 38
1, 1334841, Control_c, 0, 64, 82
1, 1334856, Control_c, 0, 64, 83
1, 1334871, Control_c, 0, 64, 83
1, 1334967, Note_off_c, 0, 69, 26
1, 1334967, Note_off_c, 0, 74, 39
1, 1334975, Control_c, 0, 64, 81
1, 1334990, Control_c, 0, 64, 76
1, 1335005, Control_c, 0, 64, 71
1, 1335013, Note_on_c, 0, 61, 38
1, 1335020, Control_c, 0, 64, 65
1, 1335034, Control_c, 0, 64, 58
1, 1335039, Note_on_c, 0, 73, 37
1, 1335042, Note_on_c, 0, 78, 46
1, 1335049, Control_c, 0, 64, 51
1, 1335078, Control_c, 0, 64, 55
1, 1335093, Control_c, 0, 64, 59
1, 1335108, Control_c, 0, 64, 62
1, 1335123, Control_c, 0, 64, 67
1, 1335138, Control_c, 0, 64, 72
1, 1335152, Control_c, 0, 64, 77
1, 1335159, Note_off_c, 0, 61, 57
1, 1335167, Control_c, 0, 64, 79
1, 1335182, Control_c, 0, 64, 81
1, 1335197, Control_c, 0, 64, 82
1, 1335202, Note_off_c, 0, 78, 49
1, 1335210, Note_on_c, 0, 69, 44
1, 1335213, Control_c, 0, 64, 83
1, 1335228, Control_c, 0, 64, 84
1, 1335243, Control_c, 0, 64, 85
1, 1335252, Note_off_c, 0, 73, 37
1, 1335255, Note_off_c, 0, 69, 58
1, 1335257, Control_c, 0, 64, 86
1, 1335272, Control_c, 0, 64, 86
1, 1335287, Control_c, 0, 64, 87
1, 1335339, Control_c, 0, 64, 88
1, 1335370, Note_on_c, 0, 69, 41
1, 1335401, Note_off_c, 0, 69, 53
1, 1335506, Note_on_c, 0, 78, 50
1, 1335515, Note_on_c, 0, 69, 45
1, 1335527, Note_on_c, 0, 73, 33
1, 1335613, Note_off_c, 0, 69, 37
1, 1335620, Control_c, 0, 64, 87
1, 1335635, Control_c, 0, 64, 83
1, 1335649, Control_c, 0, 64, 76
1, 1335664, Control_c, 0, 64, 69
1, 1335670, Note_off_c, 0, 73, 30
1, 1335679, Control_c, 0, 64, 60
1, 1335681, Note_on_c, 0, 62, 32
1, 1335694, Control_c, 0, 64, 47
1, 1335708, Control_c, 0, 64, 39
1, 1335713, Note_off_c, 0, 78, 52
1, 1335723, Control_c, 0, 64, 40
1, 1335738, Note_on_c, 0, 81, 50
1, 1335738, Control_c, 0, 64, 47
1, 1335753, Control_c, 0, 64, 53
1, 1335754, Note_on_c, 0, 72, 25
1, 1335768, Control_c, 0, 64, 60
1, 1335783, Control_c, 0, 64, 65
1, 1335798, Control_c, 0, 64, 70
1, 1335813, Note_off_c, 0, 62, 54
1, 1335813, Control_c, 0, 64, 77
1, 1335828, Control_c, 0, 64, 81
1, 1335843, Control_c, 0, 64, 83
1, 1335857, Control_c, 0, 64, 84
1, 1335872, Control_c, 0, 64, 86
1, 1335887, Control_c, 0, 64, 89
1, 1335893, Note_on_c, 0, 66, 34
1, 1335901, Control_c, 0, 64, 92
1, 1335910, Note_off_c, 0, 72, 39
1, 1335916, Control_c, 0, 64, 95
1, 1335931, Control_c, 0, 64, 96
1, 1335990, Control_c, 0, 64, 95
1, 1336006, Control_c, 0, 64, 89
1, 1336021, Control_c, 0, 64, 79
1, 1336022, Note_off_c, 0, 66, 32
1, 1336035, Control_c, 0, 64, 67
1, 1336050, Control_c, 0, 64, 57
1, 1336052, Note_on_c, 0, 63, 37
1, 1336065, Control_c, 0, 64, 50
1, 1336080, Note_on_c, 0, 78, 47
1, 1336086, Note_off_c, 0, 81, 37
1, 1336087, Control_c, 0, 64, 52
1, 1336087, Note_on_c, 0, 72, 29
1, 1336102, Control_c, 0, 64, 56
1, 1336117, Control_c, 0, 64, 60
1, 1336131, Control_c, 0, 64, 64
1, 1336146, Control_c, 0, 64, 70
1, 1336161, Control_c, 0, 64, 77
1, 1336163, Note_off_c, 0, 72, 57
1, 1336176, Control_c, 0, 64, 83
1, 1336185, Note_off_c, 0, 63, 60
1, 1336191, Control_c, 0, 64, 86
1, 1336205, Control_c, 0, 64, 87
1, 1336220, Control_c, 0, 64, 88
1, 1336227, Note_on_c, 0, 69, 44
1, 1336235, Control_c, 0, 64, 90
1, 1336250, Control_c, 0, 64, 91
1, 1336265, Control_c, 0, 64, 91
1, 1336271, Note_off_c, 0, 69, 54
1, 1336427, Control_c, 0, 64, 87
1, 1336442, Control_c, 0, 64, 79
1, 1336457, Control_c, 0, 64, 70
1, 1336460, Note_on_c, 0, 64, 25
1, 1336472, Note_off_c, 0, 78, 53
1, 1336472, Control_c, 0, 64, 61
1, 1336487, Control_c, 0, 64, 47
1, 1336497, Note_on_c, 0, 73, 39
1, 1336498, Note_on_c, 0, 81, 48
1, 1336501, Control_c, 0, 64, 40
1, 1336516, Control_c, 0, 64, 43
1, 1336531, Control_c, 0, 64, 50
1, 1336546, Control_c, 0, 64, 56
1, 1336561, Control_c, 0, 64, 62
1, 1336576, Control_c, 0, 64, 67
1, 1336591, Control_c, 0, 64, 72
1, 1336605, Control_c, 0, 64, 78
1, 1336620, Control_c, 0, 64, 80
1, 1336635, Control_c, 0, 64, 82
1, 1336649, Note_off_c, 0, 64, 39
1, 1336649, Control_c, 0, 64, 83
1, 1336658, Note_off_c, 0, 73, 51
1, 1336664, Control_c, 0, 64, 84
1, 1336670, Note_on_c, 0, 69, 44
1, 1336679, Control_c, 0, 64, 85
1, 1336694, Control_c, 0, 64, 87
1, 1336696, Note_off_c, 0, 81, 59
1, 1336709, Control_c, 0, 64, 88
1, 1336718, Note_off_c, 0, 69, 59
1, 1336723, Control_c, 0, 64, 90
1, 1336738, Control_c, 0, 64, 91
1, 1336753, Control_c, 0, 64, 91
1, 1336814, Control_c, 0, 64, 92
1, 1336872, Note_on_c, 0, 69, 33
1, 1337071, Note_on_c, 0, 81, 55
1, 1337076, Note_on_c, 0, 76, 44
1, 1337083, Note_on_c, 0, 73, 28
1, 1337112, Note_off_c, 0, 76, 49
1, 1337148, Note_off_c, 0, 73, 40
1, 1337155, Note_off_c, 0, 81, 36
1, 1337251, Control_c, 0, 64, 91
1, 1337264, Note_off_c, 0, 69, 16
1, 1337266, Control_c, 0, 64, 89
1, 1337280, Control_c, 0, 64, 84
1, 1337295, Control_c, 0, 64, 77
1, 1337310, Control_c, 0, 64, 68
1, 1337312, Note_on_c, 0, 64, 31
1, 1337325, Control_c, 0, 64, 57
1, 1337340, Control_c, 0, 64, 42
1, 1337354, Control_c, 0, 64, 37
1, 1337366, Note_on_c, 0, 85, 46
1, 1337369, Control_c, 0, 64, 42
1, 1337384, Control_c, 0, 64, 50
1, 1337399, Control_c, 0, 64, 57
1, 1337409, Note_on_c, 0, 81, 11
1, 1337414, Control_c, 0, 64, 62
1, 1337428, Control_c, 0, 64, 68
1, 1337443, Control_c, 0, 64, 74
1, 1337458, Control_c, 0, 64, 79
1, 1337473, Control_c, 0, 64, 82
1, 1337477, Note_off_c, 0, 64, 32
1, 1337488, Control_c, 0, 64, 84
1, 1337503, Control_c, 0, 64, 85
1, 1337518, Control_c, 0, 64, 88
1, 1337533, Control_c, 0, 64, 91
1, 1337547, Control_c, 0, 64, 93
1, 1337562, Control_c, 0, 64, 95
1, 1337582, Note_off_c, 0, 81, 42
1, 1337599, Control_c, 0, 64, 98
1, 1337609, Note_on_c, 0, 76, 41
1, 1337630, Control_c, 0, 64, 101
1, 1337680, Note_off_c, 0, 76, 42
1, 1337804, Note_on_c, 0, 64, 25
1, 1337822, Control_c, 0, 64, 98
1, 1337837, Control_c, 0, 64, 92
1, 1337852, Control_c, 0, 64, 85
1, 1337867, Control_c, 0, 64, 76
1, 1337882, Control_c, 0, 64, 66
1, 1337888, Note_off_c, 0, 85, 44
1, 1337896, Control_c, 0, 64, 57
1, 1337911, Note_on_c, 0, 83, 40
1, 1337911, Control_c, 0, 64, 52
1, 1337914, Note_on_c, 0, 80, 34
1, 1337926, Control_c, 0, 64, 54
1, 1337941, Control_c, 0, 64, 56
1, 1337956, Control_c, 0, 64, 59
1, 1337971, Control_c, 0, 64, 62
1, 1337985, Control_c, 0, 64, 65
1, 1338000, Control_c, 0, 64, 71
1, 1338015, Control_c, 0, 64, 77
1, 1338029, Control_c, 0, 64, 82
1, 1338044, Control_c, 0, 64, 84
1, 1338059, Control_c, 0, 64, 85
1, 1338074, Control_c, 0, 64, 87
1, 1338089, Control_c, 0, 64, 88
1, 1338103, Control_c, 0, 64, 91
1, 1338118, Control_c, 0, 64, 93
1, 1338133, Control_c, 0, 64, 95
1, 1338153, Note_on_c, 0, 74, 41
1, 1338163, Control_c, 0, 64, 97
1, 1338192, Control_c, 0, 64, 101
1, 1338199, Note_off_c, 0, 74, 54
1, 1338214, Note_off_c, 0, 64, 39
1, 1338221, Control_c, 0, 64, 103
1, 1338522, Note_off_c, 0, 83, 35
1, 1338541, Control_c, 0, 64, 95
1, 1338556, Control_c, 0, 64, 82
1, 1338562, Note_on_c, 0, 57, 32
1, 1338571, Control_c, 0, 64, 69
1, 1338576, Note_on_c, 0, 73, 39
1, 1338586, Control_c, 0, 64, 57
1, 1338600, Control_c, 0, 64, 44
1, 1338604, Note_off_c, 0, 80, 39
1, 1338615, Control_c, 0, 64, 46
1, 1338630, Control_c, 0, 64, 53
1, 1338645, Control_c, 0, 64, 59
1, 1338660, Control_c, 0, 64, 64
1, 1338674, Control_c, 0, 64, 69
1, 1338689, Control_c, 0, 64, 75
1, 1338704, Control_c, 0, 64, 81
1, 1338719, Control_c, 0, 64, 83
1, 1338734, Control_c, 0, 64, 84
1, 1338747, Note_on_c, 0, 64, 40
1, 1338749, Control_c, 0, 64, 84
1, 1338779, Note_off_c, 0, 64, 55
1, 1338779, Control_c, 0, 64, 85
1, 1338787, Note_off_c, 0, 73, 37
1, 1338794, Control_c, 0, 64, 85
1, 1338852, Control_c, 0, 64, 85
1, 1338867, Control_c, 0, 64, 84
1, 1338882, Control_c, 0, 64, 81
1, 1338897, Control_c, 0, 64, 77
1, 1338912, Control_c, 0, 64, 71
1, 1338922, Note_on_c, 0, 73, 52
1, 1338925, Note_on_c, 0, 64, 33
1, 1338926, Control_c, 0, 64, 63
1, 1338931, Note_on_c, 0, 76, 56
1, 1338938, Note_off_c, 0, 57, 37
1, 1338941, Control_c, 0, 64, 53
1, 1338952, Note_off_c, 0, 64, 57
1, 1338956, Control_c, 0, 64, 39
1, 1338971, Control_c, 0, 64, 0
1, 1339048, Note_on_c, 0, 64, 50
1, 1339101, Note_off_c, 0, 64, 59
1, 1339140, Control_c, 0, 67, 116
1, 1339154, Control_c, 0, 64, 33
1, 1339154, Control_c, 0, 67, 102
1, 1339169, Control_c, 0, 64, 46
1, 1339169, Control_c, 0, 67, 87
1, 1339184, Control_c, 0, 64, 57
1, 1339184, Control_c, 0, 67, 72
1, 1339200, Control_c, 0, 64, 63
1, 1339200, Control_c, 0, 67, 55
1, 1339215, Control_c, 0, 64, 67
1, 1339215, Control_c, 0, 67, 43
1, 1339229, Control_c, 0, 64, 70
1, 1339229, Control_c, 0, 67, 33
1, 1339231, Note_on_c, 0, 61, 42
1, 1339244, Control_c, 0, 64, 71
1, 1339244, Control_c, 0, 67, 25
1, 1339259, Control_c, 0, 64, 72
1, 1339259, Control_c, 0, 67, 0
1, 1339267, Note_off_c, 0, 73, 38
1, 1339274, Control_c, 0, 64, 73
1, 1339363, Control_c, 0, 64, 70
1, 1339370, Note_on_c, 0, 64, 39
1, 1339378, Control_c, 0, 64, 65
1, 1339393, Control_c, 0, 64, 58
1, 1339405, Note_off_c, 0, 64, 55
1, 1339408, Control_c, 0, 64, 44
1, 1339414, Note_off_c, 0, 61, 39
1, 1339422, Control_c, 0, 64, 0
1, 1339496, Control_c, 0, 64, 39
1, 1339511, Control_c, 0, 64, 56
1, 1339518, Note_on_c, 0, 81, 73
1, 1339525, Note_on_c, 0, 64, 41
1, 1339526, Control_c, 0, 64, 67
1, 1339530, Note_on_c, 0, 73, 52
1, 1339541, Control_c, 0, 64, 73
1, 1339555, Control_c, 0, 64, 78
1, 1339567, Note_off_c, 0, 64, 62
1, 1339570, Control_c, 0, 64, 81
1, 1339585, Control_c, 0, 64, 83
1, 1339599, Control_c, 0, 64, 85
1, 1339614, Control_c, 0, 64, 88
1, 1339615, Note_off_c, 0, 73, 47
1, 1339629, Control_c, 0, 64, 93
1, 1339644, Control_c, 0, 64, 96
1, 1339651, Note_off_c, 0, 76, 26
1, 1339659, Control_c, 0, 64, 98
1, 1339671, Note_on_c, 0, 64, 46
1, 1339676, Note_off_c, 0, 81, 50
1, 1339694, Note_off_c, 0, 64, 59
1, 1339778, Control_c, 0, 64, 95
1, 1339792, Control_c, 0, 64, 87
1, 1339807, Control_c, 0, 64, 76
1, 1339830, Control_c, 0, 64, 65
1, 1339844, Note_on_c, 0, 59, 36
1, 1339845, Control_c, 0, 64, 53
1, 1339860, Control_c, 0, 64, 0
1, 1339873, Note_on_c, 0, 81, 66
1, 1339885, Note_on_c, 0, 74, 50
1, 1339904, Control_c, 0, 64, 36
1, 1339919, Control_c, 0, 64, 46
1, 1339934, Control_c, 0, 64, 57
1, 1339948, Control_c, 0, 64, 64
1, 1339963, Control_c, 0, 64, 69
1, 1339978, Control_c, 0, 64, 73
1, 1339993, Control_c, 0, 64, 75
1, 1340009, Control_c, 0, 64, 76
1, 1340014, Note_on_c, 0, 64, 42
1, 1340024, Control_c, 0, 64, 77
1, 1340044, Note_off_c, 0, 64, 59
1, 1340068, Control_c, 0, 64, 77
1, 1340068, Control_c, 0, 67, 20
1, 1340083, Control_c, 0, 64, 73
1, 1340083, Control_c, 0, 67, 24
1, 1340097, Control_c, 0, 64, 67
1, 1340097, Control_c, 0, 67, 30
1, 1340112, Control_c, 0, 64, 60
1, 1340112, Control_c, 0, 67, 42
1, 1340126, Note_off_c, 0, 59, 21
1, 1340127, Control_c, 0, 64, 40
1, 1340127, Control_c, 0, 67, 61
1, 1340142, Control_c, 0, 64, 0
1, 1340142, Control_c, 0, 67, 83
1, 1340157, Control_c, 0, 67, 105
1, 1340160, Note_on_c, 0, 80, 64
1, 1340171, Note_on_c, 0, 64, 37
1, 1340171, Control_c, 0, 67, 122
1, 1340180, Note_off_c, 0, 81, 50
1, 1340186, Control_c, 0, 67, 127
1, 1340217, Note_off_c, 0, 64, 61
1, 1340334, Note_on_c, 0, 64, 36
1, 1340363, Note_off_c, 0, 64, 47
1, 1340464, Note_off_c, 0, 74, 53
1, 1340491, Note_on_c, 0, 81, 66
1, 1340505, Note_off_c, 0, 80, 36
1, 1340507, Note_on_c, 0, 76, 56
1, 1340510, Note_on_c, 0, 61, 34
1, 1340664, Note_on_c, 0, 64, 43
1, 1340705, Note_off_c, 0, 64, 54
1, 1340843, Note_on_c, 0, 64, 43
1, 1340919, Note_off_c, 0, 64, 56
1, 1340931, Note_off_c, 0, 61, 38
1, 1340991, Note_on_c, 0, 69, 41
1, 1341059, Note_off_c, 0, 69, 49
1, 1341098, Control_c, 0, 64, 38
1, 1341113, Control_c, 0, 64, 51
1, 1341113, Control_c, 0, 67, 122
1, 1341126, Note_on_c, 0, 83, 71
1, 1341126, Note_off_c, 0, 81, 57
1, 1341128, Control_c, 0, 64, 61
1, 1341128, Control_c, 0, 67, 103
1, 1341139, Note_on_c, 0, 62, 33
1, 1341143, Control_c, 0, 64, 66
1, 1341143, Control_c, 0, 67, 85
1, 1341152, Note_on_c, 0, 78, 50
1, 1341158, Control_c, 0, 64, 71
1, 1341158, Control_c, 0, 67, 68
1, 1341172, Control_c, 0, 64, 77
1, 1341172, Control_c, 0, 67, 50
1, 1341187, Control_c, 0, 64, 84
1, 1341187, Control_c, 0, 67, 28
1, 1341202, Control_c, 0, 64, 93
1, 1341202, Control_c, 0, 67, 0
1, 1341211, Note_off_c, 0, 62, 54
1, 1341217, Control_c, 0, 64, 118
1, 1341220, Note_off_c, 0, 76, 29
1, 1341232, Control_c, 0, 64, 127
1, 1341279, Note_off_c, 0, 83, 61
1, 1341286, Note_on_c, 0, 69, 45
1, 1341328, Note_off_c, 0, 69, 53
1, 1341333, Note_off_c, 0, 78, 58
1, 1341433, Note_on_c, 0, 69, 45
1, 1341459, Note_off_c, 0, 69, 59
1, 1341557, Note_on_c, 0, 69, 53
1, 1341566, Note_on_c, 0, 83, 77
1, 1341578, Note_on_c, 0, 78, 65
1, 1341603, Note_off_c, 0, 69, 56
1, 1341626, Note_off_c, 0, 78, 50
1, 1341684, Control_c, 0, 64, 107
1, 1341699, Control_c, 0, 64, 81
1, 1341704, Note_on_c, 0, 63, 39
1, 1341714, Control_c, 0, 64, 63
1, 1341729, Control_c, 0, 64, 46
1, 1341743, Control_c, 0, 64, 36
1, 1341754, Note_on_c, 0, 85, 79
1, 1341758, Control_c, 0, 64, 43
1, 1341773, Control_c, 0, 64, 52
1, 1341779, Note_on_c, 0, 78, 44
1, 1341788, Control_c, 0, 64, 59
1, 1341790, Note_off_c, 0, 83, 60
1, 1341802, Control_c, 0, 64, 65
1, 1341817, Control_c, 0, 64, 74
1, 1341818, Note_off_c, 0, 78, 57
1, 1341832, Control_c, 0, 64, 85
1, 1341847, Control_c, 0, 64, 95
1, 1341852, Note_off_c, 0, 63, 49
1, 1341862, Control_c, 0, 64, 105
1, 1341876, Control_c, 0, 64, 127
1, 1341901, Note_on_c, 0, 69, 40
1, 1342010, Control_c, 0, 64, 89
1, 1342025, Control_c, 0, 64, 70
1, 1342032, Note_off_c, 0, 69, 32
1, 1342037, Note_on_c, 0, 63, 26
1, 1342040, Control_c, 0, 64, 58
1, 1342046, Note_on_c, 0, 81, 80
1, 1342055, Control_c, 0, 64, 54
1, 1342074, Note_on_c, 0, 78, 62
1, 1342077, Control_c, 0, 64, 60
1, 1342086, Note_off_c, 0, 85, 63
1, 1342092, Control_c, 0, 64, 64
1, 1342107, Control_c, 0, 64, 69
1, 1342122, Control_c, 0, 64, 78
1, 1342137, Control_c, 0, 64, 87
1, 1342151, Control_c, 0, 64, 93
1, 1342164, Note_off_c, 0, 63, 53
1, 1342166, Control_c, 0, 64, 95
1, 1342191, Note_off_c, 0, 81, 60
1, 1342195, Control_c, 0, 64, 98
1, 1342210, Note_on_c, 0, 73, 44
1, 1342210, Control_c, 0, 64, 100
1, 1342293, Note_off_c, 0, 73, 33
1, 1342344, Control_c, 0, 64, 96
1, 1342359, Control_c, 0, 64, 84
1, 1342374, Control_c, 0, 64, 70
1, 1342377, Note_on_c, 0, 64, 38
1, 1342389, Control_c, 0, 64, 57
1, 1342404, Note_on_c, 0, 81, 61
1, 1342404, Control_c, 0, 64, 35
1, 1342419, Control_c, 0, 64, 0
1, 1342422, Note_on_c, 0, 76, 50
1, 1342433, Control_c, 0, 64, 40
1, 1342435, Note_off_c, 0, 78, 56
1, 1342448, Control_c, 0, 64, 50
1, 1342463, Control_c, 0, 64, 59
1, 1342478, Control_c, 0, 64, 65
1, 1342493, Control_c, 0, 64, 72
1, 1342499, Note_off_c, 0, 64, 60
1, 1342508, Control_c, 0, 64, 81
1, 1342523, Control_c, 0, 64, 85
1, 1342538, Control_c, 0, 64, 85
1, 1342563, Note_on_c, 0, 73, 50
1, 1342567, Control_c, 0, 64, 85
1, 1342582, Control_c, 0, 64, 81
1, 1342597, Control_c, 0, 64, 73
1, 1342606, Note_off_c, 0, 73, 60
1, 1342612, Control_c, 0, 64, 64
1, 1342626, Control_c, 0, 64, 54
1, 1342641, Control_c, 0, 64, 45
1, 1342656, Control_c, 0, 64, 42
1, 1342671, Control_c, 0, 64, 41
1, 1342710, Note_on_c, 0, 73, 57
1, 1342749, Note_off_c, 0, 73, 61
1, 1342760, Control_c, 0, 64, 41
1, 1342773, Control_c, 0, 64, 40
1, 1342864, Note_on_c, 0, 73, 54
1, 1342892, Note_off_c, 0, 73, 58
1, 1342914, Control_c, 0, 64, 40
1, 1342929, Control_c, 0, 64, 39
1, 1342944, Control_c, 0, 64, 39
1, 1342959, Control_c, 0, 64, 38
1, 1342973, Control_c, 0, 64, 37
1, 1342988, Note_off_c, 0, 76, 56
1, 1342988, Control_c, 0, 64, 37
1, 1343003, Control_c, 0, 64, 36
1, 1343023, Note_on_c, 0, 80, 56
1, 1343033, Control_c, 0, 64, 36
1, 1343036, Note_on_c, 0, 71, 32
1, 1343077, Control_c, 0, 64, 36
1, 1343092, Control_c, 0, 64, 38
1, 1343107, Control_c, 0, 64, 44
1, 1343122, Control_c, 0, 64, 50
1, 1343137, Control_c, 0, 64, 57
1, 1343151, Control_c, 0, 64, 64
1, 1343166, Control_c, 0, 64, 71
1, 1343167, Note_off_c, 0, 71, 41
1, 1343176, Note_on_c, 0, 78, 71
1, 1343181, Control_c, 0, 64, 80
1, 1343184, Note_on_c, 0, 74, 60
1, 1343197, Control_c, 0, 64, 90
1, 1343205, Note_off_c, 0, 81, 38
1, 1343211, Control_c, 0, 64, 98
1, 1343226, Control_c, 0, 64, 102
1, 1343241, Control_c, 0, 64, 105
1, 1343256, Control_c, 0, 64, 108
1, 1343262, Note_off_c, 0, 80, 35
1, 1343315, Note_off_c, 0, 74, 35
1, 1343328, Note_on_c, 0, 76, 76
1, 1343345, Control_c, 0, 64, 110
1, 1343355, Note_on_c, 0, 73, 52
1, 1343360, Control_c, 0, 64, 112
1, 1343375, Control_c, 0, 64, 115
1, 1343389, Control_c, 0, 64, 118
1, 1343402, Note_off_c, 0, 78, 39
1, 1343431, Note_off_c, 0, 73, 50
1, 1343455, Note_off_c, 0, 76, 63
1, 1343466, Note_on_c, 0, 71, 55
1, 1343473, Note_on_c, 0, 74, 78
1, 1343487, Note_off_c, 0, 71, 62
1, 1343574, Control_c, 0, 64, 110
1, 1343589, Control_c, 0, 64, 93
1, 1343604, Control_c, 0, 64, 73
1, 1343619, Control_c, 0, 64, 59
1, 1343634, Control_c, 0, 64, 33
1, 1343640, Note_on_c, 0, 73, 63
1, 1343644, Note_off_c, 0, 74, 56
1, 1343648, Note_on_c, 0, 69, 39
1, 1343648, Control_c, 0, 64, 0
1, 1343662, Note_on_c, 0, 57, 36
1, 1343663, Control_c, 0, 64, 35
1, 1343678, Control_c, 0, 64, 47
1, 1343693, Control_c, 0, 64, 57
1, 1343708, Control_c, 0, 64, 65
1, 1343722, Control_c, 0, 64, 70
1, 1343737, Control_c, 0, 64, 75
1, 1343752, Control_c, 0, 64, 78
1, 1343766, Control_c, 0, 64, 79
1, 1343767, Note_off_c, 0, 69, 35
1, 1343804, Note_on_c, 0, 64, 48
1, 1343811, Control_c, 0, 64, 79
1, 1343829, Note_off_c, 0, 73, 56
1, 1343831, Note_off_c, 0, 64, 61
1, 1343858, Note_off_c, 0, 57, 34
1, 1343885, Control_c, 0, 64, 79
1, 1343900, Control_c, 0, 64, 77
1, 1343915, Control_c, 0, 64, 74
1, 1343930, Control_c, 0, 64, 70
1, 1343945, Control_c, 0, 64, 67
1, 1343954, Note_on_c, 0, 64, 48
1, 1343960, Control_c, 0, 64, 64
1, 1343962, Note_on_c, 0, 76, 67
1, 1343971, Note_on_c, 0, 73, 52
1, 1343974, Control_c, 0, 64, 62
1, 1343989, Control_c, 0, 64, 60
1, 1343992, Note_off_c, 0, 64, 63
1, 1344004, Control_c, 0, 64, 57
1, 1344019, Control_c, 0, 64, 55
1, 1344034, Control_c, 0, 64, 52
1, 1344049, Control_c, 0, 64, 49
1, 1344064, Control_c, 0, 64, 44
1, 1344079, Control_c, 0, 64, 37
1, 1344094, Control_c, 0, 64, 0
1, 1344120, Note_on_c, 0, 64, 41
1, 1344148, Note_off_c, 0, 64, 55
1, 1344257, Control_c, 0, 64, 43
1, 1344258, Note_on_c, 0, 61, 42
1, 1344271, Control_c, 0, 64, 59
1, 1344286, Control_c, 0, 64, 66
1, 1344301, Control_c, 0, 64, 71
1, 1344305, Note_off_c, 0, 73, 61
1, 1344323, Control_c, 0, 64, 74
1, 1344324, Note_off_c, 0, 76, 62
1, 1344338, Control_c, 0, 64, 77
1, 1344353, Control_c, 0, 64, 81
1, 1344368, Control_c, 0, 64, 87
1, 1344383, Control_c, 0, 64, 93
1, 1344397, Control_c, 0, 64, 98
1, 1344410, Note_off_c, 0, 61, 56
1, 1344412, Note_on_c, 0, 64, 55
1, 1344412, Control_c, 0, 64, 106
1, 1344427, Control_c, 0, 64, 118
1, 1344442, Control_c, 0, 64, 127
1, 1344453, Note_off_c, 0, 64, 59
1, 1344545, Control_c, 0, 64, 122
1, 1344560, Control_c, 0, 64, 84
1, 1344566, Note_on_c, 0, 81, 81
1, 1344575, Control_c, 0, 64, 67
1, 1344585, Note_on_c, 0, 64, 45
1, 1344589, Control_c, 0, 64, 55
1, 1344601, Note_on_c, 0, 73, 44
1, 1344604, Control_c, 0, 64, 52
1, 1344615, Note_off_c, 0, 64, 55
1, 1344619, Control_c, 0, 64, 58
1, 1344634, Control_c, 0, 64, 63
1, 1344649, Control_c, 0, 64, 67
1, 1344663, Control_c, 0, 64, 73
1, 1344675, Note_off_c, 0, 73, 48
1, 1344678, Control_c, 0, 64, 81
1, 1344693, Control_c, 0, 64, 89
1, 1344708, Control_c, 0, 64, 97
1, 1344716, Note_on_c, 0, 64, 53
1, 1344723, Control_c, 0, 64, 101
1, 1344738, Control_c, 0, 64, 103
1, 1344747, Note_off_c, 0, 64, 55
1, 1344767, Note_off_c, 0, 81, 52
1, 1344767, Control_c, 0, 64, 105
1, 1344857, Control_c, 0, 64, 100
1, 1344872, Control_c, 0, 64, 90
1, 1344887, Note_on_c, 0, 81, 77
1, 1344887, Control_c, 0, 64, 79
1, 1344890, Note_on_c, 0, 59, 34
1, 1344896, Note_on_c, 0, 74, 63
1, 1344902, Control_c, 0, 64, 67
1, 1344917, Control_c, 0, 64, 60
1, 1344931, Control_c, 0, 64, 51
1, 1344946, Control_c, 0, 64, 43
1, 1344961, Control_c, 0, 64, 40
1, 1344976, Control_c, 0, 64, 39
1, 1345031, Note_on_c, 0, 64, 41
1, 1345084, Note_off_c, 0, 64, 60
1, 1345088, Control_c, 0, 64, 39
1, 1345102, Control_c, 0, 64, 40
1, 1345132, Control_c, 0, 64, 40
1, 1345203, Note_on_c, 0, 64, 50
1, 1345203, Note_off_c, 0, 59, 36
1, 1345204, Note_on_c, 0, 80, 74
1, 1345206, Control_c, 0, 64, 41
1, 1345243, Note_off_c, 0, 64, 62
1, 1345255, Note_off_c, 0, 81, 54
1, 1345364, Note_on_c, 0, 64, 32
1, 1345391, Note_off_c, 0, 64, 47
1, 1345413, Control_c, 0, 64, 40
1, 1345443, Control_c, 0, 64, 40
1, 1345458, Control_c, 0, 64, 39
1, 1345473, Control_c, 0, 64, 38
1, 1345487, Control_c, 0, 64, 38
1, 1345502, Control_c, 0, 64, 37
1, 1345522, Note_on_c, 0, 61, 22
1, 1345531, Note_on_c, 0, 81, 74
1, 1345542, Note_off_c, 0, 74, 39
1, 1345546, Control_c, 0, 64, 38
1, 1345553, Note_off_c, 0, 80, 33
1, 1345559, Note_on_c, 0, 76, 50
1, 1345561, Control_c, 0, 64, 41
1, 1345576, Control_c, 0, 64, 46
1, 1345592, Control_c, 0, 64, 52
1, 1345607, Control_c, 0, 64, 58
1, 1345622, Control_c, 0, 64, 62
1, 1345636, Control_c, 0, 64, 67
1, 1345651, Control_c, 0, 64, 73
1, 1345664, Note_on_c, 0, 64, 50
1, 1345666, Control_c, 0, 64, 79
1, 1345681, Control_c, 0, 64, 84
1, 1345696, Control_c, 0, 64, 88
1, 1345705, Note_off_c, 0, 64, 62
1, 1345710, Control_c, 0, 64, 89
1, 1345725, Control_c, 0, 64, 90
1, 1345754, Control_c, 0, 64, 87
1, 1345769, Control_c, 0, 64, 76
1, 1345784, Control_c, 0, 64, 64
1, 1345799, Control_c, 0, 64, 44
1, 1345822, Control_c, 0, 64, 40
1, 1345836, Control_c, 0, 64, 49
1, 1345842, Note_on_c, 0, 64, 35
1, 1345851, Control_c, 0, 64, 58
1, 1345866, Control_c, 0, 64, 65
1, 1345881, Control_c, 0, 64, 72
1, 1345896, Control_c, 0, 64, 83
1, 1345901, Note_off_c, 0, 64, 54
1, 1345910, Control_c, 0, 64, 89
1, 1345916, Note_off_c, 0, 61, 39
1, 1345925, Control_c, 0, 64, 91
1, 1345940, Control_c, 0, 64, 93
1, 1345955, Control_c, 0, 64, 93
1, 1345962, Note_on_c, 0, 69, 43
1, 1345969, Control_c, 0, 64, 94
1, 1345984, Control_c, 0, 64, 95
1, 1346021, Note_off_c, 0, 69, 41
1, 1346088, Control_c, 0, 64, 91
1, 1346103, Control_c, 0, 64, 79
1, 1346115, Note_off_c, 0, 81, 56
1, 1346118, Control_c, 0, 64, 67
1, 1346132, Note_on_c, 0, 83, 65
1, 1346133, Control_c, 0, 64, 54
1, 1346136, Note_on_c, 0, 62, 35
1, 1346148, Control_c, 0, 64, 37
1, 1346153, Note_off_c, 0, 76, 53
1, 1346162, Control_c, 0, 64, 39
1, 1346167, Note_on_c, 0, 78, 49
1, 1346177, Control_c, 0, 64, 48
1, 1346192, Control_c, 0, 64, 57
1, 1346207, Control_c, 0, 64, 64
1, 1346213, Note_off_c, 0, 83, 64
1, 1346222, Control_c, 0, 64, 70
1, 1346236, Control_c, 0, 64, 78
1, 1346251, Control_c, 0, 64, 86
1, 1346266, Control_c, 0, 64, 90
1, 1346281, Control_c, 0, 64, 93
1, 1346282, Note_on_c, 0, 69, 43
1, 1346295, Control_c, 0, 64, 96
1, 1346321, Note_off_c, 0, 69, 51
1, 1346325, Control_c, 0, 64, 98
1, 1346369, Control_c, 0, 64, 101
1, 1346389, Note_off_c, 0, 78, 28
1, 1346391, Note_off_c, 0, 62, 39
1, 1346415, Control_c, 0, 64, 103
1, 1346437, Note_on_c, 0, 64, 43
1, 1346441, Note_on_c, 0, 69, 44
1, 1346444, Note_on_c, 0, 85, 76
1, 1346445, Control_c, 0, 64, 105
1, 1346459, Note_on_c, 0, 76, 57
1, 1346474, Control_c, 0, 64, 107
1, 1346491, Note_off_c, 0, 69, 53
1, 1346491, Note_off_c, 0, 76, 58
1, 1346512, Note_off_c, 0, 85, 64
1, 1346518, Control_c, 0, 64, 110
1, 1346585, Control_c, 0, 64, 113
1, 1346589, Note_on_c, 0, 86, 83
1, 1346592, Note_off_c, 0, 64, 40
1, 1346595, Note_on_c, 0, 74, 76
1, 1346611, Note_on_c, 0, 66, 48
1, 1346614, Control_c, 0, 64, 116
1, 1346619, Note_on_c, 0, 69, 44
1, 1346644, Control_c, 0, 64, 119
1, 1346655, Note_off_c, 0, 74, 55
1, 1346672, Note_off_c, 0, 86, 61
1, 1346673, Control_c, 0, 64, 122
1, 1346688, Note_off_c, 0, 69, 41
1, 1346717, Control_c, 0, 64, 118
1, 1346732, Control_c, 0, 64, 98
1, 1346747, Control_c, 0, 64, 78
1, 1346761, Note_off_c, 0, 66, 35
1, 1346762, Control_c, 0, 64, 63
1, 1346768, Note_on_c, 0, 85, 82
1, 1346773, Note_on_c, 0, 64, 36
1, 1346777, Control_c, 0, 64, 42
1, 1346778, Note_on_c, 0, 76, 69
1, 1346791, Control_c, 0, 64, 36
1, 1346806, Control_c, 0, 64, 46
1, 1346821, Control_c, 0, 64, 56
1, 1346836, Control_c, 0, 64, 64
1, 1346851, Control_c, 0, 64, 74
1, 1346854, Note_off_c, 0, 64, 57
1, 1346866, Control_c, 0, 64, 88
1, 1346881, Control_c, 0, 64, 109
1, 1346896, Control_c, 0, 64, 127
1, 1346905, Note_on_c, 0, 69, 49
1, 1346909, Note_off_c, 0, 85, 64
1, 1346917, Note_off_c, 0, 76, 59
1, 1347012, Note_off_c, 0, 69, 49
1, 1347052, Note_on_c, 0, 83, 83
1, 1347057, Note_on_c, 0, 64, 41
1, 1347058, Control_c, 0, 64, 87
1, 1347073, Note_on_c, 0, 74, 53
1, 1347073, Note_on_c, 0, 76, 43
1, 1347073, Control_c, 0, 64, 69
1, 1347088, Control_c, 0, 64, 57
1, 1347103, Control_c, 0, 64, 57
1, 1347117, Control_c, 0, 64, 61
1, 1347120, Note_off_c, 0, 74, 46
1, 1347132, Control_c, 0, 64, 65
1, 1347143, Note_off_c, 0, 64, 59
1, 1347147, Control_c, 0, 64, 72
1, 1347162, Control_c, 0, 64, 81
1, 1347170, Note_off_c, 0, 76, 54
1, 1347177, Control_c, 0, 64, 91
1, 1347193, Control_c, 0, 64, 97
1, 1347203, Note_on_c, 0, 68, 50
1, 1347222, Control_c, 0, 64, 100
1, 1347240, Note_off_c, 0, 68, 50
1, 1347252, Control_c, 0, 64, 102
1, 1347256, Note_off_c, 0, 83, 39
1, 1347282, Control_c, 0, 64, 105
1, 1347379, Control_c, 0, 64, 102
1, 1347394, Control_c, 0, 64, 87
1, 1347409, Control_c, 0, 64, 72
1, 1347411, Note_on_c, 0, 57, 33
1, 1347423, Control_c, 0, 64, 57
1, 1347426, Note_on_c, 0, 83, 58
1, 1347438, Control_c, 0, 64, 0
1, 1347449, Note_on_c, 0, 76, 37
1, 1347451, Note_on_c, 0, 74, 35
1, 1347483, Control_c, 0, 64, 39
1, 1347497, Control_c, 0, 64, 55
1, 1347512, Control_c, 0, 64, 64
1, 1347527, Control_c, 0, 64, 70
1, 1347541, Control_c, 0, 64, 77
1, 1347556, Control_c, 0, 64, 81
1, 1347571, Control_c, 0, 64, 84
1, 1347586, Control_c, 0, 64, 86
1, 1347587, Note_on_c, 0, 64, 38
1, 1347601, Control_c, 0, 64, 90
1, 1347615, Control_c, 0, 64, 95
1, 1347630, Control_c, 0, 64, 100
1, 1347645, Control_c, 0, 64, 104
1, 1347675, Control_c, 0, 64, 106
1, 1347689, Control_c, 0, 64, 108
1, 1347708, Note_off_c, 0, 64, 49
1, 1347719, Control_c, 0, 64, 110
1, 1347739, Note_off_c, 0, 74, 41
1, 1347754, Note_on_c, 0, 68, 49
1, 1347799, Note_off_c, 0, 68, 46
1, 1347868, Control_c, 0, 64, 102
1, 1347874, Note_on_c, 0, 64, 42
1, 1347882, Control_c, 0, 64, 95
1, 1347897, Control_c, 0, 64, 88
1, 1347912, Control_c, 0, 64, 83
1, 1347927, Control_c, 0, 64, 79
1, 1347941, Control_c, 0, 64, 75
1, 1347956, Control_c, 0, 64, 68
1, 1347971, Control_c, 0, 64, 61
1, 1347987, Control_c, 0, 64, 47
1, 1347999, Note_off_c, 0, 83, 40
1, 1348002, Control_c, 0, 64, 35
1, 1348013, Note_off_c, 0, 76, 52
1, 1348017, Control_c, 0, 64, 37
1, 1348031, Control_c, 0, 64, 46
1, 1348046, Control_c, 0, 64, 56
1, 1348067, Note_on_c, 0, 81, 58
1, 1348068, Note_on_c, 0, 69, 41
1, 1348068, Control_c, 0, 64, 62
1, 1348075, Note_on_c, 0, 73, 45
1, 1348083, Control_c, 0, 64, 68
1, 1348098, Control_c, 0, 64, 80
1, 1348112, Note_off_c, 0, 73, 65
1, 1348112, Control_c, 0, 64, 94
1, 1348127, Control_c, 0, 64, 106
1, 1348142, Control_c, 0, 64, 127
1, 1348144, Note_off_c, 0, 69, 53
1, 1348145, Note_off_c, 0, 81, 54
1, 1348188, Note_off_c, 0, 57, 41
1, 1348188, Note_off_c, 0, 64, 60
1, 1348225, Note_on_c, 0, 83, 70
1, 1348231, Control_c, 0, 64, 103
1, 1348233, Note_on_c, 0, 71, 50
1, 1348246, Control_c, 0, 64, 81
1, 1348252, Note_off_c, 0, 83, 65
1, 1348257, Note_off_c, 0, 71, 58
1, 1348261, Control_c, 0, 64, 66
1, 1348276, Control_c, 0, 64, 50
1, 1348291, Control_c, 0, 64, 0
1, 1348372, Note_on_c, 0, 85, 66
1, 1348379, Note_on_c, 0, 73, 57
1, 1348398, Note_off_c, 0, 85, 69
1, 1348401, Note_off_c, 0, 73, 61
1, 1348505, Note_on_c, 0, 86, 75
1, 1348516, Note_on_c, 0, 74, 57
1, 1348540, Note_off_c, 0, 74, 57
1, 1348551, Note_off_c, 0, 86, 56
1, 1348683, Note_on_c, 0, 88, 69
1, 1348690, Control_c, 0, 64, 42
1, 1348694, Note_on_c, 0, 76, 48
1, 1348696, Note_on_c, 0, 57, 28
1, 1348705, Control_c, 0, 64, 54
1, 1348713, Note_on_c, 0, 61, 14
1, 1348720, Control_c, 0, 64, 62
1, 1348735, Control_c, 0, 64, 68
1, 1348750, Control_c, 0, 64, 73
1, 1348750, Control_c, 0, 67, 20
1, 1348764, Control_c, 0, 64, 80
1, 1348764, Control_c, 0, 67, 22
1, 1348774, Note_off_c, 0, 57, 48
1, 1348780, Control_c, 0, 64, 87
1, 1348780, Control_c, 0, 67, 24
1, 1348795, Control_c, 0, 64, 95
1, 1348797, Note_off_c, 0, 61, 52
1, 1348817, Control_c, 0, 64, 108
1, 1348817, Control_c, 0, 67, 26
1, 1348832, Control_c, 0, 64, 127
1, 1348868, Note_on_c, 0, 64, 26
1, 1348888, Note_off_c, 0, 88, 63
1, 1348890, Note_off_c, 0, 76, 44
1, 1348906, Control_c, 0, 67, 24
1, 1348926, Note_off_c, 0, 64, 39
1, 1348935, Control_c, 0, 67, 21
1, 1348965, Control_c, 0, 67, 0
1, 1348992, Note_on_c, 0, 55, 41
1, 1349004, Note_on_c, 0, 59, 41
1, 1349039, Note_off_c, 0, 55, 61
1, 1349068, Note_off_c, 0, 59, 56
1, 1349130, Note_on_c, 0, 88, 82
1, 1349133, Note_on_c, 0, 76, 68
1, 1349137, Note_on_c, 0, 64, 49
1, 1349150, Note_off_c, 0, 76, 66
1, 1349169, Note_off_c, 0, 88, 57
1, 1349255, Note_off_c, 0, 64, 46
1, 1349291, Control_c, 0, 64, 96
1, 1349305, Control_c, 0, 64, 73
1, 1349306, Note_on_c, 0, 54, 36
1, 1349320, Note_on_c, 0, 90, 78
1, 1349320, Control_c, 0, 64, 59
1, 1349331, Note_on_c, 0, 58, 33
1, 1349335, Control_c, 0, 64, 40
1, 1349337, Note_on_c, 0, 78, 52
1, 1349350, Control_c, 0, 64, 39
1, 1349350, Control_c, 0, 67, 21
1, 1349365, Control_c, 0, 64, 45
1, 1349365, Control_c, 0, 67, 23
1, 1349379, Control_c, 0, 64, 53
1, 1349379, Control_c, 0, 67, 30
1, 1349394, Control_c, 0, 64, 60
1, 1349394, Control_c, 0, 67, 41
1, 1349409, Control_c, 0, 64, 67
1, 1349409, Control_c, 0, 67, 57
1, 1349421, Note_off_c, 0, 54, 56
1, 1349424, Control_c, 0, 64, 77
1, 1349424, Control_c, 0, 67, 76
1, 1349439, Control_c, 0, 64, 94
1, 1349439, Control_c, 0, 67, 95
1, 1349453, Control_c, 0, 64, 127
1, 1349453, Control_c, 0, 67, 115
1, 1349461, Note_off_c, 0, 58, 56
1, 1349468, Control_c, 0, 67, 127
1, 1349495, Note_on_c, 0, 66, 48
1, 1349530, Note_off_c, 0, 66, 52
1, 1349612, Note_on_c, 0, 54, 41
1, 1349641, Note_on_c, 0, 58, 47
1, 1349706, Note_off_c, 0, 54, 58
1, 1349709, Note_off_c, 0, 90, 63
1, 1349717, Note_off_c, 0, 78, 59
1, 1349722, Note_off_c, 0, 58, 55
1, 1349778, Note_on_c, 0, 59, 52
1, 1349801, Note_on_c, 0, 56, 29
1, 1349814, Note_off_c, 0, 59, 64
1, 1349921, Control_c, 0, 64, 106
1, 1349926, Note_off_c, 0, 56, 25
1, 1349936, Control_c, 0, 64, 77
1, 1349951, Control_c, 0, 64, 59
1, 1349966, Control_c, 0, 64, 0
1, 1349971, Note_on_c, 0, 76, 57
1, 1349972, Note_on_c, 0, 88, 69
1, 1349977, Note_on_c, 0, 58, 36
1, 1349992, Note_on_c, 0, 61, 33
1, 1349996, Control_c, 0, 64, 42
1, 1350010, Control_c, 0, 64, 57
1, 1350025, Control_c, 0, 64, 66
1, 1350040, Control_c, 0, 64, 75
1, 1350055, Control_c, 0, 64, 84
1, 1350068, Note_off_c, 0, 76, 61
1, 1350070, Control_c, 0, 64, 90
1, 1350079, Note_off_c, 0, 61, 58
1, 1350082, Note_off_c, 0, 58, 57
1, 1350084, Control_c, 0, 64, 94
1, 1350099, Control_c, 0, 64, 97
1, 1350114, Control_c, 0, 64, 102
1, 1350128, Control_c, 0, 64, 110
1, 1350131, Note_on_c, 0, 66, 53
1, 1350143, Control_c, 0, 64, 127
1, 1350232, Control_c, 0, 64, 107
1, 1350247, Control_c, 0, 64, 83
1, 1350251, Note_off_c, 0, 66, 32
1, 1350262, Control_c, 0, 64, 67
1, 1350277, Control_c, 0, 64, 49
1, 1350282, Note_on_c, 0, 59, 35
1, 1350285, Note_on_c, 0, 87, 64
1, 1350290, Note_on_c, 0, 63, 39
1, 1350292, Control_c, 0, 64, 46
1, 1350294, Note_on_c, 0, 75, 51
1, 1350315, Control_c, 0, 64, 54
1, 1350330, Control_c, 0, 64, 62
1, 1350333, Note_off_c, 0, 88, 37
1, 1350344, Control_c, 0, 64, 69
1, 1350357, Note_off_c, 0, 59, 57
1, 1350359, Control_c, 0, 64, 78
1, 1350365, Note_off_c, 0, 87, 64
1, 1350374, Control_c, 0, 64, 88
1, 1350374, Control_c, 0, 67, 110
1, 1350380, Note_off_c, 0, 63, 60
1, 1350389, Control_c, 0, 64, 95
1, 1350389, Control_c, 0, 67, 89
1, 1350404, Control_c, 0, 64, 99
1, 1350404, Control_c, 0, 67, 66
1, 1350413, Note_off_c, 0, 75, 63
1, 1350419, Control_c, 0, 64, 102
1, 1350419, Control_c, 0, 67, 48
1, 1350432, Note_on_c, 0, 66, 50
1, 1350434, Control_c, 0, 64, 105
1, 1350434, Control_c, 0, 67, 32
1, 1350449, Control_c, 0, 64, 107
1, 1350449, Control_c, 0, 67, 0
1, 1350479, Control_c, 0, 64, 110
1, 1350567, Note_off_c, 0, 66, 35
1, 1350567, Control_c, 0, 64, 96
1, 1350582, Control_c, 0, 64, 77
1, 1350597, Control_c, 0, 64, 63
1, 1350598, Note_on_c, 0, 63, 32
1, 1350612, Control_c, 0, 64, 43
1, 1350626, Control_c, 0, 64, 0
1, 1350628, Note_on_c, 0, 71, 48
1, 1350628, Note_on_c, 0, 83, 56
1, 1350641, Control_c, 0, 64, 36
1, 1350656, Control_c, 0, 64, 49
1, 1350671, Control_c, 0, 64, 60
1, 1350685, Control_c, 0, 64, 68
1, 1350700, Control_c, 0, 64, 76
1, 1350714, Note_off_c, 0, 71, 58
1, 1350715, Control_c, 0, 64, 84
1, 1350730, Control_c, 0, 64, 88
1, 1350741, Note_off_c, 0, 63, 35
1, 1350745, Control_c, 0, 64, 90
1, 1350755, Note_off_c, 0, 83, 64
1, 1350759, Control_c, 0, 64, 93
1, 1350763, Note_on_c, 0, 66, 41
1, 1350774, Control_c, 0, 64, 97
1, 1350789, Control_c, 0, 64, 103
1, 1350804, Control_c, 0, 64, 110
1, 1350819, Control_c, 0, 64, 120
1, 1350834, Control_c, 0, 64, 127
1, 1350856, Note_off_c, 0, 66, 32
1, 1350905, Note_on_c, 0, 62, 44
1, 1350994, Note_off_c, 0, 62, 55
1, 1351052, Note_on_c, 0, 85, 74
1, 1351053, Note_on_c, 0, 61, 47
1, 1351060, Note_on_c, 0, 73, 68
1, 1351063, Note_on_c, 0, 64, 45
1, 1351141, Note_off_c, 0, 73, 61
1, 1351154, Note_off_c, 0, 61, 50
1, 1351180, Note_off_c, 0, 64, 53
1, 1351182, Control_c, 0, 64, 92
1, 1351197, Control_c, 0, 64, 70
1, 1351212, Control_c, 0, 64, 50
1, 1351219, Note_on_c, 0, 86, 78
1, 1351226, Note_on_c, 0, 59, 38
1, 1351227, Control_c, 0, 64, 0
1, 1351230, Note_off_c, 0, 85, 39
1, 1351236, Note_on_c, 0, 74, 65
1, 1351242, Note_on_c, 0, 62, 30
1, 1351271, Control_c, 0, 64, 36
1, 1351286, Control_c, 0, 64, 56
1, 1351290, Note_off_c, 0, 59, 60
1, 1351300, Control_c, 0, 64, 67
1, 1351308, Note_off_c, 0, 62, 60
1, 1351315, Control_c, 0, 64, 77
1, 1351330, Control_c, 0, 64, 89
1, 1351345, Control_c, 0, 64, 101
1, 1351360, Control_c, 0, 64, 113
1, 1351362, Note_on_c, 0, 66, 56
1, 1351374, Control_c, 0, 64, 127
1, 1351404, Note_off_c, 0, 74, 37
1, 1351458, Note_off_c, 0, 66, 47
1, 1351473, Note_off_c, 0, 86, 51
1, 1351501, Note_on_c, 0, 57, 50
1, 1351510, Note_on_c, 0, 61, 50
1, 1351557, Note_off_c, 0, 57, 56
1, 1351601, Note_off_c, 0, 61, 54
1, 1351632, Note_on_c, 0, 66, 62
1, 1351641, Note_on_c, 0, 86, 91
1, 1351650, Note_on_c, 0, 74, 81
1, 1351710, Note_off_c, 0, 74, 54
1, 1351730, Note_off_c, 0, 66, 47
1, 1351740, Note_off_c, 0, 86, 62
1, 1351789, Control_c, 0, 64, 113
1, 1351811, Control_c, 0, 64, 78
1, 1351820, Note_on_c, 0, 56, 25
1, 1351826, Control_c, 0, 64, 63
1, 1351826, Control_c, 0, 67, 20
1, 1351841, Note_on_c, 0, 59, 30
1, 1351841, Control_c, 0, 64, 50
1, 1351841, Control_c, 0, 67, 24
1, 1351842, Note_on_c, 0, 88, 89
1, 1351854, Note_on_c, 0, 76, 70
1, 1351856, Control_c, 0, 64, 54
1, 1351856, Control_c, 0, 67, 29
1, 1351871, Control_c, 0, 64, 61
1, 1351871, Control_c, 0, 67, 36
1, 1351886, Control_c, 0, 64, 66
1, 1351886, Control_c, 0, 67, 48
1, 1351901, Control_c, 0, 64, 73
1, 1351901, Control_c, 0, 67, 64
1, 1351915, Control_c, 0, 64, 87
1, 1351915, Control_c, 0, 67, 81
1, 1351918, Note_off_c, 0, 59, 59
1, 1351929, Note_off_c, 0, 56, 33
1, 1351930, Control_c, 0, 64, 127
1, 1351930, Control_c, 0, 67, 102
1, 1351945, Control_c, 0, 67, 120
1, 1351960, Control_c, 0, 67, 127
1, 1351973, Note_on_c, 0, 64, 61
1, 1351981, Note_off_c, 0, 76, 61
1, 1351997, Note_off_c, 0, 64, 64
1, 1352041, Note_off_c, 0, 88, 63
1, 1352097, Poly_aftertouch_c, 0, 86, 0
1, 1352130, Note_on_c, 0, 50, 46
1, 1352145, Note_on_c, 0, 52, 44
1, 1352177, Note_off_c, 0, 50, 60
1, 1352202, Note_off_c, 0, 52, 61
1, 1352270, Note_on_c, 0, 59, 44
1, 1352344, Note_off_c, 0, 59, 56
1, 1352434, Control_c, 0, 64, 82
1, 1352440, Note_on_c, 0, 49, 39
1, 1352445, Note_on_c, 0, 52, 28
1, 1352449, Control_c, 0, 64, 63
1, 1352452, Note_on_c, 0, 81, 73
1, 1352464, Note_on_c, 0, 69, 53
1, 1352464, Control_c, 0, 64, 40
1, 1352479, Control_c, 0, 64, 40
1, 1352494, Control_c, 0, 64, 53
1, 1352509, Control_c, 0, 64, 62
1, 1352524, Control_c, 0, 64, 70
1, 1352529, Note_off_c, 0, 49, 49
1, 1352539, Control_c, 0, 64, 82
1, 1352554, Note_off_c, 0, 52, 29
1, 1352561, Control_c, 0, 64, 99
1, 1352576, Control_c, 0, 64, 116
1, 1352591, Control_c, 0, 64, 127
1, 1352591, Control_c, 0, 67, 124
1, 1352595, Note_on_c, 0, 57, 48
1, 1352605, Control_c, 0, 67, 109
1, 1352617, Note_off_c, 0, 69, 55
1, 1352620, Control_c, 0, 67, 94
1, 1352635, Control_c, 0, 67, 81
1, 1352650, Control_c, 0, 67, 68
1, 1352658, Note_off_c, 0, 57, 47
1, 1352664, Control_c, 0, 67, 56
1, 1352679, Control_c, 0, 67, 43
1, 1352694, Control_c, 0, 67, 31
1, 1352709, Control_c, 0, 67, 20
1, 1352724, Control_c, 0, 67, 0
1, 1352738, Note_on_c, 0, 47, 42
1, 1352754, Note_on_c, 0, 50, 39
1, 1352792, Note_off_c, 0, 47, 56
1, 1352837, Note_off_c, 0, 50, 58
1, 1352840, Note_off_c, 0, 81, 60
1, 1352900, Note_on_c, 0, 57, 43
1, 1352901, Note_on_c, 0, 83, 72
1, 1352903, Note_on_c, 0, 71, 62
1, 1352923, Note_off_c, 0, 71, 62
1, 1352943, Note_off_c, 0, 83, 59
1, 1352986, Note_off_c, 0, 57, 42
1, 1353036, Control_c, 0, 64, 95
1, 1353036, Control_c, 0, 67, 23
1, 1353051, Control_c, 0, 64, 73
1, 1353051, Control_c, 0, 67, 29
1, 1353066, Control_c, 0, 64, 51
1, 1353066, Control_c, 0, 67, 37
1, 1353070, Note_on_c, 0, 45, 20
1, 1353081, Control_c, 0, 64, 0
1, 1353081, Control_c, 0, 67, 49
1, 1353087, Note_on_c, 0, 49, 32
1, 1353096, Control_c, 0, 67, 64
1, 1353099, Note_on_c, 0, 85, 61
1, 1353106, Note_on_c, 0, 73, 51
1, 1353111, Control_c, 0, 67, 79
1, 1353126, Control_c, 0, 64, 41
1, 1353126, Control_c, 0, 67, 93
1, 1353141, Control_c, 0, 64, 56
1, 1353141, Control_c, 0, 67, 106
1, 1353155, Control_c, 0, 64, 65
1, 1353155, Control_c, 0, 67, 118
1, 1353170, Control_c, 0, 64, 74
1, 1353170, Control_c, 0, 67, 124
1, 1353174, Note_off_c, 0, 45, 34
1, 1353185, Control_c, 0, 64, 81
1, 1353185, Control_c, 0, 67, 126
1, 1353200, Control_c, 0, 64, 85
1, 1353208, Note_off_c, 0, 49, 50
1, 1353215, Control_c, 0, 64, 89
1, 1353229, Control_c, 0, 64, 93
1, 1353244, Control_c, 0, 64, 99
1, 1353246, Note_on_c, 0, 57, 38
1, 1353257, Control_c, 0, 64, 106
1, 1353272, Control_c, 0, 64, 115
1, 1353286, Note_off_c, 0, 57, 47
1, 1353287, Control_c, 0, 64, 118
1, 1353324, Control_c, 0, 64, 111
1, 1353339, Control_c, 0, 64, 92
1, 1353353, Control_c, 0, 64, 74
1, 1353368, Control_c, 0, 64, 59
1, 1353368, Control_c, 0, 67, 124
1, 1353383, Control_c, 0, 64, 51
1, 1353385, Note_on_c, 0, 47, 36
1, 1353397, Control_c, 0, 64, 56
1, 1353397, Control_c, 0, 67, 121
1, 1353412, Control_c, 0, 64, 62
1, 1353415, Note_on_c, 0, 50, 18
1, 1353427, Control_c, 0, 64, 67
1, 1353427, Control_c, 0, 67, 119
1, 1353442, Control_c, 0, 64, 75
1, 1353445, Note_off_c, 0, 47, 45
1, 1353451, Note_off_c, 0, 85, 63
1, 1353457, Control_c, 0, 64, 84
1, 1353457, Control_c, 0, 67, 116
1, 1353472, Control_c, 0, 64, 92
1, 1353487, Control_c, 0, 64, 96
1, 1353487, Control_c, 0, 67, 114
1, 1353490, Note_off_c, 0, 50, 39
1, 1353494, Note_off_c, 0, 73, 51
1, 1353502, Control_c, 0, 64, 100
1, 1353516, Control_c, 0, 64, 102
1, 1353531, Control_c, 0, 67, 112
1, 1353532, Note_on_c, 0, 49, 41
1, 1353550, Note_on_c, 0, 52, 19
1, 1353561, Control_c, 0, 64, 104
1, 1353564, Note_off_c, 0, 49, 53
1, 1353591, Note_off_c, 0, 52, 52
1, 1353591, Control_c, 0, 64, 106
1, 1353665, Control_c, 0, 64, 95
1, 1353680, Control_c, 0, 64, 76
1, 1353695, Control_c, 0, 64, 62
1, 1353710, Control_c, 0, 64, 41
1, 1353713, Note_on_c, 0, 83, 59
1, 1353725, Control_c, 0, 64, 34
1, 1353728, Note_on_c, 0, 54, 30
1, 1353728, Note_on_c, 0, 71, 39
1, 1353733, Note_on_c, 0, 50, 24
1, 1353740, Control_c, 0, 64, 43
1, 1353755, Control_c, 0, 64, 55
1, 1353755, Control_c, 0, 67, 109
1, 1353770, Control_c, 0, 64, 64
1, 1353770, Control_c, 0, 67, 107
1, 1353782, Note_off_c, 0, 50, 49
1, 1353784, Control_c, 0, 64, 72
1, 1353784, Control_c, 0, 67, 99
1, 1353797, Note_off_c, 0, 54, 60
1, 1353799, Control_c, 0, 64, 80
1, 1353799, Control_c, 0, 67, 88
1, 1353814, Control_c, 0, 64, 86
1, 1353814, Control_c, 0, 67, 77
1, 1353824, Note_off_c, 0, 83, 55
1, 1353828, Control_c, 0, 64, 89
1, 1353828, Control_c, 0, 67, 67
1, 1353843, Control_c, 0, 64, 90
1, 1353843, Control_c, 0, 67, 59
1, 1353858, Control_c, 0, 64, 91
1, 1353858, Control_c, 0, 67, 55
1, 1353873, Control_c, 0, 64, 93
1, 1353873, Control_c, 0, 67, 54
1, 1353876, Note_on_c, 0, 59, 31
1, 1353883, Note_off_c, 0, 71, 32
1, 1353888, Control_c, 0, 64, 96
1, 1353902, Control_c, 0, 64, 100
1, 1353917, Control_c, 0, 64, 104
1, 1353944, Note_off_c, 0, 59, 41
1, 1353976, Control_c, 0, 64, 98
1, 1353991, Control_c, 0, 64, 82
1, 1354006, Control_c, 0, 64, 68
1, 1354008, Note_on_c, 0, 57, 34
1, 1354009, Note_on_c, 0, 51, 34
1, 1354020, Control_c, 0, 64, 56
1, 1354025, Note_on_c, 0, 83, 68
1, 1354035, Control_c, 0, 64, 49
1, 1354035, Control_c, 0, 67, 54
1, 1354038, Note_on_c, 0, 71, 50
1, 1354058, Control_c, 0, 64, 55
1, 1354058, Control_c, 0, 67, 55
1, 1354073, Control_c, 0, 64, 64
1, 1354082, Note_off_c, 0, 51, 57
1, 1354088, Control_c, 0, 64, 72
1, 1354088, Control_c, 0, 67, 55
1, 1354100, Note_off_c, 0, 57, 59
1, 1354102, Control_c, 0, 64, 84
1, 1354102, Control_c, 0, 67, 56
1, 1354108, Note_off_c, 0, 71, 62
1, 1354117, Control_c, 0, 64, 96
1, 1354122, Note_off_c, 0, 83, 58
1, 1354132, Control_c, 0, 64, 104
1, 1354132, Control_c, 0, 67, 56
1, 1354147, Control_c, 0, 64, 109
1, 1354162, Note_on_c, 0, 59, 38
1, 1354162, Control_c, 0, 64, 115
1, 1354162, Control_c, 0, 67, 57
1, 1354176, Control_c, 0, 64, 127
1, 1354250, Control_c, 0, 67, 57
1, 1354265, Control_c, 0, 67, 58
1, 1354280, Control_c, 0, 64, 113
1, 1354280, Control_c, 0, 67, 59
1, 1354294, Control_c, 0, 64, 85
1, 1354294, Control_c, 0, 67, 61
1, 1354297, Note_off_c, 0, 59, 36
1, 1354309, Control_c, 0, 64, 67
1, 1354309, Control_c, 0, 67, 63
1, 1354316, Note_on_c, 0, 52, 39
1, 1354324, Control_c, 0, 64, 57
1, 1354324, Control_c, 0, 67, 64
1, 1354338, Note_on_c, 0, 57, 26
1, 1354339, Control_c, 0, 64, 55
1, 1354339, Control_c, 0, 67, 66
1, 1354354, Control_c, 0, 64, 59
1, 1354354, Control_c, 0, 67, 67
1, 1354364, Note_on_c, 0, 83, 62
1, 1354369, Control_c, 0, 64, 65
1, 1354369, Control_c, 0, 67, 69
1, 1354372, Note_on_c, 0, 71, 47
1, 1354379, Note_off_c, 0, 52, 55
1, 1354385, Control_c, 0, 64, 73
1, 1354385, Control_c, 0, 67, 73
1, 1354395, Note_off_c, 0, 71, 60
1, 1354399, Control_c, 0, 64, 84
1, 1354399, Control_c, 0, 67, 82
1, 1354414, Control_c, 0, 64, 94
1, 1354414, Control_c, 0, 67, 90
1, 1354421, Note_off_c, 0, 83, 63
1, 1354428, Note_off_c, 0, 57, 38
1, 1354429, Control_c, 0, 64, 101
1, 1354429, Control_c, 0, 67, 96
1, 1354443, Control_c, 0, 64, 106
1, 1354443, Control_c, 0, 67, 100
1, 1354458, Control_c, 0, 64, 112
1, 1354458, Control_c, 0, 67, 103
1, 1354473, Control_c, 0, 64, 127
1, 1354473, Control_c, 0, 67, 105
1, 1354484, Note_on_c, 0, 59, 47
1, 1354559, Note_off_c, 0, 59, 43
1, 1354593, Control_c, 0, 64, 85
1, 1354607, Control_c, 0, 64, 66
1, 1354622, Control_c, 0, 64, 49
1, 1354637, Control_c, 0, 64, 42
1, 1354640, Note_on_c, 0, 52, 35
1, 1354651, Note_on_c, 0, 74, 71
1, 1354651, Note_on_c, 0, 86, 65
1, 1354651, Control_c, 0, 64, 53
1, 1354655, Note_on_c, 0, 56, 40
1, 1354666, Control_c, 0, 64, 62
1, 1354675, Note_off_c, 0, 74, 59
1, 1354676, Note_off_c, 0, 52, 55
1, 1354676, Note_off_c, 0, 86, 66
1, 1354681, Control_c, 0, 64, 70
1, 1354696, Control_c, 0, 64, 80
1, 1354698, Note_off_c, 0, 56, 61
1, 1354711, Control_c, 0, 64, 90
1, 1354725, Control_c, 0, 64, 95
1, 1354740, Control_c, 0, 64, 98
1, 1354756, Control_c, 0, 64, 100
1, 1354771, Control_c, 0, 64, 104
1, 1354780, Note_on_c, 0, 62, 43
1, 1354786, Control_c, 0, 64, 111
1, 1354807, Control_c, 0, 64, 127
1, 1354872, Note_off_c, 0, 62, 54
1, 1354885, Note_on_c, 0, 85, 64
1, 1354890, Note_on_c, 0, 73, 59
1, 1354897, Control_c, 0, 64, 112
1, 1354902, Note_off_c, 0, 85, 67
1, 1354910, Note_off_c, 0, 73, 62
1, 1354911, Control_c, 0, 64, 87
1, 1354911, Control_c, 0, 67, 103
1, 1354926, Control_c, 0, 64, 68
1, 1354931, Note_on_c, 0, 54, 42
1, 1354941, Control_c, 0, 64, 48
1, 1354941, Control_c, 0, 67, 101
1, 1354956, Control_c, 0, 64, 0
1, 1354962, Note_on_c, 0, 85, 76
1, 1354964, Note_on_c, 0, 57, 23
1, 1354971, Control_c, 0, 67, 97
1, 1354974, Note_on_c, 0, 73, 58
1, 1354986, Control_c, 0, 67, 92
1, 1355000, Control_c, 0, 64, 37
1, 1355000, Control_c, 0, 67, 86
1, 1355015, Control_c, 0, 64, 54
1, 1355015, Control_c, 0, 67, 72
1, 1355030, Control_c, 0, 64, 65
1, 1355030, Control_c, 0, 67, 49
1, 1355031, Note_off_c, 0, 54, 51
1, 1355045, Control_c, 0, 64, 71
1, 1355045, Control_c, 0, 67, 24
1, 1355059, Control_c, 0, 64, 77
1, 1355059, Control_c, 0, 67, 0
1, 1355074, Control_c, 0, 64, 80
1, 1355089, Control_c, 0, 64, 83
1, 1355098, Note_on_c, 0, 61, 52
1, 1355104, Control_c, 0, 64, 86
1, 1355114, Note_off_c, 0, 73, 54
1, 1355119, Control_c, 0, 64, 90
1, 1355133, Control_c, 0, 64, 93
1, 1355163, Control_c, 0, 64, 88
1, 1355179, Control_c, 0, 64, 76
1, 1355194, Control_c, 0, 64, 64
1, 1355209, Control_c, 0, 64, 49
1, 1355218, Note_off_c, 0, 57, 42
1, 1355223, Control_c, 0, 64, 44
1, 1355224, Note_off_c, 0, 61, 35
1, 1355238, Control_c, 0, 64, 50
1, 1355245, Note_on_c, 0, 59, 50
1, 1355253, Control_c, 0, 64, 58
1, 1355261, Note_on_c, 0, 56, 36
1, 1355267, Control_c, 0, 64, 65
1, 1355282, Control_c, 0, 64, 72
1, 1355297, Control_c, 0, 64, 82
1, 1355312, Control_c, 0, 64, 95
1, 1355320, Note_off_c, 0, 56, 55
1, 1355327, Control_c, 0, 64, 107
1, 1355328, Note_off_c, 0, 59, 40
1, 1355341, Control_c, 0, 64, 127
1, 1355391, Note_on_c, 0, 57, 39
1, 1355394, Note_on_c, 0, 54, 43
1, 1355520, Control_c, 0, 64, 96
1, 1355534, Control_c, 0, 64, 72
1, 1355536, Note_off_c, 0, 57, 57
1, 1355555, Note_off_c, 0, 85, 49
1, 1355556, Control_c, 0, 64, 56
1, 1355571, Control_c, 0, 64, 0
1, 1355573, Note_off_c, 0, 54, 37
1, 1355586, Note_on_c, 0, 88, 69
1, 1355598, Note_on_c, 0, 76, 51
1, 1355600, Control_c, 0, 67, 20
1, 1355603, Note_on_c, 0, 56, 31
1, 1355615, Control_c, 0, 64, 41
1, 1355615, Control_c, 0, 67, 23
1, 1355622, Note_on_c, 0, 59, 21
1, 1355630, Control_c, 0, 64, 52
1, 1355630, Control_c, 0, 67, 28
1, 1355645, Control_c, 0, 64, 61
1, 1355645, Control_c, 0, 67, 35
1, 1355660, Control_c, 0, 64, 71
1, 1355660, Control_c, 0, 67, 48
1, 1355675, Control_c, 0, 64, 84
1, 1355675, Control_c, 0, 67, 64
1, 1355679, Note_off_c, 0, 56, 55
1, 1355689, Note_off_c, 0, 59, 60
1, 1355689, Control_c, 0, 64, 106
1, 1355689, Control_c, 0, 67, 79
1, 1355704, Control_c, 0, 64, 127
1, 1355704, Control_c, 0, 67, 95
1, 1355715, Note_off_c, 0, 88, 61
1, 1355719, Control_c, 0, 67, 108
1, 1355734, Control_c, 0, 67, 120
1, 1355749, Control_c, 0, 67, 127
1, 1355752, Note_on_c, 0, 64, 47
1, 1355782, Note_off_c, 0, 76, 42
1, 1355816, Note_off_c, 0, 64, 44
1, 1355892, Note_on_c, 0, 57, 40
1, 1355897, Note_on_c, 0, 61, 37
1, 1355948, Note_off_c, 0, 57, 59
1, 1355970, Note_off_c, 0, 61, 55
1, 1356020, Note_on_c, 0, 86, 67
1, 1356021, Note_on_c, 0, 64, 53
1, 1356043, Note_off_c, 0, 64, 60
1, 1356080, Note_off_c, 0, 86, 63
1, 1356085, Note_on_c, 0, 85, 65
1, 1356108, Note_off_c, 0, 85, 70
1, 1356135, Control_c, 0, 64, 99
1, 1356150, Control_c, 0, 64, 72
1, 1356164, Control_c, 0, 64, 42
1, 1356166, Note_on_c, 0, 50, 38
1, 1356179, Note_on_c, 0, 83, 75
1, 1356179, Control_c, 0, 64, 0
1, 1356196, Note_on_c, 0, 57, 26
1, 1356196, Note_on_c, 0, 71, 54
1, 1356209, Control_c, 0, 64, 41
1, 1356223, Control_c, 0, 64, 60
1, 1356232, Note_off_c, 0, 50, 58
1, 1356238, Control_c, 0, 64, 69
1, 1356253, Control_c, 0, 64, 77
1, 1356268, Control_c, 0, 64, 88
1, 1356269, Note_off_c, 0, 57, 53
1, 1356283, Note_off_c, 0, 71, 30
1, 1356283, Control_c, 0, 64, 95
1, 1356287, Note_off_c, 0, 83, 59
1, 1356305, Control_c, 0, 64, 103
1, 1356320, Control_c, 0, 64, 117
1, 1356335, Control_c, 0, 64, 127
1, 1356348, Note_on_c, 0, 59, 42
1, 1356407, Note_off_c, 0, 59, 51
1, 1356468, Control_c, 0, 64, 107
1, 1356471, Note_on_c, 0, 51, 41
1, 1356483, Control_c, 0, 64, 78
1, 1356491, Note_on_c, 0, 57, 34
1, 1356497, Control_c, 0, 64, 61
1, 1356503, Note_on_c, 0, 83, 71
1, 1356512, Control_c, 0, 64, 46
1, 1356518, Note_on_c, 0, 71, 51
1, 1356527, Control_c, 0, 64, 50
1, 1356542, Control_c, 0, 64, 59
1, 1356548, Note_off_c, 0, 51, 55
1, 1356557, Control_c, 0, 64, 67
1, 1356559, Note_off_c, 0, 57, 53
1, 1356562, Note_off_c, 0, 71, 61
1, 1356572, Control_c, 0, 64, 77
1, 1356587, Control_c, 0, 64, 91
1, 1356587, Note_off_c, 0, 83, 62
1, 1356602, Control_c, 0, 64, 109
1, 1356617, Control_c, 0, 64, 127
1, 1356633, Note_on_c, 0, 59, 41
1, 1356739, Note_off_c, 0, 59, 51
1, 1356764, Control_c, 0, 64, 82
1, 1356780, Control_c, 0, 64, 64
1, 1356795, Control_c, 0, 64, 42
1, 1356799, Note_on_c, 0, 52, 14
1, 1356807, Note_on_c, 0, 57, 29
1, 1356810, Control_c, 0, 64, 36
1, 1356824, Note_on_c, 0, 83, 62
1, 1356825, Control_c, 0, 64, 50
1, 1356835, Note_on_c, 0, 71, 36
1, 1356840, Control_c, 0, 64, 60
1, 1356854, Control_c, 0, 64, 69
1, 1356855, Note_off_c, 0, 52, 44
1, 1356863, Note_off_c, 0, 57, 60
1, 1356864, Note_off_c, 0, 71, 48
1, 1356869, Control_c, 0, 64, 79
1, 1356878, Note_off_c, 0, 83, 62
1, 1356884, Control_c, 0, 64, 92
1, 1356899, Control_c, 0, 64, 107
1, 1356914, Control_c, 0, 64, 127
1, 1356935, Note_on_c, 0, 59, 42
1, 1357013, Note_off_c, 0, 59, 46
1, 1357068, Control_c, 0, 64, 83
1, 1357083, Control_c, 0, 64, 65
1, 1357098, Control_c, 0, 64, 50
1, 1357102, Note_on_c, 0, 52, 33
1, 1357107, Note_on_c, 0, 86, 62
1, 1357109, Note_on_c, 0, 74, 54
1, 1357113, Control_c, 0, 64, 52
1, 1357119, Note_on_c, 0, 56, 32
1, 1357127, Control_c, 0, 64, 59
1, 1357135, Note_off_c, 0, 74, 56
1, 1357138, Note_off_c, 0, 52, 54
1, 1357142, Control_c, 0, 64, 64
1, 1357147, Note_off_c, 0, 86, 54
1, 1357157, Control_c, 0, 64, 74
1, 1357159, Note_off_c, 0, 56, 56
1, 1357171, Control_c, 0, 64, 85
1, 1357186, Control_c, 0, 64, 97
1, 1357201, Control_c, 0, 64, 103
1, 1357216, Control_c, 0, 64, 107
1, 1357227, Note_on_c, 0, 62, 48
1, 1357231, Control_c, 0, 64, 110
1, 1357246, Control_c, 0, 64, 127
1, 1357304, Note_on_c, 0, 85, 60
1, 1357322, Note_off_c, 0, 62, 54
1, 1357323, Note_off_c, 0, 85, 67
1, 1357371, Poly_aftertouch_c, 0, 73, 127
1, 1357394, Poly_aftertouch_c, 0, 73, 0
1, 1357394, Control_c, 0, 64, 96
1, 1357400, Note_on_c, 0, 57, 45
1, 1357409, Control_c, 0, 64, 77
1, 1357410, Note_on_c, 0, 81, 72
1, 1357424, Control_c, 0, 64, 66
1, 1357427, Note_on_c, 0, 69, 48
1, 1357433, Note_off_c, 0, 57, 55
1, 1357439, Control_c, 0, 64, 56
1, 1357453, Control_c, 0, 64, 49
1, 1357468, Control_c, 0, 64, 48
1, 1357469, Note_off_c, 0, 81, 0
1, 1357469, Note_on_c, 0, 81, 21
1, 1357481, Note_off_c, 0, 69, 0
1, 1357481, Note_on_c, 0, 69, 16
1, 1357557, Control_c, 0, 64, 49
1, 1357567, Note_on_c, 0, 66, 61
1, 1357573, Control_c, 0, 64, 49
1, 1357588, Control_c, 0, 64, 50
1, 1357615, Note_off_c, 0, 66, 57
1, 1357698, Note_on_c, 0, 64, 59
1, 1357706, Control_c, 0, 64, 49
1, 1357743, Note_off_c, 0, 64, 58
1, 1357851, Note_on_c, 0, 62, 49
1, 1357889, Note_off_c, 0, 62, 60
1, 1357937, Control_c, 0, 64, 49
1, 1358015, Note_on_c, 0, 61, 46
1, 1358021, Note_on_c, 0, 57, 38
1, 1358056, Note_off_c, 0, 57, 57
1, 1358057, Note_off_c, 0, 61, 62
1, 1358163, Note_on_c, 0, 59, 51
1, 1358201, Note_off_c, 0, 59, 63
1, 1358202, Control_c, 0, 64, 48
1, 1358217, Control_c, 0, 64, 48
1, 1358232, Control_c, 0, 64, 47
1, 1358247, Control_c, 0, 64, 45
1, 1358262, Control_c, 0, 64, 45
1, 1358307, Control_c, 0, 64, 45
1, 1358317, Note_on_c, 0, 61, 47
1, 1358322, Control_c, 0, 64, 48
1, 1358337, Control_c, 0, 64, 53
1, 1358351, Control_c, 0, 64, 59
1, 1358357, Note_off_c, 0, 61, 62
1, 1358363, Note_off_c, 0, 81, 50
1, 1358366, Control_c, 0, 64, 61
1, 1358381, Control_c, 0, 64, 61
1, 1358396, Control_c, 0, 64, 61
1, 1358411, Control_c, 0, 64, 60
1, 1358426, Control_c, 0, 64, 59
1, 1358441, Control_c, 0, 64, 58
1, 1358441, Note_on_c, 0, 62, 52
1, 1358456, Control_c, 0, 64, 56
1, 1358456, Note_off_c, 0, 69, 46
1, 1358468, Note_off_c, 0, 62, 61
1, 1358471, Control_c, 0, 64, 54
1, 1358486, Control_c, 0, 64, 52
1, 1358500, Control_c, 0, 64, 51
1, 1358515, Control_c, 0, 64, 50
1, 1358530, Control_c, 0, 64, 48
1, 1358552, Control_c, 0, 64, 46
1, 1358567, Control_c, 0, 64, 44
1, 1358581, Control_c, 0, 64, 43
1, 1358596, Control_c, 0, 64, 40
1, 1358611, Control_c, 0, 64, 34
1, 1358626, Control_c, 0, 64, 0
1, 1358636, Note_on_c, 0, 64, 37
1, 1358645, Note_on_c, 0, 69, 52
1, 1358648, Note_on_c, 0, 61, 28
1, 1358687, Note_off_c, 0, 69, 61
1, 1358803, Note_on_c, 0, 71, 31
1, 1358840, Note_off_c, 0, 71, 50
1, 1358848, Control_c, 0, 64, 41
1, 1358863, Control_c, 0, 64, 56
1, 1358878, Control_c, 0, 64, 64
1, 1358892, Control_c, 0, 64, 68
1, 1358894, Note_off_c, 0, 64, 54
1, 1358907, Control_c, 0, 64, 71
1, 1358922, Control_c, 0, 64, 75
1, 1358936, Control_c, 0, 64, 79
1, 1358948, Note_on_c, 0, 73, 48
1, 1358951, Control_c, 0, 64, 83
1, 1358966, Control_c, 0, 64, 87
1, 1358981, Control_c, 0, 64, 90
1, 1358996, Control_c, 0, 64, 92
1, 1359010, Note_off_c, 0, 73, 48
1, 1359010, Control_c, 0, 64, 93
1, 1359025, Control_c, 0, 64, 94
1, 1359053, Note_off_c, 0, 61, 54
1, 1359070, Control_c, 0, 64, 94
1, 1359109, Note_on_c, 0, 64, 38
1, 1359122, Note_on_c, 0, 74, 55
1, 1359144, Control_c, 0, 64, 94
1, 1359189, Control_c, 0, 64, 93
1, 1359204, Control_c, 0, 64, 92
1, 1359219, Control_c, 0, 64, 91
1, 1359234, Control_c, 0, 64, 89
1, 1359249, Control_c, 0, 64, 87
1, 1359258, Note_off_c, 0, 64, 33
1, 1359264, Control_c, 0, 64, 83
1, 1359278, Control_c, 0, 64, 78
1, 1359282, Note_off_c, 0, 74, 30
1, 1359284, Note_on_c, 0, 58, 38
1, 1359301, Control_c, 0, 64, 71
1, 1359308, Note_on_c, 0, 66, 39
1, 1359316, Control_c, 0, 64, 65
1, 1359323, Note_on_c, 0, 76, 51
1, 1359330, Control_c, 0, 64, 56
1, 1359345, Control_c, 0, 64, 42
1, 1359360, Control_c, 0, 64, 0
1, 1359389, Control_c, 0, 64, 33
1, 1359404, Control_c, 0, 64, 37
1, 1359415, Note_off_c, 0, 76, 57
1, 1359416, Note_on_c, 0, 75, 60
1, 1359419, Control_c, 0, 64, 45
1, 1359434, Control_c, 0, 64, 54
1, 1359448, Control_c, 0, 64, 63
1, 1359463, Control_c, 0, 64, 69
1, 1359478, Control_c, 0, 64, 75
1, 1359481, Note_off_c, 0, 75, 61
1, 1359493, Control_c, 0, 64, 80
1, 1359499, Note_on_c, 0, 76, 69
1, 1359508, Control_c, 0, 64, 84
1, 1359523, Control_c, 0, 64, 87
1, 1359538, Control_c, 0, 64, 90
1, 1359538, Note_off_c, 0, 58, 62
1, 1359553, Control_c, 0, 64, 93
1, 1359567, Control_c, 0, 64, 95
1, 1359580, Note_on_c, 0, 77, 75
1, 1359582, Control_c, 0, 64, 95
1, 1359597, Note_off_c, 0, 76, 54
1, 1359597, Control_c, 0, 64, 96
1, 1359666, Note_on_c, 0, 78, 77
1, 1359705, Note_off_c, 0, 77, 58
1, 1359758, Note_on_c, 0, 79, 67
1, 1359774, Control_c, 0, 64, 95
1, 1359777, Note_off_c, 0, 78, 59
1, 1359779, Note_off_c, 0, 66, 55
1, 1359789, Control_c, 0, 64, 93
1, 1359804, Control_c, 0, 64, 90
1, 1359819, Control_c, 0, 64, 86
1, 1359821, Note_on_c, 0, 59, 35
1, 1359833, Note_on_c, 0, 64, 38
1, 1359834, Control_c, 0, 64, 83
1, 1359848, Control_c, 0, 64, 80
1, 1359863, Control_c, 0, 64, 78
1, 1359878, Control_c, 0, 64, 75
1, 1359884, Note_off_c, 0, 79, 54
1, 1359885, Note_on_c, 0, 78, 64
1, 1359893, Control_c, 0, 64, 71
1, 1359907, Control_c, 0, 64, 67
1, 1359922, Control_c, 0, 64, 63
1, 1359937, Control_c, 0, 64, 59
1, 1359943, Note_off_c, 0, 78, 55
1, 1359952, Control_c, 0, 64, 57
1, 1359970, Note_on_c, 0, 77, 51
1, 1359998, Control_c, 0, 64, 57
1, 1360028, Control_c, 0, 64, 56
1, 1360047, Note_off_c, 0, 77, 61
1, 1360065, Control_c, 0, 64, 56
1, 1360071, Note_on_c, 0, 78, 59
1, 1360110, Control_c, 0, 64, 55
1, 1360122, Note_off_c, 0, 78, 56
1, 1360151, Note_on_c, 0, 63, 43
1, 1360151, Note_off_c, 0, 64, 40
1, 1360195, Note_on_c, 0, 79, 12
1, 1360198, Control_c, 0, 64, 55
1, 1360241, Note_off_c, 0, 59, 38
1, 1360245, Note_off_c, 0, 79, 55
1, 1360258, Control_c, 0, 64, 54
1, 1360276, Note_on_c, 0, 80, 48
1, 1360287, Control_c, 0, 64, 54
1, 1360289, Note_off_c, 0, 63, 55
1, 1360302, Control_c, 0, 64, 53
1, 1360317, Control_c, 0, 64, 53
1, 1360332, Control_c, 0, 64, 52
1, 1360353, Note_off_c, 0, 80, 52
1, 1360361, Note_on_c, 0, 82, 53
1, 1360390, Control_c, 0, 64, 52
1, 1360420, Control_c, 0, 64, 51
1, 1360450, Control_c, 0, 64, 51
1, 1360463, Note_off_c, 0, 82, 56
1, 1360465, Control_c, 0, 64, 50
1, 1360489, Note_on_c, 0, 59, 39
1, 1360498, Note_on_c, 0, 83, 45
1, 1360539, Control_c, 0, 64, 51
1, 1360554, Control_c, 0, 64, 53
1, 1360569, Control_c, 0, 64, 55
1, 1360584, Control_c, 0, 64, 58
1, 1360598, Control_c, 0, 64, 61
1, 1360613, Control_c, 0, 64, 64
1, 1360628, Control_c, 0, 64, 69
1, 1360628, Control_c, 0, 67, 119
1, 1360643, Control_c, 0, 64, 78
1, 1360643, Control_c, 0, 67, 104
1, 1360658, Control_c, 0, 64, 87
1, 1360658, Control_c, 0, 67, 88
1, 1360672, Control_c, 0, 64, 96
1, 1360672, Control_c, 0, 67, 73
1, 1360687, Control_c, 0, 64, 105
1, 1360687, Control_c, 0, 67, 60
1, 1360702, Control_c, 0, 64, 115
1, 1360702, Control_c, 0, 67, 52
1, 1360716, Control_c, 0, 64, 127
1, 1360716, Control_c, 0, 67, 45
1, 1360731, Control_c, 0, 67, 39
1, 1360746, Control_c, 0, 67, 32
1, 1360762, Control_c, 0, 67, 25
1, 1360777, Control_c, 0, 67, 20
1, 1360799, Control_c, 0, 67, 0
1, 1360817, Note_off_c, 0, 83, 37
1, 1360971, Note_on_c, 0, 61, 57
1, 1361028, Note_off_c, 0, 59, 26
1, 1361086, Note_off_c, 0, 61, 61
1, 1361110, Control_c, 0, 64, 118
1, 1361121, Note_on_c, 0, 62, 69
1, 1361125, Control_c, 0, 64, 94
1, 1361139, Control_c, 0, 64, 79
1, 1361154, Control_c, 0, 64, 65
1, 1361169, Control_c, 0, 64, 52
1, 1361184, Control_c, 0, 64, 0
1, 1361266, Note_on_c, 0, 54, 58
1, 1361281, Note_on_c, 0, 74, 64
1, 1361309, Note_off_c, 0, 54, 59
1, 1361319, Note_off_c, 0, 74, 60
1, 1361441, Note_on_c, 0, 56, 38
1, 1361441, Note_on_c, 0, 76, 43
1, 1361451, Control_c, 0, 64, 39
1, 1361466, Control_c, 0, 64, 51
1, 1361473, Note_off_c, 0, 56, 55
1, 1361477, Note_off_c, 0, 76, 53
1, 1361481, Control_c, 0, 64, 60
1, 1361494, Control_c, 0, 64, 64
1, 1361509, Control_c, 0, 64, 67
1, 1361524, Control_c, 0, 64, 72
1, 1361546, Control_c, 0, 64, 78
1, 1361552, Note_off_c, 0, 62, 50
1, 1361562, Control_c, 0, 64, 82
1, 1361572, Note_on_c, 0, 78, 55
1, 1361576, Note_on_c, 0, 57, 48
1, 1361577, Control_c, 0, 64, 86
1, 1361592, Control_c, 0, 64, 89
1, 1361606, Note_off_c, 0, 78, 60
1, 1361607, Control_c, 0, 64, 91
1, 1361621, Control_c, 0, 64, 92
1, 1361635, Note_off_c, 0, 57, 52
1, 1361636, Control_c, 0, 64, 92
1, 1361740, Control_c, 0, 64, 92
1, 1361743, Note_on_c, 0, 64, 54
1, 1361744, Note_on_c, 0, 56, 47
1, 1361755, Control_c, 0, 64, 87
1, 1361763, Note_on_c, 0, 76, 59
1, 1361769, Control_c, 0, 64, 76
1, 1361784, Control_c, 0, 64, 65
1, 1361799, Control_c, 0, 64, 49
1, 1361814, Control_c, 0, 64, 0
1, 1361843, Control_c, 0, 64, 35
1, 1361858, Control_c, 0, 64, 48
1, 1361861, Note_on_c, 0, 80, 61
1, 1361873, Control_c, 0, 64, 58
1, 1361888, Control_c, 0, 64, 65
1, 1361903, Control_c, 0, 64, 72
1, 1361917, Note_off_c, 0, 76, 50
1, 1361917, Control_c, 0, 64, 79
1, 1361932, Control_c, 0, 64, 85
1, 1361947, Control_c, 0, 64, 90
1, 1361955, Note_on_c, 0, 81, 73
1, 1361961, Control_c, 0, 64, 94
1, 1361976, Control_c, 0, 64, 99
1, 1361991, Control_c, 0, 64, 104
1, 1362004, Note_off_c, 0, 56, 37
1, 1362006, Control_c, 0, 64, 107
1, 1362017, Note_off_c, 0, 80, 56
1, 1362021, Control_c, 0, 64, 110
1, 1362036, Control_c, 0, 64, 113
1, 1362038, Note_on_c, 0, 83, 73
1, 1362051, Control_c, 0, 64, 118
1, 1362060, Note_off_c, 0, 81, 58
1, 1362066, Control_c, 0, 64, 122
1, 1362081, Control_c, 0, 64, 125
1, 1362095, Control_c, 0, 64, 127
1, 1362121, Note_on_c, 0, 80, 73
1, 1362140, Note_off_c, 0, 83, 55
1, 1362187, Note_off_c, 0, 80, 61
1, 1362219, Note_on_c, 0, 74, 71
1, 1362322, Note_off_c, 0, 74, 55
1, 1362329, Note_on_c, 0, 73, 62
1, 1362333, Note_on_c, 0, 57, 42
1, 1362355, Control_c, 0, 64, 116
1, 1362370, Control_c, 0, 64, 108
1, 1362385, Control_c, 0, 64, 100
1, 1362395, Note_off_c, 0, 64, 27
1, 1362400, Control_c, 0, 64, 93
1, 1362414, Control_c, 0, 64, 84
1, 1362429, Control_c, 0, 64, 76
1, 1362432, Note_off_c, 0, 73, 59
1, 1362443, Note_on_c, 0, 71, 57
1, 1362444, Control_c, 0, 64, 68
1, 1362459, Control_c, 0, 64, 61
1, 1362474, Control_c, 0, 64, 53
1, 1362489, Control_c, 0, 64, 48
1, 1362504, Control_c, 0, 64, 47
1, 1362531, Note_off_c, 0, 71, 54
1, 1362534, Control_c, 0, 64, 46
1, 1362535, Note_on_c, 0, 73, 66
1, 1362548, Control_c, 0, 64, 44
1, 1362563, Control_c, 0, 64, 42
1, 1362578, Control_c, 0, 64, 40
1, 1362592, Control_c, 0, 64, 37
1, 1362607, Control_c, 0, 64, 34
1, 1362622, Control_c, 0, 64, 33
1, 1362623, Note_on_c, 0, 74, 72
1, 1362626, Note_off_c, 0, 73, 61
1, 1362637, Control_c, 0, 64, 0
1, 1362717, Note_on_c, 0, 73, 65
1, 1362731, Note_off_c, 0, 74, 56
1, 1362760, Note_on_c, 0, 59, 39
1, 1362770, Note_off_c, 0, 73, 60
1, 1362808, Note_on_c, 0, 74, 71
1, 1362897, Note_off_c, 0, 59, 61
1, 1362906, Note_off_c, 0, 74, 59
1, 1362922, Note_on_c, 0, 76, 61
1, 1362927, Note_on_c, 0, 61, 46
1, 1363005, Note_on_c, 0, 78, 67
1, 1363008, Control_c, 0, 64, 51
1, 1363023, Control_c, 0, 64, 63
1, 1363043, Note_off_c, 0, 76, 39
1, 1363045, Control_c, 0, 64, 69
1, 1363060, Control_c, 0, 64, 74
1, 1363074, Control_c, 0, 64, 79
1, 1363089, Control_c, 0, 64, 85
1, 1363104, Control_c, 0, 64, 90
1, 1363109, Note_on_c, 0, 80, 64
1, 1363118, Control_c, 0, 64, 96
1, 1363133, Control_c, 0, 64, 102
1, 1363148, Control_c, 0, 64, 109
1, 1363164, Control_c, 0, 64, 113
1, 1363165, Note_off_c, 0, 78, 57
1, 1363166, Note_off_c, 0, 61, 60
1, 1363176, Note_off_c, 0, 57, 36
1, 1363179, Control_c, 0, 64, 117
1, 1363195, Note_on_c, 0, 81, 75
1, 1363196, Note_off_c, 0, 80, 62
1, 1363274, Note_off_c, 0, 81, 52
1, 1363282, Note_on_c, 0, 76, 67
1, 1363361, Note_on_c, 0, 73, 56
1, 1363362, Note_off_c, 0, 76, 56
1, 1363386, Control_c, 0, 64, 114
1, 1363401, Control_c, 0, 64, 112
1, 1363416, Control_c, 0, 64, 108
1, 1363431, Control_c, 0, 64, 99
1, 1363437, Note_off_c, 0, 73, 51
1, 1363446, Control_c, 0, 64, 82
1, 1363461, Control_c, 0, 64, 68
1, 1363476, Control_c, 0, 64, 53
1, 1363490, Control_c, 0, 64, 0
1, 1363493, Note_on_c, 0, 78, 56
1, 1363493, Note_on_c, 0, 50, 49
1, 1363518, Note_on_c, 0, 59, 36
1, 1363520, Control_c, 0, 64, 37
1, 1363534, Control_c, 0, 64, 54
1, 1363549, Control_c, 0, 64, 63
1, 1363564, Control_c, 0, 64, 70
1, 1363569, Note_off_c, 0, 78, 57
1, 1363579, Control_c, 0, 64, 76
1, 1363594, Control_c, 0, 64, 83
1, 1363598, Note_on_c, 0, 71, 48
1, 1363608, Control_c, 0, 64, 89
1, 1363623, Control_c, 0, 64, 95
1, 1363638, Control_c, 0, 64, 105
1, 1363643, Note_off_c, 0, 59, 37
1, 1363653, Control_c, 0, 64, 127
1, 1363693, Note_on_c, 0, 78, 54
1, 1363751, Note_off_c, 0, 78, 49
1, 1363756, Control_c, 0, 64, 94
1, 1363771, Control_c, 0, 64, 75
1, 1363790, Note_off_c, 0, 71, 40
1, 1363794, Control_c, 0, 64, 64
1, 1363808, Control_c, 0, 64, 60
1, 1363809, Note_on_c, 0, 59, 60
1, 1363811, Note_on_c, 0, 81, 61
1, 1363823, Control_c, 0, 64, 64
1, 1363830, Note_off_c, 0, 50, 59
1, 1363838, Control_c, 0, 64, 72
1, 1363853, Control_c, 0, 64, 85
1, 1363867, Control_c, 0, 64, 113
1, 1363882, Control_c, 0, 64, 127
1, 1363907, Note_on_c, 0, 71, 58
1, 1363914, Note_off_c, 0, 81, 49
1, 1363928, Note_off_c, 0, 59, 55
1, 1364018, Note_on_c, 0, 81, 59
1, 1364020, Note_off_c, 0, 71, 36
1, 1364091, Control_c, 0, 64, 85
1, 1364098, Note_on_c, 0, 59, 77
1, 1364102, Note_on_c, 0, 52, 63
1, 1364106, Control_c, 0, 64, 65
1, 1364118, Note_on_c, 0, 80, 58
1, 1364120, Control_c, 0, 64, 41
1, 1364121, Note_off_c, 0, 81, 51
1, 1364135, Control_c, 0, 64, 0
1, 1364150, Control_c, 0, 64, 44
1, 1364164, Control_c, 0, 64, 58
1, 1364179, Control_c, 0, 64, 67
1, 1364182, Note_off_c, 0, 80, 57
1, 1364194, Control_c, 0, 64, 78
1, 1364206, Note_on_c, 0, 71, 64
1, 1364209, Control_c, 0, 64, 93
1, 1364224, Control_c, 0, 64, 113
1, 1364239, Control_c, 0, 64, 127
1, 1364280, Note_off_c, 0, 71, 53
1, 1364296, Note_on_c, 0, 80, 74
1, 1364371, Note_off_c, 0, 80, 59
1, 1364387, Control_c, 0, 64, 86
1, 1364390, Note_on_c, 0, 62, 90
1, 1364400, Note_off_c, 0, 59, 55
1, 1364402, Control_c, 0, 64, 66
1, 1364403, Note_on_c, 0, 83, 71
1, 1364417, Control_c, 0, 64, 47
1, 1364431, Control_c, 0, 64, 48
1, 1364446, Control_c, 0, 64, 59
1, 1364461, Control_c, 0, 64, 66
1, 1364476, Control_c, 0, 64, 77
1, 1364490, Control_c, 0, 64, 96
1, 1364492, Note_on_c, 0, 80, 72
1, 1364505, Control_c, 0, 64, 127
1, 1364520, Note_off_c, 0, 83, 55
1, 1364600, Note_off_c, 0, 62, 39
1, 1364605, Note_off_c, 0, 80, 61
1, 1364613, Note_on_c, 0, 83, 73
1, 1364616, Note_on_c, 0, 61, 65
1, 1364640, Note_off_c, 0, 61, 63
1, 1364709, Note_on_c, 0, 61, 75
1, 1364720, Control_c, 0, 64, 98
1, 1364723, Note_on_c, 0, 81, 70
1, 1364723, Note_off_c, 0, 83, 59
1, 1364735, Control_c, 0, 64, 69
1, 1364746, Note_off_c, 0, 52, 38
1, 1364750, Control_c, 0, 64, 51
1, 1364766, Control_c, 0, 64, 0
1, 1364790, Note_on_c, 0, 57, 45
1, 1364795, Control_c, 0, 64, 34
1, 1364810, Control_c, 0, 64, 49
1, 1364811, Note_on_c, 0, 83, 72
1, 1364825, Control_c, 0, 64, 60
1, 1364840, Control_c, 0, 64, 67
1, 1364853, Note_off_c, 0, 81, 56
1, 1364855, Control_c, 0, 64, 78
1, 1364869, Control_c, 0, 64, 95
1, 1364884, Control_c, 0, 64, 127
1, 1364903, Note_on_c, 0, 80, 78
1, 1364925, Note_off_c, 0, 83, 59
1, 1364960, Note_off_c, 0, 80, 63
1, 1364985, Note_on_c, 0, 81, 84
1, 1365074, Note_on_c, 0, 83, 87
1, 1365097, Note_off_c, 0, 81, 63
1, 1365146, Note_off_c, 0, 83, 48
1, 1365162, Note_on_c, 0, 84, 94
1, 1365254, Control_c, 0, 64, 101
1, 1365257, Note_on_c, 0, 64, 87
1, 1365264, Note_on_c, 0, 85, 82
1, 1365269, Control_c, 0, 64, 74
1, 1365273, Note_off_c, 0, 84, 61
1, 1365291, Control_c, 0, 64, 59
1, 1365296, Note_off_c, 0, 61, 61
1, 1365306, Control_c, 0, 64, 46
1, 1365321, Control_c, 0, 64, 51
1, 1365336, Control_c, 0, 64, 58
1, 1365345, Note_off_c, 0, 85, 64
1, 1365351, Control_c, 0, 64, 64
1, 1365357, Note_on_c, 0, 86, 86
1, 1365366, Control_c, 0, 64, 72
1, 1365380, Control_c, 0, 64, 92
1, 1365395, Control_c, 0, 64, 127
1, 1365431, Note_off_c, 0, 64, 62
1, 1365442, Note_on_c, 0, 88, 87
1, 1365454, Note_off_c, 0, 86, 60
1, 1365531, Note_on_c, 0, 90, 81
1, 1365598, Note_off_c, 0, 88, 62
1, 1365615, Note_on_c, 0, 62, 64
1, 1365631, Note_on_c, 0, 92, 70
1, 1365673, Note_off_c, 0, 62, 56
1, 1365676, Note_off_c, 0, 90, 58
1, 1365700, Note_on_c, 0, 93, 72
1, 1365708, Note_on_c, 0, 61, 65
1, 1365719, Note_off_c, 0, 92, 64
1, 1365723, Note_off_c, 0, 93, 70
1, 1365726, Note_off_c, 0, 57, 31
1, 1365737, Note_off_c, 0, 61, 63
1, 1365796, Control_c, 0, 64, 85
1, 1365810, Control_c, 0, 64, 63
1, 1365825, Control_c, 0, 64, 0
1, 1365837, Note_on_c, 0, 59, 52
1, 1365844, Note_on_c, 0, 50, 46
1, 1365855, Control_c, 0, 64, 47
1, 1365858, Note_on_c, 0, 78, 56
1, 1365870, Control_c, 0, 64, 61
1, 1365884, Control_c, 0, 64, 72
1, 1365899, Control_c, 0, 64, 86
1, 1365914, Control_c, 0, 64, 107
1, 1365926, Note_off_c, 0, 78, 55
1, 1365929, Control_c, 0, 64, 127
1, 1365950, Note_off_c, 0, 50, 60
1, 1365950, Note_off_c, 0, 59, 60
1, 1365962, Note_on_c, 0, 71, 56
1, 1366054, Note_on_c, 0, 78, 56
1, 1366090, Note_off_c, 0, 71, 34
1, 1366129, Control_c, 0, 64, 79
1, 1366144, Note_on_c, 0, 51, 50
1, 1366144, Control_c, 0, 64, 64
1, 1366147, Note_off_c, 0, 78, 46
1, 1366149, Note_on_c, 0, 81, 61
1, 1366155, Note_on_c, 0, 59, 43
1, 1366158, Control_c, 0, 64, 58
1, 1366173, Control_c, 0, 64, 61
1, 1366188, Control_c, 0, 64, 66
1, 1366203, Control_c, 0, 64, 76
1, 1366217, Note_off_c, 0, 81, 56
1, 1366218, Control_c, 0, 64, 92
1, 1366222, Note_off_c, 0, 51, 49
1, 1366233, Control_c, 0, 64, 127
1, 1366249, Note_on_c, 0, 71, 59
1, 1366297, Note_off_c, 0, 71, 55
1, 1366319, Note_off_c, 0, 59, 30
1, 1366332, Note_on_c, 0, 81, 69
1, 1366426, Control_c, 0, 64, 111
1, 1366439, Note_on_c, 0, 59, 77
1, 1366439, Note_on_c, 0, 80, 66
1, 1366439, Note_on_c, 0, 52, 66
1, 1366441, Control_c, 0, 64, 79
1, 1366456, Control_c, 0, 64, 63
1, 1366471, Control_c, 0, 64, 54
1, 1366485, Control_c, 0, 64, 58
1, 1366500, Control_c, 0, 64, 63
1, 1366504, Note_off_c, 0, 80, 59
1, 1366515, Control_c, 0, 64, 72
1, 1366522, Note_on_c, 0, 71, 71
1, 1366530, Control_c, 0, 64, 93
1, 1366545, Control_c, 0, 64, 127
1, 1366605, Note_off_c, 0, 71, 50
1, 1366609, Note_on_c, 0, 80, 77
1, 1366616, Note_off_c, 0, 81, 28
1, 1366665, Note_off_c, 0, 80, 61
1, 1366684, Note_off_c, 0, 59, 56
1, 1366692, Note_on_c, 0, 62, 94
1, 1366731, Note_on_c, 0, 84, 59
1, 1366738, Note_on_c, 0, 83, 55
1, 1366793, Note_off_c, 0, 83, 52
1, 1366802, Note_off_c, 0, 84, 60
1, 1366809, Note_on_c, 0, 80, 75
1, 1366835, Note_off_c, 0, 80, 62
1, 1366864, Note_off_c, 0, 52, 59
1, 1366903, Note_on_c, 0, 86, 83
1, 1366921, Note_on_c, 0, 61, 68
1, 1366921, Note_off_c, 0, 62, 57
1, 1366948, Note_off_c, 0, 61, 67
1, 1366992, Note_off_c, 0, 86, 62
1, 1367026, Note_on_c, 0, 61, 77
1, 1367026, Control_c, 0, 64, 113
1, 1367035, Note_on_c, 0, 53, 64
1, 1367037, Note_on_c, 0, 85, 73
1, 1367041, Control_c, 0, 64, 77
1, 1367056, Control_c, 0, 64, 60
1, 1367071, Control_c, 0, 64, 41
1, 1367085, Control_c, 0, 64, 48
1, 1367092, Note_off_c, 0, 85, 64
1, 1367100, Control_c, 0, 64, 58
1, 1367115, Control_c, 0, 64, 66
1, 1367118, Note_on_c, 0, 80, 68
1, 1367130, Control_c, 0, 64, 78
1, 1367145, Control_c, 0, 64, 104
1, 1367160, Control_c, 0, 64, 127
1, 1367178, Note_off_c, 0, 80, 63
1, 1367214, Note_on_c, 0, 92, 78
1, 1367307, Note_off_c, 0, 92, 62
1, 1367316, Note_on_c, 0, 89, 82
1, 1367394, Note_on_c, 0, 85, 81
1, 1367479, Note_off_c, 0, 85, 63
1, 1367497, Note_on_c, 0, 97, 91
1, 1367514, Note_off_c, 0, 53, 61
1, 1367562, Note_off_c, 0, 89, 40
1, 1367596, Note_on_c, 0, 92, 82
1, 1367637, Note_off_c, 0, 97, 64
1, 1367695, Note_on_c, 0, 89, 81
1, 1367744, Note_off_c, 0, 92, 63
1, 1367774, Note_on_c, 0, 85, 82
1, 1367774, Note_off_c, 0, 89, 64
1, 1367795, Note_off_c, 0, 85, 68
1, 1367859, Note_off_c, 0, 61, 55
1, 1367871, Note_on_c, 0, 59, 67
1, 1367893, Control_c, 0, 64, 86
1, 1367907, Control_c, 0, 64, 68
1, 1367908, Note_on_c, 0, 73, 77
1, 1367922, Control_c, 0, 64, 62
1, 1367937, Control_c, 0, 64, 66
1, 1367953, Control_c, 0, 64, 73
1, 1367968, Control_c, 0, 64, 87
1, 1367983, Control_c, 0, 64, 127
1, 1367987, Note_on_c, 0, 85, 80
1, 1367993, Note_off_c, 0, 73, 60
1, 1368075, Note_on_c, 0, 73, 83
1, 1368091, Note_on_c, 0, 61, 75
1, 1368114, Note_off_c, 0, 59, 59
1, 1368156, Note_off_c, 0, 73, 60
1, 1368160, Control_c, 0, 64, 77
1, 1368165, Note_off_c, 0, 61, 61
1, 1368175, Control_c, 0, 64, 54
1, 1368176, Note_on_c, 0, 62, 87
1, 1368186, Note_on_c, 0, 54, 77
1, 1368190, Control_c, 0, 64, 0
1, 1368191, Note_on_c, 0, 81, 84
1, 1368218, Note_off_c, 0, 85, 55
1, 1368219, Control_c, 0, 64, 54
1, 1368234, Control_c, 0, 64, 69
1, 1368248, Control_c, 0, 64, 86
1, 1368263, Control_c, 0, 64, 127
1, 1368294, Note_on_c, 0, 78, 88
1, 1368316, Note_off_c, 0, 81, 57
1, 1368324, Note_off_c, 0, 62, 52
1, 1368380, Note_on_c, 0, 86, 83
1, 1368397, Note_off_c, 0, 78, 61
1, 1368475, Note_off_c, 0, 54, 62
1, 1368478, Note_on_c, 0, 62, 102
1, 1368481, Note_on_c, 0, 81, 90
1, 1368520, Note_off_c, 0, 86, 58
1, 1368526, Note_off_c, 0, 62, 61
1, 1368538, Note_off_c, 0, 81, 61
1, 1368566, Note_on_c, 0, 78, 93
1, 1368618, Note_off_c, 0, 78, 65
1, 1368667, Note_on_c, 0, 90, 89
1, 1368769, Note_on_c, 0, 86, 90
1, 1368771, Note_on_c, 0, 54, 77
1, 1368774, Note_on_c, 0, 62, 92
1, 1368791, Control_c, 0, 64, 85
1, 1368802, Note_off_c, 0, 90, 50
1, 1368805, Control_c, 0, 64, 62
1, 1368820, Control_c, 0, 64, 0
1, 1368835, Note_off_c, 0, 54, 62
1, 1368835, Control_c, 0, 64, 41
1, 1368850, Control_c, 0, 64, 60
1, 1368865, Control_c, 0, 64, 72
1, 1368867, Note_on_c, 0, 81, 94
1, 1368879, Control_c, 0, 64, 95
1, 1368885, Note_off_c, 0, 86, 60
1, 1368894, Control_c, 0, 64, 127
1, 1368924, Note_off_c, 0, 81, 65
1, 1368956, Note_on_c, 0, 93, 88
1, 1368973, Note_off_c, 0, 93, 73
1, 1369017, Note_on_c, 0, 91, 23
1, 1369067, Note_off_c, 0, 91, 52
1, 1369073, Note_on_c, 0, 78, 91
1, 1369075, Note_off_c, 0, 62, 63
1, 1369086, Note_on_c, 0, 66, 87
1, 1369160, Note_on_c, 0, 80, 88
1, 1369190, Note_off_c, 0, 78, 61
1, 1369226, Note_off_c, 0, 66, 59
1, 1369256, Note_on_c, 0, 81, 85
1, 1369289, Note_on_c, 0, 64, 79
1, 1369313, Note_off_c, 0, 80, 59
1, 1369319, Note_off_c, 0, 64, 62
1, 1369360, Control_c, 0, 64, 105
1, 1369371, Note_on_c, 0, 83, 84
1, 1369375, Control_c, 0, 64, 69
1, 1369387, Note_on_c, 0, 64, 84
1, 1369390, Control_c, 0, 64, 35
1, 1369393, Note_on_c, 0, 56, 70
1, 1369402, Note_off_c, 0, 81, 59
1, 1369405, Control_c, 0, 64, 0
1, 1369434, Control_c, 0, 64, 40
1, 1369449, Control_c, 0, 64, 63
1, 1369464, Note_on_c, 0, 76, 86
1, 1369464, Control_c, 0, 64, 79
1, 1369474, Note_off_c, 0, 83, 62
1, 1369479, Control_c, 0, 64, 113
1, 1369494, Control_c, 0, 64, 127
1, 1369522, Note_off_c, 0, 76, 65
1, 1369557, Note_on_c, 0, 88, 96
1, 1369570, Note_off_c, 0, 56, 60
1, 1369577, Note_off_c, 0, 64, 55
1, 1369649, Note_on_c, 0, 83, 88
1, 1369664, Note_off_c, 0, 88, 63
1, 1369703, Note_off_c, 0, 83, 62
1, 1369730, Note_on_c, 0, 80, 90
1, 1369793, Note_off_c, 0, 80, 63
1, 1369830, Note_on_c, 0, 92, 86
1, 1369923, Note_on_c, 0, 88, 99
1, 1369944, Note_off_c, 0, 92, 61
1, 1370015, Note_on_c, 0, 83, 89
1, 1370020, Note_off_c, 0, 88, 67
1, 1370065, Note_off_c, 0, 83, 66
1, 1370096, Note_on_c, 0, 95, 97
1, 1370209, Note_on_c, 0, 92, 89
1, 1370252, Note_off_c, 0, 95, 58
1, 1370301, Note_on_c, 0, 88, 85
1, 1370314, Note_off_c, 0, 92, 65
1, 1370347, Note_off_c, 0, 88, 65
1, 1370377, Note_on_c, 0, 100, 87
1, 1370395, Note_off_c, 0, 100, 75
1, 1370487, Note_on_c, 0, 55, 41
1, 1370490, Note_on_c, 0, 57, 38
1, 1370493, Note_on_c, 0, 64, 37
1, 1370496, Control_c, 0, 64, 80
1, 1370508, Note_on_c, 0, 61, 28
1, 1370511, Control_c, 0, 64, 55
1, 1370533, Control_c, 0, 64, 38
1, 1370548, Control_c, 0, 64, 51
1, 1370563, Note_on_c, 0, 81, 57
1, 1370563, Control_c, 0, 64, 62
1, 1370578, Control_c, 0, 64, 72
1, 1370590, Note_off_c, 0, 81, 53
1, 1370593, Control_c, 0, 64, 91
1, 1370607, Control_c, 0, 64, 127
1, 1370639, Note_off_c, 0, 64, 49
1, 1370652, Note_off_c, 0, 55, 52
1, 1370657, Note_on_c, 0, 69, 53
1, 1370660, Note_off_c, 0, 61, 48
1, 1370680, Note_off_c, 0, 69, 63
1, 1370687, Note_off_c, 0, 57, 35
1, 1370722, Note_on_c, 0, 81, 73
1, 1370746, Note_off_c, 0, 81, 67
1, 1370797, Note_on_c, 0, 55, 55
1, 1370797, Note_on_c, 0, 64, 64
1, 1370801, Note_on_c, 0, 61, 59
1, 1370809, Note_on_c, 0, 57, 50
1, 1370828, Note_on_c, 0, 85, 91
1, 1370851, Note_off_c, 0, 64, 56
1, 1370871, Note_on_c, 0, 86, 38
1, 1370883, Note_off_c, 0, 55, 57
1, 1370892, Note_off_c, 0, 61, 57
1, 1370904, Note_off_c, 0, 86, 47
1, 1370908, Note_off_c, 0, 57, 52
1, 1370910, Note_on_c, 0, 73, 83
1, 1370916, Note_off_c, 0, 85, 61
1, 1370972, Note_off_c, 0, 73, 62
1, 1370996, Note_on_c, 0, 85, 89
1, 1371031, Note_off_c, 0, 85, 61
1, 1371080, Note_on_c, 0, 64, 82
1, 1371085, Note_on_c, 0, 55, 67
1, 1371086, Note_on_c, 0, 61, 78
1, 1371093, Note_on_c, 0, 57, 57
1, 1371095, Note_on_c, 0, 88, 106
1, 1371145, Note_off_c, 0, 64, 61
1, 1371172, Note_off_c, 0, 55, 60
1, 1371179, Note_off_c, 0, 61, 58
1, 1371188, Note_on_c, 0, 76, 92
1, 1371188, Note_off_c, 0, 57, 59
1, 1371188, Note_off_c, 0, 88, 55
1, 1371252, Note_off_c, 0, 76, 61
1, 1371277, Note_on_c, 0, 88, 98
1, 1371312, Note_off_c, 0, 88, 68
1, 1371360, Note_on_c, 0, 55, 60
1, 1371362, Note_on_c, 0, 64, 72
1, 1371371, Note_on_c, 0, 61, 70
1, 1371380, Note_on_c, 0, 93, 99
1, 1371388, Note_on_c, 0, 57, 54
1, 1371401, Note_off_c, 0, 64, 61
1, 1371415, Note_off_c, 0, 55, 60
1, 1371449, Note_off_c, 0, 57, 60
1, 1371453, Note_off_c, 0, 61, 59
1, 1371468, Note_on_c, 0, 81, 104
1, 1371479, Note_off_c, 0, 93, 57
1, 1371541, Note_off_c, 0, 81, 63
1, 1371544, Poly_aftertouch_c, 0, 91, 127
1, 1371561, Note_on_c, 0, 93, 98
1, 1371562, Poly_aftertouch_c, 0, 91, 0
1, 1371652, Control_c, 0, 64, 89
1, 1371665, Note_on_c, 0, 66, 75
1, 1371667, Note_on_c, 0, 62, 66
1, 1371667, Control_c, 0, 64, 65
1, 1371670, Note_on_c, 0, 54, 53
1, 1371673, Note_on_c, 0, 57, 53
1, 1371676, Note_on_c, 0, 81, 92
1, 1371682, Control_c, 0, 64, 0
1, 1371694, Note_off_c, 0, 93, 60
1, 1371727, Control_c, 0, 64, 43
1, 1371742, Control_c, 0, 64, 60
1, 1371757, Control_c, 0, 64, 72
1, 1371771, Control_c, 0, 64, 97
1, 1371774, Note_on_c, 0, 93, 96
1, 1371780, Note_off_c, 0, 81, 41
1, 1371781, Note_off_c, 0, 54, 62
1, 1371786, Control_c, 0, 64, 127
1, 1371829, Note_off_c, 0, 57, 59
1, 1371863, Note_on_c, 0, 90, 89
1, 1371867, Note_off_c, 0, 66, 63
1, 1371869, Note_off_c, 0, 62, 62
1, 1371942, Note_off_c, 0, 93, 60
1, 1371958, Note_on_c, 0, 86, 84
1, 1371992, Note_off_c, 0, 90, 62
1, 1372007, Note_off_c, 0, 86, 60
1, 1372033, Note_on_c, 0, 81, 82
1, 1372132, Note_on_c, 0, 77, 77
1, 1372147, Note_off_c, 0, 81, 53
1, 1372229, Note_on_c, 0, 78, 76
1, 1372238, Control_c, 0, 64, 88
1, 1372253, Control_c, 0, 64, 64
1, 1372254, Note_on_c, 0, 74, 58
1, 1372263, Note_on_c, 0, 66, 39
1, 1372268, Control_c, 0, 64, 0
1, 1372272, Note_off_c, 0, 77, 53
1, 1372297, Control_c, 0, 64, 45
1, 1372312, Control_c, 0, 64, 64
1, 1372326, Note_on_c, 0, 80, 79
1, 1372327, Control_c, 0, 64, 79
1, 1372342, Control_c, 0, 64, 127
1, 1372368, Note_off_c, 0, 78, 63
1, 1372400, Note_off_c, 0, 74, 58
1, 1372401, Note_off_c, 0, 80, 61
1, 1372423, Note_on_c, 0, 81, 91
1, 1372500, Note_off_c, 0, 66, 51
1, 1372514, Note_on_c, 0, 71, 73
1, 1372526, Note_on_c, 0, 83, 88
1, 1372530, Note_on_c, 0, 62, 59
1, 1372536, Note_off_c, 0, 71, 70
1, 1372544, Note_off_c, 0, 81, 62
1, 1372552, Note_off_c, 0, 62, 61
1, 1372612, Note_on_c, 0, 85, 85
1, 1372654, Note_off_c, 0, 83, 57
1, 1372668, Note_on_c, 0, 52, 33
1, 1372703, Note_off_c, 0, 52, 53
1, 1372707, Note_on_c, 0, 86, 85
1, 1372738, Poly_aftertouch_c, 0, 53, 127
1, 1372746, Note_on_c, 0, 61, 73
1, 1372758, Control_c, 0, 64, 113
1, 1372779, Poly_aftertouch_c, 0, 53, 0
1, 1372781, Control_c, 0, 64, 78
1, 1372796, Control_c, 0, 64, 59
1, 1372810, Control_c, 0, 64, 43
1, 1372812, Note_off_c, 0, 61, 62
1, 1372814, Note_off_c, 0, 85, 59
1, 1372818, Note_on_c, 0, 69, 96
1, 1372818, Note_on_c, 0, 88, 100
1, 1372825, Control_c, 0, 64, 54
1, 1372840, Control_c, 0, 64, 64
1, 1372845, Note_off_c, 0, 86, 61
1, 1372851, Note_off_c, 0, 69, 66
1, 1372854, Control_c, 0, 64, 77
1, 1372869, Control_c, 0, 64, 111
1, 1372884, Control_c, 0, 64, 127
1, 1372919, Note_on_c, 0, 85, 88
1, 1372978, Note_off_c, 0, 88, 59
1, 1373035, Note_on_c, 0, 81, 70
1, 1373066, Note_off_c, 0, 85, 62
1, 1373074, Note_off_c, 0, 81, 61
1, 1373113, Note_on_c, 0, 76, 73
1, 1373187, Note_on_c, 0, 61, 46
1, 1373199, Note_off_c, 0, 76, 61
1, 1373205, Note_on_c, 0, 69, 45
1, 1373210, Note_on_c, 0, 73, 66
1, 1373226, Note_off_c, 0, 61, 55
1, 1373229, Note_off_c, 0, 73, 64
1, 1373237, Note_off_c, 0, 69, 54
1, 1373305, Note_on_c, 0, 76, 62
1, 1373328, Control_c, 0, 64, 105
1, 1373343, Control_c, 0, 64, 76
1, 1373358, Control_c, 0, 64, 59
1, 1373366, Note_off_c, 0, 76, 53
1, 1373372, Control_c, 0, 64, 0
1, 1373383, Note_on_c, 0, 73, 48
1, 1373384, Note_on_c, 0, 64, 37
1, 1373408, Note_on_c, 0, 69, 29
1, 1373414, Note_on_c, 0, 85, 63
1, 1373417, Control_c, 0, 64, 46
1, 1373432, Control_c, 0, 64, 59
1, 1373435, Note_off_c, 0, 64, 49
1, 1373447, Control_c, 0, 64, 69
1, 1373462, Control_c, 0, 64, 81
1, 1373477, Control_c, 0, 64, 100
1, 1373488, Note_off_c, 0, 73, 52
1, 1373491, Control_c, 0, 64, 127
1, 1373520, Note_on_c, 0, 76, 50
1, 1373563, Note_off_c, 0, 85, 54
1, 1373572, Note_off_c, 0, 76, 56
1, 1373581, Note_on_c, 0, 81, 55
1, 1373662, Note_off_c, 0, 69, 40
1, 1373663, Control_c, 0, 64, 83
1, 1373671, Note_off_c, 0, 81, 51
1, 1373677, Control_c, 0, 64, 66
1, 1373692, Note_on_c, 0, 64, 39
1, 1373692, Control_c, 0, 64, 55
1, 1373701, Note_on_c, 0, 71, 44
1, 1373703, Note_on_c, 0, 83, 53
1, 1373707, Control_c, 0, 64, 58
1, 1373713, Note_on_c, 0, 68, 40
1, 1373722, Control_c, 0, 64, 64
1, 1373729, Note_off_c, 0, 71, 62
1, 1373737, Control_c, 0, 64, 72
1, 1373742, Note_off_c, 0, 64, 62
1, 1373749, Note_off_c, 0, 68, 65
1, 1373751, Control_c, 0, 64, 85
1, 1373766, Control_c, 0, 64, 108
1, 1373781, Control_c, 0, 64, 127
1, 1373794, Note_on_c, 0, 76, 55
1, 1373833, Note_off_c, 0, 76, 56
1, 1373880, Note_off_c, 0, 83, 37
1, 1373921, Note_on_c, 0, 79, 22
1, 1373959, Control_c, 0, 64, 105
1, 1373965, Note_off_c, 0, 79, 39
1, 1373974, Control_c, 0, 64, 77
1, 1373988, Control_c, 0, 64, 62
1, 1373989, Note_on_c, 0, 55, 37
1, 1373991, Note_on_c, 0, 64, 43
1, 1374003, Control_c, 0, 64, 52
1, 1374007, Note_on_c, 0, 57, 33
1, 1374009, Note_on_c, 0, 61, 33
1, 1374016, Note_on_c, 0, 69, 52
1, 1374018, Control_c, 0, 64, 58
1, 1374033, Control_c, 0, 64, 65
1, 1374039, Note_off_c, 0, 69, 61
1, 1374048, Control_c, 0, 64, 74
1, 1374060, Note_off_c, 0, 64, 58
1, 1374061, Note_off_c, 0, 55, 54
1, 1374063, Control_c, 0, 64, 88
1, 1374077, Control_c, 0, 64, 113
1, 1374092, Control_c, 0, 64, 127
1, 1374098, Note_off_c, 0, 61, 42
1, 1374116, Note_off_c, 0, 57, 38
1, 1374123, Note_on_c, 0, 83, 54
1, 1374162, Note_off_c, 0, 83, 58
1, 1374198, Note_on_c, 0, 81, 62
1, 1374240, Note_off_c, 0, 81, 61
1, 1374277, Control_c, 0, 64, 87
1, 1374278, Note_on_c, 0, 64, 64
1, 1374289, Note_on_c, 0, 61, 51
1, 1374292, Control_c, 0, 64, 64
1, 1374293, Note_on_c, 0, 55, 45
1, 1374296, Note_on_c, 0, 73, 73
1, 1374299, Note_on_c, 0, 57, 38
1, 1374307, Control_c, 0, 64, 52
1, 1374322, Control_c, 0, 64, 56
1, 1374337, Control_c, 0, 64, 63
1, 1374350, Note_off_c, 0, 73, 62
1, 1374353, Control_c, 0, 64, 70
1, 1374362, Note_off_c, 0, 64, 60
1, 1374368, Control_c, 0, 64, 85
1, 1374379, Note_off_c, 0, 55, 39
1, 1374382, Control_c, 0, 64, 127
1, 1374386, Note_on_c, 0, 86, 84
1, 1374409, Note_off_c, 0, 61, 54
1, 1374437, Note_off_c, 0, 57, 36
1, 1374472, Note_on_c, 0, 85, 85
1, 1374501, Note_off_c, 0, 86, 62
1, 1374547, Note_off_c, 0, 85, 63
1, 1374565, Note_on_c, 0, 76, 86
1, 1374567, Note_on_c, 0, 64, 93
1, 1374571, Note_on_c, 0, 61, 85
1, 1374580, Note_on_c, 0, 55, 63
1, 1374584, Note_on_c, 0, 57, 61
1, 1374602, Note_off_c, 0, 76, 67
1, 1374628, Note_off_c, 0, 64, 61
1, 1374649, Note_off_c, 0, 55, 61
1, 1374662, Note_on_c, 0, 90, 92
1, 1374664, Note_off_c, 0, 61, 60
1, 1374678, Note_off_c, 0, 57, 58
1, 1374696, Note_on_c, 0, 91, 60
1, 1374725, Note_off_c, 0, 90, 61
1, 1374749, Note_on_c, 0, 89, 81
1, 1374755, Note_on_c, 0, 88, 88
1, 1374767, Note_off_c, 0, 91, 33
1, 1374808, Note_off_c, 0, 89, 63
1, 1374824, Note_off_c, 0, 88, 62
1, 1374832, Note_on_c, 0, 64, 84
1, 1374836, Note_on_c, 0, 61, 79
1, 1374836, Note_on_c, 0, 55, 56
1, 1374842, Note_on_c, 0, 81, 96
1, 1374845, Note_on_c, 0, 57, 67
1, 1374870, Note_off_c, 0, 55, 63
1, 1374880, Note_off_c, 0, 64, 59
1, 1374883, Note_off_c, 0, 81, 67
1, 1374910, Note_off_c, 0, 57, 61
1, 1374913, Note_off_c, 0, 61, 60
1, 1374930, Note_on_c, 0, 95, 98
1, 1375027, Note_on_c, 0, 93, 89
1, 1375053, Note_off_c, 0, 95, 62
1, 1375098, Note_off_c, 0, 93, 64
1, 1375134, Note_on_c, 0, 66, 89
1, 1375141, Note_on_c, 0, 57, 66
1, 1375141, Note_on_c, 0, 62, 75
1, 1375146, Note_on_c, 0, 54, 66
1, 1375146, Note_on_c, 0, 81, 95
1, 1375161, Control_c, 0, 64, 99
1, 1375176, Control_c, 0, 64, 69
1, 1375191, Control_c, 0, 64, 44
1, 1375205, Control_c, 0, 64, 0
1, 1375220, Control_c, 0, 64, 47
1, 1375235, Control_c, 0, 64, 62
1, 1375247, Note_on_c, 0, 93, 88
1, 1375250, Control_c, 0, 64, 75
1, 1375257, Note_off_c, 0, 81, 62
1, 1375265, Control_c, 0, 64, 127
1, 1375301, Note_off_c, 0, 54, 63
1, 1375335, Note_on_c, 0, 90, 87
1, 1375339, Note_off_c, 0, 66, 64
1, 1375371, Note_off_c, 0, 62, 61
1, 1375376, Note_off_c, 0, 57, 61
1, 1375419, Note_off_c, 0, 93, 60
1, 1375420, Note_on_c, 0, 86, 87
1, 1375462, Note_off_c, 0, 90, 60
1, 1375477, Note_off_c, 0, 86, 63
1, 1375507, Note_on_c, 0, 81, 89
1, 1375600, Note_on_c, 0, 77, 82
1, 1375625, Note_off_c, 0, 81, 61
1, 1375703, Note_on_c, 0, 78, 81
1, 1375724, Control_c, 0, 64, 99
1, 1375727, Note_on_c, 0, 59, 73
1, 1375734, Note_on_c, 0, 62, 77
1, 1375735, Note_on_c, 0, 50, 66
1, 1375736, Note_on_c, 0, 54, 72
1, 1375739, Control_c, 0, 64, 66
1, 1375745, Note_off_c, 0, 77, 59
1, 1375754, Control_c, 0, 64, 0
1, 1375779, Note_on_c, 0, 52, 33
1, 1375779, Note_off_c, 0, 52, 127
1, 1375805, Control_c, 0, 64, 56
1, 1375809, Note_on_c, 0, 80, 81
1, 1375820, Control_c, 0, 64, 71
1, 1375822, Note_off_c, 0, 50, 59
1, 1375835, Control_c, 0, 64, 91
1, 1375849, Note_off_c, 0, 78, 65
1, 1375849, Control_c, 0, 64, 127
1, 1375867, Note_off_c, 0, 80, 65
1, 1375869, Note_off_c, 0, 62, 60
1, 1375910, Note_on_c, 0, 81, 95
1, 1375913, Note_off_c, 0, 59, 65
1, 1375933, Note_off_c, 0, 54, 63
1, 1375997, Note_on_c, 0, 83, 96
1, 1376019, Note_off_c, 0, 81, 64
1, 1376029, Note_on_c, 0, 88, 40
1, 1376067, Note_off_c, 0, 88, 48
1, 1376088, Note_on_c, 0, 85, 90
1, 1376118, Note_off_c, 0, 83, 64
1, 1376173, Note_on_c, 0, 86, 90
1, 1376279, Note_on_c, 0, 61, 97
1, 1376288, Note_on_c, 0, 52, 70
1, 1376290, Note_on_c, 0, 57, 79
1, 1376293, Note_on_c, 0, 49, 73
1, 1376299, Note_on_c, 0, 76, 99
1, 1376310, Control_c, 0, 64, 111
1, 1376319, Note_off_c, 0, 85, 30
1, 1376325, Control_c, 0, 64, 73
1, 1376328, Note_off_c, 0, 86, 60
1, 1376339, Control_c, 0, 64, 48
1, 1376354, Control_c, 0, 64, 0
1, 1376369, Control_c, 0, 64, 43
1, 1376374, Note_on_c, 0, 53, 25
1, 1376384, Control_c, 0, 64, 66
1, 1376389, Note_on_c, 0, 88, 88
1, 1376397, Note_off_c, 0, 76, 64
1, 1376398, Control_c, 0, 64, 88
1, 1376413, Control_c, 0, 64, 127
1, 1376415, Note_off_c, 0, 49, 63
1, 1376471, Note_on_c, 0, 85, 88
1, 1376495, Note_off_c, 0, 52, 60
1, 1376499, Note_off_c, 0, 53, 40
1, 1376523, Note_off_c, 0, 57, 61
1, 1376541, Note_off_c, 0, 61, 61
1, 1376565, Note_on_c, 0, 81, 87
1, 1376565, Note_off_c, 0, 88, 39
1, 1376607, Note_off_c, 0, 85, 62
1, 1376619, Note_off_c, 0, 81, 64
1, 1376637, Note_on_c, 0, 76, 90
1, 1376736, Note_on_c, 0, 73, 84
1, 1376754, Note_off_c, 0, 76, 61
1, 1376792, Control_c, 0, 64, 104
1, 1376807, Control_c, 0, 64, 71
1, 1376821, Control_c, 0, 64, 50
1, 1376827, Note_on_c, 0, 75, 85
1, 1376836, Control_c, 0, 64, 48
1, 1376838, Note_on_c, 0, 63, 104
1, 1376848, Note_off_c, 0, 73, 60
1, 1376850, Note_on_c, 0, 54, 70
1, 1376851, Control_c, 0, 64, 61
1, 1376855, Note_on_c, 0, 57, 69
1, 1376856, Note_on_c, 0, 59, 73
1, 1376866, Control_c, 0, 64, 74
1, 1376868, Note_off_c, 0, 75, 64
1, 1376881, Control_c, 0, 64, 118
1, 1376896, Control_c, 0, 64, 127
1, 1376949, Note_off_c, 0, 54, 57
1, 1376956, Note_on_c, 0, 93, 93
1, 1377027, Note_off_c, 0, 63, 63
1, 1377039, Note_on_c, 0, 90, 89
1, 1377087, Note_off_c, 0, 59, 58
1, 1377095, Note_off_c, 0, 57, 53
1, 1377107, Note_off_c, 0, 93, 55
1, 1377129, Note_on_c, 0, 87, 94
1, 1377161, Note_on_c, 0, 89, 42
1, 1377186, Note_off_c, 0, 90, 62
1, 1377191, Note_off_c, 0, 89, 52
1, 1377214, Note_on_c, 0, 83, 90
1, 1377224, Note_off_c, 0, 87, 64
1, 1377313, Note_on_c, 0, 87, 93
1, 1377344, Note_off_c, 0, 83, 61
1, 1377345, Note_on_c, 0, 88, 63
1, 1377387, Note_off_c, 0, 88, 49
1, 1377398, Note_off_c, 0, 87, 61
1, 1377430, Note_on_c, 0, 64, 69
1, 1377432, Note_on_c, 0, 52, 60
1, 1377436, Control_c, 0, 64, 85
1, 1377437, Note_on_c, 0, 56, 60
1, 1377450, Note_on_c, 0, 59, 59
1, 1377451, Control_c, 0, 64, 62
1, 1377465, Note_on_c, 0, 88, 108
1, 1377466, Control_c, 0, 64, 35
1, 1377481, Control_c, 0, 64, 43
1, 1377495, Control_c, 0, 64, 62
1, 1377510, Control_c, 0, 64, 74
1, 1377523, Note_off_c, 0, 52, 62
1, 1377525, Control_c, 0, 64, 109
1, 1377541, Control_c, 0, 64, 127
1, 1377552, Note_off_c, 0, 56, 61
1, 1377560, Note_off_c, 0, 64, 62
1, 1377570, Note_off_c, 0, 88, 61
1, 1377600, Note_off_c, 0, 59, 63
1, 1377770, Note_on_c, 0, 87, 96
1, 1377772, Note_on_c, 0, 81, 96
1, 1377776, Note_on_c, 0, 83, 91
1, 1377778, Control_c, 0, 64, 88
1, 1377781, Note_on_c, 0, 66, 96
1, 1377793, Control_c, 0, 64, 60
1, 1377808, Control_c, 0, 64, 38
1, 1377823, Control_c, 0, 64, 57
1, 1377837, Control_c, 0, 64, 74
1, 1377852, Control_c, 0, 64, 127
1, 1377855, Note_off_c, 0, 66, 60
1, 1377870, Note_off_c, 0, 81, 56
1, 1377894, Note_on_c, 0, 58, 37
1, 1377903, Note_on_c, 0, 59, 65
1, 1377926, Note_off_c, 0, 58, 56
1, 1377927, Note_off_c, 0, 83, 54
1, 1378005, Note_on_c, 0, 52, 57
1, 1378052, Note_off_c, 0, 59, 30
1, 1378082, Control_c, 0, 64, 90
1, 1378097, Control_c, 0, 64, 60
1, 1378101, Note_off_c, 0, 87, 52
1, 1378109, Note_on_c, 0, 88, 96
1, 1378112, Control_c, 0, 64, 0
1, 1378115, Note_on_c, 0, 81, 89
1, 1378119, Note_on_c, 0, 64, 62
1, 1378124, Note_on_c, 0, 83, 70
1, 1378127, Control_c, 0, 64, 37
1, 1378142, Control_c, 0, 64, 57
1, 1378157, Control_c, 0, 64, 70
1, 1378171, Note_off_c, 0, 52, 34
1, 1378171, Control_c, 0, 64, 87
1, 1378186, Control_c, 0, 64, 127
1, 1378200, Note_off_c, 0, 64, 59
1, 1378215, Note_off_c, 0, 88, 64
1, 1378219, Note_on_c, 0, 59, 55
1, 1378219, Note_off_c, 0, 83, 60
1, 1378297, Note_on_c, 0, 52, 53
1, 1378311, Note_off_c, 0, 81, 23
1, 1378380, Control_c, 0, 64, 91
1, 1378386, Note_off_c, 0, 59, 25
1, 1378394, Control_c, 0, 64, 68
1, 1378405, Note_off_c, 0, 52, 36
1, 1378409, Control_c, 0, 64, 54
1, 1378417, Note_on_c, 0, 90, 86
1, 1378422, Note_on_c, 0, 81, 69
1, 1378424, Control_c, 0, 64, 56
1, 1378427, Note_on_c, 0, 63, 58
1, 1378438, Note_on_c, 0, 83, 61
1, 1378439, Control_c, 0, 64, 63
1, 1378454, Control_c, 0, 64, 72
1, 1378468, Control_c, 0, 64, 87
1, 1378483, Control_c, 0, 64, 127
1, 1378487, Note_off_c, 0, 81, 59
1, 1378495, Note_off_c, 0, 63, 41
1, 1378498, Note_off_c, 0, 90, 63
1, 1378520, Note_on_c, 0, 59, 54
1, 1378533, Note_off_c, 0, 83, 54
1, 1378578, Note_off_c, 0, 59, 55
1, 1378614, Note_on_c, 0, 52, 52
1, 1378660, Control_c, 0, 64, 119
1, 1378675, Control_c, 0, 64, 74
1, 1378678, Note_off_c, 0, 52, 51
1, 1378690, Control_c, 0, 64, 62
1, 1378712, Note_on_c, 0, 88, 82
1, 1378720, Control_c, 0, 64, 68
1, 1378735, Control_c, 0, 64, 80
1, 1378736, Note_on_c, 0, 64, 50
1, 1378740, Note_off_c, 0, 88, 64
1, 1378741, Note_on_c, 0, 80, 49
1, 1378750, Control_c, 0, 64, 111
1, 1378772, Control_c, 0, 64, 127
1, 1378775, Note_off_c, 0, 80, 62
1, 1378781, Note_off_c, 0, 64, 53
1, 1378816, Control_c, 0, 67, 21
1, 1378831, Control_c, 0, 67, 25
1, 1378841, Note_on_c, 0, 59, 51
1, 1378846, Control_c, 0, 67, 28
1, 1378860, Control_c, 0, 67, 32
1, 1378870, Note_off_c, 0, 59, 64
1, 1378875, Control_c, 0, 67, 37
1, 1378890, Control_c, 0, 67, 43
1, 1378905, Control_c, 0, 67, 51
1, 1378913, Note_on_c, 0, 52, 30
1, 1378920, Control_c, 0, 67, 58
1, 1378935, Control_c, 0, 67, 66
1, 1378949, Control_c, 0, 67, 73
1, 1378951, Note_off_c, 0, 52, 52
1, 1378964, Control_c, 0, 67, 85
1, 1378979, Control_c, 0, 67, 99
1, 1378994, Control_c, 0, 64, 104
1, 1378994, Control_c, 0, 67, 115
1, 1379009, Control_c, 0, 64, 72
1, 1379009, Control_c, 0, 67, 127
1, 1379024, Control_c, 0, 64, 52
1, 1379031, Note_on_c, 0, 78, 74
1, 1379039, Control_c, 0, 64, 41
1, 1379047, Note_on_c, 0, 51, 40
1, 1379054, Control_c, 0, 64, 52
1, 1379056, Note_on_c, 0, 59, 37
1, 1379067, Note_on_c, 0, 57, 26
1, 1379068, Control_c, 0, 64, 63
1, 1379083, Control_c, 0, 64, 72
1, 1379086, Note_off_c, 0, 51, 56
1, 1379093, Note_off_c, 0, 59, 59
1, 1379098, Control_c, 0, 64, 85
1, 1379105, Note_off_c, 0, 57, 51
1, 1379112, Control_c, 0, 64, 96
1, 1379127, Control_c, 0, 64, 101
1, 1379128, Note_on_c, 0, 71, 46
1, 1379143, Control_c, 0, 64, 104
1, 1379158, Control_c, 0, 64, 107
1, 1379162, Note_off_c, 0, 78, 58
1, 1379173, Control_c, 0, 64, 114
1, 1379188, Control_c, 0, 64, 125
1, 1379203, Control_c, 0, 64, 127
1, 1379215, Note_on_c, 0, 69, 45
1, 1379291, Control_c, 0, 64, 95
1, 1379295, Note_off_c, 0, 71, 37
1, 1379306, Control_c, 0, 64, 72
1, 1379320, Note_off_c, 0, 69, 51
1, 1379321, Control_c, 0, 64, 57
1, 1379332, Note_on_c, 0, 52, 41
1, 1379335, Control_c, 0, 64, 44
1, 1379337, Note_on_c, 0, 76, 61
1, 1379340, Note_on_c, 0, 59, 35
1, 1379350, Control_c, 0, 64, 49
1, 1379363, Note_on_c, 0, 57, 27
1, 1379365, Control_c, 0, 64, 58
1, 1379378, Note_off_c, 0, 52, 61
1, 1379380, Control_c, 0, 64, 65
1, 1379384, Note_off_c, 0, 59, 63
1, 1379394, Note_off_c, 0, 57, 52
1, 1379395, Control_c, 0, 64, 73
1, 1379409, Control_c, 0, 64, 83
1, 1379423, Note_on_c, 0, 71, 44
1, 1379424, Control_c, 0, 64, 93
1, 1379439, Control_c, 0, 64, 99
1, 1379450, Note_off_c, 0, 76, 36
1, 1379454, Control_c, 0, 64, 105
1, 1379469, Control_c, 0, 64, 110
1, 1379483, Control_c, 0, 64, 117
1, 1379498, Control_c, 0, 64, 127
1, 1379527, Note_on_c, 0, 69, 33
1, 1379580, Control_c, 0, 64, 95
1, 1379595, Control_c, 0, 64, 74
1, 1379601, Note_off_c, 0, 71, 25
1, 1379609, Control_c, 0, 64, 59
1, 1379624, Control_c, 0, 64, 42
1, 1379630, Note_on_c, 0, 75, 59
1, 1379631, Note_off_c, 0, 69, 43
1, 1379635, Note_on_c, 0, 59, 43
1, 1379639, Control_c, 0, 64, 44
1, 1379639, Control_c, 0, 67, 116
1, 1379640, Note_on_c, 0, 54, 44
1, 1379644, Note_on_c, 0, 57, 42
1, 1379654, Control_c, 0, 64, 53
1, 1379654, Control_c, 0, 67, 82
1, 1379669, Control_c, 0, 64, 62
1, 1379669, Control_c, 0, 67, 40
1, 1379683, Control_c, 0, 64, 70
1, 1379683, Control_c, 0, 67, 0
1, 1379686, Note_off_c, 0, 59, 62
1, 1379690, Note_off_c, 0, 57, 62
1, 1379692, Note_off_c, 0, 54, 60
1, 1379698, Control_c, 0, 64, 79
1, 1379713, Control_c, 0, 64, 87
1, 1379727, Note_on_c, 0, 71, 53
1, 1379728, Control_c, 0, 64, 93
1, 1379729, Note_off_c, 0, 75, 50
1, 1379742, Control_c, 0, 64, 98
1, 1379757, Control_c, 0, 64, 106
1, 1379772, Control_c, 0, 64, 127
1, 1379826, Note_on_c, 0, 69, 48
1, 1379876, Control_c, 0, 64, 98
1, 1379886, Note_off_c, 0, 69, 54
1, 1379891, Control_c, 0, 64, 73
1, 1379901, Note_off_c, 0, 71, 28
1, 1379906, Control_c, 0, 64, 56
1, 1379916, Note_on_c, 0, 59, 52
1, 1379919, Note_on_c, 0, 76, 75
1, 1379921, Control_c, 0, 64, 43
1, 1379930, Note_on_c, 0, 52, 51
1, 1379936, Control_c, 0, 64, 51
1, 1379939, Note_on_c, 0, 56, 48
1, 1379951, Control_c, 0, 64, 61
1, 1379966, Control_c, 0, 64, 69
1, 1379972, Note_off_c, 0, 52, 62
1, 1379981, Control_c, 0, 64, 86
1, 1379989, Note_off_c, 0, 59, 62
1, 1379996, Control_c, 0, 64, 127
1, 1380008, Note_on_c, 0, 71, 71
1, 1380021, Note_off_c, 0, 56, 60
1, 1380021, Note_off_c, 0, 76, 61
1, 1380079, Note_off_c, 0, 71, 64
1, 1380085, Note_on_c, 0, 68, 71
1, 1380108, Note_off_c, 0, 68, 69
1, 1380201, Note_on_c, 0, 63, 80
1, 1380203, Control_c, 0, 64, 95
1, 1380217, Control_c, 0, 64, 69
1, 1380228, Note_on_c, 0, 90, 98
1, 1380231, Control_c, 0, 64, 51
1, 1380234, Note_on_c, 0, 81, 78
1, 1380240, Note_on_c, 0, 83, 76
1, 1380246, Control_c, 0, 64, 44
1, 1380246, Control_c, 0, 67, 20
1, 1380269, Control_c, 0, 64, 55
1, 1380284, Control_c, 0, 64, 64
1, 1380299, Control_c, 0, 64, 72
1, 1380313, Control_c, 0, 64, 95
1, 1380328, Note_on_c, 0, 59, 70
1, 1380328, Control_c, 0, 64, 127
1, 1380363, Note_off_c, 0, 63, 61
1, 1380399, Note_off_c, 0, 90, 61
1, 1380404, Note_on_c, 0, 52, 66
1, 1380409, Note_off_c, 0, 83, 58
1, 1380420, Note_off_c, 0, 81, 54
1, 1380461, Control_c, 0, 67, 23
1, 1380481, Note_off_c, 0, 59, 32
1, 1380506, Control_c, 0, 64, 111
1, 1380506, Control_c, 0, 67, 26
1, 1380515, Note_on_c, 0, 88, 96
1, 1380520, Control_c, 0, 64, 73
1, 1380520, Control_c, 0, 67, 34
1, 1380526, Note_on_c, 0, 81, 68
1, 1380534, Note_on_c, 0, 64, 50
1, 1380535, Control_c, 0, 64, 53
1, 1380535, Control_c, 0, 67, 46
1, 1380537, Note_on_c, 0, 83, 65
1, 1380550, Control_c, 0, 64, 44
1, 1380550, Control_c, 0, 67, 62
1, 1380565, Control_c, 0, 64, 51
1, 1380565, Control_c, 0, 67, 81
1, 1380580, Control_c, 0, 64, 59
1, 1380580, Control_c, 0, 67, 94
1, 1380595, Control_c, 0, 64, 65
1, 1380595, Control_c, 0, 67, 105
1, 1380609, Note_off_c, 0, 52, 36
1, 1380610, Control_c, 0, 64, 73
1, 1380610, Control_c, 0, 67, 116
1, 1380625, Control_c, 0, 64, 89
1, 1380625, Control_c, 0, 67, 127
1, 1380631, Note_on_c, 0, 59, 52
1, 1380639, Control_c, 0, 64, 127
1, 1380650, Note_off_c, 0, 64, 36
1, 1380708, Note_off_c, 0, 83, 36
1, 1380711, Note_off_c, 0, 59, 59
1, 1380713, Note_on_c, 0, 52, 55
1, 1380737, Note_off_c, 0, 52, 58
1, 1380743, Note_off_c, 0, 81, 19
1, 1380777, Note_off_c, 0, 88, 37
1, 1380803, Control_c, 0, 64, 104
1, 1380818, Control_c, 0, 64, 74
1, 1380833, Control_c, 0, 64, 59
1, 1380837, Note_on_c, 0, 87, 75
1, 1380848, Note_on_c, 0, 81, 66
1, 1380848, Control_c, 0, 64, 53
1, 1380862, Control_c, 0, 64, 60
1, 1380870, Note_on_c, 0, 66, 55
1, 1380877, Control_c, 0, 64, 65
1, 1380892, Control_c, 0, 64, 72
1, 1380895, Note_off_c, 0, 66, 62
1, 1380898, Note_off_c, 0, 81, 51
1, 1380906, Control_c, 0, 64, 87
1, 1380921, Control_c, 0, 64, 127
1, 1380931, Poly_aftertouch_c, 0, 83, 0
1, 1380950, Note_on_c, 0, 59, 48
1, 1380995, Note_off_c, 0, 59, 58
1, 1381038, Note_on_c, 0, 52, 44
1, 1381078, Control_c, 0, 64, 84
1, 1381093, Control_c, 0, 64, 63
1, 1381100, Note_off_c, 0, 52, 42
1, 1381102, Note_off_c, 0, 87, 58
1, 1381108, Control_c, 0, 64, 46
1, 1381122, Control_c, 0, 64, 51
1, 1381134, Note_on_c, 0, 88, 73
1, 1381137, Control_c, 0, 64, 60
1, 1381151, Note_on_c, 0, 64, 49
1, 1381152, Control_c, 0, 64, 68
1, 1381158, Note_on_c, 0, 80, 45
1, 1381159, Note_off_c, 0, 88, 67
1, 1381167, Control_c, 0, 64, 79
1, 1381182, Control_c, 0, 64, 101
1, 1381184, Note_off_c, 0, 80, 58
1, 1381196, Control_c, 0, 64, 127
1, 1381203, Note_off_c, 0, 64, 51
1, 1381243, Note_on_c, 0, 59, 52
1, 1381278, Note_off_c, 0, 59, 64
1, 1381325, Note_on_c, 0, 52, 47
1, 1381375, Note_off_c, 0, 52, 56
1, 1381403, Control_c, 0, 64, 105
1, 1381418, Control_c, 0, 64, 77
1, 1381433, Control_c, 0, 64, 59
1, 1381435, Note_on_c, 0, 54, 45
1, 1381438, Note_on_c, 0, 75, 68
1, 1381447, Control_c, 0, 64, 38
1, 1381462, Control_c, 0, 64, 43
1, 1381465, Note_on_c, 0, 59, 41
1, 1381477, Note_on_c, 0, 57, 33
1, 1381477, Control_c, 0, 64, 53
1, 1381492, Control_c, 0, 64, 62
1, 1381507, Control_c, 0, 64, 68
1, 1381522, Control_c, 0, 64, 76
1, 1381531, Note_off_c, 0, 54, 52
1, 1381537, Note_off_c, 0, 59, 55
1, 1381537, Control_c, 0, 64, 86
1, 1381541, Note_off_c, 0, 57, 56
1, 1381552, Note_on_c, 0, 71, 56
1, 1381552, Control_c, 0, 64, 95
1, 1381567, Control_c, 0, 64, 100
1, 1381568, Note_off_c, 0, 75, 53
1, 1381582, Control_c, 0, 64, 104
1, 1381597, Control_c, 0, 64, 109
1, 1381611, Control_c, 0, 64, 119
1, 1381626, Control_c, 0, 64, 127
1, 1381668, Note_on_c, 0, 69, 46
1, 1381686, Control_c, 0, 64, 109
1, 1381701, Control_c, 0, 64, 84
1, 1381715, Control_c, 0, 64, 66
1, 1381723, Note_on_c, 0, 52, 44
1, 1381728, Note_off_c, 0, 71, 38
1, 1381729, Control_c, 0, 64, 44
1, 1381738, Note_on_c, 0, 59, 35
1, 1381742, Note_off_c, 0, 69, 50
1, 1381744, Control_c, 0, 64, 0
1, 1381745, Note_on_c, 0, 57, 27
1, 1381745, Note_on_c, 0, 76, 65
1, 1381766, Control_c, 0, 64, 36
1, 1381781, Control_c, 0, 64, 52
1, 1381796, Control_c, 0, 64, 63
1, 1381811, Control_c, 0, 64, 70
1, 1381817, Note_off_c, 0, 52, 60
1, 1381817, Note_off_c, 0, 59, 56
1, 1381826, Control_c, 0, 64, 80
1, 1381840, Note_off_c, 0, 57, 50
1, 1381841, Control_c, 0, 64, 89
1, 1381849, Note_on_c, 0, 71, 55
1, 1381853, Note_off_c, 0, 76, 54
1, 1381856, Control_c, 0, 64, 95
1, 1381871, Control_c, 0, 64, 98
1, 1381885, Control_c, 0, 64, 101
1, 1381900, Control_c, 0, 64, 103
1, 1381915, Control_c, 0, 64, 105
1, 1381944, Control_c, 0, 64, 108
1, 1381954, Note_on_c, 0, 69, 41
1, 1381974, Control_c, 0, 64, 103
1, 1381989, Control_c, 0, 64, 88
1, 1382004, Control_c, 0, 64, 72
1, 1382011, Note_off_c, 0, 71, 46
1, 1382018, Control_c, 0, 64, 58
1, 1382033, Control_c, 0, 64, 44
1, 1382036, Note_off_c, 0, 69, 56
1, 1382038, Note_on_c, 0, 78, 61
1, 1382043, Note_on_c, 0, 51, 29
1, 1382046, Note_on_c, 0, 57, 23
1, 1382047, Note_on_c, 0, 59, 28
1, 1382048, Control_c, 0, 64, 48
1, 1382062, Control_c, 0, 64, 55
1, 1382077, Control_c, 0, 64, 63
1, 1382090, Note_off_c, 0, 51, 52
1, 1382092, Control_c, 0, 64, 69
1, 1382100, Note_off_c, 0, 59, 60
1, 1382104, Note_off_c, 0, 57, 60
1, 1382107, Control_c, 0, 64, 77
1, 1382122, Control_c, 0, 64, 84
1, 1382124, Note_on_c, 0, 71, 51
1, 1382136, Control_c, 0, 64, 88
1, 1382151, Note_off_c, 0, 78, 59
1, 1382151, Control_c, 0, 64, 90
1, 1382160, Note_off_c, 0, 71, 66
1, 1382166, Control_c, 0, 64, 91
1, 1382181, Control_c, 0, 64, 92
1, 1382196, Control_c, 0, 64, 93
1, 1382211, Note_on_c, 0, 69, 44
1, 1382264, Note_off_c, 0, 69, 55
1, 1382270, Control_c, 0, 64, 90
1, 1382285, Control_c, 0, 64, 81
1, 1382300, Control_c, 0, 64, 70
1, 1382315, Control_c, 0, 64, 60
1, 1382327, Note_on_c, 0, 52, 33
1, 1382330, Control_c, 0, 64, 49
1, 1382342, Note_on_c, 0, 59, 30
1, 1382344, Note_on_c, 0, 76, 57
1, 1382345, Control_c, 0, 64, 50
1, 1382352, Note_on_c, 0, 56, 21
1, 1382360, Control_c, 0, 64, 55
1, 1382375, Control_c, 0, 64, 62
1, 1382389, Control_c, 0, 64, 69
1, 1382404, Control_c, 0, 64, 78
1, 1382410, Note_off_c, 0, 76, 51
1, 1382419, Control_c, 0, 64, 89
1, 1382434, Control_c, 0, 64, 95
1, 1382440, Note_on_c, 0, 71, 51
1, 1382452, Note_off_c, 0, 59, 38
1, 1382463, Control_c, 0, 64, 97
1, 1382470, Note_off_c, 0, 52, 32
1, 1382528, Note_on_c, 0, 68, 63
1, 1382530, Control_c, 0, 64, 100
1, 1382538, Note_off_c, 0, 56, 41
1, 1382541, Note_off_c, 0, 71, 52
1, 1382559, Control_c, 0, 64, 102
1, 1382592, Note_off_c, 0, 68, 61
1, 1382613, Note_on_c, 0, 64, 64
1, 1382619, Control_c, 0, 64, 104
1, 1382639, Note_off_c, 0, 64, 68
1, 1382721, Note_on_c, 0, 59, 59
1, 1382811, Note_on_c, 0, 56, 63
1, 1382822, Note_off_c, 0, 59, 54
1, 1382840, Control_c, 0, 64, 102
1, 1382855, Control_c, 0, 64, 100
1, 1382870, Control_c, 0, 64, 97
1, 1382884, Control_c, 0, 64, 94
1, 1382899, Control_c, 0, 64, 90
1, 1382914, Control_c, 0, 64, 87
1, 1382917, Note_off_c, 0, 56, 59
1, 1382920, Note_on_c, 0, 52, 59
1, 1382929, Control_c, 0, 64, 84
1, 1382944, Control_c, 0, 64, 80
1, 1382959, Control_c, 0, 64, 75
1, 1382974, Control_c, 0, 64, 71
1, 1382989, Control_c, 0, 64, 67
1, 1383004, Control_c, 0, 64, 64
1, 1383014, Note_off_c, 0, 52, 60
1, 1383018, Control_c, 0, 64, 62
1, 1383022, Note_on_c, 0, 50, 63
1, 1383033, Control_c, 0, 64, 62
1, 1383077, Control_c, 0, 64, 61
1, 1383090, Note_off_c, 0, 50, 61
1, 1383093, Note_on_c, 0, 49, 65
1, 1383123, Control_c, 0, 64, 61
1, 1383153, Control_c, 0, 64, 60
1, 1383167, Control_c, 0, 64, 60
1, 1383182, Control_c, 0, 64, 59
1, 1383186, Note_off_c, 0, 49, 61
1, 1383197, Control_c, 0, 64, 58
1, 1383209, Note_on_c, 0, 50, 63
1, 1383212, Control_c, 0, 64, 57
1, 1383227, Control_c, 0, 64, 56
1, 1383242, Control_c, 0, 64, 54
1, 1383264, Control_c, 0, 64, 51
1, 1383279, Control_c, 0, 64, 47
1, 1383294, Note_off_c, 0, 50, 60
1, 1383294, Control_c, 0, 64, 41
1, 1383308, Control_c, 0, 64, 0
1, 1383314, Note_on_c, 0, 49, 64
1, 1383404, Note_off_c, 0, 49, 61
1, 1383426, Note_on_c, 0, 47, 50
1, 1383504, Note_off_c, 0, 47, 61
1, 1383531, Control_c, 0, 64, 37
1, 1383535, Note_on_c, 0, 45, 54
1, 1383546, Control_c, 0, 64, 50
1, 1383561, Control_c, 0, 64, 62
1, 1383576, Control_c, 0, 64, 66
1, 1383590, Control_c, 0, 64, 71
1, 1383605, Control_c, 0, 64, 76
1, 1383615, Note_off_c, 0, 45, 55
1, 1383620, Control_c, 0, 64, 82
1, 1383634, Control_c, 0, 64, 88
1, 1383642, Note_on_c, 0, 49, 48
1, 1383649, Control_c, 0, 64, 93
1, 1383664, Control_c, 0, 64, 101
1, 1383679, Control_c, 0, 64, 108
1, 1383694, Control_c, 0, 64, 118
1, 1383708, Control_c, 0, 64, 127
1, 1383720, Note_off_c, 0, 49, 55
1, 1383728, Note_on_c, 0, 52, 48
1, 1383768, Note_off_c, 0, 52, 64
1, 1383825, Note_on_c, 0, 57, 47
1, 1383875, Note_off_c, 0, 57, 47
1, 1383921, Note_on_c, 0, 61, 52
1, 1384028, Note_on_c, 0, 64, 45
1, 1384058, Control_c, 0, 64, 113
1, 1384060, Note_off_c, 0, 64, 57
1, 1384073, Control_c, 0, 64, 92
1, 1384076, Note_off_c, 0, 61, 26
1, 1384087, Control_c, 0, 64, 75
1, 1384102, Control_c, 0, 64, 61
1, 1384117, Control_c, 0, 64, 33
1, 1384124, Note_on_c, 0, 76, 61
1, 1384130, Note_on_c, 0, 57, 33
1, 1384131, Control_c, 0, 64, 0
1, 1384161, Control_c, 0, 64, 41
1, 1384176, Control_c, 0, 64, 54
1, 1384187, Note_off_c, 0, 76, 62
1, 1384191, Control_c, 0, 64, 63
1, 1384205, Control_c, 0, 64, 71
1, 1384217, Note_off_c, 0, 57, 55
1, 1384220, Control_c, 0, 64, 79
1, 1384226, Note_on_c, 0, 61, 49
1, 1384235, Control_c, 0, 64, 86
1, 1384250, Control_c, 0, 64, 90
1, 1384264, Control_c, 0, 64, 92
1, 1384276, Note_off_c, 0, 61, 56
1, 1384279, Control_c, 0, 64, 93
1, 1384294, Control_c, 0, 64, 94
1, 1384309, Control_c, 0, 64, 94
1, 1384316, Note_on_c, 0, 64, 53
1, 1384324, Control_c, 0, 64, 95
1, 1384354, Control_c, 0, 64, 94
1, 1384369, Control_c, 0, 64, 85
1, 1384384, Note_off_c, 0, 64, 43
1, 1384384, Control_c, 0, 64, 73
1, 1384387, Note_on_c, 0, 57, 38
1, 1384398, Control_c, 0, 64, 61
1, 1384408, Note_on_c, 0, 76, 80
1, 1384413, Control_c, 0, 64, 40
1, 1384428, Control_c, 0, 64, 0
1, 1384443, Control_c, 0, 64, 42
1, 1384457, Control_c, 0, 64, 58
1, 1384468, Note_off_c, 0, 57, 60
1, 1384472, Control_c, 0, 64, 66
1, 1384475, Note_off_c, 0, 76, 64
1, 1384487, Control_c, 0, 64, 74
1, 1384502, Note_on_c, 0, 61, 41
1, 1384502, Control_c, 0, 64, 83
1, 1384517, Control_c, 0, 64, 90
1, 1384531, Control_c, 0, 64, 93
1, 1384539, Note_off_c, 0, 61, 62
1, 1384546, Control_c, 0, 64, 95
1, 1384561, Control_c, 0, 64, 96
1, 1384593, Note_on_c, 0, 64, 46
1, 1384605, Control_c, 0, 64, 98
1, 1384664, Control_c, 0, 64, 96
1, 1384670, Note_off_c, 0, 64, 38
1, 1384679, Control_c, 0, 64, 86
1, 1384694, Control_c, 0, 64, 73
1, 1384699, Note_on_c, 0, 56, 41
1, 1384709, Control_c, 0, 64, 61
1, 1384725, Control_c, 0, 64, 48
1, 1384730, Note_on_c, 0, 76, 62
1, 1384740, Control_c, 0, 64, 48
1, 1384762, Control_c, 0, 64, 56
1, 1384777, Control_c, 0, 64, 62
1, 1384792, Control_c, 0, 64, 68
1, 1384798, Note_off_c, 0, 56, 56
1, 1384807, Control_c, 0, 64, 77
1, 1384822, Control_c, 0, 64, 90
1, 1384833, Note_on_c, 0, 59, 40
1, 1384836, Control_c, 0, 64, 103
1, 1384851, Control_c, 0, 64, 117
1, 1384866, Control_c, 0, 64, 127
1, 1384884, Note_off_c, 0, 59, 46
1, 1384900, Note_off_c, 0, 76, 65
1, 1384929, Note_on_c, 0, 64, 41
1, 1384987, Note_off_c, 0, 64, 50
1, 1385028, Control_c, 0, 67, 121
1, 1385031, Note_on_c, 0, 56, 33
1, 1385043, Control_c, 0, 67, 90
1, 1385058, Control_c, 0, 67, 62
1, 1385068, Note_off_c, 0, 56, 50
1, 1385072, Control_c, 0, 67, 37
1, 1385087, Control_c, 0, 67, 0
1, 1385120, Note_on_c, 0, 59, 14
1, 1385161, Note_off_c, 0, 59, 44
1, 1385196, Note_on_c, 0, 64, 45
1, 1385247, Note_off_c, 0, 64, 52
1, 1385308, Note_on_c, 0, 59, 36
1, 1385310, Control_c, 0, 64, 97
1, 1385319, Note_on_c, 0, 76, 75
1, 1385325, Control_c, 0, 64, 76
1, 1385340, Control_c, 0, 64, 61
1, 1385346, Note_off_c, 0, 76, 64
1, 1385354, Control_c, 0, 64, 0
1, 1385421, Note_off_c, 0, 59, 51
1, 1385451, Note_on_c, 0, 62, 37
1, 1385454, Note_on_c, 0, 76, 74
1, 1385481, Note_off_c, 0, 62, 59
1, 1385489, Note_off_c, 0, 76, 58
1, 1385522, Note_on_c, 0, 64, 41
1, 1385573, Note_off_c, 0, 64, 47
1, 1385611, Note_on_c, 0, 78, 69
1, 1385616, Note_on_c, 0, 59, 25
1, 1385648, Note_off_c, 0, 78, 63
1, 1385727, Note_on_c, 0, 62, 36
1, 1385740, Note_on_c, 0, 80, 59
1, 1385746, Note_off_c, 0, 59, 34
1, 1385776, Note_off_c, 0, 62, 46
1, 1385788, Note_off_c, 0, 80, 50
1, 1385797, Note_on_c, 0, 64, 41
1, 1385862, Note_off_c, 0, 64, 42
1, 1385897, Control_c, 0, 64, 50
1, 1385910, Note_on_c, 0, 81, 63
1, 1385911, Control_c, 0, 64, 64
1, 1385913, Note_on_c, 0, 57, 36
1, 1385926, Control_c, 0, 64, 73
1, 1385941, Control_c, 0, 64, 85
1, 1385956, Control_c, 0, 64, 110
1, 1385971, Control_c, 0, 64, 127
1, 1385978, Note_off_c, 0, 57, 56
1, 1386011, Note_on_c, 0, 61, 44
1, 1386019, Note_off_c, 0, 81, 59
1, 1386065, Note_off_c, 0, 61, 53
1, 1386096, Note_on_c, 0, 64, 48
1, 1386148, Note_off_c, 0, 64, 54
1, 1386184, Note_on_c, 0, 57, 45
1, 1386232, Note_off_c, 0, 57, 60
1, 1386281, Note_on_c, 0, 61, 44
1, 1386313, Note_off_c, 0, 61, 58
1, 1386366, Note_on_c, 0, 64, 48
1, 1386431, Note_off_c, 0, 64, 50
1, 1386438, Control_c, 0, 64, 112
1, 1386452, Control_c, 0, 64, 75
1, 1386467, Control_c, 0, 64, 56
1, 1386470, Note_on_c, 0, 81, 83
1, 1386472, Note_on_c, 0, 55, 45
1, 1386482, Control_c, 0, 64, 0
1, 1386485, Note_on_c, 0, 69, 59
1, 1386497, Note_off_c, 0, 81, 62
1, 1386506, Note_off_c, 0, 69, 60
1, 1386531, Note_off_c, 0, 55, 58
1, 1386547, Note_on_c, 0, 57, 46
1, 1386603, Note_off_c, 0, 57, 58
1, 1386613, Note_on_c, 0, 69, 69
1, 1386613, Note_on_c, 0, 81, 83
1, 1386639, Note_off_c, 0, 69, 68
1, 1386640, Note_off_c, 0, 81, 63
1, 1386646, Note_on_c, 0, 64, 45
1, 1386706, Note_off_c, 0, 64, 44
1, 1386736, Note_on_c, 0, 55, 44
1, 1386752, Note_on_c, 0, 83, 79
1, 1386756, Note_on_c, 0, 71, 74
1, 1386772, Note_off_c, 0, 83, 70
1, 1386775, Note_off_c, 0, 71, 68
1, 1386808, Note_off_c, 0, 55, 59
1, 1386843, Note_on_c, 0, 57, 30
1, 1386894, Note_on_c, 0, 85, 67
1, 1386896, Note_on_c, 0, 73, 69
1, 1386917, Note_off_c, 0, 85, 67
1, 1386920, Note_off_c, 0, 73, 67
1, 1386926, Note_on_c, 0, 64, 41
1, 1386961, Note_off_c, 0, 57, 34
1, 1386964, Note_off_c, 0, 64, 53
1, 1387022, Control_c, 0, 64, 45
1, 1387037, Control_c, 0, 64, 57
1, 1387038, Note_on_c, 0, 54, 39
1, 1387052, Control_c, 0, 64, 64
1, 1387059, Note_on_c, 0, 74, 73
1, 1387061, Note_on_c, 0, 86, 72
1, 1387066, Control_c, 0, 64, 69
1, 1387081, Control_c, 0, 64, 75
1, 1387096, Control_c, 0, 64, 85
1, 1387111, Control_c, 0, 64, 99
1, 1387123, Note_off_c, 0, 74, 40
1, 1387127, Control_c, 0, 64, 127
1, 1387144, Note_off_c, 0, 54, 55
1, 1387159, Note_on_c, 0, 57, 45
1, 1387165, Note_off_c, 0, 86, 57
1, 1387219, Note_off_c, 0, 57, 53
1, 1387257, Note_on_c, 0, 62, 47
1, 1387314, Note_off_c, 0, 62, 55
1, 1387341, Note_on_c, 0, 54, 39
1, 1387395, Note_off_c, 0, 54, 56
1, 1387441, Note_on_c, 0, 57, 36
1, 1387472, Note_off_c, 0, 57, 54
1, 1387538, Note_on_c, 0, 62, 41
1, 1387570, Note_off_c, 0, 62, 57
1, 1387630, Control_c, 0, 64, 86
1, 1387645, Control_c, 0, 64, 67
1, 1387649, Note_on_c, 0, 50, 44
1, 1387660, Control_c, 0, 64, 57
1, 1387664, Note_on_c, 0, 90, 68
1, 1387675, Control_c, 0, 64, 55
1, 1387676, Note_on_c, 0, 78, 48
1, 1387689, Control_c, 0, 64, 61
1, 1387704, Control_c, 0, 64, 66
1, 1387719, Control_c, 0, 64, 72
1, 1387734, Control_c, 0, 64, 84
1, 1387756, Control_c, 0, 64, 111
1, 1387761, Note_off_c, 0, 50, 57
1, 1387764, Note_off_c, 0, 78, 49
1, 1387771, Control_c, 0, 64, 127
1, 1387774, Note_on_c, 0, 54, 56
1, 1387839, Note_off_c, 0, 90, 38
1, 1387856, Note_on_c, 0, 57, 61
1, 1387886, Note_off_c, 0, 54, 51
1, 1387931, Note_on_c, 0, 50, 54
1, 1387961, Note_on_c, 0, 90, 95
1, 1387969, Note_on_c, 0, 78, 88
1, 1387976, Note_off_c, 0, 57, 38
1, 1388021, Note_off_c, 0, 50, 61
1, 1388038, Note_on_c, 0, 54, 54
1, 1388080, Note_off_c, 0, 78, 59
1, 1388084, Note_off_c, 0, 90, 63
1, 1388086, Note_off_c, 0, 54, 57
1, 1388116, Note_on_c, 0, 57, 60
1, 1388212, Note_on_c, 0, 49, 51
1, 1388215, Note_off_c, 0, 57, 52
1, 1388231, Control_c, 0, 64, 114
1, 1388246, Control_c, 0, 64, 73
1, 1388253, Note_on_c, 0, 88, 96
1, 1388260, Note_on_c, 0, 76, 84
1, 1388261, Control_c, 0, 64, 56
1, 1388276, Control_c, 0, 64, 48
1, 1388291, Control_c, 0, 64, 59
1, 1388305, Control_c, 0, 64, 67
1, 1388312, Note_off_c, 0, 76, 61
1, 1388320, Control_c, 0, 64, 78
1, 1388335, Control_c, 0, 64, 113
1, 1388336, Note_on_c, 0, 52, 52
1, 1388349, Note_off_c, 0, 49, 56
1, 1388350, Control_c, 0, 64, 127
1, 1388376, Note_off_c, 0, 52, 62
1, 1388382, Note_off_c, 0, 88, 64
1, 1388430, Note_on_c, 0, 57, 54
1, 1388506, Note_off_c, 0, 57, 42
1, 1388549, Note_on_c, 0, 47, 46
1, 1388566, Control_c, 0, 64, 84
1, 1388572, Note_on_c, 0, 90, 85
1, 1388580, Control_c, 0, 64, 64
1, 1388590, Note_on_c, 0, 78, 64
1, 1388595, Control_c, 0, 64, 45
1, 1388610, Control_c, 0, 64, 48
1, 1388624, Control_c, 0, 64, 59
1, 1388639, Control_c, 0, 64, 68
1, 1388654, Control_c, 0, 64, 83
1, 1388663, Note_off_c, 0, 47, 58
1, 1388669, Control_c, 0, 64, 105
1, 1388671, Note_on_c, 0, 50, 51
1, 1388684, Control_c, 0, 64, 127
1, 1388710, Note_off_c, 0, 90, 63
1, 1388727, Note_off_c, 0, 50, 54
1, 1388737, Note_off_c, 0, 78, 61
1, 1388761, Note_on_c, 0, 57, 47
1, 1388789, Control_c, 0, 67, 20
1, 1388818, Control_c, 0, 67, 22
1, 1388833, Control_c, 0, 67, 24
1, 1388847, Control_c, 0, 64, 105
1, 1388847, Control_c, 0, 67, 30
1, 1388862, Control_c, 0, 64, 76
1, 1388862, Control_c, 0, 67, 38
1, 1388876, Note_on_c, 0, 88, 76
1, 1388877, Control_c, 0, 64, 59
1, 1388877, Control_c, 0, 67, 50
1, 1388881, Note_off_c, 0, 57, 38
1, 1388889, Note_on_c, 0, 49, 41
1, 1388891, Note_on_c, 0, 76, 56
1, 1388892, Control_c, 0, 64, 41
1, 1388892, Control_c, 0, 67, 64
1, 1388907, Control_c, 0, 64, 44
1, 1388907, Control_c, 0, 67, 80
1, 1388921, Control_c, 0, 64, 54
1, 1388921, Control_c, 0, 67, 89
1, 1388936, Note_off_c, 0, 88, 61
1, 1388936, Control_c, 0, 64, 64
1, 1388936, Control_c, 0, 67, 96
1, 1388950, Note_off_c, 0, 49, 58
1, 1388951, Control_c, 0, 64, 72
1, 1388951, Control_c, 0, 67, 103
1, 1388966, Control_c, 0, 64, 81
1, 1388966, Control_c, 0, 67, 111
1, 1388980, Note_on_c, 0, 52, 49
1, 1388981, Control_c, 0, 64, 90
1, 1388981, Control_c, 0, 67, 117
1, 1388983, Note_off_c, 0, 76, 53
1, 1388995, Control_c, 0, 64, 94
1, 1388995, Control_c, 0, 67, 121
1, 1389010, Control_c, 0, 64, 97
1, 1389040, Control_c, 0, 64, 101
1, 1389040, Control_c, 0, 67, 123
1, 1389050, Note_off_c, 0, 52, 41
1, 1389055, Control_c, 0, 64, 105
1, 1389058, Note_on_c, 0, 57, 43
1, 1389070, Control_c, 0, 64, 112
1, 1389085, Control_c, 0, 64, 127
1, 1389129, Control_c, 0, 67, 125
1, 1389144, Control_c, 0, 64, 95
1, 1389144, Control_c, 0, 67, 127
1, 1389146, Note_off_c, 0, 57, 39
1, 1389147, Note_on_c, 0, 45, 45
1, 1389159, Control_c, 0, 64, 76
1, 1389173, Control_c, 0, 64, 64
1, 1389177, Note_on_c, 0, 85, 61
1, 1389188, Note_on_c, 0, 73, 51
1, 1389188, Control_c, 0, 64, 56
1, 1389203, Control_c, 0, 64, 57
1, 1389218, Control_c, 0, 64, 61
1, 1389233, Control_c, 0, 64, 66
1, 1389254, Control_c, 0, 64, 75
1, 1389266, Note_off_c, 0, 45, 39
1, 1389269, Note_on_c, 0, 52, 46
1, 1389269, Control_c, 0, 64, 86
1, 1389284, Control_c, 0, 64, 98
1, 1389290, Note_off_c, 0, 85, 64
1, 1389299, Control_c, 0, 64, 107
1, 1389311, Note_off_c, 0, 52, 63
1, 1389314, Control_c, 0, 64, 114
1, 1389329, Control_c, 0, 64, 117
1, 1389344, Note_off_c, 0, 73, 59
1, 1389359, Control_c, 0, 64, 119
1, 1389370, Note_on_c, 0, 57, 42
1, 1389373, Control_c, 0, 64, 127
1, 1389424, Note_off_c, 0, 57, 43
1, 1389462, Control_c, 0, 64, 99
1, 1389467, Note_on_c, 0, 52, 45
1, 1389477, Control_c, 0, 64, 81
1, 1389492, Control_c, 0, 64, 67
1, 1389493, Note_on_c, 0, 83, 60
1, 1389507, Note_on_c, 0, 71, 37
1, 1389507, Control_c, 0, 64, 55
1, 1389523, Control_c, 0, 64, 50
1, 1389538, Control_c, 0, 64, 55
1, 1389552, Control_c, 0, 64, 61
1, 1389567, Control_c, 0, 64, 66
1, 1389582, Control_c, 0, 64, 73
1, 1389585, Note_off_c, 0, 52, 56
1, 1389596, Control_c, 0, 64, 83
1, 1389600, Note_on_c, 0, 56, 48
1, 1389611, Control_c, 0, 64, 93
1, 1389626, Control_c, 0, 64, 99
1, 1389630, Note_off_c, 0, 83, 39
1, 1389641, Control_c, 0, 64, 104
1, 1389648, Note_off_c, 0, 71, 41
1, 1389660, Note_off_c, 0, 56, 55
1, 1389668, Note_on_c, 0, 59, 53
1, 1389700, Control_c, 0, 64, 106
1, 1389708, Note_off_c, 0, 59, 63
1, 1389760, Note_on_c, 0, 64, 54
1, 1389811, Note_off_c, 0, 64, 52
1, 1389847, Note_on_c, 0, 63, 60
1, 1389892, Note_off_c, 0, 63, 58
1, 1389907, Control_c, 0, 64, 101
1, 1389922, Control_c, 0, 64, 93
1, 1389934, Note_on_c, 0, 62, 60
1, 1389937, Control_c, 0, 64, 82
1, 1389952, Control_c, 0, 64, 71
1, 1389967, Control_c, 0, 64, 60
1, 1389982, Control_c, 0, 64, 38
1, 1390003, Control_c, 0, 64, 0
1, 1390007, Note_off_c, 0, 62, 52
1, 1390069, Note_on_c, 0, 61, 40
1, 1390092, Control_c, 0, 64, 36
1, 1390095, Note_on_c, 0, 76, 63
1, 1390107, Control_c, 0, 64, 55
1, 1390122, Control_c, 0, 64, 65
1, 1390137, Control_c, 0, 64, 72
1, 1390152, Control_c, 0, 64, 80
1, 1390152, Control_c, 0, 67, 123
1, 1390167, Control_c, 0, 64, 88
1, 1390167, Control_c, 0, 67, 103
1, 1390181, Note_off_c, 0, 61, 57
1, 1390182, Control_c, 0, 64, 99
1, 1390182, Control_c, 0, 67, 76
1, 1390191, Note_on_c, 0, 64, 54
1, 1390196, Control_c, 0, 64, 127
1, 1390196, Control_c, 0, 67, 42
1, 1390211, Control_c, 0, 67, 0
1, 1390227, Note_off_c, 0, 76, 58
1, 1390240, Note_off_c, 0, 64, 56
1, 1390288, Note_on_c, 0, 69, 52
1, 1390372, Note_off_c, 0, 69, 49
1, 1390381, Note_on_c, 0, 61, 35
1, 1390387, Note_on_c, 0, 76, 87
1, 1390441, Note_off_c, 0, 61, 52
1, 1390456, Note_on_c, 0, 64, 51
1, 1390474, Note_off_c, 0, 76, 60
1, 1390499, Note_off_c, 0, 64, 60
1, 1390549, Note_on_c, 0, 69, 49
1, 1390608, Note_off_c, 0, 69, 44
1, 1390658, Note_on_c, 0, 59, 38
1, 1390671, Control_c, 0, 64, 100
1, 1390685, Control_c, 0, 64, 76
1, 1390700, Control_c, 0, 64, 63
1, 1390710, Note_on_c, 0, 76, 70
1, 1390715, Control_c, 0, 64, 48
1, 1390730, Control_c, 0, 64, 41
1, 1390753, Control_c, 0, 64, 49
1, 1390767, Control_c, 0, 64, 58
1, 1390774, Note_off_c, 0, 59, 58
1, 1390782, Control_c, 0, 64, 63
1, 1390797, Control_c, 0, 64, 67
1, 1390806, Note_on_c, 0, 62, 40
1, 1390812, Control_c, 0, 64, 75
1, 1390826, Control_c, 0, 64, 87
1, 1390841, Control_c, 0, 64, 116
1, 1390856, Control_c, 0, 64, 127
1, 1390872, Note_off_c, 0, 62, 48
1, 1390917, Note_on_c, 0, 68, 39
1, 1390927, Note_off_c, 0, 76, 61
1, 1390962, Note_off_c, 0, 68, 47
1, 1390974, Note_on_c, 0, 59, 31
1, 1391038, Note_off_c, 0, 59, 58
1, 1391080, Note_on_c, 0, 62, 40
1, 1391121, Note_off_c, 0, 62, 50
1, 1391162, Note_on_c, 0, 68, 49
1, 1391207, Note_off_c, 0, 68, 55
1, 1391255, Note_on_c, 0, 59, 38
1, 1391277, Note_on_c, 0, 76, 70
1, 1391302, Control_c, 0, 64, 96
1, 1391308, Note_off_c, 0, 76, 62
1, 1391316, Control_c, 0, 64, 79
1, 1391331, Control_c, 0, 64, 66
1, 1391346, Control_c, 0, 64, 56
1, 1391361, Control_c, 0, 64, 44
1, 1391362, Note_off_c, 0, 59, 52
1, 1391375, Control_c, 0, 64, 39
1, 1391380, Note_on_c, 0, 62, 51
1, 1391390, Control_c, 0, 64, 37
1, 1391405, Control_c, 0, 64, 35
1, 1391420, Control_c, 0, 64, 0
1, 1391425, Note_on_c, 0, 76, 73
1, 1391457, Note_off_c, 0, 62, 42
1, 1391460, Note_off_c, 0, 76, 59
1, 1391476, Note_on_c, 0, 67, 53
1, 1391549, Note_off_c, 0, 67, 51
1, 1391557, Note_on_c, 0, 59, 33
1, 1391563, Note_on_c, 0, 78, 63
1, 1391597, Note_off_c, 0, 78, 62
1, 1391666, Note_on_c, 0, 62, 39
1, 1391693, Note_on_c, 0, 79, 64
1, 1391722, Note_off_c, 0, 62, 56
1, 1391744, Note_on_c, 0, 67, 32
1, 1391745, Note_off_c, 0, 79, 48
1, 1391791, Note_off_c, 0, 67, 48
1, 1391797, Note_off_c, 0, 59, 48
1, 1391842, Control_c, 0, 64, 55
1, 1391845, Note_on_c, 0, 78, 66
1, 1391847, Note_on_c, 0, 58, 42
1, 1391857, Control_c, 0, 64, 67
1, 1391872, Control_c, 0, 64, 77
1, 1391886, Control_c, 0, 64, 92
1, 1391901, Control_c, 0, 64, 127
1, 1391919, Note_off_c, 0, 58, 57
1, 1391925, Note_off_c, 0, 78, 54
1, 1391960, Note_on_c, 0, 61, 45
1, 1392005, Note_off_c, 0, 61, 58
1, 1392054, Note_on_c, 0, 66, 34
1, 1392098, Note_off_c, 0, 66, 47
1, 1392131, Note_on_c, 0, 58, 46
1, 1392186, Note_off_c, 0, 58, 58
1, 1392244, Note_on_c, 0, 61, 39
1, 1392270, Note_off_c, 0, 61, 56
1, 1392298, Note_on_c, 0, 66, 64
1, 1392334, Note_off_c, 0, 66, 60
1, 1392405, Note_on_c, 0, 54, 50
1, 1392413, Control_c, 0, 64, 98
1, 1392428, Control_c, 0, 64, 73
1, 1392432, Note_on_c, 0, 78, 77
1, 1392434, Note_on_c, 0, 66, 71
1, 1392443, Control_c, 0, 64, 60
1, 1392458, Control_c, 0, 64, 33
1, 1392461, Note_off_c, 0, 78, 60
1, 1392463, Note_off_c, 0, 66, 57
1, 1392472, Control_c, 0, 64, 0
1, 1392538, Note_on_c, 0, 58, 44
1, 1392564, Note_on_c, 0, 78, 84
1, 1392566, Note_on_c, 0, 66, 76
1, 1392600, Note_off_c, 0, 66, 64
1, 1392608, Note_off_c, 0, 78, 61
1, 1392613, Note_on_c, 0, 61, 41
1, 1392620, Note_off_c, 0, 58, 57
1, 1392631, Note_off_c, 0, 54, 59
1, 1392662, Note_off_c, 0, 61, 55
1, 1392674, Note_on_c, 0, 52, 53
1, 1392704, Note_on_c, 0, 80, 86
1, 1392712, Note_on_c, 0, 68, 74
1, 1392734, Note_off_c, 0, 80, 56
1, 1392734, Note_off_c, 0, 68, 71
1, 1392771, Note_on_c, 0, 54, 46
1, 1392835, Note_on_c, 0, 82, 83
1, 1392837, Note_off_c, 0, 54, 56
1, 1392838, Note_on_c, 0, 70, 77
1, 1392861, Note_on_c, 0, 61, 43
1, 1392861, Note_off_c, 0, 70, 67
1, 1392868, Note_off_c, 0, 82, 54
1, 1392897, Note_off_c, 0, 61, 57
1, 1392953, Note_off_c, 0, 52, 59
1, 1392984, Note_on_c, 0, 50, 46
1, 1392995, Note_on_c, 0, 71, 70
1, 1392998, Note_on_c, 0, 83, 76
1, 1393028, Control_c, 0, 64, 52
1, 1393043, Control_c, 0, 64, 64
1, 1393058, Control_c, 0, 64, 70
1, 1393073, Control_c, 0, 64, 76
1, 1393078, Note_off_c, 0, 50, 59
1, 1393088, Control_c, 0, 64, 85
1, 1393090, Note_on_c, 0, 54, 48
1, 1393095, Note_off_c, 0, 71, 51
1, 1393103, Control_c, 0, 64, 98
1, 1393118, Control_c, 0, 64, 127
1, 1393136, Note_off_c, 0, 83, 58
1, 1393144, Note_off_c, 0, 54, 53
1, 1393174, Note_on_c, 0, 59, 43
1, 1393228, Note_off_c, 0, 59, 50
1, 1393258, Note_on_c, 0, 50, 47
1, 1393342, Note_off_c, 0, 50, 59
1, 1393374, Note_on_c, 0, 54, 48
1, 1393410, Note_off_c, 0, 54, 62
1, 1393476, Note_on_c, 0, 59, 34
1, 1393523, Note_off_c, 0, 59, 46
1, 1393562, Control_c, 0, 64, 82
1, 1393575, Note_on_c, 0, 52, 43
1, 1393577, Control_c, 0, 64, 65
1, 1393592, Control_c, 0, 64, 52
1, 1393604, Note_on_c, 0, 85, 75
1, 1393607, Control_c, 0, 64, 51
1, 1393620, Note_on_c, 0, 73, 56
1, 1393622, Control_c, 0, 64, 57
1, 1393636, Control_c, 0, 64, 62
1, 1393651, Control_c, 0, 64, 67
1, 1393666, Control_c, 0, 64, 77
1, 1393681, Control_c, 0, 64, 100
1, 1393697, Control_c, 0, 64, 127
1, 1393726, Note_on_c, 0, 61, 64
1, 1393758, Note_off_c, 0, 85, 58
1, 1393766, Note_off_c, 0, 52, 35
1, 1393768, Note_off_c, 0, 73, 35
1, 1393809, Note_on_c, 0, 64, 63
1, 1393811, Note_off_c, 0, 61, 60
1, 1393887, Note_on_c, 0, 52, 60
1, 1393897, Note_off_c, 0, 64, 57
1, 1393900, Note_on_c, 0, 85, 97
1, 1393903, Note_on_c, 0, 73, 91
1, 1393955, Note_off_c, 0, 52, 60
1, 1393983, Note_off_c, 0, 73, 60
1, 1394000, Note_on_c, 0, 61, 62
1, 1394032, Note_off_c, 0, 61, 65
1, 1394040, Note_off_c, 0, 85, 62
1, 1394079, Note_on_c, 0, 64, 60
1, 1394158, Note_off_c, 0, 64, 56
1, 1394182, Note_on_c, 0, 54, 52
1, 1394208, Control_c, 0, 64, 85
1, 1394216, Note_on_c, 0, 86, 95
1, 1394223, Control_c, 0, 64, 63
1, 1394227, Note_on_c, 0, 74, 77
1, 1394237, Control_c, 0, 64, 51
1, 1394252, Control_c, 0, 64, 56
1, 1394267, Control_c, 0, 64, 64
1, 1394282, Control_c, 0, 64, 73
1, 1394296, Control_c, 0, 64, 89
1, 1394313, Control_c, 0, 64, 127
1, 1394315, Note_on_c, 0, 62, 55
1, 1394319, Note_off_c, 0, 54, 53
1, 1394364, Note_off_c, 0, 86, 62
1, 1394368, Note_off_c, 0, 62, 55
1, 1394388, Note_off_c, 0, 74, 60
1, 1394405, Note_on_c, 0, 66, 63
1, 1394462, Note_off_c, 0, 66, 54
1, 1394474, Control_c, 0, 64, 100
1, 1394492, Note_on_c, 0, 54, 45
1, 1394497, Control_c, 0, 64, 74
1, 1394512, Control_c, 0, 64, 61
1, 1394527, Control_c, 0, 64, 55
1, 1394535, Note_on_c, 0, 85, 86
1, 1394541, Control_c, 0, 64, 60
1, 1394544, Note_off_c, 0, 54, 40
1, 1394551, Note_on_c, 0, 73, 68
1, 1394556, Control_c, 0, 64, 66
1, 1394571, Control_c, 0, 64, 75
1, 1394585, Control_c, 0, 64, 92
1, 1394600, Control_c, 0, 64, 127
1, 1394655, Note_on_c, 0, 64, 53
1, 1394677, Note_off_c, 0, 85, 64
1, 1394689, Note_off_c, 0, 73, 57
1, 1394692, Note_off_c, 0, 64, 65
1, 1394725, Note_on_c, 0, 67, 48
1, 1394751, Note_off_c, 0, 67, 58
1, 1394793, Control_c, 0, 64, 95
1, 1394808, Control_c, 0, 64, 70
1, 1394823, Control_c, 0, 64, 53
1, 1394825, Note_on_c, 0, 54, 48
1, 1394835, Note_on_c, 0, 83, 76
1, 1394838, Control_c, 0, 64, 34
1, 1394838, Note_on_c, 0, 71, 59
1, 1394853, Control_c, 0, 64, 46
1, 1394867, Control_c, 0, 64, 57
1, 1394882, Control_c, 0, 64, 64
1, 1394897, Control_c, 0, 64, 72
1, 1394902, Note_off_c, 0, 54, 55
1, 1394911, Control_c, 0, 64, 85
1, 1394926, Control_c, 0, 64, 115
1, 1394935, Note_on_c, 0, 62, 49
1, 1394941, Control_c, 0, 64, 127
1, 1394946, Note_off_c, 0, 71, 37
1, 1394977, Note_off_c, 0, 62, 63
1, 1395011, Note_on_c, 0, 66, 54
1, 1395055, Note_off_c, 0, 66, 54
1, 1395106, Note_on_c, 0, 54, 45
1, 1395120, Control_c, 0, 64, 78
1, 1395126, Note_on_c, 0, 82, 68
1, 1395134, Control_c, 0, 64, 59
1, 1395137, Note_on_c, 0, 70, 52
1, 1395149, Control_c, 0, 64, 0
1, 1395164, Note_off_c, 0, 83, 52
1, 1395179, Control_c, 0, 64, 46
1, 1395194, Control_c, 0, 64, 58
1, 1395205, Note_off_c, 0, 54, 51
1, 1395208, Control_c, 0, 64, 67
1, 1395212, Note_on_c, 0, 61, 44
1, 1395223, Control_c, 0, 64, 78
1, 1395246, Control_c, 0, 64, 89
1, 1395258, Note_off_c, 0, 61, 62
1, 1395261, Control_c, 0, 64, 96
1, 1395276, Control_c, 0, 64, 100
1, 1395290, Control_c, 0, 64, 105
1, 1395305, Control_c, 0, 64, 113
1, 1395316, Note_off_c, 0, 70, 49
1, 1395318, Note_on_c, 0, 64, 39
1, 1395320, Control_c, 0, 64, 127
1, 1395363, Note_off_c, 0, 82, 38
1, 1395373, Note_off_c, 0, 64, 52
1, 1395423, Control_c, 0, 64, 97
1, 1395438, Control_c, 0, 64, 77
1, 1395448, Note_on_c, 0, 59, 32
1, 1395450, Note_on_c, 0, 83, 53
1, 1395453, Control_c, 0, 64, 62
1, 1395455, Note_on_c, 0, 71, 46
1, 1395468, Control_c, 0, 64, 39
1, 1395482, Control_c, 0, 64, 0
1, 1395497, Control_c, 0, 64, 36
1, 1395512, Control_c, 0, 64, 53
1, 1395527, Control_c, 0, 64, 63
1, 1395532, Note_off_c, 0, 83, 50
1, 1395541, Control_c, 0, 64, 71
1, 1395555, Note_on_c, 0, 62, 53
1, 1395556, Control_c, 0, 64, 81
1, 1395571, Control_c, 0, 64, 93
1, 1395582, Note_off_c, 0, 59, 37
1, 1395586, Control_c, 0, 64, 101
1, 1395592, Note_off_c, 0, 71, 54
1, 1395601, Control_c, 0, 64, 109
1, 1395616, Control_c, 0, 64, 122
1, 1395631, Control_c, 0, 64, 127
1, 1395637, Note_off_c, 0, 62, 60
1, 1395646, Note_on_c, 0, 66, 58
1, 1395682, Note_off_c, 0, 66, 63
1, 1395747, Note_on_c, 0, 71, 51
1, 1395836, Note_on_c, 0, 74, 53
1, 1395841, Note_off_c, 0, 71, 37
1, 1395922, Note_on_c, 0, 78, 54
1, 1396030, Note_off_c, 0, 74, 27
1, 1396033, Note_on_c, 0, 66, 85
1, 1396039, Control_c, 0, 64, 90
1, 1396054, Note_on_c, 0, 71, 61
1, 1396054, Control_c, 0, 64, 72
1, 1396069, Control_c, 0, 64, 58
1, 1396079, Note_off_c, 0, 66, 57
1, 1396084, Control_c, 0, 64, 38
1, 1396092, Note_off_c, 0, 78, 36
1, 1396099, Control_c, 0, 64, 0
1, 1396140, Note_on_c, 0, 74, 66
1, 1396182, Note_off_c, 0, 71, 35
1, 1396232, Control_c, 0, 64, 33
1, 1396236, Note_on_c, 0, 78, 57
1, 1396246, Control_c, 0, 64, 33
1, 1396261, Control_c, 0, 64, 34
1, 1396290, Control_c, 0, 64, 35
1, 1396310, Note_off_c, 0, 74, 36
1, 1396350, Note_on_c, 0, 66, 97
1, 1396352, Note_off_c, 0, 78, 51
1, 1396356, Note_on_c, 0, 71, 56
1, 1396388, Note_off_c, 0, 66, 57
1, 1396394, Control_c, 0, 64, 35
1, 1396431, Note_off_c, 0, 71, 62
1, 1396436, Note_on_c, 0, 74, 64
1, 1396534, Note_on_c, 0, 78, 55
1, 1396543, Control_c, 0, 64, 36
1, 1396557, Control_c, 0, 64, 37
1, 1396572, Control_c, 0, 64, 40
1, 1396587, Control_c, 0, 64, 44
1, 1396600, Note_off_c, 0, 74, 33
1, 1396602, Control_c, 0, 64, 50
1, 1396617, Control_c, 0, 64, 57
1, 1396631, Control_c, 0, 64, 64
1, 1396646, Control_c, 0, 64, 71
1, 1396661, Control_c, 0, 64, 81
1, 1396670, Note_on_c, 0, 70, 60
1, 1396676, Control_c, 0, 64, 94
1, 1396677, Note_on_c, 0, 66, 91
1, 1396689, Control_c, 0, 64, 112
1, 1396705, Control_c, 0, 64, 127
1, 1396750, Note_off_c, 0, 78, 18
1, 1396769, Note_on_c, 0, 73, 61
1, 1396779, Note_off_c, 0, 66, 48
1, 1396824, Note_off_c, 0, 70, 36
1, 1396865, Note_on_c, 0, 78, 58
1, 1396892, Note_off_c, 0, 73, 53
1, 1396945, Note_on_c, 0, 70, 63
1, 1397025, Note_off_c, 0, 70, 57
1, 1397031, Note_on_c, 0, 73, 57
1, 1397031, Note_off_c, 0, 78, 44
1, 1397127, Note_off_c, 0, 73, 47
1, 1397133, Note_on_c, 0, 78, 51
1, 1397244, Note_on_c, 0, 66, 82
1, 1397246, Note_off_c, 0, 78, 0
1, 1397260, Note_on_c, 0, 73, 73
1, 1397290, Note_off_c, 0, 66, 58
1, 1397291, Control_c, 0, 64, 87
1, 1397305, Control_c, 0, 64, 66
1, 1397313, Poly_aftertouch_c, 0, 78, 0
1, 1397320, Control_c, 0, 64, 51
1, 1397335, Control_c, 0, 64, 39
1, 1397350, Control_c, 0, 64, 39
1, 1397351, Note_off_c, 0, 73, 56
1, 1397362, Note_on_c, 0, 76, 63
1, 1397365, Control_c, 0, 64, 41
1, 1397379, Note_on_c, 0, 66, 74
1, 1397379, Control_c, 0, 64, 42
1, 1397415, Note_off_c, 0, 66, 60
1, 1397424, Control_c, 0, 64, 43
1, 1397435, Note_on_c, 0, 78, 59
1, 1397439, Control_c, 0, 64, 43
1, 1397453, Control_c, 0, 64, 44
1, 1397490, Note_off_c, 0, 76, 54
1, 1397519, Note_on_c, 0, 73, 72
1, 1397524, Note_on_c, 0, 68, 71
1, 1397556, Note_off_c, 0, 68, 61
1, 1397571, Note_off_c, 0, 78, 54
1, 1397595, Control_c, 0, 64, 44
1, 1397607, Note_off_c, 0, 73, 59
1, 1397618, Note_on_c, 0, 76, 64
1, 1397646, Note_on_c, 0, 70, 82
1, 1397684, Control_c, 0, 64, 44
1, 1397686, Note_off_c, 0, 70, 58
1, 1397692, Note_on_c, 0, 78, 71
1, 1397729, Control_c, 0, 64, 43
1, 1397732, Note_off_c, 0, 76, 53
1, 1397758, Control_c, 0, 64, 46
1, 1397773, Control_c, 0, 64, 56
1, 1397788, Control_c, 0, 64, 66
1, 1397799, Note_on_c, 0, 71, 93
1, 1397803, Control_c, 0, 64, 90
1, 1397811, Note_on_c, 0, 74, 79
1, 1397816, Note_off_c, 0, 78, 61
1, 1397817, Control_c, 0, 64, 127
1, 1397832, Note_off_c, 0, 71, 63
1, 1397891, Note_off_c, 0, 74, 59
1, 1397911, Note_on_c, 0, 78, 68
1, 1397987, Note_off_c, 0, 78, 57
1, 1397998, Note_on_c, 0, 74, 70
1, 1398054, Note_off_c, 0, 74, 49
1, 1398090, Note_on_c, 0, 71, 67
1, 1398168, Note_off_c, 0, 71, 59
1, 1398183, Note_on_c, 0, 74, 68
1, 1398252, Note_off_c, 0, 74, 61
1, 1398281, Note_on_c, 0, 78, 38
1, 1398313, Note_off_c, 0, 78, 48
1, 1398368, Note_on_c, 0, 59, 82
1, 1398373, Note_on_c, 0, 78, 86
1, 1398408, Note_off_c, 0, 59, 60
1, 1398419, Control_c, 0, 64, 77
1, 1398433, Control_c, 0, 64, 59
1, 1398437, Note_off_c, 0, 78, 58
1, 1398448, Control_c, 0, 64, 0
1, 1398474, Note_on_c, 0, 81, 66
1, 1398501, Note_on_c, 0, 59, 84
1, 1398546, Note_off_c, 0, 59, 59
1, 1398563, Note_on_c, 0, 83, 60
1, 1398588, Note_off_c, 0, 81, 56
1, 1398612, Control_c, 0, 64, 33
1, 1398626, Control_c, 0, 64, 35
1, 1398631, Note_on_c, 0, 78, 85
1, 1398638, Note_on_c, 0, 61, 84
1, 1398641, Control_c, 0, 64, 36
1, 1398672, Note_off_c, 0, 61, 59
1, 1398684, Note_off_c, 0, 83, 55
1, 1398685, Control_c, 0, 64, 36
1, 1398722, Note_on_c, 0, 81, 82
1, 1398725, Note_off_c, 0, 78, 62
1, 1398753, Note_on_c, 0, 63, 96
1, 1398759, Control_c, 0, 64, 37
1, 1398801, Note_off_c, 0, 63, 61
1, 1398804, Control_c, 0, 64, 36
1, 1398811, Note_on_c, 0, 83, 78
1, 1398819, Control_c, 0, 64, 35
1, 1398833, Control_c, 0, 64, 34
1, 1398848, Control_c, 0, 64, 34
1, 1398853, Note_off_c, 0, 81, 58
1, 1398863, Control_c, 0, 64, 35
1, 1398877, Control_c, 0, 64, 46
1, 1398892, Control_c, 0, 64, 61
1, 1398897, Note_on_c, 0, 64, 106
1, 1398907, Control_c, 0, 64, 84
1, 1398911, Note_on_c, 0, 76, 94
1, 1398922, Control_c, 0, 64, 127
1, 1398932, Note_off_c, 0, 64, 65
1, 1398958, Note_off_c, 0, 83, 61
1, 1398999, Note_on_c, 0, 79, 90
1, 1399026, Note_off_c, 0, 76, 63
1, 1399091, Note_on_c, 0, 83, 86
1, 1399110, Note_off_c, 0, 79, 59
1, 1399184, Note_on_c, 0, 76, 89
1, 1399222, Note_off_c, 0, 83, 57
1, 1399265, Note_on_c, 0, 79, 88
1, 1399287, Note_off_c, 0, 76, 59
1, 1399351, Note_on_c, 0, 83, 84
1, 1399359, Note_off_c, 0, 79, 64
1, 1399393, Note_off_c, 0, 83, 65
1, 1399458, Note_on_c, 0, 52, 79
1, 1399459, Note_on_c, 0, 83, 88
1, 1399512, Note_off_c, 0, 52, 61
1, 1399548, Note_on_c, 0, 88, 96
1, 1399568, Control_c, 0, 64, 108
1, 1399574, Note_off_c, 0, 83, 62
1, 1399582, Control_c, 0, 64, 83
1, 1399591, Note_on_c, 0, 52, 87
1, 1399597, Control_c, 0, 64, 66
1, 1399612, Control_c, 0, 64, 52
1, 1399626, Control_c, 0, 64, 38
1, 1399629, Note_on_c, 0, 91, 95
1, 1399641, Control_c, 0, 64, 37
1, 1399644, Note_off_c, 0, 52, 60
1, 1399656, Control_c, 0, 64, 37
1, 1399659, Note_off_c, 0, 88, 62
1, 1399735, Note_on_c, 0, 83, 100
1, 1399737, Note_on_c, 0, 54, 68
1, 1399759, Note_off_c, 0, 54, 59
1, 1399789, Note_off_c, 0, 91, 54
1, 1399823, Note_on_c, 0, 88, 95
1, 1399844, Note_on_c, 0, 55, 79
1, 1399852, Note_off_c, 0, 83, 63
1, 1399890, Note_off_c, 0, 55, 57
1, 1399908, Note_on_c, 0, 91, 94
1, 1399946, Control_c, 0, 64, 37
1, 1399959, Note_off_c, 0, 88, 57
1, 1399976, Note_on_c, 0, 89, 10
1, 1399976, Control_c, 0, 64, 37
1, 1399991, Control_c, 0, 64, 39
1, 1400000, Note_off_c, 0, 89, 45
1, 1400005, Control_c, 0, 64, 46
1, 1400008, Note_on_c, 0, 54, 85
1, 1400016, Note_on_c, 0, 81, 90
1, 1400020, Control_c, 0, 64, 56
1, 1400035, Control_c, 0, 64, 63
1, 1400049, Control_c, 0, 64, 70
1, 1400064, Control_c, 0, 64, 81
1, 1400079, Control_c, 0, 64, 95
1, 1400094, Control_c, 0, 64, 113
1, 1400106, Note_on_c, 0, 86, 90
1, 1400109, Control_c, 0, 64, 127
1, 1400120, Note_off_c, 0, 91, 64
1, 1400144, Note_off_c, 0, 81, 61
1, 1400191, Note_on_c, 0, 93, 88
1, 1400272, Note_off_c, 0, 86, 58
1, 1400301, Note_on_c, 0, 83, 90
1, 1400308, Note_on_c, 0, 55, 91
1, 1400359, Note_off_c, 0, 54, 61
1, 1400373, Note_off_c, 0, 93, 58
1, 1400381, Note_on_c, 0, 86, 89
1, 1400422, Note_off_c, 0, 83, 62
1, 1400484, Note_on_c, 0, 91, 84
1, 1400597, Note_on_c, 0, 57, 80
1, 1400597, Note_off_c, 0, 86, 55
1, 1400605, Control_c, 0, 64, 106
1, 1400607, Note_on_c, 0, 81, 77
1, 1400620, Control_c, 0, 64, 83
1, 1400629, Note_off_c, 0, 55, 60
1, 1400635, Control_c, 0, 64, 66
1, 1400650, Control_c, 0, 64, 47
1, 1400652, Note_off_c, 0, 57, 63
1, 1400664, Control_c, 0, 64, 0
1, 1400697, Note_off_c, 0, 91, 60
1, 1400705, Note_on_c, 0, 86, 72
1, 1400734, Note_off_c, 0, 81, 54
1, 1400794, Note_on_c, 0, 90, 65
1, 1400832, Note_off_c, 0, 86, 60
1, 1400843, Control_c, 0, 67, 20
1, 1400858, Control_c, 0, 67, 22
1, 1400871, Note_off_c, 0, 90, 61
1, 1400887, Control_c, 0, 67, 24
1, 1400895, Note_on_c, 0, 81, 66
1, 1400900, Note_on_c, 0, 57, 61
1, 1400902, Control_c, 0, 67, 27
1, 1400917, Control_c, 0, 67, 29
1, 1400932, Control_c, 0, 67, 34
1, 1400937, Note_off_c, 0, 57, 62
1, 1400946, Control_c, 0, 67, 41
1, 1400961, Control_c, 0, 67, 53
1, 1400976, Control_c, 0, 67, 68
1, 1400987, Note_on_c, 0, 85, 62
1, 1400991, Control_c, 0, 67, 82
1, 1401006, Control_c, 0, 67, 94
1, 1401012, Note_off_c, 0, 81, 46
1, 1401020, Control_c, 0, 67, 103
1, 1401035, Control_c, 0, 67, 112
1, 1401050, Control_c, 0, 67, 119
1, 1401065, Control_c, 0, 67, 125
1, 1401080, Control_c, 0, 67, 127
1, 1401085, Note_on_c, 0, 88, 63
1, 1401092, Note_off_c, 0, 85, 62
1, 1401187, Note_off_c, 0, 88, 56
1, 1401196, Note_on_c, 0, 50, 39
1, 1401198, Note_on_c, 0, 86, 59
1, 1401199, Control_c, 0, 64, 38
1, 1401214, Control_c, 0, 64, 57
1, 1401235, Control_c, 0, 64, 64
1, 1401250, Control_c, 0, 64, 69
1, 1401265, Control_c, 0, 64, 73
1, 1401279, Control_c, 0, 64, 78
1, 1401285, Note_off_c, 0, 86, 61
1, 1401285, Note_on_c, 0, 90, 67
1, 1401294, Control_c, 0, 64, 82
1, 1401309, Note_off_c, 0, 50, 57
1, 1401309, Control_c, 0, 64, 87
1, 1401324, Control_c, 0, 64, 92
1, 1401339, Control_c, 0, 64, 96
1, 1401354, Control_c, 0, 64, 101
1, 1401369, Control_c, 0, 64, 106
1, 1401375, Note_on_c, 0, 86, 64
1, 1401384, Control_c, 0, 64, 111
1, 1401398, Control_c, 0, 64, 116
1, 1401413, Control_c, 0, 64, 119
1, 1401417, Note_off_c, 0, 90, 48
1, 1401419, Note_off_c, 0, 86, 60
1, 1401428, Control_c, 0, 64, 127
1, 1401475, Note_on_c, 0, 81, 61
1, 1401512, Note_off_c, 0, 81, 48
1, 1401572, Note_on_c, 0, 78, 60
1, 1401663, Note_on_c, 0, 74, 60
1, 1401666, Control_c, 0, 64, 106
1, 1401681, Control_c, 0, 64, 86
1, 1401696, Control_c, 0, 64, 69
1, 1401700, Note_off_c, 0, 78, 38
1, 1401710, Control_c, 0, 64, 55
1, 1401725, Control_c, 0, 64, 41
1, 1401737, Note_off_c, 0, 74, 52
1, 1401740, Control_c, 0, 64, 49
1, 1401755, Control_c, 0, 64, 59
1, 1401764, Note_on_c, 0, 62, 37
1, 1401769, Note_on_c, 0, 69, 37
1, 1401769, Control_c, 0, 64, 65
1, 1401782, Note_on_c, 0, 66, 28
1, 1401784, Control_c, 0, 64, 69
1, 1401791, Note_on_c, 0, 81, 52
1, 1401799, Control_c, 0, 64, 75
1, 1401814, Control_c, 0, 64, 79
1, 1401822, Note_off_c, 0, 62, 58
1, 1401828, Control_c, 0, 64, 82
1, 1401837, Note_off_c, 0, 69, 60
1, 1401843, Control_c, 0, 64, 86
1, 1401851, Note_off_c, 0, 66, 46
1, 1401858, Control_c, 0, 64, 89
1, 1401873, Control_c, 0, 64, 91
1, 1401888, Control_c, 0, 64, 93
1, 1401890, Note_on_c, 0, 78, 48
1, 1401902, Control_c, 0, 64, 94
1, 1401917, Control_c, 0, 64, 95
1, 1401925, Note_off_c, 0, 81, 24
1, 1401932, Control_c, 0, 64, 95
1, 1401989, Note_on_c, 0, 74, 50
1, 1401992, Note_off_c, 0, 78, 33
1, 1401999, Control_c, 0, 64, 95
1, 1402014, Control_c, 0, 64, 90
1, 1402028, Control_c, 0, 64, 81
1, 1402043, Control_c, 0, 64, 72
1, 1402058, Control_c, 0, 64, 64
1, 1402073, Control_c, 0, 64, 57
1, 1402078, Note_on_c, 0, 69, 39
1, 1402080, Note_on_c, 0, 66, 33
1, 1402083, Note_on_c, 0, 62, 30
1, 1402096, Note_off_c, 0, 74, 39
1, 1402102, Control_c, 0, 64, 61
1, 1402106, Note_on_c, 0, 81, 40
1, 1402117, Control_c, 0, 64, 64
1, 1402129, Note_off_c, 0, 62, 46
1, 1402132, Control_c, 0, 64, 67
1, 1402140, Note_off_c, 0, 69, 54
1, 1402147, Control_c, 0, 64, 72
1, 1402162, Control_c, 0, 64, 76
1, 1402177, Control_c, 0, 64, 78
1, 1402184, Note_on_c, 0, 78, 42
1, 1402192, Control_c, 0, 64, 80
1, 1402206, Control_c, 0, 64, 82
1, 1402221, Control_c, 0, 64, 82
1, 1402249, Note_off_c, 0, 81, 24
1, 1402254, Note_off_c, 0, 78, 47
1, 1402266, Control_c, 0, 64, 83
1, 1402281, Control_c, 0, 64, 83
1, 1402282, Note_on_c, 0, 74, 37
1, 1402336, Note_off_c, 0, 66, 59
1, 1402341, Control_c, 0, 64, 80
1, 1402345, Note_off_c, 0, 74, 42
1, 1402356, Control_c, 0, 64, 73
1, 1402370, Control_c, 0, 64, 65
1, 1402373, Note_on_c, 0, 73, 47
1, 1402378, Note_on_c, 0, 67, 30
1, 1402381, Note_on_c, 0, 62, 33
1, 1402385, Control_c, 0, 64, 53
1, 1402397, Note_on_c, 0, 69, 29
1, 1402400, Control_c, 0, 64, 37
1, 1402415, Control_c, 0, 64, 40
1, 1402430, Control_c, 0, 64, 50
1, 1402445, Control_c, 0, 64, 61
1, 1402448, Note_off_c, 0, 73, 58
1, 1402459, Control_c, 0, 64, 67
1, 1402474, Control_c, 0, 64, 74
1, 1402474, Control_c, 0, 67, 110
1, 1402481, Note_on_c, 0, 76, 49
1, 1402489, Control_c, 0, 64, 83
1, 1402489, Control_c, 0, 67, 79
1, 1402504, Control_c, 0, 64, 91
1, 1402504, Control_c, 0, 67, 43
1, 1402519, Control_c, 0, 64, 98
1, 1402519, Control_c, 0, 67, 0
1, 1402533, Control_c, 0, 64, 109
1, 1402548, Control_c, 0, 64, 127
1, 1402573, Note_on_c, 0, 81, 58
1, 1402585, Note_off_c, 0, 62, 35
1, 1402607, Note_off_c, 0, 69, 48
1, 1402638, Note_off_c, 0, 76, 31
1, 1402651, Note_on_c, 0, 73, 59
1, 1402669, Note_off_c, 0, 67, 42
1, 1402711, Note_off_c, 0, 81, 27
1, 1402742, Note_off_c, 0, 73, 58
1, 1402746, Note_on_c, 0, 76, 70
1, 1402824, Note_on_c, 0, 81, 79
1, 1402827, Note_off_c, 0, 76, 63
1, 1402853, Note_off_c, 0, 81, 63
1, 1402911, Control_c, 0, 64, 110
1, 1402925, Control_c, 0, 64, 79
1, 1402926, Note_on_c, 0, 69, 55
1, 1402927, Note_on_c, 0, 62, 50
1, 1402933, Note_on_c, 0, 67, 47
1, 1402937, Note_on_c, 0, 81, 78
1, 1402940, Control_c, 0, 64, 64
1, 1402955, Control_c, 0, 64, 56
1, 1402970, Control_c, 0, 64, 59
1, 1402985, Control_c, 0, 64, 64
1, 1402999, Control_c, 0, 64, 70
1, 1403014, Control_c, 0, 64, 81
1, 1403016, Note_on_c, 0, 85, 83
1, 1403029, Control_c, 0, 64, 103
1, 1403038, Note_off_c, 0, 81, 57
1, 1403044, Control_c, 0, 64, 127
1, 1403047, Note_off_c, 0, 69, 57
1, 1403068, Note_off_c, 0, 67, 58
1, 1403080, Note_off_c, 0, 62, 33
1, 1403095, Note_on_c, 0, 88, 91
1, 1403116, Note_off_c, 0, 85, 65
1, 1403133, Note_off_c, 0, 88, 68
1, 1403193, Note_on_c, 0, 93, 88
1, 1403200, Note_on_c, 0, 69, 46
1, 1403205, Note_on_c, 0, 67, 54
1, 1403262, Note_on_c, 0, 62, 3
1, 1403268, Note_off_c, 0, 69, 52
1, 1403272, Note_on_c, 0, 97, 88
1, 1403276, Note_off_c, 0, 62, 0
1, 1403289, Note_off_c, 0, 93, 61
1, 1403302, Poly_aftertouch_c, 0, 62, 0
1, 1403363, Note_on_c, 0, 100, 84
1, 1403383, Note_off_c, 0, 97, 61
1, 1403408, Note_off_c, 0, 100, 68
1, 1403432, Note_off_c, 0, 67, 60
1, 1403440, Note_on_c, 0, 62, 41
1, 1403484, Note_on_c, 0, 69, 38
1, 1403484, Note_on_c, 0, 98, 75
1, 1403497, Control_c, 0, 64, 78
1, 1403501, Note_on_c, 0, 66, 39
1, 1403512, Control_c, 0, 64, 61
1, 1403512, Control_c, 0, 67, 21
1, 1403527, Control_c, 0, 64, 42
1, 1403527, Control_c, 0, 67, 25
1, 1403542, Control_c, 0, 64, 37
1, 1403542, Control_c, 0, 67, 30
1, 1403557, Control_c, 0, 64, 39
1, 1403557, Control_c, 0, 67, 38
1, 1403560, Note_off_c, 0, 98, 49
1, 1403572, Control_c, 0, 64, 49
1, 1403572, Control_c, 0, 67, 52
1, 1403581, Note_on_c, 0, 93, 63
1, 1403587, Control_c, 0, 64, 59
1, 1403587, Control_c, 0, 67, 72
1, 1403601, Control_c, 0, 64, 67
1, 1403601, Control_c, 0, 67, 87
1, 1403616, Control_c, 0, 64, 78
1, 1403616, Control_c, 0, 67, 100
1, 1403631, Control_c, 0, 64, 100
1, 1403631, Control_c, 0, 67, 109
1, 1403646, Control_c, 0, 64, 127
1, 1403646, Control_c, 0, 67, 118
1, 1403661, Control_c, 0, 67, 127
1, 1403676, Note_on_c, 0, 90, 63
1, 1403688, Note_off_c, 0, 93, 56
1, 1403709, Note_off_c, 0, 69, 40
1, 1403717, Note_off_c, 0, 62, 35
1, 1403736, Note_off_c, 0, 90, 62
1, 1403755, Note_on_c, 0, 86, 63
1, 1403781, Note_off_c, 0, 86, 66
1, 1403810, Note_off_c, 0, 66, 38
1, 1403867, Note_on_c, 0, 81, 58
1, 1403925, Note_off_c, 0, 81, 46
1, 1403960, Note_on_c, 0, 78, 56
1, 1404027, Note_off_c, 0, 78, 50
1, 1404031, Control_c, 0, 64, 102
1, 1404046, Control_c, 0, 64, 76
1, 1404061, Control_c, 0, 64, 60
1, 1404074, Note_on_c, 0, 81, 51
1, 1404076, Control_c, 0, 64, 41
1, 1404088, Note_on_c, 0, 69, 35
1, 1404091, Control_c, 0, 64, 45
1, 1404096, Note_on_c, 0, 66, 27
1, 1404105, Control_c, 0, 64, 55
1, 1404106, Note_on_c, 0, 62, 24
1, 1404120, Control_c, 0, 64, 62
1, 1404135, Control_c, 0, 64, 68
1, 1404150, Control_c, 0, 64, 76
1, 1404165, Control_c, 0, 64, 85
1, 1404173, Note_on_c, 0, 78, 51
1, 1404177, Note_off_c, 0, 62, 41
1, 1404180, Control_c, 0, 64, 92
1, 1404190, Note_off_c, 0, 69, 55
1, 1404195, Control_c, 0, 64, 96
1, 1404210, Control_c, 0, 64, 98
1, 1404225, Note_off_c, 0, 66, 46
1, 1404225, Note_off_c, 0, 81, 40
1, 1404233, Note_off_c, 0, 78, 53
1, 1404246, Control_c, 0, 64, 100
1, 1404291, Control_c, 0, 64, 103
1, 1404293, Note_on_c, 0, 74, 55
1, 1404320, Control_c, 0, 64, 105
1, 1404360, Note_off_c, 0, 74, 48
1, 1404395, Note_on_c, 0, 69, 39
1, 1404397, Note_on_c, 0, 81, 52
1, 1404400, Note_on_c, 0, 66, 36
1, 1404406, Note_on_c, 0, 62, 34
1, 1404439, Note_off_c, 0, 69, 46
1, 1404444, Note_off_c, 0, 62, 50
1, 1404477, Note_off_c, 0, 66, 0
1, 1404477, Note_on_c, 0, 66, 7
1, 1404493, Note_on_c, 0, 78, 46
1, 1404552, Note_off_c, 0, 78, 48
1, 1404557, Control_c, 0, 67, 125
1, 1404570, Note_off_c, 0, 81, 33
1, 1404572, Control_c, 0, 67, 121
1, 1404579, Note_on_c, 0, 74, 61
1, 1404587, Control_c, 0, 67, 117
1, 1404602, Control_c, 0, 67, 111
1, 1404617, Control_c, 0, 67, 106
1, 1404631, Control_c, 0, 67, 102
1, 1404646, Control_c, 0, 67, 98
1, 1404661, Control_c, 0, 64, 96
1, 1404661, Control_c, 0, 67, 95
1, 1404672, Note_off_c, 0, 66, 55
1, 1404676, Control_c, 0, 64, 83
1, 1404676, Control_c, 0, 67, 92
1, 1404680, Note_off_c, 0, 74, 51
1, 1404687, Note_on_c, 0, 67, 44
1, 1404692, Note_on_c, 0, 73, 56
1, 1404692, Control_c, 0, 64, 67
1, 1404692, Control_c, 0, 67, 89
1, 1404701, Note_on_c, 0, 62, 34
1, 1404705, Note_on_c, 0, 69, 40
1, 1404707, Control_c, 0, 64, 52
1, 1404707, Control_c, 0, 67, 86
1, 1404721, Control_c, 0, 64, 0
1, 1404721, Control_c, 0, 67, 81
1, 1404736, Control_c, 0, 67, 73
1, 1404751, Control_c, 0, 64, 33
1, 1404751, Control_c, 0, 67, 59
1, 1404766, Control_c, 0, 64, 46
1, 1404766, Control_c, 0, 67, 40
1, 1404781, Control_c, 0, 64, 60
1, 1404781, Control_c, 0, 67, 0
1, 1404782, Note_off_c, 0, 73, 60
1, 1404793, Note_on_c, 0, 76, 61
1, 1404795, Control_c, 0, 64, 69
1, 1404810, Control_c, 0, 64, 78
1, 1404825, Control_c, 0, 64, 90
1, 1404839, Control_c, 0, 64, 99
1, 1404849, Note_off_c, 0, 62, 53
1, 1404849, Note_off_c, 0, 69, 63
1, 1404854, Control_c, 0, 64, 106
1, 1404866, Note_off_c, 0, 67, 64
1, 1404869, Control_c, 0, 64, 117
1, 1404875, Note_on_c, 0, 81, 72
1, 1404884, Control_c, 0, 64, 127
1, 1404907, Note_off_c, 0, 76, 53
1, 1404973, Note_on_c, 0, 73, 73
1, 1405065, Note_on_c, 0, 76, 78
1, 1405080, Note_off_c, 0, 81, 21
1, 1405086, Note_off_c, 0, 73, 61
1, 1405163, Note_on_c, 0, 81, 83
1, 1405175, Note_off_c, 0, 76, 63
1, 1405208, Note_off_c, 0, 81, 63
1, 1405268, Note_on_c, 0, 69, 77
1, 1405269, Note_on_c, 0, 67, 70
1, 1405273, Note_on_c, 0, 81, 78
1, 1405274, Note_on_c, 0, 62, 65
1, 1405276, Control_c, 0, 64, 80
1, 1405291, Control_c, 0, 64, 64
1, 1405306, Control_c, 0, 64, 53
1, 1405320, Control_c, 0, 64, 58
1, 1405335, Control_c, 0, 64, 64
1, 1405350, Control_c, 0, 64, 69
1, 1405365, Note_on_c, 0, 85, 84
1, 1405365, Control_c, 0, 64, 80
1, 1405379, Control_c, 0, 64, 111
1, 1405390, Note_off_c, 0, 81, 58
1, 1405394, Control_c, 0, 64, 127
1, 1405432, Note_off_c, 0, 69, 60
1, 1405434, Note_off_c, 0, 62, 55
1, 1405446, Note_on_c, 0, 88, 86
1, 1405451, Note_off_c, 0, 67, 61
1, 1405462, Note_off_c, 0, 85, 65
1, 1405483, Note_off_c, 0, 88, 67
1, 1405543, Note_on_c, 0, 93, 89
1, 1405546, Note_on_c, 0, 67, 68
1, 1405548, Note_on_c, 0, 69, 68
1, 1405552, Note_on_c, 0, 62, 63
1, 1405620, Note_off_c, 0, 62, 46
1, 1405629, Note_off_c, 0, 69, 57
1, 1405629, Note_on_c, 0, 97, 83
1, 1405652, Note_off_c, 0, 93, 58
1, 1405735, Note_on_c, 0, 100, 81
1, 1405769, Note_off_c, 0, 97, 65
1, 1405783, Note_off_c, 0, 100, 67
1, 1405784, Note_off_c, 0, 67, 59
1, 1405806, Note_on_c, 0, 62, 43
1, 1405823, Note_on_c, 0, 69, 48
1, 1405826, Note_on_c, 0, 66, 46
1, 1405832, Control_c, 0, 64, 84
1, 1405844, Note_on_c, 0, 98, 75
1, 1405847, Control_c, 0, 64, 63
1, 1405862, Control_c, 0, 64, 40
1, 1405876, Control_c, 0, 64, 35
1, 1405891, Control_c, 0, 64, 52
1, 1405906, Control_c, 0, 64, 64
1, 1405921, Control_c, 0, 64, 77
1, 1405930, Note_on_c, 0, 93, 69
1, 1405936, Note_off_c, 0, 98, 56
1, 1405936, Control_c, 0, 64, 111
1, 1405951, Control_c, 0, 64, 127
1, 1405977, Note_off_c, 0, 62, 37
1, 1405994, Note_off_c, 0, 69, 35
1, 1406018, Note_on_c, 0, 90, 77
1, 1406053, Note_off_c, 0, 93, 62
1, 1406096, Note_off_c, 0, 90, 63
1, 1406103, Note_on_c, 0, 86, 76
1, 1406129, Note_off_c, 0, 86, 67
1, 1406197, Note_on_c, 0, 81, 86
1, 1406286, Note_on_c, 0, 78, 85
1, 1406306, Note_off_c, 0, 81, 61
1, 1406352, Control_c, 0, 64, 92
1, 1406355, Note_off_c, 0, 78, 63
1, 1406366, Control_c, 0, 64, 68
1, 1406381, Control_c, 0, 64, 36
1, 1406396, Control_c, 0, 64, 0
1, 1406399, Note_on_c, 0, 81, 89
1, 1406407, Note_on_c, 0, 67, 70
1, 1406407, Note_off_c, 0, 66, 61
1, 1406410, Note_on_c, 0, 69, 70
1, 1406413, Note_on_c, 0, 62, 64
1, 1406426, Control_c, 0, 64, 47
1, 1406441, Control_c, 0, 64, 60
1, 1406456, Control_c, 0, 64, 71
1, 1406478, Control_c, 0, 64, 85
1, 1406493, Control_c, 0, 64, 127
1, 1406502, Note_on_c, 0, 85, 88
1, 1406525, Note_off_c, 0, 81, 63
1, 1406560, Note_off_c, 0, 69, 59
1, 1406567, Note_off_c, 0, 62, 53
1, 1406580, Note_off_c, 0, 67, 62
1, 1406592, Note_on_c, 0, 88, 95
1, 1406618, Note_off_c, 0, 85, 65
1, 1406634, Note_off_c, 0, 88, 68
1, 1406677, Note_on_c, 0, 69, 76
1, 1406680, Note_on_c, 0, 67, 76
1, 1406687, Note_on_c, 0, 62, 61
1, 1406695, Note_on_c, 0, 93, 90
1, 1406767, Note_off_c, 0, 62, 57
1, 1406768, Note_off_c, 0, 69, 57
1, 1406779, Note_on_c, 0, 97, 91
1, 1406797, Note_off_c, 0, 93, 65
1, 1406872, Note_on_c, 0, 100, 94
1, 1406898, Note_off_c, 0, 97, 65
1, 1406920, Note_off_c, 0, 100, 69
1, 1406943, Note_off_c, 0, 67, 61
1, 1406959, Note_on_c, 0, 69, 61
1, 1406966, Note_on_c, 0, 62, 56
1, 1406966, Note_on_c, 0, 66, 61
1, 1406979, Note_on_c, 0, 98, 92
1, 1406982, Control_c, 0, 64, 98
1, 1406997, Control_c, 0, 64, 68
1, 1407012, Control_c, 0, 64, 43
1, 1407026, Control_c, 0, 64, 0
1, 1407056, Control_c, 0, 64, 35
1, 1407063, Note_on_c, 0, 93, 88
1, 1407071, Control_c, 0, 64, 63
1, 1407086, Control_c, 0, 64, 75
1, 1407099, Note_off_c, 0, 98, 63
1, 1407101, Control_c, 0, 64, 97
1, 1407107, Note_off_c, 0, 69, 59
1, 1407116, Control_c, 0, 64, 127
1, 1407119, Note_off_c, 0, 62, 58
1, 1407159, Note_on_c, 0, 90, 89
1, 1407170, Note_off_c, 0, 66, 62
1, 1407216, Note_off_c, 0, 93, 64
1, 1407254, Note_on_c, 0, 86, 86
1, 1407259, Note_off_c, 0, 90, 64
1, 1407294, Note_off_c, 0, 86, 62
1, 1407344, Note_on_c, 0, 81, 92
1, 1407427, Note_on_c, 0, 78, 89
1, 1407451, Note_off_c, 0, 81, 64
1, 1407496, Note_off_c, 0, 78, 64
1, 1407509, Control_c, 0, 64, 103
1, 1407523, Control_c, 0, 64, 72
1, 1407533, Note_on_c, 0, 67, 75
1, 1407533, Note_on_c, 0, 81, 89
1, 1407538, Note_on_c, 0, 69, 75
1, 1407538, Control_c, 0, 64, 51
1, 1407539, Note_on_c, 0, 62, 69
1, 1407553, Control_c, 0, 64, 0
1, 1407567, Control_c, 0, 64, 44
1, 1407582, Control_c, 0, 64, 61
1, 1407597, Control_c, 0, 64, 71
1, 1407612, Control_c, 0, 64, 86
1, 1407627, Control_c, 0, 64, 117
1, 1407632, Note_on_c, 0, 85, 91
1, 1407641, Control_c, 0, 64, 127
1, 1407654, Note_off_c, 0, 81, 63
1, 1407662, Note_off_c, 0, 62, 57
1, 1407675, Note_off_c, 0, 69, 60
1, 1407700, Note_off_c, 0, 67, 60
1, 1407721, Note_on_c, 0, 88, 94
1, 1407745, Note_off_c, 0, 85, 66
1, 1407760, Note_off_c, 0, 88, 67
1, 1407793, Note_on_c, 0, 69, 84
1, 1407793, Note_on_c, 0, 62, 70
1, 1407800, Note_on_c, 0, 67, 82
1, 1407822, Note_on_c, 0, 93, 94
1, 1407882, Note_off_c, 0, 62, 51
1, 1407904, Note_off_c, 0, 69, 59
1, 1407905, Note_on_c, 0, 97, 90
1, 1407928, Note_off_c, 0, 93, 66
1, 1408001, Note_on_c, 0, 100, 92
1, 1408029, Note_off_c, 0, 97, 65
1, 1408052, Note_off_c, 0, 100, 69
1, 1408060, Note_off_c, 0, 67, 61
1, 1408073, Note_on_c, 0, 62, 57
1, 1408081, Note_on_c, 0, 69, 64
1, 1408091, Note_on_c, 0, 66, 59
1, 1408094, Control_c, 0, 64, 96
1, 1408109, Control_c, 0, 64, 71
1, 1408111, Note_on_c, 0, 98, 96
1, 1408124, Control_c, 0, 64, 58
1, 1408139, Control_c, 0, 64, 52
1, 1408153, Control_c, 0, 64, 55
1, 1408168, Control_c, 0, 64, 62
1, 1408183, Control_c, 0, 64, 74
1, 1408195, Note_on_c, 0, 93, 88
1, 1408198, Control_c, 0, 64, 91
1, 1408213, Control_c, 0, 64, 127
1, 1408215, Note_off_c, 0, 62, 57
1, 1408219, Note_off_c, 0, 69, 56
1, 1408237, Note_off_c, 0, 98, 63
1, 1408282, Note_on_c, 0, 90, 91
1, 1408306, Note_off_c, 0, 66, 60
1, 1408328, Note_off_c, 0, 93, 63
1, 1408370, Note_on_c, 0, 86, 83
1, 1408376, Note_off_c, 0, 90, 65
1, 1408410, Note_off_c, 0, 86, 63
1, 1408461, Note_on_c, 0, 81, 87
1, 1408547, Note_on_c, 0, 78, 80
1, 1408556, Note_off_c, 0, 81, 62
1, 1408685, Note_on_c, 0, 66, 28
1, 1408688, Control_c, 0, 64, 114
1, 1408703, Control_c, 0, 64, 89
1, 1408726, Control_c, 0, 64, 73
1, 1408741, Control_c, 0, 64, 61
1, 1408756, Control_c, 0, 64, 42
1, 1408766, Note_off_c, 0, 78, 59
1, 1408770, Control_c, 0, 64, 0
1, 1408810, Note_on_c, 0, 81, 47
1, 1408844, Control_c, 0, 64, 34
1, 1408859, Control_c, 0, 64, 51
1, 1408874, Control_c, 0, 64, 63
1, 1408888, Control_c, 0, 64, 71
1, 1408903, Control_c, 0, 64, 83
1, 1408918, Control_c, 0, 64, 105
1, 1408930, Note_on_c, 0, 69, 38
1, 1408933, Control_c, 0, 64, 127
1, 1408952, Note_off_c, 0, 66, 37
1, 1409002, Note_off_c, 0, 81, 55
1, 1409033, Note_on_c, 0, 74, 55
1, 1409046, Note_off_c, 0, 69, 39
1, 1409146, Note_on_c, 0, 66, 31
1, 1409147, Note_on_c, 0, 81, 54
1, 1409149, Note_off_c, 0, 74, 33
1, 1409229, Note_off_c, 0, 66, 39
1, 1409235, Note_on_c, 0, 69, 45
1, 1409265, Note_off_c, 0, 81, 49
1, 1409297, Note_off_c, 0, 69, 48
1, 1409346, Note_on_c, 0, 74, 32
1, 1409409, Note_off_c, 0, 74, 38
1, 1409421, Control_c, 0, 64, 109
1, 1409436, Control_c, 0, 64, 82
1, 1409447, Note_on_c, 0, 64, 36
1, 1409451, Control_c, 0, 64, 67
1, 1409474, Control_c, 0, 64, 58
1, 1409481, Note_on_c, 0, 81, 51
1, 1409489, Control_c, 0, 64, 57
1, 1409504, Control_c, 0, 64, 60
1, 1409519, Control_c, 0, 64, 63
1, 1409534, Control_c, 0, 64, 68
1, 1409548, Control_c, 0, 64, 75
1, 1409563, Control_c, 0, 64, 86
1, 1409578, Control_c, 0, 64, 101
1, 1409590, Note_off_c, 0, 64, 36
1, 1409593, Control_c, 0, 64, 114
1, 1409599, Note_on_c, 0, 67, 31
1, 1409608, Control_c, 0, 64, 127
1, 1409660, Note_off_c, 0, 67, 42
1, 1409677, Note_on_c, 0, 73, 38
1, 1409692, Note_off_c, 0, 81, 55
1, 1409731, Note_off_c, 0, 73, 42
1, 1409744, Note_on_c, 0, 64, 40
1, 1409805, Note_off_c, 0, 64, 55
1, 1409885, Note_on_c, 0, 67, 23
1, 1409942, Note_on_c, 0, 73, 40
1, 1409954, Note_off_c, 0, 67, 37
1, 1409993, Control_c, 0, 64, 101
1, 1410008, Control_c, 0, 64, 81
1, 1410022, Control_c, 0, 64, 66
1, 1410026, Note_off_c, 0, 73, 33
1, 1410037, Control_c, 0, 64, 52
1, 1410052, Control_c, 0, 64, 47
1, 1410054, Note_on_c, 0, 63, 28
1, 1410067, Control_c, 0, 64, 55
1, 1410068, Note_on_c, 0, 81, 50
1, 1410082, Control_c, 0, 64, 60
1, 1410096, Control_c, 0, 64, 65
1, 1410111, Control_c, 0, 64, 73
1, 1410126, Control_c, 0, 64, 83
1, 1410130, Note_off_c, 0, 63, 55
1, 1410141, Control_c, 0, 64, 91
1, 1410156, Control_c, 0, 64, 96
1, 1410161, Note_on_c, 0, 67, 38
1, 1410169, Control_c, 0, 64, 100
1, 1410199, Control_c, 0, 64, 102
1, 1410228, Note_off_c, 0, 67, 49
1, 1410231, Note_off_c, 0, 81, 47
1, 1410237, Control_c, 0, 64, 104
1, 1410280, Note_on_c, 0, 72, 27
1, 1410281, Control_c, 0, 64, 106
1, 1410337, Note_off_c, 0, 72, 41
1, 1410356, Note_on_c, 0, 63, 31
1, 1410377, Note_on_c, 0, 81, 56
1, 1410404, Note_off_c, 0, 63, 46
1, 1410456, Note_off_c, 0, 81, 43
1, 1410463, Note_on_c, 0, 67, 26
1, 1410501, Note_off_c, 0, 67, 54
1, 1410558, Note_on_c, 0, 72, 43
1, 1410607, Control_c, 0, 64, 100
1, 1410622, Control_c, 0, 64, 89
1, 1410635, Note_off_c, 0, 72, 44
1, 1410637, Control_c, 0, 64, 78
1, 1410652, Control_c, 0, 64, 68
1, 1410658, Note_on_c, 0, 62, 32
1, 1410666, Control_c, 0, 64, 60
1, 1410681, Note_on_c, 0, 81, 57
1, 1410681, Control_c, 0, 64, 61
1, 1410696, Control_c, 0, 64, 64
1, 1410711, Control_c, 0, 64, 67
1, 1410726, Control_c, 0, 64, 73
1, 1410732, Note_off_c, 0, 62, 56
1, 1410741, Control_c, 0, 64, 81
1, 1410756, Control_c, 0, 64, 88
1, 1410765, Note_on_c, 0, 66, 51
1, 1410771, Control_c, 0, 64, 93
1, 1410785, Control_c, 0, 64, 97
1, 1410800, Control_c, 0, 64, 99
1, 1410821, Note_off_c, 0, 66, 54
1, 1410839, Note_off_c, 0, 81, 64
1, 1410845, Control_c, 0, 64, 101
1, 1410881, Note_on_c, 0, 72, 41
1, 1410934, Note_off_c, 0, 72, 46
1, 1410979, Note_on_c, 0, 62, 33
1, 1411012, Note_off_c, 0, 62, 53
1, 1411052, Note_on_c, 0, 66, 49
1, 1411100, Note_off_c, 0, 66, 60
1, 1411156, Note_on_c, 0, 72, 36
1, 1411179, Control_c, 0, 64, 98
1, 1411189, Note_off_c, 0, 72, 44
1, 1411194, Control_c, 0, 64, 85
1, 1411208, Control_c, 0, 64, 70
1, 1411223, Control_c, 0, 64, 56
1, 1411238, Control_c, 0, 64, 39
1, 1411253, Control_c, 0, 64, 42
1, 1411263, Note_on_c, 0, 60, 40
1, 1411268, Control_c, 0, 64, 52
1, 1411282, Control_c, 0, 64, 59
1, 1411286, Note_on_c, 0, 81, 62
1, 1411297, Control_c, 0, 64, 65
1, 1411312, Control_c, 0, 64, 72
1, 1411327, Control_c, 0, 64, 82
1, 1411340, Note_off_c, 0, 60, 63
1, 1411341, Control_c, 0, 64, 91
1, 1411343, Note_off_c, 0, 81, 61
1, 1411356, Control_c, 0, 64, 95
1, 1411371, Control_c, 0, 64, 97
1, 1411383, Note_on_c, 0, 62, 42
1, 1411401, Control_c, 0, 64, 100
1, 1411415, Control_c, 0, 64, 104
1, 1411424, Note_on_c, 0, 81, 84
1, 1411430, Control_c, 0, 64, 109
1, 1411445, Control_c, 0, 64, 115
1, 1411460, Control_c, 0, 64, 117
1, 1411463, Note_off_c, 0, 62, 44
1, 1411481, Note_on_c, 0, 66, 47
1, 1411495, Note_off_c, 0, 81, 64
1, 1411504, Control_c, 0, 64, 99
1, 1411519, Control_c, 0, 64, 79
1, 1411523, Note_off_c, 0, 66, 45
1, 1411534, Control_c, 0, 64, 64
1, 1411549, Control_c, 0, 64, 45
1, 1411561, Note_on_c, 0, 83, 86
1, 1411564, Control_c, 0, 64, 41
1, 1411578, Note_on_c, 0, 60, 33
1, 1411578, Control_c, 0, 64, 51
1, 1411593, Control_c, 0, 64, 60
1, 1411608, Control_c, 0, 64, 67
1, 1411623, Control_c, 0, 64, 77
1, 1411635, Note_off_c, 0, 60, 59
1, 1411638, Control_c, 0, 64, 90
1, 1411639, Note_off_c, 0, 83, 64
1, 1411652, Control_c, 0, 64, 104
1, 1411666, Note_on_c, 0, 62, 47
1, 1411667, Control_c, 0, 64, 110
1, 1411682, Control_c, 0, 64, 117
1, 1411684, Note_on_c, 0, 84, 91
1, 1411697, Control_c, 0, 64, 127
1, 1411730, Note_off_c, 0, 62, 54
1, 1411764, Note_on_c, 0, 66, 47
1, 1411805, Note_off_c, 0, 66, 47
1, 1411823, Control_c, 0, 64, 105
1, 1411838, Control_c, 0, 64, 80
1, 1411839, Note_off_c, 0, 84, 54
1, 1411844, Note_on_c, 0, 59, 40
1, 1411853, Control_c, 0, 64, 64
1, 1411865, Note_on_c, 0, 86, 72
1, 1411867, Control_c, 0, 64, 34
1, 1411882, Control_c, 0, 64, 0
1, 1411912, Control_c, 0, 64, 42
1, 1411927, Control_c, 0, 64, 55
1, 1411942, Control_c, 0, 64, 65
1, 1411957, Control_c, 0, 64, 77
1, 1411972, Control_c, 0, 64, 91
1, 1411982, Note_on_c, 0, 62, 42
1, 1411987, Control_c, 0, 64, 105
1, 1412002, Control_c, 0, 64, 113
1, 1412017, Control_c, 0, 64, 127
1, 1412026, Note_off_c, 0, 62, 50
1, 1412067, Note_off_c, 0, 59, 23
1, 1412069, Note_on_c, 0, 67, 37
1, 1412120, Control_c, 0, 64, 94
1, 1412135, Control_c, 0, 64, 72
1, 1412145, Note_off_c, 0, 67, 39
1, 1412150, Control_c, 0, 64, 57
1, 1412154, Note_on_c, 0, 84, 76
1, 1412163, Note_off_c, 0, 86, 57
1, 1412164, Control_c, 0, 64, 48
1, 1412167, Note_on_c, 0, 60, 37
1, 1412179, Control_c, 0, 64, 54
1, 1412194, Control_c, 0, 64, 60
1, 1412209, Control_c, 0, 64, 66
1, 1412224, Control_c, 0, 64, 73
1, 1412233, Note_off_c, 0, 60, 57
1, 1412238, Control_c, 0, 64, 82
1, 1412253, Control_c, 0, 64, 91
1, 1412261, Note_on_c, 0, 64, 43
1, 1412268, Control_c, 0, 64, 94
1, 1412282, Control_c, 0, 64, 96
1, 1412290, Note_off_c, 0, 64, 59
1, 1412327, Control_c, 0, 64, 98
1, 1412357, Note_on_c, 0, 67, 35
1, 1412401, Control_c, 0, 64, 92
1, 1412403, Note_off_c, 0, 67, 47
1, 1412416, Control_c, 0, 64, 78
1, 1412431, Control_c, 0, 64, 65
1, 1412446, Control_c, 0, 64, 49
1, 1412467, Note_on_c, 0, 83, 67
1, 1412468, Control_c, 0, 64, 0
1, 1412481, Note_on_c, 0, 62, 30
1, 1412482, Note_off_c, 0, 84, 55
1, 1412497, Control_c, 0, 64, 44
1, 1412512, Control_c, 0, 64, 55
1, 1412527, Control_c, 0, 64, 64
1, 1412539, Note_off_c, 0, 62, 57
1, 1412542, Control_c, 0, 64, 71
1, 1412556, Control_c, 0, 64, 79
1, 1412562, Note_on_c, 0, 67, 37
1, 1412571, Control_c, 0, 64, 83
1, 1412586, Control_c, 0, 64, 84
1, 1412598, Note_off_c, 0, 67, 60
1, 1412601, Control_c, 0, 64, 85
1, 1412616, Control_c, 0, 64, 86
1, 1412631, Control_c, 0, 64, 88
1, 1412646, Control_c, 0, 64, 90
1, 1412672, Note_on_c, 0, 71, 36
1, 1412675, Control_c, 0, 64, 87
1, 1412691, Control_c, 0, 64, 75
1, 1412706, Control_c, 0, 64, 64
1, 1412719, Note_off_c, 0, 71, 47
1, 1412720, Control_c, 0, 64, 47
1, 1412735, Control_c, 0, 64, 0
1, 1412750, Control_c, 0, 64, 34
1, 1412756, Note_on_c, 0, 81, 62
1, 1412762, Note_on_c, 0, 62, 29
1, 1412765, Control_c, 0, 64, 47
1, 1412780, Control_c, 0, 64, 56
1, 1412781, Note_off_c, 0, 83, 56
1, 1412795, Control_c, 0, 64, 63
1, 1412810, Control_c, 0, 64, 69
1, 1412824, Control_c, 0, 64, 74
1, 1412839, Control_c, 0, 64, 78
1, 1412848, Note_on_c, 0, 66, 46
1, 1412854, Control_c, 0, 64, 80
1, 1412869, Control_c, 0, 64, 81
1, 1412884, Control_c, 0, 64, 82
1, 1412899, Control_c, 0, 64, 83
1, 1412903, Note_off_c, 0, 66, 57
1, 1412913, Control_c, 0, 64, 84
1, 1412928, Control_c, 0, 64, 85
1, 1412958, Control_c, 0, 64, 81
1, 1412960, Note_on_c, 0, 72, 32
1, 1412973, Control_c, 0, 64, 71
1, 1412975, Note_off_c, 0, 62, 0
1, 1412987, Control_c, 0, 64, 61
1, 1412994, Note_off_c, 0, 72, 50
1, 1413002, Control_c, 0, 64, 46
1, 1413012, Poly_aftertouch_c, 0, 62, 127
1, 1413017, Control_c, 0, 64, 40
1, 1413032, Control_c, 0, 64, 44
1, 1413047, Control_c, 0, 64, 52
1, 1413053, Note_off_c, 0, 81, 62
1, 1413058, Poly_aftertouch_c, 0, 62, 0
1, 1413059, Note_on_c, 0, 83, 51
1, 1413060, Note_on_c, 0, 67, 39
1, 1413061, Control_c, 0, 64, 62
1, 1413076, Control_c, 0, 64, 69
1, 1413091, Control_c, 0, 64, 81
1, 1413105, Control_c, 0, 64, 99
1, 1413118, Note_off_c, 0, 67, 57
1, 1413120, Control_c, 0, 64, 127
1, 1413173, Note_on_c, 0, 71, 42
1, 1413179, Note_off_c, 0, 83, 64
1, 1413227, Note_off_c, 0, 71, 49
1, 1413259, Note_on_c, 0, 67, 50
1, 1413261, Control_c, 0, 67, 23
1, 1413276, Control_c, 0, 67, 28
1, 1413291, Control_c, 0, 67, 36
1, 1413300, Note_off_c, 0, 67, 62
1, 1413305, Control_c, 0, 67, 47
1, 1413320, Control_c, 0, 67, 60
1, 1413335, Control_c, 0, 67, 75
1, 1413350, Control_c, 0, 67, 92
1, 1413365, Control_c, 0, 67, 113
1, 1413366, Note_on_c, 0, 62, 46
1, 1413379, Control_c, 0, 67, 127
1, 1413394, Note_off_c, 0, 62, 61
1, 1413443, Note_on_c, 0, 67, 49
1, 1413528, Note_off_c, 0, 67, 52
1, 1413546, Note_on_c, 0, 62, 39
1, 1413558, Control_c, 0, 64, 88
1, 1413573, Control_c, 0, 64, 69
1, 1413588, Control_c, 0, 64, 53
1, 1413597, Note_off_c, 0, 62, 58
1, 1413603, Control_c, 0, 64, 33
1, 1413617, Control_c, 0, 64, 38
1, 1413632, Control_c, 0, 64, 48
1, 1413644, Note_on_c, 0, 74, 60
1, 1413647, Control_c, 0, 64, 55
1, 1413662, Control_c, 0, 64, 63
1, 1413677, Control_c, 0, 64, 70
1, 1413684, Note_on_c, 0, 59, 23
1, 1413692, Control_c, 0, 64, 80
1, 1413707, Control_c, 0, 64, 94
1, 1413722, Control_c, 0, 64, 104
1, 1413736, Control_c, 0, 64, 110
1, 1413751, Control_c, 0, 64, 120
1, 1413766, Control_c, 0, 64, 127
1, 1413778, Note_off_c, 0, 59, 50
1, 1413784, Note_off_c, 0, 74, 61
1, 1413790, Note_on_c, 0, 62, 40
1, 1413825, Note_off_c, 0, 62, 52
1, 1413868, Note_on_c, 0, 67, 33
1, 1413929, Note_off_c, 0, 67, 42
1, 1413942, Note_on_c, 0, 74, 73
1, 1413970, Note_on_c, 0, 59, 29
1, 1414025, Note_off_c, 0, 74, 62
1, 1414035, Note_off_c, 0, 59, 56
1, 1414053, Note_on_c, 0, 62, 40
1, 1414085, Note_off_c, 0, 62, 53
1, 1414160, Note_on_c, 0, 67, 29
1, 1414220, Note_off_c, 0, 67, 43
1, 1414248, Note_on_c, 0, 57, 41
1, 1414248, Control_c, 0, 64, 106
1, 1414262, Control_c, 0, 64, 81
1, 1414264, Note_on_c, 0, 74, 63
1, 1414278, Control_c, 0, 64, 66
1, 1414293, Control_c, 0, 64, 54
1, 1414308, Control_c, 0, 64, 53
1, 1414323, Control_c, 0, 64, 58
1, 1414338, Control_c, 0, 64, 63
1, 1414352, Control_c, 0, 64, 71
1, 1414354, Note_off_c, 0, 57, 54
1, 1414367, Control_c, 0, 64, 81
1, 1414382, Control_c, 0, 64, 93
1, 1414385, Note_on_c, 0, 60, 42
1, 1414397, Control_c, 0, 64, 104
1, 1414412, Control_c, 0, 64, 113
1, 1414426, Control_c, 0, 64, 127
1, 1414439, Note_off_c, 0, 74, 63
1, 1414444, Note_off_c, 0, 60, 50
1, 1414490, Note_on_c, 0, 66, 20
1, 1414522, Note_on_c, 0, 57, 42
1, 1414535, Note_off_c, 0, 66, 43
1, 1414587, Note_off_c, 0, 57, 59
1, 1414645, Note_on_c, 0, 60, 33
1, 1414692, Note_off_c, 0, 60, 46
1, 1414717, Note_on_c, 0, 66, 33
1, 1414784, Note_off_c, 0, 66, 39
1, 1414804, Control_c, 0, 64, 122
1, 1414819, Control_c, 0, 64, 93
1, 1414829, Note_on_c, 0, 56, 35
1, 1414834, Control_c, 0, 64, 76
1, 1414848, Note_on_c, 0, 74, 65
1, 1414848, Control_c, 0, 64, 60
1, 1414863, Control_c, 0, 64, 48
1, 1414878, Control_c, 0, 64, 50
1, 1414893, Control_c, 0, 64, 56
1, 1414905, Note_off_c, 0, 56, 52
1, 1414908, Control_c, 0, 64, 61
1, 1414923, Control_c, 0, 64, 66
1, 1414938, Control_c, 0, 64, 74
1, 1414952, Control_c, 0, 64, 87
1, 1414954, Note_on_c, 0, 60, 39
1, 1414967, Control_c, 0, 64, 100
1, 1414982, Control_c, 0, 64, 113
1, 1414988, Note_off_c, 0, 74, 60
1, 1414997, Control_c, 0, 64, 127
1, 1415002, Note_off_c, 0, 60, 58
1, 1415047, Note_on_c, 0, 65, 47
1, 1415101, Control_c, 0, 64, 96
1, 1415112, Note_off_c, 0, 65, 51
1, 1415116, Control_c, 0, 64, 75
1, 1415131, Note_on_c, 0, 56, 35
1, 1415131, Control_c, 0, 64, 61
1, 1415146, Control_c, 0, 64, 50
1, 1415151, Note_on_c, 0, 74, 68
1, 1415161, Control_c, 0, 64, 54
1, 1415175, Control_c, 0, 64, 60
1, 1415190, Control_c, 0, 64, 65
1, 1415200, Note_off_c, 0, 56, 53
1, 1415205, Control_c, 0, 64, 72
1, 1415220, Control_c, 0, 64, 80
1, 1415231, Note_on_c, 0, 60, 42
1, 1415235, Control_c, 0, 64, 86
1, 1415249, Control_c, 0, 64, 90
1, 1415257, Note_off_c, 0, 74, 58
1, 1415264, Control_c, 0, 64, 92
1, 1415269, Note_off_c, 0, 60, 63
1, 1415279, Control_c, 0, 64, 94
1, 1415294, Control_c, 0, 64, 96
1, 1415308, Control_c, 0, 64, 99
1, 1415323, Control_c, 0, 64, 103
1, 1415334, Note_on_c, 0, 65, 42
1, 1415338, Control_c, 0, 64, 106
1, 1415406, Note_off_c, 0, 65, 37
1, 1415412, Control_c, 0, 64, 102
1, 1415426, Control_c, 0, 64, 89
1, 1415441, Control_c, 0, 64, 72
1, 1415442, Note_on_c, 0, 55, 37
1, 1415463, Control_c, 0, 64, 61
1, 1415478, Note_on_c, 0, 74, 57
1, 1415478, Control_c, 0, 64, 52
1, 1415493, Control_c, 0, 64, 54
1, 1415507, Control_c, 0, 64, 59
1, 1415522, Control_c, 0, 64, 64
1, 1415528, Note_off_c, 0, 55, 53
1, 1415537, Control_c, 0, 64, 71
1, 1415552, Control_c, 0, 64, 82
1, 1415561, Note_on_c, 0, 59, 37
1, 1415567, Control_c, 0, 64, 93
1, 1415582, Control_c, 0, 64, 102
1, 1415597, Control_c, 0, 64, 111
1, 1415612, Note_off_c, 0, 59, 57
1, 1415612, Control_c, 0, 64, 122
1, 1415617, Note_off_c, 0, 74, 66
1, 1415627, Control_c, 0, 64, 127
1, 1415658, Note_on_c, 0, 65, 46
1, 1415740, Note_off_c, 0, 65, 39
1, 1415747, Note_on_c, 0, 55, 37
1, 1415787, Note_off_c, 0, 55, 58
1, 1415831, Note_on_c, 0, 59, 35
1, 1415859, Note_off_c, 0, 59, 57
1, 1415913, Note_on_c, 0, 65, 53
1, 1415950, Note_off_c, 0, 65, 58
1, 1415968, Control_c, 0, 64, 119
1, 1415983, Control_c, 0, 64, 96
1, 1415997, Control_c, 0, 64, 78
1, 1416012, Control_c, 0, 64, 64
1, 1416027, Control_c, 0, 64, 49
1, 1416039, Note_on_c, 0, 53, 35
1, 1416042, Control_c, 0, 64, 46
1, 1416056, Control_c, 0, 64, 53
1, 1416068, Note_on_c, 0, 74, 61
1, 1416071, Control_c, 0, 64, 58
1, 1416086, Control_c, 0, 64, 63
1, 1416101, Control_c, 0, 64, 69
1, 1416116, Control_c, 0, 64, 77
1, 1416120, Note_off_c, 0, 74, 59
1, 1416130, Control_c, 0, 64, 86
1, 1416130, Control_c, 0, 67, 115
1, 1416145, Control_c, 0, 64, 93
1, 1416145, Control_c, 0, 67, 88
1, 1416161, Control_c, 0, 64, 95
1, 1416161, Control_c, 0, 67, 56
1, 1416172, Note_on_c, 0, 55, 44
1, 1416175, Note_off_c, 0, 53, 48
1, 1416176, Control_c, 0, 67, 23
1, 1416191, Control_c, 0, 64, 97
1, 1416191, Control_c, 0, 67, 0
1, 1416211, Note_on_c, 0, 74, 82
1, 1416228, Control_c, 0, 64, 101
1, 1416241, Note_off_c, 0, 55, 53
1, 1416243, Control_c, 0, 64, 103
1, 1416272, Note_on_c, 0, 59, 42
1, 1416286, Note_off_c, 0, 74, 63
1, 1416302, Control_c, 0, 64, 90
1, 1416317, Control_c, 0, 64, 75
1, 1416324, Note_off_c, 0, 59, 46
1, 1416331, Control_c, 0, 64, 62
1, 1416346, Control_c, 0, 64, 41
1, 1416350, Note_on_c, 0, 53, 46
1, 1416355, Note_on_c, 0, 76, 82
1, 1416361, Control_c, 0, 64, 38
1, 1416376, Control_c, 0, 64, 48
1, 1416391, Control_c, 0, 64, 57
1, 1416405, Control_c, 0, 64, 63
1, 1416420, Control_c, 0, 64, 69
1, 1416424, Note_off_c, 0, 76, 63
1, 1416432, Note_off_c, 0, 53, 56
1, 1416435, Control_c, 0, 64, 76
1, 1416450, Control_c, 0, 64, 84
1, 1416452, Note_on_c, 0, 55, 52
1, 1416464, Control_c, 0, 64, 86
1, 1416477, Note_on_c, 0, 77, 84
1, 1416479, Control_c, 0, 64, 87
1, 1416494, Control_c, 0, 64, 87
1, 1416497, Note_off_c, 0, 55, 59
1, 1416509, Control_c, 0, 64, 88
1, 1416524, Control_c, 0, 64, 89
1, 1416539, Control_c, 0, 64, 90
1, 1416549, Note_on_c, 0, 59, 43
1, 1416554, Control_c, 0, 64, 89
1, 1416568, Control_c, 0, 64, 86
1, 1416572, Note_off_c, 0, 77, 55
1, 1416583, Control_c, 0, 64, 76
1, 1416598, Note_off_c, 0, 59, 59
1, 1416598, Control_c, 0, 64, 64
1, 1416613, Control_c, 0, 64, 44
1, 1416628, Control_c, 0, 64, 0
1, 1416643, Note_on_c, 0, 52, 38
1, 1416645, Note_on_c, 0, 79, 63
1, 1416657, Control_c, 0, 67, 21
1, 1416673, Control_c, 0, 67, 26
1, 1416688, Control_c, 0, 64, 50
1, 1416688, Control_c, 0, 67, 31
1, 1416703, Control_c, 0, 64, 63
1, 1416703, Control_c, 0, 67, 38
1, 1416718, Control_c, 0, 64, 72
1, 1416718, Control_c, 0, 67, 51
1, 1416732, Control_c, 0, 64, 81
1, 1416732, Control_c, 0, 67, 63
1, 1416738, Note_off_c, 0, 52, 58
1, 1416747, Control_c, 0, 64, 90
1, 1416747, Control_c, 0, 67, 74
1, 1416750, Note_on_c, 0, 55, 44
1, 1416762, Control_c, 0, 64, 93
1, 1416762, Control_c, 0, 67, 85
1, 1416777, Control_c, 0, 64, 96
1, 1416777, Control_c, 0, 67, 95
1, 1416792, Control_c, 0, 64, 100
1, 1416792, Control_c, 0, 67, 105
1, 1416794, Note_off_c, 0, 55, 61
1, 1416807, Control_c, 0, 64, 106
1, 1416807, Control_c, 0, 67, 114
1, 1416821, Control_c, 0, 64, 112
1, 1416821, Control_c, 0, 67, 123
1, 1416836, Control_c, 0, 64, 114
1, 1416836, Control_c, 0, 67, 127
1, 1416845, Note_on_c, 0, 60, 46
1, 1416880, Control_c, 0, 64, 105
1, 1416895, Control_c, 0, 64, 87
1, 1416902, Note_off_c, 0, 60, 47
1, 1416910, Control_c, 0, 64, 70
1, 1416925, Control_c, 0, 64, 53
1, 1416940, Control_c, 0, 64, 0
1, 1416961, Note_on_c, 0, 53, 34
1, 1416964, Note_on_c, 0, 77, 62
1, 1416968, Note_off_c, 0, 79, 59
1, 1416992, Control_c, 0, 64, 43
1, 1417006, Control_c, 0, 64, 56
1, 1417021, Control_c, 0, 64, 64
1, 1417036, Control_c, 0, 64, 70
1, 1417041, Note_off_c, 0, 53, 57
1, 1417050, Note_on_c, 0, 57, 46
1, 1417051, Control_c, 0, 64, 77
1, 1417066, Control_c, 0, 64, 81
1, 1417080, Control_c, 0, 64, 83
1, 1417084, Note_off_c, 0, 57, 65
1, 1417095, Control_c, 0, 64, 85
1, 1417110, Control_c, 0, 64, 88
1, 1417125, Control_c, 0, 64, 91
1, 1417140, Control_c, 0, 64, 93
1, 1417146, Note_on_c, 0, 60, 45
1, 1417189, Note_off_c, 0, 60, 46
1, 1417213, Control_c, 0, 64, 88
1, 1417228, Control_c, 0, 64, 77
1, 1417243, Control_c, 0, 64, 63
1, 1417248, Note_on_c, 0, 55, 42
1, 1417258, Control_c, 0, 64, 45
1, 1417266, Note_on_c, 0, 76, 60
1, 1417272, Control_c, 0, 64, 0
1, 1417302, Control_c, 0, 64, 41
1, 1417307, Note_off_c, 0, 77, 37
1, 1417317, Control_c, 0, 64, 52
1, 1417332, Control_c, 0, 64, 61
1, 1417335, Note_off_c, 0, 55, 60
1, 1417347, Control_c, 0, 64, 68
1, 1417361, Control_c, 0, 64, 72
1, 1417363, Note_on_c, 0, 60, 38
1, 1417376, Control_c, 0, 64, 76
1, 1417391, Control_c, 0, 64, 79
1, 1417404, Note_off_c, 0, 60, 48
1, 1417406, Control_c, 0, 64, 81
1, 1417421, Control_c, 0, 64, 83
1, 1417436, Control_c, 0, 64, 85
1, 1417451, Control_c, 0, 64, 85
1, 1417466, Control_c, 0, 64, 86
1, 1417472, Note_on_c, 0, 64, 22
1, 1417508, Note_off_c, 0, 64, 48
1, 1417510, Control_c, 0, 64, 81
1, 1417525, Control_c, 0, 64, 72
1, 1417540, Control_c, 0, 64, 59
1, 1417546, Note_on_c, 0, 74, 59
1, 1417549, Note_off_c, 0, 76, 57
1, 1417555, Control_c, 0, 64, 35
1, 1417557, Note_on_c, 0, 56, 44
1, 1417570, Control_c, 0, 64, 0
1, 1417600, Control_c, 0, 64, 36
1, 1417612, Note_off_c, 0, 56, 59
1, 1417615, Control_c, 0, 64, 48
1, 1417629, Control_c, 0, 64, 59
1, 1417644, Control_c, 0, 64, 67
1, 1417659, Control_c, 0, 64, 73
1, 1417671, Note_on_c, 0, 59, 41
1, 1417674, Control_c, 0, 64, 80
1, 1417689, Control_c, 0, 64, 85
1, 1417710, Control_c, 0, 64, 89
1, 1417725, Control_c, 0, 64, 94
1, 1417728, Note_off_c, 0, 59, 56
1, 1417740, Control_c, 0, 64, 99
1, 1417755, Control_c, 0, 64, 104
1, 1417770, Control_c, 0, 64, 110
1, 1417772, Note_on_c, 0, 65, 31
1, 1417785, Control_c, 0, 64, 112
1, 1417809, Note_off_c, 0, 65, 51
1, 1417829, Control_c, 0, 64, 95
1, 1417843, Note_off_c, 0, 74, 54
1, 1417844, Control_c, 0, 64, 78
1, 1417856, Note_on_c, 0, 56, 44
1, 1417859, Note_on_c, 0, 76, 57
1, 1417859, Control_c, 0, 64, 63
1, 1417874, Control_c, 0, 64, 51
1, 1417903, Control_c, 0, 64, 57
1, 1417914, Note_off_c, 0, 56, 57
1, 1417918, Control_c, 0, 64, 62
1, 1417933, Control_c, 0, 64, 65
1, 1417948, Control_c, 0, 64, 73
1, 1417963, Control_c, 0, 64, 84
1, 1417975, Note_on_c, 0, 59, 33
1, 1417977, Control_c, 0, 64, 103
1, 1417988, Note_off_c, 0, 76, 62
1, 1417992, Control_c, 0, 64, 127
1, 1418015, Note_off_c, 0, 59, 47
1, 1418036, Note_on_c, 0, 64, 52
1, 1418095, Note_off_c, 0, 64, 51
1, 1418130, Note_on_c, 0, 56, 49
1, 1418171, Note_off_c, 0, 56, 60
1, 1418212, Note_on_c, 0, 59, 40
1, 1418237, Note_off_c, 0, 59, 59
1, 1418288, Note_on_c, 0, 64, 57
1, 1418314, Note_off_c, 0, 64, 62
1, 1418378, Control_c, 0, 64, 83
1, 1418393, Control_c, 0, 64, 66
1, 1418396, Note_on_c, 0, 52, 51
1, 1418408, Control_c, 0, 64, 50
1, 1418416, Note_on_c, 0, 88, 81
1, 1418423, Control_c, 0, 64, 0
1, 1418423, Note_on_c, 0, 76, 64
1, 1418449, Note_off_c, 0, 76, 61
1, 1418457, Note_off_c, 0, 88, 54
1, 1418459, Control_c, 0, 67, 104
1, 1418474, Control_c, 0, 67, 76
1, 1418489, Control_c, 0, 67, 49
1, 1418504, Control_c, 0, 67, 25
1, 1418519, Control_c, 0, 67, 0
1, 1418530, Note_on_c, 0, 56, 49
1, 1418552, Note_on_c, 0, 76, 65
1, 1418554, Note_on_c, 0, 88, 85
1, 1418581, Note_off_c, 0, 76, 65
1, 1418586, Note_off_c, 0, 88, 59
1, 1418605, Note_off_c, 0, 56, 58
1, 1418618, Note_on_c, 0, 59, 40
1, 1418649, Note_off_c, 0, 52, 54
1, 1418673, Note_off_c, 0, 59, 56
1, 1418674, Note_on_c, 0, 50, 53
1, 1418692, Note_on_c, 0, 90, 86
1, 1418695, Note_on_c, 0, 78, 83
1, 1418712, Control_c, 0, 64, 37
1, 1418716, Note_off_c, 0, 78, 68
1, 1418720, Note_off_c, 0, 90, 60
1, 1418726, Control_c, 0, 64, 46
1, 1418741, Control_c, 0, 64, 58
1, 1418756, Control_c, 0, 64, 66
1, 1418768, Note_off_c, 0, 50, 61
1, 1418770, Control_c, 0, 64, 73
1, 1418771, Note_on_c, 0, 52, 54
1, 1418785, Control_c, 0, 64, 79
1, 1418800, Control_c, 0, 64, 80
1, 1418815, Control_c, 0, 64, 81
1, 1418816, Note_on_c, 0, 92, 81
1, 1418822, Note_on_c, 0, 80, 75
1, 1418830, Control_c, 0, 64, 79
1, 1418844, Control_c, 0, 64, 71
1, 1418845, Note_off_c, 0, 80, 63
1, 1418853, Note_on_c, 0, 59, 46
1, 1418859, Control_c, 0, 64, 61
1, 1418861, Note_off_c, 0, 92, 58
1, 1418874, Control_c, 0, 64, 39
1, 1418889, Control_c, 0, 64, 0
1, 1418908, Note_off_c, 0, 59, 55
1, 1418909, Note_off_c, 0, 52, 59
1, 1418953, Note_on_c, 0, 49, 50
1, 1418965, Note_on_c, 0, 93, 88
1, 1418967, Note_on_c, 0, 81, 83
1, 1418977, Control_c, 0, 64, 55
1, 1418992, Note_off_c, 0, 81, 59
1, 1418992, Control_c, 0, 64, 71
1, 1419004, Note_off_c, 0, 93, 66
1, 1419007, Control_c, 0, 64, 91
1, 1419022, Control_c, 0, 64, 127
1, 1419034, Note_off_c, 0, 49, 62
1, 1419051, Note_on_c, 0, 52, 53
1, 1419141, Note_on_c, 0, 57, 47
1, 1419143, Note_off_c, 0, 52, 44
1, 1419193, Note_off_c, 0, 57, 58
1, 1419233, Note_on_c, 0, 49, 46
1, 1419290, Note_off_c, 0, 49, 58
1, 1419310, Note_on_c, 0, 52, 51
1, 1419355, Note_off_c, 0, 52, 62
1, 1419412, Note_on_c, 0, 57, 52
1, 1419451, Note_off_c, 0, 57, 59
1, 1419535, Control_c, 0, 64, 94
1, 1419540, Note_on_c, 0, 55, 50
1, 1419548, Note_on_c, 0, 81, 83
1, 1419549, Control_c, 0, 64, 71
1, 1419550, Note_on_c, 0, 69, 77
1, 1419564, Control_c, 0, 64, 51
1, 1419576, Note_off_c, 0, 69, 64
1, 1419579, Control_c, 0, 64, 0
1, 1419592, Note_off_c, 0, 81, 57
1, 1419620, Note_off_c, 0, 55, 59
1, 1419630, Note_on_c, 0, 57, 61
1, 1419687, Note_on_c, 0, 81, 90
1, 1419689, Note_on_c, 0, 69, 76
1, 1419713, Note_off_c, 0, 69, 65
1, 1419724, Note_on_c, 0, 64, 50
1, 1419725, Note_off_c, 0, 81, 61
1, 1419746, Note_off_c, 0, 57, 57
1, 1419791, Note_off_c, 0, 64, 51
1, 1419809, Note_on_c, 0, 55, 50
1, 1419826, Note_on_c, 0, 83, 88
1, 1419830, Note_on_c, 0, 71, 79
1, 1419846, Note_off_c, 0, 71, 70
1, 1419853, Note_off_c, 0, 83, 61
1, 1419916, Note_on_c, 0, 57, 49
1, 1419959, Note_on_c, 0, 85, 86
1, 1419964, Note_on_c, 0, 73, 83
1, 1419985, Note_off_c, 0, 73, 65
1, 1419987, Note_on_c, 0, 64, 54
1, 1420008, Note_off_c, 0, 85, 61
1, 1420014, Note_off_c, 0, 57, 54
1, 1420026, Note_off_c, 0, 64, 58
1, 1420086, Note_off_c, 0, 55, 56
1, 1420115, Note_on_c, 0, 86, 92
1, 1420116, Note_on_c, 0, 54, 48
1, 1420121, Note_on_c, 0, 74, 73
1, 1420135, Control_c, 0, 64, 38
1, 1420150, Control_c, 0, 64, 56
1, 1420165, Control_c, 0, 64, 65
1, 1420179, Control_c, 0, 64, 70
1, 1420194, Control_c, 0, 64, 77
1, 1420205, Note_off_c, 0, 54, 62
1, 1420205, Note_off_c, 0, 74, 53
1, 1420209, Control_c, 0, 64, 87
1, 1420223, Control_c, 0, 64, 102
1, 1420229, Note_on_c, 0, 57, 54
1, 1420238, Control_c, 0, 64, 127
1, 1420258, Note_off_c, 0, 86, 58
1, 1420304, Note_on_c, 0, 62, 57
1, 1420351, Note_off_c, 0, 57, 28
1, 1420387, Note_off_c, 0, 62, 55
1, 1420387, Control_c, 0, 67, 19
1, 1420390, Note_on_c, 0, 54, 54
1, 1420431, Control_c, 0, 67, 22
1, 1420454, Note_off_c, 0, 54, 58
1, 1420461, Control_c, 0, 67, 25
1, 1420476, Control_c, 0, 67, 27
1, 1420480, Note_on_c, 0, 57, 54
1, 1420505, Control_c, 0, 67, 29
1, 1420512, Note_off_c, 0, 57, 65
1, 1420560, Note_on_c, 0, 62, 52
1, 1420595, Note_off_c, 0, 62, 50
1, 1420664, Note_on_c, 0, 50, 44
1, 1420684, Control_c, 0, 64, 83
1, 1420706, Control_c, 0, 64, 66
1, 1420713, Note_on_c, 0, 90, 75
1, 1420721, Control_c, 0, 64, 51
1, 1420731, Note_on_c, 0, 78, 55
1, 1420736, Control_c, 0, 64, 44
1, 1420751, Control_c, 0, 64, 53
1, 1420766, Control_c, 0, 64, 60
1, 1420766, Control_c, 0, 67, 27
1, 1420780, Control_c, 0, 64, 64
1, 1420794, Note_off_c, 0, 50, 58
1, 1420795, Control_c, 0, 64, 71
1, 1420795, Control_c, 0, 67, 25
1, 1420805, Note_on_c, 0, 54, 49
1, 1420810, Control_c, 0, 64, 80
1, 1420825, Control_c, 0, 64, 95
1, 1420825, Control_c, 0, 67, 22
1, 1420840, Control_c, 0, 64, 127
1, 1420840, Control_c, 0, 67, 20
1, 1420842, Note_off_c, 0, 78, 39
1, 1420854, Control_c, 0, 67, 0
1, 1420862, Note_off_c, 0, 90, 54
1, 1420894, Note_on_c, 0, 57, 50
1, 1420931, Note_off_c, 0, 54, 35
1, 1420961, Note_on_c, 0, 50, 54
1, 1420987, Note_on_c, 0, 90, 98
1, 1420995, Note_off_c, 0, 57, 52
1, 1420998, Note_on_c, 0, 78, 83
1, 1421052, Note_off_c, 0, 50, 60
1, 1421064, Note_on_c, 0, 54, 58
1, 1421111, Note_off_c, 0, 90, 65
1, 1421114, Note_off_c, 0, 78, 61
1, 1421119, Note_off_c, 0, 54, 58
1, 1421155, Note_on_c, 0, 57, 54
1, 1421246, Note_on_c, 0, 49, 49
1, 1421284, Control_c, 0, 64, 93
1, 1421290, Note_on_c, 0, 88, 95
1, 1421291, Note_off_c, 0, 57, 34
1, 1421299, Control_c, 0, 64, 70
1, 1421304, Note_on_c, 0, 76, 68
1, 1421314, Control_c, 0, 64, 50
1, 1421328, Control_c, 0, 64, 44
1, 1421343, Control_c, 0, 64, 54
1, 1421358, Control_c, 0, 64, 60
1, 1421365, Note_off_c, 0, 49, 60
1, 1421372, Control_c, 0, 64, 66
1, 1421379, Note_on_c, 0, 52, 52
1, 1421387, Control_c, 0, 64, 77
1, 1421403, Control_c, 0, 64, 98
1, 1421418, Control_c, 0, 64, 127
1, 1421433, Note_off_c, 0, 52, 59
1, 1421480, Note_off_c, 0, 88, 62
1, 1421485, Note_on_c, 0, 57, 50
1, 1421493, Note_off_c, 0, 76, 59
1, 1421573, Note_off_c, 0, 57, 37
1, 1421589, Control_c, 0, 64, 101
1, 1421591, Note_on_c, 0, 50, 43
1, 1421595, Note_on_c, 0, 86, 87
1, 1421603, Control_c, 0, 64, 74
1, 1421609, Note_on_c, 0, 74, 77
1, 1421618, Control_c, 0, 64, 59
1, 1421633, Control_c, 0, 64, 50
1, 1421648, Control_c, 0, 64, 58
1, 1421663, Control_c, 0, 64, 64
1, 1421669, Note_off_c, 0, 74, 60
1, 1421678, Note_off_c, 0, 50, 58
1, 1421678, Control_c, 0, 64, 72
1, 1421693, Control_c, 0, 64, 85
1, 1421702, Note_on_c, 0, 54, 47
1, 1421708, Control_c, 0, 64, 108
1, 1421722, Control_c, 0, 64, 127
1, 1421741, Note_off_c, 0, 54, 60
1, 1421777, Note_on_c, 0, 57, 50
1, 1421837, Note_off_c, 0, 57, 48
1, 1421870, Control_c, 0, 64, 108
1, 1421885, Control_c, 0, 64, 79
1, 1421886, Note_on_c, 0, 52, 47
1, 1421890, Note_on_c, 0, 85, 72
1, 1421900, Control_c, 0, 64, 61
1, 1421911, Note_on_c, 0, 73, 59
1, 1421915, Control_c, 0, 64, 0
1, 1421915, Control_c, 0, 67, 21
1, 1421929, Note_off_c, 0, 86, 59
1, 1421930, Control_c, 0, 67, 24
1, 1421944, Control_c, 0, 64, 43
1, 1421944, Control_c, 0, 67, 29
1, 1421959, Control_c, 0, 64, 58
1, 1421959, Control_c, 0, 67, 34
1, 1421964, Note_off_c, 0, 52, 54
1, 1421974, Control_c, 0, 64, 66
1, 1421974, Control_c, 0, 67, 43
1, 1421988, Control_c, 0, 64, 74
1, 1421988, Control_c, 0, 67, 55
1, 1421990, Note_on_c, 0, 57, 48
1, 1421991, Note_off_c, 0, 85, 64
1, 1422003, Control_c, 0, 64, 82
1, 1422003, Control_c, 0, 67, 69
1, 1422018, Control_c, 0, 64, 89
1, 1422018, Control_c, 0, 67, 85
1, 1422033, Control_c, 0, 64, 93
1, 1422033, Control_c, 0, 67, 97
1, 1422047, Note_off_c, 0, 73, 61
1, 1422048, Control_c, 0, 64, 97
1, 1422048, Control_c, 0, 67, 106
1, 1422058, Note_off_c, 0, 57, 51
1, 1422063, Control_c, 0, 64, 101
1, 1422063, Control_c, 0, 67, 114
1, 1422077, Control_c, 0, 64, 106
1, 1422077, Control_c, 0, 67, 121
1, 1422079, Note_on_c, 0, 61, 49
1, 1422092, Control_c, 0, 64, 110
1, 1422092, Control_c, 0, 67, 126
1, 1422107, Control_c, 0, 64, 114
1, 1422122, Control_c, 0, 64, 118
1, 1422133, Note_off_c, 0, 61, 55
1, 1422167, Control_c, 0, 64, 113
1, 1422171, Note_on_c, 0, 52, 39
1, 1422182, Control_c, 0, 64, 95
1, 1422203, Control_c, 0, 64, 78
1, 1422218, Control_c, 0, 64, 64
1, 1422228, Note_on_c, 0, 83, 67
1, 1422233, Control_c, 0, 64, 44
1, 1422239, Note_on_c, 0, 71, 45
1, 1422248, Control_c, 0, 64, 40
1, 1422263, Control_c, 0, 64, 48
1, 1422279, Note_off_c, 0, 52, 59
1, 1422279, Control_c, 0, 64, 57
1, 1422293, Control_c, 0, 64, 64
1, 1422304, Note_on_c, 0, 56, 48
1, 1422308, Control_c, 0, 64, 70
1, 1422323, Control_c, 0, 64, 77
1, 1422329, Note_off_c, 0, 83, 54
1, 1422338, Control_c, 0, 64, 85
1, 1422345, Note_off_c, 0, 56, 60
1, 1422353, Control_c, 0, 64, 87
1, 1422367, Control_c, 0, 64, 88
1, 1422382, Control_c, 0, 64, 89
1, 1422386, Note_off_c, 0, 71, 34
1, 1422395, Note_on_c, 0, 62, 51
1, 1422397, Control_c, 0, 64, 90
1, 1422412, Control_c, 0, 64, 92
1, 1422426, Control_c, 0, 64, 93
1, 1422453, Note_off_c, 0, 62, 48
1, 1422486, Control_c, 0, 64, 90
1, 1422500, Control_c, 0, 64, 81
1, 1422509, Note_on_c, 0, 57, 48
1, 1422515, Control_c, 0, 64, 70
1, 1422530, Control_c, 0, 64, 55
1, 1422542, Note_on_c, 0, 81, 62
1, 1422545, Control_c, 0, 64, 0
1, 1422547, Note_on_c, 0, 69, 44
1, 1422590, Control_c, 0, 64, 43
1, 1422605, Control_c, 0, 64, 57
1, 1422619, Control_c, 0, 64, 67
1, 1422622, Note_on_c, 0, 61, 49
1, 1422630, Note_off_c, 0, 57, 55
1, 1422634, Control_c, 0, 64, 74
1, 1422649, Control_c, 0, 64, 81
1, 1422664, Control_c, 0, 64, 84
1, 1422679, Control_c, 0, 64, 84
1, 1422693, Control_c, 0, 64, 85
1, 1422696, Note_off_c, 0, 61, 59
1, 1422698, Note_off_c, 0, 81, 35
1, 1422700, Note_off_c, 0, 69, 27
1, 1422703, Note_on_c, 0, 64, 58
1, 1422708, Control_c, 0, 64, 86
1, 1422723, Control_c, 0, 64, 87
1, 1422723, Control_c, 0, 67, 124
1, 1422736, Note_off_c, 0, 64, 65
1, 1422738, Control_c, 0, 64, 88
1, 1422738, Control_c, 0, 67, 108
1, 1422753, Control_c, 0, 64, 88
1, 1422753, Control_c, 0, 67, 80
1, 1422768, Control_c, 0, 64, 89
1, 1422768, Control_c, 0, 67, 47
1, 1422783, Control_c, 0, 67, 0
1, 1422812, Control_c, 0, 64, 89
1, 1422819, Note_on_c, 0, 69, 58
1, 1422872, Control_c, 0, 64, 90
1, 1422899, Note_on_c, 0, 73, 56
1, 1422900, Note_off_c, 0, 69, 56
1, 1422953, Control_c, 0, 64, 90
1, 1423019, Note_on_c, 0, 76, 50
1, 1423100, Note_on_c, 0, 64, 87
1, 1423103, Control_c, 0, 64, 85
1, 1423118, Control_c, 0, 64, 75
1, 1423123, Note_off_c, 0, 73, 36
1, 1423131, Note_on_c, 0, 69, 58
1, 1423132, Control_c, 0, 64, 63
1, 1423136, Note_off_c, 0, 64, 60
1, 1423143, Note_off_c, 0, 76, 0
1, 1423147, Control_c, 0, 64, 44
1, 1423162, Control_c, 0, 64, 0
1, 1423180, Poly_aftertouch_c, 0, 76, 127
1, 1423210, Poly_aftertouch_c, 0, 76, 0
1, 1423222, Note_on_c, 0, 73, 63
1, 1423228, Note_off_c, 0, 69, 53
1, 1423320, Note_on_c, 0, 76, 53
1, 1423398, Note_on_c, 0, 64, 89
1, 1423401, Note_off_c, 0, 73, 37
1, 1423419, Note_on_c, 0, 69, 61
1, 1423439, Note_off_c, 0, 64, 61
1, 1423497, Note_off_c, 0, 76, 56
1, 1423506, Note_on_c, 0, 73, 60
1, 1423514, Note_off_c, 0, 69, 57
1, 1423517, Control_c, 0, 67, 19
1, 1423621, Note_off_c, 0, 73, 46
1, 1423627, Note_on_c, 0, 76, 44
1, 1423716, Control_c, 0, 64, 44
1, 1423719, Note_on_c, 0, 64, 91
1, 1423731, Control_c, 0, 64, 56
1, 1423746, Control_c, 0, 64, 64
1, 1423746, Control_c, 0, 67, 0
1, 1423755, Note_on_c, 0, 68, 58
1, 1423761, Control_c, 0, 64, 70
1, 1423775, Control_c, 0, 64, 77
1, 1423790, Control_c, 0, 64, 88
1, 1423805, Control_c, 0, 64, 104
1, 1423820, Control_c, 0, 64, 127
1, 1423830, Note_off_c, 0, 76, 34
1, 1423842, Note_on_c, 0, 71, 58
1, 1423869, Note_off_c, 0, 64, 58
1, 1423878, Note_off_c, 0, 68, 45
1, 1423942, Note_on_c, 0, 76, 58
1, 1423969, Note_off_c, 0, 71, 54
1, 1424019, Note_on_c, 0, 68, 63
1, 1424095, Note_off_c, 0, 76, 34
1, 1424097, Note_off_c, 0, 68, 59
1, 1424109, Note_on_c, 0, 71, 53
1, 1424203, Note_on_c, 0, 76, 61
1, 1424212, Note_off_c, 0, 71, 49
1, 1424316, Note_on_c, 0, 64, 79
1, 1424334, Note_on_c, 0, 71, 66
1, 1424339, Control_c, 0, 64, 108
1, 1424354, Control_c, 0, 64, 81
1, 1424364, Note_off_c, 0, 64, 61
1, 1424369, Note_off_c, 0, 76, 54
1, 1424369, Control_c, 0, 64, 65
1, 1424383, Control_c, 0, 64, 48
1, 1424398, Control_c, 0, 64, 0
1, 1424411, Note_off_c, 0, 71, 36
1, 1424430, Note_on_c, 0, 74, 66
1, 1424462, Note_on_c, 0, 64, 76
1, 1424499, Note_off_c, 0, 64, 62
1, 1424514, Note_on_c, 0, 76, 64
1, 1424537, Note_off_c, 0, 74, 53
1, 1424595, Note_on_c, 0, 66, 75
1, 1424596, Note_on_c, 0, 71, 68
1, 1424632, Note_off_c, 0, 66, 60
1, 1424659, Note_off_c, 0, 76, 58
1, 1424671, Note_on_c, 0, 74, 77
1, 1424681, Note_off_c, 0, 71, 60
1, 1424715, Note_on_c, 0, 68, 87
1, 1424757, Note_off_c, 0, 68, 63
1, 1424763, Note_on_c, 0, 76, 84
1, 1424797, Note_off_c, 0, 74, 60
1, 1424851, Control_c, 0, 64, 37
1, 1424866, Note_on_c, 0, 69, 99
1, 1424866, Control_c, 0, 64, 56
1, 1424867, Note_on_c, 0, 72, 79
1, 1424881, Control_c, 0, 64, 70
1, 1424885, Note_off_c, 0, 76, 61
1, 1424895, Control_c, 0, 64, 92
1, 1424899, Note_off_c, 0, 69, 66
1, 1424910, Control_c, 0, 64, 127
1, 1424952, Note_off_c, 0, 72, 61
1, 1424960, Note_on_c, 0, 76, 82
1, 1425055, Note_on_c, 0, 72, 80
1, 1425056, Note_off_c, 0, 76, 60
1, 1425118, Note_off_c, 0, 72, 55
1, 1425139, Note_on_c, 0, 69, 74
1, 1425230, Note_off_c, 0, 69, 60
1, 1425234, Note_on_c, 0, 72, 77
1, 1425326, Note_off_c, 0, 72, 60
1, 1425329, Note_on_c, 0, 76, 74
1, 1425353, Note_off_c, 0, 76, 67
1, 1425423, Note_on_c, 0, 57, 86
1, 1425426, Note_on_c, 0, 76, 97
1, 1425451, Control_c, 0, 64, 93
1, 1425457, Note_off_c, 0, 57, 62
1, 1425466, Control_c, 0, 64, 69
1, 1425481, Control_c, 0, 64, 47
1, 1425496, Control_c, 0, 64, 0
1, 1425518, Note_on_c, 0, 79, 80
1, 1425530, Note_off_c, 0, 76, 56
1, 1425560, Note_on_c, 0, 57, 82
1, 1425592, Note_off_c, 0, 57, 63
1, 1425604, Note_on_c, 0, 81, 83
1, 1425634, Note_off_c, 0, 79, 63
1, 1425686, Note_on_c, 0, 76, 94
1, 1425705, Note_on_c, 0, 59, 88
1, 1425724, Note_off_c, 0, 81, 62
1, 1425738, Note_off_c, 0, 59, 63
1, 1425773, Note_on_c, 0, 79, 86
1, 1425800, Note_off_c, 0, 76, 63
1, 1425817, Note_on_c, 0, 61, 93
1, 1425864, Note_off_c, 0, 61, 62
1, 1425866, Note_on_c, 0, 81, 91
1, 1425926, Note_off_c, 0, 79, 60
1, 1425976, Control_c, 0, 64, 47
1, 1425978, Note_on_c, 0, 74, 100
1, 1425980, Note_on_c, 0, 62, 113
1, 1425991, Control_c, 0, 64, 69
1, 1426006, Control_c, 0, 64, 95
1, 1426021, Control_c, 0, 64, 127
1, 1426030, Note_off_c, 0, 62, 60
1, 1426036, Note_off_c, 0, 81, 57
1, 1426066, Note_on_c, 0, 77, 91
1, 1426095, Note_off_c, 0, 74, 63
1, 1426158, Note_on_c, 0, 81, 95
1, 1426188, Note_off_c, 0, 77, 62
1, 1426249, Note_on_c, 0, 74, 99
1, 1426289, Note_off_c, 0, 81, 57
1, 1426333, Note_on_c, 0, 77, 92
1, 1426353, Note_off_c, 0, 74, 60
1, 1426419, Note_on_c, 0, 81, 93
1, 1426428, Note_off_c, 0, 77, 64
1, 1426457, Note_off_c, 0, 81, 67
1, 1426521, Note_on_c, 0, 50, 85
1, 1426521, Note_on_c, 0, 81, 98
1, 1426569, Note_off_c, 0, 50, 63
1, 1426608, Note_on_c, 0, 86, 95
1, 1426635, Note_off_c, 0, 81, 63
1, 1426657, Note_on_c, 0, 50, 91
1, 1426701, Note_on_c, 0, 89, 99
1, 1426720, Note_off_c, 0, 50, 62
1, 1426738, Note_off_c, 0, 86, 59
1, 1426793, Note_on_c, 0, 81, 107
1, 1426800, Control_c, 0, 64, 94
1, 1426806, Note_on_c, 0, 52, 97
1, 1426815, Control_c, 0, 64, 64
1, 1426830, Control_c, 0, 64, 0
1, 1426848, Note_off_c, 0, 52, 64
1, 1426885, Note_off_c, 0, 89, 34
1, 1426885, Note_on_c, 0, 86, 90
1, 1426913, Note_off_c, 0, 81, 65
1, 1426920, Note_on_c, 0, 53, 93
1, 1426971, Note_on_c, 0, 89, 102
1, 1426973, Note_off_c, 0, 53, 53
1, 1427017, Note_off_c, 0, 86, 54
1, 1427076, Note_on_c, 0, 79, 98
1, 1427079, Note_on_c, 0, 52, 96
1, 1427082, Control_c, 0, 64, 57
1, 1427097, Control_c, 0, 64, 75
1, 1427112, Control_c, 0, 64, 127
1, 1427168, Note_on_c, 0, 84, 100
1, 1427173, Note_off_c, 0, 89, 64
1, 1427196, Note_off_c, 0, 79, 64
1, 1427263, Note_on_c, 0, 91, 97
1, 1427313, Note_on_c, 0, 90, 51
1, 1427331, Note_off_c, 0, 84, 60
1, 1427340, Note_off_c, 0, 90, 64
1, 1427367, Note_on_c, 0, 81, 102
1, 1427377, Note_on_c, 0, 53, 98
1, 1427410, Note_off_c, 0, 91, 59
1, 1427416, Note_off_c, 0, 52, 60
1, 1427467, Note_on_c, 0, 84, 99
1, 1427470, Poly_aftertouch_c, 0, 89, 0
1, 1427499, Note_off_c, 0, 81, 64
1, 1427553, Note_on_c, 0, 89, 100
1, 1427611, Note_off_c, 0, 84, 56
1, 1427664, Note_on_c, 0, 79, 98
1, 1427666, Note_on_c, 0, 55, 106
1, 1427682, Note_off_c, 0, 89, 58
1, 1427683, Note_off_c, 0, 53, 38
1, 1427697, Control_c, 0, 64, 108
1, 1427704, Note_off_c, 0, 55, 66
1, 1427712, Control_c, 0, 64, 68
1, 1427727, Control_c, 0, 64, 0
1, 1427756, Note_on_c, 0, 84, 89
1, 1427779, Note_off_c, 0, 79, 63
1, 1427840, Note_on_c, 0, 88, 88
1, 1427896, Note_off_c, 0, 84, 62
1, 1427949, Note_on_c, 0, 55, 105
1, 1427953, Note_on_c, 0, 79, 100
1, 1427995, Note_off_c, 0, 55, 63
1, 1427995, Note_off_c, 0, 88, 65
1, 1428044, Note_on_c, 0, 83, 92
1, 1428051, Note_off_c, 0, 79, 62
1, 1428134, Poly_aftertouch_c, 0, 51, 127
1, 1428137, Note_on_c, 0, 86, 93
1, 1428153, Note_off_c, 0, 83, 65
1, 1428188, Poly_aftertouch_c, 0, 51, 0
1, 1428211, Note_off_c, 0, 86, 63
1, 1428238, Note_on_c, 0, 56, 100
1, 1428241, Note_on_c, 0, 52, 86
1, 1428249, Note_on_c, 0, 44, 66
1, 1428249, Note_on_c, 0, 88, 110
1, 1428254, Control_c, 0, 64, 62
1, 1428269, Control_c, 0, 64, 127
1, 1428274, Note_off_c, 0, 44, 62
1, 1428279, Note_off_c, 0, 56, 62
1, 1428286, Note_off_c, 0, 52, 60
1, 1428344, Note_on_c, 0, 86, 87
1, 1428402, Note_off_c, 0, 88, 51
1, 1428440, Note_on_c, 0, 83, 87
1, 1428484, Note_off_c, 0, 86, 58
1, 1428525, Note_off_c, 0, 83, 61
1, 1428529, Note_on_c, 0, 76, 91
1, 1428570, Note_off_c, 0, 76, 66
1, 1428619, Note_on_c, 0, 74, 93
1, 1428710, Note_on_c, 0, 71, 89
1, 1428775, Note_off_c, 0, 74, 57
1, 1428808, Note_on_c, 0, 52, 106
1, 1428809, Note_on_c, 0, 64, 105
1, 1428814, Note_on_c, 0, 44, 105
1, 1428832, Control_c, 0, 64, 87
1, 1428847, Control_c, 0, 64, 54
1, 1428855, Note_on_c, 0, 46, 19
1, 1428858, Note_off_c, 0, 71, 58
1, 1428862, Control_c, 0, 64, 0
1, 1428865, Note_on_c, 0, 43, 38
1, 1428892, Control_c, 0, 64, 36
1, 1428899, Note_off_c, 0, 46, 51
1, 1428899, Note_off_c, 0, 64, 63
1, 1428906, Control_c, 0, 64, 64
1, 1428907, Note_off_c, 0, 43, 46
1, 1428918, Note_on_c, 0, 76, 90
1, 1428921, Control_c, 0, 64, 80
1, 1428944, Control_c, 0, 64, 127
1, 1428952, Note_on_c, 0, 75, 57
1, 1429001, Note_off_c, 0, 75, 41
1, 1429014, Note_off_c, 0, 52, 52
1, 1429023, Note_off_c, 0, 76, 60
1, 1429025, Note_off_c, 0, 44, 49
1, 1429032, Note_on_c, 0, 64, 88
1, 1429118, Note_off_c, 0, 64, 62
1, 1429124, Note_on_c, 0, 52, 104
1, 1429130, Note_on_c, 0, 44, 91
1, 1429136, Note_on_c, 0, 76, 92
1, 1429165, Note_off_c, 0, 44, 54
1, 1429187, Note_off_c, 0, 52, 58
1, 1429223, Note_on_c, 0, 64, 98
1, 1429242, Note_off_c, 0, 76, 57
1, 1429330, Note_on_c, 0, 76, 88
1, 1429337, Note_off_c, 0, 64, 59
1, 1429410, Note_on_c, 0, 53, 101
1, 1429416, Note_on_c, 0, 45, 89
1, 1429422, Note_on_c, 0, 71, 92
1, 1429432, Control_c, 0, 64, 77
1, 1429434, Poly_aftertouch_c, 0, 50, 0
1, 1429445, Note_off_c, 0, 76, 59
1, 1429447, Control_c, 0, 64, 50
1, 1429464, Control_c, 0, 64, 0
1, 1429508, Control_c, 0, 64, 42
1, 1429515, Note_on_c, 0, 74, 99
1, 1429523, Control_c, 0, 64, 64
1, 1429532, Note_off_c, 0, 71, 67
1, 1429537, Control_c, 0, 64, 77
1, 1429552, Control_c, 0, 64, 102
1, 1429556, Note_off_c, 0, 74, 67
1, 1429567, Control_c, 0, 64, 127
1, 1429605, Note_on_c, 0, 77, 96
1, 1429670, Note_off_c, 0, 45, 60
1, 1429696, Note_on_c, 0, 83, 99
1, 1429697, Note_off_c, 0, 77, 66
1, 1429705, Note_off_c, 0, 53, 53
1, 1429785, Note_on_c, 0, 86, 100
1, 1429801, Note_off_c, 0, 83, 67
1, 1429821, Note_off_c, 0, 86, 68
1, 1429874, Note_on_c, 0, 89, 103
1, 1429932, Note_off_c, 0, 89, 63
1, 1429971, Note_on_c, 0, 95, 109
1, 1429974, Control_c, 0, 67, 20
1, 1429984, Note_on_c, 0, 53, 109
1, 1429989, Control_c, 0, 64, 65
1, 1429992, Note_on_c, 0, 45, 92
1, 1430003, Control_c, 0, 64, 0
1, 1430033, Control_c, 0, 64, 52
1, 1430033, Control_c, 0, 67, 0
1, 1430048, Control_c, 0, 64, 71
1, 1430063, Control_c, 0, 64, 127
1, 1430080, Note_on_c, 0, 83, 99
1, 1430087, Note_off_c, 0, 95, 50
1, 1430129, Poly_aftertouch_c, 0, 47, 0
1, 1430145, Note_off_c, 0, 45, 59
1, 1430162, Note_off_c, 0, 53, 53
1, 1430177, Note_on_c, 0, 95, 98
1, 1430179, Note_off_c, 0, 83, 47
1, 1430206, Note_on_c, 0, 88, 31
1, 1430266, Note_on_c, 0, 83, 103
1, 1430270, Note_on_c, 0, 45, 88
1, 1430270, Note_on_c, 0, 53, 91
1, 1430281, Note_on_c, 0, 93, 31
1, 1430286, Note_off_c, 0, 95, 60
1, 1430316, Note_off_c, 0, 93, 46
1, 1430322, Note_off_c, 0, 53, 60
1, 1430334, Note_off_c, 0, 88, 21
1, 1430337, Note_off_c, 0, 83, 62
1, 1430338, Note_off_c, 0, 45, 62
1, 1430360, Note_on_c, 0, 95, 97
1, 1430416, Note_on_c, 0, 93, 25
1, 1430448, Poly_aftertouch_c, 0, 88, 0
1, 1430450, Note_off_c, 0, 95, 63
1, 1430454, Note_on_c, 0, 83, 91
1, 1430479, Note_off_c, 0, 93, 43
1, 1430513, Note_off_c, 0, 83, 65
1, 1430558, Note_on_c, 0, 88, 104
1, 1430559, Note_on_c, 0, 52, 101
1, 1430562, Note_on_c, 0, 44, 101
1, 1430574, Control_c, 0, 64, 92
1, 1430589, Control_c, 0, 64, 53
1, 1430604, Control_c, 0, 64, 0
1, 1430648, Control_c, 0, 64, 55
1, 1430662, Note_on_c, 0, 86, 93
1, 1430663, Control_c, 0, 64, 73
1, 1430678, Control_c, 0, 64, 100
1, 1430692, Control_c, 0, 64, 127
1, 1430711, Note_off_c, 0, 88, 59
1, 1430752, Note_on_c, 0, 83, 94
1, 1430780, Note_off_c, 0, 44, 60
1, 1430781, Note_off_c, 0, 52, 59
1, 1430814, Note_off_c, 0, 86, 60
1, 1430847, Note_off_c, 0, 83, 64
1, 1430850, Note_on_c, 0, 76, 95
1, 1430892, Note_off_c, 0, 76, 66
1, 1430940, Note_on_c, 0, 74, 95
1, 1431028, Note_on_c, 0, 71, 92
1, 1431080, Note_off_c, 0, 74, 58
1, 1431127, Note_on_c, 0, 52, 104
1, 1431128, Note_on_c, 0, 44, 101
1, 1431131, Note_on_c, 0, 64, 98
1, 1431138, Control_c, 0, 64, 116
1, 1431153, Control_c, 0, 64, 71
1, 1431168, Control_c, 0, 64, 0
1, 1431195, Note_off_c, 0, 71, 58
1, 1431220, Control_c, 0, 64, 54
1, 1431234, Poly_aftertouch_c, 0, 43, 127
1, 1431235, Control_c, 0, 64, 71
1, 1431235, Note_on_c, 0, 76, 89
1, 1431245, Note_off_c, 0, 64, 61
1, 1431249, Control_c, 0, 64, 93
1, 1431264, Control_c, 0, 64, 127
1, 1431279, Poly_aftertouch_c, 0, 43, 0
1, 1431285, Note_off_c, 0, 44, 45
1, 1431327, Note_off_c, 0, 52, 48
1, 1431333, Note_on_c, 0, 64, 95
1, 1431337, Poly_aftertouch_c, 0, 74, 127
1, 1431350, Note_off_c, 0, 76, 60
1, 1431375, Poly_aftertouch_c, 0, 74, 0
1, 1431426, Control_c, 0, 64, 98
1, 1431440, Note_on_c, 0, 76, 93
1, 1431441, Control_c, 0, 64, 69
1, 1431445, Note_on_c, 0, 52, 97
1, 1431445, Note_off_c, 0, 64, 45
1, 1431447, Note_on_c, 0, 44, 91
1, 1431456, Control_c, 0, 64, 42
1, 1431471, Control_c, 0, 64, 0
1, 1431486, Control_c, 0, 64, 53
1, 1431501, Control_c, 0, 64, 69
1, 1431515, Control_c, 0, 64, 91
1, 1431529, Note_on_c, 0, 64, 94
1, 1431530, Control_c, 0, 64, 127
1, 1431533, Note_off_c, 0, 44, 56
1, 1431536, Note_off_c, 0, 52, 55
1, 1431544, Poly_aftertouch_c, 0, 46, 0
1, 1431544, Note_off_c, 0, 76, 57
1, 1431625, Note_on_c, 0, 76, 90
1, 1431633, Note_off_c, 0, 64, 63
1, 1431719, Note_on_c, 0, 53, 97
1, 1431726, Note_on_c, 0, 45, 89
1, 1431732, Note_on_c, 0, 71, 91
1, 1431738, Control_c, 0, 64, 95
1, 1431753, Control_c, 0, 64, 68
1, 1431764, Note_off_c, 0, 76, 62
1, 1431768, Control_c, 0, 64, 36
1, 1431782, Control_c, 0, 64, 0
1, 1431826, Control_c, 0, 64, 41
1, 1431832, Note_on_c, 0, 74, 96
1, 1431841, Control_c, 0, 64, 62
1, 1431849, Note_off_c, 0, 71, 65
1, 1431857, Control_c, 0, 64, 79
1, 1431872, Note_off_c, 0, 74, 66
1, 1431872, Control_c, 0, 64, 127
1, 1431935, Note_on_c, 0, 77, 95
1, 1431975, Note_off_c, 0, 45, 59
1, 1431989, Note_off_c, 0, 53, 57
1, 1432013, Note_on_c, 0, 83, 99
1, 1432016, Note_off_c, 0, 77, 68
1, 1432099, Note_on_c, 0, 86, 98
1, 1432117, Note_off_c, 0, 83, 65
1, 1432140, Note_off_c, 0, 86, 68
1, 1432194, Note_on_c, 0, 89, 107
1, 1432245, Note_off_c, 0, 89, 66
1, 1432280, Control_c, 0, 64, 82
1, 1432290, Note_on_c, 0, 95, 108
1, 1432292, Note_on_c, 0, 53, 100
1, 1432295, Control_c, 0, 64, 51
1, 1432300, Note_on_c, 0, 45, 91
1, 1432310, Control_c, 0, 64, 0
1, 1432325, Control_c, 0, 64, 36
1, 1432339, Control_c, 0, 64, 59
1, 1432354, Control_c, 0, 64, 72
1, 1432369, Control_c, 0, 64, 101
1, 1432384, Control_c, 0, 64, 127
1, 1432397, Note_on_c, 0, 83, 99
1, 1432403, Note_off_c, 0, 95, 47
1, 1432412, Note_off_c, 0, 45, 63
1, 1432447, Note_off_c, 0, 53, 39
1, 1432485, Note_off_c, 0, 83, 60
1, 1432498, Note_on_c, 0, 95, 99
1, 1432561, Note_on_c, 0, 53, 93
1, 1432566, Note_on_c, 0, 45, 79
1, 1432588, Note_off_c, 0, 95, 63
1, 1432598, Note_on_c, 0, 83, 90
1, 1432608, Note_off_c, 0, 45, 52
1, 1432620, Note_off_c, 0, 53, 57
1, 1432652, Note_off_c, 0, 83, 67
1, 1432686, Note_on_c, 0, 95, 90
1, 1432754, Note_off_c, 0, 95, 55
1, 1432768, Note_on_c, 0, 83, 84
1, 1432801, Note_off_c, 0, 83, 61
1, 1432884, Note_on_c, 0, 52, 89
1, 1432886, Note_on_c, 0, 44, 93
1, 1432901, Note_on_c, 0, 98, 101
1, 1432984, Control_c, 0, 64, 109
1, 1432999, Control_c, 0, 64, 78
1, 1433006, Note_on_c, 0, 97, 88
1, 1433014, Control_c, 0, 64, 62
1, 1433029, Control_c, 0, 64, 38
1, 1433044, Control_c, 0, 64, 0
1, 1433103, Control_c, 0, 64, 41
1, 1433107, Note_on_c, 0, 95, 84
1, 1433118, Control_c, 0, 64, 55
1, 1433133, Control_c, 0, 64, 65
1, 1433147, Control_c, 0, 64, 75
1, 1433162, Note_off_c, 0, 98, 45
1, 1433162, Control_c, 0, 64, 87
1, 1433177, Control_c, 0, 64, 100
1, 1433182, Note_off_c, 0, 97, 63
1, 1433192, Control_c, 0, 64, 108
1, 1433199, Note_off_c, 0, 95, 65
1, 1433202, Note_on_c, 0, 93, 82
1, 1433206, Control_c, 0, 64, 125
1, 1433221, Control_c, 0, 64, 127
1, 1433291, Note_on_c, 0, 92, 80
1, 1433310, Note_off_c, 0, 93, 62
1, 1433369, Control_c, 0, 64, 89
1, 1433384, Control_c, 0, 64, 65
1, 1433386, Note_on_c, 0, 90, 85
1, 1433399, Control_c, 0, 64, 41
1, 1433414, Control_c, 0, 64, 0
1, 1433436, Control_c, 0, 64, 43
1, 1433451, Control_c, 0, 64, 58
1, 1433458, Note_off_c, 0, 92, 64
1, 1433467, Control_c, 0, 64, 67
1, 1433482, Control_c, 0, 64, 76
1, 1433497, Control_c, 0, 64, 91
1, 1433497, Note_on_c, 0, 88, 88
1, 1433511, Control_c, 0, 64, 104
1, 1433526, Control_c, 0, 64, 127
1, 1433544, Note_off_c, 0, 44, 48
1, 1433563, Note_off_c, 0, 52, 57
1, 1433564, Note_off_c, 0, 90, 63
1, 1433585, Note_off_c, 0, 88, 65
1, 1433586, Note_on_c, 0, 86, 81
1, 1433680, Note_on_c, 0, 85, 79
1, 1433705, Note_off_c, 0, 86, 46
1, 1433775, Note_on_c, 0, 83, 80
1, 1433840, Note_off_c, 0, 85, 64
1, 1433864, Note_on_c, 0, 81, 84
1, 1433867, Note_off_c, 0, 83, 62
1, 1433965, Note_on_c, 0, 80, 79
1, 1433971, Note_off_c, 0, 81, 57
1, 1434059, Note_on_c, 0, 78, 79
1, 1434115, Note_off_c, 0, 80, 58
1, 1434147, Note_on_c, 0, 76, 79
1, 1434218, Note_off_c, 0, 78, 62
1, 1434239, Note_off_c, 0, 76, 63
1, 1434243, Note_on_c, 0, 74, 83
1, 1434244, Control_c, 0, 64, 119
1, 1434260, Control_c, 0, 64, 116
1, 1434275, Control_c, 0, 64, 113
1, 1434290, Control_c, 0, 64, 111
1, 1434320, Control_c, 0, 64, 108
1, 1434334, Control_c, 0, 64, 106
1, 1434334, Control_c, 0, 67, 21
1, 1434338, Note_off_c, 0, 74, 60
1, 1434338, Note_on_c, 0, 73, 74
1, 1434349, Control_c, 0, 64, 104
1, 1434349, Control_c, 0, 67, 25
1, 1434364, Control_c, 0, 64, 101
1, 1434379, Control_c, 0, 64, 97
1, 1434379, Control_c, 0, 67, 28
1, 1434394, Control_c, 0, 64, 93
1, 1434394, Control_c, 0, 67, 31
1, 1434408, Control_c, 0, 64, 88
1, 1434408, Control_c, 0, 67, 35
1, 1434423, Control_c, 0, 64, 84
1, 1434423, Control_c, 0, 67, 41
1, 1434438, Control_c, 0, 64, 80
1, 1434438, Control_c, 0, 67, 48
1, 1434439, Note_on_c, 0, 71, 71
1, 1434452, Control_c, 0, 64, 76
1, 1434452, Control_c, 0, 67, 58
1, 1434467, Control_c, 0, 64, 73
1, 1434467, Control_c, 0, 67, 66
1, 1434482, Control_c, 0, 64, 69
1, 1434482, Control_c, 0, 67, 73
1, 1434491, Note_off_c, 0, 73, 61
1, 1434497, Control_c, 0, 64, 66
1, 1434497, Control_c, 0, 67, 79
1, 1434512, Control_c, 0, 64, 63
1, 1434512, Control_c, 0, 67, 84
1, 1434517, Note_off_c, 0, 71, 63
1, 1434526, Note_on_c, 0, 69, 69
1, 1434526, Control_c, 0, 64, 62
1, 1434526, Control_c, 0, 67, 89
1, 1434541, Control_c, 0, 64, 61
1, 1434541, Control_c, 0, 67, 93
1, 1434556, Control_c, 0, 67, 96
1, 1434571, Control_c, 0, 67, 99
1, 1434586, Control_c, 0, 64, 60
1, 1434586, Control_c, 0, 67, 101
1, 1434600, Control_c, 0, 67, 106
1, 1434615, Control_c, 0, 64, 60
1, 1434615, Control_c, 0, 67, 111
1, 1434618, Note_off_c, 0, 69, 58
1, 1434630, Control_c, 0, 64, 59
1, 1434630, Control_c, 0, 67, 117
1, 1434636, Note_on_c, 0, 68, 66
1, 1434645, Control_c, 0, 64, 59
1, 1434645, Control_c, 0, 67, 123
1, 1434660, Control_c, 0, 67, 127
1, 1434674, Control_c, 0, 64, 58
1, 1434704, Control_c, 0, 64, 58
1, 1434724, Note_on_c, 0, 66, 71
1, 1434764, Control_c, 0, 64, 57
1, 1434770, Note_off_c, 0, 68, 60
1, 1434778, Control_c, 0, 64, 57
1, 1434793, Control_c, 0, 64, 56
1, 1434827, Note_on_c, 0, 64, 61
1, 1434832, Note_off_c, 0, 66, 58
1, 1434852, Control_c, 0, 64, 56
1, 1434882, Control_c, 0, 64, 55
1, 1434911, Note_off_c, 0, 64, 61
1, 1434912, Control_c, 0, 64, 55
1, 1434934, Note_on_c, 0, 63, 61
1, 1435004, Note_off_c, 0, 63, 62
1, 1435030, Note_on_c, 0, 64, 60
1, 1435111, Note_off_c, 0, 64, 58
1, 1435116, Note_on_c, 0, 66, 68
1, 1435216, Control_c, 0, 64, 54
1, 1435222, Note_on_c, 0, 68, 64
1, 1435238, Note_off_c, 0, 66, 59
1, 1435296, Note_off_c, 0, 68, 63
1, 1435318, Note_on_c, 0, 69, 56
1, 1435320, Control_c, 0, 64, 54
1, 1435364, Control_c, 0, 64, 53
1, 1435408, Control_c, 0, 64, 53
1, 1435417, Note_off_c, 0, 69, 57
1, 1435429, Note_on_c, 0, 71, 54
1, 1435453, Control_c, 0, 64, 52
1, 1435515, Note_on_c, 0, 73, 60
1, 1435521, Note_off_c, 0, 71, 61
1, 1435542, Control_c, 0, 64, 52
1, 1435623, Note_off_c, 0, 73, 61
1, 1435643, Note_on_c, 0, 74, 68
1, 1435682, Control_c, 0, 64, 51
1, 1435712, Control_c, 0, 64, 51
1, 1435741, Note_off_c, 0, 74, 57
1, 1435757, Note_on_c, 0, 75, 51
1, 1435786, Control_c, 0, 64, 50
1, 1435891, Control_c, 0, 64, 51
1, 1435905, Note_on_c, 0, 57, 29
1, 1435906, Control_c, 0, 64, 51
1, 1435921, Control_c, 0, 64, 52
1, 1435935, Control_c, 0, 64, 53
1, 1435938, Note_off_c, 0, 75, 56
1, 1435950, Control_c, 0, 64, 55
1, 1435957, Note_on_c, 0, 76, 46
1, 1435965, Control_c, 0, 64, 58
1, 1435980, Control_c, 0, 64, 62
1, 1435995, Control_c, 0, 64, 65
1, 1436010, Control_c, 0, 64, 70
1, 1436024, Control_c, 0, 64, 76
1, 1436039, Control_c, 0, 64, 83
1, 1436054, Control_c, 0, 64, 90
1, 1436069, Control_c, 0, 64, 101
1, 1436081, Note_off_c, 0, 57, 43
1, 1436084, Control_c, 0, 64, 118
1, 1436087, Note_on_c, 0, 60, 35
1, 1436098, Control_c, 0, 64, 127
1, 1436138, Note_off_c, 0, 60, 45
1, 1436141, Note_off_c, 0, 76, 49
1, 1436182, Note_on_c, 0, 64, 37
1, 1436266, Note_off_c, 0, 64, 37
1, 1436284, Note_on_c, 0, 76, 51
1, 1436296, Note_on_c, 0, 57, 29
1, 1436346, Note_off_c, 0, 57, 49
1, 1436391, Note_off_c, 0, 76, 48
1, 1436403, Note_on_c, 0, 60, 23
1, 1436456, Note_off_c, 0, 60, 51
1, 1436480, Note_on_c, 0, 64, 35
1, 1436545, Note_off_c, 0, 64, 40
1, 1436564, Control_c, 0, 64, 91
1, 1436579, Control_c, 0, 64, 72
1, 1436584, Note_on_c, 0, 76, 49
1, 1436585, Note_on_c, 0, 56, 39
1, 1436594, Control_c, 0, 64, 63
1, 1436609, Control_c, 0, 64, 59
1, 1436624, Control_c, 0, 64, 63
1, 1436639, Control_c, 0, 64, 68
1, 1436654, Control_c, 0, 64, 77
1, 1436667, Note_off_c, 0, 56, 52
1, 1436669, Control_c, 0, 64, 94
1, 1436684, Control_c, 0, 64, 127
1, 1436701, Note_on_c, 0, 59, 36
1, 1436740, Note_off_c, 0, 59, 50
1, 1436743, Note_off_c, 0, 76, 62
1, 1436801, Note_on_c, 0, 64, 29
1, 1436843, Note_off_c, 0, 64, 47
1, 1436889, Note_on_c, 0, 56, 41
1, 1436942, Note_off_c, 0, 56, 55
1, 1436974, Note_on_c, 0, 59, 36
1, 1437002, Note_off_c, 0, 59, 58
1, 1437064, Note_on_c, 0, 64, 43
1, 1437096, Note_off_c, 0, 64, 52
1, 1437159, Control_c, 0, 64, 104
1, 1437181, Control_c, 0, 64, 85
1, 1437181, Note_on_c, 0, 52, 44
1, 1437196, Control_c, 0, 64, 71
1, 1437197, Note_on_c, 0, 76, 60
1, 1437211, Control_c, 0, 64, 60
1, 1437226, Control_c, 0, 64, 38
1, 1437228, Note_off_c, 0, 76, 65
1, 1437241, Control_c, 0, 64, 0
1, 1437321, Note_on_c, 0, 59, 33
1, 1437348, Note_on_c, 0, 76, 52
1, 1437372, Note_off_c, 0, 52, 40
1, 1437380, Note_off_c, 0, 76, 62
1, 1437390, Note_off_c, 0, 59, 55
1, 1437423, Note_on_c, 0, 62, 41
1, 1437488, Note_off_c, 0, 62, 53
1, 1437497, Note_on_c, 0, 78, 55
1, 1437503, Note_on_c, 0, 52, 42
1, 1437533, Note_off_c, 0, 78, 63
1, 1437624, Note_on_c, 0, 80, 60
1, 1437633, Note_on_c, 0, 59, 24
1, 1437658, Note_off_c, 0, 52, 41
1, 1437670, Note_off_c, 0, 80, 51
1, 1437709, Note_off_c, 0, 59, 40
1, 1437713, Note_on_c, 0, 62, 28
1, 1437745, Control_c, 0, 64, 36
1, 1437760, Control_c, 0, 64, 53
1, 1437775, Control_c, 0, 64, 63
1, 1437777, Note_off_c, 0, 62, 43
1, 1437789, Control_c, 0, 64, 67
1, 1437804, Control_c, 0, 64, 70
1, 1437819, Control_c, 0, 64, 74
1, 1437832, Note_on_c, 0, 53, 31
1, 1437834, Control_c, 0, 64, 78
1, 1437837, Note_on_c, 0, 81, 49
1, 1437849, Control_c, 0, 64, 81
1, 1437863, Control_c, 0, 64, 86
1, 1437878, Control_c, 0, 64, 91
1, 1437893, Control_c, 0, 64, 98
1, 1437908, Control_c, 0, 64, 105
1, 1437930, Control_c, 0, 64, 111
1, 1437954, Note_on_c, 0, 57, 32
1, 1437974, Control_c, 0, 64, 103
1, 1437989, Note_off_c, 0, 53, 34
1, 1437989, Control_c, 0, 64, 90
1, 1438004, Control_c, 0, 64, 77
1, 1438019, Control_c, 0, 64, 69
1, 1438030, Note_off_c, 0, 57, 37
1, 1438034, Control_c, 0, 64, 67
1, 1438049, Control_c, 0, 64, 68
1, 1438064, Control_c, 0, 64, 72
1, 1438078, Control_c, 0, 64, 79
1, 1438092, Poly_aftertouch_c, 0, 60, 127
1, 1438093, Control_c, 0, 64, 88
1, 1438108, Control_c, 0, 64, 98
1, 1438122, Control_c, 0, 64, 108
1, 1438127, Note_on_c, 0, 53, 44
1, 1438137, Control_c, 0, 64, 113
1, 1438141, Poly_aftertouch_c, 0, 60, 0
1, 1438182, Control_c, 0, 64, 116
1, 1438209, Note_off_c, 0, 53, 47
1, 1438211, Control_c, 0, 64, 118
1, 1438234, Note_off_c, 0, 81, 43
1, 1438241, Note_on_c, 0, 57, 27
1, 1438298, Note_off_c, 0, 57, 43
1, 1438329, Note_on_c, 0, 60, 29
1, 1438405, Control_c, 0, 64, 110
1, 1438412, Note_on_c, 0, 53, 33
1, 1438419, Control_c, 0, 64, 95
1, 1438434, Control_c, 0, 64, 81
1, 1438438, Note_off_c, 0, 60, 28
1, 1438449, Control_c, 0, 64, 68
1, 1438459, Note_on_c, 0, 72, 38
1, 1438464, Control_c, 0, 64, 60
1, 1438479, Control_c, 0, 64, 59
1, 1438493, Control_c, 0, 64, 62
1, 1438508, Control_c, 0, 64, 65
1, 1438523, Control_c, 0, 64, 70
1, 1438538, Control_c, 0, 64, 76
1, 1438552, Note_on_c, 0, 57, 23
1, 1438553, Control_c, 0, 64, 83
1, 1438560, Note_off_c, 0, 53, 36
1, 1438568, Control_c, 0, 64, 91
1, 1438582, Control_c, 0, 64, 97
1, 1438597, Control_c, 0, 64, 101
1, 1438612, Control_c, 0, 64, 104
1, 1438621, Note_off_c, 0, 72, 36
1, 1438624, Note_off_c, 0, 57, 38
1, 1438627, Note_on_c, 0, 60, 33
1, 1438640, Control_c, 0, 64, 109
1, 1438655, Control_c, 0, 64, 119
1, 1438678, Control_c, 0, 64, 127
1, 1438721, Note_on_c, 0, 53, 38
1, 1438722, Control_c, 0, 67, 125
1, 1438733, Note_off_c, 0, 60, 33
1, 1438737, Control_c, 0, 67, 116
1, 1438751, Control_c, 0, 67, 103
1, 1438758, Note_on_c, 0, 72, 53
1, 1438766, Control_c, 0, 67, 87
1, 1438781, Control_c, 0, 67, 70
1, 1438796, Control_c, 0, 67, 54
1, 1438811, Control_c, 0, 67, 39
1, 1438821, Note_off_c, 0, 53, 49
1, 1438825, Note_off_c, 0, 72, 51
1, 1438825, Control_c, 0, 67, 20
1, 1438840, Control_c, 0, 67, 0
1, 1438842, Note_on_c, 0, 57, 32
1, 1438931, Note_off_c, 0, 57, 38
1, 1438961, Note_on_c, 0, 60, 10
1, 1439012, Note_on_c, 0, 53, 32
1, 1439038, Note_off_c, 0, 60, 39
1, 1439070, Note_on_c, 0, 72, 48
1, 1439113, Note_off_c, 0, 72, 61
1, 1439123, Note_off_c, 0, 53, 48
1, 1439146, Note_on_c, 0, 57, 28
1, 1439214, Note_off_c, 0, 57, 49
1, 1439275, Note_on_c, 0, 60, 8
1, 1439312, Note_on_c, 0, 53, 36
1, 1439331, Note_off_c, 0, 60, 47
1, 1439405, Note_off_c, 0, 53, 53
1, 1439454, Note_on_c, 0, 57, 31
1, 1439518, Note_off_c, 0, 57, 43
1, 1439551, Note_on_c, 0, 60, 34
1, 1439637, Note_off_c, 0, 60, 35
1, 1439646, Note_on_c, 0, 53, 29
1, 1439662, Note_on_c, 0, 81, 64
1, 1439668, Note_on_c, 0, 69, 49
1, 1439711, Note_off_c, 0, 69, 48
1, 1439727, Note_off_c, 0, 81, 59
1, 1439741, Note_off_c, 0, 53, 39
1, 1439776, Note_on_c, 0, 57, 35
1, 1439817, Note_off_c, 0, 57, 52
1, 1439864, Note_on_c, 0, 60, 35
1, 1439951, Note_on_c, 0, 81, 81
1, 1439960, Note_on_c, 0, 53, 38
1, 1439971, Note_off_c, 0, 60, 38
1, 1440016, Note_off_c, 0, 53, 55
1, 1440017, Note_off_c, 0, 81, 62
1, 1440022, Poly_aftertouch_c, 0, 69, 0
1, 1440050, Poly_aftertouch_c, 0, 69, 0
1, 1440060, Note_on_c, 0, 57, 36
1, 1440091, Note_off_c, 0, 57, 60
1, 1440147, Note_on_c, 0, 60, 40
1, 1440256, Note_off_c, 0, 60, 33
1, 1440279, Control_c, 0, 64, 84
1, 1440289, Note_on_c, 0, 52, 36
1, 1440294, Control_c, 0, 64, 67
1, 1440302, Note_on_c, 0, 82, 61
1, 1440309, Control_c, 0, 64, 55
1, 1440323, Note_on_c, 0, 70, 33
1, 1440323, Control_c, 0, 64, 49
1, 1440338, Control_c, 0, 64, 55
1, 1440353, Control_c, 0, 64, 60
1, 1440368, Control_c, 0, 64, 66
1, 1440383, Control_c, 0, 64, 73
1, 1440398, Control_c, 0, 64, 85
1, 1440398, Control_c, 0, 67, 19
1, 1440413, Control_c, 0, 64, 108
1, 1440413, Control_c, 0, 67, 24
1, 1440417, Note_on_c, 0, 55, 38
1, 1440428, Control_c, 0, 64, 127
1, 1440428, Control_c, 0, 67, 30
1, 1440443, Note_off_c, 0, 52, 35
1, 1440443, Control_c, 0, 67, 38
1, 1440457, Control_c, 0, 67, 55
1, 1440472, Control_c, 0, 67, 76
1, 1440487, Control_c, 0, 67, 97
1, 1440493, Note_off_c, 0, 82, 54
1, 1440502, Control_c, 0, 67, 116
1, 1440513, Note_off_c, 0, 55, 54
1, 1440516, Control_c, 0, 67, 127
1, 1440542, Note_on_c, 0, 60, 23
1, 1440592, Note_on_c, 0, 52, 36
1, 1440601, Note_off_c, 0, 60, 45
1, 1440673, Note_off_c, 0, 52, 54
1, 1440684, Note_on_c, 0, 55, 38
1, 1440708, Note_off_c, 0, 70, 41
1, 1440755, Note_off_c, 0, 55, 51
1, 1440803, Note_on_c, 0, 60, 28
1, 1440843, Control_c, 0, 64, 103
1, 1440858, Control_c, 0, 64, 75
1, 1440872, Control_c, 0, 64, 62
1, 1440878, Note_off_c, 0, 60, 48
1, 1440884, Note_on_c, 0, 52, 20
1, 1440887, Control_c, 0, 64, 47
1, 1440893, Note_on_c, 0, 72, 49
1, 1440902, Control_c, 0, 64, 47
1, 1440924, Control_c, 0, 64, 53
1, 1440939, Control_c, 0, 64, 59
1, 1440953, Control_c, 0, 64, 66
1, 1440968, Control_c, 0, 64, 73
1, 1440983, Control_c, 0, 64, 82
1, 1440998, Note_off_c, 0, 52, 34
1, 1440998, Control_c, 0, 64, 89
1, 1441009, Note_on_c, 0, 55, 39
1, 1441013, Control_c, 0, 64, 93
1, 1441027, Control_c, 0, 64, 97
1, 1441041, Note_off_c, 0, 72, 55
1, 1441042, Control_c, 0, 64, 100
1, 1441057, Control_c, 0, 64, 106
1, 1441072, Control_c, 0, 64, 115
1, 1441078, Note_off_c, 0, 55, 51
1, 1441086, Control_c, 0, 64, 127
1, 1441128, Note_on_c, 0, 60, 28
1, 1441187, Note_off_c, 0, 60, 43
1, 1441197, Note_on_c, 0, 52, 29
1, 1441197, Note_on_c, 0, 72, 55
1, 1441251, Note_off_c, 0, 72, 55
1, 1441264, Note_off_c, 0, 52, 49
1, 1441308, Note_on_c, 0, 55, 30
1, 1441347, Note_off_c, 0, 55, 50
1, 1441406, Note_on_c, 0, 60, 20
1, 1441443, Control_c, 0, 64, 102
1, 1441457, Note_off_c, 0, 60, 45
1, 1441458, Control_c, 0, 64, 76
1, 1441469, Note_on_c, 0, 52, 31
1, 1441473, Control_c, 0, 64, 62
1, 1441488, Control_c, 0, 64, 50
1, 1441503, Control_c, 0, 64, 53
1, 1441507, Note_on_c, 0, 72, 45
1, 1441517, Control_c, 0, 64, 61
1, 1441532, Control_c, 0, 64, 67
1, 1441547, Control_c, 0, 64, 79
1, 1441551, Note_off_c, 0, 52, 51
1, 1441561, Control_c, 0, 64, 93
1, 1441576, Control_c, 0, 64, 110
1, 1441589, Note_on_c, 0, 55, 38
1, 1441591, Control_c, 0, 64, 127
1, 1441616, Note_off_c, 0, 72, 63
1, 1441647, Note_off_c, 0, 55, 52
1, 1441651, Control_c, 0, 67, 120
1, 1441674, Control_c, 0, 67, 102
1, 1441689, Control_c, 0, 67, 67
1, 1441703, Note_on_c, 0, 60, 38
1, 1441703, Control_c, 0, 67, 28
1, 1441718, Control_c, 0, 67, 0
1, 1441747, Note_off_c, 0, 60, 47
1, 1441784, Note_on_c, 0, 52, 35
1, 1441832, Note_off_c, 0, 52, 59
1, 1441871, Note_on_c, 0, 55, 40
1, 1441909, Note_off_c, 0, 55, 61
1, 1441969, Note_on_c, 0, 60, 40
1, 1442034, Note_off_c, 0, 60, 43
1, 1442061, Note_on_c, 0, 94, 77
1, 1442078, Note_on_c, 0, 52, 34
1, 1442111, Note_off_c, 0, 52, 54
1, 1442118, Control_c, 0, 67, 21
1, 1442122, Note_on_c, 0, 91, 75
1, 1442133, Control_c, 0, 67, 29
1, 1442148, Control_c, 0, 67, 41
1, 1442151, Note_off_c, 0, 94, 56
1, 1442154, Note_on_c, 0, 55, 41
1, 1442162, Control_c, 0, 67, 56
1, 1442177, Control_c, 0, 67, 77
1, 1442189, Note_off_c, 0, 55, 60
1, 1442192, Control_c, 0, 67, 94
1, 1442198, Note_on_c, 0, 88, 72
1, 1442203, Note_off_c, 0, 91, 58
1, 1442207, Control_c, 0, 67, 112
1, 1442222, Control_c, 0, 67, 127
1, 1442229, Note_off_c, 0, 88, 65
1, 1442245, Note_on_c, 0, 60, 47
1, 1442254, Note_on_c, 0, 82, 67
1, 1442277, Note_off_c, 0, 82, 66
1, 1442288, Note_off_c, 0, 60, 51
1, 1442342, Note_on_c, 0, 52, 38
1, 1442350, Note_on_c, 0, 79, 67
1, 1442418, Note_off_c, 0, 52, 55
1, 1442419, Note_off_c, 0, 79, 63
1, 1442443, Note_on_c, 0, 76, 62
1, 1442448, Note_on_c, 0, 55, 43
1, 1442487, Note_off_c, 0, 55, 63
1, 1442534, Note_on_c, 0, 70, 60
1, 1442535, Note_on_c, 0, 60, 50
1, 1442538, Note_off_c, 0, 76, 40
1, 1442598, Note_off_c, 0, 60, 53
1, 1442615, Note_off_c, 0, 70, 58
1, 1442615, Control_c, 0, 64, 92
1, 1442630, Control_c, 0, 64, 69
1, 1442645, Control_c, 0, 64, 44
1, 1442648, Note_on_c, 0, 53, 37
1, 1442657, Note_on_c, 0, 69, 55
1, 1442660, Control_c, 0, 64, 0
1, 1442674, Control_c, 0, 64, 39
1, 1442689, Control_c, 0, 64, 52
1, 1442704, Control_c, 0, 64, 61
1, 1442718, Control_c, 0, 64, 69
1, 1442733, Control_c, 0, 64, 80
1, 1442748, Control_c, 0, 64, 100
1, 1442763, Control_c, 0, 64, 127
1, 1442772, Note_on_c, 0, 57, 40
1, 1442777, Note_off_c, 0, 53, 36
1, 1442821, Note_off_c, 0, 57, 58
1, 1442831, Note_off_c, 0, 69, 62
1, 1442866, Control_c, 0, 67, 103
1, 1442872, Note_on_c, 0, 60, 43
1, 1442881, Control_c, 0, 67, 67
1, 1442896, Control_c, 0, 67, 30
1, 1442911, Control_c, 0, 67, 0
1, 1442931, Note_off_c, 0, 60, 50
1, 1442957, Note_on_c, 0, 53, 39
1, 1443031, Note_off_c, 0, 53, 53
1, 1443060, Note_on_c, 0, 57, 38
1, 1443101, Note_off_c, 0, 57, 54
1, 1443161, Note_on_c, 0, 60, 39
1, 1443219, Note_off_c, 0, 60, 45
1, 1443230, Control_c, 0, 64, 85
1, 1443245, Control_c, 0, 64, 65
1, 1443260, Note_on_c, 0, 53, 33
1, 1443260, Control_c, 0, 64, 51
1, 1443275, Control_c, 0, 64, 47
1, 1443289, Control_c, 0, 64, 53
1, 1443292, Note_on_c, 0, 72, 50
1, 1443304, Control_c, 0, 64, 58
1, 1443319, Control_c, 0, 64, 63
1, 1443334, Control_c, 0, 64, 69
1, 1443349, Control_c, 0, 64, 81
1, 1443364, Control_c, 0, 64, 93
1, 1443379, Control_c, 0, 64, 103
1, 1443388, Note_off_c, 0, 53, 33
1, 1443389, Note_on_c, 0, 57, 33
1, 1443389, Note_off_c, 0, 72, 62
1, 1443394, Control_c, 0, 64, 112
1, 1443408, Control_c, 0, 64, 127
1, 1443440, Note_off_c, 0, 57, 44
1, 1443483, Note_on_c, 0, 60, 39
1, 1443555, Note_off_c, 0, 60, 40
1, 1443571, Note_on_c, 0, 53, 39
1, 1443592, Note_on_c, 0, 72, 58
1, 1443632, Note_off_c, 0, 72, 60
1, 1443675, Note_off_c, 0, 53, 45
1, 1443702, Note_on_c, 0, 57, 36
1, 1443759, Note_off_c, 0, 57, 43
1, 1443789, Note_on_c, 0, 60, 38
1, 1443847, Note_off_c, 0, 60, 44
1, 1443868, Control_c, 0, 64, 106
1, 1443877, Note_on_c, 0, 53, 37
1, 1443883, Control_c, 0, 64, 82
1, 1443891, Note_on_c, 0, 72, 51
1, 1443898, Control_c, 0, 64, 67
1, 1443920, Control_c, 0, 64, 57
1, 1443935, Control_c, 0, 64, 55
1, 1443950, Control_c, 0, 64, 60
1, 1443964, Control_c, 0, 64, 64
1, 1443979, Control_c, 0, 64, 71
1, 1443994, Control_c, 0, 64, 82
1, 1444009, Control_c, 0, 64, 96
1, 1444014, Note_on_c, 0, 57, 35
1, 1444022, Note_off_c, 0, 53, 35
1, 1444024, Control_c, 0, 64, 110
1, 1444036, Note_off_c, 0, 72, 63
1, 1444038, Control_c, 0, 64, 127
1, 1444070, Note_off_c, 0, 57, 42
1, 1444097, Note_on_c, 0, 60, 46
1, 1444149, Note_off_c, 0, 60, 52
1, 1444187, Note_on_c, 0, 53, 41
1, 1444253, Note_off_c, 0, 53, 55
1, 1444303, Note_on_c, 0, 57, 37
1, 1444342, Note_off_c, 0, 57, 52
1, 1444405, Note_on_c, 0, 60, 28
1, 1444467, Note_off_c, 0, 60, 43
1, 1444502, Note_on_c, 0, 53, 35
1, 1444503, Note_on_c, 0, 81, 66
1, 1444508, Note_on_c, 0, 69, 49
1, 1444529, Note_off_c, 0, 81, 59
1, 1444537, Note_off_c, 0, 69, 57
1, 1444570, Note_off_c, 0, 53, 52
1, 1444613, Note_on_c, 0, 57, 37
1, 1444641, Note_on_c, 0, 81, 81
1, 1444649, Note_off_c, 0, 57, 56
1, 1444649, Note_on_c, 0, 69, 62
1, 1444684, Note_off_c, 0, 69, 57
1, 1444685, Note_off_c, 0, 81, 55
1, 1444695, Note_on_c, 0, 60, 48
1, 1444759, Note_off_c, 0, 60, 52
1, 1444794, Note_on_c, 0, 53, 46
1, 1444799, Note_on_c, 0, 81, 87
1, 1444804, Note_on_c, 0, 69, 71
1, 1444832, Note_off_c, 0, 69, 57
1, 1444836, Note_off_c, 0, 81, 53
1, 1444858, Note_off_c, 0, 53, 53
1, 1444902, Note_on_c, 0, 57, 32
1, 1444935, Note_on_c, 0, 69, 71
1, 1444935, Note_on_c, 0, 81, 84
1, 1444940, Note_off_c, 0, 57, 46
1, 1444968, Note_off_c, 0, 81, 53
1, 1444973, Note_off_c, 0, 69, 61
1, 1444982, Note_on_c, 0, 60, 42
1, 1445059, Note_off_c, 0, 60, 41
1, 1445084, Control_c, 0, 64, 89
1, 1445084, Note_on_c, 0, 52, 40
1, 1445099, Control_c, 0, 64, 67
1, 1445108, Note_on_c, 0, 82, 76
1, 1445113, Control_c, 0, 64, 42
1, 1445116, Note_on_c, 0, 70, 60
1, 1445128, Control_c, 0, 64, 0
1, 1445158, Control_c, 0, 64, 33
1, 1445173, Control_c, 0, 64, 50
1, 1445173, Control_c, 0, 67, 19
1, 1445179, Note_off_c, 0, 70, 0
1, 1445179, Note_on_c, 0, 70, 8
1, 1445187, Control_c, 0, 64, 63
1, 1445187, Control_c, 0, 67, 23
1, 1445202, Control_c, 0, 64, 71
1, 1445202, Control_c, 0, 67, 29
1, 1445212, Note_on_c, 0, 55, 27
1, 1445217, Control_c, 0, 64, 83
1, 1445217, Control_c, 0, 67, 38
1, 1445231, Control_c, 0, 64, 97
1, 1445231, Control_c, 0, 67, 50
1, 1445233, Note_off_c, 0, 82, 60
1, 1445244, Note_off_c, 0, 52, 35
1, 1445246, Control_c, 0, 64, 111
1, 1445246, Control_c, 0, 67, 68
1, 1445261, Control_c, 0, 64, 127
1, 1445261, Control_c, 0, 67, 85
1, 1445276, Control_c, 0, 67, 102
1, 1445291, Control_c, 0, 67, 118
1, 1445298, Note_off_c, 0, 55, 47
1, 1445305, Control_c, 0, 67, 127
1, 1445315, Note_on_c, 0, 60, 39
1, 1445343, Note_off_c, 0, 70, 52
1, 1445366, Note_off_c, 0, 60, 45
1, 1445395, Note_on_c, 0, 52, 39
1, 1445459, Note_off_c, 0, 52, 54
1, 1445477, Note_on_c, 0, 55, 39
1, 1445532, Note_off_c, 0, 55, 56
1, 1445591, Note_on_c, 0, 60, 34
1, 1445624, Note_on_c, 0, 71, 3
1, 1445640, Control_c, 0, 64, 92
1, 1445655, Control_c, 0, 64, 73
1, 1445662, Note_off_c, 0, 71, 52
1, 1445669, Control_c, 0, 64, 59
1, 1445674, Note_off_c, 0, 60, 37
1, 1445684, Control_c, 0, 64, 38
1, 1445694, Note_on_c, 0, 74, 56
1, 1445704, Note_on_c, 0, 52, 20
1, 1445714, Control_c, 0, 64, 49
1, 1445726, Note_on_c, 0, 72, 60
1, 1445728, Control_c, 0, 64, 58
1, 1445731, Note_off_c, 0, 74, 65
1, 1445743, Control_c, 0, 64, 66
1, 1445758, Control_c, 0, 64, 73
1, 1445772, Note_off_c, 0, 52, 40
1, 1445773, Control_c, 0, 64, 81
1, 1445787, Note_on_c, 0, 55, 38
1, 1445788, Control_c, 0, 64, 87
1, 1445803, Control_c, 0, 64, 91
1, 1445817, Control_c, 0, 64, 96
1, 1445830, Note_off_c, 0, 55, 57
1, 1445832, Control_c, 0, 64, 102
1, 1445832, Control_c, 0, 67, 124
1, 1445844, Note_off_c, 0, 72, 63
1, 1445847, Control_c, 0, 64, 109
1, 1445847, Control_c, 0, 67, 104
1, 1445858, Note_on_c, 0, 71, 75
1, 1445862, Control_c, 0, 64, 119
1, 1445862, Control_c, 0, 67, 83
1, 1445877, Control_c, 0, 64, 127
1, 1445877, Control_c, 0, 67, 63
1, 1445889, Note_on_c, 0, 60, 50
1, 1445892, Control_c, 0, 67, 44
1, 1445907, Control_c, 0, 64, 119
1, 1445907, Control_c, 0, 67, 26
1, 1445921, Control_c, 0, 64, 95
1, 1445921, Control_c, 0, 67, 0
1, 1445936, Control_c, 0, 64, 74
1, 1445951, Note_off_c, 0, 60, 55
1, 1445951, Control_c, 0, 64, 61
1, 1445966, Control_c, 0, 64, 51
1, 1445981, Control_c, 0, 64, 54
1, 1445986, Note_on_c, 0, 52, 38
1, 1445996, Control_c, 0, 64, 60
1, 1445998, Note_on_c, 0, 72, 80
1, 1446010, Control_c, 0, 64, 66
1, 1446019, Note_off_c, 0, 71, 58
1, 1446025, Control_c, 0, 64, 73
1, 1446040, Control_c, 0, 64, 83
1, 1446043, Note_off_c, 0, 52, 57
1, 1446054, Control_c, 0, 64, 89
1, 1446069, Control_c, 0, 64, 92
1, 1446076, Note_on_c, 0, 55, 41
1, 1446084, Control_c, 0, 64, 93
1, 1446099, Control_c, 0, 64, 94
1, 1446109, Note_on_c, 0, 74, 93
1, 1446114, Control_c, 0, 64, 96
1, 1446118, Note_off_c, 0, 72, 62
1, 1446128, Control_c, 0, 64, 102
1, 1446130, Note_off_c, 0, 55, 58
1, 1446143, Control_c, 0, 64, 108
1, 1446166, Control_c, 0, 64, 110
1, 1446179, Note_off_c, 0, 74, 60
1, 1446185, Note_on_c, 0, 60, 42
1, 1446225, Control_c, 0, 64, 107
1, 1446240, Control_c, 0, 64, 89
1, 1446249, Note_off_c, 0, 60, 39
1, 1446255, Control_c, 0, 64, 71
1, 1446270, Control_c, 0, 64, 54
1, 1446278, Note_on_c, 0, 74, 72
1, 1446285, Control_c, 0, 64, 0
1, 1446287, Note_on_c, 0, 52, 39
1, 1446330, Control_c, 0, 64, 49
1, 1446336, Note_off_c, 0, 52, 60
1, 1446345, Control_c, 0, 64, 65
1, 1446359, Control_c, 0, 64, 74
1, 1446372, Note_on_c, 0, 55, 39
1, 1446374, Control_c, 0, 64, 83
1, 1446380, Note_off_c, 0, 74, 0
1, 1446389, Control_c, 0, 64, 91
1, 1446396, Note_on_c, 0, 74, 38
1, 1446404, Control_c, 0, 64, 96
1, 1446405, Note_off_c, 0, 55, 59
1, 1446419, Control_c, 0, 64, 101
1, 1446433, Control_c, 0, 64, 111
1, 1446448, Control_c, 0, 64, 127
1, 1446473, Note_on_c, 0, 60, 31
1, 1446492, Control_c, 0, 64, 110
1, 1446507, Control_c, 0, 64, 86
1, 1446522, Note_off_c, 0, 60, 45
1, 1446522, Control_c, 0, 64, 68
1, 1446537, Control_c, 0, 64, 42
1, 1446548, Note_off_c, 0, 74, 56
1, 1446552, Control_c, 0, 64, 0
1, 1446554, Note_on_c, 0, 52, 36
1, 1446566, Control_c, 0, 64, 35
1, 1446568, Note_on_c, 0, 72, 64
1, 1446581, Control_c, 0, 64, 54
1, 1446595, Note_off_c, 0, 72, 68
1, 1446596, Control_c, 0, 64, 65
1, 1446604, Note_off_c, 0, 52, 60
1, 1446611, Control_c, 0, 64, 76
1, 1446626, Control_c, 0, 64, 92
1, 1446640, Control_c, 0, 64, 127
1, 1446643, Note_on_c, 0, 55, 42
1, 1446673, Note_off_c, 0, 55, 62
1, 1446732, Note_on_c, 0, 60, 46
1, 1446811, Note_off_c, 0, 60, 43
1, 1446840, Note_on_c, 0, 94, 77
1, 1446852, Note_on_c, 0, 52, 42
1, 1446886, Note_off_c, 0, 52, 62
1, 1446890, Note_on_c, 0, 91, 74
1, 1446921, Note_on_c, 0, 55, 47
1, 1446959, Note_off_c, 0, 55, 63
1, 1446964, Note_off_c, 0, 94, 40
1, 1446982, Note_on_c, 0, 88, 64
1, 1446987, Note_off_c, 0, 91, 62
1, 1447007, Note_off_c, 0, 88, 67
1, 1447023, Note_on_c, 0, 60, 44
1, 1447024, Note_on_c, 0, 82, 72
1, 1447048, Note_off_c, 0, 82, 69
1, 1447083, Note_off_c, 0, 60, 51
1, 1447120, Note_on_c, 0, 52, 49
1, 1447127, Note_on_c, 0, 79, 64
1, 1447181, Note_off_c, 0, 52, 53
1, 1447197, Note_off_c, 0, 79, 63
1, 1447214, Note_on_c, 0, 76, 63
1, 1447226, Note_on_c, 0, 55, 48
1, 1447261, Note_off_c, 0, 55, 63
1, 1447306, Note_on_c, 0, 70, 63
1, 1447308, Note_off_c, 0, 76, 51
1, 1447319, Note_on_c, 0, 60, 51
1, 1447346, Control_c, 0, 64, 93
1, 1447357, Note_off_c, 0, 70, 57
1, 1447361, Control_c, 0, 64, 67
1, 1447368, Note_off_c, 0, 60, 57
1, 1447376, Control_c, 0, 64, 39
1, 1447390, Control_c, 0, 64, 0
1, 1447420, Control_c, 0, 64, 50
1, 1447421, Note_on_c, 0, 53, 39
1, 1447425, Note_on_c, 0, 69, 65
1, 1447434, Control_c, 0, 64, 67
1, 1447449, Control_c, 0, 64, 80
1, 1447464, Note_off_c, 0, 69, 64
1, 1447464, Control_c, 0, 64, 98
1, 1447477, Note_off_c, 0, 53, 56
1, 1447479, Control_c, 0, 64, 127
1, 1447519, Note_on_c, 0, 57, 48
1, 1447556, Note_off_c, 0, 57, 65
1, 1447614, Note_on_c, 0, 60, 56
1, 1447641, Note_off_c, 0, 60, 61
1, 1447689, Note_on_c, 0, 53, 62
1, 1447764, Note_off_c, 0, 53, 55
1, 1447799, Note_on_c, 0, 57, 44
1, 1447810, Note_on_c, 0, 93, 82
1, 1447832, Note_off_c, 0, 57, 52
1, 1447838, Note_off_c, 0, 93, 60
1, 1447878, Note_on_c, 0, 60, 56
1, 1447917, Control_c, 0, 64, 98
1, 1447928, Note_off_c, 0, 60, 55
1, 1447931, Control_c, 0, 64, 64
1, 1447946, Control_c, 0, 64, 44
1, 1447950, Note_on_c, 0, 94, 92
1, 1447959, Note_on_c, 0, 52, 61
1, 1447961, Control_c, 0, 64, 55
1, 1447976, Control_c, 0, 64, 66
1, 1447991, Control_c, 0, 64, 80
1, 1448005, Control_c, 0, 64, 127
1, 1448011, Note_off_c, 0, 52, 59
1, 1448013, Note_on_c, 0, 91, 79
1, 1448037, Note_on_c, 0, 55, 62
1, 1448068, Note_off_c, 0, 94, 51
1, 1448073, Note_off_c, 0, 55, 64
1, 1448083, Note_on_c, 0, 88, 74
1, 1448104, Note_off_c, 0, 91, 62
1, 1448124, Note_on_c, 0, 60, 62
1, 1448124, Note_off_c, 0, 88, 65
1, 1448133, Note_on_c, 0, 82, 79
1, 1448154, Note_off_c, 0, 82, 69
1, 1448200, Note_off_c, 0, 60, 53
1, 1448217, Note_on_c, 0, 52, 61
1, 1448226, Note_on_c, 0, 79, 79
1, 1448295, Note_off_c, 0, 52, 60
1, 1448304, Note_off_c, 0, 79, 61
1, 1448305, Note_on_c, 0, 76, 78
1, 1448315, Note_on_c, 0, 55, 62
1, 1448345, Note_off_c, 0, 55, 66
1, 1448407, Note_on_c, 0, 70, 77
1, 1448410, Note_on_c, 0, 60, 69
1, 1448451, Note_off_c, 0, 76, 33
1, 1448460, Note_off_c, 0, 70, 62
1, 1448472, Control_c, 0, 64, 89
1, 1448485, Note_off_c, 0, 60, 60
1, 1448487, Control_c, 0, 64, 61
1, 1448502, Control_c, 0, 64, 0
1, 1448515, Note_on_c, 0, 53, 71
1, 1448519, Note_on_c, 0, 69, 92
1, 1448546, Control_c, 0, 64, 38
1, 1448561, Control_c, 0, 64, 60
1, 1448563, Note_off_c, 0, 69, 66
1, 1448576, Control_c, 0, 64, 73
1, 1448590, Control_c, 0, 64, 91
1, 1448604, Note_off_c, 0, 53, 61
1, 1448605, Control_c, 0, 64, 127
1, 1448621, Note_on_c, 0, 57, 68
1, 1448664, Note_off_c, 0, 57, 61
1, 1448703, Note_on_c, 0, 60, 78
1, 1448760, Note_off_c, 0, 60, 57
1, 1448782, Note_on_c, 0, 53, 80
1, 1448863, Note_off_c, 0, 53, 56
1, 1448884, Note_on_c, 0, 57, 75
1, 1448889, Note_on_c, 0, 93, 85
1, 1448912, Note_off_c, 0, 57, 62
1, 1448930, Note_off_c, 0, 93, 64
1, 1448958, Note_on_c, 0, 60, 78
1, 1449019, Note_off_c, 0, 60, 61
1, 1449021, Control_c, 0, 64, 76
1, 1449036, Control_c, 0, 64, 54
1, 1449039, Note_on_c, 0, 94, 95
1, 1449044, Note_on_c, 0, 52, 80
1, 1449051, Control_c, 0, 64, 47
1, 1449066, Control_c, 0, 64, 63
1, 1449080, Control_c, 0, 64, 75
1, 1449095, Control_c, 0, 64, 110
1, 1449105, Note_on_c, 0, 91, 73
1, 1449109, Control_c, 0, 64, 127
1, 1449124, Note_on_c, 0, 55, 75
1, 1449124, Note_off_c, 0, 52, 62
1, 1449161, Note_off_c, 0, 94, 57
1, 1449195, Note_on_c, 0, 88, 81
1, 1449197, Note_off_c, 0, 55, 60
1, 1449216, Note_on_c, 0, 60, 76
1, 1449218, Note_off_c, 0, 91, 62
1, 1449239, Note_off_c, 0, 88, 66
1, 1449247, Note_on_c, 0, 82, 83
1, 1449266, Note_off_c, 0, 82, 72
1, 1449300, Note_off_c, 0, 60, 59
1, 1449308, Note_on_c, 0, 52, 72
1, 1449344, Note_on_c, 0, 79, 77
1, 1449395, Note_off_c, 0, 52, 61
1, 1449403, Note_on_c, 0, 55, 67
1, 1449426, Note_on_c, 0, 76, 78
1, 1449430, Note_off_c, 0, 79, 56
1, 1449449, Note_off_c, 0, 55, 62
1, 1449496, Note_on_c, 0, 60, 65
1, 1449510, Note_on_c, 0, 70, 70
1, 1449537, Note_off_c, 0, 76, 39
1, 1449557, Note_off_c, 0, 70, 60
1, 1449576, Control_c, 0, 64, 90
1, 1449589, Note_off_c, 0, 60, 58
1, 1449591, Control_c, 0, 64, 63
1, 1449606, Control_c, 0, 64, 0
1, 1449608, Note_on_c, 0, 53, 54
1, 1449617, Note_on_c, 0, 69, 72
1, 1449680, Control_c, 0, 64, 49
1, 1449692, Note_off_c, 0, 53, 60
1, 1449695, Control_c, 0, 64, 67
1, 1449698, Note_off_c, 0, 69, 59
1, 1449710, Control_c, 0, 64, 80
1, 1449713, Note_on_c, 0, 57, 58
1, 1449725, Control_c, 0, 64, 113
1, 1449740, Control_c, 0, 64, 127
1, 1449749, Note_off_c, 0, 57, 65
1, 1449845, Note_on_c, 0, 60, 22
1, 1449909, Note_off_c, 0, 60, 44
1, 1449917, Note_on_c, 0, 53, 48
1, 1449936, Note_on_c, 0, 81, 60
1, 1449971, Note_off_c, 0, 81, 57
1, 1449989, Note_off_c, 0, 53, 54
1, 1450033, Note_on_c, 0, 57, 40
1, 1450038, Note_on_c, 0, 69, 52
1, 1450070, Note_off_c, 0, 57, 50
1, 1450074, Note_off_c, 0, 69, 52
1, 1450107, Note_on_c, 0, 60, 56
1, 1450116, Note_on_c, 0, 81, 63
1, 1450134, Note_off_c, 0, 81, 64
1, 1450177, Control_c, 0, 64, 82
1, 1450192, Control_c, 0, 64, 64
1, 1450196, Note_off_c, 0, 60, 51
1, 1450207, Control_c, 0, 64, 42
1, 1450212, Note_on_c, 0, 52, 47
1, 1450222, Note_on_c, 0, 82, 71
1, 1450238, Control_c, 0, 64, 55
1, 1450252, Control_c, 0, 64, 65
1, 1450267, Control_c, 0, 64, 75
1, 1450279, Note_off_c, 0, 52, 56
1, 1450282, Control_c, 0, 64, 96
1, 1450287, Note_off_c, 0, 82, 55
1, 1450297, Control_c, 0, 64, 127
1, 1450316, Note_on_c, 0, 55, 33
1, 1450329, Note_on_c, 0, 70, 60
1, 1450353, Note_off_c, 0, 55, 62
1, 1450366, Note_off_c, 0, 70, 64
1, 1450400, Note_on_c, 0, 60, 58
1, 1450413, Note_on_c, 0, 82, 71
1, 1450440, Note_off_c, 0, 82, 66
1, 1450446, Note_off_c, 0, 60, 55
1, 1450489, Control_c, 0, 64, 93
1, 1450492, Note_on_c, 0, 52, 60
1, 1450504, Control_c, 0, 64, 69
1, 1450510, Note_on_c, 0, 83, 79
1, 1450518, Control_c, 0, 64, 52
1, 1450533, Control_c, 0, 64, 55
1, 1450548, Control_c, 0, 64, 62
1, 1450563, Control_c, 0, 64, 70
1, 1450575, Note_off_c, 0, 52, 62
1, 1450578, Control_c, 0, 64, 85
1, 1450587, Note_on_c, 0, 55, 60
1, 1450587, Note_off_c, 0, 83, 62
1, 1450593, Control_c, 0, 64, 127
1, 1450616, Note_on_c, 0, 71, 68
1, 1450629, Note_off_c, 0, 55, 61
1, 1450664, Note_off_c, 0, 71, 56
1, 1450700, Note_on_c, 0, 59, 54
1, 1450715, Note_on_c, 0, 83, 69
1, 1450739, Note_off_c, 0, 83, 69
1, 1450777, Control_c, 0, 64, 90
1, 1450791, Note_off_c, 0, 59, 50
1, 1450792, Control_c, 0, 64, 67
1, 1450801, Note_on_c, 0, 52, 61
1, 1450807, Control_c, 0, 64, 48
1, 1450812, Note_on_c, 0, 84, 90
1, 1450822, Control_c, 0, 64, 44
1, 1450837, Control_c, 0, 64, 56
1, 1450852, Control_c, 0, 64, 64
1, 1450867, Control_c, 0, 64, 74
1, 1450879, Note_off_c, 0, 84, 63
1, 1450882, Control_c, 0, 64, 98
1, 1450882, Note_off_c, 0, 52, 61
1, 1450897, Note_on_c, 0, 55, 60
1, 1450897, Control_c, 0, 64, 127
1, 1450903, Note_on_c, 0, 72, 80
1, 1450944, Note_off_c, 0, 55, 55
1, 1450950, Note_off_c, 0, 72, 62
1, 1450989, Note_on_c, 0, 58, 80
1, 1450991, Note_on_c, 0, 84, 85
1, 1451011, Note_off_c, 0, 84, 70
1, 1451021, Note_off_c, 0, 58, 62
1, 1451075, Control_c, 0, 64, 81
1, 1451089, Note_on_c, 0, 52, 72
1, 1451090, Control_c, 0, 64, 61
1, 1451093, Note_on_c, 0, 85, 99
1, 1451105, Control_c, 0, 64, 43
1, 1451120, Control_c, 0, 64, 56
1, 1451135, Control_c, 0, 64, 65
1, 1451149, Control_c, 0, 64, 78
1, 1451164, Control_c, 0, 64, 127
1, 1451173, Note_off_c, 0, 52, 62
1, 1451175, Note_off_c, 0, 85, 63
1, 1451177, Note_on_c, 0, 55, 73
1, 1451189, Note_on_c, 0, 73, 88
1, 1451216, Note_on_c, 0, 80, 33
1, 1451218, Note_off_c, 0, 55, 61
1, 1451251, Note_off_c, 0, 73, 62
1, 1451254, Note_off_c, 0, 80, 47
1, 1451265, Note_on_c, 0, 57, 80
1, 1451272, Note_on_c, 0, 85, 95
1, 1451313, Note_off_c, 0, 85, 66
1, 1451332, Note_off_c, 0, 57, 54
1, 1451356, Control_c, 0, 64, 73
1, 1451365, Note_on_c, 0, 53, 76
1, 1451369, Note_on_c, 0, 86, 107
1, 1451371, Control_c, 0, 64, 48
1, 1451386, Control_c, 0, 64, 0
1, 1451408, Control_c, 0, 64, 43
1, 1451423, Control_c, 0, 64, 63
1, 1451438, Control_c, 0, 64, 78
1, 1451453, Note_off_c, 0, 53, 62
1, 1451453, Control_c, 0, 64, 127
1, 1451459, Note_on_c, 0, 57, 76
1, 1451462, Note_on_c, 0, 74, 97
1, 1451463, Note_off_c, 0, 86, 61
1, 1451505, Note_off_c, 0, 74, 66
1, 1451516, Note_off_c, 0, 57, 61
1, 1451546, Note_on_c, 0, 86, 95
1, 1451552, Note_on_c, 0, 62, 79
1, 1451586, Note_off_c, 0, 86, 62
1, 1451615, Note_off_c, 0, 62, 58
1, 1451638, Note_on_c, 0, 54, 85
1, 1451650, Note_on_c, 0, 87, 102
1, 1451731, Note_off_c, 0, 54, 61
1, 1451736, Note_on_c, 0, 57, 73
1, 1451746, Note_on_c, 0, 75, 89
1, 1451760, Note_off_c, 0, 87, 59
1, 1451791, Note_off_c, 0, 57, 62
1, 1451814, Note_off_c, 0, 75, 61
1, 1451830, Note_on_c, 0, 60, 67
1, 1451840, Note_on_c, 0, 87, 93
1, 1451857, Note_off_c, 0, 60, 68
1, 1451894, Note_off_c, 0, 87, 64
1, 1451901, Note_on_c, 0, 85, 3
1, 1451941, Note_off_c, 0, 85, 26
1, 1451962, Note_on_c, 0, 52, 81
1, 1451964, Note_on_c, 0, 61, 97
1, 1451964, Note_on_c, 0, 88, 100
1, 1451968, Note_on_c, 0, 57, 77
1, 1451972, Control_c, 0, 64, 118
1, 1451987, Control_c, 0, 64, 68
1, 1452002, Control_c, 0, 64, 0
1, 1452046, Control_c, 0, 64, 56
1, 1452061, Control_c, 0, 64, 76
1, 1452066, Note_on_c, 0, 85, 81
1, 1452076, Control_c, 0, 64, 127
1, 1452104, Note_off_c, 0, 52, 62
1, 1452131, Note_off_c, 0, 61, 62
1, 1452135, Note_off_c, 0, 57, 63
1, 1452148, Note_off_c, 0, 88, 57
1, 1452157, Note_on_c, 0, 81, 91
1, 1452220, Note_off_c, 0, 85, 63
1, 1452223, Note_off_c, 0, 81, 64
1, 1452253, Note_on_c, 0, 76, 86
1, 1452348, Note_on_c, 0, 73, 87
1, 1452360, Note_off_c, 0, 76, 61
1, 1452439, Note_on_c, 0, 69, 78
1, 1452483, Note_off_c, 0, 73, 59
1, 1452528, Control_c, 0, 64, 81
1, 1452540, Note_on_c, 0, 76, 94
1, 1452542, Control_c, 0, 64, 57
1, 1452543, Note_on_c, 0, 64, 90
1, 1452557, Control_c, 0, 64, 0
1, 1452569, Note_off_c, 0, 69, 62
1, 1452572, Control_c, 0, 64, 44
1, 1452587, Control_c, 0, 64, 65
1, 1452602, Control_c, 0, 64, 86
1, 1452618, Control_c, 0, 64, 127
1, 1452634, Note_on_c, 0, 61, 86
1, 1452636, Note_on_c, 0, 73, 84
1, 1452640, Note_on_c, 0, 62, 39
1, 1452646, Note_off_c, 0, 64, 58
1, 1452670, Note_off_c, 0, 62, 58
1, 1452715, Note_off_c, 0, 76, 56
1, 1452718, Note_on_c, 0, 57, 75
1, 1452724, Note_on_c, 0, 69, 85
1, 1452729, Note_off_c, 0, 61, 63
1, 1452762, Note_off_c, 0, 57, 63
1, 1452775, Note_off_c, 0, 73, 58
1, 1452792, Note_off_c, 0, 69, 61
1, 1452818, Note_on_c, 0, 64, 80
1, 1452825, Note_on_c, 0, 52, 85
1, 1452872, Note_off_c, 0, 64, 60
1, 1452917, Note_on_c, 0, 49, 82
1, 1452919, Note_on_c, 0, 61, 79
1, 1452921, Note_off_c, 0, 52, 60
1, 1453004, Note_on_c, 0, 45, 85
1, 1453010, Note_on_c, 0, 57, 80
1, 1453037, Note_off_c, 0, 49, 62
1, 1453039, Control_c, 0, 64, 78
1, 1453053, Control_c, 0, 64, 50
1, 1453054, Note_off_c, 0, 61, 60
1, 1453068, Control_c, 0, 64, 0
1, 1453111, Note_on_c, 0, 40, 78
1, 1453114, Note_on_c, 0, 52, 99
1, 1453127, Control_c, 0, 64, 57
1, 1453130, Note_off_c, 0, 45, 66
1, 1453142, Control_c, 0, 64, 72
1, 1453143, Note_off_c, 0, 40, 67
1, 1453144, Note_off_c, 0, 57, 62
1, 1453156, Note_on_c, 0, 43, 13
1, 1453157, Control_c, 0, 64, 94
1, 1453159, Note_off_c, 0, 52, 65
1, 1453171, Control_c, 0, 64, 127
1, 1453209, Note_off_c, 0, 43, 46
1, 1453379, Control_c, 0, 64, 109
1, 1453394, Control_c, 0, 64, 78
1, 1453409, Control_c, 0, 64, 56
1, 1453424, Control_c, 0, 64, 0
1, 1453514, Note_on_c, 0, 64, 94
1, 1453514, Note_on_c, 0, 61, 89
1, 1453515, Note_on_c, 0, 73, 91
1, 1453520, Note_on_c, 0, 52, 68
1, 1453521, Note_on_c, 0, 69, 80
1, 1453529, Control_c, 0, 64, 54
1, 1453531, Note_on_c, 0, 57, 70
1, 1453543, Control_c, 0, 64, 71
1, 1453558, Control_c, 0, 64, 88
1, 1453573, Control_c, 0, 64, 127
1, 1453722, Note_off_c, 0, 52, 60
1, 1453798, Note_off_c, 0, 61, 58
1, 1453824, Note_off_c, 0, 64, 58
1, 1454017, Note_off_c, 0, 73, 33
1, 1454260, Note_off_c, 0, 57, 60
1, 1454262, Control_c, 0, 64, 93
1, 1454277, Note_off_c, 0, 69, 58
1, 1454277, Control_c, 0, 64, 69
1, 1454289, Note_on_c, 0, 59, 43
1, 1454292, Control_c, 0, 64, 38
1, 1454294, Note_on_c, 0, 52, 42
1, 1454304, Note_on_c, 0, 71, 59
1, 1454307, Control_c, 0, 64, 0
1, 1454316, Note_on_c, 0, 56, 29
1, 1454320, Note_on_c, 0, 64, 38
1, 1454337, Control_c, 0, 64, 46
1, 1454352, Control_c, 0, 64, 61
1, 1454366, Control_c, 0, 64, 70
1, 1454381, Note_off_c, 0, 52, 58
1, 1454381, Control_c, 0, 64, 79
1, 1454404, Control_c, 0, 64, 86
1, 1454408, Note_off_c, 0, 56, 58
1, 1454413, Note_off_c, 0, 71, 63
1, 1454418, Control_c, 0, 64, 90
1, 1454433, Control_c, 0, 64, 94
1, 1454448, Control_c, 0, 64, 96
1, 1454455, Note_off_c, 0, 59, 61
1, 1454463, Control_c, 0, 64, 98
1, 1454507, Control_c, 0, 64, 100
1, 1454537, Control_c, 0, 64, 102
1, 1454596, Control_c, 0, 64, 93
1, 1454611, Control_c, 0, 64, 75
1, 1454626, Control_c, 0, 64, 61
1, 1454641, Control_c, 0, 64, 0
1, 1454675, Note_off_c, 0, 64, 19
1, 1454679, Note_on_c, 0, 57, 33
1, 1454681, Note_on_c, 0, 69, 43
1, 1454685, Note_on_c, 0, 45, 31
1, 1454685, Control_c, 0, 64, 49
1, 1454700, Control_c, 0, 64, 67
1, 1454715, Control_c, 0, 64, 80
1, 1454730, Control_c, 0, 64, 101
1, 1454736, Note_off_c, 0, 69, 57
1, 1454744, Control_c, 0, 64, 127
1, 1454760, Note_on_c, 0, 64, 42
1, 1454764, Note_off_c, 0, 45, 52
1, 1454813, Note_off_c, 0, 57, 43
1, 1454861, Note_on_c, 0, 61, 52
1, 1454863, Control_c, 0, 67, 26
1, 1454865, Note_off_c, 0, 64, 53
1, 1454878, Control_c, 0, 67, 35
1, 1454892, Control_c, 0, 67, 50
1, 1454897, Note_off_c, 0, 61, 63
1, 1454907, Control_c, 0, 67, 71
1, 1454922, Control_c, 0, 67, 95
1, 1454937, Control_c, 0, 67, 113
1, 1454951, Control_c, 0, 67, 126
1, 1454954, Note_on_c, 0, 64, 47
1, 1455001, Note_off_c, 0, 64, 55
1, 1455060, Note_on_c, 0, 69, 50
1, 1455123, Note_off_c, 0, 69, 54
1, 1455154, Note_on_c, 0, 73, 51
1, 1455167, Control_c, 0, 64, 105
1, 1455182, Control_c, 0, 64, 84
1, 1455197, Control_c, 0, 64, 68
1, 1455212, Control_c, 0, 64, 47
1, 1455227, Control_c, 0, 64, 0
1, 1455256, Control_c, 0, 64, 38
1, 1455264, Note_off_c, 0, 73, 46
1, 1455271, Control_c, 0, 64, 54
1, 1455277, Note_on_c, 0, 57, 25
1, 1455283, Note_on_c, 0, 76, 53
1, 1455286, Control_c, 0, 64, 63
1, 1455299, Note_on_c, 0, 64, 31
1, 1455301, Control_c, 0, 64, 71
1, 1455302, Note_on_c, 0, 61, 24
1, 1455315, Control_c, 0, 64, 79
1, 1455330, Control_c, 0, 64, 87
1, 1455341, Note_off_c, 0, 64, 52
1, 1455345, Control_c, 0, 64, 91
1, 1455353, Note_off_c, 0, 61, 60
1, 1455359, Note_off_c, 0, 57, 40
1, 1455360, Control_c, 0, 64, 94
1, 1455374, Control_c, 0, 64, 96
1, 1455389, Note_on_c, 0, 73, 54
1, 1455389, Control_c, 0, 64, 99
1, 1455404, Control_c, 0, 64, 102
1, 1455419, Control_c, 0, 64, 104
1, 1455426, Note_off_c, 0, 76, 30
1, 1455496, Note_on_c, 0, 69, 36
1, 1455508, Control_c, 0, 64, 101
1, 1455523, Control_c, 0, 64, 89
1, 1455529, Note_off_c, 0, 73, 24
1, 1455538, Control_c, 0, 64, 75
1, 1455553, Control_c, 0, 64, 64
1, 1455567, Control_c, 0, 64, 54
1, 1455581, Note_off_c, 0, 69, 34
1, 1455582, Control_c, 0, 64, 52
1, 1455595, Note_on_c, 0, 57, 21
1, 1455595, Note_on_c, 0, 76, 46
1, 1455597, Control_c, 0, 64, 58
1, 1455604, Note_on_c, 0, 61, 38
1, 1455609, Note_on_c, 0, 64, 21
1, 1455612, Control_c, 0, 64, 64
1, 1455627, Control_c, 0, 64, 70
1, 1455641, Note_off_c, 0, 57, 48
1, 1455641, Control_c, 0, 64, 77
1, 1455654, Note_off_c, 0, 64, 46
1, 1455656, Control_c, 0, 64, 84
1, 1455671, Control_c, 0, 64, 88
1, 1455685, Control_c, 0, 64, 92
1, 1455686, Note_on_c, 0, 73, 56
1, 1455700, Control_c, 0, 64, 95
1, 1455730, Control_c, 0, 64, 98
1, 1455741, Note_off_c, 0, 76, 26
1, 1455774, Control_c, 0, 64, 100
1, 1455803, Note_on_c, 0, 69, 32
1, 1455827, Note_off_c, 0, 73, 32
1, 1455835, Control_c, 0, 64, 97
1, 1455850, Note_off_c, 0, 61, 50
1, 1455850, Control_c, 0, 64, 86
1, 1455863, Note_off_c, 0, 69, 41
1, 1455864, Control_c, 0, 64, 73
1, 1455879, Control_c, 0, 64, 62
1, 1455880, Note_on_c, 0, 62, 44
1, 1455897, Note_on_c, 0, 68, 49
1, 1455902, Control_c, 0, 64, 46
1, 1455911, Note_on_c, 0, 64, 27
1, 1455915, Note_on_c, 0, 57, 7
1, 1455916, Control_c, 0, 64, 48
1, 1455931, Control_c, 0, 64, 57
1, 1455946, Control_c, 0, 64, 65
1, 1455946, Control_c, 0, 67, 110
1, 1455961, Control_c, 0, 64, 73
1, 1455961, Control_c, 0, 67, 81
1, 1455970, Note_off_c, 0, 68, 56
1, 1455976, Control_c, 0, 64, 84
1, 1455976, Control_c, 0, 67, 44
1, 1455990, Control_c, 0, 64, 97
1, 1455990, Control_c, 0, 67, 0
1, 1455994, Note_on_c, 0, 71, 50
1, 1456005, Control_c, 0, 64, 118
1, 1456020, Control_c, 0, 64, 127
1, 1456033, Note_off_c, 0, 57, 52
1, 1456036, Note_off_c, 0, 64, 57
1, 1456047, Note_off_c, 0, 62, 61
1, 1456090, Note_on_c, 0, 76, 55
1, 1456129, Note_off_c, 0, 71, 33
1, 1456139, Note_off_c, 0, 76, 53
1, 1456162, Note_on_c, 0, 68, 64
1, 1456256, Note_on_c, 0, 71, 68
1, 1456260, Note_off_c, 0, 68, 58
1, 1456352, Note_on_c, 0, 76, 71
1, 1456353, Note_off_c, 0, 71, 63
1, 1456377, Note_off_c, 0, 76, 69
1, 1456432, Note_on_c, 0, 64, 72
1, 1456435, Control_c, 0, 64, 99
1, 1456436, Note_on_c, 0, 62, 68
1, 1456441, Note_on_c, 0, 57, 57
1, 1456450, Control_c, 0, 64, 73
1, 1456464, Control_c, 0, 64, 56
1, 1456465, Note_on_c, 0, 76, 73
1, 1456479, Control_c, 0, 64, 39
1, 1456494, Control_c, 0, 64, 50
1, 1456508, Control_c, 0, 64, 61
1, 1456523, Control_c, 0, 64, 69
1, 1456538, Control_c, 0, 64, 81
1, 1456542, Note_on_c, 0, 80, 84
1, 1456553, Control_c, 0, 64, 101
1, 1456560, Note_off_c, 0, 76, 59
1, 1456568, Control_c, 0, 64, 127
1, 1456584, Note_off_c, 0, 57, 55
1, 1456586, Note_off_c, 0, 64, 61
1, 1456603, Note_off_c, 0, 62, 59
1, 1456625, Note_on_c, 0, 83, 85
1, 1456645, Note_off_c, 0, 80, 64
1, 1456664, Note_off_c, 0, 83, 62
1, 1456727, Note_on_c, 0, 62, 62
1, 1456729, Note_on_c, 0, 64, 59
1, 1456732, Note_on_c, 0, 88, 94
1, 1456734, Note_on_c, 0, 57, 48
1, 1456775, Note_off_c, 0, 57, 60
1, 1456796, Note_off_c, 0, 64, 58
1, 1456809, Note_on_c, 0, 92, 79
1, 1456828, Note_off_c, 0, 88, 60
1, 1456906, Note_on_c, 0, 95, 80
1, 1456912, Note_off_c, 0, 92, 60
1, 1456948, Note_off_c, 0, 95, 62
1, 1456962, Note_off_c, 0, 62, 57
1, 1456987, Note_on_c, 0, 64, 41
1, 1456991, Control_c, 0, 64, 108
1, 1456998, Note_on_c, 0, 57, 39
1, 1457006, Control_c, 0, 64, 76
1, 1457012, Note_on_c, 0, 93, 73
1, 1457013, Note_on_c, 0, 61, 34
1, 1457020, Control_c, 0, 64, 59
1, 1457035, Control_c, 0, 64, 35
1, 1457035, Control_c, 0, 67, 19
1, 1457050, Control_c, 0, 64, 0
1, 1457050, Control_c, 0, 67, 24
1, 1457065, Control_c, 0, 64, 42
1, 1457065, Control_c, 0, 67, 28
1, 1457080, Control_c, 0, 64, 54
1, 1457080, Control_c, 0, 67, 33
1, 1457094, Control_c, 0, 64, 62
1, 1457094, Control_c, 0, 67, 41
1, 1457099, Note_off_c, 0, 93, 60
1, 1457106, Note_on_c, 0, 88, 63
1, 1457109, Control_c, 0, 64, 69
1, 1457109, Control_c, 0, 67, 53
1, 1457124, Control_c, 0, 64, 83
1, 1457124, Control_c, 0, 67, 69
1, 1457139, Control_c, 0, 64, 115
1, 1457139, Control_c, 0, 67, 86
1, 1457153, Control_c, 0, 64, 127
1, 1457153, Control_c, 0, 67, 108
1, 1457167, Note_off_c, 0, 64, 45
1, 1457168, Control_c, 0, 67, 125
1, 1457183, Control_c, 0, 67, 127
1, 1457196, Note_on_c, 0, 85, 57
1, 1457198, Note_off_c, 0, 88, 55
1, 1457216, Note_off_c, 0, 57, 37
1, 1457253, Note_off_c, 0, 85, 62
1, 1457279, Note_on_c, 0, 81, 61
1, 1457299, Note_off_c, 0, 81, 66
1, 1457310, Note_off_c, 0, 61, 37
1, 1457397, Note_on_c, 0, 76, 60
1, 1457449, Note_off_c, 0, 76, 53
1, 1457490, Note_on_c, 0, 73, 54
1, 1457533, Control_c, 0, 64, 105
1, 1457548, Control_c, 0, 64, 78
1, 1457561, Note_off_c, 0, 73, 39
1, 1457563, Control_c, 0, 64, 60
1, 1457577, Control_c, 0, 64, 0
1, 1457596, Note_on_c, 0, 57, 30
1, 1457598, Note_on_c, 0, 76, 46
1, 1457607, Note_on_c, 0, 64, 28
1, 1457617, Note_on_c, 0, 61, 21
1, 1457622, Control_c, 0, 64, 41
1, 1457636, Control_c, 0, 64, 55
1, 1457651, Control_c, 0, 64, 65
1, 1457666, Control_c, 0, 64, 74
1, 1457672, Note_off_c, 0, 76, 50
1, 1457681, Control_c, 0, 64, 86
1, 1457694, Note_on_c, 0, 73, 49
1, 1457696, Control_c, 0, 64, 99
1, 1457711, Control_c, 0, 64, 104
1, 1457717, Note_off_c, 0, 64, 53
1, 1457720, Note_off_c, 0, 61, 52
1, 1457726, Control_c, 0, 64, 106
1, 1457730, Note_off_c, 0, 57, 35
1, 1457756, Control_c, 0, 64, 109
1, 1457765, Note_off_c, 0, 73, 39
1, 1457810, Note_on_c, 0, 69, 42
1, 1457844, Control_c, 0, 64, 103
1, 1457859, Control_c, 0, 64, 90
1, 1457874, Control_c, 0, 64, 76
1, 1457888, Control_c, 0, 64, 62
1, 1457890, Note_off_c, 0, 69, 40
1, 1457903, Control_c, 0, 64, 50
1, 1457910, Note_on_c, 0, 76, 52
1, 1457918, Control_c, 0, 64, 50
1, 1457927, Note_on_c, 0, 57, 28
1, 1457931, Note_on_c, 0, 61, 28
1, 1457933, Control_c, 0, 64, 56
1, 1457940, Note_on_c, 0, 64, 29
1, 1457948, Control_c, 0, 64, 62
1, 1457962, Control_c, 0, 64, 66
1, 1457977, Control_c, 0, 64, 72
1, 1457988, Note_off_c, 0, 57, 53
1, 1457988, Note_off_c, 0, 64, 46
1, 1457992, Control_c, 0, 64, 78
1, 1458006, Note_on_c, 0, 73, 47
1, 1458007, Control_c, 0, 64, 81
1, 1458022, Control_c, 0, 64, 82
1, 1458036, Control_c, 0, 64, 83
1, 1458051, Control_c, 0, 64, 83
1, 1458066, Control_c, 0, 64, 84
1, 1458081, Control_c, 0, 64, 85
1, 1458082, Note_off_c, 0, 73, 39
1, 1458095, Control_c, 0, 64, 86
1, 1458103, Note_off_c, 0, 76, 23
1, 1458117, Note_on_c, 0, 69, 35
1, 1458177, Control_c, 0, 64, 83
1, 1458189, Note_off_c, 0, 61, 51
1, 1458192, Control_c, 0, 64, 74
1, 1458207, Control_c, 0, 64, 63
1, 1458209, Note_on_c, 0, 62, 43
1, 1458220, Note_on_c, 0, 64, 38
1, 1458223, Control_c, 0, 64, 45
1, 1458227, Note_on_c, 0, 57, 33
1, 1458231, Note_off_c, 0, 69, 38
1, 1458238, Note_on_c, 0, 68, 42
1, 1458238, Control_c, 0, 64, 0
1, 1458282, Control_c, 0, 64, 45
1, 1458282, Control_c, 0, 67, 122
1, 1458297, Control_c, 0, 64, 62
1, 1458297, Control_c, 0, 67, 95
1, 1458307, Note_off_c, 0, 68, 56
1, 1458311, Control_c, 0, 64, 70
1, 1458311, Control_c, 0, 67, 60
1, 1458326, Control_c, 0, 64, 78
1, 1458326, Control_c, 0, 67, 20
1, 1458337, Note_on_c, 0, 71, 49
1, 1458341, Control_c, 0, 64, 87
1, 1458341, Control_c, 0, 67, 0
1, 1458356, Control_c, 0, 64, 93
1, 1458371, Control_c, 0, 64, 98
1, 1458377, Note_off_c, 0, 57, 60
1, 1458380, Note_off_c, 0, 64, 63
1, 1458385, Control_c, 0, 64, 104
1, 1458397, Note_off_c, 0, 62, 62
1, 1458400, Control_c, 0, 64, 110
1, 1458415, Control_c, 0, 64, 117
1, 1458417, Note_on_c, 0, 76, 59
1, 1458430, Control_c, 0, 64, 127
1, 1458462, Note_off_c, 0, 71, 36
1, 1458465, Note_off_c, 0, 76, 46
1, 1458492, Note_on_c, 0, 68, 70
1, 1458580, Note_on_c, 0, 71, 75
1, 1458605, Note_off_c, 0, 68, 57
1, 1458673, Note_on_c, 0, 76, 78
1, 1458685, Note_off_c, 0, 71, 62
1, 1458718, Note_off_c, 0, 76, 63
1, 1458766, Note_on_c, 0, 62, 71
1, 1458768, Note_on_c, 0, 64, 76
1, 1458771, Note_on_c, 0, 57, 66
1, 1458771, Control_c, 0, 64, 104
1, 1458781, Note_on_c, 0, 76, 73
1, 1458785, Control_c, 0, 64, 72
1, 1458800, Control_c, 0, 64, 55
1, 1458815, Control_c, 0, 64, 37
1, 1458830, Control_c, 0, 64, 45
1, 1458844, Control_c, 0, 64, 56
1, 1458859, Control_c, 0, 64, 63
1, 1458866, Note_on_c, 0, 80, 90
1, 1458874, Control_c, 0, 64, 71
1, 1458897, Control_c, 0, 64, 85
1, 1458902, Note_off_c, 0, 76, 62
1, 1458911, Control_c, 0, 64, 106
1, 1458926, Control_c, 0, 64, 127
1, 1458934, Note_off_c, 0, 64, 61
1, 1458934, Note_off_c, 0, 57, 57
1, 1458957, Note_on_c, 0, 83, 90
1, 1458961, Note_off_c, 0, 62, 60
1, 1458970, Note_off_c, 0, 80, 65
1, 1458993, Note_off_c, 0, 83, 66
1, 1459057, Note_on_c, 0, 88, 92
1, 1459061, Control_c, 0, 64, 99
1, 1459069, Note_on_c, 0, 57, 47
1, 1459076, Note_on_c, 0, 62, 56
1, 1459076, Note_on_c, 0, 64, 51
1, 1459076, Control_c, 0, 64, 72
1, 1459090, Control_c, 0, 64, 54
1, 1459105, Control_c, 0, 64, 43
1, 1459120, Control_c, 0, 64, 52
1, 1459134, Control_c, 0, 64, 61
1, 1459138, Note_on_c, 0, 92, 78
1, 1459149, Control_c, 0, 64, 67
1, 1459158, Note_off_c, 0, 88, 61
1, 1459164, Control_c, 0, 64, 78
1, 1459166, Note_off_c, 0, 64, 57
1, 1459168, Note_off_c, 0, 57, 56
1, 1459179, Control_c, 0, 64, 97
1, 1459194, Control_c, 0, 64, 127
1, 1459239, Note_on_c, 0, 95, 80
1, 1459263, Note_off_c, 0, 92, 64
1, 1459283, Note_off_c, 0, 95, 63
1, 1459321, Note_on_c, 0, 64, 51
1, 1459321, Note_off_c, 0, 62, 55
1, 1459324, Note_on_c, 0, 57, 44
1, 1459336, Note_on_c, 0, 61, 47
1, 1459341, Control_c, 0, 64, 119
1, 1459356, Note_on_c, 0, 93, 72
1, 1459356, Control_c, 0, 64, 78
1, 1459371, Control_c, 0, 64, 60
1, 1459386, Control_c, 0, 64, 33
1, 1459401, Control_c, 0, 64, 40
1, 1459416, Control_c, 0, 64, 55
1, 1459431, Control_c, 0, 64, 64
1, 1459443, Note_off_c, 0, 93, 57
1, 1459446, Control_c, 0, 64, 75
1, 1459450, Note_on_c, 0, 88, 74
1, 1459460, Control_c, 0, 64, 100
1, 1459475, Control_c, 0, 64, 127
1, 1459485, Note_off_c, 0, 64, 61
1, 1459518, Note_off_c, 0, 57, 47
1, 1459535, Note_on_c, 0, 85, 84
1, 1459546, Note_off_c, 0, 61, 62
1, 1459574, Note_off_c, 0, 88, 61
1, 1459625, Note_off_c, 0, 85, 63
1, 1459625, Note_on_c, 0, 81, 85
1, 1459666, Note_off_c, 0, 81, 63
1, 1459723, Note_on_c, 0, 76, 90
1, 1459811, Note_on_c, 0, 73, 87
1, 1459833, Note_off_c, 0, 76, 64
1, 1459876, Note_off_c, 0, 73, 62
1, 1459898, Control_c, 0, 64, 79
1, 1459913, Control_c, 0, 64, 58
1, 1459917, Note_on_c, 0, 76, 87
1, 1459928, Control_c, 0, 64, 0
1, 1459929, Note_on_c, 0, 62, 76
1, 1459930, Note_on_c, 0, 64, 86
1, 1459933, Note_on_c, 0, 57, 71
1, 1459957, Control_c, 0, 64, 33
1, 1459972, Control_c, 0, 64, 54
1, 1459987, Control_c, 0, 64, 67
1, 1460002, Control_c, 0, 64, 79
1, 1460003, Note_on_c, 0, 80, 90
1, 1460017, Control_c, 0, 64, 99
1, 1460030, Note_off_c, 0, 76, 64
1, 1460031, Control_c, 0, 64, 127
1, 1460084, Note_off_c, 0, 57, 59
1, 1460087, Note_off_c, 0, 64, 59
1, 1460095, Note_on_c, 0, 83, 87
1, 1460111, Note_off_c, 0, 62, 62
1, 1460116, Note_off_c, 0, 80, 65
1, 1460135, Note_off_c, 0, 83, 66
1, 1460205, Note_on_c, 0, 88, 92
1, 1460223, Note_on_c, 0, 64, 66
1, 1460233, Note_on_c, 0, 57, 48
1, 1460237, Note_on_c, 0, 62, 61
1, 1460239, Control_c, 0, 64, 117
1, 1460254, Control_c, 0, 64, 78
1, 1460269, Control_c, 0, 64, 62
1, 1460283, Control_c, 0, 64, 53
1, 1460293, Note_on_c, 0, 92, 83
1, 1460298, Control_c, 0, 64, 60
1, 1460313, Control_c, 0, 64, 66
1, 1460316, Note_off_c, 0, 88, 63
1, 1460328, Control_c, 0, 64, 73
1, 1460343, Control_c, 0, 64, 88
1, 1460346, Note_off_c, 0, 57, 58
1, 1460348, Note_off_c, 0, 64, 59
1, 1460357, Control_c, 0, 64, 127
1, 1460397, Note_on_c, 0, 95, 88
1, 1460427, Note_off_c, 0, 92, 65
1, 1460447, Note_off_c, 0, 95, 65
1, 1460498, Note_off_c, 0, 62, 60
1, 1460500, Note_on_c, 0, 57, 55
1, 1460509, Note_on_c, 0, 64, 60
1, 1460511, Note_on_c, 0, 93, 86
1, 1460513, Control_c, 0, 64, 110
1, 1460519, Note_on_c, 0, 61, 60
1, 1460528, Control_c, 0, 64, 75
1, 1460543, Control_c, 0, 64, 56
1, 1460558, Control_c, 0, 64, 0
1, 1460587, Control_c, 0, 64, 41
1, 1460593, Note_on_c, 0, 88, 89
1, 1460602, Control_c, 0, 64, 59
1, 1460617, Control_c, 0, 64, 70
1, 1460625, Note_off_c, 0, 93, 64
1, 1460632, Control_c, 0, 64, 84
1, 1460647, Control_c, 0, 64, 127
1, 1460652, Note_off_c, 0, 57, 60
1, 1460677, Note_off_c, 0, 64, 60
1, 1460682, Note_on_c, 0, 85, 89
1, 1460730, Note_off_c, 0, 88, 62
1, 1460743, Note_off_c, 0, 61, 60
1, 1460775, Note_on_c, 0, 81, 88
1, 1460781, Note_off_c, 0, 85, 65
1, 1460814, Note_off_c, 0, 81, 61
1, 1460865, Note_on_c, 0, 76, 94
1, 1460948, Note_on_c, 0, 73, 90
1, 1460972, Note_off_c, 0, 76, 67
1, 1461020, Note_off_c, 0, 73, 63
1, 1461059, Note_on_c, 0, 76, 94
1, 1461061, Control_c, 0, 64, 98
1, 1461066, Note_on_c, 0, 64, 90
1, 1461067, Note_on_c, 0, 62, 81
1, 1461073, Note_on_c, 0, 57, 75
1, 1461076, Control_c, 0, 64, 65
1, 1461091, Control_c, 0, 64, 0
1, 1461143, Control_c, 0, 64, 42
1, 1461158, Control_c, 0, 64, 59
1, 1461165, Note_on_c, 0, 80, 92
1, 1461173, Control_c, 0, 64, 70
1, 1461187, Note_off_c, 0, 76, 64
1, 1461187, Control_c, 0, 64, 86
1, 1461202, Control_c, 0, 64, 114
1, 1461217, Control_c, 0, 64, 127
1, 1461218, Note_off_c, 0, 64, 60
1, 1461223, Note_off_c, 0, 57, 59
1, 1461237, Note_off_c, 0, 62, 60
1, 1461254, Note_on_c, 0, 83, 90
1, 1461270, Note_off_c, 0, 80, 66
1, 1461291, Note_off_c, 0, 83, 67
1, 1461345, Note_on_c, 0, 64, 87
1, 1461351, Note_on_c, 0, 62, 81
1, 1461352, Note_on_c, 0, 88, 94
1, 1461354, Note_on_c, 0, 57, 70
1, 1461433, Note_off_c, 0, 57, 60
1, 1461436, Note_on_c, 0, 92, 86
1, 1461455, Note_off_c, 0, 64, 59
1, 1461457, Note_off_c, 0, 88, 62
1, 1461532, Note_on_c, 0, 95, 93
1, 1461561, Note_off_c, 0, 92, 64
1, 1461578, Note_off_c, 0, 95, 65
1, 1461605, Note_off_c, 0, 62, 60
1, 1461630, Note_on_c, 0, 64, 71
1, 1461634, Note_on_c, 0, 57, 64
1, 1461636, Note_on_c, 0, 61, 68
1, 1461637, Note_on_c, 0, 93, 91
1, 1461649, Control_c, 0, 64, 78
1, 1461663, Control_c, 0, 64, 59
1, 1461678, Control_c, 0, 64, 0
1, 1461693, Control_c, 0, 64, 39
1, 1461708, Control_c, 0, 64, 57
1, 1461723, Control_c, 0, 64, 65
1, 1461726, Note_on_c, 0, 88, 92
1, 1461737, Control_c, 0, 64, 77
1, 1461739, Note_off_c, 0, 64, 60
1, 1461747, Note_off_c, 0, 57, 62
1, 1461752, Control_c, 0, 64, 115
1, 1461765, Note_off_c, 0, 93, 64
1, 1461767, Control_c, 0, 64, 127
1, 1461791, Note_off_c, 0, 61, 61
1, 1461822, Note_on_c, 0, 85, 87
1, 1461889, Note_off_c, 0, 88, 64
1, 1461907, Note_on_c, 0, 81, 93
1, 1461918, Note_off_c, 0, 85, 65
1, 1461945, Note_off_c, 0, 81, 67
1, 1462010, Note_on_c, 0, 74, 82
1, 1462012, Note_on_c, 0, 76, 77
1, 1462080, Note_off_c, 0, 76, 65
1, 1462082, Note_off_c, 0, 74, 64
1, 1462109, Note_on_c, 0, 72, 45
1, 1462112, Note_on_c, 0, 73, 14
1, 1462133, Note_off_c, 0, 72, 59
1, 1462156, Note_off_c, 0, 73, 29
1, 1462214, Note_on_c, 0, 52, 68
1, 1462216, Note_on_c, 0, 88, 99
1, 1462220, Control_c, 0, 64, 102
1, 1462227, Note_on_c, 0, 80, 81
1, 1462234, Control_c, 0, 64, 69
1, 1462237, Note_on_c, 0, 86, 70
1, 1462249, Control_c, 0, 64, 41
1, 1462264, Control_c, 0, 64, 0
1, 1462278, Control_c, 0, 64, 44
1, 1462293, Control_c, 0, 64, 62
1, 1462308, Control_c, 0, 64, 75
1, 1462323, Control_c, 0, 64, 96
1, 1462329, Note_on_c, 0, 56, 76
1, 1462338, Control_c, 0, 64, 127
1, 1462352, Note_off_c, 0, 52, 61
1, 1462354, Note_off_c, 0, 80, 60
1, 1462378, Note_off_c, 0, 86, 62
1, 1462382, Note_off_c, 0, 88, 61
1, 1462417, Note_on_c, 0, 59, 78
1, 1462448, Note_off_c, 0, 56, 62
1, 1462489, Note_off_c, 0, 59, 65
1, 1462515, Note_on_c, 0, 64, 73
1, 1462522, Note_on_c, 0, 88, 103
1, 1462527, Note_on_c, 0, 80, 97
1, 1462532, Note_on_c, 0, 86, 88
1, 1462591, Note_off_c, 0, 80, 57
1, 1462616, Note_on_c, 0, 68, 86
1, 1462619, Note_off_c, 0, 64, 43
1, 1462621, Note_off_c, 0, 86, 59
1, 1462687, Note_off_c, 0, 88, 54
1, 1462715, Note_on_c, 0, 71, 77
1, 1462726, Note_off_c, 0, 68, 63
1, 1462790, Note_off_c, 0, 71, 63
1, 1462805, Control_c, 0, 64, 113
1, 1462820, Control_c, 0, 64, 75
1, 1462821, Note_on_c, 0, 88, 94
1, 1462832, Note_on_c, 0, 69, 66
1, 1462832, Note_on_c, 0, 81, 88
1, 1462834, Note_on_c, 0, 85, 80
1, 1462835, Control_c, 0, 64, 53
1, 1462850, Control_c, 0, 64, 0
1, 1462879, Control_c, 0, 64, 53
1, 1462894, Control_c, 0, 64, 66
1, 1462909, Control_c, 0, 64, 80
1, 1462924, Control_c, 0, 64, 108
1, 1462931, Note_off_c, 0, 69, 59
1, 1462939, Control_c, 0, 64, 127
1, 1462940, Note_on_c, 0, 64, 74
1, 1463029, Note_off_c, 0, 64, 60
1, 1463031, Note_on_c, 0, 61, 78
1, 1463045, Note_off_c, 0, 88, 64
1, 1463046, Note_off_c, 0, 81, 62
1, 1463104, Note_off_c, 0, 61, 58
1, 1463130, Note_on_c, 0, 64, 81
1, 1463159, Note_off_c, 0, 85, 39
1, 1463215, Note_on_c, 0, 61, 77
1, 1463238, Note_off_c, 0, 64, 58
1, 1463264, Note_on_c, 0, 62, 46
1, 1463294, Note_off_c, 0, 62, 53
1, 1463309, Note_on_c, 0, 57, 69
1, 1463342, Note_off_c, 0, 61, 59
1, 1463369, Control_c, 0, 64, 111
1, 1463390, Control_c, 0, 64, 78
1, 1463405, Control_c, 0, 64, 59
1, 1463420, Control_c, 0, 64, 0
1, 1463424, Note_on_c, 0, 88, 90
1, 1463430, Note_off_c, 0, 57, 63
1, 1463437, Note_on_c, 0, 52, 62
1, 1463440, Note_on_c, 0, 80, 65
1, 1463443, Note_on_c, 0, 86, 72
1, 1463464, Control_c, 0, 64, 35
1, 1463479, Control_c, 0, 64, 56
1, 1463494, Control_c, 0, 64, 66
1, 1463509, Control_c, 0, 64, 75
1, 1463524, Control_c, 0, 64, 86
1, 1463539, Control_c, 0, 64, 99
1, 1463545, Note_on_c, 0, 56, 75
1, 1463553, Control_c, 0, 64, 113
1, 1463568, Note_off_c, 0, 80, 37
1, 1463568, Control_c, 0, 64, 127
1, 1463570, Note_off_c, 0, 52, 61
1, 1463616, Note_off_c, 0, 88, 59
1, 1463627, Control_c, 0, 67, 21
1, 1463628, Note_on_c, 0, 59, 71
1, 1463628, Note_off_c, 0, 86, 49
1, 1463642, Control_c, 0, 67, 24
1, 1463655, Note_off_c, 0, 56, 61
1, 1463657, Control_c, 0, 67, 26
1, 1463672, Control_c, 0, 67, 29
1, 1463687, Control_c, 0, 67, 37
1, 1463701, Control_c, 0, 64, 119
1, 1463701, Control_c, 0, 67, 48
1, 1463710, Note_off_c, 0, 59, 62
1, 1463716, Control_c, 0, 64, 79
1, 1463716, Control_c, 0, 67, 65
1, 1463720, Note_on_c, 0, 88, 84
1, 1463731, Control_c, 0, 64, 61
1, 1463731, Control_c, 0, 67, 82
1, 1463739, Note_on_c, 0, 86, 69
1, 1463740, Note_on_c, 0, 64, 61
1, 1463741, Note_on_c, 0, 80, 57
1, 1463746, Control_c, 0, 64, 40
1, 1463746, Control_c, 0, 67, 98
1, 1463761, Control_c, 0, 64, 43
1, 1463761, Control_c, 0, 67, 111
1, 1463775, Control_c, 0, 64, 56
1, 1463775, Control_c, 0, 67, 127
1, 1463790, Control_c, 0, 64, 62
1, 1463806, Control_c, 0, 64, 69
1, 1463811, Note_off_c, 0, 80, 59
1, 1463821, Control_c, 0, 64, 79
1, 1463830, Note_off_c, 0, 64, 54
1, 1463836, Control_c, 0, 64, 94
1, 1463847, Note_on_c, 0, 68, 75
1, 1463850, Control_c, 0, 64, 112
1, 1463865, Control_c, 0, 64, 127
1, 1463887, Note_off_c, 0, 88, 39
1, 1463914, Note_off_c, 0, 86, 38
1, 1463938, Note_off_c, 0, 68, 61
1, 1463948, Note_on_c, 0, 71, 63
1, 1464013, Note_off_c, 0, 71, 63
1, 1464013, Control_c, 0, 64, 106
1, 1464028, Control_c, 0, 64, 80
1, 1464042, Note_on_c, 0, 88, 71
1, 1464043, Control_c, 0, 64, 63
1, 1464052, Note_on_c, 0, 81, 61
1, 1464053, Note_on_c, 0, 69, 55
1, 1464057, Control_c, 0, 64, 42
1, 1464066, Note_on_c, 0, 85, 51
1, 1464072, Control_c, 0, 64, 33
1, 1464087, Control_c, 0, 64, 43
1, 1464102, Control_c, 0, 64, 55
1, 1464117, Control_c, 0, 64, 65
1, 1464139, Control_c, 0, 64, 74
1, 1464145, Note_off_c, 0, 69, 59
1, 1464154, Control_c, 0, 64, 87
1, 1464169, Control_c, 0, 64, 99
1, 1464184, Note_on_c, 0, 65, 42
1, 1464184, Control_c, 0, 64, 106
1, 1464199, Control_c, 0, 64, 110
1, 1464209, Note_on_c, 0, 64, 11
1, 1464218, Note_off_c, 0, 65, 56
1, 1464251, Note_off_c, 0, 64, 47
1, 1464257, Control_c, 0, 64, 98
1, 1464266, Note_on_c, 0, 61, 60
1, 1464272, Control_c, 0, 64, 80
1, 1464287, Control_c, 0, 64, 67
1, 1464302, Control_c, 0, 64, 59
1, 1464317, Control_c, 0, 64, 59
1, 1464331, Control_c, 0, 64, 63
1, 1464337, Note_off_c, 0, 61, 59
1, 1464346, Control_c, 0, 64, 68
1, 1464355, Note_off_c, 0, 81, 38
1, 1464359, Note_off_c, 0, 88, 46
1, 1464361, Control_c, 0, 64, 74
1, 1464372, Note_on_c, 0, 64, 48
1, 1464376, Control_c, 0, 64, 84
1, 1464391, Control_c, 0, 64, 89
1, 1464406, Control_c, 0, 64, 91
1, 1464421, Control_c, 0, 64, 92
1, 1464436, Control_c, 0, 64, 93
1, 1464451, Control_c, 0, 64, 94
1, 1464457, Note_off_c, 0, 64, 54
1, 1464463, Note_off_c, 0, 85, 53
1, 1464465, Control_c, 0, 64, 95
1, 1464478, Note_on_c, 0, 61, 58
1, 1464495, Control_c, 0, 64, 95
1, 1464560, Note_off_c, 0, 61, 55
1, 1464603, Note_on_c, 0, 57, 46
1, 1464659, Control_c, 0, 64, 94
1, 1464673, Control_c, 0, 64, 92
1, 1464677, Note_off_c, 0, 57, 52
1, 1464688, Control_c, 0, 64, 89
1, 1464703, Control_c, 0, 64, 83
1, 1464718, Control_c, 0, 64, 74
1, 1464733, Control_c, 0, 64, 64
1, 1464737, Note_on_c, 0, 52, 33
1, 1464747, Control_c, 0, 64, 49
1, 1464753, Note_on_c, 0, 88, 54
1, 1464762, Control_c, 0, 64, 0
1, 1464777, Note_on_c, 0, 86, 41
1, 1464780, Note_on_c, 0, 80, 43
1, 1464792, Control_c, 0, 64, 37
1, 1464806, Control_c, 0, 64, 48
1, 1464821, Control_c, 0, 64, 59
1, 1464837, Control_c, 0, 64, 66
1, 1464852, Control_c, 0, 64, 73
1, 1464867, Control_c, 0, 64, 83
1, 1464889, Control_c, 0, 64, 90
1, 1464889, Note_off_c, 0, 80, 55
1, 1464904, Control_c, 0, 64, 93
1, 1464911, Note_on_c, 0, 56, 45
1, 1464914, Note_off_c, 0, 52, 38
1, 1464919, Control_c, 0, 64, 95
1, 1464921, Note_off_c, 0, 88, 49
1, 1464939, Note_off_c, 0, 86, 37
1, 1464949, Control_c, 0, 64, 98
1, 1464978, Control_c, 0, 64, 101
1, 1464993, Control_c, 0, 64, 103
1, 1465003, Note_off_c, 0, 56, 45
1, 1465022, Control_c, 0, 64, 105
1, 1465026, Note_on_c, 0, 59, 44
1, 1465163, Note_off_c, 0, 59, 36
1, 1465224, Note_on_c, 0, 64, 38
1, 1465235, Note_on_c, 0, 88, 52
1, 1465248, Note_on_c, 0, 80, 37
1, 1465268, Note_on_c, 0, 86, 30
1, 1465351, Note_off_c, 0, 64, 56
1, 1465410, Note_on_c, 0, 68, 41
1, 1465438, Note_off_c, 0, 80, 41
1, 1465452, Note_off_c, 0, 88, 34
1, 1465506, Note_off_c, 0, 86, 33
1, 1465630, Note_on_c, 0, 71, 35
1, 1465759, Note_off_c, 0, 68, 40
1, 1465789, Note_off_c, 0, 71, 40
1, 1465845, Control_c, 0, 64, 103
1, 1465875, Control_c, 0, 64, 100
1, 1465904, Control_c, 0, 64, 98
1, 1465934, Control_c, 0, 64, 95
1, 1465948, Control_c, 0, 64, 93
1, 1465963, Control_c, 0, 64, 92
1, 1465978, Control_c, 0, 64, 91
1, 1465993, Control_c, 0, 64, 90
1, 1466008, Control_c, 0, 64, 88
1, 1466022, Control_c, 0, 64, 86
1, 1466037, Control_c, 0, 64, 84
1, 1466052, Control_c, 0, 64, 82
1, 1466067, Control_c, 0, 64, 79
1, 1466082, Control_c, 0, 64, 77
1, 1466096, Control_c, 0, 64, 75
1, 1466111, Control_c, 0, 64, 72
1, 1466126, Control_c, 0, 64, 69
1, 1466141, Control_c, 0, 64, 66
1, 1466156, Control_c, 0, 64, 63
1, 1466171, Control_c, 0, 64, 61
1, 1466186, Control_c, 0, 64, 60
1, 1466201, Control_c, 0, 64, 60
1, 1466216, Control_c, 0, 64, 59
1, 1466231, Control_c, 0, 64, 57
1, 1466245, Control_c, 0, 64, 56
1, 1466260, Control_c, 0, 64, 53
1, 1466275, Control_c, 0, 64, 52
1, 1466290, Control_c, 0, 64, 51
1, 1466305, Control_c, 0, 64, 50
1, 1466320, Control_c, 0, 64, 49
1, 1466335, Control_c, 0, 64, 48
1, 1466350, Control_c, 0, 64, 47
1, 1466364, Control_c, 0, 64, 45
1, 1466387, Control_c, 0, 64, 44
1, 1466401, Control_c, 0, 64, 43
1, 1466416, Control_c, 0, 64, 42
1, 1466431, Control_c, 0, 64, 42
1, 1466446, Control_c, 0, 64, 40
1, 1466460, Control_c, 0, 64, 38
1, 1466475, Control_c, 0, 64, 36
1, 1466490, Control_c, 0, 64, 34
1, 1466505, Control_c, 0, 64, 33
1, 1466520, Control_c, 0, 64, 0
1, 1467371, Control_c, 0, 64, 33
1, 1467386, Control_c, 0, 64, 42
1, 1467400, Control_c, 0, 64, 48
1, 1467415, Control_c, 0, 64, 55
1, 1467430, Control_c, 0, 64, 59
1, 1467445, Control_c, 0, 64, 61
1, 1467460, Control_c, 0, 64, 63
1, 1467474, Control_c, 0, 64, 65
1, 1467489, Control_c, 0, 64, 67
1, 1467504, Control_c, 0, 64, 69
1, 1467519, Control_c, 0, 64, 71
1, 1467534, Control_c, 0, 64, 73
1, 1467548, Control_c, 0, 64, 76
1, 1467563, Control_c, 0, 64, 79
1, 1467578, Control_c, 0, 64, 83
1, 1467593, Control_c, 0, 64, 87
1, 1467608, Control_c, 0, 64, 91
1, 1467622, Control_c, 0, 64, 95
1, 1467637, Control_c, 0, 64, 98
1, 1467652, Control_c, 0, 64, 100
1, 1467667, Control_c, 0, 64, 102
1, 1467861, Control_c, 0, 64, 104
1, 1468165, Control_c, 0, 64, 102
1, 1468180, Control_c, 0, 64, 99
1, 1468180, Note_on_c, 0, 61, 30
1, 1468181, Note_on_c, 0, 45, 33
1, 1468195, Control_c, 0, 64, 94
1, 1468210, Control_c, 0, 64, 86
1, 1468224, Control_c, 0, 64, 77
1, 1468239, Control_c, 0, 64, 68
1, 1468254, Control_c, 0, 64, 57
1, 1468269, Control_c, 0, 64, 41
1, 1468284, Control_c, 0, 64, 34
1, 1468298, Control_c, 0, 64, 36
1, 1468313, Control_c, 0, 64, 41
1, 1468326, Note_off_c, 0, 61, 43
1, 1468328, Control_c, 0, 64, 46
1, 1468342, Control_c, 0, 64, 52
1, 1468357, Control_c, 0, 64, 60
1, 1468367, Note_on_c, 0, 52, 18
1, 1468372, Control_c, 0, 64, 65
1, 1468387, Control_c, 0, 64, 70
1, 1468402, Control_c, 0, 64, 76
1, 1468416, Control_c, 0, 64, 80
1, 1468431, Control_c, 0, 64, 83
1, 1468446, Control_c, 0, 64, 86
1, 1468461, Control_c, 0, 64, 90
1, 1468476, Control_c, 0, 64, 91
1, 1468490, Note_off_c, 0, 45, 30
1, 1468490, Control_c, 0, 64, 92
1, 1468520, Control_c, 0, 64, 93
1, 1468535, Control_c, 0, 64, 94
1, 1468549, Control_c, 0, 64, 96
1, 1468589, Note_off_c, 0, 52, 37
1, 1468595, Control_c, 0, 64, 98
1, 1468606, Note_on_c, 0, 57, 25
1, 1468610, Control_c, 0, 64, 100
1, 1468625, Note_on_c, 0, 64, 40
1, 1468647, Control_c, 0, 64, 103
1, 1468649, Note_on_c, 0, 61, 23
1, 1468781, Note_on_c, 0, 52, 36
1, 1468795, Control_c, 0, 64, 105
1, 1468895, Note_off_c, 0, 57, 30
1, 1468896, Note_off_c, 0, 61, 38
1, 1468897, Note_off_c, 0, 64, 37
1, 1468924, Note_off_c, 0, 52, 35
1, 1468975, Note_on_c, 0, 49, 26
1, 1469101, Note_on_c, 0, 52, 26
1, 1469225, Control_c, 0, 64, 96
1, 1469239, Control_c, 0, 64, 84
1, 1469254, Control_c, 0, 64, 70
1, 1469260, Note_off_c, 0, 52, 40
1, 1469269, Control_c, 0, 64, 60
1, 1469274, Note_on_c, 0, 69, 47
1, 1469281, Note_on_c, 0, 61, 37
1, 1469283, Note_on_c, 0, 57, 29
1, 1469284, Control_c, 0, 64, 48
1, 1469298, Control_c, 0, 64, 47
1, 1469313, Control_c, 0, 64, 51
1, 1469314, Note_on_c, 0, 64, 19
1, 1469328, Control_c, 0, 64, 56
1, 1469343, Control_c, 0, 64, 61
1, 1469358, Control_c, 0, 64, 65
1, 1469380, Control_c, 0, 64, 70
1, 1469396, Control_c, 0, 64, 75
1, 1469411, Control_c, 0, 64, 79
1, 1469420, Note_on_c, 0, 52, 29
1, 1469426, Control_c, 0, 64, 81
1, 1469441, Control_c, 0, 64, 82
1, 1469456, Note_off_c, 0, 61, 38
1, 1469456, Control_c, 0, 64, 83
1, 1469470, Control_c, 0, 64, 84
1, 1469477, Note_off_c, 0, 69, 37
1, 1469485, Control_c, 0, 64, 84
1, 1469494, Note_off_c, 0, 64, 25
1, 1469500, Control_c, 0, 64, 85
1, 1469512, Note_off_c, 0, 49, 39
1, 1469588, Note_on_c, 0, 47, 33
1, 1469589, Control_c, 0, 64, 84
1, 1469597, Note_off_c, 0, 52, 28
1, 1469603, Control_c, 0, 64, 81
1, 1469618, Control_c, 0, 64, 74
1, 1469621, Note_on_c, 0, 69, 46
1, 1469633, Control_c, 0, 64, 66
1, 1469648, Note_on_c, 0, 62, 33
1, 1469648, Control_c, 0, 64, 53
1, 1469653, Note_on_c, 0, 64, 25
1, 1469663, Control_c, 0, 64, 34
1, 1469677, Control_c, 0, 64, 0
1, 1469713, Note_off_c, 0, 57, 42
1, 1469766, Note_on_c, 0, 52, 30
1, 1469810, Control_c, 0, 64, 33
1, 1469825, Control_c, 0, 64, 38
1, 1469840, Control_c, 0, 64, 42
1, 1469855, Control_c, 0, 64, 48
1, 1469870, Control_c, 0, 64, 56
1, 1469885, Control_c, 0, 64, 61
1, 1469900, Control_c, 0, 64, 64
1, 1469915, Control_c, 0, 64, 67
1, 1469923, Note_off_c, 0, 52, 41
1, 1469929, Control_c, 0, 64, 70
1, 1469933, Note_on_c, 0, 68, 55
1, 1469944, Control_c, 0, 64, 75
1, 1469952, Note_on_c, 0, 56, 38
1, 1469959, Control_c, 0, 64, 79
1, 1469974, Control_c, 0, 64, 84
1, 1469989, Control_c, 0, 64, 88
1, 1470003, Control_c, 0, 64, 93
1, 1470018, Control_c, 0, 64, 97
1, 1470019, Note_off_c, 0, 69, 32
1, 1470028, Note_off_c, 0, 62, 56
1, 1470033, Control_c, 0, 64, 101
1, 1470046, Note_off_c, 0, 68, 62
1, 1470048, Control_c, 0, 64, 104
1, 1470049, Note_off_c, 0, 47, 50
1, 1470057, Note_off_c, 0, 64, 40
1, 1470070, Note_on_c, 0, 52, 40
1, 1470204, Control_c, 0, 64, 95
1, 1470205, Note_off_c, 0, 52, 44
1, 1470219, Control_c, 0, 64, 84
1, 1470234, Control_c, 0, 64, 73
1, 1470243, Note_off_c, 0, 56, 35
1, 1470249, Control_c, 0, 64, 60
1, 1470255, Note_on_c, 0, 49, 37
1, 1470263, Control_c, 0, 64, 41
1, 1470275, Note_on_c, 0, 69, 53
1, 1470278, Control_c, 0, 64, 0
1, 1470308, Control_c, 0, 64, 39
1, 1470309, Note_on_c, 0, 64, 33
1, 1470313, Note_on_c, 0, 61, 22
1, 1470323, Control_c, 0, 64, 48
1, 1470338, Control_c, 0, 64, 56
1, 1470352, Control_c, 0, 64, 64
1, 1470367, Control_c, 0, 64, 71
1, 1470382, Control_c, 0, 64, 78
1, 1470397, Control_c, 0, 64, 86
1, 1470397, Control_c, 0, 67, 108
1, 1470406, Note_on_c, 0, 52, 36
1, 1470412, Control_c, 0, 64, 91
1, 1470412, Control_c, 0, 67, 82
1, 1470426, Control_c, 0, 64, 98
1, 1470426, Control_c, 0, 67, 61
1, 1470441, Control_c, 0, 64, 105
1, 1470441, Control_c, 0, 67, 46
1, 1470442, Note_off_c, 0, 61, 41
1, 1470456, Control_c, 0, 64, 120
1, 1470456, Control_c, 0, 67, 31
1, 1470471, Control_c, 0, 64, 127
1, 1470471, Control_c, 0, 67, 0
1, 1470483, Note_off_c, 0, 69, 46
1, 1470489, Note_off_c, 0, 64, 59
1, 1470506, Note_off_c, 0, 52, 48
1, 1470575, Note_on_c, 0, 57, 36
1, 1470641, Note_off_c, 0, 49, 41
1, 1470699, Note_on_c, 0, 52, 37
1, 1470851, Note_off_c, 0, 52, 35
1, 1470884, Note_on_c, 0, 50, 38
1, 1470893, Control_c, 0, 64, 108
1, 1470907, Control_c, 0, 64, 86
1, 1470917, Note_on_c, 0, 71, 63
1, 1470922, Control_c, 0, 64, 72
1, 1470935, Note_on_c, 0, 66, 47
1, 1470937, Note_on_c, 0, 69, 45
1, 1470937, Control_c, 0, 64, 60
1, 1470952, Control_c, 0, 64, 43
1, 1470967, Control_c, 0, 64, 42
1, 1470982, Control_c, 0, 64, 48
1, 1470997, Control_c, 0, 64, 55
1, 1471003, Note_off_c, 0, 57, 7
1, 1471012, Control_c, 0, 64, 60
1, 1471027, Control_c, 0, 64, 66
1, 1471042, Control_c, 0, 64, 75
1, 1471056, Control_c, 0, 64, 92
1, 1471066, Note_on_c, 0, 54, 44
1, 1471071, Control_c, 0, 64, 112
1, 1471074, Note_off_c, 0, 66, 48
1, 1471086, Control_c, 0, 64, 127
1, 1471124, Note_off_c, 0, 69, 55
1, 1471141, Note_off_c, 0, 71, 56
1, 1471169, Note_off_c, 0, 54, 56
1, 1471220, Note_on_c, 0, 59, 47
1, 1471377, Note_on_c, 0, 71, 69
1, 1471381, Note_on_c, 0, 54, 43
1, 1471393, Note_on_c, 0, 69, 48
1, 1471403, Note_on_c, 0, 66, 37
1, 1471434, Note_off_c, 0, 69, 59
1, 1471439, Note_off_c, 0, 66, 49
1, 1471487, Note_off_c, 0, 50, 41
1, 1471548, Note_off_c, 0, 59, 38
1, 1471552, Note_off_c, 0, 54, 35
1, 1471560, Control_c, 0, 64, 100
1, 1471564, Note_on_c, 0, 51, 31
1, 1471575, Control_c, 0, 64, 78
1, 1471587, Note_on_c, 0, 73, 65
1, 1471590, Control_c, 0, 64, 63
1, 1471591, Note_on_c, 0, 69, 43
1, 1471605, Control_c, 0, 64, 39
1, 1471625, Note_on_c, 0, 66, 41
1, 1471627, Control_c, 0, 64, 0
1, 1471629, Note_off_c, 0, 71, 58
1, 1471656, Control_c, 0, 64, 42
1, 1471671, Control_c, 0, 64, 54
1, 1471686, Control_c, 0, 64, 64
1, 1471686, Control_c, 0, 67, 20
1, 1471697, Note_off_c, 0, 69, 63
1, 1471700, Control_c, 0, 64, 71
1, 1471700, Control_c, 0, 67, 24
1, 1471715, Control_c, 0, 64, 80
1, 1471715, Control_c, 0, 67, 28
1, 1471729, Note_off_c, 0, 66, 51
1, 1471730, Control_c, 0, 64, 87
1, 1471730, Control_c, 0, 67, 34
1, 1471745, Control_c, 0, 64, 91
1, 1471745, Control_c, 0, 67, 42
1, 1471756, Note_on_c, 0, 54, 38
1, 1471760, Control_c, 0, 64, 93
1, 1471760, Control_c, 0, 67, 52
1, 1471775, Control_c, 0, 64, 96
1, 1471775, Control_c, 0, 67, 64
1, 1471790, Control_c, 0, 64, 99
1, 1471790, Control_c, 0, 67, 73
1, 1471805, Control_c, 0, 64, 104
1, 1471805, Control_c, 0, 67, 81
1, 1471820, Control_c, 0, 64, 108
1, 1471820, Control_c, 0, 67, 87
1, 1471835, Control_c, 0, 67, 94
1, 1471850, Control_c, 0, 67, 101
1, 1471864, Control_c, 0, 67, 108
1, 1471879, Control_c, 0, 64, 100
1, 1471879, Control_c, 0, 67, 117
1, 1471894, Note_off_c, 0, 54, 36
1, 1471894, Control_c, 0, 64, 85
1, 1471894, Control_c, 0, 67, 124
1, 1471909, Control_c, 0, 64, 70
1, 1471909, Control_c, 0, 67, 127
1, 1471924, Control_c, 0, 64, 56
1, 1471931, Note_on_c, 0, 69, 55
1, 1471936, Note_off_c, 0, 73, 59
1, 1471939, Control_c, 0, 64, 40
1, 1471946, Note_on_c, 0, 61, 30
1, 1471947, Note_on_c, 0, 57, 16
1, 1471954, Control_c, 0, 64, 43
1, 1471957, Note_on_c, 0, 66, 41
1, 1471969, Control_c, 0, 64, 51
1, 1471983, Control_c, 0, 64, 60
1, 1471998, Control_c, 0, 64, 66
1, 1472013, Control_c, 0, 64, 71
1, 1472028, Control_c, 0, 64, 77
1, 1472038, Note_off_c, 0, 66, 51
1, 1472040, Note_off_c, 0, 69, 61
1, 1472043, Control_c, 0, 64, 81
1, 1472058, Control_c, 0, 64, 83
1, 1472062, Note_off_c, 0, 57, 33
1, 1472072, Control_c, 0, 64, 84
1, 1472087, Control_c, 0, 64, 84
1, 1472088, Note_on_c, 0, 54, 37
1, 1472102, Control_c, 0, 64, 85
1, 1472111, Note_off_c, 0, 51, 39
1, 1472121, Note_off_c, 0, 54, 43
1, 1472123, Note_off_c, 0, 61, 40
1, 1472131, Control_c, 0, 64, 86
1, 1472250, Control_c, 0, 64, 85
1, 1472264, Control_c, 0, 64, 78
1, 1472279, Control_c, 0, 64, 69
1, 1472285, Note_on_c, 0, 40, 33
1, 1472294, Control_c, 0, 64, 59
1, 1472297, Note_on_c, 0, 69, 46
1, 1472308, Control_c, 0, 64, 44
1, 1472310, Note_on_c, 0, 61, 34
1, 1472323, Control_c, 0, 64, 39
1, 1472338, Control_c, 0, 64, 46
1, 1472339, Note_on_c, 0, 64, 26
1, 1472353, Control_c, 0, 64, 55
1, 1472376, Control_c, 0, 64, 62
1, 1472390, Control_c, 0, 64, 68
1, 1472405, Control_c, 0, 64, 76
1, 1472415, Note_off_c, 0, 40, 56
1, 1472420, Control_c, 0, 64, 82
1, 1472435, Control_c, 0, 64, 85
1, 1472450, Control_c, 0, 64, 86
1, 1472464, Control_c, 0, 64, 86
1, 1472481, Note_on_c, 0, 52, 45
1, 1472494, Control_c, 0, 64, 87
1, 1472502, Note_off_c, 0, 61, 38
1, 1472512, Note_off_c, 0, 52, 57
1, 1472662, Note_on_c, 0, 57, 34
1, 1472759, Note_off_c, 0, 57, 47
1, 1472814, Note_on_c, 0, 61, 32
1, 1472984, Control_c, 0, 64, 86
1, 1472999, Control_c, 0, 64, 85
1, 1473013, Control_c, 0, 64, 84
1, 1473028, Control_c, 0, 64, 82
1, 1473043, Control_c, 0, 64, 80
1, 1473051, Note_on_c, 0, 59, 21
1, 1473058, Control_c, 0, 64, 78
1, 1473069, Note_on_c, 0, 68, 40
1, 1473074, Control_c, 0, 64, 76
1, 1473080, Note_off_c, 0, 64, 33
1, 1473088, Control_c, 0, 64, 74
1, 1473103, Control_c, 0, 64, 71
1, 1473125, Control_c, 0, 64, 68
1, 1473140, Control_c, 0, 64, 65
1, 1473155, Control_c, 0, 64, 62
1, 1473170, Control_c, 0, 64, 60
1, 1473175, Note_off_c, 0, 61, 20
1, 1473185, Control_c, 0, 64, 59
1, 1473200, Control_c, 0, 64, 59
1, 1473229, Control_c, 0, 64, 58
1, 1473244, Control_c, 0, 64, 57
1, 1473256, Note_off_c, 0, 59, 38
1, 1473259, Control_c, 0, 64, 55
1, 1473260, Note_on_c, 0, 62, 40
1, 1473273, Control_c, 0, 64, 53
1, 1473286, Note_on_c, 0, 66, 44
1, 1473288, Control_c, 0, 64, 51
1, 1473300, Note_off_c, 0, 69, 40
1, 1473303, Control_c, 0, 64, 48
1, 1473318, Control_c, 0, 64, 46
1, 1473333, Control_c, 0, 64, 44
1, 1473347, Control_c, 0, 64, 42
1, 1473360, Note_off_c, 0, 68, 28
1, 1473362, Control_c, 0, 64, 40
1, 1473377, Control_c, 0, 64, 38
1, 1473393, Control_c, 0, 64, 36
1, 1473408, Control_c, 0, 64, 35
1, 1473423, Control_c, 0, 64, 34
1, 1473437, Control_c, 0, 64, 34
1, 1473467, Control_c, 0, 64, 33
1, 1473472, Note_off_c, 0, 62, 36
1, 1473482, Control_c, 0, 64, 33
1, 1473492, Note_off_c, 0, 66, 52
1, 1473495, Note_on_c, 0, 64, 32
1, 1473506, Note_on_c, 0, 61, 37
1, 1473526, Control_c, 0, 64, 0
1, 1473689, Control_c, 0, 64, 33
1, 1473703, Control_c, 0, 64, 37
1, 1473718, Control_c, 0, 64, 42
1, 1473733, Control_c, 0, 64, 48
1, 1473748, Note_off_c, 0, 61, 39
1, 1473748, Control_c, 0, 64, 52
1, 1473758, Note_on_c, 0, 62, 32
1, 1473763, Control_c, 0, 64, 55
1, 1473774, Note_on_c, 0, 59, 17
1, 1473778, Control_c, 0, 64, 59
1, 1473784, Note_off_c, 0, 64, 34
1, 1473793, Control_c, 0, 64, 63
1, 1473808, Control_c, 0, 64, 66
1, 1473822, Control_c, 0, 64, 69
1, 1473836, Control_c, 0, 64, 71
1, 1473851, Control_c, 0, 64, 72
1, 1473873, Control_c, 0, 64, 73
1, 1473933, Control_c, 0, 64, 72
1, 1473948, Control_c, 0, 64, 70
1, 1473962, Control_c, 0, 64, 69
1, 1473977, Control_c, 0, 64, 66
1, 1473992, Control_c, 0, 64, 64
1, 1474007, Control_c, 0, 64, 60
1, 1474022, Control_c, 0, 64, 55
1, 1474036, Control_c, 0, 64, 50
1, 1474051, Control_c, 0, 64, 47
1, 1474066, Control_c, 0, 64, 45
1, 1474081, Control_c, 0, 64, 42
1, 1474095, Control_c, 0, 64, 38
1, 1474110, Control_c, 0, 64, 0
1, 1474155, Note_off_c, 0, 59, 42
1, 1474194, Note_off_c, 0, 62, 42
1, 1475186, Control_c, 0, 64, 37
1, 1475201, Control_c, 0, 64, 43
1, 1475215, Control_c, 0, 64, 50
1, 1475230, Control_c, 0, 64, 58
1, 1475245, Control_c, 0, 64, 62
1, 1475260, Control_c, 0, 64, 64
1, 1475275, Control_c, 0, 64, 67
1, 1475289, Control_c, 0, 64, 70
1, 1475304, Control_c, 0, 64, 72
1, 1475320, Control_c, 0, 64, 74
1, 1475334, Control_c, 0, 64, 77
1, 1475349, Control_c, 0, 64, 80
1, 1475372, Control_c, 0, 64, 82
1, 1475387, Control_c, 0, 64, 85
1, 1475402, Control_c, 0, 64, 86
1, 1475416, Control_c, 0, 64, 88
1, 1475431, Control_c, 0, 64, 89
1, 1475446, Control_c, 0, 64, 90
1, 1475461, Control_c, 0, 64, 90
1, 1475475, Control_c, 0, 64, 91
1, 1475534, Control_c, 0, 64, 92
1, 1475787, Control_c, 0, 64, 91
1, 1475818, Note_on_c, 0, 57, 32
1, 1475826, Note_on_c, 0, 72, 34
1, 1475832, Control_c, 0, 64, 90
1, 1475847, Control_c, 0, 64, 86
1, 1475862, Control_c, 0, 64, 80
1, 1475877, Control_c, 0, 64, 71
1, 1475891, Control_c, 0, 64, 62
1, 1475906, Control_c, 0, 64, 46
1, 1475920, Note_off_c, 0, 72, 59
1, 1475921, Control_c, 0, 64, 0
1, 1475965, Control_c, 0, 64, 40
1, 1475980, Control_c, 0, 64, 50
1, 1475995, Control_c, 0, 64, 59
1, 1476010, Control_c, 0, 64, 65
1, 1476025, Control_c, 0, 64, 71
1, 1476032, Note_on_c, 0, 64, 10
1, 1476039, Control_c, 0, 64, 75
1, 1476054, Control_c, 0, 64, 78
1, 1476069, Control_c, 0, 64, 80
1, 1476083, Control_c, 0, 64, 83
1, 1476090, Note_off_c, 0, 57, 32
1, 1476098, Control_c, 0, 64, 85
1, 1476121, Control_c, 0, 64, 88
1, 1476136, Control_c, 0, 64, 90
1, 1476151, Control_c, 0, 64, 91
1, 1476165, Control_c, 0, 64, 92
1, 1476180, Control_c, 0, 64, 94
1, 1476195, Control_c, 0, 64, 96
1, 1476209, Note_off_c, 0, 64, 20
1, 1476239, Control_c, 0, 64, 98
1, 1476243, Note_on_c, 0, 69, 34
1, 1476252, Note_on_c, 0, 76, 54
1, 1476269, Control_c, 0, 64, 100
1, 1476291, Note_on_c, 0, 72, 25
1, 1476343, Control_c, 0, 64, 102
1, 1476398, Note_on_c, 0, 64, 32
1, 1476432, Control_c, 0, 64, 104
1, 1476476, Control_c, 0, 64, 106
1, 1476485, Note_off_c, 0, 76, 52
1, 1476492, Note_off_c, 0, 72, 41
1, 1476506, Control_c, 0, 64, 108
1, 1476509, Note_off_c, 0, 64, 29
1, 1476535, Control_c, 0, 64, 111
1, 1476550, Control_c, 0, 64, 113
1, 1476551, Note_on_c, 0, 60, 39
1, 1476556, Note_off_c, 0, 69, 18
1, 1476565, Control_c, 0, 64, 117
1, 1476580, Control_c, 0, 64, 119
1, 1476595, Control_c, 0, 64, 125
1, 1476610, Control_c, 0, 64, 127
1, 1476686, Note_on_c, 0, 64, 27
1, 1476859, Note_off_c, 0, 64, 38
1, 1476872, Note_on_c, 0, 81, 62
1, 1476887, Note_on_c, 0, 76, 50
1, 1476890, Note_on_c, 0, 69, 34
1, 1476893, Note_on_c, 0, 72, 40
1, 1476986, Note_off_c, 0, 76, 48
1, 1477010, Note_off_c, 0, 72, 53
1, 1477038, Note_on_c, 0, 64, 21
1, 1477071, Note_off_c, 0, 81, 37
1, 1477151, Control_c, 0, 64, 122
1, 1477166, Control_c, 0, 64, 107
1, 1477176, Note_off_c, 0, 60, 39
1, 1477180, Control_c, 0, 64, 96
1, 1477195, Control_c, 0, 64, 85
1, 1477198, Note_off_c, 0, 64, 33
1, 1477210, Control_c, 0, 64, 73
1, 1477216, Note_on_c, 0, 59, 27
1, 1477221, Note_on_c, 0, 81, 44
1, 1477225, Control_c, 0, 64, 61
1, 1477239, Control_c, 0, 64, 44
1, 1477254, Control_c, 0, 64, 0
1, 1477256, Note_on_c, 0, 76, 27
1, 1477258, Note_on_c, 0, 74, 41
1, 1477266, Note_off_c, 0, 69, 14
1, 1477299, Control_c, 0, 64, 43
1, 1477313, Control_c, 0, 64, 52
1, 1477328, Control_c, 0, 64, 60
1, 1477343, Control_c, 0, 64, 65
1, 1477358, Control_c, 0, 64, 70
1, 1477373, Control_c, 0, 64, 74
1, 1477381, Note_on_c, 0, 64, 27
1, 1477389, Control_c, 0, 64, 76
1, 1477404, Control_c, 0, 64, 77
1, 1477418, Control_c, 0, 64, 78
1, 1477492, Control_c, 0, 64, 77
1, 1477507, Control_c, 0, 64, 73
1, 1477522, Control_c, 0, 64, 65
1, 1477529, Note_off_c, 0, 64, 40
1, 1477537, Control_c, 0, 64, 57
1, 1477552, Control_c, 0, 64, 44
1, 1477555, Note_on_c, 0, 80, 48
1, 1477567, Control_c, 0, 64, 40
1, 1477571, Note_on_c, 0, 68, 29
1, 1477582, Control_c, 0, 64, 43
1, 1477594, Note_off_c, 0, 76, 45
1, 1477597, Control_c, 0, 64, 50
1, 1477614, Note_off_c, 0, 81, 30
1, 1477619, Control_c, 0, 64, 55
1, 1477634, Control_c, 0, 64, 61
1, 1477649, Control_c, 0, 64, 65
1, 1477663, Note_off_c, 0, 74, 53
1, 1477663, Control_c, 0, 64, 70
1, 1477678, Control_c, 0, 64, 74
1, 1477693, Control_c, 0, 64, 76
1, 1477698, Note_on_c, 0, 64, 30
1, 1477708, Control_c, 0, 64, 77
1, 1477720, Note_off_c, 0, 80, 37
1, 1477723, Control_c, 0, 64, 79
1, 1477737, Control_c, 0, 64, 79
1, 1477752, Control_c, 0, 64, 80
1, 1477766, Note_off_c, 0, 68, 32
1, 1477767, Control_c, 0, 64, 81
1, 1477782, Control_c, 0, 64, 81
1, 1477803, Note_off_c, 0, 59, 38
1, 1477840, Note_off_c, 0, 64, 30
1, 1477856, Control_c, 0, 64, 80
1, 1477869, Note_on_c, 0, 60, 37
1, 1477871, Control_c, 0, 64, 76
1, 1477886, Control_c, 0, 64, 70
1, 1477901, Note_on_c, 0, 81, 57
1, 1477901, Control_c, 0, 64, 63
1, 1477915, Control_c, 0, 64, 52
1, 1477922, Note_on_c, 0, 72, 31
1, 1477930, Control_c, 0, 64, 45
1, 1477945, Control_c, 0, 64, 49
1, 1477955, Note_on_c, 0, 76, 3
1, 1477960, Control_c, 0, 64, 55
1, 1477975, Control_c, 0, 64, 61
1, 1477990, Control_c, 0, 64, 66
1, 1478004, Control_c, 0, 64, 73
1, 1478019, Control_c, 0, 64, 83
1, 1478034, Control_c, 0, 64, 90
1, 1478049, Control_c, 0, 64, 93
1, 1478053, Note_off_c, 0, 72, 56
1, 1478063, Control_c, 0, 64, 95
1, 1478066, Note_on_c, 0, 64, 30
1, 1478078, Control_c, 0, 64, 96
1, 1478108, Control_c, 0, 64, 98
1, 1478143, Note_off_c, 0, 60, 36
1, 1478148, Note_off_c, 0, 81, 33
1, 1478167, Control_c, 0, 64, 100
1, 1478174, Note_off_c, 0, 64, 29
1, 1478198, Note_off_c, 0, 76, 39
1, 1478211, Note_on_c, 0, 69, 36
1, 1478315, Control_c, 0, 64, 102
1, 1478363, Note_on_c, 0, 64, 29
1, 1478393, Note_off_c, 0, 69, 28
1, 1478500, Note_off_c, 0, 64, 39
1, 1478545, Control_c, 0, 64, 100
1, 1478559, Control_c, 0, 64, 91
1, 1478574, Control_c, 0, 64, 80
1, 1478580, Note_on_c, 0, 62, 21
1, 1478589, Control_c, 0, 64, 69
1, 1478604, Control_c, 0, 64, 60
1, 1478613, Note_on_c, 0, 82, 50
1, 1478619, Control_c, 0, 64, 45
1, 1478621, Note_on_c, 0, 77, 34
1, 1478634, Control_c, 0, 64, 42
1, 1478649, Control_c, 0, 64, 46
1, 1478664, Control_c, 0, 64, 52
1, 1478678, Control_c, 0, 64, 57
1, 1478693, Control_c, 0, 64, 62
1, 1478708, Control_c, 0, 64, 66
1, 1478723, Control_c, 0, 64, 71
1, 1478738, Control_c, 0, 64, 76
1, 1478752, Control_c, 0, 64, 79
1, 1478767, Control_c, 0, 64, 80
1, 1478782, Note_off_c, 0, 77, 42
1, 1478782, Control_c, 0, 64, 81
1, 1478797, Control_c, 0, 64, 83
1, 1478799, Note_on_c, 0, 65, 39
1, 1478811, Control_c, 0, 64, 85
1, 1478826, Control_c, 0, 64, 86
1, 1478841, Control_c, 0, 64, 88
1, 1478850, Note_off_c, 0, 65, 44
1, 1478856, Control_c, 0, 64, 91
1, 1478871, Control_c, 0, 64, 93
1, 1478885, Control_c, 0, 64, 94
1, 1478896, Note_off_c, 0, 82, 37
1, 1478945, Control_c, 0, 64, 91
1, 1478956, Note_off_c, 0, 62, 40
1, 1478959, Control_c, 0, 64, 82
1, 1478975, Control_c, 0, 64, 70
1, 1478990, Control_c, 0, 64, 61
1, 1479005, Control_c, 0, 64, 54
1, 1479012, Note_on_c, 0, 84, 57
1, 1479013, Note_on_c, 0, 60, 39
1, 1479020, Control_c, 0, 64, 57
1, 1479030, Note_on_c, 0, 69, 28
1, 1479035, Control_c, 0, 64, 61
1, 1479048, Note_on_c, 0, 77, 18
1, 1479050, Control_c, 0, 64, 66
1, 1479064, Control_c, 0, 64, 71
1, 1479069, Note_off_c, 0, 60, 63
1, 1479071, Note_off_c, 0, 69, 56
1, 1479079, Control_c, 0, 64, 77
1, 1479084, Poly_aftertouch_c, 0, 65, 127
1, 1479101, Control_c, 0, 64, 82
1, 1479106, Note_off_c, 0, 77, 46
1, 1479116, Control_c, 0, 64, 84
1, 1479131, Control_c, 0, 64, 85
1, 1479146, Control_c, 0, 64, 86
1, 1479147, Poly_aftertouch_c, 0, 65, 0
1, 1479161, Control_c, 0, 64, 86
1, 1479176, Control_c, 0, 64, 87
1, 1479190, Control_c, 0, 64, 87
1, 1479192, Note_off_c, 0, 84, 32
1, 1479205, Control_c, 0, 64, 88
1, 1479220, Control_c, 0, 64, 89
1, 1479235, Note_on_c, 0, 58, 43
1, 1479242, Note_on_c, 0, 86, 62
1, 1479263, Poly_aftertouch_c, 0, 65, 127
1, 1479264, Note_on_c, 0, 77, 35
1, 1479264, Control_c, 0, 64, 90
1, 1479281, Note_on_c, 0, 70, 8
1, 1479287, Note_off_c, 0, 58, 50
1, 1479299, Note_off_c, 0, 86, 49
1, 1479308, Control_c, 0, 64, 90
1, 1479310, Note_off_c, 0, 77, 47
1, 1479341, Note_off_c, 0, 70, 49
1, 1479516, Control_c, 0, 64, 90
1, 1479531, Control_c, 0, 64, 89
1, 1479546, Control_c, 0, 64, 85
1, 1479561, Control_c, 0, 64, 79
1, 1479572, Note_on_c, 0, 60, 36
1, 1479573, Note_on_c, 0, 84, 48
1, 1479575, Control_c, 0, 64, 72
1, 1479590, Control_c, 0, 64, 64
1, 1479591, Note_on_c, 0, 69, 21
1, 1479594, Note_on_c, 0, 77, 24
1, 1479594, Poly_aftertouch_c, 0, 65, 0
1, 1479605, Control_c, 0, 64, 55
1, 1479620, Control_c, 0, 64, 41
1, 1479634, Control_c, 0, 64, 35
1, 1479664, Control_c, 0, 64, 37
1, 1479679, Control_c, 0, 64, 40
1, 1479694, Control_c, 0, 64, 47
1, 1479708, Control_c, 0, 64, 56
1, 1479723, Control_c, 0, 64, 63
1, 1479738, Control_c, 0, 64, 69
1, 1479752, Control_c, 0, 64, 74
1, 1479758, Note_off_c, 0, 60, 37
1, 1479767, Control_c, 0, 64, 78
1, 1479779, Note_off_c, 0, 69, 40
1, 1479784, Control_c, 0, 64, 80
1, 1479798, Control_c, 0, 64, 81
1, 1479805, Note_off_c, 0, 84, 36
1, 1479813, Control_c, 0, 64, 82
1, 1479817, Note_off_c, 0, 77, 42
1, 1479828, Control_c, 0, 64, 83
1, 1479843, Control_c, 0, 64, 84
1, 1479865, Control_c, 0, 64, 85
1, 1479880, Control_c, 0, 64, 86
1, 1479895, Control_c, 0, 64, 87
1, 1479910, Control_c, 0, 64, 88
1, 1479925, Control_c, 0, 64, 88
1, 1479969, Control_c, 0, 64, 89
1, 1480176, Control_c, 0, 64, 88
1, 1480191, Control_c, 0, 64, 85
1, 1480205, Control_c, 0, 64, 80
1, 1480220, Control_c, 0, 64, 72
1, 1480235, Control_c, 0, 64, 65
1, 1480249, Note_on_c, 0, 84, 36
1, 1480250, Control_c, 0, 64, 58
1, 1480253, Note_on_c, 0, 76, 26
1, 1480255, Note_on_c, 0, 60, 21
1, 1480258, Note_on_c, 0, 67, 17
1, 1480264, Control_c, 0, 64, 53
1, 1480294, Control_c, 0, 64, 55
1, 1480309, Control_c, 0, 64, 57
1, 1480324, Control_c, 0, 64, 59
1, 1480339, Control_c, 0, 64, 61
1, 1480354, Control_c, 0, 64, 64
1, 1480369, Control_c, 0, 64, 67
1, 1480383, Control_c, 0, 64, 72
1, 1480398, Control_c, 0, 64, 76
1, 1480413, Note_off_c, 0, 60, 43
1, 1480413, Control_c, 0, 64, 80
1, 1480428, Control_c, 0, 64, 82
1, 1480443, Control_c, 0, 64, 83
1, 1480445, Note_off_c, 0, 67, 41
1, 1480446, Note_off_c, 0, 76, 40
1, 1480447, Note_off_c, 0, 84, 41
1, 1480457, Control_c, 0, 64, 84
1, 1480472, Control_c, 0, 64, 85
1, 1480487, Control_c, 0, 64, 86
1, 1480502, Control_c, 0, 64, 87
1, 1480517, Control_c, 0, 64, 88
1, 1480531, Control_c, 0, 64, 89
1, 1480547, Control_c, 0, 64, 89
1, 1480562, Control_c, 0, 64, 90
1, 1480615, Control_c, 0, 64, 90
1, 1480999, Control_c, 0, 64, 90
1, 1481029, Control_c, 0, 64, 89
1, 1481044, Control_c, 0, 64, 89
1, 1481073, Control_c, 0, 64, 88
1, 1481088, Control_c, 0, 64, 88
1, 1481103, Control_c, 0, 64, 87
1, 1481118, Control_c, 0, 64, 87
1, 1481133, Control_c, 0, 64, 86
1, 1481147, Control_c, 0, 64, 85
1, 1481162, Control_c, 0, 64, 85
1, 1481177, Control_c, 0, 64, 84
1, 1481192, Control_c, 0, 64, 83
1, 1481206, Control_c, 0, 64, 82
1, 1481221, Control_c, 0, 64, 81
1, 1481236, Control_c, 0, 64, 80
1, 1481251, Control_c, 0, 64, 79
1, 1481266, Control_c, 0, 64, 78
1, 1481281, Control_c, 0, 64, 77
1, 1481296, Control_c, 0, 64, 76
1, 1481309, Control_c, 0, 64, 75
1, 1481324, Control_c, 0, 64, 75
1, 1481339, Control_c, 0, 64, 74
1, 1481361, Control_c, 0, 64, 73
1, 1481376, Control_c, 0, 64, 71
1, 1481391, Control_c, 0, 64, 70
1, 1481406, Control_c, 0, 64, 67
1, 1481421, Control_c, 0, 64, 65
1, 1481436, Control_c, 0, 64, 64
1, 1481451, Control_c, 0, 64, 62
1, 1481481, Control_c, 0, 64, 62
1, 1481525, Control_c, 0, 64, 61
1, 1481540, Control_c, 0, 64, 61
1, 1481555, Control_c, 0, 64, 60
1, 1481584, Control_c, 0, 64, 60
1, 1481599, Control_c, 0, 64, 58
1, 1481614, Control_c, 0, 64, 57
1, 1481628, Control_c, 0, 64, 57
1, 1481643, Control_c, 0, 64, 56
1, 1481658, Control_c, 0, 64, 56
1, 1481688, Control_c, 0, 64, 55
1, 1481702, Control_c, 0, 64, 55
1, 1481717, Control_c, 0, 64, 54
1, 1481732, Control_c, 0, 64, 53
1, 1481747, Control_c, 0, 64, 51
1, 1481762, Control_c, 0, 64, 49
1, 1481776, Control_c, 0, 64, 47
1, 1481791, Control_c, 0, 64, 45
1, 1481806, Control_c, 0, 64, 42
1, 1481820, Control_c, 0, 64, 39
1, 1481835, Control_c, 0, 64, 36
1, 1481850, Control_c, 0, 64, 34
1, 1481865, Control_c, 0, 64, 0
1, 1482154, Control_c, 0, 64, 37
1, 1482169, Control_c, 0, 64, 43
1, 1482185, Control_c, 0, 64, 48
1, 1482199, Control_c, 0, 64, 54
1, 1482214, Control_c, 0, 64, 59
1, 1482229, Control_c, 0, 64, 62
1, 1482244, Control_c, 0, 64, 63
1, 1482259, Control_c, 0, 64, 65
1, 1482274, Control_c, 0, 64, 66
1, 1482288, Control_c, 0, 64, 68
1, 1482303, Control_c, 0, 64, 71
1, 1482318, Control_c, 0, 64, 73
1, 1482333, Control_c, 0, 64, 75
1, 1482348, Control_c, 0, 64, 78
1, 1482363, Control_c, 0, 64, 81
1, 1482377, Control_c, 0, 64, 84
1, 1482392, Control_c, 0, 64, 88
1, 1482407, Control_c, 0, 64, 92
1, 1482422, Control_c, 0, 64, 96
1, 1482422, Control_c, 0, 67, 111
1, 1482437, Control_c, 0, 64, 100
1, 1482437, Control_c, 0, 67, 98
1, 1482451, Control_c, 0, 64, 103
1, 1482451, Control_c, 0, 67, 84
1, 1482466, Control_c, 0, 64, 105
1, 1482466, Control_c, 0, 67, 72
1, 1482481, Control_c, 0, 64, 107
1, 1482481, Control_c, 0, 67, 60
1, 1482496, Control_c, 0, 64, 110
1, 1482496, Control_c, 0, 67, 49
1, 1482511, Control_c, 0, 64, 113
1, 1482511, Control_c, 0, 67, 39
1, 1482525, Control_c, 0, 64, 115
1, 1482525, Control_c, 0, 67, 31
1, 1482540, Control_c, 0, 67, 26
1, 1482555, Control_c, 0, 64, 117
1, 1482555, Control_c, 0, 67, 23
1, 1482569, Control_c, 0, 67, 21
1, 1482584, Control_c, 0, 67, 0
1, 1482643, Control_c, 0, 64, 119
1, 1482885, Note_on_c, 0, 45, 32
1, 1482885, Note_on_c, 0, 60, 37
1, 1482888, Note_on_c, 0, 72, 40
1, 1483104, Note_on_c, 0, 48, 36
1, 1483193, Note_off_c, 0, 48, 45
1, 1483224, Note_off_c, 0, 60, 39
1, 1483254, Note_off_c, 0, 72, 30
1, 1483262, Note_on_c, 0, 53, 50
1, 1483353, Note_off_c, 0, 45, 39
1, 1483396, Note_off_c, 0, 53, 36
1, 1483411, Note_on_c, 0, 72, 73
1, 1483420, Note_on_c, 0, 48, 40
1, 1483433, Note_on_c, 0, 60, 55
1, 1483478, Note_off_c, 0, 60, 59
1, 1483507, Note_off_c, 0, 72, 55
1, 1483508, Note_off_c, 0, 48, 52
1, 1483602, Note_on_c, 0, 42, 37
1, 1483653, Control_c, 0, 64, 117
1, 1483668, Control_c, 0, 64, 107
1, 1483668, Control_c, 0, 67, 19
1, 1483682, Note_on_c, 0, 74, 77
1, 1483682, Control_c, 0, 64, 93
1, 1483697, Control_c, 0, 64, 76
1, 1483705, Note_on_c, 0, 62, 50
1, 1483712, Control_c, 0, 64, 64
1, 1483712, Control_c, 0, 67, 21
1, 1483726, Control_c, 0, 64, 47
1, 1483741, Control_c, 0, 64, 0
1, 1483741, Control_c, 0, 67, 24
1, 1483772, Control_c, 0, 64, 40
1, 1483772, Control_c, 0, 67, 27
1, 1483787, Control_c, 0, 64, 51
1, 1483787, Control_c, 0, 67, 29
1, 1483802, Control_c, 0, 64, 59
1, 1483802, Control_c, 0, 67, 32
1, 1483817, Control_c, 0, 64, 65
1, 1483817, Control_c, 0, 67, 38
1, 1483831, Control_c, 0, 64, 73
1, 1483831, Control_c, 0, 67, 51
1, 1483846, Control_c, 0, 64, 84
1, 1483846, Control_c, 0, 67, 73
1, 1483861, Control_c, 0, 64, 95
1, 1483861, Control_c, 0, 67, 93
1, 1483876, Control_c, 0, 64, 105
1, 1483876, Control_c, 0, 67, 108
1, 1483891, Control_c, 0, 64, 120
1, 1483891, Control_c, 0, 67, 120
1, 1483892, Note_on_c, 0, 50, 45
1, 1483894, Note_off_c, 0, 42, 42
1, 1483905, Control_c, 0, 64, 127
1, 1483905, Control_c, 0, 67, 127
1, 1483973, Note_off_c, 0, 50, 61
1, 1484023, Note_off_c, 0, 74, 57
1, 1484057, Note_on_c, 0, 57, 33
1, 1484119, Note_off_c, 0, 62, 38
1, 1484140, Note_off_c, 0, 57, 38
1, 1484185, Note_on_c, 0, 50, 42
1, 1484253, Note_off_c, 0, 50, 49
1, 1484356, Control_c, 0, 64, 102
1, 1484364, Note_on_c, 0, 43, 34
1, 1484371, Control_c, 0, 64, 82
1, 1484386, Control_c, 0, 64, 69
1, 1484401, Note_on_c, 0, 72, 50
1, 1484401, Control_c, 0, 64, 60
1, 1484412, Note_on_c, 0, 60, 27
1, 1484416, Control_c, 0, 64, 58
1, 1484430, Control_c, 0, 64, 61
1, 1484445, Control_c, 0, 64, 64
1, 1484460, Control_c, 0, 64, 67
1, 1484475, Control_c, 0, 64, 72
1, 1484490, Control_c, 0, 64, 78
1, 1484504, Control_c, 0, 64, 87
1, 1484519, Control_c, 0, 64, 98
1, 1484534, Control_c, 0, 64, 113
1, 1484545, Note_off_c, 0, 72, 55
1, 1484548, Control_c, 0, 64, 127
1, 1484584, Note_on_c, 0, 50, 33
1, 1484596, Note_off_c, 0, 60, 41
1, 1484622, Note_off_c, 0, 43, 35
1, 1484720, Note_off_c, 0, 50, 35
1, 1484727, Control_c, 0, 67, 113
1, 1484736, Note_on_c, 0, 71, 61
1, 1484742, Control_c, 0, 67, 93
1, 1484745, Note_on_c, 0, 55, 31
1, 1484757, Control_c, 0, 67, 74
1, 1484767, Note_on_c, 0, 59, 27
1, 1484772, Control_c, 0, 67, 56
1, 1484786, Control_c, 0, 67, 44
1, 1484801, Control_c, 0, 67, 31
1, 1484810, Note_off_c, 0, 55, 50
1, 1484816, Control_c, 0, 67, 0
1, 1484826, Note_off_c, 0, 71, 60
1, 1484877, Note_off_c, 0, 59, 42
1, 1484879, Note_on_c, 0, 50, 41
1, 1485039, Control_c, 0, 64, 91
1, 1485041, Note_off_c, 0, 50, 35
1, 1485054, Control_c, 0, 64, 71
1, 1485068, Note_on_c, 0, 67, 57
1, 1485069, Control_c, 0, 64, 55
1, 1485084, Control_c, 0, 64, 33
1, 1485105, Note_on_c, 0, 43, 19
1, 1485106, Control_c, 0, 64, 35
1, 1485108, Note_on_c, 0, 55, 23
1, 1485120, Control_c, 0, 64, 44
1, 1485135, Control_c, 0, 64, 54
1, 1485150, Control_c, 0, 64, 62
1, 1485165, Control_c, 0, 64, 70
1, 1485180, Control_c, 0, 64, 79
1, 1485195, Control_c, 0, 64, 92
1, 1485210, Control_c, 0, 64, 99
1, 1485216, Note_off_c, 0, 55, 52
1, 1485225, Control_c, 0, 64, 102
1, 1485240, Control_c, 0, 64, 104
1, 1485254, Control_c, 0, 64, 106
1, 1485257, Note_off_c, 0, 67, 63
1, 1485269, Note_on_c, 0, 50, 43
1, 1485269, Control_c, 0, 64, 108
1, 1485298, Control_c, 0, 64, 113
1, 1485313, Control_c, 0, 64, 120
1, 1485328, Control_c, 0, 64, 127
1, 1485355, Note_off_c, 0, 50, 51
1, 1485396, Note_on_c, 0, 55, 45
1, 1485457, Note_off_c, 0, 55, 50
1, 1485467, Note_off_c, 0, 43, 25
1, 1485552, Note_on_c, 0, 50, 23
1, 1485558, Note_on_c, 0, 69, 71
1, 1485567, Note_on_c, 0, 57, 45
1, 1485592, Note_off_c, 0, 50, 51
1, 1485594, Note_off_c, 0, 57, 55
1, 1485724, Note_on_c, 0, 38, 41
1, 1485743, Control_c, 0, 64, 100
1, 1485758, Note_on_c, 0, 70, 68
1, 1485758, Control_c, 0, 64, 79
1, 1485773, Control_c, 0, 64, 64
1, 1485776, Note_on_c, 0, 58, 45
1, 1485783, Note_off_c, 0, 69, 58
1, 1485788, Control_c, 0, 64, 41
1, 1485803, Control_c, 0, 64, 36
1, 1485818, Control_c, 0, 64, 44
1, 1485833, Control_c, 0, 64, 53
1, 1485855, Control_c, 0, 64, 60
1, 1485870, Control_c, 0, 64, 67
1, 1485873, Note_off_c, 0, 38, 52
1, 1485884, Control_c, 0, 64, 75
1, 1485899, Control_c, 0, 64, 87
1, 1485914, Control_c, 0, 64, 95
1, 1485925, Note_on_c, 0, 50, 46
1, 1485928, Control_c, 0, 64, 99
1, 1485943, Control_c, 0, 64, 102
1, 1485958, Control_c, 0, 64, 105
1, 1485973, Control_c, 0, 64, 108
1, 1485988, Control_c, 0, 64, 110
1, 1485992, Note_off_c, 0, 58, 58
1, 1486018, Control_c, 0, 64, 113
1, 1486024, Note_off_c, 0, 70, 61
1, 1486035, Note_off_c, 0, 50, 56
1, 1486062, Control_c, 0, 64, 116
1, 1486065, Note_on_c, 0, 53, 55
1, 1486145, Note_off_c, 0, 53, 52
1, 1486211, Note_on_c, 0, 50, 48
1, 1486216, Note_on_c, 0, 70, 76
1, 1486225, Note_on_c, 0, 58, 60
1, 1486266, Note_off_c, 0, 50, 51
1, 1486291, Note_off_c, 0, 58, 59
1, 1486359, Control_c, 0, 64, 113
1, 1486374, Control_c, 0, 64, 110
1, 1486389, Control_c, 0, 64, 105
1, 1486396, Note_on_c, 0, 40, 30
1, 1486404, Control_c, 0, 64, 98
1, 1486418, Control_c, 0, 64, 88
1, 1486433, Control_c, 0, 64, 77
1, 1486437, Note_on_c, 0, 72, 71
1, 1486448, Control_c, 0, 64, 65
1, 1486452, Note_on_c, 0, 60, 50
1, 1486463, Control_c, 0, 64, 49
1, 1486468, Note_off_c, 0, 70, 51
1, 1486478, Control_c, 0, 64, 0
1, 1486551, Control_c, 0, 64, 47
1, 1486566, Control_c, 0, 64, 61
1, 1486574, Note_off_c, 0, 40, 52
1, 1486581, Control_c, 0, 64, 68
1, 1486604, Control_c, 0, 64, 73
1, 1486618, Control_c, 0, 64, 78
1, 1486633, Control_c, 0, 64, 81
1, 1486640, Note_on_c, 0, 48, 33
1, 1486648, Control_c, 0, 64, 84
1, 1486663, Control_c, 0, 64, 89
1, 1486676, Note_off_c, 0, 72, 50
1, 1486678, Control_c, 0, 64, 95
1, 1486692, Control_c, 0, 64, 102
1, 1486707, Control_c, 0, 64, 108
1, 1486722, Control_c, 0, 64, 113
1, 1486737, Control_c, 0, 64, 117
1, 1486739, Note_off_c, 0, 48, 55
1, 1486751, Control_c, 0, 64, 119
1, 1486766, Control_c, 0, 64, 122
1, 1486781, Control_c, 0, 64, 127
1, 1486808, Note_on_c, 0, 55, 36
1, 1486894, Note_off_c, 0, 55, 50
1, 1486932, Note_on_c, 0, 48, 37
1, 1487094, Control_c, 0, 64, 125
1, 1487109, Control_c, 0, 64, 116
1, 1487120, Note_off_c, 0, 48, 32
1, 1487123, Control_c, 0, 64, 109
1, 1487138, Control_c, 0, 64, 100
1, 1487141, Note_off_c, 0, 60, 40
1, 1487146, Note_on_c, 0, 45, 40
1, 1487153, Control_c, 0, 64, 89
1, 1487167, Control_c, 0, 64, 78
1, 1487174, Note_on_c, 0, 65, 52
1, 1487182, Control_c, 0, 64, 65
1, 1487197, Control_c, 0, 64, 52
1, 1487212, Control_c, 0, 64, 0
1, 1487319, Note_off_c, 0, 65, 62
1, 1487354, Note_on_c, 0, 67, 50
1, 1487380, Note_on_c, 0, 48, 22
1, 1487398, Note_off_c, 0, 67, 61
1, 1487408, Note_on_c, 0, 65, 51
1, 1487441, Note_off_c, 0, 65, 65
1, 1487459, Note_on_c, 0, 64, 51
1, 1487502, Note_off_c, 0, 64, 60
1, 1487515, Control_c, 0, 64, 37
1, 1487523, Note_on_c, 0, 65, 62
1, 1487526, Note_off_c, 0, 48, 37
1, 1487530, Control_c, 0, 64, 51
1, 1487532, Note_on_c, 0, 53, 33
1, 1487545, Control_c, 0, 64, 61
1, 1487560, Control_c, 0, 64, 67
1, 1487574, Control_c, 0, 64, 72
1, 1487589, Control_c, 0, 64, 77
1, 1487604, Control_c, 0, 64, 79
1, 1487619, Control_c, 0, 64, 80
1, 1487634, Control_c, 0, 64, 81
1, 1487648, Control_c, 0, 64, 81
1, 1487663, Control_c, 0, 64, 82
1, 1487663, Control_c, 0, 67, 20
1, 1487665, Note_off_c, 0, 45, 40
1, 1487672, Note_off_c, 0, 65, 59
1, 1487678, Control_c, 0, 67, 23
1, 1487689, Note_on_c, 0, 48, 39
1, 1487691, Note_on_c, 0, 67, 56
1, 1487693, Control_c, 0, 67, 26
1, 1487708, Control_c, 0, 67, 30
1, 1487711, Note_off_c, 0, 53, 30
1, 1487723, Control_c, 0, 67, 37
1, 1487738, Control_c, 0, 67, 45
1, 1487752, Control_c, 0, 67, 55
1, 1487768, Control_c, 0, 67, 66
1, 1487783, Control_c, 0, 64, 81
1, 1487783, Control_c, 0, 67, 75
1, 1487797, Control_c, 0, 64, 81
1, 1487797, Control_c, 0, 67, 83
1, 1487812, Control_c, 0, 64, 79
1, 1487812, Control_c, 0, 67, 91
1, 1487827, Control_c, 0, 64, 76
1, 1487827, Control_c, 0, 67, 99
1, 1487842, Control_c, 0, 64, 73
1, 1487842, Control_c, 0, 67, 104
1, 1487857, Control_c, 0, 64, 69
1, 1487857, Control_c, 0, 67, 109
1, 1487872, Control_c, 0, 64, 66
1, 1487872, Control_c, 0, 67, 114
1, 1487887, Control_c, 0, 64, 63
1, 1487887, Control_c, 0, 67, 117
1, 1487899, Note_off_c, 0, 48, 36
1, 1487902, Control_c, 0, 64, 60
1, 1487902, Control_c, 0, 67, 121
1, 1487911, Note_on_c, 0, 41, 33
1, 1487911, Note_off_c, 0, 67, 57
1, 1487916, Control_c, 0, 64, 56
1, 1487916, Control_c, 0, 67, 125
1, 1487931, Control_c, 0, 64, 51
1, 1487931, Control_c, 0, 67, 127
1, 1487946, Control_c, 0, 64, 46
1, 1487953, Note_on_c, 0, 69, 40
1, 1487961, Control_c, 0, 64, 41
1, 1487973, Note_on_c, 0, 65, 35
1, 1487976, Control_c, 0, 64, 0
1, 1487978, Note_on_c, 0, 60, 30
1, 1488206, Control_c, 0, 64, 40
1, 1488206, Note_on_c, 0, 48, 21
1, 1488220, Control_c, 0, 64, 54
1, 1488235, Control_c, 0, 64, 62
1, 1488250, Control_c, 0, 64, 65
1, 1488265, Control_c, 0, 64, 69
1, 1488280, Control_c, 0, 64, 73
1, 1488295, Control_c, 0, 64, 76
1, 1488310, Control_c, 0, 64, 79
1, 1488324, Control_c, 0, 64, 82
1, 1488339, Control_c, 0, 64, 85
1, 1488354, Control_c, 0, 64, 89
1, 1488367, Note_off_c, 0, 69, 37
1, 1488369, Control_c, 0, 64, 92
1, 1488384, Control_c, 0, 64, 95
1, 1488394, Note_off_c, 0, 60, 36
1, 1488413, Control_c, 0, 64, 97
1, 1488433, Note_on_c, 0, 53, 36
1, 1488443, Control_c, 0, 64, 100
1, 1488458, Control_c, 0, 64, 102
1, 1488502, Control_c, 0, 64, 104
1, 1488521, Note_off_c, 0, 48, 40
1, 1488539, Note_off_c, 0, 65, 41
1, 1488736, Note_on_c, 0, 48, 23
1, 1488916, Note_off_c, 0, 41, 1
1, 1488950, Note_off_c, 0, 53, 28
1, 1488964, Note_off_c, 0, 48, 40
1, 1489309, Control_c, 0, 64, 102
1, 1489338, Control_c, 0, 64, 98
1, 1489369, Control_c, 0, 64, 95
1, 1489384, Control_c, 0, 64, 92
1, 1489399, Control_c, 0, 64, 90
1, 1489414, Control_c, 0, 64, 88
1, 1489429, Control_c, 0, 64, 86
1, 1489443, Control_c, 0, 64, 83
1, 1489458, Control_c, 0, 64, 81
1, 1489473, Control_c, 0, 64, 78
1, 1489488, Control_c, 0, 64, 76
1, 1489503, Control_c, 0, 64, 75
1, 1489517, Control_c, 0, 64, 73
1, 1489532, Control_c, 0, 64, 72
1, 1489547, Control_c, 0, 64, 70
1, 1489562, Control_c, 0, 64, 69
1, 1489577, Control_c, 0, 64, 68
1, 1489599, Control_c, 0, 64, 67
1, 1489614, Control_c, 0, 64, 66
1, 1489629, Control_c, 0, 64, 65
1, 1489643, Control_c, 0, 64, 64
1, 1489658, Control_c, 0, 64, 62
1, 1489673, Control_c, 0, 64, 61
1, 1489687, Control_c, 0, 64, 59
1, 1489702, Control_c, 0, 64, 57
1, 1489717, Control_c, 0, 64, 54
1, 1489732, Control_c, 0, 64, 50
1, 1489747, Control_c, 0, 64, 46
1, 1489762, Control_c, 0, 64, 41
1, 1489776, Control_c, 0, 64, 36
1, 1489791, Control_c, 0, 64, 0
1, 1489955, Control_c, 0, 64, 39
1, 1489969, Control_c, 0, 64, 47
1, 1489984, Control_c, 0, 64, 55
1, 1489999, Control_c, 0, 64, 60
1, 1490014, Control_c, 0, 64, 62
1, 1490029, Control_c, 0, 64, 64
1, 1490043, Control_c, 0, 64, 66
1, 1490058, Control_c, 0, 64, 69
1, 1490073, Control_c, 0, 64, 73
1, 1490087, Control_c, 0, 64, 77
1, 1490102, Control_c, 0, 64, 80
1, 1490117, Control_c, 0, 64, 84
1, 1490132, Control_c, 0, 64, 88
1, 1490147, Control_c, 0, 64, 92
1, 1490163, Control_c, 0, 64, 98
1, 1490178, Control_c, 0, 64, 107
1, 1490192, Control_c, 0, 64, 120
1, 1490207, Control_c, 0, 64, 127
1, 1490476, Note_on_c, 0, 53, 33
1, 1490534, Note_on_c, 0, 81, 45
1, 1490790, Note_off_c, 0, 81, 42
1, 1490831, Note_on_c, 0, 83, 44
1, 1490844, Note_on_c, 0, 60, 29
1, 1490870, Note_off_c, 0, 83, 52
1, 1490880, Note_on_c, 0, 81, 59
1, 1490906, Note_off_c, 0, 81, 63
1, 1490926, Control_c, 0, 64, 101
1, 1490938, Note_on_c, 0, 80, 50
1, 1490941, Control_c, 0, 64, 84
1, 1490957, Control_c, 0, 64, 69
1, 1490969, Note_off_c, 0, 80, 57
1, 1490972, Control_c, 0, 64, 52
1, 1490987, Control_c, 0, 64, 0
1, 1491001, Note_on_c, 0, 81, 55
1, 1491005, Note_on_c, 0, 65, 39
1, 1491007, Note_off_c, 0, 60, 43
1, 1491046, Control_c, 0, 64, 36
1, 1491061, Control_c, 0, 64, 46
1, 1491076, Control_c, 0, 64, 57
1, 1491097, Control_c, 0, 64, 63
1, 1491112, Control_c, 0, 64, 66
1, 1491127, Control_c, 0, 64, 69
1, 1491142, Control_c, 0, 64, 72
1, 1491157, Control_c, 0, 64, 74
1, 1491172, Control_c, 0, 64, 77
1, 1491186, Control_c, 0, 64, 80
1, 1491195, Note_off_c, 0, 53, 12
1, 1491201, Control_c, 0, 64, 83
1, 1491205, Note_off_c, 0, 81, 57
1, 1491216, Control_c, 0, 64, 85
1, 1491231, Control_c, 0, 64, 88
1, 1491239, Note_on_c, 0, 83, 56
1, 1491246, Control_c, 0, 64, 90
1, 1491255, Note_on_c, 0, 60, 28
1, 1491260, Control_c, 0, 64, 91
1, 1491275, Control_c, 0, 64, 93
1, 1491290, Control_c, 0, 64, 95
1, 1491305, Control_c, 0, 64, 96
1, 1491306, Note_off_c, 0, 60, 45
1, 1491327, Note_off_c, 0, 65, 18
1, 1491491, Note_on_c, 0, 53, 31
1, 1491512, Control_c, 0, 64, 95
1, 1491515, Note_off_c, 0, 83, 38
1, 1491527, Control_c, 0, 64, 93
1, 1491541, Control_c, 0, 64, 88
1, 1491556, Control_c, 0, 64, 80
1, 1491568, Note_on_c, 0, 84, 42
1, 1491571, Control_c, 0, 64, 69
1, 1491586, Control_c, 0, 64, 60
1, 1491587, Note_on_c, 0, 75, 24
1, 1491592, Note_on_c, 0, 81, 30
1, 1491601, Control_c, 0, 64, 47
1, 1491616, Control_c, 0, 64, 37
1, 1491631, Control_c, 0, 64, 37
1, 1491646, Control_c, 0, 64, 42
1, 1491660, Control_c, 0, 64, 49
1, 1491675, Control_c, 0, 64, 56
1, 1491690, Control_c, 0, 64, 61
1, 1491705, Control_c, 0, 64, 65
1, 1491720, Control_c, 0, 64, 70
1, 1491734, Control_c, 0, 64, 76
1, 1491749, Control_c, 0, 64, 81
1, 1491765, Control_c, 0, 64, 85
1, 1491780, Control_c, 0, 64, 88
1, 1491795, Control_c, 0, 64, 92
1, 1491809, Control_c, 0, 64, 96
1, 1491824, Control_c, 0, 64, 101
1, 1491846, Control_c, 0, 64, 106
1, 1491861, Control_c, 0, 64, 111
1, 1491876, Control_c, 0, 64, 116
1, 1491877, Note_on_c, 0, 60, 26
1, 1491890, Control_c, 0, 64, 120
1, 1491902, Note_off_c, 0, 75, 39
1, 1491905, Control_c, 0, 64, 127
1, 1491915, Note_off_c, 0, 84, 41
1, 1491932, Note_off_c, 0, 81, 41
1, 1492230, Note_on_c, 0, 65, 32
1, 1492342, Note_off_c, 0, 60, 43
1, 1492750, Note_on_c, 0, 60, 33
1, 1493333, Note_off_c, 0, 65, 36
1, 1493457, Note_off_c, 0, 60, 37
1, 1493471, Note_off_c, 0, 53, 26
1, 1493862, Control_c, 0, 64, 119
1, 1493877, Control_c, 0, 64, 114
1, 1493892, Control_c, 0, 64, 110
1, 1493907, Control_c, 0, 64, 107
1, 1493922, Control_c, 0, 64, 104
1, 1493936, Control_c, 0, 64, 101
1, 1493951, Control_c, 0, 64, 98
1, 1493966, Control_c, 0, 64, 95
1, 1493981, Control_c, 0, 64, 93
1, 1493996, Control_c, 0, 64, 91
1, 1494010, Control_c, 0, 64, 89
1, 1494025, Control_c, 0, 64, 87
1, 1494040, Control_c, 0, 64, 85
1, 1494054, Control_c, 0, 64, 83
1, 1494069, Control_c, 0, 64, 81
1, 1494092, Control_c, 0, 64, 80
1, 1494107, Control_c, 0, 64, 78
1, 1494122, Control_c, 0, 64, 76
1, 1494136, Control_c, 0, 64, 74
1, 1494151, Control_c, 0, 64, 72
1, 1494167, Control_c, 0, 64, 70
1, 1494182, Control_c, 0, 64, 68
1, 1494197, Control_c, 0, 64, 66
1, 1494212, Control_c, 0, 64, 65
1, 1494227, Control_c, 0, 64, 65
1, 1494241, Control_c, 0, 64, 64
1, 1494256, Control_c, 0, 64, 64
1, 1494271, Control_c, 0, 64, 63
1, 1494285, Control_c, 0, 64, 62
1, 1494300, Control_c, 0, 64, 62
1, 1494315, Control_c, 0, 64, 61
1, 1494345, Control_c, 0, 64, 61
1, 1494374, Control_c, 0, 64, 60
1, 1494404, Control_c, 0, 64, 60
1, 1494433, Control_c, 0, 64, 59
1, 1494448, Control_c, 0, 64, 59
1, 1494463, Control_c, 0, 64, 57
1, 1494477, Control_c, 0, 64, 56
1, 1494492, Control_c, 0, 64, 54
1, 1494507, Control_c, 0, 64, 53
1, 1494522, Control_c, 0, 64, 51
1, 1494537, Control_c, 0, 64, 49
1, 1494552, Control_c, 0, 64, 48
1, 1494567, Control_c, 0, 64, 47
1, 1494582, Control_c, 0, 64, 48
1, 1494597, Control_c, 0, 64, 48
1, 1494611, Control_c, 0, 64, 50
1, 1494626, Control_c, 0, 64, 52
1, 1494641, Control_c, 0, 64, 54
1, 1494656, Control_c, 0, 64, 58
1, 1494671, Control_c, 0, 64, 60
1, 1494685, Control_c, 0, 64, 63
1, 1494700, Control_c, 0, 64, 65
1, 1494715, Control_c, 0, 64, 68
1, 1494730, Control_c, 0, 64, 71
1, 1494745, Control_c, 0, 64, 75
1, 1494759, Control_c, 0, 64, 78
1, 1494774, Control_c, 0, 64, 80
1, 1494789, Control_c, 0, 64, 83
1, 1494803, Control_c, 0, 64, 86
1, 1494818, Control_c, 0, 64, 89
1, 1494841, Control_c, 0, 64, 92
1, 1494856, Control_c, 0, 64, 95
1, 1494871, Control_c, 0, 64, 99
1, 1494885, Control_c, 0, 64, 102
1, 1494915, Control_c, 0, 64, 105
1, 1495017, Note_on_c, 0, 49, 32
1, 1495044, Note_on_c, 0, 69, 37
1, 1495260, Note_off_c, 0, 69, 36
1, 1495278, Note_on_c, 0, 71, 44
1, 1495282, Note_on_c, 0, 52, 27
1, 1495286, Control_c, 0, 64, 103
1, 1495300, Control_c, 0, 64, 98
1, 1495315, Control_c, 0, 64, 90
1, 1495330, Control_c, 0, 64, 79
1, 1495332, Note_on_c, 0, 69, 54
1, 1495345, Control_c, 0, 64, 69
1, 1495351, Note_off_c, 0, 71, 44
1, 1495360, Control_c, 0, 64, 57
1, 1495369, Note_off_c, 0, 69, 64
1, 1495375, Control_c, 0, 64, 47
1, 1495387, Note_on_c, 0, 68, 56
1, 1495390, Control_c, 0, 64, 48
1, 1495404, Control_c, 0, 64, 52
1, 1495414, Note_off_c, 0, 52, 37
1, 1495419, Control_c, 0, 64, 56
1, 1495434, Control_c, 0, 64, 59
1, 1495440, Note_on_c, 0, 69, 59
1, 1495449, Control_c, 0, 64, 64
1, 1495450, Note_off_c, 0, 68, 53
1, 1495459, Note_on_c, 0, 57, 33
1, 1495464, Control_c, 0, 64, 68
1, 1495479, Control_c, 0, 64, 73
1, 1495494, Control_c, 0, 64, 77
1, 1495508, Control_c, 0, 64, 79
1, 1495523, Control_c, 0, 64, 80
1, 1495537, Control_c, 0, 64, 80
1, 1495552, Control_c, 0, 64, 81
1, 1495567, Control_c, 0, 64, 81
1, 1495583, Note_off_c, 0, 49, 41
1, 1495589, Control_c, 0, 64, 82
1, 1495601, Note_on_c, 0, 71, 73
1, 1495604, Note_off_c, 0, 69, 60
1, 1495610, Note_off_c, 0, 57, 33
1, 1495619, Control_c, 0, 64, 82
1, 1495625, Note_on_c, 0, 52, 40
1, 1495737, Control_c, 0, 64, 82
1, 1495747, Note_off_c, 0, 52, 34
1, 1495753, Control_c, 0, 64, 79
1, 1495768, Control_c, 0, 64, 75
1, 1495772, Note_off_c, 0, 71, 61
1, 1495783, Control_c, 0, 64, 68
1, 1495792, Note_on_c, 0, 45, 34
1, 1495798, Control_c, 0, 64, 60
1, 1495800, Note_on_c, 0, 73, 57
1, 1495812, Control_c, 0, 64, 46
1, 1495827, Control_c, 0, 64, 35
1, 1495843, Note_on_c, 0, 64, 17
1, 1495844, Note_on_c, 0, 69, 15
1, 1495856, Control_c, 0, 64, 40
1, 1495871, Control_c, 0, 64, 48
1, 1495886, Control_c, 0, 64, 56
1, 1495901, Control_c, 0, 64, 64
1, 1495916, Control_c, 0, 64, 70
1, 1495930, Control_c, 0, 64, 77
1, 1495941, Note_off_c, 0, 45, 35
1, 1495945, Control_c, 0, 64, 83
1, 1495960, Control_c, 0, 64, 88
1, 1495960, Control_c, 0, 67, 114
1, 1495975, Control_c, 0, 64, 92
1, 1495975, Control_c, 0, 67, 86
1, 1495980, Note_on_c, 0, 52, 44
1, 1495990, Control_c, 0, 64, 96
1, 1495990, Control_c, 0, 67, 53
1, 1495997, Note_off_c, 0, 64, 40
1, 1496004, Control_c, 0, 64, 101
1, 1496004, Control_c, 0, 67, 19
1, 1496019, Control_c, 0, 64, 105
1, 1496019, Control_c, 0, 67, 0
1, 1496028, Note_off_c, 0, 73, 37
1, 1496034, Control_c, 0, 64, 110
1, 1496048, Control_c, 0, 64, 117
1, 1496056, Note_off_c, 0, 52, 60
1, 1496063, Control_c, 0, 64, 127
1, 1496130, Note_off_c, 0, 69, 41
1, 1496145, Note_on_c, 0, 61, 40
1, 1496201, Note_off_c, 0, 61, 57
1, 1496284, Note_on_c, 0, 52, 43
1, 1496378, Note_off_c, 0, 52, 40
1, 1496427, Control_c, 0, 64, 109
1, 1496442, Control_c, 0, 64, 85
1, 1496456, Control_c, 0, 64, 66
1, 1496457, Note_on_c, 0, 50, 32
1, 1496471, Control_c, 0, 64, 47
1, 1496481, Note_on_c, 0, 71, 51
1, 1496486, Control_c, 0, 64, 0
1, 1496501, Note_on_c, 0, 69, 39
1, 1496504, Note_on_c, 0, 66, 35
1, 1496516, Control_c, 0, 64, 40
1, 1496530, Control_c, 0, 64, 52
1, 1496545, Control_c, 0, 64, 61
1, 1496561, Control_c, 0, 64, 68
1, 1496576, Control_c, 0, 64, 76
1, 1496588, Note_off_c, 0, 66, 51
1, 1496591, Control_c, 0, 64, 84
1, 1496605, Control_c, 0, 64, 90
1, 1496607, Note_off_c, 0, 71, 54
1, 1496620, Control_c, 0, 64, 93
1, 1496624, Note_on_c, 0, 54, 46
1, 1496635, Control_c, 0, 64, 100
1, 1496650, Control_c, 0, 64, 127
1, 1496659, Note_off_c, 0, 69, 36
1, 1496753, Note_off_c, 0, 54, 51
1, 1496783, Control_c, 0, 64, 125
1, 1496797, Control_c, 0, 64, 85
1, 1496805, Note_on_c, 0, 59, 36
1, 1496811, Note_on_c, 0, 69, 53
1, 1496811, Note_on_c, 0, 71, 70
1, 1496812, Control_c, 0, 64, 68
1, 1496817, Note_on_c, 0, 66, 53
1, 1496827, Control_c, 0, 64, 58
1, 1496842, Control_c, 0, 64, 58
1, 1496857, Control_c, 0, 64, 63
1, 1496871, Control_c, 0, 64, 67
1, 1496886, Control_c, 0, 64, 75
1, 1496901, Control_c, 0, 64, 87
1, 1496907, Note_off_c, 0, 50, 52
1, 1496911, Note_off_c, 0, 69, 57
1, 1496916, Control_c, 0, 64, 105
1, 1496931, Control_c, 0, 64, 127
1, 1496938, Note_on_c, 0, 54, 50
1, 1496939, Note_off_c, 0, 66, 33
1, 1496991, Note_off_c, 0, 71, 34
1, 1497056, Note_off_c, 0, 54, 56
1, 1497101, Control_c, 0, 64, 91
1, 1497116, Control_c, 0, 64, 70
1, 1497121, Note_on_c, 0, 71, 67
1, 1497122, Note_on_c, 0, 52, 38
1, 1497131, Control_c, 0, 64, 56
1, 1497143, Note_on_c, 0, 64, 42
1, 1497145, Note_on_c, 0, 68, 52
1, 1497146, Control_c, 0, 64, 40
1, 1497160, Control_c, 0, 64, 47
1, 1497175, Control_c, 0, 64, 57
1, 1497184, Note_off_c, 0, 68, 62
1, 1497190, Control_c, 0, 64, 63
1, 1497205, Control_c, 0, 64, 70
1, 1497215, Note_off_c, 0, 64, 47
1, 1497220, Control_c, 0, 64, 82
1, 1497223, Note_off_c, 0, 59, 24
1, 1497235, Control_c, 0, 64, 101
1, 1497250, Control_c, 0, 64, 127
1, 1497265, Note_on_c, 0, 56, 50
1, 1497388, Note_off_c, 0, 56, 53
1, 1497423, Note_on_c, 0, 74, 75
1, 1497437, Note_off_c, 0, 71, 38
1, 1497440, Note_on_c, 0, 64, 52
1, 1497455, Note_on_c, 0, 68, 45
1, 1497459, Note_on_c, 0, 59, 31
1, 1497500, Note_off_c, 0, 68, 47
1, 1497548, Note_off_c, 0, 52, 40
1, 1497561, Note_off_c, 0, 59, 46
1, 1497564, Note_off_c, 0, 74, 49
1, 1497602, Note_on_c, 0, 56, 33
1, 1497637, Note_off_c, 0, 56, 50
1, 1497652, Note_off_c, 0, 64, 32
1, 1497666, Note_on_c, 0, 73, 72
1, 1497710, Note_off_c, 0, 73, 56
1, 1497739, Control_c, 0, 64, 122
1, 1497749, Note_on_c, 0, 73, 65
1, 1497750, Note_on_c, 0, 45, 53
1, 1497754, Control_c, 0, 64, 80
1, 1497768, Control_c, 0, 64, 62
1, 1497774, Note_on_c, 0, 64, 50
1, 1497778, Note_on_c, 0, 69, 52
1, 1497783, Control_c, 0, 64, 44
1, 1497798, Control_c, 0, 64, 46
1, 1497813, Control_c, 0, 64, 55
1, 1497835, Control_c, 0, 64, 62
1, 1497850, Control_c, 0, 64, 73
1, 1497862, Note_off_c, 0, 45, 58
1, 1497865, Control_c, 0, 64, 90
1, 1497880, Control_c, 0, 64, 127
1, 1497896, Note_off_c, 0, 64, 55
1, 1497935, Note_on_c, 0, 52, 49
1, 1497978, Note_off_c, 0, 69, 55
1, 1498035, Note_off_c, 0, 52, 61
1, 1498093, Note_on_c, 0, 61, 56
1, 1498155, Note_off_c, 0, 61, 52
1, 1498235, Note_on_c, 0, 52, 47
1, 1498371, Note_off_c, 0, 52, 36
1, 1498423, Note_off_c, 0, 73, 59
1, 1498429, Control_c, 0, 64, 88
1, 1498431, Note_on_c, 0, 49, 33
1, 1498441, Note_on_c, 0, 76, 68
1, 1498443, Control_c, 0, 64, 66
1, 1498458, Control_c, 0, 64, 50
1, 1498467, Note_on_c, 0, 69, 33
1, 1498470, Note_on_c, 0, 64, 28
1, 1498473, Control_c, 0, 64, 39
1, 1498488, Control_c, 0, 64, 44
1, 1498503, Control_c, 0, 64, 53
1, 1498518, Control_c, 0, 64, 62
1, 1498533, Control_c, 0, 64, 70
1, 1498548, Control_c, 0, 64, 84
1, 1498563, Control_c, 0, 64, 98
1, 1498585, Control_c, 0, 64, 106
1, 1498600, Control_c, 0, 64, 109
1, 1498600, Control_c, 0, 67, 20
1, 1498615, Control_c, 0, 67, 25
1, 1498620, Note_on_c, 0, 52, 39
1, 1498630, Control_c, 0, 67, 30
1, 1498639, Note_off_c, 0, 76, 61
1, 1498645, Control_c, 0, 67, 39
1, 1498657, Note_off_c, 0, 64, 40
1, 1498659, Control_c, 0, 67, 53
1, 1498674, Control_c, 0, 67, 72
1, 1498689, Control_c, 0, 67, 92
1, 1498704, Control_c, 0, 67, 111
1, 1498713, Note_off_c, 0, 52, 49
1, 1498719, Control_c, 0, 67, 127
1, 1498781, Note_on_c, 0, 57, 30
1, 1498809, Note_off_c, 0, 69, 0
1, 1498846, Poly_aftertouch_c, 0, 69, 127
1, 1498852, Note_off_c, 0, 49, 36
1, 1498861, Note_off_c, 0, 57, 37
1, 1498937, Note_on_c, 0, 74, 61
1, 1498938, Note_on_c, 0, 52, 35
1, 1498949, Poly_aftertouch_c, 0, 69, 0
1, 1499003, Note_on_c, 0, 73, 58
1, 1499015, Control_c, 0, 64, 106
1, 1499030, Control_c, 0, 64, 102
1, 1499033, Note_off_c, 0, 74, 38
1, 1499045, Control_c, 0, 64, 93
1, 1499047, Note_off_c, 0, 52, 36
1, 1499060, Control_c, 0, 64, 81
1, 1499074, Control_c, 0, 64, 68
1, 1499089, Control_c, 0, 64, 53
1, 1499091, Note_off_c, 0, 73, 55
1, 1499098, Note_on_c, 0, 69, 40
1, 1499104, Control_c, 0, 64, 0
1, 1499110, Note_on_c, 0, 50, 27
1, 1499116, Note_on_c, 0, 71, 49
1, 1499145, Note_on_c, 0, 66, 35
1, 1499163, Control_c, 0, 64, 45
1, 1499178, Control_c, 0, 64, 59
1, 1499193, Control_c, 0, 64, 65
1, 1499208, Control_c, 0, 64, 70
1, 1499223, Control_c, 0, 64, 74
1, 1499238, Control_c, 0, 64, 77
1, 1499253, Control_c, 0, 64, 79
1, 1499267, Control_c, 0, 64, 81
1, 1499268, Note_off_c, 0, 66, 35
1, 1499272, Note_off_c, 0, 71, 56
1, 1499276, Note_on_c, 0, 54, 32
1, 1499281, Control_c, 0, 64, 83
1, 1499296, Control_c, 0, 64, 86
1, 1499306, Note_off_c, 0, 69, 26
1, 1499311, Control_c, 0, 64, 89
1, 1499333, Control_c, 0, 64, 90
1, 1499348, Control_c, 0, 64, 91
1, 1499378, Control_c, 0, 64, 91
1, 1499393, Control_c, 0, 64, 86
1, 1499407, Control_c, 0, 64, 77
1, 1499410, Note_off_c, 0, 54, 36
1, 1499422, Control_c, 0, 64, 67
1, 1499425, Note_on_c, 0, 71, 53
1, 1499437, Control_c, 0, 64, 58
1, 1499446, Note_on_c, 0, 66, 36
1, 1499450, Note_on_c, 0, 69, 35
1, 1499452, Control_c, 0, 64, 55
1, 1499453, Note_on_c, 0, 59, 26
1, 1499467, Control_c, 0, 64, 59
1, 1499481, Control_c, 0, 64, 65
1, 1499496, Control_c, 0, 64, 70
1, 1499511, Control_c, 0, 64, 76
1, 1499525, Control_c, 0, 64, 81
1, 1499530, Note_off_c, 0, 69, 51
1, 1499540, Control_c, 0, 64, 83
1, 1499547, Note_off_c, 0, 50, 39
1, 1499555, Control_c, 0, 64, 84
1, 1499575, Note_off_c, 0, 66, 35
1, 1499581, Note_on_c, 0, 54, 28
1, 1499585, Control_c, 0, 64, 84
1, 1499614, Control_c, 0, 64, 85
1, 1499622, Note_off_c, 0, 71, 26
1, 1499627, Note_off_c, 0, 59, 0
1, 1499664, Poly_aftertouch_c, 0, 59, 127
1, 1499736, Note_off_c, 0, 54, 27
1, 1499764, Control_c, 0, 64, 81
1, 1499778, Control_c, 0, 64, 74
1, 1499784, Note_on_c, 0, 52, 29
1, 1499793, Control_c, 0, 64, 65
1, 1499798, Note_on_c, 0, 71, 41
1, 1499808, Control_c, 0, 64, 50
1, 1499817, Note_on_c, 0, 68, 29
1, 1499823, Control_c, 0, 64, 0
1, 1499831, Note_on_c, 0, 64, 12
1, 1499853, Control_c, 0, 64, 37
1, 1499868, Control_c, 0, 64, 49
1, 1499883, Control_c, 0, 64, 60
1, 1499897, Control_c, 0, 64, 67
1, 1499912, Control_c, 0, 64, 72
1, 1499927, Control_c, 0, 64, 77
1, 1499942, Control_c, 0, 64, 80
1, 1499944, Poly_aftertouch_c, 0, 59, 0
1, 1499957, Control_c, 0, 64, 80
1, 1499967, Note_off_c, 0, 68, 40
1, 1499969, Note_off_c, 0, 64, 37
1, 1499971, Control_c, 0, 64, 81
1, 1499986, Control_c, 0, 64, 81
1, 1499995, Note_on_c, 0, 56, 31
1, 1500001, Control_c, 0, 64, 82
1, 1500016, Control_c, 0, 64, 83
1, 1500031, Control_c, 0, 64, 84
1, 1500046, Control_c, 0, 64, 84
1, 1500061, Control_c, 0, 64, 85
1, 1500105, Note_off_c, 0, 56, 0
1, 1500112, Control_c, 0, 64, 85
1, 1500143, Poly_aftertouch_c, 0, 56, 127
1, 1500338, Note_on_c, 0, 74, 44
1, 1500356, Note_on_c, 0, 59, 14
1, 1500364, Control_c, 0, 64, 85
1, 1500370, Note_on_c, 0, 64, 30
1, 1500377, Note_on_c, 0, 68, 27
1, 1500379, Control_c, 0, 64, 83
1, 1500394, Control_c, 0, 64, 79
1, 1500403, Poly_aftertouch_c, 0, 56, 0
1, 1500409, Control_c, 0, 64, 73
1, 1500423, Control_c, 0, 64, 65
1, 1500438, Control_c, 0, 64, 50
1, 1500447, Note_off_c, 0, 71, 32
1, 1500453, Control_c, 0, 64, 0
1, 1500483, Control_c, 0, 64, 33
1, 1500497, Control_c, 0, 64, 39
1, 1500512, Control_c, 0, 64, 46
1, 1500527, Control_c, 0, 64, 54
1, 1500543, Control_c, 0, 64, 62
1, 1500558, Control_c, 0, 64, 67
1, 1500572, Control_c, 0, 64, 72
1, 1500587, Control_c, 0, 64, 76
1, 1500602, Control_c, 0, 64, 78
1, 1500617, Control_c, 0, 64, 79
1, 1500632, Control_c, 0, 64, 81
1, 1500646, Control_c, 0, 64, 83
1, 1500661, Control_c, 0, 64, 84
1, 1500676, Control_c, 0, 64, 86
1, 1500691, Control_c, 0, 64, 86
1, 1500706, Control_c, 0, 64, 87
1, 1500720, Control_c, 0, 64, 88
1, 1500735, Control_c, 0, 64, 89
1, 1500766, Control_c, 0, 64, 89
1, 1500780, Note_on_c, 0, 56, 18
1, 1500795, Control_c, 0, 64, 90
1, 1500833, Control_c, 0, 64, 90
1, 1500869, Note_off_c, 0, 52, 33
1, 1500873, Note_off_c, 0, 56, 33
1, 1500880, Note_off_c, 0, 59, 37
1, 1500980, Control_c, 0, 64, 91
1, 1501094, Note_on_c, 0, 73, 33
1, 1501177, Note_off_c, 0, 74, 32
1, 1501247, Control_c, 0, 64, 91
1, 1501288, Note_off_c, 0, 73, 39
1, 1501309, Note_off_c, 0, 64, 32
1, 1501321, Note_off_c, 0, 68, 35
1, 1501892, Control_c, 0, 64, 90
1, 1501907, Control_c, 0, 64, 81
1, 1501921, Control_c, 0, 64, 67
1, 1501936, Control_c, 0, 64, 33
1, 1501951, Control_c, 0, 64, 0
1, 1502448, Control_c, 0, 67, 124
1, 1502459, Note_on_c, 0, 57, 62
1, 1502463, Control_c, 0, 67, 73
1, 1502478, Control_c, 0, 64, 65
1, 1502478, Control_c, 0, 67, 0
1, 1502479, Note_off_c, 0, 57, 62
1, 1502493, Control_c, 0, 64, 93
1, 1502496, Note_on_c, 0, 61, 62
1, 1502508, Control_c, 0, 64, 127
1, 1502521, Note_off_c, 0, 61, 62
1, 1502565, Note_on_c, 0, 64, 63
1, 1502633, Note_off_c, 0, 64, 40
1, 1502644, Note_on_c, 0, 69, 67
1, 1502692, Note_on_c, 0, 57, 86
1, 1502702, Note_on_c, 0, 73, 70
1, 1502702, Note_off_c, 0, 69, 63
1, 1502711, Note_off_c, 0, 57, 72
1, 1502726, Note_off_c, 0, 73, 69
1, 1502814, Note_on_c, 0, 76, 45
1, 1502816, Note_on_c, 0, 74, 37
1, 1502848, Note_off_c, 0, 74, 54
1, 1502857, Note_off_c, 0, 76, 62
1, 1502865, Note_on_c, 0, 81, 64
1, 1502911, Note_on_c, 0, 57, 99
1, 1502917, Note_on_c, 0, 85, 76
1, 1502926, Note_off_c, 0, 57, 76
1, 1502926, Note_off_c, 0, 81, 63
1, 1502956, Poly_aftertouch_c, 0, 79, 0
1, 1502983, Note_on_c, 0, 81, 74
1, 1502985, Note_off_c, 0, 85, 62
1, 1503070, Note_on_c, 0, 85, 69
1, 1503077, Note_off_c, 0, 81, 62
1, 1503110, Control_c, 0, 64, 83
1, 1503117, Note_on_c, 0, 88, 90
1, 1503119, Note_off_c, 0, 85, 65
1, 1503124, Control_c, 0, 64, 64
1, 1503125, Note_on_c, 0, 61, 97
1, 1503139, Control_c, 0, 64, 58
1, 1503154, Control_c, 0, 64, 65
1, 1503168, Control_c, 0, 64, 79
1, 1503177, Note_off_c, 0, 88, 64
1, 1503183, Control_c, 0, 64, 127
1, 1503188, Note_on_c, 0, 85, 72
1, 1503238, Note_off_c, 0, 85, 62
1, 1503244, Note_on_c, 0, 88, 41
1, 1503268, Note_on_c, 0, 59, 72
1, 1503277, Note_off_c, 0, 88, 56
1, 1503286, Note_off_c, 0, 61, 58
1, 1503328, Note_off_c, 0, 59, 62
1, 1503331, Control_c, 0, 64, 76
1, 1503346, Control_c, 0, 64, 45
1, 1503348, Note_on_c, 0, 55, 81
1, 1503361, Control_c, 0, 64, 0
1, 1503373, Note_off_c, 0, 55, 68
1, 1503382, Note_on_c, 0, 61, 69
1, 1503390, Control_c, 0, 64, 43
1, 1503405, Control_c, 0, 64, 64
1, 1503409, Note_off_c, 0, 61, 64
1, 1503420, Control_c, 0, 64, 79
1, 1503435, Control_c, 0, 64, 105
1, 1503446, Note_on_c, 0, 64, 77
1, 1503450, Control_c, 0, 64, 127
1, 1503507, Note_on_c, 0, 69, 81
1, 1503508, Note_off_c, 0, 64, 62
1, 1503560, Note_on_c, 0, 73, 81
1, 1503563, Note_off_c, 0, 69, 62
1, 1503566, Note_on_c, 0, 55, 91
1, 1503578, Note_off_c, 0, 73, 72
1, 1503595, Note_off_c, 0, 55, 64
1, 1503632, Note_on_c, 0, 76, 89
1, 1503690, Note_on_c, 0, 81, 93
1, 1503716, Note_off_c, 0, 76, 62
1, 1503754, Note_on_c, 0, 85, 83
1, 1503765, Note_on_c, 0, 55, 98
1, 1503766, Note_off_c, 0, 81, 64
1, 1503787, Note_off_c, 0, 55, 69
1, 1503829, Note_on_c, 0, 81, 73
1, 1503833, Note_off_c, 0, 85, 64
1, 1503913, Note_on_c, 0, 85, 73
1, 1503929, Note_off_c, 0, 81, 64
1, 1503962, Control_c, 0, 64, 91
1, 1503966, Note_on_c, 0, 88, 91
1, 1503970, Note_off_c, 0, 85, 64
1, 1503976, Note_on_c, 0, 59, 101
1, 1503977, Control_c, 0, 64, 62
1, 1503991, Control_c, 0, 64, 0
1, 1504006, Control_c, 0, 64, 43
1, 1504021, Control_c, 0, 64, 63
1, 1504035, Note_off_c, 0, 88, 65
1, 1504036, Control_c, 0, 64, 81
1, 1504040, Note_on_c, 0, 85, 69
1, 1504051, Control_c, 0, 64, 127
1, 1504097, Note_on_c, 0, 88, 77
1, 1504114, Note_off_c, 0, 85, 61
1, 1504118, Note_on_c, 0, 57, 78
1, 1504124, Note_off_c, 0, 59, 61
1, 1504138, Note_off_c, 0, 88, 65
1, 1504154, Control_c, 0, 64, 88
1, 1504169, Note_off_c, 0, 57, 63
1, 1504169, Control_c, 0, 64, 60
1, 1504184, Control_c, 0, 64, 0
1, 1504189, Note_on_c, 0, 54, 85
1, 1504197, Note_on_c, 0, 74, 89
1, 1504219, Note_off_c, 0, 54, 63
1, 1504228, Control_c, 0, 64, 60
1, 1504243, Control_c, 0, 64, 77
1, 1504257, Note_on_c, 0, 78, 89
1, 1504258, Control_c, 0, 64, 111
1, 1504273, Control_c, 0, 64, 127
1, 1504287, Note_off_c, 0, 74, 64
1, 1504311, Note_on_c, 0, 81, 84
1, 1504323, Note_off_c, 0, 78, 67
1, 1504331, Note_off_c, 0, 81, 71
1, 1504389, Note_on_c, 0, 86, 97
1, 1504394, Note_on_c, 0, 59, 96
1, 1504451, Note_on_c, 0, 90, 90
1, 1504463, Note_off_c, 0, 86, 61
1, 1504506, Note_on_c, 0, 93, 82
1, 1504515, Note_off_c, 0, 90, 65
1, 1504527, Note_off_c, 0, 93, 70
1, 1504544, Note_on_c, 0, 57, 82
1, 1504546, Note_off_c, 0, 59, 64
1, 1504592, Control_c, 0, 64, 90
1, 1504607, Control_c, 0, 64, 59
1, 1504614, Note_on_c, 0, 55, 84
1, 1504618, Note_off_c, 0, 57, 66
1, 1504621, Control_c, 0, 64, 0
1, 1504636, Note_off_c, 0, 55, 71
1, 1504638, Note_on_c, 0, 74, 81
1, 1504651, Control_c, 0, 64, 52
1, 1504660, Note_off_c, 0, 74, 70
1, 1504666, Control_c, 0, 64, 72
1, 1504681, Control_c, 0, 64, 105
1, 1504690, Note_on_c, 0, 76, 94
1, 1504696, Control_c, 0, 64, 127
1, 1504758, Note_on_c, 0, 81, 98
1, 1504762, Note_off_c, 0, 76, 66
1, 1504792, Note_on_c, 0, 85, 82
1, 1504794, Note_off_c, 0, 81, 68
1, 1504809, Note_off_c, 0, 85, 74
1, 1504823, Note_on_c, 0, 59, 100
1, 1504852, Note_on_c, 0, 88, 98
1, 1504918, Note_on_c, 0, 93, 92
1, 1504922, Note_off_c, 0, 88, 63
1, 1504955, Note_off_c, 0, 93, 68
1, 1504974, Note_off_c, 0, 59, 64
1, 1504976, Note_on_c, 0, 57, 83
1, 1505007, Control_c, 0, 64, 94
1, 1505021, Control_c, 0, 64, 55
1, 1505031, Note_on_c, 0, 74, 103
1, 1505034, Note_on_c, 0, 54, 84
1, 1505036, Note_off_c, 0, 57, 65
1, 1505036, Control_c, 0, 64, 0
1, 1505056, Note_off_c, 0, 54, 70
1, 1505066, Control_c, 0, 64, 55
1, 1505080, Control_c, 0, 64, 75
1, 1505095, Control_c, 0, 64, 127
1, 1505104, Note_on_c, 0, 78, 91
1, 1505118, Note_off_c, 0, 74, 62
1, 1505158, Note_on_c, 0, 81, 87
1, 1505168, Note_off_c, 0, 78, 65
1, 1505177, Note_off_c, 0, 81, 71
1, 1505231, Note_on_c, 0, 86, 100
1, 1505238, Note_on_c, 0, 59, 102
1, 1505297, Note_on_c, 0, 90, 90
1, 1505316, Note_off_c, 0, 86, 61
1, 1505356, Note_on_c, 0, 93, 76
1, 1505367, Note_off_c, 0, 90, 64
1, 1505375, Note_off_c, 0, 93, 71
1, 1505398, Note_on_c, 0, 57, 86
1, 1505399, Note_off_c, 0, 59, 62
1, 1505415, Control_c, 0, 64, 93
1, 1505430, Control_c, 0, 64, 51
1, 1505444, Control_c, 0, 64, 0
1, 1505447, Note_on_c, 0, 55, 82
1, 1505450, Note_off_c, 0, 57, 66
1, 1505470, Note_on_c, 0, 73, 88
1, 1505474, Control_c, 0, 64, 55
1, 1505480, Note_off_c, 0, 55, 61
1, 1505489, Control_c, 0, 64, 81
1, 1505490, Note_off_c, 0, 73, 68
1, 1505504, Control_c, 0, 64, 127
1, 1505534, Note_on_c, 0, 76, 97
1, 1505586, Note_off_c, 0, 76, 68
1, 1505594, Note_on_c, 0, 81, 94
1, 1505632, Note_off_c, 0, 81, 67
1, 1505639, Note_on_c, 0, 85, 54
1, 1505639, Note_off_c, 0, 85, 127
1, 1505647, Note_on_c, 0, 59, 107
1, 1505689, Note_on_c, 0, 88, 82
1, 1505745, Note_on_c, 0, 93, 102
1, 1505754, Note_off_c, 0, 88, 65
1, 1505779, Note_on_c, 0, 57, 83
1, 1505781, Note_off_c, 0, 59, 60
1, 1505785, Note_off_c, 0, 93, 69
1, 1505797, Note_off_c, 0, 57, 73
1, 1505888, Control_c, 0, 64, 85
1, 1505903, Control_c, 0, 64, 57
1, 1505918, Control_c, 0, 64, 0
1, 1505920, Note_on_c, 0, 43, 78
1, 1505927, Note_on_c, 0, 31, 69
1, 1505936, Note_on_c, 0, 62, 75
1, 1505948, Control_c, 0, 64, 54
1, 1505963, Control_c, 0, 64, 70
1, 1505978, Control_c, 0, 64, 92
1, 1505993, Control_c, 0, 64, 127
1, 1506004, Note_off_c, 0, 62, 60
1, 1506011, Note_on_c, 0, 65, 80
1, 1506023, Note_off_c, 0, 43, 58
1, 1506034, Note_off_c, 0, 31, 53
1, 1506086, Note_on_c, 0, 64, 79
1, 1506115, Note_off_c, 0, 65, 62
1, 1506117, Note_off_c, 0, 64, 64
1, 1506150, Control_c, 0, 64, 87
1, 1506163, Note_on_c, 0, 65, 88
1, 1506165, Control_c, 0, 64, 63
1, 1506167, Note_on_c, 0, 41, 101
1, 1506180, Control_c, 0, 64, 53
1, 1506181, Note_on_c, 0, 29, 81
1, 1506194, Control_c, 0, 64, 62
1, 1506207, Note_on_c, 0, 30, 40
1, 1506209, Control_c, 0, 64, 70
1, 1506214, Note_off_c, 0, 29, 57
1, 1506224, Control_c, 0, 64, 101
1, 1506226, Note_on_c, 0, 69, 80
1, 1506227, Note_off_c, 0, 65, 64
1, 1506239, Control_c, 0, 64, 127
1, 1506246, Note_off_c, 0, 41, 60
1, 1506251, Note_off_c, 0, 30, 42
1, 1506291, Note_on_c, 0, 68, 86
1, 1506323, Note_off_c, 0, 69, 62
1, 1506342, Note_off_c, 0, 68, 66
1, 1506370, Note_on_c, 0, 41, 109
1, 1506377, Note_on_c, 0, 69, 90
1, 1506391, Note_on_c, 0, 31, 58
1, 1506403, Note_on_c, 0, 29, 47
1, 1506403, Note_off_c, 0, 29, 127
1, 1506407, Note_off_c, 0, 41, 64
1, 1506423, Note_off_c, 0, 31, 55
1, 1506441, Poly_aftertouch_c, 0, 29, 0
1, 1506442, Note_on_c, 0, 74, 90
1, 1506460, Note_off_c, 0, 69, 57
1, 1506517, Note_on_c, 0, 73, 83
1, 1506544, Note_off_c, 0, 74, 60
1, 1506560, Note_off_c, 0, 73, 65
1, 1506576, Note_on_c, 0, 46, 105
1, 1506587, Note_on_c, 0, 34, 84
1, 1506596, Note_on_c, 0, 74, 89
1, 1506616, Note_off_c, 0, 34, 64
1, 1506616, Note_off_c, 0, 46, 61
1, 1506641, Note_off_c, 0, 74, 65
1, 1506663, Poly_aftertouch_c, 0, 37, 127
1, 1506681, Note_on_c, 0, 86, 76
1, 1506706, Poly_aftertouch_c, 0, 37, 0
1, 1506740, Note_on_c, 0, 45, 91
1, 1506750, Note_on_c, 0, 85, 80
1, 1506760, Note_on_c, 0, 33, 57
1, 1506760, Note_off_c, 0, 86, 62
1, 1506765, Note_off_c, 0, 45, 70
1, 1506782, Note_on_c, 0, 38, 39
1, 1506786, Control_c, 0, 64, 100
1, 1506791, Note_off_c, 0, 33, 56
1, 1506801, Control_c, 0, 64, 69
1, 1506821, Note_off_c, 0, 38, 49
1, 1506822, Note_on_c, 0, 86, 92
1, 1506824, Note_off_c, 0, 85, 65
1, 1506824, Control_c, 0, 64, 0
1, 1506829, Note_on_c, 0, 46, 105
1, 1506833, Note_on_c, 0, 34, 86
1, 1506912, Control_c, 0, 64, 59
1, 1506914, Note_on_c, 0, 82, 84
1, 1506927, Control_c, 0, 64, 84
1, 1506935, Note_off_c, 0, 86, 52
1, 1506943, Control_c, 0, 64, 127
1, 1506982, Note_on_c, 0, 77, 82
1, 1507021, Note_off_c, 0, 82, 61
1, 1507039, Poly_aftertouch_c, 0, 38, 127
1, 1507048, Note_off_c, 0, 77, 64
1, 1507056, Note_on_c, 0, 74, 85
1, 1507060, Note_off_c, 0, 34, 60
1, 1507075, Note_off_c, 0, 46, 59
1, 1507087, Note_off_c, 0, 74, 63
1, 1507096, Poly_aftertouch_c, 0, 38, 0
1, 1507141, Note_on_c, 0, 70, 78
1, 1507203, Note_on_c, 0, 65, 83
1, 1507253, Note_off_c, 0, 70, 0
1, 1507256, Note_off_c, 0, 65, 63
1, 1507276, Note_on_c, 0, 62, 86
1, 1507297, Poly_aftertouch_c, 0, 68, 127
1, 1507328, Poly_aftertouch_c, 0, 70, 0
1, 1507328, Poly_aftertouch_c, 0, 68, 0
1, 1507348, Note_on_c, 0, 65, 88
1, 1507383, Note_off_c, 0, 62, 60
1, 1507411, Note_on_c, 0, 70, 88
1, 1507441, Note_off_c, 0, 65, 63
1, 1507483, Note_on_c, 0, 74, 89
1, 1507486, Note_off_c, 0, 70, 64
1, 1507567, Note_on_c, 0, 70, 77
1, 1507586, Note_off_c, 0, 74, 56
1, 1507627, Note_on_c, 0, 65, 75
1, 1507646, Control_c, 0, 64, 78
1, 1507659, Note_off_c, 0, 70, 56
1, 1507660, Control_c, 0, 64, 53
1, 1507675, Control_c, 0, 64, 0
1, 1507695, Note_on_c, 0, 41, 48
1, 1507705, Note_on_c, 0, 29, 51
1, 1507709, Note_off_c, 0, 65, 60
1, 1507719, Note_on_c, 0, 62, 72
1, 1507736, Control_c, 0, 64, 55
1, 1507751, Control_c, 0, 64, 69
1, 1507765, Control_c, 0, 64, 80
1, 1507780, Control_c, 0, 64, 97
1, 1507784, Note_off_c, 0, 62, 58
1, 1507787, Note_on_c, 0, 65, 80
1, 1507795, Control_c, 0, 64, 127
1, 1507831, Note_off_c, 0, 29, 60
1, 1507838, Note_off_c, 0, 41, 53
1, 1507856, Note_on_c, 0, 64, 75
1, 1507882, Note_off_c, 0, 65, 64
1, 1507889, Note_off_c, 0, 64, 63
1, 1507924, Note_on_c, 0, 41, 102
1, 1507924, Note_on_c, 0, 65, 87
1, 1507937, Note_on_c, 0, 29, 81
1, 1507972, Note_off_c, 0, 29, 63
1, 1507993, Note_off_c, 0, 41, 59
1, 1507996, Note_on_c, 0, 69, 86
1, 1508016, Note_off_c, 0, 65, 62
1, 1508061, Note_on_c, 0, 68, 85
1, 1508091, Note_off_c, 0, 69, 63
1, 1508106, Note_off_c, 0, 68, 67
1, 1508130, Note_on_c, 0, 41, 103
1, 1508137, Note_on_c, 0, 69, 89
1, 1508146, Note_on_c, 0, 29, 71
1, 1508181, Note_off_c, 0, 41, 63
1, 1508182, Note_off_c, 0, 29, 63
1, 1508209, Note_on_c, 0, 74, 96
1, 1508225, Note_off_c, 0, 69, 62
1, 1508273, Note_on_c, 0, 73, 86
1, 1508297, Note_off_c, 0, 74, 63
1, 1508320, Note_off_c, 0, 73, 65
1, 1508344, Note_on_c, 0, 46, 96
1, 1508354, Note_on_c, 0, 34, 80
1, 1508357, Note_on_c, 0, 74, 89
1, 1508391, Note_off_c, 0, 46, 62
1, 1508396, Note_off_c, 0, 34, 59
1, 1508401, Note_off_c, 0, 74, 64
1, 1508434, Note_on_c, 0, 86, 83
1, 1508499, Control_c, 0, 64, 109
1, 1508502, Note_on_c, 0, 45, 87
1, 1508511, Note_on_c, 0, 85, 81
1, 1508511, Note_on_c, 0, 33, 68
1, 1508514, Control_c, 0, 64, 69
1, 1508519, Note_off_c, 0, 86, 62
1, 1508529, Control_c, 0, 64, 41
1, 1508530, Note_off_c, 0, 45, 67
1, 1508541, Note_off_c, 0, 33, 57
1, 1508544, Control_c, 0, 64, 0
1, 1508550, Note_on_c, 0, 38, 25
1, 1508579, Note_off_c, 0, 85, 66
1, 1508584, Note_on_c, 0, 86, 92
1, 1508589, Note_on_c, 0, 46, 107
1, 1508589, Note_off_c, 0, 38, 0
1, 1508593, Note_on_c, 0, 34, 83
1, 1508634, Control_c, 0, 64, 44
1, 1508649, Control_c, 0, 64, 71
1, 1508663, Control_c, 0, 64, 127
1, 1508669, Note_on_c, 0, 82, 93
1, 1508681, Poly_aftertouch_c, 0, 35, 127
1, 1508687, Note_on_c, 0, 35, 3
1, 1508689, Poly_aftertouch_c, 0, 38, 0
1, 1508691, Note_off_c, 0, 86, 59
1, 1508704, Poly_aftertouch_c, 0, 44, 0
1, 1508726, Poly_aftertouch_c, 0, 38, 127
1, 1508747, Note_on_c, 0, 77, 81
1, 1508763, Note_off_c, 0, 35, 33
1, 1508783, Note_off_c, 0, 82, 62
1, 1508806, Note_off_c, 0, 34, 57
1, 1508810, Note_off_c, 0, 77, 63
1, 1508811, Note_on_c, 0, 74, 88
1, 1508831, Poly_aftertouch_c, 0, 38, 0
1, 1508851, Note_off_c, 0, 74, 60
1, 1508908, Note_on_c, 0, 70, 77
1, 1508979, Note_on_c, 0, 67, 53
1, 1508980, Note_on_c, 0, 65, 70
1, 1509013, Note_off_c, 0, 67, 65
1, 1509021, Note_off_c, 0, 70, 50
1, 1509026, Note_off_c, 0, 65, 61
1, 1509032, Note_on_c, 0, 62, 79
1, 1509082, Note_off_c, 0, 46, 59
1, 1509103, Note_on_c, 0, 65, 80
1, 1509125, Note_off_c, 0, 62, 58
1, 1509146, Note_on_c, 0, 70, 67
1, 1509152, Note_off_c, 0, 65, 65
1, 1509160, Control_c, 0, 64, 76
1, 1509165, Note_off_c, 0, 70, 67
1, 1509175, Control_c, 0, 64, 40
1, 1509189, Control_c, 0, 64, 0
1, 1509196, Note_on_c, 0, 47, 114
1, 1509204, Note_on_c, 0, 74, 103
1, 1509206, Note_on_c, 0, 65, 96
1, 1509215, Note_on_c, 0, 35, 67
1, 1509219, Control_c, 0, 64, 50
1, 1509227, Note_on_c, 0, 68, 62
1, 1509234, Control_c, 0, 64, 73
1, 1509234, Note_off_c, 0, 65, 68
1, 1509239, Note_on_c, 0, 67, 44
1, 1509243, Note_off_c, 0, 35, 56
1, 1509245, Note_off_c, 0, 74, 66
1, 1509247, Note_off_c, 0, 47, 55
1, 1509248, Control_c, 0, 64, 111
1, 1509249, Note_off_c, 0, 68, 39
1, 1509263, Control_c, 0, 64, 127
1, 1509266, Note_off_c, 0, 67, 53
1, 1509368, Control_c, 0, 64, 84
1, 1509383, Control_c, 0, 64, 62
1, 1509398, Control_c, 0, 64, 0
1, 1509471, Note_on_c, 0, 48, 54
1, 1509478, Note_on_c, 0, 36, 50
1, 1509480, Note_on_c, 0, 69, 68
1, 1509501, Control_c, 0, 64, 41
1, 1509516, Control_c, 0, 64, 61
1, 1509531, Control_c, 0, 64, 74
1, 1509534, Note_off_c, 0, 69, 61
1, 1509539, Note_on_c, 0, 72, 74
1, 1509546, Control_c, 0, 64, 90
1, 1509561, Control_c, 0, 64, 127
1, 1509605, Note_on_c, 0, 71, 77
1, 1509622, Note_off_c, 0, 48, 37
1, 1509630, Note_off_c, 0, 72, 61
1, 1509644, Note_off_c, 0, 71, 62
1, 1509647, Note_off_c, 0, 36, 39
1, 1509684, Note_on_c, 0, 72, 76
1, 1509689, Note_on_c, 0, 48, 96
1, 1509694, Note_on_c, 0, 36, 65
1, 1509746, Note_on_c, 0, 76, 85
1, 1509749, Note_off_c, 0, 36, 59
1, 1509749, Note_off_c, 0, 72, 64
1, 1509761, Note_off_c, 0, 48, 58
1, 1509818, Note_on_c, 0, 75, 84
1, 1509850, Note_off_c, 0, 76, 63
1, 1509872, Note_off_c, 0, 75, 66
1, 1509904, Note_on_c, 0, 48, 108
1, 1509909, Note_on_c, 0, 76, 92
1, 1509917, Note_on_c, 0, 36, 78
1, 1509948, Note_off_c, 0, 36, 63
1, 1509966, Note_off_c, 0, 48, 64
1, 1509971, Note_on_c, 0, 81, 88
1, 1509990, Note_off_c, 0, 76, 61
1, 1510039, Note_on_c, 0, 80, 88
1, 1510060, Note_off_c, 0, 81, 64
1, 1510079, Note_off_c, 0, 80, 65
1, 1510117, Note_on_c, 0, 81, 87
1, 1510119, Note_on_c, 0, 53, 98
1, 1510133, Note_on_c, 0, 41, 77
1, 1510162, Note_off_c, 0, 41, 61
1, 1510163, Note_off_c, 0, 53, 58
1, 1510166, Note_off_c, 0, 81, 64
1, 1510195, Note_on_c, 0, 93, 79
1, 1510249, Control_c, 0, 64, 88
1, 1510264, Control_c, 0, 64, 64
1, 1510267, Note_on_c, 0, 92, 78
1, 1510267, Note_on_c, 0, 52, 90
1, 1510278, Control_c, 0, 64, 0
1, 1510279, Note_on_c, 0, 40, 55
1, 1510284, Note_off_c, 0, 93, 64
1, 1510293, Note_off_c, 0, 52, 66
1, 1510309, Note_off_c, 0, 40, 38
1, 1510323, Control_c, 0, 67, 19
1, 1510341, Note_on_c, 0, 93, 89
1, 1510346, Note_on_c, 0, 53, 102
1, 1510348, Note_on_c, 0, 45, 69
1, 1510352, Note_on_c, 0, 41, 74
1, 1510352, Note_on_c, 0, 48, 84
1, 1510360, Note_off_c, 0, 92, 65
1, 1510367, Control_c, 0, 64, 46
1, 1510382, Control_c, 0, 64, 75
1, 1510397, Control_c, 0, 64, 127
1, 1510412, Control_c, 0, 67, 0
1, 1510417, Note_on_c, 0, 89, 99
1, 1510440, Poly_aftertouch_c, 0, 42, 127
1, 1510450, Note_off_c, 0, 93, 62
1, 1510470, Poly_aftertouch_c, 0, 42, 0
1, 1510487, Note_off_c, 0, 41, 55
1, 1510495, Note_on_c, 0, 84, 93
1, 1510540, Note_off_c, 0, 89, 63
1, 1510541, Note_off_c, 0, 53, 55
1, 1510564, Note_on_c, 0, 81, 93
1, 1510574, Note_off_c, 0, 84, 62
1, 1510580, Note_off_c, 0, 45, 59
1, 1510601, Note_off_c, 0, 48, 61
1, 1510602, Note_off_c, 0, 81, 65
1, 1510646, Note_on_c, 0, 77, 85
1, 1510708, Note_on_c, 0, 72, 80
1, 1510769, Note_on_c, 0, 69, 85
1, 1510774, Note_off_c, 0, 72, 62
1, 1510786, Note_off_c, 0, 77, 62
1, 1510842, Note_off_c, 0, 69, 66
1, 1510843, Note_on_c, 0, 72, 83
1, 1510902, Note_on_c, 0, 77, 83
1, 1510942, Note_off_c, 0, 72, 64
1, 1510969, Note_on_c, 0, 81, 94
1, 1510975, Note_off_c, 0, 77, 64
1, 1511043, Note_on_c, 0, 77, 85
1, 1511069, Note_off_c, 0, 81, 60
1, 1511117, Note_on_c, 0, 72, 69
1, 1511149, Note_off_c, 0, 77, 60
1, 1511161, Control_c, 0, 64, 82
1, 1511175, Control_c, 0, 64, 56
1, 1511189, Note_off_c, 0, 72, 63
1, 1511190, Control_c, 0, 64, 0
1, 1511198, Note_on_c, 0, 69, 70
1, 1511203, Note_on_c, 0, 48, 59
1, 1511204, Note_on_c, 0, 36, 63
1, 1511250, Control_c, 0, 64, 49
1, 1511260, Note_off_c, 0, 69, 60
1, 1511265, Note_on_c, 0, 72, 73
1, 1511265, Control_c, 0, 64, 66
1, 1511280, Control_c, 0, 64, 78
1, 1511295, Control_c, 0, 64, 104
1, 1511317, Control_c, 0, 64, 127
1, 1511333, Note_off_c, 0, 48, 55
1, 1511343, Note_off_c, 0, 36, 54
1, 1511345, Note_on_c, 0, 71, 76
1, 1511369, Note_off_c, 0, 72, 61
1, 1511381, Note_off_c, 0, 71, 63
1, 1511419, Note_on_c, 0, 72, 79
1, 1511424, Note_on_c, 0, 48, 99
1, 1511429, Note_on_c, 0, 36, 78
1, 1511486, Note_off_c, 0, 36, 57
1, 1511487, Note_on_c, 0, 76, 88
1, 1511494, Note_off_c, 0, 48, 59
1, 1511501, Note_off_c, 0, 72, 61
1, 1511552, Note_on_c, 0, 75, 83
1, 1511581, Note_off_c, 0, 76, 64
1, 1511603, Note_off_c, 0, 75, 66
1, 1511620, Note_on_c, 0, 48, 105
1, 1511625, Note_on_c, 0, 36, 81
1, 1511632, Note_on_c, 0, 76, 89
1, 1511649, Note_off_c, 0, 36, 66
1, 1511677, Note_off_c, 0, 48, 62
1, 1511697, Poly_aftertouch_c, 0, 42, 127
1, 1511703, Note_on_c, 0, 81, 91
1, 1511716, Note_off_c, 0, 76, 61
1, 1511731, Poly_aftertouch_c, 0, 42, 0
1, 1511767, Note_on_c, 0, 80, 87
1, 1511787, Note_off_c, 0, 81, 64
1, 1511802, Note_off_c, 0, 80, 67
1, 1511836, Note_on_c, 0, 53, 100
1, 1511841, Note_on_c, 0, 81, 93
1, 1511842, Note_on_c, 0, 41, 77
1, 1511876, Note_off_c, 0, 41, 62
1, 1511876, Note_off_c, 0, 53, 58
1, 1511888, Note_off_c, 0, 81, 65
1, 1511917, Note_on_c, 0, 93, 85
1, 1511978, Note_on_c, 0, 52, 86
1, 1511990, Note_on_c, 0, 92, 86
1, 1511994, Note_on_c, 0, 40, 48
1, 1511999, Control_c, 0, 64, 96
1, 1512007, Note_off_c, 0, 52, 62
1, 1512007, Note_off_c, 0, 93, 64
1, 1512014, Control_c, 0, 64, 64
1, 1512021, Note_off_c, 0, 40, 55
1, 1512029, Control_c, 0, 64, 0
1, 1512033, Note_on_c, 0, 45, 14
1, 1512066, Note_on_c, 0, 93, 88
1, 1512071, Note_on_c, 0, 53, 103
1, 1512075, Note_on_c, 0, 48, 78
1, 1512076, Note_on_c, 0, 41, 79
1, 1512084, Note_off_c, 0, 92, 67
1, 1512110, Control_c, 0, 64, 47
1, 1512125, Control_c, 0, 64, 76
1, 1512139, Control_c, 0, 64, 127
1, 1512144, Note_on_c, 0, 89, 95
1, 1512177, Note_off_c, 0, 93, 62
1, 1512224, Note_on_c, 0, 84, 94
1, 1512236, Note_off_c, 0, 41, 56
1, 1512269, Note_off_c, 0, 89, 63
1, 1512288, Note_on_c, 0, 81, 96
1, 1512293, Note_off_c, 0, 84, 65
1, 1512328, Note_off_c, 0, 81, 62
1, 1512338, Note_off_c, 0, 53, 53
1, 1512364, Note_on_c, 0, 77, 82
1, 1512434, Note_on_c, 0, 72, 86
1, 1512471, Note_off_c, 0, 48, 57
1, 1512476, Note_off_c, 0, 77, 60
1, 1512500, Note_on_c, 0, 69, 89
1, 1512503, Note_off_c, 0, 45, 18
1, 1512504, Note_off_c, 0, 72, 62
1, 1512574, Note_on_c, 0, 72, 79
1, 1512580, Note_off_c, 0, 69, 64
1, 1512625, Note_on_c, 0, 77, 83
1, 1512640, Note_off_c, 0, 72, 65
1, 1512666, Note_off_c, 0, 77, 67
1, 1512667, Poly_aftertouch_c, 0, 48, 127
1, 1512695, Note_on_c, 0, 56, 94
1, 1512700, Note_on_c, 0, 72, 99
1, 1512709, Note_on_c, 0, 44, 78
1, 1512739, Note_off_c, 0, 56, 64
1, 1512750, Note_off_c, 0, 44, 56
1, 1512759, Note_off_c, 0, 72, 57
1, 1512777, Control_c, 0, 64, 83
1, 1512783, Poly_aftertouch_c, 0, 48, 0
1, 1512789, Note_on_c, 0, 84, 92
1, 1512792, Control_c, 0, 64, 59
1, 1512814, Control_c, 0, 64, 0
1, 1512870, Note_on_c, 0, 83, 78
1, 1512878, Note_on_c, 0, 55, 63
1, 1512893, Note_on_c, 0, 43, 32
1, 1512905, Note_off_c, 0, 55, 64
1, 1512911, Note_off_c, 0, 84, 61
1, 1512934, Note_off_c, 0, 43, 46
1, 1512941, Note_on_c, 0, 72, 86
1, 1512948, Control_c, 0, 64, 61
1, 1512954, Note_on_c, 0, 74, 63
1, 1512956, Note_on_c, 0, 56, 109
1, 1512959, Note_off_c, 0, 83, 61
1, 1512962, Control_c, 0, 64, 91
1, 1512965, Note_on_c, 0, 44, 76
1, 1512977, Control_c, 0, 64, 127
1, 1512989, Note_off_c, 0, 44, 67
1, 1512996, Note_off_c, 0, 56, 67
1, 1513001, Note_on_c, 0, 84, 90
1, 1513003, Note_on_c, 0, 46, 27
1, 1513003, Note_off_c, 0, 74, 30
1, 1513004, Note_off_c, 0, 72, 60
1, 1513042, Note_off_c, 0, 46, 51
1, 1513080, Note_off_c, 0, 84, 63
1, 1513082, Note_on_c, 0, 80, 85
1, 1513149, Note_on_c, 0, 78, 75
1, 1513164, Note_off_c, 0, 78, 68
1, 1513169, Note_on_c, 0, 77, 76
1, 1513202, Note_off_c, 0, 80, 62
1, 1513224, Note_on_c, 0, 72, 81
1, 1513227, Note_off_c, 0, 77, 65
1, 1513268, Note_off_c, 0, 72, 61
1, 1513317, Note_on_c, 0, 68, 76
1, 1513371, Note_off_c, 0, 68, 63
1, 1513372, Note_on_c, 0, 65, 90
1, 1513448, Note_on_c, 0, 68, 80
1, 1513472, Note_off_c, 0, 65, 61
1, 1513490, Note_on_c, 0, 72, 76
1, 1513499, Note_off_c, 0, 68, 65
1, 1513510, Note_off_c, 0, 72, 70
1, 1513516, Note_on_c, 0, 70, 30
1, 1513558, Note_off_c, 0, 70, 48
1, 1513580, Note_on_c, 0, 64, 97
1, 1513584, Note_on_c, 0, 61, 91
1, 1513588, Note_on_c, 0, 56, 80
1, 1513602, Note_off_c, 0, 64, 67
1, 1513603, Note_on_c, 0, 75, 81
1, 1513605, Note_off_c, 0, 61, 67
1, 1513607, Note_on_c, 0, 73, 81
1, 1513612, Note_off_c, 0, 56, 68
1, 1513627, Note_off_c, 0, 73, 68
1, 1513656, Note_off_c, 0, 75, 62
1, 1513676, Note_on_c, 0, 85, 78
1, 1513697, Control_c, 0, 64, 78
1, 1513711, Control_c, 0, 64, 52
1, 1513719, Note_on_c, 0, 86, 46
1, 1513726, Control_c, 0, 64, 0
1, 1513748, Note_off_c, 0, 86, 52
1, 1513766, Note_on_c, 0, 63, 97
1, 1513785, Note_off_c, 0, 63, 69
1, 1513787, Note_off_c, 0, 85, 70
1, 1513797, Note_on_c, 0, 61, 43
1, 1513808, Note_on_c, 0, 73, 93
1, 1513809, Note_on_c, 0, 56, 29
1, 1513815, Control_c, 0, 64, 43
1, 1513829, Control_c, 0, 64, 73
1, 1513832, Note_on_c, 0, 64, 96
1, 1513832, Note_off_c, 0, 56, 0
1, 1513832, Note_on_c, 0, 56, 8
1, 1513836, Note_off_c, 0, 61, 0
1, 1513836, Note_on_c, 0, 61, 63
1, 1513844, Control_c, 0, 64, 127
1, 1513856, Poly_aftertouch_c, 0, 58, 0
1, 1513864, Note_off_c, 0, 73, 63
1, 1513866, Note_off_c, 0, 64, 62
1, 1513875, Note_on_c, 0, 85, 82
1, 1513875, Note_off_c, 0, 56, 61
1, 1513877, Note_off_c, 0, 61, 61
1, 1513949, Note_on_c, 0, 80, 84
1, 1513994, Note_off_c, 0, 85, 62
1, 1514014, Note_on_c, 0, 76, 81
1, 1514014, Note_off_c, 0, 80, 65
1, 1514047, Note_off_c, 0, 76, 62
1, 1514103, Note_on_c, 0, 73, 83
1, 1514166, Note_on_c, 0, 68, 80
1, 1514219, Note_off_c, 0, 68, 59
1, 1514229, Note_on_c, 0, 64, 82
1, 1514250, Note_off_c, 0, 73, 61
1, 1514301, Note_on_c, 0, 68, 73
1, 1514309, Note_off_c, 0, 64, 56
1, 1514358, Note_off_c, 0, 68, 65
1, 1514369, Note_on_c, 0, 72, 45
1, 1514393, Note_off_c, 0, 72, 55
1, 1514437, Note_on_c, 0, 76, 105
1, 1514441, Poly_aftertouch_c, 0, 75, 0
1, 1514453, Note_on_c, 0, 65, 89
1, 1514456, Note_on_c, 0, 59, 72
1, 1514457, Note_on_c, 0, 56, 74
1, 1514461, Note_on_c, 0, 64, 70
1, 1514473, Note_off_c, 0, 65, 71
1, 1514479, Note_off_c, 0, 64, 68
1, 1514485, Note_off_c, 0, 76, 62
1, 1514490, Note_off_c, 0, 56, 58
1, 1514500, Note_off_c, 0, 59, 54
1, 1514520, Control_c, 0, 64, 81
1, 1514521, Note_on_c, 0, 86, 69
1, 1514534, Control_c, 0, 64, 58
1, 1514535, Note_on_c, 0, 88, 57
1, 1514549, Control_c, 0, 64, 0
1, 1514559, Note_off_c, 0, 88, 38
1, 1514584, Note_on_c, 0, 85, 75
1, 1514630, Note_off_c, 0, 86, 59
1, 1514631, Note_on_c, 0, 59, 63
1, 1514634, Note_on_c, 0, 64, 63
1, 1514634, Note_on_c, 0, 65, 68
1, 1514645, Note_on_c, 0, 56, 36
1, 1514653, Note_off_c, 0, 64, 62
1, 1514653, Note_off_c, 0, 65, 64
1, 1514657, Note_on_c, 0, 74, 100
1, 1514658, Note_off_c, 0, 59, 67
1, 1514661, Note_off_c, 0, 85, 65
1, 1514667, Control_c, 0, 64, 33
1, 1514673, Note_off_c, 0, 56, 54
1, 1514682, Control_c, 0, 64, 75
1, 1514697, Note_on_c, 0, 64, 103
1, 1514697, Control_c, 0, 64, 127
1, 1514700, Note_on_c, 0, 59, 81
1, 1514721, Note_on_c, 0, 86, 92
1, 1514724, Note_off_c, 0, 74, 55
1, 1514726, Note_on_c, 0, 56, 34
1, 1514726, Note_off_c, 0, 64, 64
1, 1514741, Note_off_c, 0, 59, 65
1, 1514762, Note_off_c, 0, 56, 47
1, 1514785, Note_on_c, 0, 83, 84
1, 1514816, Note_off_c, 0, 86, 61
1, 1514853, Note_on_c, 0, 80, 79
1, 1514891, Note_off_c, 0, 83, 63
1, 1514919, Note_off_c, 0, 80, 64
1, 1514923, Note_on_c, 0, 74, 82
1, 1514947, Note_off_c, 0, 74, 68
1, 1515004, Note_on_c, 0, 71, 74
1, 1515083, Note_off_c, 0, 71, 62
1, 1515093, Note_on_c, 0, 69, 62
1, 1515140, Note_off_c, 0, 69, 60
1, 1515156, Note_on_c, 0, 71, 63
1, 1515162, Note_on_c, 0, 72, 51
1, 1515194, Note_on_c, 0, 74, 76
1, 1515194, Note_off_c, 0, 71, 66
1, 1515198, Note_off_c, 0, 72, 65
1, 1515219, Note_off_c, 0, 74, 66
1, 1515280, Note_on_c, 0, 63, 99
1, 1515290, Note_on_c, 0, 75, 93
1, 1515298, Note_on_c, 0, 59, 68
1, 1515311, Note_on_c, 0, 56, 33
1, 1515311, Note_off_c, 0, 56, 127
1, 1515318, Note_off_c, 0, 63, 57
1, 1515334, Note_off_c, 0, 59, 52
1, 1515347, Note_off_c, 0, 75, 56
1, 1515357, Control_c, 0, 64, 87
1, 1515365, Note_on_c, 0, 87, 80
1, 1515372, Control_c, 0, 64, 63
1, 1515387, Control_c, 0, 64, 0
1, 1515428, Note_on_c, 0, 86, 80
1, 1515437, Note_on_c, 0, 64, 87
1, 1515457, Note_off_c, 0, 64, 71
1, 1515459, Note_on_c, 0, 56, 37
1, 1515459, Note_on_c, 0, 59, 58
1, 1515469, Note_off_c, 0, 87, 59
1, 1515485, Note_off_c, 0, 59, 64
1, 1515490, Note_off_c, 0, 56, 51
1, 1515490, Control_c, 0, 64, 59
1, 1515504, Note_on_c, 0, 63, 106
1, 1515504, Note_on_c, 0, 75, 93
1, 1515505, Control_c, 0, 64, 86
1, 1515520, Control_c, 0, 64, 127
1, 1515520, Note_on_c, 0, 56, 57
1, 1515524, Note_off_c, 0, 86, 61
1, 1515525, Note_on_c, 0, 59, 60
1, 1515553, Note_off_c, 0, 56, 63
1, 1515556, Note_off_c, 0, 63, 58
1, 1515561, Note_off_c, 0, 75, 62
1, 1515563, Note_off_c, 0, 59, 56
1, 1515571, Note_on_c, 0, 87, 89
1, 1515657, Note_on_c, 0, 83, 73
1, 1515681, Note_off_c, 0, 87, 62
1, 1515704, Note_on_c, 0, 62, 100
1, 1515713, Note_on_c, 0, 59, 77
1, 1515713, Note_on_c, 0, 76, 101
1, 1515719, Note_on_c, 0, 56, 70
1, 1515728, Control_c, 0, 64, 105
1, 1515743, Control_c, 0, 64, 69
1, 1515745, Note_off_c, 0, 59, 55
1, 1515746, Note_off_c, 0, 62, 56
1, 1515748, Note_off_c, 0, 56, 64
1, 1515754, Note_on_c, 0, 82, 9
1, 1515758, Control_c, 0, 64, 34
1, 1515773, Control_c, 0, 64, 0
1, 1515779, Note_off_c, 0, 76, 58
1, 1515803, Note_off_c, 0, 83, 26
1, 1515806, Note_on_c, 0, 88, 84
1, 1515820, Note_off_c, 0, 82, 25
1, 1515867, Note_on_c, 0, 87, 86
1, 1515868, Note_on_c, 0, 64, 85
1, 1515876, Note_on_c, 0, 59, 71
1, 1515891, Note_off_c, 0, 64, 68
1, 1515906, Note_off_c, 0, 88, 57
1, 1515907, Note_off_c, 0, 59, 63
1, 1515914, Control_c, 0, 64, 71
1, 1515929, Control_c, 0, 64, 127
1, 1515936, Note_on_c, 0, 76, 102
1, 1515939, Note_on_c, 0, 56, 27
1, 1515940, Note_on_c, 0, 59, 72
1, 1515943, Note_on_c, 0, 62, 93
1, 1515954, Note_on_c, 0, 82, 42
1, 1515958, Note_off_c, 0, 87, 58
1, 1515961, Poly_aftertouch_c, 0, 85, 127
1, 1515975, Note_off_c, 0, 59, 63
1, 1515986, Note_off_c, 0, 62, 60
1, 1515994, Note_off_c, 0, 56, 62
1, 1515995, Poly_aftertouch_c, 0, 85, 0
1, 1515995, Note_off_c, 0, 82, 47
1, 1515997, Note_off_c, 0, 76, 61
1, 1516000, Note_on_c, 0, 88, 95
1, 1516074, Note_on_c, 0, 83, 83
1, 1516089, Note_off_c, 0, 88, 65
1, 1516101, Note_off_c, 0, 83, 64
1, 1516148, Note_on_c, 0, 80, 97
1, 1516149, Note_on_c, 0, 62, 98
1, 1516153, Note_on_c, 0, 53, 85
1, 1516154, Note_on_c, 0, 59, 80
1, 1516179, Note_off_c, 0, 62, 62
1, 1516181, Control_c, 0, 64, 105
1, 1516187, Note_off_c, 0, 53, 56
1, 1516196, Control_c, 0, 64, 70
1, 1516205, Note_off_c, 0, 59, 58
1, 1516209, Note_on_c, 0, 92, 84
1, 1516211, Control_c, 0, 64, 42
1, 1516211, Note_off_c, 0, 80, 64
1, 1516225, Control_c, 0, 64, 0
1, 1516282, Note_off_c, 0, 92, 66
1, 1516286, Note_on_c, 0, 86, 70
1, 1516306, Note_off_c, 0, 86, 67
1, 1516352, Note_on_c, 0, 61, 103
1, 1516358, Note_on_c, 0, 81, 105
1, 1516358, Note_on_c, 0, 93, 108
1, 1516358, Control_c, 0, 64, 61
1, 1516360, Note_on_c, 0, 57, 74
1, 1516363, Note_on_c, 0, 85, 97
1, 1516363, Note_on_c, 0, 54, 73
1, 1516373, Control_c, 0, 64, 127
1, 1516376, Note_off_c, 0, 81, 67
1, 1516382, Note_on_c, 0, 90, 60
1, 1516386, Note_off_c, 0, 90, 56
1, 1516391, Note_off_c, 0, 93, 67
1, 1516393, Note_off_c, 0, 61, 59
1, 1516394, Note_off_c, 0, 57, 65
1, 1516396, Note_off_c, 0, 54, 65
1, 1516405, Note_off_c, 0, 85, 65
1, 1516461, Poly_aftertouch_c, 0, 83, 0
1, 1516648, Control_c, 0, 64, 91
1, 1516663, Control_c, 0, 64, 70
1, 1516678, Control_c, 0, 64, 50
1, 1516693, Control_c, 0, 64, 0
1, 1516819, Note_on_c, 0, 62, 97
1, 1516822, Note_on_c, 0, 78, 106
1, 1516825, Note_on_c, 0, 90, 98
1, 1516826, Note_on_c, 0, 86, 95
1, 1516826, Control_c, 0, 64, 52
1, 1516830, Note_on_c, 0, 54, 79
1, 1516831, Note_on_c, 0, 57, 75
1, 1516832, Note_on_c, 0, 50, 62
1, 1516841, Control_c, 0, 64, 93
1, 1516852, Note_off_c, 0, 62, 63
1, 1516855, Note_off_c, 0, 50, 60
1, 1516855, Control_c, 0, 64, 127
1, 1516857, Note_off_c, 0, 78, 66
1, 1516859, Note_off_c, 0, 57, 66
1, 1516865, Note_off_c, 0, 90, 65
1, 1516872, Note_off_c, 0, 86, 65
1, 1516876, Note_off_c, 0, 54, 64
1, 1517122, Control_c, 0, 64, 96
1, 1517137, Control_c, 0, 64, 71
1, 1517152, Control_c, 0, 64, 48
1, 1517166, Control_c, 0, 64, 0
1, 1517323, Note_on_c, 0, 61, 102
1, 1517327, Note_on_c, 0, 76, 100
1, 1517327, Note_on_c, 0, 85, 106
1, 1517330, Note_on_c, 0, 81, 96
1, 1517335, Note_on_c, 0, 52, 58
1, 1517335, Note_on_c, 0, 57, 79
1, 1517338, Control_c, 0, 64, 80
1, 1517348, Note_on_c, 0, 82, 66
1, 1517353, Control_c, 0, 64, 127
1, 1517357, Note_off_c, 0, 76, 64
1, 1517358, Note_off_c, 0, 52, 58
1, 1517359, Note_off_c, 0, 57, 69
1, 1517364, Note_off_c, 0, 61, 62
1, 1517366, Note_off_c, 0, 82, 64
1, 1517374, Note_off_c, 0, 85, 60
1, 1517375, Note_off_c, 0, 81, 65
1, 1517678, Control_c, 0, 64, 82
1, 1517693, Control_c, 0, 64, 66
1, 1517708, Control_c, 0, 64, 51
1, 1517722, Control_c, 0, 64, 0
1, 1517854, Note_on_c, 0, 52, 70
1, 1517855, Note_on_c, 0, 76, 107
1, 1517856, Note_on_c, 0, 64, 102
1, 1517857, Note_on_c, 0, 80, 92
1, 1517857, Note_on_c, 0, 88, 103
1, 1517859, Note_on_c, 0, 83, 95
1, 1517866, Note_on_c, 0, 56, 77
1, 1517866, Note_on_c, 0, 59, 78
1, 1517871, Control_c, 0, 64, 87
1, 1517886, Control_c, 0, 64, 127
1, 1517995, Poly_aftertouch_c, 0, 54, 0
1, 1518164, Note_off_c, 0, 52, 51
1, 1518171, Note_off_c, 0, 64, 50
1, 1518208, Note_off_c, 0, 88, 57
1, 1518212, Note_off_c, 0, 56, 51
1, 1518220, Note_off_c, 0, 59, 57
1, 1518243, Note_off_c, 0, 76, 49
1, 1518265, Note_off_c, 0, 80, 52
1, 1518276, Note_off_c, 0, 83, 41
1, 1518515, Control_c, 0, 64, 106
1, 1518530, Control_c, 0, 64, 98
1, 1518545, Control_c, 0, 64, 91
1, 1518560, Control_c, 0, 64, 87
1, 1518575, Control_c, 0, 64, 82
1, 1518590, Control_c, 0, 64, 78
1, 1518605, Control_c, 0, 64, 75
1, 1518619, Control_c, 0, 64, 71
1, 1518634, Control_c, 0, 64, 67
1, 1518649, Control_c, 0, 64, 63
1, 1518664, Control_c, 0, 64, 60
1, 1518678, Control_c, 0, 64, 59
1, 1518678, Control_c, 0, 67, 21
1, 1518693, Control_c, 0, 67, 23
1, 1518708, Control_c, 0, 67, 25
1, 1518723, Control_c, 0, 64, 58
1, 1518738, Control_c, 0, 64, 58
1, 1518738, Control_c, 0, 67, 28
1, 1518753, Control_c, 0, 64, 57
1, 1518753, Control_c, 0, 67, 31
1, 1518768, Control_c, 0, 64, 57
1, 1518768, Control_c, 0, 67, 35
1, 1518783, Control_c, 0, 64, 56
1, 1518783, Control_c, 0, 67, 44
1, 1518805, Control_c, 0, 64, 55
1, 1518805, Control_c, 0, 67, 55
1, 1518819, Control_c, 0, 64, 54
1, 1518819, Control_c, 0, 67, 67
1, 1518834, Control_c, 0, 64, 51
1, 1518834, Control_c, 0, 67, 79
1, 1518849, Control_c, 0, 64, 49
1, 1518849, Control_c, 0, 67, 89
1, 1518864, Control_c, 0, 64, 45
1, 1518864, Control_c, 0, 67, 99
1, 1518879, Control_c, 0, 64, 39
1, 1518879, Control_c, 0, 67, 107
1, 1518894, Control_c, 0, 64, 0
1, 1518894, Control_c, 0, 67, 116
1, 1518909, Control_c, 0, 67, 123
1, 1518924, Control_c, 0, 67, 127
1, 1519028, Control_c, 0, 64, 38
1, 1519043, Control_c, 0, 64, 49
1, 1519058, Control_c, 0, 64, 58
1, 1519073, Control_c, 0, 64, 63
1, 1519088, Control_c, 0, 64, 66
1, 1519103, Control_c, 0, 64, 70
1, 1519117, Control_c, 0, 64, 76
1, 1519132, Control_c, 0, 64, 83
1, 1519147, Control_c, 0, 64, 92
1, 1519162, Control_c, 0, 64, 103
1, 1519176, Control_c, 0, 64, 127
1, 1519410, Note_on_c, 0, 45, 29
1, 1519574, Note_on_c, 0, 52, 28
1, 1519586, Note_off_c, 0, 45, 33
1, 1519650, Note_off_c, 0, 52, 50
1, 1519699, Note_on_c, 0, 57, 37
1, 1519761, Note_off_c, 0, 57, 50
1, 1519800, Note_on_c, 0, 52, 39
1, 1519813, Note_on_c, 0, 61, 52
1, 1519851, Note_off_c, 0, 61, 63
1, 1519857, Note_off_c, 0, 52, 48
1, 1519877, Note_on_c, 0, 69, 57
1, 1519931, Note_on_c, 0, 76, 79
1, 1519934, Note_on_c, 0, 45, 35
1, 1519955, Control_c, 0, 67, 123
1, 1519970, Control_c, 0, 67, 95
1, 1519985, Control_c, 0, 67, 57
1, 1519999, Control_c, 0, 67, 0
1, 1520006, Note_off_c, 0, 45, 41
1, 1520029, Note_off_c, 0, 76, 61
1, 1520056, Note_on_c, 0, 52, 44
1, 1520114, Note_off_c, 0, 52, 56
1, 1520159, Note_off_c, 0, 69, 0
1, 1520160, Note_on_c, 0, 57, 50
1, 1520196, Poly_aftertouch_c, 0, 69, 127
1, 1520214, Note_off_c, 0, 57, 53
1, 1520256, Note_on_c, 0, 52, 46
1, 1520270, Note_on_c, 0, 74, 66
1, 1520273, Poly_aftertouch_c, 0, 69, 0
1, 1520326, Note_off_c, 0, 52, 49
1, 1520327, Note_on_c, 0, 73, 65
1, 1520334, Note_off_c, 0, 74, 44
1, 1520362, Control_c, 0, 64, 99
1, 1520377, Control_c, 0, 64, 71
1, 1520392, Control_c, 0, 64, 50
1, 1520395, Note_off_c, 0, 73, 60
1, 1520399, Note_on_c, 0, 45, 40
1, 1520404, Note_on_c, 0, 71, 62
1, 1520406, Note_on_c, 0, 69, 47
1, 1520406, Control_c, 0, 64, 0
1, 1520427, Note_on_c, 0, 63, 41
1, 1520450, Control_c, 0, 64, 35
1, 1520456, Note_off_c, 0, 45, 49
1, 1520465, Control_c, 0, 64, 59
1, 1520480, Control_c, 0, 64, 69
1, 1520495, Control_c, 0, 64, 80
1, 1520510, Control_c, 0, 64, 102
1, 1520526, Control_c, 0, 64, 127
1, 1520543, Note_on_c, 0, 54, 51
1, 1520553, Note_off_c, 0, 71, 62
1, 1520554, Note_off_c, 0, 63, 37
1, 1520599, Note_off_c, 0, 54, 55
1, 1520648, Note_off_c, 0, 69, 0
1, 1520664, Note_on_c, 0, 69, 33
1, 1520664, Note_on_c, 0, 71, 79
1, 1520669, Note_on_c, 0, 59, 40
1, 1520691, Note_on_c, 0, 63, 39
1, 1520712, Note_off_c, 0, 69, 62
1, 1520733, Note_off_c, 0, 59, 37
1, 1520738, Note_off_c, 0, 63, 47
1, 1520775, Note_on_c, 0, 54, 50
1, 1520817, Note_off_c, 0, 71, 53
1, 1520828, Note_off_c, 0, 54, 59
1, 1520896, Control_c, 0, 64, 88
1, 1520905, Note_on_c, 0, 45, 48
1, 1520911, Control_c, 0, 64, 69
1, 1520926, Control_c, 0, 64, 54
1, 1520932, Note_on_c, 0, 71, 62
1, 1520940, Control_c, 0, 64, 38
1, 1520942, Note_on_c, 0, 62, 48
1, 1520944, Note_on_c, 0, 68, 51
1, 1520955, Control_c, 0, 64, 43
1, 1520970, Control_c, 0, 64, 57
1, 1520986, Control_c, 0, 64, 64
1, 1521001, Control_c, 0, 64, 73
1, 1521015, Control_c, 0, 64, 87
1, 1521015, Control_c, 0, 67, 20
1, 1521030, Control_c, 0, 64, 127
1, 1521030, Control_c, 0, 67, 24
1, 1521052, Control_c, 0, 67, 29
1, 1521061, Note_on_c, 0, 52, 42
1, 1521067, Control_c, 0, 67, 38
1, 1521079, Note_off_c, 0, 62, 36
1, 1521082, Control_c, 0, 67, 51
1, 1521097, Control_c, 0, 67, 67
1, 1521112, Control_c, 0, 67, 82
1, 1521127, Control_c, 0, 67, 94
1, 1521141, Control_c, 0, 67, 106
1, 1521143, Note_off_c, 0, 52, 55
1, 1521156, Control_c, 0, 67, 114
1, 1521171, Control_c, 0, 67, 123
1, 1521178, Note_off_c, 0, 71, 51
1, 1521183, Note_on_c, 0, 74, 76
1, 1521186, Control_c, 0, 67, 127
1, 1521192, Note_on_c, 0, 56, 30
1, 1521196, Note_off_c, 0, 45, 26
1, 1521216, Note_off_c, 0, 68, 58
1, 1521242, Note_off_c, 0, 56, 47
1, 1521294, Note_on_c, 0, 52, 42
1, 1521337, Note_off_c, 0, 74, 53
1, 1521359, Note_on_c, 0, 73, 67
1, 1521360, Note_off_c, 0, 52, 53
1, 1521394, Control_c, 0, 64, 105
1, 1521409, Control_c, 0, 64, 75
1, 1521423, Note_on_c, 0, 45, 39
1, 1521424, Control_c, 0, 64, 59
1, 1521438, Control_c, 0, 64, 0
1, 1521440, Note_on_c, 0, 69, 53
1, 1521443, Note_off_c, 0, 73, 61
1, 1521454, Note_on_c, 0, 61, 47
1, 1521468, Control_c, 0, 64, 48
1, 1521483, Control_c, 0, 64, 62
1, 1521497, Control_c, 0, 64, 72
1, 1521512, Control_c, 0, 64, 89
1, 1521527, Control_c, 0, 64, 127
1, 1521529, Note_off_c, 0, 61, 61
1, 1521556, Note_off_c, 0, 45, 28
1, 1521568, Note_on_c, 0, 52, 41
1, 1521601, Control_c, 0, 67, 100
1, 1521616, Control_c, 0, 67, 55
1, 1521619, Note_off_c, 0, 69, 48
1, 1521620, Note_off_c, 0, 52, 58
1, 1521631, Control_c, 0, 67, 0
1, 1521668, Note_on_c, 0, 57, 52
1, 1521724, Note_off_c, 0, 57, 51
1, 1521748, Note_on_c, 0, 52, 50
1, 1521798, Note_on_c, 0, 61, 62
1, 1521818, Note_off_c, 0, 52, 54
1, 1521829, Note_off_c, 0, 61, 65
1, 1521854, Note_on_c, 0, 69, 68
1, 1521898, Note_on_c, 0, 45, 39
1, 1521919, Note_on_c, 0, 76, 88
1, 1521991, Note_off_c, 0, 45, 54
1, 1521997, Note_off_c, 0, 69, 37
1, 1522026, Note_on_c, 0, 52, 48
1, 1522053, Note_off_c, 0, 76, 58
1, 1522088, Note_off_c, 0, 52, 58
1, 1522125, Note_on_c, 0, 57, 62
1, 1522170, Note_off_c, 0, 57, 56
1, 1522217, Note_on_c, 0, 52, 55
1, 1522250, Note_on_c, 0, 74, 74
1, 1522273, Poly_aftertouch_c, 0, 69, 0
1, 1522288, Note_off_c, 0, 52, 43
1, 1522297, Note_on_c, 0, 73, 73
1, 1522319, Control_c, 0, 64, 103
1, 1522334, Control_c, 0, 64, 75
1, 1522349, Control_c, 0, 64, 55
1, 1522350, Note_off_c, 0, 74, 60
1, 1522364, Control_c, 0, 64, 0
1, 1522371, Note_on_c, 0, 45, 42
1, 1522382, Note_off_c, 0, 73, 57
1, 1522384, Note_on_c, 0, 71, 68
1, 1522392, Note_on_c, 0, 69, 55
1, 1522402, Note_on_c, 0, 62, 56
1, 1522408, Control_c, 0, 64, 43
1, 1522423, Control_c, 0, 64, 61
1, 1522433, Note_off_c, 0, 45, 54
1, 1522438, Control_c, 0, 64, 71
1, 1522453, Control_c, 0, 64, 84
1, 1522468, Control_c, 0, 64, 101
1, 1522471, Note_off_c, 0, 62, 56
1, 1522483, Control_c, 0, 64, 127
1, 1522498, Note_on_c, 0, 53, 48
1, 1522525, Note_off_c, 0, 71, 59
1, 1522599, Note_off_c, 0, 53, 51
1, 1522636, Note_off_c, 0, 69, 0
1, 1522642, Note_on_c, 0, 59, 37
1, 1522660, Note_on_c, 0, 69, 20
1, 1522660, Note_on_c, 0, 71, 76
1, 1522682, Note_on_c, 0, 62, 52
1, 1522701, Note_off_c, 0, 59, 43
1, 1522734, Note_off_c, 0, 62, 50
1, 1522734, Note_off_c, 0, 69, 60
1, 1522760, Note_on_c, 0, 53, 54
1, 1522810, Note_off_c, 0, 71, 56
1, 1522850, Note_off_c, 0, 53, 53
1, 1522897, Poly_aftertouch_c, 0, 72, 127
1, 1522901, Note_on_c, 0, 45, 43
1, 1522926, Poly_aftertouch_c, 0, 72, 0
1, 1522928, Note_on_c, 0, 71, 66
1, 1522935, Control_c, 0, 64, 84
1, 1522941, Note_on_c, 0, 62, 44
1, 1522945, Note_on_c, 0, 68, 51
1, 1522950, Control_c, 0, 64, 65
1, 1522965, Control_c, 0, 64, 0
1, 1523009, Control_c, 0, 64, 55
1, 1523024, Control_c, 0, 64, 68
1, 1523039, Control_c, 0, 64, 81
1, 1523049, Note_on_c, 0, 52, 46
1, 1523054, Control_c, 0, 64, 113
1, 1523068, Control_c, 0, 64, 127
1, 1523087, Note_off_c, 0, 62, 37
1, 1523150, Note_off_c, 0, 52, 53
1, 1523166, Note_off_c, 0, 71, 57
1, 1523170, Note_on_c, 0, 74, 75
1, 1523189, Note_on_c, 0, 56, 40
1, 1523213, Note_off_c, 0, 68, 42
1, 1523238, Note_off_c, 0, 45, 20
1, 1523255, Note_off_c, 0, 56, 51
1, 1523306, Note_on_c, 0, 52, 42
1, 1523335, Note_off_c, 0, 74, 49
1, 1523363, Note_on_c, 0, 73, 56
1, 1523371, Note_off_c, 0, 52, 51
1, 1523416, Control_c, 0, 64, 89
1, 1523429, Note_on_c, 0, 45, 41
1, 1523431, Control_c, 0, 64, 68
1, 1523434, Note_off_c, 0, 73, 60
1, 1523446, Control_c, 0, 64, 45
1, 1523451, Note_on_c, 0, 69, 53
1, 1523460, Control_c, 0, 64, 0
1, 1523472, Note_on_c, 0, 61, 35
1, 1523505, Control_c, 0, 64, 51
1, 1523520, Control_c, 0, 64, 64
1, 1523534, Control_c, 0, 64, 74
1, 1523549, Control_c, 0, 64, 92
1, 1523564, Control_c, 0, 64, 127
1, 1523589, Note_off_c, 0, 61, 54
1, 1523595, Note_on_c, 0, 52, 40
1, 1523604, Note_off_c, 0, 45, 39
1, 1523650, Note_off_c, 0, 52, 56
1, 1523664, Note_off_c, 0, 69, 34
1, 1523705, Note_on_c, 0, 57, 48
1, 1523808, Note_on_c, 0, 52, 37
1, 1523808, Note_off_c, 0, 57, 38
1, 1523888, Note_off_c, 0, 52, 47
1, 1523920, Control_c, 0, 64, 104
1, 1523935, Control_c, 0, 64, 78
1, 1523945, Note_on_c, 0, 71, 54
1, 1523947, Note_on_c, 0, 45, 32
1, 1523949, Note_on_c, 0, 62, 46
1, 1523950, Control_c, 0, 64, 59
1, 1523964, Control_c, 0, 64, 35
1, 1523977, Note_on_c, 0, 68, 39
1, 1523979, Control_c, 0, 64, 36
1, 1523979, Control_c, 0, 67, 21
1, 1523994, Control_c, 0, 64, 48
1, 1523994, Control_c, 0, 67, 26
1, 1524009, Control_c, 0, 64, 58
1, 1524009, Control_c, 0, 67, 33
1, 1524024, Control_c, 0, 64, 65
1, 1524024, Control_c, 0, 67, 45
1, 1524046, Control_c, 0, 64, 74
1, 1524046, Control_c, 0, 67, 63
1, 1524061, Control_c, 0, 64, 86
1, 1524061, Control_c, 0, 67, 81
1, 1524075, Note_on_c, 0, 52, 42
1, 1524076, Control_c, 0, 64, 95
1, 1524076, Control_c, 0, 67, 99
1, 1524089, Note_off_c, 0, 62, 51
1, 1524090, Control_c, 0, 64, 101
1, 1524090, Control_c, 0, 67, 116
1, 1524105, Control_c, 0, 64, 105
1, 1524105, Control_c, 0, 67, 127
1, 1524116, Note_off_c, 0, 45, 21
1, 1524135, Control_c, 0, 64, 107
1, 1524162, Note_off_c, 0, 52, 51
1, 1524226, Note_on_c, 0, 74, 65
1, 1524226, Note_off_c, 0, 71, 56
1, 1524234, Note_on_c, 0, 56, 34
1, 1524254, Note_off_c, 0, 68, 44
1, 1524273, Note_off_c, 0, 56, 49
1, 1524356, Note_on_c, 0, 52, 27
1, 1524389, Note_off_c, 0, 74, 49
1, 1524409, Note_on_c, 0, 73, 60
1, 1524410, Note_off_c, 0, 52, 44
1, 1524431, Control_c, 0, 64, 105
1, 1524446, Control_c, 0, 64, 90
1, 1524461, Control_c, 0, 64, 74
1, 1524476, Control_c, 0, 64, 60
1, 1524486, Note_on_c, 0, 69, 48
1, 1524490, Note_off_c, 0, 73, 61
1, 1524490, Control_c, 0, 64, 0
1, 1524511, Note_on_c, 0, 45, 19
1, 1524518, Note_on_c, 0, 61, 29
1, 1524536, Control_c, 0, 64, 44
1, 1524551, Control_c, 0, 64, 62
1, 1524566, Control_c, 0, 64, 70
1, 1524569, Note_off_c, 0, 45, 44
1, 1524580, Control_c, 0, 64, 78
1, 1524595, Control_c, 0, 64, 86
1, 1524610, Control_c, 0, 64, 90
1, 1524617, Note_off_c, 0, 61, 52
1, 1524625, Control_c, 0, 64, 91
1, 1524637, Note_on_c, 0, 52, 29
1, 1524640, Control_c, 0, 64, 92
1, 1524654, Control_c, 0, 64, 93
1, 1524669, Control_c, 0, 64, 93
1, 1524677, Note_off_c, 0, 69, 35
1, 1524683, Note_off_c, 0, 52, 46
1, 1524684, Control_c, 0, 64, 94
1, 1524699, Control_c, 0, 64, 94
1, 1524713, Control_c, 0, 64, 95
1, 1524728, Control_c, 0, 64, 95
1, 1524740, Note_on_c, 0, 57, 36
1, 1524758, Control_c, 0, 64, 96
1, 1524815, Note_off_c, 0, 57, 40
1, 1524833, Note_on_c, 0, 52, 39
1, 1524915, Note_off_c, 0, 52, 45
1, 1524928, Control_c, 0, 64, 95
1, 1524943, Control_c, 0, 64, 91
1, 1524958, Control_c, 0, 64, 79
1, 1524973, Control_c, 0, 64, 68
1, 1524987, Control_c, 0, 64, 55
1, 1524991, Note_on_c, 0, 45, 34
1, 1525002, Control_c, 0, 64, 0
1, 1525005, Note_on_c, 0, 71, 47
1, 1525012, Note_on_c, 0, 62, 40
1, 1525032, Control_c, 0, 64, 37
1, 1525035, Note_on_c, 0, 68, 28
1, 1525047, Control_c, 0, 64, 54
1, 1525061, Control_c, 0, 64, 63
1, 1525076, Control_c, 0, 64, 70
1, 1525091, Control_c, 0, 64, 78
1, 1525106, Control_c, 0, 64, 86
1, 1525121, Control_c, 0, 64, 90
1, 1525136, Control_c, 0, 64, 93
1, 1525142, Note_on_c, 0, 52, 39
1, 1525151, Control_c, 0, 64, 94
1, 1525166, Control_c, 0, 64, 95
1, 1525196, Note_off_c, 0, 62, 40
1, 1525225, Control_c, 0, 64, 95
1, 1525262, Note_off_c, 0, 52, 37
1, 1525274, Note_on_c, 0, 74, 55
1, 1525284, Control_c, 0, 64, 96
1, 1525291, Note_off_c, 0, 71, 36
1, 1525302, Note_on_c, 0, 56, 32
1, 1525335, Note_off_c, 0, 68, 43
1, 1525368, Note_off_c, 0, 56, 40
1, 1525370, Note_off_c, 0, 45, 13
1, 1525404, Note_on_c, 0, 52, 40
1, 1525434, Note_off_c, 0, 74, 49
1, 1525456, Note_on_c, 0, 73, 56
1, 1525475, Note_off_c, 0, 52, 49
1, 1525477, Control_c, 0, 64, 92
1, 1525492, Control_c, 0, 64, 83
1, 1525507, Control_c, 0, 64, 72
1, 1525522, Control_c, 0, 64, 60
1, 1525544, Control_c, 0, 64, 0
1, 1525544, Note_off_c, 0, 73, 56
1, 1525552, Note_on_c, 0, 69, 44
1, 1525568, Note_on_c, 0, 45, 28
1, 1525571, Note_on_c, 0, 61, 35
1, 1525589, Control_c, 0, 64, 34
1, 1525604, Control_c, 0, 64, 52
1, 1525618, Control_c, 0, 64, 63
1, 1525633, Control_c, 0, 64, 70
1, 1525648, Control_c, 0, 64, 77
1, 1525652, Note_off_c, 0, 45, 38
1, 1525662, Control_c, 0, 64, 82
1, 1525677, Control_c, 0, 64, 84
1, 1525692, Control_c, 0, 64, 86
1, 1525693, Note_on_c, 0, 52, 34
1, 1525702, Note_off_c, 0, 61, 49
1, 1525707, Control_c, 0, 64, 86
1, 1525722, Control_c, 0, 64, 87
1, 1525736, Control_c, 0, 64, 88
1, 1525751, Control_c, 0, 64, 88
1, 1525762, Note_off_c, 0, 52, 41
1, 1525766, Note_off_c, 0, 69, 34
1, 1525766, Control_c, 0, 64, 90
1, 1525781, Control_c, 0, 64, 91
1, 1525796, Control_c, 0, 64, 93
1, 1525810, Control_c, 0, 64, 93
1, 1525822, Note_on_c, 0, 57, 39
1, 1525869, Control_c, 0, 64, 94
1, 1525915, Note_on_c, 0, 52, 36
1, 1525930, Note_off_c, 0, 57, 29
1, 1526030, Note_off_c, 0, 52, 27
1, 1526048, Control_c, 0, 64, 93
1, 1526062, Control_c, 0, 64, 91
1, 1526077, Control_c, 0, 64, 86
1, 1526092, Control_c, 0, 64, 80
1, 1526101, Note_on_c, 0, 45, 30
1, 1526108, Control_c, 0, 64, 72
1, 1526115, Note_on_c, 0, 71, 41
1, 1526123, Control_c, 0, 64, 65
1, 1526127, Note_on_c, 0, 62, 30
1, 1526138, Control_c, 0, 64, 52
1, 1526145, Note_on_c, 0, 68, 31
1, 1526152, Control_c, 0, 64, 40
1, 1526167, Control_c, 0, 64, 42
1, 1526182, Control_c, 0, 64, 50
1, 1526197, Control_c, 0, 64, 57
1, 1526212, Control_c, 0, 64, 63
1, 1526216, Note_off_c, 0, 45, 36
1, 1526227, Control_c, 0, 64, 68
1, 1526242, Control_c, 0, 64, 73
1, 1526257, Control_c, 0, 64, 78
1, 1526264, Note_on_c, 0, 53, 34
1, 1526272, Control_c, 0, 64, 82
1, 1526293, Control_c, 0, 64, 87
1, 1526308, Control_c, 0, 64, 91
1, 1526323, Control_c, 0, 64, 95
1, 1526328, Note_off_c, 0, 62, 39
1, 1526338, Control_c, 0, 64, 99
1, 1526353, Control_c, 0, 64, 101
1, 1526367, Control_c, 0, 64, 104
1, 1526382, Control_c, 0, 64, 109
1, 1526397, Control_c, 0, 64, 113
1, 1526412, Control_c, 0, 64, 115
1, 1526442, Control_c, 0, 64, 119
1, 1526457, Control_c, 0, 64, 125
1, 1526471, Control_c, 0, 64, 127
1, 1526486, Note_on_c, 0, 56, 33
1, 1526500, Note_off_c, 0, 53, 34
1, 1526507, Note_on_c, 0, 74, 46
1, 1526558, Note_off_c, 0, 71, 34
1, 1526644, Note_off_c, 0, 68, 40
1, 1526688, Note_on_c, 0, 53, 32
1, 1526724, Note_off_c, 0, 56, 35
1, 1526749, Note_off_c, 0, 53, 45
1, 1526804, Note_on_c, 0, 73, 43
1, 1526815, Note_off_c, 0, 74, 32
1, 1526916, Control_c, 0, 64, 120
1, 1526931, Control_c, 0, 64, 112
1, 1526946, Control_c, 0, 64, 101
1, 1526961, Control_c, 0, 64, 90
1, 1526975, Control_c, 0, 64, 77
1, 1526990, Control_c, 0, 64, 65
1, 1527005, Control_c, 0, 64, 49
1, 1527011, Note_off_c, 0, 73, 42
1, 1527020, Control_c, 0, 64, 0
1, 1527081, Note_on_c, 0, 69, 35
1, 1527086, Note_on_c, 0, 61, 34
1, 1527087, Control_c, 0, 64, 35
1, 1527091, Note_on_c, 0, 45, 23
1, 1527100, Note_on_c, 0, 52, 6
1, 1527101, Note_on_c, 0, 57, 19
1, 1527102, Control_c, 0, 64, 52
1, 1527116, Control_c, 0, 64, 64
1, 1527131, Control_c, 0, 64, 74
1, 1527146, Control_c, 0, 64, 90
1, 1527158, Note_off_c, 0, 57, 44
1, 1527161, Control_c, 0, 64, 109
1, 1527165, Note_off_c, 0, 45, 38
1, 1527176, Control_c, 0, 64, 127
1, 1527184, Note_off_c, 0, 69, 54
1, 1527234, Note_off_c, 0, 52, 37
1, 1527249, Note_off_c, 0, 61, 39
1, 1527309, Control_c, 0, 67, 123
1, 1527324, Control_c, 0, 67, 110
1, 1527339, Control_c, 0, 67, 99
1, 1527354, Control_c, 0, 67, 89
1, 1527369, Control_c, 0, 67, 83
1, 1527383, Control_c, 0, 67, 77
1, 1527398, Control_c, 0, 67, 71
1, 1527413, Control_c, 0, 67, 65
1, 1527427, Control_c, 0, 67, 60
1, 1527442, Control_c, 0, 67, 54
1, 1527457, Control_c, 0, 67, 49
1, 1527472, Control_c, 0, 67, 43
1, 1527487, Control_c, 0, 67, 35
1, 1527501, Control_c, 0, 67, 28
1, 1527516, Control_c, 0, 64, 109
1, 1527516, Control_c, 0, 67, 24
1, 1527531, Control_c, 0, 64, 92
1, 1527546, Control_c, 0, 64, 76
1, 1527546, Control_c, 0, 67, 22
1, 1527560, Control_c, 0, 64, 63
1, 1527575, Control_c, 0, 64, 0
1, 1527634, Control_c, 0, 67, 0
1, 1527671, Note_on_c, 0, 33, 99
1, 1527673, Note_on_c, 0, 45, 106
1, 1527679, Control_c, 0, 64, 66
1, 1527680, Note_on_c, 0, 35, 83
1, 1527694, Control_c, 0, 64, 106
1, 1527710, Control_c, 0, 64, 127
1, 1527753, Note_on_c, 0, 49, 82
1, 1527766, Note_on_c, 0, 37, 75
1, 1527782, Poly_aftertouch_c, 0, 55, 127
1, 1527786, Note_off_c, 0, 35, 56
1, 1527787, Note_off_c, 0, 45, 61
1, 1527796, Note_off_c, 0, 33, 59
1, 1527819, Poly_aftertouch_c, 0, 55, 0
1, 1527843, Note_on_c, 0, 52, 80
1, 1527846, Note_on_c, 0, 40, 69
1, 1527848, Note_off_c, 0, 49, 66
1, 1527864, Note_off_c, 0, 52, 69
1, 1527871, Note_off_c, 0, 37, 60
1, 1527899, Note_off_c, 0, 40, 61
1, 1527919, Note_on_c, 0, 45, 75
1, 1527921, Note_on_c, 0, 57, 95
1, 1527965, Note_off_c, 0, 45, 54
1, 1527989, Note_on_c, 0, 61, 87
1, 1528000, Note_on_c, 0, 49, 76
1, 1528008, Note_off_c, 0, 57, 58
1, 1528015, Note_on_c, 0, 62, 75
1, 1528061, Note_on_c, 0, 64, 74
1, 1528063, Note_on_c, 0, 52, 82
1, 1528069, Note_off_c, 0, 61, 60
1, 1528072, Note_off_c, 0, 62, 61
1, 1528085, Note_off_c, 0, 49, 62
1, 1528090, Note_off_c, 0, 64, 68
1, 1528092, Note_on_c, 0, 65, 27
1, 1528119, Note_off_c, 0, 52, 61
1, 1528133, Note_off_c, 0, 65, 44
1, 1528139, Note_on_c, 0, 57, 73
1, 1528144, Note_on_c, 0, 69, 89
1, 1528181, Note_off_c, 0, 57, 59
1, 1528209, Note_on_c, 0, 73, 93
1, 1528230, Note_on_c, 0, 61, 43
1, 1528230, Note_off_c, 0, 61, 127
1, 1528242, Note_off_c, 0, 69, 62
1, 1528253, Note_on_c, 0, 60, 61
1, 1528260, Note_on_c, 0, 72, 69
1, 1528272, Note_on_c, 0, 75, 85
1, 1528282, Note_on_c, 0, 64, 77
1, 1528285, Note_off_c, 0, 72, 68
1, 1528289, Note_off_c, 0, 60, 64
1, 1528291, Note_on_c, 0, 76, 90
1, 1528305, Note_off_c, 0, 73, 65
1, 1528308, Note_off_c, 0, 76, 75
1, 1528320, Note_off_c, 0, 75, 60
1, 1528328, Note_off_c, 0, 64, 65
1, 1528364, Note_on_c, 0, 69, 75
1, 1528369, Note_on_c, 0, 81, 103
1, 1528394, Note_off_c, 0, 69, 64
1, 1528437, Note_on_c, 0, 85, 91
1, 1528445, Note_on_c, 0, 73, 70
1, 1528472, Note_off_c, 0, 81, 59
1, 1528489, Note_on_c, 0, 88, 95
1, 1528507, Note_on_c, 0, 76, 81
1, 1528510, Note_off_c, 0, 73, 62
1, 1528519, Note_off_c, 0, 85, 66
1, 1528540, Control_c, 0, 64, 71
1, 1528547, Note_off_c, 0, 88, 65
1, 1528555, Control_c, 0, 64, 43
1, 1528566, Note_on_c, 0, 93, 113
1, 1528568, Poly_aftertouch_c, 0, 88, 0
1, 1528570, Control_c, 0, 64, 36
1, 1528570, Note_on_c, 0, 81, 101
1, 1528577, Note_on_c, 0, 88, 48
1, 1528582, Note_off_c, 0, 76, 66
1, 1528585, Control_c, 0, 64, 63
1, 1528593, Note_off_c, 0, 81, 69
1, 1528600, Control_c, 0, 64, 87
1, 1528600, Note_on_c, 0, 91, 36
1, 1528600, Note_off_c, 0, 91, 127
1, 1528602, Note_off_c, 0, 88, 54
1, 1528614, Control_c, 0, 64, 127
1, 1528616, Note_off_c, 0, 93, 68
1, 1528969, Control_c, 0, 64, 75
1, 1528984, Control_c, 0, 64, 40
1, 1528999, Control_c, 0, 64, 0
1, 1529032, Note_on_c, 0, 66, 103
1, 1529033, Note_on_c, 0, 69, 114
1, 1529035, Note_on_c, 0, 74, 109
1, 1529037, Note_on_c, 0, 81, 104
1, 1529040, Note_on_c, 0, 57, 65
1, 1529041, Note_on_c, 0, 78, 95
1, 1529042, Note_on_c, 0, 62, 75
1, 1529044, Control_c, 0, 64, 57
1, 1529059, Control_c, 0, 64, 127
1, 1529059, Note_off_c, 0, 66, 65
1, 1529065, Note_off_c, 0, 62, 69
1, 1529069, Note_off_c, 0, 57, 67
1, 1529073, Note_off_c, 0, 81, 61
1, 1529077, Note_off_c, 0, 69, 67
1, 1529082, Note_off_c, 0, 74, 69
1, 1529090, Note_off_c, 0, 78, 68
1, 1529526, Control_c, 0, 64, 84
1, 1529541, Note_on_c, 0, 45, 115
1, 1529541, Note_on_c, 0, 57, 115
1, 1529541, Control_c, 0, 64, 37
1, 1529548, Note_on_c, 0, 33, 82
1, 1529556, Control_c, 0, 64, 0
1, 1529588, Note_on_c, 0, 39, 18
1, 1529588, Note_off_c, 0, 39, 127
1, 1529592, Note_on_c, 0, 35, 35
1, 1529600, Control_c, 0, 64, 56
1, 1529615, Control_c, 0, 64, 76
1, 1529619, Note_off_c, 0, 33, 63
1, 1529622, Note_off_c, 0, 57, 65
1, 1529629, Control_c, 0, 64, 127
1, 1529630, Note_off_c, 0, 35, 52
1, 1529688, Note_off_c, 0, 45, 62
1, 1530043, Note_on_c, 0, 67, 99
1, 1530048, Note_on_c, 0, 69, 100
1, 1530049, Note_on_c, 0, 57, 81
1, 1530050, Note_on_c, 0, 81, 101
1, 1530051, Note_on_c, 0, 64, 95
1, 1530054, Note_on_c, 0, 79, 89
1, 1530054, Note_on_c, 0, 76, 95
1, 1530075, Note_off_c, 0, 67, 69
1, 1530090, Note_off_c, 0, 64, 68
1, 1530097, Note_off_c, 0, 57, 63
1, 1530102, Note_off_c, 0, 81, 67
1, 1530107, Note_off_c, 0, 69, 67
1, 1530114, Note_off_c, 0, 76, 66
1, 1530117, Note_off_c, 0, 79, 67
1, 1530423, Control_c, 0, 64, 106
1, 1530438, Control_c, 0, 64, 69
1, 1530452, Control_c, 0, 64, 0
1, 1530531, Note_on_c, 0, 45, 113
1, 1530531, Note_on_c, 0, 57, 114
1, 1530541, Control_c, 0, 64, 58
1, 1530543, Note_on_c, 0, 33, 70
1, 1530556, Control_c, 0, 64, 127
1, 1530563, Note_off_c, 0, 45, 66
1, 1530568, Note_on_c, 0, 39, 41
1, 1530571, Note_off_c, 0, 33, 58
1, 1530585, Note_off_c, 0, 57, 62
1, 1530588, Note_on_c, 0, 35, 5
1, 1530603, Note_off_c, 0, 39, 52
1, 1530645, Note_off_c, 0, 35, 39
1, 1531004, Note_on_c, 0, 66, 111
1, 1531005, Note_on_c, 0, 69, 104
1, 1531006, Note_on_c, 0, 74, 101
1, 1531011, Note_on_c, 0, 78, 90
1, 1531011, Note_on_c, 0, 81, 99
1, 1531014, Note_on_c, 0, 57, 71
1, 1531014, Note_on_c, 0, 62, 81
1, 1531050, Note_off_c, 0, 66, 68
1, 1531063, Note_off_c, 0, 81, 66
1, 1531067, Note_off_c, 0, 57, 61
1, 1531075, Note_off_c, 0, 69, 67
1, 1531079, Note_off_c, 0, 62, 63
1, 1531089, Note_off_c, 0, 74, 61
1, 1531097, Note_off_c, 0, 78, 63
1, 1531393, Control_c, 0, 64, 93
1, 1531408, Control_c, 0, 64, 71
1, 1531423, Control_c, 0, 64, 44
1, 1531438, Control_c, 0, 64, 0
1, 1531556, Note_on_c, 0, 57, 114
1, 1531557, Note_on_c, 0, 45, 121
1, 1531565, Control_c, 0, 64, 63
1, 1531568, Note_on_c, 0, 33, 68
1, 1531580, Control_c, 0, 64, 127
1, 1531596, Note_off_c, 0, 57, 68
1, 1531598, Note_off_c, 0, 33, 57
1, 1531599, Note_off_c, 0, 45, 68
1, 1532053, Note_on_c, 0, 64, 107
1, 1532058, Note_on_c, 0, 69, 114
1, 1532058, Note_on_c, 0, 76, 108
1, 1532061, Note_on_c, 0, 73, 103
1, 1532064, Note_on_c, 0, 81, 96
1, 1532065, Note_on_c, 0, 61, 81
1, 1532070, Note_on_c, 0, 57, 77
1, 1532079, Note_off_c, 0, 81, 75
1, 1532081, Note_off_c, 0, 64, 69
1, 1532087, Note_off_c, 0, 61, 58
1, 1532094, Note_off_c, 0, 76, 66
1, 1532100, Note_off_c, 0, 69, 64
1, 1532101, Note_on_c, 0, 62, 50
1, 1532103, Note_off_c, 0, 73, 64
1, 1532108, Note_off_c, 0, 57, 63
1, 1532124, Note_off_c, 0, 62, 60
1, 1532188, Control_c, 0, 64, 111
1, 1532203, Control_c, 0, 64, 75
1, 1532216, Control_c, 0, 64, 46
1, 1532231, Control_c, 0, 64, 0
1, 1532328, Control_c, 0, 64, 43
1, 1532336, Note_on_c, 0, 57, 112
1, 1532338, Note_on_c, 0, 45, 112
1, 1532343, Control_c, 0, 64, 75
1, 1532350, Note_on_c, 0, 33, 57
1, 1532357, Control_c, 0, 64, 127
1, 1532371, Note_off_c, 0, 57, 68
1, 1532371, Note_off_c, 0, 45, 63
1, 1532374, Note_on_c, 0, 39, 34
1, 1532384, Note_off_c, 0, 33, 56
1, 1532413, Note_off_c, 0, 39, 50
1, 1532456, Poly_aftertouch_c, 0, 34, 0
1, 1532507, Control_c, 0, 64, 80
1, 1532521, Control_c, 0, 64, 54
1, 1532536, Control_c, 0, 64, 0
1, 1532587, Note_on_c, 0, 62, 95
1, 1532591, Note_on_c, 0, 71, 103
1, 1532594, Note_on_c, 0, 74, 99
1, 1532594, Note_on_c, 0, 59, 86
1, 1532594, Note_on_c, 0, 81, 104
1, 1532595, Control_c, 0, 64, 42
1, 1532596, Note_on_c, 0, 69, 100
1, 1532601, Note_on_c, 0, 57, 75
1, 1532609, Note_off_c, 0, 81, 74
1, 1532610, Control_c, 0, 64, 73
1, 1532612, Note_off_c, 0, 62, 67
1, 1532613, Note_on_c, 0, 72, 64
1, 1532613, Note_off_c, 0, 72, 127
1, 1532613, Note_off_c, 0, 74, 66
1, 1532616, Note_off_c, 0, 59, 70
1, 1532625, Control_c, 0, 64, 127
1, 1532627, Note_off_c, 0, 57, 69
1, 1532637, Note_off_c, 0, 71, 61
1, 1532639, Note_off_c, 0, 69, 65
1, 1532645, Note_on_c, 0, 56, 33
1, 1532675, Note_off_c, 0, 56, 53
1, 1532688, Poly_aftertouch_c, 0, 80, 0
1, 1532803, Control_c, 0, 64, 75
1, 1532818, Control_c, 0, 64, 0
1, 1532856, Note_on_c, 0, 45, 113
1, 1532861, Note_on_c, 0, 57, 110
1, 1532866, Note_on_c, 0, 33, 73
1, 1532877, Control_c, 0, 64, 59
1, 1532892, Note_off_c, 0, 33, 60
1, 1532892, Control_c, 0, 64, 102
1, 1532898, Note_off_c, 0, 45, 68
1, 1532898, Note_off_c, 0, 57, 69
1, 1532904, Note_on_c, 0, 39, 31
1, 1532907, Control_c, 0, 64, 127
1, 1532945, Note_off_c, 0, 39, 49
1, 1532946, Poly_aftertouch_c, 0, 35, 127
1, 1532980, Poly_aftertouch_c, 0, 35, 0
1, 1533195, Note_on_c, 0, 64, 107
1, 1533196, Note_on_c, 0, 57, 79
1, 1533197, Note_on_c, 0, 61, 92
1, 1533198, Note_on_c, 0, 69, 105
1, 1533199, Note_on_c, 0, 73, 103
1, 1533199, Note_on_c, 0, 76, 98
1, 1533204, Note_on_c, 0, 81, 102
1, 1533236, Note_on_c, 0, 78, 42
1, 1533240, Control_c, 0, 64, 91
1, 1533254, Control_c, 0, 64, 61
1, 1533269, Control_c, 0, 64, 0
1, 1533368, Note_off_c, 0, 78, 22
1, 1533374, Control_c, 0, 64, 63
1, 1533388, Control_c, 0, 64, 90
1, 1533403, Control_c, 0, 64, 127
1, 1533418, Note_off_c, 0, 81, 60
1, 1533435, Note_off_c, 0, 57, 58
1, 1533451, Note_off_c, 0, 64, 55
1, 1533462, Note_off_c, 0, 76, 59
1, 1533488, Note_off_c, 0, 73, 57
1, 1533491, Note_off_c, 0, 69, 57
1, 1533494, Note_off_c, 0, 61, 59
1, 1534043, Note_on_c, 0, 57, 116
1, 1534046, Note_on_c, 0, 45, 112
1, 1534055, Note_on_c, 0, 33, 93
1, 1534071, Note_on_c, 0, 34, 68
1, 1534071, Note_on_c, 0, 39, 59
1, 1534095, Note_on_c, 0, 37, 23
1, 1534103, Note_off_c, 0, 39, 56
1, 1534108, Control_c, 0, 64, 92
1, 1534123, Control_c, 0, 64, 62
1, 1534132, Note_off_c, 0, 37, 53
1, 1534138, Control_c, 0, 64, 0
1, 1534153, Note_off_c, 0, 34, 62
1, 1534242, Control_c, 0, 64, 52
1, 1534257, Control_c, 0, 64, 64
1, 1534272, Control_c, 0, 64, 70
1, 1534287, Control_c, 0, 64, 77
1, 1534301, Control_c, 0, 64, 92
1, 1534316, Control_c, 0, 64, 127
1, 1535811, Note_on_c, 0, 36, 25
1, 1535900, Note_off_c, 0, 33, 64
1, 1535901, Note_off_c, 0, 45, 66
1, 1535903, Note_off_c, 0, 57, 70
1, 1535921, Note_off_c, 0, 36, 47
1, 1535932, Control_c, 0, 64, 93
1, 1535947, Control_c, 0, 64, 69
1, 1535962, Control_c, 0, 64, 50
1, 1535977, Control_c, 0, 64, 0
1, 1535977, End_track
0, 0, End_of_file
