0, 0, Header, 0, 1, 384
1, 0, Start_track
1, 0, Title_t, "Fantasy in C Min--Claire Huangci"
1, 0, Text_t, "2006 International Piano-e-Competition Recital Round"
1, 0, Text_t, "St. Paul, Minnesota, July 2006"
1, 0, Text_t, "http://www.piano-e-competition.com/"
1, 0, Instrument_name_t, "Yamaha Disklavier Pro Mark IV concert grand piano"
1, 0, Sequencer_specific, 39, 67, 113, 0, 1, 0, 1, 0, 70, 97, 110, 116, 97, 115, 121, 32, 105, 110, 32, 67, 32, 77, 105, 110, 67, 108, 97, 105, 114, 101, 32, 72, 117, 97, 110, 103, 99, 105, 32, 32
1, 0, Sequencer_specific, 6, 67, 113, 0, 0, 0, 69
1, 0, System_exclusive, 21, 67, 113, 126, 21, 0, 2, 2, 0, 10, 10, 12, 4, 4, 10, 14, 10, 13, 14, 7, 1, 247
1, 0, Sequencer_specific, 5, 67, 123, 12, 2, 1
1, 0, Tempo, 512820
1, 0, Time_signature, 4, 2, 24, 8
1, 0, System_exclusive, 5, 126, 127, 9, 1, 247
1, 1, System_exclusive, 8, 67, 16, 76, 0, 0, 126, 0, 247
1, 2, System_exclusive, 8, 67, 16, 76, 8, 9, 7, 1, 247
1, 3, Control_c, 0, 0, 0
1, 4, Control_c, 0, 32, 0
1, 5, Program_c, 0, 0
1, 6, Control_c, 0, 7, 100
1, 95, Control_c, 0, 64, 15
1, 184, Control_c, 0, 64, 31
1, 273, Control_c, 0, 64, 46
1, 362, Control_c, 0, 64, 63
1, 452, Control_c, 0, 64, 77
1, 541, Control_c, 0, 64, 94
1, 630, Control_c, 0, 64, 108
1, 719, Control_c, 0, 64, 127
1, 907, Note_on_c, 0, 60, 56
1, 921, Note_on_c, 0, 48, 45
1, 923, Note_on_c, 0, 36, 43
1, 1102, Control_c, 0, 64, 104
1, 1117, Control_c, 0, 64, 92
1, 1132, Control_c, 0, 64, 81
1, 1147, Control_c, 0, 64, 74
1, 1163, Control_c, 0, 64, 69
1, 1178, Control_c, 0, 64, 65
1, 1193, Control_c, 0, 64, 61
1, 1207, Control_c, 0, 64, 56
1, 1222, Control_c, 0, 64, 49
1, 1237, Control_c, 0, 64, 38
1, 1252, Control_c, 0, 64, 0
1, 1481, Control_c, 0, 64, 37
1, 1496, Control_c, 0, 64, 46
1, 1511, Control_c, 0, 64, 56
1, 1526, Control_c, 0, 64, 61
1, 1540, Control_c, 0, 64, 63
1, 1555, Control_c, 0, 64, 65
1, 1570, Control_c, 0, 64, 67
1, 1585, Control_c, 0, 64, 70
1, 1600, Control_c, 0, 64, 74
1, 1614, Control_c, 0, 64, 78
1, 1629, Control_c, 0, 64, 82
1, 1644, Control_c, 0, 64, 86
1, 1658, Control_c, 0, 64, 92
1, 1673, Control_c, 0, 64, 97
1, 1688, Control_c, 0, 64, 103
1, 1703, Control_c, 0, 64, 113
1, 1718, Control_c, 0, 64, 127
1, 2188, Note_off_c, 0, 36, 33
1, 2335, Control_c, 0, 67, 23
1, 2350, Control_c, 0, 67, 29
1, 2364, Control_c, 0, 67, 37
1, 2379, Control_c, 0, 67, 50
1, 2394, Control_c, 0, 67, 64
1, 2409, Control_c, 0, 67, 80
1, 2424, Control_c, 0, 67, 97
1, 2438, Control_c, 0, 67, 117
1, 2451, Note_off_c, 0, 48, 41
1, 2453, Control_c, 0, 67, 127
1, 3164, Note_on_c, 0, 63, 41
1, 3185, Note_on_c, 0, 51, 35
1, 3186, Note_on_c, 0, 39, 38
1, 3231, Control_c, 0, 64, 87
1, 3246, Control_c, 0, 64, 71
1, 3258, Note_off_c, 0, 60, 25
1, 3261, Control_c, 0, 64, 61
1, 3276, Control_c, 0, 64, 53
1, 3291, Control_c, 0, 64, 54
1, 3305, Control_c, 0, 64, 56
1, 3320, Control_c, 0, 64, 58
1, 3335, Control_c, 0, 64, 60
1, 3350, Control_c, 0, 64, 63
1, 3365, Control_c, 0, 64, 66
1, 3379, Control_c, 0, 64, 70
1, 3389, Note_off_c, 0, 39, 51
1, 3394, Control_c, 0, 64, 73
1, 3409, Control_c, 0, 64, 76
1, 3423, Control_c, 0, 64, 80
1, 3438, Control_c, 0, 64, 82
1, 3453, Control_c, 0, 64, 85
1, 3468, Control_c, 0, 64, 88
1, 3483, Control_c, 0, 64, 91
1, 3497, Control_c, 0, 64, 94
1, 3503, Note_off_c, 0, 51, 40
1, 3512, Control_c, 0, 64, 95
1, 3535, Control_c, 0, 64, 96
1, 3688, Note_on_c, 0, 66, 40
1, 3698, Note_on_c, 0, 54, 35
1, 3699, Control_c, 0, 64, 92
1, 3706, Note_on_c, 0, 42, 30
1, 3714, Control_c, 0, 64, 85
1, 3722, Note_off_c, 0, 63, 33
1, 3728, Control_c, 0, 64, 76
1, 3743, Control_c, 0, 64, 67
1, 3758, Control_c, 0, 64, 56
1, 3773, Control_c, 0, 64, 37
1, 3788, Control_c, 0, 64, 0
1, 3832, Control_c, 0, 64, 39
1, 3847, Control_c, 0, 64, 47
1, 3861, Control_c, 0, 64, 56
1, 3876, Control_c, 0, 64, 63
1, 3891, Control_c, 0, 64, 67
1, 3906, Control_c, 0, 64, 71
1, 3921, Control_c, 0, 64, 75
1, 3936, Control_c, 0, 64, 77
1, 3951, Control_c, 0, 64, 80
1, 3965, Control_c, 0, 64, 82
1, 3972, Note_off_c, 0, 42, 40
1, 3980, Control_c, 0, 64, 84
1, 3995, Control_c, 0, 64, 87
1, 4010, Control_c, 0, 64, 92
1, 4025, Control_c, 0, 64, 96
1, 4040, Control_c, 0, 64, 100
1, 4046, Note_off_c, 0, 54, 40
1, 4054, Control_c, 0, 64, 102
1, 4084, Control_c, 0, 64, 104
1, 4199, Note_on_c, 0, 67, 35
1, 4204, Note_on_c, 0, 43, 30
1, 4207, Note_on_c, 0, 55, 29
1, 4233, Control_c, 0, 64, 96
1, 4247, Control_c, 0, 64, 85
1, 4249, Note_off_c, 0, 66, 28
1, 4262, Control_c, 0, 64, 74
1, 4284, Control_c, 0, 64, 63
1, 4299, Control_c, 0, 64, 48
1, 4314, Control_c, 0, 64, 37
1, 4329, Control_c, 0, 64, 40
1, 4344, Control_c, 0, 64, 44
1, 4359, Control_c, 0, 64, 49
1, 4374, Control_c, 0, 64, 54
1, 4389, Control_c, 0, 64, 60
1, 4404, Control_c, 0, 64, 65
1, 4419, Control_c, 0, 64, 71
1, 4430, Note_off_c, 0, 55, 40
1, 4433, Control_c, 0, 64, 75
1, 4448, Control_c, 0, 64, 78
1, 4463, Control_c, 0, 64, 81
1, 4478, Control_c, 0, 64, 83
1, 4493, Control_c, 0, 64, 85
1, 4508, Control_c, 0, 64, 87
1, 4523, Control_c, 0, 64, 89
1, 4538, Control_c, 0, 64, 91
1, 4552, Control_c, 0, 64, 93
1, 4567, Control_c, 0, 64, 94
1, 4582, Control_c, 0, 64, 96
1, 4626, Control_c, 0, 64, 98
1, 4755, Note_on_c, 0, 68, 39
1, 4765, Note_on_c, 0, 44, 28
1, 4767, Note_on_c, 0, 56, 29
1, 4779, Note_off_c, 0, 67, 27
1, 4803, Control_c, 0, 64, 92
1, 4818, Control_c, 0, 64, 83
1, 4833, Control_c, 0, 64, 75
1, 4848, Control_c, 0, 64, 67
1, 4863, Control_c, 0, 64, 58
1, 4866, Note_off_c, 0, 43, 38
1, 4877, Control_c, 0, 64, 46
1, 4892, Control_c, 0, 64, 46
1, 4907, Control_c, 0, 64, 49
1, 4922, Control_c, 0, 64, 52
1, 4933, Note_off_c, 0, 56, 44
1, 4937, Control_c, 0, 64, 55
1, 4951, Control_c, 0, 64, 58
1, 4966, Control_c, 0, 64, 63
1, 4981, Control_c, 0, 64, 67
1, 4996, Control_c, 0, 64, 71
1, 5010, Control_c, 0, 64, 75
1, 5033, Control_c, 0, 64, 78
1, 5048, Control_c, 0, 64, 79
1, 5062, Control_c, 0, 64, 81
1, 5077, Control_c, 0, 64, 82
1, 5092, Control_c, 0, 64, 84
1, 5107, Control_c, 0, 64, 85
1, 5122, Control_c, 0, 64, 86
1, 5137, Control_c, 0, 64, 88
1, 5152, Control_c, 0, 64, 89
1, 5167, Control_c, 0, 64, 90
1, 5197, Control_c, 0, 64, 90
1, 5211, Control_c, 0, 64, 91
1, 5395, Note_on_c, 0, 36, 34
1, 5403, Note_off_c, 0, 44, 40
1, 5404, Control_c, 0, 64, 89
1, 5405, Note_on_c, 0, 48, 26
1, 5410, Note_on_c, 0, 60, 32
1, 5419, Control_c, 0, 64, 87
1, 5433, Control_c, 0, 64, 84
1, 5448, Control_c, 0, 64, 78
1, 5463, Control_c, 0, 64, 71
1, 5478, Control_c, 0, 64, 63
1, 5483, Note_off_c, 0, 68, 29
1, 5493, Control_c, 0, 64, 54
1, 5507, Control_c, 0, 64, 47
1, 5522, Control_c, 0, 64, 44
1, 5552, Control_c, 0, 64, 45
1, 5567, Control_c, 0, 64, 46
1, 5571, Note_off_c, 0, 48, 20
1, 5581, Control_c, 0, 64, 49
1, 5596, Control_c, 0, 64, 53
1, 5611, Control_c, 0, 64, 59
1, 5625, Control_c, 0, 64, 63
1, 5640, Control_c, 0, 64, 66
1, 5655, Control_c, 0, 64, 70
1, 5670, Control_c, 0, 64, 73
1, 5685, Control_c, 0, 64, 76
1, 5699, Control_c, 0, 64, 78
1, 5714, Control_c, 0, 64, 80
1, 5729, Control_c, 0, 64, 82
1, 5744, Control_c, 0, 64, 85
1, 5759, Control_c, 0, 64, 87
1, 5781, Control_c, 0, 64, 90
1, 5796, Control_c, 0, 64, 91
1, 5811, Control_c, 0, 64, 92
1, 5826, Control_c, 0, 64, 93
1, 5840, Control_c, 0, 64, 94
1, 5885, Control_c, 0, 64, 94
1, 6187, Note_on_c, 0, 47, 26
1, 6187, Note_on_c, 0, 59, 32
1, 6202, Note_on_c, 0, 35, 19
1, 6211, Control_c, 0, 64, 92
1, 6226, Control_c, 0, 64, 89
1, 6241, Control_c, 0, 64, 87
1, 6255, Control_c, 0, 64, 84
1, 6270, Control_c, 0, 64, 82
1, 6285, Control_c, 0, 64, 79
1, 6300, Control_c, 0, 64, 74
1, 6315, Control_c, 0, 64, 67
1, 6325, Note_off_c, 0, 36, 35
1, 6329, Note_off_c, 0, 60, 37
1, 6329, Control_c, 0, 64, 61
1, 6344, Control_c, 0, 64, 53
1, 6359, Control_c, 0, 64, 45
1, 6374, Control_c, 0, 64, 38
1, 6389, Control_c, 0, 64, 0
1, 6574, Control_c, 0, 64, 41
1, 6589, Control_c, 0, 64, 48
1, 6604, Control_c, 0, 64, 54
1, 6618, Control_c, 0, 64, 58
1, 6633, Control_c, 0, 64, 61
1, 6648, Control_c, 0, 64, 62
1, 6663, Control_c, 0, 64, 64
1, 6678, Control_c, 0, 64, 65
1, 6693, Control_c, 0, 64, 67
1, 6708, Control_c, 0, 64, 70
1, 6723, Control_c, 0, 64, 72
1, 6737, Control_c, 0, 64, 73
1, 6746, Note_off_c, 0, 35, 38
1, 6753, Control_c, 0, 64, 74
1, 6768, Control_c, 0, 64, 75
1, 6782, Control_c, 0, 64, 76
1, 6797, Control_c, 0, 64, 77
1, 6812, Control_c, 0, 64, 78
1, 6821, Note_off_c, 0, 47, 41
1, 6827, Control_c, 0, 64, 78
1, 6842, Control_c, 0, 64, 79
1, 6857, Control_c, 0, 64, 80
1, 6901, Control_c, 0, 64, 81
1, 6907, Note_off_c, 0, 59, 38
1, 7182, Control_c, 0, 64, 80
1, 7197, Control_c, 0, 64, 80
1, 7212, Control_c, 0, 64, 79
1, 7227, Control_c, 0, 64, 78
1, 7241, Control_c, 0, 64, 78
1, 7256, Control_c, 0, 64, 76
1, 7278, Control_c, 0, 64, 74
1, 7293, Control_c, 0, 64, 72
1, 7308, Control_c, 0, 64, 70
1, 7323, Control_c, 0, 64, 68
1, 7338, Control_c, 0, 64, 66
1, 7352, Control_c, 0, 64, 62
1, 7367, Control_c, 0, 64, 56
1, 7382, Control_c, 0, 64, 49
1, 7396, Control_c, 0, 64, 43
1, 7411, Control_c, 0, 64, 40
1, 7426, Control_c, 0, 64, 39
1, 7441, Control_c, 0, 64, 38
1, 7456, Control_c, 0, 64, 34
1, 7471, Control_c, 0, 64, 0
1, 7590, Control_c, 0, 64, 34
1, 7605, Control_c, 0, 64, 41
1, 7620, Control_c, 0, 64, 48
1, 7635, Control_c, 0, 64, 54
1, 7650, Control_c, 0, 64, 58
1, 7665, Control_c, 0, 64, 61
1, 7680, Control_c, 0, 64, 62
1, 7695, Control_c, 0, 64, 64
1, 7709, Control_c, 0, 64, 66
1, 7724, Control_c, 0, 64, 67
1, 7739, Control_c, 0, 64, 69
1, 7754, Control_c, 0, 64, 71
1, 7768, Control_c, 0, 64, 72
1, 7783, Control_c, 0, 64, 74
1, 7798, Control_c, 0, 64, 76
1, 7813, Control_c, 0, 64, 79
1, 7827, Control_c, 0, 64, 81
1, 7842, Control_c, 0, 64, 82
1, 7857, Control_c, 0, 64, 82
1, 7872, Control_c, 0, 64, 83
1, 7887, Control_c, 0, 64, 85
1, 7901, Control_c, 0, 64, 88
1, 7916, Control_c, 0, 64, 88
1, 7931, Control_c, 0, 64, 89
1, 7946, Control_c, 0, 67, 118
1, 7961, Control_c, 0, 67, 105
1, 7975, Control_c, 0, 64, 90
1, 7975, Control_c, 0, 67, 93
1, 7990, Control_c, 0, 67, 82
1, 8005, Control_c, 0, 67, 74
1, 8027, Control_c, 0, 64, 90
1, 8027, Control_c, 0, 67, 67
1, 8042, Control_c, 0, 67, 60
1, 8057, Control_c, 0, 67, 53
1, 8072, Control_c, 0, 67, 44
1, 8087, Control_c, 0, 67, 35
1, 8100, Note_on_c, 0, 66, 34
1, 8101, Control_c, 0, 64, 91
1, 8101, Control_c, 0, 67, 25
1, 8109, Note_on_c, 0, 75, 38
1, 8116, Control_c, 0, 67, 0
1, 8118, Note_on_c, 0, 72, 41
1, 8650, Control_c, 0, 64, 90
1, 8695, Control_c, 0, 64, 90
1, 8724, Control_c, 0, 64, 89
1, 8739, Control_c, 0, 64, 88
1, 8754, Control_c, 0, 64, 88
1, 8776, Control_c, 0, 64, 87
1, 8787, Note_on_c, 0, 67, 26
1, 8791, Control_c, 0, 64, 85
1, 8795, Note_on_c, 0, 74, 37
1, 8806, Control_c, 0, 64, 84
1, 8808, Note_on_c, 0, 71, 36
1, 8821, Control_c, 0, 64, 81
1, 8836, Control_c, 0, 64, 78
1, 8850, Control_c, 0, 64, 76
1, 8851, Note_off_c, 0, 72, 33
1, 8865, Control_c, 0, 64, 73
1, 8869, Note_off_c, 0, 75, 29
1, 8880, Control_c, 0, 64, 69
1, 8886, Note_off_c, 0, 66, 40
1, 8895, Control_c, 0, 64, 65
1, 8910, Control_c, 0, 64, 60
1, 8924, Control_c, 0, 64, 55
1, 8939, Control_c, 0, 64, 51
1, 8954, Control_c, 0, 64, 46
1, 8968, Control_c, 0, 64, 40
1, 8983, Control_c, 0, 64, 0
1, 9081, Note_off_c, 0, 67, 44
1, 9084, Note_off_c, 0, 71, 43
1, 9100, Note_off_c, 0, 74, 60
1, 9147, Control_c, 0, 67, 22
1, 9162, Control_c, 0, 67, 30
1, 9177, Control_c, 0, 67, 39
1, 9191, Control_c, 0, 67, 51
1, 9206, Control_c, 0, 67, 65
1, 9221, Control_c, 0, 67, 79
1, 9236, Control_c, 0, 67, 92
1, 9251, Control_c, 0, 67, 107
1, 9266, Control_c, 0, 64, 41
1, 9266, Control_c, 0, 67, 120
1, 9280, Control_c, 0, 64, 49
1, 9280, Control_c, 0, 67, 127
1, 9295, Control_c, 0, 64, 55
1, 9310, Control_c, 0, 64, 58
1, 9325, Control_c, 0, 64, 60
1, 9340, Control_c, 0, 64, 62
1, 9355, Control_c, 0, 64, 63
1, 9370, Control_c, 0, 64, 64
1, 9385, Control_c, 0, 64, 66
1, 9400, Control_c, 0, 64, 67
1, 9415, Control_c, 0, 64, 69
1, 9429, Control_c, 0, 64, 70
1, 9444, Control_c, 0, 64, 71
1, 9459, Control_c, 0, 64, 73
1, 9474, Control_c, 0, 64, 74
1, 9489, Control_c, 0, 64, 76
1, 9504, Control_c, 0, 64, 77
1, 9526, Control_c, 0, 64, 79
1, 9541, Control_c, 0, 64, 80
1, 9555, Control_c, 0, 64, 82
1, 9564, Note_on_c, 0, 78, 38
1, 9570, Control_c, 0, 64, 83
1, 9572, Note_on_c, 0, 68, 29
1, 9585, Control_c, 0, 64, 85
1, 9589, Note_on_c, 0, 72, 26
1, 9599, Control_c, 0, 64, 86
1, 9614, Control_c, 0, 64, 87
1, 9629, Control_c, 0, 64, 88
1, 9644, Control_c, 0, 64, 90
1, 9659, Control_c, 0, 64, 92
1, 9689, Control_c, 0, 64, 92
1, 9704, Control_c, 0, 64, 93
1, 9719, Control_c, 0, 64, 94
1, 9734, Control_c, 0, 64, 94
1, 9778, Control_c, 0, 64, 95
1, 9822, Control_c, 0, 64, 95
1, 10393, Control_c, 0, 64, 95
1, 10408, Control_c, 0, 64, 93
1, 10414, Note_on_c, 0, 67, 29
1, 10422, Control_c, 0, 64, 92
1, 10433, Note_on_c, 0, 79, 31
1, 10437, Control_c, 0, 64, 90
1, 10442, Note_on_c, 0, 71, 27
1, 10452, Control_c, 0, 64, 88
1, 10467, Control_c, 0, 64, 86
1, 10482, Control_c, 0, 64, 84
1, 10497, Control_c, 0, 64, 82
1, 10512, Control_c, 0, 64, 80
1, 10526, Control_c, 0, 64, 77
1, 10533, Note_off_c, 0, 68, 34
1, 10541, Control_c, 0, 64, 73
1, 10556, Control_c, 0, 64, 69
1, 10571, Control_c, 0, 64, 65
1, 10576, Note_off_c, 0, 72, 39
1, 10582, Note_off_c, 0, 78, 30
1, 10586, Control_c, 0, 64, 60
1, 10601, Control_c, 0, 64, 54
1, 10616, Control_c, 0, 64, 50
1, 10630, Control_c, 0, 64, 47
1, 10645, Control_c, 0, 64, 44
1, 10660, Control_c, 0, 64, 38
1, 10675, Control_c, 0, 64, 0
1, 10809, Control_c, 0, 64, 38
1, 10824, Control_c, 0, 64, 44
1, 10838, Control_c, 0, 64, 50
1, 10853, Control_c, 0, 64, 56
1, 10867, Control_c, 0, 64, 59
1, 10882, Control_c, 0, 64, 61
1, 10897, Control_c, 0, 64, 64
1, 10911, Control_c, 0, 64, 65
1, 10926, Control_c, 0, 64, 67
1, 10941, Control_c, 0, 64, 69
1, 10956, Control_c, 0, 64, 71
1, 10971, Control_c, 0, 64, 73
1, 10986, Control_c, 0, 64, 75
1, 11000, Control_c, 0, 64, 77
1, 11023, Control_c, 0, 64, 78
1, 11038, Control_c, 0, 64, 79
1, 11052, Control_c, 0, 64, 81
1, 11067, Control_c, 0, 64, 82
1, 11082, Control_c, 0, 64, 83
1, 11097, Control_c, 0, 64, 84
1, 11112, Control_c, 0, 64, 86
1, 11126, Control_c, 0, 64, 87
1, 11141, Control_c, 0, 64, 87
1, 11156, Control_c, 0, 64, 88
1, 11170, Control_c, 0, 64, 88
1, 11185, Control_c, 0, 64, 89
1, 11200, Control_c, 0, 64, 89
1, 11436, Note_off_c, 0, 67, 12
1, 11674, Note_off_c, 0, 79, 28
1, 11731, Note_off_c, 0, 71, 31
1, 11817, Control_c, 0, 64, 89
1, 11862, Control_c, 0, 64, 88
1, 11891, Control_c, 0, 64, 88
1, 11906, Control_c, 0, 64, 87
1, 11921, Control_c, 0, 64, 87
1, 11936, Control_c, 0, 64, 86
1, 11950, Control_c, 0, 64, 85
1, 11965, Control_c, 0, 64, 85
1, 11980, Control_c, 0, 64, 83
1, 11994, Control_c, 0, 64, 82
1, 12009, Control_c, 0, 64, 82
1, 12039, Control_c, 0, 64, 81
1, 12054, Control_c, 0, 64, 80
1, 12068, Control_c, 0, 64, 79
1, 12083, Control_c, 0, 64, 78
1, 12098, Control_c, 0, 64, 77
1, 12112, Control_c, 0, 64, 76
1, 12127, Control_c, 0, 64, 74
1, 12142, Control_c, 0, 64, 72
1, 12157, Control_c, 0, 64, 71
1, 12172, Control_c, 0, 64, 70
1, 12187, Control_c, 0, 64, 70
1, 12202, Control_c, 0, 64, 69
1, 12217, Control_c, 0, 64, 69
1, 12232, Control_c, 0, 64, 68
1, 12276, Control_c, 0, 64, 68
1, 12291, Control_c, 0, 64, 67
1, 12306, Control_c, 0, 64, 66
1, 12320, Control_c, 0, 64, 65
1, 12335, Control_c, 0, 64, 64
1, 12351, Control_c, 0, 64, 63
1, 12366, Control_c, 0, 64, 62
1, 12381, Control_c, 0, 64, 61
1, 12395, Control_c, 0, 64, 60
1, 12410, Control_c, 0, 64, 59
1, 12425, Control_c, 0, 64, 58
1, 12440, Control_c, 0, 64, 56
1, 12455, Control_c, 0, 64, 54
1, 12470, Control_c, 0, 64, 54
1, 12484, Control_c, 0, 64, 53
1, 12499, Control_c, 0, 64, 53
1, 12521, Control_c, 0, 64, 52
1, 12536, Control_c, 0, 64, 50
1, 12550, Control_c, 0, 64, 49
1, 12595, Control_c, 0, 64, 48
1, 12610, Control_c, 0, 64, 47
1, 12625, Control_c, 0, 64, 46
1, 12640, Control_c, 0, 64, 45
1, 12655, Control_c, 0, 64, 42
1, 12670, Control_c, 0, 64, 40
1, 12685, Control_c, 0, 64, 38
1, 12699, Control_c, 0, 64, 37
1, 12714, Control_c, 0, 64, 36
1, 12729, Control_c, 0, 64, 34
1, 12743, Control_c, 0, 64, 0
1, 12877, Control_c, 0, 67, 119
1, 12891, Control_c, 0, 67, 109
1, 12906, Control_c, 0, 67, 99
1, 12921, Control_c, 0, 67, 88
1, 12935, Control_c, 0, 67, 78
1, 12950, Control_c, 0, 67, 68
1, 12965, Control_c, 0, 67, 58
1, 12980, Control_c, 0, 67, 49
1, 12995, Control_c, 0, 67, 40
1, 13010, Control_c, 0, 67, 32
1, 13024, Control_c, 0, 67, 23
1, 13039, Control_c, 0, 67, 0
1, 13344, Control_c, 0, 64, 39
1, 13359, Control_c, 0, 64, 43
1, 13373, Control_c, 0, 64, 48
1, 13388, Control_c, 0, 64, 55
1, 13403, Control_c, 0, 64, 58
1, 13418, Control_c, 0, 64, 60
1, 13433, Control_c, 0, 64, 62
1, 13448, Control_c, 0, 64, 63
1, 13463, Control_c, 0, 64, 65
1, 13478, Control_c, 0, 64, 66
1, 13492, Control_c, 0, 64, 68
1, 13507, Control_c, 0, 64, 70
1, 13522, Control_c, 0, 64, 71
1, 13537, Control_c, 0, 64, 72
1, 13552, Control_c, 0, 64, 74
1, 13566, Control_c, 0, 64, 75
1, 13581, Control_c, 0, 64, 77
1, 13596, Control_c, 0, 64, 80
1, 13611, Control_c, 0, 64, 81
1, 13626, Control_c, 0, 64, 83
1, 13640, Control_c, 0, 64, 84
1, 13655, Control_c, 0, 64, 85
1, 13670, Control_c, 0, 64, 87
1, 13684, Control_c, 0, 64, 90
1, 13699, Control_c, 0, 64, 92
1, 13714, Control_c, 0, 64, 94
1, 13729, Control_c, 0, 64, 96
1, 13758, Control_c, 0, 64, 98
1, 13773, Control_c, 0, 64, 100
1, 13788, Control_c, 0, 64, 102
1, 13818, Control_c, 0, 64, 105
1, 13862, Control_c, 0, 64, 107
1, 14148, Note_on_c, 0, 58, 64
1, 14158, Note_on_c, 0, 34, 44
1, 14166, Note_on_c, 0, 46, 41
1, 14241, Control_c, 0, 64, 104
1, 14256, Control_c, 0, 64, 101
1, 14270, Control_c, 0, 64, 98
1, 14285, Control_c, 0, 64, 92
1, 14300, Control_c, 0, 64, 87
1, 14315, Control_c, 0, 64, 81
1, 14330, Control_c, 0, 64, 75
1, 14345, Control_c, 0, 64, 70
1, 14360, Control_c, 0, 64, 65
1, 14375, Control_c, 0, 64, 60
1, 14389, Control_c, 0, 64, 50
1, 14404, Control_c, 0, 64, 37
1, 14419, Control_c, 0, 64, 0
1, 14581, Control_c, 0, 64, 39
1, 14596, Control_c, 0, 64, 45
1, 14612, Control_c, 0, 64, 48
1, 14627, Control_c, 0, 64, 52
1, 14642, Control_c, 0, 64, 57
1, 14656, Control_c, 0, 64, 60
1, 14656, Control_c, 0, 67, 21
1, 14671, Control_c, 0, 64, 62
1, 14671, Control_c, 0, 67, 24
1, 14686, Control_c, 0, 64, 64
1, 14686, Control_c, 0, 67, 28
1, 14701, Control_c, 0, 64, 66
1, 14701, Control_c, 0, 67, 32
1, 14715, Control_c, 0, 64, 67
1, 14715, Control_c, 0, 67, 38
1, 14731, Control_c, 0, 64, 70
1, 14731, Control_c, 0, 67, 45
1, 14746, Control_c, 0, 64, 72
1, 14746, Control_c, 0, 67, 53
1, 14768, Control_c, 0, 64, 74
1, 14768, Control_c, 0, 67, 63
1, 14783, Control_c, 0, 64, 75
1, 14783, Control_c, 0, 67, 74
1, 14798, Control_c, 0, 64, 77
1, 14798, Control_c, 0, 67, 87
1, 14813, Control_c, 0, 64, 78
1, 14813, Control_c, 0, 67, 99
1, 14828, Control_c, 0, 64, 80
1, 14828, Control_c, 0, 67, 108
1, 14843, Control_c, 0, 64, 82
1, 14843, Control_c, 0, 67, 115
1, 14858, Control_c, 0, 64, 85
1, 14858, Control_c, 0, 67, 122
1, 14873, Control_c, 0, 64, 87
1, 14873, Control_c, 0, 67, 127
1, 14887, Control_c, 0, 64, 89
1, 14902, Control_c, 0, 64, 91
1, 14917, Control_c, 0, 64, 92
1, 14932, Control_c, 0, 64, 93
1, 14946, Control_c, 0, 64, 94
1, 14961, Control_c, 0, 64, 97
1, 14976, Control_c, 0, 64, 100
1, 14991, Control_c, 0, 64, 102
1, 15050, Control_c, 0, 64, 104
1, 15372, Note_off_c, 0, 34, 38
1, 15531, Control_c, 0, 64, 106
1, 15632, Note_off_c, 0, 46, 44
1, 16242, Control_c, 0, 64, 103
1, 16263, Note_on_c, 0, 49, 28
1, 16265, Control_c, 0, 64, 99
1, 16268, Note_on_c, 0, 61, 41
1, 16280, Note_on_c, 0, 37, 29
1, 16280, Control_c, 0, 64, 91
1, 16294, Control_c, 0, 64, 81
1, 16297, Note_off_c, 0, 58, 33
1, 16309, Control_c, 0, 64, 69
1, 16324, Control_c, 0, 64, 56
1, 16339, Control_c, 0, 64, 34
1, 16354, Control_c, 0, 64, 0
1, 16384, Control_c, 0, 64, 38
1, 16399, Control_c, 0, 64, 45
1, 16414, Control_c, 0, 64, 51
1, 16429, Control_c, 0, 64, 58
1, 16444, Control_c, 0, 64, 63
1, 16458, Control_c, 0, 64, 67
1, 16460, Note_off_c, 0, 37, 41
1, 16473, Control_c, 0, 64, 71
1, 16488, Control_c, 0, 64, 74
1, 16503, Control_c, 0, 64, 76
1, 16517, Control_c, 0, 64, 78
1, 16532, Control_c, 0, 64, 80
1, 16547, Control_c, 0, 64, 81
1, 16554, Note_off_c, 0, 49, 53
1, 16562, Control_c, 0, 64, 82
1, 16577, Control_c, 0, 64, 83
1, 16591, Control_c, 0, 64, 84
1, 16606, Control_c, 0, 64, 84
1, 16621, Control_c, 0, 64, 85
1, 16651, Control_c, 0, 64, 85
1, 16737, Note_off_c, 0, 61, 55
1, 16795, Note_on_c, 0, 40, 28
1, 16796, Note_on_c, 0, 52, 31
1, 16798, Control_c, 0, 64, 84
1, 16813, Control_c, 0, 64, 81
1, 16828, Note_on_c, 0, 64, 35
1, 16828, Control_c, 0, 64, 74
1, 16843, Control_c, 0, 64, 66
1, 16858, Control_c, 0, 64, 54
1, 16873, Control_c, 0, 64, 0
1, 16918, Control_c, 0, 64, 36
1, 16932, Control_c, 0, 64, 45
1, 16947, Control_c, 0, 64, 55
1, 16962, Control_c, 0, 64, 62
1, 16977, Control_c, 0, 64, 67
1, 16992, Control_c, 0, 64, 70
1, 17014, Control_c, 0, 64, 73
1, 17029, Control_c, 0, 64, 74
1, 17043, Control_c, 0, 64, 75
1, 17058, Control_c, 0, 64, 76
1, 17073, Control_c, 0, 64, 77
1, 17088, Control_c, 0, 64, 77
1, 17118, Note_off_c, 0, 64, 52
1, 17162, Note_on_c, 0, 65, 37
1, 17222, Control_c, 0, 64, 77
1, 17225, Note_on_c, 0, 64, 25
1, 17225, Note_off_c, 0, 65, 41
1, 17237, Control_c, 0, 64, 73
1, 17252, Control_c, 0, 64, 67
1, 17257, Note_off_c, 0, 64, 56
1, 17267, Control_c, 0, 64, 59
1, 17281, Control_c, 0, 64, 37
1, 17286, Note_on_c, 0, 62, 34
1, 17296, Control_c, 0, 64, 0
1, 17333, Note_off_c, 0, 62, 49
1, 17341, Control_c, 0, 64, 40
1, 17356, Control_c, 0, 64, 51
1, 17367, Note_on_c, 0, 64, 38
1, 17371, Control_c, 0, 64, 62
1, 17386, Control_c, 0, 64, 66
1, 17400, Control_c, 0, 64, 70
1, 17415, Control_c, 0, 64, 73
1, 17430, Control_c, 0, 64, 75
1, 17430, Note_off_c, 0, 40, 38
1, 17445, Control_c, 0, 64, 76
1, 17459, Control_c, 0, 64, 77
1, 17463, Note_off_c, 0, 52, 40
1, 17474, Control_c, 0, 64, 78
1, 17489, Control_c, 0, 64, 79
1, 17563, Control_c, 0, 64, 79
1, 17604, Note_on_c, 0, 41, 39
1, 17612, Note_on_c, 0, 65, 48
1, 17624, Note_on_c, 0, 53, 33
1, 17645, Note_off_c, 0, 41, 47
1, 17680, Note_off_c, 0, 53, 57
1, 17683, Note_off_c, 0, 64, 30
1, 17807, Control_c, 0, 64, 79
1, 17822, Control_c, 0, 64, 78
1, 17837, Control_c, 0, 64, 76
1, 17852, Control_c, 0, 64, 71
1, 17866, Control_c, 0, 64, 65
1, 17881, Note_on_c, 0, 43, 39
1, 17881, Control_c, 0, 64, 50
1, 17889, Note_off_c, 0, 65, 50
1, 17896, Note_on_c, 0, 67, 39
1, 17896, Control_c, 0, 64, 0
1, 17932, Poly_aftertouch_c, 0, 55, 127
1, 17957, Control_c, 0, 64, 35
1, 17971, Control_c, 0, 64, 51
1, 17986, Poly_aftertouch_c, 0, 55, 0
1, 17986, Control_c, 0, 64, 62
1, 18001, Control_c, 0, 64, 67
1, 18016, Control_c, 0, 64, 71
1, 18030, Control_c, 0, 64, 74
1, 18045, Control_c, 0, 64, 76
1, 18060, Control_c, 0, 64, 77
1, 18075, Control_c, 0, 64, 79
1, 18089, Control_c, 0, 64, 80
1, 18104, Control_c, 0, 64, 82
1, 18107, Note_off_c, 0, 43, 56
1, 18119, Control_c, 0, 64, 83
1, 18134, Control_c, 0, 64, 83
1, 18149, Control_c, 0, 64, 84
1, 18164, Control_c, 0, 64, 84
1, 18193, Control_c, 0, 64, 85
1, 18238, Control_c, 0, 64, 85
1, 18296, Note_off_c, 0, 67, 30
1, 18394, Note_on_c, 0, 58, 37
1, 18406, Note_on_c, 0, 46, 32
1, 18416, Control_c, 0, 64, 84
1, 18424, Note_on_c, 0, 34, 20
1, 18430, Control_c, 0, 64, 82
1, 18445, Control_c, 0, 64, 78
1, 18460, Control_c, 0, 64, 72
1, 18474, Control_c, 0, 64, 62
1, 18489, Control_c, 0, 64, 47
1, 18512, Control_c, 0, 64, 0
1, 18556, Control_c, 0, 64, 39
1, 18571, Control_c, 0, 64, 46
1, 18586, Control_c, 0, 64, 52
1, 18601, Control_c, 0, 64, 59
1, 18615, Control_c, 0, 64, 63
1, 18630, Note_off_c, 0, 46, 46
1, 18630, Control_c, 0, 64, 66
1, 18645, Control_c, 0, 64, 69
1, 18660, Control_c, 0, 64, 72
1, 18675, Control_c, 0, 64, 74
1, 18689, Control_c, 0, 64, 76
1, 18704, Control_c, 0, 64, 78
1, 18719, Control_c, 0, 64, 79
1, 18735, Control_c, 0, 64, 81
1, 18750, Control_c, 0, 64, 83
1, 18765, Control_c, 0, 64, 85
1, 18779, Control_c, 0, 64, 86
1, 18794, Control_c, 0, 64, 86
1, 18809, Control_c, 0, 64, 87
1, 18839, Control_c, 0, 64, 88
1, 19088, Note_on_c, 0, 45, 23
1, 19091, Note_on_c, 0, 57, 34
1, 19099, Note_on_c, 0, 33, 31
1, 19104, Control_c, 0, 64, 87
1, 19119, Control_c, 0, 64, 87
1, 19134, Control_c, 0, 64, 86
1, 19149, Control_c, 0, 64, 84
1, 19164, Control_c, 0, 64, 82
1, 19178, Control_c, 0, 64, 79
1, 19193, Control_c, 0, 64, 75
1, 19208, Control_c, 0, 64, 70
1, 19222, Control_c, 0, 64, 66
1, 19237, Control_c, 0, 64, 61
1, 19242, Note_off_c, 0, 58, 39
1, 19255, Note_off_c, 0, 34, 36
1, 19260, Control_c, 0, 64, 55
1, 19275, Control_c, 0, 64, 46
1, 19290, Control_c, 0, 64, 38
1, 19304, Control_c, 0, 64, 0
1, 19452, Control_c, 0, 64, 38
1, 19467, Control_c, 0, 64, 49
1, 19482, Control_c, 0, 64, 57
1, 19497, Control_c, 0, 64, 61
1, 19511, Control_c, 0, 64, 63
1, 19527, Control_c, 0, 64, 65
1, 19542, Control_c, 0, 64, 67
1, 19543, Note_off_c, 0, 33, 40
1, 19557, Control_c, 0, 64, 68
1, 19572, Control_c, 0, 64, 70
1, 19587, Control_c, 0, 64, 72
1, 19601, Control_c, 0, 64, 74
1, 19616, Control_c, 0, 64, 75
1, 19631, Control_c, 0, 64, 76
1, 19646, Control_c, 0, 64, 77
1, 19651, Note_off_c, 0, 45, 40
1, 19660, Control_c, 0, 64, 77
1, 19675, Control_c, 0, 64, 78
1, 19690, Control_c, 0, 64, 78
1, 19705, Control_c, 0, 64, 79
1, 19720, Control_c, 0, 64, 79
1, 19734, Control_c, 0, 64, 80
1, 19749, Control_c, 0, 64, 81
1, 19779, Control_c, 0, 64, 81
1, 19779, Control_c, 0, 67, 123
1, 19781, Note_off_c, 0, 57, 42
1, 19794, Control_c, 0, 67, 111
1, 19809, Control_c, 0, 67, 100
1, 19824, Control_c, 0, 67, 88
1, 19839, Control_c, 0, 67, 77
1, 19853, Control_c, 0, 67, 65
1, 19868, Control_c, 0, 67, 54
1, 19883, Control_c, 0, 67, 44
1, 19898, Control_c, 0, 67, 34
1, 19913, Control_c, 0, 67, 25
1, 19927, Control_c, 0, 67, 0
1, 19957, Control_c, 0, 64, 81
1, 20009, Control_c, 0, 64, 80
1, 20024, Control_c, 0, 64, 80
1, 20039, Control_c, 0, 64, 79
1, 20053, Control_c, 0, 64, 77
1, 20068, Control_c, 0, 64, 75
1, 20083, Control_c, 0, 64, 74
1, 20098, Control_c, 0, 64, 73
1, 20113, Control_c, 0, 64, 71
1, 20127, Control_c, 0, 64, 70
1, 20142, Control_c, 0, 64, 69
1, 20157, Control_c, 0, 64, 67
1, 20172, Control_c, 0, 64, 63
1, 20186, Control_c, 0, 64, 58
1, 20201, Control_c, 0, 64, 50
1, 20216, Control_c, 0, 64, 39
1, 20231, Control_c, 0, 64, 0
1, 20380, Control_c, 0, 64, 42
1, 20395, Control_c, 0, 64, 49
1, 20410, Control_c, 0, 64, 53
1, 20424, Control_c, 0, 64, 56
1, 20439, Control_c, 0, 64, 58
1, 20454, Control_c, 0, 64, 61
1, 20469, Control_c, 0, 64, 64
1, 20483, Control_c, 0, 64, 67
1, 20498, Control_c, 0, 64, 69
1, 20513, Control_c, 0, 64, 71
1, 20528, Control_c, 0, 64, 73
1, 20543, Control_c, 0, 64, 75
1, 20557, Control_c, 0, 64, 78
1, 20572, Control_c, 0, 64, 81
1, 20587, Control_c, 0, 64, 84
1, 20602, Control_c, 0, 64, 87
1, 20617, Control_c, 0, 64, 90
1, 20632, Control_c, 0, 64, 95
1, 20647, Control_c, 0, 64, 99
1, 20662, Control_c, 0, 64, 104
1, 20676, Control_c, 0, 64, 109
1, 20691, Control_c, 0, 64, 116
1, 20706, Control_c, 0, 64, 127
1, 20772, Control_c, 0, 67, 22
1, 20787, Control_c, 0, 67, 25
1, 20790, Note_on_c, 0, 73, 53
1, 20802, Control_c, 0, 67, 28
1, 20805, Note_on_c, 0, 70, 40
1, 20817, Control_c, 0, 67, 33
1, 20817, Note_on_c, 0, 64, 33
1, 20831, Control_c, 0, 67, 38
1, 20846, Control_c, 0, 67, 45
1, 20861, Control_c, 0, 67, 53
1, 20876, Control_c, 0, 67, 63
1, 20891, Control_c, 0, 67, 70
1, 20906, Control_c, 0, 67, 77
1, 20921, Control_c, 0, 67, 82
1, 20936, Control_c, 0, 67, 87
1, 20950, Control_c, 0, 67, 92
1, 20965, Control_c, 0, 67, 98
1, 20980, Control_c, 0, 67, 104
1, 20995, Control_c, 0, 67, 109
1, 21009, Control_c, 0, 67, 113
1, 21024, Control_c, 0, 67, 118
1, 21039, Control_c, 0, 67, 123
1, 21054, Control_c, 0, 67, 127
1, 21452, Note_on_c, 0, 72, 37
1, 21454, Control_c, 0, 64, 119
1, 21462, Note_on_c, 0, 65, 36
1, 21469, Control_c, 0, 64, 112
1, 21469, Note_on_c, 0, 69, 34
1, 21471, Note_off_c, 0, 70, 38
1, 21484, Control_c, 0, 64, 107
1, 21505, Control_c, 0, 64, 102
1, 21520, Control_c, 0, 64, 97
1, 21535, Control_c, 0, 64, 90
1, 21542, Note_off_c, 0, 73, 28
1, 21550, Note_off_c, 0, 64, 41
1, 21550, Control_c, 0, 64, 82
1, 21565, Control_c, 0, 64, 72
1, 21580, Control_c, 0, 64, 64
1, 21595, Control_c, 0, 64, 53
1, 21609, Control_c, 0, 64, 40
1, 21624, Control_c, 0, 64, 0
1, 21713, Note_off_c, 0, 65, 58
1, 21723, Note_off_c, 0, 69, 46
1, 21766, Note_off_c, 0, 72, 63
1, 21861, Control_c, 0, 64, 39
1, 21876, Control_c, 0, 64, 49
1, 21891, Control_c, 0, 64, 56
1, 21905, Control_c, 0, 64, 60
1, 21921, Control_c, 0, 64, 62
1, 21936, Control_c, 0, 64, 63
1, 21951, Control_c, 0, 64, 65
1, 21966, Control_c, 0, 64, 67
1, 21981, Control_c, 0, 64, 70
1, 21995, Control_c, 0, 64, 72
1, 22010, Control_c, 0, 64, 74
1, 22025, Control_c, 0, 64, 76
1, 22040, Control_c, 0, 64, 78
1, 22054, Control_c, 0, 64, 81
1, 22069, Control_c, 0, 64, 83
1, 22084, Control_c, 0, 64, 85
1, 22100, Control_c, 0, 64, 87
1, 22115, Control_c, 0, 64, 89
1, 22129, Control_c, 0, 64, 90
1, 22144, Control_c, 0, 64, 91
1, 22159, Control_c, 0, 64, 92
1, 22174, Control_c, 0, 64, 93
1, 22189, Control_c, 0, 64, 93
1, 22203, Control_c, 0, 64, 94
1, 22252, Note_on_c, 0, 70, 44
1, 22255, Control_c, 0, 64, 94
1, 22258, Note_on_c, 0, 76, 38
1, 22261, Note_on_c, 0, 73, 34
1, 22285, Control_c, 0, 64, 95
1, 22315, Control_c, 0, 64, 95
1, 23150, Note_on_c, 0, 69, 29
1, 23152, Note_on_c, 0, 77, 35
1, 23167, Control_c, 0, 64, 95
1, 23176, Note_on_c, 0, 72, 20
1, 23182, Control_c, 0, 64, 94
1, 23196, Control_c, 0, 64, 94
1, 23211, Control_c, 0, 64, 93
1, 23226, Control_c, 0, 64, 91
1, 23241, Control_c, 0, 64, 87
1, 23256, Control_c, 0, 64, 83
1, 23270, Control_c, 0, 64, 80
1, 23285, Control_c, 0, 64, 76
1, 23300, Control_c, 0, 64, 70
1, 23312, Note_off_c, 0, 73, 32
1, 23314, Note_off_c, 0, 70, 38
1, 23315, Control_c, 0, 64, 64
1, 23320, Note_off_c, 0, 76, 35
1, 23330, Control_c, 0, 64, 56
1, 23344, Control_c, 0, 64, 42
1, 23359, Control_c, 0, 64, 0
1, 23508, Control_c, 0, 64, 37
1, 23523, Control_c, 0, 64, 43
1, 23538, Control_c, 0, 64, 46
1, 23553, Control_c, 0, 64, 50
1, 23568, Control_c, 0, 64, 54
1, 23583, Control_c, 0, 64, 58
1, 23598, Control_c, 0, 64, 61
1, 23613, Control_c, 0, 64, 63
1, 23627, Control_c, 0, 64, 65
1, 23642, Control_c, 0, 64, 67
1, 23657, Control_c, 0, 64, 69
1, 23672, Control_c, 0, 64, 72
1, 23687, Control_c, 0, 64, 74
1, 23701, Control_c, 0, 64, 77
1, 23716, Control_c, 0, 64, 80
1, 23731, Control_c, 0, 64, 82
1, 23753, Control_c, 0, 64, 86
1, 23768, Control_c, 0, 64, 88
1, 23783, Control_c, 0, 64, 90
1, 23797, Control_c, 0, 64, 90
1, 23812, Control_c, 0, 64, 91
1, 23827, Control_c, 0, 64, 91
1, 23842, Control_c, 0, 64, 93
1, 23857, Control_c, 0, 64, 95
1, 23872, Control_c, 0, 64, 95
1, 23916, Control_c, 0, 64, 96
1, 23976, Note_off_c, 0, 69, 10
1, 24035, Note_off_c, 0, 77, 41
1, 24313, Note_off_c, 0, 72, 22
1, 24362, Control_c, 0, 64, 95
1, 24406, Control_c, 0, 64, 95
1, 24547, Control_c, 0, 64, 94
1, 24621, Control_c, 0, 64, 94
1, 24843, Control_c, 0, 64, 93
1, 24873, Control_c, 0, 64, 93
1, 24903, Control_c, 0, 64, 92
1, 24917, Control_c, 0, 64, 92
1, 24932, Control_c, 0, 64, 91
1, 24947, Control_c, 0, 64, 90
1, 24962, Control_c, 0, 64, 89
1, 24976, Control_c, 0, 64, 88
1, 24991, Control_c, 0, 64, 86
1, 25006, Control_c, 0, 64, 84
1, 25021, Control_c, 0, 64, 82
1, 25036, Control_c, 0, 64, 81
1, 25050, Control_c, 0, 64, 79
1, 25065, Control_c, 0, 64, 77
1, 25080, Control_c, 0, 64, 75
1, 25095, Control_c, 0, 64, 72
1, 25110, Control_c, 0, 64, 71
1, 25126, Control_c, 0, 64, 69
1, 25140, Control_c, 0, 64, 67
1, 25155, Control_c, 0, 64, 65
1, 25170, Control_c, 0, 64, 64
1, 25185, Control_c, 0, 64, 63
1, 25199, Control_c, 0, 64, 62
1, 25214, Control_c, 0, 64, 61
1, 25229, Control_c, 0, 64, 60
1, 25281, Control_c, 0, 64, 60
1, 25296, Control_c, 0, 64, 59
1, 25311, Control_c, 0, 64, 58
1, 25326, Control_c, 0, 64, 57
1, 25341, Control_c, 0, 64, 56
1, 25355, Control_c, 0, 64, 55
1, 25370, Control_c, 0, 64, 54
1, 25385, Control_c, 0, 64, 52
1, 25399, Control_c, 0, 64, 50
1, 25399, Control_c, 0, 67, 121
1, 25414, Control_c, 0, 64, 49
1, 25414, Control_c, 0, 67, 115
1, 25429, Control_c, 0, 67, 110
1, 25444, Control_c, 0, 64, 48
1, 25444, Control_c, 0, 67, 105
1, 25459, Control_c, 0, 64, 47
1, 25459, Control_c, 0, 67, 100
1, 25473, Control_c, 0, 64, 44
1, 25473, Control_c, 0, 67, 96
1, 25488, Control_c, 0, 64, 36
1, 25488, Control_c, 0, 67, 92
1, 25503, Control_c, 0, 64, 0
1, 25503, Control_c, 0, 67, 88
1, 25518, Control_c, 0, 67, 84
1, 25532, Control_c, 0, 67, 80
1, 25547, Control_c, 0, 67, 76
1, 25562, Control_c, 0, 67, 72
1, 25577, Control_c, 0, 67, 68
1, 25592, Control_c, 0, 67, 62
1, 25607, Control_c, 0, 67, 55
1, 25622, Control_c, 0, 67, 47
1, 25637, Control_c, 0, 67, 39
1, 25652, Control_c, 0, 67, 30
1, 25666, Control_c, 0, 67, 22
1, 25681, Control_c, 0, 67, 0
1, 25755, Control_c, 0, 64, 38
1, 25770, Control_c, 0, 64, 44
1, 25785, Control_c, 0, 64, 48
1, 25799, Control_c, 0, 64, 52
1, 25814, Control_c, 0, 64, 55
1, 25829, Control_c, 0, 64, 59
1, 25843, Control_c, 0, 64, 62
1, 25858, Control_c, 0, 64, 63
1, 25872, Control_c, 0, 64, 65
1, 25887, Control_c, 0, 64, 67
1, 25902, Control_c, 0, 64, 69
1, 25918, Control_c, 0, 64, 71
1, 25933, Control_c, 0, 64, 74
1, 25948, Control_c, 0, 64, 76
1, 25962, Control_c, 0, 64, 79
1, 25977, Control_c, 0, 64, 82
1, 26000, Control_c, 0, 64, 85
1, 26015, Control_c, 0, 64, 87
1, 26029, Control_c, 0, 64, 89
1, 26044, Control_c, 0, 64, 92
1, 26059, Control_c, 0, 64, 94
1, 26074, Control_c, 0, 64, 96
1, 26089, Control_c, 0, 64, 98
1, 26118, Control_c, 0, 64, 100
1, 26148, Control_c, 0, 64, 103
1, 26192, Control_c, 0, 64, 105
1, 26867, Note_on_c, 0, 32, 44
1, 26868, Note_on_c, 0, 44, 41
1, 26868, Note_on_c, 0, 56, 59
1, 26941, Control_c, 0, 64, 101
1, 26956, Control_c, 0, 64, 97
1, 26970, Control_c, 0, 64, 91
1, 26985, Control_c, 0, 64, 84
1, 27000, Control_c, 0, 64, 77
1, 27015, Control_c, 0, 64, 69
1, 27030, Control_c, 0, 64, 62
1, 27044, Control_c, 0, 64, 47
1, 27059, Control_c, 0, 64, 0
1, 27193, Control_c, 0, 64, 35
1, 27208, Control_c, 0, 64, 43
1, 27222, Control_c, 0, 64, 47
1, 27237, Control_c, 0, 64, 53
1, 27252, Control_c, 0, 64, 60
1, 27267, Control_c, 0, 64, 64
1, 27282, Control_c, 0, 64, 66
1, 27297, Control_c, 0, 64, 69
1, 27311, Control_c, 0, 64, 71
1, 27326, Control_c, 0, 64, 73
1, 27326, Control_c, 0, 67, 19
1, 27342, Control_c, 0, 64, 76
1, 27342, Control_c, 0, 67, 24
1, 27357, Control_c, 0, 64, 79
1, 27357, Control_c, 0, 67, 28
1, 27371, Control_c, 0, 64, 82
1, 27371, Control_c, 0, 67, 35
1, 27386, Control_c, 0, 64, 86
1, 27386, Control_c, 0, 67, 48
1, 27401, Control_c, 0, 64, 90
1, 27401, Control_c, 0, 67, 61
1, 27416, Control_c, 0, 64, 94
1, 27416, Control_c, 0, 67, 72
1, 27431, Control_c, 0, 64, 100
1, 27431, Control_c, 0, 67, 81
1, 27445, Control_c, 0, 64, 104
1, 27445, Control_c, 0, 67, 93
1, 27460, Control_c, 0, 64, 108
1, 27460, Control_c, 0, 67, 107
1, 27475, Control_c, 0, 64, 112
1, 27475, Control_c, 0, 67, 120
1, 27497, Control_c, 0, 64, 115
1, 27497, Control_c, 0, 67, 127
1, 27512, Control_c, 0, 64, 120
1, 27528, Control_c, 0, 64, 127
1, 27811, Note_off_c, 0, 32, 36
1, 28319, Note_off_c, 0, 44, 43
1, 29026, Note_on_c, 0, 36, 31
1, 29035, Note_on_c, 0, 48, 20
1, 29042, Note_on_c, 0, 60, 34
1, 29069, Control_c, 0, 64, 124
1, 29084, Control_c, 0, 64, 106
1, 29098, Control_c, 0, 64, 94
1, 29107, Note_off_c, 0, 56, 36
1, 29114, Control_c, 0, 64, 82
1, 29129, Control_c, 0, 64, 68
1, 29144, Control_c, 0, 64, 55
1, 29159, Control_c, 0, 64, 0
1, 29218, Control_c, 0, 64, 42
1, 29233, Control_c, 0, 64, 50
1, 29247, Control_c, 0, 64, 59
1, 29262, Control_c, 0, 64, 65
1, 29277, Control_c, 0, 64, 70
1, 29292, Control_c, 0, 64, 75
1, 29307, Control_c, 0, 64, 78
1, 29321, Control_c, 0, 64, 80
1, 29329, Note_off_c, 0, 48, 40
1, 29336, Control_c, 0, 64, 82
1, 29351, Control_c, 0, 64, 84
1, 29366, Control_c, 0, 64, 86
1, 29381, Control_c, 0, 64, 89
1, 29396, Control_c, 0, 64, 92
1, 29410, Control_c, 0, 64, 93
1, 29425, Control_c, 0, 64, 94
1, 29573, Control_c, 0, 64, 93
1, 29586, Note_on_c, 0, 61, 40
1, 29588, Control_c, 0, 64, 90
1, 29603, Control_c, 0, 64, 84
1, 29606, Note_on_c, 0, 37, 30
1, 29610, Note_on_c, 0, 49, 26
1, 29618, Control_c, 0, 64, 76
1, 29629, Note_off_c, 0, 60, 28
1, 29632, Control_c, 0, 64, 65
1, 29647, Control_c, 0, 64, 50
1, 29658, Note_off_c, 0, 36, 36
1, 29662, Control_c, 0, 64, 0
1, 29721, Control_c, 0, 64, 38
1, 29744, Control_c, 0, 64, 49
1, 29759, Control_c, 0, 64, 59
1, 29773, Control_c, 0, 64, 65
1, 29779, Note_off_c, 0, 37, 49
1, 29788, Control_c, 0, 64, 69
1, 29803, Control_c, 0, 64, 73
1, 29818, Control_c, 0, 64, 75
1, 29833, Control_c, 0, 64, 77
1, 29847, Control_c, 0, 64, 80
1, 29862, Control_c, 0, 64, 82
1, 29877, Control_c, 0, 64, 85
1, 29891, Control_c, 0, 64, 89
1, 29906, Control_c, 0, 64, 92
1, 29923, Control_c, 0, 64, 96
1, 29967, Control_c, 0, 64, 98
1, 30085, Control_c, 0, 64, 95
1, 30096, Note_off_c, 0, 49, 41
1, 30100, Control_c, 0, 64, 86
1, 30101, Note_on_c, 0, 65, 41
1, 30110, Note_on_c, 0, 41, 26
1, 30110, Note_on_c, 0, 53, 23
1, 30114, Control_c, 0, 64, 74
1, 30129, Control_c, 0, 64, 62
1, 30144, Control_c, 0, 64, 50
1, 30149, Note_off_c, 0, 61, 35
1, 30159, Control_c, 0, 64, 45
1, 30174, Control_c, 0, 64, 48
1, 30178, Note_off_c, 0, 41, 0
1, 30188, Control_c, 0, 64, 51
1, 30203, Control_c, 0, 64, 55
1, 30215, Poly_aftertouch_c, 0, 41, 127
1, 30218, Control_c, 0, 64, 59
1, 30233, Control_c, 0, 64, 63
1, 30248, Control_c, 0, 64, 67
1, 30263, Control_c, 0, 64, 71
1, 30278, Control_c, 0, 64, 75
1, 30289, Poly_aftertouch_c, 0, 41, 0
1, 30293, Control_c, 0, 64, 77
1, 30307, Control_c, 0, 64, 79
1, 30322, Control_c, 0, 64, 82
1, 30323, Note_off_c, 0, 53, 41
1, 30337, Control_c, 0, 64, 84
1, 30352, Control_c, 0, 64, 85
1, 30367, Control_c, 0, 64, 87
1, 30381, Control_c, 0, 64, 89
1, 30396, Control_c, 0, 64, 91
1, 30411, Control_c, 0, 64, 92
1, 30426, Control_c, 0, 64, 94
1, 30441, Control_c, 0, 64, 95
1, 30455, Control_c, 0, 64, 96
1, 30664, Note_on_c, 0, 44, 28
1, 30668, Note_on_c, 0, 68, 36
1, 30682, Note_on_c, 0, 56, 10
1, 30716, Control_c, 0, 64, 95
1, 30731, Control_c, 0, 64, 92
1, 30745, Control_c, 0, 64, 86
1, 30760, Control_c, 0, 64, 77
1, 30775, Control_c, 0, 64, 68
1, 30782, Note_off_c, 0, 65, 34
1, 30790, Control_c, 0, 64, 58
1, 30805, Control_c, 0, 64, 42
1, 30819, Control_c, 0, 64, 0
1, 30834, Control_c, 0, 64, 37
1, 30849, Control_c, 0, 64, 43
1, 30864, Control_c, 0, 64, 49
1, 30879, Control_c, 0, 64, 54
1, 30893, Control_c, 0, 64, 60
1, 30908, Control_c, 0, 64, 65
1, 30923, Control_c, 0, 64, 70
1, 30937, Control_c, 0, 64, 74
1, 30952, Control_c, 0, 64, 76
1, 30967, Control_c, 0, 64, 78
1, 30982, Control_c, 0, 64, 80
1, 30997, Control_c, 0, 64, 82
1, 31011, Control_c, 0, 64, 83
1, 31026, Control_c, 0, 64, 85
1, 31041, Note_off_c, 0, 56, 35
1, 31041, Control_c, 0, 64, 87
1, 31056, Control_c, 0, 64, 89
1, 31071, Control_c, 0, 64, 90
1, 31086, Control_c, 0, 64, 91
1, 31130, Control_c, 0, 64, 91
1, 31176, Note_off_c, 0, 44, 41
1, 31283, Note_on_c, 0, 61, 39
1, 31315, Control_c, 0, 64, 91
1, 31330, Control_c, 0, 64, 90
1, 31345, Control_c, 0, 64, 87
1, 31360, Control_c, 0, 64, 83
1, 31375, Control_c, 0, 64, 77
1, 31387, Note_off_c, 0, 68, 39
1, 31390, Control_c, 0, 64, 70
1, 31405, Control_c, 0, 64, 61
1, 31419, Control_c, 0, 64, 46
1, 31434, Control_c, 0, 64, 39
1, 31449, Control_c, 0, 64, 41
1, 31463, Control_c, 0, 64, 45
1, 31478, Control_c, 0, 64, 49
1, 31493, Control_c, 0, 64, 52
1, 31509, Control_c, 0, 64, 57
1, 31524, Control_c, 0, 64, 64
1, 31539, Control_c, 0, 64, 68
1, 31554, Control_c, 0, 64, 73
1, 31568, Control_c, 0, 64, 76
1, 31583, Control_c, 0, 64, 79
1, 31598, Control_c, 0, 64, 81
1, 31613, Control_c, 0, 64, 83
1, 31628, Control_c, 0, 64, 85
1, 31642, Control_c, 0, 64, 88
1, 31657, Control_c, 0, 64, 90
1, 31672, Control_c, 0, 64, 92
1, 31686, Control_c, 0, 64, 93
1, 31701, Control_c, 0, 64, 94
1, 31716, Control_c, 0, 64, 94
1, 31731, Control_c, 0, 64, 95
1, 31746, Control_c, 0, 64, 95
1, 31760, Control_c, 0, 64, 96
1, 32123, Note_on_c, 0, 44, 27
1, 32145, Note_on_c, 0, 60, 34
1, 32183, Control_c, 0, 64, 94
1, 32198, Control_c, 0, 64, 89
1, 32213, Control_c, 0, 64, 82
1, 32227, Control_c, 0, 64, 76
1, 32242, Control_c, 0, 64, 69
1, 32249, Note_off_c, 0, 61, 38
1, 32257, Control_c, 0, 64, 62
1, 32272, Control_c, 0, 64, 47
1, 32286, Control_c, 0, 64, 0
1, 32317, Control_c, 0, 64, 33
1, 32332, Control_c, 0, 64, 40
1, 32347, Control_c, 0, 64, 48
1, 32362, Control_c, 0, 64, 57
1, 32376, Control_c, 0, 64, 64
1, 32391, Control_c, 0, 64, 68
1, 32406, Control_c, 0, 64, 73
1, 32421, Control_c, 0, 64, 76
1, 32436, Control_c, 0, 64, 78
1, 32451, Control_c, 0, 64, 81
1, 32465, Control_c, 0, 64, 84
1, 32480, Control_c, 0, 64, 86
1, 32495, Control_c, 0, 64, 89
1, 32505, Note_on_c, 0, 54, 24
1, 32509, Control_c, 0, 64, 94
1, 32524, Control_c, 0, 64, 98
1, 32539, Control_c, 0, 64, 102
1, 32554, Control_c, 0, 64, 104
1, 32569, Control_c, 0, 64, 106
1, 32599, Control_c, 0, 64, 110
1, 32629, Control_c, 0, 64, 112
1, 32702, Control_c, 0, 64, 114
1, 32741, Note_off_c, 0, 54, 39
1, 32770, Note_on_c, 0, 51, 26
1, 32952, Note_off_c, 0, 44, 41
1, 33005, Note_on_c, 0, 54, 21
1, 33230, Note_off_c, 0, 54, 36
1, 33239, Note_on_c, 0, 44, 25
1, 33443, Note_off_c, 0, 51, 39
1, 33459, Note_on_c, 0, 54, 25
1, 33566, Note_off_c, 0, 54, 0
1, 33603, Poly_aftertouch_c, 0, 54, 127
1, 33673, Note_on_c, 0, 51, 32
1, 33674, Poly_aftertouch_c, 0, 54, 0
1, 33685, Note_off_c, 0, 60, 44
1, 33686, Note_on_c, 0, 62, 44
1, 33851, Note_off_c, 0, 44, 43
1, 33879, Note_on_c, 0, 54, 33
1, 34128, Note_on_c, 0, 44, 29
1, 34128, Note_off_c, 0, 54, 34
1, 34136, Note_on_c, 0, 63, 46
1, 34154, Control_c, 0, 64, 111
1, 34169, Control_c, 0, 64, 103
1, 34184, Control_c, 0, 64, 92
1, 34199, Control_c, 0, 64, 79
1, 34214, Control_c, 0, 64, 66
1, 34236, Control_c, 0, 64, 55
1, 34240, Note_off_c, 0, 62, 34
1, 34251, Control_c, 0, 64, 44
1, 34266, Control_c, 0, 64, 46
1, 34280, Control_c, 0, 64, 49
1, 34295, Control_c, 0, 64, 52
1, 34310, Control_c, 0, 64, 55
1, 34317, Note_off_c, 0, 51, 43
1, 34325, Control_c, 0, 64, 59
1, 34340, Control_c, 0, 64, 63
1, 34350, Note_on_c, 0, 54, 26
1, 34354, Control_c, 0, 64, 67
1, 34369, Control_c, 0, 64, 71
1, 34384, Control_c, 0, 64, 75
1, 34399, Control_c, 0, 64, 78
1, 34414, Control_c, 0, 64, 80
1, 34428, Control_c, 0, 64, 81
1, 34443, Control_c, 0, 64, 82
1, 34473, Control_c, 0, 64, 82
1, 34487, Control_c, 0, 64, 83
1, 34502, Control_c, 0, 64, 85
1, 34517, Control_c, 0, 64, 86
1, 34532, Control_c, 0, 64, 87
1, 34547, Control_c, 0, 64, 89
1, 34553, Note_off_c, 0, 54, 38
1, 34561, Control_c, 0, 64, 91
1, 34563, Note_on_c, 0, 51, 32
1, 34576, Control_c, 0, 64, 92
1, 34583, Note_on_c, 0, 66, 45
1, 34591, Control_c, 0, 64, 93
1, 34600, Note_off_c, 0, 63, 58
1, 34606, Control_c, 0, 64, 94
1, 34621, Control_c, 0, 64, 95
1, 34651, Control_c, 0, 64, 97
1, 34711, Control_c, 0, 64, 100
1, 34714, Note_off_c, 0, 44, 37
1, 34776, Note_on_c, 0, 54, 29
1, 34785, Control_c, 0, 67, 117
1, 34800, Control_c, 0, 67, 106
1, 34815, Control_c, 0, 67, 94
1, 34830, Control_c, 0, 67, 83
1, 34845, Control_c, 0, 67, 74
1, 34860, Control_c, 0, 67, 67
1, 34874, Control_c, 0, 67, 62
1, 34889, Control_c, 0, 67, 59
1, 34904, Control_c, 0, 67, 57
1, 34919, Control_c, 0, 67, 54
1, 34934, Control_c, 0, 67, 52
1, 34949, Control_c, 0, 67, 51
1, 34964, Control_c, 0, 67, 50
1, 34985, Control_c, 0, 67, 49
1, 35000, Control_c, 0, 67, 48
1, 35015, Control_c, 0, 67, 46
1, 35029, Control_c, 0, 64, 98
1, 35029, Control_c, 0, 67, 45
1, 35032, Note_on_c, 0, 44, 25
1, 35044, Control_c, 0, 64, 96
1, 35044, Control_c, 0, 67, 43
1, 35059, Note_off_c, 0, 54, 32
1, 35059, Control_c, 0, 64, 91
1, 35059, Control_c, 0, 67, 41
1, 35074, Control_c, 0, 64, 84
1, 35074, Control_c, 0, 67, 39
1, 35080, Note_on_c, 0, 70, 42
1, 35089, Control_c, 0, 64, 76
1, 35089, Control_c, 0, 67, 37
1, 35104, Control_c, 0, 64, 66
1, 35104, Control_c, 0, 67, 35
1, 35119, Control_c, 0, 64, 55
1, 35119, Control_c, 0, 67, 33
1, 35134, Control_c, 0, 64, 36
1, 35134, Control_c, 0, 67, 30
1, 35149, Control_c, 0, 64, 0
1, 35149, Control_c, 0, 67, 27
1, 35152, Note_off_c, 0, 66, 52
1, 35164, Control_c, 0, 67, 24
1, 35178, Control_c, 0, 67, 20
1, 35193, Control_c, 0, 67, 0
1, 35208, Control_c, 0, 64, 41
1, 35223, Control_c, 0, 64, 50
1, 35237, Control_c, 0, 64, 58
1, 35252, Control_c, 0, 64, 63
1, 35261, Note_off_c, 0, 51, 42
1, 35267, Control_c, 0, 64, 68
1, 35282, Control_c, 0, 64, 74
1, 35294, Note_on_c, 0, 54, 25
1, 35297, Control_c, 0, 64, 82
1, 35311, Control_c, 0, 64, 91
1, 35326, Control_c, 0, 64, 98
1, 35341, Control_c, 0, 64, 109
1, 35356, Control_c, 0, 64, 127
1, 35500, Note_off_c, 0, 54, 40
1, 35515, Note_on_c, 0, 51, 32
1, 35530, Note_on_c, 0, 60, 48
1, 35630, Note_off_c, 0, 70, 31
1, 35693, Note_off_c, 0, 60, 53
1, 35716, Note_off_c, 0, 44, 37
1, 35763, Note_on_c, 0, 54, 40
1, 35843, Note_off_c, 0, 54, 50
1, 36138, Note_on_c, 0, 44, 30
1, 36218, Note_on_c, 0, 61, 57
1, 36298, Control_c, 0, 64, 124
1, 36313, Control_c, 0, 64, 86
1, 36327, Control_c, 0, 64, 69
1, 36341, Note_off_c, 0, 51, 40
1, 36342, Control_c, 0, 64, 52
1, 36356, Control_c, 0, 64, 0
1, 36416, Control_c, 0, 64, 40
1, 36430, Control_c, 0, 64, 51
1, 36445, Control_c, 0, 64, 60
1, 36460, Control_c, 0, 64, 65
1, 36482, Control_c, 0, 64, 70
1, 36497, Control_c, 0, 64, 74
1, 36512, Control_c, 0, 64, 79
1, 36523, Note_on_c, 0, 53, 31
1, 36527, Control_c, 0, 64, 84
1, 36542, Control_c, 0, 64, 90
1, 36556, Control_c, 0, 64, 98
1, 36571, Control_c, 0, 64, 107
1, 36586, Control_c, 0, 64, 127
1, 36758, Note_on_c, 0, 49, 36
1, 36786, Note_off_c, 0, 53, 35
1, 36952, Note_off_c, 0, 44, 43
1, 36969, Note_on_c, 0, 53, 34
1, 37180, Note_off_c, 0, 61, 40
1, 37191, Note_off_c, 0, 53, 35
1, 37201, Note_on_c, 0, 44, 30
1, 37417, Note_on_c, 0, 53, 26
1, 37426, Note_off_c, 0, 49, 38
1, 37660, Note_on_c, 0, 49, 26
1, 37674, Note_off_c, 0, 53, 33
1, 37694, Note_on_c, 0, 64, 41
1, 37839, Note_off_c, 0, 44, 42
1, 37876, Note_on_c, 0, 53, 34
1, 38128, Note_on_c, 0, 44, 30
1, 38163, Note_off_c, 0, 53, 34
1, 38165, Note_on_c, 0, 65, 51
1, 38259, Note_off_c, 0, 64, 35
1, 38262, Control_c, 0, 64, 98
1, 38277, Control_c, 0, 64, 77
1, 38292, Control_c, 0, 64, 60
1, 38307, Control_c, 0, 64, 38
1, 38321, Control_c, 0, 64, 0
1, 38336, Control_c, 0, 64, 35
1, 38345, Note_off_c, 0, 49, 43
1, 38351, Control_c, 0, 64, 44
1, 38365, Control_c, 0, 64, 51
1, 38371, Note_on_c, 0, 53, 27
1, 38380, Control_c, 0, 64, 57
1, 38395, Control_c, 0, 64, 63
1, 38410, Control_c, 0, 64, 68
1, 38425, Control_c, 0, 64, 76
1, 38440, Control_c, 0, 64, 83
1, 38455, Control_c, 0, 64, 90
1, 38469, Control_c, 0, 64, 96
1, 38484, Control_c, 0, 64, 104
1, 38499, Control_c, 0, 64, 115
1, 38514, Control_c, 0, 64, 127
1, 38586, Note_off_c, 0, 53, 35
1, 38586, Note_on_c, 0, 49, 33
1, 38599, Note_on_c, 0, 68, 54
1, 38736, Note_off_c, 0, 44, 42
1, 38774, Note_on_c, 0, 53, 41
1, 38951, Note_off_c, 0, 53, 23
1, 39017, Note_on_c, 0, 44, 32
1, 39084, Note_on_c, 0, 73, 56
1, 39100, Control_c, 0, 64, 100
1, 39105, Note_off_c, 0, 65, 58
1, 39115, Control_c, 0, 64, 80
1, 39130, Control_c, 0, 64, 67
1, 39144, Control_c, 0, 64, 58
1, 39149, Note_off_c, 0, 68, 58
1, 39159, Control_c, 0, 64, 53
1, 39174, Control_c, 0, 64, 57
1, 39189, Control_c, 0, 64, 61
1, 39203, Control_c, 0, 64, 66
1, 39218, Control_c, 0, 64, 73
1, 39233, Control_c, 0, 64, 84
1, 39248, Control_c, 0, 64, 97
1, 39263, Control_c, 0, 64, 113
1, 39277, Control_c, 0, 64, 127
1, 39280, Note_off_c, 0, 49, 40
1, 39305, Note_on_c, 0, 53, 36
1, 39487, Note_off_c, 0, 73, 32
1, 39519, Note_off_c, 0, 53, 38
1, 39534, Note_on_c, 0, 61, 66
1, 39540, Note_on_c, 0, 49, 32
1, 39623, Note_off_c, 0, 44, 39
1, 39751, Note_on_c, 0, 53, 34
1, 39771, Note_off_c, 0, 61, 34
1, 39830, Note_off_c, 0, 53, 49
1, 40118, Note_on_c, 0, 45, 22
1, 40198, Note_on_c, 0, 60, 57
1, 40205, Note_off_c, 0, 49, 39
1, 40271, Control_c, 0, 64, 102
1, 40286, Control_c, 0, 64, 79
1, 40302, Control_c, 0, 64, 64
1, 40316, Control_c, 0, 64, 45
1, 40331, Control_c, 0, 64, 0
1, 40346, Control_c, 0, 64, 35
1, 40361, Control_c, 0, 64, 45
1, 40376, Control_c, 0, 64, 52
1, 40391, Control_c, 0, 64, 61
1, 40405, Control_c, 0, 64, 66
1, 40420, Control_c, 0, 64, 72
1, 40435, Control_c, 0, 64, 80
1, 40449, Control_c, 0, 64, 88
1, 40464, Control_c, 0, 64, 95
1, 40479, Control_c, 0, 64, 104
1, 40494, Control_c, 0, 64, 127
1, 40556, Note_on_c, 0, 54, 36
1, 40765, Note_off_c, 0, 54, 29
1, 40797, Note_on_c, 0, 51, 34
1, 40992, Note_off_c, 0, 45, 37
1, 41005, Note_on_c, 0, 54, 32
1, 41036, Note_off_c, 0, 60, 36
1, 41187, Note_off_c, 0, 54, 25
1, 41230, Note_on_c, 0, 45, 16
1, 41404, Note_off_c, 0, 51, 39
1, 41425, Note_on_c, 0, 54, 20
1, 41614, Note_off_c, 0, 54, 38
1, 41650, Note_on_c, 0, 51, 27
1, 41679, Note_on_c, 0, 75, 45
1, 41796, Note_off_c, 0, 45, 31
1, 41869, Note_on_c, 0, 54, 26
1, 42067, Note_off_c, 0, 54, 19
1, 42121, Note_on_c, 0, 45, 12
1, 42145, Note_on_c, 0, 72, 42
1, 42225, Note_off_c, 0, 75, 31
1, 42318, Note_off_c, 0, 51, 39
1, 42336, Note_on_c, 0, 54, 27
1, 42552, Note_off_c, 0, 54, 40
1, 42564, Note_on_c, 0, 51, 33
1, 42583, Note_on_c, 0, 69, 43
1, 42675, Note_off_c, 0, 72, 38
1, 42740, Note_off_c, 0, 45, 35
1, 42780, Note_on_c, 0, 54, 34
1, 43009, Note_on_c, 0, 66, 52
1, 43030, Note_on_c, 0, 45, 26
1, 43033, Note_off_c, 0, 54, 37
1, 43229, Note_on_c, 0, 54, 45
1, 43242, Note_off_c, 0, 51, 41
1, 43460, Note_off_c, 0, 54, 40
1, 43461, Note_on_c, 0, 51, 41
1, 43486, Note_on_c, 0, 63, 62
1, 43507, Note_off_c, 0, 45, 40
1, 43558, Note_off_c, 0, 66, 57
1, 43573, Note_off_c, 0, 69, 36
1, 43710, Note_on_c, 0, 54, 43
1, 43721, Note_off_c, 0, 63, 54
1, 43835, Note_off_c, 0, 54, 37
1, 44035, Note_on_c, 0, 46, 37
1, 44133, Note_on_c, 0, 58, 64
1, 44181, Note_off_c, 0, 51, 40
1, 44193, Control_c, 0, 64, 84
1, 44208, Control_c, 0, 64, 65
1, 44223, Control_c, 0, 64, 42
1, 44238, Control_c, 0, 64, 0
1, 44313, Control_c, 0, 64, 48
1, 44328, Control_c, 0, 64, 58
1, 44342, Control_c, 0, 64, 64
1, 44357, Control_c, 0, 64, 71
1, 44372, Control_c, 0, 64, 77
1, 44387, Control_c, 0, 64, 81
1, 44402, Control_c, 0, 64, 87
1, 44416, Control_c, 0, 64, 97
1, 44431, Control_c, 0, 64, 119
1, 44446, Control_c, 0, 64, 127
1, 44478, Note_on_c, 0, 54, 27
1, 44686, Note_off_c, 0, 54, 41
1, 44735, Note_on_c, 0, 51, 25
1, 44850, Note_off_c, 0, 58, 42
1, 44932, Note_off_c, 0, 46, 42
1, 44959, Note_on_c, 0, 54, 27
1, 45171, Note_on_c, 0, 46, 37
1, 45189, Note_off_c, 0, 54, 35
1, 45357, Note_off_c, 0, 51, 40
1, 45373, Note_on_c, 0, 54, 30
1, 45584, Note_off_c, 0, 54, 39
1, 45617, Note_on_c, 0, 51, 27
1, 45642, Note_on_c, 0, 78, 45
1, 45775, Note_off_c, 0, 46, 42
1, 45827, Note_on_c, 0, 54, 26
1, 46040, Note_off_c, 0, 54, 34
1, 46057, Note_on_c, 0, 46, 30
1, 46079, Note_on_c, 0, 75, 40
1, 46247, Note_off_c, 0, 78, 30
1, 46261, Note_off_c, 0, 51, 37
1, 46294, Note_on_c, 0, 54, 25
1, 46446, Note_off_c, 0, 54, 21
1, 46508, Note_on_c, 0, 51, 27
1, 46518, Note_on_c, 0, 70, 45
1, 46651, Note_off_c, 0, 46, 42
1, 46718, Note_on_c, 0, 54, 18
1, 46904, Note_off_c, 0, 54, 32
1, 46925, Note_on_c, 0, 46, 29
1, 46968, Note_on_c, 0, 66, 43
1, 46997, Control_c, 0, 64, 93
1, 47011, Control_c, 0, 64, 72
1, 47026, Control_c, 0, 64, 59
1, 47041, Control_c, 0, 64, 49
1, 47045, Note_off_c, 0, 75, 34
1, 47056, Control_c, 0, 64, 52
1, 47071, Control_c, 0, 64, 55
1, 47083, Note_off_c, 0, 70, 35
1, 47085, Control_c, 0, 64, 58
1, 47100, Control_c, 0, 64, 62
1, 47115, Control_c, 0, 64, 67
1, 47129, Note_off_c, 0, 51, 39
1, 47130, Control_c, 0, 64, 74
1, 47144, Control_c, 0, 64, 81
1, 47159, Note_on_c, 0, 54, 28
1, 47159, Control_c, 0, 64, 89
1, 47174, Control_c, 0, 64, 98
1, 47189, Control_c, 0, 64, 111
1, 47204, Control_c, 0, 64, 127
1, 47399, Note_off_c, 0, 54, 40
1, 47423, Note_on_c, 0, 51, 34
1, 47430, Note_on_c, 0, 63, 44
1, 47468, Note_off_c, 0, 66, 33
1, 47533, Note_off_c, 0, 46, 39
1, 47663, Note_on_c, 0, 54, 29
1, 47756, Note_off_c, 0, 54, 37
1, 48068, Note_off_c, 0, 51, 28
1, 48151, Note_on_c, 0, 47, 29
1, 48188, Note_on_c, 0, 59, 38
1, 48190, Control_c, 0, 64, 96
1, 48205, Control_c, 0, 64, 74
1, 48218, Note_off_c, 0, 63, 36
1, 48220, Control_c, 0, 64, 58
1, 48235, Control_c, 0, 64, 0
1, 48280, Control_c, 0, 64, 45
1, 48295, Control_c, 0, 64, 55
1, 48308, Control_c, 0, 64, 62
1, 48323, Control_c, 0, 64, 66
1, 48338, Control_c, 0, 64, 71
1, 48353, Control_c, 0, 64, 77
1, 48368, Control_c, 0, 64, 82
1, 48382, Control_c, 0, 64, 86
1, 48397, Control_c, 0, 64, 91
1, 48412, Control_c, 0, 64, 96
1, 48427, Control_c, 0, 64, 104
1, 48442, Control_c, 0, 64, 116
1, 48464, Control_c, 0, 64, 127
1, 48630, Note_on_c, 0, 66, 28
1, 48631, Note_on_c, 0, 63, 29
1, 48760, Note_off_c, 0, 66, 36
1, 48765, Note_off_c, 0, 63, 29
1, 48810, Note_off_c, 0, 59, 34
1, 48898, Note_on_c, 0, 63, 19
1, 48911, Note_on_c, 0, 66, 29
1, 48971, Note_off_c, 0, 66, 42
1, 49014, Note_off_c, 0, 63, 32
1, 49118, Note_on_c, 0, 63, 25
1, 49128, Note_on_c, 0, 66, 37
1, 49228, Note_off_c, 0, 66, 36
1, 49260, Note_off_c, 0, 63, 29
1, 49335, Note_on_c, 0, 63, 18
1, 49355, Note_on_c, 0, 66, 31
1, 49361, Control_c, 0, 67, 21
1, 49376, Control_c, 0, 67, 26
1, 49391, Control_c, 0, 67, 31
1, 49405, Control_c, 0, 67, 39
1, 49420, Control_c, 0, 67, 52
1, 49427, Note_off_c, 0, 66, 39
1, 49435, Control_c, 0, 67, 66
1, 49450, Control_c, 0, 67, 81
1, 49453, Note_off_c, 0, 63, 32
1, 49464, Control_c, 0, 67, 95
1, 49479, Control_c, 0, 67, 108
1, 49494, Control_c, 0, 67, 117
1, 49509, Control_c, 0, 67, 123
1, 49524, Control_c, 0, 67, 126
1, 49553, Note_on_c, 0, 63, 19
1, 49563, Note_on_c, 0, 66, 32
1, 49686, Note_off_c, 0, 66, 32
1, 49709, Note_off_c, 0, 63, 34
1, 49776, Control_c, 0, 64, 90
1, 49781, Note_on_c, 0, 63, 21
1, 49787, Note_on_c, 0, 66, 29
1, 49789, Note_on_c, 0, 51, 44
1, 49791, Control_c, 0, 64, 73
1, 49805, Control_c, 0, 64, 65
1, 49820, Control_c, 0, 64, 62
1, 49835, Control_c, 0, 64, 63
1, 49849, Control_c, 0, 64, 66
1, 49864, Control_c, 0, 64, 69
1, 49880, Control_c, 0, 64, 74
1, 49895, Control_c, 0, 64, 79
1, 49910, Control_c, 0, 64, 86
1, 49925, Control_c, 0, 64, 93
1, 49940, Control_c, 0, 64, 102
1, 49961, Control_c, 0, 64, 117
1, 49976, Control_c, 0, 64, 127
1, 49982, Note_off_c, 0, 63, 0
1, 49985, Note_off_c, 0, 66, 0
1, 50001, Note_on_c, 0, 63, 25
1, 50003, Note_on_c, 0, 66, 23
1, 50065, Note_off_c, 0, 47, 37
1, 50132, Note_off_c, 0, 63, 31
1, 50135, Note_off_c, 0, 66, 33
1, 50253, Note_on_c, 0, 54, 55
1, 50260, Note_on_c, 0, 63, 23
1, 50260, Note_on_c, 0, 66, 31
1, 50339, Note_off_c, 0, 63, 36
1, 50372, Note_off_c, 0, 66, 30
1, 50423, Note_off_c, 0, 51, 59
1, 50474, Note_on_c, 0, 66, 30
1, 50474, Note_on_c, 0, 63, 24
1, 50536, Note_off_c, 0, 63, 42
1, 50546, Note_off_c, 0, 66, 38
1, 50707, Note_on_c, 0, 58, 57
1, 50710, Control_c, 0, 67, 123
1, 50725, Control_c, 0, 67, 110
1, 50736, Note_on_c, 0, 66, 32
1, 50740, Control_c, 0, 67, 97
1, 50747, Note_on_c, 0, 63, 16
1, 50755, Control_c, 0, 67, 84
1, 50770, Control_c, 0, 67, 73
1, 50784, Control_c, 0, 67, 60
1, 50791, Note_off_c, 0, 54, 61
1, 50798, Note_off_c, 0, 66, 38
1, 50799, Control_c, 0, 67, 43
1, 50807, Note_off_c, 0, 63, 41
1, 50814, Control_c, 0, 67, 29
1, 50829, Control_c, 0, 67, 0
1, 50930, Note_on_c, 0, 63, 34
1, 50934, Note_on_c, 0, 66, 34
1, 50989, Note_off_c, 0, 66, 41
1, 50989, Note_off_c, 0, 63, 42
1, 51165, Note_on_c, 0, 59, 60
1, 51188, Note_on_c, 0, 63, 34
1, 51191, Note_on_c, 0, 66, 34
1, 51199, Control_c, 0, 64, 98
1, 51214, Control_c, 0, 64, 75
1, 51228, Control_c, 0, 64, 61
1, 51243, Control_c, 0, 64, 40
1, 51255, Note_off_c, 0, 58, 62
1, 51258, Control_c, 0, 64, 38
1, 51273, Control_c, 0, 64, 43
1, 51285, Note_off_c, 0, 63, 34
1, 51288, Control_c, 0, 64, 48
1, 51302, Control_c, 0, 64, 54
1, 51305, Note_off_c, 0, 66, 28
1, 51317, Control_c, 0, 64, 60
1, 51332, Control_c, 0, 64, 67
1, 51347, Control_c, 0, 64, 75
1, 51362, Control_c, 0, 64, 86
1, 51377, Control_c, 0, 64, 98
1, 51392, Control_c, 0, 64, 111
1, 51407, Control_c, 0, 64, 127
1, 51410, Note_on_c, 0, 63, 38
1, 51425, Note_on_c, 0, 66, 34
1, 51513, Note_off_c, 0, 66, 33
1, 51530, Note_off_c, 0, 63, 30
1, 51666, Control_c, 0, 64, 86
1, 51668, Note_on_c, 0, 47, 65
1, 51681, Control_c, 0, 64, 71
1, 51691, Note_on_c, 0, 63, 30
1, 51694, Note_on_c, 0, 66, 37
1, 51696, Control_c, 0, 64, 66
1, 51711, Control_c, 0, 64, 66
1, 51726, Control_c, 0, 64, 68
1, 51740, Control_c, 0, 64, 73
1, 51742, Note_off_c, 0, 63, 45
1, 51745, Note_off_c, 0, 66, 49
1, 51755, Control_c, 0, 64, 82
1, 51770, Control_c, 0, 64, 97
1, 51782, Note_off_c, 0, 59, 56
1, 51785, Control_c, 0, 64, 127
1, 51811, Note_off_c, 0, 47, 61
1, 51962, Note_on_c, 0, 66, 37
1, 51963, Note_on_c, 0, 63, 34
1, 51997, Note_off_c, 0, 66, 51
1, 52007, Note_off_c, 0, 63, 46
1, 52354, Note_on_c, 0, 46, 65
1, 52372, Note_on_c, 0, 34, 47
1, 52379, Note_on_c, 0, 66, 43
1, 52384, Note_on_c, 0, 64, 49
1, 52401, Control_c, 0, 64, 85
1, 52416, Control_c, 0, 64, 66
1, 52430, Control_c, 0, 64, 40
1, 52445, Control_c, 0, 64, 0
1, 52489, Control_c, 0, 64, 36
1, 52504, Control_c, 0, 64, 50
1, 52519, Control_c, 0, 64, 60
1, 52534, Control_c, 0, 64, 67
1, 52548, Control_c, 0, 64, 75
1, 52551, Note_off_c, 0, 66, 51
1, 52563, Control_c, 0, 64, 83
1, 52566, Note_off_c, 0, 64, 53
1, 52578, Control_c, 0, 64, 91
1, 52593, Control_c, 0, 64, 107
1, 52608, Control_c, 0, 64, 127
1, 52697, Control_c, 0, 64, 90
1, 52712, Control_c, 0, 64, 72
1, 52727, Control_c, 0, 64, 60
1, 52742, Control_c, 0, 64, 52
1, 52754, Note_on_c, 0, 66, 31
1, 52756, Control_c, 0, 64, 58
1, 52771, Control_c, 0, 64, 64
1, 52776, Note_on_c, 0, 64, 15
1, 52786, Control_c, 0, 64, 70
1, 52801, Control_c, 0, 64, 79
1, 52816, Control_c, 0, 64, 91
1, 52831, Control_c, 0, 64, 113
1, 52846, Control_c, 0, 64, 127
1, 52855, Note_off_c, 0, 64, 38
1, 52887, Note_off_c, 0, 34, 37
1, 52894, Note_off_c, 0, 66, 35
1, 52901, Note_off_c, 0, 46, 38
1, 53019, Note_on_c, 0, 64, 35
1, 53025, Note_on_c, 0, 66, 31
1, 53078, Note_off_c, 0, 64, 45
1, 53096, Note_off_c, 0, 66, 39
1, 53242, Note_on_c, 0, 66, 30
1, 53253, Note_on_c, 0, 64, 26
1, 53310, Note_off_c, 0, 64, 41
1, 53333, Note_off_c, 0, 66, 36
1, 53463, Note_on_c, 0, 66, 35
1, 53470, Note_on_c, 0, 64, 32
1, 53519, Note_off_c, 0, 64, 46
1, 53529, Note_off_c, 0, 66, 46
1, 53680, Note_on_c, 0, 64, 29
1, 53689, Note_on_c, 0, 66, 26
1, 53739, Note_off_c, 0, 66, 45
1, 53741, Note_off_c, 0, 64, 43
1, 53918, Note_on_c, 0, 66, 31
1, 53925, Note_on_c, 0, 64, 28
1, 53933, Note_on_c, 0, 49, 37
1, 53990, Note_off_c, 0, 64, 41
1, 54022, Note_off_c, 0, 66, 33
1, 54137, Note_on_c, 0, 66, 29
1, 54152, Note_on_c, 0, 64, 22
1, 54205, Note_off_c, 0, 64, 43
1, 54237, Note_off_c, 0, 66, 33
1, 54359, Note_on_c, 0, 54, 49
1, 54373, Control_c, 0, 64, 101
1, 54379, Note_on_c, 0, 66, 38
1, 54387, Note_on_c, 0, 64, 32
1, 54387, Control_c, 0, 64, 83
1, 54402, Control_c, 0, 64, 74
1, 54417, Control_c, 0, 64, 71
1, 54432, Control_c, 0, 64, 70
1, 54454, Control_c, 0, 64, 71
1, 54468, Note_off_c, 0, 66, 52
1, 54469, Control_c, 0, 64, 73
1, 54480, Note_off_c, 0, 64, 36
1, 54484, Control_c, 0, 64, 77
1, 54499, Control_c, 0, 64, 83
1, 54514, Control_c, 0, 64, 90
1, 54528, Control_c, 0, 64, 98
1, 54543, Control_c, 0, 64, 107
1, 54558, Control_c, 0, 64, 127
1, 54575, Note_off_c, 0, 49, 44
1, 54589, Note_on_c, 0, 66, 33
1, 54603, Note_on_c, 0, 64, 28
1, 54655, Note_off_c, 0, 64, 44
1, 54678, Note_off_c, 0, 66, 33
1, 54814, Note_on_c, 0, 58, 63
1, 54841, Note_on_c, 0, 66, 41
1, 54845, Note_on_c, 0, 64, 28
1, 54890, Note_off_c, 0, 64, 46
1, 54892, Note_off_c, 0, 66, 43
1, 54930, Note_off_c, 0, 54, 61
1, 55039, Note_on_c, 0, 64, 38
1, 55041, Note_on_c, 0, 66, 41
1, 55074, Note_off_c, 0, 66, 51
1, 55076, Note_off_c, 0, 64, 51
1, 55261, Note_on_c, 0, 61, 75
1, 55306, Note_on_c, 0, 64, 36
1, 55310, Note_on_c, 0, 66, 40
1, 55344, Note_off_c, 0, 64, 50
1, 55353, Note_off_c, 0, 66, 46
1, 55355, Note_off_c, 0, 61, 57
1, 55394, Note_off_c, 0, 58, 56
1, 55523, Note_on_c, 0, 64, 40
1, 55529, Note_on_c, 0, 66, 32
1, 55558, Note_off_c, 0, 64, 52
1, 55567, Note_off_c, 0, 66, 47
1, 55741, Note_on_c, 0, 46, 82
1, 55767, Note_on_c, 0, 64, 44
1, 55768, Note_on_c, 0, 66, 47
1, 55812, Note_off_c, 0, 64, 51
1, 55814, Note_off_c, 0, 66, 50
1, 55878, Note_off_c, 0, 46, 55
1, 56008, Note_on_c, 0, 66, 48
1, 56020, Note_on_c, 0, 64, 48
1, 56054, Note_off_c, 0, 64, 57
1, 56061, Note_off_c, 0, 66, 59
1, 56426, Note_on_c, 0, 45, 75
1, 56428, Note_on_c, 0, 33, 67
1, 56438, Note_on_c, 0, 67, 56
1, 56447, Note_on_c, 0, 64, 55
1, 56448, Note_on_c, 0, 61, 56
1, 56456, Control_c, 0, 64, 98
1, 56471, Control_c, 0, 64, 70
1, 56486, Control_c, 0, 64, 47
1, 56501, Control_c, 0, 64, 0
1, 56605, Control_c, 0, 64, 39
1, 56620, Control_c, 0, 64, 58
1, 56635, Control_c, 0, 64, 65
1, 56649, Control_c, 0, 64, 69
1, 56651, Note_off_c, 0, 64, 52
1, 56654, Note_off_c, 0, 67, 56
1, 56664, Control_c, 0, 64, 73
1, 56679, Control_c, 0, 64, 76
1, 56686, Note_off_c, 0, 61, 34
1, 56701, Control_c, 0, 64, 82
1, 56716, Control_c, 0, 64, 91
1, 56730, Control_c, 0, 64, 111
1, 56745, Control_c, 0, 64, 127
1, 56805, Control_c, 0, 64, 100
1, 56820, Control_c, 0, 64, 79
1, 56835, Control_c, 0, 64, 64
1, 56849, Control_c, 0, 64, 55
1, 56862, Note_on_c, 0, 67, 31
1, 56864, Control_c, 0, 64, 57
1, 56868, Note_on_c, 0, 61, 28
1, 56868, Note_on_c, 0, 64, 28
1, 56879, Control_c, 0, 64, 60
1, 56894, Control_c, 0, 64, 63
1, 56909, Control_c, 0, 64, 67
1, 56923, Control_c, 0, 64, 73
1, 56938, Control_c, 0, 64, 82
1, 56953, Control_c, 0, 64, 91
1, 56967, Control_c, 0, 64, 100
1, 56982, Control_c, 0, 64, 111
1, 56997, Control_c, 0, 64, 127
1, 57005, Note_off_c, 0, 33, 50
1, 57005, Note_off_c, 0, 61, 31
1, 57007, Note_off_c, 0, 67, 43
1, 57012, Note_off_c, 0, 64, 33
1, 57086, Note_off_c, 0, 45, 34
1, 57142, Note_on_c, 0, 67, 40
1, 57158, Note_on_c, 0, 64, 25
1, 57161, Note_on_c, 0, 61, 31
1, 57261, Note_off_c, 0, 67, 37
1, 57264, Note_off_c, 0, 61, 34
1, 57269, Note_off_c, 0, 64, 33
1, 57401, Note_on_c, 0, 67, 38
1, 57404, Note_on_c, 0, 64, 22
1, 57407, Note_on_c, 0, 61, 26
1, 57472, Note_off_c, 0, 67, 52
1, 57494, Note_off_c, 0, 61, 38
1, 57500, Note_off_c, 0, 64, 37
1, 57637, Note_on_c, 0, 64, 24
1, 57640, Note_on_c, 0, 67, 34
1, 57650, Note_on_c, 0, 61, 29
1, 57709, Note_off_c, 0, 67, 53
1, 57723, Note_off_c, 0, 61, 39
1, 57744, Note_off_c, 0, 64, 37
1, 57877, Note_on_c, 0, 64, 17
1, 57877, Note_on_c, 0, 67, 31
1, 57879, Note_on_c, 0, 61, 30
1, 57943, Note_off_c, 0, 67, 45
1, 57946, Note_off_c, 0, 61, 42
1, 57960, Note_off_c, 0, 64, 39
1, 58110, Note_on_c, 0, 67, 29
1, 58112, Note_on_c, 0, 61, 31
1, 58122, Note_on_c, 0, 64, 29
1, 58123, Note_on_c, 0, 49, 42
1, 58200, Note_off_c, 0, 67, 51
1, 58203, Note_off_c, 0, 64, 50
1, 58224, Note_off_c, 0, 61, 34
1, 58338, Note_on_c, 0, 64, 22
1, 58340, Note_on_c, 0, 61, 26
1, 58360, Note_on_c, 0, 67, 32
1, 58418, Note_off_c, 0, 67, 43
1, 58462, Note_off_c, 0, 61, 30
1, 58473, Note_off_c, 0, 64, 30
1, 58573, Note_on_c, 0, 61, 30
1, 58583, Note_on_c, 0, 64, 21
1, 58583, Note_on_c, 0, 67, 35
1, 58585, Note_on_c, 0, 52, 53
1, 58668, Note_off_c, 0, 64, 46
1, 58676, Note_off_c, 0, 67, 52
1, 58691, Note_off_c, 0, 61, 35
1, 58707, Note_off_c, 0, 49, 42
1, 58794, Note_on_c, 0, 61, 37
1, 58798, Note_on_c, 0, 64, 37
1, 58801, Note_on_c, 0, 67, 44
1, 58859, Note_off_c, 0, 67, 53
1, 58877, Note_off_c, 0, 64, 48
1, 58912, Note_off_c, 0, 61, 34
1, 59026, Note_on_c, 0, 56, 73
1, 59032, Note_on_c, 0, 64, 42
1, 59042, Note_on_c, 0, 61, 33
1, 59044, Note_on_c, 0, 67, 47
1, 59119, Note_off_c, 0, 67, 52
1, 59139, Note_off_c, 0, 52, 60
1, 59141, Note_off_c, 0, 61, 34
1, 59153, Note_off_c, 0, 64, 36
1, 59240, Note_on_c, 0, 64, 40
1, 59248, Note_on_c, 0, 61, 39
1, 59249, Note_on_c, 0, 67, 52
1, 59306, Note_off_c, 0, 64, 54
1, 59313, Note_off_c, 0, 67, 48
1, 59318, Note_off_c, 0, 61, 42
1, 59476, Note_on_c, 0, 67, 48
1, 59477, Note_on_c, 0, 57, 80
1, 59480, Note_on_c, 0, 64, 46
1, 59488, Note_on_c, 0, 61, 42
1, 59512, Control_c, 0, 64, 106
1, 59527, Control_c, 0, 64, 81
1, 59541, Control_c, 0, 64, 65
1, 59544, Note_off_c, 0, 56, 61
1, 59553, Note_off_c, 0, 61, 41
1, 59556, Control_c, 0, 64, 56
1, 59564, Note_off_c, 0, 67, 50
1, 59565, Note_off_c, 0, 64, 49
1, 59571, Control_c, 0, 64, 59
1, 59585, Control_c, 0, 64, 64
1, 59600, Control_c, 0, 64, 70
1, 59615, Control_c, 0, 64, 80
1, 59630, Control_c, 0, 64, 91
1, 59645, Control_c, 0, 64, 100
1, 59659, Control_c, 0, 64, 111
1, 59674, Control_c, 0, 64, 127
1, 59693, Note_on_c, 0, 61, 47
1, 59699, Note_on_c, 0, 67, 59
1, 59700, Note_on_c, 0, 64, 53
1, 59766, Note_off_c, 0, 67, 51
1, 59767, Note_off_c, 0, 61, 47
1, 59774, Note_off_c, 0, 64, 40
1, 59889, Control_c, 0, 64, 100
1, 59904, Control_c, 0, 64, 79
1, 59918, Control_c, 0, 64, 64
1, 59932, Note_on_c, 0, 61, 51
1, 59933, Control_c, 0, 64, 55
1, 59935, Note_on_c, 0, 67, 59
1, 59936, Note_on_c, 0, 45, 79
1, 59937, Note_on_c, 0, 64, 50
1, 59948, Control_c, 0, 64, 57
1, 59949, Note_off_c, 0, 57, 64
1, 59963, Control_c, 0, 64, 62
1, 59978, Control_c, 0, 64, 68
1, 59991, Note_off_c, 0, 64, 55
1, 59992, Control_c, 0, 64, 81
1, 60007, Control_c, 0, 64, 107
1, 60022, Control_c, 0, 64, 127
1, 60026, Note_off_c, 0, 61, 35
1, 60057, Note_off_c, 0, 67, 36
1, 60083, Note_off_c, 0, 45, 63
1, 60173, Note_on_c, 0, 67, 75
1, 60182, Note_on_c, 0, 61, 66
1, 60188, Note_on_c, 0, 64, 51
1, 60215, Note_off_c, 0, 64, 64
1, 60223, Note_off_c, 0, 67, 64
1, 60257, Note_off_c, 0, 61, 60
1, 60525, Note_on_c, 0, 44, 84
1, 60532, Note_on_c, 0, 65, 76
1, 60534, Note_on_c, 0, 60, 70
1, 60534, Note_on_c, 0, 32, 67
1, 60549, Control_c, 0, 64, 90
1, 60564, Control_c, 0, 64, 67
1, 60579, Control_c, 0, 64, 38
1, 60594, Control_c, 0, 64, 0
1, 60638, Control_c, 0, 64, 39
1, 60653, Control_c, 0, 64, 52
1, 60668, Control_c, 0, 64, 61
1, 60683, Control_c, 0, 64, 68
1, 60698, Control_c, 0, 64, 75
1, 60713, Control_c, 0, 64, 85
1, 60728, Control_c, 0, 64, 93
1, 60734, Note_off_c, 0, 65, 53
1, 60742, Control_c, 0, 64, 104
1, 60752, Note_off_c, 0, 60, 57
1, 60757, Control_c, 0, 64, 127
1, 60816, Control_c, 0, 64, 112
1, 60831, Control_c, 0, 64, 85
1, 60846, Control_c, 0, 64, 68
1, 60861, Control_c, 0, 64, 50
1, 60876, Control_c, 0, 64, 0
1, 60879, Note_on_c, 0, 65, 61
1, 60885, Note_on_c, 0, 60, 45
1, 60905, Control_c, 0, 64, 48
1, 60920, Control_c, 0, 64, 56
1, 60934, Control_c, 0, 64, 60
1, 60949, Control_c, 0, 64, 64
1, 60964, Control_c, 0, 64, 70
1, 60979, Control_c, 0, 64, 77
1, 60994, Control_c, 0, 64, 86
1, 60996, Note_off_c, 0, 65, 55
1, 61008, Control_c, 0, 64, 99
1, 61009, Note_off_c, 0, 60, 38
1, 61023, Control_c, 0, 64, 127
1, 61066, Note_off_c, 0, 32, 36
1, 61070, Note_off_c, 0, 44, 43
1, 61115, Note_on_c, 0, 60, 47
1, 61128, Note_on_c, 0, 65, 52
1, 61165, Note_off_c, 0, 60, 56
1, 61166, Note_off_c, 0, 65, 54
1, 61350, Note_on_c, 0, 60, 42
1, 61353, Note_on_c, 0, 65, 45
1, 61400, Note_off_c, 0, 60, 57
1, 61406, Note_off_c, 0, 65, 48
1, 61576, Note_on_c, 0, 65, 39
1, 61580, Note_on_c, 0, 60, 38
1, 61629, Note_off_c, 0, 65, 43
1, 61632, Note_off_c, 0, 60, 49
1, 61802, Note_on_c, 0, 60, 35
1, 61821, Note_on_c, 0, 65, 27
1, 61866, Note_off_c, 0, 60, 40
1, 61885, Note_off_c, 0, 65, 40
1, 62081, Note_on_c, 0, 48, 46
1, 62087, Note_on_c, 0, 60, 35
1, 62102, Note_on_c, 0, 65, 29
1, 62166, Note_off_c, 0, 60, 41
1, 62186, Note_off_c, 0, 65, 36
1, 62308, Note_on_c, 0, 65, 45
1, 62311, Note_on_c, 0, 60, 38
1, 62370, Note_off_c, 0, 60, 48
1, 62383, Note_off_c, 0, 65, 50
1, 62531, Note_on_c, 0, 53, 66
1, 62544, Note_on_c, 0, 65, 49
1, 62549, Note_on_c, 0, 60, 42
1, 62601, Note_off_c, 0, 65, 54
1, 62603, Note_off_c, 0, 60, 54
1, 62630, Note_off_c, 0, 48, 62
1, 62759, Note_on_c, 0, 65, 55
1, 62764, Note_on_c, 0, 60, 50
1, 62813, Note_off_c, 0, 60, 58
1, 62814, Note_off_c, 0, 65, 45
1, 62981, Note_on_c, 0, 55, 81
1, 62993, Note_on_c, 0, 65, 57
1, 63003, Note_on_c, 0, 60, 49
1, 63033, Note_off_c, 0, 53, 60
1, 63053, Note_off_c, 0, 60, 58
1, 63054, Note_off_c, 0, 65, 48
1, 63202, Note_on_c, 0, 65, 62
1, 63204, Note_on_c, 0, 60, 53
1, 63244, Note_off_c, 0, 60, 61
1, 63259, Note_off_c, 0, 65, 45
1, 63453, Note_on_c, 0, 56, 76
1, 63488, Note_on_c, 0, 60, 48
1, 63488, Note_on_c, 0, 65, 50
1, 63500, Control_c, 0, 64, 82
1, 63515, Control_c, 0, 64, 64
1, 63522, Note_off_c, 0, 55, 63
1, 63530, Control_c, 0, 64, 41
1, 63545, Control_c, 0, 64, 0
1, 63548, Note_off_c, 0, 60, 53
1, 63574, Control_c, 0, 64, 48
1, 63584, Note_off_c, 0, 65, 46
1, 63589, Control_c, 0, 64, 59
1, 63604, Control_c, 0, 64, 67
1, 63619, Control_c, 0, 64, 74
1, 63633, Control_c, 0, 64, 82
1, 63648, Control_c, 0, 64, 89
1, 63663, Control_c, 0, 64, 94
1, 63677, Control_c, 0, 64, 101
1, 63692, Control_c, 0, 64, 115
1, 63695, Note_on_c, 0, 60, 52
1, 63707, Control_c, 0, 64, 127
1, 63711, Note_on_c, 0, 65, 59
1, 63751, Note_off_c, 0, 60, 52
1, 63765, Note_off_c, 0, 65, 48
1, 63901, Note_on_c, 0, 44, 76
1, 63934, Note_on_c, 0, 65, 65
1, 63941, Note_off_c, 0, 56, 61
1, 63943, Note_on_c, 0, 60, 51
1, 63980, Note_off_c, 0, 60, 61
1, 64062, Note_off_c, 0, 65, 34
1, 64144, Note_off_c, 0, 44, 66
1, 64167, Note_on_c, 0, 65, 77
1, 64169, Note_on_c, 0, 60, 69
1, 64265, Note_off_c, 0, 60, 56
1, 64333, Note_off_c, 0, 65, 48
1, 64546, Note_on_c, 0, 65, 71
1, 64549, Note_on_c, 0, 31, 77
1, 64549, Note_on_c, 0, 43, 77
1, 64553, Note_on_c, 0, 59, 63
1, 64553, Note_on_c, 0, 62, 61
1, 64560, Control_c, 0, 64, 108
1, 64575, Control_c, 0, 64, 76
1, 64589, Control_c, 0, 64, 53
1, 64604, Control_c, 0, 64, 0
1, 64648, Control_c, 0, 64, 38
1, 64663, Control_c, 0, 64, 52
1, 64678, Control_c, 0, 64, 60
1, 64693, Control_c, 0, 64, 67
1, 64707, Control_c, 0, 64, 74
1, 64722, Control_c, 0, 64, 82
1, 64737, Control_c, 0, 64, 89
1, 64752, Control_c, 0, 64, 97
1, 64767, Control_c, 0, 64, 113
1, 64771, Note_off_c, 0, 59, 37
1, 64782, Control_c, 0, 64, 127
1, 64785, Note_off_c, 0, 65, 38
1, 64831, Note_off_c, 0, 62, 32
1, 64937, Control_c, 0, 64, 96
1, 64952, Control_c, 0, 64, 75
1, 64958, Note_on_c, 0, 62, 45
1, 64962, Note_on_c, 0, 65, 56
1, 64967, Control_c, 0, 64, 62
1, 64982, Control_c, 0, 64, 44
1, 64996, Control_c, 0, 64, 43
1, 64997, Note_on_c, 0, 59, 34
1, 65011, Control_c, 0, 64, 51
1, 65026, Control_c, 0, 64, 57
1, 65041, Control_c, 0, 64, 62
1, 65057, Control_c, 0, 64, 67
1, 65072, Control_c, 0, 64, 76
1, 65086, Control_c, 0, 64, 90
1, 65101, Control_c, 0, 64, 101
1, 65108, Note_off_c, 0, 59, 37
1, 65116, Control_c, 0, 64, 117
1, 65131, Control_c, 0, 64, 127
1, 65139, Note_off_c, 0, 65, 37
1, 65152, Note_off_c, 0, 62, 33
1, 65252, Note_on_c, 0, 62, 45
1, 65255, Note_on_c, 0, 65, 51
1, 65299, Note_on_c, 0, 59, 9
1, 65357, Note_off_c, 0, 59, 45
1, 65388, Note_off_c, 0, 65, 36
1, 65427, Note_off_c, 0, 62, 28
1, 65497, Note_on_c, 0, 62, 37
1, 65507, Note_on_c, 0, 65, 52
1, 65518, Note_on_c, 0, 59, 27
1, 65563, Note_off_c, 0, 65, 51
1, 65576, Note_off_c, 0, 59, 43
1, 65633, Note_off_c, 0, 62, 34
1, 65727, Note_on_c, 0, 65, 47
1, 65733, Note_on_c, 0, 59, 38
1, 65738, Note_on_c, 0, 62, 29
1, 65811, Note_off_c, 0, 31, 58
1, 65817, Note_off_c, 0, 59, 46
1, 65846, Note_off_c, 0, 65, 37
1, 65867, Note_off_c, 0, 62, 36
1, 65923, Note_off_c, 0, 43, 41
1, 65968, Note_on_c, 0, 59, 33
1, 65974, Note_on_c, 0, 62, 30
1, 65974, Note_on_c, 0, 65, 42
1, 66010, Note_off_c, 0, 59, 48
1, 66025, Note_off_c, 0, 65, 45
1, 66036, Note_off_c, 0, 62, 42
1, 66186, Note_on_c, 0, 47, 52
1, 66215, Note_on_c, 0, 65, 37
1, 66220, Note_on_c, 0, 59, 25
1, 66220, Note_on_c, 0, 62, 35
1, 66235, Control_c, 0, 64, 100
1, 66250, Control_c, 0, 64, 80
1, 66265, Control_c, 0, 64, 71
1, 66279, Control_c, 0, 64, 68
1, 66294, Control_c, 0, 64, 69
1, 66308, Note_off_c, 0, 59, 38
1, 66309, Control_c, 0, 64, 73
1, 66317, Note_off_c, 0, 65, 37
1, 66324, Control_c, 0, 64, 77
1, 66339, Control_c, 0, 64, 83
1, 66353, Control_c, 0, 64, 91
1, 66368, Control_c, 0, 64, 99
1, 66383, Control_c, 0, 64, 111
1, 66384, Note_off_c, 0, 62, 0
1, 66398, Control_c, 0, 64, 127
1, 66406, Note_on_c, 0, 62, 14
1, 66435, Note_on_c, 0, 59, 31
1, 66448, Note_on_c, 0, 65, 29
1, 66493, Note_off_c, 0, 59, 42
1, 66499, Note_off_c, 0, 65, 45
1, 66545, Note_off_c, 0, 62, 29
1, 66653, Note_on_c, 0, 50, 61
1, 66658, Control_c, 0, 64, 104
1, 66665, Note_on_c, 0, 62, 28
1, 66673, Control_c, 0, 64, 85
1, 66675, Note_on_c, 0, 65, 38
1, 66680, Note_on_c, 0, 59, 32
1, 66688, Control_c, 0, 64, 69
1, 66702, Control_c, 0, 64, 63
1, 66717, Control_c, 0, 64, 62
1, 66732, Control_c, 0, 64, 65
1, 66747, Control_c, 0, 64, 69
1, 66762, Control_c, 0, 64, 77
1, 66776, Note_off_c, 0, 47, 54
1, 66776, Control_c, 0, 64, 88
1, 66777, Note_off_c, 0, 65, 36
1, 66791, Note_off_c, 0, 59, 33
1, 66791, Control_c, 0, 64, 104
1, 66806, Control_c, 0, 64, 127
1, 66848, Note_off_c, 0, 62, 0
1, 66872, Note_on_c, 0, 62, 15
1, 66889, Note_on_c, 0, 59, 42
1, 66895, Note_on_c, 0, 65, 57
1, 66949, Note_off_c, 0, 65, 54
1, 66950, Note_off_c, 0, 59, 50
1, 67008, Note_off_c, 0, 62, 31
1, 67088, Control_c, 0, 64, 94
1, 67102, Control_c, 0, 64, 73
1, 67113, Note_on_c, 0, 54, 72
1, 67117, Control_c, 0, 64, 60
1, 67126, Note_on_c, 0, 59, 42
1, 67126, Note_on_c, 0, 65, 52
1, 67131, Note_on_c, 0, 62, 41
1, 67132, Control_c, 0, 64, 49
1, 67147, Control_c, 0, 64, 55
1, 67162, Control_c, 0, 64, 61
1, 67184, Control_c, 0, 64, 66
1, 67196, Note_off_c, 0, 59, 51
1, 67199, Control_c, 0, 64, 73
1, 67208, Note_off_c, 0, 65, 55
1, 67214, Control_c, 0, 64, 85
1, 67226, Note_off_c, 0, 50, 60
1, 67228, Control_c, 0, 64, 98
1, 67243, Control_c, 0, 64, 111
1, 67258, Control_c, 0, 64, 127
1, 67259, Note_off_c, 0, 62, 34
1, 67335, Note_on_c, 0, 62, 51
1, 67337, Note_on_c, 0, 65, 70
1, 67348, Note_on_c, 0, 59, 51
1, 67392, Note_off_c, 0, 59, 54
1, 67419, Note_off_c, 0, 65, 53
1, 67494, Note_off_c, 0, 62, 28
1, 67558, Note_on_c, 0, 55, 84
1, 67570, Control_c, 0, 64, 83
1, 67571, Note_on_c, 0, 65, 68
1, 67572, Note_on_c, 0, 62, 49
1, 67583, Note_on_c, 0, 59, 53
1, 67585, Control_c, 0, 64, 62
1, 67599, Control_c, 0, 64, 0
1, 67613, Note_off_c, 0, 54, 63
1, 67660, Note_off_c, 0, 59, 41
1, 67666, Note_off_c, 0, 65, 53
1, 67673, Control_c, 0, 64, 42
1, 67688, Control_c, 0, 64, 59
1, 67703, Control_c, 0, 64, 68
1, 67718, Control_c, 0, 64, 75
1, 67727, Note_off_c, 0, 62, 36
1, 67733, Control_c, 0, 64, 83
1, 67748, Control_c, 0, 64, 88
1, 67763, Control_c, 0, 64, 94
1, 67778, Control_c, 0, 64, 107
1, 67780, Note_on_c, 0, 65, 80
1, 67784, Note_on_c, 0, 59, 61
1, 67787, Note_on_c, 0, 62, 60
1, 67793, Control_c, 0, 64, 127
1, 67901, Note_off_c, 0, 65, 56
1, 67907, Note_off_c, 0, 62, 47
1, 67912, Note_off_c, 0, 59, 33
1, 68022, Control_c, 0, 64, 91
1, 68034, Note_on_c, 0, 43, 75
1, 68035, Note_on_c, 0, 65, 82
1, 68037, Control_c, 0, 64, 70
1, 68039, Note_on_c, 0, 50, 3
1, 68039, Note_on_c, 0, 62, 71
1, 68045, Note_on_c, 0, 59, 66
1, 68052, Control_c, 0, 64, 57
1, 68067, Control_c, 0, 64, 54
1, 68076, Note_off_c, 0, 50, 50
1, 68082, Control_c, 0, 64, 61
1, 68097, Note_off_c, 0, 55, 54
1, 68097, Control_c, 0, 64, 65
1, 68112, Control_c, 0, 64, 72
1, 68126, Control_c, 0, 64, 85
1, 68141, Control_c, 0, 64, 127
1, 68165, Note_off_c, 0, 59, 35
1, 68199, Note_off_c, 0, 62, 29
1, 68204, Note_off_c, 0, 65, 55
1, 68279, Note_off_c, 0, 43, 52
1, 68305, Note_on_c, 0, 65, 85
1, 68306, Note_on_c, 0, 59, 73
1, 68306, Note_on_c, 0, 62, 67
1, 68367, Note_off_c, 0, 59, 60
1, 68368, Note_off_c, 0, 62, 62
1, 68386, Note_off_c, 0, 65, 60
1, 68706, Note_on_c, 0, 58, 76
1, 68710, Note_on_c, 0, 63, 81
1, 68711, Note_on_c, 0, 42, 72
1, 68720, Note_on_c, 0, 30, 65
1, 68756, Control_c, 0, 64, 97
1, 68771, Control_c, 0, 64, 71
1, 68786, Control_c, 0, 64, 49
1, 68800, Control_c, 0, 64, 0
1, 68845, Control_c, 0, 64, 47
1, 68860, Control_c, 0, 64, 55
1, 68875, Control_c, 0, 64, 61
1, 68890, Control_c, 0, 64, 66
1, 68904, Control_c, 0, 64, 73
1, 68919, Control_c, 0, 64, 81
1, 68934, Control_c, 0, 64, 87
1, 68949, Control_c, 0, 64, 92
1, 68954, Note_off_c, 0, 58, 56
1, 68955, Note_off_c, 0, 63, 53
1, 68964, Control_c, 0, 64, 98
1, 68979, Control_c, 0, 64, 112
1, 68994, Control_c, 0, 64, 127
1, 69068, Control_c, 0, 64, 95
1, 69074, Note_on_c, 0, 58, 67
1, 69077, Note_on_c, 0, 63, 70
1, 69083, Control_c, 0, 64, 68
1, 69098, Control_c, 0, 64, 52
1, 69113, Control_c, 0, 64, 35
1, 69128, Control_c, 0, 64, 38
1, 69143, Control_c, 0, 64, 44
1, 69158, Control_c, 0, 64, 54
1, 69172, Control_c, 0, 64, 64
1, 69187, Control_c, 0, 64, 73
1, 69202, Control_c, 0, 64, 88
1, 69217, Control_c, 0, 64, 122
1, 69231, Control_c, 0, 64, 127
1, 69247, Note_off_c, 0, 58, 37
1, 69252, Note_off_c, 0, 63, 54
1, 69310, Note_off_c, 0, 30, 48
1, 69381, Note_on_c, 0, 63, 52
1, 69385, Note_on_c, 0, 58, 45
1, 69395, Note_off_c, 0, 42, 54
1, 69430, Note_off_c, 0, 58, 56
1, 69455, Note_off_c, 0, 63, 49
1, 69614, Note_on_c, 0, 63, 47
1, 69632, Note_on_c, 0, 58, 33
1, 69674, Note_off_c, 0, 58, 48
1, 69688, Note_off_c, 0, 63, 52
1, 69844, Note_on_c, 0, 63, 46
1, 69864, Note_on_c, 0, 58, 24
1, 69917, Note_off_c, 0, 63, 49
1, 69919, Note_off_c, 0, 58, 43
1, 70081, Note_on_c, 0, 58, 29
1, 70085, Note_on_c, 0, 63, 35
1, 70154, Note_off_c, 0, 58, 42
1, 70160, Note_off_c, 0, 63, 40
1, 70313, Note_on_c, 0, 46, 46
1, 70317, Note_on_c, 0, 63, 47
1, 70335, Note_on_c, 0, 58, 33
1, 70395, Note_off_c, 0, 58, 52
1, 70416, Note_off_c, 0, 63, 49
1, 70550, Note_on_c, 0, 63, 45
1, 70552, Note_on_c, 0, 58, 34
1, 70608, Note_off_c, 0, 58, 48
1, 70650, Note_off_c, 0, 63, 37
1, 70743, Control_c, 0, 64, 117
1, 70756, Note_on_c, 0, 51, 60
1, 70758, Control_c, 0, 64, 83
1, 70768, Note_on_c, 0, 63, 46
1, 70773, Control_c, 0, 64, 67
1, 70788, Note_on_c, 0, 58, 26
1, 70788, Control_c, 0, 64, 60
1, 70803, Control_c, 0, 64, 59
1, 70818, Control_c, 0, 64, 63
1, 70833, Control_c, 0, 64, 68
1, 70848, Control_c, 0, 64, 76
1, 70863, Control_c, 0, 64, 88
1, 70864, Note_off_c, 0, 58, 38
1, 70868, Note_off_c, 0, 63, 53
1, 70877, Control_c, 0, 64, 100
1, 70878, Note_off_c, 0, 46, 57
1, 70892, Control_c, 0, 64, 117
1, 70907, Control_c, 0, 64, 127
1, 70996, Note_on_c, 0, 63, 41
1, 71002, Note_on_c, 0, 58, 33
1, 71049, Note_off_c, 0, 58, 47
1, 71056, Note_off_c, 0, 63, 43
1, 71192, Note_on_c, 0, 53, 72
1, 71210, Control_c, 0, 64, 92
1, 71225, Control_c, 0, 64, 71
1, 71233, Note_on_c, 0, 63, 36
1, 71240, Control_c, 0, 64, 58
1, 71253, Note_on_c, 0, 58, 9
1, 71255, Control_c, 0, 64, 50
1, 71269, Control_c, 0, 64, 55
1, 71284, Control_c, 0, 64, 60
1, 71287, Note_off_c, 0, 63, 44
1, 71299, Note_off_c, 0, 51, 59
1, 71299, Note_off_c, 0, 58, 43
1, 71299, Control_c, 0, 64, 65
1, 71314, Control_c, 0, 64, 72
1, 71329, Control_c, 0, 64, 81
1, 71343, Control_c, 0, 64, 88
1, 71358, Control_c, 0, 64, 93
1, 71373, Control_c, 0, 64, 97
1, 71388, Control_c, 0, 64, 100
1, 71402, Control_c, 0, 64, 104
1, 71408, Note_on_c, 0, 58, 45
1, 71411, Note_on_c, 0, 63, 47
1, 71417, Control_c, 0, 64, 111
1, 71432, Control_c, 0, 64, 122
1, 71448, Control_c, 0, 64, 127
1, 71466, Note_off_c, 0, 58, 44
1, 71489, Note_off_c, 0, 63, 48
1, 71678, Control_c, 0, 64, 108
1, 71693, Control_c, 0, 64, 96
1, 71694, Note_on_c, 0, 54, 57
1, 71707, Control_c, 0, 64, 85
1, 71708, Note_on_c, 0, 63, 40
1, 71722, Control_c, 0, 64, 72
1, 71737, Control_c, 0, 64, 61
1, 71745, Note_on_c, 0, 58, 17
1, 71752, Control_c, 0, 64, 40
1, 71767, Control_c, 0, 64, 0
1, 71797, Note_off_c, 0, 53, 63
1, 71805, Note_off_c, 0, 58, 44
1, 71839, Note_off_c, 0, 63, 56
1, 71841, Control_c, 0, 64, 34
1, 71856, Control_c, 0, 64, 50
1, 71870, Control_c, 0, 64, 62
1, 71885, Control_c, 0, 64, 66
1, 71900, Control_c, 0, 64, 70
1, 71915, Control_c, 0, 64, 74
1, 71930, Control_c, 0, 64, 77
1, 71944, Control_c, 0, 64, 79
1, 71959, Control_c, 0, 64, 81
1, 71964, Note_on_c, 0, 58, 25
1, 71969, Note_on_c, 0, 63, 40
1, 71974, Control_c, 0, 64, 83
1, 71989, Control_c, 0, 64, 85
1, 72004, Control_c, 0, 64, 87
1, 72018, Control_c, 0, 64, 89
1, 72033, Control_c, 0, 64, 91
1, 72048, Control_c, 0, 64, 92
1, 72063, Control_c, 0, 64, 95
1, 72090, Note_off_c, 0, 58, 32
1, 72092, Note_off_c, 0, 63, 36
1, 72092, Control_c, 0, 64, 98
1, 72122, Control_c, 0, 64, 101
1, 72137, Control_c, 0, 64, 104
1, 72151, Control_c, 0, 64, 106
1, 72181, Control_c, 0, 64, 104
1, 72196, Control_c, 0, 64, 91
1, 72211, Control_c, 0, 64, 78
1, 72216, Note_on_c, 0, 42, 41
1, 72225, Control_c, 0, 64, 69
1, 72233, Note_on_c, 0, 63, 40
1, 72241, Control_c, 0, 64, 64
1, 72256, Control_c, 0, 64, 64
1, 72258, Note_on_c, 0, 58, 30
1, 72271, Control_c, 0, 64, 65
1, 72286, Control_c, 0, 64, 67
1, 72301, Control_c, 0, 64, 71
1, 72302, Note_off_c, 0, 54, 54
1, 72315, Control_c, 0, 64, 75
1, 72330, Control_c, 0, 64, 81
1, 72345, Control_c, 0, 64, 88
1, 72360, Control_c, 0, 64, 96
1, 72367, Note_off_c, 0, 58, 32
1, 72371, Note_off_c, 0, 63, 37
1, 72374, Control_c, 0, 64, 104
1, 72389, Control_c, 0, 64, 115
1, 72404, Control_c, 0, 64, 127
1, 72489, Note_off_c, 0, 42, 41
1, 72530, Note_on_c, 0, 63, 44
1, 72550, Note_on_c, 0, 58, 33
1, 72600, Note_off_c, 0, 63, 51
1, 72619, Note_off_c, 0, 58, 43
1, 72988, Note_on_c, 0, 63, 32
1, 73006, Note_on_c, 0, 52, 33
1, 73012, Note_on_c, 0, 42, 33
1, 73042, Note_on_c, 0, 54, 33
1, 73052, Note_on_c, 0, 58, 29
1, 73065, Control_c, 0, 64, 102
1, 73080, Control_c, 0, 64, 80
1, 73095, Control_c, 0, 64, 65
1, 73110, Control_c, 0, 64, 47
1, 73125, Control_c, 0, 64, 0
1, 73176, Control_c, 0, 64, 41
1, 73191, Control_c, 0, 64, 48
1, 73206, Control_c, 0, 64, 56
1, 73221, Control_c, 0, 64, 62
1, 73236, Control_c, 0, 64, 67
1, 73251, Control_c, 0, 64, 73
1, 73266, Control_c, 0, 64, 81
1, 73280, Control_c, 0, 64, 87
1, 73295, Control_c, 0, 64, 94
1, 73310, Control_c, 0, 64, 102
1, 73325, Control_c, 0, 64, 113
1, 73340, Control_c, 0, 64, 127
1, 73354, Note_on_c, 0, 61, 39
1, 73356, Note_off_c, 0, 63, 39
1, 73369, Control_c, 0, 64, 112
1, 73384, Control_c, 0, 64, 92
1, 73398, Control_c, 0, 64, 78
1, 73413, Control_c, 0, 64, 71
1, 73428, Control_c, 0, 64, 70
1, 73443, Control_c, 0, 64, 72
1, 73458, Control_c, 0, 64, 77
1, 73472, Control_c, 0, 64, 85
1, 73487, Control_c, 0, 64, 99
1, 73491, Note_off_c, 0, 61, 56
1, 73502, Control_c, 0, 64, 127
1, 73575, Note_on_c, 0, 61, 37
1, 73640, Note_off_c, 0, 61, 54
1, 73798, Note_on_c, 0, 61, 46
1, 73851, Note_off_c, 0, 61, 56
1, 74032, Note_on_c, 0, 51, 40
1, 74043, Control_c, 0, 64, 104
1, 74058, Control_c, 0, 64, 76
1, 74073, Control_c, 0, 64, 60
1, 74074, Note_on_c, 0, 61, 40
1, 74083, Note_off_c, 0, 58, 44
1, 74088, Control_c, 0, 64, 0
1, 74100, Note_off_c, 0, 52, 40
1, 74132, Control_c, 0, 64, 35
1, 74146, Control_c, 0, 64, 45
1, 74161, Control_c, 0, 64, 52
1, 74176, Control_c, 0, 64, 59
1, 74191, Control_c, 0, 64, 65
1, 74206, Control_c, 0, 64, 70
1, 74220, Control_c, 0, 64, 77
1, 74235, Control_c, 0, 64, 84
1, 74236, Note_off_c, 0, 61, 51
1, 74250, Control_c, 0, 64, 93
1, 74265, Control_c, 0, 64, 107
1, 74270, Note_on_c, 0, 59, 47
1, 74280, Control_c, 0, 64, 127
1, 74339, Control_c, 0, 67, 19
1, 74354, Control_c, 0, 67, 23
1, 74368, Control_c, 0, 67, 28
1, 74383, Control_c, 0, 67, 37
1, 74398, Control_c, 0, 67, 52
1, 74405, Note_off_c, 0, 59, 35
1, 74413, Control_c, 0, 67, 73
1, 74428, Control_c, 0, 67, 92
1, 74428, Note_off_c, 0, 42, 43
1, 74443, Control_c, 0, 67, 112
1, 74458, Control_c, 0, 67, 127
1, 74475, Note_on_c, 0, 59, 36
1, 74534, Note_off_c, 0, 59, 50
1, 74550, Note_off_c, 0, 51, 37
1, 74698, Note_on_c, 0, 59, 46
1, 74705, Note_off_c, 0, 54, 40
1, 74721, Note_off_c, 0, 59, 60
1, 74917, Note_on_c, 0, 42, 33
1, 74922, Note_on_c, 0, 54, 33
1, 74929, Note_on_c, 0, 49, 31
1, 74940, Control_c, 0, 64, 92
1, 74944, Note_on_c, 0, 58, 41
1, 74946, Note_on_c, 0, 66, 45
1, 74955, Control_c, 0, 64, 72
1, 74969, Control_c, 0, 64, 58
1, 74984, Control_c, 0, 64, 0
1, 75147, Control_c, 0, 64, 40
1, 75161, Control_c, 0, 64, 55
1, 75169, Note_on_c, 0, 64, 40
1, 75176, Control_c, 0, 64, 63
1, 75191, Control_c, 0, 64, 67
1, 75203, Note_off_c, 0, 66, 36
1, 75206, Control_c, 0, 64, 72
1, 75221, Control_c, 0, 64, 76
1, 75236, Control_c, 0, 64, 80
1, 75251, Control_c, 0, 64, 87
1, 75266, Control_c, 0, 64, 94
1, 75266, Note_off_c, 0, 64, 56
1, 75281, Control_c, 0, 64, 103
1, 75295, Control_c, 0, 64, 127
1, 75392, Note_on_c, 0, 64, 42
1, 75479, Note_off_c, 0, 64, 44
1, 75620, Note_on_c, 0, 64, 46
1, 75654, Note_off_c, 0, 64, 58
1, 75695, Note_off_c, 0, 58, 41
1, 75825, Note_on_c, 0, 47, 39
1, 75852, Control_c, 0, 64, 108
1, 75856, Note_on_c, 0, 64, 27
1, 75859, Note_on_c, 0, 59, 33
1, 75866, Control_c, 0, 64, 87
1, 75881, Control_c, 0, 64, 72
1, 75896, Control_c, 0, 64, 59
1, 75906, Note_off_c, 0, 49, 45
1, 75910, Control_c, 0, 64, 0
1, 76059, Note_off_c, 0, 64, 41
1, 76070, Note_on_c, 0, 63, 40
1, 76103, Control_c, 0, 64, 44
1, 76117, Control_c, 0, 64, 59
1, 76132, Control_c, 0, 64, 65
1, 76147, Control_c, 0, 64, 70
1, 76169, Control_c, 0, 64, 74
1, 76184, Control_c, 0, 64, 80
1, 76199, Control_c, 0, 64, 85
1, 76204, Note_off_c, 0, 63, 37
1, 76214, Control_c, 0, 64, 92
1, 76229, Control_c, 0, 64, 101
1, 76235, Note_off_c, 0, 42, 7
1, 76244, Control_c, 0, 64, 117
1, 76259, Control_c, 0, 64, 127
1, 76273, Note_off_c, 0, 54, 38
1, 76285, Note_on_c, 0, 63, 39
1, 76358, Note_off_c, 0, 63, 51
1, 76512, Note_on_c, 0, 63, 43
1, 76541, Note_off_c, 0, 63, 59
1, 76806, Note_off_c, 0, 59, 38
1, 76810, Note_on_c, 0, 52, 30
1, 76814, Note_on_c, 0, 42, 32
1, 76839, Note_off_c, 0, 47, 31
1, 76840, Note_on_c, 0, 63, 41
1, 76843, Note_on_c, 0, 58, 36
1, 76866, Control_c, 0, 64, 97
1, 76881, Control_c, 0, 64, 77
1, 76896, Control_c, 0, 64, 62
1, 76918, Control_c, 0, 64, 0
1, 77037, Control_c, 0, 64, 40
1, 77052, Control_c, 0, 64, 56
1, 77058, Note_off_c, 0, 63, 51
1, 77067, Control_c, 0, 64, 63
1, 77082, Control_c, 0, 64, 66
1, 77097, Control_c, 0, 64, 69
1, 77108, Note_on_c, 0, 61, 35
1, 77111, Control_c, 0, 64, 72
1, 77126, Control_c, 0, 64, 74
1, 77141, Control_c, 0, 64, 74
1, 77156, Control_c, 0, 64, 73
1, 77171, Control_c, 0, 64, 68
1, 77185, Control_c, 0, 64, 62
1, 77200, Control_c, 0, 64, 57
1, 77215, Control_c, 0, 64, 59
1, 77230, Control_c, 0, 64, 62
1, 77235, Note_off_c, 0, 61, 50
1, 77245, Control_c, 0, 64, 65
1, 77260, Control_c, 0, 64, 69
1, 77275, Control_c, 0, 64, 75
1, 77290, Control_c, 0, 64, 83
1, 77305, Control_c, 0, 64, 92
1, 77319, Control_c, 0, 64, 100
1, 77327, Note_on_c, 0, 61, 33
1, 77334, Control_c, 0, 64, 110
1, 77349, Control_c, 0, 64, 127
1, 77389, Note_off_c, 0, 61, 53
1, 77547, Note_on_c, 0, 61, 46
1, 77605, Note_off_c, 0, 61, 54
1, 77756, Control_c, 0, 64, 98
1, 77770, Control_c, 0, 64, 82
1, 77779, Note_on_c, 0, 50, 37
1, 77785, Control_c, 0, 64, 69
1, 77800, Control_c, 0, 64, 58
1, 77808, Note_off_c, 0, 58, 43
1, 77809, Note_on_c, 0, 61, 34
1, 77815, Control_c, 0, 64, 0
1, 77821, Note_off_c, 0, 52, 37
1, 77919, Control_c, 0, 64, 44
1, 77934, Control_c, 0, 64, 56
1, 77949, Control_c, 0, 64, 63
1, 77964, Control_c, 0, 64, 66
1, 77975, Note_off_c, 0, 61, 45
1, 77979, Control_c, 0, 64, 68
1, 77993, Control_c, 0, 64, 71
1, 78008, Control_c, 0, 64, 74
1, 78011, Note_on_c, 0, 59, 27
1, 78023, Control_c, 0, 64, 78
1, 78038, Control_c, 0, 64, 83
1, 78053, Control_c, 0, 64, 88
1, 78068, Control_c, 0, 64, 94
1, 78083, Control_c, 0, 64, 101
1, 78098, Control_c, 0, 64, 112
1, 78106, Note_off_c, 0, 42, 34
1, 78112, Control_c, 0, 64, 127
1, 78112, Note_off_c, 0, 59, 29
1, 78204, Note_off_c, 0, 50, 38
1, 78228, Note_on_c, 0, 59, 28
1, 78273, Note_off_c, 0, 59, 46
1, 78438, Note_on_c, 0, 59, 39
1, 78494, Note_off_c, 0, 59, 59
1, 78656, Note_on_c, 0, 42, 37
1, 78697, Note_on_c, 0, 49, 31
1, 78706, Note_on_c, 0, 54, 25
1, 78727, Note_on_c, 0, 66, 38
1, 78737, Note_on_c, 0, 58, 29
1, 78743, Control_c, 0, 64, 94
1, 78758, Control_c, 0, 64, 80
1, 78773, Control_c, 0, 64, 67
1, 78788, Control_c, 0, 64, 54
1, 78802, Control_c, 0, 64, 0
1, 78928, Note_off_c, 0, 66, 46
1, 78950, Control_c, 0, 64, 45
1, 78962, Note_on_c, 0, 64, 28
1, 78965, Control_c, 0, 64, 56
1, 78980, Control_c, 0, 64, 62
1, 78995, Control_c, 0, 64, 65
1, 79010, Control_c, 0, 64, 69
1, 79025, Control_c, 0, 64, 73
1, 79040, Control_c, 0, 64, 78
1, 79054, Control_c, 0, 64, 83
1, 79058, Note_off_c, 0, 64, 35
1, 79069, Control_c, 0, 64, 88
1, 79084, Control_c, 0, 64, 95
1, 79099, Control_c, 0, 64, 104
1, 79114, Control_c, 0, 64, 117
1, 79128, Control_c, 0, 64, 127
1, 79196, Note_on_c, 0, 64, 39
1, 79248, Note_off_c, 0, 64, 46
1, 79412, Note_on_c, 0, 64, 39
1, 79452, Note_off_c, 0, 64, 53
1, 79522, Note_off_c, 0, 58, 42
1, 79710, Note_on_c, 0, 64, 30
1, 79712, Note_on_c, 0, 47, 30
1, 79716, Note_on_c, 0, 59, 31
1, 79729, Control_c, 0, 64, 124
1, 79744, Control_c, 0, 64, 98
1, 79758, Control_c, 0, 64, 82
1, 79773, Control_c, 0, 64, 69
1, 79783, Note_off_c, 0, 49, 46
1, 79788, Control_c, 0, 64, 56
1, 79803, Control_c, 0, 64, 0
1, 79943, Control_c, 0, 64, 36
1, 79952, Note_off_c, 0, 64, 49
1, 79958, Control_c, 0, 64, 50
1, 79973, Control_c, 0, 64, 60
1, 79985, Note_on_c, 0, 62, 36
1, 79987, Control_c, 0, 64, 65
1, 80002, Control_c, 0, 64, 68
1, 80017, Control_c, 0, 64, 72
1, 80032, Control_c, 0, 64, 75
1, 80047, Control_c, 0, 64, 78
1, 80062, Control_c, 0, 64, 82
1, 80077, Control_c, 0, 64, 86
1, 80081, Note_off_c, 0, 62, 47
1, 80091, Control_c, 0, 64, 90
1, 80106, Control_c, 0, 64, 95
1, 80121, Control_c, 0, 64, 98
1, 80136, Control_c, 0, 64, 101
1, 80165, Control_c, 0, 64, 104
1, 80209, Control_c, 0, 64, 98
1, 80224, Control_c, 0, 64, 85
1, 80238, Note_on_c, 0, 62, 39
1, 80241, Control_c, 0, 64, 72
1, 80255, Control_c, 0, 64, 64
1, 80270, Control_c, 0, 64, 60
1, 80285, Control_c, 0, 64, 60
1, 80300, Control_c, 0, 64, 63
1, 80314, Control_c, 0, 64, 66
1, 80329, Control_c, 0, 64, 70
1, 80344, Control_c, 0, 64, 76
1, 80359, Control_c, 0, 64, 82
1, 80366, Note_off_c, 0, 62, 55
1, 80373, Control_c, 0, 64, 87
1, 80388, Control_c, 0, 64, 92
1, 80403, Control_c, 0, 64, 97
1, 80418, Control_c, 0, 64, 102
1, 80433, Control_c, 0, 64, 107
1, 80448, Control_c, 0, 64, 112
1, 80462, Control_c, 0, 64, 127
1, 80471, Note_off_c, 0, 42, 40
1, 80518, Note_on_c, 0, 62, 39
1, 80521, Note_off_c, 0, 54, 38
1, 80583, Note_off_c, 0, 62, 52
1, 80617, Note_off_c, 0, 59, 34
1, 80961, Note_on_c, 0, 43, 32
1, 80974, Control_c, 0, 64, 112
1, 80983, Note_on_c, 0, 62, 34
1, 80986, Note_on_c, 0, 55, 36
1, 80989, Control_c, 0, 64, 90
1, 80990, Note_on_c, 0, 59, 30
1, 80993, Note_off_c, 0, 47, 39
1, 81004, Control_c, 0, 64, 74
1, 81019, Control_c, 0, 64, 61
1, 81034, Control_c, 0, 64, 36
1, 81049, Control_c, 0, 64, 0
1, 81064, Control_c, 0, 64, 33
1, 81078, Control_c, 0, 64, 43
1, 81093, Control_c, 0, 64, 51
1, 81108, Control_c, 0, 64, 59
1, 81123, Control_c, 0, 64, 65
1, 81138, Control_c, 0, 64, 70
1, 81150, Note_off_c, 0, 62, 53
1, 81153, Control_c, 0, 64, 75
1, 81168, Control_c, 0, 64, 80
1, 81183, Control_c, 0, 64, 85
1, 81198, Control_c, 0, 64, 91
1, 81212, Control_c, 0, 64, 99
1, 81227, Control_c, 0, 64, 109
1, 81242, Control_c, 0, 64, 127
1, 81347, Note_off_c, 0, 55, 33
1, 81453, Note_on_c, 0, 62, 30
1, 81547, Note_off_c, 0, 62, 49
1, 81552, Note_off_c, 0, 43, 37
1, 81645, Note_off_c, 0, 59, 24
1, 81739, Note_on_c, 0, 62, 32
1, 81852, Note_off_c, 0, 62, 46
1, 82003, Note_on_c, 0, 62, 43
1, 82070, Note_off_c, 0, 62, 50
1, 82241, Note_on_c, 0, 62, 36
1, 82307, Note_off_c, 0, 62, 49
1, 82460, Note_on_c, 0, 62, 28
1, 82515, Note_off_c, 0, 62, 45
1, 82656, Note_on_c, 0, 62, 37
1, 82707, Note_off_c, 0, 62, 47
1, 82868, Note_on_c, 0, 62, 30
1, 82934, Note_off_c, 0, 62, 43
1, 83132, Control_c, 0, 64, 112
1, 83147, Control_c, 0, 64, 86
1, 83162, Control_c, 0, 64, 71
1, 83164, Note_on_c, 0, 62, 30
1, 83174, Note_on_c, 0, 60, 28
1, 83176, Control_c, 0, 64, 60
1, 83191, Control_c, 0, 64, 51
1, 83206, Control_c, 0, 64, 53
1, 83221, Control_c, 0, 64, 60
1, 83235, Control_c, 0, 64, 66
1, 83250, Control_c, 0, 64, 73
1, 83265, Control_c, 0, 64, 80
1, 83280, Control_c, 0, 64, 87
1, 83292, Note_off_c, 0, 60, 31
1, 83295, Control_c, 0, 64, 91
1, 83309, Control_c, 0, 64, 96
1, 83317, Note_off_c, 0, 62, 33
1, 83324, Control_c, 0, 64, 102
1, 83339, Control_c, 0, 64, 108
1, 83354, Control_c, 0, 64, 115
1, 83369, Control_c, 0, 64, 119
1, 83383, Control_c, 0, 64, 122
1, 83398, Control_c, 0, 64, 124
1, 83413, Control_c, 0, 64, 127
1, 83477, Note_on_c, 0, 62, 34
1, 83499, Note_on_c, 0, 60, 22
1, 83554, Note_off_c, 0, 60, 46
1, 83589, Note_off_c, 0, 62, 35
1, 83703, Note_on_c, 0, 62, 37
1, 83707, Note_on_c, 0, 60, 34
1, 83766, Note_off_c, 0, 60, 43
1, 83767, Note_off_c, 0, 62, 44
1, 83924, Note_on_c, 0, 62, 36
1, 83931, Note_on_c, 0, 60, 31
1, 83972, Note_off_c, 0, 62, 46
1, 83973, Note_off_c, 0, 60, 49
1, 84138, Note_on_c, 0, 62, 27
1, 84158, Note_on_c, 0, 60, 16
1, 84200, Note_off_c, 0, 62, 42
1, 84205, Note_off_c, 0, 60, 48
1, 84355, Control_c, 0, 64, 115
1, 84369, Note_on_c, 0, 38, 36
1, 84370, Control_c, 0, 64, 106
1, 84385, Control_c, 0, 64, 100
1, 84390, Note_on_c, 0, 62, 30
1, 84408, Control_c, 0, 64, 95
1, 84420, Note_on_c, 0, 60, 20
1, 84423, Control_c, 0, 64, 91
1, 84437, Control_c, 0, 64, 86
1, 84452, Note_off_c, 0, 38, 52
1, 84452, Control_c, 0, 64, 80
1, 84467, Control_c, 0, 64, 73
1, 84474, Note_off_c, 0, 60, 45
1, 84481, Control_c, 0, 64, 67
1, 84493, Note_on_c, 0, 40, 40
1, 84493, Note_off_c, 0, 62, 36
1, 84496, Control_c, 0, 64, 62
1, 84511, Control_c, 0, 64, 57
1, 84526, Control_c, 0, 64, 53
1, 84541, Control_c, 0, 64, 52
1, 84555, Control_c, 0, 64, 51
1, 84569, Note_off_c, 0, 40, 54
1, 84570, Control_c, 0, 64, 50
1, 84585, Control_c, 0, 64, 46
1, 84589, Note_on_c, 0, 42, 47
1, 84599, Control_c, 0, 64, 36
1, 84614, Control_c, 0, 64, 0
1, 84624, Note_on_c, 0, 60, 39
1, 84624, Note_on_c, 0, 62, 44
1, 84678, Note_off_c, 0, 62, 56
1, 84679, Note_off_c, 0, 60, 48
1, 84686, Note_off_c, 0, 42, 57
1, 84693, Note_on_c, 0, 43, 50
1, 84775, Note_off_c, 0, 43, 60
1, 84789, Note_on_c, 0, 45, 52
1, 84793, Control_c, 0, 64, 36
1, 84807, Control_c, 0, 64, 47
1, 84818, Note_on_c, 0, 62, 41
1, 84822, Control_c, 0, 64, 58
1, 84835, Note_on_c, 0, 60, 26
1, 84837, Control_c, 0, 64, 63
1, 84852, Control_c, 0, 64, 65
1, 84864, Note_off_c, 0, 45, 57
1, 84867, Control_c, 0, 64, 67
1, 84870, Note_off_c, 0, 60, 50
1, 84878, Note_off_c, 0, 62, 53
1, 84881, Control_c, 0, 64, 67
1, 84884, Note_on_c, 0, 42, 47
1, 84911, Control_c, 0, 64, 68
1, 84985, Control_c, 0, 64, 67
1, 84999, Control_c, 0, 64, 65
1, 85014, Control_c, 0, 64, 59
1, 85030, Control_c, 0, 64, 47
1, 85032, Note_off_c, 0, 42, 57
1, 85045, Control_c, 0, 64, 0
1, 85055, Note_on_c, 0, 43, 38
1, 85066, Note_on_c, 0, 62, 32
1, 85077, Note_on_c, 0, 59, 27
1, 85156, Control_c, 0, 64, 41
1, 85166, Note_off_c, 0, 59, 39
1, 85171, Control_c, 0, 64, 56
1, 85175, Note_off_c, 0, 62, 52
1, 85186, Control_c, 0, 64, 64
1, 85201, Control_c, 0, 64, 66
1, 85216, Control_c, 0, 64, 69
1, 85230, Control_c, 0, 64, 70
1, 85245, Control_c, 0, 64, 72
1, 85260, Control_c, 0, 64, 74
1, 85275, Control_c, 0, 64, 76
1, 85290, Control_c, 0, 64, 79
1, 85304, Control_c, 0, 64, 81
1, 85319, Control_c, 0, 64, 83
1, 85323, Note_on_c, 0, 59, 36
1, 85330, Note_on_c, 0, 62, 38
1, 85334, Control_c, 0, 64, 84
1, 85349, Control_c, 0, 64, 85
1, 85364, Control_c, 0, 64, 85
1, 85370, Note_off_c, 0, 59, 45
1, 85377, Note_off_c, 0, 62, 45
1, 85378, Control_c, 0, 64, 86
1, 85393, Control_c, 0, 64, 87
1, 85422, Control_c, 0, 64, 88
1, 85537, Note_on_c, 0, 62, 35
1, 85587, Note_off_c, 0, 62, 43
1, 85587, Poly_aftertouch_c, 0, 59, 127
1, 85633, Poly_aftertouch_c, 0, 59, 0
1, 85727, Note_off_c, 0, 43, 30
1, 85756, Note_on_c, 0, 59, 29
1, 85761, Note_on_c, 0, 62, 39
1, 85809, Control_c, 0, 64, 87
1, 85809, Note_off_c, 0, 59, 44
1, 85821, Note_off_c, 0, 62, 53
1, 85839, Control_c, 0, 64, 87
1, 85854, Control_c, 0, 64, 86
1, 85869, Control_c, 0, 64, 86
1, 85884, Control_c, 0, 64, 85
1, 85906, Control_c, 0, 64, 85
1, 85935, Control_c, 0, 64, 84
1, 85950, Control_c, 0, 64, 84
1, 85965, Control_c, 0, 64, 83
1, 85980, Control_c, 0, 64, 82
1, 85995, Control_c, 0, 64, 82
1, 86009, Control_c, 0, 64, 81
1, 86024, Note_on_c, 0, 62, 30
1, 86024, Control_c, 0, 64, 81
1, 86039, Control_c, 0, 64, 80
1, 86054, Control_c, 0, 64, 80
1, 86055, Note_on_c, 0, 60, 11
1, 86083, Control_c, 0, 64, 79
1, 86095, Note_off_c, 0, 62, 50
1, 86098, Control_c, 0, 64, 79
1, 86109, Note_off_c, 0, 60, 46
1, 86113, Control_c, 0, 64, 78
1, 86128, Control_c, 0, 64, 77
1, 86143, Control_c, 0, 64, 76
1, 86158, Control_c, 0, 64, 74
1, 86172, Control_c, 0, 64, 73
1, 86187, Control_c, 0, 64, 72
1, 86202, Control_c, 0, 64, 71
1, 86217, Control_c, 0, 64, 69
1, 86232, Control_c, 0, 64, 68
1, 86246, Control_c, 0, 64, 66
1, 86252, Note_on_c, 0, 38, 33
1, 86261, Control_c, 0, 64, 65
1, 86265, Note_on_c, 0, 62, 37
1, 86276, Control_c, 0, 64, 63
1, 86280, Note_on_c, 0, 60, 20
1, 86291, Control_c, 0, 64, 62
1, 86306, Control_c, 0, 64, 59
1, 86319, Note_off_c, 0, 62, 53
1, 86320, Control_c, 0, 64, 57
1, 86331, Note_off_c, 0, 60, 47
1, 86335, Control_c, 0, 64, 54
1, 86338, Note_off_c, 0, 38, 53
1, 86350, Control_c, 0, 64, 51
1, 86365, Control_c, 0, 64, 49
1, 86367, Note_on_c, 0, 40, 45
1, 86379, Control_c, 0, 64, 45
1, 86394, Control_c, 0, 64, 40
1, 86409, Control_c, 0, 64, 0
1, 86462, Note_on_c, 0, 42, 55
1, 86462, Note_on_c, 0, 62, 47
1, 86468, Note_off_c, 0, 40, 55
1, 86468, Control_c, 0, 67, 121
1, 86471, Note_on_c, 0, 60, 41
1, 86483, Control_c, 0, 67, 111
1, 86498, Control_c, 0, 67, 101
1, 86513, Control_c, 0, 67, 90
1, 86516, Note_off_c, 0, 62, 55
1, 86523, Note_off_c, 0, 60, 59
1, 86528, Control_c, 0, 67, 76
1, 86542, Control_c, 0, 67, 64
1, 86551, Note_on_c, 0, 43, 60
1, 86557, Control_c, 0, 67, 52
1, 86562, Note_off_c, 0, 42, 60
1, 86572, Control_c, 0, 67, 40
1, 86587, Control_c, 0, 67, 28
1, 86602, Control_c, 0, 67, 0
1, 86631, Note_off_c, 0, 43, 63
1, 86644, Note_on_c, 0, 45, 67
1, 86652, Note_on_c, 0, 60, 55
1, 86657, Note_on_c, 0, 62, 49
1, 86697, Note_off_c, 0, 60, 59
1, 86700, Note_off_c, 0, 62, 59
1, 86733, Note_on_c, 0, 42, 62
1, 86734, Note_off_c, 0, 45, 56
1, 86861, Note_off_c, 0, 42, 60
1, 86905, Note_on_c, 0, 43, 49
1, 86921, Note_on_c, 0, 62, 47
1, 86931, Note_on_c, 0, 59, 41
1, 86981, Control_c, 0, 64, 41
1, 86995, Control_c, 0, 64, 59
1, 87010, Control_c, 0, 64, 67
1, 87025, Control_c, 0, 64, 73
1, 87040, Control_c, 0, 64, 80
1, 87055, Control_c, 0, 64, 86
1, 87067, Note_off_c, 0, 62, 54
1, 87069, Control_c, 0, 64, 91
1, 87070, Note_off_c, 0, 59, 48
1, 87084, Control_c, 0, 64, 96
1, 87098, Note_off_c, 0, 43, 52
1, 87099, Control_c, 0, 64, 100
1, 87114, Control_c, 0, 64, 105
1, 87231, Note_on_c, 0, 62, 40
1, 87232, Control_c, 0, 64, 98
1, 87236, Note_on_c, 0, 38, 41
1, 87247, Control_c, 0, 64, 90
1, 87249, Note_on_c, 0, 60, 38
1, 87261, Control_c, 0, 64, 82
1, 87276, Control_c, 0, 64, 74
1, 87288, Note_off_c, 0, 62, 54
1, 87291, Control_c, 0, 64, 66
1, 87298, Note_off_c, 0, 60, 45
1, 87306, Control_c, 0, 64, 55
1, 87311, Note_off_c, 0, 38, 55
1, 87320, Control_c, 0, 64, 36
1, 87335, Control_c, 0, 64, 0
1, 87340, Note_on_c, 0, 40, 49
1, 87440, Note_on_c, 0, 42, 64
1, 87451, Note_off_c, 0, 40, 55
1, 87452, Note_on_c, 0, 62, 51
1, 87464, Note_on_c, 0, 60, 46
1, 87505, Note_off_c, 0, 62, 52
1, 87509, Note_off_c, 0, 60, 60
1, 87535, Note_on_c, 0, 43, 75
1, 87553, Note_off_c, 0, 42, 61
1, 87622, Note_off_c, 0, 43, 64
1, 87622, Note_on_c, 0, 45, 76
1, 87629, Note_on_c, 0, 60, 68
1, 87633, Note_on_c, 0, 62, 64
1, 87686, Note_off_c, 0, 62, 54
1, 87692, Note_off_c, 0, 60, 61
1, 87714, Note_on_c, 0, 42, 74
1, 87723, Note_off_c, 0, 45, 58
1, 87844, Note_off_c, 0, 42, 61
1, 87867, Note_on_c, 0, 43, 66
1, 87883, Note_on_c, 0, 62, 66
1, 87887, Note_on_c, 0, 59, 58
1, 87907, Control_c, 0, 64, 43
1, 87922, Control_c, 0, 64, 51
1, 87937, Control_c, 0, 64, 59
1, 87951, Control_c, 0, 64, 65
1, 87966, Control_c, 0, 64, 70
1, 87981, Control_c, 0, 64, 77
1, 87995, Control_c, 0, 64, 87
1, 88010, Control_c, 0, 64, 97
1, 88019, Note_off_c, 0, 59, 53
1, 88024, Control_c, 0, 64, 109
1, 88031, Note_off_c, 0, 62, 53
1, 88039, Control_c, 0, 64, 127
1, 88084, Note_off_c, 0, 43, 38
1, 88160, Note_on_c, 0, 38, 55
1, 88169, Note_on_c, 0, 62, 56
1, 88174, Note_on_c, 0, 60, 56
1, 88180, Control_c, 0, 64, 116
1, 88195, Control_c, 0, 64, 98
1, 88210, Control_c, 0, 64, 83
1, 88226, Control_c, 0, 64, 73
1, 88233, Note_off_c, 0, 62, 49
1, 88236, Note_off_c, 0, 60, 46
1, 88240, Control_c, 0, 64, 65
1, 88255, Control_c, 0, 64, 58
1, 88265, Note_on_c, 0, 40, 61
1, 88267, Note_off_c, 0, 38, 58
1, 88270, Control_c, 0, 64, 46
1, 88285, Control_c, 0, 64, 0
1, 88352, Note_on_c, 0, 42, 73
1, 88361, Note_on_c, 0, 62, 68
1, 88363, Note_on_c, 0, 60, 72
1, 88381, Note_off_c, 0, 40, 61
1, 88439, Note_off_c, 0, 62, 56
1, 88450, Note_on_c, 0, 43, 81
1, 88461, Note_off_c, 0, 60, 50
1, 88474, Note_off_c, 0, 42, 63
1, 88540, Note_on_c, 0, 45, 78
1, 88543, Note_off_c, 0, 43, 64
1, 88555, Note_on_c, 0, 60, 83
1, 88555, Note_on_c, 0, 62, 75
1, 88624, Note_off_c, 0, 60, 59
1, 88628, Note_off_c, 0, 62, 59
1, 88631, Note_on_c, 0, 42, 79
1, 88653, Note_off_c, 0, 45, 60
1, 88825, Note_on_c, 0, 62, 71
1, 88833, Note_on_c, 0, 59, 60
1, 88840, Note_on_c, 0, 43, 75
1, 88894, Note_off_c, 0, 42, 62
1, 88974, Control_c, 0, 64, 42
1, 88989, Control_c, 0, 64, 58
1, 89004, Control_c, 0, 64, 65
1, 89020, Control_c, 0, 64, 71
1, 89035, Control_c, 0, 64, 78
1, 89047, Note_off_c, 0, 62, 61
1, 89049, Control_c, 0, 64, 86
1, 89064, Control_c, 0, 64, 93
1, 89079, Control_c, 0, 64, 98
1, 89094, Control_c, 0, 64, 101
1, 89109, Control_c, 0, 64, 103
1, 89154, Note_off_c, 0, 59, 55
1, 89196, Note_on_c, 0, 55, 59
1, 89286, Control_c, 0, 64, 100
1, 89301, Control_c, 0, 64, 98
1, 89309, Note_on_c, 0, 57, 74
1, 89331, Control_c, 0, 64, 95
1, 89338, Note_off_c, 0, 55, 55
1, 89345, Control_c, 0, 64, 93
1, 89360, Control_c, 0, 64, 92
1, 89375, Control_c, 0, 64, 90
1, 89389, Control_c, 0, 64, 89
1, 89404, Control_c, 0, 64, 88
1, 89417, Note_on_c, 0, 59, 72
1, 89419, Control_c, 0, 64, 87
1, 89434, Control_c, 0, 64, 87
1, 89449, Control_c, 0, 64, 86
1, 89464, Control_c, 0, 64, 85
1, 89479, Control_c, 0, 64, 84
1, 89488, Note_off_c, 0, 57, 60
1, 89494, Control_c, 0, 64, 82
1, 89505, Note_on_c, 0, 60, 78
1, 89508, Control_c, 0, 64, 81
1, 89523, Control_c, 0, 64, 79
1, 89538, Control_c, 0, 64, 76
1, 89543, Note_off_c, 0, 59, 60
1, 89553, Control_c, 0, 64, 73
1, 89568, Control_c, 0, 64, 70
1, 89583, Control_c, 0, 64, 66
1, 89597, Control_c, 0, 64, 61
1, 89599, Note_on_c, 0, 62, 73
1, 89607, Note_off_c, 0, 60, 64
1, 89612, Control_c, 0, 64, 55
1, 89627, Control_c, 0, 64, 48
1, 89649, Control_c, 0, 64, 41
1, 89664, Control_c, 0, 64, 0
1, 89693, Note_off_c, 0, 43, 61
1, 89705, Note_on_c, 0, 60, 72
1, 89741, Note_off_c, 0, 62, 57
1, 89817, Note_on_c, 0, 59, 64
1, 89836, Note_off_c, 0, 60, 52
1, 89857, Control_c, 0, 64, 35
1, 89872, Control_c, 0, 64, 56
1, 89887, Control_c, 0, 64, 66
1, 89901, Note_off_c, 0, 59, 63
1, 89902, Control_c, 0, 64, 74
1, 89917, Control_c, 0, 64, 82
1, 89932, Control_c, 0, 64, 88
1, 89947, Control_c, 0, 64, 94
1, 89961, Control_c, 0, 64, 101
1, 89976, Control_c, 0, 64, 108
1, 89991, Control_c, 0, 64, 120
1, 90006, Control_c, 0, 64, 127
1, 90090, Note_on_c, 0, 67, 67
1, 90109, Control_c, 0, 64, 108
1, 90124, Control_c, 0, 64, 94
1, 90138, Control_c, 0, 64, 82
1, 90153, Control_c, 0, 64, 71
1, 90168, Control_c, 0, 64, 62
1, 90174, Note_on_c, 0, 69, 73
1, 90183, Control_c, 0, 64, 41
1, 90198, Control_c, 0, 64, 0
1, 90199, Note_off_c, 0, 67, 61
1, 90272, Note_on_c, 0, 71, 78
1, 90336, Note_off_c, 0, 69, 57
1, 90355, Note_on_c, 0, 72, 78
1, 90421, Note_off_c, 0, 71, 61
1, 90461, Note_on_c, 0, 74, 79
1, 90477, Note_off_c, 0, 72, 62
1, 90565, Note_on_c, 0, 72, 73
1, 90597, Note_off_c, 0, 74, 57
1, 90679, Note_on_c, 0, 71, 69
1, 90685, Note_off_c, 0, 72, 50
1, 90709, Control_c, 0, 64, 45
1, 90723, Control_c, 0, 64, 61
1, 90738, Control_c, 0, 64, 66
1, 90753, Control_c, 0, 64, 69
1, 90760, Note_off_c, 0, 71, 65
1, 90767, Control_c, 0, 64, 72
1, 90782, Control_c, 0, 64, 75
1, 90797, Control_c, 0, 64, 82
1, 90812, Control_c, 0, 64, 90
1, 90827, Control_c, 0, 64, 98
1, 90841, Control_c, 0, 64, 104
1, 90856, Control_c, 0, 64, 106
1, 90943, Note_on_c, 0, 79, 71
1, 90975, Control_c, 0, 64, 100
1, 90990, Control_c, 0, 64, 91
1, 91005, Control_c, 0, 64, 82
1, 91020, Control_c, 0, 64, 74
1, 91029, Note_on_c, 0, 81, 82
1, 91035, Control_c, 0, 64, 66
1, 91050, Control_c, 0, 64, 58
1, 91054, Note_off_c, 0, 79, 62
1, 91064, Control_c, 0, 64, 41
1, 91079, Control_c, 0, 64, 0
1, 91141, Note_on_c, 0, 83, 84
1, 91211, Note_off_c, 0, 81, 56
1, 91226, Note_on_c, 0, 84, 85
1, 91272, Note_off_c, 0, 83, 64
1, 91331, Note_on_c, 0, 86, 67
1, 91337, Note_on_c, 0, 88, 68
1, 91340, Note_off_c, 0, 84, 63
1, 91359, Note_off_c, 0, 88, 64
1, 91413, Note_on_c, 0, 84, 80
1, 91449, Note_off_c, 0, 86, 61
1, 91575, Note_on_c, 0, 83, 75
1, 91601, Note_off_c, 0, 84, 57
1, 91680, Control_c, 0, 64, 38
1, 91695, Control_c, 0, 64, 51
1, 91709, Control_c, 0, 64, 58
1, 91724, Control_c, 0, 64, 61
1, 91739, Control_c, 0, 64, 63
1, 91754, Control_c, 0, 64, 66
1, 91769, Control_c, 0, 64, 69
1, 91783, Control_c, 0, 64, 73
1, 91798, Control_c, 0, 64, 77
1, 91813, Control_c, 0, 64, 78
1, 91816, Note_off_c, 0, 83, 54
1, 91857, Control_c, 0, 64, 76
1, 91866, Note_on_c, 0, 81, 86
1, 91872, Control_c, 0, 64, 70
1, 91895, Control_c, 0, 64, 59
1, 91909, Control_c, 0, 64, 40
1, 91924, Control_c, 0, 64, 34
1, 91939, Control_c, 0, 64, 47
1, 91954, Control_c, 0, 64, 59
1, 91969, Control_c, 0, 64, 66
1, 91984, Control_c, 0, 64, 74
1, 91998, Control_c, 0, 64, 95
1, 92013, Control_c, 0, 64, 127
1, 92061, Note_off_c, 0, 81, 61
1, 92102, Control_c, 0, 64, 90
1, 92108, Note_on_c, 0, 79, 96
1, 92117, Control_c, 0, 64, 67
1, 92132, Control_c, 0, 64, 41
1, 92147, Control_c, 0, 64, 0
1, 92161, Control_c, 0, 64, 42
1, 92176, Control_c, 0, 64, 56
1, 92191, Control_c, 0, 64, 64
1, 92206, Control_c, 0, 64, 70
1, 92221, Control_c, 0, 64, 77
1, 92230, Note_off_c, 0, 79, 61
1, 92236, Control_c, 0, 64, 86
1, 92242, Note_on_c, 0, 80, 35
1, 92251, Control_c, 0, 64, 98
1, 92266, Control_c, 0, 64, 127
1, 92279, Note_off_c, 0, 80, 51
1, 92361, Poly_aftertouch_c, 0, 83, 127
1, 92382, Note_on_c, 0, 78, 91
1, 92425, Poly_aftertouch_c, 0, 83, 0
1, 92507, Note_off_c, 0, 78, 61
1, 92794, Note_on_c, 0, 55, 39
1, 92821, Note_on_c, 0, 77, 80
1, 93030, Control_c, 0, 64, 103
1, 93044, Control_c, 0, 64, 90
1, 93059, Control_c, 0, 64, 79
1, 93074, Control_c, 0, 64, 70
1, 93089, Control_c, 0, 64, 61
1, 93104, Control_c, 0, 64, 50
1, 93118, Control_c, 0, 64, 42
1, 93133, Control_c, 0, 64, 40
1, 93163, Control_c, 0, 64, 40
1, 93178, Control_c, 0, 64, 38
1, 93187, Note_on_c, 0, 71, 64
1, 93193, Control_c, 0, 64, 36
1, 93208, Control_c, 0, 64, 35
1, 93267, Control_c, 0, 64, 34
1, 93283, Note_on_c, 0, 70, 75
1, 93285, Note_off_c, 0, 71, 60
1, 93297, Control_c, 0, 64, 34
1, 93327, Control_c, 0, 64, 33
1, 93342, Control_c, 0, 64, 0
1, 93396, Note_off_c, 0, 70, 63
1, 93398, Note_on_c, 0, 71, 82
1, 93486, Note_on_c, 0, 73, 80
1, 93516, Note_off_c, 0, 71, 62
1, 93601, Note_on_c, 0, 74, 73
1, 93619, Note_off_c, 0, 73, 61
1, 93701, Note_on_c, 0, 73, 74
1, 93712, Note_off_c, 0, 74, 56
1, 93859, Note_on_c, 0, 74, 51
1, 93900, Note_off_c, 0, 73, 56
1, 94144, Note_on_c, 0, 59, 50
1, 94145, Note_on_c, 0, 73, 56
1, 94147, Note_off_c, 0, 74, 36
1, 94235, Note_off_c, 0, 59, 60
1, 94240, Note_on_c, 0, 58, 57
1, 94332, Note_off_c, 0, 73, 57
1, 94341, Note_on_c, 0, 59, 72
1, 94373, Note_on_c, 0, 71, 62
1, 94409, Note_off_c, 0, 58, 44
1, 94427, Note_on_c, 0, 61, 81
1, 94443, Note_off_c, 0, 59, 58
1, 94488, Note_off_c, 0, 71, 56
1, 94532, Note_on_c, 0, 62, 79
1, 94539, Note_off_c, 0, 61, 61
1, 94566, Note_on_c, 0, 70, 66
1, 94614, Note_on_c, 0, 61, 76
1, 94618, Note_off_c, 0, 62, 63
1, 94719, Note_off_c, 0, 70, 57
1, 94749, Note_off_c, 0, 61, 59
1, 94755, Note_on_c, 0, 62, 49
1, 94792, Note_on_c, 0, 71, 48
1, 94999, Note_off_c, 0, 71, 56
1, 95006, Note_off_c, 0, 62, 51
1, 95045, Note_on_c, 0, 69, 53
1, 95056, Note_on_c, 0, 61, 51
1, 95206, Note_off_c, 0, 61, 60
1, 95252, Note_off_c, 0, 77, 54
1, 95255, Note_off_c, 0, 69, 49
1, 95295, Note_on_c, 0, 67, 41
1, 95297, Note_on_c, 0, 71, 46
1, 95308, Note_on_c, 0, 59, 36
1, 95437, Note_off_c, 0, 59, 60
1, 95565, Note_on_c, 0, 66, 42
1, 95565, Note_off_c, 0, 67, 39
1, 95583, Note_on_c, 0, 57, 26
1, 95587, Control_c, 0, 64, 44
1, 95602, Control_c, 0, 64, 56
1, 95617, Control_c, 0, 64, 63
1, 95639, Control_c, 0, 64, 67
1, 95654, Control_c, 0, 64, 71
1, 95669, Control_c, 0, 64, 74
1, 95683, Control_c, 0, 64, 77
1, 95693, Note_off_c, 0, 55, 59
1, 95698, Control_c, 0, 64, 78
1, 95713, Control_c, 0, 64, 79
1, 95728, Control_c, 0, 64, 79
1, 95749, Note_off_c, 0, 57, 40
1, 95836, Note_off_c, 0, 66, 55
1, 95846, Control_c, 0, 64, 78
1, 95859, Note_on_c, 0, 55, 38
1, 95861, Control_c, 0, 64, 76
1, 95867, Note_on_c, 0, 65, 48
1, 95876, Control_c, 0, 64, 72
1, 95891, Control_c, 0, 64, 67
1, 95905, Control_c, 0, 64, 61
1, 95920, Control_c, 0, 64, 50
1, 95935, Control_c, 0, 64, 34
1, 95950, Control_c, 0, 64, 0
1, 96153, Note_off_c, 0, 71, 56
1, 96171, Note_on_c, 0, 74, 46
1, 96197, Note_on_c, 0, 59, 21
1, 96481, Note_on_c, 0, 58, 33
1, 96487, Note_on_c, 0, 73, 40
1, 96490, Note_off_c, 0, 59, 37
1, 96573, Note_off_c, 0, 74, 35
1, 96700, Control_c, 0, 64, 35
1, 96714, Control_c, 0, 64, 38
1, 96729, Control_c, 0, 64, 42
1, 96737, Note_off_c, 0, 58, 44
1, 96744, Control_c, 0, 64, 47
1, 96759, Control_c, 0, 64, 51
1, 96774, Control_c, 0, 64, 57
1, 96788, Control_c, 0, 64, 61
1, 96794, Note_on_c, 0, 71, 42
1, 96802, Note_on_c, 0, 59, 32
1, 96803, Control_c, 0, 64, 63
1, 96818, Control_c, 0, 64, 65
1, 96832, Note_off_c, 0, 73, 36
1, 96833, Control_c, 0, 64, 67
1, 96847, Control_c, 0, 64, 71
1, 96862, Control_c, 0, 64, 76
1, 96877, Control_c, 0, 64, 81
1, 96879, Note_off_c, 0, 65, 52
1, 96886, Note_off_c, 0, 55, 61
1, 96892, Control_c, 0, 64, 85
1, 96907, Control_c, 0, 64, 91
1, 96922, Control_c, 0, 64, 98
1, 96937, Control_c, 0, 64, 108
1, 96952, Control_c, 0, 64, 127
1, 97177, Note_off_c, 0, 71, 16
1, 97256, Note_on_c, 0, 61, 27
1, 97258, Note_on_c, 0, 70, 38
1, 97262, Note_on_c, 0, 54, 30
1, 97271, Note_on_c, 0, 66, 33
1, 97360, Control_c, 0, 64, 111
1, 97375, Control_c, 0, 64, 90
1, 97390, Control_c, 0, 64, 78
1, 97404, Control_c, 0, 64, 67
1, 97416, Note_off_c, 0, 59, 42
1, 97419, Control_c, 0, 64, 56
1, 97434, Control_c, 0, 64, 0
1, 97552, Control_c, 0, 64, 37
1, 97567, Control_c, 0, 64, 49
1, 97582, Control_c, 0, 64, 57
1, 97597, Control_c, 0, 64, 63
1, 97611, Control_c, 0, 64, 67
1, 97626, Control_c, 0, 64, 72
1, 97641, Control_c, 0, 64, 76
1, 97655, Control_c, 0, 64, 81
1, 97670, Control_c, 0, 64, 86
1, 97685, Control_c, 0, 64, 92
1, 97700, Control_c, 0, 64, 100
1, 97711, Note_off_c, 0, 54, 39
1, 97715, Control_c, 0, 64, 114
1, 97725, Note_off_c, 0, 61, 38
1, 97730, Control_c, 0, 64, 127
1, 97845, Note_off_c, 0, 70, 35
1, 97889, Note_off_c, 0, 66, 33
1, 98227, Control_c, 0, 64, 117
1, 98242, Control_c, 0, 64, 104
1, 98257, Control_c, 0, 64, 96
1, 98272, Control_c, 0, 64, 90
1, 98286, Control_c, 0, 64, 85
1, 98301, Control_c, 0, 64, 81
1, 98316, Control_c, 0, 64, 77
1, 98331, Control_c, 0, 64, 73
1, 98345, Control_c, 0, 64, 69
1, 98360, Control_c, 0, 64, 66
1, 98375, Control_c, 0, 64, 63
1, 98390, Control_c, 0, 64, 60
1, 98404, Control_c, 0, 64, 56
1, 98419, Control_c, 0, 64, 54
1, 98434, Control_c, 0, 64, 53
1, 98449, Control_c, 0, 64, 53
1, 98464, Control_c, 0, 64, 51
1, 98478, Control_c, 0, 64, 50
1, 98493, Control_c, 0, 64, 48
1, 98508, Control_c, 0, 64, 46
1, 98523, Control_c, 0, 64, 45
1, 98538, Control_c, 0, 64, 44
1, 98553, Control_c, 0, 64, 44
1, 98567, Control_c, 0, 64, 43
1, 98582, Control_c, 0, 64, 41
1, 98598, Control_c, 0, 64, 39
1, 98613, Control_c, 0, 64, 37
1, 98636, Control_c, 0, 64, 35
1, 98651, Control_c, 0, 64, 34
1, 98665, Control_c, 0, 64, 0
1, 98980, Note_on_c, 0, 78, 84
1, 99000, Note_on_c, 0, 47, 28
1, 99001, Note_on_c, 0, 66, 54
1, 99007, Note_on_c, 0, 74, 62
1, 99009, Note_on_c, 0, 35, 36
1, 99022, Note_on_c, 0, 71, 49
1, 99050, Control_c, 0, 64, 36
1, 99065, Control_c, 0, 64, 46
1, 99080, Control_c, 0, 64, 53
1, 99095, Control_c, 0, 64, 57
1, 99109, Control_c, 0, 64, 61
1, 99124, Control_c, 0, 64, 66
1, 99139, Control_c, 0, 64, 73
1, 99154, Control_c, 0, 64, 82
1, 99169, Control_c, 0, 64, 95
1, 99183, Control_c, 0, 64, 108
1, 99198, Control_c, 0, 64, 127
1, 99202, Note_off_c, 0, 35, 38
1, 99277, Note_off_c, 0, 47, 40
1, 99712, Note_on_c, 0, 38, 40
1, 99718, Note_on_c, 0, 50, 37
1, 99724, Control_c, 0, 64, 100
1, 99739, Control_c, 0, 64, 78
1, 99754, Control_c, 0, 64, 65
1, 99769, Control_c, 0, 64, 53
1, 99784, Control_c, 0, 64, 51
1, 99813, Control_c, 0, 64, 53
1, 99828, Control_c, 0, 64, 56
1, 99843, Control_c, 0, 64, 59
1, 99858, Control_c, 0, 64, 64
1, 99873, Control_c, 0, 64, 68
1, 99888, Control_c, 0, 64, 71
1, 99900, Note_off_c, 0, 74, 58
1, 99903, Control_c, 0, 64, 74
1, 99915, Note_off_c, 0, 38, 38
1, 99918, Control_c, 0, 64, 78
1, 99932, Control_c, 0, 64, 82
1, 99933, Note_off_c, 0, 78, 62
1, 99947, Control_c, 0, 64, 89
1, 99962, Control_c, 0, 64, 101
1, 99976, Control_c, 0, 64, 114
1, 99989, Note_off_c, 0, 71, 28
1, 99991, Control_c, 0, 64, 127
1, 100009, Note_off_c, 0, 50, 41
1, 100182, Note_on_c, 0, 76, 54
1, 100192, Note_off_c, 0, 66, 35
1, 100288, Note_on_c, 0, 74, 56
1, 100390, Note_off_c, 0, 76, 34
1, 100399, Control_c, 0, 64, 117
1, 100414, Control_c, 0, 64, 105
1, 100422, Note_on_c, 0, 42, 39
1, 100429, Note_on_c, 0, 73, 48
1, 100429, Control_c, 0, 64, 95
1, 100434, Note_on_c, 0, 54, 33
1, 100444, Control_c, 0, 64, 86
1, 100454, Note_off_c, 0, 74, 36
1, 100459, Control_c, 0, 64, 77
1, 100467, Note_on_c, 0, 70, 31
1, 100470, Note_on_c, 0, 66, 20
1, 100473, Control_c, 0, 64, 70
1, 100488, Control_c, 0, 64, 64
1, 100503, Control_c, 0, 64, 53
1, 100518, Control_c, 0, 64, 35
1, 100533, Control_c, 0, 64, 0
1, 100681, Control_c, 0, 64, 42
1, 100696, Control_c, 0, 64, 53
1, 100711, Control_c, 0, 64, 61
1, 100726, Control_c, 0, 64, 64
1, 100741, Control_c, 0, 64, 66
1, 100755, Control_c, 0, 64, 68
1, 100770, Control_c, 0, 64, 70
1, 100785, Control_c, 0, 64, 74
1, 100799, Control_c, 0, 64, 78
1, 100814, Control_c, 0, 64, 81
1, 100829, Control_c, 0, 64, 84
1, 100844, Control_c, 0, 64, 86
1, 100859, Control_c, 0, 64, 90
1, 100879, Note_off_c, 0, 42, 37
1, 100881, Control_c, 0, 64, 93
1, 100896, Control_c, 0, 64, 97
1, 100910, Control_c, 0, 64, 100
1, 100940, Control_c, 0, 64, 102
1, 101075, Note_off_c, 0, 54, 39
1, 101086, Note_off_c, 0, 73, 36
1, 101096, Note_off_c, 0, 66, 39
1, 101119, Note_off_c, 0, 70, 35
1, 101178, Control_c, 0, 64, 96
1, 101193, Control_c, 0, 64, 89
1, 101208, Control_c, 0, 64, 81
1, 101222, Control_c, 0, 64, 73
1, 101237, Control_c, 0, 64, 65
1, 101252, Control_c, 0, 64, 51
1, 101267, Control_c, 0, 64, 0
1, 101282, Control_c, 0, 67, 23
1, 101296, Control_c, 0, 67, 32
1, 101311, Control_c, 0, 67, 42
1, 101326, Control_c, 0, 67, 57
1, 101341, Control_c, 0, 67, 72
1, 101356, Control_c, 0, 67, 87
1, 101370, Control_c, 0, 67, 103
1, 101385, Control_c, 0, 67, 123
1, 101400, Control_c, 0, 64, 37
1, 101400, Control_c, 0, 67, 127
1, 101415, Control_c, 0, 64, 46
1, 101429, Control_c, 0, 64, 54
1, 101444, Control_c, 0, 64, 60
1, 101459, Control_c, 0, 64, 63
1, 101475, Control_c, 0, 64, 65
1, 101490, Control_c, 0, 64, 66
1, 101504, Control_c, 0, 64, 68
1, 101519, Control_c, 0, 64, 70
1, 101534, Control_c, 0, 64, 72
1, 101549, Control_c, 0, 64, 74
1, 101564, Control_c, 0, 64, 76
1, 101578, Control_c, 0, 64, 78
1, 101593, Control_c, 0, 64, 80
1, 101608, Control_c, 0, 64, 81
1, 101630, Control_c, 0, 64, 82
1, 101645, Control_c, 0, 64, 83
1, 101660, Control_c, 0, 64, 84
1, 101675, Control_c, 0, 64, 84
1, 101690, Control_c, 0, 64, 85
1, 101719, Control_c, 0, 64, 85
1, 101927, Control_c, 0, 64, 85
1, 101942, Control_c, 0, 64, 84
1, 101957, Control_c, 0, 64, 82
1, 101972, Control_c, 0, 64, 79
1, 101986, Note_on_c, 0, 53, 26
1, 101987, Control_c, 0, 64, 74
1, 101995, Note_on_c, 0, 68, 33
1, 101995, Note_on_c, 0, 74, 38
1, 102001, Control_c, 0, 64, 68
1, 102007, Note_on_c, 0, 59, 23
1, 102016, Control_c, 0, 64, 61
1, 102031, Control_c, 0, 64, 48
1, 102046, Control_c, 0, 64, 38
1, 102061, Control_c, 0, 64, 42
1, 102076, Control_c, 0, 64, 46
1, 102091, Control_c, 0, 64, 50
1, 102106, Control_c, 0, 64, 53
1, 102120, Control_c, 0, 64, 58
1, 102135, Control_c, 0, 64, 63
1, 102150, Control_c, 0, 64, 67
1, 102164, Control_c, 0, 64, 69
1, 102179, Control_c, 0, 64, 71
1, 102194, Control_c, 0, 64, 72
1, 102209, Control_c, 0, 64, 74
1, 102224, Control_c, 0, 64, 75
1, 102239, Control_c, 0, 64, 77
1, 102253, Control_c, 0, 64, 79
1, 102268, Control_c, 0, 64, 81
1, 102283, Control_c, 0, 64, 82
1, 102298, Control_c, 0, 64, 83
1, 102313, Control_c, 0, 64, 84
1, 102327, Control_c, 0, 64, 85
1, 102342, Control_c, 0, 64, 85
1, 102357, Control_c, 0, 64, 86
1, 102374, Note_off_c, 0, 59, 42
1, 102404, Note_off_c, 0, 74, 49
1, 102425, Note_on_c, 0, 62, 29
1, 102453, Control_c, 0, 64, 84
1, 102454, Note_on_c, 0, 71, 37
1, 102468, Control_c, 0, 64, 77
1, 102476, Note_off_c, 0, 62, 43
1, 102483, Control_c, 0, 64, 70
1, 102498, Control_c, 0, 64, 62
1, 102513, Control_c, 0, 64, 49
1, 102521, Note_off_c, 0, 71, 54
1, 102527, Control_c, 0, 64, 38
1, 102535, Note_on_c, 0, 74, 46
1, 102538, Note_on_c, 0, 59, 23
1, 102542, Control_c, 0, 64, 41
1, 102557, Control_c, 0, 64, 48
1, 102571, Control_c, 0, 64, 53
1, 102586, Control_c, 0, 64, 56
1, 102602, Control_c, 0, 64, 60
1, 102606, Note_off_c, 0, 68, 36
1, 102617, Control_c, 0, 64, 64
1, 102632, Control_c, 0, 64, 69
1, 102647, Control_c, 0, 64, 73
1, 102662, Control_c, 0, 64, 76
1, 102676, Control_c, 0, 64, 77
1, 102683, Note_off_c, 0, 53, 40
1, 102691, Control_c, 0, 64, 79
1, 102706, Control_c, 0, 64, 80
1, 102721, Control_c, 0, 64, 82
1, 102736, Control_c, 0, 64, 83
1, 102750, Control_c, 0, 64, 85
1, 102765, Control_c, 0, 64, 85
1, 102780, Control_c, 0, 64, 86
1, 102794, Control_c, 0, 64, 86
1, 102809, Note_off_c, 0, 59, 34
1, 102809, Control_c, 0, 64, 87
1, 102839, Control_c, 0, 64, 87
1, 102854, Control_c, 0, 64, 88
1, 102892, Note_off_c, 0, 74, 33
1, 102934, Note_on_c, 0, 62, 36
1, 102951, Note_on_c, 0, 71, 38
1, 103014, Note_off_c, 0, 62, 49
1, 103046, Control_c, 0, 64, 86
1, 103054, Note_off_c, 0, 71, 38
1, 103060, Control_c, 0, 64, 83
1, 103075, Control_c, 0, 64, 78
1, 103083, Note_on_c, 0, 70, 39
1, 103090, Control_c, 0, 64, 71
1, 103105, Control_c, 0, 64, 64
1, 103107, Note_on_c, 0, 61, 23
1, 103109, Note_on_c, 0, 54, 20
1, 103109, Note_on_c, 0, 66, 28
1, 103128, Control_c, 0, 64, 55
1, 103142, Control_c, 0, 64, 41
1, 103157, Control_c, 0, 64, 0
1, 103246, Control_c, 0, 64, 34
1, 103261, Control_c, 0, 64, 43
1, 103275, Control_c, 0, 64, 50
1, 103290, Control_c, 0, 64, 55
1, 103305, Control_c, 0, 64, 58
1, 103319, Control_c, 0, 64, 61
1, 103334, Control_c, 0, 64, 64
1, 103349, Control_c, 0, 64, 68
1, 103364, Control_c, 0, 64, 72
1, 103379, Control_c, 0, 64, 75
1, 103395, Control_c, 0, 64, 77
1, 103410, Control_c, 0, 64, 80
1, 103419, Note_off_c, 0, 54, 40
1, 103424, Control_c, 0, 64, 84
1, 103439, Control_c, 0, 64, 87
1, 103442, Note_off_c, 0, 61, 40
1, 103454, Control_c, 0, 64, 91
1, 103469, Control_c, 0, 64, 93
1, 103484, Control_c, 0, 64, 95
1, 103513, Control_c, 0, 64, 98
1, 103528, Control_c, 0, 64, 100
1, 103543, Control_c, 0, 64, 103
1, 103558, Control_c, 0, 64, 105
1, 103568, Note_off_c, 0, 66, 34
1, 103570, Note_off_c, 0, 70, 41
1, 103721, Control_c, 0, 64, 101
1, 103736, Control_c, 0, 64, 96
1, 103751, Control_c, 0, 64, 90
1, 103766, Control_c, 0, 64, 85
1, 103781, Control_c, 0, 64, 81
1, 103796, Control_c, 0, 64, 77
1, 103811, Control_c, 0, 64, 73
1, 103825, Control_c, 0, 64, 69
1, 103840, Control_c, 0, 64, 65
1, 103855, Control_c, 0, 64, 61
1, 103877, Control_c, 0, 64, 58
1, 103892, Control_c, 0, 64, 57
1, 103906, Control_c, 0, 64, 57
1, 103921, Control_c, 0, 64, 55
1, 103936, Control_c, 0, 64, 49
1, 103951, Control_c, 0, 64, 38
1, 103966, Control_c, 0, 64, 0
1, 104070, Control_c, 0, 64, 33
1, 104085, Control_c, 0, 64, 42
1, 104099, Control_c, 0, 64, 48
1, 104114, Control_c, 0, 64, 53
1, 104129, Control_c, 0, 64, 58
1, 104143, Control_c, 0, 64, 62
1, 104158, Control_c, 0, 64, 64
1, 104173, Control_c, 0, 64, 65
1, 104188, Control_c, 0, 64, 67
1, 104204, Control_c, 0, 64, 69
1, 104219, Control_c, 0, 64, 71
1, 104234, Control_c, 0, 64, 74
1, 104248, Control_c, 0, 64, 77
1, 104263, Control_c, 0, 64, 79
1, 104278, Control_c, 0, 64, 82
1, 104293, Control_c, 0, 64, 85
1, 104308, Control_c, 0, 64, 88
1, 104322, Control_c, 0, 64, 91
1, 104337, Control_c, 0, 64, 94
1, 104352, Control_c, 0, 64, 94
1, 104366, Control_c, 0, 64, 95
1, 104408, Note_on_c, 0, 66, 35
1, 104499, Control_c, 0, 64, 94
1, 104514, Control_c, 0, 64, 90
1, 104529, Control_c, 0, 64, 82
1, 104544, Control_c, 0, 64, 73
1, 104559, Control_c, 0, 64, 65
1, 104573, Control_c, 0, 64, 55
1, 104588, Control_c, 0, 64, 42
1, 104603, Control_c, 0, 64, 34
1, 104625, Control_c, 0, 64, 36
1, 104640, Control_c, 0, 64, 41
1, 104654, Control_c, 0, 64, 46
1, 104669, Control_c, 0, 64, 50
1, 104684, Control_c, 0, 64, 54
1, 104699, Control_c, 0, 64, 59
1, 104714, Control_c, 0, 64, 62
1, 104729, Control_c, 0, 64, 66
1, 104744, Control_c, 0, 64, 70
1, 104759, Control_c, 0, 64, 74
1, 104773, Control_c, 0, 64, 77
1, 104788, Control_c, 0, 64, 78
1, 104803, Control_c, 0, 64, 80
1, 104818, Control_c, 0, 64, 82
1, 104833, Control_c, 0, 64, 85
1, 104847, Control_c, 0, 64, 88
1, 104849, Note_off_c, 0, 66, 45
1, 104862, Control_c, 0, 64, 91
1, 104877, Control_c, 0, 64, 92
1, 104891, Control_c, 0, 64, 92
1, 104906, Control_c, 0, 64, 93
1, 104921, Control_c, 0, 64, 94
1, 104936, Control_c, 0, 64, 94
1, 105026, Control_c, 0, 64, 94
1, 105041, Control_c, 0, 64, 92
1, 105051, Note_on_c, 0, 66, 45
1, 105056, Control_c, 0, 64, 87
1, 105070, Control_c, 0, 64, 80
1, 105085, Control_c, 0, 64, 73
1, 105100, Control_c, 0, 64, 64
1, 105115, Control_c, 0, 64, 51
1, 105130, Control_c, 0, 64, 38
1, 105144, Control_c, 0, 64, 38
1, 105159, Control_c, 0, 64, 46
1, 105174, Control_c, 0, 64, 52
1, 105188, Control_c, 0, 64, 55
1, 105203, Control_c, 0, 64, 58
1, 105218, Control_c, 0, 64, 62
1, 105233, Control_c, 0, 64, 66
1, 105248, Control_c, 0, 64, 71
1, 105262, Control_c, 0, 64, 74
1, 105277, Control_c, 0, 64, 77
1, 105292, Control_c, 0, 64, 78
1, 105307, Control_c, 0, 64, 80
1, 105322, Control_c, 0, 64, 81
1, 105336, Control_c, 0, 64, 83
1, 105351, Control_c, 0, 64, 85
1, 105373, Control_c, 0, 64, 87
1, 105388, Control_c, 0, 64, 90
1, 105403, Control_c, 0, 64, 92
1, 105418, Control_c, 0, 64, 94
1, 105432, Control_c, 0, 64, 96
1, 105477, Control_c, 0, 64, 99
1, 105488, Note_off_c, 0, 66, 48
1, 105758, Control_c, 0, 64, 96
1, 105773, Control_c, 0, 64, 93
1, 105789, Control_c, 0, 64, 90
1, 105801, Note_on_c, 0, 71, 45
1, 105804, Control_c, 0, 64, 87
1, 105818, Control_c, 0, 64, 85
1, 105833, Control_c, 0, 64, 81
1, 105848, Control_c, 0, 64, 76
1, 105863, Control_c, 0, 64, 70
1, 105878, Control_c, 0, 64, 63
1, 105892, Control_c, 0, 64, 54
1, 105907, Control_c, 0, 64, 46
1, 105922, Control_c, 0, 64, 41
1, 105936, Control_c, 0, 64, 39
1, 105951, Control_c, 0, 64, 36
1, 105967, Control_c, 0, 64, 0
1, 106011, Control_c, 0, 64, 36
1, 106026, Control_c, 0, 64, 41
1, 106041, Control_c, 0, 64, 46
1, 106056, Control_c, 0, 64, 52
1, 106071, Control_c, 0, 64, 57
1, 106085, Control_c, 0, 64, 62
1, 106100, Control_c, 0, 64, 66
1, 106123, Control_c, 0, 64, 69
1, 106138, Control_c, 0, 64, 73
1, 106152, Control_c, 0, 64, 76
1, 106167, Control_c, 0, 64, 78
1, 106182, Control_c, 0, 64, 81
1, 106197, Control_c, 0, 64, 85
1, 106212, Control_c, 0, 64, 90
1, 106226, Control_c, 0, 64, 95
1, 106241, Control_c, 0, 64, 100
1, 106256, Control_c, 0, 64, 104
1, 106271, Control_c, 0, 64, 106
1, 106315, Control_c, 0, 64, 108
1, 106392, Note_off_c, 0, 71, 40
1, 106642, Control_c, 0, 64, 106
1, 106657, Control_c, 0, 64, 104
1, 106672, Control_c, 0, 64, 101
1, 106687, Control_c, 0, 64, 98
1, 106702, Control_c, 0, 64, 95
1, 106716, Control_c, 0, 64, 92
1, 106731, Control_c, 0, 64, 90
1, 106746, Control_c, 0, 64, 86
1, 106760, Control_c, 0, 64, 80
1, 106775, Control_c, 0, 64, 71
1, 106790, Control_c, 0, 64, 63
1, 106805, Control_c, 0, 64, 51
1, 106820, Control_c, 0, 64, 41
1, 106834, Control_c, 0, 64, 40
1, 106849, Control_c, 0, 64, 43
1, 106872, Control_c, 0, 64, 47
1, 106887, Control_c, 0, 64, 50
1, 106902, Control_c, 0, 64, 53
1, 106916, Control_c, 0, 64, 57
1, 106931, Control_c, 0, 64, 62
1, 106946, Control_c, 0, 64, 66
1, 106961, Control_c, 0, 64, 71
1, 106975, Control_c, 0, 64, 76
1, 106990, Control_c, 0, 64, 80
1, 107005, Control_c, 0, 64, 82
1, 107020, Control_c, 0, 64, 84
1, 107035, Control_c, 0, 64, 85
1, 107049, Control_c, 0, 64, 87
1, 107064, Control_c, 0, 64, 88
1, 107079, Control_c, 0, 64, 89
1, 107093, Control_c, 0, 64, 90
1, 107108, Control_c, 0, 64, 90
1, 107123, Note_on_c, 0, 38, 33
1, 107123, Control_c, 0, 64, 91
1, 107135, Note_on_c, 0, 50, 26
1, 107143, Note_on_c, 0, 59, 35
1, 107153, Control_c, 0, 64, 91
1, 107155, Note_on_c, 0, 54, 32
1, 107266, Note_off_c, 0, 50, 41
1, 107283, Note_off_c, 0, 59, 34
1, 107307, Note_off_c, 0, 38, 38
1, 107437, Note_on_c, 0, 59, 43
1, 107451, Note_off_c, 0, 54, 40
1, 107534, Note_off_c, 0, 59, 53
1, 107650, Control_c, 0, 64, 91
1, 107665, Control_c, 0, 64, 88
1, 107680, Control_c, 0, 64, 81
1, 107695, Control_c, 0, 64, 73
1, 107709, Control_c, 0, 64, 64
1, 107724, Control_c, 0, 64, 50
1, 107730, Note_on_c, 0, 59, 28
1, 107730, Note_on_c, 0, 62, 40
1, 107734, Note_on_c, 0, 47, 22
1, 107739, Control_c, 0, 64, 44
1, 107740, Note_on_c, 0, 35, 29
1, 107754, Control_c, 0, 64, 47
1, 107769, Control_c, 0, 64, 53
1, 107783, Control_c, 0, 64, 58
1, 107798, Control_c, 0, 64, 63
1, 107813, Control_c, 0, 64, 67
1, 107828, Control_c, 0, 64, 73
1, 107837, Note_off_c, 0, 35, 34
1, 107843, Control_c, 0, 64, 78
1, 107844, Note_off_c, 0, 62, 48
1, 107857, Control_c, 0, 64, 81
1, 107872, Control_c, 0, 64, 82
1, 107887, Control_c, 0, 64, 83
1, 107902, Control_c, 0, 64, 85
1, 107916, Control_c, 0, 64, 85
1, 107931, Control_c, 0, 64, 86
1, 107939, Note_off_c, 0, 47, 40
1, 107961, Control_c, 0, 64, 87
1, 107976, Control_c, 0, 64, 87
1, 107990, Control_c, 0, 64, 88
1, 108005, Control_c, 0, 64, 88
1, 108018, Note_on_c, 0, 62, 36
1, 108035, Control_c, 0, 64, 89
1, 108047, Note_off_c, 0, 59, 41
1, 108065, Control_c, 0, 64, 89
1, 108106, Note_off_c, 0, 62, 45
1, 108318, Control_c, 0, 64, 89
1, 108332, Control_c, 0, 64, 88
1, 108336, Note_on_c, 0, 42, 34
1, 108347, Control_c, 0, 64, 88
1, 108369, Note_on_c, 0, 54, 25
1, 108369, Control_c, 0, 64, 86
1, 108380, Note_on_c, 0, 66, 34
1, 108384, Note_on_c, 0, 58, 33
1, 108384, Control_c, 0, 64, 84
1, 108399, Control_c, 0, 64, 82
1, 108400, Note_on_c, 0, 61, 24
1, 108413, Control_c, 0, 64, 79
1, 108428, Control_c, 0, 64, 74
1, 108443, Control_c, 0, 64, 70
1, 108458, Control_c, 0, 64, 63
1, 108473, Control_c, 0, 64, 53
1, 108488, Control_c, 0, 64, 36
1, 108503, Control_c, 0, 64, 0
1, 108636, Control_c, 0, 64, 45
1, 108651, Control_c, 0, 64, 53
1, 108666, Control_c, 0, 64, 59
1, 108680, Control_c, 0, 64, 63
1, 108695, Control_c, 0, 64, 65
1, 108710, Control_c, 0, 64, 68
1, 108725, Control_c, 0, 64, 71
1, 108732, Note_off_c, 0, 54, 41
1, 108739, Control_c, 0, 64, 74
1, 108754, Control_c, 0, 64, 76
1, 108769, Control_c, 0, 64, 79
1, 108784, Control_c, 0, 64, 81
1, 108799, Control_c, 0, 64, 83
1, 108813, Control_c, 0, 64, 85
1, 108828, Control_c, 0, 64, 88
1, 108843, Control_c, 0, 64, 89
1, 108848, Note_off_c, 0, 42, 42
1, 108858, Note_off_c, 0, 66, 36
1, 108858, Control_c, 0, 64, 90
1, 108872, Control_c, 0, 64, 90
1, 108884, Note_off_c, 0, 58, 50
1, 108887, Control_c, 0, 64, 91
1, 108903, Note_off_c, 0, 61, 51
1, 109036, Control_c, 0, 64, 90
1, 109051, Control_c, 0, 64, 88
1, 109066, Control_c, 0, 64, 83
1, 109081, Control_c, 0, 64, 76
1, 109096, Control_c, 0, 64, 68
1, 109118, Control_c, 0, 64, 59
1, 109133, Control_c, 0, 64, 40
1, 109148, Control_c, 0, 64, 36
1, 109163, Control_c, 0, 64, 38
1, 109177, Control_c, 0, 64, 42
1, 109192, Control_c, 0, 64, 47
1, 109207, Control_c, 0, 64, 52
1, 109222, Control_c, 0, 64, 60
1, 109236, Control_c, 0, 64, 65
1, 109251, Control_c, 0, 64, 69
1, 109266, Control_c, 0, 64, 73
1, 109281, Control_c, 0, 64, 76
1, 109296, Control_c, 0, 64, 78
1, 109311, Control_c, 0, 64, 80
1, 109326, Control_c, 0, 64, 82
1, 109340, Control_c, 0, 64, 84
1, 109355, Control_c, 0, 64, 85
1, 109370, Control_c, 0, 64, 86
1, 109385, Control_c, 0, 64, 87
1, 109400, Control_c, 0, 64, 88
1, 109430, Control_c, 0, 64, 88
1, 109581, Note_on_c, 0, 38, 26
1, 109584, Note_on_c, 0, 50, 17
1, 109584, Note_on_c, 0, 59, 34
1, 109600, Note_on_c, 0, 54, 23
1, 109740, Note_off_c, 0, 50, 38
1, 109749, Note_off_c, 0, 59, 32
1, 109785, Note_off_c, 0, 38, 33
1, 109904, Note_on_c, 0, 59, 41
1, 109921, Note_off_c, 0, 54, 40
1, 109968, Note_off_c, 0, 59, 51
1, 110133, Control_c, 0, 64, 87
1, 110148, Control_c, 0, 64, 82
1, 110163, Control_c, 0, 64, 76
1, 110178, Control_c, 0, 64, 67
1, 110193, Control_c, 0, 64, 55
1, 110208, Control_c, 0, 64, 33
1, 110208, Note_on_c, 0, 62, 37
1, 110211, Note_on_c, 0, 47, 14
1, 110217, Note_on_c, 0, 35, 9
1, 110223, Control_c, 0, 64, 0
1, 110227, Note_on_c, 0, 59, 22
1, 110238, Control_c, 0, 64, 42
1, 110253, Control_c, 0, 64, 54
1, 110267, Control_c, 0, 64, 62
1, 110282, Control_c, 0, 64, 66
1, 110297, Control_c, 0, 64, 71
1, 110311, Control_c, 0, 64, 75
1, 110324, Note_off_c, 0, 35, 33
1, 110326, Control_c, 0, 64, 78
1, 110341, Note_off_c, 0, 62, 36
1, 110341, Control_c, 0, 64, 79
1, 110356, Control_c, 0, 64, 81
1, 110371, Control_c, 0, 64, 82
1, 110385, Control_c, 0, 64, 83
1, 110400, Control_c, 0, 64, 84
1, 110408, Note_off_c, 0, 47, 41
1, 110415, Control_c, 0, 64, 85
1, 110429, Control_c, 0, 64, 85
1, 110444, Control_c, 0, 64, 86
1, 110459, Control_c, 0, 64, 86
1, 110489, Control_c, 0, 64, 87
1, 110503, Control_c, 0, 64, 87
1, 110518, Note_on_c, 0, 62, 30
1, 110518, Control_c, 0, 64, 88
1, 110533, Control_c, 0, 64, 88
1, 110579, Control_c, 0, 64, 89
1, 110592, Note_off_c, 0, 59, 39
1, 110622, Note_off_c, 0, 62, 47
1, 110705, Control_c, 0, 64, 89
1, 110853, Control_c, 0, 64, 89
1, 110927, Control_c, 0, 64, 88
1, 110956, Control_c, 0, 64, 88
1, 110957, Note_on_c, 0, 42, 25
1, 110962, Note_on_c, 0, 54, 18
1, 110971, Control_c, 0, 64, 87
1, 110976, Note_on_c, 0, 58, 27
1, 110981, Note_on_c, 0, 66, 29
1, 110983, Note_on_c, 0, 61, 23
1, 110986, Control_c, 0, 64, 86
1, 111001, Control_c, 0, 64, 84
1, 111016, Control_c, 0, 64, 81
1, 111031, Control_c, 0, 64, 79
1, 111045, Control_c, 0, 64, 76
1, 111060, Control_c, 0, 64, 72
1, 111075, Control_c, 0, 64, 66
1, 111090, Control_c, 0, 64, 58
1, 111105, Control_c, 0, 64, 44
1, 111120, Control_c, 0, 64, 0
1, 111283, Control_c, 0, 64, 41
1, 111298, Control_c, 0, 64, 47
1, 111313, Control_c, 0, 64, 53
1, 111327, Control_c, 0, 64, 58
1, 111342, Control_c, 0, 64, 62
1, 111364, Control_c, 0, 64, 65
1, 111380, Control_c, 0, 64, 67
1, 111395, Control_c, 0, 64, 69
1, 111410, Control_c, 0, 64, 71
1, 111421, Note_off_c, 0, 54, 40
1, 111425, Control_c, 0, 64, 73
1, 111439, Control_c, 0, 64, 75
1, 111454, Control_c, 0, 64, 77
1, 111469, Control_c, 0, 64, 79
1, 111484, Control_c, 0, 64, 82
1, 111499, Control_c, 0, 64, 84
1, 111513, Control_c, 0, 64, 85
1, 111528, Control_c, 0, 64, 85
1, 111537, Note_off_c, 0, 66, 36
1, 111538, Note_off_c, 0, 42, 30
1, 111543, Control_c, 0, 64, 86
1, 111573, Control_c, 0, 64, 87
1, 111576, Note_off_c, 0, 58, 42
1, 111615, Note_off_c, 0, 61, 37
1, 111677, Control_c, 0, 64, 86
1, 111706, Control_c, 0, 64, 85
1, 111721, Control_c, 0, 64, 82
1, 111736, Control_c, 0, 64, 79
1, 111751, Control_c, 0, 64, 73
1, 111765, Control_c, 0, 64, 67
1, 111780, Control_c, 0, 64, 59
1, 111795, Control_c, 0, 64, 49
1, 111810, Control_c, 0, 64, 41
1, 111839, Control_c, 0, 64, 43
1, 111854, Control_c, 0, 64, 47
1, 111869, Control_c, 0, 64, 51
1, 111883, Control_c, 0, 64, 55
1, 111898, Control_c, 0, 64, 61
1, 111913, Control_c, 0, 64, 65
1, 111928, Control_c, 0, 64, 68
1, 111943, Control_c, 0, 64, 71
1, 111958, Control_c, 0, 64, 73
1, 111973, Control_c, 0, 64, 74
1, 111987, Control_c, 0, 64, 77
1, 112002, Control_c, 0, 64, 79
1, 112017, Control_c, 0, 64, 82
1, 112032, Control_c, 0, 64, 84
1, 112047, Control_c, 0, 64, 86
1, 112062, Control_c, 0, 64, 87
1, 112076, Control_c, 0, 64, 88
1, 112091, Control_c, 0, 64, 89
1, 112113, Control_c, 0, 64, 90
1, 112128, Control_c, 0, 64, 90
1, 112143, Control_c, 0, 64, 91
1, 112188, Control_c, 0, 64, 91
1, 112218, Control_c, 0, 64, 92
1, 112297, Note_on_c, 0, 38, 30
1, 112309, Note_on_c, 0, 59, 27
1, 112322, Note_on_c, 0, 54, 27
1, 112333, Note_on_c, 0, 50, 11
1, 112351, Control_c, 0, 64, 92
1, 112397, Note_off_c, 0, 50, 42
1, 112455, Control_c, 0, 64, 93
1, 112457, Note_off_c, 0, 59, 31
1, 112473, Note_off_c, 0, 38, 33
1, 112640, Note_on_c, 0, 59, 32
1, 112658, Note_off_c, 0, 54, 41
1, 112706, Control_c, 0, 64, 93
1, 112717, Note_off_c, 0, 59, 47
1, 112966, Control_c, 0, 64, 93
1, 112982, Control_c, 0, 64, 88
1, 112997, Control_c, 0, 64, 80
1, 113005, Note_on_c, 0, 62, 27
1, 113010, Note_on_c, 0, 47, 18
1, 113011, Control_c, 0, 64, 70
1, 113014, Note_on_c, 0, 35, 28
1, 113023, Note_on_c, 0, 59, 18
1, 113026, Control_c, 0, 64, 60
1, 113041, Control_c, 0, 64, 49
1, 113055, Control_c, 0, 64, 49
1, 113070, Control_c, 0, 64, 54
1, 113085, Control_c, 0, 64, 58
1, 113100, Control_c, 0, 64, 62
1, 113115, Control_c, 0, 64, 67
1, 113129, Control_c, 0, 64, 72
1, 113144, Control_c, 0, 64, 78
1, 113159, Control_c, 0, 64, 81
1, 113165, Note_off_c, 0, 62, 35
1, 113171, Note_off_c, 0, 35, 35
1, 113174, Control_c, 0, 64, 83
1, 113189, Note_off_c, 0, 47, 34
1, 113189, Control_c, 0, 64, 85
1, 113204, Control_c, 0, 64, 86
1, 113219, Control_c, 0, 64, 88
1, 113233, Control_c, 0, 64, 89
1, 113248, Control_c, 0, 64, 90
1, 113263, Control_c, 0, 64, 91
1, 113278, Control_c, 0, 64, 92
1, 113293, Control_c, 0, 64, 94
1, 113308, Control_c, 0, 64, 94
1, 113322, Control_c, 0, 64, 95
1, 113337, Control_c, 0, 64, 95
1, 113352, Control_c, 0, 64, 96
1, 113391, Note_on_c, 0, 62, 33
1, 113493, Note_off_c, 0, 62, 47
1, 113499, Note_off_c, 0, 59, 41
1, 113529, Control_c, 0, 64, 98
1, 113969, Note_on_c, 0, 42, 36
1, 113985, Note_on_c, 0, 58, 30
1, 113988, Note_on_c, 0, 66, 30
1, 113991, Note_on_c, 0, 54, 15
1, 114004, Note_on_c, 0, 61, 28
1, 114041, Control_c, 0, 64, 94
1, 114056, Control_c, 0, 64, 91
1, 114071, Control_c, 0, 64, 87
1, 114085, Control_c, 0, 64, 82
1, 114100, Control_c, 0, 64, 77
1, 114115, Control_c, 0, 64, 73
1, 114130, Control_c, 0, 64, 68
1, 114145, Control_c, 0, 64, 63
1, 114159, Control_c, 0, 64, 54
1, 114174, Control_c, 0, 64, 45
1, 114189, Control_c, 0, 64, 38
1, 114204, Control_c, 0, 64, 34
1, 114219, Control_c, 0, 64, 0
1, 114449, Control_c, 0, 64, 36
1, 114464, Control_c, 0, 64, 44
1, 114478, Control_c, 0, 64, 54
1, 114493, Control_c, 0, 64, 60
1, 114508, Control_c, 0, 64, 62
1, 114523, Control_c, 0, 64, 63
1, 114538, Control_c, 0, 64, 65
1, 114552, Control_c, 0, 64, 66
1, 114567, Control_c, 0, 64, 68
1, 114583, Control_c, 0, 64, 70
1, 114598, Control_c, 0, 64, 72
1, 114607, Note_off_c, 0, 42, 36
1, 114612, Note_off_c, 0, 54, 33
1, 114613, Control_c, 0, 64, 73
1, 114627, Control_c, 0, 64, 74
1, 114642, Control_c, 0, 64, 74
1, 114657, Control_c, 0, 64, 75
1, 114672, Control_c, 0, 64, 76
1, 114679, Note_off_c, 0, 58, 38
1, 114687, Control_c, 0, 64, 77
1, 114701, Control_c, 0, 64, 78
1, 114706, Note_off_c, 0, 66, 40
1, 114781, Note_off_c, 0, 61, 37
1, 114998, Control_c, 0, 64, 77
1, 115013, Control_c, 0, 64, 75
1, 115027, Control_c, 0, 64, 72
1, 115042, Control_c, 0, 64, 67
1, 115057, Control_c, 0, 64, 62
1, 115072, Control_c, 0, 64, 53
1, 115087, Control_c, 0, 64, 39
1, 115108, Control_c, 0, 64, 0
1, 115168, Control_c, 0, 64, 36
1, 115183, Control_c, 0, 64, 44
1, 115198, Control_c, 0, 64, 51
1, 115213, Control_c, 0, 64, 56
1, 115227, Control_c, 0, 64, 59
1, 115242, Control_c, 0, 64, 63
1, 115257, Control_c, 0, 64, 65
1, 115272, Control_c, 0, 64, 68
1, 115287, Control_c, 0, 64, 71
1, 115301, Control_c, 0, 64, 73
1, 115316, Control_c, 0, 64, 75
1, 115331, Control_c, 0, 64, 76
1, 115345, Control_c, 0, 64, 78
1, 115360, Control_c, 0, 64, 79
1, 115377, Control_c, 0, 64, 80
1, 115392, Control_c, 0, 64, 82
1, 115406, Control_c, 0, 64, 83
1, 115421, Control_c, 0, 64, 84
1, 115436, Control_c, 0, 64, 86
1, 115450, Control_c, 0, 64, 88
1, 115465, Control_c, 0, 64, 90
1, 115472, Note_on_c, 0, 66, 31
1, 115480, Control_c, 0, 64, 92
1, 115495, Control_c, 0, 64, 94
1, 115496, Note_on_c, 0, 54, 19
1, 115502, Note_on_c, 0, 42, 31
1, 115510, Control_c, 0, 64, 95
1, 115514, Note_on_c, 0, 58, 15
1, 115515, Note_on_c, 0, 61, 16
1, 115539, Control_c, 0, 64, 98
1, 115569, Control_c, 0, 64, 100
1, 115628, Control_c, 0, 64, 102
1, 115717, Control_c, 0, 64, 104
1, 115887, Control_c, 0, 64, 106
1, 116208, Note_off_c, 0, 54, 32
1, 116214, Note_off_c, 0, 42, 41
1, 116357, Note_off_c, 0, 66, 34
1, 116411, Note_off_c, 0, 58, 37
1, 116554, Note_off_c, 0, 61, 37
1, 116637, Control_c, 0, 64, 104
1, 116667, Control_c, 0, 64, 101
1, 116681, Control_c, 0, 64, 98
1, 116696, Control_c, 0, 64, 94
1, 116711, Control_c, 0, 64, 90
1, 116726, Control_c, 0, 64, 87
1, 116741, Control_c, 0, 64, 84
1, 116755, Control_c, 0, 64, 82
1, 116770, Control_c, 0, 64, 80
1, 116785, Control_c, 0, 64, 78
1, 116799, Control_c, 0, 64, 76
1, 116814, Control_c, 0, 64, 74
1, 116829, Control_c, 0, 64, 72
1, 116844, Control_c, 0, 64, 70
1, 116859, Control_c, 0, 64, 68
1, 116873, Control_c, 0, 64, 67
1, 116888, Control_c, 0, 64, 65
1, 116903, Control_c, 0, 64, 64
1, 116918, Control_c, 0, 64, 63
1, 116933, Control_c, 0, 64, 62
1, 116948, Control_c, 0, 64, 60
1, 116963, Control_c, 0, 64, 59
1, 116978, Control_c, 0, 64, 56
1, 116993, Control_c, 0, 64, 53
1, 117008, Control_c, 0, 64, 49
1, 117022, Control_c, 0, 64, 46
1, 117037, Control_c, 0, 64, 42
1, 117052, Control_c, 0, 64, 36
1, 117067, Control_c, 0, 64, 0
1, 117097, Control_c, 0, 64, 35
1, 117112, Control_c, 0, 64, 41
1, 117127, Control_c, 0, 64, 46
1, 117141, Control_c, 0, 64, 50
1, 117156, Control_c, 0, 64, 54
1, 117171, Control_c, 0, 64, 58
1, 117186, Control_c, 0, 64, 62
1, 117200, Control_c, 0, 64, 65
1, 117215, Control_c, 0, 64, 67
1, 117229, Control_c, 0, 64, 69
1, 117244, Control_c, 0, 64, 72
1, 117259, Control_c, 0, 64, 74
1, 117274, Control_c, 0, 64, 78
1, 117289, Control_c, 0, 64, 81
1, 117303, Control_c, 0, 64, 85
1, 117318, Control_c, 0, 64, 89
1, 117333, Control_c, 0, 64, 93
1, 117356, Control_c, 0, 64, 96
1, 117371, Control_c, 0, 64, 100
1, 117385, Control_c, 0, 64, 104
1, 117400, Control_c, 0, 64, 108
1, 117415, Control_c, 0, 64, 113
1, 117429, Control_c, 0, 64, 119
1, 117444, Control_c, 0, 64, 127
1, 117478, Note_on_c, 0, 42, 33
1, 117485, Note_on_c, 0, 54, 12
1, 117493, Note_on_c, 0, 66, 33
1, 117516, Note_on_c, 0, 61, 24
1, 117518, Note_on_c, 0, 58, 28
1, 117812, Note_off_c, 0, 54, 36
1, 117843, Note_off_c, 0, 42, 35
1, 117898, Note_off_c, 0, 66, 33
1, 118026, Note_off_c, 0, 58, 40
1, 118164, Control_c, 0, 67, 120
1, 118178, Control_c, 0, 67, 114
1, 118193, Control_c, 0, 67, 105
1, 118208, Control_c, 0, 67, 96
1, 118223, Control_c, 0, 67, 86
1, 118238, Control_c, 0, 67, 76
1, 118252, Control_c, 0, 67, 67
1, 118267, Control_c, 0, 67, 59
1, 118282, Control_c, 0, 67, 50
1, 118297, Control_c, 0, 67, 42
1, 118312, Control_c, 0, 67, 35
1, 118326, Control_c, 0, 67, 30
1, 118341, Control_c, 0, 67, 24
1, 118356, Control_c, 0, 67, 0
1, 118465, Note_on_c, 0, 66, 40
1, 118525, Note_off_c, 0, 61, 33
1, 118850, Note_off_c, 0, 66, 54
1, 119199, Note_on_c, 0, 66, 55
1, 119312, Control_c, 0, 64, 112
1, 119326, Control_c, 0, 64, 92
1, 119341, Control_c, 0, 64, 76
1, 119356, Control_c, 0, 64, 65
1, 119371, Control_c, 0, 64, 54
1, 119386, Control_c, 0, 64, 50
1, 119401, Control_c, 0, 64, 51
1, 119416, Control_c, 0, 64, 53
1, 119431, Control_c, 0, 64, 54
1, 119446, Control_c, 0, 64, 56
1, 119461, Control_c, 0, 64, 59
1, 119475, Control_c, 0, 64, 62
1, 119490, Control_c, 0, 64, 64
1, 119505, Control_c, 0, 64, 67
1, 119520, Control_c, 0, 64, 71
1, 119535, Control_c, 0, 64, 74
1, 119550, Control_c, 0, 64, 77
1, 119564, Control_c, 0, 64, 80
1, 119579, Control_c, 0, 64, 83
1, 119601, Control_c, 0, 64, 86
1, 119601, Control_c, 0, 67, 21
1, 119616, Control_c, 0, 64, 89
1, 119616, Control_c, 0, 67, 24
1, 119630, Control_c, 0, 64, 92
1, 119630, Control_c, 0, 67, 27
1, 119645, Control_c, 0, 64, 96
1, 119645, Control_c, 0, 67, 31
1, 119660, Control_c, 0, 64, 98
1, 119660, Control_c, 0, 67, 36
1, 119675, Control_c, 0, 67, 45
1, 119678, Note_off_c, 0, 66, 55
1, 119690, Control_c, 0, 64, 101
1, 119690, Control_c, 0, 67, 55
1, 119705, Control_c, 0, 67, 67
1, 119720, Control_c, 0, 64, 104
1, 119720, Control_c, 0, 67, 77
1, 119735, Control_c, 0, 67, 84
1, 119749, Control_c, 0, 64, 106
1, 119749, Control_c, 0, 67, 90
1, 119764, Control_c, 0, 67, 95
1, 119779, Control_c, 0, 67, 98
1, 119794, Control_c, 0, 64, 109
1, 119794, Control_c, 0, 67, 100
1, 119823, Control_c, 0, 67, 105
1, 119838, Control_c, 0, 67, 111
1, 119853, Control_c, 0, 67, 119
1, 119868, Control_c, 0, 67, 127
1, 119893, Note_on_c, 0, 66, 47
1, 119927, Control_c, 0, 64, 104
1, 119941, Control_c, 0, 64, 95
1, 119956, Control_c, 0, 64, 82
1, 119971, Control_c, 0, 64, 70
1, 119986, Control_c, 0, 64, 58
1, 120001, Control_c, 0, 64, 49
1, 120015, Control_c, 0, 64, 48
1, 120045, Control_c, 0, 64, 49
1, 120060, Control_c, 0, 64, 51
1, 120075, Control_c, 0, 64, 54
1, 120090, Control_c, 0, 64, 59
1, 120104, Control_c, 0, 64, 62
1, 120119, Control_c, 0, 64, 65
1, 120134, Control_c, 0, 64, 68
1, 120149, Control_c, 0, 64, 73
1, 120164, Control_c, 0, 64, 78
1, 120179, Control_c, 0, 64, 82
1, 120194, Control_c, 0, 64, 85
1, 120209, Control_c, 0, 64, 89
1, 120224, Control_c, 0, 64, 94
1, 120239, Control_c, 0, 64, 99
1, 120254, Control_c, 0, 64, 101
1, 120268, Control_c, 0, 64, 103
1, 120283, Control_c, 0, 64, 107
1, 120298, Control_c, 0, 64, 112
1, 120313, Control_c, 0, 64, 115
1, 120365, Control_c, 0, 64, 117
1, 120435, Note_off_c, 0, 66, 37
1, 120453, Control_c, 0, 64, 120
1, 120829, Note_on_c, 0, 50, 30
1, 120838, Control_c, 0, 64, 122
1, 120863, Note_on_c, 0, 66, 37
1, 120987, Control_c, 0, 64, 124
1, 121017, Control_c, 0, 64, 127
1, 121240, Note_on_c, 0, 57, 30
1, 121464, Note_off_c, 0, 57, 40
1, 121479, Note_on_c, 0, 54, 35
1, 121659, Note_off_c, 0, 66, 36
1, 121679, Note_off_c, 0, 50, 38
1, 121722, Note_on_c, 0, 57, 24
1, 121805, Note_off_c, 0, 57, 34
1, 121863, Control_c, 0, 67, 122
1, 121878, Control_c, 0, 67, 105
1, 121893, Control_c, 0, 67, 89
1, 121908, Control_c, 0, 67, 74
1, 121923, Control_c, 0, 67, 59
1, 121937, Control_c, 0, 67, 48
1, 121952, Control_c, 0, 67, 37
1, 121956, Note_on_c, 0, 50, 27
1, 121965, Note_on_c, 0, 66, 49
1, 121967, Control_c, 0, 67, 30
1, 121982, Control_c, 0, 67, 24
1, 121997, Control_c, 0, 67, 0
1, 122140, Note_off_c, 0, 66, 58
1, 122194, Note_off_c, 0, 54, 41
1, 122196, Note_on_c, 0, 57, 36
1, 122415, Note_off_c, 0, 57, 40
1, 122436, Note_on_c, 0, 54, 32
1, 122458, Note_on_c, 0, 66, 63
1, 122633, Note_off_c, 0, 50, 33
1, 122697, Note_on_c, 0, 57, 34
1, 122889, Note_off_c, 0, 57, 38
1, 122971, Note_on_c, 0, 50, 28
1, 122999, Note_on_c, 0, 55, 29
1, 123058, Note_off_c, 0, 54, 40
1, 123085, Control_c, 0, 64, 119
1, 123094, Note_on_c, 0, 64, 56
1, 123100, Control_c, 0, 64, 89
1, 123115, Control_c, 0, 64, 72
1, 123130, Control_c, 0, 64, 58
1, 123145, Control_c, 0, 64, 0
1, 123149, Note_off_c, 0, 66, 55
1, 123220, Control_c, 0, 64, 41
1, 123220, Control_c, 0, 67, 20
1, 123234, Control_c, 0, 64, 54
1, 123234, Control_c, 0, 67, 26
1, 123249, Control_c, 0, 64, 63
1, 123249, Control_c, 0, 67, 35
1, 123264, Control_c, 0, 64, 69
1, 123264, Control_c, 0, 67, 48
1, 123279, Control_c, 0, 64, 74
1, 123279, Control_c, 0, 67, 67
1, 123293, Control_c, 0, 64, 77
1, 123293, Control_c, 0, 67, 84
1, 123308, Control_c, 0, 64, 80
1, 123308, Control_c, 0, 67, 99
1, 123323, Control_c, 0, 64, 83
1, 123323, Control_c, 0, 67, 112
1, 123345, Control_c, 0, 64, 87
1, 123345, Control_c, 0, 67, 124
1, 123360, Control_c, 0, 64, 90
1, 123360, Control_c, 0, 67, 127
1, 123376, Control_c, 0, 64, 95
1, 123390, Control_c, 0, 64, 98
1, 123420, Control_c, 0, 64, 101
1, 123445, Note_on_c, 0, 61, 32
1, 123464, Control_c, 0, 64, 103
1, 123509, Note_off_c, 0, 64, 49
1, 123536, Note_on_c, 0, 69, 49
1, 123629, Note_off_c, 0, 55, 35
1, 123637, Note_on_c, 0, 67, 55
1, 123673, Note_off_c, 0, 67, 62
1, 123717, Note_on_c, 0, 52, 34
1, 123731, Control_c, 0, 64, 100
1, 123735, Note_off_c, 0, 61, 38
1, 123746, Control_c, 0, 64, 91
1, 123761, Control_c, 0, 64, 79
1, 123766, Note_on_c, 0, 67, 54
1, 123776, Control_c, 0, 64, 66
1, 123783, Note_off_c, 0, 69, 35
1, 123790, Control_c, 0, 64, 49
1, 123805, Control_c, 0, 64, 0
1, 123864, Control_c, 0, 64, 37
1, 123879, Control_c, 0, 64, 49
1, 123894, Control_c, 0, 64, 59
1, 123908, Control_c, 0, 64, 64
1, 123923, Control_c, 0, 64, 68
1, 123938, Control_c, 0, 64, 71
1, 123953, Control_c, 0, 64, 73
1, 123968, Control_c, 0, 64, 75
1, 123983, Control_c, 0, 64, 77
1, 123998, Control_c, 0, 64, 78
1, 124006, Note_on_c, 0, 61, 25
1, 124012, Control_c, 0, 64, 80
1, 124020, Note_off_c, 0, 52, 38
1, 124027, Control_c, 0, 64, 81
1, 124042, Control_c, 0, 64, 83
1, 124057, Control_c, 0, 64, 85
1, 124072, Control_c, 0, 64, 88
1, 124094, Control_c, 0, 64, 90
1, 124109, Control_c, 0, 64, 92
1, 124123, Control_c, 0, 64, 93
1, 124184, Control_c, 0, 64, 92
1, 124199, Control_c, 0, 64, 89
1, 124206, Note_on_c, 0, 52, 30
1, 124209, Note_off_c, 0, 61, 36
1, 124213, Control_c, 0, 64, 83
1, 124228, Control_c, 0, 64, 77
1, 124243, Control_c, 0, 64, 70
1, 124258, Control_c, 0, 64, 64
1, 124273, Control_c, 0, 64, 58
1, 124287, Control_c, 0, 64, 60
1, 124302, Control_c, 0, 64, 62
1, 124317, Control_c, 0, 64, 65
1, 124332, Control_c, 0, 64, 70
1, 124346, Control_c, 0, 64, 73
1, 124361, Control_c, 0, 64, 76
1, 124376, Control_c, 0, 64, 79
1, 124391, Control_c, 0, 64, 81
1, 124406, Control_c, 0, 64, 82
1, 124421, Control_c, 0, 64, 83
1, 124436, Control_c, 0, 64, 84
1, 124440, Note_on_c, 0, 61, 34
1, 124451, Control_c, 0, 64, 85
1, 124466, Control_c, 0, 64, 86
1, 124495, Control_c, 0, 64, 87
1, 124581, Note_off_c, 0, 52, 39
1, 124608, Note_off_c, 0, 61, 33
1, 124628, Control_c, 0, 64, 84
1, 124630, Note_on_c, 0, 54, 40
1, 124643, Control_c, 0, 64, 77
1, 124657, Control_c, 0, 64, 67
1, 124672, Control_c, 0, 64, 56
1, 124683, Note_on_c, 0, 66, 50
1, 124687, Control_c, 0, 64, 39
1, 124689, Note_off_c, 0, 67, 51
1, 124702, Control_c, 0, 64, 34
1, 124717, Control_c, 0, 64, 39
1, 124731, Control_c, 0, 64, 47
1, 124746, Control_c, 0, 64, 55
1, 124761, Control_c, 0, 64, 63
1, 124776, Control_c, 0, 64, 68
1, 124791, Control_c, 0, 64, 73
1, 124802, Note_off_c, 0, 50, 38
1, 124805, Control_c, 0, 64, 77
1, 124820, Control_c, 0, 64, 80
1, 124843, Control_c, 0, 64, 81
1, 124858, Control_c, 0, 64, 83
1, 124872, Control_c, 0, 64, 85
1, 124887, Control_c, 0, 64, 86
1, 124893, Note_on_c, 0, 62, 28
1, 124902, Control_c, 0, 64, 87
1, 124917, Control_c, 0, 64, 88
1, 124925, Note_off_c, 0, 54, 62
1, 124931, Note_off_c, 0, 62, 52
1, 124932, Control_c, 0, 64, 89
1, 124946, Control_c, 0, 64, 89
1, 124962, Control_c, 0, 64, 90
1, 125140, Control_c, 0, 64, 88
1, 125155, Control_c, 0, 64, 82
1, 125165, Note_on_c, 0, 43, 32
1, 125169, Control_c, 0, 64, 73
1, 125184, Control_c, 0, 64, 65
1, 125186, Note_on_c, 0, 64, 49
1, 125199, Control_c, 0, 64, 53
1, 125206, Note_off_c, 0, 66, 55
1, 125214, Control_c, 0, 64, 37
1, 125229, Control_c, 0, 64, 38
1, 125244, Control_c, 0, 64, 45
1, 125258, Control_c, 0, 64, 53
1, 125273, Control_c, 0, 64, 61
1, 125288, Control_c, 0, 64, 66
1, 125303, Control_c, 0, 64, 71
1, 125318, Control_c, 0, 64, 76
1, 125333, Control_c, 0, 64, 79
1, 125348, Control_c, 0, 64, 82
1, 125362, Control_c, 0, 64, 85
1, 125372, Note_off_c, 0, 43, 40
1, 125377, Control_c, 0, 64, 87
1, 125392, Control_c, 0, 64, 90
1, 125407, Control_c, 0, 64, 92
1, 125422, Control_c, 0, 64, 93
1, 125425, Note_on_c, 0, 55, 37
1, 125436, Control_c, 0, 64, 94
1, 125451, Control_c, 0, 64, 94
1, 125466, Control_c, 0, 64, 95
1, 125495, Control_c, 0, 64, 96
1, 125595, Note_off_c, 0, 55, 37
1, 125611, Note_on_c, 0, 52, 36
1, 125750, Note_off_c, 0, 64, 52
1, 125778, Note_on_c, 0, 67, 50
1, 125784, Note_off_c, 0, 52, 40
1, 125806, Note_off_c, 0, 67, 59
1, 125809, Note_on_c, 0, 55, 34
1, 125834, Note_on_c, 0, 71, 56
1, 125897, Note_on_c, 0, 67, 59
1, 125920, Note_off_c, 0, 71, 38
1, 125948, Control_c, 0, 64, 95
1, 125951, Note_off_c, 0, 67, 56
1, 125963, Control_c, 0, 64, 92
1, 125972, Note_on_c, 0, 64, 53
1, 125974, Note_off_c, 0, 55, 39
1, 125977, Note_on_c, 0, 45, 28
1, 125978, Control_c, 0, 64, 87
1, 125992, Control_c, 0, 64, 79
1, 125998, Note_on_c, 0, 54, 36
1, 126007, Control_c, 0, 64, 69
1, 126022, Control_c, 0, 64, 58
1, 126037, Control_c, 0, 64, 0
1, 126054, Note_off_c, 0, 64, 60
1, 126070, Note_on_c, 0, 62, 54
1, 126156, Control_c, 0, 64, 46
1, 126171, Control_c, 0, 64, 57
1, 126185, Control_c, 0, 64, 62
1, 126200, Control_c, 0, 64, 65
1, 126215, Control_c, 0, 64, 68
1, 126230, Control_c, 0, 64, 70
1, 126245, Control_c, 0, 64, 72
1, 126259, Control_c, 0, 64, 74
1, 126274, Control_c, 0, 64, 77
1, 126289, Control_c, 0, 64, 79
1, 126303, Control_c, 0, 64, 81
1, 126310, Note_on_c, 0, 57, 35
1, 126318, Control_c, 0, 64, 83
1, 126341, Control_c, 0, 64, 83
1, 126354, Note_off_c, 0, 57, 50
1, 126355, Control_c, 0, 64, 84
1, 126400, Control_c, 0, 64, 84
1, 126444, Control_c, 0, 64, 85
1, 126503, Control_c, 0, 64, 84
1, 126518, Control_c, 0, 64, 83
1, 126533, Control_c, 0, 64, 80
1, 126534, Note_off_c, 0, 54, 39
1, 126548, Control_c, 0, 64, 74
1, 126549, Note_off_c, 0, 62, 54
1, 126564, Control_c, 0, 64, 65
1, 126569, Note_on_c, 0, 61, 43
1, 126579, Control_c, 0, 64, 52
1, 126589, Note_on_c, 0, 55, 13
1, 126594, Control_c, 0, 64, 0
1, 126668, Control_c, 0, 64, 35
1, 126682, Control_c, 0, 64, 47
1, 126697, Control_c, 0, 64, 57
1, 126712, Control_c, 0, 64, 63
1, 126727, Control_c, 0, 64, 66
1, 126741, Control_c, 0, 64, 69
1, 126750, Note_off_c, 0, 55, 40
1, 126756, Control_c, 0, 64, 71
1, 126771, Control_c, 0, 64, 73
1, 126786, Control_c, 0, 64, 75
1, 126801, Control_c, 0, 64, 78
1, 126802, Note_on_c, 0, 52, 37
1, 126815, Note_off_c, 0, 45, 40
1, 126815, Control_c, 0, 64, 80
1, 126830, Note_off_c, 0, 61, 57
1, 126830, Control_c, 0, 64, 82
1, 126845, Control_c, 0, 64, 84
1, 126859, Control_c, 0, 64, 86
1, 126874, Control_c, 0, 64, 87
1, 126889, Control_c, 0, 64, 88
1, 126904, Control_c, 0, 64, 89
1, 126919, Control_c, 0, 64, 90
1, 126934, Control_c, 0, 64, 90
1, 126994, Control_c, 0, 64, 91
1, 127129, Note_on_c, 0, 54, 23
1, 127134, Control_c, 0, 64, 90
1, 127150, Note_on_c, 0, 62, 39
1, 127164, Control_c, 0, 64, 90
1, 127170, Note_on_c, 0, 45, 11
1, 127179, Control_c, 0, 64, 89
1, 127194, Control_c, 0, 64, 87
1, 127197, Note_off_c, 0, 52, 37
1, 127208, Control_c, 0, 64, 85
1, 127223, Control_c, 0, 64, 82
1, 127238, Control_c, 0, 64, 80
1, 127253, Control_c, 0, 64, 76
1, 127268, Control_c, 0, 64, 74
1, 127282, Control_c, 0, 64, 71
1, 127297, Control_c, 0, 64, 67
1, 127312, Control_c, 0, 64, 63
1, 127327, Control_c, 0, 64, 56
1, 127342, Control_c, 0, 64, 45
1, 127357, Control_c, 0, 64, 0
1, 127363, Note_off_c, 0, 54, 57
1, 127369, Note_off_c, 0, 45, 43
1, 127539, Note_off_c, 0, 62, 54
1, 127550, Note_on_c, 0, 64, 42
1, 127631, Note_off_c, 0, 64, 59
1, 127654, Note_on_c, 0, 66, 40
1, 127774, Note_off_c, 0, 66, 52
1, 127792, Note_on_c, 0, 64, 38
1, 127795, Note_on_c, 0, 45, 23
1, 127806, Note_on_c, 0, 49, 21
1, 127807, Note_on_c, 0, 52, 27
1, 127956, Control_c, 0, 64, 38
1, 127971, Control_c, 0, 64, 51
1, 127986, Control_c, 0, 64, 59
1, 128001, Control_c, 0, 64, 62
1, 128016, Control_c, 0, 64, 64
1, 128031, Control_c, 0, 64, 65
1, 128046, Control_c, 0, 64, 67
1, 128060, Control_c, 0, 64, 70
1, 128075, Control_c, 0, 64, 72
1, 128078, Note_off_c, 0, 45, 40
1, 128078, Note_off_c, 0, 52, 41
1, 128090, Control_c, 0, 64, 75
1, 128099, Note_off_c, 0, 49, 42
1, 128105, Control_c, 0, 64, 77
1, 128120, Control_c, 0, 64, 80
1, 128135, Control_c, 0, 64, 83
1, 128150, Control_c, 0, 64, 86
1, 128160, Note_off_c, 0, 64, 36
1, 128165, Control_c, 0, 64, 88
1, 128180, Control_c, 0, 64, 90
1, 128195, Control_c, 0, 64, 91
1, 128210, Control_c, 0, 64, 92
1, 128224, Control_c, 0, 64, 93
1, 128239, Control_c, 0, 64, 94
1, 128254, Control_c, 0, 64, 95
1, 128269, Control_c, 0, 64, 96
1, 128461, Control_c, 0, 64, 95
1, 128476, Control_c, 0, 64, 93
1, 128491, Control_c, 0, 64, 90
1, 128505, Control_c, 0, 64, 87
1, 128520, Control_c, 0, 64, 84
1, 128535, Control_c, 0, 64, 81
1, 128550, Control_c, 0, 64, 77
1, 128565, Control_c, 0, 64, 74
1, 128587, Control_c, 0, 64, 71
1, 128602, Control_c, 0, 64, 68
1, 128617, Control_c, 0, 64, 65
1, 128631, Control_c, 0, 64, 62
1, 128646, Control_c, 0, 64, 57
1, 128661, Control_c, 0, 64, 52
1, 128676, Control_c, 0, 64, 51
1, 128705, Control_c, 0, 64, 50
1, 128720, Control_c, 0, 64, 50
1, 128720, Control_c, 0, 67, 124
1, 128735, Control_c, 0, 64, 48
1, 128735, Control_c, 0, 67, 120
1, 128750, Control_c, 0, 64, 46
1, 128750, Control_c, 0, 67, 117
1, 128765, Control_c, 0, 64, 45
1, 128779, Control_c, 0, 64, 41
1, 128779, Control_c, 0, 67, 114
1, 128794, Control_c, 0, 64, 36
1, 128809, Control_c, 0, 64, 0
1, 128809, Control_c, 0, 67, 111
1, 128824, Control_c, 0, 67, 108
1, 128839, Control_c, 0, 67, 103
1, 128853, Control_c, 0, 67, 99
1, 128868, Control_c, 0, 67, 95
1, 128883, Note_on_c, 0, 69, 40
1, 128883, Control_c, 0, 67, 91
1, 128898, Control_c, 0, 67, 88
1, 128913, Control_c, 0, 67, 84
1, 128928, Control_c, 0, 67, 80
1, 128943, Control_c, 0, 67, 77
1, 128958, Control_c, 0, 67, 72
1, 128973, Control_c, 0, 67, 65
1, 128988, Control_c, 0, 67, 60
1, 129002, Note_off_c, 0, 69, 43
1, 129002, Control_c, 0, 67, 54
1, 129017, Control_c, 0, 67, 50
1, 129032, Control_c, 0, 67, 45
1, 129047, Control_c, 0, 67, 40
1, 129062, Control_c, 0, 67, 34
1, 129077, Control_c, 0, 67, 27
1, 129092, Control_c, 0, 67, 20
1, 129107, Control_c, 0, 67, 0
1, 129113, Note_on_c, 0, 71, 46
1, 129178, Note_off_c, 0, 71, 49
1, 129277, Note_on_c, 0, 73, 56
1, 129369, Note_off_c, 0, 73, 58
1, 129462, Note_on_c, 0, 74, 54
1, 129541, Note_off_c, 0, 74, 58
1, 129607, Note_on_c, 0, 76, 57
1, 129757, Note_off_c, 0, 76, 35
1, 129794, Note_on_c, 0, 62, 32
1, 129821, Note_on_c, 0, 78, 49
1, 129915, Control_c, 0, 64, 39
1, 129930, Control_c, 0, 64, 52
1, 129945, Control_c, 0, 64, 60
1, 129959, Control_c, 0, 64, 63
1, 129974, Control_c, 0, 64, 65
1, 129989, Control_c, 0, 64, 68
1, 130004, Control_c, 0, 64, 71
1, 130019, Control_c, 0, 64, 77
1, 130034, Control_c, 0, 64, 83
1, 130049, Control_c, 0, 64, 92
1, 130064, Control_c, 0, 64, 100
1, 130085, Control_c, 0, 64, 115
1, 130100, Control_c, 0, 64, 127
1, 130107, Note_on_c, 0, 69, 36
1, 130312, Note_off_c, 0, 69, 38
1, 130318, Note_on_c, 0, 66, 39
1, 130418, Note_off_c, 0, 78, 57
1, 130503, Note_off_c, 0, 62, 39
1, 130544, Note_on_c, 0, 69, 32
1, 130722, Note_off_c, 0, 69, 29
1, 130746, Note_on_c, 0, 62, 36
1, 130784, Note_on_c, 0, 78, 56
1, 130999, Note_off_c, 0, 66, 40
1, 131002, Note_on_c, 0, 69, 41
1, 131002, Note_off_c, 0, 78, 56
1, 131199, Note_off_c, 0, 69, 40
1, 131220, Note_on_c, 0, 78, 79
1, 131226, Note_on_c, 0, 66, 40
1, 131378, Note_off_c, 0, 62, 36
1, 131438, Note_on_c, 0, 69, 42
1, 131610, Note_off_c, 0, 69, 34
1, 131694, Note_on_c, 0, 62, 32
1, 131733, Note_on_c, 0, 67, 27
1, 131746, Note_off_c, 0, 66, 39
1, 131766, Note_on_c, 0, 76, 69
1, 131776, Control_c, 0, 64, 92
1, 131791, Control_c, 0, 64, 72
1, 131805, Control_c, 0, 64, 56
1, 131805, Control_c, 0, 67, 20
1, 131816, Note_off_c, 0, 78, 58
1, 131820, Control_c, 0, 64, 0
1, 131835, Control_c, 0, 67, 26
1, 131849, Control_c, 0, 67, 31
1, 131864, Control_c, 0, 64, 36
1, 131864, Control_c, 0, 67, 40
1, 131879, Control_c, 0, 64, 47
1, 131879, Control_c, 0, 67, 54
1, 131894, Control_c, 0, 64, 56
1, 131894, Control_c, 0, 67, 72
1, 131909, Control_c, 0, 64, 63
1, 131909, Control_c, 0, 67, 87
1, 131924, Control_c, 0, 64, 67
1, 131924, Control_c, 0, 67, 97
1, 131939, Control_c, 0, 64, 71
1, 131939, Control_c, 0, 67, 102
1, 131954, Control_c, 0, 64, 76
1, 131954, Control_c, 0, 67, 106
1, 131968, Control_c, 0, 64, 81
1, 131968, Control_c, 0, 67, 113
1, 131983, Control_c, 0, 64, 87
1, 131983, Control_c, 0, 67, 122
1, 131998, Control_c, 0, 64, 92
1, 131998, Control_c, 0, 67, 127
1, 132013, Control_c, 0, 64, 97
1, 132028, Control_c, 0, 64, 102
1, 132042, Control_c, 0, 64, 111
1, 132057, Control_c, 0, 64, 127
1, 132073, Note_on_c, 0, 73, 44
1, 132157, Note_on_c, 0, 81, 68
1, 132177, Note_off_c, 0, 76, 60
1, 132183, Note_off_c, 0, 67, 41
1, 132261, Note_on_c, 0, 79, 67
1, 132289, Note_off_c, 0, 79, 65
1, 132333, Note_off_c, 0, 73, 41
1, 132347, Note_on_c, 0, 64, 35
1, 132377, Control_c, 0, 64, 101
1, 132392, Note_on_c, 0, 79, 67
1, 132392, Control_c, 0, 64, 76
1, 132406, Control_c, 0, 64, 59
1, 132410, Note_off_c, 0, 81, 49
1, 132421, Control_c, 0, 64, 0
1, 132451, Control_c, 0, 64, 43
1, 132466, Control_c, 0, 64, 52
1, 132480, Control_c, 0, 64, 59
1, 132495, Control_c, 0, 64, 64
1, 132510, Control_c, 0, 64, 69
1, 132525, Control_c, 0, 64, 76
1, 132540, Control_c, 0, 64, 83
1, 132554, Control_c, 0, 64, 88
1, 132569, Control_c, 0, 64, 94
1, 132584, Control_c, 0, 64, 101
1, 132598, Control_c, 0, 64, 111
1, 132613, Control_c, 0, 64, 127
1, 132616, Note_on_c, 0, 73, 40
1, 132638, Note_off_c, 0, 64, 32
1, 132690, Note_off_c, 0, 73, 36
1, 132815, Note_on_c, 0, 64, 35
1, 133039, Note_on_c, 0, 73, 38
1, 133170, Note_off_c, 0, 64, 48
1, 133204, Note_off_c, 0, 73, 35
1, 133244, Note_on_c, 0, 66, 39
1, 133258, Control_c, 0, 64, 119
1, 133273, Control_c, 0, 64, 88
1, 133280, Note_on_c, 0, 78, 61
1, 133288, Note_off_c, 0, 79, 53
1, 133288, Control_c, 0, 64, 69
1, 133302, Control_c, 0, 64, 55
1, 133317, Control_c, 0, 64, 37
1, 133332, Control_c, 0, 64, 39
1, 133346, Control_c, 0, 64, 48
1, 133361, Control_c, 0, 64, 55
1, 133376, Control_c, 0, 64, 62
1, 133378, Note_off_c, 0, 62, 41
1, 133391, Control_c, 0, 64, 67
1, 133406, Control_c, 0, 64, 74
1, 133420, Control_c, 0, 64, 82
1, 133435, Control_c, 0, 64, 89
1, 133450, Control_c, 0, 64, 95
1, 133465, Control_c, 0, 64, 100
1, 133480, Control_c, 0, 64, 105
1, 133485, Note_on_c, 0, 74, 48
1, 133495, Control_c, 0, 64, 109
1, 133508, Note_off_c, 0, 74, 60
1, 133510, Control_c, 0, 64, 115
1, 133524, Control_c, 0, 64, 120
1, 133539, Control_c, 0, 64, 122
1, 133542, Note_off_c, 0, 66, 55
1, 133569, Control_c, 0, 64, 124
1, 133584, Control_c, 0, 64, 127
1, 133771, Note_on_c, 0, 55, 33
1, 133829, Control_c, 0, 64, 110
1, 133840, Note_off_c, 0, 78, 53
1, 133843, Control_c, 0, 64, 96
1, 133846, Note_on_c, 0, 71, 50
1, 133858, Control_c, 0, 64, 83
1, 133873, Control_c, 0, 64, 71
1, 133888, Control_c, 0, 64, 60
1, 133903, Control_c, 0, 64, 46
1, 133918, Control_c, 0, 64, 45
1, 133933, Control_c, 0, 64, 48
1, 133948, Control_c, 0, 64, 52
1, 133963, Control_c, 0, 64, 56
1, 133977, Control_c, 0, 64, 61
1, 133992, Control_c, 0, 64, 67
1, 134007, Control_c, 0, 64, 75
1, 134014, Note_off_c, 0, 55, 40
1, 134022, Control_c, 0, 64, 84
1, 134037, Control_c, 0, 64, 94
1, 134051, Control_c, 0, 64, 99
1, 134066, Control_c, 0, 64, 105
1, 134080, Note_on_c, 0, 67, 33
1, 134081, Control_c, 0, 64, 111
1, 134096, Control_c, 0, 64, 120
1, 134111, Control_c, 0, 64, 127
1, 134244, Note_off_c, 0, 67, 38
1, 134263, Note_on_c, 0, 64, 36
1, 134362, Note_off_c, 0, 71, 42
1, 134366, Note_on_c, 0, 76, 50
1, 134403, Note_off_c, 0, 64, 40
1, 134416, Note_off_c, 0, 76, 58
1, 134428, Note_on_c, 0, 79, 60
1, 134437, Note_on_c, 0, 67, 32
1, 134457, Note_off_c, 0, 79, 68
1, 134477, Note_on_c, 0, 83, 66
1, 134538, Note_on_c, 0, 79, 73
1, 134569, Note_off_c, 0, 83, 53
1, 134593, Control_c, 0, 64, 106
1, 134607, Control_c, 0, 64, 88
1, 134612, Note_on_c, 0, 76, 58
1, 134620, Note_on_c, 0, 57, 37
1, 134621, Note_off_c, 0, 79, 58
1, 134622, Control_c, 0, 64, 71
1, 134628, Note_off_c, 0, 67, 41
1, 134637, Control_c, 0, 64, 58
1, 134647, Note_on_c, 0, 66, 32
1, 134652, Control_c, 0, 64, 0
1, 134699, Note_off_c, 0, 76, 61
1, 134708, Note_on_c, 0, 74, 62
1, 134726, Control_c, 0, 64, 41
1, 134741, Control_c, 0, 64, 52
1, 134756, Control_c, 0, 64, 61
1, 134771, Control_c, 0, 64, 66
1, 134785, Control_c, 0, 64, 71
1, 134800, Control_c, 0, 64, 76
1, 134812, Note_off_c, 0, 57, 40
1, 134815, Control_c, 0, 64, 79
1, 134830, Control_c, 0, 64, 82
1, 134845, Control_c, 0, 64, 84
1, 134860, Control_c, 0, 64, 87
1, 134874, Control_c, 0, 64, 91
1, 134889, Control_c, 0, 64, 96
1, 134904, Control_c, 0, 64, 101
1, 134919, Control_c, 0, 64, 106
1, 134932, Note_off_c, 0, 66, 49
1, 134934, Control_c, 0, 64, 112
1, 134948, Control_c, 0, 64, 115
1, 134963, Control_c, 0, 64, 119
1, 134978, Control_c, 0, 64, 122
1, 134981, Note_on_c, 0, 69, 36
1, 134992, Control_c, 0, 64, 127
1, 135167, Note_off_c, 0, 69, 38
1, 135220, Note_on_c, 0, 67, 23
1, 135221, Note_off_c, 0, 74, 40
1, 135227, Note_on_c, 0, 78, 51
1, 135236, Note_on_c, 0, 73, 35
1, 135386, Control_c, 0, 64, 122
1, 135401, Control_c, 0, 64, 116
1, 135416, Control_c, 0, 64, 112
1, 135430, Control_c, 0, 64, 109
1, 135445, Control_c, 0, 64, 106
1, 135460, Control_c, 0, 64, 104
1, 135474, Note_on_c, 0, 69, 28
1, 135475, Control_c, 0, 64, 100
1, 135477, Note_on_c, 0, 76, 56
1, 135490, Control_c, 0, 64, 98
1, 135497, Note_off_c, 0, 73, 41
1, 135504, Control_c, 0, 64, 95
1, 135519, Control_c, 0, 64, 92
1, 135534, Control_c, 0, 64, 90
1, 135549, Control_c, 0, 64, 88
1, 135551, Note_off_c, 0, 78, 34
1, 135564, Control_c, 0, 64, 86
1, 135578, Control_c, 0, 64, 85
1, 135593, Control_c, 0, 64, 84
1, 135608, Control_c, 0, 64, 82
1, 135623, Control_c, 0, 64, 78
1, 135638, Control_c, 0, 64, 75
1, 135653, Control_c, 0, 64, 71
1, 135668, Control_c, 0, 64, 67
1, 135683, Control_c, 0, 64, 64
1, 135697, Control_c, 0, 64, 59
1, 135712, Control_c, 0, 64, 54
1, 135724, Note_off_c, 0, 69, 35
1, 135727, Control_c, 0, 64, 47
1, 135741, Control_c, 0, 64, 39
1, 135751, Note_off_c, 0, 76, 56
1, 135754, Note_on_c, 0, 66, 23
1, 135756, Control_c, 0, 64, 0
1, 135766, Note_on_c, 0, 62, 20
1, 135775, Note_on_c, 0, 74, 45
1, 135847, Note_off_c, 0, 67, 31
1, 135904, Control_c, 0, 64, 42
1, 135919, Control_c, 0, 64, 56
1, 135933, Control_c, 0, 64, 62
1, 135948, Control_c, 0, 64, 66
1, 135963, Control_c, 0, 64, 69
1, 135978, Control_c, 0, 64, 72
1, 135993, Control_c, 0, 64, 75
1, 136008, Control_c, 0, 64, 79
1, 136022, Control_c, 0, 64, 82
1, 136037, Control_c, 0, 64, 86
1, 136052, Control_c, 0, 64, 89
1, 136075, Control_c, 0, 64, 93
1, 136079, Note_off_c, 0, 62, 36
1, 136090, Control_c, 0, 64, 95
1, 136104, Control_c, 0, 64, 96
1, 136124, Note_off_c, 0, 66, 34
1, 136142, Note_off_c, 0, 74, 37
1, 136150, Control_c, 0, 64, 98
1, 136239, Control_c, 0, 64, 93
1, 136253, Control_c, 0, 64, 86
1, 136268, Control_c, 0, 64, 78
1, 136283, Control_c, 0, 64, 69
1, 136298, Control_c, 0, 64, 62
1, 136313, Control_c, 0, 64, 52
1, 136327, Control_c, 0, 64, 42
1, 136342, Control_c, 0, 64, 38
1, 136386, Control_c, 0, 64, 38
1, 136401, Control_c, 0, 64, 37
1, 136464, Note_on_c, 0, 71, 55
1, 136500, Note_off_c, 0, 71, 64
1, 136535, Control_c, 0, 64, 37
1, 136542, Note_on_c, 0, 74, 47
1, 136609, Control_c, 0, 64, 36
1, 136638, Control_c, 0, 64, 36
1, 136669, Control_c, 0, 64, 35
1, 136684, Note_off_c, 0, 74, 60
1, 136684, Control_c, 0, 64, 35
1, 136699, Control_c, 0, 64, 34
1, 136708, Note_on_c, 0, 69, 34
1, 136713, Control_c, 0, 64, 33
1, 136728, Control_c, 0, 64, 0
1, 136741, Note_off_c, 0, 69, 56
1, 136760, Note_on_c, 0, 73, 49
1, 136908, Note_off_c, 0, 73, 54
1, 136922, Note_on_c, 0, 67, 40
1, 136952, Note_off_c, 0, 67, 59
1, 136973, Control_c, 0, 64, 38
1, 136988, Control_c, 0, 64, 46
1, 136992, Note_on_c, 0, 71, 48
1, 137003, Control_c, 0, 64, 52
1, 137018, Control_c, 0, 64, 61
1, 137033, Control_c, 0, 64, 65
1, 137048, Control_c, 0, 64, 68
1, 137063, Control_c, 0, 64, 71
1, 137077, Control_c, 0, 64, 71
1, 137107, Control_c, 0, 64, 69
1, 137109, Note_off_c, 0, 71, 53
1, 137122, Control_c, 0, 64, 63
1, 137137, Control_c, 0, 64, 52
1, 137151, Control_c, 0, 64, 42
1, 137165, Note_on_c, 0, 66, 35
1, 137166, Control_c, 0, 64, 47
1, 137181, Control_c, 0, 64, 53
1, 137195, Control_c, 0, 64, 59
1, 137203, Note_off_c, 0, 66, 51
1, 137210, Control_c, 0, 64, 65
1, 137225, Control_c, 0, 64, 70
1, 137227, Note_on_c, 0, 69, 49
1, 137240, Control_c, 0, 64, 75
1, 137255, Control_c, 0, 64, 79
1, 137264, Note_off_c, 0, 69, 64
1, 137269, Control_c, 0, 64, 82
1, 137284, Control_c, 0, 64, 85
1, 137299, Control_c, 0, 64, 87
1, 137313, Control_c, 0, 64, 90
1, 137328, Control_c, 0, 64, 91
1, 137343, Control_c, 0, 64, 92
1, 137403, Control_c, 0, 64, 90
1, 137409, Note_on_c, 0, 64, 42
1, 137418, Control_c, 0, 64, 82
1, 137432, Control_c, 0, 64, 71
1, 137447, Control_c, 0, 64, 61
1, 137457, Note_off_c, 0, 64, 54
1, 137462, Control_c, 0, 64, 48
1, 137483, Note_on_c, 0, 67, 46
1, 137492, Control_c, 0, 64, 51
1, 137507, Control_c, 0, 64, 56
1, 137521, Control_c, 0, 64, 60
1, 137536, Control_c, 0, 64, 64
1, 137551, Control_c, 0, 64, 68
1, 137573, Control_c, 0, 64, 72
1, 137588, Control_c, 0, 64, 76
1, 137602, Control_c, 0, 64, 78
1, 137617, Control_c, 0, 64, 81
1, 137632, Control_c, 0, 64, 84
1, 137647, Control_c, 0, 64, 86
1, 137662, Control_c, 0, 64, 87
1, 137677, Control_c, 0, 64, 88
1, 137692, Control_c, 0, 64, 88
1, 137707, Control_c, 0, 64, 89
1, 137721, Control_c, 0, 64, 90
1, 137737, Control_c, 0, 64, 91
1, 137752, Control_c, 0, 64, 92
1, 137822, Note_on_c, 0, 50, 34
1, 137832, Note_off_c, 0, 67, 38
1, 137838, Note_on_c, 0, 66, 38
1, 137856, Control_c, 0, 64, 91
1, 137871, Control_c, 0, 64, 88
1, 137885, Control_c, 0, 64, 83
1, 137900, Control_c, 0, 64, 76
1, 137915, Control_c, 0, 64, 65
1, 137930, Control_c, 0, 64, 54
1, 137944, Control_c, 0, 64, 38
1, 137959, Control_c, 0, 64, 0
1, 137974, Control_c, 0, 64, 35
1, 137989, Control_c, 0, 64, 39
1, 138004, Control_c, 0, 64, 43
1, 138018, Control_c, 0, 64, 47
1, 138033, Control_c, 0, 64, 51
1, 138048, Control_c, 0, 64, 57
1, 138063, Control_c, 0, 64, 62
1, 138078, Control_c, 0, 64, 66
1, 138092, Control_c, 0, 64, 70
1, 138107, Control_c, 0, 64, 74
1, 138122, Control_c, 0, 64, 78
1, 138123, Note_on_c, 0, 57, 30
1, 138136, Control_c, 0, 64, 81
1, 138151, Control_c, 0, 64, 85
1, 138166, Control_c, 0, 64, 90
1, 138181, Control_c, 0, 64, 94
1, 138196, Control_c, 0, 64, 98
1, 138210, Control_c, 0, 64, 104
1, 138225, Control_c, 0, 64, 112
1, 138240, Control_c, 0, 64, 127
1, 138327, Note_off_c, 0, 57, 41
1, 138345, Note_on_c, 0, 54, 35
1, 138395, Control_c, 0, 67, 119
1, 138410, Control_c, 0, 67, 111
1, 138424, Note_off_c, 0, 66, 54
1, 138425, Control_c, 0, 67, 102
1, 138440, Control_c, 0, 67, 93
1, 138455, Control_c, 0, 67, 85
1, 138470, Control_c, 0, 67, 81
1, 138485, Control_c, 0, 67, 76
1, 138499, Control_c, 0, 67, 70
1, 138507, Note_off_c, 0, 50, 40
1, 138514, Control_c, 0, 67, 63
1, 138529, Control_c, 0, 67, 55
1, 138544, Note_on_c, 0, 57, 35
1, 138544, Control_c, 0, 67, 44
1, 138559, Control_c, 0, 67, 36
1, 138574, Control_c, 0, 67, 29
1, 138589, Control_c, 0, 67, 22
1, 138604, Control_c, 0, 67, 0
1, 138756, Note_off_c, 0, 57, 39
1, 138767, Note_on_c, 0, 50, 30
1, 138786, Note_on_c, 0, 66, 51
1, 138998, Note_off_c, 0, 54, 40
1, 139001, Note_off_c, 0, 66, 44
1, 139003, Note_on_c, 0, 57, 37
1, 139200, Note_off_c, 0, 57, 42
1, 139212, Note_on_c, 0, 54, 36
1, 139239, Note_on_c, 0, 66, 63
1, 139411, Note_off_c, 0, 50, 39
1, 139448, Note_on_c, 0, 57, 41
1, 139673, Note_off_c, 0, 57, 34
1, 139683, Note_on_c, 0, 50, 32
1, 139713, Note_on_c, 0, 55, 25
1, 139768, Control_c, 0, 64, 98
1, 139782, Note_on_c, 0, 64, 65
1, 139782, Control_c, 0, 64, 81
1, 139797, Control_c, 0, 64, 69
1, 139814, Note_off_c, 0, 54, 35
1, 139820, Control_c, 0, 64, 52
1, 139835, Control_c, 0, 64, 0
1, 139836, Note_off_c, 0, 66, 58
1, 139879, Control_c, 0, 64, 34
1, 139894, Control_c, 0, 64, 43
1, 139909, Control_c, 0, 64, 56
1, 139923, Control_c, 0, 64, 64
1, 139938, Control_c, 0, 64, 70
1, 139953, Control_c, 0, 64, 77
1, 139968, Control_c, 0, 64, 83
1, 139983, Control_c, 0, 64, 88
1, 139997, Control_c, 0, 64, 94
1, 140012, Control_c, 0, 64, 101
1, 140027, Control_c, 0, 64, 108
1, 140042, Control_c, 0, 64, 117
1, 140057, Control_c, 0, 64, 127
1, 140120, Note_on_c, 0, 61, 29
1, 140181, Note_on_c, 0, 69, 57
1, 140197, Note_off_c, 0, 64, 57
1, 140201, Note_off_c, 0, 55, 38
1, 140288, Note_on_c, 0, 67, 64
1, 140328, Note_off_c, 0, 67, 58
1, 140366, Note_on_c, 0, 52, 37
1, 140394, Note_off_c, 0, 61, 36
1, 140398, Control_c, 0, 64, 111
1, 140413, Control_c, 0, 64, 89
1, 140418, Note_on_c, 0, 67, 54
1, 140428, Control_c, 0, 64, 74
1, 140443, Control_c, 0, 64, 61
1, 140446, Note_off_c, 0, 69, 38
1, 140457, Control_c, 0, 64, 36
1, 140472, Control_c, 0, 64, 0
1, 140502, Control_c, 0, 64, 38
1, 140517, Control_c, 0, 64, 48
1, 140531, Control_c, 0, 64, 57
1, 140546, Control_c, 0, 64, 64
1, 140568, Control_c, 0, 64, 69
1, 140583, Control_c, 0, 64, 75
1, 140598, Control_c, 0, 64, 79
1, 140613, Control_c, 0, 64, 81
1, 140628, Control_c, 0, 64, 83
1, 140643, Control_c, 0, 64, 86
1, 140645, Note_on_c, 0, 61, 37
1, 140656, Note_off_c, 0, 52, 36
1, 140658, Control_c, 0, 64, 90
1, 140673, Control_c, 0, 64, 92
1, 140687, Control_c, 0, 64, 95
1, 140702, Control_c, 0, 64, 97
1, 140791, Control_c, 0, 64, 95
1, 140806, Control_c, 0, 64, 84
1, 140819, Note_off_c, 0, 61, 42
1, 140820, Control_c, 0, 64, 73
1, 140828, Note_on_c, 0, 52, 38
1, 140835, Control_c, 0, 64, 63
1, 140850, Control_c, 0, 64, 54
1, 140864, Control_c, 0, 64, 56
1, 140879, Control_c, 0, 64, 61
1, 140894, Control_c, 0, 64, 66
1, 140909, Control_c, 0, 64, 74
1, 140924, Control_c, 0, 64, 82
1, 140940, Control_c, 0, 64, 88
1, 140955, Control_c, 0, 64, 94
1, 140969, Control_c, 0, 64, 100
1, 140984, Control_c, 0, 64, 106
1, 140999, Control_c, 0, 64, 114
1, 141014, Control_c, 0, 64, 122
1, 141029, Control_c, 0, 64, 127
1, 141040, Note_on_c, 0, 61, 41
1, 141207, Note_off_c, 0, 61, 32
1, 141214, Note_off_c, 0, 52, 50
1, 141221, Control_c, 0, 64, 112
1, 141234, Note_on_c, 0, 66, 54
1, 141236, Control_c, 0, 64, 91
1, 141245, Note_on_c, 0, 54, 39
1, 141251, Control_c, 0, 64, 75
1, 141266, Control_c, 0, 64, 62
1, 141278, Note_off_c, 0, 67, 36
1, 141280, Control_c, 0, 64, 38
1, 141295, Control_c, 0, 64, 0
1, 141332, Control_c, 0, 64, 45
1, 141347, Control_c, 0, 64, 58
1, 141361, Control_c, 0, 64, 65
1, 141376, Control_c, 0, 64, 71
1, 141376, Control_c, 0, 67, 23
1, 141388, Note_off_c, 0, 50, 38
1, 141391, Control_c, 0, 64, 78
1, 141391, Control_c, 0, 67, 30
1, 141406, Control_c, 0, 64, 85
1, 141406, Control_c, 0, 67, 45
1, 141421, Control_c, 0, 64, 89
1, 141421, Control_c, 0, 67, 64
1, 141436, Control_c, 0, 64, 95
1, 141436, Control_c, 0, 67, 86
1, 141451, Control_c, 0, 64, 102
1, 141451, Control_c, 0, 67, 105
1, 141464, Note_on_c, 0, 62, 45
1, 141466, Control_c, 0, 64, 111
1, 141466, Control_c, 0, 67, 122
1, 141480, Control_c, 0, 64, 127
1, 141480, Control_c, 0, 67, 127
1, 141489, Note_off_c, 0, 62, 58
1, 141516, Note_off_c, 0, 54, 62
1, 141744, Note_on_c, 0, 43, 31
1, 141778, Control_c, 0, 64, 101
1, 141786, Note_on_c, 0, 64, 59
1, 141792, Control_c, 0, 64, 82
1, 141807, Control_c, 0, 64, 69
1, 141818, Note_off_c, 0, 66, 55
1, 141822, Control_c, 0, 64, 55
1, 141837, Control_c, 0, 64, 35
1, 141866, Control_c, 0, 64, 41
1, 141881, Control_c, 0, 64, 48
1, 141896, Control_c, 0, 64, 55
1, 141911, Control_c, 0, 64, 62
1, 141926, Control_c, 0, 64, 69
1, 141941, Control_c, 0, 64, 76
1, 141956, Control_c, 0, 64, 83
1, 141971, Control_c, 0, 64, 86
1, 141985, Control_c, 0, 64, 88
1, 141988, Note_off_c, 0, 43, 40
1, 142000, Control_c, 0, 64, 92
1, 142015, Control_c, 0, 64, 95
1, 142030, Control_c, 0, 64, 98
1, 142047, Note_on_c, 0, 55, 39
1, 142067, Control_c, 0, 64, 101
1, 142082, Control_c, 0, 64, 104
1, 142097, Control_c, 0, 64, 106
1, 142111, Control_c, 0, 64, 108
1, 142156, Control_c, 0, 64, 111
1, 142171, Control_c, 0, 64, 114
1, 142230, Note_off_c, 0, 55, 41
1, 142232, Note_on_c, 0, 52, 36
1, 142337, Note_off_c, 0, 64, 52
1, 142350, Note_on_c, 0, 67, 49
1, 142350, Note_off_c, 0, 52, 51
1, 142380, Note_off_c, 0, 67, 63
1, 142403, Note_on_c, 0, 55, 28
1, 142405, Note_on_c, 0, 71, 59
1, 142470, Note_on_c, 0, 67, 63
1, 142497, Note_off_c, 0, 71, 36
1, 142521, Note_off_c, 0, 67, 53
1, 142526, Control_c, 0, 64, 110
1, 142528, Note_on_c, 0, 64, 62
1, 142536, Note_off_c, 0, 55, 30
1, 142542, Control_c, 0, 64, 107
1, 142554, Note_on_c, 0, 45, 39
1, 142557, Control_c, 0, 64, 102
1, 142572, Control_c, 0, 64, 97
1, 142586, Note_on_c, 0, 54, 34
1, 142586, Control_c, 0, 64, 89
1, 142601, Control_c, 0, 64, 78
1, 142616, Control_c, 0, 64, 67
1, 142631, Control_c, 0, 64, 54
1, 142643, Note_off_c, 0, 64, 60
1, 142646, Control_c, 0, 64, 0
1, 142664, Note_on_c, 0, 62, 59
1, 142763, Control_c, 0, 64, 50
1, 142778, Control_c, 0, 64, 61
1, 142793, Control_c, 0, 64, 66
1, 142815, Control_c, 0, 64, 70
1, 142830, Control_c, 0, 64, 72
1, 142845, Control_c, 0, 64, 73
1, 142859, Control_c, 0, 64, 75
1, 142874, Control_c, 0, 64, 76
1, 142889, Control_c, 0, 64, 78
1, 142904, Control_c, 0, 64, 81
1, 142919, Control_c, 0, 64, 83
1, 142927, Note_on_c, 0, 57, 39
1, 142933, Control_c, 0, 64, 85
1, 142948, Control_c, 0, 64, 87
1, 142963, Control_c, 0, 64, 88
1, 142978, Control_c, 0, 64, 88
1, 142982, Note_off_c, 0, 57, 45
1, 142993, Control_c, 0, 64, 90
1, 142995, Note_off_c, 0, 45, 0
1, 143007, Control_c, 0, 64, 90
1, 143032, Poly_aftertouch_c, 0, 45, 127
1, 143037, Control_c, 0, 64, 91
1, 143128, Note_off_c, 0, 54, 39
1, 143141, Control_c, 0, 64, 90
1, 143156, Control_c, 0, 64, 88
1, 143171, Control_c, 0, 64, 83
1, 143171, Note_off_c, 0, 62, 51
1, 143183, Note_on_c, 0, 61, 46
1, 143186, Control_c, 0, 64, 74
1, 143195, Note_on_c, 0, 55, 32
1, 143201, Control_c, 0, 64, 64
1, 143215, Control_c, 0, 64, 48
1, 143230, Control_c, 0, 64, 0
1, 143274, Control_c, 0, 64, 42
1, 143289, Control_c, 0, 64, 53
1, 143304, Control_c, 0, 64, 61
1, 143319, Control_c, 0, 64, 66
1, 143335, Control_c, 0, 64, 71
1, 143349, Control_c, 0, 64, 75
1, 143364, Control_c, 0, 64, 77
1, 143379, Control_c, 0, 64, 79
1, 143391, Note_off_c, 0, 55, 38
1, 143393, Poly_aftertouch_c, 0, 45, 0
1, 143394, Control_c, 0, 64, 82
1, 143408, Note_on_c, 0, 52, 37
1, 143409, Control_c, 0, 64, 85
1, 143423, Control_c, 0, 64, 88
1, 143438, Control_c, 0, 64, 91
1, 143439, Note_off_c, 0, 61, 61
1, 143453, Control_c, 0, 64, 94
1, 143468, Control_c, 0, 64, 97
1, 143482, Control_c, 0, 64, 100
1, 143512, Control_c, 0, 64, 102
1, 143734, Note_on_c, 0, 45, 31
1, 143741, Note_on_c, 0, 54, 10
1, 143742, Control_c, 0, 64, 99
1, 143750, Note_on_c, 0, 62, 41
1, 143756, Control_c, 0, 64, 95
1, 143771, Control_c, 0, 64, 89
1, 143776, Note_off_c, 0, 52, 40
1, 143786, Control_c, 0, 64, 82
1, 143801, Control_c, 0, 64, 74
1, 143815, Control_c, 0, 64, 65
1, 143830, Control_c, 0, 64, 55
1, 143845, Control_c, 0, 64, 36
1, 143860, Control_c, 0, 64, 0
1, 143938, Note_off_c, 0, 45, 52
1, 143946, Note_off_c, 0, 54, 58
1, 144165, Note_on_c, 0, 64, 40
1, 144184, Note_off_c, 0, 62, 37
1, 144236, Note_off_c, 0, 64, 59
1, 144262, Note_on_c, 0, 66, 43
1, 144399, Note_off_c, 0, 66, 53
1, 144409, Note_on_c, 0, 45, 22
1, 144412, Note_on_c, 0, 49, 24
1, 144417, Note_on_c, 0, 64, 39
1, 144419, Note_on_c, 0, 52, 29
1, 144550, Control_c, 0, 64, 39
1, 144565, Control_c, 0, 64, 48
1, 144579, Control_c, 0, 64, 57
1, 144594, Control_c, 0, 64, 63
1, 144609, Control_c, 0, 64, 65
1, 144624, Control_c, 0, 64, 68
1, 144638, Control_c, 0, 64, 70
1, 144647, Note_off_c, 0, 45, 40
1, 144653, Control_c, 0, 64, 72
1, 144658, Note_off_c, 0, 52, 39
1, 144668, Control_c, 0, 64, 74
1, 144679, Note_off_c, 0, 49, 42
1, 144683, Control_c, 0, 64, 77
1, 144698, Control_c, 0, 64, 80
1, 144712, Control_c, 0, 64, 82
1, 144727, Control_c, 0, 64, 84
1, 144738, Note_off_c, 0, 64, 35
1, 144742, Control_c, 0, 64, 85
1, 144757, Control_c, 0, 64, 86
1, 144772, Control_c, 0, 64, 88
1, 144786, Control_c, 0, 64, 89
1, 144801, Control_c, 0, 64, 90
1, 144816, Control_c, 0, 64, 92
1, 144846, Control_c, 0, 64, 92
1, 144995, Control_c, 0, 64, 92
1, 145010, Control_c, 0, 64, 91
1, 145025, Control_c, 0, 64, 90
1, 145040, Control_c, 0, 64, 89
1, 145062, Control_c, 0, 64, 88
1, 145077, Control_c, 0, 64, 87
1, 145077, Control_c, 0, 67, 123
1, 145092, Control_c, 0, 64, 85
1, 145092, Control_c, 0, 67, 120
1, 145107, Control_c, 0, 64, 83
1, 145107, Control_c, 0, 67, 118
1, 145122, Control_c, 0, 64, 81
1, 145122, Control_c, 0, 67, 116
1, 145136, Control_c, 0, 64, 80
1, 145136, Control_c, 0, 67, 114
1, 145151, Control_c, 0, 64, 78
1, 145166, Control_c, 0, 64, 76
1, 145166, Control_c, 0, 67, 111
1, 145181, Control_c, 0, 64, 73
1, 145196, Control_c, 0, 64, 69
1, 145196, Control_c, 0, 67, 108
1, 145210, Control_c, 0, 64, 64
1, 145225, Control_c, 0, 64, 58
1, 145225, Control_c, 0, 67, 106
1, 145240, Control_c, 0, 64, 52
1, 145254, Control_c, 0, 64, 49
1, 145254, Control_c, 0, 67, 103
1, 145284, Control_c, 0, 67, 101
1, 145299, Control_c, 0, 64, 49
1, 145314, Control_c, 0, 64, 47
1, 145314, Control_c, 0, 67, 99
1, 145329, Control_c, 0, 64, 46
1, 145344, Control_c, 0, 64, 45
1, 145359, Control_c, 0, 64, 43
1, 145359, Control_c, 0, 67, 97
1, 145374, Control_c, 0, 64, 42
1, 145388, Control_c, 0, 64, 39
1, 145403, Control_c, 0, 64, 37
1, 145418, Control_c, 0, 64, 35
1, 145433, Control_c, 0, 64, 33
1, 145448, Control_c, 0, 64, 0
1, 145529, Note_on_c, 0, 69, 36
1, 145602, Note_off_c, 0, 69, 52
1, 145754, Note_on_c, 0, 71, 45
1, 145818, Note_off_c, 0, 71, 54
1, 145841, Control_c, 0, 67, 96
1, 145925, Note_on_c, 0, 73, 57
1, 145930, Control_c, 0, 67, 95
1, 145994, Note_off_c, 0, 73, 56
1, 146091, Note_on_c, 0, 74, 59
1, 146107, Control_c, 0, 67, 96
1, 146172, Note_off_c, 0, 74, 55
1, 146240, Note_on_c, 0, 76, 57
1, 146384, Note_off_c, 0, 76, 51
1, 146461, Note_on_c, 0, 62, 35
1, 146496, Note_on_c, 0, 78, 47
1, 146506, Control_c, 0, 64, 34
1, 146522, Control_c, 0, 64, 37
1, 146537, Control_c, 0, 64, 43
1, 146560, Control_c, 0, 64, 50
1, 146575, Control_c, 0, 64, 58
1, 146589, Control_c, 0, 64, 63
1, 146604, Control_c, 0, 64, 67
1, 146619, Control_c, 0, 64, 72
1, 146633, Control_c, 0, 64, 78
1, 146648, Control_c, 0, 64, 85
1, 146663, Control_c, 0, 64, 93
1, 146678, Control_c, 0, 64, 102
1, 146693, Control_c, 0, 64, 127
1, 146752, Control_c, 0, 67, 95
1, 146781, Control_c, 0, 67, 95
1, 146811, Control_c, 0, 67, 94
1, 146819, Note_on_c, 0, 69, 29
1, 146825, Control_c, 0, 67, 89
1, 146840, Control_c, 0, 67, 80
1, 146855, Control_c, 0, 67, 72
1, 146870, Control_c, 0, 67, 65
1, 146885, Control_c, 0, 67, 57
1, 146900, Control_c, 0, 67, 47
1, 146915, Control_c, 0, 67, 38
1, 146930, Control_c, 0, 67, 29
1, 146945, Control_c, 0, 67, 20
1, 146959, Note_off_c, 0, 78, 52
1, 146959, Control_c, 0, 67, 0
1, 147027, Note_off_c, 0, 69, 39
1, 147042, Note_on_c, 0, 66, 35
1, 147231, Note_off_c, 0, 62, 39
1, 147264, Note_on_c, 0, 69, 33
1, 147472, Note_off_c, 0, 69, 39
1, 147473, Note_on_c, 0, 62, 28
1, 147484, Note_on_c, 0, 78, 70
1, 147640, Note_off_c, 0, 78, 54
1, 147699, Note_off_c, 0, 66, 40
1, 147709, Note_on_c, 0, 69, 41
1, 147912, Note_off_c, 0, 69, 39
1, 147916, Note_on_c, 0, 78, 74
1, 147922, Note_on_c, 0, 66, 37
1, 148076, Note_off_c, 0, 62, 40
1, 148132, Note_on_c, 0, 69, 39
1, 148229, Note_off_c, 0, 69, 48
1, 148372, Note_on_c, 0, 62, 28
1, 148404, Note_on_c, 0, 67, 30
1, 148447, Note_off_c, 0, 66, 39
1, 148466, Note_on_c, 0, 76, 72
1, 148486, Control_c, 0, 64, 115
1, 148501, Control_c, 0, 64, 85
1, 148516, Control_c, 0, 64, 67
1, 148520, Note_off_c, 0, 78, 59
1, 148531, Control_c, 0, 64, 52
1, 148545, Control_c, 0, 64, 0
1, 148560, Control_c, 0, 64, 36
1, 148575, Control_c, 0, 64, 46
1, 148590, Control_c, 0, 64, 53
1, 148605, Control_c, 0, 64, 60
1, 148620, Control_c, 0, 64, 67
1, 148635, Control_c, 0, 64, 76
1, 148649, Control_c, 0, 64, 91
1, 148664, Control_c, 0, 64, 127
1, 148778, Note_on_c, 0, 73, 37
1, 148846, Note_on_c, 0, 81, 64
1, 148855, Note_off_c, 0, 76, 60
1, 148948, Note_on_c, 0, 79, 69
1, 148976, Note_off_c, 0, 79, 66
1, 148982, Note_off_c, 0, 67, 39
1, 149037, Note_on_c, 0, 64, 34
1, 149052, Note_off_c, 0, 73, 41
1, 149061, Note_on_c, 0, 79, 69
1, 149072, Control_c, 0, 64, 111
1, 149087, Control_c, 0, 64, 81
1, 149100, Note_off_c, 0, 81, 53
1, 149101, Control_c, 0, 64, 65
1, 149116, Control_c, 0, 64, 49
1, 149131, Control_c, 0, 64, 45
1, 149146, Control_c, 0, 64, 51
1, 149161, Control_c, 0, 64, 56
1, 149175, Control_c, 0, 64, 62
1, 149190, Control_c, 0, 64, 67
1, 149205, Control_c, 0, 64, 76
1, 149219, Control_c, 0, 64, 87
1, 149234, Control_c, 0, 64, 99
1, 149249, Control_c, 0, 64, 111
1, 149264, Control_c, 0, 64, 127
1, 149282, Note_on_c, 0, 73, 47
1, 149345, Note_off_c, 0, 64, 27
1, 149481, Note_off_c, 0, 73, 43
1, 149490, Note_on_c, 0, 64, 38
1, 149696, Note_on_c, 0, 73, 45
1, 149872, Note_off_c, 0, 64, 53
1, 149876, Note_off_c, 0, 73, 39
1, 149896, Control_c, 0, 64, 89
1, 149907, Note_on_c, 0, 66, 38
1, 149911, Control_c, 0, 64, 71
1, 149925, Control_c, 0, 64, 58
1, 149930, Note_on_c, 0, 78, 67
1, 149940, Control_c, 0, 64, 43
1, 149955, Control_c, 0, 64, 46
1, 149958, Note_off_c, 0, 79, 57
1, 149969, Control_c, 0, 64, 54
1, 149984, Control_c, 0, 64, 59
1, 149999, Control_c, 0, 64, 65
1, 150014, Control_c, 0, 64, 72
1, 150029, Control_c, 0, 64, 84
1, 150043, Control_c, 0, 64, 99
1, 150058, Control_c, 0, 64, 117
1, 150073, Control_c, 0, 64, 127
1, 150079, Note_off_c, 0, 62, 39
1, 150103, Control_c, 0, 67, 22
1, 150117, Control_c, 0, 67, 28
1, 150132, Control_c, 0, 67, 34
1, 150133, Note_on_c, 0, 74, 48
1, 150147, Control_c, 0, 67, 47
1, 150157, Note_off_c, 0, 74, 56
1, 150162, Control_c, 0, 67, 61
1, 150175, Note_off_c, 0, 66, 61
1, 150176, Control_c, 0, 67, 77
1, 150191, Control_c, 0, 67, 93
1, 150206, Control_c, 0, 67, 108
1, 150221, Control_c, 0, 67, 118
1, 150236, Control_c, 0, 67, 124
1, 150250, Control_c, 0, 67, 127
1, 150399, Note_on_c, 0, 55, 37
1, 150465, Control_c, 0, 64, 96
1, 150474, Note_on_c, 0, 71, 64
1, 150480, Control_c, 0, 64, 80
1, 150495, Control_c, 0, 64, 66
1, 150507, Note_off_c, 0, 78, 57
1, 150510, Control_c, 0, 64, 55
1, 150526, Control_c, 0, 64, 48
1, 150541, Control_c, 0, 64, 51
1, 150555, Control_c, 0, 64, 54
1, 150570, Control_c, 0, 64, 58
1, 150585, Control_c, 0, 64, 62
1, 150599, Control_c, 0, 64, 67
1, 150614, Control_c, 0, 64, 76
1, 150629, Control_c, 0, 64, 87
1, 150638, Note_off_c, 0, 55, 37
1, 150644, Control_c, 0, 64, 98
1, 150659, Control_c, 0, 64, 106
1, 150674, Control_c, 0, 64, 112
1, 150689, Control_c, 0, 64, 124
1, 150703, Control_c, 0, 64, 127
1, 150718, Note_on_c, 0, 67, 41
1, 150873, Note_off_c, 0, 67, 37
1, 150891, Note_on_c, 0, 64, 39
1, 150978, Note_on_c, 0, 76, 61
1, 150981, Note_off_c, 0, 71, 48
1, 151017, Note_off_c, 0, 64, 59
1, 151033, Note_off_c, 0, 76, 61
1, 151037, Note_on_c, 0, 79, 71
1, 151077, Note_on_c, 0, 67, 35
1, 151091, Note_off_c, 0, 79, 63
1, 151095, Note_on_c, 0, 83, 74
1, 151159, Note_on_c, 0, 79, 73
1, 151223, Note_off_c, 0, 83, 47
1, 151234, Note_on_c, 0, 76, 72
1, 151259, Control_c, 0, 64, 111
1, 151260, Note_off_c, 0, 79, 60
1, 151267, Note_off_c, 0, 67, 43
1, 151273, Control_c, 0, 64, 93
1, 151279, Note_on_c, 0, 57, 38
1, 151288, Control_c, 0, 64, 79
1, 151294, Note_on_c, 0, 66, 36
1, 151303, Control_c, 0, 64, 65
1, 151319, Control_c, 0, 64, 49
1, 151334, Control_c, 0, 64, 0
1, 151363, Note_off_c, 0, 76, 62
1, 151371, Note_on_c, 0, 74, 68
1, 151422, Control_c, 0, 64, 43
1, 151437, Control_c, 0, 64, 57
1, 151452, Control_c, 0, 64, 64
1, 151467, Control_c, 0, 64, 70
1, 151482, Control_c, 0, 64, 74
1, 151496, Control_c, 0, 64, 79
1, 151502, Note_off_c, 0, 57, 40
1, 151511, Control_c, 0, 64, 82
1, 151526, Control_c, 0, 64, 86
1, 151541, Control_c, 0, 64, 90
1, 151556, Control_c, 0, 64, 94
1, 151571, Control_c, 0, 64, 100
1, 151586, Control_c, 0, 64, 106
1, 151601, Control_c, 0, 64, 111
1, 151610, Note_off_c, 0, 66, 51
1, 151615, Control_c, 0, 64, 113
1, 151630, Control_c, 0, 64, 116
1, 151642, Note_on_c, 0, 69, 40
1, 151645, Control_c, 0, 64, 127
1, 151835, Note_off_c, 0, 69, 40
1, 151888, Note_on_c, 0, 67, 32
1, 151896, Note_off_c, 0, 74, 33
1, 151900, Note_on_c, 0, 78, 53
1, 151908, Note_on_c, 0, 73, 38
1, 152067, Control_c, 0, 64, 124
1, 152082, Control_c, 0, 64, 117
1, 152096, Control_c, 0, 64, 113
1, 152109, Note_on_c, 0, 69, 33
1, 152111, Control_c, 0, 64, 111
1, 152127, Control_c, 0, 64, 109
1, 152135, Note_on_c, 0, 76, 62
1, 152157, Control_c, 0, 64, 107
1, 152186, Control_c, 0, 64, 104
1, 152201, Control_c, 0, 64, 102
1, 152216, Control_c, 0, 64, 100
1, 152231, Control_c, 0, 64, 97
1, 152245, Control_c, 0, 64, 95
1, 152260, Control_c, 0, 64, 93
1, 152275, Control_c, 0, 64, 92
1, 152290, Control_c, 0, 64, 90
1, 152305, Control_c, 0, 64, 89
1, 152319, Control_c, 0, 64, 87
1, 152334, Control_c, 0, 64, 86
1, 152349, Control_c, 0, 64, 85
1, 152364, Control_c, 0, 64, 82
1, 152364, Note_on_c, 0, 62, 21
1, 152377, Note_on_c, 0, 66, 29
1, 152379, Control_c, 0, 64, 80
1, 152394, Control_c, 0, 64, 76
1, 152400, Note_off_c, 0, 73, 35
1, 152409, Control_c, 0, 64, 71
1, 152414, Note_on_c, 0, 74, 40
1, 152424, Control_c, 0, 64, 65
1, 152433, Note_off_c, 0, 69, 33
1, 152438, Note_off_c, 0, 76, 34
1, 152438, Control_c, 0, 64, 57
1, 152440, Note_off_c, 0, 78, 11
1, 152453, Control_c, 0, 64, 46
1, 152468, Control_c, 0, 64, 39
1, 152483, Control_c, 0, 64, 34
1, 152498, Control_c, 0, 64, 0
1, 152507, Note_off_c, 0, 67, 46
1, 152564, Control_c, 0, 64, 35
1, 152579, Control_c, 0, 64, 43
1, 152594, Control_c, 0, 64, 49
1, 152609, Control_c, 0, 64, 56
1, 152624, Control_c, 0, 64, 62
1, 152638, Control_c, 0, 64, 67
1, 152653, Control_c, 0, 64, 72
1, 152668, Control_c, 0, 64, 76
1, 152683, Control_c, 0, 64, 79
1, 152698, Control_c, 0, 64, 80
1, 152704, Note_off_c, 0, 62, 35
1, 152713, Control_c, 0, 64, 82
1, 152727, Control_c, 0, 64, 84
1, 152742, Control_c, 0, 64, 87
1, 152757, Control_c, 0, 64, 89
1, 152772, Control_c, 0, 64, 91
1, 152784, Note_off_c, 0, 66, 29
1, 152787, Control_c, 0, 64, 92
1, 152802, Control_c, 0, 64, 93
1, 152806, Note_off_c, 0, 74, 62
1, 152817, Control_c, 0, 64, 95
1, 152832, Control_c, 0, 64, 96
1, 152832, Control_c, 0, 67, 121
1, 152846, Control_c, 0, 67, 118
1, 152861, Control_c, 0, 67, 114
1, 152876, Control_c, 0, 67, 110
1, 152890, Control_c, 0, 67, 106
1, 152905, Control_c, 0, 67, 99
1, 152921, Control_c, 0, 67, 92
1, 152936, Control_c, 0, 67, 84
1, 152951, Control_c, 0, 67, 77
1, 152966, Control_c, 0, 67, 70
1, 152981, Control_c, 0, 64, 95
1, 152981, Control_c, 0, 67, 63
1, 152995, Control_c, 0, 64, 94
1, 152995, Control_c, 0, 67, 57
1, 153010, Control_c, 0, 64, 91
1, 153010, Control_c, 0, 67, 52
1, 153025, Control_c, 0, 64, 87
1, 153025, Control_c, 0, 67, 48
1, 153040, Control_c, 0, 64, 84
1, 153040, Control_c, 0, 67, 45
1, 153055, Control_c, 0, 64, 82
1, 153055, Control_c, 0, 67, 43
1, 153069, Control_c, 0, 64, 79
1, 153069, Control_c, 0, 67, 42
1, 153084, Control_c, 0, 64, 74
1, 153099, Control_c, 0, 64, 69
1, 153099, Control_c, 0, 67, 42
1, 153114, Control_c, 0, 64, 65
1, 153114, Control_c, 0, 67, 41
1, 153129, Control_c, 0, 64, 61
1, 153129, Control_c, 0, 67, 41
1, 153142, Control_c, 0, 64, 57
1, 153142, Control_c, 0, 67, 40
1, 153157, Control_c, 0, 64, 49
1, 153157, Control_c, 0, 67, 37
1, 153172, Control_c, 0, 64, 45
1, 153172, Control_c, 0, 67, 34
1, 153187, Control_c, 0, 64, 42
1, 153187, Control_c, 0, 67, 31
1, 153201, Control_c, 0, 64, 40
1, 153201, Control_c, 0, 67, 28
1, 153216, Control_c, 0, 64, 37
1, 153216, Control_c, 0, 67, 24
1, 153231, Control_c, 0, 64, 0
1, 153231, Control_c, 0, 67, 19
1, 153246, Control_c, 0, 67, 0
1, 153377, Note_on_c, 0, 69, 28
1, 153657, Note_on_c, 0, 68, 51
1, 153726, Note_off_c, 0, 69, 38
1, 153898, Note_on_c, 0, 69, 65
1, 153941, Note_off_c, 0, 68, 57
1, 154150, Note_on_c, 0, 71, 66
1, 154184, Note_off_c, 0, 69, 63
1, 154343, Control_c, 0, 64, 50
1, 154358, Control_c, 0, 64, 61
1, 154373, Control_c, 0, 64, 64
1, 154388, Control_c, 0, 64, 66
1, 154391, Note_on_c, 0, 69, 64
1, 154391, Note_off_c, 0, 71, 60
1, 154403, Control_c, 0, 64, 69
1, 154417, Control_c, 0, 64, 73
1, 154417, Control_c, 0, 67, 20
1, 154432, Control_c, 0, 64, 79
1, 154432, Control_c, 0, 67, 25
1, 154447, Control_c, 0, 64, 86
1, 154447, Control_c, 0, 67, 31
1, 154461, Control_c, 0, 64, 92
1, 154461, Control_c, 0, 67, 39
1, 154476, Control_c, 0, 64, 100
1, 154476, Control_c, 0, 67, 51
1, 154491, Control_c, 0, 64, 109
1, 154491, Control_c, 0, 67, 61
1, 154507, Control_c, 0, 64, 124
1, 154507, Control_c, 0, 67, 69
1, 154519, Note_off_c, 0, 69, 55
1, 154522, Control_c, 0, 64, 127
1, 154522, Control_c, 0, 67, 78
1, 154537, Control_c, 0, 67, 84
1, 154552, Control_c, 0, 67, 90
1, 154566, Control_c, 0, 67, 94
1, 154581, Control_c, 0, 67, 97
1, 154596, Control_c, 0, 67, 100
1, 154611, Control_c, 0, 67, 103
1, 154626, Control_c, 0, 67, 108
1, 154641, Control_c, 0, 67, 115
1, 154656, Control_c, 0, 67, 120
1, 154671, Control_c, 0, 67, 123
1, 154736, Note_on_c, 0, 79, 72
1, 154749, Note_on_c, 0, 76, 59
1, 154754, Note_on_c, 0, 61, 40
1, 154756, Note_on_c, 0, 69, 40
1, 154759, Control_c, 0, 64, 117
1, 154768, Note_off_c, 0, 76, 64
1, 154774, Control_c, 0, 64, 95
1, 154795, Note_off_c, 0, 69, 54
1, 154796, Control_c, 0, 64, 81
1, 154805, Note_off_c, 0, 79, 53
1, 154805, Note_off_c, 0, 61, 46
1, 154811, Control_c, 0, 64, 70
1, 154826, Control_c, 0, 64, 61
1, 154826, Control_c, 0, 67, 125
1, 154841, Control_c, 0, 64, 44
1, 154856, Control_c, 0, 64, 0
1, 155047, Note_on_c, 0, 79, 59
1, 155056, Note_on_c, 0, 76, 48
1, 155062, Note_on_c, 0, 61, 35
1, 155066, Note_on_c, 0, 69, 33
1, 155084, Note_off_c, 0, 76, 59
1, 155094, Note_off_c, 0, 61, 53
1, 155094, Note_off_c, 0, 79, 52
1, 155101, Note_off_c, 0, 69, 52
1, 155255, Control_c, 0, 64, 46
1, 155270, Control_c, 0, 64, 59
1, 155270, Control_c, 0, 67, 127
1, 155285, Control_c, 0, 64, 65
1, 155300, Control_c, 0, 64, 68
1, 155315, Control_c, 0, 64, 71
1, 155330, Control_c, 0, 64, 75
1, 155345, Control_c, 0, 64, 80
1, 155360, Control_c, 0, 64, 84
1, 155375, Control_c, 0, 64, 88
1, 155389, Control_c, 0, 64, 92
1, 155404, Control_c, 0, 64, 96
1, 155419, Control_c, 0, 64, 100
1, 155434, Control_c, 0, 64, 105
1, 155449, Control_c, 0, 64, 112
1, 155464, Control_c, 0, 64, 122
1, 155479, Control_c, 0, 64, 127
1, 155542, Note_on_c, 0, 69, 44
1, 155619, Note_off_c, 0, 69, 50
1, 155783, Control_c, 0, 64, 112
1, 155797, Control_c, 0, 64, 96
1, 155808, Note_on_c, 0, 78, 55
1, 155812, Control_c, 0, 64, 83
1, 155822, Note_on_c, 0, 62, 39
1, 155825, Note_on_c, 0, 74, 49
1, 155827, Control_c, 0, 64, 71
1, 155828, Note_on_c, 0, 69, 39
1, 155842, Control_c, 0, 64, 60
1, 155857, Control_c, 0, 64, 43
1, 155857, Note_off_c, 0, 74, 55
1, 155857, Note_off_c, 0, 62, 52
1, 155864, Note_off_c, 0, 69, 53
1, 155871, Note_off_c, 0, 78, 56
1, 155871, Control_c, 0, 64, 0
1, 156072, Note_on_c, 0, 78, 55
1, 156086, Note_on_c, 0, 74, 42
1, 156087, Note_on_c, 0, 62, 38
1, 156108, Note_off_c, 0, 78, 64
1, 156116, Note_off_c, 0, 74, 60
1, 156126, Note_off_c, 0, 62, 60
1, 156142, Poly_aftertouch_c, 0, 69, 0
1, 156294, Control_c, 0, 64, 34
1, 156309, Control_c, 0, 64, 44
1, 156324, Control_c, 0, 64, 55
1, 156338, Control_c, 0, 64, 62
1, 156353, Control_c, 0, 64, 66
1, 156368, Control_c, 0, 64, 70
1, 156383, Control_c, 0, 64, 76
1, 156398, Control_c, 0, 64, 81
1, 156412, Control_c, 0, 64, 87
1, 156427, Control_c, 0, 64, 95
1, 156442, Control_c, 0, 64, 105
1, 156457, Control_c, 0, 64, 117
1, 156472, Control_c, 0, 64, 127
1, 156581, Note_on_c, 0, 69, 39
1, 156635, Note_off_c, 0, 69, 44
1, 156827, Control_c, 0, 64, 116
1, 156842, Note_on_c, 0, 73, 48
1, 156842, Control_c, 0, 64, 88
1, 156844, Note_on_c, 0, 76, 47
1, 156844, Note_on_c, 0, 57, 37
1, 156856, Control_c, 0, 64, 74
1, 156865, Note_on_c, 0, 69, 24
1, 156871, Control_c, 0, 64, 65
1, 156875, Note_off_c, 0, 73, 58
1, 156878, Note_off_c, 0, 76, 50
1, 156883, Note_off_c, 0, 57, 49
1, 156886, Control_c, 0, 64, 56
1, 156900, Note_off_c, 0, 69, 43
1, 156901, Control_c, 0, 64, 45
1, 156916, Control_c, 0, 64, 0
1, 157115, Note_on_c, 0, 76, 41
1, 157119, Note_on_c, 0, 73, 34
1, 157121, Note_on_c, 0, 69, 27
1, 157130, Note_on_c, 0, 57, 19
1, 157154, Note_off_c, 0, 76, 60
1, 157165, Note_off_c, 0, 73, 62
1, 157170, Note_off_c, 0, 57, 53
1, 157170, Note_off_c, 0, 69, 49
1, 157622, Note_on_c, 0, 69, 30
1, 157878, Note_off_c, 0, 69, 42
1, 157886, Note_on_c, 0, 68, 40
1, 158073, Control_c, 0, 67, 121
1, 158088, Control_c, 0, 67, 95
1, 158103, Control_c, 0, 67, 58
1, 158117, Note_on_c, 0, 69, 58
1, 158117, Control_c, 0, 67, 27
1, 158132, Control_c, 0, 67, 0
1, 158294, Note_off_c, 0, 68, 37
1, 158338, Note_on_c, 0, 71, 66
1, 158382, Note_off_c, 0, 69, 57
1, 158458, Control_c, 0, 64, 38
1, 158473, Control_c, 0, 64, 46
1, 158488, Control_c, 0, 64, 53
1, 158504, Control_c, 0, 64, 59
1, 158519, Control_c, 0, 64, 63
1, 158540, Control_c, 0, 64, 67
1, 158555, Control_c, 0, 64, 70
1, 158558, Note_on_c, 0, 69, 63
1, 158570, Control_c, 0, 64, 74
1, 158585, Control_c, 0, 64, 80
1, 158600, Control_c, 0, 64, 86
1, 158615, Control_c, 0, 64, 94
1, 158630, Control_c, 0, 64, 102
1, 158645, Control_c, 0, 64, 124
1, 158659, Control_c, 0, 64, 127
1, 158822, Control_c, 0, 64, 103
1, 158822, Control_c, 0, 67, 21
1, 158824, Note_on_c, 0, 67, 59
1, 158829, Note_on_c, 0, 49, 40
1, 158830, Note_on_c, 0, 64, 52
1, 158837, Control_c, 0, 64, 86
1, 158837, Control_c, 0, 67, 25
1, 158844, Note_on_c, 0, 57, 35
1, 158844, Note_off_c, 0, 69, 53
1, 158852, Control_c, 0, 64, 75
1, 158852, Control_c, 0, 67, 29
1, 158861, Note_off_c, 0, 71, 36
1, 158866, Control_c, 0, 64, 66
1, 158866, Control_c, 0, 67, 34
1, 158874, Note_off_c, 0, 64, 59
1, 158875, Note_off_c, 0, 49, 47
1, 158878, Note_off_c, 0, 57, 52
1, 158880, Note_off_c, 0, 67, 59
1, 158881, Control_c, 0, 64, 54
1, 158881, Control_c, 0, 67, 41
1, 158896, Control_c, 0, 64, 0
1, 158896, Control_c, 0, 67, 49
1, 158911, Control_c, 0, 67, 60
1, 158926, Control_c, 0, 67, 68
1, 158940, Control_c, 0, 67, 77
1, 158955, Control_c, 0, 67, 85
1, 158970, Control_c, 0, 67, 92
1, 158985, Control_c, 0, 67, 98
1, 159000, Control_c, 0, 67, 102
1, 159014, Control_c, 0, 67, 107
1, 159029, Control_c, 0, 67, 110
1, 159044, Control_c, 0, 67, 113
1, 159059, Control_c, 0, 67, 118
1, 159074, Control_c, 0, 67, 124
1, 159089, Control_c, 0, 67, 127
1, 159107, Note_on_c, 0, 67, 54
1, 159119, Note_on_c, 0, 64, 45
1, 159119, Note_on_c, 0, 49, 36
1, 159129, Note_on_c, 0, 57, 21
1, 159152, Note_off_c, 0, 49, 57
1, 159155, Note_off_c, 0, 67, 58
1, 159163, Note_off_c, 0, 64, 58
1, 159172, Note_off_c, 0, 57, 52
1, 159349, Control_c, 0, 64, 37
1, 159363, Control_c, 0, 64, 54
1, 159378, Control_c, 0, 64, 63
1, 159393, Control_c, 0, 64, 67
1, 159408, Control_c, 0, 64, 71
1, 159423, Control_c, 0, 64, 74
1, 159437, Control_c, 0, 64, 78
1, 159452, Control_c, 0, 64, 81
1, 159467, Control_c, 0, 64, 85
1, 159482, Control_c, 0, 64, 90
1, 159497, Control_c, 0, 64, 94
1, 159512, Control_c, 0, 64, 98
1, 159527, Control_c, 0, 64, 102
1, 159542, Control_c, 0, 64, 104
1, 159556, Control_c, 0, 64, 106
1, 159586, Control_c, 0, 64, 109
1, 159598, Note_on_c, 0, 69, 47
1, 159601, Control_c, 0, 64, 111
1, 159808, Control_c, 0, 64, 109
1, 159823, Control_c, 0, 64, 103
1, 159837, Control_c, 0, 64, 97
1, 159844, Note_on_c, 0, 66, 47
1, 159852, Control_c, 0, 64, 89
1, 159858, Note_on_c, 0, 50, 40
1, 159867, Control_c, 0, 64, 82
1, 159873, Note_on_c, 0, 62, 29
1, 159876, Note_on_c, 0, 57, 39
1, 159882, Control_c, 0, 64, 73
1, 159897, Control_c, 0, 64, 65
1, 159907, Note_off_c, 0, 50, 59
1, 159908, Note_off_c, 0, 66, 53
1, 159910, Note_off_c, 0, 69, 31
1, 159911, Note_off_c, 0, 62, 51
1, 159912, Control_c, 0, 64, 53
1, 159915, Note_off_c, 0, 57, 60
1, 159927, Control_c, 0, 64, 0
1, 160138, Note_on_c, 0, 66, 35
1, 160144, Note_on_c, 0, 62, 33
1, 160148, Note_on_c, 0, 50, 25
1, 160158, Note_on_c, 0, 57, 16
1, 160186, Note_off_c, 0, 50, 56
1, 160200, Note_off_c, 0, 57, 52
1, 160203, Note_off_c, 0, 66, 57
1, 160206, Note_off_c, 0, 62, 56
1, 160320, Control_c, 0, 64, 39
1, 160335, Control_c, 0, 64, 55
1, 160350, Control_c, 0, 64, 62
1, 160365, Control_c, 0, 64, 66
1, 160379, Control_c, 0, 64, 71
1, 160394, Control_c, 0, 64, 75
1, 160409, Control_c, 0, 64, 81
1, 160424, Control_c, 0, 64, 87
1, 160439, Control_c, 0, 64, 93
1, 160454, Control_c, 0, 64, 100
1, 160469, Control_c, 0, 64, 108
1, 160484, Control_c, 0, 64, 117
1, 160499, Control_c, 0, 64, 127
1, 160604, Note_on_c, 0, 69, 38
1, 160891, Control_c, 0, 64, 111
1, 160892, Note_on_c, 0, 61, 39
1, 160896, Note_on_c, 0, 45, 33
1, 160897, Note_on_c, 0, 64, 28
1, 160897, Note_off_c, 0, 69, 37
1, 160903, Note_on_c, 0, 57, 30
1, 160907, Control_c, 0, 64, 98
1, 160922, Control_c, 0, 64, 87
1, 160936, Control_c, 0, 64, 75
1, 160940, Note_off_c, 0, 45, 48
1, 160946, Note_off_c, 0, 57, 48
1, 160949, Note_off_c, 0, 64, 42
1, 160951, Control_c, 0, 64, 66
1, 160956, Note_off_c, 0, 61, 53
1, 160966, Control_c, 0, 64, 56
1, 160981, Control_c, 0, 64, 40
1, 160996, Control_c, 0, 64, 0
1, 161225, Note_on_c, 0, 64, 32
1, 161226, Note_on_c, 0, 61, 33
1, 161232, Note_on_c, 0, 45, 14
1, 161252, Poly_aftertouch_c, 0, 57, 127
1, 161281, Note_off_c, 0, 45, 39
1, 161292, Poly_aftertouch_c, 0, 57, 0
1, 161292, Note_off_c, 0, 64, 58
1, 161295, Note_off_c, 0, 61, 55
1, 161754, Note_on_c, 0, 68, 43
1, 161912, Note_off_c, 0, 68, 47
1, 161920, Note_on_c, 0, 71, 44
1, 161998, Note_off_c, 0, 71, 62
1, 162037, Note_on_c, 0, 69, 52
1, 162157, Note_on_c, 0, 73, 54
1, 162171, Note_off_c, 0, 69, 49
1, 162278, Note_off_c, 0, 73, 57
1, 162279, Note_on_c, 0, 71, 58
1, 162299, Control_c, 0, 67, 119
1, 162314, Control_c, 0, 67, 101
1, 162329, Control_c, 0, 67, 82
1, 162344, Control_c, 0, 67, 65
1, 162358, Control_c, 0, 67, 52
1, 162373, Control_c, 0, 67, 41
1, 162377, Note_off_c, 0, 71, 61
1, 162377, Note_on_c, 0, 74, 63
1, 162388, Control_c, 0, 67, 32
1, 162402, Control_c, 0, 67, 20
1, 162417, Control_c, 0, 67, 0
1, 162478, Note_on_c, 0, 73, 67
1, 162493, Note_off_c, 0, 74, 56
1, 162593, Note_on_c, 0, 76, 65
1, 162606, Note_off_c, 0, 73, 58
1, 162652, Note_off_c, 0, 76, 63
1, 162687, Note_on_c, 0, 74, 45
1, 162821, Note_on_c, 0, 78, 63
1, 162869, Note_off_c, 0, 74, 59
1, 162947, Note_on_c, 0, 76, 62
1, 162969, Note_off_c, 0, 78, 56
1, 163077, Note_on_c, 0, 62, 33
1, 163160, Note_off_c, 0, 76, 58
1, 163179, Note_on_c, 0, 79, 47
1, 163346, Note_off_c, 0, 79, 54
1, 163359, Note_on_c, 0, 78, 39
1, 163360, Control_c, 0, 64, 34
1, 163375, Control_c, 0, 64, 41
1, 163390, Control_c, 0, 64, 49
1, 163404, Control_c, 0, 64, 57
1, 163419, Control_c, 0, 64, 63
1, 163434, Control_c, 0, 64, 65
1, 163448, Control_c, 0, 64, 69
1, 163463, Control_c, 0, 64, 74
1, 163471, Note_on_c, 0, 69, 35
1, 163478, Control_c, 0, 64, 80
1, 163493, Control_c, 0, 64, 88
1, 163508, Control_c, 0, 64, 101
1, 163522, Control_c, 0, 64, 127
1, 163703, Note_on_c, 0, 66, 40
1, 163709, Note_off_c, 0, 69, 39
1, 163812, Note_off_c, 0, 78, 53
1, 163890, Note_off_c, 0, 62, 40
1, 163933, Note_on_c, 0, 69, 31
1, 164112, Note_off_c, 0, 69, 27
1, 164130, Note_on_c, 0, 62, 30
1, 164153, Note_on_c, 0, 78, 55
1, 164326, Note_off_c, 0, 78, 54
1, 164355, Note_off_c, 0, 66, 40
1, 164372, Note_on_c, 0, 69, 37
1, 164559, Note_off_c, 0, 69, 31
1, 164586, Note_on_c, 0, 66, 37
1, 164594, Note_on_c, 0, 78, 74
1, 164767, Control_c, 0, 67, 19
1, 164768, Note_off_c, 0, 62, 40
1, 164799, Note_on_c, 0, 69, 36
1, 164811, Control_c, 0, 67, 22
1, 164856, Control_c, 0, 67, 25
1, 164916, Control_c, 0, 67, 27
1, 164946, Control_c, 0, 67, 30
1, 164975, Control_c, 0, 67, 33
1, 164990, Control_c, 0, 67, 35
1, 165005, Control_c, 0, 67, 37
1, 165019, Control_c, 0, 67, 40
1, 165027, Note_off_c, 0, 69, 39
1, 165034, Control_c, 0, 67, 43
1, 165049, Control_c, 0, 67, 45
1, 165051, Note_on_c, 0, 62, 29
1, 165064, Control_c, 0, 67, 47
1, 165079, Control_c, 0, 67, 47
1, 165098, Note_on_c, 0, 67, 20
1, 165108, Control_c, 0, 67, 48
1, 165116, Note_on_c, 0, 76, 70
1, 165124, Note_off_c, 0, 66, 39
1, 165124, Control_c, 0, 64, 122
1, 165124, Control_c, 0, 67, 49
1, 165139, Control_c, 0, 64, 89
1, 165139, Control_c, 0, 67, 50
1, 165150, Note_off_c, 0, 78, 58
1, 165154, Control_c, 0, 64, 72
1, 165154, Control_c, 0, 67, 53
1, 165168, Control_c, 0, 64, 58
1, 165168, Control_c, 0, 67, 55
1, 165183, Control_c, 0, 64, 34
1, 165183, Control_c, 0, 67, 56
1, 165198, Control_c, 0, 64, 0
1, 165198, Control_c, 0, 67, 59
1, 165213, Control_c, 0, 67, 64
1, 165227, Control_c, 0, 64, 39
1, 165227, Control_c, 0, 67, 71
1, 165242, Control_c, 0, 64, 49
1, 165242, Control_c, 0, 67, 83
1, 165257, Control_c, 0, 64, 56
1, 165257, Control_c, 0, 67, 95
1, 165280, Control_c, 0, 64, 63
1, 165280, Control_c, 0, 67, 106
1, 165295, Control_c, 0, 64, 69
1, 165295, Control_c, 0, 67, 118
1, 165309, Control_c, 0, 64, 76
1, 165309, Control_c, 0, 67, 127
1, 165324, Control_c, 0, 64, 83
1, 165339, Control_c, 0, 64, 89
1, 165353, Control_c, 0, 64, 97
1, 165368, Control_c, 0, 64, 107
1, 165383, Control_c, 0, 64, 127
1, 165460, Note_on_c, 0, 73, 40
1, 165504, Note_on_c, 0, 81, 67
1, 165516, Note_off_c, 0, 76, 60
1, 165602, Note_off_c, 0, 67, 39
1, 165605, Note_on_c, 0, 79, 72
1, 165638, Note_off_c, 0, 79, 62
1, 165699, Note_on_c, 0, 64, 35
1, 165699, Note_off_c, 0, 73, 38
1, 165710, Control_c, 0, 64, 109
1, 165724, Control_c, 0, 64, 85
1, 165739, Note_on_c, 0, 79, 62
1, 165739, Control_c, 0, 64, 69
1, 165754, Control_c, 0, 64, 53
1, 165756, Note_off_c, 0, 81, 48
1, 165769, Control_c, 0, 64, 0
1, 165799, Control_c, 0, 64, 36
1, 165814, Control_c, 0, 64, 50
1, 165829, Control_c, 0, 64, 59
1, 165843, Control_c, 0, 64, 66
1, 165858, Control_c, 0, 64, 73
1, 165873, Control_c, 0, 64, 81
1, 165888, Control_c, 0, 64, 87
1, 165903, Control_c, 0, 64, 93
1, 165917, Control_c, 0, 64, 99
1, 165932, Control_c, 0, 64, 105
1, 165947, Control_c, 0, 64, 113
1, 165950, Note_on_c, 0, 73, 45
1, 165961, Control_c, 0, 64, 127
1, 165984, Note_off_c, 0, 64, 36
1, 166116, Note_off_c, 0, 73, 33
1, 166177, Note_on_c, 0, 64, 37
1, 166379, Note_on_c, 0, 73, 44
1, 166542, Note_off_c, 0, 73, 30
1, 166559, Note_off_c, 0, 64, 51
1, 166592, Note_on_c, 0, 66, 43
1, 166592, Control_c, 0, 64, 104
1, 166597, Note_on_c, 0, 78, 68
1, 166607, Control_c, 0, 64, 79
1, 166621, Control_c, 0, 64, 65
1, 166626, Note_off_c, 0, 79, 54
1, 166636, Control_c, 0, 64, 54
1, 166651, Control_c, 0, 64, 53
1, 166666, Control_c, 0, 64, 57
1, 166681, Control_c, 0, 64, 62
1, 166693, Note_off_c, 0, 62, 42
1, 166696, Control_c, 0, 64, 67
1, 166711, Control_c, 0, 64, 76
1, 166726, Control_c, 0, 64, 88
1, 166740, Control_c, 0, 64, 106
1, 166755, Control_c, 0, 64, 127
1, 166815, Note_on_c, 0, 74, 46
1, 166841, Note_off_c, 0, 74, 50
1, 166848, Note_off_c, 0, 66, 60
1, 167069, Note_on_c, 0, 55, 34
1, 167162, Note_on_c, 0, 71, 64
1, 167162, Control_c, 0, 64, 95
1, 167177, Control_c, 0, 64, 75
1, 167191, Control_c, 0, 64, 61
1, 167197, Note_off_c, 0, 78, 59
1, 167206, Control_c, 0, 64, 37
1, 167221, Control_c, 0, 64, 39
1, 167236, Control_c, 0, 64, 47
1, 167251, Control_c, 0, 64, 55
1, 167265, Control_c, 0, 64, 61
1, 167280, Control_c, 0, 64, 68
1, 167296, Control_c, 0, 64, 80
1, 167311, Control_c, 0, 64, 97
1, 167326, Control_c, 0, 64, 127
1, 167343, Note_off_c, 0, 55, 40
1, 167405, Note_on_c, 0, 67, 38
1, 167429, Control_c, 0, 67, 123
1, 167444, Control_c, 0, 67, 117
1, 167459, Control_c, 0, 67, 109
1, 167474, Control_c, 0, 67, 101
1, 167489, Control_c, 0, 67, 93
1, 167504, Control_c, 0, 67, 85
1, 167526, Control_c, 0, 67, 78
1, 167540, Control_c, 0, 67, 71
1, 167555, Control_c, 0, 67, 61
1, 167570, Control_c, 0, 67, 47
1, 167576, Note_off_c, 0, 67, 36
1, 167584, Note_on_c, 0, 64, 40
1, 167585, Control_c, 0, 67, 35
1, 167600, Control_c, 0, 67, 24
1, 167614, Control_c, 0, 67, 0
1, 167656, Note_off_c, 0, 71, 56
1, 167663, Note_on_c, 0, 76, 62
1, 167725, Note_on_c, 0, 79, 71
1, 167733, Note_off_c, 0, 76, 60
1, 167756, Note_on_c, 0, 67, 39
1, 167773, Note_off_c, 0, 79, 64
1, 167775, Note_on_c, 0, 83, 76
1, 167796, Note_off_c, 0, 64, 36
1, 167842, Note_on_c, 0, 79, 74
1, 167906, Note_off_c, 0, 83, 57
1, 167912, Note_on_c, 0, 76, 75
1, 167943, Note_off_c, 0, 67, 48
1, 167944, Note_on_c, 0, 57, 40
1, 167946, Note_off_c, 0, 79, 62
1, 167970, Control_c, 0, 64, 92
1, 167985, Control_c, 0, 64, 71
1, 168000, Control_c, 0, 64, 48
1, 168014, Control_c, 0, 64, 0
1, 168029, Note_off_c, 0, 76, 63
1, 168031, Note_on_c, 0, 74, 75
1, 168059, Control_c, 0, 64, 43
1, 168074, Control_c, 0, 64, 54
1, 168090, Control_c, 0, 64, 63
1, 168105, Control_c, 0, 64, 70
1, 168119, Control_c, 0, 64, 78
1, 168134, Control_c, 0, 64, 87
1, 168149, Control_c, 0, 64, 92
1, 168163, Control_c, 0, 64, 98
1, 168178, Control_c, 0, 64, 103
1, 168193, Control_c, 0, 64, 111
1, 168208, Control_c, 0, 64, 127
1, 168219, Note_off_c, 0, 57, 56
1, 168264, Note_on_c, 0, 66, 43
1, 168440, Note_off_c, 0, 66, 32
1, 168502, Note_on_c, 0, 58, 36
1, 168553, Note_on_c, 0, 78, 74
1, 168556, Control_c, 0, 64, 101
1, 168565, Note_on_c, 0, 73, 50
1, 168571, Control_c, 0, 64, 77
1, 168571, Note_off_c, 0, 74, 52
1, 168586, Control_c, 0, 64, 61
1, 168601, Control_c, 0, 64, 0
1, 168645, Control_c, 0, 64, 43
1, 168660, Control_c, 0, 64, 51
1, 168675, Control_c, 0, 64, 58
1, 168689, Control_c, 0, 64, 65
1, 168704, Control_c, 0, 64, 71
1, 168719, Control_c, 0, 64, 77
1, 168734, Control_c, 0, 64, 80
1, 168749, Control_c, 0, 64, 82
1, 168763, Control_c, 0, 64, 86
1, 168778, Control_c, 0, 64, 92
1, 168793, Control_c, 0, 64, 101
1, 168803, Note_off_c, 0, 58, 51
1, 168808, Control_c, 0, 64, 110
1, 168823, Control_c, 0, 64, 127
1, 168846, Note_on_c, 0, 76, 79
1, 168850, Note_on_c, 0, 67, 35
1, 168888, Note_off_c, 0, 73, 42
1, 168898, Note_off_c, 0, 78, 60
1, 168913, Control_c, 0, 67, 20
1, 168928, Control_c, 0, 67, 22
1, 168957, Control_c, 0, 67, 25
1, 168972, Control_c, 0, 67, 28
1, 168986, Control_c, 0, 67, 34
1, 169001, Control_c, 0, 67, 41
1, 169024, Control_c, 0, 67, 52
1, 169039, Control_c, 0, 67, 66
1, 169054, Control_c, 0, 67, 80
1, 169068, Control_c, 0, 67, 91
1, 169083, Control_c, 0, 67, 101
1, 169098, Control_c, 0, 67, 111
1, 169113, Control_c, 0, 67, 120
1, 169127, Control_c, 0, 67, 127
1, 169212, Note_on_c, 0, 59, 26
1, 169239, Note_on_c, 0, 66, 36
1, 169280, Note_on_c, 0, 74, 51
1, 169290, Control_c, 0, 64, 99
1, 169305, Control_c, 0, 64, 80
1, 169319, Control_c, 0, 64, 67
1, 169332, Note_off_c, 0, 76, 57
1, 169334, Control_c, 0, 64, 51
1, 169335, Note_off_c, 0, 67, 43
1, 169349, Control_c, 0, 64, 0
1, 169438, Control_c, 0, 64, 40
1, 169453, Control_c, 0, 64, 52
1, 169468, Control_c, 0, 64, 61
1, 169483, Control_c, 0, 64, 66
1, 169498, Control_c, 0, 64, 71
1, 169512, Control_c, 0, 64, 76
1, 169527, Control_c, 0, 64, 80
1, 169542, Control_c, 0, 64, 85
1, 169557, Control_c, 0, 64, 91
1, 169572, Control_c, 0, 64, 97
1, 169586, Control_c, 0, 64, 104
1, 169601, Control_c, 0, 64, 108
1, 169607, Note_off_c, 0, 59, 39
1, 169616, Control_c, 0, 64, 112
1, 169631, Note_off_c, 0, 66, 32
1, 169631, Control_c, 0, 64, 115
1, 169646, Control_c, 0, 64, 117
1, 169660, Control_c, 0, 64, 124
1, 169675, Control_c, 0, 64, 127
1, 169724, Note_off_c, 0, 74, 28
1, 169862, Control_c, 0, 64, 122
1, 169877, Control_c, 0, 64, 115
1, 169891, Control_c, 0, 64, 111
1, 169906, Control_c, 0, 64, 106
1, 169921, Control_c, 0, 64, 103
1, 169936, Control_c, 0, 64, 100
1, 169950, Control_c, 0, 64, 96
1, 169965, Control_c, 0, 64, 92
1, 169980, Control_c, 0, 64, 87
1, 169995, Control_c, 0, 64, 83
1, 170010, Control_c, 0, 64, 79
1, 170024, Control_c, 0, 64, 75
1, 170039, Control_c, 0, 64, 70
1, 170054, Control_c, 0, 64, 65
1, 170069, Control_c, 0, 64, 61
1, 170084, Control_c, 0, 64, 57
1, 170098, Control_c, 0, 64, 53
1, 170113, Control_c, 0, 64, 51
1, 170128, Control_c, 0, 64, 50
1, 170142, Control_c, 0, 64, 48
1, 170157, Control_c, 0, 64, 45
1, 170172, Control_c, 0, 64, 41
1, 170187, Control_c, 0, 64, 38
1, 170231, Control_c, 0, 64, 37
1, 170246, Control_c, 0, 64, 37
1, 170261, Control_c, 0, 64, 36
1, 170276, Control_c, 0, 64, 35
1, 170291, Control_c, 0, 64, 34
1, 170306, Control_c, 0, 64, 33
1, 170321, Control_c, 0, 64, 0
1, 170330, Note_on_c, 0, 78, 36
1, 170479, Note_on_c, 0, 76, 46
1, 170496, Note_off_c, 0, 78, 36
1, 170585, Note_off_c, 0, 76, 55
1, 170596, Note_on_c, 0, 74, 51
1, 170688, Note_off_c, 0, 74, 61
1, 170711, Note_on_c, 0, 73, 52
1, 170811, Note_off_c, 0, 73, 57
1, 170826, Note_on_c, 0, 76, 52
1, 170947, Note_on_c, 0, 74, 56
1, 170974, Note_off_c, 0, 76, 52
1, 171030, Note_off_c, 0, 74, 59
1, 171053, Note_on_c, 0, 71, 55
1, 171148, Note_off_c, 0, 71, 63
1, 171168, Note_on_c, 0, 70, 55
1, 171276, Note_off_c, 0, 70, 59
1, 171296, Note_on_c, 0, 73, 57
1, 171413, Note_on_c, 0, 71, 49
1, 171453, Note_off_c, 0, 73, 35
1, 171511, Note_on_c, 0, 67, 44
1, 171513, Note_off_c, 0, 71, 54
1, 171665, Note_on_c, 0, 50, 27
1, 171677, Note_on_c, 0, 66, 40
1, 171701, Note_off_c, 0, 67, 35
1, 171804, Control_c, 0, 64, 41
1, 171819, Control_c, 0, 64, 49
1, 171834, Control_c, 0, 64, 57
1, 171849, Control_c, 0, 64, 62
1, 171862, Control_c, 0, 64, 66
1, 171877, Control_c, 0, 64, 71
1, 171892, Control_c, 0, 64, 75
1, 171907, Control_c, 0, 64, 81
1, 171922, Control_c, 0, 64, 88
1, 171926, Note_on_c, 0, 57, 32
1, 171936, Control_c, 0, 64, 96
1, 171951, Control_c, 0, 64, 106
1, 171966, Control_c, 0, 64, 122
1, 171981, Control_c, 0, 64, 127
1, 172149, Note_on_c, 0, 54, 36
1, 172171, Note_off_c, 0, 57, 38
1, 172207, Note_off_c, 0, 66, 23
1, 172315, Control_c, 0, 67, 125
1, 172330, Control_c, 0, 67, 111
1, 172345, Control_c, 0, 67, 92
1, 172360, Control_c, 0, 67, 80
1, 172367, Note_off_c, 0, 50, 40
1, 172375, Control_c, 0, 67, 74
1, 172390, Control_c, 0, 67, 70
1, 172391, Note_on_c, 0, 57, 30
1, 172404, Control_c, 0, 67, 67
1, 172419, Control_c, 0, 67, 67
1, 172434, Control_c, 0, 67, 66
1, 172597, Control_c, 0, 64, 88
1, 172612, Control_c, 0, 64, 70
1, 172619, Note_on_c, 0, 50, 23
1, 172627, Control_c, 0, 64, 59
1, 172634, Note_on_c, 0, 66, 32
1, 172642, Control_c, 0, 64, 54
1, 172648, Note_off_c, 0, 57, 39
1, 172656, Control_c, 0, 64, 57
1, 172671, Control_c, 0, 64, 60
1, 172686, Control_c, 0, 64, 63
1, 172701, Control_c, 0, 64, 67
1, 172716, Control_c, 0, 64, 74
1, 172730, Control_c, 0, 64, 82
1, 172745, Control_c, 0, 64, 90
1, 172768, Control_c, 0, 64, 97
1, 172781, Note_off_c, 0, 66, 45
1, 172783, Control_c, 0, 64, 104
1, 172798, Control_c, 0, 64, 111
1, 172812, Control_c, 0, 64, 122
1, 172827, Control_c, 0, 64, 127
1, 172895, Note_off_c, 0, 54, 41
1, 172896, Note_on_c, 0, 66, 47
1, 172899, Note_on_c, 0, 57, 33
1, 172930, Note_off_c, 0, 66, 51
1, 173119, Note_on_c, 0, 54, 38
1, 173120, Note_off_c, 0, 57, 42
1, 173121, Note_on_c, 0, 66, 62
1, 173153, Control_c, 0, 67, 67
1, 173162, Note_off_c, 0, 66, 55
1, 173198, Control_c, 0, 67, 67
1, 173227, Control_c, 0, 67, 68
1, 173257, Control_c, 0, 67, 68
1, 173272, Control_c, 0, 67, 69
1, 173302, Control_c, 0, 67, 69
1, 173313, Note_off_c, 0, 50, 39
1, 173317, Control_c, 0, 67, 70
1, 173331, Control_c, 0, 67, 70
1, 173346, Control_c, 0, 67, 71
1, 173351, Note_on_c, 0, 66, 74
1, 173354, Note_on_c, 0, 57, 41
1, 173361, Control_c, 0, 67, 72
1, 173376, Control_c, 0, 67, 72
1, 173391, Control_c, 0, 67, 73
1, 173421, Control_c, 0, 67, 73
1, 173435, Control_c, 0, 67, 74
1, 173450, Control_c, 0, 67, 74
1, 173465, Control_c, 0, 67, 75
1, 173479, Control_c, 0, 67, 76
1, 173494, Note_off_c, 0, 57, 0
1, 173494, Control_c, 0, 67, 77
1, 173516, Control_c, 0, 67, 77
1, 173531, Control_c, 0, 67, 78
1, 173541, Poly_aftertouch_c, 0, 57, 0
1, 173546, Control_c, 0, 67, 79
1, 173561, Control_c, 0, 67, 80
1, 173576, Control_c, 0, 67, 81
1, 173576, Note_on_c, 0, 50, 35
1, 173591, Control_c, 0, 67, 84
1, 173606, Control_c, 0, 67, 90
1, 173621, Control_c, 0, 67, 96
1, 173628, Note_on_c, 0, 55, 33
1, 173635, Control_c, 0, 67, 101
1, 173650, Control_c, 0, 64, 109
1, 173650, Control_c, 0, 67, 106
1, 173657, Note_off_c, 0, 54, 39
1, 173665, Control_c, 0, 64, 94
1, 173665, Control_c, 0, 67, 111
1, 173680, Control_c, 0, 64, 78
1, 173680, Control_c, 0, 67, 115
1, 173695, Control_c, 0, 64, 65
1, 173695, Control_c, 0, 67, 119
1, 173697, Note_on_c, 0, 64, 65
1, 173710, Control_c, 0, 64, 44
1, 173710, Control_c, 0, 67, 124
1, 173725, Control_c, 0, 64, 0
1, 173725, Control_c, 0, 67, 127
1, 173741, Note_off_c, 0, 66, 56
1, 173799, Control_c, 0, 64, 39
1, 173814, Control_c, 0, 64, 53
1, 173829, Control_c, 0, 64, 62
1, 173844, Control_c, 0, 64, 67
1, 173858, Control_c, 0, 64, 71
1, 173873, Control_c, 0, 64, 75
1, 173888, Control_c, 0, 64, 78
1, 173902, Control_c, 0, 64, 81
1, 173917, Control_c, 0, 64, 84
1, 173932, Control_c, 0, 64, 87
1, 173947, Control_c, 0, 64, 90
1, 173962, Control_c, 0, 64, 94
1, 173977, Control_c, 0, 64, 98
1, 173991, Control_c, 0, 64, 100
1, 174017, Note_on_c, 0, 61, 36
1, 174036, Control_c, 0, 64, 102
1, 174045, Note_off_c, 0, 55, 37
1, 174068, Note_on_c, 0, 69, 57
1, 174075, Note_off_c, 0, 64, 61
1, 174162, Note_on_c, 0, 67, 64
1, 174196, Note_off_c, 0, 67, 61
1, 174243, Control_c, 0, 64, 97
1, 174265, Control_c, 0, 64, 85
1, 174266, Note_on_c, 0, 52, 36
1, 174280, Control_c, 0, 64, 70
1, 174282, Note_off_c, 0, 61, 36
1, 174295, Control_c, 0, 64, 55
1, 174297, Note_off_c, 0, 69, 54
1, 174297, Note_on_c, 0, 67, 53
1, 174309, Control_c, 0, 64, 0
1, 174354, Control_c, 0, 64, 37
1, 174369, Control_c, 0, 64, 49
1, 174384, Control_c, 0, 64, 59
1, 174399, Control_c, 0, 64, 65
1, 174414, Control_c, 0, 64, 69
1, 174428, Control_c, 0, 64, 73
1, 174443, Control_c, 0, 64, 76
1, 174458, Control_c, 0, 64, 80
1, 174473, Control_c, 0, 64, 83
1, 174488, Control_c, 0, 64, 86
1, 174503, Control_c, 0, 64, 89
1, 174518, Control_c, 0, 64, 91
1, 174525, Note_off_c, 0, 52, 38
1, 174530, Note_on_c, 0, 61, 39
1, 174533, Control_c, 0, 64, 94
1, 174548, Control_c, 0, 64, 95
1, 174563, Control_c, 0, 64, 95
1, 174577, Control_c, 0, 64, 96
1, 174666, Control_c, 0, 64, 93
1, 174681, Control_c, 0, 64, 83
1, 174696, Control_c, 0, 64, 71
1, 174706, Note_off_c, 0, 61, 33
1, 174711, Control_c, 0, 64, 60
1, 174718, Note_on_c, 0, 52, 37
1, 174726, Control_c, 0, 64, 43
1, 174740, Control_c, 0, 64, 41
1, 174755, Control_c, 0, 64, 46
1, 174770, Control_c, 0, 64, 52
1, 174785, Control_c, 0, 64, 58
1, 174800, Control_c, 0, 64, 64
1, 174814, Control_c, 0, 64, 68
1, 174829, Control_c, 0, 64, 73
1, 174844, Control_c, 0, 64, 76
1, 174858, Control_c, 0, 64, 78
1, 174873, Control_c, 0, 64, 80
1, 174888, Control_c, 0, 64, 81
1, 174903, Control_c, 0, 64, 83
1, 174918, Control_c, 0, 64, 85
1, 174927, Note_on_c, 0, 61, 39
1, 174932, Control_c, 0, 64, 86
1, 174947, Control_c, 0, 64, 87
1, 174962, Control_c, 0, 64, 88
1, 174977, Control_c, 0, 64, 89
1, 175057, Note_off_c, 0, 52, 37
1, 175121, Note_off_c, 0, 61, 31
1, 175132, Control_c, 0, 64, 87
1, 175147, Control_c, 0, 64, 81
1, 175161, Note_on_c, 0, 54, 32
1, 175162, Control_c, 0, 64, 73
1, 175177, Control_c, 0, 64, 61
1, 175186, Note_on_c, 0, 66, 47
1, 175192, Control_c, 0, 64, 43
1, 175201, Note_off_c, 0, 67, 36
1, 175206, Control_c, 0, 64, 0
1, 175236, Control_c, 0, 64, 35
1, 175251, Control_c, 0, 64, 42
1, 175266, Control_c, 0, 64, 50
1, 175281, Control_c, 0, 64, 61
1, 175296, Control_c, 0, 64, 67
1, 175311, Control_c, 0, 64, 72
1, 175314, Note_off_c, 0, 50, 38
1, 175326, Control_c, 0, 64, 77
1, 175341, Control_c, 0, 64, 80
1, 175356, Control_c, 0, 64, 81
1, 175370, Control_c, 0, 64, 83
1, 175385, Control_c, 0, 64, 84
1, 175400, Control_c, 0, 64, 85
1, 175415, Control_c, 0, 64, 86
1, 175418, Note_on_c, 0, 62, 43
1, 175430, Control_c, 0, 64, 87
1, 175445, Note_off_c, 0, 62, 57
1, 175445, Control_c, 0, 64, 88
1, 175460, Control_c, 0, 64, 88
1, 175468, Note_off_c, 0, 54, 54
1, 175475, Control_c, 0, 64, 89
1, 175534, Control_c, 0, 64, 89
1, 175709, Note_on_c, 0, 43, 31
1, 175710, Control_c, 0, 64, 89
1, 175725, Control_c, 0, 64, 85
1, 175740, Control_c, 0, 64, 78
1, 175762, Control_c, 0, 64, 70
1, 175768, Note_off_c, 0, 66, 32
1, 175770, Note_on_c, 0, 59, 42
1, 175777, Control_c, 0, 64, 59
1, 175792, Control_c, 0, 64, 42
1, 175807, Control_c, 0, 64, 35
1, 175822, Control_c, 0, 64, 39
1, 175836, Control_c, 0, 64, 46
1, 175851, Control_c, 0, 64, 52
1, 175866, Control_c, 0, 64, 60
1, 175880, Control_c, 0, 64, 66
1, 175895, Control_c, 0, 64, 72
1, 175910, Control_c, 0, 64, 78
1, 175925, Control_c, 0, 64, 82
1, 175940, Control_c, 0, 64, 84
1, 175955, Control_c, 0, 64, 85
1, 175970, Control_c, 0, 64, 86
1, 175978, Note_off_c, 0, 43, 41
1, 175984, Control_c, 0, 64, 87
1, 175999, Control_c, 0, 64, 88
1, 176014, Control_c, 0, 64, 88
1, 176020, Note_on_c, 0, 55, 35
1, 176059, Control_c, 0, 64, 89
1, 176176, Note_off_c, 0, 55, 41
1, 176210, Note_on_c, 0, 52, 37
1, 176257, Note_off_c, 0, 59, 36
1, 176313, Note_on_c, 0, 64, 35
1, 176356, Note_off_c, 0, 64, 46
1, 176369, Note_on_c, 0, 67, 42
1, 176381, Note_off_c, 0, 52, 37
1, 176396, Note_on_c, 0, 55, 37
1, 176397, Note_off_c, 0, 67, 62
1, 176415, Control_c, 0, 64, 88
1, 176417, Note_on_c, 0, 71, 61
1, 176459, Control_c, 0, 64, 88
1, 176474, Control_c, 0, 64, 87
1, 176481, Note_on_c, 0, 67, 55
1, 176489, Control_c, 0, 64, 86
1, 176505, Note_off_c, 0, 71, 37
1, 176511, Control_c, 0, 64, 85
1, 176526, Control_c, 0, 64, 84
1, 176537, Note_off_c, 0, 67, 52
1, 176541, Control_c, 0, 64, 81
1, 176548, Note_on_c, 0, 64, 52
1, 176556, Control_c, 0, 64, 78
1, 176571, Control_c, 0, 64, 70
1, 176581, Note_off_c, 0, 55, 36
1, 176585, Control_c, 0, 64, 61
1, 176591, Note_on_c, 0, 45, 35
1, 176600, Control_c, 0, 64, 44
1, 176614, Note_on_c, 0, 54, 35
1, 176615, Control_c, 0, 64, 0
1, 176644, Note_off_c, 0, 64, 58
1, 176668, Note_on_c, 0, 62, 46
1, 176718, Control_c, 0, 64, 41
1, 176733, Control_c, 0, 64, 56
1, 176748, Control_c, 0, 64, 63
1, 176763, Control_c, 0, 64, 67
1, 176777, Control_c, 0, 64, 70
1, 176791, Note_off_c, 0, 45, 38
1, 176792, Control_c, 0, 64, 73
1, 176807, Control_c, 0, 64, 74
1, 176822, Control_c, 0, 64, 75
1, 176837, Control_c, 0, 64, 77
1, 176852, Control_c, 0, 64, 78
1, 176867, Control_c, 0, 64, 80
1, 176882, Control_c, 0, 64, 82
1, 176897, Control_c, 0, 64, 83
1, 176911, Note_off_c, 0, 54, 41
1, 176912, Control_c, 0, 64, 84
1, 176926, Control_c, 0, 64, 85
1, 176941, Control_c, 0, 64, 86
1, 176944, Note_on_c, 0, 57, 36
1, 176956, Control_c, 0, 64, 86
1, 176971, Control_c, 0, 64, 87
1, 177139, Note_off_c, 0, 57, 40
1, 177161, Note_off_c, 0, 62, 31
1, 177164, Control_c, 0, 64, 86
1, 177179, Control_c, 0, 64, 85
1, 177184, Note_on_c, 0, 66, 42
1, 177187, Note_on_c, 0, 55, 24
1, 177194, Control_c, 0, 64, 84
1, 177203, Note_on_c, 0, 61, 26
1, 177208, Control_c, 0, 64, 84
1, 177223, Control_c, 0, 64, 83
1, 177238, Control_c, 0, 64, 82
1, 177260, Control_c, 0, 64, 80
1, 177275, Control_c, 0, 64, 78
1, 177290, Control_c, 0, 64, 75
1, 177305, Control_c, 0, 64, 72
1, 177320, Control_c, 0, 64, 69
1, 177334, Control_c, 0, 64, 65
1, 177349, Control_c, 0, 64, 61
1, 177364, Control_c, 0, 64, 56
1, 177379, Control_c, 0, 64, 54
1, 177394, Control_c, 0, 64, 53
1, 177423, Control_c, 0, 64, 53
1, 177438, Control_c, 0, 64, 52
1, 177445, Note_on_c, 0, 64, 40
1, 177452, Note_on_c, 0, 57, 21
1, 177452, Control_c, 0, 64, 51
1, 177467, Control_c, 0, 64, 50
1, 177482, Control_c, 0, 64, 49
1, 177497, Control_c, 0, 64, 47
1, 177512, Control_c, 0, 64, 45
1, 177520, Note_off_c, 0, 66, 30
1, 177526, Control_c, 0, 64, 42
1, 177541, Control_c, 0, 64, 40
1, 177556, Control_c, 0, 64, 39
1, 177585, Control_c, 0, 64, 38
1, 177600, Control_c, 0, 64, 38
1, 177615, Control_c, 0, 64, 37
1, 177630, Control_c, 0, 64, 36
1, 177645, Control_c, 0, 64, 35
1, 177660, Control_c, 0, 64, 33
1, 177675, Control_c, 0, 64, 0
1, 177723, Note_on_c, 0, 54, 23
1, 177726, Note_off_c, 0, 61, 34
1, 177730, Note_on_c, 0, 50, 21
1, 177740, Note_on_c, 0, 62, 35
1, 177755, Note_off_c, 0, 64, 34
1, 177834, Note_off_c, 0, 57, 33
1, 177872, Note_off_c, 0, 55, 41
1, 177913, Control_c, 0, 64, 46
1, 177928, Control_c, 0, 64, 58
1, 177942, Control_c, 0, 64, 62
1, 177957, Control_c, 0, 64, 64
1, 177972, Control_c, 0, 64, 66
1, 177987, Control_c, 0, 64, 68
1, 178009, Control_c, 0, 64, 71
1, 178023, Control_c, 0, 64, 73
1, 178034, Note_off_c, 0, 50, 38
1, 178038, Control_c, 0, 64, 75
1, 178053, Control_c, 0, 64, 77
1, 178068, Control_c, 0, 64, 81
1, 178083, Control_c, 0, 64, 85
1, 178098, Control_c, 0, 64, 90
1, 178113, Control_c, 0, 64, 95
1, 178128, Control_c, 0, 64, 98
1, 178143, Control_c, 0, 64, 101
1, 178148, Note_off_c, 0, 54, 33
1, 178149, Note_off_c, 0, 62, 35
1, 178157, Control_c, 0, 64, 103
1, 178172, Control_c, 0, 64, 106
1, 178201, Control_c, 0, 64, 108
1, 178305, Control_c, 0, 67, 120
1, 178320, Control_c, 0, 64, 106
1, 178320, Control_c, 0, 67, 114
1, 178335, Control_c, 0, 64, 102
1, 178335, Control_c, 0, 67, 107
1, 178349, Control_c, 0, 64, 98
1, 178349, Control_c, 0, 67, 100
1, 178364, Control_c, 0, 64, 91
1, 178364, Control_c, 0, 67, 95
1, 178379, Control_c, 0, 64, 86
1, 178379, Control_c, 0, 67, 89
1, 178394, Control_c, 0, 64, 81
1, 178394, Control_c, 0, 67, 82
1, 178408, Control_c, 0, 64, 76
1, 178408, Control_c, 0, 67, 74
1, 178423, Control_c, 0, 64, 69
1, 178423, Control_c, 0, 67, 65
1, 178438, Control_c, 0, 64, 62
1, 178438, Control_c, 0, 67, 56
1, 178453, Control_c, 0, 64, 52
1, 178453, Control_c, 0, 67, 43
1, 178468, Control_c, 0, 64, 46
1, 178468, Control_c, 0, 67, 30
1, 178484, Control_c, 0, 64, 44
1, 178484, Control_c, 0, 67, 0
1, 178498, Control_c, 0, 64, 41
1, 178513, Control_c, 0, 64, 33
1, 178528, Control_c, 0, 64, 0
1, 178712, Note_on_c, 0, 69, 27
1, 178997, Note_on_c, 0, 68, 46
1, 179047, Note_off_c, 0, 69, 40
1, 179237, Note_on_c, 0, 69, 63
1, 179276, Note_off_c, 0, 68, 58
1, 179465, Note_on_c, 0, 71, 67
1, 179507, Note_off_c, 0, 69, 62
1, 179610, Control_c, 0, 64, 35
1, 179625, Control_c, 0, 64, 45
1, 179640, Control_c, 0, 64, 55
1, 179654, Control_c, 0, 64, 62
1, 179669, Control_c, 0, 64, 65
1, 179681, Note_off_c, 0, 71, 62
1, 179684, Control_c, 0, 64, 69
1, 179690, Note_on_c, 0, 69, 64
1, 179699, Control_c, 0, 64, 73
1, 179714, Control_c, 0, 64, 78
1, 179728, Control_c, 0, 64, 83
1, 179743, Control_c, 0, 64, 90
1, 179758, Control_c, 0, 64, 99
1, 179773, Control_c, 0, 64, 111
1, 179788, Control_c, 0, 64, 127
1, 179806, Note_off_c, 0, 69, 55
1, 179979, Note_on_c, 0, 79, 73
1, 179979, Note_on_c, 0, 61, 46
1, 179980, Control_c, 0, 64, 114
1, 179983, Note_on_c, 0, 69, 40
1, 179993, Note_on_c, 0, 76, 55
1, 179995, Control_c, 0, 64, 98
1, 180010, Control_c, 0, 64, 86
1, 180014, Note_off_c, 0, 76, 61
1, 180025, Control_c, 0, 64, 75
1, 180028, Note_off_c, 0, 61, 58
1, 180034, Note_off_c, 0, 69, 50
1, 180039, Note_off_c, 0, 79, 47
1, 180040, Control_c, 0, 64, 64
1, 180054, Control_c, 0, 64, 46
1, 180070, Control_c, 0, 64, 0
1, 180250, Note_on_c, 0, 61, 42
1, 180251, Note_on_c, 0, 79, 63
1, 180262, Note_on_c, 0, 69, 37
1, 180262, Note_on_c, 0, 76, 49
1, 180278, Note_off_c, 0, 61, 58
1, 180285, Note_off_c, 0, 79, 62
1, 180286, Note_off_c, 0, 76, 60
1, 180290, Note_off_c, 0, 69, 57
1, 180331, Control_c, 0, 67, 20
1, 180346, Control_c, 0, 67, 22
1, 180360, Control_c, 0, 67, 26
1, 180375, Control_c, 0, 67, 31
1, 180390, Control_c, 0, 67, 39
1, 180404, Control_c, 0, 67, 51
1, 180419, Control_c, 0, 64, 45
1, 180419, Control_c, 0, 67, 67
1, 180434, Control_c, 0, 64, 57
1, 180434, Control_c, 0, 67, 83
1, 180449, Control_c, 0, 64, 64
1, 180449, Control_c, 0, 67, 98
1, 180464, Control_c, 0, 64, 68
1, 180464, Control_c, 0, 67, 111
1, 180478, Control_c, 0, 64, 72
1, 180478, Control_c, 0, 67, 125
1, 180493, Control_c, 0, 64, 76
1, 180493, Control_c, 0, 67, 127
1, 180508, Control_c, 0, 64, 80
1, 180523, Control_c, 0, 64, 83
1, 180538, Control_c, 0, 64, 87
1, 180552, Control_c, 0, 64, 91
1, 180567, Control_c, 0, 64, 94
1, 180582, Control_c, 0, 64, 97
1, 180596, Control_c, 0, 64, 100
1, 180611, Control_c, 0, 64, 103
1, 180626, Control_c, 0, 64, 105
1, 180641, Control_c, 0, 64, 107
1, 180656, Control_c, 0, 64, 110
1, 180670, Control_c, 0, 64, 112
1, 180700, Control_c, 0, 64, 114
1, 180733, Note_on_c, 0, 69, 39
1, 180778, Note_off_c, 0, 69, 45
1, 180939, Control_c, 0, 64, 112
1, 180954, Control_c, 0, 64, 101
1, 180968, Control_c, 0, 64, 90
1, 180983, Control_c, 0, 64, 79
1, 180983, Note_on_c, 0, 78, 54
1, 180989, Note_on_c, 0, 62, 37
1, 180998, Note_on_c, 0, 69, 39
1, 181005, Control_c, 0, 64, 68
1, 181014, Note_on_c, 0, 74, 37
1, 181019, Control_c, 0, 64, 58
1, 181031, Note_off_c, 0, 62, 52
1, 181033, Note_off_c, 0, 78, 56
1, 181034, Note_off_c, 0, 69, 55
1, 181034, Control_c, 0, 64, 0
1, 181049, Note_off_c, 0, 74, 51
1, 181247, Note_on_c, 0, 78, 52
1, 181250, Note_on_c, 0, 62, 33
1, 181257, Note_on_c, 0, 74, 37
1, 181261, Note_on_c, 0, 69, 22
1, 181281, Note_off_c, 0, 78, 65
1, 181282, Note_off_c, 0, 62, 58
1, 181285, Note_off_c, 0, 74, 59
1, 181292, Note_off_c, 0, 69, 51
1, 181419, Control_c, 0, 64, 40
1, 181434, Control_c, 0, 64, 55
1, 181449, Control_c, 0, 64, 64
1, 181464, Control_c, 0, 64, 68
1, 181479, Control_c, 0, 64, 72
1, 181493, Control_c, 0, 64, 77
1, 181508, Control_c, 0, 64, 82
1, 181523, Control_c, 0, 64, 86
1, 181538, Control_c, 0, 64, 90
1, 181553, Control_c, 0, 64, 96
1, 181568, Control_c, 0, 64, 101
1, 181583, Control_c, 0, 64, 103
1, 181702, Control_c, 0, 64, 105
1, 181756, Note_on_c, 0, 69, 35
1, 181862, Note_off_c, 0, 69, 36
1, 181902, Control_c, 0, 64, 102
1, 181917, Control_c, 0, 64, 99
1, 181931, Control_c, 0, 64, 93
1, 181946, Control_c, 0, 64, 85
1, 181961, Control_c, 0, 64, 78
1, 181976, Control_c, 0, 64, 72
1, 181991, Control_c, 0, 64, 65
1, 182006, Control_c, 0, 64, 57
1, 182014, Note_on_c, 0, 57, 38
1, 182014, Note_on_c, 0, 69, 36
1, 182021, Control_c, 0, 64, 46
1, 182028, Note_on_c, 0, 76, 48
1, 182029, Note_on_c, 0, 73, 41
1, 182036, Control_c, 0, 64, 38
1, 182048, Note_off_c, 0, 69, 55
1, 182050, Control_c, 0, 64, 0
1, 182051, Note_off_c, 0, 57, 51
1, 182063, Note_off_c, 0, 73, 58
1, 182066, Note_off_c, 0, 76, 56
1, 182286, Note_on_c, 0, 57, 25
1, 182291, Note_on_c, 0, 73, 32
1, 182292, Note_on_c, 0, 76, 38
1, 182296, Note_on_c, 0, 69, 33
1, 182324, Note_off_c, 0, 76, 55
1, 182327, Note_off_c, 0, 57, 52
1, 182332, Note_off_c, 0, 69, 62
1, 182334, Note_off_c, 0, 73, 55
1, 182769, Control_c, 0, 67, 122
1, 182772, Note_on_c, 0, 69, 32
1, 182784, Control_c, 0, 67, 115
1, 182798, Control_c, 0, 67, 109
1, 182813, Control_c, 0, 67, 103
1, 182828, Control_c, 0, 67, 97
1, 182843, Control_c, 0, 67, 91
1, 182858, Control_c, 0, 67, 86
1, 182872, Control_c, 0, 67, 82
1, 182887, Control_c, 0, 67, 78
1, 182902, Control_c, 0, 67, 73
1, 182916, Control_c, 0, 67, 67
1, 182931, Control_c, 0, 67, 58
1, 182946, Control_c, 0, 67, 50
1, 182961, Control_c, 0, 67, 42
1, 182976, Control_c, 0, 67, 32
1, 182990, Control_c, 0, 67, 22
1, 183005, Control_c, 0, 67, 0
1, 183014, Note_off_c, 0, 69, 50
1, 183019, Note_on_c, 0, 68, 49
1, 183265, Note_on_c, 0, 69, 65
1, 183337, Note_off_c, 0, 68, 51
1, 183495, Note_on_c, 0, 71, 72
1, 183529, Note_off_c, 0, 69, 61
1, 183592, Control_c, 0, 64, 40
1, 183607, Control_c, 0, 64, 50
1, 183622, Control_c, 0, 64, 60
1, 183636, Control_c, 0, 64, 66
1, 183651, Control_c, 0, 64, 71
1, 183666, Control_c, 0, 64, 78
1, 183681, Control_c, 0, 64, 87
1, 183696, Control_c, 0, 64, 96
1, 183711, Control_c, 0, 64, 107
1, 183714, Note_on_c, 0, 69, 75
1, 183726, Control_c, 0, 64, 127
1, 183926, Note_off_c, 0, 71, 0
1, 183973, Note_on_c, 0, 67, 64
1, 183974, Note_on_c, 0, 49, 45
1, 183992, Note_on_c, 0, 64, 56
1, 183997, Note_off_c, 0, 69, 58
1, 183997, Note_on_c, 0, 57, 37
1, 183999, Poly_aftertouch_c, 0, 71, 0
1, 184015, Control_c, 0, 64, 100
1, 184029, Control_c, 0, 64, 86
1, 184031, Note_off_c, 0, 64, 61
1, 184034, Note_off_c, 0, 49, 55
1, 184035, Note_off_c, 0, 57, 54
1, 184035, Note_off_c, 0, 67, 62
1, 184044, Control_c, 0, 64, 73
1, 184059, Control_c, 0, 64, 64
1, 184075, Control_c, 0, 64, 49
1, 184090, Control_c, 0, 64, 0
1, 184260, Note_on_c, 0, 67, 61
1, 184264, Note_on_c, 0, 49, 40
1, 184265, Note_on_c, 0, 64, 54
1, 184265, Note_on_c, 0, 57, 41
1, 184295, Note_off_c, 0, 49, 58
1, 184299, Note_off_c, 0, 57, 55
1, 184300, Note_off_c, 0, 67, 64
1, 184303, Note_off_c, 0, 64, 62
1, 184474, Control_c, 0, 64, 39
1, 184489, Control_c, 0, 64, 53
1, 184504, Control_c, 0, 64, 60
1, 184504, Control_c, 0, 67, 20
1, 184519, Control_c, 0, 64, 64
1, 184519, Control_c, 0, 67, 23
1, 184534, Control_c, 0, 64, 67
1, 184534, Control_c, 0, 67, 27
1, 184549, Control_c, 0, 64, 69
1, 184549, Control_c, 0, 67, 33
1, 184563, Control_c, 0, 64, 73
1, 184563, Control_c, 0, 67, 40
1, 184578, Control_c, 0, 64, 78
1, 184578, Control_c, 0, 67, 50
1, 184593, Control_c, 0, 64, 84
1, 184593, Control_c, 0, 67, 61
1, 184608, Control_c, 0, 64, 90
1, 184608, Control_c, 0, 67, 72
1, 184623, Control_c, 0, 64, 96
1, 184623, Control_c, 0, 67, 83
1, 184637, Control_c, 0, 64, 102
1, 184637, Control_c, 0, 67, 93
1, 184652, Control_c, 0, 64, 106
1, 184652, Control_c, 0, 67, 104
1, 184667, Control_c, 0, 64, 109
1, 184667, Control_c, 0, 67, 113
1, 184681, Control_c, 0, 64, 114
1, 184681, Control_c, 0, 67, 121
1, 184696, Control_c, 0, 64, 122
1, 184696, Control_c, 0, 67, 127
1, 184711, Control_c, 0, 64, 127
1, 184740, Note_on_c, 0, 69, 57
1, 184942, Control_c, 0, 64, 117
1, 184957, Control_c, 0, 64, 108
1, 184972, Control_c, 0, 64, 101
1, 184987, Control_c, 0, 64, 95
1, 185001, Control_c, 0, 64, 89
1, 185008, Note_on_c, 0, 66, 49
1, 185016, Note_on_c, 0, 50, 34
1, 185016, Note_off_c, 0, 69, 37
1, 185016, Control_c, 0, 64, 82
1, 185018, Note_on_c, 0, 62, 46
1, 185021, Note_on_c, 0, 57, 40
1, 185031, Control_c, 0, 64, 76
1, 185046, Control_c, 0, 64, 69
1, 185060, Note_off_c, 0, 50, 48
1, 185061, Control_c, 0, 64, 61
1, 185063, Note_off_c, 0, 57, 58
1, 185068, Note_off_c, 0, 66, 52
1, 185075, Control_c, 0, 64, 47
1, 185076, Note_off_c, 0, 62, 53
1, 185090, Control_c, 0, 64, 0
1, 185307, Note_on_c, 0, 66, 43
1, 185311, Note_on_c, 0, 50, 33
1, 185316, Note_on_c, 0, 62, 35
1, 185323, Note_on_c, 0, 57, 31
1, 185357, Note_off_c, 0, 50, 57
1, 185357, Note_off_c, 0, 66, 58
1, 185363, Note_off_c, 0, 57, 51
1, 185371, Note_off_c, 0, 62, 58
1, 185498, Control_c, 0, 64, 34
1, 185512, Control_c, 0, 64, 46
1, 185527, Control_c, 0, 64, 55
1, 185542, Control_c, 0, 64, 61
1, 185557, Control_c, 0, 64, 64
1, 185572, Control_c, 0, 64, 67
1, 185586, Control_c, 0, 64, 69
1, 185601, Control_c, 0, 64, 73
1, 185616, Control_c, 0, 64, 78
1, 185631, Control_c, 0, 64, 84
1, 185646, Control_c, 0, 64, 89
1, 185662, Control_c, 0, 64, 94
1, 185677, Control_c, 0, 64, 98
1, 185691, Control_c, 0, 64, 102
1, 185706, Control_c, 0, 64, 106
1, 185721, Control_c, 0, 64, 110
1, 185736, Control_c, 0, 64, 115
1, 185750, Control_c, 0, 64, 120
1, 185765, Control_c, 0, 64, 127
1, 185836, Note_on_c, 0, 69, 39
1, 186090, Control_c, 0, 64, 117
1, 186105, Control_c, 0, 64, 109
1, 186120, Control_c, 0, 64, 101
1, 186129, Note_on_c, 0, 64, 35
1, 186132, Note_on_c, 0, 45, 32
1, 186134, Note_on_c, 0, 61, 37
1, 186134, Control_c, 0, 64, 90
1, 186144, Note_on_c, 0, 57, 23
1, 186149, Control_c, 0, 64, 80
1, 186153, Note_off_c, 0, 69, 33
1, 186164, Control_c, 0, 64, 71
1, 186173, Note_off_c, 0, 45, 51
1, 186178, Note_off_c, 0, 64, 44
1, 186179, Control_c, 0, 64, 63
1, 186184, Note_off_c, 0, 61, 48
1, 186188, Note_off_c, 0, 57, 50
1, 186194, Control_c, 0, 64, 52
1, 186209, Control_c, 0, 64, 41
1, 186224, Control_c, 0, 64, 36
1, 186246, Control_c, 0, 64, 0
1, 186465, Note_on_c, 0, 45, 25
1, 186472, Note_on_c, 0, 61, 34
1, 186478, Note_on_c, 0, 64, 14
1, 186500, Poly_aftertouch_c, 0, 57, 127
1, 186508, Note_off_c, 0, 45, 50
1, 186531, Poly_aftertouch_c, 0, 57, 0
1, 186546, Note_off_c, 0, 64, 42
1, 186555, Note_off_c, 0, 61, 54
1, 187061, Note_on_c, 0, 68, 35
1, 187222, Note_off_c, 0, 68, 45
1, 187225, Note_on_c, 0, 71, 39
1, 187306, Note_off_c, 0, 71, 62
1, 187356, Note_on_c, 0, 69, 45
1, 187464, Note_on_c, 0, 73, 56
1, 187472, Note_off_c, 0, 69, 52
1, 187580, Note_off_c, 0, 73, 58
1, 187589, Note_on_c, 0, 71, 54
1, 187673, Note_off_c, 0, 71, 62
1, 187683, Note_on_c, 0, 74, 61
1, 187790, Note_on_c, 0, 73, 66
1, 187795, Note_off_c, 0, 74, 57
1, 187818, Control_c, 0, 64, 38
1, 187833, Control_c, 0, 64, 48
1, 187848, Control_c, 0, 64, 57
1, 187862, Control_c, 0, 64, 62
1, 187877, Control_c, 0, 64, 64
1, 187892, Control_c, 0, 64, 66
1, 187899, Note_on_c, 0, 76, 63
1, 187899, Note_off_c, 0, 73, 58
1, 187907, Control_c, 0, 64, 68
1, 187921, Control_c, 0, 64, 72
1, 187936, Control_c, 0, 64, 76
1, 187947, Note_off_c, 0, 76, 61
1, 187951, Control_c, 0, 64, 81
1, 187966, Control_c, 0, 64, 86
1, 187981, Control_c, 0, 64, 91
1, 187995, Control_c, 0, 64, 95
1, 187997, Note_on_c, 0, 74, 61
1, 188010, Control_c, 0, 64, 98
1, 188025, Control_c, 0, 64, 100
1, 188071, Control_c, 0, 64, 102
1, 188100, Control_c, 0, 67, 116
1, 188115, Control_c, 0, 67, 104
1, 188129, Note_on_c, 0, 78, 65
1, 188129, Control_c, 0, 67, 87
1, 188144, Control_c, 0, 67, 72
1, 188159, Control_c, 0, 67, 57
1, 188163, Note_off_c, 0, 74, 56
1, 188174, Control_c, 0, 67, 43
1, 188189, Control_c, 0, 67, 29
1, 188203, Control_c, 0, 67, 0
1, 188233, Control_c, 0, 64, 98
1, 188236, Note_on_c, 0, 76, 71
1, 188248, Control_c, 0, 64, 95
1, 188263, Control_c, 0, 64, 91
1, 188268, Note_off_c, 0, 78, 60
1, 188278, Control_c, 0, 64, 87
1, 188293, Control_c, 0, 64, 84
1, 188308, Note_on_c, 0, 62, 34
1, 188308, Control_c, 0, 64, 81
1, 188322, Control_c, 0, 64, 77
1, 188337, Control_c, 0, 64, 72
1, 188352, Control_c, 0, 64, 67
1, 188367, Control_c, 0, 64, 63
1, 188382, Control_c, 0, 64, 59
1, 188397, Control_c, 0, 64, 56
1, 188412, Control_c, 0, 64, 55
1, 188427, Control_c, 0, 64, 55
1, 188442, Control_c, 0, 64, 54
1, 188456, Control_c, 0, 64, 52
1, 188471, Control_c, 0, 64, 49
1, 188493, Control_c, 0, 64, 44
1, 188496, Note_on_c, 0, 79, 62
1, 188508, Note_off_c, 0, 76, 58
1, 188508, Control_c, 0, 64, 38
1, 188523, Control_c, 0, 64, 0
1, 188726, Note_on_c, 0, 78, 53
1, 188788, Note_off_c, 0, 79, 54
1, 188845, Note_on_c, 0, 69, 43
1, 188909, Control_c, 0, 64, 39
1, 188924, Control_c, 0, 64, 53
1, 188939, Control_c, 0, 64, 62
1, 188953, Control_c, 0, 64, 65
1, 188968, Control_c, 0, 64, 68
1, 188983, Control_c, 0, 64, 72
1, 188998, Control_c, 0, 64, 79
1, 189013, Control_c, 0, 64, 89
1, 189027, Control_c, 0, 64, 104
1, 189042, Control_c, 0, 64, 127
1, 189062, Note_on_c, 0, 66, 45
1, 189066, Note_off_c, 0, 69, 38
1, 189147, Note_off_c, 0, 78, 57
1, 189225, Note_off_c, 0, 62, 54
1, 189271, Note_on_c, 0, 69, 41
1, 189442, Note_off_c, 0, 69, 27
1, 189470, Note_on_c, 0, 62, 26
1, 189504, Note_on_c, 0, 78, 75
1, 189661, Note_off_c, 0, 78, 57
1, 189706, Note_off_c, 0, 66, 40
1, 189723, Note_on_c, 0, 69, 36
1, 189906, Note_off_c, 0, 69, 34
1, 189942, Note_on_c, 0, 66, 32
1, 189951, Note_on_c, 0, 78, 76
1, 190090, Note_off_c, 0, 62, 40
1, 190155, Note_on_c, 0, 69, 38
1, 190360, Note_off_c, 0, 69, 36
1, 190403, Note_on_c, 0, 62, 24
1, 190451, Note_on_c, 0, 67, 25
1, 190476, Note_on_c, 0, 76, 70
1, 190492, Note_off_c, 0, 66, 40
1, 190509, Control_c, 0, 64, 94
1, 190524, Control_c, 0, 64, 72
1, 190534, Note_off_c, 0, 78, 60
1, 190538, Control_c, 0, 64, 58
1, 190553, Control_c, 0, 64, 36
1, 190568, Control_c, 0, 64, 0
1, 190584, Control_c, 0, 64, 39
1, 190599, Control_c, 0, 64, 49
1, 190613, Control_c, 0, 64, 56
1, 190628, Control_c, 0, 64, 64
1, 190643, Control_c, 0, 64, 71
1, 190657, Control_c, 0, 64, 81
1, 190672, Control_c, 0, 64, 93
1, 190687, Control_c, 0, 64, 104
1, 190702, Control_c, 0, 64, 127
1, 190823, Note_on_c, 0, 73, 44
1, 190882, Note_on_c, 0, 81, 68
1, 190895, Note_off_c, 0, 76, 61
1, 190967, Note_on_c, 0, 79, 74
1, 191001, Note_off_c, 0, 79, 60
1, 191076, Note_on_c, 0, 64, 35
1, 191084, Note_on_c, 0, 79, 79
1, 191090, Note_off_c, 0, 73, 41
1, 191095, Note_off_c, 0, 67, 39
1, 191110, Control_c, 0, 64, 88
1, 191111, Note_off_c, 0, 81, 56
1, 191124, Control_c, 0, 64, 65
1, 191139, Control_c, 0, 64, 43
1, 191154, Control_c, 0, 64, 0
1, 191169, Control_c, 0, 64, 35
1, 191184, Control_c, 0, 64, 45
1, 191198, Control_c, 0, 64, 54
1, 191213, Control_c, 0, 64, 62
1, 191228, Control_c, 0, 64, 70
1, 191243, Control_c, 0, 64, 79
1, 191259, Control_c, 0, 64, 91
1, 191273, Control_c, 0, 64, 105
1, 191288, Control_c, 0, 64, 127
1, 191324, Note_on_c, 0, 73, 42
1, 191369, Note_off_c, 0, 64, 35
1, 191522, Note_off_c, 0, 73, 43
1, 191530, Note_on_c, 0, 64, 45
1, 191730, Note_on_c, 0, 73, 49
1, 191885, Note_off_c, 0, 73, 48
1, 191888, Control_c, 0, 64, 86
1, 191894, Note_off_c, 0, 64, 51
1, 191903, Control_c, 0, 64, 69
1, 191917, Control_c, 0, 64, 56
1, 191924, Note_on_c, 0, 78, 72
1, 191926, Note_on_c, 0, 66, 40
1, 191932, Control_c, 0, 64, 53
1, 191947, Control_c, 0, 64, 56
1, 191962, Control_c, 0, 64, 60
1, 191977, Control_c, 0, 64, 63
1, 191983, Note_off_c, 0, 79, 57
1, 191992, Control_c, 0, 64, 68
1, 191993, Note_off_c, 0, 62, 42
1, 192006, Control_c, 0, 64, 76
1, 192021, Control_c, 0, 64, 89
1, 192036, Control_c, 0, 64, 104
1, 192052, Control_c, 0, 64, 127
1, 192162, Note_on_c, 0, 74, 44
1, 192189, Note_off_c, 0, 74, 50
1, 192189, Note_off_c, 0, 66, 61
1, 192433, Note_on_c, 0, 55, 37
1, 192511, Note_on_c, 0, 71, 68
1, 192533, Control_c, 0, 64, 94
1, 192548, Control_c, 0, 64, 75
1, 192563, Control_c, 0, 64, 62
1, 192567, Note_off_c, 0, 78, 61
1, 192577, Control_c, 0, 64, 37
1, 192592, Control_c, 0, 64, 0
1, 192622, Control_c, 0, 64, 45
1, 192636, Control_c, 0, 64, 54
1, 192651, Control_c, 0, 64, 62
1, 192666, Control_c, 0, 64, 69
1, 192681, Control_c, 0, 64, 79
1, 192696, Control_c, 0, 64, 90
1, 192710, Control_c, 0, 64, 101
1, 192711, Note_off_c, 0, 55, 40
1, 192725, Control_c, 0, 64, 124
1, 192740, Control_c, 0, 64, 127
1, 192745, Poly_aftertouch_c, 0, 58, 127
1, 192777, Poly_aftertouch_c, 0, 58, 0
1, 192781, Note_on_c, 0, 67, 36
1, 192938, Note_off_c, 0, 67, 35
1, 192939, Note_on_c, 0, 64, 42
1, 193038, Note_on_c, 0, 76, 65
1, 193044, Note_off_c, 0, 71, 50
1, 193100, Note_on_c, 0, 79, 70
1, 193101, Note_off_c, 0, 76, 63
1, 193118, Note_on_c, 0, 67, 39
1, 193123, Note_off_c, 0, 64, 42
1, 193146, Note_off_c, 0, 79, 65
1, 193147, Note_on_c, 0, 83, 76
1, 193213, Note_on_c, 0, 79, 77
1, 193277, Note_off_c, 0, 83, 56
1, 193280, Note_on_c, 0, 76, 80
1, 193310, Note_on_c, 0, 57, 44
1, 193313, Note_off_c, 0, 79, 63
1, 193326, Control_c, 0, 64, 111
1, 193331, Note_off_c, 0, 67, 39
1, 193341, Control_c, 0, 64, 83
1, 193356, Control_c, 0, 64, 66
1, 193371, Control_c, 0, 64, 39
1, 193385, Control_c, 0, 64, 0
1, 193394, Note_off_c, 0, 76, 62
1, 193395, Note_on_c, 0, 74, 81
1, 193445, Control_c, 0, 64, 45
1, 193459, Control_c, 0, 64, 60
1, 193474, Control_c, 0, 64, 67
1, 193489, Control_c, 0, 64, 74
1, 193504, Control_c, 0, 64, 81
1, 193519, Control_c, 0, 64, 88
1, 193533, Control_c, 0, 64, 93
1, 193548, Control_c, 0, 64, 98
1, 193557, Note_off_c, 0, 57, 58
1, 193563, Control_c, 0, 64, 104
1, 193578, Control_c, 0, 64, 110
1, 193593, Control_c, 0, 64, 120
1, 193608, Control_c, 0, 64, 127
1, 193640, Note_on_c, 0, 66, 56
1, 193827, Note_off_c, 0, 66, 33
1, 193873, Note_on_c, 0, 58, 38
1, 193912, Control_c, 0, 64, 124
1, 193916, Note_on_c, 0, 78, 78
1, 193918, Note_off_c, 0, 74, 47
1, 193927, Control_c, 0, 64, 84
1, 193938, Note_on_c, 0, 73, 47
1, 193942, Control_c, 0, 64, 66
1, 193956, Control_c, 0, 64, 42
1, 193971, Control_c, 0, 64, 0
1, 194001, Control_c, 0, 64, 42
1, 194016, Control_c, 0, 64, 54
1, 194031, Control_c, 0, 64, 63
1, 194046, Control_c, 0, 64, 70
1, 194061, Control_c, 0, 64, 77
1, 194075, Control_c, 0, 64, 85
1, 194090, Control_c, 0, 64, 91
1, 194105, Control_c, 0, 64, 96
1, 194120, Control_c, 0, 64, 102
1, 194135, Control_c, 0, 64, 108
1, 194138, Note_off_c, 0, 58, 58
1, 194149, Control_c, 0, 64, 117
1, 194164, Control_c, 0, 64, 127
1, 194168, Note_on_c, 0, 67, 39
1, 194175, Note_on_c, 0, 76, 81
1, 194182, Note_off_c, 0, 73, 60
1, 194232, Note_off_c, 0, 78, 58
1, 194517, Note_on_c, 0, 59, 23
1, 194527, Note_on_c, 0, 66, 31
1, 194584, Note_on_c, 0, 74, 53
1, 194617, Control_c, 0, 64, 96
1, 194630, Note_off_c, 0, 67, 39
1, 194630, Note_off_c, 0, 76, 57
1, 194631, Control_c, 0, 64, 79
1, 194646, Control_c, 0, 64, 65
1, 194661, Control_c, 0, 64, 49
1, 194676, Control_c, 0, 64, 0
1, 194691, Control_c, 0, 67, 19
1, 194705, Control_c, 0, 67, 21
1, 194720, Control_c, 0, 67, 24
1, 194735, Control_c, 0, 67, 28
1, 194750, Control_c, 0, 67, 33
1, 194765, Control_c, 0, 64, 48
1, 194765, Control_c, 0, 67, 41
1, 194779, Control_c, 0, 64, 58
1, 194779, Control_c, 0, 67, 52
1, 194794, Control_c, 0, 64, 65
1, 194794, Control_c, 0, 67, 66
1, 194809, Control_c, 0, 64, 73
1, 194809, Control_c, 0, 67, 81
1, 194824, Control_c, 0, 64, 81
1, 194824, Control_c, 0, 67, 94
1, 194839, Control_c, 0, 64, 88
1, 194839, Control_c, 0, 67, 107
1, 194854, Control_c, 0, 64, 94
1, 194854, Control_c, 0, 67, 115
1, 194869, Control_c, 0, 64, 100
1, 194869, Control_c, 0, 67, 123
1, 194883, Control_c, 0, 64, 107
1, 194883, Control_c, 0, 67, 127
1, 194890, Note_off_c, 0, 59, 40
1, 194898, Control_c, 0, 64, 117
1, 194910, Note_off_c, 0, 66, 35
1, 194913, Control_c, 0, 64, 127
1, 194935, Note_off_c, 0, 74, 36
1, 195209, Control_c, 0, 64, 115
1, 195231, Control_c, 0, 64, 102
1, 195246, Control_c, 0, 64, 94
1, 195262, Control_c, 0, 64, 88
1, 195277, Control_c, 0, 64, 84
1, 195292, Control_c, 0, 64, 80
1, 195307, Control_c, 0, 64, 76
1, 195322, Control_c, 0, 64, 70
1, 195336, Control_c, 0, 64, 66
1, 195351, Control_c, 0, 64, 62
1, 195366, Control_c, 0, 64, 59
1, 195381, Control_c, 0, 64, 58
1, 195410, Control_c, 0, 64, 57
1, 195425, Control_c, 0, 64, 56
1, 195440, Control_c, 0, 64, 55
1, 195454, Control_c, 0, 64, 54
1, 195469, Control_c, 0, 64, 52
1, 195484, Control_c, 0, 64, 52
1, 195499, Control_c, 0, 64, 51
1, 195514, Control_c, 0, 64, 51
1, 195543, Control_c, 0, 64, 50
1, 195558, Control_c, 0, 64, 50
1, 195572, Control_c, 0, 64, 49
1, 195587, Control_c, 0, 64, 49
1, 195596, Note_on_c, 0, 78, 37
1, 195602, Control_c, 0, 64, 48
1, 195617, Control_c, 0, 64, 47
1, 195632, Control_c, 0, 64, 46
1, 195676, Control_c, 0, 64, 46
1, 195759, Note_on_c, 0, 76, 52
1, 195765, Control_c, 0, 64, 45
1, 195823, Note_off_c, 0, 78, 33
1, 195868, Note_off_c, 0, 76, 56
1, 195869, Note_on_c, 0, 74, 56
1, 195885, Control_c, 0, 64, 45
1, 195959, Control_c, 0, 64, 44
1, 195986, Note_off_c, 0, 74, 62
1, 195996, Note_on_c, 0, 73, 61
1, 196126, Note_on_c, 0, 76, 64
1, 196131, Note_off_c, 0, 73, 61
1, 196231, Note_on_c, 0, 74, 66
1, 196259, Note_off_c, 0, 76, 58
1, 196329, Note_off_c, 0, 74, 59
1, 196335, Note_on_c, 0, 71, 65
1, 196439, Note_off_c, 0, 71, 62
1, 196457, Note_on_c, 0, 70, 62
1, 196564, Note_off_c, 0, 70, 59
1, 196580, Note_on_c, 0, 73, 64
1, 196677, Control_c, 0, 64, 44
1, 196699, Note_on_c, 0, 71, 55
1, 196777, Note_off_c, 0, 73, 34
1, 196797, Note_on_c, 0, 67, 50
1, 196803, Control_c, 0, 64, 43
1, 196812, Note_off_c, 0, 71, 57
1, 196878, Control_c, 0, 64, 43
1, 196907, Control_c, 0, 64, 42
1, 196937, Control_c, 0, 64, 42
1, 196952, Control_c, 0, 64, 41
1, 196960, Note_on_c, 0, 50, 27
1, 196967, Control_c, 0, 64, 41
1, 196973, Note_on_c, 0, 66, 44
1, 196982, Control_c, 0, 64, 40
1, 196988, Note_off_c, 0, 67, 47
1, 196997, Control_c, 0, 64, 39
1, 197012, Control_c, 0, 64, 37
1, 197026, Control_c, 0, 64, 34
1, 197041, Control_c, 0, 64, 0
1, 197100, Control_c, 0, 64, 34
1, 197115, Control_c, 0, 64, 37
1, 197130, Control_c, 0, 64, 43
1, 197145, Control_c, 0, 64, 48
1, 197160, Control_c, 0, 64, 52
1, 197174, Control_c, 0, 64, 57
1, 197189, Control_c, 0, 64, 62
1, 197204, Control_c, 0, 64, 66
1, 197218, Control_c, 0, 64, 69
1, 197233, Control_c, 0, 64, 74
1, 197243, Note_on_c, 0, 57, 24
1, 197248, Control_c, 0, 64, 80
1, 197263, Control_c, 0, 64, 85
1, 197278, Control_c, 0, 64, 92
1, 197292, Control_c, 0, 64, 99
1, 197307, Control_c, 0, 64, 107
1, 197322, Control_c, 0, 64, 127
1, 197343, Note_off_c, 0, 66, 49
1, 197352, Control_c, 0, 67, 117
1, 197367, Control_c, 0, 67, 107
1, 197381, Control_c, 0, 67, 97
1, 197396, Control_c, 0, 67, 89
1, 197411, Control_c, 0, 67, 83
1, 197426, Control_c, 0, 67, 76
1, 197441, Control_c, 0, 67, 71
1, 197445, Note_on_c, 0, 54, 35
1, 197451, Note_off_c, 0, 57, 40
1, 197456, Control_c, 0, 67, 67
1, 197478, Control_c, 0, 67, 65
1, 197492, Control_c, 0, 67, 62
1, 197507, Control_c, 0, 67, 60
1, 197522, Control_c, 0, 67, 57
1, 197537, Control_c, 0, 67, 53
1, 197551, Control_c, 0, 67, 50
1, 197566, Control_c, 0, 67, 48
1, 197581, Control_c, 0, 67, 46
1, 197596, Control_c, 0, 67, 44
1, 197611, Control_c, 0, 67, 42
1, 197626, Control_c, 0, 67, 40
1, 197641, Control_c, 0, 67, 38
1, 197656, Control_c, 0, 67, 38
1, 197664, Note_off_c, 0, 50, 40
1, 197671, Control_c, 0, 67, 37
1, 197698, Note_on_c, 0, 57, 34
1, 197938, Control_c, 0, 64, 104
1, 197949, Note_on_c, 0, 50, 34
1, 197953, Control_c, 0, 64, 80
1, 197965, Note_on_c, 0, 66, 45
1, 197967, Control_c, 0, 64, 65
1, 197982, Control_c, 0, 64, 52
1, 197982, Control_c, 0, 67, 37
1, 197987, Note_off_c, 0, 57, 38
1, 197997, Control_c, 0, 64, 53
1, 197997, Control_c, 0, 67, 36
1, 198012, Control_c, 0, 64, 59
1, 198012, Control_c, 0, 67, 35
1, 198027, Control_c, 0, 64, 63
1, 198027, Control_c, 0, 67, 32
1, 198041, Control_c, 0, 64, 69
1, 198041, Control_c, 0, 67, 19
1, 198056, Control_c, 0, 64, 78
1, 198056, Control_c, 0, 67, 0
1, 198072, Control_c, 0, 64, 93
1, 198082, Note_off_c, 0, 66, 53
1, 198087, Control_c, 0, 64, 127
1, 198207, Note_on_c, 0, 66, 73
1, 198208, Note_off_c, 0, 54, 40
1, 198221, Note_on_c, 0, 57, 49
1, 198291, Note_off_c, 0, 66, 57
1, 198400, Note_off_c, 0, 57, 48
1, 198431, Note_on_c, 0, 66, 75
1, 198440, Note_on_c, 0, 54, 52
1, 198517, Note_off_c, 0, 66, 52
1, 198656, Note_off_c, 0, 50, 40
1, 198663, Note_on_c, 0, 66, 87
1, 198670, Note_on_c, 0, 57, 56
1, 198705, Note_off_c, 0, 57, 63
1, 198753, Note_off_c, 0, 54, 54
1, 198873, Note_on_c, 0, 50, 45
1, 198949, Note_on_c, 0, 55, 55
1, 199038, Note_on_c, 0, 64, 90
1, 199048, Note_on_c, 0, 61, 65
1, 199051, Control_c, 0, 64, 101
1, 199066, Control_c, 0, 64, 71
1, 199074, Note_off_c, 0, 66, 62
1, 199080, Control_c, 0, 64, 49
1, 199095, Control_c, 0, 64, 0
1, 199124, Control_c, 0, 64, 39
1, 199139, Control_c, 0, 64, 56
1, 199154, Control_c, 0, 64, 66
1, 199169, Control_c, 0, 64, 82
1, 199176, Note_off_c, 0, 61, 62
1, 199184, Control_c, 0, 64, 127
1, 199188, Note_off_c, 0, 50, 47
1, 199269, Note_off_c, 0, 55, 36
1, 199366, Note_on_c, 0, 69, 83
1, 199385, Note_off_c, 0, 64, 55
1, 199471, Note_on_c, 0, 67, 87
1, 199507, Note_off_c, 0, 69, 61
1, 199528, Note_off_c, 0, 67, 63
1, 199609, Note_on_c, 0, 67, 96
1, 199611, Note_on_c, 0, 61, 77
1, 199620, Note_on_c, 0, 50, 68
1, 199626, Note_on_c, 0, 52, 60
1, 199644, Control_c, 0, 64, 106
1, 199659, Control_c, 0, 64, 71
1, 199674, Control_c, 0, 64, 41
1, 199688, Control_c, 0, 64, 0
1, 199739, Control_c, 0, 64, 55
1, 199754, Control_c, 0, 64, 69
1, 199769, Control_c, 0, 64, 86
1, 199784, Control_c, 0, 64, 127
1, 199970, Note_off_c, 0, 50, 44
1, 199990, Note_off_c, 0, 67, 59
1, 199996, Note_off_c, 0, 52, 59
1, 200005, Note_off_c, 0, 61, 58
1, 200126, Control_c, 0, 64, 91
1, 200141, Control_c, 0, 64, 74
1, 200156, Control_c, 0, 64, 61
1, 200170, Control_c, 0, 64, 37
1, 200185, Control_c, 0, 64, 0
1, 200756, Control_c, 0, 64, 35
1, 200770, Control_c, 0, 64, 43
1, 200785, Control_c, 0, 64, 50
1, 200800, Control_c, 0, 64, 52
1, 200815, Control_c, 0, 64, 54
1, 200830, Control_c, 0, 64, 56
1, 200845, Control_c, 0, 64, 59
1, 200860, Control_c, 0, 64, 63
1, 200875, Control_c, 0, 64, 64
1, 200890, Control_c, 0, 64, 65
1, 200905, Control_c, 0, 64, 66
1, 200920, Control_c, 0, 64, 68
1, 200935, Control_c, 0, 64, 71
1, 200949, Control_c, 0, 64, 74
1, 200964, Control_c, 0, 64, 78
1, 200979, Control_c, 0, 64, 83
1, 200993, Control_c, 0, 64, 89
1, 201008, Control_c, 0, 64, 94
1, 201023, Control_c, 0, 64, 98
1, 201038, Control_c, 0, 64, 102
1, 201053, Control_c, 0, 64, 109
1, 201067, Control_c, 0, 64, 127
1, 201116, Note_on_c, 0, 50, 64
1, 201119, Note_on_c, 0, 62, 72
1, 201124, Note_on_c, 0, 57, 72
1, 201125, Note_on_c, 0, 66, 101
1, 201146, Note_off_c, 0, 50, 63
1, 201146, Note_off_c, 0, 62, 68
1, 201150, Note_off_c, 0, 57, 67
1, 201232, Note_off_c, 0, 66, 55
1, 201472, Note_on_c, 0, 74, 90
1, 201579, Note_on_c, 0, 72, 86
1, 201647, Note_off_c, 0, 72, 62
1, 201667, Note_off_c, 0, 74, 59
1, 201706, Note_on_c, 0, 72, 91
1, 201708, Note_on_c, 0, 50, 68
1, 201712, Note_on_c, 0, 57, 75
1, 201715, Note_on_c, 0, 54, 65
1, 201742, Control_c, 0, 64, 87
1, 201757, Control_c, 0, 64, 64
1, 201772, Control_c, 0, 64, 0
1, 201816, Control_c, 0, 64, 34
1, 201831, Control_c, 0, 64, 55
1, 201846, Control_c, 0, 64, 68
1, 201861, Control_c, 0, 64, 82
1, 201876, Control_c, 0, 64, 127
1, 202047, Note_off_c, 0, 50, 57
1, 202055, Note_off_c, 0, 57, 61
1, 202062, Note_off_c, 0, 54, 59
1, 202101, Note_off_c, 0, 72, 59
1, 202267, Control_c, 0, 64, 108
1, 202282, Control_c, 0, 64, 93
1, 202297, Control_c, 0, 64, 85
1, 202312, Control_c, 0, 64, 76
1, 202327, Control_c, 0, 64, 67
1, 202342, Control_c, 0, 64, 59
1, 202357, Control_c, 0, 64, 44
1, 202371, Control_c, 0, 64, 0
1, 202625, Control_c, 0, 64, 41
1, 202639, Control_c, 0, 64, 48
1, 202654, Control_c, 0, 64, 55
1, 202669, Control_c, 0, 64, 62
1, 202683, Control_c, 0, 64, 65
1, 202698, Control_c, 0, 64, 67
1, 202720, Control_c, 0, 64, 69
1, 202720, Control_c, 0, 67, 20
1, 202735, Control_c, 0, 64, 72
1, 202735, Control_c, 0, 67, 24
1, 202750, Control_c, 0, 64, 76
1, 202750, Control_c, 0, 67, 29
1, 202765, Control_c, 0, 64, 80
1, 202765, Control_c, 0, 67, 38
1, 202780, Control_c, 0, 64, 85
1, 202780, Control_c, 0, 67, 52
1, 202795, Control_c, 0, 64, 90
1, 202795, Control_c, 0, 67, 66
1, 202810, Control_c, 0, 64, 94
1, 202810, Control_c, 0, 67, 79
1, 202825, Control_c, 0, 64, 98
1, 202825, Control_c, 0, 67, 91
1, 202839, Control_c, 0, 64, 102
1, 202839, Control_c, 0, 67, 104
1, 202854, Control_c, 0, 64, 107
1, 202854, Control_c, 0, 67, 118
1, 202869, Control_c, 0, 64, 113
1, 202869, Control_c, 0, 67, 127
1, 202884, Control_c, 0, 64, 127
1, 203737, Note_on_c, 0, 66, 29
1, 203737, Control_c, 0, 64, 99
1, 203744, Note_on_c, 0, 63, 36
1, 203750, Note_on_c, 0, 71, 32
1, 203752, Control_c, 0, 64, 82
1, 203767, Control_c, 0, 64, 69
1, 203781, Control_c, 0, 64, 54
1, 203796, Control_c, 0, 64, 43
1, 203811, Control_c, 0, 64, 47
1, 203826, Control_c, 0, 64, 52
1, 203840, Control_c, 0, 64, 55
1, 203855, Control_c, 0, 64, 60
1, 203864, Note_off_c, 0, 63, 54
1, 203868, Note_off_c, 0, 66, 52
1, 203870, Control_c, 0, 64, 66
1, 203885, Control_c, 0, 64, 72
1, 203900, Control_c, 0, 64, 80
1, 203914, Control_c, 0, 64, 87
1, 203929, Control_c, 0, 64, 93
1, 203944, Control_c, 0, 64, 98
1, 203959, Control_c, 0, 64, 102
1, 203974, Control_c, 0, 64, 106
1, 203988, Control_c, 0, 64, 110
1, 204003, Control_c, 0, 64, 113
1, 204018, Control_c, 0, 64, 116
1, 204034, Control_c, 0, 64, 124
1, 204049, Control_c, 0, 64, 127
1, 204199, Note_off_c, 0, 71, 37
1, 204286, Note_on_c, 0, 83, 39
1, 204477, Note_on_c, 0, 81, 47
1, 204603, Note_off_c, 0, 81, 40
1, 204622, Note_off_c, 0, 83, 0
1, 204659, Poly_aftertouch_c, 0, 83, 127
1, 204706, Poly_aftertouch_c, 0, 83, 0
1, 204748, Note_on_c, 0, 81, 37
1, 204766, Note_on_c, 0, 63, 13
1, 204780, Note_on_c, 0, 66, 24
1, 204780, Control_c, 0, 64, 115
1, 204795, Control_c, 0, 64, 108
1, 204802, Note_on_c, 0, 71, 26
1, 204810, Control_c, 0, 64, 100
1, 204825, Control_c, 0, 64, 89
1, 204840, Control_c, 0, 64, 78
1, 204855, Control_c, 0, 64, 66
1, 204870, Control_c, 0, 64, 49
1, 204884, Control_c, 0, 64, 36
1, 204899, Control_c, 0, 64, 38
1, 204914, Control_c, 0, 64, 43
1, 204929, Control_c, 0, 64, 48
1, 204944, Control_c, 0, 64, 51
1, 204966, Control_c, 0, 64, 55
1, 204981, Control_c, 0, 64, 59
1, 204996, Control_c, 0, 64, 63
1, 205011, Control_c, 0, 64, 66
1, 205026, Control_c, 0, 64, 69
1, 205040, Control_c, 0, 64, 72
1, 205055, Control_c, 0, 64, 75
1, 205070, Control_c, 0, 64, 78
1, 205084, Control_c, 0, 64, 80
1, 205099, Control_c, 0, 64, 82
1, 205114, Control_c, 0, 64, 85
1, 205129, Control_c, 0, 64, 87
1, 205144, Control_c, 0, 64, 89
1, 205159, Control_c, 0, 64, 92
1, 205173, Control_c, 0, 64, 96
1, 205175, Note_off_c, 0, 71, 29
1, 205188, Note_off_c, 0, 66, 22
1, 205188, Control_c, 0, 64, 100
1, 205203, Control_c, 0, 64, 102
1, 205218, Control_c, 0, 64, 104
1, 205233, Note_off_c, 0, 63, 19
1, 205263, Control_c, 0, 64, 106
1, 205307, Control_c, 0, 64, 108
1, 205331, Note_off_c, 0, 81, 24
1, 206464, Control_c, 0, 64, 106
1, 206494, Control_c, 0, 64, 103
1, 206524, Control_c, 0, 64, 100
1, 206539, Control_c, 0, 64, 98
1, 206554, Control_c, 0, 64, 96
1, 206569, Control_c, 0, 64, 93
1, 206583, Control_c, 0, 64, 90
1, 206598, Control_c, 0, 64, 88
1, 206613, Control_c, 0, 64, 86
1, 206628, Control_c, 0, 64, 85
1, 206643, Control_c, 0, 64, 84
1, 206657, Control_c, 0, 64, 83
1, 206672, Control_c, 0, 64, 81
1, 206687, Control_c, 0, 64, 80
1, 206702, Control_c, 0, 64, 79
1, 206717, Control_c, 0, 64, 77
1, 206731, Control_c, 0, 64, 76
1, 206746, Control_c, 0, 64, 74
1, 206761, Control_c, 0, 64, 72
1, 206776, Control_c, 0, 64, 69
1, 206791, Control_c, 0, 64, 66
1, 206805, Control_c, 0, 64, 63
1, 206820, Control_c, 0, 64, 59
1, 206835, Control_c, 0, 64, 57
1, 206849, Control_c, 0, 64, 55
1, 206864, Control_c, 0, 64, 54
1, 206879, Control_c, 0, 64, 53
1, 206894, Control_c, 0, 64, 49
1, 206909, Control_c, 0, 64, 45
1, 206923, Control_c, 0, 64, 41
1, 206938, Control_c, 0, 64, 38
1, 206953, Control_c, 0, 64, 36
1, 206968, Control_c, 0, 64, 35
1, 206983, Control_c, 0, 64, 34
1, 206998, Control_c, 0, 64, 34
1, 207013, Control_c, 0, 64, 0
1, 207553, Control_c, 0, 64, 33
1, 207598, Control_c, 0, 64, 34
1, 207627, Control_c, 0, 64, 34
1, 207642, Control_c, 0, 64, 35
1, 207686, Control_c, 0, 64, 35
1, 207716, Control_c, 0, 64, 36
1, 207761, Control_c, 0, 64, 36
1, 207776, Control_c, 0, 64, 37
1, 207805, Control_c, 0, 64, 37
1, 207850, Control_c, 0, 64, 37
1, 207865, Control_c, 0, 64, 35
1, 207872, Note_on_c, 0, 52, 101
1, 207878, Note_on_c, 0, 40, 84
1, 207879, Control_c, 0, 64, 0
1, 207894, Control_c, 0, 67, 107
1, 207909, Control_c, 0, 67, 79
1, 207924, Control_c, 0, 67, 53
1, 207939, Control_c, 0, 67, 33
1, 207961, Control_c, 0, 67, 0
1, 208020, Control_c, 0, 64, 35
1, 208036, Control_c, 0, 64, 51
1, 208050, Control_c, 0, 64, 59
1, 208065, Control_c, 0, 64, 65
1, 208080, Control_c, 0, 64, 69
1, 208095, Control_c, 0, 64, 75
1, 208110, Control_c, 0, 64, 84
1, 208125, Control_c, 0, 64, 102
1, 208139, Control_c, 0, 64, 127
1, 208517, Note_off_c, 0, 40, 55
1, 208581, Note_off_c, 0, 52, 57
1, 208850, Note_on_c, 0, 53, 101
1, 208858, Note_on_c, 0, 41, 77
1, 208914, Note_off_c, 0, 41, 56
1, 208917, Note_off_c, 0, 53, 57
1, 209174, Note_on_c, 0, 52, 105
1, 209186, Note_on_c, 0, 40, 82
1, 209221, Note_on_c, 0, 46, 24
1, 209259, Control_c, 0, 64, 76
1, 209264, Note_off_c, 0, 46, 44
1, 209274, Control_c, 0, 64, 53
1, 209289, Control_c, 0, 64, 0
1, 209363, Control_c, 0, 64, 38
1, 209377, Control_c, 0, 64, 56
1, 209392, Control_c, 0, 64, 67
1, 209407, Control_c, 0, 64, 76
1, 209422, Control_c, 0, 64, 88
1, 209437, Control_c, 0, 64, 103
1, 209459, Control_c, 0, 64, 127
1, 209604, Note_off_c, 0, 40, 43
1, 209891, Note_off_c, 0, 52, 43
1, 210008, Note_on_c, 0, 53, 98
1, 210016, Note_on_c, 0, 41, 70
1, 210047, Note_off_c, 0, 41, 63
1, 210050, Note_off_c, 0, 53, 62
1, 210292, Note_on_c, 0, 52, 96
1, 210301, Note_on_c, 0, 71, 93
1, 210304, Note_on_c, 0, 74, 86
1, 210304, Note_on_c, 0, 40, 85
1, 210345, Note_off_c, 0, 71, 65
1, 210363, Note_off_c, 0, 74, 64
1, 210364, Note_on_c, 0, 80, 84
1, 210371, Control_c, 0, 64, 85
1, 210386, Control_c, 0, 64, 66
1, 210400, Control_c, 0, 64, 45
1, 210413, Note_off_c, 0, 80, 62
1, 210415, Control_c, 0, 64, 0
1, 210429, Note_on_c, 0, 75, 69
1, 210447, Note_off_c, 0, 75, 66
1, 210452, Note_on_c, 0, 74, 71
1, 210456, Note_on_c, 0, 71, 57
1, 210478, Note_off_c, 0, 71, 60
1, 210482, Note_off_c, 0, 74, 62
1, 210495, Note_on_c, 0, 80, 78
1, 210544, Note_off_c, 0, 80, 60
1, 210548, Note_on_c, 0, 71, 72
1, 210558, Note_on_c, 0, 74, 65
1, 210581, Note_off_c, 0, 71, 63
1, 210602, Note_off_c, 0, 74, 59
1, 210609, Note_on_c, 0, 80, 73
1, 210650, Note_off_c, 0, 80, 52
1, 210666, Note_on_c, 0, 74, 64
1, 210670, Note_on_c, 0, 71, 61
1, 210692, Note_off_c, 0, 71, 66
1, 210706, Note_off_c, 0, 74, 59
1, 210720, Note_on_c, 0, 80, 74
1, 210727, Control_c, 0, 64, 45
1, 210742, Control_c, 0, 64, 57
1, 210757, Control_c, 0, 64, 67
1, 210763, Note_off_c, 0, 80, 57
1, 210772, Control_c, 0, 64, 79
1, 210773, Note_on_c, 0, 71, 63
1, 210778, Note_on_c, 0, 74, 65
1, 210787, Control_c, 0, 64, 104
1, 210802, Control_c, 0, 64, 127
1, 210804, Note_off_c, 0, 71, 66
1, 210812, Note_off_c, 0, 74, 62
1, 210824, Note_off_c, 0, 40, 53
1, 210834, Note_on_c, 0, 80, 74
1, 210852, Note_off_c, 0, 52, 40
1, 210884, Note_off_c, 0, 80, 60
1, 210906, Note_on_c, 0, 74, 63
1, 210921, Note_on_c, 0, 71, 26
1, 210937, Note_off_c, 0, 74, 60
1, 210958, Note_on_c, 0, 80, 70
1, 210968, Note_off_c, 0, 71, 53
1, 211001, Note_off_c, 0, 80, 56
1, 211017, Control_c, 0, 64, 89
1, 211019, Note_on_c, 0, 74, 68
1, 211031, Note_on_c, 0, 71, 51
1, 211031, Control_c, 0, 64, 68
1, 211046, Note_on_c, 0, 53, 57
1, 211046, Control_c, 0, 64, 51
1, 211054, Note_off_c, 0, 71, 62
1, 211057, Note_on_c, 0, 41, 49
1, 211057, Note_off_c, 0, 74, 56
1, 211061, Control_c, 0, 64, 53
1, 211076, Control_c, 0, 64, 61
1, 211088, Note_on_c, 0, 80, 73
1, 211091, Control_c, 0, 64, 67
1, 211105, Control_c, 0, 64, 78
1, 211116, Note_off_c, 0, 80, 61
1, 211120, Control_c, 0, 64, 103
1, 211128, Note_off_c, 0, 53, 62
1, 211135, Control_c, 0, 64, 127
1, 211145, Note_on_c, 0, 71, 58
1, 211147, Note_off_c, 0, 41, 58
1, 211149, Note_on_c, 0, 74, 68
1, 211172, Note_off_c, 0, 71, 65
1, 211180, Note_off_c, 0, 74, 64
1, 211206, Note_on_c, 0, 80, 77
1, 211237, Note_off_c, 0, 80, 57
1, 211269, Control_c, 0, 64, 95
1, 211272, Note_on_c, 0, 74, 71
1, 211274, Note_on_c, 0, 71, 56
1, 211284, Note_on_c, 0, 52, 79
1, 211284, Control_c, 0, 64, 70
1, 211293, Note_off_c, 0, 71, 65
1, 211296, Note_on_c, 0, 40, 68
1, 211299, Control_c, 0, 64, 52
1, 211302, Note_off_c, 0, 74, 65
1, 211314, Control_c, 0, 64, 43
1, 211324, Note_on_c, 0, 80, 81
1, 211329, Control_c, 0, 64, 55
1, 211344, Control_c, 0, 64, 64
1, 211359, Control_c, 0, 64, 74
1, 211362, Note_off_c, 0, 80, 59
1, 211373, Control_c, 0, 64, 96
1, 211388, Note_on_c, 0, 71, 60
1, 211388, Note_off_c, 0, 40, 57
1, 211388, Control_c, 0, 64, 127
1, 211390, Note_on_c, 0, 74, 71
1, 211418, Note_off_c, 0, 71, 66
1, 211424, Note_off_c, 0, 52, 55
1, 211427, Note_off_c, 0, 74, 54
1, 211442, Note_on_c, 0, 80, 86
1, 211484, Note_off_c, 0, 80, 58
1, 211503, Note_on_c, 0, 74, 73
1, 211505, Note_on_c, 0, 71, 72
1, 211507, Control_c, 0, 64, 94
1, 211521, Note_on_c, 0, 53, 100
1, 211521, Control_c, 0, 64, 68
1, 211530, Note_on_c, 0, 41, 80
1, 211532, Note_off_c, 0, 71, 68
1, 211536, Control_c, 0, 64, 57
1, 211550, Control_c, 0, 64, 63
1, 211554, Note_on_c, 0, 80, 86
1, 211556, Note_off_c, 0, 74, 61
1, 211565, Control_c, 0, 64, 72
1, 211579, Control_c, 0, 64, 88
1, 211594, Control_c, 0, 64, 127
1, 211600, Note_off_c, 0, 53, 61
1, 211604, Note_off_c, 0, 80, 61
1, 211612, Note_on_c, 0, 74, 73
1, 211618, Note_off_c, 0, 41, 61
1, 211626, Note_on_c, 0, 71, 74
1, 211651, Note_off_c, 0, 71, 69
1, 211672, Note_off_c, 0, 74, 58
1, 211675, Note_on_c, 0, 80, 82
1, 211726, Note_off_c, 0, 80, 63
1, 211749, Note_on_c, 0, 74, 72
1, 211750, Control_c, 0, 64, 77
1, 211752, Note_on_c, 0, 71, 77
1, 211765, Control_c, 0, 64, 56
1, 211773, Note_on_c, 0, 52, 95
1, 211779, Note_on_c, 0, 40, 89
1, 211779, Control_c, 0, 64, 0
1, 211780, Note_off_c, 0, 71, 60
1, 211785, Note_off_c, 0, 74, 59
1, 211794, Control_c, 0, 64, 37
1, 211805, Note_on_c, 0, 80, 84
1, 211809, Control_c, 0, 64, 57
1, 211824, Control_c, 0, 64, 68
1, 211839, Control_c, 0, 64, 89
1, 211854, Note_off_c, 0, 80, 63
1, 211854, Control_c, 0, 64, 127
1, 211869, Note_off_c, 0, 40, 60
1, 211871, Note_on_c, 0, 74, 72
1, 211878, Note_on_c, 0, 71, 70
1, 211901, Note_off_c, 0, 71, 70
1, 211901, Note_off_c, 0, 74, 62
1, 211911, Note_off_c, 0, 52, 55
1, 211922, Note_on_c, 0, 80, 81
1, 211976, Note_off_c, 0, 80, 61
1, 211991, Note_on_c, 0, 74, 77
1, 211992, Note_on_c, 0, 71, 76
1, 211997, Note_on_c, 0, 53, 97
1, 212003, Note_on_c, 0, 41, 80
1, 212018, Note_off_c, 0, 71, 66
1, 212024, Note_off_c, 0, 74, 60
1, 212040, Note_on_c, 0, 80, 79
1, 212044, Note_off_c, 0, 53, 57
1, 212044, Note_off_c, 0, 41, 60
1, 212102, Note_off_c, 0, 80, 63
1, 212107, Note_on_c, 0, 74, 70
1, 212117, Note_on_c, 0, 71, 59
1, 212133, Note_off_c, 0, 74, 63
1, 212139, Note_off_c, 0, 71, 62
1, 212176, Note_on_c, 0, 80, 47
1, 212201, Note_off_c, 0, 80, 59
1, 212211, Note_on_c, 0, 52, 96
1, 212217, Note_on_c, 0, 40, 85
1, 212217, Note_on_c, 0, 71, 80
1, 212226, Note_on_c, 0, 74, 80
1, 212240, Control_c, 0, 64, 78
1, 212244, Note_off_c, 0, 71, 65
1, 212250, Note_off_c, 0, 74, 64
1, 212255, Control_c, 0, 64, 59
1, 212269, Control_c, 0, 64, 0
1, 212343, Note_on_c, 0, 74, 84
1, 212345, Note_on_c, 0, 71, 74
1, 212367, Note_off_c, 0, 71, 70
1, 212372, Note_off_c, 0, 74, 61
1, 212399, Note_off_c, 0, 40, 50
1, 212468, Note_on_c, 0, 83, 89
1, 212476, Note_off_c, 0, 52, 58
1, 212482, Note_on_c, 0, 80, 79
1, 212539, Note_off_c, 0, 80, 63
1, 212579, Note_on_c, 0, 53, 84
1, 212585, Note_on_c, 0, 41, 71
1, 212602, Note_off_c, 0, 53, 68
1, 212613, Note_off_c, 0, 41, 65
1, 212694, Note_on_c, 0, 52, 87
1, 212700, Note_on_c, 0, 40, 78
1, 212754, Note_off_c, 0, 83, 63
1, 212809, Note_on_c, 0, 80, 88
1, 212815, Note_on_c, 0, 74, 69
1, 212840, Note_off_c, 0, 74, 67
1, 212864, Note_off_c, 0, 80, 64
1, 212876, Note_off_c, 0, 40, 56
1, 212908, Note_off_c, 0, 52, 57
1, 212915, Control_c, 0, 64, 53
1, 212923, Note_on_c, 0, 86, 96
1, 212930, Control_c, 0, 64, 69
1, 212931, Note_on_c, 0, 83, 95
1, 212945, Control_c, 0, 64, 94
1, 212960, Control_c, 0, 64, 127
1, 213035, Note_on_c, 0, 53, 80
1, 213040, Note_on_c, 0, 41, 70
1, 213058, Note_off_c, 0, 53, 69
1, 213069, Note_off_c, 0, 41, 62
1, 213146, Note_on_c, 0, 52, 80
1, 213150, Note_on_c, 0, 40, 79
1, 213151, Control_c, 0, 64, 81
1, 213166, Control_c, 0, 64, 61
1, 213181, Control_c, 0, 64, 0
1, 213183, Note_off_c, 0, 83, 48
1, 213204, Note_off_c, 0, 86, 44
1, 213278, Note_on_c, 0, 84, 77
1, 213279, Note_on_c, 0, 81, 71
1, 213310, Note_off_c, 0, 81, 63
1, 213330, Note_off_c, 0, 84, 59
1, 213393, Note_on_c, 0, 83, 71
1, 213408, Note_on_c, 0, 80, 61
1, 213427, Note_off_c, 0, 83, 61
1, 213435, Note_off_c, 0, 80, 66
1, 213494, Note_off_c, 0, 40, 59
1, 213505, Note_on_c, 0, 77, 65
1, 213505, Note_on_c, 0, 81, 60
1, 213525, Note_off_c, 0, 81, 62
1, 213529, Note_off_c, 0, 52, 59
1, 213529, Note_off_c, 0, 77, 68
1, 213612, Note_on_c, 0, 80, 73
1, 213615, Note_on_c, 0, 76, 76
1, 213640, Note_off_c, 0, 76, 66
1, 213645, Note_off_c, 0, 80, 61
1, 213715, Note_on_c, 0, 77, 72
1, 213718, Note_on_c, 0, 74, 76
1, 213738, Note_off_c, 0, 77, 70
1, 213748, Note_off_c, 0, 74, 62
1, 213829, Note_on_c, 0, 72, 76
1, 213830, Note_on_c, 0, 76, 69
1, 213852, Note_off_c, 0, 72, 65
1, 213860, Note_off_c, 0, 76, 65
1, 213942, Note_on_c, 0, 71, 71
1, 213950, Note_on_c, 0, 74, 55
1, 213967, Note_off_c, 0, 71, 69
1, 213971, Note_off_c, 0, 74, 60
1, 214056, Note_on_c, 0, 69, 57
1, 214060, Note_on_c, 0, 72, 59
1, 214077, Note_on_c, 0, 45, 39
1, 214083, Note_on_c, 0, 57, 36
1, 214094, Note_off_c, 0, 72, 61
1, 214101, Note_off_c, 0, 69, 55
1, 214164, Note_on_c, 0, 74, 68
1, 214194, Note_off_c, 0, 74, 64
1, 214200, Note_on_c, 0, 72, 74
1, 214222, Note_off_c, 0, 72, 71
1, 214247, Note_on_c, 0, 71, 56
1, 214278, Note_off_c, 0, 71, 58
1, 214289, Note_off_c, 0, 57, 48
1, 214293, Note_off_c, 0, 45, 53
1, 214298, Note_on_c, 0, 72, 67
1, 214319, Note_off_c, 0, 72, 66
1, 214399, Note_on_c, 0, 74, 64
1, 214437, Note_off_c, 0, 74, 55
1, 214557, Note_on_c, 0, 76, 48
1, 214620, Control_c, 0, 64, 50
1, 214635, Control_c, 0, 64, 65
1, 214650, Control_c, 0, 64, 70
1, 214665, Control_c, 0, 64, 76
1, 214680, Control_c, 0, 64, 82
1, 214702, Control_c, 0, 64, 91
1, 214717, Control_c, 0, 64, 104
1, 214724, Note_off_c, 0, 76, 63
1, 214732, Control_c, 0, 64, 127
1, 214850, Control_c, 0, 64, 99
1, 214865, Control_c, 0, 64, 82
1, 214879, Control_c, 0, 64, 69
1, 214894, Control_c, 0, 64, 57
1, 214909, Control_c, 0, 64, 0
1, 214974, Note_on_c, 0, 69, 53
1, 215013, Note_off_c, 0, 69, 61
1, 215016, Poly_aftertouch_c, 0, 64, 127
1, 215018, Poly_aftertouch_c, 0, 60, 127
1, 215034, Note_on_c, 0, 62, 43
1, 215044, Note_on_c, 0, 65, 36
1, 215052, Poly_aftertouch_c, 0, 60, 0
1, 215055, Note_on_c, 0, 70, 55
1, 215058, Poly_aftertouch_c, 0, 64, 0
1, 215212, Note_off_c, 0, 70, 62
1, 215225, Note_on_c, 0, 68, 56
1, 215257, Note_off_c, 0, 65, 43
1, 215266, Note_off_c, 0, 68, 62
1, 215283, Note_on_c, 0, 64, 31
1, 215284, Note_off_c, 0, 62, 37
1, 215285, Note_on_c, 0, 69, 54
1, 215288, Note_on_c, 0, 60, 36
1, 215325, Note_off_c, 0, 69, 55
1, 215469, Note_on_c, 0, 69, 51
1, 215499, Note_off_c, 0, 60, 50
1, 215505, Note_off_c, 0, 64, 55
1, 215511, Note_off_c, 0, 69, 59
1, 215537, Note_on_c, 0, 70, 67
1, 215538, Note_on_c, 0, 65, 42
1, 215541, Note_on_c, 0, 62, 37
1, 215699, Note_off_c, 0, 70, 60
1, 215704, Note_on_c, 0, 68, 56
1, 215750, Note_off_c, 0, 68, 60
1, 215751, Note_off_c, 0, 62, 50
1, 215754, Note_off_c, 0, 65, 37
1, 215766, Note_on_c, 0, 69, 58
1, 215772, Note_on_c, 0, 64, 32
1, 215776, Note_on_c, 0, 60, 39
1, 215806, Note_off_c, 0, 64, 54
1, 215809, Note_off_c, 0, 69, 58
1, 215949, Note_on_c, 0, 69, 43
1, 215989, Note_off_c, 0, 69, 49
1, 216006, Note_off_c, 0, 60, 36
1, 216010, Note_on_c, 0, 74, 57
1, 216018, Note_on_c, 0, 59, 40
1, 216027, Note_on_c, 0, 68, 46
1, 216032, Note_on_c, 0, 64, 30
1, 216048, Note_off_c, 0, 74, 62
1, 216054, Note_off_c, 0, 68, 50
1, 216054, Note_off_c, 0, 59, 64
1, 216063, Note_off_c, 0, 64, 55
1, 216316, Note_on_c, 0, 57, 39
1, 216320, Note_on_c, 0, 72, 30
1, 216331, Note_on_c, 0, 64, 23
1, 216333, Note_on_c, 0, 69, 23
1, 216350, Note_off_c, 0, 72, 49
1, 216351, Note_off_c, 0, 57, 61
1, 216361, Note_off_c, 0, 64, 50
1, 216361, Note_off_c, 0, 69, 51
1, 217151, Note_on_c, 0, 50, 103
1, 217162, Note_on_c, 0, 38, 88
1, 217422, Control_c, 0, 64, 37
1, 217437, Control_c, 0, 64, 51
1, 217452, Control_c, 0, 64, 61
1, 217467, Control_c, 0, 64, 66
1, 217482, Control_c, 0, 64, 73
1, 217497, Control_c, 0, 64, 85
1, 217511, Control_c, 0, 64, 112
1, 217526, Control_c, 0, 64, 127
1, 217757, Note_off_c, 0, 50, 58
1, 217797, Note_off_c, 0, 38, 59
1, 217951, Note_on_c, 0, 51, 99
1, 217963, Note_on_c, 0, 39, 82
1, 218006, Note_off_c, 0, 51, 64
1, 218036, Note_off_c, 0, 39, 59
1, 218250, Note_on_c, 0, 50, 98
1, 218259, Note_on_c, 0, 38, 83
1, 218304, Note_on_c, 0, 39, 37
1, 218333, Control_c, 0, 64, 78
1, 218347, Note_off_c, 0, 39, 50
1, 218348, Control_c, 0, 64, 58
1, 218363, Control_c, 0, 64, 0
1, 218409, Control_c, 0, 64, 49
1, 218424, Control_c, 0, 64, 64
1, 218445, Control_c, 0, 64, 77
1, 218460, Control_c, 0, 64, 109
1, 218475, Control_c, 0, 64, 127
1, 218817, Note_off_c, 0, 50, 57
1, 218942, Note_off_c, 0, 38, 48
1, 219005, Note_on_c, 0, 51, 104
1, 219018, Note_on_c, 0, 39, 74
1, 219042, Note_off_c, 0, 51, 67
1, 219055, Note_off_c, 0, 39, 63
1, 219276, Note_on_c, 0, 50, 101
1, 219285, Note_on_c, 0, 69, 84
1, 219289, Note_on_c, 0, 72, 81
1, 219291, Note_on_c, 0, 38, 83
1, 219327, Note_on_c, 0, 39, 30
1, 219333, Note_off_c, 0, 69, 62
1, 219351, Note_off_c, 0, 39, 55
1, 219354, Note_on_c, 0, 78, 82
1, 219354, Note_off_c, 0, 72, 60
1, 219355, Poly_aftertouch_c, 0, 44, 127
1, 219384, Poly_aftertouch_c, 0, 71, 0
1, 219386, Control_c, 0, 64, 112
1, 219401, Control_c, 0, 64, 80
1, 219402, Poly_aftertouch_c, 0, 44, 0
1, 219406, Note_off_c, 0, 78, 62
1, 219416, Control_c, 0, 64, 59
1, 219419, Note_on_c, 0, 72, 70
1, 219425, Note_on_c, 0, 69, 69
1, 219431, Control_c, 0, 64, 0
1, 219452, Note_off_c, 0, 69, 65
1, 219474, Note_off_c, 0, 72, 60
1, 219479, Note_on_c, 0, 78, 79
1, 219530, Note_off_c, 0, 78, 62
1, 219537, Note_on_c, 0, 72, 66
1, 219538, Note_on_c, 0, 69, 71
1, 219565, Note_off_c, 0, 69, 65
1, 219586, Note_off_c, 0, 72, 61
1, 219592, Note_on_c, 0, 78, 72
1, 219640, Note_off_c, 0, 78, 61
1, 219651, Note_on_c, 0, 72, 69
1, 219655, Note_on_c, 0, 69, 67
1, 219679, Note_off_c, 0, 69, 69
1, 219683, Control_c, 0, 64, 51
1, 219698, Control_c, 0, 64, 64
1, 219701, Note_off_c, 0, 72, 58
1, 219709, Note_on_c, 0, 78, 71
1, 219712, Control_c, 0, 64, 72
1, 219723, Note_off_c, 0, 50, 52
1, 219727, Control_c, 0, 64, 79
1, 219742, Control_c, 0, 64, 87
1, 219752, Note_off_c, 0, 78, 61
1, 219757, Control_c, 0, 64, 93
1, 219759, Note_on_c, 0, 72, 67
1, 219763, Note_on_c, 0, 69, 71
1, 219772, Control_c, 0, 64, 100
1, 219786, Note_off_c, 0, 69, 66
1, 219786, Control_c, 0, 64, 111
1, 219801, Control_c, 0, 64, 127
1, 219810, Note_off_c, 0, 72, 58
1, 219820, Note_on_c, 0, 78, 74
1, 219869, Note_off_c, 0, 78, 61
1, 219873, Note_on_c, 0, 72, 64
1, 219895, Note_on_c, 0, 69, 51
1, 219915, Note_off_c, 0, 69, 61
1, 219921, Note_off_c, 0, 72, 56
1, 219936, Note_on_c, 0, 78, 70
1, 219972, Control_c, 0, 64, 104
1, 219986, Control_c, 0, 64, 75
1, 219989, Note_off_c, 0, 78, 62
1, 220001, Control_c, 0, 64, 57
1, 220003, Note_on_c, 0, 69, 59
1, 220006, Note_on_c, 0, 72, 58
1, 220009, Note_on_c, 0, 51, 57
1, 220017, Control_c, 0, 64, 0
1, 220022, Note_on_c, 0, 39, 51
1, 220032, Control_c, 0, 64, 38
1, 220035, Note_off_c, 0, 69, 65
1, 220039, Note_off_c, 0, 38, 40
1, 220045, Note_off_c, 0, 72, 61
1, 220047, Control_c, 0, 64, 54
1, 220059, Note_on_c, 0, 78, 70
1, 220062, Control_c, 0, 64, 65
1, 220077, Control_c, 0, 64, 73
1, 220091, Control_c, 0, 64, 83
1, 220106, Control_c, 0, 64, 95
1, 220111, Note_off_c, 0, 78, 61
1, 220121, Control_c, 0, 64, 107
1, 220123, Note_on_c, 0, 72, 64
1, 220126, Note_on_c, 0, 69, 53
1, 220135, Control_c, 0, 64, 127
1, 220147, Note_off_c, 0, 69, 63
1, 220156, Note_off_c, 0, 72, 59
1, 220177, Note_on_c, 0, 78, 70
1, 220232, Note_off_c, 0, 78, 61
1, 220235, Note_off_c, 0, 51, 58
1, 220239, Control_c, 0, 64, 98
1, 220246, Note_on_c, 0, 69, 54
1, 220254, Control_c, 0, 64, 73
1, 220260, Note_on_c, 0, 72, 58
1, 220269, Control_c, 0, 64, 53
1, 220271, Note_off_c, 0, 39, 59
1, 220275, Note_on_c, 0, 50, 59
1, 220279, Note_off_c, 0, 69, 65
1, 220281, Note_off_c, 0, 72, 62
1, 220284, Control_c, 0, 64, 0
1, 220286, Note_on_c, 0, 38, 53
1, 220302, Note_on_c, 0, 78, 69
1, 220313, Control_c, 0, 64, 52
1, 220328, Control_c, 0, 64, 65
1, 220343, Control_c, 0, 64, 75
1, 220343, Note_off_c, 0, 78, 59
1, 220358, Note_on_c, 0, 72, 70
1, 220358, Control_c, 0, 64, 88
1, 220362, Note_on_c, 0, 69, 66
1, 220373, Control_c, 0, 64, 104
1, 220376, Note_off_c, 0, 50, 58
1, 220388, Control_c, 0, 64, 124
1, 220391, Note_off_c, 0, 69, 64
1, 220397, Note_off_c, 0, 72, 58
1, 220402, Control_c, 0, 64, 127
1, 220415, Note_off_c, 0, 38, 54
1, 220421, Note_on_c, 0, 78, 76
1, 220463, Note_off_c, 0, 78, 60
1, 220484, Note_on_c, 0, 69, 71
1, 220486, Note_on_c, 0, 72, 71
1, 220494, Note_on_c, 0, 51, 95
1, 220509, Note_on_c, 0, 39, 72
1, 220513, Note_off_c, 0, 72, 61
1, 220514, Note_off_c, 0, 69, 64
1, 220534, Note_on_c, 0, 78, 77
1, 220565, Note_off_c, 0, 51, 60
1, 220579, Note_off_c, 0, 78, 65
1, 220597, Note_on_c, 0, 72, 76
1, 220600, Note_on_c, 0, 69, 70
1, 220626, Note_off_c, 0, 69, 61
1, 220641, Note_off_c, 0, 72, 48
1, 220648, Note_on_c, 0, 78, 82
1, 220704, Note_off_c, 0, 78, 63
1, 220721, Control_c, 0, 64, 105
1, 220723, Note_off_c, 0, 39, 54
1, 220729, Note_on_c, 0, 69, 80
1, 220731, Note_on_c, 0, 72, 74
1, 220735, Control_c, 0, 64, 71
1, 220738, Note_on_c, 0, 50, 99
1, 220749, Note_on_c, 0, 38, 79
1, 220750, Control_c, 0, 64, 45
1, 220756, Note_off_c, 0, 69, 59
1, 220760, Note_off_c, 0, 72, 62
1, 220765, Control_c, 0, 64, 0
1, 220779, Note_on_c, 0, 78, 82
1, 220780, Control_c, 0, 64, 49
1, 220795, Control_c, 0, 64, 64
1, 220811, Control_c, 0, 64, 81
1, 220826, Control_c, 0, 64, 127
1, 220827, Note_off_c, 0, 78, 64
1, 220834, Note_off_c, 0, 50, 59
1, 220846, Note_on_c, 0, 72, 72
1, 220850, Note_on_c, 0, 69, 68
1, 220874, Note_off_c, 0, 72, 64
1, 220877, Note_off_c, 0, 38, 57
1, 220877, Note_off_c, 0, 69, 68
1, 220898, Note_on_c, 0, 78, 78
1, 220945, Note_off_c, 0, 78, 63
1, 220963, Note_on_c, 0, 69, 70
1, 220966, Note_on_c, 0, 72, 73
1, 220969, Note_on_c, 0, 51, 93
1, 220986, Note_on_c, 0, 39, 76
1, 220986, Note_off_c, 0, 69, 65
1, 220986, Poly_aftertouch_c, 0, 43, 0
1, 220991, Note_off_c, 0, 72, 69
1, 221016, Note_off_c, 0, 51, 63
1, 221020, Note_on_c, 0, 78, 73
1, 221077, Note_on_c, 0, 72, 72
1, 221081, Note_on_c, 0, 69, 57
1, 221083, Note_off_c, 0, 78, 60
1, 221107, Note_off_c, 0, 72, 62
1, 221108, Note_off_c, 0, 69, 64
1, 221173, Poly_aftertouch_c, 0, 78, 127
1, 221183, Note_off_c, 0, 39, 53
1, 221188, Note_on_c, 0, 69, 71
1, 221193, Note_on_c, 0, 50, 93
1, 221200, Note_on_c, 0, 72, 69
1, 221203, Note_on_c, 0, 38, 74
1, 221203, Poly_aftertouch_c, 0, 78, 0
1, 221217, Note_off_c, 0, 69, 61
1, 221223, Note_off_c, 0, 72, 70
1, 221225, Control_c, 0, 64, 119
1, 221240, Control_c, 0, 64, 78
1, 221255, Control_c, 0, 64, 59
1, 221270, Control_c, 0, 64, 0
1, 221307, Note_on_c, 0, 72, 82
1, 221311, Note_on_c, 0, 69, 64
1, 221330, Note_off_c, 0, 69, 66
1, 221345, Note_off_c, 0, 72, 62
1, 221360, Note_off_c, 0, 50, 59
1, 221421, Note_on_c, 0, 81, 90
1, 221435, Note_on_c, 0, 78, 78
1, 221443, Note_off_c, 0, 38, 55
1, 221515, Note_off_c, 0, 78, 63
1, 221534, Note_on_c, 0, 51, 87
1, 221550, Note_on_c, 0, 39, 67
1, 221564, Note_off_c, 0, 51, 66
1, 221581, Note_off_c, 0, 39, 60
1, 221651, Note_on_c, 0, 50, 88
1, 221658, Note_on_c, 0, 38, 79
1, 221712, Note_off_c, 0, 81, 62
1, 221768, Note_on_c, 0, 72, 75
1, 221770, Note_on_c, 0, 78, 79
1, 221790, Note_off_c, 0, 72, 69
1, 221824, Note_off_c, 0, 78, 62
1, 221845, Note_off_c, 0, 50, 60
1, 221883, Note_on_c, 0, 84, 99
1, 221886, Control_c, 0, 64, 50
1, 221887, Note_on_c, 0, 81, 91
1, 221900, Control_c, 0, 64, 67
1, 221904, Note_off_c, 0, 38, 56
1, 221915, Control_c, 0, 64, 87
1, 221930, Control_c, 0, 64, 127
1, 221966, Note_off_c, 0, 81, 62
1, 222000, Note_on_c, 0, 51, 83
1, 222013, Note_on_c, 0, 39, 67
1, 222028, Note_off_c, 0, 51, 66
1, 222045, Note_off_c, 0, 39, 63
1, 222078, Control_c, 0, 64, 89
1, 222093, Control_c, 0, 64, 69
1, 222107, Note_on_c, 0, 50, 84
1, 222107, Control_c, 0, 64, 45
1, 222120, Note_on_c, 0, 38, 69
1, 222122, Control_c, 0, 64, 0
1, 222201, Note_off_c, 0, 84, 55
1, 222242, Note_on_c, 0, 82, 74
1, 222243, Note_on_c, 0, 79, 79
1, 222269, Note_off_c, 0, 82, 66
1, 222272, Note_off_c, 0, 79, 64
1, 222359, Note_on_c, 0, 81, 74
1, 222373, Note_on_c, 0, 78, 56
1, 222397, Note_off_c, 0, 81, 60
1, 222398, Note_off_c, 0, 78, 65
1, 222458, Note_on_c, 0, 79, 77
1, 222467, Note_on_c, 0, 75, 68
1, 222482, Note_off_c, 0, 38, 61
1, 222496, Note_off_c, 0, 75, 63
1, 222509, Note_off_c, 0, 79, 63
1, 222525, Note_off_c, 0, 50, 60
1, 222566, Note_on_c, 0, 74, 79
1, 222582, Note_on_c, 0, 78, 48
1, 222589, Note_off_c, 0, 74, 68
1, 222605, Note_off_c, 0, 78, 59
1, 222669, Note_on_c, 0, 75, 68
1, 222670, Note_on_c, 0, 72, 73
1, 222704, Note_off_c, 0, 75, 62
1, 222707, Note_off_c, 0, 72, 57
1, 222782, Note_on_c, 0, 74, 62
1, 222787, Note_on_c, 0, 70, 57
1, 222800, Note_off_c, 0, 74, 64
1, 222806, Note_off_c, 0, 70, 61
1, 222892, Note_on_c, 0, 72, 66
1, 222894, Note_on_c, 0, 69, 66
1, 222919, Note_off_c, 0, 69, 68
1, 222941, Note_off_c, 0, 72, 56
1, 223011, Note_on_c, 0, 70, 66
1, 223033, Note_on_c, 0, 55, 38
1, 223040, Note_on_c, 0, 67, 32
1, 223050, Note_on_c, 0, 43, 25
1, 223060, Note_off_c, 0, 70, 56
1, 223071, Note_off_c, 0, 67, 46
1, 223138, Note_on_c, 0, 72, 53
1, 223165, Note_off_c, 0, 72, 63
1, 223172, Note_on_c, 0, 70, 66
1, 223201, Note_off_c, 0, 70, 68
1, 223219, Note_on_c, 0, 69, 57
1, 223258, Note_off_c, 0, 69, 61
1, 223275, Note_on_c, 0, 70, 56
1, 223297, Note_off_c, 0, 70, 64
1, 223314, Note_off_c, 0, 55, 51
1, 223336, Note_off_c, 0, 43, 51
1, 223372, Note_on_c, 0, 72, 60
1, 223418, Note_off_c, 0, 72, 53
1, 223530, Note_on_c, 0, 74, 47
1, 223547, Control_c, 0, 64, 49
1, 223561, Control_c, 0, 64, 61
1, 223576, Control_c, 0, 64, 65
1, 223591, Control_c, 0, 64, 70
1, 223605, Control_c, 0, 64, 76
1, 223620, Control_c, 0, 64, 82
1, 223635, Control_c, 0, 64, 89
1, 223650, Control_c, 0, 64, 99
1, 223665, Control_c, 0, 64, 120
1, 223687, Control_c, 0, 64, 127
1, 223694, Note_off_c, 0, 74, 62
1, 223805, Control_c, 0, 64, 93
1, 223820, Control_c, 0, 64, 77
1, 223835, Control_c, 0, 64, 65
1, 223850, Control_c, 0, 64, 50
1, 223865, Control_c, 0, 64, 0
1, 223953, Note_on_c, 0, 58, 35
1, 223956, Note_on_c, 0, 62, 36
1, 223968, Note_on_c, 0, 67, 40
1, 224016, Note_off_c, 0, 67, 55
1, 224017, Note_off_c, 0, 58, 56
1, 224037, Note_on_c, 0, 68, 56
1, 224040, Note_off_c, 0, 62, 53
1, 224052, Note_on_c, 0, 60, 36
1, 224062, Note_on_c, 0, 63, 31
1, 224213, Note_off_c, 0, 68, 58
1, 224224, Note_on_c, 0, 66, 52
1, 224248, Note_off_c, 0, 63, 51
1, 224267, Note_off_c, 0, 60, 56
1, 224270, Note_off_c, 0, 66, 60
1, 224278, Note_on_c, 0, 62, 43
1, 224281, Note_on_c, 0, 67, 59
1, 224292, Note_on_c, 0, 58, 41
1, 224314, Note_off_c, 0, 67, 59
1, 224452, Note_on_c, 0, 67, 57
1, 224486, Note_off_c, 0, 58, 55
1, 224494, Note_off_c, 0, 62, 59
1, 224504, Note_off_c, 0, 67, 50
1, 224514, Note_on_c, 0, 68, 75
1, 224523, Note_on_c, 0, 63, 48
1, 224537, Note_on_c, 0, 60, 36
1, 224695, Note_off_c, 0, 68, 60
1, 224717, Note_on_c, 0, 66, 61
1, 224732, Note_off_c, 0, 63, 55
1, 224747, Note_off_c, 0, 60, 44
1, 224760, Note_off_c, 0, 66, 58
1, 224763, Note_on_c, 0, 62, 41
1, 224776, Note_on_c, 0, 58, 41
1, 224779, Note_on_c, 0, 67, 59
1, 224811, Note_off_c, 0, 62, 59
1, 224820, Note_off_c, 0, 67, 60
1, 224949, Note_on_c, 0, 67, 52
1, 224998, Note_off_c, 0, 67, 61
1, 225020, Note_off_c, 0, 58, 35
1, 225026, Note_on_c, 0, 72, 57
1, 225033, Note_on_c, 0, 62, 47
1, 225036, Note_on_c, 0, 57, 41
1, 225071, Note_off_c, 0, 57, 59
1, 225073, Note_off_c, 0, 62, 62
1, 225081, Note_off_c, 0, 72, 48
1, 225318, Note_on_c, 0, 55, 42
1, 225324, Note_on_c, 0, 67, 38
1, 225325, Note_on_c, 0, 70, 42
1, 225328, Note_on_c, 0, 62, 35
1, 225345, Note_off_c, 0, 55, 61
1, 225358, Note_off_c, 0, 62, 58
1, 225375, Note_off_c, 0, 67, 57
1, 225376, Note_off_c, 0, 70, 61
1, 226034, Note_on_c, 0, 67, 47
1, 226075, Note_off_c, 0, 67, 61
1, 226096, Note_on_c, 0, 58, 41
1, 226107, Note_on_c, 0, 64, 35
1, 226115, Note_on_c, 0, 74, 47
1, 226120, Note_on_c, 0, 60, 19
1, 226132, Note_off_c, 0, 58, 58
1, 226138, Note_off_c, 0, 64, 55
1, 226145, Note_off_c, 0, 74, 52
1, 226165, Note_off_c, 0, 60, 50
1, 226403, Note_on_c, 0, 72, 45
1, 226408, Note_on_c, 0, 57, 30
1, 226409, Note_on_c, 0, 65, 42
1, 226412, Note_on_c, 0, 60, 33
1, 226440, Note_off_c, 0, 72, 64
1, 226445, Note_off_c, 0, 65, 61
1, 226445, Note_off_c, 0, 57, 54
1, 226446, Note_off_c, 0, 60, 59
1, 227061, Note_on_c, 0, 72, 77
1, 227105, Note_off_c, 0, 72, 62
1, 227127, Control_c, 0, 64, 50
1, 227131, Note_on_c, 0, 77, 91
1, 227134, Note_on_c, 0, 62, 95
1, 227137, Note_on_c, 0, 65, 97
1, 227137, Note_on_c, 0, 71, 88
1, 227137, Note_on_c, 0, 50, 76
1, 227142, Control_c, 0, 64, 71
1, 227156, Control_c, 0, 64, 99
1, 227158, Note_on_c, 0, 72, 29
1, 227160, Note_off_c, 0, 62, 65
1, 227162, Note_off_c, 0, 50, 67
1, 227171, Control_c, 0, 64, 127
1, 227173, Note_off_c, 0, 65, 62
1, 227182, Note_off_c, 0, 71, 67
1, 227187, Note_off_c, 0, 77, 67
1, 227198, Note_off_c, 0, 72, 41
1, 227244, Poly_aftertouch_c, 0, 74, 0
1, 227261, Control_c, 0, 64, 88
1, 227276, Control_c, 0, 64, 67
1, 227291, Control_c, 0, 64, 38
1, 227306, Control_c, 0, 64, 0
1, 227491, Control_c, 0, 64, 56
1, 227498, Note_on_c, 0, 48, 76
1, 227500, Note_on_c, 0, 76, 101
1, 227501, Note_on_c, 0, 67, 93
1, 227502, Note_on_c, 0, 60, 84
1, 227506, Control_c, 0, 64, 71
1, 227510, Note_on_c, 0, 72, 87
1, 227520, Control_c, 0, 64, 94
1, 227533, Note_off_c, 0, 67, 63
1, 227534, Note_off_c, 0, 72, 62
1, 227535, Control_c, 0, 64, 127
1, 227543, Note_off_c, 0, 60, 61
1, 227546, Note_off_c, 0, 76, 67
1, 227547, Note_off_c, 0, 48, 63
1, 227861, Control_c, 0, 64, 109
1, 227876, Control_c, 0, 64, 91
1, 227891, Control_c, 0, 64, 78
1, 227906, Control_c, 0, 64, 70
1, 227920, Control_c, 0, 64, 64
1, 227935, Control_c, 0, 64, 59
1, 227950, Control_c, 0, 64, 56
1, 227965, Control_c, 0, 64, 53
1, 227979, Control_c, 0, 64, 51
1, 227995, Control_c, 0, 64, 47
1, 228010, Control_c, 0, 64, 42
1, 228025, Control_c, 0, 64, 36
1, 228040, Control_c, 0, 64, 0
1, 228402, Control_c, 0, 67, 19
1, 228432, Control_c, 0, 64, 37
1, 228432, Control_c, 0, 67, 22
1, 228447, Control_c, 0, 64, 50
1, 228462, Control_c, 0, 64, 57
1, 228462, Control_c, 0, 67, 26
1, 228476, Control_c, 0, 64, 61
1, 228476, Control_c, 0, 67, 28
1, 228491, Control_c, 0, 64, 66
1, 228491, Control_c, 0, 67, 32
1, 228506, Control_c, 0, 64, 70
1, 228506, Control_c, 0, 67, 36
1, 228520, Control_c, 0, 64, 75
1, 228520, Control_c, 0, 67, 41
1, 228535, Control_c, 0, 64, 82
1, 228535, Control_c, 0, 67, 49
1, 228550, Control_c, 0, 64, 90
1, 228550, Control_c, 0, 67, 57
1, 228565, Control_c, 0, 64, 97
1, 228565, Control_c, 0, 67, 68
1, 228580, Control_c, 0, 64, 107
1, 228580, Control_c, 0, 67, 79
1, 228594, Control_c, 0, 64, 127
1, 228594, Control_c, 0, 67, 91
1, 228609, Control_c, 0, 67, 103
1, 228624, Control_c, 0, 67, 116
1, 228639, Control_c, 0, 67, 127
1, 229088, Note_on_c, 0, 53, 28
1, 229137, Control_c, 0, 64, 96
1, 229152, Control_c, 0, 64, 77
1, 229167, Control_c, 0, 64, 64
1, 229182, Control_c, 0, 64, 50
1, 229197, Control_c, 0, 64, 47
1, 229211, Control_c, 0, 64, 51
1, 229226, Control_c, 0, 64, 56
1, 229241, Control_c, 0, 64, 61
1, 229256, Control_c, 0, 64, 64
1, 229269, Poly_aftertouch_c, 0, 57, 127
1, 229271, Control_c, 0, 64, 69
1, 229286, Control_c, 0, 64, 74
1, 229300, Control_c, 0, 64, 77
1, 229315, Control_c, 0, 64, 78
1, 229329, Poly_aftertouch_c, 0, 57, 0
1, 229330, Control_c, 0, 64, 79
1, 229344, Control_c, 0, 64, 80
1, 229359, Control_c, 0, 64, 81
1, 229364, Note_on_c, 0, 60, 31
1, 229374, Control_c, 0, 64, 83
1, 229389, Control_c, 0, 64, 85
1, 229404, Control_c, 0, 64, 86
1, 229433, Control_c, 0, 64, 86
1, 229457, Note_off_c, 0, 53, 40
1, 229463, Control_c, 0, 64, 87
1, 229471, Note_on_c, 0, 57, 36
1, 229522, Control_c, 0, 64, 87
1, 229566, Control_c, 0, 64, 86
1, 229581, Control_c, 0, 64, 80
1, 229597, Control_c, 0, 64, 72
1, 229605, Note_on_c, 0, 53, 37
1, 229612, Control_c, 0, 64, 63
1, 229613, Note_off_c, 0, 57, 31
1, 229617, Note_off_c, 0, 60, 13
1, 229627, Control_c, 0, 64, 54
1, 229641, Control_c, 0, 64, 48
1, 229656, Control_c, 0, 64, 50
1, 229679, Control_c, 0, 64, 55
1, 229694, Control_c, 0, 64, 59
1, 229709, Control_c, 0, 64, 62
1, 229723, Control_c, 0, 64, 66
1, 229733, Note_on_c, 0, 57, 30
1, 229738, Control_c, 0, 64, 69
1, 229753, Control_c, 0, 64, 72
1, 229767, Control_c, 0, 64, 74
1, 229782, Control_c, 0, 64, 76
1, 229797, Control_c, 0, 64, 77
1, 229812, Control_c, 0, 64, 78
1, 229819, Note_off_c, 0, 57, 51
1, 229827, Control_c, 0, 64, 79
1, 229841, Control_c, 0, 64, 80
1, 229877, Note_on_c, 0, 60, 34
1, 229886, Control_c, 0, 64, 80
1, 229901, Control_c, 0, 64, 81
1, 229931, Note_off_c, 0, 53, 37
1, 229941, Note_off_c, 0, 60, 40
1, 229965, Note_on_c, 0, 57, 45
1, 230025, Note_off_c, 0, 57, 50
1, 230079, Control_c, 0, 64, 80
1, 230094, Control_c, 0, 64, 76
1, 230100, Note_on_c, 0, 52, 38
1, 230109, Control_c, 0, 64, 69
1, 230123, Control_c, 0, 64, 60
1, 230138, Control_c, 0, 64, 36
1, 230153, Control_c, 0, 64, 0
1, 230197, Control_c, 0, 64, 34
1, 230212, Control_c, 0, 64, 49
1, 230220, Note_on_c, 0, 58, 41
1, 230227, Control_c, 0, 64, 61
1, 230241, Control_c, 0, 64, 67
1, 230256, Control_c, 0, 64, 73
1, 230270, Control_c, 0, 64, 76
1, 230285, Control_c, 0, 64, 77
1, 230300, Control_c, 0, 64, 78
1, 230314, Note_off_c, 0, 58, 54
1, 230314, Control_c, 0, 64, 79
1, 230329, Control_c, 0, 64, 79
1, 230344, Control_c, 0, 64, 80
1, 230353, Note_on_c, 0, 60, 36
1, 230359, Control_c, 0, 64, 80
1, 230374, Control_c, 0, 64, 81
1, 230389, Control_c, 0, 64, 81
1, 230427, Control_c, 0, 64, 82
1, 230438, Note_off_c, 0, 60, 40
1, 230446, Note_off_c, 0, 52, 41
1, 230480, Note_on_c, 0, 58, 37
1, 230544, Note_off_c, 0, 58, 48
1, 230560, Control_c, 0, 64, 82
1, 230580, Note_on_c, 0, 52, 38
1, 230649, Control_c, 0, 64, 83
1, 230663, Control_c, 0, 64, 83
1, 230678, Control_c, 0, 64, 84
1, 230693, Control_c, 0, 64, 85
1, 230705, Note_on_c, 0, 58, 43
1, 230708, Note_off_c, 0, 52, 35
1, 230708, Control_c, 0, 64, 85
1, 230738, Control_c, 0, 64, 86
1, 230778, Note_off_c, 0, 58, 50
1, 230830, Note_on_c, 0, 60, 38
1, 230899, Note_off_c, 0, 60, 51
1, 230924, Note_on_c, 0, 58, 41
1, 230987, Note_off_c, 0, 58, 42
1, 231020, Control_c, 0, 64, 85
1, 231035, Control_c, 0, 64, 83
1, 231048, Note_on_c, 0, 53, 37
1, 231050, Control_c, 0, 64, 77
1, 231064, Control_c, 0, 64, 69
1, 231079, Control_c, 0, 64, 56
1, 231091, Note_on_c, 0, 72, 69
1, 231094, Control_c, 0, 64, 0
1, 231176, Control_c, 0, 64, 46
1, 231191, Control_c, 0, 64, 58
1, 231206, Control_c, 0, 64, 64
1, 231221, Control_c, 0, 64, 69
1, 231221, Control_c, 0, 67, 125
1, 231224, Note_on_c, 0, 57, 36
1, 231236, Control_c, 0, 64, 72
1, 231236, Control_c, 0, 67, 112
1, 231250, Control_c, 0, 64, 75
1, 231250, Control_c, 0, 67, 97
1, 231265, Control_c, 0, 64, 78
1, 231265, Control_c, 0, 67, 79
1, 231280, Control_c, 0, 64, 82
1, 231280, Control_c, 0, 67, 56
1, 231291, Note_off_c, 0, 57, 55
1, 231295, Control_c, 0, 64, 86
1, 231295, Control_c, 0, 67, 39
1, 231310, Control_c, 0, 64, 90
1, 231310, Control_c, 0, 67, 25
1, 231325, Control_c, 0, 64, 94
1, 231325, Control_c, 0, 67, 0
1, 231339, Control_c, 0, 64, 96
1, 231340, Note_on_c, 0, 60, 37
1, 231354, Control_c, 0, 64, 98
1, 231384, Control_c, 0, 64, 101
1, 231411, Note_off_c, 0, 53, 40
1, 231413, Control_c, 0, 64, 104
1, 231435, Note_on_c, 0, 57, 48
1, 231496, Note_off_c, 0, 57, 54
1, 231537, Note_on_c, 0, 53, 47
1, 231576, Note_off_c, 0, 72, 49
1, 231606, Control_c, 0, 64, 101
1, 231620, Control_c, 0, 64, 99
1, 231625, Note_off_c, 0, 60, 12
1, 231626, Note_on_c, 0, 74, 65
1, 231635, Control_c, 0, 64, 96
1, 231650, Note_on_c, 0, 57, 42
1, 231650, Control_c, 0, 64, 92
1, 231665, Control_c, 0, 64, 83
1, 231673, Note_off_c, 0, 74, 54
1, 231680, Note_on_c, 0, 72, 60
1, 231680, Control_c, 0, 64, 74
1, 231695, Control_c, 0, 64, 63
1, 231709, Note_off_c, 0, 72, 67
1, 231709, Control_c, 0, 64, 42
1, 231716, Note_on_c, 0, 71, 68
1, 231724, Note_off_c, 0, 57, 57
1, 231724, Control_c, 0, 64, 0
1, 231766, Note_on_c, 0, 60, 47
1, 231776, Note_on_c, 0, 72, 70
1, 231793, Note_off_c, 0, 71, 55
1, 231813, Control_c, 0, 64, 48
1, 231828, Control_c, 0, 64, 62
1, 231843, Control_c, 0, 64, 66
1, 231858, Control_c, 0, 64, 68
1, 231858, Control_c, 0, 67, 21
1, 231868, Note_on_c, 0, 57, 45
1, 231873, Control_c, 0, 64, 68
1, 231873, Control_c, 0, 67, 25
1, 231882, Note_on_c, 0, 74, 73
1, 231887, Control_c, 0, 67, 29
1, 231896, Note_off_c, 0, 60, 31
1, 231896, Note_off_c, 0, 72, 55
1, 231902, Control_c, 0, 64, 68
1, 231902, Control_c, 0, 67, 34
1, 231924, Control_c, 0, 64, 66
1, 231924, Control_c, 0, 67, 41
1, 231939, Control_c, 0, 64, 64
1, 231939, Control_c, 0, 67, 50
1, 231954, Control_c, 0, 64, 62
1, 231954, Control_c, 0, 67, 63
1, 231957, Note_off_c, 0, 57, 50
1, 231969, Control_c, 0, 64, 56
1, 231969, Control_c, 0, 67, 79
1, 231978, Note_off_c, 0, 53, 34
1, 231984, Control_c, 0, 64, 45
1, 231984, Control_c, 0, 67, 92
1, 231998, Note_on_c, 0, 55, 37
1, 231999, Control_c, 0, 64, 0
1, 231999, Control_c, 0, 67, 104
1, 232008, Note_off_c, 0, 74, 59
1, 232014, Control_c, 0, 67, 113
1, 232026, Note_on_c, 0, 65, 67
1, 232029, Control_c, 0, 67, 120
1, 232043, Control_c, 0, 67, 125
1, 232058, Control_c, 0, 67, 127
1, 232145, Note_on_c, 0, 58, 41
1, 232148, Control_c, 0, 64, 39
1, 232162, Control_c, 0, 64, 54
1, 232177, Control_c, 0, 64, 63
1, 232192, Control_c, 0, 64, 66
1, 232204, Note_off_c, 0, 58, 59
1, 232207, Control_c, 0, 64, 70
1, 232222, Control_c, 0, 64, 72
1, 232236, Control_c, 0, 64, 75
1, 232251, Control_c, 0, 64, 78
1, 232266, Control_c, 0, 64, 83
1, 232268, Note_on_c, 0, 60, 33
1, 232281, Control_c, 0, 64, 87
1, 232296, Control_c, 0, 64, 90
1, 232310, Control_c, 0, 64, 92
1, 232325, Control_c, 0, 64, 93
1, 232340, Control_c, 0, 64, 93
1, 232348, Note_on_c, 0, 58, 45
1, 232348, Note_off_c, 0, 55, 37
1, 232355, Control_c, 0, 64, 94
1, 232384, Control_c, 0, 64, 94
1, 232438, Note_off_c, 0, 58, 51
1, 232473, Control_c, 0, 64, 92
1, 232479, Note_off_c, 0, 60, 23
1, 232488, Control_c, 0, 64, 83
1, 232499, Note_on_c, 0, 55, 40
1, 232502, Control_c, 0, 64, 72
1, 232510, Note_on_c, 0, 64, 46
1, 232516, Control_c, 0, 64, 62
1, 232526, Note_off_c, 0, 65, 37
1, 232531, Control_c, 0, 64, 41
1, 232546, Control_c, 0, 64, 0
1, 232590, Control_c, 0, 64, 42
1, 232605, Control_c, 0, 64, 52
1, 232620, Control_c, 0, 64, 60
1, 232632, Note_on_c, 0, 58, 35
1, 232634, Control_c, 0, 64, 65
1, 232649, Control_c, 0, 64, 69
1, 232672, Control_c, 0, 64, 73
1, 232687, Control_c, 0, 64, 76
1, 232701, Control_c, 0, 64, 79
1, 232710, Note_off_c, 0, 58, 56
1, 232716, Control_c, 0, 64, 83
1, 232731, Control_c, 0, 64, 86
1, 232744, Note_off_c, 0, 64, 62
1, 232746, Control_c, 0, 64, 89
1, 232761, Control_c, 0, 64, 92
1, 232775, Control_c, 0, 64, 94
1, 232791, Control_c, 0, 64, 94
1, 232792, Note_on_c, 0, 60, 14
1, 232806, Control_c, 0, 64, 95
1, 232836, Control_c, 0, 64, 95
1, 232854, Note_off_c, 0, 60, 42
1, 232860, Note_on_c, 0, 58, 39
1, 232934, Note_off_c, 0, 58, 39
1, 232935, Note_off_c, 0, 55, 36
1, 232991, Note_on_c, 0, 53, 40
1, 232998, Control_c, 0, 64, 95
1, 233013, Control_c, 0, 64, 90
1, 233028, Control_c, 0, 64, 81
1, 233043, Control_c, 0, 64, 70
1, 233057, Control_c, 0, 64, 59
1, 233072, Control_c, 0, 64, 0
1, 233123, Note_on_c, 0, 57, 29
1, 233131, Control_c, 0, 64, 47
1, 233134, Note_on_c, 0, 65, 61
1, 233146, Control_c, 0, 64, 59
1, 233161, Control_c, 0, 64, 66
1, 233176, Control_c, 0, 64, 70
1, 233191, Control_c, 0, 64, 74
1, 233206, Control_c, 0, 64, 76
1, 233207, Note_off_c, 0, 57, 39
1, 233221, Control_c, 0, 64, 77
1, 233236, Control_c, 0, 64, 79
1, 233236, Control_c, 0, 67, 110
1, 233239, Note_on_c, 0, 69, 68
1, 233246, Note_on_c, 0, 60, 38
1, 233251, Control_c, 0, 64, 81
1, 233251, Control_c, 0, 67, 93
1, 233255, Note_off_c, 0, 65, 59
1, 233265, Control_c, 0, 64, 83
1, 233265, Control_c, 0, 67, 75
1, 233280, Control_c, 0, 64, 85
1, 233280, Control_c, 0, 67, 58
1, 233295, Control_c, 0, 64, 87
1, 233295, Control_c, 0, 67, 46
1, 233309, Control_c, 0, 64, 87
1, 233309, Control_c, 0, 67, 36
1, 233324, Control_c, 0, 64, 88
1, 233324, Control_c, 0, 67, 28
1, 233338, Note_on_c, 0, 72, 80
1, 233339, Control_c, 0, 64, 90
1, 233339, Control_c, 0, 67, 21
1, 233343, Note_off_c, 0, 53, 40
1, 233350, Note_on_c, 0, 57, 43
1, 233351, Note_off_c, 0, 69, 62
1, 233354, Control_c, 0, 64, 93
1, 233354, Control_c, 0, 67, 0
1, 233369, Control_c, 0, 64, 94
1, 233378, Note_off_c, 0, 72, 63
1, 233383, Control_c, 0, 64, 95
1, 233435, Control_c, 0, 64, 94
1, 233450, Control_c, 0, 64, 88
1, 233463, Note_on_c, 0, 77, 78
1, 233465, Control_c, 0, 64, 73
1, 233479, Note_on_c, 0, 53, 43
1, 233480, Control_c, 0, 64, 60
1, 233489, Note_off_c, 0, 57, 37
1, 233495, Control_c, 0, 64, 0
1, 233537, Note_off_c, 0, 60, 36
1, 233539, Control_c, 0, 64, 46
1, 233554, Control_c, 0, 64, 58
1, 233566, Note_on_c, 0, 81, 87
1, 233569, Control_c, 0, 64, 66
1, 233584, Control_c, 0, 64, 71
1, 233590, Note_off_c, 0, 77, 58
1, 233599, Control_c, 0, 64, 75
1, 233607, Note_on_c, 0, 57, 50
1, 233614, Control_c, 0, 64, 78
1, 233629, Control_c, 0, 64, 80
1, 233635, Note_off_c, 0, 81, 63
1, 233644, Control_c, 0, 64, 81
1, 233659, Control_c, 0, 64, 82
1, 233671, Note_off_c, 0, 57, 53
1, 233674, Note_on_c, 0, 84, 88
1, 233688, Control_c, 0, 64, 83
1, 233703, Control_c, 0, 64, 83
1, 233718, Note_off_c, 0, 84, 63
1, 233718, Control_c, 0, 64, 84
1, 233719, Note_on_c, 0, 60, 47
1, 233754, Note_off_c, 0, 53, 22
1, 233764, Note_off_c, 0, 60, 47
1, 233780, Note_on_c, 0, 84, 77
1, 233809, Note_on_c, 0, 57, 45
1, 233836, Control_c, 0, 64, 83
1, 233847, Note_off_c, 0, 84, 59
1, 233850, Note_off_c, 0, 57, 46
1, 233851, Control_c, 0, 64, 82
1, 233866, Control_c, 0, 64, 79
1, 233880, Control_c, 0, 64, 74
1, 233895, Control_c, 0, 64, 68
1, 233900, Note_on_c, 0, 52, 41
1, 233910, Control_c, 0, 64, 60
1, 233912, Note_on_c, 0, 83, 67
1, 233925, Control_c, 0, 64, 38
1, 233939, Control_c, 0, 64, 0
1, 233955, Note_off_c, 0, 83, 63
1, 233960, Note_on_c, 0, 84, 72
1, 233990, Note_off_c, 0, 84, 63
1, 234003, Note_on_c, 0, 86, 69
1, 234050, Note_on_c, 0, 84, 77
1, 234081, Note_on_c, 0, 58, 47
1, 234085, Note_off_c, 0, 86, 60
1, 234088, Control_c, 0, 67, 22
1, 234103, Control_c, 0, 64, 50
1, 234103, Control_c, 0, 67, 25
1, 234118, Control_c, 0, 64, 64
1, 234118, Control_c, 0, 67, 28
1, 234133, Control_c, 0, 64, 69
1, 234133, Control_c, 0, 67, 37
1, 234148, Control_c, 0, 64, 74
1, 234148, Control_c, 0, 67, 50
1, 234163, Note_off_c, 0, 58, 58
1, 234170, Control_c, 0, 64, 76
1, 234170, Control_c, 0, 67, 68
1, 234185, Control_c, 0, 64, 78
1, 234185, Control_c, 0, 67, 85
1, 234200, Control_c, 0, 64, 79
1, 234200, Control_c, 0, 67, 98
1, 234203, Note_on_c, 0, 60, 43
1, 234214, Control_c, 0, 64, 81
1, 234214, Control_c, 0, 67, 107
1, 234229, Control_c, 0, 64, 82
1, 234229, Control_c, 0, 67, 116
1, 234244, Control_c, 0, 64, 83
1, 234244, Control_c, 0, 67, 121
1, 234258, Control_c, 0, 67, 124
1, 234273, Control_c, 0, 64, 84
1, 234279, Note_off_c, 0, 60, 39
1, 234285, Note_off_c, 0, 52, 35
1, 234297, Note_on_c, 0, 58, 49
1, 234310, Note_on_c, 0, 82, 68
1, 234312, Note_off_c, 0, 84, 58
1, 234348, Control_c, 0, 64, 83
1, 234359, Note_on_c, 0, 81, 78
1, 234362, Control_c, 0, 64, 76
1, 234373, Note_off_c, 0, 58, 53
1, 234377, Control_c, 0, 64, 67
1, 234383, Note_off_c, 0, 82, 62
1, 234393, Control_c, 0, 64, 51
1, 234408, Control_c, 0, 64, 0
1, 234408, Control_c, 0, 67, 122
1, 234421, Note_on_c, 0, 52, 40
1, 234423, Control_c, 0, 67, 120
1, 234431, Note_off_c, 0, 81, 64
1, 234436, Note_on_c, 0, 79, 76
1, 234437, Control_c, 0, 67, 116
1, 234452, Control_c, 0, 67, 112
1, 234467, Control_c, 0, 64, 40
1, 234467, Control_c, 0, 67, 105
1, 234482, Control_c, 0, 64, 57
1, 234482, Control_c, 0, 67, 87
1, 234497, Control_c, 0, 64, 67
1, 234497, Control_c, 0, 67, 59
1, 234512, Control_c, 0, 64, 74
1, 234512, Control_c, 0, 67, 31
1, 234526, Control_c, 0, 64, 84
1, 234526, Control_c, 0, 67, 0
1, 234538, Note_off_c, 0, 79, 65
1, 234541, Control_c, 0, 64, 94
1, 234556, Control_c, 0, 64, 116
1, 234559, Note_on_c, 0, 58, 42
1, 234571, Control_c, 0, 64, 127
1, 234638, Note_off_c, 0, 58, 58
1, 234675, Note_off_c, 0, 52, 39
1, 234688, Note_on_c, 0, 60, 39
1, 234761, Note_off_c, 0, 60, 50
1, 234774, Note_on_c, 0, 58, 47
1, 234824, Note_off_c, 0, 58, 54
1, 234931, Note_on_c, 0, 53, 35
1, 234978, Control_c, 0, 64, 99
1, 234991, Note_on_c, 0, 72, 70
1, 234993, Control_c, 0, 64, 78
1, 235008, Control_c, 0, 64, 65
1, 235023, Control_c, 0, 64, 44
1, 235037, Control_c, 0, 64, 0
1, 235096, Control_c, 0, 64, 44
1, 235111, Note_on_c, 0, 56, 41
1, 235111, Control_c, 0, 64, 58
1, 235126, Control_c, 0, 64, 67
1, 235141, Control_c, 0, 64, 75
1, 235155, Control_c, 0, 64, 87
1, 235170, Control_c, 0, 64, 96
1, 235186, Control_c, 0, 64, 109
1, 235191, Note_off_c, 0, 56, 54
1, 235201, Control_c, 0, 64, 127
1, 235235, Note_on_c, 0, 60, 39
1, 235318, Note_off_c, 0, 53, 39
1, 235328, Note_on_c, 0, 56, 50
1, 235409, Note_off_c, 0, 56, 47
1, 235429, Note_off_c, 0, 60, 23
1, 235440, Note_on_c, 0, 53, 47
1, 235489, Note_off_c, 0, 72, 56
1, 235530, Note_on_c, 0, 73, 58
1, 235561, Note_on_c, 0, 56, 47
1, 235572, Control_c, 0, 64, 111
1, 235580, Note_off_c, 0, 73, 54
1, 235584, Note_on_c, 0, 72, 57
1, 235586, Control_c, 0, 64, 99
1, 235601, Control_c, 0, 64, 87
1, 235608, Note_off_c, 0, 72, 65
1, 235613, Note_on_c, 0, 70, 68
1, 235616, Control_c, 0, 64, 74
1, 235631, Control_c, 0, 64, 61
1, 235646, Control_c, 0, 64, 0
1, 235656, Note_off_c, 0, 56, 55
1, 235677, Note_off_c, 0, 70, 61
1, 235692, Note_on_c, 0, 72, 68
1, 235701, Note_on_c, 0, 60, 34
1, 235757, Control_c, 0, 64, 51
1, 235772, Control_c, 0, 64, 63
1, 235786, Control_c, 0, 64, 66
1, 235798, Note_off_c, 0, 72, 61
1, 235800, Note_on_c, 0, 56, 44
1, 235801, Control_c, 0, 64, 69
1, 235802, Note_on_c, 0, 73, 66
1, 235816, Control_c, 0, 64, 70
1, 235830, Control_c, 0, 64, 70
1, 235877, Note_off_c, 0, 53, 30
1, 235897, Note_off_c, 0, 60, 19
1, 235921, Note_off_c, 0, 56, 35
1, 235934, Control_c, 0, 64, 68
1, 235940, Note_on_c, 0, 55, 36
1, 235949, Control_c, 0, 64, 64
1, 235959, Note_off_c, 0, 73, 58
1, 235964, Control_c, 0, 64, 54
1, 235974, Note_on_c, 0, 65, 56
1, 235980, Control_c, 0, 64, 0
1, 236083, Control_c, 0, 64, 38
1, 236098, Control_c, 0, 64, 51
1, 236113, Control_c, 0, 64, 60
1, 236116, Note_on_c, 0, 58, 37
1, 236127, Control_c, 0, 64, 64
1, 236142, Control_c, 0, 64, 67
1, 236157, Control_c, 0, 64, 69
1, 236171, Note_off_c, 0, 58, 59
1, 236172, Control_c, 0, 64, 72
1, 236187, Control_c, 0, 64, 74
1, 236202, Control_c, 0, 64, 78
1, 236217, Control_c, 0, 64, 82
1, 236226, Note_on_c, 0, 60, 36
1, 236232, Control_c, 0, 64, 86
1, 236246, Control_c, 0, 64, 89
1, 236261, Control_c, 0, 64, 91
1, 236276, Control_c, 0, 64, 91
1, 236287, Note_off_c, 0, 55, 35
1, 236291, Control_c, 0, 64, 92
1, 236306, Control_c, 0, 64, 92
1, 236313, Note_on_c, 0, 58, 41
1, 236321, Control_c, 0, 64, 93
1, 236416, Control_c, 0, 64, 91
1, 236419, Note_off_c, 0, 60, 20
1, 236425, Note_off_c, 0, 58, 35
1, 236431, Control_c, 0, 64, 83
1, 236446, Control_c, 0, 64, 71
1, 236451, Note_on_c, 0, 55, 33
1, 236461, Control_c, 0, 64, 56
1, 236473, Note_off_c, 0, 65, 37
1, 236474, Note_on_c, 0, 64, 37
1, 236476, Control_c, 0, 64, 0
1, 236580, Control_c, 0, 64, 36
1, 236595, Control_c, 0, 64, 52
1, 236609, Control_c, 0, 64, 62
1, 236610, Note_on_c, 0, 58, 31
1, 236624, Control_c, 0, 64, 66
1, 236639, Control_c, 0, 64, 68
1, 236653, Control_c, 0, 64, 71
1, 236664, Note_off_c, 0, 58, 57
1, 236668, Control_c, 0, 64, 74
1, 236683, Control_c, 0, 64, 77
1, 236698, Control_c, 0, 64, 80
1, 236713, Control_c, 0, 64, 83
1, 236720, Note_off_c, 0, 64, 61
1, 236727, Control_c, 0, 64, 86
1, 236737, Note_on_c, 0, 60, 29
1, 236742, Control_c, 0, 64, 90
1, 236757, Control_c, 0, 64, 92
1, 236772, Control_c, 0, 64, 94
1, 236788, Control_c, 0, 64, 94
1, 236799, Note_off_c, 0, 60, 43
1, 236803, Control_c, 0, 64, 95
1, 236831, Note_on_c, 0, 58, 38
1, 236832, Control_c, 0, 64, 98
1, 236890, Note_off_c, 0, 58, 46
1, 236891, Control_c, 0, 64, 92
1, 236906, Control_c, 0, 64, 79
1, 236921, Control_c, 0, 64, 65
1, 236926, Note_off_c, 0, 55, 35
1, 236936, Control_c, 0, 64, 36
1, 236946, Note_on_c, 0, 53, 39
1, 236950, Control_c, 0, 64, 0
1, 236965, Control_c, 0, 67, 24
1, 236980, Control_c, 0, 67, 34
1, 236995, Control_c, 0, 67, 50
1, 237010, Control_c, 0, 67, 70
1, 237024, Control_c, 0, 64, 54
1, 237024, Control_c, 0, 67, 87
1, 237039, Control_c, 0, 64, 64
1, 237039, Control_c, 0, 67, 100
1, 237054, Control_c, 0, 64, 69
1, 237054, Control_c, 0, 67, 110
1, 237068, Note_on_c, 0, 65, 53
1, 237069, Control_c, 0, 64, 72
1, 237069, Control_c, 0, 67, 118
1, 237072, Note_on_c, 0, 56, 38
1, 237084, Control_c, 0, 64, 74
1, 237084, Control_c, 0, 67, 126
1, 237099, Control_c, 0, 64, 76
1, 237114, Control_c, 0, 64, 79
1, 237121, Note_off_c, 0, 65, 52
1, 237129, Control_c, 0, 64, 81
1, 237139, Note_off_c, 0, 56, 54
1, 237144, Control_c, 0, 64, 84
1, 237165, Control_c, 0, 64, 86
1, 237180, Control_c, 0, 64, 88
1, 237195, Note_on_c, 0, 68, 60
1, 237195, Control_c, 0, 64, 90
1, 237210, Control_c, 0, 64, 92
1, 237218, Note_on_c, 0, 60, 36
1, 237225, Control_c, 0, 64, 94
1, 237239, Control_c, 0, 64, 95
1, 237269, Control_c, 0, 64, 99
1, 237276, Note_off_c, 0, 53, 40
1, 237284, Control_c, 0, 64, 101
1, 237298, Note_on_c, 0, 72, 63
1, 237299, Note_on_c, 0, 56, 43
1, 237302, Note_off_c, 0, 68, 63
1, 237326, Note_off_c, 0, 72, 66
1, 237358, Control_c, 0, 64, 86
1, 237373, Control_c, 0, 64, 72
1, 237388, Control_c, 0, 64, 61
1, 237388, Note_off_c, 0, 56, 54
1, 237392, Note_off_c, 0, 60, 41
1, 237403, Control_c, 0, 64, 50
1, 237407, Note_on_c, 0, 53, 43
1, 237417, Control_c, 0, 64, 52
1, 237428, Note_on_c, 0, 77, 56
1, 237432, Control_c, 0, 64, 56
1, 237447, Control_c, 0, 64, 60
1, 237462, Control_c, 0, 64, 63
1, 237477, Control_c, 0, 64, 67
1, 237491, Control_c, 0, 64, 71
1, 237506, Control_c, 0, 64, 75
1, 237521, Control_c, 0, 64, 77
1, 237527, Note_off_c, 0, 77, 49
1, 237532, Note_on_c, 0, 80, 67
1, 237536, Control_c, 0, 64, 78
1, 237536, Control_c, 0, 67, 117
1, 237546, Note_on_c, 0, 56, 43
1, 237551, Control_c, 0, 67, 103
1, 237565, Control_c, 0, 67, 91
1, 237581, Control_c, 0, 67, 76
1, 237596, Control_c, 0, 64, 77
1, 237596, Control_c, 0, 67, 56
1, 237606, Note_off_c, 0, 80, 62
1, 237611, Control_c, 0, 64, 74
1, 237611, Control_c, 0, 67, 37
1, 237620, Note_off_c, 0, 53, 36
1, 237626, Control_c, 0, 64, 69
1, 237626, Control_c, 0, 67, 21
1, 237628, Note_off_c, 0, 56, 59
1, 237641, Control_c, 0, 64, 64
1, 237641, Control_c, 0, 67, 0
1, 237651, Note_on_c, 0, 84, 66
1, 237655, Control_c, 0, 64, 59
1, 237670, Control_c, 0, 64, 54
1, 237675, Note_on_c, 0, 60, 47
1, 237680, Note_off_c, 0, 84, 65
1, 237685, Control_c, 0, 64, 50
1, 237699, Control_c, 0, 64, 46
1, 237714, Control_c, 0, 64, 39
1, 237729, Control_c, 0, 64, 0
1, 237769, Note_on_c, 0, 84, 68
1, 237791, Note_on_c, 0, 56, 34
1, 237791, Note_off_c, 0, 60, 52
1, 237798, Note_off_c, 0, 84, 63
1, 237864, Note_off_c, 0, 56, 53
1, 237911, Note_on_c, 0, 84, 59
1, 237913, Note_on_c, 0, 51, 37
1, 237959, Control_c, 0, 64, 39
1, 237974, Control_c, 0, 64, 51
1, 237988, Control_c, 0, 64, 60
1, 238003, Control_c, 0, 64, 64
1, 238018, Control_c, 0, 64, 66
1, 238032, Control_c, 0, 64, 69
1, 238047, Control_c, 0, 64, 73
1, 238049, Note_on_c, 0, 54, 30
1, 238062, Control_c, 0, 64, 79
1, 238077, Control_c, 0, 64, 85
1, 238092, Control_c, 0, 64, 93
1, 238107, Control_c, 0, 64, 103
1, 238109, Note_off_c, 0, 54, 54
1, 238121, Control_c, 0, 64, 120
1, 238136, Control_c, 0, 64, 127
1, 238164, Note_on_c, 0, 56, 45
1, 238231, Note_off_c, 0, 84, 30
1, 238255, Note_off_c, 0, 56, 49
1, 238281, Note_on_c, 0, 54, 42
1, 238283, Note_off_c, 0, 51, 40
1, 238350, Note_off_c, 0, 54, 55
1, 238395, Note_on_c, 0, 51, 41
1, 238502, Note_on_c, 0, 80, 63
1, 238519, Note_on_c, 0, 54, 40
1, 238582, Note_off_c, 0, 54, 56
1, 238614, Note_on_c, 0, 82, 72
1, 238621, Note_on_c, 0, 56, 44
1, 238621, Note_off_c, 0, 80, 57
1, 238699, Note_off_c, 0, 56, 51
1, 238722, Note_on_c, 0, 54, 46
1, 238726, Note_on_c, 0, 84, 72
1, 238733, Note_off_c, 0, 82, 59
1, 238785, Note_off_c, 0, 54, 52
1, 238811, Control_c, 0, 64, 89
1, 238814, Note_off_c, 0, 51, 37
1, 238826, Control_c, 0, 64, 71
1, 238838, Note_on_c, 0, 49, 39
1, 238841, Control_c, 0, 64, 52
1, 238855, Control_c, 0, 64, 0
1, 238874, Note_on_c, 0, 85, 63
1, 238876, Note_off_c, 0, 84, 56
1, 238900, Control_c, 0, 64, 42
1, 238915, Control_c, 0, 64, 53
1, 238929, Control_c, 0, 64, 60
1, 238944, Control_c, 0, 64, 68
1, 238959, Control_c, 0, 64, 78
1, 238974, Control_c, 0, 64, 93
1, 238980, Note_on_c, 0, 53, 43
1, 238989, Control_c, 0, 64, 120
1, 239004, Control_c, 0, 64, 127
1, 239069, Note_off_c, 0, 53, 57
1, 239093, Note_on_c, 0, 56, 52
1, 239123, Note_off_c, 0, 85, 58
1, 239197, Note_off_c, 0, 49, 40
1, 239205, Note_on_c, 0, 53, 54
1, 239293, Note_off_c, 0, 53, 60
1, 239295, Note_on_c, 0, 49, 67
1, 239350, Note_off_c, 0, 56, 33
1, 239427, Note_on_c, 0, 80, 84
1, 239428, Note_on_c, 0, 53, 63
1, 239514, Note_off_c, 0, 53, 57
1, 239535, Note_on_c, 0, 56, 60
1, 239548, Note_on_c, 0, 84, 81
1, 239558, Note_off_c, 0, 80, 60
1, 239603, Note_off_c, 0, 49, 58
1, 239633, Note_on_c, 0, 53, 58
1, 239646, Note_on_c, 0, 85, 86
1, 239710, Note_off_c, 0, 56, 24
1, 239734, Note_off_c, 0, 53, 58
1, 239762, Note_on_c, 0, 48, 48
1, 239774, Note_off_c, 0, 84, 43
1, 239783, Control_c, 0, 64, 98
1, 239795, Note_on_c, 0, 87, 81
1, 239797, Control_c, 0, 64, 72
1, 239812, Control_c, 0, 64, 54
1, 239827, Control_c, 0, 64, 0
1, 239846, Note_off_c, 0, 85, 63
1, 239886, Control_c, 0, 64, 41
1, 239901, Control_c, 0, 64, 56
1, 239916, Control_c, 0, 64, 65
1, 239920, Note_on_c, 0, 54, 55
1, 239931, Control_c, 0, 64, 73
1, 239946, Control_c, 0, 64, 86
1, 239961, Control_c, 0, 64, 97
1, 239976, Control_c, 0, 64, 114
1, 239989, Note_off_c, 0, 48, 50
1, 239991, Control_c, 0, 64, 127
1, 240014, Note_off_c, 0, 54, 60
1, 240029, Note_on_c, 0, 56, 65
1, 240092, Note_off_c, 0, 87, 61
1, 240128, Note_on_c, 0, 54, 67
1, 240133, Note_off_c, 0, 56, 55
1, 240223, Note_off_c, 0, 54, 57
1, 240238, Note_on_c, 0, 48, 69
1, 240348, Note_on_c, 0, 80, 80
1, 240350, Note_on_c, 0, 54, 67
1, 240431, Note_off_c, 0, 54, 59
1, 240457, Note_on_c, 0, 56, 56
1, 240467, Note_on_c, 0, 85, 85
1, 240496, Note_off_c, 0, 80, 60
1, 240547, Note_off_c, 0, 56, 56
1, 240551, Note_on_c, 0, 54, 52
1, 240564, Note_on_c, 0, 87, 88
1, 240620, Note_off_c, 0, 85, 62
1, 240649, Note_off_c, 0, 54, 57
1, 240658, Note_off_c, 0, 48, 53
1, 240692, Note_on_c, 0, 49, 49
1, 240694, Control_c, 0, 64, 114
1, 240709, Control_c, 0, 64, 80
1, 240724, Control_c, 0, 64, 62
1, 240739, Note_on_c, 0, 89, 87
1, 240739, Control_c, 0, 64, 0
1, 240789, Note_off_c, 0, 87, 60
1, 240828, Control_c, 0, 64, 49
1, 240843, Control_c, 0, 64, 63
1, 240857, Note_on_c, 0, 53, 49
1, 240858, Control_c, 0, 64, 71
1, 240873, Control_c, 0, 64, 83
1, 240888, Control_c, 0, 64, 100
1, 240910, Control_c, 0, 64, 127
1, 240944, Note_off_c, 0, 53, 60
1, 240953, Note_off_c, 0, 89, 55
1, 240980, Note_on_c, 0, 56, 58
1, 241072, Note_off_c, 0, 56, 49
1, 241075, Note_on_c, 0, 53, 53
1, 241093, Note_on_c, 0, 89, 78
1, 241167, Note_off_c, 0, 49, 36
1, 241192, Control_c, 0, 64, 115
1, 241198, Note_on_c, 0, 47, 44
1, 241203, Note_off_c, 0, 53, 36
1, 241206, Control_c, 0, 64, 79
1, 241221, Control_c, 0, 64, 62
1, 241236, Control_c, 0, 64, 0
1, 241251, Note_on_c, 0, 87, 75
1, 241280, Control_c, 0, 64, 46
1, 241287, Note_off_c, 0, 89, 58
1, 241295, Control_c, 0, 64, 57
1, 241310, Control_c, 0, 64, 65
1, 241324, Control_c, 0, 64, 72
1, 241339, Control_c, 0, 64, 83
1, 241344, Note_on_c, 0, 53, 45
1, 241354, Control_c, 0, 64, 93
1, 241360, Note_off_c, 0, 87, 62
1, 241368, Control_c, 0, 64, 101
1, 241383, Control_c, 0, 64, 109
1, 241398, Control_c, 0, 64, 119
1, 241413, Control_c, 0, 64, 127
1, 241424, Note_off_c, 0, 53, 56
1, 241455, Note_on_c, 0, 56, 48
1, 241516, Note_off_c, 0, 47, 41
1, 241552, Note_off_c, 0, 56, 49
1, 241566, Note_on_c, 0, 53, 49
1, 241592, Note_on_c, 0, 87, 63
1, 241667, Note_off_c, 0, 53, 49
1, 241704, Control_c, 0, 64, 109
1, 241710, Note_on_c, 0, 46, 46
1, 241719, Control_c, 0, 64, 83
1, 241734, Control_c, 0, 64, 64
1, 241748, Control_c, 0, 64, 0
1, 241753, Note_off_c, 0, 87, 57
1, 241758, Note_on_c, 0, 86, 56
1, 241822, Control_c, 0, 64, 49
1, 241837, Control_c, 0, 64, 64
1, 241852, Control_c, 0, 64, 73
1, 241857, Note_on_c, 0, 53, 31
1, 241867, Control_c, 0, 64, 85
1, 241881, Control_c, 0, 64, 99
1, 241896, Control_c, 0, 64, 116
1, 241911, Control_c, 0, 64, 127
1, 241935, Note_off_c, 0, 53, 55
1, 241970, Note_on_c, 0, 56, 42
1, 242058, Note_off_c, 0, 86, 54
1, 242068, Note_off_c, 0, 56, 36
1, 242070, Note_on_c, 0, 53, 50
1, 242078, Note_off_c, 0, 46, 45
1, 242162, Note_off_c, 0, 53, 53
1, 242181, Note_on_c, 0, 46, 65
1, 242296, Note_on_c, 0, 53, 64
1, 242312, Note_on_c, 0, 82, 78
1, 242378, Note_off_c, 0, 53, 60
1, 242414, Note_on_c, 0, 56, 58
1, 242424, Note_on_c, 0, 84, 83
1, 242433, Note_off_c, 0, 82, 61
1, 242492, Note_off_c, 0, 46, 44
1, 242502, Note_off_c, 0, 56, 52
1, 242503, Note_on_c, 0, 53, 59
1, 242516, Note_on_c, 0, 86, 87
1, 242554, Note_off_c, 0, 84, 59
1, 242594, Note_off_c, 0, 53, 58
1, 242622, Note_on_c, 0, 46, 50
1, 242664, Note_on_c, 0, 87, 79
1, 242690, Control_c, 0, 64, 87
1, 242704, Control_c, 0, 64, 67
1, 242719, Control_c, 0, 64, 45
1, 242734, Control_c, 0, 64, 0
1, 242741, Note_off_c, 0, 86, 56
1, 242793, Control_c, 0, 64, 34
1, 242800, Note_on_c, 0, 78, 61
1, 242808, Control_c, 0, 64, 55
1, 242814, Note_on_c, 0, 51, 52
1, 242822, Control_c, 0, 64, 69
1, 242834, Note_off_c, 0, 78, 61
1, 242837, Control_c, 0, 64, 80
1, 242852, Control_c, 0, 64, 98
1, 242867, Control_c, 0, 64, 119
1, 242882, Control_c, 0, 64, 127
1, 242885, Note_off_c, 0, 51, 59
1, 242923, Note_on_c, 0, 54, 58
1, 242924, Note_off_c, 0, 87, 34
1, 243008, Note_on_c, 0, 78, 76
1, 243012, Note_on_c, 0, 51, 57
1, 243014, Note_off_c, 0, 54, 49
1, 243111, Note_off_c, 0, 51, 47
1, 243111, Note_on_c, 0, 45, 50
1, 243111, Note_off_c, 0, 46, 44
1, 243132, Note_on_c, 0, 85, 86
1, 243150, Note_off_c, 0, 78, 60
1, 243156, Control_c, 0, 64, 90
1, 243172, Control_c, 0, 64, 68
1, 243187, Control_c, 0, 64, 43
1, 243201, Control_c, 0, 64, 0
1, 243231, Control_c, 0, 64, 52
1, 243246, Control_c, 0, 64, 62
1, 243258, Note_on_c, 0, 51, 56
1, 243260, Control_c, 0, 64, 72
1, 243264, Note_on_c, 0, 78, 62
1, 243275, Control_c, 0, 64, 85
1, 243290, Control_c, 0, 64, 113
1, 243299, Note_off_c, 0, 85, 53
1, 243305, Control_c, 0, 64, 127
1, 243315, Note_off_c, 0, 78, 54
1, 243341, Note_off_c, 0, 51, 60
1, 243375, Note_on_c, 0, 54, 65
1, 243427, Note_off_c, 0, 45, 41
1, 243480, Note_on_c, 0, 51, 50
1, 243502, Note_on_c, 0, 78, 71
1, 243558, Note_off_c, 0, 54, 25
1, 243585, Note_off_c, 0, 51, 54
1, 243623, Note_on_c, 0, 44, 48
1, 243631, Control_c, 0, 64, 80
1, 243645, Control_c, 0, 64, 62
1, 243655, Note_on_c, 0, 84, 74
1, 243657, Note_off_c, 0, 78, 57
1, 243660, Control_c, 0, 64, 0
1, 243720, Control_c, 0, 64, 49
1, 243734, Control_c, 0, 64, 63
1, 243749, Control_c, 0, 64, 71
1, 243764, Control_c, 0, 64, 81
1, 243779, Control_c, 0, 64, 91
1, 243791, Note_on_c, 0, 51, 49
1, 243794, Control_c, 0, 64, 97
1, 243795, Note_on_c, 0, 78, 56
1, 243809, Control_c, 0, 64, 103
1, 243824, Control_c, 0, 64, 115
1, 243838, Control_c, 0, 64, 127
1, 243851, Note_off_c, 0, 51, 57
1, 243887, Note_on_c, 0, 54, 56
1, 243904, Note_off_c, 0, 84, 55
1, 243952, Note_off_c, 0, 78, 62
1, 243977, Note_off_c, 0, 44, 18
1, 243990, Note_on_c, 0, 51, 64
1, 244042, Note_off_c, 0, 54, 33
1, 244070, Note_off_c, 0, 51, 60
1, 244086, Note_on_c, 0, 44, 75
1, 244185, Note_on_c, 0, 51, 74
1, 244209, Note_on_c, 0, 80, 91
1, 244268, Note_off_c, 0, 51, 60
1, 244303, Note_on_c, 0, 54, 63
1, 244313, Note_on_c, 0, 82, 86
1, 244328, Note_off_c, 0, 80, 62
1, 244378, Note_on_c, 0, 51, 72
1, 244382, Note_off_c, 0, 54, 56
1, 244385, Note_off_c, 0, 44, 44
1, 244409, Note_on_c, 0, 84, 90
1, 244439, Note_off_c, 0, 82, 62
1, 244483, Control_c, 0, 64, 81
1, 244489, Note_off_c, 0, 51, 60
1, 244489, Note_off_c, 0, 84, 62
1, 244498, Control_c, 0, 64, 59
1, 244507, Note_on_c, 0, 85, 95
1, 244510, Note_on_c, 0, 44, 72
1, 244513, Control_c, 0, 64, 0
1, 244528, Control_c, 0, 64, 38
1, 244542, Control_c, 0, 64, 59
1, 244557, Control_c, 0, 64, 70
1, 244572, Control_c, 0, 64, 85
1, 244582, Note_off_c, 0, 85, 62
1, 244587, Control_c, 0, 64, 127
1, 244613, Note_on_c, 0, 76, 68
1, 244613, Note_off_c, 0, 44, 57
1, 244629, Note_on_c, 0, 49, 69
1, 244671, Note_off_c, 0, 76, 56
1, 244712, Note_on_c, 0, 78, 73
1, 244733, Note_off_c, 0, 49, 58
1, 244735, Note_off_c, 0, 78, 68
1, 244736, Note_on_c, 0, 76, 78
1, 244763, Note_on_c, 0, 52, 61
1, 244767, Note_off_c, 0, 76, 61
1, 244781, Note_on_c, 0, 78, 67
1, 244802, Note_off_c, 0, 78, 70
1, 244820, Note_on_c, 0, 76, 70
1, 244835, Note_off_c, 0, 52, 58
1, 244842, Note_off_c, 0, 76, 70
1, 244856, Note_on_c, 0, 49, 70
1, 244856, Note_on_c, 0, 75, 79
1, 244897, Note_on_c, 0, 76, 76
1, 244900, Note_off_c, 0, 75, 64
1, 244936, Control_c, 0, 64, 75
1, 244943, Note_off_c, 0, 49, 62
1, 244951, Note_on_c, 0, 83, 98
1, 244951, Control_c, 0, 64, 41
1, 244954, Note_on_c, 0, 43, 72
1, 244966, Control_c, 0, 64, 0
1, 244969, Note_off_c, 0, 76, 65
1, 244995, Control_c, 0, 64, 45
1, 245010, Control_c, 0, 64, 65
1, 245025, Control_c, 0, 64, 86
1, 245040, Control_c, 0, 64, 127
1, 245063, Note_on_c, 0, 49, 68
1, 245080, Note_on_c, 0, 76, 75
1, 245085, Note_off_c, 0, 83, 62
1, 245106, Note_off_c, 0, 43, 54
1, 245135, Note_off_c, 0, 76, 63
1, 245139, Note_off_c, 0, 49, 61
1, 245159, Note_on_c, 0, 78, 77
1, 245164, Note_on_c, 0, 52, 62
1, 245186, Note_on_c, 0, 76, 73
1, 245186, Note_off_c, 0, 78, 64
1, 245234, Note_off_c, 0, 76, 63
1, 245238, Note_off_c, 0, 52, 50
1, 245240, Note_on_c, 0, 78, 77
1, 245248, Note_on_c, 0, 49, 68
1, 245265, Note_off_c, 0, 78, 67
1, 245271, Note_on_c, 0, 76, 65
1, 245303, Note_off_c, 0, 76, 65
1, 245306, Note_on_c, 0, 75, 76
1, 245356, Note_on_c, 0, 76, 72
1, 245372, Note_off_c, 0, 75, 62
1, 245381, Note_off_c, 0, 49, 60
1, 245398, Note_on_c, 0, 54, 98
1, 245404, Note_on_c, 0, 42, 90
1, 245453, Note_off_c, 0, 76, 61
1, 245477, Control_c, 0, 64, 120
1, 245491, Control_c, 0, 64, 76
1, 245496, Note_on_c, 0, 73, 78
1, 245506, Control_c, 0, 64, 56
1, 245521, Control_c, 0, 64, 0
1, 245547, Note_on_c, 0, 76, 84
1, 245589, Note_off_c, 0, 73, 61
1, 245629, Note_on_c, 0, 82, 106
1, 245640, Control_c, 0, 64, 38
1, 245642, Note_off_c, 0, 76, 60
1, 245655, Control_c, 0, 64, 55
1, 245670, Control_c, 0, 64, 64
1, 245685, Control_c, 0, 64, 74
1, 245700, Control_c, 0, 64, 96
1, 245701, Note_on_c, 0, 76, 70
1, 245714, Control_c, 0, 64, 127
1, 245766, Note_off_c, 0, 82, 52
1, 245779, Note_on_c, 0, 73, 77
1, 245833, Note_off_c, 0, 73, 64
1, 245842, Note_off_c, 0, 76, 60
1, 245863, Control_c, 0, 64, 78
1, 245878, Control_c, 0, 64, 63
1, 245879, Note_on_c, 0, 83, 96
1, 245893, Control_c, 0, 64, 59
1, 245908, Control_c, 0, 64, 65
1, 245922, Control_c, 0, 64, 74
1, 245937, Control_c, 0, 64, 100
1, 245952, Control_c, 0, 64, 127
1, 245973, Note_on_c, 0, 74, 82
1, 246014, Note_off_c, 0, 83, 61
1, 246036, Note_off_c, 0, 42, 62
1, 246036, Note_off_c, 0, 54, 59
1, 246048, Note_on_c, 0, 71, 77
1, 246086, Note_off_c, 0, 74, 61
1, 246103, Note_on_c, 0, 53, 92
1, 246104, Note_off_c, 0, 71, 62
1, 246115, Note_on_c, 0, 41, 70
1, 246118, Note_on_c, 0, 81, 95
1, 246151, Note_off_c, 0, 53, 57
1, 246156, Note_off_c, 0, 41, 61
1, 246197, Note_on_c, 0, 74, 81
1, 246246, Note_off_c, 0, 81, 59
1, 246288, Note_on_c, 0, 71, 75
1, 246313, Note_off_c, 0, 74, 44
1, 246355, Note_on_c, 0, 52, 98
1, 246355, Note_off_c, 0, 71, 59
1, 246367, Note_on_c, 0, 40, 84
1, 246374, Control_c, 0, 64, 82
1, 246388, Control_c, 0, 64, 57
1, 246403, Control_c, 0, 64, 0
1, 246435, Note_on_c, 0, 71, 75
1, 246477, Control_c, 0, 64, 48
1, 246492, Control_c, 0, 64, 64
1, 246507, Control_c, 0, 64, 73
1, 246509, Note_on_c, 0, 74, 76
1, 246522, Control_c, 0, 64, 86
1, 246537, Control_c, 0, 64, 99
1, 246541, Note_off_c, 0, 71, 62
1, 246551, Control_c, 0, 64, 115
1, 246566, Control_c, 0, 64, 127
1, 246597, Note_on_c, 0, 80, 95
1, 246611, Control_c, 0, 64, 100
1, 246611, Note_off_c, 0, 74, 44
1, 246626, Control_c, 0, 64, 74
1, 246638, Note_on_c, 0, 78, 39
1, 246641, Control_c, 0, 64, 57
1, 246656, Control_c, 0, 64, 46
1, 246660, Note_on_c, 0, 74, 64
1, 246670, Control_c, 0, 64, 57
1, 246675, Note_off_c, 0, 78, 47
1, 246685, Control_c, 0, 64, 65
1, 246700, Control_c, 0, 64, 75
1, 246714, Control_c, 0, 64, 101
1, 246728, Note_off_c, 0, 80, 59
1, 246729, Control_c, 0, 64, 127
1, 246742, Note_on_c, 0, 71, 72
1, 246803, Note_off_c, 0, 74, 60
1, 246803, Control_c, 0, 64, 111
1, 246806, Note_off_c, 0, 71, 60
1, 246818, Control_c, 0, 64, 77
1, 246823, Note_on_c, 0, 81, 99
1, 246833, Control_c, 0, 64, 62
1, 246848, Control_c, 0, 64, 57
1, 246862, Control_c, 0, 64, 64
1, 246865, Note_off_c, 0, 52, 58
1, 246877, Control_c, 0, 64, 69
1, 246900, Control_c, 0, 64, 81
1, 246914, Control_c, 0, 64, 127
1, 246915, Note_on_c, 0, 72, 81
1, 246947, Note_off_c, 0, 81, 60
1, 246999, Note_on_c, 0, 69, 76
1, 247039, Note_off_c, 0, 72, 61
1, 247055, Note_off_c, 0, 69, 62
1, 247060, Note_on_c, 0, 51, 94
1, 247064, Note_on_c, 0, 79, 98
1, 247071, Note_on_c, 0, 39, 73
1, 247082, Note_off_c, 0, 40, 60
1, 247107, Note_off_c, 0, 51, 62
1, 247134, Note_off_c, 0, 39, 59
1, 247144, Note_on_c, 0, 72, 77
1, 247189, Note_off_c, 0, 79, 65
1, 247224, Note_on_c, 0, 69, 72
1, 247243, Note_off_c, 0, 72, 55
1, 247299, Note_on_c, 0, 50, 100
1, 247303, Note_off_c, 0, 69, 60
1, 247309, Note_on_c, 0, 38, 83
1, 247344, Control_c, 0, 64, 80
1, 247359, Control_c, 0, 64, 56
1, 247373, Note_on_c, 0, 69, 68
1, 247374, Control_c, 0, 64, 0
1, 247434, Control_c, 0, 64, 49
1, 247446, Note_on_c, 0, 72, 79
1, 247449, Control_c, 0, 64, 65
1, 247464, Control_c, 0, 64, 76
1, 247478, Control_c, 0, 64, 97
1, 247493, Control_c, 0, 64, 127
1, 247499, Note_off_c, 0, 69, 59
1, 247534, Note_off_c, 0, 72, 60
1, 247544, Note_on_c, 0, 78, 89
1, 247597, Control_c, 0, 64, 74
1, 247610, Note_on_c, 0, 72, 64
1, 247611, Control_c, 0, 64, 56
1, 247626, Control_c, 0, 64, 45
1, 247648, Control_c, 0, 64, 56
1, 247663, Control_c, 0, 64, 65
1, 247678, Control_c, 0, 64, 75
1, 247688, Note_on_c, 0, 69, 70
1, 247690, Note_off_c, 0, 78, 61
1, 247693, Control_c, 0, 64, 95
1, 247708, Control_c, 0, 64, 127
1, 247740, Note_off_c, 0, 72, 59
1, 247750, Note_off_c, 0, 69, 62
1, 247768, Note_on_c, 0, 79, 100
1, 247768, Note_off_c, 0, 50, 55
1, 247859, Note_off_c, 0, 79, 56
1, 247863, Note_on_c, 0, 70, 82
1, 247881, Note_on_c, 0, 73, 50
1, 247914, Poly_aftertouch_c, 0, 77, 127
1, 247929, Note_on_c, 0, 67, 76
1, 247949, Note_off_c, 0, 70, 61
1, 247952, Note_off_c, 0, 73, 45
1, 247960, Poly_aftertouch_c, 0, 77, 0
1, 247976, Note_off_c, 0, 38, 62
1, 247982, Note_off_c, 0, 67, 62
1, 247989, Note_on_c, 0, 49, 85
1, 247996, Note_on_c, 0, 77, 85
1, 247997, Note_on_c, 0, 37, 66
1, 248017, Note_off_c, 0, 49, 64
1, 248051, Note_off_c, 0, 37, 55
1, 248080, Note_on_c, 0, 70, 81
1, 248096, Note_off_c, 0, 77, 58
1, 248152, Note_on_c, 0, 67, 66
1, 248187, Note_off_c, 0, 70, 60
1, 248212, Control_c, 0, 64, 91
1, 248221, Note_on_c, 0, 76, 99
1, 248224, Note_on_c, 0, 48, 98
1, 248227, Control_c, 0, 64, 65
1, 248232, Note_on_c, 0, 36, 75
1, 248242, Control_c, 0, 64, 0
1, 248251, Note_off_c, 0, 67, 61
1, 248286, Control_c, 0, 64, 53
1, 248301, Control_c, 0, 64, 69
1, 248307, Note_on_c, 0, 70, 78
1, 248316, Control_c, 0, 64, 85
1, 248331, Control_c, 0, 64, 127
1, 248358, Note_off_c, 0, 76, 59
1, 248376, Note_on_c, 0, 67, 76
1, 248409, Note_off_c, 0, 70, 62
1, 248422, Note_off_c, 0, 48, 58
1, 248426, Note_off_c, 0, 67, 60
1, 248446, Note_off_c, 0, 36, 58
1, 248450, Note_on_c, 0, 77, 91
1, 248542, Note_on_c, 0, 69, 68
1, 248544, Note_on_c, 0, 68, 53
1, 248550, Note_off_c, 0, 77, 59
1, 248572, Note_off_c, 0, 68, 61
1, 248599, Note_on_c, 0, 65, 81
1, 248644, Note_off_c, 0, 69, 57
1, 248660, Note_off_c, 0, 65, 62
1, 248664, Control_c, 0, 64, 94
1, 248669, Note_on_c, 0, 47, 98
1, 248678, Note_on_c, 0, 35, 87
1, 248679, Control_c, 0, 64, 67
1, 248683, Note_on_c, 0, 75, 91
1, 248693, Control_c, 0, 64, 34
1, 248708, Control_c, 0, 64, 0
1, 248723, Control_c, 0, 64, 49
1, 248738, Control_c, 0, 64, 64
1, 248753, Control_c, 0, 64, 77
1, 248761, Note_on_c, 0, 69, 80
1, 248769, Control_c, 0, 64, 111
1, 248775, Poly_aftertouch_c, 0, 73, 127
1, 248783, Control_c, 0, 64, 127
1, 248811, Poly_aftertouch_c, 0, 73, 0
1, 248815, Note_off_c, 0, 75, 59
1, 248827, Note_on_c, 0, 66, 76
1, 248854, Note_off_c, 0, 69, 61
1, 248860, Note_off_c, 0, 47, 61
1, 248868, Note_off_c, 0, 35, 57
1, 248869, Note_off_c, 0, 66, 64
1, 248896, Note_on_c, 0, 76, 99
1, 248978, Note_on_c, 0, 67, 85
1, 248990, Note_off_c, 0, 76, 45
1, 249053, Note_on_c, 0, 64, 76
1, 249096, Note_off_c, 0, 67, 59
1, 249124, Control_c, 0, 64, 88
1, 249128, Note_on_c, 0, 45, 100
1, 249128, Note_off_c, 0, 64, 55
1, 249145, Note_on_c, 0, 33, 86
1, 249147, Control_c, 0, 64, 64
1, 249149, Note_on_c, 0, 73, 99
1, 249162, Control_c, 0, 64, 0
1, 249191, Control_c, 0, 64, 49
1, 249206, Control_c, 0, 64, 64
1, 249221, Control_c, 0, 64, 78
1, 249227, Note_on_c, 0, 67, 74
1, 249236, Control_c, 0, 64, 127
1, 249291, Note_on_c, 0, 64, 72
1, 249292, Note_off_c, 0, 73, 59
1, 249320, Note_off_c, 0, 45, 61
1, 249333, Note_off_c, 0, 67, 60
1, 249339, Note_off_c, 0, 64, 64
1, 249342, Note_off_c, 0, 33, 58
1, 249365, Note_on_c, 0, 74, 99
1, 249369, Poly_aftertouch_c, 0, 35, 127
1, 249406, Poly_aftertouch_c, 0, 35, 0
1, 249441, Note_on_c, 0, 65, 90
1, 249469, Note_off_c, 0, 74, 58
1, 249525, Note_on_c, 0, 62, 79
1, 249568, Note_off_c, 0, 65, 61
1, 249592, Note_on_c, 0, 43, 95
1, 249592, Control_c, 0, 64, 86
1, 249599, Note_on_c, 0, 31, 89
1, 249604, Note_on_c, 0, 71, 94
1, 249607, Control_c, 0, 64, 56
1, 249622, Control_c, 0, 64, 0
1, 249626, Note_off_c, 0, 62, 59
1, 249637, Control_c, 0, 64, 43
1, 249652, Control_c, 0, 64, 63
1, 249666, Control_c, 0, 64, 76
1, 249681, Control_c, 0, 64, 111
1, 249686, Note_on_c, 0, 65, 81
1, 249696, Control_c, 0, 64, 127
1, 249744, Note_on_c, 0, 62, 76
1, 249760, Note_off_c, 0, 71, 62
1, 249786, Poly_aftertouch_c, 0, 33, 127
1, 249799, Note_off_c, 0, 31, 60
1, 249803, Note_off_c, 0, 65, 60
1, 249804, Note_off_c, 0, 43, 59
1, 249807, Note_off_c, 0, 62, 62
1, 249828, Note_on_c, 0, 72, 88
1, 249832, Poly_aftertouch_c, 0, 33, 0
1, 249911, Note_on_c, 0, 64, 81
1, 249964, Note_off_c, 0, 72, 61
1, 249989, Note_on_c, 0, 60, 82
1, 249997, Note_off_c, 0, 64, 60
1, 250016, Note_off_c, 0, 60, 67
1, 250093, Note_on_c, 0, 42, 95
1, 250103, Note_on_c, 0, 30, 87
1, 250192, Control_c, 0, 64, 91
1, 250206, Control_c, 0, 64, 63
1, 250221, Control_c, 0, 64, 0
1, 250242, Note_on_c, 0, 84, 101
1, 250295, Control_c, 0, 64, 48
1, 250310, Control_c, 0, 64, 65
1, 250325, Control_c, 0, 64, 80
1, 250340, Control_c, 0, 64, 127
1, 250370, Note_on_c, 0, 87, 97
1, 250379, Note_off_c, 0, 84, 62
1, 250428, Note_off_c, 0, 87, 63
1, 250489, Note_on_c, 0, 81, 97
1, 250576, Note_off_c, 0, 81, 62
1, 250604, Note_on_c, 0, 84, 81
1, 250638, Note_off_c, 0, 84, 59
1, 250713, Note_on_c, 0, 78, 86
1, 250778, Control_c, 0, 64, 84
1, 250793, Control_c, 0, 64, 62
1, 250808, Control_c, 0, 64, 0
1, 250833, Note_on_c, 0, 81, 86
1, 250837, Note_off_c, 0, 78, 63
1, 250837, Control_c, 0, 64, 51
1, 250852, Control_c, 0, 64, 61
1, 250867, Control_c, 0, 64, 69
1, 250875, Note_on_c, 0, 80, 16
1, 250877, Note_off_c, 0, 81, 65
1, 250880, Note_off_c, 0, 80, 39
1, 250881, Control_c, 0, 64, 83
1, 250896, Control_c, 0, 64, 127
1, 250947, Note_on_c, 0, 75, 88
1, 251052, Note_on_c, 0, 78, 88
1, 251052, Note_off_c, 0, 75, 60
1, 251101, Note_off_c, 0, 78, 63
1, 251159, Note_on_c, 0, 72, 96
1, 251223, Control_c, 0, 64, 104
1, 251237, Control_c, 0, 64, 72
1, 251252, Control_c, 0, 64, 55
1, 251267, Control_c, 0, 64, 46
1, 251273, Note_on_c, 0, 75, 83
1, 251282, Control_c, 0, 64, 59
1, 251287, Note_off_c, 0, 72, 60
1, 251297, Control_c, 0, 64, 66
1, 251311, Control_c, 0, 64, 75
1, 251323, Note_off_c, 0, 75, 65
1, 251326, Control_c, 0, 64, 93
1, 251341, Control_c, 0, 64, 127
1, 251385, Note_on_c, 0, 69, 91
1, 251473, Note_off_c, 0, 69, 61
1, 251495, Note_on_c, 0, 72, 84
1, 251537, Note_off_c, 0, 72, 63
1, 251595, Note_on_c, 0, 66, 88
1, 251714, Note_on_c, 0, 69, 87
1, 251717, Note_off_c, 0, 66, 61
1, 251808, Note_on_c, 0, 63, 86
1, 251850, Note_off_c, 0, 69, 59
1, 251942, Note_on_c, 0, 66, 81
1, 251951, Note_off_c, 0, 63, 64
1, 252003, Note_off_c, 0, 66, 59
1, 252006, Note_on_c, 0, 60, 83
1, 252064, Note_off_c, 0, 60, 50
1, 252075, Note_on_c, 0, 63, 74
1, 252141, Note_off_c, 0, 63, 60
1, 252150, Note_on_c, 0, 57, 80
1, 252195, Note_off_c, 0, 57, 0
1, 252214, Note_on_c, 0, 60, 77
1, 252224, Poly_aftertouch_c, 0, 57, 0
1, 252281, Note_on_c, 0, 54, 83
1, 252284, Note_off_c, 0, 60, 63
1, 252352, Note_off_c, 0, 54, 61
1, 252364, Note_on_c, 0, 57, 80
1, 252394, Control_c, 0, 64, 84
1, 252409, Control_c, 0, 64, 64
1, 252424, Control_c, 0, 64, 42
1, 252439, Note_on_c, 0, 51, 80
1, 252439, Control_c, 0, 64, 47
1, 252450, Note_off_c, 0, 57, 64
1, 252454, Control_c, 0, 64, 60
1, 252468, Control_c, 0, 64, 68
1, 252483, Control_c, 0, 64, 83
1, 252498, Control_c, 0, 64, 101
1, 252513, Control_c, 0, 64, 115
1, 252513, Note_on_c, 0, 54, 76
1, 252527, Control_c, 0, 64, 124
1, 252537, Note_off_c, 0, 51, 61
1, 252542, Control_c, 0, 64, 127
1, 252567, Note_on_c, 0, 48, 82
1, 252570, Note_off_c, 0, 54, 62
1, 252638, Note_on_c, 0, 51, 83
1, 252649, Note_off_c, 0, 48, 61
1, 252678, Note_off_c, 0, 42, 59
1, 252705, Note_off_c, 0, 51, 57
1, 252710, Note_on_c, 0, 45, 86
1, 252765, Control_c, 0, 64, 120
1, 252780, Control_c, 0, 64, 114
1, 252795, Control_c, 0, 64, 111
1, 252810, Control_c, 0, 64, 105
1, 252824, Control_c, 0, 64, 96
1, 252826, Note_on_c, 0, 48, 74
1, 252839, Control_c, 0, 64, 87
1, 252854, Control_c, 0, 64, 78
1, 252858, Note_off_c, 0, 45, 59
1, 252869, Control_c, 0, 64, 69
1, 252891, Control_c, 0, 64, 61
1, 252906, Control_c, 0, 64, 50
1, 252921, Control_c, 0, 64, 43
1, 252936, Control_c, 0, 64, 41
1, 252965, Control_c, 0, 64, 40
1, 252968, Note_on_c, 0, 42, 80
1, 252980, Control_c, 0, 64, 37
1, 252990, Note_off_c, 0, 48, 62
1, 252995, Control_c, 0, 64, 0
1, 253053, Note_off_c, 0, 30, 55
1, 253115, Note_on_c, 0, 45, 78
1, 253134, Note_off_c, 0, 42, 64
1, 253253, Note_on_c, 0, 39, 83
1, 253344, Note_off_c, 0, 45, 57
1, 253418, Note_on_c, 0, 42, 79
1, 253449, Note_off_c, 0, 39, 62
1, 253592, Note_on_c, 0, 36, 82
1, 253598, Note_off_c, 0, 42, 63
1, 253827, Note_on_c, 0, 39, 80
1, 253849, Note_off_c, 0, 36, 62
1, 254101, Note_on_c, 0, 34, 81
1, 254129, Control_c, 0, 64, 36
1, 254135, Note_off_c, 0, 39, 60
1, 254144, Control_c, 0, 64, 48
1, 254159, Control_c, 0, 64, 58
1, 254173, Control_c, 0, 64, 63
1, 254188, Control_c, 0, 64, 69
1, 254203, Control_c, 0, 64, 76
1, 254218, Control_c, 0, 64, 87
1, 254233, Control_c, 0, 64, 105
1, 254248, Control_c, 0, 64, 127
1, 254349, Note_off_c, 0, 34, 37
1, 254606, Note_on_c, 0, 33, 86
1, 254608, Note_on_c, 0, 29, 85
1, 254686, Control_c, 0, 64, 98
1, 254701, Control_c, 0, 64, 79
1, 254716, Control_c, 0, 64, 66
1, 254730, Control_c, 0, 64, 54
1, 254745, Control_c, 0, 64, 0
1, 255136, Control_c, 0, 64, 42
1, 255152, Control_c, 0, 64, 52
1, 255167, Control_c, 0, 64, 59
1, 255182, Control_c, 0, 64, 66
1, 255197, Control_c, 0, 64, 72
1, 255212, Control_c, 0, 64, 81
1, 255226, Control_c, 0, 64, 89
1, 255241, Control_c, 0, 64, 100
1, 255256, Control_c, 0, 64, 120
1, 255271, Control_c, 0, 64, 127
1, 255751, Note_on_c, 0, 36, 41
1, 255867, Note_on_c, 0, 39, 59
1, 255905, Note_off_c, 0, 39, 64
1, 255915, Control_c, 0, 64, 115
1, 255930, Control_c, 0, 64, 108
1, 255942, Note_on_c, 0, 41, 65
1, 255945, Control_c, 0, 64, 102
1, 255961, Control_c, 0, 64, 97
1, 255975, Control_c, 0, 64, 92
1, 255990, Control_c, 0, 64, 88
1, 256005, Control_c, 0, 64, 84
1, 256012, Note_off_c, 0, 41, 59
1, 256013, Note_on_c, 0, 45, 73
1, 256020, Control_c, 0, 64, 78
1, 256034, Control_c, 0, 64, 73
1, 256049, Control_c, 0, 64, 66
1, 256064, Control_c, 0, 64, 58
1, 256079, Control_c, 0, 64, 0
1, 256085, Note_on_c, 0, 48, 56
1, 256109, Note_off_c, 0, 45, 63
1, 256119, Note_on_c, 0, 51, 72
1, 256144, Note_off_c, 0, 48, 64
1, 256170, Note_off_c, 0, 51, 62
1, 256198, Note_on_c, 0, 53, 69
1, 256214, Note_on_c, 0, 52, 53
1, 256240, Note_off_c, 0, 52, 56
1, 256260, Note_on_c, 0, 57, 83
1, 256271, Note_off_c, 0, 53, 63
1, 256287, Control_c, 0, 64, 50
1, 256301, Control_c, 0, 64, 63
1, 256316, Control_c, 0, 64, 69
1, 256322, Note_on_c, 0, 60, 69
1, 256331, Control_c, 0, 64, 77
1, 256344, Note_off_c, 0, 57, 63
1, 256346, Control_c, 0, 64, 87
1, 256359, Note_on_c, 0, 63, 74
1, 256361, Control_c, 0, 64, 102
1, 256372, Note_off_c, 0, 33, 60
1, 256375, Control_c, 0, 64, 127
1, 256376, Note_off_c, 0, 29, 60
1, 256376, Note_off_c, 0, 60, 66
1, 256383, Note_off_c, 0, 36, 40
1, 256388, Note_off_c, 0, 63, 66
1, 256430, Note_on_c, 0, 65, 77
1, 256496, Note_on_c, 0, 69, 82
1, 256510, Note_off_c, 0, 65, 62
1, 256560, Note_on_c, 0, 72, 73
1, 256578, Note_off_c, 0, 69, 62
1, 256592, Note_on_c, 0, 75, 72
1, 256606, Note_off_c, 0, 72, 65
1, 256614, Note_off_c, 0, 75, 71
1, 256666, Note_on_c, 0, 77, 80
1, 256728, Note_on_c, 0, 81, 92
1, 256734, Note_off_c, 0, 77, 64
1, 256737, Note_on_c, 0, 53, 58
1, 256782, Note_on_c, 0, 84, 85
1, 256788, Note_off_c, 0, 81, 64
1, 256812, Note_on_c, 0, 57, 62
1, 256821, Note_off_c, 0, 84, 62
1, 256829, Note_on_c, 0, 60, 73
1, 256874, Note_on_c, 0, 63, 93
1, 256882, Note_on_c, 0, 87, 107
1, 256962, Control_c, 0, 64, 95
1, 256977, Control_c, 0, 64, 75
1, 256992, Control_c, 0, 64, 63
1, 257006, Control_c, 0, 64, 44
1, 257021, Control_c, 0, 64, 0
1, 257947, Control_c, 0, 64, 40
1, 257962, Control_c, 0, 64, 50
1, 257977, Control_c, 0, 64, 58
1, 257992, Control_c, 0, 64, 64
1, 258007, Control_c, 0, 64, 69
1, 258010, Note_on_c, 0, 86, 58
1, 258022, Control_c, 0, 64, 74
1, 258037, Control_c, 0, 64, 79
1, 258052, Control_c, 0, 64, 83
1, 258056, Note_off_c, 0, 86, 58
1, 258064, Note_off_c, 0, 87, 29
1, 258067, Control_c, 0, 64, 89
1, 258081, Control_c, 0, 64, 94
1, 258096, Control_c, 0, 64, 101
1, 258111, Control_c, 0, 64, 106
1, 258122, Note_on_c, 0, 84, 59
1, 258133, Control_c, 0, 64, 110
1, 258147, Control_c, 0, 64, 113
1, 258150, Note_off_c, 0, 84, 49
1, 258162, Control_c, 0, 64, 120
1, 258177, Control_c, 0, 64, 127
1, 258181, Note_on_c, 0, 82, 71
1, 258246, Note_on_c, 0, 81, 77
1, 258273, Note_off_c, 0, 82, 57
1, 258302, Note_on_c, 0, 79, 84
1, 258317, Note_off_c, 0, 81, 63
1, 258353, Note_off_c, 0, 79, 64
1, 258361, Note_on_c, 0, 77, 72
1, 258386, Control_c, 0, 64, 115
1, 258401, Control_c, 0, 64, 83
1, 258415, Control_c, 0, 64, 64
1, 258421, Note_off_c, 0, 77, 64
1, 258426, Note_on_c, 0, 76, 71
1, 258430, Control_c, 0, 64, 34
1, 258445, Control_c, 0, 64, 0
1, 258475, Control_c, 0, 64, 52
1, 258485, Note_on_c, 0, 75, 77
1, 258490, Control_c, 0, 64, 63
1, 258504, Control_c, 0, 64, 73
1, 258519, Control_c, 0, 64, 88
1, 258520, Note_off_c, 0, 76, 59
1, 258534, Control_c, 0, 64, 111
1, 258549, Control_c, 0, 64, 127
1, 258550, Note_on_c, 0, 74, 81
1, 258554, Note_off_c, 0, 63, 60
1, 258579, Note_off_c, 0, 75, 57
1, 258591, Note_off_c, 0, 60, 59
1, 258603, Note_off_c, 0, 57, 59
1, 258605, Note_off_c, 0, 74, 62
1, 258609, Note_on_c, 0, 72, 79
1, 258632, Note_off_c, 0, 53, 49
1, 258679, Note_off_c, 0, 72, 50
1, 258685, Note_on_c, 0, 70, 76
1, 258742, Note_on_c, 0, 69, 77
1, 258796, Note_on_c, 0, 67, 75
1, 258809, Note_off_c, 0, 70, 61
1, 258818, Note_off_c, 0, 69, 63
1, 258842, Note_off_c, 0, 67, 63
1, 258843, Note_on_c, 0, 65, 76
1, 258922, Note_off_c, 0, 65, 64
1, 258925, Note_on_c, 0, 64, 66
1, 258946, Note_off_c, 0, 64, 66
1, 258964, Note_on_c, 0, 41, 46
1, 258994, Note_on_c, 0, 45, 56
1, 259047, Note_on_c, 0, 48, 63
1, 259054, Note_on_c, 0, 63, 76
1, 259056, Note_on_c, 0, 75, 76
1, 259089, Control_c, 0, 64, 90
1, 259104, Control_c, 0, 64, 71
1, 259119, Control_c, 0, 64, 55
1, 259134, Control_c, 0, 64, 0
1, 259505, Control_c, 0, 64, 47
1, 259519, Control_c, 0, 64, 62
1, 259534, Control_c, 0, 64, 67
1, 259549, Control_c, 0, 64, 73
1, 259563, Control_c, 0, 64, 81
1, 259578, Control_c, 0, 64, 90
1, 259593, Control_c, 0, 64, 102
1, 259608, Control_c, 0, 64, 127
1, 259639, Note_off_c, 0, 41, 37
1, 259650, Note_off_c, 0, 63, 55
1, 259652, Note_off_c, 0, 48, 38
1, 259697, Note_off_c, 0, 45, 52
1, 260236, Note_on_c, 0, 62, 38
1, 260245, Note_on_c, 0, 74, 43
1, 260300, Note_off_c, 0, 62, 47
1, 260321, Note_off_c, 0, 74, 59
1, 260332, Note_off_c, 0, 75, 56
1, 260377, Note_on_c, 0, 72, 49
1, 260383, Note_on_c, 0, 60, 43
1, 260421, Note_off_c, 0, 60, 62
1, 260448, Note_off_c, 0, 72, 56
1, 260460, Note_on_c, 0, 70, 59
1, 260474, Note_on_c, 0, 58, 38
1, 260505, Note_off_c, 0, 58, 53
1, 260541, Note_on_c, 0, 69, 62
1, 260553, Note_on_c, 0, 57, 49
1, 260590, Note_off_c, 0, 57, 58
1, 260608, Note_on_c, 0, 67, 70
1, 260609, Note_on_c, 0, 55, 67
1, 260629, Note_off_c, 0, 69, 59
1, 260636, Note_off_c, 0, 70, 33
1, 260650, Note_off_c, 0, 55, 60
1, 260666, Note_off_c, 0, 67, 59
1, 260681, Note_on_c, 0, 53, 62
1, 260683, Note_on_c, 0, 65, 70
1, 260707, Note_off_c, 0, 53, 63
1, 260743, Note_off_c, 0, 65, 64
1, 260744, Note_on_c, 0, 64, 72
1, 260752, Note_on_c, 0, 52, 66
1, 260816, Note_on_c, 0, 63, 77
1, 260816, Note_off_c, 0, 52, 59
1, 260818, Note_on_c, 0, 51, 72
1, 260850, Note_off_c, 0, 64, 59
1, 260854, Note_off_c, 0, 51, 62
1, 260869, Control_c, 0, 64, 115
1, 260884, Control_c, 0, 64, 96
1, 260891, Note_on_c, 0, 62, 76
1, 260898, Control_c, 0, 64, 82
1, 260905, Note_on_c, 0, 50, 69
1, 260913, Control_c, 0, 64, 71
1, 260928, Control_c, 0, 64, 62
1, 260930, Note_off_c, 0, 63, 61
1, 260942, Control_c, 0, 64, 49
1, 260946, Note_off_c, 0, 62, 61
1, 260957, Control_c, 0, 64, 34
1, 260962, Note_off_c, 0, 50, 61
1, 260969, Note_on_c, 0, 48, 73
1, 260970, Note_on_c, 0, 60, 71
1, 260972, Control_c, 0, 64, 0
1, 261038, Note_off_c, 0, 48, 62
1, 261047, Note_off_c, 0, 60, 60
1, 261051, Note_on_c, 0, 46, 69
1, 261052, Note_on_c, 0, 58, 67
1, 261100, Note_off_c, 0, 46, 59
1, 261144, Note_on_c, 0, 57, 65
1, 261174, Note_off_c, 0, 58, 51
1, 261181, Note_on_c, 0, 45, 48
1, 261214, Note_off_c, 0, 45, 60
1, 261227, Note_on_c, 0, 55, 64
1, 261244, Note_on_c, 0, 43, 55
1, 261257, Note_off_c, 0, 57, 60
1, 261289, Note_off_c, 0, 43, 60
1, 261302, Note_off_c, 0, 55, 62
1, 261305, Control_c, 0, 64, 45
1, 261320, Control_c, 0, 64, 57
1, 261331, Note_on_c, 0, 53, 54
1, 261335, Control_c, 0, 64, 64
1, 261349, Control_c, 0, 64, 69
1, 261364, Control_c, 0, 64, 75
1, 261379, Control_c, 0, 64, 81
1, 261394, Control_c, 0, 64, 86
1, 261409, Control_c, 0, 64, 91
1, 261420, Note_on_c, 0, 40, 41
1, 261421, Note_on_c, 0, 52, 60
1, 261422, Note_off_c, 0, 53, 53
1, 261423, Control_c, 0, 64, 95
1, 261438, Control_c, 0, 64, 101
1, 261453, Control_c, 0, 64, 108
1, 261454, Note_off_c, 0, 40, 59
1, 261468, Control_c, 0, 64, 116
1, 261483, Control_c, 0, 64, 127
1, 261602, Control_c, 0, 64, 115
1, 261617, Control_c, 0, 64, 106
1, 261624, Note_on_c, 0, 29, 41
1, 261632, Control_c, 0, 64, 98
1, 261635, Note_on_c, 0, 36, 35
1, 261638, Note_on_c, 0, 33, 35
1, 261638, Note_on_c, 0, 39, 45
1, 261647, Control_c, 0, 64, 90
1, 261650, Note_on_c, 0, 51, 48
1, 261662, Note_off_c, 0, 52, 32
1, 261662, Control_c, 0, 64, 83
1, 261677, Control_c, 0, 64, 77
1, 261691, Control_c, 0, 64, 71
1, 261706, Control_c, 0, 64, 65
1, 261721, Control_c, 0, 64, 58
1, 261736, Control_c, 0, 64, 48
1, 261751, Control_c, 0, 64, 39
1, 261765, Control_c, 0, 64, 36
1, 261780, Control_c, 0, 64, 34
1, 261795, Control_c, 0, 64, 0
1, 262099, Control_c, 0, 64, 43
1, 262113, Control_c, 0, 64, 55
1, 262128, Control_c, 0, 64, 61
1, 262143, Control_c, 0, 64, 65
1, 262158, Control_c, 0, 64, 69
1, 262172, Control_c, 0, 64, 74
1, 262187, Control_c, 0, 64, 80
1, 262202, Control_c, 0, 64, 88
1, 262217, Control_c, 0, 64, 99
1, 262232, Control_c, 0, 64, 112
1, 262246, Control_c, 0, 64, 127
1, 262667, Note_off_c, 0, 51, 35
1, 262684, Note_on_c, 0, 53, 37
1, 262830, Note_off_c, 0, 53, 50
1, 262851, Note_on_c, 0, 51, 36
1, 262894, Note_off_c, 0, 51, 60
1, 262937, Note_on_c, 0, 50, 46
1, 262983, Note_off_c, 0, 50, 59
1, 263003, Note_on_c, 0, 51, 52
1, 263051, Note_off_c, 0, 51, 61
1, 263089, Note_on_c, 0, 52, 58
1, 263128, Control_c, 0, 64, 124
1, 263131, Note_off_c, 0, 52, 62
1, 263144, Control_c, 0, 64, 120
1, 263149, Note_on_c, 0, 53, 61
1, 263159, Control_c, 0, 64, 117
1, 263174, Control_c, 0, 64, 115
1, 263189, Control_c, 0, 64, 112
1, 263195, Note_off_c, 0, 53, 60
1, 263205, Note_on_c, 0, 54, 58
1, 263227, Note_off_c, 0, 54, 61
1, 263233, Control_c, 0, 64, 109
1, 263248, Control_c, 0, 64, 107
1, 263259, Note_on_c, 0, 55, 66
1, 263263, Control_c, 0, 64, 105
1, 263278, Control_c, 0, 64, 102
1, 263292, Control_c, 0, 64, 99
1, 263307, Control_c, 0, 64, 94
1, 263313, Note_on_c, 0, 56, 71
1, 263314, Note_off_c, 0, 55, 59
1, 263322, Control_c, 0, 64, 89
1, 263337, Control_c, 0, 64, 82
1, 263352, Control_c, 0, 64, 74
1, 263370, Note_off_c, 0, 56, 56
1, 263373, Note_on_c, 0, 57, 65
1, 263374, Control_c, 0, 64, 67
1, 263389, Control_c, 0, 64, 61
1, 263404, Control_c, 0, 64, 54
1, 263408, Note_off_c, 0, 57, 65
1, 263418, Control_c, 0, 64, 48
1, 263420, Note_on_c, 0, 58, 60
1, 263433, Control_c, 0, 64, 46
1, 263448, Control_c, 0, 64, 45
1, 263449, Note_off_c, 0, 58, 66
1, 263463, Control_c, 0, 64, 43
1, 263473, Note_on_c, 0, 59, 67
1, 263478, Control_c, 0, 64, 39
1, 263492, Control_c, 0, 64, 0
1, 263524, Note_off_c, 0, 59, 63
1, 263533, Note_on_c, 0, 60, 70
1, 263586, Note_off_c, 0, 60, 64
1, 263587, Note_on_c, 0, 61, 63
1, 263615, Note_off_c, 0, 61, 64
1, 263638, Note_on_c, 0, 62, 71
1, 263671, Note_off_c, 0, 62, 58
1, 263689, Note_on_c, 0, 63, 68
1, 263715, Note_off_c, 0, 63, 68
1, 263740, Note_on_c, 0, 64, 68
1, 263795, Note_off_c, 0, 64, 64
1, 263796, Note_on_c, 0, 65, 73
1, 263844, Note_off_c, 0, 65, 62
1, 263846, Note_on_c, 0, 66, 65
1, 263872, Note_off_c, 0, 66, 67
1, 263900, Note_on_c, 0, 67, 66
1, 263948, Note_off_c, 0, 67, 62
1, 263955, Note_on_c, 0, 68, 71
1, 263997, Note_off_c, 0, 68, 56
1, 263999, Note_on_c, 0, 69, 66
1, 264034, Note_off_c, 0, 69, 60
1, 264042, Note_on_c, 0, 70, 65
1, 264068, Note_off_c, 0, 70, 69
1, 264117, Note_on_c, 0, 71, 61
1, 264159, Note_off_c, 0, 71, 59
1, 264169, Note_on_c, 0, 72, 63
1, 264207, Note_off_c, 0, 72, 64
1, 264215, Note_on_c, 0, 73, 68
1, 264243, Note_off_c, 0, 73, 66
1, 264276, Note_on_c, 0, 74, 66
1, 264301, Note_off_c, 0, 74, 59
1, 264325, Note_on_c, 0, 75, 65
1, 264351, Note_off_c, 0, 75, 67
1, 264384, Note_on_c, 0, 76, 63
1, 264431, Note_off_c, 0, 76, 58
1, 264438, Note_on_c, 0, 77, 63
1, 264479, Note_off_c, 0, 77, 63
1, 264488, Note_on_c, 0, 78, 65
1, 264515, Note_off_c, 0, 78, 65
1, 264547, Note_on_c, 0, 79, 69
1, 264586, Note_off_c, 0, 29, 36
1, 264598, Note_off_c, 0, 79, 60
1, 264610, Note_on_c, 0, 80, 68
1, 264660, Note_on_c, 0, 81, 65
1, 264665, Note_off_c, 0, 80, 59
1, 264683, Note_off_c, 0, 39, 38
1, 264684, Note_off_c, 0, 33, 41
1, 264696, Note_off_c, 0, 81, 65
1, 264705, Note_on_c, 0, 82, 65
1, 264718, Note_off_c, 0, 36, 38
1, 264734, Note_off_c, 0, 82, 68
1, 264762, Control_c, 0, 64, 33
1, 264774, Note_on_c, 0, 83, 66
1, 264777, Control_c, 0, 64, 34
1, 264791, Control_c, 0, 64, 34
1, 264812, Note_off_c, 0, 83, 61
1, 264836, Note_on_c, 0, 84, 65
1, 264836, Control_c, 0, 64, 35
1, 264872, Control_c, 0, 64, 35
1, 264882, Note_off_c, 0, 84, 59
1, 264893, Note_on_c, 0, 85, 62
1, 264902, Control_c, 0, 64, 36
1, 264947, Control_c, 0, 64, 36
1, 264950, Note_off_c, 0, 85, 57
1, 264960, Note_on_c, 0, 86, 62
1, 264991, Control_c, 0, 64, 37
1, 265006, Control_c, 0, 64, 37
1, 265042, Note_off_c, 0, 86, 57
1, 265051, Control_c, 0, 64, 38
1, 265082, Note_on_c, 0, 87, 57
1, 265124, Control_c, 0, 64, 38
1, 265459, Note_off_c, 0, 87, 46
1, 265537, Note_on_c, 0, 84, 55
1, 265826, Note_off_c, 0, 84, 52
1, 265843, Control_c, 0, 64, 38
1, 265896, Note_on_c, 0, 81, 59
1, 266257, Control_c, 0, 64, 37
1, 266302, Control_c, 0, 64, 37
1, 266348, Control_c, 0, 64, 36
1, 266399, Note_off_c, 0, 81, 44
1, 266423, Note_on_c, 0, 77, 45
1, 266532, Control_c, 0, 64, 36
1, 266607, Control_c, 0, 64, 36
1, 266622, Control_c, 0, 64, 37
1, 266636, Control_c, 0, 64, 40
1, 266651, Control_c, 0, 64, 43
1, 266666, Control_c, 0, 64, 46
1, 266680, Control_c, 0, 64, 48
1, 266695, Control_c, 0, 64, 50
1, 266710, Control_c, 0, 64, 53
1, 266725, Control_c, 0, 64, 59
1, 266740, Control_c, 0, 64, 63
1, 266754, Control_c, 0, 64, 65
1, 266769, Control_c, 0, 64, 66
1, 266784, Control_c, 0, 64, 68
1, 266799, Control_c, 0, 64, 71
1, 266814, Control_c, 0, 64, 74
1, 266828, Control_c, 0, 64, 78
1, 266843, Control_c, 0, 64, 81
1, 266858, Control_c, 0, 64, 85
1, 266873, Control_c, 0, 64, 88
1, 266887, Control_c, 0, 64, 93
1, 266902, Control_c, 0, 64, 96
1, 266917, Control_c, 0, 64, 99
1, 266932, Control_c, 0, 64, 101
1, 266962, Control_c, 0, 64, 104
1, 267007, Control_c, 0, 64, 106
1, 267096, Control_c, 0, 64, 104
1, 267134, Control_c, 0, 64, 100
1, 267149, Control_c, 0, 64, 97
1, 267164, Control_c, 0, 64, 94
1, 267178, Control_c, 0, 64, 91
1, 267192, Note_on_c, 0, 76, 43
1, 267193, Control_c, 0, 64, 87
1, 267208, Control_c, 0, 64, 83
1, 267223, Control_c, 0, 64, 79
1, 267238, Control_c, 0, 64, 74
1, 267245, Note_off_c, 0, 77, 32
1, 267253, Control_c, 0, 64, 69
1, 267267, Control_c, 0, 64, 64
1, 267282, Control_c, 0, 64, 55
1, 267297, Control_c, 0, 64, 42
1, 267311, Control_c, 0, 64, 0
1, 267430, Control_c, 0, 64, 39
1, 267445, Control_c, 0, 64, 47
1, 267459, Control_c, 0, 64, 51
1, 267474, Control_c, 0, 64, 57
1, 267489, Control_c, 0, 64, 61
1, 267504, Control_c, 0, 64, 63
1, 267519, Control_c, 0, 64, 66
1, 267534, Control_c, 0, 64, 68
1, 267549, Control_c, 0, 64, 71
1, 267564, Control_c, 0, 64, 74
1, 267578, Control_c, 0, 64, 76
1, 267593, Control_c, 0, 64, 79
1, 267608, Control_c, 0, 64, 81
1, 267623, Control_c, 0, 64, 83
1, 267637, Control_c, 0, 64, 86
1, 267652, Control_c, 0, 64, 89
1, 267667, Control_c, 0, 64, 92
1, 267682, Control_c, 0, 64, 94
1, 267697, Control_c, 0, 64, 95
1, 267741, Control_c, 0, 64, 97
1, 268092, Note_off_c, 0, 76, 28
1, 268105, Control_c, 0, 64, 95
1, 268120, Control_c, 0, 64, 94
1, 268134, Control_c, 0, 64, 93
1, 268149, Control_c, 0, 64, 93
1, 268164, Control_c, 0, 64, 92
1, 268164, Control_c, 0, 67, 19
1, 268179, Control_c, 0, 64, 91
1, 268194, Control_c, 0, 64, 90
1, 268194, Control_c, 0, 67, 22
1, 268208, Control_c, 0, 64, 89
1, 268208, Control_c, 0, 67, 25
1, 268223, Control_c, 0, 64, 88
1, 268223, Control_c, 0, 67, 28
1, 268238, Control_c, 0, 64, 86
1, 268238, Control_c, 0, 67, 34
1, 268252, Control_c, 0, 64, 86
1, 268252, Control_c, 0, 67, 39
1, 268267, Control_c, 0, 64, 85
1, 268267, Control_c, 0, 67, 46
1, 268282, Control_c, 0, 67, 54
1, 268297, Control_c, 0, 64, 84
1, 268297, Control_c, 0, 67, 62
1, 268312, Control_c, 0, 64, 83
1, 268312, Control_c, 0, 67, 68
1, 268327, Control_c, 0, 67, 73
1, 268342, Control_c, 0, 64, 83
1, 268342, Control_c, 0, 67, 77
1, 268357, Control_c, 0, 67, 81
1, 268372, Control_c, 0, 64, 82
1, 268372, Control_c, 0, 67, 84
1, 268387, Control_c, 0, 64, 82
1, 268387, Control_c, 0, 67, 87
1, 268401, Control_c, 0, 64, 81
1, 268401, Control_c, 0, 67, 92
1, 268416, Control_c, 0, 64, 81
1, 268416, Control_c, 0, 67, 96
1, 268431, Control_c, 0, 64, 80
1, 268431, Control_c, 0, 67, 99
1, 268446, Control_c, 0, 64, 80
1, 268446, Control_c, 0, 67, 103
1, 268460, Control_c, 0, 64, 79
1, 268460, Control_c, 0, 67, 107
1, 268475, Control_c, 0, 64, 78
1, 268475, Control_c, 0, 67, 112
1, 268490, Control_c, 0, 64, 76
1, 268490, Control_c, 0, 67, 116
1, 268505, Control_c, 0, 64, 75
1, 268505, Control_c, 0, 67, 119
1, 268520, Control_c, 0, 64, 73
1, 268520, Control_c, 0, 67, 123
1, 268534, Control_c, 0, 64, 70
1, 268534, Control_c, 0, 67, 126
1, 268549, Control_c, 0, 64, 67
1, 268564, Control_c, 0, 64, 63
1, 268579, Control_c, 0, 64, 60
1, 268594, Control_c, 0, 64, 57
1, 268616, Control_c, 0, 64, 53
1, 268631, Control_c, 0, 64, 49
1, 268646, Control_c, 0, 64, 44
1, 268660, Control_c, 0, 64, 39
1, 268675, Control_c, 0, 64, 35
1, 268690, Control_c, 0, 64, 0
1, 268780, Control_c, 0, 64, 33
1, 268795, Control_c, 0, 64, 38
1, 268810, Control_c, 0, 64, 44
1, 268825, Control_c, 0, 64, 49
1, 268839, Control_c, 0, 64, 52
1, 268854, Control_c, 0, 64, 54
1, 268869, Control_c, 0, 64, 57
1, 268883, Control_c, 0, 64, 61
1, 268898, Control_c, 0, 64, 64
1, 268913, Control_c, 0, 64, 66
1, 268928, Control_c, 0, 64, 68
1, 268943, Control_c, 0, 64, 71
1, 268957, Control_c, 0, 64, 73
1, 268972, Control_c, 0, 64, 76
1, 268987, Control_c, 0, 64, 78
1, 269002, Control_c, 0, 64, 82
1, 269017, Control_c, 0, 64, 86
1, 269031, Control_c, 0, 64, 90
1, 269046, Control_c, 0, 64, 93
1, 269061, Control_c, 0, 64, 97
1, 269075, Control_c, 0, 64, 101
1, 269090, Note_on_c, 0, 75, 38
1, 269090, Control_c, 0, 64, 106
1, 269105, Control_c, 0, 64, 112
1, 269120, Control_c, 0, 64, 117
1, 269135, Control_c, 0, 64, 122
1, 269150, Control_c, 0, 64, 127
1, 269949, Note_off_c, 0, 75, 33
1, 270187, Control_c, 0, 64, 124
1, 270202, Control_c, 0, 64, 119
1, 270217, Control_c, 0, 64, 115
1, 270232, Control_c, 0, 64, 111
1, 270247, Control_c, 0, 64, 108
1, 270262, Control_c, 0, 64, 105
1, 270276, Control_c, 0, 64, 102
1, 270291, Control_c, 0, 64, 99
1, 270306, Control_c, 0, 64, 96
1, 270321, Control_c, 0, 64, 94
1, 270336, Control_c, 0, 64, 93
1, 270351, Control_c, 0, 64, 92
1, 270366, Control_c, 0, 64, 90
1, 270381, Control_c, 0, 64, 89
1, 270396, Control_c, 0, 64, 87
1, 270411, Control_c, 0, 64, 86
1, 270425, Control_c, 0, 64, 85
1, 270440, Control_c, 0, 64, 85
1, 270455, Control_c, 0, 64, 84
1, 270470, Control_c, 0, 64, 83
1, 270485, Control_c, 0, 64, 82
1, 270500, Control_c, 0, 64, 82
1, 270515, Control_c, 0, 64, 81
1, 270529, Control_c, 0, 64, 80
1, 270544, Control_c, 0, 64, 78
1, 270559, Control_c, 0, 64, 77
1, 270574, Control_c, 0, 64, 75
1, 270589, Control_c, 0, 64, 73
1, 270603, Control_c, 0, 64, 71
1, 270618, Control_c, 0, 64, 68
1, 270633, Control_c, 0, 64, 66
1, 270647, Control_c, 0, 64, 64
1, 270662, Control_c, 0, 64, 62
1, 270677, Control_c, 0, 64, 61
1, 270692, Control_c, 0, 64, 60
1, 270707, Control_c, 0, 64, 59
1, 270721, Control_c, 0, 64, 58
1, 270736, Control_c, 0, 64, 56
1, 270751, Control_c, 0, 64, 54
1, 270766, Control_c, 0, 64, 54
1, 270781, Control_c, 0, 64, 52
1, 270795, Control_c, 0, 64, 50
1, 270810, Control_c, 0, 64, 45
1, 270825, Control_c, 0, 64, 35
1, 270840, Control_c, 0, 64, 0
1, 271040, Control_c, 0, 64, 36
1, 271054, Control_c, 0, 64, 40
1, 271069, Control_c, 0, 64, 44
1, 271084, Control_c, 0, 64, 49
1, 271099, Control_c, 0, 64, 55
1, 271114, Control_c, 0, 64, 57
1, 271130, Control_c, 0, 64, 59
1, 271145, Control_c, 0, 64, 61
1, 271159, Control_c, 0, 64, 62
1, 271174, Control_c, 0, 64, 64
1, 271189, Control_c, 0, 64, 65
1, 271204, Control_c, 0, 64, 66
1, 271219, Control_c, 0, 64, 68
1, 271233, Control_c, 0, 64, 70
1, 271248, Control_c, 0, 64, 72
1, 271263, Control_c, 0, 64, 74
1, 271278, Control_c, 0, 64, 76
1, 271293, Control_c, 0, 64, 79
1, 271308, Control_c, 0, 64, 82
1, 271323, Control_c, 0, 64, 86
1, 271338, Control_c, 0, 64, 89
1, 271352, Control_c, 0, 64, 93
1, 271367, Control_c, 0, 64, 96
1, 271382, Control_c, 0, 64, 100
1, 271396, Control_c, 0, 64, 103
1, 271411, Control_c, 0, 64, 107
1, 271426, Control_c, 0, 64, 109
1, 271441, Control_c, 0, 64, 111
1, 271456, Control_c, 0, 64, 113
1, 271485, Control_c, 0, 64, 117
1, 271856, Note_on_c, 0, 74, 38
1, 271860, Note_on_c, 0, 58, 35
1, 271871, Note_on_c, 0, 65, 30
1, 271876, Note_on_c, 0, 62, 30
1, 271938, Control_c, 0, 64, 112
1, 271953, Control_c, 0, 64, 106
1, 271968, Control_c, 0, 64, 98
1, 271982, Control_c, 0, 64, 90
1, 271997, Control_c, 0, 64, 82
1, 272012, Control_c, 0, 64, 73
1, 272026, Control_c, 0, 64, 65
1, 272041, Control_c, 0, 64, 60
1, 272056, Control_c, 0, 64, 60
1, 272086, Control_c, 0, 64, 60
1, 272101, Control_c, 0, 64, 62
1, 272116, Control_c, 0, 64, 63
1, 272131, Control_c, 0, 64, 65
1, 272145, Control_c, 0, 64, 67
1, 272160, Control_c, 0, 64, 71
1, 272175, Control_c, 0, 64, 74
1, 272190, Control_c, 0, 64, 77
1, 272205, Control_c, 0, 64, 81
1, 272220, Control_c, 0, 64, 85
1, 272235, Control_c, 0, 64, 88
1, 272250, Control_c, 0, 64, 92
1, 272265, Control_c, 0, 64, 97
1, 272280, Control_c, 0, 64, 100
1, 272294, Control_c, 0, 64, 103
1, 272309, Control_c, 0, 64, 105
1, 272324, Control_c, 0, 64, 108
1, 272339, Control_c, 0, 64, 112
1, 272361, Control_c, 0, 64, 116
1, 272375, Control_c, 0, 64, 120
1, 272390, Control_c, 0, 64, 124
1, 272420, Control_c, 0, 64, 127
1, 272516, Note_on_c, 0, 72, 42
1, 272569, Control_c, 0, 64, 124
1, 272578, Note_off_c, 0, 74, 36
1, 272583, Control_c, 0, 64, 117
1, 272598, Control_c, 0, 64, 111
1, 272602, Note_on_c, 0, 70, 44
1, 272613, Control_c, 0, 64, 106
1, 272616, Note_off_c, 0, 72, 34
1, 272627, Control_c, 0, 64, 102
1, 272642, Control_c, 0, 64, 99
1, 272657, Control_c, 0, 64, 93
1, 272672, Control_c, 0, 64, 86
1, 272687, Control_c, 0, 64, 79
1, 272697, Note_on_c, 0, 69, 40
1, 272701, Control_c, 0, 64, 74
1, 272713, Note_on_c, 0, 63, 22
1, 272714, Note_on_c, 0, 60, 24
1, 272715, Note_off_c, 0, 70, 35
1, 272716, Control_c, 0, 64, 69
1, 272732, Control_c, 0, 64, 65
1, 272747, Control_c, 0, 64, 60
1, 272756, Note_off_c, 0, 58, 38
1, 272762, Control_c, 0, 64, 52
1, 272777, Control_c, 0, 64, 48
1, 272791, Control_c, 0, 64, 47
1, 272797, Note_off_c, 0, 62, 43
1, 272821, Control_c, 0, 64, 45
1, 272836, Control_c, 0, 64, 42
1, 272850, Control_c, 0, 64, 36
1, 272865, Control_c, 0, 64, 0
1, 273070, Note_off_c, 0, 65, 35
1, 273098, Note_off_c, 0, 60, 44
1, 273139, Note_off_c, 0, 63, 42
1, 273180, Note_off_c, 0, 69, 52
1, 273450, Control_c, 0, 64, 39
1, 273465, Control_c, 0, 64, 45
1, 273480, Control_c, 0, 64, 51
1, 273495, Control_c, 0, 64, 57
1, 273510, Control_c, 0, 64, 61
1, 273526, Control_c, 0, 64, 63
1, 273541, Control_c, 0, 64, 65
1, 273555, Control_c, 0, 64, 67
1, 273570, Control_c, 0, 64, 69
1, 273585, Control_c, 0, 64, 72
1, 273599, Control_c, 0, 64, 75
1, 273614, Control_c, 0, 64, 79
1, 273629, Control_c, 0, 64, 82
1, 273644, Control_c, 0, 64, 87
1, 273659, Control_c, 0, 64, 92
1, 273659, Control_c, 0, 67, 122
1, 273673, Control_c, 0, 64, 100
1, 273673, Control_c, 0, 67, 117
1, 273687, Control_c, 0, 64, 110
1, 273687, Control_c, 0, 67, 112
1, 273702, Control_c, 0, 64, 127
1, 273702, Control_c, 0, 67, 106
1, 273717, Control_c, 0, 67, 99
1, 273732, Control_c, 0, 67, 89
1, 273746, Control_c, 0, 67, 80
1, 273761, Control_c, 0, 67, 73
1, 273776, Control_c, 0, 67, 69
1, 273791, Control_c, 0, 67, 66
1, 273806, Control_c, 0, 67, 65
1, 273836, Control_c, 0, 67, 65
1, 273993, Note_on_c, 0, 72, 48
1, 274108, Note_on_c, 0, 75, 52
1, 274116, Note_off_c, 0, 72, 36
1, 274117, Note_on_c, 0, 69, 42
1, 274122, Note_on_c, 0, 65, 43
1, 274128, Note_on_c, 0, 60, 30
1, 274140, Control_c, 0, 64, 107
1, 274154, Control_c, 0, 64, 94
1, 274169, Control_c, 0, 64, 82
1, 274184, Control_c, 0, 64, 72
1, 274198, Control_c, 0, 64, 63
1, 274213, Control_c, 0, 64, 45
1, 274228, Control_c, 0, 64, 0
1, 274272, Control_c, 0, 64, 34
1, 274287, Control_c, 0, 64, 39
1, 274302, Control_c, 0, 64, 46
1, 274318, Control_c, 0, 64, 56
1, 274333, Control_c, 0, 64, 63
1, 274348, Control_c, 0, 64, 67
1, 274363, Control_c, 0, 64, 71
1, 274377, Control_c, 0, 64, 75
1, 274392, Control_c, 0, 64, 80
1, 274407, Control_c, 0, 64, 84
1, 274421, Control_c, 0, 64, 88
1, 274436, Control_c, 0, 64, 92
1, 274451, Control_c, 0, 64, 96
1, 274466, Control_c, 0, 64, 100
1, 274481, Control_c, 0, 64, 102
1, 274525, Control_c, 0, 64, 105
1, 274555, Control_c, 0, 64, 107
1, 274636, Control_c, 0, 64, 109
1, 274694, Note_on_c, 0, 74, 45
1, 274762, Note_off_c, 0, 74, 47
1, 274772, Note_on_c, 0, 72, 45
1, 274775, Note_off_c, 0, 75, 34
1, 274814, Control_c, 0, 64, 104
1, 274828, Control_c, 0, 64, 97
1, 274843, Control_c, 0, 64, 87
1, 274858, Note_on_c, 0, 70, 50
1, 274858, Control_c, 0, 64, 76
1, 274861, Note_on_c, 0, 62, 35
1, 274873, Control_c, 0, 64, 65
1, 274888, Control_c, 0, 64, 51
1, 274894, Note_off_c, 0, 69, 38
1, 274897, Note_off_c, 0, 72, 34
1, 274898, Note_off_c, 0, 60, 43
1, 274903, Control_c, 0, 64, 0
1, 274903, Control_c, 0, 67, 65
1, 274962, Control_c, 0, 64, 34
1, 274977, Control_c, 0, 64, 44
1, 274992, Control_c, 0, 64, 55
1, 275007, Control_c, 0, 64, 63
1, 275021, Control_c, 0, 64, 67
1, 275036, Control_c, 0, 64, 72
1, 275051, Control_c, 0, 64, 76
1, 275066, Control_c, 0, 64, 79
1, 275075, Note_off_c, 0, 65, 40
1, 275081, Control_c, 0, 64, 81
1, 275088, Note_off_c, 0, 62, 61
1, 275095, Control_c, 0, 64, 84
1, 275110, Control_c, 0, 64, 86
1, 275126, Control_c, 0, 64, 87
1, 275141, Control_c, 0, 64, 88
1, 275142, Note_off_c, 0, 70, 57
1, 275156, Control_c, 0, 67, 66
1, 275170, Control_c, 0, 64, 87
1, 275170, Control_c, 0, 67, 66
1, 275185, Control_c, 0, 64, 83
1, 275185, Control_c, 0, 67, 67
1, 275200, Control_c, 0, 64, 73
1, 275200, Control_c, 0, 67, 67
1, 275215, Control_c, 0, 64, 64
1, 275215, Control_c, 0, 67, 68
1, 275230, Control_c, 0, 64, 49
1, 275230, Control_c, 0, 67, 68
1, 275244, Control_c, 0, 64, 0
1, 275244, Control_c, 0, 67, 69
1, 275289, Control_c, 0, 67, 69
1, 275304, Control_c, 0, 67, 70
1, 275445, Note_on_c, 0, 74, 73
1, 275474, Control_c, 0, 67, 69
1, 275504, Control_c, 0, 67, 68
1, 275518, Control_c, 0, 67, 67
1, 275530, Note_on_c, 0, 77, 86
1, 275532, Note_on_c, 0, 62, 60
1, 275533, Control_c, 0, 67, 66
1, 275541, Note_on_c, 0, 50, 53
1, 275541, Note_on_c, 0, 65, 78
1, 275545, Note_on_c, 0, 71, 75
1, 275548, Control_c, 0, 67, 66
1, 275563, Control_c, 0, 67, 65
1, 275577, Control_c, 0, 67, 63
1, 275592, Control_c, 0, 67, 56
1, 275603, Note_off_c, 0, 74, 53
1, 275607, Control_c, 0, 67, 38
1, 275622, Control_c, 0, 67, 0
1, 275637, Control_c, 0, 64, 42
1, 275651, Control_c, 0, 64, 53
1, 275666, Control_c, 0, 64, 62
1, 275681, Control_c, 0, 64, 68
1, 275696, Control_c, 0, 64, 76
1, 275711, Control_c, 0, 64, 85
1, 275726, Control_c, 0, 64, 99
1, 275740, Control_c, 0, 64, 127
1, 275797, Note_off_c, 0, 65, 61
1, 275825, Note_off_c, 0, 62, 55
1, 275838, Note_off_c, 0, 50, 58
1, 275881, Note_off_c, 0, 71, 63
1, 276073, Note_on_c, 0, 75, 74
1, 276153, Note_on_c, 0, 74, 76
1, 276156, Note_off_c, 0, 77, 58
1, 276245, Note_on_c, 0, 51, 53
1, 276250, Note_on_c, 0, 72, 79
1, 276253, Note_off_c, 0, 75, 36
1, 276263, Note_on_c, 0, 63, 43
1, 276265, Note_on_c, 0, 67, 63
1, 276296, Note_off_c, 0, 67, 67
1, 276296, Control_c, 0, 64, 115
1, 276311, Control_c, 0, 64, 91
1, 276314, Note_off_c, 0, 63, 61
1, 276317, Note_off_c, 0, 74, 61
1, 276326, Control_c, 0, 64, 75
1, 276332, Note_off_c, 0, 72, 66
1, 276340, Control_c, 0, 64, 62
1, 276349, Note_off_c, 0, 51, 57
1, 276355, Control_c, 0, 64, 37
1, 276370, Control_c, 0, 64, 0
1, 276504, Control_c, 0, 64, 37
1, 276518, Control_c, 0, 64, 51
1, 276533, Control_c, 0, 64, 61
1, 276533, Control_c, 0, 67, 21
1, 276548, Control_c, 0, 64, 65
1, 276548, Control_c, 0, 67, 25
1, 276563, Control_c, 0, 64, 68
1, 276563, Control_c, 0, 67, 30
1, 276578, Control_c, 0, 64, 71
1, 276578, Control_c, 0, 67, 37
1, 276592, Control_c, 0, 64, 75
1, 276592, Control_c, 0, 67, 48
1, 276607, Control_c, 0, 64, 80
1, 276607, Control_c, 0, 67, 60
1, 276622, Control_c, 0, 64, 84
1, 276622, Control_c, 0, 67, 72
1, 276637, Control_c, 0, 64, 88
1, 276637, Control_c, 0, 67, 86
1, 276652, Control_c, 0, 64, 92
1, 276652, Control_c, 0, 67, 102
1, 276666, Control_c, 0, 64, 96
1, 276666, Control_c, 0, 67, 115
1, 276681, Control_c, 0, 64, 98
1, 276681, Control_c, 0, 67, 127
1, 276712, Control_c, 0, 64, 101
1, 276737, Note_on_c, 0, 79, 71
1, 276740, Note_on_c, 0, 47, 39
1, 276742, Control_c, 0, 64, 103
1, 276743, Note_on_c, 0, 74, 50
1, 276754, Note_on_c, 0, 59, 28
1, 276755, Note_on_c, 0, 67, 38
1, 276801, Control_c, 0, 64, 105
1, 276817, Note_off_c, 0, 59, 38
1, 276819, Note_off_c, 0, 67, 35
1, 276840, Note_off_c, 0, 47, 48
1, 276914, Note_off_c, 0, 79, 57
1, 276941, Control_c, 0, 64, 103
1, 276951, Note_off_c, 0, 74, 50
1, 276956, Control_c, 0, 64, 100
1, 276971, Control_c, 0, 64, 95
1, 276986, Control_c, 0, 64, 87
1, 277001, Control_c, 0, 64, 78
1, 277015, Control_c, 0, 64, 69
1, 277030, Control_c, 0, 64, 61
1, 277045, Control_c, 0, 64, 46
1, 277060, Control_c, 0, 64, 0
1, 277193, Control_c, 0, 64, 37
1, 277208, Control_c, 0, 64, 48
1, 277222, Control_c, 0, 64, 56
1, 277237, Control_c, 0, 64, 62
1, 277252, Control_c, 0, 64, 64
1, 277267, Control_c, 0, 64, 66
1, 277282, Control_c, 0, 64, 68
1, 277296, Control_c, 0, 64, 71
1, 277311, Control_c, 0, 64, 74
1, 277326, Control_c, 0, 64, 78
1, 277341, Control_c, 0, 64, 82
1, 277356, Control_c, 0, 64, 86
1, 277371, Control_c, 0, 64, 89
1, 277386, Control_c, 0, 64, 92
1, 277401, Control_c, 0, 64, 94
1, 277415, Control_c, 0, 64, 96
1, 277445, Control_c, 0, 64, 99
1, 277475, Control_c, 0, 64, 101
1, 277670, Note_on_c, 0, 48, 31
1, 277674, Note_on_c, 0, 77, 32
1, 277688, Note_on_c, 0, 67, 23
1, 277853, Note_on_c, 0, 75, 50
1, 277865, Note_off_c, 0, 77, 42
1, 277879, Note_off_c, 0, 67, 41
1, 277893, Note_off_c, 0, 75, 61
1, 278017, Control_c, 0, 64, 94
1, 278032, Control_c, 0, 64, 82
1, 278040, Note_on_c, 0, 50, 44
1, 278046, Control_c, 0, 64, 71
1, 278051, Note_off_c, 0, 48, 40
1, 278056, Note_on_c, 0, 75, 41
1, 278060, Note_on_c, 0, 65, 42
1, 278061, Control_c, 0, 64, 59
1, 278076, Control_c, 0, 64, 0
1, 278120, Control_c, 0, 64, 36
1, 278135, Control_c, 0, 64, 46
1, 278150, Control_c, 0, 64, 55
1, 278164, Control_c, 0, 64, 63
1, 278179, Control_c, 0, 64, 69
1, 278194, Control_c, 0, 64, 77
1, 278206, Note_on_c, 0, 74, 64
1, 278209, Control_c, 0, 64, 83
1, 278224, Control_c, 0, 64, 87
1, 278235, Note_off_c, 0, 74, 64
1, 278238, Note_off_c, 0, 75, 51
1, 278238, Control_c, 0, 64, 91
1, 278253, Control_c, 0, 64, 95
1, 278262, Note_off_c, 0, 65, 38
1, 278268, Control_c, 0, 64, 98
1, 278395, Control_c, 0, 64, 92
1, 278401, Note_on_c, 0, 51, 41
1, 278410, Control_c, 0, 64, 80
1, 278413, Note_on_c, 0, 74, 60
1, 278417, Note_on_c, 0, 63, 50
1, 278425, Control_c, 0, 64, 67
1, 278440, Control_c, 0, 64, 49
1, 278448, Note_off_c, 0, 50, 30
1, 278455, Control_c, 0, 64, 0
1, 278499, Control_c, 0, 64, 36
1, 278513, Control_c, 0, 64, 50
1, 278528, Control_c, 0, 64, 60
1, 278543, Control_c, 0, 64, 65
1, 278558, Control_c, 0, 64, 69
1, 278573, Control_c, 0, 64, 73
1, 278575, Note_on_c, 0, 72, 64
1, 278587, Control_c, 0, 64, 76
1, 278599, Note_off_c, 0, 74, 56
1, 278602, Control_c, 0, 64, 78
1, 278611, Note_off_c, 0, 63, 56
1, 278617, Control_c, 0, 64, 80
1, 278632, Control_c, 0, 64, 82
1, 278647, Control_c, 0, 64, 83
1, 278662, Control_c, 0, 64, 84
1, 278677, Control_c, 0, 64, 85
1, 278692, Control_c, 0, 64, 86
1, 278694, Note_off_c, 0, 72, 36
1, 278795, Control_c, 0, 64, 85
1, 278810, Control_c, 0, 64, 84
1, 278814, Note_on_c, 0, 53, 37
1, 278823, Note_on_c, 0, 70, 53
1, 278825, Control_c, 0, 64, 81
1, 278827, Note_on_c, 0, 62, 41
1, 278840, Control_c, 0, 64, 76
1, 278855, Control_c, 0, 64, 71
1, 278869, Control_c, 0, 64, 64
1, 278884, Control_c, 0, 64, 53
1, 278899, Note_off_c, 0, 51, 40
1, 278899, Control_c, 0, 64, 34
1, 278913, Control_c, 0, 64, 0
1, 279032, Control_c, 0, 64, 39
1, 279047, Control_c, 0, 64, 52
1, 279061, Control_c, 0, 64, 61
1, 279076, Control_c, 0, 64, 66
1, 279099, Control_c, 0, 64, 70
1, 279115, Control_c, 0, 64, 74
1, 279130, Control_c, 0, 64, 77
1, 279144, Control_c, 0, 64, 80
1, 279159, Control_c, 0, 64, 84
1, 279174, Control_c, 0, 64, 88
1, 279189, Control_c, 0, 64, 94
1, 279204, Control_c, 0, 64, 99
1, 279218, Control_c, 0, 64, 102
1, 279233, Control_c, 0, 64, 104
1, 279255, Note_off_c, 0, 62, 40
1, 279263, Control_c, 0, 64, 106
1, 279292, Control_c, 0, 64, 108
1, 279620, Note_on_c, 0, 41, 31
1, 279633, Control_c, 0, 64, 104
1, 279642, Note_off_c, 0, 53, 31
1, 279648, Control_c, 0, 64, 95
1, 279650, Note_on_c, 0, 69, 39
1, 279663, Control_c, 0, 64, 83
1, 279678, Control_c, 0, 64, 71
1, 279679, Note_on_c, 0, 60, 25
1, 279690, Note_off_c, 0, 70, 35
1, 279693, Control_c, 0, 64, 56
1, 279708, Control_c, 0, 64, 0
1, 279752, Control_c, 0, 64, 41
1, 279767, Control_c, 0, 64, 51
1, 279782, Control_c, 0, 64, 61
1, 279797, Control_c, 0, 64, 66
1, 279811, Control_c, 0, 64, 71
1, 279826, Control_c, 0, 64, 75
1, 279848, Control_c, 0, 64, 78
1, 279863, Control_c, 0, 64, 80
1, 279872, Note_off_c, 0, 60, 44
1, 279878, Control_c, 0, 64, 82
1, 279893, Control_c, 0, 64, 84
1, 279908, Control_c, 0, 64, 86
1, 279923, Control_c, 0, 64, 87
1, 279928, Note_off_c, 0, 41, 35
1, 279938, Control_c, 0, 64, 87
1, 279949, Note_off_c, 0, 69, 31
1, 279953, Control_c, 0, 64, 88
1, 279967, Control_c, 0, 64, 88
1, 280012, Control_c, 0, 64, 89
1, 280160, Control_c, 0, 64, 88
1, 280190, Control_c, 0, 64, 87
1, 280205, Control_c, 0, 64, 87
1, 280220, Control_c, 0, 64, 86
1, 280231, Note_on_c, 0, 65, 46
1, 280234, Control_c, 0, 64, 85
1, 280249, Control_c, 0, 64, 84
1, 280264, Control_c, 0, 64, 81
1, 280277, Note_off_c, 0, 65, 52
1, 280279, Control_c, 0, 64, 77
1, 280293, Control_c, 0, 64, 73
1, 280308, Control_c, 0, 64, 68
1, 280323, Control_c, 0, 64, 64
1, 280338, Control_c, 0, 64, 57
1, 280353, Control_c, 0, 64, 47
1, 280367, Control_c, 0, 64, 40
1, 280382, Control_c, 0, 64, 36
1, 280397, Control_c, 0, 64, 34
1, 280412, Control_c, 0, 64, 0
1, 280434, Note_on_c, 0, 67, 35
1, 280469, Note_off_c, 0, 67, 52
1, 280590, Note_on_c, 0, 69, 48
1, 280630, Note_off_c, 0, 69, 60
1, 280752, Note_on_c, 0, 70, 52
1, 280795, Note_off_c, 0, 70, 60
1, 280924, Note_on_c, 0, 72, 59
1, 280963, Note_off_c, 0, 72, 56
1, 281177, Note_on_c, 0, 58, 34
1, 281180, Note_on_c, 0, 74, 41
1, 281184, Note_on_c, 0, 65, 40
1, 281345, Control_c, 0, 64, 34
1, 281360, Control_c, 0, 64, 42
1, 281375, Control_c, 0, 64, 51
1, 281375, Control_c, 0, 67, 120
1, 281389, Control_c, 0, 64, 58
1, 281389, Control_c, 0, 67, 111
1, 281404, Control_c, 0, 64, 62
1, 281404, Control_c, 0, 67, 104
1, 281419, Control_c, 0, 64, 64
1, 281419, Control_c, 0, 67, 97
1, 281434, Control_c, 0, 64, 66
1, 281434, Control_c, 0, 67, 91
1, 281449, Control_c, 0, 64, 68
1, 281449, Control_c, 0, 67, 86
1, 281464, Control_c, 0, 64, 70
1, 281464, Control_c, 0, 67, 82
1, 281479, Control_c, 0, 64, 74
1, 281479, Control_c, 0, 67, 77
1, 281494, Control_c, 0, 64, 78
1, 281494, Control_c, 0, 67, 72
1, 281509, Control_c, 0, 64, 82
1, 281509, Control_c, 0, 67, 68
1, 281524, Control_c, 0, 64, 86
1, 281524, Control_c, 0, 67, 63
1, 281538, Control_c, 0, 64, 89
1, 281538, Control_c, 0, 67, 58
1, 281553, Control_c, 0, 64, 92
1, 281553, Control_c, 0, 67, 53
1, 281568, Control_c, 0, 64, 94
1, 281568, Control_c, 0, 67, 48
1, 281583, Control_c, 0, 64, 95
1, 281583, Control_c, 0, 67, 44
1, 281598, Control_c, 0, 67, 39
1, 281613, Control_c, 0, 64, 98
1, 281613, Control_c, 0, 67, 35
1, 281628, Control_c, 0, 67, 31
1, 281643, Control_c, 0, 67, 27
1, 281658, Control_c, 0, 67, 25
1, 281672, Control_c, 0, 67, 22
1, 281687, Control_c, 0, 67, 20
1, 281702, Control_c, 0, 67, 0
1, 281805, Control_c, 0, 64, 95
1, 281820, Control_c, 0, 64, 93
1, 281835, Control_c, 0, 64, 91
1, 281836, Note_on_c, 0, 72, 42
1, 281850, Control_c, 0, 64, 89
1, 281864, Control_c, 0, 64, 86
1, 281867, Note_off_c, 0, 58, 37
1, 281878, Note_off_c, 0, 74, 26
1, 281878, Note_on_c, 0, 60, 18
1, 281879, Control_c, 0, 64, 83
1, 281894, Control_c, 0, 64, 80
1, 281898, Note_off_c, 0, 72, 53
1, 281909, Control_c, 0, 64, 77
1, 281915, Note_on_c, 0, 70, 46
1, 281924, Control_c, 0, 64, 72
1, 281930, Note_off_c, 0, 60, 46
1, 281934, Note_on_c, 0, 62, 30
1, 281938, Control_c, 0, 64, 67
1, 281953, Control_c, 0, 64, 61
1, 281968, Control_c, 0, 64, 48
1, 281983, Control_c, 0, 64, 0
1, 281989, Note_off_c, 0, 70, 55
1, 282000, Note_on_c, 0, 69, 44
1, 282005, Note_off_c, 0, 62, 55
1, 282014, Note_on_c, 0, 63, 35
1, 282138, Control_c, 0, 64, 36
1, 282153, Control_c, 0, 64, 49
1, 282168, Control_c, 0, 64, 59
1, 282183, Control_c, 0, 64, 64
1, 282198, Control_c, 0, 64, 66
1, 282212, Control_c, 0, 64, 69
1, 282227, Control_c, 0, 64, 71
1, 282242, Control_c, 0, 64, 75
1, 282257, Control_c, 0, 64, 79
1, 282272, Control_c, 0, 64, 83
1, 282280, Note_off_c, 0, 65, 40
1, 282286, Control_c, 0, 64, 89
1, 282296, Note_off_c, 0, 69, 62
1, 282301, Control_c, 0, 64, 94
1, 282317, Control_c, 0, 64, 98
1, 282327, Note_off_c, 0, 63, 55
1, 282332, Control_c, 0, 64, 100
1, 282406, Control_c, 0, 64, 98
1, 282421, Control_c, 0, 64, 92
1, 282436, Control_c, 0, 64, 84
1, 282450, Control_c, 0, 64, 75
1, 282465, Control_c, 0, 64, 66
1, 282480, Control_c, 0, 64, 54
1, 282495, Control_c, 0, 64, 34
1, 282510, Control_c, 0, 64, 0
1, 282623, Note_on_c, 0, 72, 58
1, 282719, Note_on_c, 0, 75, 79
1, 282736, Note_on_c, 0, 65, 54
1, 282746, Note_on_c, 0, 57, 38
1, 282749, Note_off_c, 0, 72, 57
1, 282807, Control_c, 0, 64, 44
1, 282822, Control_c, 0, 64, 54
1, 282844, Control_c, 0, 64, 62
1, 282859, Control_c, 0, 64, 66
1, 282874, Control_c, 0, 64, 71
1, 282888, Control_c, 0, 64, 77
1, 282903, Control_c, 0, 64, 84
1, 282918, Control_c, 0, 64, 94
1, 282933, Control_c, 0, 64, 120
1, 282948, Control_c, 0, 64, 127
1, 283003, Note_off_c, 0, 65, 37
1, 283093, Note_off_c, 0, 75, 58
1, 283096, Note_off_c, 0, 57, 46
1, 283335, Note_on_c, 0, 58, 49
1, 283336, Note_on_c, 0, 74, 68
1, 283374, Note_off_c, 0, 58, 64
1, 283407, Note_on_c, 0, 72, 73
1, 283413, Note_on_c, 0, 60, 51
1, 283442, Note_off_c, 0, 74, 59
1, 283470, Note_off_c, 0, 60, 49
1, 283485, Note_on_c, 0, 77, 83
1, 283500, Note_on_c, 0, 71, 65
1, 283500, Note_on_c, 0, 50, 49
1, 283503, Note_on_c, 0, 65, 56
1, 283512, Note_off_c, 0, 72, 58
1, 283541, Control_c, 0, 64, 119
1, 283556, Control_c, 0, 64, 83
1, 283571, Control_c, 0, 64, 63
1, 283592, Control_c, 0, 64, 33
1, 283607, Control_c, 0, 64, 0
1, 283652, Control_c, 0, 64, 44
1, 283667, Control_c, 0, 64, 58
1, 283682, Control_c, 0, 64, 69
1, 283696, Control_c, 0, 64, 78
1, 283711, Control_c, 0, 64, 91
1, 283726, Control_c, 0, 64, 105
1, 283741, Control_c, 0, 64, 127
1, 283785, Note_off_c, 0, 65, 62
1, 283827, Note_off_c, 0, 71, 64
1, 284041, Note_off_c, 0, 50, 35
1, 284123, Note_on_c, 0, 75, 73
1, 284138, Note_on_c, 0, 51, 18
1, 284150, Note_off_c, 0, 77, 56
1, 284181, Note_off_c, 0, 51, 48
1, 284213, Note_on_c, 0, 53, 42
1, 284215, Note_on_c, 0, 74, 82
1, 284251, Note_off_c, 0, 75, 59
1, 284418, Note_on_c, 0, 51, 40
1, 284445, Note_on_c, 0, 78, 75
1, 284473, Note_off_c, 0, 53, 36
1, 284489, Control_c, 0, 64, 106
1, 284498, Note_off_c, 0, 74, 57
1, 284504, Control_c, 0, 64, 95
1, 284519, Control_c, 0, 64, 84
1, 284533, Control_c, 0, 64, 74
1, 284548, Control_c, 0, 64, 64
1, 284563, Control_c, 0, 64, 46
1, 284578, Control_c, 0, 64, 0
1, 284666, Control_c, 0, 67, 19
1, 284681, Control_c, 0, 67, 22
1, 284696, Control_c, 0, 67, 25
1, 284712, Control_c, 0, 64, 44
1, 284712, Control_c, 0, 67, 29
1, 284727, Control_c, 0, 64, 56
1, 284727, Control_c, 0, 67, 36
1, 284742, Control_c, 0, 64, 63
1, 284742, Control_c, 0, 67, 47
1, 284756, Control_c, 0, 64, 66
1, 284756, Control_c, 0, 67, 60
1, 284771, Control_c, 0, 64, 71
1, 284771, Control_c, 0, 67, 75
1, 284786, Control_c, 0, 64, 74
1, 284786, Control_c, 0, 67, 87
1, 284801, Control_c, 0, 64, 77
1, 284801, Control_c, 0, 67, 98
1, 284816, Control_c, 0, 64, 80
1, 284816, Control_c, 0, 67, 108
1, 284830, Control_c, 0, 64, 83
1, 284830, Control_c, 0, 67, 119
1, 284845, Control_c, 0, 64, 86
1, 284845, Control_c, 0, 67, 127
1, 284860, Control_c, 0, 64, 89
1, 284874, Control_c, 0, 64, 93
1, 284889, Control_c, 0, 64, 95
1, 284920, Control_c, 0, 64, 98
1, 285333, Note_on_c, 0, 60, 32
1, 285490, Control_c, 0, 64, 96
1, 285506, Control_c, 0, 64, 95
1, 285521, Control_c, 0, 64, 94
1, 285536, Note_off_c, 0, 78, 60
1, 285536, Control_c, 0, 64, 91
1, 285539, Note_on_c, 0, 79, 58
1, 285551, Control_c, 0, 64, 87
1, 285565, Control_c, 0, 64, 78
1, 285580, Control_c, 0, 64, 69
1, 285595, Control_c, 0, 64, 58
1, 285610, Control_c, 0, 64, 0
1, 285698, Control_c, 0, 64, 41
1, 285713, Control_c, 0, 64, 56
1, 285728, Control_c, 0, 64, 64
1, 285734, Note_on_c, 0, 63, 37
1, 285734, Note_on_c, 0, 75, 52
1, 285738, Note_off_c, 0, 51, 55
1, 285743, Control_c, 0, 64, 68
1, 285758, Control_c, 0, 64, 73
1, 285772, Control_c, 0, 64, 76
1, 285787, Control_c, 0, 64, 78
1, 285802, Control_c, 0, 64, 81
1, 285817, Control_c, 0, 64, 84
1, 285820, Note_off_c, 0, 79, 26
1, 285833, Note_off_c, 0, 63, 54
1, 285839, Control_c, 0, 64, 87
1, 285854, Control_c, 0, 64, 89
1, 285869, Control_c, 0, 64, 91
1, 285884, Control_c, 0, 64, 92
1, 285911, Note_off_c, 0, 75, 59
1, 285913, Control_c, 0, 64, 92
1, 285917, Note_on_c, 0, 72, 63
1, 285943, Control_c, 0, 64, 93
1, 285950, Note_off_c, 0, 72, 62
1, 286120, Control_c, 0, 64, 92
1, 286135, Control_c, 0, 64, 92
1, 286150, Control_c, 0, 64, 89
1, 286154, Note_on_c, 0, 53, 34
1, 286156, Note_on_c, 0, 62, 30
1, 286165, Control_c, 0, 64, 85
1, 286165, Note_on_c, 0, 72, 44
1, 286180, Control_c, 0, 64, 78
1, 286189, Note_on_c, 0, 65, 38
1, 286193, Note_off_c, 0, 60, 36
1, 286194, Control_c, 0, 64, 71
1, 286209, Control_c, 0, 64, 62
1, 286224, Control_c, 0, 64, 44
1, 286239, Control_c, 0, 64, 0
1, 286343, Control_c, 0, 64, 43
1, 286358, Control_c, 0, 64, 58
1, 286359, Note_off_c, 0, 72, 60
1, 286373, Control_c, 0, 64, 63
1, 286381, Note_on_c, 0, 70, 49
1, 286388, Control_c, 0, 64, 66
1, 286403, Control_c, 0, 64, 68
1, 286418, Control_c, 0, 64, 70
1, 286433, Control_c, 0, 64, 72
1, 286447, Control_c, 0, 64, 74
1, 286460, Note_off_c, 0, 70, 57
1, 286462, Control_c, 0, 64, 76
1, 286477, Control_c, 0, 64, 78
1, 286492, Control_c, 0, 64, 80
1, 286507, Control_c, 0, 64, 80
1, 286536, Control_c, 0, 64, 79
1, 286551, Control_c, 0, 64, 76
1, 286566, Control_c, 0, 64, 69
1, 286588, Control_c, 0, 64, 63
1, 286601, Note_on_c, 0, 70, 51
1, 286603, Control_c, 0, 64, 57
1, 286618, Control_c, 0, 64, 55
1, 286633, Control_c, 0, 64, 57
1, 286648, Control_c, 0, 64, 59
1, 286662, Control_c, 0, 64, 62
1, 286677, Control_c, 0, 64, 65
1, 286692, Control_c, 0, 64, 68
1, 286707, Control_c, 0, 64, 71
1, 286722, Control_c, 0, 64, 74
1, 286725, Note_off_c, 0, 53, 40
1, 286736, Control_c, 0, 64, 77
1, 286751, Control_c, 0, 64, 79
1, 286766, Control_c, 0, 64, 81
1, 286781, Control_c, 0, 64, 82
1, 286796, Control_c, 0, 64, 82
1, 286840, Control_c, 0, 64, 83
1, 286899, Control_c, 0, 64, 83
1, 286943, Control_c, 0, 64, 83
1, 286958, Control_c, 0, 64, 79
1, 286972, Control_c, 0, 64, 72
1, 286987, Control_c, 0, 64, 64
1, 287002, Control_c, 0, 64, 53
1, 287012, Note_on_c, 0, 58, 30
1, 287017, Control_c, 0, 64, 37
1, 287018, Note_on_c, 0, 53, 33
1, 287032, Control_c, 0, 64, 0
1, 287047, Control_c, 0, 64, 36
1, 287062, Control_c, 0, 64, 45
1, 287077, Control_c, 0, 64, 51
1, 287092, Control_c, 0, 64, 57
1, 287107, Control_c, 0, 64, 63
1, 287122, Control_c, 0, 64, 68
1, 287137, Control_c, 0, 64, 71
1, 287151, Control_c, 0, 64, 74
1, 287167, Control_c, 0, 64, 76
1, 287169, Note_off_c, 0, 62, 39
1, 287182, Control_c, 0, 64, 77
1, 287197, Control_c, 0, 64, 78
1, 287212, Control_c, 0, 64, 79
1, 287226, Note_off_c, 0, 65, 38
1, 287226, Control_c, 0, 64, 79
1, 287237, Note_on_c, 0, 74, 67
1, 287241, Control_c, 0, 64, 80
1, 287285, Control_c, 0, 64, 80
1, 287315, Control_c, 0, 64, 81
1, 287367, Control_c, 0, 64, 80
1, 287379, Note_off_c, 0, 70, 28
1, 287382, Control_c, 0, 64, 75
1, 287397, Control_c, 0, 64, 66
1, 287411, Control_c, 0, 64, 54
1, 287426, Control_c, 0, 64, 0
1, 287444, Note_on_c, 0, 62, 40
1, 287456, Control_c, 0, 64, 41
1, 287471, Control_c, 0, 64, 51
1, 287485, Control_c, 0, 64, 59
1, 287500, Control_c, 0, 64, 65
1, 287515, Control_c, 0, 64, 72
1, 287530, Control_c, 0, 64, 80
1, 287545, Control_c, 0, 64, 86
1, 287560, Control_c, 0, 64, 90
1, 287575, Control_c, 0, 64, 93
1, 287590, Control_c, 0, 64, 94
1, 287594, Note_off_c, 0, 62, 54
1, 287604, Control_c, 0, 64, 95
1, 287612, Note_off_c, 0, 53, 40
1, 287638, Note_on_c, 0, 77, 67
1, 287664, Control_c, 0, 64, 95
1, 287716, Note_off_c, 0, 74, 59
1, 287855, Note_on_c, 0, 53, 33
1, 287856, Control_c, 0, 64, 95
1, 287860, Note_on_c, 0, 60, 37
1, 287885, Control_c, 0, 64, 94
1, 287901, Control_c, 0, 64, 92
1, 287916, Control_c, 0, 64, 89
1, 287931, Control_c, 0, 64, 85
1, 287946, Control_c, 0, 64, 80
1, 287961, Control_c, 0, 64, 75
1, 287975, Control_c, 0, 64, 69
1, 287988, Note_off_c, 0, 58, 59
1, 287990, Control_c, 0, 64, 62
1, 288005, Control_c, 0, 64, 50
1, 288019, Control_c, 0, 64, 35
1, 288034, Control_c, 0, 64, 0
1, 288059, Note_on_c, 0, 75, 58
1, 288139, Note_off_c, 0, 77, 56
1, 288190, Control_c, 0, 64, 35
1, 288205, Control_c, 0, 64, 46
1, 288220, Control_c, 0, 64, 56
1, 288234, Control_c, 0, 64, 63
1, 288249, Control_c, 0, 64, 67
1, 288251, Note_on_c, 0, 57, 36
1, 288264, Control_c, 0, 64, 72
1, 288279, Control_c, 0, 64, 75
1, 288294, Control_c, 0, 64, 78
1, 288308, Control_c, 0, 64, 81
1, 288323, Control_c, 0, 64, 83
1, 288338, Control_c, 0, 64, 85
1, 288353, Control_c, 0, 64, 87
1, 288368, Control_c, 0, 64, 89
1, 288373, Note_off_c, 0, 53, 37
1, 288382, Control_c, 0, 64, 90
1, 288384, Note_off_c, 0, 57, 62
1, 288385, Note_off_c, 0, 60, 38
1, 288397, Control_c, 0, 64, 90
1, 288412, Control_c, 0, 64, 91
1, 288444, Note_off_c, 0, 75, 30
1, 288445, Note_on_c, 0, 72, 56
1, 288472, Control_c, 0, 64, 91
1, 288479, Note_off_c, 0, 72, 64
1, 288649, Control_c, 0, 64, 91
1, 288663, Control_c, 0, 64, 89
1, 288678, Control_c, 0, 64, 83
1, 288693, Control_c, 0, 64, 75
1, 288705, Note_on_c, 0, 46, 34
1, 288708, Control_c, 0, 64, 67
1, 288709, Note_on_c, 0, 57, 27
1, 288709, Note_on_c, 0, 72, 43
1, 288722, Control_c, 0, 64, 59
1, 288729, Note_on_c, 0, 63, 21
1, 288737, Control_c, 0, 64, 46
1, 288752, Control_c, 0, 64, 0
1, 288797, Control_c, 0, 64, 35
1, 288812, Control_c, 0, 64, 43
1, 288834, Control_c, 0, 64, 51
1, 288848, Control_c, 0, 64, 60
1, 288863, Control_c, 0, 64, 66
1, 288878, Control_c, 0, 64, 70
1, 288883, Note_off_c, 0, 57, 56
1, 288893, Control_c, 0, 64, 72
1, 288908, Control_c, 0, 64, 74
1, 288922, Control_c, 0, 64, 76
1, 288937, Control_c, 0, 64, 77
1, 288952, Control_c, 0, 64, 78
1, 288967, Control_c, 0, 64, 79
1, 288982, Control_c, 0, 64, 79
1, 288996, Control_c, 0, 64, 80
1, 289011, Control_c, 0, 64, 80
1, 289056, Note_off_c, 0, 63, 47
1, 289116, Control_c, 0, 64, 79
1, 289130, Control_c, 0, 64, 76
1, 289145, Control_c, 0, 64, 72
1, 289152, Note_on_c, 0, 70, 39
1, 289154, Note_off_c, 0, 72, 34
1, 289160, Control_c, 0, 64, 65
1, 289163, Note_on_c, 0, 58, 24
1, 289171, Note_on_c, 0, 62, 27
1, 289174, Control_c, 0, 64, 56
1, 289189, Control_c, 0, 64, 39
1, 289204, Control_c, 0, 64, 0
1, 289248, Control_c, 0, 64, 41
1, 289263, Control_c, 0, 64, 50
1, 289278, Control_c, 0, 64, 59
1, 289293, Control_c, 0, 64, 65
1, 289308, Control_c, 0, 64, 69
1, 289322, Control_c, 0, 64, 73
1, 289337, Control_c, 0, 64, 76
1, 289343, Note_off_c, 0, 70, 55
1, 289344, Note_off_c, 0, 46, 42
1, 289345, Note_off_c, 0, 58, 53
1, 289352, Control_c, 0, 64, 78
1, 289366, Control_c, 0, 64, 80
1, 289381, Control_c, 0, 64, 82
1, 289396, Control_c, 0, 64, 83
1, 289397, Note_off_c, 0, 62, 42
1, 289411, Control_c, 0, 64, 84
1, 289426, Control_c, 0, 64, 85
1, 289441, Control_c, 0, 64, 86
1, 289456, Control_c, 0, 64, 87
1, 289470, Control_c, 0, 64, 87
1, 289485, Control_c, 0, 64, 88
1, 289545, Control_c, 0, 64, 88
1, 289686, Control_c, 0, 64, 88
1, 289730, Note_on_c, 0, 58, 30
1, 289740, Note_on_c, 0, 62, 13
1, 289742, Note_on_c, 0, 46, 29
1, 289745, Control_c, 0, 64, 87
1, 289750, Note_on_c, 0, 70, 33
1, 289760, Control_c, 0, 64, 85
1, 289775, Control_c, 0, 64, 83
1, 289790, Control_c, 0, 64, 82
1, 289804, Control_c, 0, 64, 80
1, 289819, Control_c, 0, 64, 77
1, 289834, Control_c, 0, 64, 73
1, 289849, Control_c, 0, 64, 66
1, 289864, Control_c, 0, 64, 59
1, 289879, Control_c, 0, 64, 46
1, 289894, Control_c, 0, 64, 34
1, 289909, Control_c, 0, 64, 0
1, 289997, Control_c, 0, 64, 39
1, 290012, Control_c, 0, 64, 48
1, 290027, Control_c, 0, 64, 56
1, 290042, Control_c, 0, 64, 62
1, 290057, Control_c, 0, 64, 65
1, 290071, Control_c, 0, 64, 68
1, 290086, Control_c, 0, 64, 70
1, 290101, Control_c, 0, 64, 71
1, 290116, Control_c, 0, 64, 73
1, 290131, Control_c, 0, 64, 75
1, 290145, Control_c, 0, 64, 78
1, 290161, Control_c, 0, 64, 80
1, 290176, Control_c, 0, 64, 82
1, 290190, Control_c, 0, 64, 83
1, 290205, Control_c, 0, 64, 85
1, 290220, Control_c, 0, 64, 85
1, 290235, Control_c, 0, 64, 86
1, 290250, Control_c, 0, 64, 87
1, 290255, Note_off_c, 0, 58, 41
1, 290264, Control_c, 0, 64, 87
1, 290295, Control_c, 0, 64, 88
1, 290612, Note_off_c, 0, 70, 0
1, 290652, Poly_aftertouch_c, 0, 70, 0
1, 290703, Note_off_c, 0, 62, 39
1, 290716, Note_off_c, 0, 46, 35
1, 290732, Control_c, 0, 64, 87
1, 290746, Control_c, 0, 64, 86
1, 290761, Control_c, 0, 64, 85
1, 290776, Control_c, 0, 64, 83
1, 290791, Control_c, 0, 64, 80
1, 290806, Control_c, 0, 64, 75
1, 290821, Control_c, 0, 64, 68
1, 290836, Control_c, 0, 64, 61
1, 290851, Control_c, 0, 64, 45
1, 290866, Control_c, 0, 64, 0
1, 290953, Control_c, 0, 64, 42
1, 290968, Control_c, 0, 64, 51
1, 290983, Control_c, 0, 64, 58
1, 290998, Control_c, 0, 64, 63
1, 291012, Control_c, 0, 64, 65
1, 291027, Control_c, 0, 64, 68
1, 291042, Control_c, 0, 64, 70
1, 291057, Control_c, 0, 64, 72
1, 291080, Control_c, 0, 64, 74
1, 291095, Control_c, 0, 64, 76
1, 291110, Control_c, 0, 64, 77
1, 291125, Control_c, 0, 64, 79
1, 291140, Control_c, 0, 64, 80
1, 291155, Control_c, 0, 64, 81
1, 291169, Control_c, 0, 64, 82
1, 291199, Control_c, 0, 64, 82
1, 291214, Control_c, 0, 64, 83
1, 291229, Control_c, 0, 64, 83
1, 291604, Note_on_c, 0, 62, 38
1, 291622, Note_on_c, 0, 53, 32
1, 291630, Note_on_c, 0, 50, 27
1, 291635, Note_on_c, 0, 46, 31
1, 291643, Control_c, 0, 64, 82
1, 291658, Control_c, 0, 64, 80
1, 291673, Control_c, 0, 64, 76
1, 291688, Control_c, 0, 64, 71
1, 291703, Control_c, 0, 64, 65
1, 291717, Control_c, 0, 64, 54
1, 291732, Control_c, 0, 64, 35
1, 291747, Control_c, 0, 64, 0
1, 291776, Control_c, 0, 64, 35
1, 291791, Control_c, 0, 64, 43
1, 291806, Control_c, 0, 64, 50
1, 291828, Control_c, 0, 64, 58
1, 291843, Control_c, 0, 64, 64
1, 291858, Control_c, 0, 64, 67
1, 291873, Control_c, 0, 64, 70
1, 291888, Control_c, 0, 64, 72
1, 291903, Control_c, 0, 64, 74
1, 291918, Control_c, 0, 64, 75
1, 291933, Control_c, 0, 64, 77
1, 291948, Control_c, 0, 64, 79
1, 291962, Control_c, 0, 64, 81
1, 291977, Control_c, 0, 64, 82
1, 291992, Control_c, 0, 64, 82
1, 292022, Control_c, 0, 64, 83
1, 292037, Control_c, 0, 64, 83
1, 292052, Control_c, 0, 64, 84
1, 292096, Control_c, 0, 64, 84
1, 292281, Note_on_c, 0, 60, 45
1, 292317, Control_c, 0, 64, 84
1, 292331, Note_off_c, 0, 62, 27
1, 292332, Control_c, 0, 64, 83
1, 292347, Control_c, 0, 64, 82
1, 292362, Control_c, 0, 64, 80
1, 292377, Note_on_c, 0, 58, 41
1, 292377, Control_c, 0, 64, 77
1, 292381, Note_off_c, 0, 60, 37
1, 292392, Control_c, 0, 64, 75
1, 292407, Control_c, 0, 64, 72
1, 292422, Control_c, 0, 64, 68
1, 292434, Note_on_c, 0, 51, 29
1, 292436, Note_on_c, 0, 48, 27
1, 292437, Control_c, 0, 64, 63
1, 292444, Note_off_c, 0, 50, 36
1, 292452, Control_c, 0, 64, 55
1, 292465, Note_off_c, 0, 58, 51
1, 292466, Control_c, 0, 64, 45
1, 292481, Control_c, 0, 64, 38
1, 292483, Note_on_c, 0, 57, 41
1, 292496, Control_c, 0, 64, 35
1, 292505, Note_off_c, 0, 46, 27
1, 292511, Control_c, 0, 64, 34
1, 292526, Control_c, 0, 64, 0
1, 292758, Note_off_c, 0, 53, 1
1, 292916, Note_off_c, 0, 48, 39
1, 292944, Note_off_c, 0, 51, 40
1, 293037, Note_off_c, 0, 57, 48
1, 293141, Control_c, 0, 67, 120
1, 293156, Control_c, 0, 67, 110
1, 293171, Control_c, 0, 67, 99
1, 293186, Control_c, 0, 67, 91
1, 293201, Control_c, 0, 67, 81
1, 293215, Control_c, 0, 67, 71
1, 293230, Control_c, 0, 64, 34
1, 293230, Control_c, 0, 67, 61
1, 293245, Control_c, 0, 64, 42
1, 293245, Control_c, 0, 67, 51
1, 293260, Control_c, 0, 64, 48
1, 293260, Control_c, 0, 67, 42
1, 293275, Control_c, 0, 64, 55
1, 293275, Control_c, 0, 67, 32
1, 293289, Control_c, 0, 64, 61
1, 293289, Control_c, 0, 67, 21
1, 293304, Control_c, 0, 64, 64
1, 293304, Control_c, 0, 67, 0
1, 293327, Control_c, 0, 64, 67
1, 293341, Control_c, 0, 64, 72
1, 293356, Control_c, 0, 64, 76
1, 293371, Control_c, 0, 64, 80
1, 293386, Control_c, 0, 64, 84
1, 293401, Control_c, 0, 64, 89
1, 293415, Control_c, 0, 64, 94
1, 293430, Control_c, 0, 64, 99
1, 293445, Control_c, 0, 64, 104
1, 293460, Control_c, 0, 64, 109
1, 293475, Control_c, 0, 64, 115
1, 293491, Control_c, 0, 64, 127
1, 293674, Note_on_c, 0, 60, 49
1, 293770, Note_on_c, 0, 63, 52
1, 293772, Control_c, 0, 64, 114
1, 293780, Note_on_c, 0, 57, 44
1, 293787, Control_c, 0, 64, 104
1, 293790, Note_on_c, 0, 48, 34
1, 293793, Note_off_c, 0, 60, 37
1, 293802, Control_c, 0, 64, 96
1, 293805, Note_on_c, 0, 53, 37
1, 293817, Control_c, 0, 64, 90
1, 293832, Control_c, 0, 64, 81
1, 293846, Control_c, 0, 64, 71
1, 293861, Control_c, 0, 64, 62
1, 293876, Control_c, 0, 64, 45
1, 293891, Control_c, 0, 64, 0
1, 293994, Control_c, 0, 64, 36
1, 294009, Control_c, 0, 64, 48
1, 294024, Control_c, 0, 64, 59
1, 294038, Control_c, 0, 64, 65
1, 294053, Control_c, 0, 64, 69
1, 294076, Control_c, 0, 64, 73
1, 294090, Control_c, 0, 64, 76
1, 294105, Control_c, 0, 64, 78
1, 294120, Control_c, 0, 64, 81
1, 294135, Control_c, 0, 64, 85
1, 294150, Control_c, 0, 64, 90
1, 294164, Control_c, 0, 64, 94
1, 294179, Control_c, 0, 64, 99
1, 294194, Control_c, 0, 64, 104
1, 294209, Control_c, 0, 64, 109
1, 294224, Control_c, 0, 64, 115
1, 294238, Control_c, 0, 64, 122
1, 294253, Control_c, 0, 64, 127
1, 294343, Note_on_c, 0, 62, 48
1, 294408, Note_off_c, 0, 63, 46
1, 294430, Note_on_c, 0, 60, 56
1, 294484, Note_off_c, 0, 62, 37
1, 294491, Control_c, 0, 64, 104
1, 294496, Note_off_c, 0, 57, 41
1, 294503, Note_off_c, 0, 48, 42
1, 294506, Control_c, 0, 64, 88
1, 294508, Note_on_c, 0, 58, 60
1, 294517, Note_on_c, 0, 50, 41
1, 294521, Control_c, 0, 64, 74
1, 294523, Note_off_c, 0, 60, 56
1, 294535, Control_c, 0, 64, 59
1, 294550, Control_c, 0, 64, 0
1, 294639, Control_c, 0, 64, 49
1, 294654, Control_c, 0, 64, 62
1, 294668, Control_c, 0, 64, 68
1, 294683, Control_c, 0, 64, 73
1, 294698, Control_c, 0, 64, 77
1, 294699, Note_off_c, 0, 53, 47
1, 294711, Note_off_c, 0, 50, 61
1, 294712, Control_c, 0, 64, 80
1, 294727, Control_c, 0, 64, 87
1, 294742, Control_c, 0, 64, 95
1, 294756, Note_off_c, 0, 58, 60
1, 294757, Control_c, 0, 64, 106
1, 294772, Control_c, 0, 64, 127
1, 294839, Control_c, 0, 64, 96
1, 294854, Control_c, 0, 64, 78
1, 294868, Control_c, 0, 64, 65
1, 294883, Control_c, 0, 64, 48
1, 294898, Control_c, 0, 64, 0
1, 295124, Note_on_c, 0, 62, 71
1, 295201, Note_on_c, 0, 50, 67
1, 295202, Note_on_c, 0, 65, 94
1, 295205, Note_on_c, 0, 38, 65
1, 295206, Note_on_c, 0, 53, 80
1, 295217, Note_on_c, 0, 59, 69
1, 295297, Note_off_c, 0, 62, 52
1, 295343, Control_c, 0, 64, 44
1, 295358, Control_c, 0, 64, 55
1, 295373, Control_c, 0, 64, 63
1, 295388, Control_c, 0, 64, 70
1, 295403, Control_c, 0, 64, 80
1, 295417, Control_c, 0, 64, 94
1, 295432, Control_c, 0, 64, 127
1, 295472, Note_off_c, 0, 53, 58
1, 295507, Note_off_c, 0, 50, 59
1, 295510, Note_off_c, 0, 38, 61
1, 295550, Note_off_c, 0, 59, 63
1, 295781, Note_on_c, 0, 63, 76
1, 295847, Note_off_c, 0, 65, 56
1, 295857, Note_on_c, 0, 62, 78
1, 295931, Note_off_c, 0, 63, 57
1, 295946, Note_on_c, 0, 60, 86
1, 295949, Note_on_c, 0, 51, 65
1, 295951, Note_on_c, 0, 39, 63
1, 295962, Note_on_c, 0, 55, 69
1, 295988, Note_off_c, 0, 55, 66
1, 296006, Note_off_c, 0, 62, 58
1, 296008, Note_off_c, 0, 51, 61
1, 296026, Note_off_c, 0, 39, 55
1, 296031, Note_off_c, 0, 60, 68
1, 296078, Control_c, 0, 64, 100
1, 296093, Control_c, 0, 64, 75
1, 296107, Control_c, 0, 64, 58
1, 296122, Control_c, 0, 64, 0
1, 296322, Control_c, 0, 64, 41
1, 296337, Control_c, 0, 64, 57
1, 296352, Control_c, 0, 64, 62
1, 296366, Control_c, 0, 64, 65
1, 296381, Control_c, 0, 64, 67
1, 296396, Control_c, 0, 64, 70
1, 296411, Note_on_c, 0, 47, 39
1, 296411, Control_c, 0, 64, 73
1, 296415, Note_on_c, 0, 35, 43
1, 296425, Note_on_c, 0, 67, 78
1, 296426, Control_c, 0, 64, 78
1, 296428, Note_on_c, 0, 55, 54
1, 296440, Note_on_c, 0, 62, 62
1, 296440, Control_c, 0, 64, 83
1, 296455, Control_c, 0, 64, 88
1, 296464, Note_off_c, 0, 35, 52
1, 296470, Control_c, 0, 64, 93
1, 296481, Note_off_c, 0, 47, 49
1, 296485, Control_c, 0, 64, 97
1, 296487, Note_off_c, 0, 55, 57
1, 296499, Control_c, 0, 64, 100
1, 296514, Control_c, 0, 64, 102
1, 296544, Control_c, 0, 64, 106
1, 296565, Note_off_c, 0, 67, 60
1, 296591, Note_off_c, 0, 62, 45
1, 296678, Control_c, 0, 64, 97
1, 296693, Control_c, 0, 64, 85
1, 296708, Control_c, 0, 64, 73
1, 296723, Control_c, 0, 64, 58
1, 296738, Control_c, 0, 64, 0
1, 296856, Control_c, 0, 64, 49
1, 296871, Control_c, 0, 64, 61
1, 296886, Control_c, 0, 64, 65
1, 296901, Control_c, 0, 64, 68
1, 296915, Control_c, 0, 64, 72
1, 296930, Control_c, 0, 64, 76
1, 296945, Control_c, 0, 64, 80
1, 296960, Control_c, 0, 64, 84
1, 296975, Control_c, 0, 64, 88
1, 296989, Control_c, 0, 64, 93
1, 297004, Control_c, 0, 64, 96
1, 297019, Control_c, 0, 64, 102
1, 297034, Control_c, 0, 64, 107
1, 297049, Control_c, 0, 64, 112
1, 297071, Control_c, 0, 64, 115
1, 297086, Control_c, 0, 64, 117
1, 297101, Control_c, 0, 64, 122
1, 297115, Control_c, 0, 64, 127
1, 297361, Note_on_c, 0, 65, 39
1, 297364, Note_on_c, 0, 55, 34
1, 297379, Note_on_c, 0, 36, 28
1, 297547, Note_off_c, 0, 65, 40
1, 297554, Note_on_c, 0, 63, 52
1, 297591, Note_off_c, 0, 55, 39
1, 297596, Note_off_c, 0, 63, 62
1, 297680, Control_c, 0, 64, 115
1, 297695, Control_c, 0, 64, 103
1, 297710, Control_c, 0, 64, 90
1, 297725, Control_c, 0, 64, 74
1, 297739, Control_c, 0, 64, 62
1, 297754, Note_on_c, 0, 38, 34
1, 297754, Control_c, 0, 64, 40
1, 297758, Note_on_c, 0, 63, 40
1, 297760, Note_off_c, 0, 36, 42
1, 297761, Note_on_c, 0, 53, 42
1, 297769, Control_c, 0, 64, 0
1, 297799, Control_c, 0, 64, 38
1, 297820, Control_c, 0, 64, 56
1, 297835, Control_c, 0, 64, 64
1, 297850, Control_c, 0, 64, 69
1, 297865, Control_c, 0, 64, 73
1, 297880, Control_c, 0, 64, 76
1, 297894, Control_c, 0, 64, 77
1, 297909, Control_c, 0, 64, 78
1, 297924, Control_c, 0, 64, 80
1, 297939, Note_on_c, 0, 62, 53
1, 297939, Control_c, 0, 64, 82
1, 297954, Control_c, 0, 64, 83
1, 297956, Note_off_c, 0, 63, 49
1, 297962, Note_off_c, 0, 62, 60
1, 297966, Note_off_c, 0, 53, 36
1, 297969, Control_c, 0, 64, 84
1, 297984, Control_c, 0, 64, 84
1, 297999, Control_c, 0, 64, 85
1, 298102, Control_c, 0, 64, 82
1, 298117, Control_c, 0, 64, 73
1, 298127, Note_on_c, 0, 39, 35
1, 298131, Control_c, 0, 64, 64
1, 298143, Note_on_c, 0, 51, 45
1, 298146, Control_c, 0, 64, 50
1, 298154, Note_off_c, 0, 38, 32
1, 298161, Control_c, 0, 64, 0
1, 298172, Note_on_c, 0, 62, 34
1, 298220, Control_c, 0, 64, 43
1, 298235, Control_c, 0, 64, 55
1, 298250, Control_c, 0, 64, 63
1, 298264, Control_c, 0, 64, 67
1, 298280, Control_c, 0, 64, 70
1, 298295, Control_c, 0, 64, 73
1, 298310, Control_c, 0, 64, 74
1, 298320, Note_on_c, 0, 60, 52
1, 298325, Control_c, 0, 64, 75
1, 298339, Note_off_c, 0, 62, 35
1, 298340, Control_c, 0, 64, 76
1, 298354, Control_c, 0, 64, 77
1, 298369, Control_c, 0, 64, 78
1, 298383, Note_off_c, 0, 51, 35
1, 298400, Note_off_c, 0, 60, 39
1, 298569, Control_c, 0, 64, 77
1, 298571, Note_on_c, 0, 41, 31
1, 298575, Note_on_c, 0, 58, 39
1, 298584, Control_c, 0, 64, 76
1, 298598, Note_on_c, 0, 50, 29
1, 298599, Control_c, 0, 64, 73
1, 298614, Control_c, 0, 64, 69
1, 298629, Control_c, 0, 64, 63
1, 298643, Control_c, 0, 64, 55
1, 298658, Control_c, 0, 64, 36
1, 298673, Control_c, 0, 64, 0
1, 298674, Note_off_c, 0, 39, 40
1, 298851, Control_c, 0, 64, 40
1, 298866, Control_c, 0, 64, 50
1, 298880, Control_c, 0, 64, 58
1, 298895, Control_c, 0, 64, 62
1, 298910, Control_c, 0, 64, 64
1, 298925, Control_c, 0, 64, 67
1, 298940, Control_c, 0, 64, 69
1, 298954, Control_c, 0, 64, 71
1, 298969, Control_c, 0, 64, 74
1, 298984, Control_c, 0, 64, 76
1, 298999, Control_c, 0, 64, 79
1, 299013, Control_c, 0, 64, 82
1, 299028, Control_c, 0, 64, 84
1, 299030, Note_off_c, 0, 50, 40
1, 299043, Control_c, 0, 64, 85
1, 299058, Control_c, 0, 64, 86
1, 299074, Control_c, 0, 64, 87
1, 299089, Control_c, 0, 64, 88
1, 299103, Control_c, 0, 64, 89
1, 299118, Control_c, 0, 64, 89
1, 299133, Control_c, 0, 64, 90
1, 299147, Control_c, 0, 64, 91
1, 299162, Control_c, 0, 64, 91
1, 299176, Control_c, 0, 64, 92
1, 299322, Note_off_c, 0, 41, 26
1, 299421, Control_c, 0, 64, 91
1, 299436, Control_c, 0, 64, 88
1, 299439, Note_on_c, 0, 57, 35
1, 299446, Note_off_c, 0, 58, 37
1, 299451, Control_c, 0, 64, 82
1, 299454, Note_on_c, 0, 29, 27
1, 299465, Control_c, 0, 64, 74
1, 299466, Note_on_c, 0, 48, 24
1, 299480, Control_c, 0, 64, 66
1, 299495, Control_c, 0, 64, 55
1, 299510, Control_c, 0, 64, 0
1, 299570, Control_c, 0, 64, 41
1, 299584, Control_c, 0, 64, 52
1, 299599, Control_c, 0, 64, 60
1, 299614, Control_c, 0, 64, 67
1, 299626, Note_off_c, 0, 57, 53
1, 299628, Control_c, 0, 64, 71
1, 299643, Control_c, 0, 64, 73
1, 299658, Control_c, 0, 64, 74
1, 299673, Control_c, 0, 64, 76
1, 299677, Note_off_c, 0, 29, 39
1, 299688, Control_c, 0, 64, 78
1, 299692, Note_off_c, 0, 48, 53
1, 299702, Control_c, 0, 64, 80
1, 299717, Control_c, 0, 64, 82
1, 299732, Control_c, 0, 64, 84
1, 299747, Control_c, 0, 64, 85
1, 299762, Control_c, 0, 64, 86
1, 299776, Control_c, 0, 64, 87
1, 299791, Control_c, 0, 64, 87
1, 299806, Control_c, 0, 64, 88
1, 299821, Control_c, 0, 64, 89
1, 299835, Control_c, 0, 64, 89
1, 299865, Control_c, 0, 64, 90
1, 300041, Note_on_c, 0, 41, 34
1, 300082, Control_c, 0, 64, 89
1, 300095, Note_off_c, 0, 41, 45
1, 300097, Control_c, 0, 64, 87
1, 300112, Control_c, 0, 64, 83
1, 300127, Control_c, 0, 64, 77
1, 300141, Control_c, 0, 64, 71
1, 300156, Control_c, 0, 64, 64
1, 300171, Control_c, 0, 64, 57
1, 300186, Control_c, 0, 64, 46
1, 300201, Control_c, 0, 64, 36
1, 300215, Control_c, 0, 64, 0
1, 300246, Note_on_c, 0, 43, 32
1, 300289, Note_off_c, 0, 43, 49
1, 300437, Note_on_c, 0, 45, 34
1, 300478, Note_off_c, 0, 45, 49
1, 300604, Note_on_c, 0, 46, 45
1, 300652, Note_off_c, 0, 46, 57
1, 300791, Note_on_c, 0, 48, 48
1, 300846, Note_off_c, 0, 48, 58
1, 301061, Note_on_c, 0, 50, 44
1, 301072, Note_on_c, 0, 34, 20
1, 301127, Control_c, 0, 64, 37
1, 301142, Control_c, 0, 64, 43
1, 301156, Control_c, 0, 64, 48
1, 301171, Control_c, 0, 64, 52
1, 301186, Control_c, 0, 64, 58
1, 301200, Control_c, 0, 64, 61
1, 301215, Control_c, 0, 64, 64
1, 301230, Control_c, 0, 64, 66
1, 301245, Control_c, 0, 64, 68
1, 301260, Control_c, 0, 64, 71
1, 301275, Control_c, 0, 64, 75
1, 301290, Control_c, 0, 64, 78
1, 301305, Control_c, 0, 64, 82
1, 301320, Control_c, 0, 64, 86
1, 301334, Control_c, 0, 64, 90
1, 301349, Control_c, 0, 64, 94
1, 301364, Control_c, 0, 64, 97
1, 301379, Control_c, 0, 64, 99
1, 301394, Control_c, 0, 64, 101
1, 301408, Control_c, 0, 64, 104
1, 301438, Control_c, 0, 64, 106
1, 301664, Note_off_c, 0, 34, 38
1, 301673, Note_on_c, 0, 48, 42
1, 301693, Note_off_c, 0, 50, 32
1, 301695, Note_on_c, 0, 36, 34
1, 301713, Control_c, 0, 64, 104
1, 301728, Control_c, 0, 64, 101
1, 301743, Control_c, 0, 64, 96
1, 301747, Note_off_c, 0, 48, 54
1, 301755, Note_off_c, 0, 36, 49
1, 301758, Control_c, 0, 64, 90
1, 301770, Note_on_c, 0, 46, 46
1, 301773, Control_c, 0, 64, 83
1, 301787, Control_c, 0, 64, 76
1, 301796, Note_on_c, 0, 38, 37
1, 301802, Control_c, 0, 64, 67
1, 301817, Control_c, 0, 64, 60
1, 301831, Control_c, 0, 64, 47
1, 301838, Note_off_c, 0, 46, 55
1, 301842, Note_off_c, 0, 38, 59
1, 301846, Control_c, 0, 64, 0
1, 301880, Note_on_c, 0, 45, 38
1, 301882, Note_on_c, 0, 39, 34
1, 302166, Note_off_c, 0, 45, 59
1, 302172, Note_off_c, 0, 39, 52
1, 302584, Note_on_c, 0, 48, 42
1, 302652, Note_off_c, 0, 48, 58
1, 302685, Note_on_c, 0, 36, 31
1, 302688, Note_on_c, 0, 51, 48
1, 302802, Control_c, 0, 64, 34
1, 302817, Control_c, 0, 64, 42
1, 302832, Control_c, 0, 64, 48
1, 302846, Control_c, 0, 64, 55
1, 302861, Control_c, 0, 64, 60
1, 302876, Control_c, 0, 64, 63
1, 302890, Control_c, 0, 64, 67
1, 302905, Control_c, 0, 64, 72
1, 302920, Control_c, 0, 64, 78
1, 302935, Control_c, 0, 64, 85
1, 302950, Control_c, 0, 64, 93
1, 302965, Control_c, 0, 64, 103
1, 302979, Control_c, 0, 64, 120
1, 302994, Control_c, 0, 64, 127
1, 303102, Note_off_c, 0, 36, 40
1, 303305, Note_off_c, 0, 51, 41
1, 303313, Note_on_c, 0, 50, 45
1, 303314, Note_on_c, 0, 38, 31
1, 303355, Note_off_c, 0, 38, 55
1, 303379, Note_off_c, 0, 50, 58
1, 303389, Note_on_c, 0, 39, 43
1, 303409, Note_on_c, 0, 48, 51
1, 303521, Control_c, 0, 64, 117
1, 303536, Control_c, 0, 64, 100
1, 303550, Control_c, 0, 64, 90
1, 303565, Control_c, 0, 64, 81
1, 303567, Note_on_c, 0, 46, 33
1, 303573, Note_on_c, 0, 38, 29
1, 303577, Note_on_c, 0, 53, 43
1, 303580, Control_c, 0, 64, 72
1, 303592, Note_off_c, 0, 48, 34
1, 303594, Control_c, 0, 64, 63
1, 303609, Control_c, 0, 64, 50
1, 303617, Note_off_c, 0, 39, 37
1, 303624, Control_c, 0, 64, 0
1, 303773, Control_c, 0, 64, 38
1, 303794, Control_c, 0, 64, 50
1, 303809, Control_c, 0, 64, 59
1, 303824, Control_c, 0, 64, 64
1, 303839, Control_c, 0, 64, 67
1, 303854, Control_c, 0, 64, 69
1, 303869, Control_c, 0, 64, 72
1, 303885, Control_c, 0, 64, 74
1, 303893, Note_off_c, 0, 53, 57
1, 303899, Control_c, 0, 64, 78
1, 303914, Control_c, 0, 64, 82
1, 303922, Note_on_c, 0, 58, 45
1, 303929, Control_c, 0, 64, 86
1, 303944, Control_c, 0, 64, 90
1, 303959, Control_c, 0, 64, 95
1, 303973, Control_c, 0, 64, 100
1, 303988, Control_c, 0, 64, 104
1, 304003, Control_c, 0, 64, 109
1, 304018, Control_c, 0, 64, 113
1, 304032, Control_c, 0, 64, 116
1, 304047, Control_c, 0, 64, 120
1, 304062, Control_c, 0, 64, 127
1, 304131, Note_on_c, 0, 57, 63
1, 304169, Note_off_c, 0, 58, 57
1, 304303, Note_on_c, 0, 56, 77
1, 304384, Note_off_c, 0, 57, 38
1, 304477, Control_c, 0, 64, 117
1, 304491, Control_c, 0, 64, 110
1, 304506, Control_c, 0, 64, 105
1, 304511, Note_on_c, 0, 39, 42
1, 304521, Control_c, 0, 64, 101
1, 304536, Control_c, 0, 64, 98
1, 304558, Control_c, 0, 64, 94
1, 304565, Note_on_c, 0, 54, 63
1, 304573, Control_c, 0, 64, 90
1, 304588, Control_c, 0, 64, 87
1, 304590, Note_off_c, 0, 38, 41
1, 304603, Control_c, 0, 64, 82
1, 304618, Control_c, 0, 64, 78
1, 304629, Note_off_c, 0, 56, 58
1, 304632, Control_c, 0, 64, 73
1, 304647, Control_c, 0, 64, 67
1, 304662, Control_c, 0, 64, 59
1, 304678, Control_c, 0, 64, 46
1, 304693, Control_c, 0, 64, 0
1, 305034, Note_on_c, 0, 55, 57
1, 305058, Note_off_c, 0, 54, 61
1, 305152, Control_c, 0, 64, 36
1, 305166, Control_c, 0, 64, 46
1, 305181, Control_c, 0, 64, 54
1, 305196, Control_c, 0, 64, 62
1, 305211, Control_c, 0, 64, 67
1, 305226, Control_c, 0, 64, 71
1, 305240, Control_c, 0, 64, 75
1, 305255, Control_c, 0, 64, 78
1, 305270, Control_c, 0, 64, 81
1, 305285, Control_c, 0, 64, 84
1, 305308, Control_c, 0, 64, 86
1, 305322, Control_c, 0, 64, 89
1, 305337, Control_c, 0, 64, 91
1, 305352, Control_c, 0, 64, 94
1, 305367, Control_c, 0, 64, 96
1, 305381, Control_c, 0, 64, 99
1, 305396, Control_c, 0, 64, 101
1, 305425, Note_on_c, 0, 40, 36
1, 305454, Note_on_c, 0, 49, 33
1, 305475, Note_off_c, 0, 39, 34
1, 305517, Note_off_c, 0, 55, 39
1, 305554, Note_on_c, 0, 57, 58
1, 305620, Note_on_c, 0, 55, 63
1, 305647, Note_off_c, 0, 57, 53
1, 305649, Control_c, 0, 64, 98
1, 305657, Note_off_c, 0, 55, 62
1, 305659, Note_off_c, 0, 46, 42
1, 305664, Control_c, 0, 64, 93
1, 305666, Note_on_c, 0, 54, 67
1, 305678, Control_c, 0, 64, 88
1, 305693, Control_c, 0, 64, 82
1, 305708, Control_c, 0, 64, 76
1, 305723, Control_c, 0, 64, 70
1, 305730, Note_on_c, 0, 55, 62
1, 305730, Note_off_c, 0, 54, 61
1, 305738, Control_c, 0, 64, 64
1, 305752, Control_c, 0, 64, 55
1, 305767, Control_c, 0, 64, 43
1, 305782, Control_c, 0, 64, 33
1, 305797, Control_c, 0, 64, 0
1, 305868, Note_off_c, 0, 55, 62
1, 305877, Note_on_c, 0, 57, 65
1, 305989, Control_c, 0, 64, 39
1, 306004, Control_c, 0, 64, 55
1, 306019, Control_c, 0, 64, 63
1, 306034, Control_c, 0, 64, 67
1, 306056, Control_c, 0, 64, 71
1, 306071, Control_c, 0, 64, 74
1, 306086, Control_c, 0, 64, 77
1, 306095, Note_on_c, 0, 58, 62
1, 306101, Control_c, 0, 64, 80
1, 306116, Control_c, 0, 64, 83
1, 306131, Control_c, 0, 64, 85
1, 306145, Control_c, 0, 64, 87
1, 306160, Control_c, 0, 64, 88
1, 306190, Control_c, 0, 64, 88
1, 306211, Note_off_c, 0, 58, 53
1, 306277, Note_off_c, 0, 49, 41
1, 306280, Control_c, 0, 64, 89
1, 306309, Control_c, 0, 64, 88
1, 306354, Control_c, 0, 64, 88
1, 306368, Control_c, 0, 64, 87
1, 306380, Note_on_c, 0, 41, 35
1, 306381, Note_on_c, 0, 58, 43
1, 306383, Control_c, 0, 64, 84
1, 306395, Note_on_c, 0, 50, 21
1, 306398, Control_c, 0, 64, 82
1, 306413, Control_c, 0, 64, 78
1, 306427, Control_c, 0, 64, 74
1, 306442, Control_c, 0, 64, 68
1, 306457, Control_c, 0, 64, 62
1, 306462, Note_off_c, 0, 57, 57
1, 306472, Control_c, 0, 64, 53
1, 306486, Control_c, 0, 64, 38
1, 306501, Control_c, 0, 64, 0
1, 306506, Note_off_c, 0, 40, 27
1, 306864, Note_on_c, 0, 53, 44
1, 306912, Note_off_c, 0, 58, 42
1, 306983, Control_c, 0, 64, 43
1, 306998, Control_c, 0, 64, 54
1, 307013, Control_c, 0, 64, 62
1, 307027, Control_c, 0, 64, 66
1, 307034, Note_off_c, 0, 41, 50
1, 307042, Control_c, 0, 64, 70
1, 307057, Control_c, 0, 64, 75
1, 307073, Control_c, 0, 64, 80
1, 307088, Control_c, 0, 64, 85
1, 307103, Control_c, 0, 64, 90
1, 307117, Control_c, 0, 64, 97
1, 307132, Control_c, 0, 64, 105
1, 307147, Control_c, 0, 64, 122
1, 307162, Control_c, 0, 64, 127
1, 307189, Note_off_c, 0, 53, 63
1, 307303, Note_on_c, 0, 41, 36
1, 307469, Note_off_c, 0, 50, 0
1, 307506, Poly_aftertouch_c, 0, 50, 127
1, 307541, Note_on_c, 0, 53, 44
1, 307672, Control_c, 0, 64, 108
1, 307687, Control_c, 0, 64, 92
1, 307702, Control_c, 0, 64, 79
1, 307717, Control_c, 0, 64, 68
1, 307731, Poly_aftertouch_c, 0, 50, 0
1, 307731, Control_c, 0, 64, 56
1, 307746, Control_c, 0, 64, 0
1, 307758, Note_off_c, 0, 53, 43
1, 307773, Note_on_c, 0, 55, 40
1, 307776, Note_on_c, 0, 51, 37
1, 307806, Control_c, 0, 64, 37
1, 307821, Control_c, 0, 64, 47
1, 307836, Control_c, 0, 64, 57
1, 307850, Control_c, 0, 64, 63
1, 307866, Control_c, 0, 64, 68
1, 307881, Control_c, 0, 64, 73
1, 307895, Control_c, 0, 64, 76
1, 307910, Control_c, 0, 64, 79
1, 307925, Control_c, 0, 64, 82
1, 307940, Control_c, 0, 64, 85
1, 307955, Control_c, 0, 64, 89
1, 307965, Note_off_c, 0, 51, 39
1, 307969, Note_off_c, 0, 41, 34
1, 307970, Control_c, 0, 64, 91
1, 307983, Note_on_c, 0, 53, 40
1, 307985, Control_c, 0, 64, 92
1, 307986, Note_on_c, 0, 50, 29
1, 307999, Control_c, 0, 64, 92
1, 308014, Note_off_c, 0, 55, 0
1, 308039, Note_off_c, 0, 50, 43
1, 308045, Note_off_c, 0, 53, 52
1, 308051, Poly_aftertouch_c, 0, 55, 127
1, 308073, Control_c, 0, 64, 93
1, 308163, Control_c, 0, 64, 92
1, 308178, Control_c, 0, 64, 89
1, 308192, Control_c, 0, 64, 83
1, 308207, Control_c, 0, 64, 74
1, 308208, Note_on_c, 0, 53, 41
1, 308214, Note_on_c, 0, 41, 25
1, 308222, Control_c, 0, 64, 66
1, 308228, Note_on_c, 0, 29, 28
1, 308229, Note_on_c, 0, 50, 16
1, 308237, Control_c, 0, 64, 54
1, 308252, Control_c, 0, 64, 35
1, 308257, Poly_aftertouch_c, 0, 55, 0
1, 308266, Control_c, 0, 64, 0
1, 308304, Control_c, 0, 64, 39
1, 308318, Control_c, 0, 64, 47
1, 308333, Control_c, 0, 64, 56
1, 308348, Control_c, 0, 64, 62
1, 308363, Control_c, 0, 64, 66
1, 308378, Control_c, 0, 64, 72
1, 308392, Control_c, 0, 64, 75
1, 308407, Control_c, 0, 64, 77
1, 308412, Note_off_c, 0, 50, 38
1, 308422, Control_c, 0, 64, 79
1, 308429, Note_on_c, 0, 51, 45
1, 308437, Control_c, 0, 64, 81
1, 308448, Note_off_c, 0, 53, 35
1, 308452, Control_c, 0, 64, 83
1, 308457, Note_on_c, 0, 48, 22
1, 308466, Control_c, 0, 64, 84
1, 308472, Note_off_c, 0, 51, 60
1, 308481, Control_c, 0, 64, 85
1, 308496, Control_c, 0, 64, 86
1, 308511, Control_c, 0, 64, 86
1, 308525, Control_c, 0, 64, 87
1, 308621, Note_off_c, 0, 41, 31
1, 308630, Note_off_c, 0, 48, 41
1, 308659, Control_c, 0, 64, 86
1, 308675, Control_c, 0, 64, 85
1, 308676, Note_on_c, 0, 50, 43
1, 308684, Note_on_c, 0, 46, 27
1, 308689, Control_c, 0, 64, 83
1, 308704, Control_c, 0, 64, 79
1, 308719, Control_c, 0, 64, 74
1, 308734, Control_c, 0, 64, 68
1, 308749, Control_c, 0, 64, 61
1, 308763, Control_c, 0, 64, 47
1, 308778, Control_c, 0, 64, 0
1, 308830, Note_off_c, 0, 46, 45
1, 308848, Note_off_c, 0, 50, 36
1, 308882, Note_on_c, 0, 48, 33
1, 308886, Note_on_c, 0, 45, 26
1, 308897, Control_c, 0, 64, 43
1, 308912, Control_c, 0, 64, 56
1, 308927, Control_c, 0, 64, 63
1, 308941, Control_c, 0, 64, 66
1, 308956, Control_c, 0, 64, 69
1, 308971, Control_c, 0, 64, 72
1, 308986, Control_c, 0, 64, 74
1, 309001, Control_c, 0, 64, 75
1, 309015, Control_c, 0, 64, 77
1, 309030, Control_c, 0, 64, 79
1, 309044, Note_off_c, 0, 48, 35
1, 309052, Control_c, 0, 64, 81
1, 309055, Note_off_c, 0, 45, 30
1, 309067, Control_c, 0, 64, 82
1, 309082, Control_c, 0, 64, 82
1, 309097, Control_c, 0, 64, 83
1, 309159, Note_off_c, 0, 29, 34
1, 309186, Control_c, 0, 64, 82
1, 309189, Note_on_c, 0, 45, 23
1, 309197, Note_on_c, 0, 48, 40
1, 309201, Control_c, 0, 64, 80
1, 309214, Note_on_c, 0, 34, 14
1, 309215, Control_c, 0, 64, 76
1, 309230, Control_c, 0, 64, 70
1, 309245, Control_c, 0, 64, 64
1, 309249, Poly_aftertouch_c, 0, 39, 127
1, 309260, Control_c, 0, 64, 54
1, 309275, Control_c, 0, 64, 34
1, 309289, Control_c, 0, 64, 0
1, 309319, Control_c, 0, 64, 39
1, 309334, Control_c, 0, 64, 46
1, 309348, Control_c, 0, 64, 54
1, 309363, Control_c, 0, 64, 61
1, 309378, Control_c, 0, 64, 67
1, 309393, Control_c, 0, 64, 72
1, 309407, Control_c, 0, 64, 75
1, 309422, Control_c, 0, 64, 77
1, 309437, Control_c, 0, 64, 79
1, 309446, Poly_aftertouch_c, 0, 39, 0
1, 309452, Control_c, 0, 64, 81
1, 309468, Control_c, 0, 64, 83
1, 309483, Control_c, 0, 64, 86
1, 309498, Control_c, 0, 64, 88
1, 309512, Control_c, 0, 64, 91
1, 309527, Control_c, 0, 64, 92
1, 309557, Control_c, 0, 64, 93
1, 309630, Control_c, 0, 64, 92
1, 309645, Control_c, 0, 64, 90
1, 309660, Control_c, 0, 64, 84
1, 309669, Note_on_c, 0, 38, 29
1, 309672, Note_on_c, 0, 46, 38
1, 309675, Control_c, 0, 64, 74
1, 309690, Control_c, 0, 64, 65
1, 309705, Control_c, 0, 64, 52
1, 309719, Control_c, 0, 64, 0
1, 309720, Note_off_c, 0, 45, 39
1, 309723, Note_off_c, 0, 48, 28
1, 309763, Control_c, 0, 64, 38
1, 309778, Control_c, 0, 64, 47
1, 309800, Control_c, 0, 64, 55
1, 309815, Control_c, 0, 64, 62
1, 309830, Control_c, 0, 64, 67
1, 309845, Control_c, 0, 64, 71
1, 309860, Control_c, 0, 64, 75
1, 309865, Note_off_c, 0, 34, 37
1, 309874, Note_off_c, 0, 38, 39
1, 309875, Control_c, 0, 64, 77
1, 309890, Control_c, 0, 64, 79
1, 309905, Control_c, 0, 64, 82
1, 309919, Control_c, 0, 64, 85
1, 309922, Note_off_c, 0, 46, 42
1, 309934, Control_c, 0, 64, 88
1, 309949, Control_c, 0, 64, 91
1, 309963, Control_c, 0, 64, 94
1, 309978, Control_c, 0, 64, 96
1, 309993, Control_c, 0, 64, 99
1, 310008, Control_c, 0, 64, 101
1, 310067, Control_c, 0, 64, 103
1, 310260, Note_on_c, 0, 46, 39
1, 310260, Control_c, 0, 64, 100
1, 310275, Control_c, 0, 64, 98
1, 310290, Control_c, 0, 64, 94
1, 310292, Note_on_c, 0, 34, 25
1, 310303, Note_on_c, 0, 38, 26
1, 310305, Control_c, 0, 64, 91
1, 310320, Control_c, 0, 64, 86
1, 310334, Control_c, 0, 64, 80
1, 310349, Control_c, 0, 64, 73
1, 310364, Control_c, 0, 64, 65
1, 310380, Control_c, 0, 64, 54
1, 310394, Control_c, 0, 64, 40
1, 310409, Control_c, 0, 64, 0
1, 310580, Control_c, 0, 64, 43
1, 310594, Control_c, 0, 64, 50
1, 310609, Control_c, 0, 64, 56
1, 310624, Control_c, 0, 64, 60
1, 310639, Control_c, 0, 64, 62
1, 310654, Control_c, 0, 64, 64
1, 310668, Control_c, 0, 64, 66
1, 310683, Control_c, 0, 64, 69
1, 310698, Control_c, 0, 64, 71
1, 310712, Control_c, 0, 64, 73
1, 310727, Control_c, 0, 64, 76
1, 310742, Control_c, 0, 64, 78
1, 310757, Control_c, 0, 64, 81
1, 310772, Control_c, 0, 64, 85
1, 310787, Control_c, 0, 64, 89
1, 310802, Control_c, 0, 64, 93
1, 310817, Control_c, 0, 64, 95
1, 310847, Control_c, 0, 64, 98
1, 310906, Control_c, 0, 64, 100
1, 311247, Control_c, 0, 64, 98
1, 311299, Note_off_c, 0, 38, 33
1, 311343, Control_c, 0, 64, 96
1, 311351, Note_off_c, 0, 34, 33
1, 311358, Control_c, 0, 64, 95
1, 311388, Control_c, 0, 64, 95
1, 311403, Control_c, 0, 64, 94
1, 311417, Control_c, 0, 64, 94
1, 311447, Control_c, 0, 64, 93
1, 311462, Control_c, 0, 64, 93
1, 311477, Control_c, 0, 64, 92
1, 311506, Control_c, 0, 64, 91
1, 311521, Control_c, 0, 64, 90
1, 311535, Control_c, 0, 64, 90
1, 311544, Note_off_c, 0, 46, 41
1, 311550, Control_c, 0, 64, 89
1, 311565, Control_c, 0, 64, 88
1, 311580, Control_c, 0, 64, 87
1, 311595, Control_c, 0, 64, 86
1, 311610, Control_c, 0, 64, 85
1, 311625, Control_c, 0, 64, 84
1, 311639, Control_c, 0, 64, 82
1, 311654, Control_c, 0, 64, 81
1, 311669, Control_c, 0, 64, 77
1, 311684, Control_c, 0, 64, 74
1, 311699, Control_c, 0, 64, 70
1, 311714, Control_c, 0, 64, 65
1, 311714, Control_c, 0, 67, 19
1, 311729, Control_c, 0, 64, 61
1, 311729, Control_c, 0, 67, 22
1, 311743, Control_c, 0, 64, 54
1, 311743, Control_c, 0, 67, 26
1, 311758, Control_c, 0, 64, 46
1, 311758, Control_c, 0, 67, 33
1, 311773, Control_c, 0, 64, 34
1, 311773, Control_c, 0, 67, 43
1, 311788, Control_c, 0, 64, 0
1, 311788, Control_c, 0, 67, 57
1, 311803, Control_c, 0, 67, 76
1, 311817, Control_c, 0, 67, 92
1, 311832, Control_c, 0, 67, 107
1, 311847, Control_c, 0, 67, 123
1, 311863, Control_c, 0, 67, 127
1, 311952, Control_c, 0, 64, 42
1, 311966, Control_c, 0, 64, 53
1, 311981, Control_c, 0, 64, 59
1, 311996, Control_c, 0, 64, 61
1, 312011, Control_c, 0, 64, 63
1, 312026, Control_c, 0, 64, 65
1, 312048, Control_c, 0, 64, 67
1, 312063, Control_c, 0, 64, 69
1, 312078, Control_c, 0, 64, 72
1, 312092, Control_c, 0, 64, 75
1, 312107, Control_c, 0, 64, 77
1, 312122, Control_c, 0, 64, 79
1, 312137, Control_c, 0, 64, 80
1, 312152, Control_c, 0, 64, 82
1, 312166, Control_c, 0, 64, 84
1, 312181, Control_c, 0, 64, 85
1, 312196, Control_c, 0, 64, 85
1, 312211, Control_c, 0, 64, 86
1, 312240, Control_c, 0, 64, 86
1, 312270, Control_c, 0, 64, 87
1, 312355, Note_on_c, 0, 53, 22
1, 312397, Note_on_c, 0, 72, 42
1, 312420, Note_on_c, 0, 69, 33
1, 312624, Note_off_c, 0, 53, 40
1, 312694, Note_on_c, 0, 65, 39
1, 312745, Note_off_c, 0, 65, 43
1, 312906, Note_on_c, 0, 65, 41
1, 312941, Note_off_c, 0, 65, 53
1, 313090, Note_on_c, 0, 65, 41
1, 313104, Note_off_c, 0, 72, 28
1, 313135, Note_off_c, 0, 65, 44
1, 313135, Note_off_c, 0, 69, 33
1, 313288, Note_on_c, 0, 65, 38
1, 313321, Note_off_c, 0, 65, 53
1, 313468, Note_on_c, 0, 74, 58
1, 313476, Note_on_c, 0, 70, 44
1, 313476, Note_on_c, 0, 65, 41
1, 313501, Note_off_c, 0, 74, 63
1, 313503, Note_off_c, 0, 70, 50
1, 313511, Note_off_c, 0, 65, 49
1, 313670, Note_on_c, 0, 75, 66
1, 313675, Note_on_c, 0, 65, 45
1, 313691, Note_on_c, 0, 72, 50
1, 313713, Note_off_c, 0, 65, 55
1, 313723, Control_c, 0, 67, 125
1, 313738, Control_c, 0, 67, 101
1, 313753, Control_c, 0, 67, 74
1, 313768, Control_c, 0, 64, 87
1, 313768, Control_c, 0, 67, 47
1, 313783, Control_c, 0, 67, 24
1, 313798, Control_c, 0, 67, 0
1, 313845, Note_off_c, 0, 75, 63
1, 313849, Note_on_c, 0, 77, 72
1, 313855, Note_on_c, 0, 65, 43
1, 313856, Control_c, 0, 64, 87
1, 313857, Note_on_c, 0, 74, 52
1, 313874, Note_off_c, 0, 72, 30
1, 313891, Note_off_c, 0, 65, 49
1, 313905, Note_off_c, 0, 74, 55
1, 313916, Control_c, 0, 64, 86
1, 313930, Control_c, 0, 64, 85
1, 313945, Control_c, 0, 64, 84
1, 313960, Control_c, 0, 64, 82
1, 313975, Control_c, 0, 64, 80
1, 313990, Control_c, 0, 64, 78
1, 314004, Control_c, 0, 64, 74
1, 314019, Control_c, 0, 64, 69
1, 314034, Control_c, 0, 64, 63
1, 314048, Control_c, 0, 64, 53
1, 314062, Note_off_c, 0, 77, 60
1, 314063, Control_c, 0, 64, 0
1, 314078, Control_c, 0, 67, 22
1, 314092, Note_on_c, 0, 79, 56
1, 314093, Note_on_c, 0, 65, 27
1, 314093, Control_c, 0, 67, 25
1, 314106, Note_on_c, 0, 75, 42
1, 314108, Control_c, 0, 67, 30
1, 314123, Control_c, 0, 67, 37
1, 314137, Control_c, 0, 67, 49
1, 314152, Control_c, 0, 67, 68
1, 314157, Note_off_c, 0, 65, 42
1, 314167, Control_c, 0, 64, 44
1, 314167, Control_c, 0, 67, 84
1, 314182, Control_c, 0, 64, 56
1, 314182, Control_c, 0, 67, 100
1, 314197, Control_c, 0, 64, 63
1, 314197, Control_c, 0, 67, 115
1, 314212, Control_c, 0, 64, 67
1, 314212, Control_c, 0, 67, 127
1, 314227, Control_c, 0, 64, 71
1, 314242, Control_c, 0, 64, 73
1, 314257, Control_c, 0, 64, 76
1, 314272, Control_c, 0, 64, 78
1, 314294, Control_c, 0, 64, 81
1, 314299, Note_off_c, 0, 75, 46
1, 314304, Note_on_c, 0, 65, 37
1, 314309, Control_c, 0, 64, 83
1, 314324, Control_c, 0, 64, 85
1, 314339, Control_c, 0, 64, 87
1, 314346, Note_off_c, 0, 65, 47
1, 314354, Control_c, 0, 64, 88
1, 314368, Control_c, 0, 64, 89
1, 314383, Control_c, 0, 64, 89
1, 314398, Control_c, 0, 64, 90
1, 314457, Control_c, 0, 64, 88
1, 314470, Note_off_c, 0, 79, 60
1, 314472, Control_c, 0, 64, 81
1, 314486, Control_c, 0, 64, 72
1, 314501, Control_c, 0, 64, 63
1, 314506, Note_on_c, 0, 77, 48
1, 314510, Note_on_c, 0, 74, 48
1, 314513, Note_on_c, 0, 65, 35
1, 314516, Control_c, 0, 64, 51
1, 314531, Control_c, 0, 64, 48
1, 314546, Control_c, 0, 64, 51
1, 314561, Control_c, 0, 64, 56
1, 314566, Note_off_c, 0, 65, 43
1, 314576, Control_c, 0, 64, 60
1, 314591, Control_c, 0, 64, 64
1, 314605, Control_c, 0, 64, 68
1, 314620, Control_c, 0, 64, 72
1, 314635, Control_c, 0, 64, 76
1, 314650, Control_c, 0, 64, 78
1, 314665, Control_c, 0, 64, 79
1, 314679, Control_c, 0, 64, 81
1, 314687, Note_on_c, 0, 65, 43
1, 314694, Control_c, 0, 64, 82
1, 314709, Control_c, 0, 64, 83
1, 314724, Control_c, 0, 64, 84
1, 314728, Note_off_c, 0, 65, 47
1, 314751, Note_off_c, 0, 74, 35
1, 314753, Control_c, 0, 64, 84
1, 314768, Control_c, 0, 64, 85
1, 314813, Control_c, 0, 64, 84
1, 314827, Control_c, 0, 64, 79
1, 314830, Note_off_c, 0, 77, 35
1, 314842, Control_c, 0, 64, 71
1, 314857, Control_c, 0, 64, 59
1, 314871, Note_on_c, 0, 76, 58
1, 314872, Control_c, 0, 64, 42
1, 314886, Note_on_c, 0, 73, 46
1, 314886, Control_c, 0, 64, 0
1, 314891, Note_on_c, 0, 65, 32
1, 314901, Control_c, 0, 64, 38
1, 314916, Control_c, 0, 64, 46
1, 314931, Control_c, 0, 64, 52
1, 314935, Note_off_c, 0, 65, 48
1, 314946, Control_c, 0, 64, 60
1, 314960, Control_c, 0, 64, 64
1, 314975, Control_c, 0, 64, 69
1, 314990, Control_c, 0, 64, 74
1, 315005, Control_c, 0, 64, 77
1, 315020, Control_c, 0, 64, 79
1, 315042, Control_c, 0, 64, 80
1, 315058, Control_c, 0, 64, 81
1, 315073, Control_c, 0, 64, 82
1, 315080, Note_on_c, 0, 65, 37
1, 315088, Control_c, 0, 64, 83
1, 315103, Control_c, 0, 64, 84
1, 315117, Control_c, 0, 64, 84
1, 315126, Note_off_c, 0, 65, 45
1, 315132, Control_c, 0, 64, 85
1, 315182, Note_off_c, 0, 73, 31
1, 315186, Note_off_c, 0, 76, 32
1, 315206, Control_c, 0, 64, 81
1, 315221, Control_c, 0, 64, 73
1, 315236, Control_c, 0, 64, 65
1, 315251, Control_c, 0, 64, 50
1, 315265, Control_c, 0, 64, 0
1, 315274, Note_on_c, 0, 75, 50
1, 315287, Note_on_c, 0, 65, 26
1, 315292, Note_on_c, 0, 72, 36
1, 315295, Control_c, 0, 64, 42
1, 315309, Control_c, 0, 64, 52
1, 315324, Control_c, 0, 64, 61
1, 315327, Note_off_c, 0, 65, 51
1, 315339, Control_c, 0, 64, 66
1, 315354, Control_c, 0, 64, 70
1, 315369, Control_c, 0, 64, 73
1, 315378, Note_off_c, 0, 75, 63
1, 315383, Control_c, 0, 64, 75
1, 315398, Control_c, 0, 64, 76
1, 315413, Control_c, 0, 64, 77
1, 315428, Control_c, 0, 64, 79
1, 315443, Control_c, 0, 64, 80
1, 315448, Note_off_c, 0, 72, 51
1, 315458, Control_c, 0, 64, 81
1, 315461, Note_on_c, 0, 65, 40
1, 315473, Control_c, 0, 64, 82
1, 315488, Control_c, 0, 64, 82
1, 315502, Control_c, 0, 64, 83
1, 315515, Note_off_c, 0, 65, 42
1, 315532, Control_c, 0, 64, 84
1, 315606, Control_c, 0, 64, 83
1, 315622, Control_c, 0, 64, 79
1, 315636, Control_c, 0, 64, 72
1, 315651, Control_c, 0, 64, 60
1, 315655, Note_on_c, 0, 74, 47
1, 315666, Control_c, 0, 64, 42
1, 315677, Note_on_c, 0, 65, 15
1, 315681, Control_c, 0, 64, 0
1, 315686, Note_on_c, 0, 71, 30
1, 315696, Control_c, 0, 64, 34
1, 315710, Control_c, 0, 64, 42
1, 315720, Note_off_c, 0, 65, 51
1, 315725, Control_c, 0, 64, 49
1, 315740, Control_c, 0, 64, 57
1, 315755, Control_c, 0, 64, 64
1, 315770, Control_c, 0, 64, 67
1, 315792, Control_c, 0, 64, 70
1, 315807, Control_c, 0, 64, 72
1, 315822, Control_c, 0, 64, 73
1, 315836, Control_c, 0, 64, 74
1, 315852, Control_c, 0, 64, 74
1, 315857, Note_on_c, 0, 65, 36
1, 315867, Control_c, 0, 64, 75
1, 315881, Control_c, 0, 64, 76
1, 315900, Note_off_c, 0, 65, 47
1, 315935, Note_off_c, 0, 71, 40
1, 316001, Note_off_c, 0, 74, 23
1, 316001, Control_c, 0, 64, 75
1, 316015, Control_c, 0, 64, 73
1, 316030, Control_c, 0, 64, 68
1, 316045, Control_c, 0, 64, 62
1, 316052, Note_on_c, 0, 73, 49
1, 316059, Note_on_c, 0, 65, 35
1, 316059, Control_c, 0, 64, 47
1, 316074, Control_c, 0, 64, 34
1, 316075, Note_on_c, 0, 70, 35
1, 316089, Control_c, 0, 64, 36
1, 316104, Note_off_c, 0, 65, 46
1, 316104, Control_c, 0, 64, 41
1, 316119, Control_c, 0, 64, 48
1, 316133, Control_c, 0, 64, 55
1, 316148, Control_c, 0, 64, 62
1, 316163, Control_c, 0, 64, 66
1, 316178, Control_c, 0, 64, 69
1, 316193, Control_c, 0, 64, 71
1, 316207, Control_c, 0, 64, 72
1, 316222, Note_off_c, 0, 73, 59
1, 316222, Control_c, 0, 64, 73
1, 316224, Note_off_c, 0, 70, 50
1, 316237, Control_c, 0, 64, 73
1, 316250, Note_on_c, 0, 65, 35
1, 316251, Control_c, 0, 64, 74
1, 316266, Control_c, 0, 64, 74
1, 316281, Control_c, 0, 64, 75
1, 316300, Note_off_c, 0, 65, 43
1, 316311, Control_c, 0, 64, 75
1, 316385, Control_c, 0, 64, 74
1, 316400, Control_c, 0, 64, 72
1, 316415, Control_c, 0, 64, 67
1, 316430, Control_c, 0, 64, 60
1, 316445, Control_c, 0, 64, 45
1, 316457, Note_on_c, 0, 72, 45
1, 316459, Control_c, 0, 64, 40
1, 316462, Note_on_c, 0, 65, 28
1, 316474, Control_c, 0, 64, 44
1, 316485, Note_on_c, 0, 69, 30
1, 316489, Control_c, 0, 64, 48
1, 316504, Control_c, 0, 64, 52
1, 316513, Note_off_c, 0, 65, 44
1, 316519, Control_c, 0, 64, 57
1, 316540, Control_c, 0, 64, 63
1, 316555, Control_c, 0, 64, 68
1, 316570, Control_c, 0, 64, 72
1, 316585, Control_c, 0, 64, 75
1, 316600, Control_c, 0, 64, 76
1, 316615, Control_c, 0, 64, 77
1, 316629, Control_c, 0, 64, 78
1, 316644, Control_c, 0, 64, 79
1, 316660, Control_c, 0, 64, 79
1, 316695, Note_on_c, 0, 65, 9
1, 316734, Control_c, 0, 64, 80
1, 316744, Note_off_c, 0, 65, 40
1, 316752, Note_off_c, 0, 72, 36
1, 316770, Note_off_c, 0, 69, 40
1, 316868, Control_c, 0, 64, 80
1, 316874, Note_on_c, 0, 65, 35
1, 316907, Note_off_c, 0, 65, 47
1, 316956, Control_c, 0, 64, 81
1, 317030, Control_c, 0, 64, 81
1, 317047, Note_on_c, 0, 65, 43
1, 317079, Note_off_c, 0, 65, 62
1, 317303, Control_c, 0, 64, 80
1, 317311, Note_on_c, 0, 41, 31
1, 317318, Control_c, 0, 64, 76
1, 317333, Control_c, 0, 64, 69
1, 317348, Control_c, 0, 64, 57
1, 317358, Note_on_c, 0, 69, 50
1, 317362, Control_c, 0, 64, 38
1, 317367, Note_on_c, 0, 60, 38
1, 317377, Control_c, 0, 64, 0
1, 317406, Control_c, 0, 64, 42
1, 317421, Control_c, 0, 64, 50
1, 317436, Control_c, 0, 64, 59
1, 317452, Control_c, 0, 64, 65
1, 317467, Control_c, 0, 64, 70
1, 317482, Control_c, 0, 64, 76
1, 317497, Control_c, 0, 64, 79
1, 317511, Control_c, 0, 64, 81
1, 317526, Control_c, 0, 64, 82
1, 317541, Control_c, 0, 64, 85
1, 317556, Control_c, 0, 64, 86
1, 317567, Note_off_c, 0, 41, 39
1, 317571, Control_c, 0, 64, 87
1, 317585, Control_c, 0, 64, 87
1, 317586, Note_on_c, 0, 53, 36
1, 317600, Control_c, 0, 64, 88
1, 317615, Control_c, 0, 64, 89
1, 317629, Control_c, 0, 64, 90
1, 317643, Note_off_c, 0, 53, 54
1, 317644, Control_c, 0, 64, 90
1, 317674, Control_c, 0, 64, 91
1, 317689, Control_c, 0, 64, 91
1, 317703, Control_c, 0, 64, 92
1, 317716, Note_off_c, 0, 60, 34
1, 317749, Note_off_c, 0, 69, 57
1, 317763, Control_c, 0, 64, 92
1, 317777, Note_on_c, 0, 53, 48
1, 317807, Control_c, 0, 64, 93
1, 317822, Note_off_c, 0, 53, 58
1, 317956, Note_on_c, 0, 53, 43
1, 317996, Note_off_c, 0, 53, 52
1, 318067, Control_c, 0, 64, 93
1, 318153, Note_on_c, 0, 53, 40
1, 318193, Note_off_c, 0, 53, 55
1, 318334, Note_on_c, 0, 70, 58
1, 318346, Note_on_c, 0, 62, 47
1, 318348, Note_on_c, 0, 53, 33
1, 318387, Note_off_c, 0, 62, 50
1, 318396, Note_off_c, 0, 53, 45
1, 318409, Control_c, 0, 64, 94
1, 318453, Control_c, 0, 64, 94
1, 318522, Note_off_c, 0, 70, 58
1, 318525, Note_on_c, 0, 72, 69
1, 318533, Note_on_c, 0, 53, 41
1, 318549, Note_on_c, 0, 63, 40
1, 318563, Note_off_c, 0, 53, 55
1, 318596, Note_off_c, 0, 63, 45
1, 318699, Note_on_c, 0, 74, 75
1, 318714, Note_on_c, 0, 53, 38
1, 318717, Note_on_c, 0, 65, 60
1, 318736, Note_off_c, 0, 72, 35
1, 318756, Note_off_c, 0, 53, 53
1, 318772, Note_off_c, 0, 65, 47
1, 318786, Note_off_c, 0, 74, 57
1, 318905, Control_c, 0, 64, 94
1, 318920, Control_c, 0, 64, 92
1, 318934, Control_c, 0, 64, 88
1, 318949, Control_c, 0, 64, 77
1, 318964, Note_on_c, 0, 53, 18
1, 318964, Control_c, 0, 64, 68
1, 318978, Control_c, 0, 64, 56
1, 318980, Note_on_c, 0, 75, 61
1, 318993, Control_c, 0, 64, 0
1, 318994, Note_on_c, 0, 67, 42
1, 319042, Note_off_c, 0, 53, 39
1, 319054, Control_c, 0, 64, 40
1, 319069, Control_c, 0, 64, 49
1, 319083, Control_c, 0, 64, 58
1, 319098, Control_c, 0, 64, 64
1, 319113, Control_c, 0, 64, 69
1, 319128, Control_c, 0, 64, 74
1, 319143, Control_c, 0, 64, 77
1, 319157, Control_c, 0, 64, 78
1, 319172, Control_c, 0, 64, 80
1, 319187, Control_c, 0, 64, 81
1, 319189, Note_on_c, 0, 53, 37
1, 319202, Control_c, 0, 64, 83
1, 319217, Control_c, 0, 64, 85
1, 319226, Note_off_c, 0, 75, 54
1, 319232, Control_c, 0, 64, 86
1, 319232, Note_off_c, 0, 53, 47
1, 319276, Control_c, 0, 64, 86
1, 319336, Control_c, 0, 64, 85
1, 319350, Control_c, 0, 64, 81
1, 319365, Control_c, 0, 64, 73
1, 319378, Note_off_c, 0, 67, 35
1, 319380, Control_c, 0, 64, 64
1, 319384, Note_on_c, 0, 74, 66
1, 319390, Note_on_c, 0, 53, 31
1, 319394, Note_on_c, 0, 65, 55
1, 319394, Control_c, 0, 64, 47
1, 319409, Control_c, 0, 64, 0
1, 319439, Control_c, 0, 64, 40
1, 319449, Note_off_c, 0, 53, 56
1, 319454, Control_c, 0, 64, 53
1, 319468, Control_c, 0, 64, 61
1, 319483, Control_c, 0, 64, 65
1, 319498, Control_c, 0, 64, 70
1, 319513, Control_c, 0, 64, 74
1, 319536, Control_c, 0, 64, 78
1, 319539, Note_off_c, 0, 74, 59
1, 319550, Control_c, 0, 64, 79
1, 319565, Control_c, 0, 64, 81
1, 319578, Note_on_c, 0, 53, 43
1, 319580, Control_c, 0, 64, 81
1, 319598, Note_off_c, 0, 65, 36
1, 319639, Note_off_c, 0, 53, 48
1, 319698, Control_c, 0, 64, 81
1, 319713, Control_c, 0, 64, 79
1, 319728, Control_c, 0, 64, 74
1, 319742, Control_c, 0, 64, 66
1, 319757, Control_c, 0, 64, 56
1, 319767, Note_on_c, 0, 73, 60
1, 319772, Control_c, 0, 64, 42
1, 319783, Note_on_c, 0, 64, 47
1, 319785, Note_on_c, 0, 53, 31
1, 319787, Control_c, 0, 64, 37
1, 319801, Control_c, 0, 64, 42
1, 319816, Control_c, 0, 64, 49
1, 319831, Control_c, 0, 64, 57
1, 319847, Control_c, 0, 64, 62
1, 319854, Note_off_c, 0, 53, 55
1, 319862, Control_c, 0, 64, 67
1, 319877, Control_c, 0, 64, 71
1, 319892, Control_c, 0, 64, 76
1, 319899, Note_off_c, 0, 64, 61
1, 319906, Control_c, 0, 64, 79
1, 319921, Control_c, 0, 64, 81
1, 319925, Note_off_c, 0, 73, 54
1, 319936, Control_c, 0, 64, 82
1, 319951, Control_c, 0, 64, 83
1, 319966, Control_c, 0, 64, 84
1, 319980, Note_on_c, 0, 53, 39
1, 319980, Control_c, 0, 64, 84
1, 319995, Control_c, 0, 64, 85
1, 320010, Control_c, 0, 64, 85
1, 320025, Note_off_c, 0, 53, 45
1, 320040, Control_c, 0, 64, 86
1, 320099, Control_c, 0, 64, 85
1, 320113, Control_c, 0, 64, 80
1, 320128, Control_c, 0, 64, 72
1, 320143, Control_c, 0, 64, 63
1, 320156, Note_on_c, 0, 72, 52
1, 320158, Control_c, 0, 64, 49
1, 320161, Note_on_c, 0, 53, 35
1, 320172, Note_on_c, 0, 63, 43
1, 320172, Control_c, 0, 64, 37
1, 320187, Control_c, 0, 64, 40
1, 320202, Control_c, 0, 64, 46
1, 320210, Note_off_c, 0, 53, 58
1, 320216, Control_c, 0, 64, 51
1, 320231, Control_c, 0, 64, 57
1, 320246, Control_c, 0, 64, 63
1, 320261, Control_c, 0, 64, 67
1, 320284, Control_c, 0, 64, 72
1, 320293, Note_off_c, 0, 72, 60
1, 320298, Control_c, 0, 64, 76
1, 320313, Control_c, 0, 64, 78
1, 320328, Control_c, 0, 64, 79
1, 320343, Control_c, 0, 64, 80
1, 320346, Note_on_c, 0, 53, 42
1, 320357, Control_c, 0, 64, 81
1, 320372, Control_c, 0, 64, 81
1, 320379, Note_off_c, 0, 63, 52
1, 320387, Control_c, 0, 64, 82
1, 320390, Note_off_c, 0, 53, 55
1, 320476, Control_c, 0, 64, 80
1, 320491, Control_c, 0, 64, 75
1, 320505, Control_c, 0, 64, 67
1, 320520, Control_c, 0, 64, 58
1, 320535, Control_c, 0, 64, 40
1, 320549, Control_c, 0, 64, 38
1, 320554, Note_on_c, 0, 53, 32
1, 320561, Note_on_c, 0, 71, 48
1, 320564, Control_c, 0, 64, 44
1, 320576, Note_on_c, 0, 62, 32
1, 320579, Control_c, 0, 64, 51
1, 320594, Control_c, 0, 64, 57
1, 320603, Note_off_c, 0, 53, 53
1, 320609, Control_c, 0, 64, 63
1, 320624, Control_c, 0, 64, 67
1, 320639, Control_c, 0, 64, 73
1, 320654, Control_c, 0, 64, 77
1, 320660, Note_off_c, 0, 71, 60
1, 320669, Control_c, 0, 64, 78
1, 320684, Control_c, 0, 64, 79
1, 320685, Note_off_c, 0, 62, 59
1, 320699, Control_c, 0, 64, 79
1, 320714, Control_c, 0, 64, 80
1, 320728, Control_c, 0, 64, 81
1, 320741, Note_on_c, 0, 53, 35
1, 320758, Control_c, 0, 64, 81
1, 320798, Note_off_c, 0, 53, 45
1, 320862, Control_c, 0, 64, 80
1, 320877, Control_c, 0, 64, 76
1, 320892, Control_c, 0, 64, 70
1, 320907, Control_c, 0, 64, 63
1, 320922, Control_c, 0, 64, 53
1, 320937, Control_c, 0, 64, 43
1, 320940, Note_on_c, 0, 53, 30
1, 320957, Note_on_c, 0, 70, 44
1, 320964, Note_on_c, 0, 61, 30
1, 320966, Control_c, 0, 64, 47
1, 320981, Control_c, 0, 64, 52
1, 320996, Control_c, 0, 64, 57
1, 321002, Note_off_c, 0, 53, 54
1, 321011, Control_c, 0, 64, 62
1, 321033, Control_c, 0, 64, 66
1, 321047, Control_c, 0, 64, 70
1, 321062, Control_c, 0, 64, 74
1, 321077, Control_c, 0, 64, 75
1, 321092, Control_c, 0, 64, 76
1, 321107, Control_c, 0, 64, 77
1, 321122, Control_c, 0, 64, 77
1, 321137, Control_c, 0, 64, 78
1, 321152, Control_c, 0, 64, 78
1, 321156, Note_on_c, 0, 53, 29
1, 321166, Control_c, 0, 64, 79
1, 321171, Note_off_c, 0, 70, 33
1, 321199, Note_off_c, 0, 61, 40
1, 321211, Note_off_c, 0, 53, 42
1, 321403, Control_c, 0, 64, 78
1, 321418, Control_c, 0, 64, 76
1, 321433, Control_c, 0, 64, 73
1, 321446, Note_on_c, 0, 69, 35
1, 321449, Control_c, 0, 64, 69
1, 321455, Note_on_c, 0, 53, 22
1, 321458, Note_on_c, 0, 60, 26
1, 321463, Control_c, 0, 64, 63
1, 321478, Control_c, 0, 64, 54
1, 321493, Control_c, 0, 64, 40
1, 321508, Control_c, 0, 64, 0
1, 321567, Control_c, 0, 64, 38
1, 321582, Control_c, 0, 64, 45
1, 321596, Control_c, 0, 64, 55
1, 321611, Control_c, 0, 64, 62
1, 321626, Control_c, 0, 64, 66
1, 321641, Control_c, 0, 64, 68
1, 321656, Control_c, 0, 64, 70
1, 321670, Control_c, 0, 64, 72
1, 321685, Control_c, 0, 64, 73
1, 321700, Control_c, 0, 64, 74
1, 321715, Control_c, 0, 64, 75
1, 321720, Note_off_c, 0, 60, 50
1, 321730, Control_c, 0, 64, 76
1, 321745, Control_c, 0, 64, 77
1, 321754, Note_off_c, 0, 53, 40
1, 321757, Note_off_c, 0, 69, 34
1, 321760, Control_c, 0, 64, 78
1, 321796, Control_c, 0, 64, 78
1, 321856, Control_c, 0, 64, 78
1, 321870, Control_c, 0, 64, 77
1, 321885, Control_c, 0, 64, 75
1, 321900, Control_c, 0, 64, 72
1, 321915, Control_c, 0, 64, 69
1, 321930, Control_c, 0, 64, 64
1, 321944, Control_c, 0, 64, 59
1, 321959, Control_c, 0, 64, 51
1, 321974, Control_c, 0, 64, 44
1, 321989, Control_c, 0, 64, 39
1, 322004, Control_c, 0, 64, 35
1, 322019, Control_c, 0, 64, 0
1, 322427, Note_on_c, 0, 74, 40
1, 322433, Note_on_c, 0, 58, 31
1, 322445, Note_on_c, 0, 65, 23
1, 322693, Control_c, 0, 64, 34
1, 322708, Control_c, 0, 64, 39
1, 322723, Control_c, 0, 64, 45
1, 322738, Control_c, 0, 64, 49
1, 322752, Control_c, 0, 64, 52
1, 322767, Control_c, 0, 64, 56
1, 322782, Control_c, 0, 64, 61
1, 322797, Control_c, 0, 64, 63
1, 322812, Control_c, 0, 64, 66
1, 322827, Control_c, 0, 64, 70
1, 322842, Control_c, 0, 64, 73
1, 322857, Control_c, 0, 64, 75
1, 322871, Control_c, 0, 64, 77
1, 322886, Control_c, 0, 64, 79
1, 322901, Control_c, 0, 64, 81
1, 322916, Control_c, 0, 64, 83
1, 322931, Control_c, 0, 64, 84
1, 322945, Control_c, 0, 64, 85
1, 322975, Control_c, 0, 64, 86
1, 322990, Control_c, 0, 64, 86
1, 323119, Note_off_c, 0, 58, 44
1, 323125, Control_c, 0, 64, 85
1, 323140, Control_c, 0, 64, 84
1, 323149, Note_on_c, 0, 60, 33
1, 323152, Note_on_c, 0, 72, 41
1, 323155, Control_c, 0, 64, 83
1, 323169, Control_c, 0, 64, 82
1, 323176, Note_off_c, 0, 74, 31
1, 323184, Control_c, 0, 64, 81
1, 323199, Control_c, 0, 64, 79
1, 323213, Note_off_c, 0, 60, 42
1, 323214, Control_c, 0, 64, 76
1, 323217, Note_off_c, 0, 72, 51
1, 323229, Control_c, 0, 64, 74
1, 323233, Note_on_c, 0, 70, 45
1, 323243, Control_c, 0, 64, 72
1, 323244, Note_on_c, 0, 62, 34
1, 323258, Control_c, 0, 64, 69
1, 323280, Control_c, 0, 64, 65
1, 323295, Control_c, 0, 64, 60
1, 323304, Note_off_c, 0, 62, 57
1, 323310, Control_c, 0, 64, 50
1, 323325, Control_c, 0, 64, 35
1, 323331, Note_off_c, 0, 70, 52
1, 323331, Note_on_c, 0, 63, 30
1, 323339, Control_c, 0, 64, 0
1, 323343, Note_on_c, 0, 69, 37
1, 323443, Control_c, 0, 64, 36
1, 323458, Control_c, 0, 64, 45
1, 323473, Control_c, 0, 64, 53
1, 323488, Note_off_c, 0, 65, 18
1, 323488, Control_c, 0, 64, 59
1, 323503, Control_c, 0, 64, 63
1, 323517, Control_c, 0, 64, 65
1, 323532, Control_c, 0, 64, 66
1, 323547, Control_c, 0, 64, 68
1, 323562, Control_c, 0, 64, 70
1, 323576, Control_c, 0, 64, 73
1, 323591, Control_c, 0, 64, 76
1, 323606, Control_c, 0, 64, 78
1, 323621, Control_c, 0, 64, 80
1, 323636, Control_c, 0, 64, 82
1, 323650, Control_c, 0, 64, 82
1, 323671, Note_off_c, 0, 69, 61
1, 323674, Note_off_c, 0, 63, 40
1, 323739, Control_c, 0, 64, 81
1, 323754, Control_c, 0, 64, 77
1, 323769, Control_c, 0, 64, 71
1, 323784, Control_c, 0, 64, 65
1, 323784, Control_c, 0, 67, 114
1, 323799, Control_c, 0, 64, 58
1, 323799, Control_c, 0, 67, 97
1, 323813, Control_c, 0, 64, 49
1, 323813, Control_c, 0, 67, 77
1, 323828, Control_c, 0, 64, 42
1, 323828, Control_c, 0, 67, 62
1, 323844, Control_c, 0, 64, 39
1, 323844, Control_c, 0, 67, 50
1, 323858, Control_c, 0, 64, 36
1, 323858, Control_c, 0, 67, 41
1, 323873, Control_c, 0, 64, 0
1, 323873, Control_c, 0, 67, 36
1, 323888, Control_c, 0, 67, 33
1, 323903, Control_c, 0, 67, 30
1, 323918, Control_c, 0, 67, 27
1, 323933, Control_c, 0, 67, 24
1, 323947, Control_c, 0, 67, 22
1, 323962, Control_c, 0, 67, 20
1, 323977, Control_c, 0, 67, 0
1, 324137, Note_on_c, 0, 81, 50
1, 324234, Note_on_c, 0, 87, 58
1, 324240, Note_off_c, 0, 81, 43
1, 324354, Control_c, 0, 64, 37
1, 324369, Control_c, 0, 64, 43
1, 324383, Control_c, 0, 64, 49
1, 324398, Control_c, 0, 64, 54
1, 324413, Control_c, 0, 64, 60
1, 324428, Control_c, 0, 64, 64
1, 324443, Control_c, 0, 64, 67
1, 324458, Control_c, 0, 64, 70
1, 324472, Control_c, 0, 64, 73
1, 324472, Control_c, 0, 67, 19
1, 324487, Control_c, 0, 64, 75
1, 324487, Control_c, 0, 67, 21
1, 324502, Control_c, 0, 64, 78
1, 324502, Control_c, 0, 67, 23
1, 324517, Control_c, 0, 64, 82
1, 324517, Control_c, 0, 67, 26
1, 324532, Control_c, 0, 64, 85
1, 324532, Control_c, 0, 67, 28
1, 324547, Control_c, 0, 64, 88
1, 324547, Control_c, 0, 67, 35
1, 324562, Control_c, 0, 64, 91
1, 324562, Control_c, 0, 67, 45
1, 324577, Control_c, 0, 64, 92
1, 324577, Control_c, 0, 67, 57
1, 324591, Control_c, 0, 64, 93
1, 324591, Control_c, 0, 67, 70
1, 324606, Control_c, 0, 64, 94
1, 324606, Control_c, 0, 67, 83
1, 324621, Control_c, 0, 64, 95
1, 324621, Control_c, 0, 67, 96
1, 324636, Control_c, 0, 64, 96
1, 324636, Control_c, 0, 67, 105
1, 324651, Control_c, 0, 67, 114
1, 324666, Control_c, 0, 67, 119
1, 324681, Control_c, 0, 67, 124
1, 324696, Control_c, 0, 67, 127
1, 324726, Control_c, 0, 64, 98
1, 324885, Note_on_c, 0, 84, 55
1, 324940, Control_c, 0, 64, 95
1, 324955, Control_c, 0, 64, 92
1, 324955, Note_on_c, 0, 81, 56
1, 324970, Control_c, 0, 64, 90
1, 324985, Control_c, 0, 64, 87
1, 325000, Control_c, 0, 64, 85
1, 325014, Control_c, 0, 64, 83
1, 325029, Control_c, 0, 64, 81
1, 325038, Note_on_c, 0, 70, 35
1, 325044, Control_c, 0, 64, 77
1, 325059, Control_c, 0, 64, 73
1, 325060, Note_on_c, 0, 62, 29
1, 325069, Note_off_c, 0, 81, 44
1, 325074, Control_c, 0, 64, 68
1, 325088, Note_on_c, 0, 89, 55
1, 325088, Control_c, 0, 64, 64
1, 325091, Note_off_c, 0, 84, 36
1, 325103, Control_c, 0, 64, 58
1, 325116, Note_off_c, 0, 87, 55
1, 325118, Control_c, 0, 64, 49
1, 325133, Control_c, 0, 64, 45
1, 325147, Control_c, 0, 64, 41
1, 325162, Control_c, 0, 64, 36
1, 325177, Control_c, 0, 64, 0
1, 325310, Control_c, 0, 64, 34
1, 325310, Control_c, 0, 67, 124
1, 325325, Control_c, 0, 64, 41
1, 325325, Control_c, 0, 67, 122
1, 325340, Control_c, 0, 64, 49
1, 325340, Control_c, 0, 67, 118
1, 325355, Control_c, 0, 64, 57
1, 325355, Control_c, 0, 67, 115
1, 325370, Control_c, 0, 64, 62
1, 325370, Control_c, 0, 67, 110
1, 325381, Note_on_c, 0, 86, 55
1, 325385, Control_c, 0, 64, 64
1, 325385, Control_c, 0, 67, 106
1, 325400, Control_c, 0, 64, 65
1, 325400, Control_c, 0, 67, 102
1, 325414, Control_c, 0, 64, 65
1, 325414, Control_c, 0, 67, 100
1, 325428, Note_off_c, 0, 89, 38
1, 325429, Control_c, 0, 64, 66
1, 325445, Control_c, 0, 64, 66
1, 325445, Control_c, 0, 67, 96
1, 325460, Control_c, 0, 67, 94
1, 325475, Control_c, 0, 67, 92
1, 325477, Note_off_c, 0, 86, 61
1, 325490, Control_c, 0, 67, 90
1, 325496, Note_on_c, 0, 82, 56
1, 325505, Control_c, 0, 67, 90
1, 325527, Control_c, 0, 64, 65
1, 325542, Control_c, 0, 64, 62
1, 325542, Control_c, 0, 67, 89
1, 325557, Control_c, 0, 64, 56
1, 325557, Control_c, 0, 67, 89
1, 325571, Control_c, 0, 64, 44
1, 325586, Control_c, 0, 64, 36
1, 325586, Control_c, 0, 67, 88
1, 325601, Control_c, 0, 64, 41
1, 325601, Control_c, 0, 67, 87
1, 325616, Control_c, 0, 64, 49
1, 325616, Control_c, 0, 67, 84
1, 325631, Control_c, 0, 64, 55
1, 325631, Control_c, 0, 67, 79
1, 325645, Control_c, 0, 64, 62
1, 325645, Control_c, 0, 67, 76
1, 325660, Control_c, 0, 64, 67
1, 325660, Control_c, 0, 67, 75
1, 325675, Control_c, 0, 64, 71
1, 325690, Control_c, 0, 64, 75
1, 325690, Control_c, 0, 67, 75
1, 325705, Control_c, 0, 64, 77
1, 325719, Control_c, 0, 64, 79
1, 325734, Control_c, 0, 64, 81
1, 325749, Control_c, 0, 64, 82
1, 325763, Control_c, 0, 64, 82
1, 325778, Control_c, 0, 64, 83
1, 325793, Control_c, 0, 64, 83
1, 325808, Control_c, 0, 64, 84
1, 325881, Note_off_c, 0, 62, 37
1, 325882, Note_on_c, 0, 63, 34
1, 325958, Note_off_c, 0, 82, 27
1, 326013, Note_on_c, 0, 81, 53
1, 326031, Control_c, 0, 67, 75
1, 326038, Note_off_c, 0, 81, 58
1, 326064, Note_on_c, 0, 82, 63
1, 326075, Control_c, 0, 64, 84
1, 326104, Control_c, 0, 64, 83
1, 326109, Note_off_c, 0, 82, 58
1, 326114, Note_on_c, 0, 81, 65
1, 326119, Control_c, 0, 64, 83
1, 326134, Control_c, 0, 64, 82
1, 326136, Note_off_c, 0, 81, 64
1, 326149, Control_c, 0, 64, 80
1, 326161, Note_on_c, 0, 79, 63
1, 326163, Control_c, 0, 64, 77
1, 326178, Control_c, 0, 64, 73
1, 326187, Note_off_c, 0, 79, 61
1, 326193, Control_c, 0, 64, 68
1, 326208, Control_c, 0, 64, 59
1, 326210, Note_on_c, 0, 81, 69
1, 326223, Control_c, 0, 64, 45
1, 326239, Control_c, 0, 64, 0
1, 326276, Note_off_c, 0, 81, 61
1, 326300, Note_on_c, 0, 84, 65
1, 326305, Control_c, 0, 67, 75
1, 326320, Control_c, 0, 67, 74
1, 326335, Control_c, 0, 67, 74
1, 326350, Control_c, 0, 67, 72
1, 326365, Control_c, 0, 67, 64
1, 326380, Control_c, 0, 67, 52
1, 326394, Control_c, 0, 64, 34
1, 326394, Control_c, 0, 67, 41
1, 326409, Control_c, 0, 64, 45
1, 326409, Control_c, 0, 67, 32
1, 326424, Control_c, 0, 64, 54
1, 326424, Control_c, 0, 67, 22
1, 326439, Control_c, 0, 64, 62
1, 326439, Control_c, 0, 67, 0
1, 326454, Control_c, 0, 64, 66
1, 326468, Control_c, 0, 64, 68
1, 326483, Control_c, 0, 64, 71
1, 326498, Control_c, 0, 64, 73
1, 326503, Note_on_c, 0, 82, 68
1, 326512, Control_c, 0, 64, 75
1, 326527, Control_c, 0, 64, 77
1, 326542, Control_c, 0, 64, 78
1, 326557, Control_c, 0, 64, 79
1, 326572, Control_c, 0, 64, 80
1, 326601, Control_c, 0, 64, 80
1, 326690, Control_c, 0, 64, 79
1, 326705, Control_c, 0, 64, 74
1, 326714, Note_on_c, 0, 81, 64
1, 326718, Note_on_c, 0, 67, 34
1, 326720, Control_c, 0, 64, 67
1, 326735, Control_c, 0, 64, 58
1, 326748, Note_off_c, 0, 84, 42
1, 326750, Control_c, 0, 64, 35
1, 326765, Control_c, 0, 64, 0
1, 326785, Note_off_c, 0, 82, 37
1, 326839, Control_c, 0, 64, 44
1, 326854, Control_c, 0, 64, 55
1, 326868, Control_c, 0, 64, 62
1, 326883, Control_c, 0, 64, 65
1, 326898, Control_c, 0, 64, 66
1, 326912, Control_c, 0, 64, 64
1, 326926, Note_on_c, 0, 79, 72
1, 326927, Control_c, 0, 64, 59
1, 326942, Control_c, 0, 64, 49
1, 326957, Control_c, 0, 64, 0
1, 326991, Note_off_c, 0, 81, 58
1, 327024, Control_c, 0, 64, 38
1, 327039, Control_c, 0, 64, 53
1, 327054, Control_c, 0, 64, 63
1, 327069, Control_c, 0, 64, 69
1, 327084, Control_c, 0, 64, 73
1, 327098, Control_c, 0, 64, 76
1, 327113, Control_c, 0, 64, 78
1, 327116, Note_off_c, 0, 79, 63
1, 327128, Control_c, 0, 64, 80
1, 327137, Note_on_c, 0, 77, 67
1, 327143, Control_c, 0, 64, 82
1, 327158, Control_c, 0, 64, 84
1, 327173, Control_c, 0, 64, 86
1, 327188, Control_c, 0, 64, 87
1, 327197, Note_off_c, 0, 70, 39
1, 327203, Control_c, 0, 64, 87
1, 327232, Control_c, 0, 64, 88
1, 327316, Note_on_c, 0, 75, 67
1, 327346, Note_off_c, 0, 77, 47
1, 327424, Control_c, 0, 64, 87
1, 327454, Control_c, 0, 64, 87
1, 327469, Control_c, 0, 64, 86
1, 327483, Control_c, 0, 64, 85
1, 327498, Control_c, 0, 64, 83
1, 327513, Control_c, 0, 64, 80
1, 327528, Control_c, 0, 64, 75
1, 327543, Control_c, 0, 64, 69
1, 327557, Control_c, 0, 64, 61
1, 327569, Note_on_c, 0, 70, 30
1, 327572, Control_c, 0, 64, 44
1, 327574, Note_on_c, 0, 74, 59
1, 327581, Note_on_c, 0, 65, 30
1, 327587, Control_c, 0, 64, 0
1, 327618, Note_off_c, 0, 75, 56
1, 327647, Note_off_c, 0, 67, 46
1, 327676, Note_off_c, 0, 63, 43
1, 327691, Control_c, 0, 64, 47
1, 327706, Control_c, 0, 64, 59
1, 327721, Control_c, 0, 64, 65
1, 327735, Control_c, 0, 64, 68
1, 327750, Control_c, 0, 64, 71
1, 327772, Control_c, 0, 64, 74
1, 327772, Control_c, 0, 67, 20
1, 327787, Control_c, 0, 64, 76
1, 327787, Control_c, 0, 67, 22
1, 327802, Control_c, 0, 64, 80
1, 327802, Control_c, 0, 67, 25
1, 327817, Control_c, 0, 64, 83
1, 327817, Control_c, 0, 67, 28
1, 327822, Note_on_c, 0, 77, 64
1, 327832, Control_c, 0, 64, 86
1, 327832, Control_c, 0, 67, 32
1, 327847, Control_c, 0, 64, 88
1, 327847, Control_c, 0, 67, 37
1, 327849, Note_off_c, 0, 70, 41
1, 327862, Control_c, 0, 64, 89
1, 327862, Control_c, 0, 67, 44
1, 327877, Control_c, 0, 64, 91
1, 327877, Control_c, 0, 67, 53
1, 327892, Control_c, 0, 64, 92
1, 327892, Control_c, 0, 67, 66
1, 327900, Note_off_c, 0, 65, 50
1, 327907, Control_c, 0, 64, 93
1, 327907, Control_c, 0, 67, 75
1, 327915, Note_off_c, 0, 77, 54
1, 327921, Control_c, 0, 64, 94
1, 327921, Control_c, 0, 67, 83
1, 327936, Control_c, 0, 67, 91
1, 327951, Control_c, 0, 67, 99
1, 327966, Control_c, 0, 64, 94
1, 327966, Control_c, 0, 67, 107
1, 327981, Control_c, 0, 64, 95
1, 327981, Control_c, 0, 67, 114
1, 327996, Control_c, 0, 64, 95
1, 327996, Control_c, 0, 67, 122
1, 328011, Control_c, 0, 67, 127
1, 328080, Note_on_c, 0, 77, 57
1, 328139, Note_off_c, 0, 74, 36
1, 328470, Control_c, 0, 64, 94
1, 328484, Control_c, 0, 64, 90
1, 328499, Control_c, 0, 64, 81
1, 328513, Note_on_c, 0, 58, 36
1, 328521, Control_c, 0, 64, 68
1, 328524, Note_on_c, 0, 53, 31
1, 328536, Control_c, 0, 64, 57
1, 328551, Control_c, 0, 64, 40
1, 328565, Control_c, 0, 64, 36
1, 328580, Control_c, 0, 64, 43
1, 328595, Control_c, 0, 64, 51
1, 328610, Control_c, 0, 64, 60
1, 328625, Control_c, 0, 64, 65
1, 328641, Control_c, 0, 64, 69
1, 328656, Control_c, 0, 64, 74
1, 328670, Control_c, 0, 64, 78
1, 328685, Control_c, 0, 64, 81
1, 328700, Control_c, 0, 64, 84
1, 328714, Control_c, 0, 64, 85
1, 328729, Control_c, 0, 64, 86
1, 328737, Note_on_c, 0, 76, 62
1, 328744, Control_c, 0, 64, 87
1, 328759, Control_c, 0, 64, 88
1, 328803, Control_c, 0, 64, 88
1, 328842, Note_off_c, 0, 53, 35
1, 328848, Control_c, 0, 64, 89
1, 328863, Control_c, 0, 64, 89
1, 328878, Control_c, 0, 64, 90
1, 328881, Note_off_c, 0, 77, 22
1, 328893, Control_c, 0, 64, 91
1, 328907, Control_c, 0, 64, 91
1, 328908, Note_on_c, 0, 75, 64
1, 328922, Control_c, 0, 64, 92
1, 328922, Control_c, 0, 67, 125
1, 328937, Control_c, 0, 64, 93
1, 328937, Control_c, 0, 67, 98
1, 328952, Control_c, 0, 64, 93
1, 328952, Control_c, 0, 67, 65
1, 328967, Control_c, 0, 64, 94
1, 328967, Control_c, 0, 67, 32
1, 328968, Note_off_c, 0, 76, 37
1, 328981, Control_c, 0, 64, 94
1, 328981, Control_c, 0, 67, 0
1, 328996, Control_c, 0, 64, 95
1, 329026, Control_c, 0, 64, 95
1, 329086, Note_on_c, 0, 74, 75
1, 329133, Note_off_c, 0, 75, 60
1, 329248, Control_c, 0, 64, 95
1, 329270, Control_c, 0, 64, 94
1, 329285, Control_c, 0, 64, 93
1, 329299, Note_on_c, 0, 53, 26
1, 329300, Control_c, 0, 64, 90
1, 329314, Control_c, 0, 64, 85
1, 329317, Note_on_c, 0, 57, 35
1, 329329, Control_c, 0, 64, 76
1, 329344, Control_c, 0, 64, 67
1, 329359, Control_c, 0, 64, 55
1, 329364, Note_on_c, 0, 77, 52
1, 329370, Note_off_c, 0, 74, 58
1, 329374, Control_c, 0, 64, 0
1, 329462, Note_off_c, 0, 58, 43
1, 329464, Control_c, 0, 64, 47
1, 329479, Control_c, 0, 64, 59
1, 329493, Control_c, 0, 64, 64
1, 329508, Control_c, 0, 64, 67
1, 329523, Control_c, 0, 64, 69
1, 329537, Control_c, 0, 64, 71
1, 329552, Control_c, 0, 64, 72
1, 329567, Control_c, 0, 64, 72
1, 329576, Note_on_c, 0, 75, 65
1, 329582, Control_c, 0, 64, 73
1, 329597, Control_c, 0, 64, 74
1, 329611, Control_c, 0, 64, 74
1, 329701, Control_c, 0, 64, 72
1, 329716, Control_c, 0, 64, 67
1, 329729, Note_off_c, 0, 77, 23
1, 329730, Control_c, 0, 64, 59
1, 329745, Control_c, 0, 64, 42
1, 329760, Control_c, 0, 64, 0
1, 329765, Note_on_c, 0, 74, 68
1, 329784, Note_off_c, 0, 75, 58
1, 329789, Note_on_c, 0, 63, 31
1, 329790, Note_on_c, 0, 69, 50
1, 329804, Control_c, 0, 64, 38
1, 329819, Control_c, 0, 64, 49
1, 329834, Control_c, 0, 64, 60
1, 329849, Control_c, 0, 64, 66
1, 329863, Control_c, 0, 64, 70
1, 329878, Control_c, 0, 64, 73
1, 329888, Note_off_c, 0, 53, 39
1, 329893, Control_c, 0, 64, 75
1, 329908, Control_c, 0, 64, 77
1, 329922, Control_c, 0, 64, 79
1, 329937, Control_c, 0, 64, 82
1, 329952, Control_c, 0, 64, 85
1, 329954, Note_on_c, 0, 72, 72
1, 329965, Note_off_c, 0, 63, 38
1, 329967, Control_c, 0, 64, 87
1, 329982, Control_c, 0, 64, 89
1, 329993, Note_off_c, 0, 69, 36
1, 329997, Control_c, 0, 64, 90
1, 330019, Control_c, 0, 64, 91
1, 330034, Control_c, 0, 64, 91
1, 330041, Note_off_c, 0, 72, 60
1, 330049, Control_c, 0, 64, 92
1, 330093, Control_c, 0, 64, 92
1, 330211, Control_c, 0, 64, 92
1, 330225, Note_off_c, 0, 74, 43
1, 330226, Control_c, 0, 64, 91
1, 330242, Control_c, 0, 64, 89
1, 330254, Note_on_c, 0, 72, 51
1, 330257, Control_c, 0, 64, 87
1, 330258, Note_on_c, 0, 58, 34
1, 330272, Control_c, 0, 64, 82
1, 330273, Note_on_c, 0, 63, 27
1, 330275, Note_on_c, 0, 69, 40
1, 330286, Control_c, 0, 64, 75
1, 330301, Control_c, 0, 64, 65
1, 330313, Note_off_c, 0, 57, 36
1, 330316, Control_c, 0, 64, 52
1, 330331, Control_c, 0, 64, 0
1, 330420, Control_c, 0, 64, 41
1, 330434, Control_c, 0, 64, 56
1, 330449, Control_c, 0, 64, 64
1, 330464, Control_c, 0, 64, 67
1, 330479, Control_c, 0, 64, 70
1, 330494, Control_c, 0, 64, 73
1, 330494, Control_c, 0, 67, 19
1, 330509, Control_c, 0, 64, 75
1, 330509, Control_c, 0, 67, 22
1, 330523, Control_c, 0, 64, 77
1, 330523, Control_c, 0, 67, 24
1, 330538, Control_c, 0, 64, 78
1, 330538, Control_c, 0, 67, 27
1, 330550, Note_off_c, 0, 63, 40
1, 330553, Control_c, 0, 64, 80
1, 330553, Control_c, 0, 67, 30
1, 330568, Control_c, 0, 64, 81
1, 330568, Control_c, 0, 67, 33
1, 330583, Control_c, 0, 64, 81
1, 330583, Control_c, 0, 67, 37
1, 330598, Control_c, 0, 64, 82
1, 330598, Control_c, 0, 67, 43
1, 330613, Control_c, 0, 67, 51
1, 330628, Control_c, 0, 67, 59
1, 330643, Control_c, 0, 67, 69
1, 330658, Control_c, 0, 67, 77
1, 330673, Control_c, 0, 67, 83
1, 330687, Control_c, 0, 67, 90
1, 330702, Control_c, 0, 67, 97
1, 330717, Control_c, 0, 64, 81
1, 330717, Control_c, 0, 67, 104
1, 330726, Note_on_c, 0, 70, 55
1, 330732, Control_c, 0, 64, 77
1, 330732, Control_c, 0, 67, 113
1, 330734, Note_off_c, 0, 72, 54
1, 330745, Note_on_c, 0, 62, 27
1, 330747, Control_c, 0, 64, 71
1, 330747, Control_c, 0, 67, 121
1, 330768, Control_c, 0, 64, 64
1, 330768, Control_c, 0, 67, 127
1, 330783, Control_c, 0, 64, 52
1, 330791, Note_off_c, 0, 69, 37
1, 330798, Control_c, 0, 64, 0
1, 330857, Control_c, 0, 64, 36
1, 330872, Control_c, 0, 64, 48
1, 330887, Control_c, 0, 64, 59
1, 330902, Control_c, 0, 64, 66
1, 330917, Control_c, 0, 64, 71
1, 330932, Control_c, 0, 64, 74
1, 330947, Control_c, 0, 64, 76
1, 330961, Control_c, 0, 64, 78
1, 330976, Control_c, 0, 64, 80
1, 330986, Note_off_c, 0, 62, 38
1, 330991, Control_c, 0, 64, 81
1, 331005, Control_c, 0, 64, 83
1, 331008, Note_off_c, 0, 70, 58
1, 331017, Note_off_c, 0, 58, 34
1, 331020, Control_c, 0, 64, 84
1, 331036, Control_c, 0, 64, 84
1, 331051, Control_c, 0, 64, 85
1, 331066, Control_c, 0, 64, 85
1, 331081, Control_c, 0, 64, 86
1, 331273, Control_c, 0, 64, 85
1, 331288, Control_c, 0, 64, 83
1, 331302, Control_c, 0, 64, 80
1, 331307, Note_on_c, 0, 70, 50
1, 331312, Note_on_c, 0, 62, 29
1, 331314, Note_on_c, 0, 58, 26
1, 331317, Control_c, 0, 64, 75
1, 331332, Control_c, 0, 64, 68
1, 331346, Control_c, 0, 64, 60
1, 331361, Control_c, 0, 64, 43
1, 331375, Control_c, 0, 64, 0
1, 331434, Control_c, 0, 64, 37
1, 331449, Control_c, 0, 64, 47
1, 331464, Control_c, 0, 64, 59
1, 331479, Control_c, 0, 64, 66
1, 331494, Control_c, 0, 64, 70
1, 331516, Control_c, 0, 64, 74
1, 331531, Control_c, 0, 64, 76
1, 331546, Control_c, 0, 64, 77
1, 331561, Control_c, 0, 64, 78
1, 331576, Control_c, 0, 64, 79
1, 331590, Control_c, 0, 64, 80
1, 331605, Control_c, 0, 64, 81
1, 331620, Control_c, 0, 64, 82
1, 331694, Control_c, 0, 64, 82
1, 331782, Control_c, 0, 64, 83
1, 331829, Note_off_c, 0, 62, 29
1, 331958, Note_off_c, 0, 58, 31
1, 332169, Control_c, 0, 64, 82
1, 332198, Control_c, 0, 64, 82
1, 332213, Control_c, 0, 64, 81
1, 332228, Control_c, 0, 64, 80
1, 332243, Control_c, 0, 64, 80
1, 332264, Control_c, 0, 64, 79
1, 332279, Control_c, 0, 64, 78
1, 332294, Control_c, 0, 64, 77
1, 332309, Control_c, 0, 64, 76
1, 332324, Control_c, 0, 64, 76
1, 332339, Control_c, 0, 64, 75
1, 332354, Control_c, 0, 64, 75
1, 332369, Control_c, 0, 64, 74
1, 332384, Control_c, 0, 64, 73
1, 332398, Control_c, 0, 64, 71
1, 332413, Control_c, 0, 64, 68
1, 332428, Control_c, 0, 64, 65
1, 332443, Control_c, 0, 64, 62
1, 332457, Control_c, 0, 64, 58
1, 332472, Control_c, 0, 64, 55
1, 332487, Control_c, 0, 64, 53
1, 332502, Control_c, 0, 64, 51
1, 332517, Control_c, 0, 64, 50
1, 332531, Control_c, 0, 64, 48
1, 332546, Control_c, 0, 64, 45
1, 332561, Control_c, 0, 64, 41
1, 332575, Control_c, 0, 64, 36
1, 332590, Control_c, 0, 64, 0
1, 333028, Note_on_c, 0, 71, 37
1, 333063, Note_off_c, 0, 70, 53
1, 333117, Control_c, 0, 64, 35
1, 333132, Control_c, 0, 64, 42
1, 333147, Control_c, 0, 64, 51
1, 333162, Control_c, 0, 64, 58
1, 333176, Control_c, 0, 64, 62
1, 333191, Control_c, 0, 64, 65
1, 333206, Control_c, 0, 64, 67
1, 333221, Control_c, 0, 64, 70
1, 333236, Control_c, 0, 64, 72
1, 333251, Control_c, 0, 64, 74
1, 333266, Control_c, 0, 64, 76
1, 333273, Note_off_c, 0, 71, 55
1, 333280, Control_c, 0, 64, 78
1, 333295, Control_c, 0, 64, 79
1, 333310, Control_c, 0, 64, 81
1, 333325, Control_c, 0, 64, 82
1, 333340, Control_c, 0, 64, 84
1, 333354, Control_c, 0, 64, 84
1, 333369, Control_c, 0, 64, 85
1, 333384, Control_c, 0, 64, 85
1, 333445, Control_c, 0, 64, 86
1, 333533, Control_c, 0, 64, 85
1, 333548, Control_c, 0, 64, 83
1, 333562, Note_on_c, 0, 53, 23
1, 333563, Control_c, 0, 64, 78
1, 333577, Control_c, 0, 64, 69
1, 333585, Note_on_c, 0, 72, 39
1, 333593, Control_c, 0, 64, 61
1, 333603, Note_on_c, 0, 69, 19
1, 333608, Control_c, 0, 64, 53
1, 333622, Control_c, 0, 64, 55
1, 333637, Control_c, 0, 64, 57
1, 333652, Control_c, 0, 64, 60
1, 333667, Control_c, 0, 64, 62
1, 333682, Control_c, 0, 64, 65
1, 333696, Control_c, 0, 64, 70
1, 333711, Control_c, 0, 64, 74
1, 333726, Control_c, 0, 64, 79
1, 333749, Control_c, 0, 64, 83
1, 333764, Control_c, 0, 64, 86
1, 333778, Control_c, 0, 64, 89
1, 333793, Control_c, 0, 64, 91
1, 333808, Control_c, 0, 64, 93
1, 333822, Control_c, 0, 64, 94
1, 333834, Note_off_c, 0, 53, 41
1, 333837, Control_c, 0, 64, 94
1, 333852, Control_c, 0, 64, 95
1, 333867, Control_c, 0, 64, 95
1, 333889, Note_on_c, 0, 65, 38
1, 333911, Control_c, 0, 64, 96
1, 333933, Note_off_c, 0, 65, 46
1, 334086, Note_on_c, 0, 65, 39
1, 334127, Note_off_c, 0, 65, 47
1, 334276, Note_on_c, 0, 65, 36
1, 334296, Note_off_c, 0, 72, 37
1, 334315, Note_off_c, 0, 65, 50
1, 334330, Note_off_c, 0, 69, 34
1, 334450, Note_on_c, 0, 65, 50
1, 334503, Note_off_c, 0, 65, 60
1, 334642, Note_on_c, 0, 74, 50
1, 334646, Note_on_c, 0, 70, 44
1, 334655, Note_on_c, 0, 65, 37
1, 334663, Note_off_c, 0, 74, 61
1, 334673, Note_off_c, 0, 70, 52
1, 334685, Note_off_c, 0, 65, 54
1, 334831, Note_on_c, 0, 75, 64
1, 334843, Note_on_c, 0, 65, 37
1, 334847, Note_on_c, 0, 72, 54
1, 334879, Note_off_c, 0, 65, 51
1, 334896, Control_c, 0, 67, 100
1, 334911, Control_c, 0, 67, 61
1, 334926, Control_c, 0, 67, 31
1, 334941, Control_c, 0, 67, 0
1, 335005, Note_on_c, 0, 77, 73
1, 335006, Note_off_c, 0, 75, 62
1, 335010, Note_on_c, 0, 74, 57
1, 335025, Note_on_c, 0, 65, 39
1, 335057, Note_off_c, 0, 72, 35
1, 335063, Note_off_c, 0, 65, 48
1, 335073, Note_off_c, 0, 74, 52
1, 335149, Control_c, 0, 64, 94
1, 335164, Control_c, 0, 64, 89
1, 335179, Control_c, 0, 64, 79
1, 335193, Control_c, 0, 64, 69
1, 335208, Control_c, 0, 64, 57
1, 335213, Note_off_c, 0, 77, 59
1, 335223, Note_on_c, 0, 65, 38
1, 335223, Control_c, 0, 64, 0
1, 335230, Note_on_c, 0, 79, 65
1, 335249, Note_on_c, 0, 75, 48
1, 335275, Control_c, 0, 64, 41
1, 335275, Control_c, 0, 67, 19
1, 335290, Control_c, 0, 64, 49
1, 335290, Control_c, 0, 67, 23
1, 335299, Note_off_c, 0, 65, 51
1, 335305, Control_c, 0, 64, 58
1, 335305, Control_c, 0, 67, 27
1, 335320, Note_off_c, 0, 75, 53
1, 335320, Control_c, 0, 64, 64
1, 335320, Control_c, 0, 67, 32
1, 335335, Control_c, 0, 64, 68
1, 335335, Control_c, 0, 67, 40
1, 335349, Control_c, 0, 64, 72
1, 335349, Control_c, 0, 67, 51
1, 335364, Control_c, 0, 64, 75
1, 335364, Control_c, 0, 67, 63
1, 335369, Note_off_c, 0, 79, 53
1, 335379, Control_c, 0, 64, 77
1, 335379, Control_c, 0, 67, 75
1, 335394, Control_c, 0, 64, 78
1, 335394, Control_c, 0, 67, 84
1, 335408, Control_c, 0, 64, 80
1, 335408, Control_c, 0, 67, 92
1, 335423, Control_c, 0, 64, 81
1, 335423, Control_c, 0, 67, 96
1, 335438, Control_c, 0, 64, 82
1, 335453, Control_c, 0, 64, 83
1, 335463, Note_on_c, 0, 79, 77
1, 335467, Note_on_c, 0, 65, 38
1, 335472, Note_on_c, 0, 75, 59
1, 335482, Control_c, 0, 64, 84
1, 335497, Control_c, 0, 64, 84
1, 335497, Control_c, 0, 67, 98
1, 335515, Note_off_c, 0, 65, 44
1, 335556, Control_c, 0, 64, 83
1, 335571, Control_c, 0, 64, 75
1, 335586, Control_c, 0, 64, 66
1, 335600, Control_c, 0, 64, 53
1, 335614, Note_off_c, 0, 75, 61
1, 335615, Control_c, 0, 64, 0
1, 335647, Note_on_c, 0, 77, 71
1, 335658, Note_on_c, 0, 65, 45
1, 335658, Note_on_c, 0, 74, 61
1, 335660, Control_c, 0, 64, 33
1, 335671, Note_off_c, 0, 79, 63
1, 335674, Control_c, 0, 64, 46
1, 335689, Control_c, 0, 64, 57
1, 335689, Control_c, 0, 67, 100
1, 335701, Note_off_c, 0, 65, 62
1, 335704, Control_c, 0, 64, 64
1, 335704, Control_c, 0, 67, 102
1, 335719, Note_off_c, 0, 74, 50
1, 335719, Control_c, 0, 64, 68
1, 335719, Control_c, 0, 67, 105
1, 335732, Note_off_c, 0, 77, 58
1, 335734, Control_c, 0, 64, 71
1, 335734, Control_c, 0, 67, 107
1, 335749, Control_c, 0, 64, 72
1, 335764, Control_c, 0, 64, 72
1, 335764, Control_c, 0, 67, 109
1, 335779, Control_c, 0, 64, 73
1, 335793, Control_c, 0, 64, 74
1, 335808, Control_c, 0, 64, 74
1, 335824, Control_c, 0, 67, 112
1, 335826, Note_on_c, 0, 77, 63
1, 335830, Note_on_c, 0, 74, 63
1, 335839, Control_c, 0, 67, 115
1, 335841, Note_on_c, 0, 65, 41
1, 335854, Control_c, 0, 67, 119
1, 335869, Control_c, 0, 67, 123
1, 335874, Note_off_c, 0, 65, 54
1, 335884, Control_c, 0, 67, 127
1, 335898, Control_c, 0, 64, 73
1, 335913, Control_c, 0, 64, 70
1, 335928, Control_c, 0, 64, 65
1, 335943, Control_c, 0, 64, 53
1, 335958, Control_c, 0, 64, 0
1, 335979, Note_off_c, 0, 74, 61
1, 336012, Note_on_c, 0, 76, 59
1, 336019, Note_off_c, 0, 77, 53
1, 336020, Note_on_c, 0, 73, 51
1, 336029, Note_on_c, 0, 65, 41
1, 336069, Control_c, 0, 64, 44
1, 336074, Note_off_c, 0, 65, 61
1, 336084, Control_c, 0, 64, 59
1, 336098, Control_c, 0, 64, 64
1, 336107, Note_off_c, 0, 73, 51
1, 336112, Note_off_c, 0, 76, 57
1, 336113, Control_c, 0, 64, 66
1, 336128, Control_c, 0, 64, 67
1, 336143, Control_c, 0, 64, 68
1, 336158, Control_c, 0, 64, 69
1, 336172, Control_c, 0, 64, 70
1, 336187, Control_c, 0, 64, 71
1, 336202, Control_c, 0, 64, 72
1, 336206, Note_on_c, 0, 76, 61
1, 336207, Note_on_c, 0, 73, 46
1, 336217, Note_on_c, 0, 65, 38
1, 336217, Control_c, 0, 64, 73
1, 336264, Note_off_c, 0, 65, 45
1, 336292, Control_c, 0, 64, 73
1, 336306, Control_c, 0, 64, 69
1, 336321, Control_c, 0, 64, 64
1, 336336, Control_c, 0, 64, 51
1, 336343, Note_off_c, 0, 73, 58
1, 336351, Control_c, 0, 64, 0
1, 336361, Note_off_c, 0, 76, 58
1, 336385, Note_on_c, 0, 75, 55
1, 336400, Note_on_c, 0, 72, 46
1, 336409, Note_on_c, 0, 65, 39
1, 336439, Control_c, 0, 64, 49
1, 336442, Note_off_c, 0, 65, 57
1, 336454, Control_c, 0, 64, 60
1, 336458, Note_off_c, 0, 72, 53
1, 336469, Note_off_c, 0, 75, 54
1, 336469, Control_c, 0, 64, 65
1, 336484, Control_c, 0, 64, 67
1, 336498, Control_c, 0, 64, 68
1, 336513, Control_c, 0, 64, 69
1, 336528, Control_c, 0, 64, 70
1, 336542, Control_c, 0, 64, 71
1, 336557, Control_c, 0, 64, 73
1, 336572, Control_c, 0, 64, 74
1, 336575, Note_on_c, 0, 65, 37
1, 336587, Note_on_c, 0, 75, 53
1, 336587, Control_c, 0, 64, 75
1, 336593, Note_on_c, 0, 72, 39
1, 336602, Control_c, 0, 64, 76
1, 336618, Control_c, 0, 64, 76
1, 336628, Note_off_c, 0, 65, 52
1, 336631, Note_off_c, 0, 75, 55
1, 336632, Note_off_c, 0, 72, 54
1, 336647, Control_c, 0, 64, 77
1, 336662, Control_c, 0, 64, 77
1, 336721, Control_c, 0, 64, 74
1, 336736, Control_c, 0, 64, 67
1, 336759, Control_c, 0, 64, 56
1, 336773, Note_on_c, 0, 74, 51
1, 336774, Control_c, 0, 64, 0
1, 336774, Note_on_c, 0, 65, 38
1, 336786, Note_on_c, 0, 71, 28
1, 336816, Note_off_c, 0, 65, 57
1, 336833, Control_c, 0, 64, 47
1, 336847, Control_c, 0, 64, 59
1, 336853, Note_off_c, 0, 74, 55
1, 336855, Note_off_c, 0, 71, 40
1, 336862, Control_c, 0, 64, 64
1, 336877, Control_c, 0, 64, 67
1, 336892, Control_c, 0, 64, 69
1, 336907, Control_c, 0, 64, 70
1, 336921, Control_c, 0, 64, 72
1, 336936, Control_c, 0, 64, 74
1, 336951, Control_c, 0, 64, 76
1, 336957, Note_on_c, 0, 71, 30
1, 336962, Note_on_c, 0, 65, 37
1, 336962, Note_on_c, 0, 74, 43
1, 336966, Control_c, 0, 64, 78
1, 336980, Control_c, 0, 64, 79
1, 336995, Control_c, 0, 64, 80
1, 337010, Control_c, 0, 64, 80
1, 337019, Note_off_c, 0, 65, 42
1, 337040, Control_c, 0, 64, 81
1, 337070, Control_c, 0, 64, 80
1, 337084, Control_c, 0, 64, 77
1, 337099, Control_c, 0, 64, 70
1, 337114, Control_c, 0, 64, 61
1, 337116, Note_off_c, 0, 74, 59
1, 337129, Control_c, 0, 64, 44
1, 337129, Note_off_c, 0, 71, 46
1, 337144, Control_c, 0, 64, 0
1, 337145, Note_on_c, 0, 73, 49
1, 337153, Note_on_c, 0, 65, 37
1, 337171, Note_on_c, 0, 70, 36
1, 337173, Control_c, 0, 64, 42
1, 337188, Control_c, 0, 64, 50
1, 337203, Control_c, 0, 64, 57
1, 337206, Note_off_c, 0, 65, 58
1, 337218, Control_c, 0, 64, 62
1, 337227, Note_off_c, 0, 70, 43
1, 337233, Control_c, 0, 64, 65
1, 337245, Note_off_c, 0, 73, 53
1, 337247, Control_c, 0, 64, 68
1, 337262, Control_c, 0, 64, 70
1, 337277, Control_c, 0, 64, 72
1, 337292, Control_c, 0, 64, 74
1, 337307, Control_c, 0, 64, 76
1, 337321, Control_c, 0, 64, 77
1, 337336, Control_c, 0, 64, 79
1, 337341, Note_on_c, 0, 73, 47
1, 337348, Note_on_c, 0, 65, 40
1, 337351, Control_c, 0, 64, 80
1, 337359, Note_on_c, 0, 70, 40
1, 337365, Control_c, 0, 64, 81
1, 337380, Control_c, 0, 64, 81
1, 337395, Control_c, 0, 64, 82
1, 337412, Note_off_c, 0, 65, 40
1, 337456, Control_c, 0, 64, 82
1, 337508, Control_c, 0, 64, 82
1, 337509, Note_off_c, 0, 70, 31
1, 337523, Control_c, 0, 64, 80
1, 337538, Control_c, 0, 64, 74
1, 337547, Note_off_c, 0, 73, 38
1, 337552, Control_c, 0, 64, 66
1, 337567, Control_c, 0, 64, 55
1, 337570, Note_on_c, 0, 72, 43
1, 337582, Note_on_c, 0, 65, 25
1, 337582, Control_c, 0, 64, 46
1, 337582, Note_on_c, 0, 69, 37
1, 337596, Control_c, 0, 64, 48
1, 337611, Control_c, 0, 64, 51
1, 337626, Control_c, 0, 64, 54
1, 337638, Note_off_c, 0, 65, 45
1, 337641, Control_c, 0, 64, 58
1, 337656, Control_c, 0, 64, 62
1, 337670, Control_c, 0, 64, 67
1, 337685, Control_c, 0, 64, 71
1, 337700, Control_c, 0, 64, 74
1, 337715, Control_c, 0, 64, 77
1, 337730, Control_c, 0, 64, 80
1, 337744, Control_c, 0, 64, 83
1, 337759, Control_c, 0, 64, 86
1, 337773, Note_on_c, 0, 65, 41
1, 337774, Control_c, 0, 64, 89
1, 337789, Control_c, 0, 64, 92
1, 337800, Note_off_c, 0, 69, 57
1, 337803, Control_c, 0, 64, 94
1, 337818, Control_c, 0, 64, 96
1, 337827, Note_off_c, 0, 65, 42
1, 337863, Control_c, 0, 64, 99
1, 337892, Control_c, 0, 64, 102
1, 337922, Control_c, 0, 64, 104
1, 337952, Control_c, 0, 64, 106
1, 337968, Note_on_c, 0, 65, 40
1, 337968, Note_off_c, 0, 72, 33
1, 337982, Control_c, 0, 64, 109
1, 337994, Note_off_c, 0, 65, 57
1, 338011, Control_c, 0, 64, 111
1, 338041, Control_c, 0, 64, 115
1, 338056, Control_c, 0, 64, 122
1, 338070, Control_c, 0, 64, 127
1, 338152, Note_on_c, 0, 65, 60
1, 338182, Note_off_c, 0, 65, 66
1, 338432, Note_on_c, 0, 41, 37
1, 338449, Control_c, 0, 64, 107
1, 338464, Control_c, 0, 64, 81
1, 338479, Control_c, 0, 64, 66
1, 338483, Note_on_c, 0, 69, 62
1, 338493, Control_c, 0, 64, 51
1, 338503, Note_on_c, 0, 60, 42
1, 338508, Control_c, 0, 64, 37
1, 338523, Control_c, 0, 64, 44
1, 338538, Control_c, 0, 64, 54
1, 338552, Control_c, 0, 64, 62
1, 338567, Control_c, 0, 64, 71
1, 338582, Control_c, 0, 64, 81
1, 338597, Control_c, 0, 64, 97
1, 338612, Control_c, 0, 64, 117
1, 338612, Control_c, 0, 67, 117
1, 338626, Control_c, 0, 64, 127
1, 338626, Control_c, 0, 67, 100
1, 338641, Control_c, 0, 67, 84
1, 338656, Control_c, 0, 67, 69
1, 338671, Control_c, 0, 67, 55
1, 338686, Control_c, 0, 67, 37
1, 338700, Control_c, 0, 67, 20
1, 338715, Control_c, 0, 67, 0
1, 338728, Note_off_c, 0, 41, 39
1, 338736, Note_on_c, 0, 53, 43
1, 338788, Note_off_c, 0, 53, 56
1, 338929, Note_on_c, 0, 53, 45
1, 338976, Note_off_c, 0, 53, 58
1, 339076, Note_off_c, 0, 60, 43
1, 339091, Note_off_c, 0, 69, 61
1, 339111, Note_on_c, 0, 53, 44
1, 339156, Note_off_c, 0, 53, 54
1, 339296, Note_on_c, 0, 53, 43
1, 339338, Note_off_c, 0, 53, 58
1, 339491, Note_on_c, 0, 53, 43
1, 339492, Note_on_c, 0, 70, 60
1, 339504, Note_on_c, 0, 62, 40
1, 339539, Note_off_c, 0, 62, 52
1, 339542, Note_off_c, 0, 53, 51
1, 339669, Note_off_c, 0, 70, 60
1, 339680, Note_on_c, 0, 72, 71
1, 339684, Note_on_c, 0, 53, 45
1, 339691, Note_on_c, 0, 63, 54
1, 339727, Note_off_c, 0, 53, 56
1, 339761, Note_off_c, 0, 63, 52
1, 339851, Note_on_c, 0, 74, 77
1, 339874, Note_off_c, 0, 72, 36
1, 339875, Note_on_c, 0, 65, 63
1, 339883, Note_on_c, 0, 53, 42
1, 339903, Note_off_c, 0, 65, 58
1, 339922, Note_off_c, 0, 53, 48
1, 339923, Note_off_c, 0, 74, 60
1, 340050, Control_c, 0, 64, 90
1, 340065, Control_c, 0, 64, 67
1, 340068, Note_on_c, 0, 53, 37
1, 340080, Control_c, 0, 64, 45
1, 340088, Note_on_c, 0, 75, 65
1, 340095, Control_c, 0, 64, 0
1, 340107, Note_on_c, 0, 67, 40
1, 340110, Control_c, 0, 67, 22
1, 340124, Control_c, 0, 64, 36
1, 340124, Control_c, 0, 67, 26
1, 340133, Note_off_c, 0, 53, 51
1, 340139, Control_c, 0, 64, 46
1, 340139, Control_c, 0, 67, 31
1, 340154, Control_c, 0, 64, 57
1, 340154, Control_c, 0, 67, 38
1, 340159, Note_off_c, 0, 67, 55
1, 340169, Control_c, 0, 64, 64
1, 340169, Control_c, 0, 67, 48
1, 340183, Control_c, 0, 64, 68
1, 340183, Control_c, 0, 67, 64
1, 340194, Note_off_c, 0, 75, 57
1, 340198, Control_c, 0, 64, 73
1, 340198, Control_c, 0, 67, 79
1, 340213, Control_c, 0, 64, 76
1, 340213, Control_c, 0, 67, 96
1, 340228, Control_c, 0, 64, 78
1, 340228, Control_c, 0, 67, 108
1, 340243, Control_c, 0, 64, 80
1, 340243, Control_c, 0, 67, 117
1, 340257, Control_c, 0, 64, 83
1, 340257, Control_c, 0, 67, 124
1, 340272, Control_c, 0, 64, 85
1, 340272, Control_c, 0, 67, 127
1, 340287, Control_c, 0, 64, 87
1, 340298, Note_on_c, 0, 53, 43
1, 340301, Note_on_c, 0, 75, 75
1, 340302, Control_c, 0, 64, 90
1, 340309, Note_on_c, 0, 67, 57
1, 340316, Control_c, 0, 64, 92
1, 340331, Control_c, 0, 64, 94
1, 340339, Note_off_c, 0, 53, 47
1, 340346, Control_c, 0, 64, 95
1, 340361, Control_c, 0, 64, 95
1, 340376, Control_c, 0, 64, 96
1, 340407, Note_off_c, 0, 75, 61
1, 340435, Control_c, 0, 64, 92
1, 340450, Control_c, 0, 64, 78
1, 340465, Control_c, 0, 64, 65
1, 340480, Control_c, 0, 64, 43
1, 340497, Note_on_c, 0, 53, 35
1, 340498, Note_off_c, 0, 67, 61
1, 340502, Note_on_c, 0, 74, 71
1, 340502, Control_c, 0, 64, 0
1, 340512, Note_on_c, 0, 65, 58
1, 340546, Control_c, 0, 64, 44
1, 340554, Note_off_c, 0, 53, 56
1, 340561, Control_c, 0, 64, 59
1, 340568, Note_off_c, 0, 65, 53
1, 340576, Control_c, 0, 64, 65
1, 340590, Control_c, 0, 64, 70
1, 340592, Note_off_c, 0, 74, 56
1, 340605, Control_c, 0, 64, 74
1, 340621, Control_c, 0, 64, 76
1, 340636, Control_c, 0, 64, 77
1, 340651, Control_c, 0, 64, 79
1, 340666, Control_c, 0, 64, 81
1, 340681, Control_c, 0, 64, 83
1, 340693, Note_on_c, 0, 74, 69
1, 340695, Control_c, 0, 64, 84
1, 340697, Note_on_c, 0, 65, 56
1, 340701, Note_on_c, 0, 53, 29
1, 340710, Control_c, 0, 64, 85
1, 340725, Control_c, 0, 64, 86
1, 340729, Note_off_c, 0, 65, 53
1, 340739, Control_c, 0, 64, 87
1, 340742, Note_off_c, 0, 53, 48
1, 340754, Control_c, 0, 64, 87
1, 340799, Control_c, 0, 64, 86
1, 340814, Control_c, 0, 64, 80
1, 340828, Control_c, 0, 64, 70
1, 340843, Control_c, 0, 64, 59
1, 340858, Control_c, 0, 64, 34
1, 340872, Note_on_c, 0, 73, 64
1, 340873, Control_c, 0, 64, 0
1, 340878, Note_on_c, 0, 53, 36
1, 340879, Note_off_c, 0, 74, 56
1, 340888, Control_c, 0, 64, 39
1, 340893, Note_on_c, 0, 64, 35
1, 340903, Control_c, 0, 64, 48
1, 340918, Control_c, 0, 64, 57
1, 340930, Note_off_c, 0, 53, 58
1, 340931, Note_off_c, 0, 64, 51
1, 340933, Control_c, 0, 64, 64
1, 340936, Note_off_c, 0, 73, 57
1, 340947, Control_c, 0, 64, 69
1, 340962, Control_c, 0, 64, 73
1, 340977, Control_c, 0, 64, 76
1, 340992, Control_c, 0, 64, 78
1, 341007, Control_c, 0, 64, 79
1, 341021, Control_c, 0, 64, 80
1, 341036, Control_c, 0, 64, 81
1, 341051, Control_c, 0, 64, 81
1, 341059, Note_on_c, 0, 64, 50
1, 341062, Note_on_c, 0, 53, 42
1, 341064, Note_on_c, 0, 73, 63
1, 341066, Control_c, 0, 64, 82
1, 341082, Control_c, 0, 64, 82
1, 341093, Note_off_c, 0, 64, 51
1, 341096, Control_c, 0, 64, 83
1, 341109, Note_off_c, 0, 53, 53
1, 341111, Control_c, 0, 64, 84
1, 341170, Control_c, 0, 64, 83
1, 341185, Control_c, 0, 64, 77
1, 341200, Control_c, 0, 64, 69
1, 341214, Control_c, 0, 64, 58
1, 341237, Control_c, 0, 64, 0
1, 341251, Note_on_c, 0, 53, 28
1, 341255, Note_on_c, 0, 72, 57
1, 341262, Note_on_c, 0, 63, 50
1, 341262, Note_off_c, 0, 73, 54
1, 341282, Control_c, 0, 64, 38
1, 341296, Control_c, 0, 64, 51
1, 341306, Note_off_c, 0, 63, 55
1, 341311, Control_c, 0, 64, 61
1, 341316, Note_off_c, 0, 72, 53
1, 341322, Note_off_c, 0, 53, 54
1, 341326, Control_c, 0, 64, 66
1, 341340, Control_c, 0, 64, 70
1, 341355, Control_c, 0, 64, 74
1, 341370, Control_c, 0, 64, 75
1, 341385, Control_c, 0, 64, 76
1, 341400, Control_c, 0, 64, 77
1, 341416, Control_c, 0, 64, 78
1, 341431, Control_c, 0, 64, 79
1, 341452, Note_on_c, 0, 72, 57
1, 341459, Note_on_c, 0, 53, 35
1, 341463, Note_on_c, 0, 63, 41
1, 341500, Note_off_c, 0, 53, 48
1, 341552, Note_off_c, 0, 63, 54
1, 341563, Control_c, 0, 64, 76
1, 341578, Control_c, 0, 64, 70
1, 341593, Control_c, 0, 64, 62
1, 341608, Control_c, 0, 64, 42
1, 341623, Control_c, 0, 64, 0
1, 341629, Note_off_c, 0, 72, 36
1, 341644, Note_on_c, 0, 53, 37
1, 341650, Note_on_c, 0, 71, 48
1, 341667, Control_c, 0, 64, 38
1, 341670, Note_on_c, 0, 62, 28
1, 341682, Control_c, 0, 64, 51
1, 341696, Control_c, 0, 64, 61
1, 341705, Note_off_c, 0, 53, 54
1, 341711, Control_c, 0, 64, 65
1, 341726, Control_c, 0, 64, 69
1, 341731, Note_off_c, 0, 71, 52
1, 341741, Control_c, 0, 64, 71
1, 341744, Note_off_c, 0, 62, 54
1, 341756, Control_c, 0, 64, 72
1, 341770, Control_c, 0, 64, 73
1, 341785, Control_c, 0, 64, 74
1, 341800, Control_c, 0, 64, 74
1, 341815, Control_c, 0, 64, 75
1, 341852, Note_on_c, 0, 53, 37
1, 341867, Note_on_c, 0, 62, 32
1, 341870, Note_on_c, 0, 71, 43
1, 341901, Note_off_c, 0, 62, 46
1, 341903, Note_off_c, 0, 53, 44
1, 341963, Control_c, 0, 64, 74
1, 341978, Control_c, 0, 64, 71
1, 342000, Control_c, 0, 64, 64
1, 342015, Control_c, 0, 64, 53
1, 342030, Control_c, 0, 64, 33
1, 342045, Control_c, 0, 64, 0
1, 342056, Note_on_c, 0, 53, 38
1, 342058, Note_off_c, 0, 71, 45
1, 342059, Note_on_c, 0, 70, 49
1, 342060, Control_c, 0, 64, 40
1, 342066, Note_on_c, 0, 61, 38
1, 342074, Control_c, 0, 64, 49
1, 342089, Control_c, 0, 64, 58
1, 342104, Control_c, 0, 64, 63
1, 342107, Note_off_c, 0, 53, 58
1, 342117, Note_off_c, 0, 61, 50
1, 342117, Note_off_c, 0, 70, 54
1, 342119, Control_c, 0, 64, 67
1, 342134, Control_c, 0, 64, 70
1, 342149, Control_c, 0, 64, 72
1, 342163, Control_c, 0, 64, 73
1, 342178, Control_c, 0, 64, 73
1, 342224, Control_c, 0, 64, 74
1, 342263, Note_on_c, 0, 53, 28
1, 342269, Note_on_c, 0, 70, 45
1, 342272, Note_on_c, 0, 61, 20
1, 342298, Control_c, 0, 64, 74
1, 342305, Note_off_c, 0, 53, 47
1, 342365, Note_off_c, 0, 70, 47
1, 342422, Note_off_c, 0, 61, 36
1, 342431, Control_c, 0, 64, 74
1, 342475, Control_c, 0, 64, 73
1, 342490, Control_c, 0, 64, 72
1, 342505, Control_c, 0, 64, 70
1, 342519, Control_c, 0, 64, 68
1, 342534, Control_c, 0, 64, 64
1, 342549, Note_on_c, 0, 53, 28
1, 342549, Control_c, 0, 64, 54
1, 342551, Note_on_c, 0, 69, 37
1, 342558, Note_on_c, 0, 60, 37
1, 342564, Control_c, 0, 64, 36
1, 342578, Control_c, 0, 64, 0
1, 342653, Control_c, 0, 64, 35
1, 342667, Control_c, 0, 64, 53
1, 342682, Control_c, 0, 64, 63
1, 342697, Control_c, 0, 64, 67
1, 342711, Control_c, 0, 64, 70
1, 342726, Control_c, 0, 64, 72
1, 342748, Control_c, 0, 64, 74
1, 342763, Control_c, 0, 64, 76
1, 342778, Control_c, 0, 64, 78
1, 342793, Control_c, 0, 64, 81
1, 342793, Control_c, 0, 67, 125
1, 342808, Control_c, 0, 64, 83
1, 342808, Control_c, 0, 67, 106
1, 342823, Control_c, 0, 64, 85
1, 342823, Control_c, 0, 67, 83
1, 342824, Note_off_c, 0, 69, 56
1, 342838, Control_c, 0, 64, 86
1, 342838, Control_c, 0, 67, 61
1, 342852, Control_c, 0, 64, 87
1, 342852, Control_c, 0, 67, 41
1, 342855, Note_off_c, 0, 53, 37
1, 342861, Note_off_c, 0, 60, 64
1, 342867, Control_c, 0, 67, 19
1, 342882, Control_c, 0, 64, 87
1, 342882, Control_c, 0, 67, 0
1, 342897, Control_c, 0, 64, 88
1, 342985, Control_c, 0, 64, 86
1, 343000, Control_c, 0, 64, 80
1, 343016, Control_c, 0, 64, 72
1, 343031, Control_c, 0, 64, 63
1, 343046, Control_c, 0, 64, 43
1, 343061, Control_c, 0, 64, 0
1, 343442, Note_on_c, 0, 62, 55
1, 343453, Note_on_c, 0, 46, 31
1, 343454, Note_on_c, 0, 50, 32
1, 343455, Note_on_c, 0, 53, 45
1, 343587, Control_c, 0, 64, 39
1, 343602, Control_c, 0, 64, 50
1, 343616, Control_c, 0, 64, 58
1, 343631, Control_c, 0, 64, 63
1, 343646, Control_c, 0, 64, 68
1, 343660, Control_c, 0, 64, 72
1, 343675, Control_c, 0, 64, 76
1, 343690, Control_c, 0, 64, 80
1, 343705, Control_c, 0, 64, 85
1, 343720, Control_c, 0, 64, 91
1, 343735, Control_c, 0, 64, 96
1, 343750, Control_c, 0, 64, 103
1, 343765, Control_c, 0, 64, 112
1, 343780, Control_c, 0, 64, 127
1, 344147, Note_on_c, 0, 60, 56
1, 344187, Note_off_c, 0, 62, 54
1, 344233, Note_on_c, 0, 58, 58
1, 344243, Note_off_c, 0, 60, 54
1, 344291, Control_c, 0, 64, 117
1, 344306, Control_c, 0, 64, 100
1, 344321, Control_c, 0, 64, 88
1, 344336, Note_on_c, 0, 48, 40
1, 344336, Control_c, 0, 64, 77
1, 344339, Note_off_c, 0, 58, 53
1, 344343, Note_on_c, 0, 57, 48
1, 344343, Note_off_c, 0, 50, 41
1, 344348, Note_on_c, 0, 51, 34
1, 344351, Control_c, 0, 64, 65
1, 344365, Control_c, 0, 64, 51
1, 344366, Note_off_c, 0, 46, 42
1, 344380, Control_c, 0, 64, 0
1, 344483, Control_c, 0, 64, 34
1, 344498, Control_c, 0, 64, 50
1, 344513, Control_c, 0, 64, 61
1, 344528, Control_c, 0, 64, 65
1, 344531, Note_off_c, 0, 53, 40
1, 344543, Control_c, 0, 64, 70
1, 344558, Control_c, 0, 64, 73
1, 344572, Control_c, 0, 64, 77
1, 344587, Control_c, 0, 64, 82
1, 344602, Control_c, 0, 64, 86
1, 344618, Control_c, 0, 64, 91
1, 344629, Note_off_c, 0, 48, 35
1, 344633, Control_c, 0, 64, 97
1, 344648, Control_c, 0, 64, 104
1, 344662, Control_c, 0, 64, 110
1, 344677, Control_c, 0, 64, 115
1, 344692, Control_c, 0, 64, 119
1, 344694, Note_off_c, 0, 51, 38
1, 344703, Note_off_c, 0, 57, 62
1, 344722, Control_c, 0, 64, 122
1, 344796, Control_c, 0, 64, 109
1, 344811, Control_c, 0, 64, 93
1, 344826, Control_c, 0, 64, 78
1, 344841, Control_c, 0, 64, 64
1, 344855, Control_c, 0, 64, 48
1, 344870, Control_c, 0, 64, 0
1, 345165, Note_on_c, 0, 69, 64
1, 345277, Note_on_c, 0, 75, 74
1, 345330, Note_off_c, 0, 69, 56
1, 345529, Control_c, 0, 64, 52
1, 345544, Control_c, 0, 64, 63
1, 345559, Control_c, 0, 64, 66
1, 345573, Control_c, 0, 64, 69
1, 345588, Control_c, 0, 64, 74
1, 345602, Control_c, 0, 64, 82
1, 345617, Control_c, 0, 64, 92
1, 345632, Control_c, 0, 64, 111
1, 345647, Control_c, 0, 64, 127
1, 345920, Note_on_c, 0, 72, 68
1, 346011, Note_on_c, 0, 69, 65
1, 346096, Note_on_c, 0, 58, 37
1, 346109, Note_on_c, 0, 50, 39
1, 346128, Note_on_c, 0, 77, 74
1, 346143, Control_c, 0, 64, 107
1, 346158, Control_c, 0, 64, 97
1, 346173, Control_c, 0, 64, 89
1, 346182, Note_off_c, 0, 72, 59
1, 346188, Control_c, 0, 64, 82
1, 346203, Control_c, 0, 64, 75
1, 346206, Note_off_c, 0, 69, 58
1, 346209, Note_off_c, 0, 75, 61
1, 346218, Control_c, 0, 64, 69
1, 346233, Control_c, 0, 64, 60
1, 346248, Control_c, 0, 64, 43
1, 346263, Control_c, 0, 64, 0
1, 346430, Note_on_c, 0, 74, 63
1, 346503, Note_off_c, 0, 77, 41
1, 346555, Note_on_c, 0, 70, 66
1, 346555, Note_off_c, 0, 74, 63
1, 346626, Control_c, 0, 64, 37
1, 346641, Control_c, 0, 64, 55
1, 346656, Control_c, 0, 64, 64
1, 346671, Control_c, 0, 64, 69
1, 346685, Control_c, 0, 64, 75
1, 346700, Control_c, 0, 64, 82
1, 346715, Control_c, 0, 64, 89
1, 346730, Control_c, 0, 64, 98
1, 346745, Control_c, 0, 64, 108
1, 346759, Control_c, 0, 64, 127
1, 346929, Note_on_c, 0, 51, 40
1, 346945, Note_off_c, 0, 50, 39
1, 346993, Note_off_c, 0, 70, 23
1, 347062, Note_on_c, 0, 69, 51
1, 347097, Note_off_c, 0, 69, 65
1, 347111, Note_on_c, 0, 70, 64
1, 347166, Note_on_c, 0, 69, 64
1, 347169, Note_off_c, 0, 70, 63
1, 347175, Control_c, 0, 64, 112
1, 347189, Note_off_c, 0, 69, 68
1, 347190, Control_c, 0, 64, 99
1, 347205, Control_c, 0, 64, 88
1, 347209, Note_on_c, 0, 67, 60
1, 347220, Control_c, 0, 64, 78
1, 347241, Control_c, 0, 64, 67
1, 347252, Note_off_c, 0, 67, 60
1, 347255, Note_on_c, 0, 69, 63
1, 347256, Control_c, 0, 64, 55
1, 347271, Control_c, 0, 64, 0
1, 347333, Note_off_c, 0, 69, 63
1, 347348, Note_on_c, 0, 72, 63
1, 347479, Control_c, 0, 64, 42
1, 347494, Control_c, 0, 64, 55
1, 347508, Control_c, 0, 64, 62
1, 347523, Control_c, 0, 64, 66
1, 347538, Control_c, 0, 64, 69
1, 347547, Note_on_c, 0, 70, 68
1, 347553, Control_c, 0, 64, 72
1, 347568, Control_c, 0, 64, 76
1, 347582, Control_c, 0, 64, 81
1, 347597, Control_c, 0, 64, 85
1, 347612, Control_c, 0, 64, 89
1, 347626, Control_c, 0, 64, 92
1, 347641, Control_c, 0, 64, 94
1, 347656, Control_c, 0, 64, 94
1, 347671, Control_c, 0, 64, 95
1, 347686, Control_c, 0, 64, 96
1, 347754, Note_on_c, 0, 55, 51
1, 347761, Note_on_c, 0, 69, 68
1, 347820, Control_c, 0, 64, 95
1, 347821, Note_off_c, 0, 72, 37
1, 347835, Control_c, 0, 64, 95
1, 347849, Control_c, 0, 64, 93
1, 347864, Control_c, 0, 64, 89
1, 347879, Control_c, 0, 64, 82
1, 347894, Control_c, 0, 64, 74
1, 347909, Control_c, 0, 64, 65
1, 347923, Control_c, 0, 64, 48
1, 347936, Note_off_c, 0, 70, 22
1, 347938, Control_c, 0, 64, 0
1, 347950, Note_on_c, 0, 67, 75
1, 348049, Note_off_c, 0, 69, 52
1, 348101, Note_off_c, 0, 58, 43
1, 348124, Control_c, 0, 64, 39
1, 348138, Control_c, 0, 64, 52
1, 348153, Control_c, 0, 64, 62
1, 348155, Note_off_c, 0, 67, 64
1, 348162, Note_on_c, 0, 65, 76
1, 348168, Control_c, 0, 64, 66
1, 348183, Control_c, 0, 64, 69
1, 348198, Control_c, 0, 64, 72
1, 348212, Control_c, 0, 64, 76
1, 348227, Control_c, 0, 64, 81
1, 348242, Control_c, 0, 64, 85
1, 348257, Control_c, 0, 64, 90
1, 348272, Control_c, 0, 64, 94
1, 348287, Control_c, 0, 64, 96
1, 348302, Control_c, 0, 64, 98
1, 348331, Control_c, 0, 64, 100
1, 348344, Note_on_c, 0, 63, 79
1, 348394, Note_off_c, 0, 65, 58
1, 348405, Control_c, 0, 64, 102
1, 348553, Control_c, 0, 64, 100
1, 348583, Control_c, 0, 64, 96
1, 348600, Control_c, 0, 64, 94
1, 348606, Note_on_c, 0, 58, 40
1, 348615, Control_c, 0, 64, 90
1, 348616, Note_on_c, 0, 53, 44
1, 348629, Control_c, 0, 64, 82
1, 348631, Note_on_c, 0, 62, 76
1, 348644, Control_c, 0, 64, 72
1, 348659, Control_c, 0, 64, 61
1, 348673, Control_c, 0, 64, 0
1, 348695, Note_off_c, 0, 63, 58
1, 348698, Note_off_c, 0, 51, 58
1, 348715, Note_off_c, 0, 55, 61
1, 348814, Control_c, 0, 64, 48
1, 348829, Control_c, 0, 64, 62
1, 348844, Control_c, 0, 64, 68
1, 348859, Control_c, 0, 64, 75
1, 348870, Note_off_c, 0, 53, 56
1, 348874, Control_c, 0, 64, 83
1, 348874, Note_off_c, 0, 58, 52
1, 348885, Note_on_c, 0, 65, 82
1, 348888, Control_c, 0, 64, 94
1, 348903, Control_c, 0, 64, 124
1, 348918, Control_c, 0, 64, 127
1, 348989, Note_off_c, 0, 65, 62
1, 349183, Note_on_c, 0, 65, 84
1, 349241, Note_off_c, 0, 62, 58
1, 349600, Poly_aftertouch_c, 0, 62, 127
1, 349650, Note_on_c, 0, 58, 68
1, 349669, Note_on_c, 0, 41, 55
1, 349687, Note_on_c, 0, 50, 44
1, 349695, Control_c, 0, 64, 106
1, 349710, Control_c, 0, 64, 79
1, 349725, Control_c, 0, 64, 61
1, 349740, Control_c, 0, 64, 35
1, 349755, Control_c, 0, 64, 0
1, 349769, Control_c, 0, 64, 38
1, 349784, Control_c, 0, 64, 52
1, 349799, Control_c, 0, 64, 61
1, 349814, Control_c, 0, 64, 68
1, 349820, Note_off_c, 0, 65, 56
1, 349828, Control_c, 0, 64, 78
1, 349829, Poly_aftertouch_c, 0, 62, 0
1, 349843, Control_c, 0, 64, 98
1, 349858, Control_c, 0, 64, 127
1, 349867, Poly_aftertouch_c, 0, 62, 127
1, 349950, Note_on_c, 0, 65, 81
1, 350178, Note_on_c, 0, 67, 77
1, 350234, Note_off_c, 0, 65, 59
1, 350387, Note_on_c, 0, 65, 84
1, 350391, Poly_aftertouch_c, 0, 62, 0
1, 350418, Note_off_c, 0, 67, 62
1, 350427, Poly_aftertouch_c, 0, 62, 127
1, 350460, Note_off_c, 0, 58, 50
1, 350488, Note_off_c, 0, 65, 60
1, 350616, Note_on_c, 0, 48, 49
1, 350660, Note_on_c, 0, 65, 70
1, 350671, Note_on_c, 0, 57, 50
1, 350680, Poly_aftertouch_c, 0, 62, 0
1, 350865, Note_off_c, 0, 50, 53
1, 350868, Note_on_c, 0, 63, 76
1, 350918, Control_c, 0, 64, 103
1, 350933, Control_c, 0, 64, 94
1, 350948, Control_c, 0, 64, 87
1, 350963, Note_off_c, 0, 65, 52
1, 350963, Control_c, 0, 64, 80
1, 350984, Control_c, 0, 64, 73
1, 351001, Control_c, 0, 64, 66
1, 351016, Control_c, 0, 64, 56
1, 351030, Control_c, 0, 64, 43
1, 351045, Control_c, 0, 64, 0
1, 351119, Note_on_c, 0, 62, 78
1, 351169, Note_off_c, 0, 63, 61
1, 351223, Control_c, 0, 64, 52
1, 351238, Control_c, 0, 64, 64
1, 351253, Control_c, 0, 64, 70
1, 351268, Control_c, 0, 64, 78
1, 351282, Control_c, 0, 64, 85
1, 351297, Control_c, 0, 64, 94
1, 351312, Control_c, 0, 64, 111
1, 351327, Control_c, 0, 64, 127
1, 351358, Note_off_c, 0, 41, 31
1, 351408, Note_on_c, 0, 63, 83
1, 351435, Note_off_c, 0, 48, 35
1, 351448, Note_off_c, 0, 57, 53
1, 351546, Note_off_c, 0, 63, 61
1, 351980, Note_on_c, 0, 63, 75
1, 351989, Note_on_c, 0, 57, 48
1, 351996, Note_on_c, 0, 48, 36
1, 351999, Note_on_c, 0, 42, 44
1, 352105, Control_c, 0, 64, 106
1, 352120, Control_c, 0, 64, 92
1, 352128, Note_off_c, 0, 62, 58
1, 352135, Control_c, 0, 64, 80
1, 352150, Control_c, 0, 64, 69
1, 352165, Control_c, 0, 64, 59
1, 352180, Control_c, 0, 64, 37
1, 352195, Control_c, 0, 64, 0
1, 352313, Control_c, 0, 64, 39
1, 352328, Control_c, 0, 64, 53
1, 352342, Control_c, 0, 64, 63
1, 352357, Control_c, 0, 64, 67
1, 352372, Control_c, 0, 64, 71
1, 352387, Control_c, 0, 64, 75
1, 352402, Control_c, 0, 64, 78
1, 352416, Control_c, 0, 64, 82
1, 352431, Control_c, 0, 64, 87
1, 352446, Control_c, 0, 64, 95
1, 352469, Control_c, 0, 64, 106
1, 352484, Control_c, 0, 64, 127
1, 353110, Note_on_c, 0, 62, 43
1, 353125, Note_on_c, 0, 58, 34
1, 353153, Note_on_c, 0, 46, 35
1, 353154, Note_on_c, 0, 43, 27
1, 353188, Note_off_c, 0, 42, 40
1, 353209, Control_c, 0, 64, 109
1, 353232, Control_c, 0, 64, 100
1, 353244, Note_off_c, 0, 63, 36
1, 353247, Control_c, 0, 64, 91
1, 353261, Control_c, 0, 64, 82
1, 353276, Control_c, 0, 64, 73
1, 353291, Control_c, 0, 64, 64
1, 353306, Control_c, 0, 64, 50
1, 353309, Note_off_c, 0, 48, 40
1, 353320, Control_c, 0, 64, 0
1, 353360, Note_off_c, 0, 57, 38
1, 353455, Control_c, 0, 64, 33
1, 353469, Control_c, 0, 64, 40
1, 353484, Control_c, 0, 64, 47
1, 353499, Control_c, 0, 64, 54
1, 353514, Control_c, 0, 64, 61
1, 353529, Control_c, 0, 64, 64
1, 353543, Control_c, 0, 64, 66
1, 353558, Control_c, 0, 64, 69
1, 353573, Control_c, 0, 64, 72
1, 353588, Control_c, 0, 64, 75
1, 353602, Control_c, 0, 64, 79
1, 353617, Control_c, 0, 64, 82
1, 353632, Control_c, 0, 64, 86
1, 353647, Control_c, 0, 64, 90
1, 353662, Control_c, 0, 64, 94
1, 353676, Control_c, 0, 64, 98
1, 353691, Control_c, 0, 64, 101
1, 353706, Control_c, 0, 64, 103
1, 353721, Control_c, 0, 64, 105
1, 353932, Note_off_c, 0, 46, 39
1, 353974, Note_off_c, 0, 62, 36
1, 353984, Note_off_c, 0, 43, 38
1, 354052, Note_off_c, 0, 58, 40
1, 354070, Control_c, 0, 64, 101
1, 354099, Control_c, 0, 64, 98
1, 354114, Control_c, 0, 64, 95
1, 354129, Control_c, 0, 64, 93
1, 354144, Control_c, 0, 64, 91
1, 354159, Control_c, 0, 64, 89
1, 354174, Control_c, 0, 64, 87
1, 354189, Control_c, 0, 64, 84
1, 354204, Control_c, 0, 64, 78
1, 354219, Control_c, 0, 64, 72
1, 354234, Control_c, 0, 64, 65
1, 354248, Control_c, 0, 64, 56
1, 354263, Control_c, 0, 64, 41
1, 354278, Control_c, 0, 64, 0
1, 354367, Control_c, 0, 64, 42
1, 354382, Control_c, 0, 64, 50
1, 354397, Control_c, 0, 64, 57
1, 354411, Control_c, 0, 64, 64
1, 354426, Control_c, 0, 64, 67
1, 354441, Control_c, 0, 64, 72
1, 354456, Control_c, 0, 64, 76
1, 354471, Control_c, 0, 64, 79
1, 354486, Control_c, 0, 64, 83
1, 354500, Control_c, 0, 64, 89
1, 354515, Control_c, 0, 64, 94
1, 354530, Control_c, 0, 64, 100
1, 354544, Control_c, 0, 64, 105
1, 354559, Control_c, 0, 64, 111
1, 354574, Control_c, 0, 64, 115
1, 354589, Control_c, 0, 64, 119
1, 354604, Control_c, 0, 64, 127
1, 354969, Note_on_c, 0, 50, 38
1, 354970, Note_on_c, 0, 34, 33
1, 354973, Note_on_c, 0, 41, 31
1, 354982, Control_c, 0, 64, 124
1, 354997, Control_c, 0, 64, 109
1, 355012, Control_c, 0, 64, 97
1, 355027, Control_c, 0, 64, 86
1, 355041, Control_c, 0, 64, 74
1, 355056, Control_c, 0, 64, 65
1, 355071, Control_c, 0, 64, 54
1, 355086, Control_c, 0, 64, 45
1, 355101, Control_c, 0, 64, 48
1, 355116, Control_c, 0, 64, 52
1, 355131, Control_c, 0, 64, 56
1, 355146, Control_c, 0, 64, 59
1, 355160, Control_c, 0, 64, 64
1, 355175, Control_c, 0, 64, 69
1, 355190, Control_c, 0, 64, 74
1, 355205, Control_c, 0, 64, 80
1, 355220, Control_c, 0, 64, 83
1, 355234, Control_c, 0, 64, 86
1, 355249, Control_c, 0, 64, 89
1, 355264, Control_c, 0, 64, 93
1, 355279, Control_c, 0, 64, 97
1, 355294, Control_c, 0, 64, 100
1, 355323, Control_c, 0, 64, 102
1, 355337, Note_off_c, 0, 34, 38
1, 355367, Control_c, 0, 64, 104
1, 355779, Note_on_c, 0, 48, 35
1, 355790, Note_on_c, 0, 36, 20
1, 355805, Control_c, 0, 64, 100
1, 355819, Note_off_c, 0, 50, 32
1, 355820, Control_c, 0, 64, 96
1, 355835, Control_c, 0, 64, 91
1, 355839, Note_off_c, 0, 48, 53
1, 355850, Control_c, 0, 64, 86
1, 355852, Note_off_c, 0, 36, 42
1, 355864, Control_c, 0, 64, 80
1, 355866, Note_on_c, 0, 38, 37
1, 355868, Note_on_c, 0, 46, 38
1, 355879, Control_c, 0, 64, 74
1, 355894, Control_c, 0, 64, 67
1, 355909, Control_c, 0, 64, 61
1, 355924, Control_c, 0, 64, 53
1, 355936, Note_off_c, 0, 38, 52
1, 355939, Control_c, 0, 64, 48
1, 355939, Note_off_c, 0, 46, 50
1, 355954, Control_c, 0, 64, 46
1, 355972, Note_on_c, 0, 45, 32
1, 355983, Control_c, 0, 64, 45
1, 355989, Note_on_c, 0, 39, 26
1, 355998, Control_c, 0, 64, 42
1, 356013, Control_c, 0, 64, 38
1, 356028, Control_c, 0, 64, 0
1, 356177, Control_c, 0, 64, 34
1, 356191, Control_c, 0, 64, 44
1, 356213, Control_c, 0, 64, 52
1, 356228, Control_c, 0, 64, 60
1, 356243, Control_c, 0, 64, 64
1, 356258, Control_c, 0, 64, 68
1, 356273, Control_c, 0, 64, 72
1, 356287, Control_c, 0, 64, 75
1, 356302, Control_c, 0, 64, 78
1, 356317, Control_c, 0, 64, 80
1, 356332, Control_c, 0, 64, 83
1, 356347, Control_c, 0, 64, 86
1, 356362, Control_c, 0, 64, 89
1, 356362, Note_off_c, 0, 41, 3
1, 356377, Control_c, 0, 64, 92
1, 356391, Control_c, 0, 64, 94
1, 356406, Control_c, 0, 64, 95
1, 356419, Note_off_c, 0, 45, 49
1, 356421, Control_c, 0, 64, 95
1, 356430, Note_off_c, 0, 39, 37
1, 356465, Control_c, 0, 64, 94
1, 356480, Control_c, 0, 64, 91
1, 356495, Control_c, 0, 64, 82
1, 356510, Control_c, 0, 64, 74
1, 356524, Control_c, 0, 64, 66
1, 356539, Control_c, 0, 64, 56
1, 356554, Control_c, 0, 64, 41
1, 356569, Control_c, 0, 64, 0
1, 356872, Note_on_c, 0, 57, 48
1, 356946, Note_off_c, 0, 57, 46
1, 356988, Note_on_c, 0, 63, 47
1, 357081, Control_c, 0, 64, 36
1, 357095, Control_c, 0, 64, 41
1, 357110, Control_c, 0, 64, 46
1, 357125, Control_c, 0, 64, 49
1, 357140, Control_c, 0, 64, 52
1, 357155, Control_c, 0, 64, 56
1, 357170, Control_c, 0, 64, 62
1, 357185, Control_c, 0, 64, 66
1, 357200, Control_c, 0, 64, 71
1, 357214, Control_c, 0, 64, 76
1, 357229, Control_c, 0, 64, 82
1, 357244, Control_c, 0, 64, 87
1, 357258, Control_c, 0, 64, 92
1, 357273, Control_c, 0, 64, 98
1, 357288, Control_c, 0, 64, 107
1, 357303, Control_c, 0, 64, 120
1, 357318, Control_c, 0, 64, 127
1, 357623, Note_on_c, 0, 60, 48
1, 357716, Note_on_c, 0, 57, 54
1, 357787, Note_on_c, 0, 50, 33
1, 357799, Control_c, 0, 64, 105
1, 357805, Note_on_c, 0, 53, 22
1, 357814, Control_c, 0, 64, 92
1, 357826, Note_off_c, 0, 60, 20
1, 357827, Note_on_c, 0, 65, 47
1, 357829, Control_c, 0, 64, 80
1, 357840, Note_off_c, 0, 57, 37
1, 357843, Control_c, 0, 64, 69
1, 357858, Control_c, 0, 64, 59
1, 357867, Note_off_c, 0, 63, 42
1, 357873, Control_c, 0, 64, 40
1, 357888, Control_c, 0, 64, 0
1, 358106, Note_off_c, 0, 65, 49
1, 358115, Note_on_c, 0, 62, 44
1, 358200, Control_c, 0, 64, 40
1, 358213, Note_off_c, 0, 62, 56
1, 358215, Control_c, 0, 64, 49
1, 358219, Note_on_c, 0, 58, 47
1, 358230, Control_c, 0, 64, 56
1, 358245, Control_c, 0, 64, 63
1, 358259, Control_c, 0, 64, 68
1, 358274, Control_c, 0, 64, 73
1, 358289, Control_c, 0, 64, 78
1, 358291, Note_off_c, 0, 50, 40
1, 358304, Control_c, 0, 64, 82
1, 358318, Control_c, 0, 64, 85
1, 358320, Note_off_c, 0, 53, 40
1, 358321, Note_off_c, 0, 58, 61
1, 358333, Control_c, 0, 64, 88
1, 358348, Control_c, 0, 64, 90
1, 358363, Control_c, 0, 64, 90
1, 358392, Control_c, 0, 64, 90
1, 358407, Control_c, 0, 64, 87
1, 358422, Control_c, 0, 64, 82
1, 358437, Control_c, 0, 64, 75
1, 358452, Control_c, 0, 64, 68
1, 358474, Control_c, 0, 64, 63
1, 358489, Control_c, 0, 64, 56
1, 358504, Control_c, 0, 64, 50
1, 358518, Control_c, 0, 64, 45
1, 358533, Control_c, 0, 64, 41
1, 358548, Control_c, 0, 64, 39
1, 358563, Control_c, 0, 64, 36
1, 358578, Control_c, 0, 64, 33
1, 358592, Control_c, 0, 64, 0
1, 358810, Note_on_c, 0, 62, 27
1, 358815, Control_c, 0, 64, 34
1, 358821, Note_on_c, 0, 77, 34
1, 358830, Control_c, 0, 64, 36
1, 358836, Note_on_c, 0, 65, 7
1, 358845, Control_c, 0, 64, 38
1, 358859, Control_c, 0, 64, 42
1, 358874, Control_c, 0, 64, 46
1, 358889, Control_c, 0, 64, 49
1, 358904, Control_c, 0, 64, 52
1, 358918, Control_c, 0, 64, 54
1, 358933, Control_c, 0, 64, 57
1, 358948, Control_c, 0, 64, 60
1, 358963, Control_c, 0, 64, 64
1, 358979, Control_c, 0, 64, 66
1, 358994, Control_c, 0, 64, 70
1, 359008, Control_c, 0, 64, 73
1, 359023, Control_c, 0, 64, 76
1, 359038, Control_c, 0, 64, 79
1, 359054, Control_c, 0, 64, 82
1, 359069, Control_c, 0, 64, 85
1, 359083, Control_c, 0, 64, 88
1, 359098, Control_c, 0, 64, 89
1, 359113, Control_c, 0, 64, 90
1, 359157, Control_c, 0, 64, 91
1, 359260, Note_on_c, 0, 74, 39
1, 359268, Control_c, 0, 64, 90
1, 359298, Control_c, 0, 64, 90
1, 359313, Control_c, 0, 64, 89
1, 359328, Control_c, 0, 64, 88
1, 359342, Control_c, 0, 64, 88
1, 359357, Control_c, 0, 64, 87
1, 359372, Control_c, 0, 64, 85
1, 359387, Control_c, 0, 64, 83
1, 359395, Note_off_c, 0, 77, 38
1, 359402, Control_c, 0, 64, 80
1, 359409, Note_on_c, 0, 71, 41
1, 359416, Control_c, 0, 64, 75
1, 359431, Control_c, 0, 64, 70
1, 359446, Note_off_c, 0, 74, 30
1, 359446, Control_c, 0, 64, 64
1, 359461, Control_c, 0, 64, 57
1, 359476, Control_c, 0, 64, 46
1, 359490, Control_c, 0, 64, 34
1, 359505, Control_c, 0, 64, 0
1, 359564, Control_c, 0, 64, 36
1, 359579, Control_c, 0, 64, 45
1, 359594, Control_c, 0, 64, 52
1, 359608, Control_c, 0, 64, 57
1, 359623, Control_c, 0, 64, 62
1, 359638, Control_c, 0, 64, 66
1, 359653, Control_c, 0, 64, 70
1, 359668, Control_c, 0, 64, 72
1, 359683, Control_c, 0, 64, 75
1, 359698, Control_c, 0, 64, 77
1, 359712, Control_c, 0, 64, 79
1, 359722, Note_off_c, 0, 62, 36
1, 359727, Control_c, 0, 64, 82
1, 359736, Note_off_c, 0, 65, 39
1, 359742, Control_c, 0, 64, 85
1, 359757, Control_c, 0, 64, 87
1, 359772, Control_c, 0, 64, 89
1, 359787, Control_c, 0, 64, 91
1, 359801, Control_c, 0, 64, 94
1, 359808, Note_off_c, 0, 71, 37
1, 359816, Control_c, 0, 64, 95
1, 359845, Control_c, 0, 64, 98
1, 359874, Control_c, 0, 64, 101
1, 359919, Control_c, 0, 64, 103
1, 360089, Control_c, 0, 64, 101
1, 360119, Control_c, 0, 64, 97
1, 360134, Control_c, 0, 64, 95
1, 360149, Control_c, 0, 64, 93
1, 360163, Control_c, 0, 64, 90
1, 360178, Control_c, 0, 64, 86
1, 360193, Control_c, 0, 64, 82
1, 360208, Control_c, 0, 64, 78
1, 360223, Control_c, 0, 64, 73
1, 360237, Control_c, 0, 64, 69
1, 360252, Control_c, 0, 64, 66
1, 360267, Control_c, 0, 64, 62
1, 360282, Control_c, 0, 64, 57
1, 360297, Control_c, 0, 64, 54
1, 360312, Control_c, 0, 64, 53
1, 360327, Control_c, 0, 64, 52
1, 360341, Control_c, 0, 64, 51
1, 360356, Control_c, 0, 64, 49
1, 360371, Control_c, 0, 64, 47
1, 360386, Control_c, 0, 64, 44
1, 360401, Control_c, 0, 64, 41
1, 360416, Control_c, 0, 64, 38
1, 360430, Control_c, 0, 64, 35
1, 360445, Control_c, 0, 64, 0
1, 360683, Control_c, 0, 64, 34
1, 360705, Control_c, 0, 64, 40
1, 360720, Control_c, 0, 64, 46
1, 360735, Control_c, 0, 64, 52
1, 360750, Control_c, 0, 64, 57
1, 360765, Control_c, 0, 64, 60
1, 360779, Control_c, 0, 64, 65
1, 360794, Control_c, 0, 64, 68
1, 360809, Control_c, 0, 64, 73
1, 360824, Control_c, 0, 64, 78
1, 360839, Control_c, 0, 64, 82
1, 360853, Control_c, 0, 64, 87
1, 360868, Control_c, 0, 64, 94
1, 360883, Control_c, 0, 64, 102
1, 360898, Control_c, 0, 64, 115
1, 360912, Control_c, 0, 64, 127
1, 361532, Note_on_c, 0, 51, 73
1, 361556, Note_on_c, 0, 36, 49
1, 361559, Note_on_c, 0, 43, 46
1, 361632, Control_c, 0, 64, 104
1, 361647, Control_c, 0, 64, 83
1, 361662, Control_c, 0, 64, 69
1, 361677, Control_c, 0, 64, 56
1, 361692, Control_c, 0, 64, 43
1, 361707, Control_c, 0, 64, 38
1, 361722, Control_c, 0, 64, 41
1, 361736, Control_c, 0, 64, 49
1, 361751, Control_c, 0, 64, 55
1, 361766, Control_c, 0, 64, 58
1, 361781, Control_c, 0, 64, 63
1, 361796, Control_c, 0, 64, 67
1, 361810, Control_c, 0, 64, 74
1, 361825, Control_c, 0, 64, 81
1, 361840, Control_c, 0, 64, 87
1, 361854, Control_c, 0, 64, 93
1, 361869, Control_c, 0, 64, 100
1, 361884, Control_c, 0, 64, 109
1, 361899, Control_c, 0, 64, 127
1, 362395, Note_on_c, 0, 50, 65
1, 362409, Note_off_c, 0, 36, 49
1, 362413, Note_on_c, 0, 38, 50
1, 362470, Note_off_c, 0, 51, 35
1, 362477, Note_on_c, 0, 48, 67
1, 362502, Note_on_c, 0, 39, 56
1, 362507, Note_off_c, 0, 38, 52
1, 362514, Note_off_c, 0, 50, 60
1, 362544, Control_c, 0, 64, 99
1, 362559, Control_c, 0, 64, 87
1, 362574, Control_c, 0, 64, 76
1, 362589, Control_c, 0, 64, 68
1, 362592, Note_on_c, 0, 47, 68
1, 362593, Note_off_c, 0, 48, 62
1, 362604, Control_c, 0, 64, 60
1, 362604, Note_on_c, 0, 41, 47
1, 362606, Note_off_c, 0, 39, 59
1, 362619, Control_c, 0, 64, 43
1, 362633, Control_c, 0, 64, 0
1, 362766, Control_c, 0, 64, 45
1, 362781, Control_c, 0, 64, 55
1, 362795, Control_c, 0, 64, 63
1, 362810, Control_c, 0, 64, 68
1, 362825, Control_c, 0, 64, 73
1, 362840, Control_c, 0, 64, 78
1, 362855, Control_c, 0, 64, 83
1, 362869, Control_c, 0, 64, 88
1, 362884, Control_c, 0, 64, 94
1, 362899, Control_c, 0, 64, 105
1, 362914, Control_c, 0, 64, 127
1, 363003, Note_off_c, 0, 43, 39
1, 363014, Note_off_c, 0, 41, 33
1, 363048, Note_off_c, 0, 47, 65
1, 363249, Control_c, 0, 64, 116
1, 363263, Control_c, 0, 64, 97
1, 363278, Control_c, 0, 64, 82
1, 363293, Control_c, 0, 64, 72
1, 363307, Control_c, 0, 64, 63
1, 363322, Control_c, 0, 64, 51
1, 363337, Control_c, 0, 64, 37
1, 363352, Control_c, 0, 64, 0
1, 363546, Note_on_c, 0, 59, 62
1, 363629, Note_on_c, 0, 65, 88
1, 363677, Note_off_c, 0, 59, 61
1, 363952, Control_c, 0, 64, 37
1, 363967, Control_c, 0, 64, 48
1, 363982, Control_c, 0, 64, 55
1, 363997, Control_c, 0, 64, 60
1, 364011, Control_c, 0, 64, 65
1, 364026, Control_c, 0, 64, 71
1, 364041, Control_c, 0, 64, 80
1, 364056, Control_c, 0, 64, 91
1, 364071, Control_c, 0, 64, 115
1, 364085, Control_c, 0, 64, 127
1, 364289, Note_on_c, 0, 62, 72
1, 364377, Note_on_c, 0, 59, 71
1, 364463, Note_on_c, 0, 51, 44
1, 364469, Note_on_c, 0, 55, 45
1, 364473, Note_on_c, 0, 67, 84
1, 364499, Note_off_c, 0, 59, 58
1, 364524, Note_off_c, 0, 62, 58
1, 364530, Note_off_c, 0, 65, 59
1, 364598, Control_c, 0, 64, 91
1, 364613, Control_c, 0, 64, 73
1, 364628, Control_c, 0, 64, 61
1, 364643, Control_c, 0, 64, 39
1, 364658, Control_c, 0, 64, 0
1, 364811, Note_on_c, 0, 63, 68
1, 364854, Note_off_c, 0, 67, 61
1, 364909, Note_on_c, 0, 60, 70
1, 364909, Control_c, 0, 64, 41
1, 364924, Control_c, 0, 64, 51
1, 364939, Control_c, 0, 64, 58
1, 364953, Control_c, 0, 64, 64
1, 364954, Note_off_c, 0, 63, 59
1, 364962, Note_off_c, 0, 55, 57
1, 364965, Note_off_c, 0, 51, 37
1, 364968, Control_c, 0, 64, 70
1, 364983, Control_c, 0, 64, 78
1, 364991, Note_off_c, 0, 60, 65
1, 364998, Control_c, 0, 64, 89
1, 365013, Control_c, 0, 64, 108
1, 365027, Control_c, 0, 64, 127
1, 365227, Control_c, 0, 64, 104
1, 365242, Control_c, 0, 64, 89
1, 365257, Control_c, 0, 64, 78
1, 365272, Control_c, 0, 64, 68
1, 365287, Control_c, 0, 64, 61
1, 365302, Control_c, 0, 64, 50
1, 365317, Control_c, 0, 64, 37
1, 365331, Control_c, 0, 64, 0
1, 365520, Note_on_c, 0, 79, 39
1, 365525, Note_on_c, 0, 64, 20
1, 365531, Note_on_c, 0, 67, 22
1, 365599, Control_c, 0, 64, 39
1, 365614, Control_c, 0, 64, 49
1, 365628, Control_c, 0, 64, 58
1, 365643, Control_c, 0, 64, 62
1, 365658, Control_c, 0, 64, 63
1, 365673, Control_c, 0, 64, 64
1, 365688, Control_c, 0, 64, 67
1, 365702, Control_c, 0, 64, 70
1, 365717, Control_c, 0, 64, 74
1, 365732, Control_c, 0, 64, 78
1, 365747, Control_c, 0, 64, 80
1, 365762, Control_c, 0, 64, 81
1, 365776, Control_c, 0, 64, 82
1, 365791, Control_c, 0, 64, 84
1, 365806, Control_c, 0, 64, 84
1, 365982, Note_on_c, 0, 76, 40
1, 366065, Control_c, 0, 64, 83
1, 366080, Control_c, 0, 64, 82
1, 366095, Control_c, 0, 64, 81
1, 366109, Control_c, 0, 64, 80
1, 366124, Control_c, 0, 64, 78
1, 366139, Control_c, 0, 64, 75
1, 366154, Note_on_c, 0, 73, 31
1, 366154, Control_c, 0, 64, 72
1, 366169, Control_c, 0, 64, 68
1, 366185, Control_c, 0, 64, 64
1, 366186, Note_off_c, 0, 76, 37
1, 366199, Control_c, 0, 64, 59
1, 366214, Control_c, 0, 64, 51
1, 366229, Control_c, 0, 64, 45
1, 366244, Control_c, 0, 64, 43
1, 366259, Control_c, 0, 64, 39
1, 366260, Note_off_c, 0, 79, 39
1, 366273, Control_c, 0, 64, 38
1, 366288, Control_c, 0, 64, 40
1, 366303, Control_c, 0, 64, 43
1, 366318, Control_c, 0, 64, 49
1, 366333, Control_c, 0, 64, 53
1, 366348, Control_c, 0, 64, 57
1, 366363, Control_c, 0, 64, 60
1, 366378, Control_c, 0, 64, 63
1, 366392, Control_c, 0, 64, 66
1, 366407, Control_c, 0, 64, 69
1, 366422, Control_c, 0, 64, 72
1, 366437, Control_c, 0, 64, 74
1, 366451, Control_c, 0, 64, 76
1, 366466, Control_c, 0, 64, 79
1, 366481, Control_c, 0, 64, 82
1, 366496, Control_c, 0, 64, 85
1, 366511, Control_c, 0, 64, 88
1, 366525, Control_c, 0, 64, 91
1, 366541, Control_c, 0, 64, 93
1, 366554, Note_off_c, 0, 67, 39
1, 366556, Control_c, 0, 64, 95
1, 366570, Control_c, 0, 64, 98
1, 366585, Control_c, 0, 64, 101
1, 366595, Note_off_c, 0, 64, 32
1, 366600, Control_c, 0, 64, 106
1, 366615, Control_c, 0, 64, 112
1, 366630, Control_c, 0, 64, 127
1, 366637, Note_off_c, 0, 73, 38
1, 367068, Control_c, 0, 64, 86
1, 367082, Control_c, 0, 64, 67
1, 367097, Control_c, 0, 64, 47
1, 367112, Control_c, 0, 64, 0
1, 367505, Control_c, 0, 64, 44
1, 367519, Control_c, 0, 64, 54
1, 367534, Control_c, 0, 64, 59
1, 367549, Control_c, 0, 64, 63
1, 367564, Control_c, 0, 64, 66
1, 367579, Control_c, 0, 64, 69
1, 367594, Control_c, 0, 64, 73
1, 367608, Control_c, 0, 64, 79
1, 367623, Control_c, 0, 64, 85
1, 367638, Control_c, 0, 64, 91
1, 367653, Control_c, 0, 64, 100
1, 367668, Control_c, 0, 64, 111
1, 367682, Control_c, 0, 64, 127
1, 367786, Note_on_c, 0, 38, 81
1, 367787, Note_on_c, 0, 53, 92
1, 367789, Note_on_c, 0, 45, 77
1, 367817, Control_c, 0, 64, 122
1, 367831, Control_c, 0, 64, 84
1, 367846, Control_c, 0, 64, 65
1, 367861, Control_c, 0, 64, 0
1, 367920, Control_c, 0, 64, 42
1, 367935, Control_c, 0, 64, 55
1, 367950, Control_c, 0, 64, 63
1, 367965, Control_c, 0, 64, 69
1, 367979, Control_c, 0, 64, 76
1, 367994, Control_c, 0, 64, 85
1, 368009, Control_c, 0, 64, 95
1, 368023, Control_c, 0, 64, 112
1, 368038, Control_c, 0, 64, 127
1, 368602, Note_on_c, 0, 52, 79
1, 368605, Note_off_c, 0, 53, 57
1, 368613, Note_on_c, 0, 40, 63
1, 368634, Note_off_c, 0, 38, 52
1, 368674, Note_on_c, 0, 50, 80
1, 368700, Note_on_c, 0, 41, 71
1, 368706, Note_off_c, 0, 52, 61
1, 368774, Note_on_c, 0, 49, 94
1, 368781, Note_on_c, 0, 43, 78
1, 368782, Note_off_c, 0, 40, 59
1, 368811, Note_off_c, 0, 50, 59
1, 368817, Control_c, 0, 64, 96
1, 368832, Control_c, 0, 64, 76
1, 368843, Note_off_c, 0, 41, 60
1, 368846, Control_c, 0, 64, 56
1, 368861, Control_c, 0, 64, 0
1, 369002, Control_c, 0, 64, 35
1, 369017, Control_c, 0, 64, 58
1, 369032, Control_c, 0, 64, 66
1, 369046, Control_c, 0, 64, 75
1, 369061, Control_c, 0, 64, 87
1, 369076, Control_c, 0, 64, 106
1, 369091, Control_c, 0, 64, 127
1, 369146, Note_off_c, 0, 45, 59
1, 369201, Note_off_c, 0, 43, 60
1, 369240, Note_off_c, 0, 49, 61
1, 369358, Control_c, 0, 64, 96
1, 369374, Control_c, 0, 64, 72
1, 369388, Control_c, 0, 64, 54
1, 369403, Control_c, 0, 64, 0
1, 369685, Note_on_c, 0, 61, 76
1, 369764, Note_on_c, 0, 67, 90
1, 369790, Note_off_c, 0, 61, 62
1, 369973, Control_c, 0, 64, 42
1, 369988, Control_c, 0, 64, 57
1, 370003, Control_c, 0, 64, 63
1, 370017, Control_c, 0, 64, 67
1, 370032, Control_c, 0, 64, 73
1, 370047, Control_c, 0, 64, 81
1, 370062, Control_c, 0, 64, 92
1, 370077, Control_c, 0, 64, 114
1, 370092, Control_c, 0, 64, 127
1, 370381, Note_on_c, 0, 64, 68
1, 370465, Note_on_c, 0, 61, 82
1, 370478, Note_off_c, 0, 67, 46
1, 370503, Note_off_c, 0, 64, 59
1, 370524, Note_off_c, 0, 61, 62
1, 370536, Note_on_c, 0, 57, 64
1, 370539, Note_on_c, 0, 53, 57
1, 370550, Note_on_c, 0, 69, 91
1, 370559, Control_c, 0, 64, 91
1, 370574, Control_c, 0, 64, 68
1, 370589, Control_c, 0, 64, 46
1, 370604, Control_c, 0, 64, 0
1, 370618, Control_c, 0, 64, 34
1, 370633, Control_c, 0, 64, 53
1, 370648, Control_c, 0, 64, 65
1, 370663, Control_c, 0, 64, 73
1, 370678, Control_c, 0, 64, 82
1, 370692, Control_c, 0, 64, 93
1, 370707, Control_c, 0, 64, 107
1, 370722, Control_c, 0, 64, 127
1, 370792, Note_off_c, 0, 57, 55
1, 370810, Note_off_c, 0, 53, 37
1, 370886, Note_on_c, 0, 65, 84
1, 370972, Note_off_c, 0, 69, 59
1, 370973, Note_on_c, 0, 62, 89
1, 371006, Note_off_c, 0, 65, 64
1, 371034, Note_off_c, 0, 62, 67
1, 371219, Control_c, 0, 64, 111
1, 371234, Control_c, 0, 64, 94
1, 371249, Control_c, 0, 64, 80
1, 371263, Control_c, 0, 64, 70
1, 371278, Control_c, 0, 64, 63
1, 371293, Control_c, 0, 64, 53
1, 371308, Control_c, 0, 64, 41
1, 371323, Control_c, 0, 64, 0
1, 371514, Note_on_c, 0, 69, 28
1, 371518, Note_on_c, 0, 65, 38
1, 371523, Note_on_c, 0, 81, 44
1, 371560, Control_c, 0, 64, 43
1, 371574, Control_c, 0, 64, 55
1, 371589, Control_c, 0, 64, 62
1, 371604, Control_c, 0, 64, 64
1, 371619, Control_c, 0, 64, 66
1, 371634, Control_c, 0, 64, 70
1, 371648, Control_c, 0, 64, 75
1, 371663, Control_c, 0, 64, 82
1, 371678, Control_c, 0, 64, 88
1, 371693, Control_c, 0, 64, 94
1, 371708, Control_c, 0, 64, 99
1, 371723, Control_c, 0, 64, 104
1, 371737, Control_c, 0, 64, 111
1, 371752, Control_c, 0, 64, 117
1, 371768, Control_c, 0, 64, 127
1, 371926, Note_on_c, 0, 77, 45
1, 371968, Control_c, 0, 64, 116
1, 371983, Control_c, 0, 64, 105
1, 371997, Control_c, 0, 64, 93
1, 372012, Control_c, 0, 64, 80
1, 372022, Note_off_c, 0, 81, 41
1, 372027, Control_c, 0, 64, 68
1, 372042, Control_c, 0, 64, 53
1, 372056, Note_off_c, 0, 77, 50
1, 372057, Control_c, 0, 64, 0
1, 372065, Note_on_c, 0, 74, 36
1, 372086, Control_c, 0, 64, 40
1, 372101, Control_c, 0, 64, 47
1, 372116, Control_c, 0, 64, 52
1, 372131, Control_c, 0, 64, 60
1, 372146, Control_c, 0, 64, 68
1, 372161, Control_c, 0, 64, 76
1, 372176, Control_c, 0, 64, 84
1, 372190, Control_c, 0, 64, 90
1, 372205, Control_c, 0, 64, 96
1, 372220, Control_c, 0, 64, 101
1, 372235, Control_c, 0, 64, 107
1, 372250, Control_c, 0, 64, 114
1, 372264, Control_c, 0, 64, 127
1, 372308, Note_off_c, 0, 65, 28
1, 372375, Note_off_c, 0, 69, 29
1, 372442, Note_off_c, 0, 74, 35
1, 372835, Control_c, 0, 64, 111
1, 372850, Control_c, 0, 64, 82
1, 372865, Control_c, 0, 64, 64
1, 372880, Control_c, 0, 64, 0
1, 373058, Control_c, 0, 64, 45
1, 373073, Control_c, 0, 64, 57
1, 373087, Control_c, 0, 64, 62
1, 373102, Control_c, 0, 64, 64
1, 373117, Control_c, 0, 64, 67
1, 373131, Control_c, 0, 64, 71
1, 373146, Control_c, 0, 64, 77
1, 373161, Control_c, 0, 64, 85
1, 373176, Control_c, 0, 64, 95
1, 373191, Control_c, 0, 64, 109
1, 373206, Control_c, 0, 64, 127
1, 373409, Note_on_c, 0, 54, 63
1, 373416, Note_on_c, 0, 62, 62
1, 373420, Note_on_c, 0, 72, 97
1, 373429, Control_c, 0, 64, 109
1, 373451, Control_c, 0, 64, 78
1, 373466, Control_c, 0, 64, 62
1, 373481, Control_c, 0, 64, 52
1, 373496, Control_c, 0, 64, 57
1, 373511, Control_c, 0, 64, 62
1, 373525, Control_c, 0, 64, 66
1, 373540, Control_c, 0, 64, 77
1, 373555, Control_c, 0, 64, 95
1, 373569, Control_c, 0, 64, 127
1, 373575, Note_off_c, 0, 62, 58
1, 373642, Note_off_c, 0, 54, 61
1, 373754, Note_on_c, 0, 69, 81
1, 373879, Note_on_c, 0, 62, 82
1, 373973, Note_off_c, 0, 62, 63
1, 374019, Note_off_c, 0, 69, 59
1, 374025, Note_off_c, 0, 72, 60
1, 374146, Control_c, 0, 64, 102
1, 374162, Control_c, 0, 64, 92
1, 374177, Control_c, 0, 64, 85
1, 374199, Control_c, 0, 64, 79
1, 374214, Control_c, 0, 64, 74
1, 374229, Control_c, 0, 64, 69
1, 374244, Control_c, 0, 64, 64
1, 374259, Control_c, 0, 64, 60
1, 374273, Control_c, 0, 64, 56
1, 374288, Control_c, 0, 64, 53
1, 374303, Control_c, 0, 64, 51
1, 374317, Control_c, 0, 64, 49
1, 374332, Control_c, 0, 64, 47
1, 374347, Control_c, 0, 64, 44
1, 374362, Control_c, 0, 64, 40
1, 374377, Control_c, 0, 64, 0
1, 374599, Control_c, 0, 64, 45
1, 374614, Control_c, 0, 64, 53
1, 374617, Note_on_c, 0, 66, 34
1, 374622, Note_on_c, 0, 74, 32
1, 374629, Control_c, 0, 64, 57
1, 374638, Note_on_c, 0, 84, 37
1, 374643, Control_c, 0, 64, 60
1, 374658, Control_c, 0, 64, 63
1, 374673, Control_c, 0, 64, 66
1, 374688, Control_c, 0, 64, 70
1, 374703, Control_c, 0, 64, 75
1, 374717, Control_c, 0, 64, 81
1, 374732, Control_c, 0, 64, 89
1, 374747, Control_c, 0, 64, 97
1, 374762, Control_c, 0, 64, 109
1, 374777, Control_c, 0, 64, 127
1, 374829, Note_off_c, 0, 66, 40
1, 374839, Note_off_c, 0, 74, 41
1, 375152, Note_on_c, 0, 81, 34
1, 375340, Note_on_c, 0, 74, 39
1, 376134, Note_off_c, 0, 84, 35
1, 376146, Note_off_c, 0, 81, 42
1, 376498, Note_off_c, 0, 74, 41
1, 376593, Control_c, 0, 64, 100
1, 376608, Control_c, 0, 64, 76
1, 376623, Control_c, 0, 64, 58
1, 376638, Control_c, 0, 64, 0
1, 377031, Note_on_c, 0, 55, 95
1, 377037, Note_on_c, 0, 43, 80
1, 377037, Note_on_c, 0, 74, 99
1, 377053, Control_c, 0, 64, 67
1, 377068, Control_c, 0, 64, 96
1, 377083, Control_c, 0, 64, 127
1, 377240, Note_on_c, 0, 82, 87
1, 377253, Note_off_c, 0, 74, 62
1, 377343, Note_on_c, 0, 81, 87
1, 377356, Note_off_c, 0, 82, 61
1, 377433, Note_on_c, 0, 82, 90
1, 377455, Note_off_c, 0, 81, 59
1, 377506, Note_off_c, 0, 82, 50
1, 377511, Note_on_c, 0, 74, 81
1, 377557, Note_off_c, 0, 74, 61
1, 377571, Note_on_c, 0, 82, 76
1, 377650, Note_off_c, 0, 82, 60
1, 377653, Note_on_c, 0, 81, 74
1, 377707, Note_off_c, 0, 55, 59
1, 377718, Note_off_c, 0, 43, 60
1, 377719, Note_off_c, 0, 81, 61
1, 377725, Note_on_c, 0, 82, 76
1, 377786, Note_off_c, 0, 82, 41
1, 377793, Note_on_c, 0, 74, 69
1, 377817, Control_c, 0, 64, 89
1, 377820, Note_off_c, 0, 74, 66
1, 377832, Control_c, 0, 64, 64
1, 377840, Note_on_c, 0, 82, 69
1, 377846, Control_c, 0, 64, 0
1, 377901, Note_off_c, 0, 82, 62
1, 377914, Note_on_c, 0, 79, 70
1, 377989, Note_off_c, 0, 79, 61
1, 377992, Note_on_c, 0, 82, 65
1, 378038, Note_off_c, 0, 82, 51
1, 378050, Note_on_c, 0, 43, 49
1, 378064, Note_on_c, 0, 74, 61
1, 378076, Control_c, 0, 64, 63
1, 378078, Note_off_c, 0, 43, 50
1, 378091, Control_c, 0, 64, 71
1, 378097, Note_off_c, 0, 74, 62
1, 378106, Control_c, 0, 64, 80
1, 378117, Note_on_c, 0, 55, 61
1, 378121, Control_c, 0, 64, 97
1, 378128, Note_on_c, 0, 82, 59
1, 378135, Control_c, 0, 64, 127
1, 378162, Note_off_c, 0, 55, 56
1, 378173, Note_off_c, 0, 82, 57
1, 378200, Note_on_c, 0, 79, 66
1, 378215, Note_on_c, 0, 53, 38
1, 378249, Note_off_c, 0, 53, 49
1, 378262, Note_on_c, 0, 55, 67
1, 378266, Note_off_c, 0, 79, 57
1, 378267, Note_on_c, 0, 82, 72
1, 378293, Note_off_c, 0, 55, 64
1, 378314, Control_c, 0, 64, 115
1, 378322, Note_off_c, 0, 82, 61
1, 378329, Control_c, 0, 64, 73
1, 378331, Note_on_c, 0, 45, 74
1, 378336, Note_on_c, 0, 74, 84
1, 378344, Control_c, 0, 64, 50
1, 378358, Control_c, 0, 64, 37
1, 378362, Note_off_c, 0, 45, 64
1, 378373, Control_c, 0, 64, 55
1, 378387, Note_on_c, 0, 57, 79
1, 378388, Control_c, 0, 64, 68
1, 378395, Note_off_c, 0, 74, 62
1, 378396, Note_on_c, 0, 82, 85
1, 378403, Control_c, 0, 64, 89
1, 378418, Control_c, 0, 64, 127
1, 378444, Note_off_c, 0, 57, 65
1, 378448, Note_on_c, 0, 55, 78
1, 378466, Note_on_c, 0, 77, 83
1, 378471, Note_off_c, 0, 82, 60
1, 378509, Note_off_c, 0, 55, 62
1, 378522, Note_on_c, 0, 57, 81
1, 378528, Note_on_c, 0, 82, 83
1, 378534, Note_off_c, 0, 77, 63
1, 378545, Note_off_c, 0, 57, 67
1, 378583, Note_on_c, 0, 46, 84
1, 378594, Note_on_c, 0, 74, 93
1, 378610, Note_off_c, 0, 82, 64
1, 378622, Note_off_c, 0, 46, 62
1, 378638, Note_on_c, 0, 58, 86
1, 378654, Note_on_c, 0, 82, 80
1, 378665, Note_off_c, 0, 74, 61
1, 378727, Note_on_c, 0, 57, 69
1, 378736, Note_on_c, 0, 77, 83
1, 378750, Note_off_c, 0, 82, 62
1, 378762, Note_off_c, 0, 58, 0
1, 378766, Note_off_c, 0, 57, 63
1, 378774, Note_on_c, 0, 58, 66
1, 378804, Note_on_c, 0, 82, 78
1, 378804, Note_off_c, 0, 58, 63
1, 378827, Note_on_c, 0, 59, 29
1, 378827, Note_off_c, 0, 77, 60
1, 378866, Note_off_c, 0, 59, 47
1, 378871, Note_off_c, 0, 82, 62
1, 378883, Note_on_c, 0, 72, 88
1, 378884, Note_on_c, 0, 60, 101
1, 378892, Note_on_c, 0, 48, 85
1, 378919, Note_on_c, 0, 50, 47
1, 378950, Note_off_c, 0, 50, 53
1, 378954, Note_on_c, 0, 82, 80
1, 378955, Note_off_c, 0, 72, 56
1, 378959, Control_c, 0, 64, 96
1, 378974, Control_c, 0, 64, 66
1, 378988, Control_c, 0, 64, 0
1, 379011, Note_off_c, 0, 82, 61
1, 379020, Note_on_c, 0, 77, 72
1, 379077, Control_c, 0, 64, 57
1, 379079, Note_off_c, 0, 77, 64
1, 379079, Note_on_c, 0, 82, 73
1, 379092, Control_c, 0, 64, 74
1, 379106, Control_c, 0, 64, 127
1, 379144, Note_off_c, 0, 82, 58
1, 379148, Note_on_c, 0, 72, 73
1, 379165, Note_off_c, 0, 48, 58
1, 379188, Note_off_c, 0, 60, 57
1, 379191, Note_off_c, 0, 72, 52
1, 379211, Note_on_c, 0, 82, 72
1, 379268, Note_off_c, 0, 82, 62
1, 379275, Note_on_c, 0, 77, 65
1, 379339, Note_on_c, 0, 82, 68
1, 379345, Note_off_c, 0, 77, 62
1, 379385, Note_off_c, 0, 82, 57
1, 379403, Note_on_c, 0, 72, 73
1, 379419, Control_c, 0, 64, 72
1, 379440, Control_c, 0, 64, 0
1, 379444, Note_off_c, 0, 72, 62
1, 379478, Note_on_c, 0, 82, 63
1, 379510, Note_off_c, 0, 82, 60
1, 379525, Note_on_c, 0, 76, 67
1, 379583, Note_off_c, 0, 76, 58
1, 379606, Note_on_c, 0, 82, 49
1, 379634, Note_off_c, 0, 82, 53
1, 379662, Note_on_c, 0, 72, 57
1, 379679, Note_on_c, 0, 38, 53
1, 379699, Note_off_c, 0, 72, 62
1, 379707, Control_c, 0, 64, 42
1, 379709, Note_off_c, 0, 38, 62
1, 379722, Control_c, 0, 64, 63
1, 379723, Note_on_c, 0, 82, 54
1, 379737, Control_c, 0, 64, 69
1, 379753, Control_c, 0, 64, 75
1, 379757, Note_on_c, 0, 48, 45
1, 379759, Note_off_c, 0, 82, 57
1, 379768, Control_c, 0, 64, 83
1, 379783, Control_c, 0, 64, 94
1, 379783, Note_on_c, 0, 76, 61
1, 379793, Note_off_c, 0, 48, 64
1, 379797, Control_c, 0, 64, 119
1, 379805, Note_on_c, 0, 47, 64
1, 379812, Control_c, 0, 64, 127
1, 379822, Note_off_c, 0, 76, 58
1, 379843, Note_off_c, 0, 47, 65
1, 379845, Note_on_c, 0, 82, 65
1, 379869, Note_on_c, 0, 48, 59
1, 379880, Note_off_c, 0, 82, 59
1, 379886, Control_c, 0, 64, 108
1, 379901, Note_off_c, 0, 48, 65
1, 379901, Control_c, 0, 64, 69
1, 379908, Note_on_c, 0, 72, 73
1, 379916, Control_c, 0, 64, 47
1, 379926, Note_on_c, 0, 38, 82
1, 379930, Control_c, 0, 64, 46
1, 379945, Control_c, 0, 64, 62
1, 379956, Note_off_c, 0, 38, 69
1, 379959, Note_off_c, 0, 72, 56
1, 379960, Control_c, 0, 64, 75
1, 379969, Note_on_c, 0, 82, 81
1, 379975, Control_c, 0, 64, 115
1, 379976, Note_on_c, 0, 50, 78
1, 379990, Control_c, 0, 64, 127
1, 380029, Note_off_c, 0, 82, 61
1, 380036, Note_on_c, 0, 77, 71
1, 380044, Note_on_c, 0, 48, 80
1, 380045, Note_off_c, 0, 50, 61
1, 380088, Note_on_c, 0, 82, 72
1, 380104, Note_off_c, 0, 48, 63
1, 380105, Note_on_c, 0, 50, 77
1, 380108, Note_off_c, 0, 77, 61
1, 380144, Note_off_c, 0, 50, 60
1, 380161, Note_on_c, 0, 40, 85
1, 380163, Note_off_c, 0, 82, 56
1, 380169, Note_on_c, 0, 72, 83
1, 380209, Note_off_c, 0, 40, 62
1, 380230, Note_on_c, 0, 52, 84
1, 380236, Note_on_c, 0, 82, 81
1, 380248, Note_off_c, 0, 72, 62
1, 380290, Note_on_c, 0, 50, 85
1, 380294, Note_off_c, 0, 52, 62
1, 380306, Note_on_c, 0, 79, 76
1, 380315, Note_off_c, 0, 82, 61
1, 380362, Note_off_c, 0, 50, 62
1, 380364, Note_on_c, 0, 82, 76
1, 380371, Note_on_c, 0, 52, 80
1, 380397, Note_off_c, 0, 52, 67
1, 380397, Note_off_c, 0, 79, 63
1, 380429, Note_off_c, 0, 82, 64
1, 380458, Note_on_c, 0, 72, 77
1, 380463, Note_on_c, 0, 53, 100
1, 380468, Note_on_c, 0, 41, 88
1, 380486, Control_c, 0, 64, 83
1, 380498, Note_on_c, 0, 46, 37
1, 380501, Control_c, 0, 64, 57
1, 380516, Control_c, 0, 64, 0
1, 380518, Note_off_c, 0, 72, 62
1, 380524, Note_on_c, 0, 80, 72
1, 380534, Note_off_c, 0, 46, 55
1, 380584, Note_off_c, 0, 80, 61
1, 380598, Note_on_c, 0, 79, 70
1, 380665, Note_off_c, 0, 79, 65
1, 380667, Note_on_c, 0, 80, 78
1, 380707, Note_off_c, 0, 80, 55
1, 380738, Note_on_c, 0, 72, 68
1, 380774, Note_off_c, 0, 72, 60
1, 380799, Note_on_c, 0, 80, 73
1, 380856, Note_off_c, 0, 80, 61
1, 380870, Note_on_c, 0, 79, 68
1, 380876, Note_off_c, 0, 41, 61
1, 380882, Note_off_c, 0, 53, 58
1, 380934, Note_on_c, 0, 80, 74
1, 380936, Note_off_c, 0, 79, 65
1, 380986, Note_off_c, 0, 80, 55
1, 381000, Note_on_c, 0, 72, 64
1, 381038, Note_off_c, 0, 72, 58
1, 381055, Note_on_c, 0, 80, 70
1, 381114, Note_off_c, 0, 80, 62
1, 381134, Note_on_c, 0, 77, 54
1, 381185, Note_off_c, 0, 77, 59
1, 381187, Note_on_c, 0, 80, 61
1, 381224, Note_on_c, 0, 41, 53
1, 381233, Note_off_c, 0, 80, 54
1, 381251, Note_off_c, 0, 41, 58
1, 381254, Note_on_c, 0, 72, 58
1, 381264, Control_c, 0, 64, 62
1, 381279, Control_c, 0, 64, 70
1, 381287, Note_off_c, 0, 72, 61
1, 381294, Note_on_c, 0, 53, 63
1, 381294, Control_c, 0, 64, 83
1, 381309, Control_c, 0, 64, 108
1, 381316, Note_on_c, 0, 80, 63
1, 381324, Control_c, 0, 64, 127
1, 381353, Note_off_c, 0, 53, 57
1, 381353, Note_off_c, 0, 80, 57
1, 381360, Note_on_c, 0, 52, 64
1, 381375, Note_on_c, 0, 77, 64
1, 381406, Note_off_c, 0, 52, 55
1, 381428, Note_on_c, 0, 80, 78
1, 381431, Note_on_c, 0, 53, 63
1, 381434, Note_off_c, 0, 77, 62
1, 381462, Note_off_c, 0, 53, 63
1, 381473, Control_c, 0, 64, 81
1, 381475, Note_off_c, 0, 80, 58
1, 381488, Note_on_c, 0, 72, 81
1, 381488, Control_c, 0, 64, 58
1, 381490, Note_on_c, 0, 43, 65
1, 381502, Control_c, 0, 64, 0
1, 381515, Note_off_c, 0, 43, 65
1, 381518, Control_c, 0, 64, 53
1, 381533, Control_c, 0, 64, 68
1, 381538, Note_on_c, 0, 55, 75
1, 381543, Note_on_c, 0, 80, 84
1, 381546, Note_off_c, 0, 72, 62
1, 381548, Control_c, 0, 64, 88
1, 381562, Control_c, 0, 64, 127
1, 381592, Poly_aftertouch_c, 0, 41, 0
1, 381603, Note_off_c, 0, 55, 63
1, 381606, Note_on_c, 0, 53, 75
1, 381611, Note_on_c, 0, 75, 81
1, 381611, Note_off_c, 0, 80, 62
1, 381644, Note_off_c, 0, 53, 58
1, 381676, Note_on_c, 0, 80, 79
1, 381680, Note_on_c, 0, 55, 74
1, 381684, Note_off_c, 0, 75, 61
1, 381707, Note_off_c, 0, 55, 64
1, 381735, Note_on_c, 0, 72, 82
1, 381743, Note_off_c, 0, 80, 61
1, 381746, Note_on_c, 0, 44, 85
1, 381795, Note_on_c, 0, 80, 78
1, 381795, Note_off_c, 0, 44, 62
1, 381807, Note_on_c, 0, 56, 81
1, 381807, Note_off_c, 0, 72, 60
1, 381863, Note_off_c, 0, 80, 61
1, 381868, Note_on_c, 0, 55, 79
1, 381869, Note_on_c, 0, 75, 76
1, 381881, Note_off_c, 0, 56, 54
1, 381917, Note_off_c, 0, 55, 57
1, 381921, Note_on_c, 0, 80, 76
1, 381935, Note_on_c, 0, 56, 72
1, 381946, Note_off_c, 0, 75, 61
1, 381959, Note_off_c, 0, 56, 67
1, 381997, Note_off_c, 0, 80, 62
1, 382010, Note_on_c, 0, 70, 93
1, 382025, Note_on_c, 0, 58, 86
1, 382030, Note_on_c, 0, 46, 88
1, 382031, Poly_aftertouch_c, 0, 78, 0
1, 382042, Note_on_c, 0, 56, 65
1, 382060, Note_off_c, 0, 56, 65
1, 382081, Note_on_c, 0, 80, 85
1, 382091, Note_off_c, 0, 70, 64
1, 382102, Control_c, 0, 64, 83
1, 382114, Note_on_c, 0, 49, 6
1, 382117, Control_c, 0, 64, 60
1, 382132, Control_c, 0, 64, 0
1, 382135, Note_off_c, 0, 49, 53
1, 382155, Note_off_c, 0, 80, 61
1, 382156, Note_on_c, 0, 75, 76
1, 382222, Note_on_c, 0, 80, 75
1, 382222, Control_c, 0, 64, 58
1, 382230, Note_off_c, 0, 75, 58
1, 382237, Control_c, 0, 64, 74
1, 382251, Control_c, 0, 64, 102
1, 382266, Control_c, 0, 64, 127
1, 382291, Note_off_c, 0, 80, 60
1, 382293, Note_on_c, 0, 70, 74
1, 382297, Note_off_c, 0, 58, 62
1, 382317, Note_off_c, 0, 46, 60
1, 382331, Note_off_c, 0, 70, 56
1, 382351, Note_on_c, 0, 80, 68
1, 382408, Note_off_c, 0, 80, 62
1, 382430, Note_on_c, 0, 75, 65
1, 382487, Note_on_c, 0, 80, 66
1, 382488, Note_off_c, 0, 75, 56
1, 382519, Note_off_c, 0, 80, 59
1, 382546, Note_on_c, 0, 70, 69
1, 382555, Control_c, 0, 64, 86
1, 382569, Control_c, 0, 64, 61
1, 382579, Note_off_c, 0, 70, 61
1, 382584, Control_c, 0, 64, 0
1, 382611, Note_on_c, 0, 80, 71
1, 382642, Note_off_c, 0, 80, 59
1, 382671, Note_on_c, 0, 74, 61
1, 382713, Note_off_c, 0, 74, 58
1, 382749, Note_on_c, 0, 80, 49
1, 382773, Note_off_c, 0, 80, 59
1, 382795, Note_on_c, 0, 70, 58
1, 382804, Note_on_c, 0, 34, 45
1, 382829, Note_off_c, 0, 70, 63
1, 382836, Control_c, 0, 64, 52
1, 382841, Note_off_c, 0, 34, 63
1, 382848, Note_on_c, 0, 80, 66
1, 382850, Control_c, 0, 64, 64
1, 382865, Control_c, 0, 64, 70
1, 382874, Note_on_c, 0, 46, 59
1, 382880, Control_c, 0, 64, 78
1, 382893, Note_off_c, 0, 80, 55
1, 382895, Control_c, 0, 64, 89
1, 382910, Control_c, 0, 64, 102
1, 382923, Note_on_c, 0, 74, 57
1, 382923, Note_off_c, 0, 46, 61
1, 382925, Control_c, 0, 64, 127
1, 382946, Note_on_c, 0, 45, 59
1, 382964, Note_off_c, 0, 74, 62
1, 382978, Note_off_c, 0, 45, 64
1, 382986, Note_on_c, 0, 80, 67
1, 382998, Note_on_c, 0, 46, 72
1, 383022, Note_off_c, 0, 80, 57
1, 383029, Control_c, 0, 64, 98
1, 383032, Note_off_c, 0, 46, 66
1, 383044, Control_c, 0, 64, 70
1, 383054, Note_on_c, 0, 70, 71
1, 383059, Control_c, 0, 64, 48
1, 383068, Note_on_c, 0, 36, 71
1, 383074, Control_c, 0, 64, 37
1, 383089, Control_c, 0, 64, 58
1, 383096, Note_off_c, 0, 36, 64
1, 383104, Control_c, 0, 64, 69
1, 383104, Note_off_c, 0, 70, 60
1, 383108, Note_on_c, 0, 80, 78
1, 383113, Note_on_c, 0, 48, 77
1, 383119, Control_c, 0, 64, 85
1, 383133, Control_c, 0, 64, 127
1, 383176, Note_off_c, 0, 48, 57
1, 383181, Note_off_c, 0, 80, 62
1, 383186, Note_on_c, 0, 75, 76
1, 383190, Note_on_c, 0, 46, 80
1, 383235, Note_off_c, 0, 46, 60
1, 383237, Note_on_c, 0, 80, 76
1, 383246, Note_on_c, 0, 48, 73
1, 383260, Note_off_c, 0, 75, 60
1, 383274, Note_off_c, 0, 48, 65
1, 383304, Note_on_c, 0, 38, 79
1, 383313, Note_on_c, 0, 70, 89
1, 383315, Note_off_c, 0, 80, 52
1, 383333, Note_off_c, 0, 38, 64
1, 383355, Note_on_c, 0, 50, 87
1, 383374, Note_on_c, 0, 80, 82
1, 383387, Note_off_c, 0, 70, 63
1, 383409, Note_off_c, 0, 50, 62
1, 383411, Note_on_c, 0, 48, 80
1, 383443, Note_on_c, 0, 77, 75
1, 383447, Note_off_c, 0, 80, 62
1, 383470, Note_off_c, 0, 48, 63
1, 383481, Note_on_c, 0, 50, 77
1, 383501, Note_on_c, 0, 80, 78
1, 383510, Note_off_c, 0, 50, 64
1, 383527, Note_off_c, 0, 77, 63
1, 383568, Note_off_c, 0, 80, 63
1, 383573, Note_on_c, 0, 51, 97
1, 383578, Note_on_c, 0, 39, 91
1, 383582, Note_on_c, 0, 70, 88
1, 383644, Control_c, 0, 64, 81
1, 383655, Note_on_c, 0, 78, 78
1, 383658, Note_off_c, 0, 70, 61
1, 383659, Control_c, 0, 64, 59
1, 383673, Control_c, 0, 64, 0
1, 383726, Note_off_c, 0, 78, 62
1, 383728, Note_on_c, 0, 77, 67
1, 383800, Note_on_c, 0, 78, 70
1, 383817, Note_off_c, 0, 77, 60
1, 383822, Control_c, 0, 64, 49
1, 383837, Control_c, 0, 64, 63
1, 383852, Control_c, 0, 64, 71
1, 383854, Note_on_c, 0, 70, 73
1, 383858, Note_off_c, 0, 78, 61
1, 383867, Control_c, 0, 64, 85
1, 383882, Control_c, 0, 64, 122
1, 383897, Control_c, 0, 64, 127
1, 383900, Note_off_c, 0, 70, 55
1, 383926, Note_on_c, 0, 78, 65
1, 383929, Note_off_c, 0, 39, 61
1, 383992, Note_off_c, 0, 78, 61
1, 384004, Note_on_c, 0, 77, 62
1, 384067, Note_on_c, 0, 78, 67
1, 384069, Note_off_c, 0, 51, 57
1, 384082, Note_off_c, 0, 77, 59
1, 384105, Note_off_c, 0, 78, 58
1, 384120, Note_on_c, 0, 70, 67
1, 384155, Note_off_c, 0, 70, 60
1, 384195, Note_on_c, 0, 78, 70
1, 384215, Control_c, 0, 64, 101
1, 384228, Note_off_c, 0, 78, 54
1, 384230, Control_c, 0, 64, 82
1, 384245, Control_c, 0, 64, 67
1, 384260, Control_c, 0, 64, 47
1, 384267, Note_on_c, 0, 75, 54
1, 384275, Control_c, 0, 64, 0
1, 384307, Note_off_c, 0, 75, 62
1, 384329, Note_on_c, 0, 78, 59
1, 384363, Note_off_c, 0, 78, 61
1, 384378, Control_c, 0, 64, 42
1, 384379, Note_on_c, 0, 39, 47
1, 384393, Control_c, 0, 64, 62
1, 384396, Note_on_c, 0, 70, 50
1, 384408, Control_c, 0, 64, 70
1, 384416, Note_off_c, 0, 39, 63
1, 384422, Control_c, 0, 64, 79
1, 384424, Note_off_c, 0, 70, 53
1, 384437, Control_c, 0, 64, 90
1, 384450, Note_on_c, 0, 78, 59
1, 384452, Control_c, 0, 64, 104
1, 384454, Note_on_c, 0, 51, 54
1, 384467, Control_c, 0, 64, 127
1, 384485, Note_off_c, 0, 78, 61
1, 384493, Note_off_c, 0, 51, 64
1, 384514, Note_on_c, 0, 75, 55
1, 384525, Note_on_c, 0, 49, 27
1, 384543, Note_on_c, 0, 50, 44
1, 384567, Note_off_c, 0, 49, 51
1, 384572, Note_on_c, 0, 78, 66
1, 384575, Note_off_c, 0, 50, 50
1, 384578, Note_on_c, 0, 51, 71
1, 384583, Note_off_c, 0, 75, 55
1, 384612, Note_off_c, 0, 51, 61
1, 384617, Control_c, 0, 64, 101
1, 384627, Note_off_c, 0, 78, 60
1, 384632, Control_c, 0, 64, 71
1, 384644, Note_on_c, 0, 70, 76
1, 384646, Control_c, 0, 64, 48
1, 384658, Note_on_c, 0, 41, 56
1, 384661, Control_c, 0, 64, 0
1, 384684, Control_c, 0, 64, 51
1, 384695, Note_off_c, 0, 41, 62
1, 384698, Control_c, 0, 64, 66
1, 384701, Note_on_c, 0, 78, 72
1, 384704, Note_off_c, 0, 70, 61
1, 384710, Note_on_c, 0, 53, 72
1, 384713, Control_c, 0, 64, 80
1, 384728, Control_c, 0, 64, 127
1, 384768, Note_off_c, 0, 78, 63
1, 384770, Note_off_c, 0, 53, 60
1, 384772, Note_on_c, 0, 51, 75
1, 384773, Note_on_c, 0, 73, 79
1, 384816, Note_off_c, 0, 51, 57
1, 384831, Note_on_c, 0, 78, 77
1, 384835, Note_on_c, 0, 53, 72
1, 384841, Note_off_c, 0, 73, 63
1, 384861, Note_off_c, 0, 53, 67
1, 384861, Control_c, 0, 64, 96
1, 384876, Control_c, 0, 64, 67
1, 384890, Note_on_c, 0, 42, 80
1, 384891, Control_c, 0, 64, 41
1, 384897, Note_on_c, 0, 70, 92
1, 384900, Note_off_c, 0, 78, 51
1, 384906, Control_c, 0, 64, 49
1, 384920, Control_c, 0, 64, 63
1, 384929, Note_off_c, 0, 42, 62
1, 384935, Control_c, 0, 64, 76
1, 384946, Note_on_c, 0, 54, 73
1, 384950, Control_c, 0, 64, 110
1, 384960, Note_on_c, 0, 78, 79
1, 384964, Control_c, 0, 64, 127
1, 384970, Note_off_c, 0, 70, 64
1, 385008, Note_off_c, 0, 54, 64
1, 385011, Note_on_c, 0, 53, 79
1, 385032, Note_on_c, 0, 73, 83
1, 385037, Note_off_c, 0, 78, 63
1, 385068, Note_off_c, 0, 53, 62
1, 385080, Note_on_c, 0, 54, 80
1, 385089, Note_on_c, 0, 78, 81
1, 385108, Note_off_c, 0, 54, 65
1, 385117, Note_off_c, 0, 73, 61
1, 385171, Note_on_c, 0, 56, 98
1, 385174, Note_on_c, 0, 68, 93
1, 385177, Note_off_c, 0, 78, 47
1, 385180, Note_on_c, 0, 44, 81
1, 385208, Note_on_c, 0, 46, 47
1, 385217, Control_c, 0, 64, 81
1, 385232, Control_c, 0, 64, 56
1, 385244, Note_on_c, 0, 78, 78
1, 385245, Note_off_c, 0, 46, 50
1, 385246, Control_c, 0, 64, 0
1, 385253, Note_off_c, 0, 68, 64
1, 385314, Note_off_c, 0, 78, 62
1, 385322, Note_on_c, 0, 73, 76
1, 385387, Note_off_c, 0, 73, 61
1, 385388, Note_on_c, 0, 78, 68
1, 385410, Control_c, 0, 64, 51
1, 385432, Control_c, 0, 64, 68
1, 385447, Control_c, 0, 64, 83
1, 385454, Note_off_c, 0, 78, 57
1, 385462, Control_c, 0, 64, 127
1, 385466, Note_on_c, 0, 68, 74
1, 385482, Note_off_c, 0, 56, 59
1, 385515, Note_off_c, 0, 68, 54
1, 385524, Note_off_c, 0, 44, 46
1, 385529, Note_on_c, 0, 78, 67
1, 385572, Note_off_c, 0, 78, 58
1, 385596, Note_on_c, 0, 73, 59
1, 385647, Note_off_c, 0, 73, 54
1, 385661, Note_on_c, 0, 78, 59
1, 385682, Note_off_c, 0, 78, 62
1, 385703, Note_on_c, 0, 68, 71
1, 385729, Control_c, 0, 64, 100
1, 385741, Note_off_c, 0, 68, 52
1, 385743, Control_c, 0, 64, 72
1, 385757, Note_on_c, 0, 78, 65
1, 385758, Control_c, 0, 64, 51
1, 385773, Control_c, 0, 64, 0
1, 385813, Note_off_c, 0, 78, 61
1, 385844, Note_on_c, 0, 72, 49
1, 385887, Note_off_c, 0, 72, 61
1, 385903, Note_on_c, 0, 78, 43
1, 385932, Note_off_c, 0, 78, 56
1, 385935, Note_on_c, 0, 32, 40
1, 385935, Control_c, 0, 64, 37
1, 385949, Note_on_c, 0, 68, 59
1, 385950, Control_c, 0, 64, 58
1, 385965, Note_off_c, 0, 32, 51
1, 385965, Control_c, 0, 64, 67
1, 385980, Control_c, 0, 64, 76
1, 385986, Note_off_c, 0, 68, 62
1, 385995, Control_c, 0, 64, 84
1, 386000, Note_on_c, 0, 44, 54
1, 386010, Control_c, 0, 64, 94
1, 386013, Note_on_c, 0, 78, 58
1, 386025, Control_c, 0, 64, 112
1, 386040, Control_c, 0, 64, 127
1, 386043, Note_off_c, 0, 78, 59
1, 386044, Note_off_c, 0, 44, 63
1, 386064, Note_on_c, 0, 43, 59
1, 386085, Note_on_c, 0, 72, 52
1, 386100, Note_off_c, 0, 43, 62
1, 386112, Note_off_c, 0, 72, 63
1, 386131, Note_on_c, 0, 44, 68
1, 386133, Note_on_c, 0, 78, 60
1, 386144, Control_c, 0, 64, 104
1, 386166, Control_c, 0, 64, 74
1, 386168, Note_off_c, 0, 44, 67
1, 386174, Note_off_c, 0, 78, 60
1, 386181, Control_c, 0, 64, 54
1, 386196, Control_c, 0, 64, 0
1, 386209, Note_on_c, 0, 34, 64
1, 386211, Control_c, 0, 64, 40
1, 386215, Note_on_c, 0, 68, 70
1, 386225, Control_c, 0, 64, 58
1, 386237, Note_off_c, 0, 34, 63
1, 386240, Control_c, 0, 64, 68
1, 386250, Note_off_c, 0, 68, 59
1, 386255, Control_c, 0, 64, 80
1, 386259, Note_on_c, 0, 46, 75
1, 386270, Control_c, 0, 64, 108
1, 386279, Note_on_c, 0, 78, 70
1, 386285, Control_c, 0, 64, 127
1, 386315, Note_off_c, 0, 78, 55
1, 386317, Note_off_c, 0, 46, 55
1, 386333, Note_on_c, 0, 44, 66
1, 386338, Note_on_c, 0, 73, 73
1, 386371, Note_off_c, 0, 44, 65
1, 386383, Note_on_c, 0, 46, 80
1, 386403, Note_on_c, 0, 78, 85
1, 386403, Note_off_c, 0, 73, 61
1, 386407, Note_off_c, 0, 46, 70
1, 386418, Control_c, 0, 64, 85
1, 386433, Control_c, 0, 64, 63
1, 386448, Control_c, 0, 64, 44
1, 386455, Note_on_c, 0, 36, 78
1, 386463, Control_c, 0, 64, 53
1, 386465, Note_off_c, 0, 78, 53
1, 386469, Note_on_c, 0, 68, 88
1, 386478, Control_c, 0, 64, 63
1, 386484, Note_off_c, 0, 36, 65
1, 386492, Control_c, 0, 64, 77
1, 386506, Note_on_c, 0, 48, 80
1, 386507, Control_c, 0, 64, 109
1, 386522, Control_c, 0, 64, 127
1, 386524, Note_off_c, 0, 68, 55
1, 386535, Note_on_c, 0, 78, 83
1, 386573, Note_off_c, 0, 48, 62
1, 386576, Note_on_c, 0, 46, 78
1, 386605, Note_off_c, 0, 78, 63
1, 386612, Note_on_c, 0, 75, 66
1, 386628, Note_off_c, 0, 46, 62
1, 386647, Note_on_c, 0, 48, 70
1, 386662, Note_on_c, 0, 78, 72
1, 386676, Note_off_c, 0, 48, 65
1, 386693, Note_off_c, 0, 75, 60
1, 386714, Control_c, 0, 64, 76
1, 386729, Control_c, 0, 64, 56
1, 386738, Note_on_c, 0, 46, 69
1, 386738, Note_off_c, 0, 46, 127
1, 386739, Note_on_c, 0, 68, 88
1, 386740, Note_on_c, 0, 48, 71
1, 386743, Note_on_c, 0, 37, 61
1, 386743, Note_off_c, 0, 37, 127
1, 386743, Control_c, 0, 64, 53
1, 386755, Note_off_c, 0, 78, 56
1, 386758, Control_c, 0, 64, 65
1, 386764, Note_off_c, 0, 48, 65
1, 386773, Control_c, 0, 64, 85
1, 386788, Control_c, 0, 64, 127
1, 386795, Note_off_c, 0, 68, 63
1, 386798, Note_on_c, 0, 77, 77
1, 386835, Poly_aftertouch_c, 0, 49, 0
1, 386869, Note_off_c, 0, 77, 61
1, 386879, Note_on_c, 0, 75, 72
1, 386931, Note_on_c, 0, 77, 69
1, 386965, Note_off_c, 0, 75, 60
1, 386991, Note_on_c, 0, 68, 77
1, 386996, Note_off_c, 0, 77, 63
1, 387019, Control_c, 0, 64, 109
1, 387034, Control_c, 0, 64, 75
1, 387038, Note_off_c, 0, 68, 54
1, 387048, Control_c, 0, 64, 54
1, 387052, Note_on_c, 0, 77, 62
1, 387063, Control_c, 0, 64, 0
1, 387120, Note_off_c, 0, 77, 62
1, 387143, Note_on_c, 0, 49, 44
1, 387143, Note_on_c, 0, 73, 60
1, 387184, Note_on_c, 0, 51, 62
1, 387193, Note_off_c, 0, 49, 57
1, 387211, Note_on_c, 0, 77, 62
1, 387222, Note_on_c, 0, 53, 66
1, 387239, Note_off_c, 0, 73, 53
1, 387249, Note_off_c, 0, 51, 60
1, 387265, Note_off_c, 0, 53, 63
1, 387268, Note_off_c, 0, 77, 65
1, 387270, Note_on_c, 0, 55, 102
1, 387295, Note_on_c, 0, 70, 77
1, 387300, Note_off_c, 0, 55, 65
1, 387301, Control_c, 0, 64, 69
1, 387315, Control_c, 0, 64, 97
1, 387330, Control_c, 0, 64, 127
1, 387334, Note_off_c, 0, 70, 58
1, 387358, Note_on_c, 0, 75, 74
1, 387414, Note_off_c, 0, 75, 62
1, 387421, Note_on_c, 0, 73, 71
1, 387501, Note_on_c, 0, 75, 62
1, 387505, Note_off_c, 0, 73, 57
1, 387532, Note_off_c, 0, 75, 63
1, 387542, Note_on_c, 0, 70, 70
1, 387557, Note_on_c, 0, 56, 14
1, 387566, Control_c, 0, 64, 95
1, 387579, Note_off_c, 0, 70, 59
1, 387581, Control_c, 0, 64, 67
1, 387596, Control_c, 0, 64, 37
1, 387601, Note_off_c, 0, 56, 50
1, 387611, Control_c, 0, 64, 0
1, 387618, Note_on_c, 0, 75, 64
1, 387655, Note_on_c, 0, 51, 48
1, 387676, Note_off_c, 0, 75, 49
1, 387699, Note_on_c, 0, 73, 71
1, 387712, Note_on_c, 0, 53, 68
1, 387720, Note_off_c, 0, 51, 59
1, 387743, Note_on_c, 0, 55, 69
1, 387757, Note_off_c, 0, 53, 60
1, 387769, Note_off_c, 0, 73, 59
1, 387781, Note_on_c, 0, 75, 61
1, 387790, Note_off_c, 0, 55, 64
1, 387799, Note_on_c, 0, 57, 101
1, 387812, Note_off_c, 0, 75, 60
1, 387812, Control_c, 0, 64, 42
1, 387825, Note_on_c, 0, 65, 79
1, 387827, Control_c, 0, 64, 70
1, 387838, Note_off_c, 0, 57, 66
1, 387842, Control_c, 0, 64, 92
1, 387857, Control_c, 0, 64, 127
1, 387867, Note_off_c, 0, 65, 61
1, 387890, Note_on_c, 0, 75, 70
1, 387947, Note_off_c, 0, 75, 62
1, 387965, Note_on_c, 0, 72, 58
1, 388025, Note_on_c, 0, 75, 70
1, 388025, Note_off_c, 0, 72, 60
1, 388086, Note_off_c, 0, 75, 56
1, 388087, Note_on_c, 0, 65, 76
1, 388127, Note_off_c, 0, 65, 58
1, 388138, Control_c, 0, 64, 86
1, 388147, Note_on_c, 0, 75, 63
1, 388153, Control_c, 0, 64, 67
1, 388168, Control_c, 0, 64, 43
1, 388182, Control_c, 0, 64, 0
1, 388208, Note_on_c, 0, 53, 55
1, 388210, Note_off_c, 0, 75, 62
1, 388219, Note_on_c, 0, 72, 63
1, 388259, Note_off_c, 0, 53, 60
1, 388261, Note_on_c, 0, 55, 63
1, 388285, Note_on_c, 0, 57, 71
1, 388295, Note_off_c, 0, 55, 64
1, 388298, Note_on_c, 0, 75, 63
1, 388298, Note_off_c, 0, 72, 61
1, 388329, Control_c, 0, 64, 47
1, 388332, Note_on_c, 0, 58, 101
1, 388338, Note_off_c, 0, 75, 63
1, 388344, Control_c, 0, 64, 72
1, 388358, Note_off_c, 0, 57, 63
1, 388359, Control_c, 0, 64, 127
1, 388363, Note_on_c, 0, 65, 77
1, 388365, Note_off_c, 0, 58, 67
1, 388429, Note_off_c, 0, 65, 61
1, 388433, Note_on_c, 0, 73, 74
1, 388500, Note_off_c, 0, 73, 59
1, 388508, Note_on_c, 0, 72, 70
1, 388568, Note_on_c, 0, 73, 69
1, 388584, Note_off_c, 0, 72, 60
1, 388624, Note_on_c, 0, 65, 74
1, 388628, Note_off_c, 0, 73, 62
1, 388669, Note_off_c, 0, 65, 53
1, 388684, Note_on_c, 0, 73, 70
1, 388738, Note_on_c, 0, 46, 57
1, 388758, Note_off_c, 0, 73, 62
1, 388764, Note_on_c, 0, 70, 68
1, 388781, Note_on_c, 0, 48, 68
1, 388791, Note_off_c, 0, 46, 60
1, 388797, Control_c, 0, 64, 84
1, 388812, Control_c, 0, 64, 62
1, 388819, Note_on_c, 0, 49, 70
1, 388825, Note_on_c, 0, 73, 74
1, 388827, Control_c, 0, 64, 0
1, 388843, Note_off_c, 0, 48, 63
1, 388872, Control_c, 0, 64, 38
1, 388873, Note_on_c, 0, 51, 103
1, 388876, Note_off_c, 0, 70, 59
1, 388886, Control_c, 0, 64, 63
1, 388901, Control_c, 0, 64, 80
1, 388903, Note_off_c, 0, 49, 64
1, 388904, Note_on_c, 0, 66, 77
1, 388916, Control_c, 0, 64, 127
1, 388916, Note_off_c, 0, 73, 59
1, 388967, Note_off_c, 0, 66, 59
1, 388972, Note_on_c, 0, 71, 71
1, 389034, Note_off_c, 0, 71, 62
1, 389039, Note_on_c, 0, 70, 76
1, 389077, Note_off_c, 0, 51, 45
1, 389095, Note_on_c, 0, 71, 69
1, 389119, Note_off_c, 0, 70, 58
1, 389177, Note_off_c, 0, 71, 62
1, 389203, Note_on_c, 0, 65, 40
1, 389212, Note_on_c, 0, 71, 54
1, 389233, Note_off_c, 0, 65, 54
1, 389298, Note_off_c, 0, 71, 60
1, 389301, Note_on_c, 0, 47, 55
1, 389304, Note_on_c, 0, 70, 75
1, 389338, Control_c, 0, 64, 106
1, 389340, Note_on_c, 0, 49, 68
1, 389353, Note_off_c, 0, 47, 60
1, 389353, Control_c, 0, 64, 80
1, 389365, Note_on_c, 0, 51, 72
1, 389367, Control_c, 0, 64, 58
1, 389379, Note_on_c, 0, 71, 63
1, 389382, Control_c, 0, 64, 0
1, 389396, Note_off_c, 0, 49, 62
1, 389419, Note_off_c, 0, 51, 61
1, 389421, Note_off_c, 0, 70, 63
1, 389427, Note_on_c, 0, 53, 106
1, 389439, Note_on_c, 0, 61, 85
1, 389442, Note_off_c, 0, 71, 62
1, 389456, Control_c, 0, 64, 56
1, 389471, Control_c, 0, 64, 74
1, 389486, Control_c, 0, 64, 93
1, 389501, Control_c, 0, 64, 127
1, 389505, Note_on_c, 0, 71, 68
1, 389514, Note_off_c, 0, 61, 58
1, 389524, Note_off_c, 0, 53, 54
1, 389557, Note_off_c, 0, 71, 64
1, 389574, Note_on_c, 0, 68, 64
1, 389632, Note_on_c, 0, 71, 74
1, 389641, Note_off_c, 0, 68, 55
1, 389691, Note_off_c, 0, 71, 61
1, 389697, Note_on_c, 0, 61, 73
1, 389750, Note_on_c, 0, 71, 68
1, 389758, Note_off_c, 0, 61, 56
1, 389798, Control_c, 0, 64, 115
1, 389813, Control_c, 0, 64, 82
1, 389817, Note_off_c, 0, 71, 65
1, 389822, Note_on_c, 0, 68, 72
1, 389827, Control_c, 0, 64, 63
1, 389832, Note_on_c, 0, 49, 53
1, 389842, Control_c, 0, 64, 0
1, 389876, Note_on_c, 0, 51, 66
1, 389881, Note_off_c, 0, 49, 60
1, 389886, Note_on_c, 0, 71, 65
1, 389921, Note_on_c, 0, 53, 68
1, 389921, Note_off_c, 0, 68, 57
1, 389938, Note_off_c, 0, 51, 61
1, 389950, Note_off_c, 0, 71, 64
1, 389969, Note_on_c, 0, 54, 109
1, 389975, Note_on_c, 0, 61, 79
1, 389996, Note_off_c, 0, 53, 62
1, 389998, Control_c, 0, 64, 52
1, 390004, Note_off_c, 0, 54, 65
1, 390013, Control_c, 0, 64, 77
1, 390028, Control_c, 0, 64, 111
1, 390042, Control_c, 0, 64, 127
1, 390045, Note_on_c, 0, 70, 81
1, 390052, Note_off_c, 0, 61, 61
1, 390107, Note_off_c, 0, 70, 64
1, 390117, Note_on_c, 0, 68, 70
1, 390174, Note_on_c, 0, 70, 73
1, 390195, Note_off_c, 0, 68, 57
1, 390241, Note_on_c, 0, 61, 82
1, 390252, Note_off_c, 0, 70, 63
1, 390307, Note_off_c, 0, 61, 56
1, 390308, Note_on_c, 0, 70, 74
1, 390380, Note_on_c, 0, 42, 61
1, 390380, Note_off_c, 0, 70, 63
1, 390384, Note_on_c, 0, 66, 76
1, 390428, Note_on_c, 0, 44, 72
1, 390443, Control_c, 0, 64, 91
1, 390445, Note_off_c, 0, 42, 59
1, 390454, Note_on_c, 0, 46, 79
1, 390455, Note_on_c, 0, 70, 73
1, 390458, Control_c, 0, 64, 66
1, 390472, Control_c, 0, 64, 0
1, 390483, Note_off_c, 0, 44, 63
1, 390484, Note_off_c, 0, 66, 61
1, 390514, Note_on_c, 0, 48, 102
1, 390522, Note_off_c, 0, 46, 57
1, 390523, Note_off_c, 0, 70, 61
1, 390532, Control_c, 0, 64, 42
1, 390533, Note_on_c, 0, 63, 89
1, 390547, Control_c, 0, 64, 65
1, 390562, Control_c, 0, 64, 92
1, 390571, Note_off_c, 0, 48, 59
1, 390577, Control_c, 0, 64, 127
1, 390603, Note_on_c, 0, 68, 83
1, 390615, Note_off_c, 0, 63, 57
1, 390673, Note_off_c, 0, 68, 62
1, 390678, Note_on_c, 0, 66, 73
1, 390750, Note_on_c, 0, 68, 74
1, 390777, Note_off_c, 0, 66, 58
1, 390806, Note_on_c, 0, 63, 78
1, 390812, Note_off_c, 0, 68, 60
1, 390874, Note_on_c, 0, 68, 69
1, 390881, Note_off_c, 0, 63, 59
1, 390928, Note_on_c, 0, 66, 75
1, 390938, Note_on_c, 0, 44, 58
1, 390943, Note_off_c, 0, 68, 58
1, 390979, Note_on_c, 0, 46, 70
1, 391006, Note_off_c, 0, 44, 60
1, 391010, Note_on_c, 0, 68, 68
1, 391014, Control_c, 0, 64, 95
1, 391015, Note_on_c, 0, 48, 74
1, 391029, Control_c, 0, 64, 70
1, 391044, Note_off_c, 0, 66, 52
1, 391044, Control_c, 0, 64, 44
1, 391051, Note_off_c, 0, 46, 63
1, 391059, Control_c, 0, 64, 0
1, 391072, Note_off_c, 0, 48, 64
1, 391084, Note_on_c, 0, 50, 104
1, 391089, Note_on_c, 0, 58, 81
1, 391092, Note_off_c, 0, 68, 59
1, 391132, Control_c, 0, 64, 58
1, 391147, Control_c, 0, 64, 76
1, 391159, Note_on_c, 0, 68, 77
1, 391162, Control_c, 0, 64, 127
1, 391168, Note_off_c, 0, 58, 62
1, 391228, Note_off_c, 0, 68, 63
1, 391232, Note_on_c, 0, 65, 73
1, 391296, Note_on_c, 0, 68, 79
1, 391316, Note_off_c, 0, 65, 57
1, 391346, Note_off_c, 0, 50, 49
1, 391364, Note_on_c, 0, 58, 82
1, 391377, Note_off_c, 0, 68, 63
1, 391441, Note_on_c, 0, 68, 75
1, 391443, Note_off_c, 0, 58, 59
1, 391510, Note_on_c, 0, 46, 67
1, 391513, Note_on_c, 0, 65, 79
1, 391525, Note_off_c, 0, 68, 59
1, 391558, Note_on_c, 0, 48, 71
1, 391577, Note_off_c, 0, 46, 62
1, 391589, Note_on_c, 0, 68, 72
1, 391594, Note_on_c, 0, 50, 82
1, 391629, Note_off_c, 0, 48, 62
1, 391653, Note_off_c, 0, 65, 57
1, 391673, Control_c, 0, 64, 105
1, 391678, Note_on_c, 0, 51, 101
1, 391680, Note_off_c, 0, 68, 63
1, 391688, Control_c, 0, 64, 73
1, 391692, Note_on_c, 0, 58, 82
1, 391703, Control_c, 0, 64, 42
1, 391708, Note_off_c, 0, 50, 61
1, 391718, Control_c, 0, 64, 0
1, 391774, Note_on_c, 0, 68, 77
1, 391777, Note_off_c, 0, 58, 62
1, 391778, Control_c, 0, 64, 48
1, 391793, Control_c, 0, 64, 67
1, 391808, Control_c, 0, 64, 82
1, 391823, Control_c, 0, 64, 127
1, 391831, Note_on_c, 0, 65, 76
1, 391837, Note_off_c, 0, 68, 62
1, 391876, Note_off_c, 0, 51, 59
1, 391901, Note_on_c, 0, 68, 71
1, 391921, Note_off_c, 0, 65, 59
1, 391971, Note_on_c, 0, 58, 75
1, 391974, Note_off_c, 0, 68, 60
1, 392037, Note_on_c, 0, 68, 66
1, 392040, Note_off_c, 0, 58, 61
1, 392099, Note_off_c, 0, 68, 62
1, 392109, Note_on_c, 0, 69, 3
1, 392110, Note_on_c, 0, 65, 72
1, 392130, Note_off_c, 0, 69, 0
1, 392157, Poly_aftertouch_c, 0, 69, 0
1, 392182, Note_on_c, 0, 68, 77
1, 392215, Note_off_c, 0, 65, 61
1, 392249, Note_off_c, 0, 68, 59
1, 392265, Note_on_c, 0, 60, 77
1, 392270, Note_on_c, 0, 39, 99
1, 392289, Control_c, 0, 64, 85
1, 392304, Control_c, 0, 64, 63
1, 392319, Control_c, 0, 64, 0
1, 392338, Note_on_c, 0, 66, 73
1, 392345, Note_off_c, 0, 60, 64
1, 392363, Control_c, 0, 64, 58
1, 392378, Control_c, 0, 64, 72
1, 392393, Control_c, 0, 64, 92
1, 392401, Note_on_c, 0, 63, 72
1, 392404, Note_off_c, 0, 66, 58
1, 392408, Control_c, 0, 64, 127
1, 392463, Note_on_c, 0, 66, 65
1, 392499, Note_off_c, 0, 63, 56
1, 392531, Note_on_c, 0, 60, 77
1, 392541, Note_off_c, 0, 66, 61
1, 392589, Note_off_c, 0, 60, 59
1, 392604, Note_on_c, 0, 66, 68
1, 392667, Note_off_c, 0, 66, 60
1, 392680, Note_on_c, 0, 63, 70
1, 392745, Note_on_c, 0, 66, 71
1, 392780, Note_off_c, 0, 63, 59
1, 392808, Note_off_c, 0, 39, 58
1, 392816, Note_on_c, 0, 56, 80
1, 392830, Note_off_c, 0, 66, 61
1, 392833, Note_on_c, 0, 41, 98
1, 392882, Control_c, 0, 64, 87
1, 392884, Note_on_c, 0, 65, 80
1, 392890, Note_off_c, 0, 56, 60
1, 392904, Control_c, 0, 64, 65
1, 392919, Control_c, 0, 64, 0
1, 392949, Control_c, 0, 64, 44
1, 392963, Note_off_c, 0, 65, 62
1, 392964, Control_c, 0, 64, 63
1, 392964, Note_on_c, 0, 61, 78
1, 392979, Control_c, 0, 64, 75
1, 392993, Control_c, 0, 64, 100
1, 393008, Control_c, 0, 64, 127
1, 393026, Note_on_c, 0, 65, 80
1, 393050, Note_off_c, 0, 61, 57
1, 393102, Note_on_c, 0, 56, 84
1, 393117, Note_off_c, 0, 65, 61
1, 393172, Note_on_c, 0, 65, 79
1, 393184, Note_off_c, 0, 56, 59
1, 393241, Note_on_c, 0, 61, 82
1, 393248, Note_off_c, 0, 65, 63
1, 393306, Note_on_c, 0, 65, 75
1, 393334, Note_off_c, 0, 61, 59
1, 393391, Note_on_c, 0, 56, 85
1, 393402, Note_off_c, 0, 65, 61
1, 393410, Note_on_c, 0, 42, 109
1, 393424, Note_off_c, 0, 41, 56
1, 393453, Control_c, 0, 64, 89
1, 393468, Control_c, 0, 64, 65
1, 393472, Note_on_c, 0, 65, 75
1, 393480, Note_off_c, 0, 56, 60
1, 393483, Control_c, 0, 64, 0
1, 393527, Control_c, 0, 64, 54
1, 393538, Note_on_c, 0, 58, 76
1, 393540, Note_off_c, 0, 65, 63
1, 393542, Control_c, 0, 64, 68
1, 393557, Control_c, 0, 64, 88
1, 393572, Control_c, 0, 64, 127
1, 393608, Note_on_c, 0, 65, 76
1, 393608, Note_off_c, 0, 58, 63
1, 393668, Note_off_c, 0, 42, 60
1, 393685, Note_off_c, 0, 65, 59
1, 393688, Note_on_c, 0, 56, 85
1, 393760, Note_on_c, 0, 65, 80
1, 393763, Note_off_c, 0, 56, 58
1, 393819, Note_off_c, 0, 65, 60
1, 393822, Note_on_c, 0, 58, 80
1, 393896, Note_off_c, 0, 58, 62
1, 393901, Note_on_c, 0, 65, 78
1, 393921, Note_on_c, 0, 66, 34
1, 393951, Note_off_c, 0, 66, 33
1, 393954, Note_off_c, 0, 65, 64
1, 393975, Note_on_c, 0, 54, 81
1, 393998, Note_on_c, 0, 30, 110
1, 394050, Note_on_c, 0, 63, 79
1, 394061, Note_off_c, 0, 54, 62
1, 394082, Control_c, 0, 64, 117
1, 394097, Control_c, 0, 64, 76
1, 394112, Control_c, 0, 64, 55
1, 394127, Note_off_c, 0, 63, 61
1, 394127, Note_on_c, 0, 58, 70
1, 394128, Control_c, 0, 64, 0
1, 394157, Control_c, 0, 64, 46
1, 394172, Control_c, 0, 64, 65
1, 394187, Control_c, 0, 64, 79
1, 394197, Note_on_c, 0, 63, 74
1, 394202, Control_c, 0, 64, 127
1, 394212, Note_off_c, 0, 58, 62
1, 394268, Note_on_c, 0, 54, 79
1, 394276, Note_off_c, 0, 63, 59
1, 394340, Note_on_c, 0, 63, 73
1, 394345, Note_off_c, 0, 54, 57
1, 394420, Note_on_c, 0, 58, 74
1, 394421, Note_off_c, 0, 63, 61
1, 394484, Note_on_c, 0, 63, 66
1, 394509, Note_off_c, 0, 58, 57
1, 394521, Note_on_c, 0, 61, 45
1, 394550, Note_off_c, 0, 30, 59
1, 394551, Note_off_c, 0, 61, 54
1, 394571, Note_on_c, 0, 31, 101
1, 394581, Note_off_c, 0, 63, 48
1, 394583, Note_on_c, 0, 53, 78
1, 394655, Control_c, 0, 64, 109
1, 394662, Note_on_c, 0, 61, 69
1, 394670, Control_c, 0, 64, 76
1, 394673, Note_off_c, 0, 53, 62
1, 394684, Control_c, 0, 64, 56
1, 394699, Control_c, 0, 64, 0
1, 394727, Note_on_c, 0, 58, 71
1, 394736, Note_off_c, 0, 61, 60
1, 394744, Control_c, 0, 64, 58
1, 394758, Control_c, 0, 64, 71
1, 394773, Control_c, 0, 64, 86
1, 394788, Control_c, 0, 64, 127
1, 394801, Note_on_c, 0, 61, 70
1, 394845, Note_off_c, 0, 58, 52
1, 394876, Note_on_c, 0, 53, 75
1, 394881, Note_off_c, 0, 61, 56
1, 394946, Note_on_c, 0, 61, 69
1, 394952, Note_off_c, 0, 53, 60
1, 395009, Note_on_c, 0, 58, 76
1, 395017, Note_off_c, 0, 61, 60
1, 395092, Note_on_c, 0, 61, 73
1, 395155, Note_off_c, 0, 58, 59
1, 395199, Note_on_c, 0, 32, 99
1, 395203, Note_on_c, 0, 53, 74
1, 395204, Note_off_c, 0, 61, 51
1, 395221, Note_off_c, 0, 31, 59
1, 395270, Note_off_c, 0, 53, 56
1, 395275, Note_on_c, 0, 61, 68
1, 395335, Note_on_c, 0, 56, 78
1, 395337, Note_off_c, 0, 61, 60
1, 395344, Control_c, 0, 64, 119
1, 395359, Control_c, 0, 64, 79
1, 395373, Control_c, 0, 64, 60
1, 395388, Control_c, 0, 64, 0
1, 395409, Note_off_c, 0, 56, 60
1, 395412, Note_on_c, 0, 61, 71
1, 395433, Control_c, 0, 64, 38
1, 395448, Control_c, 0, 64, 62
1, 395462, Control_c, 0, 64, 72
1, 395468, Note_off_c, 0, 61, 57
1, 395477, Control_c, 0, 64, 88
1, 395492, Control_c, 0, 64, 127
1, 395494, Note_on_c, 0, 53, 60
1, 395528, Note_off_c, 0, 53, 62
1, 395549, Note_on_c, 0, 61, 67
1, 395604, Note_off_c, 0, 61, 54
1, 395614, Note_on_c, 0, 56, 71
1, 395687, Note_on_c, 0, 61, 70
1, 395689, Note_off_c, 0, 56, 57
1, 395758, Note_on_c, 0, 51, 66
1, 395758, Note_off_c, 0, 61, 58
1, 395812, Note_on_c, 0, 60, 72
1, 395818, Note_off_c, 0, 51, 58
1, 395834, Control_c, 0, 64, 94
1, 395848, Control_c, 0, 64, 67
1, 395863, Control_c, 0, 64, 40
1, 395875, Note_off_c, 0, 60, 66
1, 395878, Control_c, 0, 64, 0
1, 395883, Note_on_c, 0, 56, 72
1, 395916, Control_c, 0, 64, 43
1, 395930, Control_c, 0, 64, 62
1, 395945, Control_c, 0, 64, 75
1, 395958, Note_off_c, 0, 56, 59
1, 395959, Note_on_c, 0, 60, 69
1, 395960, Control_c, 0, 64, 93
1, 395975, Control_c, 0, 64, 127
1, 396023, Note_on_c, 0, 51, 76
1, 396024, Note_off_c, 0, 60, 62
1, 396088, Note_on_c, 0, 60, 70
1, 396088, Note_off_c, 0, 51, 57
1, 396149, Note_off_c, 0, 60, 64
1, 396154, Note_on_c, 0, 56, 79
1, 396217, Note_on_c, 0, 60, 69
1, 396226, Note_off_c, 0, 56, 59
1, 396270, Note_off_c, 0, 60, 64
1, 396270, Control_c, 0, 64, 117
1, 396285, Control_c, 0, 64, 84
1, 396300, Control_c, 0, 64, 64
1, 396301, Note_on_c, 0, 49, 72
1, 396315, Control_c, 0, 64, 36
1, 396330, Control_c, 0, 64, 0
1, 396345, Note_off_c, 0, 49, 53
1, 396345, Control_c, 0, 64, 47
1, 396360, Control_c, 0, 64, 62
1, 396363, Note_on_c, 0, 58, 78
1, 396374, Control_c, 0, 64, 72
1, 396389, Control_c, 0, 64, 88
1, 396404, Control_c, 0, 64, 127
1, 396426, Note_on_c, 0, 53, 75
1, 396431, Note_off_c, 0, 58, 62
1, 396503, Note_off_c, 0, 53, 56
1, 396505, Note_on_c, 0, 58, 68
1, 396519, Note_off_c, 0, 32, 50
1, 396565, Note_on_c, 0, 49, 73
1, 396568, Note_off_c, 0, 58, 61
1, 396619, Note_off_c, 0, 49, 54
1, 396632, Note_on_c, 0, 58, 71
1, 396704, Note_on_c, 0, 53, 77
1, 396704, Note_off_c, 0, 58, 62
1, 396769, Note_on_c, 0, 58, 70
1, 396786, Note_off_c, 0, 53, 58
1, 396859, Note_on_c, 0, 49, 69
1, 396861, Note_off_c, 0, 58, 63
1, 396864, Note_on_c, 0, 32, 101
1, 396932, Note_on_c, 0, 58, 64
1, 396941, Note_off_c, 0, 49, 61
1, 396992, Note_off_c, 0, 58, 62
1, 396994, Note_on_c, 0, 53, 72
1, 397004, Control_c, 0, 64, 92
1, 397019, Control_c, 0, 64, 71
1, 397034, Control_c, 0, 64, 53
1, 397049, Control_c, 0, 64, 0
1, 397072, Note_off_c, 0, 53, 58
1, 397077, Note_on_c, 0, 58, 56
1, 397093, Control_c, 0, 64, 52
1, 397108, Control_c, 0, 64, 65
1, 397123, Control_c, 0, 64, 75
1, 397128, Note_off_c, 0, 58, 61
1, 397138, Control_c, 0, 64, 94
1, 397141, Note_on_c, 0, 49, 69
1, 397153, Control_c, 0, 64, 127
1, 397205, Note_on_c, 0, 58, 62
1, 397208, Note_off_c, 0, 49, 61
1, 397260, Note_off_c, 0, 58, 60
1, 397266, Note_on_c, 0, 53, 68
1, 397349, Note_on_c, 0, 58, 67
1, 397354, Note_off_c, 0, 53, 51
1, 397418, Note_off_c, 0, 58, 60
1, 397435, Note_on_c, 0, 48, 67
1, 397501, Control_c, 0, 64, 112
1, 397502, Note_on_c, 0, 56, 77
1, 397502, Note_off_c, 0, 48, 54
1, 397516, Control_c, 0, 64, 84
1, 397531, Control_c, 0, 64, 66
1, 397546, Control_c, 0, 64, 0
1, 397560, Note_off_c, 0, 56, 60
1, 397569, Note_on_c, 0, 51, 66
1, 397591, Control_c, 0, 64, 41
1, 397606, Control_c, 0, 64, 59
1, 397621, Control_c, 0, 64, 67
1, 397635, Note_off_c, 0, 51, 61
1, 397635, Control_c, 0, 64, 78
1, 397636, Note_on_c, 0, 56, 70
1, 397650, Control_c, 0, 64, 91
1, 397665, Control_c, 0, 64, 103
1, 397680, Control_c, 0, 64, 116
1, 397695, Control_c, 0, 64, 127
1, 397704, Note_off_c, 0, 56, 58
1, 397707, Note_on_c, 0, 48, 69
1, 397749, Note_off_c, 0, 48, 53
1, 397760, Note_on_c, 0, 56, 66
1, 397822, Note_off_c, 0, 56, 60
1, 397827, Note_on_c, 0, 51, 68
1, 397892, Note_on_c, 0, 56, 71
1, 397904, Note_off_c, 0, 51, 58
1, 397931, Control_c, 0, 64, 104
1, 397946, Control_c, 0, 64, 82
1, 397960, Control_c, 0, 64, 65
1, 397972, Note_on_c, 0, 46, 64
1, 397972, Note_off_c, 0, 56, 61
1, 397975, Control_c, 0, 64, 38
1, 397990, Control_c, 0, 64, 0
1, 398020, Control_c, 0, 64, 39
1, 398035, Control_c, 0, 64, 60
1, 398038, Note_on_c, 0, 55, 68
1, 398041, Note_off_c, 0, 46, 61
1, 398050, Control_c, 0, 64, 68
1, 398065, Control_c, 0, 64, 77
1, 398080, Control_c, 0, 64, 89
1, 398094, Control_c, 0, 64, 99
1, 398097, Note_off_c, 0, 55, 62
1, 398105, Note_on_c, 0, 49, 73
1, 398109, Control_c, 0, 64, 106
1, 398124, Control_c, 0, 64, 112
1, 398147, Control_c, 0, 64, 115
1, 398161, Note_off_c, 0, 32, 44
1, 398162, Control_c, 0, 64, 119
1, 398166, Note_off_c, 0, 49, 61
1, 398174, Note_on_c, 0, 55, 65
1, 398177, Control_c, 0, 64, 124
1, 398192, Control_c, 0, 64, 127
1, 398246, Note_off_c, 0, 55, 60
1, 398251, Note_on_c, 0, 46, 64
1, 398287, Note_off_c, 0, 46, 56
1, 398317, Note_on_c, 0, 55, 61
1, 398386, Note_off_c, 0, 55, 61
1, 398390, Note_on_c, 0, 49, 66
1, 398447, Note_off_c, 0, 49, 54
1, 398458, Control_c, 0, 64, 117
1, 398461, Note_on_c, 0, 55, 57
1, 398473, Control_c, 0, 64, 111
1, 398488, Control_c, 0, 64, 104
1, 398503, Control_c, 0, 64, 98
1, 398517, Control_c, 0, 64, 92
1, 398532, Control_c, 0, 64, 87
1, 398547, Control_c, 0, 64, 82
1, 398562, Control_c, 0, 64, 78
1, 398569, Note_on_c, 0, 32, 40
1, 398576, Control_c, 0, 64, 74
1, 398591, Control_c, 0, 64, 69
1, 398606, Control_c, 0, 64, 65
1, 398611, Note_off_c, 0, 55, 58
1, 398621, Control_c, 0, 64, 61
1, 398622, Note_on_c, 0, 48, 52
1, 398636, Control_c, 0, 64, 56
1, 398650, Control_c, 0, 64, 53
1, 398665, Control_c, 0, 64, 52
1, 398680, Control_c, 0, 64, 51
1, 398695, Control_c, 0, 64, 50
1, 398710, Control_c, 0, 64, 48
1, 398724, Control_c, 0, 64, 45
1, 398739, Control_c, 0, 64, 42
1, 398754, Control_c, 0, 64, 39
1, 398768, Control_c, 0, 64, 37
1, 398775, Note_on_c, 0, 56, 70
1, 398783, Control_c, 0, 64, 35
1, 398798, Control_c, 0, 64, 0
1, 398830, Note_off_c, 0, 48, 39
1, 398911, Note_on_c, 0, 51, 69
1, 398948, Note_off_c, 0, 56, 58
1, 399037, Note_on_c, 0, 48, 74
1, 399069, Note_off_c, 0, 51, 62
1, 399159, Note_off_c, 0, 48, 63
1, 399168, Note_on_c, 0, 44, 67
1, 399305, Note_on_c, 0, 51, 61
1, 399317, Note_off_c, 0, 44, 55
1, 399441, Note_on_c, 0, 48, 65
1, 399465, Note_off_c, 0, 51, 57
1, 399558, Note_on_c, 0, 44, 69
1, 399559, Note_off_c, 0, 48, 60
1, 399708, Note_on_c, 0, 39, 60
1, 399720, Note_off_c, 0, 44, 58
1, 399856, Note_on_c, 0, 48, 59
1, 399857, Note_off_c, 0, 39, 58
1, 399971, Note_off_c, 0, 48, 55
1, 399981, Note_on_c, 0, 44, 56
1, 400114, Note_on_c, 0, 39, 54
1, 400121, Note_off_c, 0, 44, 54
1, 400250, Note_off_c, 0, 39, 48
1, 400274, Note_on_c, 0, 36, 43
1, 400306, Note_off_c, 0, 32, 42
1, 400411, Note_on_c, 0, 44, 47
1, 400432, Note_off_c, 0, 36, 35
1, 400452, Control_c, 0, 64, 34
1, 400467, Control_c, 0, 64, 45
1, 400482, Control_c, 0, 64, 55
1, 400497, Control_c, 0, 64, 64
1, 400512, Control_c, 0, 64, 70
1, 400527, Control_c, 0, 64, 79
1, 400542, Control_c, 0, 64, 88
1, 400557, Control_c, 0, 64, 98
1, 400564, Note_on_c, 0, 39, 56
1, 400572, Control_c, 0, 64, 110
1, 400587, Control_c, 0, 64, 127
1, 400682, Note_on_c, 0, 48, 52
1, 400682, Note_off_c, 0, 39, 61
1, 400722, Note_off_c, 0, 48, 61
1, 400738, Note_off_c, 0, 44, 43
1, 400831, Note_on_c, 0, 44, 52
1, 400883, Control_c, 0, 64, 114
1, 400898, Control_c, 0, 64, 104
1, 400913, Control_c, 0, 64, 96
1, 400927, Control_c, 0, 64, 88
1, 400942, Control_c, 0, 64, 80
1, 400952, Note_on_c, 0, 51, 56
1, 400957, Control_c, 0, 64, 72
1, 400971, Control_c, 0, 64, 64
1, 400986, Control_c, 0, 64, 52
1, 401001, Control_c, 0, 64, 0
1, 401034, Note_off_c, 0, 44, 37
1, 401105, Control_c, 0, 64, 44
1, 401111, Note_on_c, 0, 48, 54
1, 401119, Control_c, 0, 64, 61
1, 401141, Control_c, 0, 64, 67
1, 401156, Control_c, 0, 64, 72
1, 401171, Control_c, 0, 64, 77
1, 401186, Control_c, 0, 64, 82
1, 401192, Note_off_c, 0, 51, 0
1, 401201, Control_c, 0, 64, 87
1, 401210, Note_off_c, 0, 48, 60
1, 401216, Control_c, 0, 64, 92
1, 401230, Control_c, 0, 64, 99
1, 401236, Note_on_c, 0, 56, 57
1, 401245, Control_c, 0, 64, 105
1, 401260, Control_c, 0, 64, 109
1, 401263, Poly_aftertouch_c, 0, 51, 0
1, 401269, Note_off_c, 0, 56, 61
1, 401365, Control_c, 0, 64, 107
1, 401372, Note_on_c, 0, 51, 58
1, 401380, Control_c, 0, 64, 102
1, 401394, Control_c, 0, 64, 96
1, 401409, Control_c, 0, 64, 89
1, 401424, Control_c, 0, 64, 81
1, 401439, Control_c, 0, 64, 74
1, 401454, Control_c, 0, 64, 68
1, 401468, Control_c, 0, 64, 61
1, 401483, Control_c, 0, 64, 50
1, 401498, Control_c, 0, 64, 39
1, 401511, Note_on_c, 0, 60, 55
1, 401511, Note_off_c, 0, 51, 53
1, 401513, Control_c, 0, 64, 0
1, 401648, Note_on_c, 0, 56, 51
1, 401661, Control_c, 0, 64, 43
1, 401675, Control_c, 0, 64, 57
1, 401690, Control_c, 0, 64, 64
1, 401705, Control_c, 0, 64, 68
1, 401719, Control_c, 0, 64, 74
1, 401734, Control_c, 0, 64, 80
1, 401749, Control_c, 0, 64, 85
1, 401764, Control_c, 0, 64, 91
1, 401766, Note_off_c, 0, 56, 55
1, 401767, Note_on_c, 0, 63, 51
1, 401779, Control_c, 0, 64, 97
1, 401793, Control_c, 0, 64, 103
1, 401794, Note_off_c, 0, 60, 35
1, 401808, Control_c, 0, 64, 108
1, 401809, Note_off_c, 0, 63, 61
1, 401823, Control_c, 0, 64, 112
1, 401913, Note_on_c, 0, 60, 59
1, 401979, Control_c, 0, 64, 109
1, 401993, Control_c, 0, 64, 104
1, 402008, Control_c, 0, 64, 95
1, 402023, Control_c, 0, 64, 83
1, 402034, Note_on_c, 0, 68, 57
1, 402038, Control_c, 0, 64, 73
1, 402043, Note_off_c, 0, 60, 49
1, 402053, Control_c, 0, 64, 63
1, 402067, Control_c, 0, 64, 47
1, 402082, Control_c, 0, 64, 0
1, 402158, Control_c, 0, 64, 42
1, 402172, Control_c, 0, 64, 56
1, 402179, Note_on_c, 0, 63, 46
1, 402187, Control_c, 0, 64, 65
1, 402200, Note_off_c, 0, 68, 34
1, 402202, Control_c, 0, 64, 71
1, 402216, Control_c, 0, 64, 77
1, 402231, Control_c, 0, 64, 83
1, 402246, Control_c, 0, 64, 86
1, 402261, Control_c, 0, 64, 90
1, 402276, Control_c, 0, 64, 94
1, 402286, Note_off_c, 0, 63, 62
1, 402290, Control_c, 0, 64, 100
1, 402304, Note_on_c, 0, 72, 54
1, 402305, Control_c, 0, 64, 106
1, 402320, Control_c, 0, 64, 113
1, 402330, Note_off_c, 0, 72, 64
1, 402334, Control_c, 0, 64, 117
1, 402349, Control_c, 0, 64, 120
1, 402364, Control_c, 0, 64, 124
1, 402436, Note_on_c, 0, 68, 58
1, 402468, Control_c, 0, 64, 120
1, 402484, Control_c, 0, 64, 108
1, 402498, Control_c, 0, 64, 95
1, 402513, Control_c, 0, 64, 79
1, 402528, Control_c, 0, 64, 68
1, 402542, Control_c, 0, 64, 56
1, 402557, Control_c, 0, 64, 35
1, 402566, Note_on_c, 0, 75, 50
1, 402572, Control_c, 0, 64, 0
1, 402574, Note_off_c, 0, 68, 51
1, 402602, Control_c, 0, 64, 38
1, 402617, Control_c, 0, 64, 48
1, 402632, Control_c, 0, 64, 53
1, 402654, Control_c, 0, 64, 61
1, 402669, Control_c, 0, 64, 67
1, 402684, Control_c, 0, 64, 74
1, 402698, Control_c, 0, 64, 83
1, 402711, Note_on_c, 0, 72, 52
1, 402713, Control_c, 0, 64, 91
1, 402728, Control_c, 0, 64, 96
1, 402742, Control_c, 0, 64, 102
1, 402757, Note_off_c, 0, 75, 0
1, 402757, Control_c, 0, 64, 109
1, 402772, Control_c, 0, 64, 117
1, 402787, Control_c, 0, 64, 127
1, 402794, Note_off_c, 0, 72, 47
1, 402795, Poly_aftertouch_c, 0, 75, 127
1, 402841, Note_on_c, 0, 80, 49
1, 402851, Poly_aftertouch_c, 0, 75, 0
1, 402873, Note_off_c, 0, 80, 53
1, 402984, Note_on_c, 0, 75, 45
1, 402995, Control_c, 0, 64, 107
1, 403010, Control_c, 0, 64, 92
1, 403025, Control_c, 0, 64, 75
1, 403040, Control_c, 0, 64, 63
1, 403055, Control_c, 0, 64, 42
1, 403070, Control_c, 0, 64, 0
1, 403141, Note_on_c, 0, 84, 48
1, 403143, Note_off_c, 0, 75, 53
1, 403158, Control_c, 0, 64, 35
1, 403173, Control_c, 0, 64, 39
1, 403188, Control_c, 0, 64, 40
1, 403218, Control_c, 0, 64, 38
1, 403232, Control_c, 0, 64, 37
1, 403246, Control_c, 0, 64, 34
1, 403261, Control_c, 0, 64, 0
1, 403274, Note_off_c, 0, 84, 57
1, 403278, Note_on_c, 0, 80, 49
1, 403305, Control_c, 0, 64, 37
1, 403320, Control_c, 0, 64, 42
1, 403335, Control_c, 0, 64, 47
1, 403350, Control_c, 0, 64, 54
1, 403365, Control_c, 0, 64, 61
1, 403380, Control_c, 0, 64, 65
1, 403402, Control_c, 0, 64, 67
1, 403417, Control_c, 0, 64, 69
1, 403432, Control_c, 0, 64, 71
1, 403446, Control_c, 0, 64, 74
1, 403457, Note_on_c, 0, 87, 51
1, 403461, Control_c, 0, 64, 77
1, 403476, Control_c, 0, 64, 80
1, 403487, Note_off_c, 0, 80, 36
1, 403490, Control_c, 0, 64, 83
1, 403505, Control_c, 0, 64, 86
1, 403520, Control_c, 0, 64, 89
1, 403535, Control_c, 0, 64, 92
1, 403549, Note_off_c, 0, 87, 51
1, 403550, Control_c, 0, 64, 93
1, 403565, Control_c, 0, 64, 94
1, 403579, Control_c, 0, 64, 94
1, 403594, Control_c, 0, 64, 95
1, 403609, Control_c, 0, 64, 95
1, 403732, Note_on_c, 0, 55, 28
1, 403749, Note_on_c, 0, 58, 26
1, 403758, Control_c, 0, 64, 94
1, 403773, Control_c, 0, 64, 90
1, 403788, Control_c, 0, 64, 81
1, 403788, Note_on_c, 0, 61, 26
1, 403803, Control_c, 0, 64, 72
1, 403813, Note_on_c, 0, 88, 45
1, 403818, Control_c, 0, 64, 62
1, 403833, Control_c, 0, 64, 45
1, 403848, Control_c, 0, 64, 0
1, 403862, Control_c, 0, 64, 34
1, 403877, Control_c, 0, 64, 40
1, 403892, Control_c, 0, 64, 47
1, 403906, Control_c, 0, 64, 54
1, 403921, Control_c, 0, 64, 62
1, 403936, Control_c, 0, 64, 68
1, 403951, Control_c, 0, 64, 75
1, 403966, Control_c, 0, 64, 83
1, 403980, Control_c, 0, 64, 89
1, 403995, Control_c, 0, 64, 94
1, 404010, Control_c, 0, 64, 100
1, 404025, Control_c, 0, 64, 107
1, 404040, Control_c, 0, 64, 119
1, 404043, Note_off_c, 0, 88, 51
1, 404054, Control_c, 0, 64, 127
1, 404527, Note_on_c, 0, 82, 46
1, 404658, Note_on_c, 0, 85, 59
1, 404672, Note_off_c, 0, 82, 44
1, 404687, Note_off_c, 0, 85, 66
1, 404780, Note_on_c, 0, 79, 65
1, 404804, Control_c, 0, 64, 85
1, 404819, Control_c, 0, 64, 68
1, 404834, Control_c, 0, 64, 55
1, 404849, Control_c, 0, 64, 47
1, 404864, Control_c, 0, 64, 53
1, 404885, Control_c, 0, 64, 58
1, 404900, Control_c, 0, 64, 62
1, 404903, Note_off_c, 0, 79, 62
1, 404915, Control_c, 0, 64, 69
1, 404920, Note_on_c, 0, 82, 60
1, 404930, Control_c, 0, 64, 78
1, 404945, Control_c, 0, 64, 94
1, 404945, Note_off_c, 0, 82, 62
1, 404960, Control_c, 0, 64, 110
1, 404975, Control_c, 0, 64, 119
1, 405004, Control_c, 0, 64, 115
1, 405019, Control_c, 0, 64, 95
1, 405031, Note_on_c, 0, 76, 62
1, 405034, Control_c, 0, 64, 79
1, 405049, Control_c, 0, 64, 66
1, 405064, Control_c, 0, 64, 51
1, 405079, Control_c, 0, 64, 34
1, 405093, Control_c, 0, 64, 38
1, 405108, Control_c, 0, 64, 47
1, 405123, Control_c, 0, 64, 55
1, 405130, Note_off_c, 0, 76, 62
1, 405137, Control_c, 0, 64, 60
1, 405152, Control_c, 0, 64, 64
1, 405153, Note_on_c, 0, 79, 63
1, 405167, Control_c, 0, 64, 69
1, 405182, Control_c, 0, 64, 77
1, 405184, Note_off_c, 0, 79, 63
1, 405197, Control_c, 0, 64, 83
1, 405211, Control_c, 0, 64, 85
1, 405226, Control_c, 0, 64, 86
1, 405269, Note_on_c, 0, 73, 65
1, 405270, Control_c, 0, 64, 85
1, 405285, Control_c, 0, 64, 81
1, 405300, Control_c, 0, 64, 72
1, 405316, Control_c, 0, 64, 60
1, 405331, Control_c, 0, 64, 42
1, 405346, Control_c, 0, 64, 0
1, 405409, Note_off_c, 0, 73, 57
1, 405413, Note_on_c, 0, 76, 61
1, 405420, Control_c, 0, 64, 45
1, 405434, Control_c, 0, 64, 55
1, 405449, Control_c, 0, 64, 59
1, 405462, Note_off_c, 0, 55, 51
1, 405464, Note_off_c, 0, 76, 53
1, 405464, Control_c, 0, 64, 61
1, 405479, Control_c, 0, 64, 60
1, 405482, Note_off_c, 0, 61, 41
1, 405494, Control_c, 0, 64, 59
1, 405506, Note_on_c, 0, 70, 66
1, 405508, Control_c, 0, 64, 56
1, 405510, Note_off_c, 0, 58, 44
1, 405523, Control_c, 0, 64, 50
1, 405538, Control_c, 0, 64, 43
1, 405553, Control_c, 0, 64, 37
1, 405568, Control_c, 0, 64, 0
1, 405649, Note_on_c, 0, 73, 61
1, 405654, Note_off_c, 0, 70, 59
1, 405743, Note_off_c, 0, 73, 61
1, 405772, Note_on_c, 0, 67, 57
1, 405890, Note_off_c, 0, 67, 60
1, 405916, Note_on_c, 0, 70, 51
1, 405954, Note_off_c, 0, 70, 65
1, 406179, Note_on_c, 0, 55, 45
1, 406182, Note_on_c, 0, 70, 44
1, 406183, Note_on_c, 0, 64, 45
1, 406188, Note_on_c, 0, 43, 38
1, 406189, Note_on_c, 0, 73, 44
1, 406220, Note_off_c, 0, 55, 61
1, 406222, Note_off_c, 0, 64, 49
1, 406226, Note_off_c, 0, 43, 52
1, 406232, Note_off_c, 0, 70, 62
1, 406242, Note_off_c, 0, 73, 58
1, 406445, Note_on_c, 0, 64, 67
1, 406446, Note_on_c, 0, 55, 63
1, 406447, Note_on_c, 0, 73, 72
1, 406449, Note_on_c, 0, 43, 60
1, 406454, Note_on_c, 0, 70, 65
1, 406475, Note_off_c, 0, 55, 65
1, 406477, Note_off_c, 0, 64, 61
1, 406485, Note_off_c, 0, 43, 64
1, 406492, Note_off_c, 0, 70, 63
1, 406514, Note_off_c, 0, 73, 60
1, 406689, Note_on_c, 0, 73, 93
1, 406689, Note_on_c, 0, 53, 87
1, 406692, Note_on_c, 0, 65, 87
1, 406697, Note_on_c, 0, 41, 63
1, 406699, Note_on_c, 0, 70, 73
1, 406721, Note_off_c, 0, 53, 65
1, 406728, Note_off_c, 0, 41, 63
1, 406731, Note_off_c, 0, 70, 61
1, 406734, Note_off_c, 0, 65, 60
1, 406748, Note_off_c, 0, 73, 55
1, 406962, Control_c, 0, 64, 49
1, 406977, Control_c, 0, 64, 66
1, 406981, Note_on_c, 0, 52, 86
1, 406986, Note_on_c, 0, 72, 96
1, 406990, Note_on_c, 0, 40, 60
1, 406992, Note_on_c, 0, 67, 82
1, 406992, Control_c, 0, 64, 97
1, 406999, Note_on_c, 0, 70, 74
1, 407006, Control_c, 0, 64, 127
1, 407016, Note_off_c, 0, 40, 58
1, 407022, Note_off_c, 0, 52, 62
1, 407042, Note_off_c, 0, 67, 60
1, 407064, Note_off_c, 0, 72, 62
1, 407074, Note_off_c, 0, 70, 62
1, 407592, Control_c, 0, 64, 104
1, 407606, Control_c, 0, 64, 92
1, 407621, Control_c, 0, 64, 84
1, 407636, Control_c, 0, 64, 78
1, 407636, Note_on_c, 0, 48, 50
1, 407650, Control_c, 0, 64, 71
1, 407665, Control_c, 0, 64, 65
1, 407680, Control_c, 0, 64, 58
1, 407695, Control_c, 0, 64, 50
1, 407711, Control_c, 0, 64, 46
1, 407726, Control_c, 0, 64, 43
1, 407741, Control_c, 0, 64, 41
1, 407755, Control_c, 0, 64, 39
1, 407770, Control_c, 0, 64, 36
1, 407773, Note_off_c, 0, 48, 62
1, 407777, Note_on_c, 0, 55, 60
1, 407785, Control_c, 0, 64, 35
1, 407800, Control_c, 0, 64, 34
1, 407814, Note_off_c, 0, 55, 65
1, 407903, Note_on_c, 0, 52, 61
1, 408026, Note_off_c, 0, 52, 62
1, 408031, Note_on_c, 0, 58, 68
1, 408069, Note_off_c, 0, 58, 63
1, 408103, Control_c, 0, 64, 34
1, 408135, Note_on_c, 0, 55, 62
1, 408256, Note_off_c, 0, 55, 63
1, 408262, Note_on_c, 0, 61, 68
1, 408309, Note_off_c, 0, 61, 58
1, 408368, Note_on_c, 0, 58, 67
1, 408400, Control_c, 0, 64, 33
1, 408444, Control_c, 0, 64, 0
1, 408489, Note_on_c, 0, 64, 62
1, 408492, Note_off_c, 0, 58, 63
1, 408528, Note_off_c, 0, 64, 65
1, 408607, Note_on_c, 0, 61, 68
1, 408738, Note_off_c, 0, 61, 60
1, 408739, Note_on_c, 0, 67, 67
1, 408817, Note_off_c, 0, 67, 62
1, 408852, Note_on_c, 0, 64, 67
1, 408934, Note_off_c, 0, 64, 61
1, 408985, Control_c, 0, 64, 34
1, 408993, Note_on_c, 0, 70, 66
1, 409000, Control_c, 0, 64, 59
1, 409015, Control_c, 0, 64, 68
1, 409029, Control_c, 0, 64, 74
1, 409044, Control_c, 0, 64, 83
1, 409050, Note_off_c, 0, 70, 64
1, 409059, Control_c, 0, 64, 92
1, 409074, Control_c, 0, 64, 104
1, 409089, Control_c, 0, 64, 127
1, 409273, Note_on_c, 0, 76, 68
1, 409273, Note_on_c, 0, 67, 54
1, 409276, Note_on_c, 0, 73, 56
1, 409278, Note_on_c, 0, 58, 62
1, 409279, Note_on_c, 0, 46, 61
1, 409301, Note_off_c, 0, 67, 62
1, 409311, Note_off_c, 0, 73, 66
1, 409312, Control_c, 0, 64, 108
1, 409314, Note_off_c, 0, 58, 64
1, 409322, Note_off_c, 0, 76, 48
1, 409324, Note_off_c, 0, 46, 61
1, 409327, Control_c, 0, 64, 85
1, 409342, Control_c, 0, 64, 70
1, 409356, Control_c, 0, 64, 56
1, 409379, Control_c, 0, 64, 0
1, 409525, Note_on_c, 0, 77, 85
1, 409526, Note_on_c, 0, 68, 83
1, 409526, Note_on_c, 0, 56, 89
1, 409533, Note_on_c, 0, 72, 74
1, 409535, Note_on_c, 0, 44, 71
1, 409556, Note_off_c, 0, 72, 69
1, 409571, Note_off_c, 0, 44, 67
1, 409573, Note_off_c, 0, 68, 61
1, 409574, Note_off_c, 0, 56, 59
1, 409587, Note_off_c, 0, 77, 64
1, 409769, Note_on_c, 0, 79, 92
1, 409771, Note_on_c, 0, 70, 80
1, 409776, Note_on_c, 0, 76, 72
1, 409777, Note_on_c, 0, 55, 88
1, 409786, Note_on_c, 0, 43, 70
1, 409808, Note_off_c, 0, 76, 66
1, 409809, Note_off_c, 0, 70, 63
1, 409810, Note_on_c, 0, 80, 42
1, 409813, Note_off_c, 0, 55, 61
1, 409816, Note_off_c, 0, 43, 65
1, 409825, Note_off_c, 0, 79, 66
1, 409839, Note_off_c, 0, 80, 54
1, 409926, Note_on_c, 0, 78, 40
1, 409959, Note_off_c, 0, 78, 51
1, 410051, Note_on_c, 0, 53, 92
1, 410053, Note_on_c, 0, 80, 97
1, 410056, Note_on_c, 0, 72, 83
1, 410057, Note_on_c, 0, 41, 73
1, 410062, Note_on_c, 0, 77, 80
1, 410075, Control_c, 0, 64, 45
1, 410090, Control_c, 0, 64, 73
1, 410097, Note_off_c, 0, 72, 63
1, 410104, Note_off_c, 0, 41, 62
1, 410106, Control_c, 0, 64, 127
1, 410112, Note_off_c, 0, 77, 65
1, 410116, Note_off_c, 0, 80, 65
1, 410120, Note_off_c, 0, 53, 62
1, 410684, Note_on_c, 0, 56, 55
1, 410786, Note_off_c, 0, 56, 56
1, 410815, Note_on_c, 0, 65, 58
1, 410824, Control_c, 0, 64, 99
1, 410839, Control_c, 0, 64, 87
1, 410850, Note_off_c, 0, 65, 66
1, 410854, Control_c, 0, 64, 77
1, 410869, Control_c, 0, 64, 68
1, 410891, Control_c, 0, 64, 57
1, 410907, Control_c, 0, 64, 44
1, 410914, Note_on_c, 0, 60, 72
1, 410921, Control_c, 0, 64, 34
1, 410936, Control_c, 0, 64, 0
1, 411031, Note_off_c, 0, 60, 62
1, 411048, Note_on_c, 0, 68, 76
1, 411113, Note_off_c, 0, 68, 63
1, 411161, Note_on_c, 0, 65, 87
1, 411267, Note_off_c, 0, 65, 61
1, 411279, Note_on_c, 0, 72, 83
1, 411327, Note_off_c, 0, 72, 62
1, 411383, Note_on_c, 0, 68, 88
1, 411510, Note_on_c, 0, 77, 80
1, 411518, Note_off_c, 0, 68, 63
1, 411562, Note_off_c, 0, 77, 63
1, 411615, Note_on_c, 0, 72, 85
1, 411724, Note_off_c, 0, 72, 57
1, 411744, Note_on_c, 0, 80, 91
1, 411810, Note_off_c, 0, 80, 64
1, 411846, Note_on_c, 0, 77, 92
1, 411996, Control_c, 0, 64, 55
1, 412010, Control_c, 0, 64, 67
1, 412011, Note_off_c, 0, 77, 51
1, 412018, Note_on_c, 0, 84, 98
1, 412025, Control_c, 0, 64, 77
1, 412040, Control_c, 0, 64, 96
1, 412054, Control_c, 0, 64, 127
1, 412081, Note_off_c, 0, 84, 64
1, 412293, Note_on_c, 0, 72, 85
1, 412296, Note_on_c, 0, 53, 85
1, 412296, Note_on_c, 0, 65, 82
1, 412299, Note_on_c, 0, 41, 69
1, 412299, Note_on_c, 0, 68, 77
1, 412323, Note_off_c, 0, 65, 63
1, 412335, Note_off_c, 0, 41, 61
1, 412342, Note_off_c, 0, 68, 59
1, 412344, Note_off_c, 0, 53, 59
1, 412355, Note_off_c, 0, 72, 58
1, 412403, Control_c, 0, 64, 86
1, 412418, Control_c, 0, 64, 69
1, 412433, Control_c, 0, 64, 55
1, 412448, Control_c, 0, 64, 0
1, 412550, Note_on_c, 0, 53, 89
1, 412555, Note_on_c, 0, 65, 97
1, 412557, Note_on_c, 0, 72, 88
1, 412558, Note_on_c, 0, 41, 66
1, 412561, Note_on_c, 0, 68, 82
1, 412574, Note_off_c, 0, 53, 67
1, 412580, Note_off_c, 0, 41, 62
1, 412603, Note_off_c, 0, 65, 63
1, 412626, Note_off_c, 0, 72, 60
1, 412629, Note_off_c, 0, 68, 61
1, 412797, Note_on_c, 0, 51, 80
1, 412804, Note_on_c, 0, 39, 70
1, 412808, Note_on_c, 0, 72, 103
1, 412809, Note_on_c, 0, 67, 93
1, 412843, Note_off_c, 0, 39, 64
1, 412847, Note_off_c, 0, 51, 61
1, 412877, Note_off_c, 0, 67, 56
1, 412907, Note_off_c, 0, 72, 54
1, 413071, Control_c, 0, 64, 51
1, 413086, Control_c, 0, 64, 69
1, 413086, Note_on_c, 0, 72, 89
1, 413089, Note_on_c, 0, 50, 87
1, 413092, Note_on_c, 0, 66, 83
1, 413097, Note_on_c, 0, 69, 76
1, 413100, Control_c, 0, 64, 103
1, 413101, Note_on_c, 0, 38, 66
1, 413115, Control_c, 0, 64, 127
1, 413136, Note_off_c, 0, 69, 61
1, 413137, Note_off_c, 0, 38, 64
1, 413145, Note_off_c, 0, 50, 64
1, 413145, Note_off_c, 0, 72, 65
1, 413147, Note_off_c, 0, 66, 60
1, 413705, Note_on_c, 0, 69, 64
1, 413838, Note_off_c, 0, 69, 60
1, 413840, Note_on_c, 0, 72, 58
1, 413861, Note_off_c, 0, 72, 64
1, 413968, Note_on_c, 0, 66, 65
1, 413990, Control_c, 0, 64, 99
1, 414005, Control_c, 0, 64, 84
1, 414020, Control_c, 0, 64, 73
1, 414034, Control_c, 0, 64, 63
1, 414049, Control_c, 0, 64, 50
1, 414064, Control_c, 0, 64, 0
1, 414093, Note_on_c, 0, 69, 64
1, 414111, Note_off_c, 0, 66, 61
1, 414124, Note_off_c, 0, 69, 62
1, 414218, Note_on_c, 0, 63, 71
1, 414337, Note_on_c, 0, 66, 74
1, 414339, Note_off_c, 0, 63, 60
1, 414376, Note_off_c, 0, 66, 54
1, 414444, Note_on_c, 0, 60, 77
1, 414557, Note_off_c, 0, 60, 60
1, 414564, Note_on_c, 0, 63, 70
1, 414631, Note_off_c, 0, 63, 61
1, 414677, Note_on_c, 0, 57, 79
1, 414751, Note_off_c, 0, 57, 61
1, 414797, Note_on_c, 0, 60, 68
1, 414854, Note_off_c, 0, 60, 58
1, 414907, Note_on_c, 0, 54, 63
1, 415006, Control_c, 0, 64, 45
1, 415021, Control_c, 0, 64, 58
1, 415036, Control_c, 0, 64, 66
1, 415040, Note_off_c, 0, 54, 60
1, 415045, Note_on_c, 0, 57, 65
1, 415051, Control_c, 0, 64, 74
1, 415065, Control_c, 0, 64, 89
1, 415077, Note_off_c, 0, 57, 66
1, 415080, Control_c, 0, 64, 109
1, 415095, Control_c, 0, 64, 127
1, 415318, Note_on_c, 0, 78, 68
1, 415321, Note_on_c, 0, 60, 52
1, 415326, Note_on_c, 0, 48, 43
1, 415327, Note_on_c, 0, 69, 50
1, 415334, Note_on_c, 0, 75, 53
1, 415355, Note_off_c, 0, 69, 56
1, 415360, Note_off_c, 0, 60, 63
1, 415363, Control_c, 0, 64, 97
1, 415384, Note_off_c, 0, 78, 59
1, 415385, Control_c, 0, 64, 82
1, 415387, Note_off_c, 0, 48, 54
1, 415389, Note_off_c, 0, 75, 54
1, 415399, Control_c, 0, 64, 73
1, 415414, Control_c, 0, 64, 65
1, 415429, Control_c, 0, 64, 57
1, 415444, Control_c, 0, 64, 48
1, 415459, Control_c, 0, 64, 43
1, 415473, Control_c, 0, 64, 40
1, 415488, Control_c, 0, 64, 36
1, 415503, Control_c, 0, 64, 0
1, 415572, Note_on_c, 0, 70, 86
1, 415575, Note_on_c, 0, 79, 92
1, 415580, Note_on_c, 0, 58, 79
1, 415581, Note_on_c, 0, 74, 79
1, 415588, Note_on_c, 0, 46, 71
1, 415610, Note_off_c, 0, 74, 63
1, 415621, Note_off_c, 0, 58, 59
1, 415622, Note_off_c, 0, 70, 63
1, 415639, Note_off_c, 0, 79, 65
1, 415651, Note_off_c, 0, 46, 51
1, 415831, Note_on_c, 0, 81, 94
1, 415832, Note_on_c, 0, 57, 84
1, 415835, Note_on_c, 0, 72, 89
1, 415840, Note_on_c, 0, 45, 66
1, 415842, Note_on_c, 0, 78, 81
1, 415867, Note_off_c, 0, 57, 59
1, 415877, Note_off_c, 0, 72, 59
1, 415881, Note_off_c, 0, 78, 51
1, 415886, Note_off_c, 0, 45, 62
1, 415901, Note_off_c, 0, 81, 63
1, 415977, Control_c, 0, 64, 34
1, 415992, Control_c, 0, 64, 34
1, 416007, Control_c, 0, 64, 35
1, 416066, Control_c, 0, 64, 36
1, 416081, Control_c, 0, 64, 38
1, 416095, Control_c, 0, 64, 42
1, 416117, Control_c, 0, 64, 53
1, 416132, Control_c, 0, 64, 64
1, 416133, Note_on_c, 0, 82, 95
1, 416134, Note_on_c, 0, 55, 70
1, 416138, Note_on_c, 0, 43, 58
1, 416139, Note_on_c, 0, 74, 75
1, 416141, Note_on_c, 0, 79, 78
1, 416147, Control_c, 0, 64, 74
1, 416162, Note_off_c, 0, 74, 69
1, 416162, Control_c, 0, 64, 102
1, 416165, Note_off_c, 0, 79, 69
1, 416166, Note_off_c, 0, 43, 61
1, 416175, Note_off_c, 0, 55, 61
1, 416177, Control_c, 0, 64, 127
1, 416187, Note_off_c, 0, 82, 66
1, 416819, Note_on_c, 0, 62, 45
1, 416919, Note_off_c, 0, 62, 54
1, 416925, Control_c, 0, 64, 110
1, 416940, Control_c, 0, 64, 101
1, 416955, Control_c, 0, 64, 94
1, 416970, Control_c, 0, 64, 87
1, 416977, Note_on_c, 0, 70, 59
1, 416985, Control_c, 0, 64, 82
1, 416999, Control_c, 0, 64, 77
1, 417014, Control_c, 0, 64, 73
1, 417029, Control_c, 0, 64, 69
1, 417035, Note_off_c, 0, 70, 57
1, 417044, Control_c, 0, 64, 65
1, 417059, Control_c, 0, 64, 61
1, 417074, Control_c, 0, 64, 58
1, 417089, Note_on_c, 0, 67, 69
1, 417089, Control_c, 0, 64, 56
1, 417104, Control_c, 0, 64, 54
1, 417118, Control_c, 0, 64, 53
1, 417133, Control_c, 0, 64, 50
1, 417148, Control_c, 0, 64, 46
1, 417162, Control_c, 0, 64, 42
1, 417177, Control_c, 0, 64, 40
1, 417192, Control_c, 0, 64, 38
1, 417194, Note_off_c, 0, 67, 62
1, 417207, Control_c, 0, 64, 37
1, 417211, Note_on_c, 0, 74, 76
1, 417222, Control_c, 0, 64, 35
1, 417236, Control_c, 0, 64, 34
1, 417263, Note_off_c, 0, 74, 65
1, 417313, Note_on_c, 0, 70, 83
1, 417441, Note_off_c, 0, 70, 61
1, 417445, Note_on_c, 0, 79, 77
1, 417498, Note_off_c, 0, 79, 63
1, 417540, Note_on_c, 0, 74, 82
1, 417734, Control_c, 0, 64, 34
1, 417745, Note_on_c, 0, 82, 62
1, 417749, Control_c, 0, 64, 0
1, 417754, Note_off_c, 0, 74, 56
1, 417927, Control_c, 0, 64, 39
1, 417941, Control_c, 0, 64, 49
1, 417956, Control_c, 0, 64, 58
1, 417971, Control_c, 0, 64, 65
1, 417986, Control_c, 0, 64, 71
1, 418001, Control_c, 0, 64, 78
1, 418016, Control_c, 0, 64, 84
1, 418031, Control_c, 0, 64, 90
1, 418037, Note_on_c, 0, 62, 40
1, 418037, Note_on_c, 0, 55, 38
1, 418041, Note_on_c, 0, 58, 40
1, 418046, Control_c, 0, 64, 98
1, 418060, Control_c, 0, 64, 115
1, 418075, Control_c, 0, 64, 127
1, 418121, Note_off_c, 0, 55, 55
1, 418128, Note_off_c, 0, 82, 53
1, 418135, Note_off_c, 0, 62, 51
1, 418136, Note_off_c, 0, 58, 55
1, 418430, Note_on_c, 0, 55, 38
1, 418450, Note_on_c, 0, 58, 26
1, 418454, Note_on_c, 0, 62, 25
1, 418527, Control_c, 0, 64, 106
1, 418541, Control_c, 0, 64, 94
1, 418556, Control_c, 0, 64, 81
1, 418571, Control_c, 0, 64, 70
1, 418586, Control_c, 0, 64, 59
1, 418590, Note_on_c, 0, 67, 46
1, 418601, Control_c, 0, 64, 35
1, 418615, Control_c, 0, 64, 0
1, 418705, Control_c, 0, 64, 48
1, 418719, Control_c, 0, 64, 60
1, 418734, Control_c, 0, 64, 65
1, 418746, Note_on_c, 0, 74, 53
1, 418749, Control_c, 0, 64, 69
1, 418764, Control_c, 0, 64, 74
1, 418766, Note_off_c, 0, 67, 59
1, 418779, Control_c, 0, 64, 78
1, 418794, Control_c, 0, 64, 81
1, 418808, Control_c, 0, 64, 84
1, 418823, Control_c, 0, 64, 86
1, 418842, Note_on_c, 0, 70, 68
1, 418853, Control_c, 0, 64, 84
1, 418867, Control_c, 0, 64, 78
1, 418883, Control_c, 0, 64, 68
1, 418898, Control_c, 0, 64, 55
1, 418913, Control_c, 0, 64, 34
1, 418928, Control_c, 0, 64, 37
1, 418943, Control_c, 0, 64, 47
1, 418957, Control_c, 0, 64, 57
1, 418966, Note_off_c, 0, 70, 63
1, 418972, Control_c, 0, 64, 63
1, 418973, Note_on_c, 0, 79, 74
1, 418980, Note_off_c, 0, 74, 15
1, 418987, Control_c, 0, 64, 69
1, 419002, Control_c, 0, 64, 75
1, 419003, Note_off_c, 0, 79, 66
1, 419017, Control_c, 0, 64, 82
1, 419031, Control_c, 0, 64, 88
1, 419046, Control_c, 0, 64, 92
1, 419061, Control_c, 0, 64, 97
1, 419071, Note_on_c, 0, 74, 85
1, 419076, Control_c, 0, 64, 100
1, 419091, Control_c, 0, 64, 103
1, 419128, Control_c, 0, 64, 105
1, 419140, Note_off_c, 0, 55, 40
1, 419196, Note_off_c, 0, 62, 41
1, 419210, Note_on_c, 0, 82, 83
1, 419232, Control_c, 0, 64, 102
1, 419235, Note_off_c, 0, 58, 41
1, 419246, Control_c, 0, 64, 97
1, 419252, Note_off_c, 0, 74, 61
1, 419261, Control_c, 0, 64, 90
1, 419276, Control_c, 0, 64, 84
1, 419291, Control_c, 0, 64, 78
1, 419306, Control_c, 0, 64, 72
1, 419320, Control_c, 0, 64, 65
1, 419324, Note_on_c, 0, 79, 91
1, 419335, Control_c, 0, 64, 56
1, 419350, Control_c, 0, 64, 41
1, 419364, Control_c, 0, 64, 0
1, 419381, Note_off_c, 0, 82, 52
1, 419502, Note_on_c, 0, 86, 89
1, 419550, Note_off_c, 0, 79, 60
1, 419602, Control_c, 0, 64, 39
1, 419617, Control_c, 0, 64, 54
1, 419631, Control_c, 0, 64, 64
1, 419646, Control_c, 0, 64, 72
1, 419661, Control_c, 0, 64, 82
1, 419676, Control_c, 0, 64, 96
1, 419691, Control_c, 0, 64, 120
1, 419706, Control_c, 0, 64, 127
1, 419837, Note_on_c, 0, 55, 60
1, 419837, Note_on_c, 0, 65, 70
1, 419850, Note_on_c, 0, 59, 52
1, 419964, Note_off_c, 0, 55, 56
1, 419981, Note_off_c, 0, 65, 56
1, 419987, Note_off_c, 0, 86, 62
1, 420004, Note_off_c, 0, 59, 57
1, 420311, Note_on_c, 0, 55, 52
1, 420317, Note_on_c, 0, 65, 54
1, 420323, Note_on_c, 0, 59, 43
1, 420488, Note_on_c, 0, 86, 81
1, 420544, Control_c, 0, 64, 93
1, 420559, Control_c, 0, 64, 75
1, 420574, Control_c, 0, 64, 63
1, 420589, Control_c, 0, 64, 49
1, 420611, Control_c, 0, 64, 41
1, 420626, Control_c, 0, 64, 44
1, 420641, Control_c, 0, 64, 50
1, 420656, Control_c, 0, 64, 55
1, 420671, Control_c, 0, 64, 58
1, 420685, Control_c, 0, 64, 63
1, 420700, Control_c, 0, 64, 68
1, 420713, Note_on_c, 0, 89, 71
1, 420715, Control_c, 0, 64, 76
1, 420730, Control_c, 0, 64, 83
1, 420744, Control_c, 0, 64, 87
1, 420745, Note_off_c, 0, 86, 61
1, 420759, Control_c, 0, 64, 92
1, 420774, Note_off_c, 0, 89, 61
1, 420774, Control_c, 0, 64, 98
1, 420789, Control_c, 0, 64, 107
1, 420804, Control_c, 0, 64, 115
1, 420818, Control_c, 0, 64, 120
1, 420833, Control_c, 0, 64, 127
1, 420864, Note_on_c, 0, 83, 75
1, 420922, Control_c, 0, 64, 122
1, 420937, Control_c, 0, 64, 89
1, 420952, Control_c, 0, 64, 71
1, 420967, Control_c, 0, 64, 62
1, 420982, Control_c, 0, 64, 56
1, 420994, Note_off_c, 0, 83, 60
1, 420997, Control_c, 0, 64, 59
1, 421005, Note_on_c, 0, 86, 67
1, 421011, Control_c, 0, 64, 63
1, 421026, Control_c, 0, 64, 66
1, 421036, Note_off_c, 0, 86, 61
1, 421041, Control_c, 0, 64, 70
1, 421056, Control_c, 0, 64, 76
1, 421070, Control_c, 0, 64, 84
1, 421085, Control_c, 0, 64, 96
1, 421100, Control_c, 0, 64, 107
1, 421115, Control_c, 0, 64, 115
1, 421123, Note_on_c, 0, 80, 76
1, 421130, Control_c, 0, 64, 117
1, 421159, Control_c, 0, 64, 114
1, 421174, Control_c, 0, 64, 96
1, 421189, Control_c, 0, 64, 78
1, 421204, Control_c, 0, 64, 65
1, 421218, Control_c, 0, 64, 53
1, 421233, Control_c, 0, 64, 51
1, 421247, Note_off_c, 0, 80, 61
1, 421248, Control_c, 0, 64, 58
1, 421253, Note_on_c, 0, 83, 69
1, 421262, Control_c, 0, 64, 61
1, 421277, Note_off_c, 0, 83, 68
1, 421277, Control_c, 0, 64, 65
1, 421294, Control_c, 0, 64, 69
1, 421308, Control_c, 0, 64, 75
1, 421323, Control_c, 0, 64, 83
1, 421338, Control_c, 0, 64, 90
1, 421360, Control_c, 0, 64, 95
1, 421372, Note_on_c, 0, 77, 59
1, 421390, Control_c, 0, 64, 97
1, 421420, Control_c, 0, 64, 94
1, 421434, Control_c, 0, 64, 82
1, 421449, Control_c, 0, 64, 68
1, 421464, Control_c, 0, 64, 57
1, 421479, Control_c, 0, 64, 49
1, 421490, Note_off_c, 0, 77, 62
1, 421494, Control_c, 0, 64, 53
1, 421501, Note_on_c, 0, 80, 63
1, 421508, Control_c, 0, 64, 56
1, 421523, Control_c, 0, 64, 60
1, 421536, Note_off_c, 0, 80, 60
1, 421538, Control_c, 0, 64, 64
1, 421553, Control_c, 0, 64, 68
1, 421567, Control_c, 0, 64, 72
1, 421582, Control_c, 0, 64, 78
1, 421597, Control_c, 0, 64, 83
1, 421612, Control_c, 0, 64, 85
1, 421624, Note_on_c, 0, 74, 66
1, 421627, Control_c, 0, 64, 86
1, 421656, Control_c, 0, 64, 85
1, 421671, Control_c, 0, 64, 79
1, 421685, Control_c, 0, 64, 69
1, 421700, Control_c, 0, 64, 60
1, 421715, Control_c, 0, 64, 48
1, 421745, Control_c, 0, 64, 52
1, 421756, Note_off_c, 0, 74, 59
1, 421760, Control_c, 0, 64, 57
1, 421769, Note_on_c, 0, 77, 59
1, 421775, Control_c, 0, 64, 62
1, 421790, Control_c, 0, 64, 65
1, 421802, Note_off_c, 0, 77, 64
1, 421805, Control_c, 0, 64, 69
1, 421820, Control_c, 0, 64, 75
1, 421834, Control_c, 0, 64, 81
1, 421849, Control_c, 0, 64, 85
1, 421864, Control_c, 0, 64, 87
1, 421910, Note_on_c, 0, 71, 54
1, 421923, Control_c, 0, 64, 85
1, 421938, Control_c, 0, 64, 76
1, 421951, Control_c, 0, 64, 66
1, 421966, Control_c, 0, 64, 54
1, 421981, Control_c, 0, 64, 36
1, 422011, Control_c, 0, 64, 43
1, 422026, Control_c, 0, 64, 52
1, 422035, Note_off_c, 0, 71, 62
1, 422040, Control_c, 0, 64, 59
1, 422055, Control_c, 0, 64, 65
1, 422061, Note_on_c, 0, 74, 56
1, 422070, Control_c, 0, 64, 71
1, 422073, Note_off_c, 0, 65, 39
1, 422086, Control_c, 0, 64, 76
1, 422101, Control_c, 0, 64, 78
1, 422132, Note_off_c, 0, 74, 50
1, 422153, Control_c, 0, 64, 79
1, 422168, Control_c, 0, 64, 79
1, 422183, Control_c, 0, 64, 80
1, 422197, Note_off_c, 0, 55, 39
1, 422212, Note_on_c, 0, 68, 57
1, 422216, Note_off_c, 0, 59, 29
1, 422242, Control_c, 0, 64, 79
1, 422257, Control_c, 0, 64, 77
1, 422271, Control_c, 0, 64, 74
1, 422286, Control_c, 0, 64, 71
1, 422301, Control_c, 0, 64, 68
1, 422315, Control_c, 0, 64, 66
1, 422330, Control_c, 0, 64, 64
1, 422345, Control_c, 0, 64, 61
1, 422360, Note_off_c, 0, 68, 60
1, 422360, Control_c, 0, 64, 57
1, 422375, Control_c, 0, 64, 52
1, 422389, Control_c, 0, 64, 49
1, 422394, Note_on_c, 0, 71, 45
1, 422404, Control_c, 0, 64, 46
1, 422419, Control_c, 0, 64, 44
1, 422434, Control_c, 0, 64, 41
1, 422449, Control_c, 0, 64, 38
1, 422463, Control_c, 0, 64, 36
1, 422478, Control_c, 0, 64, 34
1, 422493, Control_c, 0, 64, 0
1, 422547, Note_off_c, 0, 71, 47
1, 422555, Note_on_c, 0, 65, 53
1, 422817, Note_off_c, 0, 65, 60
1, 422833, Note_on_c, 0, 68, 45
1, 422887, Control_c, 0, 64, 39
1, 422902, Control_c, 0, 64, 53
1, 422917, Control_c, 0, 64, 63
1, 422931, Control_c, 0, 64, 69
1, 422946, Control_c, 0, 64, 76
1, 422961, Control_c, 0, 64, 83
1, 422976, Control_c, 0, 64, 90
1, 422991, Control_c, 0, 64, 99
1, 423006, Control_c, 0, 64, 108
1, 423021, Note_off_c, 0, 68, 62
1, 423021, Control_c, 0, 64, 122
1, 423036, Control_c, 0, 64, 127
1, 423361, Control_c, 0, 64, 100
1, 423376, Control_c, 0, 64, 82
1, 423378, Note_on_c, 0, 56, 41
1, 423382, Note_on_c, 0, 50, 34
1, 423388, Note_on_c, 0, 36, 37
1, 423391, Control_c, 0, 64, 67
1, 423398, Note_on_c, 0, 53, 33
1, 423405, Control_c, 0, 64, 53
1, 423415, Note_on_c, 0, 48, 17
1, 423420, Control_c, 0, 64, 34
1, 423435, Control_c, 0, 64, 36
1, 423450, Control_c, 0, 64, 44
1, 423465, Control_c, 0, 64, 53
1, 423480, Control_c, 0, 64, 61
1, 423495, Control_c, 0, 64, 67
1, 423510, Control_c, 0, 64, 74
1, 423524, Control_c, 0, 64, 82
1, 423539, Control_c, 0, 64, 89
1, 423554, Control_c, 0, 64, 93
1, 423569, Control_c, 0, 64, 95
1, 423584, Note_off_c, 0, 48, 38
1, 423584, Control_c, 0, 64, 98
1, 423612, Note_off_c, 0, 56, 36
1, 423631, Note_off_c, 0, 50, 38
1, 423640, Note_off_c, 0, 53, 38
1, 423650, Control_c, 0, 64, 100
1, 424035, Note_on_c, 0, 56, 39
1, 424047, Note_on_c, 0, 35, 32
1, 424051, Control_c, 0, 64, 98
1, 424054, Note_on_c, 0, 47, 26
1, 424063, Note_on_c, 0, 50, 29
1, 424066, Control_c, 0, 64, 96
1, 424067, Note_on_c, 0, 53, 30
1, 424080, Control_c, 0, 64, 94
1, 424095, Control_c, 0, 64, 92
1, 424110, Control_c, 0, 64, 89
1, 424125, Control_c, 0, 64, 87
1, 424140, Control_c, 0, 64, 83
1, 424154, Control_c, 0, 64, 79
1, 424169, Control_c, 0, 64, 75
1, 424184, Control_c, 0, 64, 70
1, 424199, Control_c, 0, 64, 65
1, 424202, Note_off_c, 0, 36, 37
1, 424213, Control_c, 0, 64, 60
1, 424228, Control_c, 0, 64, 50
1, 424243, Control_c, 0, 64, 40
1, 424258, Control_c, 0, 64, 0
1, 424428, Control_c, 0, 64, 38
1, 424443, Control_c, 0, 64, 55
1, 424458, Control_c, 0, 64, 64
1, 424473, Control_c, 0, 64, 68
1, 424489, Control_c, 0, 64, 73
1, 424503, Control_c, 0, 64, 78
1, 424518, Control_c, 0, 64, 83
1, 424533, Control_c, 0, 64, 89
1, 424548, Control_c, 0, 64, 96
1, 424563, Control_c, 0, 64, 104
1, 424574, Note_off_c, 0, 35, 40
1, 424577, Control_c, 0, 64, 119
1, 424588, Note_off_c, 0, 47, 42
1, 424592, Control_c, 0, 64, 127
1, 424692, Note_on_c, 0, 55, 48
1, 424739, Note_off_c, 0, 56, 25
1, 424756, Note_off_c, 0, 53, 40
1, 424773, Note_off_c, 0, 55, 58
1, 424832, Note_off_c, 0, 50, 39
1, 425023, Control_c, 0, 64, 124
1, 425037, Control_c, 0, 64, 82
1, 425052, Control_c, 0, 64, 66
1, 425067, Control_c, 0, 64, 45
1, 425072, Note_on_c, 0, 44, 36
1, 425074, Note_on_c, 0, 60, 72
1, 425082, Control_c, 0, 64, 0
1, 425083, Note_on_c, 0, 32, 33
1, 425093, Note_on_c, 0, 53, 51
1, 425115, Note_on_c, 0, 50, 39
1, 425134, Control_c, 0, 64, 48
1, 425149, Control_c, 0, 64, 60
1, 425164, Control_c, 0, 64, 68
1, 425179, Control_c, 0, 64, 77
1, 425193, Control_c, 0, 64, 90
1, 425208, Control_c, 0, 64, 105
1, 425223, Control_c, 0, 64, 127
1, 425269, Note_off_c, 0, 44, 42
1, 425279, Note_off_c, 0, 32, 39
1, 425293, Note_off_c, 0, 53, 51
1, 425333, Note_off_c, 0, 60, 53
1, 425339, Note_off_c, 0, 50, 38
1, 425460, Control_c, 0, 64, 97
1, 425475, Control_c, 0, 64, 74
1, 425484, Note_on_c, 0, 60, 57
1, 425490, Control_c, 0, 64, 61
1, 425505, Control_c, 0, 64, 49
1, 425507, Note_on_c, 0, 44, 23
1, 425507, Note_on_c, 0, 50, 33
1, 425512, Note_on_c, 0, 53, 36
1, 425514, Note_on_c, 0, 32, 23
1, 425520, Control_c, 0, 64, 51
1, 425534, Control_c, 0, 64, 57
1, 425549, Control_c, 0, 64, 62
1, 425564, Control_c, 0, 64, 66
1, 425579, Control_c, 0, 64, 72
1, 425594, Control_c, 0, 64, 81
1, 425608, Control_c, 0, 64, 92
1, 425623, Control_c, 0, 64, 102
1, 425628, Note_off_c, 0, 44, 37
1, 425638, Control_c, 0, 64, 117
1, 425644, Note_off_c, 0, 32, 32
1, 425653, Control_c, 0, 64, 127
1, 425656, Note_off_c, 0, 60, 37
1, 425669, Note_off_c, 0, 53, 37
1, 425686, Note_off_c, 0, 50, 41
1, 425820, Note_on_c, 0, 32, 32
1, 425822, Note_on_c, 0, 60, 53
1, 425833, Note_on_c, 0, 50, 41
1, 425837, Note_on_c, 0, 44, 22
1, 425842, Note_on_c, 0, 53, 39
1, 425909, Note_off_c, 0, 44, 46
1, 425958, Note_off_c, 0, 53, 37
1, 425981, Note_off_c, 0, 32, 34
1, 425988, Note_off_c, 0, 50, 30
1, 426004, Note_off_c, 0, 60, 33
1, 426306, Note_on_c, 0, 43, 31
1, 426306, Note_on_c, 0, 60, 40
1, 426308, Note_on_c, 0, 31, 28
1, 426309, Note_on_c, 0, 50, 29
1, 426336, Note_on_c, 0, 53, 20
1, 426357, Control_c, 0, 64, 124
1, 426372, Control_c, 0, 64, 107
1, 426387, Control_c, 0, 64, 99
1, 426402, Control_c, 0, 64, 91
1, 426417, Control_c, 0, 64, 84
1, 426431, Control_c, 0, 64, 74
1, 426446, Control_c, 0, 64, 65
1, 426461, Control_c, 0, 64, 54
1, 426475, Control_c, 0, 64, 0
1, 426935, Note_on_c, 0, 59, 47
1, 426943, Control_c, 0, 64, 44
1, 426958, Control_c, 0, 64, 59
1, 426972, Control_c, 0, 64, 66
1, 426986, Note_off_c, 0, 31, 53
1, 426987, Control_c, 0, 64, 73
1, 426999, Note_off_c, 0, 60, 49
1, 427002, Control_c, 0, 64, 82
1, 427011, Note_off_c, 0, 50, 40
1, 427017, Control_c, 0, 64, 94
1, 427031, Control_c, 0, 64, 127
1, 427051, Note_off_c, 0, 53, 50
1, 427061, Note_off_c, 0, 59, 63
1, 427091, Note_off_c, 0, 43, 40
1, 427254, Control_c, 0, 64, 93
1, 427269, Control_c, 0, 64, 72
1, 427281, Note_on_c, 0, 48, 51
1, 427284, Control_c, 0, 64, 55
1, 427291, Note_on_c, 0, 36, 46
1, 427293, Note_on_c, 0, 63, 87
1, 427298, Control_c, 0, 64, 35
1, 427302, Note_on_c, 0, 54, 70
1, 427313, Control_c, 0, 64, 44
1, 427328, Control_c, 0, 64, 57
1, 427350, Control_c, 0, 64, 65
1, 427365, Control_c, 0, 64, 72
1, 427379, Control_c, 0, 64, 83
1, 427394, Control_c, 0, 64, 97
1, 427409, Control_c, 0, 64, 119
1, 427424, Control_c, 0, 64, 127
1, 427433, Note_off_c, 0, 48, 60
1, 427465, Note_off_c, 0, 36, 49
1, 427504, Note_off_c, 0, 63, 52
1, 427519, Note_off_c, 0, 54, 33
1, 427631, Control_c, 0, 64, 120
1, 427645, Note_on_c, 0, 36, 44
1, 427645, Note_on_c, 0, 63, 75
1, 427646, Control_c, 0, 64, 82
1, 427656, Note_on_c, 0, 48, 43
1, 427660, Note_on_c, 0, 54, 56
1, 427661, Control_c, 0, 64, 66
1, 427677, Control_c, 0, 64, 48
1, 427692, Control_c, 0, 64, 40
1, 427707, Control_c, 0, 64, 51
1, 427722, Control_c, 0, 64, 60
1, 427736, Control_c, 0, 64, 65
1, 427751, Control_c, 0, 64, 73
1, 427766, Control_c, 0, 64, 86
1, 427772, Note_off_c, 0, 48, 60
1, 427777, Note_off_c, 0, 36, 56
1, 427781, Control_c, 0, 64, 104
1, 427796, Control_c, 0, 64, 127
1, 427825, Note_off_c, 0, 63, 55
1, 427842, Note_off_c, 0, 54, 37
1, 427959, Note_on_c, 0, 63, 72
1, 427966, Note_on_c, 0, 48, 40
1, 427967, Note_on_c, 0, 36, 38
1, 427978, Note_on_c, 0, 54, 51
1, 428013, Note_off_c, 0, 48, 58
1, 428020, Note_off_c, 0, 36, 54
1, 428027, Note_off_c, 0, 54, 56
1, 428062, Note_off_c, 0, 63, 52
1, 428294, Note_on_c, 0, 63, 62
1, 428297, Note_on_c, 0, 36, 41
1, 428303, Note_on_c, 0, 48, 40
1, 428312, Note_on_c, 0, 54, 50
1, 428351, Control_c, 0, 64, 101
1, 428366, Control_c, 0, 64, 78
1, 428381, Control_c, 0, 64, 64
1, 428395, Control_c, 0, 64, 42
1, 428410, Control_c, 0, 64, 0
1, 428440, Control_c, 0, 64, 46
1, 428455, Control_c, 0, 64, 57
1, 428470, Control_c, 0, 64, 65
1, 428485, Control_c, 0, 64, 75
1, 428500, Control_c, 0, 64, 93
1, 428515, Control_c, 0, 64, 127
1, 428587, Note_off_c, 0, 48, 53
1, 428614, Note_off_c, 0, 54, 52
1, 428965, Note_on_c, 0, 55, 39
1, 428976, Note_on_c, 0, 62, 72
1, 428980, Note_on_c, 0, 47, 46
1, 428980, Note_off_c, 0, 36, 59
1, 428982, Control_c, 0, 64, 91
1, 428989, Note_on_c, 0, 35, 55
1, 428997, Control_c, 0, 64, 70
1, 429011, Control_c, 0, 64, 55
1, 429026, Control_c, 0, 64, 49
1, 429041, Control_c, 0, 64, 57
1, 429056, Control_c, 0, 64, 65
1, 429070, Control_c, 0, 64, 75
1, 429083, Note_off_c, 0, 55, 55
1, 429084, Note_off_c, 0, 35, 62
1, 429085, Control_c, 0, 64, 96
1, 429100, Note_off_c, 0, 47, 63
1, 429100, Note_off_c, 0, 63, 26
1, 429100, Control_c, 0, 64, 127
1, 429116, Note_off_c, 0, 62, 63
1, 429316, Note_on_c, 0, 51, 69
1, 429320, Note_on_c, 0, 39, 69
1, 429323, Note_on_c, 0, 67, 93
1, 429323, Control_c, 0, 64, 93
1, 429329, Note_on_c, 0, 55, 80
1, 429331, Note_on_c, 0, 60, 75
1, 429338, Control_c, 0, 64, 69
1, 429353, Control_c, 0, 64, 47
1, 429367, Control_c, 0, 64, 0
1, 429382, Control_c, 0, 64, 35
1, 429397, Control_c, 0, 64, 56
1, 429412, Control_c, 0, 64, 67
1, 429427, Control_c, 0, 64, 82
1, 429439, Note_off_c, 0, 39, 59
1, 429442, Control_c, 0, 64, 100
1, 429457, Control_c, 0, 64, 119
1, 429461, Note_off_c, 0, 51, 59
1, 429472, Control_c, 0, 64, 127
1, 429522, Note_off_c, 0, 55, 54
1, 429528, Note_off_c, 0, 60, 58
1, 429542, Note_off_c, 0, 67, 56
1, 429701, Control_c, 0, 64, 91
1, 429716, Control_c, 0, 64, 67
1, 429720, Note_on_c, 0, 39, 51
1, 429722, Note_on_c, 0, 51, 44
1, 429722, Note_on_c, 0, 67, 84
1, 429731, Control_c, 0, 64, 46
1, 429733, Note_on_c, 0, 55, 53
1, 429745, Note_on_c, 0, 60, 60
1, 429746, Control_c, 0, 64, 0
1, 429760, Control_c, 0, 64, 38
1, 429775, Control_c, 0, 64, 53
1, 429790, Control_c, 0, 64, 63
1, 429805, Control_c, 0, 64, 71
1, 429820, Control_c, 0, 64, 84
1, 429833, Note_off_c, 0, 39, 57
1, 429834, Control_c, 0, 64, 98
1, 429849, Control_c, 0, 64, 111
1, 429864, Control_c, 0, 64, 127
1, 429869, Note_off_c, 0, 51, 50
1, 429885, Note_off_c, 0, 60, 53
1, 429890, Note_off_c, 0, 55, 50
1, 429900, Note_off_c, 0, 67, 60
1, 429997, Control_c, 0, 64, 102
1, 430012, Control_c, 0, 64, 76
1, 430025, Note_on_c, 0, 67, 84
1, 430026, Control_c, 0, 64, 62
1, 430029, Note_on_c, 0, 51, 56
1, 430035, Note_on_c, 0, 55, 66
1, 430039, Note_on_c, 0, 39, 55
1, 430041, Control_c, 0, 64, 43
1, 430043, Note_on_c, 0, 60, 60
1, 430056, Control_c, 0, 64, 45
1, 430072, Control_c, 0, 64, 55
1, 430087, Control_c, 0, 64, 64
1, 430102, Control_c, 0, 64, 74
1, 430116, Control_c, 0, 64, 95
1, 430131, Control_c, 0, 64, 127
1, 430148, Note_off_c, 0, 51, 59
1, 430152, Note_off_c, 0, 39, 54
1, 430180, Note_off_c, 0, 60, 54
1, 430238, Note_off_c, 0, 67, 53
1, 430259, Note_off_c, 0, 55, 32
1, 430439, Note_on_c, 0, 39, 44
1, 430445, Note_on_c, 0, 51, 44
1, 430446, Note_on_c, 0, 67, 80
1, 430461, Note_on_c, 0, 55, 51
1, 430469, Note_on_c, 0, 60, 56
1, 430479, Control_c, 0, 64, 115
1, 430494, Control_c, 0, 64, 88
1, 430509, Control_c, 0, 64, 71
1, 430523, Control_c, 0, 64, 53
1, 430538, Control_c, 0, 64, 0
1, 430582, Control_c, 0, 64, 45
1, 430597, Control_c, 0, 64, 60
1, 430601, Note_off_c, 0, 51, 48
1, 430612, Control_c, 0, 64, 71
1, 430627, Control_c, 0, 64, 83
1, 430642, Control_c, 0, 64, 102
1, 430656, Control_c, 0, 64, 127
1, 430781, Note_off_c, 0, 67, 62
1, 430864, Note_off_c, 0, 60, 61
1, 431109, Control_c, 0, 64, 107
1, 431122, Note_off_c, 0, 39, 47
1, 431124, Control_c, 0, 64, 78
1, 431125, Note_on_c, 0, 50, 55
1, 431131, Note_on_c, 0, 38, 60
1, 431134, Note_on_c, 0, 65, 83
1, 431139, Control_c, 0, 64, 62
1, 431152, Note_on_c, 0, 59, 55
1, 431153, Control_c, 0, 64, 45
1, 431168, Control_c, 0, 64, 49
1, 431183, Control_c, 0, 64, 56
1, 431193, Note_off_c, 0, 55, 58
1, 431198, Control_c, 0, 64, 63
1, 431212, Control_c, 0, 64, 71
1, 431227, Control_c, 0, 64, 85
1, 431234, Note_off_c, 0, 59, 63
1, 431242, Control_c, 0, 64, 116
1, 431249, Note_off_c, 0, 50, 59
1, 431255, Note_off_c, 0, 65, 64
1, 431257, Control_c, 0, 64, 127
1, 431269, Note_off_c, 0, 38, 51
1, 431518, Note_on_c, 0, 48, 67
1, 431523, Control_c, 0, 64, 89
1, 431525, Note_on_c, 0, 36, 64
1, 431527, Note_on_c, 0, 68, 91
1, 431535, Note_on_c, 0, 65, 72
1, 431538, Note_on_c, 0, 63, 71
1, 431538, Control_c, 0, 64, 68
1, 431553, Control_c, 0, 64, 51
1, 431568, Control_c, 0, 64, 0
1, 431597, Control_c, 0, 64, 48
1, 431612, Control_c, 0, 64, 59
1, 431627, Control_c, 0, 64, 66
1, 431642, Control_c, 0, 64, 76
1, 431657, Control_c, 0, 64, 98
1, 431673, Control_c, 0, 64, 127
1, 431691, Note_off_c, 0, 48, 61
1, 431714, Note_off_c, 0, 36, 58
1, 431734, Note_off_c, 0, 68, 56
1, 431746, Note_off_c, 0, 63, 50
1, 431755, Note_off_c, 0, 65, 58
1, 431961, Note_on_c, 0, 36, 49
1, 431961, Note_on_c, 0, 48, 43
1, 431961, Control_c, 0, 64, 83
1, 431971, Note_on_c, 0, 68, 77
1, 431976, Control_c, 0, 64, 65
1, 431982, Note_on_c, 0, 63, 52
1, 431990, Note_on_c, 0, 65, 58
1, 431991, Control_c, 0, 64, 46
1, 432006, Control_c, 0, 64, 38
1, 432020, Control_c, 0, 64, 42
1, 432035, Control_c, 0, 64, 50
1, 432050, Control_c, 0, 64, 58
1, 432065, Control_c, 0, 64, 63
1, 432080, Control_c, 0, 64, 68
1, 432095, Control_c, 0, 64, 78
1, 432110, Control_c, 0, 64, 102
1, 432122, Note_off_c, 0, 48, 52
1, 432125, Control_c, 0, 64, 127
1, 432128, Note_off_c, 0, 36, 58
1, 432174, Note_off_c, 0, 63, 32
1, 432181, Note_off_c, 0, 65, 49
1, 432193, Note_off_c, 0, 68, 37
1, 432332, Control_c, 0, 64, 93
1, 432336, Note_on_c, 0, 68, 76
1, 432340, Note_on_c, 0, 36, 46
1, 432345, Note_on_c, 0, 48, 40
1, 432346, Control_c, 0, 64, 72
1, 432348, Note_on_c, 0, 63, 59
1, 432350, Note_on_c, 0, 65, 59
1, 432361, Control_c, 0, 64, 60
1, 432376, Control_c, 0, 64, 51
1, 432391, Control_c, 0, 64, 53
1, 432406, Control_c, 0, 64, 60
1, 432420, Control_c, 0, 64, 65
1, 432435, Control_c, 0, 64, 72
1, 432450, Control_c, 0, 64, 85
1, 432466, Control_c, 0, 64, 109
1, 432481, Control_c, 0, 64, 127
1, 432500, Note_off_c, 0, 48, 38
1, 432508, Note_off_c, 0, 68, 56
1, 432548, Note_off_c, 0, 63, 38
1, 432558, Note_off_c, 0, 65, 36
1, 432975, Note_on_c, 0, 47, 28
1, 432999, Note_on_c, 0, 35, 38
1, 433000, Note_on_c, 0, 68, 57
1, 433011, Note_on_c, 0, 62, 45
1, 433026, Note_on_c, 0, 65, 44
1, 433135, Note_off_c, 0, 36, 38
1, 433184, Control_c, 0, 64, 111
1, 433199, Control_c, 0, 64, 97
1, 433214, Control_c, 0, 64, 88
1, 433229, Control_c, 0, 64, 82
1, 433243, Control_c, 0, 64, 77
1, 433258, Control_c, 0, 64, 72
1, 433274, Control_c, 0, 64, 66
1, 433289, Control_c, 0, 64, 58
1, 433304, Control_c, 0, 64, 43
1, 433319, Control_c, 0, 64, 0
1, 433725, Control_c, 0, 64, 37
1, 433740, Control_c, 0, 64, 45
1, 433755, Control_c, 0, 64, 52
1, 433770, Control_c, 0, 64, 55
1, 433785, Control_c, 0, 64, 56
1, 433859, Control_c, 0, 64, 55
1, 433874, Control_c, 0, 64, 53
1, 433889, Control_c, 0, 64, 50
1, 433891, Note_on_c, 0, 67, 48
1, 433904, Control_c, 0, 64, 44
1, 433913, Note_off_c, 0, 68, 54
1, 433918, Control_c, 0, 64, 0
1, 433992, Control_c, 0, 64, 45
1, 434007, Control_c, 0, 64, 59
1, 434022, Control_c, 0, 64, 66
1, 434037, Control_c, 0, 64, 72
1, 434048, Note_off_c, 0, 35, 37
1, 434052, Control_c, 0, 64, 80
1, 434068, Control_c, 0, 64, 88
1, 434073, Note_off_c, 0, 62, 58
1, 434089, Control_c, 0, 64, 96
1, 434104, Control_c, 0, 64, 107
1, 434119, Control_c, 0, 64, 127
1, 434132, Note_off_c, 0, 65, 58
1, 434140, Note_off_c, 0, 47, 42
1, 434142, Note_off_c, 0, 67, 64
1, 434462, Note_on_c, 0, 74, 48
1, 434475, Control_c, 0, 64, 112
1, 434489, Control_c, 0, 64, 85
1, 434504, Control_c, 0, 64, 67
1, 434505, Note_on_c, 0, 71, 30
1, 434519, Control_c, 0, 64, 55
1, 434533, Control_c, 0, 64, 47
1, 434548, Control_c, 0, 64, 51
1, 434563, Control_c, 0, 64, 55
1, 434578, Control_c, 0, 64, 58
1, 434593, Control_c, 0, 64, 61
1, 434608, Control_c, 0, 64, 65
1, 434623, Control_c, 0, 64, 70
1, 434637, Control_c, 0, 64, 76
1, 434637, Control_c, 0, 67, 19
1, 434652, Control_c, 0, 64, 83
1, 434667, Control_c, 0, 64, 88
1, 434667, Control_c, 0, 67, 21
1, 434682, Control_c, 0, 64, 93
1, 434697, Control_c, 0, 64, 99
1, 434712, Control_c, 0, 64, 105
1, 434712, Control_c, 0, 67, 23
1, 434715, Note_off_c, 0, 74, 55
1, 434726, Note_off_c, 0, 71, 41
1, 434727, Control_c, 0, 64, 111
1, 434741, Control_c, 0, 67, 26
1, 434771, Control_c, 0, 67, 31
1, 434786, Control_c, 0, 64, 101
1, 434786, Control_c, 0, 67, 33
1, 434801, Control_c, 0, 64, 83
1, 434801, Control_c, 0, 67, 37
1, 434815, Control_c, 0, 64, 69
1, 434815, Control_c, 0, 67, 42
1, 434821, Note_on_c, 0, 74, 52
1, 434837, Control_c, 0, 64, 56
1, 434837, Control_c, 0, 67, 48
1, 434852, Control_c, 0, 64, 46
1, 434852, Control_c, 0, 67, 55
1, 434868, Control_c, 0, 64, 50
1, 434868, Control_c, 0, 67, 61
1, 434873, Note_on_c, 0, 71, 34
1, 434883, Control_c, 0, 64, 55
1, 434883, Control_c, 0, 67, 67
1, 434898, Control_c, 0, 64, 59
1, 434898, Control_c, 0, 67, 72
1, 434912, Control_c, 0, 64, 62
1, 434912, Control_c, 0, 67, 77
1, 434927, Control_c, 0, 64, 66
1, 434927, Control_c, 0, 67, 81
1, 434942, Control_c, 0, 64, 70
1, 434942, Control_c, 0, 67, 86
1, 434957, Control_c, 0, 64, 75
1, 434957, Control_c, 0, 67, 90
1, 434971, Control_c, 0, 64, 79
1, 434971, Control_c, 0, 67, 94
1, 434986, Control_c, 0, 64, 82
1, 434986, Control_c, 0, 67, 98
1, 435001, Control_c, 0, 64, 85
1, 435001, Control_c, 0, 67, 100
1, 435014, Note_off_c, 0, 74, 56
1, 435016, Control_c, 0, 64, 88
1, 435031, Note_off_c, 0, 71, 37
1, 435031, Control_c, 0, 64, 89
1, 435031, Control_c, 0, 67, 103
1, 435046, Control_c, 0, 64, 91
1, 435061, Control_c, 0, 64, 92
1, 435076, Control_c, 0, 64, 92
1, 435076, Control_c, 0, 67, 106
1, 435091, Control_c, 0, 67, 108
1, 435105, Control_c, 0, 67, 110
1, 435120, Control_c, 0, 64, 87
1, 435120, Control_c, 0, 67, 113
1, 435135, Control_c, 0, 64, 77
1, 435135, Control_c, 0, 67, 117
1, 435150, Control_c, 0, 64, 67
1, 435150, Control_c, 0, 67, 124
1, 435163, Note_on_c, 0, 74, 48
1, 435164, Control_c, 0, 64, 60
1, 435164, Control_c, 0, 67, 127
1, 435179, Control_c, 0, 64, 58
1, 435186, Note_on_c, 0, 71, 28
1, 435194, Control_c, 0, 64, 60
1, 435209, Control_c, 0, 64, 61
1, 435224, Control_c, 0, 64, 63
1, 435238, Control_c, 0, 64, 65
1, 435253, Control_c, 0, 64, 67
1, 435268, Control_c, 0, 64, 71
1, 435283, Control_c, 0, 64, 75
1, 435297, Control_c, 0, 64, 79
1, 435312, Control_c, 0, 64, 82
1, 435327, Control_c, 0, 64, 84
1, 435339, Note_off_c, 0, 74, 32
1, 435342, Control_c, 0, 64, 85
1, 435357, Control_c, 0, 64, 86
1, 435371, Control_c, 0, 64, 86
1, 435401, Control_c, 0, 64, 87
1, 435520, Note_on_c, 0, 74, 39
1, 435526, Note_on_c, 0, 77, 41
1, 435535, Control_c, 0, 64, 86
1, 435550, Control_c, 0, 64, 85
1, 435565, Control_c, 0, 64, 83
1, 435576, Note_off_c, 0, 71, 29
1, 435579, Control_c, 0, 64, 81
1, 435602, Control_c, 0, 64, 76
1, 435617, Control_c, 0, 64, 69
1, 435632, Control_c, 0, 64, 61
1, 435646, Control_c, 0, 64, 44
1, 435662, Control_c, 0, 64, 0
1, 435736, Control_c, 0, 64, 35
1, 435751, Control_c, 0, 64, 49
1, 435766, Control_c, 0, 64, 60
1, 435781, Control_c, 0, 64, 64
1, 435795, Control_c, 0, 64, 67
1, 435810, Control_c, 0, 64, 69
1, 435825, Control_c, 0, 64, 71
1, 435840, Control_c, 0, 64, 73
1, 435855, Control_c, 0, 64, 75
1, 435869, Control_c, 0, 64, 77
1, 435884, Control_c, 0, 64, 79
1, 435899, Control_c, 0, 64, 81
1, 435906, Note_on_c, 0, 56, 38
1, 435913, Control_c, 0, 64, 82
1, 435928, Control_c, 0, 64, 82
1, 435988, Control_c, 0, 64, 83
1, 436004, Note_off_c, 0, 74, 48
1, 436013, Note_off_c, 0, 77, 37
1, 436255, Control_c, 0, 64, 82
1, 436267, Note_on_c, 0, 55, 37
1, 436366, Control_c, 0, 64, 82
1, 436395, Control_c, 0, 64, 81
1, 436410, Control_c, 0, 64, 81
1, 436425, Control_c, 0, 64, 80
1, 436434, Note_off_c, 0, 56, 53
1, 436440, Control_c, 0, 64, 80
1, 436455, Control_c, 0, 64, 79
1, 436471, Control_c, 0, 64, 79
1, 436485, Control_c, 0, 64, 78
1, 436500, Control_c, 0, 64, 77
1, 436515, Control_c, 0, 64, 75
1, 436530, Control_c, 0, 64, 72
1, 436544, Control_c, 0, 64, 68
1, 436559, Control_c, 0, 64, 62
1, 436574, Control_c, 0, 64, 49
1, 436589, Control_c, 0, 64, 0
1, 436602, Note_on_c, 0, 83, 45
1, 436633, Note_on_c, 0, 74, 23
1, 436673, Note_off_c, 0, 55, 39
1, 436678, Control_c, 0, 64, 43
1, 436692, Control_c, 0, 64, 60
1, 436707, Control_c, 0, 64, 66
1, 436722, Control_c, 0, 64, 69
1, 436736, Control_c, 0, 64, 71
1, 436751, Control_c, 0, 64, 73
1, 436766, Control_c, 0, 64, 74
1, 436775, Note_off_c, 0, 83, 56
1, 436781, Control_c, 0, 64, 75
1, 436782, Note_off_c, 0, 74, 41
1, 436796, Control_c, 0, 64, 75
1, 436811, Control_c, 0, 64, 76
1, 436885, Control_c, 0, 64, 74
1, 436900, Control_c, 0, 64, 69
1, 436915, Control_c, 0, 64, 62
1, 436924, Note_on_c, 0, 83, 45
1, 436926, Note_on_c, 0, 74, 34
1, 436928, Control_c, 0, 64, 50
1, 436943, Control_c, 0, 64, 39
1, 436958, Control_c, 0, 64, 44
1, 436973, Control_c, 0, 64, 52
1, 436988, Control_c, 0, 64, 61
1, 437002, Control_c, 0, 64, 67
1, 437017, Control_c, 0, 64, 74
1, 437032, Control_c, 0, 64, 82
1, 437047, Control_c, 0, 64, 87
1, 437054, Note_off_c, 0, 83, 53
1, 437061, Control_c, 0, 64, 91
1, 437076, Control_c, 0, 64, 94
1, 437099, Control_c, 0, 64, 97
1, 437104, Note_off_c, 0, 74, 35
1, 437114, Control_c, 0, 64, 100
1, 437143, Control_c, 0, 64, 102
1, 437268, Note_on_c, 0, 74, 33
1, 437273, Note_on_c, 0, 83, 48
1, 437453, Note_off_c, 0, 74, 41
1, 437678, Control_c, 0, 64, 100
1, 437708, Control_c, 0, 64, 97
1, 437723, Control_c, 0, 64, 96
1, 437733, Note_on_c, 0, 86, 43
1, 437738, Control_c, 0, 64, 94
1, 437744, Note_on_c, 0, 77, 32
1, 437752, Control_c, 0, 64, 93
1, 437767, Control_c, 0, 64, 91
1, 437782, Control_c, 0, 64, 86
1, 437790, Note_off_c, 0, 83, 37
1, 437797, Control_c, 0, 64, 80
1, 437812, Control_c, 0, 64, 70
1, 437833, Control_c, 0, 64, 60
1, 437848, Control_c, 0, 64, 38
1, 437863, Control_c, 0, 64, 0
1, 437908, Control_c, 0, 64, 42
1, 437922, Control_c, 0, 64, 50
1, 437937, Control_c, 0, 64, 58
1, 437952, Control_c, 0, 64, 63
1, 437967, Control_c, 0, 64, 67
1, 437982, Control_c, 0, 64, 70
1, 437997, Control_c, 0, 64, 73
1, 438012, Control_c, 0, 64, 74
1, 438027, Control_c, 0, 64, 75
1, 438041, Control_c, 0, 64, 76
1, 438056, Control_c, 0, 64, 77
1, 438071, Control_c, 0, 64, 78
1, 438086, Control_c, 0, 64, 79
1, 438101, Control_c, 0, 64, 80
1, 438131, Control_c, 0, 64, 81
1, 438155, Note_on_c, 0, 68, 32
1, 438176, Control_c, 0, 64, 81
1, 438196, Note_off_c, 0, 77, 34
1, 438233, Note_off_c, 0, 86, 29
1, 438603, Note_on_c, 0, 67, 32
1, 438800, Note_off_c, 0, 68, 41
1, 439013, Control_c, 0, 64, 81
1, 439058, Control_c, 0, 64, 80
1, 439062, Note_on_c, 0, 86, 35
1, 439073, Control_c, 0, 64, 77
1, 439076, Note_off_c, 0, 67, 42
1, 439082, Note_on_c, 0, 83, 26
1, 439087, Control_c, 0, 64, 70
1, 439102, Control_c, 0, 64, 63
1, 439117, Control_c, 0, 64, 49
1, 439131, Control_c, 0, 64, 0
1, 439205, Control_c, 0, 64, 42
1, 439220, Control_c, 0, 64, 53
1, 439235, Control_c, 0, 64, 61
1, 439249, Control_c, 0, 64, 66
1, 439264, Control_c, 0, 64, 69
1, 439279, Control_c, 0, 64, 72
1, 439294, Control_c, 0, 64, 75
1, 439309, Control_c, 0, 64, 78
1, 439318, Note_off_c, 0, 83, 46
1, 439329, Note_off_c, 0, 86, 40
1, 439331, Control_c, 0, 64, 81
1, 439346, Control_c, 0, 64, 84
1, 439361, Control_c, 0, 64, 87
1, 439376, Control_c, 0, 64, 90
1, 439391, Control_c, 0, 64, 93
1, 439405, Control_c, 0, 64, 94
1, 439420, Control_c, 0, 64, 94
1, 439435, Control_c, 0, 64, 95
1, 439450, Control_c, 0, 64, 96
1, 439470, Note_on_c, 0, 86, 41
1, 439476, Note_on_c, 0, 83, 29
1, 439524, Control_c, 0, 64, 95
1, 439538, Control_c, 0, 64, 86
1, 439553, Control_c, 0, 64, 75
1, 439568, Control_c, 0, 64, 65
1, 439583, Control_c, 0, 64, 55
1, 439598, Control_c, 0, 64, 54
1, 439613, Control_c, 0, 64, 59
1, 439628, Control_c, 0, 64, 63
1, 439642, Control_c, 0, 64, 65
1, 439658, Control_c, 0, 64, 67
1, 439673, Control_c, 0, 64, 71
1, 439687, Control_c, 0, 64, 77
1, 439702, Control_c, 0, 64, 82
1, 439717, Control_c, 0, 64, 86
1, 439732, Control_c, 0, 64, 88
1, 439747, Control_c, 0, 64, 89
1, 439762, Control_c, 0, 64, 91
1, 439777, Note_off_c, 0, 83, 42
1, 439777, Control_c, 0, 64, 92
1, 439791, Note_off_c, 0, 86, 39
1, 439806, Control_c, 0, 64, 92
1, 439866, Control_c, 0, 64, 93
1, 439924, Note_on_c, 0, 86, 42
1, 439937, Note_on_c, 0, 83, 29
1, 439940, Control_c, 0, 64, 93
1, 439984, Control_c, 0, 64, 94
1, 440028, Control_c, 0, 64, 94
1, 440082, Note_off_c, 0, 86, 41
1, 440110, Control_c, 0, 64, 95
1, 440226, Note_off_c, 0, 83, 38
1, 440287, Control_c, 0, 64, 95
1, 440332, Control_c, 0, 64, 96
1, 440496, Control_c, 0, 64, 98
1, 440711, Note_on_c, 0, 89, 37
1, 440724, Note_on_c, 0, 86, 28
1, 440822, Control_c, 0, 64, 93
1, 440844, Control_c, 0, 64, 88
1, 440859, Control_c, 0, 64, 82
1, 440874, Control_c, 0, 64, 75
1, 440888, Control_c, 0, 64, 68
1, 440903, Control_c, 0, 64, 61
1, 440918, Control_c, 0, 64, 50
1, 440933, Control_c, 0, 64, 46
1, 440963, Control_c, 0, 64, 46
1, 440992, Control_c, 0, 64, 47
1, 441007, Control_c, 0, 64, 49
1, 441022, Control_c, 0, 64, 53
1, 441036, Control_c, 0, 64, 56
1, 441051, Control_c, 0, 64, 57
1, 441066, Control_c, 0, 64, 59
1, 441081, Control_c, 0, 64, 61
1, 441096, Control_c, 0, 64, 64
1, 441110, Control_c, 0, 64, 68
1, 441125, Control_c, 0, 64, 72
1, 441140, Control_c, 0, 64, 75
1, 441155, Control_c, 0, 64, 77
1, 441170, Control_c, 0, 64, 78
1, 441184, Control_c, 0, 64, 80
1, 441199, Control_c, 0, 64, 83
1, 441214, Control_c, 0, 64, 87
1, 441228, Control_c, 0, 64, 92
1, 441243, Control_c, 0, 64, 96
1, 441260, Control_c, 0, 64, 100
1, 441274, Control_c, 0, 64, 104
1, 441289, Control_c, 0, 64, 106
1, 441304, Control_c, 0, 64, 109
1, 441319, Control_c, 0, 64, 111
1, 441333, Control_c, 0, 64, 114
1, 441348, Control_c, 0, 64, 117
1, 441363, Control_c, 0, 64, 122
1, 441378, Control_c, 0, 64, 127
1, 441612, Note_on_c, 0, 80, 37
1, 442367, Note_off_c, 0, 80, 42
1, 442841, Note_on_c, 0, 79, 27
1, 443091, Control_c, 0, 64, 115
1, 443106, Control_c, 0, 64, 108
1, 443121, Control_c, 0, 64, 102
1, 443136, Control_c, 0, 64, 98
1, 443151, Control_c, 0, 64, 94
1, 443166, Control_c, 0, 64, 90
1, 443180, Control_c, 0, 64, 86
1, 443195, Control_c, 0, 64, 82
1, 443210, Control_c, 0, 64, 79
1, 443224, Control_c, 0, 64, 76
1, 443239, Control_c, 0, 64, 73
1, 443254, Control_c, 0, 64, 71
1, 443269, Control_c, 0, 64, 68
1, 443284, Control_c, 0, 64, 67
1, 443298, Control_c, 0, 64, 65
1, 443313, Control_c, 0, 64, 63
1, 443328, Control_c, 0, 64, 61
1, 443343, Control_c, 0, 64, 59
1, 443358, Control_c, 0, 64, 58
1, 443372, Control_c, 0, 64, 57
1, 443387, Control_c, 0, 64, 56
1, 443402, Control_c, 0, 64, 54
1, 443417, Control_c, 0, 64, 52
1, 443431, Control_c, 0, 64, 50
1, 443446, Control_c, 0, 64, 49
1, 443491, Control_c, 0, 64, 48
1, 443506, Control_c, 0, 64, 47
1, 443521, Control_c, 0, 64, 45
1, 443535, Control_c, 0, 64, 44
1, 443580, Control_c, 0, 64, 45
1, 443595, Control_c, 0, 64, 46
1, 443610, Control_c, 0, 64, 47
1, 443624, Control_c, 0, 64, 48
1, 443639, Control_c, 0, 64, 49
1, 443655, Control_c, 0, 64, 50
1, 443670, Control_c, 0, 64, 51
1, 443685, Control_c, 0, 64, 51
1, 443699, Control_c, 0, 64, 53
1, 443714, Control_c, 0, 64, 55
1, 443729, Control_c, 0, 64, 57
1, 443744, Control_c, 0, 64, 58
1, 443759, Control_c, 0, 64, 59
1, 443774, Control_c, 0, 64, 60
1, 443789, Control_c, 0, 64, 62
1, 443803, Control_c, 0, 64, 64
1, 443825, Control_c, 0, 64, 66
1, 443840, Control_c, 0, 64, 68
1, 443854, Control_c, 0, 64, 70
1, 443869, Control_c, 0, 64, 72
1, 443884, Control_c, 0, 64, 73
1, 443899, Control_c, 0, 64, 74
1, 443914, Control_c, 0, 64, 75
1, 443929, Control_c, 0, 64, 75
1, 443944, Control_c, 0, 64, 76
1, 443959, Control_c, 0, 64, 78
1, 443974, Control_c, 0, 64, 82
1, 443989, Control_c, 0, 64, 84
1, 444003, Control_c, 0, 64, 85
1, 444018, Control_c, 0, 64, 86
1, 444033, Control_c, 0, 64, 88
1, 444047, Control_c, 0, 64, 92
1, 444062, Control_c, 0, 64, 97
1, 444077, Control_c, 0, 64, 100
1, 444092, Control_c, 0, 64, 102
1, 444107, Control_c, 0, 64, 106
1, 444121, Control_c, 0, 64, 112
1, 444136, Control_c, 0, 64, 122
1, 444151, Control_c, 0, 64, 127
1, 445464, Note_off_c, 0, 89, 34
1, 445524, Note_off_c, 0, 86, 33
1, 445536, Note_off_c, 0, 79, 39
1, 445914, Control_c, 0, 64, 124
1, 445929, Control_c, 0, 64, 122
1, 445944, Control_c, 0, 64, 120
1, 445974, Control_c, 0, 64, 116
1, 446004, Control_c, 0, 64, 113
1, 446033, Control_c, 0, 64, 111
1, 446048, Control_c, 0, 64, 109
1, 446071, Control_c, 0, 64, 106
1, 446101, Control_c, 0, 64, 104
1, 446130, Control_c, 0, 64, 101
1, 446160, Control_c, 0, 64, 99
1, 446204, Control_c, 0, 64, 97
1, 446219, Control_c, 0, 64, 96
1, 446234, Control_c, 0, 64, 95
1, 446248, Control_c, 0, 64, 95
1, 446263, Control_c, 0, 64, 94
1, 446278, Control_c, 0, 64, 93
1, 446293, Control_c, 0, 64, 93
1, 446308, Control_c, 0, 64, 92
1, 446323, Control_c, 0, 64, 92
1, 446338, Control_c, 0, 64, 91
1, 446352, Control_c, 0, 64, 90
1, 446367, Control_c, 0, 64, 89
1, 446382, Control_c, 0, 64, 88
1, 446397, Control_c, 0, 64, 87
1, 446412, Control_c, 0, 64, 86
1, 446427, Control_c, 0, 64, 85
1, 446442, Control_c, 0, 64, 84
1, 446456, Control_c, 0, 64, 83
1, 446471, Control_c, 0, 64, 82
1, 446486, Control_c, 0, 64, 81
1, 446501, Control_c, 0, 64, 79
1, 446516, Control_c, 0, 64, 77
1, 446530, Control_c, 0, 64, 75
1, 446545, Control_c, 0, 64, 73
1, 446560, Control_c, 0, 64, 71
1, 446574, Control_c, 0, 64, 69
1, 446589, Control_c, 0, 64, 68
1, 446604, Control_c, 0, 64, 66
1, 446619, Control_c, 0, 64, 65
1, 446634, Control_c, 0, 64, 63
1, 446648, Control_c, 0, 64, 62
1, 446663, Control_c, 0, 64, 60
1, 446678, Control_c, 0, 64, 59
1, 446693, Control_c, 0, 64, 59
1, 446708, Control_c, 0, 64, 58
1, 446722, Control_c, 0, 64, 57
1, 446737, Control_c, 0, 64, 56
1, 446752, Control_c, 0, 64, 53
1, 446767, Control_c, 0, 64, 51
1, 446782, Control_c, 0, 64, 49
1, 446797, Control_c, 0, 64, 49
1, 446811, Control_c, 0, 64, 47
1, 446834, Control_c, 0, 64, 44
1, 446850, Control_c, 0, 64, 37
1, 446865, Control_c, 0, 64, 0
1, 447116, Control_c, 0, 67, 121
1, 447131, Control_c, 0, 67, 117
1, 447145, Control_c, 0, 67, 114
1, 447160, Control_c, 0, 67, 110
1, 447175, Control_c, 0, 67, 107
1, 447190, Control_c, 0, 67, 104
1, 447205, Control_c, 0, 67, 101
1, 447235, Control_c, 0, 67, 98
1, 447264, Control_c, 0, 67, 96
1, 447279, Control_c, 0, 64, 34
1, 447279, Control_c, 0, 67, 95
1, 447294, Control_c, 0, 64, 39
1, 447294, Control_c, 0, 67, 94
1, 447309, Control_c, 0, 64, 43
1, 447309, Control_c, 0, 67, 92
1, 447324, Control_c, 0, 64, 48
1, 447324, Control_c, 0, 67, 91
1, 447339, Control_c, 0, 64, 53
1, 447339, Control_c, 0, 67, 89
1, 447353, Control_c, 0, 64, 57
1, 447353, Control_c, 0, 67, 87
1, 447368, Control_c, 0, 64, 59
1, 447368, Control_c, 0, 67, 86
1, 447383, Control_c, 0, 64, 61
1, 447383, Control_c, 0, 67, 84
1, 447397, Control_c, 0, 64, 62
1, 447397, Control_c, 0, 67, 83
1, 447411, Control_c, 0, 64, 64
1, 447426, Control_c, 0, 64, 65
1, 447426, Control_c, 0, 67, 82
1, 447441, Control_c, 0, 64, 67
1, 447456, Control_c, 0, 64, 69
1, 447470, Control_c, 0, 64, 71
1, 447470, Control_c, 0, 67, 82
1, 447485, Control_c, 0, 64, 73
1, 447500, Control_c, 0, 64, 76
1, 447515, Control_c, 0, 64, 80
1, 447530, Control_c, 0, 64, 85
1, 447545, Control_c, 0, 64, 92
1, 447560, Control_c, 0, 64, 100
1, 447582, Control_c, 0, 64, 109
1, 447596, Control_c, 0, 64, 127
1, 448145, Control_c, 0, 67, 82
1, 448206, Control_c, 0, 67, 83
1, 448265, Control_c, 0, 67, 83
1, 448376, Control_c, 0, 67, 84
1, 448413, Note_on_c, 0, 60, 60
1, 448422, Note_on_c, 0, 48, 36
1, 448424, Note_on_c, 0, 36, 42
1, 448569, Control_c, 0, 64, 114
1, 448584, Control_c, 0, 64, 99
1, 448599, Control_c, 0, 64, 88
1, 448614, Control_c, 0, 64, 78
1, 448629, Control_c, 0, 64, 68
1, 448643, Control_c, 0, 64, 56
1, 448658, Control_c, 0, 64, 37
1, 448673, Control_c, 0, 64, 0
1, 448850, Control_c, 0, 64, 39
1, 448865, Control_c, 0, 64, 46
1, 448880, Control_c, 0, 64, 51
1, 448895, Control_c, 0, 64, 57
1, 448910, Control_c, 0, 64, 62
1, 448925, Control_c, 0, 64, 66
1, 448940, Control_c, 0, 64, 72
1, 448940, Control_c, 0, 67, 84
1, 448955, Control_c, 0, 64, 79
1, 448955, Control_c, 0, 67, 85
1, 448969, Control_c, 0, 64, 87
1, 448969, Control_c, 0, 67, 86
1, 448984, Control_c, 0, 64, 100
1, 448984, Control_c, 0, 67, 87
1, 448999, Control_c, 0, 64, 127
1, 448999, Control_c, 0, 67, 89
1, 449014, Control_c, 0, 67, 90
1, 449029, Control_c, 0, 67, 92
1, 449043, Control_c, 0, 67, 93
1, 449065, Control_c, 0, 67, 94
1, 449080, Control_c, 0, 67, 95
1, 449110, Control_c, 0, 67, 100
1, 449125, Control_c, 0, 67, 108
1, 449140, Control_c, 0, 67, 120
1, 449154, Control_c, 0, 67, 127
1, 449161, Note_off_c, 0, 36, 38
1, 449469, Note_off_c, 0, 48, 41
1, 450254, Note_on_c, 0, 63, 34
1, 450271, Note_on_c, 0, 51, 32
1, 450284, Note_on_c, 0, 39, 34
1, 450304, Control_c, 0, 64, 120
1, 450319, Control_c, 0, 64, 93
1, 450334, Control_c, 0, 64, 75
1, 450348, Control_c, 0, 64, 63
1, 450363, Control_c, 0, 64, 46
1, 450378, Control_c, 0, 64, 41
1, 450393, Control_c, 0, 64, 46
1, 450397, Note_off_c, 0, 60, 32
1, 450408, Control_c, 0, 64, 51
1, 450423, Control_c, 0, 64, 55
1, 450438, Control_c, 0, 64, 59
1, 450453, Control_c, 0, 64, 64
1, 450468, Control_c, 0, 64, 68
1, 450482, Control_c, 0, 64, 73
1, 450490, Note_off_c, 0, 39, 56
1, 450497, Control_c, 0, 64, 77
1, 450512, Control_c, 0, 64, 80
1, 450527, Control_c, 0, 64, 82
1, 450541, Control_c, 0, 64, 85
1, 450564, Control_c, 0, 64, 87
1, 450566, Note_off_c, 0, 51, 53
1, 450579, Control_c, 0, 64, 88
1, 450594, Control_c, 0, 64, 90
1, 450609, Control_c, 0, 64, 91
1, 450623, Control_c, 0, 64, 92
1, 450668, Control_c, 0, 64, 92
1, 450741, Control_c, 0, 64, 92
1, 450745, Note_on_c, 0, 66, 39
1, 450756, Control_c, 0, 64, 87
1, 450765, Note_on_c, 0, 54, 26
1, 450771, Control_c, 0, 64, 80
1, 450780, Note_on_c, 0, 42, 30
1, 450786, Control_c, 0, 64, 70
1, 450801, Control_c, 0, 64, 61
1, 450807, Note_off_c, 0, 63, 39
1, 450815, Control_c, 0, 64, 43
1, 450830, Control_c, 0, 64, 0
1, 450846, Control_c, 0, 64, 37
1, 450861, Control_c, 0, 64, 45
1, 450876, Control_c, 0, 64, 52
1, 450891, Control_c, 0, 64, 57
1, 450906, Control_c, 0, 64, 63
1, 450920, Control_c, 0, 64, 68
1, 450935, Control_c, 0, 64, 74
1, 450950, Control_c, 0, 64, 79
1, 450964, Control_c, 0, 64, 82
1, 450967, Note_off_c, 0, 42, 41
1, 450979, Control_c, 0, 64, 85
1, 450994, Control_c, 0, 64, 88
1, 451009, Control_c, 0, 64, 91
1, 451024, Control_c, 0, 64, 93
1, 451038, Control_c, 0, 64, 95
1, 451113, Control_c, 0, 64, 97
1, 451159, Note_off_c, 0, 54, 40
1, 451231, Control_c, 0, 64, 94
1, 451238, Note_on_c, 0, 67, 37
1, 451245, Control_c, 0, 64, 89
1, 451258, Note_on_c, 0, 55, 17
1, 451260, Control_c, 0, 64, 81
1, 451270, Note_on_c, 0, 43, 26
1, 451275, Control_c, 0, 64, 71
1, 451281, Note_off_c, 0, 66, 28
1, 451289, Control_c, 0, 64, 61
1, 451304, Control_c, 0, 64, 43
1, 451327, Control_c, 0, 64, 0
1, 451357, Control_c, 0, 64, 36
1, 451371, Control_c, 0, 64, 45
1, 451386, Control_c, 0, 64, 52
1, 451401, Control_c, 0, 64, 61
1, 451416, Control_c, 0, 64, 67
1, 451430, Note_off_c, 0, 55, 43
1, 451431, Control_c, 0, 64, 72
1, 451445, Control_c, 0, 64, 78
1, 451460, Control_c, 0, 64, 80
1, 451475, Control_c, 0, 64, 82
1, 451489, Control_c, 0, 64, 83
1, 451504, Control_c, 0, 64, 85
1, 451519, Control_c, 0, 64, 87
1, 451534, Control_c, 0, 64, 88
1, 451549, Control_c, 0, 64, 89
1, 451563, Control_c, 0, 64, 89
1, 451578, Control_c, 0, 64, 90
1, 451593, Control_c, 0, 64, 90
1, 451623, Control_c, 0, 64, 91
1, 451771, Note_on_c, 0, 44, 36
1, 451785, Note_on_c, 0, 56, 23
1, 451785, Note_on_c, 0, 68, 38
1, 451787, Control_c, 0, 64, 89
1, 451802, Control_c, 0, 64, 86
1, 451816, Control_c, 0, 64, 79
1, 451823, Note_off_c, 0, 43, 29
1, 451831, Control_c, 0, 64, 68
1, 451839, Note_off_c, 0, 67, 29
1, 451846, Control_c, 0, 64, 58
1, 451861, Control_c, 0, 64, 37
1, 451876, Control_c, 0, 64, 0
1, 451920, Control_c, 0, 64, 37
1, 451925, Note_off_c, 0, 56, 41
1, 451935, Control_c, 0, 64, 46
1, 451950, Control_c, 0, 64, 55
1, 451965, Control_c, 0, 64, 63
1, 451979, Control_c, 0, 64, 69
1, 451994, Control_c, 0, 64, 76
1, 452009, Control_c, 0, 64, 81
1, 452024, Control_c, 0, 64, 85
1, 452039, Control_c, 0, 64, 89
1, 452054, Control_c, 0, 64, 92
1, 452076, Control_c, 0, 64, 95
1, 452091, Control_c, 0, 64, 98
1, 452106, Control_c, 0, 64, 100
1, 452135, Control_c, 0, 64, 102
1, 452165, Control_c, 0, 64, 104
1, 452368, Note_off_c, 0, 44, 42
1, 452380, Note_on_c, 0, 36, 34
1, 452386, Control_c, 0, 64, 102
1, 452401, Control_c, 0, 64, 98
1, 452403, Note_on_c, 0, 60, 34
1, 452416, Control_c, 0, 64, 92
1, 452432, Control_c, 0, 64, 83
1, 452442, Note_off_c, 0, 68, 39
1, 452443, Poly_aftertouch_c, 0, 48, 127
1, 452447, Control_c, 0, 64, 73
1, 452462, Control_c, 0, 64, 63
1, 452477, Control_c, 0, 64, 48
1, 452491, Control_c, 0, 64, 0
1, 452510, Poly_aftertouch_c, 0, 48, 0
1, 452535, Control_c, 0, 64, 36
1, 452550, Control_c, 0, 64, 45
1, 452565, Control_c, 0, 64, 55
1, 452580, Control_c, 0, 64, 63
1, 452595, Control_c, 0, 64, 69
1, 452609, Control_c, 0, 64, 75
1, 452624, Control_c, 0, 64, 81
1, 452639, Control_c, 0, 64, 84
1, 452654, Control_c, 0, 64, 87
1, 452669, Control_c, 0, 64, 90
1, 452684, Control_c, 0, 64, 92
1, 452699, Control_c, 0, 64, 93
1, 452714, Control_c, 0, 64, 94
1, 452728, Control_c, 0, 64, 95
1, 452758, Control_c, 0, 64, 96
1, 453084, Note_on_c, 0, 47, 25
1, 453106, Note_on_c, 0, 35, 24
1, 453107, Note_on_c, 0, 59, 29
1, 453121, Control_c, 0, 64, 95
1, 453135, Control_c, 0, 64, 94
1, 453150, Control_c, 0, 64, 92
1, 453165, Control_c, 0, 64, 90
1, 453180, Control_c, 0, 64, 86
1, 453195, Control_c, 0, 64, 81
1, 453209, Control_c, 0, 64, 75
1, 453223, Note_off_c, 0, 60, 40
1, 453224, Control_c, 0, 64, 66
1, 453235, Note_off_c, 0, 36, 38
1, 453240, Control_c, 0, 64, 57
1, 453255, Control_c, 0, 64, 40
1, 453270, Control_c, 0, 64, 0
1, 453358, Control_c, 0, 64, 34
1, 453373, Control_c, 0, 64, 42
1, 453388, Control_c, 0, 64, 49
1, 453404, Control_c, 0, 64, 53
1, 453419, Control_c, 0, 64, 54
1, 453433, Control_c, 0, 64, 55
1, 453448, Control_c, 0, 64, 57
1, 453463, Control_c, 0, 64, 61
1, 453477, Control_c, 0, 64, 63
1, 453492, Control_c, 0, 64, 65
1, 453507, Control_c, 0, 64, 68
1, 453522, Control_c, 0, 64, 70
1, 453537, Control_c, 0, 64, 72
1, 453559, Control_c, 0, 64, 73
1, 453574, Control_c, 0, 64, 75
1, 453589, Control_c, 0, 64, 76
1, 453604, Control_c, 0, 64, 77
1, 453619, Control_c, 0, 64, 78
1, 453633, Control_c, 0, 64, 79
1, 453648, Control_c, 0, 64, 80
1, 453663, Control_c, 0, 64, 81
1, 453678, Control_c, 0, 64, 82
1, 453692, Note_off_c, 0, 35, 39
1, 453707, Control_c, 0, 64, 82
1, 453722, Control_c, 0, 64, 83
1, 453760, Note_off_c, 0, 47, 38
1, 453820, Note_off_c, 0, 59, 27
1, 453870, Control_c, 0, 64, 82
1, 453900, Control_c, 0, 64, 82
1, 453915, Control_c, 0, 64, 80
1, 453930, Control_c, 0, 64, 77
1, 453945, Control_c, 0, 64, 72
1, 453959, Control_c, 0, 64, 66
1, 453974, Control_c, 0, 64, 59
1, 453989, Control_c, 0, 64, 43
1, 454004, Control_c, 0, 64, 0
1, 454094, Control_c, 0, 64, 42
1, 454108, Control_c, 0, 64, 54
1, 454123, Control_c, 0, 64, 62
1, 454138, Control_c, 0, 64, 67
1, 454153, Control_c, 0, 64, 70
1, 454168, Control_c, 0, 64, 73
1, 454182, Control_c, 0, 64, 75
1, 454197, Control_c, 0, 64, 77
1, 454212, Control_c, 0, 64, 80
1, 454227, Control_c, 0, 64, 84
1, 454242, Control_c, 0, 64, 88
1, 454256, Control_c, 0, 64, 90
1, 454271, Control_c, 0, 64, 91
1, 454286, Control_c, 0, 64, 92
1, 454308, Control_c, 0, 64, 94
1, 454323, Control_c, 0, 64, 95
1, 454338, Control_c, 0, 64, 95
1, 454353, Control_c, 0, 64, 96
1, 454397, Control_c, 0, 64, 98
1, 454576, Note_on_c, 0, 75, 37
1, 454577, Note_on_c, 0, 66, 27
1, 454625, Note_on_c, 0, 72, 19
1, 455201, Note_on_c, 0, 74, 31
1, 455213, Note_on_c, 0, 67, 28
1, 455220, Control_c, 0, 64, 96
1, 455235, Control_c, 0, 64, 95
1, 455240, Note_on_c, 0, 71, 18
1, 455247, Note_off_c, 0, 72, 35
1, 455250, Control_c, 0, 64, 94
1, 455264, Control_c, 0, 64, 93
1, 455279, Control_c, 0, 64, 92
1, 455294, Control_c, 0, 64, 91
1, 455309, Control_c, 0, 64, 90
1, 455324, Control_c, 0, 64, 88
1, 455338, Control_c, 0, 64, 87
1, 455353, Control_c, 0, 64, 84
1, 455355, Note_off_c, 0, 66, 39
1, 455368, Control_c, 0, 64, 80
1, 455383, Control_c, 0, 64, 74
1, 455387, Note_off_c, 0, 71, 41
1, 455398, Note_off_c, 0, 75, 34
1, 455398, Control_c, 0, 64, 65
1, 455402, Note_off_c, 0, 67, 41
1, 455402, Note_off_c, 0, 74, 44
1, 455412, Control_c, 0, 64, 52
1, 455427, Control_c, 0, 64, 0
1, 455531, Control_c, 0, 64, 45
1, 455546, Control_c, 0, 64, 57
1, 455560, Control_c, 0, 64, 63
1, 455575, Control_c, 0, 64, 65
1, 455590, Control_c, 0, 64, 67
1, 455605, Control_c, 0, 64, 69
1, 455620, Control_c, 0, 64, 72
1, 455635, Control_c, 0, 64, 75
1, 455650, Control_c, 0, 64, 79
1, 455665, Control_c, 0, 64, 82
1, 455680, Control_c, 0, 64, 86
1, 455695, Control_c, 0, 64, 90
1, 455709, Control_c, 0, 64, 93
1, 455724, Control_c, 0, 64, 96
1, 455739, Control_c, 0, 64, 99
1, 455769, Control_c, 0, 64, 102
1, 455799, Control_c, 0, 64, 104
1, 455865, Control_c, 0, 64, 106
1, 455901, Note_on_c, 0, 68, 34
1, 455910, Note_on_c, 0, 78, 38
1, 455946, Note_on_c, 0, 72, 37
1, 456058, Control_c, 0, 64, 102
1, 456073, Control_c, 0, 64, 93
1, 456087, Control_c, 0, 64, 82
1, 456102, Control_c, 0, 64, 71
1, 456117, Control_c, 0, 64, 61
1, 456132, Control_c, 0, 64, 53
1, 456147, Control_c, 0, 64, 54
1, 456161, Control_c, 0, 64, 57
1, 456176, Control_c, 0, 64, 59
1, 456191, Control_c, 0, 64, 61
1, 456206, Control_c, 0, 64, 64
1, 456221, Control_c, 0, 64, 69
1, 456235, Control_c, 0, 64, 74
1, 456250, Control_c, 0, 64, 78
1, 456265, Control_c, 0, 64, 82
1, 456279, Control_c, 0, 64, 85
1, 456294, Control_c, 0, 64, 88
1, 456309, Control_c, 0, 64, 91
1, 456324, Control_c, 0, 64, 95
1, 456339, Control_c, 0, 64, 98
1, 456353, Control_c, 0, 64, 100
1, 456383, Control_c, 0, 64, 102
1, 456806, Note_on_c, 0, 79, 35
1, 456806, Note_on_c, 0, 67, 28
1, 456821, Control_c, 0, 64, 98
1, 456834, Note_on_c, 0, 71, 29
1, 456836, Control_c, 0, 64, 95
1, 456851, Control_c, 0, 64, 93
1, 456866, Control_c, 0, 64, 89
1, 456881, Control_c, 0, 64, 84
1, 456896, Control_c, 0, 64, 79
1, 456910, Control_c, 0, 64, 71
1, 456914, Note_off_c, 0, 68, 34
1, 456925, Control_c, 0, 64, 63
1, 456940, Control_c, 0, 64, 51
1, 456947, Note_off_c, 0, 78, 35
1, 456955, Control_c, 0, 64, 37
1, 456961, Note_off_c, 0, 72, 37
1, 456970, Control_c, 0, 64, 0
1, 457043, Control_c, 0, 64, 35
1, 457058, Control_c, 0, 64, 43
1, 457073, Control_c, 0, 64, 49
1, 457088, Control_c, 0, 64, 54
1, 457102, Control_c, 0, 64, 59
1, 457117, Control_c, 0, 64, 63
1, 457132, Control_c, 0, 64, 65
1, 457147, Control_c, 0, 64, 67
1, 457162, Control_c, 0, 64, 69
1, 457176, Control_c, 0, 64, 72
1, 457191, Control_c, 0, 64, 74
1, 457206, Control_c, 0, 64, 77
1, 457222, Control_c, 0, 64, 79
1, 457237, Control_c, 0, 64, 82
1, 457251, Control_c, 0, 64, 84
1, 457266, Control_c, 0, 64, 87
1, 457281, Control_c, 0, 64, 89
1, 457304, Control_c, 0, 64, 90
1, 457319, Control_c, 0, 64, 92
1, 457333, Control_c, 0, 64, 94
1, 457338, Note_off_c, 0, 67, 22
1, 457363, Control_c, 0, 64, 94
1, 457378, Control_c, 0, 64, 95
1, 457393, Control_c, 0, 64, 96
1, 457422, Control_c, 0, 64, 98
1, 457504, Note_off_c, 0, 79, 35
1, 457659, Note_off_c, 0, 71, 37
1, 457837, Control_c, 0, 64, 96
1, 457851, Control_c, 0, 64, 95
1, 457866, Control_c, 0, 64, 95
1, 457881, Control_c, 0, 64, 94
1, 457896, Control_c, 0, 64, 94
1, 457911, Control_c, 0, 64, 93
1, 457925, Control_c, 0, 64, 92
1, 457940, Control_c, 0, 64, 91
1, 457955, Control_c, 0, 64, 89
1, 457969, Control_c, 0, 64, 88
1, 457984, Control_c, 0, 64, 88
1, 457999, Control_c, 0, 64, 87
1, 458014, Control_c, 0, 64, 86
1, 458030, Control_c, 0, 64, 85
1, 458052, Control_c, 0, 64, 84
1, 458067, Control_c, 0, 64, 82
1, 458082, Control_c, 0, 64, 81
1, 458097, Control_c, 0, 64, 79
1, 458112, Control_c, 0, 64, 77
1, 458127, Control_c, 0, 64, 74
1, 458142, Control_c, 0, 64, 71
1, 458156, Control_c, 0, 64, 67
1, 458171, Control_c, 0, 64, 65
1, 458186, Control_c, 0, 64, 62
1, 458201, Control_c, 0, 64, 60
1, 458216, Control_c, 0, 64, 59
1, 458230, Control_c, 0, 64, 59
1, 458245, Control_c, 0, 64, 58
1, 458260, Control_c, 0, 64, 58
1, 458274, Control_c, 0, 64, 57
1, 458289, Control_c, 0, 64, 57
1, 458304, Control_c, 0, 64, 56
1, 458319, Control_c, 0, 64, 55
1, 458334, Control_c, 0, 64, 53
1, 458348, Control_c, 0, 64, 52
1, 458363, Control_c, 0, 64, 50
1, 458378, Control_c, 0, 64, 48
1, 458393, Control_c, 0, 64, 45
1, 458407, Control_c, 0, 64, 41
1, 458422, Control_c, 0, 64, 38
1, 458437, Control_c, 0, 64, 33
1, 458452, Control_c, 0, 64, 0
1, 458733, Control_c, 0, 64, 38
1, 458747, Control_c, 0, 64, 43
1, 458762, Control_c, 0, 64, 45
1, 458777, Control_c, 0, 64, 48
1, 458792, Control_c, 0, 64, 50
1, 458814, Control_c, 0, 64, 55
1, 458830, Control_c, 0, 64, 59
1, 458845, Control_c, 0, 64, 61
1, 458845, Control_c, 0, 67, 121
1, 458860, Control_c, 0, 64, 62
1, 458860, Control_c, 0, 67, 110
1, 458875, Control_c, 0, 64, 63
1, 458875, Control_c, 0, 67, 98
1, 458890, Control_c, 0, 64, 65
1, 458890, Control_c, 0, 67, 87
1, 458904, Control_c, 0, 64, 67
1, 458904, Control_c, 0, 67, 78
1, 458919, Control_c, 0, 64, 70
1, 458919, Control_c, 0, 67, 70
1, 458934, Control_c, 0, 64, 73
1, 458934, Control_c, 0, 67, 66
1, 458949, Control_c, 0, 64, 75
1, 458949, Control_c, 0, 67, 62
1, 458964, Control_c, 0, 64, 77
1, 458964, Control_c, 0, 67, 59
1, 458978, Control_c, 0, 64, 79
1, 458978, Control_c, 0, 67, 57
1, 458993, Control_c, 0, 64, 81
1, 458993, Control_c, 0, 67, 55
1, 459008, Control_c, 0, 64, 83
1, 459008, Control_c, 0, 67, 53
1, 459022, Control_c, 0, 64, 85
1, 459022, Control_c, 0, 67, 51
1, 459037, Control_c, 0, 64, 87
1, 459037, Control_c, 0, 67, 50
1, 459052, Control_c, 0, 64, 88
1, 459067, Control_c, 0, 64, 89
1, 459067, Control_c, 0, 67, 49
1, 459082, Control_c, 0, 64, 90
1, 459096, Control_c, 0, 64, 91
1, 459096, Control_c, 0, 67, 48
1, 459111, Control_c, 0, 64, 91
1, 459111, Control_c, 0, 67, 46
1, 459126, Control_c, 0, 64, 92
1, 459126, Control_c, 0, 67, 45
1, 459141, Control_c, 0, 67, 44
1, 459170, Control_c, 0, 64, 92
1, 459230, Control_c, 0, 64, 93
1, 459757, Control_c, 0, 64, 92
1, 459801, Note_on_c, 0, 56, 67
1, 459801, Control_c, 0, 64, 92
1, 459811, Note_on_c, 0, 44, 46
1, 459812, Note_on_c, 0, 32, 45
1, 459831, Control_c, 0, 64, 91
1, 459845, Control_c, 0, 64, 90
1, 459860, Control_c, 0, 64, 89
1, 459875, Control_c, 0, 64, 89
1, 459890, Control_c, 0, 64, 88
1, 459905, Control_c, 0, 64, 86
1, 459919, Control_c, 0, 64, 85
1, 459919, Control_c, 0, 67, 45
1, 459934, Control_c, 0, 64, 83
1, 459949, Control_c, 0, 64, 81
1, 459964, Control_c, 0, 64, 78
1, 459979, Control_c, 0, 64, 75
1, 459993, Control_c, 0, 64, 72
1, 460008, Control_c, 0, 64, 67
1, 460023, Control_c, 0, 64, 63
1, 460038, Control_c, 0, 64, 57
1, 460053, Control_c, 0, 64, 51
1, 460068, Control_c, 0, 64, 45
1, 460082, Control_c, 0, 64, 40
1, 460097, Control_c, 0, 64, 0
1, 460327, Control_c, 0, 67, 45
1, 460342, Control_c, 0, 67, 46
1, 460357, Control_c, 0, 64, 36
1, 460357, Control_c, 0, 67, 47
1, 460371, Control_c, 0, 64, 42
1, 460371, Control_c, 0, 67, 48
1, 460386, Control_c, 0, 64, 48
1, 460386, Control_c, 0, 67, 50
1, 460401, Control_c, 0, 64, 55
1, 460401, Control_c, 0, 67, 51
1, 460416, Control_c, 0, 64, 59
1, 460416, Control_c, 0, 67, 53
1, 460431, Control_c, 0, 64, 61
1, 460431, Control_c, 0, 67, 54
1, 460446, Control_c, 0, 64, 63
1, 460446, Control_c, 0, 67, 56
1, 460461, Control_c, 0, 64, 64
1, 460461, Control_c, 0, 67, 57
1, 460476, Control_c, 0, 64, 65
1, 460476, Control_c, 0, 67, 59
1, 460491, Control_c, 0, 64, 68
1, 460491, Control_c, 0, 67, 65
1, 460506, Control_c, 0, 64, 71
1, 460506, Control_c, 0, 67, 73
1, 460521, Control_c, 0, 64, 74
1, 460521, Control_c, 0, 67, 83
1, 460536, Control_c, 0, 64, 77
1, 460536, Control_c, 0, 67, 95
1, 460550, Control_c, 0, 64, 80
1, 460550, Control_c, 0, 67, 104
1, 460565, Control_c, 0, 64, 82
1, 460565, Control_c, 0, 67, 114
1, 460580, Control_c, 0, 64, 85
1, 460580, Control_c, 0, 67, 127
1, 460595, Control_c, 0, 64, 89
1, 460609, Control_c, 0, 64, 93
1, 460624, Control_c, 0, 64, 97
1, 460639, Control_c, 0, 64, 102
1, 460654, Control_c, 0, 64, 106
1, 460668, Control_c, 0, 64, 109
1, 460683, Control_c, 0, 64, 112
1, 460694, Note_off_c, 0, 32, 52
1, 460698, Control_c, 0, 64, 116
1, 460713, Control_c, 0, 64, 124
1, 460728, Control_c, 0, 64, 127
1, 461055, Note_off_c, 0, 44, 40
1, 461795, Control_c, 0, 64, 124
1, 461824, Control_c, 0, 64, 122
1, 461854, Control_c, 0, 64, 120
1, 461884, Control_c, 0, 64, 115
1, 461897, Note_on_c, 0, 35, 36
1, 461898, Control_c, 0, 64, 110
1, 461900, Note_on_c, 0, 47, 24
1, 461913, Control_c, 0, 64, 101
1, 461925, Note_on_c, 0, 59, 39
1, 461928, Control_c, 0, 64, 89
1, 461943, Control_c, 0, 64, 76
1, 461957, Control_c, 0, 64, 65
1, 461969, Note_off_c, 0, 56, 34
1, 461972, Control_c, 0, 64, 49
1, 461987, Control_c, 0, 64, 0
1, 462018, Control_c, 0, 64, 39
1, 462033, Control_c, 0, 64, 50
1, 462047, Control_c, 0, 64, 58
1, 462062, Control_c, 0, 64, 64
1, 462077, Control_c, 0, 64, 68
1, 462092, Control_c, 0, 64, 75
1, 462107, Control_c, 0, 64, 79
1, 462121, Control_c, 0, 64, 82
1, 462132, Note_off_c, 0, 35, 38
1, 462136, Control_c, 0, 64, 85
1, 462151, Control_c, 0, 64, 87
1, 462166, Control_c, 0, 64, 89
1, 462170, Note_off_c, 0, 47, 41
1, 462181, Control_c, 0, 64, 91
1, 462196, Control_c, 0, 64, 92
1, 462211, Control_c, 0, 64, 94
1, 462226, Control_c, 0, 64, 94
1, 462240, Control_c, 0, 64, 95
1, 462300, Control_c, 0, 64, 95
1, 462492, Control_c, 0, 64, 95
1, 462521, Control_c, 0, 64, 94
1, 462536, Control_c, 0, 64, 92
1, 462546, Note_on_c, 0, 36, 34
1, 462551, Note_on_c, 0, 48, 16
1, 462559, Control_c, 0, 64, 87
1, 462573, Control_c, 0, 64, 79
1, 462575, Note_off_c, 0, 59, 36
1, 462577, Note_on_c, 0, 60, 37
1, 462588, Control_c, 0, 64, 71
1, 462603, Control_c, 0, 64, 59
1, 462618, Control_c, 0, 64, 39
1, 462633, Control_c, 0, 64, 0
1, 462692, Control_c, 0, 64, 37
1, 462707, Control_c, 0, 64, 47
1, 462721, Control_c, 0, 64, 57
1, 462736, Control_c, 0, 64, 64
1, 462751, Control_c, 0, 64, 68
1, 462765, Control_c, 0, 64, 72
1, 462780, Control_c, 0, 64, 75
1, 462795, Control_c, 0, 64, 78
1, 462810, Control_c, 0, 64, 80
1, 462826, Control_c, 0, 64, 82
1, 462841, Control_c, 0, 64, 83
1, 462856, Note_off_c, 0, 60, 55
1, 462856, Control_c, 0, 64, 85
1, 462870, Control_c, 0, 64, 86
1, 462885, Control_c, 0, 64, 86
1, 462909, Note_on_c, 0, 61, 41
1, 462915, Control_c, 0, 64, 87
1, 462944, Control_c, 0, 64, 87
1, 462980, Note_off_c, 0, 61, 50
1, 462985, Note_on_c, 0, 60, 50
1, 463011, Note_off_c, 0, 60, 61
1, 463040, Note_on_c, 0, 58, 51
1, 463054, Note_off_c, 0, 48, 38
1, 463078, Control_c, 0, 64, 86
1, 463082, Note_off_c, 0, 58, 61
1, 463093, Control_c, 0, 64, 79
1, 463108, Control_c, 0, 64, 70
1, 463114, Note_on_c, 0, 60, 46
1, 463123, Control_c, 0, 64, 58
1, 463138, Control_c, 0, 64, 0
1, 463197, Control_c, 0, 64, 42
1, 463212, Control_c, 0, 64, 53
1, 463227, Control_c, 0, 64, 62
1, 463242, Control_c, 0, 64, 67
1, 463257, Control_c, 0, 64, 71
1, 463271, Control_c, 0, 64, 73
1, 463286, Control_c, 0, 64, 75
1, 463308, Control_c, 0, 64, 77
1, 463323, Control_c, 0, 64, 79
1, 463332, Note_on_c, 0, 61, 56
1, 463335, Note_on_c, 0, 37, 37
1, 463337, Note_off_c, 0, 36, 24
1, 463338, Control_c, 0, 64, 81
1, 463340, Note_on_c, 0, 49, 36
1, 463353, Control_c, 0, 64, 83
1, 463367, Control_c, 0, 64, 84
1, 463381, Note_off_c, 0, 37, 49
1, 463382, Control_c, 0, 64, 84
1, 463391, Note_off_c, 0, 49, 61
1, 463530, Control_c, 0, 64, 83
1, 463545, Control_c, 0, 64, 81
1, 463560, Control_c, 0, 64, 76
1, 463575, Control_c, 0, 64, 71
1, 463585, Note_on_c, 0, 39, 30
1, 463590, Control_c, 0, 64, 63
1, 463601, Note_off_c, 0, 60, 44
1, 463604, Control_c, 0, 64, 49
1, 463606, Note_on_c, 0, 51, 12
1, 463608, Note_on_c, 0, 63, 44
1, 463620, Control_c, 0, 64, 0
1, 463644, Note_off_c, 0, 61, 49
1, 463671, Note_off_c, 0, 51, 46
1, 463739, Control_c, 0, 64, 41
1, 463754, Control_c, 0, 64, 53
1, 463768, Control_c, 0, 64, 62
1, 463783, Control_c, 0, 64, 65
1, 463798, Control_c, 0, 64, 67
1, 463812, Control_c, 0, 64, 69
1, 463827, Control_c, 0, 64, 71
1, 463842, Control_c, 0, 64, 73
1, 463857, Control_c, 0, 64, 75
1, 463872, Control_c, 0, 64, 76
1, 463886, Control_c, 0, 64, 78
1, 463901, Control_c, 0, 64, 79
1, 463916, Control_c, 0, 64, 80
1, 463931, Control_c, 0, 64, 81
1, 463961, Control_c, 0, 64, 81
1, 464045, Note_off_c, 0, 39, 35
1, 464101, Control_c, 0, 64, 80
1, 464116, Control_c, 0, 64, 79
1, 464131, Control_c, 0, 64, 75
1, 464134, Note_on_c, 0, 32, 28
1, 464140, Note_on_c, 0, 56, 36
1, 464142, Note_on_c, 0, 44, 22
1, 464145, Control_c, 0, 64, 70
1, 464160, Control_c, 0, 64, 63
1, 464174, Note_off_c, 0, 63, 33
1, 464175, Control_c, 0, 64, 48
1, 464190, Control_c, 0, 64, 0
1, 464265, Control_c, 0, 64, 44
1, 464280, Control_c, 0, 64, 56
1, 464294, Control_c, 0, 64, 64
1, 464309, Control_c, 0, 64, 68
1, 464318, Note_off_c, 0, 44, 36
1, 464324, Control_c, 0, 64, 71
1, 464339, Control_c, 0, 64, 73
1, 464353, Control_c, 0, 64, 75
1, 464368, Control_c, 0, 64, 77
1, 464383, Control_c, 0, 64, 79
1, 464398, Control_c, 0, 64, 80
1, 464414, Control_c, 0, 64, 81
1, 464429, Control_c, 0, 64, 81
1, 464458, Control_c, 0, 64, 82
1, 464503, Control_c, 0, 64, 82
1, 464791, Control_c, 0, 64, 82
1, 464821, Control_c, 0, 64, 81
1, 464829, Note_on_c, 0, 43, 9
1, 464831, Note_on_c, 0, 31, 19
1, 464835, Note_on_c, 0, 55, 37
1, 464836, Control_c, 0, 64, 81
1, 464850, Control_c, 0, 64, 80
1, 464865, Control_c, 0, 64, 79
1, 464880, Control_c, 0, 64, 77
1, 464895, Control_c, 0, 64, 74
1, 464910, Control_c, 0, 64, 71
1, 464924, Control_c, 0, 64, 67
1, 464926, Note_off_c, 0, 32, 21
1, 464939, Control_c, 0, 64, 62
1, 464954, Note_off_c, 0, 56, 38
1, 464954, Control_c, 0, 64, 52
1, 464968, Control_c, 0, 64, 34
1, 464983, Control_c, 0, 64, 0
1, 465117, Control_c, 0, 64, 38
1, 465132, Control_c, 0, 64, 49
1, 465147, Control_c, 0, 64, 58
1, 465162, Control_c, 0, 64, 61
1, 465173, Note_off_c, 0, 31, 40
1, 465176, Control_c, 0, 64, 63
1, 465191, Control_c, 0, 64, 64
1, 465206, Control_c, 0, 64, 65
1, 465222, Control_c, 0, 64, 67
1, 465236, Control_c, 0, 64, 69
1, 465251, Control_c, 0, 64, 71
1, 465266, Control_c, 0, 64, 73
1, 465281, Control_c, 0, 64, 74
1, 465287, Note_off_c, 0, 43, 40
1, 465296, Control_c, 0, 64, 75
1, 465311, Control_c, 0, 64, 75
1, 465326, Control_c, 0, 64, 76
1, 465326, Note_off_c, 0, 55, 58
1, 465355, Control_c, 0, 64, 76
1, 465540, Control_c, 0, 64, 75
1, 465555, Control_c, 0, 64, 74
1, 465570, Control_c, 0, 64, 73
1, 465585, Control_c, 0, 64, 72
1, 465599, Control_c, 0, 64, 72
1, 465614, Control_c, 0, 64, 71
1, 465629, Control_c, 0, 64, 71
1, 465644, Control_c, 0, 64, 70
1, 465659, Control_c, 0, 64, 70
1, 465673, Control_c, 0, 64, 68
1, 465688, Control_c, 0, 64, 66
1, 465703, Control_c, 0, 64, 64
1, 465717, Control_c, 0, 64, 60
1, 465732, Control_c, 0, 64, 52
1, 465747, Control_c, 0, 64, 42
1, 465762, Control_c, 0, 64, 34
1, 465777, Control_c, 0, 64, 0
1, 465836, Control_c, 0, 64, 36
1, 465851, Control_c, 0, 64, 43
1, 465865, Control_c, 0, 64, 48
1, 465880, Control_c, 0, 64, 52
1, 465895, Control_c, 0, 64, 56
1, 465910, Control_c, 0, 64, 60
1, 465925, Control_c, 0, 64, 63
1, 465940, Control_c, 0, 64, 64
1, 465955, Control_c, 0, 64, 66
1, 465970, Control_c, 0, 64, 68
1, 465984, Control_c, 0, 64, 71
1, 465999, Control_c, 0, 64, 73
1, 466014, Control_c, 0, 64, 75
1, 466029, Control_c, 0, 64, 77
1, 466044, Control_c, 0, 64, 79
1, 466059, Control_c, 0, 64, 81
1, 466074, Control_c, 0, 64, 83
1, 466089, Control_c, 0, 64, 85
1, 466104, Control_c, 0, 64, 86
1, 466119, Control_c, 0, 64, 86
1, 466134, Control_c, 0, 64, 87
1, 466148, Control_c, 0, 64, 87
1, 466345, Note_on_c, 0, 71, 43
1, 466369, Note_on_c, 0, 68, 36
1, 466380, Note_on_c, 0, 62, 19
1, 466763, Control_c, 0, 64, 87
1, 466792, Control_c, 0, 64, 86
1, 466823, Control_c, 0, 64, 86
1, 466837, Control_c, 0, 64, 85
1, 466867, Control_c, 0, 64, 84
1, 466882, Control_c, 0, 64, 83
1, 466897, Control_c, 0, 64, 83
1, 466912, Control_c, 0, 64, 82
1, 466927, Control_c, 0, 64, 81
1, 466935, Note_on_c, 0, 70, 38
1, 466942, Control_c, 0, 64, 81
1, 466956, Control_c, 0, 64, 80
1, 466964, Note_on_c, 0, 63, 19
1, 466965, Note_on_c, 0, 67, 19
1, 466971, Control_c, 0, 64, 79
1, 466986, Control_c, 0, 64, 78
1, 467000, Note_off_c, 0, 68, 18
1, 467001, Control_c, 0, 64, 76
1, 467016, Control_c, 0, 64, 75
1, 467018, Note_off_c, 0, 71, 26
1, 467037, Control_c, 0, 64, 73
1, 467052, Control_c, 0, 64, 70
1, 467060, Note_off_c, 0, 62, 36
1, 467067, Control_c, 0, 64, 67
1, 467082, Control_c, 0, 64, 62
1, 467097, Control_c, 0, 64, 56
1, 467111, Control_c, 0, 64, 45
1, 467126, Control_c, 0, 64, 0
1, 467133, Note_off_c, 0, 67, 49
1, 467186, Note_off_c, 0, 70, 59
1, 467187, Note_off_c, 0, 63, 49
1, 467275, Control_c, 0, 64, 44
1, 467289, Control_c, 0, 64, 55
1, 467304, Control_c, 0, 64, 62
1, 467319, Control_c, 0, 64, 65
1, 467334, Control_c, 0, 64, 68
1, 467349, Control_c, 0, 64, 69
1, 467363, Control_c, 0, 64, 71
1, 467378, Control_c, 0, 64, 74
1, 467393, Control_c, 0, 64, 77
1, 467408, Control_c, 0, 64, 80
1, 467423, Control_c, 0, 64, 83
1, 467437, Control_c, 0, 64, 87
1, 467452, Control_c, 0, 64, 90
1, 467467, Control_c, 0, 64, 92
1, 467481, Control_c, 0, 64, 93
1, 467496, Control_c, 0, 64, 94
1, 467511, Control_c, 0, 64, 96
1, 467541, Control_c, 0, 64, 98
1, 467705, Note_on_c, 0, 74, 37
1, 467713, Note_on_c, 0, 68, 32
1, 467736, Note_on_c, 0, 71, 30
1, 468518, Note_on_c, 0, 67, 29
1, 468533, Note_on_c, 0, 75, 32
1, 468556, Note_on_c, 0, 70, 26
1, 468581, Control_c, 0, 64, 95
1, 468596, Control_c, 0, 64, 94
1, 468610, Control_c, 0, 64, 92
1, 468625, Control_c, 0, 64, 89
1, 468640, Control_c, 0, 64, 86
1, 468655, Control_c, 0, 64, 84
1, 468666, Note_off_c, 0, 74, 32
1, 468670, Control_c, 0, 64, 80
1, 468684, Control_c, 0, 64, 76
1, 468699, Control_c, 0, 64, 71
1, 468708, Note_off_c, 0, 68, 37
1, 468713, Note_off_c, 0, 71, 34
1, 468714, Control_c, 0, 64, 65
1, 468729, Control_c, 0, 64, 59
1, 468743, Control_c, 0, 64, 49
1, 468758, Control_c, 0, 64, 42
1, 468773, Control_c, 0, 64, 39
1, 468861, Control_c, 0, 64, 40
1, 468876, Control_c, 0, 64, 42
1, 468891, Control_c, 0, 64, 44
1, 468906, Control_c, 0, 64, 46
1, 468921, Control_c, 0, 64, 49
1, 468936, Control_c, 0, 64, 51
1, 468951, Control_c, 0, 64, 53
1, 468966, Control_c, 0, 64, 56
1, 468980, Control_c, 0, 64, 60
1, 468995, Control_c, 0, 64, 63
1, 469010, Control_c, 0, 64, 65
1, 469025, Control_c, 0, 64, 67
1, 469040, Control_c, 0, 64, 69
1, 469049, Note_off_c, 0, 67, 31
1, 469055, Control_c, 0, 64, 72
1, 469069, Control_c, 0, 64, 75
1, 469084, Control_c, 0, 64, 78
1, 469099, Control_c, 0, 64, 81
1, 469114, Control_c, 0, 64, 84
1, 469129, Control_c, 0, 64, 87
1, 469143, Control_c, 0, 64, 90
1, 469158, Control_c, 0, 64, 94
1, 469173, Control_c, 0, 64, 97
1, 469188, Control_c, 0, 64, 100
1, 469204, Control_c, 0, 64, 103
1, 469219, Control_c, 0, 64, 105
1, 469233, Control_c, 0, 64, 107
1, 469248, Control_c, 0, 64, 109
1, 469263, Control_c, 0, 64, 112
1, 469299, Control_c, 0, 64, 114
1, 469314, Note_off_c, 0, 75, 30
1, 469344, Control_c, 0, 64, 117
1, 469359, Control_c, 0, 64, 122
1, 469374, Control_c, 0, 64, 127
1, 469505, Note_off_c, 0, 70, 28
1, 469877, Control_c, 0, 64, 124
1, 469891, Control_c, 0, 64, 122
1, 469906, Control_c, 0, 64, 117
1, 469921, Control_c, 0, 64, 115
1, 469951, Control_c, 0, 64, 113
1, 469965, Control_c, 0, 64, 111
1, 469995, Control_c, 0, 64, 108
1, 470026, Control_c, 0, 64, 105
1, 470048, Control_c, 0, 64, 103
1, 470063, Control_c, 0, 64, 101
1, 470077, Control_c, 0, 64, 98
1, 470092, Control_c, 0, 64, 96
1, 470107, Control_c, 0, 64, 95
1, 470122, Control_c, 0, 64, 94
1, 470137, Control_c, 0, 64, 92
1, 470152, Control_c, 0, 64, 91
1, 470167, Control_c, 0, 64, 89
1, 470181, Control_c, 0, 64, 88
1, 470196, Control_c, 0, 64, 87
1, 470211, Control_c, 0, 64, 86
1, 470226, Control_c, 0, 64, 85
1, 470241, Control_c, 0, 64, 84
1, 470255, Control_c, 0, 64, 82
1, 470270, Control_c, 0, 64, 80
1, 470285, Control_c, 0, 64, 77
1, 470300, Control_c, 0, 64, 75
1, 470300, Control_c, 0, 67, 121
1, 470314, Control_c, 0, 64, 71
1, 470314, Control_c, 0, 67, 108
1, 470329, Control_c, 0, 64, 68
1, 470329, Control_c, 0, 67, 95
1, 470344, Control_c, 0, 64, 65
1, 470344, Control_c, 0, 67, 81
1, 470359, Control_c, 0, 64, 61
1, 470359, Control_c, 0, 67, 68
1, 470374, Control_c, 0, 64, 58
1, 470374, Control_c, 0, 67, 56
1, 470388, Control_c, 0, 64, 56
1, 470388, Control_c, 0, 67, 48
1, 470403, Control_c, 0, 64, 55
1, 470403, Control_c, 0, 67, 41
1, 470418, Control_c, 0, 64, 53
1, 470418, Control_c, 0, 67, 36
1, 470432, Control_c, 0, 64, 49
1, 470432, Control_c, 0, 67, 31
1, 470447, Control_c, 0, 64, 43
1, 470447, Control_c, 0, 67, 26
1, 470462, Control_c, 0, 64, 0
1, 470462, Control_c, 0, 67, 21
1, 470477, Control_c, 0, 67, 0
1, 470640, Control_c, 0, 64, 39
1, 470655, Control_c, 0, 64, 50
1, 470670, Control_c, 0, 64, 57
1, 470685, Control_c, 0, 64, 61
1, 470699, Control_c, 0, 64, 63
1, 470714, Control_c, 0, 64, 65
1, 470729, Control_c, 0, 64, 67
1, 470744, Control_c, 0, 64, 70
1, 470759, Control_c, 0, 64, 74
1, 470774, Control_c, 0, 64, 77
1, 470796, Control_c, 0, 64, 81
1, 470811, Control_c, 0, 64, 85
1, 470826, Control_c, 0, 64, 90
1, 470841, Control_c, 0, 64, 94
1, 470856, Control_c, 0, 64, 99
1, 470870, Control_c, 0, 64, 104
1, 470885, Control_c, 0, 64, 111
1, 470900, Control_c, 0, 64, 127
1, 471341, Note_on_c, 0, 41, 36
1, 471344, Note_on_c, 0, 61, 68
1, 471375, Control_c, 0, 67, 22
1, 471390, Control_c, 0, 67, 27
1, 471404, Control_c, 0, 67, 34
1, 471419, Control_c, 0, 67, 51
1, 471434, Control_c, 0, 67, 76
1, 471449, Control_c, 0, 67, 96
1, 471464, Control_c, 0, 67, 112
1, 471478, Control_c, 0, 67, 126
1, 471499, Note_off_c, 0, 61, 48
1, 471765, Note_on_c, 0, 49, 32
1, 471977, Note_off_c, 0, 49, 41
1, 472012, Note_on_c, 0, 44, 28
1, 472182, Note_off_c, 0, 41, 35
1, 472222, Note_on_c, 0, 49, 28
1, 472420, Note_off_c, 0, 49, 33
1, 472454, Note_on_c, 0, 41, 31
1, 472650, Note_off_c, 0, 44, 42
1, 472675, Note_on_c, 0, 49, 21
1, 472879, Note_off_c, 0, 49, 40
1, 472885, Note_on_c, 0, 44, 30
1, 472921, Note_on_c, 0, 85, 47
1, 473049, Note_off_c, 0, 41, 24
1, 473150, Note_on_c, 0, 49, 13
1, 473220, Control_c, 0, 67, 119
1, 473235, Control_c, 0, 67, 110
1, 473249, Control_c, 0, 67, 101
1, 473264, Control_c, 0, 67, 90
1, 473279, Control_c, 0, 67, 83
1, 473294, Control_c, 0, 67, 77
1, 473309, Control_c, 0, 67, 72
1, 473324, Control_c, 0, 67, 66
1, 473339, Control_c, 0, 67, 61
1, 473343, Note_off_c, 0, 49, 33
1, 473353, Control_c, 0, 67, 55
1, 473356, Note_on_c, 0, 80, 51
1, 473361, Note_on_c, 0, 41, 21
1, 473368, Control_c, 0, 67, 47
1, 473383, Control_c, 0, 67, 40
1, 473398, Control_c, 0, 67, 34
1, 473413, Control_c, 0, 67, 28
1, 473428, Control_c, 0, 67, 22
1, 473443, Control_c, 0, 67, 0
1, 473552, Note_off_c, 0, 44, 43
1, 473577, Note_on_c, 0, 49, 30
1, 473617, Note_off_c, 0, 85, 22
1, 473782, Note_off_c, 0, 80, 47
1, 473801, Note_on_c, 0, 44, 25
1, 473801, Note_off_c, 0, 49, 39
1, 473802, Note_on_c, 0, 77, 49
1, 473929, Note_off_c, 0, 77, 0
1, 473949, Note_off_c, 0, 41, 32
1, 473957, Note_on_c, 0, 77, 34
1, 474000, Note_on_c, 0, 49, 30
1, 474197, Note_on_c, 0, 73, 56
1, 474225, Note_off_c, 0, 49, 40
1, 474231, Note_on_c, 0, 41, 21
1, 474294, Note_off_c, 0, 77, 43
1, 474416, Note_off_c, 0, 44, 45
1, 474424, Note_on_c, 0, 49, 38
1, 474611, Note_off_c, 0, 49, 43
1, 474614, Note_on_c, 0, 44, 32
1, 474649, Note_on_c, 0, 68, 63
1, 474698, Note_off_c, 0, 73, 59
1, 474721, Note_off_c, 0, 41, 34
1, 474731, Note_off_c, 0, 68, 61
1, 474850, Note_on_c, 0, 49, 42
1, 474918, Note_off_c, 0, 49, 53
1, 475163, Note_on_c, 0, 42, 32
1, 475227, Note_on_c, 0, 63, 70
1, 475243, Note_on_c, 0, 57, 53
1, 475252, Note_on_c, 0, 60, 48
1, 475258, Note_off_c, 0, 44, 42
1, 475303, Control_c, 0, 64, 89
1, 475318, Control_c, 0, 64, 67
1, 475333, Control_c, 0, 64, 36
1, 475348, Control_c, 0, 64, 0
1, 475422, Control_c, 0, 64, 40
1, 475437, Control_c, 0, 64, 58
1, 475452, Control_c, 0, 64, 66
1, 475467, Control_c, 0, 64, 69
1, 475482, Control_c, 0, 64, 73
1, 475497, Control_c, 0, 64, 77
1, 475511, Control_c, 0, 64, 83
1, 475526, Control_c, 0, 64, 93
1, 475541, Control_c, 0, 64, 109
1, 475555, Control_c, 0, 64, 127
1, 475610, Note_on_c, 0, 48, 31
1, 475720, Note_off_c, 0, 57, 37
1, 475820, Note_off_c, 0, 48, 38
1, 475837, Note_on_c, 0, 45, 33
1, 475868, Note_off_c, 0, 63, 33
1, 475881, Note_off_c, 0, 60, 26
1, 475988, Note_off_c, 0, 42, 41
1, 476046, Note_on_c, 0, 48, 26
1, 476235, Note_on_c, 0, 42, 37
1, 476263, Note_off_c, 0, 48, 35
1, 476430, Note_off_c, 0, 45, 39
1, 476450, Note_on_c, 0, 48, 27
1, 476641, Note_off_c, 0, 48, 40
1, 476681, Note_on_c, 0, 45, 11
1, 476687, Note_on_c, 0, 84, 49
1, 476787, Note_off_c, 0, 42, 37
1, 476884, Note_on_c, 0, 48, 14
1, 477063, Note_off_c, 0, 48, 30
1, 477097, Note_on_c, 0, 42, 24
1, 477121, Note_off_c, 0, 84, 60
1, 477130, Note_on_c, 0, 81, 52
1, 477306, Note_off_c, 0, 45, 39
1, 477346, Note_on_c, 0, 48, 24
1, 477536, Note_off_c, 0, 48, 40
1, 477552, Note_on_c, 0, 78, 54
1, 477560, Note_on_c, 0, 45, 27
1, 477613, Note_off_c, 0, 81, 53
1, 477696, Note_off_c, 0, 42, 43
1, 477732, Note_on_c, 0, 48, 30
1, 477926, Note_off_c, 0, 48, 21
1, 477938, Note_on_c, 0, 42, 26
1, 477980, Note_on_c, 0, 75, 49
1, 478010, Control_c, 0, 64, 115
1, 478025, Control_c, 0, 64, 85
1, 478039, Control_c, 0, 64, 65
1, 478054, Control_c, 0, 64, 45
1, 478061, Note_off_c, 0, 78, 37
1, 478069, Control_c, 0, 64, 0
1, 478099, Control_c, 0, 64, 38
1, 478108, Note_off_c, 0, 45, 38
1, 478114, Control_c, 0, 64, 47
1, 478129, Control_c, 0, 64, 57
1, 478144, Control_c, 0, 64, 64
1, 478159, Control_c, 0, 64, 69
1, 478162, Note_on_c, 0, 48, 23
1, 478173, Control_c, 0, 64, 74
1, 478188, Control_c, 0, 64, 78
1, 478203, Control_c, 0, 64, 80
1, 478218, Control_c, 0, 64, 82
1, 478233, Control_c, 0, 64, 84
1, 478247, Control_c, 0, 64, 86
1, 478269, Control_c, 0, 64, 88
1, 478284, Control_c, 0, 64, 89
1, 478299, Control_c, 0, 64, 90
1, 478314, Control_c, 0, 64, 90
1, 478329, Control_c, 0, 64, 91
1, 478343, Control_c, 0, 64, 93
1, 478354, Note_off_c, 0, 48, 38
1, 478358, Control_c, 0, 64, 95
1, 478373, Control_c, 0, 64, 97
1, 478388, Control_c, 0, 64, 100
1, 478395, Note_on_c, 0, 45, 22
1, 478403, Control_c, 0, 64, 102
1, 478406, Note_on_c, 0, 72, 40
1, 478418, Control_c, 0, 64, 104
1, 478433, Control_c, 0, 64, 106
1, 478477, Note_off_c, 0, 75, 32
1, 478492, Control_c, 0, 64, 108
1, 478510, Note_off_c, 0, 72, 59
1, 478582, Note_off_c, 0, 42, 41
1, 478588, Note_on_c, 0, 48, 29
1, 478803, Control_c, 0, 64, 106
1, 478818, Control_c, 0, 64, 104
1, 478832, Note_on_c, 0, 43, 34
1, 478833, Control_c, 0, 64, 100
1, 478846, Note_off_c, 0, 48, 33
1, 478848, Control_c, 0, 64, 96
1, 478863, Control_c, 0, 64, 91
1, 478878, Control_c, 0, 64, 86
1, 478893, Control_c, 0, 64, 81
1, 478908, Control_c, 0, 64, 74
1, 478923, Control_c, 0, 64, 65
1, 478937, Control_c, 0, 64, 56
1, 478942, Note_off_c, 0, 45, 38
1, 478952, Control_c, 0, 64, 43
1, 478967, Control_c, 0, 64, 35
1, 478982, Control_c, 0, 64, 34
1, 479019, Control_c, 0, 64, 0
1, 479057, Note_on_c, 0, 63, 34
1, 479067, Note_on_c, 0, 60, 31
1, 479117, Note_off_c, 0, 63, 54
1, 479124, Note_off_c, 0, 60, 44
1, 479259, Note_on_c, 0, 63, 45
1, 479263, Note_on_c, 0, 60, 37
1, 479308, Note_off_c, 0, 60, 48
1, 479310, Note_off_c, 0, 63, 58
1, 479322, Note_off_c, 0, 43, 52
1, 479470, Note_on_c, 0, 60, 23
1, 479474, Note_on_c, 0, 63, 23
1, 479518, Note_off_c, 0, 63, 48
1, 479519, Note_off_c, 0, 60, 48
1, 479680, Note_on_c, 0, 44, 32
1, 479892, Note_on_c, 0, 63, 31
1, 479894, Note_on_c, 0, 60, 23
1, 479931, Control_c, 0, 64, 34
1, 479935, Note_off_c, 0, 63, 49
1, 479938, Note_off_c, 0, 60, 51
1, 479945, Control_c, 0, 64, 34
1, 479960, Control_c, 0, 64, 35
1, 479975, Control_c, 0, 64, 35
1, 479990, Control_c, 0, 64, 36
1, 480005, Control_c, 0, 64, 36
1, 480034, Control_c, 0, 64, 37
1, 480049, Control_c, 0, 64, 37
1, 480079, Control_c, 0, 64, 38
1, 480086, Note_on_c, 0, 63, 43
1, 480090, Note_on_c, 0, 60, 36
1, 480108, Control_c, 0, 64, 38
1, 480129, Note_off_c, 0, 63, 58
1, 480131, Note_off_c, 0, 60, 49
1, 480138, Control_c, 0, 64, 39
1, 480165, Note_off_c, 0, 44, 51
1, 480168, Control_c, 0, 64, 39
1, 480198, Control_c, 0, 64, 40
1, 480227, Control_c, 0, 64, 40
1, 480242, Control_c, 0, 64, 41
1, 480287, Control_c, 0, 64, 41
1, 480298, Note_on_c, 0, 63, 38
1, 480304, Note_on_c, 0, 60, 30
1, 480337, Note_off_c, 0, 63, 54
1, 480345, Control_c, 0, 64, 42
1, 480347, Note_off_c, 0, 60, 49
1, 480420, Control_c, 0, 64, 42
1, 480528, Note_on_c, 0, 41, 35
1, 480727, Note_on_c, 0, 60, 35
1, 480728, Note_on_c, 0, 62, 38
1, 480768, Note_off_c, 0, 62, 53
1, 480770, Note_off_c, 0, 60, 51
1, 480931, Note_on_c, 0, 62, 42
1, 480937, Note_on_c, 0, 60, 30
1, 480967, Note_off_c, 0, 62, 55
1, 480972, Note_off_c, 0, 60, 53
1, 480993, Note_off_c, 0, 41, 40
1, 481034, Control_c, 0, 64, 43
1, 481159, Note_on_c, 0, 60, 22
1, 481164, Note_on_c, 0, 62, 22
1, 481202, Note_off_c, 0, 60, 53
1, 481202, Note_off_c, 0, 62, 48
1, 481295, Control_c, 0, 64, 43
1, 481379, Note_on_c, 0, 43, 32
1, 481567, Note_on_c, 0, 62, 40
1, 481571, Note_on_c, 0, 59, 33
1, 481611, Note_off_c, 0, 59, 50
1, 481620, Note_off_c, 0, 62, 55
1, 481665, Control_c, 0, 64, 43
1, 481770, Note_on_c, 0, 62, 41
1, 481782, Note_on_c, 0, 59, 18
1, 481820, Note_off_c, 0, 59, 48
1, 481826, Note_off_c, 0, 62, 55
1, 481831, Note_off_c, 0, 43, 41
1, 481947, Control_c, 0, 64, 42
1, 481977, Note_on_c, 0, 59, 35
1, 481978, Note_on_c, 0, 62, 45
1, 482020, Note_off_c, 0, 59, 53
1, 482043, Note_off_c, 0, 62, 54
1, 482089, Control_c, 0, 64, 42
1, 482211, Note_on_c, 0, 36, 25
1, 482231, Note_on_c, 0, 60, 33
1, 482266, Control_c, 0, 64, 41
1, 482459, Control_c, 0, 64, 42
1, 482470, Note_on_c, 0, 67, 33
1, 482474, Control_c, 0, 64, 43
1, 482488, Control_c, 0, 64, 47
1, 482503, Control_c, 0, 64, 52
1, 482518, Control_c, 0, 64, 58
1, 482532, Control_c, 0, 64, 62
1, 482535, Note_off_c, 0, 67, 55
1, 482547, Control_c, 0, 64, 64
1, 482562, Control_c, 0, 64, 68
1, 482577, Control_c, 0, 64, 72
1, 482592, Control_c, 0, 64, 77
1, 482606, Control_c, 0, 64, 83
1, 482621, Control_c, 0, 64, 91
1, 482636, Control_c, 0, 64, 98
1, 482651, Control_c, 0, 64, 109
1, 482664, Note_off_c, 0, 36, 39
1, 482666, Control_c, 0, 64, 127
1, 482668, Note_on_c, 0, 67, 47
1, 482718, Note_off_c, 0, 67, 57
1, 482874, Note_on_c, 0, 67, 42
1, 482915, Note_off_c, 0, 60, 37
1, 482925, Note_off_c, 0, 67, 46
1, 483059, Control_c, 0, 64, 90
1, 483074, Control_c, 0, 64, 71
1, 483089, Control_c, 0, 64, 59
1, 483104, Control_c, 0, 64, 51
1, 483119, Note_on_c, 0, 67, 28
1, 483119, Control_c, 0, 64, 56
1, 483120, Note_on_c, 0, 65, 39
1, 483134, Control_c, 0, 64, 60
1, 483149, Control_c, 0, 64, 63
1, 483163, Control_c, 0, 64, 66
1, 483178, Control_c, 0, 64, 72
1, 483193, Control_c, 0, 64, 78
1, 483199, Note_off_c, 0, 65, 49
1, 483208, Control_c, 0, 64, 84
1, 483209, Note_off_c, 0, 67, 52
1, 483223, Control_c, 0, 64, 90
1, 483237, Control_c, 0, 64, 95
1, 483252, Control_c, 0, 64, 100
1, 483267, Control_c, 0, 64, 104
1, 483281, Control_c, 0, 64, 106
1, 483372, Note_on_c, 0, 67, 35
1, 483381, Note_on_c, 0, 43, 24
1, 483391, Note_on_c, 0, 65, 28
1, 483432, Note_off_c, 0, 43, 49
1, 483444, Control_c, 0, 64, 104
1, 483459, Control_c, 0, 64, 101
1, 483464, Note_on_c, 0, 45, 44
1, 483474, Control_c, 0, 64, 98
1, 483484, Note_off_c, 0, 65, 32
1, 483489, Control_c, 0, 64, 95
1, 483490, Note_off_c, 0, 67, 37
1, 483511, Control_c, 0, 64, 92
1, 483526, Control_c, 0, 64, 89
1, 483540, Note_off_c, 0, 45, 58
1, 483541, Control_c, 0, 64, 85
1, 483556, Control_c, 0, 64, 80
1, 483557, Note_on_c, 0, 47, 54
1, 483570, Control_c, 0, 64, 74
1, 483586, Control_c, 0, 64, 67
1, 483596, Note_on_c, 0, 65, 29
1, 483598, Note_on_c, 0, 67, 39
1, 483601, Control_c, 0, 64, 57
1, 483616, Control_c, 0, 64, 0
1, 483633, Note_off_c, 0, 47, 58
1, 483637, Note_on_c, 0, 48, 65
1, 483640, Note_off_c, 0, 67, 54
1, 483660, Note_off_c, 0, 65, 41
1, 483730, Note_off_c, 0, 48, 63
1, 483743, Note_on_c, 0, 50, 63
1, 483767, Note_on_c, 0, 67, 51
1, 483773, Note_on_c, 0, 65, 46
1, 483799, Note_off_c, 0, 65, 60
1, 483803, Note_off_c, 0, 67, 63
1, 483821, Note_off_c, 0, 50, 59
1, 483837, Note_on_c, 0, 47, 50
1, 483960, Note_off_c, 0, 47, 59
1, 484004, Note_on_c, 0, 63, 32
1, 484004, Note_on_c, 0, 67, 29
1, 484010, Note_on_c, 0, 48, 35
1, 484075, Control_c, 0, 64, 35
1, 484090, Control_c, 0, 64, 48
1, 484105, Control_c, 0, 64, 61
1, 484114, Note_off_c, 0, 63, 47
1, 484120, Control_c, 0, 64, 66
1, 484135, Control_c, 0, 64, 69
1, 484141, Note_off_c, 0, 67, 50
1, 484150, Control_c, 0, 64, 71
1, 484165, Control_c, 0, 64, 73
1, 484179, Control_c, 0, 64, 75
1, 484194, Control_c, 0, 64, 76
1, 484209, Control_c, 0, 64, 77
1, 484239, Control_c, 0, 64, 76
1, 484261, Control_c, 0, 64, 72
1, 484268, Note_on_c, 0, 67, 43
1, 484275, Control_c, 0, 64, 65
1, 484281, Note_on_c, 0, 63, 11
1, 484290, Control_c, 0, 64, 56
1, 484305, Control_c, 0, 64, 50
1, 484319, Note_off_c, 0, 67, 55
1, 484320, Control_c, 0, 64, 57
1, 484335, Control_c, 0, 64, 62
1, 484338, Note_off_c, 0, 63, 46
1, 484350, Control_c, 0, 64, 67
1, 484365, Control_c, 0, 64, 73
1, 484380, Control_c, 0, 64, 79
1, 484395, Control_c, 0, 64, 86
1, 484410, Control_c, 0, 64, 92
1, 484425, Control_c, 0, 64, 95
1, 484439, Control_c, 0, 64, 97
1, 484469, Note_on_c, 0, 67, 47
1, 484469, Note_on_c, 0, 63, 43
1, 484469, Control_c, 0, 64, 100
1, 484499, Control_c, 0, 64, 102
1, 484517, Note_off_c, 0, 67, 56
1, 484523, Note_off_c, 0, 63, 43
1, 484621, Note_off_c, 0, 48, 36
1, 484664, Note_on_c, 0, 67, 49
1, 484669, Note_on_c, 0, 63, 39
1, 484713, Note_off_c, 0, 67, 56
1, 484716, Note_off_c, 0, 63, 45
1, 484809, Control_c, 0, 64, 95
1, 484824, Control_c, 0, 64, 83
1, 484839, Control_c, 0, 64, 70
1, 484854, Control_c, 0, 64, 56
1, 484868, Control_c, 0, 64, 34
1, 484872, Note_on_c, 0, 67, 36
1, 484876, Note_on_c, 0, 65, 38
1, 484883, Control_c, 0, 64, 38
1, 484898, Control_c, 0, 64, 50
1, 484913, Control_c, 0, 64, 62
1, 484928, Control_c, 0, 64, 68
1, 484939, Note_off_c, 0, 67, 50
1, 484942, Control_c, 0, 64, 73
1, 484957, Control_c, 0, 64, 76
1, 484972, Control_c, 0, 64, 77
1, 484987, Control_c, 0, 64, 78
1, 484999, Note_off_c, 0, 65, 31
1, 485002, Control_c, 0, 64, 79
1, 485024, Control_c, 0, 64, 80
1, 485039, Control_c, 0, 64, 80
1, 485098, Control_c, 0, 64, 76
1, 485113, Control_c, 0, 64, 67
1, 485122, Note_on_c, 0, 67, 41
1, 485128, Control_c, 0, 64, 56
1, 485131, Note_on_c, 0, 65, 32
1, 485135, Note_on_c, 0, 43, 37
1, 485142, Control_c, 0, 64, 42
1, 485157, Control_c, 0, 64, 44
1, 485167, Note_off_c, 0, 67, 59
1, 485172, Control_c, 0, 64, 53
1, 485175, Note_off_c, 0, 65, 47
1, 485188, Control_c, 0, 64, 62
1, 485203, Control_c, 0, 64, 68
1, 485210, Note_off_c, 0, 43, 60
1, 485217, Control_c, 0, 64, 76
1, 485228, Note_on_c, 0, 45, 58
1, 485232, Control_c, 0, 64, 83
1, 485247, Control_c, 0, 64, 86
1, 485262, Control_c, 0, 64, 88
1, 485277, Control_c, 0, 64, 89
1, 485306, Control_c, 0, 64, 90
1, 485307, Note_on_c, 0, 67, 53
1, 485312, Note_on_c, 0, 65, 55
1, 485316, Note_on_c, 0, 47, 71
1, 485325, Note_off_c, 0, 45, 56
1, 485336, Control_c, 0, 64, 90
1, 485358, Note_off_c, 0, 65, 58
1, 485360, Note_off_c, 0, 67, 53
1, 485401, Note_on_c, 0, 48, 77
1, 485419, Note_off_c, 0, 47, 57
1, 485475, Note_on_c, 0, 65, 68
1, 485484, Note_on_c, 0, 67, 64
1, 485486, Note_on_c, 0, 50, 74
1, 485487, Note_off_c, 0, 48, 63
1, 485498, Control_c, 0, 64, 91
1, 485512, Note_off_c, 0, 65, 60
1, 485518, Note_off_c, 0, 67, 55
1, 485569, Note_on_c, 0, 47, 62
1, 485572, Note_off_c, 0, 50, 60
1, 485572, Control_c, 0, 64, 90
1, 485602, Control_c, 0, 64, 89
1, 485617, Control_c, 0, 64, 85
1, 485632, Control_c, 0, 64, 77
1, 485647, Control_c, 0, 64, 67
1, 485662, Control_c, 0, 64, 54
1, 485674, Note_off_c, 0, 47, 62
1, 485677, Control_c, 0, 64, 0
1, 485734, Note_on_c, 0, 48, 38
1, 485735, Note_on_c, 0, 67, 51
1, 485746, Note_on_c, 0, 63, 44
1, 485772, Control_c, 0, 64, 39
1, 485787, Control_c, 0, 64, 58
1, 485802, Control_c, 0, 64, 66
1, 485817, Control_c, 0, 64, 72
1, 485832, Control_c, 0, 64, 77
1, 485846, Control_c, 0, 64, 80
1, 485861, Control_c, 0, 64, 84
1, 485871, Note_off_c, 0, 67, 54
1, 485876, Control_c, 0, 64, 88
1, 485880, Note_off_c, 0, 63, 37
1, 485891, Control_c, 0, 64, 92
1, 485906, Control_c, 0, 64, 93
1, 485952, Note_off_c, 0, 48, 25
1, 486010, Note_on_c, 0, 67, 49
1, 486010, Control_c, 0, 64, 91
1, 486011, Note_on_c, 0, 43, 50
1, 486012, Note_on_c, 0, 65, 53
1, 486025, Control_c, 0, 64, 87
1, 486040, Control_c, 0, 64, 81
1, 486055, Control_c, 0, 64, 71
1, 486065, Note_off_c, 0, 67, 47
1, 486070, Control_c, 0, 64, 61
1, 486085, Note_off_c, 0, 65, 46
1, 486085, Control_c, 0, 64, 0
1, 486099, Note_off_c, 0, 43, 61
1, 486103, Note_on_c, 0, 45, 66
1, 486185, Note_on_c, 0, 47, 75
1, 486188, Note_on_c, 0, 67, 69
1, 486195, Note_on_c, 0, 65, 64
1, 486203, Control_c, 0, 64, 34
1, 486212, Note_off_c, 0, 45, 59
1, 486218, Control_c, 0, 64, 47
1, 486233, Control_c, 0, 64, 57
1, 486248, Control_c, 0, 64, 62
1, 486260, Note_off_c, 0, 67, 57
1, 486262, Control_c, 0, 64, 62
1, 486273, Note_off_c, 0, 65, 36
1, 486277, Control_c, 0, 64, 61
1, 486280, Note_on_c, 0, 48, 81
1, 486292, Control_c, 0, 64, 58
1, 486305, Note_off_c, 0, 47, 64
1, 486306, Control_c, 0, 64, 46
1, 486321, Control_c, 0, 64, 0
1, 486361, Note_on_c, 0, 65, 68
1, 486371, Note_on_c, 0, 50, 78
1, 486371, Note_on_c, 0, 67, 65
1, 486371, Note_off_c, 0, 48, 65
1, 486411, Control_c, 0, 64, 43
1, 486414, Note_off_c, 0, 67, 58
1, 486424, Note_off_c, 0, 65, 58
1, 486425, Control_c, 0, 64, 56
1, 486440, Control_c, 0, 64, 61
1, 486446, Note_on_c, 0, 47, 74
1, 486455, Control_c, 0, 64, 62
1, 486459, Note_off_c, 0, 50, 61
1, 486470, Control_c, 0, 64, 61
1, 486485, Control_c, 0, 64, 61
1, 486507, Control_c, 0, 64, 60
1, 486522, Control_c, 0, 64, 56
1, 486537, Control_c, 0, 64, 45
1, 486552, Control_c, 0, 64, 0
1, 486584, Note_off_c, 0, 47, 63
1, 486605, Note_on_c, 0, 48, 65
1, 486605, Note_on_c, 0, 67, 64
1, 486615, Note_on_c, 0, 63, 52
1, 486670, Control_c, 0, 64, 48
1, 486685, Control_c, 0, 64, 62
1, 486700, Control_c, 0, 64, 69
1, 486714, Control_c, 0, 64, 74
1, 486729, Control_c, 0, 64, 78
1, 486735, Note_off_c, 0, 63, 50
1, 486744, Control_c, 0, 64, 83
1, 486759, Control_c, 0, 64, 90
1, 486774, Control_c, 0, 64, 96
1, 486790, Control_c, 0, 64, 102
1, 486793, Note_off_c, 0, 67, 38
1, 486804, Control_c, 0, 64, 107
1, 486819, Control_c, 0, 64, 110
1, 486841, Note_off_c, 0, 48, 59
1, 486849, Control_c, 0, 64, 112
1, 486854, Note_on_c, 0, 65, 71
1, 486854, Note_on_c, 0, 67, 64
1, 486861, Note_on_c, 0, 43, 60
1, 486938, Note_on_c, 0, 45, 74
1, 486942, Note_off_c, 0, 65, 35
1, 486964, Note_off_c, 0, 43, 55
1, 486967, Note_off_c, 0, 67, 36
1, 487008, Note_on_c, 0, 47, 77
1, 487027, Control_c, 0, 64, 106
1, 487033, Note_off_c, 0, 45, 60
1, 487042, Control_c, 0, 64, 100
1, 487051, Note_on_c, 0, 65, 80
1, 487051, Note_on_c, 0, 67, 73
1, 487056, Control_c, 0, 64, 93
1, 487071, Control_c, 0, 64, 86
1, 487086, Control_c, 0, 64, 79
1, 487099, Control_c, 0, 64, 71
1, 487100, Note_on_c, 0, 48, 85
1, 487114, Control_c, 0, 64, 65
1, 487121, Note_off_c, 0, 67, 56
1, 487122, Note_off_c, 0, 47, 64
1, 487128, Control_c, 0, 64, 56
1, 487134, Note_off_c, 0, 65, 58
1, 487143, Control_c, 0, 64, 41
1, 487158, Control_c, 0, 64, 0
1, 487189, Note_on_c, 0, 50, 83
1, 487195, Note_off_c, 0, 48, 65
1, 487228, Note_on_c, 0, 65, 84
1, 487233, Note_on_c, 0, 67, 69
1, 487282, Note_off_c, 0, 65, 58
1, 487288, Note_off_c, 0, 50, 62
1, 487289, Note_on_c, 0, 47, 73
1, 487291, Note_off_c, 0, 67, 54
1, 487415, Note_off_c, 0, 47, 62
1, 487455, Note_on_c, 0, 48, 54
1, 487468, Note_on_c, 0, 67, 53
1, 487477, Control_c, 0, 64, 36
1, 487480, Note_on_c, 0, 63, 47
1, 487492, Control_c, 0, 64, 55
1, 487507, Control_c, 0, 64, 66
1, 487507, Note_off_c, 0, 63, 61
1, 487509, Note_off_c, 0, 67, 66
1, 487522, Control_c, 0, 64, 72
1, 487531, Note_off_c, 0, 48, 63
1, 487536, Control_c, 0, 64, 78
1, 487551, Control_c, 0, 64, 85
1, 487566, Control_c, 0, 64, 92
1, 487581, Control_c, 0, 64, 99
1, 487596, Control_c, 0, 64, 109
1, 487611, Control_c, 0, 64, 124
1, 487626, Control_c, 0, 64, 127
1, 487685, Control_c, 0, 64, 103
1, 487700, Control_c, 0, 64, 80
1, 487713, Note_on_c, 0, 72, 64
1, 487715, Control_c, 0, 64, 64
1, 487721, Note_on_c, 0, 64, 52
1, 487730, Control_c, 0, 64, 45
1, 487739, Note_on_c, 0, 58, 47
1, 487742, Note_on_c, 0, 46, 51
1, 487745, Control_c, 0, 64, 37
1, 487759, Control_c, 0, 64, 50
1, 487774, Control_c, 0, 64, 60
1, 487789, Control_c, 0, 64, 68
1, 487804, Control_c, 0, 64, 77
1, 487819, Control_c, 0, 64, 88
1, 487823, Note_off_c, 0, 58, 63
1, 487833, Control_c, 0, 64, 99
1, 487834, Note_off_c, 0, 64, 58
1, 487835, Note_off_c, 0, 46, 62
1, 487841, Note_off_c, 0, 72, 51
1, 487848, Control_c, 0, 64, 112
1, 487863, Control_c, 0, 64, 127
1, 487892, Control_c, 0, 64, 109
1, 487907, Control_c, 0, 64, 87
1, 487922, Control_c, 0, 64, 71
1, 487932, Note_on_c, 0, 72, 86
1, 487933, Note_on_c, 0, 56, 83
1, 487933, Note_on_c, 0, 65, 85
1, 487937, Control_c, 0, 64, 61
1, 487943, Note_on_c, 0, 44, 66
1, 487951, Control_c, 0, 64, 60
1, 487966, Control_c, 0, 64, 65
1, 487981, Control_c, 0, 64, 72
1, 488004, Control_c, 0, 64, 88
1, 488019, Control_c, 0, 64, 127
1, 488026, Note_off_c, 0, 56, 57
1, 488028, Note_off_c, 0, 44, 62
1, 488048, Note_off_c, 0, 65, 56
1, 488049, Note_off_c, 0, 72, 56
1, 488092, Control_c, 0, 64, 95
1, 488107, Control_c, 0, 64, 69
1, 488122, Control_c, 0, 64, 59
1, 488133, Note_on_c, 0, 55, 89
1, 488134, Note_on_c, 0, 72, 97
1, 488137, Note_on_c, 0, 64, 88
1, 488137, Control_c, 0, 64, 62
1, 488140, Note_on_c, 0, 67, 80
1, 488142, Note_on_c, 0, 43, 78
1, 488151, Control_c, 0, 64, 69
1, 488166, Control_c, 0, 64, 85
1, 488181, Control_c, 0, 64, 127
1, 488185, Note_off_c, 0, 55, 62
1, 488199, Note_off_c, 0, 67, 63
1, 488202, Note_off_c, 0, 43, 61
1, 488223, Note_off_c, 0, 64, 60
1, 488251, Note_off_c, 0, 72, 57
1, 488330, Control_c, 0, 64, 80
1, 488344, Control_c, 0, 64, 59
1, 488349, Note_on_c, 0, 72, 91
1, 488350, Note_on_c, 0, 65, 91
1, 488350, Note_on_c, 0, 53, 77
1, 488356, Note_on_c, 0, 41, 72
1, 488356, Note_on_c, 0, 68, 85
1, 488359, Control_c, 0, 64, 0
1, 488389, Control_c, 0, 64, 35
1, 488404, Control_c, 0, 64, 58
1, 488419, Control_c, 0, 64, 71
1, 488434, Control_c, 0, 64, 91
1, 488443, Note_off_c, 0, 53, 59
1, 488449, Control_c, 0, 64, 127
1, 488452, Note_off_c, 0, 65, 60
1, 488458, Note_off_c, 0, 41, 60
1, 488471, Note_off_c, 0, 72, 57
1, 488538, Control_c, 0, 64, 84
1, 488553, Note_on_c, 0, 67, 88
1, 488553, Control_c, 0, 64, 60
1, 488555, Note_on_c, 0, 72, 90
1, 488559, Note_on_c, 0, 52, 83
1, 488563, Note_on_c, 0, 40, 78
1, 488565, Note_on_c, 0, 70, 81
1, 488566, Note_off_c, 0, 68, 59
1, 488568, Control_c, 0, 64, 0
1, 488597, Control_c, 0, 64, 48
1, 488612, Control_c, 0, 64, 64
1, 488626, Control_c, 0, 64, 82
1, 488634, Note_off_c, 0, 40, 62
1, 488641, Control_c, 0, 64, 127
1, 488666, Note_off_c, 0, 67, 61
1, 488679, Note_off_c, 0, 52, 59
1, 488689, Note_off_c, 0, 72, 58
1, 488723, Note_off_c, 0, 70, 60
1, 488777, Note_on_c, 0, 53, 81
1, 488778, Note_on_c, 0, 41, 75
1, 488782, Note_on_c, 0, 65, 101
1, 488782, Control_c, 0, 64, 81
1, 488784, Note_on_c, 0, 72, 96
1, 488791, Note_on_c, 0, 68, 82
1, 488797, Control_c, 0, 64, 55
1, 488812, Control_c, 0, 64, 0
1, 488826, Control_c, 0, 64, 42
1, 488841, Control_c, 0, 64, 60
1, 488856, Control_c, 0, 64, 71
1, 488871, Note_off_c, 0, 53, 61
1, 488871, Control_c, 0, 64, 98
1, 488886, Control_c, 0, 64, 127
1, 488887, Note_off_c, 0, 41, 61
1, 488925, Note_off_c, 0, 72, 58
1, 488942, Note_off_c, 0, 65, 51
1, 489004, Note_on_c, 0, 52, 92
1, 489006, Note_on_c, 0, 67, 93
1, 489010, Note_on_c, 0, 72, 94
1, 489012, Note_on_c, 0, 40, 78
1, 489016, Note_on_c, 0, 70, 85
1, 489032, Note_off_c, 0, 68, 62
1, 489060, Note_off_c, 0, 40, 58
1, 489081, Note_off_c, 0, 52, 63
1, 489084, Note_off_c, 0, 67, 62
1, 489107, Note_off_c, 0, 70, 63
1, 489111, Note_off_c, 0, 72, 60
1, 489352, Note_on_c, 0, 53, 44
1, 489354, Note_on_c, 0, 41, 53
1, 489378, Note_on_c, 0, 72, 82
1, 489384, Note_on_c, 0, 65, 75
1, 489396, Note_on_c, 0, 68, 71
1, 489450, Control_c, 0, 64, 83
1, 489465, Control_c, 0, 64, 62
1, 489480, Control_c, 0, 64, 0
1, 489576, Control_c, 0, 64, 33
1, 489591, Control_c, 0, 64, 62
1, 489605, Control_c, 0, 64, 76
1, 489620, Control_c, 0, 64, 103
1, 489635, Control_c, 0, 64, 127
1, 489708, Note_off_c, 0, 53, 53
1, 489755, Note_off_c, 0, 65, 56
1, 489800, Note_off_c, 0, 72, 51
1, 489814, Note_off_c, 0, 68, 58
1, 489862, Note_on_c, 0, 53, 56
1, 489871, Note_off_c, 0, 41, 58
1, 489871, Note_on_c, 0, 67, 64
1, 489874, Note_on_c, 0, 70, 63
1, 489963, Note_on_c, 0, 68, 74
1, 489970, Note_off_c, 0, 67, 57
1, 489971, Note_on_c, 0, 65, 77
1, 489987, Note_off_c, 0, 68, 69
1, 489990, Note_off_c, 0, 70, 57
1, 490017, Note_off_c, 0, 65, 61
1, 490073, Note_on_c, 0, 67, 80
1, 490078, Note_on_c, 0, 63, 76
1, 490151, Note_on_c, 0, 65, 81
1, 490156, Note_off_c, 0, 63, 61
1, 490158, Note_on_c, 0, 62, 81
1, 490288, Note_on_c, 0, 63, 78
1, 490295, Control_c, 0, 64, 95
1, 490302, Note_off_c, 0, 62, 55
1, 490307, Note_on_c, 0, 60, 66
1, 490310, Control_c, 0, 64, 76
1, 490325, Control_c, 0, 64, 61
1, 490327, Note_on_c, 0, 55, 48
1, 490334, Note_off_c, 0, 67, 53
1, 490340, Control_c, 0, 64, 0
1, 490368, Note_off_c, 0, 65, 59
1, 490378, Note_off_c, 0, 53, 60
1, 490443, Control_c, 0, 64, 37
1, 490458, Control_c, 0, 64, 58
1, 490473, Control_c, 0, 64, 67
1, 490488, Control_c, 0, 64, 78
1, 490503, Control_c, 0, 64, 93
1, 490518, Control_c, 0, 64, 127
1, 490550, Note_off_c, 0, 60, 62
1, 490784, Note_on_c, 0, 62, 78
1, 490790, Note_on_c, 0, 43, 37
1, 490795, Note_on_c, 0, 59, 64
1, 490798, Note_off_c, 0, 55, 35
1, 490807, Note_off_c, 0, 63, 58
1, 490829, Control_c, 0, 64, 91
1, 490843, Control_c, 0, 64, 70
1, 490858, Control_c, 0, 64, 48
1, 490873, Control_c, 0, 64, 0
1, 490917, Control_c, 0, 64, 50
1, 490932, Control_c, 0, 64, 65
1, 490947, Control_c, 0, 64, 74
1, 490962, Control_c, 0, 64, 87
1, 490977, Control_c, 0, 64, 105
1, 490999, Control_c, 0, 64, 127
1, 491051, Note_off_c, 0, 59, 59
1, 491310, Control_c, 0, 64, 120
1, 491325, Control_c, 0, 64, 94
1, 491340, Control_c, 0, 64, 75
1, 491353, Note_off_c, 0, 43, 40
1, 491355, Control_c, 0, 64, 59
1, 491370, Control_c, 0, 64, 0
1, 491376, Note_off_c, 0, 62, 58
1, 491399, Note_on_c, 0, 48, 41
1, 491406, Note_on_c, 0, 60, 68
1, 491428, Control_c, 0, 64, 45
1, 491443, Control_c, 0, 64, 61
1, 491458, Control_c, 0, 64, 70
1, 491473, Control_c, 0, 64, 84
1, 491488, Control_c, 0, 64, 101
1, 491502, Control_c, 0, 64, 127
1, 491531, Note_off_c, 0, 48, 61
1, 491537, Note_off_c, 0, 60, 60
1, 491874, Note_on_c, 0, 67, 49
1, 491996, Note_off_c, 0, 67, 59
1, 492128, Note_on_c, 0, 67, 68
1, 492221, Note_off_c, 0, 67, 58
1, 492334, Note_on_c, 0, 67, 79
1, 492426, Note_off_c, 0, 67, 60
1, 492625, Note_on_c, 0, 67, 59
1, 492646, Control_c, 0, 64, 86
1, 492661, Control_c, 0, 64, 68
1, 492675, Control_c, 0, 64, 47
1, 492690, Control_c, 0, 64, 0
1, 492720, Control_c, 0, 64, 39
1, 492735, Control_c, 0, 64, 49
1, 492749, Control_c, 0, 64, 59
1, 492764, Control_c, 0, 64, 66
1, 492779, Control_c, 0, 64, 74
1, 492784, Note_off_c, 0, 67, 61
1, 492793, Control_c, 0, 64, 81
1, 492808, Control_c, 0, 64, 84
1, 492823, Control_c, 0, 64, 87
1, 492838, Control_c, 0, 64, 90
1, 492853, Control_c, 0, 64, 93
1, 492867, Control_c, 0, 64, 95
1, 492882, Control_c, 0, 64, 95
1, 492897, Control_c, 0, 64, 95
1, 492912, Control_c, 0, 64, 90
1, 492927, Control_c, 0, 64, 79
1, 492941, Control_c, 0, 64, 67
1, 492951, Note_on_c, 0, 66, 46
1, 492956, Control_c, 0, 64, 56
1, 492964, Note_on_c, 0, 67, 40
1, 492971, Control_c, 0, 64, 51
1, 492986, Control_c, 0, 64, 56
1, 493001, Control_c, 0, 64, 61
1, 493016, Control_c, 0, 64, 65
1, 493030, Control_c, 0, 64, 74
1, 493045, Control_c, 0, 64, 87
1, 493060, Control_c, 0, 64, 105
1, 493075, Control_c, 0, 64, 127
1, 493090, Note_off_c, 0, 66, 59
1, 493095, Note_off_c, 0, 67, 54
1, 493207, Note_on_c, 0, 67, 62
1, 493209, Note_on_c, 0, 66, 66
1, 493296, Note_off_c, 0, 67, 58
1, 493299, Note_off_c, 0, 66, 56
1, 493416, Note_on_c, 0, 66, 71
1, 493417, Note_on_c, 0, 67, 70
1, 493481, Note_off_c, 0, 67, 61
1, 493492, Note_off_c, 0, 66, 56
1, 493616, Control_c, 0, 64, 112
1, 493631, Control_c, 0, 64, 80
1, 493639, Note_on_c, 0, 66, 64
1, 493646, Note_on_c, 0, 67, 67
1, 493646, Control_c, 0, 64, 64
1, 493661, Control_c, 0, 64, 51
1, 493676, Control_c, 0, 64, 55
1, 493690, Control_c, 0, 64, 62
1, 493705, Control_c, 0, 64, 68
1, 493720, Control_c, 0, 64, 77
1, 493735, Control_c, 0, 64, 89
1, 493740, Note_off_c, 0, 67, 60
1, 493744, Note_off_c, 0, 66, 58
1, 493749, Control_c, 0, 64, 102
1, 493764, Control_c, 0, 64, 122
1, 493779, Control_c, 0, 64, 127
1, 493839, Control_c, 0, 64, 120
1, 493854, Control_c, 0, 64, 90
1, 493869, Control_c, 0, 64, 67
1, 493884, Control_c, 0, 64, 48
1, 493898, Note_on_c, 0, 67, 48
1, 493898, Control_c, 0, 64, 0
1, 493911, Note_on_c, 0, 65, 46
1, 493928, Control_c, 0, 64, 48
1, 493943, Control_c, 0, 64, 59
1, 493957, Control_c, 0, 64, 67
1, 493974, Control_c, 0, 64, 77
1, 493996, Control_c, 0, 64, 86
1, 494011, Control_c, 0, 64, 93
1, 494015, Note_off_c, 0, 67, 59
1, 494018, Note_off_c, 0, 65, 61
1, 494026, Control_c, 0, 64, 97
1, 494041, Control_c, 0, 64, 103
1, 494055, Control_c, 0, 64, 113
1, 494070, Control_c, 0, 64, 127
1, 494145, Note_on_c, 0, 67, 51
1, 494154, Note_on_c, 0, 65, 48
1, 494189, Note_off_c, 0, 65, 59
1, 494189, Note_off_c, 0, 67, 60
1, 494363, Note_on_c, 0, 67, 47
1, 494367, Note_on_c, 0, 65, 41
1, 494408, Note_off_c, 0, 67, 54
1, 494416, Note_off_c, 0, 65, 58
1, 494544, Control_c, 0, 64, 93
1, 494559, Control_c, 0, 64, 73
1, 494573, Control_c, 0, 64, 59
1, 494588, Control_c, 0, 64, 54
1, 494592, Note_on_c, 0, 67, 39
1, 494598, Note_on_c, 0, 65, 33
1, 494603, Control_c, 0, 64, 59
1, 494618, Control_c, 0, 64, 63
1, 494633, Control_c, 0, 64, 69
1, 494647, Control_c, 0, 64, 78
1, 494662, Control_c, 0, 64, 93
1, 494677, Control_c, 0, 64, 127
1, 494688, Note_off_c, 0, 65, 52
1, 494694, Note_off_c, 0, 67, 54
1, 494853, Note_on_c, 0, 67, 38
1, 494859, Note_on_c, 0, 79, 49
1, 494862, Note_on_c, 0, 65, 42
1, 494902, Note_off_c, 0, 65, 56
1, 494902, Note_off_c, 0, 67, 54
1, 494935, Note_off_c, 0, 79, 53
1, 494947, Note_on_c, 0, 81, 56
1, 495041, Note_on_c, 0, 83, 67
1, 495052, Note_on_c, 0, 65, 43
1, 495060, Note_on_c, 0, 67, 33
1, 495102, Note_off_c, 0, 81, 56
1, 495105, Note_off_c, 0, 65, 57
1, 495106, Note_off_c, 0, 67, 50
1, 495135, Note_on_c, 0, 84, 72
1, 495176, Note_off_c, 0, 83, 53
1, 495230, Note_on_c, 0, 86, 73
1, 495236, Note_on_c, 0, 65, 48
1, 495239, Note_on_c, 0, 67, 37
1, 495252, Note_off_c, 0, 84, 59
1, 495274, Note_off_c, 0, 67, 55
1, 495275, Note_off_c, 0, 65, 59
1, 495314, Note_on_c, 0, 83, 72
1, 495349, Note_off_c, 0, 86, 61
1, 495455, Control_c, 0, 64, 86
1, 495469, Control_c, 0, 64, 65
1, 495479, Note_off_c, 0, 83, 56
1, 495492, Control_c, 0, 64, 42
1, 495499, Note_on_c, 0, 63, 33
1, 495505, Note_on_c, 0, 67, 23
1, 495507, Control_c, 0, 64, 0
1, 495516, Note_on_c, 0, 84, 57
1, 495536, Control_c, 0, 64, 39
1, 495551, Control_c, 0, 64, 49
1, 495567, Control_c, 0, 64, 60
1, 495582, Control_c, 0, 64, 66
1, 495597, Control_c, 0, 64, 73
1, 495612, Control_c, 0, 64, 83
1, 495626, Control_c, 0, 64, 92
1, 495641, Control_c, 0, 64, 99
1, 495645, Note_off_c, 0, 67, 36
1, 495651, Note_off_c, 0, 63, 35
1, 495656, Control_c, 0, 64, 107
1, 495671, Control_c, 0, 64, 127
1, 495762, Note_on_c, 0, 63, 38
1, 495767, Note_on_c, 0, 67, 21
1, 495832, Note_off_c, 0, 63, 52
1, 495877, Note_off_c, 0, 67, 34
1, 495983, Note_on_c, 0, 67, 36
1, 495995, Note_on_c, 0, 63, 42
1, 496032, Note_off_c, 0, 63, 57
1, 496040, Note_off_c, 0, 67, 54
1, 496187, Note_on_c, 0, 63, 43
1, 496203, Note_on_c, 0, 67, 41
1, 496224, Note_off_c, 0, 84, 37
1, 496248, Note_off_c, 0, 63, 56
1, 496259, Note_off_c, 0, 67, 52
1, 496344, Control_c, 0, 64, 98
1, 496359, Control_c, 0, 64, 72
1, 496375, Control_c, 0, 64, 59
1, 496390, Control_c, 0, 64, 52
1, 496405, Control_c, 0, 64, 56
1, 496420, Control_c, 0, 64, 61
1, 496421, Note_on_c, 0, 65, 41
1, 496429, Note_on_c, 0, 67, 36
1, 496435, Control_c, 0, 64, 65
1, 496449, Control_c, 0, 64, 72
1, 496464, Control_c, 0, 64, 84
1, 496479, Control_c, 0, 64, 99
1, 496494, Control_c, 0, 64, 120
1, 496509, Control_c, 0, 64, 127
1, 496509, Note_off_c, 0, 67, 51
1, 496512, Note_off_c, 0, 65, 54
1, 496647, Note_on_c, 0, 65, 42
1, 496655, Note_on_c, 0, 79, 53
1, 496660, Note_on_c, 0, 67, 34
1, 496702, Note_off_c, 0, 65, 54
1, 496707, Note_off_c, 0, 67, 47
1, 496735, Note_on_c, 0, 81, 65
1, 496804, Note_off_c, 0, 79, 28
1, 496835, Note_on_c, 0, 83, 70
1, 496852, Note_on_c, 0, 67, 44
1, 496857, Note_on_c, 0, 65, 44
1, 496900, Note_off_c, 0, 67, 55
1, 496903, Note_off_c, 0, 65, 58
1, 496905, Note_off_c, 0, 81, 54
1, 496931, Note_on_c, 0, 84, 77
1, 496997, Note_off_c, 0, 83, 57
1, 497027, Note_on_c, 0, 86, 81
1, 497030, Note_on_c, 0, 65, 52
1, 497049, Note_on_c, 0, 67, 41
1, 497061, Note_off_c, 0, 84, 61
1, 497071, Note_off_c, 0, 65, 61
1, 497078, Note_off_c, 0, 67, 56
1, 497110, Note_on_c, 0, 83, 72
1, 497135, Note_off_c, 0, 86, 61
1, 497198, Control_c, 0, 64, 95
1, 497213, Control_c, 0, 64, 74
1, 497228, Control_c, 0, 64, 58
1, 497243, Control_c, 0, 64, 0
1, 497252, Note_off_c, 0, 83, 55
1, 497269, Note_on_c, 0, 63, 34
1, 497278, Note_on_c, 0, 84, 62
1, 497292, Note_on_c, 0, 67, 18
1, 497302, Control_c, 0, 64, 39
1, 497317, Control_c, 0, 64, 54
1, 497332, Control_c, 0, 64, 65
1, 497347, Control_c, 0, 64, 73
1, 497362, Control_c, 0, 64, 83
1, 497377, Control_c, 0, 64, 91
1, 497384, Note_off_c, 0, 63, 57
1, 497385, Note_off_c, 0, 67, 54
1, 497391, Control_c, 0, 64, 99
1, 497392, Note_off_c, 0, 84, 58
1, 497406, Control_c, 0, 64, 117
1, 497421, Control_c, 0, 64, 127
1, 497524, Control_c, 0, 64, 103
1, 497525, Note_on_c, 0, 65, 49
1, 497525, Note_on_c, 0, 67, 46
1, 497538, Note_on_c, 0, 79, 67
1, 497539, Control_c, 0, 64, 74
1, 497554, Control_c, 0, 64, 62
1, 497569, Control_c, 0, 64, 61
1, 497583, Control_c, 0, 64, 64
1, 497598, Control_c, 0, 64, 67
1, 497608, Note_off_c, 0, 65, 59
1, 497612, Note_off_c, 0, 67, 56
1, 497613, Control_c, 0, 64, 72
1, 497624, Note_on_c, 0, 81, 80
1, 497628, Control_c, 0, 64, 81
1, 497643, Control_c, 0, 64, 96
1, 497651, Note_off_c, 0, 79, 62
1, 497657, Control_c, 0, 64, 127
1, 497718, Note_on_c, 0, 83, 86
1, 497721, Note_on_c, 0, 67, 52
1, 497723, Note_on_c, 0, 65, 54
1, 497772, Note_off_c, 0, 67, 59
1, 497774, Note_off_c, 0, 65, 60
1, 497788, Note_off_c, 0, 81, 60
1, 497809, Note_on_c, 0, 84, 88
1, 497869, Note_off_c, 0, 83, 58
1, 497890, Note_on_c, 0, 65, 53
1, 497892, Note_on_c, 0, 67, 53
1, 497892, Note_on_c, 0, 86, 89
1, 497924, Note_off_c, 0, 84, 62
1, 497931, Note_off_c, 0, 67, 61
1, 497940, Note_off_c, 0, 65, 56
1, 497983, Note_on_c, 0, 83, 86
1, 498033, Note_off_c, 0, 86, 62
1, 498051, Control_c, 0, 64, 96
1, 498066, Control_c, 0, 64, 69
1, 498081, Control_c, 0, 64, 52
1, 498095, Control_c, 0, 64, 0
1, 498116, Note_on_c, 0, 67, 41
1, 498119, Note_on_c, 0, 63, 40
1, 498132, Note_on_c, 0, 84, 86
1, 498140, Control_c, 0, 64, 45
1, 498150, Note_off_c, 0, 83, 65
1, 498155, Control_c, 0, 64, 58
1, 498169, Control_c, 0, 64, 67
1, 498184, Control_c, 0, 64, 78
1, 498199, Control_c, 0, 64, 102
1, 498214, Control_c, 0, 64, 127
1, 498243, Note_off_c, 0, 67, 61
1, 498253, Note_off_c, 0, 84, 57
1, 498254, Note_off_c, 0, 63, 60
1, 498362, Control_c, 0, 64, 87
1, 498371, Note_on_c, 0, 79, 80
1, 498375, Note_on_c, 0, 67, 60
1, 498377, Control_c, 0, 64, 65
1, 498380, Note_on_c, 0, 65, 62
1, 498392, Control_c, 0, 64, 38
1, 498406, Control_c, 0, 64, 0
1, 498421, Control_c, 0, 64, 45
1, 498436, Control_c, 0, 64, 56
1, 498451, Control_c, 0, 64, 66
1, 498453, Note_off_c, 0, 67, 61
1, 498456, Note_on_c, 0, 81, 87
1, 498460, Note_off_c, 0, 65, 61
1, 498466, Control_c, 0, 64, 77
1, 498488, Control_c, 0, 64, 94
1, 498489, Note_off_c, 0, 79, 64
1, 498503, Control_c, 0, 64, 124
1, 498518, Control_c, 0, 64, 127
1, 498557, Note_on_c, 0, 83, 88
1, 498569, Note_on_c, 0, 67, 65
1, 498575, Note_on_c, 0, 65, 64
1, 498614, Note_off_c, 0, 65, 56
1, 498620, Note_off_c, 0, 67, 54
1, 498632, Note_off_c, 0, 81, 55
1, 498649, Note_on_c, 0, 84, 90
1, 498717, Note_off_c, 0, 83, 60
1, 498736, Note_on_c, 0, 65, 62
1, 498740, Note_on_c, 0, 67, 53
1, 498745, Note_on_c, 0, 86, 88
1, 498772, Note_off_c, 0, 67, 57
1, 498778, Note_off_c, 0, 84, 63
1, 498787, Note_off_c, 0, 65, 56
1, 498829, Note_on_c, 0, 83, 86
1, 498882, Note_off_c, 0, 86, 62
1, 498904, Control_c, 0, 64, 99
1, 498918, Control_c, 0, 64, 72
1, 498933, Control_c, 0, 64, 50
1, 498948, Control_c, 0, 64, 0
1, 498965, Note_on_c, 0, 84, 94
1, 498973, Note_on_c, 0, 67, 41
1, 498977, Control_c, 0, 64, 40
1, 498982, Note_on_c, 0, 63, 38
1, 498983, Note_off_c, 0, 83, 63
1, 498992, Control_c, 0, 64, 56
1, 499007, Control_c, 0, 64, 67
1, 499019, Note_off_c, 0, 67, 64
1, 499022, Control_c, 0, 64, 80
1, 499037, Control_c, 0, 64, 104
1, 499052, Control_c, 0, 64, 127
1, 499053, Note_off_c, 0, 63, 62
1, 499094, Note_off_c, 0, 84, 62
1, 499241, Note_on_c, 0, 48, 56
1, 499254, Note_on_c, 0, 82, 61
1, 499254, Note_on_c, 0, 84, 66
1, 499293, Note_off_c, 0, 82, 57
1, 499296, Note_off_c, 0, 84, 55
1, 499335, Note_on_c, 0, 50, 72
1, 499356, Control_c, 0, 64, 96
1, 499370, Control_c, 0, 64, 78
1, 499375, Note_off_c, 0, 48, 38
1, 499385, Control_c, 0, 64, 64
1, 499400, Control_c, 0, 64, 43
1, 499415, Control_c, 0, 64, 0
1, 499422, Note_on_c, 0, 52, 77
1, 499449, Note_on_c, 0, 84, 86
1, 499453, Note_off_c, 0, 50, 62
1, 499455, Note_on_c, 0, 82, 80
1, 499502, Note_on_c, 0, 53, 88
1, 499519, Note_off_c, 0, 84, 53
1, 499537, Note_off_c, 0, 52, 63
1, 499546, Note_off_c, 0, 82, 59
1, 499604, Note_on_c, 0, 55, 85
1, 499608, Note_off_c, 0, 53, 63
1, 499631, Note_on_c, 0, 82, 86
1, 499631, Note_on_c, 0, 84, 92
1, 499686, Note_off_c, 0, 84, 61
1, 499696, Note_on_c, 0, 52, 86
1, 499706, Note_off_c, 0, 55, 63
1, 499816, Note_off_c, 0, 82, 60
1, 499843, Note_on_c, 0, 53, 89
1, 499851, Note_on_c, 0, 84, 87
1, 499854, Note_on_c, 0, 80, 83
1, 499868, Note_off_c, 0, 52, 60
1, 499875, Control_c, 0, 64, 38
1, 499889, Control_c, 0, 64, 57
1, 499904, Control_c, 0, 64, 68
1, 499919, Control_c, 0, 64, 80
1, 499934, Control_c, 0, 64, 105
1, 499949, Control_c, 0, 64, 127
1, 500005, Note_off_c, 0, 84, 50
1, 500037, Note_off_c, 0, 80, 36
1, 500104, Note_on_c, 0, 84, 79
1, 500106, Note_on_c, 0, 82, 65
1, 500107, Note_on_c, 0, 48, 65
1, 500116, Note_off_c, 0, 53, 59
1, 500138, Note_off_c, 0, 82, 59
1, 500149, Control_c, 0, 64, 101
1, 500164, Control_c, 0, 64, 82
1, 500177, Note_off_c, 0, 84, 52
1, 500179, Control_c, 0, 64, 71
1, 500193, Control_c, 0, 64, 63
1, 500208, Control_c, 0, 64, 53
1, 500213, Note_on_c, 0, 50, 72
1, 500223, Control_c, 0, 64, 38
1, 500238, Control_c, 0, 64, 0
1, 500242, Note_off_c, 0, 48, 53
1, 500297, Note_on_c, 0, 52, 82
1, 500300, Note_on_c, 0, 84, 82
1, 500303, Note_on_c, 0, 82, 76
1, 500331, Note_off_c, 0, 50, 60
1, 500339, Note_off_c, 0, 82, 54
1, 500390, Note_on_c, 0, 53, 88
1, 500396, Note_off_c, 0, 84, 56
1, 500423, Note_off_c, 0, 52, 64
1, 500475, Note_on_c, 0, 82, 80
1, 500476, Note_on_c, 0, 84, 84
1, 500493, Note_on_c, 0, 55, 87
1, 500495, Note_off_c, 0, 53, 64
1, 500504, Note_off_c, 0, 82, 59
1, 500518, Note_off_c, 0, 84, 60
1, 500582, Note_on_c, 0, 52, 78
1, 500584, Note_off_c, 0, 55, 64
1, 500720, Note_off_c, 0, 52, 60
1, 500740, Note_on_c, 0, 84, 80
1, 500743, Note_on_c, 0, 53, 68
1, 500743, Note_on_c, 0, 80, 73
1, 500867, Control_c, 0, 64, 46
1, 500882, Control_c, 0, 64, 62
1, 500897, Control_c, 0, 64, 69
1, 500912, Control_c, 0, 64, 77
1, 500927, Control_c, 0, 64, 87
1, 500942, Control_c, 0, 64, 127
1, 500962, Note_off_c, 0, 53, 62
1, 501109, Note_off_c, 0, 84, 56
1, 501114, Note_off_c, 0, 80, 22
1, 501180, Note_on_c, 0, 53, 53
1, 501182, Note_on_c, 0, 79, 67
1, 501185, Note_on_c, 0, 82, 66
1, 501273, Note_off_c, 0, 79, 60
1, 501279, Note_on_c, 0, 80, 68
1, 501281, Note_on_c, 0, 77, 74
1, 501286, Note_off_c, 0, 82, 61
1, 501298, Note_off_c, 0, 80, 67
1, 501323, Note_off_c, 0, 77, 62
1, 501379, Note_on_c, 0, 79, 81
1, 501381, Note_on_c, 0, 75, 75
1, 501456, Note_on_c, 0, 74, 85
1, 501457, Note_on_c, 0, 77, 75
1, 501482, Note_off_c, 0, 75, 60
1, 501577, Note_off_c, 0, 53, 61
1, 501585, Note_on_c, 0, 75, 85
1, 501586, Note_on_c, 0, 55, 56
1, 501586, Control_c, 0, 64, 94
1, 501589, Note_on_c, 0, 72, 68
1, 501595, Note_off_c, 0, 74, 52
1, 501601, Control_c, 0, 64, 71
1, 501615, Note_off_c, 0, 79, 23
1, 501616, Control_c, 0, 64, 52
1, 501630, Control_c, 0, 64, 0
1, 501657, Note_off_c, 0, 77, 53
1, 501690, Control_c, 0, 64, 47
1, 501705, Control_c, 0, 64, 64
1, 501720, Control_c, 0, 64, 75
1, 501735, Control_c, 0, 64, 90
1, 501750, Control_c, 0, 64, 127
1, 501819, Note_off_c, 0, 72, 55
1, 501824, Note_off_c, 0, 55, 32
1, 502060, Note_on_c, 0, 74, 79
1, 502064, Note_on_c, 0, 55, 51
1, 502076, Control_c, 0, 64, 102
1, 502079, Note_on_c, 0, 71, 62
1, 502091, Control_c, 0, 64, 76
1, 502093, Note_off_c, 0, 75, 59
1, 502105, Control_c, 0, 64, 60
1, 502120, Control_c, 0, 64, 34
1, 502135, Control_c, 0, 64, 38
1, 502150, Control_c, 0, 64, 54
1, 502165, Control_c, 0, 64, 64
1, 502179, Control_c, 0, 64, 73
1, 502194, Control_c, 0, 64, 85
1, 502209, Control_c, 0, 64, 100
1, 502232, Control_c, 0, 64, 127
1, 502233, Note_off_c, 0, 55, 62
1, 502349, Note_off_c, 0, 71, 60
1, 502597, Note_on_c, 0, 56, 37
1, 502653, Note_on_c, 0, 72, 59
1, 502694, Note_off_c, 0, 74, 57
1, 502720, Control_c, 0, 64, 114
1, 502735, Control_c, 0, 64, 101
1, 502751, Control_c, 0, 64, 92
1, 502766, Control_c, 0, 64, 84
1, 502781, Control_c, 0, 64, 75
1, 502796, Control_c, 0, 64, 66
1, 502810, Control_c, 0, 64, 56
1, 502825, Control_c, 0, 64, 36
1, 502840, Control_c, 0, 64, 0
1, 502899, Note_on_c, 0, 59, 51
1, 503040, Control_c, 0, 64, 41
1, 503054, Control_c, 0, 64, 51
1, 503069, Control_c, 0, 64, 60
1, 503084, Control_c, 0, 64, 64
1, 503099, Control_c, 0, 64, 67
1, 503114, Control_c, 0, 64, 71
1, 503128, Control_c, 0, 64, 76
1, 503136, Note_on_c, 0, 60, 75
1, 503143, Control_c, 0, 64, 81
1, 503158, Control_c, 0, 64, 86
1, 503173, Control_c, 0, 64, 93
1, 503188, Control_c, 0, 64, 100
1, 503202, Control_c, 0, 64, 107
1, 503217, Control_c, 0, 64, 117
1, 503222, Note_off_c, 0, 72, 27
1, 503232, Control_c, 0, 64, 127
1, 503321, Note_on_c, 0, 62, 83
1, 503342, Note_off_c, 0, 59, 42
1, 503354, Note_off_c, 0, 60, 61
1, 503555, Note_on_c, 0, 63, 72
1, 503559, Control_c, 0, 64, 102
1, 503567, Note_on_c, 0, 72, 55
1, 503574, Control_c, 0, 64, 79
1, 503585, Note_off_c, 0, 62, 59
1, 503589, Control_c, 0, 64, 63
1, 503604, Control_c, 0, 64, 39
1, 503619, Control_c, 0, 64, 0
1, 503648, Control_c, 0, 64, 49
1, 503663, Control_c, 0, 64, 59
1, 503677, Control_c, 0, 64, 67
1, 503692, Control_c, 0, 64, 76
1, 503707, Control_c, 0, 64, 88
1, 503729, Control_c, 0, 64, 99
1, 503738, Note_off_c, 0, 72, 37
1, 503744, Control_c, 0, 64, 114
1, 503759, Control_c, 0, 64, 127
1, 503792, Note_on_c, 0, 64, 73
1, 503914, Note_off_c, 0, 63, 38
1, 504011, Control_c, 0, 64, 120
1, 504025, Control_c, 0, 64, 83
1, 504026, Note_on_c, 0, 65, 80
1, 504030, Note_on_c, 0, 72, 59
1, 504040, Control_c, 0, 64, 62
1, 504042, Note_off_c, 0, 64, 61
1, 504055, Control_c, 0, 64, 0
1, 504114, Control_c, 0, 64, 41
1, 504129, Control_c, 0, 64, 59
1, 504144, Control_c, 0, 64, 69
1, 504158, Control_c, 0, 64, 79
1, 504173, Control_c, 0, 64, 94
1, 504188, Control_c, 0, 64, 110
1, 504203, Control_c, 0, 64, 127
1, 504265, Note_off_c, 0, 56, 56
1, 504268, Note_on_c, 0, 66, 84
1, 504286, Note_off_c, 0, 65, 64
1, 504295, Note_off_c, 0, 72, 52
1, 504641, Note_off_c, 0, 66, 61
1, 504668, Note_on_c, 0, 67, 72
1, 504685, Note_on_c, 0, 55, 63
1, 504685, Note_on_c, 0, 72, 67
1, 504701, Control_c, 0, 64, 95
1, 504716, Control_c, 0, 64, 75
1, 504730, Control_c, 0, 64, 57
1, 504745, Control_c, 0, 64, 0
1, 504990, Note_off_c, 0, 72, 60
1, 505017, Note_on_c, 0, 74, 57
1, 505069, Note_on_c, 0, 72, 68
1, 505097, Note_off_c, 0, 74, 60
1, 505112, Note_off_c, 0, 72, 64
1, 505120, Note_on_c, 0, 71, 71
1, 505186, Note_on_c, 0, 72, 79
1, 505190, Control_c, 0, 64, 37
1, 505205, Note_off_c, 0, 71, 61
1, 505205, Control_c, 0, 64, 55
1, 505228, Control_c, 0, 64, 65
1, 505243, Control_c, 0, 64, 69
1, 505257, Control_c, 0, 64, 75
1, 505258, Note_off_c, 0, 67, 53
1, 505272, Control_c, 0, 64, 82
1, 505287, Control_c, 0, 64, 92
1, 505302, Control_c, 0, 64, 109
1, 505317, Control_c, 0, 64, 127
1, 505338, Note_off_c, 0, 55, 46
1, 505428, Note_on_c, 0, 74, 87
1, 505476, Note_off_c, 0, 72, 59
1, 505783, Note_on_c, 0, 43, 36
1, 505801, Note_on_c, 0, 75, 65
1, 505899, Note_off_c, 0, 74, 57
1, 505976, Control_c, 0, 64, 102
1, 505991, Control_c, 0, 64, 88
1, 506006, Control_c, 0, 64, 75
1, 506021, Control_c, 0, 64, 63
1, 506035, Control_c, 0, 64, 0
1, 506153, Control_c, 0, 64, 45
1, 506168, Control_c, 0, 64, 60
1, 506183, Control_c, 0, 64, 66
1, 506197, Control_c, 0, 64, 70
1, 506212, Control_c, 0, 64, 75
1, 506227, Control_c, 0, 64, 82
1, 506242, Control_c, 0, 64, 89
1, 506257, Control_c, 0, 64, 98
1, 506272, Control_c, 0, 64, 110
1, 506286, Control_c, 0, 64, 127
1, 506349, Note_on_c, 0, 71, 60
1, 506366, Note_on_c, 0, 65, 45
1, 506415, Note_off_c, 0, 43, 39
1, 506421, Note_off_c, 0, 75, 56
1, 506519, Note_off_c, 0, 65, 51
1, 506975, Note_on_c, 0, 44, 36
1, 507002, Note_on_c, 0, 63, 36
1, 507002, Note_on_c, 0, 72, 44
1, 507125, Control_c, 0, 64, 101
1, 507140, Control_c, 0, 64, 88
1, 507155, Control_c, 0, 64, 76
1, 507169, Control_c, 0, 64, 65
1, 507178, Note_off_c, 0, 71, 38
1, 507184, Control_c, 0, 64, 51
1, 507199, Control_c, 0, 64, 0
1, 507291, Note_on_c, 0, 47, 44
1, 507407, Control_c, 0, 64, 34
1, 507421, Control_c, 0, 64, 46
1, 507436, Control_c, 0, 64, 55
1, 507451, Control_c, 0, 64, 62
1, 507466, Control_c, 0, 64, 65
1, 507488, Control_c, 0, 64, 67
1, 507503, Control_c, 0, 64, 71
1, 507518, Control_c, 0, 64, 76
1, 507533, Control_c, 0, 64, 81
1, 507539, Note_on_c, 0, 48, 66
1, 507548, Control_c, 0, 64, 87
1, 507559, Note_off_c, 0, 63, 36
1, 507563, Control_c, 0, 64, 93
1, 507578, Control_c, 0, 64, 101
1, 507593, Control_c, 0, 64, 112
1, 507607, Control_c, 0, 64, 127
1, 507687, Note_off_c, 0, 72, 34
1, 507746, Note_on_c, 0, 50, 79
1, 507763, Note_off_c, 0, 47, 38
1, 507780, Note_off_c, 0, 48, 59
1, 507963, Control_c, 0, 64, 117
1, 507977, Control_c, 0, 64, 85
1, 507992, Control_c, 0, 64, 67
1, 507998, Note_on_c, 0, 51, 72
1, 508001, Note_on_c, 0, 60, 49
1, 508007, Control_c, 0, 64, 45
1, 508013, Note_off_c, 0, 50, 60
1, 508022, Control_c, 0, 64, 0
1, 508111, Control_c, 0, 64, 52
1, 508126, Control_c, 0, 64, 64
1, 508141, Control_c, 0, 64, 70
1, 508156, Control_c, 0, 64, 76
1, 508170, Control_c, 0, 64, 82
1, 508185, Control_c, 0, 64, 88
1, 508200, Control_c, 0, 64, 96
1, 508215, Control_c, 0, 64, 114
1, 508227, Note_on_c, 0, 52, 76
1, 508237, Control_c, 0, 64, 127
1, 508242, Note_off_c, 0, 60, 32
1, 508270, Note_off_c, 0, 51, 47
1, 508474, Note_on_c, 0, 53, 74
1, 508489, Control_c, 0, 64, 107
1, 508499, Note_on_c, 0, 60, 59
1, 508504, Note_off_c, 0, 52, 62
1, 508504, Control_c, 0, 64, 78
1, 508519, Control_c, 0, 64, 59
1, 508534, Control_c, 0, 64, 0
1, 508593, Control_c, 0, 64, 44
1, 508608, Control_c, 0, 64, 56
1, 508623, Control_c, 0, 64, 66
1, 508638, Control_c, 0, 64, 73
1, 508653, Control_c, 0, 64, 83
1, 508667, Control_c, 0, 64, 93
1, 508682, Control_c, 0, 64, 107
1, 508687, Note_off_c, 0, 60, 38
1, 508697, Control_c, 0, 64, 127
1, 508722, Note_on_c, 0, 54, 81
1, 508737, Note_off_c, 0, 44, 42
1, 508743, Note_off_c, 0, 53, 63
1, 509163, Note_on_c, 0, 55, 64
1, 509169, Note_on_c, 0, 60, 59
1, 509186, Note_on_c, 0, 43, 59
1, 509196, Note_off_c, 0, 54, 50
1, 509268, Control_c, 0, 64, 108
1, 509283, Control_c, 0, 64, 85
1, 509297, Control_c, 0, 64, 70
1, 509312, Control_c, 0, 64, 55
1, 509327, Control_c, 0, 64, 0
1, 509497, Note_off_c, 0, 60, 64
1, 509519, Note_on_c, 0, 62, 56
1, 509585, Note_on_c, 0, 60, 60
1, 509595, Note_off_c, 0, 62, 61
1, 509617, Note_off_c, 0, 60, 66
1, 509626, Note_on_c, 0, 59, 65
1, 509702, Note_on_c, 0, 60, 78
1, 509705, Note_off_c, 0, 59, 61
1, 509735, Control_c, 0, 64, 42
1, 509749, Control_c, 0, 64, 56
1, 509764, Control_c, 0, 64, 63
1, 509779, Control_c, 0, 64, 69
1, 509794, Control_c, 0, 64, 78
1, 509800, Note_off_c, 0, 55, 53
1, 509809, Control_c, 0, 64, 95
1, 509823, Control_c, 0, 64, 127
1, 509918, Note_off_c, 0, 43, 61
1, 509965, Note_on_c, 0, 62, 80
1, 510001, Note_off_c, 0, 60, 63
1, 510352, Note_on_c, 0, 43, 33
1, 510365, Note_on_c, 0, 31, 37
1, 510396, Note_on_c, 0, 63, 48
1, 510549, Note_off_c, 0, 62, 58
1, 510572, Control_c, 0, 64, 99
1, 510587, Control_c, 0, 64, 84
1, 510602, Control_c, 0, 64, 72
1, 510617, Control_c, 0, 64, 59
1, 510632, Control_c, 0, 64, 38
1, 510646, Control_c, 0, 64, 0
1, 510810, Control_c, 0, 64, 38
1, 510825, Control_c, 0, 64, 50
1, 510840, Control_c, 0, 64, 58
1, 510855, Control_c, 0, 64, 64
1, 510869, Control_c, 0, 64, 68
1, 510884, Control_c, 0, 64, 73
1, 510899, Control_c, 0, 64, 78
1, 510914, Control_c, 0, 64, 84
1, 510929, Control_c, 0, 64, 90
1, 510943, Control_c, 0, 64, 96
1, 510958, Control_c, 0, 64, 101
1, 510973, Control_c, 0, 64, 106
1, 510987, Control_c, 0, 64, 111
1, 511002, Control_c, 0, 64, 119
1, 511017, Note_on_c, 0, 59, 50
1, 511017, Control_c, 0, 64, 124
1, 511032, Note_on_c, 0, 53, 35
1, 511032, Control_c, 0, 64, 127
1, 511047, Control_c, 0, 64, 124
1, 511062, Control_c, 0, 64, 109
1, 511077, Control_c, 0, 64, 92
1, 511092, Control_c, 0, 64, 77
1, 511107, Control_c, 0, 64, 63
1, 511115, Note_off_c, 0, 63, 47
1, 511122, Control_c, 0, 64, 53
1, 511151, Control_c, 0, 64, 59
1, 511166, Control_c, 0, 64, 65
1, 511181, Control_c, 0, 64, 73
1, 511195, Control_c, 0, 64, 83
1, 511217, Control_c, 0, 64, 92
1, 511232, Control_c, 0, 64, 99
1, 511247, Control_c, 0, 64, 102
1, 511277, Control_c, 0, 64, 105
1, 511300, Note_off_c, 0, 53, 59
1, 511306, Control_c, 0, 64, 109
1, 511321, Control_c, 0, 64, 111
1, 511336, Control_c, 0, 64, 114
1, 511351, Control_c, 0, 64, 116
1, 511366, Control_c, 0, 64, 119
1, 511381, Control_c, 0, 64, 122
1, 511395, Control_c, 0, 64, 124
1, 511410, Control_c, 0, 64, 127
1, 511730, Note_on_c, 0, 60, 39
1, 511736, Note_on_c, 0, 51, 28
1, 511749, Note_on_c, 0, 36, 27
1, 511751, Control_c, 0, 64, 122
1, 511766, Control_c, 0, 64, 117
1, 511781, Control_c, 0, 64, 112
1, 511796, Control_c, 0, 64, 107
1, 511811, Control_c, 0, 64, 100
1, 511826, Control_c, 0, 64, 93
1, 511827, Note_off_c, 0, 31, 34
1, 511841, Control_c, 0, 64, 85
1, 511856, Control_c, 0, 64, 77
1, 511871, Control_c, 0, 64, 69
1, 511885, Control_c, 0, 64, 62
1, 511900, Control_c, 0, 64, 47
1, 511902, Note_off_c, 0, 43, 40
1, 511914, Note_off_c, 0, 59, 38
1, 511915, Control_c, 0, 64, 0
1, 512100, Control_c, 0, 64, 45
1, 512115, Control_c, 0, 64, 55
1, 512130, Control_c, 0, 64, 61
1, 512144, Control_c, 0, 64, 65
1, 512159, Control_c, 0, 64, 69
1, 512174, Control_c, 0, 64, 73
1, 512189, Control_c, 0, 64, 78
1, 512204, Control_c, 0, 64, 86
1, 512218, Control_c, 0, 64, 94
1, 512233, Control_c, 0, 64, 104
1, 512248, Control_c, 0, 64, 127
1, 512298, Note_off_c, 0, 60, 55
1, 512365, Note_off_c, 0, 36, 38
1, 512398, Note_off_c, 0, 51, 41
1, 512502, Control_c, 0, 64, 98
1, 512516, Control_c, 0, 64, 83
1, 512531, Control_c, 0, 64, 72
1, 512546, Control_c, 0, 64, 62
1, 512560, Control_c, 0, 64, 45
1, 512575, Control_c, 0, 64, 0
1, 512694, Control_c, 0, 64, 36
1, 512716, Control_c, 0, 64, 46
1, 512731, Control_c, 0, 64, 55
1, 512746, Control_c, 0, 64, 61
1, 512761, Control_c, 0, 64, 65
1, 512775, Control_c, 0, 64, 69
1, 512790, Control_c, 0, 64, 72
1, 512805, Control_c, 0, 64, 76
1, 512820, Control_c, 0, 64, 79
1, 512835, Control_c, 0, 64, 83
1, 512849, Control_c, 0, 64, 87
1, 512864, Control_c, 0, 64, 90
1, 512879, Control_c, 0, 64, 93
1, 512893, Control_c, 0, 64, 96
1, 512908, Control_c, 0, 64, 99
1, 512923, Control_c, 0, 64, 102
1, 512938, Control_c, 0, 64, 107
1, 512953, Control_c, 0, 64, 115
1, 512967, Control_c, 0, 64, 127
1, 513076, Note_on_c, 0, 51, 43
1, 513086, Control_c, 0, 64, 101
1, 513100, Note_on_c, 0, 31, 39
1, 513101, Control_c, 0, 64, 82
1, 513106, Note_on_c, 0, 43, 31
1, 513113, Note_on_c, 0, 48, 33
1, 513116, Control_c, 0, 64, 70
1, 513131, Control_c, 0, 64, 61
1, 513146, Control_c, 0, 64, 53
1, 513161, Control_c, 0, 64, 56
1, 513176, Control_c, 0, 64, 60
1, 513190, Control_c, 0, 64, 63
1, 513205, Control_c, 0, 64, 68
1, 513220, Control_c, 0, 64, 74
1, 513235, Control_c, 0, 64, 83
1, 513250, Control_c, 0, 64, 94
1, 513265, Control_c, 0, 64, 104
1, 513280, Control_c, 0, 64, 120
1, 513295, Control_c, 0, 64, 127
1, 513516, Note_off_c, 0, 43, 39
1, 513549, Note_off_c, 0, 48, 40
1, 513816, Note_off_c, 0, 51, 58
1, 513835, Control_c, 0, 64, 97
1, 513843, Note_on_c, 0, 41, 81
1, 513843, Note_on_c, 0, 50, 91
1, 513850, Control_c, 0, 64, 72
1, 513851, Note_on_c, 0, 47, 81
1, 513864, Control_c, 0, 64, 53
1, 513879, Control_c, 0, 64, 0
1, 513894, Control_c, 0, 64, 44
1, 513909, Control_c, 0, 64, 55
1, 513924, Control_c, 0, 64, 65
1, 513939, Control_c, 0, 64, 75
1, 513954, Control_c, 0, 64, 93
1, 513969, Control_c, 0, 64, 127
1, 514047, Note_off_c, 0, 31, 48
1, 514124, Note_off_c, 0, 47, 57
1, 514155, Note_off_c, 0, 41, 55
1, 514809, Note_on_c, 0, 39, 103
1, 514826, Note_on_c, 0, 48, 102
1, 514830, Note_on_c, 0, 36, 62
1, 514869, Note_on_c, 0, 51, 31
1, 514895, Control_c, 0, 64, 90
1, 514904, Note_off_c, 0, 51, 51
1, 514910, Note_off_c, 0, 50, 55
1, 514910, Control_c, 0, 64, 67
1, 514925, Control_c, 0, 64, 40
1, 514940, Control_c, 0, 64, 0
1, 515140, Control_c, 0, 64, 55
1, 515155, Control_c, 0, 64, 65
1, 515170, Control_c, 0, 64, 72
1, 515184, Control_c, 0, 64, 83
1, 515199, Control_c, 0, 64, 99
1, 515214, Control_c, 0, 64, 127
1, 515612, Note_off_c, 0, 48, 60
1, 515622, Note_on_c, 0, 50, 69
1, 515677, Note_on_c, 0, 51, 75
1, 515685, Note_off_c, 0, 50, 61
1, 515711, Note_off_c, 0, 51, 68
1, 515746, Note_on_c, 0, 53, 85
1, 515798, Note_on_c, 0, 55, 83
1, 515799, Note_off_c, 0, 53, 64
1, 515837, Note_on_c, 0, 57, 81
1, 515855, Note_off_c, 0, 55, 65
1, 515859, Note_on_c, 0, 59, 78
1, 515863, Note_off_c, 0, 57, 68
1, 515880, Note_off_c, 0, 59, 71
1, 515918, Control_c, 0, 64, 105
1, 515922, Note_on_c, 0, 60, 102
1, 515933, Control_c, 0, 64, 67
1, 515948, Control_c, 0, 64, 0
1, 515992, Control_c, 0, 64, 35
1, 516007, Control_c, 0, 64, 64
1, 516022, Control_c, 0, 64, 78
1, 516037, Control_c, 0, 64, 115
1, 516052, Control_c, 0, 64, 127
1, 516175, Note_on_c, 0, 62, 77
1, 516180, Note_off_c, 0, 60, 52
1, 516226, Note_off_c, 0, 62, 63
1, 516227, Note_on_c, 0, 63, 74
1, 516249, Note_off_c, 0, 63, 69
1, 516290, Note_on_c, 0, 65, 88
1, 516336, Note_on_c, 0, 67, 84
1, 516341, Note_off_c, 0, 65, 64
1, 516378, Note_on_c, 0, 69, 82
1, 516395, Note_off_c, 0, 67, 66
1, 516401, Note_on_c, 0, 71, 76
1, 516405, Note_off_c, 0, 69, 64
1, 516407, Control_c, 0, 64, 96
1, 516420, Note_off_c, 0, 71, 72
1, 516422, Control_c, 0, 64, 64
1, 516436, Control_c, 0, 64, 0
1, 516463, Note_on_c, 0, 72, 107
1, 516465, Note_off_c, 0, 36, 62
1, 516469, Note_off_c, 0, 39, 63
1, 516474, Control_c, 0, 64, 53
1, 516488, Control_c, 0, 64, 74
1, 516503, Control_c, 0, 64, 127
1, 516676, Note_on_c, 0, 74, 86
1, 516694, Note_off_c, 0, 72, 43
1, 516726, Note_off_c, 0, 74, 65
1, 516728, Note_on_c, 0, 75, 78
1, 516748, Note_off_c, 0, 75, 69
1, 516777, Note_on_c, 0, 77, 85
1, 516833, Note_on_c, 0, 79, 93
1, 516841, Note_off_c, 0, 77, 62
1, 516875, Note_on_c, 0, 81, 88
1, 516908, Note_off_c, 0, 79, 62
1, 516911, Note_on_c, 0, 83, 81
1, 516933, Note_off_c, 0, 81, 64
1, 516958, Note_on_c, 0, 84, 110
1, 516962, Note_on_c, 0, 60, 100
1, 516969, Note_on_c, 0, 55, 88
1, 516973, Note_on_c, 0, 51, 76
1, 516977, Note_on_c, 0, 48, 78
1, 516992, Control_c, 0, 64, 96
1, 517006, Control_c, 0, 64, 64
1, 517021, Control_c, 0, 64, 0
1, 517037, Note_off_c, 0, 83, 61
1, 517066, Control_c, 0, 64, 36
1, 517081, Control_c, 0, 64, 64
1, 517096, Control_c, 0, 64, 81
1, 517111, Control_c, 0, 64, 127
1, 518132, Note_off_c, 0, 60, 61
1, 518141, Note_off_c, 0, 48, 61
1, 518142, Note_off_c, 0, 55, 63
1, 518155, Note_off_c, 0, 84, 67
1, 518156, Note_off_c, 0, 51, 64
1, 518209, Control_c, 0, 64, 110
1, 518224, Control_c, 0, 64, 77
1, 518239, Control_c, 0, 64, 60
1, 518253, Control_c, 0, 64, 0
1, 518253, End_track
0, 0, End_of_file
