0, 0, Header, 0, 1, 384
1, 0, Start_track
1, 0, Title_t, "Dante Sonata--Ran Jia           "
1, 0, Text_t, "2009 Piano-e-Competition audition round"
1, 0, Text_t, "captured January 2009"
1, 0, Text_t, "http://www.piano-e-competition.com/"
1, 0, Text_t, "File processed for distribution by software from Zenph Studios, Inc., http://www.zenph.com"
1, 0, Instrument_name_t, "Yamaha Disklavier Pro Mark IV concert grand piano, model DCFIIISM4PRO"
1, 0, Sequencer_specific, 39, 67, 113, 0, 1, 0, 1, 0, 68, 97, 110, 116, 101, 32, 83, 111, 110, 97, 116, 97, 32, 32, 32, 32, 82, 97, 110, 32, 74, 105, 97, 32, 32, 32, 32, 32, 32, 32, 32, 32
1, 0, Sequencer_specific, 6, 67, 113, 0, 0, 0, 69
1, 0, System_exclusive, 21, 67, 113, 126, 21, 0, 2, 2, 0, 3, 14, 1, 4, 1, 13, 13, 10, 11, 9, 2, 7, 247
1, 0, Sequencer_specific, 5, 67, 123, 12, 2, 1
1, 0, Tempo, 512820
1, 0, Time_signature, 4, 2, 24, 8
1, 0, System_exclusive, 5, 126, 127, 9, 1, 247
1, 1, System_exclusive, 8, 67, 16, 76, 0, 0, 126, 0, 247
1, 2, System_exclusive, 8, 67, 16, 76, 8, 9, 7, 1, 247
1, 3, Control_c, 0, 0, 0
1, 3, Control_c, 1, 0, 0
1, 3, Control_c, 2, 0, 0
1, 3, Control_c, 3, 0, 0
1, 3, Control_c, 4, 0, 0
1, 3, Control_c, 5, 0, 0
1, 3, Control_c, 6, 0, 0
1, 3, Control_c, 7, 0, 0
1, 3, Control_c, 8, 0, 0
1, 3, Control_c, 9, 0, 127
1, 3, Control_c, 10, 0, 0
1, 3, Control_c, 11, 0, 0
1, 3, Control_c, 12, 0, 0
1, 3, Control_c, 13, 0, 0
1, 3, Control_c, 14, 0, 0
1, 3, Control_c, 15, 0, 0
1, 4, Control_c, 0, 32, 0
1, 4, Control_c, 1, 32, 0
1, 4, Control_c, 2, 32, 0
1, 4, Control_c, 3, 32, 0
1, 4, Control_c, 4, 32, 0
1, 4, Control_c, 5, 32, 0
1, 4, Control_c, 6, 32, 0
1, 4, Control_c, 7, 32, 0
1, 4, Control_c, 8, 32, 0
1, 4, Control_c, 9, 32, 0
1, 4, Control_c, 10, 32, 0
1, 4, Control_c, 11, 32, 0
1, 4, Control_c, 12, 32, 0
1, 4, Control_c, 13, 32, 0
1, 4, Control_c, 14, 32, 0
1, 4, Control_c, 15, 32, 0
1, 5, Program_c, 0, 0
1, 5, Program_c, 1, 0
1, 5, Program_c, 2, 0
1, 5, Program_c, 3, 0
1, 5, Program_c, 4, 0
1, 5, Program_c, 5, 0
1, 5, Program_c, 6, 0
1, 5, Program_c, 7, 0
1, 5, Program_c, 8, 0
1, 5, Program_c, 9, 0
1, 5, Program_c, 10, 0
1, 5, Program_c, 11, 0
1, 5, Program_c, 12, 0
1, 5, Program_c, 13, 0
1, 5, Program_c, 14, 0
1, 5, Program_c, 15, 0
1, 6, Control_c, 0, 7, 100
1, 6, Control_c, 1, 7, 100
1, 6, Control_c, 2, 7, 100
1, 6, Control_c, 3, 7, 100
1, 6, Control_c, 4, 7, 100
1, 6, Control_c, 5, 7, 100
1, 6, Control_c, 6, 7, 100
1, 6, Control_c, 7, 7, 100
1, 6, Control_c, 8, 7, 100
1, 6, Control_c, 9, 7, 100
1, 6, Control_c, 10, 7, 100
1, 6, Control_c, 11, 7, 100
1, 6, Control_c, 12, 7, 100
1, 6, Control_c, 13, 7, 100
1, 6, Control_c, 14, 7, 100
1, 6, Control_c, 15, 7, 100
1, 117, Control_c, 0, 64, 15
1, 229, Control_c, 0, 64, 31
1, 341, Control_c, 0, 64, 46
1, 452, Control_c, 0, 64, 63
1, 564, Control_c, 0, 64, 77
1, 676, Control_c, 0, 64, 94
1, 787, Control_c, 0, 64, 108
1, 899, Control_c, 0, 64, 127
1, 1128, Note_on_c, 0, 69, 86
1, 1133, Note_on_c, 0, 57, 77
1, 1145, Note_off_c, 0, 69, 76
1, 1157, Note_off_c, 0, 57, 69
1, 1197, Note_on_c, 0, 69, 97
1, 1203, Note_on_c, 0, 57, 89
1, 1885, Note_off_c, 0, 69, 53
1, 1963, Note_off_c, 0, 57, 54
1, 2405, Note_on_c, 0, 63, 92
1, 2410, Note_on_c, 0, 51, 80
1, 2437, Note_off_c, 0, 63, 64
1, 2442, Note_off_c, 0, 51, 69
1, 2488, Note_on_c, 0, 63, 99
1, 2492, Note_on_c, 0, 51, 95
1, 3209, Note_off_c, 0, 63, 38
1, 3478, Note_off_c, 0, 51, 48
1, 3764, Note_on_c, 0, 57, 86
1, 3766, Note_on_c, 0, 45, 85
1, 3783, Note_off_c, 0, 57, 71
1, 3788, Note_off_c, 0, 45, 68
1, 3835, Note_on_c, 0, 45, 84
1, 3836, Note_on_c, 0, 57, 89
1, 3893, Note_off_c, 0, 57, 59
1, 3898, Note_off_c, 0, 45, 63
1, 4330, Note_on_c, 0, 51, 89
1, 4339, Note_on_c, 0, 39, 71
1, 4352, Note_off_c, 0, 51, 66
1, 4373, Note_off_c, 0, 39, 64
1, 4406, Note_on_c, 0, 51, 100
1, 4410, Note_on_c, 0, 39, 89
1, 4554, Note_off_c, 0, 51, 62
1, 4609, Note_off_c, 0, 39, 57
1, 4962, Note_on_c, 0, 45, 95
1, 4967, Note_on_c, 0, 33, 86
1, 4988, Note_off_c, 0, 45, 67
1, 4993, Note_off_c, 0, 33, 65
1, 5046, Note_on_c, 0, 33, 86
1, 5046, Note_on_c, 0, 45, 98
1, 5140, Note_off_c, 0, 33, 55
1, 5141, Note_off_c, 0, 45, 55
1, 5815, Note_on_c, 0, 39, 93
1, 5819, Note_on_c, 0, 27, 85
1, 5864, Note_off_c, 0, 39, 63
1, 5874, Note_off_c, 0, 27, 63
1, 5929, Note_on_c, 0, 39, 95
1, 5930, Note_on_c, 0, 27, 88
1, 6104, Control_c, 0, 64, 99
1, 6119, Control_c, 0, 64, 79
1, 6133, Control_c, 0, 64, 68
1, 6148, Control_c, 0, 64, 60
1, 6163, Control_c, 0, 64, 51
1, 6185, Control_c, 0, 64, 37
1, 6200, Control_c, 0, 64, 10
1, 6214, Control_c, 0, 64, 0
1, 7992, Note_on_c, 0, 54, 77
1, 8004, Note_on_c, 0, 45, 63
1, 8007, Note_on_c, 0, 48, 65
1, 8534, Control_c, 0, 64, 19
1, 8549, Control_c, 0, 64, 29
1, 8564, Control_c, 0, 64, 38
1, 8579, Control_c, 0, 64, 47
1, 8594, Control_c, 0, 64, 57
1, 8608, Control_c, 0, 64, 63
1, 8623, Control_c, 0, 64, 68
1, 8638, Control_c, 0, 64, 72
1, 8653, Control_c, 0, 64, 78
1, 8668, Control_c, 0, 64, 89
1, 8682, Control_c, 0, 64, 127
1, 8735, Note_off_c, 0, 45, 34
1, 8844, Note_off_c, 0, 48, 53
1, 9019, Note_off_c, 0, 54, 37
1, 9232, Note_on_c, 0, 55, 90
1, 9233, Note_on_c, 0, 46, 92
1, 9239, Note_on_c, 0, 49, 82
1, 9284, Control_c, 0, 64, 75
1, 9299, Control_c, 0, 64, 61
1, 9314, Control_c, 0, 64, 46
1, 9329, Control_c, 0, 64, 14
1, 9344, Control_c, 0, 64, 0
1, 9491, Control_c, 0, 64, 20
1, 9508, Control_c, 0, 64, 30
1, 9522, Control_c, 0, 64, 39
1, 9537, Control_c, 0, 64, 47
1, 9552, Control_c, 0, 64, 58
1, 9567, Control_c, 0, 64, 64
1, 9581, Control_c, 0, 64, 69
1, 9596, Control_c, 0, 64, 72
1, 9611, Control_c, 0, 64, 77
1, 9626, Control_c, 0, 64, 84
1, 9641, Control_c, 0, 64, 101
1, 9655, Control_c, 0, 64, 127
1, 9788, Note_off_c, 0, 46, 59
1, 9796, Note_off_c, 0, 55, 57
1, 9857, Note_off_c, 0, 49, 57
1, 10465, Note_on_c, 0, 56, 93
1, 10476, Note_on_c, 0, 47, 91
1, 10480, Note_on_c, 0, 51, 81
1, 10508, Control_c, 0, 64, 79
1, 10522, Control_c, 0, 64, 61
1, 10537, Control_c, 0, 64, 43
1, 10552, Control_c, 0, 64, 0
1, 10752, Control_c, 0, 64, 15
1, 10767, Control_c, 0, 64, 24
1, 10782, Control_c, 0, 64, 32
1, 10796, Control_c, 0, 64, 40
1, 10811, Control_c, 0, 64, 48
1, 10826, Control_c, 0, 64, 56
1, 10841, Control_c, 0, 64, 62
1, 10856, Control_c, 0, 64, 65
1, 10871, Control_c, 0, 64, 68
1, 10885, Control_c, 0, 64, 71
1, 10900, Control_c, 0, 64, 73
1, 10915, Control_c, 0, 64, 75
1, 10930, Control_c, 0, 64, 76
1, 10960, Control_c, 0, 64, 72
1, 10975, Control_c, 0, 64, 65
1, 10990, Control_c, 0, 64, 51
1, 11004, Control_c, 0, 64, 24
1, 11019, Control_c, 0, 64, 0
1, 11109, Control_c, 0, 64, 13
1, 11124, Control_c, 0, 64, 27
1, 11139, Control_c, 0, 64, 39
1, 11153, Control_c, 0, 64, 52
1, 11168, Control_c, 0, 64, 64
1, 11183, Control_c, 0, 64, 74
1, 11198, Control_c, 0, 64, 86
1, 11213, Control_c, 0, 64, 105
1, 11227, Control_c, 0, 64, 127
1, 11244, Note_off_c, 0, 47, 52
1, 11332, Note_off_c, 0, 51, 45
1, 11553, Note_off_c, 0, 56, 35
1, 11830, Note_on_c, 0, 51, 94
1, 11833, Note_on_c, 0, 63, 87
1, 11834, Note_on_c, 0, 56, 84
1, 11838, Note_on_c, 0, 58, 80
1, 11857, Control_c, 0, 64, 76
1, 11871, Control_c, 0, 64, 61
1, 11886, Control_c, 0, 64, 44
1, 11902, Control_c, 0, 64, 8
1, 11917, Control_c, 0, 64, 0
1, 12139, Control_c, 0, 64, 12
1, 12154, Control_c, 0, 64, 18
1, 12176, Control_c, 0, 64, 23
1, 12191, Control_c, 0, 64, 28
1, 12206, Control_c, 0, 64, 34
1, 12221, Control_c, 0, 64, 40
1, 12236, Control_c, 0, 64, 45
1, 12250, Control_c, 0, 64, 51
1, 12265, Control_c, 0, 64, 56
1, 12280, Control_c, 0, 64, 60
1, 12295, Control_c, 0, 64, 62
1, 12309, Control_c, 0, 64, 64
1, 12324, Control_c, 0, 64, 66
1, 12339, Control_c, 0, 64, 68
1, 12354, Control_c, 0, 64, 72
1, 12369, Control_c, 0, 64, 76
1, 12383, Control_c, 0, 64, 80
1, 12398, Control_c, 0, 64, 83
1, 12413, Control_c, 0, 64, 86
1, 12428, Control_c, 0, 64, 89
1, 12442, Control_c, 0, 64, 91
1, 12457, Control_c, 0, 64, 93
1, 12472, Control_c, 0, 64, 94
1, 12487, Control_c, 0, 64, 95
1, 12501, Control_c, 0, 64, 95
1, 12516, Control_c, 0, 64, 96
1, 12531, Control_c, 0, 64, 97
1, 12581, Note_off_c, 0, 27, 62
1, 12600, Note_off_c, 0, 39, 49
1, 12635, Control_c, 0, 64, 96
1, 12650, Control_c, 0, 64, 95
1, 12665, Control_c, 0, 64, 93
1, 12669, Note_on_c, 0, 40, 82
1, 12674, Note_on_c, 0, 28, 77
1, 12680, Control_c, 0, 64, 89
1, 12695, Control_c, 0, 64, 84
1, 12710, Control_c, 0, 64, 79
1, 12724, Control_c, 0, 64, 73
1, 12739, Control_c, 0, 64, 67
1, 12754, Control_c, 0, 64, 62
1, 12769, Control_c, 0, 64, 54
1, 12784, Control_c, 0, 64, 41
1, 12798, Control_c, 0, 64, 20
1, 12813, Control_c, 0, 64, 0
1, 12872, Control_c, 0, 64, 11
1, 12887, Control_c, 0, 64, 20
1, 12902, Control_c, 0, 64, 26
1, 12924, Control_c, 0, 64, 32
1, 12939, Control_c, 0, 64, 38
1, 12954, Control_c, 0, 64, 45
1, 12969, Control_c, 0, 64, 51
1, 12984, Control_c, 0, 64, 58
1, 12998, Control_c, 0, 64, 62
1, 13013, Control_c, 0, 64, 64
1, 13028, Control_c, 0, 64, 66
1, 13043, Control_c, 0, 64, 67
1, 13058, Control_c, 0, 64, 69
1, 13072, Control_c, 0, 64, 70
1, 13087, Control_c, 0, 64, 73
1, 13102, Control_c, 0, 64, 75
1, 13117, Control_c, 0, 64, 76
1, 13161, Control_c, 0, 64, 77
1, 13176, Control_c, 0, 64, 77
1, 13246, Note_off_c, 0, 40, 58
1, 13285, Note_off_c, 0, 58, 37
1, 13300, Note_off_c, 0, 56, 29
1, 13440, Note_off_c, 0, 28, 36
1, 13443, Control_c, 0, 64, 77
1, 13472, Note_on_c, 0, 42, 77
1, 13479, Note_on_c, 0, 30, 68
1, 13517, Control_c, 0, 64, 76
1, 13532, Control_c, 0, 64, 76
1, 13542, Note_off_c, 0, 42, 61
1, 13547, Control_c, 0, 64, 75
1, 13562, Note_off_c, 0, 30, 58
1, 13562, Control_c, 0, 64, 73
1, 13577, Control_c, 0, 64, 71
1, 13592, Control_c, 0, 64, 69
1, 13607, Control_c, 0, 64, 65
1, 13610, Note_on_c, 0, 58, 65
1, 13613, Note_on_c, 0, 28, 64
1, 13613, Note_on_c, 0, 55, 64
1, 13616, Note_on_c, 0, 40, 70
1, 13621, Control_c, 0, 64, 62
1, 13636, Control_c, 0, 64, 59
1, 13651, Control_c, 0, 64, 53
1, 13673, Control_c, 0, 64, 47
1, 13688, Control_c, 0, 64, 40
1, 13702, Control_c, 0, 64, 33
1, 13717, Control_c, 0, 64, 25
1, 13732, Control_c, 0, 64, 18
1, 13747, Control_c, 0, 64, 9
1, 13762, Control_c, 0, 64, 0
1, 14264, Control_c, 0, 64, 11
1, 14279, Control_c, 0, 64, 15
1, 14295, Control_c, 0, 64, 19
1, 14310, Control_c, 0, 64, 23
1, 14325, Control_c, 0, 64, 27
1, 14340, Control_c, 0, 64, 30
1, 14355, Control_c, 0, 64, 33
1, 14369, Control_c, 0, 64, 35
1, 14384, Control_c, 0, 64, 37
1, 14399, Control_c, 0, 64, 40
1, 14421, Control_c, 0, 64, 44
1, 14436, Control_c, 0, 64, 48
1, 14450, Control_c, 0, 64, 52
1, 14465, Control_c, 0, 64, 56
1, 14480, Control_c, 0, 64, 58
1, 14495, Control_c, 0, 64, 60
1, 14510, Control_c, 0, 64, 62
1, 14525, Control_c, 0, 64, 63
1, 14540, Control_c, 0, 64, 64
1, 14555, Control_c, 0, 64, 65
1, 14569, Control_c, 0, 64, 65
1, 14584, Control_c, 0, 64, 66
1, 14673, Note_off_c, 0, 40, 39
1, 14762, Control_c, 0, 64, 65
1, 14880, Control_c, 0, 64, 65
1, 14984, Control_c, 0, 64, 64
1, 15043, Control_c, 0, 64, 64
1, 15058, Control_c, 0, 64, 63
1, 15073, Control_c, 0, 64, 63
1, 15088, Control_c, 0, 64, 62
1, 15103, Control_c, 0, 64, 61
1, 15113, Note_on_c, 0, 27, 53
1, 15118, Control_c, 0, 64, 60
1, 15118, Note_on_c, 0, 39, 46
1, 15133, Control_c, 0, 64, 58
1, 15148, Control_c, 0, 64, 56
1, 15155, Note_off_c, 0, 28, 36
1, 15170, Control_c, 0, 64, 52
1, 15185, Control_c, 0, 64, 45
1, 15199, Control_c, 0, 64, 37
1, 15214, Control_c, 0, 64, 27
1, 15229, Control_c, 0, 64, 14
1, 15244, Control_c, 0, 64, 0
1, 15496, Control_c, 0, 64, 21
1, 15511, Control_c, 0, 64, 31
1, 15525, Control_c, 0, 64, 39
1, 15540, Control_c, 0, 64, 48
1, 15555, Control_c, 0, 64, 56
1, 15570, Control_c, 0, 64, 64
1, 15585, Control_c, 0, 64, 70
1, 15599, Control_c, 0, 64, 77
1, 15614, Control_c, 0, 64, 85
1, 15629, Control_c, 0, 64, 97
1, 15644, Control_c, 0, 64, 127
1, 15649, Note_off_c, 0, 27, 55
1, 15738, Note_off_c, 0, 39, 35
1, 15976, Note_off_c, 0, 63, 28
1, 16111, Note_off_c, 0, 51, 32
1, 16498, Note_on_c, 0, 63, 68
1, 16519, Note_on_c, 0, 51, 49
1, 16640, Note_on_c, 0, 32, 57
1, 16677, Note_off_c, 0, 55, 59
1, 16840, Note_on_c, 0, 39, 55
1, 16858, Note_off_c, 0, 51, 56
1, 16915, Note_off_c, 0, 58, 25
1, 16924, Note_on_c, 0, 44, 52
1, 16950, Control_c, 0, 64, 115
1, 16964, Control_c, 0, 64, 108
1, 16972, Note_off_c, 0, 63, 53
1, 16979, Control_c, 0, 64, 101
1, 16984, Note_on_c, 0, 51, 61
1, 16994, Control_c, 0, 64, 95
1, 17009, Control_c, 0, 64, 91
1, 17024, Control_c, 0, 64, 88
1, 17038, Control_c, 0, 64, 85
1, 17053, Note_on_c, 0, 56, 63
1, 17053, Control_c, 0, 64, 82
1, 17068, Control_c, 0, 64, 79
1, 17082, Control_c, 0, 64, 77
1, 17097, Control_c, 0, 64, 75
1, 17112, Control_c, 0, 64, 73
1, 17121, Note_on_c, 0, 60, 64
1, 17127, Control_c, 0, 64, 70
1, 17142, Control_c, 0, 64, 67
1, 17157, Control_c, 0, 64, 65
1, 17172, Control_c, 0, 64, 61
1, 17187, Control_c, 0, 64, 56
1, 17202, Control_c, 0, 64, 50
1, 17204, Note_on_c, 0, 63, 68
1, 17217, Control_c, 0, 64, 44
1, 17231, Control_c, 0, 64, 39
1, 17246, Control_c, 0, 64, 35
1, 17261, Control_c, 0, 64, 29
1, 17276, Control_c, 0, 64, 22
1, 17290, Control_c, 0, 64, 0
1, 18506, Control_c, 0, 64, 12
1, 18521, Control_c, 0, 64, 15
1, 18535, Control_c, 0, 64, 19
1, 18550, Control_c, 0, 64, 22
1, 18565, Control_c, 0, 64, 25
1, 18580, Control_c, 0, 64, 27
1, 18595, Control_c, 0, 64, 30
1, 18609, Control_c, 0, 64, 33
1, 18624, Control_c, 0, 64, 36
1, 18639, Control_c, 0, 64, 40
1, 18654, Control_c, 0, 64, 44
1, 18668, Control_c, 0, 64, 49
1, 18683, Control_c, 0, 64, 54
1, 18698, Control_c, 0, 64, 57
1, 18714, Control_c, 0, 64, 60
1, 18729, Control_c, 0, 64, 61
1, 18743, Control_c, 0, 64, 62
1, 18758, Control_c, 0, 64, 63
1, 18773, Control_c, 0, 64, 64
1, 18788, Control_c, 0, 64, 66
1, 18803, Control_c, 0, 64, 67
1, 18817, Control_c, 0, 64, 69
1, 18832, Control_c, 0, 64, 71
1, 18847, Control_c, 0, 64, 72
1, 18862, Control_c, 0, 64, 74
1, 18877, Control_c, 0, 64, 75
1, 18892, Control_c, 0, 64, 75
1, 18914, Control_c, 0, 64, 77
1, 18929, Control_c, 0, 64, 78
1, 18943, Control_c, 0, 64, 79
1, 18958, Control_c, 0, 64, 80
1, 18973, Control_c, 0, 64, 81
1, 18988, Control_c, 0, 64, 83
1, 19003, Control_c, 0, 64, 84
1, 19009, Note_off_c, 0, 51, 36
1, 19017, Control_c, 0, 64, 85
1, 19032, Control_c, 0, 64, 86
1, 19047, Control_c, 0, 64, 88
1, 19062, Control_c, 0, 64, 88
1, 19077, Control_c, 0, 64, 89
1, 19086, Note_off_c, 0, 60, 28
1, 19092, Control_c, 0, 64, 90
1, 19162, Note_off_c, 0, 56, 26
1, 19162, Note_off_c, 0, 63, 28
1, 19445, Note_off_c, 0, 32, 55
1, 19569, Note_off_c, 0, 39, 56
1, 19603, Note_off_c, 0, 44, 51
1, 19707, Control_c, 0, 64, 89
1, 19796, Control_c, 0, 64, 89
1, 19810, Control_c, 0, 64, 88
1, 19840, Control_c, 0, 64, 88
1, 19870, Control_c, 0, 64, 87
1, 19885, Control_c, 0, 64, 86
1, 19901, Control_c, 0, 64, 85
1, 19915, Control_c, 0, 64, 85
1, 19930, Control_c, 0, 64, 84
1, 19945, Control_c, 0, 64, 84
1, 19960, Control_c, 0, 64, 83
1, 19975, Control_c, 0, 64, 82
1, 19989, Control_c, 0, 64, 81
1, 20004, Control_c, 0, 64, 81
1, 20019, Control_c, 0, 64, 80
1, 20034, Control_c, 0, 64, 79
1, 20049, Control_c, 0, 64, 78
1, 20063, Control_c, 0, 64, 77
1, 20078, Control_c, 0, 64, 77
1, 20093, Control_c, 0, 64, 76
1, 20108, Control_c, 0, 64, 75
1, 20123, Control_c, 0, 64, 74
1, 20138, Control_c, 0, 64, 74
1, 20153, Control_c, 0, 64, 73
1, 20168, Control_c, 0, 64, 72
1, 20182, Control_c, 0, 64, 72
1, 20197, Control_c, 0, 64, 71
1, 20212, Control_c, 0, 64, 71
1, 20242, Control_c, 0, 64, 70
1, 20271, Control_c, 0, 64, 70
1, 20286, Control_c, 0, 64, 69
1, 20301, Control_c, 0, 64, 69
1, 20315, Control_c, 0, 64, 68
1, 20345, Control_c, 0, 64, 68
1, 20360, Control_c, 0, 64, 67
1, 20375, Control_c, 0, 64, 66
1, 20412, Control_c, 0, 64, 66
1, 20471, Control_c, 0, 64, 65
1, 20486, Control_c, 0, 64, 62
1, 20501, Control_c, 0, 64, 57
1, 20515, Control_c, 0, 64, 45
1, 20530, Control_c, 0, 64, 20
1, 20545, Control_c, 0, 64, 0
1, 20589, Control_c, 0, 64, 12
1, 20604, Control_c, 0, 64, 39
1, 20619, Control_c, 0, 64, 58
1, 20634, Control_c, 0, 64, 127
1, 20788, Note_on_c, 0, 72, 86
1, 20794, Note_on_c, 0, 60, 82
1, 20805, Note_off_c, 0, 72, 73
1, 20814, Note_off_c, 0, 60, 72
1, 20856, Note_on_c, 0, 72, 103
1, 20863, Note_on_c, 0, 60, 97
1, 21160, Control_c, 0, 64, 85
1, 21175, Control_c, 0, 64, 66
1, 21190, Control_c, 0, 64, 57
1, 21205, Control_c, 0, 64, 45
1, 21220, Control_c, 0, 64, 42
1, 21235, Control_c, 0, 64, 44
1, 21250, Control_c, 0, 64, 46
1, 21264, Control_c, 0, 64, 48
1, 21279, Control_c, 0, 64, 49
1, 21294, Control_c, 0, 64, 52
1, 21309, Control_c, 0, 64, 57
1, 21324, Control_c, 0, 64, 65
1, 21338, Control_c, 0, 64, 80
1, 21353, Control_c, 0, 64, 127
1, 21572, Note_off_c, 0, 72, 54
1, 21666, Note_off_c, 0, 60, 50
1, 22197, Note_on_c, 0, 66, 94
1, 22201, Note_on_c, 0, 54, 82
1, 22214, Note_off_c, 0, 66, 69
1, 22225, Note_off_c, 0, 54, 70
1, 22273, Note_on_c, 0, 66, 105
1, 22281, Note_on_c, 0, 54, 96
1, 22320, Note_on_c, 0, 56, 37
1, 22352, Note_off_c, 0, 56, 56
1, 22901, Note_off_c, 0, 66, 45
1, 23385, Note_off_c, 0, 54, 45
1, 23833, Note_on_c, 0, 60, 79
1, 23834, Note_on_c, 0, 48, 81
1, 23854, Note_off_c, 0, 60, 73
1, 23855, Note_off_c, 0, 48, 69
1, 23905, Note_on_c, 0, 48, 87
1, 23906, Note_on_c, 0, 60, 91
1, 23966, Note_off_c, 0, 60, 58
1, 23983, Note_off_c, 0, 48, 61
1, 24393, Note_on_c, 0, 54, 83
1, 24404, Note_on_c, 0, 42, 64
1, 24414, Note_off_c, 0, 54, 71
1, 24429, Note_off_c, 0, 42, 59
1, 24464, Note_on_c, 0, 54, 97
1, 24467, Note_on_c, 0, 42, 88
1, 24537, Note_off_c, 0, 54, 63
1, 24545, Note_off_c, 0, 42, 61
1, 24998, Note_on_c, 0, 48, 94
1, 25004, Note_on_c, 0, 36, 81
1, 25019, Note_off_c, 0, 48, 71
1, 25026, Note_off_c, 0, 36, 68
1, 25074, Note_on_c, 0, 48, 99
1, 25074, Note_on_c, 0, 36, 90
1, 25164, Note_off_c, 0, 48, 61
1, 25170, Note_off_c, 0, 36, 60
1, 25824, Note_on_c, 0, 42, 97
1, 25827, Note_on_c, 0, 30, 86
1, 25875, Note_off_c, 0, 42, 61
1, 25886, Note_off_c, 0, 30, 61
1, 25939, Note_on_c, 0, 42, 98
1, 25939, Note_on_c, 0, 30, 89
1, 26141, Control_c, 0, 64, 87
1, 26156, Control_c, 0, 64, 69
1, 26170, Control_c, 0, 64, 58
1, 26185, Control_c, 0, 64, 45
1, 26201, Control_c, 0, 64, 28
1, 26216, Control_c, 0, 64, 0
1, 27845, Note_on_c, 0, 57, 83
1, 27854, Note_on_c, 0, 51, 75
1, 27867, Note_on_c, 0, 48, 68
1, 28580, Control_c, 0, 64, 23
1, 28595, Control_c, 0, 64, 33
1, 28610, Control_c, 0, 64, 42
1, 28625, Control_c, 0, 64, 52
1, 28646, Control_c, 0, 64, 60
1, 28661, Control_c, 0, 64, 67
1, 28677, Control_c, 0, 64, 73
1, 28692, Control_c, 0, 64, 79
1, 28707, Control_c, 0, 64, 86
1, 28722, Control_c, 0, 64, 101
1, 28737, Control_c, 0, 64, 127
1, 28811, Note_off_c, 0, 51, 36
1, 28863, Note_off_c, 0, 57, 61
1, 29082, Note_off_c, 0, 48, 41
1, 29167, Note_on_c, 0, 58, 88
1, 29175, Note_on_c, 0, 52, 82
1, 29176, Note_on_c, 0, 49, 84
1, 29196, Control_c, 0, 64, 111
1, 29211, Control_c, 0, 64, 80
1, 29226, Control_c, 0, 64, 65
1, 29241, Control_c, 0, 64, 56
1, 29256, Control_c, 0, 64, 41
1, 29270, Control_c, 0, 64, 16
1, 29285, Control_c, 0, 64, 0
1, 29531, Control_c, 0, 64, 17
1, 29546, Control_c, 0, 64, 23
1, 29561, Control_c, 0, 64, 26
1, 29575, Control_c, 0, 64, 28
1, 29590, Control_c, 0, 64, 30
1, 29605, Control_c, 0, 64, 31
1, 29619, Control_c, 0, 64, 33
1, 29634, Control_c, 0, 64, 37
1, 29649, Control_c, 0, 64, 41
1, 29664, Control_c, 0, 64, 47
1, 29679, Control_c, 0, 64, 53
1, 29693, Control_c, 0, 64, 58
1, 29708, Control_c, 0, 64, 64
1, 29723, Control_c, 0, 64, 69
1, 29738, Control_c, 0, 64, 75
1, 29753, Control_c, 0, 64, 84
1, 29767, Control_c, 0, 64, 101
1, 29782, Control_c, 0, 64, 127
1, 30000, Note_off_c, 0, 49, 34
1, 30035, Note_off_c, 0, 52, 37
1, 30105, Note_off_c, 0, 58, 39
1, 30451, Note_on_c, 0, 59, 94
1, 30452, Note_on_c, 0, 54, 89
1, 30453, Note_on_c, 0, 50, 93
1, 30487, Control_c, 0, 64, 111
1, 30502, Control_c, 0, 64, 67
1, 30516, Control_c, 0, 64, 50
1, 30531, Control_c, 0, 64, 0
1, 30953, Control_c, 0, 64, 16
1, 30968, Control_c, 0, 64, 25
1, 30982, Control_c, 0, 64, 33
1, 30997, Control_c, 0, 64, 40
1, 31012, Control_c, 0, 64, 50
1, 31027, Control_c, 0, 64, 59
1, 31042, Control_c, 0, 64, 67
1, 31057, Control_c, 0, 64, 81
1, 31072, Control_c, 0, 64, 105
1, 31087, Control_c, 0, 64, 127
1, 31126, Note_off_c, 0, 50, 35
1, 31194, Note_off_c, 0, 59, 56
1, 31234, Note_off_c, 0, 54, 52
1, 32014, Note_on_c, 0, 54, 94
1, 32017, Note_on_c, 0, 66, 91
1, 32021, Note_on_c, 0, 59, 82
1, 32024, Note_on_c, 0, 61, 80
1, 32059, Control_c, 0, 64, 77
1, 32073, Control_c, 0, 64, 57
1, 32088, Control_c, 0, 64, 25
1, 32103, Control_c, 0, 64, 0
1, 32221, Control_c, 0, 64, 22
1, 32236, Control_c, 0, 64, 31
1, 32251, Control_c, 0, 64, 38
1, 32266, Control_c, 0, 64, 45
1, 32281, Control_c, 0, 64, 51
1, 32295, Control_c, 0, 64, 58
1, 32310, Control_c, 0, 64, 62
1, 32325, Control_c, 0, 64, 64
1, 32340, Control_c, 0, 64, 67
1, 32355, Control_c, 0, 64, 71
1, 32369, Control_c, 0, 64, 78
1, 32392, Control_c, 0, 64, 88
1, 32407, Control_c, 0, 64, 100
1, 32421, Control_c, 0, 64, 127
1, 32817, Note_off_c, 0, 42, 47
1, 32846, Note_off_c, 0, 30, 37
1, 32913, Note_on_c, 0, 43, 78
1, 32920, Note_on_c, 0, 31, 71
1, 32970, Control_c, 0, 64, 103
1, 32985, Control_c, 0, 64, 79
1, 33000, Control_c, 0, 64, 65
1, 33015, Control_c, 0, 64, 55
1, 33029, Control_c, 0, 64, 38
1, 33044, Control_c, 0, 64, 0
1, 33104, Control_c, 0, 64, 17
1, 33118, Control_c, 0, 64, 26
1, 33141, Control_c, 0, 64, 34
1, 33156, Control_c, 0, 64, 43
1, 33170, Control_c, 0, 64, 52
1, 33185, Control_c, 0, 64, 59
1, 33200, Control_c, 0, 64, 64
1, 33215, Control_c, 0, 64, 69
1, 33230, Control_c, 0, 64, 73
1, 33244, Control_c, 0, 64, 77
1, 33259, Control_c, 0, 64, 80
1, 33274, Control_c, 0, 64, 85
1, 33289, Control_c, 0, 64, 91
1, 33304, Control_c, 0, 64, 96
1, 33318, Control_c, 0, 64, 100
1, 33333, Control_c, 0, 64, 101
1, 33348, Control_c, 0, 64, 101
1, 33362, Control_c, 0, 64, 103
1, 33377, Control_c, 0, 64, 106
1, 33392, Control_c, 0, 64, 107
1, 33404, Note_off_c, 0, 31, 39
1, 33451, Note_off_c, 0, 43, 36
1, 33549, Note_off_c, 0, 59, 32
1, 33586, Note_off_c, 0, 61, 47
1, 33629, Note_on_c, 0, 45, 73
1, 33637, Note_on_c, 0, 33, 65
1, 33659, Control_c, 0, 64, 106
1, 33687, Note_off_c, 0, 45, 63
1, 33689, Control_c, 0, 64, 105
1, 33697, Note_off_c, 0, 33, 62
1, 33704, Control_c, 0, 64, 105
1, 33719, Control_c, 0, 64, 103
1, 33734, Control_c, 0, 64, 100
1, 33749, Control_c, 0, 64, 95
1, 33764, Control_c, 0, 64, 88
1, 33768, Note_on_c, 0, 58, 69
1, 33770, Note_on_c, 0, 61, 64
1, 33777, Note_on_c, 0, 43, 69
1, 33778, Control_c, 0, 64, 82
1, 33781, Note_on_c, 0, 31, 61
1, 33793, Control_c, 0, 64, 75
1, 33808, Control_c, 0, 64, 69
1, 33823, Control_c, 0, 64, 63
1, 33838, Control_c, 0, 64, 57
1, 33853, Control_c, 0, 64, 48
1, 33867, Control_c, 0, 64, 37
1, 33889, Control_c, 0, 64, 25
1, 33904, Control_c, 0, 64, 12
1, 33919, Control_c, 0, 64, 0
1, 34423, Control_c, 0, 64, 18
1, 34438, Control_c, 0, 64, 26
1, 34453, Control_c, 0, 64, 31
1, 34468, Control_c, 0, 64, 36
1, 34482, Control_c, 0, 64, 42
1, 34497, Control_c, 0, 64, 48
1, 34512, Control_c, 0, 64, 54
1, 34527, Control_c, 0, 64, 59
1, 34542, Control_c, 0, 64, 62
1, 34557, Control_c, 0, 64, 63
1, 34571, Control_c, 0, 64, 64
1, 34586, Control_c, 0, 64, 65
1, 34601, Control_c, 0, 64, 66
1, 34616, Control_c, 0, 64, 67
1, 34638, Control_c, 0, 64, 69
1, 34653, Control_c, 0, 64, 70
1, 34668, Control_c, 0, 64, 72
1, 34683, Control_c, 0, 64, 73
1, 34697, Control_c, 0, 64, 74
1, 34712, Control_c, 0, 64, 75
1, 34727, Control_c, 0, 64, 75
1, 34741, Control_c, 0, 64, 76
1, 34756, Control_c, 0, 64, 77
1, 34893, Note_off_c, 0, 43, 33
1, 35023, Control_c, 0, 64, 76
1, 35038, Control_c, 0, 64, 76
1, 35053, Control_c, 0, 64, 75
1, 35069, Control_c, 0, 64, 75
1, 35084, Control_c, 0, 64, 74
1, 35099, Control_c, 0, 64, 73
1, 35113, Control_c, 0, 64, 72
1, 35128, Control_c, 0, 64, 70
1, 35138, Note_on_c, 0, 42, 54
1, 35143, Control_c, 0, 64, 68
1, 35145, Note_on_c, 0, 30, 55
1, 35157, Control_c, 0, 64, 66
1, 35172, Control_c, 0, 64, 65
1, 35187, Control_c, 0, 64, 63
1, 35202, Control_c, 0, 64, 61
1, 35217, Control_c, 0, 64, 59
1, 35231, Control_c, 0, 64, 53
1, 35246, Control_c, 0, 64, 46
1, 35248, Note_off_c, 0, 31, 38
1, 35261, Control_c, 0, 64, 33
1, 35276, Control_c, 0, 64, 18
1, 35291, Control_c, 0, 64, 0
1, 35491, Control_c, 0, 64, 17
1, 35506, Control_c, 0, 64, 28
1, 35520, Control_c, 0, 64, 36
1, 35535, Control_c, 0, 64, 45
1, 35550, Control_c, 0, 64, 54
1, 35564, Control_c, 0, 64, 62
1, 35579, Control_c, 0, 64, 68
1, 35594, Control_c, 0, 64, 75
1, 35609, Control_c, 0, 64, 82
1, 35624, Control_c, 0, 64, 93
1, 35639, Control_c, 0, 64, 119
1, 35654, Note_off_c, 0, 30, 58
1, 35654, Control_c, 0, 64, 127
1, 35702, Note_off_c, 0, 42, 58
1, 36077, Note_off_c, 0, 66, 25
1, 36200, Note_off_c, 0, 54, 36
1, 36577, Note_on_c, 0, 66, 69
1, 36593, Note_on_c, 0, 54, 53
1, 36736, Note_on_c, 0, 35, 57
1, 36834, Note_off_c, 0, 58, 54
1, 36953, Note_on_c, 0, 42, 55
1, 36968, Note_off_c, 0, 54, 59
1, 37032, Note_on_c, 0, 47, 58
1, 37048, Control_c, 0, 64, 119
1, 37060, Note_off_c, 0, 61, 38
1, 37063, Control_c, 0, 64, 111
1, 37075, Note_off_c, 0, 66, 36
1, 37078, Control_c, 0, 64, 106
1, 37092, Control_c, 0, 64, 103
1, 37102, Note_on_c, 0, 54, 59
1, 37107, Control_c, 0, 64, 100
1, 37122, Control_c, 0, 64, 97
1, 37136, Control_c, 0, 64, 95
1, 37151, Control_c, 0, 64, 92
1, 37165, Note_on_c, 0, 59, 62
1, 37166, Control_c, 0, 64, 90
1, 37181, Control_c, 0, 64, 89
1, 37196, Control_c, 0, 64, 87
1, 37210, Control_c, 0, 64, 84
1, 37225, Control_c, 0, 64, 82
1, 37230, Note_on_c, 0, 63, 67
1, 37240, Control_c, 0, 64, 79
1, 37255, Control_c, 0, 64, 76
1, 37270, Control_c, 0, 64, 72
1, 37284, Control_c, 0, 64, 69
1, 37299, Control_c, 0, 64, 65
1, 37314, Control_c, 0, 64, 63
1, 37319, Note_on_c, 0, 66, 70
1, 37329, Control_c, 0, 64, 59
1, 37344, Control_c, 0, 64, 54
1, 37359, Control_c, 0, 64, 45
1, 37373, Control_c, 0, 64, 36
1, 37388, Control_c, 0, 64, 28
1, 37403, Control_c, 0, 64, 21
1, 37418, Control_c, 0, 64, 12
1, 37433, Control_c, 0, 64, 0
1, 38411, Control_c, 0, 64, 14
1, 38426, Control_c, 0, 64, 19
1, 38441, Control_c, 0, 64, 23
1, 38456, Control_c, 0, 64, 28
1, 38470, Control_c, 0, 64, 32
1, 38485, Control_c, 0, 64, 37
1, 38500, Control_c, 0, 64, 43
1, 38515, Control_c, 0, 64, 48
1, 38530, Control_c, 0, 64, 53
1, 38545, Control_c, 0, 64, 57
1, 38560, Control_c, 0, 64, 59
1, 38574, Control_c, 0, 64, 60
1, 38589, Control_c, 0, 64, 61
1, 38619, Control_c, 0, 64, 62
1, 38634, Control_c, 0, 64, 62
1, 38648, Control_c, 0, 64, 63
1, 38663, Control_c, 0, 64, 63
1, 38678, Control_c, 0, 64, 64
1, 38693, Control_c, 0, 64, 65
1, 38707, Control_c, 0, 64, 67
1, 38722, Control_c, 0, 64, 68
1, 38737, Control_c, 0, 64, 70
1, 38752, Control_c, 0, 64, 72
1, 38767, Control_c, 0, 64, 74
1, 38781, Control_c, 0, 64, 75
1, 38796, Control_c, 0, 64, 77
1, 38811, Control_c, 0, 64, 79
1, 38826, Control_c, 0, 64, 81
1, 38841, Control_c, 0, 64, 83
1, 38855, Control_c, 0, 64, 85
1, 38870, Control_c, 0, 64, 85
1, 38885, Control_c, 0, 64, 86
1, 38900, Control_c, 0, 64, 86
1, 38915, Control_c, 0, 64, 87
1, 38929, Control_c, 0, 64, 87
1, 38959, Control_c, 0, 64, 88
1, 39018, Control_c, 0, 64, 88
1, 39040, Note_off_c, 0, 54, 60
1, 39049, Control_c, 0, 64, 89
1, 39064, Control_c, 0, 64, 89
1, 39078, Control_c, 0, 64, 90
1, 39093, Control_c, 0, 64, 90
1, 39108, Control_c, 0, 64, 91
1, 39117, Note_off_c, 0, 59, 36
1, 39149, Note_off_c, 0, 66, 37
1, 39167, Note_off_c, 0, 63, 27
1, 39618, Control_c, 0, 64, 90
1, 39648, Control_c, 0, 64, 90
1, 39693, Control_c, 0, 64, 89
1, 39737, Control_c, 0, 64, 89
1, 39755, Note_off_c, 0, 35, 38
1, 39767, Control_c, 0, 64, 88
1, 39895, Control_c, 0, 64, 88
1, 39910, Note_off_c, 0, 47, 42
1, 39954, Note_off_c, 0, 42, 41
1, 39968, Control_c, 0, 64, 87
1, 39998, Control_c, 0, 64, 87
1, 40250, Control_c, 0, 64, 86
1, 40265, Control_c, 0, 64, 86
1, 40280, Control_c, 0, 64, 85
1, 40295, Control_c, 0, 64, 85
1, 40309, Control_c, 0, 64, 84
1, 40324, Control_c, 0, 64, 84
1, 40339, Control_c, 0, 64, 83
1, 40353, Control_c, 0, 64, 83
1, 40368, Control_c, 0, 64, 82
1, 40383, Control_c, 0, 64, 82
1, 40413, Control_c, 0, 64, 81
1, 40457, Control_c, 0, 64, 81
1, 40471, Control_c, 0, 64, 80
1, 40486, Control_c, 0, 64, 79
1, 40501, Control_c, 0, 64, 78
1, 40516, Control_c, 0, 64, 77
1, 40531, Control_c, 0, 64, 76
1, 40545, Control_c, 0, 64, 74
1, 40560, Control_c, 0, 64, 73
1, 40575, Control_c, 0, 64, 71
1, 40590, Control_c, 0, 64, 68
1, 40605, Control_c, 0, 64, 65
1, 40627, Control_c, 0, 64, 62
1, 40642, Control_c, 0, 64, 58
1, 40658, Control_c, 0, 64, 52
1, 40673, Control_c, 0, 64, 41
1, 40688, Control_c, 0, 64, 25
1, 40703, Control_c, 0, 64, 0
1, 40969, Control_c, 0, 64, 23
1, 40972, Note_on_c, 0, 75, 65
1, 40974, Note_on_c, 0, 87, 64
1, 40974, Note_on_c, 0, 63, 60
1, 40983, Control_c, 0, 64, 41
1, 40990, Note_off_c, 0, 75, 64
1, 40992, Note_off_c, 0, 87, 64
1, 40995, Note_off_c, 0, 63, 62
1, 40998, Control_c, 0, 64, 56
1, 41013, Control_c, 0, 64, 73
1, 41018, Note_on_c, 0, 63, 77
1, 41025, Note_on_c, 0, 75, 94
1, 41025, Note_on_c, 0, 87, 96
1, 41028, Control_c, 0, 64, 127
1, 41057, Note_off_c, 0, 63, 63
1, 41058, Note_off_c, 0, 87, 69
1, 41059, Note_off_c, 0, 75, 57
1, 41548, Note_on_c, 0, 81, 71
1, 41551, Note_on_c, 0, 69, 67
1, 41569, Note_off_c, 0, 69, 70
1, 41571, Note_off_c, 0, 81, 69
1, 41602, Note_on_c, 0, 57, 85
1, 41615, Note_on_c, 0, 81, 94
1, 41620, Note_on_c, 0, 69, 89
1, 41632, Note_off_c, 0, 57, 65
1, 41769, Note_off_c, 0, 69, 61
1, 41801, Note_off_c, 0, 81, 65
1, 42098, Note_on_c, 0, 69, 64
1, 42098, Note_on_c, 0, 93, 82
1, 42100, Note_on_c, 0, 81, 73
1, 42122, Note_off_c, 0, 69, 69
1, 42125, Note_off_c, 0, 93, 70
1, 42129, Note_off_c, 0, 81, 68
1, 42170, Note_on_c, 0, 69, 85
1, 42170, Note_on_c, 0, 81, 94
1, 42171, Note_on_c, 0, 93, 86
1, 42208, Note_off_c, 0, 93, 62
1, 42211, Note_off_c, 0, 69, 63
1, 42214, Note_off_c, 0, 81, 63
1, 42369, Note_on_c, 0, 63, 79
1, 42373, Note_on_c, 0, 87, 68
1, 42375, Note_on_c, 0, 75, 72
1, 42391, Note_off_c, 0, 87, 68
1, 42392, Note_off_c, 0, 63, 72
1, 42393, Note_off_c, 0, 75, 67
1, 42425, Note_on_c, 0, 63, 99
1, 42431, Note_on_c, 0, 75, 109
1, 42432, Note_on_c, 0, 87, 97
1, 42450, Note_off_c, 0, 87, 73
1, 42451, Note_off_c, 0, 63, 66
1, 42468, Note_off_c, 0, 75, 63
1, 42585, Control_c, 0, 64, 82
1, 42600, Control_c, 0, 64, 54
1, 42615, Control_c, 0, 64, 0
1, 42986, Note_on_c, 0, 47, 82
1, 42990, Note_on_c, 0, 63, 79
1, 42992, Note_on_c, 0, 35, 77
1, 42994, Note_on_c, 0, 54, 77
1, 42998, Note_on_c, 0, 57, 62
1, 43012, Note_off_c, 0, 47, 69
1, 43018, Note_off_c, 0, 35, 64
1, 43019, Note_off_c, 0, 57, 60
1, 43020, Note_off_c, 0, 54, 69
1, 43033, Note_off_c, 0, 63, 64
1, 43249, Note_on_c, 0, 54, 91
1, 43249, Note_on_c, 0, 46, 101
1, 43253, Note_on_c, 0, 34, 88
1, 43253, Note_on_c, 0, 63, 78
1, 43253, Note_on_c, 0, 66, 80
1, 43255, Note_on_c, 0, 58, 74
1, 43276, Control_c, 0, 64, 49
1, 43279, Note_off_c, 0, 46, 66
1, 43280, Note_off_c, 0, 34, 66
1, 43285, Note_off_c, 0, 54, 67
1, 43289, Note_off_c, 0, 58, 64
1, 43291, Control_c, 0, 64, 78
1, 43292, Note_off_c, 0, 63, 65
1, 43300, Note_off_c, 0, 66, 63
1, 43305, Control_c, 0, 64, 127
1, 43423, Control_c, 0, 64, 77
1, 43438, Control_c, 0, 64, 58
1, 43452, Control_c, 0, 64, 33
1, 43467, Control_c, 0, 64, 0
1, 44487, Note_on_c, 0, 63, 68
1, 44489, Note_on_c, 0, 87, 69
1, 44495, Note_on_c, 0, 75, 59
1, 44505, Control_c, 0, 64, 17
1, 44507, Note_off_c, 0, 63, 67
1, 44515, Note_off_c, 0, 87, 69
1, 44516, Note_off_c, 0, 75, 60
1, 44519, Control_c, 0, 64, 37
1, 44534, Control_c, 0, 64, 58
1, 44542, Note_on_c, 0, 63, 90
1, 44545, Note_on_c, 0, 75, 94
1, 44546, Note_on_c, 0, 87, 95
1, 44549, Control_c, 0, 64, 91
1, 44564, Control_c, 0, 64, 127
1, 44572, Note_off_c, 0, 63, 64
1, 44575, Note_off_c, 0, 87, 70
1, 44579, Note_off_c, 0, 75, 65
1, 45010, Note_on_c, 0, 58, 69
1, 45014, Note_on_c, 0, 82, 75
1, 45015, Note_on_c, 0, 70, 75
1, 45035, Note_off_c, 0, 82, 70
1, 45037, Note_off_c, 0, 70, 69
1, 45038, Note_off_c, 0, 58, 65
1, 45068, Note_on_c, 0, 58, 94
1, 45076, Note_on_c, 0, 82, 95
1, 45083, Note_on_c, 0, 70, 94
1, 45086, Note_off_c, 0, 58, 72
1, 45216, Note_off_c, 0, 70, 60
1, 45275, Note_off_c, 0, 82, 61
1, 45520, Note_on_c, 0, 94, 81
1, 45522, Note_on_c, 0, 82, 78
1, 45525, Note_on_c, 0, 70, 64
1, 45539, Note_off_c, 0, 94, 73
1, 45542, Note_off_c, 0, 82, 69
1, 45546, Note_off_c, 0, 70, 62
1, 45577, Note_on_c, 0, 82, 97
1, 45579, Note_on_c, 0, 70, 79
1, 45579, Note_on_c, 0, 94, 94
1, 45616, Note_off_c, 0, 94, 68
1, 45627, Note_off_c, 0, 82, 62
1, 45632, Note_off_c, 0, 70, 60
1, 45778, Note_on_c, 0, 75, 79
1, 45779, Note_on_c, 0, 63, 65
1, 45780, Note_on_c, 0, 87, 67
1, 45795, Note_off_c, 0, 75, 69
1, 45798, Note_off_c, 0, 87, 67
1, 45798, Note_off_c, 0, 63, 65
1, 45837, Note_on_c, 0, 75, 96
1, 45838, Note_on_c, 0, 87, 90
1, 45838, Note_on_c, 0, 63, 85
1, 45857, Note_off_c, 0, 63, 72
1, 45871, Note_off_c, 0, 87, 67
1, 45879, Note_off_c, 0, 75, 65
1, 46077, Control_c, 0, 64, 75
1, 46091, Control_c, 0, 64, 60
1, 46106, Control_c, 0, 64, 42
1, 46121, Control_c, 0, 64, 0
1, 46329, Note_on_c, 0, 34, 86
1, 46330, Note_on_c, 0, 46, 90
1, 46330, Note_on_c, 0, 54, 89
1, 46334, Note_on_c, 0, 63, 78
1, 46342, Note_on_c, 0, 58, 67
1, 46351, Note_on_c, 0, 66, 63
1, 46351, Note_off_c, 0, 54, 72
1, 46361, Note_off_c, 0, 46, 64
1, 46363, Note_off_c, 0, 58, 65
1, 46369, Note_off_c, 0, 34, 68
1, 46372, Note_off_c, 0, 66, 65
1, 46374, Note_off_c, 0, 63, 63
1, 46596, Control_c, 0, 64, 31
1, 46602, Note_on_c, 0, 45, 99
1, 46605, Note_on_c, 0, 33, 95
1, 46605, Note_on_c, 0, 60, 96
1, 46605, Note_on_c, 0, 66, 85
1, 46617, Note_on_c, 0, 72, 86
1, 46619, Note_on_c, 0, 63, 81
1, 46619, Control_c, 0, 64, 66
1, 46630, Note_off_c, 0, 60, 73
1, 46634, Control_c, 0, 64, 127
1, 46639, Note_off_c, 0, 33, 70
1, 46641, Note_off_c, 0, 63, 70
1, 46642, Note_off_c, 0, 45, 68
1, 46648, Note_off_c, 0, 66, 67
1, 46658, Note_off_c, 0, 72, 65
1, 46922, Note_on_c, 0, 84, 86
1, 46927, Note_on_c, 0, 96, 83
1, 46933, Note_on_c, 0, 72, 75
1, 46933, Note_on_c, 0, 60, 74
1, 46942, Note_off_c, 0, 84, 72
1, 46945, Note_off_c, 0, 96, 72
1, 46948, Note_off_c, 0, 72, 70
1, 46948, Note_off_c, 0, 60, 71
1, 46988, Note_on_c, 0, 84, 104
1, 46989, Note_on_c, 0, 96, 95
1, 46991, Note_on_c, 0, 72, 92
1, 46999, Note_on_c, 0, 60, 88
1, 47011, Note_off_c, 0, 72, 66
1, 47021, Note_off_c, 0, 60, 69
1, 47023, Note_off_c, 0, 96, 66
1, 47027, Note_off_c, 0, 84, 67
1, 47205, Note_on_c, 0, 87, 77
1, 47206, Note_on_c, 0, 63, 85
1, 47207, Note_on_c, 0, 75, 77
1, 47213, Note_on_c, 0, 51, 68
1, 47224, Note_off_c, 0, 75, 68
1, 47224, Note_off_c, 0, 63, 73
1, 47225, Note_off_c, 0, 87, 71
1, 47234, Note_off_c, 0, 51, 63
1, 47259, Note_on_c, 0, 51, 87
1, 47261, Note_on_c, 0, 63, 101
1, 47270, Note_on_c, 0, 75, 105
1, 47273, Note_on_c, 0, 87, 94
1, 47291, Note_off_c, 0, 63, 66
1, 47295, Note_off_c, 0, 51, 67
1, 47300, Note_off_c, 0, 87, 63
1, 47300, Note_off_c, 0, 75, 66
1, 47649, Control_c, 0, 64, 110
1, 47663, Control_c, 0, 64, 86
1, 47678, Control_c, 0, 64, 73
1, 47693, Control_c, 0, 64, 65
1, 47708, Control_c, 0, 64, 58
1, 47723, Control_c, 0, 64, 37
1, 47737, Control_c, 0, 64, 0
1, 47805, Note_on_c, 0, 60, 97
1, 47810, Note_on_c, 0, 63, 80
1, 47810, Note_on_c, 0, 43, 108
1, 47810, Note_on_c, 0, 67, 81
1, 47811, Note_on_c, 0, 72, 85
1, 47811, Control_c, 0, 64, 40
1, 47814, Note_on_c, 0, 31, 101
1, 47822, Note_off_c, 0, 60, 74
1, 47826, Control_c, 0, 64, 98
1, 47831, Note_off_c, 0, 67, 73
1, 47836, Note_off_c, 0, 63, 67
1, 47842, Note_off_c, 0, 31, 71
1, 47842, Control_c, 0, 64, 127
1, 47848, Note_on_c, 0, 70, 42
1, 47849, Note_off_c, 0, 43, 65
1, 47859, Note_off_c, 0, 72, 66
1, 47878, Note_off_c, 0, 70, 56
1, 48182, Note_on_c, 0, 72, 87
1, 48182, Note_on_c, 0, 84, 79
1, 48183, Note_on_c, 0, 96, 85
1, 48187, Note_on_c, 0, 60, 83
1, 48200, Note_off_c, 0, 72, 72
1, 48200, Note_off_c, 0, 96, 72
1, 48202, Note_off_c, 0, 84, 71
1, 48206, Note_off_c, 0, 60, 75
1, 48245, Note_on_c, 0, 84, 98
1, 48246, Note_on_c, 0, 72, 92
1, 48248, Note_on_c, 0, 60, 84
1, 48248, Note_on_c, 0, 96, 93
1, 48279, Note_off_c, 0, 96, 61
1, 48282, Note_off_c, 0, 72, 63
1, 48285, Note_off_c, 0, 60, 62
1, 48287, Note_off_c, 0, 84, 65
1, 48525, Note_on_c, 0, 75, 89
1, 48525, Note_on_c, 0, 63, 87
1, 48526, Note_on_c, 0, 87, 85
1, 48534, Note_on_c, 0, 51, 72
1, 48543, Note_off_c, 0, 75, 73
1, 48543, Note_off_c, 0, 63, 73
1, 48546, Note_off_c, 0, 87, 72
1, 48554, Note_off_c, 0, 51, 65
1, 48588, Note_on_c, 0, 63, 106
1, 48590, Note_on_c, 0, 51, 98
1, 48591, Note_on_c, 0, 75, 108
1, 48595, Note_on_c, 0, 87, 102
1, 48620, Note_off_c, 0, 63, 68
1, 48629, Note_off_c, 0, 75, 67
1, 48630, Note_off_c, 0, 51, 66
1, 48646, Note_off_c, 0, 87, 67
1, 49339, Control_c, 0, 64, 79
1, 49354, Control_c, 0, 64, 57
1, 49369, Control_c, 0, 64, 27
1, 49383, Control_c, 0, 64, 0
1, 49606, Note_on_c, 0, 42, 106
1, 49613, Note_on_c, 0, 87, 105
1, 49616, Note_on_c, 0, 99, 104
1, 49618, Note_on_c, 0, 30, 94
1, 49619, Note_on_c, 0, 36, 82
1, 49619, Note_on_c, 0, 93, 94
1, 49676, Note_off_c, 0, 87, 65
1, 49681, Note_off_c, 0, 30, 64
1, 49685, Note_off_c, 0, 42, 63
1, 49685, Note_off_c, 0, 93, 66
1, 49685, Note_off_c, 0, 99, 64
1, 49695, Note_off_c, 0, 36, 63
1, 49732, Note_on_c, 0, 42, 94
1, 49732, Note_on_c, 0, 87, 101
1, 49734, Note_on_c, 0, 99, 96
1, 49735, Note_on_c, 0, 93, 100
1, 49736, Note_on_c, 0, 36, 75
1, 49740, Note_on_c, 0, 30, 72
1, 49762, Note_on_c, 0, 29, 71
1, 49809, Note_off_c, 0, 29, 61
1, 49866, Control_c, 0, 64, 54
1, 49881, Control_c, 0, 64, 127
1, 50027, Note_off_c, 0, 99, 63
1, 50050, Note_off_c, 0, 93, 56
1, 50078, Note_off_c, 0, 30, 55
1, 50111, Note_off_c, 0, 87, 60
1, 50157, Note_off_c, 0, 36, 52
1, 50335, Note_off_c, 0, 42, 40
1, 50658, Note_on_c, 0, 48, 93
1, 50660, Note_on_c, 0, 42, 85
1, 50661, Note_on_c, 0, 81, 94
1, 50662, Note_on_c, 0, 87, 92
1, 50665, Note_on_c, 0, 36, 79
1, 50665, Note_on_c, 0, 93, 94
1, 50680, Note_off_c, 0, 48, 72
1, 50681, Note_off_c, 0, 81, 68
1, 50686, Note_off_c, 0, 87, 65
1, 50686, Note_off_c, 0, 93, 68
1, 50686, Note_off_c, 0, 42, 64
1, 50691, Note_off_c, 0, 36, 66
1, 50732, Note_on_c, 0, 48, 98
1, 50736, Note_on_c, 0, 42, 98
1, 50737, Note_on_c, 0, 81, 103
1, 50740, Note_on_c, 0, 36, 90
1, 50740, Note_on_c, 0, 93, 104
1, 50741, Note_on_c, 0, 87, 101
1, 50765, Note_off_c, 0, 48, 65
1, 50766, Note_off_c, 0, 36, 64
1, 50767, Note_off_c, 0, 81, 70
1, 50768, Note_on_c, 0, 92, 52
1, 50773, Note_off_c, 0, 93, 67
1, 50784, Note_off_c, 0, 92, 48
1, 50785, Note_off_c, 0, 42, 62
1, 50788, Note_off_c, 0, 87, 67
1, 51547, Note_on_c, 0, 75, 98
1, 51548, Note_on_c, 0, 54, 84
1, 51553, Note_on_c, 0, 48, 74
1, 51553, Note_on_c, 0, 87, 78
1, 51555, Note_on_c, 0, 81, 78
1, 51567, Note_off_c, 0, 75, 66
1, 51568, Note_off_c, 0, 54, 71
1, 51572, Note_on_c, 0, 44, 40
1, 51573, Note_off_c, 0, 87, 72
1, 51576, Note_off_c, 0, 48, 67
1, 51576, Note_off_c, 0, 81, 71
1, 51606, Note_off_c, 0, 44, 50
1, 51613, Note_on_c, 0, 54, 95
1, 51616, Note_on_c, 0, 75, 97
1, 51619, Note_on_c, 0, 87, 94
1, 51622, Note_on_c, 0, 81, 88
1, 51623, Poly_aftertouch_c, 0, 42, 127
1, 51625, Note_on_c, 0, 48, 84
1, 51643, Note_off_c, 0, 48, 73
1, 51648, Note_off_c, 0, 81, 61
1, 51652, Note_off_c, 0, 87, 69
1, 51656, Note_off_c, 0, 54, 61
1, 51664, Note_off_c, 0, 75, 52
1, 51666, Poly_aftertouch_c, 0, 42, 0
1, 51908, Note_on_c, 0, 54, 76
1, 51908, Note_on_c, 0, 69, 77
1, 51909, Note_on_c, 0, 60, 75
1, 51911, Note_on_c, 0, 75, 78
1, 51916, Note_on_c, 0, 48, 61
1, 51917, Note_on_c, 0, 81, 67
1, 51928, Note_off_c, 0, 69, 74
1, 51932, Note_off_c, 0, 54, 68
1, 51934, Note_off_c, 0, 75, 66
1, 51935, Note_off_c, 0, 81, 67
1, 51937, Note_off_c, 0, 60, 67
1, 51956, Note_off_c, 0, 48, 0
1, 51974, Note_on_c, 0, 48, 66
1, 51976, Note_on_c, 0, 60, 86
1, 51976, Note_on_c, 0, 69, 91
1, 51977, Note_on_c, 0, 54, 90
1, 51979, Note_on_c, 0, 75, 86
1, 51982, Note_on_c, 0, 81, 83
1, 51999, Note_off_c, 0, 60, 63
1, 52001, Note_off_c, 0, 81, 72
1, 52004, Note_off_c, 0, 48, 66
1, 52004, Note_off_c, 0, 54, 67
1, 52017, Note_off_c, 0, 69, 68
1, 52021, Note_off_c, 0, 75, 61
1, 52162, Note_on_c, 0, 66, 87
1, 52166, Note_on_c, 0, 60, 73
1, 52180, Note_on_c, 0, 63, 57
1, 52183, Note_on_c, 0, 75, 45
1, 52184, Note_off_c, 0, 66, 68
1, 52191, Note_on_c, 0, 69, 44
1, 52193, Note_on_c, 0, 54, 28
1, 52195, Note_off_c, 0, 60, 67
1, 52201, Note_off_c, 0, 63, 62
1, 52209, Note_off_c, 0, 69, 65
1, 52224, Note_off_c, 0, 75, 0
1, 52226, Note_off_c, 0, 54, 0
1, 52226, Note_on_c, 0, 54, 38
1, 52232, Note_on_c, 0, 63, 71
1, 52233, Note_on_c, 0, 75, 68
1, 52235, Note_on_c, 0, 60, 86
1, 52235, Note_on_c, 0, 66, 97
1, 52244, Poly_aftertouch_c, 0, 70, 0
1, 52245, Note_on_c, 0, 69, 70
1, 52252, Note_off_c, 0, 60, 71
1, 52263, Note_off_c, 0, 63, 65
1, 52266, Note_off_c, 0, 69, 72
1, 52280, Note_off_c, 0, 75, 63
1, 52281, Note_off_c, 0, 66, 64
1, 52287, Note_off_c, 0, 54, 63
1, 52297, Poly_aftertouch_c, 0, 70, 0
1, 52420, Note_on_c, 0, 57, 72
1, 52423, Note_on_c, 0, 54, 63
1, 52424, Note_on_c, 0, 60, 80
1, 52430, Note_on_c, 0, 66, 69
1, 52437, Note_on_c, 0, 48, 53
1, 52440, Note_off_c, 0, 54, 68
1, 52441, Note_on_c, 0, 69, 46
1, 52444, Note_off_c, 0, 57, 69
1, 52444, Note_off_c, 0, 60, 70
1, 52451, Note_off_c, 0, 66, 62
1, 52458, Note_off_c, 0, 69, 66
1, 52466, Note_off_c, 0, 48, 0
1, 52486, Note_on_c, 0, 48, 64
1, 52488, Note_on_c, 0, 57, 79
1, 52490, Note_on_c, 0, 60, 89
1, 52494, Note_on_c, 0, 54, 83
1, 52498, Note_on_c, 0, 66, 83
1, 52515, Note_off_c, 0, 57, 66
1, 52516, Note_on_c, 0, 69, 62
1, 52517, Note_off_c, 0, 54, 64
1, 52528, Note_on_c, 0, 71, 22
1, 52531, Note_off_c, 0, 60, 64
1, 52532, Note_off_c, 0, 48, 67
1, 52532, Note_off_c, 0, 69, 68
1, 52544, Note_off_c, 0, 66, 63
1, 52570, Note_off_c, 0, 71, 54
1, 52696, Note_on_c, 0, 45, 70
1, 52698, Note_on_c, 0, 54, 88
1, 52699, Note_on_c, 0, 51, 73
1, 52709, Note_on_c, 0, 57, 68
1, 52720, Note_off_c, 0, 54, 70
1, 52725, Note_off_c, 0, 45, 65
1, 52728, Note_off_c, 0, 51, 65
1, 52731, Note_off_c, 0, 57, 69
1, 52756, Note_on_c, 0, 42, 22
1, 52759, Note_on_c, 0, 51, 88
1, 52761, Note_on_c, 0, 63, 52
1, 52766, Note_on_c, 0, 54, 93
1, 52774, Note_on_c, 0, 45, 77
1, 52779, Note_on_c, 0, 57, 77
1, 52801, Note_off_c, 0, 45, 66
1, 52803, Note_off_c, 0, 51, 63
1, 52808, Note_off_c, 0, 57, 67
1, 52821, Note_off_c, 0, 63, 64
1, 52823, Note_off_c, 0, 54, 63
1, 52824, Note_off_c, 0, 42, 62
1, 53027, Note_on_c, 0, 45, 66
1, 53027, Note_on_c, 0, 48, 83
1, 53034, Note_on_c, 0, 42, 60
1, 53035, Note_on_c, 0, 36, 58
1, 53038, Note_on_c, 0, 57, 59
1, 53047, Note_on_c, 0, 54, 46
1, 53050, Note_off_c, 0, 48, 71
1, 53051, Note_off_c, 0, 45, 70
1, 53054, Note_off_c, 0, 57, 69
1, 53055, Note_off_c, 0, 42, 61
1, 53060, Note_off_c, 0, 36, 59
1, 53065, Note_off_c, 0, 54, 65
1, 53068, Control_c, 0, 64, 67
1, 53082, Control_c, 0, 64, 30
1, 53095, Note_on_c, 0, 45, 94
1, 53095, Note_on_c, 0, 48, 103
1, 53097, Note_on_c, 0, 57, 93
1, 53097, Control_c, 0, 64, 15
1, 53107, Note_on_c, 0, 36, 79
1, 53108, Note_on_c, 0, 42, 82
1, 53112, Control_c, 0, 64, 45
1, 53125, Note_on_c, 0, 54, 70
1, 53127, Control_c, 0, 64, 79
1, 53136, Note_off_c, 0, 57, 65
1, 53140, Note_off_c, 0, 48, 68
1, 53142, Control_c, 0, 64, 127
1, 53153, Note_off_c, 0, 54, 68
1, 53684, Note_off_c, 0, 45, 59
1, 53689, Note_off_c, 0, 36, 61
1, 53697, Note_off_c, 0, 42, 61
1, 53740, Note_on_c, 0, 47, 103
1, 53748, Note_on_c, 0, 57, 93
1, 53754, Note_on_c, 0, 45, 94
1, 53757, Note_on_c, 0, 54, 81
1, 53758, Control_c, 0, 64, 91
1, 53761, Note_on_c, 0, 35, 81
1, 53761, Note_on_c, 0, 42, 77
1, 53773, Control_c, 0, 64, 46
1, 53787, Control_c, 0, 64, 0
1, 53950, Control_c, 0, 64, 19
1, 53965, Control_c, 0, 64, 36
1, 53979, Control_c, 0, 64, 52
1, 53994, Control_c, 0, 64, 64
1, 54009, Control_c, 0, 64, 76
1, 54023, Control_c, 0, 64, 94
1, 54038, Control_c, 0, 64, 127
1, 54223, Note_off_c, 0, 57, 35
1, 54233, Note_off_c, 0, 47, 39
1, 54328, Note_off_c, 0, 45, 35
1, 54487, Note_off_c, 0, 54, 29
1, 54612, Note_off_c, 0, 35, 39
1, 54750, Note_off_c, 0, 42, 40
1, 54787, Note_on_c, 0, 57, 93
1, 54792, Note_on_c, 0, 46, 89
1, 54800, Note_on_c, 0, 50, 76
1, 54800, Note_on_c, 0, 45, 84
1, 54803, Note_on_c, 0, 34, 74
1, 54803, Note_on_c, 0, 42, 65
1, 54832, Control_c, 0, 64, 71
1, 54854, Control_c, 0, 64, 45
1, 54868, Control_c, 0, 64, 0
1, 55077, Control_c, 0, 64, 19
1, 55092, Control_c, 0, 64, 29
1, 55107, Control_c, 0, 64, 37
1, 55122, Control_c, 0, 64, 46
1, 55137, Control_c, 0, 64, 56
1, 55151, Control_c, 0, 64, 62
1, 55166, Control_c, 0, 64, 67
1, 55181, Control_c, 0, 64, 70
1, 55196, Control_c, 0, 64, 74
1, 55211, Control_c, 0, 64, 79
1, 55225, Control_c, 0, 64, 87
1, 55240, Control_c, 0, 64, 95
1, 55255, Control_c, 0, 64, 108
1, 55270, Control_c, 0, 64, 127
1, 55287, Note_off_c, 0, 57, 58
1, 55369, Note_off_c, 0, 42, 48
1, 55385, Note_off_c, 0, 34, 57
1, 55394, Note_off_c, 0, 50, 34
1, 55399, Note_off_c, 0, 46, 41
1, 55463, Note_on_c, 0, 54, 81
1, 55487, Note_on_c, 0, 46, 71
1, 55493, Note_on_c, 0, 42, 64
1, 55494, Note_on_c, 0, 50, 65
1, 55500, Note_on_c, 0, 38, 54
1, 55501, Note_on_c, 0, 34, 55
1, 55506, Control_c, 0, 64, 80
1, 55521, Control_c, 0, 64, 62
1, 55536, Control_c, 0, 64, 46
1, 55551, Control_c, 0, 64, 9
1, 55562, Note_off_c, 0, 45, 52
1, 55566, Control_c, 0, 64, 0
1, 56602, Note_on_c, 0, 55, 66
1, 56612, Note_on_c, 0, 43, 52
1, 56683, Note_off_c, 0, 54, 58
1, 56809, Note_off_c, 0, 42, 51
1, 57397, Control_c, 0, 64, 9
1, 57412, Control_c, 0, 64, 21
1, 57428, Control_c, 0, 64, 30
1, 57443, Control_c, 0, 64, 37
1, 57458, Control_c, 0, 64, 44
1, 57472, Control_c, 0, 64, 52
1, 57487, Control_c, 0, 64, 59
1, 57502, Control_c, 0, 64, 64
1, 57517, Control_c, 0, 64, 67
1, 57532, Control_c, 0, 64, 69
1, 57546, Control_c, 0, 64, 70
1, 57561, Control_c, 0, 64, 72
1, 57576, Control_c, 0, 64, 74
1, 57591, Control_c, 0, 64, 76
1, 57605, Control_c, 0, 64, 78
1, 57620, Control_c, 0, 64, 81
1, 57635, Control_c, 0, 64, 81
1, 57638, Note_off_c, 0, 38, 38
1, 57639, Note_off_c, 0, 50, 37
1, 57656, Note_off_c, 0, 34, 38
1, 57657, Note_off_c, 0, 43, 40
1, 57660, Note_off_c, 0, 55, 33
1, 57679, Note_off_c, 0, 46, 35
1, 57694, Control_c, 0, 64, 82
1, 58071, Control_c, 0, 64, 81
1, 58101, Control_c, 0, 64, 81
1, 58131, Control_c, 0, 64, 80
1, 58175, Control_c, 0, 64, 80
1, 58190, Control_c, 0, 64, 79
1, 58220, Control_c, 0, 64, 79
1, 58250, Control_c, 0, 64, 78
1, 58265, Control_c, 0, 64, 78
1, 58280, Control_c, 0, 64, 77
1, 58295, Control_c, 0, 64, 77
1, 58309, Control_c, 0, 64, 76
1, 58324, Control_c, 0, 64, 75
1, 58339, Control_c, 0, 64, 74
1, 58354, Control_c, 0, 64, 73
1, 58368, Control_c, 0, 64, 72
1, 58383, Control_c, 0, 64, 71
1, 58398, Control_c, 0, 64, 70
1, 58413, Control_c, 0, 64, 69
1, 58428, Control_c, 0, 64, 69
1, 58443, Control_c, 0, 64, 68
1, 58457, Control_c, 0, 64, 67
1, 58472, Control_c, 0, 64, 67
1, 58487, Control_c, 0, 64, 66
1, 58502, Control_c, 0, 64, 65
1, 58517, Control_c, 0, 64, 64
1, 58532, Control_c, 0, 64, 64
1, 58547, Control_c, 0, 64, 63
1, 58562, Control_c, 0, 64, 63
1, 58576, Control_c, 0, 64, 62
1, 58598, Control_c, 0, 64, 61
1, 58613, Control_c, 0, 64, 60
1, 58627, Control_c, 0, 64, 58
1, 58642, Control_c, 0, 64, 57
1, 58657, Control_c, 0, 64, 56
1, 58672, Control_c, 0, 64, 54
1, 58687, Control_c, 0, 64, 53
1, 58702, Control_c, 0, 64, 52
1, 58717, Control_c, 0, 64, 52
1, 58747, Control_c, 0, 64, 51
1, 58761, Control_c, 0, 64, 50
1, 58776, Control_c, 0, 64, 48
1, 58791, Control_c, 0, 64, 46
1, 58806, Control_c, 0, 64, 45
1, 58820, Control_c, 0, 64, 44
1, 58835, Control_c, 0, 64, 44
1, 58850, Control_c, 0, 64, 43
1, 58865, Control_c, 0, 64, 41
1, 58880, Control_c, 0, 64, 38
1, 58894, Control_c, 0, 64, 34
1, 58909, Control_c, 0, 64, 31
1, 58924, Control_c, 0, 64, 28
1, 58939, Control_c, 0, 64, 25
1, 58953, Control_c, 0, 64, 22
1, 58968, Control_c, 0, 64, 20
1, 58983, Control_c, 0, 64, 18
1, 58998, Control_c, 0, 64, 16
1, 59013, Control_c, 0, 64, 14
1, 59029, Control_c, 0, 64, 12
1, 59043, Control_c, 0, 64, 11
1, 59058, Control_c, 0, 64, 9
1, 59073, Control_c, 0, 64, 0
1, 59391, Control_c, 0, 67, 9
1, 59406, Control_c, 0, 67, 15
1, 59421, Control_c, 0, 67, 22
1, 59436, Control_c, 0, 67, 35
1, 59450, Control_c, 0, 67, 53
1, 59465, Control_c, 0, 67, 75
1, 59480, Control_c, 0, 67, 103
1, 59495, Control_c, 0, 67, 127
1, 59747, Control_c, 0, 64, 10
1, 59762, Control_c, 0, 64, 18
1, 59776, Control_c, 0, 64, 25
1, 59791, Control_c, 0, 64, 31
1, 59806, Control_c, 0, 64, 36
1, 59822, Control_c, 0, 64, 41
1, 59837, Control_c, 0, 64, 47
1, 59852, Control_c, 0, 64, 53
1, 59866, Control_c, 0, 64, 59
1, 59881, Control_c, 0, 64, 62
1, 59897, Control_c, 0, 64, 64
1, 59912, Control_c, 0, 64, 67
1, 59927, Control_c, 0, 64, 68
1, 59941, Control_c, 0, 64, 70
1, 59956, Control_c, 0, 64, 72
1, 59971, Control_c, 0, 64, 76
1, 59986, Control_c, 0, 64, 80
1, 60000, Control_c, 0, 64, 83
1, 60015, Control_c, 0, 64, 84
1, 60030, Control_c, 0, 64, 85
1, 60045, Control_c, 0, 64, 85
1, 60060, Control_c, 0, 64, 86
1, 60074, Control_c, 0, 64, 87
1, 60097, Control_c, 0, 64, 88
1, 60112, Control_c, 0, 64, 88
1, 60350, Note_on_c, 0, 33, 23
1, 60534, Note_on_c, 0, 45, 24
1, 60597, Note_off_c, 0, 45, 43
1, 60616, Control_c, 0, 64, 88
1, 60619, Note_on_c, 0, 34, 46
1, 60657, Note_off_c, 0, 33, 35
1, 60675, Control_c, 0, 64, 87
1, 60690, Control_c, 0, 64, 87
1, 60707, Note_on_c, 0, 46, 48
1, 60720, Control_c, 0, 64, 86
1, 60748, Note_off_c, 0, 34, 0
1, 60750, Control_c, 0, 64, 86
1, 60755, Note_off_c, 0, 46, 59
1, 60764, Control_c, 0, 64, 85
1, 60779, Control_c, 0, 64, 85
1, 60788, Note_on_c, 0, 37, 53
1, 60794, Control_c, 0, 64, 84
1, 60802, Poly_aftertouch_c, 0, 34, 0
1, 60809, Control_c, 0, 64, 83
1, 60823, Control_c, 0, 64, 83
1, 60845, Control_c, 0, 64, 82
1, 60851, Note_on_c, 0, 49, 42
1, 60860, Control_c, 0, 64, 81
1, 60875, Control_c, 0, 64, 80
1, 60883, Note_off_c, 0, 49, 54
1, 60887, Note_off_c, 0, 37, 57
1, 60890, Control_c, 0, 64, 79
1, 60905, Control_c, 0, 64, 78
1, 60920, Control_c, 0, 64, 77
1, 60923, Note_on_c, 0, 40, 61
1, 60935, Control_c, 0, 64, 77
1, 60949, Control_c, 0, 64, 75
1, 60964, Control_c, 0, 64, 74
1, 60979, Control_c, 0, 64, 72
1, 60989, Note_on_c, 0, 52, 58
1, 60989, Note_off_c, 0, 40, 61
1, 60994, Control_c, 0, 64, 71
1, 61009, Control_c, 0, 64, 70
1, 61021, Note_off_c, 0, 52, 67
1, 61023, Control_c, 0, 64, 69
1, 61038, Control_c, 0, 64, 68
1, 61053, Control_c, 0, 64, 67
1, 61054, Note_on_c, 0, 41, 64
1, 61068, Control_c, 0, 64, 66
1, 61083, Control_c, 0, 64, 64
1, 61097, Control_c, 0, 64, 63
1, 61107, Note_off_c, 0, 41, 62
1, 61108, Note_on_c, 0, 53, 62
1, 61112, Control_c, 0, 64, 61
1, 61127, Control_c, 0, 64, 59
1, 61141, Control_c, 0, 64, 58
1, 61143, Note_off_c, 0, 53, 65
1, 61156, Control_c, 0, 64, 56
1, 61171, Control_c, 0, 64, 54
1, 61181, Note_on_c, 0, 43, 62
1, 61186, Control_c, 0, 64, 53
1, 61201, Control_c, 0, 64, 51
1, 61216, Control_c, 0, 64, 50
1, 61230, Note_on_c, 0, 55, 55
1, 61230, Control_c, 0, 64, 49
1, 61236, Note_off_c, 0, 43, 59
1, 61245, Control_c, 0, 64, 47
1, 61260, Control_c, 0, 64, 46
1, 61271, Note_off_c, 0, 55, 64
1, 61275, Control_c, 0, 64, 44
1, 61289, Control_c, 0, 64, 43
1, 61304, Control_c, 0, 64, 41
1, 61305, Note_on_c, 0, 45, 63
1, 61319, Control_c, 0, 64, 39
1, 61334, Control_c, 0, 64, 37
1, 61349, Control_c, 0, 64, 35
1, 61361, Note_on_c, 0, 57, 54
1, 61361, Note_off_c, 0, 45, 60
1, 61364, Control_c, 0, 64, 32
1, 61379, Control_c, 0, 64, 29
1, 61394, Control_c, 0, 64, 26
1, 61406, Note_off_c, 0, 57, 59
1, 61409, Control_c, 0, 64, 24
1, 61424, Control_c, 0, 64, 23
1, 61438, Control_c, 0, 64, 20
1, 61451, Note_on_c, 0, 46, 60
1, 61453, Control_c, 0, 64, 18
1, 61468, Control_c, 0, 64, 16
1, 61483, Control_c, 0, 64, 15
1, 61498, Control_c, 0, 64, 14
1, 61510, Note_off_c, 0, 46, 55
1, 61513, Control_c, 0, 64, 12
1, 61528, Control_c, 0, 64, 10
1, 61530, Note_on_c, 0, 58, 52
1, 61543, Control_c, 0, 64, 8
1, 61558, Control_c, 0, 64, 0
1, 61582, Note_off_c, 0, 58, 55
1, 61710, Note_on_c, 0, 37, 26
1, 61780, Note_on_c, 0, 49, 35
1, 62077, Note_off_c, 0, 37, 38
1, 62139, Note_off_c, 0, 49, 34
1, 63039, Control_c, 0, 64, 9
1, 63054, Control_c, 0, 64, 18
1, 63069, Control_c, 0, 64, 26
1, 63091, Control_c, 0, 64, 31
1, 63106, Control_c, 0, 64, 36
1, 63121, Control_c, 0, 64, 41
1, 63136, Control_c, 0, 64, 47
1, 63151, Control_c, 0, 64, 53
1, 63165, Control_c, 0, 64, 59
1, 63180, Control_c, 0, 64, 62
1, 63195, Control_c, 0, 64, 64
1, 63210, Control_c, 0, 64, 65
1, 63224, Control_c, 0, 64, 67
1, 63239, Control_c, 0, 64, 69
1, 63254, Control_c, 0, 64, 71
1, 63269, Control_c, 0, 64, 74
1, 63284, Control_c, 0, 64, 77
1, 63298, Control_c, 0, 64, 79
1, 63313, Control_c, 0, 64, 81
1, 63328, Control_c, 0, 64, 83
1, 63343, Control_c, 0, 64, 84
1, 63358, Control_c, 0, 64, 85
1, 63388, Control_c, 0, 64, 85
1, 63604, Note_on_c, 0, 53, 24
1, 63747, Note_on_c, 0, 65, 42
1, 63845, Note_off_c, 0, 65, 51
1, 63846, Note_off_c, 0, 53, 40
1, 63881, Note_on_c, 0, 52, 40
1, 63961, Note_on_c, 0, 64, 48
1, 63989, Control_c, 0, 64, 85
1, 64012, Note_off_c, 0, 64, 57
1, 64027, Note_on_c, 0, 50, 42
1, 64028, Note_off_c, 0, 52, 34
1, 64034, Control_c, 0, 64, 84
1, 64058, Note_off_c, 0, 50, 49
1, 64063, Control_c, 0, 64, 84
1, 64078, Control_c, 0, 64, 83
1, 64093, Control_c, 0, 64, 83
1, 64106, Note_on_c, 0, 62, 52
1, 64108, Control_c, 0, 64, 82
1, 64122, Control_c, 0, 64, 81
1, 64130, Note_off_c, 0, 62, 60
1, 64137, Control_c, 0, 64, 80
1, 64152, Control_c, 0, 64, 80
1, 64154, Note_on_c, 0, 47, 58
1, 64166, Control_c, 0, 64, 79
1, 64181, Control_c, 0, 64, 79
1, 64196, Control_c, 0, 64, 78
1, 64204, Note_off_c, 0, 47, 57
1, 64211, Control_c, 0, 64, 77
1, 64226, Control_c, 0, 64, 76
1, 64228, Note_on_c, 0, 59, 54
1, 64240, Control_c, 0, 64, 75
1, 64252, Note_off_c, 0, 59, 59
1, 64255, Control_c, 0, 64, 75
1, 64270, Control_c, 0, 64, 74
1, 64283, Note_on_c, 0, 44, 64
1, 64285, Control_c, 0, 64, 73
1, 64300, Control_c, 0, 64, 73
1, 64315, Control_c, 0, 64, 72
1, 64330, Control_c, 0, 64, 71
1, 64345, Control_c, 0, 64, 70
1, 64348, Note_on_c, 0, 56, 56
1, 64348, Note_off_c, 0, 44, 56
1, 64359, Control_c, 0, 64, 69
1, 64374, Control_c, 0, 64, 68
1, 64384, Note_off_c, 0, 56, 64
1, 64387, Control_c, 0, 64, 67
1, 64402, Control_c, 0, 64, 65
1, 64406, Note_on_c, 0, 41, 61
1, 64417, Control_c, 0, 64, 64
1, 64431, Control_c, 0, 64, 63
1, 64436, Note_off_c, 0, 41, 65
1, 64446, Control_c, 0, 64, 61
1, 64461, Control_c, 0, 64, 59
1, 64470, Note_on_c, 0, 53, 63
1, 64476, Control_c, 0, 64, 56
1, 64491, Control_c, 0, 64, 53
1, 64505, Note_off_c, 0, 53, 65
1, 64506, Control_c, 0, 64, 50
1, 64521, Control_c, 0, 64, 47
1, 64525, Note_on_c, 0, 40, 70
1, 64535, Control_c, 0, 64, 45
1, 64550, Control_c, 0, 64, 42
1, 64565, Control_c, 0, 64, 40
1, 64576, Note_off_c, 0, 40, 62
1, 64587, Control_c, 0, 64, 37
1, 64602, Control_c, 0, 64, 33
1, 64618, Control_c, 0, 64, 28
1, 64624, Note_on_c, 0, 52, 51
1, 64633, Control_c, 0, 64, 22
1, 64648, Control_c, 0, 64, 15
1, 64649, Note_off_c, 0, 52, 61
1, 64662, Control_c, 0, 64, 0
1, 64673, Note_on_c, 0, 38, 56
1, 64732, Note_off_c, 0, 38, 57
1, 64747, Note_on_c, 0, 50, 54
1, 64779, Note_off_c, 0, 50, 59
1, 64884, Note_on_c, 0, 32, 35
1, 64990, Note_on_c, 0, 44, 38
1, 65102, Note_off_c, 0, 32, 38
1, 65165, Note_off_c, 0, 44, 30
1, 65826, Control_c, 0, 64, 8
1, 65841, Control_c, 0, 64, 14
1, 65856, Control_c, 0, 64, 20
1, 65871, Control_c, 0, 64, 24
1, 65885, Control_c, 0, 64, 28
1, 65900, Control_c, 0, 64, 32
1, 65915, Control_c, 0, 64, 36
1, 65929, Control_c, 0, 64, 41
1, 65944, Control_c, 0, 64, 46
1, 65959, Control_c, 0, 64, 52
1, 65974, Control_c, 0, 64, 57
1, 65989, Control_c, 0, 64, 60
1, 66003, Control_c, 0, 64, 62
1, 66018, Control_c, 0, 64, 64
1, 66033, Control_c, 0, 64, 65
1, 66048, Control_c, 0, 64, 66
1, 66063, Control_c, 0, 64, 68
1, 66085, Control_c, 0, 64, 70
1, 66100, Control_c, 0, 64, 73
1, 66115, Control_c, 0, 64, 75
1, 66130, Control_c, 0, 64, 77
1, 66144, Control_c, 0, 64, 79
1, 66159, Control_c, 0, 64, 80
1, 66174, Control_c, 0, 64, 81
1, 66189, Control_c, 0, 64, 83
1, 66204, Control_c, 0, 64, 85
1, 66220, Control_c, 0, 64, 85
1, 66264, Control_c, 0, 64, 86
1, 66569, Note_on_c, 0, 45, 26
1, 66572, Note_on_c, 0, 33, 25
1, 66648, Note_off_c, 0, 33, 41
1, 66654, Note_off_c, 0, 45, 39
1, 66679, Control_c, 0, 64, 85
1, 66738, Control_c, 0, 64, 85
1, 66798, Control_c, 0, 64, 84
1, 66801, Note_on_c, 0, 45, 34
1, 66804, Note_on_c, 0, 33, 29
1, 66879, Control_c, 0, 64, 84
1, 67055, Note_on_c, 0, 53, 18
1, 67057, Control_c, 0, 64, 83
1, 67068, Note_on_c, 0, 50, 17
1, 67084, Note_off_c, 0, 45, 39
1, 67122, Note_off_c, 0, 50, 45
1, 67156, Note_off_c, 0, 53, 34
1, 67201, Note_off_c, 0, 33, 37
1, 67227, Note_on_c, 0, 53, 16
1, 67239, Note_on_c, 0, 50, 30
1, 67325, Control_c, 0, 64, 83
1, 67406, Note_on_c, 0, 34, 38
1, 67411, Note_on_c, 0, 46, 35
1, 67428, Control_c, 0, 64, 82
1, 67435, Note_off_c, 0, 50, 32
1, 67443, Control_c, 0, 64, 82
1, 67460, Note_off_c, 0, 34, 51
1, 67466, Note_off_c, 0, 46, 45
1, 67472, Control_c, 0, 64, 81
1, 67477, Note_off_c, 0, 53, 38
1, 67531, Control_c, 0, 64, 81
1, 67558, Note_on_c, 0, 46, 42
1, 67564, Note_on_c, 0, 34, 36
1, 67583, Control_c, 0, 64, 80
1, 67688, Note_on_c, 0, 53, 39
1, 67695, Note_on_c, 0, 50, 33
1, 67702, Control_c, 0, 64, 80
1, 67731, Control_c, 0, 64, 79
1, 67734, Note_off_c, 0, 46, 36
1, 67735, Note_off_c, 0, 50, 46
1, 67744, Note_off_c, 0, 34, 31
1, 67764, Note_off_c, 0, 53, 0
1, 67782, Note_on_c, 0, 53, 26
1, 67791, Control_c, 0, 64, 79
1, 67797, Note_on_c, 0, 50, 35
1, 67836, Control_c, 0, 64, 78
1, 67866, Control_c, 0, 64, 78
1, 67880, Control_c, 0, 64, 77
1, 67891, Note_on_c, 0, 33, 47
1, 67895, Control_c, 0, 64, 76
1, 67900, Note_on_c, 0, 45, 37
1, 67909, Note_off_c, 0, 50, 34
1, 67910, Control_c, 0, 64, 74
1, 67925, Control_c, 0, 64, 70
1, 67927, Note_off_c, 0, 33, 51
1, 67940, Control_c, 0, 64, 65
1, 67940, Note_off_c, 0, 53, 44
1, 67955, Control_c, 0, 64, 60
1, 67964, Note_off_c, 0, 45, 0
1, 67969, Control_c, 0, 64, 55
1, 67978, Note_on_c, 0, 45, 46
1, 67984, Note_on_c, 0, 33, 48
1, 67984, Control_c, 0, 64, 52
1, 68014, Control_c, 0, 64, 53
1, 68029, Control_c, 0, 64, 55
1, 68044, Control_c, 0, 64, 56
1, 68056, Note_off_c, 0, 33, 55
1, 68059, Control_c, 0, 64, 57
1, 68060, Note_on_c, 0, 53, 47
1, 68061, Note_off_c, 0, 45, 55
1, 68065, Note_on_c, 0, 50, 46
1, 68074, Control_c, 0, 64, 59
1, 68088, Control_c, 0, 64, 60
1, 68098, Note_off_c, 0, 50, 52
1, 68103, Control_c, 0, 64, 62
1, 68113, Note_off_c, 0, 53, 41
1, 68118, Control_c, 0, 64, 63
1, 68131, Control_c, 0, 64, 64
1, 68146, Control_c, 0, 64, 65
1, 68152, Note_on_c, 0, 53, 39
1, 68166, Note_on_c, 0, 50, 37
1, 68191, Control_c, 0, 64, 66
1, 68206, Note_on_c, 0, 32, 50
1, 68211, Note_on_c, 0, 44, 45
1, 68223, Note_off_c, 0, 50, 43
1, 68236, Note_off_c, 0, 32, 56
1, 68241, Note_off_c, 0, 44, 52
1, 68250, Control_c, 0, 64, 65
1, 68256, Note_off_c, 0, 53, 37
1, 68265, Control_c, 0, 64, 64
1, 68279, Control_c, 0, 64, 61
1, 68288, Note_on_c, 0, 44, 57
1, 68294, Note_on_c, 0, 32, 61
1, 68294, Control_c, 0, 64, 56
1, 68309, Control_c, 0, 64, 50
1, 68331, Control_c, 0, 64, 48
1, 68346, Control_c, 0, 64, 48
1, 68361, Control_c, 0, 64, 50
1, 68363, Note_off_c, 0, 32, 57
1, 68364, Note_off_c, 0, 44, 52
1, 68376, Control_c, 0, 64, 51
1, 68379, Note_on_c, 0, 53, 50
1, 68391, Control_c, 0, 64, 53
1, 68402, Note_off_c, 0, 53, 60
1, 68406, Note_on_c, 0, 50, 14
1, 68406, Control_c, 0, 64, 54
1, 68420, Control_c, 0, 64, 56
1, 68435, Control_c, 0, 64, 58
1, 68450, Control_c, 0, 64, 60
1, 68464, Note_on_c, 0, 53, 58
1, 68465, Control_c, 0, 64, 62
1, 68469, Note_off_c, 0, 50, 0
1, 68469, Note_on_c, 0, 50, 14
1, 68479, Control_c, 0, 64, 63
1, 68494, Control_c, 0, 64, 63
1, 68509, Control_c, 0, 64, 63
1, 68524, Control_c, 0, 64, 62
1, 68531, Note_on_c, 0, 31, 60
1, 68533, Note_on_c, 0, 43, 54
1, 68539, Note_off_c, 0, 53, 56
1, 68539, Control_c, 0, 64, 60
1, 68554, Control_c, 0, 64, 56
1, 68560, Note_off_c, 0, 31, 58
1, 68562, Note_off_c, 0, 43, 54
1, 68569, Control_c, 0, 64, 50
1, 68574, Note_off_c, 0, 50, 35
1, 68584, Control_c, 0, 64, 43
1, 68598, Control_c, 0, 64, 38
1, 68614, Control_c, 0, 64, 37
1, 68617, Note_on_c, 0, 43, 58
1, 68619, Note_on_c, 0, 31, 58
1, 68643, Control_c, 0, 64, 38
1, 68658, Control_c, 0, 64, 39
1, 68670, Note_off_c, 0, 31, 62
1, 68673, Control_c, 0, 64, 40
1, 68688, Note_on_c, 0, 50, 55
1, 68688, Control_c, 0, 64, 41
1, 68690, Note_on_c, 0, 52, 61
1, 68691, Note_off_c, 0, 43, 50
1, 68703, Control_c, 0, 64, 43
1, 68713, Note_off_c, 0, 50, 57
1, 68716, Note_off_c, 0, 52, 59
1, 68718, Control_c, 0, 64, 45
1, 68733, Control_c, 0, 64, 46
1, 68748, Control_c, 0, 64, 49
1, 68762, Control_c, 0, 64, 51
1, 68769, Note_on_c, 0, 52, 57
1, 68774, Note_on_c, 0, 50, 52
1, 68777, Control_c, 0, 64, 53
1, 68792, Control_c, 0, 64, 55
1, 68807, Control_c, 0, 64, 55
1, 68820, Note_off_c, 0, 50, 56
1, 68822, Control_c, 0, 64, 55
1, 68825, Note_on_c, 0, 30, 59
1, 68825, Note_on_c, 0, 42, 58
1, 68825, Note_off_c, 0, 52, 61
1, 68836, Control_c, 0, 64, 53
1, 68850, Note_off_c, 0, 42, 57
1, 68851, Control_c, 0, 64, 50
1, 68857, Note_off_c, 0, 30, 52
1, 68866, Control_c, 0, 64, 45
1, 68881, Control_c, 0, 64, 40
1, 68896, Control_c, 0, 64, 34
1, 68907, Note_on_c, 0, 30, 69
1, 68907, Note_on_c, 0, 42, 67
1, 68910, Control_c, 0, 64, 32
1, 68967, Note_off_c, 0, 42, 58
1, 68968, Note_off_c, 0, 30, 60
1, 68990, Note_on_c, 0, 52, 47
1, 68998, Note_on_c, 0, 50, 35
1, 69020, Note_off_c, 0, 50, 0
1, 69037, Note_off_c, 0, 52, 0
1, 69052, Note_on_c, 0, 52, 49
1, 69055, Note_on_c, 0, 50, 39
1, 69123, Note_off_c, 0, 50, 57
1, 69125, Control_c, 0, 64, 33
1, 69126, Note_off_c, 0, 52, 60
1, 69129, Note_on_c, 0, 29, 65
1, 69129, Note_on_c, 0, 41, 65
1, 69140, Control_c, 0, 64, 34
1, 69153, Note_off_c, 0, 41, 64
1, 69154, Control_c, 0, 64, 35
1, 69162, Note_off_c, 0, 29, 61
1, 69169, Control_c, 0, 64, 36
1, 69184, Control_c, 0, 64, 37
1, 69201, Note_on_c, 0, 29, 57
1, 69203, Note_on_c, 0, 41, 67
1, 69245, Note_off_c, 0, 41, 58
1, 69256, Note_off_c, 0, 29, 61
1, 69258, Control_c, 0, 64, 36
1, 69273, Control_c, 0, 64, 35
1, 69276, Note_on_c, 0, 50, 55
1, 69276, Note_on_c, 0, 52, 55
1, 69287, Control_c, 0, 64, 33
1, 69302, Control_c, 0, 64, 31
1, 69305, Note_off_c, 0, 50, 56
1, 69309, Note_off_c, 0, 52, 67
1, 69317, Control_c, 0, 64, 28
1, 69332, Control_c, 0, 64, 26
1, 69347, Control_c, 0, 64, 25
1, 69368, Note_on_c, 0, 52, 54
1, 69369, Note_on_c, 0, 50, 45
1, 69404, Note_on_c, 0, 40, 65
1, 69406, Note_on_c, 0, 28, 67
1, 69407, Control_c, 0, 64, 27
1, 69409, Note_off_c, 0, 52, 64
1, 69412, Note_off_c, 0, 50, 52
1, 69422, Control_c, 0, 64, 28
1, 69428, Note_off_c, 0, 40, 61
1, 69437, Control_c, 0, 64, 30
1, 69439, Note_off_c, 0, 28, 66
1, 69451, Control_c, 0, 64, 32
1, 69466, Control_c, 0, 64, 34
1, 69481, Control_c, 0, 64, 37
1, 69487, Note_on_c, 0, 40, 63
1, 69489, Note_on_c, 0, 28, 59
1, 69496, Control_c, 0, 64, 39
1, 69511, Control_c, 0, 64, 42
1, 69526, Control_c, 0, 64, 45
1, 69540, Control_c, 0, 64, 48
1, 69541, Note_off_c, 0, 28, 66
1, 69542, Note_off_c, 0, 40, 61
1, 69548, Note_on_c, 0, 50, 52
1, 69552, Note_on_c, 0, 52, 51
1, 69555, Control_c, 0, 64, 51
1, 69570, Control_c, 0, 64, 53
1, 69576, Note_off_c, 0, 50, 55
1, 69579, Note_off_c, 0, 52, 60
1, 69585, Control_c, 0, 64, 54
1, 69630, Control_c, 0, 64, 54
1, 69645, Control_c, 0, 64, 53
1, 69652, Note_on_c, 0, 50, 44
1, 69652, Note_on_c, 0, 52, 56
1, 69659, Control_c, 0, 64, 53
1, 69674, Control_c, 0, 64, 52
1, 69687, Note_off_c, 0, 50, 50
1, 69689, Note_off_c, 0, 52, 63
1, 69689, Control_c, 0, 64, 51
1, 69703, Control_c, 0, 64, 50
1, 69705, Note_on_c, 0, 27, 70
1, 69709, Note_on_c, 0, 39, 63
1, 69718, Control_c, 0, 64, 49
1, 69733, Control_c, 0, 64, 48
1, 69735, Note_off_c, 0, 39, 55
1, 69743, Note_off_c, 0, 27, 69
1, 69748, Control_c, 0, 64, 46
1, 69763, Control_c, 0, 64, 43
1, 69777, Control_c, 0, 64, 40
1, 69783, Note_on_c, 0, 39, 68
1, 69788, Note_on_c, 0, 27, 71
1, 69792, Control_c, 0, 64, 36
1, 69807, Control_c, 0, 64, 32
1, 69830, Control_c, 0, 64, 29
1, 69844, Control_c, 0, 64, 26
1, 69851, Note_off_c, 0, 27, 64
1, 69853, Note_off_c, 0, 39, 59
1, 69859, Control_c, 0, 64, 25
1, 69874, Control_c, 0, 64, 23
1, 69880, Note_on_c, 0, 51, 49
1, 69889, Control_c, 0, 64, 22
1, 69903, Control_c, 0, 64, 20
1, 69918, Control_c, 0, 64, 19
1, 69932, Note_off_c, 0, 51, 0
1, 69933, Control_c, 0, 64, 18
1, 69942, Note_on_c, 0, 51, 54
1, 69948, Control_c, 0, 64, 16
1, 69963, Control_c, 0, 64, 14
1, 69977, Control_c, 0, 64, 12
1, 69992, Control_c, 0, 64, 10
1, 70005, Note_off_c, 0, 51, 56
1, 70005, Note_on_c, 0, 27, 73
1, 70007, Control_c, 0, 64, 0
1, 70008, Note_on_c, 0, 39, 65
1, 70043, Note_off_c, 0, 39, 63
1, 70044, Note_off_c, 0, 27, 60
1, 70084, Note_on_c, 0, 27, 63
1, 70088, Note_on_c, 0, 39, 56
1, 70145, Note_off_c, 0, 27, 62
1, 70145, Note_off_c, 0, 39, 56
1, 70167, Note_on_c, 0, 51, 54
1, 70191, Note_off_c, 0, 51, 57
1, 70270, Note_on_c, 0, 51, 45
1, 70413, Note_off_c, 0, 51, 32
1, 70423, Control_c, 0, 64, 12
1, 70438, Control_c, 0, 64, 16
1, 70453, Control_c, 0, 64, 20
1, 70468, Control_c, 0, 64, 24
1, 70482, Control_c, 0, 64, 28
1, 70497, Control_c, 0, 64, 33
1, 70512, Control_c, 0, 64, 38
1, 70527, Control_c, 0, 64, 43
1, 70542, Control_c, 0, 64, 47
1, 70557, Control_c, 0, 64, 51
1, 70579, Control_c, 0, 64, 54
1, 70594, Control_c, 0, 64, 55
1, 70608, Control_c, 0, 64, 55
1, 70623, Control_c, 0, 64, 56
1, 70653, Control_c, 0, 64, 57
1, 70668, Control_c, 0, 64, 58
1, 70682, Control_c, 0, 64, 59
1, 70697, Control_c, 0, 64, 60
1, 70742, Control_c, 0, 64, 59
1, 70772, Control_c, 0, 64, 59
1, 70786, Control_c, 0, 64, 58
1, 70801, Control_c, 0, 64, 56
1, 70816, Control_c, 0, 64, 53
1, 70831, Control_c, 0, 64, 50
1, 70846, Control_c, 0, 64, 45
1, 70859, Note_on_c, 0, 34, 55
1, 70861, Control_c, 0, 64, 38
1, 70875, Control_c, 0, 64, 30
1, 70888, Note_off_c, 0, 34, 59
1, 70890, Control_c, 0, 64, 21
1, 70905, Control_c, 0, 64, 15
1, 70920, Control_c, 0, 64, 14
1, 70939, Note_on_c, 0, 34, 50
1, 70979, Control_c, 0, 64, 15
1, 70983, Note_off_c, 0, 34, 61
1, 70994, Control_c, 0, 64, 18
1, 71010, Control_c, 0, 64, 19
1, 71024, Control_c, 0, 64, 21
1, 71026, Note_on_c, 0, 46, 65
1, 71039, Control_c, 0, 64, 22
1, 71054, Control_c, 0, 64, 22
1, 71059, Note_off_c, 0, 46, 61
1, 71069, Control_c, 0, 64, 23
1, 71111, Note_on_c, 0, 46, 58
1, 71143, Control_c, 0, 64, 22
1, 71157, Control_c, 0, 64, 22
1, 71172, Control_c, 0, 64, 20
1, 71175, Note_on_c, 0, 34, 58
1, 71176, Note_off_c, 0, 46, 49
1, 71187, Control_c, 0, 64, 18
1, 71202, Control_c, 0, 64, 17
1, 71203, Note_off_c, 0, 34, 61
1, 71217, Control_c, 0, 64, 14
1, 71231, Control_c, 0, 64, 12
1, 71246, Control_c, 0, 64, 10
1, 71261, Control_c, 0, 64, 8
1, 71272, Note_on_c, 0, 34, 48
1, 71276, Control_c, 0, 64, 0
1, 71317, Note_off_c, 0, 34, 52
1, 71374, Note_on_c, 0, 46, 50
1, 71406, Note_off_c, 0, 46, 57
1, 71515, Note_on_c, 0, 46, 37
1, 71642, Note_off_c, 0, 46, 36
1, 71787, Control_c, 0, 64, 9
1, 71803, Control_c, 0, 64, 11
1, 71818, Control_c, 0, 64, 12
1, 71833, Control_c, 0, 64, 14
1, 71847, Control_c, 0, 64, 15
1, 71862, Control_c, 0, 64, 16
1, 71877, Control_c, 0, 64, 18
1, 71892, Control_c, 0, 64, 20
1, 71906, Control_c, 0, 64, 22
1, 71921, Control_c, 0, 64, 24
1, 71936, Control_c, 0, 64, 27
1, 71951, Control_c, 0, 64, 31
1, 71966, Control_c, 0, 64, 34
1, 71980, Control_c, 0, 64, 37
1, 71995, Control_c, 0, 64, 41
1, 72010, Control_c, 0, 64, 44
1, 72025, Control_c, 0, 64, 48
1, 72040, Control_c, 0, 64, 52
1, 72054, Control_c, 0, 64, 55
1, 72077, Control_c, 0, 64, 57
1, 72092, Control_c, 0, 64, 59
1, 72106, Control_c, 0, 64, 59
1, 72180, Control_c, 0, 64, 59
1, 72210, Control_c, 0, 64, 58
1, 72240, Control_c, 0, 64, 58
1, 72298, Control_c, 0, 64, 57
1, 72381, Note_on_c, 0, 37, 44
1, 72387, Note_on_c, 0, 25, 42
1, 72402, Control_c, 0, 64, 57
1, 72432, Control_c, 0, 64, 56
1, 72435, Note_off_c, 0, 37, 51
1, 72441, Note_off_c, 0, 25, 44
1, 72462, Control_c, 0, 64, 56
1, 72492, Control_c, 0, 64, 55
1, 72506, Control_c, 0, 64, 55
1, 72508, Note_on_c, 0, 37, 36
1, 72524, Note_on_c, 0, 25, 29
1, 72536, Control_c, 0, 64, 54
1, 72551, Control_c, 0, 64, 54
1, 72566, Control_c, 0, 64, 53
1, 72580, Control_c, 0, 64, 52
1, 72596, Control_c, 0, 64, 50
1, 72611, Control_c, 0, 64, 48
1, 72625, Control_c, 0, 64, 46
1, 72634, Note_off_c, 0, 37, 29
1, 72640, Control_c, 0, 64, 45
1, 72655, Control_c, 0, 64, 44
1, 72667, Note_on_c, 0, 49, 41
1, 72669, Control_c, 0, 64, 43
1, 72684, Control_c, 0, 64, 41
1, 72693, Note_off_c, 0, 25, 19
1, 72699, Control_c, 0, 64, 39
1, 72714, Control_c, 0, 64, 37
1, 72728, Control_c, 0, 64, 35
1, 72737, Note_off_c, 0, 49, 55
1, 72743, Control_c, 0, 64, 34
1, 72758, Control_c, 0, 64, 34
1, 72773, Control_c, 0, 64, 33
1, 72788, Control_c, 0, 64, 32
1, 72802, Control_c, 0, 64, 32
1, 72825, Control_c, 0, 64, 31
1, 72840, Control_c, 0, 64, 31
1, 72855, Control_c, 0, 64, 30
1, 72870, Control_c, 0, 64, 30
1, 72879, Note_on_c, 0, 49, 33
1, 72884, Control_c, 0, 64, 29
1, 72899, Control_c, 0, 64, 29
1, 72914, Control_c, 0, 64, 28
1, 72943, Control_c, 0, 64, 27
1, 72958, Control_c, 0, 64, 26
1, 72973, Control_c, 0, 64, 26
1, 72988, Control_c, 0, 64, 25
1, 73002, Control_c, 0, 64, 24
1, 73017, Control_c, 0, 64, 23
1, 73032, Control_c, 0, 64, 22
1, 73047, Control_c, 0, 64, 22
1, 73062, Control_c, 0, 64, 21
1, 73076, Control_c, 0, 64, 21
1, 73091, Control_c, 0, 64, 20
1, 73120, Control_c, 0, 64, 20
1, 73135, Control_c, 0, 64, 19
1, 73150, Control_c, 0, 64, 19
1, 73158, Note_off_c, 0, 49, 34
1, 73165, Control_c, 0, 64, 18
1, 73195, Control_c, 0, 64, 18
1, 73240, Control_c, 0, 64, 17
1, 73254, Control_c, 0, 64, 16
1, 73269, Control_c, 0, 64, 16
1, 73284, Control_c, 0, 64, 15
1, 73299, Control_c, 0, 64, 14
1, 73433, Control_c, 0, 64, 15
1, 73448, Control_c, 0, 64, 16
1, 73463, Control_c, 0, 64, 16
1, 73478, Control_c, 0, 64, 17
1, 73493, Control_c, 0, 64, 18
1, 73508, Control_c, 0, 64, 18
1, 73523, Control_c, 0, 64, 20
1, 73538, Control_c, 0, 64, 21
1, 73552, Control_c, 0, 64, 22
1, 73574, Control_c, 0, 64, 23
1, 73589, Control_c, 0, 64, 25
1, 73604, Control_c, 0, 64, 26
1, 73619, Control_c, 0, 64, 27
1, 73633, Control_c, 0, 64, 28
1, 73648, Control_c, 0, 64, 29
1, 73663, Control_c, 0, 64, 30
1, 73678, Control_c, 0, 64, 31
1, 73693, Control_c, 0, 64, 32
1, 73708, Control_c, 0, 64, 33
1, 73723, Control_c, 0, 64, 35
1, 73738, Control_c, 0, 64, 37
1, 73752, Control_c, 0, 64, 39
1, 73767, Control_c, 0, 64, 41
1, 73782, Control_c, 0, 64, 43
1, 73797, Control_c, 0, 64, 44
1, 73810, Note_on_c, 0, 33, 36
1, 73812, Control_c, 0, 64, 45
1, 73826, Control_c, 0, 64, 47
1, 73841, Control_c, 0, 64, 48
1, 73856, Control_c, 0, 64, 49
1, 73870, Control_c, 0, 64, 50
1, 73873, Note_off_c, 0, 33, 49
1, 73974, Control_c, 0, 64, 50
1, 74004, Control_c, 0, 64, 49
1, 74019, Note_on_c, 0, 33, 34
1, 74048, Control_c, 0, 64, 49
1, 74077, Note_off_c, 0, 33, 43
1, 74092, Control_c, 0, 64, 48
1, 74167, Control_c, 0, 64, 48
1, 74197, Control_c, 0, 64, 47
1, 74212, Control_c, 0, 64, 47
1, 74227, Control_c, 0, 64, 46
1, 74241, Control_c, 0, 64, 45
1, 74256, Control_c, 0, 64, 45
1, 74265, Note_on_c, 0, 45, 35
1, 74271, Control_c, 0, 64, 44
1, 74286, Control_c, 0, 64, 44
1, 74353, Control_c, 0, 64, 43
1, 74368, Control_c, 0, 64, 43
1, 74396, Note_off_c, 0, 45, 33
1, 74397, Control_c, 0, 64, 42
1, 74412, Control_c, 0, 64, 42
1, 74427, Control_c, 0, 64, 41
1, 74442, Control_c, 0, 64, 41
1, 74456, Control_c, 0, 64, 40
1, 74486, Control_c, 0, 64, 40
1, 74501, Control_c, 0, 64, 39
1, 74516, Control_c, 0, 64, 39
1, 74545, Control_c, 0, 64, 38
1, 74560, Control_c, 0, 64, 38
1, 74590, Control_c, 0, 64, 37
1, 74605, Control_c, 0, 64, 36
1, 74620, Control_c, 0, 64, 36
1, 74635, Control_c, 0, 64, 35
1, 74645, Note_on_c, 0, 45, 28
1, 74649, Control_c, 0, 64, 34
1, 74664, Control_c, 0, 64, 34
1, 74679, Control_c, 0, 64, 33
1, 74694, Control_c, 0, 64, 32
1, 74708, Control_c, 0, 64, 31
1, 74723, Control_c, 0, 64, 31
1, 74738, Control_c, 0, 64, 30
1, 74753, Control_c, 0, 64, 30
1, 74767, Control_c, 0, 64, 29
1, 74782, Control_c, 0, 64, 29
1, 74812, Control_c, 0, 64, 28
1, 74827, Control_c, 0, 64, 27
1, 74841, Control_c, 0, 64, 27
1, 74856, Control_c, 0, 64, 26
1, 74871, Control_c, 0, 64, 26
1, 74886, Control_c, 0, 64, 25
1, 74892, Note_off_c, 0, 45, 29
1, 74900, Control_c, 0, 64, 25
1, 74915, Control_c, 0, 64, 24
1, 74930, Control_c, 0, 64, 24
1, 74960, Control_c, 0, 64, 23
1, 75035, Control_c, 0, 64, 23
1, 75176, Control_c, 0, 64, 22
1, 75265, Control_c, 0, 64, 22
1, 75279, Control_c, 0, 64, 21
1, 75294, Control_c, 0, 64, 21
1, 75309, Control_c, 0, 64, 20
1, 75323, Control_c, 0, 64, 19
1, 75338, Control_c, 0, 64, 18
1, 75353, Control_c, 0, 64, 17
1, 75368, Control_c, 0, 64, 16
1, 75383, Control_c, 0, 64, 15
1, 75398, Control_c, 0, 64, 13
1, 75413, Control_c, 0, 64, 11
1, 75428, Control_c, 0, 64, 10
1, 75443, Control_c, 0, 64, 8
1, 75458, Control_c, 0, 64, 0
1, 76643, Control_c, 0, 64, 10
1, 76658, Control_c, 0, 64, 14
1, 76673, Control_c, 0, 64, 18
1, 76688, Control_c, 0, 64, 22
1, 76702, Control_c, 0, 64, 25
1, 76717, Control_c, 0, 64, 28
1, 76732, Control_c, 0, 64, 31
1, 76747, Control_c, 0, 64, 35
1, 76762, Control_c, 0, 64, 38
1, 76776, Control_c, 0, 64, 42
1, 76791, Control_c, 0, 64, 46
1, 76806, Control_c, 0, 64, 50
1, 76821, Control_c, 0, 64, 53
1, 76836, Control_c, 0, 64, 57
1, 76850, Control_c, 0, 64, 60
1, 76865, Control_c, 0, 64, 62
1, 76880, Control_c, 0, 64, 64
1, 76894, Control_c, 0, 64, 66
1, 76909, Control_c, 0, 64, 68
1, 76924, Control_c, 0, 64, 71
1, 76939, Control_c, 0, 64, 74
1, 76954, Control_c, 0, 64, 76
1, 76969, Control_c, 0, 64, 78
1, 76984, Control_c, 0, 64, 79
1, 76999, Control_c, 0, 64, 79
1, 77014, Control_c, 0, 64, 80
1, 77028, Control_c, 0, 64, 81
1, 77043, Control_c, 0, 64, 83
1, 77058, Control_c, 0, 64, 85
1, 77073, Control_c, 0, 64, 87
1, 77088, Control_c, 0, 64, 89
1, 77102, Control_c, 0, 64, 91
1, 77117, Control_c, 0, 64, 93
1, 77132, Control_c, 0, 64, 95
1, 77147, Control_c, 0, 64, 97
1, 77161, Control_c, 0, 64, 99
1, 77176, Control_c, 0, 64, 100
1, 77191, Control_c, 0, 64, 101
1, 77221, Control_c, 0, 64, 101
1, 77280, Control_c, 0, 64, 102
1, 77423, Note_on_c, 0, 69, 39
1, 77440, Note_on_c, 0, 57, 18
1, 77508, Note_off_c, 0, 57, 38
1, 77537, Note_off_c, 0, 69, 37
1, 77598, Note_on_c, 0, 69, 37
1, 77607, Note_on_c, 0, 57, 35
1, 77630, Note_on_c, 0, 26, 35
1, 77644, Control_c, 0, 64, 103
1, 77653, Note_on_c, 0, 38, 17
1, 77659, Control_c, 0, 64, 104
1, 77673, Control_c, 0, 64, 106
1, 77678, Note_off_c, 0, 26, 58
1, 77688, Control_c, 0, 64, 110
1, 77703, Control_c, 0, 64, 117
1, 77717, Control_c, 0, 64, 127
1, 77735, Note_off_c, 0, 38, 39
1, 77839, Note_off_c, 0, 69, 38
1, 77842, Note_off_c, 0, 57, 41
1, 77987, Note_on_c, 0, 45, 33
1, 77994, Note_on_c, 0, 53, 24
1, 77995, Note_on_c, 0, 50, 24
1, 78044, Note_off_c, 0, 50, 47
1, 78047, Note_off_c, 0, 53, 46
1, 78048, Note_off_c, 0, 45, 42
1, 78163, Note_on_c, 0, 45, 25
1, 78179, Note_on_c, 0, 50, 29
1, 78180, Note_on_c, 0, 53, 21
1, 78309, Note_on_c, 0, 70, 50
1, 78325, Note_on_c, 0, 58, 41
1, 78356, Note_off_c, 0, 45, 38
1, 78379, Note_off_c, 0, 53, 37
1, 78394, Note_off_c, 0, 58, 55
1, 78397, Note_off_c, 0, 70, 59
1, 78433, Note_off_c, 0, 50, 33
1, 78476, Note_on_c, 0, 70, 44
1, 78507, Note_on_c, 0, 58, 29
1, 78586, Note_off_c, 0, 58, 37
1, 78620, Note_on_c, 0, 46, 35
1, 78623, Note_off_c, 0, 70, 56
1, 78645, Note_on_c, 0, 50, 13
1, 78680, Note_off_c, 0, 46, 42
1, 78692, Poly_aftertouch_c, 0, 53, 127
1, 78698, Note_off_c, 0, 50, 47
1, 78782, Note_on_c, 0, 46, 37
1, 78787, Note_on_c, 0, 50, 25
1, 78866, Note_off_c, 0, 46, 50
1, 78884, Note_on_c, 0, 69, 50
1, 78906, Note_on_c, 0, 57, 17
1, 78909, Note_off_c, 0, 69, 61
1, 78951, Poly_aftertouch_c, 0, 53, 0
1, 78961, Note_off_c, 0, 50, 21
1, 78971, Note_off_c, 0, 57, 0
1, 78994, Note_on_c, 0, 57, 11
1, 78995, Note_on_c, 0, 69, 54
1, 79091, Note_on_c, 0, 50, 30
1, 79094, Note_on_c, 0, 53, 31
1, 79108, Note_on_c, 0, 45, 23
1, 79116, Note_off_c, 0, 69, 39
1, 79132, Note_off_c, 0, 57, 39
1, 79143, Note_off_c, 0, 53, 44
1, 79189, Note_off_c, 0, 50, 0
1, 79199, Note_off_c, 0, 45, 0
1, 79199, Note_on_c, 0, 45, 13
1, 79205, Note_on_c, 0, 50, 26
1, 79207, Note_on_c, 0, 53, 28
1, 79280, Note_on_c, 0, 68, 58
1, 79286, Note_on_c, 0, 56, 47
1, 79297, Note_off_c, 0, 45, 37
1, 79303, Note_off_c, 0, 68, 60
1, 79320, Note_off_c, 0, 56, 48
1, 79345, Note_off_c, 0, 53, 33
1, 79348, Note_off_c, 0, 50, 33
1, 79377, Note_on_c, 0, 68, 61
1, 79389, Note_on_c, 0, 56, 29
1, 79445, Note_on_c, 0, 50, 38
1, 79447, Note_on_c, 0, 44, 42
1, 79452, Note_on_c, 0, 53, 24
1, 79484, Note_off_c, 0, 68, 54
1, 79485, Note_off_c, 0, 44, 48
1, 79490, Note_off_c, 0, 56, 37
1, 79518, Note_off_c, 0, 53, 0
1, 79537, Note_on_c, 0, 53, 28
1, 79541, Note_off_c, 0, 50, 0
1, 79569, Note_on_c, 0, 50, 13
1, 79575, Note_on_c, 0, 44, 41
1, 79629, Note_on_c, 0, 67, 55
1, 79640, Note_off_c, 0, 50, 42
1, 79647, Note_on_c, 0, 55, 31
1, 79648, Note_off_c, 0, 53, 37
1, 79655, Note_off_c, 0, 67, 59
1, 79682, Note_off_c, 0, 44, 49
1, 79696, Note_off_c, 0, 55, 0
1, 79715, Note_on_c, 0, 55, 31
1, 79720, Note_on_c, 0, 67, 64
1, 79798, Note_on_c, 0, 50, 45
1, 79817, Note_on_c, 0, 45, 32
1, 79817, Note_off_c, 0, 67, 53
1, 79854, Note_off_c, 0, 55, 43
1, 79877, Note_off_c, 0, 45, 0
1, 79883, Note_off_c, 0, 50, 0
1, 79900, Note_on_c, 0, 50, 27
1, 79904, Note_on_c, 0, 43, 27
1, 79905, Note_on_c, 0, 45, 11
1, 79956, Note_off_c, 0, 45, 46
1, 79958, Note_on_c, 0, 66, 57
1, 79964, Control_c, 0, 64, 122
1, 79973, Note_on_c, 0, 54, 35
1, 79981, Note_off_c, 0, 66, 59
1, 79993, Control_c, 0, 64, 117
1, 80008, Control_c, 0, 64, 114
1, 80023, Control_c, 0, 64, 108
1, 80030, Note_off_c, 0, 50, 38
1, 80031, Note_off_c, 0, 43, 35
1, 80033, Note_off_c, 0, 54, 0
1, 80036, Note_on_c, 0, 66, 63
1, 80037, Control_c, 0, 64, 97
1, 80050, Note_on_c, 0, 54, 30
1, 80052, Control_c, 0, 64, 83
1, 80067, Control_c, 0, 64, 69
1, 80082, Control_c, 0, 64, 61
1, 80097, Control_c, 0, 64, 53
1, 80112, Control_c, 0, 64, 47
1, 80118, Note_on_c, 0, 50, 33
1, 80127, Control_c, 0, 64, 48
1, 80129, Note_on_c, 0, 42, 34
1, 80135, Note_on_c, 0, 45, 17
1, 80142, Control_c, 0, 64, 52
1, 80157, Control_c, 0, 64, 56
1, 80172, Control_c, 0, 64, 61
1, 80185, Note_off_c, 0, 66, 55
1, 80186, Control_c, 0, 64, 64
1, 80187, Note_off_c, 0, 42, 0
1, 80199, Note_off_c, 0, 50, 0
1, 80199, Note_on_c, 0, 50, 14
1, 80201, Control_c, 0, 64, 67
1, 80206, Note_on_c, 0, 42, 28
1, 80216, Control_c, 0, 64, 70
1, 80218, Note_off_c, 0, 54, 41
1, 80228, Note_off_c, 0, 45, 0
1, 80228, Note_on_c, 0, 45, 3
1, 80230, Control_c, 0, 64, 72
1, 80245, Control_c, 0, 64, 74
1, 80255, Note_off_c, 0, 50, 45
1, 80260, Control_c, 0, 64, 77
1, 80261, Note_on_c, 0, 65, 63
1, 80275, Control_c, 0, 64, 79
1, 80281, Note_on_c, 0, 53, 36
1, 80284, Note_off_c, 0, 42, 52
1, 80290, Control_c, 0, 64, 80
1, 80291, Note_off_c, 0, 45, 45
1, 80293, Note_off_c, 0, 65, 65
1, 80327, Control_c, 0, 64, 79
1, 80342, Control_c, 0, 64, 74
1, 80357, Note_off_c, 0, 53, 0
1, 80357, Control_c, 0, 64, 65
1, 80362, Note_on_c, 0, 65, 68
1, 80372, Control_c, 0, 64, 57
1, 80376, Note_on_c, 0, 53, 24
1, 80386, Control_c, 0, 64, 47
1, 80401, Control_c, 0, 64, 42
1, 80416, Control_c, 0, 64, 44
1, 80431, Control_c, 0, 64, 47
1, 80433, Note_on_c, 0, 45, 39
1, 80436, Note_on_c, 0, 41, 47
1, 80444, Note_off_c, 0, 65, 54
1, 80445, Control_c, 0, 64, 53
1, 80460, Control_c, 0, 64, 60
1, 80475, Control_c, 0, 64, 64
1, 80490, Control_c, 0, 64, 69
1, 80495, Note_off_c, 0, 45, 39
1, 80505, Control_c, 0, 64, 72
1, 80511, Note_off_c, 0, 53, 43
1, 80519, Control_c, 0, 64, 74
1, 80525, Note_off_c, 0, 41, 0
1, 80534, Control_c, 0, 64, 75
1, 80542, Note_on_c, 0, 45, 33
1, 80544, Note_on_c, 0, 41, 26
1, 80549, Control_c, 0, 64, 77
1, 80564, Control_c, 0, 64, 79
1, 80579, Control_c, 0, 64, 80
1, 80596, Note_on_c, 0, 52, 44
1, 80597, Note_on_c, 0, 64, 43
1, 80607, Note_off_c, 0, 41, 45
1, 80609, Note_off_c, 0, 45, 42
1, 80624, Note_off_c, 0, 64, 54
1, 80625, Note_off_c, 0, 52, 54
1, 80639, Control_c, 0, 64, 79
1, 80654, Control_c, 0, 64, 74
1, 80668, Control_c, 0, 64, 67
1, 80673, Note_on_c, 0, 64, 62
1, 80683, Control_c, 0, 64, 60
1, 80692, Note_on_c, 0, 52, 43
1, 80698, Control_c, 0, 64, 52
1, 80713, Control_c, 0, 64, 44
1, 80726, Note_on_c, 0, 40, 50
1, 80728, Control_c, 0, 64, 42
1, 80739, Note_on_c, 0, 45, 37
1, 80743, Note_on_c, 0, 41, 21
1, 80743, Control_c, 0, 64, 43
1, 80758, Control_c, 0, 64, 46
1, 80766, Note_off_c, 0, 52, 39
1, 80772, Control_c, 0, 64, 50
1, 80774, Note_off_c, 0, 40, 58
1, 80775, Note_off_c, 0, 64, 54
1, 80783, Note_off_c, 0, 45, 45
1, 80787, Control_c, 0, 64, 54
1, 80793, Note_off_c, 0, 41, 45
1, 80802, Control_c, 0, 64, 59
1, 80817, Control_c, 0, 64, 63
1, 80832, Control_c, 0, 64, 66
1, 80846, Note_on_c, 0, 40, 28
1, 80847, Control_c, 0, 64, 69
1, 80857, Note_on_c, 0, 45, 17
1, 80858, Note_on_c, 0, 41, 28
1, 80861, Control_c, 0, 64, 70
1, 80876, Control_c, 0, 64, 71
1, 80891, Control_c, 0, 64, 72
1, 80892, Note_off_c, 0, 40, 54
1, 80898, Note_on_c, 0, 63, 61
1, 80910, Note_on_c, 0, 51, 44
1, 80930, Note_off_c, 0, 63, 62
1, 80931, Note_off_c, 0, 45, 40
1, 80935, Control_c, 0, 64, 71
1, 80939, Note_off_c, 0, 41, 40
1, 80941, Note_off_c, 0, 51, 49
1, 80950, Control_c, 0, 64, 68
1, 80965, Control_c, 0, 64, 64
1, 80980, Control_c, 0, 64, 58
1, 80991, Note_on_c, 0, 63, 64
1, 80995, Control_c, 0, 64, 48
1, 81004, Note_on_c, 0, 51, 38
1, 81009, Control_c, 0, 64, 36
1, 81024, Control_c, 0, 64, 31
1, 81039, Control_c, 0, 64, 31
1, 81059, Note_on_c, 0, 39, 38
1, 81061, Control_c, 0, 64, 34
1, 81076, Control_c, 0, 64, 38
1, 81079, Note_on_c, 0, 41, 15
1, 81079, Note_on_c, 0, 45, 18
1, 81091, Control_c, 0, 64, 42
1, 81106, Control_c, 0, 64, 49
1, 81118, Note_off_c, 0, 63, 57
1, 81119, Note_off_c, 0, 39, 0
1, 81121, Control_c, 0, 64, 55
1, 81135, Control_c, 0, 64, 61
1, 81150, Control_c, 0, 64, 65
1, 81151, Note_off_c, 0, 51, 33
1, 81155, Note_on_c, 0, 39, 17
1, 81165, Control_c, 0, 64, 67
1, 81174, Note_off_c, 0, 45, 0
1, 81174, Note_on_c, 0, 45, 3
1, 81180, Control_c, 0, 64, 69
1, 81195, Control_c, 0, 64, 71
1, 81209, Note_on_c, 0, 62, 56
1, 81209, Control_c, 0, 64, 72
1, 81224, Control_c, 0, 64, 73
1, 81233, Note_off_c, 0, 62, 63
1, 81243, Note_on_c, 0, 50, 6
1, 81255, Note_off_c, 0, 39, 37
1, 81259, Note_off_c, 0, 45, 38
1, 81268, Control_c, 0, 64, 70
1, 81283, Control_c, 0, 64, 66
1, 81287, Note_off_c, 0, 41, 42
1, 81298, Control_c, 0, 64, 61
1, 81306, Note_on_c, 0, 62, 68
1, 81313, Control_c, 0, 64, 54
1, 81328, Control_c, 0, 64, 44
1, 81342, Control_c, 0, 64, 40
1, 81357, Control_c, 0, 64, 41
1, 81372, Control_c, 0, 64, 44
1, 81376, Note_off_c, 0, 62, 54
1, 81377, Note_on_c, 0, 38, 35
1, 81378, Note_on_c, 0, 41, 30
1, 81382, Note_on_c, 0, 45, 30
1, 81388, Note_off_c, 0, 50, 42
1, 81388, Control_c, 0, 64, 47
1, 81403, Control_c, 0, 64, 53
1, 81418, Control_c, 0, 64, 59
1, 81432, Control_c, 0, 64, 63
1, 81447, Control_c, 0, 64, 66
1, 81462, Control_c, 0, 64, 68
1, 81463, Note_off_c, 0, 45, 0
1, 81467, Note_off_c, 0, 41, 0
1, 81469, Note_off_c, 0, 38, 0
1, 81469, Note_on_c, 0, 38, 15
1, 81477, Control_c, 0, 64, 70
1, 81491, Note_on_c, 0, 45, 9
1, 81491, Control_c, 0, 64, 71
1, 81495, Note_on_c, 0, 41, 11
1, 81506, Control_c, 0, 64, 72
1, 81519, Note_on_c, 0, 61, 53
1, 81542, Note_on_c, 0, 49, 25
1, 81542, Note_off_c, 0, 61, 61
1, 81551, Control_c, 0, 64, 71
1, 81563, Note_off_c, 0, 45, 43
1, 81565, Control_c, 0, 64, 68
1, 81574, Note_off_c, 0, 41, 41
1, 81580, Control_c, 0, 64, 63
1, 81595, Control_c, 0, 64, 56
1, 81599, Note_off_c, 0, 38, 35
1, 81602, Note_off_c, 0, 49, 0
1, 81602, Note_on_c, 0, 49, 20
1, 81604, Note_on_c, 0, 61, 63
1, 81610, Control_c, 0, 64, 45
1, 81625, Control_c, 0, 64, 37
1, 81640, Control_c, 0, 64, 36
1, 81655, Control_c, 0, 64, 38
1, 81670, Control_c, 0, 64, 42
1, 81673, Note_on_c, 0, 37, 43
1, 81684, Control_c, 0, 64, 47
1, 81685, Note_on_c, 0, 45, 26
1, 81694, Note_on_c, 0, 41, 31
1, 81699, Control_c, 0, 64, 54
1, 81714, Control_c, 0, 64, 59
1, 81728, Note_off_c, 0, 61, 58
1, 81729, Control_c, 0, 64, 63
1, 81741, Note_off_c, 0, 49, 43
1, 81744, Control_c, 0, 64, 65
1, 81748, Note_off_c, 0, 37, 0
1, 81750, Note_off_c, 0, 45, 0
1, 81758, Control_c, 0, 64, 67
1, 81761, Note_on_c, 0, 37, 38
1, 81768, Note_off_c, 0, 41, 0
1, 81773, Note_on_c, 0, 45, 24
1, 81773, Control_c, 0, 64, 69
1, 81788, Control_c, 0, 64, 69
1, 81794, Note_on_c, 0, 41, 12
1, 81830, Note_on_c, 0, 62, 57
1, 81841, Note_on_c, 0, 50, 45
1, 81856, Note_off_c, 0, 62, 61
1, 81860, Note_off_c, 0, 37, 53
1, 81865, Note_off_c, 0, 45, 40
1, 81867, Note_off_c, 0, 41, 45
1, 81894, Note_off_c, 0, 50, 0
1, 81899, Control_c, 0, 64, 69
1, 81909, Note_on_c, 0, 50, 39
1, 81920, Note_on_c, 0, 62, 63
1, 81944, Control_c, 0, 64, 68
1, 81971, Note_on_c, 0, 38, 48
1, 81973, Control_c, 0, 64, 68
1, 81976, Note_on_c, 0, 41, 37
1, 81986, Note_off_c, 0, 50, 49
1, 81986, Note_on_c, 0, 45, 35
1, 81988, Control_c, 0, 64, 67
1, 81995, Note_off_c, 0, 62, 59
1, 82021, Note_off_c, 0, 41, 47
1, 82032, Control_c, 0, 64, 67
1, 82047, Control_c, 0, 64, 65
1, 82054, Note_off_c, 0, 38, 0
1, 82062, Control_c, 0, 64, 62
1, 82063, Note_off_c, 0, 45, 0
1, 82069, Note_on_c, 0, 38, 39
1, 82077, Control_c, 0, 64, 55
1, 82081, Note_on_c, 0, 45, 32
1, 82091, Note_on_c, 0, 41, 28
1, 82091, Control_c, 0, 64, 46
1, 82106, Control_c, 0, 64, 38
1, 82121, Control_c, 0, 64, 36
1, 82123, Note_on_c, 0, 63, 58
1, 82136, Control_c, 0, 64, 38
1, 82144, Note_on_c, 0, 51, 36
1, 82147, Note_off_c, 0, 38, 58
1, 82151, Control_c, 0, 64, 41
1, 82153, Note_off_c, 0, 41, 44
1, 82159, Note_off_c, 0, 45, 42
1, 82160, Note_off_c, 0, 63, 57
1, 82165, Control_c, 0, 64, 46
1, 82181, Control_c, 0, 64, 52
1, 82196, Control_c, 0, 64, 58
1, 82199, Note_off_c, 0, 51, 0
1, 82211, Control_c, 0, 64, 63
1, 82213, Note_on_c, 0, 51, 39
1, 82218, Poly_aftertouch_c, 0, 63, 127
1, 82226, Control_c, 0, 64, 66
1, 82240, Control_c, 0, 64, 70
1, 82255, Control_c, 0, 64, 72
1, 82268, Note_on_c, 0, 41, 46
1, 82270, Note_on_c, 0, 45, 44
1, 82270, Control_c, 0, 64, 74
1, 82280, Note_on_c, 0, 39, 44
1, 82285, Control_c, 0, 64, 76
1, 82305, Poly_aftertouch_c, 0, 63, 0
1, 82307, Note_off_c, 0, 41, 58
1, 82317, Note_off_c, 0, 39, 56
1, 82323, Note_off_c, 0, 51, 47
1, 82344, Control_c, 0, 64, 75
1, 82359, Control_c, 0, 64, 73
1, 82361, Note_off_c, 0, 45, 0
1, 82374, Control_c, 0, 64, 70
1, 82379, Note_on_c, 0, 45, 30
1, 82382, Note_on_c, 0, 39, 34
1, 82388, Control_c, 0, 64, 68
1, 82397, Note_on_c, 0, 41, 34
1, 82403, Control_c, 0, 64, 68
1, 82418, Note_on_c, 0, 64, 58
1, 82428, Note_on_c, 0, 52, 47
1, 82431, Note_off_c, 0, 39, 58
1, 82433, Control_c, 0, 64, 68
1, 82440, Note_off_c, 0, 64, 63
1, 82442, Note_off_c, 0, 41, 48
1, 82445, Note_off_c, 0, 45, 53
1, 82462, Note_off_c, 0, 52, 49
1, 82463, Control_c, 0, 64, 69
1, 82478, Control_c, 0, 64, 69
1, 82492, Control_c, 0, 64, 70
1, 82504, Note_on_c, 0, 52, 51
1, 82504, Note_on_c, 0, 64, 65
1, 82522, Control_c, 0, 64, 70
1, 82540, Note_on_c, 0, 41, 46
1, 82567, Note_off_c, 0, 52, 61
1, 82568, Note_on_c, 0, 40, 37
1, 82578, Note_on_c, 0, 45, 26
1, 82583, Note_off_c, 0, 64, 57
1, 82632, Note_off_c, 0, 41, 0
1, 82636, Note_off_c, 0, 40, 0
1, 82642, Note_off_c, 0, 45, 0
1, 82642, Note_on_c, 0, 45, 30
1, 82659, Note_on_c, 0, 41, 18
1, 82662, Control_c, 0, 64, 71
1, 82674, Poly_aftertouch_c, 0, 40, 127
1, 82677, Control_c, 0, 64, 71
1, 82703, Note_off_c, 0, 45, 60
1, 82704, Note_off_c, 0, 41, 44
1, 82713, Note_on_c, 0, 65, 59
1, 82722, Control_c, 0, 64, 70
1, 82725, Poly_aftertouch_c, 0, 40, 0
1, 82734, Note_off_c, 0, 65, 64
1, 82737, Control_c, 0, 64, 66
1, 82752, Control_c, 0, 64, 61
1, 82762, Note_on_c, 0, 53, 3
1, 82767, Control_c, 0, 64, 53
1, 82782, Control_c, 0, 64, 46
1, 82796, Control_c, 0, 64, 44
1, 82800, Note_on_c, 0, 65, 69
1, 82811, Control_c, 0, 64, 47
1, 82826, Control_c, 0, 64, 50
1, 82837, Note_on_c, 0, 45, 54
1, 82840, Control_c, 0, 64, 56
1, 82855, Control_c, 0, 64, 60
1, 82856, Note_on_c, 0, 41, 33
1, 82860, Note_on_c, 0, 50, 38
1, 82870, Control_c, 0, 64, 64
1, 82884, Note_off_c, 0, 65, 62
1, 82885, Control_c, 0, 64, 67
1, 82891, Note_off_c, 0, 45, 52
1, 82900, Note_off_c, 0, 53, 48
1, 82900, Control_c, 0, 64, 69
1, 82914, Control_c, 0, 64, 71
1, 82928, Note_off_c, 0, 41, 0
1, 82928, Note_on_c, 0, 41, 34
1, 82929, Control_c, 0, 64, 72
1, 82934, Note_off_c, 0, 50, 0
1, 82944, Control_c, 0, 64, 73
1, 82948, Note_on_c, 0, 50, 37
1, 82959, Control_c, 0, 64, 74
1, 82963, Note_on_c, 0, 45, 29
1, 82990, Control_c, 0, 64, 74
1, 83004, Note_on_c, 0, 66, 64
1, 83004, Control_c, 0, 64, 75
1, 83008, Note_off_c, 0, 41, 59
1, 83019, Note_on_c, 0, 54, 46
1, 83019, Control_c, 0, 64, 76
1, 83034, Note_off_c, 0, 66, 64
1, 83034, Control_c, 0, 64, 77
1, 83042, Note_off_c, 0, 50, 50
1, 83051, Note_off_c, 0, 54, 49
1, 83063, Control_c, 0, 64, 74
1, 83078, Control_c, 0, 64, 69
1, 83081, Note_off_c, 0, 45, 36
1, 83087, Note_on_c, 0, 66, 73
1, 83093, Control_c, 0, 64, 63
1, 83098, Note_on_c, 0, 54, 44
1, 83107, Control_c, 0, 64, 56
1, 83122, Control_c, 0, 64, 49
1, 83136, Control_c, 0, 64, 47
1, 83151, Control_c, 0, 64, 50
1, 83163, Note_on_c, 0, 42, 46
1, 83166, Note_on_c, 0, 50, 51
1, 83166, Control_c, 0, 64, 52
1, 83170, Note_on_c, 0, 45, 48
1, 83181, Control_c, 0, 64, 56
1, 83196, Control_c, 0, 64, 60
1, 83202, Note_off_c, 0, 54, 50
1, 83211, Note_off_c, 0, 66, 56
1, 83211, Control_c, 0, 64, 63
1, 83221, Note_off_c, 0, 45, 50
1, 83226, Control_c, 0, 64, 66
1, 83241, Control_c, 0, 64, 70
1, 83255, Control_c, 0, 64, 75
1, 83257, Note_off_c, 0, 50, 0
1, 83270, Control_c, 0, 64, 81
1, 83285, Control_c, 0, 64, 86
1, 83294, Note_on_c, 0, 50, 21
1, 83297, Note_on_c, 0, 67, 57
1, 83300, Note_on_c, 0, 55, 51
1, 83307, Control_c, 0, 64, 91
1, 83322, Control_c, 0, 64, 92
1, 83325, Note_off_c, 0, 67, 65
1, 83325, Poly_aftertouch_c, 0, 45, 127
1, 83331, Note_off_c, 0, 55, 59
1, 83341, Note_off_c, 0, 50, 53
1, 83351, Control_c, 0, 64, 89
1, 83360, Note_off_c, 0, 42, 57
1, 83366, Control_c, 0, 64, 80
1, 83378, Poly_aftertouch_c, 0, 45, 0
1, 83381, Control_c, 0, 64, 69
1, 83387, Note_on_c, 0, 67, 74
1, 83393, Note_on_c, 0, 55, 58
1, 83396, Control_c, 0, 64, 62
1, 83411, Control_c, 0, 64, 54
1, 83425, Control_c, 0, 64, 48
1, 83440, Control_c, 0, 64, 49
1, 83444, Note_on_c, 0, 50, 51
1, 83455, Control_c, 0, 64, 52
1, 83470, Control_c, 0, 64, 56
1, 83472, Note_on_c, 0, 45, 9
1, 83473, Note_off_c, 0, 55, 52
1, 83485, Control_c, 0, 64, 60
1, 83488, Note_off_c, 0, 67, 61
1, 83500, Control_c, 0, 64, 63
1, 83512, Note_on_c, 0, 43, 25
1, 83515, Control_c, 0, 64, 68
1, 83518, Note_off_c, 0, 50, 0
1, 83525, Note_off_c, 0, 45, 0
1, 83525, Note_on_c, 0, 45, 3
1, 83530, Control_c, 0, 64, 71
1, 83530, Note_on_c, 0, 50, 45
1, 83544, Control_c, 0, 64, 75
1, 83559, Control_c, 0, 64, 81
1, 83574, Control_c, 0, 64, 89
1, 83576, Note_off_c, 0, 45, 59
1, 83588, Control_c, 0, 64, 98
1, 83589, Note_on_c, 0, 68, 71
1, 83589, Note_off_c, 0, 43, 56
1, 83598, Note_on_c, 0, 56, 61
1, 83603, Control_c, 0, 64, 102
1, 83616, Note_off_c, 0, 68, 65
1, 83618, Note_off_c, 0, 50, 58
1, 83618, Control_c, 0, 64, 101
1, 83619, Note_off_c, 0, 56, 64
1, 83633, Control_c, 0, 64, 93
1, 83648, Control_c, 0, 64, 80
1, 83662, Control_c, 0, 64, 67
1, 83670, Note_on_c, 0, 68, 77
1, 83677, Control_c, 0, 64, 58
1, 83680, Note_on_c, 0, 56, 64
1, 83692, Control_c, 0, 64, 48
1, 83707, Control_c, 0, 64, 41
1, 83722, Control_c, 0, 64, 42
1, 83736, Control_c, 0, 64, 46
1, 83746, Note_on_c, 0, 50, 48
1, 83749, Note_on_c, 0, 53, 40
1, 83751, Control_c, 0, 64, 50
1, 83752, Note_on_c, 0, 44, 33
1, 83766, Control_c, 0, 64, 55
1, 83782, Control_c, 0, 64, 60
1, 83789, Note_off_c, 0, 53, 47
1, 83789, Note_off_c, 0, 50, 43
1, 83797, Control_c, 0, 64, 64
1, 83812, Control_c, 0, 64, 68
1, 83814, Note_off_c, 0, 56, 56
1, 83816, Note_off_c, 0, 44, 0
1, 83826, Note_on_c, 0, 44, 40
1, 83826, Control_c, 0, 64, 74
1, 83837, Note_on_c, 0, 53, 40
1, 83837, Note_off_c, 0, 68, 58
1, 83840, Note_on_c, 0, 50, 44
1, 83841, Control_c, 0, 64, 81
1, 83857, Control_c, 0, 64, 90
1, 83872, Control_c, 0, 64, 104
1, 83885, Note_on_c, 0, 69, 68
1, 83886, Control_c, 0, 64, 127
1, 83898, Note_on_c, 0, 57, 50
1, 83916, Control_c, 0, 64, 107
1, 83923, Note_off_c, 0, 57, 59
1, 83930, Note_off_c, 0, 69, 61
1, 83931, Control_c, 0, 64, 82
1, 83936, Note_off_c, 0, 50, 56
1, 83936, Note_off_c, 0, 53, 55
1, 83946, Control_c, 0, 64, 66
1, 83947, Note_off_c, 0, 44, 56
1, 83960, Control_c, 0, 64, 56
1, 83975, Control_c, 0, 64, 45
1, 83981, Note_on_c, 0, 69, 65
1, 83990, Control_c, 0, 64, 42
1, 83995, Note_on_c, 0, 57, 67
1, 84004, Control_c, 0, 64, 44
1, 84019, Control_c, 0, 64, 49
1, 84034, Control_c, 0, 64, 54
1, 84057, Control_c, 0, 64, 60
1, 84072, Control_c, 0, 64, 65
1, 84075, Note_on_c, 0, 50, 58
1, 84079, Note_on_c, 0, 45, 52
1, 84081, Note_on_c, 0, 53, 49
1, 84086, Control_c, 0, 64, 70
1, 84091, Note_off_c, 0, 57, 50
1, 84101, Control_c, 0, 64, 73
1, 84102, Note_off_c, 0, 50, 62
1, 84108, Note_off_c, 0, 53, 56
1, 84112, Note_off_c, 0, 45, 63
1, 84116, Control_c, 0, 64, 73
1, 84160, Note_off_c, 0, 69, 64
1, 84175, Control_c, 0, 64, 73
1, 84190, Control_c, 0, 64, 72
1, 84201, Note_on_c, 0, 45, 44
1, 84201, Note_on_c, 0, 53, 37
1, 84205, Control_c, 0, 64, 71
1, 84210, Note_on_c, 0, 50, 45
1, 84219, Control_c, 0, 64, 70
1, 84234, Control_c, 0, 64, 70
1, 84241, Note_off_c, 0, 53, 50
1, 84249, Control_c, 0, 64, 69
1, 84264, Control_c, 0, 64, 68
1, 84269, Note_on_c, 0, 74, 75
1, 84271, Note_off_c, 0, 50, 44
1, 84278, Control_c, 0, 64, 67
1, 84286, Note_on_c, 0, 62, 60
1, 84293, Control_c, 0, 64, 65
1, 84308, Control_c, 0, 64, 64
1, 84315, Note_off_c, 0, 45, 37
1, 84323, Control_c, 0, 64, 63
1, 84338, Control_c, 0, 64, 63
1, 84351, Note_off_c, 0, 62, 55
1, 84353, Control_c, 0, 64, 62
1, 84363, Note_off_c, 0, 74, 60
1, 84367, Control_c, 0, 64, 62
1, 84382, Control_c, 0, 64, 61
1, 84397, Control_c, 0, 64, 60
1, 84412, Control_c, 0, 64, 58
1, 84427, Control_c, 0, 64, 57
1, 84442, Control_c, 0, 64, 56
1, 84450, Note_on_c, 0, 74, 59
1, 84457, Control_c, 0, 64, 55
1, 84472, Control_c, 0, 64, 54
1, 84475, Note_on_c, 0, 62, 46
1, 84486, Control_c, 0, 64, 52
1, 84501, Control_c, 0, 64, 49
1, 84516, Control_c, 0, 64, 44
1, 84531, Control_c, 0, 64, 37
1, 84543, Note_off_c, 0, 62, 0
1, 84543, Note_on_c, 0, 62, 16
1, 84546, Control_c, 0, 64, 25
1, 84560, Control_c, 0, 64, 0
1, 84621, Control_c, 0, 64, 14
1, 84635, Control_c, 0, 64, 28
1, 84650, Control_c, 0, 64, 38
1, 84665, Control_c, 0, 64, 51
1, 84680, Control_c, 0, 64, 60
1, 84695, Control_c, 0, 64, 69
1, 84709, Control_c, 0, 64, 78
1, 84724, Control_c, 0, 64, 85
1, 84725, Note_off_c, 0, 74, 36
1, 84739, Control_c, 0, 64, 88
1, 84754, Control_c, 0, 64, 91
1, 84769, Control_c, 0, 64, 95
1, 84770, Note_off_c, 0, 62, 40
1, 84783, Control_c, 0, 64, 100
1, 84806, Control_c, 0, 64, 101
1, 84853, Note_on_c, 0, 72, 56
1, 84874, Note_on_c, 0, 60, 50
1, 84962, Note_off_c, 0, 60, 55
1, 84969, Control_c, 0, 64, 101
1, 84976, Note_off_c, 0, 72, 58
1, 84983, Control_c, 0, 64, 95
1, 84998, Note_on_c, 0, 26, 43
1, 84998, Control_c, 0, 64, 79
1, 85013, Control_c, 0, 64, 65
1, 85015, Note_on_c, 0, 38, 36
1, 85027, Control_c, 0, 64, 52
1, 85042, Control_c, 0, 64, 32
1, 85057, Control_c, 0, 64, 28
1, 85059, Note_off_c, 0, 26, 54
1, 85071, Note_on_c, 0, 72, 52
1, 85072, Control_c, 0, 64, 33
1, 85087, Note_on_c, 0, 60, 40
1, 85087, Control_c, 0, 64, 41
1, 85101, Control_c, 0, 64, 52
1, 85114, Note_off_c, 0, 38, 57
1, 85116, Control_c, 0, 64, 64
1, 85131, Control_c, 0, 64, 79
1, 85146, Control_c, 0, 64, 127
1, 85226, Note_off_c, 0, 72, 36
1, 85264, Note_off_c, 0, 60, 38
1, 85351, Note_on_c, 0, 52, 42
1, 85363, Note_on_c, 0, 46, 22
1, 85366, Note_on_c, 0, 55, 22
1, 85393, Note_off_c, 0, 52, 49
1, 85405, Note_off_c, 0, 46, 53
1, 85452, Note_off_c, 0, 55, 0
1, 85471, Note_on_c, 0, 55, 26
1, 85476, Note_on_c, 0, 46, 42
1, 85485, Note_on_c, 0, 52, 36
1, 85572, Note_on_c, 0, 59, 48
1, 85573, Note_on_c, 0, 71, 53
1, 85598, Note_off_c, 0, 71, 59
1, 85599, Note_off_c, 0, 59, 55
1, 85619, Note_off_c, 0, 46, 34
1, 85623, Note_off_c, 0, 55, 40
1, 85634, Note_off_c, 0, 52, 33
1, 85658, Note_on_c, 0, 71, 57
1, 85662, Note_on_c, 0, 59, 45
1, 85721, Note_on_c, 0, 52, 42
1, 85733, Note_on_c, 0, 55, 40
1, 85736, Note_on_c, 0, 47, 33
1, 85741, Note_off_c, 0, 59, 40
1, 85743, Note_off_c, 0, 71, 54
1, 85762, Note_off_c, 0, 52, 49
1, 85779, Note_off_c, 0, 55, 45
1, 85816, Note_off_c, 0, 47, 0
1, 85833, Note_on_c, 0, 55, 34
1, 85834, Note_on_c, 0, 52, 39
1, 85839, Note_on_c, 0, 47, 26
1, 85873, Note_on_c, 0, 70, 56
1, 85888, Note_on_c, 0, 58, 38
1, 85890, Note_off_c, 0, 47, 59
1, 85900, Note_off_c, 0, 70, 60
1, 85901, Note_off_c, 0, 55, 56
1, 85911, Note_off_c, 0, 52, 55
1, 85950, Note_off_c, 0, 58, 0
1, 85955, Note_on_c, 0, 70, 64
1, 85964, Note_on_c, 0, 58, 35
1, 86031, Note_on_c, 0, 46, 43
1, 86037, Note_on_c, 0, 55, 38
1, 86042, Note_on_c, 0, 52, 39
1, 86052, Note_off_c, 0, 70, 59
1, 86066, Note_off_c, 0, 46, 50
1, 86074, Note_off_c, 0, 58, 37
1, 86100, Note_off_c, 0, 55, 0
1, 86112, Note_off_c, 0, 52, 0
1, 86117, Note_on_c, 0, 55, 36
1, 86129, Note_on_c, 0, 52, 38
1, 86141, Note_on_c, 0, 46, 48
1, 86164, Note_on_c, 0, 69, 55
1, 86177, Note_on_c, 0, 57, 39
1, 86182, Note_off_c, 0, 55, 59
1, 86184, Note_off_c, 0, 52, 63
1, 86186, Note_off_c, 0, 69, 64
1, 86228, Note_off_c, 0, 46, 59
1, 86232, Note_off_c, 0, 57, 0
1, 86245, Note_on_c, 0, 57, 40
1, 86249, Note_on_c, 0, 69, 68
1, 86323, Note_off_c, 0, 69, 61
1, 86332, Note_on_c, 0, 46, 44
1, 86338, Note_on_c, 0, 45, 42
1, 86338, Note_on_c, 0, 52, 48
1, 86343, Note_off_c, 0, 57, 37
1, 86363, Note_off_c, 0, 46, 57
1, 86371, Note_off_c, 0, 52, 53
1, 86374, Note_off_c, 0, 45, 49
1, 86445, Note_on_c, 0, 52, 33
1, 86446, Note_on_c, 0, 68, 65
1, 86450, Note_on_c, 0, 46, 47
1, 86454, Note_on_c, 0, 45, 39
1, 86457, Note_on_c, 0, 56, 51
1, 86466, Control_c, 0, 64, 98
1, 86477, Note_off_c, 0, 68, 63
1, 86481, Control_c, 0, 64, 75
1, 86484, Note_off_c, 0, 46, 61
1, 86489, Note_off_c, 0, 56, 49
1, 86496, Control_c, 0, 64, 63
1, 86503, Note_off_c, 0, 52, 43
1, 86510, Note_off_c, 0, 45, 58
1, 86511, Control_c, 0, 64, 54
1, 86526, Control_c, 0, 64, 47
1, 86529, Note_on_c, 0, 68, 67
1, 86538, Note_on_c, 0, 56, 46
1, 86541, Control_c, 0, 64, 46
1, 86555, Control_c, 0, 64, 49
1, 86570, Control_c, 0, 64, 53
1, 86585, Control_c, 0, 64, 59
1, 86599, Control_c, 0, 64, 63
1, 86610, Note_on_c, 0, 44, 56
1, 86613, Note_on_c, 0, 46, 48
1, 86614, Control_c, 0, 64, 68
1, 86615, Note_on_c, 0, 52, 57
1, 86629, Control_c, 0, 64, 74
1, 86644, Control_c, 0, 64, 78
1, 86650, Note_off_c, 0, 68, 56
1, 86655, Note_off_c, 0, 46, 60
1, 86659, Control_c, 0, 64, 81
1, 86663, Note_off_c, 0, 44, 55
1, 86663, Note_off_c, 0, 52, 55
1, 86673, Control_c, 0, 64, 86
1, 86676, Note_off_c, 0, 56, 35
1, 86688, Control_c, 0, 64, 89
1, 86703, Control_c, 0, 64, 92
1, 86718, Control_c, 0, 64, 93
1, 86733, Control_c, 0, 64, 92
1, 86740, Note_on_c, 0, 67, 57
1, 86747, Note_on_c, 0, 52, 24
1, 86747, Control_c, 0, 64, 87
1, 86749, Note_on_c, 0, 55, 43
1, 86761, Note_off_c, 0, 67, 66
1, 86762, Control_c, 0, 64, 75
1, 86772, Note_on_c, 0, 46, 19
1, 86777, Control_c, 0, 64, 65
1, 86786, Poly_aftertouch_c, 0, 44, 127
1, 86790, Note_off_c, 0, 52, 53
1, 86790, Note_off_c, 0, 55, 45
1, 86792, Control_c, 0, 64, 58
1, 86806, Control_c, 0, 64, 50
1, 86821, Control_c, 0, 64, 48
1, 86823, Poly_aftertouch_c, 0, 44, 0
1, 86824, Note_on_c, 0, 55, 47
1, 86827, Note_on_c, 0, 67, 71
1, 86836, Control_c, 0, 64, 50
1, 86844, Note_off_c, 0, 46, 0
1, 86851, Control_c, 0, 64, 53
1, 86862, Note_on_c, 0, 46, 34
1, 86866, Control_c, 0, 64, 59
1, 86880, Note_on_c, 0, 52, 36
1, 86880, Control_c, 0, 64, 63
1, 86882, Note_on_c, 0, 43, 37
1, 86886, Note_off_c, 0, 67, 58
1, 86895, Control_c, 0, 64, 67
1, 86910, Control_c, 0, 64, 72
1, 86925, Note_off_c, 0, 55, 37
1, 86925, Control_c, 0, 64, 75
1, 86930, Note_off_c, 0, 46, 0
1, 86932, Note_off_c, 0, 52, 0
1, 86940, Control_c, 0, 64, 77
1, 86949, Note_on_c, 0, 52, 41
1, 86954, Note_off_c, 0, 43, 0
1, 86954, Note_on_c, 0, 43, 38
1, 86954, Note_on_c, 0, 46, 38
1, 86955, Control_c, 0, 64, 78
1, 86970, Control_c, 0, 64, 79
1, 86985, Control_c, 0, 64, 79
1, 86998, Note_off_c, 0, 52, 64
1, 87023, Note_on_c, 0, 66, 68
1, 87029, Control_c, 0, 64, 79
1, 87033, Note_off_c, 0, 46, 57
1, 87038, Note_on_c, 0, 54, 53
1, 87044, Control_c, 0, 64, 74
1, 87057, Note_off_c, 0, 43, 57
1, 87061, Note_off_c, 0, 66, 63
1, 87067, Control_c, 0, 64, 67
1, 87077, Note_off_c, 0, 54, 50
1, 87082, Control_c, 0, 64, 60
1, 87097, Control_c, 0, 64, 51
1, 87111, Control_c, 0, 64, 41
1, 87122, Note_on_c, 0, 54, 47
1, 87126, Control_c, 0, 64, 37
1, 87128, Poly_aftertouch_c, 0, 66, 127
1, 87141, Control_c, 0, 64, 37
1, 87156, Control_c, 0, 64, 40
1, 87163, Note_on_c, 0, 42, 55
1, 87171, Control_c, 0, 64, 44
1, 87172, Note_on_c, 0, 46, 45
1, 87185, Control_c, 0, 64, 49
1, 87200, Control_c, 0, 64, 55
1, 87208, Note_off_c, 0, 46, 49
1, 87212, Note_off_c, 0, 42, 54
1, 87215, Control_c, 0, 64, 60
1, 87219, Poly_aftertouch_c, 0, 66, 0
1, 87229, Control_c, 0, 64, 65
1, 87231, Note_off_c, 0, 54, 51
1, 87244, Control_c, 0, 64, 69
1, 87259, Control_c, 0, 64, 72
1, 87266, Note_on_c, 0, 46, 53
1, 87274, Control_c, 0, 64, 73
1, 87283, Poly_aftertouch_c, 0, 42, 127
1, 87289, Control_c, 0, 64, 74
1, 87304, Control_c, 0, 64, 75
1, 87318, Note_off_c, 0, 46, 56
1, 87322, Poly_aftertouch_c, 0, 42, 0
1, 87324, Note_on_c, 0, 65, 61
1, 87333, Control_c, 0, 64, 75
1, 87348, Note_on_c, 0, 53, 24
1, 87348, Control_c, 0, 64, 73
1, 87350, Note_off_c, 0, 65, 68
1, 87363, Control_c, 0, 64, 68
1, 87378, Control_c, 0, 64, 63
1, 87393, Control_c, 0, 64, 55
1, 87408, Control_c, 0, 64, 45
1, 87408, Note_off_c, 0, 53, 0
1, 87408, Note_on_c, 0, 53, 25
1, 87412, Note_on_c, 0, 65, 69
1, 87422, Control_c, 0, 64, 37
1, 87437, Control_c, 0, 64, 37
1, 87448, Note_on_c, 0, 46, 44
1, 87450, Note_on_c, 0, 41, 49
1, 87452, Control_c, 0, 64, 39
1, 87467, Control_c, 0, 64, 42
1, 87482, Control_c, 0, 64, 47
1, 87482, Note_off_c, 0, 65, 59
1, 87486, Note_off_c, 0, 46, 49
1, 87494, Note_off_c, 0, 41, 45
1, 87496, Control_c, 0, 64, 53
1, 87511, Control_c, 0, 64, 58
1, 87526, Control_c, 0, 64, 64
1, 87533, Note_off_c, 0, 53, 48
1, 87541, Control_c, 0, 64, 68
1, 87552, Note_on_c, 0, 41, 41
1, 87555, Note_on_c, 0, 46, 44
1, 87555, Control_c, 0, 64, 71
1, 87570, Control_c, 0, 64, 73
1, 87585, Control_c, 0, 64, 75
1, 87600, Control_c, 0, 64, 76
1, 87615, Control_c, 0, 64, 76
1, 87617, Note_off_c, 0, 41, 57
1, 87623, Note_on_c, 0, 64, 46
1, 87626, Note_off_c, 0, 46, 54
1, 87629, Control_c, 0, 64, 76
1, 87634, Note_on_c, 0, 52, 34
1, 87644, Control_c, 0, 64, 72
1, 87649, Note_off_c, 0, 64, 55
1, 87659, Control_c, 0, 64, 66
1, 87674, Control_c, 0, 64, 59
1, 87689, Control_c, 0, 64, 50
1, 87692, Note_off_c, 0, 52, 0
1, 87692, Note_on_c, 0, 52, 44
1, 87700, Note_on_c, 0, 64, 68
1, 87703, Control_c, 0, 64, 38
1, 87718, Control_c, 0, 64, 30
1, 87748, Control_c, 0, 64, 31
1, 87752, Note_on_c, 0, 40, 49
1, 87756, Note_on_c, 0, 43, 43
1, 87756, Note_on_c, 0, 46, 38
1, 87763, Control_c, 0, 64, 35
1, 87779, Control_c, 0, 64, 40
1, 87799, Note_off_c, 0, 46, 50
1, 87801, Note_off_c, 0, 43, 54
1, 87801, Control_c, 0, 64, 46
1, 87801, Note_off_c, 0, 64, 59
1, 87806, Note_off_c, 0, 40, 61
1, 87816, Control_c, 0, 64, 54
1, 87831, Control_c, 0, 64, 60
1, 87834, Note_off_c, 0, 52, 34
1, 87846, Control_c, 0, 64, 64
1, 87860, Control_c, 0, 64, 68
1, 87875, Control_c, 0, 64, 71
1, 87888, Note_on_c, 0, 40, 36
1, 87890, Note_on_c, 0, 46, 36
1, 87890, Control_c, 0, 64, 74
1, 87900, Note_on_c, 0, 43, 41
1, 87905, Control_c, 0, 64, 77
1, 87920, Control_c, 0, 64, 79
1, 87931, Note_on_c, 0, 63, 67
1, 87949, Control_c, 0, 64, 78
1, 87950, Note_on_c, 0, 51, 44
1, 87954, Note_off_c, 0, 40, 57
1, 87958, Note_off_c, 0, 43, 53
1, 87959, Note_off_c, 0, 46, 47
1, 87961, Note_off_c, 0, 63, 66
1, 87964, Control_c, 0, 64, 74
1, 87978, Control_c, 0, 64, 67
1, 87989, Note_off_c, 0, 51, 43
1, 87993, Control_c, 0, 64, 61
1, 88008, Control_c, 0, 64, 52
1, 88014, Note_on_c, 0, 63, 70
1, 88023, Control_c, 0, 64, 44
1, 88024, Note_on_c, 0, 51, 44
1, 88038, Control_c, 0, 64, 43
1, 88052, Control_c, 0, 64, 45
1, 88067, Control_c, 0, 64, 48
1, 88079, Note_on_c, 0, 39, 51
1, 88079, Note_on_c, 0, 43, 45
1, 88080, Note_on_c, 0, 46, 50
1, 88082, Control_c, 0, 64, 53
1, 88097, Control_c, 0, 64, 58
1, 88112, Control_c, 0, 64, 64
1, 88125, Note_off_c, 0, 63, 53
1, 88126, Control_c, 0, 64, 68
1, 88131, Note_off_c, 0, 43, 53
1, 88141, Control_c, 0, 64, 74
1, 88150, Note_off_c, 0, 51, 35
1, 88156, Control_c, 0, 64, 79
1, 88160, Note_off_c, 0, 39, 0
1, 88161, Note_off_c, 0, 46, 36
1, 88171, Control_c, 0, 64, 84
1, 88186, Control_c, 0, 64, 87
1, 88197, Poly_aftertouch_c, 0, 39, 127
1, 88201, Control_c, 0, 64, 88
1, 88205, Note_on_c, 0, 46, 39
1, 88225, Note_on_c, 0, 43, 33
1, 88231, Control_c, 0, 64, 83
1, 88239, Note_on_c, 0, 64, 55
1, 88246, Control_c, 0, 64, 73
1, 88251, Note_on_c, 0, 52, 41
1, 88260, Control_c, 0, 64, 65
1, 88263, Note_off_c, 0, 64, 59
1, 88275, Control_c, 0, 64, 58
1, 88284, Note_off_c, 0, 46, 50
1, 88287, Note_off_c, 0, 43, 43
1, 88290, Poly_aftertouch_c, 0, 39, 0
1, 88290, Control_c, 0, 64, 48
1, 88305, Control_c, 0, 64, 46
1, 88308, Note_off_c, 0, 52, 0
1, 88320, Control_c, 0, 64, 47
1, 88321, Note_on_c, 0, 52, 49
1, 88322, Note_on_c, 0, 64, 68
1, 88334, Control_c, 0, 64, 51
1, 88349, Control_c, 0, 64, 55
1, 88364, Control_c, 0, 64, 60
1, 88378, Control_c, 0, 64, 64
1, 88387, Note_on_c, 0, 43, 51
1, 88392, Note_on_c, 0, 40, 54
1, 88392, Note_off_c, 0, 52, 56
1, 88393, Control_c, 0, 64, 71
1, 88399, Note_on_c, 0, 46, 46
1, 88408, Control_c, 0, 64, 78
1, 88423, Control_c, 0, 64, 85
1, 88425, Note_off_c, 0, 43, 61
1, 88426, Note_off_c, 0, 64, 58
1, 88438, Control_c, 0, 64, 88
1, 88439, Note_off_c, 0, 46, 49
1, 88449, Note_off_c, 0, 40, 49
1, 88452, Control_c, 0, 64, 89
1, 88467, Control_c, 0, 64, 89
1, 88482, Control_c, 0, 64, 83
1, 88497, Control_c, 0, 64, 74
1, 88502, Note_on_c, 0, 40, 43
1, 88512, Control_c, 0, 64, 65
1, 88514, Note_on_c, 0, 46, 38
1, 88520, Note_on_c, 0, 65, 67
1, 88526, Control_c, 0, 64, 57
1, 88529, Note_on_c, 0, 43, 41
1, 88538, Note_on_c, 0, 53, 41
1, 88549, Control_c, 0, 64, 50
1, 88550, Note_off_c, 0, 65, 67
1, 88564, Control_c, 0, 64, 48
1, 88565, Note_off_c, 0, 40, 61
1, 88568, Note_off_c, 0, 43, 52
1, 88579, Control_c, 0, 64, 51
1, 88582, Note_off_c, 0, 46, 43
1, 88594, Control_c, 0, 64, 54
1, 88598, Note_off_c, 0, 53, 0
1, 88609, Control_c, 0, 64, 58
1, 88610, Note_on_c, 0, 53, 46
1, 88610, Note_on_c, 0, 65, 78
1, 88624, Control_c, 0, 64, 63
1, 88639, Control_c, 0, 64, 67
1, 88654, Control_c, 0, 64, 73
1, 88669, Control_c, 0, 64, 79
1, 88675, Note_on_c, 0, 41, 59
1, 88682, Note_on_c, 0, 46, 52
1, 88683, Control_c, 0, 64, 84
1, 88696, Note_off_c, 0, 65, 60
1, 88698, Control_c, 0, 64, 90
1, 88713, Control_c, 0, 64, 98
1, 88714, Note_off_c, 0, 53, 37
1, 88720, Note_off_c, 0, 41, 62
1, 88720, Note_off_c, 0, 46, 58
1, 88728, Control_c, 0, 64, 109
1, 88743, Control_c, 0, 64, 127
1, 88772, Control_c, 0, 64, 108
1, 88787, Control_c, 0, 64, 88
1, 88801, Control_c, 0, 64, 73
1, 88803, Note_on_c, 0, 41, 52
1, 88804, Note_on_c, 0, 66, 71
1, 88809, Note_on_c, 0, 46, 49
1, 88816, Control_c, 0, 64, 63
1, 88818, Note_on_c, 0, 54, 55
1, 88831, Control_c, 0, 64, 55
1, 88833, Note_off_c, 0, 66, 63
1, 88842, Note_off_c, 0, 41, 64
1, 88846, Control_c, 0, 64, 48
1, 88849, Note_off_c, 0, 54, 49
1, 88860, Note_off_c, 0, 46, 50
1, 88861, Control_c, 0, 64, 48
1, 88875, Control_c, 0, 64, 52
1, 88878, Note_on_c, 0, 66, 75
1, 88887, Note_on_c, 0, 54, 54
1, 88890, Control_c, 0, 64, 56
1, 88905, Control_c, 0, 64, 61
1, 88920, Control_c, 0, 64, 67
1, 88935, Control_c, 0, 64, 75
1, 88949, Control_c, 0, 64, 83
1, 88953, Note_on_c, 0, 42, 61
1, 88964, Control_c, 0, 64, 94
1, 88969, Note_on_c, 0, 46, 52
1, 88979, Control_c, 0, 64, 106
1, 88991, Note_off_c, 0, 54, 61
1, 88994, Control_c, 0, 64, 127
1, 88997, Note_off_c, 0, 42, 60
1, 89001, Note_off_c, 0, 66, 60
1, 89062, Note_off_c, 0, 46, 0
1, 89062, Note_on_c, 0, 46, 3
1, 89065, Note_on_c, 0, 42, 38
1, 89068, Control_c, 0, 64, 103
1, 89083, Control_c, 0, 64, 78
1, 89087, Note_on_c, 0, 67, 70
1, 89092, Note_on_c, 0, 55, 64
1, 89098, Control_c, 0, 64, 65
1, 89101, Note_off_c, 0, 42, 56
1, 89113, Control_c, 0, 64, 57
1, 89113, Note_off_c, 0, 67, 69
1, 89114, Note_off_c, 0, 55, 67
1, 89122, Note_off_c, 0, 46, 62
1, 89128, Control_c, 0, 64, 49
1, 89143, Control_c, 0, 64, 45
1, 89157, Control_c, 0, 64, 48
1, 89167, Note_on_c, 0, 67, 83
1, 89170, Note_on_c, 0, 55, 68
1, 89172, Control_c, 0, 64, 52
1, 89187, Control_c, 0, 64, 57
1, 89201, Control_c, 0, 64, 62
1, 89216, Control_c, 0, 64, 68
1, 89231, Control_c, 0, 64, 74
1, 89246, Control_c, 0, 64, 81
1, 89250, Note_off_c, 0, 55, 56
1, 89257, Note_on_c, 0, 43, 59
1, 89259, Note_on_c, 0, 52, 62
1, 89261, Note_on_c, 0, 46, 52
1, 89261, Control_c, 0, 64, 89
1, 89272, Note_off_c, 0, 67, 63
1, 89275, Control_c, 0, 64, 100
1, 89290, Control_c, 0, 64, 127
1, 89308, Note_off_c, 0, 46, 61
1, 89322, Note_off_c, 0, 52, 58
1, 89383, Note_on_c, 0, 68, 77
1, 89393, Note_on_c, 0, 56, 68
1, 89402, Note_on_c, 0, 46, 65
1, 89402, Control_c, 0, 64, 86
1, 89409, Note_off_c, 0, 68, 63
1, 89417, Note_on_c, 0, 52, 45
1, 89417, Control_c, 0, 64, 68
1, 89422, Note_off_c, 0, 56, 67
1, 89432, Control_c, 0, 64, 58
1, 89447, Control_c, 0, 64, 47
1, 89462, Control_c, 0, 64, 44
1, 89467, Note_on_c, 0, 68, 78
1, 89477, Control_c, 0, 64, 48
1, 89477, Note_on_c, 0, 56, 71
1, 89492, Control_c, 0, 64, 53
1, 89506, Control_c, 0, 64, 59
1, 89507, Note_on_c, 0, 44, 62
1, 89521, Control_c, 0, 64, 65
1, 89530, Note_off_c, 0, 43, 37
1, 89536, Control_c, 0, 64, 77
1, 89551, Control_c, 0, 64, 94
1, 89563, Note_off_c, 0, 56, 62
1, 89566, Control_c, 0, 64, 127
1, 89572, Note_off_c, 0, 68, 58
1, 89600, Note_off_c, 0, 44, 61
1, 89603, Note_off_c, 0, 46, 19
1, 89634, Note_off_c, 0, 52, 57
1, 89647, Note_on_c, 0, 69, 71
1, 89650, Note_on_c, 0, 57, 68
1, 89669, Control_c, 0, 64, 89
1, 89673, Note_off_c, 0, 69, 65
1, 89676, Note_off_c, 0, 57, 65
1, 89684, Control_c, 0, 64, 66
1, 89698, Control_c, 0, 64, 54
1, 89713, Control_c, 0, 64, 47
1, 89728, Control_c, 0, 64, 51
1, 89729, Note_on_c, 0, 57, 75
1, 89731, Note_on_c, 0, 69, 78
1, 89743, Control_c, 0, 64, 59
1, 89758, Control_c, 0, 64, 69
1, 89772, Control_c, 0, 64, 97
1, 89778, Note_on_c, 0, 52, 56
1, 89780, Note_on_c, 0, 45, 55
1, 89781, Note_on_c, 0, 55, 57
1, 89787, Control_c, 0, 64, 127
1, 89811, Note_off_c, 0, 55, 67
1, 89833, Note_off_c, 0, 57, 53
1, 89853, Note_on_c, 0, 46, 64
1, 89863, Note_off_c, 0, 69, 63
1, 89888, Note_off_c, 0, 52, 65
1, 89894, Note_off_c, 0, 45, 62
1, 89924, Note_off_c, 0, 46, 65
1, 89979, Note_on_c, 0, 70, 77
1, 89982, Note_on_c, 0, 58, 76
1, 90007, Note_off_c, 0, 70, 60
1, 90010, Note_off_c, 0, 58, 63
1, 90037, Control_c, 0, 64, 64
1, 90060, Control_c, 0, 64, 27
1, 90075, Control_c, 0, 64, 0
1, 90085, Note_on_c, 0, 70, 84
1, 90092, Note_on_c, 0, 25, 78
1, 90092, Note_on_c, 0, 58, 76
1, 90099, Note_on_c, 0, 37, 76
1, 90104, Control_c, 0, 64, 20
1, 90119, Note_off_c, 0, 25, 64
1, 90119, Control_c, 0, 64, 60
1, 90128, Note_off_c, 0, 37, 66
1, 90134, Control_c, 0, 64, 127
1, 90201, Note_off_c, 0, 70, 61
1, 90204, Note_off_c, 0, 58, 61
1, 90288, Note_on_c, 0, 46, 71
1, 90302, Note_on_c, 0, 55, 60
1, 90309, Note_on_c, 0, 52, 51
1, 90309, Note_on_c, 0, 69, 74
1, 90310, Note_on_c, 0, 57, 74
1, 90324, Note_off_c, 0, 55, 64
1, 90332, Note_off_c, 0, 52, 64
1, 90332, Note_off_c, 0, 57, 67
1, 90335, Note_off_c, 0, 69, 64
1, 90338, Note_off_c, 0, 46, 57
1, 90384, Note_on_c, 0, 57, 83
1, 90388, Note_on_c, 0, 69, 84
1, 90404, Note_on_c, 0, 55, 64
1, 90407, Note_on_c, 0, 52, 70
1, 90425, Note_on_c, 0, 45, 21
1, 90426, Note_off_c, 0, 57, 63
1, 90437, Note_off_c, 0, 55, 60
1, 90440, Note_off_c, 0, 52, 64
1, 90449, Note_off_c, 0, 69, 68
1, 90458, Note_off_c, 0, 45, 0
1, 90458, Note_on_c, 0, 45, 27
1, 90475, Note_on_c, 0, 52, 58
1, 90503, Note_off_c, 0, 52, 70
1, 90511, Note_off_c, 0, 45, 62
1, 90512, Poly_aftertouch_c, 0, 55, 0
1, 90583, Note_on_c, 0, 82, 86
1, 90588, Note_on_c, 0, 70, 85
1, 90603, Note_off_c, 0, 82, 70
1, 90605, Note_off_c, 0, 70, 73
1, 90624, Control_c, 0, 64, 117
1, 90639, Control_c, 0, 64, 63
1, 90654, Control_c, 0, 64, 38
1, 90656, Note_on_c, 0, 82, 92
1, 90660, Note_on_c, 0, 70, 80
1, 90669, Control_c, 0, 64, 0
1, 90699, Control_c, 0, 64, 10
1, 90702, Note_on_c, 0, 58, 64
1, 90702, Note_on_c, 0, 67, 68
1, 90706, Note_on_c, 0, 64, 56
1, 90713, Control_c, 0, 64, 33
1, 90726, Note_off_c, 0, 64, 63
1, 90727, Note_off_c, 0, 67, 68
1, 90728, Control_c, 0, 64, 48
1, 90732, Note_off_c, 0, 58, 66
1, 90743, Control_c, 0, 64, 62
1, 90758, Control_c, 0, 64, 86
1, 90772, Control_c, 0, 64, 127
1, 90797, Note_on_c, 0, 67, 67
1, 90801, Note_off_c, 0, 70, 60
1, 90803, Note_off_c, 0, 82, 59
1, 90803, Note_on_c, 0, 57, 61
1, 90804, Note_on_c, 0, 64, 68
1, 90820, Note_off_c, 0, 67, 71
1, 90836, Note_off_c, 0, 64, 59
1, 90848, Note_off_c, 0, 57, 54
1, 90890, Note_on_c, 0, 81, 75
1, 90896, Note_on_c, 0, 69, 68
1, 90913, Note_off_c, 0, 69, 69
1, 90914, Note_off_c, 0, 81, 68
1, 90928, Control_c, 0, 64, 95
1, 90943, Control_c, 0, 64, 61
1, 90958, Control_c, 0, 64, 37
1, 90973, Control_c, 0, 64, 8
1, 90982, Note_on_c, 0, 81, 76
1, 90988, Control_c, 0, 64, 23
1, 90993, Note_on_c, 0, 69, 52
1, 91003, Control_c, 0, 64, 42
1, 91018, Control_c, 0, 64, 61
1, 91033, Control_c, 0, 64, 127
1, 91101, Note_off_c, 0, 81, 59
1, 91145, Note_off_c, 0, 69, 61
1, 91304, Note_on_c, 0, 64, 50
1, 91304, Note_on_c, 0, 76, 53
1, 91325, Note_off_c, 0, 76, 62
1, 91328, Note_off_c, 0, 64, 57
1, 91329, Control_c, 0, 64, 61
1, 91343, Control_c, 0, 64, 12
1, 91358, Control_c, 0, 64, 0
1, 91361, Note_on_c, 0, 26, 62
1, 91373, Note_on_c, 0, 76, 68
1, 91375, Note_on_c, 0, 38, 46
1, 91379, Note_on_c, 0, 64, 48
1, 91387, Control_c, 0, 64, 41
1, 91390, Note_off_c, 0, 26, 53
1, 91402, Control_c, 0, 64, 66
1, 91407, Note_off_c, 0, 38, 53
1, 91417, Control_c, 0, 64, 127
1, 91474, Note_off_c, 0, 64, 51
1, 91499, Note_off_c, 0, 76, 57
1, 91557, Note_on_c, 0, 52, 69
1, 91569, Note_on_c, 0, 47, 50
1, 91590, Note_on_c, 0, 44, 35
1, 91599, Note_off_c, 0, 47, 63
1, 91600, Note_off_c, 0, 52, 59
1, 91607, Note_on_c, 0, 77, 64
1, 91626, Note_off_c, 0, 77, 65
1, 91627, Note_off_c, 0, 44, 44
1, 91665, Poly_aftertouch_c, 0, 65, 127
1, 91670, Note_on_c, 0, 65, 11
1, 91674, Note_on_c, 0, 77, 85
1, 91680, Note_on_c, 0, 44, 53
1, 91683, Note_on_c, 0, 47, 62
1, 91694, Note_on_c, 0, 53, 51
1, 91715, Note_off_c, 0, 47, 64
1, 91716, Note_off_c, 0, 77, 62
1, 91739, Note_off_c, 0, 53, 0
1, 91744, Note_off_c, 0, 65, 60
1, 91753, Note_on_c, 0, 53, 53
1, 91793, Note_off_c, 0, 44, 57
1, 91800, Note_off_c, 0, 53, 66
1, 91827, Poly_aftertouch_c, 0, 47, 127
1, 91851, Note_on_c, 0, 73, 74
1, 91858, Note_on_c, 0, 61, 73
1, 91863, Poly_aftertouch_c, 0, 47, 0
1, 91875, Note_off_c, 0, 73, 67
1, 91883, Note_off_c, 0, 61, 66
1, 91915, Control_c, 0, 64, 73
1, 91922, Note_on_c, 0, 73, 75
1, 91930, Control_c, 0, 64, 51
1, 91939, Note_on_c, 0, 61, 65
1, 91945, Control_c, 0, 64, 20
1, 91960, Control_c, 0, 64, 0
1, 91974, Control_c, 0, 64, 20
1, 91986, Note_on_c, 0, 59, 39
1, 91989, Control_c, 0, 64, 36
1, 92004, Control_c, 0, 64, 51
1, 92018, Control_c, 0, 64, 68
1, 92026, Note_off_c, 0, 61, 52
1, 92028, Note_off_c, 0, 59, 0
1, 92033, Control_c, 0, 64, 127
1, 92043, Note_on_c, 0, 59, 45
1, 92045, Note_on_c, 0, 65, 60
1, 92049, Note_on_c, 0, 56, 62
1, 92049, Note_off_c, 0, 73, 54
1, 92077, Note_off_c, 0, 65, 67
1, 92100, Note_off_c, 0, 56, 63
1, 92121, Note_off_c, 0, 59, 58
1, 92149, Note_on_c, 0, 62, 59
1, 92149, Note_on_c, 0, 74, 58
1, 92169, Note_off_c, 0, 74, 66
1, 92172, Note_off_c, 0, 62, 58
1, 92210, Control_c, 0, 64, 74
1, 92225, Control_c, 0, 64, 56
1, 92237, Note_on_c, 0, 62, 49
1, 92237, Note_on_c, 0, 74, 67
1, 92240, Control_c, 0, 64, 46
1, 92255, Control_c, 0, 64, 49
1, 92270, Control_c, 0, 64, 60
1, 92292, Control_c, 0, 64, 76
1, 92307, Control_c, 0, 64, 127
1, 92308, Note_off_c, 0, 74, 59
1, 92351, Note_off_c, 0, 62, 58
1, 92517, Note_on_c, 0, 68, 66
1, 92533, Note_on_c, 0, 56, 53
1, 92538, Note_off_c, 0, 68, 64
1, 92544, Control_c, 0, 64, 65
1, 92559, Control_c, 0, 64, 30
1, 92574, Control_c, 0, 64, 0
1, 92578, Note_off_c, 0, 56, 0
1, 92586, Note_on_c, 0, 25, 74
1, 92587, Note_on_c, 0, 68, 79
1, 92588, Note_on_c, 0, 37, 75
1, 92588, Note_on_c, 0, 56, 62
1, 92589, Control_c, 0, 64, 29
1, 92604, Control_c, 0, 64, 56
1, 92609, Note_off_c, 0, 25, 66
1, 92619, Control_c, 0, 64, 127
1, 92620, Note_off_c, 0, 37, 64
1, 92682, Note_off_c, 0, 56, 58
1, 92684, Note_off_c, 0, 68, 56
1, 92749, Note_on_c, 0, 44, 70
1, 92757, Note_on_c, 0, 52, 65
1, 92783, Note_off_c, 0, 44, 61
1, 92790, Note_off_c, 0, 52, 66
1, 92800, Note_on_c, 0, 57, 56
1, 92803, Note_on_c, 0, 69, 53
1, 92821, Note_off_c, 0, 57, 61
1, 92822, Note_off_c, 0, 69, 64
1, 92857, Note_on_c, 0, 57, 81
1, 92861, Note_on_c, 0, 44, 65
1, 92865, Note_on_c, 0, 69, 85
1, 92873, Note_on_c, 0, 52, 53
1, 92890, Note_off_c, 0, 44, 62
1, 92901, Note_off_c, 0, 57, 64
1, 92902, Note_off_c, 0, 52, 61
1, 92929, Note_off_c, 0, 69, 67
1, 92960, Note_on_c, 0, 45, 81
1, 92965, Note_on_c, 0, 52, 85
1, 92988, Note_off_c, 0, 45, 68
1, 92993, Note_off_c, 0, 52, 67
1, 93072, Note_on_c, 0, 70, 88
1, 93072, Note_on_c, 0, 82, 76
1, 93090, Note_off_c, 0, 70, 71
1, 93093, Note_off_c, 0, 82, 72
1, 93141, Note_on_c, 0, 82, 92
1, 93143, Note_on_c, 0, 70, 88
1, 93145, Control_c, 0, 64, 88
1, 93160, Control_c, 0, 64, 56
1, 93174, Control_c, 0, 64, 0
1, 93202, Note_on_c, 0, 58, 55
1, 93204, Note_on_c, 0, 67, 59
1, 93206, Note_on_c, 0, 64, 50
1, 93219, Control_c, 0, 64, 32
1, 93224, Note_off_c, 0, 58, 61
1, 93224, Note_off_c, 0, 67, 65
1, 93229, Note_off_c, 0, 64, 59
1, 93234, Control_c, 0, 64, 51
1, 93248, Control_c, 0, 64, 68
1, 93251, Note_off_c, 0, 70, 58
1, 93251, Note_off_c, 0, 82, 60
1, 93263, Control_c, 0, 64, 127
1, 93274, Note_on_c, 0, 67, 75
1, 93277, Note_on_c, 0, 64, 72
1, 93279, Note_on_c, 0, 57, 69
1, 93296, Note_off_c, 0, 67, 71
1, 93308, Note_off_c, 0, 64, 64
1, 93317, Note_off_c, 0, 57, 60
1, 93345, Note_on_c, 0, 81, 77
1, 93352, Note_on_c, 0, 69, 64
1, 93367, Note_off_c, 0, 81, 70
1, 93369, Note_off_c, 0, 69, 68
1, 93383, Control_c, 0, 64, 66
1, 93397, Control_c, 0, 64, 48
1, 93412, Control_c, 0, 64, 41
1, 93425, Note_on_c, 0, 81, 79
1, 93427, Control_c, 0, 64, 49
1, 93429, Note_on_c, 0, 69, 74
1, 93442, Control_c, 0, 64, 64
1, 93457, Control_c, 0, 64, 127
1, 93495, Note_off_c, 0, 81, 61
1, 93531, Note_off_c, 0, 69, 62
1, 93650, Control_c, 0, 64, 104
1, 93662, Note_on_c, 0, 76, 68
1, 93664, Control_c, 0, 64, 58
1, 93673, Note_on_c, 0, 64, 45
1, 93678, Note_off_c, 0, 76, 69
1, 93679, Control_c, 0, 64, 0
1, 93717, Note_on_c, 0, 26, 70
1, 93717, Note_off_c, 0, 64, 0
1, 93722, Note_on_c, 0, 38, 67
1, 93724, Control_c, 0, 64, 18
1, 93726, Note_on_c, 0, 64, 64
1, 93731, Note_on_c, 0, 76, 86
1, 93738, Control_c, 0, 64, 57
1, 93750, Note_off_c, 0, 26, 60
1, 93753, Control_c, 0, 64, 127
1, 93754, Note_off_c, 0, 38, 65
1, 93824, Note_off_c, 0, 64, 55
1, 93844, Note_off_c, 0, 76, 58
1, 93904, Note_on_c, 0, 52, 73
1, 93914, Note_on_c, 0, 47, 58
1, 93930, Note_on_c, 0, 44, 44
1, 93948, Note_on_c, 0, 77, 76
1, 93951, Note_off_c, 0, 47, 64
1, 93954, Note_on_c, 0, 65, 59
1, 93955, Note_off_c, 0, 52, 62
1, 93963, Note_off_c, 0, 44, 51
1, 93970, Note_off_c, 0, 77, 68
1, 93974, Note_off_c, 0, 65, 65
1, 94017, Note_on_c, 0, 77, 88
1, 94021, Note_on_c, 0, 65, 80
1, 94035, Note_on_c, 0, 47, 58
1, 94040, Note_on_c, 0, 44, 57
1, 94046, Note_on_c, 0, 53, 49
1, 94067, Note_off_c, 0, 44, 58
1, 94067, Note_off_c, 0, 77, 63
1, 94082, Note_off_c, 0, 65, 64
1, 94082, Note_off_c, 0, 47, 0
1, 94097, Note_off_c, 0, 53, 0
1, 94103, Note_on_c, 0, 44, 60
1, 94107, Note_on_c, 0, 47, 47
1, 94109, Note_on_c, 0, 53, 52
1, 94137, Note_off_c, 0, 47, 66
1, 94139, Note_off_c, 0, 44, 64
1, 94146, Note_off_c, 0, 53, 61
1, 94225, Note_on_c, 0, 73, 67
1, 94230, Note_on_c, 0, 61, 69
1, 94246, Note_off_c, 0, 73, 69
1, 94249, Note_off_c, 0, 61, 67
1, 94301, Note_on_c, 0, 73, 83
1, 94308, Note_on_c, 0, 61, 77
1, 94309, Control_c, 0, 64, 71
1, 94324, Control_c, 0, 64, 54
1, 94339, Control_c, 0, 64, 24
1, 94353, Control_c, 0, 64, 0
1, 94385, Note_on_c, 0, 59, 66
1, 94393, Note_on_c, 0, 65, 63
1, 94398, Control_c, 0, 64, 14
1, 94408, Note_on_c, 0, 56, 42
1, 94413, Control_c, 0, 64, 34
1, 94417, Note_off_c, 0, 65, 63
1, 94425, Note_off_c, 0, 59, 60
1, 94428, Control_c, 0, 64, 46
1, 94437, Note_off_c, 0, 56, 50
1, 94443, Control_c, 0, 64, 57
1, 94456, Note_off_c, 0, 61, 54
1, 94458, Control_c, 0, 64, 66
1, 94473, Control_c, 0, 64, 81
1, 94486, Note_on_c, 0, 65, 65
1, 94487, Control_c, 0, 64, 99
1, 94491, Note_on_c, 0, 56, 57
1, 94502, Control_c, 0, 64, 103
1, 94505, Note_off_c, 0, 73, 38
1, 94514, Note_off_c, 0, 65, 67
1, 94517, Note_on_c, 0, 59, 31
1, 94531, Note_off_c, 0, 56, 61
1, 94547, Note_off_c, 0, 59, 59
1, 94578, Note_on_c, 0, 74, 61
1, 94583, Note_on_c, 0, 62, 55
1, 94583, Control_c, 0, 64, 101
1, 94598, Control_c, 0, 64, 98
1, 94606, Note_off_c, 0, 62, 61
1, 94607, Note_off_c, 0, 74, 64
1, 94613, Control_c, 0, 64, 93
1, 94628, Control_c, 0, 64, 89
1, 94643, Control_c, 0, 64, 86
1, 94658, Control_c, 0, 64, 84
1, 94672, Control_c, 0, 64, 80
1, 94687, Control_c, 0, 64, 75
1, 94698, Note_on_c, 0, 62, 51
1, 94702, Control_c, 0, 64, 70
1, 94707, Note_on_c, 0, 74, 56
1, 94717, Control_c, 0, 64, 66
1, 94732, Control_c, 0, 64, 61
1, 94746, Control_c, 0, 64, 50
1, 94761, Control_c, 0, 64, 20
1, 94776, Control_c, 0, 64, 0
1, 94835, Control_c, 0, 64, 16
1, 94850, Control_c, 0, 64, 42
1, 94865, Control_c, 0, 64, 62
1, 94880, Control_c, 0, 64, 127
1, 94887, Note_off_c, 0, 74, 36
1, 94941, Note_off_c, 0, 62, 54
1, 95185, Note_on_c, 0, 68, 52
1, 95195, Note_on_c, 0, 56, 41
1, 95267, Note_off_c, 0, 56, 40
1, 95273, Note_off_c, 0, 68, 55
1, 95375, Note_on_c, 0, 68, 52
1, 95388, Note_on_c, 0, 56, 47
1, 95436, Control_c, 0, 64, 93
1, 95450, Control_c, 0, 64, 69
1, 95465, Control_c, 0, 64, 57
1, 95480, Control_c, 0, 64, 50
1, 95495, Control_c, 0, 64, 52
1, 95503, Note_on_c, 0, 49, 53
1, 95510, Control_c, 0, 64, 58
1, 95521, Note_on_c, 0, 52, 38
1, 95525, Control_c, 0, 64, 66
1, 95540, Control_c, 0, 64, 84
1, 95549, Note_off_c, 0, 49, 62
1, 95555, Control_c, 0, 64, 127
1, 95561, Note_off_c, 0, 52, 50
1, 95621, Note_off_c, 0, 56, 42
1, 95642, Note_on_c, 0, 52, 42
1, 95670, Note_on_c, 0, 49, 33
1, 95705, Note_off_c, 0, 49, 51
1, 95709, Note_off_c, 0, 52, 48
1, 95727, Note_on_c, 0, 69, 58
1, 95731, Note_on_c, 0, 57, 53
1, 95752, Note_off_c, 0, 68, 27
1, 95760, Note_off_c, 0, 69, 64
1, 95760, Note_off_c, 0, 57, 55
1, 95818, Note_on_c, 0, 69, 63
1, 95832, Note_on_c, 0, 57, 50
1, 95876, Note_on_c, 0, 49, 58
1, 95878, Note_on_c, 0, 52, 46
1, 95887, Note_off_c, 0, 57, 55
1, 95909, Note_off_c, 0, 52, 59
1, 95909, Note_off_c, 0, 49, 66
1, 95922, Note_off_c, 0, 69, 63
1, 95996, Note_on_c, 0, 52, 53
1, 95997, Note_on_c, 0, 49, 57
1, 96055, Note_on_c, 0, 70, 70
1, 96064, Note_on_c, 0, 58, 60
1, 96067, Note_off_c, 0, 52, 58
1, 96078, Note_off_c, 0, 70, 68
1, 96083, Note_off_c, 0, 58, 63
1, 96091, Note_off_c, 0, 49, 57
1, 96136, Note_on_c, 0, 70, 79
1, 96140, Control_c, 0, 64, 70
1, 96155, Control_c, 0, 64, 56
1, 96162, Note_on_c, 0, 58, 63
1, 96170, Control_c, 0, 64, 37
1, 96184, Control_c, 0, 64, 27
1, 96199, Control_c, 0, 64, 33
1, 96214, Note_on_c, 0, 51, 59
1, 96214, Control_c, 0, 64, 42
1, 96218, Note_on_c, 0, 48, 57
1, 96218, Note_on_c, 0, 54, 55
1, 96229, Control_c, 0, 64, 56
1, 96244, Control_c, 0, 64, 71
1, 96255, Note_off_c, 0, 51, 62
1, 96258, Note_off_c, 0, 54, 62
1, 96259, Control_c, 0, 64, 127
1, 96261, Note_off_c, 0, 48, 64
1, 96271, Note_off_c, 0, 58, 59
1, 96275, Note_off_c, 0, 70, 59
1, 96333, Control_c, 0, 67, 123
1, 96343, Note_on_c, 0, 48, 54
1, 96348, Control_c, 0, 67, 117
1, 96350, Note_on_c, 0, 51, 46
1, 96352, Note_on_c, 0, 57, 68
1, 96352, Note_on_c, 0, 69, 67
1, 96354, Note_on_c, 0, 54, 43
1, 96363, Control_c, 0, 67, 108
1, 96374, Note_off_c, 0, 57, 65
1, 96377, Control_c, 0, 67, 100
1, 96378, Note_off_c, 0, 69, 69
1, 96379, Note_off_c, 0, 51, 54
1, 96384, Note_off_c, 0, 48, 63
1, 96392, Note_off_c, 0, 54, 49
1, 96392, Control_c, 0, 67, 92
1, 96407, Control_c, 0, 67, 83
1, 96422, Control_c, 0, 67, 73
1, 96433, Note_on_c, 0, 69, 74
1, 96437, Control_c, 0, 67, 63
1, 96437, Note_on_c, 0, 57, 70
1, 96452, Control_c, 0, 67, 53
1, 96461, Note_off_c, 0, 57, 65
1, 96465, Note_on_c, 0, 51, 57
1, 96466, Control_c, 0, 67, 39
1, 96481, Note_on_c, 0, 48, 55
1, 96481, Note_on_c, 0, 54, 49
1, 96481, Control_c, 0, 67, 23
1, 96496, Control_c, 0, 67, 0
1, 96502, Note_off_c, 0, 69, 64
1, 96506, Note_off_c, 0, 54, 59
1, 96511, Note_off_c, 0, 51, 57
1, 96515, Note_off_c, 0, 48, 56
1, 96565, Note_on_c, 0, 48, 51
1, 96567, Note_on_c, 0, 51, 44
1, 96574, Note_on_c, 0, 54, 52
1, 96630, Note_on_c, 0, 73, 71
1, 96631, Note_off_c, 0, 54, 62
1, 96635, Note_on_c, 0, 61, 68
1, 96647, Note_off_c, 0, 51, 58
1, 96650, Note_off_c, 0, 48, 59
1, 96653, Note_off_c, 0, 73, 69
1, 96655, Note_off_c, 0, 61, 68
1, 96689, Control_c, 0, 64, 73
1, 96702, Note_on_c, 0, 73, 84
1, 96704, Control_c, 0, 64, 50
1, 96715, Note_on_c, 0, 61, 75
1, 96719, Control_c, 0, 64, 36
1, 96733, Control_c, 0, 64, 43
1, 96748, Control_c, 0, 64, 57
1, 96763, Control_c, 0, 64, 81
1, 96765, Note_on_c, 0, 50, 62
1, 96767, Note_on_c, 0, 57, 65
1, 96769, Note_on_c, 0, 54, 56
1, 96772, Note_on_c, 0, 47, 55
1, 96786, Control_c, 0, 64, 127
1, 96812, Note_off_c, 0, 54, 65
1, 96812, Note_off_c, 0, 61, 59
1, 96813, Note_off_c, 0, 73, 59
1, 96816, Note_off_c, 0, 47, 61
1, 96818, Note_off_c, 0, 57, 55
1, 96819, Note_off_c, 0, 50, 58
1, 96873, Note_on_c, 0, 50, 41
1, 96887, Note_on_c, 0, 57, 51
1, 96887, Note_on_c, 0, 47, 56
1, 96890, Note_on_c, 0, 54, 61
1, 96923, Note_on_c, 0, 74, 70
1, 96924, Note_on_c, 0, 62, 72
1, 96937, Note_off_c, 0, 47, 57
1, 96938, Note_off_c, 0, 54, 59
1, 96939, Note_off_c, 0, 57, 52
1, 96944, Note_off_c, 0, 74, 72
1, 96949, Note_off_c, 0, 50, 56
1, 96949, Note_off_c, 0, 62, 68
1, 96998, Note_on_c, 0, 74, 85
1, 96998, Note_on_c, 0, 62, 82
1, 97043, Note_on_c, 0, 54, 65
1, 97051, Note_on_c, 0, 50, 48
1, 97051, Note_on_c, 0, 57, 55
1, 97063, Note_on_c, 0, 47, 45
1, 97071, Note_off_c, 0, 54, 67
1, 97077, Note_off_c, 0, 57, 58
1, 97081, Note_off_c, 0, 62, 60
1, 97081, Note_off_c, 0, 50, 61
1, 97090, Note_off_c, 0, 47, 56
1, 97102, Note_off_c, 0, 74, 61
1, 97141, Note_on_c, 0, 47, 63
1, 97142, Note_on_c, 0, 54, 68
1, 97144, Note_on_c, 0, 57, 71
1, 97151, Note_on_c, 0, 50, 62
1, 97252, Note_on_c, 0, 75, 81
1, 97254, Note_on_c, 0, 63, 85
1, 97285, Note_off_c, 0, 63, 59
1, 97287, Note_off_c, 0, 47, 61
1, 97295, Note_off_c, 0, 75, 56
1, 97330, Note_off_c, 0, 54, 57
1, 97331, Note_off_c, 0, 57, 47
1, 97348, Control_c, 0, 64, 67
1, 97352, Note_on_c, 0, 75, 85
1, 97358, Note_off_c, 0, 50, 50
1, 97361, Note_on_c, 0, 63, 86
1, 97364, Control_c, 0, 64, 43
1, 97379, Control_c, 0, 64, 0
1, 97409, Control_c, 0, 64, 23
1, 97424, Control_c, 0, 64, 48
1, 97438, Control_c, 0, 64, 69
1, 97453, Control_c, 0, 64, 127
1, 97457, Note_on_c, 0, 57, 65
1, 97469, Note_on_c, 0, 46, 54
1, 97471, Note_on_c, 0, 50, 58
1, 97492, Note_off_c, 0, 57, 59
1, 97496, Note_off_c, 0, 46, 60
1, 97501, Note_off_c, 0, 50, 65
1, 97549, Note_off_c, 0, 75, 60
1, 97551, Note_off_c, 0, 63, 61
1, 97569, Note_on_c, 0, 57, 66
1, 97581, Note_on_c, 0, 46, 70
1, 97586, Note_on_c, 0, 50, 61
1, 97635, Note_on_c, 0, 62, 77
1, 97637, Note_on_c, 0, 74, 71
1, 97650, Note_off_c, 0, 57, 59
1, 97658, Note_off_c, 0, 62, 68
1, 97658, Note_off_c, 0, 74, 72
1, 97660, Note_off_c, 0, 50, 60
1, 97661, Note_off_c, 0, 46, 61
1, 97704, Note_on_c, 0, 62, 86
1, 97713, Note_on_c, 0, 74, 80
1, 97749, Note_on_c, 0, 55, 69
1, 97752, Note_off_c, 0, 62, 63
1, 97758, Note_on_c, 0, 50, 50
1, 97761, Note_on_c, 0, 46, 51
1, 97773, Note_off_c, 0, 74, 65
1, 97782, Note_off_c, 0, 55, 62
1, 97789, Note_off_c, 0, 50, 61
1, 97795, Note_off_c, 0, 46, 51
1, 97849, Note_on_c, 0, 55, 68
1, 97857, Note_on_c, 0, 50, 57
1, 97858, Note_on_c, 0, 46, 67
1, 97900, Note_off_c, 0, 50, 61
1, 97914, Note_off_c, 0, 55, 59
1, 97927, Note_on_c, 0, 79, 86
1, 97928, Note_on_c, 0, 67, 80
1, 97932, Note_off_c, 0, 46, 61
1, 97934, Control_c, 0, 64, 86
1, 97947, Note_off_c, 0, 79, 69
1, 97948, Note_off_c, 0, 67, 72
1, 97949, Control_c, 0, 64, 47
1, 97963, Control_c, 0, 64, 0
1, 97993, Control_c, 0, 64, 35
1, 98001, Note_on_c, 0, 79, 83
1, 98002, Note_on_c, 0, 67, 78
1, 98008, Control_c, 0, 64, 76
1, 98023, Control_c, 0, 64, 127
1, 98050, Note_on_c, 0, 55, 63
1, 98053, Note_on_c, 0, 45, 61
1, 98061, Note_on_c, 0, 50, 58
1, 98077, Note_off_c, 0, 67, 61
1, 98077, Note_off_c, 0, 79, 59
1, 98086, Note_off_c, 0, 45, 63
1, 98094, Note_off_c, 0, 50, 60
1, 98095, Note_off_c, 0, 55, 56
1, 98163, Note_on_c, 0, 55, 52
1, 98166, Note_on_c, 0, 45, 66
1, 98184, Note_on_c, 0, 50, 63
1, 98219, Note_off_c, 0, 50, 60
1, 98220, Note_off_c, 0, 55, 62
1, 98225, Note_on_c, 0, 77, 77
1, 98229, Note_on_c, 0, 65, 69
1, 98231, Note_off_c, 0, 45, 61
1, 98246, Note_off_c, 0, 77, 70
1, 98249, Note_off_c, 0, 65, 69
1, 98303, Note_on_c, 0, 77, 88
1, 98304, Note_on_c, 0, 65, 79
1, 98326, Note_off_c, 0, 65, 68
1, 98341, Note_on_c, 0, 50, 63
1, 98342, Note_on_c, 0, 53, 65
1, 98344, Note_on_c, 0, 45, 65
1, 98354, Note_off_c, 0, 77, 65
1, 98375, Note_off_c, 0, 45, 65
1, 98379, Note_off_c, 0, 50, 63
1, 98379, Note_off_c, 0, 53, 62
1, 98452, Note_on_c, 0, 45, 63
1, 98466, Note_on_c, 0, 50, 67
1, 98470, Note_on_c, 0, 53, 66
1, 98506, Control_c, 0, 64, 68
1, 98520, Control_c, 0, 64, 35
1, 98526, Note_on_c, 0, 86, 77
1, 98531, Note_on_c, 0, 74, 68
1, 98531, Note_off_c, 0, 45, 63
1, 98535, Control_c, 0, 64, 19
1, 98539, Note_off_c, 0, 50, 57
1, 98545, Note_off_c, 0, 53, 60
1, 98547, Note_off_c, 0, 86, 70
1, 98548, Note_off_c, 0, 74, 70
1, 98550, Control_c, 0, 64, 37
1, 98565, Control_c, 0, 64, 56
1, 98579, Control_c, 0, 64, 127
1, 98595, Note_on_c, 0, 74, 93
1, 98595, Note_on_c, 0, 86, 96
1, 98629, Note_off_c, 0, 86, 62
1, 98632, Note_off_c, 0, 74, 68
1, 98643, Note_on_c, 0, 47, 67
1, 98645, Note_on_c, 0, 53, 66
1, 98649, Note_on_c, 0, 44, 58
1, 98651, Note_on_c, 0, 50, 58
1, 98683, Note_off_c, 0, 50, 65
1, 98685, Note_off_c, 0, 47, 62
1, 98685, Note_off_c, 0, 44, 63
1, 98689, Note_off_c, 0, 53, 55
1, 98775, Note_on_c, 0, 50, 60
1, 98776, Note_on_c, 0, 44, 58
1, 98777, Note_on_c, 0, 53, 58
1, 98786, Note_on_c, 0, 47, 58
1, 98828, Note_off_c, 0, 47, 60
1, 98830, Note_on_c, 0, 74, 53
1, 98834, Note_on_c, 0, 62, 52
1, 98834, Note_off_c, 0, 50, 56
1, 98836, Note_off_c, 0, 44, 57
1, 98843, Note_off_c, 0, 53, 60
1, 98849, Note_off_c, 0, 74, 66
1, 98873, Note_off_c, 0, 62, 0
1, 98884, Note_on_c, 0, 62, 66
1, 98899, Note_on_c, 0, 74, 77
1, 98929, Note_off_c, 0, 62, 62
1, 98935, Note_on_c, 0, 47, 58
1, 98944, Note_on_c, 0, 53, 59
1, 98947, Note_on_c, 0, 50, 59
1, 98947, Note_off_c, 0, 74, 65
1, 98949, Note_on_c, 0, 44, 52
1, 98979, Note_off_c, 0, 47, 61
1, 98983, Note_off_c, 0, 50, 63
1, 98984, Note_off_c, 0, 44, 63
1, 98992, Note_off_c, 0, 53, 54
1, 99063, Note_on_c, 0, 53, 53
1, 99071, Note_on_c, 0, 47, 62
1, 99074, Note_on_c, 0, 44, 64
1, 99075, Note_on_c, 0, 50, 67
1, 99106, Control_c, 0, 64, 56
1, 99121, Control_c, 0, 64, 9
1, 99129, Note_off_c, 0, 47, 64
1, 99130, Note_on_c, 0, 74, 87
1, 99132, Note_on_c, 0, 86, 86
1, 99135, Control_c, 0, 64, 22
1, 99139, Note_off_c, 0, 53, 62
1, 99143, Note_off_c, 0, 50, 58
1, 99147, Note_off_c, 0, 44, 61
1, 99147, Note_off_c, 0, 74, 74
1, 99150, Control_c, 0, 64, 50
1, 99151, Note_off_c, 0, 86, 69
1, 99165, Control_c, 0, 64, 91
1, 99180, Control_c, 0, 64, 127
1, 99203, Note_on_c, 0, 74, 104
1, 99206, Note_on_c, 0, 86, 96
1, 99236, Note_on_c, 0, 85, 50
1, 99239, Note_off_c, 0, 86, 66
1, 99243, Note_on_c, 0, 46, 68
1, 99243, Note_on_c, 0, 53, 74
1, 99250, Note_on_c, 0, 50, 64
1, 99250, Note_off_c, 0, 74, 65
1, 99253, Note_on_c, 0, 43, 58
1, 99260, Note_off_c, 0, 85, 37
1, 99281, Note_off_c, 0, 50, 62
1, 99281, Note_off_c, 0, 53, 54
1, 99285, Note_off_c, 0, 43, 61
1, 99287, Note_off_c, 0, 46, 62
1, 99366, Note_on_c, 0, 43, 61
1, 99367, Note_on_c, 0, 46, 61
1, 99371, Note_on_c, 0, 50, 67
1, 99373, Note_on_c, 0, 53, 62
1, 99434, Note_off_c, 0, 50, 58
1, 99434, Note_off_c, 0, 53, 60
1, 99435, Note_on_c, 0, 62, 69
1, 99439, Note_off_c, 0, 46, 61
1, 99440, Note_off_c, 0, 43, 58
1, 99443, Note_on_c, 0, 74, 59
1, 99453, Note_off_c, 0, 62, 68
1, 99460, Note_off_c, 0, 74, 69
1, 99505, Note_on_c, 0, 62, 89
1, 99510, Note_on_c, 0, 74, 84
1, 99534, Note_on_c, 0, 46, 61
1, 99537, Note_on_c, 0, 50, 64
1, 99541, Note_on_c, 0, 53, 60
1, 99542, Note_off_c, 0, 62, 61
1, 99549, Note_on_c, 0, 43, 51
1, 99568, Note_off_c, 0, 53, 58
1, 99568, Note_off_c, 0, 74, 66
1, 99583, Note_off_c, 0, 50, 62
1, 99584, Note_off_c, 0, 43, 59
1, 99591, Note_off_c, 0, 46, 62
1, 99656, Note_on_c, 0, 53, 76
1, 99657, Note_on_c, 0, 46, 68
1, 99658, Note_on_c, 0, 43, 73
1, 99668, Note_on_c, 0, 50, 79
1, 99728, Control_c, 0, 64, 93
1, 99743, Control_c, 0, 64, 53
1, 99744, Note_on_c, 0, 89, 95
1, 99746, Note_on_c, 0, 77, 94
1, 99758, Control_c, 0, 64, 0
1, 99765, Note_off_c, 0, 77, 68
1, 99770, Note_off_c, 0, 89, 62
1, 99796, Control_c, 0, 64, 40
1, 99811, Control_c, 0, 64, 64
1, 99812, Note_off_c, 0, 43, 61
1, 99820, Note_on_c, 0, 77, 102
1, 99820, Note_off_c, 0, 53, 63
1, 99823, Note_on_c, 0, 89, 97
1, 99826, Control_c, 0, 64, 127
1, 99832, Note_off_c, 0, 50, 61
1, 99835, Note_off_c, 0, 46, 62
1, 99913, Note_on_c, 0, 53, 90
1, 99918, Note_on_c, 0, 50, 77
1, 99919, Note_on_c, 0, 47, 72
1, 99924, Note_on_c, 0, 44, 67
1, 99947, Note_off_c, 0, 77, 55
1, 99949, Note_off_c, 0, 89, 63
1, 99953, Note_off_c, 0, 44, 63
1, 99957, Note_off_c, 0, 53, 59
1, 99958, Note_off_c, 0, 50, 63
1, 99960, Note_off_c, 0, 47, 64
1, 100011, Note_on_c, 0, 53, 88
1, 100020, Note_on_c, 0, 44, 77
1, 100023, Note_on_c, 0, 50, 70
1, 100023, Note_on_c, 0, 47, 70
1, 100092, Control_c, 0, 64, 62
1, 100094, Note_on_c, 0, 77, 99
1, 100095, Note_on_c, 0, 89, 94
1, 100107, Control_c, 0, 64, 37
1, 100122, Control_c, 0, 64, 20
1, 100125, Note_off_c, 0, 77, 68
1, 100127, Note_off_c, 0, 89, 68
1, 100136, Control_c, 0, 64, 36
1, 100151, Control_c, 0, 64, 58
1, 100166, Control_c, 0, 64, 127
1, 100193, Note_on_c, 0, 76, 104
1, 100194, Note_off_c, 0, 53, 60
1, 100196, Note_on_c, 0, 88, 101
1, 100202, Note_off_c, 0, 50, 58
1, 100212, Note_off_c, 0, 44, 59
1, 100222, Note_off_c, 0, 47, 62
1, 100292, Note_on_c, 0, 52, 91
1, 100301, Note_on_c, 0, 47, 74
1, 100308, Note_on_c, 0, 44, 70
1, 100308, Poly_aftertouch_c, 0, 87, 0
1, 100331, Note_off_c, 0, 76, 54
1, 100337, Note_off_c, 0, 88, 61
1, 100339, Note_off_c, 0, 44, 64
1, 100348, Note_off_c, 0, 52, 65
1, 100356, Note_off_c, 0, 47, 63
1, 100399, Note_on_c, 0, 52, 95
1, 100402, Note_on_c, 0, 47, 68
1, 100406, Note_on_c, 0, 44, 79
1, 100470, Note_off_c, 0, 47, 61
1, 100508, Note_on_c, 0, 86, 89
1, 100508, Note_off_c, 0, 44, 52
1, 100509, Note_on_c, 0, 74, 82
1, 100537, Note_off_c, 0, 74, 69
1, 100566, Note_off_c, 0, 86, 60
1, 100581, Note_off_c, 0, 52, 56
1, 100634, Control_c, 0, 64, 117
1, 100649, Control_c, 0, 64, 55
1, 100663, Control_c, 0, 64, 0
1, 100666, Note_on_c, 0, 57, 104
1, 100668, Note_on_c, 0, 81, 106
1, 100671, Note_on_c, 0, 52, 97
1, 100672, Note_on_c, 0, 49, 88
1, 100673, Note_on_c, 0, 45, 94
1, 100693, Control_c, 0, 64, 50
1, 100707, Control_c, 0, 64, 127
1, 100712, Note_off_c, 0, 81, 69
1, 100726, Note_on_c, 0, 93, 78
1, 100802, Note_off_c, 0, 93, 63
1, 100807, Note_on_c, 0, 82, 94
1, 100854, Note_off_c, 0, 82, 64
1, 100869, Note_on_c, 0, 94, 85
1, 100903, Note_off_c, 0, 94, 58
1, 100929, Note_on_c, 0, 81, 87
1, 100965, Note_off_c, 0, 81, 67
1, 100981, Note_on_c, 0, 93, 88
1, 100986, Note_off_c, 0, 57, 55
1, 100993, Note_off_c, 0, 52, 63
1, 100994, Note_off_c, 0, 45, 61
1, 101010, Note_off_c, 0, 49, 61
1, 101019, Control_c, 0, 64, 84
1, 101023, Note_off_c, 0, 93, 65
1, 101034, Control_c, 0, 64, 67
1, 101049, Control_c, 0, 64, 59
1, 101051, Note_on_c, 0, 82, 89
1, 101063, Control_c, 0, 64, 53
1, 101078, Control_c, 0, 64, 52
1, 101087, Note_off_c, 0, 82, 65
1, 101093, Control_c, 0, 64, 59
1, 101108, Note_on_c, 0, 94, 86
1, 101108, Control_c, 0, 64, 73
1, 101123, Control_c, 0, 64, 127
1, 101127, Note_off_c, 0, 94, 72
1, 101157, Note_on_c, 0, 57, 80
1, 101159, Note_on_c, 0, 45, 78
1, 101174, Note_on_c, 0, 81, 72
1, 101175, Note_off_c, 0, 57, 72
1, 101180, Note_off_c, 0, 45, 69
1, 101197, Note_off_c, 0, 81, 67
1, 101208, Note_on_c, 0, 93, 83
1, 101240, Note_on_c, 0, 92, 29
1, 101245, Note_off_c, 0, 93, 61
1, 101272, Note_on_c, 0, 58, 87
1, 101282, Note_on_c, 0, 46, 84
1, 101285, Note_off_c, 0, 92, 31
1, 101290, Note_on_c, 0, 82, 84
1, 101293, Control_c, 0, 64, 63
1, 101302, Note_off_c, 0, 58, 67
1, 101308, Control_c, 0, 64, 0
1, 101308, Note_off_c, 0, 46, 68
1, 101314, Poly_aftertouch_c, 0, 45, 0
1, 101315, Note_off_c, 0, 82, 66
1, 101335, Note_on_c, 0, 94, 84
1, 101368, Note_off_c, 0, 94, 64
1, 101368, Control_c, 0, 64, 35
1, 101383, Control_c, 0, 64, 65
1, 101398, Control_c, 0, 64, 127
1, 101402, Note_on_c, 0, 61, 100
1, 101403, Note_on_c, 0, 49, 84
1, 101407, Note_on_c, 0, 81, 83
1, 101416, Note_on_c, 0, 85, 60
1, 101425, Note_off_c, 0, 49, 70
1, 101427, Note_off_c, 0, 61, 60
1, 101432, Note_on_c, 0, 88, 65
1, 101439, Note_off_c, 0, 85, 66
1, 101444, Note_off_c, 0, 81, 66
1, 101457, Note_on_c, 0, 93, 83
1, 101457, Note_off_c, 0, 88, 69
1, 101488, Note_off_c, 0, 93, 61
1, 101523, Note_on_c, 0, 64, 95
1, 101527, Note_on_c, 0, 82, 77
1, 101528, Note_on_c, 0, 52, 89
1, 101546, Note_off_c, 0, 52, 74
1, 101549, Note_off_c, 0, 64, 63
1, 101551, Note_off_c, 0, 82, 67
1, 101566, Note_on_c, 0, 94, 84
1, 101597, Note_off_c, 0, 94, 64
1, 101641, Note_on_c, 0, 65, 99
1, 101643, Note_on_c, 0, 81, 69
1, 101644, Note_on_c, 0, 53, 87
1, 101666, Note_off_c, 0, 53, 72
1, 101668, Note_off_c, 0, 81, 67
1, 101675, Note_off_c, 0, 65, 63
1, 101675, Note_on_c, 0, 93, 85
1, 101719, Note_off_c, 0, 93, 63
1, 101751, Note_on_c, 0, 82, 86
1, 101756, Note_on_c, 0, 67, 92
1, 101760, Note_on_c, 0, 55, 91
1, 101783, Note_off_c, 0, 55, 69
1, 101791, Note_off_c, 0, 67, 62
1, 101796, Note_off_c, 0, 82, 64
1, 101808, Note_on_c, 0, 94, 82
1, 101836, Note_off_c, 0, 94, 64
1, 101870, Note_on_c, 0, 69, 97
1, 101873, Note_on_c, 0, 57, 86
1, 101876, Note_on_c, 0, 81, 78
1, 101896, Note_off_c, 0, 57, 68
1, 101903, Note_off_c, 0, 69, 70
1, 101905, Note_off_c, 0, 81, 63
1, 101914, Note_on_c, 0, 83, 41
1, 101919, Note_on_c, 0, 93, 88
1, 101940, Note_off_c, 0, 83, 61
1, 101961, Note_off_c, 0, 93, 62
1, 101985, Note_on_c, 0, 58, 80
1, 101985, Note_on_c, 0, 70, 103
1, 101996, Note_on_c, 0, 82, 84
1, 102032, Note_off_c, 0, 82, 56
1, 102036, Note_off_c, 0, 70, 61
1, 102041, Note_off_c, 0, 58, 64
1, 102047, Note_on_c, 0, 94, 83
1, 102083, Note_off_c, 0, 94, 65
1, 102086, Control_c, 0, 64, 71
1, 102101, Control_c, 0, 64, 35
1, 102116, Control_c, 0, 64, 0
1, 102120, Note_on_c, 0, 86, 69
1, 102122, Note_on_c, 0, 81, 99
1, 102130, Note_on_c, 0, 69, 103
1, 102134, Note_on_c, 0, 57, 96
1, 102136, Note_on_c, 0, 89, 79
1, 102145, Control_c, 0, 64, 40
1, 102155, Note_off_c, 0, 57, 68
1, 102159, Note_off_c, 0, 69, 71
1, 102160, Note_on_c, 0, 58, 51
1, 102160, Control_c, 0, 64, 66
1, 102175, Control_c, 0, 64, 127
1, 102181, Note_off_c, 0, 81, 60
1, 102184, Note_off_c, 0, 58, 60
1, 102202, Note_off_c, 0, 86, 64
1, 102206, Note_on_c, 0, 93, 70
1, 102208, Note_off_c, 0, 89, 65
1, 102211, Note_on_c, 0, 91, 79
1, 102236, Note_off_c, 0, 91, 59
1, 102244, Note_off_c, 0, 93, 63
1, 102287, Note_on_c, 0, 82, 77
1, 102305, Note_on_c, 0, 77, 111
1, 102310, Note_on_c, 0, 65, 93
1, 102330, Note_off_c, 0, 82, 60
1, 102332, Note_off_c, 0, 65, 69
1, 102335, Note_off_c, 0, 77, 68
1, 102349, Note_on_c, 0, 94, 87
1, 102390, Note_off_c, 0, 94, 67
1, 102426, Note_on_c, 0, 81, 80
1, 102435, Note_on_c, 0, 76, 103
1, 102443, Note_on_c, 0, 64, 93
1, 102455, Note_off_c, 0, 81, 68
1, 102461, Note_off_c, 0, 64, 71
1, 102466, Note_off_c, 0, 76, 71
1, 102473, Note_on_c, 0, 93, 82
1, 102517, Note_off_c, 0, 93, 61
1, 102548, Note_on_c, 0, 82, 87
1, 102550, Note_on_c, 0, 74, 96
1, 102557, Note_on_c, 0, 62, 90
1, 102579, Note_off_c, 0, 62, 69
1, 102579, Note_off_c, 0, 74, 63
1, 102596, Note_off_c, 0, 82, 64
1, 102613, Note_on_c, 0, 94, 83
1, 102634, Note_off_c, 0, 94, 69
1, 102669, Note_on_c, 0, 69, 103
1, 102674, Note_on_c, 0, 57, 91
1, 102679, Note_on_c, 0, 81, 79
1, 102692, Note_off_c, 0, 57, 72
1, 102700, Note_off_c, 0, 69, 65
1, 102703, Note_off_c, 0, 81, 70
1, 102718, Note_on_c, 0, 93, 81
1, 102745, Note_off_c, 0, 93, 65
1, 102792, Note_on_c, 0, 65, 103
1, 102796, Note_on_c, 0, 53, 96
1, 102807, Note_on_c, 0, 82, 78
1, 102822, Note_off_c, 0, 65, 67
1, 102824, Note_off_c, 0, 53, 68
1, 102847, Note_on_c, 0, 94, 79
1, 102855, Note_off_c, 0, 82, 58
1, 102864, Control_c, 0, 64, 77
1, 102870, Note_off_c, 0, 94, 70
1, 102879, Control_c, 0, 64, 46
1, 102894, Control_c, 0, 64, 0
1, 102909, Control_c, 0, 64, 25
1, 102914, Note_on_c, 0, 64, 100
1, 102917, Note_on_c, 0, 52, 94
1, 102918, Note_on_c, 0, 81, 91
1, 102924, Control_c, 0, 64, 49
1, 102931, Note_on_c, 0, 91, 83
1, 102938, Control_c, 0, 64, 71
1, 102939, Note_on_c, 0, 85, 60
1, 102948, Note_off_c, 0, 64, 65
1, 102951, Note_off_c, 0, 52, 66
1, 102954, Control_c, 0, 64, 127
1, 102959, Note_off_c, 0, 85, 61
1, 102974, Note_off_c, 0, 81, 64
1, 102992, Note_off_c, 0, 91, 57
1, 103036, Note_on_c, 0, 61, 102
1, 103037, Note_on_c, 0, 94, 73
1, 103040, Note_on_c, 0, 49, 93
1, 103052, Note_on_c, 0, 82, 77
1, 103073, Note_off_c, 0, 49, 64
1, 103073, Note_off_c, 0, 61, 64
1, 103096, Note_off_c, 0, 82, 63
1, 103107, Note_off_c, 0, 94, 66
1, 103159, Note_on_c, 0, 81, 77
1, 103163, Note_on_c, 0, 58, 106
1, 103165, Note_on_c, 0, 46, 99
1, 103188, Note_on_c, 0, 93, 75
1, 103195, Note_off_c, 0, 81, 65
1, 103198, Note_off_c, 0, 58, 66
1, 103201, Note_off_c, 0, 46, 63
1, 103237, Note_off_c, 0, 93, 65
1, 103281, Note_on_c, 0, 82, 78
1, 103290, Note_on_c, 0, 57, 101
1, 103295, Note_on_c, 0, 45, 92
1, 103323, Note_off_c, 0, 57, 66
1, 103326, Note_off_c, 0, 45, 64
1, 103331, Note_on_c, 0, 94, 75
1, 103341, Note_off_c, 0, 82, 55
1, 103358, Note_off_c, 0, 94, 67
1, 103418, Note_on_c, 0, 81, 67
1, 103427, Note_on_c, 0, 55, 99
1, 103431, Note_on_c, 0, 43, 95
1, 103445, Note_on_c, 0, 93, 86
1, 103463, Note_off_c, 0, 55, 67
1, 103464, Note_off_c, 0, 81, 65
1, 103472, Note_off_c, 0, 43, 63
1, 103479, Note_off_c, 0, 93, 61
1, 103629, Note_on_c, 0, 52, 103
1, 103637, Note_on_c, 0, 40, 91
1, 103781, Note_on_c, 0, 69, 93
1, 103788, Note_on_c, 0, 81, 93
1, 103883, Note_off_c, 0, 81, 61
1, 103886, Note_off_c, 0, 69, 60
1, 103949, Note_on_c, 0, 81, 85
1, 103952, Note_on_c, 0, 69, 76
1, 103955, Note_on_c, 0, 77, 72
1, 103956, Note_on_c, 0, 74, 74
1, 103956, Note_off_c, 0, 52, 56
1, 103969, Control_c, 0, 64, 75
1, 103984, Control_c, 0, 64, 49
1, 103985, Note_off_c, 0, 40, 62
1, 103998, Control_c, 0, 64, 0
1, 104071, Note_on_c, 0, 50, 65
1, 104074, Note_on_c, 0, 45, 60
1, 104080, Note_on_c, 0, 41, 52
1, 104095, Note_on_c, 0, 38, 33
1, 104102, Control_c, 0, 64, 19
1, 104103, Note_off_c, 0, 50, 64
1, 104104, Note_off_c, 0, 45, 65
1, 104114, Note_off_c, 0, 81, 64
1, 104115, Note_off_c, 0, 41, 64
1, 104117, Control_c, 0, 64, 47
1, 104127, Note_off_c, 0, 38, 0
1, 104131, Control_c, 0, 64, 68
1, 104132, Note_off_c, 0, 69, 62
1, 104146, Control_c, 0, 64, 127
1, 104150, Note_on_c, 0, 38, 43
1, 104169, Note_on_c, 0, 41, 62
1, 104169, Note_off_c, 0, 77, 59
1, 104169, Note_off_c, 0, 74, 62
1, 104174, Note_on_c, 0, 45, 69
1, 104176, Note_on_c, 0, 50, 63
1, 104188, Note_off_c, 0, 38, 60
1, 104198, Note_off_c, 0, 41, 65
1, 104202, Note_off_c, 0, 45, 66
1, 104205, Note_off_c, 0, 50, 66
1, 104241, Note_on_c, 0, 70, 79
1, 104251, Note_on_c, 0, 82, 56
1, 104256, Note_on_c, 0, 74, 54
1, 104258, Note_on_c, 0, 77, 49
1, 104262, Note_off_c, 0, 70, 70
1, 104280, Note_off_c, 0, 82, 63
1, 104287, Note_off_c, 0, 74, 67
1, 104291, Note_off_c, 0, 77, 58
1, 104328, Note_on_c, 0, 70, 87
1, 104334, Note_on_c, 0, 82, 85
1, 104337, Note_on_c, 0, 74, 72
1, 104348, Note_on_c, 0, 77, 73
1, 104394, Note_on_c, 0, 62, 69
1, 104398, Note_on_c, 0, 65, 65
1, 104414, Note_off_c, 0, 62, 67
1, 104414, Note_off_c, 0, 70, 60
1, 104418, Note_off_c, 0, 74, 57
1, 104420, Note_off_c, 0, 65, 69
1, 104421, Note_off_c, 0, 82, 61
1, 104426, Note_off_c, 0, 77, 56
1, 104460, Note_on_c, 0, 57, 54
1, 104468, Note_on_c, 0, 62, 87
1, 104472, Note_on_c, 0, 65, 73
1, 104489, Note_off_c, 0, 62, 70
1, 104490, Note_off_c, 0, 65, 71
1, 104515, Note_off_c, 0, 57, 64
1, 104543, Note_on_c, 0, 74, 64
1, 104545, Note_on_c, 0, 69, 75
1, 104545, Note_on_c, 0, 77, 67
1, 104560, Note_on_c, 0, 81, 52
1, 104566, Note_off_c, 0, 69, 73
1, 104569, Note_off_c, 0, 77, 60
1, 104570, Note_off_c, 0, 74, 68
1, 104605, Note_off_c, 0, 81, 0
1, 104614, Note_on_c, 0, 81, 75
1, 104615, Note_on_c, 0, 69, 81
1, 104626, Note_on_c, 0, 74, 61
1, 104634, Note_on_c, 0, 77, 77
1, 104644, Control_c, 0, 64, 62
1, 104658, Control_c, 0, 64, 26
1, 104673, Control_c, 0, 64, 0
1, 104697, Note_on_c, 0, 50, 73
1, 104699, Note_on_c, 0, 45, 66
1, 104701, Note_on_c, 0, 38, 58
1, 104718, Control_c, 0, 64, 36
1, 104721, Note_off_c, 0, 81, 64
1, 104724, Note_off_c, 0, 50, 66
1, 104729, Note_off_c, 0, 45, 65
1, 104732, Note_off_c, 0, 69, 63
1, 104733, Control_c, 0, 64, 57
1, 104733, Note_on_c, 0, 41, 8
1, 104747, Control_c, 0, 64, 80
1, 104753, Note_off_c, 0, 38, 0
1, 104762, Control_c, 0, 64, 127
1, 104764, Note_on_c, 0, 38, 61
1, 104766, Note_off_c, 0, 74, 62
1, 104769, Note_off_c, 0, 77, 60
1, 104785, Note_on_c, 0, 45, 60
1, 104785, Note_on_c, 0, 50, 60
1, 104798, Note_off_c, 0, 38, 63
1, 104811, Note_off_c, 0, 45, 67
1, 104813, Note_off_c, 0, 50, 64
1, 104822, Note_off_c, 0, 41, 56
1, 104846, Note_on_c, 0, 80, 73
1, 104848, Note_on_c, 0, 68, 74
1, 104867, Note_off_c, 0, 80, 70
1, 104868, Note_on_c, 0, 74, 47
1, 104873, Note_off_c, 0, 68, 63
1, 104893, Note_off_c, 0, 74, 61
1, 104918, Note_on_c, 0, 68, 89
1, 104924, Note_on_c, 0, 80, 89
1, 104927, Note_on_c, 0, 74, 71
1, 104967, Note_on_c, 0, 62, 66
1, 104976, Note_on_c, 0, 65, 60
1, 104986, Note_off_c, 0, 68, 59
1, 104987, Note_off_c, 0, 62, 65
1, 104998, Note_off_c, 0, 65, 63
1, 104998, Note_off_c, 0, 74, 62
1, 105002, Note_off_c, 0, 80, 59
1, 105036, Note_on_c, 0, 65, 69
1, 105040, Note_on_c, 0, 57, 59
1, 105043, Note_on_c, 0, 62, 80
1, 105058, Note_off_c, 0, 65, 72
1, 105066, Note_off_c, 0, 62, 69
1, 105088, Note_off_c, 0, 57, 64
1, 105134, Note_on_c, 0, 74, 65
1, 105138, Note_on_c, 0, 67, 67
1, 105140, Note_on_c, 0, 79, 63
1, 105144, Note_on_c, 0, 69, 59
1, 105156, Note_off_c, 0, 67, 68
1, 105158, Note_off_c, 0, 79, 64
1, 105159, Note_off_c, 0, 74, 70
1, 105163, Note_off_c, 0, 69, 66
1, 105210, Note_on_c, 0, 79, 91
1, 105213, Note_on_c, 0, 67, 76
1, 105213, Note_on_c, 0, 69, 79
1, 105219, Note_on_c, 0, 74, 71
1, 105228, Control_c, 0, 64, 73
1, 105243, Control_c, 0, 64, 48
1, 105258, Control_c, 0, 64, 0
1, 105271, Note_on_c, 0, 50, 75
1, 105275, Note_on_c, 0, 45, 66
1, 105287, Control_c, 0, 64, 13
1, 105294, Note_off_c, 0, 74, 63
1, 105296, Note_off_c, 0, 50, 67
1, 105299, Note_on_c, 0, 38, 27
1, 105301, Note_off_c, 0, 79, 60
1, 105302, Control_c, 0, 64, 45
1, 105305, Note_off_c, 0, 45, 65
1, 105308, Note_off_c, 0, 69, 41
1, 105317, Control_c, 0, 64, 64
1, 105321, Note_off_c, 0, 67, 65
1, 105332, Control_c, 0, 64, 127
1, 105335, Note_off_c, 0, 38, 0
1, 105335, Note_on_c, 0, 38, 23
1, 105355, Note_on_c, 0, 50, 75
1, 105356, Note_on_c, 0, 41, 6
1, 105367, Note_on_c, 0, 45, 69
1, 105394, Note_off_c, 0, 45, 66
1, 105397, Note_off_c, 0, 38, 58
1, 105409, Note_off_c, 0, 41, 59
1, 105413, Note_off_c, 0, 50, 58
1, 105429, Note_on_c, 0, 66, 80
1, 105433, Note_on_c, 0, 69, 67
1, 105439, Note_on_c, 0, 78, 60
1, 105451, Note_off_c, 0, 66, 68
1, 105458, Note_off_c, 0, 78, 63
1, 105462, Note_off_c, 0, 69, 67
1, 105508, Note_on_c, 0, 78, 93
1, 105509, Note_on_c, 0, 66, 92
1, 105517, Note_on_c, 0, 69, 75
1, 105548, Note_on_c, 0, 57, 67
1, 105562, Note_on_c, 0, 62, 51
1, 105571, Note_off_c, 0, 66, 58
1, 105575, Note_off_c, 0, 57, 65
1, 105585, Note_off_c, 0, 62, 60
1, 105586, Note_off_c, 0, 69, 61
1, 105601, Note_off_c, 0, 78, 63
1, 105623, Note_on_c, 0, 53, 45
1, 105626, Note_on_c, 0, 62, 58
1, 105627, Note_on_c, 0, 57, 77
1, 105645, Note_off_c, 0, 62, 64
1, 105648, Note_off_c, 0, 57, 70
1, 105677, Note_off_c, 0, 53, 65
1, 105716, Note_on_c, 0, 69, 65
1, 105720, Note_on_c, 0, 65, 68
1, 105724, Note_on_c, 0, 77, 63
1, 105738, Note_off_c, 0, 69, 68
1, 105738, Note_off_c, 0, 65, 67
1, 105745, Note_off_c, 0, 77, 62
1, 105797, Note_on_c, 0, 77, 85
1, 105806, Note_on_c, 0, 65, 76
1, 105812, Note_on_c, 0, 69, 73
1, 105815, Control_c, 0, 64, 88
1, 105829, Control_c, 0, 64, 55
1, 105844, Control_c, 0, 64, 0
1, 105853, Note_on_c, 0, 50, 72
1, 105857, Note_on_c, 0, 45, 65
1, 105872, Note_on_c, 0, 38, 39
1, 105882, Note_off_c, 0, 50, 61
1, 105889, Note_off_c, 0, 45, 64
1, 105889, Control_c, 0, 64, 26
1, 105903, Control_c, 0, 64, 50
1, 105907, Note_off_c, 0, 77, 55
1, 105907, Note_off_c, 0, 38, 47
1, 105914, Poly_aftertouch_c, 0, 41, 127
1, 105918, Control_c, 0, 64, 70
1, 105928, Note_off_c, 0, 69, 58
1, 105929, Note_off_c, 0, 65, 60
1, 105933, Control_c, 0, 64, 127
1, 105943, Note_on_c, 0, 38, 61
1, 105946, Note_on_c, 0, 50, 71
1, 105954, Note_on_c, 0, 45, 70
1, 105977, Note_off_c, 0, 38, 62
1, 105984, Note_off_c, 0, 45, 65
1, 106004, Note_off_c, 0, 50, 59
1, 106008, Poly_aftertouch_c, 0, 41, 0
1, 106024, Note_on_c, 0, 64, 66
1, 106031, Note_on_c, 0, 76, 51
1, 106039, Note_on_c, 0, 69, 48
1, 106046, Note_off_c, 0, 64, 66
1, 106054, Note_off_c, 0, 76, 60
1, 106064, Note_off_c, 0, 69, 59
1, 106099, Note_on_c, 0, 64, 82
1, 106103, Note_on_c, 0, 76, 82
1, 106116, Note_on_c, 0, 69, 67
1, 106131, Note_on_c, 0, 53, 68
1, 106142, Note_on_c, 0, 57, 53
1, 106160, Note_off_c, 0, 53, 68
1, 106167, Note_off_c, 0, 57, 59
1, 106174, Note_off_c, 0, 64, 59
1, 106176, Note_off_c, 0, 76, 63
1, 106199, Note_off_c, 0, 69, 63
1, 106220, Note_on_c, 0, 53, 73
1, 106228, Note_on_c, 0, 57, 67
1, 106253, Note_off_c, 0, 53, 63
1, 106255, Note_off_c, 0, 57, 66
1, 106303, Note_on_c, 0, 75, 70
1, 106306, Note_on_c, 0, 63, 71
1, 106315, Note_on_c, 0, 69, 54
1, 106324, Note_off_c, 0, 63, 68
1, 106328, Note_off_c, 0, 75, 65
1, 106338, Note_off_c, 0, 69, 63
1, 106383, Note_on_c, 0, 75, 81
1, 106385, Note_on_c, 0, 63, 74
1, 106396, Note_on_c, 0, 69, 66
1, 106408, Control_c, 0, 64, 84
1, 106423, Control_c, 0, 64, 55
1, 106437, Control_c, 0, 64, 0
1, 106446, Note_on_c, 0, 45, 59
1, 106449, Note_on_c, 0, 50, 56
1, 106467, Control_c, 0, 64, 30
1, 106474, Note_off_c, 0, 50, 62
1, 106477, Note_off_c, 0, 45, 66
1, 106482, Control_c, 0, 64, 50
1, 106496, Note_off_c, 0, 75, 56
1, 106497, Control_c, 0, 64, 71
1, 106507, Note_off_c, 0, 63, 60
1, 106510, Poly_aftertouch_c, 0, 38, 127
1, 106512, Control_c, 0, 64, 127
1, 106522, Note_off_c, 0, 69, 60
1, 106537, Note_on_c, 0, 38, 3
1, 106539, Note_on_c, 0, 41, 14
1, 106547, Note_on_c, 0, 50, 63
1, 106549, Note_on_c, 0, 45, 68
1, 106574, Note_off_c, 0, 38, 55
1, 106579, Note_off_c, 0, 45, 64
1, 106592, Note_off_c, 0, 50, 61
1, 106596, Note_off_c, 0, 41, 59
1, 106601, Note_on_c, 0, 74, 56
1, 106602, Note_on_c, 0, 62, 56
1, 106605, Note_on_c, 0, 69, 45
1, 106621, Note_off_c, 0, 74, 66
1, 106623, Note_off_c, 0, 62, 62
1, 106626, Note_off_c, 0, 69, 63
1, 106680, Note_on_c, 0, 74, 82
1, 106681, Note_on_c, 0, 62, 79
1, 106690, Note_on_c, 0, 69, 74
1, 106720, Note_on_c, 0, 53, 65
1, 106733, Note_on_c, 0, 57, 50
1, 106742, Note_off_c, 0, 62, 58
1, 106745, Note_off_c, 0, 74, 61
1, 106748, Note_off_c, 0, 53, 67
1, 106758, Note_off_c, 0, 57, 57
1, 106762, Note_off_c, 0, 69, 63
1, 106805, Note_on_c, 0, 53, 80
1, 106808, Note_on_c, 0, 57, 68
1, 106832, Note_off_c, 0, 57, 67
1, 106852, Note_off_c, 0, 53, 63
1, 106879, Note_on_c, 0, 73, 68
1, 106881, Note_on_c, 0, 61, 74
1, 106885, Note_on_c, 0, 69, 58
1, 106898, Note_off_c, 0, 61, 69
1, 106899, Note_off_c, 0, 73, 68
1, 106907, Note_off_c, 0, 69, 62
1, 106954, Note_on_c, 0, 61, 82
1, 106957, Note_on_c, 0, 73, 82
1, 106964, Control_c, 0, 64, 92
1, 106969, Note_on_c, 0, 69, 81
1, 106979, Control_c, 0, 64, 55
1, 106994, Control_c, 0, 64, 0
1, 107020, Note_on_c, 0, 50, 70
1, 107022, Note_on_c, 0, 45, 60
1, 107023, Control_c, 0, 64, 26
1, 107038, Control_c, 0, 64, 47
1, 107049, Note_off_c, 0, 45, 62
1, 107049, Note_off_c, 0, 50, 64
1, 107050, Note_off_c, 0, 61, 57
1, 107052, Note_off_c, 0, 73, 59
1, 107053, Control_c, 0, 64, 64
1, 107054, Note_on_c, 0, 38, 14
1, 107062, Note_off_c, 0, 69, 60
1, 107067, Control_c, 0, 64, 127
1, 107095, Poly_aftertouch_c, 0, 41, 127
1, 107100, Note_off_c, 0, 38, 0
1, 107100, Note_on_c, 0, 38, 35
1, 107106, Note_on_c, 0, 41, 24
1, 107106, Note_on_c, 0, 50, 84
1, 107111, Note_on_c, 0, 45, 77
1, 107146, Note_off_c, 0, 50, 52
1, 107149, Note_off_c, 0, 38, 61
1, 107158, Note_off_c, 0, 45, 62
1, 107162, Note_on_c, 0, 69, 70
1, 107165, Note_off_c, 0, 41, 62
1, 107174, Note_on_c, 0, 62, 60
1, 107174, Note_on_c, 0, 74, 53
1, 107190, Note_off_c, 0, 69, 68
1, 107195, Note_off_c, 0, 62, 62
1, 107195, Note_off_c, 0, 74, 63
1, 107246, Note_on_c, 0, 62, 85
1, 107249, Note_on_c, 0, 69, 75
1, 107250, Note_on_c, 0, 74, 82
1, 107302, Note_on_c, 0, 53, 70
1, 107312, Note_on_c, 0, 57, 52
1, 107312, Note_off_c, 0, 62, 57
1, 107320, Note_off_c, 0, 74, 64
1, 107329, Note_off_c, 0, 53, 68
1, 107335, Note_off_c, 0, 57, 63
1, 107348, Note_off_c, 0, 69, 62
1, 107388, Note_on_c, 0, 53, 78
1, 107393, Note_on_c, 0, 57, 63
1, 107420, Note_off_c, 0, 57, 64
1, 107434, Note_off_c, 0, 53, 65
1, 107453, Note_on_c, 0, 63, 75
1, 107454, Note_on_c, 0, 69, 67
1, 107462, Note_on_c, 0, 75, 54
1, 107472, Note_off_c, 0, 69, 74
1, 107475, Note_off_c, 0, 63, 70
1, 107483, Note_off_c, 0, 75, 61
1, 107529, Note_on_c, 0, 63, 89
1, 107533, Note_on_c, 0, 75, 86
1, 107537, Note_on_c, 0, 69, 73
1, 107549, Control_c, 0, 64, 64
1, 107564, Control_c, 0, 64, 37
1, 107579, Control_c, 0, 64, 0
1, 107591, Note_on_c, 0, 45, 69
1, 107594, Control_c, 0, 64, 34
1, 107596, Note_on_c, 0, 50, 68
1, 107609, Control_c, 0, 64, 53
1, 107615, Note_on_c, 0, 41, 36
1, 107623, Control_c, 0, 64, 74
1, 107624, Note_off_c, 0, 50, 65
1, 107625, Note_off_c, 0, 45, 62
1, 107626, Note_on_c, 0, 38, 23
1, 107638, Control_c, 0, 64, 127
1, 107640, Note_off_c, 0, 63, 60
1, 107642, Note_off_c, 0, 75, 58
1, 107650, Note_off_c, 0, 69, 62
1, 107669, Note_off_c, 0, 38, 0
1, 107669, Note_on_c, 0, 38, 26
1, 107681, Note_off_c, 0, 41, 0
1, 107684, Note_on_c, 0, 50, 78
1, 107685, Note_on_c, 0, 45, 74
1, 107693, Note_on_c, 0, 41, 54
1, 107716, Note_off_c, 0, 38, 60
1, 107721, Note_off_c, 0, 45, 63
1, 107726, Note_off_c, 0, 41, 63
1, 107734, Note_off_c, 0, 50, 55
1, 107742, Note_on_c, 0, 64, 70
1, 107747, Note_on_c, 0, 69, 66
1, 107752, Note_on_c, 0, 76, 56
1, 107766, Note_off_c, 0, 69, 68
1, 107767, Note_off_c, 0, 64, 66
1, 107771, Note_off_c, 0, 76, 63
1, 107817, Note_on_c, 0, 64, 84
1, 107823, Note_on_c, 0, 76, 81
1, 107835, Note_on_c, 0, 69, 72
1, 107853, Note_on_c, 0, 57, 72
1, 107870, Note_on_c, 0, 62, 51
1, 107875, Note_off_c, 0, 64, 60
1, 107877, Note_off_c, 0, 57, 67
1, 107882, Note_on_c, 0, 53, 28
1, 107887, Note_off_c, 0, 76, 64
1, 107895, Note_off_c, 0, 62, 58
1, 107899, Note_off_c, 0, 69, 63
1, 107920, Note_off_c, 0, 53, 0
1, 107934, Note_on_c, 0, 57, 82
1, 107935, Note_on_c, 0, 62, 71
1, 107940, Note_on_c, 0, 53, 59
1, 107962, Note_off_c, 0, 62, 65
1, 107978, Note_off_c, 0, 57, 63
1, 108001, Note_off_c, 0, 53, 66
1, 108023, Note_on_c, 0, 69, 69
1, 108024, Note_on_c, 0, 65, 75
1, 108034, Note_on_c, 0, 77, 60
1, 108041, Note_off_c, 0, 65, 71
1, 108045, Note_off_c, 0, 69, 72
1, 108056, Note_off_c, 0, 77, 62
1, 108061, Control_c, 0, 64, 104
1, 108076, Control_c, 0, 64, 63
1, 108090, Control_c, 0, 64, 49
1, 108092, Note_on_c, 0, 65, 90
1, 108099, Note_on_c, 0, 69, 76
1, 108101, Note_on_c, 0, 77, 79
1, 108105, Control_c, 0, 64, 46
1, 108120, Control_c, 0, 64, 53
1, 108135, Control_c, 0, 64, 64
1, 108150, Control_c, 0, 64, 90
1, 108152, Note_on_c, 0, 50, 76
1, 108156, Note_on_c, 0, 45, 65
1, 108161, Note_off_c, 0, 77, 61
1, 108164, Control_c, 0, 64, 127
1, 108165, Note_on_c, 0, 41, 48
1, 108176, Note_off_c, 0, 65, 62
1, 108177, Note_on_c, 0, 38, 37
1, 108177, Note_off_c, 0, 50, 65
1, 108183, Note_off_c, 0, 45, 67
1, 108191, Note_off_c, 0, 69, 61
1, 108195, Note_off_c, 0, 41, 55
1, 108223, Note_off_c, 0, 38, 0
1, 108223, Note_on_c, 0, 38, 36
1, 108234, Note_on_c, 0, 50, 75
1, 108237, Note_on_c, 0, 45, 72
1, 108252, Note_on_c, 0, 41, 66
1, 108259, Note_off_c, 0, 38, 60
1, 108277, Note_off_c, 0, 45, 64
1, 108278, Note_off_c, 0, 41, 67
1, 108289, Note_off_c, 0, 50, 58
1, 108290, Note_on_c, 0, 66, 80
1, 108291, Note_on_c, 0, 74, 66
1, 108313, Note_off_c, 0, 66, 70
1, 108315, Note_off_c, 0, 74, 70
1, 108364, Note_on_c, 0, 66, 94
1, 108373, Note_on_c, 0, 78, 85
1, 108379, Note_on_c, 0, 74, 66
1, 108414, Note_on_c, 0, 57, 61
1, 108415, Note_off_c, 0, 74, 59
1, 108418, Note_off_c, 0, 66, 63
1, 108423, Note_on_c, 0, 62, 53
1, 108429, Note_off_c, 0, 78, 64
1, 108441, Note_off_c, 0, 57, 63
1, 108450, Note_off_c, 0, 62, 57
1, 108468, Poly_aftertouch_c, 0, 53, 127
1, 108487, Note_on_c, 0, 53, 6
1, 108492, Note_on_c, 0, 62, 79
1, 108495, Note_on_c, 0, 57, 88
1, 108516, Note_off_c, 0, 62, 68
1, 108528, Note_off_c, 0, 57, 63
1, 108554, Note_off_c, 0, 53, 65
1, 108571, Note_on_c, 0, 67, 84
1, 108572, Note_on_c, 0, 74, 73
1, 108589, Note_off_c, 0, 67, 74
1, 108591, Note_off_c, 0, 74, 74
1, 108608, Note_on_c, 0, 79, 19
1, 108640, Control_c, 0, 64, 80
1, 108644, Note_on_c, 0, 67, 98
1, 108644, Note_off_c, 0, 79, 0
1, 108644, Note_on_c, 0, 79, 32
1, 108648, Note_on_c, 0, 74, 88
1, 108655, Control_c, 0, 64, 57
1, 108669, Control_c, 0, 64, 56
1, 108684, Control_c, 0, 64, 82
1, 108699, Control_c, 0, 64, 127
1, 108703, Note_on_c, 0, 45, 73
1, 108703, Note_on_c, 0, 50, 80
1, 108709, Note_off_c, 0, 79, 61
1, 108715, Note_on_c, 0, 41, 55
1, 108715, Note_on_c, 0, 38, 56
1, 108721, Note_off_c, 0, 67, 63
1, 108727, Note_off_c, 0, 50, 67
1, 108730, Note_off_c, 0, 45, 66
1, 108743, Note_off_c, 0, 74, 63
1, 108745, Note_off_c, 0, 38, 62
1, 108745, Note_off_c, 0, 41, 64
1, 108805, Note_on_c, 0, 38, 69
1, 108808, Note_on_c, 0, 45, 77
1, 108810, Note_on_c, 0, 50, 77
1, 108820, Note_on_c, 0, 41, 71
1, 108838, Note_off_c, 0, 38, 64
1, 108848, Note_off_c, 0, 41, 65
1, 108850, Note_off_c, 0, 45, 62
1, 108852, Note_off_c, 0, 50, 54
1, 108858, Note_on_c, 0, 68, 79
1, 108858, Note_on_c, 0, 74, 70
1, 108871, Note_on_c, 0, 80, 56
1, 108880, Note_off_c, 0, 68, 68
1, 108881, Note_off_c, 0, 74, 71
1, 108892, Note_off_c, 0, 80, 61
1, 108924, Note_on_c, 0, 68, 98
1, 108934, Note_on_c, 0, 80, 87
1, 108936, Note_on_c, 0, 74, 87
1, 108979, Note_on_c, 0, 57, 75
1, 108991, Note_off_c, 0, 68, 58
1, 108992, Note_on_c, 0, 62, 61
1, 108999, Note_off_c, 0, 57, 69
1, 109000, Note_off_c, 0, 74, 61
1, 109008, Note_off_c, 0, 80, 62
1, 109017, Note_off_c, 0, 62, 59
1, 109044, Poly_aftertouch_c, 0, 53, 127
1, 109055, Note_on_c, 0, 53, 13
1, 109058, Note_on_c, 0, 57, 89
1, 109058, Note_on_c, 0, 62, 69
1, 109080, Note_off_c, 0, 62, 67
1, 109098, Note_off_c, 0, 57, 63
1, 109119, Note_off_c, 0, 53, 63
1, 109123, Note_on_c, 0, 69, 88
1, 109124, Note_on_c, 0, 77, 83
1, 109125, Note_on_c, 0, 74, 77
1, 109134, Note_on_c, 0, 81, 68
1, 109148, Note_off_c, 0, 69, 66
1, 109150, Note_off_c, 0, 74, 67
1, 109151, Note_off_c, 0, 77, 61
1, 109160, Note_off_c, 0, 81, 68
1, 109195, Control_c, 0, 64, 93
1, 109198, Note_on_c, 0, 69, 96
1, 109198, Note_on_c, 0, 74, 86
1, 109201, Note_on_c, 0, 77, 84
1, 109201, Note_on_c, 0, 81, 98
1, 109210, Control_c, 0, 64, 55
1, 109225, Control_c, 0, 64, 0
1, 109239, Control_c, 0, 64, 14
1, 109254, Control_c, 0, 64, 48
1, 109265, Note_on_c, 0, 50, 92
1, 109268, Note_on_c, 0, 45, 81
1, 109269, Control_c, 0, 64, 127
1, 109275, Note_on_c, 0, 41, 70
1, 109279, Note_on_c, 0, 38, 66
1, 109293, Note_off_c, 0, 50, 62
1, 109299, Note_off_c, 0, 45, 65
1, 109300, Note_off_c, 0, 69, 63
1, 109303, Note_off_c, 0, 41, 67
1, 109303, Note_off_c, 0, 81, 60
1, 109314, Note_off_c, 0, 38, 63
1, 109315, Note_off_c, 0, 74, 65
1, 109331, Note_off_c, 0, 77, 63
1, 109372, Note_on_c, 0, 41, 75
1, 109372, Note_on_c, 0, 50, 103
1, 109380, Note_on_c, 0, 45, 81
1, 109381, Note_on_c, 0, 38, 83
1, 109426, Note_off_c, 0, 38, 60
1, 109458, Note_off_c, 0, 41, 62
1, 109463, Note_off_c, 0, 50, 62
1, 109467, Note_off_c, 0, 45, 62
1, 109487, Note_on_c, 0, 74, 102
1, 109488, Note_on_c, 0, 77, 97
1, 109492, Note_on_c, 0, 86, 92
1, 109494, Note_on_c, 0, 81, 85
1, 109528, Note_off_c, 0, 74, 69
1, 109532, Note_off_c, 0, 81, 58
1, 109533, Note_off_c, 0, 77, 67
1, 109538, Note_off_c, 0, 86, 59
1, 109607, Note_on_c, 0, 74, 101
1, 109607, Note_on_c, 0, 77, 95
1, 109610, Note_on_c, 0, 86, 94
1, 109615, Note_on_c, 0, 81, 84
1, 109683, Note_off_c, 0, 86, 59
1, 109690, Note_on_c, 0, 62, 90
1, 109694, Note_on_c, 0, 65, 81
1, 109699, Note_off_c, 0, 74, 61
1, 109701, Note_on_c, 0, 57, 68
1, 109707, Note_off_c, 0, 77, 58
1, 109714, Note_off_c, 0, 81, 61
1, 109716, Note_off_c, 0, 65, 70
1, 109721, Note_off_c, 0, 62, 61
1, 109726, Note_off_c, 0, 57, 63
1, 109780, Note_on_c, 0, 62, 86
1, 109780, Note_on_c, 0, 65, 86
1, 109786, Note_on_c, 0, 57, 87
1, 109798, Note_off_c, 0, 65, 75
1, 109809, Note_off_c, 0, 62, 62
1, 109827, Note_off_c, 0, 57, 65
1, 109895, Note_on_c, 0, 72, 92
1, 109899, Note_on_c, 0, 84, 85
1, 109918, Note_off_c, 0, 84, 70
1, 109921, Note_off_c, 0, 72, 63
1, 109985, Note_on_c, 0, 72, 99
1, 109988, Note_on_c, 0, 76, 93
1, 109989, Note_on_c, 0, 79, 87
1, 109990, Note_on_c, 0, 84, 86
1, 110003, Control_c, 0, 64, 62
1, 110018, Control_c, 0, 64, 22
1, 110033, Control_c, 0, 64, 0
1, 110048, Control_c, 0, 64, 21
1, 110051, Note_off_c, 0, 84, 60
1, 110053, Note_on_c, 0, 46, 70
1, 110055, Note_on_c, 0, 52, 77
1, 110059, Note_on_c, 0, 43, 66
1, 110062, Control_c, 0, 64, 52
1, 110073, Note_off_c, 0, 76, 62
1, 110074, Note_off_c, 0, 72, 60
1, 110077, Control_c, 0, 64, 127
1, 110079, Note_off_c, 0, 52, 72
1, 110083, Note_off_c, 0, 46, 65
1, 110085, Note_off_c, 0, 43, 64
1, 110087, Note_off_c, 0, 79, 58
1, 110091, Note_on_c, 0, 50, 31
1, 110130, Note_off_c, 0, 50, 45
1, 110141, Note_on_c, 0, 52, 81
1, 110143, Note_on_c, 0, 38, 50
1, 110145, Note_on_c, 0, 43, 76
1, 110145, Note_on_c, 0, 46, 73
1, 110169, Note_off_c, 0, 43, 63
1, 110170, Note_off_c, 0, 38, 56
1, 110170, Note_on_c, 0, 40, 24
1, 110173, Note_off_c, 0, 46, 64
1, 110183, Note_off_c, 0, 52, 66
1, 110212, Note_on_c, 0, 76, 77
1, 110216, Note_off_c, 0, 40, 40
1, 110218, Note_on_c, 0, 83, 71
1, 110220, Note_on_c, 0, 71, 63
1, 110232, Note_off_c, 0, 76, 70
1, 110237, Note_off_c, 0, 71, 67
1, 110239, Note_off_c, 0, 83, 67
1, 110288, Note_on_c, 0, 71, 91
1, 110289, Note_on_c, 0, 76, 90
1, 110292, Note_on_c, 0, 83, 88
1, 110328, Note_on_c, 0, 64, 78
1, 110337, Note_on_c, 0, 67, 66
1, 110347, Note_off_c, 0, 83, 64
1, 110350, Note_off_c, 0, 64, 68
1, 110355, Note_off_c, 0, 71, 63
1, 110356, Note_off_c, 0, 67, 69
1, 110361, Note_off_c, 0, 76, 66
1, 110400, Note_on_c, 0, 64, 82
1, 110406, Note_on_c, 0, 58, 75
1, 110406, Note_on_c, 0, 67, 77
1, 110428, Note_off_c, 0, 67, 70
1, 110432, Note_off_c, 0, 64, 64
1, 110456, Note_off_c, 0, 58, 64
1, 110476, Note_on_c, 0, 76, 87
1, 110480, Note_on_c, 0, 70, 88
1, 110498, Note_off_c, 0, 70, 71
1, 110507, Note_on_c, 0, 82, 32
1, 110514, Note_off_c, 0, 76, 60
1, 110551, Note_on_c, 0, 70, 93
1, 110553, Note_on_c, 0, 76, 74
1, 110553, Note_off_c, 0, 82, 0
1, 110553, Note_on_c, 0, 82, 56
1, 110560, Control_c, 0, 64, 72
1, 110574, Control_c, 0, 64, 41
1, 110589, Control_c, 0, 64, 0
1, 110614, Note_on_c, 0, 42, 77
1, 110615, Note_on_c, 0, 52, 79
1, 110623, Note_on_c, 0, 46, 66
1, 110633, Control_c, 0, 64, 39
1, 110641, Note_off_c, 0, 82, 63
1, 110641, Note_off_c, 0, 52, 69
1, 110648, Control_c, 0, 64, 63
1, 110649, Note_off_c, 0, 42, 62
1, 110651, Note_off_c, 0, 46, 66
1, 110652, Note_off_c, 0, 70, 58
1, 110663, Control_c, 0, 64, 127
1, 110666, Note_off_c, 0, 76, 64
1, 110707, Note_on_c, 0, 38, 73
1, 110707, Note_on_c, 0, 52, 81
1, 110709, Note_on_c, 0, 46, 79
1, 110711, Note_on_c, 0, 43, 72
1, 110731, Note_off_c, 0, 38, 61
1, 110734, Note_off_c, 0, 46, 67
1, 110735, Note_off_c, 0, 43, 65
1, 110739, Note_off_c, 0, 52, 59
1, 110760, Note_on_c, 0, 69, 75
1, 110764, Note_on_c, 0, 76, 66
1, 110779, Note_off_c, 0, 76, 70
1, 110781, Note_on_c, 0, 81, 47
1, 110781, Note_off_c, 0, 69, 74
1, 110808, Note_off_c, 0, 81, 58
1, 110828, Note_on_c, 0, 69, 88
1, 110831, Note_on_c, 0, 76, 92
1, 110834, Note_on_c, 0, 81, 69
1, 110879, Note_on_c, 0, 64, 71
1, 110880, Note_on_c, 0, 58, 65
1, 110884, Note_off_c, 0, 81, 64
1, 110892, Note_on_c, 0, 55, 45
1, 110894, Note_off_c, 0, 69, 63
1, 110898, Note_off_c, 0, 64, 66
1, 110900, Note_off_c, 0, 58, 65
1, 110905, Note_off_c, 0, 76, 64
1, 110919, Note_off_c, 0, 55, 57
1, 110951, Note_on_c, 0, 64, 79
1, 110958, Note_on_c, 0, 55, 63
1, 110961, Note_on_c, 0, 58, 77
1, 110974, Note_off_c, 0, 64, 68
1, 110984, Note_off_c, 0, 58, 67
1, 110995, Note_off_c, 0, 55, 65
1, 111040, Note_on_c, 0, 76, 75
1, 111041, Note_on_c, 0, 68, 82
1, 111061, Note_off_c, 0, 68, 70
1, 111061, Note_off_c, 0, 76, 71
1, 111102, Control_c, 0, 64, 63
1, 111109, Note_on_c, 0, 68, 92
1, 111116, Control_c, 0, 64, 12
1, 111121, Note_on_c, 0, 76, 77
1, 111128, Poly_aftertouch_c, 0, 80, 127
1, 111131, Control_c, 0, 64, 0
1, 111176, Control_c, 0, 64, 28
1, 111183, Note_on_c, 0, 52, 70
1, 111184, Note_on_c, 0, 46, 62
1, 111190, Control_c, 0, 64, 60
1, 111205, Note_on_c, 0, 43, 21
1, 111205, Control_c, 0, 64, 127
1, 111207, Note_off_c, 0, 52, 65
1, 111210, Note_off_c, 0, 68, 58
1, 111215, Note_off_c, 0, 46, 65
1, 111219, Poly_aftertouch_c, 0, 80, 0
1, 111233, Note_off_c, 0, 76, 62
1, 111247, Note_off_c, 0, 43, 0
1, 111247, Note_on_c, 0, 43, 26
1, 111252, Note_on_c, 0, 52, 68
1, 111254, Note_on_c, 0, 38, 70
1, 111258, Note_on_c, 0, 46, 62
1, 111279, Note_off_c, 0, 52, 68
1, 111285, Note_off_c, 0, 46, 66
1, 111285, Note_off_c, 0, 38, 65
1, 111291, Note_off_c, 0, 43, 59
1, 111333, Note_on_c, 0, 67, 67
1, 111334, Note_on_c, 0, 76, 68
1, 111338, Note_on_c, 0, 70, 60
1, 111349, Note_off_c, 0, 67, 70
1, 111350, Note_off_c, 0, 76, 68
1, 111357, Note_off_c, 0, 70, 63
1, 111401, Note_on_c, 0, 67, 88
1, 111407, Note_on_c, 0, 76, 75
1, 111410, Note_on_c, 0, 79, 74
1, 111418, Note_on_c, 0, 70, 79
1, 111430, Note_on_c, 0, 54, 76
1, 111446, Note_on_c, 0, 58, 58
1, 111460, Note_off_c, 0, 54, 65
1, 111461, Note_off_c, 0, 79, 62
1, 111462, Note_off_c, 0, 67, 62
1, 111470, Note_off_c, 0, 58, 59
1, 111477, Note_off_c, 0, 76, 64
1, 111481, Note_off_c, 0, 70, 61
1, 111509, Poly_aftertouch_c, 0, 64, 127
1, 111518, Note_on_c, 0, 64, 13
1, 111527, Note_on_c, 0, 55, 74
1, 111530, Note_on_c, 0, 58, 79
1, 111546, Note_off_c, 0, 64, 62
1, 111552, Note_off_c, 0, 58, 70
1, 111563, Note_off_c, 0, 55, 66
1, 111595, Note_on_c, 0, 66, 86
1, 111596, Note_on_c, 0, 78, 78
1, 111601, Note_on_c, 0, 70, 67
1, 111614, Note_off_c, 0, 66, 71
1, 111618, Note_off_c, 0, 78, 72
1, 111619, Note_off_c, 0, 70, 67
1, 111674, Note_on_c, 0, 78, 90
1, 111679, Control_c, 0, 64, 65
1, 111680, Note_on_c, 0, 66, 81
1, 111680, Note_on_c, 0, 70, 73
1, 111694, Control_c, 0, 64, 44
1, 111708, Control_c, 0, 64, 0
1, 111723, Control_c, 0, 64, 21
1, 111739, Control_c, 0, 64, 42
1, 111742, Note_on_c, 0, 46, 68
1, 111746, Note_on_c, 0, 43, 60
1, 111746, Note_on_c, 0, 52, 68
1, 111762, Control_c, 0, 64, 61
1, 111775, Note_off_c, 0, 52, 65
1, 111777, Control_c, 0, 64, 127
1, 111778, Note_off_c, 0, 46, 65
1, 111782, Note_off_c, 0, 43, 63
1, 111786, Note_off_c, 0, 66, 58
1, 111786, Note_off_c, 0, 70, 60
1, 111803, Note_off_c, 0, 78, 63
1, 111839, Note_on_c, 0, 38, 69
1, 111839, Note_on_c, 0, 43, 70
1, 111842, Note_on_c, 0, 52, 66
1, 111846, Note_on_c, 0, 46, 68
1, 111859, Note_off_c, 0, 52, 69
1, 111864, Note_off_c, 0, 43, 64
1, 111866, Note_off_c, 0, 38, 63
1, 111875, Note_off_c, 0, 46, 66
1, 111895, Note_on_c, 0, 70, 67
1, 111897, Note_on_c, 0, 65, 69
1, 111899, Note_on_c, 0, 77, 66
1, 111914, Note_off_c, 0, 70, 67
1, 111915, Note_off_c, 0, 65, 70
1, 111918, Note_off_c, 0, 77, 65
1, 111968, Note_on_c, 0, 77, 89
1, 111970, Note_on_c, 0, 70, 80
1, 111972, Note_on_c, 0, 65, 85
1, 112020, Note_on_c, 0, 55, 59
1, 112023, Note_off_c, 0, 65, 64
1, 112026, Note_on_c, 0, 58, 53
1, 112033, Note_off_c, 0, 70, 63
1, 112033, Note_off_c, 0, 77, 60
1, 112042, Note_off_c, 0, 55, 63
1, 112048, Note_off_c, 0, 58, 60
1, 112094, Note_on_c, 0, 58, 69
1, 112095, Note_on_c, 0, 55, 79
1, 112118, Note_off_c, 0, 58, 70
1, 112120, Note_off_c, 0, 55, 69
1, 112163, Note_on_c, 0, 64, 70
1, 112167, Note_on_c, 0, 70, 59
1, 112173, Note_on_c, 0, 76, 53
1, 112182, Note_off_c, 0, 64, 67
1, 112183, Note_off_c, 0, 70, 67
1, 112196, Note_off_c, 0, 76, 61
1, 112236, Control_c, 0, 64, 68
1, 112236, Note_on_c, 0, 64, 75
1, 112236, Note_on_c, 0, 76, 73
1, 112245, Note_on_c, 0, 70, 73
1, 112251, Control_c, 0, 64, 52
1, 112265, Control_c, 0, 64, 27
1, 112280, Control_c, 0, 64, 15
1, 112295, Control_c, 0, 64, 28
1, 112304, Note_off_c, 0, 76, 61
1, 112309, Control_c, 0, 64, 44
1, 112316, Note_on_c, 0, 46, 67
1, 112316, Note_on_c, 0, 52, 68
1, 112324, Control_c, 0, 64, 60
1, 112325, Note_on_c, 0, 43, 55
1, 112326, Note_off_c, 0, 64, 58
1, 112338, Control_c, 0, 64, 95
1, 112346, Note_off_c, 0, 52, 65
1, 112346, Note_off_c, 0, 46, 64
1, 112349, Note_off_c, 0, 70, 60
1, 112353, Note_off_c, 0, 43, 62
1, 112353, Control_c, 0, 64, 127
1, 112392, Note_on_c, 0, 52, 61
1, 112398, Note_on_c, 0, 43, 64
1, 112409, Note_on_c, 0, 38, 59
1, 112409, Note_on_c, 0, 46, 73
1, 112436, Note_off_c, 0, 52, 52
1, 112436, Note_off_c, 0, 43, 62
1, 112436, Note_off_c, 0, 46, 66
1, 112438, Note_off_c, 0, 38, 54
1, 112453, Note_on_c, 0, 63, 73
1, 112456, Note_on_c, 0, 75, 59
1, 112461, Note_on_c, 0, 70, 57
1, 112473, Note_off_c, 0, 63, 67
1, 112477, Note_off_c, 0, 75, 62
1, 112482, Note_off_c, 0, 70, 61
1, 112532, Note_on_c, 0, 63, 87
1, 112537, Note_on_c, 0, 75, 85
1, 112549, Note_on_c, 0, 70, 74
1, 112587, Note_off_c, 0, 63, 62
1, 112597, Note_on_c, 0, 55, 59
1, 112604, Note_off_c, 0, 70, 61
1, 112614, Note_on_c, 0, 58, 35
1, 112614, Note_off_c, 0, 75, 60
1, 112619, Note_off_c, 0, 55, 62
1, 112648, Note_off_c, 0, 58, 0
1, 112648, Note_on_c, 0, 58, 29
1, 112659, Note_on_c, 0, 55, 74
1, 112689, Note_off_c, 0, 55, 67
1, 112695, Note_off_c, 0, 58, 62
1, 112734, Note_on_c, 0, 70, 70
1, 112738, Note_on_c, 0, 64, 74
1, 112758, Note_on_c, 0, 76, 41
1, 112759, Note_off_c, 0, 70, 65
1, 112759, Note_off_c, 0, 64, 66
1, 112808, Note_off_c, 0, 76, 0
1, 112808, Note_on_c, 0, 76, 59
1, 112814, Note_on_c, 0, 64, 81
1, 112814, Note_on_c, 0, 70, 73
1, 112820, Control_c, 0, 64, 97
1, 112835, Control_c, 0, 64, 57
1, 112850, Control_c, 0, 64, 19
1, 112865, Control_c, 0, 64, 18
1, 112868, Note_on_c, 0, 42, 72
1, 112880, Control_c, 0, 64, 46
1, 112882, Note_on_c, 0, 52, 49
1, 112895, Control_c, 0, 64, 66
1, 112905, Note_on_c, 0, 46, 21
1, 112905, Note_off_c, 0, 64, 58
1, 112910, Note_off_c, 0, 52, 59
1, 112910, Control_c, 0, 64, 127
1, 112917, Note_off_c, 0, 42, 57
1, 112923, Note_off_c, 0, 76, 63
1, 112941, Note_off_c, 0, 70, 61
1, 112966, Note_off_c, 0, 46, 0
1, 112970, Note_on_c, 0, 43, 75
1, 112972, Note_on_c, 0, 38, 67
1, 112975, Note_on_c, 0, 52, 74
1, 112983, Note_on_c, 0, 46, 48
1, 112992, Note_off_c, 0, 52, 70
1, 113002, Note_off_c, 0, 38, 62
1, 113005, Note_off_c, 0, 43, 63
1, 113013, Note_off_c, 0, 46, 64
1, 113029, Note_on_c, 0, 65, 73
1, 113035, Note_on_c, 0, 77, 69
1, 113046, Note_on_c, 0, 70, 50
1, 113050, Note_off_c, 0, 65, 70
1, 113055, Note_off_c, 0, 77, 66
1, 113065, Note_off_c, 0, 70, 65
1, 113101, Note_on_c, 0, 65, 91
1, 113103, Note_on_c, 0, 77, 89
1, 113117, Note_on_c, 0, 70, 83
1, 113148, Note_on_c, 0, 55, 70
1, 113157, Note_on_c, 0, 58, 55
1, 113166, Note_off_c, 0, 65, 60
1, 113167, Note_off_c, 0, 77, 61
1, 113175, Note_off_c, 0, 55, 68
1, 113179, Note_off_c, 0, 58, 60
1, 113191, Note_off_c, 0, 70, 62
1, 113230, Note_on_c, 0, 55, 83
1, 113237, Note_on_c, 0, 58, 75
1, 113268, Note_off_c, 0, 58, 70
1, 113286, Note_off_c, 0, 55, 65
1, 113306, Note_on_c, 0, 66, 79
1, 113311, Note_on_c, 0, 70, 62
1, 113319, Note_on_c, 0, 78, 52
1, 113330, Note_off_c, 0, 66, 69
1, 113331, Note_off_c, 0, 70, 65
1, 113344, Note_off_c, 0, 78, 59
1, 113379, Note_on_c, 0, 66, 96
1, 113387, Note_on_c, 0, 78, 87
1, 113396, Note_on_c, 0, 70, 82
1, 113407, Control_c, 0, 64, 79
1, 113422, Control_c, 0, 64, 52
1, 113437, Control_c, 0, 64, 0
1, 113445, Note_on_c, 0, 52, 77
1, 113448, Note_on_c, 0, 46, 67
1, 113452, Control_c, 0, 64, 22
1, 113455, Note_on_c, 0, 43, 58
1, 113467, Control_c, 0, 64, 48
1, 113473, Note_off_c, 0, 66, 59
1, 113474, Note_off_c, 0, 52, 64
1, 113479, Note_off_c, 0, 46, 64
1, 113482, Control_c, 0, 64, 70
1, 113485, Note_off_c, 0, 78, 62
1, 113488, Note_off_c, 0, 43, 62
1, 113497, Control_c, 0, 64, 127
1, 113499, Note_off_c, 0, 70, 59
1, 113533, Note_on_c, 0, 52, 62
1, 113536, Note_on_c, 0, 43, 66
1, 113539, Note_on_c, 0, 46, 78
1, 113541, Note_on_c, 0, 38, 63
1, 113564, Note_off_c, 0, 43, 63
1, 113567, Note_off_c, 0, 52, 62
1, 113568, Note_off_c, 0, 46, 64
1, 113569, Note_off_c, 0, 38, 56
1, 113590, Note_on_c, 0, 67, 81
1, 113593, Note_on_c, 0, 70, 73
1, 113611, Note_off_c, 0, 70, 67
1, 113613, Note_off_c, 0, 67, 73
1, 113619, Note_on_c, 0, 79, 32
1, 113649, Note_off_c, 0, 79, 0
1, 113664, Note_on_c, 0, 67, 92
1, 113666, Note_on_c, 0, 79, 63
1, 113667, Note_on_c, 0, 70, 87
1, 113705, Note_on_c, 0, 58, 69
1, 113717, Note_on_c, 0, 64, 52
1, 113722, Note_on_c, 0, 55, 42
1, 113723, Note_off_c, 0, 58, 65
1, 113727, Note_off_c, 0, 79, 62
1, 113731, Note_off_c, 0, 67, 63
1, 113737, Note_off_c, 0, 64, 62
1, 113743, Note_off_c, 0, 70, 61
1, 113767, Note_off_c, 0, 55, 0
1, 113777, Note_on_c, 0, 55, 62
1, 113780, Note_on_c, 0, 58, 85
1, 113781, Note_on_c, 0, 64, 75
1, 113804, Note_off_c, 0, 64, 69
1, 113826, Note_off_c, 0, 58, 64
1, 113829, Note_off_c, 0, 55, 64
1, 113855, Note_on_c, 0, 68, 89
1, 113856, Note_on_c, 0, 76, 79
1, 113875, Note_off_c, 0, 68, 70
1, 113879, Note_off_c, 0, 76, 69
1, 113924, Note_on_c, 0, 68, 106
1, 113926, Note_on_c, 0, 80, 72
1, 113935, Note_on_c, 0, 76, 74
1, 113941, Control_c, 0, 64, 83
1, 113956, Control_c, 0, 64, 55
1, 113971, Control_c, 0, 64, 23
1, 113984, Note_on_c, 0, 52, 87
1, 113986, Control_c, 0, 64, 31
1, 113995, Note_on_c, 0, 43, 63
1, 113995, Note_on_c, 0, 46, 62
1, 114001, Control_c, 0, 64, 58
1, 114016, Note_off_c, 0, 52, 70
1, 114023, Control_c, 0, 64, 127
1, 114028, Note_off_c, 0, 68, 54
1, 114032, Note_off_c, 0, 46, 65
1, 114033, Note_off_c, 0, 43, 61
1, 114035, Note_off_c, 0, 76, 64
1, 114039, Note_off_c, 0, 80, 62
1, 114076, Note_on_c, 0, 52, 73
1, 114078, Note_on_c, 0, 38, 70
1, 114081, Note_on_c, 0, 43, 65
1, 114087, Note_on_c, 0, 46, 65
1, 114105, Note_off_c, 0, 38, 60
1, 114106, Note_off_c, 0, 43, 64
1, 114115, Note_off_c, 0, 46, 65
1, 114117, Note_off_c, 0, 52, 64
1, 114128, Note_on_c, 0, 69, 86
1, 114135, Note_on_c, 0, 76, 73
1, 114143, Note_on_c, 0, 81, 64
1, 114150, Note_off_c, 0, 69, 71
1, 114156, Note_off_c, 0, 76, 70
1, 114162, Note_off_c, 0, 81, 67
1, 114207, Note_on_c, 0, 69, 92
1, 114211, Note_on_c, 0, 76, 86
1, 114216, Note_on_c, 0, 81, 89
1, 114245, Note_on_c, 0, 64, 83
1, 114251, Note_on_c, 0, 67, 73
1, 114260, Note_off_c, 0, 81, 63
1, 114266, Note_off_c, 0, 64, 69
1, 114273, Note_off_c, 0, 67, 72
1, 114273, Note_off_c, 0, 69, 62
1, 114295, Note_off_c, 0, 76, 68
1, 114316, Note_on_c, 0, 64, 89
1, 114317, Note_on_c, 0, 67, 85
1, 114321, Note_on_c, 0, 58, 74
1, 114340, Note_off_c, 0, 67, 69
1, 114352, Note_off_c, 0, 64, 64
1, 114379, Note_off_c, 0, 58, 64
1, 114418, Note_on_c, 0, 70, 94
1, 114425, Note_on_c, 0, 76, 70
1, 114425, Note_on_c, 0, 79, 70
1, 114437, Note_off_c, 0, 70, 67
1, 114449, Note_off_c, 0, 76, 70
1, 114455, Note_off_c, 0, 79, 63
1, 114460, Note_on_c, 0, 82, 10
1, 114493, Note_on_c, 0, 70, 97
1, 114507, Note_on_c, 0, 76, 85
1, 114509, Note_on_c, 0, 79, 76
1, 114513, Control_c, 0, 64, 65
1, 114528, Control_c, 0, 64, 35
1, 114542, Control_c, 0, 64, 0
1, 114558, Control_c, 0, 64, 33
1, 114560, Note_on_c, 0, 45, 81
1, 114570, Note_on_c, 0, 49, 73
1, 114573, Control_c, 0, 64, 65
1, 114587, Control_c, 0, 64, 127
1, 114589, Note_off_c, 0, 45, 67
1, 114589, Note_off_c, 0, 49, 68
1, 114593, Note_on_c, 0, 37, 28
1, 114596, Note_off_c, 0, 70, 57
1, 114598, Note_off_c, 0, 76, 63
1, 114611, Note_off_c, 0, 82, 52
1, 114612, Note_off_c, 0, 79, 61
1, 114616, Note_off_c, 0, 37, 0
1, 114631, Note_on_c, 0, 37, 39
1, 114642, Note_on_c, 0, 45, 80
1, 114647, Note_on_c, 0, 49, 84
1, 114678, Note_off_c, 0, 37, 64
1, 114684, Note_off_c, 0, 45, 61
1, 114694, Note_off_c, 0, 49, 66
1, 114696, Note_on_c, 0, 69, 85
1, 114698, Note_on_c, 0, 76, 77
1, 114698, Note_on_c, 0, 79, 74
1, 114716, Note_on_c, 0, 81, 51
1, 114716, Note_off_c, 0, 69, 72
1, 114718, Note_off_c, 0, 76, 71
1, 114723, Note_off_c, 0, 79, 67
1, 114737, Note_off_c, 0, 81, 61
1, 114779, Note_on_c, 0, 69, 93
1, 114785, Note_on_c, 0, 76, 85
1, 114786, Note_on_c, 0, 79, 86
1, 114786, Note_on_c, 0, 81, 87
1, 114811, Note_off_c, 0, 69, 70
1, 114831, Note_off_c, 0, 76, 69
1, 114844, Note_off_c, 0, 81, 64
1, 114847, Note_off_c, 0, 79, 63
1, 114847, Note_on_c, 0, 64, 84
1, 114858, Note_on_c, 0, 67, 72
1, 114868, Note_off_c, 0, 64, 69
1, 114877, Note_off_c, 0, 67, 71
1, 114925, Note_on_c, 0, 67, 84
1, 114926, Note_on_c, 0, 64, 89
1, 114929, Note_on_c, 0, 57, 65
1, 114946, Note_off_c, 0, 67, 71
1, 114973, Note_off_c, 0, 64, 65
1, 114996, Note_off_c, 0, 57, 64
1, 115026, Note_on_c, 0, 82, 96
1, 115031, Note_on_c, 0, 88, 85
1, 115032, Note_on_c, 0, 91, 79
1, 115039, Note_on_c, 0, 94, 75
1, 115059, Note_off_c, 0, 82, 64
1, 115059, Note_off_c, 0, 94, 70
1, 115071, Note_off_c, 0, 88, 66
1, 115071, Note_off_c, 0, 91, 57
1, 115111, Note_on_c, 0, 82, 106
1, 115115, Note_on_c, 0, 94, 96
1, 115118, Note_on_c, 0, 88, 85
1, 115118, Note_on_c, 0, 91, 84
1, 115144, Control_c, 0, 64, 72
1, 115158, Control_c, 0, 64, 38
1, 115173, Control_c, 0, 64, 0
1, 115177, Note_on_c, 0, 45, 81
1, 115180, Note_on_c, 0, 49, 79
1, 115188, Control_c, 0, 64, 31
1, 115189, Note_on_c, 0, 37, 58
1, 115203, Control_c, 0, 64, 59
1, 115204, Note_off_c, 0, 49, 72
1, 115205, Note_off_c, 0, 45, 66
1, 115217, Note_off_c, 0, 37, 53
1, 115217, Control_c, 0, 64, 127
1, 115218, Note_off_c, 0, 82, 57
1, 115220, Note_off_c, 0, 94, 65
1, 115227, Note_off_c, 0, 88, 62
1, 115239, Note_off_c, 0, 91, 58
1, 115253, Note_on_c, 0, 37, 73
1, 115257, Note_on_c, 0, 45, 84
1, 115259, Note_on_c, 0, 49, 85
1, 115286, Note_off_c, 0, 37, 59
1, 115296, Note_off_c, 0, 45, 65
1, 115306, Note_off_c, 0, 49, 64
1, 115333, Note_on_c, 0, 88, 77
1, 115334, Note_on_c, 0, 91, 74
1, 115337, Note_on_c, 0, 81, 73
1, 115351, Note_off_c, 0, 91, 66
1, 115352, Note_off_c, 0, 81, 70
1, 115353, Note_off_c, 0, 88, 73
1, 115397, Note_on_c, 0, 81, 99
1, 115401, Note_on_c, 0, 91, 94
1, 115405, Note_on_c, 0, 88, 83
1, 115408, Note_on_c, 0, 93, 1
1, 115412, Note_off_c, 0, 93, 59
1, 115431, Note_off_c, 0, 88, 64
1, 115440, Note_on_c, 0, 64, 73
1, 115448, Note_on_c, 0, 67, 66
1, 115449, Note_off_c, 0, 91, 57
1, 115454, Note_off_c, 0, 81, 62
1, 115465, Note_off_c, 0, 64, 68
1, 115495, Note_on_c, 0, 57, 63
1, 115516, Note_off_c, 0, 67, 71
1, 115523, Note_on_c, 0, 64, 72
1, 115543, Note_off_c, 0, 64, 71
1, 115564, Note_off_c, 0, 57, 63
1, 115584, Note_on_c, 0, 76, 90
1, 115589, Note_on_c, 0, 88, 74
1, 115595, Control_c, 0, 64, 85
1, 115601, Note_off_c, 0, 76, 74
1, 115605, Note_on_c, 0, 86, 59
1, 115610, Control_c, 0, 64, 48
1, 115614, Note_off_c, 0, 88, 63
1, 115625, Control_c, 0, 64, 0
1, 115625, Note_off_c, 0, 86, 56
1, 115664, Note_on_c, 0, 76, 90
1, 115669, Note_on_c, 0, 88, 79
1, 115670, Note_on_c, 0, 83, 69
1, 115676, Note_on_c, 0, 80, 70
1, 115699, Control_c, 0, 64, 43
1, 115714, Control_c, 0, 64, 66
1, 115729, Control_c, 0, 64, 127
1, 115735, Note_on_c, 0, 47, 73
1, 115735, Note_on_c, 0, 50, 68
1, 115747, Note_off_c, 0, 88, 65
1, 115749, Note_on_c, 0, 46, 47
1, 115751, Note_off_c, 0, 76, 61
1, 115764, Note_off_c, 0, 47, 67
1, 115765, Note_off_c, 0, 50, 65
1, 115765, Note_off_c, 0, 80, 61
1, 115777, Note_off_c, 0, 83, 63
1, 115780, Note_off_c, 0, 46, 55
1, 115812, Note_on_c, 0, 47, 86
1, 115813, Note_on_c, 0, 38, 72
1, 115837, Note_on_c, 0, 50, 52
1, 115846, Note_off_c, 0, 38, 63
1, 115846, Note_off_c, 0, 47, 64
1, 115861, Note_off_c, 0, 50, 60
1, 115867, Note_on_c, 0, 77, 86
1, 115868, Note_on_c, 0, 83, 78
1, 115870, Note_on_c, 0, 80, 76
1, 115886, Note_off_c, 0, 77, 72
1, 115888, Note_off_c, 0, 83, 71
1, 115891, Note_off_c, 0, 80, 70
1, 115940, Note_on_c, 0, 77, 91
1, 115946, Note_on_c, 0, 83, 85
1, 115950, Note_on_c, 0, 80, 87
1, 115956, Note_on_c, 0, 89, 20
1, 115964, Note_on_c, 0, 88, 52
1, 115987, Note_off_c, 0, 88, 61
1, 115989, Note_on_c, 0, 59, 71
1, 115992, Note_off_c, 0, 89, 63
1, 115996, Note_on_c, 0, 65, 69
1, 115999, Note_on_c, 0, 56, 56
1, 116011, Note_off_c, 0, 77, 58
1, 116015, Note_off_c, 0, 65, 68
1, 116016, Note_off_c, 0, 59, 66
1, 116023, Note_off_c, 0, 56, 60
1, 116031, Note_off_c, 0, 80, 62
1, 116038, Note_off_c, 0, 83, 60
1, 116063, Note_on_c, 0, 59, 76
1, 116064, Note_on_c, 0, 65, 79
1, 116067, Note_on_c, 0, 56, 79
1, 116082, Note_off_c, 0, 65, 75
1, 116090, Note_off_c, 0, 59, 66
1, 116106, Note_off_c, 0, 56, 63
1, 116132, Note_on_c, 0, 73, 85
1, 116140, Note_on_c, 0, 80, 65
1, 116149, Note_off_c, 0, 73, 74
1, 116154, Note_on_c, 0, 85, 42
1, 116164, Note_off_c, 0, 80, 68
1, 116172, Control_c, 0, 64, 115
1, 116187, Control_c, 0, 64, 60
1, 116201, Note_on_c, 0, 73, 100
1, 116202, Note_off_c, 0, 85, 0
1, 116202, Control_c, 0, 64, 16
1, 116203, Poly_aftertouch_c, 0, 83, 127
1, 116212, Note_on_c, 0, 85, 63
1, 116215, Note_on_c, 0, 80, 73
1, 116217, Control_c, 0, 64, 25
1, 116231, Control_c, 0, 64, 56
1, 116246, Control_c, 0, 64, 127
1, 116270, Poly_aftertouch_c, 0, 82, 127
1, 116289, Note_on_c, 0, 50, 66
1, 116290, Note_on_c, 0, 47, 69
1, 116290, Note_on_c, 0, 48, 66
1, 116308, Note_off_c, 0, 47, 69
1, 116310, Note_off_c, 0, 50, 61
1, 116312, Note_off_c, 0, 48, 66
1, 116314, Note_off_c, 0, 85, 61
1, 116315, Note_off_c, 0, 73, 61
1, 116334, Note_off_c, 0, 80, 60
1, 116338, Poly_aftertouch_c, 0, 83, 0
1, 116344, Poly_aftertouch_c, 0, 82, 0
1, 116364, Note_on_c, 0, 38, 80
1, 116364, Note_on_c, 0, 47, 80
1, 116382, Note_on_c, 0, 50, 57
1, 116389, Note_on_c, 0, 48, 37
1, 116390, Note_off_c, 0, 48, 127
1, 116395, Note_off_c, 0, 47, 68
1, 116396, Note_off_c, 0, 38, 66
1, 116403, Note_off_c, 0, 50, 66
1, 116416, Poly_aftertouch_c, 0, 48, 0
1, 116424, Note_on_c, 0, 74, 74
1, 116431, Note_on_c, 0, 80, 61
1, 116438, Note_on_c, 0, 83, 47
1, 116440, Note_off_c, 0, 74, 71
1, 116448, Note_off_c, 0, 80, 66
1, 116460, Note_off_c, 0, 83, 60
1, 116487, Poly_aftertouch_c, 0, 40, 0
1, 116489, Note_on_c, 0, 74, 91
1, 116502, Note_on_c, 0, 86, 73
1, 116505, Note_on_c, 0, 83, 71
1, 116506, Note_on_c, 0, 80, 83
1, 116525, Note_off_c, 0, 86, 64
1, 116555, Note_off_c, 0, 83, 64
1, 116560, Note_off_c, 0, 74, 64
1, 116562, Note_off_c, 0, 80, 62
1, 116573, Note_on_c, 0, 65, 46
1, 116588, Note_on_c, 0, 60, 14
1, 116599, Note_off_c, 0, 65, 0
1, 116607, Note_on_c, 0, 56, 2
1, 116607, Note_on_c, 0, 59, 23
1, 116613, Note_on_c, 0, 65, 69
1, 116635, Note_off_c, 0, 60, 49
1, 116646, Note_off_c, 0, 65, 67
1, 116664, Note_off_c, 0, 59, 62
1, 116669, Note_off_c, 0, 56, 61
1, 116700, Note_on_c, 0, 68, 88
1, 116719, Note_on_c, 0, 76, 49
1, 116719, Note_off_c, 0, 68, 70
1, 116743, Note_off_c, 0, 76, 62
1, 116782, Note_on_c, 0, 70, 93
1, 116788, Control_c, 0, 64, 62
1, 116798, Note_on_c, 0, 79, 64
1, 116803, Control_c, 0, 64, 29
1, 116811, Note_on_c, 0, 82, 51
1, 116813, Note_on_c, 0, 78, 51
1, 116818, Control_c, 0, 64, 0
1, 116832, Control_c, 0, 64, 16
1, 116847, Control_c, 0, 64, 46
1, 116852, Note_off_c, 0, 78, 43
1, 116853, Note_on_c, 0, 46, 80
1, 116862, Control_c, 0, 64, 72
1, 116863, Note_on_c, 0, 49, 68
1, 116875, Note_off_c, 0, 82, 60
1, 116877, Control_c, 0, 64, 127
1, 116878, Note_off_c, 0, 70, 59
1, 116883, Note_off_c, 0, 46, 65
1, 116883, Note_off_c, 0, 49, 66
1, 116892, Note_off_c, 0, 79, 54
1, 116919, Note_on_c, 0, 37, 78
1, 116931, Note_on_c, 0, 45, 76
1, 116931, Note_on_c, 0, 49, 78
1, 116958, Note_off_c, 0, 37, 63
1, 116964, Note_off_c, 0, 45, 67
1, 116981, Note_off_c, 0, 49, 61
1, 116992, Note_on_c, 0, 69, 78
1, 116993, Note_on_c, 0, 76, 77
1, 116993, Note_on_c, 0, 79, 73
1, 117018, Note_off_c, 0, 79, 66
1, 117019, Note_off_c, 0, 69, 75
1, 117020, Note_off_c, 0, 76, 72
1, 117063, Note_on_c, 0, 69, 95
1, 117065, Note_on_c, 0, 81, 73
1, 117071, Note_on_c, 0, 79, 90
1, 117074, Note_on_c, 0, 76, 88
1, 117101, Note_off_c, 0, 69, 69
1, 117115, Note_off_c, 0, 76, 69
1, 117129, Note_on_c, 0, 64, 73
1, 117131, Note_off_c, 0, 79, 63
1, 117132, Note_off_c, 0, 81, 64
1, 117138, Note_on_c, 0, 67, 63
1, 117145, Note_off_c, 0, 64, 68
1, 117157, Note_off_c, 0, 67, 69
1, 117190, Note_on_c, 0, 67, 76
1, 117193, Note_on_c, 0, 57, 68
1, 117193, Note_on_c, 0, 64, 85
1, 117219, Note_off_c, 0, 67, 66
1, 117235, Note_off_c, 0, 64, 66
1, 117258, Note_off_c, 0, 57, 65
1, 117285, Note_on_c, 0, 82, 96
1, 117294, Note_on_c, 0, 91, 71
1, 117294, Note_on_c, 0, 94, 70
1, 117300, Note_on_c, 0, 88, 70
1, 117306, Note_off_c, 0, 82, 66
1, 117311, Note_on_c, 0, 92, 36
1, 117311, Note_off_c, 0, 94, 68
1, 117318, Note_off_c, 0, 91, 66
1, 117324, Note_off_c, 0, 88, 71
1, 117344, Note_off_c, 0, 92, 53
1, 117352, Poly_aftertouch_c, 0, 89, 127
1, 117367, Note_on_c, 0, 82, 110
1, 117369, Note_on_c, 0, 94, 99
1, 117374, Control_c, 0, 64, 72
1, 117375, Note_on_c, 0, 88, 93
1, 117376, Note_on_c, 0, 91, 92
1, 117389, Control_c, 0, 64, 43
1, 117393, Poly_aftertouch_c, 0, 89, 0
1, 117403, Control_c, 0, 64, 0
1, 117418, Control_c, 0, 64, 38
1, 117423, Note_on_c, 0, 49, 87
1, 117433, Control_c, 0, 64, 90
1, 117445, Note_off_c, 0, 49, 71
1, 117447, Note_on_c, 0, 46, 29
1, 117448, Control_c, 0, 64, 127
1, 117466, Note_off_c, 0, 82, 59
1, 117469, Note_off_c, 0, 94, 64
1, 117470, Note_off_c, 0, 88, 60
1, 117482, Note_off_c, 0, 91, 57
1, 117491, Note_on_c, 0, 37, 37
1, 117494, Note_on_c, 0, 44, 22
1, 117499, Note_on_c, 0, 49, 87
1, 117504, Note_off_c, 0, 46, 0
1, 117504, Note_on_c, 0, 46, 59
1, 117517, Note_on_c, 0, 39, 28
1, 117524, Note_off_c, 0, 37, 63
1, 117536, Note_off_c, 0, 44, 32
1, 117538, Note_off_c, 0, 46, 66
1, 117550, Note_off_c, 0, 49, 62
1, 117560, Note_off_c, 0, 39, 42
1, 117576, Note_on_c, 0, 81, 88
1, 117578, Note_on_c, 0, 88, 74
1, 117581, Note_on_c, 0, 91, 77
1, 117594, Note_off_c, 0, 81, 75
1, 117599, Note_off_c, 0, 88, 72
1, 117599, Note_off_c, 0, 91, 65
1, 117644, Note_on_c, 0, 81, 103
1, 117647, Note_on_c, 0, 93, 61
1, 117649, Note_on_c, 0, 91, 96
1, 117658, Note_on_c, 0, 88, 80
1, 117676, Note_off_c, 0, 88, 71
1, 117684, Note_off_c, 0, 93, 64
1, 117699, Note_off_c, 0, 91, 58
1, 117705, Note_on_c, 0, 64, 65
1, 117705, Note_off_c, 0, 81, 62
1, 117711, Note_on_c, 0, 67, 69
1, 117722, Note_off_c, 0, 64, 67
1, 117756, Note_off_c, 0, 67, 0
1, 117760, Note_on_c, 0, 57, 4
1, 117767, Note_on_c, 0, 67, 71
1, 117781, Note_on_c, 0, 64, 79
1, 117789, Note_off_c, 0, 67, 69
1, 117801, Note_off_c, 0, 64, 71
1, 117829, Note_off_c, 0, 57, 61
1, 117838, Note_on_c, 0, 76, 92
1, 117846, Note_on_c, 0, 88, 71
1, 117857, Note_off_c, 0, 76, 72
1, 117863, Note_off_c, 0, 88, 70
1, 117915, Control_c, 0, 64, 100
1, 117918, Note_on_c, 0, 76, 95
1, 117918, Note_on_c, 0, 88, 82
1, 117921, Note_on_c, 0, 80, 82
1, 117922, Note_on_c, 0, 83, 77
1, 117930, Control_c, 0, 64, 45
1, 117945, Control_c, 0, 64, 0
1, 117989, Control_c, 0, 64, 50
1, 117990, Note_on_c, 0, 47, 82
1, 117999, Note_on_c, 0, 50, 72
1, 118001, Note_off_c, 0, 76, 59
1, 118004, Control_c, 0, 64, 127
1, 118007, Note_off_c, 0, 88, 64
1, 118023, Note_off_c, 0, 47, 66
1, 118027, Note_off_c, 0, 50, 65
1, 118027, Note_off_c, 0, 80, 61
1, 118028, Note_off_c, 0, 83, 62
1, 118068, Note_on_c, 0, 47, 80
1, 118075, Note_on_c, 0, 38, 79
1, 118087, Note_on_c, 0, 50, 68
1, 118106, Note_off_c, 0, 38, 65
1, 118115, Note_off_c, 0, 47, 65
1, 118116, Note_off_c, 0, 50, 66
1, 118129, Note_on_c, 0, 77, 93
1, 118144, Note_on_c, 0, 89, 62
1, 118146, Note_off_c, 0, 77, 74
1, 118165, Note_off_c, 0, 89, 64
1, 118198, Note_on_c, 0, 77, 103
1, 118204, Note_on_c, 0, 83, 90
1, 118207, Note_on_c, 0, 80, 90
1, 118225, Note_on_c, 0, 89, 59
1, 118245, Note_off_c, 0, 89, 64
1, 118251, Note_on_c, 0, 59, 73
1, 118257, Note_off_c, 0, 83, 65
1, 118257, Note_off_c, 0, 80, 64
1, 118263, Note_on_c, 0, 65, 59
1, 118266, Note_off_c, 0, 77, 60
1, 118275, Note_off_c, 0, 59, 65
1, 118283, Note_off_c, 0, 65, 65
1, 118306, Note_on_c, 0, 56, 19
1, 118313, Note_on_c, 0, 65, 72
1, 118319, Note_on_c, 0, 59, 78
1, 118338, Note_off_c, 0, 65, 68
1, 118340, Note_off_c, 0, 59, 67
1, 118352, Note_off_c, 0, 56, 66
1, 118390, Control_c, 0, 64, 70
1, 118405, Control_c, 0, 64, 31
1, 118411, Note_on_c, 0, 64, 77
1, 118419, Control_c, 0, 64, 0
1, 118426, Note_on_c, 0, 76, 52
1, 118433, Note_off_c, 0, 64, 67
1, 118477, Note_off_c, 0, 76, 0
1, 118486, Note_on_c, 0, 64, 75
1, 118489, Note_on_c, 0, 76, 57
1, 118493, Note_on_c, 0, 71, 73
1, 118501, Control_c, 0, 64, 17
1, 118503, Note_on_c, 0, 68, 72
1, 118516, Control_c, 0, 64, 44
1, 118531, Control_c, 0, 64, 63
1, 118546, Control_c, 0, 64, 127
1, 118567, Note_on_c, 0, 44, 74
1, 118573, Note_off_c, 0, 64, 59
1, 118576, Note_on_c, 0, 49, 66
1, 118582, Note_off_c, 0, 76, 63
1, 118595, Note_off_c, 0, 71, 62
1, 118596, Note_off_c, 0, 44, 63
1, 118597, Note_off_c, 0, 49, 63
1, 118597, Note_off_c, 0, 68, 58
1, 118645, Poly_aftertouch_c, 0, 37, 127
1, 118647, Note_on_c, 0, 37, 6
1, 118654, Note_on_c, 0, 44, 78
1, 118657, Note_on_c, 0, 49, 81
1, 118708, Note_on_c, 0, 65, 83
1, 118710, Note_off_c, 0, 49, 63
1, 118718, Note_on_c, 0, 77, 63
1, 118720, Note_off_c, 0, 44, 60
1, 118725, Note_off_c, 0, 65, 73
1, 118734, Note_off_c, 0, 37, 58
1, 118738, Note_off_c, 0, 77, 63
1, 118767, Note_on_c, 0, 65, 95
1, 118768, Note_on_c, 0, 68, 74
1, 118773, Note_on_c, 0, 73, 77
1, 118777, Note_on_c, 0, 77, 82
1, 118806, Note_off_c, 0, 65, 67
1, 118823, Note_on_c, 0, 44, 90
1, 118826, Note_on_c, 0, 75, 25
1, 118827, Note_off_c, 0, 68, 62
1, 118830, Note_on_c, 0, 47, 82
1, 118833, Note_off_c, 0, 73, 65
1, 118837, Note_off_c, 0, 77, 62
1, 118851, Note_off_c, 0, 44, 60
1, 118855, Note_off_c, 0, 47, 68
1, 118871, Note_off_c, 0, 75, 50
1, 118908, Note_on_c, 0, 35, 49
1, 118908, Note_on_c, 0, 47, 83
1, 118910, Note_on_c, 0, 44, 87
1, 118965, Note_off_c, 0, 47, 61
1, 118986, Note_off_c, 0, 35, 64
1, 118988, Note_off_c, 0, 44, 60
1, 118993, Note_on_c, 0, 85, 77
1, 118994, Note_on_c, 0, 77, 84
1, 119011, Note_on_c, 0, 89, 53
1, 119012, Note_off_c, 0, 85, 72
1, 119015, Note_off_c, 0, 77, 71
1, 119035, Note_off_c, 0, 89, 60
1, 119065, Control_c, 0, 64, 80
1, 119074, Note_on_c, 0, 77, 100
1, 119079, Note_on_c, 0, 85, 83
1, 119080, Control_c, 0, 64, 60
1, 119083, Note_on_c, 0, 89, 89
1, 119095, Control_c, 0, 64, 41
1, 119110, Control_c, 0, 64, 29
1, 119124, Control_c, 0, 64, 35
1, 119139, Control_c, 0, 64, 48
1, 119144, Note_on_c, 0, 42, 85
1, 119152, Note_on_c, 0, 45, 71
1, 119154, Control_c, 0, 64, 63
1, 119169, Note_off_c, 0, 42, 66
1, 119169, Control_c, 0, 64, 127
1, 119172, Note_on_c, 0, 33, 37
1, 119172, Note_off_c, 0, 45, 64
1, 119175, Note_off_c, 0, 77, 58
1, 119186, Note_off_c, 0, 89, 63
1, 119199, Note_off_c, 0, 85, 63
1, 119213, Note_off_c, 0, 33, 0
1, 119226, Note_on_c, 0, 42, 83
1, 119230, Note_on_c, 0, 33, 60
1, 119235, Note_on_c, 0, 45, 76
1, 119267, Note_off_c, 0, 33, 64
1, 119280, Note_off_c, 0, 45, 64
1, 119282, Note_off_c, 0, 42, 63
1, 119313, Note_on_c, 0, 78, 82
1, 119324, Note_on_c, 0, 85, 58
1, 119331, Note_on_c, 0, 90, 44
1, 119333, Note_off_c, 0, 78, 72
1, 119342, Note_off_c, 0, 85, 62
1, 119360, Note_off_c, 0, 90, 60
1, 119379, Note_on_c, 0, 78, 96
1, 119385, Note_on_c, 0, 90, 69
1, 119393, Note_on_c, 0, 85, 81
1, 119408, Note_off_c, 0, 90, 70
1, 119423, Note_on_c, 0, 61, 75
1, 119430, Note_on_c, 0, 66, 75
1, 119431, Note_off_c, 0, 85, 60
1, 119432, Note_off_c, 0, 78, 69
1, 119438, Note_off_c, 0, 61, 66
1, 119447, Note_off_c, 0, 66, 68
1, 119488, Note_on_c, 0, 61, 85
1, 119492, Note_on_c, 0, 54, 71
1, 119496, Note_on_c, 0, 66, 85
1, 119515, Note_off_c, 0, 66, 70
1, 119536, Note_off_c, 0, 61, 65
1, 119544, Note_off_c, 0, 54, 65
1, 119561, Note_on_c, 0, 66, 87
1, 119566, Note_on_c, 0, 73, 74
1, 119572, Note_on_c, 0, 78, 66
1, 119583, Note_off_c, 0, 66, 70
1, 119586, Note_on_c, 0, 68, 38
1, 119587, Note_off_c, 0, 73, 71
1, 119589, Note_off_c, 0, 78, 68
1, 119605, Control_c, 0, 64, 98
1, 119620, Note_off_c, 0, 68, 38
1, 119620, Control_c, 0, 64, 47
1, 119635, Control_c, 0, 64, 0
1, 119644, Note_on_c, 0, 67, 101
1, 119648, Note_on_c, 0, 73, 82
1, 119649, Note_on_c, 0, 79, 92
1, 119674, Note_on_c, 0, 78, 44
1, 119694, Control_c, 0, 64, 21
1, 119705, Note_off_c, 0, 78, 43
1, 119709, Control_c, 0, 64, 90
1, 119725, Note_on_c, 0, 37, 83
1, 119725, Control_c, 0, 64, 127
1, 119727, Note_on_c, 0, 41, 84
1, 119736, Note_on_c, 0, 29, 65
1, 119740, Note_off_c, 0, 79, 62
1, 119742, Note_off_c, 0, 67, 60
1, 119746, Note_off_c, 0, 37, 66
1, 119753, Note_off_c, 0, 41, 67
1, 119768, Note_off_c, 0, 29, 52
1, 119770, Note_off_c, 0, 73, 62
1, 119798, Note_on_c, 0, 37, 84
1, 119799, Note_on_c, 0, 29, 68
1, 119803, Note_on_c, 0, 41, 73
1, 119825, Note_off_c, 0, 29, 64
1, 119837, Note_off_c, 0, 41, 64
1, 119845, Note_off_c, 0, 37, 65
1, 119854, Note_on_c, 0, 68, 88
1, 119863, Note_on_c, 0, 73, 72
1, 119871, Note_off_c, 0, 68, 72
1, 119882, Note_off_c, 0, 73, 69
1, 119884, Note_on_c, 0, 80, 39
1, 119912, Note_off_c, 0, 80, 0
1, 119924, Note_on_c, 0, 68, 101
1, 119925, Note_on_c, 0, 80, 67
1, 119927, Note_on_c, 0, 73, 94
1, 119958, Note_off_c, 0, 68, 64
1, 119978, Note_off_c, 0, 73, 66
1, 119988, Poly_aftertouch_c, 0, 68, 0
1, 119992, Note_on_c, 0, 68, 65
1, 120004, Note_on_c, 0, 61, 58
1, 120005, Note_off_c, 0, 80, 63
1, 120010, Note_off_c, 0, 68, 73
1, 120011, Poly_aftertouch_c, 0, 78, 127
1, 120022, Note_off_c, 0, 61, 64
1, 120036, Poly_aftertouch_c, 0, 78, 0
1, 120058, Note_on_c, 0, 68, 86
1, 120074, Note_on_c, 0, 56, 83
1, 120076, Note_on_c, 0, 61, 84
1, 120093, Note_off_c, 0, 68, 61
1, 120104, Note_off_c, 0, 61, 56
1, 120118, Note_off_c, 0, 56, 65
1, 120127, Note_on_c, 0, 80, 91
1, 120132, Note_on_c, 0, 92, 83
1, 120144, Poly_aftertouch_c, 0, 69, 127
1, 120144, Note_off_c, 0, 80, 71
1, 120150, Note_off_c, 0, 92, 74
1, 120176, Poly_aftertouch_c, 0, 69, 0
1, 120204, Note_on_c, 0, 80, 109
1, 120210, Note_on_c, 0, 92, 97
1, 120211, Note_on_c, 0, 85, 96
1, 120219, Note_on_c, 0, 90, 81
1, 120221, Control_c, 0, 64, 95
1, 120236, Note_off_c, 0, 90, 67
1, 120236, Control_c, 0, 64, 76
1, 120251, Control_c, 0, 64, 94
1, 120266, Control_c, 0, 64, 127
1, 120274, Note_on_c, 0, 42, 87
1, 120275, Note_on_c, 0, 37, 84
1, 120276, Note_off_c, 0, 92, 67
1, 120284, Note_off_c, 0, 80, 54
1, 120290, Note_off_c, 0, 85, 61
1, 120297, Note_off_c, 0, 37, 67
1, 120299, Note_on_c, 0, 30, 43
1, 120300, Note_off_c, 0, 42, 68
1, 120327, Note_off_c, 0, 30, 0
1, 120342, Note_on_c, 0, 30, 48
1, 120351, Note_on_c, 0, 37, 85
1, 120356, Note_on_c, 0, 42, 77
1, 120385, Note_off_c, 0, 37, 64
1, 120386, Note_off_c, 0, 30, 62
1, 120398, Note_off_c, 0, 42, 62
1, 120413, Note_on_c, 0, 85, 84
1, 120416, Poly_aftertouch_c, 0, 32, 0
1, 120418, Note_on_c, 0, 81, 77
1, 120430, Note_off_c, 0, 85, 72
1, 120439, Note_off_c, 0, 81, 71
1, 120446, Note_on_c, 0, 93, 38
1, 120485, Note_on_c, 0, 81, 99
1, 120488, Note_off_c, 0, 93, 0
1, 120488, Note_on_c, 0, 93, 67
1, 120491, Note_on_c, 0, 85, 95
1, 120517, Note_on_c, 0, 92, 45
1, 120517, Note_off_c, 0, 93, 67
1, 120538, Note_off_c, 0, 81, 66
1, 120542, Note_off_c, 0, 85, 67
1, 120548, Note_off_c, 0, 92, 33
1, 120557, Note_on_c, 0, 69, 83
1, 120560, Note_on_c, 0, 61, 71
1, 120574, Note_off_c, 0, 69, 75
1, 120578, Note_on_c, 0, 57, 41
1, 120579, Note_off_c, 0, 61, 66
1, 120608, Note_off_c, 0, 57, 0
1, 120608, Note_on_c, 0, 57, 35
1, 120618, Note_on_c, 0, 69, 77
1, 120622, Note_on_c, 0, 61, 79
1, 120635, Note_off_c, 0, 69, 71
1, 120649, Note_off_c, 0, 61, 63
1, 120663, Note_off_c, 0, 57, 63
1, 120685, Note_on_c, 0, 69, 83
1, 120689, Note_on_c, 0, 73, 80
1, 120701, Note_off_c, 0, 69, 74
1, 120702, Note_on_c, 0, 81, 64
1, 120707, Note_off_c, 0, 73, 73
1, 120723, Note_off_c, 0, 81, 64
1, 120740, Control_c, 0, 64, 59
1, 120763, Control_c, 0, 64, 0
1, 120766, Note_on_c, 0, 69, 103
1, 120773, Note_on_c, 0, 81, 101
1, 120782, Note_on_c, 0, 74, 80
1, 120800, Note_on_c, 0, 73, 39
1, 120804, Note_on_c, 0, 80, 50
1, 120807, Control_c, 0, 64, 14
1, 120822, Control_c, 0, 64, 69
1, 120832, Note_off_c, 0, 81, 65
1, 120836, Control_c, 0, 64, 127
1, 120837, Note_on_c, 0, 52, 84
1, 120841, Note_off_c, 0, 73, 51
1, 120845, Note_off_c, 0, 69, 62
1, 120849, Note_on_c, 0, 42, 61
1, 120851, Note_off_c, 0, 80, 47
1, 120852, Note_off_c, 0, 74, 65
1, 120857, Note_off_c, 0, 52, 75
1, 120859, Note_on_c, 0, 40, 53
1, 120871, Note_off_c, 0, 42, 61
1, 120899, Note_off_c, 0, 40, 0
1, 120899, Note_on_c, 0, 40, 42
1, 120904, Note_on_c, 0, 52, 82
1, 120908, Note_on_c, 0, 42, 73
1, 120934, Note_off_c, 0, 40, 63
1, 120941, Note_off_c, 0, 52, 68
1, 120945, Note_off_c, 0, 42, 64
1, 120962, Note_on_c, 0, 70, 90
1, 120967, Note_on_c, 0, 73, 71
1, 120979, Note_off_c, 0, 70, 74
1, 120990, Note_off_c, 0, 73, 69
1, 121030, Note_on_c, 0, 70, 100
1, 121034, Note_on_c, 0, 73, 90
1, 121043, Note_on_c, 0, 82, 93
1, 121068, Note_off_c, 0, 70, 67
1, 121072, Note_on_c, 0, 80, 23
1, 121085, Note_off_c, 0, 73, 63
1, 121095, Note_on_c, 0, 70, 51
1, 121098, Note_on_c, 0, 65, 53
1, 121101, Note_off_c, 0, 82, 67
1, 121110, Note_off_c, 0, 80, 43
1, 121113, Note_off_c, 0, 70, 66
1, 121122, Note_off_c, 0, 65, 62
1, 121158, Note_on_c, 0, 70, 94
1, 121167, Note_on_c, 0, 66, 76
1, 121170, Note_on_c, 0, 58, 61
1, 121170, Note_on_c, 0, 61, 73
1, 121176, Note_off_c, 0, 70, 72
1, 121190, Note_off_c, 0, 66, 69
1, 121208, Note_off_c, 0, 61, 64
1, 121218, Note_off_c, 0, 58, 63
1, 121234, Note_on_c, 0, 82, 95
1, 121249, Note_on_c, 0, 94, 68
1, 121252, Note_off_c, 0, 82, 70
1, 121265, Note_off_c, 0, 94, 65
1, 121309, Note_on_c, 0, 82, 106
1, 121311, Control_c, 0, 64, 63
1, 121316, Note_on_c, 0, 90, 100
1, 121316, Note_on_c, 0, 94, 97
1, 121327, Control_c, 0, 64, 29
1, 121342, Control_c, 0, 64, 19
1, 121357, Control_c, 0, 64, 57
1, 121365, Note_on_c, 0, 51, 90
1, 121366, Note_on_c, 0, 42, 77
1, 121371, Control_c, 0, 64, 127
1, 121385, Note_off_c, 0, 51, 71
1, 121393, Note_off_c, 0, 42, 67
1, 121396, Note_off_c, 0, 82, 61
1, 121397, Note_off_c, 0, 94, 65
1, 121402, Note_off_c, 0, 90, 65
1, 121440, Note_on_c, 0, 39, 56
1, 121444, Note_on_c, 0, 51, 95
1, 121445, Note_on_c, 0, 42, 85
1, 121468, Note_off_c, 0, 42, 66
1, 121485, Note_off_c, 0, 39, 64
1, 121486, Note_off_c, 0, 51, 64
1, 121520, Note_on_c, 0, 90, 88
1, 121524, Note_on_c, 0, 83, 87
1, 121534, Note_on_c, 0, 95, 69
1, 121537, Note_off_c, 0, 90, 74
1, 121542, Note_off_c, 0, 83, 74
1, 121551, Note_off_c, 0, 95, 67
1, 121590, Note_on_c, 0, 83, 103
1, 121594, Note_on_c, 0, 90, 103
1, 121599, Note_on_c, 0, 95, 101
1, 121650, Note_on_c, 0, 71, 83
1, 121653, Note_on_c, 0, 66, 68
1, 121662, Note_off_c, 0, 83, 62
1, 121662, Note_off_c, 0, 95, 63
1, 121670, Note_off_c, 0, 71, 69
1, 121671, Note_off_c, 0, 66, 57
1, 121675, Note_on_c, 0, 59, 37
1, 121682, Note_off_c, 0, 90, 66
1, 121706, Note_off_c, 0, 59, 0
1, 121706, Note_on_c, 0, 59, 19
1, 121707, Note_on_c, 0, 71, 75
1, 121718, Note_on_c, 0, 66, 87
1, 121731, Note_off_c, 0, 71, 71
1, 121750, Note_off_c, 0, 66, 59
1, 121766, Note_off_c, 0, 59, 63
1, 121789, Note_on_c, 0, 90, 84
1, 121790, Note_on_c, 0, 83, 87
1, 121798, Note_on_c, 0, 95, 79
1, 121808, Note_off_c, 0, 90, 73
1, 121809, Note_off_c, 0, 83, 71
1, 121821, Note_off_c, 0, 95, 70
1, 121859, Note_on_c, 0, 83, 97
1, 121860, Note_on_c, 0, 90, 99
1, 121865, Note_on_c, 0, 95, 95
1, 121882, Control_c, 0, 64, 105
1, 121897, Control_c, 0, 64, 62
1, 121912, Control_c, 0, 64, 45
1, 121926, Note_on_c, 0, 50, 89
1, 121927, Control_c, 0, 64, 53
1, 121938, Note_on_c, 0, 42, 60
1, 121939, Note_on_c, 0, 38, 67
1, 121942, Control_c, 0, 64, 127
1, 121948, Note_off_c, 0, 50, 69
1, 121951, Note_off_c, 0, 83, 59
1, 121955, Note_off_c, 0, 95, 63
1, 121958, Note_off_c, 0, 42, 62
1, 121966, Note_off_c, 0, 38, 62
1, 121969, Note_off_c, 0, 90, 65
1, 121980, Note_on_c, 0, 44, 8
1, 122009, Note_on_c, 0, 50, 97
1, 122013, Note_on_c, 0, 42, 86
1, 122013, Note_on_c, 0, 38, 80
1, 122022, Note_off_c, 0, 44, 38
1, 122067, Note_on_c, 0, 90, 95
1, 122070, Note_on_c, 0, 83, 89
1, 122078, Note_on_c, 0, 95, 79
1, 122091, Note_off_c, 0, 83, 68
1, 122100, Note_off_c, 0, 95, 70
1, 122104, Note_off_c, 0, 90, 65
1, 122119, Note_off_c, 0, 50, 57
1, 122129, Note_off_c, 0, 38, 62
1, 122144, Note_on_c, 0, 83, 95
1, 122145, Note_on_c, 0, 90, 87
1, 122148, Note_on_c, 0, 95, 99
1, 122150, Note_off_c, 0, 42, 61
1, 122234, Note_on_c, 0, 49, 100
1, 122247, Note_on_c, 0, 42, 84
1, 122249, Note_on_c, 0, 37, 75
1, 122252, Note_off_c, 0, 95, 62
1, 122269, Note_off_c, 0, 83, 55
1, 122280, Note_off_c, 0, 37, 63
1, 122283, Note_off_c, 0, 49, 61
1, 122288, Note_off_c, 0, 42, 60
1, 122303, Note_off_c, 0, 90, 65
1, 122338, Note_on_c, 0, 49, 95
1, 122343, Note_on_c, 0, 37, 85
1, 122344, Note_on_c, 0, 42, 79
1, 122418, Note_on_c, 0, 81, 98
1, 122419, Note_on_c, 0, 90, 93
1, 122426, Note_on_c, 0, 93, 87
1, 122446, Note_off_c, 0, 93, 71
1, 122450, Note_off_c, 0, 81, 67
1, 122460, Note_off_c, 0, 90, 68
1, 122482, Note_off_c, 0, 49, 61
1, 122493, Note_off_c, 0, 37, 60
1, 122496, Note_off_c, 0, 42, 58
1, 122513, Note_on_c, 0, 81, 100
1, 122519, Note_on_c, 0, 93, 100
1, 122520, Note_on_c, 0, 90, 91
1, 122557, Control_c, 0, 64, 66
1, 122572, Control_c, 0, 64, 27
1, 122587, Control_c, 0, 64, 0
1, 122609, Note_on_c, 0, 47, 88
1, 122615, Note_on_c, 0, 38, 73
1, 122616, Control_c, 0, 64, 35
1, 122631, Note_on_c, 0, 35, 45
1, 122631, Control_c, 0, 64, 78
1, 122642, Note_off_c, 0, 47, 65
1, 122643, Note_off_c, 0, 38, 66
1, 122646, Control_c, 0, 64, 127
1, 122648, Note_off_c, 0, 93, 58
1, 122661, Note_off_c, 0, 81, 57
1, 122666, Note_off_c, 0, 35, 51
1, 122684, Note_off_c, 0, 90, 64
1, 122701, Note_on_c, 0, 47, 84
1, 122704, Note_on_c, 0, 35, 65
1, 122705, Note_on_c, 0, 38, 76
1, 122730, Note_off_c, 0, 35, 67
1, 122753, Note_off_c, 0, 38, 62
1, 122756, Note_off_c, 0, 47, 64
1, 122782, Note_on_c, 0, 80, 81
1, 122788, Note_on_c, 0, 90, 71
1, 122791, Note_on_c, 0, 92, 64
1, 122800, Note_off_c, 0, 80, 72
1, 122804, Note_off_c, 0, 90, 70
1, 122811, Note_off_c, 0, 92, 63
1, 122854, Note_on_c, 0, 80, 97
1, 122858, Note_on_c, 0, 92, 93
1, 122863, Note_on_c, 0, 90, 88
1, 122892, Note_off_c, 0, 80, 65
1, 122907, Note_on_c, 0, 56, 73
1, 122922, Note_off_c, 0, 90, 65
1, 122925, Note_off_c, 0, 92, 64
1, 122926, Note_off_c, 0, 56, 68
1, 122936, Note_on_c, 0, 62, 45
1, 122975, Note_off_c, 0, 62, 0
1, 122975, Note_on_c, 0, 62, 57
1, 122980, Note_on_c, 0, 56, 91
1, 122980, Poly_aftertouch_c, 0, 54, 127
1, 122985, Note_on_c, 0, 54, 18
1, 123027, Note_off_c, 0, 62, 63
1, 123039, Note_off_c, 0, 56, 65
1, 123055, Note_off_c, 0, 54, 63
1, 123071, Note_on_c, 0, 86, 79
1, 123072, Note_on_c, 0, 90, 82
1, 123088, Note_on_c, 0, 98, 51
1, 123091, Note_off_c, 0, 86, 70
1, 123094, Note_off_c, 0, 90, 71
1, 123104, Note_on_c, 0, 97, 26
1, 123105, Note_off_c, 0, 97, 127
1, 123113, Note_off_c, 0, 98, 39
1, 123139, Note_on_c, 0, 86, 102
1, 123143, Note_on_c, 0, 98, 89
1, 123144, Note_on_c, 0, 90, 92
1, 123157, Control_c, 0, 64, 54
1, 123170, Note_on_c, 0, 96, 55
1, 123171, Note_off_c, 0, 96, 127
1, 123172, Control_c, 0, 64, 0
1, 123190, Note_off_c, 0, 98, 66
1, 123198, Note_on_c, 0, 47, 86
1, 123205, Note_on_c, 0, 38, 74
1, 123210, Note_off_c, 0, 86, 63
1, 123216, Control_c, 0, 64, 52
1, 123220, Note_off_c, 0, 90, 66
1, 123226, Note_off_c, 0, 47, 67
1, 123231, Control_c, 0, 64, 127
1, 123232, Note_off_c, 0, 38, 66
1, 123247, Note_on_c, 0, 35, 7
1, 123283, Note_on_c, 0, 47, 81
1, 123295, Note_on_c, 0, 38, 74
1, 123319, Note_off_c, 0, 35, 58
1, 123331, Note_off_c, 0, 47, 64
1, 123333, Note_off_c, 0, 38, 55
1, 123345, Note_on_c, 0, 80, 89
1, 123347, Note_on_c, 0, 90, 77
1, 123362, Note_off_c, 0, 80, 73
1, 123366, Note_on_c, 0, 92, 51
1, 123370, Note_off_c, 0, 90, 70
1, 123394, Note_off_c, 0, 92, 58
1, 123419, Note_on_c, 0, 80, 105
1, 123425, Note_on_c, 0, 90, 84
1, 123426, Note_on_c, 0, 92, 86
1, 123474, Note_on_c, 0, 56, 70
1, 123480, Note_on_c, 0, 54, 55
1, 123481, Note_off_c, 0, 80, 61
1, 123492, Note_off_c, 0, 56, 65
1, 123492, Note_off_c, 0, 92, 63
1, 123499, Note_off_c, 0, 90, 65
1, 123504, Note_on_c, 0, 62, 31
1, 123504, Note_off_c, 0, 54, 59
1, 123536, Note_off_c, 0, 62, 0
1, 123536, Note_on_c, 0, 62, 34
1, 123543, Note_on_c, 0, 56, 87
1, 123550, Note_on_c, 0, 54, 83
1, 123580, Note_off_c, 0, 62, 64
1, 123591, Note_off_c, 0, 56, 64
1, 123607, Note_off_c, 0, 54, 63
1, 123623, Note_on_c, 0, 81, 87
1, 123629, Note_on_c, 0, 90, 71
1, 123641, Note_off_c, 0, 81, 73
1, 123646, Note_off_c, 0, 90, 70
1, 123651, Note_on_c, 0, 93, 42
1, 123686, Note_off_c, 0, 93, 0
1, 123696, Note_on_c, 0, 81, 107
1, 123697, Note_on_c, 0, 93, 78
1, 123702, Note_on_c, 0, 90, 94
1, 123705, Control_c, 0, 64, 67
1, 123721, Control_c, 0, 64, 41
1, 123736, Control_c, 0, 64, 20
1, 123758, Control_c, 0, 64, 54
1, 123766, Note_on_c, 0, 47, 88
1, 123772, Note_on_c, 0, 38, 77
1, 123772, Control_c, 0, 64, 127
1, 123783, Note_on_c, 0, 35, 53
1, 123791, Note_off_c, 0, 47, 69
1, 123794, Note_off_c, 0, 93, 63
1, 123797, Note_off_c, 0, 38, 66
1, 123800, Note_off_c, 0, 81, 58
1, 123810, Note_off_c, 0, 35, 58
1, 123817, Note_off_c, 0, 90, 67
1, 123844, Note_on_c, 0, 47, 78
1, 123852, Note_on_c, 0, 38, 82
1, 123862, Note_on_c, 0, 35, 36
1, 123886, Note_off_c, 0, 38, 61
1, 123891, Note_off_c, 0, 35, 57
1, 123896, Note_off_c, 0, 47, 63
1, 123922, Note_on_c, 0, 80, 82
1, 123927, Note_on_c, 0, 90, 70
1, 123940, Note_off_c, 0, 80, 72
1, 123942, Note_on_c, 0, 92, 50
1, 123951, Note_off_c, 0, 90, 69
1, 123969, Note_off_c, 0, 92, 56
1, 123994, Note_on_c, 0, 80, 101
1, 123999, Note_on_c, 0, 92, 82
1, 124002, Note_on_c, 0, 90, 92
1, 124038, Note_on_c, 0, 62, 71
1, 124039, Note_off_c, 0, 80, 65
1, 124052, Note_on_c, 0, 66, 60
1, 124065, Note_off_c, 0, 62, 68
1, 124068, Note_off_c, 0, 92, 65
1, 124072, Note_off_c, 0, 66, 62
1, 124076, Note_off_c, 0, 90, 66
1, 124114, Note_on_c, 0, 66, 88
1, 124115, Note_on_c, 0, 62, 88
1, 124121, Note_on_c, 0, 56, 64
1, 124130, Note_on_c, 0, 54, 64
1, 124133, Note_off_c, 0, 66, 71
1, 124162, Note_off_c, 0, 62, 63
1, 124181, Note_off_c, 0, 54, 64
1, 124184, Note_off_c, 0, 56, 66
1, 124186, Note_on_c, 0, 90, 89
1, 124190, Note_on_c, 0, 92, 86
1, 124206, Note_on_c, 0, 99, 57
1, 124207, Note_off_c, 0, 99, 127
1, 124207, Note_off_c, 0, 90, 72
1, 124207, Note_off_c, 0, 92, 75
1, 124218, Note_on_c, 0, 102, 40
1, 124219, Note_off_c, 0, 102, 127
1, 124267, Note_on_c, 0, 90, 103
1, 124273, Note_on_c, 0, 92, 105
1, 124293, Note_on_c, 0, 102, 64
1, 124314, Note_on_c, 0, 99, 22
1, 124315, Note_off_c, 0, 99, 127
1, 124317, Note_off_c, 0, 102, 37
1, 124323, Note_on_c, 0, 47, 92
1, 124326, Note_off_c, 0, 92, 67
1, 124327, Note_off_c, 0, 90, 67
1, 124332, Note_on_c, 0, 38, 75
1, 124342, Note_on_c, 0, 35, 55
1, 124352, Note_off_c, 0, 47, 68
1, 124360, Note_off_c, 0, 38, 67
1, 124388, Note_off_c, 0, 35, 0
1, 124407, Note_on_c, 0, 47, 83
1, 124408, Note_on_c, 0, 35, 53
1, 124408, Note_on_c, 0, 38, 80
1, 124437, Note_off_c, 0, 35, 65
1, 124449, Note_off_c, 0, 38, 63
1, 124460, Note_off_c, 0, 47, 63
1, 124467, Note_on_c, 0, 80, 95
1, 124484, Note_off_c, 0, 80, 70
1, 124504, Note_on_c, 0, 89, 37
1, 124517, Note_on_c, 0, 90, 20
1, 124518, Note_off_c, 0, 90, 127
1, 124538, Note_off_c, 0, 89, 58
1, 124551, Note_on_c, 0, 80, 107
1, 124556, Note_on_c, 0, 90, 61
1, 124562, Note_on_c, 0, 92, 98
1, 124603, Note_off_c, 0, 80, 61
1, 124604, Note_on_c, 0, 62, 79
1, 124608, Note_off_c, 0, 92, 66
1, 124619, Note_on_c, 0, 66, 63
1, 124624, Note_off_c, 0, 90, 67
1, 124625, Note_off_c, 0, 62, 68
1, 124640, Note_off_c, 0, 66, 61
1, 124681, Note_on_c, 0, 66, 86
1, 124683, Note_on_c, 0, 62, 80
1, 124686, Note_on_c, 0, 56, 75
1, 124689, Note_on_c, 0, 54, 77
1, 124705, Note_off_c, 0, 66, 67
1, 124707, Note_off_c, 0, 62, 66
1, 124736, Note_off_c, 0, 56, 65
1, 124737, Note_off_c, 0, 54, 66
1, 124747, Note_on_c, 0, 81, 95
1, 124752, Note_on_c, 0, 90, 83
1, 124766, Note_off_c, 0, 81, 73
1, 124766, Note_off_c, 0, 90, 73
1, 124768, Note_on_c, 0, 93, 58
1, 124790, Note_off_c, 0, 93, 61
1, 124804, Control_c, 0, 64, 86
1, 124818, Note_on_c, 0, 81, 105
1, 124819, Control_c, 0, 64, 49
1, 124824, Note_on_c, 0, 90, 96
1, 124827, Note_on_c, 0, 93, 96
1, 124834, Control_c, 0, 64, 0
1, 124864, Control_c, 0, 64, 44
1, 124873, Note_on_c, 0, 48, 100
1, 124873, Note_on_c, 0, 92, 33
1, 124878, Note_on_c, 0, 39, 79
1, 124878, Control_c, 0, 64, 127
1, 124892, Note_off_c, 0, 93, 61
1, 124893, Note_on_c, 0, 36, 63
1, 124896, Note_off_c, 0, 81, 61
1, 124897, Note_off_c, 0, 48, 69
1, 124905, Note_off_c, 0, 39, 66
1, 124907, Note_off_c, 0, 92, 57
1, 124914, Note_off_c, 0, 90, 65
1, 124919, Note_off_c, 0, 36, 56
1, 124920, Note_on_c, 0, 42, 5
1, 124955, Note_on_c, 0, 48, 90
1, 124955, Note_on_c, 0, 39, 84
1, 124961, Note_on_c, 0, 36, 64
1, 124965, Note_off_c, 0, 42, 39
1, 124988, Note_off_c, 0, 36, 64
1, 124988, Note_off_c, 0, 48, 63
1, 124993, Note_off_c, 0, 39, 62
1, 125018, Note_on_c, 0, 80, 100
1, 125027, Note_on_c, 0, 90, 76
1, 125032, Note_on_c, 0, 85, 68
1, 125033, Note_off_c, 0, 85, 127
1, 125033, Note_on_c, 0, 92, 61
1, 125035, Note_off_c, 0, 80, 70
1, 125042, Note_off_c, 0, 90, 70
1, 125056, Note_off_c, 0, 92, 62
1, 125095, Note_on_c, 0, 80, 108
1, 125101, Note_on_c, 0, 90, 89
1, 125103, Note_on_c, 0, 92, 94
1, 125139, Note_off_c, 0, 80, 64
1, 125154, Note_on_c, 0, 63, 86
1, 125155, Note_on_c, 0, 66, 90
1, 125158, Note_off_c, 0, 92, 65
1, 125164, Note_off_c, 0, 90, 67
1, 125173, Note_off_c, 0, 66, 72
1, 125175, Note_on_c, 0, 56, 41
1, 125184, Note_off_c, 0, 63, 62
1, 125202, Note_off_c, 0, 56, 56
1, 125251, Note_on_c, 0, 66, 95
1, 125255, Note_on_c, 0, 63, 87
1, 125261, Note_on_c, 0, 54, 77
1, 125268, Note_on_c, 0, 56, 78
1, 125289, Note_off_c, 0, 66, 65
1, 125305, Note_off_c, 0, 63, 64
1, 125335, Note_off_c, 0, 54, 64
1, 125335, Note_off_c, 0, 56, 64
1, 125349, Note_on_c, 0, 92, 108
1, 125358, Note_on_c, 0, 104, 85
1, 125358, Note_on_c, 0, 94, 84
1, 125362, Note_on_c, 0, 102, 74
1, 125372, Note_off_c, 0, 94, 67
1, 125376, Note_on_c, 0, 103, 58
1, 125377, Note_off_c, 0, 104, 70
1, 125379, Note_off_c, 0, 102, 68
1, 125379, Note_off_c, 0, 92, 67
1, 125399, Note_off_c, 0, 103, 56
1, 125402, Note_on_c, 0, 105, 23
1, 125403, Note_off_c, 0, 105, 127
1, 125437, Note_on_c, 0, 92, 118
1, 125442, Note_on_c, 0, 102, 105
1, 125448, Note_on_c, 0, 104, 89
1, 125460, Note_off_c, 0, 104, 72
1, 125489, Note_on_c, 0, 103, 20
1, 125489, Note_off_c, 0, 102, 69
1, 125492, Note_off_c, 0, 92, 67
1, 125516, Note_on_c, 0, 48, 96
1, 125518, Note_off_c, 0, 103, 34
1, 125519, Note_on_c, 0, 39, 86
1, 125540, Note_on_c, 0, 36, 55
1, 125543, Note_off_c, 0, 39, 66
1, 125546, Note_off_c, 0, 48, 67
1, 125566, Note_on_c, 0, 42, 10
1, 125571, Note_off_c, 0, 36, 53
1, 125604, Note_on_c, 0, 48, 98
1, 125605, Note_on_c, 0, 39, 78
1, 125610, Note_on_c, 0, 36, 78
1, 125617, Note_off_c, 0, 42, 38
1, 125639, Note_off_c, 0, 36, 63
1, 125655, Note_off_c, 0, 48, 62
1, 125660, Note_off_c, 0, 39, 62
1, 125710, Note_on_c, 0, 80, 108
1, 125721, Note_on_c, 0, 90, 90
1, 125722, Note_on_c, 0, 92, 89
1, 125738, Note_off_c, 0, 92, 72
1, 125739, Note_off_c, 0, 80, 67
1, 125739, Note_off_c, 0, 90, 73
1, 125810, Note_on_c, 0, 80, 119
1, 125816, Note_on_c, 0, 92, 96
1, 125818, Note_on_c, 0, 90, 94
1, 125849, Note_off_c, 0, 80, 66
1, 125853, Note_off_c, 0, 92, 61
1, 125874, Note_off_c, 0, 90, 66
1, 125900, Note_on_c, 0, 68, 93
1, 125904, Note_on_c, 0, 66, 88
1, 125905, Note_on_c, 0, 63, 81
1, 125941, Note_off_c, 0, 68, 59
1, 125947, Note_off_c, 0, 66, 63
1, 125952, Note_off_c, 0, 63, 64
1, 126025, Note_on_c, 0, 66, 96
1, 126028, Note_on_c, 0, 68, 97
1, 126029, Note_on_c, 0, 63, 81
1, 126032, Note_on_c, 0, 56, 75
1, 126067, Note_off_c, 0, 56, 65
1, 126075, Note_off_c, 0, 68, 59
1, 126081, Note_off_c, 0, 66, 63
1, 126091, Note_off_c, 0, 63, 62
1, 126171, Note_on_c, 0, 81, 107
1, 126175, Note_on_c, 0, 93, 110
1, 126195, Note_on_c, 0, 92, 72
1, 126207, Note_off_c, 0, 81, 70
1, 126213, Note_off_c, 0, 92, 67
1, 126213, Note_off_c, 0, 93, 65
1, 126273, Control_c, 0, 64, 65
1, 126288, Control_c, 0, 64, 0
1, 126312, Note_on_c, 0, 81, 115
1, 126316, Note_on_c, 0, 93, 112
1, 126347, Control_c, 0, 64, 32
1, 126362, Control_c, 0, 64, 68
1, 126376, Control_c, 0, 64, 127
1, 126428, Note_off_c, 0, 93, 61
1, 126442, Note_on_c, 0, 69, 98
1, 126445, Note_on_c, 0, 57, 97
1, 126454, Note_off_c, 0, 81, 58
1, 126468, Note_off_c, 0, 57, 66
1, 126470, Note_off_c, 0, 69, 68
1, 126480, Note_on_c, 0, 58, 36
1, 126485, Note_on_c, 0, 63, 14
1, 126512, Note_off_c, 0, 58, 58
1, 126525, Note_off_c, 0, 63, 50
1, 126540, Note_on_c, 0, 69, 104
1, 126544, Note_on_c, 0, 57, 90
1, 126580, Note_off_c, 0, 69, 66
1, 126592, Note_off_c, 0, 57, 61
1, 126631, Note_on_c, 0, 75, 108
1, 126634, Note_on_c, 0, 87, 89
1, 126657, Note_off_c, 0, 87, 64
1, 126658, Note_off_c, 0, 75, 60
1, 126714, Note_on_c, 0, 75, 100
1, 126717, Note_on_c, 0, 87, 96
1, 126747, Poly_aftertouch_c, 0, 80, 0
1, 126774, Note_off_c, 0, 87, 66
1, 126778, Note_off_c, 0, 75, 64
1, 126804, Note_on_c, 0, 63, 93
1, 126810, Note_on_c, 0, 51, 74
1, 126821, Note_off_c, 0, 63, 72
1, 126835, Note_off_c, 0, 51, 65
1, 126872, Note_on_c, 0, 63, 96
1, 126878, Note_on_c, 0, 51, 93
1, 126911, Note_off_c, 0, 63, 65
1, 126923, Note_off_c, 0, 51, 63
1, 126938, Note_on_c, 0, 69, 89
1, 126946, Note_on_c, 0, 81, 74
1, 126962, Note_off_c, 0, 69, 68
1, 126968, Note_off_c, 0, 81, 71
1, 127015, Note_on_c, 0, 69, 94
1, 127016, Note_on_c, 0, 81, 95
1, 127071, Note_off_c, 0, 81, 63
1, 127074, Note_on_c, 0, 57, 93
1, 127079, Note_on_c, 0, 45, 84
1, 127088, Note_off_c, 0, 69, 63
1, 127096, Note_off_c, 0, 57, 67
1, 127105, Note_off_c, 0, 45, 67
1, 127157, Note_on_c, 0, 57, 89
1, 127158, Note_on_c, 0, 45, 88
1, 127191, Note_on_c, 0, 46, 32
1, 127200, Note_off_c, 0, 57, 63
1, 127207, Note_off_c, 0, 45, 64
1, 127218, Note_on_c, 0, 63, 93
1, 127220, Note_on_c, 0, 75, 87
1, 127230, Note_off_c, 0, 46, 53
1, 127237, Note_off_c, 0, 63, 69
1, 127240, Note_off_c, 0, 75, 69
1, 127297, Note_on_c, 0, 63, 102
1, 127298, Note_on_c, 0, 75, 97
1, 127337, Note_on_c, 0, 51, 94
1, 127338, Note_on_c, 0, 39, 83
1, 127351, Note_off_c, 0, 75, 64
1, 127356, Note_off_c, 0, 63, 59
1, 127357, Note_off_c, 0, 51, 69
1, 127365, Note_off_c, 0, 39, 69
1, 127424, Note_on_c, 0, 51, 95
1, 127429, Note_on_c, 0, 39, 86
1, 127463, Note_off_c, 0, 51, 66
1, 127492, Note_off_c, 0, 39, 63
1, 127493, Note_on_c, 0, 57, 93
1, 127503, Note_on_c, 0, 69, 72
1, 127523, Note_off_c, 0, 57, 63
1, 127525, Note_off_c, 0, 69, 70
1, 127576, Note_on_c, 0, 57, 95
1, 127577, Note_on_c, 0, 69, 87
1, 127629, Note_on_c, 0, 45, 99
1, 127635, Note_on_c, 0, 33, 84
1, 127637, Note_off_c, 0, 69, 62
1, 127655, Note_off_c, 0, 57, 61
1, 127660, Note_off_c, 0, 45, 63
1, 127665, Note_off_c, 0, 33, 67
1, 127677, Poly_aftertouch_c, 0, 68, 0
1, 127728, Note_on_c, 0, 45, 96
1, 127730, Note_on_c, 0, 33, 83
1, 127771, Note_off_c, 0, 45, 65
1, 127786, Note_on_c, 0, 51, 97
1, 127790, Note_on_c, 0, 63, 80
1, 127791, Note_off_c, 0, 33, 63
1, 127808, Note_off_c, 0, 51, 67
1, 127811, Note_off_c, 0, 63, 67
1, 127862, Note_on_c, 0, 51, 106
1, 127865, Note_on_c, 0, 63, 98
1, 127908, Note_off_c, 0, 63, 66
1, 127910, Note_on_c, 0, 27, 87
1, 127910, Note_on_c, 0, 39, 93
1, 127933, Note_off_c, 0, 39, 67
1, 127933, Note_on_c, 0, 52, 3
1, 127933, Note_off_c, 0, 51, 65
1, 127939, Note_on_c, 0, 30, 37
1, 127940, Note_off_c, 0, 27, 60
1, 127947, Control_c, 0, 64, 88
1, 127962, Control_c, 0, 64, 57
1, 127974, Note_off_c, 0, 52, 41
1, 127977, Note_off_c, 0, 30, 48
1, 127977, Control_c, 0, 64, 12
1, 127992, Control_c, 0, 64, 0
1, 127994, Note_on_c, 0, 39, 77
1, 127997, Note_on_c, 0, 27, 83
1, 128048, Note_off_c, 0, 39, 59
1, 128062, Note_on_c, 0, 42, 77
1, 128067, Note_off_c, 0, 27, 63
1, 128079, Note_on_c, 0, 45, 51
1, 128081, Note_on_c, 0, 51, 39
1, 128091, Note_off_c, 0, 42, 63
1, 128096, Note_on_c, 0, 44, 22
1, 128108, Note_off_c, 0, 45, 65
1, 128109, Note_off_c, 0, 44, 39
1, 128112, Note_off_c, 0, 51, 34
1, 128140, Control_c, 0, 64, 18
1, 128148, Note_on_c, 0, 42, 69
1, 128154, Note_on_c, 0, 51, 73
1, 128155, Control_c, 0, 64, 33
1, 128158, Note_on_c, 0, 45, 67
1, 128170, Control_c, 0, 64, 44
1, 128185, Control_c, 0, 64, 56
1, 128200, Control_c, 0, 64, 65
1, 128214, Note_off_c, 0, 45, 60
1, 128214, Control_c, 0, 64, 74
1, 128222, Note_off_c, 0, 42, 60
1, 128226, Note_on_c, 0, 24, 67
1, 128226, Note_on_c, 0, 36, 64
1, 128229, Control_c, 0, 64, 82
1, 128252, Control_c, 0, 64, 91
1, 128253, Note_off_c, 0, 51, 60
1, 128266, Note_off_c, 0, 36, 63
1, 128267, Note_off_c, 0, 24, 61
1, 128267, Control_c, 0, 64, 102
1, 128282, Control_c, 0, 64, 127
1, 128326, Control_c, 0, 64, 102
1, 128340, Control_c, 0, 64, 78
1, 128344, Note_on_c, 0, 36, 61
1, 128354, Note_on_c, 0, 24, 63
1, 128355, Control_c, 0, 64, 64
1, 128362, Note_on_c, 0, 46, 70
1, 128366, Note_on_c, 0, 52, 70
1, 128370, Control_c, 0, 64, 51
1, 128375, Note_off_c, 0, 36, 65
1, 128385, Control_c, 0, 64, 30
1, 128386, Note_off_c, 0, 52, 65
1, 128387, Note_on_c, 0, 43, 36
1, 128388, Note_off_c, 0, 24, 58
1, 128392, Note_off_c, 0, 46, 65
1, 128400, Control_c, 0, 64, 0
1, 128422, Note_off_c, 0, 43, 0
1, 128429, Control_c, 0, 64, 17
1, 128440, Note_on_c, 0, 52, 90
1, 128443, Note_on_c, 0, 43, 54
1, 128444, Control_c, 0, 64, 30
1, 128456, Note_on_c, 0, 46, 72
1, 128459, Control_c, 0, 64, 40
1, 128473, Control_c, 0, 64, 49
1, 128488, Control_c, 0, 64, 59
1, 128503, Control_c, 0, 64, 66
1, 128508, Note_off_c, 0, 43, 57
1, 128509, Note_on_c, 0, 24, 68
1, 128515, Note_on_c, 0, 36, 72
1, 128519, Control_c, 0, 64, 76
1, 128524, Note_off_c, 0, 52, 64
1, 128534, Control_c, 0, 64, 86
1, 128535, Note_off_c, 0, 46, 62
1, 128549, Control_c, 0, 64, 90
1, 128557, Note_off_c, 0, 24, 62
1, 128558, Note_off_c, 0, 36, 62
1, 128563, Control_c, 0, 64, 93
1, 128578, Control_c, 0, 64, 104
1, 128593, Control_c, 0, 64, 127
1, 128625, Note_on_c, 0, 24, 76
1, 128630, Note_on_c, 0, 36, 69
1, 128643, Note_on_c, 0, 53, 70
1, 128646, Note_on_c, 0, 47, 67
1, 128647, Note_on_c, 0, 44, 68
1, 128652, Control_c, 0, 64, 109
1, 128659, Note_off_c, 0, 36, 64
1, 128662, Note_off_c, 0, 53, 68
1, 128667, Control_c, 0, 64, 74
1, 128670, Note_off_c, 0, 44, 61
1, 128671, Note_off_c, 0, 24, 60
1, 128673, Note_off_c, 0, 47, 65
1, 128682, Control_c, 0, 64, 59
1, 128697, Control_c, 0, 64, 38
1, 128711, Control_c, 0, 64, 0
1, 128716, Note_on_c, 0, 53, 94
1, 128720, Note_on_c, 0, 44, 80
1, 128735, Note_on_c, 0, 47, 67
1, 128756, Control_c, 0, 64, 16
1, 128771, Control_c, 0, 64, 32
1, 128777, Note_on_c, 0, 46, 9
1, 128778, Note_off_c, 0, 46, 127
1, 128784, Control_c, 0, 64, 44
1, 128787, Note_on_c, 0, 36, 81
1, 128791, Note_on_c, 0, 24, 81
1, 128798, Note_off_c, 0, 47, 64
1, 128799, Control_c, 0, 64, 55
1, 128800, Note_off_c, 0, 44, 62
1, 128806, Note_off_c, 0, 53, 64
1, 128814, Control_c, 0, 64, 65
1, 128829, Control_c, 0, 64, 74
1, 128830, Note_off_c, 0, 36, 61
1, 128832, Note_off_c, 0, 24, 61
1, 128843, Control_c, 0, 64, 83
1, 128858, Control_c, 0, 64, 94
1, 128873, Control_c, 0, 64, 109
1, 128887, Control_c, 0, 64, 127
1, 128894, Note_on_c, 0, 36, 77
1, 128895, Note_on_c, 0, 24, 83
1, 128918, Note_on_c, 0, 45, 79
1, 128918, Note_on_c, 0, 54, 72
1, 128921, Note_on_c, 0, 51, 68
1, 128937, Note_off_c, 0, 36, 62
1, 128941, Note_off_c, 0, 45, 67
1, 128942, Note_off_c, 0, 24, 60
1, 128946, Note_off_c, 0, 54, 69
1, 128950, Note_off_c, 0, 51, 65
1, 128962, Control_c, 0, 64, 114
1, 128977, Control_c, 0, 64, 75
1, 128998, Note_on_c, 0, 45, 92
1, 128999, Control_c, 0, 64, 59
1, 129001, Note_on_c, 0, 54, 93
1, 129013, Note_on_c, 0, 51, 82
1, 129014, Control_c, 0, 64, 36
1, 129029, Control_c, 0, 64, 0
1, 129064, Note_on_c, 0, 36, 86
1, 129069, Note_on_c, 0, 24, 77
1, 129073, Note_off_c, 0, 45, 61
1, 129073, Control_c, 0, 64, 18
1, 129087, Control_c, 0, 64, 34
1, 129091, Note_off_c, 0, 51, 61
1, 129100, Note_off_c, 0, 54, 60
1, 129102, Note_off_c, 0, 24, 61
1, 129102, Control_c, 0, 64, 47
1, 129105, Note_off_c, 0, 36, 67
1, 129117, Control_c, 0, 64, 58
1, 129132, Control_c, 0, 64, 67
1, 129147, Control_c, 0, 64, 81
1, 129161, Control_c, 0, 64, 105
1, 129164, Note_on_c, 0, 24, 80
1, 129166, Note_on_c, 0, 36, 73
1, 129176, Control_c, 0, 64, 127
1, 129193, Note_on_c, 0, 55, 85
1, 129196, Note_on_c, 0, 46, 86
1, 129200, Note_on_c, 0, 52, 74
1, 129220, Note_off_c, 0, 36, 61
1, 129220, Note_off_c, 0, 46, 68
1, 129227, Note_off_c, 0, 52, 69
1, 129228, Note_off_c, 0, 24, 61
1, 129228, Note_off_c, 0, 55, 65
1, 129251, Control_c, 0, 64, 85
1, 129266, Control_c, 0, 64, 63
1, 129276, Note_on_c, 0, 55, 85
1, 129279, Note_on_c, 0, 46, 94
1, 129281, Control_c, 0, 64, 44
1, 129286, Note_on_c, 0, 52, 68
1, 129295, Control_c, 0, 64, 0
1, 129340, Control_c, 0, 64, 23
1, 129343, Note_on_c, 0, 36, 86
1, 129347, Note_on_c, 0, 24, 79
1, 129355, Control_c, 0, 64, 34
1, 129363, Note_off_c, 0, 52, 64
1, 129364, Note_off_c, 0, 46, 64
1, 129370, Control_c, 0, 64, 43
1, 129375, Note_off_c, 0, 55, 65
1, 129379, Note_off_c, 0, 24, 62
1, 129380, Note_off_c, 0, 36, 67
1, 129385, Control_c, 0, 64, 52
1, 129400, Control_c, 0, 64, 61
1, 129415, Control_c, 0, 64, 68
1, 129430, Control_c, 0, 64, 76
1, 129438, Note_on_c, 0, 24, 84
1, 129439, Note_on_c, 0, 36, 82
1, 129445, Control_c, 0, 64, 87
1, 129459, Control_c, 0, 64, 103
1, 129474, Control_c, 0, 64, 127
1, 129497, Note_on_c, 0, 47, 91
1, 129498, Note_on_c, 0, 53, 77
1, 129500, Note_on_c, 0, 56, 76
1, 129509, Note_off_c, 0, 36, 61
1, 129513, Note_off_c, 0, 24, 60
1, 129518, Control_c, 0, 64, 122
1, 129521, Note_off_c, 0, 47, 70
1, 129523, Note_off_c, 0, 56, 69
1, 129533, Note_off_c, 0, 53, 66
1, 129533, Control_c, 0, 64, 78
1, 129548, Control_c, 0, 64, 60
1, 129563, Control_c, 0, 64, 36
1, 129578, Note_on_c, 0, 56, 93
1, 129578, Control_c, 0, 64, 0
1, 129581, Note_on_c, 0, 53, 73
1, 129585, Note_on_c, 0, 47, 90
1, 129629, Note_on_c, 0, 36, 92
1, 129632, Note_on_c, 0, 24, 91
1, 129652, Control_c, 0, 64, 18
1, 129660, Note_off_c, 0, 36, 64
1, 129663, Note_off_c, 0, 24, 66
1, 129667, Control_c, 0, 64, 33
1, 129673, Note_off_c, 0, 47, 57
1, 129674, Note_off_c, 0, 53, 61
1, 129682, Control_c, 0, 64, 46
1, 129697, Control_c, 0, 64, 57
1, 129708, Note_off_c, 0, 56, 62
1, 129711, Control_c, 0, 64, 67
1, 129734, Control_c, 0, 64, 79
1, 129736, Note_on_c, 0, 36, 95
1, 129740, Note_on_c, 0, 24, 94
1, 129749, Control_c, 0, 64, 96
1, 129764, Control_c, 0, 64, 127
1, 129781, Note_off_c, 0, 24, 63
1, 129786, Note_off_c, 0, 36, 61
1, 129827, Note_on_c, 0, 57, 104
1, 129832, Note_on_c, 0, 48, 90
1, 129833, Note_on_c, 0, 51, 86
1, 129856, Note_off_c, 0, 48, 71
1, 129859, Note_off_c, 0, 51, 64
1, 129860, Note_off_c, 0, 57, 60
1, 129924, Note_on_c, 0, 57, 94
1, 129927, Note_on_c, 0, 48, 100
1, 129927, Note_on_c, 0, 51, 98
1, 129971, Control_c, 0, 64, 67
1, 129985, Control_c, 0, 64, 48
1, 130000, Control_c, 0, 64, 0
1, 130014, Note_on_c, 0, 45, 100
1, 130024, Note_on_c, 0, 33, 72
1, 130026, Note_on_c, 0, 31, 74
1, 130042, Note_off_c, 0, 45, 69
1, 130045, Note_off_c, 0, 48, 48
1, 130047, Note_on_c, 0, 43, 29
1, 130048, Note_off_c, 0, 33, 67
1, 130054, Note_off_c, 0, 51, 58
1, 130059, Note_off_c, 0, 31, 65
1, 130074, Control_c, 0, 64, 14
1, 130086, Note_off_c, 0, 43, 30
1, 130089, Control_c, 0, 64, 25
1, 130097, Note_off_c, 0, 57, 55
1, 130104, Control_c, 0, 64, 32
1, 130120, Control_c, 0, 64, 39
1, 130128, Note_on_c, 0, 45, 98
1, 130131, Note_on_c, 0, 33, 83
1, 130134, Control_c, 0, 64, 46
1, 130149, Control_c, 0, 64, 54
1, 130164, Control_c, 0, 64, 61
1, 130179, Control_c, 0, 64, 65
1, 130194, Control_c, 0, 64, 68
1, 130208, Control_c, 0, 64, 70
1, 130223, Control_c, 0, 64, 72
1, 130232, Note_off_c, 0, 33, 61
1, 130237, Note_on_c, 0, 57, 96
1, 130237, Note_off_c, 0, 45, 62
1, 130238, Control_c, 0, 64, 77
1, 130253, Control_c, 0, 64, 86
1, 130268, Control_c, 0, 64, 98
1, 130282, Control_c, 0, 64, 122
1, 130295, Note_off_c, 0, 57, 64
1, 130297, Control_c, 0, 64, 127
1, 130340, Note_on_c, 0, 56, 103
1, 130342, Control_c, 0, 64, 85
1, 130357, Control_c, 0, 64, 66
1, 130372, Control_c, 0, 64, 53
1, 130387, Control_c, 0, 64, 27
1, 130402, Control_c, 0, 64, 0
1, 130437, Note_on_c, 0, 44, 104
1, 130442, Note_on_c, 0, 32, 90
1, 130446, Control_c, 0, 64, 30
1, 130461, Control_c, 0, 64, 41
1, 130472, Note_off_c, 0, 32, 69
1, 130476, Control_c, 0, 64, 52
1, 130481, Note_off_c, 0, 44, 60
1, 130497, Control_c, 0, 64, 62
1, 130512, Control_c, 0, 64, 71
1, 130527, Control_c, 0, 64, 82
1, 130542, Control_c, 0, 64, 91
1, 130555, Note_on_c, 0, 42, 100
1, 130557, Control_c, 0, 64, 100
1, 130562, Note_on_c, 0, 30, 96
1, 130571, Control_c, 0, 64, 108
1, 130581, Note_off_c, 0, 56, 61
1, 130586, Control_c, 0, 64, 127
1, 130603, Note_on_c, 0, 32, 32
1, 130621, Note_off_c, 0, 32, 67
1, 130622, Note_off_c, 0, 30, 61
1, 130625, Note_off_c, 0, 42, 62
1, 130656, Note_on_c, 0, 54, 84
1, 130701, Note_off_c, 0, 54, 62
1, 130764, Control_c, 0, 64, 78
1, 130779, Control_c, 0, 64, 53
1, 130794, Control_c, 0, 64, 33
1, 130808, Control_c, 0, 64, 41
1, 130812, Note_on_c, 0, 61, 92
1, 130813, Note_on_c, 0, 49, 117
1, 130817, Note_on_c, 0, 37, 99
1, 130823, Control_c, 0, 64, 64
1, 130838, Control_c, 0, 64, 127
1, 130840, Note_off_c, 0, 49, 68
1, 130842, Note_off_c, 0, 37, 68
1, 130846, Note_on_c, 0, 48, 52
1, 130847, Note_off_c, 0, 48, 127
1, 130855, Note_off_c, 0, 61, 63
1, 130863, Note_on_c, 0, 73, 79
1, 130908, Note_off_c, 0, 73, 64
1, 130920, Poly_aftertouch_c, 0, 39, 0
1, 130939, Note_on_c, 0, 60, 74
1, 130977, Note_off_c, 0, 60, 65
1, 130991, Note_on_c, 0, 72, 77
1, 131042, Note_off_c, 0, 72, 62
1, 131062, Control_c, 0, 64, 92
1, 131064, Note_on_c, 0, 61, 83
1, 131077, Control_c, 0, 64, 51
1, 131091, Control_c, 0, 64, 0
1, 131099, Note_off_c, 0, 61, 59
1, 131127, Note_on_c, 0, 73, 75
1, 131149, Note_off_c, 0, 73, 70
1, 131177, Note_on_c, 0, 60, 75
1, 131218, Note_off_c, 0, 60, 65
1, 131248, Note_on_c, 0, 72, 66
1, 131273, Note_off_c, 0, 72, 68
1, 131319, Note_on_c, 0, 48, 61
1, 131320, Note_on_c, 0, 36, 54
1, 131321, Note_on_c, 0, 61, 69
1, 131341, Note_off_c, 0, 48, 63
1, 131350, Note_off_c, 0, 61, 68
1, 131350, Note_off_c, 0, 36, 52
1, 131382, Note_on_c, 0, 73, 59
1, 131403, Note_off_c, 0, 73, 64
1, 131424, Note_on_c, 0, 49, 75
1, 131426, Note_on_c, 0, 37, 66
1, 131443, Note_on_c, 0, 60, 62
1, 131451, Note_off_c, 0, 49, 69
1, 131455, Note_off_c, 0, 37, 66
1, 131469, Note_off_c, 0, 60, 65
1, 131482, Note_on_c, 0, 72, 57
1, 131513, Note_off_c, 0, 72, 65
1, 131543, Control_c, 0, 64, 48
1, 131548, Note_on_c, 0, 50, 78
1, 131548, Note_on_c, 0, 61, 79
1, 131550, Note_on_c, 0, 38, 73
1, 131558, Control_c, 0, 64, 79
1, 131566, Note_on_c, 0, 66, 49
1, 131570, Note_off_c, 0, 50, 68
1, 131573, Control_c, 0, 64, 127
1, 131581, Note_off_c, 0, 61, 62
1, 131582, Note_off_c, 0, 38, 65
1, 131590, Note_off_c, 0, 66, 59
1, 131606, Note_on_c, 0, 73, 67
1, 131629, Note_off_c, 0, 73, 69
1, 131666, Note_on_c, 0, 60, 68
1, 131667, Note_on_c, 0, 54, 76
1, 131673, Note_on_c, 0, 42, 67
1, 131692, Note_off_c, 0, 54, 68
1, 131694, Note_off_c, 0, 60, 68
1, 131706, Note_off_c, 0, 42, 64
1, 131715, Note_on_c, 0, 72, 69
1, 131752, Note_off_c, 0, 72, 60
1, 131785, Note_on_c, 0, 61, 89
1, 131792, Note_on_c, 0, 59, 81
1, 131793, Note_on_c, 0, 47, 83
1, 131813, Note_off_c, 0, 59, 70
1, 131819, Note_off_c, 0, 47, 68
1, 131819, Note_off_c, 0, 61, 59
1, 131859, Note_on_c, 0, 73, 68
1, 131878, Note_off_c, 0, 73, 65
1, 131904, Note_on_c, 0, 60, 85
1, 131915, Note_on_c, 0, 48, 71
1, 131923, Note_on_c, 0, 50, 73
1, 131936, Note_off_c, 0, 60, 67
1, 131949, Note_off_c, 0, 48, 68
1, 131951, Note_off_c, 0, 50, 66
1, 131955, Note_on_c, 0, 72, 69
1, 131987, Note_off_c, 0, 72, 65
1, 131996, Control_c, 0, 64, 92
1, 132011, Control_c, 0, 64, 68
1, 132026, Control_c, 0, 64, 55
1, 132034, Note_on_c, 0, 49, 92
1, 132038, Note_on_c, 0, 61, 75
1, 132041, Control_c, 0, 64, 34
1, 132056, Control_c, 0, 64, 0
1, 132069, Note_off_c, 0, 61, 67
1, 132080, Note_off_c, 0, 49, 62
1, 132096, Note_on_c, 0, 73, 65
1, 132116, Note_off_c, 0, 73, 68
1, 132151, Note_on_c, 0, 50, 85
1, 132154, Note_on_c, 0, 60, 70
1, 132177, Note_off_c, 0, 50, 67
1, 132181, Note_off_c, 0, 60, 69
1, 132189, Note_on_c, 0, 72, 61
1, 132217, Note_off_c, 0, 72, 67
1, 132248, Control_c, 0, 64, 33
1, 132261, Note_on_c, 0, 51, 106
1, 132262, Control_c, 0, 64, 88
1, 132264, Note_on_c, 0, 61, 89
1, 132266, Note_on_c, 0, 39, 92
1, 132277, Control_c, 0, 64, 127
1, 132280, Note_on_c, 0, 67, 68
1, 132280, Note_off_c, 0, 51, 70
1, 132289, Note_off_c, 0, 39, 69
1, 132303, Note_off_c, 0, 61, 58
1, 132303, Note_off_c, 0, 67, 69
1, 132304, Note_on_c, 0, 73, 80
1, 132346, Note_off_c, 0, 73, 65
1, 132381, Note_on_c, 0, 60, 68
1, 132405, Note_off_c, 0, 60, 69
1, 132424, Note_on_c, 0, 72, 73
1, 132461, Note_off_c, 0, 72, 60
1, 132500, Control_c, 0, 64, 76
1, 132512, Note_on_c, 0, 61, 76
1, 132515, Control_c, 0, 64, 51
1, 132530, Control_c, 0, 64, 0
1, 132537, Note_off_c, 0, 61, 69
1, 132572, Note_on_c, 0, 73, 69
1, 132592, Note_off_c, 0, 73, 69
1, 132633, Note_on_c, 0, 60, 62
1, 132661, Note_off_c, 0, 60, 67
1, 132682, Note_on_c, 0, 72, 61
1, 132703, Note_off_c, 0, 72, 67
1, 132759, Note_on_c, 0, 61, 67
1, 132767, Note_on_c, 0, 50, 68
1, 132768, Note_on_c, 0, 38, 66
1, 132787, Note_off_c, 0, 61, 68
1, 132795, Note_off_c, 0, 50, 65
1, 132801, Note_off_c, 0, 38, 64
1, 132816, Note_on_c, 0, 73, 60
1, 132837, Note_off_c, 0, 73, 63
1, 132872, Note_on_c, 0, 60, 63
1, 132882, Note_on_c, 0, 51, 68
1, 132883, Note_on_c, 0, 39, 64
1, 132900, Note_off_c, 0, 60, 67
1, 132905, Note_on_c, 0, 72, 60
1, 132911, Note_off_c, 0, 51, 71
1, 132915, Note_off_c, 0, 39, 62
1, 132935, Note_off_c, 0, 72, 66
1, 132983, Control_c, 0, 64, 29
1, 132985, Note_on_c, 0, 61, 76
1, 132994, Note_on_c, 0, 40, 78
1, 132995, Note_on_c, 0, 52, 82
1, 132998, Control_c, 0, 64, 58
1, 133012, Control_c, 0, 64, 92
1, 133014, Note_on_c, 0, 68, 52
1, 133018, Note_off_c, 0, 52, 73
1, 133021, Note_off_c, 0, 40, 67
1, 133023, Note_off_c, 0, 61, 56
1, 133027, Control_c, 0, 64, 127
1, 133032, Note_on_c, 0, 73, 72
1, 133045, Note_off_c, 0, 68, 52
1, 133054, Note_off_c, 0, 73, 69
1, 133101, Note_on_c, 0, 60, 64
1, 133105, Note_on_c, 0, 56, 82
1, 133111, Note_on_c, 0, 44, 70
1, 133129, Note_off_c, 0, 60, 66
1, 133135, Note_off_c, 0, 56, 62
1, 133138, Note_off_c, 0, 44, 65
1, 133139, Note_on_c, 0, 72, 67
1, 133173, Note_off_c, 0, 72, 59
1, 133216, Note_on_c, 0, 61, 78
1, 133229, Note_on_c, 0, 47, 83
1, 133230, Note_on_c, 0, 59, 79
1, 133251, Note_off_c, 0, 59, 71
1, 133254, Note_off_c, 0, 61, 59
1, 133255, Note_off_c, 0, 47, 66
1, 133290, Note_on_c, 0, 73, 56
1, 133316, Note_off_c, 0, 73, 60
1, 133337, Note_on_c, 0, 48, 92
1, 133338, Note_on_c, 0, 60, 73
1, 133353, Control_c, 0, 64, 62
1, 133364, Note_off_c, 0, 60, 69
1, 133368, Control_c, 0, 64, 21
1, 133373, Note_on_c, 0, 72, 62
1, 133382, Note_off_c, 0, 48, 65
1, 133382, Control_c, 0, 64, 0
1, 133405, Note_off_c, 0, 72, 64
1, 133452, Note_on_c, 0, 49, 88
1, 133452, Note_on_c, 0, 61, 78
1, 133494, Note_off_c, 0, 61, 62
1, 133506, Note_off_c, 0, 49, 64
1, 133523, Note_on_c, 0, 73, 64
1, 133542, Note_off_c, 0, 73, 67
1, 133577, Note_on_c, 0, 52, 83
1, 133587, Note_on_c, 0, 60, 63
1, 133600, Note_off_c, 0, 52, 73
1, 133612, Note_on_c, 0, 72, 52
1, 133616, Note_off_c, 0, 60, 68
1, 133643, Note_off_c, 0, 72, 65
1, 133672, Control_c, 0, 64, 25
1, 133684, Note_on_c, 0, 53, 100
1, 133686, Note_on_c, 0, 61, 88
1, 133686, Control_c, 0, 64, 127
1, 133691, Note_on_c, 0, 41, 95
1, 133702, Note_on_c, 0, 68, 76
1, 133709, Note_off_c, 0, 53, 68
1, 133713, Note_off_c, 0, 41, 69
1, 133730, Note_off_c, 0, 68, 64
1, 133734, Note_on_c, 0, 73, 72
1, 133736, Note_off_c, 0, 61, 63
1, 133756, Note_off_c, 0, 73, 68
1, 133775, Control_c, 0, 64, 65
1, 133790, Control_c, 0, 64, 24
1, 133805, Control_c, 0, 64, 0
1, 133819, Note_on_c, 0, 60, 61
1, 133844, Note_on_c, 0, 72, 72
1, 133845, Note_off_c, 0, 60, 68
1, 133851, Poly_aftertouch_c, 0, 41, 0
1, 133883, Note_off_c, 0, 72, 65
1, 133938, Note_on_c, 0, 61, 70
1, 133977, Note_on_c, 0, 73, 71
1, 133982, Note_off_c, 0, 61, 63
1, 134003, Note_off_c, 0, 73, 70
1, 134041, Control_c, 0, 64, 35
1, 134053, Note_on_c, 0, 60, 86
1, 134056, Control_c, 0, 64, 83
1, 134059, Note_on_c, 0, 54, 106
1, 134060, Note_on_c, 0, 42, 93
1, 134067, Note_on_c, 0, 69, 68
1, 134071, Control_c, 0, 64, 127
1, 134089, Note_off_c, 0, 60, 69
1, 134101, Control_c, 0, 64, 102
1, 134104, Note_off_c, 0, 69, 62
1, 134110, Note_on_c, 0, 72, 64
1, 134116, Control_c, 0, 64, 56
1, 134129, Note_off_c, 0, 72, 67
1, 134131, Control_c, 0, 64, 0
1, 134178, Note_on_c, 0, 61, 76
1, 134229, Note_off_c, 0, 61, 63
1, 134230, Note_on_c, 0, 73, 75
1, 134268, Note_off_c, 0, 73, 68
1, 134313, Note_on_c, 0, 62, 76
1, 134315, Note_off_c, 0, 54, 58
1, 134321, Note_off_c, 0, 42, 60
1, 134348, Note_off_c, 0, 62, 63
1, 134364, Note_on_c, 0, 74, 72
1, 134404, Note_off_c, 0, 74, 63
1, 134435, Control_c, 0, 64, 12
1, 134436, Note_on_c, 0, 55, 102
1, 134438, Note_on_c, 0, 63, 85
1, 134441, Note_on_c, 0, 43, 89
1, 134450, Control_c, 0, 64, 17
1, 134459, Note_on_c, 0, 73, 66
1, 134465, Control_c, 0, 64, 26
1, 134478, Note_off_c, 0, 63, 65
1, 134479, Control_c, 0, 64, 36
1, 134494, Control_c, 0, 64, 46
1, 134505, Note_off_c, 0, 73, 65
1, 134506, Note_on_c, 0, 75, 75
1, 134509, Control_c, 0, 64, 56
1, 134524, Control_c, 0, 64, 63
1, 134530, Note_off_c, 0, 75, 69
1, 134539, Control_c, 0, 64, 68
1, 134554, Control_c, 0, 64, 69
1, 134560, Note_on_c, 0, 64, 78
1, 134581, Note_on_c, 0, 73, 52
1, 134583, Control_c, 0, 64, 70
1, 134589, Note_off_c, 0, 43, 59
1, 134593, Note_off_c, 0, 64, 62
1, 134598, Control_c, 0, 64, 72
1, 134599, Note_off_c, 0, 55, 60
1, 134613, Control_c, 0, 64, 77
1, 134620, Note_on_c, 0, 76, 78
1, 134628, Control_c, 0, 64, 80
1, 134631, Note_off_c, 0, 73, 62
1, 134650, Note_off_c, 0, 76, 65
1, 134657, Control_c, 0, 64, 79
1, 134672, Control_c, 0, 64, 74
1, 134687, Control_c, 0, 64, 68
1, 134689, Note_on_c, 0, 65, 77
1, 134696, Note_on_c, 0, 44, 82
1, 134697, Note_on_c, 0, 56, 83
1, 134701, Control_c, 0, 64, 65
1, 134716, Control_c, 0, 64, 64
1, 134721, Note_off_c, 0, 65, 66
1, 134724, Note_off_c, 0, 56, 66
1, 134727, Note_off_c, 0, 44, 63
1, 134736, Note_on_c, 0, 77, 80
1, 134761, Control_c, 0, 64, 65
1, 134777, Note_off_c, 0, 77, 60
1, 134791, Control_c, 0, 64, 65
1, 134810, Note_on_c, 0, 66, 86
1, 134813, Note_on_c, 0, 57, 86
1, 134821, Control_c, 0, 64, 66
1, 134822, Note_on_c, 0, 45, 67
1, 134836, Note_off_c, 0, 57, 68
1, 134846, Note_off_c, 0, 66, 59
1, 134846, Note_off_c, 0, 45, 65
1, 134850, Control_c, 0, 64, 63
1, 134864, Note_on_c, 0, 78, 80
1, 134865, Control_c, 0, 64, 57
1, 134869, Note_on_c, 0, 73, 46
1, 134880, Control_c, 0, 64, 37
1, 134888, Note_off_c, 0, 78, 68
1, 134895, Control_c, 0, 64, 0
1, 134896, Note_off_c, 0, 73, 57
1, 134926, Note_on_c, 0, 56, 85
1, 134928, Note_on_c, 0, 44, 77
1, 134938, Note_on_c, 0, 68, 72
1, 134951, Note_off_c, 0, 56, 64
1, 134956, Note_off_c, 0, 44, 66
1, 134961, Note_on_c, 0, 73, 67
1, 134988, Note_off_c, 0, 68, 50
1, 134995, Note_off_c, 0, 73, 69
1, 135006, Note_on_c, 0, 80, 53
1, 135028, Note_off_c, 0, 80, 59
1, 135048, Note_on_c, 0, 54, 80
1, 135051, Note_on_c, 0, 42, 71
1, 135055, Note_on_c, 0, 69, 70
1, 135073, Note_on_c, 0, 73, 49
1, 135073, Note_off_c, 0, 54, 68
1, 135079, Note_on_c, 0, 81, 55
1, 135079, Note_off_c, 0, 69, 72
1, 135082, Note_off_c, 0, 42, 63
1, 135099, Note_off_c, 0, 73, 36
1, 135100, Note_off_c, 0, 81, 61
1, 135155, Control_c, 0, 64, 25
1, 135165, Note_on_c, 0, 73, 98
1, 135170, Note_on_c, 0, 85, 107
1, 135170, Control_c, 0, 64, 73
1, 135171, Note_on_c, 0, 37, 80
1, 135174, Note_on_c, 0, 49, 100
1, 135185, Control_c, 0, 64, 127
1, 135194, Note_off_c, 0, 37, 69
1, 135197, Note_off_c, 0, 73, 69
1, 135200, Note_off_c, 0, 85, 63
1, 135205, Note_off_c, 0, 49, 64
1, 135295, Note_on_c, 0, 49, 79
1, 135317, Note_off_c, 0, 49, 67
1, 135345, Note_on_c, 0, 61, 79
1, 135377, Note_off_c, 0, 61, 60
1, 135413, Note_on_c, 0, 48, 69
1, 135440, Note_off_c, 0, 48, 64
1, 135457, Note_on_c, 0, 60, 72
1, 135505, Note_off_c, 0, 60, 63
1, 135511, Control_c, 0, 64, 85
1, 135526, Control_c, 0, 64, 64
1, 135532, Note_on_c, 0, 49, 74
1, 135540, Control_c, 0, 64, 51
1, 135555, Control_c, 0, 64, 40
1, 135570, Control_c, 0, 64, 43
1, 135570, Note_off_c, 0, 49, 54
1, 135582, Note_on_c, 0, 61, 75
1, 135585, Control_c, 0, 64, 54
1, 135599, Control_c, 0, 64, 74
1, 135614, Control_c, 0, 64, 127
1, 135628, Note_off_c, 0, 61, 61
1, 135640, Note_on_c, 0, 48, 72
1, 135660, Note_on_c, 0, 72, 77
1, 135663, Note_on_c, 0, 84, 79
1, 135681, Note_off_c, 0, 72, 71
1, 135687, Note_off_c, 0, 84, 67
1, 135689, Note_off_c, 0, 48, 63
1, 135702, Note_on_c, 0, 60, 34
1, 135741, Note_off_c, 0, 60, 54
1, 135775, Note_on_c, 0, 61, 70
1, 135778, Note_on_c, 0, 73, 88
1, 135780, Note_on_c, 0, 85, 79
1, 135781, Note_on_c, 0, 49, 61
1, 135797, Note_off_c, 0, 61, 72
1, 135804, Note_off_c, 0, 73, 62
1, 135806, Note_off_c, 0, 49, 70
1, 135812, Note_off_c, 0, 85, 53
1, 135874, Control_c, 0, 64, 63
1, 135889, Control_c, 0, 64, 28
1, 135891, Note_on_c, 0, 74, 96
1, 135892, Note_on_c, 0, 38, 84
1, 135900, Note_on_c, 0, 86, 75
1, 135901, Note_on_c, 0, 50, 74
1, 135904, Control_c, 0, 64, 0
1, 135907, Note_on_c, 0, 78, 70
1, 135912, Note_off_c, 0, 74, 69
1, 135914, Note_off_c, 0, 38, 68
1, 135919, Control_c, 0, 64, 47
1, 135921, Note_off_c, 0, 86, 69
1, 135923, Note_off_c, 0, 78, 66
1, 135925, Note_off_c, 0, 50, 66
1, 135934, Control_c, 0, 64, 80
1, 135949, Control_c, 0, 64, 127
1, 136002, Note_on_c, 0, 78, 91
1, 136008, Note_on_c, 0, 49, 72
1, 136009, Note_on_c, 0, 90, 92
1, 136031, Note_off_c, 0, 90, 67
1, 136038, Note_off_c, 0, 49, 66
1, 136038, Note_off_c, 0, 78, 66
1, 136101, Note_on_c, 0, 61, 3
1, 136114, Note_on_c, 0, 48, 72
1, 136115, Note_on_c, 0, 83, 91
1, 136123, Note_on_c, 0, 95, 93
1, 136141, Note_off_c, 0, 48, 67
1, 136143, Note_off_c, 0, 61, 50
1, 136143, Note_off_c, 0, 83, 65
1, 136146, Note_off_c, 0, 95, 67
1, 136156, Note_on_c, 0, 94, 25
1, 136158, Note_on_c, 0, 60, 74
1, 136178, Note_off_c, 0, 94, 38
1, 136198, Note_off_c, 0, 60, 58
1, 136220, Note_on_c, 0, 49, 74
1, 136223, Note_on_c, 0, 84, 106
1, 136230, Note_on_c, 0, 96, 104
1, 136236, Note_on_c, 0, 60, 50
1, 136247, Note_off_c, 0, 49, 59
1, 136256, Note_off_c, 0, 84, 70
1, 136259, Note_off_c, 0, 96, 69
1, 136287, Note_off_c, 0, 60, 60
1, 136323, Note_on_c, 0, 48, 81
1, 136332, Note_on_c, 0, 85, 106
1, 136341, Note_on_c, 0, 97, 98
1, 136369, Note_on_c, 0, 49, 53
1, 136378, Note_off_c, 0, 85, 64
1, 136380, Note_off_c, 0, 97, 67
1, 136382, Note_off_c, 0, 48, 63
1, 136410, Note_off_c, 0, 49, 65
1, 136445, Note_on_c, 0, 48, 61
1, 136448, Note_on_c, 0, 86, 103
1, 136454, Note_on_c, 0, 98, 86
1, 136462, Note_off_c, 0, 48, 69
1, 136479, Note_off_c, 0, 98, 73
1, 136480, Note_off_c, 0, 86, 69
1, 136482, Note_on_c, 0, 97, 44
1, 136513, Note_off_c, 0, 97, 36
1, 136593, Control_c, 0, 64, 69
1, 136608, Control_c, 0, 64, 30
1, 136623, Control_c, 0, 64, 0
1, 136635, Note_on_c, 0, 55, 95
1, 136638, Control_c, 0, 64, 18
1, 136641, Note_on_c, 0, 61, 78
1, 136642, Note_on_c, 0, 63, 82
1, 136650, Note_on_c, 0, 39, 86
1, 136650, Note_on_c, 0, 51, 99
1, 136652, Control_c, 0, 64, 50
1, 136657, Note_off_c, 0, 55, 70
1, 136667, Control_c, 0, 64, 88
1, 136673, Note_off_c, 0, 39, 69
1, 136675, Note_off_c, 0, 63, 61
1, 136676, Note_off_c, 0, 61, 63
1, 136682, Control_c, 0, 64, 127
1, 136685, Note_off_c, 0, 51, 58
1, 136772, Note_on_c, 0, 49, 78
1, 136807, Note_off_c, 0, 49, 59
1, 136841, Note_on_c, 0, 61, 64
1, 136867, Note_off_c, 0, 61, 68
1, 136895, Note_on_c, 0, 48, 70
1, 136927, Note_off_c, 0, 48, 64
1, 136947, Note_on_c, 0, 60, 67
1, 136980, Note_off_c, 0, 60, 66
1, 137008, Control_c, 0, 64, 78
1, 137011, Note_on_c, 0, 49, 75
1, 137022, Control_c, 0, 64, 58
1, 137037, Control_c, 0, 64, 45
1, 137043, Note_off_c, 0, 49, 59
1, 137048, Note_on_c, 0, 61, 79
1, 137052, Control_c, 0, 64, 49
1, 137067, Control_c, 0, 64, 61
1, 137082, Control_c, 0, 64, 89
1, 137094, Note_off_c, 0, 61, 63
1, 137096, Control_c, 0, 64, 127
1, 137118, Note_on_c, 0, 48, 75
1, 137142, Note_on_c, 0, 74, 82
1, 137144, Note_on_c, 0, 86, 81
1, 137159, Note_off_c, 0, 74, 75
1, 137163, Note_off_c, 0, 48, 63
1, 137165, Note_off_c, 0, 86, 67
1, 137193, Note_on_c, 0, 60, 21
1, 137242, Note_off_c, 0, 60, 52
1, 137252, Note_on_c, 0, 75, 90
1, 137257, Note_on_c, 0, 87, 83
1, 137261, Note_on_c, 0, 61, 56
1, 137261, Note_on_c, 0, 49, 41
1, 137281, Note_off_c, 0, 49, 64
1, 137287, Note_off_c, 0, 61, 58
1, 137287, Note_off_c, 0, 87, 60
1, 137290, Note_off_c, 0, 75, 58
1, 137326, Control_c, 0, 64, 80
1, 137341, Control_c, 0, 64, 47
1, 137356, Control_c, 0, 64, 0
1, 137366, Note_on_c, 0, 76, 94
1, 137368, Note_on_c, 0, 40, 79
1, 137372, Note_on_c, 0, 80, 85
1, 137373, Note_on_c, 0, 88, 88
1, 137374, Note_on_c, 0, 52, 85
1, 137386, Control_c, 0, 64, 49
1, 137388, Note_off_c, 0, 76, 68
1, 137390, Note_off_c, 0, 80, 73
1, 137392, Note_off_c, 0, 88, 72
1, 137395, Note_off_c, 0, 52, 74
1, 137396, Note_off_c, 0, 40, 68
1, 137401, Control_c, 0, 64, 127
1, 137479, Note_on_c, 0, 80, 98
1, 137482, Note_on_c, 0, 92, 100
1, 137484, Note_on_c, 0, 49, 74
1, 137510, Note_off_c, 0, 49, 68
1, 137513, Note_off_c, 0, 80, 66
1, 137520, Note_off_c, 0, 92, 63
1, 137541, Note_on_c, 0, 61, 65
1, 137561, Note_off_c, 0, 61, 65
1, 137585, Note_on_c, 0, 48, 74
1, 137590, Note_on_c, 0, 83, 99
1, 137596, Note_on_c, 0, 95, 101
1, 137612, Note_off_c, 0, 48, 66
1, 137618, Note_off_c, 0, 83, 68
1, 137622, Note_on_c, 0, 94, 42
1, 137625, Note_on_c, 0, 60, 79
1, 137628, Note_off_c, 0, 95, 65
1, 137649, Note_off_c, 0, 94, 35
1, 137669, Note_off_c, 0, 60, 63
1, 137691, Note_on_c, 0, 49, 78
1, 137702, Note_on_c, 0, 84, 104
1, 137705, Note_on_c, 0, 96, 103
1, 137732, Note_off_c, 0, 84, 69
1, 137734, Note_off_c, 0, 96, 68
1, 137744, Note_off_c, 0, 49, 42
1, 137768, Note_on_c, 0, 60, 41
1, 137788, Note_on_c, 0, 48, 74
1, 137796, Note_off_c, 0, 60, 55
1, 137812, Note_on_c, 0, 85, 103
1, 137817, Note_on_c, 0, 97, 109
1, 137849, Note_off_c, 0, 85, 67
1, 137857, Note_off_c, 0, 97, 66
1, 137884, Note_off_c, 0, 48, 59
1, 137896, Note_on_c, 0, 49, 65
1, 137925, Note_on_c, 0, 88, 106
1, 137925, Note_off_c, 0, 49, 67
1, 137928, Note_on_c, 0, 100, 103
1, 137940, Note_off_c, 0, 100, 78
1, 137952, Note_off_c, 0, 88, 73
1, 137960, Note_on_c, 0, 99, 32
1, 137961, Note_off_c, 0, 99, 127
1, 138136, Control_c, 0, 64, 83
1, 138149, Note_on_c, 0, 41, 74
1, 138150, Control_c, 0, 64, 47
1, 138157, Note_on_c, 0, 65, 73
1, 138160, Note_on_c, 0, 73, 68
1, 138162, Note_on_c, 0, 53, 47
1, 138165, Control_c, 0, 64, 0
1, 138170, Note_on_c, 0, 77, 59
1, 138171, Note_off_c, 0, 41, 61
1, 138188, Note_on_c, 0, 67, 35
1, 138190, Note_off_c, 0, 53, 36
1, 138209, Note_off_c, 0, 65, 0
1, 138209, Note_on_c, 0, 65, 33
1, 138211, Note_on_c, 0, 68, 8
1, 138226, Note_off_c, 0, 67, 31
1, 138229, Note_off_c, 0, 73, 0
1, 138229, Note_on_c, 0, 73, 20
1, 138270, Note_on_c, 0, 62, 78
1, 138276, Note_on_c, 0, 50, 60
1, 138292, Note_off_c, 0, 62, 68
1, 138300, Note_off_c, 0, 50, 59
1, 138310, Note_off_c, 0, 77, 59
1, 138325, Note_off_c, 0, 68, 44
1, 138337, Note_off_c, 0, 65, 64
1, 138372, Note_off_c, 0, 73, 51
1, 138387, Note_on_c, 0, 49, 74
1, 138388, Note_on_c, 0, 61, 70
1, 138412, Note_off_c, 0, 49, 70
1, 138416, Note_off_c, 0, 61, 67
1, 138476, Control_c, 0, 64, 11
1, 138491, Control_c, 0, 64, 62
1, 138492, Note_on_c, 0, 42, 77
1, 138493, Note_on_c, 0, 66, 86
1, 138495, Note_on_c, 0, 78, 84
1, 138496, Note_on_c, 0, 69, 69
1, 138496, Note_on_c, 0, 73, 72
1, 138500, Note_on_c, 0, 54, 68
1, 138506, Control_c, 0, 64, 127
1, 138520, Note_off_c, 0, 42, 66
1, 138529, Note_off_c, 0, 54, 66
1, 138568, Note_off_c, 0, 69, 64
1, 138580, Control_c, 0, 64, 91
1, 138590, Note_off_c, 0, 66, 61
1, 138595, Control_c, 0, 64, 56
1, 138610, Control_c, 0, 64, 0
1, 138612, Note_on_c, 0, 60, 71
1, 138617, Note_on_c, 0, 48, 63
1, 138618, Note_off_c, 0, 73, 63
1, 138634, Note_off_c, 0, 78, 59
1, 138638, Note_off_c, 0, 60, 68
1, 138640, Note_off_c, 0, 48, 62
1, 138715, Note_on_c, 0, 49, 75
1, 138715, Note_on_c, 0, 61, 72
1, 138745, Note_off_c, 0, 61, 68
1, 138747, Note_off_c, 0, 49, 69
1, 138836, Note_on_c, 0, 43, 82
1, 138836, Note_on_c, 0, 55, 88
1, 138839, Control_c, 0, 64, 31
1, 138840, Note_on_c, 0, 67, 87
1, 138843, Note_on_c, 0, 79, 85
1, 138848, Note_on_c, 0, 73, 75
1, 138854, Control_c, 0, 64, 42
1, 138856, Note_off_c, 0, 55, 71
1, 138861, Note_off_c, 0, 43, 66
1, 138869, Control_c, 0, 64, 51
1, 138883, Control_c, 0, 64, 60
1, 138899, Control_c, 0, 64, 65
1, 138914, Control_c, 0, 64, 68
1, 138929, Control_c, 0, 64, 69
1, 138951, Note_on_c, 0, 63, 89
1, 138954, Note_on_c, 0, 51, 77
1, 138959, Control_c, 0, 64, 68
1, 138973, Control_c, 0, 64, 67
1, 138978, Note_off_c, 0, 51, 67
1, 138978, Note_off_c, 0, 63, 61
1, 138988, Control_c, 0, 64, 66
1, 138997, Note_off_c, 0, 79, 60
1, 139003, Control_c, 0, 64, 66
1, 139004, Note_off_c, 0, 67, 60
1, 139018, Control_c, 0, 64, 64
1, 139032, Control_c, 0, 64, 62
1, 139047, Control_c, 0, 64, 59
1, 139060, Note_on_c, 0, 64, 83
1, 139062, Control_c, 0, 64, 55
1, 139066, Note_on_c, 0, 52, 81
1, 139077, Control_c, 0, 64, 49
1, 139079, Note_off_c, 0, 64, 72
1, 139082, Note_off_c, 0, 73, 36
1, 139090, Note_off_c, 0, 52, 72
1, 139092, Control_c, 0, 64, 40
1, 139106, Control_c, 0, 64, 17
1, 139121, Control_c, 0, 64, 0
1, 139174, Note_on_c, 0, 44, 78
1, 139174, Note_on_c, 0, 68, 102
1, 139175, Note_on_c, 0, 56, 87
1, 139177, Note_on_c, 0, 80, 92
1, 139178, Note_on_c, 0, 73, 86
1, 139195, Control_c, 0, 64, 22
1, 139196, Note_off_c, 0, 56, 69
1, 139198, Note_off_c, 0, 44, 68
1, 139210, Control_c, 0, 64, 37
1, 139225, Control_c, 0, 64, 48
1, 139240, Control_c, 0, 64, 61
1, 139255, Control_c, 0, 64, 68
1, 139270, Control_c, 0, 64, 72
1, 139285, Control_c, 0, 64, 73
1, 139287, Note_on_c, 0, 64, 87
1, 139293, Note_on_c, 0, 52, 84
1, 139299, Control_c, 0, 64, 72
1, 139307, Note_off_c, 0, 64, 69
1, 139313, Note_off_c, 0, 52, 73
1, 139315, Note_off_c, 0, 73, 61
1, 139329, Poly_aftertouch_c, 0, 56, 0
1, 139344, Control_c, 0, 64, 73
1, 139353, Note_off_c, 0, 68, 57
1, 139393, Note_off_c, 0, 80, 40
1, 139397, Note_on_c, 0, 65, 92
1, 139403, Note_on_c, 0, 53, 83
1, 139403, Control_c, 0, 64, 72
1, 139416, Note_off_c, 0, 65, 71
1, 139417, Control_c, 0, 64, 67
1, 139422, Note_off_c, 0, 53, 71
1, 139432, Control_c, 0, 64, 58
1, 139447, Control_c, 0, 64, 40
1, 139462, Control_c, 0, 64, 0
1, 139529, Control_c, 0, 64, 19
1, 139529, Note_on_c, 0, 45, 85
1, 139529, Note_on_c, 0, 57, 86
1, 139532, Note_on_c, 0, 69, 87
1, 139535, Note_on_c, 0, 78, 79
1, 139542, Note_on_c, 0, 75, 68
1, 139544, Control_c, 0, 64, 35
1, 139548, Note_off_c, 0, 57, 71
1, 139550, Note_on_c, 0, 72, 52
1, 139556, Note_off_c, 0, 45, 68
1, 139559, Control_c, 0, 64, 49
1, 139571, Note_off_c, 0, 72, 59
1, 139573, Control_c, 0, 64, 61
1, 139574, Note_off_c, 0, 69, 65
1, 139575, Note_off_c, 0, 75, 59
1, 139588, Control_c, 0, 64, 76
1, 139603, Note_off_c, 0, 78, 63
1, 139603, Control_c, 0, 64, 127
1, 139639, Note_on_c, 0, 66, 94
1, 139643, Note_on_c, 0, 54, 75
1, 139657, Note_off_c, 0, 66, 72
1, 139669, Note_off_c, 0, 54, 69
1, 139741, Note_on_c, 0, 46, 93
1, 139741, Note_on_c, 0, 70, 98
1, 139742, Note_on_c, 0, 58, 96
1, 139748, Note_on_c, 0, 73, 75
1, 139748, Note_on_c, 0, 76, 71
1, 139759, Note_on_c, 0, 79, 63
1, 139762, Note_off_c, 0, 58, 71
1, 139762, Note_off_c, 0, 46, 72
1, 139787, Note_on_c, 0, 82, 32
1, 139800, Note_off_c, 0, 73, 60
1, 139800, Note_off_c, 0, 76, 66
1, 139803, Note_off_c, 0, 79, 52
1, 139821, Note_off_c, 0, 70, 59
1, 139822, Note_off_c, 0, 82, 55
1, 139847, Note_on_c, 0, 67, 97
1, 139853, Note_on_c, 0, 55, 89
1, 139866, Note_off_c, 0, 67, 70
1, 139874, Note_off_c, 0, 55, 73
1, 139944, Control_c, 0, 64, 72
1, 139957, Note_on_c, 0, 71, 95
1, 139959, Control_c, 0, 64, 58
1, 139961, Note_on_c, 0, 80, 79
1, 139962, Note_on_c, 0, 74, 76
1, 139963, Note_on_c, 0, 77, 77
1, 139964, Note_on_c, 0, 47, 91
1, 139965, Note_on_c, 0, 59, 93
1, 139972, Note_on_c, 0, 83, 73
1, 139974, Control_c, 0, 64, 54
1, 139982, Note_off_c, 0, 59, 72
1, 139984, Note_off_c, 0, 47, 73
1, 139989, Control_c, 0, 64, 63
1, 140003, Control_c, 0, 64, 127
1, 140030, Note_off_c, 0, 74, 64
1, 140033, Note_off_c, 0, 71, 62
1, 140045, Note_off_c, 0, 77, 60
1, 140057, Note_off_c, 0, 83, 62
1, 140067, Note_on_c, 0, 68, 108
1, 140069, Note_on_c, 0, 56, 91
1, 140070, Note_off_c, 0, 80, 60
1, 140089, Note_off_c, 0, 68, 58
1, 140101, Note_off_c, 0, 56, 61
1, 140107, Control_c, 0, 64, 65
1, 140122, Control_c, 0, 64, 0
1, 140370, Note_on_c, 0, 72, 80
1, 140370, Note_on_c, 0, 48, 74
1, 140370, Note_on_c, 0, 60, 76
1, 140371, Note_on_c, 0, 84, 84
1, 140388, Note_off_c, 0, 72, 72
1, 140393, Note_off_c, 0, 60, 71
1, 140396, Note_off_c, 0, 84, 64
1, 140399, Note_off_c, 0, 48, 67
1, 140460, Note_on_c, 0, 61, 88
1, 140464, Note_on_c, 0, 49, 83
1, 140465, Note_on_c, 0, 73, 94
1, 140469, Note_on_c, 0, 85, 84
1, 140492, Note_off_c, 0, 49, 68
1, 140498, Note_off_c, 0, 61, 65
1, 140507, Note_off_c, 0, 73, 65
1, 140510, Note_off_c, 0, 85, 64
1, 140560, Control_c, 0, 64, 36
1, 140568, Note_on_c, 0, 62, 98
1, 140568, Note_on_c, 0, 74, 104
1, 140572, Note_on_c, 0, 50, 95
1, 140572, Note_on_c, 0, 86, 100
1, 140575, Control_c, 0, 64, 127
1, 140590, Note_off_c, 0, 50, 70
1, 140593, Note_off_c, 0, 86, 64
1, 140596, Note_on_c, 0, 85, 62
1, 140598, Note_off_c, 0, 74, 71
1, 140602, Note_off_c, 0, 62, 66
1, 140621, Note_off_c, 0, 85, 58
1, 140634, Control_c, 0, 64, 67
1, 140649, Control_c, 0, 64, 32
1, 140664, Control_c, 0, 64, 0
1, 141011, Control_c, 0, 64, 61
1, 141023, Note_on_c, 0, 38, 110
1, 141023, Note_on_c, 0, 50, 110
1, 141026, Control_c, 0, 64, 127
1, 141029, Note_on_c, 0, 62, 92
1, 141037, Note_on_c, 0, 26, 80
1, 141059, Note_on_c, 0, 52, 41
1, 141060, Note_off_c, 0, 52, 127
1, 141063, Note_off_c, 0, 26, 60
1, 141063, Note_off_c, 0, 62, 58
1, 141065, Note_off_c, 0, 50, 62
1, 141077, Note_off_c, 0, 38, 64
1, 141129, Note_on_c, 0, 53, 76
1, 141141, Note_on_c, 0, 41, 72
1, 141165, Note_off_c, 0, 53, 63
1, 141176, Note_on_c, 0, 56, 68
1, 141198, Note_off_c, 0, 56, 66
1, 141201, Note_on_c, 0, 44, 69
1, 141203, Note_off_c, 0, 41, 61
1, 141209, Note_on_c, 0, 59, 75
1, 141231, Note_off_c, 0, 59, 67
1, 141246, Note_on_c, 0, 47, 59
1, 141257, Note_off_c, 0, 44, 61
1, 141275, Note_off_c, 0, 47, 66
1, 141285, Note_on_c, 0, 50, 78
1, 141286, Note_on_c, 0, 62, 80
1, 141327, Note_off_c, 0, 62, 63
1, 141333, Note_off_c, 0, 50, 61
1, 141338, Note_on_c, 0, 65, 74
1, 141360, Note_on_c, 0, 53, 72
1, 141370, Note_on_c, 0, 68, 67
1, 141385, Note_off_c, 0, 65, 61
1, 141393, Note_off_c, 0, 68, 64
1, 141395, Note_on_c, 0, 71, 73
1, 141399, Note_on_c, 0, 56, 73
1, 141407, Note_off_c, 0, 53, 64
1, 141430, Note_on_c, 0, 59, 61
1, 141434, Note_off_c, 0, 71, 65
1, 141436, Note_off_c, 0, 56, 62
1, 141447, Note_off_c, 0, 59, 67
1, 141479, Note_on_c, 0, 62, 74
1, 141490, Note_on_c, 0, 74, 67
1, 141517, Note_off_c, 0, 74, 63
1, 141520, Note_off_c, 0, 62, 60
1, 141535, Note_on_c, 0, 77, 58
1, 141541, Note_on_c, 0, 80, 73
1, 141553, Note_on_c, 0, 65, 68
1, 141560, Note_off_c, 0, 77, 63
1, 141562, Note_on_c, 0, 83, 72
1, 141562, Control_c, 0, 64, 96
1, 141574, Note_off_c, 0, 80, 63
1, 141576, Control_c, 0, 64, 53
1, 141591, Control_c, 0, 64, 24
1, 141598, Note_on_c, 0, 67, 65
1, 141598, Note_off_c, 0, 65, 65
1, 141606, Control_c, 0, 64, 38
1, 141610, Note_off_c, 0, 83, 63
1, 141620, Control_c, 0, 64, 61
1, 141622, Note_on_c, 0, 71, 61
1, 141622, Note_off_c, 0, 67, 68
1, 141635, Control_c, 0, 64, 127
1, 141642, Note_off_c, 0, 71, 65
1, 141658, Note_on_c, 0, 74, 94
1, 141668, Note_on_c, 0, 86, 86
1, 141688, Note_off_c, 0, 86, 68
1, 141694, Note_off_c, 0, 74, 72
1, 141711, Note_on_c, 0, 73, 84
1, 141762, Note_off_c, 0, 73, 62
1, 141777, Note_on_c, 0, 72, 83
1, 141781, Note_on_c, 0, 84, 80
1, 141800, Note_off_c, 0, 72, 67
1, 141802, Note_off_c, 0, 84, 69
1, 141823, Note_on_c, 0, 71, 84
1, 141849, Note_off_c, 0, 71, 65
1, 141878, Note_on_c, 0, 70, 93
1, 141881, Note_on_c, 0, 82, 82
1, 141902, Note_off_c, 0, 82, 67
1, 141907, Note_off_c, 0, 70, 61
1, 141923, Note_on_c, 0, 69, 94
1, 141956, Note_off_c, 0, 69, 64
1, 141979, Note_on_c, 0, 68, 94
1, 141983, Note_on_c, 0, 80, 83
1, 142001, Note_off_c, 0, 68, 62
1, 142006, Note_off_c, 0, 80, 65
1, 142026, Note_on_c, 0, 67, 101
1, 142060, Note_off_c, 0, 67, 68
1, 142084, Note_on_c, 0, 66, 89
1, 142085, Note_on_c, 0, 78, 88
1, 142109, Note_on_c, 0, 68, 47
1, 142128, Note_off_c, 0, 66, 63
1, 142128, Note_off_c, 0, 78, 59
1, 142133, Note_on_c, 0, 65, 98
1, 142137, Note_off_c, 0, 68, 37
1, 142166, Note_off_c, 0, 65, 68
1, 142199, Note_on_c, 0, 64, 86
1, 142201, Note_on_c, 0, 76, 76
1, 142226, Note_off_c, 0, 64, 63
1, 142227, Note_on_c, 0, 65, 33
1, 142242, Note_off_c, 0, 76, 62
1, 142251, Note_on_c, 0, 63, 99
1, 142254, Note_off_c, 0, 65, 63
1, 142283, Note_off_c, 0, 63, 68
1, 142309, Note_on_c, 0, 62, 97
1, 142314, Note_on_c, 0, 74, 83
1, 142343, Note_off_c, 0, 74, 62
1, 142348, Note_off_c, 0, 62, 64
1, 142358, Note_on_c, 0, 61, 103
1, 142391, Note_off_c, 0, 61, 71
1, 142413, Note_on_c, 0, 60, 99
1, 142418, Note_on_c, 0, 72, 92
1, 142441, Note_on_c, 0, 70, 59
1, 142446, Note_off_c, 0, 60, 67
1, 142469, Note_off_c, 0, 70, 61
1, 142475, Note_off_c, 0, 72, 65
1, 142476, Note_on_c, 0, 59, 110
1, 142501, Note_off_c, 0, 59, 73
1, 142569, Control_c, 0, 64, 76
1, 142584, Control_c, 0, 64, 47
1, 142598, Control_c, 0, 64, 0
1, 142775, Control_c, 0, 64, 57
1, 142777, Note_on_c, 0, 77, 109
1, 142778, Note_on_c, 0, 65, 104
1, 142781, Note_on_c, 0, 89, 101
1, 142783, Note_on_c, 0, 53, 90
1, 142790, Control_c, 0, 64, 127
1, 142805, Note_off_c, 0, 53, 71
1, 142808, Note_off_c, 0, 65, 69
1, 142811, Note_off_c, 0, 89, 68
1, 142813, Note_off_c, 0, 77, 68
1, 142910, Control_c, 0, 64, 64
1, 142925, Control_c, 0, 64, 20
1, 142939, Control_c, 0, 64, 0
1, 143162, Control_c, 0, 64, 57
1, 143175, Note_on_c, 0, 41, 108
1, 143176, Note_on_c, 0, 53, 102
1, 143177, Control_c, 0, 64, 127
1, 143181, Note_on_c, 0, 29, 92
1, 143184, Note_on_c, 0, 65, 77
1, 143201, Note_off_c, 0, 29, 67
1, 143207, Note_off_c, 0, 65, 64
1, 143227, Note_on_c, 0, 63, 10
1, 143242, Note_off_c, 0, 53, 61
1, 143245, Note_off_c, 0, 41, 61
1, 143266, Note_off_c, 0, 63, 50
1, 143282, Note_on_c, 0, 56, 68
1, 143310, Note_on_c, 0, 44, 77
1, 143314, Note_off_c, 0, 56, 68
1, 143327, Note_on_c, 0, 59, 62
1, 143362, Note_off_c, 0, 59, 63
1, 143368, Note_on_c, 0, 62, 76
1, 143373, Note_on_c, 0, 47, 64
1, 143392, Note_off_c, 0, 62, 69
1, 143407, Note_on_c, 0, 50, 65
1, 143408, Note_off_c, 0, 44, 62
1, 143415, Note_off_c, 0, 47, 63
1, 143438, Note_off_c, 0, 50, 64
1, 143444, Note_on_c, 0, 53, 79
1, 143453, Note_on_c, 0, 65, 68
1, 143477, Note_off_c, 0, 65, 66
1, 143492, Note_off_c, 0, 53, 66
1, 143494, Note_on_c, 0, 68, 75
1, 143519, Note_off_c, 0, 68, 67
1, 143531, Note_on_c, 0, 56, 70
1, 143532, Note_on_c, 0, 71, 63
1, 143563, Note_on_c, 0, 74, 72
1, 143573, Note_off_c, 0, 71, 65
1, 143580, Note_on_c, 0, 59, 57
1, 143592, Note_on_c, 0, 62, 74
1, 143592, Note_off_c, 0, 56, 65
1, 143597, Note_off_c, 0, 74, 62
1, 143601, Note_off_c, 0, 59, 61
1, 143623, Note_off_c, 0, 62, 65
1, 143649, Note_on_c, 0, 65, 69
1, 143652, Note_on_c, 0, 77, 76
1, 143674, Note_off_c, 0, 65, 69
1, 143686, Note_off_c, 0, 77, 51
1, 143693, Note_on_c, 0, 80, 68
1, 143717, Note_on_c, 0, 83, 64
1, 143718, Note_on_c, 0, 68, 79
1, 143732, Note_off_c, 0, 80, 61
1, 143744, Note_on_c, 0, 86, 71
1, 143748, Control_c, 0, 64, 87
1, 143750, Note_off_c, 0, 83, 66
1, 143755, Note_on_c, 0, 71, 68
1, 143762, Control_c, 0, 64, 58
1, 143772, Note_off_c, 0, 86, 63
1, 143777, Control_c, 0, 64, 47
1, 143791, Note_on_c, 0, 74, 73
1, 143791, Note_off_c, 0, 68, 62
1, 143792, Control_c, 0, 64, 54
1, 143807, Control_c, 0, 64, 72
1, 143808, Note_off_c, 0, 71, 63
1, 143816, Note_off_c, 0, 74, 69
1, 143822, Control_c, 0, 64, 127
1, 143842, Note_on_c, 0, 77, 92
1, 143849, Note_on_c, 0, 89, 88
1, 143867, Note_off_c, 0, 89, 73
1, 143877, Note_off_c, 0, 77, 64
1, 143895, Note_on_c, 0, 76, 91
1, 143918, Note_off_c, 0, 76, 68
1, 143949, Note_on_c, 0, 75, 94
1, 143953, Note_on_c, 0, 87, 82
1, 143980, Note_off_c, 0, 87, 75
1, 143987, Note_off_c, 0, 75, 63
1, 144008, Note_on_c, 0, 74, 90
1, 144032, Note_off_c, 0, 74, 65
1, 144057, Note_on_c, 0, 73, 91
1, 144062, Note_on_c, 0, 85, 84
1, 144095, Note_off_c, 0, 85, 56
1, 144098, Note_off_c, 0, 73, 65
1, 144100, Note_on_c, 0, 74, 67
1, 144110, Note_on_c, 0, 72, 65
1, 144119, Note_off_c, 0, 74, 66
1, 144128, Note_off_c, 0, 72, 64
1, 144164, Note_on_c, 0, 83, 83
1, 144167, Note_on_c, 0, 71, 83
1, 144190, Note_off_c, 0, 71, 69
1, 144204, Note_off_c, 0, 83, 63
1, 144205, Note_on_c, 0, 70, 98
1, 144205, Note_on_c, 0, 72, 29
1, 144237, Note_off_c, 0, 72, 53
1, 144240, Note_off_c, 0, 70, 65
1, 144266, Note_on_c, 0, 69, 97
1, 144270, Note_on_c, 0, 81, 91
1, 144300, Note_off_c, 0, 69, 68
1, 144304, Note_off_c, 0, 81, 60
1, 144309, Note_on_c, 0, 68, 102
1, 144343, Note_off_c, 0, 68, 65
1, 144373, Note_on_c, 0, 67, 104
1, 144380, Note_on_c, 0, 79, 88
1, 144407, Note_off_c, 0, 67, 70
1, 144407, Note_off_c, 0, 79, 61
1, 144413, Note_on_c, 0, 66, 108
1, 144453, Note_off_c, 0, 66, 67
1, 144481, Note_on_c, 0, 65, 99
1, 144488, Note_on_c, 0, 77, 95
1, 144516, Note_off_c, 0, 65, 70
1, 144519, Note_off_c, 0, 77, 59
1, 144534, Note_on_c, 0, 64, 101
1, 144565, Poly_aftertouch_c, 0, 75, 0
1, 144569, Note_off_c, 0, 64, 64
1, 144577, Note_on_c, 0, 63, 104
1, 144579, Note_on_c, 0, 75, 36
1, 144611, Note_off_c, 0, 63, 67
1, 144625, Note_off_c, 0, 75, 65
1, 144626, Note_on_c, 0, 73, 27
1, 144635, Note_on_c, 0, 62, 106
1, 144661, Note_off_c, 0, 62, 70
1, 144666, Note_off_c, 0, 73, 57
1, 144741, Control_c, 0, 64, 62
1, 144756, Control_c, 0, 64, 29
1, 144771, Control_c, 0, 64, 0
1, 144945, Note_on_c, 0, 80, 110
1, 144948, Control_c, 0, 64, 82
1, 144951, Note_on_c, 0, 68, 105
1, 144953, Note_on_c, 0, 92, 103
1, 144954, Note_on_c, 0, 56, 98
1, 144963, Control_c, 0, 64, 127
1, 144966, Note_off_c, 0, 92, 76
1, 144972, Note_off_c, 0, 68, 60
1, 144977, Note_off_c, 0, 56, 68
1, 144978, Note_off_c, 0, 80, 68
1, 145097, Control_c, 0, 64, 69
1, 145111, Control_c, 0, 64, 37
1, 145126, Control_c, 0, 64, 0
1, 145321, Control_c, 0, 64, 58
1, 145334, Note_on_c, 0, 56, 114
1, 145335, Control_c, 0, 64, 127
1, 145341, Note_on_c, 0, 44, 112
1, 145347, Note_on_c, 0, 32, 83
1, 145350, Note_on_c, 0, 68, 75
1, 145368, Note_off_c, 0, 32, 68
1, 145370, Note_off_c, 0, 68, 62
1, 145380, Note_on_c, 0, 66, 36
1, 145387, Note_off_c, 0, 44, 62
1, 145392, Note_off_c, 0, 56, 63
1, 145411, Note_off_c, 0, 66, 55
1, 145484, Note_on_c, 0, 59, 59
1, 145503, Note_on_c, 0, 47, 53
1, 145503, Note_on_c, 0, 48, 58
1, 145509, Note_off_c, 0, 59, 60
1, 145527, Note_on_c, 0, 62, 68
1, 145533, Note_off_c, 0, 47, 66
1, 145549, Note_off_c, 0, 48, 63
1, 145555, Note_off_c, 0, 62, 66
1, 145563, Note_on_c, 0, 52, 49
1, 145592, Note_off_c, 0, 52, 57
1, 145602, Note_on_c, 0, 65, 71
1, 145613, Note_on_c, 0, 55, 60
1, 145628, Note_on_c, 0, 50, 10
1, 145634, Note_off_c, 0, 65, 64
1, 145647, Note_on_c, 0, 68, 76
1, 145647, Note_off_c, 0, 55, 66
1, 145661, Note_off_c, 0, 50, 35
1, 145673, Note_off_c, 0, 68, 66
1, 145687, Note_on_c, 0, 71, 65
1, 145694, Note_on_c, 0, 57, 64
1, 145729, Note_on_c, 0, 74, 68
1, 145732, Note_on_c, 0, 60, 61
1, 145732, Note_off_c, 0, 71, 66
1, 145753, Note_off_c, 0, 74, 69
1, 145754, Note_off_c, 0, 57, 52
1, 145764, Note_off_c, 0, 60, 65
1, 145771, Note_on_c, 0, 62, 64
1, 145793, Note_off_c, 0, 62, 63
1, 145802, Note_on_c, 0, 77, 82
1, 145818, Note_on_c, 0, 67, 72
1, 145821, Poly_aftertouch_c, 0, 64, 127
1, 145842, Note_off_c, 0, 67, 70
1, 145853, Note_on_c, 0, 80, 77
1, 145855, Note_off_c, 0, 77, 58
1, 145862, Poly_aftertouch_c, 0, 64, 0
1, 145890, Note_on_c, 0, 83, 65
1, 145894, Note_off_c, 0, 80, 57
1, 145917, Note_on_c, 0, 86, 76
1, 145923, Note_on_c, 0, 72, 56
1, 145932, Note_off_c, 0, 83, 65
1, 145950, Control_c, 0, 64, 73
1, 145953, Note_on_c, 0, 74, 66
1, 145965, Control_c, 0, 64, 54
1, 145965, Note_off_c, 0, 86, 63
1, 145968, Note_off_c, 0, 72, 54
1, 145979, Note_off_c, 0, 74, 70
1, 145980, Control_c, 0, 64, 49
1, 145994, Control_c, 0, 64, 62
1, 146009, Note_on_c, 0, 79, 66
1, 146009, Control_c, 0, 64, 127
1, 146027, Note_off_c, 0, 79, 64
1, 146045, Note_on_c, 0, 80, 87
1, 146048, Note_on_c, 0, 92, 88
1, 146064, Note_off_c, 0, 92, 74
1, 146068, Note_off_c, 0, 80, 64
1, 146099, Note_on_c, 0, 79, 75
1, 146132, Note_off_c, 0, 79, 62
1, 146150, Note_on_c, 0, 78, 95
1, 146155, Note_on_c, 0, 90, 80
1, 146174, Note_off_c, 0, 90, 72
1, 146180, Note_off_c, 0, 78, 61
1, 146199, Note_on_c, 0, 77, 90
1, 146223, Note_off_c, 0, 77, 73
1, 146257, Note_on_c, 0, 76, 89
1, 146265, Note_on_c, 0, 88, 79
1, 146275, Note_off_c, 0, 76, 72
1, 146296, Note_off_c, 0, 88, 64
1, 146333, Note_on_c, 0, 74, 75
1, 146349, Note_off_c, 0, 74, 71
1, 146370, Note_on_c, 0, 83, 90
1, 146374, Note_on_c, 0, 95, 91
1, 146397, Note_off_c, 0, 95, 68
1, 146403, Note_off_c, 0, 83, 64
1, 146435, Note_on_c, 0, 82, 93
1, 146465, Note_off_c, 0, 82, 61
1, 146471, Note_on_c, 0, 81, 99
1, 146475, Poly_aftertouch_c, 0, 84, 0
1, 146479, Note_on_c, 0, 93, 88
1, 146502, Note_off_c, 0, 93, 63
1, 146504, Note_off_c, 0, 81, 64
1, 146528, Note_on_c, 0, 80, 95
1, 146563, Note_off_c, 0, 80, 64
1, 146567, Note_on_c, 0, 79, 89
1, 146580, Note_on_c, 0, 91, 74
1, 146587, Note_off_c, 0, 79, 68
1, 146604, Note_off_c, 0, 91, 65
1, 146626, Note_on_c, 0, 78, 93
1, 146645, Note_off_c, 0, 78, 69
1, 146675, Note_on_c, 0, 86, 107
1, 146681, Note_on_c, 0, 98, 96
1, 146704, Note_off_c, 0, 98, 62
1, 146706, Note_off_c, 0, 86, 68
1, 146710, Note_on_c, 0, 97, 41
1, 146711, Note_off_c, 0, 97, 127
1, 146734, Note_on_c, 0, 85, 99
1, 146761, Note_off_c, 0, 85, 65
1, 146777, Note_on_c, 0, 84, 91
1, 146788, Note_on_c, 0, 96, 89
1, 146804, Note_off_c, 0, 96, 72
1, 146813, Note_off_c, 0, 84, 67
1, 146838, Note_on_c, 0, 83, 94
1, 146871, Note_off_c, 0, 83, 65
1, 146874, Note_on_c, 0, 82, 96
1, 146878, Note_on_c, 0, 94, 80
1, 146892, Control_c, 0, 64, 67
1, 146906, Note_off_c, 0, 82, 60
1, 146907, Control_c, 0, 64, 0
1, 146913, Note_off_c, 0, 94, 64
1, 146945, Note_on_c, 0, 80, 106
1, 146974, Control_c, 0, 64, 38
1, 146979, Note_off_c, 0, 80, 68
1, 146988, Control_c, 0, 64, 104
1, 147003, Control_c, 0, 64, 127
1, 147008, Note_on_c, 0, 89, 105
1, 147011, Note_on_c, 0, 101, 103
1, 147039, Note_off_c, 0, 89, 69
1, 147041, Note_off_c, 0, 101, 69
1, 147066, Note_on_c, 0, 88, 98
1, 147098, Note_off_c, 0, 88, 65
1, 147115, Note_on_c, 0, 87, 92
1, 147118, Note_on_c, 0, 99, 81
1, 147137, Note_off_c, 0, 99, 72
1, 147139, Note_off_c, 0, 87, 66
1, 147172, Note_on_c, 0, 86, 88
1, 147189, Note_off_c, 0, 86, 70
1, 147214, Note_on_c, 0, 85, 87
1, 147222, Note_on_c, 0, 97, 73
1, 147233, Note_off_c, 0, 85, 67
1, 147244, Note_off_c, 0, 97, 70
1, 147258, Note_on_c, 0, 84, 65
1, 147285, Note_off_c, 0, 84, 68
1, 147318, Note_on_c, 0, 83, 86
1, 147318, Note_on_c, 0, 95, 88
1, 147340, Note_off_c, 0, 83, 67
1, 147348, Note_off_c, 0, 95, 63
1, 147373, Note_on_c, 0, 82, 91
1, 147407, Note_off_c, 0, 82, 59
1, 147422, Note_on_c, 0, 81, 94
1, 147428, Note_on_c, 0, 93, 82
1, 147442, Note_off_c, 0, 81, 69
1, 147446, Note_off_c, 0, 93, 70
1, 147473, Note_on_c, 0, 80, 91
1, 147503, Note_off_c, 0, 80, 60
1, 147521, Note_on_c, 0, 79, 88
1, 147527, Note_on_c, 0, 91, 85
1, 147544, Note_off_c, 0, 79, 65
1, 147546, Note_off_c, 0, 91, 66
1, 147573, Note_on_c, 0, 78, 95
1, 147609, Note_off_c, 0, 78, 66
1, 147625, Note_on_c, 0, 77, 104
1, 147628, Note_on_c, 0, 89, 90
1, 147654, Note_off_c, 0, 77, 64
1, 147658, Note_off_c, 0, 89, 62
1, 147685, Note_on_c, 0, 76, 94
1, 147711, Note_off_c, 0, 76, 71
1, 147735, Note_on_c, 0, 75, 94
1, 147742, Note_on_c, 0, 87, 80
1, 147759, Note_off_c, 0, 75, 65
1, 147763, Note_off_c, 0, 87, 70
1, 147793, Note_on_c, 0, 74, 92
1, 147816, Note_off_c, 0, 74, 66
1, 147837, Note_on_c, 0, 73, 89
1, 147846, Note_on_c, 0, 85, 71
1, 147869, Note_off_c, 0, 85, 69
1, 147870, Note_off_c, 0, 73, 57
1, 147892, Note_on_c, 0, 72, 78
1, 147911, Note_off_c, 0, 72, 72
1, 147944, Note_on_c, 0, 71, 90
1, 147946, Note_on_c, 0, 83, 82
1, 147967, Note_off_c, 0, 71, 68
1, 147976, Note_off_c, 0, 83, 62
1, 147999, Note_on_c, 0, 70, 87
1, 148023, Note_off_c, 0, 70, 63
1, 148045, Note_on_c, 0, 69, 86
1, 148053, Note_on_c, 0, 81, 80
1, 148068, Note_off_c, 0, 69, 68
1, 148073, Note_off_c, 0, 81, 72
1, 148095, Note_on_c, 0, 68, 92
1, 148133, Note_off_c, 0, 68, 61
1, 148143, Note_on_c, 0, 67, 95
1, 148158, Note_on_c, 0, 79, 72
1, 148176, Note_off_c, 0, 67, 65
1, 148180, Note_off_c, 0, 79, 66
1, 148199, Note_on_c, 0, 66, 99
1, 148227, Note_off_c, 0, 66, 61
1, 148247, Note_on_c, 0, 65, 96
1, 148255, Note_on_c, 0, 77, 93
1, 148275, Note_off_c, 0, 77, 68
1, 148278, Note_on_c, 0, 75, 48
1, 148279, Note_off_c, 0, 65, 67
1, 148305, Note_off_c, 0, 75, 57
1, 148307, Note_on_c, 0, 64, 96
1, 148338, Note_off_c, 0, 64, 63
1, 148353, Note_on_c, 0, 63, 95
1, 148372, Note_on_c, 0, 75, 72
1, 148385, Note_off_c, 0, 63, 65
1, 148388, Note_off_c, 0, 75, 67
1, 148409, Note_on_c, 0, 62, 100
1, 148442, Note_off_c, 0, 62, 66
1, 148466, Note_on_c, 0, 61, 89
1, 148470, Note_on_c, 0, 73, 64
1, 148501, Note_off_c, 0, 61, 63
1, 148502, Note_off_c, 0, 73, 67
1, 148516, Note_on_c, 0, 60, 94
1, 148540, Note_off_c, 0, 60, 67
1, 148579, Note_on_c, 0, 71, 72
1, 148580, Note_on_c, 0, 59, 82
1, 148602, Note_off_c, 0, 59, 69
1, 148609, Note_off_c, 0, 71, 66
1, 148629, Note_on_c, 0, 58, 99
1, 148664, Note_off_c, 0, 58, 66
1, 148677, Note_on_c, 0, 57, 93
1, 148683, Note_on_c, 0, 69, 79
1, 148721, Note_off_c, 0, 57, 62
1, 148725, Note_off_c, 0, 69, 61
1, 148734, Note_on_c, 0, 56, 119
1, 148753, Note_off_c, 0, 56, 71
1, 148797, Control_c, 0, 64, 62
1, 148797, Control_c, 0, 67, 55
1, 148812, Control_c, 0, 64, 0
1, 148812, Control_c, 0, 67, 127
1, 148829, Note_on_c, 0, 68, 66
1, 148832, Note_on_c, 0, 56, 68
1, 148849, Note_off_c, 0, 68, 61
1, 148850, Note_off_c, 0, 56, 68
1, 148919, Note_on_c, 0, 56, 78
1, 148923, Note_on_c, 0, 68, 65
1, 148948, Note_off_c, 0, 56, 64
1, 148952, Note_off_c, 0, 68, 55
1, 149026, Note_on_c, 0, 68, 68
1, 149026, Note_on_c, 0, 56, 70
1, 149053, Note_off_c, 0, 68, 59
1, 149053, Note_off_c, 0, 56, 67
1, 149125, Note_on_c, 0, 56, 68
1, 149128, Note_on_c, 0, 68, 63
1, 149150, Note_off_c, 0, 56, 68
1, 149150, Note_off_c, 0, 68, 60
1, 149236, Note_on_c, 0, 56, 63
1, 149236, Note_on_c, 0, 68, 58
1, 149257, Note_off_c, 0, 56, 66
1, 149259, Note_off_c, 0, 68, 59
1, 149338, Note_on_c, 0, 56, 66
1, 149338, Note_on_c, 0, 68, 60
1, 149360, Note_off_c, 0, 56, 67
1, 149363, Note_off_c, 0, 68, 61
1, 149441, Note_on_c, 0, 56, 61
1, 149441, Note_on_c, 0, 68, 58
1, 149462, Note_off_c, 0, 56, 66
1, 149464, Note_off_c, 0, 68, 59
1, 149540, Note_on_c, 0, 68, 57
1, 149541, Note_on_c, 0, 56, 60
1, 149567, Note_off_c, 0, 68, 55
1, 149570, Note_off_c, 0, 56, 66
1, 149646, Note_on_c, 0, 56, 63
1, 149647, Note_on_c, 0, 59, 53
1, 149649, Note_on_c, 0, 62, 64
1, 149649, Note_on_c, 0, 50, 61
1, 149652, Note_on_c, 0, 68, 47
1, 149665, Note_off_c, 0, 56, 66
1, 149673, Note_off_c, 0, 59, 61
1, 149674, Note_off_c, 0, 62, 65
1, 149679, Note_off_c, 0, 68, 53
1, 149685, Note_off_c, 0, 50, 63
1, 149746, Note_on_c, 0, 56, 70
1, 149748, Note_on_c, 0, 68, 65
1, 149780, Note_off_c, 0, 56, 63
1, 149782, Note_off_c, 0, 68, 59
1, 149855, Note_on_c, 0, 56, 63
1, 149864, Note_on_c, 0, 68, 58
1, 149885, Note_off_c, 0, 56, 67
1, 149888, Note_off_c, 0, 68, 58
1, 149931, Control_c, 0, 64, 46
1, 149939, Note_on_c, 0, 44, 47
1, 149941, Note_on_c, 0, 51, 68
1, 149946, Control_c, 0, 64, 74
1, 149947, Note_on_c, 0, 56, 85
1, 149959, Note_on_c, 0, 68, 75
1, 149967, Note_on_c, 0, 63, 63
1, 149968, Control_c, 0, 64, 127
1, 149977, Note_off_c, 0, 44, 51
1, 149983, Control_c, 0, 64, 75
1, 149983, Note_off_c, 0, 51, 65
1, 149986, Note_on_c, 0, 59, 44
1, 149995, Note_off_c, 0, 63, 67
1, 149998, Control_c, 0, 64, 59
1, 149998, Note_off_c, 0, 68, 57
1, 150000, Note_off_c, 0, 56, 63
1, 150011, Note_off_c, 0, 59, 56
1, 150013, Control_c, 0, 64, 32
1, 150028, Control_c, 0, 64, 0
1, 150057, Note_on_c, 0, 56, 68
1, 150074, Note_on_c, 0, 68, 50
1, 150097, Note_off_c, 0, 56, 57
1, 150097, Note_off_c, 0, 68, 58
1, 150160, Note_on_c, 0, 68, 69
1, 150162, Note_on_c, 0, 56, 63
1, 150186, Note_off_c, 0, 68, 67
1, 150187, Note_off_c, 0, 56, 68
1, 150257, Note_on_c, 0, 59, 68
1, 150260, Note_on_c, 0, 53, 44
1, 150263, Note_on_c, 0, 62, 47
1, 150263, Note_on_c, 0, 65, 62
1, 150277, Note_on_c, 0, 71, 50
1, 150283, Note_off_c, 0, 65, 68
1, 150284, Note_off_c, 0, 59, 67
1, 150286, Note_off_c, 0, 53, 59
1, 150289, Note_off_c, 0, 62, 58
1, 150299, Note_off_c, 0, 71, 63
1, 150359, Note_on_c, 0, 59, 68
1, 150370, Note_on_c, 0, 71, 59
1, 150386, Note_off_c, 0, 59, 66
1, 150388, Note_off_c, 0, 71, 66
1, 150455, Note_on_c, 0, 59, 70
1, 150462, Note_on_c, 0, 47, 46
1, 150463, Note_on_c, 0, 71, 54
1, 150482, Note_off_c, 0, 59, 65
1, 150487, Note_off_c, 0, 71, 60
1, 150531, Note_off_c, 0, 47, 63
1, 150546, Note_on_c, 0, 54, 19
1, 150558, Note_on_c, 0, 62, 79
1, 150560, Note_on_c, 0, 60, 63
1, 150561, Control_c, 0, 64, 51
1, 150564, Note_on_c, 0, 53, 50
1, 150564, Note_on_c, 0, 66, 77
1, 150564, Note_on_c, 0, 59, 78
1, 150566, Note_on_c, 0, 71, 59
1, 150576, Control_c, 0, 64, 77
1, 150585, Note_off_c, 0, 62, 67
1, 150587, Note_off_c, 0, 60, 68
1, 150588, Note_off_c, 0, 53, 60
1, 150588, Note_off_c, 0, 66, 68
1, 150591, Control_c, 0, 64, 127
1, 150595, Note_off_c, 0, 59, 57
1, 150595, Note_off_c, 0, 71, 58
1, 150621, Note_off_c, 0, 54, 38
1, 150669, Note_on_c, 0, 59, 69
1, 150680, Note_on_c, 0, 71, 50
1, 150697, Note_off_c, 0, 59, 65
1, 150707, Note_off_c, 0, 71, 63
1, 150731, Control_c, 0, 64, 78
1, 150746, Control_c, 0, 64, 60
1, 150761, Control_c, 0, 64, 32
1, 150764, Note_on_c, 0, 59, 75
1, 150776, Control_c, 0, 64, 0
1, 150782, Note_on_c, 0, 71, 54
1, 150803, Note_off_c, 0, 59, 61
1, 150806, Note_off_c, 0, 71, 59
1, 150873, Note_on_c, 0, 59, 63
1, 150875, Note_on_c, 0, 71, 63
1, 150900, Note_off_c, 0, 71, 63
1, 150903, Note_off_c, 0, 59, 65
1, 150972, Note_on_c, 0, 59, 69
1, 150976, Note_on_c, 0, 71, 60
1, 151000, Note_off_c, 0, 59, 63
1, 151007, Note_off_c, 0, 71, 65
1, 151074, Note_on_c, 0, 59, 69
1, 151089, Note_on_c, 0, 71, 62
1, 151099, Note_off_c, 0, 59, 66
1, 151107, Note_off_c, 0, 71, 66
1, 151167, Note_on_c, 0, 59, 71
1, 151174, Note_on_c, 0, 71, 69
1, 151198, Note_off_c, 0, 59, 63
1, 151203, Note_off_c, 0, 71, 63
1, 151277, Note_on_c, 0, 59, 70
1, 151286, Note_on_c, 0, 71, 63
1, 151304, Note_off_c, 0, 59, 65
1, 151310, Note_off_c, 0, 71, 62
1, 151369, Note_on_c, 0, 59, 67
1, 151384, Note_on_c, 0, 71, 58
1, 151398, Note_off_c, 0, 59, 64
1, 151405, Note_off_c, 0, 71, 66
1, 151473, Note_on_c, 0, 59, 81
1, 151477, Note_on_c, 0, 62, 64
1, 151478, Note_on_c, 0, 65, 77
1, 151479, Note_on_c, 0, 53, 59
1, 151485, Note_on_c, 0, 71, 64
1, 151499, Note_off_c, 0, 62, 66
1, 151500, Note_off_c, 0, 59, 62
1, 151502, Note_off_c, 0, 65, 70
1, 151506, Note_off_c, 0, 71, 64
1, 151512, Note_off_c, 0, 53, 66
1, 151580, Note_on_c, 0, 59, 76
1, 151581, Note_on_c, 0, 71, 66
1, 151614, Note_off_c, 0, 59, 57
1, 151622, Note_off_c, 0, 71, 56
1, 151682, Note_on_c, 0, 59, 72
1, 151689, Note_on_c, 0, 71, 55
1, 151704, Note_on_c, 0, 47, 62
1, 151709, Note_off_c, 0, 59, 64
1, 151721, Note_off_c, 0, 71, 67
1, 151752, Note_off_c, 0, 47, 64
1, 151754, Note_on_c, 0, 54, 62
1, 151769, Note_on_c, 0, 59, 85
1, 151780, Note_on_c, 0, 66, 77
1, 151790, Note_on_c, 0, 62, 72
1, 151795, Note_on_c, 0, 71, 56
1, 151804, Note_off_c, 0, 66, 69
1, 151808, Note_off_c, 0, 54, 65
1, 151810, Note_off_c, 0, 59, 67
1, 151813, Note_off_c, 0, 62, 66
1, 151816, Note_off_c, 0, 71, 64
1, 151879, Note_on_c, 0, 59, 76
1, 151881, Note_on_c, 0, 71, 73
1, 151904, Note_off_c, 0, 59, 65
1, 151924, Note_off_c, 0, 71, 63
1, 151995, Note_on_c, 0, 71, 39
1, 151997, Note_on_c, 0, 59, 42
1, 152025, Note_off_c, 0, 71, 58
1, 152027, Note_off_c, 0, 59, 55
1, 152056, Note_on_c, 0, 56, 61
1, 152066, Note_on_c, 0, 62, 76
1, 152070, Note_on_c, 0, 68, 78
1, 152090, Note_off_c, 0, 62, 68
1, 152091, Note_off_c, 0, 68, 68
1, 152094, Note_on_c, 0, 65, 9
1, 152097, Note_off_c, 0, 56, 59
1, 152100, Note_on_c, 0, 74, 34
1, 152132, Note_off_c, 0, 74, 51
1, 152141, Note_off_c, 0, 65, 28
1, 152165, Note_on_c, 0, 62, 72
1, 152176, Note_on_c, 0, 74, 57
1, 152204, Note_off_c, 0, 62, 62
1, 152218, Note_off_c, 0, 74, 62
1, 152269, Note_on_c, 0, 50, 57
1, 152274, Note_on_c, 0, 62, 69
1, 152277, Note_on_c, 0, 74, 51
1, 152302, Note_off_c, 0, 62, 67
1, 152306, Note_off_c, 0, 50, 58
1, 152312, Note_on_c, 0, 57, 62
1, 152313, Note_off_c, 0, 74, 65
1, 152349, Control_c, 0, 64, 22
1, 152358, Note_on_c, 0, 65, 88
1, 152359, Note_on_c, 0, 62, 81
1, 152363, Control_c, 0, 64, 59
1, 152368, Note_off_c, 0, 57, 63
1, 152371, Note_on_c, 0, 69, 54
1, 152374, Note_on_c, 0, 74, 58
1, 152378, Control_c, 0, 64, 127
1, 152382, Note_off_c, 0, 65, 70
1, 152395, Note_off_c, 0, 69, 67
1, 152404, Note_off_c, 0, 62, 59
1, 152406, Note_off_c, 0, 74, 63
1, 152477, Note_on_c, 0, 62, 60
1, 152481, Note_on_c, 0, 74, 61
1, 152505, Note_off_c, 0, 62, 57
1, 152514, Note_off_c, 0, 74, 61
1, 152573, Note_on_c, 0, 62, 75
1, 152576, Note_on_c, 0, 74, 47
1, 152600, Note_off_c, 0, 62, 58
1, 152617, Note_off_c, 0, 74, 63
1, 152676, Note_on_c, 0, 62, 69
1, 152681, Note_on_c, 0, 74, 48
1, 152705, Control_c, 0, 64, 117
1, 152708, Note_off_c, 0, 62, 62
1, 152720, Note_off_c, 0, 74, 61
1, 152720, Control_c, 0, 64, 113
1, 152734, Control_c, 0, 64, 108
1, 152749, Control_c, 0, 64, 100
1, 152764, Control_c, 0, 64, 87
1, 152776, Note_on_c, 0, 62, 71
1, 152779, Control_c, 0, 64, 73
1, 152788, Note_on_c, 0, 74, 43
1, 152794, Control_c, 0, 64, 62
1, 152806, Note_off_c, 0, 62, 63
1, 152809, Control_c, 0, 64, 46
1, 152815, Note_off_c, 0, 74, 62
1, 152824, Control_c, 0, 64, 15
1, 152839, Control_c, 0, 64, 0
1, 152868, Control_c, 0, 64, 10
1, 152881, Note_on_c, 0, 62, 66
1, 152883, Control_c, 0, 64, 28
1, 152895, Note_on_c, 0, 74, 54
1, 152898, Control_c, 0, 64, 38
1, 152910, Note_off_c, 0, 62, 66
1, 152913, Control_c, 0, 64, 45
1, 152919, Note_off_c, 0, 74, 66
1, 152927, Control_c, 0, 64, 51
1, 152942, Control_c, 0, 64, 57
1, 152964, Control_c, 0, 64, 61
1, 152976, Note_on_c, 0, 62, 76
1, 152979, Control_c, 0, 64, 65
1, 152994, Control_c, 0, 64, 67
1, 152998, Note_on_c, 0, 74, 62
1, 153009, Control_c, 0, 64, 68
1, 153015, Note_off_c, 0, 62, 58
1, 153020, Note_off_c, 0, 74, 69
1, 153053, Control_c, 0, 64, 68
1, 153068, Control_c, 0, 64, 67
1, 153076, Note_on_c, 0, 62, 70
1, 153085, Note_on_c, 0, 74, 64
1, 153098, Control_c, 0, 64, 67
1, 153110, Note_off_c, 0, 74, 70
1, 153112, Control_c, 0, 64, 66
1, 153113, Note_off_c, 0, 62, 63
1, 153157, Control_c, 0, 64, 67
1, 153172, Control_c, 0, 64, 68
1, 153175, Note_on_c, 0, 62, 61
1, 153185, Note_on_c, 0, 74, 59
1, 153186, Control_c, 0, 64, 69
1, 153193, Note_off_c, 0, 62, 67
1, 153201, Control_c, 0, 64, 71
1, 153210, Note_off_c, 0, 74, 70
1, 153216, Control_c, 0, 64, 70
1, 153231, Control_c, 0, 64, 64
1, 153246, Control_c, 0, 64, 53
1, 153260, Control_c, 0, 64, 0
1, 153261, Note_on_c, 0, 59, 62
1, 153261, Note_on_c, 0, 68, 65
1, 153268, Note_on_c, 0, 71, 75
1, 153270, Note_on_c, 0, 65, 75
1, 153279, Note_on_c, 0, 77, 66
1, 153289, Note_off_c, 0, 71, 73
1, 153292, Note_off_c, 0, 59, 62
1, 153293, Note_off_c, 0, 68, 64
1, 153294, Note_off_c, 0, 65, 70
1, 153303, Note_off_c, 0, 77, 60
1, 153358, Note_on_c, 0, 65, 78
1, 153369, Note_on_c, 0, 77, 73
1, 153397, Note_off_c, 0, 77, 63
1, 153404, Note_off_c, 0, 65, 65
1, 153457, Note_on_c, 0, 53, 61
1, 153462, Note_on_c, 0, 65, 65
1, 153471, Note_on_c, 0, 77, 61
1, 153489, Note_off_c, 0, 65, 67
1, 153495, Note_off_c, 0, 77, 62
1, 153502, Note_off_c, 0, 53, 62
1, 153511, Note_on_c, 0, 60, 65
1, 153517, Note_on_c, 0, 56, 38
1, 153542, Control_c, 0, 64, 22
1, 153543, Note_off_c, 0, 56, 59
1, 153548, Note_on_c, 0, 65, 87
1, 153554, Note_on_c, 0, 68, 90
1, 153557, Control_c, 0, 64, 48
1, 153560, Note_on_c, 0, 72, 76
1, 153563, Note_on_c, 0, 77, 76
1, 153566, Note_off_c, 0, 60, 64
1, 153572, Note_off_c, 0, 68, 70
1, 153572, Control_c, 0, 64, 62
1, 153579, Note_off_c, 0, 72, 71
1, 153587, Control_c, 0, 64, 70
1, 153588, Note_off_c, 0, 77, 65
1, 153591, Note_off_c, 0, 65, 64
1, 153602, Control_c, 0, 64, 72
1, 153617, Control_c, 0, 64, 73
1, 153650, Note_on_c, 0, 65, 79
1, 153654, Note_on_c, 0, 77, 85
1, 153687, Note_off_c, 0, 65, 62
1, 153709, Note_off_c, 0, 77, 56
1, 153727, Control_c, 0, 64, 73
1, 153758, Note_on_c, 0, 65, 65
1, 153768, Note_on_c, 0, 77, 48
1, 153772, Control_c, 0, 64, 72
1, 153773, Note_off_c, 0, 65, 72
1, 153787, Control_c, 0, 64, 67
1, 153792, Note_off_c, 0, 77, 59
1, 153802, Control_c, 0, 64, 60
1, 153817, Control_c, 0, 64, 47
1, 153831, Control_c, 0, 64, 23
1, 153843, Note_on_c, 0, 68, 63
1, 153846, Control_c, 0, 64, 0
1, 153849, Note_on_c, 0, 62, 56
1, 153861, Note_on_c, 0, 80, 79
1, 153861, Control_c, 0, 64, 18
1, 153866, Note_on_c, 0, 71, 68
1, 153867, Note_on_c, 0, 74, 67
1, 153872, Note_off_c, 0, 68, 59
1, 153876, Control_c, 0, 64, 29
1, 153876, Note_off_c, 0, 62, 62
1, 153883, Note_off_c, 0, 80, 64
1, 153889, Note_off_c, 0, 71, 63
1, 153889, Note_off_c, 0, 74, 71
1, 153891, Control_c, 0, 64, 38
1, 153906, Control_c, 0, 64, 44
1, 153921, Control_c, 0, 64, 50
1, 153935, Control_c, 0, 64, 54
1, 153950, Control_c, 0, 64, 57
1, 153953, Note_on_c, 0, 62, 62
1, 153960, Poly_aftertouch_c, 0, 78, 0
1, 153961, Note_on_c, 0, 74, 63
1, 153962, Note_on_c, 0, 71, 51
1, 153965, Note_on_c, 0, 80, 58
1, 153965, Control_c, 0, 64, 58
1, 153975, Note_off_c, 0, 62, 64
1, 153980, Control_c, 0, 64, 58
1, 153980, Note_off_c, 0, 74, 69
1, 153982, Note_off_c, 0, 71, 65
1, 153985, Note_off_c, 0, 80, 60
1, 153995, Control_c, 0, 64, 60
1, 154009, Control_c, 0, 64, 63
1, 154024, Control_c, 0, 64, 66
1, 154028, Poly_aftertouch_c, 0, 68, 127
1, 154031, Note_on_c, 0, 68, 24
1, 154038, Note_on_c, 0, 63, 70
1, 154039, Note_on_c, 0, 56, 66
1, 154039, Control_c, 0, 64, 67
1, 154051, Note_on_c, 0, 80, 68
1, 154054, Control_c, 0, 64, 66
1, 154055, Note_on_c, 0, 75, 63
1, 154062, Note_on_c, 0, 71, 36
1, 154065, Note_off_c, 0, 63, 68
1, 154069, Note_off_c, 0, 56, 66
1, 154069, Control_c, 0, 64, 63
1, 154076, Note_off_c, 0, 75, 66
1, 154077, Note_off_c, 0, 80, 68
1, 154083, Note_off_c, 0, 68, 59
1, 154085, Control_c, 0, 64, 55
1, 154094, Note_off_c, 0, 71, 55
1, 154099, Control_c, 0, 64, 39
1, 154114, Control_c, 0, 64, 11
1, 154129, Control_c, 0, 64, 0
1, 154144, Control_c, 0, 64, 14
1, 154153, Note_on_c, 0, 65, 63
1, 154156, Note_on_c, 0, 74, 70
1, 154157, Note_on_c, 0, 77, 71
1, 154158, Control_c, 0, 64, 23
1, 154162, Note_on_c, 0, 83, 63
1, 154164, Note_on_c, 0, 71, 60
1, 154173, Control_c, 0, 64, 28
1, 154178, Note_off_c, 0, 74, 71
1, 154178, Note_off_c, 0, 77, 68
1, 154180, Note_off_c, 0, 83, 67
1, 154185, Note_off_c, 0, 65, 67
1, 154187, Note_off_c, 0, 71, 65
1, 154188, Control_c, 0, 64, 32
1, 154203, Control_c, 0, 64, 35
1, 154218, Control_c, 0, 64, 39
1, 154232, Control_c, 0, 64, 42
1, 154245, Note_on_c, 0, 65, 63
1, 154247, Note_on_c, 0, 83, 75
1, 154247, Control_c, 0, 64, 45
1, 154251, Note_on_c, 0, 77, 67
1, 154259, Note_on_c, 0, 74, 60
1, 154260, Note_on_c, 0, 71, 60
1, 154262, Control_c, 0, 64, 48
1, 154276, Note_off_c, 0, 77, 68
1, 154277, Control_c, 0, 64, 49
1, 154282, Note_off_c, 0, 65, 65
1, 154282, Note_off_c, 0, 74, 66
1, 154290, Note_off_c, 0, 71, 58
1, 154298, Note_off_c, 0, 83, 62
1, 154321, Control_c, 0, 64, 50
1, 154336, Control_c, 0, 64, 53
1, 154350, Control_c, 0, 64, 56
1, 154351, Note_on_c, 0, 66, 69
1, 154353, Note_on_c, 0, 59, 64
1, 154357, Note_on_c, 0, 78, 72
1, 154365, Control_c, 0, 64, 58
1, 154368, Note_on_c, 0, 83, 39
1, 154368, Note_on_c, 0, 74, 40
1, 154368, Note_off_c, 0, 66, 66
1, 154372, Note_off_c, 0, 78, 70
1, 154374, Note_off_c, 0, 59, 61
1, 154380, Control_c, 0, 64, 60
1, 154385, Note_on_c, 0, 71, 25
1, 154392, Note_off_c, 0, 74, 63
1, 154395, Note_off_c, 0, 83, 58
1, 154395, Control_c, 0, 64, 59
1, 154410, Control_c, 0, 64, 56
1, 154420, Note_off_c, 0, 71, 53
1, 154425, Control_c, 0, 64, 51
1, 154440, Control_c, 0, 64, 40
1, 154458, Note_on_c, 0, 68, 75
1, 154462, Control_c, 0, 64, 26
1, 154466, Note_on_c, 0, 77, 78
1, 154466, Note_on_c, 0, 74, 66
1, 154466, Note_on_c, 0, 80, 75
1, 154468, Note_on_c, 0, 86, 74
1, 154477, Control_c, 0, 64, 13
1, 154483, Note_off_c, 0, 68, 67
1, 154488, Note_off_c, 0, 80, 69
1, 154490, Note_off_c, 0, 77, 68
1, 154492, Control_c, 0, 64, 11
1, 154493, Note_off_c, 0, 86, 63
1, 154493, Note_off_c, 0, 74, 66
1, 154506, Control_c, 0, 64, 14
1, 154521, Control_c, 0, 64, 19
1, 154536, Control_c, 0, 64, 24
1, 154550, Control_c, 0, 64, 27
1, 154555, Note_on_c, 0, 68, 75
1, 154565, Note_on_c, 0, 80, 74
1, 154565, Control_c, 0, 64, 31
1, 154568, Note_on_c, 0, 77, 71
1, 154578, Note_on_c, 0, 86, 58
1, 154580, Control_c, 0, 64, 33
1, 154589, Note_off_c, 0, 80, 67
1, 154589, Note_off_c, 0, 77, 70
1, 154594, Note_off_c, 0, 68, 58
1, 154595, Control_c, 0, 64, 35
1, 154598, Note_on_c, 0, 74, 31
1, 154599, Note_off_c, 0, 86, 61
1, 154610, Control_c, 0, 64, 34
1, 154624, Control_c, 0, 64, 28
1, 154627, Note_off_c, 0, 74, 52
1, 154639, Control_c, 0, 64, 16
1, 154654, Control_c, 0, 64, 0
1, 154663, Note_on_c, 0, 62, 67
1, 154663, Note_on_c, 0, 86, 77
1, 154667, Note_on_c, 0, 81, 76
1, 154668, Note_on_c, 0, 78, 75
1, 154678, Note_on_c, 0, 69, 52
1, 154692, Note_off_c, 0, 81, 68
1, 154693, Note_off_c, 0, 78, 69
1, 154698, Note_off_c, 0, 69, 63
1, 154704, Note_off_c, 0, 62, 62
1, 154706, Note_off_c, 0, 86, 63
1, 154722, Poly_aftertouch_c, 0, 74, 127
1, 154738, Poly_aftertouch_c, 0, 74, 0
1, 154763, Note_on_c, 0, 68, 70
1, 154767, Note_on_c, 0, 80, 78
1, 154768, Note_on_c, 0, 77, 72
1, 154774, Poly_aftertouch_c, 0, 74, 127
1, 154790, Note_off_c, 0, 68, 64
1, 154792, Note_off_c, 0, 80, 65
1, 154795, Note_off_c, 0, 77, 63
1, 154851, Poly_aftertouch_c, 0, 74, 0
1, 154859, Note_on_c, 0, 86, 42
1, 154863, Note_on_c, 0, 68, 74
1, 154866, Note_on_c, 0, 74, 46
1, 154873, Note_on_c, 0, 80, 73
1, 154875, Note_on_c, 0, 77, 64
1, 154895, Note_off_c, 0, 80, 70
1, 154896, Note_off_c, 0, 77, 61
1, 154902, Note_off_c, 0, 68, 60
1, 154905, Note_off_c, 0, 74, 64
1, 154924, Note_off_c, 0, 86, 60
1, 154966, Poly_aftertouch_c, 0, 86, 0
1, 154967, Note_on_c, 0, 78, 70
1, 154968, Note_on_c, 0, 62, 68
1, 154970, Note_on_c, 0, 69, 65
1, 154973, Note_on_c, 0, 81, 65
1, 154976, Note_on_c, 0, 86, 39
1, 154977, Note_on_c, 0, 74, 52
1, 154993, Note_off_c, 0, 78, 66
1, 154994, Note_off_c, 0, 69, 71
1, 154999, Note_off_c, 0, 81, 67
1, 155005, Note_off_c, 0, 74, 60
1, 155010, Note_off_c, 0, 86, 52
1, 155011, Note_off_c, 0, 62, 62
1, 155062, Note_on_c, 0, 68, 75
1, 155070, Note_on_c, 0, 80, 68
1, 155074, Note_on_c, 0, 77, 59
1, 155085, Note_on_c, 0, 86, 44
1, 155087, Note_on_c, 0, 74, 43
1, 155094, Note_off_c, 0, 80, 67
1, 155095, Note_off_c, 0, 77, 62
1, 155097, Note_off_c, 0, 68, 58
1, 155110, Note_off_c, 0, 74, 61
1, 155110, Note_off_c, 0, 86, 54
1, 155155, Note_on_c, 0, 68, 64
1, 155166, Note_on_c, 0, 77, 64
1, 155168, Note_on_c, 0, 62, 67
1, 155172, Note_on_c, 0, 74, 62
1, 155176, Note_on_c, 0, 80, 65
1, 155185, Note_on_c, 0, 86, 50
1, 155185, Note_off_c, 0, 77, 65
1, 155200, Note_off_c, 0, 80, 66
1, 155203, Note_off_c, 0, 68, 59
1, 155208, Note_off_c, 0, 74, 66
1, 155220, Note_off_c, 0, 86, 53
1, 155239, Note_off_c, 0, 62, 52
1, 155271, Note_on_c, 0, 69, 66
1, 155281, Note_on_c, 0, 81, 61
1, 155283, Note_on_c, 0, 78, 61
1, 155295, Note_on_c, 0, 86, 41
1, 155300, Note_off_c, 0, 69, 66
1, 155306, Note_off_c, 0, 81, 66
1, 155316, Note_on_c, 0, 74, 24
1, 155318, Note_off_c, 0, 78, 65
1, 155323, Note_off_c, 0, 86, 55
1, 155377, Note_off_c, 0, 74, 0
1, 155391, Note_on_c, 0, 74, 45
1, 155399, Note_on_c, 0, 82, 64
1, 155399, Note_on_c, 0, 70, 58
1, 155402, Control_c, 0, 64, 19
1, 155408, Note_on_c, 0, 77, 59
1, 155415, Note_on_c, 0, 86, 39
1, 155417, Control_c, 0, 64, 30
1, 155432, Control_c, 0, 64, 40
1, 155447, Control_c, 0, 64, 50
1, 155462, Control_c, 0, 64, 61
1, 155476, Note_off_c, 0, 82, 52
1, 155477, Control_c, 0, 64, 70
1, 155477, Note_off_c, 0, 77, 56
1, 155488, Note_off_c, 0, 86, 39
1, 155492, Control_c, 0, 64, 85
1, 155506, Control_c, 0, 64, 101
1, 155521, Control_c, 0, 64, 127
1, 155574, Note_off_c, 0, 74, 51
1, 155577, Note_off_c, 0, 70, 58
1, 155580, Note_on_c, 0, 77, 30
1, 155581, Note_on_c, 0, 82, 32
1, 155619, Note_off_c, 0, 82, 56
1, 155623, Note_off_c, 0, 77, 46
1, 155654, Control_c, 0, 64, 79
1, 155664, Note_on_c, 0, 74, 76
1, 155670, Control_c, 0, 64, 62
1, 155684, Note_off_c, 0, 74, 72
1, 155685, Note_on_c, 0, 82, 57
1, 155685, Control_c, 0, 64, 57
1, 155700, Control_c, 0, 64, 63
1, 155705, Note_on_c, 0, 77, 27
1, 155706, Note_off_c, 0, 82, 62
1, 155715, Control_c, 0, 64, 78
1, 155729, Control_c, 0, 64, 127
1, 155739, Note_on_c, 0, 74, 90
1, 155760, Note_off_c, 0, 77, 0
1, 155760, Note_on_c, 0, 77, 40
1, 155762, Note_on_c, 0, 82, 77
1, 155772, Note_on_c, 0, 86, 27
1, 155798, Note_off_c, 0, 77, 61
1, 155802, Note_off_c, 0, 82, 59
1, 155812, Note_off_c, 0, 86, 49
1, 155866, Note_on_c, 0, 77, 67
1, 155871, Note_on_c, 0, 82, 66
1, 155894, Note_off_c, 0, 77, 57
1, 155898, Note_off_c, 0, 82, 68
1, 155899, Note_on_c, 0, 86, 31
1, 155921, Control_c, 0, 67, 120
1, 155936, Control_c, 0, 67, 101
1, 155959, Control_c, 0, 67, 84
1, 155974, Control_c, 0, 67, 64
1, 155983, Note_on_c, 0, 82, 64
1, 155984, Note_on_c, 0, 77, 32
1, 155989, Control_c, 0, 67, 43
1, 156001, Note_off_c, 0, 82, 67
1, 156003, Control_c, 0, 67, 28
1, 156018, Control_c, 0, 67, 21
1, 156022, Note_off_c, 0, 86, 24
1, 156024, Note_off_c, 0, 77, 51
1, 156033, Control_c, 0, 67, 19
1, 156048, Control_c, 0, 67, 18
1, 156063, Control_c, 0, 67, 15
1, 156077, Control_c, 0, 67, 11
1, 156078, Note_on_c, 0, 79, 62
1, 156078, Note_on_c, 0, 83, 69
1, 156092, Control_c, 0, 67, 0
1, 156097, Note_on_c, 0, 86, 39
1, 156097, Note_off_c, 0, 79, 63
1, 156103, Note_off_c, 0, 83, 70
1, 156127, Note_off_c, 0, 86, 51
1, 156136, Control_c, 0, 67, 8
1, 156151, Control_c, 0, 67, 9
1, 156166, Control_c, 0, 67, 10
1, 156176, Note_on_c, 0, 79, 56
1, 156180, Note_on_c, 0, 83, 64
1, 156181, Control_c, 0, 67, 10
1, 156186, Note_off_c, 0, 74, 56
1, 156195, Control_c, 0, 67, 11
1, 156200, Note_off_c, 0, 79, 57
1, 156205, Note_off_c, 0, 83, 68
1, 156210, Note_on_c, 0, 86, 44
1, 156210, Control_c, 0, 67, 12
1, 156225, Control_c, 0, 67, 12
1, 156238, Note_off_c, 0, 86, 54
1, 156240, Control_c, 0, 67, 13
1, 156255, Control_c, 0, 67, 14
1, 156270, Control_c, 0, 67, 15
1, 156283, Note_on_c, 0, 67, 74
1, 156285, Control_c, 0, 64, 86
1, 156285, Control_c, 0, 67, 16
1, 156285, Note_on_c, 0, 83, 57
1, 156289, Note_on_c, 0, 79, 46
1, 156300, Control_c, 0, 64, 70
1, 156300, Control_c, 0, 67, 17
1, 156306, Note_off_c, 0, 83, 65
1, 156314, Note_off_c, 0, 67, 63
1, 156315, Control_c, 0, 64, 68
1, 156315, Control_c, 0, 67, 18
1, 156318, Note_off_c, 0, 79, 53
1, 156322, Note_on_c, 0, 86, 26
1, 156329, Control_c, 0, 64, 70
1, 156329, Control_c, 0, 67, 20
1, 156344, Control_c, 0, 64, 77
1, 156344, Control_c, 0, 67, 21
1, 156359, Control_c, 0, 64, 91
1, 156367, Note_on_c, 0, 67, 73
1, 156374, Control_c, 0, 64, 127
1, 156374, Control_c, 0, 67, 22
1, 156376, Note_off_c, 0, 86, 0
1, 156376, Note_on_c, 0, 86, 27
1, 156381, Note_on_c, 0, 83, 65
1, 156384, Note_on_c, 0, 79, 55
1, 156403, Control_c, 0, 67, 22
1, 156405, Note_off_c, 0, 79, 60
1, 156407, Note_off_c, 0, 83, 69
1, 156420, Note_off_c, 0, 86, 60
1, 156479, Note_on_c, 0, 79, 57
1, 156485, Note_on_c, 0, 83, 60
1, 156499, Note_off_c, 0, 79, 61
1, 156501, Note_on_c, 0, 86, 39
1, 156506, Note_off_c, 0, 83, 68
1, 156508, Control_c, 0, 67, 22
1, 156532, Note_off_c, 0, 86, 50
1, 156578, Note_on_c, 0, 79, 59
1, 156581, Note_on_c, 0, 83, 60
1, 156591, Note_on_c, 0, 86, 51
1, 156602, Note_off_c, 0, 83, 69
1, 156604, Note_off_c, 0, 79, 60
1, 156611, Control_c, 0, 67, 21
1, 156614, Note_off_c, 0, 86, 56
1, 156626, Control_c, 0, 64, 73
1, 156626, Control_c, 0, 67, 21
1, 156641, Control_c, 0, 64, 66
1, 156641, Control_c, 0, 67, 20
1, 156656, Control_c, 0, 64, 67
1, 156656, Control_c, 0, 67, 20
1, 156671, Control_c, 0, 64, 72
1, 156671, Control_c, 0, 67, 19
1, 156678, Note_on_c, 0, 86, 71
1, 156686, Control_c, 0, 64, 83
1, 156686, Control_c, 0, 67, 18
1, 156698, Note_on_c, 0, 77, 62
1, 156699, Note_on_c, 0, 82, 63
1, 156708, Control_c, 0, 64, 127
1, 156708, Control_c, 0, 67, 17
1, 156719, Note_off_c, 0, 82, 68
1, 156723, Control_c, 0, 67, 17
1, 156724, Note_off_c, 0, 77, 58
1, 156736, Note_off_c, 0, 86, 59
1, 156738, Control_c, 0, 67, 15
1, 156752, Control_c, 0, 67, 13
1, 156761, Note_off_c, 0, 67, 56
1, 156767, Control_c, 0, 67, 12
1, 156786, Note_on_c, 0, 82, 68
1, 156788, Note_on_c, 0, 86, 53
1, 156797, Control_c, 0, 67, 12
1, 156815, Note_off_c, 0, 82, 67
1, 156816, Note_on_c, 0, 77, 38
1, 156826, Control_c, 0, 67, 11
1, 156833, Note_off_c, 0, 86, 61
1, 156841, Control_c, 0, 67, 10
1, 156856, Control_c, 0, 67, 8
1, 156871, Control_c, 0, 67, 0
1, 156882, Note_off_c, 0, 77, 0
1, 156890, Note_on_c, 0, 62, 72
1, 156896, Note_on_c, 0, 86, 54
1, 156897, Note_on_c, 0, 77, 30
1, 156898, Note_on_c, 0, 82, 63
1, 156915, Control_c, 0, 64, 93
1, 156917, Note_off_c, 0, 62, 66
1, 156918, Note_off_c, 0, 82, 67
1, 156930, Control_c, 0, 64, 62
1, 156932, Note_off_c, 0, 86, 62
1, 156944, Control_c, 0, 64, 47
1, 156959, Control_c, 0, 64, 45
1, 156973, Note_off_c, 0, 77, 0
1, 156974, Control_c, 0, 64, 55
1, 156985, Note_on_c, 0, 82, 71
1, 156987, Note_on_c, 0, 77, 40
1, 156988, Note_on_c, 0, 62, 79
1, 156989, Control_c, 0, 64, 68
1, 157004, Control_c, 0, 64, 127
1, 157010, Note_on_c, 0, 86, 39
1, 157010, Note_off_c, 0, 82, 68
1, 157024, Note_off_c, 0, 77, 49
1, 157042, Note_off_c, 0, 86, 52
1, 157076, Note_on_c, 0, 77, 53
1, 157094, Note_on_c, 0, 86, 50
1, 157096, Note_on_c, 0, 82, 46
1, 157109, Note_off_c, 0, 77, 51
1, 157122, Note_off_c, 0, 82, 58
1, 157176, Note_on_c, 0, 77, 40
1, 157203, Note_off_c, 0, 86, 28
1, 157204, Note_on_c, 0, 82, 40
1, 157208, Note_off_c, 0, 77, 49
1, 157234, Note_off_c, 0, 82, 57
1, 157285, Note_on_c, 0, 91, 75
1, 157290, Note_on_c, 0, 79, 66
1, 157298, Note_off_c, 0, 62, 58
1, 157299, Note_on_c, 0, 83, 46
1, 157305, Note_on_c, 0, 86, 38
1, 157308, Note_off_c, 0, 79, 64
1, 157322, Note_off_c, 0, 83, 59
1, 157322, Note_off_c, 0, 91, 53
1, 157337, Note_off_c, 0, 86, 51
1, 157384, Note_on_c, 0, 79, 53
1, 157391, Note_on_c, 0, 83, 70
1, 157403, Note_off_c, 0, 79, 62
1, 157409, Note_on_c, 0, 86, 51
1, 157409, Note_off_c, 0, 83, 70
1, 157436, Note_off_c, 0, 86, 53
1, 157477, Note_on_c, 0, 55, 70
1, 157490, Note_on_c, 0, 79, 49
1, 157497, Note_on_c, 0, 83, 56
1, 157504, Note_off_c, 0, 55, 68
1, 157511, Note_off_c, 0, 79, 60
1, 157516, Note_off_c, 0, 83, 66
1, 157569, Note_on_c, 0, 55, 78
1, 157584, Poly_aftertouch_c, 0, 86, 127
1, 157586, Note_on_c, 0, 79, 60
1, 157592, Note_on_c, 0, 83, 63
1, 157594, Note_off_c, 0, 55, 69
1, 157605, Note_off_c, 0, 79, 63
1, 157618, Note_off_c, 0, 83, 67
1, 157642, Poly_aftertouch_c, 0, 91, 127
1, 157652, Poly_aftertouch_c, 0, 86, 0
1, 157687, Note_on_c, 0, 79, 47
1, 157702, Note_on_c, 0, 86, 42
1, 157709, Note_on_c, 0, 83, 42
1, 157713, Note_off_c, 0, 79, 55
1, 157724, Poly_aftertouch_c, 0, 91, 0
1, 157736, Note_off_c, 0, 83, 56
1, 157745, Note_off_c, 0, 86, 44
1, 157792, Note_on_c, 0, 79, 53
1, 157793, Note_on_c, 0, 83, 51
1, 157796, Note_on_c, 0, 50, 57
1, 157796, Note_on_c, 0, 62, 49
1, 157814, Note_off_c, 0, 83, 63
1, 157816, Note_off_c, 0, 79, 58
1, 157820, Note_off_c, 0, 50, 60
1, 157820, Note_off_c, 0, 62, 58
1, 157827, Control_c, 0, 64, 100
1, 157842, Control_c, 0, 64, 67
1, 157856, Control_c, 0, 64, 57
1, 157871, Control_c, 0, 64, 55
1, 157884, Note_on_c, 0, 62, 69
1, 157886, Note_on_c, 0, 50, 67
1, 157886, Control_c, 0, 64, 63
1, 157887, Note_on_c, 0, 86, 70
1, 157888, Note_on_c, 0, 77, 61
1, 157889, Note_on_c, 0, 82, 68
1, 157900, Control_c, 0, 64, 85
1, 157901, Note_off_c, 0, 62, 66
1, 157906, Note_off_c, 0, 50, 64
1, 157913, Note_off_c, 0, 77, 58
1, 157915, Note_off_c, 0, 82, 69
1, 157915, Control_c, 0, 64, 127
1, 157921, Note_off_c, 0, 86, 58
1, 157984, Note_on_c, 0, 82, 64
1, 157987, Note_on_c, 0, 86, 59
1, 158005, Note_on_c, 0, 77, 43
1, 158012, Note_off_c, 0, 82, 67
1, 158035, Note_off_c, 0, 86, 58
1, 158037, Note_off_c, 0, 77, 52
1, 158093, Note_on_c, 0, 82, 54
1, 158096, Note_on_c, 0, 86, 42
1, 158106, Note_on_c, 0, 77, 17
1, 158111, Note_on_c, 0, 55, 59
1, 158118, Note_off_c, 0, 82, 60
1, 158123, Control_c, 0, 64, 86
1, 158125, Note_off_c, 0, 86, 53
1, 158127, Note_on_c, 0, 43, 38
1, 158135, Note_off_c, 0, 55, 59
1, 158138, Control_c, 0, 64, 66
1, 158153, Control_c, 0, 64, 62
1, 158154, Note_off_c, 0, 77, 51
1, 158168, Control_c, 0, 64, 65
1, 158171, Note_off_c, 0, 43, 0
1, 158183, Control_c, 0, 64, 76
1, 158184, Note_on_c, 0, 43, 61
1, 158187, Note_on_c, 0, 55, 79
1, 158195, Note_on_c, 0, 91, 75
1, 158196, Note_on_c, 0, 79, 73
1, 158198, Note_on_c, 0, 83, 74
1, 158204, Control_c, 0, 64, 127
1, 158209, Note_on_c, 0, 86, 60
1, 158216, Note_off_c, 0, 55, 69
1, 158218, Note_off_c, 0, 43, 63
1, 158222, Note_off_c, 0, 79, 64
1, 158225, Note_off_c, 0, 83, 66
1, 158238, Note_off_c, 0, 86, 64
1, 158238, Note_off_c, 0, 91, 43
1, 158303, Note_on_c, 0, 86, 67
1, 158307, Note_on_c, 0, 83, 64
1, 158333, Note_off_c, 0, 83, 66
1, 158335, Note_off_c, 0, 86, 60
1, 158360, Poly_aftertouch_c, 0, 79, 127
1, 158395, Note_on_c, 0, 79, 20
1, 158407, Note_on_c, 0, 83, 61
1, 158414, Note_on_c, 0, 62, 70
1, 158419, Note_on_c, 0, 50, 65
1, 158427, Control_c, 0, 64, 83
1, 158431, Note_on_c, 0, 86, 21
1, 158432, Note_off_c, 0, 62, 68
1, 158434, Note_off_c, 0, 83, 68
1, 158437, Note_off_c, 0, 79, 52
1, 158441, Note_off_c, 0, 50, 62
1, 158442, Control_c, 0, 64, 73
1, 158457, Control_c, 0, 64, 78
1, 158471, Control_c, 0, 64, 107
1, 158476, Note_off_c, 0, 86, 0
1, 158485, Note_on_c, 0, 62, 93
1, 158486, Control_c, 0, 64, 127
1, 158491, Note_on_c, 0, 86, 60
1, 158494, Note_on_c, 0, 50, 84
1, 158497, Note_on_c, 0, 77, 78
1, 158506, Note_on_c, 0, 82, 70
1, 158514, Note_off_c, 0, 62, 61
1, 158523, Note_off_c, 0, 50, 63
1, 158526, Note_off_c, 0, 77, 58
1, 158529, Note_off_c, 0, 82, 68
1, 158549, Note_off_c, 0, 86, 62
1, 158589, Poly_aftertouch_c, 0, 86, 0
1, 158595, Note_on_c, 0, 86, 61
1, 158596, Note_on_c, 0, 82, 68
1, 158608, Note_on_c, 0, 77, 53
1, 158634, Note_off_c, 0, 77, 59
1, 158636, Note_off_c, 0, 82, 61
1, 158652, Note_off_c, 0, 86, 61
1, 158693, Poly_aftertouch_c, 0, 86, 0
1, 158699, Note_on_c, 0, 86, 56
1, 158700, Note_on_c, 0, 77, 66
1, 158703, Note_on_c, 0, 55, 87
1, 158710, Note_on_c, 0, 43, 78
1, 158710, Note_on_c, 0, 82, 63
1, 158723, Note_off_c, 0, 55, 70
1, 158723, Note_off_c, 0, 77, 65
1, 158732, Note_off_c, 0, 43, 66
1, 158735, Note_off_c, 0, 82, 68
1, 158750, Note_off_c, 0, 86, 61
1, 158791, Note_on_c, 0, 43, 85
1, 158793, Note_on_c, 0, 55, 87
1, 158810, Note_on_c, 0, 79, 80
1, 158813, Note_on_c, 0, 83, 78
1, 158816, Note_off_c, 0, 55, 71
1, 158819, Note_on_c, 0, 91, 64
1, 158821, Note_on_c, 0, 86, 55
1, 158826, Note_off_c, 0, 43, 60
1, 158852, Note_off_c, 0, 91, 48
1, 158861, Note_off_c, 0, 86, 63
1, 158861, Note_off_c, 0, 79, 60
1, 158864, Note_off_c, 0, 83, 62
1, 158935, Note_on_c, 0, 83, 66
1, 158946, Note_on_c, 0, 79, 65
1, 158950, Note_on_c, 0, 86, 68
1, 158962, Note_on_c, 0, 91, 40
1, 158979, Note_off_c, 0, 79, 63
1, 158980, Note_off_c, 0, 86, 62
1, 158987, Note_off_c, 0, 83, 63
1, 158998, Note_off_c, 0, 91, 49
1, 159061, Note_on_c, 0, 79, 73
1, 159063, Note_on_c, 0, 83, 57
1, 159065, Note_on_c, 0, 51, 98
1, 159069, Note_on_c, 0, 39, 88
1, 159069, Note_on_c, 0, 86, 67
1, 159081, Note_on_c, 0, 91, 46
1, 159102, Note_off_c, 0, 39, 61
1, 159108, Note_off_c, 0, 51, 61
1, 159114, Note_off_c, 0, 79, 60
1, 159116, Note_off_c, 0, 91, 47
1, 159126, Note_off_c, 0, 83, 64
1, 159132, Note_off_c, 0, 86, 60
1, 159161, Control_c, 0, 64, 71
1, 159176, Control_c, 0, 64, 27
1, 159191, Control_c, 0, 64, 0
1, 159204, Note_on_c, 0, 51, 100
1, 159207, Note_on_c, 0, 39, 88
1, 159219, Note_on_c, 0, 79, 82
1, 159221, Control_c, 0, 64, 48
1, 159224, Note_on_c, 0, 87, 69
1, 159225, Note_on_c, 0, 82, 70
1, 159228, Note_on_c, 0, 91, 62
1, 159233, Note_off_c, 0, 39, 66
1, 159236, Control_c, 0, 64, 82
1, 159239, Note_off_c, 0, 51, 58
1, 159251, Control_c, 0, 64, 127
1, 159266, Note_off_c, 0, 91, 55
1, 159271, Note_off_c, 0, 79, 61
1, 159283, Note_off_c, 0, 82, 62
1, 159289, Note_off_c, 0, 87, 60
1, 159389, Note_on_c, 0, 79, 52
1, 159391, Note_on_c, 0, 87, 50
1, 159400, Note_on_c, 0, 82, 53
1, 159412, Note_on_c, 0, 91, 33
1, 159423, Note_off_c, 0, 79, 49
1, 159429, Note_off_c, 0, 82, 64
1, 159439, Note_off_c, 0, 87, 59
1, 159453, Note_off_c, 0, 91, 42
1, 159537, Note_on_c, 0, 70, 92
1, 159540, Note_on_c, 0, 58, 81
1, 159546, Note_on_c, 0, 79, 54
1, 159549, Note_on_c, 0, 82, 48
1, 159552, Note_on_c, 0, 87, 57
1, 159556, Note_on_c, 0, 91, 41
1, 159568, Note_off_c, 0, 58, 61
1, 159571, Note_off_c, 0, 79, 58
1, 159576, Note_off_c, 0, 70, 61
1, 159579, Note_off_c, 0, 82, 59
1, 159588, Note_off_c, 0, 87, 65
1, 159591, Note_off_c, 0, 91, 48
1, 159650, Control_c, 0, 64, 69
1, 159662, Note_on_c, 0, 70, 103
1, 159666, Control_c, 0, 64, 66
1, 159667, Note_on_c, 0, 58, 89
1, 159668, Note_on_c, 0, 79, 71
1, 159673, Note_on_c, 0, 82, 61
1, 159681, Note_on_c, 0, 87, 61
1, 159681, Control_c, 0, 64, 87
1, 159697, Note_on_c, 0, 91, 42
1, 159703, Control_c, 0, 64, 127
1, 159713, Note_off_c, 0, 82, 66
1, 159718, Note_off_c, 0, 87, 67
1, 159723, Note_off_c, 0, 58, 62
1, 159723, Note_off_c, 0, 79, 59
1, 159725, Note_off_c, 0, 70, 62
1, 159734, Note_off_c, 0, 91, 48
1, 159803, Note_on_c, 0, 82, 61
1, 159803, Note_on_c, 0, 87, 57
1, 159811, Note_on_c, 0, 79, 39
1, 159822, Note_off_c, 0, 82, 67
1, 159829, Note_off_c, 0, 87, 64
1, 159842, Note_off_c, 0, 79, 53
1, 159901, Note_on_c, 0, 82, 63
1, 159910, Note_on_c, 0, 87, 57
1, 159921, Note_on_c, 0, 79, 49
1, 159929, Note_off_c, 0, 82, 67
1, 159938, Note_off_c, 0, 87, 65
1, 159945, Note_off_c, 0, 79, 59
1, 160001, Note_on_c, 0, 82, 67
1, 160007, Note_on_c, 0, 79, 63
1, 160019, Note_on_c, 0, 87, 56
1, 160026, Note_off_c, 0, 79, 64
1, 160031, Note_off_c, 0, 82, 67
1, 160041, Note_off_c, 0, 87, 63
1, 160091, Note_on_c, 0, 79, 65
1, 160105, Note_on_c, 0, 82, 65
1, 160121, Note_off_c, 0, 79, 59
1, 160128, Note_on_c, 0, 87, 50
1, 160131, Note_off_c, 0, 82, 68
1, 160154, Note_off_c, 0, 87, 55
1, 160199, Note_on_c, 0, 79, 60
1, 160204, Note_on_c, 0, 82, 61
1, 160212, Note_on_c, 0, 51, 77
1, 160218, Note_on_c, 0, 63, 69
1, 160223, Note_off_c, 0, 79, 60
1, 160229, Note_on_c, 0, 87, 52
1, 160231, Note_off_c, 0, 82, 67
1, 160233, Note_off_c, 0, 51, 67
1, 160235, Note_off_c, 0, 63, 67
1, 160243, Note_on_c, 0, 61, 27
1, 160244, Note_off_c, 0, 61, 127
1, 160252, Note_off_c, 0, 87, 59
1, 160280, Poly_aftertouch_c, 0, 61, 0
1, 160293, Note_on_c, 0, 51, 89
1, 160295, Note_on_c, 0, 79, 71
1, 160296, Note_on_c, 0, 63, 92
1, 160303, Note_on_c, 0, 82, 72
1, 160317, Note_on_c, 0, 87, 63
1, 160330, Note_off_c, 0, 79, 59
1, 160330, Note_off_c, 0, 82, 65
1, 160346, Note_off_c, 0, 87, 68
1, 160410, Note_on_c, 0, 79, 62
1, 160416, Note_on_c, 0, 82, 69
1, 160416, Note_on_c, 0, 87, 62
1, 160443, Note_off_c, 0, 79, 55
1, 160448, Note_off_c, 0, 82, 68
1, 160455, Note_off_c, 0, 87, 66
1, 160509, Note_off_c, 0, 63, 62
1, 160518, Note_on_c, 0, 82, 63
1, 160519, Note_on_c, 0, 79, 63
1, 160538, Note_off_c, 0, 79, 64
1, 160541, Note_on_c, 0, 87, 50
1, 160544, Note_off_c, 0, 82, 68
1, 160567, Note_off_c, 0, 87, 55
1, 160612, Note_on_c, 0, 79, 64
1, 160613, Note_on_c, 0, 82, 73
1, 160628, Note_off_c, 0, 51, 55
1, 160634, Note_on_c, 0, 87, 59
1, 160634, Note_off_c, 0, 79, 66
1, 160641, Note_off_c, 0, 82, 64
1, 160653, Note_off_c, 0, 87, 65
1, 160708, Note_on_c, 0, 79, 67
1, 160721, Note_on_c, 0, 82, 67
1, 160725, Note_on_c, 0, 87, 58
1, 160730, Note_off_c, 0, 79, 62
1, 160746, Note_off_c, 0, 82, 68
1, 160747, Note_off_c, 0, 87, 64
1, 160816, Note_on_c, 0, 82, 67
1, 160819, Note_on_c, 0, 79, 56
1, 160822, Note_on_c, 0, 58, 74
1, 160824, Note_on_c, 0, 46, 75
1, 160824, Note_on_c, 0, 87, 58
1, 160839, Note_off_c, 0, 79, 63
1, 160841, Note_off_c, 0, 82, 69
1, 160846, Note_off_c, 0, 46, 65
1, 160849, Note_off_c, 0, 58, 68
1, 160851, Note_off_c, 0, 87, 67
1, 160890, Note_on_c, 0, 46, 90
1, 160891, Note_on_c, 0, 58, 83
1, 160903, Note_on_c, 0, 79, 77
1, 160908, Note_on_c, 0, 82, 72
1, 160919, Note_on_c, 0, 87, 68
1, 160928, Note_off_c, 0, 79, 63
1, 160934, Note_off_c, 0, 58, 60
1, 160936, Note_off_c, 0, 46, 65
1, 160938, Note_off_c, 0, 82, 65
1, 160946, Note_off_c, 0, 87, 69
1, 161021, Note_on_c, 0, 82, 71
1, 161027, Note_on_c, 0, 79, 59
1, 161030, Note_on_c, 0, 87, 57
1, 161043, Note_off_c, 0, 82, 68
1, 161045, Note_off_c, 0, 79, 63
1, 161051, Note_off_c, 0, 87, 63
1, 161102, Note_on_c, 0, 39, 83
1, 161102, Note_on_c, 0, 51, 87
1, 161108, Note_on_c, 0, 79, 71
1, 161111, Note_on_c, 0, 82, 74
1, 161117, Note_on_c, 0, 87, 69
1, 161124, Note_off_c, 0, 51, 69
1, 161130, Note_off_c, 0, 39, 65
1, 161130, Note_off_c, 0, 79, 67
1, 161135, Note_off_c, 0, 82, 69
1, 161145, Note_off_c, 0, 87, 68
1, 161183, Note_on_c, 0, 39, 90
1, 161191, Note_on_c, 0, 51, 94
1, 161206, Note_on_c, 0, 79, 84
1, 161213, Note_on_c, 0, 82, 83
1, 161217, Note_on_c, 0, 87, 74
1, 161233, Note_off_c, 0, 51, 64
1, 161235, Note_off_c, 0, 79, 57
1, 161242, Note_off_c, 0, 39, 64
1, 161245, Note_off_c, 0, 82, 61
1, 161245, Note_off_c, 0, 87, 62
1, 161325, Note_on_c, 0, 79, 67
1, 161326, Note_on_c, 0, 82, 73
1, 161332, Note_on_c, 0, 87, 62
1, 161344, Note_off_c, 0, 79, 64
1, 161347, Note_off_c, 0, 82, 70
1, 161360, Note_off_c, 0, 87, 67
1, 161400, Note_on_c, 0, 50, 90
1, 161403, Note_on_c, 0, 38, 80
1, 161410, Note_on_c, 0, 79, 76
1, 161413, Note_on_c, 0, 82, 75
1, 161420, Note_on_c, 0, 87, 74
1, 161420, Note_off_c, 0, 50, 71
1, 161427, Note_off_c, 0, 38, 66
1, 161434, Note_off_c, 0, 79, 67
1, 161445, Note_off_c, 0, 82, 63
1, 161447, Note_off_c, 0, 87, 65
1, 161486, Note_on_c, 0, 38, 85
1, 161488, Note_on_c, 0, 50, 94
1, 161501, Note_on_c, 0, 79, 83
1, 161508, Note_on_c, 0, 82, 79
1, 161514, Note_on_c, 0, 87, 74
1, 161516, Note_on_c, 0, 91, 43
1, 161540, Note_off_c, 0, 79, 47
1, 161541, Note_off_c, 0, 87, 64
1, 161543, Note_off_c, 0, 50, 59
1, 161546, Note_off_c, 0, 82, 61
1, 161552, Note_off_c, 0, 38, 62
1, 161561, Note_off_c, 0, 91, 43
1, 161607, Note_on_c, 0, 82, 78
1, 161612, Note_on_c, 0, 79, 59
1, 161616, Note_on_c, 0, 87, 75
1, 161632, Note_off_c, 0, 79, 59
1, 161651, Note_off_c, 0, 82, 65
1, 161658, Note_off_c, 0, 87, 60
1, 161713, Note_on_c, 0, 79, 78
1, 161730, Note_on_c, 0, 82, 73
1, 161731, Note_on_c, 0, 87, 69
1, 161733, Note_on_c, 0, 49, 98
1, 161734, Note_on_c, 0, 37, 92
1, 161781, Note_off_c, 0, 49, 61
1, 161782, Note_off_c, 0, 82, 64
1, 161785, Note_off_c, 0, 79, 61
1, 161788, Note_off_c, 0, 37, 61
1, 161820, Note_off_c, 0, 87, 62
1, 161838, Control_c, 0, 64, 115
1, 161853, Control_c, 0, 64, 53
1, 161868, Control_c, 0, 64, 0
1, 161887, Note_on_c, 0, 80, 98
1, 161891, Note_on_c, 0, 49, 106
1, 161894, Note_on_c, 0, 37, 101
1, 161897, Note_on_c, 0, 85, 75
1, 161898, Control_c, 0, 64, 59
1, 161901, Note_on_c, 0, 89, 76
1, 161906, Note_on_c, 0, 92, 72
1, 161913, Control_c, 0, 64, 127
1, 161941, Note_off_c, 0, 49, 62
1, 161944, Note_off_c, 0, 37, 63
1, 161969, Note_off_c, 0, 80, 59
1, 161973, Note_off_c, 0, 92, 53
1, 161986, Note_off_c, 0, 85, 60
1, 162000, Note_off_c, 0, 89, 59
1, 162070, Note_on_c, 0, 80, 68
1, 162092, Note_on_c, 0, 92, 48
1, 162094, Note_on_c, 0, 85, 50
1, 162102, Note_on_c, 0, 89, 35
1, 162123, Note_off_c, 0, 92, 54
1, 162128, Note_off_c, 0, 85, 55
1, 162133, Note_off_c, 0, 80, 54
1, 162158, Note_off_c, 0, 89, 43
1, 162227, Note_on_c, 0, 80, 78
1, 162235, Note_on_c, 0, 73, 105
1, 162235, Note_on_c, 0, 85, 55
1, 162238, Note_on_c, 0, 61, 91
1, 162238, Note_on_c, 0, 92, 52
1, 162264, Note_on_c, 0, 89, 30
1, 162276, Note_off_c, 0, 73, 63
1, 162279, Note_on_c, 0, 72, 32
1, 162280, Note_off_c, 0, 72, 127
1, 162282, Note_off_c, 0, 92, 63
1, 162283, Note_off_c, 0, 80, 59
1, 162287, Note_off_c, 0, 61, 61
1, 162298, Note_off_c, 0, 85, 62
1, 162303, Note_off_c, 0, 89, 53
1, 162311, Poly_aftertouch_c, 0, 72, 0
1, 162336, Control_c, 0, 64, 70
1, 162351, Control_c, 0, 64, 24
1, 162365, Control_c, 0, 64, 14
1, 162367, Note_on_c, 0, 73, 112
1, 162371, Note_on_c, 0, 80, 93
1, 162375, Note_on_c, 0, 61, 97
1, 162378, Note_on_c, 0, 89, 76
1, 162380, Control_c, 0, 64, 57
1, 162382, Note_on_c, 0, 92, 74
1, 162384, Note_on_c, 0, 85, 70
1, 162395, Control_c, 0, 64, 127
1, 162417, Note_off_c, 0, 85, 62
1, 162420, Note_off_c, 0, 80, 60
1, 162422, Note_off_c, 0, 73, 67
1, 162425, Note_off_c, 0, 61, 61
1, 162433, Note_off_c, 0, 92, 57
1, 162438, Note_off_c, 0, 89, 62
1, 162485, Note_on_c, 0, 80, 73
1, 162498, Note_on_c, 0, 85, 66
1, 162499, Note_on_c, 0, 92, 39
1, 162501, Note_on_c, 0, 89, 51
1, 162518, Note_off_c, 0, 80, 59
1, 162524, Note_off_c, 0, 85, 66
1, 162527, Note_off_c, 0, 89, 60
1, 162530, Note_off_c, 0, 92, 57
1, 162598, Note_on_c, 0, 85, 66
1, 162599, Note_on_c, 0, 80, 68
1, 162604, Note_on_c, 0, 92, 56
1, 162616, Note_off_c, 0, 80, 66
1, 162620, Note_on_c, 0, 89, 53
1, 162627, Note_off_c, 0, 85, 65
1, 162634, Note_off_c, 0, 92, 52
1, 162643, Note_off_c, 0, 89, 61
1, 162689, Note_on_c, 0, 80, 78
1, 162710, Note_on_c, 0, 85, 66
1, 162714, Note_on_c, 0, 92, 60
1, 162726, Note_on_c, 0, 89, 59
1, 162735, Note_off_c, 0, 85, 66
1, 162738, Note_off_c, 0, 80, 59
1, 162741, Note_off_c, 0, 92, 57
1, 162751, Note_off_c, 0, 89, 65
1, 162801, Note_on_c, 0, 80, 65
1, 162818, Note_on_c, 0, 85, 65
1, 162828, Note_on_c, 0, 92, 39
1, 162831, Note_off_c, 0, 80, 62
1, 162844, Note_off_c, 0, 85, 67
1, 162848, Note_on_c, 0, 89, 35
1, 162862, Note_off_c, 0, 92, 54
1, 162909, Note_on_c, 0, 68, 96
1, 162910, Note_on_c, 0, 56, 84
1, 162913, Note_on_c, 0, 80, 67
1, 162919, Note_off_c, 0, 89, 0
1, 162920, Note_on_c, 0, 85, 57
1, 162925, Note_off_c, 0, 68, 73
1, 162930, Note_off_c, 0, 80, 68
1, 162932, Note_off_c, 0, 56, 71
1, 162938, Note_on_c, 0, 89, 18
1, 162947, Note_off_c, 0, 85, 67
1, 162988, Note_on_c, 0, 68, 102
1, 162989, Note_on_c, 0, 56, 95
1, 162994, Note_on_c, 0, 80, 88
1, 163000, Note_off_c, 0, 89, 0
1, 163010, Note_on_c, 0, 92, 55
1, 163010, Note_on_c, 0, 89, 54
1, 163013, Note_on_c, 0, 85, 74
1, 163037, Note_off_c, 0, 85, 66
1, 163040, Note_off_c, 0, 92, 65
1, 163045, Note_off_c, 0, 80, 59
1, 163051, Note_off_c, 0, 89, 65
1, 163102, Note_on_c, 0, 80, 73
1, 163114, Note_off_c, 0, 68, 58
1, 163117, Note_on_c, 0, 85, 65
1, 163121, Note_on_c, 0, 89, 58
1, 163129, Note_off_c, 0, 56, 55
1, 163139, Note_off_c, 0, 80, 54
1, 163141, Note_on_c, 0, 92, 27
1, 163143, Note_off_c, 0, 85, 67
1, 163153, Note_off_c, 0, 89, 63
1, 163180, Note_off_c, 0, 92, 45
1, 163205, Note_on_c, 0, 80, 64
1, 163209, Note_on_c, 0, 85, 71
1, 163231, Note_off_c, 0, 80, 68
1, 163236, Note_off_c, 0, 85, 65
1, 163242, Note_on_c, 0, 89, 40
1, 163296, Note_off_c, 0, 89, 0
1, 163299, Note_on_c, 0, 80, 80
1, 163308, Note_on_c, 0, 85, 67
1, 163308, Note_on_c, 0, 89, 46
1, 163308, Note_on_c, 0, 92, 47
1, 163322, Note_off_c, 0, 80, 63
1, 163335, Note_off_c, 0, 85, 67
1, 163335, Note_off_c, 0, 92, 58
1, 163342, Note_off_c, 0, 89, 66
1, 163397, Note_on_c, 0, 80, 76
1, 163411, Note_on_c, 0, 92, 51
1, 163412, Note_on_c, 0, 85, 60
1, 163424, Note_on_c, 0, 89, 47
1, 163426, Note_off_c, 0, 80, 59
1, 163445, Note_off_c, 0, 85, 67
1, 163445, Note_off_c, 0, 92, 57
1, 163455, Note_off_c, 0, 89, 60
1, 163515, Note_on_c, 0, 85, 66
1, 163519, Note_on_c, 0, 61, 83
1, 163523, Note_on_c, 0, 49, 74
1, 163526, Note_on_c, 0, 80, 55
1, 163540, Note_off_c, 0, 61, 70
1, 163541, Note_off_c, 0, 85, 66
1, 163545, Note_off_c, 0, 80, 62
1, 163546, Note_off_c, 0, 49, 67
1, 163555, Note_on_c, 0, 89, 29
1, 163585, Note_off_c, 0, 89, 0
1, 163585, Poly_aftertouch_c, 0, 92, 0
1, 163599, Note_on_c, 0, 61, 88
1, 163603, Note_on_c, 0, 49, 90
1, 163606, Note_on_c, 0, 80, 77
1, 163615, Note_on_c, 0, 89, 37
1, 163617, Note_on_c, 0, 85, 72
1, 163623, Poly_aftertouch_c, 0, 92, 127
1, 163635, Note_off_c, 0, 80, 58
1, 163642, Note_off_c, 0, 49, 65
1, 163642, Note_off_c, 0, 61, 61
1, 163642, Note_off_c, 0, 85, 65
1, 163661, Note_off_c, 0, 89, 63
1, 163677, Poly_aftertouch_c, 0, 92, 0
1, 163724, Note_on_c, 0, 80, 68
1, 163734, Note_on_c, 0, 85, 61
1, 163743, Note_off_c, 0, 80, 63
1, 163746, Note_on_c, 0, 89, 31
1, 163755, Note_off_c, 0, 85, 67
1, 163780, Note_off_c, 0, 89, 54
1, 163816, Note_on_c, 0, 44, 77
1, 163817, Note_on_c, 0, 56, 80
1, 163821, Note_on_c, 0, 80, 64
1, 163828, Note_on_c, 0, 85, 66
1, 163838, Note_on_c, 0, 89, 49
1, 163839, Note_off_c, 0, 56, 70
1, 163844, Note_off_c, 0, 44, 67
1, 163850, Note_off_c, 0, 80, 66
1, 163852, Note_off_c, 0, 85, 69
1, 163861, Note_off_c, 0, 89, 62
1, 163894, Note_on_c, 0, 56, 86
1, 163901, Note_on_c, 0, 44, 85
1, 163909, Note_on_c, 0, 80, 79
1, 163918, Note_on_c, 0, 85, 73
1, 163919, Note_on_c, 0, 92, 51
1, 163928, Note_on_c, 0, 89, 62
1, 163931, Note_off_c, 0, 56, 60
1, 163934, Note_off_c, 0, 80, 59
1, 163942, Note_off_c, 0, 44, 60
1, 163945, Note_off_c, 0, 85, 61
1, 163949, Note_off_c, 0, 92, 54
1, 163958, Note_off_c, 0, 89, 66
1, 164026, Note_on_c, 0, 80, 62
1, 164030, Note_on_c, 0, 89, 56
1, 164036, Note_on_c, 0, 85, 58
1, 164042, Note_off_c, 0, 80, 66
1, 164043, Note_on_c, 0, 92, 28
1, 164056, Note_off_c, 0, 85, 63
1, 164065, Note_off_c, 0, 89, 56
1, 164090, Note_off_c, 0, 92, 46
1, 164114, Note_on_c, 0, 80, 71
1, 164115, Note_on_c, 0, 49, 89
1, 164118, Note_on_c, 0, 37, 80
1, 164121, Note_on_c, 0, 85, 70
1, 164125, Note_on_c, 0, 89, 61
1, 164129, Control_c, 0, 64, 83
1, 164133, Note_off_c, 0, 49, 71
1, 164138, Note_off_c, 0, 80, 67
1, 164143, Note_off_c, 0, 37, 67
1, 164143, Control_c, 0, 64, 61
1, 164145, Note_off_c, 0, 85, 68
1, 164155, Note_off_c, 0, 89, 66
1, 164158, Control_c, 0, 64, 55
1, 164173, Control_c, 0, 64, 59
1, 164196, Control_c, 0, 64, 72
1, 164204, Note_on_c, 0, 49, 95
1, 164206, Note_on_c, 0, 37, 93
1, 164207, Poly_aftertouch_c, 0, 92, 0
1, 164211, Control_c, 0, 64, 127
1, 164212, Note_on_c, 0, 80, 89
1, 164221, Note_on_c, 0, 92, 48
1, 164222, Note_on_c, 0, 85, 78
1, 164223, Note_on_c, 0, 89, 76
1, 164250, Note_off_c, 0, 49, 65
1, 164256, Note_off_c, 0, 80, 58
1, 164257, Note_off_c, 0, 37, 62
1, 164258, Note_off_c, 0, 92, 59
1, 164263, Note_off_c, 0, 85, 60
1, 164265, Note_off_c, 0, 89, 58
1, 164328, Note_on_c, 0, 80, 66
1, 164331, Note_on_c, 0, 85, 61
1, 164338, Note_on_c, 0, 89, 53
1, 164356, Note_off_c, 0, 80, 65
1, 164359, Note_off_c, 0, 85, 66
1, 164370, Note_off_c, 0, 89, 66
1, 164420, Note_on_c, 0, 50, 86
1, 164420, Note_on_c, 0, 80, 82
1, 164425, Note_on_c, 0, 38, 78
1, 164435, Note_on_c, 0, 85, 69
1, 164440, Note_off_c, 0, 80, 69
1, 164441, Note_on_c, 0, 89, 63
1, 164441, Note_off_c, 0, 50, 68
1, 164453, Note_off_c, 0, 38, 66
1, 164459, Note_off_c, 0, 85, 68
1, 164463, Control_c, 0, 64, 62
1, 164470, Note_off_c, 0, 89, 68
1, 164478, Control_c, 0, 64, 19
1, 164492, Control_c, 0, 64, 0
1, 164496, Note_on_c, 0, 50, 96
1, 164504, Note_on_c, 0, 38, 92
1, 164507, Control_c, 0, 64, 62
1, 164509, Note_on_c, 0, 80, 97
1, 164518, Note_on_c, 0, 85, 77
1, 164522, Control_c, 0, 64, 127
1, 164523, Note_on_c, 0, 89, 79
1, 164524, Note_on_c, 0, 92, 60
1, 164539, Note_off_c, 0, 38, 66
1, 164539, Note_off_c, 0, 50, 64
1, 164555, Note_off_c, 0, 92, 63
1, 164556, Note_off_c, 0, 80, 60
1, 164562, Note_off_c, 0, 85, 64
1, 164578, Note_off_c, 0, 89, 64
1, 164619, Note_on_c, 0, 80, 81
1, 164630, Note_on_c, 0, 85, 67
1, 164631, Note_on_c, 0, 89, 56
1, 164637, Note_on_c, 0, 92, 54
1, 164668, Note_off_c, 0, 92, 60
1, 164670, Note_off_c, 0, 80, 60
1, 164670, Note_off_c, 0, 85, 62
1, 164678, Note_off_c, 0, 89, 61
1, 164726, Note_on_c, 0, 49, 101
1, 164726, Note_on_c, 0, 80, 82
1, 164727, Note_on_c, 0, 37, 90
1, 164744, Note_on_c, 0, 85, 64
1, 164750, Note_off_c, 0, 37, 67
1, 164750, Note_off_c, 0, 49, 65
1, 164754, Note_on_c, 0, 89, 40
1, 164759, Note_on_c, 0, 92, 37
1, 164767, Note_off_c, 0, 80, 60
1, 164770, Note_off_c, 0, 85, 66
1, 164785, Note_off_c, 0, 89, 58
1, 164792, Note_off_c, 0, 92, 50
1, 164824, Note_on_c, 0, 49, 111
1, 164825, Note_on_c, 0, 37, 96
1, 164825, Note_on_c, 0, 80, 91
1, 164834, Note_on_c, 0, 85, 82
1, 164843, Note_on_c, 0, 89, 71
1, 164858, Note_off_c, 0, 37, 62
1, 164864, Note_off_c, 0, 49, 64
1, 164864, Note_on_c, 0, 92, 42
1, 164876, Note_off_c, 0, 80, 61
1, 164882, Note_off_c, 0, 85, 63
1, 164895, Note_off_c, 0, 92, 54
1, 164904, Note_off_c, 0, 89, 61
1, 164946, Note_on_c, 0, 80, 79
1, 164948, Note_on_c, 0, 89, 56
1, 164956, Note_on_c, 0, 85, 68
1, 164992, Note_on_c, 0, 92, 26
1, 164994, Note_off_c, 0, 80, 60
1, 165001, Note_off_c, 0, 85, 61
1, 165016, Note_off_c, 0, 89, 65
1, 165056, Poly_aftertouch_c, 0, 89, 0
1, 165057, Note_on_c, 0, 80, 75
1, 165063, Note_on_c, 0, 89, 48
1, 165069, Note_off_c, 0, 92, 0
1, 165069, Note_on_c, 0, 92, 49
1, 165070, Note_on_c, 0, 85, 57
1, 165071, Note_on_c, 0, 51, 104
1, 165073, Note_on_c, 0, 39, 86
1, 165096, Note_off_c, 0, 51, 63
1, 165099, Note_off_c, 0, 39, 67
1, 165109, Note_off_c, 0, 80, 64
1, 165110, Note_off_c, 0, 92, 66
1, 165117, Note_off_c, 0, 89, 63
1, 165122, Control_c, 0, 64, 58
1, 165124, Note_off_c, 0, 85, 63
1, 165137, Control_c, 0, 64, 0
1, 165166, Control_c, 0, 64, 40
1, 165168, Poly_aftertouch_c, 0, 85, 0
1, 165174, Note_on_c, 0, 51, 112
1, 165174, Note_on_c, 0, 39, 98
1, 165176, Note_on_c, 0, 81, 101
1, 165176, Note_on_c, 0, 85, 78
1, 165179, Note_on_c, 0, 88, 89
1, 165181, Control_c, 0, 64, 72
1, 165183, Note_on_c, 0, 93, 87
1, 165196, Control_c, 0, 64, 127
1, 165213, Note_off_c, 0, 51, 63
1, 165217, Note_on_c, 0, 90, 34
1, 165221, Note_off_c, 0, 81, 65
1, 165222, Note_off_c, 0, 39, 61
1, 165232, Note_off_c, 0, 93, 61
1, 165234, Note_off_c, 0, 85, 64
1, 165243, Note_off_c, 0, 88, 65
1, 165257, Note_off_c, 0, 90, 55
1, 165301, Note_on_c, 0, 88, 81
1, 165302, Note_on_c, 0, 81, 94
1, 165306, Note_on_c, 0, 85, 73
1, 165315, Note_on_c, 0, 93, 72
1, 165350, Note_off_c, 0, 81, 62
1, 165355, Note_off_c, 0, 93, 55
1, 165356, Note_off_c, 0, 85, 63
1, 165363, Note_off_c, 0, 88, 65
1, 165424, Note_on_c, 0, 81, 87
1, 165427, Note_on_c, 0, 88, 71
1, 165433, Note_on_c, 0, 85, 70
1, 165438, Note_on_c, 0, 93, 74
1, 165452, Note_on_c, 0, 49, 107
1, 165457, Note_on_c, 0, 37, 91
1, 165481, Note_off_c, 0, 81, 63
1, 165485, Note_off_c, 0, 37, 63
1, 165486, Note_off_c, 0, 49, 62
1, 165490, Note_off_c, 0, 93, 63
1, 165499, Note_off_c, 0, 85, 63
1, 165508, Note_off_c, 0, 88, 64
1, 165568, Note_on_c, 0, 49, 118
1, 165569, Note_on_c, 0, 37, 88
1, 165572, Note_on_c, 0, 81, 101
1, 165576, Note_on_c, 0, 88, 85
1, 165579, Note_on_c, 0, 85, 84
1, 165582, Note_on_c, 0, 93, 86
1, 165595, Note_on_c, 0, 48, 60
1, 165596, Note_off_c, 0, 48, 127
1, 165612, Note_off_c, 0, 49, 64
1, 165615, Note_on_c, 0, 39, 18
1, 165620, Poly_aftertouch_c, 0, 48, 0
1, 165624, Note_off_c, 0, 37, 57
1, 165630, Note_off_c, 0, 81, 58
1, 165634, Note_off_c, 0, 93, 61
1, 165647, Note_off_c, 0, 85, 63
1, 165651, Note_off_c, 0, 39, 50
1, 165651, Note_off_c, 0, 88, 65
1, 165656, Poly_aftertouch_c, 0, 36, 127
1, 165703, Poly_aftertouch_c, 0, 36, 0
1, 165739, Note_on_c, 0, 81, 104
1, 165743, Note_on_c, 0, 88, 89
1, 165746, Note_on_c, 0, 85, 87
1, 165746, Note_on_c, 0, 93, 88
1, 165819, Note_off_c, 0, 81, 61
1, 165820, Note_off_c, 0, 93, 62
1, 165831, Note_off_c, 0, 85, 62
1, 165842, Note_off_c, 0, 88, 65
1, 165904, Note_on_c, 0, 81, 107
1, 165908, Note_on_c, 0, 88, 91
1, 165913, Note_on_c, 0, 85, 85
1, 165918, Note_on_c, 0, 93, 83
1, 165973, Note_off_c, 0, 81, 62
1, 165981, Note_off_c, 0, 88, 66
1, 165982, Note_off_c, 0, 93, 59
1, 165982, Note_off_c, 0, 85, 64
1, 166017, Note_on_c, 0, 42, 106
1, 166020, Note_on_c, 0, 30, 104
1, 166058, Note_on_c, 0, 41, 42
1, 166091, Note_off_c, 0, 41, 56
1, 166111, Note_off_c, 0, 42, 54
1, 166125, Note_off_c, 0, 30, 56
1, 166199, Control_c, 0, 64, 51
1, 166213, Control_c, 0, 64, 0
1, 166223, Note_on_c, 0, 82, 106
1, 166226, Note_on_c, 0, 85, 94
1, 166229, Note_on_c, 0, 42, 115
1, 166229, Note_on_c, 0, 90, 92
1, 166232, Note_on_c, 0, 94, 88
1, 166232, Note_on_c, 0, 30, 101
1, 166254, Note_on_c, 0, 32, 59
1, 166255, Note_off_c, 0, 32, 127
1, 166255, Note_on_c, 0, 34, 56
1, 166256, Note_off_c, 0, 34, 127
1, 166271, Control_c, 0, 64, 60
1, 166278, Note_on_c, 0, 92, 36
1, 166286, Control_c, 0, 64, 127
1, 166298, Note_off_c, 0, 30, 63
1, 166317, Note_off_c, 0, 42, 61
1, 166330, Note_off_c, 0, 92, 47
1, 166392, Note_off_c, 0, 94, 39
1, 166586, Note_on_c, 0, 70, 99
1, 166589, Note_on_c, 0, 58, 91
1, 166590, Note_off_c, 0, 82, 42
1, 166629, Note_off_c, 0, 90, 57
1, 166657, Note_off_c, 0, 70, 60
1, 166667, Note_off_c, 0, 85, 62
1, 166670, Note_off_c, 0, 58, 59
1, 166709, Poly_aftertouch_c, 0, 57, 0
1, 166758, Note_on_c, 0, 90, 84
1, 166759, Note_on_c, 0, 78, 105
1, 166770, Note_on_c, 0, 66, 98
1, 166775, Note_on_c, 0, 54, 87
1, 166795, Note_off_c, 0, 78, 66
1, 166801, Note_off_c, 0, 90, 67
1, 166810, Note_off_c, 0, 54, 64
1, 166815, Note_off_c, 0, 66, 61
1, 166897, Note_on_c, 0, 87, 86
1, 166899, Note_on_c, 0, 75, 93
1, 166905, Note_on_c, 0, 63, 91
1, 166906, Note_on_c, 0, 51, 86
1, 166931, Note_off_c, 0, 63, 60
1, 166933, Note_off_c, 0, 51, 62
1, 166934, Note_off_c, 0, 75, 60
1, 166941, Note_off_c, 0, 87, 62
1, 167010, Note_on_c, 0, 61, 87
1, 167013, Note_on_c, 0, 73, 95
1, 167013, Note_on_c, 0, 49, 85
1, 167020, Note_on_c, 0, 85, 76
1, 167034, Note_off_c, 0, 61, 64
1, 167034, Note_off_c, 0, 73, 69
1, 167037, Note_off_c, 0, 49, 65
1, 167041, Note_off_c, 0, 85, 69
1, 167045, Note_on_c, 0, 51, 36
1, 167068, Note_off_c, 0, 51, 56
1, 167082, Poly_aftertouch_c, 0, 82, 127
1, 167105, Note_on_c, 0, 58, 86
1, 167110, Note_on_c, 0, 70, 93
1, 167111, Note_on_c, 0, 82, 35
1, 167115, Note_on_c, 0, 46, 78
1, 167134, Note_on_c, 0, 49, 49
1, 167135, Note_off_c, 0, 49, 127
1, 167135, Note_off_c, 0, 58, 65
1, 167137, Note_off_c, 0, 70, 62
1, 167141, Note_off_c, 0, 46, 67
1, 167151, Note_on_c, 0, 80, 21
1, 167156, Note_off_c, 0, 82, 62
1, 167203, Note_off_c, 0, 80, 0
1, 167208, Note_on_c, 0, 56, 86
1, 167210, Note_on_c, 0, 44, 85
1, 167214, Note_on_c, 0, 68, 96
1, 167219, Note_on_c, 0, 80, 57
1, 167225, Note_on_c, 0, 46, 50
1, 167229, Note_on_c, 0, 78, 24
1, 167237, Note_off_c, 0, 56, 62
1, 167243, Note_off_c, 0, 68, 58
1, 167249, Note_off_c, 0, 44, 60
1, 167250, Note_off_c, 0, 80, 65
1, 167251, Note_off_c, 0, 46, 57
1, 167268, Note_off_c, 0, 78, 53
1, 167303, Note_on_c, 0, 42, 90
1, 167303, Note_on_c, 0, 54, 88
1, 167314, Note_on_c, 0, 66, 89
1, 167334, Note_off_c, 0, 54, 57
1, 167334, Note_off_c, 0, 66, 70
1, 167335, Note_on_c, 0, 78, 55
1, 167336, Note_off_c, 0, 42, 63
1, 167356, Note_off_c, 0, 78, 61
1, 167365, Note_on_c, 0, 75, 4
1, 167389, Note_off_c, 0, 75, 0
1, 167401, Note_on_c, 0, 51, 91
1, 167403, Note_on_c, 0, 39, 85
1, 167406, Note_on_c, 0, 63, 88
1, 167425, Poly_aftertouch_c, 0, 75, 127
1, 167427, Note_on_c, 0, 73, 58
1, 167437, Note_off_c, 0, 39, 64
1, 167442, Note_off_c, 0, 51, 64
1, 167443, Note_off_c, 0, 63, 64
1, 167454, Note_off_c, 0, 73, 55
1, 167466, Poly_aftertouch_c, 0, 75, 0
1, 167504, Note_on_c, 0, 49, 98
1, 167505, Note_on_c, 0, 37, 79
1, 167509, Note_on_c, 0, 61, 93
1, 167517, Note_on_c, 0, 73, 76
1, 167523, Note_on_c, 0, 39, 54
1, 167540, Note_off_c, 0, 73, 69
1, 167544, Note_off_c, 0, 61, 64
1, 167545, Note_off_c, 0, 39, 59
1, 167550, Note_off_c, 0, 49, 64
1, 167561, Note_off_c, 0, 37, 64
1, 167603, Note_on_c, 0, 46, 89
1, 167612, Note_on_c, 0, 58, 95
1, 167632, Note_on_c, 0, 70, 53
1, 167643, Note_on_c, 0, 68, 47
1, 167648, Note_off_c, 0, 46, 66
1, 167649, Note_off_c, 0, 58, 65
1, 167656, Note_off_c, 0, 70, 61
1, 167681, Note_off_c, 0, 68, 51
1, 167708, Note_on_c, 0, 42, 88
1, 167716, Note_on_c, 0, 54, 101
1, 167723, Note_on_c, 0, 66, 84
1, 167754, Note_off_c, 0, 54, 67
1, 167763, Note_off_c, 0, 42, 62
1, 167782, Note_off_c, 0, 66, 64
1, 167998, Control_c, 0, 64, 122
1, 168013, Control_c, 0, 64, 37
1, 168028, Control_c, 0, 64, 0
1, 168032, Note_on_c, 0, 83, 107
1, 168035, Note_on_c, 0, 88, 98
1, 168036, Note_on_c, 0, 92, 104
1, 168036, Note_on_c, 0, 95, 102
1, 168038, Note_on_c, 0, 40, 109
1, 168042, Note_on_c, 0, 28, 101
1, 168057, Control_c, 0, 64, 18
1, 168067, Note_off_c, 0, 28, 75
1, 168068, Note_on_c, 0, 34, 52
1, 168069, Note_off_c, 0, 34, 127
1, 168071, Note_off_c, 0, 40, 69
1, 168072, Control_c, 0, 64, 127
1, 168101, Poly_aftertouch_c, 0, 34, 0
1, 168297, Note_on_c, 0, 71, 95
1, 168299, Note_on_c, 0, 59, 100
1, 168311, Note_off_c, 0, 95, 47
1, 168325, Note_off_c, 0, 83, 55
1, 168334, Note_off_c, 0, 71, 66
1, 168357, Note_off_c, 0, 59, 57
1, 168365, Note_off_c, 0, 92, 64
1, 168369, Note_off_c, 0, 88, 63
1, 168469, Note_on_c, 0, 92, 94
1, 168471, Note_on_c, 0, 80, 101
1, 168477, Note_on_c, 0, 56, 91
1, 168481, Note_on_c, 0, 68, 88
1, 168506, Note_off_c, 0, 80, 64
1, 168509, Note_off_c, 0, 56, 62
1, 168511, Note_off_c, 0, 68, 57
1, 168511, Note_off_c, 0, 92, 65
1, 168612, Note_on_c, 0, 90, 94
1, 168614, Note_on_c, 0, 54, 83
1, 168614, Note_on_c, 0, 66, 91
1, 168616, Note_on_c, 0, 78, 91
1, 168635, Note_off_c, 0, 66, 66
1, 168638, Note_off_c, 0, 54, 68
1, 168645, Note_off_c, 0, 78, 62
1, 168655, Note_off_c, 0, 90, 65
1, 168745, Note_on_c, 0, 88, 86
1, 168747, Note_on_c, 0, 64, 82
1, 168747, Note_on_c, 0, 76, 89
1, 168751, Note_on_c, 0, 52, 86
1, 168767, Note_off_c, 0, 88, 66
1, 168768, Note_off_c, 0, 64, 70
1, 168769, Note_off_c, 0, 76, 68
1, 168772, Note_off_c, 0, 52, 74
1, 168858, Note_on_c, 0, 85, 81
1, 168861, Note_on_c, 0, 49, 83
1, 168861, Note_on_c, 0, 73, 89
1, 168864, Note_on_c, 0, 61, 83
1, 168882, Note_off_c, 0, 85, 64
1, 168882, Note_off_c, 0, 73, 65
1, 168885, Note_off_c, 0, 49, 69
1, 168885, Note_off_c, 0, 61, 70
1, 168968, Note_on_c, 0, 59, 84
1, 168971, Note_on_c, 0, 47, 81
1, 168975, Note_on_c, 0, 71, 77
1, 168980, Note_on_c, 0, 83, 62
1, 168990, Note_off_c, 0, 59, 69
1, 168993, Note_off_c, 0, 47, 68
1, 168997, Note_off_c, 0, 71, 72
1, 168998, Note_off_c, 0, 83, 67
1, 169073, Note_on_c, 0, 56, 80
1, 169076, Note_on_c, 0, 44, 73
1, 169085, Note_on_c, 0, 68, 73
1, 169087, Note_on_c, 0, 80, 61
1, 169097, Note_off_c, 0, 56, 68
1, 169103, Note_off_c, 0, 68, 63
1, 169105, Note_off_c, 0, 80, 64
1, 169108, Note_off_c, 0, 44, 63
1, 169168, Note_on_c, 0, 54, 82
1, 169170, Note_on_c, 0, 42, 82
1, 169174, Note_on_c, 0, 66, 88
1, 169180, Note_on_c, 0, 78, 72
1, 169192, Note_off_c, 0, 66, 70
1, 169195, Note_off_c, 0, 78, 70
1, 169199, Note_off_c, 0, 54, 62
1, 169204, Note_off_c, 0, 42, 61
1, 169275, Note_on_c, 0, 52, 85
1, 169280, Note_on_c, 0, 40, 81
1, 169284, Note_on_c, 0, 64, 79
1, 169288, Note_on_c, 0, 76, 68
1, 169302, Note_off_c, 0, 52, 70
1, 169305, Note_off_c, 0, 76, 69
1, 169305, Note_off_c, 0, 40, 68
1, 169309, Note_off_c, 0, 64, 68
1, 169371, Note_on_c, 0, 49, 92
1, 169376, Note_on_c, 0, 37, 85
1, 169380, Note_on_c, 0, 61, 84
1, 169385, Note_on_c, 0, 73, 75
1, 169402, Note_off_c, 0, 61, 71
1, 169407, Note_off_c, 0, 73, 70
1, 169410, Note_off_c, 0, 37, 64
1, 169410, Note_off_c, 0, 49, 62
1, 169477, Note_on_c, 0, 35, 82
1, 169489, Note_on_c, 0, 71, 73
1, 169490, Note_on_c, 0, 47, 58
1, 169496, Control_c, 0, 64, 122
1, 169498, Note_off_c, 0, 35, 69
1, 169511, Control_c, 0, 64, 70
1, 169515, Note_off_c, 0, 47, 60
1, 169526, Control_c, 0, 64, 65
1, 169535, Note_on_c, 0, 69, 22
1, 169536, Note_off_c, 0, 69, 127
1, 169541, Control_c, 0, 64, 73
1, 169555, Control_c, 0, 64, 127
1, 169583, Note_on_c, 0, 56, 96
1, 169585, Note_on_c, 0, 68, 78
1, 169586, Note_on_c, 0, 44, 75
1, 169586, Note_off_c, 0, 71, 63
1, 169603, Note_off_c, 0, 56, 66
1, 169616, Note_off_c, 0, 44, 65
1, 169677, Note_on_c, 0, 66, 91
1, 169682, Note_on_c, 0, 54, 94
1, 169690, Note_on_c, 0, 42, 70
1, 169710, Note_off_c, 0, 68, 57
1, 169722, Note_off_c, 0, 42, 63
1, 169730, Note_off_c, 0, 54, 64
1, 169752, Note_off_c, 0, 66, 64
1, 169770, Note_on_c, 0, 64, 87
1, 169782, Note_on_c, 0, 40, 81
1, 169791, Note_on_c, 0, 52, 72
1, 169821, Note_off_c, 0, 64, 66
1, 169833, Note_off_c, 0, 52, 61
1, 169846, Note_on_c, 0, 41, 7
1, 169861, Note_on_c, 0, 49, 81
1, 169865, Note_off_c, 0, 40, 62
1, 169869, Note_on_c, 0, 61, 86
1, 169902, Note_off_c, 0, 41, 36
1, 169907, Note_off_c, 0, 49, 65
1, 169913, Note_off_c, 0, 61, 67
1, 169940, Control_c, 0, 64, 80
1, 169955, Control_c, 0, 64, 40
1, 169961, Note_on_c, 0, 47, 96
1, 169965, Note_on_c, 0, 59, 99
1, 169970, Control_c, 0, 64, 0
1, 169985, Control_c, 0, 64, 23
1, 169999, Control_c, 0, 64, 52
1, 170014, Control_c, 0, 64, 127
1, 170049, Note_off_c, 0, 59, 60
1, 170057, Note_off_c, 0, 47, 63
1, 170378, Control_c, 0, 64, 62
1, 170387, Note_on_c, 0, 82, 119
1, 170391, Note_on_c, 0, 30, 98
1, 170392, Note_on_c, 0, 42, 112
1, 170392, Note_on_c, 0, 85, 90
1, 170393, Control_c, 0, 64, 0
1, 170396, Note_on_c, 0, 90, 91
1, 170399, Note_on_c, 0, 94, 89
1, 170408, Note_on_c, 0, 41, 78
1, 170409, Note_off_c, 0, 41, 127
1, 170409, Note_on_c, 0, 92, 67
1, 170422, Control_c, 0, 64, 34
1, 170426, Note_off_c, 0, 30, 61
1, 170432, Note_off_c, 0, 94, 70
1, 170437, Control_c, 0, 64, 127
1, 170440, Note_off_c, 0, 42, 64
1, 170442, Note_off_c, 0, 92, 0
1, 170480, Poly_aftertouch_c, 0, 92, 127
1, 170508, Poly_aftertouch_c, 0, 40, 0
1, 170510, Poly_aftertouch_c, 0, 92, 0
1, 170514, Poly_aftertouch_c, 0, 29, 0
1, 170563, Note_off_c, 0, 82, 52
1, 170599, Note_on_c, 0, 70, 84
1, 170599, Note_off_c, 0, 90, 51
1, 170602, Note_on_c, 0, 58, 78
1, 170621, Note_off_c, 0, 70, 66
1, 170631, Note_off_c, 0, 58, 64
1, 170647, Note_off_c, 0, 85, 60
1, 170734, Note_on_c, 0, 66, 75
1, 170736, Note_on_c, 0, 90, 82
1, 170736, Note_on_c, 0, 54, 72
1, 170740, Note_on_c, 0, 78, 85
1, 170760, Note_off_c, 0, 54, 70
1, 170761, Note_off_c, 0, 66, 66
1, 170762, Note_off_c, 0, 90, 65
1, 170766, Note_off_c, 0, 78, 67
1, 170846, Note_on_c, 0, 51, 84
1, 170848, Note_on_c, 0, 63, 77
1, 170852, Note_on_c, 0, 87, 82
1, 170855, Note_on_c, 0, 75, 88
1, 170873, Note_off_c, 0, 51, 64
1, 170875, Note_off_c, 0, 63, 65
1, 170878, Note_off_c, 0, 87, 61
1, 170879, Note_off_c, 0, 75, 66
1, 170955, Note_on_c, 0, 61, 85
1, 170957, Note_on_c, 0, 49, 85
1, 170963, Note_on_c, 0, 85, 82
1, 170964, Note_on_c, 0, 73, 89
1, 170982, Note_off_c, 0, 49, 66
1, 170984, Note_on_c, 0, 51, 42
1, 170984, Note_off_c, 0, 61, 61
1, 170984, Note_off_c, 0, 85, 67
1, 170986, Note_off_c, 0, 73, 68
1, 171007, Note_off_c, 0, 51, 58
1, 171049, Note_on_c, 0, 46, 87
1, 171054, Note_on_c, 0, 58, 79
1, 171056, Note_on_c, 0, 70, 97
1, 171061, Note_on_c, 0, 82, 89
1, 171083, Note_off_c, 0, 58, 66
1, 171094, Note_off_c, 0, 70, 62
1, 171096, Note_off_c, 0, 46, 64
1, 171117, Note_off_c, 0, 82, 64
1, 171245, Control_c, 0, 64, 95
1, 171260, Control_c, 0, 64, 27
1, 171275, Control_c, 0, 64, 0
1, 171288, Note_on_c, 0, 49, 116
1, 171288, Note_on_c, 0, 44, 76
1, 171288, Note_on_c, 0, 80, 114
1, 171294, Note_on_c, 0, 37, 90
1, 171295, Note_on_c, 0, 85, 98
1, 171297, Note_on_c, 0, 90, 102
1, 171297, Note_on_c, 0, 92, 96
1, 171318, Note_on_c, 0, 48, 55
1, 171319, Note_off_c, 0, 48, 127
1, 171319, Control_c, 0, 64, 48
1, 171321, Note_on_c, 0, 39, 44
1, 171322, Note_off_c, 0, 39, 127
1, 171324, Note_off_c, 0, 37, 69
1, 171334, Control_c, 0, 64, 127
1, 171338, Note_off_c, 0, 49, 67
1, 171339, Note_off_c, 0, 44, 62
1, 171345, Note_off_c, 0, 92, 67
1, 171347, Poly_aftertouch_c, 0, 48, 0
1, 171375, Note_off_c, 0, 80, 58
1, 171388, Note_off_c, 0, 90, 65
1, 171398, Note_off_c, 0, 85, 59
1, 171517, Note_on_c, 0, 68, 88
1, 171519, Note_on_c, 0, 56, 80
1, 171530, Note_on_c, 0, 66, 69
1, 171547, Note_off_c, 0, 66, 65
1, 171563, Note_off_c, 0, 68, 61
1, 171565, Note_off_c, 0, 56, 59
1, 171681, Note_on_c, 0, 54, 82
1, 171682, Note_on_c, 0, 90, 89
1, 171683, Note_on_c, 0, 78, 94
1, 171705, Note_off_c, 0, 54, 70
1, 171708, Note_off_c, 0, 90, 67
1, 171715, Note_off_c, 0, 78, 64
1, 171807, Note_on_c, 0, 51, 80
1, 171807, Note_on_c, 0, 87, 86
1, 171809, Note_on_c, 0, 63, 74
1, 171817, Note_on_c, 0, 75, 74
1, 171830, Note_off_c, 0, 87, 65
1, 171832, Note_off_c, 0, 51, 68
1, 171833, Note_off_c, 0, 63, 69
1, 171834, Note_off_c, 0, 75, 67
1, 171904, Note_on_c, 0, 61, 83
1, 171909, Note_on_c, 0, 85, 82
1, 171910, Note_on_c, 0, 49, 81
1, 171911, Note_on_c, 0, 73, 80
1, 171920, Note_on_c, 0, 51, 52
1, 171926, Note_off_c, 0, 61, 66
1, 171929, Note_off_c, 0, 73, 73
1, 171936, Note_off_c, 0, 85, 57
1, 171937, Note_off_c, 0, 49, 67
1, 171946, Note_off_c, 0, 51, 60
1, 171999, Note_on_c, 0, 58, 85
1, 172005, Note_on_c, 0, 46, 87
1, 172009, Note_on_c, 0, 70, 85
1, 172012, Note_on_c, 0, 82, 72
1, 172026, Note_on_c, 0, 49, 39
1, 172030, Note_off_c, 0, 70, 66
1, 172039, Note_off_c, 0, 46, 63
1, 172041, Note_off_c, 0, 58, 60
1, 172043, Note_off_c, 0, 82, 61
1, 172045, Note_off_c, 0, 49, 67
1, 172098, Note_on_c, 0, 56, 86
1, 172102, Note_on_c, 0, 44, 81
1, 172104, Note_on_c, 0, 68, 88
1, 172110, Poly_aftertouch_c, 0, 51, 0
1, 172116, Note_on_c, 0, 80, 63
1, 172123, Note_on_c, 0, 46, 50
1, 172130, Note_on_c, 0, 78, 45
1, 172132, Note_off_c, 0, 56, 63
1, 172133, Note_off_c, 0, 68, 59
1, 172135, Note_off_c, 0, 44, 63
1, 172140, Note_off_c, 0, 46, 67
1, 172149, Note_off_c, 0, 80, 64
1, 172157, Note_off_c, 0, 78, 55
1, 172199, Note_on_c, 0, 42, 84
1, 172199, Note_on_c, 0, 54, 83
1, 172200, Note_on_c, 0, 66, 93
1, 172221, Note_on_c, 0, 78, 75
1, 172227, Note_off_c, 0, 54, 64
1, 172230, Note_off_c, 0, 66, 64
1, 172232, Note_off_c, 0, 42, 64
1, 172239, Note_off_c, 0, 78, 70
1, 172241, Note_on_c, 0, 44, 28
1, 172262, Note_off_c, 0, 44, 62
1, 172287, Poly_aftertouch_c, 0, 75, 0
1, 172292, Poly_aftertouch_c, 0, 46, 0
1, 172298, Note_on_c, 0, 39, 93
1, 172301, Note_on_c, 0, 51, 84
1, 172301, Note_on_c, 0, 63, 95
1, 172304, Note_on_c, 0, 75, 41
1, 172327, Note_on_c, 0, 73, 52
1, 172330, Note_on_c, 0, 49, 41
1, 172333, Note_off_c, 0, 51, 62
1, 172337, Note_off_c, 0, 39, 64
1, 172337, Note_off_c, 0, 63, 65
1, 172351, Note_off_c, 0, 75, 62
1, 172355, Note_off_c, 0, 73, 57
1, 172367, Note_off_c, 0, 49, 51
1, 172388, Note_on_c, 0, 39, 66
1, 172399, Note_on_c, 0, 49, 80
1, 172402, Note_on_c, 0, 61, 94
1, 172441, Note_on_c, 0, 73, 50
1, 172442, Note_off_c, 0, 61, 65
1, 172456, Note_off_c, 0, 39, 62
1, 172457, Note_off_c, 0, 49, 65
1, 172458, Note_on_c, 0, 70, 21
1, 172464, Note_off_c, 0, 73, 63
1, 172468, Note_on_c, 0, 50, 4
1, 172493, Note_off_c, 0, 50, 0
1, 172508, Note_on_c, 0, 58, 97
1, 172510, Note_on_c, 0, 45, 80
1, 172518, Note_off_c, 0, 70, 0
1, 172522, Poly_aftertouch_c, 0, 50, 0
1, 172528, Note_on_c, 0, 68, 60
1, 172531, Note_on_c, 0, 46, 46
1, 172534, Note_on_c, 0, 70, 40
1, 172545, Note_off_c, 0, 58, 65
1, 172553, Note_off_c, 0, 68, 59
1, 172557, Note_off_c, 0, 45, 62
1, 172557, Note_on_c, 0, 66, 15
1, 172559, Note_off_c, 0, 46, 56
1, 172560, Note_off_c, 0, 70, 56
1, 172597, Note_on_c, 0, 44, 65
1, 172599, Note_off_c, 0, 66, 0
1, 172605, Note_on_c, 0, 56, 91
1, 172613, Note_on_c, 0, 68, 91
1, 172618, Poly_aftertouch_c, 0, 66, 0
1, 172624, Note_off_c, 0, 56, 73
1, 172649, Note_off_c, 0, 68, 64
1, 172655, Poly_aftertouch_c, 0, 66, 127
1, 172658, Note_off_c, 0, 44, 62
1, 172698, Poly_aftertouch_c, 0, 66, 0
1, 172789, Control_c, 0, 64, 68
1, 172804, Control_c, 0, 64, 0
1, 172825, Note_on_c, 0, 80, 113
1, 172827, Note_on_c, 0, 49, 102
1, 172831, Note_on_c, 0, 44, 90
1, 172831, Note_on_c, 0, 85, 93
1, 172832, Note_on_c, 0, 89, 101
1, 172834, Note_on_c, 0, 92, 98
1, 172835, Note_on_c, 0, 37, 87
1, 172835, Note_on_c, 0, 42, 57
1, 172836, Note_off_c, 0, 42, 127
1, 172836, Note_on_c, 0, 41, 87
1, 172849, Control_c, 0, 64, 26
1, 172861, Note_off_c, 0, 37, 68
1, 172864, Control_c, 0, 64, 127
1, 172867, Note_off_c, 0, 41, 64
1, 172871, Note_off_c, 0, 92, 70
1, 172874, Note_off_c, 0, 49, 66
1, 172882, Note_off_c, 0, 80, 65
1, 172884, Note_off_c, 0, 89, 68
1, 172887, Note_off_c, 0, 44, 61
1, 172896, Note_off_c, 0, 85, 65
1, 172923, Poly_aftertouch_c, 0, 48, 127
1, 172961, Poly_aftertouch_c, 0, 48, 0
1, 173014, Note_on_c, 0, 68, 91
1, 173016, Note_on_c, 0, 56, 72
1, 173033, Note_off_c, 0, 68, 66
1, 173042, Note_off_c, 0, 56, 69
1, 173125, Note_on_c, 0, 89, 80
1, 173126, Note_on_c, 0, 77, 81
1, 173133, Note_on_c, 0, 65, 84
1, 173137, Note_on_c, 0, 53, 73
1, 173146, Note_off_c, 0, 89, 71
1, 173149, Note_off_c, 0, 77, 66
1, 173159, Note_off_c, 0, 65, 67
1, 173161, Note_off_c, 0, 53, 69
1, 173246, Note_on_c, 0, 87, 72
1, 173253, Note_on_c, 0, 51, 76
1, 173254, Note_on_c, 0, 63, 72
1, 173256, Note_on_c, 0, 75, 71
1, 173270, Note_off_c, 0, 87, 70
1, 173274, Note_off_c, 0, 75, 67
1, 173277, Note_off_c, 0, 63, 69
1, 173281, Note_off_c, 0, 51, 70
1, 173345, Note_on_c, 0, 61, 79
1, 173345, Note_on_c, 0, 85, 69
1, 173351, Note_on_c, 0, 49, 78
1, 173354, Note_on_c, 0, 73, 70
1, 173369, Note_on_c, 0, 51, 48
1, 173369, Note_off_c, 0, 85, 68
1, 173371, Note_off_c, 0, 73, 69
1, 173375, Note_off_c, 0, 61, 59
1, 173387, Note_off_c, 0, 49, 59
1, 173392, Note_off_c, 0, 51, 61
1, 173440, Note_on_c, 0, 82, 83
1, 173443, Note_on_c, 0, 70, 86
1, 173444, Note_on_c, 0, 58, 79
1, 173446, Note_on_c, 0, 46, 85
1, 173469, Note_off_c, 0, 58, 67
1, 173471, Note_off_c, 0, 70, 64
1, 173473, Note_off_c, 0, 46, 67
1, 173480, Note_off_c, 0, 82, 54
1, 173540, Note_on_c, 0, 44, 87
1, 173542, Note_on_c, 0, 56, 79
1, 173544, Note_on_c, 0, 68, 84
1, 173545, Note_on_c, 0, 80, 81
1, 173565, Note_off_c, 0, 80, 69
1, 173567, Note_off_c, 0, 56, 69
1, 173570, Note_off_c, 0, 68, 65
1, 173575, Note_off_c, 0, 44, 64
1, 173640, Note_on_c, 0, 53, 86
1, 173643, Note_on_c, 0, 65, 87
1, 173644, Note_on_c, 0, 41, 80
1, 173645, Poly_aftertouch_c, 0, 46, 0
1, 173647, Note_on_c, 0, 77, 82
1, 173661, Note_off_c, 0, 53, 73
1, 173664, Note_off_c, 0, 65, 69
1, 173667, Note_off_c, 0, 77, 69
1, 173668, Note_off_c, 0, 41, 67
1, 173740, Note_on_c, 0, 51, 89
1, 173745, Note_on_c, 0, 63, 88
1, 173746, Note_on_c, 0, 75, 81
1, 173749, Note_on_c, 0, 39, 77
1, 173770, Note_off_c, 0, 75, 65
1, 173773, Note_off_c, 0, 63, 62
1, 173781, Note_off_c, 0, 39, 65
1, 173793, Note_off_c, 0, 51, 61
1, 173841, Note_on_c, 0, 61, 99
1, 173843, Note_on_c, 0, 39, 73
1, 173847, Note_on_c, 0, 73, 82
1, 173856, Note_on_c, 0, 49, 55
1, 173868, Note_off_c, 0, 73, 71
1, 173874, Note_off_c, 0, 49, 65
1, 173876, Note_off_c, 0, 61, 62
1, 173899, Note_off_c, 0, 39, 56
1, 173924, Note_on_c, 0, 46, 66
1, 173951, Note_on_c, 0, 70, 69
1, 173951, Note_on_c, 0, 58, 91
1, 173985, Note_off_c, 0, 70, 61
1, 173986, Note_off_c, 0, 58, 62
1, 173994, Note_off_c, 0, 46, 64
1, 174032, Note_on_c, 0, 44, 87
1, 174045, Note_on_c, 0, 56, 90
1, 174050, Note_on_c, 0, 68, 82
1, 174063, Note_off_c, 0, 56, 73
1, 174091, Note_on_c, 0, 66, 17
1, 174094, Note_off_c, 0, 68, 59
1, 174097, Note_off_c, 0, 44, 62
1, 174137, Note_off_c, 0, 66, 47
1, 174213, Control_c, 0, 64, 66
1, 174228, Control_c, 0, 64, 0
1, 174287, Note_on_c, 0, 39, 74
1, 174287, Control_c, 0, 64, 23
1, 174293, Note_on_c, 0, 78, 96
1, 174294, Note_on_c, 0, 90, 90
1, 174296, Note_on_c, 0, 51, 62
1, 174298, Note_on_c, 0, 82, 79
1, 174302, Control_c, 0, 64, 60
1, 174302, Note_on_c, 0, 87, 73
1, 174317, Control_c, 0, 64, 127
1, 174318, Note_off_c, 0, 51, 60
1, 174320, Note_off_c, 0, 39, 66
1, 174363, Note_on_c, 0, 88, 33
1, 174398, Note_on_c, 0, 54, 81
1, 174409, Note_off_c, 0, 88, 47
1, 174412, Note_on_c, 0, 42, 53
1, 174421, Note_off_c, 0, 54, 71
1, 174438, Note_off_c, 0, 42, 56
1, 174492, Note_on_c, 0, 58, 93
1, 174496, Note_on_c, 0, 46, 83
1, 174512, Note_off_c, 0, 82, 61
1, 174516, Note_off_c, 0, 58, 63
1, 174520, Note_off_c, 0, 46, 69
1, 174524, Note_off_c, 0, 90, 65
1, 174528, Note_off_c, 0, 78, 64
1, 174595, Note_on_c, 0, 63, 94
1, 174600, Note_on_c, 0, 51, 82
1, 174622, Note_off_c, 0, 63, 63
1, 174626, Note_off_c, 0, 51, 68
1, 174684, Note_off_c, 0, 87, 24
1, 174699, Note_on_c, 0, 66, 107
1, 174702, Note_on_c, 0, 54, 87
1, 174731, Note_off_c, 0, 66, 62
1, 174734, Note_off_c, 0, 54, 66
1, 174902, Control_c, 0, 64, 59
1, 174917, Control_c, 0, 64, 0
1, 174928, Note_on_c, 0, 77, 108
1, 174928, Note_on_c, 0, 89, 98
1, 174930, Note_on_c, 0, 81, 94
1, 174933, Note_on_c, 0, 53, 98
1, 174934, Note_on_c, 0, 84, 86
1, 174937, Note_on_c, 0, 41, 95
1, 174961, Note_off_c, 0, 53, 68
1, 174961, Note_off_c, 0, 41, 70
1, 174962, Control_c, 0, 64, 58
1, 174976, Control_c, 0, 64, 127
1, 175075, Note_on_c, 0, 57, 96
1, 175080, Note_on_c, 0, 45, 92
1, 175093, Note_off_c, 0, 57, 70
1, 175101, Note_off_c, 0, 45, 68
1, 175210, Note_on_c, 0, 45, 13
1, 175211, Note_on_c, 0, 60, 97
1, 175215, Note_on_c, 0, 48, 87
1, 175231, Note_off_c, 0, 60, 68
1, 175238, Note_off_c, 0, 48, 72
1, 175240, Note_off_c, 0, 45, 43
1, 175246, Note_off_c, 0, 89, 60
1, 175257, Note_on_c, 0, 87, 8
1, 175313, Note_off_c, 0, 87, 61
1, 175340, Note_on_c, 0, 65, 99
1, 175342, Note_off_c, 0, 77, 52
1, 175347, Note_on_c, 0, 53, 90
1, 175369, Note_off_c, 0, 53, 73
1, 175375, Note_off_c, 0, 65, 68
1, 175437, Note_off_c, 0, 84, 54
1, 175486, Note_on_c, 0, 69, 101
1, 175489, Note_on_c, 0, 57, 96
1, 175511, Note_off_c, 0, 57, 68
1, 175513, Note_off_c, 0, 69, 72
1, 175630, Note_off_c, 0, 81, 31
1, 175782, Note_on_c, 0, 75, 84
1, 175784, Note_on_c, 0, 87, 82
1, 175802, Note_off_c, 0, 75, 69
1, 175803, Note_off_c, 0, 87, 71
1, 175830, Control_c, 0, 64, 79
1, 175844, Control_c, 0, 64, 21
1, 175859, Control_c, 0, 64, 0
1, 175865, Note_on_c, 0, 74, 105
1, 175870, Note_on_c, 0, 77, 92
1, 175871, Note_on_c, 0, 82, 95
1, 175871, Note_on_c, 0, 86, 94
1, 175874, Note_on_c, 0, 46, 114
1, 175875, Note_on_c, 0, 34, 99
1, 175889, Control_c, 0, 64, 50
1, 175894, Note_off_c, 0, 74, 73
1, 175898, Note_off_c, 0, 34, 70
1, 175902, Note_off_c, 0, 46, 68
1, 175904, Control_c, 0, 64, 127
1, 175905, Note_off_c, 0, 86, 63
1, 175914, Note_off_c, 0, 77, 65
1, 175921, Note_off_c, 0, 82, 65
1, 176204, Note_on_c, 0, 58, 59
1, 176210, Note_on_c, 0, 65, 61
1, 176210, Note_on_c, 0, 62, 65
1, 176233, Note_on_c, 0, 53, 40
1, 176273, Note_off_c, 0, 53, 48
1, 176278, Note_off_c, 0, 65, 61
1, 176288, Note_off_c, 0, 58, 59
1, 176297, Note_off_c, 0, 62, 58
1, 176372, Note_on_c, 0, 62, 67
1, 176376, Note_on_c, 0, 58, 70
1, 176377, Note_on_c, 0, 65, 72
1, 176381, Note_on_c, 0, 53, 54
1, 176410, Note_off_c, 0, 65, 58
1, 176411, Note_off_c, 0, 53, 57
1, 176431, Note_off_c, 0, 62, 61
1, 176432, Note_off_c, 0, 58, 59
1, 176488, Note_on_c, 0, 77, 101
1, 176491, Note_on_c, 0, 89, 92
1, 176492, Note_on_c, 0, 86, 87
1, 176495, Note_on_c, 0, 62, 70
1, 176495, Note_on_c, 0, 82, 83
1, 176498, Note_on_c, 0, 58, 68
1, 176502, Note_on_c, 0, 65, 80
1, 176511, Note_on_c, 0, 53, 54
1, 176526, Note_off_c, 0, 77, 66
1, 176532, Note_off_c, 0, 53, 61
1, 176544, Note_off_c, 0, 89, 65
1, 176547, Note_off_c, 0, 65, 60
1, 176547, Note_off_c, 0, 82, 64
1, 176548, Note_off_c, 0, 86, 59
1, 176550, Note_off_c, 0, 62, 60
1, 176554, Note_off_c, 0, 58, 63
1, 176624, Note_on_c, 0, 58, 76
1, 176624, Note_on_c, 0, 62, 83
1, 176627, Note_on_c, 0, 65, 83
1, 176636, Note_on_c, 0, 53, 46
1, 176660, Note_off_c, 0, 65, 62
1, 176669, Note_off_c, 0, 62, 65
1, 176672, Note_off_c, 0, 53, 50
1, 176675, Note_off_c, 0, 58, 62
1, 176730, Note_on_c, 0, 58, 79
1, 176731, Note_on_c, 0, 62, 92
1, 176737, Note_on_c, 0, 65, 87
1, 176742, Note_on_c, 0, 53, 76
1, 176776, Note_off_c, 0, 53, 63
1, 176782, Note_off_c, 0, 58, 64
1, 176784, Note_off_c, 0, 65, 64
1, 176785, Note_off_c, 0, 62, 62
1, 176836, Note_on_c, 0, 82, 108
1, 176844, Note_on_c, 0, 62, 92
1, 176845, Note_on_c, 0, 94, 93
1, 176845, Note_on_c, 0, 58, 90
1, 176846, Note_on_c, 0, 65, 90
1, 176846, Note_on_c, 0, 86, 87
1, 176851, Note_on_c, 0, 89, 78
1, 176853, Note_on_c, 0, 53, 70
1, 176874, Note_off_c, 0, 89, 68
1, 176879, Note_on_c, 0, 92, 42
1, 176880, Note_off_c, 0, 82, 65
1, 176881, Note_off_c, 0, 53, 64
1, 176885, Note_off_c, 0, 86, 66
1, 176890, Note_off_c, 0, 94, 68
1, 176893, Note_off_c, 0, 65, 64
1, 176901, Note_off_c, 0, 58, 63
1, 176905, Note_off_c, 0, 62, 62
1, 176909, Note_off_c, 0, 92, 50
1, 176973, Note_on_c, 0, 62, 88
1, 176976, Note_on_c, 0, 65, 95
1, 176978, Note_on_c, 0, 58, 85
1, 176985, Note_on_c, 0, 53, 72
1, 177003, Note_off_c, 0, 53, 72
1, 177014, Note_off_c, 0, 65, 65
1, 177022, Note_off_c, 0, 58, 64
1, 177024, Note_off_c, 0, 62, 62
1, 177092, Note_on_c, 0, 62, 91
1, 177092, Note_on_c, 0, 65, 103
1, 177095, Note_on_c, 0, 58, 93
1, 177098, Note_on_c, 0, 53, 74
1, 177150, Note_off_c, 0, 65, 61
1, 177152, Note_off_c, 0, 53, 61
1, 177156, Note_off_c, 0, 58, 61
1, 177162, Note_off_c, 0, 62, 60
1, 177222, Note_on_c, 0, 86, 109
1, 177224, Note_on_c, 0, 98, 100
1, 177225, Note_on_c, 0, 94, 99
1, 177226, Note_on_c, 0, 89, 91
1, 177227, Note_on_c, 0, 62, 100
1, 177227, Note_on_c, 0, 65, 98
1, 177230, Note_on_c, 0, 58, 87
1, 177235, Note_on_c, 0, 53, 76
1, 177258, Note_on_c, 0, 90, 36
1, 177259, Note_off_c, 0, 90, 127
1, 177274, Note_off_c, 0, 86, 59
1, 177279, Note_off_c, 0, 65, 60
1, 177286, Note_off_c, 0, 62, 62
1, 177286, Note_off_c, 0, 53, 64
1, 177287, Note_off_c, 0, 58, 60
1, 177292, Note_off_c, 0, 89, 65
1, 177295, Note_off_c, 0, 98, 64
1, 177314, Note_off_c, 0, 94, 66
1, 177370, Note_on_c, 0, 65, 100
1, 177373, Note_on_c, 0, 62, 91
1, 177375, Note_on_c, 0, 58, 88
1, 177380, Note_on_c, 0, 53, 81
1, 177426, Note_off_c, 0, 65, 61
1, 177441, Note_off_c, 0, 62, 62
1, 177443, Note_off_c, 0, 58, 61
1, 177444, Note_off_c, 0, 53, 64
1, 177531, Note_on_c, 0, 65, 113
1, 177533, Note_on_c, 0, 62, 100
1, 177537, Note_on_c, 0, 58, 98
1, 177540, Note_on_c, 0, 53, 90
1, 177567, Note_off_c, 0, 65, 69
1, 177582, Note_off_c, 0, 62, 63
1, 177608, Note_off_c, 0, 58, 64
1, 177608, Note_off_c, 0, 53, 66
1, 177793, Control_c, 0, 64, 117
1, 177808, Control_c, 0, 64, 50
1, 177819, Note_on_c, 0, 91, 109
1, 177823, Note_on_c, 0, 103, 105
1, 177823, Control_c, 0, 64, 0
1, 177823, Note_on_c, 0, 94, 102
1, 177824, Note_on_c, 0, 99, 101
1, 177830, Note_on_c, 0, 41, 100
1, 177831, Note_on_c, 0, 29, 98
1, 177838, Control_c, 0, 64, 19
1, 177840, Note_on_c, 0, 40, 81
1, 177853, Note_off_c, 0, 103, 66
1, 177853, Control_c, 0, 64, 127
1, 177857, Note_on_c, 0, 30, 51
1, 177858, Note_off_c, 0, 30, 127
1, 177861, Note_off_c, 0, 29, 66
1, 177861, Note_off_c, 0, 40, 63
1, 177861, Note_off_c, 0, 41, 66
1, 177867, Note_off_c, 0, 91, 59
1, 177871, Note_off_c, 0, 99, 65
1, 177888, Note_off_c, 0, 94, 69
1, 177894, Poly_aftertouch_c, 0, 30, 0
1, 178149, Note_on_c, 0, 67, 94
1, 178151, Note_on_c, 0, 63, 82
1, 178158, Note_on_c, 0, 58, 79
1, 178166, Note_on_c, 0, 53, 60
1, 178196, Note_on_c, 0, 55, 41
1, 178213, Note_off_c, 0, 67, 59
1, 178232, Note_off_c, 0, 55, 33
1, 178236, Note_off_c, 0, 58, 59
1, 178239, Note_off_c, 0, 53, 59
1, 178241, Note_off_c, 0, 63, 57
1, 178341, Note_on_c, 0, 63, 100
1, 178342, Note_on_c, 0, 67, 101
1, 178343, Note_on_c, 0, 58, 91
1, 178388, Note_off_c, 0, 67, 62
1, 178403, Note_off_c, 0, 63, 59
1, 178418, Note_off_c, 0, 58, 61
1, 178497, Note_on_c, 0, 67, 112
1, 178501, Note_on_c, 0, 63, 102
1, 178506, Note_on_c, 0, 58, 93
1, 178528, Note_off_c, 0, 67, 73
1, 178531, Note_off_c, 0, 58, 54
1, 178559, Note_off_c, 0, 63, 65
1, 178697, Note_on_c, 0, 63, 113
1, 178701, Note_on_c, 0, 75, 99
1, 178747, Note_off_c, 0, 63, 59
1, 178765, Note_off_c, 0, 75, 61
1, 179022, Note_on_c, 0, 67, 105
1, 179029, Note_on_c, 0, 79, 100
1, 179075, Note_on_c, 0, 78, 18
1, 179098, Note_off_c, 0, 67, 59
1, 179108, Note_off_c, 0, 79, 59
1, 179117, Note_off_c, 0, 78, 34
1, 179227, Note_on_c, 0, 69, 102
1, 179230, Note_on_c, 0, 81, 101
1, 179268, Note_off_c, 0, 69, 64
1, 179293, Note_on_c, 0, 41, 68
1, 179300, Note_off_c, 0, 81, 60
1, 179349, Note_on_c, 0, 51, 69
1, 179357, Note_off_c, 0, 41, 62
1, 179366, Control_c, 0, 64, 80
1, 179381, Control_c, 0, 64, 38
1, 179395, Control_c, 0, 64, 0
1, 179410, Control_c, 0, 64, 26
1, 179420, Note_on_c, 0, 57, 91
1, 179425, Control_c, 0, 64, 59
1, 179435, Note_on_c, 0, 74, 107
1, 179435, Note_on_c, 0, 86, 106
1, 179440, Control_c, 0, 64, 127
1, 179447, Note_off_c, 0, 51, 65
1, 179450, Note_off_c, 0, 57, 65
1, 179468, Note_on_c, 0, 85, 45
1, 179495, Note_off_c, 0, 85, 37
1, 179662, Note_off_c, 0, 86, 46
1, 179713, Note_off_c, 0, 74, 49
1, 179844, Note_on_c, 0, 84, 84
1, 179844, Note_on_c, 0, 72, 81
1, 179877, Note_off_c, 0, 72, 62
1, 179885, Control_c, 0, 64, 75
1, 179898, Note_off_c, 0, 84, 61
1, 179900, Control_c, 0, 64, 25
1, 179922, Control_c, 0, 64, 0
1, 179949, Note_on_c, 0, 46, 95
1, 179952, Control_c, 0, 64, 57
1, 179954, Note_on_c, 0, 34, 84
1, 179957, Note_on_c, 0, 82, 86
1, 179957, Note_on_c, 0, 70, 98
1, 179966, Control_c, 0, 64, 127
1, 179971, Note_off_c, 0, 46, 71
1, 179975, Note_off_c, 0, 82, 73
1, 179979, Note_off_c, 0, 34, 68
1, 179989, Note_off_c, 0, 70, 66
1, 180179, Note_on_c, 0, 58, 62
1, 180185, Note_on_c, 0, 62, 49
1, 180210, Note_off_c, 0, 58, 64
1, 180220, Note_on_c, 0, 65, 8
1, 180221, Note_off_c, 0, 62, 59
1, 180282, Note_on_c, 0, 58, 64
1, 180297, Note_on_c, 0, 62, 42
1, 180313, Note_off_c, 0, 58, 66
1, 180327, Note_off_c, 0, 62, 55
1, 180347, Note_off_c, 0, 65, 41
1, 180403, Note_on_c, 0, 50, 77
1, 180405, Note_on_c, 0, 62, 58
1, 180406, Note_on_c, 0, 38, 75
1, 180434, Note_off_c, 0, 50, 61
1, 180434, Note_off_c, 0, 62, 65
1, 180439, Note_off_c, 0, 38, 63
1, 180445, Poly_aftertouch_c, 0, 65, 127
1, 180503, Note_on_c, 0, 65, 24
1, 180507, Note_on_c, 0, 62, 66
1, 180532, Note_off_c, 0, 62, 68
1, 180544, Note_off_c, 0, 65, 61
1, 180600, Note_on_c, 0, 62, 76
1, 180614, Note_on_c, 0, 65, 53
1, 180637, Note_off_c, 0, 65, 65
1, 180640, Note_off_c, 0, 62, 60
1, 180715, Note_on_c, 0, 62, 71
1, 180716, Note_on_c, 0, 65, 71
1, 180717, Note_on_c, 0, 53, 90
1, 180720, Note_on_c, 0, 41, 82
1, 180750, Note_off_c, 0, 65, 65
1, 180756, Note_off_c, 0, 62, 61
1, 180762, Note_off_c, 0, 41, 63
1, 180773, Note_off_c, 0, 53, 61
1, 180819, Note_on_c, 0, 62, 70
1, 180827, Note_on_c, 0, 65, 65
1, 180851, Note_off_c, 0, 65, 68
1, 180868, Note_off_c, 0, 62, 61
1, 180923, Note_on_c, 0, 62, 63
1, 180928, Note_on_c, 0, 53, 68
1, 180942, Note_on_c, 0, 65, 53
1, 180946, Note_off_c, 0, 53, 68
1, 180956, Note_off_c, 0, 62, 53
1, 180961, Note_off_c, 0, 65, 66
1, 181024, Note_on_c, 0, 53, 63
1, 181033, Note_on_c, 0, 58, 93
1, 181036, Note_on_c, 0, 46, 87
1, 181037, Note_on_c, 0, 65, 60
1, 181040, Note_on_c, 0, 62, 74
1, 181055, Note_off_c, 0, 58, 67
1, 181066, Note_off_c, 0, 46, 65
1, 181072, Note_off_c, 0, 65, 64
1, 181078, Note_off_c, 0, 62, 59
1, 181081, Note_off_c, 0, 53, 62
1, 181127, Note_on_c, 0, 53, 60
1, 181132, Note_on_c, 0, 62, 72
1, 181156, Note_on_c, 0, 65, 50
1, 181169, Note_off_c, 0, 53, 64
1, 181177, Note_off_c, 0, 65, 64
1, 181179, Note_off_c, 0, 62, 61
1, 181226, Note_on_c, 0, 53, 66
1, 181236, Note_on_c, 0, 62, 64
1, 181239, Note_on_c, 0, 65, 75
1, 181251, Note_off_c, 0, 53, 71
1, 181262, Note_off_c, 0, 62, 67
1, 181269, Note_off_c, 0, 65, 67
1, 181442, Note_on_c, 0, 42, 103
1, 181444, Note_on_c, 0, 30, 89
1, 181448, Control_c, 0, 64, 63
1, 181462, Control_c, 0, 64, 0
1, 181489, Note_on_c, 0, 76, 95
1, 181492, Note_on_c, 0, 73, 105
1, 181492, Control_c, 0, 64, 23
1, 181495, Note_on_c, 0, 85, 95
1, 181507, Control_c, 0, 64, 127
1, 181513, Note_off_c, 0, 30, 62
1, 181513, Note_off_c, 0, 42, 62
1, 181576, Poly_aftertouch_c, 0, 82, 127
1, 181580, Note_on_c, 0, 82, 2
1, 181653, Note_on_c, 0, 42, 72
1, 181660, Note_on_c, 0, 54, 67
1, 181681, Note_off_c, 0, 54, 66
1, 181683, Note_off_c, 0, 42, 65
1, 181769, Note_on_c, 0, 58, 74
1, 181769, Note_on_c, 0, 46, 67
1, 181784, Note_off_c, 0, 58, 68
1, 181794, Note_off_c, 0, 46, 61
1, 181862, Note_on_c, 0, 61, 94
1, 181864, Note_on_c, 0, 49, 79
1, 181886, Note_off_c, 0, 61, 60
1, 181893, Note_off_c, 0, 49, 69
1, 181935, Note_off_c, 0, 85, 53
1, 181961, Note_on_c, 0, 64, 92
1, 181966, Note_on_c, 0, 52, 88
1, 181966, Note_off_c, 0, 73, 61
1, 181978, Note_off_c, 0, 64, 73
1, 181987, Note_off_c, 0, 52, 74
1, 182006, Note_off_c, 0, 82, 41
1, 182052, Note_off_c, 0, 76, 30
1, 182145, Control_c, 0, 64, 79
1, 182167, Control_c, 0, 64, 43
1, 182182, Control_c, 0, 64, 0
1, 182196, Note_on_c, 0, 76, 99
1, 182199, Note_on_c, 0, 72, 101
1, 182199, Note_on_c, 0, 84, 103
1, 182214, Note_on_c, 0, 43, 95
1, 182217, Note_on_c, 0, 31, 95
1, 182243, Note_off_c, 0, 43, 67
1, 182246, Note_off_c, 0, 31, 69
1, 182271, Control_c, 0, 64, 56
1, 182285, Control_c, 0, 64, 127
1, 182434, Note_on_c, 0, 55, 81
1, 182436, Note_on_c, 0, 43, 68
1, 182458, Note_off_c, 0, 43, 62
1, 182461, Note_off_c, 0, 55, 70
1, 182503, Note_off_c, 0, 84, 57
1, 182542, Note_off_c, 0, 72, 54
1, 182543, Note_on_c, 0, 58, 95
1, 182546, Note_on_c, 0, 46, 81
1, 182565, Note_off_c, 0, 58, 66
1, 182571, Note_off_c, 0, 46, 69
1, 182649, Note_on_c, 0, 61, 99
1, 182653, Note_on_c, 0, 49, 84
1, 182679, Note_off_c, 0, 49, 68
1, 182688, Note_off_c, 0, 61, 61
1, 182754, Note_on_c, 0, 64, 98
1, 182759, Note_on_c, 0, 52, 94
1, 182778, Note_off_c, 0, 64, 65
1, 182783, Note_off_c, 0, 52, 70
1, 182853, Note_off_c, 0, 76, 48
1, 182997, Note_on_c, 0, 82, 81
1, 183001, Note_on_c, 0, 70, 80
1, 183023, Note_off_c, 0, 70, 68
1, 183035, Note_off_c, 0, 82, 52
1, 183035, Control_c, 0, 64, 72
1, 183050, Control_c, 0, 64, 22
1, 183065, Control_c, 0, 64, 0
1, 183094, Note_on_c, 0, 68, 103
1, 183099, Note_on_c, 0, 32, 89
1, 183099, Note_on_c, 0, 44, 97
1, 183099, Note_on_c, 0, 80, 84
1, 183102, Note_on_c, 0, 77, 79
1, 183109, Control_c, 0, 64, 30
1, 183121, Note_off_c, 0, 32, 67
1, 183123, Note_off_c, 0, 44, 68
1, 183123, Note_off_c, 0, 80, 66
1, 183124, Control_c, 0, 64, 127
1, 183125, Note_off_c, 0, 68, 61
1, 183135, Note_off_c, 0, 77, 62
1, 183391, Note_on_c, 0, 61, 66
1, 183394, Note_on_c, 0, 65, 66
1, 183398, Note_on_c, 0, 56, 62
1, 183410, Note_on_c, 0, 53, 41
1, 183428, Note_off_c, 0, 65, 60
1, 183431, Note_off_c, 0, 61, 62
1, 183432, Note_off_c, 0, 56, 64
1, 183440, Note_off_c, 0, 53, 57
1, 183511, Note_on_c, 0, 65, 61
1, 183516, Note_on_c, 0, 56, 59
1, 183516, Note_on_c, 0, 61, 61
1, 183537, Note_on_c, 0, 53, 37
1, 183546, Note_off_c, 0, 61, 67
1, 183546, Note_off_c, 0, 65, 63
1, 183550, Note_off_c, 0, 56, 65
1, 183578, Note_off_c, 0, 53, 45
1, 183622, Note_on_c, 0, 61, 70
1, 183629, Note_on_c, 0, 65, 65
1, 183633, Note_on_c, 0, 73, 89
1, 183635, Note_on_c, 0, 56, 68
1, 183636, Note_on_c, 0, 85, 87
1, 183638, Note_on_c, 0, 80, 85
1, 183642, Note_on_c, 0, 77, 80
1, 183661, Note_on_c, 0, 53, 38
1, 183664, Note_off_c, 0, 73, 62
1, 183670, Note_off_c, 0, 77, 70
1, 183672, Note_off_c, 0, 56, 63
1, 183676, Note_off_c, 0, 65, 63
1, 183680, Note_off_c, 0, 61, 62
1, 183683, Note_off_c, 0, 80, 60
1, 183687, Note_off_c, 0, 85, 65
1, 183689, Note_off_c, 0, 53, 55
1, 183758, Note_on_c, 0, 61, 75
1, 183761, Note_on_c, 0, 56, 71
1, 183762, Note_on_c, 0, 65, 77
1, 183769, Note_on_c, 0, 53, 58
1, 183788, Note_off_c, 0, 65, 64
1, 183791, Note_off_c, 0, 56, 64
1, 183792, Note_off_c, 0, 53, 66
1, 183802, Note_off_c, 0, 61, 63
1, 183865, Note_on_c, 0, 61, 84
1, 183865, Note_on_c, 0, 65, 86
1, 183867, Note_on_c, 0, 53, 71
1, 183869, Note_on_c, 0, 56, 80
1, 183918, Note_off_c, 0, 61, 63
1, 183919, Note_off_c, 0, 53, 61
1, 183922, Note_off_c, 0, 56, 62
1, 183922, Note_off_c, 0, 65, 62
1, 183977, Note_on_c, 0, 77, 108
1, 183982, Note_on_c, 0, 61, 81
1, 183982, Note_on_c, 0, 89, 98
1, 183983, Note_on_c, 0, 65, 75
1, 183983, Note_on_c, 0, 85, 90
1, 183984, Note_on_c, 0, 80, 92
1, 183985, Note_on_c, 0, 56, 69
1, 183988, Note_on_c, 0, 53, 61
1, 184010, Note_off_c, 0, 77, 67
1, 184019, Note_off_c, 0, 85, 67
1, 184020, Note_off_c, 0, 53, 65
1, 184022, Note_off_c, 0, 89, 64
1, 184029, Note_off_c, 0, 61, 64
1, 184032, Note_off_c, 0, 80, 60
1, 184035, Note_on_c, 0, 87, 8
1, 184036, Note_off_c, 0, 87, 127
1, 184036, Note_off_c, 0, 65, 62
1, 184040, Note_off_c, 0, 56, 64
1, 184110, Note_on_c, 0, 61, 90
1, 184110, Note_on_c, 0, 65, 90
1, 184116, Note_on_c, 0, 56, 72
1, 184120, Note_on_c, 0, 53, 72
1, 184154, Note_off_c, 0, 53, 63
1, 184154, Note_off_c, 0, 61, 64
1, 184160, Note_off_c, 0, 56, 63
1, 184164, Note_off_c, 0, 65, 63
1, 184230, Note_on_c, 0, 65, 89
1, 184232, Note_on_c, 0, 61, 90
1, 184234, Note_on_c, 0, 56, 75
1, 184235, Note_on_c, 0, 53, 70
1, 184291, Note_off_c, 0, 53, 62
1, 184294, Note_off_c, 0, 65, 58
1, 184295, Note_off_c, 0, 61, 62
1, 184301, Note_off_c, 0, 56, 64
1, 184371, Note_on_c, 0, 80, 111
1, 184379, Note_on_c, 0, 65, 100
1, 184379, Note_on_c, 0, 89, 90
1, 184381, Note_on_c, 0, 85, 84
1, 184381, Note_on_c, 0, 92, 96
1, 184382, Note_on_c, 0, 61, 96
1, 184382, Note_on_c, 0, 56, 83
1, 184390, Note_on_c, 0, 53, 75
1, 184444, Note_off_c, 0, 65, 58
1, 184445, Note_off_c, 0, 53, 44
1, 184454, Note_off_c, 0, 61, 61
1, 184459, Note_off_c, 0, 56, 62
1, 184530, Note_on_c, 0, 65, 98
1, 184534, Note_on_c, 0, 61, 91
1, 184537, Note_on_c, 0, 56, 74
1, 184543, Note_on_c, 0, 53, 76
1, 184552, Note_off_c, 0, 85, 60
1, 184564, Note_off_c, 0, 80, 53
1, 184569, Note_off_c, 0, 92, 56
1, 184581, Note_off_c, 0, 89, 61
1, 184594, Note_off_c, 0, 65, 61
1, 184602, Note_off_c, 0, 53, 62
1, 184606, Note_off_c, 0, 61, 62
1, 184611, Note_off_c, 0, 56, 64
1, 184689, Note_on_c, 0, 65, 105
1, 184692, Note_on_c, 0, 61, 97
1, 184698, Note_on_c, 0, 56, 84
1, 184704, Note_on_c, 0, 53, 77
1, 184733, Note_off_c, 0, 65, 66
1, 184754, Note_off_c, 0, 61, 63
1, 184756, Note_off_c, 0, 53, 62
1, 184772, Note_off_c, 0, 56, 63
1, 185008, Control_c, 0, 64, 95
1, 185023, Control_c, 0, 64, 39
1, 185026, Note_on_c, 0, 81, 105
1, 185029, Note_on_c, 0, 85, 94
1, 185032, Note_on_c, 0, 93, 104
1, 185033, Note_on_c, 0, 90, 94
1, 185036, Note_on_c, 0, 44, 106
1, 185038, Control_c, 0, 64, 0
1, 185043, Note_on_c, 0, 32, 89
1, 185051, Note_on_c, 0, 34, 69
1, 185052, Note_off_c, 0, 34, 127
1, 185064, Note_off_c, 0, 44, 66
1, 185067, Control_c, 0, 64, 54
1, 185070, Note_off_c, 0, 32, 66
1, 185082, Control_c, 0, 64, 127
1, 185452, Note_on_c, 0, 69, 93
1, 185462, Note_on_c, 0, 66, 80
1, 185468, Note_on_c, 0, 61, 70
1, 185472, Note_on_c, 0, 57, 66
1, 185567, Note_off_c, 0, 57, 58
1, 185572, Note_off_c, 0, 69, 62
1, 185583, Note_off_c, 0, 66, 56
1, 185591, Note_off_c, 0, 61, 61
1, 185675, Note_on_c, 0, 69, 97
1, 185679, Note_on_c, 0, 66, 94
1, 185687, Note_on_c, 0, 61, 86
1, 185691, Note_on_c, 0, 57, 66
1, 185713, Note_off_c, 0, 93, 34
1, 185728, Note_off_c, 0, 57, 52
1, 185756, Note_off_c, 0, 69, 61
1, 185763, Note_off_c, 0, 61, 62
1, 185763, Note_off_c, 0, 66, 61
1, 185797, Note_off_c, 0, 81, 53
1, 185818, Note_off_c, 0, 90, 63
1, 185833, Note_on_c, 0, 69, 108
1, 185840, Note_on_c, 0, 66, 96
1, 185844, Note_on_c, 0, 61, 83
1, 185846, Note_off_c, 0, 85, 58
1, 185850, Note_on_c, 0, 57, 61
1, 185867, Note_off_c, 0, 57, 66
1, 185880, Note_off_c, 0, 69, 70
1, 185881, Note_off_c, 0, 61, 59
1, 185885, Note_off_c, 0, 66, 63
1, 186304, Note_on_c, 0, 54, 101
1, 186388, Control_c, 0, 64, 68
1, 186403, Control_c, 0, 64, 51
1, 186418, Control_c, 0, 64, 14
1, 186433, Control_c, 0, 64, 0
1, 186447, Control_c, 0, 64, 17
1, 186462, Control_c, 0, 64, 44
1, 186477, Control_c, 0, 64, 63
1, 186492, Control_c, 0, 64, 113
1, 186506, Control_c, 0, 64, 127
1, 186720, Note_off_c, 0, 54, 61
1, 186766, Control_c, 0, 64, 62
1, 186780, Control_c, 0, 64, 0
1, 186781, Note_on_c, 0, 57, 98
1, 186825, Control_c, 0, 64, 36
1, 186841, Control_c, 0, 64, 66
1, 186856, Control_c, 0, 64, 127
1, 187010, Note_off_c, 0, 57, 60
1, 187061, Note_on_c, 0, 60, 98
1, 187063, Control_c, 0, 64, 73
1, 187077, Control_c, 0, 64, 72
1, 187092, Control_c, 0, 64, 92
1, 187107, Control_c, 0, 64, 127
1, 187236, Note_on_c, 0, 32, 71
1, 187252, Note_off_c, 0, 60, 61
1, 187305, Note_off_c, 0, 32, 62
1, 187307, Note_on_c, 0, 54, 64
1, 187314, Note_on_c, 0, 57, 59
1, 187333, Note_off_c, 0, 54, 68
1, 187336, Note_off_c, 0, 57, 65
1, 187393, Note_on_c, 0, 65, 107
1, 187403, Note_on_c, 0, 48, 83
1, 187425, Note_off_c, 0, 65, 66
1, 188269, Note_on_c, 0, 63, 87
1, 188283, Note_off_c, 0, 48, 64
1, 188328, Note_off_c, 0, 63, 63
1, 188366, Control_c, 0, 64, 77
1, 188367, Note_on_c, 0, 61, 100
1, 188371, Note_on_c, 0, 53, 84
1, 188372, Note_on_c, 0, 56, 86
1, 188373, Note_on_c, 0, 44, 83
1, 188373, Note_on_c, 0, 49, 94
1, 188375, Note_on_c, 0, 37, 78
1, 188381, Control_c, 0, 64, 53
1, 188396, Control_c, 0, 64, 0
1, 188442, Control_c, 0, 64, 30
1, 188444, Note_off_c, 0, 53, 66
1, 188447, Note_off_c, 0, 49, 66
1, 188447, Note_off_c, 0, 56, 65
1, 188449, Note_off_c, 0, 44, 63
1, 188451, Note_off_c, 0, 37, 64
1, 188456, Control_c, 0, 64, 60
1, 188461, Note_off_c, 0, 61, 66
1, 188471, Control_c, 0, 64, 127
1, 188826, Control_c, 0, 64, 68
1, 188841, Control_c, 0, 64, 25
1, 188856, Control_c, 0, 64, 0
1, 189093, Note_on_c, 0, 62, 88
1, 189095, Note_on_c, 0, 50, 84
1, 189112, Note_off_c, 0, 62, 71
1, 189117, Note_off_c, 0, 50, 70
1, 189158, Note_on_c, 0, 62, 105
1, 189166, Note_on_c, 0, 50, 93
1, 189353, Control_c, 0, 64, 27
1, 189368, Control_c, 0, 64, 48
1, 189383, Control_c, 0, 64, 63
1, 189397, Control_c, 0, 64, 127
1, 189780, Note_off_c, 0, 62, 55
1, 189965, Note_off_c, 0, 50, 55
1, 190324, Note_on_c, 0, 56, 80
1, 190329, Note_on_c, 0, 44, 71
1, 190346, Note_off_c, 0, 56, 68
1, 190361, Note_off_c, 0, 44, 64
1, 190404, Note_on_c, 0, 56, 91
1, 190414, Note_on_c, 0, 44, 91
1, 190874, Note_off_c, 0, 56, 51
1, 191232, Note_off_c, 0, 44, 36
1, 191578, Note_on_c, 0, 50, 79
1, 191581, Note_on_c, 0, 38, 75
1, 191604, Note_off_c, 0, 50, 66
1, 191610, Note_off_c, 0, 38, 64
1, 191663, Note_on_c, 0, 50, 83
1, 191669, Note_on_c, 0, 38, 80
1, 191750, Note_off_c, 0, 50, 59
1, 191776, Note_off_c, 0, 38, 58
1, 192149, Note_on_c, 0, 44, 86
1, 192151, Note_on_c, 0, 32, 80
1, 192174, Note_off_c, 0, 44, 65
1, 192181, Note_off_c, 0, 32, 63
1, 192227, Note_on_c, 0, 44, 92
1, 192231, Note_on_c, 0, 32, 88
1, 192314, Note_off_c, 0, 44, 60
1, 192322, Note_off_c, 0, 32, 61
1, 192921, Note_on_c, 0, 38, 91
1, 192923, Note_on_c, 0, 26, 87
1, 192961, Note_off_c, 0, 38, 62
1, 192963, Note_off_c, 0, 26, 61
1, 193037, Note_on_c, 0, 38, 88
1, 193040, Note_on_c, 0, 26, 79
1, 193186, Control_c, 0, 64, 92
1, 193201, Control_c, 0, 64, 78
1, 193217, Control_c, 0, 64, 68
1, 193232, Control_c, 0, 64, 61
1, 193246, Control_c, 0, 64, 52
1, 193261, Control_c, 0, 64, 40
1, 193276, Control_c, 0, 64, 22
1, 193290, Control_c, 0, 64, 0
1, 194316, Note_on_c, 0, 53, 83
1, 194329, Note_on_c, 0, 47, 64
1, 194341, Note_on_c, 0, 44, 54
1, 194942, Control_c, 0, 64, 12
1, 194957, Control_c, 0, 64, 31
1, 194972, Control_c, 0, 64, 44
1, 194987, Control_c, 0, 64, 58
1, 195002, Control_c, 0, 64, 70
1, 195016, Control_c, 0, 64, 105
1, 195031, Control_c, 0, 64, 127
1, 195171, Note_off_c, 0, 47, 51
1, 195220, Note_off_c, 0, 53, 35
1, 195310, Note_off_c, 0, 44, 44
1, 195441, Note_on_c, 0, 54, 87
1, 195453, Note_on_c, 0, 45, 75
1, 195458, Note_on_c, 0, 48, 75
1, 195490, Control_c, 0, 64, 86
1, 195505, Control_c, 0, 64, 65
1, 195520, Control_c, 0, 64, 53
1, 195534, Control_c, 0, 64, 22
1, 195549, Control_c, 0, 64, 0
1, 196091, Control_c, 0, 64, 17
1, 196106, Control_c, 0, 64, 36
1, 196121, Control_c, 0, 64, 50
1, 196135, Control_c, 0, 64, 62
1, 196150, Control_c, 0, 64, 74
1, 196165, Control_c, 0, 64, 103
1, 196180, Control_c, 0, 64, 127
1, 196210, Note_off_c, 0, 45, 36
1, 196270, Note_off_c, 0, 54, 37
1, 196302, Note_off_c, 0, 48, 36
1, 196727, Note_on_c, 0, 55, 87
1, 196738, Note_on_c, 0, 46, 81
1, 196739, Note_on_c, 0, 50, 76
1, 196767, Control_c, 0, 64, 72
1, 196782, Control_c, 0, 64, 54
1, 196796, Control_c, 0, 64, 27
1, 196811, Control_c, 0, 64, 0
1, 196855, Control_c, 0, 64, 8
1, 196870, Control_c, 0, 64, 38
1, 196885, Control_c, 0, 64, 54
1, 196900, Control_c, 0, 64, 69
1, 196914, Control_c, 0, 64, 107
1, 196929, Control_c, 0, 64, 127
1, 196946, Note_off_c, 0, 46, 63
1, 196955, Note_off_c, 0, 50, 60
1, 196977, Note_off_c, 0, 55, 62
1, 197350, Note_on_c, 0, 62, 84
1, 197368, Note_on_c, 0, 57, 73
1, 197369, Note_on_c, 0, 50, 69
1, 197375, Note_on_c, 0, 55, 73
1, 197411, Control_c, 0, 64, 82
1, 197426, Control_c, 0, 64, 63
1, 197441, Control_c, 0, 64, 48
1, 197456, Control_c, 0, 64, 32
1, 197471, Control_c, 0, 64, 27
1, 197486, Control_c, 0, 64, 34
1, 197501, Control_c, 0, 64, 44
1, 197516, Control_c, 0, 64, 55
1, 197530, Control_c, 0, 64, 64
1, 197545, Control_c, 0, 64, 78
1, 197560, Control_c, 0, 64, 89
1, 197575, Control_c, 0, 64, 98
1, 197590, Control_c, 0, 64, 108
1, 197605, Control_c, 0, 64, 127
1, 197680, Note_off_c, 0, 38, 60
1, 197838, Note_on_c, 0, 39, 77
1, 197841, Note_on_c, 0, 27, 69
1, 197947, Note_off_c, 0, 55, 62
1, 198075, Note_off_c, 0, 26, 33
1, 198099, Note_on_c, 0, 54, 81
1, 198159, Control_c, 0, 64, 85
1, 198174, Control_c, 0, 64, 67
1, 198189, Control_c, 0, 64, 58
1, 198204, Control_c, 0, 64, 49
1, 198219, Control_c, 0, 64, 44
1, 198234, Control_c, 0, 64, 48
1, 198238, Note_off_c, 0, 39, 49
1, 198249, Control_c, 0, 64, 55
1, 198264, Control_c, 0, 64, 63
1, 198278, Control_c, 0, 64, 75
1, 198293, Control_c, 0, 64, 107
1, 198308, Control_c, 0, 64, 127
1, 198376, Note_off_c, 0, 27, 59
1, 198389, Note_on_c, 0, 38, 92
1, 198390, Note_off_c, 0, 62, 47
1, 198394, Note_on_c, 0, 26, 78
1, 198409, Note_off_c, 0, 50, 49
1, 198526, Note_off_c, 0, 57, 60
1, 198559, Note_off_c, 0, 26, 58
1, 198576, Note_off_c, 0, 54, 64
1, 198593, Note_off_c, 0, 38, 61
1, 198647, Note_on_c, 0, 50, 73
1, 198652, Note_on_c, 0, 62, 65
1, 198673, Note_off_c, 0, 50, 66
1, 198681, Note_off_c, 0, 62, 66
1, 198715, Control_c, 0, 64, 65
1, 198726, Note_on_c, 0, 50, 97
1, 198726, Note_on_c, 0, 59, 77
1, 198730, Note_on_c, 0, 62, 87
1, 198730, Control_c, 0, 64, 29
1, 198732, Note_on_c, 0, 43, 93
1, 198737, Note_on_c, 0, 31, 85
1, 198739, Note_on_c, 0, 56, 54
1, 198740, Note_off_c, 0, 56, 127
1, 198743, Note_on_c, 0, 55, 80
1, 198745, Control_c, 0, 64, 0
1, 198756, Note_off_c, 0, 43, 66
1, 198756, Note_off_c, 0, 31, 67
1, 198759, Control_c, 0, 64, 10
1, 198774, Control_c, 0, 64, 42
1, 198789, Control_c, 0, 64, 68
1, 198791, Note_off_c, 0, 50, 63
1, 198804, Control_c, 0, 64, 127
1, 198814, Note_off_c, 0, 62, 57
1, 198830, Note_off_c, 0, 55, 64
1, 198838, Note_off_c, 0, 59, 60
1, 199057, Control_c, 0, 64, 53
1, 199072, Control_c, 0, 64, 0
1, 199460, Note_on_c, 0, 71, 93
1, 199467, Note_on_c, 0, 59, 82
1, 199486, Note_off_c, 0, 59, 71
1, 199489, Note_off_c, 0, 71, 66
1, 199545, Note_on_c, 0, 71, 100
1, 199549, Note_on_c, 0, 59, 96
1, 199658, Control_c, 0, 64, 36
1, 199673, Control_c, 0, 64, 52
1, 199688, Control_c, 0, 64, 68
1, 199703, Control_c, 0, 64, 127
1, 200064, Note_off_c, 0, 71, 50
1, 200215, Note_off_c, 0, 59, 54
1, 200671, Note_on_c, 0, 65, 90
1, 200672, Note_on_c, 0, 53, 88
1, 200691, Note_off_c, 0, 65, 70
1, 200698, Note_off_c, 0, 53, 67
1, 200746, Note_on_c, 0, 65, 93
1, 200749, Note_on_c, 0, 53, 84
1, 201195, Note_off_c, 0, 65, 50
1, 201653, Note_off_c, 0, 53, 37
1, 201911, Note_on_c, 0, 59, 77
1, 201915, Note_on_c, 0, 47, 80
1, 201933, Note_off_c, 0, 59, 69
1, 201938, Note_off_c, 0, 47, 68
1, 201988, Note_on_c, 0, 59, 87
1, 201989, Note_on_c, 0, 47, 87
1, 202056, Note_off_c, 0, 59, 56
1, 202082, Note_off_c, 0, 47, 60
1, 202442, Note_on_c, 0, 53, 89
1, 202444, Note_on_c, 0, 41, 84
1, 202472, Note_off_c, 0, 41, 67
1, 202475, Note_off_c, 0, 53, 65
1, 202520, Note_on_c, 0, 53, 91
1, 202524, Note_on_c, 0, 41, 85
1, 202673, Note_off_c, 0, 53, 61
1, 202793, Note_off_c, 0, 41, 51
1, 203055, Note_on_c, 0, 47, 90
1, 203059, Note_on_c, 0, 35, 81
1, 203087, Note_off_c, 0, 47, 65
1, 203091, Note_off_c, 0, 35, 65
1, 203146, Note_on_c, 0, 47, 87
1, 203152, Note_on_c, 0, 35, 84
1, 203250, Note_off_c, 0, 47, 60
1, 203261, Note_off_c, 0, 35, 63
1, 203824, Note_on_c, 0, 41, 91
1, 203829, Note_on_c, 0, 29, 82
1, 203877, Note_off_c, 0, 29, 63
1, 203880, Note_off_c, 0, 41, 61
1, 203951, Note_on_c, 0, 41, 91
1, 203957, Note_on_c, 0, 29, 82
1, 204047, Control_c, 0, 64, 104
1, 204062, Control_c, 0, 64, 72
1, 204077, Control_c, 0, 64, 59
1, 204091, Control_c, 0, 64, 42
1, 204106, Control_c, 0, 64, 0
1, 205149, Note_on_c, 0, 56, 83
1, 205167, Note_on_c, 0, 47, 68
1, 205169, Note_on_c, 0, 50, 66
1, 205826, Control_c, 0, 64, 16
1, 205841, Control_c, 0, 64, 30
1, 205856, Control_c, 0, 64, 47
1, 205870, Control_c, 0, 64, 62
1, 205885, Control_c, 0, 64, 84
1, 205900, Control_c, 0, 64, 127
1, 205931, Note_off_c, 0, 47, 37
1, 205961, Note_off_c, 0, 50, 57
1, 205978, Note_off_c, 0, 56, 54
1, 206408, Note_on_c, 0, 57, 91
1, 206416, Note_on_c, 0, 51, 78
1, 206424, Note_on_c, 0, 48, 75
1, 206456, Control_c, 0, 64, 88
1, 206471, Control_c, 0, 64, 69
1, 206486, Control_c, 0, 64, 59
1, 206500, Control_c, 0, 64, 43
1, 206515, Control_c, 0, 64, 0
1, 206923, Control_c, 0, 64, 12
1, 206938, Control_c, 0, 64, 26
1, 206953, Control_c, 0, 64, 36
1, 206968, Control_c, 0, 64, 45
1, 206982, Control_c, 0, 64, 54
1, 206997, Control_c, 0, 64, 61
1, 207012, Control_c, 0, 64, 66
1, 207027, Control_c, 0, 64, 68
1, 207042, Control_c, 0, 64, 71
1, 207056, Control_c, 0, 64, 75
1, 207071, Control_c, 0, 64, 84
1, 207086, Control_c, 0, 64, 103
1, 207099, Note_off_c, 0, 57, 56
1, 207101, Control_c, 0, 64, 127
1, 207105, Note_off_c, 0, 48, 36
1, 207195, Note_off_c, 0, 51, 37
1, 208189, Control_c, 0, 64, 114
1, 208192, Note_on_c, 0, 58, 76
1, 208204, Control_c, 0, 64, 89
1, 208208, Note_on_c, 0, 53, 60
1, 208214, Note_on_c, 0, 49, 60
1, 208219, Control_c, 0, 64, 75
1, 208234, Control_c, 0, 64, 65
1, 208249, Control_c, 0, 64, 58
1, 208263, Control_c, 0, 64, 44
1, 208278, Control_c, 0, 64, 15
1, 208293, Control_c, 0, 64, 0
1, 208420, Control_c, 0, 64, 19
1, 208435, Control_c, 0, 64, 31
1, 208450, Control_c, 0, 64, 40
1, 208464, Control_c, 0, 64, 50
1, 208479, Control_c, 0, 64, 59
1, 208494, Control_c, 0, 64, 65
1, 208509, Control_c, 0, 64, 69
1, 208524, Control_c, 0, 64, 75
1, 208539, Control_c, 0, 64, 80
1, 208540, Note_off_c, 0, 49, 52
1, 208554, Control_c, 0, 64, 86
1, 208564, Note_off_c, 0, 53, 36
1, 208568, Control_c, 0, 64, 96
1, 208583, Control_c, 0, 64, 114
1, 208598, Control_c, 0, 64, 127
1, 208727, Note_off_c, 0, 58, 63
1, 209153, Control_c, 0, 64, 122
1, 209168, Control_c, 0, 64, 103
1, 209170, Note_on_c, 0, 65, 69
1, 209183, Control_c, 0, 64, 91
1, 209186, Note_on_c, 0, 60, 56
1, 209193, Note_on_c, 0, 53, 45
1, 209198, Control_c, 0, 64, 76
1, 209211, Note_on_c, 0, 58, 44
1, 209213, Control_c, 0, 64, 65
1, 209228, Control_c, 0, 64, 56
1, 209242, Control_c, 0, 64, 39
1, 209257, Control_c, 0, 64, 0
1, 209302, Control_c, 0, 64, 20
1, 209317, Control_c, 0, 64, 32
1, 209332, Control_c, 0, 64, 41
1, 209347, Control_c, 0, 64, 50
1, 209361, Control_c, 0, 64, 59
1, 209376, Control_c, 0, 64, 64
1, 209391, Control_c, 0, 64, 68
1, 209406, Control_c, 0, 64, 71
1, 209421, Control_c, 0, 64, 73
1, 209435, Control_c, 0, 64, 75
1, 209450, Control_c, 0, 64, 77
1, 209465, Control_c, 0, 64, 80
1, 209480, Control_c, 0, 64, 82
1, 209495, Control_c, 0, 64, 84
1, 209509, Control_c, 0, 64, 86
1, 209524, Control_c, 0, 64, 90
1, 209539, Control_c, 0, 64, 94
1, 209554, Control_c, 0, 64, 97
1, 209568, Control_c, 0, 64, 97
1, 209583, Control_c, 0, 64, 98
1, 209586, Note_off_c, 0, 41, 37
1, 209598, Control_c, 0, 64, 99
1, 209613, Control_c, 0, 64, 100
1, 209628, Control_c, 0, 64, 101
1, 209888, Control_c, 0, 64, 101
1, 209902, Control_c, 0, 64, 100
1, 209917, Control_c, 0, 64, 99
1, 209947, Control_c, 0, 64, 98
1, 209961, Note_off_c, 0, 29, 35
1, 209962, Control_c, 0, 64, 97
1, 209976, Control_c, 0, 64, 94
1, 209992, Control_c, 0, 64, 93
1, 210012, Note_off_c, 0, 58, 41
1, 210021, Note_on_c, 0, 42, 42
1, 210023, Note_on_c, 0, 30, 40
1, 210066, Control_c, 0, 64, 93
1, 210081, Control_c, 0, 64, 92
1, 210111, Control_c, 0, 64, 92
1, 210140, Control_c, 0, 64, 91
1, 210155, Control_c, 0, 64, 90
1, 210170, Control_c, 0, 64, 90
1, 210185, Control_c, 0, 64, 89
1, 210199, Control_c, 0, 64, 88
1, 210214, Control_c, 0, 64, 86
1, 210229, Control_c, 0, 64, 83
1, 210244, Control_c, 0, 64, 78
1, 210259, Control_c, 0, 64, 72
1, 210274, Control_c, 0, 64, 65
1, 210289, Control_c, 0, 64, 59
1, 210304, Control_c, 0, 64, 51
1, 210319, Control_c, 0, 64, 43
1, 210333, Control_c, 0, 64, 40
1, 210348, Control_c, 0, 64, 43
1, 210363, Control_c, 0, 64, 46
1, 210366, Note_on_c, 0, 57, 44
1, 210378, Control_c, 0, 64, 50
1, 210392, Control_c, 0, 64, 53
1, 210407, Control_c, 0, 64, 57
1, 210422, Control_c, 0, 64, 60
1, 210437, Control_c, 0, 64, 62
1, 210452, Control_c, 0, 64, 63
1, 210466, Control_c, 0, 64, 63
1, 210481, Control_c, 0, 64, 64
1, 210511, Note_off_c, 0, 42, 39
1, 210525, Control_c, 0, 64, 64
1, 210584, Control_c, 0, 64, 64
1, 210666, Control_c, 0, 64, 63
1, 210696, Control_c, 0, 64, 63
1, 210707, Note_off_c, 0, 30, 36
1, 210740, Control_c, 0, 64, 62
1, 210755, Control_c, 0, 64, 62
1, 210770, Control_c, 0, 64, 61
1, 210785, Control_c, 0, 64, 60
1, 210801, Control_c, 0, 64, 60
1, 210815, Control_c, 0, 64, 59
1, 210830, Control_c, 0, 64, 58
1, 210845, Control_c, 0, 64, 57
1, 210858, Note_on_c, 0, 41, 35
1, 210860, Control_c, 0, 64, 56
1, 210871, Note_on_c, 0, 29, 34
1, 210875, Control_c, 0, 64, 53
1, 210889, Control_c, 0, 64, 50
1, 210904, Control_c, 0, 64, 45
1, 210919, Control_c, 0, 64, 38
1, 210934, Control_c, 0, 64, 27
1, 210948, Control_c, 0, 64, 0
1, 211082, Control_c, 0, 64, 17
1, 211097, Control_c, 0, 64, 35
1, 211111, Control_c, 0, 64, 52
1, 211126, Control_c, 0, 64, 66
1, 211141, Control_c, 0, 64, 95
1, 211156, Control_c, 0, 64, 127
1, 211261, Note_off_c, 0, 29, 37
1, 211303, Note_off_c, 0, 41, 43
1, 211991, Note_off_c, 0, 53, 35
1, 212085, Note_off_c, 0, 65, 31
1, 212203, Note_off_c, 0, 57, 30
1, 212241, Note_off_c, 0, 60, 32
1, 212867, Note_on_c, 0, 65, 43
1, 212877, Note_on_c, 0, 53, 34
1, 213005, Note_off_c, 0, 65, 37
1, 213028, Note_off_c, 0, 53, 40
1, 213178, Note_on_c, 0, 53, 32
1, 213180, Control_c, 0, 64, 111
1, 213192, Note_on_c, 0, 65, 30
1, 213193, Note_on_c, 0, 58, 40
1, 213193, Note_on_c, 0, 61, 37
1, 213195, Control_c, 0, 64, 93
1, 213210, Control_c, 0, 64, 80
1, 213225, Control_c, 0, 64, 71
1, 213228, Note_on_c, 0, 46, 31
1, 213237, Note_on_c, 0, 34, 20
1, 213240, Control_c, 0, 64, 63
1, 213255, Control_c, 0, 64, 55
1, 213270, Control_c, 0, 64, 42
1, 213284, Control_c, 0, 64, 22
1, 213299, Control_c, 0, 64, 0
1, 213447, Control_c, 0, 64, 8
1, 213462, Control_c, 0, 64, 20
1, 213477, Control_c, 0, 64, 26
1, 213491, Control_c, 0, 64, 32
1, 213506, Control_c, 0, 64, 37
1, 213521, Control_c, 0, 64, 42
1, 213535, Control_c, 0, 64, 47
1, 213550, Control_c, 0, 64, 52
1, 213565, Control_c, 0, 64, 56
1, 213580, Control_c, 0, 64, 59
1, 213595, Control_c, 0, 64, 61
1, 213617, Control_c, 0, 64, 62
1, 213632, Control_c, 0, 64, 62
1, 213647, Control_c, 0, 64, 63
1, 213662, Control_c, 0, 64, 64
1, 213677, Control_c, 0, 64, 65
1, 213691, Control_c, 0, 64, 67
1, 213706, Control_c, 0, 64, 69
1, 213721, Control_c, 0, 64, 70
1, 213735, Control_c, 0, 64, 71
1, 213750, Control_c, 0, 64, 71
1, 213765, Control_c, 0, 64, 73
1, 213780, Control_c, 0, 64, 75
1, 213795, Control_c, 0, 64, 76
1, 213839, Control_c, 0, 64, 77
1, 213988, Control_c, 0, 64, 77
1, 214079, Note_off_c, 0, 53, 36
1, 214087, Note_off_c, 0, 34, 31
1, 214089, Note_off_c, 0, 46, 35
1, 214093, Note_off_c, 0, 61, 36
1, 214104, Note_off_c, 0, 58, 32
1, 214121, Note_off_c, 0, 65, 36
1, 214499, Control_c, 0, 64, 77
1, 214603, Control_c, 0, 64, 76
1, 214766, Control_c, 0, 64, 76
1, 214811, Control_c, 0, 64, 75
1, 214841, Control_c, 0, 64, 75
1, 214870, Control_c, 0, 64, 74
1, 214885, Control_c, 0, 64, 74
1, 214900, Control_c, 0, 64, 73
1, 214915, Control_c, 0, 64, 73
1, 214930, Control_c, 0, 64, 72
1, 214945, Control_c, 0, 64, 72
1, 214960, Control_c, 0, 64, 71
1, 214974, Control_c, 0, 64, 71
1, 215004, Control_c, 0, 64, 70
1, 215019, Control_c, 0, 64, 70
1, 215034, Control_c, 0, 64, 69
1, 215063, Control_c, 0, 64, 69
1, 215078, Control_c, 0, 64, 68
1, 215115, Control_c, 0, 64, 68
1, 215130, Control_c, 0, 64, 67
1, 215174, Control_c, 0, 64, 67
1, 215204, Control_c, 0, 64, 66
1, 215219, Control_c, 0, 64, 66
1, 215249, Control_c, 0, 64, 65
1, 215293, Control_c, 0, 64, 65
1, 215322, Control_c, 0, 64, 64
1, 215367, Control_c, 0, 64, 64
1, 215411, Control_c, 0, 64, 63
1, 215455, Control_c, 0, 64, 63
1, 215485, Control_c, 0, 64, 62
1, 215514, Control_c, 0, 64, 62
1, 215529, Control_c, 0, 64, 61
1, 215544, Control_c, 0, 64, 61
1, 215559, Control_c, 0, 64, 60
1, 215574, Control_c, 0, 64, 60
1, 215590, Control_c, 0, 64, 59
1, 215604, Control_c, 0, 64, 58
1, 215619, Control_c, 0, 64, 57
1, 215634, Control_c, 0, 64, 57
1, 215678, Control_c, 0, 64, 56
1, 215768, Control_c, 0, 64, 56
1, 215797, Control_c, 0, 64, 55
1, 215812, Control_c, 0, 64, 55
1, 215842, Control_c, 0, 64, 54
1, 215908, Control_c, 0, 64, 54
1, 215938, Control_c, 0, 64, 53
1, 215952, Control_c, 0, 64, 52
1, 215967, Control_c, 0, 64, 52
1, 215982, Control_c, 0, 64, 51
1, 215997, Control_c, 0, 64, 50
1, 216012, Control_c, 0, 64, 50
1, 216027, Control_c, 0, 64, 49
1, 216042, Control_c, 0, 64, 49
1, 216057, Control_c, 0, 64, 48
1, 216072, Control_c, 0, 64, 48
1, 216086, Control_c, 0, 64, 47
1, 216101, Control_c, 0, 64, 46
1, 216116, Control_c, 0, 64, 46
1, 216130, Control_c, 0, 64, 45
1, 216145, Control_c, 0, 64, 45
1, 216175, Control_c, 0, 64, 44
1, 216190, Control_c, 0, 64, 44
1, 216204, Control_c, 0, 64, 43
1, 216234, Control_c, 0, 64, 43
1, 216249, Control_c, 0, 64, 42
1, 216264, Control_c, 0, 64, 42
1, 216278, Control_c, 0, 64, 41
1, 216293, Control_c, 0, 64, 41
1, 216308, Control_c, 0, 64, 40
1, 216323, Control_c, 0, 64, 40
1, 216337, Control_c, 0, 64, 39
1, 216352, Control_c, 0, 64, 39
1, 216367, Control_c, 0, 64, 38
1, 216398, Control_c, 0, 64, 38
1, 216413, Control_c, 0, 64, 37
1, 216427, Control_c, 0, 64, 37
1, 216442, Control_c, 0, 64, 36
1, 216457, Control_c, 0, 64, 36
1, 216487, Control_c, 0, 64, 35
1, 216501, Control_c, 0, 64, 34
1, 216531, Control_c, 0, 64, 33
1, 216546, Control_c, 0, 64, 33
1, 216561, Control_c, 0, 64, 32
1, 216575, Control_c, 0, 64, 31
1, 216590, Control_c, 0, 64, 30
1, 216613, Control_c, 0, 64, 29
1, 216628, Control_c, 0, 64, 29
1, 216642, Control_c, 0, 64, 28
1, 216657, Control_c, 0, 64, 27
1, 216672, Control_c, 0, 64, 26
1, 216687, Control_c, 0, 64, 25
1, 216702, Control_c, 0, 64, 24
1, 216716, Control_c, 0, 64, 22
1, 216731, Control_c, 0, 64, 21
1, 216746, Control_c, 0, 64, 20
1, 216760, Control_c, 0, 64, 18
1, 216775, Control_c, 0, 64, 16
1, 216790, Control_c, 0, 64, 13
1, 216805, Control_c, 0, 64, 10
1, 216820, Control_c, 0, 64, 0
1, 217309, Control_c, 0, 64, 8
1, 217324, Control_c, 0, 64, 10
1, 217339, Control_c, 0, 64, 12
1, 217362, Control_c, 0, 64, 14
1, 217377, Control_c, 0, 64, 15
1, 217391, Control_c, 0, 64, 16
1, 217406, Control_c, 0, 64, 18
1, 217421, Control_c, 0, 64, 19
1, 217436, Control_c, 0, 64, 20
1, 217451, Control_c, 0, 64, 22
1, 217465, Control_c, 0, 64, 23
1, 217480, Control_c, 0, 64, 25
1, 217495, Control_c, 0, 64, 27
1, 217509, Control_c, 0, 64, 29
1, 217524, Control_c, 0, 64, 32
1, 217539, Control_c, 0, 64, 34
1, 217554, Control_c, 0, 64, 36
1, 217569, Control_c, 0, 64, 38
1, 217583, Control_c, 0, 64, 41
1, 217598, Control_c, 0, 64, 44
1, 217613, Control_c, 0, 64, 48
1, 217628, Control_c, 0, 64, 51
1, 217643, Control_c, 0, 64, 55
1, 217658, Control_c, 0, 64, 58
1, 217672, Control_c, 0, 64, 60
1, 217687, Control_c, 0, 64, 62
1, 217702, Control_c, 0, 64, 63
1, 217717, Control_c, 0, 64, 65
1, 217732, Control_c, 0, 64, 67
1, 217747, Control_c, 0, 64, 69
1, 217762, Control_c, 0, 64, 73
1, 217776, Control_c, 0, 64, 78
1, 217791, Control_c, 0, 64, 84
1, 217806, Control_c, 0, 64, 97
1, 217821, Control_c, 0, 64, 122
1, 217836, Control_c, 0, 64, 127
1, 218343, Note_on_c, 0, 77, 45
1, 218365, Note_on_c, 0, 65, 30
1, 218514, Note_off_c, 0, 77, 53
1, 218516, Note_off_c, 0, 65, 41
1, 218699, Note_on_c, 0, 77, 40
1, 218707, Note_on_c, 0, 37, 28
1, 218712, Note_on_c, 0, 65, 40
1, 218817, Note_off_c, 0, 37, 56
1, 218874, Note_off_c, 0, 65, 53
1, 218906, Note_off_c, 0, 77, 41
1, 219321, Note_on_c, 0, 59, 27
1, 219324, Note_on_c, 0, 56, 34
1, 219331, Note_on_c, 0, 65, 29
1, 219710, Note_on_c, 0, 87, 55
1, 219715, Note_off_c, 0, 65, 38
1, 219740, Note_on_c, 0, 75, 47
1, 219796, Note_off_c, 0, 56, 27
1, 219801, Note_off_c, 0, 59, 26
1, 219894, Note_off_c, 0, 75, 34
1, 219917, Note_off_c, 0, 87, 62
1, 220044, Note_on_c, 0, 87, 58
1, 220116, Poly_aftertouch_c, 0, 75, 127
1, 220369, Note_off_c, 0, 87, 32
1, 220375, Note_on_c, 0, 65, 30
1, 220376, Note_on_c, 0, 56, 28
1, 220379, Note_on_c, 0, 59, 27
1, 220428, Poly_aftertouch_c, 0, 75, 0
1, 220552, Note_on_c, 0, 86, 60
1, 220567, Note_on_c, 0, 74, 43
1, 220630, Note_off_c, 0, 65, 38
1, 220659, Note_off_c, 0, 86, 58
1, 220660, Note_off_c, 0, 74, 38
1, 220684, Note_off_c, 0, 59, 33
1, 220691, Note_off_c, 0, 56, 34
1, 220756, Note_on_c, 0, 86, 47
1, 220785, Note_on_c, 0, 74, 24
1, 220868, Note_off_c, 0, 86, 34
1, 220897, Note_off_c, 0, 74, 42
1, 220943, Note_on_c, 0, 56, 25
1, 220943, Note_on_c, 0, 65, 24
1, 220946, Note_on_c, 0, 59, 27
1, 221110, Note_on_c, 0, 85, 56
1, 221118, Note_on_c, 0, 73, 46
1, 221175, Note_off_c, 0, 56, 39
1, 221175, Note_off_c, 0, 65, 41
1, 221176, Note_off_c, 0, 85, 59
1, 221193, Note_off_c, 0, 59, 35
1, 221207, Note_off_c, 0, 73, 37
1, 221284, Note_on_c, 0, 73, 27
1, 221284, Note_on_c, 0, 85, 20
1, 221428, Note_on_c, 0, 65, 22
1, 221437, Note_on_c, 0, 56, 18
1, 221449, Note_on_c, 0, 59, 18
1, 221462, Note_off_c, 0, 85, 39
1, 221478, Note_off_c, 0, 73, 45
1, 221600, Note_on_c, 0, 84, 52
1, 221610, Note_on_c, 0, 72, 42
1, 221648, Note_off_c, 0, 65, 40
1, 221659, Note_off_c, 0, 72, 50
1, 221666, Note_off_c, 0, 84, 57
1, 221670, Note_off_c, 0, 59, 33
1, 221670, Note_off_c, 0, 56, 37
1, 221744, Note_on_c, 0, 84, 37
1, 221780, Note_on_c, 0, 72, 31
1, 221821, Note_off_c, 0, 84, 37
1, 221926, Note_off_c, 0, 72, 39
1, 221927, Note_on_c, 0, 56, 30
1, 221929, Note_on_c, 0, 59, 28
1, 221932, Note_on_c, 0, 65, 26
1, 222067, Note_on_c, 0, 83, 46
1, 222090, Note_on_c, 0, 71, 27
1, 222126, Note_off_c, 0, 65, 41
1, 222130, Note_off_c, 0, 71, 50
1, 222130, Note_off_c, 0, 83, 41
1, 222145, Note_off_c, 0, 56, 34
1, 222149, Note_off_c, 0, 59, 35
1, 222210, Note_on_c, 0, 71, 37
1, 222210, Note_on_c, 0, 83, 16
1, 222315, Note_off_c, 0, 83, 40
1, 222335, Note_off_c, 0, 71, 46
1, 222362, Note_on_c, 0, 56, 18
1, 222366, Note_on_c, 0, 65, 26
1, 222371, Note_on_c, 0, 59, 18
1, 222531, Note_on_c, 0, 82, 33
1, 222534, Note_on_c, 0, 70, 25
1, 222580, Note_off_c, 0, 65, 38
1, 222585, Note_off_c, 0, 59, 33
1, 222587, Note_off_c, 0, 70, 44
1, 222600, Note_off_c, 0, 82, 43
1, 222621, Note_off_c, 0, 56, 32
1, 222689, Note_on_c, 0, 70, 27
1, 222698, Note_on_c, 0, 82, 26
1, 222910, Note_off_c, 0, 82, 43
1, 222914, Note_on_c, 0, 65, 19
1, 222919, Note_off_c, 0, 70, 41
1, 222920, Note_on_c, 0, 56, 13
1, 222924, Note_on_c, 0, 59, 22
1, 223096, Note_off_c, 0, 65, 43
1, 223104, Note_off_c, 0, 59, 41
1, 223136, Note_off_c, 0, 56, 38
1, 223161, Note_on_c, 0, 81, 34
1, 223184, Note_on_c, 0, 69, 23
1, 223313, Control_c, 0, 64, 105
1, 223328, Control_c, 0, 64, 95
1, 223351, Control_c, 0, 64, 87
1, 223366, Control_c, 0, 64, 81
1, 223381, Control_c, 0, 64, 76
1, 223396, Control_c, 0, 64, 72
1, 223410, Control_c, 0, 64, 69
1, 223425, Control_c, 0, 64, 66
1, 223440, Control_c, 0, 64, 63
1, 223454, Control_c, 0, 64, 61
1, 223469, Control_c, 0, 64, 57
1, 223484, Control_c, 0, 64, 52
1, 223499, Control_c, 0, 64, 47
1, 223513, Control_c, 0, 64, 43
1, 223528, Control_c, 0, 64, 40
1, 223543, Control_c, 0, 64, 37
1, 223558, Control_c, 0, 64, 34
1, 223574, Control_c, 0, 64, 32
1, 223589, Control_c, 0, 64, 30
1, 223604, Control_c, 0, 64, 29
1, 223618, Control_c, 0, 64, 27
1, 223633, Control_c, 0, 64, 25
1, 223648, Control_c, 0, 64, 23
1, 223663, Control_c, 0, 64, 22
1, 223677, Control_c, 0, 64, 20
1, 223692, Control_c, 0, 64, 18
1, 223707, Control_c, 0, 64, 16
1, 223722, Control_c, 0, 64, 12
1, 223737, Control_c, 0, 64, 9
1, 223751, Control_c, 0, 64, 0
1, 224248, Control_c, 0, 64, 18
1, 224263, Control_c, 0, 64, 28
1, 224277, Control_c, 0, 64, 35
1, 224292, Control_c, 0, 64, 42
1, 224307, Control_c, 0, 64, 51
1, 224322, Control_c, 0, 64, 58
1, 224337, Control_c, 0, 64, 63
1, 224351, Control_c, 0, 64, 67
1, 224367, Control_c, 0, 64, 71
1, 224382, Control_c, 0, 64, 75
1, 224397, Control_c, 0, 64, 85
1, 224412, Control_c, 0, 64, 106
1, 224427, Control_c, 0, 64, 127
1, 224630, Note_off_c, 0, 69, 41
1, 225054, Note_off_c, 0, 81, 45
1, 225187, Note_on_c, 0, 80, 49
1, 225192, Note_on_c, 0, 68, 42
1, 225350, Note_off_c, 0, 80, 57
1, 225356, Note_off_c, 0, 68, 34
1, 225398, Note_on_c, 0, 37, 30
1, 225471, Note_on_c, 0, 68, 50
1, 225471, Note_on_c, 0, 80, 56
1, 225488, Note_off_c, 0, 37, 57
1, 225609, Note_off_c, 0, 68, 59
1, 225696, Note_off_c, 0, 80, 62
1, 225879, Note_on_c, 0, 65, 41
1, 225898, Note_on_c, 0, 56, 34
1, 225899, Note_on_c, 0, 59, 36
1, 226183, Note_on_c, 0, 92, 71
1, 226212, Note_on_c, 0, 80, 51
1, 226347, Note_off_c, 0, 80, 38
1, 226365, Note_off_c, 0, 65, 39
1, 226392, Note_off_c, 0, 92, 63
1, 226464, Note_off_c, 0, 59, 34
1, 226469, Note_on_c, 0, 92, 79
1, 226475, Note_off_c, 0, 56, 35
1, 226502, Note_on_c, 0, 80, 51
1, 226696, Note_on_c, 0, 65, 45
1, 226699, Note_on_c, 0, 56, 43
1, 226699, Note_on_c, 0, 59, 37
1, 226777, Note_off_c, 0, 80, 55
1, 226778, Note_off_c, 0, 92, 35
1, 226861, Note_on_c, 0, 91, 79
1, 226886, Note_on_c, 0, 79, 56
1, 226924, Note_off_c, 0, 79, 49
1, 226940, Note_off_c, 0, 65, 33
1, 226955, Note_off_c, 0, 91, 58
1, 226994, Note_off_c, 0, 59, 36
1, 227006, Note_off_c, 0, 56, 40
1, 227027, Note_on_c, 0, 91, 78
1, 227044, Note_on_c, 0, 79, 53
1, 227156, Note_off_c, 0, 79, 52
1, 227165, Note_off_c, 0, 91, 36
1, 227189, Note_on_c, 0, 59, 50
1, 227191, Note_on_c, 0, 65, 49
1, 227203, Note_on_c, 0, 56, 40
1, 227334, Note_on_c, 0, 90, 79
1, 227345, Note_on_c, 0, 78, 67
1, 227405, Note_off_c, 0, 65, 36
1, 227408, Note_off_c, 0, 78, 60
1, 227422, Note_off_c, 0, 90, 65
1, 227455, Note_off_c, 0, 59, 32
1, 227461, Note_off_c, 0, 56, 40
1, 227483, Note_on_c, 0, 90, 76
1, 227509, Note_on_c, 0, 78, 68
1, 227633, Note_on_c, 0, 56, 41
1, 227633, Note_on_c, 0, 65, 48
1, 227636, Note_on_c, 0, 59, 43
1, 227672, Note_off_c, 0, 90, 63
1, 227689, Note_off_c, 0, 78, 62
1, 227771, Note_on_c, 0, 89, 77
1, 227784, Note_on_c, 0, 77, 63
1, 227842, Note_off_c, 0, 77, 58
1, 227858, Note_off_c, 0, 89, 63
1, 227894, Note_off_c, 0, 56, 40
1, 227900, Note_off_c, 0, 65, 40
1, 227920, Note_on_c, 0, 89, 76
1, 227921, Note_off_c, 0, 59, 39
1, 227949, Note_on_c, 0, 77, 58
1, 228046, Note_on_c, 0, 59, 47
1, 228049, Note_off_c, 0, 89, 40
1, 228055, Note_on_c, 0, 65, 44
1, 228058, Note_on_c, 0, 56, 42
1, 228089, Note_off_c, 0, 77, 56
1, 228207, Note_on_c, 0, 88, 70
1, 228220, Note_on_c, 0, 76, 58
1, 228277, Note_off_c, 0, 76, 59
1, 228288, Note_off_c, 0, 65, 38
1, 228293, Note_off_c, 0, 88, 62
1, 228323, Note_off_c, 0, 56, 38
1, 228327, Note_off_c, 0, 59, 27
1, 228351, Note_on_c, 0, 88, 58
1, 228384, Note_on_c, 0, 76, 40
1, 228487, Note_on_c, 0, 56, 33
1, 228493, Note_on_c, 0, 59, 40
1, 228498, Note_off_c, 0, 76, 42
1, 228501, Note_on_c, 0, 65, 43
1, 228547, Note_off_c, 0, 88, 36
1, 228660, Note_on_c, 0, 87, 62
1, 228669, Note_on_c, 0, 75, 45
1, 228735, Note_off_c, 0, 87, 62
1, 228758, Note_off_c, 0, 75, 36
1, 228811, Note_off_c, 0, 65, 40
1, 228818, Note_on_c, 0, 87, 64
1, 228829, Note_off_c, 0, 56, 37
1, 228838, Note_on_c, 0, 75, 44
1, 228852, Note_off_c, 0, 59, 36
1, 229017, Note_on_c, 0, 59, 32
1, 229018, Note_on_c, 0, 56, 33
1, 229030, Note_on_c, 0, 65, 35
1, 229111, Note_off_c, 0, 75, 35
1, 229157, Note_off_c, 0, 87, 49
1, 229276, Note_on_c, 0, 86, 61
1, 229290, Note_on_c, 0, 74, 44
1, 229302, Note_off_c, 0, 65, 43
1, 229352, Note_off_c, 0, 59, 40
1, 229360, Note_off_c, 0, 56, 39
1, 229549, Control_c, 0, 64, 100
1, 229563, Control_c, 0, 64, 86
1, 229578, Control_c, 0, 64, 78
1, 229593, Control_c, 0, 64, 71
1, 229608, Control_c, 0, 64, 66
1, 229623, Control_c, 0, 64, 63
1, 229638, Control_c, 0, 64, 60
1, 229653, Control_c, 0, 64, 56
1, 229668, Control_c, 0, 64, 52
1, 229682, Control_c, 0, 64, 49
1, 229697, Control_c, 0, 64, 46
1, 229712, Control_c, 0, 64, 43
1, 229727, Control_c, 0, 64, 41
1, 229742, Control_c, 0, 64, 39
1, 229756, Control_c, 0, 64, 38
1, 229771, Control_c, 0, 64, 36
1, 229786, Control_c, 0, 64, 34
1, 229801, Control_c, 0, 64, 31
1, 229815, Control_c, 0, 64, 26
1, 229830, Control_c, 0, 64, 22
1, 229845, Control_c, 0, 64, 17
1, 229860, Control_c, 0, 64, 11
1, 229876, Control_c, 0, 64, 0
1, 230505, Control_c, 0, 67, 9
1, 230520, Control_c, 0, 67, 18
1, 230535, Control_c, 0, 67, 38
1, 230550, Control_c, 0, 67, 66
1, 230565, Control_c, 0, 67, 96
1, 230580, Control_c, 0, 67, 124
1, 230595, Control_c, 0, 67, 127
1, 230818, Control_c, 0, 64, 19
1, 230840, Control_c, 0, 64, 27
1, 230854, Control_c, 0, 64, 34
1, 230869, Control_c, 0, 64, 42
1, 230884, Control_c, 0, 64, 50
1, 230899, Control_c, 0, 64, 59
1, 230914, Control_c, 0, 64, 65
1, 230929, Control_c, 0, 64, 71
1, 230943, Control_c, 0, 64, 78
1, 230958, Control_c, 0, 64, 88
1, 230973, Control_c, 0, 64, 114
1, 230988, Control_c, 0, 64, 127
1, 231292, Note_off_c, 0, 74, 38
1, 231365, Note_off_c, 0, 86, 29
1, 231742, Note_on_c, 0, 86, 41
1, 231746, Note_on_c, 0, 74, 32
1, 231939, Note_off_c, 0, 74, 41
1, 231958, Note_off_c, 0, 86, 36
1, 232199, Note_on_c, 0, 86, 33
1, 232209, Note_on_c, 0, 74, 19
1, 232250, Note_on_c, 0, 40, 30
1, 232352, Note_off_c, 0, 40, 56
1, 232524, Note_off_c, 0, 74, 45
1, 232696, Note_off_c, 0, 86, 40
1, 232838, Note_on_c, 0, 68, 25
1, 232841, Note_on_c, 0, 59, 24
1, 232857, Note_on_c, 0, 62, 22
1, 233296, Note_off_c, 0, 62, 34
1, 233298, Note_off_c, 0, 68, 32
1, 233354, Note_on_c, 0, 85, 37
1, 233356, Note_on_c, 0, 97, 45
1, 233358, Note_off_c, 0, 59, 35
1, 233522, Note_off_c, 0, 85, 42
1, 233525, Note_off_c, 0, 97, 55
1, 233669, Note_on_c, 0, 97, 45
1, 233695, Note_on_c, 0, 85, 38
1, 233910, Note_off_c, 0, 97, 58
1, 234056, Note_off_c, 0, 85, 43
1, 234105, Note_on_c, 0, 68, 26
1, 234118, Note_on_c, 0, 62, 24
1, 234134, Note_on_c, 0, 59, 21
1, 234357, Note_on_c, 0, 95, 49
1, 234374, Note_on_c, 0, 83, 35
1, 234416, Note_off_c, 0, 68, 36
1, 234421, Note_off_c, 0, 62, 35
1, 234440, Note_off_c, 0, 59, 33
1, 234469, Note_off_c, 0, 95, 56
1, 234473, Note_off_c, 0, 83, 43
1, 234578, Note_on_c, 0, 95, 51
1, 234595, Note_on_c, 0, 83, 34
1, 234630, Note_off_c, 0, 95, 41
1, 234767, Note_on_c, 0, 68, 34
1, 234778, Note_on_c, 0, 59, 26
1, 234788, Note_off_c, 0, 83, 42
1, 234789, Note_on_c, 0, 62, 32
1, 234929, Note_on_c, 0, 93, 55
1, 234945, Note_on_c, 0, 81, 39
1, 234980, Note_off_c, 0, 93, 54
1, 234989, Note_off_c, 0, 81, 48
1, 235088, Note_on_c, 0, 93, 61
1, 235096, Note_on_c, 0, 81, 47
1, 235119, Note_off_c, 0, 68, 39
1, 235131, Note_off_c, 0, 59, 39
1, 235133, Note_off_c, 0, 62, 42
1, 235226, Note_off_c, 0, 81, 35
1, 235235, Note_off_c, 0, 93, 32
1, 235244, Note_on_c, 0, 68, 41
1, 235259, Note_on_c, 0, 62, 42
1, 235276, Note_on_c, 0, 59, 25
1, 235298, Note_off_c, 0, 68, 54
1, 235333, Note_off_c, 0, 62, 56
1, 235385, Note_off_c, 0, 59, 36
1, 235423, Note_on_c, 0, 92, 64
1, 235439, Note_on_c, 0, 80, 48
1, 235526, Note_off_c, 0, 80, 37
1, 235542, Note_off_c, 0, 92, 58
1, 235657, Control_c, 0, 64, 77
1, 235662, Note_on_c, 0, 92, 57
1, 235665, Note_on_c, 0, 80, 39
1, 235672, Control_c, 0, 64, 52
1, 235686, Note_on_c, 0, 40, 41
1, 235687, Control_c, 0, 64, 22
1, 235702, Control_c, 0, 64, 20
1, 235717, Control_c, 0, 64, 37
1, 235731, Control_c, 0, 64, 56
1, 235739, Note_off_c, 0, 40, 65
1, 235746, Control_c, 0, 64, 86
1, 235761, Control_c, 0, 64, 127
1, 235855, Note_off_c, 0, 92, 57
1, 235907, Note_off_c, 0, 80, 43
1, 236064, Note_on_c, 0, 61, 32
1, 236068, Note_on_c, 0, 69, 31
1, 236086, Note_on_c, 0, 64, 33
1, 236319, Note_on_c, 0, 90, 52
1, 236341, Note_on_c, 0, 78, 45
1, 236420, Note_off_c, 0, 69, 42
1, 236420, Note_off_c, 0, 78, 61
1, 236428, Note_off_c, 0, 90, 60
1, 236454, Note_off_c, 0, 61, 38
1, 236460, Note_off_c, 0, 64, 35
1, 236529, Note_on_c, 0, 90, 43
1, 236583, Poly_aftertouch_c, 0, 78, 127
1, 236589, Note_off_c, 0, 90, 46
1, 236620, Poly_aftertouch_c, 0, 78, 0
1, 236701, Note_on_c, 0, 61, 32
1, 236702, Note_on_c, 0, 69, 33
1, 236726, Note_on_c, 0, 64, 24
1, 236872, Note_on_c, 0, 88, 51
1, 236885, Note_on_c, 0, 76, 39
1, 236920, Note_off_c, 0, 76, 52
1, 236930, Note_off_c, 0, 88, 42
1, 236960, Note_off_c, 0, 64, 39
1, 236975, Note_off_c, 0, 69, 41
1, 236987, Note_off_c, 0, 61, 43
1, 237028, Note_on_c, 0, 76, 48
1, 237036, Note_on_c, 0, 88, 57
1, 237075, Note_off_c, 0, 88, 50
1, 237137, Note_off_c, 0, 76, 42
1, 237186, Note_on_c, 0, 61, 39
1, 237203, Note_on_c, 0, 64, 34
1, 237337, Note_on_c, 0, 85, 59
1, 237349, Note_on_c, 0, 73, 46
1, 237385, Note_off_c, 0, 85, 52
1, 237386, Note_off_c, 0, 73, 49
1, 237490, Note_off_c, 0, 64, 35
1, 237491, Note_on_c, 0, 73, 47
1, 237492, Note_off_c, 0, 61, 32
1, 237495, Note_on_c, 0, 85, 58
1, 237525, Note_off_c, 0, 85, 66
1, 237540, Note_off_c, 0, 73, 54
1, 237667, Note_on_c, 0, 61, 41
1, 237671, Note_on_c, 0, 64, 38
1, 237710, Note_off_c, 0, 64, 56
1, 237734, Note_off_c, 0, 61, 65
1, 237817, Note_on_c, 0, 81, 62
1, 237832, Note_on_c, 0, 69, 41
1, 237873, Note_off_c, 0, 69, 50
1, 237892, Note_off_c, 0, 81, 57
1, 237978, Control_c, 0, 64, 76
1, 237993, Control_c, 0, 64, 55
1, 238008, Control_c, 0, 64, 15
1, 238014, Note_on_c, 0, 81, 55
1, 238020, Note_on_c, 0, 69, 21
1, 238021, Note_on_c, 0, 40, 39
1, 238023, Control_c, 0, 64, 0
1, 238052, Control_c, 0, 64, 33
1, 238067, Control_c, 0, 64, 55
1, 238082, Control_c, 0, 64, 84
1, 238093, Note_off_c, 0, 40, 63
1, 238097, Control_c, 0, 64, 127
1, 238229, Note_off_c, 0, 69, 42
1, 238237, Note_off_c, 0, 81, 33
1, 238285, Note_on_c, 0, 59, 38
1, 238295, Note_on_c, 0, 62, 45
1, 238339, Note_off_c, 0, 59, 61
1, 238339, Note_off_c, 0, 62, 55
1, 238451, Note_on_c, 0, 80, 62
1, 238471, Note_on_c, 0, 68, 38
1, 238509, Note_off_c, 0, 80, 57
1, 238510, Note_off_c, 0, 68, 48
1, 238563, Control_c, 0, 64, 88
1, 238578, Control_c, 0, 64, 62
1, 238591, Note_on_c, 0, 41, 57
1, 238592, Control_c, 0, 64, 49
1, 238607, Control_c, 0, 64, 45
1, 238611, Note_on_c, 0, 80, 60
1, 238622, Control_c, 0, 64, 51
1, 238624, Note_on_c, 0, 68, 37
1, 238625, Note_off_c, 0, 41, 64
1, 238637, Control_c, 0, 64, 62
1, 238652, Control_c, 0, 64, 80
1, 238667, Control_c, 0, 64, 127
1, 238765, Note_on_c, 0, 62, 59
1, 238767, Note_on_c, 0, 59, 51
1, 238792, Note_off_c, 0, 59, 61
1, 238792, Note_off_c, 0, 62, 65
1, 238792, Note_off_c, 0, 80, 38
1, 238828, Note_off_c, 0, 68, 40
1, 238911, Note_on_c, 0, 79, 65
1, 238930, Note_on_c, 0, 67, 45
1, 238965, Note_off_c, 0, 67, 52
1, 238974, Note_off_c, 0, 79, 60
1, 239023, Control_c, 0, 64, 68
1, 239038, Control_c, 0, 64, 53
1, 239046, Note_on_c, 0, 42, 62
1, 239053, Control_c, 0, 64, 46
1, 239057, Note_on_c, 0, 79, 65
1, 239069, Note_on_c, 0, 67, 52
1, 239075, Control_c, 0, 64, 51
1, 239090, Note_off_c, 0, 42, 63
1, 239090, Control_c, 0, 64, 61
1, 239105, Control_c, 0, 64, 78
1, 239119, Control_c, 0, 64, 127
1, 239195, Note_off_c, 0, 79, 52
1, 239203, Note_off_c, 0, 67, 38
1, 239220, Note_on_c, 0, 59, 48
1, 239228, Note_on_c, 0, 62, 42
1, 239243, Note_off_c, 0, 59, 58
1, 239258, Note_off_c, 0, 62, 54
1, 239362, Note_on_c, 0, 78, 74
1, 239377, Note_on_c, 0, 66, 54
1, 239416, Note_off_c, 0, 66, 48
1, 239427, Note_off_c, 0, 78, 64
1, 239475, Control_c, 0, 64, 79
1, 239490, Control_c, 0, 64, 38
1, 239505, Control_c, 0, 64, 0
1, 239513, Note_on_c, 0, 43, 65
1, 239513, Note_on_c, 0, 78, 66
1, 239523, Note_on_c, 0, 66, 53
1, 239534, Control_c, 0, 64, 30
1, 239550, Note_off_c, 0, 43, 62
1, 239550, Control_c, 0, 64, 57
1, 239564, Control_c, 0, 64, 127
1, 239657, Note_on_c, 0, 62, 70
1, 239670, Note_on_c, 0, 59, 44
1, 239679, Note_off_c, 0, 78, 62
1, 239686, Note_off_c, 0, 62, 66
1, 239695, Note_off_c, 0, 59, 57
1, 239695, Note_off_c, 0, 66, 56
1, 239804, Note_on_c, 0, 77, 74
1, 239832, Note_on_c, 0, 65, 59
1, 239922, Note_off_c, 0, 65, 54
1, 239976, Note_off_c, 0, 77, 58
1, 239977, Note_on_c, 0, 44, 60
1, 240031, Control_c, 0, 64, 74
1, 240046, Control_c, 0, 64, 44
1, 240061, Control_c, 0, 64, 0
1, 240080, Note_on_c, 0, 77, 74
1, 240089, Note_on_c, 0, 65, 49
1, 240120, Control_c, 0, 64, 39
1, 240135, Control_c, 0, 64, 65
1, 240149, Control_c, 0, 64, 127
1, 240152, Note_off_c, 0, 44, 60
1, 240222, Note_off_c, 0, 65, 48
1, 240236, Note_off_c, 0, 77, 53
1, 240253, Control_c, 0, 67, 116
1, 240268, Control_c, 0, 67, 102
1, 240283, Control_c, 0, 67, 86
1, 240298, Control_c, 0, 67, 66
1, 240312, Control_c, 0, 67, 51
1, 240327, Control_c, 0, 67, 38
1, 240343, Control_c, 0, 67, 26
1, 240359, Control_c, 0, 67, 15
1, 240373, Control_c, 0, 67, 0
1, 240518, Note_on_c, 0, 59, 34
1, 240524, Note_on_c, 0, 61, 39
1, 240547, Note_on_c, 0, 53, 32
1, 240855, Note_on_c, 0, 87, 55
1, 240876, Note_on_c, 0, 75, 38
1, 240959, Note_off_c, 0, 75, 54
1, 240971, Note_off_c, 0, 87, 63
1, 241030, Note_off_c, 0, 61, 40
1, 241037, Note_on_c, 0, 87, 63
1, 241065, Note_on_c, 0, 75, 44
1, 241083, Note_off_c, 0, 59, 36
1, 241114, Note_off_c, 0, 53, 43
1, 241166, Note_off_c, 0, 75, 35
1, 241193, Note_off_c, 0, 87, 61
1, 241208, Note_on_c, 0, 59, 46
1, 241225, Note_on_c, 0, 61, 51
1, 241234, Note_on_c, 0, 53, 41
1, 241298, Note_off_c, 0, 59, 60
1, 241299, Note_off_c, 0, 61, 59
1, 241372, Note_on_c, 0, 87, 77
1, 241380, Note_on_c, 0, 75, 64
1, 241380, Note_off_c, 0, 53, 53
1, 241433, Note_off_c, 0, 75, 57
1, 241444, Note_off_c, 0, 87, 63
1, 241485, Control_c, 0, 64, 72
1, 241500, Control_c, 0, 64, 43
1, 241514, Control_c, 0, 64, 0
1, 241520, Note_on_c, 0, 46, 68
1, 241528, Note_on_c, 0, 87, 72
1, 241529, Control_c, 0, 64, 19
1, 241544, Note_on_c, 0, 75, 65
1, 241544, Control_c, 0, 64, 42
1, 241559, Control_c, 0, 64, 63
1, 241571, Note_off_c, 0, 46, 62
1, 241574, Control_c, 0, 64, 127
1, 241619, Note_off_c, 0, 75, 60
1, 241639, Note_off_c, 0, 87, 65
1, 241710, Note_on_c, 0, 64, 64
1, 241718, Note_on_c, 0, 55, 46
1, 241722, Note_on_c, 0, 61, 51
1, 241880, Note_on_c, 0, 87, 78
1, 241888, Note_on_c, 0, 75, 69
1, 241952, Note_off_c, 0, 75, 60
1, 241985, Note_off_c, 0, 87, 63
1, 242066, Note_on_c, 0, 87, 80
1, 242075, Note_on_c, 0, 75, 78
1, 242150, Note_off_c, 0, 75, 58
1, 242161, Note_off_c, 0, 64, 35
1, 242164, Note_off_c, 0, 55, 58
1, 242182, Note_off_c, 0, 87, 64
1, 242184, Note_off_c, 0, 61, 37
1, 242289, Note_on_c, 0, 61, 59
1, 242289, Note_on_c, 0, 64, 57
1, 242295, Note_on_c, 0, 55, 64
1, 242425, Note_off_c, 0, 64, 55
1, 242465, Note_off_c, 0, 61, 61
1, 242545, Note_off_c, 0, 55, 58
1, 242682, Note_on_c, 0, 87, 85
1, 242690, Note_on_c, 0, 75, 74
1, 242851, Note_off_c, 0, 75, 55
1, 242896, Note_off_c, 0, 87, 62
1, 242921, Note_on_c, 0, 47, 68
1, 242995, Note_on_c, 0, 87, 84
1, 243000, Note_on_c, 0, 75, 71
1, 243027, Control_c, 0, 64, 89
1, 243041, Control_c, 0, 64, 57
1, 243056, Control_c, 0, 64, 9
1, 243071, Control_c, 0, 64, 0
1, 243130, Control_c, 0, 64, 43
1, 243145, Control_c, 0, 64, 68
1, 243159, Control_c, 0, 64, 127
1, 243204, Note_off_c, 0, 47, 60
1, 244001, Note_on_c, 0, 56, 43
1, 244005, Note_on_c, 0, 65, 44
1, 244015, Note_on_c, 0, 61, 41
1, 244051, Note_off_c, 0, 56, 59
1, 244053, Note_off_c, 0, 61, 63
1, 244053, Note_off_c, 0, 65, 61
1, 244149, Note_on_c, 0, 65, 50
1, 244155, Note_on_c, 0, 61, 51
1, 244157, Note_on_c, 0, 56, 38
1, 244420, Note_off_c, 0, 56, 34
1, 244451, Note_off_c, 0, 65, 35
1, 244545, Note_off_c, 0, 61, 33
1, 245065, Note_off_c, 0, 87, 32
1, 245233, Note_off_c, 0, 75, 32
1, 245602, Note_on_c, 0, 85, 44
1, 245630, Note_on_c, 0, 73, 40
1, 245744, Note_off_c, 0, 85, 61
1, 245887, Note_off_c, 0, 73, 46
1, 246085, Note_on_c, 0, 83, 47
1, 246108, Note_on_c, 0, 71, 33
1, 246174, Note_off_c, 0, 83, 59
1, 246188, Note_off_c, 0, 71, 40
1, 246346, Note_on_c, 0, 82, 55
1, 246360, Note_on_c, 0, 70, 50
1, 246412, Note_off_c, 0, 82, 63
1, 246422, Note_off_c, 0, 70, 62
1, 246522, Note_on_c, 0, 80, 58
1, 246537, Note_on_c, 0, 68, 49
1, 246593, Note_off_c, 0, 68, 52
1, 246595, Note_off_c, 0, 80, 59
1, 246707, Note_on_c, 0, 78, 59
1, 246717, Note_on_c, 0, 66, 52
1, 246899, Note_off_c, 0, 78, 56
1, 246924, Note_off_c, 0, 66, 33
1, 246963, Control_c, 0, 64, 119
1, 246966, Note_on_c, 0, 47, 35
1, 246978, Control_c, 0, 64, 90
1, 246993, Control_c, 0, 64, 75
1, 247007, Control_c, 0, 64, 62
1, 247022, Control_c, 0, 64, 42
1, 247037, Control_c, 0, 64, 0
1, 247046, Note_on_c, 0, 77, 49
1, 247066, Note_on_c, 0, 65, 36
1, 247112, Control_c, 0, 64, 40
1, 247126, Control_c, 0, 64, 63
1, 247141, Control_c, 0, 64, 127
1, 247169, Note_off_c, 0, 47, 39
1, 247227, Note_off_c, 0, 77, 52
1, 247228, Note_off_c, 0, 65, 43
1, 247535, Note_on_c, 0, 56, 40
1, 247547, Note_on_c, 0, 65, 37
1, 247555, Note_on_c, 0, 61, 35
1, 247828, Note_on_c, 0, 87, 53
1, 247857, Note_on_c, 0, 75, 39
1, 247953, Note_off_c, 0, 87, 61
1, 247968, Note_off_c, 0, 75, 37
1, 248024, Note_on_c, 0, 87, 65
1, 248043, Note_on_c, 0, 75, 59
1, 248103, Note_off_c, 0, 56, 39
1, 248107, Note_off_c, 0, 65, 44
1, 248113, Note_off_c, 0, 61, 44
1, 248168, Note_off_c, 0, 75, 49
1, 248215, Note_on_c, 0, 61, 58
1, 248215, Note_on_c, 0, 65, 57
1, 248217, Note_off_c, 0, 87, 64
1, 248218, Note_on_c, 0, 56, 54
1, 248247, Note_off_c, 0, 65, 67
1, 248289, Note_off_c, 0, 61, 63
1, 248302, Note_off_c, 0, 56, 64
1, 248375, Note_on_c, 0, 87, 77
1, 248383, Note_on_c, 0, 75, 69
1, 248443, Note_off_c, 0, 75, 60
1, 248457, Note_off_c, 0, 87, 62
1, 248549, Control_c, 0, 64, 74
1, 248553, Note_on_c, 0, 87, 79
1, 248561, Note_on_c, 0, 75, 68
1, 248563, Note_on_c, 0, 40, 66
1, 248564, Control_c, 0, 64, 36
1, 248578, Control_c, 0, 64, 0
1, 248608, Control_c, 0, 64, 31
1, 248623, Control_c, 0, 64, 59
1, 248638, Control_c, 0, 64, 127
1, 248640, Note_off_c, 0, 40, 65
1, 248744, Note_off_c, 0, 87, 58
1, 248805, Note_off_c, 0, 75, 54
1, 248827, Note_on_c, 0, 67, 68
1, 248833, Note_on_c, 0, 58, 55
1, 248837, Note_on_c, 0, 61, 59
1, 248980, Note_off_c, 0, 67, 46
1, 249003, Note_on_c, 0, 85, 80
1, 249011, Note_on_c, 0, 73, 75
1, 249071, Note_off_c, 0, 73, 61
1, 249116, Note_off_c, 0, 85, 61
1, 249189, Note_on_c, 0, 87, 87
1, 249196, Note_on_c, 0, 75, 77
1, 249274, Note_off_c, 0, 75, 58
1, 249283, Note_off_c, 0, 61, 24
1, 249296, Note_off_c, 0, 58, 36
1, 249296, Note_off_c, 0, 87, 65
1, 249422, Note_on_c, 0, 67, 74
1, 249427, Note_on_c, 0, 61, 60
1, 249432, Note_on_c, 0, 58, 53
1, 249485, Note_off_c, 0, 67, 62
1, 249522, Note_off_c, 0, 61, 63
1, 249552, Note_off_c, 0, 58, 62
1, 249703, Note_on_c, 0, 85, 88
1, 249714, Note_on_c, 0, 73, 73
1, 249776, Note_off_c, 0, 73, 60
1, 249863, Note_off_c, 0, 85, 60
1, 250044, Note_on_c, 0, 41, 62
1, 250147, Note_on_c, 0, 94, 87
1, 250155, Note_on_c, 0, 82, 76
1, 250196, Control_c, 0, 64, 96
1, 250211, Control_c, 0, 64, 63
1, 250225, Control_c, 0, 64, 35
1, 250240, Control_c, 0, 64, 0
1, 250322, Control_c, 0, 64, 42
1, 250337, Control_c, 0, 64, 71
1, 250351, Control_c, 0, 64, 127
1, 250390, Note_off_c, 0, 41, 61
1, 251107, Note_on_c, 0, 68, 44
1, 251110, Note_on_c, 0, 61, 44
1, 251130, Note_on_c, 0, 59, 34
1, 251151, Note_off_c, 0, 61, 61
1, 251153, Note_off_c, 0, 68, 46
1, 251164, Note_off_c, 0, 59, 52
1, 251257, Note_on_c, 0, 68, 49
1, 251261, Note_on_c, 0, 61, 44
1, 251279, Note_on_c, 0, 59, 45
1, 251703, Note_off_c, 0, 82, 51
1, 251719, Note_off_c, 0, 94, 61
1, 252652, Note_on_c, 0, 92, 58
1, 252670, Note_on_c, 0, 80, 43
1, 252862, Note_off_c, 0, 80, 29
1, 252904, Note_off_c, 0, 92, 36
1, 253167, Note_off_c, 0, 68, 40
1, 253181, Note_on_c, 0, 90, 61
1, 253220, Note_on_c, 0, 78, 44
1, 253369, Note_off_c, 0, 78, 36
1, 253388, Note_off_c, 0, 90, 52
1, 253480, Note_on_c, 0, 89, 58
1, 253497, Note_on_c, 0, 77, 43
1, 253527, Note_off_c, 0, 89, 56
1, 253562, Note_off_c, 0, 77, 57
1, 253673, Note_off_c, 0, 61, 23
1, 253749, Note_off_c, 0, 59, 39
1, 253764, Note_on_c, 0, 84, 50
1, 253796, Note_on_c, 0, 72, 11
1, 253905, Note_off_c, 0, 72, 43
1, 254111, Control_c, 0, 67, 11
1, 254125, Control_c, 0, 67, 15
1, 254140, Control_c, 0, 67, 21
1, 254155, Control_c, 0, 67, 31
1, 254162, Note_on_c, 0, 85, 49
1, 254170, Control_c, 0, 67, 44
1, 254185, Control_c, 0, 67, 59
1, 254199, Control_c, 0, 67, 77
1, 254203, Note_on_c, 0, 73, 27
1, 254214, Control_c, 0, 67, 96
1, 254229, Control_c, 0, 67, 120
1, 254243, Control_c, 0, 67, 127
1, 254247, Note_off_c, 0, 84, 33
1, 254478, Note_off_c, 0, 73, 42
1, 254624, Note_on_c, 0, 37, 31
1, 254748, Note_on_c, 0, 75, 41
1, 254763, Control_c, 0, 64, 115
1, 254778, Note_off_c, 0, 85, 41
1, 254778, Control_c, 0, 64, 93
1, 254800, Control_c, 0, 64, 82
1, 254815, Control_c, 0, 64, 73
1, 254829, Control_c, 0, 64, 66
1, 254844, Control_c, 0, 64, 61
1, 254859, Control_c, 0, 64, 54
1, 254874, Control_c, 0, 64, 43
1, 254889, Control_c, 0, 64, 20
1, 254896, Note_on_c, 0, 87, 51
1, 254904, Control_c, 0, 64, 0
1, 255022, Control_c, 0, 64, 22
1, 255037, Control_c, 0, 64, 47
1, 255052, Control_c, 0, 64, 66
1, 255066, Control_c, 0, 64, 127
1, 255101, Note_off_c, 0, 87, 55
1, 255130, Note_off_c, 0, 37, 41
1, 255289, Note_off_c, 0, 75, 41
1, 256136, Note_on_c, 0, 68, 34
1, 256146, Note_on_c, 0, 61, 26
1, 256151, Note_on_c, 0, 53, 26
1, 256174, Note_on_c, 0, 59, 15
1, 256224, Note_off_c, 0, 59, 46
1, 256236, Note_off_c, 0, 61, 38
1, 256241, Note_off_c, 0, 53, 38
1, 256309, Note_off_c, 0, 68, 0
1, 256332, Note_on_c, 0, 68, 17
1, 256385, Note_on_c, 0, 59, 22
1, 256388, Note_on_c, 0, 53, 7
1, 256394, Note_on_c, 0, 61, 18
1, 256668, Note_off_c, 0, 68, 32
1, 258213, Note_off_c, 0, 61, 37
1, 258286, Note_off_c, 0, 53, 40
1, 258302, Note_on_c, 0, 85, 43
1, 258335, Note_on_c, 0, 73, 22
1, 258367, Note_off_c, 0, 59, 39
1, 258452, Note_off_c, 0, 85, 56
1, 258601, Note_off_c, 0, 73, 45
1, 259032, Note_on_c, 0, 83, 48
1, 259071, Note_on_c, 0, 71, 30
1, 259162, Note_off_c, 0, 83, 36
1, 259204, Note_off_c, 0, 71, 47
1, 259489, Note_on_c, 0, 79, 57
1, 259514, Note_on_c, 0, 67, 33
1, 259748, Note_off_c, 0, 67, 43
1, 260070, Note_off_c, 0, 79, 36
1, 260291, Note_on_c, 0, 80, 41
1, 260302, Note_on_c, 0, 68, 35
1, 260381, Control_c, 0, 64, 115
1, 260396, Control_c, 0, 64, 103
1, 260410, Control_c, 0, 64, 95
1, 260425, Control_c, 0, 64, 88
1, 260440, Control_c, 0, 64, 81
1, 260455, Control_c, 0, 64, 77
1, 260470, Control_c, 0, 64, 73
1, 260484, Control_c, 0, 64, 70
1, 260499, Control_c, 0, 64, 68
1, 260514, Control_c, 0, 64, 66
1, 260529, Control_c, 0, 64, 64
1, 260544, Control_c, 0, 64, 62
1, 260559, Control_c, 0, 64, 60
1, 260574, Control_c, 0, 64, 58
1, 260589, Control_c, 0, 64, 57
1, 260603, Control_c, 0, 64, 55
1, 260618, Control_c, 0, 64, 53
1, 260633, Control_c, 0, 64, 52
1, 260648, Control_c, 0, 64, 51
1, 260663, Control_c, 0, 64, 49
1, 260678, Control_c, 0, 64, 48
1, 260693, Control_c, 0, 64, 46
1, 260708, Control_c, 0, 64, 44
1, 260723, Control_c, 0, 64, 41
1, 260738, Control_c, 0, 64, 38
1, 260752, Control_c, 0, 64, 34
1, 260767, Control_c, 0, 64, 29
1, 260789, Control_c, 0, 64, 24
1, 260804, Control_c, 0, 64, 16
1, 260818, Control_c, 0, 64, 0
1, 261011, Control_c, 0, 64, 16
1, 261026, Control_c, 0, 64, 23
1, 261041, Control_c, 0, 64, 29
1, 261056, Control_c, 0, 64, 34
1, 261071, Control_c, 0, 64, 40
1, 261085, Control_c, 0, 64, 46
1, 261100, Control_c, 0, 64, 54
1, 261116, Control_c, 0, 64, 60
1, 261131, Control_c, 0, 64, 64
1, 261146, Control_c, 0, 64, 68
1, 261161, Control_c, 0, 64, 69
1, 261190, Control_c, 0, 64, 70
1, 261205, Control_c, 0, 64, 71
1, 261220, Control_c, 0, 64, 74
1, 261234, Control_c, 0, 64, 79
1, 261249, Control_c, 0, 64, 86
1, 261264, Control_c, 0, 64, 100
1, 261279, Control_c, 0, 64, 127
1, 261297, Note_off_c, 0, 68, 40
1, 261496, Note_off_c, 0, 80, 31
1, 262222, Note_on_c, 0, 81, 37
1, 262235, Control_c, 0, 64, 114
1, 262238, Note_on_c, 0, 69, 25
1, 262249, Control_c, 0, 64, 105
1, 262264, Control_c, 0, 64, 97
1, 262287, Control_c, 0, 64, 91
1, 262302, Control_c, 0, 64, 86
1, 262317, Control_c, 0, 64, 82
1, 262331, Control_c, 0, 64, 77
1, 262346, Control_c, 0, 64, 72
1, 262361, Control_c, 0, 64, 67
1, 262376, Control_c, 0, 64, 64
1, 262390, Control_c, 0, 64, 60
1, 262405, Control_c, 0, 64, 55
1, 262420, Control_c, 0, 64, 48
1, 262435, Control_c, 0, 64, 39
1, 262450, Control_c, 0, 64, 34
1, 262464, Control_c, 0, 64, 30
1, 262479, Control_c, 0, 64, 28
1, 262494, Control_c, 0, 64, 26
1, 262509, Control_c, 0, 64, 22
1, 262524, Control_c, 0, 64, 16
1, 262538, Control_c, 0, 64, 8
1, 262553, Control_c, 0, 64, 0
1, 262732, Control_c, 0, 64, 8
1, 262747, Control_c, 0, 64, 11
1, 262762, Control_c, 0, 64, 12
1, 262777, Control_c, 0, 64, 14
1, 262791, Control_c, 0, 64, 15
1, 262806, Control_c, 0, 64, 16
1, 262820, Control_c, 0, 64, 17
1, 262835, Control_c, 0, 64, 18
1, 262850, Control_c, 0, 64, 19
1, 262865, Control_c, 0, 64, 20
1, 262879, Control_c, 0, 64, 21
1, 262894, Control_c, 0, 64, 22
1, 262909, Control_c, 0, 64, 23
1, 262924, Control_c, 0, 64, 23
1, 262939, Control_c, 0, 64, 24
1, 262953, Control_c, 0, 64, 24
1, 262968, Control_c, 0, 64, 25
1, 262983, Control_c, 0, 64, 26
1, 262997, Control_c, 0, 64, 26
1, 263012, Control_c, 0, 64, 27
1, 263035, Control_c, 0, 64, 27
1, 263050, Control_c, 0, 64, 28
1, 263079, Control_c, 0, 64, 29
1, 263094, Control_c, 0, 64, 29
1, 263109, Control_c, 0, 64, 30
1, 263124, Control_c, 0, 64, 31
1, 263139, Control_c, 0, 64, 32
1, 263153, Control_c, 0, 64, 33
1, 263168, Control_c, 0, 64, 34
1, 263183, Control_c, 0, 64, 37
1, 263198, Control_c, 0, 64, 40
1, 263212, Control_c, 0, 64, 42
1, 263227, Control_c, 0, 64, 45
1, 263242, Control_c, 0, 64, 48
1, 263257, Control_c, 0, 64, 51
1, 263272, Control_c, 0, 64, 54
1, 263286, Control_c, 0, 64, 57
1, 263301, Control_c, 0, 64, 60
1, 263316, Control_c, 0, 64, 61
1, 263331, Control_c, 0, 64, 63
1, 263346, Control_c, 0, 64, 63
1, 263361, Control_c, 0, 64, 64
1, 263376, Control_c, 0, 64, 65
1, 263391, Control_c, 0, 64, 67
1, 263405, Control_c, 0, 64, 68
1, 263420, Control_c, 0, 64, 71
1, 263435, Control_c, 0, 64, 74
1, 263450, Control_c, 0, 64, 77
1, 263465, Control_c, 0, 64, 81
1, 263479, Control_c, 0, 64, 88
1, 263494, Control_c, 0, 64, 94
1, 263510, Control_c, 0, 64, 99
1, 263525, Control_c, 0, 64, 103
1, 263540, Control_c, 0, 64, 105
1, 263555, Control_c, 0, 64, 108
1, 263570, Control_c, 0, 64, 113
1, 263584, Control_c, 0, 64, 122
1, 263597, Note_off_c, 0, 81, 42
1, 263599, Control_c, 0, 64, 127
1, 263630, Note_off_c, 0, 69, 38
1, 263659, Control_c, 0, 67, 126
1, 263674, Control_c, 0, 67, 110
1, 263689, Control_c, 0, 67, 85
1, 263703, Control_c, 0, 67, 59
1, 263718, Control_c, 0, 67, 34
1, 263733, Control_c, 0, 67, 12
1, 263748, Control_c, 0, 67, 0
1, 263763, Control_c, 0, 64, 122
1, 263784, Control_c, 0, 64, 115
1, 263799, Control_c, 0, 64, 111
1, 263814, Control_c, 0, 64, 108
1, 263829, Control_c, 0, 64, 108
1, 263844, Control_c, 0, 64, 105
1, 263859, Control_c, 0, 64, 103
1, 263873, Control_c, 0, 64, 100
1, 263888, Control_c, 0, 64, 96
1, 263903, Control_c, 0, 64, 93
1, 263918, Control_c, 0, 64, 90
1, 263933, Control_c, 0, 64, 88
1, 263948, Control_c, 0, 64, 86
1, 263962, Control_c, 0, 64, 83
1, 263977, Control_c, 0, 64, 80
1, 263992, Control_c, 0, 64, 78
1, 264007, Control_c, 0, 64, 76
1, 264022, Control_c, 0, 64, 74
1, 264036, Control_c, 0, 64, 73
1, 264051, Control_c, 0, 64, 72
1, 264066, Control_c, 0, 64, 71
1, 264081, Control_c, 0, 64, 70
1, 264096, Control_c, 0, 64, 70
1, 264110, Control_c, 0, 64, 69
1, 264140, Control_c, 0, 64, 69
1, 264154, Control_c, 0, 64, 68
1, 264169, Control_c, 0, 64, 68
1, 264184, Control_c, 0, 64, 67
1, 264199, Control_c, 0, 64, 67
1, 264258, Control_c, 0, 64, 66
1, 264348, Control_c, 0, 64, 66
1, 264377, Control_c, 0, 64, 65
1, 264407, Control_c, 0, 64, 65
1, 264437, Control_c, 0, 64, 64
1, 264452, Control_c, 0, 64, 64
1, 264467, Control_c, 0, 64, 63
1, 264482, Control_c, 0, 64, 62
1, 264496, Control_c, 0, 64, 62
1, 264511, Control_c, 0, 64, 61
1, 264533, Control_c, 0, 64, 59
1, 264548, Control_c, 0, 64, 59
1, 264563, Control_c, 0, 64, 58
1, 264578, Control_c, 0, 64, 57
1, 264592, Control_c, 0, 64, 56
1, 264607, Control_c, 0, 64, 55
1, 264622, Control_c, 0, 64, 55
1, 264652, Control_c, 0, 64, 54
1, 264681, Control_c, 0, 64, 54
1, 264696, Control_c, 0, 64, 53
1, 264711, Control_c, 0, 64, 53
1, 264726, Control_c, 0, 64, 52
1, 264756, Control_c, 0, 64, 52
1, 264771, Control_c, 0, 64, 51
1, 264785, Control_c, 0, 64, 51
1, 264815, Control_c, 0, 64, 50
1, 264830, Control_c, 0, 64, 49
1, 264845, Control_c, 0, 64, 48
1, 264859, Control_c, 0, 64, 47
1, 264874, Control_c, 0, 64, 45
1, 264889, Control_c, 0, 64, 42
1, 264904, Control_c, 0, 64, 37
1, 264919, Control_c, 0, 64, 30
1, 264933, Control_c, 0, 64, 22
1, 264948, Control_c, 0, 64, 16
1, 264961, Note_on_c, 0, 42, 37
1, 264963, Control_c, 0, 64, 12
1, 264977, Control_c, 0, 64, 10
1, 265005, Note_on_c, 0, 49, 49
1, 265022, Control_c, 0, 64, 11
1, 265037, Control_c, 0, 64, 16
1, 265051, Control_c, 0, 64, 20
1, 265066, Control_c, 0, 64, 24
1, 265068, Note_on_c, 0, 54, 53
1, 265081, Control_c, 0, 64, 29
1, 265097, Control_c, 0, 64, 35
1, 265110, Note_on_c, 0, 58, 71
1, 265112, Control_c, 0, 64, 44
1, 265116, Note_on_c, 0, 70, 68
1, 265127, Control_c, 0, 64, 53
1, 265142, Control_c, 0, 64, 62
1, 265156, Control_c, 0, 64, 72
1, 265171, Control_c, 0, 64, 91
1, 265186, Control_c, 0, 64, 127
1, 265517, Note_on_c, 0, 61, 42
1, 265772, Note_on_c, 0, 66, 48
1, 265834, Note_off_c, 0, 61, 56
1, 265847, Note_off_c, 0, 54, 41
1, 265969, Note_on_c, 0, 61, 50
1, 265991, Note_off_c, 0, 49, 34
1, 266014, Note_off_c, 0, 58, 38
1, 266170, Note_off_c, 0, 66, 31
1, 266181, Note_on_c, 0, 58, 44
1, 266199, Note_off_c, 0, 42, 32
1, 266371, Note_off_c, 0, 70, 50
1, 266373, Note_on_c, 0, 66, 53
1, 266380, Note_on_c, 0, 40, 51
1, 266407, Note_off_c, 0, 61, 63
1, 266410, Note_off_c, 0, 58, 60
1, 266451, Note_off_c, 0, 66, 61
1, 266455, Note_on_c, 0, 47, 55
1, 266470, Note_off_c, 0, 40, 58
1, 266508, Note_off_c, 0, 47, 62
1, 266518, Note_on_c, 0, 52, 61
1, 266616, Note_on_c, 0, 71, 75
1, 266621, Note_on_c, 0, 59, 68
1, 266636, Note_off_c, 0, 52, 57
1, 266663, Note_on_c, 0, 56, 64
1, 266667, Control_c, 0, 64, 69
1, 266682, Control_c, 0, 64, 52
1, 266698, Control_c, 0, 64, 26
1, 266713, Control_c, 0, 64, 0
1, 266742, Control_c, 0, 64, 25
1, 266757, Control_c, 0, 64, 43
1, 266779, Control_c, 0, 64, 61
1, 266794, Control_c, 0, 64, 127
1, 266875, Note_on_c, 0, 64, 51
1, 266909, Note_off_c, 0, 56, 53
1, 267073, Note_on_c, 0, 68, 48
1, 267107, Note_off_c, 0, 64, 36
1, 267281, Note_on_c, 0, 64, 41
1, 267283, Note_off_c, 0, 59, 49
1, 267301, Note_off_c, 0, 68, 32
1, 267466, Note_on_c, 0, 59, 34
1, 267487, Note_off_c, 0, 64, 38
1, 267680, Note_on_c, 0, 68, 40
1, 267874, Note_on_c, 0, 64, 37
1, 267918, Note_off_c, 0, 59, 33
1, 268071, Note_on_c, 0, 59, 22
1, 268098, Note_off_c, 0, 64, 42
1, 268121, Note_off_c, 0, 68, 18
1, 268286, Note_on_c, 0, 64, 31
1, 268461, Note_on_c, 0, 68, 40
1, 268522, Note_off_c, 0, 64, 41
1, 268586, Note_off_c, 0, 59, 40
1, 268652, Note_on_c, 0, 64, 29
1, 268804, Note_off_c, 0, 71, 38
1, 268864, Note_on_c, 0, 59, 13
1, 268869, Note_on_c, 0, 42, 39
1, 268910, Note_off_c, 0, 59, 52
1, 268913, Note_on_c, 0, 49, 47
1, 269022, Note_on_c, 0, 54, 51
1, 269026, Note_off_c, 0, 68, 39
1, 269039, Note_on_c, 0, 58, 70
1, 269039, Note_on_c, 0, 70, 71
1, 269051, Note_off_c, 0, 64, 50
1, 269070, Control_c, 0, 64, 105
1, 269085, Control_c, 0, 64, 66
1, 269101, Control_c, 0, 64, 46
1, 269116, Control_c, 0, 64, 0
1, 269174, Control_c, 0, 64, 17
1, 269189, Control_c, 0, 64, 39
1, 269204, Control_c, 0, 64, 58
1, 269219, Control_c, 0, 64, 108
1, 269234, Control_c, 0, 64, 127
1, 269251, Note_on_c, 0, 61, 47
1, 269321, Note_off_c, 0, 54, 37
1, 269446, Note_on_c, 0, 66, 46
1, 269489, Note_off_c, 0, 61, 52
1, 269498, Note_off_c, 0, 58, 34
1, 269546, Note_off_c, 0, 49, 43
1, 269645, Note_on_c, 0, 61, 42
1, 269790, Note_off_c, 0, 42, 39
1, 269847, Note_on_c, 0, 58, 44
1, 269865, Note_off_c, 0, 66, 39
1, 269981, Note_on_c, 0, 37, 56
1, 270014, Note_on_c, 0, 66, 48
1, 270047, Note_off_c, 0, 37, 61
1, 270059, Note_on_c, 0, 44, 53
1, 270059, Note_off_c, 0, 70, 57
1, 270099, Note_off_c, 0, 58, 57
1, 270156, Note_on_c, 0, 49, 58
1, 270294, Note_on_c, 0, 56, 67
1, 270294, Note_on_c, 0, 68, 73
1, 270343, Note_on_c, 0, 54, 56
1, 270348, Note_off_c, 0, 66, 55
1, 270351, Note_off_c, 0, 61, 61
1, 270368, Control_c, 0, 64, 107
1, 270383, Control_c, 0, 64, 88
1, 270397, Control_c, 0, 64, 75
1, 270412, Control_c, 0, 64, 66
1, 270427, Control_c, 0, 64, 57
1, 270442, Control_c, 0, 64, 39
1, 270457, Control_c, 0, 64, 0
1, 270568, Control_c, 0, 64, 27
1, 270583, Control_c, 0, 64, 43
1, 270597, Control_c, 0, 64, 58
1, 270600, Note_on_c, 0, 61, 46
1, 270612, Control_c, 0, 64, 79
1, 270627, Control_c, 0, 64, 127
1, 270797, Note_on_c, 0, 66, 53
1, 270842, Note_off_c, 0, 61, 56
1, 270978, Note_off_c, 0, 56, 43
1, 270980, Note_on_c, 0, 61, 46
1, 271175, Note_on_c, 0, 56, 42
1, 271201, Note_off_c, 0, 61, 38
1, 271202, Note_off_c, 0, 66, 30
1, 271386, Note_on_c, 0, 66, 47
1, 271576, Note_on_c, 0, 61, 47
1, 271619, Note_off_c, 0, 56, 34
1, 271775, Note_on_c, 0, 56, 38
1, 271803, Note_off_c, 0, 61, 50
1, 271955, Note_on_c, 0, 61, 35
1, 271999, Note_off_c, 0, 66, 34
1, 272035, Note_off_c, 0, 54, 40
1, 272164, Note_on_c, 0, 53, 63
1, 272168, Control_c, 0, 64, 79
1, 272183, Control_c, 0, 64, 63
1, 272198, Control_c, 0, 64, 54
1, 272202, Note_on_c, 0, 65, 45
1, 272213, Control_c, 0, 64, 47
1, 272225, Note_off_c, 0, 61, 45
1, 272228, Control_c, 0, 64, 48
1, 272242, Control_c, 0, 64, 54
1, 272250, Note_off_c, 0, 56, 37
1, 272257, Control_c, 0, 64, 61
1, 272272, Control_c, 0, 64, 74
1, 272288, Control_c, 0, 64, 115
1, 272303, Control_c, 0, 64, 127
1, 272364, Note_on_c, 0, 61, 43
1, 272370, Note_off_c, 0, 49, 57
1, 272415, Note_off_c, 0, 53, 51
1, 272538, Note_on_c, 0, 56, 51
1, 272554, Note_off_c, 0, 68, 49
1, 272598, Note_on_c, 0, 39, 40
1, 272625, Note_off_c, 0, 56, 61
1, 272627, Note_on_c, 0, 46, 58
1, 272747, Note_off_c, 0, 44, 37
1, 272765, Note_on_c, 0, 51, 57
1, 272776, Note_on_c, 0, 54, 75
1, 272779, Note_on_c, 0, 66, 75
1, 272784, Control_c, 0, 64, 94
1, 272798, Control_c, 0, 64, 80
1, 272813, Control_c, 0, 64, 71
1, 272822, Note_off_c, 0, 61, 63
1, 272828, Control_c, 0, 64, 63
1, 272843, Control_c, 0, 64, 53
1, 272845, Note_off_c, 0, 65, 59
1, 272858, Control_c, 0, 64, 28
1, 272873, Control_c, 0, 64, 0
1, 272990, Note_on_c, 0, 58, 44
1, 272991, Control_c, 0, 64, 24
1, 273006, Control_c, 0, 64, 40
1, 273021, Control_c, 0, 64, 55
1, 273036, Control_c, 0, 64, 76
1, 273051, Control_c, 0, 64, 127
1, 273200, Note_on_c, 0, 63, 48
1, 273278, Note_off_c, 0, 58, 36
1, 273377, Note_off_c, 0, 54, 51
1, 273395, Note_on_c, 0, 58, 55
1, 273593, Note_on_c, 0, 54, 50
1, 273670, Note_off_c, 0, 63, 31
1, 273778, Note_off_c, 0, 46, 37
1, 273800, Note_on_c, 0, 63, 50
1, 273948, Note_off_c, 0, 54, 60
1, 273972, Note_off_c, 0, 66, 33
1, 274083, Note_off_c, 0, 51, 34
1, 274124, Note_on_c, 0, 65, 72
1, 274126, Note_on_c, 0, 53, 70
1, 274170, Note_on_c, 0, 45, 50
1, 274173, Note_off_c, 0, 58, 62
1, 274182, Note_on_c, 0, 41, 50
1, 274205, Note_off_c, 0, 63, 25
1, 274215, Control_c, 0, 64, 84
1, 274229, Control_c, 0, 64, 67
1, 274244, Control_c, 0, 64, 55
1, 274267, Control_c, 0, 64, 33
1, 274282, Control_c, 0, 64, 0
1, 274360, Note_off_c, 0, 39, 32
1, 274415, Control_c, 0, 64, 25
1, 274430, Control_c, 0, 64, 45
1, 274434, Note_on_c, 0, 57, 55
1, 274444, Control_c, 0, 64, 64
1, 274459, Control_c, 0, 64, 127
1, 274635, Note_on_c, 0, 60, 60
1, 274724, Note_off_c, 0, 57, 58
1, 274826, Note_off_c, 0, 53, 33
1, 274831, Note_on_c, 0, 57, 70
1, 275034, Note_on_c, 0, 53, 63
1, 275215, Note_on_c, 0, 51, 74
1, 275263, Note_off_c, 0, 45, 62
1, 275268, Note_off_c, 0, 53, 62
1, 275280, Note_off_c, 0, 41, 61
1, 275281, Note_off_c, 0, 60, 63
1, 275283, Note_off_c, 0, 57, 59
1, 275288, Note_off_c, 0, 51, 63
1, 275380, Note_on_c, 0, 34, 65
1, 275430, Note_off_c, 0, 34, 64
1, 275521, Note_on_c, 0, 50, 81
1, 275579, Control_c, 0, 64, 66
1, 275594, Control_c, 0, 64, 42
1, 275609, Control_c, 0, 64, 0
1, 275610, Note_off_c, 0, 65, 15
1, 275639, Control_c, 0, 64, 32
1, 275654, Control_c, 0, 64, 55
1, 275669, Control_c, 0, 64, 127
1, 275743, Note_on_c, 0, 65, 49
1, 275745, Note_on_c, 0, 58, 44
1, 275824, Note_off_c, 0, 50, 62
1, 275919, Note_on_c, 0, 62, 64
1, 275921, Note_off_c, 0, 58, 61
1, 275921, Note_off_c, 0, 65, 63
1, 275951, Note_off_c, 0, 62, 65
1, 276087, Note_on_c, 0, 53, 78
1, 276272, Note_on_c, 0, 70, 59
1, 276280, Note_on_c, 0, 62, 58
1, 276428, Note_on_c, 0, 65, 64
1, 276434, Note_off_c, 0, 62, 58
1, 276458, Note_off_c, 0, 65, 68
1, 276477, Note_off_c, 0, 70, 59
1, 276579, Note_on_c, 0, 58, 86
1, 276762, Note_on_c, 0, 74, 59
1, 276778, Note_on_c, 0, 65, 55
1, 276926, Note_on_c, 0, 70, 64
1, 277079, Note_on_c, 0, 62, 88
1, 277086, Note_off_c, 0, 65, 36
1, 277171, Note_off_c, 0, 70, 58
1, 277203, Note_off_c, 0, 74, 37
1, 277258, Note_on_c, 0, 77, 72
1, 277288, Note_on_c, 0, 70, 55
1, 277315, Note_off_c, 0, 53, 61
1, 277356, Note_off_c, 0, 58, 61
1, 277363, Note_off_c, 0, 62, 60
1, 277412, Note_on_c, 0, 53, 63
1, 277419, Note_on_c, 0, 74, 60
1, 277452, Note_off_c, 0, 77, 58
1, 277491, Note_on_c, 0, 58, 67
1, 277523, Note_off_c, 0, 70, 47
1, 277534, Note_off_c, 0, 53, 53
1, 277538, Note_off_c, 0, 74, 60
1, 277550, Note_on_c, 0, 63, 72
1, 277697, Note_on_c, 0, 67, 85
1, 277735, Control_c, 0, 64, 98
1, 277750, Control_c, 0, 64, 61
1, 277765, Control_c, 0, 64, 19
1, 277779, Control_c, 0, 64, 0
1, 277869, Control_c, 0, 64, 52
1, 277885, Control_c, 0, 64, 127
1, 278087, Note_on_c, 0, 79, 77
1, 278098, Note_off_c, 0, 67, 61
1, 278117, Note_on_c, 0, 70, 50
1, 278277, Note_off_c, 0, 70, 53
1, 278286, Note_off_c, 0, 63, 50
1, 278377, Note_on_c, 0, 75, 77
1, 278450, Note_off_c, 0, 79, 39
1, 278504, Note_off_c, 0, 58, 59
1, 278572, Note_on_c, 0, 70, 70
1, 278739, Note_on_c, 0, 63, 68
1, 278792, Note_off_c, 0, 75, 61
1, 278840, Note_off_c, 0, 70, 58
1, 278844, Note_off_c, 0, 63, 60
1, 278898, Note_on_c, 0, 55, 80
1, 278968, Note_off_c, 0, 55, 62
1, 279050, Note_on_c, 0, 41, 59
1, 279145, Note_off_c, 0, 41, 57
1, 279146, Note_on_c, 0, 51, 60
1, 279282, Note_on_c, 0, 57, 74
1, 279323, Control_c, 0, 64, 72
1, 279338, Control_c, 0, 64, 56
1, 279352, Control_c, 0, 64, 24
1, 279367, Control_c, 0, 64, 0
1, 279411, Control_c, 0, 64, 11
1, 279426, Control_c, 0, 64, 33
1, 279441, Control_c, 0, 64, 50
1, 279456, Control_c, 0, 64, 65
1, 279472, Control_c, 0, 64, 113
1, 279487, Control_c, 0, 64, 127
1, 279661, Note_off_c, 0, 57, 62
1, 279680, Note_on_c, 0, 58, 65
1, 279768, Note_off_c, 0, 51, 36
1, 279885, Note_on_c, 0, 57, 67
1, 279997, Note_off_c, 0, 58, 37
1, 280009, Note_on_c, 0, 55, 73
1, 280029, Note_off_c, 0, 57, 60
1, 280057, Control_c, 0, 64, 109
1, 280072, Control_c, 0, 64, 97
1, 280087, Control_c, 0, 64, 90
1, 280101, Control_c, 0, 64, 85
1, 280116, Control_c, 0, 64, 80
1, 280129, Note_on_c, 0, 57, 72
1, 280131, Control_c, 0, 64, 76
1, 280146, Control_c, 0, 64, 73
1, 280161, Control_c, 0, 64, 70
1, 280175, Control_c, 0, 64, 67
1, 280190, Control_c, 0, 64, 65
1, 280205, Control_c, 0, 64, 62
1, 280219, Control_c, 0, 64, 59
1, 280234, Control_c, 0, 64, 55
1, 280239, Note_off_c, 0, 55, 36
1, 280257, Control_c, 0, 64, 52
1, 280271, Control_c, 0, 64, 49
1, 280287, Control_c, 0, 64, 46
1, 280302, Control_c, 0, 64, 44
1, 280317, Control_c, 0, 64, 41
1, 280331, Control_c, 0, 64, 38
1, 280346, Control_c, 0, 64, 35
1, 280361, Control_c, 0, 64, 30
1, 280362, Note_on_c, 0, 62, 65
1, 280376, Control_c, 0, 64, 25
1, 280391, Control_c, 0, 64, 20
1, 280406, Control_c, 0, 64, 12
1, 280420, Control_c, 0, 64, 0
1, 280535, Note_off_c, 0, 57, 52
1, 281513, Note_on_c, 0, 60, 45
1, 281664, Note_off_c, 0, 62, 38
1, 281774, Note_on_c, 0, 58, 44
1, 281879, Note_off_c, 0, 60, 55
1, 281977, Control_c, 0, 64, 20
1, 281992, Control_c, 0, 64, 34
1, 282007, Control_c, 0, 64, 47
1, 282021, Control_c, 0, 64, 64
1, 282036, Control_c, 0, 64, 105
1, 282051, Control_c, 0, 64, 127
1, 282142, Note_off_c, 0, 58, 62
1, 282301, Note_on_c, 0, 34, 35
1, 282354, Note_off_c, 0, 34, 60
1, 282526, Note_on_c, 0, 70, 40
1, 282564, Note_on_c, 0, 62, 36
1, 282629, Note_on_c, 0, 50, 13
1, 282736, Note_on_c, 0, 65, 44
1, 282780, Note_off_c, 0, 62, 41
1, 282894, Note_on_c, 0, 62, 51
1, 282939, Note_off_c, 0, 62, 60
1, 282963, Note_on_c, 0, 37, 48
1, 282982, Note_off_c, 0, 65, 42
1, 282984, Note_off_c, 0, 50, 36
1, 282993, Note_off_c, 0, 70, 43
1, 283008, Note_off_c, 0, 37, 60
1, 283088, Note_on_c, 0, 70, 53
1, 283093, Note_on_c, 0, 64, 42
1, 283104, Note_on_c, 0, 52, 52
1, 283141, Control_c, 0, 64, 75
1, 283156, Control_c, 0, 64, 61
1, 283171, Control_c, 0, 64, 49
1, 283186, Control_c, 0, 64, 44
1, 283200, Control_c, 0, 64, 48
1, 283215, Control_c, 0, 64, 57
1, 283230, Control_c, 0, 64, 70
1, 283252, Control_c, 0, 64, 127
1, 283284, Note_on_c, 0, 67, 49
1, 283327, Note_off_c, 0, 64, 51
1, 283464, Note_on_c, 0, 64, 49
1, 283482, Note_off_c, 0, 52, 59
1, 283833, Note_on_c, 0, 58, 79
1, 283842, Note_off_c, 0, 64, 40
1, 283879, Note_off_c, 0, 70, 34
1, 283890, Control_c, 0, 64, 72
1, 283905, Control_c, 0, 64, 49
1, 283920, Control_c, 0, 64, 0
1, 283935, Control_c, 0, 64, 11
1, 283949, Control_c, 0, 64, 36
1, 283955, Note_off_c, 0, 67, 37
1, 283964, Control_c, 0, 64, 59
1, 283979, Control_c, 0, 64, 127
1, 284079, Note_on_c, 0, 69, 53
1, 284085, Note_on_c, 0, 64, 44
1, 284297, Note_on_c, 0, 67, 59
1, 284315, Note_off_c, 0, 58, 61
1, 284372, Note_off_c, 0, 69, 58
1, 284404, Note_on_c, 0, 57, 77
1, 284427, Note_off_c, 0, 57, 67
1, 284463, Note_off_c, 0, 64, 59
1, 284487, Note_off_c, 0, 67, 64
1, 284577, Note_on_c, 0, 38, 62
1, 284612, Note_off_c, 0, 38, 66
1, 284726, Note_on_c, 0, 54, 82
1, 284793, Control_c, 0, 64, 65
1, 284808, Control_c, 0, 64, 27
1, 284823, Control_c, 0, 64, 0
1, 284853, Control_c, 0, 64, 20
1, 284868, Control_c, 0, 64, 53
1, 284883, Control_c, 0, 64, 127
1, 284982, Note_on_c, 0, 69, 50
1, 284989, Note_on_c, 0, 62, 57
1, 285032, Note_off_c, 0, 54, 61
1, 285159, Note_on_c, 0, 66, 57
1, 285294, Note_off_c, 0, 62, 51
1, 285299, Note_off_c, 0, 69, 54
1, 285307, Note_on_c, 0, 57, 81
1, 285333, Note_off_c, 0, 66, 37
1, 285484, Note_on_c, 0, 74, 58
1, 285500, Note_on_c, 0, 66, 59
1, 285646, Note_on_c, 0, 69, 67
1, 285661, Note_off_c, 0, 74, 61
1, 285691, Note_off_c, 0, 69, 64
1, 285692, Note_off_c, 0, 66, 23
1, 285800, Note_on_c, 0, 62, 93
1, 285875, Note_off_c, 0, 57, 61
1, 285967, Note_on_c, 0, 78, 76
1, 285971, Note_on_c, 0, 69, 68
1, 286115, Note_on_c, 0, 74, 72
1, 286138, Note_off_c, 0, 69, 58
1, 286170, Note_off_c, 0, 74, 66
1, 286170, Note_off_c, 0, 78, 62
1, 286283, Note_on_c, 0, 66, 96
1, 286319, Note_off_c, 0, 62, 62
1, 286440, Note_on_c, 0, 81, 78
1, 286452, Note_on_c, 0, 74, 69
1, 286577, Note_on_c, 0, 78, 72
1, 286606, Note_on_c, 0, 57, 66
1, 286609, Note_off_c, 0, 66, 60
1, 286669, Note_on_c, 0, 62, 69
1, 286670, Note_off_c, 0, 81, 61
1, 286677, Note_off_c, 0, 78, 65
1, 286700, Note_off_c, 0, 57, 56
1, 286746, Note_on_c, 0, 67, 77
1, 286758, Note_off_c, 0, 74, 57
1, 286910, Note_on_c, 0, 71, 91
1, 286996, Control_c, 0, 64, 93
1, 287011, Control_c, 0, 64, 56
1, 287025, Control_c, 0, 64, 0
1, 287099, Control_c, 0, 64, 55
1, 287114, Control_c, 0, 64, 127
1, 287263, Note_on_c, 0, 83, 86
1, 287279, Note_on_c, 0, 74, 67
1, 287296, Note_off_c, 0, 71, 59
1, 287509, Note_off_c, 0, 74, 38
1, 287523, Note_off_c, 0, 67, 59
1, 287557, Note_off_c, 0, 62, 52
1, 287603, Note_on_c, 0, 79, 77
1, 287650, Note_off_c, 0, 83, 57
1, 287808, Note_on_c, 0, 74, 72
1, 287980, Note_on_c, 0, 67, 80
1, 288027, Note_off_c, 0, 79, 51
1, 288132, Note_off_c, 0, 67, 61
1, 288134, Note_off_c, 0, 74, 61
1, 288138, Note_on_c, 0, 59, 77
1, 288191, Note_off_c, 0, 59, 63
1, 288265, Note_on_c, 0, 45, 62
1, 288327, Note_off_c, 0, 45, 63
1, 288361, Note_on_c, 0, 55, 60
1, 288540, Note_on_c, 0, 61, 82
1, 288552, Control_c, 0, 64, 103
1, 288567, Control_c, 0, 64, 63
1, 288582, Control_c, 0, 64, 39
1, 288597, Control_c, 0, 64, 0
1, 288642, Control_c, 0, 64, 34
1, 288657, Control_c, 0, 64, 56
1, 288671, Control_c, 0, 64, 127
1, 288801, Note_off_c, 0, 55, 34
1, 288821, Note_off_c, 0, 61, 63
1, 288985, Note_on_c, 0, 62, 70
1, 289219, Note_on_c, 0, 61, 70
1, 289362, Note_on_c, 0, 59, 72
1, 289377, Note_off_c, 0, 62, 34
1, 289393, Note_off_c, 0, 61, 63
1, 289485, Note_on_c, 0, 61, 77
1, 289610, Note_off_c, 0, 59, 36
1, 289716, Note_on_c, 0, 66, 77
1, 289716, Control_c, 0, 64, 101
1, 289731, Control_c, 0, 64, 93
1, 289746, Control_c, 0, 64, 87
1, 289760, Control_c, 0, 64, 80
1, 289775, Control_c, 0, 64, 75
1, 289790, Control_c, 0, 64, 70
1, 289805, Control_c, 0, 64, 66
1, 289819, Control_c, 0, 64, 63
1, 289834, Control_c, 0, 64, 60
1, 289849, Control_c, 0, 64, 56
1, 289865, Control_c, 0, 64, 53
1, 289880, Control_c, 0, 64, 50
1, 289895, Control_c, 0, 64, 47
1, 289909, Control_c, 0, 64, 46
1, 289925, Note_off_c, 0, 61, 33
1, 289991, Control_c, 0, 64, 46
1, 290080, Control_c, 0, 64, 45
1, 290095, Control_c, 0, 64, 45
1, 290109, Control_c, 0, 64, 44
1, 290124, Control_c, 0, 64, 44
1, 290139, Control_c, 0, 64, 43
1, 290154, Control_c, 0, 64, 41
1, 290169, Control_c, 0, 64, 40
1, 290183, Control_c, 0, 64, 38
1, 290198, Control_c, 0, 64, 36
1, 290213, Control_c, 0, 64, 34
1, 290228, Control_c, 0, 64, 32
1, 290243, Control_c, 0, 64, 30
1, 290257, Control_c, 0, 64, 28
1, 290272, Control_c, 0, 64, 26
1, 290287, Control_c, 0, 64, 25
1, 290302, Control_c, 0, 64, 23
1, 290317, Control_c, 0, 64, 20
1, 290332, Control_c, 0, 64, 17
1, 290347, Control_c, 0, 64, 14
1, 290361, Control_c, 0, 64, 8
1, 290376, Control_c, 0, 64, 0
1, 291163, Note_on_c, 0, 64, 49
1, 291257, Note_off_c, 0, 66, 51
1, 291441, Note_on_c, 0, 62, 48
1, 291528, Note_off_c, 0, 64, 55
1, 291549, Control_c, 0, 67, 10
1, 291563, Control_c, 0, 67, 19
1, 291578, Control_c, 0, 67, 36
1, 291593, Control_c, 0, 67, 65
1, 291608, Control_c, 0, 67, 108
1, 291623, Control_c, 0, 67, 127
1, 291771, Control_c, 0, 64, 24
1, 291786, Control_c, 0, 64, 39
1, 291801, Control_c, 0, 64, 53
1, 291815, Control_c, 0, 64, 67
1, 291830, Control_c, 0, 64, 127
1, 291901, Note_off_c, 0, 62, 63
1, 292034, Note_on_c, 0, 38, 27
1, 292091, Note_off_c, 0, 38, 44
1, 292299, Note_on_c, 0, 54, 39
1, 292368, Note_off_c, 0, 54, 57
1, 292496, Note_on_c, 0, 74, 40
1, 292506, Note_on_c, 0, 66, 42
1, 292656, Note_on_c, 0, 78, 62
1, 292680, Note_on_c, 0, 69, 34
1, 292693, Note_off_c, 0, 66, 39
1, 292709, Note_off_c, 0, 69, 54
1, 292714, Note_off_c, 0, 74, 36
1, 292742, Note_off_c, 0, 78, 62
1, 292815, Note_on_c, 0, 36, 49
1, 292860, Note_off_c, 0, 36, 60
1, 292995, Note_on_c, 0, 81, 52
1, 293019, Note_on_c, 0, 74, 34
1, 293173, Note_on_c, 0, 86, 53
1, 293191, Note_on_c, 0, 78, 45
1, 293304, Note_off_c, 0, 74, 36
1, 293316, Note_on_c, 0, 57, 46
1, 293320, Note_on_c, 0, 54, 35
1, 293325, Note_off_c, 0, 86, 54
1, 293402, Note_off_c, 0, 81, 31
1, 293501, Note_on_c, 0, 63, 57
1, 293520, Control_c, 0, 64, 107
1, 293534, Control_c, 0, 64, 91
1, 293549, Control_c, 0, 64, 81
1, 293554, Note_off_c, 0, 78, 26
1, 293564, Control_c, 0, 64, 73
1, 293578, Control_c, 0, 64, 63
1, 293593, Control_c, 0, 64, 53
1, 293608, Control_c, 0, 64, 33
1, 293623, Control_c, 0, 64, 0
1, 293683, Control_c, 0, 64, 11
1, 293697, Control_c, 0, 64, 24
1, 293712, Control_c, 0, 64, 34
1, 293734, Control_c, 0, 64, 45
1, 293749, Control_c, 0, 64, 57
1, 293764, Control_c, 0, 64, 67
1, 293777, Note_on_c, 0, 87, 50
1, 293778, Control_c, 0, 64, 84
1, 293784, Note_on_c, 0, 78, 48
1, 293793, Control_c, 0, 64, 95
1, 293808, Control_c, 0, 64, 101
1, 293823, Control_c, 0, 64, 111
1, 293838, Control_c, 0, 64, 127
1, 293978, Note_off_c, 0, 87, 35
1, 294028, Note_off_c, 0, 63, 36
1, 294042, Note_off_c, 0, 78, 37
1, 294137, Note_on_c, 0, 81, 37
1, 294138, Note_on_c, 0, 75, 35
1, 294208, Note_off_c, 0, 81, 53
1, 294269, Note_off_c, 0, 75, 54
1, 294336, Note_on_c, 0, 62, 48
1, 294431, Note_off_c, 0, 62, 56
1, 294438, Note_off_c, 0, 57, 39
1, 294460, Note_off_c, 0, 54, 53
1, 294569, Note_on_c, 0, 62, 50
1, 294663, Control_c, 0, 64, 74
1, 294678, Control_c, 0, 64, 53
1, 294693, Control_c, 0, 64, 0
1, 294737, Control_c, 0, 64, 32
1, 294751, Control_c, 0, 64, 53
1, 294766, Control_c, 0, 64, 94
1, 294781, Control_c, 0, 64, 127
1, 294937, Note_off_c, 0, 62, 62
1, 294944, Control_c, 0, 67, 123
1, 294958, Control_c, 0, 67, 115
1, 294973, Control_c, 0, 67, 107
1, 294988, Note_on_c, 0, 38, 43
1, 294988, Control_c, 0, 67, 98
1, 295003, Control_c, 0, 67, 90
1, 295018, Control_c, 0, 67, 83
1, 295024, Note_off_c, 0, 38, 50
1, 295033, Control_c, 0, 67, 74
1, 295048, Control_c, 0, 67, 64
1, 295063, Control_c, 0, 67, 54
1, 295078, Control_c, 0, 67, 45
1, 295092, Control_c, 0, 67, 37
1, 295107, Control_c, 0, 67, 32
1, 295122, Control_c, 0, 67, 24
1, 295125, Note_on_c, 0, 54, 55
1, 295137, Control_c, 0, 67, 13
1, 295151, Control_c, 0, 67, 0
1, 295173, Note_off_c, 0, 54, 60
1, 295304, Note_on_c, 0, 74, 55
1, 295319, Note_on_c, 0, 66, 47
1, 295431, Note_off_c, 0, 66, 0
1, 295464, Note_on_c, 0, 78, 68
1, 295469, Poly_aftertouch_c, 0, 66, 127
1, 295477, Note_on_c, 0, 69, 48
1, 295491, Note_off_c, 0, 74, 59
1, 295499, Note_off_c, 0, 69, 63
1, 295512, Poly_aftertouch_c, 0, 66, 0
1, 295533, Note_off_c, 0, 78, 62
1, 295602, Note_on_c, 0, 36, 66
1, 295638, Note_off_c, 0, 36, 62
1, 295773, Note_on_c, 0, 81, 62
1, 295777, Note_on_c, 0, 74, 56
1, 295936, Note_on_c, 0, 86, 63
1, 295981, Note_on_c, 0, 78, 45
1, 296004, Note_on_c, 0, 54, 55
1, 296039, Note_on_c, 0, 57, 58
1, 296069, Note_off_c, 0, 86, 59
1, 296073, Note_off_c, 0, 74, 38
1, 296135, Note_off_c, 0, 81, 20
1, 296164, Note_on_c, 0, 63, 80
1, 296174, Control_c, 0, 64, 80
1, 296188, Control_c, 0, 64, 56
1, 296192, Note_off_c, 0, 78, 28
1, 296203, Control_c, 0, 64, 22
1, 296218, Control_c, 0, 64, 0
1, 296248, Control_c, 0, 64, 22
1, 296264, Control_c, 0, 64, 50
1, 296278, Control_c, 0, 64, 78
1, 296293, Control_c, 0, 64, 127
1, 296380, Note_on_c, 0, 87, 65
1, 296389, Note_on_c, 0, 78, 65
1, 296467, Note_off_c, 0, 63, 58
1, 296574, Note_off_c, 0, 57, 56
1, 296602, Note_on_c, 0, 75, 51
1, 296610, Note_on_c, 0, 81, 66
1, 296680, Note_on_c, 0, 62, 80
1, 296707, Note_off_c, 0, 54, 64
1, 296751, Note_off_c, 0, 62, 63
1, 296777, Note_off_c, 0, 75, 61
1, 296811, Note_off_c, 0, 78, 54
1, 296852, Note_off_c, 0, 81, 64
1, 296864, Note_on_c, 0, 46, 67
1, 296877, Note_off_c, 0, 87, 51
1, 296954, Note_on_c, 0, 55, 68
1, 296959, Note_off_c, 0, 46, 65
1, 297087, Note_on_c, 0, 62, 85
1, 297131, Control_c, 0, 64, 63
1, 297146, Control_c, 0, 64, 38
1, 297160, Control_c, 0, 64, 0
1, 297190, Control_c, 0, 64, 21
1, 297205, Control_c, 0, 64, 48
1, 297220, Control_c, 0, 64, 91
1, 297234, Control_c, 0, 64, 127
1, 297381, Note_off_c, 0, 55, 37
1, 297446, Note_on_c, 0, 94, 78
1, 297460, Note_on_c, 0, 86, 65
1, 297491, Note_off_c, 0, 62, 58
1, 297733, Note_on_c, 0, 91, 69
1, 297748, Note_on_c, 0, 82, 52
1, 297802, Note_off_c, 0, 86, 55
1, 297805, Note_off_c, 0, 94, 37
1, 297927, Note_off_c, 0, 91, 44
1, 297947, Note_on_c, 0, 70, 81
1, 298033, Note_off_c, 0, 70, 62
1, 298050, Note_off_c, 0, 82, 62
1, 298103, Note_on_c, 0, 70, 82
1, 298330, Note_on_c, 0, 91, 65
1, 298340, Note_on_c, 0, 82, 52
1, 298533, Note_off_c, 0, 91, 35
1, 298547, Note_on_c, 0, 86, 57
1, 298551, Note_on_c, 0, 79, 44
1, 298647, Note_off_c, 0, 82, 37
1, 298664, Note_off_c, 0, 86, 55
1, 298670, Note_on_c, 0, 69, 71
1, 298697, Note_off_c, 0, 70, 27
1, 298737, Note_off_c, 0, 69, 63
1, 298771, Note_off_c, 0, 79, 55
1, 298816, Note_on_c, 0, 69, 73
1, 299020, Note_on_c, 0, 86, 58
1, 299041, Note_on_c, 0, 79, 46
1, 299201, Note_on_c, 0, 82, 55
1, 299201, Note_off_c, 0, 86, 48
1, 299210, Note_on_c, 0, 74, 33
1, 299280, Note_off_c, 0, 79, 34
1, 299310, Note_on_c, 0, 68, 70
1, 299346, Note_off_c, 0, 69, 60
1, 299384, Note_off_c, 0, 68, 59
1, 299445, Note_off_c, 0, 82, 53
1, 299458, Note_on_c, 0, 68, 56
1, 299534, Note_off_c, 0, 74, 40
1, 299609, Note_off_c, 0, 68, 51
1, 300007, Note_on_c, 0, 67, 59
1, 300015, Note_on_c, 0, 48, 57
1, 300050, Control_c, 0, 64, 68
1, 300065, Control_c, 0, 64, 42
1, 300071, Note_off_c, 0, 48, 65
1, 300080, Control_c, 0, 64, 0
1, 300083, Note_off_c, 0, 67, 64
1, 300092, Note_on_c, 0, 55, 32
1, 300094, Control_c, 0, 64, 28
1, 300109, Control_c, 0, 64, 52
1, 300121, Note_on_c, 0, 57, 42
1, 300124, Control_c, 0, 64, 119
1, 300139, Control_c, 0, 64, 127
1, 300160, Note_on_c, 0, 67, 56
1, 300188, Note_on_c, 0, 63, 62
1, 300199, Note_off_c, 0, 67, 67
1, 300248, Note_off_c, 0, 55, 38
1, 300255, Note_off_c, 0, 57, 60
1, 300464, Note_on_c, 0, 91, 62
1, 300491, Note_on_c, 0, 84, 48
1, 300505, Note_off_c, 0, 63, 37
1, 300668, Note_off_c, 0, 91, 35
1, 300673, Note_on_c, 0, 87, 51
1, 300688, Note_on_c, 0, 79, 44
1, 300702, Note_off_c, 0, 84, 52
1, 300759, Note_off_c, 0, 87, 64
1, 300765, Note_on_c, 0, 66, 58
1, 300806, Note_off_c, 0, 66, 60
1, 300806, Note_off_c, 0, 79, 56
1, 300887, Note_on_c, 0, 66, 70
1, 301072, Note_on_c, 0, 87, 48
1, 301100, Note_on_c, 0, 79, 32
1, 301211, Note_off_c, 0, 66, 32
1, 301252, Note_on_c, 0, 84, 50
1, 301275, Note_on_c, 0, 75, 27
1, 301275, Note_off_c, 0, 87, 34
1, 301283, Note_off_c, 0, 79, 41
1, 301336, Note_on_c, 0, 65, 55
1, 301351, Note_off_c, 0, 84, 58
1, 301364, Note_off_c, 0, 65, 59
1, 301444, Note_off_c, 0, 75, 49
1, 301452, Note_on_c, 0, 65, 55
1, 301628, Note_on_c, 0, 84, 52
1, 301630, Note_on_c, 0, 75, 41
1, 301764, Note_off_c, 0, 65, 39
1, 301765, Note_off_c, 0, 84, 36
1, 301796, Note_on_c, 0, 79, 42
1, 301805, Note_on_c, 0, 72, 29
1, 301811, Note_off_c, 0, 75, 34
1, 301892, Note_on_c, 0, 64, 56
1, 301928, Note_off_c, 0, 64, 61
1, 301954, Note_off_c, 0, 79, 41
1, 302014, Note_off_c, 0, 72, 41
1, 302023, Note_on_c, 0, 64, 54
1, 302287, Note_off_c, 0, 64, 54
1, 302576, Note_on_c, 0, 63, 49
1, 302652, Note_on_c, 0, 50, 30
1, 302656, Note_off_c, 0, 63, 62
1, 302692, Note_on_c, 0, 58, 44
1, 302716, Note_on_c, 0, 55, 31
1, 302850, Note_on_c, 0, 63, 56
1, 302897, Control_c, 0, 64, 105
1, 302912, Control_c, 0, 64, 66
1, 302927, Control_c, 0, 64, 51
1, 302942, Control_c, 0, 64, 34
1, 302957, Control_c, 0, 64, 34
1, 302971, Control_c, 0, 64, 46
1, 302986, Control_c, 0, 64, 61
1, 303001, Control_c, 0, 64, 119
1, 303016, Control_c, 0, 64, 127
1, 303070, Note_on_c, 0, 82, 53
1, 303081, Note_on_c, 0, 74, 43
1, 303130, Note_off_c, 0, 63, 56
1, 303257, Note_on_c, 0, 79, 54
1, 303271, Note_on_c, 0, 70, 45
1, 303315, Note_off_c, 0, 74, 36
1, 303328, Note_off_c, 0, 82, 35
1, 303344, Note_on_c, 0, 62, 64
1, 303361, Note_off_c, 0, 79, 58
1, 303395, Note_off_c, 0, 62, 57
1, 303411, Note_off_c, 0, 58, 42
1, 303418, Note_off_c, 0, 55, 19
1, 303453, Note_off_c, 0, 70, 60
1, 303475, Note_on_c, 0, 62, 68
1, 303622, Note_off_c, 0, 62, 60
1, 303637, Note_on_c, 0, 79, 67
1, 303646, Note_off_c, 0, 50, 38
1, 303658, Note_on_c, 0, 70, 55
1, 303795, Note_off_c, 0, 79, 37
1, 303797, Note_on_c, 0, 74, 56
1, 303803, Note_on_c, 0, 67, 59
1, 303877, Note_off_c, 0, 70, 36
1, 303887, Note_off_c, 0, 74, 62
1, 303889, Note_on_c, 0, 58, 76
1, 303920, Note_off_c, 0, 58, 61
1, 303968, Note_off_c, 0, 67, 51
1, 304002, Note_on_c, 0, 58, 76
1, 304012, Note_on_c, 0, 48, 59
1, 304023, Note_on_c, 0, 54, 57
1, 304061, Control_c, 0, 64, 100
1, 304076, Control_c, 0, 64, 64
1, 304091, Control_c, 0, 64, 42
1, 304106, Control_c, 0, 64, 17
1, 304120, Control_c, 0, 64, 17
1, 304135, Control_c, 0, 64, 29
1, 304150, Control_c, 0, 64, 44
1, 304165, Control_c, 0, 64, 60
1, 304179, Control_c, 0, 64, 93
1, 304181, Note_on_c, 0, 74, 59
1, 304194, Control_c, 0, 64, 127
1, 304197, Note_on_c, 0, 66, 58
1, 304277, Note_off_c, 0, 54, 64
1, 304378, Note_on_c, 0, 62, 59
1, 304378, Note_on_c, 0, 69, 60
1, 304384, Note_off_c, 0, 74, 37
1, 304479, Note_on_c, 0, 57, 71
1, 304499, Note_off_c, 0, 58, 58
1, 304516, Note_off_c, 0, 69, 55
1, 304520, Note_off_c, 0, 62, 57
1, 304560, Note_off_c, 0, 66, 21
1, 304596, Note_on_c, 0, 58, 82
1, 304603, Control_c, 0, 64, 78
1, 304617, Control_c, 0, 64, 56
1, 304632, Control_c, 0, 64, 26
1, 304647, Control_c, 0, 64, 0
1, 304676, Control_c, 0, 64, 32
1, 304691, Control_c, 0, 64, 52
1, 304698, Note_off_c, 0, 57, 61
1, 304706, Control_c, 0, 64, 81
1, 304721, Control_c, 0, 64, 127
1, 305150, Note_off_c, 0, 48, 53
1, 305156, Note_off_c, 0, 58, 37
1, 305230, Note_on_c, 0, 60, 82
1, 305298, Note_off_c, 0, 60, 61
1, 305359, Note_on_c, 0, 62, 86
1, 305367, Control_c, 0, 64, 61
1, 305369, Note_on_c, 0, 56, 64
1, 305374, Note_on_c, 0, 53, 60
1, 305377, Note_on_c, 0, 47, 64
1, 305382, Control_c, 0, 64, 0
1, 305471, Control_c, 0, 64, 45
1, 305485, Control_c, 0, 64, 127
1, 305544, Note_off_c, 0, 56, 63
1, 305571, Note_off_c, 0, 53, 64
1, 305600, Note_off_c, 0, 47, 62
1, 305678, Note_off_c, 0, 62, 61
1, 305970, Note_on_c, 0, 35, 63
1, 306133, Note_on_c, 0, 74, 58
1, 306146, Note_on_c, 0, 65, 52
1, 306242, Note_off_c, 0, 65, 52
1, 306285, Note_on_c, 0, 77, 77
1, 306292, Note_on_c, 0, 68, 63
1, 306318, Note_off_c, 0, 74, 63
1, 306323, Note_off_c, 0, 68, 63
1, 306348, Note_off_c, 0, 35, 61
1, 306360, Note_off_c, 0, 77, 63
1, 306432, Note_on_c, 0, 36, 84
1, 306494, Note_off_c, 0, 36, 63
1, 306593, Note_on_c, 0, 81, 82
1, 306606, Note_on_c, 0, 74, 66
1, 306733, Note_on_c, 0, 86, 82
1, 306757, Note_on_c, 0, 78, 65
1, 306804, Note_on_c, 0, 54, 65
1, 306827, Note_on_c, 0, 57, 65
1, 306905, Note_off_c, 0, 86, 60
1, 306909, Control_c, 0, 64, 78
1, 306924, Control_c, 0, 64, 47
1, 306929, Note_off_c, 0, 74, 37
1, 306938, Control_c, 0, 64, 0
1, 306939, Note_on_c, 0, 63, 85
1, 306968, Note_off_c, 0, 81, 51
1, 306983, Control_c, 0, 64, 37
1, 306998, Control_c, 0, 64, 73
1, 307012, Control_c, 0, 64, 127
1, 307043, Note_off_c, 0, 78, 31
1, 307126, Note_on_c, 0, 87, 76
1, 307134, Note_on_c, 0, 78, 80
1, 307259, Note_off_c, 0, 87, 64
1, 307297, Note_off_c, 0, 63, 38
1, 307320, Note_off_c, 0, 78, 62
1, 307344, Note_on_c, 0, 81, 77
1, 307349, Note_on_c, 0, 75, 72
1, 307350, Note_off_c, 0, 57, 56
1, 307404, Note_off_c, 0, 54, 37
1, 307412, Note_off_c, 0, 81, 63
1, 307442, Note_off_c, 0, 75, 61
1, 307466, Note_on_c, 0, 62, 85
1, 307523, Note_off_c, 0, 62, 63
1, 307716, Note_on_c, 0, 62, 86
1, 307738, Note_on_c, 0, 53, 58
1, 307739, Note_on_c, 0, 47, 58
1, 307739, Note_on_c, 0, 56, 67
1, 307761, Control_c, 0, 64, 75
1, 307776, Control_c, 0, 64, 47
1, 307791, Control_c, 0, 64, 0
1, 307835, Control_c, 0, 64, 23
1, 307850, Control_c, 0, 64, 55
1, 307865, Control_c, 0, 64, 127
1, 307910, Note_off_c, 0, 56, 64
1, 307931, Note_off_c, 0, 53, 64
1, 307967, Note_off_c, 0, 47, 64
1, 308013, Note_off_c, 0, 62, 62
1, 308306, Note_on_c, 0, 35, 77
1, 308468, Note_on_c, 0, 74, 71
1, 308480, Note_on_c, 0, 65, 68
1, 308587, Note_off_c, 0, 65, 54
1, 308621, Note_on_c, 0, 77, 82
1, 308624, Note_on_c, 0, 68, 72
1, 308653, Note_off_c, 0, 68, 63
1, 308655, Note_off_c, 0, 74, 64
1, 308691, Note_off_c, 0, 77, 63
1, 308700, Note_off_c, 0, 35, 62
1, 308770, Control_c, 0, 64, 62
1, 308781, Note_on_c, 0, 36, 89
1, 308784, Control_c, 0, 64, 23
1, 308799, Control_c, 0, 64, 31
1, 308814, Control_c, 0, 64, 52
1, 308828, Control_c, 0, 64, 85
1, 308843, Control_c, 0, 64, 127
1, 308876, Note_off_c, 0, 36, 62
1, 308935, Note_on_c, 0, 81, 88
1, 308945, Note_on_c, 0, 74, 74
1, 309079, Note_on_c, 0, 86, 85
1, 309097, Note_on_c, 0, 78, 69
1, 309147, Note_on_c, 0, 54, 64
1, 309172, Note_on_c, 0, 57, 68
1, 309234, Note_off_c, 0, 86, 61
1, 309267, Note_off_c, 0, 74, 39
1, 309274, Control_c, 0, 64, 91
1, 309289, Control_c, 0, 64, 59
1, 309291, Note_on_c, 0, 63, 95
1, 309304, Control_c, 0, 64, 36
1, 309310, Note_off_c, 0, 81, 57
1, 309319, Control_c, 0, 64, 23
1, 309333, Control_c, 0, 64, 33
1, 309348, Control_c, 0, 64, 54
1, 309363, Control_c, 0, 64, 100
1, 309378, Control_c, 0, 64, 127
1, 309413, Note_off_c, 0, 78, 21
1, 309505, Note_on_c, 0, 87, 79
1, 309511, Note_on_c, 0, 78, 85
1, 309609, Note_off_c, 0, 63, 50
1, 309678, Note_off_c, 0, 87, 62
1, 309694, Note_off_c, 0, 57, 52
1, 309751, Note_on_c, 0, 81, 81
1, 309753, Note_on_c, 0, 75, 69
1, 309821, Note_off_c, 0, 78, 56
1, 309833, Note_on_c, 0, 62, 87
1, 309865, Note_off_c, 0, 54, 64
1, 309909, Note_off_c, 0, 62, 64
1, 309933, Note_off_c, 0, 75, 61
1, 310028, Note_on_c, 0, 46, 77
1, 310036, Note_off_c, 0, 81, 62
1, 310098, Note_on_c, 0, 55, 72
1, 310111, Note_off_c, 0, 46, 66
1, 310222, Control_c, 0, 64, 98
1, 310223, Note_on_c, 0, 62, 96
1, 310236, Control_c, 0, 64, 56
1, 310251, Control_c, 0, 64, 0
1, 310295, Control_c, 0, 64, 41
1, 310310, Control_c, 0, 64, 90
1, 310325, Control_c, 0, 64, 127
1, 310526, Note_off_c, 0, 55, 38
1, 310569, Note_off_c, 0, 62, 59
1, 310604, Note_on_c, 0, 98, 92
1, 310608, Note_on_c, 0, 91, 91
1, 310909, Note_on_c, 0, 94, 89
1, 310914, Note_on_c, 0, 86, 76
1, 310932, Note_off_c, 0, 98, 63
1, 310954, Note_off_c, 0, 91, 58
1, 311183, Note_on_c, 0, 74, 90
1, 311236, Note_off_c, 0, 94, 63
1, 311285, Note_off_c, 0, 74, 61
1, 311335, Note_off_c, 0, 86, 54
1, 311371, Note_on_c, 0, 74, 90
1, 311659, Note_on_c, 0, 94, 77
1, 311669, Note_on_c, 0, 86, 69
1, 311890, Note_on_c, 0, 91, 71
1, 311897, Note_on_c, 0, 82, 59
1, 311934, Note_off_c, 0, 86, 61
1, 311953, Note_off_c, 0, 94, 37
1, 312048, Note_on_c, 0, 73, 81
1, 312064, Note_off_c, 0, 91, 49
1, 312116, Note_off_c, 0, 74, 61
1, 312135, Note_off_c, 0, 73, 65
1, 312201, Note_on_c, 0, 73, 89
1, 312229, Note_off_c, 0, 82, 38
1, 312406, Note_on_c, 0, 91, 76
1, 312417, Note_on_c, 0, 82, 64
1, 312600, Note_on_c, 0, 79, 60
1, 312602, Note_on_c, 0, 86, 67
1, 312623, Note_off_c, 0, 91, 36
1, 312714, Note_off_c, 0, 73, 37
1, 312714, Note_off_c, 0, 82, 33
1, 312722, Note_on_c, 0, 72, 80
1, 312796, Note_off_c, 0, 86, 51
1, 312806, Note_off_c, 0, 72, 62
1, 312847, Note_off_c, 0, 79, 35
1, 312875, Note_on_c, 0, 72, 83
1, 313031, Note_off_c, 0, 72, 59
1, 313380, Note_on_c, 0, 71, 75
1, 313419, Note_on_c, 0, 48, 61
1, 313473, Note_off_c, 0, 48, 64
1, 313473, Note_off_c, 0, 71, 66
1, 313484, Control_c, 0, 64, 57
1, 313485, Note_on_c, 0, 55, 52
1, 313498, Control_c, 0, 64, 0
1, 313509, Note_on_c, 0, 57, 46
1, 313528, Control_c, 0, 64, 12
1, 313543, Control_c, 0, 64, 49
1, 313549, Note_on_c, 0, 71, 81
1, 313558, Control_c, 0, 64, 127
1, 313586, Note_on_c, 0, 63, 68
1, 313623, Note_off_c, 0, 71, 66
1, 313637, Note_off_c, 0, 55, 59
1, 313659, Note_off_c, 0, 57, 55
1, 313849, Note_off_c, 0, 63, 54
1, 313850, Note_on_c, 0, 91, 71
1, 313868, Note_on_c, 0, 84, 61
1, 314069, Note_on_c, 0, 87, 66
1, 314074, Note_on_c, 0, 79, 58
1, 314141, Note_off_c, 0, 91, 35
1, 314162, Note_off_c, 0, 84, 56
1, 314207, Note_on_c, 0, 70, 82
1, 314265, Note_off_c, 0, 87, 64
1, 314276, Note_off_c, 0, 70, 60
1, 314365, Note_on_c, 0, 70, 76
1, 314383, Note_off_c, 0, 79, 37
1, 314574, Note_on_c, 0, 87, 64
1, 314579, Note_on_c, 0, 79, 59
1, 314725, Note_off_c, 0, 70, 51
1, 314794, Note_on_c, 0, 84, 68
1, 314806, Note_on_c, 0, 75, 57
1, 314821, Note_off_c, 0, 79, 56
1, 314846, Note_off_c, 0, 87, 36
1, 314924, Note_on_c, 0, 69, 74
1, 314941, Note_off_c, 0, 75, 61
1, 314985, Note_off_c, 0, 84, 59
1, 315002, Note_off_c, 0, 69, 64
1, 315081, Note_on_c, 0, 69, 78
1, 315892, Note_off_c, 0, 69, 62
1, 316001, Note_on_c, 0, 68, 84
1, 316145, Note_off_c, 0, 68, 61
1, 316222, Note_on_c, 0, 68, 82
1, 316406, Control_c, 0, 64, 97
1, 316421, Control_c, 0, 64, 85
1, 316436, Control_c, 0, 64, 75
1, 316450, Control_c, 0, 64, 69
1, 316465, Control_c, 0, 64, 65
1, 316480, Control_c, 0, 64, 62
1, 316495, Control_c, 0, 64, 58
1, 316510, Control_c, 0, 64, 53
1, 316524, Control_c, 0, 64, 47
1, 316539, Control_c, 0, 64, 43
1, 316554, Control_c, 0, 64, 40
1, 316568, Control_c, 0, 64, 38
1, 316583, Control_c, 0, 64, 35
1, 316598, Control_c, 0, 64, 33
1, 316613, Control_c, 0, 64, 30
1, 316628, Control_c, 0, 64, 29
1, 316642, Control_c, 0, 64, 28
1, 316657, Control_c, 0, 64, 27
1, 316672, Control_c, 0, 64, 26
1, 316687, Control_c, 0, 64, 25
1, 316702, Control_c, 0, 64, 25
1, 316716, Control_c, 0, 64, 24
1, 316731, Control_c, 0, 64, 23
1, 316746, Control_c, 0, 64, 22
1, 316761, Control_c, 0, 64, 20
1, 316775, Control_c, 0, 64, 19
1, 316790, Control_c, 0, 64, 18
1, 316805, Control_c, 0, 64, 14
1, 316820, Control_c, 0, 64, 11
1, 316835, Control_c, 0, 64, 0
1, 317709, Control_c, 0, 64, 12
1, 317724, Control_c, 0, 64, 20
1, 317739, Control_c, 0, 64, 26
1, 317753, Control_c, 0, 64, 32
1, 317768, Control_c, 0, 64, 39
1, 317783, Control_c, 0, 64, 46
1, 317798, Control_c, 0, 64, 52
1, 317813, Control_c, 0, 64, 57
1, 317828, Control_c, 0, 64, 59
1, 317858, Control_c, 0, 64, 58
1, 317873, Control_c, 0, 64, 56
1, 317888, Control_c, 0, 64, 54
1, 317902, Control_c, 0, 64, 51
1, 317917, Control_c, 0, 64, 48
1, 317932, Control_c, 0, 64, 45
1, 317947, Control_c, 0, 64, 42
1, 317962, Control_c, 0, 64, 38
1, 317977, Control_c, 0, 64, 35
1, 317992, Control_c, 0, 64, 33
1, 318007, Control_c, 0, 64, 30
1, 318021, Control_c, 0, 64, 28
1, 318036, Control_c, 0, 64, 25
1, 318051, Control_c, 0, 64, 23
1, 318066, Control_c, 0, 64, 21
1, 318081, Control_c, 0, 64, 20
1, 318090, Note_on_c, 0, 67, 78
1, 318095, Control_c, 0, 64, 20
1, 318220, Note_off_c, 0, 68, 57
1, 318259, Control_c, 0, 64, 20
1, 318288, Control_c, 0, 64, 21
1, 318303, Control_c, 0, 64, 21
1, 318318, Control_c, 0, 64, 22
1, 318607, Control_c, 0, 64, 21
1, 318627, Note_on_c, 0, 75, 84
1, 318652, Control_c, 0, 64, 21
1, 318682, Control_c, 0, 64, 20
1, 318712, Control_c, 0, 64, 20
1, 318726, Control_c, 0, 64, 19
1, 318741, Control_c, 0, 64, 19
1, 318756, Control_c, 0, 64, 18
1, 318771, Control_c, 0, 64, 17
1, 318786, Control_c, 0, 64, 16
1, 318800, Control_c, 0, 64, 15
1, 318815, Control_c, 0, 64, 14
1, 318830, Control_c, 0, 64, 11
1, 318844, Control_c, 0, 64, 9
1, 318859, Control_c, 0, 64, 0
1, 318871, Note_off_c, 0, 67, 53
1, 319149, Note_on_c, 0, 74, 77
1, 319243, Note_off_c, 0, 75, 55
1, 319473, Note_on_c, 0, 72, 75
1, 319548, Note_off_c, 0, 74, 57
1, 319705, Note_on_c, 0, 70, 78
1, 319787, Note_off_c, 0, 72, 57
1, 319906, Note_on_c, 0, 69, 76
1, 319965, Note_off_c, 0, 70, 63
1, 320153, Note_on_c, 0, 67, 71
1, 320219, Note_off_c, 0, 69, 56
1, 320434, Note_on_c, 0, 66, 64
1, 320561, Note_off_c, 0, 67, 62
1, 320703, Note_on_c, 0, 67, 66
1, 320764, Note_off_c, 0, 66, 61
1, 320862, Note_on_c, 0, 66, 76
1, 320934, Note_off_c, 0, 67, 62
1, 320995, Note_on_c, 0, 65, 69
1, 321048, Note_off_c, 0, 66, 62
1, 321160, Note_on_c, 0, 66, 76
1, 321249, Note_off_c, 0, 65, 56
1, 321417, Note_on_c, 0, 69, 66
1, 321566, Note_off_c, 0, 66, 54
1, 322871, Control_c, 0, 67, 11
1, 322885, Control_c, 0, 67, 15
1, 322900, Control_c, 0, 67, 23
1, 322915, Control_c, 0, 67, 34
1, 322937, Control_c, 0, 67, 48
1, 322952, Control_c, 0, 67, 64
1, 322967, Control_c, 0, 67, 83
1, 322982, Control_c, 0, 67, 100
1, 322997, Control_c, 0, 67, 117
1, 323011, Control_c, 0, 67, 127
1, 323744, Control_c, 0, 67, 115
1, 323758, Control_c, 0, 67, 84
1, 323773, Control_c, 0, 67, 54
1, 323788, Control_c, 0, 67, 28
1, 323803, Control_c, 0, 67, 10
1, 323818, Control_c, 0, 67, 0
1, 324049, Note_on_c, 0, 67, 31
1, 324204, Note_off_c, 0, 69, 39
1, 324669, Note_on_c, 0, 63, 47
1, 324833, Note_off_c, 0, 67, 48
1, 325107, Note_on_c, 0, 60, 60
1, 325253, Note_off_c, 0, 63, 60
1, 325516, Note_on_c, 0, 57, 63
1, 325645, Note_off_c, 0, 60, 64
1, 325977, Note_on_c, 0, 55, 66
1, 326153, Note_off_c, 0, 57, 38
1, 326782, Note_on_c, 0, 51, 64
1, 326949, Note_off_c, 0, 55, 38
1, 328177, Control_c, 0, 67, 11
1, 328192, Control_c, 0, 67, 21
1, 328207, Control_c, 0, 67, 42
1, 328222, Control_c, 0, 67, 74
1, 328237, Control_c, 0, 67, 111
1, 328252, Control_c, 0, 67, 127
1, 328889, Control_c, 0, 64, 18
1, 328904, Control_c, 0, 64, 24
1, 328926, Control_c, 0, 64, 29
1, 328941, Control_c, 0, 64, 35
1, 328956, Control_c, 0, 64, 40
1, 328970, Control_c, 0, 64, 46
1, 328985, Control_c, 0, 64, 52
1, 329001, Control_c, 0, 64, 57
1, 329016, Control_c, 0, 64, 60
1, 329031, Control_c, 0, 64, 61
1, 329046, Control_c, 0, 64, 63
1, 329060, Control_c, 0, 64, 64
1, 329075, Control_c, 0, 64, 66
1, 329090, Control_c, 0, 64, 68
1, 329105, Control_c, 0, 64, 71
1, 329120, Control_c, 0, 64, 75
1, 329134, Control_c, 0, 64, 79
1, 329149, Control_c, 0, 64, 84
1, 329164, Control_c, 0, 64, 91
1, 329179, Control_c, 0, 64, 102
1, 329194, Control_c, 0, 64, 127
1, 329781, Note_off_c, 0, 51, 31
1, 330533, Note_on_c, 0, 50, 28
1, 330587, Control_c, 0, 64, 122
1, 330603, Control_c, 0, 64, 95
1, 330618, Control_c, 0, 64, 83
1, 330632, Control_c, 0, 64, 72
1, 330647, Control_c, 0, 64, 64
1, 330662, Control_c, 0, 64, 53
1, 330677, Control_c, 0, 64, 32
1, 330692, Control_c, 0, 64, 0
1, 330810, Control_c, 0, 64, 15
1, 330825, Control_c, 0, 64, 25
1, 330839, Control_c, 0, 64, 33
1, 330854, Control_c, 0, 64, 42
1, 330869, Control_c, 0, 64, 51
1, 330884, Control_c, 0, 64, 60
1, 330899, Control_c, 0, 64, 67
1, 330914, Control_c, 0, 64, 75
1, 330929, Control_c, 0, 64, 83
1, 330943, Control_c, 0, 64, 93
1, 330958, Control_c, 0, 64, 127
1, 331108, Note_off_c, 0, 50, 38
1, 332531, Note_on_c, 0, 70, 21
1, 332604, Control_c, 0, 64, 97
1, 332618, Note_on_c, 0, 49, 31
1, 332619, Control_c, 0, 64, 81
1, 332634, Control_c, 0, 64, 68
1, 332649, Control_c, 0, 64, 58
1, 332670, Control_c, 0, 64, 37
1, 332685, Control_c, 0, 64, 0
1, 332729, Control_c, 0, 64, 12
1, 332744, Control_c, 0, 64, 27
1, 332759, Control_c, 0, 64, 38
1, 332774, Control_c, 0, 64, 54
1, 332789, Control_c, 0, 64, 66
1, 332804, Control_c, 0, 64, 86
1, 332819, Control_c, 0, 64, 127
1, 332843, Note_off_c, 0, 70, 39
1, 332881, Note_off_c, 0, 49, 43
1, 333206, Note_on_c, 0, 87, 34
1, 333334, Note_on_c, 0, 66, 26
1, 333343, Note_off_c, 0, 87, 42
1, 333463, Note_on_c, 0, 78, 36
1, 333662, Note_on_c, 0, 61, 27
1, 333682, Note_on_c, 0, 70, 30
1, 333699, Note_off_c, 0, 66, 30
1, 333776, Note_off_c, 0, 70, 37
1, 333872, Note_on_c, 0, 86, 53
1, 333879, Note_off_c, 0, 78, 43
1, 333969, Note_on_c, 0, 58, 28
1, 333993, Note_off_c, 0, 86, 41
1, 334004, Note_on_c, 0, 78, 38
1, 334163, Note_off_c, 0, 61, 35
1, 334172, Note_on_c, 0, 70, 41
1, 334216, Note_off_c, 0, 70, 55
1, 334252, Note_off_c, 0, 58, 34
1, 334349, Note_on_c, 0, 86, 32
1, 334350, Note_off_c, 0, 78, 43
1, 334402, Note_off_c, 0, 86, 40
1, 334412, Note_on_c, 0, 66, 27
1, 334470, Note_on_c, 0, 78, 44
1, 334586, Note_on_c, 0, 61, 32
1, 334606, Note_on_c, 0, 70, 41
1, 334631, Note_off_c, 0, 66, 36
1, 334674, Note_off_c, 0, 70, 52
1, 334732, Note_on_c, 0, 85, 51
1, 334746, Note_off_c, 0, 78, 41
1, 334777, Note_on_c, 0, 58, 26
1, 334823, Note_off_c, 0, 85, 62
1, 334876, Note_on_c, 0, 78, 35
1, 334934, Note_off_c, 0, 61, 31
1, 334983, Note_on_c, 0, 70, 35
1, 335034, Note_off_c, 0, 70, 50
1, 335040, Note_off_c, 0, 58, 35
1, 335120, Note_on_c, 0, 85, 44
1, 335150, Note_off_c, 0, 78, 37
1, 335175, Note_on_c, 0, 66, 28
1, 335209, Note_off_c, 0, 85, 51
1, 335233, Note_on_c, 0, 78, 20
1, 335308, Note_on_c, 0, 61, 33
1, 335341, Note_on_c, 0, 70, 37
1, 335409, Note_off_c, 0, 66, 37
1, 335445, Note_off_c, 0, 70, 38
1, 335470, Note_on_c, 0, 84, 51
1, 335502, Note_on_c, 0, 58, 29
1, 335540, Note_off_c, 0, 78, 0
1, 335563, Note_on_c, 0, 78, 21
1, 335595, Note_off_c, 0, 84, 34
1, 335702, Note_on_c, 0, 70, 39
1, 335712, Note_off_c, 0, 61, 25
1, 335813, Note_off_c, 0, 58, 35
1, 335815, Note_off_c, 0, 70, 38
1, 335842, Note_off_c, 0, 78, 44
1, 335856, Note_on_c, 0, 84, 38
1, 335909, Note_on_c, 0, 66, 27
1, 335944, Note_off_c, 0, 84, 29
1, 335995, Note_on_c, 0, 78, 29
1, 336068, Note_on_c, 0, 61, 31
1, 336074, Note_off_c, 0, 66, 39
1, 336104, Note_on_c, 0, 70, 31
1, 336257, Note_on_c, 0, 83, 41
1, 336273, Note_off_c, 0, 78, 40
1, 336281, Note_on_c, 0, 58, 29
1, 336314, Note_off_c, 0, 61, 38
1, 336350, Note_off_c, 0, 70, 41
1, 336378, Note_off_c, 0, 58, 56
1, 336438, Note_on_c, 0, 78, 32
1, 336587, Note_on_c, 0, 49, 38
1, 336592, Control_c, 0, 64, 95
1, 336607, Control_c, 0, 64, 72
1, 336622, Control_c, 0, 64, 59
1, 336636, Control_c, 0, 64, 40
1, 336651, Control_c, 0, 64, 0
1, 336661, Note_off_c, 0, 78, 41
1, 336664, Note_off_c, 0, 83, 42
1, 336695, Note_on_c, 0, 71, 34
1, 336695, Control_c, 0, 64, 9
1, 336710, Control_c, 0, 64, 27
1, 336725, Control_c, 0, 64, 41
1, 336740, Control_c, 0, 64, 55
1, 336755, Control_c, 0, 64, 69
1, 336761, Note_off_c, 0, 49, 47
1, 336769, Control_c, 0, 64, 127
1, 336881, Note_on_c, 0, 83, 42
1, 336926, Note_off_c, 0, 71, 44
1, 336983, Note_on_c, 0, 65, 29
1, 337034, Note_on_c, 0, 77, 34
1, 337084, Note_off_c, 0, 83, 42
1, 337121, Note_on_c, 0, 61, 23
1, 337144, Note_off_c, 0, 65, 39
1, 337162, Note_on_c, 0, 71, 34
1, 337239, Note_off_c, 0, 77, 41
1, 337264, Note_on_c, 0, 82, 48
1, 337299, Note_off_c, 0, 71, 44
1, 337301, Note_on_c, 0, 59, 27
1, 337402, Note_on_c, 0, 77, 27
1, 337471, Note_off_c, 0, 61, 28
1, 337502, Note_on_c, 0, 71, 37
1, 337512, Note_off_c, 0, 82, 37
1, 337553, Note_off_c, 0, 59, 36
1, 337566, Note_off_c, 0, 77, 40
1, 337627, Note_on_c, 0, 82, 50
1, 337635, Note_off_c, 0, 71, 46
1, 337681, Note_on_c, 0, 65, 29
1, 337742, Note_on_c, 0, 77, 29
1, 337819, Note_on_c, 0, 61, 31
1, 337837, Note_off_c, 0, 82, 52
1, 337874, Note_off_c, 0, 65, 37
1, 337875, Note_on_c, 0, 71, 28
1, 337958, Note_off_c, 0, 77, 41
1, 337968, Note_off_c, 0, 71, 39
1, 337969, Note_on_c, 0, 81, 53
1, 337998, Note_on_c, 0, 59, 32
1, 338106, Note_on_c, 0, 77, 36
1, 338201, Note_off_c, 0, 61, 33
1, 338202, Note_off_c, 0, 81, 52
1, 338219, Note_on_c, 0, 71, 36
1, 338256, Note_off_c, 0, 77, 39
1, 338271, Note_off_c, 0, 59, 36
1, 338344, Note_on_c, 0, 81, 52
1, 338345, Note_off_c, 0, 71, 45
1, 338401, Note_on_c, 0, 65, 30
1, 338468, Note_on_c, 0, 77, 36
1, 338552, Note_on_c, 0, 61, 31
1, 338586, Note_on_c, 0, 71, 37
1, 338615, Note_off_c, 0, 77, 38
1, 338643, Note_off_c, 0, 65, 36
1, 338717, Note_on_c, 0, 79, 44
1, 338727, Note_off_c, 0, 71, 44
1, 338753, Note_on_c, 0, 59, 21
1, 338858, Note_on_c, 0, 77, 24
1, 338952, Note_off_c, 0, 79, 37
1, 338960, Note_off_c, 0, 77, 35
1, 338971, Note_on_c, 0, 71, 25
1, 339006, Note_off_c, 0, 61, 30
1, 339058, Note_off_c, 0, 59, 34
1, 339106, Note_on_c, 0, 79, 36
1, 339125, Note_off_c, 0, 71, 45
1, 339183, Note_on_c, 0, 65, 30
1, 339234, Note_off_c, 0, 81, 30
1, 339276, Note_on_c, 0, 77, 11
1, 339374, Note_on_c, 0, 61, 24
1, 339375, Note_off_c, 0, 79, 39
1, 339391, Note_on_c, 0, 71, 25
1, 339465, Note_off_c, 0, 77, 38
1, 339469, Note_off_c, 0, 65, 39
1, 339576, Note_on_c, 0, 80, 38
1, 339593, Note_off_c, 0, 71, 45
1, 339609, Note_off_c, 0, 61, 40
1, 339615, Note_on_c, 0, 59, 17
1, 339740, Note_off_c, 0, 59, 50
1, 339791, Note_on_c, 0, 77, 29
1, 339937, Note_on_c, 0, 49, 40
1, 339943, Control_c, 0, 64, 117
1, 339958, Control_c, 0, 64, 72
1, 339973, Control_c, 0, 64, 56
1, 339987, Control_c, 0, 64, 33
1, 339998, Note_off_c, 0, 80, 35
1, 340002, Control_c, 0, 64, 0
1, 340009, Note_off_c, 0, 77, 52
1, 340031, Control_c, 0, 64, 21
1, 340046, Control_c, 0, 64, 36
1, 340054, Note_on_c, 0, 70, 38
1, 340061, Control_c, 0, 64, 51
1, 340076, Control_c, 0, 64, 66
1, 340091, Control_c, 0, 64, 127
1, 340104, Note_off_c, 0, 49, 49
1, 340159, Note_off_c, 0, 70, 48
1, 340316, Note_on_c, 0, 87, 48
1, 340374, Note_off_c, 0, 87, 63
1, 340402, Note_on_c, 0, 66, 33
1, 340458, Note_on_c, 0, 78, 47
1, 340579, Note_on_c, 0, 70, 49
1, 340581, Note_on_c, 0, 61, 36
1, 340602, Note_off_c, 0, 70, 62
1, 340620, Note_off_c, 0, 66, 36
1, 340727, Note_off_c, 0, 78, 47
1, 340728, Note_on_c, 0, 86, 58
1, 340772, Note_on_c, 0, 58, 31
1, 340805, Note_off_c, 0, 86, 48
1, 340839, Note_off_c, 0, 61, 37
1, 340852, Note_on_c, 0, 78, 39
1, 340951, Note_on_c, 0, 70, 47
1, 340977, Note_off_c, 0, 70, 56
1, 341062, Note_off_c, 0, 58, 33
1, 341094, Note_off_c, 0, 78, 48
1, 341099, Note_on_c, 0, 86, 49
1, 341130, Note_on_c, 0, 66, 35
1, 341152, Note_off_c, 0, 86, 43
1, 341220, Note_on_c, 0, 78, 38
1, 341270, Note_on_c, 0, 61, 32
1, 341284, Note_off_c, 0, 66, 39
1, 341299, Note_on_c, 0, 70, 45
1, 341340, Note_off_c, 0, 70, 58
1, 341419, Note_on_c, 0, 85, 53
1, 341421, Note_off_c, 0, 78, 50
1, 341441, Note_on_c, 0, 58, 33
1, 341515, Note_off_c, 0, 85, 62
1, 341548, Note_on_c, 0, 78, 37
1, 341553, Note_off_c, 0, 61, 37
1, 341625, Note_on_c, 0, 70, 40
1, 341669, Note_off_c, 0, 70, 52
1, 341691, Note_off_c, 0, 58, 33
1, 341762, Note_on_c, 0, 85, 44
1, 341769, Note_off_c, 0, 78, 43
1, 341794, Note_on_c, 0, 66, 37
1, 341842, Note_off_c, 0, 85, 62
1, 341887, Note_on_c, 0, 78, 37
1, 341942, Note_on_c, 0, 61, 34
1, 341948, Note_off_c, 0, 66, 38
1, 341972, Note_on_c, 0, 70, 43
1, 342027, Note_off_c, 0, 70, 56
1, 342090, Note_on_c, 0, 84, 48
1, 342101, Note_off_c, 0, 78, 42
1, 342113, Note_on_c, 0, 58, 31
1, 342188, Note_off_c, 0, 84, 36
1, 342202, Note_on_c, 0, 78, 38
1, 342220, Note_off_c, 0, 61, 33
1, 342294, Note_on_c, 0, 70, 38
1, 342392, Note_off_c, 0, 70, 37
1, 342414, Note_off_c, 0, 58, 31
1, 342441, Note_off_c, 0, 78, 43
1, 342443, Note_on_c, 0, 84, 39
1, 342495, Note_on_c, 0, 66, 30
1, 342528, Note_off_c, 0, 84, 34
1, 342569, Note_on_c, 0, 78, 43
1, 342624, Note_off_c, 0, 66, 36
1, 342662, Note_on_c, 0, 61, 26
1, 342678, Note_on_c, 0, 70, 39
1, 342822, Note_on_c, 0, 58, 29
1, 342831, Note_on_c, 0, 83, 44
1, 342841, Note_off_c, 0, 78, 44
1, 342853, Note_off_c, 0, 61, 41
1, 342871, Note_off_c, 0, 70, 42
1, 342896, Note_off_c, 0, 58, 52
1, 342985, Note_on_c, 0, 78, 27
1, 343056, Control_c, 0, 64, 89
1, 343071, Control_c, 0, 64, 68
1, 343078, Note_on_c, 0, 49, 45
1, 343086, Control_c, 0, 64, 50
1, 343101, Control_c, 0, 64, 9
1, 343116, Control_c, 0, 64, 0
1, 343137, Note_off_c, 0, 83, 35
1, 343141, Note_off_c, 0, 78, 40
1, 343182, Control_c, 0, 64, 24
1, 343197, Control_c, 0, 64, 41
1, 343207, Note_on_c, 0, 71, 32
1, 343212, Control_c, 0, 64, 56
1, 343227, Control_c, 0, 64, 70
1, 343234, Note_off_c, 0, 49, 49
1, 343242, Control_c, 0, 64, 127
1, 343364, Note_on_c, 0, 83, 40
1, 343384, Note_off_c, 0, 71, 43
1, 343452, Note_on_c, 0, 65, 34
1, 343516, Note_on_c, 0, 77, 35
1, 343574, Note_off_c, 0, 83, 46
1, 343577, Note_on_c, 0, 61, 33
1, 343607, Note_off_c, 0, 65, 40
1, 343622, Note_on_c, 0, 71, 38
1, 343714, Note_off_c, 0, 77, 39
1, 343717, Note_on_c, 0, 82, 57
1, 343731, Note_off_c, 0, 71, 42
1, 343783, Note_on_c, 0, 59, 28
1, 343843, Note_on_c, 0, 77, 41
1, 343935, Note_off_c, 0, 82, 49
1, 343952, Note_on_c, 0, 71, 41
1, 343989, Note_off_c, 0, 61, 33
1, 344035, Note_off_c, 0, 77, 39
1, 344042, Note_off_c, 0, 59, 35
1, 344055, Note_on_c, 0, 82, 58
1, 344075, Note_off_c, 0, 71, 43
1, 344158, Note_on_c, 0, 65, 41
1, 344174, Note_on_c, 0, 77, 41
1, 344266, Note_off_c, 0, 82, 39
1, 344281, Note_off_c, 0, 65, 37
1, 344284, Note_on_c, 0, 61, 43
1, 344295, Note_on_c, 0, 71, 47
1, 344336, Note_off_c, 0, 77, 48
1, 344370, Note_off_c, 0, 61, 64
1, 344406, Note_on_c, 0, 81, 59
1, 344406, Note_off_c, 0, 71, 53
1, 344432, Note_on_c, 0, 59, 23
1, 344469, Note_off_c, 0, 59, 54
1, 344512, Note_on_c, 0, 77, 41
1, 344525, Control_c, 0, 64, 66
1, 344540, Control_c, 0, 64, 47
1, 344555, Control_c, 0, 64, 0
1, 344574, Note_on_c, 0, 50, 49
1, 344599, Control_c, 0, 64, 29
1, 344608, Note_off_c, 0, 81, 58
1, 344614, Control_c, 0, 64, 49
1, 344629, Control_c, 0, 64, 66
1, 344630, Note_on_c, 0, 71, 45
1, 344638, Note_off_c, 0, 77, 49
1, 344651, Control_c, 0, 64, 127
1, 344676, Note_off_c, 0, 50, 62
1, 344726, Note_off_c, 0, 71, 51
1, 344740, Note_on_c, 0, 81, 63
1, 344828, Note_on_c, 0, 65, 42
1, 344851, Note_on_c, 0, 77, 46
1, 344942, Note_off_c, 0, 77, 54
1, 344953, Note_on_c, 0, 71, 47
1, 344975, Note_on_c, 0, 62, 40
1, 345008, Note_off_c, 0, 65, 43
1, 345083, Note_on_c, 0, 79, 54
1, 345101, Note_off_c, 0, 71, 40
1, 345125, Note_on_c, 0, 59, 42
1, 345201, Note_on_c, 0, 77, 48
1, 345215, Control_c, 0, 67, 123
1, 345230, Control_c, 0, 67, 110
1, 345244, Control_c, 0, 67, 97
1, 345259, Control_c, 0, 67, 82
1, 345274, Control_c, 0, 67, 66
1, 345289, Control_c, 0, 67, 47
1, 345297, Note_off_c, 0, 79, 50
1, 345300, Note_off_c, 0, 77, 54
1, 345304, Control_c, 0, 67, 26
1, 345305, Note_on_c, 0, 71, 45
1, 345319, Control_c, 0, 67, 0
1, 345346, Note_off_c, 0, 62, 27
1, 345411, Note_off_c, 0, 59, 34
1, 345434, Note_on_c, 0, 79, 56
1, 345448, Note_off_c, 0, 71, 36
1, 345496, Note_on_c, 0, 65, 40
1, 345544, Note_on_c, 0, 77, 36
1, 345587, Note_off_c, 0, 81, 35
1, 345646, Note_off_c, 0, 79, 55
1, 345650, Note_on_c, 0, 62, 39
1, 345660, Note_on_c, 0, 71, 40
1, 345661, Note_off_c, 0, 65, 39
1, 345694, Note_off_c, 0, 77, 38
1, 345762, Note_off_c, 0, 62, 52
1, 345776, Note_on_c, 0, 59, 44
1, 345777, Note_on_c, 0, 80, 62
1, 345819, Note_off_c, 0, 71, 46
1, 345822, Note_off_c, 0, 59, 62
1, 345908, Note_on_c, 0, 77, 40
1, 345920, Control_c, 0, 64, 74
1, 345935, Control_c, 0, 64, 54
1, 345943, Note_on_c, 0, 51, 50
1, 345949, Control_c, 0, 64, 19
1, 345964, Control_c, 0, 64, 0
1, 346008, Control_c, 0, 64, 16
1, 346023, Control_c, 0, 64, 39
1, 346038, Control_c, 0, 64, 58
1, 346042, Note_off_c, 0, 77, 52
1, 346053, Control_c, 0, 64, 127
1, 346063, Note_off_c, 0, 80, 38
1, 346065, Note_on_c, 0, 72, 49
1, 346081, Note_off_c, 0, 51, 60
1, 346110, Note_off_c, 0, 72, 62
1, 346257, Note_on_c, 0, 89, 60
1, 346286, Note_off_c, 0, 89, 66
1, 346357, Note_on_c, 0, 68, 20
1, 346395, Note_on_c, 0, 80, 45
1, 346470, Note_off_c, 0, 80, 60
1, 346479, Note_on_c, 0, 63, 39
1, 346491, Note_on_c, 0, 72, 51
1, 346516, Note_off_c, 0, 72, 62
1, 346529, Note_off_c, 0, 68, 35
1, 346603, Note_on_c, 0, 88, 60
1, 346632, Note_on_c, 0, 60, 39
1, 346662, Note_off_c, 0, 88, 59
1, 346714, Note_on_c, 0, 80, 54
1, 346787, Note_off_c, 0, 80, 55
1, 346810, Note_on_c, 0, 72, 50
1, 346810, Note_off_c, 0, 63, 38
1, 346841, Note_off_c, 0, 72, 62
1, 346907, Note_off_c, 0, 60, 32
1, 346928, Note_on_c, 0, 88, 67
1, 346993, Note_on_c, 0, 68, 44
1, 346993, Note_off_c, 0, 88, 54
1, 347041, Note_on_c, 0, 80, 49
1, 347085, Note_off_c, 0, 68, 55
1, 347121, Note_on_c, 0, 63, 38
1, 347127, Note_on_c, 0, 72, 56
1, 347165, Note_off_c, 0, 72, 56
1, 347178, Note_off_c, 0, 80, 56
1, 347232, Note_on_c, 0, 60, 46
1, 347258, Note_off_c, 0, 60, 62
1, 347261, Note_on_c, 0, 87, 63
1, 347273, Note_off_c, 0, 63, 35
1, 347357, Control_c, 0, 64, 75
1, 347373, Control_c, 0, 64, 55
1, 347378, Note_on_c, 0, 80, 57
1, 347388, Control_c, 0, 64, 14
1, 347399, Note_on_c, 0, 51, 53
1, 347402, Control_c, 0, 64, 0
1, 347432, Control_c, 0, 64, 27
1, 347446, Control_c, 0, 64, 47
1, 347461, Control_c, 0, 64, 67
1, 347467, Note_off_c, 0, 87, 33
1, 347475, Note_on_c, 0, 73, 55
1, 347476, Control_c, 0, 64, 127
1, 347480, Note_off_c, 0, 80, 54
1, 347486, Note_off_c, 0, 51, 61
1, 347590, Note_on_c, 0, 87, 60
1, 347604, Note_off_c, 0, 73, 34
1, 347644, Note_on_c, 0, 67, 50
1, 347699, Note_on_c, 0, 79, 54
1, 347744, Note_off_c, 0, 87, 48
1, 347756, Note_off_c, 0, 67, 37
1, 347783, Note_on_c, 0, 61, 51
1, 347801, Note_on_c, 0, 73, 59
1, 347828, Note_off_c, 0, 79, 53
1, 347868, Note_off_c, 0, 73, 54
1, 347891, Note_on_c, 0, 86, 71
1, 347905, Note_on_c, 0, 58, 51
1, 347937, Note_off_c, 0, 61, 62
1, 347945, Note_off_c, 0, 58, 63
1, 347979, Note_on_c, 0, 79, 48
1, 348007, Note_off_c, 0, 86, 56
1, 348017, Control_c, 0, 64, 103
1, 348032, Control_c, 0, 64, 62
1, 348046, Control_c, 0, 64, 38
1, 348061, Control_c, 0, 64, 13
1, 348064, Note_on_c, 0, 52, 62
1, 348076, Control_c, 0, 64, 28
1, 348091, Control_c, 0, 64, 43
1, 348102, Note_on_c, 0, 73, 54
1, 348106, Control_c, 0, 64, 62
1, 348120, Control_c, 0, 64, 127
1, 348126, Note_off_c, 0, 79, 54
1, 348141, Note_off_c, 0, 52, 67
1, 348194, Note_on_c, 0, 85, 68
1, 348209, Note_off_c, 0, 73, 57
1, 348292, Note_on_c, 0, 79, 57
1, 348314, Note_on_c, 0, 70, 57
1, 348367, Note_off_c, 0, 70, 51
1, 348405, Note_off_c, 0, 79, 57
1, 348418, Note_on_c, 0, 73, 49
1, 348461, Note_on_c, 0, 67, 46
1, 348524, Note_on_c, 0, 82, 68
1, 348531, Note_off_c, 0, 67, 57
1, 348551, Note_on_c, 0, 61, 49
1, 348592, Note_off_c, 0, 61, 63
1, 348646, Note_off_c, 0, 73, 34
1, 348658, Note_on_c, 0, 79, 47
1, 348667, Note_off_c, 0, 85, 33
1, 348747, Note_on_c, 0, 53, 68
1, 348751, Control_c, 0, 64, 67
1, 348766, Control_c, 0, 64, 47
1, 348781, Control_c, 0, 64, 0
1, 348818, Note_off_c, 0, 79, 36
1, 348840, Control_c, 0, 64, 32
1, 348850, Note_off_c, 0, 82, 37
1, 348855, Control_c, 0, 64, 52
1, 348863, Note_on_c, 0, 74, 54
1, 348869, Control_c, 0, 64, 78
1, 348884, Control_c, 0, 64, 127
1, 348921, Note_off_c, 0, 74, 64
1, 348928, Note_off_c, 0, 53, 66
1, 349027, Note_on_c, 0, 91, 71
1, 349080, Note_off_c, 0, 91, 59
1, 349131, Note_on_c, 0, 70, 40
1, 349170, Note_on_c, 0, 82, 56
1, 349249, Note_off_c, 0, 82, 61
1, 349256, Note_off_c, 0, 70, 34
1, 349268, Note_on_c, 0, 74, 59
1, 349270, Note_on_c, 0, 65, 44
1, 349295, Note_off_c, 0, 74, 68
1, 349381, Note_on_c, 0, 90, 76
1, 349425, Note_on_c, 0, 62, 48
1, 349450, Note_off_c, 0, 90, 64
1, 349488, Note_on_c, 0, 82, 54
1, 349580, Note_off_c, 0, 82, 63
1, 349582, Note_on_c, 0, 74, 52
1, 349598, Note_off_c, 0, 65, 31
1, 349603, Note_off_c, 0, 74, 63
1, 349694, Note_on_c, 0, 90, 70
1, 349716, Note_off_c, 0, 62, 28
1, 349770, Note_off_c, 0, 90, 65
1, 349774, Note_on_c, 0, 70, 49
1, 349795, Note_on_c, 0, 82, 59
1, 349863, Note_off_c, 0, 70, 57
1, 349896, Note_on_c, 0, 74, 53
1, 349902, Note_off_c, 0, 82, 58
1, 349919, Note_off_c, 0, 74, 62
1, 349926, Note_on_c, 0, 65, 49
1, 350005, Note_on_c, 0, 89, 69
1, 350048, Note_off_c, 0, 65, 63
1, 350053, Note_on_c, 0, 62, 46
1, 350080, Note_off_c, 0, 62, 57
1, 350113, Note_on_c, 0, 82, 58
1, 350128, Note_off_c, 0, 89, 56
1, 350129, Control_c, 0, 64, 74
1, 350144, Control_c, 0, 64, 52
1, 350159, Control_c, 0, 64, 0
1, 350189, Control_c, 0, 64, 30
1, 350189, Note_on_c, 0, 53, 67
1, 350203, Control_c, 0, 64, 48
1, 350218, Control_c, 0, 64, 69
1, 350222, Note_on_c, 0, 75, 59
1, 350226, Note_off_c, 0, 82, 62
1, 350233, Control_c, 0, 64, 127
1, 350257, Note_off_c, 0, 53, 65
1, 350283, Note_off_c, 0, 75, 62
1, 350337, Note_on_c, 0, 89, 73
1, 350374, Note_on_c, 0, 69, 51
1, 350430, Note_off_c, 0, 89, 58
1, 350437, Note_on_c, 0, 81, 61
1, 350464, Note_off_c, 0, 69, 54
1, 350519, Note_on_c, 0, 63, 52
1, 350539, Note_on_c, 0, 75, 62
1, 350569, Note_off_c, 0, 81, 58
1, 350641, Note_on_c, 0, 88, 75
1, 350651, Note_off_c, 0, 75, 59
1, 350669, Note_on_c, 0, 60, 51
1, 350710, Note_off_c, 0, 63, 57
1, 350719, Note_off_c, 0, 60, 60
1, 350734, Note_on_c, 0, 81, 63
1, 350745, Control_c, 0, 64, 114
1, 350760, Control_c, 0, 64, 63
1, 350775, Control_c, 0, 64, 43
1, 350785, Note_off_c, 0, 88, 61
1, 350790, Control_c, 0, 64, 22
1, 350804, Control_c, 0, 64, 31
1, 350817, Note_on_c, 0, 54, 75
1, 350819, Control_c, 0, 64, 44
1, 350834, Control_c, 0, 64, 65
1, 350849, Control_c, 0, 64, 127
1, 350852, Note_on_c, 0, 75, 59
1, 350886, Note_off_c, 0, 81, 56
1, 350903, Note_off_c, 0, 54, 64
1, 350943, Note_on_c, 0, 87, 70
1, 350963, Note_off_c, 0, 75, 55
1, 351040, Note_on_c, 0, 81, 56
1, 351055, Note_on_c, 0, 72, 60
1, 351151, Note_on_c, 0, 75, 57
1, 351159, Note_off_c, 0, 81, 59
1, 351189, Note_off_c, 0, 72, 36
1, 351190, Note_on_c, 0, 69, 57
1, 351271, Note_on_c, 0, 84, 73
1, 351288, Note_off_c, 0, 69, 57
1, 351321, Note_on_c, 0, 63, 51
1, 351358, Note_off_c, 0, 87, 61
1, 351378, Note_off_c, 0, 75, 36
1, 351402, Note_off_c, 0, 63, 61
1, 351432, Note_on_c, 0, 81, 59
1, 351561, Note_off_c, 0, 84, 58
1, 351593, Note_on_c, 0, 55, 69
1, 351612, Control_c, 0, 64, 87
1, 351627, Control_c, 0, 64, 64
1, 351642, Control_c, 0, 64, 42
1, 351657, Control_c, 0, 64, 0
1, 351751, Note_on_c, 0, 76, 65
1, 351756, Note_off_c, 0, 81, 60
1, 351760, Control_c, 0, 64, 35
1, 351775, Control_c, 0, 64, 62
1, 351790, Control_c, 0, 64, 127
1, 351882, Note_off_c, 0, 76, 61
1, 351957, Note_off_c, 0, 55, 52
1, 352147, Note_on_c, 0, 93, 80
1, 352352, Note_on_c, 0, 72, 34
1, 352359, Note_off_c, 0, 93, 34
1, 352453, Note_on_c, 0, 84, 46
1, 352651, Note_on_c, 0, 67, 26
1, 352672, Note_on_c, 0, 76, 53
1, 352735, Note_off_c, 0, 72, 36
1, 352769, Note_off_c, 0, 76, 36
1, 352874, Note_on_c, 0, 91, 64
1, 352922, Note_off_c, 0, 84, 41
1, 353009, Note_on_c, 0, 64, 32
1, 353055, Note_on_c, 0, 84, 37
1, 353062, Note_off_c, 0, 91, 32
1, 353190, Note_off_c, 0, 67, 37
1, 353208, Note_on_c, 0, 76, 45
1, 353286, Note_off_c, 0, 76, 33
1, 353329, Note_off_c, 0, 64, 38
1, 353385, Note_on_c, 0, 91, 50
1, 353396, Note_off_c, 0, 84, 41
1, 353413, Note_on_c, 0, 72, 32
1, 353504, Note_off_c, 0, 91, 40
1, 353509, Note_on_c, 0, 84, 44
1, 353593, Note_off_c, 0, 72, 38
1, 353599, Note_on_c, 0, 67, 28
1, 353658, Note_on_c, 0, 76, 44
1, 353687, Note_off_c, 0, 76, 53
1, 353771, Note_on_c, 0, 90, 58
1, 353782, Note_on_c, 0, 64, 25
1, 353801, Note_off_c, 0, 84, 35
1, 353840, Note_off_c, 0, 67, 43
1, 353875, Note_on_c, 0, 84, 32
1, 353891, Note_off_c, 0, 90, 49
1, 353961, Note_on_c, 0, 60, 40
1, 353998, Note_on_c, 0, 76, 34
1, 354030, Note_off_c, 0, 76, 54
1, 354055, Note_off_c, 0, 64, 39
1, 354107, Note_on_c, 0, 90, 55
1, 354114, Note_off_c, 0, 84, 41
1, 354178, Note_off_c, 0, 90, 63
1, 354187, Note_on_c, 0, 72, 30
1, 354232, Note_on_c, 0, 84, 35
1, 354301, Note_on_c, 0, 76, 45
1, 354317, Note_off_c, 0, 84, 0
1, 354317, Note_on_c, 0, 84, 7
1, 354334, Note_off_c, 0, 76, 50
1, 354351, Note_on_c, 0, 67, 34
1, 354353, Note_off_c, 0, 72, 40
1, 354418, Note_on_c, 0, 91, 64
1, 354429, Note_off_c, 0, 84, 54
1, 354467, Note_off_c, 0, 60, 37
1, 354506, Note_off_c, 0, 91, 54
1, 354543, Note_on_c, 0, 84, 53
1, 354552, Note_on_c, 0, 64, 34
1, 354625, Note_on_c, 0, 76, 60
1, 354643, Note_off_c, 0, 67, 33
1, 354667, Note_off_c, 0, 76, 55
1, 354677, Note_off_c, 0, 84, 0
1, 354677, Note_on_c, 0, 84, 6
1, 354726, Note_on_c, 0, 91, 71
1, 354779, Note_off_c, 0, 84, 36
1, 354793, Note_off_c, 0, 64, 40
1, 354823, Note_on_c, 0, 84, 52
1, 354828, Note_off_c, 0, 91, 53
1, 354850, Note_on_c, 0, 72, 43
1, 354862, Note_off_c, 0, 84, 64
1, 354934, Note_on_c, 0, 84, 55
1, 354979, Note_off_c, 0, 84, 58
1, 354993, Note_off_c, 0, 72, 41
1, 354994, Note_on_c, 0, 67, 36
1, 355065, Note_on_c, 0, 100, 76
1, 355092, Note_off_c, 0, 67, 58
1, 355111, Note_on_c, 0, 64, 37
1, 355145, Note_off_c, 0, 64, 59
1, 355214, Note_on_c, 0, 91, 63
1, 355216, Note_off_c, 0, 100, 38
1, 355251, Note_on_c, 0, 56, 68
1, 355252, Control_c, 0, 64, 80
1, 355267, Control_c, 0, 64, 54
1, 355281, Control_c, 0, 64, 17
1, 355296, Control_c, 0, 64, 0
1, 355311, Control_c, 0, 64, 28
1, 355326, Control_c, 0, 64, 52
1, 355341, Control_c, 0, 64, 79
1, 355357, Control_c, 0, 64, 127
1, 355368, Note_off_c, 0, 91, 58
1, 355370, Note_on_c, 0, 84, 61
1, 355381, Note_off_c, 0, 56, 63
1, 355417, Note_off_c, 0, 84, 59
1, 355512, Note_on_c, 0, 100, 66
1, 355548, Note_off_c, 0, 100, 66
1, 355628, Note_on_c, 0, 72, 29
1, 355643, Note_on_c, 0, 89, 46
1, 355725, Note_on_c, 0, 65, 44
1, 355730, Note_off_c, 0, 89, 46
1, 355741, Note_on_c, 0, 84, 52
1, 355749, Note_off_c, 0, 72, 39
1, 355789, Note_off_c, 0, 84, 60
1, 355843, Note_on_c, 0, 98, 64
1, 355903, Note_on_c, 0, 62, 41
1, 355939, Note_on_c, 0, 89, 58
1, 355970, Note_off_c, 0, 98, 36
1, 356035, Note_off_c, 0, 89, 64
1, 356047, Note_on_c, 0, 84, 59
1, 356058, Note_off_c, 0, 65, 36
1, 356121, Note_off_c, 0, 84, 62
1, 356138, Note_off_c, 0, 62, 45
1, 356153, Note_on_c, 0, 98, 72
1, 356240, Note_off_c, 0, 98, 52
1, 356260, Note_on_c, 0, 89, 62
1, 356266, Note_on_c, 0, 72, 42
1, 356342, Note_off_c, 0, 72, 53
1, 356351, Note_on_c, 0, 84, 59
1, 356386, Note_on_c, 0, 65, 46
1, 356398, Note_off_c, 0, 89, 62
1, 356442, Note_on_c, 0, 97, 73
1, 356453, Note_off_c, 0, 84, 58
1, 356504, Note_on_c, 0, 62, 54
1, 356537, Note_on_c, 0, 89, 63
1, 356564, Note_off_c, 0, 65, 57
1, 356577, Note_off_c, 0, 97, 64
1, 356609, Control_c, 0, 64, 70
1, 356631, Control_c, 0, 64, 52
1, 356646, Control_c, 0, 64, 31
1, 356654, Note_off_c, 0, 62, 38
1, 356660, Note_on_c, 0, 56, 57
1, 356661, Control_c, 0, 64, 32
1, 356663, Note_on_c, 0, 83, 57
1, 356676, Control_c, 0, 64, 43
1, 356690, Control_c, 0, 64, 58
1, 356696, Note_off_c, 0, 83, 61
1, 356705, Control_c, 0, 64, 88
1, 356720, Control_c, 0, 64, 127
1, 356761, Note_on_c, 0, 97, 66
1, 356761, Note_off_c, 0, 89, 49
1, 356764, Note_off_c, 0, 56, 64
1, 356840, Note_off_c, 0, 97, 65
1, 356857, Note_on_c, 0, 89, 45
1, 356878, Note_on_c, 0, 71, 54
1, 356935, Note_on_c, 0, 83, 53
1, 356965, Note_off_c, 0, 89, 0
1, 356967, Note_off_c, 0, 83, 58
1, 356985, Note_off_c, 0, 71, 61
1, 357003, Poly_aftertouch_c, 0, 89, 127
1, 357013, Note_on_c, 0, 65, 49
1, 357074, Note_on_c, 0, 98, 70
1, 357108, Poly_aftertouch_c, 0, 89, 0
1, 357161, Note_on_c, 0, 62, 42
1, 357184, Note_on_c, 0, 89, 53
1, 357194, Note_off_c, 0, 65, 36
1, 357215, Note_off_c, 0, 98, 39
1, 357269, Control_c, 0, 64, 68
1, 357274, Note_off_c, 0, 89, 63
1, 357284, Control_c, 0, 64, 45
1, 357299, Control_c, 0, 64, 12
1, 357307, Note_on_c, 0, 55, 46
1, 357313, Note_off_c, 0, 62, 36
1, 357313, Control_c, 0, 64, 26
1, 357328, Control_c, 0, 64, 48
1, 357331, Note_on_c, 0, 86, 56
1, 357343, Control_c, 0, 64, 71
1, 357358, Control_c, 0, 64, 127
1, 357365, Note_off_c, 0, 86, 64
1, 357394, Note_off_c, 0, 55, 58
1, 357510, Note_on_c, 0, 101, 55
1, 357595, Note_off_c, 0, 101, 59
1, 357632, Note_on_c, 0, 71, 40
1, 357670, Note_on_c, 0, 95, 58
1, 357706, Note_off_c, 0, 95, 65
1, 357842, Note_off_c, 0, 71, 40
1, 357855, Note_on_c, 0, 65, 34
1, 357894, Note_on_c, 0, 77, 48
1, 358028, Note_off_c, 0, 77, 34
1, 358075, Note_on_c, 0, 91, 55
1, 358189, Note_on_c, 0, 62, 37
1, 358213, Note_off_c, 0, 65, 43
1, 358314, Note_off_c, 0, 91, 31
1, 358355, Note_on_c, 0, 83, 36
1, 358451, Note_off_c, 0, 62, 41
1, 358654, Note_on_c, 0, 55, 38
1, 358678, Control_c, 0, 64, 103
1, 358693, Control_c, 0, 64, 92
1, 358708, Control_c, 0, 64, 84
1, 358722, Control_c, 0, 64, 78
1, 358737, Control_c, 0, 64, 73
1, 358752, Control_c, 0, 64, 68
1, 358767, Control_c, 0, 64, 62
1, 358782, Control_c, 0, 64, 52
1, 358792, Note_on_c, 0, 76, 43
1, 358796, Control_c, 0, 64, 29
1, 358811, Control_c, 0, 64, 0
1, 358814, Note_off_c, 0, 83, 46
1, 358836, Note_off_c, 0, 76, 0
1, 358836, Note_on_c, 0, 76, 8
1, 358893, Control_c, 0, 64, 11
1, 358908, Control_c, 0, 64, 39
1, 358923, Control_c, 0, 64, 58
1, 358937, Control_c, 0, 64, 109
1, 358952, Control_c, 0, 64, 127
1, 358970, Note_off_c, 0, 76, 46
1, 359048, Note_off_c, 0, 55, 43
1, 359250, Note_on_c, 0, 93, 47
1, 359394, Note_off_c, 0, 93, 32
1, 359404, Note_on_c, 0, 72, 32
1, 359492, Note_on_c, 0, 84, 34
1, 359671, Note_on_c, 0, 76, 46
1, 359686, Note_on_c, 0, 67, 25
1, 359719, Note_off_c, 0, 76, 48
1, 359733, Note_off_c, 0, 72, 36
1, 359850, Note_on_c, 0, 91, 48
1, 359878, Note_off_c, 0, 84, 43
1, 359930, Note_on_c, 0, 64, 30
1, 359979, Note_off_c, 0, 91, 33
1, 360004, Note_on_c, 0, 84, 43
1, 360119, Note_on_c, 0, 76, 37
1, 360150, Note_off_c, 0, 67, 35
1, 360152, Note_off_c, 0, 76, 55
1, 360195, Note_off_c, 0, 64, 42
1, 360219, Note_on_c, 0, 91, 60
1, 360248, Note_off_c, 0, 84, 41
1, 360297, Note_off_c, 0, 91, 52
1, 360330, Note_on_c, 0, 72, 34
1, 360358, Note_on_c, 0, 84, 35
1, 360446, Note_on_c, 0, 76, 51
1, 360473, Note_off_c, 0, 76, 54
1, 360488, Note_off_c, 0, 72, 41
1, 360489, Note_on_c, 0, 67, 38
1, 360548, Note_off_c, 0, 84, 52
1, 360556, Note_on_c, 0, 90, 58
1, 360628, Note_on_c, 0, 64, 34
1, 360651, Note_off_c, 0, 90, 50
1, 360652, Note_on_c, 0, 84, 46
1, 360663, Note_off_c, 0, 67, 45
1, 360768, Note_on_c, 0, 60, 47
1, 360773, Note_on_c, 0, 76, 38
1, 360801, Note_off_c, 0, 76, 53
1, 360847, Note_off_c, 0, 64, 41
1, 360857, Note_off_c, 0, 84, 60
1, 360870, Note_on_c, 0, 90, 59
1, 360947, Note_off_c, 0, 90, 65
1, 360988, Note_on_c, 0, 72, 45
1, 361000, Note_on_c, 0, 84, 38
1, 361053, Note_off_c, 0, 84, 41
1, 361061, Note_on_c, 0, 76, 50
1, 361085, Note_off_c, 0, 76, 57
1, 361130, Note_on_c, 0, 84, 22
1, 361155, Note_off_c, 0, 72, 35
1, 361174, Note_on_c, 0, 67, 36
1, 361175, Note_on_c, 0, 91, 66
1, 361194, Note_off_c, 0, 84, 43
1, 361249, Note_off_c, 0, 91, 53
1, 361277, Note_off_c, 0, 60, 39
1, 361289, Note_on_c, 0, 84, 52
1, 361367, Note_off_c, 0, 67, 38
1, 361375, Note_on_c, 0, 76, 57
1, 361408, Note_on_c, 0, 64, 29
1, 361418, Note_off_c, 0, 76, 51
1, 361491, Note_on_c, 0, 91, 62
1, 361521, Note_off_c, 0, 84, 41
1, 361549, Note_off_c, 0, 91, 55
1, 361588, Note_on_c, 0, 84, 50
1, 361612, Note_off_c, 0, 64, 41
1, 361660, Note_on_c, 0, 76, 50
1, 361678, Note_on_c, 0, 72, 46
1, 361688, Note_off_c, 0, 76, 52
1, 361722, Note_off_c, 0, 84, 0
1, 361722, Note_on_c, 0, 84, 15
1, 361763, Note_on_c, 0, 91, 60
1, 361772, Note_off_c, 0, 84, 58
1, 361814, Note_off_c, 0, 91, 59
1, 361856, Note_off_c, 0, 72, 38
1, 361863, Note_on_c, 0, 67, 34
1, 361906, Note_on_c, 0, 86, 53
1, 361947, Note_off_c, 0, 86, 62
1, 362019, Note_on_c, 0, 100, 77
1, 362029, Note_on_c, 0, 64, 35
1, 362047, Note_off_c, 0, 67, 44
1, 362064, Note_off_c, 0, 64, 57
1, 362103, Note_off_c, 0, 100, 54
1, 362130, Note_on_c, 0, 91, 71
1, 362228, Control_c, 0, 64, 84
1, 362231, Note_on_c, 0, 56, 59
1, 362243, Control_c, 0, 64, 59
1, 362258, Control_c, 0, 64, 36
1, 362272, Control_c, 0, 64, 20
1, 362283, Note_off_c, 0, 91, 58
1, 362285, Note_on_c, 0, 84, 57
1, 362287, Control_c, 0, 64, 31
1, 362302, Control_c, 0, 64, 48
1, 362317, Control_c, 0, 64, 65
1, 362332, Control_c, 0, 64, 127
1, 362353, Note_off_c, 0, 56, 64
1, 362357, Note_off_c, 0, 84, 60
1, 362443, Note_on_c, 0, 100, 67
1, 362478, Note_off_c, 0, 100, 60
1, 362509, Note_on_c, 0, 72, 34
1, 362566, Note_on_c, 0, 89, 53
1, 362578, Note_off_c, 0, 72, 38
1, 362637, Note_on_c, 0, 65, 42
1, 362669, Note_off_c, 0, 89, 58
1, 362676, Note_on_c, 0, 84, 61
1, 362743, Note_off_c, 0, 84, 60
1, 362774, Note_on_c, 0, 98, 75
1, 362779, Note_on_c, 0, 62, 43
1, 362874, Note_on_c, 0, 89, 64
1, 362935, Note_off_c, 0, 98, 36
1, 362974, Note_on_c, 0, 84, 65
1, 362986, Note_off_c, 0, 89, 62
1, 363001, Note_off_c, 0, 65, 28
1, 363068, Note_off_c, 0, 62, 35
1, 363068, Note_off_c, 0, 84, 50
1, 363076, Note_on_c, 0, 98, 78
1, 363163, Note_on_c, 0, 72, 51
1, 363171, Note_on_c, 0, 89, 73
1, 363198, Note_off_c, 0, 98, 57
1, 363255, Note_off_c, 0, 72, 50
1, 363280, Note_on_c, 0, 84, 64
1, 363307, Note_on_c, 0, 65, 48
1, 363322, Note_off_c, 0, 89, 62
1, 363391, Note_on_c, 0, 97, 82
1, 363442, Note_on_c, 0, 62, 58
1, 363457, Note_off_c, 0, 84, 34
1, 363486, Note_on_c, 0, 89, 63
1, 363531, Note_off_c, 0, 65, 52
1, 363533, Control_c, 0, 64, 76
1, 363548, Note_off_c, 0, 97, 65
1, 363548, Control_c, 0, 64, 53
1, 363563, Control_c, 0, 64, 32
1, 363578, Control_c, 0, 64, 28
1, 363586, Note_off_c, 0, 62, 51
1, 363588, Note_on_c, 0, 56, 67
1, 363592, Control_c, 0, 64, 38
1, 363607, Control_c, 0, 64, 52
1, 363611, Note_on_c, 0, 83, 61
1, 363622, Control_c, 0, 64, 69
1, 363637, Control_c, 0, 64, 127
1, 363666, Note_off_c, 0, 56, 64
1, 363667, Note_off_c, 0, 83, 59
1, 363696, Note_off_c, 0, 89, 60
1, 363735, Note_on_c, 0, 97, 59
1, 363814, Note_on_c, 0, 73, 82
1, 363853, Note_off_c, 0, 97, 62
1, 363917, Note_on_c, 0, 89, 14
1, 363961, Note_off_c, 0, 89, 49
1, 363975, Note_on_c, 0, 83, 46
1, 364008, Note_off_c, 0, 83, 49
1, 364014, Note_on_c, 0, 65, 52
1, 364088, Note_off_c, 0, 73, 55
1, 364124, Note_on_c, 0, 89, 28
1, 364203, Note_on_c, 0, 98, 77
1, 364257, Note_off_c, 0, 89, 42
1, 364280, Note_on_c, 0, 61, 52
1, 364364, Note_off_c, 0, 65, 44
1, 364401, Note_on_c, 0, 89, 47
1, 364426, Note_off_c, 0, 98, 35
1, 364437, Note_off_c, 0, 61, 61
1, 364658, Note_on_c, 0, 75, 76
1, 364726, Control_c, 0, 64, 109
1, 364741, Control_c, 0, 64, 68
1, 364756, Control_c, 0, 64, 54
1, 364771, Control_c, 0, 64, 35
1, 364786, Control_c, 0, 64, 20
1, 364801, Control_c, 0, 64, 24
1, 364812, Note_on_c, 0, 83, 51
1, 364815, Control_c, 0, 64, 35
1, 364830, Control_c, 0, 64, 47
1, 364845, Control_c, 0, 64, 62
1, 364860, Control_c, 0, 64, 115
1, 364878, Note_off_c, 0, 89, 31
1, 364881, Control_c, 0, 64, 127
1, 364952, Note_off_c, 0, 83, 49
1, 365195, Note_on_c, 0, 99, 51
1, 365275, Note_on_c, 0, 65, 28
1, 365305, Note_off_c, 0, 99, 40
1, 365340, Note_off_c, 0, 75, 36
1, 365430, Note_on_c, 0, 89, 39
1, 365597, Note_on_c, 0, 83, 30
1, 365617, Note_on_c, 0, 61, 34
1, 365697, Note_off_c, 0, 83, 35
1, 365803, Note_off_c, 0, 89, 40
1, 365805, Note_on_c, 0, 97, 48
1, 365832, Note_off_c, 0, 65, 40
1, 365940, Note_on_c, 0, 73, 45
1, 366050, Note_off_c, 0, 73, 55
1, 366127, Note_off_c, 0, 61, 53
1, 366168, Note_off_c, 0, 97, 33
1, 366198, Note_on_c, 0, 89, 28
1, 366369, Note_on_c, 0, 54, 38
1, 366381, Control_c, 0, 64, 94
1, 366395, Control_c, 0, 64, 66
1, 366410, Control_c, 0, 64, 46
1, 366425, Control_c, 0, 64, 19
1, 366434, Note_off_c, 0, 89, 45
1, 366439, Control_c, 0, 64, 0
1, 366454, Control_c, 0, 64, 22
1, 366467, Note_on_c, 0, 83, 34
1, 366469, Control_c, 0, 64, 38
1, 366484, Control_c, 0, 64, 53
1, 366499, Control_c, 0, 64, 71
1, 366513, Control_c, 0, 64, 127
1, 366531, Note_off_c, 0, 54, 38
1, 366615, Note_off_c, 0, 83, 40
1, 366631, Note_on_c, 0, 95, 43
1, 366660, Note_off_c, 0, 95, 53
1, 366765, Note_on_c, 0, 71, 43
1, 366766, Note_on_c, 0, 85, 42
1, 366859, Note_on_c, 0, 90, 55
1, 366863, Note_off_c, 0, 85, 35
1, 366931, Note_off_c, 0, 90, 54
1, 366953, Note_on_c, 0, 66, 42
1, 366972, Note_on_c, 0, 78, 44
1, 367012, Note_off_c, 0, 78, 50
1, 367070, Note_on_c, 0, 85, 43
1, 367079, Note_off_c, 0, 71, 43
1, 367123, Note_off_c, 0, 85, 64
1, 367169, Note_on_c, 0, 61, 48
1, 367183, Note_on_c, 0, 82, 41
1, 367241, Note_off_c, 0, 66, 32
1, 367251, Note_on_c, 0, 94, 54
1, 367308, Note_off_c, 0, 94, 57
1, 367333, Note_off_c, 0, 61, 57
1, 367334, Note_off_c, 0, 82, 37
1, 367349, Note_on_c, 0, 85, 56
1, 367366, Note_on_c, 0, 70, 55
1, 367436, Note_on_c, 0, 90, 64
1, 367454, Note_off_c, 0, 70, 56
1, 367462, Note_off_c, 0, 85, 34
1, 367505, Note_on_c, 0, 66, 45
1, 367513, Note_off_c, 0, 90, 59
1, 367517, Note_on_c, 0, 61, 47
1, 367531, Note_off_c, 0, 66, 61
1, 367539, Note_on_c, 0, 78, 57
1, 367544, Note_off_c, 0, 61, 63
1, 367582, Note_off_c, 0, 78, 61
1, 367603, Control_c, 0, 64, 65
1, 367618, Control_c, 0, 64, 44
1, 367619, Note_on_c, 0, 85, 48
1, 367633, Control_c, 0, 64, 14
1, 367648, Control_c, 0, 64, 26
1, 367660, Note_on_c, 0, 46, 56
1, 367663, Control_c, 0, 64, 42
1, 367677, Control_c, 0, 64, 59
1, 367683, Note_off_c, 0, 46, 61
1, 367692, Control_c, 0, 64, 101
1, 367706, Note_on_c, 0, 80, 56
1, 367707, Control_c, 0, 64, 127
1, 367724, Note_off_c, 0, 85, 35
1, 367770, Note_on_c, 0, 92, 51
1, 367790, Note_off_c, 0, 80, 57
1, 367800, Note_off_c, 0, 92, 54
1, 367865, Note_on_c, 0, 82, 58
1, 367866, Note_on_c, 0, 68, 55
1, 367940, Note_off_c, 0, 82, 56
1, 367953, Note_on_c, 0, 86, 54
1, 368008, Note_off_c, 0, 86, 52
1, 368020, Note_off_c, 0, 68, 51
1, 368023, Note_on_c, 0, 62, 46
1, 368024, Note_on_c, 0, 74, 45
1, 368049, Note_off_c, 0, 74, 61
1, 368086, Note_on_c, 0, 82, 52
1, 368148, Note_off_c, 0, 82, 64
1, 368172, Note_on_c, 0, 58, 55
1, 368180, Note_on_c, 0, 78, 67
1, 368226, Note_off_c, 0, 62, 31
1, 368254, Note_on_c, 0, 90, 58
1, 368306, Note_off_c, 0, 90, 63
1, 368311, Note_off_c, 0, 78, 36
1, 368322, Note_on_c, 0, 82, 60
1, 368342, Note_on_c, 0, 66, 56
1, 368371, Note_off_c, 0, 58, 33
1, 368396, Note_off_c, 0, 82, 60
1, 368406, Note_on_c, 0, 86, 63
1, 368428, Note_off_c, 0, 66, 61
1, 368444, Note_off_c, 0, 86, 58
1, 368458, Note_on_c, 0, 62, 52
1, 368479, Note_on_c, 0, 74, 50
1, 368482, Note_off_c, 0, 62, 59
1, 368506, Note_off_c, 0, 74, 62
1, 368532, Note_on_c, 0, 82, 60
1, 368545, Control_c, 0, 64, 64
1, 368560, Control_c, 0, 64, 43
1, 368575, Control_c, 0, 64, 15
1, 368588, Note_off_c, 0, 82, 61
1, 368589, Control_c, 0, 64, 26
1, 368604, Control_c, 0, 64, 43
1, 368622, Note_on_c, 0, 47, 60
1, 368626, Control_c, 0, 64, 60
1, 368631, Note_on_c, 0, 77, 63
1, 368640, Control_c, 0, 64, 105
1, 368655, Note_off_c, 0, 47, 65
1, 368655, Control_c, 0, 64, 127
1, 368677, Note_on_c, 0, 89, 66
1, 368698, Note_off_c, 0, 77, 40
1, 368698, Note_off_c, 0, 89, 60
1, 368801, Note_on_c, 0, 79, 26
1, 368805, Note_on_c, 0, 65, 49
1, 368840, Note_off_c, 0, 79, 51
1, 368841, Note_on_c, 0, 83, 62
1, 368893, Note_off_c, 0, 83, 59
1, 368922, Note_on_c, 0, 71, 59
1, 368946, Note_off_c, 0, 65, 35
1, 368946, Note_off_c, 0, 71, 60
1, 368948, Note_on_c, 0, 59, 49
1, 368974, Note_on_c, 0, 79, 54
1, 369021, Note_off_c, 0, 79, 61
1, 369064, Note_on_c, 0, 75, 66
1, 369087, Note_on_c, 0, 56, 58
1, 369098, Note_off_c, 0, 59, 53
1, 369136, Note_on_c, 0, 87, 66
1, 369177, Note_off_c, 0, 87, 57
1, 369183, Note_off_c, 0, 75, 30
1, 369205, Note_on_c, 0, 80, 62
1, 369253, Note_on_c, 0, 63, 59
1, 369268, Note_off_c, 0, 80, 56
1, 369284, Note_on_c, 0, 83, 62
1, 369339, Note_off_c, 0, 63, 62
1, 369350, Note_off_c, 0, 83, 62
1, 369368, Note_on_c, 0, 59, 40
1, 369385, Note_on_c, 0, 71, 34
1, 369394, Note_off_c, 0, 59, 54
1, 369396, Note_off_c, 0, 56, 58
1, 369418, Note_off_c, 0, 71, 54
1, 369424, Note_on_c, 0, 80, 62
1, 369435, Control_c, 0, 64, 70
1, 369450, Control_c, 0, 64, 48
1, 369464, Control_c, 0, 64, 0
1, 369474, Note_off_c, 0, 80, 60
1, 369493, Note_on_c, 0, 44, 65
1, 369494, Control_c, 0, 64, 29
1, 369509, Note_on_c, 0, 73, 57
1, 369509, Control_c, 0, 64, 48
1, 369524, Control_c, 0, 64, 70
1, 369529, Note_off_c, 0, 44, 61
1, 369538, Control_c, 0, 64, 127
1, 369555, Note_on_c, 0, 85, 71
1, 369560, Note_off_c, 0, 73, 51
1, 369612, Note_off_c, 0, 85, 62
1, 369653, Note_on_c, 0, 75, 62
1, 369665, Note_on_c, 0, 61, 59
1, 369717, Note_off_c, 0, 75, 53
1, 369731, Note_on_c, 0, 80, 56
1, 369766, Note_off_c, 0, 80, 62
1, 369800, Note_on_c, 0, 68, 58
1, 369810, Note_on_c, 0, 56, 59
1, 369824, Note_off_c, 0, 61, 36
1, 369836, Note_off_c, 0, 68, 54
1, 369865, Note_on_c, 0, 75, 58
1, 369898, Note_off_c, 0, 75, 64
1, 369951, Note_on_c, 0, 71, 60
1, 369961, Note_on_c, 0, 51, 57
1, 369965, Note_off_c, 0, 56, 36
1, 369995, Note_off_c, 0, 71, 46
1, 370009, Note_on_c, 0, 83, 60
1, 370047, Note_off_c, 0, 51, 56
1, 370053, Note_off_c, 0, 83, 60
1, 370088, Note_on_c, 0, 75, 60
1, 370111, Note_on_c, 0, 59, 51
1, 370156, Note_off_c, 0, 75, 57
1, 370172, Note_on_c, 0, 80, 62
1, 370199, Note_off_c, 0, 59, 38
1, 370205, Note_on_c, 0, 56, 46
1, 370216, Note_on_c, 0, 51, 52
1, 370237, Note_off_c, 0, 56, 65
1, 370238, Note_off_c, 0, 80, 58
1, 370239, Note_on_c, 0, 68, 63
1, 370253, Note_off_c, 0, 51, 64
1, 370285, Note_off_c, 0, 68, 59
1, 370314, Note_on_c, 0, 75, 54
1, 370317, Control_c, 0, 64, 76
1, 370332, Control_c, 0, 64, 50
1, 370347, Control_c, 0, 64, 0
1, 370351, Note_off_c, 0, 75, 63
1, 370373, Note_on_c, 0, 37, 61
1, 370391, Control_c, 0, 64, 29
1, 370393, Note_on_c, 0, 71, 64
1, 370402, Note_off_c, 0, 37, 58
1, 370406, Control_c, 0, 64, 47
1, 370420, Control_c, 0, 64, 68
1, 370435, Control_c, 0, 64, 127
1, 370442, Note_on_c, 0, 83, 58
1, 370444, Note_off_c, 0, 71, 46
1, 370465, Note_off_c, 0, 83, 64
1, 370537, Note_on_c, 0, 73, 63
1, 370560, Note_on_c, 0, 59, 58
1, 370604, Note_off_c, 0, 73, 56
1, 370605, Note_on_c, 0, 78, 69
1, 370661, Note_off_c, 0, 78, 63
1, 370677, Note_on_c, 0, 66, 67
1, 370682, Note_on_c, 0, 54, 64
1, 370706, Note_off_c, 0, 59, 36
1, 370712, Note_off_c, 0, 66, 62
1, 370736, Note_on_c, 0, 73, 60
1, 370767, Note_off_c, 0, 73, 68
1, 370813, Note_on_c, 0, 49, 69
1, 370813, Note_on_c, 0, 70, 72
1, 370828, Note_off_c, 0, 54, 55
1, 370880, Note_on_c, 0, 82, 76
1, 370896, Note_off_c, 0, 70, 57
1, 370933, Note_off_c, 0, 82, 62
1, 370952, Note_on_c, 0, 73, 68
1, 370978, Note_on_c, 0, 58, 68
1, 371027, Note_off_c, 0, 73, 61
1, 371029, Note_on_c, 0, 78, 65
1, 371039, Note_off_c, 0, 49, 61
1, 371067, Note_off_c, 0, 78, 61
1, 371075, Note_on_c, 0, 66, 67
1, 371096, Note_on_c, 0, 54, 62
1, 371110, Note_off_c, 0, 66, 62
1, 371113, Note_off_c, 0, 58, 60
1, 371125, Control_c, 0, 64, 96
1, 371140, Control_c, 0, 64, 58
1, 371147, Note_on_c, 0, 73, 52
1, 371155, Control_c, 0, 64, 0
1, 371163, Note_off_c, 0, 54, 63
1, 371171, Note_off_c, 0, 73, 61
1, 371195, Note_on_c, 0, 46, 68
1, 371199, Control_c, 0, 64, 43
1, 371214, Control_c, 0, 64, 75
1, 371222, Note_on_c, 0, 75, 73
1, 371228, Note_off_c, 0, 46, 66
1, 371229, Control_c, 0, 64, 127
1, 371279, Note_off_c, 0, 75, 59
1, 371285, Note_on_c, 0, 87, 73
1, 371339, Note_off_c, 0, 87, 64
1, 371359, Note_on_c, 0, 78, 68
1, 371369, Note_on_c, 0, 63, 56
1, 371433, Note_on_c, 0, 82, 65
1, 371438, Note_off_c, 0, 78, 63
1, 371489, Note_off_c, 0, 82, 63
1, 371505, Note_on_c, 0, 58, 55
1, 371508, Note_on_c, 0, 70, 62
1, 371527, Note_off_c, 0, 63, 51
1, 371549, Note_off_c, 0, 70, 61
1, 371565, Note_on_c, 0, 78, 63
1, 371612, Note_off_c, 0, 78, 61
1, 371649, Note_on_c, 0, 54, 66
1, 371649, Note_on_c, 0, 73, 72
1, 371661, Note_off_c, 0, 58, 50
1, 371704, Note_on_c, 0, 85, 74
1, 371708, Note_off_c, 0, 73, 49
1, 371767, Note_off_c, 0, 85, 63
1, 371775, Note_off_c, 0, 54, 60
1, 371782, Note_on_c, 0, 78, 66
1, 371798, Note_on_c, 0, 61, 67
1, 371851, Note_on_c, 0, 82, 71
1, 371851, Note_off_c, 0, 78, 59
1, 371870, Note_off_c, 0, 61, 62
1, 371898, Note_on_c, 0, 58, 53
1, 371903, Note_on_c, 0, 54, 65
1, 371911, Note_off_c, 0, 82, 63
1, 371919, Note_on_c, 0, 70, 62
1, 371928, Note_off_c, 0, 58, 66
1, 371932, Note_off_c, 0, 54, 65
1, 371956, Note_off_c, 0, 70, 63
1, 371976, Note_on_c, 0, 78, 66
1, 371976, Control_c, 0, 64, 81
1, 371991, Control_c, 0, 64, 54
1, 372006, Control_c, 0, 64, 0
1, 372009, Note_off_c, 0, 78, 62
1, 372036, Control_c, 0, 64, 20
1, 372044, Note_on_c, 0, 70, 62
1, 372046, Note_on_c, 0, 37, 68
1, 372050, Control_c, 0, 64, 50
1, 372065, Control_c, 0, 64, 79
1, 372080, Note_off_c, 0, 37, 65
1, 372080, Control_c, 0, 64, 127
1, 372083, Note_off_c, 0, 70, 54
1, 372092, Note_on_c, 0, 82, 71
1, 372137, Note_off_c, 0, 82, 57
1, 372182, Note_on_c, 0, 73, 60
1, 372214, Note_on_c, 0, 58, 68
1, 372231, Note_off_c, 0, 73, 53
1, 372253, Note_on_c, 0, 77, 60
1, 372301, Note_off_c, 0, 77, 54
1, 372322, Note_on_c, 0, 65, 55
1, 372334, Note_off_c, 0, 58, 39
1, 372346, Note_on_c, 0, 53, 53
1, 372346, Note_off_c, 0, 65, 64
1, 372374, Note_on_c, 0, 73, 60
1, 372411, Note_off_c, 0, 73, 64
1, 372456, Note_off_c, 0, 53, 52
1, 372459, Note_on_c, 0, 68, 69
1, 372468, Note_on_c, 0, 47, 69
1, 372509, Note_on_c, 0, 80, 69
1, 372542, Note_off_c, 0, 68, 56
1, 372569, Note_off_c, 0, 80, 61
1, 372572, Note_on_c, 0, 73, 65
1, 372609, Note_on_c, 0, 56, 70
1, 372642, Note_off_c, 0, 73, 62
1, 372644, Note_on_c, 0, 77, 67
1, 372672, Note_off_c, 0, 77, 66
1, 372700, Note_on_c, 0, 65, 65
1, 372719, Note_on_c, 0, 53, 56
1, 372730, Note_off_c, 0, 47, 52
1, 372733, Note_off_c, 0, 65, 61
1, 372760, Note_on_c, 0, 73, 62
1, 372763, Note_off_c, 0, 56, 59
1, 372786, Note_off_c, 0, 73, 68
1, 372799, Control_c, 0, 64, 69
1, 372814, Control_c, 0, 64, 32
1, 372829, Control_c, 0, 64, 0
1, 372830, Note_off_c, 0, 53, 60
1, 372839, Note_on_c, 0, 47, 74
1, 372844, Control_c, 0, 64, 8
1, 372849, Note_on_c, 0, 74, 72
1, 372859, Control_c, 0, 64, 48
1, 372873, Control_c, 0, 64, 127
1, 372882, Note_off_c, 0, 47, 63
1, 372903, Note_on_c, 0, 86, 68
1, 372903, Note_off_c, 0, 74, 60
1, 372921, Note_off_c, 0, 86, 64
1, 372973, Note_on_c, 0, 77, 65
1, 372996, Note_on_c, 0, 62, 67
1, 373031, Note_off_c, 0, 77, 43
1, 373040, Note_on_c, 0, 80, 82
1, 373079, Note_off_c, 0, 62, 55
1, 373097, Note_off_c, 0, 80, 61
1, 373114, Note_on_c, 0, 56, 71
1, 373121, Note_on_c, 0, 68, 78
1, 373168, Note_on_c, 0, 77, 68
1, 373168, Note_off_c, 0, 68, 59
1, 373197, Note_off_c, 0, 77, 62
1, 373209, Note_off_c, 0, 56, 62
1, 373243, Note_on_c, 0, 53, 73
1, 373247, Note_on_c, 0, 73, 78
1, 373299, Note_on_c, 0, 85, 79
1, 373315, Note_off_c, 0, 73, 47
1, 373349, Note_off_c, 0, 85, 63
1, 373352, Note_on_c, 0, 77, 76
1, 373389, Note_on_c, 0, 61, 72
1, 373428, Note_off_c, 0, 77, 63
1, 373439, Note_on_c, 0, 56, 55
1, 373439, Note_off_c, 0, 61, 64
1, 373447, Note_off_c, 0, 53, 65
1, 373460, Note_on_c, 0, 80, 44
1, 373460, Note_off_c, 0, 56, 64
1, 373486, Note_on_c, 0, 68, 70
1, 373498, Note_off_c, 0, 80, 49
1, 373537, Note_off_c, 0, 68, 59
1, 373574, Note_on_c, 0, 73, 9
1, 373579, Control_c, 0, 64, 64
1, 373594, Control_c, 0, 64, 25
1, 373609, Control_c, 0, 64, 0
1, 373612, Note_off_c, 0, 73, 46
1, 373638, Control_c, 0, 64, 45
1, 373642, Note_on_c, 0, 42, 70
1, 373653, Control_c, 0, 64, 88
1, 373661, Note_on_c, 0, 83, 84
1, 373668, Control_c, 0, 64, 127
1, 373675, Note_off_c, 0, 42, 62
1, 373705, Note_on_c, 0, 95, 84
1, 373708, Note_off_c, 0, 83, 65
1, 373748, Note_off_c, 0, 95, 63
1, 373790, Note_on_c, 0, 85, 60
1, 373807, Note_on_c, 0, 71, 62
1, 373816, Note_off_c, 0, 85, 52
1, 373855, Note_on_c, 0, 90, 77
1, 373901, Note_off_c, 0, 71, 60
1, 373917, Note_on_c, 0, 78, 77
1, 373917, Note_off_c, 0, 90, 65
1, 373929, Note_on_c, 0, 66, 65
1, 373969, Note_off_c, 0, 78, 64
1, 373987, Note_on_c, 0, 85, 68
1, 374012, Note_off_c, 0, 85, 66
1, 374049, Note_on_c, 0, 61, 75
1, 374053, Note_on_c, 0, 82, 83
1, 374077, Note_off_c, 0, 66, 48
1, 374098, Note_on_c, 0, 94, 85
1, 374116, Note_off_c, 0, 82, 62
1, 374149, Note_off_c, 0, 94, 65
1, 374158, Note_off_c, 0, 61, 62
1, 374171, Note_on_c, 0, 85, 67
1, 374183, Note_on_c, 0, 70, 68
1, 374236, Note_on_c, 0, 90, 74
1, 374239, Note_off_c, 0, 85, 58
1, 374243, Note_off_c, 0, 70, 62
1, 374263, Note_on_c, 0, 66, 55
1, 374289, Note_on_c, 0, 78, 70
1, 374292, Note_on_c, 0, 61, 49
1, 374292, Note_off_c, 0, 66, 66
1, 374292, Note_off_c, 0, 90, 66
1, 374316, Note_off_c, 0, 61, 61
1, 374328, Control_c, 0, 64, 64
1, 374337, Note_off_c, 0, 78, 64
1, 374343, Control_c, 0, 64, 25
1, 374348, Note_on_c, 0, 85, 71
1, 374358, Control_c, 0, 64, 0
1, 374373, Control_c, 0, 64, 11
1, 374382, Note_off_c, 0, 85, 58
1, 374387, Control_c, 0, 64, 42
1, 374402, Note_on_c, 0, 46, 78
1, 374402, Control_c, 0, 64, 64
1, 374409, Note_on_c, 0, 80, 74
1, 374417, Control_c, 0, 64, 127
1, 374431, Note_off_c, 0, 46, 69
1, 374458, Note_on_c, 0, 92, 80
1, 374481, Note_off_c, 0, 80, 58
1, 374497, Note_off_c, 0, 92, 63
1, 374523, Note_on_c, 0, 82, 74
1, 374553, Note_on_c, 0, 68, 75
1, 374606, Note_off_c, 0, 82, 62
1, 374615, Note_on_c, 0, 86, 56
1, 374645, Note_off_c, 0, 86, 49
1, 374653, Note_on_c, 0, 74, 73
1, 374668, Note_off_c, 0, 68, 54
1, 374683, Note_on_c, 0, 62, 65
1, 374692, Note_off_c, 0, 74, 63
1, 374721, Note_on_c, 0, 82, 67
1, 374769, Note_off_c, 0, 82, 63
1, 374792, Note_on_c, 0, 78, 76
1, 374793, Note_on_c, 0, 58, 70
1, 374834, Note_on_c, 0, 90, 81
1, 374841, Note_off_c, 0, 62, 48
1, 374865, Note_off_c, 0, 78, 55
1, 374889, Note_off_c, 0, 90, 65
1, 374895, Note_on_c, 0, 82, 74
1, 374919, Note_off_c, 0, 58, 56
1, 374930, Note_on_c, 0, 66, 63
1, 374969, Note_off_c, 0, 82, 63
1, 374971, Note_on_c, 0, 86, 71
1, 374991, Note_on_c, 0, 62, 56
1, 374997, Note_off_c, 0, 66, 63
1, 375009, Note_off_c, 0, 86, 61
1, 375022, Note_off_c, 0, 62, 64
1, 375033, Note_on_c, 0, 74, 63
1, 375058, Note_off_c, 0, 74, 70
1, 375083, Note_on_c, 0, 82, 64
1, 375091, Control_c, 0, 64, 73
1, 375106, Control_c, 0, 64, 43
1, 375113, Note_off_c, 0, 82, 66
1, 375121, Control_c, 0, 64, 0
1, 375136, Control_c, 0, 64, 8
1, 375143, Note_on_c, 0, 77, 79
1, 375144, Note_on_c, 0, 47, 69
1, 375149, Control_c, 0, 64, 38
1, 375164, Control_c, 0, 64, 59
1, 375171, Note_off_c, 0, 47, 66
1, 375179, Control_c, 0, 64, 127
1, 375186, Note_on_c, 0, 89, 70
1, 375201, Note_off_c, 0, 89, 68
1, 375210, Note_off_c, 0, 77, 52
1, 375263, Note_on_c, 0, 79, 61
1, 375293, Note_on_c, 0, 65, 64
1, 375327, Note_on_c, 0, 83, 71
1, 375329, Note_off_c, 0, 79, 46
1, 375387, Note_off_c, 0, 83, 63
1, 375406, Note_on_c, 0, 71, 55
1, 375412, Note_off_c, 0, 65, 38
1, 375419, Note_on_c, 0, 59, 64
1, 375427, Note_off_c, 0, 71, 64
1, 375441, Note_on_c, 0, 79, 75
1, 375479, Note_off_c, 0, 79, 59
1, 375529, Note_on_c, 0, 75, 74
1, 375536, Note_on_c, 0, 56, 71
1, 375548, Note_off_c, 0, 59, 56
1, 375580, Note_on_c, 0, 87, 78
1, 375610, Note_off_c, 0, 75, 55
1, 375630, Note_off_c, 0, 87, 62
1, 375640, Note_on_c, 0, 80, 70
1, 375666, Note_on_c, 0, 63, 66
1, 375705, Note_off_c, 0, 80, 60
1, 375711, Note_on_c, 0, 83, 71
1, 375744, Note_on_c, 0, 59, 56
1, 375745, Note_off_c, 0, 83, 64
1, 375749, Note_off_c, 0, 63, 61
1, 375772, Note_off_c, 0, 59, 66
1, 375773, Note_on_c, 0, 71, 66
1, 375789, Note_off_c, 0, 56, 63
1, 375800, Note_off_c, 0, 71, 70
1, 375830, Note_on_c, 0, 80, 72
1, 375854, Control_c, 0, 64, 100
1, 375869, Control_c, 0, 64, 55
1, 375884, Control_c, 0, 64, 0
1, 375884, Note_off_c, 0, 80, 62
1, 375892, Note_on_c, 0, 44, 73
1, 375904, Note_on_c, 0, 73, 75
1, 375914, Control_c, 0, 64, 43
1, 375925, Note_off_c, 0, 44, 64
1, 375929, Control_c, 0, 64, 95
1, 375944, Control_c, 0, 64, 127
1, 375945, Note_on_c, 0, 85, 76
1, 375960, Note_off_c, 0, 73, 61
1, 375982, Note_off_c, 0, 85, 63
1, 376024, Note_on_c, 0, 75, 72
1, 376045, Note_on_c, 0, 61, 65
1, 376094, Note_off_c, 0, 75, 56
1, 376108, Note_on_c, 0, 78, 58
1, 376149, Note_off_c, 0, 78, 53
1, 376161, Note_on_c, 0, 68, 66
1, 376183, Note_on_c, 0, 56, 72
1, 376183, Note_off_c, 0, 61, 58
1, 376201, Note_off_c, 0, 68, 59
1, 376225, Note_on_c, 0, 75, 67
1, 376255, Note_off_c, 0, 75, 63
1, 376292, Note_on_c, 0, 71, 67
1, 376298, Note_off_c, 0, 56, 56
1, 376310, Note_on_c, 0, 51, 67
1, 376322, Note_off_c, 0, 71, 65
1, 376340, Note_on_c, 0, 83, 73
1, 376382, Note_off_c, 0, 83, 61
1, 376384, Note_off_c, 0, 51, 59
1, 376404, Note_on_c, 0, 75, 74
1, 376417, Note_on_c, 0, 59, 63
1, 376469, Note_on_c, 0, 80, 76
1, 376471, Note_off_c, 0, 75, 60
1, 376502, Note_off_c, 0, 59, 60
1, 376504, Note_on_c, 0, 56, 60
1, 376511, Note_on_c, 0, 51, 60
1, 376532, Note_off_c, 0, 80, 61
1, 376533, Note_off_c, 0, 56, 66
1, 376534, Note_on_c, 0, 68, 65
1, 376549, Note_off_c, 0, 51, 65
1, 376575, Note_off_c, 0, 68, 60
1, 376597, Note_on_c, 0, 75, 62
1, 376618, Control_c, 0, 64, 61
1, 376626, Note_off_c, 0, 75, 65
1, 376633, Control_c, 0, 64, 17
1, 376647, Control_c, 0, 64, 0
1, 376659, Note_on_c, 0, 71, 70
1, 376661, Note_on_c, 0, 37, 71
1, 376662, Control_c, 0, 64, 21
1, 376677, Control_c, 0, 64, 47
1, 376692, Control_c, 0, 64, 70
1, 376698, Note_off_c, 0, 37, 66
1, 376707, Control_c, 0, 64, 127
1, 376714, Note_on_c, 0, 83, 61
1, 376732, Note_off_c, 0, 71, 57
1, 376732, Note_off_c, 0, 83, 64
1, 376789, Note_on_c, 0, 73, 67
1, 376823, Note_on_c, 0, 59, 73
1, 376865, Note_on_c, 0, 78, 74
1, 376872, Note_off_c, 0, 73, 60
1, 376924, Note_off_c, 0, 78, 63
1, 376933, Note_on_c, 0, 66, 71
1, 376947, Note_on_c, 0, 54, 72
1, 376975, Note_off_c, 0, 59, 49
1, 376978, Note_off_c, 0, 66, 61
1, 376990, Note_on_c, 0, 73, 67
1, 377014, Note_off_c, 0, 73, 69
1, 377056, Note_on_c, 0, 70, 78
1, 377058, Note_on_c, 0, 49, 80
1, 377085, Note_off_c, 0, 54, 60
1, 377103, Note_on_c, 0, 82, 78
1, 377130, Note_off_c, 0, 70, 58
1, 377158, Note_off_c, 0, 82, 62
1, 377163, Note_on_c, 0, 73, 76
1, 377190, Note_on_c, 0, 58, 81
1, 377230, Note_off_c, 0, 73, 63
1, 377244, Note_on_c, 0, 78, 60
1, 377252, Note_off_c, 0, 49, 63
1, 377261, Note_on_c, 0, 66, 76
1, 377279, Note_off_c, 0, 78, 57
1, 377283, Note_on_c, 0, 54, 70
1, 377304, Note_off_c, 0, 66, 61
1, 377309, Note_off_c, 0, 58, 61
1, 377332, Note_on_c, 0, 73, 61
1, 377338, Control_c, 0, 64, 86
1, 377352, Note_off_c, 0, 73, 65
1, 377352, Control_c, 0, 64, 54
1, 377354, Note_off_c, 0, 54, 63
1, 377367, Control_c, 0, 64, 0
1, 377392, Note_on_c, 0, 46, 74
1, 377395, Control_c, 0, 64, 45
1, 377398, Note_on_c, 0, 75, 83
1, 377410, Control_c, 0, 64, 108
1, 377422, Note_off_c, 0, 46, 67
1, 377425, Control_c, 0, 64, 127
1, 377446, Note_off_c, 0, 75, 61
1, 377456, Note_on_c, 0, 87, 71
1, 377505, Note_off_c, 0, 87, 64
1, 377511, Note_on_c, 0, 78, 74
1, 377542, Note_on_c, 0, 63, 69
1, 377580, Note_on_c, 0, 82, 74
1, 377584, Note_off_c, 0, 78, 63
1, 377648, Note_off_c, 0, 82, 61
1, 377655, Note_on_c, 0, 70, 72
1, 377667, Note_on_c, 0, 58, 72
1, 377698, Note_off_c, 0, 70, 61
1, 377702, Note_off_c, 0, 63, 37
1, 377708, Note_on_c, 0, 78, 73
1, 377747, Note_off_c, 0, 78, 61
1, 377777, Note_on_c, 0, 73, 78
1, 377780, Note_on_c, 0, 54, 81
1, 377780, Note_off_c, 0, 58, 55
1, 377833, Note_on_c, 0, 85, 79
1, 377835, Note_off_c, 0, 73, 58
1, 377887, Note_off_c, 0, 85, 63
1, 377894, Note_on_c, 0, 78, 71
1, 377895, Note_off_c, 0, 54, 65
1, 377909, Note_on_c, 0, 61, 81
1, 377963, Note_on_c, 0, 82, 77
1, 377970, Note_off_c, 0, 78, 62
1, 377979, Note_off_c, 0, 61, 62
1, 378004, Note_on_c, 0, 58, 55
1, 378013, Note_on_c, 0, 54, 70
1, 378021, Note_off_c, 0, 82, 62
1, 378028, Note_on_c, 0, 70, 68
1, 378039, Note_off_c, 0, 58, 63
1, 378042, Note_off_c, 0, 54, 67
1, 378075, Note_off_c, 0, 70, 61
1, 378086, Note_on_c, 0, 78, 73
1, 378086, Control_c, 0, 64, 111
1, 378100, Control_c, 0, 64, 57
1, 378115, Control_c, 0, 64, 0
1, 378134, Note_off_c, 0, 78, 57
1, 378144, Control_c, 0, 64, 31
1, 378148, Note_on_c, 0, 37, 79
1, 378150, Note_on_c, 0, 70, 69
1, 378159, Control_c, 0, 64, 62
1, 378174, Control_c, 0, 64, 127
1, 378181, Note_off_c, 0, 37, 67
1, 378193, Note_on_c, 0, 82, 76
1, 378217, Note_off_c, 0, 70, 60
1, 378245, Note_off_c, 0, 82, 62
1, 378270, Note_on_c, 0, 73, 63
1, 378301, Note_on_c, 0, 58, 75
1, 378331, Note_on_c, 0, 77, 75
1, 378335, Note_off_c, 0, 73, 58
1, 378385, Note_off_c, 0, 77, 64
1, 378405, Note_on_c, 0, 65, 71
1, 378413, Note_off_c, 0, 58, 60
1, 378420, Note_on_c, 0, 53, 69
1, 378435, Note_off_c, 0, 65, 68
1, 378454, Note_on_c, 0, 73, 72
1, 378494, Note_off_c, 0, 73, 63
1, 378526, Note_on_c, 0, 68, 83
1, 378530, Note_off_c, 0, 53, 59
1, 378537, Note_on_c, 0, 47, 80
1, 378574, Note_on_c, 0, 80, 82
1, 378594, Note_off_c, 0, 68, 57
1, 378627, Note_off_c, 0, 80, 62
1, 378630, Note_on_c, 0, 73, 74
1, 378664, Note_on_c, 0, 56, 86
1, 378698, Note_off_c, 0, 73, 64
1, 378704, Note_on_c, 0, 77, 70
1, 378728, Note_off_c, 0, 77, 65
1, 378746, Note_on_c, 0, 65, 62
1, 378763, Note_on_c, 0, 53, 66
1, 378778, Note_off_c, 0, 65, 67
1, 378784, Note_off_c, 0, 47, 56
1, 378800, Note_on_c, 0, 73, 68
1, 378806, Note_off_c, 0, 56, 60
1, 378824, Note_off_c, 0, 73, 68
1, 378835, Control_c, 0, 64, 85
1, 378849, Control_c, 0, 64, 50
1, 378856, Note_off_c, 0, 53, 60
1, 378864, Control_c, 0, 64, 0
1, 378880, Note_on_c, 0, 74, 79
1, 378886, Note_on_c, 0, 47, 79
1, 378894, Control_c, 0, 64, 20
1, 378909, Control_c, 0, 64, 62
1, 378918, Note_off_c, 0, 47, 65
1, 378923, Control_c, 0, 64, 127
1, 378926, Note_off_c, 0, 74, 61
1, 378933, Note_on_c, 0, 86, 76
1, 378949, Note_off_c, 0, 86, 65
1, 378984, Note_on_c, 0, 77, 76
1, 379019, Note_on_c, 0, 62, 75
1, 379052, Note_off_c, 0, 77, 36
1, 379053, Note_on_c, 0, 80, 85
1, 379117, Note_off_c, 0, 80, 62
1, 379123, Note_off_c, 0, 62, 59
1, 379136, Note_on_c, 0, 68, 82
1, 379137, Note_on_c, 0, 56, 76
1, 379179, Note_off_c, 0, 68, 58
1, 379182, Note_on_c, 0, 77, 63
1, 379206, Note_off_c, 0, 77, 62
1, 379228, Note_off_c, 0, 56, 63
1, 379249, Note_on_c, 0, 73, 85
1, 379251, Note_on_c, 0, 53, 83
1, 379302, Note_on_c, 0, 85, 81
1, 379315, Note_off_c, 0, 73, 60
1, 379344, Note_on_c, 0, 77, 74
1, 379351, Note_off_c, 0, 85, 63
1, 379384, Note_on_c, 0, 61, 82
1, 379418, Note_off_c, 0, 77, 62
1, 379424, Note_on_c, 0, 56, 70
1, 379433, Note_off_c, 0, 61, 65
1, 379447, Note_off_c, 0, 53, 66
1, 379453, Note_off_c, 0, 56, 68
1, 379457, Note_on_c, 0, 80, 42
1, 379471, Note_on_c, 0, 68, 73
1, 379503, Note_off_c, 0, 80, 49
1, 379506, Note_off_c, 0, 68, 55
1, 379527, Note_on_c, 0, 73, 71
1, 379544, Note_off_c, 0, 73, 65
1, 379583, Control_c, 0, 64, 61
1, 379598, Control_c, 0, 64, 0
1, 379628, Control_c, 0, 64, 16
1, 379640, Note_on_c, 0, 42, 73
1, 379643, Control_c, 0, 64, 62
1, 379644, Note_on_c, 0, 83, 89
1, 379658, Control_c, 0, 64, 127
1, 379670, Note_off_c, 0, 42, 61
1, 379682, Note_off_c, 0, 83, 64
1, 379688, Note_on_c, 0, 95, 85
1, 379725, Note_off_c, 0, 95, 66
1, 379762, Note_on_c, 0, 85, 74
1, 379790, Note_on_c, 0, 71, 77
1, 379828, Note_on_c, 0, 90, 77
1, 379829, Note_off_c, 0, 85, 61
1, 379890, Note_off_c, 0, 90, 65
1, 379897, Note_on_c, 0, 78, 73
1, 379897, Note_off_c, 0, 71, 52
1, 379907, Note_on_c, 0, 66, 78
1, 379942, Note_off_c, 0, 78, 62
1, 380017, Note_on_c, 0, 61, 81
1, 380021, Note_on_c, 0, 82, 83
1, 380038, Note_off_c, 0, 66, 56
1, 380071, Note_on_c, 0, 94, 82
1, 380087, Note_off_c, 0, 82, 60
1, 380112, Note_off_c, 0, 61, 60
1, 380117, Note_off_c, 0, 94, 65
1, 380129, Note_on_c, 0, 85, 72
1, 380144, Note_on_c, 0, 70, 73
1, 380198, Note_on_c, 0, 90, 77
1, 380200, Note_off_c, 0, 70, 62
1, 380205, Note_off_c, 0, 85, 61
1, 380221, Note_on_c, 0, 66, 64
1, 380233, Note_on_c, 0, 61, 62
1, 380255, Note_on_c, 0, 78, 73
1, 380256, Note_off_c, 0, 66, 64
1, 380259, Note_off_c, 0, 90, 66
1, 380264, Note_off_c, 0, 61, 66
1, 380301, Note_off_c, 0, 78, 64
1, 380303, Control_c, 0, 64, 59
1, 380308, Note_on_c, 0, 85, 65
1, 380318, Control_c, 0, 64, 26
1, 380331, Note_off_c, 0, 85, 64
1, 380333, Control_c, 0, 64, 19
1, 380348, Control_c, 0, 64, 43
1, 380355, Note_on_c, 0, 46, 82
1, 380363, Control_c, 0, 64, 70
1, 380365, Note_on_c, 0, 80, 82
1, 380377, Control_c, 0, 64, 127
1, 380381, Note_off_c, 0, 46, 69
1, 380409, Note_on_c, 0, 92, 80
1, 380428, Note_off_c, 0, 80, 60
1, 380448, Note_off_c, 0, 92, 64
1, 380469, Note_on_c, 0, 82, 76
1, 380494, Note_on_c, 0, 68, 74
1, 380540, Note_on_c, 0, 86, 76
1, 380543, Note_off_c, 0, 82, 62
1, 380603, Note_on_c, 0, 74, 64
1, 380607, Note_off_c, 0, 86, 59
1, 380615, Note_off_c, 0, 68, 55
1, 380618, Note_on_c, 0, 62, 65
1, 380627, Note_off_c, 0, 74, 71
1, 380654, Note_on_c, 0, 82, 76
1, 380701, Note_off_c, 0, 82, 62
1, 380726, Note_on_c, 0, 58, 78
1, 380726, Note_on_c, 0, 78, 86
1, 380746, Note_off_c, 0, 62, 51
1, 380776, Note_on_c, 0, 90, 78
1, 380817, Note_off_c, 0, 78, 54
1, 380827, Note_off_c, 0, 90, 64
1, 380833, Note_on_c, 0, 82, 74
1, 380839, Note_on_c, 0, 66, 69
1, 380904, Note_on_c, 0, 86, 76
1, 380904, Note_off_c, 0, 82, 63
1, 380909, Note_on_c, 0, 62, 56
1, 380909, Note_off_c, 0, 66, 63
1, 380938, Note_off_c, 0, 62, 66
1, 380951, Note_off_c, 0, 86, 64
1, 380961, Note_off_c, 0, 58, 23
1, 380965, Note_on_c, 0, 74, 67
1, 381000, Note_off_c, 0, 74, 63
1, 381020, Note_on_c, 0, 82, 68
1, 381023, Control_c, 0, 64, 64
1, 381037, Control_c, 0, 64, 27
1, 381046, Note_off_c, 0, 82, 68
1, 381052, Control_c, 0, 64, 0
1, 381062, Note_on_c, 0, 47, 77
1, 381067, Control_c, 0, 64, 32
1, 381082, Note_on_c, 0, 77, 80
1, 381082, Control_c, 0, 64, 52
1, 381091, Note_off_c, 0, 47, 67
1, 381097, Control_c, 0, 64, 81
1, 381111, Control_c, 0, 64, 127
1, 381119, Note_on_c, 0, 89, 74
1, 381134, Note_off_c, 0, 89, 69
1, 381150, Note_off_c, 0, 77, 56
1, 381190, Note_on_c, 0, 79, 67
1, 381202, Note_on_c, 0, 65, 70
1, 381244, Note_on_c, 0, 83, 76
1, 381250, Note_off_c, 0, 79, 60
1, 381292, Note_off_c, 0, 83, 62
1, 381293, Note_off_c, 0, 65, 53
1, 381315, Note_on_c, 0, 59, 64
1, 381315, Note_on_c, 0, 71, 65
1, 381347, Note_off_c, 0, 71, 69
1, 381348, Note_on_c, 0, 79, 67
1, 381384, Note_off_c, 0, 79, 64
1, 381425, Note_on_c, 0, 75, 80
1, 381432, Note_on_c, 0, 56, 80
1, 381449, Note_off_c, 0, 59, 56
1, 381473, Note_on_c, 0, 87, 78
1, 381491, Note_off_c, 0, 75, 58
1, 381514, Note_off_c, 0, 87, 60
1, 381519, Note_on_c, 0, 80, 78
1, 381559, Note_on_c, 0, 63, 67
1, 381583, Note_off_c, 0, 80, 62
1, 381589, Note_on_c, 0, 83, 76
1, 381619, Note_on_c, 0, 59, 58
1, 381630, Note_off_c, 0, 63, 61
1, 381634, Note_off_c, 0, 83, 64
1, 381649, Note_off_c, 0, 59, 66
1, 381658, Note_on_c, 0, 71, 63
1, 381664, Note_off_c, 0, 56, 63
1, 381683, Note_off_c, 0, 71, 70
1, 381707, Note_on_c, 0, 80, 68
1, 381727, Control_c, 0, 64, 62
1, 381735, Note_off_c, 0, 80, 67
1, 381741, Control_c, 0, 64, 9
1, 381756, Note_on_c, 0, 44, 86
1, 381756, Control_c, 0, 64, 0
1, 381760, Note_on_c, 0, 73, 70
1, 381771, Control_c, 0, 64, 35
1, 381783, Note_off_c, 0, 44, 66
1, 381786, Control_c, 0, 64, 91
1, 381796, Note_on_c, 0, 85, 75
1, 381801, Control_c, 0, 64, 127
1, 381819, Note_off_c, 0, 85, 64
1, 381821, Note_off_c, 0, 73, 58
1, 381862, Note_on_c, 0, 75, 72
1, 381892, Note_on_c, 0, 61, 82
1, 381926, Note_off_c, 0, 75, 59
1, 381927, Note_on_c, 0, 80, 70
1, 381962, Note_on_c, 0, 78, 32
1, 381969, Note_off_c, 0, 80, 55
1, 381977, Note_on_c, 0, 68, 69
1, 381995, Note_off_c, 0, 78, 51
1, 382013, Note_off_c, 0, 61, 60
1, 382019, Note_on_c, 0, 56, 76
1, 382022, Note_off_c, 0, 68, 59
1, 382042, Note_on_c, 0, 75, 68
1, 382068, Note_off_c, 0, 75, 66
1, 382102, Note_on_c, 0, 71, 79
1, 382132, Note_off_c, 0, 56, 58
1, 382146, Note_on_c, 0, 51, 79
1, 382152, Note_off_c, 0, 71, 55
1, 382157, Note_on_c, 0, 83, 77
1, 382206, Note_off_c, 0, 83, 57
1, 382216, Note_on_c, 0, 75, 79
1, 382228, Note_off_c, 0, 51, 59
1, 382245, Note_on_c, 0, 59, 72
1, 382282, Note_off_c, 0, 75, 61
1, 382287, Note_on_c, 0, 80, 78
1, 382333, Note_on_c, 0, 56, 64
1, 382334, Note_off_c, 0, 59, 62
1, 382341, Note_on_c, 0, 51, 69
1, 382351, Note_on_c, 0, 68, 68
1, 382351, Note_off_c, 0, 80, 62
1, 382359, Note_off_c, 0, 56, 67
1, 382382, Note_off_c, 0, 51, 63
1, 382406, Note_off_c, 0, 68, 58
1, 382416, Note_on_c, 0, 75, 68
1, 382445, Control_c, 0, 64, 66
1, 382452, Note_off_c, 0, 75, 61
1, 382460, Control_c, 0, 64, 30
1, 382474, Control_c, 0, 64, 0
1, 382487, Note_on_c, 0, 37, 85
1, 382489, Control_c, 0, 64, 25
1, 382493, Note_on_c, 0, 71, 78
1, 382504, Control_c, 0, 64, 51
1, 382514, Note_off_c, 0, 37, 68
1, 382519, Control_c, 0, 64, 82
1, 382534, Control_c, 0, 64, 127
1, 382544, Note_off_c, 0, 71, 62
1, 382545, Note_on_c, 0, 83, 75
1, 382570, Note_off_c, 0, 83, 61
1, 382620, Note_on_c, 0, 73, 69
1, 382642, Note_on_c, 0, 59, 77
1, 382684, Note_on_c, 0, 78, 73
1, 382689, Note_off_c, 0, 73, 63
1, 382741, Note_off_c, 0, 78, 64
1, 382742, Note_on_c, 0, 66, 76
1, 382746, Note_on_c, 0, 54, 77
1, 382771, Note_off_c, 0, 59, 57
1, 382778, Note_off_c, 0, 66, 62
1, 382794, Note_on_c, 0, 73, 61
1, 382818, Note_off_c, 0, 73, 68
1, 382862, Note_on_c, 0, 49, 89
1, 382865, Note_on_c, 0, 70, 88
1, 382879, Note_off_c, 0, 54, 63
1, 382907, Note_on_c, 0, 82, 80
1, 382929, Note_off_c, 0, 70, 59
1, 382960, Note_off_c, 0, 82, 63
1, 382981, Note_on_c, 0, 73, 76
1, 382996, Note_on_c, 0, 58, 89
1, 383047, Note_off_c, 0, 73, 60
1, 383063, Note_on_c, 0, 78, 58
1, 383088, Note_on_c, 0, 66, 71
1, 383093, Note_on_c, 0, 54, 76
1, 383097, Note_off_c, 0, 78, 65
1, 383106, Note_off_c, 0, 49, 64
1, 383130, Note_off_c, 0, 66, 60
1, 383130, Note_off_c, 0, 58, 61
1, 383136, Note_on_c, 0, 73, 68
1, 383154, Note_off_c, 0, 54, 65
1, 383160, Note_off_c, 0, 73, 68
1, 383164, Control_c, 0, 64, 96
1, 383179, Control_c, 0, 64, 55
1, 383194, Control_c, 0, 64, 18
1, 383209, Control_c, 0, 64, 21
1, 383211, Note_on_c, 0, 46, 90
1, 383218, Note_on_c, 0, 71, 87
1, 383223, Control_c, 0, 64, 42
1, 383238, Control_c, 0, 64, 68
1, 383253, Control_c, 0, 64, 127
1, 383267, Note_on_c, 0, 83, 77
1, 383278, Note_off_c, 0, 71, 64
1, 383286, Note_off_c, 0, 46, 61
1, 383309, Note_off_c, 0, 83, 53
1, 383330, Note_on_c, 0, 59, 80
1, 383330, Note_on_c, 0, 73, 75
1, 383402, Note_on_c, 0, 78, 72
1, 383412, Note_off_c, 0, 73, 63
1, 383444, Note_on_c, 0, 54, 82
1, 383459, Note_off_c, 0, 59, 59
1, 383476, Note_off_c, 0, 78, 63
1, 383479, Note_on_c, 0, 66, 63
1, 383495, Note_off_c, 0, 54, 65
1, 383498, Note_off_c, 0, 66, 63
1, 383551, Control_c, 0, 64, 59
1, 383565, Control_c, 0, 64, 33
1, 383573, Note_on_c, 0, 42, 93
1, 383576, Note_on_c, 0, 72, 94
1, 383587, Control_c, 0, 64, 33
1, 383602, Control_c, 0, 64, 52
1, 383609, Note_off_c, 0, 42, 67
1, 383617, Control_c, 0, 64, 95
1, 383632, Control_c, 0, 64, 127
1, 383643, Note_on_c, 0, 84, 77
1, 383689, Note_off_c, 0, 84, 63
1, 383698, Note_on_c, 0, 78, 71
1, 383712, Note_on_c, 0, 60, 84
1, 383733, Note_off_c, 0, 72, 55
1, 383790, Note_on_c, 0, 80, 71
1, 383790, Note_on_c, 0, 82, 61
1, 383797, Note_off_c, 0, 60, 54
1, 383802, Note_on_c, 0, 54, 79
1, 383805, Note_off_c, 0, 78, 61
1, 383847, Note_off_c, 0, 54, 65
1, 383857, Note_off_c, 0, 82, 64
1, 383864, Note_off_c, 0, 80, 57
1, 383899, Control_c, 0, 64, 67
1, 383906, Note_on_c, 0, 70, 103
1, 383913, Control_c, 0, 64, 21
1, 383924, Note_on_c, 0, 37, 94
1, 383928, Control_c, 0, 64, 0
1, 383943, Control_c, 0, 64, 20
1, 383947, Note_off_c, 0, 37, 69
1, 383950, Note_off_c, 0, 70, 67
1, 383957, Control_c, 0, 64, 86
1, 383972, Control_c, 0, 64, 127
1, 383996, Note_on_c, 0, 85, 85
1, 384033, Note_off_c, 0, 85, 67
1, 384065, Note_on_c, 0, 73, 81
1, 384075, Note_on_c, 0, 61, 101
1, 384126, Note_off_c, 0, 61, 60
1, 384131, Note_on_c, 0, 54, 10
1, 384151, Note_off_c, 0, 73, 65
1, 384168, Note_on_c, 0, 80, 61
1, 384174, Note_off_c, 0, 54, 0
1, 384174, Note_on_c, 0, 54, 48
1, 384183, Note_on_c, 0, 82, 62
1, 384202, Note_off_c, 0, 82, 66
1, 384226, Note_on_c, 0, 78, 34
1, 384236, Note_off_c, 0, 54, 63
1, 384242, Note_on_c, 0, 70, 79
1, 384276, Note_off_c, 0, 70, 62
1, 384284, Note_off_c, 0, 80, 61
1, 384310, Note_off_c, 0, 78, 66
1, 384322, Poly_aftertouch_c, 0, 79, 127
1, 384329, Note_on_c, 0, 54, 76
1, 384366, Poly_aftertouch_c, 0, 79, 0
1, 384381, Control_c, 0, 64, 73
1, 384395, Control_c, 0, 64, 26
1, 384402, Note_on_c, 0, 62, 76
1, 384410, Control_c, 0, 64, 0
1, 384421, Note_off_c, 0, 54, 65
1, 384448, Note_on_c, 0, 69, 103
1, 384459, Note_on_c, 0, 74, 100
1, 384469, Control_c, 0, 64, 127
1, 384476, Note_off_c, 0, 62, 62
1, 384485, Note_off_c, 0, 69, 69
1, 384608, Note_on_c, 0, 78, 96
1, 384630, Note_off_c, 0, 74, 35
1, 384667, Note_off_c, 0, 78, 68
1, 384701, Note_on_c, 0, 86, 101
1, 384774, Note_on_c, 0, 81, 90
1, 384782, Note_off_c, 0, 86, 60
1, 384839, Note_on_c, 0, 78, 90
1, 384863, Note_off_c, 0, 81, 64
1, 384896, Note_on_c, 0, 74, 83
1, 384900, Note_off_c, 0, 78, 67
1, 384940, Note_off_c, 0, 74, 64
1, 384977, Note_on_c, 0, 69, 84
1, 385039, Note_on_c, 0, 66, 90
1, 385055, Note_off_c, 0, 69, 63
1, 385107, Note_off_c, 0, 66, 66
1, 385118, Note_on_c, 0, 62, 84
1, 385163, Note_off_c, 0, 62, 57
1, 385206, Note_on_c, 0, 57, 81
1, 385272, Note_off_c, 0, 57, 62
1, 385276, Note_on_c, 0, 54, 74
1, 385336, Note_on_c, 0, 50, 72
1, 385348, Note_off_c, 0, 54, 65
1, 385366, Control_c, 0, 64, 83
1, 385381, Control_c, 0, 64, 41
1, 385386, Note_on_c, 0, 45, 104
1, 385387, Note_on_c, 0, 37, 92
1, 385396, Control_c, 0, 64, 0
1, 385423, Note_off_c, 0, 50, 61
1, 385441, Control_c, 0, 64, 53
1, 385443, Note_on_c, 0, 56, 16
1, 385444, Note_off_c, 0, 56, 127
1, 385456, Control_c, 0, 64, 127
1, 385488, Poly_aftertouch_c, 0, 56, 0
1, 385491, Note_off_c, 0, 45, 58
1, 385505, Note_off_c, 0, 37, 61
1, 385575, Note_on_c, 0, 50, 77
1, 385588, Note_on_c, 0, 42, 60
1, 385617, Note_off_c, 0, 50, 59
1, 385655, Note_on_c, 0, 45, 66
1, 385658, Note_on_c, 0, 54, 42
1, 385664, Note_off_c, 0, 42, 60
1, 385684, Note_off_c, 0, 45, 66
1, 385688, Note_off_c, 0, 54, 58
1, 385710, Note_on_c, 0, 50, 74
1, 385716, Note_on_c, 0, 57, 74
1, 385756, Note_off_c, 0, 57, 59
1, 385765, Note_off_c, 0, 50, 65
1, 385781, Note_on_c, 0, 62, 76
1, 385789, Note_on_c, 0, 54, 70
1, 385843, Note_off_c, 0, 62, 61
1, 385852, Note_on_c, 0, 66, 80
1, 385864, Note_on_c, 0, 57, 69
1, 385874, Note_off_c, 0, 66, 70
1, 385875, Note_off_c, 0, 54, 64
1, 385886, Note_off_c, 0, 57, 67
1, 385915, Note_on_c, 0, 62, 76
1, 385929, Note_on_c, 0, 69, 83
1, 385956, Note_off_c, 0, 62, 66
1, 385979, Note_off_c, 0, 69, 64
1, 385982, Note_on_c, 0, 74, 78
1, 385995, Note_on_c, 0, 66, 76
1, 386040, Note_off_c, 0, 74, 64
1, 386043, Note_on_c, 0, 78, 86
1, 386063, Note_on_c, 0, 69, 68
1, 386064, Note_off_c, 0, 66, 62
1, 386083, Note_off_c, 0, 69, 74
1, 386084, Note_off_c, 0, 78, 68
1, 386123, Note_on_c, 0, 74, 68
1, 386123, Note_on_c, 0, 81, 79
1, 386147, Note_off_c, 0, 74, 70
1, 386161, Note_off_c, 0, 81, 56
1, 386174, Note_on_c, 0, 86, 77
1, 386194, Note_on_c, 0, 78, 77
1, 386224, Note_off_c, 0, 86, 62
1, 386232, Note_on_c, 0, 90, 77
1, 386239, Note_off_c, 0, 78, 64
1, 386257, Note_off_c, 0, 90, 70
1, 386275, Note_on_c, 0, 81, 21
1, 386308, Note_on_c, 0, 93, 77
1, 386312, Note_off_c, 0, 81, 54
1, 386313, Note_on_c, 0, 86, 68
1, 386332, Note_off_c, 0, 93, 66
1, 386354, Note_on_c, 0, 90, 111
1, 386354, Note_on_c, 0, 98, 100
1, 386358, Note_off_c, 0, 86, 43
1, 386382, Note_off_c, 0, 90, 67
1, 386386, Note_off_c, 0, 98, 71
1, 387086, Control_c, 0, 64, 94
1, 387101, Control_c, 0, 64, 72
1, 387116, Control_c, 0, 64, 61
1, 387131, Control_c, 0, 64, 47
1, 387146, Control_c, 0, 64, 12
1, 387161, Control_c, 0, 64, 0
1, 387357, Note_on_c, 0, 86, 109
1, 387367, Note_on_c, 0, 62, 100
1, 387376, Control_c, 0, 64, 66
1, 387391, Control_c, 0, 64, 127
1, 387560, Note_on_c, 0, 95, 113
1, 387564, Note_off_c, 0, 86, 0
1, 387566, Note_on_c, 0, 71, 94
1, 387594, Poly_aftertouch_c, 0, 86, 0
1, 387663, Note_off_c, 0, 95, 62
1, 387718, Note_on_c, 0, 93, 97
1, 387721, Note_on_c, 0, 69, 88
1, 387743, Note_off_c, 0, 71, 61
1, 387822, Note_off_c, 0, 62, 42
1, 387828, Note_on_c, 0, 67, 86
1, 387830, Note_on_c, 0, 91, 102
1, 387840, Note_off_c, 0, 93, 34
1, 387849, Note_off_c, 0, 69, 61
1, 387918, Note_on_c, 0, 66, 88
1, 387918, Note_on_c, 0, 90, 98
1, 387918, Note_off_c, 0, 67, 63
1, 387935, Note_off_c, 0, 91, 54
1, 387968, Note_off_c, 0, 66, 65
1, 387979, Note_off_c, 0, 90, 69
1, 388002, Note_on_c, 0, 88, 88
1, 388009, Note_on_c, 0, 64, 86
1, 388065, Note_off_c, 0, 64, 61
1, 388092, Note_on_c, 0, 62, 82
1, 388092, Note_on_c, 0, 86, 85
1, 388097, Note_off_c, 0, 88, 65
1, 388138, Note_off_c, 0, 86, 64
1, 388144, Note_off_c, 0, 62, 59
1, 388186, Note_on_c, 0, 90, 105
1, 388190, Note_on_c, 0, 66, 99
1, 388273, Note_off_c, 0, 66, 61
1, 388313, Note_on_c, 0, 81, 96
1, 388314, Note_off_c, 0, 90, 59
1, 388316, Note_on_c, 0, 57, 89
1, 388386, Note_off_c, 0, 81, 66
1, 388430, Note_on_c, 0, 86, 106
1, 388431, Note_off_c, 0, 57, 46
1, 388431, Note_on_c, 0, 62, 99
1, 388501, Note_off_c, 0, 86, 55
1, 388511, Note_off_c, 0, 62, 58
1, 388604, Note_on_c, 0, 61, 86
1, 388614, Note_on_c, 0, 85, 75
1, 388624, Note_off_c, 0, 61, 70
1, 388633, Note_off_c, 0, 85, 71
1, 388671, Note_on_c, 0, 61, 101
1, 388672, Note_on_c, 0, 85, 101
1, 388707, Note_off_c, 0, 61, 66
1, 388728, Note_off_c, 0, 85, 66
1, 388860, Note_on_c, 0, 37, 96
1, 388896, Note_off_c, 0, 37, 62
1, 389021, Control_c, 0, 64, 62
1, 389036, Control_c, 0, 64, 16
1, 389051, Control_c, 0, 64, 0
1, 389056, Note_on_c, 0, 78, 104
1, 389057, Note_on_c, 0, 74, 97
1, 389058, Note_on_c, 0, 83, 98
1, 389059, Note_on_c, 0, 59, 98
1, 389060, Note_on_c, 0, 50, 88
1, 389062, Note_on_c, 0, 54, 87
1, 389065, Control_c, 0, 64, 44
1, 389075, Note_off_c, 0, 59, 74
1, 389080, Control_c, 0, 64, 70
1, 389082, Note_off_c, 0, 50, 70
1, 389083, Note_off_c, 0, 54, 69
1, 389084, Note_off_c, 0, 74, 67
1, 389088, Note_off_c, 0, 83, 67
1, 389092, Note_off_c, 0, 78, 67
1, 389095, Control_c, 0, 64, 127
1, 389188, Note_on_c, 0, 54, 8
1, 389214, Note_off_c, 0, 54, 28
1, 389406, Control_c, 0, 64, 68
1, 389421, Control_c, 0, 64, 23
1, 389436, Control_c, 0, 64, 0
1, 389613, Note_on_c, 0, 83, 102
1, 389617, Note_on_c, 0, 59, 96
1, 389621, Control_c, 0, 64, 60
1, 389636, Control_c, 0, 64, 127
1, 389790, Note_on_c, 0, 67, 99
1, 389791, Note_on_c, 0, 91, 102
1, 389810, Note_off_c, 0, 83, 48
1, 389873, Note_off_c, 0, 91, 55
1, 389907, Note_on_c, 0, 66, 91
1, 389912, Note_on_c, 0, 90, 94
1, 389918, Note_off_c, 0, 67, 60
1, 389987, Note_off_c, 0, 66, 58
1, 390012, Note_on_c, 0, 88, 90
1, 390013, Note_on_c, 0, 64, 90
1, 390037, Note_off_c, 0, 59, 59
1, 390057, Note_off_c, 0, 90, 64
1, 390091, Note_off_c, 0, 88, 66
1, 390094, Note_on_c, 0, 86, 90
1, 390103, Note_on_c, 0, 62, 86
1, 390115, Note_off_c, 0, 64, 56
1, 390142, Note_off_c, 0, 86, 64
1, 390181, Note_on_c, 0, 61, 75
1, 390182, Note_on_c, 0, 85, 87
1, 390184, Note_off_c, 0, 62, 61
1, 390235, Note_off_c, 0, 61, 67
1, 390247, Note_off_c, 0, 85, 57
1, 390250, Note_on_c, 0, 59, 75
1, 390265, Note_on_c, 0, 83, 85
1, 390295, Note_off_c, 0, 83, 64
1, 390311, Note_off_c, 0, 59, 62
1, 390341, Note_on_c, 0, 62, 86
1, 390349, Note_on_c, 0, 86, 94
1, 390389, Note_off_c, 0, 86, 62
1, 390398, Note_off_c, 0, 62, 62
1, 390462, Note_on_c, 0, 54, 91
1, 390467, Note_on_c, 0, 78, 105
1, 390508, Note_off_c, 0, 78, 69
1, 390510, Note_off_c, 0, 54, 64
1, 390590, Note_on_c, 0, 59, 94
1, 390590, Note_on_c, 0, 83, 106
1, 390627, Note_off_c, 0, 59, 66
1, 390632, Note_off_c, 0, 83, 66
1, 390765, Note_on_c, 0, 57, 89
1, 390772, Note_on_c, 0, 81, 100
1, 390785, Note_off_c, 0, 57, 70
1, 390789, Note_off_c, 0, 81, 72
1, 390833, Note_on_c, 0, 57, 95
1, 390840, Note_on_c, 0, 81, 107
1, 390863, Note_off_c, 0, 57, 68
1, 390890, Note_off_c, 0, 81, 64
1, 391005, Note_on_c, 0, 37, 100
1, 391054, Note_off_c, 0, 37, 64
1, 391163, Control_c, 0, 64, 45
1, 391178, Control_c, 0, 64, 0
1, 391193, Control_c, 0, 64, 22
1, 391194, Note_on_c, 0, 74, 97
1, 391195, Note_on_c, 0, 71, 99
1, 391197, Note_on_c, 0, 55, 98
1, 391197, Note_on_c, 0, 79, 102
1, 391200, Note_on_c, 0, 47, 90
1, 391202, Note_on_c, 0, 50, 82
1, 391208, Control_c, 0, 64, 56
1, 391223, Control_c, 0, 64, 127
1, 391225, Note_off_c, 0, 50, 70
1, 391227, Note_off_c, 0, 47, 67
1, 391233, Note_off_c, 0, 71, 69
1, 391234, Note_off_c, 0, 55, 65
1, 391245, Note_off_c, 0, 74, 61
1, 391246, Note_off_c, 0, 79, 57
1, 391578, Control_c, 0, 64, 96
1, 391593, Control_c, 0, 64, 64
1, 391608, Control_c, 0, 64, 44
1, 391623, Control_c, 0, 64, 0
1, 391816, Control_c, 0, 64, 13
1, 391827, Note_on_c, 0, 79, 105
1, 391834, Note_on_c, 0, 55, 87
1, 391838, Control_c, 0, 64, 127
1, 392058, Note_on_c, 0, 88, 102
1, 392062, Note_on_c, 0, 64, 100
1, 392090, Note_off_c, 0, 79, 60
1, 392192, Note_off_c, 0, 88, 60
1, 392226, Note_on_c, 0, 86, 95
1, 392227, Note_on_c, 0, 62, 91
1, 392252, Note_off_c, 0, 64, 62
1, 392340, Note_on_c, 0, 61, 91
1, 392345, Note_on_c, 0, 85, 91
1, 392363, Note_off_c, 0, 62, 63
1, 392371, Note_off_c, 0, 86, 56
1, 392425, Note_off_c, 0, 55, 59
1, 392437, Note_off_c, 0, 61, 65
1, 392441, Note_on_c, 0, 59, 89
1, 392442, Note_on_c, 0, 83, 90
1, 392468, Note_off_c, 0, 85, 62
1, 392523, Note_off_c, 0, 83, 66
1, 392526, Note_on_c, 0, 81, 89
1, 392535, Note_on_c, 0, 57, 93
1, 392553, Note_off_c, 0, 59, 55
1, 392615, Note_on_c, 0, 79, 92
1, 392625, Note_off_c, 0, 81, 59
1, 392628, Note_on_c, 0, 55, 89
1, 392648, Note_off_c, 0, 57, 60
1, 392667, Note_off_c, 0, 79, 60
1, 392702, Note_off_c, 0, 55, 65
1, 392705, Note_on_c, 0, 83, 102
1, 392715, Note_on_c, 0, 59, 92
1, 392801, Note_on_c, 0, 74, 93
1, 392802, Note_off_c, 0, 59, 58
1, 392805, Note_on_c, 0, 50, 92
1, 392831, Note_off_c, 0, 83, 60
1, 392859, Note_off_c, 0, 74, 68
1, 392878, Note_off_c, 0, 50, 0
1, 392894, Note_on_c, 0, 55, 101
1, 392895, Note_on_c, 0, 79, 104
1, 392908, Note_on_c, 0, 50, 27
1, 392923, Note_off_c, 0, 50, 58
1, 392923, Note_off_c, 0, 55, 68
1, 392929, Note_off_c, 0, 79, 69
1, 393002, Control_c, 0, 64, 65
1, 393016, Control_c, 0, 64, 0
1, 393203, Note_on_c, 0, 54, 91
1, 393207, Note_on_c, 0, 50, 98
1, 393215, Note_on_c, 0, 37, 77
1, 393222, Note_on_c, 0, 66, 56
1, 393224, Note_off_c, 0, 54, 71
1, 393224, Control_c, 0, 64, 31
1, 393225, Note_off_c, 0, 50, 73
1, 393236, Note_on_c, 0, 59, 7
1, 393239, Note_on_c, 0, 44, 31
1, 393240, Note_off_c, 0, 44, 127
1, 393240, Control_c, 0, 64, 127
1, 393241, Note_off_c, 0, 37, 67
1, 393244, Note_off_c, 0, 66, 62
1, 393271, Note_on_c, 0, 54, 102
1, 393273, Note_on_c, 0, 66, 89
1, 393276, Note_off_c, 0, 59, 0
1, 393276, Note_on_c, 0, 59, 60
1, 393276, Poly_aftertouch_c, 0, 39, 0
1, 393276, Note_on_c, 0, 50, 95
1, 393281, Note_on_c, 0, 39, 2
1, 393284, Note_on_c, 0, 37, 86
1, 393305, Note_on_c, 0, 56, 53
1, 393306, Note_off_c, 0, 56, 127
1, 393314, Note_off_c, 0, 66, 65
1, 393323, Note_off_c, 0, 59, 64
1, 393333, Note_off_c, 0, 54, 64
1, 393389, Note_off_c, 0, 39, 33
1, 393530, Note_off_c, 0, 50, 52
1, 393534, Note_off_c, 0, 37, 62
1, 393602, Note_on_c, 0, 53, 102
1, 393606, Note_on_c, 0, 65, 96
1, 393607, Note_on_c, 0, 50, 105
1, 393611, Note_on_c, 0, 44, 95
1, 393611, Note_on_c, 0, 59, 87
1, 393615, Note_on_c, 0, 37, 87
1, 393633, Control_c, 0, 64, 73
1, 393648, Control_c, 0, 64, 21
1, 393663, Control_c, 0, 64, 0
1, 393676, Note_on_c, 0, 63, 3
1, 393720, Note_off_c, 0, 63, 26
1, 393974, Control_c, 0, 64, 42
1, 393989, Control_c, 0, 64, 92
1, 394004, Control_c, 0, 64, 127
1, 394176, Note_off_c, 0, 65, 56
1, 394183, Note_off_c, 0, 50, 59
1, 394184, Note_off_c, 0, 53, 58
1, 394192, Note_off_c, 0, 37, 61
1, 394206, Note_off_c, 0, 59, 55
1, 394219, Note_off_c, 0, 44, 60
1, 394271, Note_on_c, 0, 53, 111
1, 394275, Note_on_c, 0, 50, 101
1, 394276, Note_on_c, 0, 65, 101
1, 394277, Note_on_c, 0, 44, 86
1, 394278, Control_c, 0, 64, 111
1, 394280, Note_on_c, 0, 59, 93
1, 394287, Note_on_c, 0, 37, 80
1, 394293, Control_c, 0, 64, 66
1, 394307, Control_c, 0, 64, 64
1, 394318, Note_off_c, 0, 53, 67
1, 394319, Note_off_c, 0, 65, 65
1, 394322, Control_c, 0, 64, 80
1, 394336, Note_off_c, 0, 59, 64
1, 394337, Control_c, 0, 64, 127
1, 394362, Poly_aftertouch_c, 0, 63, 127
1, 394391, Poly_aftertouch_c, 0, 63, 0
1, 394909, Note_off_c, 0, 37, 59
1, 394918, Note_off_c, 0, 50, 56
1, 394942, Note_off_c, 0, 44, 60
1, 394953, Control_c, 0, 64, 64
1, 394968, Control_c, 0, 64, 38
1, 394975, Note_on_c, 0, 53, 98
1, 394976, Note_on_c, 0, 44, 59
1, 394976, Note_on_c, 0, 50, 78
1, 394977, Note_on_c, 0, 65, 93
1, 394981, Note_on_c, 0, 37, 74
1, 394983, Control_c, 0, 64, 23
1, 394984, Note_on_c, 0, 59, 82
1, 394997, Control_c, 0, 64, 44
1, 395012, Control_c, 0, 64, 64
1, 395027, Control_c, 0, 64, 127
1, 395237, Note_off_c, 0, 37, 61
1, 395246, Note_off_c, 0, 53, 59
1, 395246, Note_off_c, 0, 65, 61
1, 395258, Note_off_c, 0, 50, 55
1, 395272, Note_off_c, 0, 59, 58
1, 395273, Note_off_c, 0, 44, 59
1, 395309, Control_c, 0, 64, 75
1, 395319, Note_on_c, 0, 44, 42
1, 395323, Note_on_c, 0, 53, 79
1, 395323, Note_on_c, 0, 65, 85
1, 395323, Note_on_c, 0, 50, 57
1, 395324, Control_c, 0, 64, 55
1, 395332, Note_on_c, 0, 59, 56
1, 395335, Note_on_c, 0, 37, 58
1, 395339, Control_c, 0, 64, 34
1, 395353, Control_c, 0, 64, 33
1, 395368, Control_c, 0, 64, 48
1, 395383, Control_c, 0, 64, 64
1, 395398, Control_c, 0, 64, 115
1, 395413, Control_c, 0, 64, 127
1, 395542, Note_off_c, 0, 53, 49
1, 395543, Note_off_c, 0, 37, 57
1, 395550, Note_off_c, 0, 65, 61
1, 395577, Note_off_c, 0, 59, 57
1, 395577, Note_off_c, 0, 44, 56
1, 395585, Note_off_c, 0, 50, 36
1, 395645, Note_on_c, 0, 65, 62
1, 395646, Note_on_c, 0, 53, 52
1, 395651, Note_on_c, 0, 59, 35
1, 395652, Note_on_c, 0, 44, 20
1, 395657, Control_c, 0, 64, 81
1, 395660, Note_on_c, 0, 50, 30
1, 395664, Note_on_c, 0, 37, 38
1, 395672, Control_c, 0, 64, 59
1, 395687, Control_c, 0, 64, 27
1, 395702, Control_c, 0, 64, 0
1, 395761, Control_c, 0, 64, 39
1, 395776, Control_c, 0, 64, 62
1, 395791, Control_c, 0, 64, 127
1, 396032, Note_off_c, 0, 37, 52
1, 396096, Note_off_c, 0, 50, 0
1, 396098, Note_off_c, 0, 44, 0
1, 396110, Note_on_c, 0, 50, 34
1, 396113, Note_on_c, 0, 44, 29
1, 396118, Note_on_c, 0, 37, 30
1, 396172, Note_off_c, 0, 37, 57
1, 396181, Note_off_c, 0, 44, 53
1, 396250, Note_off_c, 0, 50, 0
1, 396265, Note_on_c, 0, 50, 36
1, 396268, Note_on_c, 0, 44, 42
1, 396277, Note_on_c, 0, 37, 40
1, 396327, Note_off_c, 0, 37, 60
1, 396344, Note_off_c, 0, 44, 56
1, 396405, Note_off_c, 0, 50, 0
1, 396420, Note_on_c, 0, 50, 37
1, 396430, Note_on_c, 0, 37, 49
1, 396432, Note_on_c, 0, 44, 45
1, 396481, Note_off_c, 0, 37, 59
1, 396490, Note_off_c, 0, 53, 34
1, 396496, Note_off_c, 0, 44, 56
1, 396533, Note_off_c, 0, 50, 36
1, 396582, Note_on_c, 0, 50, 37
1, 396590, Note_on_c, 0, 37, 51
1, 396594, Note_on_c, 0, 44, 49
1, 396596, Note_off_c, 0, 59, 34
1, 396639, Note_off_c, 0, 37, 60
1, 396650, Note_off_c, 0, 44, 52
1, 396660, Note_off_c, 0, 50, 52
1, 396683, Note_off_c, 0, 65, 61
1, 396733, Note_on_c, 0, 50, 43
1, 396742, Note_on_c, 0, 44, 48
1, 396745, Note_on_c, 0, 37, 51
1, 396761, Control_c, 0, 67, 9
1, 396775, Control_c, 0, 67, 14
1, 396787, Note_off_c, 0, 37, 61
1, 396790, Control_c, 0, 67, 23
1, 396805, Control_c, 0, 67, 39
1, 396807, Note_off_c, 0, 44, 57
1, 396820, Control_c, 0, 67, 63
1, 396835, Control_c, 0, 67, 89
1, 396847, Note_off_c, 0, 50, 35
1, 396850, Control_c, 0, 67, 118
1, 396865, Control_c, 0, 67, 127
1, 396900, Note_on_c, 0, 50, 42
1, 396908, Note_on_c, 0, 37, 47
1, 396915, Note_on_c, 0, 44, 52
1, 396951, Note_off_c, 0, 37, 61
1, 396961, Note_off_c, 0, 44, 58
1, 396973, Note_off_c, 0, 50, 54
1, 397049, Note_on_c, 0, 50, 40
1, 397057, Note_on_c, 0, 44, 53
1, 397069, Note_on_c, 0, 37, 48
1, 397116, Note_off_c, 0, 37, 58
1, 397124, Note_off_c, 0, 44, 53
1, 397134, Note_on_c, 0, 77, 71
1, 397148, Note_off_c, 0, 50, 49
1, 397151, Note_on_c, 0, 71, 40
1, 397153, Note_off_c, 0, 77, 67
1, 397155, Control_c, 0, 64, 105
1, 397170, Control_c, 0, 64, 64
1, 397185, Control_c, 0, 64, 49
1, 397194, Note_off_c, 0, 71, 0
1, 397194, Note_on_c, 0, 71, 58
1, 397195, Note_on_c, 0, 77, 89
1, 397199, Control_c, 0, 64, 50
1, 397210, Note_on_c, 0, 50, 41
1, 397214, Control_c, 0, 64, 61
1, 397220, Note_on_c, 0, 44, 58
1, 397222, Note_on_c, 0, 37, 56
1, 397225, Note_off_c, 0, 71, 68
1, 397226, Note_off_c, 0, 77, 61
1, 397229, Control_c, 0, 64, 84
1, 397243, Control_c, 0, 64, 127
1, 397261, Note_off_c, 0, 37, 61
1, 397268, Note_off_c, 0, 44, 56
1, 397273, Note_off_c, 0, 50, 59
1, 397357, Note_on_c, 0, 37, 53
1, 397365, Note_on_c, 0, 50, 37
1, 397366, Note_on_c, 0, 44, 48
1, 397399, Note_off_c, 0, 37, 61
1, 397407, Note_off_c, 0, 44, 61
1, 397413, Note_off_c, 0, 50, 46
1, 397503, Note_on_c, 0, 50, 52
1, 397504, Note_on_c, 0, 37, 53
1, 397504, Note_on_c, 0, 44, 54
1, 397538, Note_off_c, 0, 37, 62
1, 397545, Note_off_c, 0, 44, 55
1, 397556, Note_off_c, 0, 50, 57
1, 397643, Note_on_c, 0, 50, 46
1, 397649, Note_on_c, 0, 37, 48
1, 397653, Note_on_c, 0, 44, 51
1, 397696, Note_off_c, 0, 37, 60
1, 397702, Note_off_c, 0, 44, 56
1, 397714, Note_off_c, 0, 50, 52
1, 397733, Note_on_c, 0, 71, 68
1, 397736, Note_on_c, 0, 65, 64
1, 397750, Note_off_c, 0, 71, 70
1, 397756, Note_off_c, 0, 65, 67
1, 397804, Note_on_c, 0, 71, 80
1, 397817, Note_on_c, 0, 50, 46
1, 397818, Note_on_c, 0, 37, 48
1, 397819, Note_on_c, 0, 44, 57
1, 397819, Note_on_c, 0, 65, 66
1, 397833, Note_off_c, 0, 71, 72
1, 397834, Note_off_c, 0, 65, 72
1, 397861, Note_off_c, 0, 44, 59
1, 397862, Note_off_c, 0, 37, 62
1, 397863, Note_off_c, 0, 50, 54
1, 397965, Note_on_c, 0, 44, 46
1, 397973, Note_on_c, 0, 37, 47
1, 397973, Note_on_c, 0, 50, 55
1, 398013, Note_off_c, 0, 37, 61
1, 398016, Note_off_c, 0, 44, 59
1, 398017, Note_off_c, 0, 50, 48
1, 398115, Note_on_c, 0, 37, 53
1, 398120, Note_on_c, 0, 44, 51
1, 398121, Note_on_c, 0, 50, 55
1, 398159, Note_off_c, 0, 37, 60
1, 398163, Note_off_c, 0, 44, 57
1, 398168, Note_off_c, 0, 50, 58
1, 398267, Note_on_c, 0, 37, 43
1, 398277, Note_on_c, 0, 50, 40
1, 398281, Note_on_c, 0, 44, 44
1, 398304, Note_off_c, 0, 37, 53
1, 398327, Note_off_c, 0, 44, 51
1, 398331, Note_off_c, 0, 50, 45
1, 398335, Note_on_c, 0, 65, 73
1, 398345, Note_on_c, 0, 59, 53
1, 398356, Note_off_c, 0, 65, 70
1, 398367, Note_off_c, 0, 59, 59
1, 398405, Note_on_c, 0, 65, 84
1, 398414, Note_on_c, 0, 37, 50
1, 398422, Note_on_c, 0, 50, 47
1, 398422, Note_on_c, 0, 59, 55
1, 398426, Note_off_c, 0, 65, 72
1, 398431, Note_on_c, 0, 44, 49
1, 398441, Note_off_c, 0, 59, 63
1, 398456, Note_off_c, 0, 37, 59
1, 398472, Note_off_c, 0, 44, 58
1, 398472, Note_off_c, 0, 50, 46
1, 398571, Note_on_c, 0, 37, 46
1, 398578, Note_on_c, 0, 50, 45
1, 398590, Note_on_c, 0, 44, 49
1, 398610, Note_off_c, 0, 37, 56
1, 398623, Note_off_c, 0, 50, 48
1, 398628, Note_off_c, 0, 44, 59
1, 398717, Note_on_c, 0, 37, 49
1, 398728, Note_on_c, 0, 50, 46
1, 398732, Note_on_c, 0, 44, 51
1, 398759, Note_off_c, 0, 37, 59
1, 398772, Note_off_c, 0, 44, 60
1, 398773, Note_off_c, 0, 50, 47
1, 398864, Note_on_c, 0, 37, 45
1, 398871, Note_on_c, 0, 50, 46
1, 398886, Note_on_c, 0, 44, 51
1, 398910, Note_off_c, 0, 37, 55
1, 398926, Note_off_c, 0, 44, 59
1, 398938, Note_on_c, 0, 59, 67
1, 398949, Note_on_c, 0, 53, 50
1, 398960, Note_off_c, 0, 59, 65
1, 398991, Note_off_c, 0, 53, 0
1, 398992, Note_off_c, 0, 50, 0
1, 399001, Note_on_c, 0, 59, 80
1, 399005, Note_on_c, 0, 53, 52
1, 399008, Note_on_c, 0, 50, 37
1, 399009, Control_c, 0, 64, 69
1, 399023, Note_on_c, 0, 44, 53
1, 399023, Control_c, 0, 64, 50
1, 399032, Note_on_c, 0, 37, 44
1, 399038, Control_c, 0, 64, 8
1, 399053, Control_c, 0, 64, 0
1, 399061, Note_off_c, 0, 37, 56
1, 399061, Note_off_c, 0, 44, 50
1, 399068, Control_c, 0, 64, 23
1, 399083, Control_c, 0, 64, 46
1, 399094, Note_off_c, 0, 50, 36
1, 399097, Control_c, 0, 64, 69
1, 399112, Control_c, 0, 64, 127
1, 399152, Note_on_c, 0, 50, 35
1, 399162, Note_on_c, 0, 44, 48
1, 399166, Note_on_c, 0, 37, 43
1, 399196, Note_off_c, 0, 37, 55
1, 399207, Note_off_c, 0, 53, 63
1, 399210, Note_off_c, 0, 44, 58
1, 399238, Note_off_c, 0, 59, 59
1, 399276, Note_off_c, 0, 50, 0
1, 399294, Note_on_c, 0, 50, 29
1, 399295, Note_on_c, 0, 37, 48
1, 399318, Note_on_c, 0, 44, 44
1, 399345, Note_off_c, 0, 37, 60
1, 399351, Note_off_c, 0, 44, 59
1, 399369, Note_off_c, 0, 50, 41
1, 399450, Note_on_c, 0, 44, 44
1, 399458, Note_on_c, 0, 37, 48
1, 399460, Note_on_c, 0, 50, 46
1, 399494, Note_off_c, 0, 37, 59
1, 399500, Note_off_c, 0, 44, 58
1, 399505, Note_off_c, 0, 50, 48
1, 399594, Note_on_c, 0, 37, 50
1, 399607, Note_on_c, 0, 50, 54
1, 399613, Note_on_c, 0, 44, 51
1, 399644, Note_off_c, 0, 37, 54
1, 399652, Note_off_c, 0, 44, 60
1, 399656, Note_off_c, 0, 50, 54
1, 399756, Note_on_c, 0, 44, 44
1, 399762, Note_on_c, 0, 50, 50
1, 399771, Note_on_c, 0, 37, 46
1, 399810, Note_off_c, 0, 37, 61
1, 399811, Note_off_c, 0, 50, 50
1, 399814, Note_off_c, 0, 44, 58
1, 399892, Control_c, 0, 64, 84
1, 399905, Note_on_c, 0, 59, 65
1, 399907, Control_c, 0, 64, 64
1, 399916, Note_on_c, 0, 53, 52
1, 399920, Note_on_c, 0, 50, 45
1, 399921, Control_c, 0, 64, 48
1, 399936, Note_on_c, 0, 37, 34
1, 399936, Control_c, 0, 64, 22
1, 399938, Note_on_c, 0, 44, 37
1, 399951, Control_c, 0, 64, 0
1, 399963, Note_off_c, 0, 50, 46
1, 399967, Note_off_c, 0, 44, 54
1, 399971, Note_off_c, 0, 37, 48
1, 399981, Control_c, 0, 64, 16
1, 399995, Control_c, 0, 64, 36
1, 400010, Control_c, 0, 64, 50
1, 400025, Control_c, 0, 64, 62
1, 400039, Control_c, 0, 64, 75
1, 400054, Control_c, 0, 64, 95
1, 400070, Note_on_c, 0, 50, 40
1, 400072, Note_on_c, 0, 44, 46
1, 400077, Control_c, 0, 64, 117
1, 400087, Note_on_c, 0, 37, 36
1, 400093, Control_c, 0, 64, 127
1, 400114, Note_off_c, 0, 44, 54
1, 400118, Note_off_c, 0, 50, 45
1, 400126, Note_off_c, 0, 37, 48
1, 400227, Note_on_c, 0, 50, 35
1, 400240, Note_on_c, 0, 44, 34
1, 400248, Note_on_c, 0, 37, 27
1, 400273, Note_off_c, 0, 50, 45
1, 400281, Note_off_c, 0, 44, 47
1, 400286, Note_off_c, 0, 37, 46
1, 400299, Note_off_c, 0, 53, 34
1, 400366, Note_off_c, 0, 59, 32
1, 400377, Note_on_c, 0, 50, 35
1, 400391, Note_on_c, 0, 37, 30
1, 400395, Note_on_c, 0, 44, 38
1, 400430, Note_off_c, 0, 44, 51
1, 400439, Note_off_c, 0, 37, 47
1, 400444, Note_off_c, 0, 50, 39
1, 400522, Control_c, 0, 64, 85
1, 400531, Note_on_c, 0, 59, 47
1, 400537, Control_c, 0, 64, 65
1, 400546, Note_on_c, 0, 44, 41
1, 400548, Note_on_c, 0, 50, 37
1, 400549, Note_on_c, 0, 53, 37
1, 400552, Control_c, 0, 64, 57
1, 400561, Note_on_c, 0, 37, 34
1, 400567, Control_c, 0, 64, 49
1, 400582, Control_c, 0, 64, 51
1, 400594, Note_off_c, 0, 44, 43
1, 400595, Note_off_c, 0, 37, 50
1, 400597, Control_c, 0, 64, 57
1, 400600, Note_off_c, 0, 50, 45
1, 400610, Control_c, 0, 64, 65
1, 400625, Control_c, 0, 64, 79
1, 400640, Control_c, 0, 64, 100
1, 400654, Control_c, 0, 64, 127
1, 400705, Note_on_c, 0, 37, 44
1, 400728, Note_on_c, 0, 44, 24
1, 400728, Note_on_c, 0, 50, 27
1, 400744, Note_off_c, 0, 53, 41
1, 400749, Note_off_c, 0, 37, 62
1, 400772, Note_off_c, 0, 50, 52
1, 400790, Note_off_c, 0, 44, 40
1, 400790, Note_off_c, 0, 59, 32
1, 400825, Control_c, 0, 64, 119
1, 400840, Control_c, 0, 64, 109
1, 400855, Control_c, 0, 64, 104
1, 400869, Control_c, 0, 64, 98
1, 400884, Control_c, 0, 64, 93
1, 400900, Control_c, 0, 64, 88
1, 400915, Control_c, 0, 64, 80
1, 400930, Control_c, 0, 64, 72
1, 400945, Control_c, 0, 64, 64
1, 400960, Control_c, 0, 64, 55
1, 400974, Control_c, 0, 64, 39
1, 400986, Note_on_c, 0, 60, 45
1, 400989, Control_c, 0, 64, 0
1, 401004, Note_on_c, 0, 53, 33
1, 401005, Note_on_c, 0, 36, 44
1, 401008, Note_on_c, 0, 50, 38
1, 401011, Note_on_c, 0, 44, 38
1, 401053, Note_off_c, 0, 44, 58
1, 401062, Note_off_c, 0, 50, 45
1, 401063, Note_off_c, 0, 36, 57
1, 401107, Control_c, 0, 64, 29
1, 401122, Control_c, 0, 64, 42
1, 401137, Control_c, 0, 64, 54
1, 401152, Control_c, 0, 64, 63
1, 401154, Note_on_c, 0, 50, 35
1, 401154, Note_on_c, 0, 36, 29
1, 401157, Note_on_c, 0, 44, 41
1, 401166, Control_c, 0, 64, 71
1, 401181, Control_c, 0, 64, 78
1, 401196, Note_off_c, 0, 44, 49
1, 401196, Control_c, 0, 64, 81
1, 401202, Note_off_c, 0, 50, 46
1, 401208, Note_off_c, 0, 36, 44
1, 401211, Control_c, 0, 64, 83
1, 401226, Control_c, 0, 64, 83
1, 401240, Control_c, 0, 64, 84
1, 401302, Note_on_c, 0, 44, 42
1, 401306, Note_on_c, 0, 50, 37
1, 401309, Note_on_c, 0, 36, 33
1, 401315, Control_c, 0, 64, 85
1, 401342, Note_off_c, 0, 44, 47
1, 401343, Note_off_c, 0, 50, 50
1, 401352, Note_off_c, 0, 36, 46
1, 401389, Control_c, 0, 64, 86
1, 401404, Control_c, 0, 64, 87
1, 401418, Control_c, 0, 64, 88
1, 401433, Control_c, 0, 64, 89
1, 401448, Control_c, 0, 64, 90
1, 401458, Note_on_c, 0, 50, 39
1, 401460, Note_on_c, 0, 44, 36
1, 401463, Control_c, 0, 64, 94
1, 401473, Note_on_c, 0, 36, 27
1, 401478, Control_c, 0, 64, 102
1, 401492, Control_c, 0, 64, 113
1, 401496, Note_off_c, 0, 50, 48
1, 401501, Note_off_c, 0, 44, 46
1, 401505, Note_off_c, 0, 53, 42
1, 401507, Control_c, 0, 64, 127
1, 401515, Note_off_c, 0, 36, 48
1, 401604, Note_off_c, 0, 60, 37
1, 401625, Note_on_c, 0, 50, 27
1, 401630, Note_on_c, 0, 44, 32
1, 401641, Note_on_c, 0, 36, 18
1, 401670, Note_off_c, 0, 50, 51
1, 401672, Note_off_c, 0, 44, 48
1, 401684, Note_off_c, 0, 36, 52
1, 401778, Note_on_c, 0, 50, 37
1, 401786, Note_on_c, 0, 44, 39
1, 401787, Note_on_c, 0, 36, 14
1, 401821, Note_off_c, 0, 44, 50
1, 401822, Note_off_c, 0, 50, 47
1, 401833, Note_off_c, 0, 36, 49
1, 401934, Note_on_c, 0, 44, 35
1, 401939, Note_on_c, 0, 50, 38
1, 401949, Note_on_c, 0, 36, 29
1, 401974, Note_off_c, 0, 44, 47
1, 401979, Note_off_c, 0, 50, 50
1, 401992, Note_off_c, 0, 36, 47
1, 402091, Note_on_c, 0, 50, 37
1, 402110, Note_on_c, 0, 44, 26
1, 402135, Note_off_c, 0, 50, 46
1, 402137, Poly_aftertouch_c, 0, 36, 127
1, 402147, Note_off_c, 0, 44, 50
1, 402162, Note_on_c, 0, 84, 65
1, 402177, Poly_aftertouch_c, 0, 36, 0
1, 402179, Note_on_c, 0, 77, 37
1, 402179, Note_off_c, 0, 84, 67
1, 402206, Note_off_c, 0, 77, 0
1, 402227, Note_on_c, 0, 77, 54
1, 402237, Note_on_c, 0, 84, 69
1, 402246, Note_on_c, 0, 44, 50
1, 402250, Note_on_c, 0, 50, 43
1, 402251, Note_off_c, 0, 84, 69
1, 402253, Note_off_c, 0, 77, 65
1, 402255, Note_on_c, 0, 36, 22
1, 402290, Note_off_c, 0, 44, 55
1, 402293, Note_off_c, 0, 50, 47
1, 402299, Note_off_c, 0, 36, 50
1, 402413, Note_on_c, 0, 50, 34
1, 402418, Note_on_c, 0, 44, 41
1, 402432, Note_on_c, 0, 36, 23
1, 402453, Note_off_c, 0, 50, 50
1, 402454, Note_off_c, 0, 44, 49
1, 402479, Note_off_c, 0, 36, 51
1, 402552, Note_on_c, 0, 44, 43
1, 402552, Note_on_c, 0, 50, 53
1, 402573, Note_on_c, 0, 36, 15
1, 402593, Note_off_c, 0, 50, 49
1, 402600, Note_off_c, 0, 44, 45
1, 402622, Note_off_c, 0, 36, 50
1, 402713, Note_on_c, 0, 50, 40
1, 402717, Note_on_c, 0, 44, 35
1, 402751, Note_off_c, 0, 50, 48
1, 402752, Poly_aftertouch_c, 0, 36, 127
1, 402758, Note_off_c, 0, 44, 48
1, 402774, Note_on_c, 0, 77, 72
1, 402782, Note_on_c, 0, 72, 55
1, 402795, Note_off_c, 0, 77, 67
1, 402798, Poly_aftertouch_c, 0, 36, 0
1, 402804, Note_off_c, 0, 72, 61
1, 402848, Note_on_c, 0, 77, 80
1, 402856, Note_on_c, 0, 44, 47
1, 402859, Note_on_c, 0, 72, 56
1, 402862, Note_on_c, 0, 50, 49
1, 402865, Note_off_c, 0, 77, 70
1, 402877, Note_on_c, 0, 36, 24
1, 402880, Note_off_c, 0, 72, 62
1, 402898, Note_off_c, 0, 44, 58
1, 402898, Note_off_c, 0, 50, 49
1, 402918, Note_off_c, 0, 36, 52
1, 403006, Note_on_c, 0, 44, 42
1, 403008, Note_on_c, 0, 50, 47
1, 403038, Note_on_c, 0, 36, 17
1, 403048, Note_off_c, 0, 44, 54
1, 403063, Note_off_c, 0, 50, 47
1, 403092, Note_off_c, 0, 36, 51
1, 403164, Note_on_c, 0, 44, 44
1, 403171, Note_on_c, 0, 36, 24
1, 403171, Note_on_c, 0, 50, 42
1, 403196, Note_off_c, 0, 44, 52
1, 403203, Note_off_c, 0, 50, 52
1, 403216, Note_off_c, 0, 36, 50
1, 403303, Note_on_c, 0, 50, 50
1, 403306, Note_on_c, 0, 44, 37
1, 403319, Note_on_c, 0, 36, 30
1, 403356, Note_off_c, 0, 50, 44
1, 403361, Note_off_c, 0, 44, 43
1, 403369, Note_off_c, 0, 36, 47
1, 403387, Note_on_c, 0, 72, 66
1, 403391, Note_on_c, 0, 65, 54
1, 403404, Note_off_c, 0, 72, 67
1, 403413, Note_off_c, 0, 65, 63
1, 403463, Note_on_c, 0, 72, 74
1, 403473, Note_on_c, 0, 44, 39
1, 403473, Note_on_c, 0, 50, 45
1, 403473, Note_on_c, 0, 65, 53
1, 403478, Note_off_c, 0, 72, 70
1, 403493, Note_off_c, 0, 65, 66
1, 403504, Note_off_c, 0, 44, 52
1, 403504, Note_off_c, 0, 50, 52
1, 403524, Poly_aftertouch_c, 0, 36, 127
1, 403589, Poly_aftertouch_c, 0, 36, 0
1, 403601, Note_on_c, 0, 44, 47
1, 403607, Note_on_c, 0, 50, 48
1, 403610, Note_on_c, 0, 36, 15
1, 403649, Note_off_c, 0, 44, 56
1, 403652, Note_off_c, 0, 50, 47
1, 403660, Note_off_c, 0, 36, 46
1, 403759, Note_on_c, 0, 50, 42
1, 403771, Note_on_c, 0, 36, 20
1, 403771, Note_on_c, 0, 44, 38
1, 403809, Note_off_c, 0, 50, 49
1, 403813, Note_off_c, 0, 44, 48
1, 403828, Note_off_c, 0, 36, 50
1, 403912, Note_on_c, 0, 44, 38
1, 403917, Note_on_c, 0, 50, 39
1, 403922, Note_on_c, 0, 36, 15
1, 403939, Note_off_c, 0, 44, 54
1, 403950, Note_off_c, 0, 50, 52
1, 403968, Note_off_c, 0, 36, 50
1, 403982, Note_on_c, 0, 65, 63
1, 403992, Note_on_c, 0, 60, 47
1, 404012, Note_off_c, 0, 65, 62
1, 404027, Note_off_c, 0, 60, 46
1, 404054, Note_on_c, 0, 50, 46
1, 404058, Note_on_c, 0, 65, 66
1, 404060, Note_on_c, 0, 44, 33
1, 404066, Note_on_c, 0, 60, 48
1, 404087, Note_on_c, 0, 36, 8
1, 404102, Note_off_c, 0, 50, 45
1, 404103, Note_off_c, 0, 44, 46
1, 404188, Note_off_c, 0, 36, 0
1, 404206, Note_on_c, 0, 36, 15
1, 404216, Note_on_c, 0, 50, 31
1, 404221, Note_on_c, 0, 44, 37
1, 404221, Note_off_c, 0, 65, 61
1, 404224, Note_off_c, 0, 60, 59
1, 404254, Note_off_c, 0, 44, 50
1, 404259, Note_off_c, 0, 50, 50
1, 404263, Note_off_c, 0, 36, 46
1, 404356, Note_on_c, 0, 44, 39
1, 404365, Note_on_c, 0, 36, 28
1, 404365, Note_on_c, 0, 50, 38
1, 404400, Note_off_c, 0, 50, 51
1, 404403, Note_off_c, 0, 44, 46
1, 404413, Note_off_c, 0, 36, 50
1, 404511, Note_on_c, 0, 50, 40
1, 404519, Note_on_c, 0, 44, 39
1, 404528, Note_on_c, 0, 36, 20
1, 404572, Note_off_c, 0, 50, 44
1, 404579, Note_off_c, 0, 44, 44
1, 404580, Note_off_c, 0, 36, 49
1, 404599, Note_on_c, 0, 60, 50
1, 404607, Note_on_c, 0, 53, 41
1, 404629, Control_c, 0, 64, 108
1, 404643, Control_c, 0, 64, 75
1, 404648, Note_off_c, 0, 53, 0
1, 404651, Note_off_c, 0, 60, 0
1, 404658, Control_c, 0, 64, 60
1, 404661, Note_on_c, 0, 60, 56
1, 404667, Note_on_c, 0, 53, 33
1, 404673, Control_c, 0, 64, 42
1, 404688, Control_c, 0, 64, 18
1, 404692, Note_on_c, 0, 50, 29
1, 404693, Note_on_c, 0, 36, 24
1, 404694, Note_on_c, 0, 44, 35
1, 404703, Control_c, 0, 64, 23
1, 404717, Control_c, 0, 64, 38
1, 404727, Note_off_c, 0, 44, 50
1, 404731, Note_off_c, 0, 50, 50
1, 404732, Control_c, 0, 64, 56
1, 404737, Note_off_c, 0, 36, 42
1, 404747, Control_c, 0, 64, 72
1, 404761, Control_c, 0, 64, 127
1, 404783, Note_off_c, 0, 53, 56
1, 404798, Note_off_c, 0, 60, 58
1, 404835, Note_on_c, 0, 44, 32
1, 404844, Note_on_c, 0, 50, 30
1, 404871, Note_off_c, 0, 44, 50
1, 404877, Poly_aftertouch_c, 0, 36, 127
1, 404883, Note_off_c, 0, 50, 50
1, 404967, Poly_aftertouch_c, 0, 36, 0
1, 404975, Note_on_c, 0, 44, 41
1, 404990, Note_on_c, 0, 50, 35
1, 405004, Poly_aftertouch_c, 0, 36, 127
1, 405012, Note_off_c, 0, 44, 48
1, 405030, Note_off_c, 0, 50, 49
1, 405054, Poly_aftertouch_c, 0, 36, 0
1, 405134, Note_on_c, 0, 36, 25
1, 405137, Note_on_c, 0, 44, 34
1, 405143, Note_on_c, 0, 50, 34
1, 405178, Note_off_c, 0, 44, 46
1, 405185, Note_off_c, 0, 50, 49
1, 405192, Note_off_c, 0, 36, 42
1, 405289, Note_on_c, 0, 36, 16
1, 405312, Note_on_c, 0, 50, 24
1, 405313, Note_on_c, 0, 44, 28
1, 405357, Note_off_c, 0, 50, 50
1, 405363, Note_off_c, 0, 44, 49
1, 405420, Note_off_c, 0, 36, 0
1, 405441, Note_on_c, 0, 36, 12
1, 405455, Note_on_c, 0, 44, 40
1, 405460, Note_on_c, 0, 50, 29
1, 405508, Note_off_c, 0, 50, 44
1, 405515, Note_off_c, 0, 44, 51
1, 405607, Note_off_c, 0, 36, 0
1, 405634, Note_on_c, 0, 60, 48
1, 405644, Poly_aftertouch_c, 0, 36, 127
1, 405647, Note_on_c, 0, 50, 26
1, 405652, Note_on_c, 0, 53, 25
1, 405652, Note_on_c, 0, 44, 33
1, 405685, Note_off_c, 0, 50, 53
1, 405691, Note_off_c, 0, 44, 48
1, 405702, Note_off_c, 0, 53, 45
1, 405704, Note_off_c, 0, 60, 52
1, 405806, Note_on_c, 0, 44, 44
1, 405838, Poly_aftertouch_c, 0, 36, 0
1, 405848, Poly_aftertouch_c, 0, 50, 127
1, 405852, Control_c, 0, 64, 96
1, 405867, Control_c, 0, 64, 87
1, 405869, Note_off_c, 0, 44, 57
1, 405879, Poly_aftertouch_c, 0, 50, 0
1, 405882, Control_c, 0, 64, 82
1, 405897, Control_c, 0, 64, 78
1, 405912, Control_c, 0, 64, 71
1, 405926, Control_c, 0, 64, 63
1, 405941, Control_c, 0, 64, 52
1, 405956, Control_c, 0, 64, 37
1, 405956, Note_on_c, 0, 35, 50
1, 405971, Control_c, 0, 64, 24
1, 405986, Control_c, 0, 64, 29
1, 405997, Note_off_c, 0, 35, 54
1, 406000, Control_c, 0, 64, 38
1, 406014, Note_on_c, 0, 44, 44
1, 406015, Control_c, 0, 64, 49
1, 406017, Note_on_c, 0, 56, 41
1, 406026, Note_on_c, 0, 53, 27
1, 406030, Control_c, 0, 64, 59
1, 406045, Control_c, 0, 64, 68
1, 406047, Note_off_c, 0, 56, 57
1, 406067, Note_on_c, 0, 50, 62
1, 406067, Control_c, 0, 64, 80
1, 406070, Note_on_c, 0, 62, 42
1, 406070, Note_off_c, 0, 44, 61
1, 406081, Control_c, 0, 64, 85
1, 406096, Note_off_c, 0, 50, 66
1, 406096, Control_c, 0, 64, 87
1, 406106, Note_off_c, 0, 53, 0
1, 406114, Note_off_c, 0, 62, 44
1, 406123, Note_on_c, 0, 53, 27
1, 406130, Note_on_c, 0, 56, 54
1, 406166, Note_off_c, 0, 56, 51
1, 406167, Note_on_c, 0, 62, 47
1, 406204, Note_off_c, 0, 53, 0
1, 406219, Note_on_c, 0, 53, 36
1, 406225, Note_on_c, 0, 56, 44
1, 406267, Note_off_c, 0, 56, 58
1, 406301, Note_off_c, 0, 53, 0
1, 406317, Note_on_c, 0, 53, 39
1, 406330, Note_on_c, 0, 56, 46
1, 406371, Note_off_c, 0, 53, 55
1, 406374, Note_off_c, 0, 56, 56
1, 406427, Note_on_c, 0, 53, 37
1, 406440, Note_on_c, 0, 56, 41
1, 406488, Note_off_c, 0, 56, 42
1, 406505, Note_off_c, 0, 53, 0
1, 406523, Note_on_c, 0, 53, 33
1, 406529, Note_on_c, 0, 56, 41
1, 406555, Note_off_c, 0, 62, 0
1, 406555, Note_on_c, 0, 62, 16
1, 406573, Note_off_c, 0, 53, 59
1, 406573, Note_off_c, 0, 56, 59
1, 406629, Note_on_c, 0, 53, 42
1, 406637, Note_on_c, 0, 56, 51
1, 406671, Note_off_c, 0, 53, 57
1, 406677, Note_off_c, 0, 56, 60
1, 406690, Control_c, 0, 64, 86
1, 406737, Note_on_c, 0, 53, 38
1, 406739, Note_on_c, 0, 56, 55
1, 406749, Control_c, 0, 64, 86
1, 406768, Note_off_c, 0, 53, 55
1, 406768, Note_off_c, 0, 56, 59
1, 406830, Control_c, 0, 64, 85
1, 406853, Note_on_c, 0, 53, 41
1, 406857, Note_on_c, 0, 56, 48
1, 406860, Control_c, 0, 64, 85
1, 406881, Note_off_c, 0, 56, 57
1, 406886, Note_off_c, 0, 53, 53
1, 406904, Control_c, 0, 64, 84
1, 406934, Control_c, 0, 64, 84
1, 406945, Note_on_c, 0, 53, 40
1, 406949, Control_c, 0, 64, 83
1, 406951, Note_on_c, 0, 56, 51
1, 406964, Control_c, 0, 64, 83
1, 406970, Note_off_c, 0, 53, 58
1, 406976, Note_off_c, 0, 56, 57
1, 406994, Control_c, 0, 64, 82
1, 407023, Control_c, 0, 64, 82
1, 407040, Note_on_c, 0, 53, 53
1, 407047, Note_on_c, 0, 56, 53
1, 407053, Control_c, 0, 64, 81
1, 407068, Note_off_c, 0, 53, 56
1, 407069, Note_off_c, 0, 56, 61
1, 407098, Control_c, 0, 64, 81
1, 407112, Control_c, 0, 64, 80
1, 407127, Control_c, 0, 64, 80
1, 407142, Control_c, 0, 64, 79
1, 407163, Note_on_c, 0, 53, 12
1, 407163, Note_on_c, 0, 56, 30
1, 407171, Control_c, 0, 64, 79
1, 407213, Note_off_c, 0, 56, 0
1, 407215, Note_off_c, 0, 53, 0
1, 407230, Control_c, 0, 64, 78
1, 407231, Note_on_c, 0, 53, 35
1, 407235, Note_on_c, 0, 56, 19
1, 407260, Note_off_c, 0, 53, 57
1, 407260, Control_c, 0, 64, 78
1, 407275, Note_off_c, 0, 56, 45
1, 407276, Control_c, 0, 64, 74
1, 407291, Control_c, 0, 64, 67
1, 407306, Control_c, 0, 64, 60
1, 407320, Control_c, 0, 64, 49
1, 407330, Note_on_c, 0, 56, 56
1, 407334, Note_on_c, 0, 53, 47
1, 407335, Control_c, 0, 64, 46
1, 407350, Control_c, 0, 64, 50
1, 407359, Note_off_c, 0, 53, 60
1, 407365, Control_c, 0, 64, 56
1, 407366, Note_off_c, 0, 56, 58
1, 407379, Control_c, 0, 64, 62
1, 407394, Control_c, 0, 64, 68
1, 407409, Control_c, 0, 64, 75
1, 407424, Control_c, 0, 64, 79
1, 407438, Note_on_c, 0, 53, 51
1, 407439, Note_on_c, 0, 56, 49
1, 407439, Control_c, 0, 64, 80
1, 407452, Note_off_c, 0, 62, 0
1, 407452, Note_on_c, 0, 62, 10
1, 407453, Control_c, 0, 64, 80
1, 407460, Note_off_c, 0, 53, 62
1, 407467, Note_off_c, 0, 56, 53
1, 407527, Note_off_c, 0, 62, 0
1, 407541, Note_on_c, 0, 53, 50
1, 407554, Note_on_c, 0, 56, 34
1, 407567, Note_on_c, 0, 62, 19
1, 407569, Note_off_c, 0, 53, 63
1, 407587, Note_off_c, 0, 56, 45
1, 407609, Control_c, 0, 64, 80
1, 407639, Note_off_c, 0, 62, 0
1, 407649, Note_on_c, 0, 53, 46
1, 407649, Note_on_c, 0, 56, 30
1, 407676, Note_on_c, 0, 62, 9
1, 407698, Control_c, 0, 64, 79
1, 407709, Note_off_c, 0, 56, 0
1, 407720, Note_off_c, 0, 53, 0
1, 407722, Note_on_c, 0, 56, 43
1, 407734, Note_on_c, 0, 53, 33
1, 407758, Note_off_c, 0, 56, 54
1, 407766, Note_off_c, 0, 53, 56
1, 407801, Control_c, 0, 64, 79
1, 407822, Note_on_c, 0, 56, 56
1, 407828, Note_on_c, 0, 53, 50
1, 407852, Note_off_c, 0, 56, 65
1, 407855, Note_off_c, 0, 53, 55
1, 407876, Control_c, 0, 64, 78
1, 407891, Control_c, 0, 64, 77
1, 407906, Control_c, 0, 64, 75
1, 407921, Control_c, 0, 64, 74
1, 407935, Note_on_c, 0, 56, 55
1, 407935, Control_c, 0, 64, 74
1, 407946, Note_on_c, 0, 53, 35
1, 407956, Note_off_c, 0, 56, 60
1, 407980, Note_off_c, 0, 53, 55
1, 408009, Control_c, 0, 64, 74
1, 408022, Note_on_c, 0, 56, 65
1, 408033, Note_on_c, 0, 53, 33
1, 408043, Note_off_c, 0, 56, 63
1, 408058, Note_off_c, 0, 53, 60
1, 408123, Note_on_c, 0, 56, 55
1, 408131, Note_on_c, 0, 53, 49
1, 408143, Note_off_c, 0, 56, 61
1, 408159, Note_off_c, 0, 53, 55
1, 408221, Note_on_c, 0, 56, 54
1, 408233, Note_on_c, 0, 53, 47
1, 408247, Note_off_c, 0, 56, 58
1, 408261, Note_off_c, 0, 53, 56
1, 408276, Control_c, 0, 64, 74
1, 408291, Control_c, 0, 64, 73
1, 408302, Note_on_c, 0, 34, 66
1, 408329, Control_c, 0, 64, 73
1, 408333, Note_on_c, 0, 53, 41
1, 408335, Note_on_c, 0, 56, 53
1, 408346, Note_off_c, 0, 34, 63
1, 408356, Note_off_c, 0, 56, 61
1, 408359, Control_c, 0, 64, 72
1, 408369, Note_off_c, 0, 53, 55
1, 408373, Control_c, 0, 64, 72
1, 408388, Control_c, 0, 64, 71
1, 408402, Control_c, 0, 64, 71
1, 408404, Note_on_c, 0, 35, 67
1, 408414, Note_on_c, 0, 53, 47
1, 408415, Note_on_c, 0, 56, 67
1, 408432, Control_c, 0, 64, 70
1, 408441, Note_off_c, 0, 56, 69
1, 408443, Note_off_c, 0, 53, 58
1, 408445, Note_off_c, 0, 35, 63
1, 408447, Control_c, 0, 64, 69
1, 408462, Control_c, 0, 64, 67
1, 408476, Control_c, 0, 64, 65
1, 408491, Control_c, 0, 64, 62
1, 408498, Note_on_c, 0, 38, 73
1, 408503, Note_on_c, 0, 56, 72
1, 408506, Control_c, 0, 64, 58
1, 408511, Note_on_c, 0, 53, 62
1, 408521, Control_c, 0, 64, 52
1, 408529, Note_off_c, 0, 38, 64
1, 408533, Note_off_c, 0, 56, 65
1, 408535, Note_off_c, 0, 53, 62
1, 408536, Control_c, 0, 64, 43
1, 408550, Control_c, 0, 64, 30
1, 408565, Control_c, 0, 64, 15
1, 408580, Control_c, 0, 64, 0
1, 408594, Note_on_c, 0, 41, 75
1, 408603, Note_on_c, 0, 56, 59
1, 408604, Note_off_c, 0, 62, 0
1, 408606, Note_on_c, 0, 53, 60
1, 408624, Note_off_c, 0, 53, 68
1, 408627, Note_off_c, 0, 56, 65
1, 408628, Note_off_c, 0, 41, 65
1, 408681, Note_on_c, 0, 44, 76
1, 408689, Note_on_c, 0, 53, 62
1, 408696, Note_on_c, 0, 56, 67
1, 408714, Note_off_c, 0, 53, 64
1, 408719, Note_off_c, 0, 56, 66
1, 408723, Note_off_c, 0, 44, 58
1, 408767, Poly_aftertouch_c, 0, 62, 0
1, 408775, Note_on_c, 0, 45, 78
1, 408783, Note_on_c, 0, 53, 65
1, 408786, Note_on_c, 0, 56, 68
1, 408807, Note_off_c, 0, 53, 67
1, 408811, Note_off_c, 0, 45, 64
1, 408813, Note_off_c, 0, 56, 67
1, 408848, Poly_aftertouch_c, 0, 62, 0
1, 408860, Note_on_c, 0, 46, 81
1, 408875, Note_on_c, 0, 53, 68
1, 408879, Note_on_c, 0, 56, 67
1, 408887, Poly_aftertouch_c, 0, 62, 127
1, 408904, Note_off_c, 0, 53, 65
1, 408907, Note_off_c, 0, 46, 67
1, 408907, Note_off_c, 0, 56, 66
1, 408956, Note_on_c, 0, 47, 73
1, 408978, Note_on_c, 0, 56, 54
1, 408980, Note_on_c, 0, 53, 46
1, 408984, Note_off_c, 0, 47, 65
1, 409000, Note_off_c, 0, 56, 60
1, 409007, Note_off_c, 0, 53, 58
1, 409033, Poly_aftertouch_c, 0, 62, 0
1, 409062, Note_on_c, 0, 38, 65
1, 409062, Control_c, 0, 64, 13
1, 409077, Control_c, 0, 64, 50
1, 409080, Note_on_c, 0, 56, 56
1, 409089, Note_on_c, 0, 53, 62
1, 409092, Note_off_c, 0, 38, 65
1, 409092, Control_c, 0, 64, 76
1, 409107, Control_c, 0, 64, 127
1, 409110, Note_off_c, 0, 53, 65
1, 409117, Note_off_c, 0, 56, 53
1, 409130, Note_on_c, 0, 62, 41
1, 409176, Note_off_c, 0, 62, 45
1, 409194, Note_on_c, 0, 53, 52
1, 409218, Note_on_c, 0, 56, 46
1, 409231, Note_off_c, 0, 53, 51
1, 409240, Note_off_c, 0, 56, 59
1, 409244, Note_on_c, 0, 62, 43
1, 409276, Note_off_c, 0, 62, 51
1, 409334, Note_on_c, 0, 56, 44
1, 409360, Note_on_c, 0, 62, 50
1, 409371, Note_off_c, 0, 56, 46
1, 409402, Note_off_c, 0, 62, 46
1, 409432, Note_on_c, 0, 53, 12
1, 409435, Note_on_c, 0, 56, 42
1, 409479, Note_on_c, 0, 62, 45
1, 409506, Note_off_c, 0, 53, 39
1, 409507, Control_c, 0, 67, 123
1, 409521, Control_c, 0, 67, 110
1, 409536, Control_c, 0, 67, 90
1, 409537, Note_off_c, 0, 56, 32
1, 409551, Control_c, 0, 67, 59
1, 409566, Control_c, 0, 67, 30
1, 409581, Control_c, 0, 67, 0
1, 409595, Note_off_c, 0, 62, 0
1, 409599, Poly_aftertouch_c, 0, 53, 127
1, 409617, Note_on_c, 0, 56, 17
1, 409632, Poly_aftertouch_c, 0, 62, 127
1, 409638, Note_on_c, 0, 74, 62
1, 409650, Note_on_c, 0, 62, 3
1, 409655, Poly_aftertouch_c, 0, 53, 0
1, 409656, Note_off_c, 0, 74, 67
1, 409659, Note_off_c, 0, 56, 52
1, 409670, Control_c, 0, 67, 23
1, 409685, Control_c, 0, 67, 57
1, 409700, Control_c, 0, 67, 113
1, 409705, Note_on_c, 0, 74, 84
1, 409712, Note_off_c, 0, 62, 40
1, 409715, Control_c, 0, 67, 127
1, 409721, Note_off_c, 0, 74, 75
1, 409745, Note_on_c, 0, 53, 40
1, 409770, Note_off_c, 0, 53, 59
1, 409809, Note_on_c, 0, 62, 29
1, 409846, Note_on_c, 0, 56, 27
1, 409854, Note_on_c, 0, 53, 58
1, 409858, Note_off_c, 0, 62, 42
1, 409879, Note_off_c, 0, 53, 62
1, 409896, Note_off_c, 0, 56, 54
1, 409908, Note_on_c, 0, 62, 31
1, 409947, Note_off_c, 0, 62, 51
1, 409966, Note_on_c, 0, 53, 49
1, 409971, Note_on_c, 0, 56, 22
1, 409990, Note_off_c, 0, 53, 59
1, 410019, Note_off_c, 0, 56, 42
1, 410038, Note_on_c, 0, 62, 8
1, 410082, Note_on_c, 0, 56, 19
1, 410082, Note_on_c, 0, 53, 34
1, 410133, Note_off_c, 0, 53, 43
1, 410163, Note_off_c, 0, 56, 0
1, 410177, Note_off_c, 0, 62, 49
1, 410181, Note_on_c, 0, 53, 22
1, 410185, Note_on_c, 0, 56, 11
1, 410248, Note_off_c, 0, 53, 41
1, 410256, Note_on_c, 0, 62, 36
1, 410278, Note_off_c, 0, 56, 0
1, 410286, Note_on_c, 0, 68, 65
1, 410293, Note_off_c, 0, 62, 49
1, 410305, Note_off_c, 0, 68, 64
1, 410314, Poly_aftertouch_c, 0, 56, 127
1, 410317, Note_on_c, 0, 53, 11
1, 410364, Note_on_c, 0, 62, 42
1, 410365, Note_on_c, 0, 68, 78
1, 410386, Note_off_c, 0, 53, 0
1, 410389, Note_off_c, 0, 68, 65
1, 410411, Note_on_c, 0, 53, 17
1, 410417, Note_off_c, 0, 62, 40
1, 410464, Note_off_c, 0, 53, 45
1, 410519, Poly_aftertouch_c, 0, 62, 127
1, 410554, Note_on_c, 0, 53, 11
1, 410584, Poly_aftertouch_c, 0, 56, 0
1, 410602, Note_off_c, 0, 53, 52
1, 410641, Poly_aftertouch_c, 0, 62, 0
1, 410688, Note_on_c, 0, 56, 54
1, 410706, Note_on_c, 0, 59, 43
1, 410726, Note_off_c, 0, 56, 62
1, 410750, Note_off_c, 0, 59, 62
1, 410776, Note_on_c, 0, 62, 40
1, 410782, Note_on_c, 0, 54, 67
1, 410812, Note_off_c, 0, 54, 66
1, 410860, Note_on_c, 0, 56, 20
1, 410878, Note_off_c, 0, 62, 0
1, 410878, Note_on_c, 0, 62, 16
1, 410878, Note_on_c, 0, 53, 69
1, 410890, Poly_aftertouch_c, 0, 59, 127
1, 410905, Note_off_c, 0, 56, 46
1, 410907, Note_off_c, 0, 53, 66
1, 410930, Poly_aftertouch_c, 0, 59, 0
1, 410966, Note_on_c, 0, 51, 76
1, 410989, Note_off_c, 0, 51, 68
1, 410996, Note_on_c, 0, 54, 61
1, 410997, Note_on_c, 0, 57, 63
1, 411006, Note_off_c, 0, 62, 40
1, 411021, Note_off_c, 0, 54, 60
1, 411037, Note_off_c, 0, 57, 55
1, 411063, Note_on_c, 0, 63, 68
1, 411069, Note_on_c, 0, 48, 84
1, 411095, Note_off_c, 0, 48, 67
1, 411132, Note_off_c, 0, 63, 59
1, 411153, Note_on_c, 0, 57, 61
1, 411166, Note_on_c, 0, 45, 85
1, 411173, Note_on_c, 0, 54, 36
1, 411194, Note_off_c, 0, 45, 67
1, 411196, Note_off_c, 0, 57, 61
1, 411197, Control_c, 0, 64, 110
1, 411205, Note_off_c, 0, 54, 48
1, 411212, Control_c, 0, 64, 81
1, 411227, Control_c, 0, 64, 65
1, 411241, Control_c, 0, 64, 53
1, 411248, Note_on_c, 0, 42, 81
1, 411249, Note_on_c, 0, 63, 3
1, 411256, Control_c, 0, 64, 31
1, 411267, Note_on_c, 0, 57, 61
1, 411272, Control_c, 0, 64, 0
1, 411277, Note_on_c, 0, 54, 56
1, 411298, Note_off_c, 0, 63, 45
1, 411301, Note_off_c, 0, 42, 63
1, 411310, Note_off_c, 0, 57, 61
1, 411313, Note_off_c, 0, 54, 58
1, 411356, Note_on_c, 0, 41, 80
1, 411379, Note_on_c, 0, 54, 52
1, 411390, Note_off_c, 0, 41, 64
1, 411397, Note_on_c, 0, 57, 42
1, 411406, Note_off_c, 0, 54, 57
1, 411409, Poly_aftertouch_c, 0, 63, 127
1, 411436, Note_on_c, 0, 39, 76
1, 411456, Note_off_c, 0, 57, 0
1, 411468, Note_on_c, 0, 57, 48
1, 411472, Poly_aftertouch_c, 0, 63, 0
1, 411486, Note_off_c, 0, 39, 65
1, 411499, Note_off_c, 0, 57, 63
1, 411531, Control_c, 0, 64, 27
1, 411545, Control_c, 0, 64, 71
1, 411547, Note_on_c, 0, 48, 81
1, 411560, Control_c, 0, 64, 127
1, 411561, Note_on_c, 0, 54, 41
1, 411567, Note_on_c, 0, 57, 72
1, 411569, Note_off_c, 0, 48, 68
1, 411598, Note_off_c, 0, 57, 62
1, 411605, Note_off_c, 0, 54, 62
1, 411678, Note_on_c, 0, 57, 53
1, 411684, Note_on_c, 0, 54, 22
1, 411714, Note_off_c, 0, 54, 53
1, 411717, Note_off_c, 0, 57, 59
1, 411724, Note_on_c, 0, 63, 3
1, 411770, Note_off_c, 0, 63, 44
1, 411794, Note_on_c, 0, 57, 42
1, 411811, Note_on_c, 0, 54, 30
1, 411819, Note_off_c, 0, 57, 57
1, 411824, Note_on_c, 0, 63, 48
1, 411852, Note_off_c, 0, 54, 47
1, 411867, Note_off_c, 0, 63, 60
1, 411872, Control_c, 0, 67, 103
1, 411886, Control_c, 0, 67, 77
1, 411901, Control_c, 0, 67, 51
1, 411916, Control_c, 0, 67, 30
1, 411921, Note_on_c, 0, 57, 46
1, 411931, Control_c, 0, 67, 15
1, 411942, Poly_aftertouch_c, 0, 54, 127
1, 411945, Control_c, 0, 67, 8
1, 411955, Note_on_c, 0, 63, 52
1, 411960, Note_off_c, 0, 57, 48
1, 411960, Control_c, 0, 67, 0
1, 412004, Note_off_c, 0, 63, 59
1, 412007, Poly_aftertouch_c, 0, 54, 0
1, 412032, Note_on_c, 0, 54, 7
1, 412059, Note_on_c, 0, 66, 39
1, 412062, Note_on_c, 0, 72, 46
1, 412090, Note_off_c, 0, 72, 56
1, 412092, Note_off_c, 0, 66, 52
1, 412098, Note_off_c, 0, 54, 47
1, 412115, Poly_aftertouch_c, 0, 57, 127
1, 412143, Note_on_c, 0, 72, 66
1, 412145, Note_on_c, 0, 66, 64
1, 412168, Note_off_c, 0, 72, 66
1, 412174, Note_off_c, 0, 66, 65
1, 412176, Note_on_c, 0, 57, 12
1, 412189, Note_on_c, 0, 54, 43
1, 412221, Note_off_c, 0, 54, 54
1, 412242, Note_on_c, 0, 63, 33
1, 412254, Note_off_c, 0, 57, 41
1, 412309, Note_off_c, 0, 63, 57
1, 412363, Note_on_c, 0, 78, 72
1, 412368, Note_on_c, 0, 72, 61
1, 412369, Note_on_c, 0, 57, 40
1, 412378, Note_on_c, 0, 54, 19
1, 412389, Note_off_c, 0, 78, 67
1, 412390, Note_off_c, 0, 72, 61
1, 412404, Note_off_c, 0, 57, 55
1, 412420, Note_off_c, 0, 54, 48
1, 412440, Note_on_c, 0, 63, 35
1, 412452, Note_on_c, 0, 78, 77
1, 412464, Note_on_c, 0, 72, 60
1, 412471, Note_off_c, 0, 63, 54
1, 412481, Note_off_c, 0, 72, 67
1, 412500, Note_on_c, 0, 57, 51
1, 412502, Note_off_c, 0, 78, 64
1, 412514, Note_on_c, 0, 54, 40
1, 412539, Note_off_c, 0, 57, 59
1, 412554, Note_off_c, 0, 54, 49
1, 412565, Note_on_c, 0, 63, 54
1, 412633, Note_off_c, 0, 63, 55
1, 412677, Note_on_c, 0, 84, 71
1, 412682, Note_on_c, 0, 78, 64
1, 412688, Note_on_c, 0, 54, 34
1, 412697, Note_off_c, 0, 84, 67
1, 412699, Note_off_c, 0, 78, 66
1, 412726, Note_off_c, 0, 54, 51
1, 412742, Note_on_c, 0, 84, 90
1, 412742, Poly_aftertouch_c, 0, 57, 127
1, 412748, Note_on_c, 0, 78, 93
1, 412768, Note_off_c, 0, 84, 65
1, 412783, Control_c, 0, 67, 35
1, 412797, Note_off_c, 0, 78, 67
1, 412801, Poly_aftertouch_c, 0, 63, 127
1, 412806, Control_c, 0, 67, 103
1, 412810, Note_on_c, 0, 57, 8
1, 412821, Control_c, 0, 67, 127
1, 412826, Note_on_c, 0, 54, 47
1, 412840, Poly_aftertouch_c, 0, 63, 0
1, 412851, Note_off_c, 0, 54, 58
1, 412860, Note_on_c, 0, 63, 29
1, 412931, Note_off_c, 0, 63, 55
1, 412934, Note_off_c, 0, 57, 0
1, 412943, Note_on_c, 0, 54, 46
1, 412949, Note_on_c, 0, 57, 31
1, 412968, Poly_aftertouch_c, 0, 63, 0
1, 412980, Note_off_c, 0, 54, 52
1, 412984, Note_on_c, 0, 63, 41
1, 413014, Note_off_c, 0, 57, 50
1, 413051, Note_off_c, 0, 63, 59
1, 413075, Note_on_c, 0, 57, 24
1, 413116, Poly_aftertouch_c, 0, 54, 127
1, 413133, Note_on_c, 0, 63, 35
1, 413134, Note_off_c, 0, 57, 52
1, 413157, Note_on_c, 0, 35, 52
1, 413163, Poly_aftertouch_c, 0, 54, 0
1, 413185, Note_off_c, 0, 35, 57
1, 413194, Note_off_c, 0, 63, 43
1, 413228, Note_on_c, 0, 54, 24
1, 413254, Note_on_c, 0, 57, 31
1, 413265, Note_off_c, 0, 54, 52
1, 413292, Note_off_c, 0, 57, 44
1, 413330, Poly_aftertouch_c, 0, 63, 127
1, 413334, Note_on_c, 0, 39, 74
1, 413351, Note_on_c, 0, 54, 53
1, 413351, Note_on_c, 0, 57, 55
1, 413363, Note_off_c, 0, 39, 65
1, 413373, Note_off_c, 0, 54, 62
1, 413374, Note_off_c, 0, 57, 61
1, 413374, Poly_aftertouch_c, 0, 63, 0
1, 413422, Note_on_c, 0, 42, 89
1, 413444, Note_on_c, 0, 54, 58
1, 413445, Note_on_c, 0, 57, 58
1, 413459, Control_c, 0, 64, 103
1, 413460, Note_off_c, 0, 42, 59
1, 413466, Note_off_c, 0, 57, 62
1, 413467, Note_off_c, 0, 54, 61
1, 413474, Control_c, 0, 64, 79
1, 413489, Control_c, 0, 64, 67
1, 413504, Control_c, 0, 64, 59
1, 413518, Control_c, 0, 64, 43
1, 413519, Note_on_c, 0, 45, 80
1, 413523, Note_on_c, 0, 57, 75
1, 413540, Note_on_c, 0, 54, 54
1, 413540, Control_c, 0, 64, 14
1, 413555, Control_c, 0, 64, 0
1, 413556, Note_off_c, 0, 45, 66
1, 413561, Note_off_c, 0, 54, 63
1, 413561, Note_off_c, 0, 57, 64
1, 413608, Note_on_c, 0, 46, 82
1, 413617, Note_on_c, 0, 57, 70
1, 413628, Note_on_c, 0, 54, 57
1, 413647, Note_off_c, 0, 57, 63
1, 413651, Note_off_c, 0, 54, 61
1, 413653, Note_off_c, 0, 46, 66
1, 413705, Note_on_c, 0, 47, 80
1, 413713, Note_on_c, 0, 57, 64
1, 413722, Note_on_c, 0, 54, 58
1, 413738, Note_off_c, 0, 47, 63
1, 413742, Note_off_c, 0, 54, 62
1, 413743, Note_off_c, 0, 57, 64
1, 413794, Note_on_c, 0, 48, 69
1, 413806, Note_on_c, 0, 57, 64
1, 413819, Note_on_c, 0, 54, 44
1, 413827, Note_off_c, 0, 48, 65
1, 413835, Note_off_c, 0, 57, 64
1, 413847, Note_off_c, 0, 54, 57
1, 413882, Control_c, 0, 64, 36
1, 413894, Note_on_c, 0, 39, 69
1, 413897, Control_c, 0, 64, 127
1, 413897, Note_on_c, 0, 57, 69
1, 413921, Note_on_c, 0, 54, 40
1, 413925, Note_off_c, 0, 39, 66
1, 413945, Note_off_c, 0, 57, 57
1, 413948, Note_off_c, 0, 54, 56
1, 413958, Note_on_c, 0, 63, 17
1, 414011, Note_off_c, 0, 63, 43
1, 414030, Note_on_c, 0, 57, 19
1, 414046, Note_on_c, 0, 54, 21
1, 414076, Note_on_c, 0, 63, 28
1, 414082, Note_off_c, 0, 54, 52
1, 414082, Note_off_c, 0, 57, 43
1, 414126, Note_off_c, 0, 63, 43
1, 414142, Note_on_c, 0, 57, 42
1, 414184, Note_on_c, 0, 63, 39
1, 414186, Poly_aftertouch_c, 0, 54, 127
1, 414201, Note_off_c, 0, 57, 52
1, 414237, Poly_aftertouch_c, 0, 54, 0
1, 414240, Note_off_c, 0, 63, 42
1, 414275, Note_on_c, 0, 57, 23
1, 414275, Poly_aftertouch_c, 0, 54, 127
1, 414330, Note_on_c, 0, 63, 39
1, 414346, Note_off_c, 0, 57, 39
1, 414397, Poly_aftertouch_c, 0, 54, 0
1, 414407, Note_off_c, 0, 63, 37
1, 414419, Note_on_c, 0, 57, 16
1, 414433, Note_on_c, 0, 78, 69
1, 414434, Poly_aftertouch_c, 0, 54, 127
1, 414449, Note_off_c, 0, 78, 69
1, 414455, Note_on_c, 0, 63, 34
1, 414465, Note_off_c, 0, 57, 46
1, 414498, Note_on_c, 0, 78, 93
1, 414511, Poly_aftertouch_c, 0, 54, 0
1, 414515, Note_off_c, 0, 78, 73
1, 414516, Note_off_c, 0, 63, 42
1, 414528, Note_on_c, 0, 54, 32
1, 414541, Note_on_c, 0, 57, 43
1, 414566, Note_off_c, 0, 54, 49
1, 414569, Note_off_c, 0, 57, 55
1, 414582, Note_on_c, 0, 63, 29
1, 414617, Note_off_c, 0, 63, 51
1, 414638, Note_on_c, 0, 54, 43
1, 414653, Note_on_c, 0, 57, 42
1, 414664, Note_off_c, 0, 54, 57
1, 414683, Note_off_c, 0, 57, 54
1, 414712, Note_on_c, 0, 63, 28
1, 414758, Note_on_c, 0, 54, 36
1, 414767, Note_on_c, 0, 57, 41
1, 414785, Note_off_c, 0, 63, 0
1, 414789, Note_off_c, 0, 54, 55
1, 414798, Note_on_c, 0, 63, 40
1, 414808, Note_off_c, 0, 57, 46
1, 414860, Note_off_c, 0, 63, 40
1, 414884, Note_on_c, 0, 57, 24
1, 414912, Note_on_c, 0, 63, 39
1, 414930, Note_off_c, 0, 57, 45
1, 415022, Poly_aftertouch_c, 0, 54, 127
1, 415028, Note_on_c, 0, 57, 21
1, 415048, Note_off_c, 0, 63, 0
1, 415063, Note_on_c, 0, 72, 64
1, 415071, Note_on_c, 0, 63, 12
1, 415084, Note_off_c, 0, 72, 59
1, 415111, Poly_aftertouch_c, 0, 54, 0
1, 415120, Note_off_c, 0, 63, 46
1, 415141, Note_on_c, 0, 72, 75
1, 415148, Poly_aftertouch_c, 0, 54, 127
1, 415159, Note_off_c, 0, 72, 68
1, 415184, Note_off_c, 0, 57, 0
1, 415191, Note_on_c, 0, 63, 35
1, 415221, Poly_aftertouch_c, 0, 57, 127
1, 415226, Poly_aftertouch_c, 0, 54, 0
1, 415236, Note_off_c, 0, 63, 46
1, 415263, Poly_aftertouch_c, 0, 54, 127
1, 415334, Note_on_c, 0, 63, 57
1, 415339, Poly_aftertouch_c, 0, 54, 0
1, 415342, Poly_aftertouch_c, 0, 57, 0
1, 415410, Note_off_c, 0, 63, 56
1, 415449, Note_on_c, 0, 57, 53
1, 415469, Note_on_c, 0, 60, 45
1, 415490, Note_off_c, 0, 57, 58
1, 415504, Note_off_c, 0, 60, 54
1, 415535, Note_on_c, 0, 63, 41
1, 415570, Note_on_c, 0, 55, 64
1, 415582, Note_off_c, 0, 63, 43
1, 415594, Note_on_c, 0, 57, 36
1, 415603, Note_off_c, 0, 55, 64
1, 415631, Note_off_c, 0, 57, 49
1, 415640, Note_on_c, 0, 63, 51
1, 415652, Note_on_c, 0, 54, 75
1, 415678, Note_off_c, 0, 54, 68
1, 415684, Poly_aftertouch_c, 0, 60, 0
1, 415737, Note_on_c, 0, 52, 82
1, 415751, Note_on_c, 0, 55, 62
1, 415754, Note_off_c, 0, 63, 57
1, 415756, Note_on_c, 0, 58, 60
1, 415787, Note_off_c, 0, 52, 65
1, 415795, Note_off_c, 0, 55, 59
1, 415800, Note_off_c, 0, 58, 62
1, 415825, Note_on_c, 0, 64, 67
1, 415838, Note_on_c, 0, 49, 89
1, 415888, Note_off_c, 0, 49, 62
1, 415902, Note_on_c, 0, 55, 69
1, 415908, Note_on_c, 0, 58, 65
1, 415908, Note_off_c, 0, 64, 61
1, 415925, Note_on_c, 0, 46, 85
1, 415946, Note_off_c, 0, 55, 65
1, 415949, Note_off_c, 0, 58, 56
1, 415957, Note_off_c, 0, 46, 66
1, 415981, Note_on_c, 0, 64, 53
1, 415993, Control_c, 0, 64, 73
1, 415997, Poly_aftertouch_c, 0, 49, 0
1, 416008, Control_c, 0, 64, 52
1, 416011, Note_on_c, 0, 43, 89
1, 416023, Control_c, 0, 64, 0
1, 416041, Note_on_c, 0, 55, 54
1, 416042, Note_off_c, 0, 64, 62
1, 416054, Note_off_c, 0, 43, 61
1, 416072, Note_off_c, 0, 55, 55
1, 416097, Note_on_c, 0, 42, 81
1, 416111, Note_on_c, 0, 64, 57
1, 416139, Poly_aftertouch_c, 0, 58, 0
1, 416162, Note_off_c, 0, 42, 60
1, 416177, Note_off_c, 0, 64, 58
1, 416194, Note_on_c, 0, 55, 41
1, 416198, Note_on_c, 0, 40, 67
1, 416207, Note_on_c, 0, 58, 45
1, 416234, Note_off_c, 0, 55, 63
1, 416246, Note_off_c, 0, 58, 64
1, 416252, Note_off_c, 0, 40, 65
1, 416290, Control_c, 0, 64, 63
1, 416295, Note_on_c, 0, 49, 86
1, 416305, Control_c, 0, 64, 127
1, 416318, Note_off_c, 0, 49, 72
1, 416324, Note_on_c, 0, 58, 45
1, 416325, Note_on_c, 0, 55, 57
1, 416357, Note_off_c, 0, 55, 64
1, 416360, Note_off_c, 0, 58, 59
1, 416380, Note_on_c, 0, 64, 44
1, 416425, Note_off_c, 0, 64, 46
1, 416453, Note_on_c, 0, 55, 54
1, 416467, Note_on_c, 0, 58, 30
1, 416482, Note_off_c, 0, 55, 57
1, 416493, Note_off_c, 0, 58, 55
1, 416510, Note_on_c, 0, 64, 36
1, 416546, Note_off_c, 0, 64, 54
1, 416586, Note_on_c, 0, 55, 46
1, 416601, Note_on_c, 0, 58, 42
1, 416613, Note_off_c, 0, 55, 57
1, 416643, Note_on_c, 0, 64, 43
1, 416660, Note_off_c, 0, 58, 0
1, 416675, Note_on_c, 0, 58, 36
1, 416676, Note_off_c, 0, 64, 51
1, 416749, Note_off_c, 0, 58, 52
1, 416754, Poly_aftertouch_c, 0, 55, 127
1, 416755, Note_on_c, 0, 64, 38
1, 416798, Note_on_c, 0, 73, 64
1, 416801, Poly_aftertouch_c, 0, 55, 0
1, 416802, Note_on_c, 0, 67, 60
1, 416804, Note_off_c, 0, 64, 45
1, 416824, Note_off_c, 0, 73, 63
1, 416831, Note_off_c, 0, 67, 65
1, 416838, Poly_aftertouch_c, 0, 55, 127
1, 416892, Note_on_c, 0, 73, 70
1, 416895, Note_on_c, 0, 67, 69
1, 416903, Poly_aftertouch_c, 0, 55, 0
1, 416917, Note_off_c, 0, 67, 71
1, 416917, Note_off_c, 0, 73, 66
1, 416928, Note_on_c, 0, 58, 30
1, 416931, Poly_aftertouch_c, 0, 64, 127
1, 416947, Note_on_c, 0, 55, 28
1, 416983, Note_off_c, 0, 58, 59
1, 417001, Note_off_c, 0, 55, 45
1, 417012, Poly_aftertouch_c, 0, 64, 0
1, 417028, Note_on_c, 0, 64, 33
1, 417078, Note_off_c, 0, 64, 58
1, 417102, Note_on_c, 0, 79, 79
1, 417108, Note_on_c, 0, 73, 66
1, 417125, Note_off_c, 0, 79, 65
1, 417126, Note_off_c, 0, 73, 67
1, 417132, Note_on_c, 0, 58, 48
1, 417135, Note_on_c, 0, 55, 42
1, 417157, Note_off_c, 0, 58, 59
1, 417169, Note_off_c, 0, 55, 49
1, 417181, Note_on_c, 0, 79, 86
1, 417182, Note_on_c, 0, 73, 77
1, 417186, Note_on_c, 0, 64, 51
1, 417202, Note_off_c, 0, 79, 67
1, 417204, Note_off_c, 0, 73, 66
1, 417220, Note_off_c, 0, 64, 64
1, 417246, Control_c, 0, 67, 108
1, 417254, Note_on_c, 0, 58, 46
1, 417261, Control_c, 0, 67, 78
1, 417283, Control_c, 0, 67, 47
1, 417288, Note_on_c, 0, 55, 17
1, 417288, Note_off_c, 0, 58, 56
1, 417298, Control_c, 0, 67, 24
1, 417313, Control_c, 0, 67, 0
1, 417320, Note_on_c, 0, 64, 48
1, 417333, Note_off_c, 0, 55, 55
1, 417468, Note_on_c, 0, 85, 69
1, 417477, Note_on_c, 0, 55, 43
1, 417485, Note_on_c, 0, 79, 48
1, 417492, Note_on_c, 0, 58, 34
1, 417494, Note_off_c, 0, 85, 65
1, 417512, Note_off_c, 0, 79, 56
1, 417520, Note_off_c, 0, 55, 61
1, 417531, Note_off_c, 0, 58, 47
1, 417531, Note_off_c, 0, 64, 0
1, 417558, Note_on_c, 0, 85, 63
1, 417567, Poly_aftertouch_c, 0, 64, 127
1, 417582, Note_off_c, 0, 85, 67
1, 417585, Note_on_c, 0, 79, 25
1, 417624, Note_off_c, 0, 79, 50
1, 417635, Note_on_c, 0, 58, 27
1, 417644, Poly_aftertouch_c, 0, 64, 0
1, 417664, Note_on_c, 0, 64, 27
1, 417689, Note_off_c, 0, 58, 44
1, 417725, Note_off_c, 0, 64, 41
1, 417750, Note_on_c, 0, 55, 6
1, 417751, Note_on_c, 0, 58, 24
1, 417789, Note_off_c, 0, 58, 50
1, 417808, Note_on_c, 0, 64, 18
1, 417851, Note_off_c, 0, 55, 0
1, 417856, Note_off_c, 0, 64, 47
1, 417871, Note_on_c, 0, 55, 23
1, 417871, Note_on_c, 0, 58, 35
1, 417927, Note_off_c, 0, 55, 45
1, 417934, Note_on_c, 0, 64, 34
1, 417977, Note_off_c, 0, 64, 45
1, 418007, Note_off_c, 0, 58, 0
1, 418052, Poly_aftertouch_c, 0, 58, 127
1, 418065, Poly_aftertouch_c, 0, 55, 127
1, 418077, Note_on_c, 0, 64, 36
1, 418225, Control_c, 0, 67, 13
1, 418240, Control_c, 0, 67, 27
1, 418252, Note_on_c, 0, 36, 45
1, 418252, Note_on_c, 0, 48, 43
1, 418255, Control_c, 0, 67, 50
1, 418269, Control_c, 0, 67, 80
1, 418284, Control_c, 0, 67, 108
1, 418292, Poly_aftertouch_c, 0, 55, 0
1, 418299, Control_c, 0, 67, 127
1, 418309, Note_off_c, 0, 48, 50
1, 418312, Note_off_c, 0, 36, 55
1, 418315, Poly_aftertouch_c, 0, 58, 0
1, 418377, Note_off_c, 0, 64, 26
1, 418428, Note_on_c, 0, 36, 42
1, 418432, Note_on_c, 0, 48, 46
1, 418478, Control_c, 0, 64, 81
1, 418492, Control_c, 0, 64, 59
1, 418507, Control_c, 0, 64, 41
1, 418522, Control_c, 0, 64, 34
1, 418536, Control_c, 0, 64, 43
1, 418551, Control_c, 0, 64, 57
1, 418565, Note_on_c, 0, 64, 47
1, 418566, Control_c, 0, 64, 74
1, 418568, Note_on_c, 0, 58, 48
1, 418578, Note_on_c, 0, 55, 41
1, 418581, Control_c, 0, 64, 127
1, 418612, Note_off_c, 0, 58, 60
1, 418614, Note_off_c, 0, 64, 57
1, 418620, Note_off_c, 0, 55, 48
1, 418696, Note_off_c, 0, 48, 40
1, 418712, Note_on_c, 0, 58, 48
1, 418716, Note_on_c, 0, 55, 17
1, 418718, Note_on_c, 0, 64, 44
1, 418753, Note_off_c, 0, 58, 62
1, 418754, Note_off_c, 0, 55, 56
1, 418762, Note_off_c, 0, 36, 39
1, 418775, Note_off_c, 0, 64, 60
1, 418825, Note_on_c, 0, 37, 53
1, 418828, Note_on_c, 0, 49, 53
1, 418862, Note_off_c, 0, 37, 62
1, 418864, Note_off_c, 0, 49, 57
1, 418934, Note_on_c, 0, 49, 58
1, 418944, Note_on_c, 0, 37, 50
1, 419036, Note_on_c, 0, 76, 42
1, 419037, Note_on_c, 0, 67, 47
1, 419038, Note_on_c, 0, 70, 43
1, 419063, Note_off_c, 0, 76, 56
1, 419064, Note_off_c, 0, 70, 55
1, 419066, Note_off_c, 0, 67, 53
1, 419072, Note_off_c, 0, 37, 53
1, 419087, Note_off_c, 0, 49, 55
1, 419123, Note_on_c, 0, 67, 47
1, 419124, Note_on_c, 0, 70, 56
1, 419126, Note_on_c, 0, 76, 63
1, 419151, Note_off_c, 0, 67, 59
1, 419168, Note_off_c, 0, 70, 58
1, 419195, Note_off_c, 0, 76, 62
1, 419212, Note_on_c, 0, 36, 52
1, 419214, Note_on_c, 0, 48, 51
1, 419244, Note_off_c, 0, 36, 57
1, 419248, Note_off_c, 0, 48, 50
1, 419310, Note_on_c, 0, 48, 59
1, 419320, Note_on_c, 0, 36, 55
1, 419399, Note_on_c, 0, 88, 70
1, 419400, Note_on_c, 0, 82, 67
1, 419403, Note_off_c, 0, 48, 59
1, 419405, Note_on_c, 0, 79, 57
1, 419414, Note_off_c, 0, 88, 70
1, 419417, Note_off_c, 0, 82, 68
1, 419425, Note_off_c, 0, 79, 62
1, 419432, Note_off_c, 0, 36, 58
1, 419478, Note_on_c, 0, 88, 62
1, 419485, Note_on_c, 0, 79, 54
1, 419488, Note_on_c, 0, 82, 64
1, 419496, Note_off_c, 0, 88, 67
1, 419506, Note_off_c, 0, 79, 62
1, 419507, Note_off_c, 0, 82, 67
1, 419552, Note_on_c, 0, 47, 57
1, 419556, Note_on_c, 0, 35, 51
1, 419576, Note_off_c, 0, 47, 62
1, 419585, Note_off_c, 0, 35, 55
1, 419654, Note_on_c, 0, 35, 54
1, 419654, Note_on_c, 0, 47, 62
1, 419747, Note_on_c, 0, 58, 52
1, 419755, Note_on_c, 0, 55, 41
1, 419764, Note_on_c, 0, 64, 22
1, 419771, Note_off_c, 0, 58, 57
1, 419779, Note_off_c, 0, 47, 55
1, 419785, Note_off_c, 0, 35, 64
1, 419812, Note_off_c, 0, 55, 0
1, 419816, Note_off_c, 0, 64, 0
1, 419816, Note_on_c, 0, 64, 44
1, 419826, Note_on_c, 0, 55, 41
1, 419841, Note_on_c, 0, 58, 59
1, 419881, Note_off_c, 0, 55, 60
1, 419888, Note_on_c, 0, 34, 72
1, 419898, Note_off_c, 0, 58, 62
1, 419903, Note_on_c, 0, 46, 57
1, 419921, Note_off_c, 0, 64, 61
1, 419925, Note_off_c, 0, 34, 63
1, 419928, Note_off_c, 0, 46, 59
1, 419930, Control_c, 0, 64, 91
1, 419945, Control_c, 0, 64, 66
1, 419959, Control_c, 0, 64, 52
1, 419974, Control_c, 0, 64, 23
1, 419989, Control_c, 0, 64, 0
1, 419993, Note_on_c, 0, 34, 73
1, 419996, Note_on_c, 0, 46, 73
1, 420019, Control_c, 0, 64, 23
1, 420033, Control_c, 0, 64, 44
1, 420049, Control_c, 0, 64, 62
1, 420064, Control_c, 0, 64, 107
1, 420071, Note_on_c, 0, 65, 63
1, 420077, Note_on_c, 0, 56, 58
1, 420080, Control_c, 0, 64, 127
1, 420081, Note_on_c, 0, 61, 53
1, 420100, Note_off_c, 0, 56, 58
1, 420103, Note_off_c, 0, 61, 64
1, 420105, Note_off_c, 0, 65, 66
1, 420110, Note_off_c, 0, 46, 62
1, 420116, Note_off_c, 0, 34, 61
1, 420153, Note_on_c, 0, 65, 71
1, 420159, Note_on_c, 0, 56, 53
1, 420178, Note_on_c, 0, 61, 52
1, 420184, Note_off_c, 0, 56, 64
1, 420197, Note_off_c, 0, 61, 66
1, 420215, Note_off_c, 0, 65, 65
1, 420224, Note_on_c, 0, 45, 64
1, 420226, Note_on_c, 0, 33, 62
1, 420253, Note_off_c, 0, 45, 65
1, 420258, Note_off_c, 0, 33, 65
1, 420326, Note_on_c, 0, 45, 73
1, 420336, Note_on_c, 0, 33, 69
1, 420415, Note_on_c, 0, 73, 64
1, 420417, Note_on_c, 0, 68, 65
1, 420420, Note_on_c, 0, 77, 50
1, 420435, Note_off_c, 0, 73, 66
1, 420436, Note_off_c, 0, 68, 62
1, 420446, Note_off_c, 0, 77, 59
1, 420455, Note_off_c, 0, 45, 61
1, 420461, Note_off_c, 0, 33, 62
1, 420493, Note_on_c, 0, 77, 76
1, 420503, Note_on_c, 0, 68, 55
1, 420504, Note_on_c, 0, 73, 69
1, 420526, Note_off_c, 0, 73, 68
1, 420529, Note_off_c, 0, 68, 55
1, 420553, Note_off_c, 0, 77, 63
1, 420558, Note_on_c, 0, 44, 65
1, 420560, Note_on_c, 0, 32, 60
1, 420587, Note_off_c, 0, 32, 57
1, 420588, Note_off_c, 0, 44, 62
1, 420641, Note_on_c, 0, 32, 73
1, 420643, Note_on_c, 0, 44, 76
1, 420694, Note_off_c, 0, 32, 61
1, 420699, Note_off_c, 0, 44, 61
1, 420718, Note_on_c, 0, 89, 77
1, 420718, Note_on_c, 0, 85, 75
1, 420721, Note_on_c, 0, 80, 77
1, 420739, Note_off_c, 0, 80, 68
1, 420741, Note_off_c, 0, 85, 66
1, 420744, Note_off_c, 0, 89, 62
1, 420785, Note_on_c, 0, 89, 70
1, 420786, Note_on_c, 0, 80, 84
1, 420796, Note_on_c, 0, 85, 70
1, 420808, Note_off_c, 0, 89, 68
1, 420819, Note_off_c, 0, 85, 68
1, 420824, Note_off_c, 0, 80, 66
1, 420852, Note_on_c, 0, 49, 75
1, 420853, Note_on_c, 0, 37, 67
1, 420874, Note_off_c, 0, 49, 67
1, 420876, Note_off_c, 0, 37, 61
1, 420931, Note_on_c, 0, 49, 84
1, 420940, Note_on_c, 0, 37, 77
1, 420980, Note_off_c, 0, 37, 63
1, 420988, Note_off_c, 0, 49, 64
1, 421018, Note_on_c, 0, 56, 71
1, 421035, Note_on_c, 0, 59, 59
1, 421043, Note_off_c, 0, 56, 65
1, 421051, Note_on_c, 0, 65, 36
1, 421062, Note_off_c, 0, 59, 65
1, 421090, Poly_aftertouch_c, 0, 58, 127
1, 421093, Note_off_c, 0, 65, 0
1, 421093, Note_on_c, 0, 65, 42
1, 421106, Note_on_c, 0, 56, 72
1, 421114, Note_on_c, 0, 59, 69
1, 421132, Poly_aftertouch_c, 0, 58, 0
1, 421155, Note_off_c, 0, 56, 55
1, 421155, Note_off_c, 0, 59, 60
1, 421159, Note_on_c, 0, 38, 73
1, 421162, Note_on_c, 0, 50, 73
1, 421177, Control_c, 0, 64, 113
1, 421177, Note_off_c, 0, 65, 62
1, 421188, Note_off_c, 0, 50, 65
1, 421191, Note_off_c, 0, 38, 64
1, 421192, Control_c, 0, 64, 82
1, 421206, Control_c, 0, 64, 65
1, 421221, Control_c, 0, 64, 51
1, 421236, Control_c, 0, 64, 11
1, 421248, Note_on_c, 0, 50, 78
1, 421251, Note_on_c, 0, 38, 73
1, 421251, Control_c, 0, 64, 0
1, 421310, Control_c, 0, 64, 14
1, 421313, Note_on_c, 0, 66, 68
1, 421320, Note_on_c, 0, 57, 61
1, 421322, Note_on_c, 0, 60, 60
1, 421325, Control_c, 0, 64, 37
1, 421334, Note_off_c, 0, 66, 65
1, 421339, Control_c, 0, 64, 54
1, 421341, Note_off_c, 0, 38, 58
1, 421353, Note_off_c, 0, 57, 47
1, 421354, Control_c, 0, 64, 71
1, 421358, Note_off_c, 0, 50, 57
1, 421369, Control_c, 0, 64, 127
1, 421370, Note_off_c, 0, 60, 0
1, 421380, Note_on_c, 0, 60, 62
1, 421386, Note_on_c, 0, 57, 57
1, 421391, Note_on_c, 0, 66, 85
1, 421414, Note_off_c, 0, 57, 65
1, 421426, Note_off_c, 0, 60, 64
1, 421449, Note_off_c, 0, 66, 62
1, 421466, Note_on_c, 0, 39, 64
1, 421466, Note_on_c, 0, 51, 71
1, 421490, Note_off_c, 0, 39, 62
1, 421497, Note_off_c, 0, 51, 67
1, 421553, Note_on_c, 0, 51, 85
1, 421555, Note_on_c, 0, 39, 78
1, 421621, Note_on_c, 0, 78, 82
1, 421626, Note_on_c, 0, 69, 69
1, 421630, Note_on_c, 0, 72, 64
1, 421637, Note_off_c, 0, 39, 62
1, 421641, Note_off_c, 0, 78, 74
1, 421643, Note_off_c, 0, 51, 60
1, 421652, Note_off_c, 0, 72, 66
1, 421654, Note_off_c, 0, 69, 67
1, 421703, Note_on_c, 0, 78, 85
1, 421710, Note_on_c, 0, 69, 52
1, 421718, Note_on_c, 0, 72, 64
1, 421731, Note_off_c, 0, 69, 64
1, 421737, Note_off_c, 0, 72, 66
1, 421756, Note_on_c, 0, 50, 73
1, 421764, Note_on_c, 0, 38, 63
1, 421764, Note_off_c, 0, 78, 66
1, 421794, Note_off_c, 0, 50, 63
1, 421807, Note_off_c, 0, 38, 63
1, 421853, Note_on_c, 0, 50, 83
1, 421860, Note_on_c, 0, 38, 73
1, 421928, Note_on_c, 0, 81, 75
1, 421929, Note_on_c, 0, 90, 81
1, 421949, Note_on_c, 0, 84, 49
1, 421950, Note_off_c, 0, 90, 73
1, 421951, Note_off_c, 0, 81, 70
1, 421966, Note_off_c, 0, 50, 59
1, 421970, Note_off_c, 0, 38, 59
1, 421973, Note_off_c, 0, 84, 57
1, 421991, Note_on_c, 0, 83, 2
1, 421995, Note_on_c, 0, 90, 97
1, 421999, Note_on_c, 0, 81, 81
1, 422009, Note_on_c, 0, 84, 71
1, 422027, Note_off_c, 0, 90, 71
1, 422032, Note_off_c, 0, 84, 69
1, 422033, Note_off_c, 0, 81, 64
1, 422039, Note_off_c, 0, 83, 46
1, 422065, Note_on_c, 0, 49, 80
1, 422068, Note_on_c, 0, 37, 76
1, 422094, Note_off_c, 0, 49, 62
1, 422100, Note_off_c, 0, 37, 65
1, 422154, Note_on_c, 0, 49, 86
1, 422155, Note_on_c, 0, 37, 85
1, 422217, Note_on_c, 0, 57, 75
1, 422222, Note_on_c, 0, 60, 72
1, 422224, Note_on_c, 0, 66, 64
1, 422232, Note_off_c, 0, 49, 63
1, 422235, Note_off_c, 0, 37, 61
1, 422244, Note_off_c, 0, 66, 63
1, 422244, Note_off_c, 0, 57, 63
1, 422250, Note_off_c, 0, 60, 66
1, 422292, Note_on_c, 0, 66, 90
1, 422301, Note_on_c, 0, 57, 65
1, 422313, Note_on_c, 0, 60, 53
1, 422339, Control_c, 0, 64, 82
1, 422347, Note_off_c, 0, 60, 63
1, 422354, Note_on_c, 0, 48, 81
1, 422354, Control_c, 0, 64, 63
1, 422356, Note_on_c, 0, 36, 75
1, 422368, Note_off_c, 0, 57, 59
1, 422369, Control_c, 0, 64, 45
1, 422379, Note_off_c, 0, 48, 68
1, 422384, Control_c, 0, 64, 0
1, 422387, Note_off_c, 0, 36, 65
1, 422393, Note_off_c, 0, 66, 60
1, 422438, Note_on_c, 0, 48, 87
1, 422441, Note_on_c, 0, 36, 79
1, 422443, Control_c, 0, 64, 20
1, 422459, Control_c, 0, 64, 41
1, 422473, Control_c, 0, 64, 57
1, 422488, Control_c, 0, 64, 75
1, 422503, Note_on_c, 0, 58, 77
1, 422503, Control_c, 0, 64, 127
1, 422510, Note_on_c, 0, 63, 66
1, 422510, Note_on_c, 0, 67, 71
1, 422536, Note_off_c, 0, 58, 67
1, 422546, Note_off_c, 0, 67, 69
1, 422547, Note_off_c, 0, 63, 68
1, 422567, Note_off_c, 0, 48, 62
1, 422585, Note_off_c, 0, 36, 62
1, 422595, Note_on_c, 0, 58, 59
1, 422597, Note_on_c, 0, 63, 72
1, 422597, Note_on_c, 0, 67, 79
1, 422614, Note_off_c, 0, 58, 66
1, 422626, Note_off_c, 0, 63, 62
1, 422643, Note_off_c, 0, 67, 66
1, 422658, Note_on_c, 0, 47, 82
1, 422661, Note_on_c, 0, 35, 77
1, 422690, Note_off_c, 0, 47, 64
1, 422697, Note_off_c, 0, 35, 63
1, 422748, Note_on_c, 0, 47, 86
1, 422754, Note_on_c, 0, 35, 79
1, 422810, Note_on_c, 0, 75, 75
1, 422817, Note_on_c, 0, 70, 68
1, 422819, Note_on_c, 0, 79, 57
1, 422835, Note_off_c, 0, 70, 65
1, 422837, Note_off_c, 0, 75, 65
1, 422842, Note_off_c, 0, 79, 61
1, 422865, Note_off_c, 0, 35, 63
1, 422869, Note_off_c, 0, 47, 62
1, 422883, Note_on_c, 0, 79, 81
1, 422886, Note_on_c, 0, 70, 66
1, 422893, Note_on_c, 0, 75, 67
1, 422900, Note_off_c, 0, 70, 69
1, 422916, Note_off_c, 0, 75, 66
1, 422933, Note_off_c, 0, 79, 65
1, 422955, Note_on_c, 0, 46, 85
1, 422959, Note_on_c, 0, 34, 79
1, 422981, Note_off_c, 0, 46, 67
1, 422989, Note_off_c, 0, 34, 65
1, 423039, Note_on_c, 0, 46, 95
1, 423040, Note_on_c, 0, 34, 90
1, 423073, Control_c, 0, 67, 126
1, 423083, Note_on_c, 0, 91, 87
1, 423084, Note_on_c, 0, 87, 85
1, 423085, Note_on_c, 0, 82, 86
1, 423088, Control_c, 0, 67, 84
1, 423096, Note_off_c, 0, 34, 64
1, 423099, Note_off_c, 0, 46, 62
1, 423102, Control_c, 0, 67, 36
1, 423103, Note_off_c, 0, 82, 73
1, 423104, Note_off_c, 0, 91, 62
1, 423106, Note_off_c, 0, 87, 66
1, 423117, Control_c, 0, 67, 0
1, 423152, Note_on_c, 0, 91, 85
1, 423156, Note_on_c, 0, 87, 76
1, 423158, Note_on_c, 0, 82, 81
1, 423171, Note_off_c, 0, 91, 66
1, 423179, Note_off_c, 0, 87, 70
1, 423189, Note_off_c, 0, 82, 64
1, 423226, Note_on_c, 0, 51, 88
1, 423234, Note_on_c, 0, 39, 69
1, 423250, Note_off_c, 0, 51, 68
1, 423259, Note_off_c, 0, 39, 63
1, 423323, Note_on_c, 0, 51, 91
1, 423326, Note_on_c, 0, 39, 86
1, 423376, Note_on_c, 0, 61, 66
1, 423379, Note_on_c, 0, 67, 60
1, 423383, Note_off_c, 0, 39, 62
1, 423385, Note_off_c, 0, 51, 61
1, 423393, Note_on_c, 0, 58, 42
1, 423398, Note_off_c, 0, 67, 67
1, 423404, Note_off_c, 0, 61, 67
1, 423440, Note_off_c, 0, 58, 0
1, 423440, Note_on_c, 0, 58, 42
1, 423442, Note_on_c, 0, 67, 75
1, 423464, Note_on_c, 0, 61, 62
1, 423494, Note_off_c, 0, 61, 66
1, 423504, Note_off_c, 0, 58, 61
1, 423512, Note_off_c, 0, 67, 64
1, 423519, Note_on_c, 0, 52, 81
1, 423525, Note_on_c, 0, 40, 72
1, 423541, Control_c, 0, 64, 99
1, 423543, Note_off_c, 0, 52, 70
1, 423556, Control_c, 0, 64, 62
1, 423558, Note_off_c, 0, 40, 67
1, 423570, Control_c, 0, 64, 30
1, 423585, Control_c, 0, 64, 0
1, 423607, Note_on_c, 0, 52, 84
1, 423611, Note_on_c, 0, 40, 78
1, 423645, Control_c, 0, 64, 28
1, 423659, Control_c, 0, 64, 49
1, 423668, Note_on_c, 0, 68, 68
1, 423669, Note_on_c, 0, 62, 69
1, 423670, Note_on_c, 0, 59, 67
1, 423674, Control_c, 0, 64, 68
1, 423687, Note_off_c, 0, 68, 63
1, 423689, Control_c, 0, 64, 127
1, 423693, Note_off_c, 0, 40, 61
1, 423700, Note_off_c, 0, 62, 62
1, 423707, Note_off_c, 0, 52, 61
1, 423722, Note_off_c, 0, 59, 0
1, 423746, Poly_aftertouch_c, 0, 59, 0
1, 423747, Note_on_c, 0, 62, 54
1, 423747, Note_on_c, 0, 68, 82
1, 423767, Note_off_c, 0, 62, 64
1, 423793, Note_off_c, 0, 68, 59
1, 423806, Note_on_c, 0, 41, 73
1, 423806, Note_on_c, 0, 53, 69
1, 423835, Note_off_c, 0, 53, 69
1, 423836, Note_off_c, 0, 41, 67
1, 423898, Note_on_c, 0, 41, 73
1, 423898, Note_on_c, 0, 53, 78
1, 423970, Note_on_c, 0, 80, 71
1, 423976, Note_on_c, 0, 71, 58
1, 423985, Note_off_c, 0, 80, 67
1, 423987, Note_on_c, 0, 74, 42
1, 423995, Note_off_c, 0, 71, 65
1, 423999, Note_off_c, 0, 53, 63
1, 424014, Note_off_c, 0, 41, 59
1, 424032, Note_off_c, 0, 74, 0
1, 424048, Note_on_c, 0, 74, 52
1, 424050, Note_on_c, 0, 80, 83
1, 424061, Note_on_c, 0, 71, 47
1, 424077, Note_off_c, 0, 74, 68
1, 424085, Note_off_c, 0, 71, 60
1, 424107, Note_off_c, 0, 80, 63
1, 424119, Note_on_c, 0, 52, 75
1, 424124, Note_on_c, 0, 40, 69
1, 424143, Note_off_c, 0, 52, 68
1, 424156, Note_off_c, 0, 40, 66
1, 424204, Note_on_c, 0, 52, 79
1, 424213, Note_on_c, 0, 40, 78
1, 424269, Note_on_c, 0, 83, 65
1, 424269, Note_on_c, 0, 86, 73
1, 424274, Note_on_c, 0, 92, 63
1, 424292, Note_off_c, 0, 52, 64
1, 424292, Note_off_c, 0, 83, 65
1, 424294, Note_off_c, 0, 92, 64
1, 424296, Note_off_c, 0, 86, 59
1, 424299, Note_off_c, 0, 40, 62
1, 424324, Note_on_c, 0, 92, 86
1, 424337, Note_on_c, 0, 83, 64
1, 424355, Note_off_c, 0, 92, 64
1, 424359, Note_off_c, 0, 83, 68
1, 424360, Poly_aftertouch_c, 0, 86, 0
1, 424390, Note_on_c, 0, 39, 78
1, 424391, Note_on_c, 0, 51, 78
1, 424422, Note_off_c, 0, 51, 62
1, 424423, Note_off_c, 0, 39, 61
1, 424487, Note_on_c, 0, 39, 78
1, 424489, Note_on_c, 0, 51, 77
1, 424538, Note_on_c, 0, 59, 73
1, 424540, Note_on_c, 0, 62, 68
1, 424544, Note_off_c, 0, 51, 61
1, 424546, Note_off_c, 0, 39, 63
1, 424548, Note_on_c, 0, 68, 48
1, 424566, Note_off_c, 0, 59, 64
1, 424572, Note_off_c, 0, 62, 62
1, 424596, Note_off_c, 0, 68, 0
1, 424605, Note_on_c, 0, 68, 68
1, 424625, Note_on_c, 0, 62, 52
1, 424635, Note_on_c, 0, 59, 53
1, 424655, Note_off_c, 0, 62, 55
1, 424656, Note_off_c, 0, 59, 60
1, 424669, Note_on_c, 0, 50, 75
1, 424674, Note_on_c, 0, 38, 70
1, 424687, Note_off_c, 0, 68, 60
1, 424690, Control_c, 0, 64, 99
1, 424696, Note_off_c, 0, 50, 66
1, 424705, Control_c, 0, 64, 61
1, 424709, Note_off_c, 0, 38, 64
1, 424720, Control_c, 0, 64, 35
1, 424735, Control_c, 0, 64, 0
1, 424757, Note_on_c, 0, 50, 82
1, 424773, Note_on_c, 0, 38, 79
1, 424787, Control_c, 0, 64, 30
1, 424801, Control_c, 0, 64, 50
1, 424816, Control_c, 0, 64, 76
1, 424831, Control_c, 0, 64, 127
1, 424834, Note_on_c, 0, 71, 70
1, 424835, Note_on_c, 0, 62, 73
1, 424842, Note_on_c, 0, 68, 55
1, 424857, Note_off_c, 0, 71, 66
1, 424864, Note_off_c, 0, 62, 63
1, 424866, Note_off_c, 0, 68, 58
1, 424873, Note_off_c, 0, 50, 58
1, 424878, Note_off_c, 0, 38, 59
1, 424913, Note_on_c, 0, 71, 79
1, 424916, Poly_aftertouch_c, 0, 62, 0
1, 424921, Note_on_c, 0, 68, 65
1, 424948, Note_off_c, 0, 68, 66
1, 424959, Note_off_c, 0, 71, 64
1, 424972, Note_on_c, 0, 49, 76
1, 424974, Note_on_c, 0, 37, 73
1, 424998, Note_off_c, 0, 49, 69
1, 425005, Note_off_c, 0, 37, 65
1, 425065, Note_on_c, 0, 49, 90
1, 425067, Note_on_c, 0, 37, 83
1, 425125, Note_on_c, 0, 80, 71
1, 425126, Note_on_c, 0, 83, 70
1, 425129, Note_on_c, 0, 74, 60
1, 425149, Note_off_c, 0, 80, 69
1, 425150, Note_off_c, 0, 83, 70
1, 425153, Note_off_c, 0, 74, 65
1, 425171, Note_off_c, 0, 37, 62
1, 425171, Note_off_c, 0, 49, 61
1, 425198, Note_on_c, 0, 74, 56
1, 425201, Note_on_c, 0, 80, 74
1, 425201, Note_on_c, 0, 83, 79
1, 425219, Note_off_c, 0, 74, 64
1, 425234, Note_off_c, 0, 80, 59
1, 425247, Note_off_c, 0, 83, 65
1, 425258, Note_on_c, 0, 48, 78
1, 425263, Note_on_c, 0, 36, 68
1, 425288, Note_off_c, 0, 48, 67
1, 425293, Note_off_c, 0, 36, 62
1, 425351, Note_on_c, 0, 48, 84
1, 425358, Note_on_c, 0, 36, 77
1, 425399, Note_on_c, 0, 95, 81
1, 425403, Note_on_c, 0, 92, 73
1, 425407, Note_on_c, 0, 86, 64
1, 425419, Note_off_c, 0, 92, 70
1, 425420, Note_off_c, 0, 95, 71
1, 425427, Note_off_c, 0, 86, 64
1, 425439, Note_off_c, 0, 48, 64
1, 425448, Note_off_c, 0, 36, 62
1, 425463, Note_on_c, 0, 95, 97
1, 425466, Note_on_c, 0, 86, 69
1, 425466, Note_on_c, 0, 92, 88
1, 425487, Note_off_c, 0, 95, 66
1, 425493, Note_off_c, 0, 86, 64
1, 425493, Note_off_c, 0, 92, 66
1, 425533, Note_on_c, 0, 47, 83
1, 425539, Note_on_c, 0, 35, 75
1, 425563, Note_off_c, 0, 35, 68
1, 425566, Note_off_c, 0, 47, 63
1, 425616, Note_on_c, 0, 47, 82
1, 425620, Note_on_c, 0, 35, 81
1, 425646, Note_off_c, 0, 35, 69
1, 425660, Note_off_c, 0, 47, 66
1, 425687, Note_on_c, 0, 71, 69
1, 425692, Note_on_c, 0, 62, 74
1, 425694, Note_on_c, 0, 68, 62
1, 425703, Note_off_c, 0, 71, 71
1, 425715, Note_off_c, 0, 68, 60
1, 425717, Note_off_c, 0, 62, 65
1, 425761, Note_on_c, 0, 71, 79
1, 425767, Note_on_c, 0, 62, 69
1, 425769, Note_on_c, 0, 68, 76
1, 425805, Note_off_c, 0, 62, 61
1, 425824, Note_off_c, 0, 68, 60
1, 425833, Note_off_c, 0, 71, 62
1, 425842, Note_on_c, 0, 52, 82
1, 425844, Note_on_c, 0, 40, 78
1, 425861, Control_c, 0, 64, 73
1, 425863, Note_off_c, 0, 52, 73
1, 425873, Note_off_c, 0, 40, 69
1, 425876, Control_c, 0, 64, 47
1, 425891, Control_c, 0, 64, 0
1, 425916, Note_on_c, 0, 52, 91
1, 425919, Note_on_c, 0, 40, 79
1, 425935, Control_c, 0, 64, 20
1, 425950, Control_c, 0, 64, 51
1, 425965, Control_c, 0, 64, 82
1, 425980, Control_c, 0, 64, 127
1, 425981, Note_on_c, 0, 62, 80
1, 425986, Note_on_c, 0, 71, 68
1, 425990, Note_on_c, 0, 68, 65
1, 425997, Note_off_c, 0, 40, 63
1, 426001, Note_off_c, 0, 62, 71
1, 426003, Note_off_c, 0, 71, 70
1, 426006, Note_off_c, 0, 52, 64
1, 426010, Note_off_c, 0, 68, 61
1, 426054, Note_on_c, 0, 74, 60
1, 426057, Note_on_c, 0, 62, 74
1, 426065, Note_on_c, 0, 71, 76
1, 426067, Note_on_c, 0, 68, 79
1, 426076, Note_off_c, 0, 62, 73
1, 426107, Note_off_c, 0, 68, 56
1, 426113, Note_off_c, 0, 71, 61
1, 426113, Note_on_c, 0, 53, 82
1, 426116, Note_on_c, 0, 41, 78
1, 426122, Note_off_c, 0, 74, 66
1, 426135, Note_off_c, 0, 53, 72
1, 426141, Note_off_c, 0, 41, 67
1, 426196, Note_on_c, 0, 41, 78
1, 426196, Note_on_c, 0, 53, 85
1, 426256, Note_on_c, 0, 74, 81
1, 426256, Note_on_c, 0, 83, 80
1, 426259, Note_on_c, 0, 80, 78
1, 426283, Note_off_c, 0, 74, 74
1, 426283, Note_off_c, 0, 83, 71
1, 426286, Note_off_c, 0, 80, 70
1, 426296, Note_off_c, 0, 53, 64
1, 426302, Note_on_c, 0, 86, 21
1, 426312, Note_off_c, 0, 41, 61
1, 426334, Note_on_c, 0, 74, 80
1, 426339, Note_on_c, 0, 80, 82
1, 426339, Note_on_c, 0, 83, 81
1, 426355, Note_off_c, 0, 74, 66
1, 426385, Note_off_c, 0, 80, 64
1, 426391, Note_off_c, 0, 83, 62
1, 426396, Note_on_c, 0, 52, 89
1, 426400, Note_on_c, 0, 40, 86
1, 426408, Note_off_c, 0, 86, 58
1, 426432, Note_off_c, 0, 40, 66
1, 426436, Note_off_c, 0, 52, 64
1, 426498, Note_on_c, 0, 52, 90
1, 426503, Note_on_c, 0, 40, 85
1, 426548, Note_on_c, 0, 95, 84
1, 426552, Note_on_c, 0, 86, 77
1, 426553, Note_on_c, 0, 92, 75
1, 426564, Note_on_c, 0, 98, 54
1, 426568, Note_off_c, 0, 92, 70
1, 426568, Note_off_c, 0, 95, 72
1, 426574, Note_off_c, 0, 86, 68
1, 426578, Note_off_c, 0, 52, 64
1, 426587, Note_off_c, 0, 40, 62
1, 426587, Note_off_c, 0, 98, 63
1, 426611, Note_on_c, 0, 86, 90
1, 426615, Note_on_c, 0, 95, 93
1, 426619, Note_on_c, 0, 92, 87
1, 426647, Note_on_c, 0, 98, 12
1, 426650, Note_off_c, 0, 95, 63
1, 426653, Note_off_c, 0, 98, 36
1, 426653, Note_off_c, 0, 92, 61
1, 426656, Note_off_c, 0, 86, 62
1, 426670, Note_on_c, 0, 51, 94
1, 426674, Note_on_c, 0, 39, 84
1, 426706, Note_off_c, 0, 39, 64
1, 426709, Note_off_c, 0, 51, 59
1, 426773, Note_on_c, 0, 51, 98
1, 426775, Note_on_c, 0, 39, 89
1, 426813, Note_on_c, 0, 62, 85
1, 426820, Note_on_c, 0, 68, 70
1, 426829, Note_on_c, 0, 71, 47
1, 426831, Note_off_c, 0, 39, 62
1, 426832, Note_off_c, 0, 62, 71
1, 426834, Note_off_c, 0, 51, 63
1, 426838, Note_off_c, 0, 68, 64
1, 426854, Note_off_c, 0, 71, 61
1, 426884, Note_on_c, 0, 62, 86
1, 426897, Note_on_c, 0, 74, 70
1, 426901, Note_on_c, 0, 68, 76
1, 426905, Note_on_c, 0, 71, 55
1, 426911, Note_on_c, 0, 72, 50
1, 426944, Note_on_c, 0, 50, 90
1, 426948, Note_on_c, 0, 38, 82
1, 426951, Note_off_c, 0, 62, 54
1, 426951, Control_c, 0, 64, 79
1, 426958, Note_off_c, 0, 72, 56
1, 426962, Note_off_c, 0, 71, 59
1, 426966, Control_c, 0, 64, 43
1, 426969, Note_off_c, 0, 50, 66
1, 426977, Note_off_c, 0, 68, 60
1, 426981, Note_off_c, 0, 38, 65
1, 426981, Control_c, 0, 64, 0
1, 426986, Note_off_c, 0, 74, 60
1, 427039, Note_on_c, 0, 50, 98
1, 427043, Note_on_c, 0, 38, 91
1, 427047, Control_c, 0, 64, 23
1, 427062, Control_c, 0, 64, 106
1, 427076, Control_c, 0, 64, 127
1, 427103, Note_on_c, 0, 71, 78
1, 427103, Note_on_c, 0, 65, 83
1, 427109, Note_on_c, 0, 68, 70
1, 427122, Note_off_c, 0, 65, 74
1, 427128, Note_on_c, 0, 77, 49
1, 427130, Note_off_c, 0, 50, 60
1, 427136, Note_off_c, 0, 71, 62
1, 427138, Note_off_c, 0, 68, 63
1, 427140, Note_off_c, 0, 38, 63
1, 427171, Note_off_c, 0, 77, 0
1, 427173, Note_on_c, 0, 71, 71
1, 427177, Note_on_c, 0, 65, 76
1, 427183, Note_on_c, 0, 77, 63
1, 427189, Note_on_c, 0, 68, 85
1, 427201, Note_off_c, 0, 65, 68
1, 427210, Note_off_c, 0, 68, 66
1, 427224, Note_on_c, 0, 49, 91
1, 427228, Note_on_c, 0, 37, 85
1, 427231, Note_off_c, 0, 71, 66
1, 427249, Note_off_c, 0, 77, 63
1, 427262, Note_off_c, 0, 37, 64
1, 427269, Note_off_c, 0, 49, 61
1, 427326, Note_on_c, 0, 49, 100
1, 427330, Note_on_c, 0, 37, 90
1, 427385, Note_on_c, 0, 77, 93
1, 427389, Note_on_c, 0, 80, 85
1, 427401, Note_on_c, 0, 89, 58
1, 427404, Note_off_c, 0, 77, 70
1, 427407, Note_off_c, 0, 80, 72
1, 427412, Poly_aftertouch_c, 0, 48, 127
1, 427422, Note_off_c, 0, 89, 63
1, 427422, Note_off_c, 0, 49, 65
1, 427425, Note_off_c, 0, 37, 61
1, 427431, Note_on_c, 0, 88, 10
1, 427454, Poly_aftertouch_c, 0, 48, 0
1, 427465, Note_on_c, 0, 80, 92
1, 427466, Note_on_c, 0, 89, 93
1, 427468, Note_on_c, 0, 77, 84
1, 427471, Note_off_c, 0, 88, 56
1, 427499, Note_off_c, 0, 77, 59
1, 427512, Note_off_c, 0, 80, 65
1, 427515, Note_on_c, 0, 48, 98
1, 427517, Note_on_c, 0, 36, 85
1, 427532, Note_off_c, 0, 89, 65
1, 427549, Note_off_c, 0, 48, 63
1, 427556, Note_off_c, 0, 36, 63
1, 427619, Note_on_c, 0, 48, 105
1, 427627, Note_on_c, 0, 36, 89
1, 427691, Note_on_c, 0, 89, 94
1, 427694, Note_on_c, 0, 101, 98
1, 427697, Note_on_c, 0, 92, 91
1, 427711, Note_off_c, 0, 89, 67
1, 427714, Note_off_c, 0, 92, 72
1, 427719, Note_off_c, 0, 101, 64
1, 427730, Note_off_c, 0, 48, 62
1, 427734, Note_on_c, 0, 99, 25
1, 427735, Note_off_c, 0, 99, 127
1, 427741, Note_off_c, 0, 36, 61
1, 427783, Note_on_c, 0, 101, 96
1, 427785, Note_on_c, 0, 89, 102
1, 427786, Note_on_c, 0, 92, 96
1, 427848, Note_on_c, 0, 47, 96
1, 427852, Note_on_c, 0, 35, 85
1, 427872, Note_off_c, 0, 35, 69
1, 427878, Note_off_c, 0, 47, 64
1, 427879, Note_off_c, 0, 101, 59
1, 427904, Note_off_c, 0, 92, 61
1, 427913, Note_off_c, 0, 89, 60
1, 427929, Control_c, 0, 64, 58
1, 427944, Control_c, 0, 64, 0
1, 427988, Control_c, 0, 64, 34
1, 427991, Note_on_c, 0, 59, 97
1, 427995, Note_on_c, 0, 47, 98
1, 428003, Control_c, 0, 64, 60
1, 428018, Control_c, 0, 64, 127
1, 428019, Note_off_c, 0, 59, 65
1, 428024, Note_off_c, 0, 47, 64
1, 428056, Note_on_c, 0, 89, 90
1, 428056, Note_on_c, 0, 98, 86
1, 428068, Note_on_c, 0, 101, 72
1, 428072, Note_off_c, 0, 98, 75
1, 428074, Note_off_c, 0, 89, 72
1, 428087, Note_off_c, 0, 101, 63
1, 428115, Note_on_c, 0, 89, 89
1, 428134, Note_on_c, 0, 98, 70
1, 428155, Note_off_c, 0, 98, 67
1, 428174, Note_off_c, 0, 89, 64
1, 428188, Note_on_c, 0, 46, 97
1, 428190, Note_on_c, 0, 34, 89
1, 428212, Note_off_c, 0, 46, 69
1, 428221, Note_off_c, 0, 34, 65
1, 428241, Control_c, 0, 64, 75
1, 428256, Control_c, 0, 64, 55
1, 428271, Control_c, 0, 64, 46
1, 428286, Control_c, 0, 64, 54
1, 428292, Note_on_c, 0, 87, 56
1, 428301, Control_c, 0, 64, 72
1, 428305, Note_on_c, 0, 58, 101
1, 428307, Note_on_c, 0, 46, 100
1, 428313, Note_off_c, 0, 87, 58
1, 428315, Control_c, 0, 64, 127
1, 428329, Note_off_c, 0, 46, 64
1, 428334, Note_off_c, 0, 58, 61
1, 428373, Note_on_c, 0, 77, 76
1, 428373, Note_on_c, 0, 86, 75
1, 428391, Note_off_c, 0, 77, 69
1, 428396, Note_off_c, 0, 86, 68
1, 428432, Note_on_c, 0, 89, 56
1, 428432, Note_on_c, 0, 77, 91
1, 428438, Note_on_c, 0, 86, 81
1, 428453, Note_off_c, 0, 89, 62
1, 428460, Note_off_c, 0, 86, 65
1, 428473, Note_off_c, 0, 77, 66
1, 428505, Note_on_c, 0, 33, 93
1, 428508, Control_c, 0, 64, 95
1, 428516, Note_on_c, 0, 45, 91
1, 428530, Control_c, 0, 64, 47
1, 428531, Note_off_c, 0, 33, 69
1, 428538, Note_off_c, 0, 45, 68
1, 428545, Control_c, 0, 64, 0
1, 428575, Control_c, 0, 64, 27
1, 428590, Control_c, 0, 64, 56
1, 428604, Control_c, 0, 64, 127
1, 428613, Note_on_c, 0, 75, 41
1, 428614, Note_on_c, 0, 45, 49
1, 428620, Note_on_c, 0, 57, 103
1, 428642, Note_off_c, 0, 57, 65
1, 428642, Note_off_c, 0, 75, 51
1, 428649, Poly_aftertouch_c, 0, 33, 127
1, 428657, Note_off_c, 0, 45, 65
1, 428680, Poly_aftertouch_c, 0, 33, 0
1, 428682, Note_on_c, 0, 65, 82
1, 428688, Note_on_c, 0, 74, 69
1, 428700, Poly_aftertouch_c, 0, 46, 127
1, 428704, Note_off_c, 0, 65, 69
1, 428710, Note_off_c, 0, 74, 73
1, 428739, Poly_aftertouch_c, 0, 46, 0
1, 428742, Note_on_c, 0, 65, 80
1, 428755, Note_on_c, 0, 77, 71
1, 428756, Note_on_c, 0, 74, 71
1, 428763, Note_off_c, 0, 65, 72
1, 428784, Note_off_c, 0, 74, 69
1, 428791, Note_off_c, 0, 77, 64
1, 428811, Note_on_c, 0, 32, 92
1, 428819, Note_on_c, 0, 44, 88
1, 428835, Note_off_c, 0, 32, 66
1, 428844, Note_off_c, 0, 44, 69
1, 428923, Note_on_c, 0, 56, 99
1, 428927, Note_on_c, 0, 44, 89
1, 428942, Note_off_c, 0, 56, 69
1, 428950, Note_off_c, 0, 44, 68
1, 428979, Note_on_c, 0, 77, 91
1, 428982, Note_on_c, 0, 86, 86
1, 429000, Note_off_c, 0, 86, 71
1, 429002, Note_off_c, 0, 77, 65
1, 429022, Note_on_c, 0, 89, 11
1, 429054, Note_on_c, 0, 86, 89
1, 429056, Note_on_c, 0, 77, 65
1, 429076, Note_off_c, 0, 77, 64
1, 429079, Note_off_c, 0, 86, 65
1, 429097, Note_off_c, 0, 89, 62
1, 429120, Note_on_c, 0, 31, 94
1, 429126, Note_on_c, 0, 43, 87
1, 429141, Note_off_c, 0, 31, 67
1, 429148, Note_off_c, 0, 43, 67
1, 429228, Note_on_c, 0, 43, 77
1, 429229, Note_on_c, 0, 55, 102
1, 429249, Note_off_c, 0, 55, 69
1, 429271, Note_off_c, 0, 43, 61
1, 429293, Note_on_c, 0, 98, 94
1, 429294, Note_on_c, 0, 89, 88
1, 429309, Note_on_c, 0, 101, 67
1, 429310, Note_off_c, 0, 98, 71
1, 429311, Note_off_c, 0, 89, 73
1, 429332, Note_off_c, 0, 101, 56
1, 429350, Note_on_c, 0, 89, 93
1, 429362, Note_on_c, 0, 98, 72
1, 429387, Note_off_c, 0, 98, 67
1, 429403, Note_off_c, 0, 89, 67
1, 429427, Note_on_c, 0, 30, 91
1, 429427, Control_c, 0, 64, 64
1, 429430, Note_on_c, 0, 42, 94
1, 429442, Control_c, 0, 64, 10
1, 429452, Note_off_c, 0, 42, 70
1, 429457, Control_c, 0, 64, 0
1, 429458, Note_off_c, 0, 30, 63
1, 429471, Control_c, 0, 64, 27
1, 429486, Control_c, 0, 64, 59
1, 429501, Control_c, 0, 64, 127
1, 429536, Note_on_c, 0, 54, 104
1, 429537, Note_on_c, 0, 42, 91
1, 429553, Note_off_c, 0, 54, 73
1, 429565, Note_off_c, 0, 42, 66
1, 429590, Note_on_c, 0, 78, 98
1, 429590, Note_on_c, 0, 86, 9
1, 429601, Note_on_c, 0, 90, 81
1, 429615, Note_off_c, 0, 78, 64
1, 429619, Poly_aftertouch_c, 0, 46, 127
1, 429624, Note_off_c, 0, 90, 71
1, 429647, Poly_aftertouch_c, 0, 46, 0
1, 429657, Note_on_c, 0, 78, 90
1, 429657, Note_off_c, 0, 86, 0
1, 429657, Note_on_c, 0, 86, 33
1, 429686, Note_on_c, 0, 90, 51
1, 429689, Note_off_c, 0, 86, 60
1, 429710, Note_off_c, 0, 78, 66
1, 429711, Note_off_c, 0, 90, 63
1, 429741, Note_on_c, 0, 41, 92
1, 429743, Note_on_c, 0, 29, 84
1, 429747, Note_on_c, 0, 28, 79
1, 429763, Note_off_c, 0, 41, 69
1, 429764, Note_off_c, 0, 29, 66
1, 429769, Note_off_c, 0, 28, 63
1, 429786, Poly_aftertouch_c, 0, 77, 0
1, 429851, Note_on_c, 0, 41, 67
1, 429851, Note_on_c, 0, 53, 99
1, 429872, Note_off_c, 0, 53, 72
1, 429890, Note_off_c, 0, 41, 63
1, 429908, Note_on_c, 0, 66, 108
1, 429918, Note_on_c, 0, 78, 86
1, 429924, Note_on_c, 0, 74, 70
1, 429944, Note_off_c, 0, 78, 58
1, 429947, Note_off_c, 0, 74, 71
1, 429949, Note_off_c, 0, 66, 62
1, 429990, Note_on_c, 0, 66, 94
1, 429999, Note_on_c, 0, 78, 87
1, 430006, Note_on_c, 0, 74, 68
1, 430052, Note_off_c, 0, 74, 59
1, 430078, Note_off_c, 0, 66, 60
1, 430085, Note_on_c, 0, 40, 107
1, 430087, Note_off_c, 0, 78, 63
1, 430087, Note_on_c, 0, 28, 97
1, 430112, Note_off_c, 0, 28, 73
1, 430114, Note_off_c, 0, 40, 68
1, 430240, Note_on_c, 0, 52, 111
1, 430242, Note_on_c, 0, 40, 97
1, 430265, Control_c, 0, 64, 75
1, 430280, Control_c, 0, 64, 56
1, 430294, Control_c, 0, 64, 21
1, 430309, Control_c, 0, 64, 0
1, 430358, Note_on_c, 0, 67, 95
1, 430364, Note_on_c, 0, 73, 73
1, 430364, Note_on_c, 0, 70, 77
1, 430365, Note_on_c, 0, 79, 77
1, 430393, Note_off_c, 0, 79, 61
1, 430396, Note_off_c, 0, 67, 68
1, 430405, Note_off_c, 0, 70, 59
1, 430412, Note_off_c, 0, 73, 62
1, 430459, Note_on_c, 0, 67, 105
1, 430463, Note_on_c, 0, 73, 87
1, 430465, Note_on_c, 0, 70, 90
1, 430468, Note_on_c, 0, 79, 93
1, 430486, Note_off_c, 0, 79, 67
1, 430488, Control_c, 0, 64, 127
1, 430495, Note_off_c, 0, 40, 66
1, 430497, Note_off_c, 0, 52, 73
1, 430497, Note_off_c, 0, 67, 61
1, 430503, Note_off_c, 0, 73, 67
1, 430515, Note_off_c, 0, 70, 62
1, 431073, Control_c, 0, 64, 114
1, 431088, Control_c, 0, 64, 77
1, 431103, Control_c, 0, 64, 63
1, 431118, Control_c, 0, 64, 50
1, 431133, Control_c, 0, 64, 31
1, 431148, Control_c, 0, 64, 0
1, 431459, Control_c, 0, 64, 38
1, 431470, Note_on_c, 0, 63, 95
1, 431472, Note_on_c, 0, 51, 104
1, 431473, Note_on_c, 0, 39, 100
1, 431474, Control_c, 0, 64, 127
1, 431476, Note_on_c, 0, 27, 98
1, 431581, Note_off_c, 0, 51, 61
1, 431589, Note_off_c, 0, 39, 61
1, 431592, Note_off_c, 0, 63, 59
1, 431596, Note_off_c, 0, 27, 62
1, 431698, Note_on_c, 0, 52, 104
1, 431699, Note_on_c, 0, 64, 96
1, 431701, Note_on_c, 0, 40, 99
1, 431703, Note_on_c, 0, 28, 93
1, 431735, Note_off_c, 0, 52, 69
1, 431737, Note_off_c, 0, 40, 65
1, 431738, Note_off_c, 0, 28, 67
1, 431744, Note_off_c, 0, 64, 63
1, 431744, Note_on_c, 0, 63, 19
1, 431782, Note_off_c, 0, 63, 51
1, 431851, Note_on_c, 0, 55, 93
1, 431853, Note_on_c, 0, 43, 90
1, 431854, Note_on_c, 0, 31, 86
1, 431857, Note_on_c, 0, 67, 85
1, 431876, Note_off_c, 0, 43, 68
1, 431877, Note_off_c, 0, 55, 65
1, 431877, Note_off_c, 0, 67, 72
1, 431878, Note_off_c, 0, 31, 65
1, 431971, Note_on_c, 0, 34, 83
1, 431974, Note_on_c, 0, 46, 89
1, 431977, Note_on_c, 0, 58, 95
1, 431980, Note_on_c, 0, 70, 84
1, 431994, Note_off_c, 0, 46, 70
1, 431999, Note_off_c, 0, 58, 66
1, 432000, Note_off_c, 0, 70, 66
1, 432004, Note_off_c, 0, 34, 66
1, 432084, Note_on_c, 0, 49, 95
1, 432086, Note_on_c, 0, 37, 79
1, 432086, Note_on_c, 0, 61, 93
1, 432087, Note_on_c, 0, 73, 88
1, 432089, Control_c, 0, 64, 63
1, 432104, Control_c, 0, 64, 36
1, 432108, Note_off_c, 0, 73, 68
1, 432111, Note_off_c, 0, 61, 66
1, 432112, Note_off_c, 0, 49, 65
1, 432119, Control_c, 0, 64, 30
1, 432120, Note_off_c, 0, 37, 65
1, 432134, Control_c, 0, 64, 49
1, 432149, Control_c, 0, 64, 71
1, 432163, Control_c, 0, 64, 127
1, 432188, Note_on_c, 0, 50, 92
1, 432188, Note_on_c, 0, 62, 100
1, 432191, Note_on_c, 0, 38, 79
1, 432194, Note_on_c, 0, 74, 82
1, 432209, Note_off_c, 0, 50, 72
1, 432209, Note_off_c, 0, 62, 70
1, 432215, Note_off_c, 0, 74, 69
1, 432218, Note_off_c, 0, 38, 67
1, 432225, Note_on_c, 0, 73, 33
1, 432266, Note_off_c, 0, 73, 59
1, 432297, Note_on_c, 0, 39, 67
1, 432301, Note_on_c, 0, 63, 91
1, 432304, Note_on_c, 0, 51, 84
1, 432305, Note_on_c, 0, 75, 85
1, 432328, Note_off_c, 0, 75, 67
1, 432330, Note_off_c, 0, 39, 65
1, 432331, Note_off_c, 0, 51, 68
1, 432333, Note_off_c, 0, 63, 61
1, 432406, Note_on_c, 0, 64, 93
1, 432407, Note_on_c, 0, 52, 89
1, 432409, Note_on_c, 0, 40, 85
1, 432413, Note_on_c, 0, 76, 80
1, 432426, Note_off_c, 0, 64, 69
1, 432429, Note_off_c, 0, 52, 73
1, 432430, Note_off_c, 0, 40, 70
1, 432436, Note_off_c, 0, 76, 71
1, 432510, Note_on_c, 0, 43, 85
1, 432513, Note_on_c, 0, 67, 94
1, 432516, Note_on_c, 0, 55, 84
1, 432523, Note_on_c, 0, 79, 80
1, 432537, Note_off_c, 0, 55, 69
1, 432537, Note_off_c, 0, 67, 70
1, 432538, Note_off_c, 0, 43, 62
1, 432543, Note_off_c, 0, 79, 70
1, 432614, Note_on_c, 0, 58, 94
1, 432616, Note_on_c, 0, 70, 96
1, 432620, Note_on_c, 0, 46, 75
1, 432624, Note_on_c, 0, 82, 78
1, 432626, Poly_aftertouch_c, 0, 44, 0
1, 432632, Note_off_c, 0, 58, 71
1, 432639, Note_off_c, 0, 46, 68
1, 432639, Note_off_c, 0, 70, 62
1, 432644, Note_off_c, 0, 82, 71
1, 432717, Note_on_c, 0, 61, 93
1, 432719, Note_on_c, 0, 73, 94
1, 432723, Note_on_c, 0, 49, 81
1, 432723, Note_on_c, 0, 85, 83
1, 432746, Note_off_c, 0, 85, 62
1, 432748, Note_off_c, 0, 49, 68
1, 432751, Note_off_c, 0, 61, 54
1, 432753, Note_off_c, 0, 73, 59
1, 432793, Control_c, 0, 64, 69
1, 432807, Control_c, 0, 64, 33
1, 432816, Note_on_c, 0, 74, 101
1, 432817, Note_on_c, 0, 62, 89
1, 432822, Note_on_c, 0, 50, 76
1, 432822, Control_c, 0, 64, 0
1, 432823, Note_on_c, 0, 86, 84
1, 432838, Control_c, 0, 64, 38
1, 432841, Note_off_c, 0, 62, 67
1, 432843, Note_off_c, 0, 74, 70
1, 432845, Note_off_c, 0, 86, 70
1, 432847, Note_off_c, 0, 50, 67
1, 432849, Note_on_c, 0, 85, 42
1, 432853, Control_c, 0, 64, 59
1, 432868, Control_c, 0, 64, 127
1, 432877, Note_off_c, 0, 85, 40
1, 432892, Poly_aftertouch_c, 0, 51, 0
1, 432904, Note_on_c, 0, 51, 30
1, 432910, Note_on_c, 0, 63, 87
1, 432913, Note_on_c, 0, 75, 93
1, 432916, Note_on_c, 0, 87, 88
1, 432936, Note_off_c, 0, 75, 64
1, 432942, Note_off_c, 0, 63, 63
1, 432949, Note_off_c, 0, 51, 64
1, 432957, Note_off_c, 0, 87, 62
1, 433017, Note_on_c, 0, 64, 86
1, 433018, Note_on_c, 0, 76, 96
1, 433023, Note_on_c, 0, 52, 78
1, 433024, Note_on_c, 0, 88, 86
1, 433036, Note_off_c, 0, 64, 72
1, 433037, Note_off_c, 0, 76, 70
1, 433047, Note_off_c, 0, 52, 73
1, 433050, Note_off_c, 0, 88, 65
1, 433113, Note_on_c, 0, 61, 92
1, 433119, Note_on_c, 0, 49, 84
1, 433119, Note_on_c, 0, 79, 96
1, 433127, Note_on_c, 0, 91, 88
1, 433135, Note_off_c, 0, 61, 69
1, 433138, Note_off_c, 0, 79, 70
1, 433142, Note_off_c, 0, 49, 70
1, 433146, Note_off_c, 0, 91, 65
1, 433215, Note_on_c, 0, 58, 85
1, 433218, Note_on_c, 0, 46, 96
1, 433221, Note_on_c, 0, 82, 96
1, 433221, Note_on_c, 0, 94, 99
1, 433238, Note_off_c, 0, 58, 69
1, 433239, Note_off_c, 0, 46, 70
1, 433250, Note_on_c, 0, 56, 35
1, 433250, Note_off_c, 0, 82, 62
1, 433259, Note_off_c, 0, 94, 64
1, 433282, Note_off_c, 0, 56, 51
1, 433314, Note_on_c, 0, 55, 102
1, 433315, Note_on_c, 0, 85, 94
1, 433318, Note_on_c, 0, 97, 98
1, 433319, Note_on_c, 0, 43, 85
1, 433346, Note_off_c, 0, 43, 65
1, 433347, Note_off_c, 0, 55, 62
1, 433349, Note_off_c, 0, 85, 66
1, 433351, Note_on_c, 0, 44, 36
1, 433354, Note_off_c, 0, 97, 66
1, 433381, Note_off_c, 0, 44, 52
1, 433409, Note_on_c, 0, 54, 103
1, 433413, Note_on_c, 0, 86, 105
1, 433414, Note_on_c, 0, 42, 92
1, 433419, Note_on_c, 0, 98, 99
1, 433431, Note_on_c, 0, 97, 74
1, 433441, Note_off_c, 0, 86, 68
1, 433445, Note_off_c, 0, 97, 67
1, 433446, Note_off_c, 0, 54, 66
1, 433451, Note_off_c, 0, 42, 61
1, 433451, Note_off_c, 0, 98, 69
1, 433506, Note_on_c, 0, 87, 104
1, 433507, Note_on_c, 0, 53, 95
1, 433512, Note_on_c, 0, 41, 90
1, 433514, Note_on_c, 0, 99, 96
1, 433541, Note_off_c, 0, 53, 62
1, 433542, Note_off_c, 0, 41, 67
1, 433542, Note_on_c, 0, 52, 44
1, 433543, Note_off_c, 0, 52, 127
1, 433549, Note_off_c, 0, 87, 67
1, 433559, Note_off_c, 0, 99, 64
1, 433613, Note_on_c, 0, 52, 116
1, 433615, Note_on_c, 0, 88, 110
1, 433619, Note_on_c, 0, 100, 96
1, 433620, Note_on_c, 0, 40, 103
1, 433637, Note_off_c, 0, 100, 70
1, 433643, Note_on_c, 0, 99, 58
1, 433643, Note_off_c, 0, 88, 74
1, 433661, Note_on_c, 0, 46, 35
1, 433667, Note_off_c, 0, 99, 38
1, 433676, Control_c, 0, 64, 64
1, 433686, Note_off_c, 0, 46, 61
1, 433691, Control_c, 0, 64, 0
1, 433706, Note_off_c, 0, 52, 60
1, 433732, Note_off_c, 0, 40, 58
1, 434039, Control_c, 0, 64, 50
1, 434048, Note_on_c, 0, 75, 115
1, 434051, Note_on_c, 0, 87, 103
1, 434052, Note_on_c, 0, 51, 114
1, 434054, Control_c, 0, 64, 127
1, 434054, Note_on_c, 0, 39, 93
1, 434078, Note_off_c, 0, 75, 64
1, 434084, Note_off_c, 0, 51, 68
1, 434084, Note_off_c, 0, 87, 67
1, 434090, Note_off_c, 0, 39, 64
1, 434239, Note_on_c, 0, 88, 103
1, 434240, Note_on_c, 0, 76, 106
1, 434244, Note_on_c, 0, 50, 104
1, 434248, Note_on_c, 0, 38, 96
1, 434267, Note_on_c, 0, 87, 56
1, 434269, Note_on_c, 0, 39, 59
1, 434272, Note_off_c, 0, 76, 67
1, 434274, Note_off_c, 0, 50, 65
1, 434276, Note_off_c, 0, 38, 68
1, 434280, Note_off_c, 0, 88, 68
1, 434290, Note_off_c, 0, 87, 63
1, 434292, Note_off_c, 0, 39, 61
1, 434374, Note_on_c, 0, 49, 102
1, 434379, Note_on_c, 0, 37, 91
1, 434380, Note_on_c, 0, 77, 108
1, 434381, Note_on_c, 0, 89, 105
1, 434411, Note_off_c, 0, 77, 68
1, 434412, Note_off_c, 0, 49, 64
1, 434412, Note_off_c, 0, 37, 63
1, 434420, Note_off_c, 0, 89, 67
1, 434473, Poly_aftertouch_c, 0, 39, 0
1, 434496, Note_on_c, 0, 48, 106
1, 434496, Note_on_c, 0, 78, 104
1, 434499, Note_on_c, 0, 90, 99
1, 434501, Note_on_c, 0, 36, 92
1, 434536, Note_on_c, 0, 37, 45
1, 434539, Note_off_c, 0, 36, 67
1, 434539, Note_off_c, 0, 48, 69
1, 434543, Note_off_c, 0, 78, 67
1, 434549, Note_off_c, 0, 90, 67
1, 434584, Note_off_c, 0, 37, 41
1, 434615, Note_on_c, 0, 46, 96
1, 434621, Note_on_c, 0, 79, 104
1, 434627, Note_on_c, 0, 34, 78
1, 434628, Note_on_c, 0, 91, 96
1, 434654, Note_off_c, 0, 34, 67
1, 434658, Note_off_c, 0, 46, 64
1, 434661, Note_off_c, 0, 79, 65
1, 434665, Note_off_c, 0, 91, 63
1, 434699, Control_c, 0, 64, 50
1, 434714, Control_c, 0, 64, 0
1, 434715, Poly_aftertouch_c, 0, 47, 0
1, 434737, Note_on_c, 0, 44, 107
1, 434739, Note_on_c, 0, 80, 114
1, 434744, Note_on_c, 0, 84, 90
1, 434745, Note_on_c, 0, 32, 89
1, 434746, Note_on_c, 0, 92, 104
1, 434746, Note_on_c, 0, 39, 82
1, 434747, Note_off_c, 0, 39, 127
1, 434759, Control_c, 0, 64, 48
1, 434763, Note_off_c, 0, 92, 71
1, 434771, Note_on_c, 0, 38, 55
1, 434772, Note_off_c, 0, 84, 60
1, 434773, Control_c, 0, 64, 127
1, 434774, Note_off_c, 0, 32, 67
1, 434779, Note_off_c, 0, 80, 62
1, 434781, Note_on_c, 0, 90, 42
1, 434782, Note_off_c, 0, 44, 59
1, 434794, Note_off_c, 0, 90, 0
1, 434807, Note_on_c, 0, 42, 22
1, 434808, Note_off_c, 0, 38, 49
1, 434829, Poly_aftertouch_c, 0, 90, 0
1, 434864, Note_off_c, 0, 42, 37
1, 435024, Note_on_c, 0, 68, 77
1, 435042, Note_off_c, 0, 68, 66
1, 435086, Note_on_c, 0, 68, 110
1, 435124, Note_off_c, 0, 68, 63
1, 435318, Note_on_c, 0, 63, 85
1, 435339, Note_off_c, 0, 63, 70
1, 435384, Note_on_c, 0, 63, 107
1, 435413, Note_off_c, 0, 63, 70
1, 435624, Note_on_c, 0, 56, 83
1, 435647, Note_off_c, 0, 56, 69
1, 435694, Note_on_c, 0, 56, 102
1, 435730, Note_off_c, 0, 56, 68
1, 435929, Note_on_c, 0, 51, 83
1, 435952, Note_off_c, 0, 51, 70
1, 436010, Note_on_c, 0, 51, 97
1, 436049, Note_off_c, 0, 51, 63
1, 436230, Note_on_c, 0, 63, 71
1, 436230, Note_on_c, 0, 75, 70
1, 436256, Note_off_c, 0, 63, 64
1, 436256, Note_off_c, 0, 75, 67
1, 436256, Control_c, 0, 64, 65
1, 436270, Control_c, 0, 64, 36
1, 436285, Control_c, 0, 64, 0
1, 436308, Note_on_c, 0, 44, 72
1, 436311, Note_on_c, 0, 63, 75
1, 436313, Note_on_c, 0, 43, 72
1, 436313, Note_on_c, 0, 75, 82
1, 436329, Control_c, 0, 64, 37
1, 436344, Control_c, 0, 64, 61
1, 436359, Control_c, 0, 64, 127
1, 436361, Note_off_c, 0, 75, 60
1, 436364, Note_off_c, 0, 63, 63
1, 436539, Note_on_c, 0, 56, 79
1, 436543, Note_on_c, 0, 68, 62
1, 436564, Note_off_c, 0, 68, 61
1, 436564, Note_off_c, 0, 56, 68
1, 436615, Note_on_c, 0, 56, 87
1, 436618, Note_on_c, 0, 68, 89
1, 436677, Note_off_c, 0, 68, 58
1, 436679, Note_off_c, 0, 56, 60
1, 436819, Note_off_c, 0, 43, 55
1, 436836, Note_on_c, 0, 51, 81
1, 436836, Note_off_c, 0, 44, 54
1, 436848, Note_on_c, 0, 63, 52
1, 436861, Note_off_c, 0, 51, 70
1, 436871, Note_off_c, 0, 63, 59
1, 436871, Control_c, 0, 64, 81
1, 436886, Control_c, 0, 64, 52
1, 436901, Control_c, 0, 64, 25
1, 436914, Note_on_c, 0, 44, 86
1, 436916, Control_c, 0, 64, 34
1, 436916, Note_on_c, 0, 51, 91
1, 436919, Note_on_c, 0, 42, 81
1, 436922, Note_on_c, 0, 63, 80
1, 436931, Control_c, 0, 64, 53
1, 436946, Control_c, 0, 64, 76
1, 436960, Control_c, 0, 64, 127
1, 436972, Note_off_c, 0, 63, 65
1, 436973, Note_off_c, 0, 51, 64
1, 437122, Note_on_c, 0, 48, 88
1, 437124, Note_on_c, 0, 56, 72
1, 437137, Note_on_c, 0, 60, 52
1, 437144, Note_off_c, 0, 48, 70
1, 437149, Note_off_c, 0, 56, 67
1, 437160, Note_off_c, 0, 60, 60
1, 437195, Note_off_c, 0, 42, 60
1, 437197, Note_on_c, 0, 48, 87
1, 437205, Note_on_c, 0, 56, 82
1, 437205, Note_off_c, 0, 44, 61
1, 437211, Note_on_c, 0, 60, 74
1, 437219, Note_off_c, 0, 48, 73
1, 437235, Note_off_c, 0, 56, 67
1, 437241, Note_off_c, 0, 60, 68
1, 437345, Control_c, 0, 64, 66
1, 437360, Control_c, 0, 64, 50
1, 437375, Control_c, 0, 64, 16
1, 437390, Control_c, 0, 64, 0
1, 437424, Note_on_c, 0, 53, 67
1, 437428, Note_on_c, 0, 73, 67
1, 437429, Note_on_c, 0, 41, 62
1, 437435, Note_on_c, 0, 80, 50
1, 437446, Note_off_c, 0, 73, 67
1, 437450, Control_c, 0, 64, 10
1, 437451, Note_off_c, 0, 53, 68
1, 437458, Note_off_c, 0, 80, 58
1, 437459, Note_off_c, 0, 41, 64
1, 437464, Control_c, 0, 64, 38
1, 437479, Control_c, 0, 64, 56
1, 437494, Control_c, 0, 64, 80
1, 437497, Note_on_c, 0, 73, 93
1, 437512, Note_on_c, 0, 85, 74
1, 437516, Control_c, 0, 64, 127
1, 437517, Note_on_c, 0, 53, 80
1, 437518, Note_on_c, 0, 80, 79
1, 437522, Note_on_c, 0, 41, 75
1, 437536, Note_off_c, 0, 85, 68
1, 437540, Note_off_c, 0, 80, 65
1, 437547, Note_off_c, 0, 53, 65
1, 437551, Note_off_c, 0, 41, 65
1, 437551, Note_off_c, 0, 73, 62
1, 437709, Control_c, 0, 64, 93
1, 437721, Note_on_c, 0, 68, 79
1, 437723, Note_on_c, 0, 52, 76
1, 437724, Note_on_c, 0, 40, 73
1, 437724, Note_on_c, 0, 73, 70
1, 437724, Control_c, 0, 64, 60
1, 437739, Control_c, 0, 64, 43
1, 437740, Note_on_c, 0, 80, 51
1, 437744, Note_off_c, 0, 68, 68
1, 437747, Note_off_c, 0, 52, 72
1, 437748, Note_off_c, 0, 73, 69
1, 437754, Note_off_c, 0, 40, 65
1, 437754, Control_c, 0, 64, 37
1, 437761, Note_off_c, 0, 80, 60
1, 437768, Control_c, 0, 64, 46
1, 437783, Control_c, 0, 64, 58
1, 437794, Note_on_c, 0, 52, 84
1, 437796, Note_on_c, 0, 68, 99
1, 437798, Note_on_c, 0, 73, 83
1, 437798, Control_c, 0, 64, 73
1, 437799, Note_on_c, 0, 40, 86
1, 437807, Note_on_c, 0, 80, 83
1, 437813, Control_c, 0, 64, 127
1, 437828, Note_off_c, 0, 52, 66
1, 437836, Note_off_c, 0, 40, 65
1, 437841, Note_off_c, 0, 73, 65
1, 437846, Note_off_c, 0, 68, 58
1, 437850, Note_off_c, 0, 80, 57
1, 437976, Control_c, 0, 64, 77
1, 437991, Control_c, 0, 64, 57
1, 438006, Control_c, 0, 64, 28
1, 438016, Note_on_c, 0, 43, 88
1, 438019, Note_on_c, 0, 31, 87
1, 438020, Note_on_c, 0, 69, 92
1, 438021, Control_c, 0, 64, 0
1, 438023, Note_on_c, 0, 73, 80
1, 438032, Note_on_c, 0, 76, 70
1, 438036, Note_off_c, 0, 69, 76
1, 438037, Note_off_c, 0, 43, 68
1, 438040, Note_on_c, 0, 81, 54
1, 438041, Note_off_c, 0, 31, 68
1, 438044, Note_off_c, 0, 73, 70
1, 438049, Note_off_c, 0, 76, 69
1, 438051, Note_on_c, 0, 75, 25
1, 438065, Note_off_c, 0, 81, 37
1, 438065, Control_c, 0, 64, 23
1, 438076, Note_off_c, 0, 75, 34
1, 438080, Control_c, 0, 64, 40
1, 438084, Note_on_c, 0, 43, 91
1, 438088, Note_on_c, 0, 69, 104
1, 438090, Note_on_c, 0, 81, 85
1, 438091, Note_on_c, 0, 31, 93
1, 438093, Note_on_c, 0, 73, 85
1, 438095, Control_c, 0, 64, 55
1, 438099, Note_on_c, 0, 76, 90
1, 438109, Control_c, 0, 64, 71
1, 438124, Control_c, 0, 64, 105
1, 438139, Control_c, 0, 64, 127
1, 438150, Note_off_c, 0, 81, 63
1, 438160, Note_off_c, 0, 69, 58
1, 438162, Note_off_c, 0, 31, 64
1, 438162, Note_off_c, 0, 43, 59
1, 438170, Note_off_c, 0, 73, 63
1, 438174, Note_off_c, 0, 76, 64
1, 438294, Note_on_c, 0, 42, 89
1, 438296, Note_on_c, 0, 30, 83
1, 438300, Note_on_c, 0, 70, 89
1, 438305, Note_on_c, 0, 73, 77
1, 438309, Control_c, 0, 64, 64
1, 438314, Note_on_c, 0, 76, 70
1, 438317, Note_off_c, 0, 70, 71
1, 438318, Note_off_c, 0, 42, 66
1, 438323, Note_off_c, 0, 30, 65
1, 438324, Control_c, 0, 64, 36
1, 438329, Note_off_c, 0, 73, 69
1, 438331, Note_off_c, 0, 76, 69
1, 438339, Control_c, 0, 64, 0
1, 438368, Control_c, 0, 64, 36
1, 438376, Note_on_c, 0, 42, 105
1, 438378, Note_on_c, 0, 30, 98
1, 438379, Note_on_c, 0, 70, 106
1, 438383, Control_c, 0, 64, 61
1, 438385, Note_on_c, 0, 76, 82
1, 438387, Note_on_c, 0, 73, 84
1, 438393, Note_on_c, 0, 82, 79
1, 438398, Control_c, 0, 64, 127
1, 438413, Note_off_c, 0, 30, 63
1, 438414, Note_off_c, 0, 82, 70
1, 438415, Poly_aftertouch_c, 0, 80, 127
1, 438418, Note_off_c, 0, 76, 52
1, 438422, Note_off_c, 0, 42, 62
1, 438446, Note_off_c, 0, 70, 58
1, 438454, Note_off_c, 0, 73, 63
1, 438457, Poly_aftertouch_c, 0, 80, 0
1, 438606, Note_on_c, 0, 42, 92
1, 438606, Note_on_c, 0, 54, 102
1, 438639, Note_off_c, 0, 42, 57
1, 438645, Note_off_c, 0, 54, 67
1, 438681, Control_c, 0, 64, 65
1, 438696, Control_c, 0, 64, 10
1, 438710, Control_c, 0, 64, 0
1, 438728, Note_on_c, 0, 55, 107
1, 438735, Note_on_c, 0, 43, 96
1, 438764, Note_on_c, 0, 44, 45
1, 438765, Note_off_c, 0, 44, 127
1, 438814, Control_c, 0, 64, 62
1, 438829, Control_c, 0, 64, 127
1, 438830, Note_on_c, 0, 58, 92
1, 438836, Note_on_c, 0, 70, 75
1, 438849, Note_off_c, 0, 58, 71
1, 438858, Note_off_c, 0, 70, 69
1, 438931, Note_on_c, 0, 61, 82
1, 438932, Note_on_c, 0, 73, 82
1, 438951, Note_off_c, 0, 61, 70
1, 438955, Note_off_c, 0, 73, 67
1, 439004, Note_off_c, 0, 43, 60
1, 439012, Note_off_c, 0, 55, 61
1, 439038, Note_on_c, 0, 64, 83
1, 439050, Note_on_c, 0, 76, 68
1, 439058, Note_off_c, 0, 64, 70
1, 439067, Note_off_c, 0, 76, 69
1, 439125, Note_on_c, 0, 46, 80
1, 439131, Note_on_c, 0, 58, 74
1, 439139, Note_on_c, 0, 67, 85
1, 439149, Note_off_c, 0, 46, 68
1, 439150, Note_off_c, 0, 58, 72
1, 439151, Note_on_c, 0, 79, 75
1, 439158, Note_off_c, 0, 67, 73
1, 439174, Note_off_c, 0, 79, 67
1, 439235, Note_on_c, 0, 55, 86
1, 439238, Note_on_c, 0, 70, 93
1, 439243, Note_on_c, 0, 43, 76
1, 439249, Note_on_c, 0, 82, 76
1, 439254, Note_off_c, 0, 55, 74
1, 439259, Note_off_c, 0, 70, 66
1, 439267, Note_off_c, 0, 43, 69
1, 439271, Note_off_c, 0, 82, 70
1, 439342, Note_on_c, 0, 73, 92
1, 439345, Note_on_c, 0, 52, 84
1, 439346, Note_on_c, 0, 40, 85
1, 439346, Note_on_c, 0, 85, 82
1, 439365, Note_off_c, 0, 73, 64
1, 439366, Note_off_c, 0, 52, 74
1, 439368, Note_off_c, 0, 85, 65
1, 439369, Note_off_c, 0, 40, 69
1, 439442, Note_on_c, 0, 49, 92
1, 439444, Note_on_c, 0, 76, 89
1, 439447, Note_on_c, 0, 37, 82
1, 439453, Note_on_c, 0, 88, 77
1, 439460, Note_off_c, 0, 49, 73
1, 439462, Note_off_c, 0, 76, 72
1, 439471, Note_off_c, 0, 37, 66
1, 439472, Note_off_c, 0, 88, 73
1, 439503, Control_c, 0, 64, 75
1, 439518, Control_c, 0, 64, 61
1, 439533, Control_c, 0, 64, 43
1, 439542, Note_on_c, 0, 79, 92
1, 439542, Note_on_c, 0, 48, 83
1, 439545, Note_on_c, 0, 36, 75
1, 439547, Control_c, 0, 64, 0
1, 439550, Note_on_c, 0, 91, 85
1, 439563, Note_off_c, 0, 48, 69
1, 439566, Note_off_c, 0, 36, 67
1, 439570, Note_off_c, 0, 79, 67
1, 439572, Note_off_c, 0, 91, 64
1, 439644, Note_on_c, 0, 47, 105
1, 439648, Note_on_c, 0, 35, 94
1, 439649, Note_on_c, 0, 83, 108
1, 439651, Control_c, 0, 64, 16
1, 439652, Note_on_c, 0, 95, 106
1, 439654, Note_on_c, 0, 87, 98
1, 439666, Control_c, 0, 64, 127
1, 439667, Note_off_c, 0, 95, 76
1, 439670, Note_off_c, 0, 87, 75
1, 439672, Note_off_c, 0, 35, 70
1, 439672, Note_off_c, 0, 47, 66
1, 439672, Note_off_c, 0, 83, 67
1, 439912, Note_on_c, 0, 71, 72
1, 439927, Note_off_c, 0, 71, 73
1, 439974, Note_on_c, 0, 71, 92
1, 439979, Note_on_c, 0, 69, 94
1, 439994, Note_off_c, 0, 69, 78
1, 440019, Note_off_c, 0, 71, 66
1, 440204, Note_on_c, 0, 66, 85
1, 440222, Note_off_c, 0, 66, 71
1, 440269, Note_on_c, 0, 66, 115
1, 440299, Note_off_c, 0, 66, 68
1, 440512, Note_on_c, 0, 59, 79
1, 440534, Note_off_c, 0, 59, 70
1, 440579, Note_on_c, 0, 59, 101
1, 440625, Note_off_c, 0, 59, 68
1, 440814, Note_on_c, 0, 54, 91
1, 440839, Note_off_c, 0, 54, 67
1, 440887, Note_on_c, 0, 54, 103
1, 440921, Note_off_c, 0, 54, 70
1, 441045, Control_c, 0, 64, 98
1, 441060, Control_c, 0, 64, 63
1, 441075, Control_c, 0, 64, 0
1, 441110, Note_on_c, 0, 66, 71
1, 441113, Note_on_c, 0, 78, 72
1, 441131, Note_off_c, 0, 78, 69
1, 441137, Note_off_c, 0, 66, 67
1, 441179, Note_on_c, 0, 66, 76
1, 441182, Note_on_c, 0, 78, 81
1, 441185, Note_on_c, 0, 47, 67
1, 441186, Note_on_c, 0, 46, 66
1, 441194, Control_c, 0, 64, 42
1, 441208, Control_c, 0, 64, 76
1, 441223, Control_c, 0, 64, 127
1, 441229, Note_off_c, 0, 66, 63
1, 441231, Note_off_c, 0, 78, 64
1, 441412, Note_on_c, 0, 61, 78
1, 441420, Note_on_c, 0, 73, 63
1, 441435, Note_off_c, 0, 61, 71
1, 441439, Note_off_c, 0, 73, 66
1, 441489, Note_on_c, 0, 61, 86
1, 441493, Note_on_c, 0, 73, 89
1, 441539, Note_off_c, 0, 73, 65
1, 441545, Note_off_c, 0, 61, 63
1, 441704, Note_on_c, 0, 54, 85
1, 441707, Note_on_c, 0, 66, 73
1, 441725, Note_off_c, 0, 47, 63
1, 441726, Note_off_c, 0, 54, 71
1, 441728, Note_off_c, 0, 46, 63
1, 441730, Note_off_c, 0, 66, 69
1, 441765, Control_c, 0, 64, 72
1, 441780, Control_c, 0, 64, 44
1, 441783, Note_on_c, 0, 54, 93
1, 441788, Note_on_c, 0, 47, 89
1, 441790, Note_on_c, 0, 66, 79
1, 441790, Note_on_c, 0, 45, 88
1, 441794, Control_c, 0, 64, 0
1, 441809, Control_c, 0, 64, 23
1, 441824, Control_c, 0, 64, 50
1, 441836, Note_off_c, 0, 66, 63
1, 441839, Control_c, 0, 64, 95
1, 441854, Control_c, 0, 64, 127
1, 441871, Note_off_c, 0, 54, 58
1, 442005, Note_on_c, 0, 51, 84
1, 442019, Note_on_c, 0, 63, 65
1, 442023, Note_on_c, 0, 59, 56
1, 442037, Note_off_c, 0, 51, 63
1, 442048, Note_off_c, 0, 47, 57
1, 442050, Note_off_c, 0, 63, 67
1, 442052, Note_off_c, 0, 59, 65
1, 442059, Note_off_c, 0, 45, 62
1, 442100, Note_on_c, 0, 51, 86
1, 442107, Note_on_c, 0, 63, 82
1, 442118, Note_on_c, 0, 59, 68
1, 442120, Note_off_c, 0, 51, 69
1, 442141, Note_off_c, 0, 59, 67
1, 442152, Note_off_c, 0, 63, 62
1, 442216, Control_c, 0, 64, 107
1, 442231, Control_c, 0, 64, 63
1, 442246, Control_c, 0, 64, 42
1, 442261, Control_c, 0, 64, 0
1, 442326, Note_on_c, 0, 44, 66
1, 442335, Note_on_c, 0, 76, 75
1, 442336, Note_on_c, 0, 56, 54
1, 442337, Note_on_c, 0, 83, 72
1, 442348, Note_on_c, 0, 88, 57
1, 442353, Note_off_c, 0, 76, 72
1, 442359, Note_off_c, 0, 56, 61
1, 442359, Note_off_c, 0, 44, 64
1, 442359, Note_off_c, 0, 83, 67
1, 442371, Note_off_c, 0, 88, 38
1, 442380, Control_c, 0, 64, 45
1, 442394, Control_c, 0, 64, 61
1, 442409, Note_on_c, 0, 76, 86
1, 442409, Note_on_c, 0, 83, 87
1, 442409, Control_c, 0, 64, 115
1, 442420, Note_on_c, 0, 56, 82
1, 442421, Note_on_c, 0, 88, 76
1, 442423, Note_on_c, 0, 44, 79
1, 442425, Control_c, 0, 64, 127
1, 442436, Note_off_c, 0, 88, 72
1, 442454, Note_off_c, 0, 83, 65
1, 442454, Note_off_c, 0, 76, 62
1, 442457, Note_off_c, 0, 44, 61
1, 442457, Note_off_c, 0, 56, 57
1, 442572, Control_c, 0, 64, 119
1, 442587, Control_c, 0, 64, 64
1, 442602, Control_c, 0, 64, 30
1, 442616, Control_c, 0, 64, 0
1, 442621, Note_on_c, 0, 55, 79
1, 442622, Note_on_c, 0, 76, 80
1, 442624, Note_on_c, 0, 43, 69
1, 442637, Note_on_c, 0, 71, 60
1, 442643, Note_off_c, 0, 76, 70
1, 442645, Note_on_c, 0, 83, 44
1, 442645, Note_off_c, 0, 55, 70
1, 442654, Note_off_c, 0, 43, 64
1, 442657, Note_off_c, 0, 71, 65
1, 442669, Note_off_c, 0, 83, 61
1, 442676, Control_c, 0, 64, 28
1, 442691, Control_c, 0, 64, 42
1, 442696, Note_on_c, 0, 55, 91
1, 442698, Note_on_c, 0, 83, 76
1, 442699, Note_on_c, 0, 76, 82
1, 442702, Note_on_c, 0, 71, 85
1, 442702, Note_on_c, 0, 43, 80
1, 442705, Control_c, 0, 64, 57
1, 442720, Control_c, 0, 64, 69
1, 442721, Note_off_c, 0, 55, 70
1, 442728, Note_off_c, 0, 71, 63
1, 442732, Note_off_c, 0, 43, 64
1, 442735, Control_c, 0, 64, 86
1, 442752, Note_off_c, 0, 83, 64
1, 442753, Note_off_c, 0, 76, 66
1, 442757, Control_c, 0, 64, 98
1, 442772, Control_c, 0, 64, 100
1, 442787, Control_c, 0, 64, 99
1, 442802, Control_c, 0, 64, 98
1, 442817, Control_c, 0, 64, 93
1, 442831, Control_c, 0, 64, 81
1, 442846, Control_c, 0, 64, 66
1, 442861, Control_c, 0, 64, 50
1, 442876, Control_c, 0, 64, 0
1, 442911, Note_on_c, 0, 46, 97
1, 442912, Note_on_c, 0, 72, 89
1, 442914, Note_on_c, 0, 34, 84
1, 442914, Note_on_c, 0, 79, 85
1, 442916, Note_on_c, 0, 76, 78
1, 442930, Note_off_c, 0, 72, 72
1, 442933, Note_off_c, 0, 46, 70
1, 442937, Note_off_c, 0, 76, 73
1, 442937, Note_off_c, 0, 79, 67
1, 442944, Note_off_c, 0, 34, 67
1, 442947, Note_on_c, 0, 84, 34
1, 442964, Control_c, 0, 64, 24
1, 442971, Note_off_c, 0, 84, 35
1, 442979, Control_c, 0, 64, 38
1, 442985, Note_on_c, 0, 46, 102
1, 442988, Note_on_c, 0, 72, 101
1, 442992, Note_on_c, 0, 34, 96
1, 442992, Note_on_c, 0, 84, 67
1, 442994, Note_on_c, 0, 79, 81
1, 442994, Control_c, 0, 64, 50
1, 442997, Note_on_c, 0, 76, 86
1, 443009, Control_c, 0, 64, 60
1, 443024, Control_c, 0, 64, 69
1, 443039, Control_c, 0, 64, 78
1, 443052, Note_off_c, 0, 46, 60
1, 443054, Control_c, 0, 64, 82
1, 443055, Note_off_c, 0, 34, 64
1, 443060, Note_off_c, 0, 84, 63
1, 443068, Note_off_c, 0, 72, 61
1, 443069, Control_c, 0, 64, 82
1, 443077, Note_off_c, 0, 76, 62
1, 443083, Control_c, 0, 64, 84
1, 443098, Control_c, 0, 64, 101
1, 443099, Note_off_c, 0, 79, 60
1, 443113, Control_c, 0, 64, 127
1, 443172, Control_c, 0, 64, 80
1, 443187, Control_c, 0, 64, 52
1, 443191, Note_on_c, 0, 45, 93
1, 443194, Note_on_c, 0, 76, 70
1, 443195, Note_on_c, 0, 73, 83
1, 443196, Note_on_c, 0, 33, 81
1, 443200, Note_on_c, 0, 79, 74
1, 443202, Control_c, 0, 64, 0
1, 443209, Note_off_c, 0, 73, 72
1, 443214, Note_off_c, 0, 45, 71
1, 443218, Note_off_c, 0, 33, 66
1, 443219, Note_off_c, 0, 76, 62
1, 443225, Note_off_c, 0, 79, 66
1, 443247, Control_c, 0, 64, 40
1, 443262, Control_c, 0, 64, 63
1, 443271, Note_on_c, 0, 45, 105
1, 443272, Note_on_c, 0, 73, 95
1, 443273, Note_on_c, 0, 33, 96
1, 443277, Control_c, 0, 64, 127
1, 443277, Note_on_c, 0, 76, 82
1, 443277, Note_on_c, 0, 85, 68
1, 443282, Note_on_c, 0, 79, 81
1, 443301, Note_off_c, 0, 33, 69
1, 443305, Note_off_c, 0, 45, 68
1, 443309, Note_off_c, 0, 85, 66
1, 443328, Note_off_c, 0, 79, 62
1, 443334, Note_off_c, 0, 76, 62
1, 443335, Note_off_c, 0, 73, 63
1, 443507, Note_on_c, 0, 57, 110
1, 443510, Note_on_c, 0, 45, 98
1, 443521, Control_c, 0, 64, 79
1, 443536, Control_c, 0, 64, 62
1, 443545, Note_off_c, 0, 57, 66
1, 443548, Note_on_c, 0, 46, 40
1, 443549, Note_off_c, 0, 45, 65
1, 443551, Control_c, 0, 64, 39
1, 443566, Control_c, 0, 64, 0
1, 443584, Note_off_c, 0, 46, 33
1, 443635, Note_on_c, 0, 58, 111
1, 443640, Note_on_c, 0, 46, 98
1, 443668, Note_on_c, 0, 56, 48
1, 443669, Note_off_c, 0, 56, 127
1, 443669, Control_c, 0, 64, 48
1, 443684, Control_c, 0, 64, 127
1, 443746, Note_on_c, 0, 61, 84
1, 443756, Note_on_c, 0, 73, 63
1, 443766, Note_off_c, 0, 61, 70
1, 443775, Note_off_c, 0, 73, 65
1, 443849, Note_on_c, 0, 64, 72
1, 443849, Note_on_c, 0, 76, 77
1, 443870, Note_off_c, 0, 64, 67
1, 443870, Note_off_c, 0, 76, 71
1, 443941, Note_off_c, 0, 58, 59
1, 443942, Note_on_c, 0, 67, 87
1, 443942, Note_off_c, 0, 46, 60
1, 443956, Note_on_c, 0, 79, 69
1, 443960, Note_off_c, 0, 67, 74
1, 443972, Note_off_c, 0, 79, 66
1, 444040, Note_on_c, 0, 70, 90
1, 444041, Note_on_c, 0, 49, 83
1, 444043, Note_on_c, 0, 61, 86
1, 444052, Note_on_c, 0, 82, 74
1, 444062, Note_off_c, 0, 61, 72
1, 444063, Note_off_c, 0, 70, 64
1, 444065, Note_off_c, 0, 49, 70
1, 444073, Note_off_c, 0, 82, 70
1, 444138, Note_on_c, 0, 58, 81
1, 444143, Note_on_c, 0, 46, 84
1, 444146, Note_on_c, 0, 85, 88
1, 444150, Note_on_c, 0, 73, 76
1, 444159, Note_off_c, 0, 58, 68
1, 444163, Note_off_c, 0, 85, 71
1, 444170, Note_off_c, 0, 73, 71
1, 444171, Note_off_c, 0, 46, 66
1, 444249, Note_on_c, 0, 76, 95
1, 444255, Note_on_c, 0, 88, 90
1, 444262, Note_on_c, 0, 55, 76
1, 444265, Note_on_c, 0, 43, 72
1, 444269, Note_off_c, 0, 76, 72
1, 444279, Note_off_c, 0, 55, 69
1, 444285, Note_off_c, 0, 88, 64
1, 444290, Note_off_c, 0, 43, 63
1, 444353, Note_on_c, 0, 79, 100
1, 444365, Note_on_c, 0, 52, 76
1, 444365, Note_on_c, 0, 91, 80
1, 444371, Note_on_c, 0, 89, 68
1, 444373, Note_on_c, 0, 40, 62
1, 444377, Note_off_c, 0, 79, 63
1, 444384, Note_off_c, 0, 52, 68
1, 444384, Note_off_c, 0, 91, 67
1, 444388, Note_on_c, 0, 41, 33
1, 444389, Note_off_c, 0, 89, 68
1, 444400, Note_on_c, 0, 90, 14
1, 444400, Note_off_c, 0, 40, 58
1, 444404, Control_c, 0, 64, 80
1, 444419, Control_c, 0, 64, 61
1, 444430, Note_off_c, 0, 41, 49
1, 444434, Control_c, 0, 64, 45
1, 444446, Note_off_c, 0, 90, 29
1, 444449, Control_c, 0, 64, 0
1, 444453, Note_on_c, 0, 51, 90
1, 444456, Note_on_c, 0, 39, 82
1, 444459, Note_on_c, 0, 82, 87
1, 444463, Note_on_c, 0, 94, 87
1, 444475, Note_off_c, 0, 51, 68
1, 444484, Note_off_c, 0, 39, 67
1, 444486, Note_off_c, 0, 82, 63
1, 444488, Note_off_c, 0, 94, 61
1, 444567, Control_c, 0, 64, 27
1, 444571, Note_on_c, 0, 50, 101
1, 444572, Note_on_c, 0, 86, 111
1, 444574, Note_on_c, 0, 98, 104
1, 444575, Note_on_c, 0, 90, 104
1, 444577, Note_on_c, 0, 38, 85
1, 444582, Control_c, 0, 64, 127
1, 444588, Note_off_c, 0, 98, 76
1, 444589, Note_off_c, 0, 50, 79
1, 444591, Note_off_c, 0, 90, 76
1, 444592, Note_on_c, 0, 97, 63
1, 444592, Note_off_c, 0, 86, 69
1, 444605, Note_off_c, 0, 38, 66
1, 444613, Note_off_c, 0, 97, 42
1, 444819, Note_on_c, 0, 69, 88
1, 444827, Note_on_c, 0, 74, 75
1, 444836, Note_off_c, 0, 69, 76
1, 444848, Note_off_c, 0, 74, 73
1, 444890, Note_on_c, 0, 74, 92
1, 444892, Note_on_c, 0, 69, 107
1, 444934, Note_off_c, 0, 74, 66
1, 444947, Note_off_c, 0, 69, 66
1, 445113, Note_on_c, 0, 69, 89
1, 445123, Note_on_c, 0, 62, 70
1, 445132, Note_off_c, 0, 69, 74
1, 445150, Note_off_c, 0, 62, 65
1, 445188, Note_on_c, 0, 69, 103
1, 445191, Note_on_c, 0, 62, 101
1, 445216, Note_off_c, 0, 69, 74
1, 445225, Note_off_c, 0, 62, 65
1, 445406, Note_on_c, 0, 57, 87
1, 445409, Note_on_c, 0, 62, 83
1, 445426, Note_off_c, 0, 62, 73
1, 445429, Note_off_c, 0, 57, 66
1, 445478, Note_on_c, 0, 62, 95
1, 445481, Note_on_c, 0, 57, 97
1, 445525, Note_off_c, 0, 57, 66
1, 445549, Note_off_c, 0, 62, 62
1, 445691, Note_on_c, 0, 57, 94
1, 445711, Note_on_c, 0, 50, 63
1, 445717, Note_off_c, 0, 57, 64
1, 445734, Note_off_c, 0, 50, 60
1, 445778, Note_on_c, 0, 57, 98
1, 445788, Note_on_c, 0, 50, 88
1, 445807, Note_off_c, 0, 57, 70
1, 445827, Note_off_c, 0, 50, 66
1, 445997, Note_on_c, 0, 81, 83
1, 445999, Note_on_c, 0, 93, 81
1, 446000, Note_on_c, 0, 86, 74
1, 446017, Note_off_c, 0, 81, 72
1, 446020, Note_off_c, 0, 93, 69
1, 446022, Note_off_c, 0, 86, 67
1, 446049, Control_c, 0, 64, 52
1, 446064, Control_c, 0, 64, 0
1, 446078, Note_on_c, 0, 81, 99
1, 446078, Note_on_c, 0, 86, 89
1, 446079, Note_on_c, 0, 93, 98
1, 446082, Note_on_c, 0, 48, 103
1, 446090, Note_on_c, 0, 38, 93
1, 446109, Control_c, 0, 64, 25
1, 446124, Control_c, 0, 64, 52
1, 446127, Note_off_c, 0, 93, 62
1, 446139, Control_c, 0, 64, 107
1, 446143, Note_off_c, 0, 81, 61
1, 446145, Note_off_c, 0, 86, 62
1, 446154, Control_c, 0, 64, 127
1, 446301, Note_on_c, 0, 81, 87
1, 446304, Note_on_c, 0, 76, 81
1, 446313, Note_on_c, 0, 88, 71
1, 446321, Note_off_c, 0, 81, 72
1, 446323, Note_off_c, 0, 76, 74
1, 446329, Note_off_c, 0, 88, 70
1, 446372, Note_off_c, 0, 38, 61
1, 446377, Note_on_c, 0, 88, 89
1, 446380, Note_on_c, 0, 76, 85
1, 446381, Note_on_c, 0, 81, 86
1, 446384, Note_off_c, 0, 48, 67
1, 446404, Note_off_c, 0, 88, 58
1, 446416, Note_off_c, 0, 81, 60
1, 446423, Note_off_c, 0, 76, 57
1, 446586, Note_on_c, 0, 60, 84
1, 446587, Note_on_c, 0, 74, 68
1, 446589, Note_on_c, 0, 69, 76
1, 446591, Note_on_c, 0, 50, 72
1, 446594, Note_on_c, 0, 81, 69
1, 446604, Note_off_c, 0, 60, 74
1, 446609, Note_off_c, 0, 74, 72
1, 446610, Note_off_c, 0, 69, 73
1, 446610, Note_off_c, 0, 81, 69
1, 446616, Note_off_c, 0, 50, 65
1, 446664, Note_on_c, 0, 81, 93
1, 446665, Note_on_c, 0, 60, 95
1, 446665, Note_on_c, 0, 69, 89
1, 446670, Note_on_c, 0, 50, 86
1, 446670, Note_on_c, 0, 74, 82
1, 446695, Control_c, 0, 64, 77
1, 446710, Control_c, 0, 64, 54
1, 446712, Note_off_c, 0, 60, 65
1, 446713, Note_off_c, 0, 50, 63
1, 446714, Note_off_c, 0, 81, 62
1, 446720, Note_off_c, 0, 69, 65
1, 446724, Control_c, 0, 64, 0
1, 446729, Note_off_c, 0, 74, 64
1, 446862, Note_on_c, 0, 66, 82
1, 446869, Note_on_c, 0, 74, 68
1, 446869, Note_on_c, 0, 60, 62
1, 446871, Note_on_c, 0, 50, 61
1, 446876, Note_on_c, 0, 78, 55
1, 446884, Note_off_c, 0, 66, 68
1, 446890, Note_off_c, 0, 60, 63
1, 446893, Note_off_c, 0, 74, 71
1, 446896, Note_off_c, 0, 50, 58
1, 446896, Note_off_c, 0, 78, 62
1, 446947, Control_c, 0, 64, 38
1, 446950, Note_on_c, 0, 67, 88
1, 446955, Note_on_c, 0, 50, 76
1, 446955, Note_on_c, 0, 74, 79
1, 446956, Note_on_c, 0, 59, 64
1, 446957, Note_on_c, 0, 79, 78
1, 446962, Control_c, 0, 64, 80
1, 446972, Note_off_c, 0, 59, 68
1, 446973, Note_off_c, 0, 67, 68
1, 446976, Control_c, 0, 64, 127
1, 446979, Note_off_c, 0, 50, 69
1, 446979, Note_off_c, 0, 74, 65
1, 447003, Note_off_c, 0, 79, 63
1, 447132, Note_on_c, 0, 37, 75
1, 447137, Note_on_c, 0, 49, 69
1, 447164, Note_off_c, 0, 37, 65
1, 447166, Note_off_c, 0, 49, 68
1, 447187, Note_on_c, 0, 83, 75
1, 447191, Note_on_c, 0, 79, 76
1, 447197, Note_on_c, 0, 86, 62
1, 447208, Note_off_c, 0, 79, 68
1, 447209, Note_off_c, 0, 83, 72
1, 447215, Note_on_c, 0, 91, 35
1, 447218, Note_off_c, 0, 86, 61
1, 447252, Note_on_c, 0, 38, 82
1, 447257, Note_on_c, 0, 50, 77
1, 447266, Note_off_c, 0, 91, 48
1, 447267, Note_on_c, 0, 79, 71
1, 447267, Note_on_c, 0, 83, 65
1, 447272, Note_on_c, 0, 86, 61
1, 447275, Note_off_c, 0, 38, 69
1, 447281, Note_off_c, 0, 50, 67
1, 447287, Note_off_c, 0, 83, 67
1, 447292, Note_off_c, 0, 79, 59
1, 447292, Note_off_c, 0, 86, 61
1, 447359, Note_on_c, 0, 42, 82
1, 447360, Note_on_c, 0, 54, 85
1, 447383, Note_off_c, 0, 54, 69
1, 447390, Note_off_c, 0, 42, 61
1, 447462, Note_on_c, 0, 43, 77
1, 447462, Note_on_c, 0, 55, 81
1, 447465, Note_on_c, 0, 83, 77
1, 447467, Note_on_c, 0, 74, 72
1, 447468, Note_on_c, 0, 79, 77
1, 447485, Note_off_c, 0, 43, 65
1, 447486, Note_off_c, 0, 55, 70
1, 447490, Note_off_c, 0, 74, 68
1, 447491, Note_off_c, 0, 79, 66
1, 447503, Note_off_c, 0, 83, 60
1, 447550, Note_on_c, 0, 56, 96
1, 447551, Note_on_c, 0, 74, 70
1, 447552, Note_on_c, 0, 44, 87
1, 447553, Note_on_c, 0, 82, 85
1, 447558, Note_on_c, 0, 86, 72
1, 447562, Note_on_c, 0, 79, 65
1, 447569, Note_off_c, 0, 74, 69
1, 447579, Note_off_c, 0, 79, 68
1, 447594, Note_off_c, 0, 56, 62
1, 447596, Note_off_c, 0, 82, 66
1, 447597, Note_off_c, 0, 44, 59
1, 447597, Note_off_c, 0, 86, 62
1, 447652, Note_on_c, 0, 57, 87
1, 447655, Note_on_c, 0, 45, 86
1, 447686, Note_off_c, 0, 45, 66
1, 447688, Note_off_c, 0, 57, 62
1, 447751, Note_on_c, 0, 46, 75
1, 447753, Note_on_c, 0, 58, 96
1, 447760, Note_on_c, 0, 91, 89
1, 447760, Note_on_c, 0, 94, 92
1, 447764, Note_on_c, 0, 86, 84
1, 447766, Note_on_c, 0, 98, 83
1, 447781, Note_off_c, 0, 94, 67
1, 447782, Note_off_c, 0, 86, 71
1, 447785, Note_off_c, 0, 98, 72
1, 447788, Note_off_c, 0, 91, 58
1, 447793, Note_off_c, 0, 58, 62
1, 447803, Note_off_c, 0, 46, 63
1, 447849, Note_on_c, 0, 59, 96
1, 447851, Note_on_c, 0, 47, 92
1, 447854, Note_on_c, 0, 86, 92
1, 447857, Note_on_c, 0, 91, 87
1, 447857, Note_on_c, 0, 98, 86
1, 447859, Note_on_c, 0, 94, 85
1, 447882, Note_off_c, 0, 59, 64
1, 447886, Note_off_c, 0, 47, 65
1, 447928, Note_off_c, 0, 86, 59
1, 447936, Note_off_c, 0, 98, 64
1, 447942, Note_off_c, 0, 91, 57
1, 447945, Note_off_c, 0, 94, 63
1, 447948, Note_on_c, 0, 60, 97
1, 447951, Note_on_c, 0, 48, 94
1, 447991, Note_off_c, 0, 60, 68
1, 447994, Note_off_c, 0, 48, 65
1, 448000, Control_c, 0, 64, 86
1, 448016, Control_c, 0, 64, 60
1, 448031, Control_c, 0, 64, 27
1, 448045, Control_c, 0, 64, 0
1, 448053, Note_on_c, 0, 94, 90
1, 448056, Note_on_c, 0, 88, 79
1, 448059, Note_on_c, 0, 61, 96
1, 448059, Note_on_c, 0, 49, 70
1, 448076, Note_off_c, 0, 88, 72
1, 448078, Note_on_c, 0, 100, 49
1, 448079, Note_on_c, 0, 91, 46
1, 448094, Note_off_c, 0, 94, 67
1, 448097, Note_off_c, 0, 91, 39
1, 448103, Note_off_c, 0, 61, 63
1, 448103, Note_off_c, 0, 100, 59
1, 448111, Note_off_c, 0, 49, 67
1, 448176, Note_on_c, 0, 90, 109
1, 448178, Note_on_c, 0, 94, 85
1, 448178, Control_c, 0, 64, 69
1, 448180, Note_on_c, 0, 93, 107
1, 448180, Note_on_c, 0, 102, 102
1, 448182, Note_on_c, 0, 62, 92
1, 448187, Note_on_c, 0, 50, 97
1, 448193, Note_off_c, 0, 93, 74
1, 448193, Note_off_c, 0, 102, 76
1, 448193, Control_c, 0, 64, 127
1, 448199, Note_off_c, 0, 94, 71
1, 448208, Note_off_c, 0, 90, 70
1, 448217, Note_on_c, 0, 51, 36
1, 448239, Note_off_c, 0, 51, 60
1, 448425, Note_on_c, 0, 69, 82
1, 448432, Note_off_c, 0, 50, 56
1, 448441, Note_off_c, 0, 69, 76
1, 448443, Note_on_c, 0, 74, 50
1, 448468, Note_off_c, 0, 74, 61
1, 448479, Note_off_c, 0, 62, 60
1, 448491, Note_on_c, 0, 74, 84
1, 448495, Note_on_c, 0, 69, 102
1, 448530, Note_off_c, 0, 69, 69
1, 448530, Note_off_c, 0, 74, 69
1, 448710, Note_on_c, 0, 69, 90
1, 448725, Note_off_c, 0, 69, 74
1, 448728, Note_on_c, 0, 62, 60
1, 448759, Note_off_c, 0, 62, 60
1, 448791, Note_on_c, 0, 69, 105
1, 448798, Note_on_c, 0, 62, 88
1, 448819, Note_off_c, 0, 69, 74
1, 448825, Note_off_c, 0, 62, 67
1, 449022, Note_on_c, 0, 57, 80
1, 449030, Note_on_c, 0, 62, 72
1, 449039, Note_off_c, 0, 57, 73
1, 449046, Note_off_c, 0, 62, 69
1, 449089, Note_on_c, 0, 57, 96
1, 449091, Note_on_c, 0, 62, 93
1, 449123, Note_off_c, 0, 57, 66
1, 449144, Note_off_c, 0, 62, 64
1, 449314, Note_on_c, 0, 57, 90
1, 449334, Note_off_c, 0, 57, 70
1, 449341, Note_on_c, 0, 50, 45
1, 449370, Note_off_c, 0, 50, 52
1, 449384, Note_on_c, 0, 57, 104
1, 449394, Note_on_c, 0, 50, 75
1, 449417, Note_off_c, 0, 57, 68
1, 449439, Note_off_c, 0, 50, 64
1, 449632, Note_on_c, 0, 86, 74
1, 449635, Note_on_c, 0, 81, 72
1, 449638, Note_on_c, 0, 93, 73
1, 449652, Note_off_c, 0, 81, 70
1, 449654, Note_off_c, 0, 86, 69
1, 449660, Note_off_c, 0, 93, 65
1, 449662, Control_c, 0, 64, 55
1, 449677, Control_c, 0, 64, 0
1, 449695, Note_on_c, 0, 81, 106
1, 449697, Note_on_c, 0, 86, 105
1, 449698, Note_on_c, 0, 48, 111
1, 449699, Note_on_c, 0, 93, 102
1, 449705, Note_on_c, 0, 38, 100
1, 449706, Control_c, 0, 64, 36
1, 449721, Control_c, 0, 64, 72
1, 449733, Note_off_c, 0, 93, 63
1, 449735, Control_c, 0, 64, 127
1, 449743, Note_off_c, 0, 81, 63
1, 449746, Note_off_c, 0, 86, 66
1, 449936, Note_on_c, 0, 81, 83
1, 449941, Note_off_c, 0, 38, 60
1, 449942, Note_on_c, 0, 76, 73
1, 449956, Note_off_c, 0, 81, 72
1, 449960, Note_off_c, 0, 76, 70
1, 449966, Note_off_c, 0, 48, 63
1, 449995, Note_on_c, 0, 88, 65
1, 450004, Note_on_c, 0, 76, 77
1, 450005, Note_on_c, 0, 81, 88
1, 450026, Note_off_c, 0, 81, 65
1, 450028, Note_off_c, 0, 76, 65
1, 450031, Note_off_c, 0, 88, 65
1, 450208, Note_on_c, 0, 50, 87
1, 450211, Note_on_c, 0, 60, 83
1, 450214, Note_on_c, 0, 74, 72
1, 450218, Note_on_c, 0, 81, 67
1, 450220, Note_on_c, 0, 69, 65
1, 450224, Control_c, 0, 64, 87
1, 450225, Note_off_c, 0, 60, 73
1, 450236, Note_off_c, 0, 50, 69
1, 450238, Note_off_c, 0, 74, 71
1, 450241, Note_off_c, 0, 81, 70
1, 450244, Note_off_c, 0, 69, 69
1, 450247, Control_c, 0, 64, 52
1, 450261, Control_c, 0, 64, 0
1, 450283, Note_on_c, 0, 60, 88
1, 450288, Note_on_c, 0, 50, 86
1, 450291, Note_on_c, 0, 74, 81
1, 450292, Note_on_c, 0, 69, 80
1, 450299, Note_on_c, 0, 81, 72
1, 450315, Note_off_c, 0, 50, 67
1, 450315, Note_off_c, 0, 81, 69
1, 450316, Note_off_c, 0, 69, 68
1, 450320, Note_off_c, 0, 60, 62
1, 450331, Note_off_c, 0, 74, 66
1, 450470, Note_on_c, 0, 66, 95
1, 450473, Note_on_c, 0, 78, 85
1, 450473, Note_on_c, 0, 60, 93
1, 450478, Note_on_c, 0, 50, 76
1, 450478, Note_on_c, 0, 74, 69
1, 450491, Note_off_c, 0, 60, 73
1, 450496, Note_off_c, 0, 50, 68
1, 450500, Note_off_c, 0, 74, 69
1, 450508, Note_off_c, 0, 66, 64
1, 450517, Note_off_c, 0, 78, 60
1, 450632, Control_c, 0, 64, 80
1, 450633, Note_on_c, 0, 67, 109
1, 450635, Note_on_c, 0, 59, 96
1, 450637, Note_on_c, 0, 74, 88
1, 450637, Note_on_c, 0, 79, 100
1, 450639, Note_on_c, 0, 50, 92
1, 450647, Control_c, 0, 64, 127
1, 450651, Note_off_c, 0, 59, 76
1, 450659, Note_off_c, 0, 67, 66
1, 450660, Note_off_c, 0, 50, 72
1, 450660, Note_off_c, 0, 74, 64
1, 450673, Note_off_c, 0, 79, 63
1, 450842, Note_on_c, 0, 66, 94
1, 450846, Note_on_c, 0, 54, 65
1, 450864, Note_off_c, 0, 66, 65
1, 450876, Note_off_c, 0, 54, 65
1, 450894, Note_on_c, 0, 79, 86
1, 450896, Note_on_c, 0, 83, 79
1, 450908, Note_on_c, 0, 86, 58
1, 450912, Note_off_c, 0, 79, 72
1, 450913, Note_on_c, 0, 91, 53
1, 450915, Note_off_c, 0, 83, 73
1, 450929, Note_off_c, 0, 86, 62
1, 450939, Note_off_c, 0, 91, 56
1, 450959, Note_on_c, 0, 67, 93
1, 450965, Note_on_c, 0, 55, 77
1, 450969, Note_on_c, 0, 79, 74
1, 450986, Note_off_c, 0, 67, 70
1, 450992, Note_on_c, 0, 83, 55
1, 450996, Note_on_c, 0, 86, 51
1, 450998, Note_off_c, 0, 55, 71
1, 451002, Note_off_c, 0, 79, 61
1, 451011, Note_off_c, 0, 83, 64
1, 451016, Note_on_c, 0, 57, 20
1, 451021, Note_off_c, 0, 86, 59
1, 451062, Note_off_c, 0, 57, 48
1, 451083, Note_on_c, 0, 62, 82
1, 451087, Note_on_c, 0, 50, 78
1, 451103, Note_off_c, 0, 62, 72
1, 451114, Note_off_c, 0, 50, 68
1, 451183, Note_on_c, 0, 48, 89
1, 451186, Note_on_c, 0, 83, 85
1, 451189, Note_on_c, 0, 60, 73
1, 451189, Note_on_c, 0, 74, 78
1, 451190, Note_on_c, 0, 79, 81
1, 451205, Note_off_c, 0, 48, 73
1, 451206, Note_off_c, 0, 60, 70
1, 451209, Note_off_c, 0, 74, 73
1, 451214, Note_on_c, 0, 59, 40
1, 451215, Note_off_c, 0, 79, 66
1, 451223, Note_off_c, 0, 83, 59
1, 451242, Note_off_c, 0, 59, 56
1, 451267, Note_on_c, 0, 79, 81
1, 451269, Note_on_c, 0, 58, 100
1, 451272, Note_on_c, 0, 74, 80
1, 451272, Note_on_c, 0, 86, 85
1, 451272, Note_on_c, 0, 46, 97
1, 451275, Note_on_c, 0, 82, 83
1, 451291, Note_off_c, 0, 74, 71
1, 451299, Note_off_c, 0, 46, 65
1, 451302, Note_off_c, 0, 79, 63
1, 451305, Note_off_c, 0, 58, 64
1, 451321, Note_off_c, 0, 86, 64
1, 451322, Note_off_c, 0, 82, 67
1, 451370, Note_on_c, 0, 57, 98
1, 451374, Note_on_c, 0, 45, 82
1, 451406, Note_off_c, 0, 57, 63
1, 451408, Note_off_c, 0, 45, 66
1, 451470, Note_on_c, 0, 91, 95
1, 451472, Note_on_c, 0, 86, 97
1, 451472, Note_on_c, 0, 94, 92
1, 451473, Note_on_c, 0, 98, 99
1, 451476, Note_on_c, 0, 55, 95
1, 451480, Note_on_c, 0, 43, 89
1, 451494, Note_off_c, 0, 94, 64
1, 451495, Note_off_c, 0, 86, 62
1, 451504, Note_off_c, 0, 43, 68
1, 451504, Note_off_c, 0, 55, 66
1, 451507, Note_off_c, 0, 91, 60
1, 451510, Note_off_c, 0, 98, 64
1, 451565, Note_on_c, 0, 86, 100
1, 451570, Note_on_c, 0, 54, 103
1, 451570, Note_on_c, 0, 98, 87
1, 451571, Note_on_c, 0, 94, 91
1, 451572, Note_on_c, 0, 42, 95
1, 451573, Note_on_c, 0, 91, 86
1, 451586, Note_on_c, 0, 90, 48
1, 451609, Note_off_c, 0, 54, 66
1, 451610, Note_off_c, 0, 42, 61
1, 451622, Note_off_c, 0, 90, 51
1, 451629, Note_off_c, 0, 86, 54
1, 451629, Note_off_c, 0, 98, 65
1, 451638, Note_off_c, 0, 91, 55
1, 451639, Note_off_c, 0, 94, 66
1, 451671, Note_on_c, 0, 52, 93
1, 451675, Note_on_c, 0, 40, 89
1, 451709, Note_off_c, 0, 52, 67
1, 451713, Note_off_c, 0, 40, 65
1, 451717, Note_on_c, 0, 94, 94
1, 451721, Note_on_c, 0, 88, 90
1, 451727, Note_on_c, 0, 100, 86
1, 451740, Note_on_c, 0, 91, 62
1, 451757, Note_off_c, 0, 88, 61
1, 451761, Note_on_c, 0, 97, 45
1, 451761, Note_off_c, 0, 91, 60
1, 451761, Note_off_c, 0, 94, 69
1, 451781, Note_off_c, 0, 100, 66
1, 451788, Note_off_c, 0, 97, 51
1, 451788, Control_c, 0, 64, 54
1, 451791, Note_on_c, 0, 50, 96
1, 451797, Note_on_c, 0, 38, 89
1, 451803, Control_c, 0, 64, 0
1, 451833, Note_off_c, 0, 50, 60
1, 451837, Note_off_c, 0, 38, 66
1, 451904, Note_on_c, 0, 93, 83
1, 451907, Control_c, 0, 64, 85
1, 451908, Note_on_c, 0, 90, 103
1, 451913, Note_on_c, 0, 102, 96
1, 451922, Control_c, 0, 64, 127
1, 451927, Note_off_c, 0, 102, 75
1, 451943, Note_off_c, 0, 93, 63
1, 451954, Note_on_c, 0, 99, 31
1, 451955, Note_off_c, 0, 99, 127
1, 451958, Note_off_c, 0, 90, 66
1, 451990, Note_on_c, 0, 37, 78
1, 451993, Note_on_c, 0, 49, 76
1, 452017, Note_off_c, 0, 37, 67
1, 452021, Note_off_c, 0, 49, 69
1, 452097, Note_on_c, 0, 38, 78
1, 452102, Note_on_c, 0, 50, 72
1, 452124, Note_off_c, 0, 50, 65
1, 452127, Note_off_c, 0, 38, 66
1, 452207, Note_on_c, 0, 42, 78
1, 452214, Note_on_c, 0, 54, 69
1, 452232, Note_off_c, 0, 42, 66
1, 452244, Note_off_c, 0, 54, 66
1, 452305, Note_on_c, 0, 43, 74
1, 452308, Note_on_c, 0, 55, 72
1, 452332, Note_off_c, 0, 55, 67
1, 452333, Note_off_c, 0, 43, 65
1, 452417, Note_on_c, 0, 44, 77
1, 452417, Note_on_c, 0, 56, 78
1, 452449, Note_off_c, 0, 44, 62
1, 452449, Note_off_c, 0, 56, 63
1, 452470, Note_on_c, 0, 78, 82
1, 452471, Note_on_c, 0, 81, 74
1, 452472, Note_on_c, 0, 86, 74
1, 452492, Note_off_c, 0, 78, 71
1, 452502, Note_off_c, 0, 81, 69
1, 452503, Note_off_c, 0, 86, 66
1, 452536, Note_on_c, 0, 45, 80
1, 452538, Note_on_c, 0, 78, 104
1, 452539, Note_on_c, 0, 57, 77
1, 452542, Note_on_c, 0, 81, 92
1, 452547, Note_on_c, 0, 86, 91
1, 452550, Note_on_c, 0, 90, 83
1, 452561, Note_off_c, 0, 57, 70
1, 452563, Note_off_c, 0, 45, 69
1, 452635, Note_on_c, 0, 58, 90
1, 452636, Note_on_c, 0, 46, 91
1, 452672, Note_off_c, 0, 46, 63
1, 452673, Note_off_c, 0, 58, 58
1, 452735, Note_on_c, 0, 59, 94
1, 452737, Note_on_c, 0, 47, 92
1, 452765, Note_off_c, 0, 59, 61
1, 452769, Note_off_c, 0, 47, 65
1, 452814, Note_off_c, 0, 81, 59
1, 452815, Note_off_c, 0, 78, 61
1, 452834, Note_off_c, 0, 90, 57
1, 452837, Note_on_c, 0, 60, 103
1, 452838, Note_off_c, 0, 86, 54
1, 452842, Note_on_c, 0, 48, 92
1, 452868, Note_off_c, 0, 48, 69
1, 452871, Note_off_c, 0, 60, 68
1, 452874, Note_on_c, 0, 49, 46
1, 452901, Note_off_c, 0, 49, 57
1, 452935, Note_on_c, 0, 61, 101
1, 452941, Note_on_c, 0, 49, 83
1, 452972, Note_off_c, 0, 61, 68
1, 452977, Note_off_c, 0, 49, 62
1, 453030, Note_on_c, 0, 62, 94
1, 453034, Note_on_c, 0, 50, 85
1, 453052, Note_off_c, 0, 62, 66
1, 453070, Control_c, 0, 64, 58
1, 453078, Note_on_c, 0, 51, 18
1, 453079, Note_off_c, 0, 50, 63
1, 453084, Control_c, 0, 64, 0
1, 453102, Note_off_c, 0, 51, 43
1, 453126, Note_on_c, 0, 79, 105
1, 453129, Note_on_c, 0, 88, 94
1, 453129, Note_on_c, 0, 91, 92
1, 453130, Note_on_c, 0, 84, 85
1, 453144, Control_c, 0, 64, 54
1, 453159, Control_c, 0, 64, 127
1, 453175, Note_off_c, 0, 91, 63
1, 453195, Note_off_c, 0, 88, 66
1, 453208, Note_off_c, 0, 79, 61
1, 453210, Note_off_c, 0, 84, 62
1, 453221, Note_on_c, 0, 47, 73
1, 453223, Note_on_c, 0, 35, 72
1, 453254, Note_off_c, 0, 47, 68
1, 453258, Note_off_c, 0, 35, 66
1, 453333, Note_on_c, 0, 48, 76
1, 453335, Note_on_c, 0, 36, 72
1, 453359, Note_off_c, 0, 48, 68
1, 453364, Note_off_c, 0, 36, 63
1, 453438, Note_on_c, 0, 52, 82
1, 453444, Note_on_c, 0, 40, 70
1, 453461, Note_off_c, 0, 52, 72
1, 453468, Note_off_c, 0, 40, 63
1, 453469, Note_on_c, 0, 41, 42
1, 453505, Note_off_c, 0, 41, 50
1, 453546, Note_on_c, 0, 53, 81
1, 453551, Note_on_c, 0, 41, 69
1, 453567, Note_off_c, 0, 53, 73
1, 453579, Note_off_c, 0, 41, 65
1, 453646, Note_on_c, 0, 54, 84
1, 453648, Note_on_c, 0, 42, 81
1, 453677, Note_on_c, 0, 67, 85
1, 453677, Note_off_c, 0, 42, 65
1, 453678, Note_on_c, 0, 76, 80
1, 453678, Note_off_c, 0, 54, 62
1, 453684, Note_on_c, 0, 72, 70
1, 453695, Note_off_c, 0, 67, 75
1, 453698, Note_off_c, 0, 76, 72
1, 453707, Note_off_c, 0, 72, 69
1, 453745, Note_on_c, 0, 67, 103
1, 453745, Note_on_c, 0, 79, 86
1, 453751, Note_on_c, 0, 72, 89
1, 453752, Note_on_c, 0, 76, 93
1, 453753, Note_on_c, 0, 43, 78
1, 453754, Note_on_c, 0, 55, 87
1, 453776, Note_off_c, 0, 43, 64
1, 453776, Note_off_c, 0, 55, 70
1, 453847, Note_on_c, 0, 56, 91
1, 453849, Note_on_c, 0, 44, 76
1, 453886, Note_off_c, 0, 44, 62
1, 453886, Note_off_c, 0, 56, 64
1, 453941, Note_on_c, 0, 57, 87
1, 453945, Note_on_c, 0, 45, 77
1, 453967, Note_off_c, 0, 67, 58
1, 453978, Note_off_c, 0, 57, 61
1, 453982, Note_off_c, 0, 45, 67
1, 454034, Poly_aftertouch_c, 0, 47, 127
1, 454038, Note_off_c, 0, 72, 61
1, 454041, Note_off_c, 0, 76, 62
1, 454044, Poly_aftertouch_c, 0, 47, 0
1, 454047, Note_on_c, 0, 46, 82
1, 454048, Note_on_c, 0, 58, 98
1, 454066, Note_off_c, 0, 79, 63
1, 454068, Poly_aftertouch_c, 0, 47, 0
1, 454088, Note_off_c, 0, 58, 63
1, 454098, Note_off_c, 0, 46, 63
1, 454141, Note_on_c, 0, 59, 92
1, 454143, Note_on_c, 0, 47, 87
1, 454172, Note_off_c, 0, 47, 66
1, 454179, Note_off_c, 0, 59, 61
1, 454234, Note_on_c, 0, 60, 98
1, 454242, Note_on_c, 0, 48, 87
1, 454269, Note_off_c, 0, 60, 63
1, 454291, Note_off_c, 0, 48, 64
1, 454300, Control_c, 0, 64, 64
1, 454315, Control_c, 0, 64, 0
1, 454327, Note_on_c, 0, 82, 110
1, 454331, Note_on_c, 0, 86, 85
1, 454331, Note_on_c, 0, 94, 97
1, 454333, Note_on_c, 0, 89, 83
1, 454361, Note_on_c, 0, 92, 53
1, 454374, Control_c, 0, 64, 63
1, 454386, Note_off_c, 0, 94, 68
1, 454389, Control_c, 0, 64, 127
1, 454399, Note_off_c, 0, 92, 53
1, 454408, Note_off_c, 0, 89, 67
1, 454417, Note_off_c, 0, 86, 61
1, 454420, Note_off_c, 0, 82, 59
1, 454425, Note_on_c, 0, 45, 85
1, 454449, Note_off_c, 0, 45, 67
1, 454450, Note_on_c, 0, 33, 37
1, 454453, Note_on_c, 0, 35, 38
1, 454486, Note_off_c, 0, 35, 54
1, 454487, Note_off_c, 0, 33, 49
1, 454530, Note_on_c, 0, 34, 76
1, 454532, Note_on_c, 0, 46, 83
1, 454557, Note_off_c, 0, 46, 69
1, 454559, Note_off_c, 0, 34, 63
1, 454633, Note_on_c, 0, 50, 80
1, 454637, Note_on_c, 0, 38, 78
1, 454656, Note_off_c, 0, 50, 69
1, 454661, Note_off_c, 0, 38, 67
1, 454745, Note_on_c, 0, 51, 81
1, 454745, Note_on_c, 0, 39, 75
1, 454770, Note_off_c, 0, 51, 67
1, 454776, Note_off_c, 0, 39, 65
1, 454851, Note_on_c, 0, 40, 76
1, 454852, Note_on_c, 0, 52, 70
1, 454873, Note_on_c, 0, 70, 90
1, 454876, Note_off_c, 0, 40, 66
1, 454877, Note_off_c, 0, 52, 71
1, 454882, Note_on_c, 0, 74, 64
1, 454884, Note_on_c, 0, 77, 63
1, 454890, Note_off_c, 0, 70, 74
1, 454906, Note_off_c, 0, 77, 67
1, 454906, Note_off_c, 0, 74, 70
1, 454947, Note_on_c, 0, 70, 98
1, 454949, Note_on_c, 0, 82, 83
1, 454953, Note_on_c, 0, 53, 89
1, 454956, Note_on_c, 0, 41, 79
1, 454956, Note_on_c, 0, 74, 70
1, 454962, Note_on_c, 0, 77, 78
1, 454975, Note_off_c, 0, 53, 72
1, 454980, Note_off_c, 0, 41, 67
1, 455046, Note_on_c, 0, 42, 79
1, 455046, Note_on_c, 0, 54, 92
1, 455085, Note_off_c, 0, 54, 63
1, 455089, Note_off_c, 0, 42, 61
1, 455141, Note_on_c, 0, 55, 94
1, 455144, Note_on_c, 0, 43, 85
1, 455179, Note_off_c, 0, 55, 62
1, 455180, Note_off_c, 0, 43, 62
1, 455215, Note_off_c, 0, 70, 60
1, 455222, Note_off_c, 0, 74, 61
1, 455225, Note_off_c, 0, 77, 58
1, 455241, Note_on_c, 0, 56, 91
1, 455244, Note_on_c, 0, 44, 75
1, 455262, Note_off_c, 0, 56, 71
1, 455268, Note_on_c, 0, 57, 57
1, 455281, Note_off_c, 0, 82, 62
1, 455288, Note_on_c, 0, 55, 33
1, 455290, Note_off_c, 0, 44, 61
1, 455290, Note_off_c, 0, 57, 62
1, 455315, Note_off_c, 0, 55, 59
1, 455341, Note_on_c, 0, 57, 93
1, 455344, Note_on_c, 0, 45, 86
1, 455362, Note_off_c, 0, 57, 62
1, 455367, Note_on_c, 0, 46, 45
1, 455380, Note_off_c, 0, 45, 66
1, 455394, Note_off_c, 0, 46, 56
1, 455427, Note_on_c, 0, 58, 106
1, 455433, Note_on_c, 0, 46, 87
1, 455462, Note_off_c, 0, 58, 68
1, 455490, Note_off_c, 0, 46, 62
1, 455517, Control_c, 0, 64, 49
1, 455532, Control_c, 0, 64, 0
1, 455535, Note_on_c, 0, 72, 100
1, 455536, Note_on_c, 0, 75, 91
1, 455537, Note_on_c, 0, 80, 90
1, 455542, Note_on_c, 0, 84, 86
1, 455559, Note_on_c, 0, 82, 59
1, 455572, Note_off_c, 0, 84, 61
1, 455579, Note_off_c, 0, 82, 63
1, 455591, Control_c, 0, 64, 32
1, 455593, Note_off_c, 0, 72, 64
1, 455596, Note_off_c, 0, 80, 63
1, 455597, Note_off_c, 0, 75, 64
1, 455606, Control_c, 0, 64, 52
1, 455621, Control_c, 0, 64, 69
1, 455631, Note_on_c, 0, 43, 75
1, 455632, Note_on_c, 0, 31, 84
1, 455636, Control_c, 0, 64, 127
1, 455656, Note_off_c, 0, 31, 66
1, 455659, Note_off_c, 0, 43, 63
1, 455722, Note_on_c, 0, 44, 82
1, 455725, Note_on_c, 0, 32, 72
1, 455748, Note_off_c, 0, 44, 66
1, 455759, Note_off_c, 0, 32, 64
1, 455769, Control_c, 0, 64, 88
1, 455784, Control_c, 0, 64, 59
1, 455799, Control_c, 0, 64, 18
1, 455813, Control_c, 0, 64, 0
1, 455835, Note_on_c, 0, 60, 72
1, 455836, Note_on_c, 0, 68, 65
1, 455840, Note_on_c, 0, 72, 66
1, 455848, Note_on_c, 0, 63, 59
1, 455858, Control_c, 0, 64, 28
1, 455873, Control_c, 0, 64, 45
1, 455887, Control_c, 0, 64, 63
1, 455898, Note_off_c, 0, 72, 61
1, 455902, Control_c, 0, 64, 95
1, 455906, Note_off_c, 0, 63, 61
1, 455916, Note_off_c, 0, 60, 57
1, 455917, Control_c, 0, 64, 127
1, 455933, Note_on_c, 0, 43, 69
1, 455943, Note_off_c, 0, 68, 59
1, 455944, Note_on_c, 0, 55, 56
1, 455961, Note_off_c, 0, 43, 64
1, 455968, Note_off_c, 0, 55, 60
1, 456025, Note_on_c, 0, 56, 87
1, 456032, Note_on_c, 0, 44, 77
1, 456074, Note_off_c, 0, 44, 59
1, 456074, Note_off_c, 0, 56, 62
1, 456081, Control_c, 0, 64, 69
1, 456095, Control_c, 0, 64, 48
1, 456104, Note_on_c, 0, 61, 93
1, 456110, Control_c, 0, 64, 9
1, 456116, Note_on_c, 0, 66, 71
1, 456117, Note_on_c, 0, 73, 74
1, 456124, Note_on_c, 0, 69, 61
1, 456125, Control_c, 0, 64, 25
1, 456140, Note_off_c, 0, 61, 67
1, 456140, Control_c, 0, 64, 46
1, 456146, Note_off_c, 0, 66, 64
1, 456151, Note_off_c, 0, 69, 69
1, 456155, Control_c, 0, 64, 66
1, 456164, Note_off_c, 0, 73, 66
1, 456170, Control_c, 0, 64, 127
1, 456208, Note_on_c, 0, 41, 82
1, 456212, Note_on_c, 0, 53, 79
1, 456243, Note_off_c, 0, 41, 66
1, 456243, Note_off_c, 0, 53, 71
1, 456302, Note_on_c, 0, 54, 86
1, 456304, Note_on_c, 0, 42, 78
1, 456325, Note_off_c, 0, 54, 71
1, 456342, Note_off_c, 0, 42, 61
1, 456375, Poly_aftertouch_c, 0, 41, 127
1, 456392, Note_on_c, 0, 73, 100
1, 456396, Note_on_c, 0, 82, 89
1, 456398, Note_on_c, 0, 78, 87
1, 456399, Note_on_c, 0, 85, 82
1, 456420, Poly_aftertouch_c, 0, 41, 0
1, 456453, Note_off_c, 0, 78, 62
1, 456459, Note_off_c, 0, 73, 61
1, 456479, Note_off_c, 0, 85, 61
1, 456480, Note_off_c, 0, 82, 63
1, 456482, Note_on_c, 0, 41, 91
1, 456486, Note_on_c, 0, 29, 86
1, 456511, Note_off_c, 0, 41, 66
1, 456522, Note_off_c, 0, 29, 64
1, 456529, Note_on_c, 0, 30, 14
1, 456562, Note_off_c, 0, 30, 0
1, 456574, Note_on_c, 0, 30, 48
1, 456580, Note_on_c, 0, 42, 97
1, 456607, Control_c, 0, 64, 65
1, 456622, Control_c, 0, 64, 0
1, 456623, Note_off_c, 0, 42, 61
1, 456623, Note_off_c, 0, 30, 63
1, 456664, Note_on_c, 0, 76, 107
1, 456665, Note_on_c, 0, 83, 88
1, 456667, Note_on_c, 0, 88, 91
1, 456672, Note_on_c, 0, 80, 81
1, 456681, Control_c, 0, 64, 69
1, 456696, Control_c, 0, 64, 127
1, 456704, Note_off_c, 0, 88, 62
1, 456709, Note_off_c, 0, 83, 66
1, 456718, Note_off_c, 0, 76, 67
1, 456720, Note_off_c, 0, 80, 60
1, 456774, Note_on_c, 0, 51, 82
1, 456775, Note_on_c, 0, 39, 72
1, 456798, Note_off_c, 0, 51, 70
1, 456802, Note_off_c, 0, 39, 67
1, 456860, Note_on_c, 0, 52, 83
1, 456864, Note_on_c, 0, 40, 83
1, 456886, Note_off_c, 0, 40, 68
1, 456886, Note_off_c, 0, 52, 70
1, 456949, Note_on_c, 0, 76, 94
1, 456950, Note_on_c, 0, 68, 90
1, 456951, Note_on_c, 0, 71, 81
1, 457047, Note_off_c, 0, 76, 66
1, 457050, Note_on_c, 0, 51, 73
1, 457052, Note_on_c, 0, 63, 77
1, 457069, Note_off_c, 0, 68, 58
1, 457073, Note_off_c, 0, 63, 68
1, 457076, Note_off_c, 0, 71, 38
1, 457077, Note_off_c, 0, 51, 69
1, 457143, Note_on_c, 0, 64, 92
1, 457147, Note_on_c, 0, 52, 87
1, 457147, Control_c, 0, 64, 95
1, 457162, Control_c, 0, 64, 53
1, 457177, Control_c, 0, 64, 0
1, 457189, Note_off_c, 0, 64, 65
1, 457201, Note_off_c, 0, 52, 64
1, 457222, Control_c, 0, 64, 23
1, 457224, Note_on_c, 0, 78, 96
1, 457225, Note_on_c, 0, 69, 90
1, 457228, Note_on_c, 0, 74, 81
1, 457237, Control_c, 0, 64, 66
1, 457251, Control_c, 0, 64, 127
1, 457258, Note_off_c, 0, 69, 69
1, 457275, Note_off_c, 0, 74, 67
1, 457292, Note_off_c, 0, 78, 69
1, 457319, Note_on_c, 0, 49, 86
1, 457324, Note_on_c, 0, 61, 88
1, 457344, Note_off_c, 0, 61, 72
1, 457347, Note_off_c, 0, 49, 66
1, 457413, Note_on_c, 0, 62, 89
1, 457416, Note_on_c, 0, 50, 86
1, 457439, Note_off_c, 0, 62, 63
1, 457445, Note_on_c, 0, 51, 46
1, 457463, Note_off_c, 0, 50, 62
1, 457473, Control_c, 0, 64, 74
1, 457475, Note_off_c, 0, 51, 51
1, 457488, Control_c, 0, 64, 45
1, 457499, Note_on_c, 0, 90, 101
1, 457501, Note_on_c, 0, 86, 90
1, 457502, Note_on_c, 0, 81, 99
1, 457503, Control_c, 0, 64, 0
1, 457519, Control_c, 0, 64, 30
1, 457533, Control_c, 0, 64, 54
1, 457548, Control_c, 0, 64, 96
1, 457563, Control_c, 0, 64, 127
1, 457585, Note_on_c, 0, 49, 93
1, 457586, Note_on_c, 0, 37, 86
1, 457608, Note_off_c, 0, 49, 72
1, 457615, Note_off_c, 0, 37, 64
1, 457635, Note_off_c, 0, 90, 61
1, 457640, Note_off_c, 0, 81, 54
1, 457657, Note_off_c, 0, 86, 56
1, 457688, Note_on_c, 0, 50, 95
1, 457696, Note_on_c, 0, 38, 82
1, 457735, Control_c, 0, 64, 64
1, 457744, Note_off_c, 0, 50, 62
1, 457749, Control_c, 0, 64, 18
1, 457759, Note_off_c, 0, 38, 62
1, 457764, Control_c, 0, 64, 0
1, 457779, Control_c, 0, 64, 25
1, 457780, Note_on_c, 0, 79, 102
1, 457783, Note_on_c, 0, 84, 83
1, 457785, Note_on_c, 0, 88, 91
1, 457787, Note_on_c, 0, 91, 88
1, 457794, Control_c, 0, 64, 56
1, 457804, Note_off_c, 0, 91, 70
1, 457809, Control_c, 0, 64, 127
1, 457820, Note_off_c, 0, 88, 62
1, 457824, Note_off_c, 0, 79, 65
1, 457824, Note_off_c, 0, 84, 60
1, 457867, Note_on_c, 0, 47, 82
1, 457869, Note_on_c, 0, 35, 82
1, 457892, Note_off_c, 0, 47, 69
1, 457893, Note_off_c, 0, 35, 66
1, 457959, Note_on_c, 0, 48, 89
1, 457967, Note_on_c, 0, 36, 72
1, 457987, Note_off_c, 0, 48, 68
1, 458000, Note_off_c, 0, 36, 64
1, 458054, Note_on_c, 0, 67, 99
1, 458061, Note_on_c, 0, 76, 84
1, 458063, Note_on_c, 0, 79, 82
1, 458064, Note_on_c, 0, 72, 77
1, 458095, Note_off_c, 0, 67, 66
1, 458096, Note_off_c, 0, 72, 59
1, 458116, Note_off_c, 0, 76, 63
1, 458116, Note_off_c, 0, 79, 62
1, 458137, Note_on_c, 0, 47, 86
1, 458137, Note_on_c, 0, 59, 86
1, 458161, Note_off_c, 0, 59, 65
1, 458164, Note_off_c, 0, 47, 67
1, 458239, Note_on_c, 0, 60, 98
1, 458245, Note_on_c, 0, 48, 86
1, 458267, Control_c, 0, 64, 89
1, 458277, Note_off_c, 0, 60, 65
1, 458282, Control_c, 0, 64, 48
1, 458283, Note_off_c, 0, 48, 65
1, 458297, Control_c, 0, 64, 0
1, 458314, Note_on_c, 0, 70, 107
1, 458323, Note_on_c, 0, 77, 85
1, 458324, Note_on_c, 0, 82, 87
1, 458326, Note_on_c, 0, 74, 70
1, 458327, Control_c, 0, 64, 38
1, 458342, Control_c, 0, 64, 62
1, 458349, Note_on_c, 0, 80, 50
1, 458350, Note_off_c, 0, 74, 68
1, 458354, Note_off_c, 0, 70, 66
1, 458356, Control_c, 0, 64, 127
1, 458373, Note_off_c, 0, 77, 61
1, 458379, Note_off_c, 0, 80, 65
1, 458393, Note_off_c, 0, 82, 67
1, 458414, Note_on_c, 0, 45, 88
1, 458414, Note_on_c, 0, 57, 89
1, 458438, Note_off_c, 0, 57, 66
1, 458439, Note_off_c, 0, 45, 69
1, 458494, Poly_aftertouch_c, 0, 46, 0
1, 458504, Note_on_c, 0, 46, 55
1, 458509, Note_on_c, 0, 58, 96
1, 458534, Note_off_c, 0, 58, 64
1, 458560, Note_off_c, 0, 46, 63
1, 458599, Note_on_c, 0, 82, 103
1, 458604, Note_on_c, 0, 94, 95
1, 458607, Note_on_c, 0, 86, 84
1, 458611, Note_on_c, 0, 89, 68
1, 458632, Note_on_c, 0, 92, 57
1, 458640, Note_on_c, 0, 90, 33
1, 458645, Note_off_c, 0, 89, 63
1, 458653, Note_off_c, 0, 86, 61
1, 458659, Note_off_c, 0, 92, 63
1, 458670, Note_off_c, 0, 82, 63
1, 458678, Note_on_c, 0, 45, 94
1, 458678, Note_off_c, 0, 90, 31
1, 458681, Note_on_c, 0, 33, 91
1, 458691, Note_off_c, 0, 94, 63
1, 458708, Note_off_c, 0, 33, 69
1, 458708, Note_off_c, 0, 45, 64
1, 458769, Note_on_c, 0, 46, 96
1, 458769, Note_on_c, 0, 34, 85
1, 458809, Control_c, 0, 64, 56
1, 458815, Note_off_c, 0, 46, 64
1, 458823, Control_c, 0, 64, 0
1, 458824, Note_off_c, 0, 34, 64
1, 458856, Note_on_c, 0, 84, 111
1, 458861, Note_on_c, 0, 87, 93
1, 458861, Note_on_c, 0, 92, 97
1, 458862, Note_on_c, 0, 96, 93
1, 458868, Control_c, 0, 64, 45
1, 458876, Note_on_c, 0, 94, 66
1, 458877, Note_off_c, 0, 96, 74
1, 458883, Control_c, 0, 64, 88
1, 458891, Note_off_c, 0, 92, 61
1, 458891, Note_off_c, 0, 94, 66
1, 458895, Note_off_c, 0, 84, 66
1, 458898, Control_c, 0, 64, 127
1, 458902, Note_off_c, 0, 87, 63
1, 458940, Note_on_c, 0, 31, 82
1, 458942, Note_on_c, 0, 43, 84
1, 458969, Note_off_c, 0, 31, 64
1, 458969, Note_off_c, 0, 43, 67
1, 459025, Note_on_c, 0, 32, 68
1, 459031, Note_on_c, 0, 44, 83
1, 459061, Note_off_c, 0, 44, 64
1, 459066, Note_off_c, 0, 32, 63
1, 459106, Control_c, 0, 64, 53
1, 459121, Control_c, 0, 64, 15
1, 459130, Note_on_c, 0, 72, 91
1, 459136, Note_on_c, 0, 80, 79
1, 459136, Control_c, 0, 64, 41
1, 459138, Note_on_c, 0, 75, 75
1, 459142, Note_on_c, 0, 84, 76
1, 459151, Control_c, 0, 64, 64
1, 459165, Control_c, 0, 64, 127
1, 459174, Note_off_c, 0, 72, 59
1, 459181, Note_off_c, 0, 75, 60
1, 459198, Note_off_c, 0, 80, 62
1, 459207, Note_off_c, 0, 84, 63
1, 459229, Note_on_c, 0, 38, 79
1, 459233, Note_on_c, 0, 50, 72
1, 459252, Note_off_c, 0, 38, 68
1, 459260, Note_off_c, 0, 50, 65
1, 459316, Note_on_c, 0, 51, 89
1, 459323, Note_on_c, 0, 39, 71
1, 459343, Note_off_c, 0, 51, 64
1, 459350, Note_off_c, 0, 39, 67
1, 459402, Note_on_c, 0, 84, 98
1, 459405, Note_on_c, 0, 92, 95
1, 459411, Note_on_c, 0, 87, 78
1, 459411, Note_on_c, 0, 96, 81
1, 459425, Note_off_c, 0, 96, 70
1, 459425, Note_off_c, 0, 92, 67
1, 459431, Note_off_c, 0, 87, 73
1, 459445, Note_off_c, 0, 84, 64
1, 459496, Note_on_c, 0, 43, 81
1, 459499, Note_on_c, 0, 55, 77
1, 459520, Note_off_c, 0, 43, 65
1, 459523, Note_off_c, 0, 55, 69
1, 459574, Note_on_c, 0, 56, 102
1, 459582, Note_on_c, 0, 44, 79
1, 459607, Note_off_c, 0, 44, 66
1, 459613, Note_off_c, 0, 56, 61
1, 459657, Note_on_c, 0, 72, 101
1, 459663, Note_on_c, 0, 80, 86
1, 459664, Note_on_c, 0, 84, 88
1, 459665, Note_on_c, 0, 75, 83
1, 459690, Note_off_c, 0, 75, 66
1, 459696, Note_off_c, 0, 72, 60
1, 459705, Note_off_c, 0, 80, 65
1, 459719, Note_off_c, 0, 84, 66
1, 459750, Note_on_c, 0, 50, 89
1, 459753, Note_on_c, 0, 62, 91
1, 459775, Note_off_c, 0, 62, 68
1, 459777, Note_off_c, 0, 50, 64
1, 459834, Note_on_c, 0, 63, 96
1, 459836, Note_on_c, 0, 51, 78
1, 459869, Control_c, 0, 64, 111
1, 459878, Note_off_c, 0, 63, 63
1, 459883, Note_off_c, 0, 51, 62
1, 459884, Control_c, 0, 64, 52
1, 459899, Control_c, 0, 64, 32
1, 459908, Note_on_c, 0, 84, 108
1, 459911, Note_on_c, 0, 92, 102
1, 459913, Note_on_c, 0, 96, 93
1, 459913, Note_on_c, 0, 87, 92
1, 459914, Control_c, 0, 64, 50
1, 459927, Note_on_c, 0, 94, 73
1, 459929, Control_c, 0, 64, 74
1, 459933, Note_off_c, 0, 96, 64
1, 459943, Note_off_c, 0, 94, 67
1, 459943, Control_c, 0, 64, 127
1, 459944, Note_off_c, 0, 92, 69
1, 459949, Note_off_c, 0, 84, 64
1, 459957, Note_off_c, 0, 87, 61
1, 460012, Note_on_c, 0, 67, 88
1, 460014, Note_on_c, 0, 55, 81
1, 460035, Note_off_c, 0, 67, 69
1, 460037, Note_off_c, 0, 55, 68
1, 460090, Note_on_c, 0, 68, 102
1, 460097, Note_on_c, 0, 56, 83
1, 460128, Note_off_c, 0, 56, 65
1, 460128, Note_off_c, 0, 68, 62
1, 460168, Note_on_c, 0, 72, 105
1, 460174, Note_on_c, 0, 75, 93
1, 460175, Note_on_c, 0, 80, 95
1, 460177, Note_on_c, 0, 84, 90
1, 460199, Note_off_c, 0, 72, 68
1, 460207, Note_on_c, 0, 82, 39
1, 460211, Note_off_c, 0, 75, 62
1, 460218, Note_off_c, 0, 80, 65
1, 460233, Note_off_c, 0, 84, 65
1, 460240, Note_off_c, 0, 82, 56
1, 460265, Note_on_c, 0, 62, 90
1, 460267, Note_on_c, 0, 50, 85
1, 460288, Note_off_c, 0, 62, 69
1, 460289, Note_off_c, 0, 50, 70
1, 460344, Note_on_c, 0, 63, 96
1, 460352, Note_on_c, 0, 51, 86
1, 460381, Note_off_c, 0, 51, 63
1, 460382, Note_off_c, 0, 63, 60
1, 460429, Note_on_c, 0, 84, 114
1, 460434, Note_on_c, 0, 92, 102
1, 460435, Note_on_c, 0, 87, 93
1, 460435, Note_on_c, 0, 96, 94
1, 460450, Note_on_c, 0, 94, 69
1, 460450, Note_off_c, 0, 96, 73
1, 460465, Note_off_c, 0, 94, 66
1, 460471, Note_off_c, 0, 84, 64
1, 460471, Note_off_c, 0, 92, 67
1, 460474, Note_off_c, 0, 87, 66
1, 460528, Note_on_c, 0, 55, 99
1, 460529, Note_on_c, 0, 43, 91
1, 460555, Note_off_c, 0, 43, 67
1, 460556, Note_off_c, 0, 55, 65
1, 460623, Note_on_c, 0, 56, 100
1, 460628, Note_on_c, 0, 44, 91
1, 460661, Note_off_c, 0, 56, 63
1, 460662, Note_off_c, 0, 44, 61
1, 460730, Note_on_c, 0, 72, 106
1, 460733, Note_on_c, 0, 80, 95
1, 460734, Note_on_c, 0, 75, 91
1, 460738, Note_on_c, 0, 84, 91
1, 460775, Note_off_c, 0, 72, 60
1, 460777, Note_on_c, 0, 82, 28
1, 460793, Note_off_c, 0, 75, 64
1, 460806, Note_off_c, 0, 80, 63
1, 460815, Note_off_c, 0, 82, 55
1, 460820, Note_off_c, 0, 84, 64
1, 460840, Note_on_c, 0, 50, 99
1, 460844, Note_on_c, 0, 38, 94
1, 460867, Note_off_c, 0, 50, 63
1, 460872, Note_off_c, 0, 38, 69
1, 460946, Note_on_c, 0, 39, 77
1, 460946, Note_on_c, 0, 51, 96
1, 460984, Note_off_c, 0, 51, 63
1, 460992, Note_off_c, 0, 39, 62
1, 461056, Control_c, 0, 64, 85
1, 461071, Control_c, 0, 64, 38
1, 461086, Note_on_c, 0, 84, 110
1, 461086, Control_c, 0, 64, 0
1, 461090, Note_on_c, 0, 87, 95
1, 461091, Note_on_c, 0, 92, 97
1, 461093, Note_on_c, 0, 44, 126
1, 461096, Note_on_c, 0, 96, 87
1, 461097, Note_on_c, 0, 32, 100
1, 461099, Note_on_c, 0, 94, 84
1, 461107, Note_off_c, 0, 96, 70
1, 461114, Note_off_c, 0, 84, 70
1, 461115, Note_off_c, 0, 92, 64
1, 461115, Control_c, 0, 64, 55
1, 461118, Note_off_c, 0, 94, 72
1, 461120, Note_off_c, 0, 32, 70
1, 461122, Note_off_c, 0, 44, 70
1, 461124, Note_off_c, 0, 87, 63
1, 461130, Control_c, 0, 64, 127
1, 461388, Note_on_c, 0, 56, 89
1, 461392, Note_on_c, 0, 63, 85
1, 461394, Note_on_c, 0, 68, 86
1, 461394, Note_on_c, 0, 75, 80
1, 461416, Note_off_c, 0, 75, 66
1, 461419, Note_off_c, 0, 68, 65
1, 461420, Note_off_c, 0, 56, 62
1, 461420, Note_off_c, 0, 63, 60
1, 461479, Note_on_c, 0, 56, 101
1, 461480, Note_on_c, 0, 63, 103
1, 461480, Note_on_c, 0, 75, 105
1, 461482, Note_on_c, 0, 68, 102
1, 461523, Control_c, 0, 64, 74
1, 461538, Control_c, 0, 64, 23
1, 461552, Control_c, 0, 64, 0
1, 461790, Control_c, 0, 64, 44
1, 461795, Note_off_c, 0, 75, 54
1, 461805, Control_c, 0, 64, 127
1, 461828, Note_off_c, 0, 63, 61
1, 461842, Note_off_c, 0, 56, 61
1, 461843, Note_off_c, 0, 68, 58
1, 462016, Note_on_c, 0, 51, 87
1, 462021, Note_on_c, 0, 56, 88
1, 462027, Note_on_c, 0, 63, 79
1, 462034, Note_on_c, 0, 68, 73
1, 462046, Note_off_c, 0, 56, 67
1, 462051, Note_off_c, 0, 63, 69
1, 462054, Note_off_c, 0, 68, 64
1, 462061, Note_off_c, 0, 51, 63
1, 462093, Note_on_c, 0, 51, 88
1, 462093, Note_on_c, 0, 63, 94
1, 462093, Note_on_c, 0, 68, 87
1, 462097, Note_on_c, 0, 56, 93
1, 462131, Control_c, 0, 64, 96
1, 462146, Control_c, 0, 64, 62
1, 462160, Control_c, 0, 64, 56
1, 462175, Control_c, 0, 64, 63
1, 462190, Control_c, 0, 64, 127
1, 462395, Note_off_c, 0, 56, 59
1, 462396, Note_off_c, 0, 68, 58
1, 462415, Note_off_c, 0, 63, 61
1, 462427, Note_off_c, 0, 51, 61
1, 462632, Note_on_c, 0, 44, 65
1, 462639, Note_on_c, 0, 56, 74
1, 462645, Note_on_c, 0, 51, 63
1, 462661, Note_on_c, 0, 63, 38
1, 462663, Note_off_c, 0, 56, 67
1, 462667, Note_off_c, 0, 44, 61
1, 462672, Note_off_c, 0, 51, 70
1, 462705, Note_off_c, 0, 63, 0
1, 462705, Note_on_c, 0, 63, 47
1, 462707, Note_on_c, 0, 56, 91
1, 462715, Note_on_c, 0, 44, 85
1, 462726, Note_on_c, 0, 51, 62
1, 462746, Note_off_c, 0, 63, 64
1, 462754, Note_off_c, 0, 51, 67
1, 462758, Note_off_c, 0, 56, 65
1, 462775, Note_off_c, 0, 44, 60
1, 462905, Note_on_c, 0, 39, 74
1, 462920, Note_on_c, 0, 44, 55
1, 462920, Note_on_c, 0, 51, 61
1, 462939, Note_off_c, 0, 39, 65
1, 462942, Note_off_c, 0, 44, 61
1, 462952, Note_off_c, 0, 51, 51
1, 462987, Note_on_c, 0, 56, 64
1, 462999, Note_on_c, 0, 51, 81
1, 463002, Note_on_c, 0, 39, 85
1, 463007, Note_on_c, 0, 44, 76
1, 463053, Note_off_c, 0, 44, 54
1, 463055, Note_off_c, 0, 56, 63
1, 463059, Note_off_c, 0, 51, 64
1, 463084, Note_off_c, 0, 39, 62
1, 463210, Note_on_c, 0, 32, 86
1, 463211, Note_on_c, 0, 39, 83
1, 463216, Note_on_c, 0, 44, 68
1, 463222, Note_on_c, 0, 51, 56
1, 463236, Note_off_c, 0, 39, 66
1, 463237, Note_off_c, 0, 32, 64
1, 463239, Note_off_c, 0, 51, 67
1, 463245, Note_off_c, 0, 44, 66
1, 463288, Note_on_c, 0, 51, 89
1, 463288, Note_on_c, 0, 39, 93
1, 463288, Note_on_c, 0, 44, 91
1, 463290, Note_on_c, 0, 32, 89
1, 463378, Note_off_c, 0, 44, 61
1, 463378, Note_off_c, 0, 51, 56
1, 463386, Note_off_c, 0, 39, 60
1, 463409, Note_off_c, 0, 32, 60
1, 463486, Note_on_c, 0, 33, 89
1, 463489, Note_on_c, 0, 45, 82
1, 463492, Note_on_c, 0, 39, 80
1, 463496, Note_on_c, 0, 51, 64
1, 463518, Note_off_c, 0, 39, 64
1, 463528, Note_off_c, 0, 45, 63
1, 463529, Note_off_c, 0, 51, 60
1, 463541, Note_off_c, 0, 33, 62
1, 463569, Control_c, 0, 64, 66
1, 463584, Control_c, 0, 64, 41
1, 463588, Note_on_c, 0, 45, 77
1, 463595, Note_on_c, 0, 33, 98
1, 463596, Note_on_c, 0, 39, 102
1, 463596, Note_on_c, 0, 51, 76
1, 463599, Control_c, 0, 64, 32
1, 463603, Note_off_c, 0, 45, 72
1, 463613, Control_c, 0, 64, 49
1, 463616, Note_off_c, 0, 51, 68
1, 463628, Control_c, 0, 64, 71
1, 463643, Control_c, 0, 64, 127
1, 463723, Note_off_c, 0, 33, 65
1, 463728, Note_off_c, 0, 39, 62
1, 463731, Poly_aftertouch_c, 0, 45, 127
1, 463744, Note_on_c, 0, 59, 75
1, 463759, Poly_aftertouch_c, 0, 45, 0
1, 463768, Note_on_c, 0, 71, 45
1, 463768, Note_off_c, 0, 59, 68
1, 463793, Note_off_c, 0, 71, 60
1, 463833, Note_on_c, 0, 60, 84
1, 463840, Note_on_c, 0, 72, 78
1, 463854, Note_off_c, 0, 60, 72
1, 463860, Note_off_c, 0, 72, 72
1, 463917, Control_c, 0, 64, 115
1, 463926, Note_on_c, 0, 63, 89
1, 463930, Note_on_c, 0, 45, 99
1, 463932, Control_c, 0, 64, 58
1, 463933, Note_on_c, 0, 42, 90
1, 463935, Note_on_c, 0, 75, 84
1, 463940, Note_on_c, 0, 39, 78
1, 463941, Note_on_c, 0, 36, 78
1, 463943, Note_on_c, 0, 33, 76
1, 463947, Control_c, 0, 64, 0
1, 463953, Note_off_c, 0, 63, 63
1, 463957, Note_off_c, 0, 75, 67
1, 463977, Control_c, 0, 64, 24
1, 463992, Control_c, 0, 64, 55
1, 464007, Control_c, 0, 64, 127
1, 464023, Note_on_c, 0, 66, 88
1, 464027, Note_on_c, 0, 78, 88
1, 464047, Note_off_c, 0, 78, 71
1, 464054, Note_off_c, 0, 66, 61
1, 464112, Note_on_c, 0, 69, 90
1, 464123, Note_on_c, 0, 81, 82
1, 464135, Note_off_c, 0, 69, 67
1, 464143, Note_off_c, 0, 81, 73
1, 464206, Note_on_c, 0, 72, 93
1, 464219, Note_on_c, 0, 84, 80
1, 464235, Note_off_c, 0, 72, 66
1, 464238, Note_off_c, 0, 84, 71
1, 464296, Note_on_c, 0, 75, 89
1, 464310, Note_on_c, 0, 87, 77
1, 464323, Note_off_c, 0, 75, 58
1, 464331, Note_off_c, 0, 87, 71
1, 464413, Note_on_c, 0, 81, 98
1, 464415, Note_on_c, 0, 93, 98
1, 464433, Note_off_c, 0, 45, 58
1, 464434, Note_off_c, 0, 33, 59
1, 464444, Note_off_c, 0, 81, 67
1, 464446, Note_off_c, 0, 42, 56
1, 464447, Note_off_c, 0, 93, 66
1, 464448, Note_off_c, 0, 39, 60
1, 464452, Note_off_c, 0, 36, 59
1, 464489, Control_c, 0, 64, 76
1, 464504, Control_c, 0, 64, 15
1, 464516, Note_on_c, 0, 42, 92
1, 464516, Note_on_c, 0, 45, 107
1, 464519, Control_c, 0, 64, 0
1, 464523, Note_on_c, 0, 80, 116
1, 464524, Note_on_c, 0, 33, 88
1, 464524, Note_on_c, 0, 39, 82
1, 464525, Note_on_c, 0, 36, 75
1, 464525, Note_on_c, 0, 92, 106
1, 464545, Note_on_c, 0, 85, 63
1, 464546, Note_off_c, 0, 85, 127
1, 464547, Note_on_c, 0, 87, 60
1, 464548, Note_off_c, 0, 87, 127
1, 464549, Control_c, 0, 64, 119
1, 464561, Note_off_c, 0, 92, 69
1, 464561, Note_off_c, 0, 80, 62
1, 464563, Control_c, 0, 64, 127
1, 464577, Note_on_c, 0, 90, 5
1, 464578, Note_off_c, 0, 90, 127
1, 464609, Note_off_c, 0, 33, 62
1, 464628, Note_on_c, 0, 79, 96
1, 464635, Poly_aftertouch_c, 0, 90, 0
1, 464635, Note_on_c, 0, 91, 82
1, 464637, Note_off_c, 0, 36, 62
1, 464654, Note_off_c, 0, 45, 61
1, 464656, Note_off_c, 0, 91, 65
1, 464658, Note_off_c, 0, 79, 65
1, 464662, Note_off_c, 0, 39, 60
1, 464670, Note_off_c, 0, 42, 60
1, 464672, Poly_aftertouch_c, 0, 90, 127
1, 464710, Poly_aftertouch_c, 0, 90, 0
1, 464725, Note_on_c, 0, 78, 87
1, 464725, Note_on_c, 0, 90, 65
1, 464751, Note_off_c, 0, 78, 66
1, 464761, Note_off_c, 0, 90, 67
1, 464810, Note_on_c, 0, 77, 92
1, 464814, Note_on_c, 0, 89, 86
1, 464839, Note_off_c, 0, 89, 65
1, 464840, Note_off_c, 0, 77, 59
1, 464909, Note_on_c, 0, 76, 87
1, 464913, Note_on_c, 0, 88, 76
1, 464934, Note_off_c, 0, 76, 68
1, 464935, Note_off_c, 0, 88, 67
1, 464995, Note_on_c, 0, 60, 70
1, 464995, Note_on_c, 0, 69, 73
1, 464999, Note_on_c, 0, 63, 73
1, 464999, Note_on_c, 0, 87, 65
1, 465000, Note_on_c, 0, 75, 86
1, 465016, Note_off_c, 0, 69, 73
1, 465019, Note_off_c, 0, 75, 70
1, 465023, Note_off_c, 0, 63, 67
1, 465029, Note_off_c, 0, 60, 54
1, 465037, Note_off_c, 0, 87, 64
1, 465080, Note_on_c, 0, 69, 82
1, 465081, Note_on_c, 0, 63, 83
1, 465085, Note_on_c, 0, 60, 69
1, 465086, Note_on_c, 0, 74, 87
1, 465094, Note_on_c, 0, 86, 76
1, 465103, Note_off_c, 0, 69, 72
1, 465112, Note_off_c, 0, 63, 60
1, 465112, Note_off_c, 0, 60, 67
1, 465115, Note_off_c, 0, 74, 66
1, 465117, Note_on_c, 0, 85, 37
1, 465117, Note_off_c, 0, 86, 67
1, 465148, Note_off_c, 0, 85, 55
1, 465181, Note_on_c, 0, 73, 86
1, 465185, Note_on_c, 0, 85, 69
1, 465217, Note_off_c, 0, 73, 64
1, 465219, Note_off_c, 0, 85, 65
1, 465273, Note_on_c, 0, 57, 73
1, 465280, Note_on_c, 0, 72, 84
1, 465282, Note_on_c, 0, 63, 72
1, 465282, Control_c, 0, 64, 95
1, 465285, Note_on_c, 0, 84, 73
1, 465290, Note_on_c, 0, 54, 52
1, 465297, Control_c, 0, 64, 65
1, 465300, Note_off_c, 0, 72, 68
1, 465301, Note_off_c, 0, 63, 72
1, 465308, Note_off_c, 0, 84, 69
1, 465312, Note_off_c, 0, 57, 59
1, 465312, Control_c, 0, 64, 61
1, 465315, Note_off_c, 0, 54, 59
1, 465327, Control_c, 0, 64, 64
1, 465342, Control_c, 0, 64, 82
1, 465349, Poly_aftertouch_c, 0, 57, 0
1, 465356, Note_on_c, 0, 57, 69
1, 465357, Control_c, 0, 64, 127
1, 465358, Note_on_c, 0, 63, 80
1, 465372, Note_on_c, 0, 71, 84
1, 465372, Note_on_c, 0, 83, 83
1, 465373, Note_on_c, 0, 54, 70
1, 465378, Note_off_c, 0, 63, 71
1, 465392, Note_off_c, 0, 57, 60
1, 465395, Note_off_c, 0, 71, 71
1, 465396, Note_off_c, 0, 54, 71
1, 465414, Note_on_c, 0, 82, 14
1, 465419, Note_off_c, 0, 83, 62
1, 465459, Note_off_c, 0, 82, 0
1, 465459, Note_on_c, 0, 82, 55
1, 465461, Note_on_c, 0, 70, 87
1, 465494, Note_off_c, 0, 70, 60
1, 465509, Note_off_c, 0, 82, 65
1, 465549, Control_c, 0, 64, 119
1, 465551, Note_on_c, 0, 51, 73
1, 465555, Note_on_c, 0, 57, 76
1, 465555, Note_on_c, 0, 69, 90
1, 465559, Note_on_c, 0, 81, 83
1, 465564, Control_c, 0, 64, 74
1, 465574, Note_on_c, 0, 80, 56
1, 465578, Note_off_c, 0, 57, 66
1, 465579, Note_off_c, 0, 51, 68
1, 465579, Control_c, 0, 64, 71
1, 465585, Note_off_c, 0, 69, 66
1, 465593, Note_off_c, 0, 80, 63
1, 465595, Control_c, 0, 64, 80
1, 465599, Note_off_c, 0, 81, 62
1, 465609, Control_c, 0, 64, 127
1, 465622, Note_on_c, 0, 48, 6
1, 465625, Note_on_c, 0, 57, 80
1, 465633, Note_on_c, 0, 51, 72
1, 465646, Note_off_c, 0, 57, 67
1, 465649, Note_on_c, 0, 80, 91
1, 465652, Note_on_c, 0, 68, 91
1, 465680, Note_off_c, 0, 51, 63
1, 465682, Note_off_c, 0, 68, 61
1, 465686, Note_off_c, 0, 48, 61
1, 465694, Note_off_c, 0, 80, 63
1, 465737, Note_on_c, 0, 67, 90
1, 465747, Note_on_c, 0, 79, 79
1, 465766, Note_off_c, 0, 67, 67
1, 465775, Note_off_c, 0, 79, 62
1, 465834, Note_on_c, 0, 78, 85
1, 465835, Note_on_c, 0, 66, 85
1, 465855, Note_off_c, 0, 78, 71
1, 465858, Note_off_c, 0, 66, 68
1, 465905, Control_c, 0, 64, 103
1, 465917, Note_on_c, 0, 41, 99
1, 465917, Note_on_c, 0, 45, 104
1, 465918, Note_on_c, 0, 39, 75
1, 465920, Control_c, 0, 64, 48
1, 465921, Note_on_c, 0, 65, 97
1, 465923, Note_on_c, 0, 36, 86
1, 465925, Note_on_c, 0, 33, 88
1, 465931, Note_on_c, 0, 77, 81
1, 465935, Control_c, 0, 64, 0
1, 465935, Note_on_c, 0, 72, 55
1, 465959, Note_off_c, 0, 77, 67
1, 465963, Note_off_c, 0, 65, 67
1, 465963, Note_off_c, 0, 72, 61
1, 465971, Control_c, 0, 64, 25
1, 465986, Control_c, 0, 64, 51
1, 466001, Control_c, 0, 64, 83
1, 466016, Control_c, 0, 64, 127
1, 466022, Note_on_c, 0, 64, 89
1, 466055, Note_off_c, 0, 64, 61
1, 466057, Note_on_c, 0, 76, 36
1, 466088, Note_off_c, 0, 76, 56
1, 466114, Note_on_c, 0, 65, 92
1, 466126, Note_off_c, 0, 33, 53
1, 466129, Note_on_c, 0, 77, 77
1, 466130, Note_off_c, 0, 45, 59
1, 466145, Note_off_c, 0, 65, 62
1, 466153, Note_off_c, 0, 77, 67
1, 466156, Note_off_c, 0, 36, 59
1, 466158, Note_off_c, 0, 41, 57
1, 466163, Note_off_c, 0, 39, 60
1, 466209, Note_on_c, 0, 41, 84
1, 466209, Note_on_c, 0, 45, 111
1, 466210, Note_on_c, 0, 39, 69
1, 466212, Note_on_c, 0, 69, 94
1, 466215, Note_on_c, 0, 36, 81
1, 466221, Note_on_c, 0, 33, 84
1, 466228, Note_on_c, 0, 81, 79
1, 466236, Note_on_c, 0, 79, 62
1, 466245, Note_off_c, 0, 69, 68
1, 466248, Note_off_c, 0, 81, 73
1, 466256, Note_off_c, 0, 79, 64
1, 466312, Note_on_c, 0, 72, 96
1, 466321, Note_on_c, 0, 84, 85
1, 466342, Note_off_c, 0, 84, 66
1, 466343, Note_off_c, 0, 72, 65
1, 466409, Note_on_c, 0, 75, 92
1, 466417, Note_on_c, 0, 87, 84
1, 466417, Control_c, 0, 64, 93
1, 466431, Control_c, 0, 64, 67
1, 466435, Note_off_c, 0, 75, 64
1, 466436, Note_off_c, 0, 87, 69
1, 466446, Control_c, 0, 64, 52
1, 466461, Control_c, 0, 64, 12
1, 466476, Control_c, 0, 64, 0
1, 466497, Note_on_c, 0, 76, 101
1, 466506, Note_on_c, 0, 88, 89
1, 466525, Note_on_c, 0, 87, 55
1, 466525, Note_off_c, 0, 76, 73
1, 466543, Note_off_c, 0, 88, 64
1, 466547, Note_off_c, 0, 87, 39
1, 466588, Note_on_c, 0, 77, 101
1, 466597, Note_on_c, 0, 89, 86
1, 466619, Note_off_c, 0, 77, 69
1, 466633, Note_off_c, 0, 89, 66
1, 466680, Note_on_c, 0, 78, 90
1, 466686, Note_off_c, 0, 45, 60
1, 466687, Note_off_c, 0, 33, 48
1, 466689, Note_on_c, 0, 90, 85
1, 466716, Note_off_c, 0, 41, 54
1, 466719, Note_off_c, 0, 36, 59
1, 466720, Note_off_c, 0, 78, 67
1, 466723, Note_off_c, 0, 39, 57
1, 466729, Note_off_c, 0, 90, 65
1, 466776, Note_on_c, 0, 45, 106
1, 466777, Note_on_c, 0, 41, 88
1, 466779, Note_on_c, 0, 77, 114
1, 466779, Control_c, 0, 64, 65
1, 466781, Note_on_c, 0, 39, 79
1, 466783, Note_on_c, 0, 89, 95
1, 466784, Note_on_c, 0, 33, 77
1, 466786, Note_on_c, 0, 36, 78
1, 466794, Control_c, 0, 64, 127
1, 466805, Note_on_c, 0, 88, 59
1, 466820, Note_off_c, 0, 77, 64
1, 466823, Note_off_c, 0, 88, 66
1, 466824, Note_off_c, 0, 89, 68
1, 466878, Note_off_c, 0, 33, 62
1, 466883, Note_on_c, 0, 88, 92
1, 466884, Note_on_c, 0, 76, 94
1, 466914, Note_off_c, 0, 76, 69
1, 466919, Note_off_c, 0, 36, 59
1, 466927, Note_off_c, 0, 88, 65
1, 466943, Note_off_c, 0, 45, 64
1, 466952, Note_off_c, 0, 39, 62
1, 466952, Note_off_c, 0, 41, 61
1, 466978, Note_on_c, 0, 87, 62
1, 466979, Note_on_c, 0, 75, 91
1, 467006, Note_off_c, 0, 75, 65
1, 467026, Note_off_c, 0, 87, 65
1, 467071, Note_on_c, 0, 74, 81
1, 467074, Note_on_c, 0, 86, 80
1, 467099, Note_off_c, 0, 74, 65
1, 467109, Note_off_c, 0, 86, 55
1, 467138, Poly_aftertouch_c, 0, 85, 0
1, 467157, Note_on_c, 0, 85, 35
1, 467160, Note_on_c, 0, 73, 85
1, 467205, Note_off_c, 0, 73, 63
1, 467207, Note_off_c, 0, 85, 65
1, 467256, Note_on_c, 0, 72, 83
1, 467257, Note_on_c, 0, 69, 77
1, 467258, Note_on_c, 0, 63, 76
1, 467259, Note_on_c, 0, 60, 73
1, 467259, Note_on_c, 0, 84, 75
1, 467276, Note_off_c, 0, 72, 68
1, 467277, Note_off_c, 0, 69, 72
1, 467281, Note_off_c, 0, 84, 69
1, 467285, Note_off_c, 0, 63, 66
1, 467286, Note_off_c, 0, 60, 67
1, 467298, Control_c, 0, 64, 108
1, 467313, Control_c, 0, 64, 127
1, 467333, Note_on_c, 0, 69, 99
1, 467334, Note_on_c, 0, 63, 91
1, 467339, Note_on_c, 0, 60, 86
1, 467346, Note_on_c, 0, 83, 86
1, 467352, Note_off_c, 0, 69, 64
1, 467365, Note_on_c, 0, 72, 57
1, 467376, Note_off_c, 0, 60, 64
1, 467384, Note_off_c, 0, 72, 65
1, 467384, Note_off_c, 0, 63, 62
1, 467390, Note_off_c, 0, 83, 61
1, 467435, Note_on_c, 0, 82, 17
1, 467451, Note_on_c, 0, 70, 81
1, 467478, Note_off_c, 0, 70, 71
1, 467496, Note_off_c, 0, 82, 63
1, 467540, Note_on_c, 0, 57, 81
1, 467545, Note_on_c, 0, 63, 85
1, 467546, Note_on_c, 0, 81, 83
1, 467560, Note_on_c, 0, 53, 56
1, 467563, Note_on_c, 0, 80, 64
1, 467564, Note_off_c, 0, 63, 68
1, 467569, Note_on_c, 0, 69, 42
1, 467579, Note_off_c, 0, 80, 66
1, 467580, Note_off_c, 0, 53, 63
1, 467580, Note_off_c, 0, 57, 58
1, 467592, Note_off_c, 0, 81, 64
1, 467592, Note_off_c, 0, 69, 62
1, 467627, Note_on_c, 0, 57, 77
1, 467628, Note_on_c, 0, 63, 89
1, 467629, Note_on_c, 0, 68, 98
1, 467637, Note_on_c, 0, 80, 90
1, 467638, Note_on_c, 0, 53, 77
1, 467646, Note_off_c, 0, 63, 71
1, 467663, Note_off_c, 0, 68, 66
1, 467666, Note_off_c, 0, 57, 63
1, 467667, Note_off_c, 0, 53, 67
1, 467681, Note_off_c, 0, 80, 62
1, 467733, Note_on_c, 0, 67, 84
1, 467735, Note_on_c, 0, 79, 79
1, 467765, Note_off_c, 0, 79, 64
1, 467766, Note_off_c, 0, 67, 63
1, 467822, Note_on_c, 0, 51, 78
1, 467822, Note_on_c, 0, 78, 73
1, 467825, Note_on_c, 0, 66, 88
1, 467827, Note_on_c, 0, 57, 75
1, 467837, Note_on_c, 0, 48, 61
1, 467843, Note_off_c, 0, 66, 71
1, 467846, Note_off_c, 0, 57, 72
1, 467847, Note_off_c, 0, 51, 68
1, 467863, Note_off_c, 0, 48, 59
1, 467866, Note_off_c, 0, 78, 63
1, 467900, Note_on_c, 0, 57, 77
1, 467903, Note_on_c, 0, 51, 82
1, 467908, Note_on_c, 0, 48, 65
1, 467908, Note_on_c, 0, 65, 86
1, 467912, Note_on_c, 0, 77, 80
1, 467921, Note_off_c, 0, 57, 68
1, 467940, Note_off_c, 0, 48, 68
1, 467940, Note_off_c, 0, 77, 62
1, 467941, Note_off_c, 0, 51, 62
1, 467943, Note_off_c, 0, 65, 63
1, 468007, Note_on_c, 0, 76, 39
1, 468013, Note_on_c, 0, 64, 89
1, 468037, Note_on_c, 0, 75, 54
1, 468040, Note_off_c, 0, 64, 65
1, 468051, Note_off_c, 0, 76, 65
1, 468060, Note_off_c, 0, 75, 58
1, 468099, Note_on_c, 0, 63, 89
1, 468112, Note_on_c, 0, 75, 72
1, 468132, Note_off_c, 0, 63, 62
1, 468135, Note_off_c, 0, 75, 68
1, 468181, Control_c, 0, 64, 52
1, 468187, Note_on_c, 0, 42, 98
1, 468188, Note_on_c, 0, 45, 109
1, 468192, Note_on_c, 0, 36, 87
1, 468194, Note_on_c, 0, 62, 96
1, 468195, Note_on_c, 0, 38, 82
1, 468196, Control_c, 0, 64, 0
1, 468200, Note_on_c, 0, 33, 77
1, 468215, Note_on_c, 0, 66, 62
1, 468224, Note_on_c, 0, 74, 46
1, 468226, Note_off_c, 0, 62, 67
1, 468233, Control_c, 0, 64, 29
1, 468233, Note_off_c, 0, 66, 63
1, 468234, Note_on_c, 0, 73, 36
1, 468248, Control_c, 0, 64, 59
1, 468248, Note_off_c, 0, 74, 61
1, 468263, Control_c, 0, 64, 127
1, 468272, Note_off_c, 0, 73, 32
1, 468290, Note_on_c, 0, 61, 95
1, 468299, Note_on_c, 0, 73, 74
1, 468327, Note_off_c, 0, 61, 67
1, 468327, Note_off_c, 0, 73, 67
1, 468383, Note_on_c, 0, 62, 97
1, 468392, Note_off_c, 0, 45, 61
1, 468397, Note_on_c, 0, 74, 72
1, 468399, Note_off_c, 0, 33, 62
1, 468411, Note_off_c, 0, 42, 60
1, 468415, Note_off_c, 0, 62, 66
1, 468417, Note_off_c, 0, 74, 74
1, 468418, Note_off_c, 0, 38, 60
1, 468419, Note_off_c, 0, 36, 60
1, 468482, Note_on_c, 0, 42, 98
1, 468482, Note_on_c, 0, 45, 100
1, 468482, Note_on_c, 0, 66, 94
1, 468490, Note_on_c, 0, 38, 84
1, 468490, Note_on_c, 0, 36, 80
1, 468491, Note_on_c, 0, 78, 86
1, 468497, Note_on_c, 0, 33, 80
1, 468499, Control_c, 0, 64, 103
1, 468504, Note_off_c, 0, 66, 69
1, 468514, Control_c, 0, 64, 55
1, 468525, Note_off_c, 0, 78, 60
1, 468529, Control_c, 0, 64, 0
1, 468580, Note_on_c, 0, 69, 90
1, 468592, Note_on_c, 0, 81, 81
1, 468605, Note_off_c, 0, 69, 64
1, 468611, Note_off_c, 0, 81, 72
1, 468677, Note_on_c, 0, 72, 94
1, 468688, Note_on_c, 0, 83, 83
1, 468705, Note_off_c, 0, 72, 70
1, 468709, Note_off_c, 0, 83, 71
1, 468770, Note_on_c, 0, 73, 93
1, 468776, Note_on_c, 0, 85, 80
1, 468791, Note_off_c, 0, 73, 70
1, 468806, Note_off_c, 0, 85, 58
1, 468862, Note_on_c, 0, 74, 92
1, 468870, Note_on_c, 0, 86, 80
1, 468894, Note_on_c, 0, 85, 39
1, 468894, Note_off_c, 0, 74, 72
1, 468908, Note_off_c, 0, 86, 62
1, 468916, Note_off_c, 0, 85, 35
1, 468948, Note_off_c, 0, 45, 54
1, 468964, Note_on_c, 0, 75, 89
1, 468970, Note_on_c, 0, 87, 80
1, 468973, Note_off_c, 0, 33, 53
1, 468987, Note_off_c, 0, 42, 61
1, 468991, Note_off_c, 0, 36, 59
1, 468991, Note_off_c, 0, 75, 64
1, 468994, Note_off_c, 0, 38, 59
1, 469000, Note_off_c, 0, 87, 61
1, 469056, Control_c, 0, 64, 62
1, 469057, Note_on_c, 0, 45, 103
1, 469058, Note_on_c, 0, 42, 93
1, 469060, Note_on_c, 0, 74, 98
1, 469062, Note_on_c, 0, 38, 84
1, 469064, Note_on_c, 0, 36, 86
1, 469068, Note_on_c, 0, 33, 89
1, 469068, Note_on_c, 0, 86, 88
1, 469071, Control_c, 0, 64, 127
1, 469080, Note_on_c, 0, 85, 66
1, 469095, Note_off_c, 0, 85, 65
1, 469098, Note_off_c, 0, 74, 71
1, 469107, Note_off_c, 0, 86, 61
1, 469163, Note_on_c, 0, 73, 93
1, 469165, Note_on_c, 0, 85, 71
1, 469169, Note_off_c, 0, 33, 62
1, 469199, Note_off_c, 0, 73, 66
1, 469212, Note_off_c, 0, 85, 64
1, 469221, Note_off_c, 0, 36, 62
1, 469232, Note_off_c, 0, 38, 60
1, 469245, Note_off_c, 0, 45, 64
1, 469259, Note_off_c, 0, 42, 60
1, 469273, Note_on_c, 0, 72, 86
1, 469277, Note_on_c, 0, 84, 82
1, 469295, Note_off_c, 0, 72, 66
1, 469300, Note_off_c, 0, 84, 67
1, 469375, Note_on_c, 0, 71, 87
1, 469378, Note_on_c, 0, 83, 79
1, 469403, Note_off_c, 0, 83, 66
1, 469407, Note_off_c, 0, 71, 63
1, 469465, Note_on_c, 0, 70, 82
1, 469473, Note_on_c, 0, 82, 72
1, 469498, Note_off_c, 0, 82, 66
1, 469503, Note_off_c, 0, 70, 60
1, 469555, Note_on_c, 0, 60, 75
1, 469560, Note_on_c, 0, 62, 66
1, 469565, Note_on_c, 0, 54, 50
1, 469569, Note_on_c, 0, 81, 81
1, 469569, Note_on_c, 0, 69, 69
1, 469589, Note_off_c, 0, 54, 63
1, 469591, Note_off_c, 0, 60, 62
1, 469591, Note_off_c, 0, 62, 64
1, 469595, Note_off_c, 0, 69, 71
1, 469613, Note_off_c, 0, 81, 62
1, 469649, Note_on_c, 0, 62, 72
1, 469650, Note_on_c, 0, 68, 93
1, 469651, Note_on_c, 0, 80, 76
1, 469652, Note_on_c, 0, 60, 72
1, 469656, Note_on_c, 0, 54, 73
1, 469672, Note_off_c, 0, 62, 71
1, 469673, Note_off_c, 0, 60, 72
1, 469686, Note_off_c, 0, 68, 63
1, 469688, Note_off_c, 0, 54, 67
1, 469706, Note_off_c, 0, 80, 65
1, 469763, Note_on_c, 0, 67, 74
1, 469768, Note_on_c, 0, 79, 67
1, 469786, Note_off_c, 0, 67, 69
1, 469790, Note_off_c, 0, 79, 66
1, 469849, Note_on_c, 0, 66, 88
1, 469851, Note_on_c, 0, 57, 68
1, 469853, Note_on_c, 0, 50, 65
1, 469854, Note_on_c, 0, 78, 83
1, 469861, Note_on_c, 0, 48, 51
1, 469868, Note_off_c, 0, 66, 71
1, 469878, Note_off_c, 0, 57, 65
1, 469882, Note_off_c, 0, 50, 65
1, 469893, Note_off_c, 0, 48, 54
1, 469893, Note_off_c, 0, 78, 60
1, 469923, Note_on_c, 0, 50, 71
1, 469926, Note_on_c, 0, 57, 65
1, 469934, Note_on_c, 0, 48, 57
1, 469939, Note_on_c, 0, 65, 79
1, 469941, Note_on_c, 0, 77, 82
1, 469947, Note_off_c, 0, 57, 66
1, 469962, Note_off_c, 0, 48, 63
1, 469962, Note_off_c, 0, 50, 61
1, 469965, Note_off_c, 0, 65, 65
1, 469966, Note_off_c, 0, 77, 65
1, 470041, Note_on_c, 0, 64, 81
1, 470042, Note_on_c, 0, 76, 78
1, 470064, Note_off_c, 0, 64, 69
1, 470078, Note_off_c, 0, 76, 67
1, 470115, Note_on_c, 0, 45, 74
1, 470118, Note_on_c, 0, 50, 75
1, 470128, Note_on_c, 0, 63, 98
1, 470133, Note_on_c, 0, 75, 85
1, 470147, Note_off_c, 0, 45, 63
1, 470150, Note_off_c, 0, 50, 61
1, 470154, Note_off_c, 0, 75, 68
1, 470162, Note_off_c, 0, 63, 62
1, 470199, Note_on_c, 0, 42, 76
1, 470202, Note_on_c, 0, 45, 58
1, 470206, Note_on_c, 0, 50, 42
1, 470218, Note_on_c, 0, 62, 93
1, 470228, Note_on_c, 0, 74, 77
1, 470231, Note_off_c, 0, 50, 60
1, 470236, Note_off_c, 0, 45, 56
1, 470245, Note_on_c, 0, 73, 49
1, 470246, Note_off_c, 0, 42, 61
1, 470251, Note_off_c, 0, 62, 65
1, 470262, Note_off_c, 0, 74, 60
1, 470269, Note_off_c, 0, 73, 60
1, 470314, Note_on_c, 0, 61, 90
1, 470321, Note_on_c, 0, 73, 84
1, 470352, Note_off_c, 0, 61, 66
1, 470356, Note_off_c, 0, 73, 61
1, 470406, Note_on_c, 0, 60, 79
1, 470425, Note_on_c, 0, 63, 58
1, 470427, Note_off_c, 0, 60, 72
1, 470452, Note_on_c, 0, 72, 17
1, 470462, Note_off_c, 0, 63, 54
1, 470465, Control_c, 0, 64, 58
1, 470480, Control_c, 0, 64, 0
1, 470485, Note_off_c, 0, 72, 50
1, 470496, Note_on_c, 0, 45, 107
1, 470497, Note_on_c, 0, 42, 97
1, 470502, Note_on_c, 0, 39, 84
1, 470502, Note_on_c, 0, 35, 80
1, 470507, Note_on_c, 0, 33, 79
1, 470509, Control_c, 0, 64, 8
1, 470510, Note_on_c, 0, 59, 94
1, 470514, Note_on_c, 0, 58, 61
1, 470515, Note_off_c, 0, 58, 127
1, 470515, Note_on_c, 0, 70, 75
1, 470525, Control_c, 0, 64, 56
1, 470528, Note_off_c, 0, 59, 72
1, 470531, Note_off_c, 0, 70, 64
1, 470539, Control_c, 0, 64, 127
1, 470601, Note_on_c, 0, 58, 84
1, 470601, Note_on_c, 0, 70, 75
1, 470622, Note_off_c, 0, 58, 69
1, 470623, Note_on_c, 0, 59, 73
1, 470628, Note_off_c, 0, 70, 62
1, 470642, Note_off_c, 0, 59, 71
1, 470643, Note_on_c, 0, 71, 45
1, 470670, Note_off_c, 0, 71, 59
1, 470698, Note_on_c, 0, 59, 83
1, 470699, Note_off_c, 0, 45, 60
1, 470703, Note_off_c, 0, 33, 60
1, 470717, Note_off_c, 0, 59, 70
1, 470720, Note_on_c, 0, 71, 57
1, 470722, Note_on_c, 0, 60, 66
1, 470723, Note_off_c, 0, 42, 60
1, 470725, Note_off_c, 0, 35, 62
1, 470725, Note_off_c, 0, 39, 62
1, 470738, Note_off_c, 0, 60, 67
1, 470738, Note_off_c, 0, 71, 67
1, 470791, Note_on_c, 0, 45, 105
1, 470792, Control_c, 0, 64, 63
1, 470794, Note_on_c, 0, 42, 94
1, 470797, Note_on_c, 0, 63, 93
1, 470801, Note_on_c, 0, 39, 75
1, 470803, Note_on_c, 0, 35, 76
1, 470805, Note_on_c, 0, 75, 78
1, 470806, Control_c, 0, 64, 19
1, 470807, Note_on_c, 0, 33, 77
1, 470807, Poly_aftertouch_c, 0, 70, 0
1, 470821, Control_c, 0, 64, 0
1, 470826, Note_off_c, 0, 63, 69
1, 470834, Note_off_c, 0, 75, 59
1, 470851, Control_c, 0, 64, 21
1, 470866, Control_c, 0, 64, 46
1, 470880, Control_c, 0, 64, 62
1, 470891, Note_on_c, 0, 66, 95
1, 470895, Control_c, 0, 64, 98
1, 470896, Note_on_c, 0, 78, 93
1, 470910, Control_c, 0, 64, 127
1, 470932, Note_off_c, 0, 66, 63
1, 470940, Note_off_c, 0, 78, 64
1, 470987, Note_on_c, 0, 69, 97
1, 470998, Note_on_c, 0, 81, 84
1, 471016, Note_off_c, 0, 69, 66
1, 471017, Note_off_c, 0, 81, 72
1, 471030, Note_on_c, 0, 80, 24
1, 471067, Note_off_c, 0, 80, 32
1, 471080, Note_on_c, 0, 70, 93
1, 471087, Note_on_c, 0, 82, 84
1, 471113, Note_off_c, 0, 70, 63
1, 471126, Note_off_c, 0, 82, 61
1, 471171, Note_on_c, 0, 71, 91
1, 471186, Note_on_c, 0, 83, 67
1, 471188, Note_off_c, 0, 39, 55
1, 471197, Note_on_c, 0, 82, 41
1, 471218, Note_off_c, 0, 83, 71
1, 471219, Note_off_c, 0, 71, 62
1, 471232, Note_off_c, 0, 35, 35
1, 471235, Note_off_c, 0, 45, 55
1, 471236, Note_off_c, 0, 82, 57
1, 471241, Note_off_c, 0, 33, 54
1, 471260, Note_off_c, 0, 42, 28
1, 471277, Note_on_c, 0, 72, 85
1, 471284, Note_on_c, 0, 84, 81
1, 471296, Note_off_c, 0, 72, 70
1, 471303, Note_off_c, 0, 84, 71
1, 471348, Control_c, 0, 64, 71
1, 471351, Note_on_c, 0, 42, 102
1, 471351, Note_on_c, 0, 45, 111
1, 471357, Note_on_c, 0, 33, 87
1, 471357, Note_on_c, 0, 39, 93
1, 471358, Note_on_c, 0, 35, 84
1, 471362, Control_c, 0, 64, 40
1, 471369, Note_on_c, 0, 71, 90
1, 471375, Note_on_c, 0, 83, 87
1, 471377, Control_c, 0, 64, 0
1, 471396, Note_off_c, 0, 71, 71
1, 471406, Note_off_c, 0, 83, 57
1, 471409, Note_on_c, 0, 82, 26
1, 471424, Note_off_c, 0, 82, 36
1, 471457, Note_on_c, 0, 70, 90
1, 471465, Note_on_c, 0, 82, 68
1, 471490, Note_off_c, 0, 70, 65
1, 471501, Note_off_c, 0, 82, 64
1, 471541, Note_on_c, 0, 69, 47
1, 471553, Note_on_c, 0, 81, 79
1, 471580, Note_off_c, 0, 69, 67
1, 471588, Note_off_c, 0, 81, 62
1, 471629, Control_c, 0, 64, 49
1, 471641, Note_on_c, 0, 68, 95
1, 471644, Note_on_c, 0, 80, 73
1, 471644, Control_c, 0, 64, 68
1, 471659, Control_c, 0, 64, 127
1, 471678, Note_off_c, 0, 68, 66
1, 471687, Note_off_c, 0, 35, 59
1, 471690, Note_off_c, 0, 80, 64
1, 471706, Note_off_c, 0, 39, 61
1, 471730, Note_on_c, 0, 67, 90
1, 471734, Note_on_c, 0, 79, 81
1, 471744, Note_on_c, 0, 78, 41
1, 471761, Note_off_c, 0, 67, 66
1, 471770, Note_off_c, 0, 78, 53
1, 471773, Note_off_c, 0, 79, 66
1, 471786, Note_off_c, 0, 42, 50
1, 471792, Note_off_c, 0, 45, 57
1, 471816, Note_off_c, 0, 33, 59
1, 471828, Note_on_c, 0, 78, 86
1, 471829, Note_on_c, 0, 66, 88
1, 471857, Note_off_c, 0, 66, 63
1, 471866, Note_off_c, 0, 78, 58
1, 471895, Control_c, 0, 64, 73
1, 471905, Note_on_c, 0, 45, 116
1, 471907, Note_on_c, 0, 41, 101
1, 471909, Note_on_c, 0, 36, 95
1, 471910, Control_c, 0, 64, 48
1, 471914, Note_on_c, 0, 33, 94
1, 471917, Note_on_c, 0, 65, 100
1, 471919, Note_on_c, 0, 77, 93
1, 471925, Control_c, 0, 64, 0
1, 471942, Note_on_c, 0, 40, 45
1, 471943, Note_off_c, 0, 40, 127
1, 471960, Note_off_c, 0, 65, 69
1, 471964, Note_off_c, 0, 77, 66
1, 471990, Poly_aftertouch_c, 0, 40, 0
1, 471993, Control_c, 0, 64, 22
1, 472008, Control_c, 0, 64, 28
1, 472023, Control_c, 0, 64, 32
1, 472031, Note_on_c, 0, 64, 87
1, 472032, Note_on_c, 0, 76, 70
1, 472038, Control_c, 0, 64, 33
1, 472052, Control_c, 0, 64, 38
1, 472053, Note_off_c, 0, 64, 64
1, 472067, Control_c, 0, 64, 47
1, 472074, Note_off_c, 0, 76, 65
1, 472082, Control_c, 0, 64, 58
1, 472090, Note_off_c, 0, 41, 56
1, 472097, Control_c, 0, 64, 72
1, 472107, Note_off_c, 0, 45, 57
1, 472112, Control_c, 0, 64, 127
1, 472121, Note_off_c, 0, 33, 56
1, 472127, Note_on_c, 0, 75, 77
1, 472128, Note_on_c, 0, 63, 86
1, 472142, Note_off_c, 0, 36, 61
1, 472156, Note_off_c, 0, 63, 64
1, 472156, Control_c, 0, 64, 85
1, 472166, Note_off_c, 0, 75, 59
1, 472171, Control_c, 0, 64, 60
1, 472185, Control_c, 0, 64, 33
1, 472200, Control_c, 0, 64, 0
1, 472201, Note_on_c, 0, 45, 103
1, 472204, Note_on_c, 0, 42, 94
1, 472205, Note_on_c, 0, 38, 91
1, 472210, Note_on_c, 0, 33, 87
1, 472216, Note_on_c, 0, 62, 90
1, 472220, Note_on_c, 0, 74, 79
1, 472245, Control_c, 0, 64, 21
1, 472250, Note_off_c, 0, 62, 65
1, 472259, Note_off_c, 0, 74, 68
1, 472259, Control_c, 0, 64, 35
1, 472274, Control_c, 0, 64, 46
1, 472289, Control_c, 0, 64, 57
1, 472303, Control_c, 0, 64, 67
1, 472307, Note_on_c, 0, 73, 62
1, 472311, Note_on_c, 0, 61, 90
1, 472318, Control_c, 0, 64, 82
1, 472333, Control_c, 0, 64, 115
1, 472348, Control_c, 0, 64, 127
1, 472349, Note_off_c, 0, 61, 66
1, 472362, Note_off_c, 0, 73, 64
1, 472381, Note_off_c, 0, 38, 58
1, 472383, Note_off_c, 0, 45, 60
1, 472405, Note_off_c, 0, 42, 60
1, 472409, Note_on_c, 0, 60, 68
1, 472411, Note_on_c, 0, 72, 80
1, 472422, Note_off_c, 0, 33, 62
1, 472435, Note_off_c, 0, 60, 69
1, 472437, Note_off_c, 0, 72, 63
1, 472452, Control_c, 0, 64, 64
1, 472467, Control_c, 0, 64, 32
1, 472482, Control_c, 0, 64, 0
1, 472491, Note_on_c, 0, 42, 97
1, 472491, Note_on_c, 0, 45, 99
1, 472497, Note_on_c, 0, 39, 84
1, 472500, Note_on_c, 0, 33, 77
1, 472506, Note_on_c, 0, 59, 86
1, 472511, Note_on_c, 0, 71, 77
1, 472530, Note_off_c, 0, 59, 69
1, 472539, Note_off_c, 0, 71, 66
1, 472588, Note_on_c, 0, 58, 87
1, 472593, Note_on_c, 0, 70, 71
1, 472631, Note_off_c, 0, 58, 66
1, 472634, Note_off_c, 0, 70, 64
1, 472693, Note_on_c, 0, 57, 74
1, 472706, Note_on_c, 0, 69, 73
1, 472722, Note_off_c, 0, 57, 68
1, 472731, Note_off_c, 0, 69, 69
1, 472771, Control_c, 0, 64, 32
1, 472786, Control_c, 0, 64, 33
1, 472789, Note_on_c, 0, 56, 94
1, 472792, Note_on_c, 0, 68, 79
1, 472801, Control_c, 0, 64, 28
1, 472816, Control_c, 0, 64, 23
1, 472825, Note_off_c, 0, 56, 67
1, 472831, Control_c, 0, 64, 22
1, 472840, Note_off_c, 0, 68, 60
1, 472846, Control_c, 0, 64, 24
1, 472861, Control_c, 0, 64, 31
1, 472875, Control_c, 0, 64, 38
1, 472881, Note_on_c, 0, 55, 75
1, 472888, Note_on_c, 0, 67, 77
1, 472890, Control_c, 0, 64, 44
1, 472905, Control_c, 0, 64, 52
1, 472908, Note_off_c, 0, 55, 69
1, 472920, Control_c, 0, 64, 58
1, 472921, Note_off_c, 0, 39, 60
1, 472923, Note_off_c, 0, 67, 64
1, 472934, Control_c, 0, 64, 64
1, 472937, Note_off_c, 0, 45, 57
1, 472949, Control_c, 0, 64, 73
1, 472952, Note_off_c, 0, 42, 26
1, 472964, Control_c, 0, 64, 93
1, 472974, Note_on_c, 0, 66, 77
1, 472977, Note_on_c, 0, 54, 79
1, 472978, Note_off_c, 0, 33, 60
1, 472979, Control_c, 0, 64, 127
1, 473008, Control_c, 0, 64, 80
1, 473010, Note_off_c, 0, 54, 66
1, 473022, Note_off_c, 0, 66, 60
1, 473023, Control_c, 0, 64, 61
1, 473038, Control_c, 0, 64, 35
1, 473053, Control_c, 0, 64, 0
1, 473054, Note_on_c, 0, 45, 94
1, 473057, Note_on_c, 0, 41, 87
1, 473060, Note_on_c, 0, 36, 80
1, 473064, Note_on_c, 0, 33, 75
1, 473065, Note_on_c, 0, 65, 82
1, 473066, Note_on_c, 0, 53, 87
1, 473096, Note_off_c, 0, 53, 66
1, 473105, Note_off_c, 0, 65, 67
1, 473112, Control_c, 0, 64, 25
1, 473126, Control_c, 0, 64, 32
1, 473141, Control_c, 0, 64, 37
1, 473156, Control_c, 0, 64, 42
1, 473169, Note_on_c, 0, 64, 73
1, 473171, Note_on_c, 0, 52, 86
1, 473171, Control_c, 0, 64, 47
1, 473186, Control_c, 0, 64, 53
1, 473193, Note_off_c, 0, 52, 74
1, 473200, Control_c, 0, 64, 59
1, 473205, Note_off_c, 0, 41, 59
1, 473215, Note_off_c, 0, 64, 62
1, 473215, Control_c, 0, 64, 65
1, 473230, Control_c, 0, 64, 75
1, 473245, Control_c, 0, 64, 100
1, 473246, Note_off_c, 0, 45, 59
1, 473260, Control_c, 0, 64, 127
1, 473262, Note_on_c, 0, 51, 89
1, 473264, Note_on_c, 0, 63, 80
1, 473266, Note_off_c, 0, 33, 61
1, 473280, Note_off_c, 0, 36, 61
1, 473290, Control_c, 0, 64, 97
1, 473305, Control_c, 0, 64, 66
1, 473306, Note_off_c, 0, 51, 65
1, 473309, Note_off_c, 0, 63, 63
1, 473320, Control_c, 0, 64, 48
1, 473334, Control_c, 0, 64, 0
1, 473343, Note_on_c, 0, 45, 94
1, 473344, Note_on_c, 0, 38, 80
1, 473346, Note_on_c, 0, 42, 84
1, 473353, Note_on_c, 0, 33, 74
1, 473356, Note_on_c, 0, 50, 81
1, 473357, Note_on_c, 0, 62, 75
1, 473379, Control_c, 0, 64, 39
1, 473388, Note_off_c, 0, 50, 64
1, 473394, Control_c, 0, 64, 55
1, 473398, Note_off_c, 0, 62, 62
1, 473408, Control_c, 0, 64, 68
1, 473423, Control_c, 0, 64, 92
1, 473438, Control_c, 0, 64, 127
1, 473460, Note_on_c, 0, 61, 79
1, 473464, Note_on_c, 0, 49, 86
1, 473516, Note_off_c, 0, 61, 64
1, 473517, Note_off_c, 0, 38, 61
1, 473556, Note_off_c, 0, 49, 57
1, 473558, Note_on_c, 0, 60, 69
1, 473561, Note_on_c, 0, 48, 64
1, 473570, Note_off_c, 0, 45, 63
1, 473584, Note_off_c, 0, 42, 61
1, 473585, Note_off_c, 0, 48, 63
1, 473585, Note_off_c, 0, 60, 69
1, 473594, Note_off_c, 0, 33, 62
1, 473609, Control_c, 0, 64, 107
1, 473624, Control_c, 0, 64, 54
1, 473639, Control_c, 0, 64, 0
1, 473641, Note_on_c, 0, 47, 85
1, 473645, Note_on_c, 0, 42, 89
1, 473646, Note_on_c, 0, 45, 99
1, 473650, Note_on_c, 0, 33, 80
1, 473650, Note_on_c, 0, 59, 79
1, 473653, Note_on_c, 0, 39, 84
1, 473662, Note_on_c, 0, 48, 66
1, 473681, Note_off_c, 0, 47, 70
1, 473683, Note_off_c, 0, 48, 64
1, 473745, Note_on_c, 0, 58, 74
1, 473747, Note_off_c, 0, 59, 63
1, 473854, Note_on_c, 0, 57, 77
1, 473871, Note_off_c, 0, 58, 63
1, 473943, Note_off_c, 0, 57, 45
1, 473949, Note_on_c, 0, 56, 88
1, 473949, Control_c, 0, 64, 25
1, 473964, Control_c, 0, 64, 29
1, 473979, Control_c, 0, 64, 33
1, 473994, Control_c, 0, 64, 39
1, 474009, Control_c, 0, 64, 48
1, 474023, Control_c, 0, 64, 57
1, 474038, Control_c, 0, 64, 62
1, 474042, Note_off_c, 0, 56, 64
1, 474045, Note_on_c, 0, 55, 80
1, 474053, Control_c, 0, 64, 65
1, 474068, Note_off_c, 0, 42, 32
1, 474068, Control_c, 0, 64, 66
1, 474083, Control_c, 0, 64, 66
1, 474098, Control_c, 0, 64, 68
1, 474113, Control_c, 0, 64, 73
1, 474113, Note_off_c, 0, 55, 57
1, 474117, Note_off_c, 0, 39, 55
1, 474128, Control_c, 0, 64, 84
1, 474136, Note_on_c, 0, 54, 79
1, 474137, Note_off_c, 0, 45, 60
1, 474142, Control_c, 0, 64, 127
1, 474157, Note_off_c, 0, 33, 61
1, 474179, Note_off_c, 0, 54, 61
1, 474187, Control_c, 0, 64, 107
1, 474209, Control_c, 0, 64, 67
1, 474224, Control_c, 0, 64, 46
1, 474233, Note_on_c, 0, 53, 97
1, 474238, Note_on_c, 0, 45, 96
1, 474238, Control_c, 0, 64, 0
1, 474240, Note_on_c, 0, 41, 88
1, 474240, Note_on_c, 0, 48, 90
1, 474247, Note_on_c, 0, 36, 74
1, 474248, Note_on_c, 0, 33, 70
1, 474312, Control_c, 0, 64, 14
1, 474327, Control_c, 0, 64, 23
1, 474328, Note_off_c, 0, 48, 61
1, 474336, Note_on_c, 0, 52, 76
1, 474342, Control_c, 0, 64, 28
1, 474357, Control_c, 0, 64, 31
1, 474372, Control_c, 0, 64, 33
1, 474387, Control_c, 0, 64, 37
1, 474402, Note_off_c, 0, 41, 49
1, 474402, Control_c, 0, 64, 43
1, 474407, Note_off_c, 0, 53, 47
1, 474417, Control_c, 0, 64, 52
1, 474428, Note_on_c, 0, 51, 85
1, 474429, Note_off_c, 0, 52, 65
1, 474432, Control_c, 0, 64, 62
1, 474447, Control_c, 0, 64, 71
1, 474455, Note_off_c, 0, 33, 58
1, 474461, Control_c, 0, 64, 77
1, 474464, Note_off_c, 0, 45, 48
1, 474468, Note_off_c, 0, 36, 60
1, 474476, Control_c, 0, 64, 75
1, 474491, Control_c, 0, 64, 64
1, 474506, Control_c, 0, 64, 46
1, 474519, Note_on_c, 0, 50, 87
1, 474521, Control_c, 0, 64, 0
1, 474522, Note_on_c, 0, 42, 86
1, 474523, Note_on_c, 0, 48, 93
1, 474524, Note_on_c, 0, 45, 93
1, 474527, Note_on_c, 0, 38, 76
1, 474528, Note_off_c, 0, 51, 58
1, 474535, Note_on_c, 0, 33, 69
1, 474595, Control_c, 0, 64, 15
1, 474610, Control_c, 0, 64, 24
1, 474620, Note_on_c, 0, 49, 79
1, 474621, Note_off_c, 0, 48, 58
1, 474621, Note_off_c, 0, 50, 36
1, 474625, Control_c, 0, 64, 32
1, 474640, Control_c, 0, 64, 36
1, 474654, Control_c, 0, 64, 41
1, 474669, Control_c, 0, 64, 46
1, 474684, Control_c, 0, 64, 52
1, 474697, Note_off_c, 0, 45, 49
1, 474698, Control_c, 0, 64, 58
1, 474713, Control_c, 0, 64, 63
1, 474719, Note_off_c, 0, 38, 53
1, 474725, Note_on_c, 0, 48, 78
1, 474728, Control_c, 0, 64, 67
1, 474734, Note_off_c, 0, 49, 61
1, 474740, Note_off_c, 0, 42, 59
1, 474744, Control_c, 0, 64, 70
1, 474773, Control_c, 0, 64, 67
1, 474776, Note_off_c, 0, 33, 34
1, 474776, Note_off_c, 0, 48, 62
1, 474788, Control_c, 0, 64, 59
1, 474803, Control_c, 0, 64, 40
1, 474818, Control_c, 0, 64, 0
1, 474823, Note_on_c, 0, 47, 96
1, 474828, Note_on_c, 0, 45, 89
1, 474830, Note_on_c, 0, 42, 86
1, 474834, Note_on_c, 0, 39, 73
1, 474837, Note_on_c, 0, 33, 65
1, 474861, Note_off_c, 0, 47, 70
1, 474891, Control_c, 0, 64, 22
1, 474906, Control_c, 0, 64, 34
1, 474917, Note_on_c, 0, 47, 85
1, 474921, Control_c, 0, 64, 41
1, 474936, Control_c, 0, 64, 47
1, 474959, Control_c, 0, 64, 53
1, 474973, Control_c, 0, 64, 58
1, 474974, Note_off_c, 0, 45, 49
1, 474979, Note_off_c, 0, 47, 60
1, 474988, Control_c, 0, 64, 62
1, 474995, Note_off_c, 0, 42, 53
1, 475003, Control_c, 0, 64, 65
1, 475018, Control_c, 0, 64, 68
1, 475022, Note_on_c, 0, 47, 69
1, 475026, Note_off_c, 0, 39, 54
1, 475033, Control_c, 0, 64, 71
1, 475047, Control_c, 0, 64, 74
1, 475049, Note_off_c, 0, 47, 66
1, 475062, Control_c, 0, 64, 73
1, 475073, Note_off_c, 0, 33, 35
1, 475077, Control_c, 0, 64, 65
1, 475092, Control_c, 0, 64, 54
1, 475106, Control_c, 0, 64, 18
1, 475114, Note_on_c, 0, 53, 90
1, 475116, Note_on_c, 0, 48, 86
1, 475120, Note_on_c, 0, 45, 83
1, 475121, Note_on_c, 0, 41, 77
1, 475121, Control_c, 0, 64, 0
1, 475129, Note_on_c, 0, 33, 55
1, 475131, Note_on_c, 0, 36, 64
1, 475166, Control_c, 0, 64, 20
1, 475182, Note_off_c, 0, 48, 60
1, 475182, Control_c, 0, 64, 33
1, 475197, Control_c, 0, 64, 44
1, 475211, Control_c, 0, 64, 52
1, 475219, Note_on_c, 0, 52, 84
1, 475226, Control_c, 0, 64, 58
1, 475241, Control_c, 0, 64, 62
1, 475254, Note_off_c, 0, 41, 58
1, 475256, Control_c, 0, 64, 64
1, 475271, Control_c, 0, 64, 67
1, 475285, Control_c, 0, 64, 70
1, 475300, Control_c, 0, 64, 76
1, 475304, Note_off_c, 0, 45, 61
1, 475309, Note_on_c, 0, 51, 88
1, 475315, Control_c, 0, 64, 78
1, 475320, Note_off_c, 0, 33, 60
1, 475333, Note_off_c, 0, 36, 61
1, 475344, Note_off_c, 0, 52, 64
1, 475344, Control_c, 0, 64, 72
1, 475359, Control_c, 0, 64, 63
1, 475365, Note_off_c, 0, 53, 42
1, 475374, Control_c, 0, 64, 48
1, 475389, Control_c, 0, 64, 0
1, 475397, Note_on_c, 0, 50, 96
1, 475402, Note_on_c, 0, 48, 93
1, 475403, Note_on_c, 0, 45, 93
1, 475406, Note_on_c, 0, 38, 82
1, 475407, Note_on_c, 0, 42, 79
1, 475416, Note_on_c, 0, 33, 73
1, 475422, Note_off_c, 0, 51, 57
1, 475463, Control_c, 0, 64, 12
1, 475478, Control_c, 0, 64, 22
1, 475492, Control_c, 0, 64, 31
1, 475500, Note_on_c, 0, 49, 84
1, 475505, Note_off_c, 0, 48, 62
1, 475507, Control_c, 0, 64, 37
1, 475509, Note_off_c, 0, 50, 46
1, 475521, Control_c, 0, 64, 45
1, 475536, Control_c, 0, 64, 53
1, 475551, Control_c, 0, 64, 61
1, 475562, Note_off_c, 0, 38, 55
1, 475566, Control_c, 0, 64, 67
1, 475581, Control_c, 0, 64, 78
1, 475592, Note_off_c, 0, 45, 59
1, 475595, Control_c, 0, 64, 86
1, 475597, Note_on_c, 0, 48, 81
1, 475602, Note_off_c, 0, 49, 63
1, 475609, Note_off_c, 0, 42, 59
1, 475610, Control_c, 0, 64, 90
1, 475617, Note_off_c, 0, 33, 61
1, 475625, Control_c, 0, 64, 89
1, 475639, Note_off_c, 0, 48, 63
1, 475639, Control_c, 0, 64, 76
1, 475654, Control_c, 0, 64, 62
1, 475669, Control_c, 0, 64, 38
1, 475684, Control_c, 0, 64, 0
1, 475690, Note_on_c, 0, 47, 100
1, 475694, Note_on_c, 0, 45, 91
1, 475705, Note_on_c, 0, 42, 84
1, 475706, Note_on_c, 0, 39, 74
1, 475715, Note_on_c, 0, 33, 69
1, 475744, Note_off_c, 0, 47, 63
1, 475751, Control_c, 0, 64, 27
1, 475766, Control_c, 0, 64, 37
1, 475781, Control_c, 0, 64, 46
1, 475794, Note_on_c, 0, 47, 86
1, 475795, Control_c, 0, 64, 53
1, 475810, Control_c, 0, 64, 59
1, 475825, Control_c, 0, 64, 62
1, 475835, Note_off_c, 0, 47, 65
1, 475840, Control_c, 0, 64, 65
1, 475854, Control_c, 0, 64, 68
1, 475869, Control_c, 0, 64, 72
1, 475871, Note_off_c, 0, 45, 58
1, 475872, Note_off_c, 0, 39, 58
1, 475884, Control_c, 0, 64, 75
1, 475886, Note_on_c, 0, 47, 82
1, 475891, Note_off_c, 0, 42, 30
1, 475899, Control_c, 0, 64, 76
1, 475900, Note_off_c, 0, 33, 60
1, 475914, Control_c, 0, 64, 75
1, 475928, Note_off_c, 0, 47, 65
1, 475928, Control_c, 0, 64, 67
1, 475943, Control_c, 0, 64, 57
1, 475958, Control_c, 0, 64, 24
1, 475974, Control_c, 0, 64, 0
1, 475985, Note_on_c, 0, 53, 98
1, 475986, Note_on_c, 0, 41, 78
1, 475986, Note_on_c, 0, 45, 85
1, 475987, Note_on_c, 0, 48, 98
1, 475994, Note_on_c, 0, 36, 69
1, 475999, Note_on_c, 0, 33, 70
1, 476033, Control_c, 0, 64, 11
1, 476048, Control_c, 0, 64, 26
1, 476063, Control_c, 0, 64, 38
1, 476078, Control_c, 0, 64, 47
1, 476085, Note_off_c, 0, 48, 37
1, 476087, Note_on_c, 0, 52, 84
1, 476093, Control_c, 0, 64, 56
1, 476107, Control_c, 0, 64, 62
1, 476109, Note_off_c, 0, 53, 64
1, 476122, Control_c, 0, 64, 67
1, 476125, Note_off_c, 0, 41, 60
1, 476137, Control_c, 0, 64, 72
1, 476152, Control_c, 0, 64, 81
1, 476166, Control_c, 0, 64, 98
1, 476174, Note_off_c, 0, 45, 61
1, 476175, Note_on_c, 0, 51, 86
1, 476181, Control_c, 0, 64, 127
1, 476197, Note_off_c, 0, 36, 62
1, 476204, Note_off_c, 0, 33, 59
1, 476213, Note_off_c, 0, 52, 65
1, 476241, Control_c, 0, 64, 84
1, 476256, Control_c, 0, 64, 54
1, 476270, Note_on_c, 0, 50, 90
1, 476271, Control_c, 0, 64, 0
1, 476271, Note_on_c, 0, 45, 90
1, 476275, Note_on_c, 0, 38, 78
1, 476275, Note_on_c, 0, 42, 81
1, 476275, Note_on_c, 0, 48, 94
1, 476280, Note_on_c, 0, 33, 65
1, 476289, Note_off_c, 0, 51, 64
1, 476330, Control_c, 0, 64, 35
1, 476344, Control_c, 0, 64, 55
1, 476359, Control_c, 0, 64, 72
1, 476374, Control_c, 0, 64, 119
1, 476378, Note_on_c, 0, 49, 86
1, 476387, Note_off_c, 0, 48, 64
1, 476389, Control_c, 0, 64, 127
1, 476390, Note_off_c, 0, 50, 61
1, 476457, Note_off_c, 0, 38, 60
1, 476491, Note_on_c, 0, 48, 83
1, 476506, Note_off_c, 0, 45, 58
1, 476510, Note_off_c, 0, 49, 58
1, 476527, Note_off_c, 0, 42, 58
1, 476536, Note_off_c, 0, 33, 61
1, 476557, Note_off_c, 0, 48, 65
1, 476574, Control_c, 0, 64, 58
1, 476589, Control_c, 0, 64, 0
1, 476614, Note_on_c, 0, 45, 97
1, 476619, Note_on_c, 0, 42, 95
1, 476619, Note_on_c, 0, 47, 103
1, 476620, Note_on_c, 0, 33, 82
1, 476626, Note_on_c, 0, 39, 74
1, 476633, Control_c, 0, 64, 46
1, 476644, Note_off_c, 0, 45, 64
1, 476647, Note_off_c, 0, 33, 70
1, 476648, Control_c, 0, 64, 127
1, 476658, Note_off_c, 0, 42, 64
1, 476660, Note_off_c, 0, 39, 64
1, 476673, Note_off_c, 0, 47, 66
1, 476749, Note_on_c, 0, 47, 80
1, 476801, Note_off_c, 0, 47, 63
1, 476915, Note_on_c, 0, 47, 61
1, 476945, Note_on_c, 0, 63, 104
1, 476978, Note_off_c, 0, 63, 67
1, 476983, Note_off_c, 0, 47, 62
1, 477043, Note_on_c, 0, 63, 110
1, 477057, Note_on_c, 0, 47, 85
1, 477072, Note_off_c, 0, 63, 70
1, 477105, Note_off_c, 0, 47, 64
1, 477167, Note_on_c, 0, 47, 84
1, 477225, Note_off_c, 0, 47, 65
1, 477280, Note_on_c, 0, 47, 67
1, 477317, Note_off_c, 0, 47, 64
1, 477371, Note_on_c, 0, 47, 80
1, 477415, Note_off_c, 0, 47, 65
1, 477468, Note_on_c, 0, 47, 86
1, 477516, Note_off_c, 0, 47, 65
1, 477555, Poly_aftertouch_c, 0, 47, 0
1, 477564, Note_on_c, 0, 47, 76
1, 477608, Note_off_c, 0, 47, 65
1, 477659, Note_on_c, 0, 47, 81
1, 477701, Note_off_c, 0, 47, 64
1, 477755, Note_on_c, 0, 47, 80
1, 477791, Note_off_c, 0, 47, 66
1, 477853, Note_on_c, 0, 47, 65
1, 477868, Note_on_c, 0, 35, 64
1, 477900, Note_on_c, 0, 39, 70
1, 477901, Control_c, 0, 64, 62
1, 477906, Note_off_c, 0, 47, 64
1, 477915, Note_on_c, 0, 42, 63
1, 477916, Control_c, 0, 64, 0
1, 477938, Note_on_c, 0, 45, 100
1, 477950, Poly_aftertouch_c, 0, 47, 0
1, 477958, Note_on_c, 0, 47, 64
1, 477961, Note_on_c, 0, 51, 70
1, 477967, Note_off_c, 0, 42, 63
1, 477967, Note_off_c, 0, 35, 65
1, 477968, Control_c, 0, 64, 47
1, 477979, Note_off_c, 0, 39, 65
1, 477979, Note_off_c, 0, 45, 67
1, 477983, Control_c, 0, 64, 127
1, 478012, Note_off_c, 0, 47, 61
1, 478051, Note_on_c, 0, 47, 59
1, 478053, Note_off_c, 0, 51, 59
1, 478132, Note_off_c, 0, 47, 61
1, 478182, Note_on_c, 0, 66, 94
1, 478182, Note_on_c, 0, 51, 64
1, 478185, Note_on_c, 0, 47, 53
1, 478191, Note_on_c, 0, 63, 65
1, 478201, Note_off_c, 0, 66, 69
1, 478214, Note_off_c, 0, 63, 67
1, 478226, Note_off_c, 0, 47, 62
1, 478254, Note_on_c, 0, 66, 101
1, 478254, Note_off_c, 0, 51, 57
1, 478263, Note_on_c, 0, 63, 89
1, 478280, Note_on_c, 0, 47, 68
1, 478287, Note_off_c, 0, 66, 70
1, 478302, Note_off_c, 0, 63, 58
1, 478335, Note_off_c, 0, 47, 64
1, 478373, Note_on_c, 0, 47, 55
1, 478376, Note_on_c, 0, 51, 67
1, 478411, Note_off_c, 0, 47, 63
1, 478432, Note_off_c, 0, 51, 61
1, 478471, Note_on_c, 0, 47, 75
1, 478516, Note_off_c, 0, 47, 65
1, 478568, Note_on_c, 0, 47, 75
1, 478570, Note_on_c, 0, 51, 74
1, 478613, Note_off_c, 0, 47, 64
1, 478642, Note_off_c, 0, 51, 61
1, 478668, Note_on_c, 0, 47, 74
1, 478723, Note_off_c, 0, 47, 65
1, 478763, Poly_aftertouch_c, 0, 47, 0
1, 478770, Note_on_c, 0, 47, 73
1, 478773, Note_on_c, 0, 51, 75
1, 478816, Note_off_c, 0, 47, 64
1, 478858, Note_off_c, 0, 51, 60
1, 478860, Note_on_c, 0, 47, 73
1, 478969, Note_on_c, 0, 51, 62
1, 479025, Note_off_c, 0, 47, 0
1, 479033, Note_off_c, 0, 51, 56
1, 479034, Note_on_c, 0, 35, 58
1, 479045, Note_on_c, 0, 47, 47
1, 479094, Note_on_c, 0, 39, 58
1, 479106, Note_on_c, 0, 42, 60
1, 479116, Control_c, 0, 64, 70
1, 479131, Control_c, 0, 64, 43
1, 479141, Note_off_c, 0, 47, 60
1, 479145, Control_c, 0, 64, 26
1, 479156, Note_on_c, 0, 45, 98
1, 479160, Control_c, 0, 64, 54
1, 479163, Note_off_c, 0, 35, 66
1, 479175, Note_on_c, 0, 51, 64
1, 479176, Control_c, 0, 64, 127
1, 479180, Note_on_c, 0, 54, 61
1, 479183, Note_off_c, 0, 42, 62
1, 479184, Note_off_c, 0, 39, 64
1, 479189, Note_off_c, 0, 45, 64
1, 479220, Note_off_c, 0, 51, 58
1, 479256, Note_off_c, 0, 54, 61
1, 479260, Note_on_c, 0, 47, 66
1, 479353, Note_off_c, 0, 47, 58
1, 479383, Note_on_c, 0, 66, 77
1, 479389, Note_on_c, 0, 71, 76
1, 479393, Note_on_c, 0, 63, 61
1, 479400, Note_on_c, 0, 54, 39
1, 479407, Note_off_c, 0, 66, 67
1, 479411, Note_off_c, 0, 71, 72
1, 479413, Note_off_c, 0, 63, 65
1, 479462, Note_on_c, 0, 71, 98
1, 479465, Note_off_c, 0, 54, 51
1, 479469, Note_on_c, 0, 63, 80
1, 479476, Note_on_c, 0, 66, 83
1, 479491, Note_on_c, 0, 47, 64
1, 479494, Note_off_c, 0, 71, 69
1, 479497, Note_off_c, 0, 63, 66
1, 479497, Note_off_c, 0, 66, 66
1, 479581, Note_off_c, 0, 47, 60
1, 479586, Note_on_c, 0, 54, 60
1, 479599, Note_on_c, 0, 51, 55
1, 479670, Note_off_c, 0, 51, 59
1, 479700, Note_on_c, 0, 47, 68
1, 479706, Note_off_c, 0, 54, 59
1, 479800, Note_on_c, 0, 51, 61
1, 479801, Note_off_c, 0, 47, 62
1, 479804, Note_on_c, 0, 54, 60
1, 479879, Note_off_c, 0, 51, 60
1, 479911, Note_off_c, 0, 54, 58
1, 479921, Note_on_c, 0, 47, 60
1, 479950, Note_on_c, 0, 75, 89
1, 479958, Note_on_c, 0, 66, 65
1, 479960, Note_on_c, 0, 71, 70
1, 479979, Note_off_c, 0, 75, 60
1, 479988, Note_off_c, 0, 66, 65
1, 479988, Note_off_c, 0, 71, 66
1, 479999, Control_c, 0, 64, 103
1, 480009, Note_off_c, 0, 47, 61
1, 480014, Control_c, 0, 64, 61
1, 480029, Control_c, 0, 64, 53
1, 480036, Note_on_c, 0, 75, 97
1, 480036, Note_on_c, 0, 54, 58
1, 480041, Note_on_c, 0, 51, 40
1, 480044, Control_c, 0, 64, 62
1, 480048, Note_on_c, 0, 71, 67
1, 480049, Note_on_c, 0, 66, 78
1, 480054, Note_on_c, 0, 63, 57
1, 480058, Control_c, 0, 64, 114
1, 480073, Control_c, 0, 64, 127
1, 480076, Note_off_c, 0, 51, 52
1, 480078, Note_off_c, 0, 71, 68
1, 480082, Note_off_c, 0, 63, 65
1, 480083, Note_off_c, 0, 66, 64
1, 480090, Note_off_c, 0, 75, 64
1, 480105, Note_off_c, 0, 54, 55
1, 480122, Note_on_c, 0, 47, 56
1, 480204, Note_off_c, 0, 47, 57
1, 480227, Note_on_c, 0, 51, 45
1, 480228, Note_on_c, 0, 54, 57
1, 480295, Note_off_c, 0, 51, 54
1, 480318, Note_off_c, 0, 54, 62
1, 480326, Note_on_c, 0, 47, 56
1, 480411, Note_off_c, 0, 47, 60
1, 480420, Note_on_c, 0, 51, 53
1, 480435, Note_on_c, 0, 54, 49
1, 480537, Note_off_c, 0, 51, 56
1, 480569, Note_on_c, 0, 47, 45
1, 480572, Poly_aftertouch_c, 0, 55, 127
1, 480578, Note_off_c, 0, 54, 47
1, 480587, Note_on_c, 0, 75, 75
1, 480605, Note_on_c, 0, 71, 58
1, 480609, Note_on_c, 0, 66, 49
1, 480614, Note_off_c, 0, 75, 64
1, 480627, Note_off_c, 0, 71, 64
1, 480634, Note_off_c, 0, 66, 58
1, 480643, Control_c, 0, 64, 73
1, 480649, Note_off_c, 0, 47, 61
1, 480658, Control_c, 0, 64, 47
1, 480664, Note_on_c, 0, 63, 37
1, 480665, Note_on_c, 0, 75, 90
1, 480673, Control_c, 0, 64, 43
1, 480678, Note_on_c, 0, 66, 64
1, 480678, Note_on_c, 0, 71, 70
1, 480683, Note_on_c, 0, 51, 34
1, 480683, Note_on_c, 0, 54, 51
1, 480686, Poly_aftertouch_c, 0, 55, 0
1, 480688, Control_c, 0, 64, 61
1, 480703, Control_c, 0, 64, 127
1, 480716, Note_off_c, 0, 63, 62
1, 480722, Note_off_c, 0, 71, 62
1, 480725, Note_off_c, 0, 75, 62
1, 480729, Note_off_c, 0, 66, 58
1, 480730, Note_off_c, 0, 51, 49
1, 480766, Note_off_c, 0, 54, 59
1, 480780, Note_on_c, 0, 47, 50
1, 480863, Note_off_c, 0, 47, 62
1, 480886, Note_on_c, 0, 51, 44
1, 480896, Note_on_c, 0, 54, 45
1, 480992, Note_off_c, 0, 51, 56
1, 481008, Note_on_c, 0, 47, 54
1, 481033, Note_off_c, 0, 54, 49
1, 481127, Note_off_c, 0, 47, 57
1, 481139, Note_on_c, 0, 51, 43
1, 481148, Note_on_c, 0, 54, 53
1, 481245, Note_on_c, 0, 75, 76
1, 481260, Note_off_c, 0, 54, 57
1, 481261, Note_on_c, 0, 71, 59
1, 481264, Note_on_c, 0, 66, 53
1, 481273, Note_off_c, 0, 51, 35
1, 481275, Note_on_c, 0, 47, 43
1, 481291, Note_off_c, 0, 66, 62
1, 481294, Note_off_c, 0, 71, 66
1, 481297, Note_off_c, 0, 75, 60
1, 481376, Note_on_c, 0, 75, 79
1, 481388, Note_off_c, 0, 47, 43
1, 481395, Note_on_c, 0, 66, 58
1, 481409, Note_on_c, 0, 51, 29
1, 481410, Note_on_c, 0, 54, 42
1, 481415, Note_on_c, 0, 63, 52
1, 481419, Note_on_c, 0, 71, 46
1, 481422, Control_c, 0, 64, 122
1, 481437, Control_c, 0, 64, 61
1, 481452, Control_c, 0, 64, 23
1, 481454, Note_off_c, 0, 51, 49
1, 481461, Note_off_c, 0, 54, 58
1, 481466, Control_c, 0, 64, 0
1, 481511, Control_c, 0, 64, 31
1, 481514, Note_on_c, 0, 47, 46
1, 481526, Control_c, 0, 64, 65
1, 481541, Control_c, 0, 64, 127
1, 481586, Note_off_c, 0, 47, 60
1, 481589, Note_on_c, 0, 54, 52
1, 481599, Note_on_c, 0, 51, 41
1, 481668, Note_off_c, 0, 51, 57
1, 481694, Note_off_c, 0, 54, 61
1, 481711, Note_on_c, 0, 47, 49
1, 481779, Note_off_c, 0, 47, 61
1, 481809, Note_on_c, 0, 51, 48
1, 481811, Note_on_c, 0, 54, 43
1, 481816, Note_off_c, 0, 75, 60
1, 481866, Note_off_c, 0, 51, 56
1, 481902, Note_off_c, 0, 54, 61
1, 481905, Note_on_c, 0, 47, 51
1, 481955, Note_off_c, 0, 63, 31
1, 481979, Note_off_c, 0, 47, 55
1, 481997, Note_on_c, 0, 51, 48
1, 481997, Note_on_c, 0, 54, 50
1, 482080, Note_off_c, 0, 51, 57
1, 482098, Note_on_c, 0, 47, 61
1, 482099, Note_off_c, 0, 54, 61
1, 482165, Note_off_c, 0, 47, 62
1, 482183, Note_on_c, 0, 54, 50
1, 482197, Note_on_c, 0, 51, 52
1, 482242, Note_off_c, 0, 51, 54
1, 482278, Note_off_c, 0, 54, 62
1, 482279, Note_on_c, 0, 47, 61
1, 482341, Note_off_c, 0, 71, 44
1, 482359, Note_off_c, 0, 47, 62
1, 482372, Note_on_c, 0, 54, 50
1, 482376, Note_on_c, 0, 51, 50
1, 482469, Note_off_c, 0, 51, 55
1, 482486, Note_off_c, 0, 66, 34
1, 482537, Note_on_c, 0, 45, 54
1, 482542, Note_on_c, 0, 76, 84
1, 482564, Note_off_c, 0, 54, 40
1, 482569, Note_on_c, 0, 73, 60
1, 482576, Note_on_c, 0, 69, 53
1, 482581, Note_on_c, 0, 64, 48
1, 482593, Control_c, 0, 64, 81
1, 482608, Control_c, 0, 64, 58
1, 482623, Control_c, 0, 64, 24
1, 482632, Note_off_c, 0, 45, 56
1, 482638, Control_c, 0, 64, 0
1, 482675, Note_on_c, 0, 49, 51
1, 482676, Note_on_c, 0, 57, 36
1, 482683, Control_c, 0, 64, 30
1, 482698, Control_c, 0, 64, 53
1, 482712, Control_c, 0, 64, 83
1, 482727, Note_off_c, 0, 49, 61
1, 482727, Control_c, 0, 64, 127
1, 482760, Note_on_c, 0, 45, 50
1, 482823, Note_off_c, 0, 57, 0
1, 482826, Note_off_c, 0, 45, 59
1, 482835, Note_on_c, 0, 57, 39
1, 482856, Note_on_c, 0, 49, 40
1, 482908, Note_off_c, 0, 49, 56
1, 482945, Note_off_c, 0, 57, 52
1, 482954, Note_on_c, 0, 45, 53
1, 483011, Note_off_c, 0, 45, 52
1, 483034, Note_on_c, 0, 49, 45
1, 483040, Note_on_c, 0, 57, 43
1, 483106, Note_off_c, 0, 49, 56
1, 483138, Note_off_c, 0, 57, 53
1, 483139, Note_on_c, 0, 45, 52
1, 483226, Note_off_c, 0, 45, 55
1, 483242, Note_on_c, 0, 57, 36
1, 483264, Note_on_c, 0, 49, 44
1, 483309, Note_off_c, 0, 49, 62
1, 483341, Note_off_c, 0, 57, 56
1, 483350, Note_on_c, 0, 45, 51
1, 483436, Note_off_c, 0, 45, 48
1, 483437, Note_on_c, 0, 57, 43
1, 483445, Note_on_c, 0, 49, 42
1, 483503, Note_off_c, 0, 49, 55
1, 483538, Note_off_c, 0, 57, 47
1, 483544, Note_on_c, 0, 45, 53
1, 483608, Note_off_c, 0, 45, 59
1, 483625, Note_on_c, 0, 57, 42
1, 483649, Note_on_c, 0, 49, 46
1, 483697, Note_off_c, 0, 49, 59
1, 483720, Note_off_c, 0, 57, 57
1, 483730, Note_on_c, 0, 45, 58
1, 483807, Note_off_c, 0, 45, 60
1, 483829, Note_on_c, 0, 57, 46
1, 483832, Note_on_c, 0, 49, 37
1, 483902, Note_off_c, 0, 57, 48
1, 483907, Note_off_c, 0, 49, 58
1, 483933, Note_on_c, 0, 45, 56
1, 484007, Note_off_c, 0, 45, 58
1, 484027, Note_on_c, 0, 57, 50
1, 484056, Note_on_c, 0, 49, 42
1, 484090, Note_off_c, 0, 49, 53
1, 484102, Note_off_c, 0, 57, 55
1, 484132, Note_on_c, 0, 45, 53
1, 484188, Note_off_c, 0, 45, 58
1, 484207, Note_on_c, 0, 49, 47
1, 484221, Note_on_c, 0, 57, 41
1, 484267, Note_off_c, 0, 49, 56
1, 484287, Note_off_c, 0, 57, 52
1, 484296, Note_on_c, 0, 45, 52
1, 484373, Note_off_c, 0, 45, 61
1, 484386, Note_off_c, 0, 76, 38
1, 484408, Note_on_c, 0, 49, 49
1, 484410, Note_on_c, 0, 57, 49
1, 484454, Note_off_c, 0, 49, 58
1, 484478, Note_off_c, 0, 57, 47
1, 484492, Note_on_c, 0, 45, 57
1, 484564, Note_off_c, 0, 45, 62
1, 484581, Note_off_c, 0, 73, 60
1, 484585, Note_on_c, 0, 57, 43
1, 484586, Note_on_c, 0, 49, 52
1, 484614, Note_off_c, 0, 69, 56
1, 484651, Note_off_c, 0, 49, 61
1, 484659, Note_off_c, 0, 57, 52
1, 484695, Note_on_c, 0, 45, 52
1, 484703, Note_off_c, 0, 64, 40
1, 484739, Note_off_c, 0, 45, 55
1, 484774, Note_on_c, 0, 57, 55
1, 484792, Note_on_c, 0, 49, 47
1, 484835, Note_off_c, 0, 49, 62
1, 484857, Note_off_c, 0, 57, 55
1, 484877, Note_on_c, 0, 75, 78
1, 484900, Note_on_c, 0, 63, 57
1, 484901, Note_on_c, 0, 71, 55
1, 484903, Note_on_c, 0, 47, 53
1, 484909, Note_on_c, 0, 66, 58
1, 484914, Control_c, 0, 64, 74
1, 484929, Control_c, 0, 64, 53
1, 484944, Control_c, 0, 64, 0
1, 484966, Note_off_c, 0, 47, 57
1, 485012, Note_on_c, 0, 54, 35
1, 485018, Note_on_c, 0, 51, 41
1, 485018, Control_c, 0, 64, 24
1, 485032, Control_c, 0, 64, 55
1, 485047, Control_c, 0, 64, 127
1, 485070, Note_off_c, 0, 51, 60
1, 485084, Note_off_c, 0, 54, 58
1, 485091, Note_on_c, 0, 47, 58
1, 485175, Note_off_c, 0, 47, 60
1, 485184, Note_on_c, 0, 51, 52
1, 485207, Note_on_c, 0, 54, 45
1, 485273, Note_off_c, 0, 51, 51
1, 485288, Note_on_c, 0, 47, 59
1, 485289, Note_off_c, 0, 54, 59
1, 485386, Note_off_c, 0, 47, 51
1, 485394, Note_on_c, 0, 51, 54
1, 485398, Note_off_c, 0, 75, 52
1, 485399, Note_on_c, 0, 54, 47
1, 485469, Note_off_c, 0, 51, 50
1, 485497, Note_on_c, 0, 47, 51
1, 485503, Note_off_c, 0, 54, 51
1, 485572, Note_off_c, 0, 47, 61
1, 485596, Note_on_c, 0, 54, 35
1, 485603, Note_on_c, 0, 51, 55
1, 485673, Note_off_c, 0, 51, 55
1, 485693, Note_off_c, 0, 54, 53
1, 485695, Note_on_c, 0, 47, 55
1, 485782, Note_off_c, 0, 47, 57
1, 485792, Note_on_c, 0, 54, 47
1, 485801, Note_on_c, 0, 51, 51
1, 485855, Note_off_c, 0, 71, 37
1, 485867, Note_off_c, 0, 51, 37
1, 485887, Note_off_c, 0, 54, 58
1, 485896, Note_on_c, 0, 47, 45
1, 485896, Note_off_c, 0, 63, 60
1, 485926, Note_off_c, 0, 66, 36
1, 485974, Note_off_c, 0, 47, 60
1, 485986, Note_on_c, 0, 54, 36
1, 485997, Note_on_c, 0, 51, 45
1, 486096, Note_off_c, 0, 51, 53
1, 486108, Control_c, 0, 64, 59
1, 486120, Note_on_c, 0, 73, 75
1, 486121, Note_off_c, 0, 54, 61
1, 486123, Control_c, 0, 64, 0
1, 486126, Note_on_c, 0, 66, 52
1, 486127, Note_on_c, 0, 71, 56
1, 486139, Note_on_c, 0, 61, 66
1, 486141, Note_on_c, 0, 47, 50
1, 486189, Control_c, 0, 64, 22
1, 486203, Control_c, 0, 64, 63
1, 486218, Control_c, 0, 64, 127
1, 486228, Note_off_c, 0, 73, 65
1, 486237, Note_off_c, 0, 47, 56
1, 486263, Note_on_c, 0, 54, 54
1, 486263, Note_off_c, 0, 71, 64
1, 486264, Note_on_c, 0, 49, 55
1, 486313, Note_off_c, 0, 66, 61
1, 486322, Note_off_c, 0, 61, 62
1, 486322, Note_off_c, 0, 54, 56
1, 486330, Note_off_c, 0, 49, 55
1, 486367, Note_on_c, 0, 47, 59
1, 486418, Note_off_c, 0, 47, 59
1, 486460, Note_on_c, 0, 54, 50
1, 486480, Note_on_c, 0, 49, 38
1, 486528, Note_off_c, 0, 49, 48
1, 486553, Note_off_c, 0, 54, 45
1, 486558, Note_on_c, 0, 47, 48
1, 486648, Note_off_c, 0, 47, 55
1, 486674, Note_on_c, 0, 49, 31
1, 486697, Note_on_c, 0, 54, 35
1, 486718, Note_off_c, 0, 49, 59
1, 486737, Note_on_c, 0, 42, 73
1, 486743, Note_on_c, 0, 37, 70
1, 486743, Note_off_c, 0, 54, 50
1, 486744, Note_on_c, 0, 30, 63
1, 486776, Note_on_c, 0, 47, 55
1, 486779, Note_off_c, 0, 30, 63
1, 486780, Note_off_c, 0, 42, 59
1, 486783, Note_off_c, 0, 37, 59
1, 486827, Note_off_c, 0, 47, 59
1, 486867, Note_on_c, 0, 54, 43
1, 486882, Note_on_c, 0, 49, 36
1, 486945, Note_off_c, 0, 49, 58
1, 486954, Note_off_c, 0, 54, 56
1, 486980, Note_on_c, 0, 47, 51
1, 487038, Note_off_c, 0, 47, 58
1, 487075, Note_on_c, 0, 49, 47
1, 487081, Note_on_c, 0, 54, 50
1, 487140, Note_off_c, 0, 54, 58
1, 487151, Note_off_c, 0, 49, 51
1, 487175, Note_on_c, 0, 47, 47
1, 487235, Note_off_c, 0, 47, 61
1, 487267, Note_on_c, 0, 54, 52
1, 487274, Note_on_c, 0, 49, 44
1, 487324, Control_c, 0, 64, 77
1, 487339, Control_c, 0, 64, 30
1, 487343, Note_off_c, 0, 49, 54
1, 487347, Note_off_c, 0, 54, 60
1, 487352, Note_on_c, 0, 73, 76
1, 487354, Control_c, 0, 64, 0
1, 487362, Note_on_c, 0, 70, 64
1, 487366, Note_on_c, 0, 61, 61
1, 487371, Note_on_c, 0, 64, 55
1, 487381, Note_on_c, 0, 46, 62
1, 487398, Control_c, 0, 64, 23
1, 487413, Control_c, 0, 64, 58
1, 487427, Control_c, 0, 64, 127
1, 487428, Note_off_c, 0, 73, 65
1, 487458, Note_off_c, 0, 46, 62
1, 487467, Note_off_c, 0, 70, 62
1, 487480, Note_off_c, 0, 61, 64
1, 487483, Note_off_c, 0, 64, 60
1, 487485, Note_on_c, 0, 49, 51
1, 487488, Note_on_c, 0, 54, 57
1, 487545, Note_off_c, 0, 54, 58
1, 487546, Note_off_c, 0, 49, 59
1, 487578, Note_on_c, 0, 46, 64
1, 487651, Note_off_c, 0, 46, 60
1, 487683, Note_on_c, 0, 49, 45
1, 487691, Note_on_c, 0, 54, 41
1, 487769, Note_off_c, 0, 49, 57
1, 487785, Note_on_c, 0, 46, 54
1, 487802, Note_off_c, 0, 54, 38
1, 487872, Note_off_c, 0, 46, 58
1, 487910, Note_on_c, 0, 54, 34
1, 487932, Note_on_c, 0, 49, 34
1, 487963, Note_on_c, 0, 30, 54
1, 487963, Note_on_c, 0, 42, 57
1, 487967, Note_on_c, 0, 37, 55
1, 487973, Note_off_c, 0, 49, 55
1, 487973, Note_off_c, 0, 54, 57
1, 488006, Note_on_c, 0, 46, 49
1, 488006, Note_off_c, 0, 30, 61
1, 488016, Note_off_c, 0, 42, 55
1, 488032, Note_off_c, 0, 37, 57
1, 488082, Note_off_c, 0, 46, 58
1, 488115, Note_on_c, 0, 49, 33
1, 488117, Note_on_c, 0, 54, 39
1, 488168, Note_off_c, 0, 49, 59
1, 488174, Note_off_c, 0, 54, 58
1, 488212, Note_on_c, 0, 46, 50
1, 488269, Note_off_c, 0, 46, 62
1, 488316, Note_on_c, 0, 54, 37
1, 488318, Note_on_c, 0, 49, 35
1, 488361, Note_off_c, 0, 49, 53
1, 488369, Note_off_c, 0, 54, 43
1, 488402, Note_on_c, 0, 46, 46
1, 488465, Note_off_c, 0, 46, 57
1, 488469, Note_on_c, 0, 54, 26
1, 488490, Note_on_c, 0, 49, 43
1, 488537, Note_off_c, 0, 54, 56
1, 488608, Note_on_c, 0, 71, 74
1, 488629, Note_on_c, 0, 67, 57
1, 488629, Control_c, 0, 64, 78
1, 488635, Note_on_c, 0, 62, 50
1, 488636, Note_on_c, 0, 55, 55
1, 488636, Note_on_c, 0, 59, 54
1, 488644, Control_c, 0, 64, 57
1, 488657, Note_off_c, 0, 49, 46
1, 488658, Control_c, 0, 64, 16
1, 488673, Control_c, 0, 64, 0
1, 488763, Control_c, 0, 64, 39
1, 488778, Control_c, 0, 64, 70
1, 488785, Note_on_c, 0, 50, 48
1, 488793, Control_c, 0, 64, 127
1, 488826, Note_off_c, 0, 55, 0
1, 488826, Note_on_c, 0, 55, 11
1, 488859, Note_on_c, 0, 47, 45
1, 488915, Note_off_c, 0, 47, 61
1, 488930, Note_off_c, 0, 50, 34
1, 488958, Note_on_c, 0, 43, 50
1, 488988, Note_off_c, 0, 55, 34
1, 489048, Note_on_c, 0, 50, 45
1, 489077, Note_off_c, 0, 43, 37
1, 489154, Note_on_c, 0, 47, 49
1, 489240, Note_off_c, 0, 50, 27
1, 489268, Note_off_c, 0, 47, 59
1, 489276, Note_on_c, 0, 55, 51
1, 489376, Note_on_c, 0, 50, 45
1, 489463, Note_on_c, 0, 47, 41
1, 489502, Note_off_c, 0, 67, 63
1, 489505, Note_off_c, 0, 47, 63
1, 489512, Note_off_c, 0, 59, 39
1, 489549, Note_off_c, 0, 55, 28
1, 489551, Note_off_c, 0, 62, 62
1, 489563, Note_off_c, 0, 50, 31
1, 489563, Note_on_c, 0, 43, 39
1, 489624, Note_on_c, 0, 50, 29
1, 489635, Note_off_c, 0, 71, 39
1, 489638, Note_off_c, 0, 43, 53
1, 489715, Note_on_c, 0, 47, 53
1, 489747, Note_off_c, 0, 47, 65
1, 489759, Note_off_c, 0, 50, 34
1, 489793, Control_c, 0, 64, 88
1, 489808, Control_c, 0, 64, 56
1, 489822, Control_c, 0, 64, 0
1, 489828, Note_on_c, 0, 72, 72
1, 489837, Note_on_c, 0, 60, 56
1, 489840, Note_on_c, 0, 57, 56
1, 489843, Note_on_c, 0, 69, 57
1, 489848, Note_on_c, 0, 65, 53
1, 489867, Control_c, 0, 64, 41
1, 489882, Control_c, 0, 64, 65
1, 489897, Control_c, 0, 64, 127
1, 489935, Note_off_c, 0, 57, 55
1, 489939, Note_on_c, 0, 53, 53
1, 490007, Note_off_c, 0, 72, 60
1, 490016, Note_off_c, 0, 53, 62
1, 490025, Note_on_c, 0, 48, 44
1, 490073, Note_off_c, 0, 48, 62
1, 490126, Note_on_c, 0, 41, 56
1, 490164, Note_off_c, 0, 41, 61
1, 490236, Note_on_c, 0, 53, 50
1, 490300, Note_on_c, 0, 48, 52
1, 490385, Note_off_c, 0, 53, 32
1, 490389, Note_off_c, 0, 48, 62
1, 490402, Note_on_c, 0, 57, 54
1, 490475, Note_off_c, 0, 57, 57
1, 490516, Note_on_c, 0, 53, 44
1, 490555, Note_on_c, 0, 48, 52
1, 490565, Note_off_c, 0, 53, 51
1, 490627, Note_off_c, 0, 48, 63
1, 490676, Note_on_c, 0, 41, 67
1, 490728, Note_off_c, 0, 41, 59
1, 490787, Note_on_c, 0, 53, 45
1, 490865, Note_on_c, 0, 48, 49
1, 490916, Note_off_c, 0, 53, 36
1, 490927, Note_off_c, 0, 48, 59
1, 490955, Note_on_c, 0, 57, 53
1, 491020, Note_off_c, 0, 57, 49
1, 491046, Note_on_c, 0, 53, 49
1, 491117, Note_off_c, 0, 53, 62
1, 491128, Note_on_c, 0, 48, 46
1, 491173, Note_off_c, 0, 48, 62
1, 491225, Note_on_c, 0, 41, 55
1, 491265, Note_off_c, 0, 41, 59
1, 491332, Note_on_c, 0, 53, 44
1, 491420, Note_on_c, 0, 48, 34
1, 491470, Note_off_c, 0, 69, 43
1, 491476, Note_off_c, 0, 53, 34
1, 491495, Note_off_c, 0, 48, 51
1, 491501, Note_on_c, 0, 57, 47
1, 491584, Note_off_c, 0, 57, 48
1, 491618, Note_on_c, 0, 53, 34
1, 491666, Note_on_c, 0, 48, 46
1, 491667, Note_off_c, 0, 65, 36
1, 491687, Note_off_c, 0, 60, 46
1, 491718, Note_off_c, 0, 48, 61
1, 491761, Note_off_c, 0, 53, 38
1, 491778, Note_on_c, 0, 41, 49
1, 491831, Note_off_c, 0, 41, 45
1, 491910, Note_on_c, 0, 53, 39
1, 491973, Note_on_c, 0, 48, 44
1, 492013, Note_off_c, 0, 53, 58
1, 492073, Note_off_c, 0, 48, 49
1, 492079, Note_on_c, 0, 71, 74
1, 492099, Note_on_c, 0, 55, 48
1, 492108, Note_on_c, 0, 67, 51
1, 492113, Control_c, 0, 64, 77
1, 492114, Note_on_c, 0, 59, 39
1, 492125, Note_on_c, 0, 62, 50
1, 492128, Control_c, 0, 64, 60
1, 492143, Control_c, 0, 64, 34
1, 492158, Control_c, 0, 64, 0
1, 492159, Note_off_c, 0, 59, 0
1, 492159, Note_on_c, 0, 59, 14
1, 492226, Note_on_c, 0, 50, 43
1, 492254, Control_c, 0, 64, 44
1, 492269, Control_c, 0, 64, 77
1, 492284, Control_c, 0, 64, 127
1, 492302, Note_on_c, 0, 47, 50
1, 492349, Note_off_c, 0, 50, 0
1, 492349, Note_on_c, 0, 50, 7
1, 492362, Note_off_c, 0, 55, 0
1, 492362, Note_on_c, 0, 55, 20
1, 492365, Note_off_c, 0, 47, 61
1, 492392, Note_off_c, 0, 50, 33
1, 492405, Note_on_c, 0, 43, 43
1, 492505, Note_on_c, 0, 50, 41
1, 492535, Note_off_c, 0, 43, 36
1, 492565, Note_off_c, 0, 55, 41
1, 492601, Note_on_c, 0, 47, 46
1, 492669, Note_off_c, 0, 50, 41
1, 492674, Note_off_c, 0, 71, 36
1, 492698, Note_on_c, 0, 55, 47
1, 492734, Note_off_c, 0, 47, 36
1, 492809, Note_on_c, 0, 50, 38
1, 492863, Note_off_c, 0, 67, 36
1, 492895, Note_on_c, 0, 47, 32
1, 492901, Note_off_c, 0, 62, 55
1, 492958, Note_off_c, 0, 47, 55
1, 492976, Note_off_c, 0, 50, 42
1, 492995, Note_on_c, 0, 43, 44
1, 493041, Note_off_c, 0, 59, 40
1, 493105, Note_on_c, 0, 50, 40
1, 493109, Note_off_c, 0, 43, 36
1, 493181, Note_off_c, 0, 55, 41
1, 493196, Note_on_c, 0, 47, 38
1, 493231, Note_off_c, 0, 50, 0
1, 493262, Note_off_c, 0, 47, 54
1, 493268, Control_c, 0, 64, 79
1, 493272, Poly_aftertouch_c, 0, 50, 0
1, 493283, Control_c, 0, 64, 59
1, 493298, Note_on_c, 0, 55, 58
1, 493298, Control_c, 0, 64, 27
1, 493299, Note_on_c, 0, 69, 51
1, 493301, Note_on_c, 0, 62, 52
1, 493302, Note_on_c, 0, 67, 54
1, 493307, Note_on_c, 0, 57, 49
1, 493313, Control_c, 0, 64, 0
1, 493342, Control_c, 0, 64, 9
1, 493357, Control_c, 0, 64, 51
1, 493372, Control_c, 0, 64, 86
1, 493387, Control_c, 0, 64, 127
1, 493408, Note_off_c, 0, 69, 66
1, 493414, Note_off_c, 0, 67, 66
1, 493418, Note_on_c, 0, 50, 39
1, 493461, Note_off_c, 0, 57, 61
1, 493465, Note_off_c, 0, 62, 62
1, 493480, Note_off_c, 0, 50, 60
1, 493530, Note_on_c, 0, 45, 41
1, 493569, Note_off_c, 0, 45, 54
1, 493623, Note_on_c, 0, 50, 40
1, 493669, Note_off_c, 0, 50, 50
1, 493694, Note_on_c, 0, 45, 40
1, 493757, Note_off_c, 0, 45, 58
1, 493791, Note_on_c, 0, 50, 40
1, 493854, Note_off_c, 0, 50, 55
1, 493897, Note_on_c, 0, 33, 59
1, 493898, Note_on_c, 0, 45, 38
1, 493899, Note_on_c, 0, 26, 52
1, 493902, Note_on_c, 0, 38, 45
1, 493930, Note_off_c, 0, 33, 65
1, 493939, Note_off_c, 0, 26, 43
1, 493939, Note_off_c, 0, 38, 51
1, 493945, Note_off_c, 0, 45, 59
1, 494013, Note_on_c, 0, 50, 34
1, 494051, Note_off_c, 0, 50, 48
1, 494083, Note_on_c, 0, 45, 37
1, 494129, Note_off_c, 0, 45, 52
1, 494177, Note_on_c, 0, 50, 31
1, 494211, Note_off_c, 0, 50, 48
1, 494254, Note_on_c, 0, 45, 37
1, 494282, Note_off_c, 0, 55, 57
1, 494335, Note_on_c, 0, 50, 41
1, 494365, Note_on_c, 0, 57, 39
1, 494389, Note_on_c, 0, 62, 48
1, 494440, Note_on_c, 0, 66, 52
1, 494440, Control_c, 0, 64, 62
1, 494455, Control_c, 0, 64, 31
1, 494459, Note_off_c, 0, 50, 58
1, 494470, Control_c, 0, 64, 0
1, 494490, Note_off_c, 0, 45, 44
1, 494494, Note_on_c, 0, 69, 69
1, 494499, Control_c, 0, 64, 40
1, 494511, Note_on_c, 0, 54, 48
1, 494514, Control_c, 0, 64, 85
1, 494529, Control_c, 0, 64, 127
1, 494544, Note_off_c, 0, 69, 65
1, 494562, Note_off_c, 0, 57, 39
1, 494567, Note_off_c, 0, 62, 61
1, 494567, Note_off_c, 0, 66, 62
1, 494612, Note_on_c, 0, 50, 52
1, 494666, Note_off_c, 0, 50, 57
1, 494722, Note_on_c, 0, 45, 41
1, 494771, Note_off_c, 0, 45, 49
1, 494805, Note_on_c, 0, 50, 33
1, 494857, Note_off_c, 0, 50, 44
1, 494893, Note_on_c, 0, 45, 36
1, 494957, Note_off_c, 0, 45, 49
1, 495008, Note_on_c, 0, 50, 21
1, 495064, Note_off_c, 0, 50, 44
1, 495108, Note_on_c, 0, 45, 27
1, 495112, Note_on_c, 0, 38, 39
1, 495116, Note_on_c, 0, 33, 40
1, 495116, Note_on_c, 0, 26, 34
1, 495153, Note_off_c, 0, 38, 49
1, 495156, Note_off_c, 0, 33, 63
1, 495159, Note_off_c, 0, 26, 38
1, 495191, Note_off_c, 0, 45, 47
1, 495252, Note_on_c, 0, 50, 11
1, 495318, Note_off_c, 0, 50, 43
1, 495342, Note_on_c, 0, 45, 31
1, 495382, Control_c, 0, 67, 11
1, 495397, Control_c, 0, 67, 24
1, 495412, Control_c, 0, 67, 42
1, 495427, Control_c, 0, 67, 64
1, 495432, Note_off_c, 0, 45, 39
1, 495441, Control_c, 0, 67, 91
1, 495456, Control_c, 0, 67, 118
1, 495468, Note_on_c, 0, 50, 22
1, 495471, Control_c, 0, 67, 127
1, 495512, Note_off_c, 0, 50, 49
1, 495569, Note_on_c, 0, 45, 14
1, 495620, Note_off_c, 0, 45, 50
1, 495638, Note_on_c, 0, 50, 34
1, 495793, Note_on_c, 0, 45, 21
1, 495802, Note_on_c, 0, 55, 30
1, 495852, Note_off_c, 0, 50, 33
1, 495859, Note_on_c, 0, 59, 30
1, 495871, Control_c, 0, 64, 102
1, 495886, Control_c, 0, 64, 89
1, 495894, Note_off_c, 0, 54, 40
1, 495901, Control_c, 0, 64, 80
1, 495923, Control_c, 0, 64, 71
1, 495938, Control_c, 0, 64, 62
1, 495952, Note_on_c, 0, 63, 42
1, 495954, Control_c, 0, 64, 50
1, 495969, Control_c, 0, 64, 25
1, 495984, Control_c, 0, 64, 0
1, 496004, Note_off_c, 0, 63, 0
1, 496004, Note_on_c, 0, 63, 3
1, 496004, Note_off_c, 0, 45, 44
1, 496042, Note_on_c, 0, 67, 54
1, 496058, Control_c, 0, 64, 33
1, 496072, Control_c, 0, 64, 56
1, 496087, Control_c, 0, 64, 95
1, 496091, Note_on_c, 0, 51, 41
1, 496102, Control_c, 0, 64, 127
1, 496113, Note_off_c, 0, 55, 44
1, 496124, Note_off_c, 0, 67, 61
1, 496162, Note_off_c, 0, 59, 40
1, 496181, Note_off_c, 0, 63, 42
1, 496195, Note_on_c, 0, 47, 39
1, 496221, Note_off_c, 0, 51, 0
1, 496233, Note_off_c, 0, 47, 63
1, 496276, Poly_aftertouch_c, 0, 51, 0
1, 496333, Poly_aftertouch_c, 0, 43, 127
1, 496362, Note_on_c, 0, 55, 42
1, 496379, Poly_aftertouch_c, 0, 43, 0
1, 496416, Note_off_c, 0, 55, 45
1, 496454, Note_on_c, 0, 51, 51
1, 496541, Note_off_c, 0, 51, 58
1, 496565, Note_on_c, 0, 47, 39
1, 496615, Note_off_c, 0, 47, 59
1, 496669, Note_on_c, 0, 51, 39
1, 496768, Note_on_c, 0, 47, 35
1, 496823, Note_off_c, 0, 47, 62
1, 496864, Note_off_c, 0, 51, 39
1, 496872, Note_on_c, 0, 43, 38
1, 496954, Note_off_c, 0, 43, 38
1, 496964, Note_on_c, 0, 55, 45
1, 497050, Note_off_c, 0, 55, 36
1, 497076, Note_on_c, 0, 51, 50
1, 497152, Note_on_c, 0, 27, 53
1, 497157, Note_on_c, 0, 35, 48
1, 497158, Note_on_c, 0, 39, 44
1, 497170, Note_off_c, 0, 51, 60
1, 497187, Note_off_c, 0, 27, 60
1, 497187, Note_off_c, 0, 39, 55
1, 497188, Note_off_c, 0, 35, 56
1, 497207, Note_on_c, 0, 47, 13
1, 497235, Control_c, 0, 64, 97
1, 497250, Control_c, 0, 64, 69
1, 497255, Note_off_c, 0, 47, 50
1, 497265, Note_on_c, 0, 27, 48
1, 497265, Control_c, 0, 64, 50
1, 497266, Note_on_c, 0, 39, 49
1, 497269, Note_on_c, 0, 35, 44
1, 497279, Control_c, 0, 64, 14
1, 497294, Control_c, 0, 64, 0
1, 497320, Note_on_c, 0, 51, 8
1, 497324, Control_c, 0, 64, 31
1, 497338, Control_c, 0, 64, 52
1, 497353, Control_c, 0, 64, 71
1, 497368, Control_c, 0, 64, 127
1, 497385, Note_on_c, 0, 47, 34
1, 497435, Note_off_c, 0, 47, 51
1, 497457, Note_off_c, 0, 51, 25
1, 497468, Note_on_c, 0, 43, 43
1, 497528, Note_off_c, 0, 43, 55
1, 497566, Note_on_c, 0, 55, 54
1, 497632, Note_off_c, 0, 55, 54
1, 497671, Note_on_c, 0, 51, 48
1, 497754, Note_off_c, 0, 51, 57
1, 497771, Note_on_c, 0, 47, 38
1, 497827, Note_off_c, 0, 27, 36
1, 497844, Note_off_c, 0, 47, 52
1, 497881, Note_on_c, 0, 51, 42
1, 497912, Note_off_c, 0, 39, 34
1, 497921, Note_off_c, 0, 35, 40
1, 497987, Note_on_c, 0, 47, 49
1, 498043, Note_off_c, 0, 47, 60
1, 498097, Note_on_c, 0, 43, 43
1, 498112, Note_off_c, 0, 51, 40
1, 498169, Note_off_c, 0, 43, 49
1, 498198, Note_on_c, 0, 55, 52
1, 498279, Note_on_c, 0, 51, 39
1, 498312, Note_off_c, 0, 55, 35
1, 498392, Note_off_c, 0, 51, 52
1, 498407, Control_c, 0, 64, 96
1, 498422, Control_c, 0, 64, 71
1, 498437, Control_c, 0, 64, 57
1, 498452, Control_c, 0, 64, 25
1, 498466, Control_c, 0, 64, 0
1, 498482, Note_on_c, 0, 55, 45
1, 498490, Note_on_c, 0, 64, 57
1, 498507, Note_on_c, 0, 60, 40
1, 498508, Note_on_c, 0, 52, 37
1, 498526, Control_c, 0, 64, 31
1, 498540, Control_c, 0, 64, 52
1, 498555, Control_c, 0, 64, 77
1, 498559, Note_off_c, 0, 60, 0
1, 498559, Note_on_c, 0, 60, 7
1, 498570, Control_c, 0, 64, 127
1, 498583, Note_on_c, 0, 48, 38
1, 498609, Note_off_c, 0, 55, 44
1, 498622, Note_off_c, 0, 64, 60
1, 498641, Note_off_c, 0, 48, 45
1, 498654, Note_off_c, 0, 60, 39
1, 498681, Note_on_c, 0, 43, 42
1, 498687, Note_off_c, 0, 52, 42
1, 498738, Note_off_c, 0, 43, 51
1, 498766, Note_on_c, 0, 55, 49
1, 498867, Note_on_c, 0, 52, 47
1, 498887, Note_off_c, 0, 55, 36
1, 498960, Note_off_c, 0, 52, 60
1, 498972, Note_on_c, 0, 48, 47
1, 499047, Note_off_c, 0, 48, 56
1, 499097, Note_on_c, 0, 52, 42
1, 499194, Note_on_c, 0, 48, 28
1, 499257, Note_off_c, 0, 48, 43
1, 499279, Note_on_c, 0, 43, 45
1, 499314, Note_off_c, 0, 52, 45
1, 499374, Note_off_c, 0, 43, 37
1, 499382, Note_on_c, 0, 55, 49
1, 499476, Note_on_c, 0, 52, 43
1, 499515, Note_off_c, 0, 55, 32
1, 499570, Note_on_c, 0, 48, 46
1, 499570, Note_off_c, 0, 52, 60
1, 499585, Note_on_c, 0, 24, 50
1, 499585, Note_on_c, 0, 31, 49
1, 499590, Note_on_c, 0, 36, 41
1, 499622, Note_off_c, 0, 48, 59
1, 499639, Note_off_c, 0, 36, 0
1, 499644, Note_off_c, 0, 24, 0
1, 499644, Note_off_c, 0, 31, 0
1, 499662, Note_on_c, 0, 36, 42
1, 499662, Note_on_c, 0, 24, 50
1, 499663, Note_on_c, 0, 31, 49
1, 499668, Control_c, 0, 64, 77
1, 499683, Control_c, 0, 64, 60
1, 499697, Control_c, 0, 64, 42
1, 499704, Note_on_c, 0, 52, 32
1, 499712, Control_c, 0, 64, 11
1, 499727, Control_c, 0, 64, 0
1, 499741, Control_c, 0, 64, 18
1, 499756, Control_c, 0, 64, 34
1, 499763, Note_on_c, 0, 48, 41
1, 499771, Control_c, 0, 64, 52
1, 499786, Control_c, 0, 64, 66
1, 499801, Control_c, 0, 64, 102
1, 499815, Control_c, 0, 64, 127
1, 499829, Note_off_c, 0, 48, 57
1, 499873, Note_on_c, 0, 43, 44
1, 499898, Note_off_c, 0, 52, 38
1, 499939, Note_off_c, 0, 43, 53
1, 499980, Note_on_c, 0, 55, 50
1, 500047, Note_off_c, 0, 55, 50
1, 500061, Note_on_c, 0, 52, 42
1, 500157, Note_off_c, 0, 52, 55
1, 500164, Note_on_c, 0, 48, 42
1, 500227, Note_off_c, 0, 48, 63
1, 500263, Note_on_c, 0, 52, 37
1, 500306, Note_off_c, 0, 24, 39
1, 500344, Note_on_c, 0, 48, 27
1, 500391, Note_off_c, 0, 31, 40
1, 500394, Note_off_c, 0, 36, 40
1, 500439, Note_on_c, 0, 43, 48
1, 500439, Note_off_c, 0, 48, 38
1, 500479, Note_off_c, 0, 43, 59
1, 500493, Note_off_c, 0, 52, 52
1, 500547, Note_on_c, 0, 55, 52
1, 500634, Note_on_c, 0, 52, 50
1, 500637, Note_off_c, 0, 55, 49
1, 500704, Note_off_c, 0, 52, 63
1, 500761, Note_on_c, 0, 48, 40
1, 500817, Control_c, 0, 64, 80
1, 500832, Control_c, 0, 64, 62
1, 500847, Control_c, 0, 64, 42
1, 500861, Control_c, 0, 64, 0
1, 500869, Note_off_c, 0, 48, 43
1, 500890, Note_on_c, 0, 70, 62
1, 500891, Note_on_c, 0, 58, 47
1, 500898, Note_on_c, 0, 62, 48
1, 500905, Note_on_c, 0, 65, 45
1, 500920, Note_on_c, 0, 53, 28
1, 500935, Control_c, 0, 64, 36
1, 500950, Control_c, 0, 64, 54
1, 500965, Control_c, 0, 64, 74
1, 500966, Note_off_c, 0, 70, 62
1, 500974, Note_off_c, 0, 58, 62
1, 500979, Control_c, 0, 64, 127
1, 500995, Note_off_c, 0, 62, 62
1, 500997, Note_off_c, 0, 65, 63
1, 501003, Note_on_c, 0, 50, 41
1, 501004, Note_off_c, 0, 53, 37
1, 501045, Note_off_c, 0, 50, 54
1, 501085, Note_on_c, 0, 46, 52
1, 501149, Note_off_c, 0, 46, 55
1, 501175, Note_on_c, 0, 58, 50
1, 501253, Note_off_c, 0, 58, 55
1, 501274, Note_on_c, 0, 53, 39
1, 501346, Note_off_c, 0, 53, 54
1, 501366, Note_on_c, 0, 50, 43
1, 501424, Note_off_c, 0, 50, 54
1, 501478, Note_on_c, 0, 53, 42
1, 501567, Note_on_c, 0, 50, 45
1, 501643, Note_off_c, 0, 50, 56
1, 501659, Note_off_c, 0, 53, 39
1, 501668, Note_on_c, 0, 46, 48
1, 501771, Note_on_c, 0, 58, 49
1, 501791, Note_off_c, 0, 46, 37
1, 501840, Note_off_c, 0, 58, 50
1, 501907, Note_on_c, 0, 53, 30
1, 501966, Note_off_c, 0, 53, 57
1, 501975, Note_on_c, 0, 34, 53
1, 501990, Note_on_c, 0, 38, 40
1, 502004, Note_off_c, 0, 34, 61
1, 502014, Note_on_c, 0, 50, 30
1, 502029, Note_off_c, 0, 38, 48
1, 502055, Note_off_c, 0, 50, 50
1, 502077, Control_c, 0, 64, 94
1, 502088, Note_on_c, 0, 38, 45
1, 502091, Note_on_c, 0, 34, 50
1, 502091, Control_c, 0, 64, 77
1, 502106, Control_c, 0, 64, 66
1, 502115, Note_on_c, 0, 53, 39
1, 502121, Control_c, 0, 64, 59
1, 502136, Control_c, 0, 64, 49
1, 502151, Control_c, 0, 64, 34
1, 502166, Control_c, 0, 64, 20
1, 502175, Note_off_c, 0, 53, 42
1, 502180, Note_on_c, 0, 50, 35
1, 502181, Control_c, 0, 64, 12
1, 502196, Control_c, 0, 64, 10
1, 502240, Control_c, 0, 64, 11
1, 502255, Control_c, 0, 64, 14
1, 502261, Note_off_c, 0, 50, 54
1, 502270, Control_c, 0, 64, 18
1, 502282, Note_on_c, 0, 46, 47
1, 502284, Control_c, 0, 64, 20
1, 502299, Control_c, 0, 64, 21
1, 502387, Note_on_c, 0, 58, 54
1, 502404, Note_off_c, 0, 46, 36
1, 502463, Control_c, 0, 64, 21
1, 502473, Note_off_c, 0, 58, 59
1, 502478, Control_c, 0, 64, 22
1, 502493, Control_c, 0, 64, 23
1, 502498, Note_on_c, 0, 53, 46
1, 502507, Control_c, 0, 64, 25
1, 502522, Control_c, 0, 64, 25
1, 502537, Control_c, 0, 64, 26
1, 502566, Control_c, 0, 64, 24
1, 502578, Note_off_c, 0, 53, 60
1, 502581, Control_c, 0, 64, 22
1, 502589, Note_on_c, 0, 50, 45
1, 502596, Control_c, 0, 64, 19
1, 502611, Control_c, 0, 64, 16
1, 502625, Control_c, 0, 64, 15
1, 502656, Note_off_c, 0, 50, 57
1, 502663, Control_c, 0, 64, 16
1, 502678, Control_c, 0, 64, 18
1, 502693, Control_c, 0, 64, 22
1, 502699, Note_on_c, 0, 53, 50
1, 502707, Control_c, 0, 64, 26
1, 502722, Control_c, 0, 64, 30
1, 502737, Control_c, 0, 64, 34
1, 502751, Control_c, 0, 64, 39
1, 502766, Control_c, 0, 64, 45
1, 502781, Control_c, 0, 64, 52
1, 502790, Note_on_c, 0, 50, 48
1, 502796, Control_c, 0, 64, 57
1, 502811, Control_c, 0, 64, 61
1, 502825, Control_c, 0, 64, 63
1, 502840, Control_c, 0, 64, 65
1, 502855, Control_c, 0, 64, 65
1, 502860, Note_off_c, 0, 50, 54
1, 502870, Control_c, 0, 64, 66
1, 502877, Note_on_c, 0, 46, 53
1, 502884, Control_c, 0, 64, 66
1, 502889, Note_off_c, 0, 53, 41
1, 502899, Control_c, 0, 64, 65
1, 502914, Control_c, 0, 64, 63
1, 502929, Control_c, 0, 64, 59
1, 502944, Control_c, 0, 64, 55
1, 502947, Note_off_c, 0, 38, 60
1, 502955, Note_off_c, 0, 34, 58
1, 502959, Control_c, 0, 64, 55
1, 502964, Note_off_c, 0, 46, 38
1, 502966, Note_on_c, 0, 58, 60
1, 502974, Control_c, 0, 64, 57
1, 502989, Control_c, 0, 64, 60
1, 503004, Control_c, 0, 64, 62
1, 503018, Control_c, 0, 64, 64
1, 503033, Control_c, 0, 64, 66
1, 503060, Note_off_c, 0, 58, 56
1, 503090, Note_on_c, 0, 53, 39
1, 503107, Control_c, 0, 64, 66
1, 503122, Control_c, 0, 64, 67
1, 503138, Control_c, 0, 64, 67
1, 503141, Note_off_c, 0, 53, 59
1, 503147, Note_on_c, 0, 34, 55
1, 503153, Control_c, 0, 64, 66
1, 503168, Control_c, 0, 64, 64
1, 503173, Note_on_c, 0, 50, 45
1, 503180, Note_off_c, 0, 34, 61
1, 503182, Control_c, 0, 64, 59
1, 503187, Note_on_c, 0, 38, 19
1, 503197, Control_c, 0, 64, 46
1, 503212, Note_off_c, 0, 50, 54
1, 503212, Control_c, 0, 64, 26
1, 503227, Control_c, 0, 64, 0
1, 503227, Note_on_c, 0, 30, 63
1, 503266, Note_on_c, 0, 53, 49
1, 503296, Note_off_c, 0, 30, 59
1, 503320, Note_off_c, 0, 53, 60
1, 503338, Note_on_c, 0, 31, 45
1, 503341, Note_on_c, 0, 50, 44
1, 503352, Note_on_c, 0, 34, 35
1, 503412, Note_off_c, 0, 50, 61
1, 503422, Note_off_c, 0, 34, 58
1, 503429, Note_on_c, 0, 46, 52
1, 503429, Note_off_c, 0, 31, 63
1, 503451, Note_on_c, 0, 30, 49
1, 503508, Note_off_c, 0, 46, 53
1, 503513, Note_off_c, 0, 30, 61
1, 503522, Note_on_c, 0, 58, 54
1, 503554, Note_on_c, 0, 34, 41
1, 503556, Note_on_c, 0, 31, 42
1, 503593, Note_off_c, 0, 58, 55
1, 503604, Control_c, 0, 64, 14
1, 503605, Note_off_c, 0, 34, 59
1, 503618, Note_off_c, 0, 31, 62
1, 503619, Control_c, 0, 64, 19
1, 503624, Note_on_c, 0, 53, 42
1, 503634, Control_c, 0, 64, 22
1, 503648, Control_c, 0, 64, 25
1, 503649, Note_on_c, 0, 30, 48
1, 503663, Control_c, 0, 64, 28
1, 503678, Control_c, 0, 64, 34
1, 503693, Control_c, 0, 64, 39
1, 503695, Note_off_c, 0, 53, 60
1, 503696, Note_off_c, 0, 30, 60
1, 503697, Note_off_c, 0, 38, 52
1, 503707, Control_c, 0, 64, 44
1, 503716, Note_on_c, 0, 50, 45
1, 503722, Control_c, 0, 64, 47
1, 503729, Note_on_c, 0, 34, 41
1, 503752, Control_c, 0, 64, 44
1, 503753, Note_on_c, 0, 31, 36
1, 503759, Note_off_c, 0, 50, 59
1, 503767, Control_c, 0, 64, 36
1, 503770, Note_off_c, 0, 34, 50
1, 503782, Control_c, 0, 64, 24
1, 503792, Note_off_c, 0, 31, 53
1, 503796, Control_c, 0, 64, 0
1, 503808, Note_on_c, 0, 38, 55
1, 503820, Note_on_c, 0, 30, 45
1, 503823, Note_on_c, 0, 53, 52
1, 503863, Note_off_c, 0, 30, 56
1, 503888, Note_off_c, 0, 53, 58
1, 503898, Note_on_c, 0, 31, 42
1, 503904, Note_on_c, 0, 50, 48
1, 503907, Note_on_c, 0, 34, 31
1, 503962, Note_off_c, 0, 50, 60
1, 503976, Note_off_c, 0, 34, 58
1, 503978, Note_off_c, 0, 31, 62
1, 503986, Note_on_c, 0, 46, 54
1, 503999, Note_on_c, 0, 30, 45
1, 504058, Note_off_c, 0, 30, 59
1, 504062, Note_off_c, 0, 46, 51
1, 504086, Note_on_c, 0, 58, 53
1, 504112, Note_on_c, 0, 34, 39
1, 504118, Note_on_c, 0, 31, 41
1, 504146, Note_off_c, 0, 58, 57
1, 504160, Note_off_c, 0, 34, 51
1, 504183, Note_off_c, 0, 31, 62
1, 504202, Note_on_c, 0, 53, 42
1, 504204, Note_on_c, 0, 30, 52
1, 504264, Note_off_c, 0, 30, 61
1, 504265, Note_off_c, 0, 53, 62
1, 504270, Note_off_c, 0, 38, 56
1, 504284, Note_on_c, 0, 34, 33
1, 504295, Note_on_c, 0, 50, 43
1, 504308, Note_on_c, 0, 31, 46
1, 504356, Note_off_c, 0, 50, 42
1, 504358, Note_off_c, 0, 31, 59
1, 504360, Note_off_c, 0, 34, 42
1, 504389, Note_on_c, 0, 30, 51
1, 504393, Note_on_c, 0, 53, 51
1, 504399, Note_on_c, 0, 38, 50
1, 504440, Note_off_c, 0, 30, 60
1, 504479, Note_on_c, 0, 31, 43
1, 504488, Note_on_c, 0, 50, 44
1, 504492, Note_on_c, 0, 34, 38
1, 504497, Note_off_c, 0, 53, 37
1, 504553, Note_off_c, 0, 34, 53
1, 504554, Note_off_c, 0, 31, 62
1, 504555, Note_off_c, 0, 50, 58
1, 504577, Note_on_c, 0, 46, 49
1, 504582, Note_on_c, 0, 30, 44
1, 504653, Note_off_c, 0, 30, 58
1, 504685, Note_off_c, 0, 46, 37
1, 504690, Note_on_c, 0, 34, 37
1, 504697, Note_on_c, 0, 58, 45
1, 504703, Note_on_c, 0, 31, 44
1, 504754, Note_off_c, 0, 34, 52
1, 504760, Note_off_c, 0, 58, 58
1, 504777, Note_off_c, 0, 31, 60
1, 504802, Note_on_c, 0, 30, 46
1, 504824, Note_on_c, 0, 53, 34
1, 504873, Note_off_c, 0, 30, 59
1, 504905, Note_on_c, 0, 34, 34
1, 504926, Note_on_c, 0, 31, 45
1, 504932, Note_off_c, 0, 53, 54
1, 504934, Note_off_c, 0, 38, 42
1, 504958, Note_on_c, 0, 50, 30
1, 505032, Note_off_c, 0, 31, 54
1, 505047, Note_off_c, 0, 50, 36
1, 505061, Note_on_c, 0, 38, 44
1, 505063, Note_off_c, 0, 34, 44
1, 505064, Note_on_c, 0, 30, 45
1, 505078, Note_on_c, 0, 53, 40
1, 505157, Note_off_c, 0, 30, 49
1, 505193, Note_on_c, 0, 34, 37
1, 505200, Note_on_c, 0, 31, 38
1, 505206, Note_on_c, 0, 50, 39
1, 505218, Note_off_c, 0, 53, 35
1, 505307, Note_off_c, 0, 31, 52
1, 505307, Note_off_c, 0, 50, 52
1, 505335, Note_off_c, 0, 34, 36
1, 505341, Note_on_c, 0, 30, 45
1, 505346, Note_on_c, 0, 46, 44
1, 505469, Note_off_c, 0, 30, 43
1, 505499, Note_on_c, 0, 58, 46
1, 505506, Note_off_c, 0, 46, 36
1, 505513, Note_on_c, 0, 34, 22
1, 505528, Note_on_c, 0, 31, 27
1, 505654, Note_off_c, 0, 58, 50
1, 505694, Note_off_c, 0, 31, 35
1, 505707, Note_on_c, 0, 30, 42
1, 505707, Note_off_c, 0, 34, 41
1, 505710, Note_on_c, 0, 53, 33
1, 505958, Note_off_c, 0, 53, 41
1, 505980, Note_off_c, 0, 30, 37
1, 505997, Note_on_c, 0, 50, 35
1, 506004, Note_on_c, 0, 34, 18
1, 506008, Note_on_c, 0, 31, 35
1, 506139, Note_off_c, 0, 38, 36
1, 506444, Note_off_c, 0, 50, 27
1, 506654, Note_off_c, 0, 34, 35
1, 506700, Note_off_c, 0, 31, 33
1, 507042, Control_c, 0, 67, 122
1, 507057, Control_c, 0, 67, 112
1, 507072, Control_c, 0, 67, 101
1, 507087, Control_c, 0, 67, 88
1, 507102, Control_c, 0, 67, 75
1, 507117, Control_c, 0, 67, 60
1, 507132, Control_c, 0, 67, 49
1, 507154, Control_c, 0, 67, 41
1, 507169, Control_c, 0, 67, 36
1, 507184, Control_c, 0, 67, 32
1, 507199, Control_c, 0, 67, 28
1, 507214, Control_c, 0, 67, 24
1, 507228, Control_c, 0, 67, 19
1, 507243, Control_c, 0, 67, 15
1, 507258, Control_c, 0, 67, 13
1, 507272, Control_c, 0, 67, 12
1, 507287, Control_c, 0, 67, 11
1, 507594, Note_on_c, 0, 30, 35
1, 507753, Note_off_c, 0, 30, 29
1, 507761, Control_c, 0, 67, 11
1, 507776, Control_c, 0, 67, 10
1, 507791, Control_c, 0, 67, 10
1, 507806, Control_c, 0, 67, 9
1, 507821, Control_c, 0, 67, 0
1, 507921, Note_on_c, 0, 31, 46
1, 508041, Note_off_c, 0, 31, 52
1, 508151, Note_on_c, 0, 34, 57
1, 508259, Note_off_c, 0, 34, 61
1, 508356, Note_on_c, 0, 37, 67
1, 508471, Note_off_c, 0, 37, 62
1, 508563, Note_on_c, 0, 38, 70
1, 508714, Note_off_c, 0, 38, 52
1, 508815, Note_on_c, 0, 39, 62
1, 509037, Note_off_c, 0, 39, 35
1, 509145, Note_on_c, 0, 40, 55
1, 509452, Note_off_c, 0, 40, 34
1, 509609, Note_on_c, 0, 41, 41
1, 510003, Note_off_c, 0, 41, 36
1, 511529, Note_on_c, 0, 53, 46
1, 511775, Note_off_c, 0, 53, 50
1, 511896, Note_on_c, 0, 52, 65
1, 512098, Note_off_c, 0, 52, 64
1, 512158, Note_on_c, 0, 50, 73
1, 512313, Note_off_c, 0, 50, 62
1, 512373, Note_on_c, 0, 47, 63
1, 512605, Note_off_c, 0, 47, 47
1, 512654, Note_on_c, 0, 44, 56
1, 512842, Note_on_c, 0, 32, 35
1, 512885, Note_on_c, 0, 35, 42
1, 513004, Note_on_c, 0, 41, 59
1, 513230, Note_off_c, 0, 44, 41
1, 513261, Note_off_c, 0, 35, 53
1, 513707, Note_on_c, 0, 40, 46
1, 513941, Note_off_c, 0, 41, 33
1, 514862, Note_on_c, 0, 38, 27
1, 514999, Note_off_c, 0, 40, 47
1, 515222, Control_c, 0, 64, 15
1, 515236, Control_c, 0, 64, 24
1, 515251, Control_c, 0, 64, 30
1, 515266, Control_c, 0, 64, 37
1, 515280, Control_c, 0, 64, 43
1, 515295, Control_c, 0, 64, 51
1, 515310, Control_c, 0, 64, 57
1, 515325, Control_c, 0, 64, 61
1, 515340, Control_c, 0, 64, 64
1, 515354, Control_c, 0, 64, 65
1, 515362, Note_off_c, 0, 32, 32
1, 515369, Control_c, 0, 64, 67
1, 515392, Control_c, 0, 64, 69
1, 515407, Control_c, 0, 64, 71
1, 515421, Control_c, 0, 64, 75
1, 515436, Control_c, 0, 64, 81
1, 515451, Control_c, 0, 64, 88
1, 515466, Control_c, 0, 64, 97
1, 515481, Control_c, 0, 64, 115
1, 515495, Control_c, 0, 64, 127
1, 516307, Note_off_c, 0, 38, 29
1, 516566, Note_on_c, 0, 33, 35
1, 516585, Control_c, 0, 64, 91
1, 516599, Control_c, 0, 64, 70
1, 516614, Control_c, 0, 64, 59
1, 516629, Control_c, 0, 64, 43
1, 516644, Control_c, 0, 64, 20
1, 516659, Control_c, 0, 64, 17
1, 516674, Control_c, 0, 64, 33
1, 516689, Control_c, 0, 64, 49
1, 516704, Control_c, 0, 64, 65
1, 516719, Control_c, 0, 64, 127
1, 516749, Note_off_c, 0, 33, 40
1, 517420, Note_on_c, 0, 52, 20
1, 517420, Note_on_c, 0, 57, 25
1, 517423, Note_on_c, 0, 49, 17
1, 517443, Note_on_c, 0, 45, 29
1, 517816, Note_on_c, 0, 81, 45
1, 517819, Note_off_c, 0, 57, 30
1, 517822, Note_on_c, 0, 69, 30
1, 517822, Note_off_c, 0, 45, 35
1, 517825, Note_off_c, 0, 52, 30
1, 517872, Note_off_c, 0, 49, 31
1, 517949, Note_off_c, 0, 81, 56
1, 517970, Note_off_c, 0, 69, 41
1, 518066, Note_on_c, 0, 81, 45
1, 518075, Note_on_c, 0, 69, 34
1, 518278, Note_off_c, 0, 69, 44
1, 518341, Note_on_c, 0, 57, 20
1, 518357, Note_on_c, 0, 49, 26
1, 518359, Note_on_c, 0, 52, 24
1, 518395, Note_on_c, 0, 45, 25
1, 518514, Note_off_c, 0, 81, 45
1, 518575, Note_on_c, 0, 82, 50
1, 518579, Note_on_c, 0, 70, 38
1, 518662, Note_off_c, 0, 82, 60
1, 518693, Note_off_c, 0, 70, 44
1, 518726, Note_off_c, 0, 57, 38
1, 518733, Note_off_c, 0, 45, 40
1, 518747, Note_off_c, 0, 52, 40
1, 518754, Note_on_c, 0, 82, 54
1, 518755, Note_off_c, 0, 49, 40
1, 518776, Note_on_c, 0, 70, 28
1, 518901, Note_on_c, 0, 49, 29
1, 518911, Note_on_c, 0, 52, 26
1, 518928, Note_on_c, 0, 57, 37
1, 518955, Note_on_c, 0, 45, 35
1, 518990, Note_off_c, 0, 82, 36
1, 519009, Note_off_c, 0, 70, 40
1, 519071, Note_on_c, 0, 81, 60
1, 519096, Note_on_c, 0, 69, 41
1, 519139, Note_off_c, 0, 69, 53
1, 519154, Note_off_c, 0, 81, 59
1, 519235, Note_on_c, 0, 81, 65
1, 519242, Note_off_c, 0, 57, 50
1, 519247, Note_on_c, 0, 69, 43
1, 519292, Note_off_c, 0, 49, 42
1, 519300, Note_off_c, 0, 52, 42
1, 519303, Note_off_c, 0, 45, 42
1, 519350, Note_off_c, 0, 69, 61
1, 519405, Note_on_c, 0, 52, 36
1, 519405, Note_on_c, 0, 58, 39
1, 519427, Note_on_c, 0, 49, 34
1, 519429, Note_off_c, 0, 81, 50
1, 519435, Note_on_c, 0, 45, 21
1, 519539, Note_on_c, 0, 80, 60
1, 519545, Note_on_c, 0, 68, 48
1, 519599, Note_off_c, 0, 68, 49
1, 519604, Note_off_c, 0, 80, 60
1, 519645, Note_off_c, 0, 58, 41
1, 519663, Note_off_c, 0, 45, 37
1, 519684, Note_on_c, 0, 80, 58
1, 519700, Note_off_c, 0, 49, 41
1, 519707, Note_on_c, 0, 68, 47
1, 519707, Note_off_c, 0, 52, 42
1, 519838, Note_on_c, 0, 49, 39
1, 519841, Note_on_c, 0, 58, 46
1, 519845, Note_on_c, 0, 52, 42
1, 519886, Note_on_c, 0, 45, 32
1, 519906, Note_off_c, 0, 68, 52
1, 519923, Note_off_c, 0, 80, 36
1, 519998, Note_on_c, 0, 79, 60
1, 520007, Note_on_c, 0, 67, 51
1, 520048, Note_off_c, 0, 67, 59
1, 520057, Note_off_c, 0, 79, 58
1, 520133, Note_on_c, 0, 79, 61
1, 520144, Note_off_c, 0, 58, 31
1, 520146, Note_off_c, 0, 45, 42
1, 520147, Note_on_c, 0, 67, 54
1, 520147, Note_off_c, 0, 52, 40
1, 520148, Note_off_c, 0, 49, 38
1, 520248, Note_off_c, 0, 67, 38
1, 520275, Note_on_c, 0, 58, 46
1, 520278, Note_off_c, 0, 79, 37
1, 520290, Note_on_c, 0, 49, 36
1, 520308, Note_on_c, 0, 52, 37
1, 520310, Note_on_c, 0, 45, 19
1, 520415, Note_on_c, 0, 78, 63
1, 520425, Note_on_c, 0, 66, 53
1, 520472, Note_off_c, 0, 66, 52
1, 520476, Note_off_c, 0, 78, 62
1, 520533, Note_off_c, 0, 58, 34
1, 520561, Note_on_c, 0, 78, 60
1, 520571, Note_off_c, 0, 52, 42
1, 520582, Note_on_c, 0, 66, 51
1, 520585, Note_off_c, 0, 49, 39
1, 520612, Note_off_c, 0, 45, 43
1, 520727, Note_on_c, 0, 55, 46
1, 520729, Note_on_c, 0, 49, 44
1, 520732, Note_on_c, 0, 52, 33
1, 520751, Note_on_c, 0, 45, 27
1, 520776, Note_off_c, 0, 66, 37
1, 520778, Note_off_c, 0, 78, 55
1, 520834, Note_off_c, 0, 55, 57
1, 520856, Note_on_c, 0, 77, 61
1, 520873, Note_on_c, 0, 65, 44
1, 520874, Note_off_c, 0, 49, 54
1, 520897, Note_off_c, 0, 52, 35
1, 520913, Note_off_c, 0, 65, 50
1, 520924, Note_off_c, 0, 77, 60
1, 520999, Note_on_c, 0, 77, 49
1, 521002, Note_off_c, 0, 45, 43
1, 521021, Note_on_c, 0, 65, 49
1, 521092, Control_c, 0, 64, 81
1, 521107, Control_c, 0, 64, 64
1, 521122, Control_c, 0, 64, 57
1, 521136, Control_c, 0, 64, 55
1, 521140, Note_on_c, 0, 45, 24
1, 521140, Note_on_c, 0, 53, 40
1, 521147, Note_on_c, 0, 58, 44
1, 521151, Control_c, 0, 64, 58
1, 521154, Note_on_c, 0, 50, 34
1, 521166, Control_c, 0, 64, 63
1, 521178, Note_off_c, 0, 65, 54
1, 521179, Note_off_c, 0, 77, 33
1, 521181, Control_c, 0, 64, 67
1, 521196, Control_c, 0, 64, 78
1, 521211, Control_c, 0, 64, 108
1, 521225, Control_c, 0, 64, 127
1, 521293, Note_on_c, 0, 76, 54
1, 521306, Note_on_c, 0, 64, 41
1, 521335, Note_off_c, 0, 76, 60
1, 521344, Note_off_c, 0, 64, 49
1, 521362, Note_off_c, 0, 45, 38
1, 521365, Note_off_c, 0, 58, 36
1, 521404, Note_off_c, 0, 50, 35
1, 521410, Note_off_c, 0, 53, 40
1, 521439, Note_on_c, 0, 76, 57
1, 521459, Note_on_c, 0, 64, 39
1, 521515, Control_c, 0, 64, 69
1, 521530, Control_c, 0, 64, 55
1, 521545, Control_c, 0, 64, 39
1, 521560, Control_c, 0, 64, 41
1, 521561, Note_off_c, 0, 64, 36
1, 521572, Note_on_c, 0, 53, 38
1, 521574, Control_c, 0, 64, 52
1, 521581, Note_on_c, 0, 58, 39
1, 521581, Note_on_c, 0, 50, 36
1, 521587, Note_on_c, 0, 45, 34
1, 521589, Control_c, 0, 64, 64
1, 521604, Control_c, 0, 64, 97
1, 521619, Control_c, 0, 64, 127
1, 521724, Note_on_c, 0, 75, 55
1, 521725, Note_on_c, 0, 63, 48
1, 521732, Note_off_c, 0, 76, 37
1, 521766, Note_off_c, 0, 75, 59
1, 521770, Note_off_c, 0, 63, 50
1, 521819, Note_off_c, 0, 45, 38
1, 521828, Note_off_c, 0, 58, 36
1, 521860, Note_off_c, 0, 53, 35
1, 521861, Note_on_c, 0, 75, 52
1, 521876, Note_off_c, 0, 50, 29
1, 521880, Note_on_c, 0, 63, 40
1, 521984, Note_off_c, 0, 75, 52
1, 521996, Note_on_c, 0, 58, 40
1, 521997, Note_on_c, 0, 53, 32
1, 522004, Note_on_c, 0, 50, 23
1, 522027, Note_off_c, 0, 63, 44
1, 522034, Note_on_c, 0, 45, 4
1, 522138, Note_on_c, 0, 74, 50
1, 522158, Note_on_c, 0, 62, 39
1, 522181, Note_off_c, 0, 74, 58
1, 522208, Note_off_c, 0, 62, 44
1, 522287, Note_on_c, 0, 62, 37
1, 522288, Note_off_c, 0, 53, 34
1, 522291, Note_on_c, 0, 74, 42
1, 522293, Note_off_c, 0, 58, 30
1, 522301, Note_off_c, 0, 45, 25
1, 522312, Note_off_c, 0, 50, 29
1, 522362, Note_off_c, 0, 74, 50
1, 522383, Note_off_c, 0, 62, 37
1, 522442, Note_on_c, 0, 58, 26
1, 522447, Note_on_c, 0, 50, 21
1, 522448, Note_on_c, 0, 53, 31
1, 522448, Note_on_c, 0, 45, 13
1, 522533, Note_off_c, 0, 53, 49
1, 522562, Note_off_c, 0, 50, 35
1, 522562, Note_off_c, 0, 58, 32
1, 522565, Note_off_c, 0, 45, 31
1, 522585, Note_on_c, 0, 73, 45
1, 522588, Note_on_c, 0, 61, 38
1, 522629, Note_off_c, 0, 73, 46
1, 522630, Note_off_c, 0, 61, 47
1, 522722, Note_on_c, 0, 61, 39
1, 522726, Note_on_c, 0, 73, 42
1, 522870, Note_on_c, 0, 59, 37
1, 522881, Note_on_c, 0, 56, 33
1, 522896, Note_off_c, 0, 61, 45
1, 522909, Note_on_c, 0, 53, 12
1, 522960, Note_off_c, 0, 73, 43
1, 523022, Note_on_c, 0, 74, 44
1, 523035, Note_on_c, 0, 62, 36
1, 523068, Note_off_c, 0, 74, 53
1, 523070, Note_off_c, 0, 56, 34
1, 523076, Note_off_c, 0, 62, 48
1, 523101, Note_off_c, 0, 53, 38
1, 523125, Note_off_c, 0, 59, 35
1, 523163, Note_on_c, 0, 74, 49
1, 523173, Note_on_c, 0, 62, 40
1, 523230, Note_off_c, 0, 62, 43
1, 523261, Note_off_c, 0, 74, 60
1, 523295, Note_on_c, 0, 59, 42
1, 523321, Note_on_c, 0, 56, 37
1, 523339, Note_on_c, 0, 53, 22
1, 523370, Note_off_c, 0, 56, 45
1, 523380, Note_off_c, 0, 53, 51
1, 523444, Note_off_c, 0, 59, 31
1, 523447, Note_on_c, 0, 75, 54
1, 523459, Note_on_c, 0, 63, 41
1, 523491, Note_off_c, 0, 75, 57
1, 523502, Note_off_c, 0, 63, 47
1, 523598, Note_on_c, 0, 75, 45
1, 523611, Note_on_c, 0, 63, 33
1, 523757, Note_on_c, 0, 59, 12
1, 523760, Note_on_c, 0, 50, 30
1, 523783, Note_on_c, 0, 53, 6
1, 523784, Poly_aftertouch_c, 0, 45, 127
1, 523791, Note_off_c, 0, 63, 44
1, 523835, Note_off_c, 0, 75, 39
1, 523907, Note_on_c, 0, 76, 48
1, 523917, Note_on_c, 0, 64, 39
1, 523952, Note_off_c, 0, 59, 36
1, 523955, Note_off_c, 0, 50, 33
1, 523955, Note_off_c, 0, 76, 52
1, 523959, Note_off_c, 0, 64, 48
1, 523962, Poly_aftertouch_c, 0, 45, 0
1, 523965, Note_off_c, 0, 53, 34
1, 524079, Note_on_c, 0, 64, 39
1, 524082, Note_on_c, 0, 76, 43
1, 524151, Note_off_c, 0, 76, 0
1, 524151, Note_on_c, 0, 76, 8
1, 524243, Note_on_c, 0, 59, 22
1, 524245, Note_off_c, 0, 64, 43
1, 524252, Note_on_c, 0, 50, 29
1, 524271, Note_on_c, 0, 53, 16
1, 524285, Poly_aftertouch_c, 0, 45, 127
1, 524287, Note_off_c, 0, 76, 43
1, 524462, Note_on_c, 0, 77, 33
1, 524472, Note_on_c, 0, 65, 34
1, 524515, Note_off_c, 0, 77, 44
1, 524517, Note_off_c, 0, 65, 49
1, 524522, Note_off_c, 0, 59, 37
1, 524527, Note_off_c, 0, 53, 32
1, 524547, Note_off_c, 0, 50, 31
1, 524603, Poly_aftertouch_c, 0, 45, 0
1, 524665, Note_on_c, 0, 77, 40
1, 524669, Note_on_c, 0, 65, 37
1, 524731, Note_off_c, 0, 77, 40
1, 524831, Note_off_c, 0, 65, 42
1, 524988, Note_on_c, 0, 59, 18
1, 525006, Note_on_c, 0, 50, 26
1, 525023, Note_on_c, 0, 53, 22
1, 525028, Poly_aftertouch_c, 0, 45, 127
1, 525190, Note_off_c, 0, 59, 39
1, 525237, Note_off_c, 0, 50, 38
1, 525309, Note_off_c, 0, 53, 39
1, 525418, Note_on_c, 0, 56, 35
1, 525420, Note_on_c, 0, 68, 39
1, 525593, Note_off_c, 0, 56, 39
1, 525599, Poly_aftertouch_c, 0, 45, 0
1, 525611, Note_off_c, 0, 68, 35
1, 525723, Note_on_c, 0, 56, 33
1, 525727, Note_on_c, 0, 68, 44
1, 525903, Control_c, 0, 64, 104
1, 525918, Control_c, 0, 64, 71
1, 525933, Control_c, 0, 64, 59
1, 525948, Control_c, 0, 64, 43
1, 525962, Control_c, 0, 64, 37
1, 525977, Control_c, 0, 64, 43
1, 525989, Note_on_c, 0, 45, 37
1, 525992, Control_c, 0, 64, 54
1, 525993, Note_on_c, 0, 49, 31
1, 525997, Note_on_c, 0, 52, 35
1, 526007, Control_c, 0, 64, 67
1, 526022, Control_c, 0, 64, 127
1, 526084, Note_off_c, 0, 56, 42
1, 526272, Note_on_c, 0, 69, 48
1, 526280, Note_on_c, 0, 57, 40
1, 526343, Note_off_c, 0, 57, 56
1, 526348, Note_off_c, 0, 68, 19
1, 526353, Note_off_c, 0, 69, 61
1, 526439, Note_on_c, 0, 69, 57
1, 526447, Note_on_c, 0, 57, 46
1, 526458, Note_off_c, 0, 52, 38
1, 526468, Note_off_c, 0, 45, 41
1, 526475, Note_off_c, 0, 57, 56
1, 526478, Note_off_c, 0, 49, 37
1, 526519, Note_off_c, 0, 69, 65
1, 526572, Note_on_c, 0, 57, 47
1, 526591, Note_on_c, 0, 45, 45
1, 526597, Note_on_c, 0, 52, 43
1, 526601, Note_on_c, 0, 49, 52
1, 526740, Note_on_c, 0, 81, 75
1, 526743, Note_on_c, 0, 69, 68
1, 526774, Note_off_c, 0, 69, 57
1, 526795, Note_off_c, 0, 81, 62
1, 526874, Note_off_c, 0, 57, 35
1, 526882, Note_on_c, 0, 81, 82
1, 526887, Note_on_c, 0, 69, 63
1, 526913, Note_off_c, 0, 52, 41
1, 526914, Note_off_c, 0, 69, 68
1, 526915, Note_off_c, 0, 45, 43
1, 526925, Note_off_c, 0, 49, 39
1, 526959, Note_off_c, 0, 81, 61
1, 527031, Note_on_c, 0, 57, 63
1, 527037, Note_on_c, 0, 49, 55
1, 527040, Note_on_c, 0, 45, 48
1, 527043, Note_on_c, 0, 52, 49
1, 527220, Note_on_c, 0, 94, 87
1, 527231, Note_on_c, 0, 82, 67
1, 527286, Note_off_c, 0, 82, 61
1, 527304, Note_off_c, 0, 94, 64
1, 527381, Note_on_c, 0, 94, 88
1, 527395, Note_on_c, 0, 82, 75
1, 527405, Note_off_c, 0, 57, 48
1, 527425, Note_off_c, 0, 52, 53
1, 527447, Note_off_c, 0, 49, 35
1, 527463, Note_off_c, 0, 45, 43
1, 527554, Note_on_c, 0, 57, 57
1, 527561, Note_on_c, 0, 49, 54
1, 527569, Note_on_c, 0, 52, 51
1, 527572, Note_on_c, 0, 45, 51
1, 527680, Note_off_c, 0, 94, 38
1, 527700, Note_off_c, 0, 82, 45
1, 527822, Note_on_c, 0, 93, 86
1, 527843, Note_on_c, 0, 81, 65
1, 527928, Note_off_c, 0, 81, 46
1, 527961, Note_off_c, 0, 93, 63
1, 527964, Note_off_c, 0, 57, 28
1, 528048, Note_on_c, 0, 93, 88
1, 528070, Note_on_c, 0, 81, 61
1, 528198, Note_off_c, 0, 52, 42
1, 528203, Note_off_c, 0, 49, 41
1, 528210, Note_off_c, 0, 45, 36
1, 528256, Note_on_c, 0, 58, 70
1, 528281, Note_on_c, 0, 49, 46
1, 528282, Note_on_c, 0, 52, 47
1, 528290, Note_on_c, 0, 45, 36
1, 528313, Control_c, 0, 64, 92
1, 528328, Control_c, 0, 64, 65
1, 528330, Note_off_c, 0, 81, 57
1, 528342, Control_c, 0, 64, 48
1, 528357, Control_c, 0, 64, 36
1, 528372, Control_c, 0, 64, 40
1, 528387, Control_c, 0, 64, 53
1, 528402, Control_c, 0, 64, 66
1, 528416, Control_c, 0, 64, 127
1, 528550, Note_on_c, 0, 92, 74
1, 528559, Note_on_c, 0, 80, 56
1, 528632, Note_off_c, 0, 93, 58
1, 528692, Note_off_c, 0, 80, 37
1, 528713, Note_off_c, 0, 92, 63
1, 528793, Note_on_c, 0, 92, 76
1, 528797, Note_off_c, 0, 58, 34
1, 528814, Note_on_c, 0, 80, 51
1, 528840, Note_off_c, 0, 45, 39
1, 528846, Note_off_c, 0, 49, 41
1, 528853, Note_off_c, 0, 52, 40
1, 529003, Note_on_c, 0, 58, 52
1, 529004, Note_on_c, 0, 49, 36
1, 529011, Note_on_c, 0, 52, 43
1, 529022, Note_on_c, 0, 45, 33
1, 529126, Note_off_c, 0, 80, 37
1, 529138, Note_off_c, 0, 92, 40
1, 529202, Note_on_c, 0, 91, 62
1, 529218, Note_on_c, 0, 79, 46
1, 529268, Note_off_c, 0, 79, 50
1, 529282, Note_off_c, 0, 91, 57
1, 529371, Note_on_c, 0, 91, 65
1, 529385, Note_on_c, 0, 79, 48
1, 529400, Note_off_c, 0, 58, 33
1, 529438, Note_off_c, 0, 49, 39
1, 529446, Note_off_c, 0, 45, 41
1, 529447, Note_off_c, 0, 52, 41
1, 529529, Note_on_c, 0, 58, 46
1, 529534, Note_on_c, 0, 49, 35
1, 529537, Note_off_c, 0, 79, 40
1, 529540, Note_on_c, 0, 52, 31
1, 529546, Note_on_c, 0, 45, 22
1, 529549, Note_off_c, 0, 91, 32
1, 529688, Note_on_c, 0, 90, 67
1, 529707, Note_on_c, 0, 78, 47
1, 529739, Note_off_c, 0, 78, 53
1, 529745, Note_off_c, 0, 58, 51
1, 529755, Note_off_c, 0, 90, 63
1, 529838, Note_on_c, 0, 90, 52
1, 529853, Note_on_c, 0, 78, 39
1, 529858, Note_off_c, 0, 52, 43
1, 529862, Note_off_c, 0, 49, 42
1, 529885, Note_off_c, 0, 45, 45
1, 529985, Note_on_c, 0, 55, 43
1, 529997, Note_on_c, 0, 49, 40
1, 530005, Note_on_c, 0, 52, 38
1, 530020, Note_on_c, 0, 45, 24
1, 530060, Note_off_c, 0, 78, 43
1, 530109, Note_off_c, 0, 90, 43
1, 530112, Note_off_c, 0, 55, 59
1, 530151, Note_on_c, 0, 77, 48
1, 530151, Note_on_c, 0, 89, 50
1, 530167, Note_off_c, 0, 52, 45
1, 530189, Note_off_c, 0, 49, 40
1, 530200, Note_off_c, 0, 89, 61
1, 530201, Note_off_c, 0, 77, 49
1, 530279, Note_off_c, 0, 45, 41
1, 530301, Note_on_c, 0, 89, 50
1, 530333, Note_on_c, 0, 77, 35
1, 530397, Control_c, 0, 64, 74
1, 530411, Control_c, 0, 64, 57
1, 530426, Control_c, 0, 64, 45
1, 530432, Note_on_c, 0, 53, 44
1, 530436, Note_on_c, 0, 58, 45
1, 530441, Control_c, 0, 64, 50
1, 530442, Note_on_c, 0, 50, 40
1, 530446, Note_on_c, 0, 45, 20
1, 530456, Control_c, 0, 64, 62
1, 530471, Control_c, 0, 64, 95
1, 530483, Note_off_c, 0, 89, 39
1, 530485, Control_c, 0, 64, 127
1, 530515, Note_off_c, 0, 77, 39
1, 530602, Note_on_c, 0, 88, 53
1, 530605, Note_on_c, 0, 76, 48
1, 530640, Note_off_c, 0, 88, 63
1, 530643, Note_off_c, 0, 76, 51
1, 530684, Note_off_c, 0, 58, 39
1, 530690, Note_off_c, 0, 45, 42
1, 530729, Note_on_c, 0, 88, 61
1, 530741, Note_off_c, 0, 53, 35
1, 530742, Note_off_c, 0, 50, 32
1, 530751, Note_on_c, 0, 76, 41
1, 530852, Note_off_c, 0, 76, 38
1, 530869, Note_on_c, 0, 53, 36
1, 530875, Note_on_c, 0, 58, 38
1, 530877, Note_on_c, 0, 50, 31
1, 530899, Note_on_c, 0, 45, 8
1, 530905, Note_off_c, 0, 88, 50
1, 531019, Note_on_c, 0, 87, 65
1, 531038, Note_on_c, 0, 75, 43
1, 531080, Note_off_c, 0, 75, 50
1, 531087, Note_off_c, 0, 87, 63
1, 531116, Note_off_c, 0, 45, 36
1, 531117, Note_off_c, 0, 58, 38
1, 531159, Note_off_c, 0, 53, 35
1, 531161, Note_off_c, 0, 50, 32
1, 531178, Note_on_c, 0, 87, 51
1, 531201, Note_on_c, 0, 75, 42
1, 531296, Note_off_c, 0, 87, 62
1, 531311, Note_on_c, 0, 53, 33
1, 531317, Note_off_c, 0, 75, 34
1, 531319, Note_on_c, 0, 58, 31
1, 531323, Note_on_c, 0, 50, 24
1, 531334, Note_on_c, 0, 45, 19
1, 531468, Note_on_c, 0, 85, 49
1, 531479, Note_on_c, 0, 73, 39
1, 531510, Note_off_c, 0, 85, 60
1, 531522, Note_off_c, 0, 73, 49
1, 531575, Note_off_c, 0, 58, 40
1, 531576, Note_off_c, 0, 45, 42
1, 531601, Note_off_c, 0, 50, 33
1, 531605, Note_off_c, 0, 53, 41
1, 531609, Note_on_c, 0, 85, 52
1, 531635, Note_on_c, 0, 73, 41
1, 531760, Note_on_c, 0, 58, 36
1, 531765, Note_on_c, 0, 53, 35
1, 531772, Note_on_c, 0, 45, 27
1, 531774, Note_on_c, 0, 50, 33
1, 531783, Note_off_c, 0, 73, 41
1, 531883, Note_off_c, 0, 85, 33
1, 531889, Note_off_c, 0, 50, 36
1, 531895, Note_off_c, 0, 58, 34
1, 531912, Note_off_c, 0, 53, 35
1, 531921, Note_on_c, 0, 86, 51
1, 531931, Note_off_c, 0, 45, 41
1, 531942, Note_on_c, 0, 74, 32
1, 531964, Note_off_c, 0, 86, 48
1, 531974, Note_off_c, 0, 74, 55
1, 532057, Control_c, 0, 64, 65
1, 532072, Note_on_c, 0, 86, 52
1, 532072, Control_c, 0, 64, 40
1, 532073, Note_on_c, 0, 74, 38
1, 532087, Control_c, 0, 64, 36
1, 532102, Control_c, 0, 64, 49
1, 532116, Control_c, 0, 64, 63
1, 532119, Note_off_c, 0, 86, 0
1, 532119, Note_on_c, 0, 86, 10
1, 532131, Control_c, 0, 64, 122
1, 532146, Control_c, 0, 64, 127
1, 532169, Note_off_c, 0, 74, 39
1, 532197, Note_on_c, 0, 59, 39
1, 532203, Note_on_c, 0, 56, 42
1, 532228, Note_on_c, 0, 53, 24
1, 532355, Note_on_c, 0, 87, 51
1, 532368, Note_on_c, 0, 75, 32
1, 532405, Note_off_c, 0, 87, 58
1, 532408, Note_off_c, 0, 75, 48
1, 532408, Note_off_c, 0, 86, 42
1, 532434, Note_off_c, 0, 53, 40
1, 532437, Note_off_c, 0, 56, 33
1, 532483, Note_off_c, 0, 59, 37
1, 532520, Note_on_c, 0, 87, 41
1, 532532, Note_on_c, 0, 75, 31
1, 532667, Note_on_c, 0, 59, 15
1, 532681, Note_on_c, 0, 56, 20
1, 532700, Note_on_c, 0, 53, 14
1, 532744, Note_off_c, 0, 75, 38
1, 532791, Note_off_c, 0, 87, 42
1, 532794, Note_off_c, 0, 53, 37
1, 532796, Note_off_c, 0, 56, 30
1, 532857, Note_on_c, 0, 88, 43
1, 532880, Note_on_c, 0, 76, 30
1, 532923, Note_off_c, 0, 88, 52
1, 532927, Note_off_c, 0, 59, 31
1, 532927, Note_off_c, 0, 76, 48
1, 533040, Note_on_c, 0, 88, 40
1, 533049, Note_on_c, 0, 76, 39
1, 533203, Note_off_c, 0, 76, 44
1, 533227, Note_on_c, 0, 59, 10
1, 533230, Note_on_c, 0, 50, 30
1, 533233, Note_on_c, 0, 45, 22
1, 533245, Note_on_c, 0, 53, 25
1, 533260, Note_off_c, 0, 88, 45
1, 533426, Note_on_c, 0, 89, 34
1, 533437, Note_on_c, 0, 77, 40
1, 533516, Note_off_c, 0, 59, 36
1, 533528, Note_off_c, 0, 77, 37
1, 533532, Note_off_c, 0, 89, 44
1, 533557, Note_off_c, 0, 53, 37
1, 533620, Note_off_c, 0, 50, 29
1, 533638, Note_on_c, 0, 89, 44
1, 533641, Note_off_c, 0, 45, 32
1, 533655, Note_on_c, 0, 77, 45
1, 533714, Note_off_c, 0, 89, 56
1, 533783, Note_off_c, 0, 77, 35
1, 533958, Note_on_c, 0, 59, 29
1, 533964, Note_on_c, 0, 45, 22
1, 533966, Note_on_c, 0, 50, 32
1, 533983, Note_on_c, 0, 53, 24
1, 534181, Note_off_c, 0, 50, 39
1, 534258, Note_off_c, 0, 53, 41
1, 534297, Note_off_c, 0, 59, 39
1, 534445, Note_on_c, 0, 80, 44
1, 534459, Note_on_c, 0, 68, 40
1, 534503, Note_off_c, 0, 45, 36
1, 534611, Note_off_c, 0, 80, 59
1, 534640, Note_off_c, 0, 68, 36
1, 534739, Note_on_c, 0, 80, 44
1, 534754, Note_on_c, 0, 68, 30
1, 534837, Control_c, 0, 64, 115
1, 534859, Control_c, 0, 64, 94
1, 534874, Control_c, 0, 64, 81
1, 534889, Control_c, 0, 64, 71
1, 534903, Control_c, 0, 64, 64
1, 534918, Control_c, 0, 64, 59
1, 534933, Control_c, 0, 64, 50
1, 534948, Control_c, 0, 64, 40
1, 534963, Control_c, 0, 64, 29
1, 534977, Control_c, 0, 64, 19
1, 534992, Control_c, 0, 64, 16
1, 535007, Control_c, 0, 64, 16
1, 535016, Note_on_c, 0, 57, 32
1, 535020, Note_on_c, 0, 49, 31
1, 535022, Control_c, 0, 64, 22
1, 535026, Note_on_c, 0, 52, 33
1, 535029, Note_on_c, 0, 45, 29
1, 535036, Control_c, 0, 64, 30
1, 535051, Control_c, 0, 64, 38
1, 535066, Control_c, 0, 64, 49
1, 535082, Control_c, 0, 64, 61
1, 535097, Control_c, 0, 64, 79
1, 535112, Control_c, 0, 64, 127
1, 535199, Note_off_c, 0, 68, 39
1, 535211, Note_off_c, 0, 45, 42
1, 535267, Note_off_c, 0, 52, 43
1, 535286, Note_off_c, 0, 49, 42
1, 535312, Note_off_c, 0, 80, 31
1, 535333, Note_on_c, 0, 81, 45
1, 535340, Note_on_c, 0, 69, 33
1, 535439, Note_off_c, 0, 69, 38
1, 535442, Note_off_c, 0, 57, 41
1, 535451, Note_off_c, 0, 81, 36
1, 535543, Note_on_c, 0, 81, 37
1, 535549, Note_on_c, 0, 69, 36
1, 535577, Note_off_c, 0, 81, 53
1, 535662, Note_off_c, 0, 69, 44
1, 535709, Note_on_c, 0, 61, 41
1, 535712, Note_on_c, 0, 57, 37
1, 535858, Note_on_c, 0, 76, 53
1, 535865, Note_on_c, 0, 64, 42
1, 535907, Note_off_c, 0, 76, 55
1, 535912, Note_off_c, 0, 64, 52
1, 536016, Note_on_c, 0, 64, 39
1, 536018, Note_on_c, 0, 76, 51
1, 536020, Note_off_c, 0, 57, 34
1, 536026, Note_off_c, 0, 61, 33
1, 536091, Note_off_c, 0, 64, 40
1, 536134, Note_on_c, 0, 62, 48
1, 536146, Note_off_c, 0, 76, 35
1, 536151, Note_on_c, 0, 59, 38
1, 536153, Note_on_c, 0, 57, 38
1, 536190, Note_off_c, 0, 62, 60
1, 536234, Note_off_c, 0, 59, 58
1, 536267, Note_off_c, 0, 57, 61
1, 536270, Note_on_c, 0, 77, 57
1, 536285, Note_on_c, 0, 65, 38
1, 536311, Note_off_c, 0, 77, 57
1, 536325, Note_off_c, 0, 65, 50
1, 536425, Note_on_c, 0, 65, 54
1, 536428, Note_on_c, 0, 77, 54
1, 536452, Note_off_c, 0, 77, 62
1, 536480, Note_off_c, 0, 65, 60
1, 536576, Note_on_c, 0, 53, 42
1, 536580, Note_on_c, 0, 45, 40
1, 536580, Note_on_c, 0, 50, 37
1, 536717, Note_on_c, 0, 68, 48
1, 536718, Note_on_c, 0, 56, 46
1, 536755, Note_off_c, 0, 56, 48
1, 536757, Note_off_c, 0, 68, 47
1, 536798, Note_off_c, 0, 53, 43
1, 536832, Control_c, 0, 64, 108
1, 536843, Note_off_c, 0, 50, 38
1, 536846, Note_off_c, 0, 45, 44
1, 536846, Control_c, 0, 64, 99
1, 536860, Note_on_c, 0, 68, 49
1, 536861, Control_c, 0, 64, 95
1, 536866, Note_on_c, 0, 56, 39
1, 536876, Control_c, 0, 64, 92
1, 536891, Control_c, 0, 64, 88
1, 536905, Control_c, 0, 64, 81
1, 536920, Control_c, 0, 64, 73
1, 536935, Control_c, 0, 64, 64
1, 536950, Control_c, 0, 64, 57
1, 536965, Control_c, 0, 64, 47
1, 536980, Control_c, 0, 64, 36
1, 536995, Control_c, 0, 64, 29
1, 537001, Note_on_c, 0, 52, 44
1, 537007, Note_on_c, 0, 49, 37
1, 537007, Note_on_c, 0, 45, 33
1, 537025, Control_c, 0, 64, 33
1, 537040, Control_c, 0, 64, 38
1, 537054, Control_c, 0, 64, 42
1, 537059, Note_off_c, 0, 56, 44
1, 537069, Control_c, 0, 64, 48
1, 537084, Control_c, 0, 64, 54
1, 537105, Control_c, 0, 64, 60
1, 537120, Control_c, 0, 64, 64
1, 537135, Control_c, 0, 64, 66
1, 537150, Control_c, 0, 64, 67
1, 537165, Control_c, 0, 64, 68
1, 537177, Note_on_c, 0, 69, 46
1, 537184, Note_on_c, 0, 57, 43
1, 537218, Note_off_c, 0, 68, 26
1, 537226, Note_off_c, 0, 69, 59
1, 537228, Note_off_c, 0, 57, 57
1, 537265, Note_off_c, 0, 49, 39
1, 537269, Control_c, 0, 64, 67
1, 537281, Note_off_c, 0, 52, 41
1, 537298, Note_off_c, 0, 45, 41
1, 537299, Control_c, 0, 64, 66
1, 537313, Control_c, 0, 64, 65
1, 537328, Control_c, 0, 64, 64
1, 537343, Control_c, 0, 64, 64
1, 537353, Note_on_c, 0, 57, 30
1, 537356, Note_on_c, 0, 69, 43
1, 537358, Control_c, 0, 64, 63
1, 537372, Control_c, 0, 64, 63
1, 537387, Control_c, 0, 64, 62
1, 537402, Control_c, 0, 64, 61
1, 537417, Control_c, 0, 64, 58
1, 537425, Note_off_c, 0, 69, 48
1, 537431, Control_c, 0, 64, 52
1, 537446, Control_c, 0, 64, 42
1, 537461, Control_c, 0, 64, 29
1, 537477, Control_c, 0, 64, 22
1, 537488, Note_on_c, 0, 49, 39
1, 537492, Control_c, 0, 64, 26
1, 537497, Note_on_c, 0, 45, 36
1, 537507, Control_c, 0, 64, 34
1, 537521, Control_c, 0, 64, 42
1, 537523, Note_off_c, 0, 57, 48
1, 537536, Control_c, 0, 64, 50
1, 537551, Control_c, 0, 64, 57
1, 537566, Control_c, 0, 64, 62
1, 537581, Control_c, 0, 64, 65
1, 537595, Control_c, 0, 64, 65
1, 537669, Control_c, 0, 64, 65
1, 537684, Control_c, 0, 64, 64
1, 537695, Note_on_c, 0, 52, 38
1, 537699, Control_c, 0, 64, 63
1, 537714, Control_c, 0, 64, 63
1, 537725, Note_on_c, 0, 64, 4
1, 537728, Control_c, 0, 64, 62
1, 537739, Note_off_c, 0, 52, 46
1, 537743, Control_c, 0, 64, 62
1, 537779, Note_off_c, 0, 64, 47
1, 537788, Control_c, 0, 64, 61
1, 537798, Note_off_c, 0, 49, 43
1, 537803, Control_c, 0, 64, 61
1, 537821, Note_off_c, 0, 45, 37
1, 537895, Note_on_c, 0, 64, 46
1, 537904, Note_on_c, 0, 52, 37
1, 537914, Control_c, 0, 64, 60
1, 537943, Control_c, 0, 64, 60
1, 537958, Control_c, 0, 64, 59
1, 537973, Control_c, 0, 64, 59
1, 537988, Control_c, 0, 64, 58
1, 538002, Control_c, 0, 64, 57
1, 538017, Control_c, 0, 64, 56
1, 538032, Control_c, 0, 64, 55
1, 538047, Control_c, 0, 64, 54
1, 538062, Control_c, 0, 64, 53
1, 538077, Control_c, 0, 64, 51
1, 538092, Control_c, 0, 64, 48
1, 538107, Control_c, 0, 64, 45
1, 538121, Control_c, 0, 64, 39
1, 538136, Control_c, 0, 64, 29
1, 538151, Control_c, 0, 64, 15
1, 538166, Control_c, 0, 64, 0
1, 538172, Note_on_c, 0, 50, 24
1, 538173, Note_on_c, 0, 45, 29
1, 538178, Note_on_c, 0, 47, 26
1, 538210, Control_c, 0, 64, 11
1, 538225, Control_c, 0, 64, 19
1, 538240, Control_c, 0, 64, 26
1, 538254, Control_c, 0, 64, 33
1, 538263, Note_off_c, 0, 52, 48
1, 538269, Control_c, 0, 64, 41
1, 538285, Note_off_c, 0, 64, 54
1, 538285, Control_c, 0, 64, 48
1, 538300, Control_c, 0, 64, 54
1, 538315, Control_c, 0, 64, 58
1, 538330, Control_c, 0, 64, 61
1, 538344, Control_c, 0, 64, 62
1, 538359, Control_c, 0, 64, 63
1, 538463, Control_c, 0, 64, 62
1, 538471, Note_on_c, 0, 65, 37
1, 538491, Note_on_c, 0, 53, 30
1, 538492, Control_c, 0, 64, 62
1, 538537, Control_c, 0, 64, 61
1, 538545, Note_off_c, 0, 53, 45
1, 538581, Control_c, 0, 64, 61
1, 538586, Note_off_c, 0, 65, 32
1, 538677, Control_c, 0, 64, 60
1, 538680, Note_off_c, 0, 45, 42
1, 538681, Note_off_c, 0, 47, 39
1, 538692, Control_c, 0, 64, 60
1, 538696, Note_off_c, 0, 50, 35
1, 538707, Control_c, 0, 64, 59
1, 538737, Control_c, 0, 64, 59
1, 538751, Control_c, 0, 64, 58
1, 538760, Note_on_c, 0, 65, 33
1, 538766, Control_c, 0, 64, 58
1, 538781, Control_c, 0, 64, 57
1, 538784, Note_on_c, 0, 53, 26
1, 538796, Control_c, 0, 64, 57
1, 538811, Control_c, 0, 64, 56
1, 538825, Control_c, 0, 64, 55
1, 538840, Control_c, 0, 64, 54
1, 538855, Control_c, 0, 64, 54
1, 538870, Control_c, 0, 64, 52
1, 538885, Control_c, 0, 64, 50
1, 538900, Control_c, 0, 64, 47
1, 538915, Control_c, 0, 64, 45
1, 538929, Control_c, 0, 64, 43
1, 538944, Control_c, 0, 64, 40
1, 538959, Control_c, 0, 64, 38
1, 538974, Control_c, 0, 64, 36
1, 538989, Control_c, 0, 64, 35
1, 539003, Control_c, 0, 64, 33
1, 539018, Control_c, 0, 64, 32
1, 539033, Control_c, 0, 64, 31
1, 539048, Control_c, 0, 64, 29
1, 539064, Control_c, 0, 64, 27
1, 539078, Control_c, 0, 64, 25
1, 539093, Control_c, 0, 64, 24
1, 539108, Control_c, 0, 64, 22
1, 539123, Control_c, 0, 64, 20
1, 539138, Control_c, 0, 64, 18
1, 539153, Control_c, 0, 64, 16
1, 539168, Control_c, 0, 64, 14
1, 539183, Control_c, 0, 64, 11
1, 539198, Control_c, 0, 64, 0
1, 539520, Note_off_c, 0, 65, 42
1, 539582, Note_off_c, 0, 53, 35
1, 539976, Control_c, 0, 64, 14
1, 539991, Control_c, 0, 64, 22
1, 540006, Control_c, 0, 64, 27
1, 540020, Control_c, 0, 64, 33
1, 540035, Control_c, 0, 64, 38
1, 540050, Control_c, 0, 64, 45
1, 540065, Control_c, 0, 64, 51
1, 540080, Control_c, 0, 64, 58
1, 540102, Control_c, 0, 64, 62
1, 540117, Control_c, 0, 64, 65
1, 540131, Control_c, 0, 64, 67
1, 540146, Control_c, 0, 64, 70
1, 540161, Control_c, 0, 64, 74
1, 540176, Control_c, 0, 64, 80
1, 540191, Control_c, 0, 64, 92
1, 540205, Control_c, 0, 64, 115
1, 540220, Control_c, 0, 64, 127
1, 540520, Note_on_c, 0, 44, 28
1, 540535, Note_on_c, 0, 56, 22
1, 540601, Note_off_c, 0, 56, 41
1, 540629, Note_off_c, 0, 44, 36
1, 540772, Note_on_c, 0, 44, 24
1, 540811, Poly_aftertouch_c, 0, 56, 127
1, 540872, Note_off_c, 0, 44, 35
1, 540881, Poly_aftertouch_c, 0, 56, 0
1, 541353, Control_c, 0, 64, 110
1, 541368, Control_c, 0, 64, 99
1, 541383, Control_c, 0, 64, 93
1, 541398, Control_c, 0, 64, 88
1, 541413, Control_c, 0, 64, 85
1, 541427, Control_c, 0, 64, 83
1, 541442, Control_c, 0, 64, 80
1, 541457, Control_c, 0, 64, 78
1, 541473, Control_c, 0, 64, 76
1, 541487, Control_c, 0, 64, 75
1, 541502, Control_c, 0, 64, 73
1, 541517, Control_c, 0, 64, 72
1, 541532, Control_c, 0, 64, 70
1, 541547, Control_c, 0, 64, 69
1, 541562, Control_c, 0, 64, 68
1, 541576, Control_c, 0, 64, 66
1, 541599, Control_c, 0, 64, 65
1, 541614, Control_c, 0, 64, 64
1, 541629, Control_c, 0, 64, 63
1, 541643, Control_c, 0, 64, 62
1, 541658, Control_c, 0, 64, 60
1, 541673, Control_c, 0, 64, 59
1, 541688, Control_c, 0, 64, 57
1, 541702, Control_c, 0, 64, 55
1, 541717, Control_c, 0, 64, 52
1, 541732, Control_c, 0, 64, 50
1, 541747, Control_c, 0, 64, 48
1, 541762, Control_c, 0, 64, 46
1, 541776, Control_c, 0, 64, 44
1, 541791, Control_c, 0, 64, 42
1, 541806, Control_c, 0, 64, 40
1, 541821, Control_c, 0, 64, 38
1, 541836, Control_c, 0, 64, 37
1, 541851, Control_c, 0, 64, 35
1, 541866, Control_c, 0, 64, 32
1, 541881, Control_c, 0, 64, 30
1, 541895, Control_c, 0, 64, 27
1, 541910, Control_c, 0, 64, 24
1, 541925, Control_c, 0, 64, 21
1, 541940, Control_c, 0, 64, 18
1, 541955, Control_c, 0, 64, 14
1, 541969, Control_c, 0, 64, 9
1, 541984, Control_c, 0, 64, 0
1, 542296, Control_c, 0, 64, 9
1, 542310, Control_c, 0, 64, 20
1, 542325, Control_c, 0, 64, 28
1, 542348, Control_c, 0, 64, 35
1, 542363, Control_c, 0, 64, 42
1, 542378, Control_c, 0, 64, 50
1, 542392, Control_c, 0, 64, 59
1, 542407, Control_c, 0, 64, 64
1, 542422, Control_c, 0, 64, 69
1, 542437, Control_c, 0, 64, 74
1, 542451, Control_c, 0, 64, 80
1, 542466, Control_c, 0, 64, 90
1, 542481, Control_c, 0, 64, 127
1, 542811, Note_on_c, 0, 57, 27
1, 542817, Note_on_c, 0, 45, 29
1, 542927, Note_off_c, 0, 57, 35
1, 542937, Note_off_c, 0, 45, 35
1, 543106, Note_on_c, 0, 57, 29
1, 543114, Note_on_c, 0, 45, 33
1, 543225, Note_off_c, 0, 57, 36
1, 543237, Note_off_c, 0, 45, 36
1, 543904, Control_c, 0, 64, 113
1, 543919, Control_c, 0, 64, 105
1, 543934, Control_c, 0, 64, 102
1, 543949, Control_c, 0, 64, 99
1, 543963, Control_c, 0, 64, 95
1, 543978, Control_c, 0, 64, 90
1, 543993, Control_c, 0, 64, 86
1, 544008, Control_c, 0, 64, 82
1, 544022, Control_c, 0, 64, 79
1, 544037, Control_c, 0, 64, 77
1, 544052, Control_c, 0, 64, 74
1, 544067, Control_c, 0, 64, 71
1, 544082, Control_c, 0, 64, 68
1, 544096, Control_c, 0, 64, 66
1, 544111, Control_c, 0, 64, 64
1, 544126, Control_c, 0, 64, 63
1, 544141, Control_c, 0, 64, 61
1, 544156, Control_c, 0, 64, 58
1, 544170, Control_c, 0, 64, 54
1, 544185, Control_c, 0, 64, 50
1, 544200, Control_c, 0, 64, 46
1, 544215, Control_c, 0, 64, 44
1, 544229, Control_c, 0, 64, 42
1, 544244, Control_c, 0, 64, 41
1, 544259, Control_c, 0, 64, 39
1, 544274, Control_c, 0, 64, 37
1, 544289, Control_c, 0, 64, 35
1, 544304, Control_c, 0, 64, 33
1, 544319, Control_c, 0, 64, 30
1, 544334, Control_c, 0, 64, 27
1, 544349, Control_c, 0, 64, 25
1, 544363, Control_c, 0, 64, 22
1, 544378, Control_c, 0, 64, 20
1, 544393, Control_c, 0, 64, 18
1, 544407, Control_c, 0, 64, 16
1, 544422, Control_c, 0, 64, 14
1, 544437, Control_c, 0, 64, 12
1, 544452, Control_c, 0, 64, 11
1, 544467, Control_c, 0, 64, 10
1, 544481, Control_c, 0, 64, 0
1, 544622, Control_c, 0, 67, 8
1, 544637, Control_c, 0, 67, 11
1, 544652, Control_c, 0, 67, 14
1, 544668, Control_c, 0, 67, 16
1, 544683, Control_c, 0, 67, 18
1, 544697, Control_c, 0, 67, 20
1, 544712, Control_c, 0, 67, 20
1, 544801, Control_c, 0, 67, 21
1, 544816, Control_c, 0, 67, 21
1, 544831, Control_c, 0, 67, 23
1, 544845, Control_c, 0, 67, 29
1, 544860, Control_c, 0, 67, 39
1, 544875, Control_c, 0, 67, 52
1, 544890, Control_c, 0, 67, 66
1, 544905, Control_c, 0, 67, 82
1, 544919, Control_c, 0, 67, 106
1, 544934, Control_c, 0, 67, 127
1, 545371, Control_c, 0, 64, 17
1, 545386, Control_c, 0, 64, 33
1, 545401, Control_c, 0, 64, 45
1, 545416, Control_c, 0, 64, 57
1, 545431, Control_c, 0, 64, 67
1, 545445, Control_c, 0, 64, 89
1, 545461, Control_c, 0, 64, 127
1, 545690, Note_on_c, 0, 58, 40
1, 545693, Note_on_c, 0, 46, 42
1, 545730, Note_off_c, 0, 46, 48
1, 545769, Note_off_c, 0, 58, 0
1, 545784, Note_on_c, 0, 58, 33
1, 545801, Note_on_c, 0, 46, 46
1, 545844, Note_off_c, 0, 46, 58
1, 546569, Note_off_c, 0, 58, 41
1, 547464, Note_on_c, 0, 39, 34
1, 547470, Note_on_c, 0, 51, 28
1, 547517, Note_off_c, 0, 51, 43
1, 547548, Note_off_c, 0, 39, 0
1, 547559, Note_on_c, 0, 39, 34
1, 547565, Note_on_c, 0, 51, 38
1, 547611, Note_off_c, 0, 39, 59
1, 548727, Note_off_c, 0, 51, 40
1, 549913, Note_on_c, 0, 34, 36
1, 549916, Note_on_c, 0, 22, 38
1, 549921, Note_on_c, 0, 46, 36
1, 549966, Note_off_c, 0, 46, 45
1, 549987, Note_off_c, 0, 22, 38
1, 550012, Note_off_c, 0, 34, 0
1, 550027, Note_on_c, 0, 46, 41
1, 550029, Note_on_c, 0, 34, 28
1, 550039, Note_on_c, 0, 22, 30
1, 550102, Control_c, 0, 64, 102
1, 550117, Control_c, 0, 64, 78
1, 550132, Control_c, 0, 64, 64
1, 550147, Control_c, 0, 64, 52
1, 550161, Control_c, 0, 64, 33
1, 550176, Control_c, 0, 64, 0
1, 550325, Control_c, 0, 64, 23
1, 550340, Control_c, 0, 64, 37
1, 550355, Control_c, 0, 64, 51
1, 550370, Control_c, 0, 64, 63
1, 550384, Control_c, 0, 64, 81
1, 550399, Control_c, 0, 64, 127
1, 550677, Note_off_c, 0, 46, 44
1, 551635, Note_on_c, 0, 61, 60
1, 551666, Note_on_c, 0, 55, 50
1, 551679, Note_on_c, 0, 52, 41
1, 551732, Control_c, 0, 64, 105
1, 551747, Control_c, 0, 64, 85
1, 551762, Control_c, 0, 64, 74
1, 551777, Control_c, 0, 64, 66
1, 551792, Control_c, 0, 64, 61
1, 551806, Control_c, 0, 64, 53
1, 551821, Control_c, 0, 64, 42
1, 551836, Control_c, 0, 64, 29
1, 551852, Control_c, 0, 64, 10
1, 551867, Control_c, 0, 64, 0
1, 552481, Control_c, 0, 64, 15
1, 552496, Control_c, 0, 64, 26
1, 552510, Control_c, 0, 64, 36
1, 552525, Control_c, 0, 64, 45
1, 552540, Control_c, 0, 64, 54
1, 552555, Control_c, 0, 64, 61
1, 552570, Control_c, 0, 64, 66
1, 552585, Control_c, 0, 64, 70
1, 552600, Control_c, 0, 64, 74
1, 552615, Control_c, 0, 64, 81
1, 552629, Control_c, 0, 64, 90
1, 552645, Control_c, 0, 64, 105
1, 552659, Control_c, 0, 64, 127
1, 552880, Note_off_c, 0, 52, 44
1, 552943, Note_off_c, 0, 61, 33
1, 552963, Note_off_c, 0, 55, 51
1, 553778, Note_off_c, 0, 34, 31
1, 554334, Note_off_c, 0, 22, 33
1, 554713, Control_c, 0, 64, 107
1, 554728, Control_c, 0, 64, 98
1, 554743, Control_c, 0, 64, 91
1, 554758, Control_c, 0, 64, 85
1, 554773, Control_c, 0, 64, 79
1, 554776, Note_on_c, 0, 45, 30
1, 554783, Note_on_c, 0, 21, 27
1, 554788, Control_c, 0, 64, 74
1, 554794, Note_on_c, 0, 33, 25
1, 554803, Control_c, 0, 64, 68
1, 554817, Control_c, 0, 64, 62
1, 554832, Control_c, 0, 64, 55
1, 554847, Control_c, 0, 64, 42
1, 554861, Control_c, 0, 64, 20
1, 554876, Control_c, 0, 64, 0
1, 554979, Control_c, 0, 64, 17
1, 554988, Note_off_c, 0, 45, 41
1, 554994, Control_c, 0, 64, 25
1, 554999, Note_off_c, 0, 33, 42
1, 555005, Note_off_c, 0, 21, 40
1, 555009, Control_c, 0, 64, 30
1, 555023, Control_c, 0, 64, 36
1, 555038, Control_c, 0, 64, 41
1, 555054, Control_c, 0, 64, 46
1, 555077, Control_c, 0, 64, 52
1, 555092, Control_c, 0, 64, 56
1, 555107, Control_c, 0, 64, 57
1, 555136, Control_c, 0, 64, 56
1, 555151, Control_c, 0, 64, 55
1, 555166, Control_c, 0, 64, 55
1, 555210, Control_c, 0, 64, 54
1, 555225, Control_c, 0, 64, 53
1, 555240, Control_c, 0, 64, 52
1, 555254, Control_c, 0, 64, 51
1, 555269, Control_c, 0, 64, 50
1, 555284, Control_c, 0, 64, 48
1, 555299, Control_c, 0, 64, 46
1, 555314, Control_c, 0, 64, 43
1, 555328, Control_c, 0, 64, 41
1, 555343, Control_c, 0, 64, 40
1, 555358, Control_c, 0, 64, 39
1, 555372, Control_c, 0, 64, 37
1, 555387, Control_c, 0, 64, 35
1, 555402, Control_c, 0, 64, 33
1, 555417, Control_c, 0, 64, 31
1, 555432, Control_c, 0, 64, 28
1, 555447, Control_c, 0, 64, 26
1, 555462, Control_c, 0, 64, 24
1, 555476, Control_c, 0, 64, 22
1, 555491, Control_c, 0, 64, 21
1, 555506, Control_c, 0, 64, 19
1, 555521, Control_c, 0, 64, 18
1, 555536, Control_c, 0, 64, 16
1, 555551, Control_c, 0, 64, 15
1, 555565, Control_c, 0, 64, 14
1, 555580, Control_c, 0, 64, 12
1, 555595, Control_c, 0, 64, 10
1, 555610, Control_c, 0, 64, 0
1, 557900, Control_c, 0, 64, 8
1, 557915, Control_c, 0, 64, 16
1, 557930, Control_c, 0, 64, 22
1, 557945, Control_c, 0, 64, 29
1, 557960, Control_c, 0, 64, 36
1, 557974, Control_c, 0, 64, 42
1, 557989, Control_c, 0, 64, 48
1, 558004, Control_c, 0, 64, 53
1, 558019, Control_c, 0, 64, 58
1, 558034, Control_c, 0, 64, 61
1, 558048, Control_c, 0, 64, 63
1, 558070, Control_c, 0, 64, 64
1, 558085, Control_c, 0, 64, 66
1, 558100, Control_c, 0, 64, 68
1, 558115, Control_c, 0, 64, 72
1, 558129, Control_c, 0, 64, 78
1, 558144, Control_c, 0, 64, 88
1, 558159, Control_c, 0, 64, 122
1, 558174, Control_c, 0, 64, 127
1, 558478, Note_on_c, 0, 74, 26
1, 558568, Note_on_c, 0, 78, 45
1, 558603, Note_on_c, 0, 81, 32
1, 558615, Note_on_c, 0, 86, 34
1, 558626, Note_off_c, 0, 78, 0
1, 558626, Note_on_c, 0, 78, 7
1, 558655, Note_off_c, 0, 81, 47
1, 558673, Note_off_c, 0, 86, 41
1, 558679, Note_off_c, 0, 74, 43
1, 558682, Note_on_c, 0, 90, 44
1, 558726, Note_off_c, 0, 90, 58
1, 558729, Note_off_c, 0, 78, 39
1, 558766, Note_on_c, 0, 81, 38
1, 558781, Note_on_c, 0, 86, 38
1, 558796, Note_off_c, 0, 81, 55
1, 558818, Note_off_c, 0, 86, 52
1, 558822, Note_on_c, 0, 90, 58
1, 558860, Note_off_c, 0, 90, 64
1, 558904, Note_on_c, 0, 81, 37
1, 558908, Note_on_c, 0, 86, 46
1, 558937, Note_off_c, 0, 81, 53
1, 558946, Note_on_c, 0, 90, 66
1, 558947, Note_off_c, 0, 86, 48
1, 558995, Note_off_c, 0, 90, 60
1, 559049, Note_on_c, 0, 81, 17
1, 559052, Note_on_c, 0, 86, 45
1, 559078, Note_on_c, 0, 90, 61
1, 559083, Note_off_c, 0, 86, 52
1, 559092, Note_off_c, 0, 81, 53
1, 559118, Note_off_c, 0, 90, 62
1, 559175, Note_on_c, 0, 86, 47
1, 559213, Note_off_c, 0, 86, 49
1, 559220, Note_on_c, 0, 90, 62
1, 559254, Note_off_c, 0, 90, 64
1, 559316, Note_on_c, 0, 86, 46
1, 559341, Poly_aftertouch_c, 0, 81, 127
1, 559343, Note_on_c, 0, 90, 60
1, 559345, Note_off_c, 0, 86, 53
1, 559374, Poly_aftertouch_c, 0, 81, 0
1, 559384, Note_off_c, 0, 90, 61
1, 559440, Note_on_c, 0, 86, 49
1, 559469, Note_off_c, 0, 86, 54
1, 559473, Note_on_c, 0, 90, 62
1, 559512, Note_off_c, 0, 90, 64
1, 559584, Note_on_c, 0, 81, 17
1, 559587, Note_on_c, 0, 86, 50
1, 559621, Note_on_c, 0, 90, 55
1, 559626, Note_off_c, 0, 81, 53
1, 559629, Note_off_c, 0, 86, 48
1, 559695, Note_off_c, 0, 90, 61
1, 559706, Note_on_c, 0, 72, 52
1, 559716, Control_c, 0, 64, 72
1, 559731, Control_c, 0, 64, 56
1, 559745, Control_c, 0, 64, 29
1, 559760, Control_c, 0, 64, 0
1, 559770, Note_on_c, 0, 84, 44
1, 559772, Note_on_c, 0, 79, 54
1, 559778, Note_on_c, 0, 88, 44
1, 559790, Control_c, 0, 64, 11
1, 559798, Note_off_c, 0, 84, 56
1, 559805, Control_c, 0, 64, 38
1, 559814, Note_off_c, 0, 88, 54
1, 559820, Control_c, 0, 64, 55
1, 559821, Note_on_c, 0, 91, 54
1, 559835, Control_c, 0, 64, 74
1, 559850, Control_c, 0, 64, 127
1, 559870, Note_off_c, 0, 91, 56
1, 559891, Note_on_c, 0, 84, 49
1, 559913, Note_on_c, 0, 88, 51
1, 559932, Note_off_c, 0, 84, 48
1, 559941, Note_off_c, 0, 88, 61
1, 559954, Note_on_c, 0, 91, 60
1, 559992, Note_off_c, 0, 91, 57
1, 560031, Note_on_c, 0, 84, 46
1, 560036, Note_on_c, 0, 88, 48
1, 560060, Note_off_c, 0, 84, 55
1, 560064, Note_off_c, 0, 88, 58
1, 560073, Note_on_c, 0, 91, 69
1, 560092, Note_off_c, 0, 72, 38
1, 560106, Note_off_c, 0, 79, 36
1, 560109, Note_off_c, 0, 91, 54
1, 560149, Note_on_c, 0, 88, 58
1, 560155, Note_on_c, 0, 84, 50
1, 560184, Note_off_c, 0, 84, 56
1, 560186, Note_off_c, 0, 88, 62
1, 560198, Note_on_c, 0, 91, 68
1, 560246, Note_off_c, 0, 91, 49
1, 560282, Note_on_c, 0, 84, 50
1, 560290, Note_on_c, 0, 88, 48
1, 560320, Note_off_c, 0, 84, 53
1, 560328, Note_on_c, 0, 91, 67
1, 560330, Note_off_c, 0, 88, 55
1, 560376, Note_off_c, 0, 91, 55
1, 560421, Note_on_c, 0, 84, 43
1, 560434, Note_on_c, 0, 88, 46
1, 560447, Note_off_c, 0, 84, 56
1, 560451, Note_on_c, 0, 91, 66
1, 560458, Note_off_c, 0, 88, 59
1, 560507, Note_off_c, 0, 91, 57
1, 560532, Note_on_c, 0, 84, 58
1, 560538, Note_on_c, 0, 88, 53
1, 560570, Note_off_c, 0, 84, 62
1, 560574, Note_on_c, 0, 91, 64
1, 560574, Note_off_c, 0, 88, 65
1, 560628, Note_off_c, 0, 91, 53
1, 560687, Note_on_c, 0, 88, 36
1, 560689, Note_on_c, 0, 84, 25
1, 560702, Note_on_c, 0, 91, 64
1, 560717, Note_off_c, 0, 88, 50
1, 560724, Note_off_c, 0, 84, 53
1, 560747, Note_off_c, 0, 91, 50
1, 560815, Note_on_c, 0, 88, 32
1, 560826, Note_on_c, 0, 91, 64
1, 560850, Note_off_c, 0, 88, 54
1, 560863, Note_off_c, 0, 91, 54
1, 560914, Note_on_c, 0, 84, 27
1, 560920, Note_on_c, 0, 88, 49
1, 560949, Note_off_c, 0, 84, 49
1, 560952, Note_off_c, 0, 88, 59
1, 560958, Note_on_c, 0, 91, 66
1, 560993, Note_off_c, 0, 91, 56
1, 561034, Note_on_c, 0, 84, 52
1, 561048, Note_on_c, 0, 88, 56
1, 561067, Note_off_c, 0, 84, 57
1, 561081, Note_off_c, 0, 88, 64
1, 561087, Note_on_c, 0, 91, 70
1, 561140, Note_off_c, 0, 91, 49
1, 561164, Note_on_c, 0, 84, 51
1, 561171, Note_on_c, 0, 88, 57
1, 561194, Note_off_c, 0, 84, 57
1, 561205, Note_off_c, 0, 88, 65
1, 561209, Note_on_c, 0, 91, 61
1, 561268, Note_off_c, 0, 91, 55
1, 561292, Note_on_c, 0, 84, 51
1, 561311, Note_on_c, 0, 88, 47
1, 561323, Note_off_c, 0, 84, 52
1, 561335, Note_on_c, 0, 91, 62
1, 561340, Note_off_c, 0, 88, 55
1, 561383, Note_off_c, 0, 91, 56
1, 561417, Note_on_c, 0, 84, 58
1, 561436, Note_on_c, 0, 88, 51
1, 561459, Note_off_c, 0, 84, 60
1, 561471, Note_on_c, 0, 91, 67
1, 561483, Note_off_c, 0, 88, 59
1, 561525, Note_off_c, 0, 91, 55
1, 561575, Note_on_c, 0, 84, 47
1, 561599, Note_off_c, 0, 84, 57
1, 561601, Note_on_c, 0, 88, 38
1, 561602, Note_on_c, 0, 91, 62
1, 561631, Note_off_c, 0, 88, 55
1, 561641, Note_off_c, 0, 91, 56
1, 561687, Note_on_c, 0, 84, 48
1, 561709, Note_on_c, 0, 88, 55
1, 561733, Note_on_c, 0, 91, 44
1, 561737, Note_off_c, 0, 84, 55
1, 561741, Note_off_c, 0, 88, 58
1, 561775, Note_on_c, 0, 74, 51
1, 561777, Note_off_c, 0, 91, 44
1, 561778, Control_c, 0, 64, 81
1, 561793, Control_c, 0, 64, 62
1, 561814, Control_c, 0, 64, 43
1, 561829, Control_c, 0, 64, 0
1, 561851, Note_on_c, 0, 78, 66
1, 561859, Control_c, 0, 64, 23
1, 561869, Note_on_c, 0, 81, 51
1, 561874, Control_c, 0, 64, 42
1, 561884, Note_on_c, 0, 86, 49
1, 561888, Control_c, 0, 64, 63
1, 561903, Control_c, 0, 64, 103
1, 561905, Note_off_c, 0, 81, 50
1, 561915, Note_off_c, 0, 74, 61
1, 561918, Control_c, 0, 64, 127
1, 561922, Note_on_c, 0, 90, 62
1, 561929, Note_off_c, 0, 86, 59
1, 561942, Note_off_c, 0, 78, 65
1, 561962, Note_off_c, 0, 90, 62
1, 562002, Note_on_c, 0, 81, 45
1, 562030, Note_off_c, 0, 81, 55
1, 562031, Note_on_c, 0, 86, 35
1, 562043, Note_on_c, 0, 90, 70
1, 562064, Note_off_c, 0, 86, 51
1, 562099, Note_off_c, 0, 90, 63
1, 562124, Note_on_c, 0, 81, 45
1, 562148, Note_on_c, 0, 86, 45
1, 562156, Note_off_c, 0, 81, 53
1, 562160, Note_on_c, 0, 90, 62
1, 562180, Note_off_c, 0, 86, 52
1, 562220, Note_off_c, 0, 90, 64
1, 562251, Note_on_c, 0, 81, 52
1, 562285, Note_on_c, 0, 86, 42
1, 562285, Note_off_c, 0, 81, 52
1, 562294, Note_on_c, 0, 90, 59
1, 562313, Note_off_c, 0, 86, 53
1, 562355, Note_off_c, 0, 90, 65
1, 562381, Note_on_c, 0, 81, 55
1, 562402, Note_on_c, 0, 86, 46
1, 562422, Note_off_c, 0, 81, 59
1, 562427, Note_on_c, 0, 90, 61
1, 562446, Note_off_c, 0, 86, 49
1, 562489, Note_off_c, 0, 90, 64
1, 562520, Note_on_c, 0, 81, 50
1, 562550, Note_off_c, 0, 81, 54
1, 562568, Note_on_c, 0, 86, 37
1, 562577, Note_on_c, 0, 90, 53
1, 562607, Note_off_c, 0, 86, 46
1, 562618, Note_off_c, 0, 90, 65
1, 562643, Note_on_c, 0, 81, 55
1, 562685, Note_on_c, 0, 86, 29
1, 562685, Note_off_c, 0, 81, 60
1, 562708, Note_on_c, 0, 90, 51
1, 562728, Note_off_c, 0, 86, 46
1, 562741, Note_off_c, 0, 90, 53
1, 562803, Note_on_c, 0, 81, 23
1, 562820, Note_on_c, 0, 90, 53
1, 562833, Note_on_c, 0, 86, 27
1, 562846, Note_off_c, 0, 81, 50
1, 562881, Note_on_c, 0, 69, 52
1, 562893, Note_off_c, 0, 86, 40
1, 562948, Note_off_c, 0, 90, 37
1, 562963, Control_c, 0, 64, 122
1, 562978, Control_c, 0, 64, 83
1, 562993, Control_c, 0, 64, 66
1, 562996, Note_on_c, 0, 76, 64
1, 562997, Note_on_c, 0, 81, 45
1, 563008, Control_c, 0, 64, 55
1, 563018, Note_on_c, 0, 86, 44
1, 563023, Control_c, 0, 64, 33
1, 563036, Note_off_c, 0, 81, 59
1, 563039, Control_c, 0, 64, 0
1, 563057, Note_off_c, 0, 86, 48
1, 563065, Note_on_c, 0, 88, 47
1, 563068, Control_c, 0, 64, 17
1, 563083, Control_c, 0, 64, 28
1, 563099, Control_c, 0, 64, 39
1, 563112, Note_off_c, 0, 88, 50
1, 563113, Control_c, 0, 64, 50
1, 563128, Control_c, 0, 64, 63
1, 563143, Note_on_c, 0, 81, 43
1, 563143, Control_c, 0, 64, 76
1, 563152, Note_on_c, 0, 86, 55
1, 563158, Control_c, 0, 64, 93
1, 563172, Note_off_c, 0, 81, 56
1, 563173, Control_c, 0, 64, 127
1, 563189, Note_off_c, 0, 86, 62
1, 563200, Note_on_c, 0, 88, 60
1, 563241, Note_off_c, 0, 88, 60
1, 563257, Note_on_c, 0, 81, 55
1, 563288, Note_on_c, 0, 86, 49
1, 563296, Note_off_c, 0, 81, 62
1, 563325, Note_off_c, 0, 86, 54
1, 563330, Note_on_c, 0, 88, 62
1, 563367, Note_off_c, 0, 88, 60
1, 563403, Note_on_c, 0, 81, 56
1, 563414, Note_on_c, 0, 86, 49
1, 563435, Note_off_c, 0, 81, 58
1, 563441, Note_off_c, 0, 86, 59
1, 563454, Note_on_c, 0, 88, 65
1, 563501, Note_off_c, 0, 88, 52
1, 563530, Note_on_c, 0, 86, 57
1, 563531, Note_on_c, 0, 81, 51
1, 563565, Note_off_c, 0, 81, 56
1, 563570, Note_off_c, 0, 86, 61
1, 563590, Note_on_c, 0, 88, 61
1, 563631, Note_off_c, 0, 88, 60
1, 563662, Note_on_c, 0, 81, 51
1, 563680, Note_on_c, 0, 86, 48
1, 563694, Note_off_c, 0, 81, 54
1, 563708, Note_off_c, 0, 86, 58
1, 563719, Note_on_c, 0, 88, 62
1, 563757, Note_off_c, 0, 88, 61
1, 563793, Note_on_c, 0, 81, 47
1, 563805, Note_on_c, 0, 86, 44
1, 563832, Note_off_c, 0, 81, 50
1, 563833, Note_off_c, 0, 86, 57
1, 563838, Note_on_c, 0, 88, 66
1, 563886, Note_off_c, 0, 88, 56
1, 563925, Note_on_c, 0, 86, 46
1, 563935, Note_on_c, 0, 81, 44
1, 563959, Note_off_c, 0, 86, 55
1, 563968, Note_off_c, 0, 81, 54
1, 563979, Note_on_c, 0, 88, 65
1, 564029, Note_off_c, 0, 88, 57
1, 564069, Note_on_c, 0, 81, 57
1, 564079, Note_on_c, 0, 85, 60
1, 564111, Note_off_c, 0, 81, 61
1, 564113, Note_off_c, 0, 85, 62
1, 564160, Note_on_c, 0, 88, 36
1, 564191, Note_off_c, 0, 88, 55
1, 564216, Note_on_c, 0, 81, 47
1, 564220, Note_on_c, 0, 85, 52
1, 564244, Note_off_c, 0, 81, 57
1, 564248, Note_off_c, 0, 85, 55
1, 564258, Note_on_c, 0, 88, 60
1, 564294, Note_off_c, 0, 88, 63
1, 564337, Note_on_c, 0, 81, 45
1, 564339, Note_on_c, 0, 85, 49
1, 564380, Note_off_c, 0, 85, 50
1, 564389, Note_off_c, 0, 81, 45
1, 564389, Note_on_c, 0, 88, 61
1, 564455, Note_off_c, 0, 88, 62
1, 564485, Note_on_c, 0, 85, 43
1, 564502, Note_on_c, 0, 81, 30
1, 564535, Note_on_c, 0, 88, 50
1, 564536, Note_off_c, 0, 81, 55
1, 564597, Note_off_c, 0, 88, 54
1, 564605, Note_off_c, 0, 85, 0
1, 564614, Note_on_c, 0, 79, 56
1, 564629, Note_on_c, 0, 85, 11
1, 564637, Note_off_c, 0, 76, 59
1, 564652, Note_off_c, 0, 79, 49
1, 564663, Note_on_c, 0, 88, 48
1, 564674, Note_off_c, 0, 85, 48
1, 564717, Note_off_c, 0, 88, 58
1, 564765, Note_on_c, 0, 85, 48
1, 564770, Note_on_c, 0, 79, 17
1, 564789, Note_on_c, 0, 88, 53
1, 564792, Note_off_c, 0, 85, 57
1, 564820, Note_off_c, 0, 79, 52
1, 564836, Note_off_c, 0, 88, 59
1, 564877, Note_on_c, 0, 79, 38
1, 564896, Note_on_c, 0, 85, 44
1, 564914, Note_off_c, 0, 79, 51
1, 564921, Note_on_c, 0, 88, 58
1, 564926, Note_off_c, 0, 85, 51
1, 564947, Note_off_c, 0, 88, 61
1, 565003, Note_off_c, 0, 69, 43
1, 565012, Note_on_c, 0, 79, 49
1, 565040, Note_on_c, 0, 85, 39
1, 565041, Note_off_c, 0, 79, 55
1, 565082, Note_off_c, 0, 85, 49
1, 565082, Poly_aftertouch_c, 0, 88, 127
1, 565092, Control_c, 0, 64, 109
1, 565107, Control_c, 0, 64, 70
1, 565122, Control_c, 0, 64, 55
1, 565123, Note_on_c, 0, 71, 53
1, 565128, Poly_aftertouch_c, 0, 88, 0
1, 565137, Control_c, 0, 64, 22
1, 565151, Control_c, 0, 64, 0
1, 565181, Control_c, 0, 64, 22
1, 565191, Note_on_c, 0, 74, 60
1, 565196, Control_c, 0, 64, 41
1, 565211, Control_c, 0, 64, 57
1, 565215, Note_on_c, 0, 78, 49
1, 565226, Control_c, 0, 64, 79
1, 565231, Note_on_c, 0, 83, 43
1, 565239, Note_off_c, 0, 78, 59
1, 565240, Control_c, 0, 64, 127
1, 565260, Note_off_c, 0, 83, 56
1, 565263, Note_on_c, 0, 86, 50
1, 565269, Note_off_c, 0, 74, 61
1, 565285, Note_off_c, 0, 71, 57
1, 565298, Note_off_c, 0, 86, 47
1, 565332, Note_on_c, 0, 78, 44
1, 565355, Note_on_c, 0, 83, 49
1, 565368, Note_off_c, 0, 78, 51
1, 565379, Note_on_c, 0, 86, 63
1, 565381, Note_off_c, 0, 83, 60
1, 565437, Note_off_c, 0, 86, 54
1, 565463, Note_on_c, 0, 78, 51
1, 565472, Note_on_c, 0, 83, 54
1, 565493, Note_off_c, 0, 78, 55
1, 565511, Note_off_c, 0, 83, 64
1, 565514, Note_on_c, 0, 86, 51
1, 565563, Note_off_c, 0, 86, 61
1, 565596, Note_on_c, 0, 78, 47
1, 565626, Note_on_c, 0, 83, 42
1, 565631, Note_off_c, 0, 78, 52
1, 565654, Note_off_c, 0, 83, 56
1, 565656, Note_on_c, 0, 86, 60
1, 565690, Note_off_c, 0, 86, 61
1, 565732, Note_on_c, 0, 78, 49
1, 565749, Note_on_c, 0, 83, 51
1, 565769, Note_off_c, 0, 78, 50
1, 565781, Note_on_c, 0, 86, 58
1, 565793, Note_off_c, 0, 83, 59
1, 565823, Note_off_c, 0, 86, 57
1, 565866, Note_on_c, 0, 78, 54
1, 565898, Note_on_c, 0, 83, 50
1, 565907, Note_off_c, 0, 78, 53
1, 565919, Note_on_c, 0, 86, 60
1, 565928, Note_off_c, 0, 83, 56
1, 565954, Note_off_c, 0, 86, 60
1, 566010, Note_on_c, 0, 78, 49
1, 566026, Note_on_c, 0, 83, 53
1, 566037, Note_off_c, 0, 78, 56
1, 566055, Note_on_c, 0, 86, 48
1, 566074, Note_off_c, 0, 83, 49
1, 566094, Note_off_c, 0, 86, 45
1, 566143, Note_on_c, 0, 78, 43
1, 566154, Note_on_c, 0, 83, 29
1, 566166, Note_on_c, 0, 86, 46
1, 566180, Note_on_c, 0, 61, 50
1, 566190, Note_off_c, 0, 83, 54
1, 566217, Note_on_c, 0, 68, 55
1, 566228, Note_off_c, 0, 78, 37
1, 566308, Control_c, 0, 64, 78
1, 566323, Control_c, 0, 64, 62
1, 566337, Control_c, 0, 64, 44
1, 566343, Note_on_c, 0, 73, 72
1, 566351, Note_off_c, 0, 86, 39
1, 566352, Control_c, 0, 64, 0
1, 566398, Note_on_c, 0, 80, 37
1, 566406, Note_on_c, 0, 77, 33
1, 566411, Control_c, 0, 64, 23
1, 566426, Control_c, 0, 64, 38
1, 566437, Note_off_c, 0, 80, 48
1, 566441, Control_c, 0, 64, 52
1, 566443, Note_off_c, 0, 77, 50
1, 566455, Control_c, 0, 64, 65
1, 566457, Note_on_c, 0, 85, 55
1, 566470, Control_c, 0, 64, 90
1, 566485, Control_c, 0, 64, 127
1, 566500, Note_off_c, 0, 85, 57
1, 566542, Note_on_c, 0, 77, 44
1, 566548, Note_on_c, 0, 80, 48
1, 566575, Note_off_c, 0, 77, 53
1, 566581, Note_off_c, 0, 80, 53
1, 566595, Note_on_c, 0, 85, 57
1, 566625, Note_off_c, 0, 73, 64
1, 566631, Note_off_c, 0, 85, 59
1, 566689, Note_on_c, 0, 80, 48
1, 566692, Note_on_c, 0, 77, 22
1, 566717, Note_off_c, 0, 80, 54
1, 566721, Note_on_c, 0, 85, 61
1, 566738, Note_off_c, 0, 77, 41
1, 566759, Note_off_c, 0, 85, 58
1, 566804, Note_on_c, 0, 80, 57
1, 566848, Note_off_c, 0, 80, 57
1, 566860, Note_on_c, 0, 85, 61
1, 566868, Poly_aftertouch_c, 0, 77, 127
1, 566892, Note_off_c, 0, 85, 62
1, 566913, Poly_aftertouch_c, 0, 77, 0
1, 566937, Note_on_c, 0, 77, 15
1, 566967, Note_on_c, 0, 80, 30
1, 566992, Note_on_c, 0, 85, 58
1, 566998, Note_off_c, 0, 77, 46
1, 567009, Note_off_c, 0, 80, 46
1, 567028, Note_off_c, 0, 85, 60
1, 567082, Note_on_c, 0, 77, 28
1, 567105, Note_on_c, 0, 80, 25
1, 567118, Note_on_c, 0, 85, 53
1, 567123, Note_off_c, 0, 77, 51
1, 567154, Note_off_c, 0, 85, 63
1, 567185, Note_off_c, 0, 80, 0
1, 567190, Note_on_c, 0, 71, 58
1, 567205, Note_on_c, 0, 80, 23
1, 567214, Note_on_c, 0, 77, 32
1, 567226, Note_off_c, 0, 61, 36
1, 567251, Note_on_c, 0, 85, 53
1, 567263, Note_off_c, 0, 68, 40
1, 567284, Note_off_c, 0, 77, 40
1, 567347, Note_off_c, 0, 80, 43
1, 567381, Note_off_c, 0, 85, 61
1, 567389, Note_on_c, 0, 66, 58
1, 567442, Note_off_c, 0, 71, 38
1, 567457, Control_c, 0, 64, 87
1, 567472, Control_c, 0, 64, 64
1, 567478, Note_on_c, 0, 70, 52
1, 567486, Control_c, 0, 64, 49
1, 567497, Note_on_c, 0, 73, 42
1, 567501, Control_c, 0, 64, 23
1, 567516, Control_c, 0, 64, 0
1, 567517, Note_on_c, 0, 78, 27
1, 567526, Note_off_c, 0, 73, 58
1, 567531, Control_c, 0, 64, 23
1, 567544, Note_off_c, 0, 78, 53
1, 567545, Note_on_c, 0, 82, 57
1, 567546, Control_c, 0, 64, 37
1, 567561, Control_c, 0, 64, 51
1, 567576, Control_c, 0, 64, 65
1, 567588, Note_off_c, 0, 82, 61
1, 567591, Control_c, 0, 64, 93
1, 567606, Control_c, 0, 64, 127
1, 567613, Note_on_c, 0, 73, 47
1, 567639, Note_on_c, 0, 78, 47
1, 567658, Note_off_c, 0, 73, 49
1, 567666, Note_off_c, 0, 78, 58
1, 567669, Note_on_c, 0, 82, 59
1, 567727, Note_off_c, 0, 82, 60
1, 567776, Note_on_c, 0, 73, 37
1, 567791, Note_on_c, 0, 78, 18
1, 567813, Note_off_c, 0, 66, 59
1, 567821, Note_on_c, 0, 82, 25
1, 567859, Note_off_c, 0, 73, 0
1, 567859, Note_on_c, 0, 73, 10
1, 567862, Note_off_c, 0, 70, 53
1, 567865, Note_off_c, 0, 82, 50
1, 567874, Note_off_c, 0, 78, 0
1, 567911, Poly_aftertouch_c, 0, 78, 127
1, 567930, Note_off_c, 0, 73, 49
1, 567936, Note_on_c, 0, 82, 56
1, 567943, Note_on_c, 0, 66, 55
1, 567957, Poly_aftertouch_c, 0, 78, 0
1, 567972, Note_off_c, 0, 82, 65
1, 567994, Note_on_c, 0, 70, 51
1, 568069, Note_on_c, 0, 78, 38
1, 568082, Note_on_c, 0, 82, 39
1, 568087, Note_on_c, 0, 73, 50
1, 568110, Note_off_c, 0, 78, 49
1, 568112, Note_off_c, 0, 82, 56
1, 568120, Note_off_c, 0, 66, 54
1, 568129, Note_on_c, 0, 85, 52
1, 568142, Note_off_c, 0, 73, 56
1, 568144, Note_off_c, 0, 70, 57
1, 568165, Note_off_c, 0, 85, 63
1, 568203, Note_on_c, 0, 82, 44
1, 568235, Note_on_c, 0, 78, 14
1, 568240, Note_off_c, 0, 82, 53
1, 568251, Note_on_c, 0, 85, 62
1, 568288, Note_off_c, 0, 85, 59
1, 568290, Note_off_c, 0, 78, 44
1, 568346, Note_on_c, 0, 82, 33
1, 568372, Poly_aftertouch_c, 0, 78, 127
1, 568373, Note_on_c, 0, 85, 52
1, 568380, Note_off_c, 0, 82, 56
1, 568407, Note_off_c, 0, 85, 65
1, 568457, Note_on_c, 0, 82, 46
1, 568488, Note_off_c, 0, 82, 58
1, 568493, Poly_aftertouch_c, 0, 78, 0
1, 568497, Note_on_c, 0, 85, 56
1, 568518, Note_on_c, 0, 70, 44
1, 568521, Note_off_c, 0, 85, 65
1, 568540, Note_on_c, 0, 73, 46
1, 568613, Note_on_c, 0, 78, 62
1, 568618, Note_on_c, 0, 82, 39
1, 568634, Note_on_c, 0, 85, 48
1, 568637, Note_off_c, 0, 70, 60
1, 568648, Note_off_c, 0, 78, 55
1, 568661, Note_off_c, 0, 85, 56
1, 568664, Note_off_c, 0, 82, 50
1, 568667, Note_on_c, 0, 90, 64
1, 568691, Note_off_c, 0, 73, 34
1, 568708, Note_off_c, 0, 90, 63
1, 568756, Note_on_c, 0, 85, 45
1, 568776, Note_on_c, 0, 82, 28
1, 568792, Note_off_c, 0, 85, 59
1, 568795, Note_on_c, 0, 90, 70
1, 568816, Note_off_c, 0, 82, 50
1, 568837, Note_off_c, 0, 90, 62
1, 568923, Note_on_c, 0, 90, 66
1, 568943, Poly_aftertouch_c, 0, 85, 127
1, 568956, Note_off_c, 0, 90, 63
1, 568960, Poly_aftertouch_c, 0, 82, 127
1, 569047, Note_on_c, 0, 90, 69
1, 569060, Poly_aftertouch_c, 0, 85, 0
1, 569078, Poly_aftertouch_c, 0, 82, 0
1, 569085, Note_on_c, 0, 73, 51
1, 569098, Note_off_c, 0, 90, 64
1, 569126, Note_on_c, 0, 78, 49
1, 569173, Note_on_c, 0, 85, 50
1, 569179, Note_on_c, 0, 82, 60
1, 569185, Note_off_c, 0, 73, 62
1, 569212, Note_off_c, 0, 82, 65
1, 569226, Note_on_c, 0, 90, 56
1, 569229, Note_off_c, 0, 85, 58
1, 569233, Note_off_c, 0, 78, 63
1, 569262, Note_on_c, 0, 94, 63
1, 569263, Note_off_c, 0, 90, 65
1, 569312, Note_off_c, 0, 94, 62
1, 569356, Note_on_c, 0, 85, 50
1, 569384, Note_on_c, 0, 90, 46
1, 569387, Note_off_c, 0, 85, 51
1, 569400, Note_on_c, 0, 94, 69
1, 569412, Note_off_c, 0, 90, 57
1, 569445, Note_off_c, 0, 94, 60
1, 569490, Note_on_c, 0, 85, 42
1, 569513, Note_on_c, 0, 90, 46
1, 569524, Note_on_c, 0, 94, 67
1, 569566, Note_off_c, 0, 85, 38
1, 569575, Note_off_c, 0, 90, 43
1, 569575, Note_off_c, 0, 94, 64
1, 569642, Note_on_c, 0, 85, 42
1, 569666, Note_on_c, 0, 94, 54
1, 569721, Note_off_c, 0, 85, 50
1, 569782, Poly_aftertouch_c, 0, 90, 127
1, 569791, Control_c, 0, 64, 78
1, 569795, Note_off_c, 0, 94, 60
1, 569796, Note_on_c, 0, 74, 41
1, 569806, Control_c, 0, 64, 61
1, 569819, Note_on_c, 0, 77, 37
1, 569821, Control_c, 0, 64, 42
1, 569828, Note_on_c, 0, 80, 49
1, 569829, Poly_aftertouch_c, 0, 90, 0
1, 569836, Control_c, 0, 64, 0
1, 569856, Note_on_c, 0, 86, 45
1, 569895, Control_c, 0, 64, 27
1, 569910, Control_c, 0, 64, 50
1, 569925, Control_c, 0, 64, 69
1, 569927, Note_on_c, 0, 89, 57
1, 569935, Note_off_c, 0, 86, 45
1, 569940, Control_c, 0, 64, 127
1, 569980, Note_on_c, 0, 98, 67
1, 569989, Note_off_c, 0, 89, 64
1, 570026, Note_off_c, 0, 98, 61
1, 570113, Note_off_c, 0, 80, 35
1, 570113, Note_off_c, 0, 74, 45
1, 570119, Note_off_c, 0, 77, 40
1, 570120, Note_on_c, 0, 83, 48
1, 570174, Note_off_c, 0, 83, 58
1, 570238, Note_on_c, 0, 80, 45
1, 570243, Note_on_c, 0, 74, 27
1, 570251, Note_on_c, 0, 77, 34
1, 570286, Note_off_c, 0, 74, 49
1, 570290, Note_off_c, 0, 77, 50
1, 570303, Note_off_c, 0, 80, 48
1, 570309, Note_on_c, 0, 83, 50
1, 570355, Note_off_c, 0, 83, 60
1, 570396, Note_on_c, 0, 74, 44
1, 570397, Note_on_c, 0, 77, 43
1, 570403, Note_on_c, 0, 80, 23
1, 570429, Note_off_c, 0, 74, 56
1, 570435, Note_off_c, 0, 77, 49
1, 570447, Note_off_c, 0, 80, 46
1, 570464, Note_on_c, 0, 83, 52
1, 570503, Note_off_c, 0, 83, 57
1, 570538, Note_on_c, 0, 74, 40
1, 570556, Note_on_c, 0, 77, 33
1, 570558, Note_on_c, 0, 80, 30
1, 570569, Note_off_c, 0, 74, 56
1, 570589, Note_off_c, 0, 80, 50
1, 570590, Note_off_c, 0, 77, 49
1, 570605, Note_on_c, 0, 83, 49
1, 570651, Note_off_c, 0, 83, 49
1, 570678, Note_on_c, 0, 74, 39
1, 570698, Note_on_c, 0, 80, 36
1, 570703, Note_on_c, 0, 77, 33
1, 570707, Note_off_c, 0, 74, 57
1, 570730, Note_off_c, 0, 80, 52
1, 570739, Note_off_c, 0, 77, 46
1, 570749, Note_on_c, 0, 83, 53
1, 570763, Control_c, 0, 67, 122
1, 570777, Control_c, 0, 67, 97
1, 570800, Note_off_c, 0, 83, 62
1, 570800, Control_c, 0, 67, 63
1, 570815, Control_c, 0, 67, 26
1, 570829, Control_c, 0, 67, 0
1, 570830, Note_on_c, 0, 74, 37
1, 570851, Note_on_c, 0, 80, 33
1, 570855, Note_on_c, 0, 77, 27
1, 570860, Note_off_c, 0, 74, 57
1, 570887, Note_on_c, 0, 83, 61
1, 570890, Note_off_c, 0, 80, 48
1, 570901, Note_off_c, 0, 77, 40
1, 570945, Note_off_c, 0, 83, 56
1, 570976, Note_on_c, 0, 74, 36
1, 570986, Note_on_c, 0, 77, 30
1, 571004, Note_on_c, 0, 80, 28
1, 571029, Note_off_c, 0, 74, 46
1, 571029, Note_off_c, 0, 77, 50
1, 571043, Note_off_c, 0, 80, 49
1, 571046, Note_on_c, 0, 83, 54
1, 571104, Note_off_c, 0, 83, 59
1, 571107, Note_on_c, 0, 59, 64
1, 571163, Note_on_c, 0, 74, 35
1, 571166, Note_on_c, 0, 77, 22
1, 571178, Note_on_c, 0, 80, 28
1, 571206, Note_off_c, 0, 74, 49
1, 571214, Note_off_c, 0, 77, 48
1, 571217, Note_off_c, 0, 80, 49
1, 571225, Note_on_c, 0, 83, 57
1, 571286, Note_off_c, 0, 83, 57
1, 571329, Note_on_c, 0, 74, 37
1, 571343, Note_on_c, 0, 77, 29
1, 571351, Note_on_c, 0, 80, 33
1, 571373, Note_off_c, 0, 74, 60
1, 571388, Note_off_c, 0, 77, 49
1, 571389, Note_off_c, 0, 80, 48
1, 571402, Note_on_c, 0, 83, 56
1, 571459, Note_off_c, 0, 83, 55
1, 571481, Note_on_c, 0, 62, 79
1, 571500, Note_on_c, 0, 77, 44
1, 571507, Note_on_c, 0, 80, 43
1, 571509, Note_on_c, 0, 74, 37
1, 571564, Note_off_c, 0, 74, 59
1, 571580, Note_off_c, 0, 77, 47
1, 571582, Note_off_c, 0, 80, 48
1, 571587, Note_on_c, 0, 83, 52
1, 571636, Note_off_c, 0, 59, 35
1, 571656, Note_off_c, 0, 83, 61
1, 571682, Note_on_c, 0, 80, 31
1, 571697, Note_on_c, 0, 77, 27
1, 571698, Note_on_c, 0, 74, 30
1, 571735, Note_off_c, 0, 74, 53
1, 571747, Note_off_c, 0, 77, 47
1, 571752, Note_on_c, 0, 83, 50
1, 571776, Note_off_c, 0, 80, 37
1, 571819, Note_off_c, 0, 83, 54
1, 571861, Note_on_c, 0, 74, 36
1, 571868, Note_on_c, 0, 80, 43
1, 571870, Note_on_c, 0, 65, 79
1, 571871, Note_on_c, 0, 77, 40
1, 571925, Note_off_c, 0, 74, 52
1, 571943, Note_off_c, 0, 77, 40
1, 571952, Note_on_c, 0, 83, 52
1, 572019, Note_off_c, 0, 80, 0
1, 572023, Note_off_c, 0, 83, 52
1, 572036, Note_on_c, 0, 80, 26
1, 572056, Note_off_c, 0, 62, 37
1, 572065, Note_on_c, 0, 77, 38
1, 572070, Note_on_c, 0, 74, 33
1, 572109, Note_off_c, 0, 77, 48
1, 572113, Note_off_c, 0, 74, 47
1, 572119, Note_on_c, 0, 83, 40
1, 572201, Note_off_c, 0, 83, 59
1, 572230, Note_on_c, 0, 77, 37
1, 572245, Note_on_c, 0, 74, 33
1, 572282, Note_off_c, 0, 77, 44
1, 572316, Note_on_c, 0, 83, 51
1, 572354, Note_off_c, 0, 80, 38
1, 572383, Note_off_c, 0, 83, 63
1, 572395, Note_on_c, 0, 77, 56
1, 572452, Note_off_c, 0, 74, 52
1, 572493, Note_on_c, 0, 83, 47
1, 572539, Note_off_c, 0, 77, 0
1, 572575, Poly_aftertouch_c, 0, 77, 127
1, 572581, Note_on_c, 0, 73, 47
1, 572610, Note_off_c, 0, 83, 34
1, 572630, Note_on_c, 0, 70, 70
1, 572639, Control_c, 0, 64, 93
1, 572653, Control_c, 0, 64, 75
1, 572668, Control_c, 0, 64, 63
1, 572673, Note_off_c, 0, 73, 0
1, 572673, Note_on_c, 0, 73, 7
1, 572683, Control_c, 0, 64, 45
1, 572697, Control_c, 0, 64, 9
1, 572712, Control_c, 0, 64, 0
1, 572759, Note_off_c, 0, 65, 57
1, 572772, Control_c, 0, 64, 29
1, 572787, Control_c, 0, 64, 41
1, 572801, Control_c, 0, 64, 54
1, 572816, Control_c, 0, 64, 65
1, 572829, Note_on_c, 0, 83, 45
1, 572831, Control_c, 0, 64, 79
1, 572846, Control_c, 0, 64, 108
1, 572849, Note_off_c, 0, 73, 43
1, 572853, Poly_aftertouch_c, 0, 77, 0
1, 572861, Control_c, 0, 64, 127
1, 572939, Note_off_c, 0, 83, 54
1, 572965, Note_on_c, 0, 77, 41
1, 572972, Note_on_c, 0, 73, 34
1, 573064, Note_off_c, 0, 73, 37
1, 573082, Note_on_c, 0, 83, 46
1, 573085, Note_off_c, 0, 77, 32
1, 573206, Note_on_c, 0, 77, 51
1, 573224, Note_on_c, 0, 73, 31
1, 573229, Note_off_c, 0, 83, 45
1, 573268, Control_c, 0, 64, 113
1, 573283, Control_c, 0, 64, 103
1, 573297, Control_c, 0, 64, 97
1, 573312, Control_c, 0, 64, 92
1, 573327, Control_c, 0, 64, 89
1, 573342, Control_c, 0, 64, 86
1, 573357, Control_c, 0, 64, 82
1, 573371, Control_c, 0, 64, 79
1, 573386, Control_c, 0, 64, 77
1, 573401, Control_c, 0, 64, 76
1, 573402, Note_on_c, 0, 83, 42
1, 573417, Control_c, 0, 64, 74
1, 573432, Control_c, 0, 64, 73
1, 573446, Control_c, 0, 64, 70
1, 573461, Control_c, 0, 64, 69
1, 573476, Control_c, 0, 64, 67
1, 573490, Note_off_c, 0, 77, 35
1, 573491, Control_c, 0, 64, 66
1, 573506, Control_c, 0, 64, 65
1, 573520, Control_c, 0, 64, 64
1, 573535, Control_c, 0, 64, 62
1, 573550, Control_c, 0, 64, 60
1, 573565, Control_c, 0, 64, 58
1, 573568, Note_off_c, 0, 83, 43
1, 573571, Note_off_c, 0, 73, 42
1, 573581, Control_c, 0, 64, 55
1, 573595, Control_c, 0, 64, 52
1, 573610, Control_c, 0, 64, 49
1, 573625, Control_c, 0, 64, 46
1, 573639, Control_c, 0, 64, 42
1, 573654, Control_c, 0, 64, 40
1, 573669, Control_c, 0, 64, 38
1, 573684, Control_c, 0, 64, 36
1, 573699, Control_c, 0, 64, 34
1, 573714, Control_c, 0, 64, 32
1, 573728, Control_c, 0, 64, 28
1, 573743, Control_c, 0, 64, 25
1, 573758, Control_c, 0, 64, 23
1, 573773, Control_c, 0, 64, 20
1, 573795, Control_c, 0, 64, 16
1, 573810, Control_c, 0, 64, 11
1, 573825, Control_c, 0, 64, 0
1, 573928, Control_c, 0, 67, 12
1, 573943, Control_c, 0, 67, 20
1, 573958, Control_c, 0, 67, 37
1, 573973, Control_c, 0, 67, 61
1, 573988, Control_c, 0, 67, 92
1, 574003, Control_c, 0, 67, 127
1, 574018, Control_c, 0, 67, 127
1, 574165, Control_c, 0, 64, 21
1, 574180, Control_c, 0, 64, 31
1, 574195, Control_c, 0, 64, 38
1, 574211, Control_c, 0, 64, 48
1, 574226, Control_c, 0, 64, 57
1, 574241, Control_c, 0, 64, 63
1, 574256, Control_c, 0, 64, 68
1, 574270, Control_c, 0, 64, 71
1, 574285, Control_c, 0, 64, 72
1, 574300, Control_c, 0, 64, 74
1, 574315, Control_c, 0, 64, 77
1, 574330, Control_c, 0, 64, 83
1, 574344, Control_c, 0, 64, 94
1, 574359, Control_c, 0, 64, 122
1, 574374, Control_c, 0, 64, 127
1, 574538, Note_on_c, 0, 68, 43
1, 574620, Note_off_c, 0, 70, 36
1, 574677, Control_c, 0, 64, 114
1, 574692, Control_c, 0, 64, 85
1, 574703, Note_on_c, 0, 66, 49
1, 574703, Note_on_c, 0, 78, 41
1, 574707, Control_c, 0, 64, 70
1, 574722, Control_c, 0, 64, 59
1, 574732, Note_on_c, 0, 73, 25
1, 574737, Control_c, 0, 64, 41
1, 574747, Note_off_c, 0, 68, 36
1, 574751, Control_c, 0, 64, 0
1, 574796, Control_c, 0, 64, 15
1, 574811, Control_c, 0, 64, 32
1, 574825, Control_c, 0, 64, 46
1, 574840, Control_c, 0, 64, 61
1, 574855, Control_c, 0, 64, 81
1, 574870, Control_c, 0, 64, 127
1, 574896, Note_off_c, 0, 73, 45
1, 574908, Note_on_c, 0, 82, 44
1, 574916, Note_off_c, 0, 78, 43
1, 574933, Note_off_c, 0, 66, 54
1, 574972, Note_off_c, 0, 82, 44
1, 575017, Note_on_c, 0, 73, 33
1, 575040, Note_on_c, 0, 78, 35
1, 575058, Note_off_c, 0, 73, 48
1, 575070, Note_off_c, 0, 78, 55
1, 575079, Note_on_c, 0, 82, 50
1, 575124, Note_off_c, 0, 82, 55
1, 575165, Note_on_c, 0, 78, 53
1, 575192, Note_on_c, 0, 73, 7
1, 575207, Note_off_c, 0, 78, 49
1, 575232, Note_on_c, 0, 82, 48
1, 575245, Note_off_c, 0, 73, 47
1, 575276, Note_off_c, 0, 82, 51
1, 575326, Note_on_c, 0, 73, 22
1, 575329, Note_on_c, 0, 78, 31
1, 575360, Note_on_c, 0, 82, 56
1, 575362, Note_off_c, 0, 78, 45
1, 575363, Note_off_c, 0, 73, 53
1, 575385, Note_off_c, 0, 82, 64
1, 575465, Note_on_c, 0, 73, 41
1, 575473, Note_on_c, 0, 70, 45
1, 575502, Note_off_c, 0, 70, 54
1, 575510, Note_off_c, 0, 73, 60
1, 575544, Note_on_c, 0, 78, 53
1, 575581, Note_off_c, 0, 78, 50
1, 575612, Note_on_c, 0, 73, 53
1, 575614, Note_on_c, 0, 70, 33
1, 575650, Note_off_c, 0, 70, 50
1, 575651, Note_off_c, 0, 73, 59
1, 575674, Note_on_c, 0, 78, 58
1, 575733, Note_off_c, 0, 78, 60
1, 575759, Note_on_c, 0, 70, 43
1, 575759, Note_on_c, 0, 73, 45
1, 575797, Note_off_c, 0, 73, 48
1, 575823, Note_off_c, 0, 70, 43
1, 575831, Note_on_c, 0, 78, 46
1, 575881, Note_off_c, 0, 78, 53
1, 575892, Note_on_c, 0, 73, 54
1, 575899, Note_on_c, 0, 70, 33
1, 575928, Note_off_c, 0, 73, 64
1, 575931, Note_off_c, 0, 70, 53
1, 575957, Note_on_c, 0, 78, 46
1, 575980, Note_off_c, 0, 78, 58
1, 576047, Note_on_c, 0, 66, 55
1, 576062, Note_on_c, 0, 70, 43
1, 576086, Note_off_c, 0, 66, 52
1, 576097, Note_off_c, 0, 70, 53
1, 576125, Note_on_c, 0, 73, 55
1, 576159, Note_off_c, 0, 73, 55
1, 576203, Note_on_c, 0, 70, 48
1, 576212, Note_on_c, 0, 66, 13
1, 576227, Note_off_c, 0, 70, 60
1, 576251, Note_on_c, 0, 73, 50
1, 576283, Note_off_c, 0, 73, 52
1, 576303, Note_off_c, 0, 66, 0
1, 576321, Note_on_c, 0, 66, 16
1, 576325, Note_on_c, 0, 70, 52
1, 576352, Note_off_c, 0, 70, 56
1, 576370, Note_on_c, 0, 73, 55
1, 576414, Note_off_c, 0, 73, 59
1, 576453, Note_on_c, 0, 70, 48
1, 576486, Note_off_c, 0, 66, 40
1, 576489, Note_off_c, 0, 70, 49
1, 576495, Note_on_c, 0, 73, 54
1, 576531, Note_off_c, 0, 73, 53
1, 576548, Note_on_c, 0, 64, 56
1, 576602, Note_on_c, 0, 70, 46
1, 576605, Control_c, 0, 64, 93
1, 576620, Control_c, 0, 64, 65
1, 576623, Note_on_c, 0, 82, 54
1, 576624, Note_on_c, 0, 73, 56
1, 576626, Note_on_c, 0, 78, 42
1, 576635, Control_c, 0, 64, 54
1, 576650, Control_c, 0, 64, 43
1, 576654, Note_off_c, 0, 78, 57
1, 576665, Control_c, 0, 64, 44
1, 576675, Note_on_c, 0, 90, 69
1, 576680, Control_c, 0, 64, 52
1, 576680, Note_off_c, 0, 82, 63
1, 576688, Note_off_c, 0, 73, 0
1, 576688, Note_on_c, 0, 73, 20
1, 576694, Control_c, 0, 64, 63
1, 576709, Control_c, 0, 64, 81
1, 576724, Control_c, 0, 64, 127
1, 576730, Note_off_c, 0, 90, 64
1, 576758, Note_on_c, 0, 82, 51
1, 576760, Note_on_c, 0, 78, 40
1, 576799, Note_off_c, 0, 78, 53
1, 576802, Note_on_c, 0, 90, 73
1, 576812, Note_off_c, 0, 82, 60
1, 576832, Note_off_c, 0, 70, 51
1, 576870, Note_off_c, 0, 90, 65
1, 576884, Note_off_c, 0, 64, 56
1, 576892, Note_on_c, 0, 78, 45
1, 576901, Note_on_c, 0, 82, 51
1, 576909, Poly_aftertouch_c, 0, 90, 0
1, 576918, Note_on_c, 0, 90, 69
1, 576930, Note_off_c, 0, 78, 50
1, 576936, Note_off_c, 0, 82, 59
1, 576977, Note_off_c, 0, 90, 65
1, 576989, Note_off_c, 0, 73, 41
1, 577025, Note_on_c, 0, 63, 55
1, 577028, Note_on_c, 0, 82, 56
1, 577037, Note_on_c, 0, 78, 29
1, 577054, Note_on_c, 0, 90, 65
1, 577067, Note_off_c, 0, 78, 50
1, 577087, Note_off_c, 0, 82, 60
1, 577117, Control_c, 0, 64, 74
1, 577121, Note_on_c, 0, 69, 42
1, 577121, Note_on_c, 0, 72, 47
1, 577131, Control_c, 0, 64, 58
1, 577133, Note_off_c, 0, 63, 62
1, 577146, Control_c, 0, 64, 39
1, 577161, Control_c, 0, 64, 0
1, 577187, Note_off_c, 0, 90, 59
1, 577190, Control_c, 0, 64, 9
1, 577205, Control_c, 0, 64, 32
1, 577220, Control_c, 0, 64, 48
1, 577223, Note_on_c, 0, 78, 66
1, 577235, Control_c, 0, 64, 65
1, 577249, Note_on_c, 0, 81, 44
1, 577250, Control_c, 0, 64, 127
1, 577261, Note_on_c, 0, 84, 50
1, 577263, Note_off_c, 0, 69, 52
1, 577293, Note_off_c, 0, 78, 65
1, 577294, Note_off_c, 0, 72, 59
1, 577294, Note_off_c, 0, 81, 44
1, 577315, Note_off_c, 0, 84, 54
1, 577318, Note_on_c, 0, 93, 59
1, 577357, Note_off_c, 0, 93, 54
1, 577413, Note_on_c, 0, 81, 39
1, 577426, Note_on_c, 0, 84, 41
1, 577445, Note_off_c, 0, 81, 56
1, 577449, Note_on_c, 0, 93, 70
1, 577461, Note_off_c, 0, 84, 48
1, 577500, Note_off_c, 0, 93, 62
1, 577553, Note_on_c, 0, 84, 44
1, 577556, Note_on_c, 0, 81, 37
1, 577587, Note_off_c, 0, 81, 56
1, 577590, Note_on_c, 0, 93, 72
1, 577605, Note_off_c, 0, 84, 45
1, 577645, Note_off_c, 0, 93, 57
1, 577674, Note_on_c, 0, 81, 55
1, 577680, Note_on_c, 0, 84, 49
1, 577714, Note_off_c, 0, 81, 56
1, 577731, Note_on_c, 0, 93, 69
1, 577741, Note_off_c, 0, 84, 56
1, 577783, Note_off_c, 0, 93, 61
1, 577811, Note_on_c, 0, 84, 44
1, 577812, Note_on_c, 0, 81, 58
1, 577844, Note_off_c, 0, 81, 59
1, 577866, Note_on_c, 0, 93, 66
1, 577916, Note_off_c, 0, 84, 0
1, 577918, Note_off_c, 0, 93, 55
1, 577941, Note_on_c, 0, 84, 24
1, 577946, Note_on_c, 0, 81, 51
1, 577982, Note_off_c, 0, 81, 49
1, 577998, Note_on_c, 0, 93, 67
1, 578053, Note_off_c, 0, 93, 59
1, 578077, Note_off_c, 0, 84, 0
1, 578089, Note_on_c, 0, 81, 39
1, 578113, Poly_aftertouch_c, 0, 84, 127
1, 578127, Note_off_c, 0, 81, 50
1, 578134, Note_on_c, 0, 93, 62
1, 578174, Poly_aftertouch_c, 0, 84, 0
1, 578196, Note_off_c, 0, 93, 59
1, 578244, Note_on_c, 0, 81, 26
1, 578259, Poly_aftertouch_c, 0, 84, 127
1, 578261, Note_on_c, 0, 93, 58
1, 578289, Note_off_c, 0, 81, 54
1, 578295, Note_off_c, 0, 93, 56
1, 578296, Note_on_c, 0, 63, 47
1, 578314, Note_on_c, 0, 69, 46
1, 578315, Poly_aftertouch_c, 0, 84, 0
1, 578389, Note_on_c, 0, 79, 48
1, 578390, Note_on_c, 0, 71, 54
1, 578392, Control_c, 0, 64, 90
1, 578407, Control_c, 0, 64, 65
1, 578422, Control_c, 0, 64, 48
1, 578429, Note_off_c, 0, 79, 47
1, 578432, Note_on_c, 0, 83, 42
1, 578436, Control_c, 0, 64, 28
1, 578438, Note_on_c, 0, 91, 63
1, 578451, Control_c, 0, 64, 25
1, 578461, Note_off_c, 0, 83, 55
1, 578466, Control_c, 0, 64, 34
1, 578481, Control_c, 0, 64, 46
1, 578488, Note_off_c, 0, 91, 58
1, 578496, Control_c, 0, 64, 60
1, 578510, Control_c, 0, 64, 83
1, 578525, Note_on_c, 0, 79, 59
1, 578525, Control_c, 0, 64, 127
1, 578549, Note_on_c, 0, 83, 52
1, 578561, Note_off_c, 0, 79, 51
1, 578574, Note_on_c, 0, 91, 65
1, 578584, Note_off_c, 0, 83, 62
1, 578626, Note_off_c, 0, 91, 58
1, 578675, Note_on_c, 0, 83, 52
1, 578677, Note_on_c, 0, 79, 43
1, 578705, Note_off_c, 0, 79, 55
1, 578706, Note_on_c, 0, 91, 62
1, 578715, Note_off_c, 0, 83, 64
1, 578731, Note_off_c, 0, 63, 43
1, 578770, Note_off_c, 0, 91, 58
1, 578784, Note_off_c, 0, 69, 44
1, 578789, Note_on_c, 0, 79, 62
1, 578817, Note_off_c, 0, 71, 37
1, 578831, Note_off_c, 0, 79, 56
1, 578847, Note_on_c, 0, 91, 56
1, 578881, Note_on_c, 0, 63, 50
1, 578900, Note_on_c, 0, 69, 48
1, 578900, Note_off_c, 0, 91, 58
1, 578925, Control_c, 0, 64, 69
1, 578940, Control_c, 0, 64, 53
1, 578948, Note_on_c, 0, 84, 37
1, 578948, Note_on_c, 0, 78, 69
1, 578954, Control_c, 0, 64, 27
1, 578955, Note_on_c, 0, 72, 56
1, 578969, Control_c, 0, 64, 13
1, 578972, Note_off_c, 0, 78, 56
1, 578984, Control_c, 0, 64, 28
1, 578996, Note_on_c, 0, 90, 71
1, 578999, Control_c, 0, 64, 40
1, 579015, Control_c, 0, 64, 55
1, 579037, Control_c, 0, 64, 70
1, 579052, Control_c, 0, 64, 127
1, 579060, Note_off_c, 0, 90, 65
1, 579073, Note_on_c, 0, 78, 61
1, 579086, Note_off_c, 0, 84, 0
1, 579103, Note_on_c, 0, 84, 35
1, 579122, Note_off_c, 0, 78, 60
1, 579130, Note_on_c, 0, 90, 65
1, 579157, Note_off_c, 0, 84, 58
1, 579184, Note_off_c, 0, 90, 66
1, 579216, Note_on_c, 0, 78, 64
1, 579252, Note_off_c, 0, 78, 53
1, 579256, Note_on_c, 0, 90, 65
1, 579267, Note_on_c, 0, 84, 16
1, 579271, Note_off_c, 0, 63, 62
1, 579287, Note_off_c, 0, 72, 40
1, 579309, Note_off_c, 0, 90, 66
1, 579324, Note_off_c, 0, 69, 33
1, 579335, Note_off_c, 0, 84, 0
1, 579335, Note_on_c, 0, 84, 24
1, 579348, Note_on_c, 0, 78, 50
1, 579384, Note_on_c, 0, 90, 57
1, 579407, Note_off_c, 0, 78, 50
1, 579419, Note_on_c, 0, 64, 55
1, 579421, Note_off_c, 0, 84, 55
1, 579424, Note_off_c, 0, 90, 67
1, 579452, Control_c, 0, 64, 67
1, 579461, Note_on_c, 0, 69, 45
1, 579467, Control_c, 0, 64, 45
1, 579482, Control_c, 0, 64, 27
1, 579497, Control_c, 0, 64, 35
1, 579499, Note_on_c, 0, 73, 66
1, 579506, Note_off_c, 0, 64, 63
1, 579507, Note_on_c, 0, 76, 51
1, 579511, Control_c, 0, 64, 49
1, 579526, Control_c, 0, 64, 65
1, 579532, Note_off_c, 0, 73, 63
1, 579537, Note_on_c, 0, 85, 47
1, 579541, Control_c, 0, 64, 127
1, 579545, Note_off_c, 0, 69, 64
1, 579546, Note_off_c, 0, 76, 53
1, 579556, Note_on_c, 0, 88, 65
1, 579561, Note_off_c, 0, 85, 59
1, 579604, Note_off_c, 0, 88, 65
1, 579645, Note_on_c, 0, 85, 55
1, 579646, Note_on_c, 0, 76, 56
1, 579672, Note_off_c, 0, 76, 55
1, 579688, Note_off_c, 0, 85, 59
1, 579691, Note_on_c, 0, 88, 68
1, 579744, Note_off_c, 0, 88, 61
1, 579771, Note_on_c, 0, 76, 56
1, 579808, Note_on_c, 0, 85, 45
1, 579815, Note_off_c, 0, 76, 56
1, 579824, Note_on_c, 0, 88, 60
1, 579831, Note_off_c, 0, 85, 59
1, 579866, Note_off_c, 0, 88, 64
1, 579911, Note_on_c, 0, 85, 56
1, 579913, Note_on_c, 0, 76, 48
1, 579935, Note_off_c, 0, 76, 61
1, 579943, Note_off_c, 0, 85, 66
1, 579953, Note_on_c, 0, 69, 48
1, 579956, Note_on_c, 0, 88, 40
1, 579981, Note_off_c, 0, 88, 61
1, 579983, Note_on_c, 0, 73, 45
1, 580025, Note_on_c, 0, 76, 67
1, 580045, Note_off_c, 0, 69, 65
1, 580060, Note_off_c, 0, 76, 65
1, 580060, Note_on_c, 0, 85, 63
1, 580064, Note_on_c, 0, 81, 46
1, 580078, Note_off_c, 0, 73, 61
1, 580090, Note_off_c, 0, 81, 58
1, 580101, Note_off_c, 0, 85, 59
1, 580102, Note_on_c, 0, 93, 70
1, 580149, Note_off_c, 0, 93, 63
1, 580185, Note_on_c, 0, 81, 46
1, 580203, Note_on_c, 0, 85, 49
1, 580210, Note_off_c, 0, 81, 60
1, 580227, Note_off_c, 0, 85, 60
1, 580230, Note_on_c, 0, 93, 72
1, 580273, Note_off_c, 0, 93, 60
1, 580307, Note_on_c, 0, 81, 49
1, 580314, Note_on_c, 0, 85, 52
1, 580344, Note_on_c, 0, 93, 71
1, 580346, Note_off_c, 0, 81, 56
1, 580357, Note_off_c, 0, 85, 63
1, 580395, Note_off_c, 0, 93, 63
1, 580436, Note_on_c, 0, 81, 64
1, 580450, Note_on_c, 0, 85, 52
1, 580467, Note_off_c, 0, 81, 64
1, 580472, Note_on_c, 0, 93, 64
1, 580486, Note_off_c, 0, 85, 65
1, 580501, Note_on_c, 0, 73, 49
1, 580506, Note_off_c, 0, 93, 64
1, 580522, Note_on_c, 0, 76, 55
1, 580565, Note_on_c, 0, 81, 71
1, 580588, Note_on_c, 0, 85, 69
1, 580604, Note_on_c, 0, 88, 64
1, 580611, Note_off_c, 0, 81, 62
1, 580612, Note_off_c, 0, 76, 64
1, 580612, Note_off_c, 0, 73, 61
1, 580621, Note_off_c, 0, 85, 63
1, 580653, Note_off_c, 0, 88, 63
1, 580655, Note_on_c, 0, 97, 70
1, 580700, Note_off_c, 0, 97, 61
1, 580725, Note_on_c, 0, 85, 61
1, 580735, Note_on_c, 0, 88, 49
1, 580752, Note_off_c, 0, 85, 55
1, 580777, Note_on_c, 0, 97, 69
1, 580792, Note_off_c, 0, 88, 50
1, 580819, Note_off_c, 0, 97, 55
1, 580841, Note_on_c, 0, 88, 41
1, 580843, Note_on_c, 0, 85, 49
1, 580877, Note_off_c, 0, 85, 54
1, 580904, Note_on_c, 0, 97, 65
1, 580912, Note_off_c, 0, 88, 63
1, 580936, Note_off_c, 0, 97, 64
1, 580978, Note_on_c, 0, 85, 51
1, 580981, Note_on_c, 0, 88, 38
1, 581015, Note_on_c, 0, 76, 55
1, 581020, Note_on_c, 0, 97, 72
1, 581020, Note_off_c, 0, 85, 50
1, 581024, Note_off_c, 0, 88, 67
1, 581064, Note_off_c, 0, 97, 55
1, 581072, Note_on_c, 0, 81, 57
1, 581107, Note_off_c, 0, 76, 63
1, 581118, Note_on_c, 0, 85, 73
1, 581137, Note_on_c, 0, 88, 61
1, 581154, Note_off_c, 0, 81, 63
1, 581166, Note_off_c, 0, 85, 61
1, 581177, Note_on_c, 0, 93, 58
1, 581177, Note_off_c, 0, 88, 61
1, 581208, Note_on_c, 0, 100, 67
1, 581236, Note_off_c, 0, 93, 60
1, 581257, Note_off_c, 0, 100, 64
1, 581294, Note_on_c, 0, 88, 66
1, 581334, Note_off_c, 0, 88, 59
1, 581353, Note_on_c, 0, 100, 69
1, 581363, Note_on_c, 0, 93, 36
1, 581402, Note_off_c, 0, 93, 46
1, 581402, Note_off_c, 0, 100, 66
1, 581436, Note_on_c, 0, 88, 65
1, 581484, Note_on_c, 0, 100, 71
1, 581493, Note_off_c, 0, 88, 61
1, 581533, Note_off_c, 0, 100, 66
1, 581573, Note_on_c, 0, 88, 60
1, 581624, Note_on_c, 0, 93, 34
1, 581630, Note_on_c, 0, 100, 60
1, 581637, Note_off_c, 0, 88, 64
1, 581730, Note_off_c, 0, 93, 36
1, 581741, Note_on_c, 0, 74, 45
1, 581744, Note_on_c, 0, 77, 49
1, 581746, Note_on_c, 0, 80, 49
1, 581758, Control_c, 0, 64, 71
1, 581771, Note_off_c, 0, 100, 36
1, 581773, Control_c, 0, 64, 55
1, 581787, Control_c, 0, 64, 24
1, 581798, Note_on_c, 0, 89, 56
1, 581802, Control_c, 0, 64, 0
1, 581860, Control_c, 0, 64, 8
1, 581867, Note_on_c, 0, 92, 73
1, 581869, Note_off_c, 0, 89, 57
1, 581875, Control_c, 0, 64, 38
1, 581890, Control_c, 0, 64, 58
1, 581905, Control_c, 0, 64, 110
1, 581920, Control_c, 0, 64, 127
1, 581922, Note_off_c, 0, 92, 66
1, 581933, Note_on_c, 0, 101, 78
1, 581977, Note_off_c, 0, 101, 65
1, 582060, Control_c, 0, 67, 119
1, 582072, Note_off_c, 0, 74, 50
1, 582075, Control_c, 0, 67, 97
1, 582081, Note_on_c, 0, 83, 54
1, 582090, Control_c, 0, 67, 73
1, 582093, Note_off_c, 0, 77, 30
1, 582105, Control_c, 0, 67, 48
1, 582111, Note_off_c, 0, 80, 40
1, 582120, Control_c, 0, 67, 21
1, 582135, Control_c, 0, 67, 0
1, 582150, Note_off_c, 0, 83, 53
1, 582214, Note_on_c, 0, 74, 39
1, 582220, Note_on_c, 0, 80, 40
1, 582228, Note_on_c, 0, 77, 33
1, 582249, Note_off_c, 0, 74, 56
1, 582264, Note_off_c, 0, 80, 45
1, 582266, Note_off_c, 0, 77, 51
1, 582282, Note_on_c, 0, 83, 60
1, 582346, Note_off_c, 0, 83, 55
1, 582364, Note_on_c, 0, 74, 44
1, 582368, Note_on_c, 0, 77, 44
1, 582381, Note_on_c, 0, 80, 45
1, 582403, Note_off_c, 0, 77, 52
1, 582404, Note_off_c, 0, 74, 65
1, 582412, Note_off_c, 0, 80, 51
1, 582432, Note_on_c, 0, 83, 55
1, 582479, Note_off_c, 0, 83, 60
1, 582514, Note_on_c, 0, 74, 36
1, 582521, Note_on_c, 0, 80, 39
1, 582526, Note_on_c, 0, 77, 21
1, 582543, Note_off_c, 0, 74, 56
1, 582549, Note_off_c, 0, 80, 54
1, 582562, Note_on_c, 0, 83, 54
1, 582582, Note_off_c, 0, 77, 36
1, 582607, Note_off_c, 0, 83, 61
1, 582636, Note_on_c, 0, 74, 47
1, 582636, Note_on_c, 0, 77, 29
1, 582656, Note_on_c, 0, 80, 36
1, 582660, Note_off_c, 0, 74, 64
1, 582677, Note_off_c, 0, 77, 50
1, 582686, Note_off_c, 0, 80, 52
1, 582689, Note_on_c, 0, 83, 51
1, 582736, Note_off_c, 0, 83, 60
1, 582747, Note_on_c, 0, 74, 53
1, 582786, Note_on_c, 0, 77, 43
1, 582795, Note_off_c, 0, 74, 60
1, 582796, Note_on_c, 0, 80, 38
1, 582815, Note_off_c, 0, 77, 55
1, 582826, Note_off_c, 0, 80, 53
1, 582829, Note_on_c, 0, 83, 54
1, 582874, Note_off_c, 0, 83, 62
1, 582910, Note_on_c, 0, 77, 47
1, 582911, Note_on_c, 0, 74, 41
1, 582926, Note_on_c, 0, 80, 40
1, 582937, Note_off_c, 0, 74, 57
1, 582938, Note_off_c, 0, 77, 57
1, 582954, Note_off_c, 0, 80, 54
1, 582955, Note_on_c, 0, 83, 57
1, 583015, Note_off_c, 0, 83, 62
1, 583023, Note_on_c, 0, 74, 50
1, 583033, Note_on_c, 0, 77, 50
1, 583053, Note_on_c, 0, 80, 46
1, 583065, Note_off_c, 0, 74, 59
1, 583083, Note_off_c, 0, 77, 46
1, 583096, Note_off_c, 0, 80, 44
1, 583100, Note_on_c, 0, 83, 54
1, 583160, Note_off_c, 0, 83, 57
1, 583199, Note_on_c, 0, 74, 46
1, 583219, Note_on_c, 0, 80, 45
1, 583222, Note_on_c, 0, 77, 41
1, 583223, Note_on_c, 0, 62, 72
1, 583264, Note_off_c, 0, 74, 51
1, 583271, Note_off_c, 0, 77, 44
1, 583273, Note_off_c, 0, 80, 45
1, 583288, Note_on_c, 0, 83, 53
1, 583338, Note_off_c, 0, 83, 57
1, 583399, Note_on_c, 0, 77, 39
1, 583399, Note_on_c, 0, 80, 41
1, 583403, Note_on_c, 0, 74, 44
1, 583433, Note_off_c, 0, 74, 60
1, 583443, Note_off_c, 0, 77, 47
1, 583443, Note_off_c, 0, 80, 45
1, 583458, Note_on_c, 0, 83, 58
1, 583542, Note_off_c, 0, 83, 57
1, 583562, Note_on_c, 0, 74, 48
1, 583562, Note_on_c, 0, 80, 49
1, 583564, Note_on_c, 0, 77, 46
1, 583612, Note_on_c, 0, 65, 83
1, 583632, Note_off_c, 0, 74, 60
1, 583648, Note_on_c, 0, 83, 63
1, 583649, Note_off_c, 0, 80, 51
1, 583650, Note_off_c, 0, 77, 37
1, 583682, Note_off_c, 0, 62, 57
1, 583725, Note_off_c, 0, 83, 61
1, 583758, Note_on_c, 0, 74, 49
1, 583764, Note_on_c, 0, 77, 48
1, 583765, Note_on_c, 0, 80, 49
1, 583800, Note_off_c, 0, 74, 60
1, 583812, Note_off_c, 0, 77, 47
1, 583812, Note_off_c, 0, 80, 49
1, 583822, Note_on_c, 0, 83, 65
1, 583921, Note_off_c, 0, 83, 59
1, 583926, Note_on_c, 0, 80, 65
1, 583931, Note_on_c, 0, 74, 46
1, 583932, Note_on_c, 0, 77, 55
1, 583994, Note_off_c, 0, 74, 52
1, 584004, Note_off_c, 0, 77, 61
1, 584004, Note_off_c, 0, 80, 59
1, 584013, Note_on_c, 0, 83, 60
1, 584051, Note_on_c, 0, 68, 87
1, 584084, Note_off_c, 0, 83, 63
1, 584093, Note_on_c, 0, 77, 47
1, 584095, Note_on_c, 0, 74, 55
1, 584102, Note_on_c, 0, 80, 45
1, 584121, Note_off_c, 0, 65, 62
1, 584143, Note_off_c, 0, 80, 51
1, 584145, Note_off_c, 0, 77, 59
1, 584156, Note_off_c, 0, 74, 62
1, 584161, Note_on_c, 0, 83, 59
1, 584234, Note_off_c, 0, 83, 62
1, 584256, Note_on_c, 0, 80, 50
1, 584262, Note_on_c, 0, 77, 52
1, 584263, Note_on_c, 0, 74, 47
1, 584308, Note_off_c, 0, 77, 52
1, 584309, Note_off_c, 0, 74, 65
1, 584314, Note_off_c, 0, 80, 44
1, 584323, Note_on_c, 0, 83, 62
1, 584401, Note_off_c, 0, 83, 62
1, 584412, Note_on_c, 0, 74, 49
1, 584414, Note_on_c, 0, 77, 57
1, 584418, Note_on_c, 0, 80, 61
1, 584474, Note_off_c, 0, 74, 51
1, 584478, Note_off_c, 0, 77, 53
1, 584487, Note_on_c, 0, 83, 59
1, 584492, Note_off_c, 0, 80, 50
1, 584569, Note_off_c, 0, 83, 63
1, 584584, Note_on_c, 0, 80, 51
1, 584585, Note_on_c, 0, 74, 54
1, 584597, Note_on_c, 0, 77, 56
1, 584671, Note_off_c, 0, 74, 61
1, 584671, Note_off_c, 0, 77, 56
1, 584674, Note_on_c, 0, 83, 64
1, 584704, Note_off_c, 0, 80, 38
1, 584716, Note_on_c, 0, 73, 90
1, 584762, Note_off_c, 0, 68, 57
1, 584785, Note_off_c, 0, 83, 60
1, 584798, Note_on_c, 0, 80, 44
1, 584805, Note_on_c, 0, 74, 48
1, 584807, Note_on_c, 0, 77, 56
1, 584863, Note_off_c, 0, 77, 48
1, 584868, Note_off_c, 0, 74, 49
1, 584892, Note_on_c, 0, 83, 59
1, 584901, Note_off_c, 0, 80, 37
1, 584964, Note_off_c, 0, 83, 60
1, 584992, Note_on_c, 0, 80, 44
1, 584994, Note_on_c, 0, 77, 45
1, 585026, Note_on_c, 0, 74, 37
1, 585065, Note_off_c, 0, 77, 39
1, 585065, Note_off_c, 0, 80, 48
1, 585068, Note_off_c, 0, 74, 47
1, 585080, Note_on_c, 0, 83, 59
1, 585169, Note_off_c, 0, 83, 61
1, 585184, Note_on_c, 0, 80, 57
1, 585192, Note_on_c, 0, 77, 54
1, 585196, Note_on_c, 0, 74, 47
1, 585286, Note_off_c, 0, 77, 59
1, 585321, Note_on_c, 0, 83, 66
1, 585334, Note_off_c, 0, 80, 54
1, 585384, Note_off_c, 0, 74, 61
1, 585395, Note_off_c, 0, 83, 63
1, 585680, Control_c, 0, 64, 119
1, 585694, Control_c, 0, 64, 96
1, 585709, Control_c, 0, 64, 82
1, 585724, Control_c, 0, 64, 70
1, 585739, Control_c, 0, 64, 62
1, 585753, Control_c, 0, 64, 51
1, 585776, Control_c, 0, 64, 29
1, 585791, Control_c, 0, 64, 0
1, 586281, Control_c, 0, 64, 23
1, 586296, Control_c, 0, 64, 37
1, 586310, Control_c, 0, 64, 50
1, 586324, Control_c, 0, 64, 63
1, 586339, Control_c, 0, 64, 106
1, 586354, Control_c, 0, 64, 127
1, 586755, Note_off_c, 0, 73, 28
1, 587146, Note_on_c, 0, 71, 64
1, 587176, Note_off_c, 0, 71, 66
1, 587304, Control_c, 0, 64, 75
1, 587318, Control_c, 0, 64, 44
1, 587333, Control_c, 0, 64, 0
1, 587363, Control_c, 0, 64, 33
1, 587365, Note_on_c, 0, 57, 94
1, 587366, Note_on_c, 0, 69, 101
1, 587366, Note_on_c, 0, 73, 92
1, 587367, Note_on_c, 0, 81, 101
1, 587368, Note_on_c, 0, 52, 93
1, 587372, Note_on_c, 0, 45, 83
1, 587378, Control_c, 0, 64, 62
1, 587383, Note_off_c, 0, 69, 73
1, 587383, Note_off_c, 0, 81, 74
1, 587384, Note_off_c, 0, 57, 70
1, 587385, Note_off_c, 0, 73, 72
1, 587392, Note_off_c, 0, 52, 70
1, 587392, Control_c, 0, 64, 127
1, 587396, Note_off_c, 0, 45, 67
1, 587733, Note_on_c, 0, 44, 67
1, 587736, Note_on_c, 0, 32, 63
1, 587736, Note_on_c, 0, 56, 71
1, 587749, Note_on_c, 0, 68, 52
1, 587766, Note_off_c, 0, 56, 66
1, 587769, Note_off_c, 0, 44, 63
1, 587769, Note_off_c, 0, 32, 64
1, 587772, Note_off_c, 0, 68, 58
1, 587854, Note_on_c, 0, 33, 69
1, 587858, Note_on_c, 0, 69, 70
1, 587862, Note_on_c, 0, 45, 60
1, 587867, Note_on_c, 0, 57, 55
1, 587879, Note_off_c, 0, 69, 73
1, 587880, Note_off_c, 0, 45, 66
1, 587882, Note_off_c, 0, 33, 67
1, 587884, Note_off_c, 0, 57, 66
1, 587965, Note_on_c, 0, 37, 72
1, 587968, Note_on_c, 0, 49, 75
1, 587970, Note_on_c, 0, 61, 81
1, 587977, Note_on_c, 0, 73, 64
1, 587992, Note_off_c, 0, 61, 72
1, 587993, Note_off_c, 0, 37, 65
1, 587995, Note_off_c, 0, 49, 69
1, 587998, Note_off_c, 0, 73, 68
1, 588086, Note_on_c, 0, 64, 84
1, 588089, Note_on_c, 0, 76, 82
1, 588091, Note_on_c, 0, 52, 69
1, 588095, Note_on_c, 0, 40, 56
1, 588104, Note_off_c, 0, 64, 72
1, 588107, Note_off_c, 0, 76, 73
1, 588108, Note_off_c, 0, 52, 68
1, 588125, Note_off_c, 0, 40, 56
1, 588193, Note_on_c, 0, 56, 85
1, 588195, Note_on_c, 0, 44, 75
1, 588199, Note_on_c, 0, 68, 91
1, 588204, Note_on_c, 0, 80, 78
1, 588216, Note_off_c, 0, 68, 71
1, 588217, Note_off_c, 0, 56, 65
1, 588222, Note_off_c, 0, 44, 62
1, 588225, Note_off_c, 0, 80, 67
1, 588302, Note_on_c, 0, 45, 80
1, 588303, Note_on_c, 0, 57, 83
1, 588305, Note_on_c, 0, 69, 88
1, 588306, Note_on_c, 0, 81, 91
1, 588321, Note_off_c, 0, 69, 76
1, 588325, Note_off_c, 0, 57, 68
1, 588327, Note_off_c, 0, 45, 69
1, 588327, Note_off_c, 0, 81, 69
1, 588406, Note_on_c, 0, 61, 92
1, 588411, Note_on_c, 0, 49, 80
1, 588415, Note_on_c, 0, 73, 90
1, 588417, Note_on_c, 0, 85, 82
1, 588434, Note_off_c, 0, 61, 57
1, 588439, Note_off_c, 0, 73, 63
1, 588439, Note_off_c, 0, 85, 62
1, 588442, Note_off_c, 0, 49, 66
1, 588522, Note_on_c, 0, 52, 82
1, 588522, Note_on_c, 0, 64, 80
1, 588523, Note_on_c, 0, 76, 96
1, 588528, Note_on_c, 0, 88, 92
1, 588538, Note_off_c, 0, 76, 77
1, 588541, Control_c, 0, 64, 74
1, 588541, Note_off_c, 0, 64, 71
1, 588542, Note_off_c, 0, 52, 73
1, 588543, Note_off_c, 0, 88, 74
1, 588556, Control_c, 0, 64, 40
1, 588570, Control_c, 0, 64, 0
1, 588642, Note_on_c, 0, 80, 87
1, 588643, Note_on_c, 0, 92, 92
1, 588683, Note_off_c, 0, 80, 65
1, 588683, Note_off_c, 0, 92, 65
1, 588734, Control_c, 0, 64, 41
1, 588740, Note_on_c, 0, 58, 102
1, 588745, Note_on_c, 0, 81, 104
1, 588745, Note_on_c, 0, 86, 87
1, 588746, Note_on_c, 0, 50, 81
1, 588749, Note_on_c, 0, 93, 105
1, 588749, Control_c, 0, 64, 127
1, 588750, Note_on_c, 0, 46, 91
1, 588769, Note_off_c, 0, 93, 76
1, 588776, Note_off_c, 0, 50, 69
1, 588776, Note_off_c, 0, 58, 62
1, 588777, Note_off_c, 0, 86, 63
1, 588779, Note_off_c, 0, 81, 69
1, 588784, Note_off_c, 0, 46, 69
1, 588797, Note_on_c, 0, 92, 33
1, 588798, Note_off_c, 0, 92, 127
1, 589086, Note_on_c, 0, 33, 66
1, 589089, Note_on_c, 0, 45, 61
1, 589090, Note_on_c, 0, 57, 64
1, 589091, Note_on_c, 0, 69, 63
1, 589111, Note_off_c, 0, 57, 65
1, 589111, Note_off_c, 0, 69, 69
1, 589113, Note_off_c, 0, 45, 62
1, 589117, Note_off_c, 0, 33, 64
1, 589193, Note_on_c, 0, 46, 77
1, 589194, Note_on_c, 0, 34, 68
1, 589202, Note_on_c, 0, 58, 72
1, 589210, Note_on_c, 0, 70, 56
1, 589217, Note_off_c, 0, 46, 70
1, 589223, Note_off_c, 0, 58, 72
1, 589229, Note_off_c, 0, 34, 66
1, 589230, Note_off_c, 0, 70, 61
1, 589307, Note_on_c, 0, 50, 76
1, 589307, Note_on_c, 0, 62, 74
1, 589309, Note_on_c, 0, 38, 74
1, 589310, Note_on_c, 0, 74, 75
1, 589328, Note_off_c, 0, 74, 74
1, 589329, Note_off_c, 0, 50, 67
1, 589331, Note_off_c, 0, 62, 69
1, 589341, Note_off_c, 0, 38, 65
1, 589417, Note_on_c, 0, 53, 82
1, 589418, Note_on_c, 0, 65, 86
1, 589420, Note_on_c, 0, 41, 78
1, 589421, Note_on_c, 0, 77, 89
1, 589437, Note_off_c, 0, 65, 75
1, 589441, Note_off_c, 0, 53, 71
1, 589441, Note_off_c, 0, 77, 70
1, 589447, Note_off_c, 0, 41, 69
1, 589533, Note_on_c, 0, 57, 89
1, 589535, Note_on_c, 0, 45, 82
1, 589536, Note_on_c, 0, 69, 88
1, 589537, Note_on_c, 0, 81, 90
1, 589554, Note_off_c, 0, 57, 71
1, 589555, Note_off_c, 0, 69, 73
1, 589557, Note_off_c, 0, 45, 70
1, 589558, Note_off_c, 0, 81, 70
1, 589637, Note_on_c, 0, 58, 86
1, 589640, Note_on_c, 0, 70, 98
1, 589647, Note_on_c, 0, 46, 68
1, 589647, Note_on_c, 0, 82, 83
1, 589655, Note_off_c, 0, 58, 72
1, 589667, Note_off_c, 0, 82, 69
1, 589672, Poly_aftertouch_c, 0, 45, 0
1, 589676, Note_off_c, 0, 46, 66
1, 589677, Note_off_c, 0, 70, 59
1, 589694, Poly_aftertouch_c, 0, 45, 0
1, 589748, Note_on_c, 0, 74, 92
1, 589753, Note_on_c, 0, 62, 70
1, 589754, Note_on_c, 0, 50, 69
1, 589757, Note_on_c, 0, 86, 88
1, 589770, Note_off_c, 0, 74, 66
1, 589773, Note_off_c, 0, 62, 66
1, 589773, Note_off_c, 0, 50, 65
1, 589781, Note_off_c, 0, 86, 65
1, 589855, Note_on_c, 0, 77, 103
1, 589858, Note_on_c, 0, 65, 66
1, 589861, Note_on_c, 0, 89, 94
1, 589867, Note_on_c, 0, 52, 62
1, 589873, Note_on_c, 0, 53, 44
1, 589875, Note_off_c, 0, 65, 69
1, 589884, Note_off_c, 0, 77, 67
1, 589885, Note_off_c, 0, 89, 66
1, 589889, Note_off_c, 0, 52, 62
1, 589896, Note_on_c, 0, 64, 17
1, 589898, Note_off_c, 0, 53, 60
1, 589920, Control_c, 0, 64, 60
1, 589935, Control_c, 0, 64, 0
1, 589936, Note_off_c, 0, 64, 53
1, 589968, Note_on_c, 0, 92, 89
1, 589971, Note_on_c, 0, 80, 88
1, 589996, Note_off_c, 0, 80, 62
1, 590010, Note_off_c, 0, 92, 64
1, 590068, Note_on_c, 0, 59, 98
1, 590068, Control_c, 0, 64, 127
1, 590071, Note_on_c, 0, 81, 114
1, 590073, Note_on_c, 0, 93, 102
1, 590074, Note_on_c, 0, 51, 92
1, 590075, Note_on_c, 0, 47, 100
1, 590075, Note_on_c, 0, 87, 100
1, 590084, Note_off_c, 0, 59, 74
1, 590087, Note_off_c, 0, 93, 74
1, 590090, Note_off_c, 0, 87, 72
1, 590091, Note_on_c, 0, 92, 60
1, 590092, Note_off_c, 0, 51, 73
1, 590094, Note_off_c, 0, 81, 71
1, 590097, Note_off_c, 0, 47, 71
1, 590111, Note_off_c, 0, 92, 39
1, 590377, Note_on_c, 0, 34, 70
1, 590380, Note_on_c, 0, 46, 65
1, 590388, Note_on_c, 0, 58, 71
1, 590391, Note_on_c, 0, 70, 63
1, 590411, Note_off_c, 0, 34, 65
1, 590412, Note_off_c, 0, 46, 66
1, 590414, Note_off_c, 0, 58, 66
1, 590415, Note_off_c, 0, 70, 66
1, 590490, Note_on_c, 0, 35, 73
1, 590492, Note_on_c, 0, 47, 75
1, 590500, Note_on_c, 0, 59, 64
1, 590505, Note_on_c, 0, 71, 56
1, 590515, Note_off_c, 0, 59, 69
1, 590517, Note_off_c, 0, 47, 68
1, 590519, Note_off_c, 0, 35, 65
1, 590526, Note_off_c, 0, 71, 66
1, 590602, Note_on_c, 0, 39, 73
1, 590604, Note_on_c, 0, 51, 81
1, 590608, Note_on_c, 0, 63, 84
1, 590618, Note_on_c, 0, 75, 61
1, 590624, Note_off_c, 0, 51, 75
1, 590629, Note_off_c, 0, 63, 68
1, 590635, Note_off_c, 0, 39, 63
1, 590637, Note_off_c, 0, 75, 65
1, 590714, Note_on_c, 0, 54, 79
1, 590720, Note_on_c, 0, 66, 85
1, 590721, Note_on_c, 0, 42, 59
1, 590724, Note_on_c, 0, 78, 82
1, 590737, Note_off_c, 0, 54, 70
1, 590740, Note_off_c, 0, 66, 69
1, 590743, Note_off_c, 0, 78, 72
1, 590746, Note_off_c, 0, 42, 58
1, 590823, Note_on_c, 0, 58, 90
1, 590825, Note_on_c, 0, 46, 81
1, 590830, Note_on_c, 0, 70, 90
1, 590831, Note_on_c, 0, 82, 80
1, 590853, Note_off_c, 0, 70, 61
1, 590856, Note_off_c, 0, 46, 65
1, 590859, Note_off_c, 0, 82, 63
1, 590862, Note_off_c, 0, 58, 55
1, 590932, Note_on_c, 0, 71, 94
1, 590934, Note_on_c, 0, 47, 80
1, 590936, Note_on_c, 0, 83, 87
1, 590937, Note_on_c, 0, 59, 77
1, 590952, Note_off_c, 0, 71, 69
1, 590954, Note_off_c, 0, 47, 67
1, 590955, Note_off_c, 0, 59, 72
1, 590958, Note_off_c, 0, 83, 67
1, 590961, Note_on_c, 0, 82, 42
1, 590992, Note_off_c, 0, 82, 60
1, 591045, Note_on_c, 0, 51, 84
1, 591045, Note_on_c, 0, 75, 101
1, 591048, Note_on_c, 0, 63, 81
1, 591051, Note_on_c, 0, 87, 91
1, 591067, Note_off_c, 0, 51, 71
1, 591068, Note_off_c, 0, 63, 73
1, 591071, Note_off_c, 0, 87, 70
1, 591074, Note_off_c, 0, 75, 59
1, 591148, Note_on_c, 0, 54, 85
1, 591149, Note_on_c, 0, 66, 86
1, 591149, Note_on_c, 0, 78, 108
1, 591159, Note_on_c, 0, 90, 91
1, 591172, Note_off_c, 0, 54, 69
1, 591172, Note_off_c, 0, 66, 65
1, 591182, Note_off_c, 0, 90, 65
1, 591182, Note_off_c, 0, 78, 67
1, 591226, Control_c, 0, 64, 45
1, 591240, Control_c, 0, 64, 0
1, 591262, Note_on_c, 0, 80, 92
1, 591264, Note_on_c, 0, 92, 93
1, 591302, Note_off_c, 0, 80, 64
1, 591316, Note_off_c, 0, 92, 64
1, 591360, Note_on_c, 0, 57, 84
1, 591363, Note_on_c, 0, 60, 103
1, 591364, Note_on_c, 0, 52, 92
1, 591366, Note_on_c, 0, 81, 106
1, 591369, Note_on_c, 0, 88, 91
1, 591369, Note_on_c, 0, 93, 100
1, 591371, Note_on_c, 0, 48, 88
1, 591373, Control_c, 0, 64, 127
1, 591380, Note_off_c, 0, 60, 74
1, 591381, Note_on_c, 0, 92, 66
1, 591387, Note_off_c, 0, 93, 69
1, 591388, Note_off_c, 0, 88, 73
1, 591398, Note_off_c, 0, 92, 67
1, 591398, Note_off_c, 0, 57, 67
1, 591399, Note_off_c, 0, 81, 71
1, 591405, Note_on_c, 0, 86, 55
1, 591410, Note_off_c, 0, 52, 68
1, 591411, Note_off_c, 0, 48, 65
1, 591448, Note_off_c, 0, 86, 51
1, 591660, Note_on_c, 0, 47, 74
1, 591664, Note_on_c, 0, 59, 77
1, 591665, Note_on_c, 0, 35, 66
1, 591671, Note_on_c, 0, 71, 64
1, 591686, Note_off_c, 0, 47, 67
1, 591688, Note_off_c, 0, 59, 69
1, 591689, Note_off_c, 0, 71, 68
1, 591696, Note_off_c, 0, 35, 65
1, 591776, Note_on_c, 0, 36, 73
1, 591776, Note_on_c, 0, 60, 81
1, 591779, Note_on_c, 0, 48, 75
1, 591785, Note_on_c, 0, 72, 65
1, 591795, Note_off_c, 0, 60, 75
1, 591803, Note_off_c, 0, 72, 67
1, 591805, Note_off_c, 0, 48, 69
1, 591811, Note_off_c, 0, 36, 64
1, 591880, Note_on_c, 0, 51, 81
1, 591882, Note_on_c, 0, 39, 73
1, 591883, Note_on_c, 0, 63, 86
1, 591893, Note_on_c, 0, 75, 67
1, 591904, Note_off_c, 0, 51, 69
1, 591907, Note_off_c, 0, 63, 68
1, 591911, Note_off_c, 0, 39, 66
1, 591917, Note_off_c, 0, 75, 66
1, 591987, Note_on_c, 0, 64, 90
1, 591989, Note_on_c, 0, 40, 80
1, 591990, Note_on_c, 0, 52, 80
1, 591995, Note_on_c, 0, 76, 78
1, 592005, Note_off_c, 0, 64, 72
1, 592015, Note_off_c, 0, 52, 72
1, 592016, Note_off_c, 0, 40, 64
1, 592016, Note_off_c, 0, 76, 73
1, 592090, Note_on_c, 0, 68, 96
1, 592091, Note_on_c, 0, 56, 91
1, 592094, Note_on_c, 0, 44, 78
1, 592098, Note_on_c, 0, 80, 82
1, 592115, Note_off_c, 0, 68, 62
1, 592116, Note_off_c, 0, 56, 65
1, 592118, Note_off_c, 0, 80, 68
1, 592118, Note_off_c, 0, 44, 65
1, 592197, Note_on_c, 0, 69, 95
1, 592198, Note_on_c, 0, 57, 90
1, 592203, Note_on_c, 0, 81, 92
1, 592205, Note_on_c, 0, 45, 78
1, 592222, Note_off_c, 0, 57, 63
1, 592224, Note_off_c, 0, 69, 63
1, 592228, Note_off_c, 0, 45, 68
1, 592231, Note_off_c, 0, 81, 64
1, 592240, Note_on_c, 0, 80, 24
1, 592276, Note_off_c, 0, 80, 52
1, 592315, Note_on_c, 0, 72, 101
1, 592316, Note_on_c, 0, 60, 93
1, 592319, Note_on_c, 0, 48, 90
1, 592320, Note_on_c, 0, 84, 99
1, 592338, Note_off_c, 0, 48, 74
1, 592342, Note_off_c, 0, 60, 66
1, 592350, Note_off_c, 0, 72, 69
1, 592356, Note_off_c, 0, 84, 66
1, 592440, Note_on_c, 0, 64, 87
1, 592440, Note_on_c, 0, 76, 109
1, 592444, Note_on_c, 0, 88, 100
1, 592449, Note_on_c, 0, 52, 69
1, 592452, Note_on_c, 0, 50, 71
1, 592460, Note_off_c, 0, 64, 69
1, 592466, Note_on_c, 0, 62, 47
1, 592466, Note_on_c, 0, 87, 60
1, 592470, Note_off_c, 0, 76, 71
1, 592472, Note_off_c, 0, 50, 64
1, 592473, Note_off_c, 0, 52, 72
1, 592478, Note_off_c, 0, 88, 69
1, 592486, Note_off_c, 0, 87, 65
1, 592495, Note_off_c, 0, 62, 35
1, 592579, Note_on_c, 0, 80, 102
1, 592588, Note_on_c, 0, 92, 87
1, 592604, Note_on_c, 0, 90, 64
1, 592627, Note_off_c, 0, 90, 59
1, 592629, Note_off_c, 0, 80, 63
1, 592648, Note_off_c, 0, 92, 65
1, 592664, Control_c, 0, 64, 122
1, 592679, Control_c, 0, 64, 48
1, 592693, Control_c, 0, 64, 0
1, 592700, Note_on_c, 0, 61, 103
1, 592703, Note_on_c, 0, 57, 90
1, 592703, Note_on_c, 0, 88, 93
1, 592704, Note_on_c, 0, 85, 97
1, 592707, Note_on_c, 0, 79, 92
1, 592707, Note_on_c, 0, 81, 87
1, 592708, Note_on_c, 0, 49, 96
1, 592738, Control_c, 0, 64, 97
1, 592742, Note_off_c, 0, 61, 63
1, 592745, Note_off_c, 0, 57, 61
1, 592746, Note_off_c, 0, 49, 62
1, 592750, Note_off_c, 0, 79, 60
1, 592753, Control_c, 0, 64, 127
1, 592756, Note_off_c, 0, 81, 59
1, 592758, Note_on_c, 0, 51, 38
1, 592765, Note_on_c, 0, 93, 92
1, 592767, Note_off_c, 0, 85, 65
1, 592779, Note_off_c, 0, 88, 65
1, 592779, Note_on_c, 0, 60, 34
1, 592790, Note_off_c, 0, 51, 55
1, 592792, Note_off_c, 0, 60, 0
1, 592792, Note_on_c, 0, 60, 14
1, 592812, Note_off_c, 0, 93, 61
1, 592819, Note_off_c, 0, 60, 37
1, 592840, Note_on_c, 0, 85, 61
1, 592841, Note_on_c, 0, 88, 58
1, 592847, Note_on_c, 0, 81, 55
1, 592854, Note_on_c, 0, 79, 55
1, 592870, Note_off_c, 0, 81, 61
1, 592875, Note_off_c, 0, 79, 62
1, 592884, Note_off_c, 0, 85, 61
1, 592898, Note_on_c, 0, 93, 82
1, 592901, Note_off_c, 0, 88, 65
1, 592940, Note_off_c, 0, 93, 43
1, 592958, Note_on_c, 0, 81, 62
1, 592960, Note_on_c, 0, 85, 66
1, 592961, Note_on_c, 0, 88, 52
1, 592965, Note_on_c, 0, 79, 57
1, 592996, Note_off_c, 0, 79, 56
1, 593015, Note_off_c, 0, 81, 45
1, 593019, Note_on_c, 0, 93, 82
1, 593019, Note_off_c, 0, 85, 63
1, 593039, Note_off_c, 0, 88, 65
1, 593081, Note_on_c, 0, 67, 103
1, 593083, Poly_aftertouch_c, 0, 88, 0
1, 593086, Note_on_c, 0, 55, 93
1, 593089, Note_on_c, 0, 85, 66
1, 593091, Note_on_c, 0, 81, 73
1, 593091, Note_off_c, 0, 93, 60
1, 593092, Note_on_c, 0, 88, 51
1, 593097, Note_on_c, 0, 79, 59
1, 593138, Note_off_c, 0, 79, 59
1, 593143, Note_off_c, 0, 81, 63
1, 593157, Note_on_c, 0, 93, 73
1, 593158, Note_off_c, 0, 85, 62
1, 593184, Note_off_c, 0, 88, 65
1, 593200, Note_off_c, 0, 67, 58
1, 593208, Note_off_c, 0, 55, 62
1, 593234, Note_off_c, 0, 93, 59
1, 593268, Note_on_c, 0, 85, 62
1, 593268, Note_on_c, 0, 88, 53
1, 593271, Note_on_c, 0, 81, 51
1, 593276, Note_on_c, 0, 79, 61
1, 593303, Note_off_c, 0, 79, 58
1, 593320, Note_off_c, 0, 81, 45
1, 593323, Note_on_c, 0, 66, 96
1, 593323, Note_off_c, 0, 85, 60
1, 593325, Note_on_c, 0, 54, 89
1, 593328, Note_on_c, 0, 93, 82
1, 593334, Note_off_c, 0, 88, 64
1, 593371, Note_off_c, 0, 66, 65
1, 593379, Note_off_c, 0, 54, 62
1, 593397, Note_off_c, 0, 93, 61
1, 593414, Note_on_c, 0, 85, 62
1, 593415, Note_on_c, 0, 81, 57
1, 593420, Note_on_c, 0, 88, 52
1, 593423, Note_on_c, 0, 79, 58
1, 593444, Note_off_c, 0, 79, 64
1, 593451, Note_off_c, 0, 81, 56
1, 593453, Note_off_c, 0, 85, 58
1, 593469, Note_on_c, 0, 93, 75
1, 593477, Note_off_c, 0, 88, 66
1, 593489, Note_on_c, 0, 64, 90
1, 593495, Note_on_c, 0, 52, 86
1, 593529, Note_off_c, 0, 93, 61
1, 593530, Note_off_c, 0, 64, 64
1, 593533, Note_off_c, 0, 52, 65
1, 593540, Note_on_c, 0, 85, 68
1, 593547, Note_on_c, 0, 88, 44
1, 593555, Note_on_c, 0, 81, 40
1, 593575, Note_off_c, 0, 85, 55
1, 593587, Note_off_c, 0, 81, 55
1, 593591, Note_on_c, 0, 93, 72
1, 593594, Note_off_c, 0, 88, 65
1, 593608, Poly_aftertouch_c, 0, 79, 127
1, 593631, Note_on_c, 0, 62, 89
1, 593635, Note_on_c, 0, 50, 83
1, 593645, Note_off_c, 0, 93, 61
1, 593654, Note_on_c, 0, 81, 68
1, 593659, Note_off_c, 0, 50, 69
1, 593659, Note_on_c, 0, 85, 66
1, 593662, Note_on_c, 0, 88, 42
1, 593664, Note_off_c, 0, 62, 60
1, 593671, Note_off_c, 0, 81, 66
1, 593687, Note_off_c, 0, 85, 64
1, 593704, Note_on_c, 0, 93, 70
1, 593707, Note_off_c, 0, 88, 66
1, 593715, Poly_aftertouch_c, 0, 79, 0
1, 593742, Note_off_c, 0, 93, 56
1, 593747, Note_on_c, 0, 49, 88
1, 593748, Note_on_c, 0, 61, 86
1, 593755, Note_on_c, 0, 81, 57
1, 593760, Note_on_c, 0, 85, 73
1, 593767, Note_off_c, 0, 61, 71
1, 593770, Note_on_c, 0, 88, 60
1, 593772, Note_off_c, 0, 49, 67
1, 593775, Note_on_c, 0, 79, 43
1, 593781, Note_off_c, 0, 81, 57
1, 593790, Note_off_c, 0, 85, 60
1, 593803, Note_off_c, 0, 79, 55
1, 593813, Note_off_c, 0, 88, 65
1, 593816, Note_on_c, 0, 93, 78
1, 593856, Note_on_c, 0, 59, 84
1, 593856, Note_off_c, 0, 93, 46
1, 593857, Note_on_c, 0, 47, 83
1, 593868, Note_on_c, 0, 79, 70
1, 593870, Note_on_c, 0, 88, 63
1, 593870, Note_on_c, 0, 81, 60
1, 593873, Note_on_c, 0, 85, 70
1, 593879, Note_off_c, 0, 59, 66
1, 593886, Note_off_c, 0, 47, 66
1, 593890, Note_off_c, 0, 79, 61
1, 593891, Note_off_c, 0, 81, 63
1, 593899, Note_off_c, 0, 85, 65
1, 593915, Note_off_c, 0, 88, 66
1, 593921, Note_on_c, 0, 93, 69
1, 593955, Note_off_c, 0, 93, 56
1, 593963, Note_on_c, 0, 57, 89
1, 593967, Note_on_c, 0, 45, 82
1, 593969, Note_on_c, 0, 81, 67
1, 593972, Note_on_c, 0, 85, 74
1, 593978, Note_on_c, 0, 88, 62
1, 593979, Note_on_c, 0, 79, 58
1, 593990, Note_off_c, 0, 57, 66
1, 593996, Note_off_c, 0, 45, 66
1, 593999, Note_off_c, 0, 79, 63
1, 593999, Note_off_c, 0, 81, 60
1, 594018, Note_off_c, 0, 85, 57
1, 594029, Note_off_c, 0, 88, 65
1, 594033, Note_on_c, 0, 93, 84
1, 594072, Note_on_c, 0, 56, 98
1, 594073, Note_on_c, 0, 44, 92
1, 594081, Note_on_c, 0, 81, 72
1, 594082, Note_off_c, 0, 93, 58
1, 594085, Note_on_c, 0, 85, 71
1, 594088, Note_on_c, 0, 88, 66
1, 594091, Note_on_c, 0, 79, 58
1, 594101, Note_off_c, 0, 44, 64
1, 594108, Note_off_c, 0, 81, 57
1, 594109, Note_off_c, 0, 56, 66
1, 594113, Note_off_c, 0, 79, 60
1, 594121, Note_off_c, 0, 85, 59
1, 594133, Note_on_c, 0, 93, 76
1, 594135, Note_off_c, 0, 88, 66
1, 594147, Control_c, 0, 64, 95
1, 594161, Control_c, 0, 64, 63
1, 594176, Control_c, 0, 64, 50
1, 594180, Note_on_c, 0, 59, 94
1, 594182, Note_on_c, 0, 81, 78
1, 594183, Note_on_c, 0, 47, 90
1, 594187, Note_off_c, 0, 93, 56
1, 594191, Note_on_c, 0, 85, 70
1, 594192, Note_on_c, 0, 79, 67
1, 594192, Control_c, 0, 64, 49
1, 594195, Note_on_c, 0, 88, 65
1, 594207, Control_c, 0, 64, 60
1, 594210, Note_off_c, 0, 79, 66
1, 594214, Note_off_c, 0, 47, 68
1, 594215, Note_off_c, 0, 59, 63
1, 594221, Note_off_c, 0, 85, 60
1, 594222, Control_c, 0, 64, 77
1, 594222, Note_off_c, 0, 81, 52
1, 594237, Control_c, 0, 64, 127
1, 594239, Note_on_c, 0, 93, 77
1, 594241, Note_off_c, 0, 88, 66
1, 594287, Note_on_c, 0, 57, 91
1, 594292, Note_on_c, 0, 81, 74
1, 594293, Note_on_c, 0, 45, 88
1, 594297, Note_on_c, 0, 85, 74
1, 594297, Note_on_c, 0, 88, 66
1, 594297, Note_off_c, 0, 93, 61
1, 594302, Note_on_c, 0, 79, 58
1, 594315, Note_off_c, 0, 57, 58
1, 594318, Note_off_c, 0, 45, 68
1, 594320, Note_off_c, 0, 79, 63
1, 594325, Note_off_c, 0, 85, 60
1, 594327, Note_off_c, 0, 81, 65
1, 594341, Poly_aftertouch_c, 0, 93, 0
1, 594347, Note_off_c, 0, 88, 66
1, 594348, Note_on_c, 0, 93, 73
1, 594392, Note_on_c, 0, 81, 82
1, 594396, Note_on_c, 0, 55, 96
1, 594400, Note_off_c, 0, 93, 59
1, 594401, Note_on_c, 0, 43, 83
1, 594404, Note_on_c, 0, 88, 72
1, 594405, Note_on_c, 0, 85, 76
1, 594406, Note_on_c, 0, 79, 61
1, 594421, Note_off_c, 0, 55, 69
1, 594425, Note_off_c, 0, 43, 65
1, 594425, Note_off_c, 0, 79, 62
1, 594428, Note_off_c, 0, 85, 64
1, 594430, Note_off_c, 0, 81, 61
1, 594452, Note_on_c, 0, 93, 78
1, 594456, Note_off_c, 0, 88, 67
1, 594496, Note_on_c, 0, 54, 96
1, 594497, Note_on_c, 0, 81, 80
1, 594499, Note_on_c, 0, 42, 92
1, 594506, Note_on_c, 0, 85, 76
1, 594506, Note_off_c, 0, 93, 60
1, 594508, Note_on_c, 0, 79, 60
1, 594508, Note_on_c, 0, 88, 68
1, 594528, Note_off_c, 0, 79, 63
1, 594530, Note_off_c, 0, 42, 63
1, 594531, Note_off_c, 0, 81, 63
1, 594532, Note_off_c, 0, 54, 64
1, 594538, Note_off_c, 0, 85, 54
1, 594546, Poly_aftertouch_c, 0, 93, 0
1, 594553, Note_on_c, 0, 93, 73
1, 594557, Note_off_c, 0, 88, 67
1, 594596, Note_on_c, 0, 52, 95
1, 594597, Note_on_c, 0, 81, 82
1, 594601, Note_on_c, 0, 40, 93
1, 594606, Note_on_c, 0, 79, 70
1, 594606, Note_off_c, 0, 93, 63
1, 594608, Note_on_c, 0, 85, 75
1, 594608, Note_on_c, 0, 88, 67
1, 594627, Note_off_c, 0, 79, 62
1, 594631, Note_off_c, 0, 40, 69
1, 594632, Note_off_c, 0, 52, 66
1, 594636, Note_off_c, 0, 81, 67
1, 594649, Note_off_c, 0, 85, 60
1, 594658, Note_on_c, 0, 93, 81
1, 594659, Note_off_c, 0, 88, 67
1, 594698, Note_on_c, 0, 81, 74
1, 594702, Note_on_c, 0, 79, 69
1, 594702, Note_on_c, 0, 50, 98
1, 594711, Note_on_c, 0, 85, 76
1, 594711, Note_on_c, 0, 38, 81
1, 594717, Note_off_c, 0, 93, 63
1, 594722, Note_on_c, 0, 88, 73
1, 594736, Note_off_c, 0, 38, 67
1, 594737, Note_off_c, 0, 50, 63
1, 594740, Note_off_c, 0, 79, 61
1, 594744, Note_off_c, 0, 81, 63
1, 594766, Note_off_c, 0, 85, 64
1, 594776, Note_off_c, 0, 88, 66
1, 594783, Note_on_c, 0, 93, 58
1, 594807, Note_on_c, 0, 49, 97
1, 594811, Note_on_c, 0, 37, 93
1, 594812, Note_on_c, 0, 81, 81
1, 594821, Note_on_c, 0, 85, 77
1, 594830, Note_on_c, 0, 79, 67
1, 594835, Note_off_c, 0, 93, 63
1, 594836, Note_on_c, 0, 88, 68
1, 594841, Note_off_c, 0, 49, 70
1, 594843, Note_off_c, 0, 37, 64
1, 594846, Note_off_c, 0, 79, 66
1, 594859, Note_off_c, 0, 81, 66
1, 594869, Note_off_c, 0, 85, 63
1, 594879, Note_off_c, 0, 88, 63
1, 594912, Note_on_c, 0, 81, 85
1, 594914, Note_on_c, 0, 47, 107
1, 594920, Poly_aftertouch_c, 0, 88, 0
1, 594920, Note_on_c, 0, 35, 90
1, 594922, Note_on_c, 0, 85, 76
1, 594928, Note_on_c, 0, 88, 64
1, 594929, Note_on_c, 0, 93, 71
1, 594934, Note_on_c, 0, 79, 50
1, 594948, Note_off_c, 0, 47, 65
1, 594950, Note_off_c, 0, 35, 70
1, 594960, Note_off_c, 0, 79, 58
1, 594960, Note_off_c, 0, 81, 64
1, 594968, Note_off_c, 0, 85, 64
1, 594970, Note_off_c, 0, 93, 51
1, 594976, Note_off_c, 0, 88, 67
1, 595015, Note_on_c, 0, 45, 104
1, 595018, Note_on_c, 0, 81, 89
1, 595023, Note_on_c, 0, 33, 90
1, 595026, Note_on_c, 0, 85, 83
1, 595036, Note_on_c, 0, 88, 68
1, 595037, Note_on_c, 0, 93, 62
1, 595038, Note_on_c, 0, 34, 58
1, 595051, Note_off_c, 0, 33, 70
1, 595054, Note_off_c, 0, 45, 67
1, 595065, Note_off_c, 0, 81, 66
1, 595069, Note_off_c, 0, 34, 55
1, 595069, Note_off_c, 0, 93, 62
1, 595075, Note_off_c, 0, 85, 65
1, 595077, Note_off_c, 0, 88, 65
1, 595116, Note_on_c, 0, 44, 101
1, 595120, Note_on_c, 0, 32, 92
1, 595128, Note_on_c, 0, 81, 82
1, 595128, Note_on_c, 0, 85, 78
1, 595134, Note_on_c, 0, 93, 70
1, 595134, Note_on_c, 0, 88, 66
1, 595155, Note_off_c, 0, 81, 63
1, 595161, Note_off_c, 0, 93, 65
1, 595167, Note_off_c, 0, 44, 63
1, 595167, Note_on_c, 0, 34, 15
1, 595170, Note_off_c, 0, 32, 62
1, 595174, Note_off_c, 0, 85, 66
1, 595178, Note_off_c, 0, 88, 67
1, 595206, Control_c, 0, 64, 60
1, 595216, Note_off_c, 0, 34, 39
1, 595221, Control_c, 0, 64, 0
1, 595230, Note_on_c, 0, 81, 113
1, 595233, Note_on_c, 0, 45, 112
1, 595233, Note_on_c, 0, 93, 108
1, 595234, Note_on_c, 0, 85, 91
1, 595236, Note_on_c, 0, 88, 86
1, 595239, Note_on_c, 0, 33, 99
1, 595258, Note_on_c, 0, 34, 48
1, 595266, Control_c, 0, 64, 34
1, 595280, Control_c, 0, 64, 127
1, 595295, Note_off_c, 0, 34, 46
1, 595312, Note_on_c, 0, 39, 2
1, 595350, Note_off_c, 0, 39, 38
1, 595389, Note_off_c, 0, 81, 35
1, 595416, Note_off_c, 0, 33, 60
1, 595417, Note_off_c, 0, 45, 59
1, 595418, Note_off_c, 0, 93, 59
1, 595426, Note_off_c, 0, 88, 63
1, 595432, Note_off_c, 0, 85, 60
1, 595526, Note_on_c, 0, 44, 101
1, 595528, Note_on_c, 0, 32, 93
1, 595528, Note_on_c, 0, 83, 107
1, 595530, Note_on_c, 0, 95, 103
1, 595542, Note_on_c, 0, 94, 84
1, 595558, Note_off_c, 0, 94, 74
1, 595560, Note_off_c, 0, 83, 67
1, 595569, Note_off_c, 0, 95, 65
1, 595574, Note_off_c, 0, 44, 62
1, 595579, Note_off_c, 0, 32, 62
1, 595671, Note_on_c, 0, 85, 102
1, 595676, Note_on_c, 0, 43, 97
1, 595676, Note_on_c, 0, 97, 102
1, 595683, Note_on_c, 0, 31, 88
1, 595708, Note_off_c, 0, 31, 65
1, 595708, Note_off_c, 0, 85, 65
1, 595710, Note_off_c, 0, 43, 61
1, 595716, Note_off_c, 0, 97, 65
1, 595716, Note_on_c, 0, 32, 41
1, 595731, Note_off_c, 0, 32, 61
1, 595789, Note_on_c, 0, 42, 99
1, 595790, Note_on_c, 0, 86, 104
1, 595794, Note_on_c, 0, 30, 91
1, 595795, Note_on_c, 0, 98, 98
1, 595822, Note_off_c, 0, 86, 65
1, 595826, Note_off_c, 0, 30, 64
1, 595834, Note_off_c, 0, 98, 70
1, 595835, Note_off_c, 0, 42, 61
1, 595838, Note_on_c, 0, 97, 24
1, 595839, Note_off_c, 0, 97, 127
1, 595896, Note_on_c, 0, 40, 90
1, 595896, Note_on_c, 0, 88, 102
1, 595903, Note_on_c, 0, 100, 95
1, 595903, Note_on_c, 0, 28, 83
1, 595922, Note_on_c, 0, 99, 59
1, 595929, Note_off_c, 0, 40, 64
1, 595930, Note_off_c, 0, 88, 70
1, 595930, Note_off_c, 0, 28, 66
1, 595938, Note_off_c, 0, 100, 65
1, 595942, Note_off_c, 0, 99, 63
1, 595969, Control_c, 0, 64, 62
1, 595984, Control_c, 0, 64, 0
1, 596001, Note_on_c, 0, 38, 110
1, 596002, Note_on_c, 0, 90, 117
1, 596005, Note_on_c, 0, 26, 99
1, 596011, Note_on_c, 0, 102, 101
1, 596025, Note_off_c, 0, 102, 75
1, 596029, Control_c, 0, 64, 127
1, 596032, Note_on_c, 0, 27, 54
1, 596033, Note_off_c, 0, 27, 127
1, 596034, Note_off_c, 0, 26, 64
1, 596041, Note_off_c, 0, 90, 70
1, 596042, Note_off_c, 0, 38, 64
1, 596071, Poly_aftertouch_c, 0, 27, 0
1, 596235, Note_on_c, 0, 73, 78
1, 596240, Note_on_c, 0, 62, 78
1, 596258, Note_on_c, 0, 66, 61
1, 596264, Note_off_c, 0, 73, 69
1, 596271, Note_off_c, 0, 62, 69
1, 596272, Note_on_c, 0, 57, 35
1, 596277, Note_off_c, 0, 66, 63
1, 596296, Note_off_c, 0, 57, 0
1, 596313, Note_on_c, 0, 57, 52
1, 596313, Note_on_c, 0, 69, 56
1, 596313, Poly_aftertouch_c, 0, 67, 127
1, 596315, Note_on_c, 0, 62, 89
1, 596315, Note_on_c, 0, 66, 87
1, 596318, Note_on_c, 0, 78, 99
1, 596330, Note_on_c, 0, 74, 72
1, 596334, Note_off_c, 0, 66, 71
1, 596342, Note_off_c, 0, 62, 64
1, 596351, Note_off_c, 0, 74, 72
1, 596352, Note_off_c, 0, 57, 64
1, 596353, Poly_aftertouch_c, 0, 67, 0
1, 596354, Note_off_c, 0, 78, 69
1, 596357, Note_off_c, 0, 69, 67
1, 596525, Note_on_c, 0, 54, 76
1, 596526, Note_on_c, 0, 66, 76
1, 596528, Note_on_c, 0, 57, 67
1, 596531, Note_on_c, 0, 69, 69
1, 596534, Note_on_c, 0, 50, 60
1, 596535, Note_on_c, 0, 62, 64
1, 596547, Note_off_c, 0, 57, 66
1, 596547, Note_off_c, 0, 66, 71
1, 596549, Note_off_c, 0, 69, 69
1, 596552, Note_off_c, 0, 62, 69
1, 596553, Note_off_c, 0, 54, 68
1, 596563, Note_off_c, 0, 50, 54
1, 596592, Note_on_c, 0, 57, 84
1, 596592, Note_on_c, 0, 54, 91
1, 596595, Note_on_c, 0, 62, 91
1, 596598, Note_on_c, 0, 50, 76
1, 596598, Note_on_c, 0, 66, 88
1, 596601, Note_on_c, 0, 69, 83
1, 596608, Note_off_c, 0, 57, 73
1, 596620, Note_off_c, 0, 69, 70
1, 596631, Note_off_c, 0, 62, 63
1, 596634, Note_off_c, 0, 66, 63
1, 596635, Note_off_c, 0, 54, 63
1, 596640, Note_off_c, 0, 50, 62
1, 596813, Note_on_c, 0, 46, 80
1, 596818, Note_on_c, 0, 57, 81
1, 596821, Note_on_c, 0, 54, 76
1, 596836, Note_on_c, 0, 62, 54
1, 596838, Note_off_c, 0, 54, 67
1, 596842, Note_on_c, 0, 43, 44
1, 596842, Note_off_c, 0, 57, 67
1, 596843, Note_on_c, 0, 50, 47
1, 596846, Note_off_c, 0, 46, 65
1, 596855, Note_off_c, 0, 62, 64
1, 596872, Note_off_c, 0, 50, 0
1, 596884, Note_off_c, 0, 43, 0
1, 596887, Note_on_c, 0, 50, 66
1, 596888, Note_on_c, 0, 57, 91
1, 596890, Note_on_c, 0, 54, 103
1, 596892, Note_on_c, 0, 62, 92
1, 596895, Note_on_c, 0, 45, 82
1, 596902, Note_on_c, 0, 43, 64
1, 596913, Note_off_c, 0, 50, 69
1, 596917, Note_off_c, 0, 45, 71
1, 596941, Note_off_c, 0, 43, 63
1, 596965, Note_off_c, 0, 54, 66
1, 597063, Note_off_c, 0, 57, 54
1, 597090, Note_off_c, 0, 62, 62
1, 597274, Control_c, 0, 64, 93
1, 597289, Control_c, 0, 64, 41
1, 597303, Control_c, 0, 64, 0
1, 597330, Note_on_c, 0, 36, 110
1, 597331, Note_on_c, 0, 79, 111
1, 597334, Note_on_c, 0, 24, 102
1, 597335, Note_on_c, 0, 91, 102
1, 597348, Control_c, 0, 64, 127
1, 597349, Note_on_c, 0, 90, 78
1, 597358, Note_off_c, 0, 24, 63
1, 597360, Note_on_c, 0, 89, 65
1, 597361, Note_off_c, 0, 89, 127
1, 597361, Note_off_c, 0, 79, 73
1, 597361, Note_off_c, 0, 91, 65
1, 597364, Note_off_c, 0, 90, 71
1, 597366, Note_off_c, 0, 36, 62
1, 597374, Note_on_c, 0, 25, 31
1, 597392, Note_on_c, 0, 26, 16
1, 597415, Note_off_c, 0, 25, 43
1, 597447, Note_off_c, 0, 26, 38
1, 597449, Poly_aftertouch_c, 0, 30, 0
1, 597579, Note_on_c, 0, 67, 76
1, 597580, Note_on_c, 0, 72, 75
1, 597582, Note_on_c, 0, 76, 74
1, 597582, Note_on_c, 0, 64, 69
1, 597588, Note_on_c, 0, 79, 64
1, 597598, Note_on_c, 0, 60, 45
1, 597599, Note_off_c, 0, 67, 72
1, 597600, Note_off_c, 0, 72, 70
1, 597603, Note_off_c, 0, 76, 71
1, 597605, Note_off_c, 0, 79, 66
1, 597608, Note_off_c, 0, 64, 67
1, 597636, Note_off_c, 0, 60, 0
1, 597636, Note_on_c, 0, 60, 54
1, 597643, Note_on_c, 0, 67, 82
1, 597647, Note_on_c, 0, 64, 79
1, 597647, Note_on_c, 0, 76, 90
1, 597649, Note_on_c, 0, 72, 79
1, 597652, Note_on_c, 0, 79, 87
1, 597660, Note_off_c, 0, 67, 74
1, 597665, Note_off_c, 0, 64, 71
1, 597671, Note_off_c, 0, 72, 64
1, 597671, Note_off_c, 0, 79, 67
1, 597675, Note_off_c, 0, 76, 63
1, 597686, Note_off_c, 0, 60, 65
1, 597849, Note_on_c, 0, 67, 82
1, 597852, Note_on_c, 0, 55, 60
1, 597852, Note_on_c, 0, 64, 70
1, 597853, Note_on_c, 0, 60, 64
1, 597854, Note_on_c, 0, 72, 73
1, 597863, Note_on_c, 0, 52, 47
1, 597865, Note_off_c, 0, 67, 77
1, 597870, Note_off_c, 0, 60, 68
1, 597871, Note_off_c, 0, 55, 65
1, 597872, Note_off_c, 0, 72, 67
1, 597874, Note_off_c, 0, 64, 68
1, 597889, Note_off_c, 0, 52, 0
1, 597909, Note_on_c, 0, 52, 62
1, 597910, Note_on_c, 0, 60, 80
1, 597911, Note_on_c, 0, 55, 83
1, 597915, Note_on_c, 0, 64, 86
1, 597922, Note_on_c, 0, 67, 88
1, 597930, Note_on_c, 0, 72, 63
1, 597932, Note_off_c, 0, 60, 70
1, 597948, Note_off_c, 0, 72, 66
1, 597951, Note_off_c, 0, 55, 66
1, 597953, Note_off_c, 0, 52, 67
1, 597959, Note_off_c, 0, 64, 60
1, 597965, Note_off_c, 0, 67, 66
1, 598115, Note_on_c, 0, 52, 68
1, 598118, Note_on_c, 0, 55, 64
1, 598136, Note_on_c, 0, 60, 40
1, 598139, Note_on_c, 0, 62, 38
1, 598142, Note_off_c, 0, 55, 61
1, 598144, Note_off_c, 0, 52, 57
1, 598158, Note_off_c, 0, 60, 64
1, 598172, Poly_aftertouch_c, 0, 48, 127
1, 598182, Note_on_c, 0, 52, 80
1, 598182, Note_on_c, 0, 64, 53
1, 598182, Note_on_c, 0, 67, 74
1, 598183, Note_on_c, 0, 55, 80
1, 598183, Note_off_c, 0, 62, 46
1, 598193, Note_on_c, 0, 60, 72
1, 598202, Note_off_c, 0, 52, 70
1, 598204, Note_off_c, 0, 55, 71
1, 598226, Note_off_c, 0, 60, 64
1, 598232, Note_off_c, 0, 64, 64
1, 598233, Poly_aftertouch_c, 0, 65, 0
1, 598234, Note_off_c, 0, 67, 66
1, 598237, Poly_aftertouch_c, 0, 48, 0
1, 598425, Note_on_c, 0, 43, 75
1, 598425, Note_on_c, 0, 55, 79
1, 598428, Note_on_c, 0, 60, 73
1, 598430, Note_on_c, 0, 52, 74
1, 598431, Note_on_c, 0, 48, 71
1, 598449, Note_off_c, 0, 43, 66
1, 598449, Note_off_c, 0, 60, 73
1, 598451, Note_off_c, 0, 55, 67
1, 598453, Note_off_c, 0, 52, 72
1, 598456, Note_off_c, 0, 48, 70
1, 598464, Note_on_c, 0, 40, 20
1, 598484, Note_on_c, 0, 48, 92
1, 598485, Note_on_c, 0, 52, 93
1, 598487, Note_on_c, 0, 60, 89
1, 598489, Note_on_c, 0, 43, 89
1, 598503, Note_on_c, 0, 55, 92
1, 598549, Note_off_c, 0, 52, 69
1, 598557, Note_off_c, 0, 48, 63
1, 598583, Note_off_c, 0, 43, 61
1, 598584, Note_off_c, 0, 55, 58
1, 598602, Note_off_c, 0, 60, 59
1, 598613, Note_off_c, 0, 40, 55
1, 599084, Control_c, 0, 64, 110
1, 599098, Control_c, 0, 64, 51
1, 599113, Control_c, 0, 64, 0
1, 599130, Note_on_c, 0, 38, 109
1, 599130, Note_on_c, 0, 78, 111
1, 599135, Note_on_c, 0, 26, 99
1, 599137, Note_on_c, 0, 90, 102
1, 599143, Control_c, 0, 64, 19
1, 599154, Note_off_c, 0, 90, 76
1, 599157, Note_off_c, 0, 26, 64
1, 599158, Control_c, 0, 64, 127
1, 599171, Note_off_c, 0, 38, 67
1, 599174, Note_off_c, 0, 78, 63
1, 599342, Note_on_c, 0, 62, 70
1, 599349, Note_on_c, 0, 75, 74
1, 599360, Note_on_c, 0, 78, 70
1, 599364, Note_on_c, 0, 69, 62
1, 599376, Note_off_c, 0, 75, 55
1, 599378, Note_off_c, 0, 62, 63
1, 599382, Note_off_c, 0, 78, 71
1, 599382, Note_off_c, 0, 69, 68
1, 599415, Note_on_c, 0, 66, 29
1, 599423, Note_on_c, 0, 57, 48
1, 599424, Note_on_c, 0, 62, 84
1, 599436, Note_on_c, 0, 74, 71
1, 599439, Note_on_c, 0, 69, 87
1, 599439, Note_on_c, 0, 78, 84
1, 599456, Note_off_c, 0, 69, 75
1, 599457, Note_off_c, 0, 66, 64
1, 599465, Note_off_c, 0, 62, 64
1, 599477, Note_off_c, 0, 74, 65
1, 599481, Note_off_c, 0, 57, 62
1, 599495, Note_off_c, 0, 78, 67
1, 599698, Control_c, 0, 64, 58
1, 599713, Control_c, 0, 64, 0
1, 599728, Note_on_c, 0, 45, 114
1, 599731, Note_on_c, 0, 76, 104
1, 599734, Note_on_c, 0, 33, 95
1, 599735, Note_on_c, 0, 81, 94
1, 599736, Note_on_c, 0, 88, 99
1, 599737, Note_on_c, 0, 40, 87
1, 599737, Note_on_c, 0, 86, 99
1, 599737, Note_on_c, 0, 38, 83
1, 599758, Control_c, 0, 64, 50
1, 599773, Note_off_c, 0, 33, 63
1, 599773, Control_c, 0, 64, 127
1, 599774, Note_off_c, 0, 88, 68
1, 599778, Note_on_c, 0, 37, 27
1, 599788, Note_off_c, 0, 45, 65
1, 599789, Note_off_c, 0, 86, 60
1, 599792, Note_off_c, 0, 38, 65
1, 599794, Note_off_c, 0, 81, 64
1, 599794, Note_off_c, 0, 76, 67
1, 599797, Note_off_c, 0, 40, 64
1, 599819, Note_off_c, 0, 37, 44
1, 599969, Note_on_c, 0, 76, 75
1, 599980, Note_on_c, 0, 62, 60
1, 599981, Note_on_c, 0, 71, 53
1, 599988, Note_off_c, 0, 76, 70
1, 600008, Note_off_c, 0, 62, 62
1, 600011, Note_off_c, 0, 71, 63
1, 600013, Note_on_c, 0, 64, 30
1, 600038, Note_on_c, 0, 57, 78
1, 600038, Note_on_c, 0, 62, 84
1, 600042, Note_on_c, 0, 76, 93
1, 600049, Note_on_c, 0, 69, 76
1, 600050, Note_on_c, 0, 74, 80
1, 600074, Note_off_c, 0, 69, 66
1, 600075, Note_off_c, 0, 62, 62
1, 600075, Note_off_c, 0, 64, 60
1, 600083, Note_off_c, 0, 57, 65
1, 600085, Note_off_c, 0, 76, 64
1, 600087, Note_off_c, 0, 74, 62
1, 600241, Note_on_c, 0, 57, 65
1, 600246, Note_on_c, 0, 65, 70
1, 600248, Note_on_c, 0, 71, 73
1, 600250, Note_on_c, 0, 50, 50
1, 600253, Note_on_c, 0, 52, 47
1, 600259, Note_on_c, 0, 62, 52
1, 600262, Note_off_c, 0, 57, 70
1, 600264, Note_off_c, 0, 71, 71
1, 600264, Note_off_c, 0, 65, 69
1, 600278, Note_off_c, 0, 50, 55
1, 600279, Note_off_c, 0, 62, 64
1, 600288, Note_off_c, 0, 52, 52
1, 600308, Note_on_c, 0, 57, 82
1, 600310, Note_on_c, 0, 52, 75
1, 600310, Poly_aftertouch_c, 0, 53, 127
1, 600311, Note_on_c, 0, 50, 75
1, 600316, Note_on_c, 0, 62, 76
1, 600319, Note_on_c, 0, 71, 72
1, 600320, Note_on_c, 0, 65, 85
1, 600332, Note_off_c, 0, 57, 66
1, 600336, Note_off_c, 0, 50, 57
1, 600336, Note_off_c, 0, 71, 65
1, 600359, Note_on_c, 0, 49, 33
1, 600360, Note_off_c, 0, 52, 67
1, 600363, Note_off_c, 0, 65, 63
1, 600363, Note_off_c, 0, 62, 61
1, 600381, Poly_aftertouch_c, 0, 53, 0
1, 600402, Note_off_c, 0, 49, 50
1, 600503, Note_on_c, 0, 50, 78
1, 600507, Note_on_c, 0, 52, 70
1, 600515, Note_on_c, 0, 64, 64
1, 600515, Note_on_c, 0, 62, 65
1, 600519, Note_on_c, 0, 57, 60
1, 600522, Note_off_c, 0, 52, 74
1, 600528, Note_off_c, 0, 50, 66
1, 600538, Note_off_c, 0, 57, 67
1, 600543, Note_off_c, 0, 64, 67
1, 600546, Note_off_c, 0, 62, 66
1, 600569, Poly_aftertouch_c, 0, 45, 127
1, 600576, Note_on_c, 0, 52, 88
1, 600580, Note_on_c, 0, 50, 100
1, 600589, Note_on_c, 0, 57, 85
1, 600590, Note_on_c, 0, 64, 76
1, 600591, Note_on_c, 0, 62, 86
1, 600604, Note_off_c, 0, 52, 68
1, 600610, Note_off_c, 0, 50, 64
1, 600613, Note_off_c, 0, 57, 69
1, 600637, Note_off_c, 0, 62, 63
1, 600639, Poly_aftertouch_c, 0, 45, 0
1, 600642, Note_off_c, 0, 64, 64
1, 600826, Control_c, 0, 64, 97
1, 600841, Control_c, 0, 64, 48
1, 600856, Control_c, 0, 64, 0
1, 600870, Note_on_c, 0, 45, 99
1, 600871, Note_on_c, 0, 76, 109
1, 600873, Note_on_c, 0, 37, 90
1, 600875, Note_on_c, 0, 33, 88
1, 600875, Note_on_c, 0, 81, 96
1, 600875, Note_on_c, 0, 85, 99
1, 600875, Note_on_c, 0, 88, 104
1, 600876, Note_on_c, 0, 40, 92
1, 600897, Note_off_c, 0, 33, 69
1, 600901, Control_c, 0, 64, 76
1, 600904, Note_off_c, 0, 37, 66
1, 600904, Note_off_c, 0, 40, 69
1, 600910, Note_off_c, 0, 45, 64
1, 600911, Note_off_c, 0, 88, 67
1, 600914, Note_off_c, 0, 85, 62
1, 600916, Control_c, 0, 64, 127
1, 600919, Note_off_c, 0, 81, 64
1, 600920, Note_off_c, 0, 76, 66
1, 600974, Poly_aftertouch_c, 0, 39, 0
1, 601039, Poly_aftertouch_c, 0, 33, 0
1, 601092, Note_on_c, 0, 61, 62
1, 601093, Note_on_c, 0, 69, 62
1, 601093, Note_on_c, 0, 76, 62
1, 601099, Note_on_c, 0, 57, 46
1, 601109, Note_off_c, 0, 76, 69
1, 601111, Note_off_c, 0, 61, 66
1, 601113, Note_off_c, 0, 69, 69
1, 601119, Note_on_c, 0, 64, 29
1, 601127, Note_off_c, 0, 57, 55
1, 601147, Note_off_c, 0, 64, 0
1, 601147, Note_on_c, 0, 64, 37
1, 601157, Note_on_c, 0, 76, 91
1, 601159, Note_on_c, 0, 57, 67
1, 601165, Note_on_c, 0, 61, 80
1, 601165, Note_on_c, 0, 69, 78
1, 601167, Note_on_c, 0, 73, 62
1, 601189, Note_off_c, 0, 64, 63
1, 601189, Note_off_c, 0, 69, 67
1, 601191, Note_off_c, 0, 61, 68
1, 601196, Note_off_c, 0, 73, 69
1, 601201, Note_off_c, 0, 76, 61
1, 601204, Note_off_c, 0, 57, 61
1, 601360, Note_on_c, 0, 64, 66
1, 601361, Note_on_c, 0, 61, 72
1, 601361, Note_on_c, 0, 52, 64
1, 601366, Note_on_c, 0, 69, 57
1, 601369, Note_on_c, 0, 57, 53
1, 601377, Note_off_c, 0, 61, 72
1, 601379, Note_on_c, 0, 49, 35
1, 601388, Note_off_c, 0, 57, 64
1, 601388, Note_off_c, 0, 69, 62
1, 601389, Note_off_c, 0, 64, 65
1, 601393, Note_off_c, 0, 52, 68
1, 601413, Note_off_c, 0, 49, 0
1, 601428, Note_on_c, 0, 61, 85
1, 601432, Note_on_c, 0, 49, 59
1, 601432, Note_on_c, 0, 52, 76
1, 601432, Note_on_c, 0, 57, 77
1, 601432, Note_on_c, 0, 69, 72
1, 601439, Note_on_c, 0, 64, 85
1, 601454, Note_off_c, 0, 57, 67
1, 601466, Note_off_c, 0, 52, 65
1, 601474, Note_off_c, 0, 64, 50
1, 601475, Note_off_c, 0, 69, 61
1, 601496, Note_off_c, 0, 61, 61
1, 601499, Note_off_c, 0, 49, 63
1, 601626, Note_on_c, 0, 49, 70
1, 601641, Note_on_c, 0, 61, 64
1, 601641, Note_on_c, 0, 64, 64
1, 601642, Note_on_c, 0, 57, 70
1, 601645, Note_on_c, 0, 45, 50
1, 601645, Note_on_c, 0, 52, 55
1, 601656, Note_off_c, 0, 49, 66
1, 601666, Note_off_c, 0, 64, 61
1, 601666, Note_off_c, 0, 57, 66
1, 601670, Note_off_c, 0, 61, 66
1, 601674, Note_off_c, 0, 45, 55
1, 601686, Note_off_c, 0, 52, 0
1, 601698, Note_on_c, 0, 52, 56
1, 601709, Note_on_c, 0, 49, 79
1, 601714, Note_on_c, 0, 45, 67
1, 601714, Note_on_c, 0, 64, 77
1, 601718, Note_on_c, 0, 61, 81
1, 601719, Note_on_c, 0, 57, 72
1, 601740, Note_off_c, 0, 57, 70
1, 601744, Note_off_c, 0, 52, 66
1, 601753, Note_off_c, 0, 49, 67
1, 601764, Note_off_c, 0, 61, 63
1, 601767, Note_off_c, 0, 45, 64
1, 601768, Note_off_c, 0, 64, 64
1, 601931, Control_c, 0, 64, 64
1, 601946, Control_c, 0, 64, 0
1, 601989, Note_on_c, 0, 74, 105
1, 601990, Note_on_c, 0, 47, 105
1, 601990, Control_c, 0, 64, 33
1, 601991, Note_on_c, 0, 78, 101
1, 601992, Note_on_c, 0, 83, 100
1, 601993, Note_on_c, 0, 42, 93
1, 601993, Note_on_c, 0, 38, 87
1, 601996, Note_on_c, 0, 35, 81
1, 601996, Note_on_c, 0, 86, 95
1, 602005, Control_c, 0, 64, 67
1, 602014, Note_off_c, 0, 86, 73
1, 602017, Note_off_c, 0, 35, 67
1, 602019, Control_c, 0, 64, 127
1, 602020, Note_off_c, 0, 83, 61
1, 602023, Note_off_c, 0, 38, 67
1, 602026, Note_off_c, 0, 74, 70
1, 602026, Note_off_c, 0, 78, 71
1, 602033, Note_off_c, 0, 47, 64
1, 602035, Note_off_c, 0, 42, 61
1, 602212, Note_on_c, 0, 54, 68
1, 602216, Note_on_c, 0, 50, 60
1, 602221, Note_on_c, 0, 62, 59
1, 602222, Note_on_c, 0, 59, 50
1, 602222, Note_on_c, 0, 71, 58
1, 602236, Note_off_c, 0, 54, 66
1, 602241, Note_off_c, 0, 50, 60
1, 602241, Note_off_c, 0, 71, 67
1, 602242, Note_off_c, 0, 62, 63
1, 602250, Note_off_c, 0, 59, 60
1, 602274, Note_on_c, 0, 67, 3
1, 602288, Note_on_c, 0, 59, 80
1, 602292, Note_on_c, 0, 54, 87
1, 602294, Note_on_c, 0, 50, 80
1, 602296, Note_on_c, 0, 71, 92
1, 602298, Note_on_c, 0, 62, 93
1, 602302, Note_on_c, 0, 66, 83
1, 602309, Note_off_c, 0, 59, 70
1, 602315, Note_off_c, 0, 67, 56
1, 602318, Note_off_c, 0, 62, 69
1, 602334, Note_off_c, 0, 66, 60
1, 602337, Note_off_c, 0, 54, 65
1, 602341, Note_off_c, 0, 50, 63
1, 602345, Note_off_c, 0, 71, 67
1, 602576, Control_c, 0, 64, 57
1, 602591, Control_c, 0, 64, 0
1, 602596, Note_on_c, 0, 73, 102
1, 602599, Note_on_c, 0, 49, 115
1, 602603, Note_on_c, 0, 80, 92
1, 602604, Note_on_c, 0, 77, 88
1, 602605, Note_on_c, 0, 44, 89
1, 602605, Note_on_c, 0, 85, 98
1, 602606, Note_on_c, 0, 37, 86
1, 602606, Note_on_c, 0, 41, 87
1, 602620, Control_c, 0, 64, 24
1, 602634, Note_off_c, 0, 77, 54
1, 602635, Control_c, 0, 64, 127
1, 602637, Note_off_c, 0, 85, 67
1, 602640, Note_off_c, 0, 37, 66
1, 602641, Note_off_c, 0, 80, 67
1, 602655, Note_off_c, 0, 41, 65
1, 602655, Note_off_c, 0, 73, 64
1, 602661, Note_off_c, 0, 49, 61
1, 602670, Note_off_c, 0, 44, 61
1, 602909, Note_on_c, 0, 65, 77
1, 602911, Note_on_c, 0, 61, 78
1, 602912, Note_on_c, 0, 56, 79
1, 602912, Note_on_c, 0, 68, 71
1, 602913, Note_on_c, 0, 53, 72
1, 602913, Note_on_c, 0, 73, 69
1, 602931, Note_off_c, 0, 65, 69
1, 602932, Note_off_c, 0, 61, 69
1, 602935, Note_off_c, 0, 56, 67
1, 602935, Note_off_c, 0, 73, 69
1, 602935, Note_off_c, 0, 68, 65
1, 602942, Note_off_c, 0, 53, 67
1, 602976, Note_on_c, 0, 61, 100
1, 602978, Note_on_c, 0, 56, 95
1, 602979, Note_on_c, 0, 53, 83
1, 602979, Note_on_c, 0, 68, 100
1, 602980, Note_on_c, 0, 73, 94
1, 602983, Note_on_c, 0, 65, 87
1, 603012, Note_off_c, 0, 65, 71
1, 603025, Note_off_c, 0, 61, 66
1, 603027, Note_off_c, 0, 68, 63
1, 603031, Note_off_c, 0, 53, 67
1, 603037, Note_off_c, 0, 56, 64
1, 603037, Note_off_c, 0, 73, 66
1, 603230, Note_on_c, 0, 83, 101
1, 603233, Note_on_c, 0, 71, 98
1, 603271, Note_off_c, 0, 71, 64
1, 603280, Note_off_c, 0, 83, 61
1, 603384, Control_c, 0, 64, 70
1, 603398, Control_c, 0, 64, 30
1, 603413, Control_c, 0, 64, 0
1, 603439, Note_on_c, 0, 70, 102
1, 603442, Note_on_c, 0, 42, 99
1, 603443, Control_c, 0, 64, 42
1, 603445, Note_on_c, 0, 30, 82
1, 603448, Note_on_c, 0, 82, 82
1, 603458, Control_c, 0, 64, 70
1, 603463, Note_on_c, 0, 80, 64
1, 603467, Note_off_c, 0, 30, 66
1, 603469, Note_off_c, 0, 82, 72
1, 603472, Note_off_c, 0, 70, 60
1, 603472, Control_c, 0, 64, 127
1, 603480, Note_off_c, 0, 80, 65
1, 603481, Note_off_c, 0, 42, 62
1, 603650, Note_on_c, 0, 58, 80
1, 603653, Note_on_c, 0, 54, 75
1, 603656, Note_on_c, 0, 61, 76
1, 603660, Note_on_c, 0, 49, 64
1, 603664, Note_on_c, 0, 70, 72
1, 603669, Note_on_c, 0, 66, 64
1, 603674, Note_off_c, 0, 58, 68
1, 603678, Note_off_c, 0, 61, 72
1, 603682, Note_off_c, 0, 54, 67
1, 603695, Note_off_c, 0, 49, 66
1, 603695, Note_off_c, 0, 66, 65
1, 603702, Note_off_c, 0, 70, 58
1, 603777, Control_c, 0, 64, 69
1, 603792, Control_c, 0, 64, 53
1, 603807, Control_c, 0, 64, 50
1, 603821, Control_c, 0, 64, 60
1, 603825, Note_on_c, 0, 46, 107
1, 603827, Note_on_c, 0, 73, 106
1, 603830, Note_on_c, 0, 34, 88
1, 603830, Note_on_c, 0, 85, 100
1, 603836, Control_c, 0, 64, 127
1, 603852, Note_off_c, 0, 85, 67
1, 603854, Note_off_c, 0, 46, 64
1, 603859, Note_off_c, 0, 34, 69
1, 603860, Note_off_c, 0, 73, 66
1, 603987, Note_on_c, 0, 61, 86
1, 603989, Note_on_c, 0, 66, 80
1, 603991, Note_on_c, 0, 58, 72
1, 603995, Note_on_c, 0, 54, 65
1, 604000, Note_on_c, 0, 73, 67
1, 604006, Note_off_c, 0, 61, 74
1, 604009, Note_on_c, 0, 70, 48
1, 604010, Note_off_c, 0, 66, 63
1, 604015, Note_off_c, 0, 58, 67
1, 604020, Note_off_c, 0, 54, 70
1, 604021, Note_off_c, 0, 73, 68
1, 604029, Note_off_c, 0, 70, 60
1, 604089, Control_c, 0, 64, 83
1, 604103, Control_c, 0, 64, 62
1, 604118, Control_c, 0, 64, 60
1, 604133, Control_c, 0, 64, 74
1, 604141, Note_on_c, 0, 78, 115
1, 604142, Note_on_c, 0, 49, 104
1, 604143, Note_on_c, 0, 90, 105
1, 604144, Note_on_c, 0, 37, 89
1, 604148, Control_c, 0, 64, 127
1, 604166, Note_off_c, 0, 49, 64
1, 604170, Note_off_c, 0, 37, 69
1, 604171, Note_off_c, 0, 78, 69
1, 604171, Note_off_c, 0, 90, 65
1, 604304, Note_on_c, 0, 66, 96
1, 604307, Note_on_c, 0, 58, 85
1, 604308, Note_on_c, 0, 68, 83
1, 604326, Note_off_c, 0, 66, 68
1, 604326, Note_off_c, 0, 68, 68
1, 604330, Note_off_c, 0, 58, 64
1, 604343, Note_on_c, 0, 77, 39
1, 604378, Note_off_c, 0, 77, 49
1, 604474, Note_on_c, 0, 94, 105
1, 604475, Note_on_c, 0, 82, 116
1, 604477, Note_on_c, 0, 42, 88
1, 604477, Note_on_c, 0, 54, 97
1, 604507, Note_off_c, 0, 42, 68
1, 604509, Note_off_c, 0, 82, 65
1, 604509, Note_off_c, 0, 94, 72
1, 604512, Note_off_c, 0, 54, 62
1, 604655, Note_on_c, 0, 70, 99
1, 604657, Note_on_c, 0, 61, 90
1, 604662, Note_on_c, 0, 66, 77
1, 604663, Note_on_c, 0, 82, 78
1, 604664, Note_on_c, 0, 78, 67
1, 604664, Note_on_c, 0, 73, 54
1, 604670, Note_off_c, 0, 70, 75
1, 604676, Note_on_c, 0, 80, 50
1, 604679, Note_off_c, 0, 78, 69
1, 604681, Note_off_c, 0, 66, 72
1, 604685, Note_off_c, 0, 82, 72
1, 604686, Note_off_c, 0, 73, 65
1, 604699, Note_off_c, 0, 80, 59
1, 604700, Note_off_c, 0, 61, 62
1, 604852, Control_c, 0, 64, 57
1, 604867, Control_c, 0, 64, 0
1, 604912, Control_c, 0, 64, 51
1, 604915, Note_on_c, 0, 86, 103
1, 604918, Note_on_c, 0, 98, 101
1, 604922, Note_on_c, 0, 50, 103
1, 604927, Note_on_c, 0, 38, 96
1, 604927, Control_c, 0, 64, 127
1, 604938, Note_off_c, 0, 98, 67
1, 604944, Note_off_c, 0, 86, 71
1, 604952, Note_on_c, 0, 97, 38
1, 604953, Note_off_c, 0, 97, 127
1, 605028, Note_off_c, 0, 50, 57
1, 605034, Note_on_c, 0, 44, 75
1, 605094, Note_on_c, 0, 47, 76
1, 605119, Note_off_c, 0, 38, 59
1, 605147, Note_on_c, 0, 50, 71
1, 605190, Note_on_c, 0, 53, 74
1, 605256, Note_off_c, 0, 53, 64
1, 605258, Note_on_c, 0, 56, 75
1, 605272, Note_on_c, 0, 59, 68
1, 605293, Note_on_c, 0, 65, 70
1, 605332, Note_off_c, 0, 50, 50
1, 605335, Note_off_c, 0, 59, 63
1, 605344, Note_on_c, 0, 53, 88
1, 605352, Note_off_c, 0, 56, 63
1, 605369, Note_off_c, 0, 53, 67
1, 605382, Note_off_c, 0, 65, 62
1, 605415, Note_off_c, 0, 47, 36
1, 605462, Note_on_c, 0, 50, 77
1, 605484, Note_on_c, 0, 59, 102
1, 605487, Note_on_c, 0, 71, 96
1, 605496, Note_off_c, 0, 44, 42
1, 605517, Note_off_c, 0, 59, 69
1, 605522, Note_off_c, 0, 71, 68
1, 605553, Note_on_c, 0, 47, 82
1, 605582, Note_off_c, 0, 50, 57
1, 605627, Note_on_c, 0, 44, 80
1, 605651, Note_off_c, 0, 47, 62
1, 605714, Note_on_c, 0, 37, 85
1, 605731, Note_off_c, 0, 44, 61
1, 605749, Control_c, 0, 64, 101
1, 605764, Control_c, 0, 64, 47
1, 605779, Control_c, 0, 64, 0
1, 605779, Note_on_c, 0, 62, 107
1, 605782, Note_on_c, 0, 74, 103
1, 605817, Note_on_c, 0, 73, 44
1, 605823, Control_c, 0, 64, 127
1, 605842, Note_off_c, 0, 62, 55
1, 605845, Note_off_c, 0, 73, 36
1, 605865, Note_off_c, 0, 74, 63
1, 605918, Note_off_c, 0, 37, 61
1, 605928, Note_on_c, 0, 44, 68
1, 606018, Note_on_c, 0, 47, 76
1, 606053, Note_off_c, 0, 44, 53
1, 606086, Note_on_c, 0, 65, 107
1, 606089, Note_on_c, 0, 77, 107
1, 606091, Note_off_c, 0, 47, 63
1, 606114, Note_on_c, 0, 53, 74
1, 606117, Note_off_c, 0, 65, 71
1, 606134, Note_off_c, 0, 77, 63
1, 606180, Note_off_c, 0, 53, 64
1, 606212, Note_on_c, 0, 56, 72
1, 606304, Note_on_c, 0, 59, 61
1, 606315, Note_off_c, 0, 56, 64
1, 606339, Note_off_c, 0, 59, 64
1, 606343, Note_on_c, 0, 70, 116
1, 606343, Note_on_c, 0, 82, 102
1, 606363, Note_on_c, 0, 65, 79
1, 606415, Note_off_c, 0, 65, 64
1, 606440, Note_on_c, 0, 59, 58
1, 606462, Note_on_c, 0, 56, 76
1, 606470, Note_off_c, 0, 59, 64
1, 606492, Note_off_c, 0, 56, 66
1, 606560, Note_on_c, 0, 53, 69
1, 606594, Note_off_c, 0, 82, 60
1, 606598, Note_off_c, 0, 70, 55
1, 606617, Note_on_c, 0, 47, 76
1, 606618, Note_off_c, 0, 53, 64
1, 606692, Note_on_c, 0, 44, 79
1, 606718, Note_off_c, 0, 47, 62
1, 606751, Note_on_c, 0, 68, 100
1, 606755, Note_on_c, 0, 80, 83
1, 606778, Note_off_c, 0, 80, 65
1, 606790, Note_off_c, 0, 68, 60
1, 606795, Note_off_c, 0, 44, 61
1, 606816, Control_c, 0, 64, 53
1, 606831, Control_c, 0, 64, 0
1, 606851, Note_on_c, 0, 42, 94
1, 606858, Note_on_c, 0, 66, 100
1, 606861, Note_on_c, 0, 78, 87
1, 606863, Note_on_c, 0, 73, 80
1, 606864, Note_on_c, 0, 70, 80
1, 606869, Note_off_c, 0, 42, 69
1, 606876, Control_c, 0, 64, 54
1, 606887, Note_off_c, 0, 70, 65
1, 606890, Control_c, 0, 64, 127
1, 606896, Note_off_c, 0, 73, 58
1, 606898, Note_off_c, 0, 66, 56
1, 606906, Note_off_c, 0, 78, 62
1, 606946, Note_on_c, 0, 42, 22
1, 606980, Note_off_c, 0, 42, 45
1, 607037, Note_on_c, 0, 66, 75
1, 607046, Note_on_c, 0, 73, 52
1, 607054, Note_on_c, 0, 70, 48
1, 607054, Note_on_c, 0, 78, 50
1, 607058, Note_off_c, 0, 66, 63
1, 607067, Note_off_c, 0, 73, 64
1, 607075, Note_off_c, 0, 70, 60
1, 607076, Note_off_c, 0, 78, 61
1, 607152, Note_on_c, 0, 78, 63
1, 607156, Note_on_c, 0, 73, 57
1, 607159, Note_on_c, 0, 66, 46
1, 607160, Note_on_c, 0, 70, 47
1, 607173, Note_on_c, 0, 51, 59
1, 607174, Note_on_c, 0, 63, 56
1, 607180, Note_off_c, 0, 73, 66
1, 607182, Note_off_c, 0, 66, 59
1, 607185, Note_off_c, 0, 70, 57
1, 607186, Note_off_c, 0, 78, 63
1, 607196, Note_off_c, 0, 51, 58
1, 607196, Note_off_c, 0, 63, 60
1, 607288, Note_on_c, 0, 70, 74
1, 607293, Note_on_c, 0, 49, 73
1, 607301, Note_on_c, 0, 78, 65
1, 607311, Note_off_c, 0, 49, 67
1, 607314, Note_off_c, 0, 70, 64
1, 607316, Note_on_c, 0, 73, 31
1, 607323, Note_off_c, 0, 78, 64
1, 607332, Note_on_c, 0, 82, 16
1, 607348, Note_off_c, 0, 73, 57
1, 607375, Note_off_c, 0, 82, 54
1, 607405, Note_on_c, 0, 46, 77
1, 607410, Note_on_c, 0, 70, 75
1, 607412, Note_on_c, 0, 78, 66
1, 607423, Note_on_c, 0, 58, 48
1, 607425, Note_on_c, 0, 73, 54
1, 607428, Note_off_c, 0, 46, 68
1, 607431, Note_off_c, 0, 70, 65
1, 607438, Note_off_c, 0, 78, 68
1, 607443, Note_off_c, 0, 73, 65
1, 607448, Note_off_c, 0, 58, 56
1, 607511, Note_on_c, 0, 56, 66
1, 607514, Note_on_c, 0, 44, 81
1, 607517, Note_on_c, 0, 70, 71
1, 607520, Note_on_c, 0, 73, 64
1, 607528, Note_on_c, 0, 78, 62
1, 607535, Note_off_c, 0, 70, 68
1, 607538, Note_off_c, 0, 73, 69
1, 607540, Note_off_c, 0, 44, 65
1, 607542, Note_off_c, 0, 56, 64
1, 607545, Note_off_c, 0, 78, 68
1, 607610, Note_on_c, 0, 54, 83
1, 607612, Note_on_c, 0, 42, 85
1, 607612, Note_on_c, 0, 73, 92
1, 607618, Note_on_c, 0, 82, 64
1, 607624, Note_on_c, 0, 78, 73
1, 607628, Note_on_c, 0, 85, 70
1, 607637, Note_off_c, 0, 54, 66
1, 607639, Note_off_c, 0, 42, 65
1, 607647, Note_off_c, 0, 78, 70
1, 607649, Note_off_c, 0, 73, 62
1, 607650, Note_off_c, 0, 82, 64
1, 607650, Note_off_c, 0, 85, 69
1, 607703, Note_on_c, 0, 51, 91
1, 607710, Note_on_c, 0, 73, 91
1, 607711, Note_on_c, 0, 39, 82
1, 607724, Note_on_c, 0, 85, 63
1, 607726, Note_on_c, 0, 82, 70
1, 607726, Note_on_c, 0, 78, 74
1, 607736, Note_on_c, 0, 42, 14
1, 607741, Note_off_c, 0, 39, 66
1, 607745, Note_off_c, 0, 73, 58
1, 607747, Note_off_c, 0, 78, 73
1, 607748, Note_off_c, 0, 51, 59
1, 607750, Note_off_c, 0, 85, 67
1, 607750, Note_off_c, 0, 82, 67
1, 607756, Note_off_c, 0, 42, 64
1, 607803, Note_on_c, 0, 49, 93
1, 607807, Note_on_c, 0, 73, 87
1, 607810, Note_on_c, 0, 37, 82
1, 607813, Note_on_c, 0, 85, 81
1, 607815, Note_on_c, 0, 82, 75
1, 607819, Note_on_c, 0, 39, 62
1, 607821, Note_on_c, 0, 78, 75
1, 607825, Note_off_c, 0, 73, 70
1, 607839, Note_off_c, 0, 78, 71
1, 607839, Note_off_c, 0, 82, 67
1, 607840, Note_off_c, 0, 37, 65
1, 607843, Note_off_c, 0, 39, 59
1, 607849, Note_off_c, 0, 49, 63
1, 607855, Note_off_c, 0, 85, 62
1, 607908, Note_on_c, 0, 46, 105
1, 607910, Note_on_c, 0, 78, 101
1, 607912, Note_on_c, 0, 34, 95
1, 607920, Note_on_c, 0, 85, 76
1, 607924, Note_on_c, 0, 82, 76
1, 607928, Note_on_c, 0, 90, 75
1, 607940, Note_on_c, 0, 37, 37
1, 607941, Note_off_c, 0, 37, 127
1, 607941, Note_on_c, 0, 87, 46
1, 607941, Note_off_c, 0, 78, 69
1, 607943, Note_off_c, 0, 82, 73
1, 607944, Note_off_c, 0, 85, 66
1, 607946, Note_off_c, 0, 34, 65
1, 607951, Note_off_c, 0, 46, 64
1, 607955, Note_off_c, 0, 90, 69
1, 607965, Note_off_c, 0, 87, 58
1, 607973, Poly_aftertouch_c, 0, 37, 0
1, 608009, Note_on_c, 0, 44, 100
1, 608011, Note_on_c, 0, 78, 103
1, 608016, Note_on_c, 0, 32, 83
1, 608016, Note_on_c, 0, 82, 87
1, 608019, Note_on_c, 0, 85, 91
1, 608020, Note_on_c, 0, 90, 89
1, 608037, Note_on_c, 0, 34, 54
1, 608043, Note_off_c, 0, 90, 65
1, 608044, Note_on_c, 0, 87, 34
1, 608049, Note_off_c, 0, 32, 65
1, 608052, Note_off_c, 0, 78, 63
1, 608053, Note_off_c, 0, 44, 63
1, 608055, Note_off_c, 0, 85, 60
1, 608056, Note_off_c, 0, 34, 64
1, 608058, Note_off_c, 0, 82, 64
1, 608075, Note_off_c, 0, 87, 54
1, 608107, Note_on_c, 0, 42, 105
1, 608107, Note_on_c, 0, 78, 105
1, 608113, Note_on_c, 0, 90, 93
1, 608114, Note_on_c, 0, 30, 90
1, 608119, Note_on_c, 0, 82, 78
1, 608120, Note_on_c, 0, 85, 75
1, 608129, Note_on_c, 0, 32, 63
1, 608129, Note_on_c, 0, 34, 59
1, 608156, Note_off_c, 0, 78, 60
1, 608159, Note_off_c, 0, 34, 64
1, 608161, Note_off_c, 0, 82, 61
1, 608168, Note_off_c, 0, 85, 64
1, 608177, Note_off_c, 0, 90, 68
1, 608192, Note_off_c, 0, 32, 39
1, 608213, Note_off_c, 0, 42, 60
1, 608240, Note_off_c, 0, 30, 61
1, 608269, Control_c, 0, 64, 72
1, 608284, Control_c, 0, 64, 29
1, 608299, Control_c, 0, 64, 0
1, 608334, Note_on_c, 0, 40, 102
1, 608334, Note_on_c, 0, 83, 109
1, 608334, Note_on_c, 0, 86, 105
1, 608335, Note_on_c, 0, 28, 94
1, 608335, Note_on_c, 0, 95, 107
1, 608341, Note_on_c, 0, 91, 93
1, 608344, Control_c, 0, 64, 50
1, 608359, Control_c, 0, 64, 127
1, 608368, Note_off_c, 0, 28, 68
1, 608371, Note_off_c, 0, 40, 65
1, 608472, Note_on_c, 0, 43, 87
1, 608477, Note_on_c, 0, 31, 80
1, 608497, Note_off_c, 0, 43, 68
1, 608504, Note_off_c, 0, 31, 63
1, 608595, Note_on_c, 0, 47, 96
1, 608600, Note_on_c, 0, 35, 77
1, 608617, Note_off_c, 0, 47, 72
1, 608621, Note_off_c, 0, 35, 62
1, 608655, Note_off_c, 0, 95, 46
1, 608668, Note_off_c, 0, 86, 55
1, 608718, Note_on_c, 0, 52, 98
1, 608725, Note_on_c, 0, 40, 92
1, 608740, Note_off_c, 0, 83, 47
1, 608744, Note_off_c, 0, 91, 56
1, 608746, Note_off_c, 0, 40, 70
1, 608747, Note_off_c, 0, 52, 67
1, 608824, Note_on_c, 0, 55, 108
1, 608830, Note_on_c, 0, 43, 96
1, 608855, Note_off_c, 0, 43, 67
1, 608856, Note_off_c, 0, 55, 64
1, 608862, Poly_aftertouch_c, 0, 40, 0
1, 608890, Poly_aftertouch_c, 0, 40, 0
1, 608937, Control_c, 0, 64, 57
1, 608952, Control_c, 0, 64, 0
1, 609018, Control_c, 0, 64, 36
1, 609024, Note_on_c, 0, 81, 104
1, 609026, Note_on_c, 0, 93, 99
1, 609027, Note_on_c, 0, 90, 100
1, 609028, Note_on_c, 0, 45, 94
1, 609028, Note_on_c, 0, 85, 91
1, 609029, Note_on_c, 0, 33, 91
1, 609033, Control_c, 0, 64, 72
1, 609048, Note_off_c, 0, 45, 71
1, 609048, Control_c, 0, 64, 127
1, 609049, Note_off_c, 0, 33, 69
1, 609134, Note_on_c, 0, 49, 98
1, 609137, Note_on_c, 0, 37, 88
1, 609158, Note_off_c, 0, 49, 65
1, 609165, Note_off_c, 0, 37, 66
1, 609253, Note_on_c, 0, 52, 98
1, 609258, Note_on_c, 0, 40, 92
1, 609275, Note_off_c, 0, 52, 71
1, 609279, Note_off_c, 0, 40, 69
1, 609345, Note_off_c, 0, 93, 50
1, 609365, Note_on_c, 0, 57, 96
1, 609366, Note_off_c, 0, 90, 56
1, 609369, Note_on_c, 0, 45, 87
1, 609387, Note_off_c, 0, 57, 65
1, 609388, Note_off_c, 0, 45, 72
1, 609408, Note_off_c, 0, 81, 50
1, 609476, Note_on_c, 0, 61, 107
1, 609482, Note_on_c, 0, 49, 88
1, 609511, Note_off_c, 0, 85, 61
1, 609572, Note_on_c, 0, 88, 82
1, 609573, Note_on_c, 0, 91, 89
1, 609574, Note_on_c, 0, 79, 98
1, 609622, Note_off_c, 0, 79, 59
1, 609628, Note_off_c, 0, 88, 61
1, 609634, Note_off_c, 0, 91, 57
1, 609642, Note_off_c, 0, 49, 62
1, 609644, Note_off_c, 0, 61, 61
1, 609686, Control_c, 0, 64, 83
1, 609701, Control_c, 0, 64, 58
1, 609715, Control_c, 0, 64, 21
1, 609738, Control_c, 0, 64, 0
1, 609740, Note_on_c, 0, 62, 74
1, 609747, Note_on_c, 0, 50, 68
1, 609782, Control_c, 0, 64, 10
1, 609793, Note_on_c, 0, 78, 83
1, 609797, Control_c, 0, 64, 44
1, 609802, Note_on_c, 0, 86, 69
1, 609804, Note_on_c, 0, 90, 72
1, 609812, Control_c, 0, 64, 64
1, 609819, Note_off_c, 0, 62, 63
1, 609827, Control_c, 0, 64, 127
1, 609851, Note_off_c, 0, 50, 62
1, 609875, Note_off_c, 0, 78, 62
1, 609875, Note_off_c, 0, 90, 65
1, 609877, Note_off_c, 0, 86, 59
1, 609965, Note_on_c, 0, 78, 74
1, 609973, Note_on_c, 0, 90, 60
1, 609974, Note_on_c, 0, 86, 58
1, 610005, Note_off_c, 0, 90, 68
1, 610011, Note_off_c, 0, 86, 61
1, 610014, Note_off_c, 0, 78, 63
1, 610019, Note_on_c, 0, 50, 80
1, 610027, Note_on_c, 0, 38, 72
1, 610094, Control_c, 0, 64, 72
1, 610099, Note_on_c, 0, 78, 74
1, 610102, Note_on_c, 0, 90, 70
1, 610105, Note_on_c, 0, 86, 61
1, 610108, Control_c, 0, 64, 53
1, 610123, Note_off_c, 0, 78, 71
1, 610123, Control_c, 0, 64, 43
1, 610125, Note_off_c, 0, 86, 62
1, 610126, Note_off_c, 0, 90, 68
1, 610133, Note_off_c, 0, 50, 61
1, 610135, Note_off_c, 0, 38, 64
1, 610138, Control_c, 0, 64, 51
1, 610153, Control_c, 0, 64, 72
1, 610168, Control_c, 0, 64, 127
1, 610205, Note_on_c, 0, 49, 90
1, 610213, Note_on_c, 0, 37, 70
1, 610216, Note_on_c, 0, 78, 82
1, 610219, Note_on_c, 0, 74, 80
1, 610219, Note_on_c, 0, 86, 68
1, 610228, Note_off_c, 0, 49, 71
1, 610234, Note_off_c, 0, 37, 63
1, 610243, Note_off_c, 0, 74, 66
1, 610254, Note_off_c, 0, 86, 61
1, 610263, Note_off_c, 0, 78, 62
1, 610326, Note_on_c, 0, 78, 80
1, 610329, Note_on_c, 0, 74, 77
1, 610340, Note_on_c, 0, 86, 63
1, 610350, Note_off_c, 0, 74, 69
1, 610365, Note_off_c, 0, 86, 64
1, 610371, Note_off_c, 0, 78, 64
1, 610382, Note_on_c, 0, 61, 97
1, 610386, Note_on_c, 0, 49, 81
1, 610416, Note_off_c, 0, 49, 62
1, 610427, Note_off_c, 0, 61, 63
1, 610439, Note_on_c, 0, 74, 82
1, 610440, Note_on_c, 0, 86, 80
1, 610443, Note_on_c, 0, 78, 76
1, 610457, Note_off_c, 0, 74, 74
1, 610464, Note_off_c, 0, 78, 70
1, 610475, Note_off_c, 0, 86, 58
1, 610532, Control_c, 0, 64, 68
1, 610546, Control_c, 0, 64, 58
1, 610550, Note_on_c, 0, 78, 96
1, 610556, Note_on_c, 0, 59, 78
1, 610561, Control_c, 0, 64, 60
1, 610563, Note_on_c, 0, 86, 73
1, 610564, Note_on_c, 0, 45, 74
1, 610564, Note_on_c, 0, 47, 68
1, 610565, Note_on_c, 0, 57, 69
1, 610565, Note_on_c, 0, 90, 73
1, 610576, Control_c, 0, 64, 70
1, 610579, Note_off_c, 0, 59, 70
1, 610583, Note_off_c, 0, 57, 65
1, 610589, Note_off_c, 0, 78, 64
1, 610591, Control_c, 0, 64, 127
1, 610591, Note_off_c, 0, 90, 68
1, 610591, Note_off_c, 0, 47, 67
1, 610594, Note_off_c, 0, 45, 65
1, 610594, Note_off_c, 0, 86, 58
1, 610651, Note_on_c, 0, 78, 94
1, 610656, Note_on_c, 0, 90, 82
1, 610668, Note_on_c, 0, 86, 71
1, 610695, Note_off_c, 0, 78, 64
1, 610695, Note_off_c, 0, 86, 64
1, 610708, Note_off_c, 0, 90, 65
1, 610714, Note_on_c, 0, 48, 92
1, 610727, Note_on_c, 0, 35, 74
1, 610728, Note_on_c, 0, 47, 78
1, 610731, Note_on_c, 0, 36, 72
1, 610749, Note_off_c, 0, 47, 62
1, 610755, Note_off_c, 0, 48, 66
1, 610758, Note_off_c, 0, 36, 62
1, 610758, Note_off_c, 0, 35, 66
1, 610760, Note_on_c, 0, 90, 74
1, 610763, Note_on_c, 0, 78, 80
1, 610780, Note_on_c, 0, 86, 57
1, 610784, Note_off_c, 0, 78, 71
1, 610800, Note_off_c, 0, 86, 60
1, 610808, Note_off_c, 0, 90, 67
1, 610813, Control_c, 0, 64, 77
1, 610828, Control_c, 0, 64, 43
1, 610843, Control_c, 0, 64, 0
1, 610863, Note_on_c, 0, 81, 102
1, 610864, Note_on_c, 0, 45, 96
1, 610867, Note_on_c, 0, 33, 88
1, 610869, Note_on_c, 0, 85, 92
1, 610869, Note_on_c, 0, 90, 84
1, 610870, Note_on_c, 0, 93, 90
1, 610886, Note_off_c, 0, 45, 71
1, 610887, Note_off_c, 0, 33, 67
1, 610887, Control_c, 0, 64, 65
1, 610892, Note_off_c, 0, 85, 60
1, 610896, Note_off_c, 0, 81, 61
1, 610902, Control_c, 0, 64, 127
1, 610904, Note_on_c, 0, 92, 32
1, 610904, Note_off_c, 0, 90, 65
1, 610910, Note_off_c, 0, 93, 61
1, 610942, Note_off_c, 0, 92, 31
1, 610973, Note_on_c, 0, 85, 82
1, 610973, Note_on_c, 0, 81, 88
1, 610976, Note_on_c, 0, 90, 78
1, 610979, Note_on_c, 0, 93, 69
1, 610995, Note_off_c, 0, 81, 66
1, 611006, Note_off_c, 0, 85, 58
1, 611007, Note_off_c, 0, 90, 65
1, 611010, Note_off_c, 0, 93, 63
1, 611032, Note_on_c, 0, 57, 95
1, 611034, Note_on_c, 0, 45, 90
1, 611067, Note_off_c, 0, 45, 62
1, 611067, Note_off_c, 0, 57, 61
1, 611077, Note_on_c, 0, 81, 80
1, 611081, Note_on_c, 0, 85, 73
1, 611083, Note_on_c, 0, 90, 72
1, 611089, Note_on_c, 0, 93, 63
1, 611098, Note_off_c, 0, 81, 71
1, 611104, Note_off_c, 0, 85, 70
1, 611111, Control_c, 0, 64, 50
1, 611112, Note_off_c, 0, 90, 69
1, 611112, Note_off_c, 0, 93, 62
1, 611126, Control_c, 0, 64, 0
1, 611167, Note_on_c, 0, 56, 103
1, 611170, Control_c, 0, 64, 56
1, 611171, Note_on_c, 0, 44, 92
1, 611176, Note_on_c, 0, 83, 97
1, 611176, Note_on_c, 0, 86, 95
1, 611182, Note_on_c, 0, 95, 89
1, 611183, Note_on_c, 0, 90, 83
1, 611185, Note_off_c, 0, 56, 73
1, 611185, Control_c, 0, 64, 127
1, 611194, Note_off_c, 0, 44, 68
1, 611200, Note_off_c, 0, 83, 62
1, 611206, Note_off_c, 0, 90, 63
1, 611207, Note_off_c, 0, 95, 61
1, 611211, Note_off_c, 0, 86, 63
1, 611289, Note_on_c, 0, 86, 89
1, 611292, Note_on_c, 0, 83, 81
1, 611298, Note_on_c, 0, 90, 63
1, 611315, Note_off_c, 0, 83, 67
1, 611319, Note_off_c, 0, 90, 62
1, 611321, Note_off_c, 0, 86, 60
1, 611323, Note_on_c, 0, 95, 37
1, 611359, Note_off_c, 0, 95, 53
1, 611392, Note_on_c, 0, 83, 74
1, 611395, Note_on_c, 0, 90, 69
1, 611399, Note_on_c, 0, 86, 73
1, 611419, Note_off_c, 0, 83, 64
1, 611419, Note_off_c, 0, 86, 68
1, 611422, Note_off_c, 0, 90, 69
1, 611459, Control_c, 0, 64, 71
1, 611474, Control_c, 0, 64, 38
1, 611484, Note_on_c, 0, 44, 94
1, 611489, Control_c, 0, 64, 0
1, 611492, Note_on_c, 0, 32, 87
1, 611495, Note_on_c, 0, 83, 76
1, 611495, Note_on_c, 0, 86, 80
1, 611499, Note_on_c, 0, 90, 66
1, 611504, Control_c, 0, 64, 36
1, 611512, Note_on_c, 0, 95, 42
1, 611515, Note_off_c, 0, 83, 70
1, 611518, Control_c, 0, 64, 61
1, 611522, Note_off_c, 0, 86, 62
1, 611528, Note_off_c, 0, 90, 67
1, 611533, Control_c, 0, 64, 127
1, 611545, Note_off_c, 0, 95, 52
1, 611592, Note_on_c, 0, 83, 74
1, 611598, Note_on_c, 0, 86, 80
1, 611607, Note_on_c, 0, 90, 64
1, 611617, Note_off_c, 0, 83, 65
1, 611620, Note_off_c, 0, 86, 65
1, 611626, Note_off_c, 0, 90, 67
1, 611632, Note_on_c, 0, 95, 34
1, 611668, Note_off_c, 0, 95, 53
1, 611676, Note_off_c, 0, 44, 59
1, 611680, Note_off_c, 0, 32, 59
1, 611689, Note_on_c, 0, 83, 67
1, 611694, Note_on_c, 0, 86, 78
1, 611698, Note_on_c, 0, 90, 71
1, 611706, Note_off_c, 0, 83, 70
1, 611713, Note_off_c, 0, 86, 70
1, 611724, Note_off_c, 0, 90, 69
1, 611726, Control_c, 0, 64, 87
1, 611740, Control_c, 0, 64, 39
1, 611756, Control_c, 0, 64, 0
1, 611775, Note_on_c, 0, 43, 93
1, 611777, Note_on_c, 0, 31, 91
1, 611778, Note_on_c, 0, 83, 94
1, 611778, Note_on_c, 0, 86, 96
1, 611785, Control_c, 0, 64, 49
1, 611788, Note_on_c, 0, 89, 83
1, 611791, Note_on_c, 0, 95, 77
1, 611797, Note_off_c, 0, 31, 68
1, 611799, Note_off_c, 0, 43, 70
1, 611800, Control_c, 0, 64, 127
1, 611805, Note_off_c, 0, 83, 64
1, 611809, Note_off_c, 0, 89, 70
1, 611815, Note_off_c, 0, 86, 63
1, 611816, Note_off_c, 0, 95, 67
1, 611882, Note_on_c, 0, 83, 89
1, 611885, Note_on_c, 0, 86, 84
1, 611891, Note_on_c, 0, 89, 82
1, 611894, Note_on_c, 0, 95, 66
1, 611901, Note_off_c, 0, 83, 70
1, 611912, Note_off_c, 0, 89, 68
1, 611913, Note_off_c, 0, 86, 61
1, 611915, Note_off_c, 0, 95, 61
1, 611989, Note_on_c, 0, 83, 85
1, 611994, Note_on_c, 0, 86, 84
1, 611998, Note_on_c, 0, 89, 77
1, 611998, Note_on_c, 0, 95, 67
1, 612010, Note_off_c, 0, 83, 67
1, 612019, Note_off_c, 0, 86, 63
1, 612022, Note_off_c, 0, 89, 69
1, 612022, Note_off_c, 0, 95, 58
1, 612090, Note_on_c, 0, 55, 106
1, 612093, Note_on_c, 0, 43, 101
1, 612094, Note_on_c, 0, 83, 98
1, 612097, Note_on_c, 0, 95, 85
1, 612097, Note_on_c, 0, 86, 95
1, 612100, Note_on_c, 0, 89, 85
1, 612114, Note_off_c, 0, 55, 66
1, 612122, Note_off_c, 0, 43, 67
1, 612128, Note_off_c, 0, 83, 60
1, 612132, Note_on_c, 0, 44, 32
1, 612132, Note_off_c, 0, 95, 65
1, 612132, Note_off_c, 0, 89, 60
1, 612135, Note_off_c, 0, 86, 62
1, 612168, Note_off_c, 0, 44, 50
1, 612201, Note_on_c, 0, 83, 90
1, 612204, Note_on_c, 0, 86, 92
1, 612207, Note_on_c, 0, 89, 85
1, 612212, Note_on_c, 0, 95, 68
1, 612225, Note_off_c, 0, 83, 62
1, 612237, Note_off_c, 0, 95, 59
1, 612242, Note_off_c, 0, 86, 63
1, 612249, Note_off_c, 0, 89, 66
1, 612309, Note_on_c, 0, 95, 82
1, 612311, Note_on_c, 0, 86, 79
1, 612313, Note_on_c, 0, 89, 74
1, 612315, Note_on_c, 0, 83, 68
1, 612330, Note_off_c, 0, 83, 70
1, 612333, Note_off_c, 0, 86, 68
1, 612348, Note_off_c, 0, 89, 66
1, 612357, Note_off_c, 0, 95, 65
1, 612429, Control_c, 0, 64, 60
1, 612444, Control_c, 0, 64, 0
1, 612470, Note_on_c, 0, 42, 113
1, 612472, Note_on_c, 0, 30, 103
1, 612474, Control_c, 0, 64, 22
1, 612475, Note_on_c, 0, 87, 95
1, 612475, Note_on_c, 0, 95, 103
1, 612489, Control_c, 0, 64, 127
1, 612502, Note_off_c, 0, 30, 66
1, 612502, Note_off_c, 0, 42, 61
1, 612517, Note_off_c, 0, 87, 66
1, 612523, Note_on_c, 0, 99, 84
1, 612526, Note_off_c, 0, 95, 66
1, 612592, Note_off_c, 0, 99, 65
1, 612599, Note_on_c, 0, 95, 49
1, 612616, Note_on_c, 0, 87, 64
1, 612617, Note_on_c, 0, 94, 45
1, 612643, Note_off_c, 0, 94, 49
1, 612646, Note_off_c, 0, 87, 64
1, 612658, Note_on_c, 0, 99, 73
1, 612663, Note_off_c, 0, 95, 67
1, 612720, Note_off_c, 0, 99, 64
1, 612734, Note_on_c, 0, 95, 45
1, 612763, Note_on_c, 0, 87, 44
1, 612796, Note_off_c, 0, 87, 51
1, 612800, Note_on_c, 0, 99, 76
1, 612804, Note_on_c, 0, 69, 96
1, 612807, Note_on_c, 0, 57, 91
1, 612810, Note_off_c, 0, 95, 63
1, 612821, Note_off_c, 0, 69, 74
1, 612823, Control_c, 0, 64, 50
1, 612827, Note_off_c, 0, 57, 71
1, 612838, Control_c, 0, 64, 0
1, 612853, Control_c, 0, 64, 22
1, 612857, Note_off_c, 0, 99, 65
1, 612867, Control_c, 0, 64, 56
1, 612875, Note_on_c, 0, 69, 106
1, 612878, Note_on_c, 0, 57, 93
1, 612879, Note_on_c, 0, 87, 82
1, 612880, Note_on_c, 0, 95, 65
1, 612882, Control_c, 0, 64, 127
1, 612910, Note_off_c, 0, 69, 70
1, 612911, Note_off_c, 0, 57, 62
1, 612923, Note_off_c, 0, 87, 65
1, 612940, Note_on_c, 0, 99, 72
1, 612943, Note_off_c, 0, 95, 67
1, 612989, Note_off_c, 0, 99, 63
1, 613009, Note_on_c, 0, 95, 45
1, 613016, Note_on_c, 0, 87, 57
1, 613037, Note_off_c, 0, 87, 63
1, 613051, Note_on_c, 0, 99, 75
1, 613060, Note_off_c, 0, 95, 66
1, 613101, Note_off_c, 0, 99, 64
1, 613110, Note_on_c, 0, 95, 62
1, 613113, Note_on_c, 0, 87, 73
1, 613144, Note_off_c, 0, 87, 65
1, 613156, Note_on_c, 0, 99, 75
1, 613167, Note_off_c, 0, 95, 67
1, 613204, Poly_aftertouch_c, 0, 95, 0
1, 613212, Note_on_c, 0, 95, 58
1, 613218, Note_on_c, 0, 87, 71
1, 613218, Note_off_c, 0, 99, 63
1, 613245, Note_off_c, 0, 87, 64
1, 613259, Note_on_c, 0, 99, 63
1, 613272, Note_off_c, 0, 95, 66
1, 613314, Note_off_c, 0, 99, 63
1, 613325, Note_on_c, 0, 95, 56
1, 613326, Note_on_c, 0, 87, 69
1, 613358, Note_off_c, 0, 87, 62
1, 613373, Note_on_c, 0, 99, 66
1, 613385, Note_off_c, 0, 95, 66
1, 613400, Note_on_c, 0, 63, 73
1, 613402, Note_on_c, 0, 51, 67
1, 613417, Note_off_c, 0, 63, 69
1, 613422, Note_off_c, 0, 51, 63
1, 613426, Note_off_c, 0, 99, 64
1, 613446, Note_on_c, 0, 87, 76
1, 613461, Note_on_c, 0, 95, 54
1, 613465, Note_on_c, 0, 63, 86
1, 613468, Note_on_c, 0, 51, 83
1, 613493, Note_off_c, 0, 63, 65
1, 613493, Note_off_c, 0, 87, 60
1, 613501, Note_on_c, 0, 99, 71
1, 613510, Note_off_c, 0, 51, 58
1, 613517, Note_off_c, 0, 95, 64
1, 613558, Note_off_c, 0, 99, 62
1, 613569, Note_on_c, 0, 95, 54
1, 613575, Note_on_c, 0, 87, 66
1, 613615, Note_off_c, 0, 87, 63
1, 613629, Note_on_c, 0, 99, 71
1, 613643, Note_off_c, 0, 95, 65
1, 613683, Note_on_c, 0, 57, 83
1, 613689, Note_on_c, 0, 45, 75
1, 613691, Note_off_c, 0, 99, 64
1, 613702, Note_off_c, 0, 57, 70
1, 613713, Note_on_c, 0, 87, 64
1, 613713, Note_off_c, 0, 45, 67
1, 613727, Note_on_c, 0, 95, 30
1, 613733, Note_off_c, 0, 87, 67
1, 613753, Note_on_c, 0, 99, 75
1, 613755, Note_on_c, 0, 57, 95
1, 613760, Note_on_c, 0, 45, 92
1, 613760, Poly_aftertouch_c, 0, 46, 127
1, 613765, Note_off_c, 0, 95, 61
1, 613791, Note_off_c, 0, 57, 67
1, 613808, Note_on_c, 0, 87, 72
1, 613813, Note_off_c, 0, 45, 63
1, 613814, Note_on_c, 0, 95, 57
1, 613817, Note_off_c, 0, 99, 65
1, 613832, Poly_aftertouch_c, 0, 46, 0
1, 613854, Note_off_c, 0, 87, 64
1, 613864, Note_on_c, 0, 99, 67
1, 613882, Note_off_c, 0, 95, 65
1, 613937, Note_off_c, 0, 99, 62
1, 613941, Note_on_c, 0, 95, 59
1, 613943, Note_on_c, 0, 87, 65
1, 613946, Note_on_c, 0, 51, 91
1, 613952, Note_on_c, 0, 39, 81
1, 613967, Note_off_c, 0, 51, 69
1, 613970, Note_off_c, 0, 87, 68
1, 613983, Note_off_c, 0, 39, 66
1, 613990, Note_on_c, 0, 99, 65
1, 614004, Note_off_c, 0, 95, 66
1, 614031, Note_on_c, 0, 51, 101
1, 614032, Note_on_c, 0, 39, 94
1, 614049, Note_on_c, 0, 87, 83
1, 614051, Note_off_c, 0, 99, 62
1, 614054, Note_on_c, 0, 95, 65
1, 614069, Note_off_c, 0, 51, 64
1, 614085, Note_off_c, 0, 39, 62
1, 614094, Note_off_c, 0, 87, 65
1, 614109, Note_on_c, 0, 99, 72
1, 614122, Note_off_c, 0, 95, 66
1, 614183, Note_off_c, 0, 99, 63
1, 614189, Note_on_c, 0, 87, 74
1, 614193, Note_on_c, 0, 95, 51
1, 614219, Note_off_c, 0, 87, 63
1, 614224, Poly_aftertouch_c, 0, 99, 0
1, 614238, Note_on_c, 0, 99, 64
1, 614243, Note_on_c, 0, 45, 87
1, 614249, Note_on_c, 0, 33, 82
1, 614260, Note_off_c, 0, 95, 66
1, 614266, Note_off_c, 0, 45, 68
1, 614273, Note_off_c, 0, 33, 68
1, 614296, Note_off_c, 0, 99, 65
1, 614310, Note_on_c, 0, 45, 92
1, 614311, Note_on_c, 0, 87, 93
1, 614320, Note_on_c, 0, 95, 61
1, 614323, Note_on_c, 0, 33, 94
1, 614351, Note_off_c, 0, 87, 66
1, 614365, Note_on_c, 0, 99, 80
1, 614371, Note_off_c, 0, 45, 62
1, 614380, Note_off_c, 0, 95, 66
1, 614385, Note_off_c, 0, 33, 62
1, 614420, Note_on_c, 0, 87, 82
1, 614432, Note_off_c, 0, 99, 66
1, 614448, Note_on_c, 0, 95, 36
1, 614468, Note_off_c, 0, 87, 66
1, 614470, Note_on_c, 0, 94, 16
1, 614482, Note_on_c, 0, 99, 71
1, 614493, Note_off_c, 0, 94, 45
1, 614496, Note_off_c, 0, 95, 65
1, 614547, Note_off_c, 0, 99, 64
1, 614549, Note_on_c, 0, 95, 66
1, 614553, Note_on_c, 0, 87, 71
1, 614577, Note_off_c, 0, 87, 69
1, 614601, Note_on_c, 0, 99, 77
1, 614603, Control_c, 0, 64, 55
1, 614607, Note_on_c, 0, 42, 100
1, 614607, Note_on_c, 0, 39, 93
1, 614613, Note_on_c, 0, 30, 86
1, 614613, Note_on_c, 0, 33, 83
1, 614618, Control_c, 0, 64, 0
1, 614621, Note_off_c, 0, 95, 0
1, 614633, Control_c, 0, 64, 32
1, 614634, Note_on_c, 0, 95, 60
1, 614636, Note_on_c, 0, 87, 82
1, 614647, Control_c, 0, 64, 57
1, 614662, Control_c, 0, 64, 127
1, 614664, Note_off_c, 0, 99, 61
1, 614692, Note_off_c, 0, 87, 65
1, 614693, Note_off_c, 0, 42, 62
1, 614699, Note_off_c, 0, 39, 63
1, 614700, Note_on_c, 0, 99, 62
1, 614711, Note_off_c, 0, 95, 66
1, 614717, Note_off_c, 0, 33, 63
1, 614722, Note_off_c, 0, 30, 61
1, 614753, Note_on_c, 0, 87, 66
1, 614754, Note_on_c, 0, 95, 60
1, 614783, Note_off_c, 0, 99, 62
1, 614821, Note_off_c, 0, 87, 64
1, 614831, Note_off_c, 0, 95, 66
1, 614869, Control_c, 0, 64, 117
1, 614884, Control_c, 0, 64, 45
1, 614899, Control_c, 0, 64, 0
1, 614910, Note_on_c, 0, 40, 103
1, 614911, Note_on_c, 0, 36, 88
1, 614913, Note_on_c, 0, 28, 91
1, 614914, Note_on_c, 0, 31, 91
1, 614916, Note_on_c, 0, 88, 106
1, 614916, Note_on_c, 0, 96, 104
1, 614932, Note_on_c, 0, 89, 71
1, 614944, Note_off_c, 0, 28, 69
1, 614952, Note_off_c, 0, 89, 43
1, 614959, Note_off_c, 0, 31, 67
1, 614959, Control_c, 0, 64, 127
1, 614962, Note_off_c, 0, 40, 67
1, 614970, Note_off_c, 0, 88, 64
1, 614985, Note_off_c, 0, 36, 59
1, 615000, Note_off_c, 0, 96, 65
1, 615006, Note_on_c, 0, 100, 78
1, 615063, Note_on_c, 0, 96, 79
1, 615066, Note_on_c, 0, 88, 80
1, 615067, Note_off_c, 0, 100, 59
1, 615128, Note_off_c, 0, 88, 65
1, 615148, Note_off_c, 0, 96, 62
1, 615153, Note_on_c, 0, 100, 83
1, 615228, Note_off_c, 0, 100, 62
1, 615236, Note_on_c, 0, 70, 102
1, 615242, Note_on_c, 0, 88, 77
1, 615242, Note_on_c, 0, 58, 90
1, 615243, Note_on_c, 0, 96, 72
1, 615265, Note_off_c, 0, 58, 68
1, 615266, Note_off_c, 0, 70, 65
1, 615286, Note_off_c, 0, 88, 65
1, 615307, Note_off_c, 0, 96, 62
1, 615322, Control_c, 0, 64, 78
1, 615326, Note_on_c, 0, 100, 73
1, 615337, Control_c, 0, 64, 32
1, 615344, Note_on_c, 0, 70, 121
1, 615352, Note_on_c, 0, 58, 98
1, 615352, Control_c, 0, 64, 0
1, 615365, Note_on_c, 0, 88, 92
1, 615367, Control_c, 0, 64, 29
1, 615370, Note_on_c, 0, 96, 83
1, 615379, Note_off_c, 0, 100, 66
1, 615381, Control_c, 0, 64, 127
1, 615382, Note_off_c, 0, 70, 69
1, 615395, Note_off_c, 0, 58, 58
1, 615414, Note_off_c, 0, 88, 67
1, 615441, Note_off_c, 0, 96, 65
1, 615447, Note_on_c, 0, 100, 79
1, 615472, Note_off_c, 0, 100, 63
1, 615492, Note_on_c, 0, 96, 67
1, 615493, Note_on_c, 0, 88, 80
1, 615530, Note_off_c, 0, 88, 64
1, 615550, Note_off_c, 0, 96, 64
1, 615551, Note_on_c, 0, 100, 85
1, 615573, Note_off_c, 0, 100, 65
1, 615595, Note_on_c, 0, 96, 63
1, 615603, Note_on_c, 0, 88, 68
1, 615635, Note_off_c, 0, 88, 64
1, 615653, Note_on_c, 0, 100, 82
1, 615666, Note_off_c, 0, 96, 0
1, 615674, Note_off_c, 0, 100, 65
1, 615682, Note_on_c, 0, 96, 50
1, 615697, Note_on_c, 0, 88, 71
1, 615753, Note_off_c, 0, 88, 66
1, 615764, Note_off_c, 0, 96, 62
1, 615766, Note_on_c, 0, 100, 85
1, 615814, Note_off_c, 0, 100, 62
1, 615823, Note_on_c, 0, 96, 55
1, 615828, Note_on_c, 0, 88, 72
1, 615846, Note_on_c, 0, 64, 89
1, 615853, Note_on_c, 0, 52, 82
1, 615868, Note_off_c, 0, 64, 68
1, 615868, Note_off_c, 0, 88, 64
1, 615875, Note_off_c, 0, 52, 73
1, 615882, Note_off_c, 0, 96, 62
1, 615883, Note_on_c, 0, 100, 76
1, 615918, Note_on_c, 0, 64, 95
1, 615921, Note_off_c, 0, 100, 60
1, 615924, Note_on_c, 0, 52, 89
1, 615932, Note_on_c, 0, 88, 80
1, 615933, Note_on_c, 0, 96, 61
1, 615953, Note_off_c, 0, 64, 67
1, 615972, Note_off_c, 0, 52, 67
1, 615979, Note_off_c, 0, 88, 67
1, 615993, Note_on_c, 0, 100, 83
1, 615993, Note_off_c, 0, 96, 64
1, 616040, Note_off_c, 0, 100, 59
1, 616053, Note_on_c, 0, 96, 65
1, 616060, Note_on_c, 0, 88, 74
1, 616098, Note_on_c, 0, 58, 89
1, 616098, Note_off_c, 0, 88, 64
1, 616100, Note_on_c, 0, 46, 87
1, 616113, Note_on_c, 0, 100, 84
1, 616113, Note_off_c, 0, 96, 64
1, 616118, Note_off_c, 0, 58, 69
1, 616124, Note_off_c, 0, 46, 67
1, 616154, Note_off_c, 0, 100, 66
1, 616168, Note_on_c, 0, 58, 98
1, 616172, Note_on_c, 0, 46, 94
1, 616172, Note_on_c, 0, 88, 85
1, 616173, Note_on_c, 0, 96, 71
1, 616216, Note_off_c, 0, 58, 65
1, 616218, Note_off_c, 0, 88, 67
1, 616222, Note_off_c, 0, 46, 64
1, 616237, Note_off_c, 0, 96, 62
1, 616239, Note_on_c, 0, 100, 83
1, 616293, Note_off_c, 0, 100, 59
1, 616307, Note_on_c, 0, 96, 68
1, 616315, Note_on_c, 0, 88, 72
1, 616347, Note_off_c, 0, 88, 65
1, 616359, Note_on_c, 0, 52, 93
1, 616365, Note_on_c, 0, 40, 84
1, 616368, Note_on_c, 0, 100, 84
1, 616370, Note_off_c, 0, 96, 63
1, 616385, Note_off_c, 0, 52, 69
1, 616389, Note_off_c, 0, 40, 69
1, 616410, Note_off_c, 0, 100, 66
1, 616430, Note_on_c, 0, 52, 98
1, 616431, Note_on_c, 0, 88, 86
1, 616432, Note_on_c, 0, 96, 74
1, 616437, Note_on_c, 0, 40, 99
1, 616479, Note_off_c, 0, 88, 67
1, 616481, Note_off_c, 0, 52, 68
1, 616505, Note_on_c, 0, 100, 85
1, 616506, Note_off_c, 0, 96, 65
1, 616511, Note_off_c, 0, 40, 63
1, 616559, Note_on_c, 0, 88, 68
1, 616559, Note_off_c, 0, 100, 64
1, 616563, Note_on_c, 0, 96, 66
1, 616597, Note_off_c, 0, 88, 63
1, 616615, Note_on_c, 0, 100, 81
1, 616619, Note_off_c, 0, 96, 63
1, 616622, Note_on_c, 0, 46, 98
1, 616631, Note_on_c, 0, 34, 74
1, 616645, Note_off_c, 0, 46, 66
1, 616665, Note_off_c, 0, 34, 65
1, 616669, Note_on_c, 0, 88, 68
1, 616672, Note_on_c, 0, 96, 75
1, 616672, Note_off_c, 0, 100, 64
1, 616698, Note_off_c, 0, 88, 65
1, 616699, Note_on_c, 0, 46, 97
1, 616705, Note_on_c, 0, 34, 95
1, 616714, Poly_aftertouch_c, 0, 100, 0
1, 616722, Note_on_c, 0, 100, 76
1, 616732, Note_off_c, 0, 96, 65
1, 616738, Note_off_c, 0, 46, 65
1, 616760, Note_on_c, 0, 88, 63
1, 616762, Note_off_c, 0, 34, 63
1, 616774, Note_on_c, 0, 96, 73
1, 616779, Note_off_c, 0, 100, 63
1, 616833, Note_on_c, 0, 100, 67
1, 616835, Note_off_c, 0, 96, 64
1, 616878, Note_on_c, 0, 96, 69
1, 616886, Note_off_c, 0, 100, 65
1, 616926, Note_off_c, 0, 88, 65
1, 616928, Note_off_c, 0, 96, 65
1, 616952, Control_c, 0, 64, 63
1, 616957, Note_on_c, 0, 100, 87
1, 616960, Note_on_c, 0, 36, 98
1, 616960, Poly_aftertouch_c, 0, 30, 0
1, 616962, Note_on_c, 0, 40, 106
1, 616964, Note_on_c, 0, 31, 97
1, 616967, Control_c, 0, 64, 0
1, 616968, Note_on_c, 0, 88, 74
1, 616970, Note_on_c, 0, 28, 91
1, 616979, Note_on_c, 0, 32, 56
1, 616997, Control_c, 0, 64, 36
1, 617012, Control_c, 0, 64, 87
1, 617012, Note_off_c, 0, 32, 50
1, 617015, Note_on_c, 0, 96, 39
1, 617019, Note_on_c, 0, 95, 43
1, 617026, Control_c, 0, 64, 127
1, 617036, Note_off_c, 0, 100, 66
1, 617037, Note_off_c, 0, 40, 65
1, 617044, Note_off_c, 0, 36, 63
1, 617045, Note_off_c, 0, 96, 49
1, 617055, Note_off_c, 0, 31, 63
1, 617062, Note_off_c, 0, 95, 43
1, 617063, Note_off_c, 0, 28, 59
1, 617081, Note_off_c, 0, 88, 38
1, 617143, Poly_aftertouch_c, 0, 95, 127
1, 617181, Poly_aftertouch_c, 0, 95, 0
1, 617189, Control_c, 0, 64, 92
1, 617204, Control_c, 0, 64, 33
1, 617219, Control_c, 0, 64, 0
1, 617220, Note_on_c, 0, 92, 106
1, 617228, Note_on_c, 0, 35, 76
1, 617228, Note_on_c, 0, 38, 94
1, 617229, Note_on_c, 0, 89, 113
1, 617230, Note_on_c, 0, 26, 91
1, 617230, Note_on_c, 0, 32, 82
1, 617231, Note_on_c, 0, 95, 86
1, 617234, Note_on_c, 0, 101, 101
1, 617252, Note_off_c, 0, 26, 65
1, 617254, Note_off_c, 0, 101, 71
1, 617255, Note_on_c, 0, 100, 58
1, 617260, Note_off_c, 0, 95, 60
1, 617263, Note_off_c, 0, 35, 65
1, 617265, Note_off_c, 0, 32, 65
1, 617269, Note_on_c, 0, 98, 40
1, 617271, Control_c, 0, 64, 52
1, 617275, Note_off_c, 0, 38, 66
1, 617275, Note_off_c, 0, 100, 61
1, 617279, Note_off_c, 0, 89, 69
1, 617279, Note_off_c, 0, 92, 69
1, 617285, Control_c, 0, 64, 127
1, 617301, Note_off_c, 0, 98, 58
1, 617446, Note_on_c, 0, 74, 87
1, 617447, Note_on_c, 0, 62, 85
1, 617456, Note_on_c, 0, 86, 78
1, 617463, Note_off_c, 0, 74, 73
1, 617471, Note_off_c, 0, 62, 68
1, 617477, Note_off_c, 0, 86, 69
1, 617511, Note_on_c, 0, 62, 80
1, 617514, Note_on_c, 0, 74, 94
1, 617520, Note_on_c, 0, 86, 90
1, 617537, Note_off_c, 0, 86, 69
1, 617549, Note_off_c, 0, 62, 63
1, 617554, Note_off_c, 0, 74, 66
1, 617578, Note_on_c, 0, 60, 8
1, 617601, Note_off_c, 0, 60, 0
1, 617623, Poly_aftertouch_c, 0, 60, 0
1, 617675, Note_on_c, 0, 56, 92
1, 617686, Note_on_c, 0, 68, 81
1, 617692, Note_on_c, 0, 80, 61
1, 617695, Note_off_c, 0, 56, 71
1, 617700, Note_off_c, 0, 68, 69
1, 617710, Note_off_c, 0, 80, 65
1, 617738, Note_on_c, 0, 56, 104
1, 617741, Note_on_c, 0, 68, 102
1, 617748, Note_on_c, 0, 80, 93
1, 617773, Note_off_c, 0, 56, 62
1, 617782, Note_off_c, 0, 68, 63
1, 617787, Note_off_c, 0, 80, 62
1, 617790, Poly_aftertouch_c, 0, 66, 0
1, 617917, Note_on_c, 0, 50, 95
1, 617922, Note_on_c, 0, 62, 86
1, 617936, Note_off_c, 0, 50, 72
1, 617937, Note_on_c, 0, 74, 67
1, 617945, Note_off_c, 0, 62, 66
1, 617956, Note_off_c, 0, 74, 66
1, 617990, Note_on_c, 0, 50, 101
1, 617992, Note_on_c, 0, 62, 98
1, 618002, Note_on_c, 0, 74, 83
1, 618026, Note_off_c, 0, 74, 66
1, 618035, Note_off_c, 0, 50, 63
1, 618041, Note_on_c, 0, 73, 32
1, 618043, Note_off_c, 0, 62, 61
1, 618073, Note_off_c, 0, 73, 55
1, 618085, Poly_aftertouch_c, 0, 46, 0
1, 618161, Note_on_c, 0, 44, 88
1, 618164, Note_on_c, 0, 56, 91
1, 618177, Note_on_c, 0, 68, 64
1, 618184, Note_off_c, 0, 44, 70
1, 618185, Note_off_c, 0, 56, 71
1, 618201, Note_off_c, 0, 68, 57
1, 618225, Note_on_c, 0, 44, 99
1, 618229, Note_on_c, 0, 56, 102
1, 618244, Note_on_c, 0, 68, 80
1, 618261, Note_off_c, 0, 68, 72
1, 618274, Note_off_c, 0, 44, 62
1, 618285, Note_off_c, 0, 56, 63
1, 618325, Poly_aftertouch_c, 0, 46, 0
1, 618421, Control_c, 0, 64, 67
1, 618424, Note_on_c, 0, 50, 98
1, 618425, Note_on_c, 0, 62, 99
1, 618428, Note_on_c, 0, 38, 87
1, 618436, Control_c, 0, 64, 37
1, 618444, Note_off_c, 0, 50, 72
1, 618451, Control_c, 0, 64, 0
1, 618454, Note_off_c, 0, 38, 69
1, 618459, Note_off_c, 0, 62, 61
1, 618466, Control_c, 0, 64, 43
1, 618480, Control_c, 0, 64, 74
1, 618495, Control_c, 0, 64, 127
1, 618498, Note_on_c, 0, 50, 100
1, 618500, Note_on_c, 0, 38, 99
1, 618501, Note_on_c, 0, 62, 97
1, 618529, Note_on_c, 0, 39, 35
1, 618533, Note_off_c, 0, 50, 67
1, 618544, Note_off_c, 0, 38, 64
1, 618557, Note_off_c, 0, 62, 62
1, 618565, Note_off_c, 0, 39, 31
1, 618741, Note_on_c, 0, 44, 102
1, 618747, Note_on_c, 0, 32, 85
1, 618749, Note_on_c, 0, 56, 78
1, 618770, Note_off_c, 0, 44, 63
1, 618772, Note_off_c, 0, 32, 65
1, 618780, Note_off_c, 0, 56, 66
1, 618828, Note_on_c, 0, 56, 108
1, 618828, Control_c, 0, 64, 56
1, 618834, Note_on_c, 0, 44, 113
1, 618836, Note_on_c, 0, 32, 95
1, 618842, Control_c, 0, 64, 0
1, 618857, Control_c, 0, 64, 24
1, 618860, Note_off_c, 0, 56, 70
1, 618869, Note_off_c, 0, 32, 66
1, 618872, Control_c, 0, 64, 67
1, 618874, Note_on_c, 0, 42, 39
1, 618875, Note_off_c, 0, 42, 127
1, 618887, Control_c, 0, 64, 127
1, 618890, Note_off_c, 0, 44, 62
1, 618910, Poly_aftertouch_c, 0, 42, 0
1, 619096, Control_c, 0, 64, 63
1, 619111, Control_c, 0, 64, 32
1, 619126, Control_c, 0, 64, 0
1, 619163, Note_on_c, 0, 56, 64
1, 619212, Note_on_c, 0, 62, 63
1, 619220, Note_on_c, 0, 65, 78
1, 619230, Note_off_c, 0, 56, 64
1, 619236, Note_on_c, 0, 83, 102
1, 619239, Note_on_c, 0, 86, 98
1, 619241, Note_on_c, 0, 89, 93
1, 619241, Note_on_c, 0, 95, 103
1, 619243, Note_on_c, 0, 71, 101
1, 619244, Control_c, 0, 64, 59
1, 619259, Control_c, 0, 64, 127
1, 619264, Note_off_c, 0, 62, 61
1, 619268, Note_on_c, 0, 92, 53
1, 619271, Note_off_c, 0, 71, 72
1, 619272, Note_off_c, 0, 65, 64
1, 619275, Note_off_c, 0, 95, 68
1, 619278, Note_off_c, 0, 83, 69
1, 619286, Note_off_c, 0, 86, 67
1, 619289, Note_off_c, 0, 89, 67
1, 619297, Note_off_c, 0, 92, 57
1, 619622, Note_on_c, 0, 87, 35
1, 619654, Note_off_c, 0, 87, 47
1, 619710, Control_c, 0, 64, 65
1, 619713, Note_on_c, 0, 65, 70
1, 619716, Note_on_c, 0, 56, 64
1, 619719, Note_on_c, 0, 89, 68
1, 619719, Note_on_c, 0, 86, 67
1, 619721, Note_on_c, 0, 62, 61
1, 619725, Note_on_c, 0, 83, 76
1, 619725, Note_on_c, 0, 95, 78
1, 619725, Control_c, 0, 64, 51
1, 619741, Control_c, 0, 64, 44
1, 619756, Control_c, 0, 64, 52
1, 619770, Control_c, 0, 64, 65
1, 619785, Control_c, 0, 64, 127
1, 619805, Note_off_c, 0, 65, 63
1, 619815, Note_off_c, 0, 86, 61
1, 619820, Note_off_c, 0, 95, 60
1, 619827, Note_off_c, 0, 56, 66
1, 619829, Note_off_c, 0, 62, 62
1, 619829, Note_off_c, 0, 83, 55
1, 619829, Note_off_c, 0, 89, 64
1, 619904, Control_c, 0, 64, 67
1, 619911, Note_on_c, 0, 57, 71
1, 619916, Note_on_c, 0, 66, 81
1, 619917, Note_on_c, 0, 63, 71
1, 619919, Control_c, 0, 64, 52
1, 619920, Note_on_c, 0, 90, 82
1, 619925, Note_on_c, 0, 83, 79
1, 619931, Note_on_c, 0, 87, 65
1, 619933, Note_on_c, 0, 95, 58
1, 619933, Control_c, 0, 64, 47
1, 619948, Control_c, 0, 64, 58
1, 619963, Control_c, 0, 64, 108
1, 619970, Note_off_c, 0, 95, 49
1, 619973, Note_off_c, 0, 57, 63
1, 619978, Control_c, 0, 64, 127
1, 619990, Note_off_c, 0, 66, 62
1, 619990, Note_off_c, 0, 83, 62
1, 619996, Note_off_c, 0, 63, 63
1, 619997, Note_off_c, 0, 90, 65
1, 620000, Note_off_c, 0, 87, 59
1, 620037, Control_c, 0, 64, 88
1, 620051, Control_c, 0, 64, 62
1, 620062, Note_on_c, 0, 67, 83
1, 620065, Note_on_c, 0, 64, 69
1, 620066, Control_c, 0, 64, 59
1, 620069, Note_on_c, 0, 58, 75
1, 620072, Note_on_c, 0, 88, 72
1, 620072, Note_on_c, 0, 91, 77
1, 620075, Note_on_c, 0, 83, 76
1, 620081, Control_c, 0, 64, 68
1, 620095, Control_c, 0, 64, 127
1, 620102, Note_on_c, 0, 95, 39
1, 620110, Note_off_c, 0, 67, 66
1, 620127, Note_off_c, 0, 64, 61
1, 620128, Note_off_c, 0, 58, 62
1, 620128, Note_off_c, 0, 83, 62
1, 620130, Note_off_c, 0, 91, 57
1, 620136, Note_off_c, 0, 95, 48
1, 620137, Note_off_c, 0, 88, 64
1, 620155, Control_c, 0, 64, 69
1, 620169, Control_c, 0, 64, 66
1, 620184, Control_c, 0, 64, 79
1, 620199, Control_c, 0, 64, 127
1, 620202, Note_on_c, 0, 68, 88
1, 620208, Note_on_c, 0, 65, 66
1, 620208, Note_on_c, 0, 59, 71
1, 620209, Note_on_c, 0, 83, 78
1, 620220, Note_on_c, 0, 92, 79
1, 620221, Note_on_c, 0, 89, 72
1, 620235, Note_on_c, 0, 95, 52
1, 620261, Note_off_c, 0, 59, 61
1, 620262, Note_off_c, 0, 95, 65
1, 620269, Note_off_c, 0, 65, 64
1, 620270, Note_off_c, 0, 68, 59
1, 620272, Note_off_c, 0, 83, 63
1, 620274, Note_off_c, 0, 89, 64
1, 620281, Control_c, 0, 64, 82
1, 620297, Note_off_c, 0, 92, 64
1, 620310, Control_c, 0, 64, 110
1, 620325, Control_c, 0, 64, 127
1, 620350, Note_on_c, 0, 69, 80
1, 620351, Note_on_c, 0, 93, 78
1, 620351, Note_on_c, 0, 60, 78
1, 620353, Note_on_c, 0, 83, 79
1, 620356, Note_on_c, 0, 66, 74
1, 620357, Note_on_c, 0, 95, 73
1, 620360, Note_on_c, 0, 90, 74
1, 620380, Note_off_c, 0, 69, 68
1, 620384, Control_c, 0, 64, 69
1, 620390, Note_off_c, 0, 60, 62
1, 620393, Note_off_c, 0, 95, 62
1, 620395, Note_off_c, 0, 66, 63
1, 620399, Control_c, 0, 64, 58
1, 620403, Note_off_c, 0, 83, 65
1, 620412, Note_off_c, 0, 93, 63
1, 620414, Control_c, 0, 64, 56
1, 620416, Note_off_c, 0, 90, 66
1, 620429, Control_c, 0, 64, 64
1, 620443, Control_c, 0, 64, 88
1, 620458, Control_c, 0, 64, 127
1, 620475, Note_on_c, 0, 68, 84
1, 620479, Note_on_c, 0, 59, 71
1, 620480, Note_on_c, 0, 65, 76
1, 620482, Note_on_c, 0, 83, 85
1, 620482, Note_on_c, 0, 92, 84
1, 620499, Note_on_c, 0, 89, 63
1, 620499, Note_on_c, 0, 95, 73
1, 620515, Note_on_c, 0, 88, 51
1, 620518, Control_c, 0, 64, 83
1, 620523, Note_off_c, 0, 59, 62
1, 620529, Note_off_c, 0, 95, 66
1, 620533, Control_c, 0, 64, 61
1, 620533, Note_off_c, 0, 83, 61
1, 620538, Note_off_c, 0, 65, 64
1, 620539, Note_off_c, 0, 68, 57
1, 620545, Note_off_c, 0, 88, 56
1, 620545, Note_off_c, 0, 92, 67
1, 620548, Note_off_c, 0, 89, 64
1, 620548, Control_c, 0, 64, 52
1, 620563, Control_c, 0, 64, 56
1, 620578, Control_c, 0, 64, 71
1, 620592, Control_c, 0, 64, 127
1, 620608, Note_on_c, 0, 67, 84
1, 620609, Note_on_c, 0, 59, 77
1, 620613, Note_on_c, 0, 88, 77
1, 620615, Note_on_c, 0, 83, 87
1, 620618, Note_on_c, 0, 64, 64
1, 620619, Note_on_c, 0, 91, 77
1, 620625, Note_on_c, 0, 95, 76
1, 620637, Note_off_c, 0, 64, 65
1, 620652, Note_off_c, 0, 59, 64
1, 620652, Control_c, 0, 64, 83
1, 620655, Note_off_c, 0, 67, 65
1, 620659, Note_off_c, 0, 88, 64
1, 620666, Note_off_c, 0, 83, 60
1, 620667, Control_c, 0, 64, 61
1, 620673, Note_off_c, 0, 91, 59
1, 620673, Note_off_c, 0, 95, 62
1, 620682, Control_c, 0, 64, 58
1, 620697, Control_c, 0, 64, 67
1, 620711, Control_c, 0, 64, 127
1, 620736, Note_on_c, 0, 66, 91
1, 620741, Note_on_c, 0, 56, 73
1, 620743, Note_on_c, 0, 63, 71
1, 620746, Note_on_c, 0, 83, 84
1, 620746, Note_on_c, 0, 87, 80
1, 620746, Note_on_c, 0, 90, 84
1, 620753, Note_on_c, 0, 95, 72
1, 620771, Control_c, 0, 64, 98
1, 620777, Note_on_c, 0, 58, 35
1, 620786, Control_c, 0, 64, 67
1, 620794, Note_off_c, 0, 56, 62
1, 620795, Note_off_c, 0, 83, 63
1, 620798, Note_off_c, 0, 63, 63
1, 620799, Note_off_c, 0, 66, 62
1, 620800, Control_c, 0, 64, 64
1, 620801, Note_off_c, 0, 95, 65
1, 620805, Note_off_c, 0, 58, 54
1, 620805, Note_off_c, 0, 87, 62
1, 620814, Note_off_c, 0, 90, 67
1, 620815, Control_c, 0, 64, 72
1, 620830, Control_c, 0, 64, 127
1, 620860, Note_on_c, 0, 62, 81
1, 620864, Note_on_c, 0, 65, 81
1, 620866, Note_on_c, 0, 56, 71
1, 620868, Note_on_c, 0, 86, 81
1, 620870, Note_on_c, 0, 89, 86
1, 620875, Note_on_c, 0, 83, 80
1, 620888, Note_on_c, 0, 95, 64
1, 620889, Control_c, 0, 64, 72
1, 620890, Note_on_c, 0, 58, 45
1, 620901, Note_off_c, 0, 65, 62
1, 620904, Control_c, 0, 64, 66
1, 620906, Note_off_c, 0, 62, 63
1, 620914, Note_off_c, 0, 56, 63
1, 620914, Note_off_c, 0, 58, 56
1, 620916, Note_off_c, 0, 86, 62
1, 620918, Control_c, 0, 64, 72
1, 620920, Note_off_c, 0, 95, 66
1, 620925, Note_off_c, 0, 89, 65
1, 620929, Note_off_c, 0, 83, 62
1, 620933, Control_c, 0, 64, 105
1, 620948, Control_c, 0, 64, 127
1, 620986, Control_c, 0, 64, 109
1, 620992, Note_on_c, 0, 66, 97
1, 620992, Note_on_c, 0, 57, 77
1, 621000, Note_on_c, 0, 63, 75
1, 621000, Control_c, 0, 64, 92
1, 621005, Note_on_c, 0, 83, 84
1, 621007, Note_on_c, 0, 90, 84
1, 621015, Control_c, 0, 64, 127
1, 621022, Note_on_c, 0, 95, 66
1, 621037, Note_off_c, 0, 57, 65
1, 621040, Note_off_c, 0, 95, 66
1, 621042, Note_on_c, 0, 88, 46
1, 621052, Note_off_c, 0, 66, 60
1, 621052, Note_off_c, 0, 83, 63
1, 621054, Note_on_c, 0, 92, 23
1, 621054, Note_off_c, 0, 63, 64
1, 621057, Note_off_c, 0, 90, 66
1, 621064, Poly_aftertouch_c, 0, 58, 0
1, 621069, Note_off_c, 0, 88, 56
1, 621089, Control_c, 0, 64, 89
1, 621092, Poly_aftertouch_c, 0, 58, 0
1, 621099, Note_off_c, 0, 92, 40
1, 621104, Control_c, 0, 64, 83
1, 621106, Note_on_c, 0, 58, 65
1, 621109, Note_on_c, 0, 67, 87
1, 621111, Note_on_c, 0, 64, 80
1, 621118, Control_c, 0, 64, 98
1, 621120, Note_on_c, 0, 83, 85
1, 621120, Note_on_c, 0, 91, 81
1, 621124, Note_on_c, 0, 88, 80
1, 621131, Note_on_c, 0, 95, 65
1, 621133, Control_c, 0, 64, 127
1, 621138, Note_off_c, 0, 67, 65
1, 621144, Note_on_c, 0, 90, 50
1, 621157, Note_off_c, 0, 64, 62
1, 621158, Note_off_c, 0, 95, 68
1, 621162, Note_off_c, 0, 91, 61
1, 621163, Note_off_c, 0, 83, 63
1, 621168, Note_off_c, 0, 58, 62
1, 621171, Note_off_c, 0, 88, 65
1, 621171, Note_off_c, 0, 90, 59
1, 621219, Note_on_c, 0, 68, 99
1, 621227, Note_on_c, 0, 59, 75
1, 621230, Note_on_c, 0, 83, 91
1, 621234, Note_on_c, 0, 89, 86
1, 621234, Note_on_c, 0, 92, 90
1, 621237, Note_on_c, 0, 65, 54
1, 621239, Note_on_c, 0, 64, 62
1, 621248, Note_on_c, 0, 95, 64
1, 621261, Note_off_c, 0, 59, 63
1, 621263, Note_off_c, 0, 64, 69
1, 621267, Note_off_c, 0, 68, 61
1, 621267, Note_off_c, 0, 95, 66
1, 621269, Note_off_c, 0, 83, 66
1, 621272, Note_off_c, 0, 65, 67
1, 621281, Note_off_c, 0, 89, 66
1, 621295, Note_off_c, 0, 92, 65
1, 621332, Note_on_c, 0, 69, 96
1, 621338, Note_on_c, 0, 59, 72
1, 621344, Note_on_c, 0, 66, 86
1, 621344, Note_on_c, 0, 83, 95
1, 621344, Note_on_c, 0, 93, 93
1, 621349, Note_on_c, 0, 95, 88
1, 621354, Note_on_c, 0, 90, 82
1, 621370, Note_off_c, 0, 59, 63
1, 621373, Note_off_c, 0, 69, 69
1, 621376, Note_off_c, 0, 95, 65
1, 621379, Note_off_c, 0, 66, 62
1, 621382, Note_off_c, 0, 83, 67
1, 621395, Note_off_c, 0, 93, 63
1, 621403, Note_off_c, 0, 90, 63
1, 621454, Note_on_c, 0, 68, 96
1, 621457, Note_on_c, 0, 83, 101
1, 621457, Note_on_c, 0, 92, 96
1, 621460, Control_c, 0, 64, 79
1, 621461, Note_on_c, 0, 65, 78
1, 621469, Note_on_c, 0, 89, 76
1, 621473, Note_on_c, 0, 95, 80
1, 621474, Note_on_c, 0, 59, 59
1, 621475, Control_c, 0, 64, 62
1, 621490, Control_c, 0, 64, 61
1, 621491, Note_off_c, 0, 65, 64
1, 621493, Note_off_c, 0, 95, 71
1, 621496, Note_off_c, 0, 83, 63
1, 621498, Note_off_c, 0, 92, 66
1, 621499, Note_off_c, 0, 59, 59
1, 621501, Note_off_c, 0, 89, 61
1, 621504, Note_off_c, 0, 68, 58
1, 621504, Control_c, 0, 64, 69
1, 621519, Control_c, 0, 64, 117
1, 621534, Control_c, 0, 64, 127
1, 621563, Note_on_c, 0, 63, 86
1, 621570, Note_on_c, 0, 91, 56
1, 621570, Note_on_c, 0, 57, 80
1, 621570, Note_on_c, 0, 83, 96
1, 621573, Note_on_c, 0, 66, 88
1, 621576, Note_on_c, 0, 95, 78
1, 621586, Note_off_c, 0, 66, 70
1, 621587, Note_on_c, 0, 88, 68
1, 621597, Note_off_c, 0, 57, 63
1, 621607, Note_off_c, 0, 83, 66
1, 621608, Note_off_c, 0, 63, 65
1, 621611, Note_off_c, 0, 88, 70
1, 621615, Note_off_c, 0, 95, 66
1, 621622, Note_off_c, 0, 91, 61
1, 621653, Control_c, 0, 64, 79
1, 621655, Note_on_c, 0, 66, 26
1, 621665, Note_on_c, 0, 83, 104
1, 621667, Control_c, 0, 64, 32
1, 621668, Note_on_c, 0, 87, 102
1, 621668, Note_on_c, 0, 95, 93
1, 621670, Note_on_c, 0, 57, 81
1, 621670, Note_on_c, 0, 90, 96
1, 621674, Note_on_c, 0, 63, 74
1, 621682, Control_c, 0, 64, 0
1, 621686, Note_on_c, 0, 92, 66
1, 621698, Note_off_c, 0, 83, 66
1, 621703, Note_off_c, 0, 87, 68
1, 621704, Note_off_c, 0, 57, 63
1, 621704, Note_off_c, 0, 92, 65
1, 621706, Note_off_c, 0, 95, 67
1, 621710, Note_off_c, 0, 66, 61
1, 621710, Note_off_c, 0, 90, 65
1, 621720, Note_off_c, 0, 63, 45
1, 621856, Note_on_c, 0, 56, 67
1, 621890, Note_on_c, 0, 62, 71
1, 621897, Control_c, 0, 64, 48
1, 621898, Note_on_c, 0, 65, 78
1, 621907, Note_off_c, 0, 56, 67
1, 621907, Note_on_c, 0, 83, 112
1, 621909, Note_on_c, 0, 86, 89
1, 621909, Note_on_c, 0, 89, 90
1, 621912, Control_c, 0, 64, 127
1, 621913, Note_on_c, 0, 95, 94
1, 621919, Note_on_c, 0, 71, 103
1, 621930, Note_on_c, 0, 69, 70
1, 621931, Note_off_c, 0, 69, 127
1, 621931, Note_off_c, 0, 95, 72
1, 621934, Note_off_c, 0, 62, 62
1, 621934, Note_off_c, 0, 65, 68
1, 621944, Note_off_c, 0, 71, 70
1, 621945, Note_off_c, 0, 89, 65
1, 621948, Note_on_c, 0, 92, 48
1, 621949, Note_off_c, 0, 92, 127
1, 621955, Note_off_c, 0, 83, 68
1, 621956, Note_off_c, 0, 86, 60
1, 622371, Control_c, 0, 64, 83
1, 622386, Control_c, 0, 64, 53
1, 622401, Control_c, 0, 64, 0
1, 622771, Note_on_c, 0, 86, 89
1, 622771, Note_on_c, 0, 44, 99
1, 622773, Note_on_c, 0, 32, 95
1, 622773, Note_on_c, 0, 89, 86
1, 622774, Note_on_c, 0, 83, 95
1, 622775, Note_on_c, 0, 95, 91
1, 622790, Note_on_c, 0, 42, 62
1, 622791, Note_off_c, 0, 42, 127
1, 622800, Note_off_c, 0, 83, 62
1, 622802, Note_off_c, 0, 32, 69
1, 622805, Note_on_c, 0, 92, 36
1, 622807, Note_off_c, 0, 44, 67
1, 622808, Note_off_c, 0, 95, 59
1, 622812, Note_off_c, 0, 89, 66
1, 622822, Note_off_c, 0, 86, 60
1, 622839, Note_off_c, 0, 92, 50
1, 622867, Control_c, 0, 64, 127
1, 622873, Note_on_c, 0, 45, 105
1, 622874, Note_on_c, 0, 83, 112
1, 622876, Note_on_c, 0, 86, 83
1, 622878, Note_on_c, 0, 95, 97
1, 622879, Note_on_c, 0, 33, 90
1, 622879, Note_on_c, 0, 90, 99
1, 622897, Note_on_c, 0, 34, 54
1, 622902, Note_off_c, 0, 33, 68
1, 622912, Note_off_c, 0, 45, 68
1, 622923, Note_on_c, 0, 92, 27
1, 622925, Note_off_c, 0, 34, 57
1, 622947, Note_off_c, 0, 95, 62
1, 622975, Note_off_c, 0, 83, 51
1, 622982, Note_off_c, 0, 92, 39
1, 623032, Note_off_c, 0, 86, 54
1, 623063, Note_off_c, 0, 90, 57
1, 623132, Note_on_c, 0, 70, 105
1, 623133, Note_on_c, 0, 62, 66
1, 623134, Note_on_c, 0, 82, 86
1, 623135, Control_c, 0, 64, 67
1, 623138, Note_on_c, 0, 66, 86
1, 623147, Note_on_c, 0, 86, 68
1, 623150, Control_c, 0, 64, 49
1, 623165, Control_c, 0, 64, 50
1, 623180, Control_c, 0, 64, 64
1, 623181, Note_off_c, 0, 82, 62
1, 623184, Note_on_c, 0, 94, 77
1, 623194, Control_c, 0, 64, 103
1, 623215, Note_off_c, 0, 86, 60
1, 623216, Control_c, 0, 64, 127
1, 623263, Note_on_c, 0, 82, 74
1, 623263, Note_off_c, 0, 94, 62
1, 623269, Note_on_c, 0, 86, 60
1, 623299, Note_off_c, 0, 70, 60
1, 623308, Note_off_c, 0, 82, 61
1, 623314, Note_on_c, 0, 94, 67
1, 623326, Note_off_c, 0, 66, 60
1, 623329, Note_off_c, 0, 62, 60
1, 623340, Note_off_c, 0, 94, 69
1, 623365, Note_off_c, 0, 86, 0
1, 623365, Control_c, 0, 64, 74
1, 623379, Control_c, 0, 64, 56
1, 623380, Note_on_c, 0, 69, 96
1, 623381, Note_on_c, 0, 66, 78
1, 623382, Note_on_c, 0, 86, 47
1, 623384, Note_on_c, 0, 81, 88
1, 623387, Note_on_c, 0, 62, 69
1, 623394, Control_c, 0, 64, 43
1, 623396, Note_on_c, 0, 57, 75
1, 623409, Control_c, 0, 64, 46
1, 623424, Control_c, 0, 64, 55
1, 623426, Note_on_c, 0, 93, 79
1, 623435, Note_off_c, 0, 81, 61
1, 623438, Control_c, 0, 64, 64
1, 623453, Control_c, 0, 64, 79
1, 623454, Note_off_c, 0, 86, 61
1, 623468, Control_c, 0, 64, 108
1, 623474, Note_off_c, 0, 66, 62
1, 623476, Note_off_c, 0, 93, 63
1, 623483, Control_c, 0, 64, 127
1, 623497, Note_off_c, 0, 62, 62
1, 623505, Note_on_c, 0, 81, 81
1, 623515, Note_on_c, 0, 86, 54
1, 623520, Note_off_c, 0, 69, 67
1, 623547, Note_off_c, 0, 81, 62
1, 623549, Note_on_c, 0, 93, 78
1, 623558, Note_off_c, 0, 57, 59
1, 623572, Control_c, 0, 64, 117
1, 623586, Control_c, 0, 64, 68
1, 623588, Note_off_c, 0, 86, 58
1, 623590, Note_off_c, 0, 93, 61
1, 623601, Control_c, 0, 64, 58
1, 623620, Note_on_c, 0, 86, 46
1, 623624, Note_on_c, 0, 68, 103
1, 623627, Note_on_c, 0, 80, 87
1, 623629, Note_on_c, 0, 62, 79
1, 623631, Control_c, 0, 64, 69
1, 623642, Note_on_c, 0, 57, 74
1, 623645, Control_c, 0, 64, 127
1, 623664, Note_off_c, 0, 80, 61
1, 623679, Note_on_c, 0, 92, 76
1, 623687, Note_off_c, 0, 86, 62
1, 623708, Note_on_c, 0, 90, 45
1, 623735, Note_on_c, 0, 86, 56
1, 623739, Note_on_c, 0, 80, 69
1, 623740, Note_off_c, 0, 92, 62
1, 623741, Note_off_c, 0, 90, 58
1, 623781, Note_off_c, 0, 62, 59
1, 623785, Note_off_c, 0, 68, 56
1, 623787, Note_off_c, 0, 57, 60
1, 623788, Note_off_c, 0, 80, 61
1, 623812, Note_on_c, 0, 91, 67
1, 623846, Note_off_c, 0, 91, 54
1, 623848, Note_off_c, 0, 86, 0
1, 623857, Note_on_c, 0, 67, 83
1, 623861, Note_on_c, 0, 57, 69
1, 623861, Note_on_c, 0, 79, 75
1, 623872, Note_on_c, 0, 62, 61
1, 623885, Poly_aftertouch_c, 0, 86, 127
1, 623901, Note_off_c, 0, 62, 66
1, 623903, Note_off_c, 0, 67, 60
1, 623904, Note_off_c, 0, 57, 57
1, 623907, Poly_aftertouch_c, 0, 91, 0
1, 623909, Note_off_c, 0, 79, 61
1, 623928, Poly_aftertouch_c, 0, 86, 0
1, 623983, Note_on_c, 0, 67, 83
1, 623986, Note_on_c, 0, 79, 71
1, 623989, Note_on_c, 0, 61, 69
1, 623999, Note_on_c, 0, 57, 46
1, 624009, Note_on_c, 0, 58, 51
1, 624014, Note_on_c, 0, 85, 53
1, 624025, Note_off_c, 0, 79, 62
1, 624028, Note_off_c, 0, 61, 63
1, 624030, Note_off_c, 0, 58, 60
1, 624032, Note_off_c, 0, 67, 64
1, 624037, Note_off_c, 0, 57, 62
1, 624046, Note_off_c, 0, 85, 65
1, 624049, Poly_aftertouch_c, 0, 91, 0
1, 624083, Control_c, 0, 64, 73
1, 624098, Note_on_c, 0, 78, 90
1, 624098, Control_c, 0, 64, 49
1, 624102, Note_on_c, 0, 66, 96
1, 624113, Control_c, 0, 64, 0
1, 624114, Note_on_c, 0, 57, 73
1, 624116, Note_on_c, 0, 61, 72
1, 624128, Note_on_c, 0, 85, 54
1, 624134, Note_on_c, 0, 55, 65
1, 624143, Control_c, 0, 64, 32
1, 624152, Note_off_c, 0, 78, 64
1, 624157, Control_c, 0, 64, 51
1, 624169, Note_on_c, 0, 90, 84
1, 624170, Note_off_c, 0, 85, 60
1, 624172, Control_c, 0, 64, 66
1, 624187, Control_c, 0, 64, 104
1, 624202, Control_c, 0, 64, 127
1, 624226, Note_off_c, 0, 90, 66
1, 624232, Note_on_c, 0, 85, 60
1, 624232, Note_on_c, 0, 78, 66
1, 624267, Note_off_c, 0, 66, 60
1, 624271, Note_off_c, 0, 55, 64
1, 624276, Note_off_c, 0, 78, 64
1, 624280, Note_off_c, 0, 61, 62
1, 624283, Note_on_c, 0, 90, 68
1, 624285, Note_off_c, 0, 57, 61
1, 624308, Note_off_c, 0, 85, 63
1, 624308, Note_off_c, 0, 90, 69
1, 624335, Control_c, 0, 64, 70
1, 624345, Note_on_c, 0, 65, 97
1, 624345, Note_on_c, 0, 77, 91
1, 624346, Poly_aftertouch_c, 0, 85, 0
1, 624350, Control_c, 0, 64, 63
1, 624354, Note_on_c, 0, 57, 67
1, 624355, Note_on_c, 0, 61, 76
1, 624355, Note_on_c, 0, 85, 45
1, 624358, Note_on_c, 0, 55, 81
1, 624365, Control_c, 0, 64, 66
1, 624374, Note_on_c, 0, 89, 47
1, 624380, Control_c, 0, 64, 81
1, 624395, Control_c, 0, 64, 127
1, 624399, Note_off_c, 0, 85, 63
1, 624400, Note_off_c, 0, 77, 62
1, 624461, Note_on_c, 0, 77, 65
1, 624464, Note_on_c, 0, 85, 67
1, 624469, Note_off_c, 0, 89, 65
1, 624500, Note_off_c, 0, 65, 59
1, 624516, Note_off_c, 0, 55, 61
1, 624534, Note_on_c, 0, 89, 45
1, 624534, Note_off_c, 0, 77, 61
1, 624539, Note_off_c, 0, 57, 58
1, 624542, Note_off_c, 0, 61, 62
1, 624558, Note_off_c, 0, 89, 59
1, 624560, Note_off_c, 0, 85, 63
1, 624604, Control_c, 0, 64, 60
1, 624605, Note_on_c, 0, 63, 102
1, 624611, Note_on_c, 0, 57, 72
1, 624611, Note_on_c, 0, 61, 74
1, 624615, Note_on_c, 0, 55, 80
1, 624616, Note_on_c, 0, 75, 89
1, 624619, Control_c, 0, 64, 0
1, 624621, Note_on_c, 0, 85, 62
1, 624648, Control_c, 0, 64, 56
1, 624663, Control_c, 0, 64, 127
1, 624685, Note_off_c, 0, 85, 63
1, 624692, Note_off_c, 0, 75, 54
1, 624726, Note_on_c, 0, 87, 26
1, 624757, Note_on_c, 0, 75, 48
1, 624760, Note_on_c, 0, 85, 44
1, 624792, Note_off_c, 0, 55, 62
1, 624796, Note_off_c, 0, 57, 58
1, 624798, Note_off_c, 0, 63, 59
1, 624804, Note_off_c, 0, 87, 63
1, 624807, Note_off_c, 0, 61, 63
1, 624810, Note_off_c, 0, 75, 64
1, 624864, Note_off_c, 0, 85, 0
1, 624864, Note_on_c, 0, 85, 50
1, 624866, Note_on_c, 0, 64, 93
1, 624867, Note_on_c, 0, 61, 84
1, 624873, Note_on_c, 0, 76, 90
1, 624881, Note_on_c, 0, 55, 81
1, 624881, Note_on_c, 0, 88, 92
1, 624884, Note_on_c, 0, 57, 74
1, 624885, Note_off_c, 0, 64, 71
1, 624906, Note_off_c, 0, 55, 68
1, 624906, Note_off_c, 0, 76, 64
1, 624909, Note_off_c, 0, 57, 65
1, 624909, Note_off_c, 0, 61, 64
1, 624909, Note_off_c, 0, 85, 63
1, 624928, Note_off_c, 0, 88, 68
1, 625055, Control_c, 0, 64, 114
1, 625070, Control_c, 0, 64, 44
1, 625084, Control_c, 0, 64, 0
1, 625098, Note_on_c, 0, 83, 105
1, 625099, Note_on_c, 0, 86, 89
1, 625100, Note_on_c, 0, 95, 103
1, 625101, Note_on_c, 0, 45, 110
1, 625102, Note_on_c, 0, 90, 96
1, 625104, Note_on_c, 0, 33, 95
1, 625114, Control_c, 0, 64, 52
1, 625126, Note_on_c, 0, 92, 61
1, 625126, Note_off_c, 0, 45, 69
1, 625129, Note_off_c, 0, 33, 71
1, 625129, Control_c, 0, 64, 127
1, 625152, Note_off_c, 0, 92, 60
1, 625185, Note_off_c, 0, 95, 61
1, 625195, Note_off_c, 0, 83, 56
1, 625252, Note_off_c, 0, 86, 57
1, 625265, Note_off_c, 0, 90, 63
1, 625323, Note_on_c, 0, 82, 85
1, 625325, Note_on_c, 0, 62, 53
1, 625329, Note_on_c, 0, 86, 73
1, 625331, Note_on_c, 0, 70, 102
1, 625338, Control_c, 0, 64, 85
1, 625353, Control_c, 0, 64, 57
1, 625358, Note_on_c, 0, 66, 49
1, 625368, Control_c, 0, 64, 48
1, 625373, Note_on_c, 0, 94, 77
1, 625374, Note_off_c, 0, 82, 62
1, 625374, Note_on_c, 0, 65, 53
1, 625382, Control_c, 0, 64, 54
1, 625397, Control_c, 0, 64, 67
1, 625398, Note_off_c, 0, 86, 62
1, 625412, Control_c, 0, 64, 127
1, 625439, Note_off_c, 0, 94, 64
1, 625451, Note_on_c, 0, 86, 71
1, 625463, Note_on_c, 0, 82, 80
1, 625496, Note_off_c, 0, 65, 40
1, 625498, Note_off_c, 0, 82, 60
1, 625512, Note_off_c, 0, 70, 59
1, 625524, Note_on_c, 0, 94, 77
1, 625527, Note_off_c, 0, 66, 54
1, 625538, Note_off_c, 0, 86, 59
1, 625546, Note_off_c, 0, 62, 60
1, 625559, Note_off_c, 0, 94, 66
1, 625567, Control_c, 0, 64, 78
1, 625582, Control_c, 0, 64, 57
1, 625583, Note_on_c, 0, 86, 57
1, 625586, Note_on_c, 0, 81, 85
1, 625588, Note_on_c, 0, 69, 90
1, 625591, Note_on_c, 0, 62, 57
1, 625594, Note_on_c, 0, 66, 73
1, 625597, Control_c, 0, 64, 44
1, 625606, Note_on_c, 0, 57, 72
1, 625612, Control_c, 0, 64, 46
1, 625627, Control_c, 0, 64, 57
1, 625633, Note_on_c, 0, 93, 83
1, 625636, Note_off_c, 0, 81, 62
1, 625642, Control_c, 0, 64, 71
1, 625657, Control_c, 0, 64, 108
1, 625662, Note_off_c, 0, 86, 61
1, 625671, Control_c, 0, 64, 127
1, 625682, Note_off_c, 0, 93, 61
1, 625692, Note_off_c, 0, 66, 62
1, 625710, Note_on_c, 0, 81, 81
1, 625715, Note_off_c, 0, 62, 62
1, 625729, Note_off_c, 0, 69, 65
1, 625752, Note_on_c, 0, 93, 81
1, 625755, Note_off_c, 0, 81, 64
1, 625758, Note_on_c, 0, 86, 32
1, 625770, Note_off_c, 0, 57, 60
1, 625789, Control_c, 0, 64, 111
1, 625792, Note_off_c, 0, 86, 61
1, 625800, Note_off_c, 0, 93, 61
1, 625804, Control_c, 0, 64, 66
1, 625819, Control_c, 0, 64, 54
1, 625833, Control_c, 0, 64, 53
1, 625836, Note_on_c, 0, 86, 60
1, 625843, Note_on_c, 0, 80, 85
1, 625845, Note_on_c, 0, 62, 74
1, 625845, Note_on_c, 0, 68, 92
1, 625848, Control_c, 0, 64, 62
1, 625858, Note_on_c, 0, 57, 73
1, 625863, Control_c, 0, 64, 86
1, 625878, Control_c, 0, 64, 127
1, 625880, Note_off_c, 0, 80, 60
1, 625890, Note_on_c, 0, 92, 84
1, 625907, Note_off_c, 0, 86, 63
1, 625952, Note_off_c, 0, 92, 63
1, 625956, Note_on_c, 0, 86, 56
1, 625962, Note_on_c, 0, 80, 75
1, 625999, Note_off_c, 0, 62, 59
1, 626000, Note_off_c, 0, 57, 60
1, 626007, Note_off_c, 0, 68, 58
1, 626008, Note_off_c, 0, 80, 60
1, 626027, Note_on_c, 0, 91, 74
1, 626060, Note_off_c, 0, 91, 59
1, 626083, Note_on_c, 0, 67, 85
1, 626091, Note_on_c, 0, 79, 77
1, 626092, Note_on_c, 0, 62, 71
1, 626095, Note_on_c, 0, 57, 68
1, 626121, Note_off_c, 0, 57, 64
1, 626121, Note_off_c, 0, 62, 64
1, 626131, Note_on_c, 0, 91, 70
1, 626131, Note_off_c, 0, 67, 61
1, 626137, Note_off_c, 0, 79, 60
1, 626146, Note_off_c, 0, 86, 25
1, 626181, Note_off_c, 0, 91, 57
1, 626211, Note_on_c, 0, 79, 76
1, 626214, Note_on_c, 0, 67, 89
1, 626220, Note_on_c, 0, 55, 73
1, 626223, Note_on_c, 0, 61, 72
1, 626229, Note_on_c, 0, 85, 60
1, 626238, Note_on_c, 0, 57, 68
1, 626250, Note_on_c, 0, 91, 68
1, 626250, Note_off_c, 0, 55, 66
1, 626254, Note_off_c, 0, 79, 64
1, 626259, Note_off_c, 0, 67, 67
1, 626265, Note_off_c, 0, 61, 62
1, 626274, Note_off_c, 0, 57, 61
1, 626278, Note_off_c, 0, 85, 61
1, 626291, Note_on_c, 0, 90, 52
1, 626295, Note_off_c, 0, 91, 61
1, 626301, Control_c, 0, 64, 79
1, 626316, Control_c, 0, 64, 44
1, 626319, Note_off_c, 0, 90, 59
1, 626331, Control_c, 0, 64, 8
1, 626331, Note_on_c, 0, 78, 92
1, 626332, Note_on_c, 0, 66, 98
1, 626337, Note_on_c, 0, 85, 60
1, 626338, Note_on_c, 0, 61, 79
1, 626343, Note_on_c, 0, 57, 77
1, 626345, Control_c, 0, 64, 33
1, 626349, Note_on_c, 0, 55, 76
1, 626360, Control_c, 0, 64, 56
1, 626375, Control_c, 0, 64, 127
1, 626378, Note_on_c, 0, 90, 90
1, 626380, Note_off_c, 0, 78, 59
1, 626391, Note_off_c, 0, 85, 63
1, 626443, Note_on_c, 0, 85, 60
1, 626447, Note_on_c, 0, 78, 66
1, 626449, Note_off_c, 0, 66, 61
1, 626449, Note_off_c, 0, 90, 66
1, 626459, Note_off_c, 0, 55, 62
1, 626464, Note_off_c, 0, 57, 57
1, 626468, Note_off_c, 0, 61, 62
1, 626497, Note_off_c, 0, 78, 61
1, 626506, Note_on_c, 0, 89, 80
1, 626524, Note_off_c, 0, 85, 62
1, 626542, Note_on_c, 0, 65, 81
1, 626548, Note_on_c, 0, 61, 71
1, 626552, Note_off_c, 0, 89, 59
1, 626556, Note_on_c, 0, 57, 70
1, 626560, Note_on_c, 0, 55, 68
1, 626560, Note_on_c, 0, 77, 82
1, 626563, Note_off_c, 0, 65, 73
1, 626575, Note_off_c, 0, 61, 67
1, 626581, Note_off_c, 0, 57, 65
1, 626587, Note_off_c, 0, 55, 67
1, 626614, Note_on_c, 0, 89, 75
1, 626624, Note_off_c, 0, 77, 62
1, 626638, Poly_aftertouch_c, 0, 85, 0
1, 626641, Control_c, 0, 64, 63
1, 626655, Control_c, 0, 64, 11
1, 626670, Control_c, 0, 64, 0
1, 626679, Note_on_c, 0, 77, 73
1, 626681, Note_on_c, 0, 46, 101
1, 626682, Note_on_c, 0, 85, 72
1, 626685, Control_c, 0, 64, 48
1, 626692, Note_off_c, 0, 89, 64
1, 626700, Note_off_c, 0, 46, 71
1, 626700, Control_c, 0, 64, 127
1, 626704, Note_on_c, 0, 35, 46
1, 626716, Note_off_c, 0, 77, 59
1, 626727, Note_on_c, 0, 34, 15
1, 626736, Note_off_c, 0, 35, 53
1, 626739, Note_off_c, 0, 85, 64
1, 626780, Note_off_c, 0, 34, 41
1, 626802, Note_on_c, 0, 85, 80
1, 626804, Note_on_c, 0, 75, 97
1, 626828, Note_on_c, 0, 63, 86
1, 626832, Note_on_c, 0, 61, 77
1, 626845, Note_on_c, 0, 55, 61
1, 626864, Note_off_c, 0, 85, 63
1, 626882, Note_off_c, 0, 75, 52
1, 626898, Note_on_c, 0, 87, 38
1, 626925, Note_on_c, 0, 85, 73
1, 626928, Note_off_c, 0, 87, 57
1, 626942, Note_on_c, 0, 75, 59
1, 626974, Note_off_c, 0, 75, 67
1, 626977, Note_off_c, 0, 55, 62
1, 626979, Note_off_c, 0, 61, 62
1, 626979, Note_off_c, 0, 63, 60
1, 627012, Note_off_c, 0, 85, 64
1, 627047, Note_on_c, 0, 76, 93
1, 627049, Note_on_c, 0, 88, 93
1, 627055, Note_on_c, 0, 64, 87
1, 627055, Note_on_c, 0, 61, 90
1, 627062, Note_on_c, 0, 55, 76
1, 627064, Note_off_c, 0, 76, 74
1, 627073, Note_off_c, 0, 64, 72
1, 627082, Note_off_c, 0, 61, 62
1, 627083, Note_off_c, 0, 55, 73
1, 627094, Note_off_c, 0, 88, 66
1, 627228, Control_c, 0, 64, 53
1, 627242, Control_c, 0, 64, 0
1, 627264, Note_on_c, 0, 88, 89
1, 627265, Note_on_c, 0, 47, 111
1, 627265, Note_on_c, 0, 85, 110
1, 627267, Note_on_c, 0, 97, 95
1, 627269, Note_on_c, 0, 92, 95
1, 627270, Note_on_c, 0, 35, 92
1, 627272, Control_c, 0, 64, 19
1, 627286, Control_c, 0, 64, 127
1, 627293, Note_off_c, 0, 35, 66
1, 627296, Note_on_c, 0, 94, 56
1, 627300, Note_off_c, 0, 47, 64
1, 627331, Note_off_c, 0, 94, 46
1, 627365, Note_off_c, 0, 97, 66
1, 627371, Note_off_c, 0, 85, 59
1, 627421, Note_off_c, 0, 88, 60
1, 627448, Note_off_c, 0, 92, 61
1, 627473, Note_on_c, 0, 88, 77
1, 627479, Note_on_c, 0, 84, 84
1, 627483, Note_on_c, 0, 72, 104
1, 627485, Note_on_c, 0, 64, 77
1, 627493, Note_on_c, 0, 68, 87
1, 627536, Note_off_c, 0, 84, 60
1, 627538, Note_on_c, 0, 96, 81
1, 627555, Note_off_c, 0, 88, 65
1, 627607, Note_off_c, 0, 96, 44
1, 627609, Note_on_c, 0, 88, 61
1, 627615, Note_on_c, 0, 84, 69
1, 627651, Note_off_c, 0, 72, 59
1, 627658, Note_off_c, 0, 84, 60
1, 627672, Note_on_c, 0, 96, 64
1, 627680, Note_off_c, 0, 68, 58
1, 627682, Note_off_c, 0, 64, 60
1, 627687, Note_off_c, 0, 88, 65
1, 627695, Note_off_c, 0, 96, 56
1, 627724, Control_c, 0, 64, 62
1, 627740, Control_c, 0, 64, 0
1, 627745, Note_on_c, 0, 71, 95
1, 627747, Note_on_c, 0, 68, 80
1, 627749, Note_on_c, 0, 83, 82
1, 627751, Note_on_c, 0, 64, 74
1, 627760, Note_on_c, 0, 59, 75
1, 627762, Note_on_c, 0, 88, 43
1, 627770, Control_c, 0, 64, 38
1, 627784, Control_c, 0, 64, 60
1, 627792, Note_on_c, 0, 95, 69
1, 627799, Control_c, 0, 64, 127
1, 627801, Note_off_c, 0, 83, 62
1, 627830, Note_off_c, 0, 88, 65
1, 627848, Note_off_c, 0, 68, 61
1, 627857, Note_off_c, 0, 95, 62
1, 627866, Note_off_c, 0, 64, 62
1, 627872, Note_on_c, 0, 83, 74
1, 627886, Note_off_c, 0, 71, 63
1, 627901, Poly_aftertouch_c, 0, 61, 127
1, 627905, Note_on_c, 0, 88, 44
1, 627914, Note_off_c, 0, 83, 66
1, 627922, Note_on_c, 0, 95, 71
1, 627929, Note_off_c, 0, 59, 61
1, 627942, Poly_aftertouch_c, 0, 61, 0
1, 627957, Note_off_c, 0, 95, 65
1, 627958, Note_off_c, 0, 88, 58
1, 627997, Note_on_c, 0, 82, 93
1, 628000, Note_on_c, 0, 70, 93
1, 628001, Note_on_c, 0, 64, 77
1, 628001, Note_on_c, 0, 88, 35
1, 628018, Note_on_c, 0, 59, 68
1, 628052, Note_on_c, 0, 94, 82
1, 628053, Note_off_c, 0, 82, 61
1, 628080, Note_off_c, 0, 88, 0
1, 628101, Note_on_c, 0, 88, 34
1, 628115, Note_off_c, 0, 94, 62
1, 628117, Note_on_c, 0, 82, 57
1, 628150, Note_off_c, 0, 64, 59
1, 628153, Note_off_c, 0, 70, 61
1, 628155, Note_off_c, 0, 59, 60
1, 628164, Note_off_c, 0, 82, 63
1, 628192, Note_on_c, 0, 93, 66
1, 628216, Note_off_c, 0, 93, 65
1, 628236, Note_on_c, 0, 81, 79
1, 628238, Note_on_c, 0, 69, 80
1, 628247, Note_on_c, 0, 64, 69
1, 628249, Note_on_c, 0, 59, 65
1, 628271, Note_off_c, 0, 88, 42
1, 628272, Note_off_c, 0, 64, 66
1, 628275, Note_off_c, 0, 69, 58
1, 628278, Note_off_c, 0, 59, 64
1, 628282, Note_on_c, 0, 93, 75
1, 628283, Note_off_c, 0, 81, 63
1, 628331, Note_off_c, 0, 93, 61
1, 628349, Note_on_c, 0, 81, 84
1, 628359, Note_on_c, 0, 69, 87
1, 628363, Note_on_c, 0, 57, 72
1, 628368, Note_on_c, 0, 59, 66
1, 628368, Note_on_c, 0, 63, 72
1, 628377, Note_on_c, 0, 87, 56
1, 628383, Note_on_c, 0, 93, 53
1, 628390, Note_off_c, 0, 81, 67
1, 628391, Note_off_c, 0, 57, 65
1, 628391, Control_c, 0, 64, 99
1, 628403, Note_off_c, 0, 69, 65
1, 628405, Note_off_c, 0, 63, 62
1, 628406, Control_c, 0, 64, 60
1, 628414, Note_off_c, 0, 87, 64
1, 628415, Note_off_c, 0, 59, 59
1, 628421, Control_c, 0, 64, 42
1, 628427, Note_off_c, 0, 93, 63
1, 628428, Note_on_c, 0, 92, 56
1, 628450, Control_c, 0, 64, 58
1, 628451, Note_off_c, 0, 92, 59
1, 628473, Control_c, 0, 64, 94
1, 628474, Note_on_c, 0, 80, 93
1, 628482, Note_on_c, 0, 68, 100
1, 628483, Note_on_c, 0, 87, 67
1, 628487, Note_on_c, 0, 63, 77
1, 628488, Control_c, 0, 64, 127
1, 628495, Note_on_c, 0, 59, 63
1, 628499, Note_on_c, 0, 57, 73
1, 628519, Note_off_c, 0, 80, 63
1, 628529, Note_on_c, 0, 92, 82
1, 628542, Note_off_c, 0, 87, 64
1, 628590, Note_on_c, 0, 87, 58
1, 628590, Note_on_c, 0, 80, 75
1, 628593, Note_off_c, 0, 68, 60
1, 628597, Note_off_c, 0, 57, 61
1, 628599, Note_off_c, 0, 92, 65
1, 628604, Note_off_c, 0, 63, 61
1, 628605, Note_off_c, 0, 59, 62
1, 628644, Note_off_c, 0, 80, 62
1, 628656, Note_on_c, 0, 91, 77
1, 628668, Note_off_c, 0, 87, 64
1, 628682, Note_on_c, 0, 67, 83
1, 628688, Note_on_c, 0, 63, 73
1, 628694, Note_on_c, 0, 59, 66
1, 628694, Note_on_c, 0, 57, 76
1, 628700, Note_off_c, 0, 91, 60
1, 628700, Note_off_c, 0, 67, 74
1, 628710, Note_on_c, 0, 79, 77
1, 628717, Note_off_c, 0, 57, 69
1, 628717, Note_off_c, 0, 63, 70
1, 628720, Note_off_c, 0, 59, 66
1, 628740, Note_on_c, 0, 87, 35
1, 628762, Note_off_c, 0, 79, 57
1, 628769, Note_on_c, 0, 91, 81
1, 628785, Control_c, 0, 64, 69
1, 628797, Note_off_c, 0, 87, 0
1, 628800, Control_c, 0, 64, 23
1, 628811, Note_on_c, 0, 48, 102
1, 628813, Note_on_c, 0, 87, 48
1, 628814, Control_c, 0, 64, 0
1, 628815, Note_on_c, 0, 36, 89
1, 628828, Note_on_c, 0, 79, 64
1, 628829, Control_c, 0, 64, 40
1, 628838, Note_off_c, 0, 48, 69
1, 628840, Note_off_c, 0, 36, 66
1, 628841, Note_off_c, 0, 91, 57
1, 628844, Control_c, 0, 64, 127
1, 628861, Note_off_c, 0, 79, 63
1, 628876, Note_off_c, 0, 87, 64
1, 628881, Note_on_c, 0, 37, 2
1, 628924, Note_off_c, 0, 37, 36
1, 628936, Note_on_c, 0, 77, 98
1, 628945, Note_on_c, 0, 89, 85
1, 628947, Note_on_c, 0, 65, 96
1, 628947, Note_on_c, 0, 87, 74
1, 628954, Note_on_c, 0, 63, 83
1, 628964, Note_on_c, 0, 57, 76
1, 628989, Note_off_c, 0, 77, 61
1, 629004, Note_off_c, 0, 87, 64
1, 629020, Note_off_c, 0, 89, 60
1, 629052, Note_on_c, 0, 89, 62
1, 629053, Note_on_c, 0, 77, 92
1, 629058, Note_on_c, 0, 87, 77
1, 629078, Note_off_c, 0, 65, 61
1, 629084, Note_off_c, 0, 57, 58
1, 629085, Note_off_c, 0, 89, 67
1, 629091, Note_off_c, 0, 77, 68
1, 629108, Note_off_c, 0, 63, 61
1, 629121, Note_off_c, 0, 87, 64
1, 629164, Note_on_c, 0, 78, 103
1, 629165, Note_on_c, 0, 66, 102
1, 629171, Note_on_c, 0, 90, 95
1, 629174, Note_on_c, 0, 57, 81
1, 629178, Note_on_c, 0, 87, 52
1, 629183, Note_on_c, 0, 63, 47
1, 629192, Note_off_c, 0, 66, 57
1, 629200, Note_off_c, 0, 78, 64
1, 629208, Note_off_c, 0, 87, 60
1, 629215, Note_off_c, 0, 63, 58
1, 629217, Note_on_c, 0, 64, 35
1, 629217, Note_off_c, 0, 57, 61
1, 629228, Note_off_c, 0, 90, 64
1, 629250, Note_off_c, 0, 64, 52
1, 629341, Control_c, 0, 64, 64
1, 629356, Control_c, 0, 64, 0
1, 629389, Note_on_c, 0, 87, 109
1, 629389, Note_on_c, 0, 94, 90
1, 629390, Note_on_c, 0, 90, 99
1, 629391, Note_on_c, 0, 99, 100
1, 629392, Note_on_c, 0, 49, 105
1, 629397, Note_on_c, 0, 37, 100
1, 629401, Control_c, 0, 64, 73
1, 629410, Note_on_c, 0, 97, 67
1, 629415, Note_on_c, 0, 88, 62
1, 629416, Control_c, 0, 64, 127
1, 629419, Note_off_c, 0, 37, 68
1, 629423, Note_off_c, 0, 49, 68
1, 629434, Note_off_c, 0, 88, 64
1, 629439, Note_on_c, 0, 48, 39
1, 629440, Note_off_c, 0, 48, 127
1, 629466, Poly_aftertouch_c, 0, 48, 0
1, 629472, Note_off_c, 0, 97, 44
1, 629486, Note_off_c, 0, 87, 62
1, 629500, Note_off_c, 0, 90, 64
1, 629507, Note_off_c, 0, 99, 61
1, 629535, Note_off_c, 0, 94, 64
1, 629586, Note_on_c, 0, 86, 81
1, 629589, Note_on_c, 0, 90, 83
1, 629607, Note_on_c, 0, 74, 99
1, 629613, Note_on_c, 0, 66, 93
1, 629614, Note_on_c, 0, 70, 89
1, 629633, Note_on_c, 0, 98, 78
1, 629636, Note_off_c, 0, 86, 60
1, 629647, Note_off_c, 0, 90, 66
1, 629691, Note_off_c, 0, 98, 58
1, 629705, Note_on_c, 0, 86, 70
1, 629727, Note_on_c, 0, 90, 56
1, 629750, Note_off_c, 0, 86, 63
1, 629765, Note_off_c, 0, 74, 60
1, 629776, Note_on_c, 0, 98, 70
1, 629779, Note_off_c, 0, 70, 62
1, 629785, Note_off_c, 0, 90, 59
1, 629790, Note_off_c, 0, 66, 61
1, 629800, Note_off_c, 0, 98, 64
1, 629830, Control_c, 0, 64, 65
1, 629845, Control_c, 0, 64, 33
1, 629851, Note_on_c, 0, 85, 84
1, 629852, Note_on_c, 0, 90, 65
1, 629857, Note_on_c, 0, 73, 92
1, 629860, Note_on_c, 0, 70, 85
1, 629860, Control_c, 0, 64, 25
1, 629862, Note_on_c, 0, 66, 74
1, 629874, Note_on_c, 0, 61, 69
1, 629874, Control_c, 0, 64, 46
1, 629889, Control_c, 0, 64, 68
1, 629894, Note_off_c, 0, 85, 59
1, 629903, Note_on_c, 0, 97, 76
1, 629904, Control_c, 0, 64, 127
1, 629917, Note_off_c, 0, 90, 65
1, 629979, Note_on_c, 0, 90, 69
1, 629982, Note_off_c, 0, 70, 60
1, 629983, Note_off_c, 0, 97, 65
1, 629987, Poly_aftertouch_c, 0, 63, 127
1, 629996, Note_on_c, 0, 85, 63
1, 630015, Note_off_c, 0, 73, 61
1, 630022, Note_off_c, 0, 66, 61
1, 630026, Note_off_c, 0, 85, 63
1, 630030, Note_off_c, 0, 61, 63
1, 630041, Poly_aftertouch_c, 0, 63, 0
1, 630044, Note_on_c, 0, 97, 70
1, 630070, Note_off_c, 0, 97, 68
1, 630075, Note_off_c, 0, 90, 60
1, 630110, Note_on_c, 0, 84, 83
1, 630113, Note_on_c, 0, 90, 47
1, 630114, Note_on_c, 0, 72, 94
1, 630122, Note_on_c, 0, 66, 86
1, 630124, Note_on_c, 0, 61, 82
1, 630158, Note_on_c, 0, 96, 22
1, 630166, Note_off_c, 0, 84, 62
1, 630172, Note_on_c, 0, 63, 13
1, 630211, Note_off_c, 0, 96, 58
1, 630234, Note_off_c, 0, 63, 43
1, 630254, Note_on_c, 0, 84, 64
1, 630256, Note_on_c, 0, 83, 50
1, 630256, Note_off_c, 0, 72, 59
1, 630257, Note_off_c, 0, 61, 61
1, 630271, Note_off_c, 0, 66, 59
1, 630278, Note_off_c, 0, 83, 62
1, 630281, Note_off_c, 0, 84, 61
1, 630311, Note_on_c, 0, 96, 50
1, 630311, Note_off_c, 0, 90, 57
1, 630312, Note_on_c, 0, 95, 60
1, 630332, Note_off_c, 0, 95, 64
1, 630339, Note_off_c, 0, 96, 53
1, 630348, Note_on_c, 0, 71, 83
1, 630352, Note_on_c, 0, 83, 78
1, 630355, Note_on_c, 0, 61, 72
1, 630357, Note_on_c, 0, 66, 69
1, 630392, Note_off_c, 0, 66, 57
1, 630396, Note_off_c, 0, 71, 64
1, 630397, Note_off_c, 0, 61, 58
1, 630398, Note_off_c, 0, 83, 66
1, 630406, Note_on_c, 0, 95, 82
1, 630447, Note_off_c, 0, 95, 66
1, 630471, Note_on_c, 0, 71, 87
1, 630471, Note_on_c, 0, 83, 88
1, 630485, Note_on_c, 0, 59, 61
1, 630485, Note_on_c, 0, 65, 65
1, 630486, Note_on_c, 0, 61, 75
1, 630492, Note_on_c, 0, 89, 61
1, 630511, Note_off_c, 0, 59, 65
1, 630516, Note_on_c, 0, 95, 70
1, 630517, Note_off_c, 0, 71, 66
1, 630517, Note_off_c, 0, 83, 68
1, 630519, Control_c, 0, 64, 87
1, 630532, Note_off_c, 0, 61, 60
1, 630534, Control_c, 0, 64, 46
1, 630536, Note_off_c, 0, 65, 63
1, 630548, Note_off_c, 0, 95, 63
1, 630548, Control_c, 0, 64, 0
1, 630553, Note_off_c, 0, 89, 63
1, 630566, Note_on_c, 0, 94, 20
1, 630567, Note_off_c, 0, 94, 127
1, 630578, Control_c, 0, 64, 44
1, 630587, Note_on_c, 0, 82, 97
1, 630587, Note_on_c, 0, 89, 62
1, 630589, Note_on_c, 0, 70, 98
1, 630593, Control_c, 0, 64, 78
1, 630596, Note_on_c, 0, 65, 66
1, 630597, Note_on_c, 0, 59, 59
1, 630608, Control_c, 0, 64, 127
1, 630637, Note_off_c, 0, 82, 59
1, 630641, Note_on_c, 0, 94, 81
1, 630653, Poly_aftertouch_c, 0, 61, 127
1, 630654, Note_on_c, 0, 61, 3
1, 630656, Note_off_c, 0, 89, 65
1, 630704, Note_on_c, 0, 82, 79
1, 630708, Poly_aftertouch_c, 0, 60, 127
1, 630709, Note_off_c, 0, 59, 62
1, 630710, Note_off_c, 0, 94, 66
1, 630712, Note_off_c, 0, 70, 60
1, 630715, Note_off_c, 0, 61, 48
1, 630715, Note_on_c, 0, 89, 59
1, 630716, Note_off_c, 0, 65, 64
1, 630731, Poly_aftertouch_c, 0, 60, 0
1, 630760, Note_off_c, 0, 82, 63
1, 630793, Note_on_c, 0, 93, 68
1, 630804, Note_on_c, 0, 69, 76
1, 630805, Note_on_c, 0, 61, 73
1, 630809, Note_on_c, 0, 65, 69
1, 630817, Note_on_c, 0, 81, 76
1, 630818, Note_on_c, 0, 59, 70
1, 630822, Note_off_c, 0, 69, 71
1, 630822, Note_off_c, 0, 93, 63
1, 630831, Note_off_c, 0, 65, 72
1, 630836, Note_off_c, 0, 61, 65
1, 630844, Note_off_c, 0, 59, 66
1, 630882, Note_on_c, 0, 93, 80
1, 630897, Control_c, 0, 64, 95
1, 630911, Control_c, 0, 64, 52
1, 630927, Control_c, 0, 64, 0
1, 630936, Note_on_c, 0, 38, 93
1, 630936, Note_on_c, 0, 50, 105
1, 630942, Control_c, 0, 64, 30
1, 630953, Note_off_c, 0, 93, 59
1, 630957, Control_c, 0, 64, 69
1, 630957, Note_off_c, 0, 38, 69
1, 630962, Note_off_c, 0, 50, 60
1, 630963, Note_off_c, 0, 81, 64
1, 630966, Note_off_c, 0, 89, 58
1, 630972, Control_c, 0, 64, 127
1, 631040, Note_on_c, 0, 79, 95
1, 631058, Note_on_c, 0, 89, 63
1, 631060, Note_on_c, 0, 88, 69
1, 631063, Note_on_c, 0, 67, 101
1, 631071, Note_on_c, 0, 91, 56
1, 631075, Note_on_c, 0, 65, 59
1, 631079, Note_on_c, 0, 59, 63
1, 631088, Note_off_c, 0, 88, 64
1, 631091, Note_off_c, 0, 79, 61
1, 631099, Note_off_c, 0, 91, 62
1, 631106, Note_off_c, 0, 89, 64
1, 631107, Poly_aftertouch_c, 0, 38, 0
1, 631136, Note_off_c, 0, 65, 0
1, 631136, Note_on_c, 0, 65, 34
1, 631162, Note_on_c, 0, 79, 90
1, 631166, Note_on_c, 0, 89, 73
1, 631182, Note_off_c, 0, 67, 63
1, 631195, Note_off_c, 0, 59, 60
1, 631203, Note_off_c, 0, 79, 66
1, 631209, Note_off_c, 0, 65, 64
1, 631226, Note_off_c, 0, 89, 65
1, 631273, Note_on_c, 0, 68, 94
1, 631275, Note_on_c, 0, 80, 101
1, 631276, Note_on_c, 0, 65, 70
1, 631279, Note_on_c, 0, 89, 66
1, 631282, Note_on_c, 0, 59, 80
1, 631283, Note_on_c, 0, 92, 92
1, 631298, Note_off_c, 0, 68, 62
1, 631308, Note_off_c, 0, 89, 68
1, 631312, Note_off_c, 0, 65, 67
1, 631315, Note_off_c, 0, 80, 65
1, 631316, Note_on_c, 0, 90, 35
1, 631320, Note_off_c, 0, 59, 62
1, 631344, Note_off_c, 0, 92, 68
1, 631348, Note_off_c, 0, 90, 58
1, 631453, Control_c, 0, 64, 79
1, 631468, Control_c, 0, 64, 33
1, 631483, Control_c, 0, 64, 0
1, 631493, Note_on_c, 0, 89, 106
1, 631494, Note_on_c, 0, 92, 97
1, 631496, Note_on_c, 0, 101, 98
1, 631497, Note_on_c, 0, 96, 95
1, 631502, Note_on_c, 0, 51, 101
1, 631502, Note_on_c, 0, 39, 100
1, 631506, Note_on_c, 0, 49, 93
1, 631507, Note_on_c, 0, 99, 87
1, 631513, Control_c, 0, 64, 109
1, 631521, Note_off_c, 0, 49, 72
1, 631523, Note_off_c, 0, 39, 72
1, 631527, Control_c, 0, 64, 127
1, 631531, Note_off_c, 0, 51, 66
1, 631544, Note_on_c, 0, 42, 27
1, 631545, Note_off_c, 0, 42, 127
1, 631577, Note_off_c, 0, 101, 60
1, 631580, Note_off_c, 0, 99, 61
1, 631583, Note_off_c, 0, 89, 59
1, 631618, Note_off_c, 0, 92, 61
1, 631654, Note_off_c, 0, 96, 59
1, 631693, Note_on_c, 0, 88, 91
1, 631706, Note_on_c, 0, 92, 78
1, 631712, Note_on_c, 0, 76, 99
1, 631713, Note_on_c, 0, 72, 79
1, 631716, Note_on_c, 0, 68, 78
1, 631731, Note_on_c, 0, 100, 80
1, 631745, Note_off_c, 0, 88, 67
1, 631756, Note_off_c, 0, 92, 66
1, 631794, Note_off_c, 0, 100, 63
1, 631810, Note_on_c, 0, 88, 75
1, 631818, Note_on_c, 0, 92, 67
1, 631850, Note_off_c, 0, 92, 62
1, 631854, Note_off_c, 0, 88, 67
1, 631855, Note_off_c, 0, 76, 65
1, 631872, Note_on_c, 0, 100, 81
1, 631879, Note_off_c, 0, 72, 60
1, 631886, Note_off_c, 0, 68, 59
1, 631909, Note_off_c, 0, 100, 64
1, 631929, Control_c, 0, 64, 69
1, 631944, Control_c, 0, 64, 18
1, 631944, Note_on_c, 0, 87, 87
1, 631947, Note_on_c, 0, 68, 82
1, 631947, Note_on_c, 0, 92, 81
1, 631950, Note_on_c, 0, 75, 102
1, 631950, Note_on_c, 0, 72, 76
1, 631958, Control_c, 0, 64, 0
1, 631958, Note_on_c, 0, 63, 77
1, 631973, Control_c, 0, 64, 46
1, 631980, Note_off_c, 0, 87, 65
1, 631988, Control_c, 0, 64, 127
1, 631997, Note_off_c, 0, 92, 63
1, 632001, Note_on_c, 0, 99, 88
1, 632013, Note_off_c, 0, 72, 63
1, 632042, Note_off_c, 0, 75, 59
1, 632053, Note_off_c, 0, 99, 63
1, 632057, Note_off_c, 0, 68, 52
1, 632060, Note_on_c, 0, 92, 65
1, 632068, Note_on_c, 0, 87, 61
1, 632102, Note_off_c, 0, 87, 61
1, 632105, Note_off_c, 0, 63, 60
1, 632119, Note_on_c, 0, 98, 78
1, 632121, Note_off_c, 0, 92, 65
1, 632139, Note_off_c, 0, 98, 70
1, 632199, Note_on_c, 0, 92, 71
1, 632200, Note_on_c, 0, 84, 74
1, 632212, Note_on_c, 0, 68, 80
1, 632214, Note_on_c, 0, 72, 73
1, 632220, Note_on_c, 0, 63, 76
1, 632230, Note_off_c, 0, 72, 70
1, 632240, Note_off_c, 0, 68, 64
1, 632240, Note_off_c, 0, 84, 61
1, 632247, Note_off_c, 0, 63, 61
1, 632249, Note_off_c, 0, 92, 62
1, 632265, Note_on_c, 0, 96, 62
1, 632293, Note_on_c, 0, 92, 68
1, 632296, Note_on_c, 0, 84, 58
1, 632327, Note_off_c, 0, 92, 64
1, 632343, Note_off_c, 0, 84, 60
1, 632354, Note_off_c, 0, 96, 60
1, 632395, Control_c, 0, 64, 117
1, 632409, Control_c, 0, 64, 60
1, 632424, Control_c, 0, 64, 21
1, 632439, Control_c, 0, 64, 20
1, 632446, Note_on_c, 0, 51, 70
1, 632450, Note_on_c, 0, 39, 61
1, 632454, Control_c, 0, 64, 42
1, 632466, Note_off_c, 0, 51, 64
1, 632469, Control_c, 0, 64, 64
1, 632474, Note_off_c, 0, 39, 56
1, 632483, Control_c, 0, 64, 127
1, 632502, Note_on_c, 0, 80, 56
1, 632504, Note_on_c, 0, 87, 59
1, 632504, Note_on_c, 0, 84, 53
1, 632523, Note_off_c, 0, 80, 61
1, 632527, Note_off_c, 0, 84, 60
1, 632528, Note_off_c, 0, 87, 66
1, 632547, Note_on_c, 0, 51, 85
1, 632549, Note_on_c, 0, 39, 82
1, 632593, Note_on_c, 0, 80, 84
1, 632597, Note_off_c, 0, 39, 62
1, 632601, Note_on_c, 0, 82, 79
1, 632601, Note_off_c, 0, 51, 63
1, 632622, Note_on_c, 0, 90, 44
1, 632638, Note_off_c, 0, 80, 60
1, 632644, Note_off_c, 0, 82, 59
1, 632655, Note_off_c, 0, 90, 58
1, 632662, Note_on_c, 0, 52, 101
1, 632666, Note_on_c, 0, 40, 92
1, 632698, Note_off_c, 0, 52, 70
1, 632699, Note_on_c, 0, 79, 101
1, 632699, Note_on_c, 0, 82, 85
1, 632699, Poly_aftertouch_c, 0, 86, 0
1, 632700, Note_off_c, 0, 40, 65
1, 632704, Note_on_c, 0, 85, 85
1, 632711, Note_on_c, 0, 91, 72
1, 632730, Note_off_c, 0, 91, 65
1, 632735, Note_off_c, 0, 79, 61
1, 632748, Note_off_c, 0, 85, 63
1, 632752, Note_off_c, 0, 82, 65
1, 632773, Note_on_c, 0, 53, 99
1, 632781, Note_on_c, 0, 41, 95
1, 632800, Note_on_c, 0, 42, 60
1, 632807, Note_on_c, 0, 78, 102
1, 632807, Note_off_c, 0, 41, 66
1, 632809, Note_off_c, 0, 53, 67
1, 632816, Note_on_c, 0, 82, 83
1, 632817, Note_on_c, 0, 46, 31
1, 632820, Note_on_c, 0, 85, 79
1, 632820, Note_on_c, 0, 90, 85
1, 632824, Note_off_c, 0, 42, 57
1, 632849, Note_off_c, 0, 46, 57
1, 632859, Note_off_c, 0, 78, 64
1, 632863, Note_off_c, 0, 90, 64
1, 632866, Note_off_c, 0, 85, 63
1, 632871, Note_off_c, 0, 82, 63
1, 632885, Note_on_c, 0, 42, 93
1, 632885, Note_on_c, 0, 54, 106
1, 632914, Control_c, 0, 64, 62
1, 632926, Note_on_c, 0, 77, 97
1, 632929, Note_off_c, 0, 54, 66
1, 632929, Control_c, 0, 64, 0
1, 632930, Note_on_c, 0, 82, 71
1, 632930, Note_off_c, 0, 42, 64
1, 632931, Note_on_c, 0, 85, 73
1, 632935, Note_on_c, 0, 44, 10
1, 632936, Note_off_c, 0, 44, 127
1, 632939, Note_on_c, 0, 89, 70
1, 632967, Note_off_c, 0, 77, 63
1, 632970, Note_off_c, 0, 89, 67
1, 632980, Note_off_c, 0, 85, 66
1, 632983, Note_off_c, 0, 82, 64
1, 633012, Note_on_c, 0, 43, 85
1, 633012, Note_on_c, 0, 55, 89
1, 633025, Control_c, 0, 64, 13
1, 633033, Note_off_c, 0, 43, 65
1, 633033, Note_off_c, 0, 55, 72
1, 633040, Control_c, 0, 64, 97
1, 633055, Note_on_c, 0, 76, 95
1, 633055, Control_c, 0, 64, 127
1, 633058, Note_on_c, 0, 88, 90
1, 633086, Note_off_c, 0, 76, 70
1, 633095, Note_off_c, 0, 88, 63
1, 633139, Note_on_c, 0, 63, 106
1, 633144, Note_on_c, 0, 51, 92
1, 633179, Note_off_c, 0, 63, 64
1, 633182, Note_off_c, 0, 51, 61
1, 633185, Note_on_c, 0, 75, 102
1, 633190, Note_on_c, 0, 87, 93
1, 633216, Note_on_c, 0, 80, 49
1, 633217, Note_off_c, 0, 80, 127
1, 633221, Note_off_c, 0, 75, 66
1, 633229, Note_off_c, 0, 87, 68
1, 633271, Note_on_c, 0, 64, 99
1, 633277, Note_on_c, 0, 52, 93
1, 633308, Note_off_c, 0, 52, 67
1, 633310, Note_off_c, 0, 64, 65
1, 633326, Note_on_c, 0, 76, 102
1, 633330, Note_on_c, 0, 88, 96
1, 633344, Note_on_c, 0, 87, 76
1, 633358, Note_off_c, 0, 76, 71
1, 633360, Note_off_c, 0, 87, 70
1, 633368, Note_off_c, 0, 88, 66
1, 633397, Note_on_c, 0, 63, 95
1, 633400, Note_on_c, 0, 51, 92
1, 633437, Note_off_c, 0, 63, 60
1, 633444, Note_on_c, 0, 87, 96
1, 633445, Note_on_c, 0, 75, 104
1, 633456, Note_off_c, 0, 51, 63
1, 633477, Note_off_c, 0, 75, 63
1, 633497, Note_off_c, 0, 87, 67
1, 633602, Control_c, 0, 64, 60
1, 633617, Control_c, 0, 64, 0
1, 633653, Note_on_c, 0, 51, 112
1, 633655, Note_on_c, 0, 89, 105
1, 633655, Note_on_c, 0, 96, 81
1, 633656, Note_on_c, 0, 92, 99
1, 633658, Note_on_c, 0, 39, 100
1, 633658, Note_on_c, 0, 101, 100
1, 633661, Control_c, 0, 64, 60
1, 633676, Control_c, 0, 64, 127
1, 633678, Note_on_c, 0, 99, 61
1, 633679, Note_off_c, 0, 39, 72
1, 633687, Note_off_c, 0, 51, 67
1, 633714, Note_off_c, 0, 99, 49
1, 633744, Note_off_c, 0, 101, 59
1, 633753, Note_off_c, 0, 89, 58
1, 633799, Note_off_c, 0, 92, 57
1, 633832, Note_off_c, 0, 96, 59
1, 633872, Note_on_c, 0, 88, 92
1, 633881, Note_on_c, 0, 92, 78
1, 633883, Note_on_c, 0, 72, 65
1, 633883, Note_on_c, 0, 76, 97
1, 633885, Note_on_c, 0, 68, 73
1, 633915, Note_on_c, 0, 73, 38
1, 633916, Note_off_c, 0, 73, 127
1, 633920, Note_on_c, 0, 100, 81
1, 633926, Note_off_c, 0, 88, 65
1, 633929, Note_off_c, 0, 92, 64
1, 633970, Note_off_c, 0, 100, 66
1, 633991, Note_on_c, 0, 88, 72
1, 634002, Note_on_c, 0, 92, 70
1, 634032, Note_off_c, 0, 92, 63
1, 634035, Note_off_c, 0, 88, 66
1, 634036, Note_off_c, 0, 76, 62
1, 634044, Note_on_c, 0, 100, 81
1, 634061, Note_off_c, 0, 72, 61
1, 634062, Note_off_c, 0, 68, 58
1, 634083, Note_off_c, 0, 100, 66
1, 634126, Note_on_c, 0, 87, 89
1, 634129, Note_on_c, 0, 92, 85
1, 634129, Control_c, 0, 64, 63
1, 634132, Note_on_c, 0, 68, 86
1, 634132, Note_on_c, 0, 72, 86
1, 634132, Note_on_c, 0, 75, 107
1, 634143, Control_c, 0, 64, 0
1, 634144, Note_on_c, 0, 63, 75
1, 634165, Note_off_c, 0, 87, 64
1, 634173, Note_off_c, 0, 92, 65
1, 634173, Control_c, 0, 64, 50
1, 634178, Note_on_c, 0, 99, 88
1, 634184, Note_off_c, 0, 72, 65
1, 634188, Note_off_c, 0, 75, 61
1, 634188, Control_c, 0, 64, 127
1, 634217, Note_off_c, 0, 68, 58
1, 634227, Poly_aftertouch_c, 0, 74, 127
1, 634228, Note_off_c, 0, 99, 63
1, 634247, Note_on_c, 0, 92, 73
1, 634248, Note_on_c, 0, 87, 69
1, 634251, Poly_aftertouch_c, 0, 74, 0
1, 634280, Note_off_c, 0, 87, 67
1, 634284, Note_off_c, 0, 63, 48
1, 634284, Note_off_c, 0, 92, 59
1, 634304, Note_on_c, 0, 98, 72
1, 634324, Note_off_c, 0, 98, 70
1, 634373, Note_on_c, 0, 84, 76
1, 634374, Note_on_c, 0, 92, 82
1, 634384, Note_on_c, 0, 72, 85
1, 634386, Note_on_c, 0, 68, 89
1, 634391, Note_on_c, 0, 63, 78
1, 634401, Note_off_c, 0, 72, 71
1, 634418, Note_off_c, 0, 63, 60
1, 634418, Note_off_c, 0, 92, 66
1, 634421, Note_off_c, 0, 68, 55
1, 634423, Note_on_c, 0, 96, 86
1, 634463, Note_off_c, 0, 84, 0
1, 634476, Note_on_c, 0, 92, 81
1, 634482, Note_on_c, 0, 84, 50
1, 634513, Note_off_c, 0, 84, 65
1, 634515, Note_off_c, 0, 92, 67
1, 634557, Note_off_c, 0, 96, 25
1, 634582, Control_c, 0, 64, 90
1, 634596, Control_c, 0, 64, 57
1, 634611, Control_c, 0, 64, 47
1, 634614, Note_on_c, 0, 51, 72
1, 634619, Note_on_c, 0, 39, 65
1, 634626, Control_c, 0, 64, 57
1, 634639, Note_off_c, 0, 39, 63
1, 634639, Note_off_c, 0, 51, 68
1, 634641, Control_c, 0, 64, 83
1, 634656, Control_c, 0, 64, 127
1, 634665, Note_on_c, 0, 80, 69
1, 634682, Note_on_c, 0, 87, 52
1, 634685, Note_on_c, 0, 84, 48
1, 634688, Note_off_c, 0, 80, 68
1, 634704, Note_off_c, 0, 87, 63
1, 634709, Note_off_c, 0, 84, 58
1, 634722, Note_on_c, 0, 39, 81
1, 634725, Note_on_c, 0, 51, 93
1, 634771, Note_off_c, 0, 51, 63
1, 634773, Note_on_c, 0, 80, 87
1, 634774, Note_off_c, 0, 39, 64
1, 634781, Note_on_c, 0, 82, 78
1, 634802, Note_on_c, 0, 92, 54
1, 634802, Note_off_c, 0, 80, 60
1, 634804, Note_on_c, 0, 86, 40
1, 634813, Note_off_c, 0, 82, 57
1, 634826, Note_off_c, 0, 92, 57
1, 634836, Note_off_c, 0, 86, 51
1, 634838, Note_on_c, 0, 52, 101
1, 634844, Note_on_c, 0, 40, 93
1, 634874, Note_off_c, 0, 52, 70
1, 634875, Note_off_c, 0, 40, 66
1, 634880, Note_on_c, 0, 79, 97
1, 634883, Note_on_c, 0, 82, 91
1, 634884, Note_on_c, 0, 85, 86
1, 634894, Note_on_c, 0, 91, 70
1, 634910, Note_off_c, 0, 91, 64
1, 634913, Note_off_c, 0, 79, 63
1, 634930, Note_off_c, 0, 85, 63
1, 634930, Note_off_c, 0, 82, 64
1, 634949, Note_on_c, 0, 53, 102
1, 634954, Note_on_c, 0, 41, 94
1, 634978, Note_on_c, 0, 42, 57
1, 634987, Note_on_c, 0, 46, 43
1, 634989, Note_off_c, 0, 53, 69
1, 634990, Note_on_c, 0, 78, 107
1, 634996, Note_off_c, 0, 41, 62
1, 634998, Note_on_c, 0, 82, 86
1, 635003, Note_on_c, 0, 90, 82
1, 635004, Note_on_c, 0, 85, 78
1, 635004, Note_off_c, 0, 42, 57
1, 635019, Note_off_c, 0, 46, 53
1, 635044, Note_off_c, 0, 78, 64
1, 635049, Note_off_c, 0, 85, 62
1, 635050, Note_off_c, 0, 90, 66
1, 635059, Note_off_c, 0, 82, 64
1, 635068, Note_on_c, 0, 42, 98
1, 635069, Note_on_c, 0, 54, 104
1, 635116, Note_on_c, 0, 41, 33
1, 635118, Note_on_c, 0, 77, 106
1, 635120, Note_off_c, 0, 54, 65
1, 635121, Note_off_c, 0, 42, 61
1, 635126, Note_on_c, 0, 85, 86
1, 635127, Note_on_c, 0, 82, 86
1, 635128, Note_on_c, 0, 89, 90
1, 635140, Note_off_c, 0, 41, 63
1, 635143, Poly_aftertouch_c, 0, 46, 127
1, 635159, Note_off_c, 0, 77, 64
1, 635172, Note_off_c, 0, 89, 65
1, 635178, Note_off_c, 0, 85, 63
1, 635181, Note_off_c, 0, 82, 62
1, 635194, Poly_aftertouch_c, 0, 46, 0
1, 635212, Note_on_c, 0, 55, 107
1, 635217, Note_on_c, 0, 43, 96
1, 635239, Note_on_c, 0, 44, 60
1, 635243, Note_off_c, 0, 55, 68
1, 635255, Note_on_c, 0, 49, 36
1, 635258, Note_off_c, 0, 43, 63
1, 635266, Note_off_c, 0, 44, 57
1, 635283, Note_on_c, 0, 76, 107
1, 635286, Note_on_c, 0, 88, 102
1, 635291, Note_off_c, 0, 49, 54
1, 635315, Note_off_c, 0, 76, 71
1, 635325, Note_off_c, 0, 88, 68
1, 635374, Note_on_c, 0, 52, 99
1, 635377, Note_on_c, 0, 40, 94
1, 635389, Control_c, 0, 64, 79
1, 635395, Note_off_c, 0, 52, 74
1, 635402, Note_off_c, 0, 40, 70
1, 635404, Control_c, 0, 64, 55
1, 635419, Control_c, 0, 64, 0
1, 635443, Note_on_c, 0, 79, 95
1, 635447, Note_on_c, 0, 91, 98
1, 635473, Note_off_c, 0, 79, 68
1, 635481, Note_off_c, 0, 91, 63
1, 635535, Note_on_c, 0, 49, 99
1, 635536, Note_on_c, 0, 37, 85
1, 635552, Note_off_c, 0, 49, 74
1, 635562, Note_off_c, 0, 37, 65
1, 635611, Note_on_c, 0, 82, 96
1, 635611, Note_on_c, 0, 94, 96
1, 635644, Note_off_c, 0, 82, 66
1, 635650, Note_off_c, 0, 94, 68
1, 635712, Note_on_c, 0, 57, 78
1, 635714, Note_on_c, 0, 45, 81
1, 635733, Note_off_c, 0, 57, 69
1, 635735, Note_off_c, 0, 45, 68
1, 635775, Note_on_c, 0, 93, 89
1, 635778, Note_on_c, 0, 81, 83
1, 635797, Note_off_c, 0, 81, 73
1, 635806, Note_off_c, 0, 93, 56
1, 635879, Control_c, 0, 64, 14
1, 635884, Note_on_c, 0, 38, 76
1, 635889, Note_on_c, 0, 50, 72
1, 635894, Control_c, 0, 64, 36
1, 635908, Note_off_c, 0, 38, 63
1, 635908, Note_off_c, 0, 50, 65
1, 635909, Control_c, 0, 64, 47
1, 635923, Control_c, 0, 64, 59
1, 635932, Note_on_c, 0, 91, 88
1, 635946, Note_on_c, 0, 79, 76
1, 635946, Control_c, 0, 64, 72
1, 635957, Note_off_c, 0, 91, 69
1, 635961, Control_c, 0, 64, 127
1, 635968, Note_off_c, 0, 79, 67
1, 636055, Note_on_c, 0, 62, 61
1, 636063, Note_on_c, 0, 67, 68
1, 636084, Note_on_c, 0, 69, 62
1, 636085, Note_on_c, 0, 74, 63
1, 636090, Note_off_c, 0, 62, 64
1, 636092, Note_off_c, 0, 67, 68
1, 636101, Note_off_c, 0, 69, 67
1, 636104, Note_off_c, 0, 74, 69
1, 636123, Control_c, 0, 64, 88
1, 636138, Control_c, 0, 64, 58
1, 636153, Control_c, 0, 64, 0
1, 636166, Note_on_c, 0, 66, 72
1, 636176, Note_on_c, 0, 57, 62
1, 636192, Note_off_c, 0, 66, 67
1, 636195, Note_off_c, 0, 57, 64
1, 636212, Note_on_c, 0, 78, 90
1, 636212, Note_on_c, 0, 90, 83
1, 636232, Note_off_c, 0, 78, 68
1, 636239, Note_off_c, 0, 90, 64
1, 636305, Note_on_c, 0, 42, 71
1, 636317, Control_c, 0, 64, 12
1, 636331, Control_c, 0, 64, 35
1, 636333, Note_off_c, 0, 42, 61
1, 636346, Control_c, 0, 64, 50
1, 636347, Note_on_c, 0, 76, 83
1, 636358, Note_on_c, 0, 88, 54
1, 636361, Control_c, 0, 64, 63
1, 636368, Note_off_c, 0, 76, 72
1, 636375, Control_c, 0, 64, 92
1, 636382, Note_off_c, 0, 88, 63
1, 636390, Control_c, 0, 64, 127
1, 636443, Note_on_c, 0, 58, 66
1, 636448, Poly_aftertouch_c, 0, 86, 0
1, 636451, Note_on_c, 0, 64, 61
1, 636464, Note_on_c, 0, 70, 72
1, 636466, Note_on_c, 0, 66, 63
1, 636472, Note_off_c, 0, 64, 63
1, 636474, Note_off_c, 0, 58, 64
1, 636483, Note_off_c, 0, 66, 64
1, 636487, Note_off_c, 0, 70, 68
1, 636539, Control_c, 0, 64, 62
1, 636544, Note_on_c, 0, 62, 64
1, 636553, Control_c, 0, 64, 34
1, 636564, Note_on_c, 0, 54, 47
1, 636564, Note_off_c, 0, 62, 61
1, 636568, Control_c, 0, 64, 0
1, 636588, Note_on_c, 0, 74, 77
1, 636591, Note_off_c, 0, 54, 35
1, 636598, Note_on_c, 0, 86, 68
1, 636607, Note_off_c, 0, 74, 74
1, 636616, Note_off_c, 0, 86, 65
1, 636680, Note_on_c, 0, 43, 68
1, 636694, Control_c, 0, 64, 29
1, 636709, Control_c, 0, 64, 54
1, 636713, Note_off_c, 0, 43, 64
1, 636724, Control_c, 0, 64, 81
1, 636737, Note_on_c, 0, 73, 66
1, 636739, Control_c, 0, 64, 127
1, 636754, Note_off_c, 0, 73, 67
1, 636841, Note_on_c, 0, 61, 60
1, 636844, Note_on_c, 0, 55, 48
1, 636855, Note_on_c, 0, 67, 74
1, 636862, Note_off_c, 0, 61, 63
1, 636869, Note_on_c, 0, 63, 41
1, 636877, Note_off_c, 0, 55, 50
1, 636877, Note_off_c, 0, 67, 71
1, 636901, Note_off_c, 0, 63, 54
1, 636924, Note_on_c, 0, 59, 45
1, 636931, Note_on_c, 0, 51, 62
1, 636951, Note_off_c, 0, 59, 53
1, 636957, Note_off_c, 0, 51, 64
1, 636982, Note_on_c, 0, 83, 72
1, 636984, Note_on_c, 0, 71, 70
1, 637000, Note_off_c, 0, 71, 70
1, 637004, Note_off_c, 0, 83, 70
1, 637020, Control_c, 0, 64, 90
1, 637035, Control_c, 0, 64, 60
1, 637050, Control_c, 0, 64, 35
1, 637064, Control_c, 0, 64, 0
1, 637065, Note_on_c, 0, 40, 67
1, 637079, Control_c, 0, 64, 21
1, 637091, Note_off_c, 0, 40, 62
1, 637094, Control_c, 0, 64, 42
1, 637104, Note_on_c, 0, 69, 77
1, 637108, Note_on_c, 0, 81, 64
1, 637109, Control_c, 0, 64, 63
1, 637123, Note_off_c, 0, 69, 74
1, 637124, Control_c, 0, 64, 127
1, 637128, Note_off_c, 0, 81, 66
1, 637196, Note_on_c, 0, 57, 61
1, 637196, Note_on_c, 0, 52, 63
1, 637220, Note_on_c, 0, 64, 67
1, 637224, Note_off_c, 0, 57, 64
1, 637231, Note_on_c, 0, 59, 45
1, 637242, Note_off_c, 0, 52, 58
1, 637248, Note_off_c, 0, 64, 65
1, 637257, Note_off_c, 0, 59, 60
1, 637301, Note_on_c, 0, 55, 33
1, 637303, Note_on_c, 0, 47, 53
1, 637318, Control_c, 0, 64, 97
1, 637333, Control_c, 0, 64, 61
1, 637333, Note_off_c, 0, 47, 57
1, 637339, Note_off_c, 0, 55, 53
1, 637347, Note_on_c, 0, 67, 78
1, 637348, Control_c, 0, 64, 21
1, 637359, Note_on_c, 0, 79, 59
1, 637362, Control_c, 0, 64, 0
1, 637364, Note_off_c, 0, 67, 69
1, 637378, Note_off_c, 0, 79, 62
1, 637434, Note_on_c, 0, 33, 65
1, 637436, Control_c, 0, 64, 37
1, 637458, Note_on_c, 0, 45, 46
1, 637458, Control_c, 0, 64, 63
1, 637470, Note_off_c, 0, 33, 63
1, 637473, Control_c, 0, 64, 127
1, 637484, Note_on_c, 0, 67, 73
1, 637491, Note_off_c, 0, 45, 55
1, 637510, Note_off_c, 0, 67, 69
1, 637512, Note_on_c, 0, 77, 32
1, 637550, Note_off_c, 0, 77, 51
1, 637581, Note_on_c, 0, 50, 61
1, 637589, Note_on_c, 0, 55, 57
1, 637613, Note_off_c, 0, 55, 66
1, 637616, Note_on_c, 0, 57, 42
1, 637616, Note_on_c, 0, 62, 49
1, 637624, Note_off_c, 0, 50, 59
1, 637641, Note_off_c, 0, 62, 59
1, 637643, Note_off_c, 0, 57, 58
1, 637700, Note_on_c, 0, 45, 66
1, 637711, Note_on_c, 0, 54, 59
1, 637735, Note_on_c, 0, 66, 84
1, 637741, Note_on_c, 0, 78, 80
1, 637748, Note_off_c, 0, 54, 61
1, 637750, Note_off_c, 0, 45, 63
1, 637760, Note_off_c, 0, 66, 65
1, 637764, Note_off_c, 0, 78, 67
1, 637828, Control_c, 0, 64, 75
1, 637843, Control_c, 0, 64, 58
1, 637847, Note_on_c, 0, 59, 65
1, 637858, Control_c, 0, 64, 48
1, 637873, Note_on_c, 0, 83, 81
1, 637873, Control_c, 0, 64, 52
1, 637877, Note_on_c, 0, 71, 76
1, 637882, Note_off_c, 0, 59, 60
1, 637887, Control_c, 0, 64, 63
1, 637893, Note_off_c, 0, 83, 65
1, 637897, Note_off_c, 0, 71, 73
1, 637902, Control_c, 0, 64, 86
1, 637917, Control_c, 0, 64, 127
1, 637955, Note_on_c, 0, 54, 68
1, 637962, Note_on_c, 0, 50, 62
1, 637992, Note_off_c, 0, 50, 65
1, 637992, Note_off_c, 0, 54, 64
1, 637997, Note_on_c, 0, 66, 63
1, 638007, Note_on_c, 0, 62, 42
1, 638016, Note_off_c, 0, 66, 66
1, 638035, Note_off_c, 0, 62, 57
1, 638066, Note_on_c, 0, 57, 67
1, 638066, Control_c, 0, 64, 73
1, 638075, Note_on_c, 0, 45, 64
1, 638081, Control_c, 0, 64, 49
1, 638092, Note_off_c, 0, 57, 64
1, 638096, Control_c, 0, 64, 0
1, 638096, Note_off_c, 0, 45, 66
1, 638125, Note_on_c, 0, 81, 66
1, 638135, Note_on_c, 0, 69, 55
1, 638148, Note_off_c, 0, 81, 67
1, 638156, Note_off_c, 0, 69, 62
1, 638208, Control_c, 0, 64, 65
1, 638211, Note_on_c, 0, 45, 64
1, 638215, Note_on_c, 0, 33, 81
1, 638223, Control_c, 0, 64, 127
1, 638237, Note_off_c, 0, 45, 67
1, 638245, Note_off_c, 0, 33, 66
1, 638257, Note_on_c, 0, 66, 91
1, 638269, Note_on_c, 0, 78, 60
1, 638276, Note_off_c, 0, 66, 72
1, 638290, Note_off_c, 0, 78, 38
1, 638341, Note_on_c, 0, 49, 78
1, 638350, Note_on_c, 0, 54, 63
1, 638379, Note_off_c, 0, 54, 67
1, 638385, Note_on_c, 0, 61, 70
1, 638389, Note_on_c, 0, 57, 58
1, 638398, Note_off_c, 0, 49, 58
1, 638407, Note_off_c, 0, 61, 65
1, 638420, Note_off_c, 0, 57, 55
1, 638474, Note_on_c, 0, 45, 65
1, 638480, Note_on_c, 0, 52, 62
1, 638506, Note_on_c, 0, 64, 76
1, 638509, Note_on_c, 0, 76, 77
1, 638510, Note_off_c, 0, 45, 61
1, 638514, Note_off_c, 0, 52, 68
1, 638528, Note_off_c, 0, 64, 69
1, 638528, Note_off_c, 0, 76, 72
1, 638578, Control_c, 0, 64, 78
1, 638593, Control_c, 0, 64, 57
1, 638608, Control_c, 0, 64, 48
1, 638610, Note_on_c, 0, 59, 64
1, 638623, Control_c, 0, 64, 55
1, 638633, Note_on_c, 0, 83, 83
1, 638637, Control_c, 0, 64, 79
1, 638639, Note_off_c, 0, 59, 64
1, 638645, Note_on_c, 0, 71, 69
1, 638651, Note_off_c, 0, 83, 73
1, 638652, Control_c, 0, 64, 127
1, 638665, Note_off_c, 0, 71, 70
1, 638722, Note_on_c, 0, 52, 64
1, 638731, Note_on_c, 0, 49, 61
1, 638755, Note_on_c, 0, 61, 65
1, 638756, Note_off_c, 0, 52, 65
1, 638766, Note_off_c, 0, 49, 64
1, 638774, Note_off_c, 0, 61, 65
1, 638775, Note_on_c, 0, 64, 49
1, 638800, Note_off_c, 0, 64, 59
1, 638830, Control_c, 0, 64, 92
1, 638840, Note_on_c, 0, 45, 65
1, 638844, Control_c, 0, 64, 59
1, 638853, Note_on_c, 0, 57, 39
1, 638859, Control_c, 0, 64, 17
1, 638867, Note_off_c, 0, 45, 66
1, 638874, Control_c, 0, 64, 0
1, 638884, Note_on_c, 0, 67, 54
1, 638884, Note_on_c, 0, 79, 67
1, 638891, Note_off_c, 0, 57, 41
1, 638903, Note_off_c, 0, 79, 67
1, 638907, Note_off_c, 0, 67, 62
1, 638974, Note_on_c, 0, 38, 82
1, 638979, Note_on_c, 0, 50, 76
1, 639000, Note_off_c, 0, 38, 66
1, 639001, Control_c, 0, 64, 64
1, 639003, Note_off_c, 0, 50, 67
1, 639016, Control_c, 0, 64, 127
1, 639020, Note_on_c, 0, 89, 89
1, 639032, Note_on_c, 0, 77, 72
1, 639037, Note_off_c, 0, 89, 74
1, 639052, Note_off_c, 0, 77, 70
1, 639118, Note_on_c, 0, 62, 73
1, 639132, Note_on_c, 0, 67, 63
1, 639142, Note_on_c, 0, 69, 71
1, 639145, Note_on_c, 0, 74, 69
1, 639154, Note_off_c, 0, 62, 64
1, 639155, Note_off_c, 0, 67, 63
1, 639160, Note_off_c, 0, 69, 70
1, 639166, Note_off_c, 0, 74, 73
1, 639229, Note_on_c, 0, 66, 73
1, 639236, Note_on_c, 0, 57, 69
1, 639253, Note_off_c, 0, 66, 68
1, 639259, Note_off_c, 0, 57, 66
1, 639275, Note_on_c, 0, 78, 92
1, 639276, Note_on_c, 0, 90, 81
1, 639293, Note_off_c, 0, 78, 73
1, 639297, Note_off_c, 0, 90, 73
1, 639327, Control_c, 0, 64, 61
1, 639342, Control_c, 0, 64, 24
1, 639357, Control_c, 0, 64, 0
1, 639367, Note_on_c, 0, 42, 77
1, 639386, Control_c, 0, 64, 36
1, 639395, Note_off_c, 0, 42, 65
1, 639401, Control_c, 0, 64, 63
1, 639402, Note_on_c, 0, 76, 91
1, 639402, Note_on_c, 0, 88, 83
1, 639415, Note_off_c, 0, 88, 74
1, 639416, Control_c, 0, 64, 127
1, 639425, Note_off_c, 0, 76, 67
1, 639506, Note_on_c, 0, 64, 65
1, 639508, Note_on_c, 0, 58, 64
1, 639530, Note_on_c, 0, 70, 64
1, 639533, Note_on_c, 0, 66, 51
1, 639535, Note_off_c, 0, 64, 65
1, 639542, Note_off_c, 0, 58, 63
1, 639557, Note_off_c, 0, 70, 66
1, 639558, Note_off_c, 0, 66, 59
1, 639598, Note_on_c, 0, 62, 67
1, 639615, Note_on_c, 0, 54, 60
1, 639618, Note_off_c, 0, 62, 65
1, 639639, Note_off_c, 0, 54, 59
1, 639647, Note_on_c, 0, 74, 75
1, 639650, Note_on_c, 0, 86, 76
1, 639666, Note_off_c, 0, 74, 74
1, 639672, Note_off_c, 0, 86, 67
1, 639690, Control_c, 0, 64, 63
1, 639705, Control_c, 0, 64, 33
1, 639721, Control_c, 0, 64, 0
1, 639750, Note_on_c, 0, 43, 70
1, 639751, Control_c, 0, 64, 29
1, 639765, Control_c, 0, 64, 56
1, 639774, Note_off_c, 0, 43, 65
1, 639780, Control_c, 0, 64, 127
1, 639782, Note_on_c, 0, 73, 84
1, 639789, Note_on_c, 0, 85, 56
1, 639799, Note_off_c, 0, 73, 74
1, 639811, Note_off_c, 0, 85, 37
1, 639884, Note_on_c, 0, 61, 73
1, 639904, Note_on_c, 0, 67, 75
1, 639910, Note_on_c, 0, 55, 42
1, 639912, Note_on_c, 0, 63, 51
1, 639918, Note_off_c, 0, 61, 55
1, 639928, Note_off_c, 0, 67, 71
1, 639935, Note_off_c, 0, 63, 60
1, 639951, Note_off_c, 0, 55, 48
1, 639977, Note_on_c, 0, 59, 55
1, 639988, Note_on_c, 0, 51, 58
1, 639998, Note_off_c, 0, 59, 61
1, 640018, Note_off_c, 0, 51, 66
1, 640025, Note_on_c, 0, 83, 78
1, 640034, Note_on_c, 0, 71, 63
1, 640046, Note_off_c, 0, 83, 72
1, 640052, Note_off_c, 0, 71, 68
1, 640076, Control_c, 0, 64, 70
1, 640090, Control_c, 0, 64, 49
1, 640105, Control_c, 0, 64, 18
1, 640120, Control_c, 0, 64, 23
1, 640123, Note_on_c, 0, 40, 53
1, 640135, Control_c, 0, 64, 44
1, 640144, Note_on_c, 0, 69, 79
1, 640150, Control_c, 0, 64, 64
1, 640155, Note_off_c, 0, 40, 55
1, 640156, Note_on_c, 0, 81, 57
1, 640165, Control_c, 0, 64, 127
1, 640176, Note_off_c, 0, 69, 68
1, 640179, Note_off_c, 0, 81, 64
1, 640244, Note_on_c, 0, 57, 64
1, 640251, Note_on_c, 0, 52, 62
1, 640269, Note_off_c, 0, 57, 65
1, 640273, Note_on_c, 0, 64, 61
1, 640278, Note_on_c, 0, 59, 48
1, 640292, Note_off_c, 0, 52, 60
1, 640292, Note_off_c, 0, 64, 64
1, 640302, Note_off_c, 0, 59, 61
1, 640340, Note_on_c, 0, 55, 42
1, 640348, Note_on_c, 0, 47, 62
1, 640370, Note_off_c, 0, 55, 57
1, 640374, Note_off_c, 0, 47, 60
1, 640387, Control_c, 0, 64, 71
1, 640399, Note_on_c, 0, 67, 61
1, 640402, Control_c, 0, 64, 51
1, 640407, Note_on_c, 0, 79, 49
1, 640416, Control_c, 0, 64, 0
1, 640418, Note_off_c, 0, 67, 64
1, 640432, Note_off_c, 0, 79, 49
1, 640469, Control_c, 0, 64, 29
1, 640484, Control_c, 0, 64, 53
1, 640488, Note_on_c, 0, 33, 64
1, 640495, Note_on_c, 0, 45, 60
1, 640498, Control_c, 0, 64, 86
1, 640514, Control_c, 0, 64, 127
1, 640517, Note_off_c, 0, 33, 58
1, 640522, Note_off_c, 0, 45, 60
1, 640524, Note_on_c, 0, 67, 74
1, 640532, Note_on_c, 0, 79, 61
1, 640551, Note_off_c, 0, 79, 63
1, 640561, Note_off_c, 0, 67, 65
1, 640644, Note_on_c, 0, 50, 57
1, 640645, Note_on_c, 0, 55, 64
1, 640663, Note_on_c, 0, 57, 67
1, 640675, Note_on_c, 0, 62, 56
1, 640682, Note_off_c, 0, 55, 63
1, 640684, Note_off_c, 0, 57, 62
1, 640694, Note_off_c, 0, 50, 60
1, 640699, Note_off_c, 0, 62, 59
1, 640754, Note_on_c, 0, 45, 65
1, 640765, Note_on_c, 0, 54, 58
1, 640794, Note_on_c, 0, 66, 83
1, 640798, Note_on_c, 0, 78, 80
1, 640820, Note_off_c, 0, 66, 64
1, 640821, Note_off_c, 0, 45, 60
1, 640822, Note_off_c, 0, 78, 66
1, 640834, Note_off_c, 0, 54, 53
1, 640869, Control_c, 0, 64, 100
1, 640884, Control_c, 0, 64, 64
1, 640899, Control_c, 0, 64, 53
1, 640909, Note_on_c, 0, 59, 64
1, 640913, Control_c, 0, 64, 52
1, 640928, Control_c, 0, 64, 61
1, 640932, Note_on_c, 0, 83, 79
1, 640937, Note_on_c, 0, 71, 78
1, 640943, Control_c, 0, 64, 74
1, 640948, Note_off_c, 0, 59, 56
1, 640952, Note_off_c, 0, 83, 72
1, 640958, Note_off_c, 0, 71, 72
1, 640958, Control_c, 0, 64, 127
1, 641005, Note_on_c, 0, 54, 66
1, 641019, Note_on_c, 0, 50, 55
1, 641041, Note_off_c, 0, 54, 63
1, 641045, Note_off_c, 0, 50, 63
1, 641053, Note_on_c, 0, 66, 65
1, 641071, Note_off_c, 0, 66, 67
1, 641076, Note_on_c, 0, 62, 8
1, 641105, Control_c, 0, 64, 102
1, 641114, Note_on_c, 0, 57, 64
1, 641119, Note_on_c, 0, 45, 66
1, 641120, Control_c, 0, 64, 56
1, 641121, Note_off_c, 0, 62, 50
1, 641135, Control_c, 0, 64, 0
1, 641137, Note_off_c, 0, 57, 65
1, 641147, Note_off_c, 0, 45, 65
1, 641166, Note_on_c, 0, 81, 79
1, 641172, Note_on_c, 0, 69, 67
1, 641195, Note_off_c, 0, 81, 70
1, 641196, Note_off_c, 0, 69, 69
1, 641246, Control_c, 0, 64, 71
1, 641259, Note_on_c, 0, 33, 77
1, 641261, Control_c, 0, 64, 127
1, 641263, Note_on_c, 0, 45, 62
1, 641281, Note_off_c, 0, 33, 65
1, 641289, Note_off_c, 0, 45, 66
1, 641298, Note_on_c, 0, 66, 98
1, 641303, Note_on_c, 0, 78, 70
1, 641322, Note_off_c, 0, 66, 65
1, 641323, Note_off_c, 0, 78, 69
1, 641392, Note_on_c, 0, 49, 77
1, 641393, Note_on_c, 0, 54, 81
1, 641422, Note_on_c, 0, 61, 73
1, 641424, Note_on_c, 0, 57, 65
1, 641429, Note_off_c, 0, 54, 63
1, 641446, Note_off_c, 0, 61, 68
1, 641449, Note_off_c, 0, 57, 59
1, 641451, Note_off_c, 0, 49, 60
1, 641512, Note_on_c, 0, 45, 71
1, 641512, Note_on_c, 0, 52, 66
1, 641541, Note_on_c, 0, 76, 77
1, 641542, Note_on_c, 0, 64, 62
1, 641545, Note_off_c, 0, 52, 66
1, 641552, Note_off_c, 0, 45, 58
1, 641553, Note_on_c, 0, 65, 51
1, 641560, Note_off_c, 0, 64, 64
1, 641563, Note_off_c, 0, 76, 72
1, 641575, Note_off_c, 0, 65, 63
1, 641617, Control_c, 0, 64, 67
1, 641632, Control_c, 0, 64, 53
1, 641639, Note_on_c, 0, 59, 72
1, 641647, Control_c, 0, 64, 51
1, 641662, Control_c, 0, 64, 61
1, 641665, Note_on_c, 0, 83, 78
1, 641672, Note_on_c, 0, 71, 76
1, 641676, Note_off_c, 0, 59, 61
1, 641676, Control_c, 0, 64, 87
1, 641679, Note_off_c, 0, 83, 67
1, 641691, Control_c, 0, 64, 127
1, 641692, Note_off_c, 0, 71, 73
1, 641751, Note_on_c, 0, 52, 68
1, 641756, Note_on_c, 0, 49, 60
1, 641778, Note_on_c, 0, 64, 68
1, 641786, Note_off_c, 0, 52, 65
1, 641800, Note_on_c, 0, 61, 38
1, 641801, Note_off_c, 0, 49, 63
1, 641803, Note_off_c, 0, 64, 66
1, 641837, Note_off_c, 0, 61, 52
1, 641860, Note_on_c, 0, 57, 68
1, 641868, Note_on_c, 0, 45, 66
1, 641870, Control_c, 0, 64, 98
1, 641885, Control_c, 0, 64, 56
1, 641888, Note_off_c, 0, 57, 66
1, 641897, Note_off_c, 0, 45, 64
1, 641900, Control_c, 0, 64, 0
1, 641903, Note_on_c, 0, 81, 78
1, 641906, Note_on_c, 0, 69, 62
1, 641922, Note_off_c, 0, 81, 72
1, 641924, Note_off_c, 0, 69, 67
1, 642007, Note_on_c, 0, 38, 82
1, 642010, Note_on_c, 0, 50, 78
1, 642010, Control_c, 0, 64, 22
1, 642025, Control_c, 0, 64, 72
1, 642031, Note_off_c, 0, 38, 67
1, 642033, Note_off_c, 0, 50, 67
1, 642040, Control_c, 0, 64, 127
1, 642070, Note_on_c, 0, 91, 74
1, 642078, Note_on_c, 0, 79, 81
1, 642085, Note_off_c, 0, 91, 65
1, 642099, Note_off_c, 0, 79, 68
1, 642162, Note_on_c, 0, 62, 59
1, 642187, Note_on_c, 0, 67, 50
1, 642194, Note_off_c, 0, 62, 64
1, 642203, Note_on_c, 0, 69, 58
1, 642211, Note_on_c, 0, 74, 38
1, 642216, Note_off_c, 0, 67, 56
1, 642222, Note_off_c, 0, 69, 64
1, 642239, Note_off_c, 0, 74, 58
1, 642258, Note_on_c, 0, 66, 81
1, 642272, Note_on_c, 0, 57, 63
1, 642280, Note_off_c, 0, 66, 68
1, 642297, Note_off_c, 0, 57, 65
1, 642323, Note_on_c, 0, 78, 81
1, 642323, Note_on_c, 0, 90, 79
1, 642343, Note_off_c, 0, 78, 73
1, 642345, Note_off_c, 0, 90, 71
1, 642352, Control_c, 0, 64, 89
1, 642367, Control_c, 0, 64, 46
1, 642382, Control_c, 0, 64, 0
1, 642396, Note_on_c, 0, 42, 87
1, 642397, Control_c, 0, 64, 33
1, 642412, Control_c, 0, 64, 55
1, 642420, Note_off_c, 0, 42, 65
1, 642426, Control_c, 0, 64, 127
1, 642445, Note_on_c, 0, 76, 86
1, 642447, Note_on_c, 0, 88, 71
1, 642463, Note_off_c, 0, 88, 69
1, 642469, Note_off_c, 0, 76, 67
1, 642535, Note_on_c, 0, 58, 72
1, 642535, Note_on_c, 0, 64, 73
1, 642557, Note_on_c, 0, 66, 72
1, 642560, Note_off_c, 0, 64, 65
1, 642562, Note_on_c, 0, 70, 69
1, 642567, Note_off_c, 0, 58, 62
1, 642574, Note_off_c, 0, 66, 67
1, 642585, Note_off_c, 0, 70, 67
1, 642640, Note_on_c, 0, 54, 68
1, 642651, Note_on_c, 0, 62, 21
1, 642662, Note_off_c, 0, 54, 62
1, 642675, Note_on_c, 0, 74, 80
1, 642690, Note_on_c, 0, 86, 76
1, 642694, Note_off_c, 0, 62, 51
1, 642707, Note_off_c, 0, 74, 67
1, 642711, Note_off_c, 0, 86, 69
1, 642744, Control_c, 0, 64, 64
1, 642759, Control_c, 0, 64, 0
1, 642770, Note_on_c, 0, 43, 80
1, 642789, Control_c, 0, 64, 55
1, 642796, Note_off_c, 0, 43, 63
1, 642804, Control_c, 0, 64, 127
1, 642838, Note_on_c, 0, 71, 51
1, 642839, Note_on_c, 0, 82, 41
1, 642859, Note_off_c, 0, 71, 65
1, 642866, Note_on_c, 0, 72, 21
1, 642869, Note_off_c, 0, 82, 58
1, 642889, Poly_aftertouch_c, 0, 73, 127
1, 642909, Note_on_c, 0, 61, 83
1, 642919, Note_on_c, 0, 55, 53
1, 642921, Poly_aftertouch_c, 0, 73, 0
1, 642922, Note_off_c, 0, 72, 53
1, 642951, Note_on_c, 0, 63, 58
1, 642954, Note_off_c, 0, 61, 53
1, 642965, Note_on_c, 0, 67, 48
1, 642971, Note_off_c, 0, 63, 61
1, 642989, Note_off_c, 0, 67, 60
1, 642991, Note_on_c, 0, 65, 16
1, 643013, Note_on_c, 0, 59, 56
1, 643013, Note_off_c, 0, 55, 48
1, 643016, Note_on_c, 0, 51, 74
1, 643031, Note_off_c, 0, 65, 54
1, 643036, Note_off_c, 0, 59, 57
1, 643043, Note_off_c, 0, 51, 65
1, 643057, Note_on_c, 0, 71, 80
1, 643062, Note_on_c, 0, 83, 80
1, 643078, Note_off_c, 0, 71, 70
1, 643080, Note_off_c, 0, 83, 72
1, 643146, Control_c, 0, 64, 85
1, 643149, Note_on_c, 0, 40, 81
1, 643160, Control_c, 0, 64, 53
1, 643171, Note_off_c, 0, 40, 68
1, 643175, Control_c, 0, 64, 0
1, 643179, Note_on_c, 0, 65, 87
1, 643190, Control_c, 0, 64, 18
1, 643204, Note_off_c, 0, 65, 67
1, 643205, Control_c, 0, 64, 47
1, 643220, Control_c, 0, 64, 77
1, 643234, Control_c, 0, 64, 127
1, 643277, Note_on_c, 0, 57, 78
1, 643279, Note_on_c, 0, 52, 71
1, 643303, Note_on_c, 0, 59, 75
1, 643307, Note_on_c, 0, 67, 66
1, 643319, Note_off_c, 0, 57, 59
1, 643326, Note_off_c, 0, 59, 68
1, 643332, Note_off_c, 0, 67, 69
1, 643360, Note_on_c, 0, 55, 69
1, 643379, Note_off_c, 0, 52, 64
1, 643380, Note_on_c, 0, 47, 73
1, 643387, Note_off_c, 0, 55, 68
1, 643405, Note_off_c, 0, 47, 67
1, 643423, Note_on_c, 0, 64, 73
1, 643432, Note_on_c, 0, 65, 74
1, 643434, Note_on_c, 0, 76, 71
1, 643441, Note_on_c, 0, 49, 5
1, 643448, Note_off_c, 0, 64, 67
1, 643450, Note_off_c, 0, 76, 69
1, 643458, Note_off_c, 0, 65, 68
1, 643474, Note_on_c, 0, 75, 13
1, 643474, Note_off_c, 0, 49, 46
1, 643508, Control_c, 0, 64, 62
1, 643515, Note_on_c, 0, 33, 84
1, 643517, Note_on_c, 0, 45, 92
1, 643523, Note_off_c, 0, 75, 35
1, 643523, Control_c, 0, 64, 0
1, 643536, Note_off_c, 0, 33, 66
1, 643545, Note_on_c, 0, 66, 98
1, 643549, Note_off_c, 0, 45, 66
1, 643553, Control_c, 0, 64, 18
1, 643558, Note_on_c, 0, 78, 64
1, 643567, Control_c, 0, 64, 53
1, 643574, Note_off_c, 0, 66, 61
1, 643575, Note_off_c, 0, 78, 65
1, 643582, Control_c, 0, 64, 106
1, 643597, Control_c, 0, 64, 127
1, 643653, Note_on_c, 0, 50, 70
1, 643659, Note_on_c, 0, 54, 68
1, 643682, Note_on_c, 0, 62, 71
1, 643685, Note_on_c, 0, 57, 54
1, 643693, Note_off_c, 0, 54, 62
1, 643703, Note_off_c, 0, 50, 60
1, 643709, Note_off_c, 0, 62, 66
1, 643710, Note_off_c, 0, 57, 61
1, 643778, Note_on_c, 0, 55, 77
1, 643778, Note_on_c, 0, 52, 80
1, 643815, Note_off_c, 0, 55, 64
1, 643819, Note_on_c, 0, 65, 70
1, 643820, Note_on_c, 0, 67, 77
1, 643829, Note_off_c, 0, 52, 67
1, 643832, Note_on_c, 0, 79, 57
1, 643843, Note_off_c, 0, 67, 72
1, 643843, Note_off_c, 0, 65, 68
1, 643852, Note_off_c, 0, 79, 62
1, 643879, Control_c, 0, 64, 63
1, 643894, Control_c, 0, 64, 0
1, 643897, Poly_aftertouch_c, 0, 77, 0
1, 643909, Note_on_c, 0, 56, 95
1, 643913, Note_on_c, 0, 53, 74
1, 643924, Control_c, 0, 64, 26
1, 643928, Note_on_c, 0, 68, 101
1, 643932, Note_on_c, 0, 80, 83
1, 643939, Control_c, 0, 64, 58
1, 643943, Note_off_c, 0, 80, 75
1, 643954, Control_c, 0, 64, 127
1, 643961, Note_off_c, 0, 56, 66
1, 643965, Note_off_c, 0, 68, 61
1, 643990, Note_off_c, 0, 53, 62
1, 644037, Note_on_c, 0, 45, 75
1, 644053, Note_on_c, 0, 62, 84
1, 644080, Note_off_c, 0, 62, 64
1, 644154, Note_on_c, 0, 57, 83
1, 644158, Note_on_c, 0, 54, 77
1, 644190, Note_on_c, 0, 69, 93
1, 644197, Note_on_c, 0, 81, 85
1, 644216, Note_off_c, 0, 81, 72
1, 644219, Note_off_c, 0, 69, 65
1, 644225, Note_off_c, 0, 54, 63
1, 644233, Note_on_c, 0, 80, 23
1, 644234, Note_off_c, 0, 57, 58
1, 644236, Note_off_c, 0, 45, 34
1, 644268, Note_off_c, 0, 80, 52
1, 644272, Control_c, 0, 64, 75
1, 644273, Note_on_c, 0, 45, 78
1, 644287, Control_c, 0, 64, 45
1, 644302, Control_c, 0, 64, 19
1, 644302, Note_on_c, 0, 70, 108
1, 644310, Note_on_c, 0, 82, 79
1, 644316, Control_c, 0, 64, 64
1, 644329, Note_off_c, 0, 82, 70
1, 644331, Control_c, 0, 64, 127
1, 644332, Note_off_c, 0, 70, 66
1, 644391, Note_off_c, 0, 45, 34
1, 644397, Note_on_c, 0, 53, 75
1, 644402, Note_on_c, 0, 50, 70
1, 644404, Note_on_c, 0, 58, 74
1, 644434, Note_on_c, 0, 62, 89
1, 644442, Note_on_c, 0, 65, 76
1, 644454, Note_off_c, 0, 50, 59
1, 644454, Note_off_c, 0, 53, 64
1, 644454, Note_off_c, 0, 58, 63
1, 644455, Note_off_c, 0, 62, 70
1, 644463, Note_off_c, 0, 65, 71
1, 644532, Note_on_c, 0, 59, 67
1, 644538, Note_on_c, 0, 51, 72
1, 644539, Note_on_c, 0, 54, 71
1, 644561, Note_on_c, 0, 71, 89
1, 644572, Note_on_c, 0, 83, 81
1, 644592, Note_off_c, 0, 83, 71
1, 644595, Note_off_c, 0, 59, 58
1, 644596, Note_off_c, 0, 71, 65
1, 644599, Note_off_c, 0, 51, 63
1, 644603, Note_off_c, 0, 54, 64
1, 644643, Control_c, 0, 64, 62
1, 644656, Note_on_c, 0, 45, 86
1, 644658, Control_c, 0, 64, 0
1, 644681, Note_on_c, 0, 72, 101
1, 644687, Control_c, 0, 64, 45
1, 644690, Note_on_c, 0, 84, 85
1, 644696, Note_off_c, 0, 45, 68
1, 644702, Control_c, 0, 64, 127
1, 644703, Note_off_c, 0, 84, 71
1, 644711, Note_off_c, 0, 72, 67
1, 644782, Note_on_c, 0, 52, 70
1, 644782, Note_on_c, 0, 60, 78
1, 644786, Note_on_c, 0, 55, 70
1, 644812, Note_on_c, 0, 64, 80
1, 644812, Note_off_c, 0, 60, 65
1, 644816, Note_off_c, 0, 55, 66
1, 644832, Note_off_c, 0, 64, 71
1, 644833, Note_off_c, 0, 52, 65
1, 644836, Note_on_c, 0, 69, 51
1, 644854, Note_on_c, 0, 67, 23
1, 644858, Note_off_c, 0, 69, 60
1, 644902, Note_on_c, 0, 53, 70
1, 644902, Note_on_c, 0, 56, 77
1, 644902, Note_on_c, 0, 61, 84
1, 644902, Note_off_c, 0, 67, 56
1, 644939, Note_off_c, 0, 53, 64
1, 644951, Note_on_c, 0, 73, 93
1, 644961, Note_on_c, 0, 85, 74
1, 644962, Note_off_c, 0, 61, 63
1, 644967, Note_off_c, 0, 56, 63
1, 644973, Note_on_c, 0, 78, 58
1, 644976, Control_c, 0, 64, 77
1, 644984, Note_off_c, 0, 85, 66
1, 644987, Note_off_c, 0, 73, 62
1, 644991, Control_c, 0, 64, 38
1, 644992, Note_off_c, 0, 78, 66
1, 645006, Control_c, 0, 64, 0
1, 645031, Note_on_c, 0, 54, 75
1, 645033, Note_on_c, 0, 62, 77
1, 645037, Note_on_c, 0, 57, 72
1, 645051, Control_c, 0, 64, 42
1, 645065, Control_c, 0, 64, 58
1, 645068, Note_off_c, 0, 62, 56
1, 645069, Note_off_c, 0, 57, 64
1, 645074, Note_on_c, 0, 74, 86
1, 645074, Note_on_c, 0, 78, 76
1, 645080, Control_c, 0, 64, 78
1, 645081, Note_off_c, 0, 54, 66
1, 645083, Note_on_c, 0, 86, 74
1, 645095, Control_c, 0, 64, 127
1, 645098, Note_off_c, 0, 74, 66
1, 645098, Note_off_c, 0, 86, 67
1, 645100, Note_off_c, 0, 78, 64
1, 645144, Note_on_c, 0, 55, 74
1, 645148, Note_on_c, 0, 63, 73
1, 645153, Note_on_c, 0, 58, 66
1, 645194, Note_off_c, 0, 55, 65
1, 645197, Note_on_c, 0, 75, 80
1, 645197, Note_off_c, 0, 63, 60
1, 645200, Note_on_c, 0, 87, 75
1, 645201, Note_on_c, 0, 79, 71
1, 645202, Note_off_c, 0, 58, 59
1, 645221, Note_off_c, 0, 75, 65
1, 645227, Note_off_c, 0, 79, 66
1, 645227, Note_off_c, 0, 87, 62
1, 645243, Control_c, 0, 64, 80
1, 645258, Control_c, 0, 64, 62
1, 645265, Note_on_c, 0, 64, 78
1, 645268, Note_on_c, 0, 56, 75
1, 645268, Note_on_c, 0, 59, 70
1, 645273, Control_c, 0, 64, 57
1, 645287, Control_c, 0, 64, 63
1, 645303, Control_c, 0, 64, 89
1, 645313, Note_on_c, 0, 76, 86
1, 645314, Note_on_c, 0, 80, 81
1, 645315, Note_off_c, 0, 64, 61
1, 645317, Note_off_c, 0, 59, 61
1, 645318, Control_c, 0, 64, 127
1, 645319, Note_on_c, 0, 88, 79
1, 645328, Note_off_c, 0, 56, 63
1, 645334, Note_off_c, 0, 76, 69
1, 645342, Note_off_c, 0, 88, 69
1, 645352, Note_off_c, 0, 80, 50
1, 645377, Control_c, 0, 64, 71
1, 645386, Note_on_c, 0, 57, 78
1, 645386, Note_on_c, 0, 60, 79
1, 645390, Note_on_c, 0, 65, 79
1, 645392, Control_c, 0, 64, 55
1, 645407, Control_c, 0, 64, 56
1, 645422, Control_c, 0, 64, 78
1, 645427, Note_off_c, 0, 65, 62
1, 645429, Note_on_c, 0, 77, 97
1, 645430, Note_on_c, 0, 81, 87
1, 645433, Note_off_c, 0, 57, 64
1, 645433, Note_off_c, 0, 60, 64
1, 645437, Control_c, 0, 64, 127
1, 645441, Note_on_c, 0, 89, 71
1, 645458, Note_on_c, 0, 88, 52
1, 645462, Note_off_c, 0, 77, 59
1, 645466, Note_off_c, 0, 89, 69
1, 645477, Note_off_c, 0, 81, 62
1, 645480, Note_off_c, 0, 88, 62
1, 645503, Note_on_c, 0, 66, 96
1, 645511, Note_on_c, 0, 58, 73
1, 645512, Note_on_c, 0, 61, 78
1, 645546, Note_on_c, 0, 78, 92
1, 645551, Note_on_c, 0, 82, 88
1, 645551, Note_on_c, 0, 90, 91
1, 645560, Note_off_c, 0, 66, 62
1, 645566, Note_off_c, 0, 61, 63
1, 645574, Note_off_c, 0, 58, 63
1, 645587, Note_off_c, 0, 78, 66
1, 645593, Note_off_c, 0, 90, 68
1, 645598, Note_off_c, 0, 82, 61
1, 645625, Note_on_c, 0, 59, 82
1, 645626, Note_on_c, 0, 67, 87
1, 645628, Note_on_c, 0, 62, 78
1, 645660, Note_on_c, 0, 82, 87
1, 645665, Note_on_c, 0, 79, 100
1, 645671, Note_off_c, 0, 67, 66
1, 645685, Note_on_c, 0, 91, 76
1, 645686, Note_off_c, 0, 62, 62
1, 645689, Note_off_c, 0, 59, 64
1, 645691, Note_off_c, 0, 82, 66
1, 645691, Note_on_c, 0, 89, 73
1, 645704, Note_off_c, 0, 91, 67
1, 645706, Note_off_c, 0, 79, 61
1, 645706, Note_on_c, 0, 83, 63
1, 645715, Note_off_c, 0, 89, 66
1, 645724, Note_off_c, 0, 83, 68
1, 645755, Note_on_c, 0, 68, 98
1, 645764, Note_on_c, 0, 63, 76
1, 645783, Note_on_c, 0, 60, 55
1, 645784, Note_on_c, 0, 80, 99
1, 645790, Note_on_c, 0, 61, 38
1, 645793, Note_on_c, 0, 84, 87
1, 645796, Note_on_c, 0, 92, 91
1, 645801, Note_off_c, 0, 60, 66
1, 645808, Note_on_c, 0, 90, 61
1, 645813, Note_off_c, 0, 68, 62
1, 645814, Note_off_c, 0, 61, 58
1, 645826, Note_off_c, 0, 63, 62
1, 645832, Note_off_c, 0, 90, 68
1, 645835, Note_off_c, 0, 80, 64
1, 645841, Note_off_c, 0, 84, 63
1, 645845, Note_off_c, 0, 92, 66
1, 645877, Note_on_c, 0, 61, 85
1, 645879, Note_on_c, 0, 69, 93
1, 645890, Note_on_c, 0, 64, 72
1, 645910, Note_on_c, 0, 81, 101
1, 645917, Note_on_c, 0, 85, 93
1, 645917, Note_on_c, 0, 93, 98
1, 645920, Note_off_c, 0, 64, 65
1, 645929, Note_off_c, 0, 69, 67
1, 645936, Note_on_c, 0, 92, 64
1, 645944, Note_off_c, 0, 61, 65
1, 645951, Note_off_c, 0, 81, 64
1, 645953, Note_off_c, 0, 92, 65
1, 645957, Note_off_c, 0, 93, 63
1, 645973, Note_off_c, 0, 85, 61
1, 645998, Note_on_c, 0, 70, 94
1, 646005, Note_on_c, 0, 66, 73
1, 646021, Note_on_c, 0, 63, 55
1, 646027, Note_on_c, 0, 82, 109
1, 646031, Note_off_c, 0, 70, 66
1, 646037, Note_on_c, 0, 94, 87
1, 646043, Note_on_c, 0, 92, 63
1, 646054, Note_on_c, 0, 86, 58
1, 646055, Note_off_c, 0, 63, 61
1, 646069, Note_off_c, 0, 66, 59
1, 646081, Note_off_c, 0, 92, 57
1, 646081, Control_c, 0, 64, 69
1, 646086, Note_off_c, 0, 86, 63
1, 646092, Note_on_c, 0, 57, 74
1, 646096, Control_c, 0, 64, 0
1, 646106, Note_off_c, 0, 82, 59
1, 646117, Note_off_c, 0, 94, 66
1, 646142, Control_c, 0, 64, 16
1, 646145, Note_off_c, 0, 57, 65
1, 646157, Control_c, 0, 64, 55
1, 646171, Control_c, 0, 64, 97
1, 646172, Note_on_c, 0, 64, 66
1, 646176, Note_on_c, 0, 67, 77
1, 646176, Note_on_c, 0, 72, 87
1, 646177, Note_on_c, 0, 71, 76
1, 646186, Control_c, 0, 64, 127
1, 646202, Note_off_c, 0, 64, 64
1, 646213, Note_on_c, 0, 83, 104
1, 646214, Note_on_c, 0, 95, 100
1, 646219, Note_off_c, 0, 72, 60
1, 646222, Note_off_c, 0, 67, 54
1, 646228, Note_off_c, 0, 71, 65
1, 646238, Note_on_c, 0, 94, 62
1, 646239, Note_on_c, 0, 88, 66
1, 646245, Note_on_c, 0, 87, 49
1, 646260, Note_off_c, 0, 94, 55
1, 646288, Note_off_c, 0, 87, 54
1, 646298, Note_off_c, 0, 83, 59
1, 646304, Note_on_c, 0, 57, 78
1, 646320, Note_off_c, 0, 95, 62
1, 646324, Note_off_c, 0, 88, 55
1, 646339, Note_on_c, 0, 64, 77
1, 646340, Note_off_c, 0, 57, 62
1, 646349, Control_c, 0, 64, 69
1, 646356, Note_on_c, 0, 67, 74
1, 646364, Control_c, 0, 64, 41
1, 646378, Control_c, 0, 64, 0
1, 646387, Note_on_c, 0, 72, 95
1, 646393, Control_c, 0, 64, 35
1, 646408, Control_c, 0, 64, 57
1, 646431, Control_c, 0, 64, 127
1, 646446, Note_off_c, 0, 72, 64
1, 646467, Note_on_c, 0, 84, 111
1, 646470, Note_on_c, 0, 88, 88
1, 646470, Note_on_c, 0, 96, 103
1, 646495, Note_on_c, 0, 94, 63
1, 646502, Note_off_c, 0, 67, 63
1, 646505, Note_off_c, 0, 64, 57
1, 646515, Note_off_c, 0, 94, 60
1, 646538, Note_on_c, 0, 57, 73
1, 646564, Note_off_c, 0, 96, 60
1, 646581, Note_on_c, 0, 64, 71
1, 646581, Note_off_c, 0, 57, 64
1, 646602, Note_off_c, 0, 84, 58
1, 646603, Note_on_c, 0, 67, 81
1, 646682, Note_on_c, 0, 73, 100
1, 646700, Note_on_c, 0, 74, 77
1, 646704, Note_on_c, 0, 72, 72
1, 646711, Control_c, 0, 64, 56
1, 646714, Note_off_c, 0, 88, 36
1, 646726, Control_c, 0, 64, 0
1, 646756, Control_c, 0, 64, 61
1, 646757, Note_on_c, 0, 85, 112
1, 646758, Note_on_c, 0, 88, 84
1, 646763, Note_on_c, 0, 97, 95
1, 646771, Note_on_c, 0, 92, 78
1, 646771, Control_c, 0, 64, 127
1, 646782, Note_off_c, 0, 72, 53
1, 646785, Note_off_c, 0, 74, 57
1, 646785, Note_off_c, 0, 73, 67
1, 646787, Note_off_c, 0, 67, 67
1, 646789, Note_off_c, 0, 64, 62
1, 646791, Note_off_c, 0, 92, 67
1, 646792, Note_off_c, 0, 97, 62
1, 646795, Note_on_c, 0, 94, 36
1, 646796, Note_off_c, 0, 94, 127
1, 646808, Note_off_c, 0, 85, 62
1, 646808, Note_off_c, 0, 88, 66
1, 647164, Note_on_c, 0, 38, 63
1, 647164, Note_on_c, 0, 50, 59
1, 647178, Control_c, 0, 64, 72
1, 647193, Control_c, 0, 64, 53
1, 647207, Control_c, 0, 64, 37
1, 647222, Control_c, 0, 64, 42
1, 647229, Note_on_c, 0, 54, 57
1, 647237, Control_c, 0, 64, 56
1, 647240, Note_on_c, 0, 57, 53
1, 647242, Note_on_c, 0, 62, 50
1, 647252, Control_c, 0, 64, 78
1, 647253, Note_off_c, 0, 54, 59
1, 647265, Note_off_c, 0, 57, 58
1, 647267, Control_c, 0, 64, 127
1, 647268, Note_off_c, 0, 38, 61
1, 647282, Note_off_c, 0, 50, 56
1, 647286, Note_off_c, 0, 62, 0
1, 647301, Note_on_c, 0, 62, 49
1, 647302, Note_on_c, 0, 54, 59
1, 647309, Note_on_c, 0, 57, 57
1, 647336, Note_off_c, 0, 57, 65
1, 647337, Note_off_c, 0, 54, 66
1, 647355, Note_off_c, 0, 62, 61
1, 647382, Note_on_c, 0, 39, 69
1, 647384, Note_on_c, 0, 51, 69
1, 647407, Note_off_c, 0, 39, 63
1, 647413, Note_off_c, 0, 51, 65
1, 647429, Control_c, 0, 64, 85
1, 647444, Control_c, 0, 64, 65
1, 647450, Note_on_c, 0, 51, 82
1, 647450, Note_on_c, 0, 39, 71
1, 647459, Control_c, 0, 64, 56
1, 647474, Control_c, 0, 64, 52
1, 647475, Note_on_c, 0, 66, 76
1, 647483, Note_on_c, 0, 57, 68
1, 647489, Control_c, 0, 64, 56
1, 647490, Note_off_c, 0, 39, 61
1, 647495, Note_on_c, 0, 62, 50
1, 647501, Note_off_c, 0, 51, 63
1, 647504, Control_c, 0, 64, 62
1, 647505, Note_off_c, 0, 66, 60
1, 647508, Note_off_c, 0, 57, 67
1, 647519, Control_c, 0, 64, 69
1, 647519, Note_off_c, 0, 62, 59
1, 647533, Control_c, 0, 64, 86
1, 647548, Control_c, 0, 64, 127
1, 647559, Note_on_c, 0, 66, 74
1, 647566, Note_on_c, 0, 57, 68
1, 647577, Note_on_c, 0, 62, 65
1, 647602, Note_off_c, 0, 57, 52
1, 647607, Note_off_c, 0, 62, 60
1, 647614, Note_on_c, 0, 50, 80
1, 647620, Note_off_c, 0, 66, 62
1, 647626, Note_on_c, 0, 38, 65
1, 647638, Note_off_c, 0, 50, 68
1, 647666, Control_c, 0, 64, 72
1, 647667, Note_off_c, 0, 38, 0
1, 647678, Note_on_c, 0, 38, 64
1, 647681, Control_c, 0, 64, 60
1, 647685, Note_on_c, 0, 50, 88
1, 647697, Control_c, 0, 64, 56
1, 647712, Control_c, 0, 64, 60
1, 647724, Note_on_c, 0, 57, 77
1, 647726, Note_on_c, 0, 39, 42
1, 647727, Control_c, 0, 64, 66
1, 647729, Note_on_c, 0, 62, 69
1, 647731, Note_on_c, 0, 66, 69
1, 647733, Note_off_c, 0, 38, 62
1, 647736, Note_off_c, 0, 50, 60
1, 647742, Control_c, 0, 64, 73
1, 647746, Note_off_c, 0, 57, 65
1, 647750, Note_off_c, 0, 66, 65
1, 647756, Control_c, 0, 64, 83
1, 647758, Note_off_c, 0, 62, 64
1, 647764, Note_off_c, 0, 39, 42
1, 647771, Control_c, 0, 64, 95
1, 647786, Control_c, 0, 64, 127
1, 647794, Poly_aftertouch_c, 0, 69, 127
1, 647795, Note_on_c, 0, 57, 70
1, 647811, Note_on_c, 0, 66, 79
1, 647820, Note_on_c, 0, 62, 57
1, 647820, Note_off_c, 0, 57, 64
1, 647838, Note_off_c, 0, 62, 66
1, 647850, Note_on_c, 0, 49, 86
1, 647858, Note_on_c, 0, 37, 71
1, 647859, Poly_aftertouch_c, 0, 69, 0
1, 647861, Note_off_c, 0, 66, 59
1, 647872, Note_off_c, 0, 49, 69
1, 647875, Control_c, 0, 64, 83
1, 647880, Note_off_c, 0, 37, 63
1, 647890, Control_c, 0, 64, 59
1, 647904, Control_c, 0, 64, 30
1, 647927, Control_c, 0, 64, 0
1, 647933, Note_on_c, 0, 49, 88
1, 647935, Note_on_c, 0, 37, 79
1, 647956, Control_c, 0, 64, 20
1, 647965, Note_on_c, 0, 62, 80
1, 647971, Control_c, 0, 64, 38
1, 647972, Note_on_c, 0, 68, 59
1, 647977, Note_on_c, 0, 66, 69
1, 647978, Note_on_c, 0, 74, 62
1, 647978, Note_off_c, 0, 49, 68
1, 647981, Note_off_c, 0, 37, 62
1, 647981, Note_on_c, 0, 69, 59
1, 647986, Control_c, 0, 64, 49
1, 647989, Note_off_c, 0, 62, 68
1, 647996, Note_off_c, 0, 74, 68
1, 647997, Note_off_c, 0, 66, 67
1, 647999, Note_off_c, 0, 68, 55
1, 648001, Note_off_c, 0, 69, 66
1, 648001, Control_c, 0, 64, 60
1, 648016, Control_c, 0, 64, 65
1, 648030, Control_c, 0, 64, 69
1, 648045, Control_c, 0, 64, 70
1, 648058, Note_on_c, 0, 62, 68
1, 648058, Note_on_c, 0, 74, 67
1, 648060, Control_c, 0, 64, 73
1, 648067, Note_on_c, 0, 69, 69
1, 648068, Note_on_c, 0, 66, 58
1, 648074, Control_c, 0, 64, 82
1, 648076, Note_off_c, 0, 74, 63
1, 648089, Control_c, 0, 64, 101
1, 648092, Note_off_c, 0, 62, 48
1, 648095, Note_off_c, 0, 66, 64
1, 648097, Note_on_c, 0, 48, 79
1, 648104, Control_c, 0, 64, 127
1, 648106, Note_on_c, 0, 36, 70
1, 648118, Note_off_c, 0, 69, 62
1, 648119, Control_c, 0, 64, 105
1, 648122, Note_off_c, 0, 48, 67
1, 648134, Control_c, 0, 64, 77
1, 648136, Note_off_c, 0, 36, 63
1, 648148, Control_c, 0, 64, 62
1, 648163, Control_c, 0, 64, 48
1, 648178, Control_c, 0, 64, 34
1, 648183, Note_on_c, 0, 48, 74
1, 648192, Note_on_c, 0, 36, 64
1, 648193, Control_c, 0, 64, 36
1, 648208, Control_c, 0, 64, 45
1, 648222, Control_c, 0, 64, 55
1, 648225, Note_on_c, 0, 70, 70
1, 648232, Note_off_c, 0, 48, 64
1, 648233, Note_off_c, 0, 36, 61
1, 648237, Note_on_c, 0, 62, 63
1, 648237, Control_c, 0, 64, 62
1, 648238, Note_on_c, 0, 67, 65
1, 648250, Note_off_c, 0, 70, 66
1, 648252, Control_c, 0, 64, 69
1, 648257, Note_off_c, 0, 62, 63
1, 648258, Note_off_c, 0, 67, 69
1, 648267, Control_c, 0, 64, 76
1, 648282, Control_c, 0, 64, 82
1, 648297, Control_c, 0, 64, 87
1, 648312, Control_c, 0, 64, 96
1, 648321, Note_on_c, 0, 70, 72
1, 648327, Control_c, 0, 64, 127
1, 648334, Note_on_c, 0, 62, 53
1, 648336, Note_on_c, 0, 67, 57
1, 648360, Note_on_c, 0, 47, 77
1, 648361, Note_off_c, 0, 62, 56
1, 648361, Note_off_c, 0, 67, 61
1, 648370, Note_on_c, 0, 35, 59
1, 648378, Note_off_c, 0, 70, 61
1, 648393, Note_off_c, 0, 47, 63
1, 648397, Note_off_c, 0, 35, 60
1, 648401, Control_c, 0, 64, 80
1, 648416, Control_c, 0, 64, 60
1, 648430, Control_c, 0, 64, 39
1, 648445, Note_on_c, 0, 47, 77
1, 648445, Control_c, 0, 64, 0
1, 648450, Note_on_c, 0, 35, 65
1, 648475, Control_c, 0, 64, 28
1, 648482, Note_on_c, 0, 62, 73
1, 648485, Note_on_c, 0, 67, 67
1, 648490, Control_c, 0, 64, 42
1, 648496, Note_on_c, 0, 74, 59
1, 648499, Note_off_c, 0, 35, 65
1, 648502, Note_off_c, 0, 47, 63
1, 648505, Control_c, 0, 64, 54
1, 648508, Note_off_c, 0, 62, 68
1, 648512, Note_off_c, 0, 67, 69
1, 648516, Note_off_c, 0, 74, 65
1, 648520, Control_c, 0, 64, 64
1, 648535, Control_c, 0, 64, 81
1, 648550, Control_c, 0, 64, 127
1, 648561, Note_on_c, 0, 62, 67
1, 648565, Note_on_c, 0, 67, 71
1, 648572, Note_on_c, 0, 74, 72
1, 648583, Note_off_c, 0, 62, 64
1, 648591, Note_off_c, 0, 67, 68
1, 648597, Note_on_c, 0, 46, 80
1, 648602, Note_on_c, 0, 34, 72
1, 648616, Note_off_c, 0, 74, 66
1, 648625, Note_off_c, 0, 46, 66
1, 648637, Note_off_c, 0, 34, 65
1, 648676, Control_c, 0, 64, 76
1, 648691, Control_c, 0, 64, 62
1, 648697, Note_on_c, 0, 46, 87
1, 648703, Note_on_c, 0, 34, 83
1, 648705, Control_c, 0, 64, 53
1, 648720, Control_c, 0, 64, 50
1, 648725, Note_on_c, 0, 67, 86
1, 648731, Note_on_c, 0, 74, 71
1, 648732, Note_on_c, 0, 79, 75
1, 648735, Control_c, 0, 64, 53
1, 648747, Note_off_c, 0, 67, 69
1, 648750, Control_c, 0, 64, 58
1, 648751, Note_off_c, 0, 74, 74
1, 648751, Note_off_c, 0, 79, 67
1, 648765, Control_c, 0, 64, 63
1, 648777, Note_off_c, 0, 34, 63
1, 648780, Control_c, 0, 64, 74
1, 648783, Note_off_c, 0, 46, 61
1, 648795, Control_c, 0, 64, 127
1, 648807, Note_on_c, 0, 67, 83
1, 648808, Note_on_c, 0, 79, 83
1, 648818, Note_on_c, 0, 74, 75
1, 648851, Note_off_c, 0, 67, 63
1, 648852, Note_off_c, 0, 79, 62
1, 648856, Note_on_c, 0, 45, 86
1, 648863, Note_on_c, 0, 33, 76
1, 648872, Note_off_c, 0, 74, 65
1, 648899, Control_c, 0, 64, 87
1, 648913, Control_c, 0, 64, 62
1, 648924, Note_off_c, 0, 45, 58
1, 648928, Control_c, 0, 64, 46
1, 648929, Note_off_c, 0, 33, 60
1, 648943, Control_c, 0, 64, 39
1, 648948, Note_on_c, 0, 70, 72
1, 648955, Note_on_c, 0, 74, 64
1, 648958, Control_c, 0, 64, 49
1, 648963, Note_off_c, 0, 70, 69
1, 648972, Control_c, 0, 64, 62
1, 648980, Note_off_c, 0, 74, 69
1, 648987, Control_c, 0, 64, 83
1, 649002, Note_on_c, 0, 82, 50
1, 649002, Control_c, 0, 64, 127
1, 649013, Note_on_c, 0, 70, 84
1, 649018, Note_on_c, 0, 74, 75
1, 649052, Note_off_c, 0, 82, 64
1, 649053, Note_off_c, 0, 74, 65
1, 649083, Note_off_c, 0, 70, 63
1, 649095, Note_on_c, 0, 43, 79
1, 649096, Note_on_c, 0, 31, 79
1, 649120, Note_off_c, 0, 43, 63
1, 649121, Note_off_c, 0, 31, 67
1, 649224, Control_c, 0, 64, 70
1, 649231, Note_on_c, 0, 50, 88
1, 649235, Note_on_c, 0, 38, 79
1, 649239, Control_c, 0, 64, 53
1, 649254, Control_c, 0, 64, 0
1, 649299, Control_c, 0, 64, 16
1, 649304, Note_on_c, 0, 66, 68
1, 649305, Note_on_c, 0, 69, 64
1, 649310, Note_on_c, 0, 74, 59
1, 649314, Control_c, 0, 64, 40
1, 649326, Note_off_c, 0, 66, 58
1, 649328, Control_c, 0, 64, 55
1, 649333, Note_off_c, 0, 69, 68
1, 649342, Note_off_c, 0, 74, 56
1, 649343, Control_c, 0, 64, 71
1, 649349, Note_off_c, 0, 38, 60
1, 649358, Note_off_c, 0, 50, 58
1, 649358, Control_c, 0, 64, 105
1, 649373, Control_c, 0, 64, 127
1, 649377, Note_on_c, 0, 69, 67
1, 649388, Note_on_c, 0, 66, 61
1, 649411, Poly_aftertouch_c, 0, 74, 0
1, 649428, Note_off_c, 0, 66, 49
1, 649438, Note_on_c, 0, 39, 55
1, 649439, Note_off_c, 0, 69, 64
1, 649446, Note_on_c, 0, 51, 80
1, 649472, Note_off_c, 0, 51, 67
1, 649474, Note_off_c, 0, 39, 61
1, 649484, Control_c, 0, 64, 82
1, 649499, Control_c, 0, 64, 62
1, 649514, Control_c, 0, 64, 52
1, 649521, Note_on_c, 0, 51, 88
1, 649525, Note_on_c, 0, 39, 76
1, 649528, Control_c, 0, 64, 51
1, 649543, Control_c, 0, 64, 61
1, 649551, Note_on_c, 0, 66, 73
1, 649553, Note_on_c, 0, 69, 63
1, 649558, Note_on_c, 0, 74, 57
1, 649558, Control_c, 0, 64, 77
1, 649570, Note_off_c, 0, 66, 65
1, 649573, Control_c, 0, 64, 127
1, 649577, Note_off_c, 0, 69, 72
1, 649579, Note_off_c, 0, 74, 67
1, 649581, Note_off_c, 0, 51, 61
1, 649586, Note_off_c, 0, 39, 62
1, 649622, Note_on_c, 0, 66, 82
1, 649626, Note_on_c, 0, 69, 62
1, 649631, Note_on_c, 0, 78, 75
1, 649641, Note_on_c, 0, 74, 68
1, 649658, Note_off_c, 0, 66, 51
1, 649664, Note_off_c, 0, 69, 66
1, 649669, Note_off_c, 0, 74, 63
1, 649678, Note_on_c, 0, 50, 87
1, 649685, Note_on_c, 0, 38, 76
1, 649685, Note_off_c, 0, 78, 65
1, 649706, Note_off_c, 0, 50, 64
1, 649713, Note_off_c, 0, 38, 66
1, 649722, Control_c, 0, 64, 78
1, 649736, Control_c, 0, 64, 59
1, 649751, Control_c, 0, 64, 47
1, 649760, Note_on_c, 0, 50, 82
1, 649765, Note_on_c, 0, 38, 83
1, 649766, Control_c, 0, 64, 47
1, 649781, Control_c, 0, 64, 56
1, 649790, Note_on_c, 0, 69, 88
1, 649796, Control_c, 0, 64, 66
1, 649799, Note_on_c, 0, 78, 71
1, 649800, Note_on_c, 0, 74, 61
1, 649810, Control_c, 0, 64, 90
1, 649814, Note_off_c, 0, 69, 66
1, 649815, Note_on_c, 0, 81, 47
1, 649816, Note_off_c, 0, 78, 68
1, 649818, Note_on_c, 0, 39, 20
1, 649825, Control_c, 0, 64, 127
1, 649826, Note_off_c, 0, 50, 60
1, 649829, Note_off_c, 0, 74, 62
1, 649840, Note_off_c, 0, 81, 59
1, 649841, Note_off_c, 0, 38, 61
1, 649865, Note_on_c, 0, 69, 71
1, 649871, Note_off_c, 0, 39, 36
1, 649872, Note_on_c, 0, 81, 68
1, 649874, Note_on_c, 0, 78, 80
1, 649875, Note_on_c, 0, 74, 49
1, 649900, Note_off_c, 0, 74, 64
1, 649908, Note_off_c, 0, 69, 45
1, 649921, Note_on_c, 0, 49, 92
1, 649924, Note_on_c, 0, 37, 81
1, 649927, Note_off_c, 0, 78, 64
1, 649929, Note_off_c, 0, 81, 64
1, 649958, Control_c, 0, 64, 105
1, 649960, Note_off_c, 0, 37, 65
1, 649960, Note_off_c, 0, 49, 58
1, 649973, Control_c, 0, 64, 63
1, 649988, Control_c, 0, 64, 43
1, 650002, Control_c, 0, 64, 23
1, 650015, Note_on_c, 0, 49, 90
1, 650017, Control_c, 0, 64, 35
1, 650019, Note_on_c, 0, 37, 82
1, 650027, Note_on_c, 0, 74, 77
1, 650032, Control_c, 0, 64, 49
1, 650037, Note_on_c, 0, 81, 67
1, 650046, Note_on_c, 0, 78, 54
1, 650047, Control_c, 0, 64, 62
1, 650051, Note_off_c, 0, 74, 65
1, 650056, Note_on_c, 0, 86, 43
1, 650056, Note_off_c, 0, 81, 69
1, 650061, Control_c, 0, 64, 84
1, 650067, Note_off_c, 0, 78, 61
1, 650076, Control_c, 0, 64, 127
1, 650085, Note_off_c, 0, 49, 64
1, 650091, Note_off_c, 0, 37, 61
1, 650091, Note_on_c, 0, 74, 69
1, 650094, Note_off_c, 0, 86, 0
1, 650094, Note_on_c, 0, 86, 48
1, 650108, Note_on_c, 0, 81, 82
1, 650112, Note_on_c, 0, 78, 68
1, 650181, Note_off_c, 0, 78, 63
1, 650181, Note_off_c, 0, 86, 61
1, 650184, Note_on_c, 0, 48, 92
1, 650186, Note_off_c, 0, 74, 62
1, 650186, Note_off_c, 0, 81, 62
1, 650192, Note_on_c, 0, 36, 79
1, 650204, Control_c, 0, 64, 95
1, 650219, Control_c, 0, 64, 63
1, 650222, Note_off_c, 0, 48, 61
1, 650228, Note_off_c, 0, 36, 62
1, 650233, Control_c, 0, 64, 47
1, 650248, Control_c, 0, 64, 31
1, 650263, Control_c, 0, 64, 35
1, 650277, Note_on_c, 0, 48, 77
1, 650277, Control_c, 0, 64, 48
1, 650285, Note_on_c, 0, 36, 78
1, 650292, Control_c, 0, 64, 62
1, 650307, Control_c, 0, 64, 97
1, 650312, Note_on_c, 0, 74, 74
1, 650317, Note_on_c, 0, 79, 77
1, 650322, Control_c, 0, 64, 127
1, 650326, Note_on_c, 0, 82, 61
1, 650344, Note_off_c, 0, 79, 64
1, 650345, Note_off_c, 0, 82, 66
1, 650347, Note_off_c, 0, 48, 64
1, 650347, Note_off_c, 0, 74, 60
1, 650362, Note_off_c, 0, 36, 62
1, 650401, Note_on_c, 0, 82, 79
1, 650402, Note_on_c, 0, 74, 50
1, 650402, Note_on_c, 0, 79, 65
1, 650446, Note_on_c, 0, 47, 91
1, 650449, Note_off_c, 0, 74, 61
1, 650454, Note_on_c, 0, 35, 79
1, 650460, Note_off_c, 0, 79, 59
1, 650467, Note_off_c, 0, 82, 62
1, 650491, Note_off_c, 0, 35, 66
1, 650492, Note_off_c, 0, 47, 63
1, 650515, Control_c, 0, 64, 67
1, 650529, Control_c, 0, 64, 51
1, 650544, Control_c, 0, 64, 33
1, 650545, Note_on_c, 0, 47, 83
1, 650551, Note_on_c, 0, 35, 72
1, 650559, Control_c, 0, 64, 35
1, 650568, Note_on_c, 0, 79, 84
1, 650571, Note_on_c, 0, 74, 77
1, 650574, Control_c, 0, 64, 47
1, 650589, Control_c, 0, 64, 63
1, 650589, Note_on_c, 0, 86, 55
1, 650595, Note_off_c, 0, 74, 65
1, 650604, Control_c, 0, 64, 97
1, 650610, Note_off_c, 0, 79, 59
1, 650610, Note_off_c, 0, 86, 61
1, 650614, Note_off_c, 0, 35, 61
1, 650616, Note_off_c, 0, 47, 62
1, 650619, Control_c, 0, 64, 127
1, 650644, Note_on_c, 0, 74, 63
1, 650646, Note_on_c, 0, 79, 68
1, 650658, Note_on_c, 0, 86, 79
1, 650673, Note_off_c, 0, 74, 68
1, 650678, Note_off_c, 0, 79, 63
1, 650693, Note_on_c, 0, 46, 91
1, 650699, Note_on_c, 0, 34, 82
1, 650709, Note_off_c, 0, 86, 63
1, 650733, Note_off_c, 0, 34, 65
1, 650742, Note_off_c, 0, 46, 63
1, 650766, Control_c, 0, 64, 96
1, 650781, Control_c, 0, 64, 60
1, 650793, Note_on_c, 0, 46, 89
1, 650796, Control_c, 0, 64, 41
1, 650799, Note_on_c, 0, 34, 92
1, 650811, Control_c, 0, 64, 36
1, 650814, Note_on_c, 0, 79, 89
1, 650815, Note_on_c, 0, 91, 84
1, 650820, Note_on_c, 0, 86, 76
1, 650825, Control_c, 0, 64, 49
1, 650834, Note_off_c, 0, 79, 68
1, 650838, Note_off_c, 0, 91, 62
1, 650840, Control_c, 0, 64, 64
1, 650842, Note_off_c, 0, 86, 68
1, 650855, Control_c, 0, 64, 127
1, 650876, Note_off_c, 0, 46, 64
1, 650880, Note_off_c, 0, 34, 63
1, 650882, Note_on_c, 0, 79, 90
1, 650886, Note_on_c, 0, 91, 85
1, 650895, Note_on_c, 0, 86, 85
1, 650957, Note_on_c, 0, 45, 94
1, 650959, Note_off_c, 0, 79, 62
1, 650965, Note_on_c, 0, 33, 86
1, 650968, Note_off_c, 0, 91, 59
1, 650974, Note_off_c, 0, 86, 62
1, 651008, Note_off_c, 0, 45, 62
1, 651021, Note_off_c, 0, 33, 61
1, 651042, Control_c, 0, 64, 68
1, 651054, Note_on_c, 0, 82, 89
1, 651056, Control_c, 0, 64, 39
1, 651060, Note_on_c, 0, 86, 79
1, 651062, Note_on_c, 0, 94, 70
1, 651068, Note_on_c, 0, 45, 86
1, 651069, Note_on_c, 0, 33, 68
1, 651071, Control_c, 0, 64, 27
1, 651074, Note_off_c, 0, 82, 69
1, 651086, Control_c, 0, 64, 47
1, 651087, Note_off_c, 0, 94, 69
1, 651088, Note_off_c, 0, 86, 62
1, 651100, Control_c, 0, 64, 69
1, 651111, Note_off_c, 0, 45, 64
1, 651115, Control_c, 0, 64, 127
1, 651120, Note_off_c, 0, 33, 65
1, 651126, Note_on_c, 0, 86, 79
1, 651126, Note_on_c, 0, 82, 83
1, 651129, Note_on_c, 0, 94, 95
1, 651178, Note_off_c, 0, 86, 64
1, 651196, Note_off_c, 0, 82, 63
1, 651206, Note_off_c, 0, 94, 68
1, 651215, Note_on_c, 0, 43, 102
1, 651219, Note_on_c, 0, 31, 94
1, 651252, Note_off_c, 0, 31, 65
1, 651254, Note_off_c, 0, 43, 64
1, 651297, Poly_aftertouch_c, 0, 32, 0
1, 651334, Poly_aftertouch_c, 0, 32, 0
1, 651352, Control_c, 0, 64, 57
1, 651367, Control_c, 0, 64, 0
1, 651373, Note_on_c, 0, 50, 114
1, 651378, Note_on_c, 0, 38, 93
1, 651404, Note_on_c, 0, 39, 65
1, 651409, Note_on_c, 0, 44, 44
1, 651410, Note_off_c, 0, 44, 127
1, 651433, Note_off_c, 0, 39, 37
1, 651441, Control_c, 0, 64, 64
1, 651456, Note_on_c, 0, 90, 91
1, 651456, Control_c, 0, 64, 127
1, 651458, Note_on_c, 0, 86, 90
1, 651459, Note_on_c, 0, 93, 88
1, 651464, Note_on_c, 0, 98, 82
1, 651475, Note_off_c, 0, 93, 73
1, 651479, Note_on_c, 0, 92, 10
1, 651479, Note_off_c, 0, 86, 65
1, 651482, Note_off_c, 0, 90, 66
1, 651484, Note_off_c, 0, 98, 69
1, 651486, Note_off_c, 0, 92, 41
1, 651490, Note_off_c, 0, 38, 62
1, 651501, Note_off_c, 0, 50, 57
1, 651522, Note_on_c, 0, 86, 90
1, 651526, Note_on_c, 0, 90, 81
1, 651537, Note_on_c, 0, 98, 58
1, 651556, Note_on_c, 0, 93, 54
1, 651562, Note_off_c, 0, 98, 60
1, 651573, Note_off_c, 0, 90, 68
1, 651575, Note_on_c, 0, 51, 95
1, 651576, Note_off_c, 0, 86, 61
1, 651581, Note_on_c, 0, 39, 79
1, 651582, Note_off_c, 0, 93, 60
1, 651607, Note_off_c, 0, 51, 58
1, 651613, Note_off_c, 0, 39, 65
1, 651653, Note_on_c, 0, 51, 82
1, 651663, Control_c, 0, 64, 98
1, 651665, Note_on_c, 0, 39, 88
1, 651686, Control_c, 0, 64, 70
1, 651701, Control_c, 0, 64, 76
1, 651704, Note_on_c, 0, 74, 74
1, 651704, Note_on_c, 0, 78, 79
1, 651716, Control_c, 0, 64, 127
1, 651720, Note_on_c, 0, 81, 48
1, 651721, Note_off_c, 0, 78, 71
1, 651723, Note_off_c, 0, 74, 74
1, 651725, Note_off_c, 0, 51, 63
1, 651743, Note_off_c, 0, 39, 62
1, 651745, Note_off_c, 0, 81, 61
1, 651752, Poly_aftertouch_c, 0, 74, 0
1, 651759, Note_on_c, 0, 74, 78
1, 651762, Poly_aftertouch_c, 0, 81, 0
1, 651775, Note_on_c, 0, 78, 82
1, 651775, Note_on_c, 0, 81, 56
1, 651782, Note_on_c, 0, 86, 34
1, 651794, Note_off_c, 0, 81, 64
1, 651795, Note_off_c, 0, 78, 71
1, 651805, Note_off_c, 0, 74, 66
1, 651820, Note_off_c, 0, 86, 51
1, 651822, Note_on_c, 0, 50, 87
1, 651829, Note_on_c, 0, 38, 78
1, 651855, Note_off_c, 0, 50, 61
1, 651859, Note_off_c, 0, 38, 64
1, 651913, Note_on_c, 0, 50, 81
1, 651919, Note_on_c, 0, 38, 80
1, 651925, Note_on_c, 0, 62, 83
1, 651933, Note_on_c, 0, 66, 66
1, 651935, Note_on_c, 0, 69, 58
1, 651945, Note_off_c, 0, 62, 70
1, 651952, Note_off_c, 0, 66, 66
1, 651954, Note_off_c, 0, 69, 66
1, 651967, Note_off_c, 0, 50, 60
1, 651978, Note_off_c, 0, 38, 62
1, 651989, Note_on_c, 0, 62, 101
1, 652008, Note_on_c, 0, 66, 75
1, 652014, Note_on_c, 0, 69, 63
1, 652028, Note_on_c, 0, 74, 4
1, 652030, Poly_aftertouch_c, 0, 39, 0
1, 652041, Note_off_c, 0, 69, 65
1, 652045, Note_off_c, 0, 66, 64
1, 652047, Note_on_c, 0, 49, 90
1, 652048, Note_on_c, 0, 37, 84
1, 652056, Note_off_c, 0, 62, 57
1, 652074, Note_off_c, 0, 74, 54
1, 652083, Note_off_c, 0, 49, 58
1, 652084, Note_off_c, 0, 37, 63
1, 652139, Note_on_c, 0, 49, 94
1, 652142, Note_on_c, 0, 37, 84
1, 652158, Note_on_c, 0, 57, 79
1, 652160, Note_on_c, 0, 62, 68
1, 652164, Note_on_c, 0, 54, 73
1, 652181, Note_off_c, 0, 57, 69
1, 652185, Note_off_c, 0, 54, 68
1, 652185, Note_off_c, 0, 62, 69
1, 652187, Note_on_c, 0, 58, 19
1, 652212, Note_off_c, 0, 37, 62
1, 652214, Note_off_c, 0, 49, 64
1, 652225, Note_off_c, 0, 58, 46
1, 652229, Note_on_c, 0, 54, 90
1, 652232, Note_on_c, 0, 57, 81
1, 652236, Note_on_c, 0, 62, 78
1, 652253, Note_off_c, 0, 54, 70
1, 652272, Note_off_c, 0, 57, 60
1, 652286, Note_off_c, 0, 62, 67
1, 652289, Note_on_c, 0, 61, 22
1, 652294, Note_on_c, 0, 48, 101
1, 652300, Note_on_c, 0, 36, 84
1, 652319, Note_off_c, 0, 61, 57
1, 652333, Note_off_c, 0, 48, 64
1, 652336, Note_off_c, 0, 36, 65
1, 652412, Control_c, 0, 64, 54
1, 652431, Note_on_c, 0, 48, 108
1, 652434, Control_c, 0, 64, 0
1, 652440, Note_on_c, 0, 36, 97
1, 652479, Control_c, 0, 64, 66
1, 652494, Control_c, 0, 64, 127
1, 652514, Note_on_c, 0, 86, 97
1, 652514, Note_on_c, 0, 89, 93
1, 652515, Note_on_c, 0, 98, 94
1, 652525, Note_on_c, 0, 90, 71
1, 652530, Note_off_c, 0, 98, 78
1, 652531, Note_off_c, 0, 89, 73
1, 652533, Note_off_c, 0, 86, 68
1, 652535, Poly_aftertouch_c, 0, 37, 127
1, 652540, Note_off_c, 0, 90, 70
1, 652541, Note_on_c, 0, 96, 29
1, 652542, Note_off_c, 0, 96, 127
1, 652551, Note_off_c, 0, 48, 62
1, 652557, Note_off_c, 0, 36, 61
1, 652566, Note_on_c, 0, 86, 87
1, 652578, Poly_aftertouch_c, 0, 37, 0
1, 652581, Note_on_c, 0, 89, 86
1, 652616, Note_off_c, 0, 89, 60
1, 652623, Note_on_c, 0, 47, 89
1, 652625, Note_off_c, 0, 86, 61
1, 652632, Note_on_c, 0, 35, 77
1, 652660, Note_off_c, 0, 35, 65
1, 652663, Note_off_c, 0, 47, 62
1, 652708, Note_on_c, 0, 47, 83
1, 652715, Note_on_c, 0, 35, 80
1, 652732, Note_on_c, 0, 77, 84
1, 652734, Note_on_c, 0, 74, 81
1, 652750, Note_off_c, 0, 74, 76
1, 652750, Note_off_c, 0, 77, 72
1, 652753, Note_on_c, 0, 86, 47
1, 652780, Note_off_c, 0, 47, 63
1, 652786, Note_on_c, 0, 74, 83
1, 652786, Note_off_c, 0, 35, 63
1, 652791, Note_on_c, 0, 77, 86
1, 652798, Note_off_c, 0, 86, 0
1, 652798, Note_on_c, 0, 86, 35
1, 652829, Note_off_c, 0, 77, 65
1, 652831, Note_off_c, 0, 86, 48
1, 652832, Note_off_c, 0, 74, 64
1, 652837, Poly_aftertouch_c, 0, 84, 0
1, 652859, Note_on_c, 0, 46, 89
1, 652862, Note_on_c, 0, 34, 78
1, 652891, Note_off_c, 0, 46, 58
1, 652897, Note_off_c, 0, 34, 64
1, 652950, Note_on_c, 0, 34, 88
1, 652950, Note_on_c, 0, 46, 95
1, 652953, Note_on_c, 0, 65, 79
1, 652955, Note_on_c, 0, 62, 81
1, 652974, Note_off_c, 0, 65, 72
1, 652977, Note_off_c, 0, 62, 69
1, 652988, Note_on_c, 0, 66, 38
1, 653010, Note_off_c, 0, 46, 65
1, 653015, Note_off_c, 0, 34, 64
1, 653019, Note_on_c, 0, 62, 86
1, 653021, Note_off_c, 0, 66, 53
1, 653026, Note_on_c, 0, 65, 85
1, 653060, Note_off_c, 0, 65, 62
1, 653069, Note_off_c, 0, 62, 60
1, 653093, Note_on_c, 0, 45, 91
1, 653100, Note_on_c, 0, 33, 81
1, 653124, Note_off_c, 0, 45, 64
1, 653133, Note_off_c, 0, 33, 65
1, 653183, Note_on_c, 0, 53, 85
1, 653185, Note_on_c, 0, 58, 79
1, 653191, Note_on_c, 0, 62, 73
1, 653194, Note_on_c, 0, 45, 98
1, 653194, Note_on_c, 0, 33, 83
1, 653200, Note_on_c, 0, 61, 37
1, 653201, Note_off_c, 0, 61, 127
1, 653205, Note_off_c, 0, 53, 73
1, 653206, Note_off_c, 0, 58, 70
1, 653212, Note_off_c, 0, 62, 67
1, 653227, Note_on_c, 0, 34, 26
1, 653248, Note_on_c, 0, 53, 85
1, 653251, Note_on_c, 0, 58, 89
1, 653256, Note_on_c, 0, 62, 89
1, 653260, Note_off_c, 0, 34, 64
1, 653260, Note_off_c, 0, 45, 62
1, 653266, Note_off_c, 0, 33, 63
1, 653272, Note_off_c, 0, 53, 72
1, 653297, Note_off_c, 0, 58, 66
1, 653301, Note_off_c, 0, 62, 67
1, 653338, Note_on_c, 0, 44, 96
1, 653346, Note_on_c, 0, 32, 83
1, 653377, Control_c, 0, 64, 68
1, 653379, Note_off_c, 0, 32, 62
1, 653384, Note_off_c, 0, 44, 61
1, 653392, Control_c, 0, 64, 0
1, 653443, Note_on_c, 0, 44, 106
1, 653447, Note_on_c, 0, 32, 99
1, 653463, Note_on_c, 0, 42, 71
1, 653464, Note_off_c, 0, 42, 127
1, 653466, Control_c, 0, 64, 127
1, 653493, Note_on_c, 0, 43, 38
1, 653508, Note_on_c, 0, 86, 104
1, 653511, Note_on_c, 0, 94, 98
1, 653526, Note_on_c, 0, 98, 77
1, 653527, Note_off_c, 0, 94, 72
1, 653537, Note_off_c, 0, 86, 65
1, 653540, Note_off_c, 0, 32, 62
1, 653543, Note_on_c, 0, 97, 38
1, 653543, Note_off_c, 0, 98, 66
1, 653545, Note_off_c, 0, 43, 51
1, 653546, Note_off_c, 0, 44, 57
1, 653572, Note_on_c, 0, 86, 86
1, 653573, Note_off_c, 0, 97, 35
1, 653580, Note_on_c, 0, 94, 91
1, 653603, Note_off_c, 0, 94, 70
1, 653609, Note_on_c, 0, 98, 30
1, 653620, Note_on_c, 0, 43, 94
1, 653620, Note_off_c, 0, 86, 61
1, 653630, Note_on_c, 0, 31, 81
1, 653639, Note_off_c, 0, 98, 34
1, 653647, Note_on_c, 0, 37, 50
1, 653653, Note_off_c, 0, 43, 61
1, 653660, Note_off_c, 0, 31, 66
1, 653679, Note_off_c, 0, 37, 52
1, 653712, Poly_aftertouch_c, 0, 32, 0
1, 653716, Note_on_c, 0, 43, 96
1, 653719, Note_on_c, 0, 31, 87
1, 653731, Note_on_c, 0, 74, 91
1, 653732, Note_on_c, 0, 82, 83
1, 653746, Note_on_c, 0, 86, 62
1, 653749, Note_off_c, 0, 82, 75
1, 653749, Poly_aftertouch_c, 0, 32, 127
1, 653751, Note_off_c, 0, 74, 70
1, 653763, Note_on_c, 0, 76, 32
1, 653764, Note_off_c, 0, 76, 127
1, 653764, Note_off_c, 0, 86, 65
1, 653765, Note_on_c, 0, 85, 26
1, 653772, Note_off_c, 0, 43, 57
1, 653776, Note_off_c, 0, 31, 62
1, 653796, Note_on_c, 0, 74, 81
1, 653802, Note_on_c, 0, 82, 88
1, 653803, Poly_aftertouch_c, 0, 32, 0
1, 653803, Note_off_c, 0, 85, 34
1, 653820, Note_off_c, 0, 82, 74
1, 653830, Note_off_c, 0, 74, 64
1, 653872, Note_on_c, 0, 30, 75
1, 653874, Note_on_c, 0, 42, 65
1, 653891, Note_on_c, 0, 41, 44
1, 653896, Note_off_c, 0, 42, 60
1, 653901, Note_on_c, 0, 43, 24
1, 653905, Note_off_c, 0, 30, 63
1, 653928, Note_off_c, 0, 43, 67
1, 653934, Note_off_c, 0, 41, 52
1, 653965, Note_on_c, 0, 42, 95
1, 653967, Note_on_c, 0, 30, 91
1, 653970, Note_on_c, 0, 62, 91
1, 653981, Note_on_c, 0, 70, 62
1, 653995, Note_off_c, 0, 62, 63
1, 653999, Poly_aftertouch_c, 0, 34, 127
1, 654001, Note_off_c, 0, 70, 65
1, 654002, Note_on_c, 0, 74, 32
1, 654018, Note_off_c, 0, 42, 63
1, 654021, Note_off_c, 0, 30, 62
1, 654035, Note_on_c, 0, 62, 83
1, 654043, Poly_aftertouch_c, 0, 34, 0
1, 654044, Note_on_c, 0, 70, 75
1, 654049, Note_off_c, 0, 74, 0
1, 654049, Note_on_c, 0, 74, 13
1, 654068, Note_off_c, 0, 70, 67
1, 654079, Note_off_c, 0, 62, 64
1, 654095, Note_off_c, 0, 74, 56
1, 654110, Note_on_c, 0, 41, 105
1, 654116, Note_on_c, 0, 29, 91
1, 654146, Note_on_c, 0, 30, 42
1, 654147, Note_off_c, 0, 41, 67
1, 654148, Note_off_c, 0, 29, 62
1, 654174, Note_off_c, 0, 30, 58
1, 654201, Note_on_c, 0, 55, 87
1, 654205, Note_on_c, 0, 62, 73
1, 654206, Note_on_c, 0, 41, 103
1, 654208, Note_on_c, 0, 29, 83
1, 654208, Note_on_c, 0, 59, 65
1, 654220, Poly_aftertouch_c, 0, 31, 0
1, 654226, Note_off_c, 0, 55, 69
1, 654227, Note_off_c, 0, 59, 66
1, 654228, Note_on_c, 0, 31, 38
1, 654235, Note_off_c, 0, 62, 64
1, 654268, Note_on_c, 0, 58, 68
1, 654271, Note_off_c, 0, 31, 49
1, 654272, Note_on_c, 0, 55, 78
1, 654281, Note_on_c, 0, 62, 84
1, 654283, Note_off_c, 0, 41, 58
1, 654293, Note_off_c, 0, 55, 70
1, 654294, Note_off_c, 0, 29, 60
1, 654322, Note_off_c, 0, 58, 66
1, 654335, Note_on_c, 0, 61, 7
1, 654339, Note_off_c, 0, 62, 64
1, 654382, Note_off_c, 0, 61, 43
1, 654395, Note_on_c, 0, 40, 99
1, 654402, Note_on_c, 0, 28, 91
1, 654411, Note_on_c, 0, 29, 73
1, 654422, Note_on_c, 0, 34, 53
1, 654430, Note_off_c, 0, 29, 61
1, 654437, Control_c, 0, 64, 74
1, 654439, Note_off_c, 0, 28, 68
1, 654440, Note_off_c, 0, 40, 66
1, 654444, Note_off_c, 0, 34, 59
1, 654452, Control_c, 0, 64, 33
1, 654467, Control_c, 0, 64, 0
1, 654504, Note_on_c, 0, 40, 102
1, 654512, Note_on_c, 0, 28, 94
1, 654526, Control_c, 0, 64, 60
1, 654539, Note_on_c, 0, 32, 54
1, 654541, Control_c, 0, 64, 127
1, 654576, Note_on_c, 0, 86, 94
1, 654576, Note_off_c, 0, 32, 49
1, 654577, Note_on_c, 0, 98, 103
1, 654584, Note_on_c, 0, 88, 74
1, 654584, Note_on_c, 0, 91, 67
1, 654591, Note_on_c, 0, 92, 70
1, 654591, Note_on_c, 0, 93, 74
1, 654592, Note_off_c, 0, 28, 64
1, 654596, Note_off_c, 0, 88, 74
1, 654601, Note_off_c, 0, 86, 64
1, 654603, Note_off_c, 0, 91, 67
1, 654606, Note_off_c, 0, 98, 63
1, 654607, Note_off_c, 0, 93, 67
1, 654611, Note_off_c, 0, 92, 63
1, 654614, Note_off_c, 0, 40, 63
1, 654649, Note_on_c, 0, 86, 92
1, 654652, Note_on_c, 0, 91, 101
1, 654656, Note_on_c, 0, 98, 84
1, 654679, Note_off_c, 0, 98, 74
1, 654706, Note_off_c, 0, 91, 58
1, 654706, Note_off_c, 0, 86, 54
1, 654714, Note_on_c, 0, 96, 26
1, 654727, Note_on_c, 0, 39, 87
1, 654735, Note_on_c, 0, 27, 79
1, 654754, Note_off_c, 0, 96, 25
1, 654756, Note_off_c, 0, 39, 66
1, 654760, Note_off_c, 0, 27, 67
1, 654807, Note_on_c, 0, 39, 94
1, 654813, Note_on_c, 0, 27, 99
1, 654864, Note_on_c, 0, 74, 85
1, 654867, Note_on_c, 0, 79, 81
1, 654879, Note_on_c, 0, 86, 59
1, 654882, Note_off_c, 0, 27, 63
1, 654882, Note_off_c, 0, 74, 72
1, 654886, Note_off_c, 0, 79, 69
1, 654888, Note_on_c, 0, 78, 49
1, 654888, Note_off_c, 0, 39, 64
1, 654901, Note_off_c, 0, 86, 60
1, 654913, Note_off_c, 0, 78, 60
1, 654918, Note_on_c, 0, 84, 7
1, 654924, Note_on_c, 0, 74, 88
1, 654932, Note_on_c, 0, 86, 78
1, 654935, Note_on_c, 0, 79, 96
1, 654953, Note_off_c, 0, 86, 66
1, 654967, Note_off_c, 0, 84, 51
1, 654971, Note_off_c, 0, 74, 63
1, 654972, Note_off_c, 0, 79, 66
1, 654981, Note_on_c, 0, 39, 96
1, 654985, Note_on_c, 0, 27, 93
1, 655010, Note_on_c, 0, 30, 44
1, 655018, Note_off_c, 0, 39, 57
1, 655022, Note_off_c, 0, 27, 60
1, 655042, Note_off_c, 0, 30, 50
1, 655079, Note_on_c, 0, 39, 106
1, 655081, Note_on_c, 0, 27, 100
1, 655136, Note_on_c, 0, 68, 90
1, 655147, Note_on_c, 0, 62, 75
1, 655163, Note_off_c, 0, 27, 63
1, 655169, Note_off_c, 0, 62, 69
1, 655171, Note_off_c, 0, 39, 63
1, 655207, Note_on_c, 0, 62, 96
1, 655218, Note_on_c, 0, 76, 53
1, 655220, Note_on_c, 0, 74, 52
1, 655227, Note_on_c, 0, 67, 79
1, 655228, Note_off_c, 0, 68, 61
1, 655240, Note_off_c, 0, 76, 60
1, 655248, Note_off_c, 0, 74, 69
1, 655248, Poly_aftertouch_c, 0, 64, 0
1, 655256, Note_off_c, 0, 67, 62
1, 655263, Note_off_c, 0, 62, 60
1, 655278, Note_on_c, 0, 39, 96
1, 655280, Poly_aftertouch_c, 0, 73, 127
1, 655284, Note_on_c, 0, 27, 85
1, 655295, Note_on_c, 0, 30, 60
1, 655305, Note_off_c, 0, 27, 71
1, 655311, Poly_aftertouch_c, 0, 73, 0
1, 655317, Note_off_c, 0, 39, 65
1, 655323, Note_off_c, 0, 30, 57
1, 655375, Note_on_c, 0, 27, 65
1, 655378, Note_on_c, 0, 39, 101
1, 655402, Note_on_c, 0, 30, 58
1, 655430, Note_off_c, 0, 30, 62
1, 655447, Note_on_c, 0, 50, 97
1, 655451, Note_on_c, 0, 55, 77
1, 655463, Note_on_c, 0, 62, 68
1, 655478, Note_off_c, 0, 55, 66
1, 655480, Note_off_c, 0, 50, 59
1, 655481, Note_off_c, 0, 62, 69
1, 655484, Note_off_c, 0, 27, 65
1, 655487, Note_off_c, 0, 39, 62
1, 655516, Note_on_c, 0, 50, 69
1, 655531, Note_on_c, 0, 62, 79
1, 655543, Note_off_c, 0, 50, 60
1, 655555, Note_off_c, 0, 62, 65
1, 655587, Note_on_c, 0, 39, 99
1, 655589, Note_on_c, 0, 27, 96
1, 655617, Poly_aftertouch_c, 0, 55, 0
1, 655639, Note_off_c, 0, 39, 60
1, 655644, Note_off_c, 0, 27, 61
1, 655698, Control_c, 0, 64, 70
1, 655713, Control_c, 0, 64, 0
1, 655736, Note_on_c, 0, 54, 115
1, 655739, Note_on_c, 0, 62, 73
1, 655742, Note_on_c, 0, 38, 116
1, 655749, Note_on_c, 0, 28, 100
1, 655749, Note_on_c, 0, 66, 86
1, 655761, Note_on_c, 0, 27, 75
1, 655763, Note_off_c, 0, 27, 55
1, 655765, Note_on_c, 0, 56, 61
1, 655766, Note_off_c, 0, 56, 127
1, 655770, Note_off_c, 0, 66, 69
1, 655774, Note_off_c, 0, 38, 70
1, 655776, Note_off_c, 0, 28, 71
1, 655779, Note_off_c, 0, 54, 69
1, 655785, Note_off_c, 0, 62, 65
1, 655785, Note_on_c, 0, 32, 38
1, 655786, Note_off_c, 0, 32, 127
1, 655787, Control_c, 0, 64, 61
1, 655802, Control_c, 0, 64, 127
1, 655827, Poly_aftertouch_c, 0, 58, 0
1, 655831, Poly_aftertouch_c, 0, 32, 0
1, 655850, Note_on_c, 0, 27, 31
1, 655880, Note_off_c, 0, 27, 41
1, 656090, Note_on_c, 0, 58, 33
1, 656133, Note_off_c, 0, 58, 45
1, 656242, Note_on_c, 0, 57, 68
1, 656244, Note_on_c, 0, 54, 65
1, 656245, Note_on_c, 0, 66, 75
1, 656253, Note_on_c, 0, 74, 60
1, 656255, Note_on_c, 0, 69, 60
1, 656262, Note_off_c, 0, 66, 68
1, 656265, Note_on_c, 0, 62, 37
1, 656273, Note_off_c, 0, 54, 67
1, 656275, Note_off_c, 0, 57, 63
1, 656279, Note_off_c, 0, 74, 69
1, 656283, Note_off_c, 0, 69, 68
1, 656298, Note_off_c, 0, 62, 0
1, 656308, Note_on_c, 0, 62, 81
1, 656308, Note_on_c, 0, 66, 96
1, 656314, Note_on_c, 0, 50, 87
1, 656316, Note_on_c, 0, 57, 90
1, 656318, Note_on_c, 0, 54, 95
1, 656322, Note_on_c, 0, 74, 73
1, 656326, Note_on_c, 0, 78, 81
1, 656329, Note_on_c, 0, 69, 77
1, 656337, Note_off_c, 0, 50, 70
1, 656339, Note_off_c, 0, 66, 62
1, 656345, Note_off_c, 0, 54, 64
1, 656348, Note_off_c, 0, 57, 67
1, 656351, Note_off_c, 0, 69, 73
1, 656353, Note_off_c, 0, 62, 62
1, 656358, Note_off_c, 0, 74, 65
1, 656373, Note_off_c, 0, 78, 69
1, 656602, Note_on_c, 0, 74, 98
1, 656605, Note_on_c, 0, 66, 87
1, 656605, Note_on_c, 0, 78, 104
1, 656608, Note_on_c, 0, 69, 79
1, 656609, Note_on_c, 0, 62, 80
1, 656609, Note_on_c, 0, 86, 89
1, 656610, Note_on_c, 0, 81, 82
1, 656622, Note_off_c, 0, 74, 68
1, 656625, Note_on_c, 0, 90, 63
1, 656631, Note_off_c, 0, 81, 71
1, 656631, Note_off_c, 0, 86, 66
1, 656639, Note_on_c, 0, 85, 33
1, 656640, Note_off_c, 0, 85, 127
1, 656647, Note_off_c, 0, 62, 62
1, 656647, Note_off_c, 0, 90, 63
1, 656649, Note_off_c, 0, 69, 64
1, 656649, Note_off_c, 0, 78, 64
1, 656655, Note_off_c, 0, 66, 64
1, 656861, Control_c, 0, 64, 83
1, 656876, Control_c, 0, 64, 32
1, 656891, Control_c, 0, 64, 0
1, 656902, Note_on_c, 0, 55, 109
1, 656903, Note_on_c, 0, 48, 110
1, 656914, Note_on_c, 0, 64, 95
1, 656915, Note_on_c, 0, 67, 94
1, 656916, Note_on_c, 0, 43, 89
1, 656917, Note_on_c, 0, 60, 85
1, 656918, Note_on_c, 0, 40, 93
1, 656920, Note_on_c, 0, 36, 86
1, 656947, Note_off_c, 0, 55, 70
1, 656951, Note_off_c, 0, 36, 67
1, 656955, Note_off_c, 0, 67, 68
1, 656956, Note_off_c, 0, 48, 69
1, 656958, Control_c, 0, 64, 67
1, 656965, Note_off_c, 0, 40, 69
1, 656965, Note_off_c, 0, 64, 62
1, 656965, Note_off_c, 0, 60, 66
1, 656970, Note_off_c, 0, 43, 65
1, 656973, Control_c, 0, 64, 127
1, 657390, Note_on_c, 0, 60, 73
1, 657392, Note_on_c, 0, 64, 78
1, 657395, Note_on_c, 0, 67, 84
1, 657401, Note_on_c, 0, 55, 68
1, 657401, Note_on_c, 0, 76, 70
1, 657407, Note_on_c, 0, 72, 67
1, 657412, Note_off_c, 0, 64, 70
1, 657415, Note_off_c, 0, 67, 71
1, 657420, Note_off_c, 0, 76, 70
1, 657426, Note_off_c, 0, 55, 70
1, 657428, Note_off_c, 0, 60, 63
1, 657432, Note_off_c, 0, 72, 69
1, 657459, Note_on_c, 0, 67, 96
1, 657462, Note_on_c, 0, 52, 13
1, 657463, Note_on_c, 0, 60, 82
1, 657463, Note_on_c, 0, 64, 98
1, 657469, Note_on_c, 0, 79, 73
1, 657472, Note_on_c, 0, 76, 91
1, 657475, Note_on_c, 0, 55, 79
1, 657478, Note_on_c, 0, 72, 72
1, 657489, Note_off_c, 0, 67, 66
1, 657496, Note_off_c, 0, 55, 70
1, 657497, Note_off_c, 0, 72, 72
1, 657498, Note_off_c, 0, 52, 64
1, 657503, Note_off_c, 0, 64, 64
1, 657511, Note_off_c, 0, 60, 66
1, 657519, Note_off_c, 0, 76, 66
1, 657525, Note_off_c, 0, 79, 64
1, 657748, Note_on_c, 0, 76, 92
1, 657750, Note_on_c, 0, 72, 86
1, 657752, Note_on_c, 0, 79, 103
1, 657752, Note_on_c, 0, 88, 92
1, 657753, Note_on_c, 0, 84, 88
1, 657756, Note_on_c, 0, 64, 67
1, 657756, Note_on_c, 0, 67, 81
1, 657761, Note_on_c, 0, 91, 80
1, 657765, Note_off_c, 0, 76, 74
1, 657774, Note_off_c, 0, 84, 68
1, 657777, Note_off_c, 0, 91, 65
1, 657788, Note_off_c, 0, 72, 66
1, 657789, Note_off_c, 0, 88, 63
1, 657794, Note_off_c, 0, 64, 63
1, 657797, Note_off_c, 0, 79, 63
1, 657797, Note_off_c, 0, 67, 66
1, 658062, Control_c, 0, 64, 69
1, 658070, Poly_aftertouch_c, 0, 37, 0
1, 658071, Note_on_c, 0, 42, 90
1, 658071, Note_on_c, 0, 58, 110
1, 658077, Note_on_c, 0, 46, 108
1, 658077, Control_c, 0, 64, 0
1, 658083, Note_on_c, 0, 70, 87
1, 658085, Note_on_c, 0, 39, 62
1, 658086, Note_on_c, 0, 34, 77
1, 658089, Note_on_c, 0, 62, 70
1, 658092, Note_on_c, 0, 38, 79
1, 658093, Note_on_c, 0, 65, 67
1, 658103, Note_on_c, 0, 47, 66
1, 658103, Note_on_c, 0, 68, 60
1, 658119, Note_off_c, 0, 65, 69
1, 658119, Note_off_c, 0, 39, 54
1, 658120, Note_off_c, 0, 70, 66
1, 658121, Note_off_c, 0, 58, 66
1, 658122, Control_c, 0, 64, 41
1, 658123, Note_off_c, 0, 34, 66
1, 658125, Note_off_c, 0, 62, 62
1, 658128, Note_off_c, 0, 47, 62
1, 658128, Note_off_c, 0, 38, 64
1, 658129, Note_off_c, 0, 68, 55
1, 658134, Note_off_c, 0, 46, 64
1, 658137, Control_c, 0, 64, 127
1, 658148, Note_off_c, 0, 42, 63
1, 658196, Poly_aftertouch_c, 0, 48, 0
1, 658527, Note_on_c, 0, 62, 77
1, 658530, Note_on_c, 0, 58, 78
1, 658534, Note_on_c, 0, 65, 75
1, 658534, Note_on_c, 0, 70, 83
1, 658548, Note_on_c, 0, 74, 57
1, 658550, Note_off_c, 0, 58, 68
1, 658551, Note_on_c, 0, 77, 57
1, 658555, Note_off_c, 0, 65, 72
1, 658556, Note_off_c, 0, 70, 70
1, 658565, Note_off_c, 0, 62, 63
1, 658574, Note_off_c, 0, 77, 64
1, 658576, Note_off_c, 0, 74, 69
1, 658602, Note_on_c, 0, 70, 102
1, 658604, Note_on_c, 0, 53, 69
1, 658605, Note_on_c, 0, 82, 63
1, 658607, Note_on_c, 0, 65, 90
1, 658608, Note_on_c, 0, 62, 73
1, 658609, Note_on_c, 0, 58, 96
1, 658620, Note_on_c, 0, 74, 68
1, 658622, Note_on_c, 0, 77, 73
1, 658629, Note_off_c, 0, 53, 67
1, 658630, Note_off_c, 0, 70, 68
1, 658637, Note_off_c, 0, 58, 65
1, 658640, Note_off_c, 0, 74, 70
1, 658645, Note_off_c, 0, 77, 66
1, 658646, Note_off_c, 0, 62, 65
1, 658649, Note_off_c, 0, 65, 63
1, 658670, Note_off_c, 0, 82, 65
1, 658879, Note_on_c, 0, 77, 95
1, 658882, Note_on_c, 0, 74, 81
1, 658884, Note_on_c, 0, 70, 87
1, 658884, Note_on_c, 0, 82, 109
1, 658891, Note_on_c, 0, 65, 72
1, 658895, Note_on_c, 0, 89, 69
1, 658897, Note_on_c, 0, 86, 71
1, 658897, Note_off_c, 0, 77, 72
1, 658898, Note_on_c, 0, 94, 74
1, 658911, Note_off_c, 0, 89, 70
1, 658914, Note_off_c, 0, 86, 66
1, 658915, Note_on_c, 0, 92, 52
1, 658919, Note_off_c, 0, 94, 71
1, 658921, Note_off_c, 0, 74, 67
1, 658924, Note_off_c, 0, 82, 71
1, 658926, Note_off_c, 0, 65, 58
1, 658935, Note_off_c, 0, 70, 65
1, 658939, Note_off_c, 0, 92, 60
1, 659153, Control_c, 0, 64, 64
1, 659176, Control_c, 0, 64, 0
1, 659184, Note_on_c, 0, 60, 108
1, 659186, Note_on_c, 0, 44, 99
1, 659189, Note_on_c, 0, 63, 96
1, 659191, Note_on_c, 0, 39, 89
1, 659192, Note_on_c, 0, 32, 87
1, 659192, Note_on_c, 0, 68, 100
1, 659192, Note_on_c, 0, 72, 92
1, 659194, Note_on_c, 0, 36, 89
1, 659212, Note_off_c, 0, 60, 73
1, 659213, Note_off_c, 0, 68, 68
1, 659216, Note_on_c, 0, 70, 53
1, 659220, Control_c, 0, 64, 26
1, 659222, Note_off_c, 0, 32, 64
1, 659225, Note_off_c, 0, 63, 65
1, 659226, Note_off_c, 0, 72, 59
1, 659227, Note_off_c, 0, 36, 65
1, 659234, Note_off_c, 0, 39, 67
1, 659234, Control_c, 0, 64, 127
1, 659237, Note_off_c, 0, 70, 60
1, 659238, Note_off_c, 0, 44, 59
1, 659302, Poly_aftertouch_c, 0, 42, 0
1, 659652, Note_on_c, 0, 68, 89
1, 659657, Note_on_c, 0, 63, 77
1, 659660, Note_on_c, 0, 72, 91
1, 659663, Note_on_c, 0, 80, 86
1, 659664, Note_on_c, 0, 60, 66
1, 659669, Note_on_c, 0, 75, 77
1, 659680, Note_off_c, 0, 72, 67
1, 659684, Note_on_c, 0, 84, 53
1, 659684, Note_off_c, 0, 80, 65
1, 659684, Note_off_c, 0, 68, 56
1, 659692, Note_off_c, 0, 75, 68
1, 659693, Note_on_c, 0, 56, 30
1, 659693, Note_off_c, 0, 60, 67
1, 659697, Note_off_c, 0, 63, 62
1, 659704, Note_off_c, 0, 84, 61
1, 659732, Note_on_c, 0, 72, 97
1, 659737, Note_off_c, 0, 56, 0
1, 659737, Note_on_c, 0, 56, 43
1, 659738, Note_on_c, 0, 63, 76
1, 659738, Note_on_c, 0, 68, 102
1, 659739, Note_on_c, 0, 75, 91
1, 659741, Note_on_c, 0, 84, 81
1, 659742, Note_on_c, 0, 80, 93
1, 659751, Note_on_c, 0, 60, 76
1, 659762, Note_off_c, 0, 72, 59
1, 659767, Note_off_c, 0, 56, 64
1, 659773, Note_on_c, 0, 82, 49
1, 659776, Note_off_c, 0, 60, 69
1, 659779, Note_off_c, 0, 75, 62
1, 659782, Note_off_c, 0, 80, 64
1, 659784, Note_off_c, 0, 68, 60
1, 659787, Note_off_c, 0, 63, 64
1, 659789, Note_off_c, 0, 84, 65
1, 659800, Note_off_c, 0, 82, 58
1, 660062, Note_on_c, 0, 80, 103
1, 660063, Note_on_c, 0, 84, 106
1, 660065, Note_on_c, 0, 92, 101
1, 660066, Note_on_c, 0, 75, 91
1, 660067, Note_on_c, 0, 87, 103
1, 660068, Note_on_c, 0, 72, 83
1, 660071, Note_on_c, 0, 96, 92
1, 660076, Note_on_c, 0, 68, 70
1, 660083, Note_on_c, 0, 94, 72
1, 660086, Note_off_c, 0, 96, 72
1, 660095, Note_off_c, 0, 80, 69
1, 660099, Note_off_c, 0, 68, 68
1, 660099, Note_off_c, 0, 92, 67
1, 660099, Note_off_c, 0, 94, 69
1, 660108, Note_off_c, 0, 84, 64
1, 660109, Note_off_c, 0, 75, 64
1, 660114, Note_off_c, 0, 87, 67
1, 660115, Note_off_c, 0, 72, 63
1, 660516, Control_c, 0, 64, 62
1, 660520, Note_on_c, 0, 61, 110
1, 660524, Note_on_c, 0, 42, 114
1, 660528, Note_on_c, 0, 37, 89
1, 660531, Note_on_c, 0, 34, 92
1, 660531, Note_on_c, 0, 70, 98
1, 660531, Control_c, 0, 64, 0
1, 660533, Note_on_c, 0, 73, 86
1, 660533, Note_on_c, 0, 66, 89
1, 660534, Note_on_c, 0, 30, 85
1, 660575, Note_off_c, 0, 61, 70
1, 660575, Note_off_c, 0, 73, 67
1, 660575, Control_c, 0, 64, 56
1, 660577, Note_on_c, 0, 32, 27
1, 660578, Note_off_c, 0, 30, 63
1, 660587, Note_off_c, 0, 70, 63
1, 660590, Note_off_c, 0, 37, 63
1, 660590, Control_c, 0, 64, 127
1, 660591, Note_off_c, 0, 42, 63
1, 660592, Note_off_c, 0, 34, 63
1, 660594, Note_off_c, 0, 66, 62
1, 660609, Note_off_c, 0, 32, 57
1, 661266, Note_on_c, 0, 66, 83
1, 661266, Note_on_c, 0, 73, 95
1, 661270, Note_on_c, 0, 70, 88
1, 661274, Note_on_c, 0, 82, 80
1, 661277, Note_on_c, 0, 78, 76
1, 661279, Note_on_c, 0, 61, 64
1, 661291, Note_off_c, 0, 70, 67
1, 661297, Note_off_c, 0, 82, 68
1, 661297, Note_on_c, 0, 85, 40
1, 661299, Note_off_c, 0, 78, 71
1, 661299, Note_off_c, 0, 73, 60
1, 661306, Note_off_c, 0, 61, 67
1, 661311, Note_off_c, 0, 66, 63
1, 661326, Note_off_c, 0, 85, 52
1, 661339, Note_on_c, 0, 73, 92
1, 661343, Note_on_c, 0, 58, 53
1, 661347, Note_on_c, 0, 66, 82
1, 661347, Note_on_c, 0, 70, 108
1, 661350, Note_on_c, 0, 85, 77
1, 661353, Note_on_c, 0, 82, 90
1, 661353, Note_on_c, 0, 78, 90
1, 661359, Note_on_c, 0, 61, 83
1, 661374, Note_off_c, 0, 73, 68
1, 661381, Note_off_c, 0, 85, 61
1, 661393, Note_off_c, 0, 82, 65
1, 661396, Note_off_c, 0, 78, 66
1, 661407, Note_off_c, 0, 61, 65
1, 661408, Note_off_c, 0, 70, 58
1, 661409, Note_off_c, 0, 58, 63
1, 661416, Note_off_c, 0, 66, 62
1, 661866, Note_on_c, 0, 85, 111
1, 661869, Note_on_c, 0, 78, 95
1, 661869, Note_on_c, 0, 82, 106
1, 661874, Note_on_c, 0, 94, 105
1, 661874, Note_on_c, 0, 97, 100
1, 661875, Note_on_c, 0, 73, 87
1, 661875, Note_on_c, 0, 90, 97
1, 661878, Note_on_c, 0, 70, 73
1, 661901, Note_off_c, 0, 70, 68
1, 661905, Note_off_c, 0, 82, 69
1, 661911, Note_off_c, 0, 78, 69
1, 661916, Note_off_c, 0, 73, 66
1, 662242, Note_off_c, 0, 97, 58
1, 662268, Note_off_c, 0, 85, 49
1, 662271, Note_off_c, 0, 94, 51
1, 662286, Note_off_c, 0, 90, 57
1, 664135, Note_on_c, 0, 61, 98
1, 664137, Note_on_c, 0, 49, 102
1, 664143, Note_on_c, 0, 73, 86
1, 664170, Note_off_c, 0, 49, 65
1, 664171, Note_off_c, 0, 61, 64
1, 664182, Note_off_c, 0, 73, 60
1, 664210, Note_on_c, 0, 49, 95
1, 664219, Note_on_c, 0, 61, 103
1, 664221, Note_on_c, 0, 73, 82
1, 664260, Note_off_c, 0, 49, 65
1, 664883, Note_off_c, 0, 73, 39
1, 665074, Note_off_c, 0, 61, 46
1, 665547, Note_on_c, 0, 42, 92
1, 665552, Note_on_c, 0, 54, 93
1, 665561, Note_on_c, 0, 66, 79
1, 665584, Note_off_c, 0, 42, 61
1, 665584, Note_off_c, 0, 66, 69
1, 665593, Note_off_c, 0, 54, 65
1, 665621, Note_on_c, 0, 42, 93
1, 665628, Note_on_c, 0, 54, 95
1, 665637, Note_on_c, 0, 66, 95
1, 665648, Note_on_c, 0, 43, 61
1, 665670, Note_off_c, 0, 42, 62
1, 665674, Note_off_c, 0, 43, 41
1, 665729, Poly_aftertouch_c, 0, 56, 0
1, 666846, Note_off_c, 0, 66, 39
1, 666877, Note_off_c, 0, 54, 61
1, 666945, Note_on_c, 0, 54, 102
1, 666948, Note_on_c, 0, 42, 91
1, 666948, Note_on_c, 0, 47, 99
1, 666949, Note_on_c, 0, 66, 94
1, 666953, Note_on_c, 0, 59, 83
1, 666955, Note_on_c, 0, 35, 80
1, 666957, Note_on_c, 0, 38, 82
1, 666964, Note_on_c, 0, 62, 73
1, 666988, Control_c, 0, 64, 74
1, 667003, Control_c, 0, 64, 39
1, 667018, Control_c, 0, 64, 0
1, 667107, Control_c, 0, 64, 42
1, 667121, Control_c, 0, 64, 69
1, 667136, Control_c, 0, 64, 127
1, 667284, Note_off_c, 0, 42, 55
1, 667332, Note_off_c, 0, 38, 50
1, 667374, Note_off_c, 0, 47, 35
1, 667436, Note_off_c, 0, 54, 48
1, 667568, Note_off_c, 0, 35, 57
1, 667605, Note_off_c, 0, 59, 28
1, 667849, Note_off_c, 0, 62, 38
1, 668001, Note_off_c, 0, 66, 37
1, 668240, Note_on_c, 0, 59, 107
1, 668244, Note_on_c, 0, 38, 96
1, 668245, Note_on_c, 0, 67, 94
1, 668245, Note_on_c, 0, 62, 91
1, 668246, Note_on_c, 0, 71, 93
1, 668248, Note_on_c, 0, 43, 97
1, 668251, Note_on_c, 0, 35, 85
1, 668254, Note_on_c, 0, 31, 85
1, 668308, Control_c, 0, 64, 64
1, 668322, Control_c, 0, 64, 0
1, 668516, Control_c, 0, 64, 24
1, 668531, Control_c, 0, 64, 43
1, 668546, Control_c, 0, 64, 63
1, 668561, Control_c, 0, 64, 127
1, 668880, Note_off_c, 0, 38, 56
1, 668915, Note_off_c, 0, 43, 55
1, 668957, Note_off_c, 0, 35, 48
1, 668976, Note_off_c, 0, 62, 52
1, 669068, Note_off_c, 0, 31, 48
1, 669375, Note_off_c, 0, 59, 22
1, 669409, Note_off_c, 0, 71, 30
1, 669516, Note_off_c, 0, 67, 33
1, 669741, Note_on_c, 0, 59, 106
1, 669742, Note_on_c, 0, 68, 100
1, 669746, Note_on_c, 0, 40, 106
1, 669746, Note_on_c, 0, 64, 93
1, 669747, Note_on_c, 0, 35, 94
1, 669748, Note_on_c, 0, 71, 96
1, 669753, Note_on_c, 0, 28, 90
1, 669753, Note_on_c, 0, 31, 90
1, 669782, Note_on_c, 0, 67, 79
1, 669821, Control_c, 0, 64, 66
1, 669836, Control_c, 0, 64, 34
1, 669844, Note_off_c, 0, 68, 55
1, 669850, Control_c, 0, 64, 0
1, 670339, Control_c, 0, 64, 17
1, 670354, Control_c, 0, 64, 34
1, 670369, Control_c, 0, 64, 47
1, 670391, Control_c, 0, 64, 58
1, 670406, Control_c, 0, 64, 67
1, 670421, Control_c, 0, 64, 86
1, 670436, Control_c, 0, 64, 127
1, 670593, Note_off_c, 0, 35, 62
1, 670621, Note_off_c, 0, 59, 49
1, 670673, Note_off_c, 0, 71, 50
1, 670719, Note_off_c, 0, 64, 56
1, 670727, Note_off_c, 0, 31, 59
1, 670739, Note_off_c, 0, 67, 57
1, 670924, Note_off_c, 0, 28, 62
1, 671537, Note_off_c, 0, 40, 49
1, 671602, Note_on_c, 0, 66, 117
1, 671604, Note_on_c, 0, 33, 96
1, 671607, Note_on_c, 0, 26, 97
1, 671607, Note_on_c, 0, 74, 90
1, 671610, Note_on_c, 0, 69, 82
1, 671611, Note_on_c, 0, 30, 92
1, 671611, Note_on_c, 0, 78, 98
1, 671655, Note_on_c, 0, 73, 13
1, 671659, Control_c, 0, 64, 55
1, 671674, Control_c, 0, 64, 0
1, 671703, Note_off_c, 0, 73, 38
1, 671763, Control_c, 0, 64, 39
1, 671778, Control_c, 0, 64, 56
1, 671793, Control_c, 0, 64, 78
1, 671808, Control_c, 0, 64, 127
1, 671902, Note_on_c, 0, 38, 51
1, 671903, Note_off_c, 0, 26, 50
1, 671913, Note_off_c, 0, 30, 51
1, 671927, Note_off_c, 0, 33, 53
1, 671993, Note_off_c, 0, 38, 52
1, 672025, Note_on_c, 0, 30, 43
1, 672036, Note_on_c, 0, 33, 20
1, 672037, Note_on_c, 0, 26, 25
1, 672058, Note_off_c, 0, 26, 55
1, 672064, Note_off_c, 0, 30, 62
1, 672067, Note_on_c, 0, 38, 46
1, 672075, Note_off_c, 0, 33, 52
1, 672127, Note_off_c, 0, 38, 63
1, 672129, Note_on_c, 0, 26, 65
1, 672144, Note_on_c, 0, 30, 53
1, 672161, Note_off_c, 0, 26, 62
1, 672177, Note_off_c, 0, 30, 62
1, 672184, Note_on_c, 0, 38, 59
1, 672227, Poly_aftertouch_c, 0, 33, 127
1, 672235, Note_off_c, 0, 38, 62
1, 672236, Note_on_c, 0, 26, 66
1, 672246, Note_on_c, 0, 30, 57
1, 672270, Note_off_c, 0, 26, 63
1, 672278, Note_off_c, 0, 30, 62
1, 672286, Note_on_c, 0, 38, 57
1, 672322, Note_off_c, 0, 38, 64
1, 672334, Note_on_c, 0, 26, 63
1, 672347, Note_on_c, 0, 30, 47
1, 672362, Note_off_c, 0, 26, 61
1, 672376, Poly_aftertouch_c, 0, 73, 127
1, 672377, Note_off_c, 0, 30, 53
1, 672382, Note_on_c, 0, 38, 59
1, 672389, Poly_aftertouch_c, 0, 33, 0
1, 672411, Note_on_c, 0, 33, 32
1, 672417, Note_off_c, 0, 38, 64
1, 672427, Note_on_c, 0, 26, 63
1, 672430, Note_on_c, 0, 30, 55
1, 672451, Note_off_c, 0, 26, 60
1, 672466, Note_off_c, 0, 30, 63
1, 672467, Note_off_c, 0, 33, 59
1, 672474, Note_on_c, 0, 38, 60
1, 672511, Note_off_c, 0, 38, 62
1, 672519, Note_on_c, 0, 33, 37
1, 672524, Note_on_c, 0, 26, 59
1, 672527, Note_on_c, 0, 30, 51
1, 672552, Note_on_c, 0, 38, 60
1, 672556, Note_off_c, 0, 30, 61
1, 672563, Note_off_c, 0, 26, 48
1, 672588, Note_off_c, 0, 78, 62
1, 672588, Note_off_c, 0, 33, 0
1, 672606, Note_on_c, 0, 33, 42
1, 672606, Note_off_c, 0, 38, 61
1, 672610, Note_on_c, 0, 26, 52
1, 672617, Note_on_c, 0, 30, 58
1, 672645, Note_off_c, 0, 26, 56
1, 672647, Note_off_c, 0, 66, 57
1, 672653, Note_on_c, 0, 38, 52
1, 672657, Note_off_c, 0, 74, 55
1, 672661, Note_off_c, 0, 30, 63
1, 672668, Note_off_c, 0, 69, 58
1, 672689, Poly_aftertouch_c, 0, 73, 0
1, 672713, Note_off_c, 0, 38, 58
1, 672716, Note_on_c, 0, 26, 66
1, 672719, Note_on_c, 0, 30, 54
1, 672746, Note_on_c, 0, 38, 39
1, 672753, Note_off_c, 0, 26, 61
1, 672754, Note_off_c, 0, 33, 0
1, 672754, Note_on_c, 0, 33, 2
1, 672760, Note_off_c, 0, 30, 57
1, 672794, Note_on_c, 0, 30, 51
1, 672798, Note_off_c, 0, 38, 62
1, 672809, Note_on_c, 0, 26, 42
1, 672832, Note_off_c, 0, 26, 60
1, 672840, Note_on_c, 0, 38, 55
1, 672850, Note_off_c, 0, 30, 57
1, 672895, Note_off_c, 0, 33, 0
1, 672895, Note_on_c, 0, 33, 10
1, 672898, Note_on_c, 0, 26, 66
1, 672904, Note_on_c, 0, 30, 59
1, 672918, Note_off_c, 0, 38, 0
1, 672934, Note_on_c, 0, 38, 46
1, 672939, Note_off_c, 0, 26, 58
1, 672949, Note_off_c, 0, 30, 61
1, 672957, Note_off_c, 0, 33, 58
1, 672993, Note_on_c, 0, 33, 41
1, 672995, Note_on_c, 0, 26, 61
1, 672998, Note_off_c, 0, 38, 59
1, 673017, Note_on_c, 0, 30, 50
1, 673031, Note_off_c, 0, 26, 60
1, 673035, Note_on_c, 0, 38, 41
1, 673047, Note_off_c, 0, 30, 53
1, 673056, Note_off_c, 0, 33, 63
1, 673092, Note_off_c, 0, 38, 61
1, 673093, Note_on_c, 0, 26, 67
1, 673093, Note_on_c, 0, 33, 43
1, 673106, Note_on_c, 0, 30, 66
1, 673126, Note_off_c, 0, 26, 62
1, 673141, Note_off_c, 0, 30, 61
1, 673144, Note_on_c, 0, 38, 55
1, 673147, Note_off_c, 0, 33, 63
1, 673190, Note_on_c, 0, 26, 69
1, 673196, Note_off_c, 0, 38, 58
1, 673204, Note_on_c, 0, 33, 54
1, 673210, Note_on_c, 0, 30, 53
1, 673218, Note_off_c, 0, 26, 65
1, 673238, Note_on_c, 0, 38, 48
1, 673241, Note_off_c, 0, 30, 57
1, 673265, Note_off_c, 0, 33, 0
1, 673284, Note_on_c, 0, 26, 57
1, 673290, Note_off_c, 0, 38, 56
1, 673299, Note_on_c, 0, 30, 53
1, 673302, Poly_aftertouch_c, 0, 33, 127
1, 673321, Note_off_c, 0, 26, 58
1, 673336, Note_off_c, 0, 30, 58
1, 673337, Poly_aftertouch_c, 0, 33, 0
1, 673340, Note_on_c, 0, 38, 49
1, 673390, Note_off_c, 0, 38, 62
1, 673400, Note_on_c, 0, 26, 58
1, 673411, Note_on_c, 0, 30, 42
1, 673435, Note_off_c, 0, 26, 63
1, 673446, Note_off_c, 0, 30, 61
1, 673446, Poly_aftertouch_c, 0, 33, 0
1, 673459, Note_on_c, 0, 38, 60
1, 673501, Note_off_c, 0, 38, 58
1, 673519, Note_on_c, 0, 26, 50
1, 673527, Note_on_c, 0, 30, 48
1, 673540, Note_on_c, 0, 33, 4
1, 673542, Note_off_c, 0, 26, 59
1, 673551, Note_off_c, 0, 30, 60
1, 673569, Note_on_c, 0, 38, 58
1, 673630, Note_on_c, 0, 26, 43
1, 673630, Note_on_c, 0, 30, 55
1, 673630, Note_off_c, 0, 33, 0
1, 673644, Note_off_c, 0, 38, 0
1, 673651, Note_on_c, 0, 33, 20
1, 673658, Note_off_c, 0, 26, 55
1, 673661, Note_on_c, 0, 38, 43
1, 673664, Note_off_c, 0, 30, 62
1, 673703, Note_off_c, 0, 33, 43
1, 673740, Note_off_c, 0, 38, 60
1, 673744, Note_on_c, 0, 26, 50
1, 673759, Note_on_c, 0, 30, 46
1, 673763, Note_on_c, 0, 33, 26
1, 673772, Note_off_c, 0, 26, 60
1, 673784, Note_off_c, 0, 30, 61
1, 673791, Note_on_c, 0, 38, 41
1, 673800, Note_off_c, 0, 33, 56
1, 673843, Note_on_c, 0, 26, 46
1, 673860, Note_on_c, 0, 30, 54
1, 673861, Note_off_c, 0, 38, 57
1, 673884, Note_off_c, 0, 26, 57
1, 673887, Note_on_c, 0, 33, 35
1, 673899, Note_off_c, 0, 30, 59
1, 673901, Note_on_c, 0, 38, 38
1, 673927, Note_off_c, 0, 33, 47
1, 673993, Note_off_c, 0, 38, 0
1, 674000, Note_on_c, 0, 30, 28
1, 674004, Note_on_c, 0, 26, 20
1, 674010, Note_on_c, 0, 33, 23
1, 674019, Note_on_c, 0, 38, 33
1, 674025, Note_off_c, 0, 30, 50
1, 674052, Note_off_c, 0, 33, 47
1, 674092, Note_off_c, 0, 26, 0
1, 674102, Note_on_c, 0, 30, 55
1, 674103, Note_on_c, 0, 26, 30
1, 674117, Note_off_c, 0, 38, 60
1, 674135, Note_on_c, 0, 33, 40
1, 674171, Note_on_c, 0, 38, 49
1, 674171, Note_off_c, 0, 26, 53
1, 674180, Note_off_c, 0, 30, 59
1, 674199, Note_off_c, 0, 33, 56
1, 674263, Note_off_c, 0, 38, 61
1, 674265, Note_on_c, 0, 33, 39
1, 674269, Note_on_c, 0, 30, 56
1, 674276, Note_on_c, 0, 26, 50
1, 674314, Note_on_c, 0, 38, 58
1, 674324, Note_off_c, 0, 26, 56
1, 674329, Note_off_c, 0, 30, 59
1, 674344, Note_off_c, 0, 33, 53
1, 674412, Note_on_c, 0, 33, 41
1, 674415, Note_off_c, 0, 38, 61
1, 674418, Note_on_c, 0, 30, 53
1, 674421, Note_on_c, 0, 26, 54
1, 674470, Note_on_c, 0, 38, 63
1, 674479, Note_off_c, 0, 26, 58
1, 674481, Note_off_c, 0, 30, 53
1, 674486, Note_on_c, 0, 57, 98
1, 674489, Note_on_c, 0, 69, 89
1, 674492, Note_on_c, 0, 62, 86
1, 674507, Note_off_c, 0, 33, 52
1, 674524, Note_off_c, 0, 57, 65
1, 674528, Note_off_c, 0, 69, 68
1, 674535, Note_off_c, 0, 62, 65
1, 674567, Note_on_c, 0, 33, 47
1, 674569, Note_off_c, 0, 38, 61
1, 674571, Note_on_c, 0, 26, 66
1, 674571, Note_on_c, 0, 30, 64
1, 674578, Note_on_c, 0, 57, 103
1, 674580, Note_on_c, 0, 69, 93
1, 674582, Note_on_c, 0, 62, 89
1, 674621, Note_on_c, 0, 38, 55
1, 674621, Note_off_c, 0, 26, 59
1, 674632, Note_off_c, 0, 30, 55
1, 674642, Note_off_c, 0, 33, 54
1, 674712, Note_off_c, 0, 38, 61
1, 674714, Note_on_c, 0, 30, 50
1, 674723, Note_on_c, 0, 33, 28
1, 674731, Note_on_c, 0, 26, 38
1, 674748, Note_off_c, 0, 30, 62
1, 674758, Note_off_c, 0, 26, 53
1, 674763, Note_on_c, 0, 38, 53
1, 674782, Note_off_c, 0, 33, 44
1, 674838, Note_off_c, 0, 38, 61
1, 674842, Note_on_c, 0, 26, 50
1, 674859, Note_on_c, 0, 30, 44
1, 674867, Note_on_c, 0, 33, 34
1, 674886, Poly_aftertouch_c, 0, 38, 0
1, 674888, Note_off_c, 0, 26, 55
1, 674895, Note_on_c, 0, 38, 52
1, 674904, Note_off_c, 0, 33, 59
1, 674906, Note_off_c, 0, 30, 45
1, 674964, Note_off_c, 0, 38, 62
1, 674977, Note_on_c, 0, 30, 44
1, 674991, Note_on_c, 0, 26, 30
1, 675000, Note_off_c, 0, 30, 58
1, 675006, Poly_aftertouch_c, 0, 38, 0
1, 675015, Note_on_c, 0, 38, 54
1, 675036, Note_off_c, 0, 26, 39
1, 675069, Note_on_c, 0, 30, 64
1, 675081, Note_on_c, 0, 26, 38
1, 675083, Note_off_c, 0, 38, 61
1, 675089, Note_on_c, 0, 33, 31
1, 675105, Note_off_c, 0, 30, 61
1, 675116, Note_off_c, 0, 26, 56
1, 675134, Note_on_c, 0, 38, 56
1, 675176, Note_off_c, 0, 33, 0
1, 675179, Note_on_c, 0, 30, 60
1, 675190, Note_off_c, 0, 38, 59
1, 675191, Note_on_c, 0, 26, 58
1, 675194, Note_on_c, 0, 33, 24
1, 675225, Note_off_c, 0, 26, 63
1, 675225, Note_off_c, 0, 30, 59
1, 675240, Note_off_c, 0, 33, 51
1, 675245, Note_on_c, 0, 38, 59
1, 675298, Note_on_c, 0, 26, 56
1, 675302, Note_off_c, 0, 38, 61
1, 675304, Note_on_c, 0, 30, 63
1, 675334, Note_on_c, 0, 33, 9
1, 675337, Note_off_c, 0, 26, 60
1, 675337, Note_off_c, 0, 30, 63
1, 675356, Note_on_c, 0, 38, 64
1, 675414, Note_off_c, 0, 33, 0
1, 675419, Note_on_c, 0, 30, 58
1, 675426, Note_off_c, 0, 38, 60
1, 675432, Note_on_c, 0, 26, 48
1, 675452, Poly_aftertouch_c, 0, 33, 127
1, 675455, Note_off_c, 0, 30, 63
1, 675456, Note_on_c, 0, 33, 3
1, 675464, Note_on_c, 0, 38, 50
1, 675465, Note_off_c, 0, 26, 50
1, 675523, Note_off_c, 0, 38, 60
1, 675524, Note_on_c, 0, 30, 62
1, 675526, Note_off_c, 0, 33, 0
1, 675526, Note_on_c, 0, 33, 18
1, 675530, Note_on_c, 0, 26, 37
1, 675560, Note_off_c, 0, 30, 63
1, 675565, Note_on_c, 0, 38, 55
1, 675569, Note_off_c, 0, 26, 43
1, 675575, Note_off_c, 0, 33, 54
1, 675637, Note_on_c, 0, 33, 36
1, 675641, Note_on_c, 0, 26, 54
1, 675653, Note_on_c, 0, 30, 50
1, 675653, Note_off_c, 0, 38, 0
1, 675671, Note_on_c, 0, 38, 48
1, 675679, Note_off_c, 0, 26, 62
1, 675681, Note_off_c, 0, 30, 58
1, 675690, Note_off_c, 0, 33, 60
1, 675745, Note_on_c, 0, 33, 42
1, 675746, Note_off_c, 0, 38, 62
1, 675761, Note_on_c, 0, 26, 50
1, 675761, Note_on_c, 0, 30, 55
1, 675787, Note_off_c, 0, 30, 61
1, 675790, Note_on_c, 0, 38, 55
1, 675793, Note_off_c, 0, 33, 61
1, 675796, Note_off_c, 0, 26, 49
1, 675855, Note_on_c, 0, 30, 64
1, 675863, Note_off_c, 0, 38, 63
1, 675867, Note_on_c, 0, 26, 55
1, 675882, Note_on_c, 0, 33, 32
1, 675893, Note_off_c, 0, 30, 58
1, 675902, Note_off_c, 0, 26, 61
1, 675912, Note_on_c, 0, 38, 61
1, 675919, Note_off_c, 0, 33, 54
1, 675929, Note_off_c, 0, 57, 49
1, 675962, Note_on_c, 0, 30, 63
1, 675977, Note_off_c, 0, 38, 62
1, 675984, Note_on_c, 0, 26, 58
1, 675984, Note_on_c, 0, 33, 35
1, 675995, Note_off_c, 0, 69, 54
1, 676009, Note_off_c, 0, 30, 56
1, 676017, Note_off_c, 0, 26, 61
1, 676023, Note_on_c, 0, 38, 60
1, 676031, Note_off_c, 0, 33, 46
1, 676058, Note_off_c, 0, 62, 53
1, 676089, Note_on_c, 0, 26, 67
1, 676092, Note_off_c, 0, 38, 62
1, 676101, Note_on_c, 0, 30, 55
1, 676109, Note_on_c, 0, 33, 40
1, 676126, Note_off_c, 0, 26, 60
1, 676128, Poly_aftertouch_c, 0, 38, 0
1, 676134, Note_off_c, 0, 30, 61
1, 676137, Note_on_c, 0, 38, 60
1, 676147, Note_off_c, 0, 33, 62
1, 676204, Note_on_c, 0, 26, 63
1, 676210, Note_on_c, 0, 30, 67
1, 676215, Note_off_c, 0, 38, 62
1, 676229, Note_on_c, 0, 33, 51
1, 676243, Note_off_c, 0, 26, 61
1, 676247, Note_off_c, 0, 30, 58
1, 676251, Note_on_c, 0, 38, 55
1, 676267, Note_off_c, 0, 33, 62
1, 676319, Note_on_c, 0, 26, 71
1, 676320, Note_on_c, 0, 30, 69
1, 676332, Note_on_c, 0, 33, 62
1, 676333, Note_off_c, 0, 38, 62
1, 676371, Note_on_c, 0, 38, 60
1, 676381, Note_off_c, 0, 30, 59
1, 676384, Note_off_c, 0, 26, 53
1, 676388, Note_off_c, 0, 33, 62
1, 676457, Note_on_c, 0, 30, 66
1, 676464, Note_on_c, 0, 26, 61
1, 676470, Note_off_c, 0, 38, 62
1, 676471, Note_on_c, 0, 33, 63
1, 676508, Note_off_c, 0, 26, 57
1, 676512, Note_on_c, 0, 38, 65
1, 676517, Note_off_c, 0, 33, 61
1, 676517, Note_off_c, 0, 30, 59
1, 676593, Note_on_c, 0, 30, 66
1, 676600, Note_off_c, 0, 38, 63
1, 676600, Note_on_c, 0, 26, 66
1, 676604, Note_on_c, 0, 33, 58
1, 676637, Poly_aftertouch_c, 0, 38, 0
1, 676645, Note_on_c, 0, 38, 70
1, 676652, Note_off_c, 0, 30, 60
1, 676653, Note_off_c, 0, 26, 57
1, 676655, Note_off_c, 0, 33, 61
1, 676723, Note_on_c, 0, 30, 66
1, 676733, Note_on_c, 0, 26, 66
1, 676734, Note_on_c, 0, 33, 66
1, 676737, Note_off_c, 0, 38, 62
1, 676781, Poly_aftertouch_c, 0, 38, 0
1, 676788, Note_on_c, 0, 38, 65
1, 676792, Note_off_c, 0, 30, 61
1, 676802, Note_off_c, 0, 33, 61
1, 676808, Note_off_c, 0, 26, 58
1, 676866, Note_on_c, 0, 26, 55
1, 676871, Note_on_c, 0, 30, 68
1, 676875, Note_on_c, 0, 33, 64
1, 676875, Note_on_c, 0, 50, 100
1, 676878, Note_on_c, 0, 62, 86
1, 676878, Note_off_c, 0, 38, 62
1, 676881, Note_on_c, 0, 57, 78
1, 676928, Note_off_c, 0, 50, 63
1, 676934, Note_off_c, 0, 30, 61
1, 676936, Note_on_c, 0, 38, 68
1, 676936, Note_off_c, 0, 62, 62
1, 676940, Note_off_c, 0, 26, 58
1, 676943, Note_off_c, 0, 57, 61
1, 676946, Note_off_c, 0, 33, 62
1, 676981, Note_on_c, 0, 50, 94
1, 676982, Note_on_c, 0, 62, 88
1, 676986, Note_on_c, 0, 57, 72
1, 677003, Note_on_c, 0, 26, 61
1, 677003, Control_c, 0, 64, 60
1, 677006, Note_on_c, 0, 30, 69
1, 677014, Note_on_c, 0, 33, 55
1, 677016, Note_off_c, 0, 38, 63
1, 677018, Control_c, 0, 64, 0
1, 677048, Control_c, 0, 64, 27
1, 677057, Note_off_c, 0, 26, 61
1, 677059, Note_off_c, 0, 33, 57
1, 677062, Note_off_c, 0, 30, 62
1, 677063, Control_c, 0, 64, 60
1, 677066, Note_on_c, 0, 38, 68
1, 677077, Control_c, 0, 64, 127
1, 677152, Note_on_c, 0, 30, 61
1, 677157, Note_off_c, 0, 38, 62
1, 677161, Note_on_c, 0, 26, 57
1, 677170, Note_on_c, 0, 33, 48
1, 677192, Note_off_c, 0, 26, 64
1, 677197, Note_off_c, 0, 30, 59
1, 677204, Note_on_c, 0, 38, 65
1, 677212, Note_off_c, 0, 33, 54
1, 677266, Note_on_c, 0, 26, 63
1, 677274, Note_on_c, 0, 30, 64
1, 677274, Note_off_c, 0, 38, 62
1, 677293, Note_on_c, 0, 33, 38
1, 677308, Note_off_c, 0, 30, 59
1, 677310, Note_off_c, 0, 26, 62
1, 677315, Poly_aftertouch_c, 0, 38, 0
1, 677322, Note_on_c, 0, 38, 67
1, 677328, Note_off_c, 0, 33, 61
1, 677385, Note_on_c, 0, 30, 64
1, 677386, Note_off_c, 0, 38, 63
1, 677392, Note_on_c, 0, 26, 59
1, 677426, Note_off_c, 0, 26, 63
1, 677428, Note_off_c, 0, 30, 56
1, 677441, Note_on_c, 0, 33, 11
1, 677441, Note_on_c, 0, 38, 69
1, 677498, Note_on_c, 0, 26, 65
1, 677502, Note_off_c, 0, 38, 62
1, 677509, Note_on_c, 0, 30, 64
1, 677531, Note_off_c, 0, 26, 62
1, 677540, Note_off_c, 0, 30, 65
1, 677551, Note_on_c, 0, 38, 61
1, 677605, Note_off_c, 0, 33, 0
1, 677607, Note_on_c, 0, 26, 60
1, 677608, Note_on_c, 0, 30, 67
1, 677611, Note_off_c, 0, 38, 61
1, 677621, Note_on_c, 0, 33, 34
1, 677635, Note_off_c, 0, 26, 58
1, 677640, Note_off_c, 0, 30, 62
1, 677654, Note_off_c, 0, 33, 55
1, 677664, Note_on_c, 0, 38, 57
1, 677709, Note_off_c, 0, 38, 62
1, 677710, Note_on_c, 0, 26, 66
1, 677717, Note_on_c, 0, 30, 64
1, 677741, Note_on_c, 0, 33, 45
1, 677748, Note_off_c, 0, 30, 64
1, 677748, Note_off_c, 0, 26, 59
1, 677765, Note_on_c, 0, 38, 65
1, 677768, Note_off_c, 0, 33, 59
1, 677804, Note_off_c, 0, 38, 58
1, 677823, Note_on_c, 0, 30, 61
1, 677829, Note_on_c, 0, 26, 64
1, 677859, Note_off_c, 0, 26, 61
1, 677864, Note_off_c, 0, 30, 55
1, 677868, Note_on_c, 0, 38, 79
1, 677870, Note_on_c, 0, 33, 9
1, 677925, Note_off_c, 0, 38, 54
1, 677935, Note_on_c, 0, 26, 67
1, 677937, Note_off_c, 0, 33, 0
1, 677937, Note_on_c, 0, 33, 27
1, 677942, Note_on_c, 0, 30, 69
1, 677966, Note_off_c, 0, 26, 63
1, 677978, Note_on_c, 0, 38, 74
1, 677990, Note_off_c, 0, 30, 60
1, 677993, Note_off_c, 0, 33, 64
1, 678037, Note_off_c, 0, 38, 60
1, 678039, Note_on_c, 0, 26, 67
1, 678053, Note_on_c, 0, 30, 58
1, 678058, Note_on_c, 0, 33, 43
1, 678074, Note_off_c, 0, 26, 63
1, 678088, Note_on_c, 0, 38, 72
1, 678097, Note_off_c, 0, 33, 64
1, 678100, Note_off_c, 0, 30, 61
1, 678152, Note_on_c, 0, 26, 60
1, 678154, Note_off_c, 0, 38, 60
1, 678157, Note_on_c, 0, 33, 68
1, 678160, Note_off_c, 0, 62, 50
1, 678162, Note_on_c, 0, 30, 49
1, 678179, Note_off_c, 0, 26, 67
1, 678190, Poly_aftertouch_c, 0, 54, 127
1, 678193, Note_off_c, 0, 50, 38
1, 678194, Note_on_c, 0, 38, 56
1, 678194, Note_off_c, 0, 30, 66
1, 678204, Note_off_c, 0, 33, 63
1, 678216, Note_off_c, 0, 57, 59
1, 678247, Poly_aftertouch_c, 0, 54, 0
1, 678258, Note_on_c, 0, 33, 62
1, 678262, Note_on_c, 0, 26, 61
1, 678265, Note_off_c, 0, 38, 61
1, 678267, Note_on_c, 0, 30, 68
1, 678297, Note_off_c, 0, 26, 61
1, 678302, Note_on_c, 0, 38, 55
1, 678303, Note_off_c, 0, 30, 59
1, 678319, Note_off_c, 0, 33, 63
1, 678357, Poly_aftertouch_c, 0, 33, 0
1, 678366, Note_on_c, 0, 33, 57
1, 678368, Note_on_c, 0, 26, 69
1, 678371, Note_on_c, 0, 30, 69
1, 678378, Note_off_c, 0, 38, 60
1, 678403, Note_off_c, 0, 26, 59
1, 678416, Note_on_c, 0, 38, 57
1, 678428, Note_off_c, 0, 30, 60
1, 678434, Note_off_c, 0, 33, 64
1, 678477, Note_on_c, 0, 33, 57
1, 678480, Note_on_c, 0, 26, 66
1, 678487, Note_on_c, 0, 30, 63
1, 678487, Note_off_c, 0, 38, 60
1, 678518, Note_off_c, 0, 26, 59
1, 678534, Note_on_c, 0, 38, 66
1, 678538, Note_off_c, 0, 30, 57
1, 678541, Note_off_c, 0, 33, 64
1, 678598, Note_on_c, 0, 33, 65
1, 678606, Note_on_c, 0, 26, 62
1, 678607, Note_off_c, 0, 38, 62
1, 678607, Note_on_c, 0, 30, 62
1, 678646, Note_off_c, 0, 26, 63
1, 678656, Note_on_c, 0, 38, 64
1, 678663, Note_off_c, 0, 30, 59
1, 678665, Note_off_c, 0, 33, 64
1, 678719, Note_on_c, 0, 26, 64
1, 678723, Note_on_c, 0, 33, 61
1, 678727, Note_on_c, 0, 30, 64
1, 678729, Note_off_c, 0, 38, 62
1, 678764, Note_off_c, 0, 26, 62
1, 678771, Poly_aftertouch_c, 0, 38, 0
1, 678776, Note_off_c, 0, 30, 59
1, 678780, Note_on_c, 0, 38, 63
1, 678793, Note_off_c, 0, 33, 62
1, 678851, Note_on_c, 0, 33, 52
1, 678854, Note_on_c, 0, 26, 67
1, 678854, Note_off_c, 0, 38, 64
1, 678857, Note_on_c, 0, 30, 67
1, 678885, Note_off_c, 0, 26, 61
1, 678898, Note_off_c, 0, 30, 54
1, 678901, Note_on_c, 0, 38, 66
1, 678911, Note_off_c, 0, 33, 62
1, 678963, Note_on_c, 0, 26, 67
1, 678975, Note_on_c, 0, 33, 50
1, 678979, Note_on_c, 0, 30, 71
1, 678979, Note_off_c, 0, 38, 63
1, 679024, Note_on_c, 0, 38, 65
1, 679025, Note_off_c, 0, 30, 58
1, 679027, Note_off_c, 0, 26, 56
1, 679036, Note_off_c, 0, 33, 59
1, 679107, Note_on_c, 0, 30, 67
1, 679110, Note_on_c, 0, 45, 89
1, 679113, Note_on_c, 0, 57, 81
1, 679116, Note_on_c, 0, 33, 56
1, 679116, Note_on_c, 0, 26, 57
1, 679119, Note_on_c, 0, 50, 75
1, 679120, Note_off_c, 0, 38, 61
1, 679146, Control_c, 0, 64, 104
1, 679147, Note_off_c, 0, 45, 62
1, 679150, Note_off_c, 0, 50, 65
1, 679152, Note_off_c, 0, 57, 58
1, 679161, Note_off_c, 0, 26, 58
1, 679161, Control_c, 0, 64, 61
1, 679162, Note_off_c, 0, 30, 60
1, 679164, Note_off_c, 0, 33, 61
1, 679175, Note_on_c, 0, 38, 63
1, 679177, Control_c, 0, 64, 38
1, 679192, Control_c, 0, 64, 40
1, 679199, Note_on_c, 0, 45, 98
1, 679202, Note_on_c, 0, 57, 86
1, 679206, Note_on_c, 0, 50, 86
1, 679207, Control_c, 0, 64, 64
1, 679221, Control_c, 0, 64, 127
1, 679233, Note_on_c, 0, 26, 68
1, 679241, Note_on_c, 0, 30, 57
1, 679242, Note_on_c, 0, 33, 52
1, 679251, Note_off_c, 0, 38, 62
1, 679253, Note_off_c, 0, 45, 64
1, 679256, Note_off_c, 0, 57, 61
1, 679274, Note_off_c, 0, 50, 64
1, 679284, Note_on_c, 0, 38, 57
1, 679289, Note_off_c, 0, 26, 53
1, 679295, Note_off_c, 0, 30, 61
1, 679304, Note_off_c, 0, 33, 62
1, 679388, Note_on_c, 0, 30, 68
1, 679391, Note_on_c, 0, 26, 63
1, 679396, Note_off_c, 0, 38, 61
1, 679398, Note_on_c, 0, 33, 53
1, 679429, Note_off_c, 0, 26, 56
1, 679429, Note_on_c, 0, 38, 61
1, 679441, Note_off_c, 0, 30, 61
1, 679449, Note_off_c, 0, 33, 62
1, 679509, Note_on_c, 0, 26, 69
1, 679519, Note_off_c, 0, 38, 61
1, 679520, Note_on_c, 0, 30, 63
1, 679525, Note_on_c, 0, 33, 58
1, 679559, Note_off_c, 0, 33, 63
1, 679560, Note_off_c, 0, 30, 58
1, 679561, Note_on_c, 0, 38, 67
1, 679572, Note_off_c, 0, 26, 56
1, 679635, Note_on_c, 0, 26, 61
1, 679637, Note_on_c, 0, 30, 68
1, 679642, Note_off_c, 0, 38, 60
1, 679645, Note_on_c, 0, 33, 63
1, 679686, Note_off_c, 0, 26, 52
1, 679692, Note_on_c, 0, 38, 69
1, 679698, Note_off_c, 0, 30, 59
1, 679709, Note_off_c, 0, 33, 61
1, 679774, Note_on_c, 0, 33, 62
1, 679775, Note_on_c, 0, 30, 67
1, 679778, Note_on_c, 0, 26, 67
1, 679780, Note_off_c, 0, 38, 55
1, 679821, Note_off_c, 0, 26, 51
1, 679823, Note_on_c, 0, 38, 68
1, 679830, Note_off_c, 0, 30, 58
1, 679839, Note_off_c, 0, 33, 60
1, 679902, Note_on_c, 0, 33, 65
1, 679907, Note_on_c, 0, 30, 66
1, 679909, Note_on_c, 0, 26, 69
1, 679914, Note_off_c, 0, 38, 59
1, 679948, Note_off_c, 0, 26, 53
1, 679954, Note_on_c, 0, 38, 60
1, 679966, Note_off_c, 0, 33, 64
1, 679970, Note_off_c, 0, 30, 60
1, 680030, Note_on_c, 0, 26, 71
1, 680031, Note_on_c, 0, 33, 66
1, 680034, Note_on_c, 0, 30, 65
1, 680040, Note_off_c, 0, 38, 63
1, 680083, Note_on_c, 0, 38, 70
1, 680100, Note_off_c, 0, 33, 63
1, 680102, Note_off_c, 0, 26, 56
1, 680102, Note_off_c, 0, 30, 60
1, 680178, Note_on_c, 0, 26, 56
1, 680179, Note_on_c, 0, 30, 66
1, 680182, Note_on_c, 0, 33, 60
1, 680184, Note_off_c, 0, 38, 62
1, 680229, Note_on_c, 0, 38, 69
1, 680243, Note_off_c, 0, 30, 60
1, 680247, Note_off_c, 0, 33, 61
1, 680251, Note_off_c, 0, 26, 56
1, 680309, Note_on_c, 0, 26, 53
1, 680315, Note_on_c, 0, 30, 68
1, 680315, Note_on_c, 0, 33, 67
1, 680320, Note_off_c, 0, 38, 62
1, 680363, Note_on_c, 0, 38, 72
1, 680386, Note_off_c, 0, 30, 62
1, 680393, Note_off_c, 0, 26, 59
1, 680393, Note_off_c, 0, 33, 63
1, 680460, Note_on_c, 0, 33, 67
1, 680461, Note_on_c, 0, 30, 71
1, 680466, Note_on_c, 0, 26, 58
1, 680467, Note_off_c, 0, 38, 63
1, 680508, Note_on_c, 0, 38, 84
1, 680511, Note_on_c, 0, 45, 108
1, 680516, Note_on_c, 0, 57, 97
1, 680519, Note_on_c, 0, 50, 89
1, 680541, Note_off_c, 0, 33, 61
1, 680542, Control_c, 0, 64, 89
1, 680546, Note_off_c, 0, 30, 61
1, 680557, Control_c, 0, 64, 47
1, 680562, Note_on_c, 0, 54, 46
1, 680572, Control_c, 0, 64, 0
1, 680574, Note_off_c, 0, 26, 0
1, 680596, Note_off_c, 0, 54, 52
1, 680601, Note_on_c, 0, 33, 59
1, 680603, Note_on_c, 0, 30, 57
1, 680603, Note_off_c, 0, 38, 63
1, 680611, Poly_aftertouch_c, 0, 26, 127
1, 680626, Note_on_c, 0, 26, 3
1, 680631, Control_c, 0, 64, 25
1, 680646, Control_c, 0, 64, 56
1, 680656, Note_on_c, 0, 38, 74
1, 680658, Note_off_c, 0, 26, 54
1, 680661, Control_c, 0, 64, 127
1, 680663, Note_off_c, 0, 30, 61
1, 680672, Note_off_c, 0, 33, 62
1, 680735, Note_on_c, 0, 26, 72
1, 680742, Note_on_c, 0, 30, 64
1, 680742, Note_off_c, 0, 38, 62
1, 680751, Note_on_c, 0, 33, 42
1, 680786, Note_off_c, 0, 30, 56
1, 680789, Note_on_c, 0, 38, 73
1, 680797, Note_off_c, 0, 26, 58
1, 680821, Note_off_c, 0, 33, 0
1, 680843, Poly_aftertouch_c, 0, 33, 0
1, 680876, Note_on_c, 0, 33, 36
1, 680877, Note_on_c, 0, 26, 66
1, 680877, Note_on_c, 0, 30, 73
1, 680887, Note_off_c, 0, 38, 60
1, 680923, Note_on_c, 0, 38, 63
1, 680939, Note_off_c, 0, 26, 55
1, 680939, Note_off_c, 0, 30, 60
1, 680950, Note_off_c, 0, 33, 61
1, 681002, Note_on_c, 0, 33, 54
1, 681003, Note_on_c, 0, 30, 66
1, 681005, Note_on_c, 0, 26, 64
1, 681013, Note_off_c, 0, 38, 63
1, 681051, Note_off_c, 0, 26, 58
1, 681051, Note_on_c, 0, 38, 71
1, 681072, Note_off_c, 0, 30, 62
1, 681078, Note_off_c, 0, 33, 64
1, 681114, Note_off_c, 0, 45, 57
1, 681122, Note_off_c, 0, 57, 58
1, 681125, Poly_aftertouch_c, 0, 33, 0
1, 681131, Note_on_c, 0, 26, 75
1, 681134, Note_on_c, 0, 33, 56
1, 681136, Note_on_c, 0, 30, 66
1, 681143, Note_off_c, 0, 38, 63
1, 681176, Note_on_c, 0, 38, 67
1, 681180, Note_off_c, 0, 50, 52
1, 681197, Note_off_c, 0, 26, 58
1, 681198, Note_off_c, 0, 30, 62
1, 681207, Note_off_c, 0, 33, 63
1, 681265, Note_on_c, 0, 26, 67
1, 681268, Note_on_c, 0, 33, 60
1, 681269, Note_on_c, 0, 30, 65
1, 681283, Note_off_c, 0, 38, 59
1, 681313, Note_on_c, 0, 38, 63
1, 681334, Note_off_c, 0, 26, 55
1, 681335, Note_off_c, 0, 30, 62
1, 681341, Note_off_c, 0, 33, 62
1, 681405, Note_on_c, 0, 33, 67
1, 681406, Note_on_c, 0, 30, 71
1, 681409, Note_on_c, 0, 26, 64
1, 681418, Note_off_c, 0, 38, 60
1, 681456, Note_off_c, 0, 26, 56
1, 681458, Note_on_c, 0, 38, 71
1, 681482, Note_off_c, 0, 30, 62
1, 681483, Note_off_c, 0, 33, 63
1, 681543, Note_on_c, 0, 26, 74
1, 681543, Note_on_c, 0, 33, 66
1, 681543, Note_on_c, 0, 30, 62
1, 681558, Note_off_c, 0, 38, 60
1, 681591, Note_on_c, 0, 38, 63
1, 681608, Note_off_c, 0, 26, 54
1, 681626, Note_off_c, 0, 30, 61
1, 681635, Note_off_c, 0, 33, 63
1, 681686, Note_on_c, 0, 33, 63
1, 681688, Note_on_c, 0, 30, 68
1, 681690, Note_on_c, 0, 26, 65
1, 681703, Note_off_c, 0, 38, 63
1, 681741, Note_on_c, 0, 38, 69
1, 681764, Note_off_c, 0, 26, 57
1, 681769, Note_off_c, 0, 33, 64
1, 681770, Note_off_c, 0, 30, 62
1, 681829, Note_on_c, 0, 30, 64
1, 681830, Note_on_c, 0, 26, 60
1, 681831, Note_on_c, 0, 33, 68
1, 681844, Note_off_c, 0, 38, 64
1, 681885, Note_on_c, 0, 38, 70
1, 681912, Note_off_c, 0, 30, 62
1, 681915, Note_off_c, 0, 26, 55
1, 681922, Note_off_c, 0, 33, 62
1, 681968, Note_on_c, 0, 26, 57
1, 681971, Note_on_c, 0, 33, 54
1, 681973, Note_on_c, 0, 30, 67
1, 681984, Note_off_c, 0, 38, 62
1, 682027, Note_on_c, 0, 38, 69
1, 682040, Note_off_c, 0, 26, 56
1, 682053, Note_off_c, 0, 30, 61
1, 682062, Note_off_c, 0, 33, 63
1, 682115, Note_on_c, 0, 30, 65
1, 682120, Note_on_c, 0, 33, 60
1, 682121, Note_on_c, 0, 26, 57
1, 682122, Note_off_c, 0, 38, 61
1, 682173, Note_off_c, 0, 26, 55
1, 682174, Note_on_c, 0, 38, 74
1, 682195, Note_off_c, 0, 30, 61
1, 682210, Note_off_c, 0, 33, 63
1, 682266, Note_on_c, 0, 26, 67
1, 682273, Note_on_c, 0, 30, 60
1, 682290, Note_on_c, 0, 33, 53
1, 682376, Note_off_c, 0, 38, 35
1, 682400, Note_off_c, 0, 26, 37
1, 682480, Note_off_c, 0, 30, 27
1, 682487, Note_off_c, 0, 33, 31
1, 682565, Note_on_c, 0, 50, 100
1, 682566, Note_on_c, 0, 38, 108
1, 682567, Note_on_c, 0, 45, 100
1, 682570, Note_on_c, 0, 33, 95
1, 682571, Note_on_c, 0, 26, 96
1, 682625, Control_c, 0, 64, 67
1, 682640, Control_c, 0, 64, 32
1, 682652, Poly_aftertouch_c, 0, 30, 0
1, 682655, Control_c, 0, 64, 0
1, 685345, Control_c, 0, 64, 11
1, 685360, Control_c, 0, 64, 19
1, 685382, Control_c, 0, 64, 24
1, 685397, Control_c, 0, 64, 30
1, 685412, Control_c, 0, 64, 36
1, 685427, Control_c, 0, 64, 44
1, 685441, Control_c, 0, 64, 51
1, 685456, Control_c, 0, 64, 57
1, 685471, Control_c, 0, 64, 61
1, 685486, Control_c, 0, 64, 63
1, 685501, Control_c, 0, 64, 64
1, 685515, Control_c, 0, 64, 65
1, 685530, Control_c, 0, 64, 66
1, 685545, Control_c, 0, 64, 67
1, 685560, Control_c, 0, 64, 68
1, 685575, Control_c, 0, 64, 69
1, 685589, Control_c, 0, 64, 72
1, 685604, Control_c, 0, 64, 76
1, 685619, Control_c, 0, 64, 83
1, 685634, Control_c, 0, 64, 90
1, 685648, Control_c, 0, 64, 98
1, 685663, Control_c, 0, 64, 107
1, 685678, Control_c, 0, 64, 119
1, 685693, Control_c, 0, 64, 127
1, 687035, Note_off_c, 0, 45, 65
1, 687042, Note_off_c, 0, 26, 59
1, 687049, Note_off_c, 0, 50, 57
1, 687099, Note_off_c, 0, 38, 65
1, 687100, Note_off_c, 0, 33, 66
1, 687191, Control_c, 0, 64, 72
1, 687206, Control_c, 0, 64, 46
1, 687220, Control_c, 0, 64, 0
1, 687295, End_track
0, 0, End_of_file
