0, 0, Header, 0, 1, 384
1, 0, Start_track
1, 0, Title_t, "Jeux d'eau, Ravel--Jia          "
1, 0, Text_t, "2009 International Piano-e-Competition finals"
1, 0, Text_t, "captured June-July 2009"
1, 0, Text_t, "http://www.piano-e-competition.com/"
1, 0, Text_t, "standard-resolution version"
1, 0, Text_t, "File processed for distribution by software from Zenph Studios, Inc., http://www.zenph.com"
1, 0, Instrument_name_t, "Yamaha Disklavier Pro Mark IV concert grand piano, model DCFIIISM4PRO"
1, 0, Sequencer_specific, 39, 67, 113, 0, 1, 0, 1, 0, 74, 101, 117, 120, 32, 100, 39, 101, 97, 117, 32, 32, 32, 32, 32, 32, 82, 97, 110, 32, 74, 105, 97, 32, 32, 32, 32, 32, 32, 32, 32, 32
1, 0, Sequencer_specific, 6, 67, 113, 0, 0, 0, 69
1, 0, System_exclusive, 21, 67, 113, 126, 21, 0, 2, 2, 2, 3, 12, 8, 4, 10, 4, 10, 4, 10, 10, 15, 3, 247
1, 0, Sequencer_specific, 5, 67, 123, 12, 2, 1
1, 0, Tempo, 512820
1, 0, Time_signature, 4, 2, 24, 8
1, 0, System_exclusive, 5, 126, 127, 9, 1, 247
1, 1, System_exclusive, 8, 67, 16, 76, 0, 0, 126, 0, 247
1, 2, System_exclusive, 8, 67, 16, 76, 8, 9, 7, 1, 247
1, 3, Control_c, 0, 0, 0
1, 3, Control_c, 1, 0, 0
1, 3, Control_c, 2, 0, 0
1, 3, Control_c, 3, 0, 0
1, 3, Control_c, 4, 0, 0
1, 3, Control_c, 5, 0, 0
1, 3, Control_c, 6, 0, 0
1, 3, Control_c, 7, 0, 0
1, 3, Control_c, 8, 0, 0
1, 3, Control_c, 9, 0, 127
1, 3, Control_c, 10, 0, 0
1, 3, Control_c, 11, 0, 0
1, 3, Control_c, 12, 0, 0
1, 3, Control_c, 13, 0, 0
1, 3, Control_c, 14, 0, 0
1, 3, Control_c, 15, 0, 0
1, 4, Control_c, 0, 32, 0
1, 4, Control_c, 1, 32, 0
1, 4, Control_c, 2, 32, 0
1, 4, Control_c, 3, 32, 0
1, 4, Control_c, 4, 32, 0
1, 4, Control_c, 5, 32, 0
1, 4, Control_c, 6, 32, 0
1, 4, Control_c, 7, 32, 0
1, 4, Control_c, 8, 32, 0
1, 4, Control_c, 9, 32, 0
1, 4, Control_c, 10, 32, 0
1, 4, Control_c, 11, 32, 0
1, 4, Control_c, 12, 32, 0
1, 4, Control_c, 13, 32, 0
1, 4, Control_c, 14, 32, 0
1, 4, Control_c, 15, 32, 0
1, 5, Program_c, 0, 0
1, 5, Program_c, 1, 0
1, 5, Program_c, 2, 0
1, 5, Program_c, 3, 0
1, 5, Program_c, 4, 0
1, 5, Program_c, 5, 0
1, 5, Program_c, 6, 0
1, 5, Program_c, 7, 0
1, 5, Program_c, 8, 0
1, 5, Program_c, 9, 0
1, 5, Program_c, 10, 0
1, 5, Program_c, 11, 0
1, 5, Program_c, 12, 0
1, 5, Program_c, 13, 0
1, 5, Program_c, 14, 0
1, 5, Program_c, 15, 0
1, 6, Control_c, 0, 7, 100
1, 6, Control_c, 1, 7, 100
1, 6, Control_c, 2, 7, 100
1, 6, Control_c, 3, 7, 100
1, 6, Control_c, 4, 7, 100
1, 6, Control_c, 5, 7, 100
1, 6, Control_c, 6, 7, 100
1, 6, Control_c, 7, 7, 100
1, 6, Control_c, 8, 7, 100
1, 6, Control_c, 9, 7, 100
1, 6, Control_c, 10, 7, 100
1, 6, Control_c, 11, 7, 100
1, 6, Control_c, 12, 7, 100
1, 6, Control_c, 13, 7, 100
1, 6, Control_c, 14, 7, 100
1, 6, Control_c, 15, 7, 100
1, 117, Control_c, 0, 64, 15
1, 117, Control_c, 0, 67, 15
1, 229, Control_c, 0, 64, 31
1, 229, Control_c, 0, 67, 31
1, 341, Control_c, 0, 64, 46
1, 341, Control_c, 0, 67, 46
1, 452, Control_c, 0, 64, 63
1, 452, Control_c, 0, 67, 63
1, 564, Control_c, 0, 64, 77
1, 564, Control_c, 0, 67, 77
1, 676, Control_c, 0, 64, 94
1, 676, Control_c, 0, 67, 94
1, 787, Control_c, 0, 64, 108
1, 787, Control_c, 0, 67, 108
1, 899, Control_c, 0, 64, 127
1, 899, Control_c, 0, 67, 127
1, 1135, Note_on_c, 0, 75, 41
1, 1151, Note_on_c, 0, 71, 36
1, 1172, Note_on_c, 0, 64, 20
1, 1291, Note_on_c, 0, 80, 56
1, 1329, Note_off_c, 0, 64, 42
1, 1339, Note_off_c, 0, 75, 37
1, 1430, Note_off_c, 0, 71, 29
1, 1452, Note_on_c, 0, 87, 62
1, 1455, Note_on_c, 0, 68, 44
1, 1458, Note_on_c, 0, 76, 45
1, 1482, Note_off_c, 0, 68, 59
1, 1498, Note_off_c, 0, 76, 60
1, 1509, Note_off_c, 0, 80, 55
1, 1598, Note_on_c, 0, 90, 66
1, 1641, Note_off_c, 0, 87, 60
1, 1751, Note_on_c, 0, 83, 52
1, 1751, Note_on_c, 0, 87, 69
1, 1762, Note_off_c, 0, 90, 54
1, 1764, Note_on_c, 0, 76, 44
1, 1802, Note_off_c, 0, 83, 63
1, 1841, Note_off_c, 0, 76, 36
1, 1900, Note_on_c, 0, 80, 55
1, 1902, Note_off_c, 0, 87, 63
1, 1993, Note_off_c, 0, 80, 58
1, 2033, Note_on_c, 0, 76, 47
1, 2036, Note_on_c, 0, 69, 51
1, 2043, Note_on_c, 0, 73, 63
1, 2063, Note_off_c, 0, 76, 62
1, 2083, Note_off_c, 0, 69, 59
1, 2105, Note_off_c, 0, 73, 63
1, 2114, Note_on_c, 0, 80, 68
1, 2179, Note_on_c, 0, 85, 61
1, 2237, Note_off_c, 0, 80, 50
1, 2241, Note_on_c, 0, 88, 69
1, 2272, Note_off_c, 0, 85, 61
1, 2292, Control_c, 0, 64, 120
1, 2307, Control_c, 0, 64, 95
1, 2322, Control_c, 0, 64, 79
1, 2335, Note_on_c, 0, 71, 44
1, 2337, Control_c, 0, 64, 65
1, 2341, Note_on_c, 0, 75, 59
1, 2349, Note_on_c, 0, 64, 46
1, 2351, Control_c, 0, 64, 0
1, 2352, Note_off_c, 0, 88, 59
1, 2366, Control_c, 0, 64, 14
1, 2381, Control_c, 0, 64, 61
1, 2396, Control_c, 0, 64, 68
1, 2411, Control_c, 0, 64, 77
1, 2425, Control_c, 0, 64, 88
1, 2440, Control_c, 0, 64, 101
1, 2455, Control_c, 0, 64, 124
1, 2470, Control_c, 0, 64, 127
1, 2489, Note_on_c, 0, 80, 68
1, 2498, Note_off_c, 0, 75, 58
1, 2525, Note_off_c, 0, 64, 36
1, 2561, Note_off_c, 0, 71, 38
1, 2632, Note_on_c, 0, 68, 52
1, 2637, Note_on_c, 0, 76, 50
1, 2641, Note_on_c, 0, 87, 65
1, 2665, Note_off_c, 0, 68, 63
1, 2680, Note_off_c, 0, 76, 59
1, 2683, Note_off_c, 0, 80, 60
1, 2781, Note_on_c, 0, 90, 74
1, 2827, Note_off_c, 0, 87, 60
1, 2929, Note_on_c, 0, 83, 53
1, 2934, Note_on_c, 0, 76, 52
1, 2937, Note_on_c, 0, 87, 72
1, 2962, Note_off_c, 0, 90, 59
1, 2975, Note_off_c, 0, 76, 57
1, 2978, Note_off_c, 0, 83, 50
1, 3076, Note_on_c, 0, 80, 66
1, 3109, Note_off_c, 0, 87, 64
1, 3187, Note_off_c, 0, 80, 60
1, 3209, Note_on_c, 0, 76, 52
1, 3219, Note_on_c, 0, 69, 48
1, 3219, Note_on_c, 0, 73, 70
1, 3236, Note_off_c, 0, 76, 63
1, 3256, Note_off_c, 0, 69, 64
1, 3279, Note_off_c, 0, 73, 62
1, 3291, Note_on_c, 0, 80, 74
1, 3348, Note_on_c, 0, 85, 67
1, 3404, Note_off_c, 0, 80, 53
1, 3418, Note_on_c, 0, 88, 75
1, 3452, Note_off_c, 0, 85, 60
1, 3455, Control_c, 0, 64, 119
1, 3470, Control_c, 0, 64, 99
1, 3485, Control_c, 0, 64, 81
1, 3500, Control_c, 0, 64, 67
1, 3510, Note_on_c, 0, 75, 66
1, 3515, Note_on_c, 0, 71, 46
1, 3516, Control_c, 0, 64, 0
1, 3521, Note_on_c, 0, 64, 44
1, 3523, Note_off_c, 0, 88, 62
1, 3545, Control_c, 0, 64, 11
1, 3560, Control_c, 0, 64, 61
1, 3575, Control_c, 0, 64, 68
1, 3597, Control_c, 0, 64, 77
1, 3612, Control_c, 0, 64, 86
1, 3627, Control_c, 0, 64, 96
1, 3642, Control_c, 0, 64, 104
1, 3657, Control_c, 0, 64, 114
1, 3664, Note_on_c, 0, 80, 70
1, 3671, Control_c, 0, 64, 127
1, 3708, Note_off_c, 0, 75, 43
1, 3732, Note_off_c, 0, 71, 33
1, 3757, Note_off_c, 0, 64, 33
1, 3805, Note_on_c, 0, 68, 47
1, 3811, Note_on_c, 0, 87, 70
1, 3815, Note_on_c, 0, 76, 47
1, 3831, Note_off_c, 0, 68, 61
1, 3832, Note_off_c, 0, 80, 54
1, 3861, Note_off_c, 0, 76, 60
1, 3949, Note_on_c, 0, 90, 71
1, 3960, Note_off_c, 0, 87, 56
1, 4042, Note_off_c, 0, 90, 52
1, 4096, Note_on_c, 0, 80, 60
1, 4114, Note_on_c, 0, 76, 41
1, 4117, Note_on_c, 0, 71, 39
1, 4168, Note_off_c, 0, 76, 44
1, 4251, Note_on_c, 0, 87, 64
1, 4275, Note_off_c, 0, 80, 48
1, 4400, Note_off_c, 0, 87, 32
1, 4412, Note_on_c, 0, 92, 53
1, 4415, Note_on_c, 0, 83, 43
1, 4420, Note_on_c, 0, 76, 35
1, 4482, Note_off_c, 0, 83, 53
1, 4490, Note_off_c, 0, 76, 41
1, 4501, Note_off_c, 0, 92, 60
1, 4546, Note_off_c, 0, 71, 43
1, 4579, Note_on_c, 0, 95, 58
1, 4635, Note_off_c, 0, 95, 55
1, 4835, Control_c, 0, 64, 114
1, 4850, Control_c, 0, 64, 103
1, 4865, Control_c, 0, 64, 90
1, 4879, Note_on_c, 0, 80, 40
1, 4880, Control_c, 0, 64, 76
1, 4890, Note_on_c, 0, 76, 34
1, 4893, Note_on_c, 0, 69, 36
1, 4895, Control_c, 0, 64, 63
1, 4910, Control_c, 0, 64, 0
1, 4939, Control_c, 0, 64, 57
1, 4954, Control_c, 0, 64, 68
1, 4969, Control_c, 0, 64, 77
1, 4984, Control_c, 0, 64, 91
1, 4999, Control_c, 0, 64, 109
1, 5013, Control_c, 0, 64, 127
1, 5032, Note_off_c, 0, 69, 35
1, 5035, Note_on_c, 0, 85, 46
1, 5043, Note_off_c, 0, 80, 46
1, 5145, Note_off_c, 0, 76, 36
1, 5182, Note_off_c, 0, 85, 59
1, 5186, Note_on_c, 0, 73, 47
1, 5188, Note_on_c, 0, 81, 40
1, 5193, Note_on_c, 0, 92, 48
1, 5220, Note_off_c, 0, 73, 55
1, 5232, Note_off_c, 0, 81, 53
1, 5326, Note_off_c, 0, 92, 60
1, 5335, Note_on_c, 0, 97, 60
1, 5464, Note_on_c, 0, 81, 51
1, 5467, Note_off_c, 0, 97, 56
1, 5470, Note_on_c, 0, 88, 51
1, 5480, Note_on_c, 0, 92, 51
1, 5492, Note_off_c, 0, 88, 59
1, 5494, Note_off_c, 0, 81, 64
1, 5610, Note_on_c, 0, 85, 53
1, 5610, Note_off_c, 0, 92, 64
1, 5675, Note_off_c, 0, 85, 47
1, 5718, Note_on_c, 0, 62, 39
1, 5745, Note_on_c, 0, 66, 44
1, 5757, Note_on_c, 0, 78, 55
1, 5765, Note_off_c, 0, 62, 57
1, 5779, Note_off_c, 0, 66, 60
1, 5780, Note_on_c, 0, 72, 48
1, 5812, Note_off_c, 0, 72, 65
1, 5823, Note_on_c, 0, 84, 53
1, 5858, Note_off_c, 0, 78, 59
1, 5881, Note_on_c, 0, 88, 60
1, 5900, Note_off_c, 0, 84, 63
1, 5938, Note_on_c, 0, 92, 62
1, 5952, Note_off_c, 0, 88, 61
1, 5977, Control_c, 0, 64, 94
1, 5992, Control_c, 0, 64, 76
1, 6007, Control_c, 0, 64, 57
1, 6022, Control_c, 0, 64, 0
1, 6036, Note_on_c, 0, 80, 56
1, 6037, Note_on_c, 0, 76, 32
1, 6039, Note_on_c, 0, 69, 37
1, 6041, Note_off_c, 0, 92, 60
1, 6066, Control_c, 0, 64, 61
1, 6081, Control_c, 0, 64, 69
1, 6096, Control_c, 0, 64, 78
1, 6111, Control_c, 0, 64, 89
1, 6126, Control_c, 0, 64, 100
1, 6140, Control_c, 0, 64, 112
1, 6155, Control_c, 0, 64, 127
1, 6162, Note_off_c, 0, 69, 37
1, 6177, Note_off_c, 0, 80, 56
1, 6181, Note_on_c, 0, 85, 56
1, 6242, Note_off_c, 0, 76, 42
1, 6299, Note_off_c, 0, 85, 60
1, 6320, Note_on_c, 0, 81, 45
1, 6322, Note_on_c, 0, 73, 47
1, 6326, Note_on_c, 0, 92, 55
1, 6347, Note_off_c, 0, 73, 59
1, 6359, Note_off_c, 0, 81, 54
1, 6472, Note_on_c, 0, 97, 59
1, 6492, Note_off_c, 0, 92, 56
1, 6604, Note_off_c, 0, 97, 56
1, 6617, Note_on_c, 0, 88, 52
1, 6617, Note_on_c, 0, 92, 61
1, 6621, Note_on_c, 0, 81, 49
1, 6639, Note_off_c, 0, 88, 63
1, 6649, Note_off_c, 0, 81, 62
1, 6758, Note_off_c, 0, 92, 64
1, 6767, Note_on_c, 0, 85, 55
1, 6836, Note_off_c, 0, 85, 56
1, 6879, Note_on_c, 0, 62, 52
1, 6892, Note_on_c, 0, 78, 64
1, 6917, Note_on_c, 0, 66, 38
1, 6934, Note_off_c, 0, 62, 56
1, 6935, Note_on_c, 0, 72, 50
1, 6949, Note_off_c, 0, 66, 55
1, 6961, Note_on_c, 0, 84, 59
1, 6970, Note_off_c, 0, 72, 63
1, 7004, Note_off_c, 0, 78, 62
1, 7008, Note_on_c, 0, 88, 68
1, 7041, Note_off_c, 0, 84, 63
1, 7077, Note_on_c, 0, 92, 70
1, 7098, Note_off_c, 0, 88, 62
1, 7111, Control_c, 0, 64, 105
1, 7125, Control_c, 0, 64, 88
1, 7140, Control_c, 0, 64, 73
1, 7155, Control_c, 0, 64, 49
1, 7163, Note_on_c, 0, 80, 65
1, 7170, Note_on_c, 0, 69, 46
1, 7170, Control_c, 0, 64, 0
1, 7180, Note_on_c, 0, 76, 38
1, 7192, Note_off_c, 0, 92, 61
1, 7200, Control_c, 0, 64, 48
1, 7214, Control_c, 0, 64, 64
1, 7229, Control_c, 0, 64, 71
1, 7244, Control_c, 0, 64, 80
1, 7259, Control_c, 0, 64, 90
1, 7271, Note_off_c, 0, 69, 51
1, 7274, Control_c, 0, 64, 98
1, 7289, Control_c, 0, 64, 105
1, 7303, Note_off_c, 0, 80, 56
1, 7304, Control_c, 0, 64, 114
1, 7310, Note_on_c, 0, 85, 65
1, 7319, Control_c, 0, 64, 127
1, 7377, Note_off_c, 0, 76, 41
1, 7379, Note_off_c, 0, 85, 61
1, 7451, Note_on_c, 0, 81, 53
1, 7460, Note_on_c, 0, 73, 54
1, 7460, Note_on_c, 0, 92, 64
1, 7472, Note_off_c, 0, 81, 62
1, 7484, Note_off_c, 0, 73, 63
1, 7517, Note_off_c, 0, 92, 62
1, 7602, Note_on_c, 0, 97, 62
1, 7623, Note_off_c, 0, 97, 66
1, 7623, Control_c, 0, 64, 126
1, 7637, Control_c, 0, 64, 118
1, 7652, Control_c, 0, 64, 113
1, 7667, Control_c, 0, 64, 109
1, 7682, Control_c, 0, 64, 104
1, 7698, Control_c, 0, 64, 98
1, 7712, Control_c, 0, 64, 91
1, 7727, Control_c, 0, 64, 81
1, 7742, Control_c, 0, 64, 69
1, 7757, Control_c, 0, 64, 31
1, 7761, Note_on_c, 0, 78, 49
1, 7767, Note_on_c, 0, 66, 32
1, 7771, Note_on_c, 0, 72, 42
1, 7772, Control_c, 0, 64, 0
1, 7831, Control_c, 0, 64, 40
1, 7846, Control_c, 0, 64, 58
1, 7861, Control_c, 0, 64, 65
1, 7876, Control_c, 0, 64, 70
1, 7891, Control_c, 0, 64, 74
1, 7905, Control_c, 0, 64, 79
1, 7912, Note_on_c, 0, 84, 43
1, 7920, Control_c, 0, 64, 83
1, 7934, Note_off_c, 0, 78, 36
1, 7935, Control_c, 0, 64, 86
1, 7950, Control_c, 0, 64, 88
1, 7957, Note_off_c, 0, 72, 37
1, 7964, Control_c, 0, 64, 90
1, 7979, Control_c, 0, 64, 92
1, 7994, Control_c, 0, 64, 95
1, 8009, Control_c, 0, 64, 96
1, 8023, Control_c, 0, 64, 98
1, 8038, Control_c, 0, 64, 98
1, 8053, Control_c, 0, 64, 99
1, 8055, Note_on_c, 0, 69, 41
1, 8068, Control_c, 0, 64, 99
1, 8088, Note_on_c, 0, 62, 25
1, 8094, Note_on_c, 0, 88, 36
1, 8100, Note_off_c, 0, 84, 33
1, 8105, Control_c, 0, 64, 100
1, 8155, Note_off_c, 0, 69, 57
1, 8160, Note_off_c, 0, 66, 39
1, 8227, Note_off_c, 0, 62, 44
1, 8228, Note_off_c, 0, 88, 42
1, 8240, Note_on_c, 0, 92, 41
1, 8267, Note_off_c, 0, 92, 54
1, 8343, Control_c, 0, 64, 100
1, 8402, Control_c, 0, 64, 99
1, 8417, Control_c, 0, 64, 92
1, 8421, Note_on_c, 0, 58, 39
1, 8423, Note_on_c, 0, 68, 38
1, 8432, Control_c, 0, 64, 83
1, 8447, Control_c, 0, 64, 72
1, 8461, Note_on_c, 0, 74, 55
1, 8461, Control_c, 0, 64, 65
1, 8476, Control_c, 0, 64, 65
1, 8491, Control_c, 0, 64, 69
1, 8501, Note_off_c, 0, 68, 57
1, 8506, Control_c, 0, 64, 73
1, 8511, Note_on_c, 0, 80, 57
1, 8511, Note_off_c, 0, 74, 57
1, 8521, Control_c, 0, 64, 80
1, 8535, Control_c, 0, 64, 91
1, 8550, Control_c, 0, 64, 101
1, 8552, Note_on_c, 0, 84, 64
1, 8557, Note_off_c, 0, 80, 57
1, 8565, Control_c, 0, 64, 111
1, 8579, Control_c, 0, 64, 127
1, 8617, Note_off_c, 0, 84, 64
1, 8626, Note_on_c, 0, 88, 70
1, 8627, Note_off_c, 0, 58, 37
1, 8687, Note_off_c, 0, 88, 62
1, 8694, Note_on_c, 0, 85, 73
1, 8696, Note_on_c, 0, 55, 46
1, 8698, Note_on_c, 0, 65, 50
1, 8746, Note_off_c, 0, 85, 65
1, 8749, Note_on_c, 0, 81, 66
1, 8772, Note_off_c, 0, 65, 53
1, 8773, Note_off_c, 0, 81, 66
1, 8790, Note_off_c, 0, 55, 0
1, 8794, Note_on_c, 0, 77, 71
1, 8810, Note_on_c, 0, 55, 36
1, 8818, Note_off_c, 0, 77, 71
1, 8883, Note_on_c, 0, 72, 45
1, 8897, Note_off_c, 0, 55, 50
1, 8906, Note_off_c, 0, 72, 59
1, 8963, Note_on_c, 0, 68, 66
1, 8965, Note_on_c, 0, 62, 49
1, 8968, Note_on_c, 0, 52, 53
1, 9003, Note_off_c, 0, 68, 57
1, 9010, Note_off_c, 0, 62, 58
1, 9023, Note_on_c, 0, 74, 66
1, 9032, Control_c, 0, 67, 121
1, 9036, Note_off_c, 0, 52, 61
1, 9047, Control_c, 0, 67, 108
1, 9061, Control_c, 0, 67, 89
1, 9076, Note_off_c, 0, 74, 64
1, 9076, Control_c, 0, 67, 65
1, 9089, Note_on_c, 0, 78, 68
1, 9091, Control_c, 0, 67, 41
1, 9107, Control_c, 0, 67, 22
1, 9122, Control_c, 0, 67, 0
1, 9164, Note_off_c, 0, 78, 62
1, 9172, Note_on_c, 0, 82, 74
1, 9214, Note_on_c, 0, 49, 57
1, 9214, Note_off_c, 0, 82, 63
1, 9221, Note_on_c, 0, 59, 48
1, 9227, Note_on_c, 0, 79, 69
1, 9263, Note_off_c, 0, 59, 59
1, 9286, Note_off_c, 0, 79, 60
1, 9288, Note_on_c, 0, 74, 71
1, 9319, Note_off_c, 0, 74, 66
1, 9341, Note_on_c, 0, 71, 66
1, 9365, Note_off_c, 0, 71, 66
1, 9393, Note_off_c, 0, 49, 61
1, 9410, Note_on_c, 0, 65, 63
1, 9417, Control_c, 0, 67, 9
1, 9432, Control_c, 0, 67, 11
1, 9446, Note_off_c, 0, 65, 63
1, 9447, Control_c, 0, 64, 116
1, 9447, Control_c, 0, 67, 12
1, 9462, Control_c, 0, 64, 85
1, 9477, Control_c, 0, 64, 63
1, 9482, Note_on_c, 0, 56, 60
1, 9484, Note_on_c, 0, 46, 55
1, 9486, Note_on_c, 0, 62, 62
1, 9492, Control_c, 0, 64, 0
1, 9492, Control_c, 0, 67, 12
1, 9506, Control_c, 0, 67, 11
1, 9521, Control_c, 0, 64, 60
1, 9521, Control_c, 0, 67, 10
1, 9524, Note_off_c, 0, 46, 61
1, 9536, Control_c, 0, 64, 72
1, 9536, Control_c, 0, 67, 9
1, 9539, Note_off_c, 0, 56, 63
1, 9551, Control_c, 0, 64, 87
1, 9551, Control_c, 0, 67, 9
1, 9566, Control_c, 0, 64, 127
1, 9566, Control_c, 0, 67, 8
1, 9588, Control_c, 0, 67, 8
1, 9602, Note_off_c, 0, 62, 48
1, 9602, Control_c, 0, 67, 0
1, 9644, Note_on_c, 0, 68, 57
1, 9678, Note_off_c, 0, 68, 60
1, 9784, Note_on_c, 0, 68, 76
1, 9804, Note_on_c, 0, 58, 61
1, 9812, Note_on_c, 0, 72, 49
1, 9836, Note_off_c, 0, 68, 60
1, 9839, Note_off_c, 0, 58, 63
1, 9840, Control_c, 0, 67, 8
1, 9855, Control_c, 0, 67, 8
1, 9870, Control_c, 0, 67, 9
1, 9899, Control_c, 0, 67, 9
1, 9930, Control_c, 0, 67, 10
1, 9954, Note_on_c, 0, 76, 54
1, 9958, Control_c, 0, 67, 10
1, 9967, Note_off_c, 0, 72, 37
1, 9973, Control_c, 0, 67, 11
1, 10003, Control_c, 0, 67, 11
1, 10085, Note_on_c, 0, 72, 50
1, 10086, Note_off_c, 0, 76, 35
1, 10106, Control_c, 0, 67, 11
1, 10190, Note_off_c, 0, 72, 49
1, 10219, Note_on_c, 0, 68, 55
1, 10256, Note_off_c, 0, 68, 61
1, 10299, Control_c, 0, 67, 10
1, 10359, Note_on_c, 0, 59, 53
1, 10368, Note_on_c, 0, 49, 47
1, 10382, Note_on_c, 0, 67, 56
1, 10383, Note_on_c, 0, 65, 54
1, 10433, Note_off_c, 0, 59, 49
1, 10440, Control_c, 0, 67, 10
1, 10441, Note_on_c, 0, 71, 60
1, 10471, Note_off_c, 0, 65, 51
1, 10484, Note_on_c, 0, 74, 67
1, 10496, Note_off_c, 0, 67, 38
1, 10544, Control_c, 0, 67, 10
1, 10545, Note_on_c, 0, 79, 63
1, 10546, Note_off_c, 0, 71, 60
1, 10558, Control_c, 0, 67, 11
1, 10560, Note_off_c, 0, 49, 52
1, 10563, Note_off_c, 0, 79, 63
1, 10573, Note_off_c, 0, 74, 65
1, 10573, Control_c, 0, 67, 11
1, 10588, Control_c, 0, 67, 12
1, 10618, Control_c, 0, 64, 97
1, 10618, Control_c, 0, 67, 12
1, 10632, Control_c, 0, 64, 63
1, 10646, Note_on_c, 0, 56, 60
1, 10647, Control_c, 0, 64, 0
1, 10649, Note_on_c, 0, 46, 52
1, 10657, Note_on_c, 0, 62, 69
1, 10680, Note_off_c, 0, 46, 62
1, 10685, Note_off_c, 0, 56, 63
1, 10692, Control_c, 0, 64, 65
1, 10708, Control_c, 0, 64, 78
1, 10708, Control_c, 0, 67, 12
1, 10723, Control_c, 0, 64, 106
1, 10738, Control_c, 0, 64, 127
1, 10753, Control_c, 0, 67, 11
1, 10755, Note_off_c, 0, 62, 39
1, 10782, Control_c, 0, 67, 11
1, 10812, Control_c, 0, 67, 10
1, 10813, Note_on_c, 0, 68, 49
1, 10848, Note_off_c, 0, 68, 60
1, 10916, Control_c, 0, 67, 10
1, 10955, Note_on_c, 0, 68, 71
1, 10974, Note_on_c, 0, 58, 55
1, 10981, Note_on_c, 0, 72, 45
1, 11007, Note_off_c, 0, 68, 58
1, 11009, Note_off_c, 0, 58, 63
1, 11125, Note_on_c, 0, 76, 56
1, 11130, Control_c, 0, 67, 10
1, 11152, Note_off_c, 0, 72, 33
1, 11268, Note_on_c, 0, 72, 54
1, 11278, Control_c, 0, 67, 11
1, 11283, Note_off_c, 0, 76, 34
1, 11384, Note_off_c, 0, 72, 54
1, 11395, Note_on_c, 0, 68, 60
1, 11432, Note_off_c, 0, 68, 60
1, 11528, Note_on_c, 0, 59, 56
1, 11536, Note_on_c, 0, 49, 53
1, 11545, Note_on_c, 0, 67, 62
1, 11545, Note_on_c, 0, 65, 57
1, 11595, Note_off_c, 0, 59, 53
1, 11602, Note_on_c, 0, 71, 69
1, 11639, Note_off_c, 0, 65, 59
1, 11646, Note_on_c, 0, 74, 67
1, 11649, Note_off_c, 0, 67, 58
1, 11706, Note_on_c, 0, 79, 68
1, 11712, Note_off_c, 0, 71, 59
1, 11716, Note_off_c, 0, 49, 55
1, 11730, Note_off_c, 0, 79, 66
1, 11733, Note_off_c, 0, 74, 65
1, 11737, Control_c, 0, 67, 11
1, 11752, Control_c, 0, 67, 12
1, 11782, Control_c, 0, 64, 114
1, 11782, Control_c, 0, 67, 12
1, 11796, Control_c, 0, 64, 78
1, 11811, Control_c, 0, 64, 0
1, 11811, Control_c, 0, 67, 13
1, 11824, Note_on_c, 0, 46, 58
1, 11824, Note_on_c, 0, 56, 65
1, 11830, Note_on_c, 0, 62, 72
1, 11861, Note_off_c, 0, 46, 63
1, 11864, Control_c, 0, 64, 26
1, 11878, Control_c, 0, 64, 67
1, 11879, Note_off_c, 0, 56, 62
1, 11893, Control_c, 0, 64, 79
1, 11907, Note_off_c, 0, 62, 52
1, 11908, Control_c, 0, 64, 102
1, 11908, Control_c, 0, 67, 12
1, 11922, Control_c, 0, 64, 127
1, 11922, Control_c, 0, 67, 12
1, 11967, Control_c, 0, 67, 11
1, 11991, Note_on_c, 0, 68, 55
1, 12011, Control_c, 0, 67, 11
1, 12025, Note_off_c, 0, 68, 61
1, 12056, Control_c, 0, 67, 11
1, 12115, Control_c, 0, 67, 11
1, 12133, Note_on_c, 0, 68, 79
1, 12149, Note_on_c, 0, 58, 61
1, 12157, Note_on_c, 0, 72, 48
1, 12174, Control_c, 0, 67, 11
1, 12187, Note_off_c, 0, 58, 60
1, 12189, Note_off_c, 0, 68, 58
1, 12263, Control_c, 0, 67, 12
1, 12288, Note_off_c, 0, 72, 55
1, 12293, Control_c, 0, 67, 12
1, 12295, Note_on_c, 0, 76, 62
1, 12439, Note_on_c, 0, 72, 59
1, 12460, Note_off_c, 0, 76, 36
1, 12544, Control_c, 0, 67, 12
1, 12604, Note_on_c, 0, 68, 57
1, 12621, Note_off_c, 0, 72, 53
1, 12676, Note_off_c, 0, 68, 61
1, 12775, Note_on_c, 0, 68, 66
1, 12790, Note_on_c, 0, 58, 52
1, 12804, Note_on_c, 0, 62, 44
1, 12861, Note_off_c, 0, 68, 54
1, 12978, Note_off_c, 0, 62, 42
1, 13000, Note_on_c, 0, 64, 45
1, 13176, Note_off_c, 0, 64, 53
1, 13180, Note_on_c, 0, 62, 56
1, 13187, Note_off_c, 0, 58, 42
1, 13228, Note_off_c, 0, 62, 58
1, 13250, Note_on_c, 0, 60, 63
1, 13307, Note_on_c, 0, 62, 58
1, 13317, Note_off_c, 0, 60, 57
1, 13379, Note_on_c, 0, 64, 60
1, 13383, Note_off_c, 0, 62, 61
1, 13407, Note_off_c, 0, 64, 67
1, 13420, Control_c, 0, 64, 119
1, 13435, Control_c, 0, 64, 92
1, 13449, Control_c, 0, 64, 75
1, 13454, Note_on_c, 0, 66, 68
1, 13459, Note_on_c, 0, 60, 48
1, 13464, Control_c, 0, 64, 57
1, 13473, Note_on_c, 0, 56, 50
1, 13479, Control_c, 0, 64, 0
1, 13508, Control_c, 0, 64, 62
1, 13523, Control_c, 0, 64, 69
1, 13523, Control_c, 0, 67, 12
1, 13532, Note_off_c, 0, 60, 61
1, 13533, Note_on_c, 0, 68, 60
1, 13538, Control_c, 0, 64, 77
1, 13538, Control_c, 0, 67, 13
1, 13553, Control_c, 0, 64, 88
1, 13553, Control_c, 0, 67, 14
1, 13568, Control_c, 0, 64, 100
1, 13568, Control_c, 0, 67, 16
1, 13582, Control_c, 0, 64, 114
1, 13582, Control_c, 0, 67, 20
1, 13597, Note_off_c, 0, 56, 60
1, 13597, Control_c, 0, 64, 127
1, 13597, Control_c, 0, 67, 49
1, 13598, Note_off_c, 0, 68, 55
1, 13606, Note_on_c, 0, 70, 58
1, 13606, Note_off_c, 0, 66, 57
1, 13612, Control_c, 0, 67, 82
1, 13627, Control_c, 0, 67, 110
1, 13641, Control_c, 0, 67, 127
1, 13659, Note_off_c, 0, 70, 63
1, 13681, Note_on_c, 0, 72, 53
1, 13701, Control_c, 0, 64, 126
1, 13706, Note_off_c, 0, 72, 64
1, 13716, Control_c, 0, 64, 113
1, 13731, Control_c, 0, 64, 102
1, 13746, Control_c, 0, 64, 89
1, 13761, Control_c, 0, 64, 75
1, 13763, Note_on_c, 0, 64, 52
1, 13774, Note_on_c, 0, 58, 47
1, 13775, Control_c, 0, 64, 52
1, 13781, Note_on_c, 0, 74, 59
1, 13787, Note_on_c, 0, 54, 43
1, 13790, Control_c, 0, 64, 0
1, 13835, Control_c, 0, 64, 53
1, 13838, Note_off_c, 0, 74, 55
1, 13850, Control_c, 0, 64, 64
1, 13865, Control_c, 0, 64, 70
1, 13871, Note_on_c, 0, 76, 54
1, 13879, Control_c, 0, 64, 76
1, 13895, Control_c, 0, 64, 83
1, 13910, Control_c, 0, 64, 88
1, 13915, Note_off_c, 0, 64, 48
1, 13924, Control_c, 0, 64, 93
1, 13939, Control_c, 0, 64, 96
1, 13943, Note_off_c, 0, 76, 54
1, 13954, Control_c, 0, 64, 97
1, 13960, Note_on_c, 0, 78, 49
1, 13969, Control_c, 0, 64, 97
1, 13983, Note_off_c, 0, 54, 45
1, 14022, Note_off_c, 0, 78, 55
1, 14023, Note_off_c, 0, 58, 38
1, 14030, Note_on_c, 0, 80, 56
1, 14095, Control_c, 0, 64, 96
1, 14110, Control_c, 0, 64, 95
1, 14122, Note_off_c, 0, 80, 55
1, 14124, Control_c, 0, 64, 91
1, 14139, Control_c, 0, 64, 84
1, 14154, Control_c, 0, 64, 71
1, 14169, Control_c, 0, 64, 34
1, 14183, Note_on_c, 0, 63, 33
1, 14184, Note_on_c, 0, 83, 50
1, 14184, Control_c, 0, 64, 0
1, 14192, Note_on_c, 0, 79, 41
1, 14192, Note_on_c, 0, 57, 28
1, 14209, Note_on_c, 0, 53, 26
1, 14225, Note_off_c, 0, 79, 57
1, 14228, Note_off_c, 0, 83, 58
1, 14228, Control_c, 0, 64, 34
1, 14243, Control_c, 0, 64, 64
1, 14258, Control_c, 0, 64, 71
1, 14273, Control_c, 0, 64, 81
1, 14288, Control_c, 0, 64, 93
1, 14303, Control_c, 0, 64, 107
1, 14306, Note_on_c, 0, 71, 46
1, 14317, Control_c, 0, 64, 127
1, 14347, Note_off_c, 0, 71, 64
1, 14381, Note_on_c, 0, 73, 53
1, 14395, Note_off_c, 0, 63, 37
1, 14426, Note_off_c, 0, 73, 62
1, 14447, Note_on_c, 0, 75, 40
1, 14475, Note_off_c, 0, 75, 55
1, 14508, Note_off_c, 0, 57, 51
1, 14509, Note_on_c, 0, 77, 53
1, 14543, Note_off_c, 0, 53, 43
1, 14548, Note_off_c, 0, 77, 61
1, 14570, Note_on_c, 0, 79, 55
1, 14615, Note_off_c, 0, 79, 54
1, 14622, Note_on_c, 0, 81, 50
1, 14663, Note_off_c, 0, 81, 58
1, 14707, Note_on_c, 0, 83, 38
1, 14746, Note_off_c, 0, 83, 48
1, 14761, Note_on_c, 0, 85, 54
1, 14836, Note_off_c, 0, 85, 58
1, 14877, Note_on_c, 0, 40, 33
1, 14918, Note_off_c, 0, 40, 49
1, 14977, Control_c, 0, 64, 106
1, 14987, Note_on_c, 0, 87, 52
1, 14992, Control_c, 0, 64, 89
1, 14997, Note_on_c, 0, 47, 32
1, 15001, Note_on_c, 0, 80, 37
1, 15007, Control_c, 0, 64, 72
1, 15021, Control_c, 0, 64, 47
1, 15036, Control_c, 0, 64, 0
1, 15066, Control_c, 0, 64, 61
1, 15069, Note_off_c, 0, 80, 40
1, 15081, Control_c, 0, 64, 69
1, 15090, Note_on_c, 0, 75, 38
1, 15093, Note_on_c, 0, 56, 36
1, 15096, Control_c, 0, 64, 81
1, 15101, Note_off_c, 0, 47, 39
1, 15111, Control_c, 0, 64, 99
1, 15125, Control_c, 0, 64, 127
1, 15138, Note_off_c, 0, 56, 53
1, 15203, Note_off_c, 0, 87, 43
1, 15328, Note_on_c, 0, 80, 39
1, 15331, Note_off_c, 0, 75, 36
1, 15500, Note_on_c, 0, 87, 40
1, 15503, Note_on_c, 0, 71, 22
1, 15504, Note_on_c, 0, 64, 35
1, 15533, Note_off_c, 0, 80, 44
1, 15543, Note_off_c, 0, 64, 55
1, 15608, Note_off_c, 0, 71, 37
1, 15644, Note_on_c, 0, 90, 50
1, 15656, Note_off_c, 0, 87, 53
1, 15764, Note_off_c, 0, 90, 51
1, 15788, Note_on_c, 0, 87, 48
1, 15791, Note_on_c, 0, 75, 46
1, 15805, Note_on_c, 0, 68, 40
1, 15813, Note_on_c, 0, 63, 30
1, 15817, Note_off_c, 0, 75, 63
1, 15837, Note_off_c, 0, 68, 60
1, 15853, Note_off_c, 0, 63, 53
1, 15930, Note_on_c, 0, 80, 51
1, 15931, Note_off_c, 0, 87, 51
1, 16017, Note_off_c, 0, 80, 58
1, 16080, Note_on_c, 0, 73, 51
1, 16084, Note_on_c, 0, 64, 38
1, 16085, Note_on_c, 0, 57, 43
1, 16112, Note_off_c, 0, 64, 58
1, 16121, Note_off_c, 0, 57, 63
1, 16124, Note_off_c, 0, 73, 61
1, 16135, Note_on_c, 0, 80, 59
1, 16182, Note_on_c, 0, 85, 56
1, 16249, Note_off_c, 0, 80, 37
1, 16259, Note_on_c, 0, 52, 37
1, 16261, Note_on_c, 0, 88, 59
1, 16282, Note_off_c, 0, 85, 59
1, 16289, Control_c, 0, 64, 118
1, 16296, Note_off_c, 0, 52, 50
1, 16304, Control_c, 0, 64, 88
1, 16326, Control_c, 0, 64, 68
1, 16341, Control_c, 0, 64, 23
1, 16345, Note_on_c, 0, 59, 39
1, 16356, Control_c, 0, 64, 56
1, 16369, Note_off_c, 0, 88, 44
1, 16371, Control_c, 0, 64, 66
1, 16377, Note_off_c, 0, 59, 51
1, 16386, Note_on_c, 0, 75, 50
1, 16386, Control_c, 0, 64, 77
1, 16386, Note_on_c, 0, 68, 56
1, 16400, Control_c, 0, 64, 94
1, 16415, Control_c, 0, 64, 127
1, 16416, Note_off_c, 0, 68, 60
1, 16521, Note_off_c, 0, 75, 55
1, 16534, Note_on_c, 0, 80, 53
1, 16687, Note_on_c, 0, 87, 53
1, 16697, Note_on_c, 0, 64, 37
1, 16701, Note_on_c, 0, 71, 39
1, 16726, Note_off_c, 0, 80, 53
1, 16743, Note_off_c, 0, 64, 63
1, 16830, Note_on_c, 0, 90, 58
1, 16831, Note_off_c, 0, 71, 34
1, 16857, Note_off_c, 0, 87, 57
1, 16959, Note_on_c, 0, 75, 51
1, 16980, Note_on_c, 0, 63, 46
1, 16980, Note_on_c, 0, 68, 41
1, 16980, Note_on_c, 0, 87, 55
1, 16981, Note_off_c, 0, 90, 41
1, 16988, Note_off_c, 0, 75, 65
1, 17010, Note_off_c, 0, 68, 54
1, 17015, Note_off_c, 0, 63, 63
1, 17091, Note_off_c, 0, 87, 61
1, 17114, Note_on_c, 0, 80, 57
1, 17217, Note_off_c, 0, 80, 58
1, 17263, Note_on_c, 0, 64, 47
1, 17267, Note_on_c, 0, 57, 41
1, 17272, Note_on_c, 0, 73, 52
1, 17287, Note_off_c, 0, 64, 62
1, 17296, Note_off_c, 0, 57, 60
1, 17332, Note_on_c, 0, 80, 65
1, 17337, Note_off_c, 0, 73, 62
1, 17383, Note_on_c, 0, 85, 61
1, 17414, Note_on_c, 0, 52, 58
1, 17428, Note_off_c, 0, 80, 54
1, 17449, Note_off_c, 0, 52, 62
1, 17466, Note_on_c, 0, 88, 67
1, 17476, Control_c, 0, 64, 110
1, 17489, Note_off_c, 0, 85, 63
1, 17490, Control_c, 0, 64, 79
1, 17499, Note_on_c, 0, 59, 47
1, 17505, Control_c, 0, 64, 24
1, 17520, Control_c, 0, 64, 0
1, 17531, Note_off_c, 0, 59, 60
1, 17546, Note_on_c, 0, 68, 66
1, 17549, Control_c, 0, 64, 64
1, 17561, Note_off_c, 0, 88, 56
1, 17564, Control_c, 0, 64, 76
1, 17577, Note_on_c, 0, 75, 59
1, 17579, Control_c, 0, 64, 100
1, 17581, Note_off_c, 0, 68, 61
1, 17594, Control_c, 0, 64, 127
1, 17687, Note_off_c, 0, 75, 54
1, 17713, Note_on_c, 0, 80, 59
1, 17870, Note_on_c, 0, 87, 65
1, 17871, Note_off_c, 0, 80, 56
1, 17876, Note_on_c, 0, 71, 48
1, 17879, Note_on_c, 0, 64, 40
1, 17919, Note_off_c, 0, 64, 61
1, 17931, Note_off_c, 0, 71, 50
1, 18016, Note_off_c, 0, 87, 55
1, 18018, Note_on_c, 0, 90, 66
1, 18105, Note_off_c, 0, 90, 53
1, 18136, Control_c, 0, 64, 112
1, 18151, Control_c, 0, 64, 81
1, 18165, Control_c, 0, 64, 62
1, 18166, Note_on_c, 0, 80, 53
1, 18178, Note_on_c, 0, 63, 40
1, 18180, Control_c, 0, 64, 0
1, 18193, Note_on_c, 0, 75, 34
1, 18201, Note_on_c, 0, 68, 31
1, 18210, Control_c, 0, 64, 58
1, 18225, Control_c, 0, 64, 69
1, 18230, Note_off_c, 0, 63, 56
1, 18235, Note_off_c, 0, 68, 54
1, 18239, Control_c, 0, 64, 81
1, 18254, Control_c, 0, 64, 98
1, 18269, Control_c, 0, 64, 127
1, 18276, Note_off_c, 0, 75, 50
1, 18320, Note_off_c, 0, 80, 50
1, 18335, Note_on_c, 0, 87, 57
1, 18527, Note_on_c, 0, 92, 47
1, 18545, Note_on_c, 0, 83, 39
1, 18583, Note_on_c, 0, 76, 31
1, 18592, Note_off_c, 0, 87, 34
1, 18594, Note_on_c, 0, 71, 28
1, 18691, Note_off_c, 0, 83, 41
1, 18697, Note_off_c, 0, 71, 29
1, 18699, Note_off_c, 0, 92, 37
1, 18758, Note_on_c, 0, 95, 54
1, 18815, Note_off_c, 0, 95, 63
1, 18856, Note_off_c, 0, 76, 41
1, 19077, Control_c, 0, 64, 111
1, 19092, Control_c, 0, 64, 92
1, 19106, Note_on_c, 0, 88, 49
1, 19107, Control_c, 0, 64, 72
1, 19118, Note_on_c, 0, 80, 41
1, 19121, Control_c, 0, 64, 37
1, 19133, Note_on_c, 0, 73, 37
1, 19136, Control_c, 0, 64, 0
1, 19166, Control_c, 0, 64, 45
1, 19181, Control_c, 0, 64, 63
1, 19195, Control_c, 0, 64, 71
1, 19210, Control_c, 0, 64, 80
1, 19225, Control_c, 0, 64, 92
1, 19240, Control_c, 0, 64, 107
1, 19250, Note_off_c, 0, 88, 36
1, 19251, Note_off_c, 0, 73, 43
1, 19254, Control_c, 0, 64, 127
1, 19262, Note_on_c, 0, 83, 54
1, 19296, Note_off_c, 0, 80, 48
1, 19369, Note_off_c, 0, 83, 48
1, 19412, Note_on_c, 0, 85, 60
1, 19418, Note_on_c, 0, 76, 51
1, 19424, Note_on_c, 0, 80, 52
1, 19439, Note_off_c, 0, 85, 66
1, 19446, Note_off_c, 0, 80, 64
1, 19448, Note_off_c, 0, 76, 62
1, 19537, Note_on_c, 0, 71, 57
1, 19566, Note_off_c, 0, 71, 66
1, 19663, Control_c, 0, 64, 96
1, 19678, Control_c, 0, 64, 76
1, 19688, Note_on_c, 0, 81, 56
1, 19691, Note_on_c, 0, 73, 51
1, 19692, Control_c, 0, 64, 51
1, 19704, Note_on_c, 0, 66, 42
1, 19707, Control_c, 0, 64, 0
1, 19737, Control_c, 0, 64, 57
1, 19752, Control_c, 0, 64, 68
1, 19767, Control_c, 0, 64, 80
1, 19782, Control_c, 0, 64, 95
1, 19797, Control_c, 0, 64, 114
1, 19811, Control_c, 0, 64, 127
1, 19815, Note_off_c, 0, 66, 36
1, 19815, Note_off_c, 0, 81, 38
1, 19836, Note_on_c, 0, 76, 61
1, 19850, Note_off_c, 0, 73, 53
1, 19924, Note_off_c, 0, 76, 56
1, 19967, Note_on_c, 0, 73, 60
1, 19972, Note_on_c, 0, 78, 55
1, 19976, Note_on_c, 0, 69, 50
1, 20001, Note_off_c, 0, 69, 59
1, 20008, Note_off_c, 0, 78, 61
1, 20023, Note_off_c, 0, 73, 61
1, 20031, Note_on_c, 0, 64, 66
1, 20064, Note_off_c, 0, 64, 68
1, 20105, Note_on_c, 0, 69, 58
1, 20151, Note_off_c, 0, 69, 60
1, 20179, Note_on_c, 0, 76, 65
1, 20205, Note_off_c, 0, 76, 65
1, 20277, Control_c, 0, 64, 100
1, 20294, Control_c, 0, 64, 79
1, 20308, Control_c, 0, 64, 61
1, 20312, Note_on_c, 0, 88, 60
1, 20321, Note_on_c, 0, 73, 43
1, 20323, Control_c, 0, 64, 0
1, 20324, Note_on_c, 0, 80, 46
1, 20353, Control_c, 0, 64, 47
1, 20367, Control_c, 0, 64, 65
1, 20382, Control_c, 0, 64, 75
1, 20397, Control_c, 0, 64, 88
1, 20412, Control_c, 0, 64, 108
1, 20427, Control_c, 0, 64, 127
1, 20461, Note_off_c, 0, 73, 38
1, 20468, Note_off_c, 0, 88, 54
1, 20482, Note_on_c, 0, 83, 49
1, 20493, Note_off_c, 0, 80, 56
1, 20587, Note_off_c, 0, 83, 49
1, 20625, Note_on_c, 0, 76, 56
1, 20625, Note_on_c, 0, 85, 43
1, 20626, Note_on_c, 0, 80, 48
1, 20650, Note_off_c, 0, 85, 57
1, 20655, Note_off_c, 0, 80, 58
1, 20679, Note_off_c, 0, 76, 53
1, 20766, Note_on_c, 0, 71, 49
1, 20789, Note_off_c, 0, 71, 60
1, 20879, Control_c, 0, 64, 99
1, 20893, Control_c, 0, 64, 78
1, 20905, Note_on_c, 0, 73, 54
1, 20906, Note_on_c, 0, 81, 59
1, 20908, Control_c, 0, 64, 52
1, 20921, Note_on_c, 0, 66, 43
1, 20923, Control_c, 0, 64, 0
1, 20938, Control_c, 0, 64, 36
1, 20953, Control_c, 0, 64, 63
1, 20967, Control_c, 0, 64, 72
1, 20982, Control_c, 0, 64, 83
1, 20997, Control_c, 0, 64, 102
1, 21012, Control_c, 0, 64, 127
1, 21032, Note_off_c, 0, 81, 38
1, 21054, Note_on_c, 0, 76, 65
1, 21055, Note_off_c, 0, 66, 42
1, 21079, Note_off_c, 0, 73, 58
1, 21139, Note_off_c, 0, 76, 58
1, 21188, Note_on_c, 0, 73, 66
1, 21189, Note_on_c, 0, 78, 59
1, 21192, Note_on_c, 0, 69, 50
1, 21215, Note_off_c, 0, 69, 59
1, 21230, Note_off_c, 0, 78, 58
1, 21239, Note_on_c, 0, 64, 66
1, 21245, Note_off_c, 0, 73, 61
1, 21266, Note_off_c, 0, 64, 69
1, 21302, Note_on_c, 0, 69, 61
1, 21356, Note_off_c, 0, 69, 57
1, 21379, Note_on_c, 0, 76, 65
1, 21403, Note_off_c, 0, 76, 65
1, 21546, Control_c, 0, 64, 92
1, 21546, Note_on_c, 0, 80, 53
1, 21563, Note_on_c, 0, 73, 54
1, 21564, Note_on_c, 0, 88, 50
1, 21568, Control_c, 0, 64, 73
1, 21582, Control_c, 0, 64, 0
1, 21612, Control_c, 0, 64, 40
1, 21627, Control_c, 0, 64, 63
1, 21642, Control_c, 0, 64, 72
1, 21657, Control_c, 0, 64, 83
1, 21672, Control_c, 0, 64, 106
1, 21686, Control_c, 0, 64, 127
1, 21695, Note_off_c, 0, 73, 51
1, 21716, Note_on_c, 0, 83, 60
1, 21716, Note_off_c, 0, 88, 50
1, 21742, Note_off_c, 0, 80, 50
1, 21820, Note_off_c, 0, 83, 52
1, 21851, Note_on_c, 0, 85, 57
1, 21856, Note_on_c, 0, 76, 60
1, 21858, Note_on_c, 0, 80, 56
1, 21871, Note_off_c, 0, 85, 65
1, 21889, Note_off_c, 0, 80, 65
1, 21907, Note_off_c, 0, 76, 56
1, 22005, Note_on_c, 0, 71, 44
1, 22029, Note_off_c, 0, 71, 59
1, 22131, Control_c, 0, 64, 101
1, 22144, Note_on_c, 0, 81, 61
1, 22146, Control_c, 0, 64, 78
1, 22151, Note_on_c, 0, 73, 54
1, 22158, Note_on_c, 0, 66, 43
1, 22161, Control_c, 0, 64, 59
1, 22176, Control_c, 0, 64, 0
1, 22205, Control_c, 0, 64, 47
1, 22220, Control_c, 0, 64, 65
1, 22235, Control_c, 0, 64, 75
1, 22250, Control_c, 0, 64, 87
1, 22265, Control_c, 0, 64, 102
1, 22277, Note_off_c, 0, 66, 38
1, 22280, Control_c, 0, 64, 122
1, 22287, Note_off_c, 0, 81, 39
1, 22293, Note_on_c, 0, 76, 57
1, 22295, Control_c, 0, 64, 127
1, 22321, Note_off_c, 0, 73, 60
1, 22421, Note_off_c, 0, 76, 44
1, 22441, Note_on_c, 0, 73, 66
1, 22444, Note_on_c, 0, 78, 55
1, 22463, Note_on_c, 0, 69, 53
1, 22464, Note_off_c, 0, 78, 65
1, 22471, Note_off_c, 0, 73, 66
1, 22500, Note_off_c, 0, 69, 62
1, 22584, Note_on_c, 0, 64, 52
1, 22606, Note_off_c, 0, 64, 62
1, 22657, Control_c, 0, 64, 115
1, 22672, Control_c, 0, 64, 93
1, 22688, Control_c, 0, 64, 76
1, 22703, Control_c, 0, 64, 56
1, 22718, Control_c, 0, 64, 0
1, 22729, Note_on_c, 0, 66, 60
1, 22743, Note_on_c, 0, 57, 42
1, 22745, Note_on_c, 0, 63, 44
1, 22762, Control_c, 0, 64, 55
1, 22777, Control_c, 0, 64, 65
1, 22792, Control_c, 0, 64, 70
1, 22807, Control_c, 0, 64, 76
1, 22815, Note_off_c, 0, 66, 52
1, 22822, Control_c, 0, 64, 80
1, 22836, Control_c, 0, 64, 84
1, 22851, Control_c, 0, 64, 87
1, 22866, Control_c, 0, 64, 91
1, 22873, Note_off_c, 0, 57, 37
1, 22875, Note_on_c, 0, 68, 54
1, 22880, Control_c, 0, 64, 96
1, 22895, Control_c, 0, 64, 104
1, 22903, Note_off_c, 0, 63, 38
1, 22910, Control_c, 0, 64, 112
1, 22925, Control_c, 0, 64, 116
1, 22940, Control_c, 0, 64, 115
1, 22946, Note_off_c, 0, 68, 52
1, 22954, Control_c, 0, 64, 106
1, 22969, Control_c, 0, 64, 91
1, 22984, Control_c, 0, 64, 75
1, 22999, Control_c, 0, 64, 26
1, 23014, Control_c, 0, 64, 0
1, 23022, Note_on_c, 0, 69, 66
1, 23031, Note_on_c, 0, 63, 54
1, 23043, Control_c, 0, 64, 51
1, 23046, Note_on_c, 0, 73, 50
1, 23066, Control_c, 0, 64, 66
1, 23080, Control_c, 0, 64, 75
1, 23095, Control_c, 0, 64, 88
1, 23110, Control_c, 0, 64, 99
1, 23125, Control_c, 0, 64, 108
1, 23140, Control_c, 0, 64, 116
1, 23153, Note_off_c, 0, 69, 45
1, 23154, Control_c, 0, 64, 127
1, 23167, Note_off_c, 0, 73, 52
1, 23184, Note_off_c, 0, 63, 37
1, 23198, Note_on_c, 0, 78, 53
1, 23298, Note_off_c, 0, 78, 38
1, 23350, Note_on_c, 0, 68, 51
1, 23432, Note_off_c, 0, 68, 56
1, 23526, Note_on_c, 0, 73, 51
1, 23576, Note_off_c, 0, 73, 59
1, 23675, Control_c, 0, 64, 110
1, 23690, Control_c, 0, 64, 95
1, 23704, Control_c, 0, 64, 81
1, 23719, Control_c, 0, 64, 67
1, 23734, Control_c, 0, 64, 40
1, 23736, Note_on_c, 0, 78, 36
1, 23745, Note_on_c, 0, 75, 38
1, 23749, Control_c, 0, 64, 35
1, 23764, Note_on_c, 0, 66, 31
1, 23764, Control_c, 0, 64, 56
1, 23777, Note_on_c, 0, 63, 32
1, 23778, Control_c, 0, 64, 64
1, 23793, Control_c, 0, 64, 68
1, 23815, Control_c, 0, 64, 75
1, 23821, Note_off_c, 0, 75, 60
1, 23830, Control_c, 0, 64, 85
1, 23845, Control_c, 0, 64, 96
1, 23860, Control_c, 0, 64, 111
1, 23874, Control_c, 0, 64, 127
1, 23883, Note_off_c, 0, 66, 35
1, 23929, Note_off_c, 0, 63, 40
1, 24006, Note_on_c, 0, 85, 33
1, 24035, Note_off_c, 0, 78, 43
1, 24106, Note_off_c, 0, 85, 44
1, 24170, Control_c, 0, 64, 92
1, 24184, Control_c, 0, 64, 71
1, 24199, Control_c, 0, 64, 0
1, 24228, Control_c, 0, 64, 62
1, 24238, Note_on_c, 0, 49, 53
1, 24243, Control_c, 0, 64, 72
1, 24251, Note_on_c, 0, 56, 45
1, 24258, Control_c, 0, 64, 87
1, 24258, Control_c, 0, 67, 118
1, 24274, Note_off_c, 0, 49, 64
1, 24274, Control_c, 0, 64, 110
1, 24274, Control_c, 0, 67, 97
1, 24282, Note_off_c, 0, 56, 64
1, 24289, Control_c, 0, 64, 127
1, 24289, Control_c, 0, 67, 73
1, 24304, Control_c, 0, 67, 50
1, 24319, Control_c, 0, 67, 31
1, 24333, Control_c, 0, 67, 18
1, 24348, Control_c, 0, 67, 9
1, 24363, Note_on_c, 0, 73, 53
1, 24363, Control_c, 0, 67, 0
1, 24370, Note_on_c, 0, 80, 55
1, 24387, Note_off_c, 0, 73, 59
1, 24402, Note_off_c, 0, 80, 64
1, 24503, Note_on_c, 0, 92, 68
1, 24508, Note_on_c, 0, 68, 54
1, 24509, Note_on_c, 0, 61, 48
1, 24511, Note_on_c, 0, 85, 70
1, 24518, Note_off_c, 0, 92, 69
1, 24532, Note_off_c, 0, 68, 57
1, 24533, Note_off_c, 0, 85, 69
1, 24535, Note_off_c, 0, 61, 59
1, 24639, Note_on_c, 0, 73, 76
1, 24650, Note_on_c, 0, 80, 61
1, 24657, Note_off_c, 0, 73, 67
1, 24670, Note_off_c, 0, 80, 65
1, 24778, Note_on_c, 0, 61, 61
1, 24779, Note_on_c, 0, 68, 59
1, 24806, Note_off_c, 0, 68, 65
1, 24809, Note_off_c, 0, 61, 64
1, 24843, Note_on_c, 0, 85, 72
1, 24903, Note_off_c, 0, 85, 65
1, 24910, Note_on_c, 0, 92, 73
1, 24950, Note_on_c, 0, 97, 80
1, 24965, Note_off_c, 0, 92, 66
1, 25016, Note_on_c, 0, 104, 88
1, 25016, Note_off_c, 0, 97, 65
1, 25019, Note_on_c, 0, 80, 67
1, 25029, Note_on_c, 0, 73, 63
1, 25056, Note_off_c, 0, 104, 63
1, 25079, Note_on_c, 0, 97, 76
1, 25086, Note_on_c, 0, 102, 37
1, 25089, Note_off_c, 0, 80, 56
1, 25117, Note_off_c, 0, 102, 53
1, 25120, Note_on_c, 0, 92, 72
1, 25128, Note_off_c, 0, 73, 56
1, 25141, Control_c, 0, 67, 15
1, 25149, Note_off_c, 0, 97, 65
1, 25156, Control_c, 0, 67, 37
1, 25171, Control_c, 0, 67, 68
1, 25183, Note_on_c, 0, 85, 72
1, 25186, Control_c, 0, 67, 100
1, 25192, Note_off_c, 0, 92, 65
1, 25201, Control_c, 0, 67, 120
1, 25216, Control_c, 0, 67, 127
1, 25226, Note_off_c, 0, 85, 61
1, 25311, Control_c, 0, 64, 122
1, 25326, Control_c, 0, 64, 107
1, 25341, Control_c, 0, 64, 98
1, 25356, Control_c, 0, 64, 90
1, 25371, Control_c, 0, 64, 81
1, 25386, Control_c, 0, 64, 71
1, 25401, Control_c, 0, 64, 61
1, 25416, Control_c, 0, 64, 0
1, 25424, Note_on_c, 0, 74, 38
1, 25428, Note_on_c, 0, 69, 30
1, 25504, Control_c, 0, 64, 36
1, 25519, Control_c, 0, 64, 57
1, 25534, Control_c, 0, 64, 65
1, 25535, Note_on_c, 0, 78, 49
1, 25544, Note_off_c, 0, 74, 63
1, 25549, Control_c, 0, 64, 70
1, 25563, Control_c, 0, 64, 77
1, 25578, Control_c, 0, 64, 83
1, 25593, Control_c, 0, 64, 90
1, 25608, Control_c, 0, 64, 96
1, 25622, Control_c, 0, 64, 101
1, 25637, Control_c, 0, 64, 107
1, 25642, Note_on_c, 0, 80, 40
1, 25646, Note_off_c, 0, 78, 36
1, 25652, Control_c, 0, 64, 119
1, 25667, Control_c, 0, 64, 127
1, 25711, Note_off_c, 0, 69, 42
1, 25719, Note_on_c, 0, 74, 42
1, 25720, Note_on_c, 0, 81, 43
1, 25746, Note_on_c, 0, 85, 52
1, 25757, Note_off_c, 0, 80, 45
1, 25764, Note_off_c, 0, 74, 63
1, 25797, Note_off_c, 0, 81, 53
1, 25815, Note_off_c, 0, 85, 57
1, 25834, Note_on_c, 0, 90, 66
1, 25914, Note_off_c, 0, 90, 61
1, 25922, Note_on_c, 0, 85, 64
1, 25985, Note_off_c, 0, 85, 62
1, 25988, Note_on_c, 0, 80, 69
1, 25993, Note_on_c, 0, 81, 51
1, 26018, Note_on_c, 0, 74, 43
1, 26024, Note_off_c, 0, 80, 56
1, 26056, Note_on_c, 0, 85, 58
1, 26091, Note_off_c, 0, 85, 64
1, 26121, Note_on_c, 0, 80, 67
1, 26144, Note_off_c, 0, 80, 69
1, 26152, Note_off_c, 0, 81, 55
1, 26158, Note_on_c, 0, 85, 77
1, 26177, Note_off_c, 0, 85, 72
1, 26191, Note_off_c, 0, 74, 60
1, 26244, Note_on_c, 0, 90, 85
1, 26252, Note_on_c, 0, 78, 67
1, 26276, Note_off_c, 0, 90, 61
1, 26281, Note_off_c, 0, 78, 63
1, 26312, Note_on_c, 0, 97, 36
1, 26335, Note_on_c, 0, 90, 68
1, 26346, Note_off_c, 0, 97, 0
1, 26361, Note_on_c, 0, 97, 69
1, 26380, Note_off_c, 0, 90, 65
1, 26389, Note_off_c, 0, 97, 67
1, 26490, Control_c, 0, 64, 113
1, 26504, Control_c, 0, 64, 85
1, 26516, Note_on_c, 0, 61, 56
1, 26519, Note_on_c, 0, 68, 52
1, 26519, Control_c, 0, 64, 59
1, 26534, Control_c, 0, 64, 0
1, 26564, Control_c, 0, 64, 36
1, 26578, Control_c, 0, 64, 65
1, 26593, Control_c, 0, 64, 75
1, 26608, Control_c, 0, 64, 89
1, 26623, Control_c, 0, 64, 104
1, 26629, Note_on_c, 0, 73, 68
1, 26635, Note_off_c, 0, 68, 50
1, 26638, Control_c, 0, 64, 121
1, 26641, Note_on_c, 0, 80, 61
1, 26644, Note_off_c, 0, 61, 53
1, 26648, Note_off_c, 0, 73, 67
1, 26653, Control_c, 0, 64, 127
1, 26671, Note_off_c, 0, 80, 66
1, 26748, Note_on_c, 0, 73, 58
1, 26757, Control_c, 0, 67, 123
1, 26762, Note_on_c, 0, 85, 80
1, 26762, Note_on_c, 0, 92, 73
1, 26769, Note_on_c, 0, 68, 45
1, 26772, Control_c, 0, 67, 93
1, 26777, Note_off_c, 0, 92, 71
1, 26778, Note_off_c, 0, 73, 67
1, 26784, Note_off_c, 0, 85, 68
1, 26787, Control_c, 0, 67, 58
1, 26799, Note_off_c, 0, 68, 60
1, 26809, Control_c, 0, 67, 28
1, 26824, Control_c, 0, 67, 9
1, 26839, Control_c, 0, 67, 0
1, 26892, Note_on_c, 0, 80, 70
1, 26894, Note_on_c, 0, 73, 76
1, 26915, Note_off_c, 0, 80, 67
1, 26920, Note_off_c, 0, 73, 65
1, 26927, Control_c, 0, 67, 8
1, 26942, Control_c, 0, 67, 9
1, 26957, Control_c, 0, 64, 109
1, 26957, Control_c, 0, 67, 10
1, 26972, Control_c, 0, 64, 88
1, 26972, Control_c, 0, 67, 11
1, 26987, Control_c, 0, 64, 67
1, 26987, Control_c, 0, 67, 11
1, 27001, Control_c, 0, 64, 0
1, 27001, Control_c, 0, 67, 12
1, 27010, Note_on_c, 0, 80, 84
1, 27010, Note_on_c, 0, 73, 67
1, 27031, Control_c, 0, 64, 19
1, 27046, Control_c, 0, 64, 63
1, 27061, Control_c, 0, 64, 72
1, 27073, Note_on_c, 0, 74, 73
1, 27076, Control_c, 0, 64, 85
1, 27077, Note_off_c, 0, 80, 54
1, 27091, Control_c, 0, 64, 110
1, 27106, Control_c, 0, 64, 127
1, 27112, Note_off_c, 0, 74, 65
1, 27133, Note_on_c, 0, 81, 67
1, 27135, Control_c, 0, 67, 11
1, 27165, Note_off_c, 0, 73, 56
1, 27165, Control_c, 0, 67, 10
1, 27171, Note_on_c, 0, 86, 71
1, 27179, Note_off_c, 0, 81, 61
1, 27180, Control_c, 0, 67, 8
1, 27194, Control_c, 0, 67, 0
1, 27231, Note_off_c, 0, 86, 60
1, 27232, Note_on_c, 0, 78, 53
1, 27241, Note_on_c, 0, 71, 55
1, 27241, Note_on_c, 0, 93, 90
1, 27253, Note_off_c, 0, 78, 61
1, 27261, Note_off_c, 0, 71, 64
1, 27269, Note_off_c, 0, 93, 51
1, 27303, Note_on_c, 0, 86, 69
1, 27325, Note_on_c, 0, 81, 75
1, 27331, Note_off_c, 0, 86, 60
1, 27348, Note_off_c, 0, 81, 66
1, 27392, Note_on_c, 0, 76, 59
1, 27420, Note_off_c, 0, 76, 64
1, 27446, Control_c, 0, 64, 108
1, 27460, Control_c, 0, 64, 77
1, 27476, Note_on_c, 0, 61, 73
1, 27476, Control_c, 0, 64, 34
1, 27481, Note_on_c, 0, 68, 73
1, 27491, Control_c, 0, 64, 0
1, 27521, Control_c, 0, 64, 55
1, 27536, Control_c, 0, 64, 69
1, 27558, Control_c, 0, 64, 81
1, 27573, Control_c, 0, 64, 101
1, 27588, Control_c, 0, 64, 127
1, 27613, Note_on_c, 0, 80, 64
1, 27618, Note_on_c, 0, 85, 72
1, 27626, Note_off_c, 0, 68, 55
1, 27642, Note_off_c, 0, 85, 67
1, 27645, Note_off_c, 0, 80, 63
1, 27669, Note_off_c, 0, 61, 55
1, 27724, Note_on_c, 0, 92, 90
1, 27725, Note_on_c, 0, 73, 78
1, 27725, Note_on_c, 0, 97, 79
1, 27732, Note_on_c, 0, 68, 60
1, 27747, Note_off_c, 0, 97, 70
1, 27747, Note_off_c, 0, 73, 69
1, 27749, Note_off_c, 0, 68, 66
1, 27770, Note_off_c, 0, 92, 66
1, 27850, Note_on_c, 0, 85, 77
1, 27851, Note_on_c, 0, 80, 76
1, 27875, Note_off_c, 0, 85, 65
1, 27896, Note_off_c, 0, 80, 59
1, 27928, Control_c, 0, 64, 115
1, 27943, Control_c, 0, 64, 77
1, 27958, Control_c, 0, 64, 52
1, 27965, Note_on_c, 0, 85, 96
1, 27969, Note_on_c, 0, 80, 85
1, 27973, Control_c, 0, 64, 55
1, 27988, Control_c, 0, 64, 67
1, 28003, Control_c, 0, 64, 78
1, 28017, Control_c, 0, 64, 100
1, 28020, Note_on_c, 0, 81, 78
1, 28032, Control_c, 0, 64, 127
1, 28040, Note_off_c, 0, 85, 59
1, 28073, Note_off_c, 0, 80, 47
1, 28074, Note_off_c, 0, 81, 63
1, 28077, Note_on_c, 0, 86, 75
1, 28112, Note_off_c, 0, 86, 62
1, 28119, Note_on_c, 0, 93, 74
1, 28174, Note_off_c, 0, 93, 62
1, 28181, Note_on_c, 0, 98, 91
1, 28187, Note_on_c, 0, 83, 72
1, 28209, Note_off_c, 0, 83, 69
1, 28224, Note_off_c, 0, 98, 66
1, 28238, Note_on_c, 0, 95, 62
1, 28245, Note_on_c, 0, 93, 76
1, 28257, Note_off_c, 0, 95, 66
1, 28259, Poly_aftertouch_c, 0, 79, 127
1, 28294, Note_on_c, 0, 86, 66
1, 28296, Poly_aftertouch_c, 0, 79, 0
1, 28319, Note_off_c, 0, 86, 68
1, 28345, Note_on_c, 0, 81, 76
1, 28362, Note_off_c, 0, 81, 66
1, 28364, Note_off_c, 0, 93, 35
1, 28411, Control_c, 0, 64, 87
1, 28421, Note_on_c, 0, 80, 90
1, 28426, Note_on_c, 0, 73, 83
1, 28426, Control_c, 0, 64, 0
1, 28455, Control_c, 0, 64, 47
1, 28470, Control_c, 0, 64, 69
1, 28485, Control_c, 0, 64, 88
1, 28499, Control_c, 0, 64, 127
1, 28531, Note_on_c, 0, 85, 81
1, 28534, Note_on_c, 0, 92, 76
1, 28549, Note_off_c, 0, 80, 59
1, 28553, Note_off_c, 0, 85, 69
1, 28582, Note_off_c, 0, 92, 64
1, 28590, Note_off_c, 0, 73, 60
1, 28657, Note_on_c, 0, 85, 75
1, 28662, Note_on_c, 0, 80, 65
1, 28662, Note_on_c, 0, 104, 80
1, 28664, Note_on_c, 0, 97, 95
1, 28671, Note_off_c, 0, 85, 71
1, 28677, Note_off_c, 0, 104, 70
1, 28679, Note_off_c, 0, 80, 66
1, 28689, Note_off_c, 0, 97, 65
1, 28769, Note_on_c, 0, 85, 84
1, 28775, Note_on_c, 0, 92, 78
1, 28806, Note_off_c, 0, 92, 62
1, 28813, Note_off_c, 0, 85, 63
1, 28870, Control_c, 0, 64, 87
1, 28885, Control_c, 0, 64, 50
1, 28891, Note_on_c, 0, 92, 110
1, 28894, Note_on_c, 0, 85, 85
1, 28899, Control_c, 0, 64, 0
1, 28914, Control_c, 0, 64, 64
1, 28929, Control_c, 0, 64, 75
1, 28944, Control_c, 0, 64, 98
1, 28946, Note_on_c, 0, 86, 83
1, 28955, Note_off_c, 0, 92, 60
1, 28959, Control_c, 0, 64, 127
1, 28998, Note_off_c, 0, 86, 65
1, 29008, Note_on_c, 0, 93, 74
1, 29051, Note_off_c, 0, 85, 57
1, 29055, Note_on_c, 0, 98, 82
1, 29061, Note_off_c, 0, 93, 64
1, 29101, Note_off_c, 0, 98, 67
1, 29106, Note_on_c, 0, 90, 79
1, 29111, Note_on_c, 0, 83, 72
1, 29115, Note_on_c, 0, 105, 95
1, 29127, Note_off_c, 0, 90, 71
1, 29134, Note_off_c, 0, 83, 69
1, 29160, Note_off_c, 0, 105, 65
1, 29175, Note_on_c, 0, 98, 87
1, 29190, Note_on_c, 0, 100, 34
1, 29214, Note_on_c, 0, 95, 53
1, 29220, Note_off_c, 0, 100, 48
1, 29222, Note_off_c, 0, 98, 67
1, 29222, Note_on_c, 0, 93, 66
1, 29235, Note_off_c, 0, 95, 63
1, 29246, Note_off_c, 0, 93, 57
1, 29267, Note_on_c, 0, 86, 78
1, 29291, Note_off_c, 0, 86, 68
1, 29342, Note_on_c, 0, 85, 81
1, 29347, Note_on_c, 0, 80, 69
1, 29420, Note_on_c, 0, 81, 71
1, 29447, Note_off_c, 0, 81, 65
1, 29470, Note_on_c, 0, 86, 69
1, 29474, Note_off_c, 0, 85, 59
1, 29506, Note_on_c, 0, 93, 74
1, 29507, Note_off_c, 0, 86, 64
1, 29560, Note_on_c, 0, 78, 70
1, 29562, Note_on_c, 0, 98, 95
1, 29565, Note_off_c, 0, 93, 64
1, 29572, Note_on_c, 0, 83, 20
1, 29588, Note_off_c, 0, 78, 65
1, 29589, Note_off_c, 0, 80, 27
1, 29602, Note_off_c, 0, 98, 68
1, 29610, Note_off_c, 0, 83, 47
1, 29616, Note_on_c, 0, 93, 72
1, 29657, Note_on_c, 0, 86, 74
1, 29678, Note_off_c, 0, 93, 58
1, 29689, Note_off_c, 0, 86, 60
1, 29699, Note_on_c, 0, 81, 77
1, 29724, Note_off_c, 0, 81, 62
1, 29795, Note_on_c, 0, 80, 81
1, 29811, Note_on_c, 0, 73, 70
1, 29859, Note_on_c, 0, 74, 75
1, 29883, Note_off_c, 0, 74, 71
1, 29894, Note_off_c, 0, 80, 49
1, 29919, Note_on_c, 0, 81, 72
1, 29964, Note_on_c, 0, 86, 58
1, 29964, Note_off_c, 0, 81, 62
1, 29977, Note_off_c, 0, 73, 56
1, 30015, Note_off_c, 0, 86, 64
1, 30027, Note_on_c, 0, 71, 62
1, 30027, Note_on_c, 0, 93, 82
1, 30043, Note_on_c, 0, 78, 36
1, 30051, Note_off_c, 0, 71, 69
1, 30052, Note_on_c, 0, 91, 49
1, 30054, Note_off_c, 0, 93, 56
1, 30073, Note_off_c, 0, 78, 56
1, 30076, Note_off_c, 0, 91, 67
1, 30079, Note_on_c, 0, 86, 60
1, 30099, Note_off_c, 0, 86, 63
1, 30113, Note_on_c, 0, 81, 66
1, 30128, Note_off_c, 0, 81, 65
1, 30160, Note_on_c, 0, 74, 66
1, 30185, Note_off_c, 0, 74, 70
1, 30253, Note_on_c, 0, 73, 69
1, 30256, Note_on_c, 0, 68, 65
1, 30327, Note_on_c, 0, 69, 69
1, 30376, Note_off_c, 0, 69, 63
1, 30385, Note_off_c, 0, 73, 56
1, 30399, Note_on_c, 0, 74, 65
1, 30426, Note_off_c, 0, 74, 68
1, 30439, Note_off_c, 0, 68, 49
1, 30458, Note_on_c, 0, 81, 45
1, 30481, Note_on_c, 0, 71, 64
1, 30487, Note_off_c, 0, 81, 65
1, 30495, Note_on_c, 0, 66, 71
1, 30495, Note_on_c, 0, 86, 77
1, 30507, Note_off_c, 0, 71, 69
1, 30522, Note_off_c, 0, 66, 67
1, 30531, Note_off_c, 0, 86, 49
1, 30573, Note_on_c, 0, 81, 64
1, 30617, Poly_aftertouch_c, 0, 84, 0
1, 30624, Note_on_c, 0, 74, 50
1, 30626, Note_off_c, 0, 81, 38
1, 30680, Note_on_c, 0, 69, 61
1, 30680, Note_off_c, 0, 74, 58
1, 30732, Note_off_c, 0, 69, 58
1, 30786, Note_on_c, 0, 37, 78
1, 30788, Note_on_c, 0, 44, 78
1, 30806, Control_c, 0, 64, 72
1, 30820, Control_c, 0, 64, 0
1, 30865, Control_c, 0, 64, 61
1, 30880, Control_c, 0, 64, 83
1, 30891, Note_off_c, 0, 37, 64
1, 30894, Control_c, 0, 64, 127
1, 30895, Note_off_c, 0, 44, 64
1, 30917, Note_on_c, 0, 73, 66
1, 30920, Note_on_c, 0, 68, 65
1, 31006, Note_on_c, 0, 80, 61
1, 31042, Note_off_c, 0, 68, 53
1, 31070, Note_off_c, 0, 73, 58
1, 31082, Note_off_c, 0, 80, 56
1, 31101, Note_on_c, 0, 71, 83
1, 31151, Note_off_c, 0, 71, 64
1, 31205, Note_on_c, 0, 68, 58
1, 31207, Note_on_c, 0, 73, 60
1, 31305, Note_on_c, 0, 80, 57
1, 31321, Note_off_c, 0, 68, 49
1, 31336, Note_off_c, 0, 73, 58
1, 31344, Note_off_c, 0, 80, 54
1, 31404, Note_on_c, 0, 68, 88
1, 31444, Note_off_c, 0, 68, 59
1, 31509, Note_on_c, 0, 68, 50
1, 31512, Note_on_c, 0, 73, 64
1, 31591, Note_on_c, 0, 80, 59
1, 31617, Note_off_c, 0, 68, 50
1, 31634, Note_off_c, 0, 73, 60
1, 31634, Note_off_c, 0, 80, 54
1, 31681, Note_on_c, 0, 66, 88
1, 31717, Note_off_c, 0, 66, 59
1, 31777, Note_on_c, 0, 73, 68
1, 31779, Note_on_c, 0, 68, 59
1, 31858, Note_on_c, 0, 80, 61
1, 31866, Note_off_c, 0, 68, 52
1, 31895, Note_off_c, 0, 73, 60
1, 31897, Note_off_c, 0, 80, 55
1, 31960, Note_on_c, 0, 68, 89
1, 31989, Note_off_c, 0, 68, 57
1, 32069, Note_on_c, 0, 73, 66
1, 32072, Note_on_c, 0, 68, 58
1, 32164, Note_on_c, 0, 80, 62
1, 32210, Note_off_c, 0, 73, 60
1, 32215, Note_off_c, 0, 68, 37
1, 32227, Note_off_c, 0, 80, 59
1, 32254, Note_on_c, 0, 71, 87
1, 32300, Note_off_c, 0, 71, 64
1, 32352, Note_on_c, 0, 73, 61
1, 32355, Note_on_c, 0, 68, 51
1, 32448, Note_on_c, 0, 80, 53
1, 32463, Note_off_c, 0, 68, 48
1, 32477, Note_off_c, 0, 73, 58
1, 32484, Note_off_c, 0, 80, 60
1, 32537, Note_on_c, 0, 68, 76
1, 32579, Note_off_c, 0, 68, 59
1, 32639, Note_on_c, 0, 73, 59
1, 32643, Note_on_c, 0, 68, 43
1, 32737, Note_on_c, 0, 80, 49
1, 32747, Control_c, 0, 67, 13
1, 32762, Control_c, 0, 67, 32
1, 32767, Note_off_c, 0, 73, 57
1, 32772, Note_off_c, 0, 68, 37
1, 32777, Control_c, 0, 67, 63
1, 32781, Note_off_c, 0, 80, 50
1, 32799, Control_c, 0, 67, 89
1, 32814, Control_c, 0, 67, 113
1, 32829, Note_on_c, 0, 66, 77
1, 32829, Control_c, 0, 67, 127
1, 32862, Note_off_c, 0, 66, 61
1, 32913, Note_on_c, 0, 68, 46
1, 32921, Note_on_c, 0, 73, 48
1, 32961, Note_off_c, 0, 73, 62
1, 33020, Note_off_c, 0, 68, 58
1, 33063, Poly_aftertouch_c, 0, 80, 0
1, 33102, Note_on_c, 0, 61, 77
1, 33129, Note_off_c, 0, 61, 66
1, 33202, Note_on_c, 0, 61, 64
1, 33227, Note_off_c, 0, 61, 67
1, 33234, Note_on_c, 0, 68, 36
1, 33301, Note_on_c, 0, 73, 73
1, 33307, Note_off_c, 0, 68, 62
1, 33349, Control_c, 0, 64, 121
1, 33363, Control_c, 0, 64, 86
1, 33378, Control_c, 0, 64, 68
1, 33381, Note_off_c, 0, 73, 63
1, 33383, Note_on_c, 0, 59, 53
1, 33383, Note_on_c, 0, 80, 75
1, 33385, Note_on_c, 0, 64, 52
1, 33393, Control_c, 0, 64, 0
1, 33413, Note_off_c, 0, 80, 61
1, 33422, Control_c, 0, 64, 50
1, 33437, Control_c, 0, 64, 64
1, 33452, Control_c, 0, 64, 71
1, 33453, Note_on_c, 0, 73, 62
1, 33467, Control_c, 0, 64, 81
1, 33482, Control_c, 0, 64, 90
1, 33497, Control_c, 0, 64, 97
1, 33500, Note_on_c, 0, 68, 71
1, 33512, Control_c, 0, 64, 103
1, 33527, Control_c, 0, 64, 109
1, 33527, Note_off_c, 0, 73, 60
1, 33544, Note_off_c, 0, 59, 42
1, 33549, Control_c, 0, 64, 116
1, 33554, Note_off_c, 0, 64, 37
1, 33563, Control_c, 0, 64, 127
1, 33587, Note_on_c, 0, 61, 59
1, 33623, Note_off_c, 0, 61, 60
1, 33629, Note_off_c, 0, 68, 38
1, 33637, Control_c, 0, 64, 119
1, 33652, Control_c, 0, 64, 95
1, 33663, Note_on_c, 0, 56, 71
1, 33667, Control_c, 0, 64, 80
1, 33670, Note_on_c, 0, 64, 61
1, 33682, Control_c, 0, 64, 68
1, 33697, Control_c, 0, 64, 55
1, 33711, Control_c, 0, 64, 60
1, 33726, Control_c, 0, 64, 65
1, 33741, Control_c, 0, 64, 70
1, 33742, Note_on_c, 0, 61, 44
1, 33756, Control_c, 0, 64, 76
1, 33771, Control_c, 0, 64, 83
1, 33776, Note_off_c, 0, 61, 63
1, 33786, Control_c, 0, 64, 90
1, 33790, Note_on_c, 0, 68, 47
1, 33801, Control_c, 0, 64, 95
1, 33815, Control_c, 0, 64, 100
1, 33830, Control_c, 0, 64, 104
1, 33845, Control_c, 0, 64, 109
1, 33852, Note_off_c, 0, 64, 38
1, 33854, Note_off_c, 0, 68, 60
1, 33857, Note_off_c, 0, 56, 56
1, 33860, Control_c, 0, 64, 113
1, 33863, Note_on_c, 0, 73, 62
1, 33875, Control_c, 0, 64, 115
1, 33890, Control_c, 0, 64, 115
1, 33905, Control_c, 0, 64, 108
1, 33920, Control_c, 0, 64, 97
1, 33935, Control_c, 0, 64, 82
1, 33950, Note_off_c, 0, 73, 64
1, 33950, Control_c, 0, 64, 70
1, 33953, Note_on_c, 0, 80, 69
1, 33957, Note_on_c, 0, 54, 68
1, 33964, Note_on_c, 0, 64, 59
1, 33965, Control_c, 0, 64, 61
1, 33977, Note_off_c, 0, 80, 67
1, 33994, Control_c, 0, 64, 65
1, 34009, Control_c, 0, 64, 69
1, 34015, Note_on_c, 0, 73, 60
1, 34024, Control_c, 0, 64, 76
1, 34038, Control_c, 0, 64, 82
1, 34053, Control_c, 0, 64, 88
1, 34068, Control_c, 0, 64, 92
1, 34075, Note_on_c, 0, 68, 64
1, 34083, Control_c, 0, 64, 94
1, 34091, Note_off_c, 0, 73, 61
1, 34098, Control_c, 0, 64, 95
1, 34112, Control_c, 0, 64, 96
1, 34123, Note_off_c, 0, 64, 38
1, 34126, Note_off_c, 0, 54, 58
1, 34127, Control_c, 0, 64, 98
1, 34142, Control_c, 0, 64, 101
1, 34148, Note_on_c, 0, 61, 57
1, 34157, Control_c, 0, 64, 103
1, 34186, Control_c, 0, 64, 100
1, 34187, Note_off_c, 0, 61, 56
1, 34201, Control_c, 0, 64, 92
1, 34202, Note_off_c, 0, 68, 34
1, 34216, Control_c, 0, 64, 80
1, 34230, Control_c, 0, 64, 65
1, 34245, Control_c, 0, 64, 0
1, 34247, Note_on_c, 0, 64, 61
1, 34248, Note_on_c, 0, 56, 67
1, 34275, Control_c, 0, 64, 48
1, 34298, Control_c, 0, 64, 63
1, 34312, Control_c, 0, 64, 68
1, 34313, Note_on_c, 0, 61, 47
1, 34327, Control_c, 0, 64, 74
1, 34342, Control_c, 0, 64, 80
1, 34343, Note_off_c, 0, 61, 62
1, 34357, Control_c, 0, 64, 85
1, 34358, Note_on_c, 0, 68, 42
1, 34371, Control_c, 0, 64, 89
1, 34386, Control_c, 0, 64, 92
1, 34401, Control_c, 0, 64, 95
1, 34410, Note_off_c, 0, 64, 37
1, 34416, Control_c, 0, 64, 98
1, 34418, Note_off_c, 0, 68, 56
1, 34431, Control_c, 0, 64, 102
1, 34432, Note_off_c, 0, 56, 40
1, 34441, Note_on_c, 0, 73, 57
1, 34445, Control_c, 0, 64, 105
1, 34460, Control_c, 0, 64, 105
1, 34475, Control_c, 0, 64, 105
1, 34490, Control_c, 0, 64, 100
1, 34505, Control_c, 0, 64, 90
1, 34519, Control_c, 0, 64, 76
1, 34534, Control_c, 0, 64, 64
1, 34541, Note_off_c, 0, 73, 62
1, 34549, Note_on_c, 0, 59, 62
1, 34549, Note_on_c, 0, 80, 50
1, 34549, Control_c, 0, 64, 19
1, 34550, Note_on_c, 0, 64, 54
1, 34564, Control_c, 0, 64, 33
1, 34570, Note_off_c, 0, 80, 61
1, 34579, Control_c, 0, 64, 58
1, 34594, Control_c, 0, 64, 65
1, 34609, Control_c, 0, 64, 70
1, 34624, Control_c, 0, 64, 75
1, 34636, Note_on_c, 0, 73, 37
1, 34638, Control_c, 0, 64, 81
1, 34652, Control_c, 0, 64, 87
1, 34668, Control_c, 0, 64, 91
1, 34683, Control_c, 0, 64, 96
1, 34698, Control_c, 0, 64, 102
1, 34700, Note_on_c, 0, 68, 43
1, 34713, Control_c, 0, 64, 108
1, 34715, Note_off_c, 0, 64, 37
1, 34721, Note_off_c, 0, 59, 38
1, 34728, Control_c, 0, 64, 119
1, 34742, Control_c, 0, 64, 127
1, 34756, Note_on_c, 0, 61, 57
1, 34758, Note_off_c, 0, 73, 32
1, 34801, Note_off_c, 0, 61, 57
1, 34802, Control_c, 0, 64, 99
1, 34805, Note_off_c, 0, 68, 48
1, 34816, Control_c, 0, 64, 83
1, 34831, Control_c, 0, 64, 69
1, 34841, Note_on_c, 0, 56, 58
1, 34843, Note_on_c, 0, 64, 51
1, 34846, Control_c, 0, 64, 56
1, 34860, Control_c, 0, 64, 57
1, 34875, Control_c, 0, 64, 65
1, 34890, Control_c, 0, 64, 70
1, 34905, Control_c, 0, 64, 74
1, 34913, Note_on_c, 0, 61, 44
1, 34920, Control_c, 0, 64, 80
1, 34934, Control_c, 0, 64, 86
1, 34942, Note_off_c, 0, 61, 56
1, 34943, Note_on_c, 0, 68, 45
1, 34949, Control_c, 0, 64, 90
1, 34964, Control_c, 0, 64, 92
1, 34979, Control_c, 0, 64, 93
1, 34993, Note_off_c, 0, 64, 32
1, 35008, Note_off_c, 0, 56, 37
1, 35008, Control_c, 0, 64, 94
1, 35012, Note_off_c, 0, 68, 59
1, 35022, Note_on_c, 0, 73, 56
1, 35023, Control_c, 0, 64, 95
1, 35046, Control_c, 0, 64, 95
1, 35061, Control_c, 0, 64, 96
1, 35112, Note_off_c, 0, 73, 57
1, 35126, Note_on_c, 0, 64, 46
1, 35129, Note_on_c, 0, 54, 58
1, 35131, Note_on_c, 0, 80, 59
1, 35151, Note_off_c, 0, 64, 59
1, 35153, Note_off_c, 0, 80, 58
1, 35170, Note_off_c, 0, 54, 64
1, 35192, Note_on_c, 0, 73, 45
1, 35238, Control_c, 0, 64, 95
1, 35243, Note_off_c, 0, 73, 51
1, 35258, Note_on_c, 0, 68, 46
1, 35282, Note_off_c, 0, 68, 59
1, 35315, Note_on_c, 0, 61, 42
1, 35342, Note_off_c, 0, 61, 56
1, 35357, Control_c, 0, 64, 92
1, 35372, Control_c, 0, 64, 85
1, 35386, Control_c, 0, 64, 75
1, 35389, Note_on_c, 0, 49, 69
1, 35401, Control_c, 0, 64, 65
1, 35414, Note_off_c, 0, 49, 64
1, 35416, Control_c, 0, 64, 49
1, 35431, Control_c, 0, 64, 58
1, 35446, Control_c, 0, 64, 65
1, 35461, Control_c, 0, 64, 71
1, 35461, Control_c, 0, 67, 122
1, 35476, Control_c, 0, 64, 78
1, 35476, Control_c, 0, 67, 106
1, 35482, Note_on_c, 0, 49, 62
1, 35491, Control_c, 0, 64, 86
1, 35491, Control_c, 0, 67, 86
1, 35506, Control_c, 0, 64, 93
1, 35506, Control_c, 0, 67, 64
1, 35512, Note_off_c, 0, 49, 65
1, 35521, Control_c, 0, 64, 98
1, 35521, Control_c, 0, 67, 45
1, 35536, Control_c, 0, 64, 101
1, 35536, Control_c, 0, 67, 30
1, 35542, Note_on_c, 0, 56, 58
1, 35551, Control_c, 0, 64, 105
1, 35551, Control_c, 0, 67, 20
1, 35565, Control_c, 0, 64, 112
1, 35565, Control_c, 0, 67, 10
1, 35580, Control_c, 0, 64, 127
1, 35580, Control_c, 0, 67, 0
1, 35593, Note_off_c, 0, 56, 61
1, 35601, Note_on_c, 0, 61, 53
1, 35624, Control_c, 0, 64, 106
1, 35630, Note_off_c, 0, 61, 62
1, 35639, Control_c, 0, 64, 88
1, 35654, Control_c, 0, 64, 68
1, 35664, Note_on_c, 0, 56, 77
1, 35669, Control_c, 0, 64, 21
1, 35683, Control_c, 0, 64, 0
1, 35697, Note_off_c, 0, 56, 0
1, 35698, Control_c, 0, 64, 54
1, 35713, Control_c, 0, 64, 66
1, 35728, Control_c, 0, 64, 74
1, 35735, Poly_aftertouch_c, 0, 56, 127
1, 35743, Control_c, 0, 64, 83
1, 35750, Poly_aftertouch_c, 0, 56, 0
1, 35757, Control_c, 0, 64, 89
1, 35772, Control_c, 0, 64, 92
1, 35795, Control_c, 0, 64, 94
1, 35800, Note_on_c, 0, 61, 67
1, 35810, Control_c, 0, 64, 99
1, 35824, Control_c, 0, 64, 114
1, 35839, Control_c, 0, 64, 127
1, 35846, Note_off_c, 0, 61, 59
1, 35861, Note_on_c, 0, 68, 64
1, 35889, Note_off_c, 0, 68, 67
1, 35913, Control_c, 0, 64, 99
1, 35928, Control_c, 0, 64, 86
1, 35932, Note_on_c, 0, 61, 86
1, 35943, Control_c, 0, 64, 83
1, 35954, Note_off_c, 0, 61, 65
1, 35958, Control_c, 0, 64, 86
1, 35972, Control_c, 0, 64, 92
1, 35987, Control_c, 0, 64, 101
1, 35989, Poly_aftertouch_c, 0, 61, 0
1, 36002, Control_c, 0, 64, 113
1, 36016, Poly_aftertouch_c, 0, 61, 0
1, 36016, Control_c, 0, 64, 127
1, 36056, Note_on_c, 0, 68, 67
1, 36114, Note_on_c, 0, 73, 69
1, 36116, Note_off_c, 0, 68, 61
1, 36142, Note_off_c, 0, 73, 68
1, 36180, Note_on_c, 0, 68, 94
1, 36198, Note_off_c, 0, 68, 70
1, 36245, Note_on_c, 0, 68, 64
1, 36278, Note_off_c, 0, 68, 64
1, 36307, Note_on_c, 0, 73, 76
1, 36377, Note_off_c, 0, 73, 63
1, 36382, Note_on_c, 0, 80, 69
1, 36403, Control_c, 0, 64, 99
1, 36404, Note_off_c, 0, 80, 69
1, 36418, Control_c, 0, 64, 72
1, 36432, Control_c, 0, 64, 14
1, 36441, Note_on_c, 0, 73, 98
1, 36447, Control_c, 0, 64, 38
1, 36458, Note_off_c, 0, 73, 70
1, 36462, Control_c, 0, 64, 65
1, 36477, Control_c, 0, 64, 74
1, 36492, Control_c, 0, 64, 86
1, 36506, Control_c, 0, 64, 127
1, 36508, Note_on_c, 0, 73, 78
1, 36576, Note_off_c, 0, 73, 60
1, 36591, Note_on_c, 0, 80, 70
1, 36651, Note_off_c, 0, 80, 64
1, 36654, Note_on_c, 0, 85, 71
1, 36691, Note_off_c, 0, 85, 61
1, 36719, Note_on_c, 0, 73, 94
1, 36738, Note_off_c, 0, 73, 73
1, 36796, Note_on_c, 0, 73, 79
1, 36855, Note_off_c, 0, 73, 62
1, 36864, Note_on_c, 0, 80, 65
1, 36916, Note_off_c, 0, 80, 63
1, 36924, Note_on_c, 0, 85, 61
1, 36943, Control_c, 0, 64, 100
1, 36953, Note_off_c, 0, 85, 67
1, 36957, Control_c, 0, 64, 77
1, 36972, Control_c, 0, 64, 68
1, 36981, Note_on_c, 0, 73, 88
1, 36987, Control_c, 0, 64, 72
1, 37002, Note_off_c, 0, 73, 70
1, 37002, Control_c, 0, 64, 80
1, 37017, Control_c, 0, 64, 92
1, 37031, Control_c, 0, 64, 110
1, 37046, Control_c, 0, 64, 127
1, 37053, Note_on_c, 0, 73, 78
1, 37109, Note_off_c, 0, 73, 62
1, 37119, Note_on_c, 0, 80, 63
1, 37184, Note_off_c, 0, 80, 62
1, 37185, Note_on_c, 0, 85, 65
1, 37217, Note_off_c, 0, 85, 64
1, 37240, Control_c, 0, 67, 18
1, 37253, Note_on_c, 0, 73, 81
1, 37254, Control_c, 0, 67, 39
1, 37269, Control_c, 0, 67, 66
1, 37283, Note_off_c, 0, 73, 70
1, 37291, Control_c, 0, 67, 86
1, 37306, Control_c, 0, 67, 103
1, 37321, Control_c, 0, 67, 118
1, 37333, Note_on_c, 0, 73, 73
1, 37336, Control_c, 0, 67, 127
1, 37373, Note_off_c, 0, 73, 55
1, 37393, Note_on_c, 0, 80, 65
1, 37462, Note_off_c, 0, 80, 61
1, 37467, Note_on_c, 0, 85, 63
1, 37500, Note_off_c, 0, 85, 65
1, 37525, Note_on_c, 0, 73, 78
1, 37545, Note_off_c, 0, 73, 72
1, 37595, Note_on_c, 0, 73, 74
1, 37647, Note_off_c, 0, 73, 61
1, 37660, Note_on_c, 0, 80, 63
1, 37728, Note_off_c, 0, 80, 62
1, 37736, Note_on_c, 0, 85, 64
1, 37770, Note_off_c, 0, 85, 61
1, 37797, Note_on_c, 0, 73, 72
1, 37819, Note_off_c, 0, 73, 66
1, 37878, Note_on_c, 0, 73, 65
1, 37909, Note_off_c, 0, 73, 66
1, 37929, Note_on_c, 0, 80, 60
1, 38004, Note_off_c, 0, 80, 60
1, 38019, Note_on_c, 0, 85, 57
1, 38061, Note_off_c, 0, 85, 64
1, 38100, Note_on_c, 0, 73, 59
1, 38120, Note_off_c, 0, 73, 0
1, 38151, Note_on_c, 0, 73, 46
1, 38198, Note_off_c, 0, 73, 58
1, 38241, Note_on_c, 0, 80, 49
1, 38319, Note_off_c, 0, 80, 56
1, 38331, Note_on_c, 0, 85, 50
1, 38372, Note_off_c, 0, 85, 58
1, 38419, Note_on_c, 0, 73, 50
1, 38442, Note_off_c, 0, 73, 60
1, 38509, Note_on_c, 0, 73, 49
1, 38552, Note_off_c, 0, 73, 48
1, 38594, Note_on_c, 0, 80, 40
1, 38740, Note_on_c, 0, 85, 46
1, 38761, Note_off_c, 0, 80, 43
1, 38824, Note_off_c, 0, 85, 59
1, 38978, Note_on_c, 0, 59, 31
1, 39026, Control_c, 0, 64, 102
1, 39035, Note_on_c, 0, 61, 46
1, 39041, Control_c, 0, 64, 83
1, 39056, Control_c, 0, 64, 67
1, 39071, Control_c, 0, 64, 38
1, 39086, Control_c, 0, 64, 62
1, 39100, Control_c, 0, 64, 72
1, 39101, Note_on_c, 0, 64, 32
1, 39115, Control_c, 0, 64, 90
1, 39125, Note_on_c, 0, 66, 52
1, 39125, Note_off_c, 0, 59, 55
1, 39130, Control_c, 0, 64, 127
1, 39159, Note_off_c, 0, 64, 62
1, 39161, Note_off_c, 0, 61, 48
1, 39164, Note_off_c, 0, 66, 62
1, 39193, Note_on_c, 0, 71, 33
1, 39197, Note_on_c, 0, 69, 38
1, 39236, Note_on_c, 0, 76, 41
1, 39253, Note_on_c, 0, 78, 50
1, 39324, Note_off_c, 0, 76, 57
1, 39324, Note_on_c, 0, 83, 49
1, 39325, Note_off_c, 0, 78, 54
1, 39339, Note_on_c, 0, 81, 36
1, 39346, Note_off_c, 0, 69, 31
1, 39386, Note_off_c, 0, 71, 46
1, 39399, Note_on_c, 0, 85, 53
1, 39399, Note_off_c, 0, 83, 0
1, 39402, Note_off_c, 0, 81, 0
1, 39420, Note_on_c, 0, 81, 29
1, 39426, Note_on_c, 0, 73, 34
1, 39436, Poly_aftertouch_c, 0, 83, 127
1, 39465, Note_off_c, 0, 85, 0
1, 39465, Note_on_c, 0, 85, 10
1, 39512, Note_on_c, 0, 78, 17
1, 39532, Note_on_c, 0, 76, 17
1, 39539, Poly_aftertouch_c, 0, 83, 0
1, 39551, Note_off_c, 0, 81, 33
1, 39560, Note_off_c, 0, 73, 41
1, 39584, Note_off_c, 0, 78, 40
1, 39589, Note_off_c, 0, 85, 40
1, 39612, Note_on_c, 0, 71, 39
1, 39617, Note_on_c, 0, 69, 45
1, 39651, Note_off_c, 0, 69, 49
1, 39655, Note_off_c, 0, 71, 49
1, 39673, Note_off_c, 0, 76, 39
1, 39721, Note_on_c, 0, 87, 59
1, 39739, Note_on_c, 0, 75, 45
1, 39778, Note_on_c, 0, 71, 24
1, 39782, Note_on_c, 0, 69, 30
1, 39822, Note_on_c, 0, 76, 32
1, 39830, Note_on_c, 0, 78, 21
1, 39854, Note_off_c, 0, 87, 57
1, 39855, Note_off_c, 0, 69, 36
1, 39910, Note_off_c, 0, 75, 62
1, 39924, Note_on_c, 0, 83, 40
1, 39926, Note_on_c, 0, 81, 45
1, 39936, Note_off_c, 0, 71, 23
1, 39955, Note_off_c, 0, 81, 56
1, 39960, Note_off_c, 0, 83, 49
1, 39961, Note_off_c, 0, 76, 42
1, 39970, Note_off_c, 0, 78, 44
1, 40031, Note_on_c, 0, 85, 57
1, 40034, Note_on_c, 0, 73, 57
1, 40060, Note_on_c, 0, 81, 47
1, 40079, Note_off_c, 0, 73, 56
1, 40102, Poly_aftertouch_c, 0, 83, 127
1, 40114, Note_off_c, 0, 85, 58
1, 40137, Note_on_c, 0, 78, 33
1, 40138, Note_off_c, 0, 81, 32
1, 40154, Note_on_c, 0, 76, 33
1, 40155, Poly_aftertouch_c, 0, 83, 0
1, 40235, Note_on_c, 0, 69, 40
1, 40236, Note_on_c, 0, 71, 35
1, 40269, Note_off_c, 0, 69, 52
1, 40269, Note_off_c, 0, 71, 53
1, 40295, Note_off_c, 0, 78, 39
1, 40301, Note_off_c, 0, 76, 39
1, 40319, Poly_aftertouch_c, 0, 83, 0
1, 40344, Note_on_c, 0, 90, 64
1, 40349, Note_on_c, 0, 78, 50
1, 40375, Note_off_c, 0, 90, 64
1, 40380, Note_on_c, 0, 71, 30
1, 40384, Note_on_c, 0, 69, 30
1, 40423, Note_off_c, 0, 69, 50
1, 40429, Note_off_c, 0, 71, 47
1, 40463, Poly_aftertouch_c, 0, 76, 127
1, 40490, Note_on_c, 0, 87, 63
1, 40490, Note_on_c, 0, 75, 64
1, 40508, Note_on_c, 0, 81, 42
1, 40509, Poly_aftertouch_c, 0, 76, 0
1, 40512, Note_off_c, 0, 87, 61
1, 40515, Note_on_c, 0, 83, 24
1, 40520, Note_off_c, 0, 75, 62
1, 40534, Note_off_c, 0, 78, 34
1, 40543, Note_off_c, 0, 81, 51
1, 40550, Note_off_c, 0, 83, 48
1, 40640, Note_on_c, 0, 85, 64
1, 40643, Note_on_c, 0, 81, 53
1, 40650, Note_on_c, 0, 73, 61
1, 40657, Note_on_c, 0, 83, 35
1, 40672, Note_off_c, 0, 85, 60
1, 40761, Note_on_c, 0, 76, 36
1, 40803, Poly_aftertouch_c, 0, 78, 127
1, 40841, Note_off_c, 0, 73, 38
1, 40854, Note_off_c, 0, 83, 0
1, 40886, Poly_aftertouch_c, 0, 71, 127
1, 40890, Poly_aftertouch_c, 0, 78, 0
1, 40890, Poly_aftertouch_c, 0, 83, 127
1, 40892, Note_off_c, 0, 76, 33
1, 40893, Poly_aftertouch_c, 0, 69, 127
1, 40928, Poly_aftertouch_c, 0, 83, 0
1, 40930, Note_off_c, 0, 81, 38
1, 40948, Poly_aftertouch_c, 0, 69, 0
1, 40949, Poly_aftertouch_c, 0, 71, 0
1, 40954, Note_on_c, 0, 80, 57
1, 40962, Note_on_c, 0, 68, 55
1, 40979, Note_on_c, 0, 71, 6
1, 40982, Note_on_c, 0, 69, 5
1, 41012, Note_off_c, 0, 80, 46
1, 41015, Note_on_c, 0, 78, 37
1, 41042, Note_on_c, 0, 76, 30
1, 41044, Note_off_c, 0, 68, 38
1, 41056, Note_off_c, 0, 69, 44
1, 41061, Note_off_c, 0, 71, 44
1, 41155, Note_on_c, 0, 83, 34
1, 41175, Note_on_c, 0, 81, 17
1, 41176, Note_off_c, 0, 76, 41
1, 41179, Note_off_c, 0, 78, 37
1, 41186, Note_off_c, 0, 83, 53
1, 41219, Note_off_c, 0, 81, 41
1, 41265, Note_on_c, 0, 80, 52
1, 41280, Note_on_c, 0, 81, 39
1, 41281, Note_on_c, 0, 68, 46
1, 41315, Note_on_c, 0, 83, 10
1, 41352, Note_off_c, 0, 80, 56
1, 41363, Note_off_c, 0, 68, 60
1, 41378, Poly_aftertouch_c, 0, 78, 127
1, 41382, Note_on_c, 0, 76, 31
1, 41441, Note_off_c, 0, 83, 0
1, 41479, Poly_aftertouch_c, 0, 83, 127
1, 41490, Note_off_c, 0, 76, 28
1, 41520, Poly_aftertouch_c, 0, 78, 0
1, 41558, Note_off_c, 0, 81, 16
1, 41571, Poly_aftertouch_c, 0, 69, 0
1, 41584, Note_on_c, 0, 78, 41
1, 41589, Note_on_c, 0, 66, 56
1, 41595, Note_on_c, 0, 71, 11
1, 41599, Note_on_c, 0, 69, 16
1, 41617, Note_off_c, 0, 66, 65
1, 41618, Poly_aftertouch_c, 0, 83, 0
1, 41636, Note_on_c, 0, 76, 44
1, 41646, Note_off_c, 0, 78, 0
1, 41646, Note_on_c, 0, 78, 20
1, 41701, Note_off_c, 0, 69, 37
1, 41732, Note_off_c, 0, 71, 42
1, 41740, Note_off_c, 0, 76, 35
1, 41789, Note_off_c, 0, 78, 45
1, 41793, Note_on_c, 0, 59, 62
1, 41814, Note_off_c, 0, 59, 63
1, 41877, Note_on_c, 0, 81, 32
1, 41888, Control_c, 0, 64, 99
1, 41889, Note_on_c, 0, 73, 62
1, 41894, Note_on_c, 0, 61, 59
1, 41896, Note_on_c, 0, 83, 14
1, 41903, Control_c, 0, 64, 76
1, 41918, Control_c, 0, 64, 59
1, 41933, Control_c, 0, 64, 56
1, 41948, Control_c, 0, 64, 66
1, 41963, Control_c, 0, 64, 74
1, 41977, Control_c, 0, 64, 88
1, 41992, Control_c, 0, 64, 127
1, 42006, Note_on_c, 0, 78, 28
1, 42020, Note_on_c, 0, 76, 35
1, 42054, Note_off_c, 0, 61, 61
1, 42080, Note_off_c, 0, 73, 60
1, 42083, Note_off_c, 0, 83, 0
1, 42109, Note_on_c, 0, 71, 29
1, 42112, Note_on_c, 0, 69, 31
1, 42120, Poly_aftertouch_c, 0, 83, 127
1, 42142, Note_off_c, 0, 71, 53
1, 42146, Note_off_c, 0, 78, 23
1, 42147, Note_off_c, 0, 69, 53
1, 42156, Note_off_c, 0, 76, 40
1, 42198, Note_on_c, 0, 75, 52
1, 42209, Note_on_c, 0, 63, 52
1, 42229, Poly_aftertouch_c, 0, 83, 0
1, 42237, Note_on_c, 0, 69, 34
1, 42237, Note_on_c, 0, 71, 34
1, 42250, Note_off_c, 0, 81, 39
1, 42294, Note_on_c, 0, 78, 38
1, 42296, Note_on_c, 0, 76, 37
1, 42358, Note_off_c, 0, 75, 38
1, 42386, Note_on_c, 0, 81, 41
1, 42392, Note_off_c, 0, 69, 29
1, 42401, Note_on_c, 0, 83, 18
1, 42410, Note_off_c, 0, 78, 48
1, 42420, Note_off_c, 0, 81, 50
1, 42424, Note_off_c, 0, 71, 36
1, 42427, Note_off_c, 0, 76, 35
1, 42442, Note_off_c, 0, 83, 41
1, 42455, Note_off_c, 0, 63, 38
1, 42503, Note_on_c, 0, 61, 49
1, 42505, Note_on_c, 0, 73, 52
1, 42510, Note_on_c, 0, 81, 55
1, 42534, Note_on_c, 0, 83, 27
1, 42571, Note_off_c, 0, 61, 56
1, 42598, Note_off_c, 0, 73, 59
1, 42632, Note_on_c, 0, 76, 30
1, 42657, Note_on_c, 0, 78, 11
1, 42663, Note_off_c, 0, 83, 0
1, 42700, Poly_aftertouch_c, 0, 83, 127
1, 42706, Note_on_c, 0, 71, 24
1, 42708, Note_on_c, 0, 69, 29
1, 42721, Note_off_c, 0, 78, 44
1, 42742, Note_off_c, 0, 71, 52
1, 42744, Note_off_c, 0, 69, 52
1, 42750, Note_off_c, 0, 76, 39
1, 42762, Note_off_c, 0, 81, 44
1, 42764, Poly_aftertouch_c, 0, 83, 0
1, 42800, Note_on_c, 0, 78, 69
1, 42817, Note_on_c, 0, 66, 49
1, 42841, Note_off_c, 0, 66, 60
1, 42862, Note_on_c, 0, 76, 13
1, 42919, Note_off_c, 0, 76, 45
1, 42946, Note_on_c, 0, 75, 58
1, 42947, Note_on_c, 0, 63, 58
1, 42952, Note_on_c, 0, 81, 48
1, 42963, Note_off_c, 0, 78, 23
1, 42967, Note_on_c, 0, 83, 23
1, 42967, Note_off_c, 0, 75, 61
1, 42973, Note_off_c, 0, 63, 62
1, 42982, Note_off_c, 0, 81, 56
1, 43004, Note_off_c, 0, 83, 43
1, 43079, Note_on_c, 0, 81, 52
1, 43086, Note_on_c, 0, 73, 63
1, 43091, Note_on_c, 0, 61, 63
1, 43101, Note_on_c, 0, 83, 43
1, 43113, Note_off_c, 0, 73, 65
1, 43123, Note_off_c, 0, 61, 62
1, 43159, Note_off_c, 0, 83, 38
1, 43212, Note_on_c, 0, 76, 30
1, 43212, Note_on_c, 0, 78, 13
1, 43284, Note_off_c, 0, 76, 39
1, 43292, Note_off_c, 0, 78, 38
1, 43294, Note_on_c, 0, 71, 32
1, 43297, Note_on_c, 0, 69, 35
1, 43327, Note_off_c, 0, 71, 55
1, 43329, Note_off_c, 0, 69, 53
1, 43393, Note_on_c, 0, 68, 63
1, 43396, Note_on_c, 0, 56, 62
1, 43398, Note_off_c, 0, 81, 35
1, 43412, Note_off_c, 0, 68, 64
1, 43420, Note_off_c, 0, 56, 62
1, 43434, Note_on_c, 0, 71, 33
1, 43435, Note_on_c, 0, 69, 30
1, 43487, Note_on_c, 0, 78, 40
1, 43502, Note_on_c, 0, 76, 33
1, 43543, Note_off_c, 0, 69, 28
1, 43581, Note_off_c, 0, 76, 37
1, 43589, Note_on_c, 0, 81, 39
1, 43595, Note_off_c, 0, 78, 32
1, 43604, Note_off_c, 0, 71, 23
1, 43619, Note_off_c, 0, 81, 54
1, 43713, Note_on_c, 0, 81, 52
1, 43729, Note_on_c, 0, 68, 46
1, 43733, Note_on_c, 0, 56, 44
1, 43736, Note_on_c, 0, 83, 26
1, 43835, Note_on_c, 0, 78, 26
1, 43865, Note_on_c, 0, 76, 33
1, 43898, Note_off_c, 0, 68, 47
1, 43931, Note_off_c, 0, 56, 59
1, 43963, Note_on_c, 0, 71, 30
1, 43967, Note_on_c, 0, 69, 34
1, 44002, Note_off_c, 0, 69, 51
1, 44007, Note_off_c, 0, 71, 49
1, 44035, Note_off_c, 0, 76, 39
1, 44038, Note_off_c, 0, 78, 44
1, 44091, Note_off_c, 0, 81, 35
1, 44100, Note_on_c, 0, 66, 39
1, 44109, Note_on_c, 0, 54, 40
1, 44130, Note_on_c, 0, 71, 31
1, 44133, Note_on_c, 0, 69, 34
1, 44169, Note_off_c, 0, 66, 48
1, 44192, Note_off_c, 0, 83, 42
1, 44263, Note_on_c, 0, 78, 17
1, 44281, Note_off_c, 0, 69, 36
1, 44293, Note_off_c, 0, 54, 38
1, 44321, Note_on_c, 0, 83, 38
1, 44335, Poly_aftertouch_c, 0, 76, 127
1, 44338, Note_off_c, 0, 71, 40
1, 44340, Note_on_c, 0, 81, 46
1, 44404, Poly_aftertouch_c, 0, 76, 0
1, 44440, Note_off_c, 0, 83, 48
1, 44443, Note_off_c, 0, 78, 45
1, 44467, Note_off_c, 0, 81, 60
1, 44585, Note_on_c, 0, 47, 34
1, 44625, Control_c, 0, 64, 102
1, 44639, Control_c, 0, 64, 86
1, 44641, Note_on_c, 0, 85, 52
1, 44654, Control_c, 0, 64, 73
1, 44662, Note_on_c, 0, 73, 36
1, 44663, Note_on_c, 0, 78, 39
1, 44669, Control_c, 0, 64, 61
1, 44684, Control_c, 0, 64, 36
1, 44699, Control_c, 0, 64, 49
1, 44713, Control_c, 0, 64, 62
1, 44728, Control_c, 0, 64, 67
1, 44742, Note_on_c, 0, 49, 53
1, 44743, Control_c, 0, 64, 73
1, 44758, Control_c, 0, 64, 83
1, 44780, Control_c, 0, 64, 103
1, 44794, Control_c, 0, 64, 127
1, 44813, Note_off_c, 0, 73, 53
1, 44825, Note_off_c, 0, 47, 42
1, 44839, Note_on_c, 0, 52, 47
1, 44855, Note_off_c, 0, 49, 62
1, 44869, Note_off_c, 0, 52, 61
1, 44872, Note_off_c, 0, 78, 59
1, 44877, Note_off_c, 0, 85, 62
1, 44898, Note_on_c, 0, 57, 53
1, 44923, Note_off_c, 0, 57, 59
1, 44958, Note_on_c, 0, 87, 81
1, 44973, Note_on_c, 0, 75, 59
1, 44987, Note_on_c, 0, 80, 51
1, 45007, Note_off_c, 0, 75, 60
1, 45014, Note_off_c, 0, 87, 65
1, 45017, Note_off_c, 0, 80, 64
1, 45024, Note_on_c, 0, 59, 53
1, 45075, Note_on_c, 0, 61, 60
1, 45120, Note_off_c, 0, 59, 56
1, 45131, Note_on_c, 0, 64, 53
1, 45176, Note_off_c, 0, 61, 59
1, 45185, Note_on_c, 0, 69, 52
1, 45204, Note_off_c, 0, 64, 61
1, 45246, Note_on_c, 0, 85, 86
1, 45263, Note_on_c, 0, 78, 58
1, 45265, Note_on_c, 0, 73, 54
1, 45272, Note_on_c, 0, 59, 62
1, 45277, Note_off_c, 0, 69, 38
1, 45283, Note_off_c, 0, 78, 65
1, 45287, Note_off_c, 0, 73, 61
1, 45301, Note_off_c, 0, 85, 65
1, 45317, Note_on_c, 0, 61, 54
1, 45390, Note_off_c, 0, 59, 35
1, 45403, Note_off_c, 0, 61, 62
1, 45404, Note_on_c, 0, 64, 42
1, 45436, Note_off_c, 0, 64, 54
1, 45463, Note_on_c, 0, 69, 50
1, 45508, Note_off_c, 0, 69, 55
1, 45539, Note_on_c, 0, 90, 85
1, 45558, Note_on_c, 0, 78, 65
1, 45566, Note_on_c, 0, 76, 45
1, 45575, Note_on_c, 0, 83, 33
1, 45587, Note_off_c, 0, 78, 63
1, 45588, Note_off_c, 0, 90, 66
1, 45593, Note_off_c, 0, 76, 56
1, 45605, Note_off_c, 0, 83, 53
1, 45650, Note_on_c, 0, 69, 52
1, 45682, Note_on_c, 0, 87, 76
1, 45692, Note_off_c, 0, 69, 57
1, 45693, Note_on_c, 0, 75, 67
1, 45704, Note_on_c, 0, 80, 54
1, 45718, Note_off_c, 0, 75, 67
1, 45724, Note_off_c, 0, 80, 63
1, 45726, Note_off_c, 0, 87, 63
1, 45729, Note_on_c, 0, 64, 47
1, 45756, Note_off_c, 0, 64, 60
1, 45770, Note_on_c, 0, 61, 46
1, 45802, Note_off_c, 0, 61, 60
1, 45829, Note_on_c, 0, 85, 77
1, 45838, Note_on_c, 0, 73, 64
1, 45838, Note_on_c, 0, 78, 59
1, 45845, Note_off_c, 0, 85, 69
1, 45853, Note_on_c, 0, 59, 45
1, 45857, Note_off_c, 0, 73, 66
1, 45857, Note_off_c, 0, 78, 65
1, 45908, Note_on_c, 0, 61, 45
1, 45963, Note_on_c, 0, 64, 50
1, 46013, Note_off_c, 0, 59, 39
1, 46015, Note_off_c, 0, 61, 52
1, 46039, Note_on_c, 0, 69, 48
1, 46045, Note_off_c, 0, 64, 34
1, 46117, Note_off_c, 0, 69, 39
1, 46138, Note_on_c, 0, 80, 81
1, 46151, Note_on_c, 0, 73, 62
1, 46160, Note_on_c, 0, 68, 50
1, 46162, Note_on_c, 0, 59, 37
1, 46178, Note_off_c, 0, 73, 65
1, 46184, Note_off_c, 0, 68, 59
1, 46187, Note_off_c, 0, 80, 61
1, 46215, Note_on_c, 0, 61, 50
1, 46272, Note_on_c, 0, 64, 46
1, 46298, Note_off_c, 0, 59, 32
1, 46357, Note_on_c, 0, 69, 36
1, 46380, Note_off_c, 0, 61, 42
1, 46394, Note_off_c, 0, 64, 37
1, 46432, Note_off_c, 0, 69, 52
1, 46470, Note_on_c, 0, 80, 64
1, 46492, Note_on_c, 0, 73, 55
1, 46498, Note_on_c, 0, 68, 40
1, 46533, Note_on_c, 0, 59, 18
1, 46541, Note_on_c, 0, 61, 43
1, 46578, Note_off_c, 0, 80, 53
1, 46622, Note_off_c, 0, 73, 63
1, 46652, Note_on_c, 0, 64, 25
1, 46689, Note_off_c, 0, 68, 52
1, 46714, Note_on_c, 0, 69, 39
1, 46722, Note_off_c, 0, 59, 42
1, 46768, Note_off_c, 0, 61, 42
1, 46774, Note_off_c, 0, 64, 29
1, 46836, Note_off_c, 0, 69, 33
1, 46847, Note_on_c, 0, 78, 54
1, 46859, Note_on_c, 0, 59, 38
1, 46866, Note_on_c, 0, 71, 43
1, 46866, Note_on_c, 0, 66, 37
1, 46924, Note_on_c, 0, 61, 40
1, 46937, Note_off_c, 0, 71, 53
1, 46950, Note_off_c, 0, 78, 63
1, 47015, Note_off_c, 0, 59, 56
1, 47021, Note_on_c, 0, 64, 32
1, 47049, Note_on_c, 0, 69, 50
1, 47054, Note_off_c, 0, 64, 53
1, 47066, Note_off_c, 0, 61, 60
1, 47076, Note_off_c, 0, 66, 41
1, 47084, Note_off_c, 0, 69, 64
1, 47171, Note_on_c, 0, 64, 50
1, 47171, Note_on_c, 0, 69, 55
1, 47172, Note_on_c, 0, 76, 65
1, 47174, Control_c, 0, 64, 94
1, 47178, Note_on_c, 0, 56, 58
1, 47189, Control_c, 0, 64, 78
1, 47204, Control_c, 0, 64, 66
1, 47219, Control_c, 0, 64, 60
1, 47234, Control_c, 0, 64, 64
1, 47248, Control_c, 0, 64, 68
1, 47263, Control_c, 0, 64, 75
1, 47269, Note_off_c, 0, 64, 60
1, 47278, Control_c, 0, 64, 83
1, 47283, Note_on_c, 0, 57, 53
1, 47292, Control_c, 0, 64, 95
1, 47307, Control_c, 0, 64, 110
1, 47312, Note_off_c, 0, 76, 57
1, 47321, Note_on_c, 0, 61, 48
1, 47322, Control_c, 0, 64, 127
1, 47352, Note_off_c, 0, 56, 36
1, 47362, Note_on_c, 0, 64, 55
1, 47374, Note_off_c, 0, 69, 58
1, 47376, Note_off_c, 0, 57, 60
1, 47400, Note_off_c, 0, 61, 61
1, 47451, Note_on_c, 0, 73, 73
1, 47453, Note_on_c, 0, 78, 78
1, 47468, Note_on_c, 0, 54, 65
1, 47468, Note_on_c, 0, 66, 56
1, 47471, Note_off_c, 0, 64, 39
1, 47501, Note_on_c, 0, 69, 37
1, 47513, Note_off_c, 0, 66, 57
1, 47519, Note_off_c, 0, 78, 64
1, 47530, Note_off_c, 0, 69, 56
1, 47534, Note_on_c, 0, 57, 53
1, 47534, Note_off_c, 0, 73, 61
1, 47555, Note_off_c, 0, 54, 59
1, 47581, Note_on_c, 0, 61, 50
1, 47599, Note_on_c, 0, 76, 80
1, 47600, Note_on_c, 0, 69, 72
1, 47604, Note_on_c, 0, 64, 73
1, 47611, Note_off_c, 0, 57, 60
1, 47626, Note_off_c, 0, 61, 57
1, 47648, Note_off_c, 0, 76, 60
1, 47651, Note_off_c, 0, 69, 60
1, 47676, Note_off_c, 0, 64, 60
1, 47723, Control_c, 0, 64, 103
1, 47738, Control_c, 0, 64, 71
1, 47746, Note_on_c, 0, 52, 56
1, 47747, Note_on_c, 0, 73, 76
1, 47753, Control_c, 0, 64, 0
1, 47760, Note_on_c, 0, 61, 68
1, 47772, Note_on_c, 0, 66, 63
1, 47805, Control_c, 0, 64, 63
1, 47820, Control_c, 0, 64, 75
1, 47822, Note_off_c, 0, 61, 60
1, 47823, Note_off_c, 0, 73, 63
1, 47835, Control_c, 0, 64, 109
1, 47850, Control_c, 0, 64, 127
1, 47851, Note_on_c, 0, 54, 57
1, 47862, Note_off_c, 0, 66, 55
1, 47937, Note_on_c, 0, 57, 50
1, 47978, Note_on_c, 0, 61, 60
1, 47983, Control_c, 0, 67, 123
1, 47997, Control_c, 0, 67, 106
1, 48009, Note_off_c, 0, 57, 58
1, 48012, Note_off_c, 0, 54, 54
1, 48012, Note_off_c, 0, 61, 62
1, 48012, Control_c, 0, 67, 79
1, 48027, Control_c, 0, 67, 43
1, 48042, Control_c, 0, 67, 0
1, 48044, Note_on_c, 0, 64, 55
1, 48106, Note_on_c, 0, 61, 57
1, 48116, Note_off_c, 0, 64, 49
1, 48184, Note_on_c, 0, 57, 27
1, 48195, Note_off_c, 0, 52, 10
1, 48226, Note_off_c, 0, 61, 59
1, 48227, Note_off_c, 0, 57, 55
1, 48238, Note_on_c, 0, 54, 49
1, 48290, Note_off_c, 0, 54, 61
1, 48388, Note_on_c, 0, 76, 64
1, 48403, Note_on_c, 0, 64, 49
1, 48410, Note_on_c, 0, 69, 52
1, 48428, Control_c, 0, 64, 114
1, 48436, Note_on_c, 0, 49, 51
1, 48443, Control_c, 0, 64, 88
1, 48458, Control_c, 0, 64, 72
1, 48473, Control_c, 0, 64, 59
1, 48487, Control_c, 0, 64, 55
1, 48489, Note_on_c, 0, 52, 54
1, 48502, Control_c, 0, 64, 65
1, 48524, Control_c, 0, 64, 73
1, 48538, Control_c, 0, 64, 85
1, 48553, Control_c, 0, 64, 117
1, 48560, Note_off_c, 0, 64, 61
1, 48565, Note_on_c, 0, 54, 52
1, 48568, Control_c, 0, 64, 127
1, 48578, Note_off_c, 0, 76, 62
1, 48601, Note_on_c, 0, 57, 54
1, 48613, Note_on_c, 0, 73, 22
1, 48622, Note_off_c, 0, 69, 61
1, 48640, Note_off_c, 0, 54, 60
1, 48646, Note_off_c, 0, 52, 60
1, 48652, Note_off_c, 0, 73, 0
1, 48663, Note_off_c, 0, 57, 59
1, 48665, Note_on_c, 0, 61, 67
1, 48679, Note_on_c, 0, 73, 46
1, 48686, Note_on_c, 0, 78, 76
1, 48696, Note_on_c, 0, 66, 62
1, 48748, Note_off_c, 0, 66, 58
1, 48749, Note_off_c, 0, 61, 60
1, 48750, Note_off_c, 0, 78, 62
1, 48757, Poly_aftertouch_c, 0, 69, 127
1, 48768, Note_off_c, 0, 73, 62
1, 48775, Note_on_c, 0, 54, 54
1, 48815, Note_on_c, 0, 52, 50
1, 48815, Note_on_c, 0, 57, 16
1, 48819, Note_on_c, 0, 69, 40
1, 48825, Note_on_c, 0, 76, 71
1, 48835, Note_on_c, 0, 64, 59
1, 48845, Note_off_c, 0, 54, 63
1, 48849, Note_off_c, 0, 52, 60
1, 48856, Note_off_c, 0, 57, 53
1, 48857, Note_off_c, 0, 49, 59
1, 48857, Note_off_c, 0, 64, 63
1, 48857, Note_off_c, 0, 76, 61
1, 48866, Note_off_c, 0, 69, 64
1, 48938, Control_c, 0, 64, 95
1, 48953, Control_c, 0, 64, 72
1, 48953, Note_on_c, 0, 73, 77
1, 48966, Note_on_c, 0, 47, 58
1, 48968, Note_on_c, 0, 66, 62
1, 48968, Control_c, 0, 64, 61
1, 48974, Note_on_c, 0, 61, 59
1, 48983, Control_c, 0, 64, 66
1, 48998, Control_c, 0, 64, 74
1, 48998, Note_off_c, 0, 66, 63
1, 49003, Note_off_c, 0, 61, 64
1, 49011, Note_off_c, 0, 73, 62
1, 49012, Control_c, 0, 64, 84
1, 49027, Control_c, 0, 64, 105
1, 49042, Control_c, 0, 64, 127
1, 49056, Note_on_c, 0, 49, 56
1, 49100, Note_on_c, 0, 71, 73
1, 49102, Note_on_c, 0, 52, 56
1, 49102, Note_on_c, 0, 59, 74
1, 49105, Note_on_c, 0, 64, 66
1, 49124, Note_off_c, 0, 59, 68
1, 49127, Note_off_c, 0, 71, 62
1, 49135, Note_off_c, 0, 64, 67
1, 49170, Note_on_c, 0, 54, 42
1, 49174, Note_off_c, 0, 52, 59
1, 49197, Note_off_c, 0, 54, 61
1, 49202, Note_off_c, 0, 49, 58
1, 49223, Note_on_c, 0, 57, 60
1, 49247, Note_on_c, 0, 73, 86
1, 49251, Note_on_c, 0, 61, 73
1, 49281, Note_on_c, 0, 54, 62
1, 49293, Note_off_c, 0, 61, 61
1, 49316, Note_off_c, 0, 57, 48
1, 49316, Note_off_c, 0, 73, 59
1, 49378, Note_on_c, 0, 52, 62
1, 49403, Note_off_c, 0, 54, 62
1, 49405, Note_off_c, 0, 47, 44
1, 49430, Note_on_c, 0, 49, 63
1, 49465, Note_off_c, 0, 52, 59
1, 49517, Note_off_c, 0, 49, 60
1, 49538, Note_on_c, 0, 76, 75
1, 49539, Control_c, 0, 64, 117
1, 49551, Note_on_c, 0, 45, 58
1, 49552, Note_on_c, 0, 64, 60
1, 49554, Control_c, 0, 64, 83
1, 49555, Note_on_c, 0, 69, 59
1, 49568, Control_c, 0, 64, 62
1, 49583, Control_c, 0, 64, 0
1, 49609, Note_off_c, 0, 45, 52
1, 49623, Note_on_c, 0, 49, 64
1, 49628, Control_c, 0, 64, 65
1, 49642, Control_c, 0, 64, 80
1, 49657, Control_c, 0, 64, 120
1, 49672, Control_c, 0, 64, 127
1, 49687, Note_off_c, 0, 64, 57
1, 49692, Note_off_c, 0, 76, 61
1, 49695, Note_on_c, 0, 52, 54
1, 49741, Note_off_c, 0, 69, 61
1, 49754, Note_on_c, 0, 54, 62
1, 49788, Note_off_c, 0, 52, 60
1, 49817, Note_on_c, 0, 78, 83
1, 49818, Note_off_c, 0, 54, 63
1, 49820, Note_on_c, 0, 73, 76
1, 49822, Note_on_c, 0, 66, 78
1, 49830, Note_on_c, 0, 57, 67
1, 49834, Note_off_c, 0, 49, 61
1, 49906, Note_on_c, 0, 54, 61
1, 49919, Note_off_c, 0, 78, 62
1, 49933, Note_off_c, 0, 66, 57
1, 49937, Note_off_c, 0, 57, 55
1, 49955, Note_on_c, 0, 52, 61
1, 49994, Note_off_c, 0, 54, 64
1, 50009, Note_on_c, 0, 49, 70
1, 50023, Note_off_c, 0, 52, 62
1, 50055, Note_off_c, 0, 73, 60
1, 50073, Note_off_c, 0, 49, 63
1, 50121, Note_on_c, 0, 44, 79
1, 50124, Note_on_c, 0, 76, 84
1, 50130, Note_on_c, 0, 64, 82
1, 50134, Note_on_c, 0, 69, 66
1, 50139, Control_c, 0, 64, 79
1, 50154, Control_c, 0, 64, 0
1, 50163, Note_off_c, 0, 69, 67
1, 50175, Note_off_c, 0, 76, 62
1, 50190, Note_on_c, 0, 49, 70
1, 50194, Note_off_c, 0, 64, 62
1, 50199, Control_c, 0, 64, 89
1, 50214, Control_c, 0, 64, 127
1, 50253, Note_on_c, 0, 52, 69
1, 50253, Note_off_c, 0, 44, 58
1, 50268, Note_off_c, 0, 49, 63
1, 50315, Note_off_c, 0, 52, 61
1, 50335, Note_on_c, 0, 54, 63
1, 50396, Note_off_c, 0, 54, 64
1, 50405, Note_on_c, 0, 73, 83
1, 50410, Note_on_c, 0, 61, 77
1, 50410, Note_on_c, 0, 66, 69
1, 50418, Note_on_c, 0, 57, 70
1, 50460, Note_off_c, 0, 57, 54
1, 50479, Note_off_c, 0, 61, 61
1, 50479, Note_off_c, 0, 73, 64
1, 50481, Note_off_c, 0, 66, 60
1, 50484, Note_on_c, 0, 54, 79
1, 50516, Note_off_c, 0, 54, 67
1, 50568, Note_on_c, 0, 52, 68
1, 50624, Note_off_c, 0, 52, 60
1, 50626, Note_on_c, 0, 49, 74
1, 50715, Note_on_c, 0, 42, 71
1, 50717, Note_off_c, 0, 49, 62
1, 50718, Note_on_c, 0, 71, 85
1, 50723, Note_on_c, 0, 59, 82
1, 50725, Note_on_c, 0, 64, 71
1, 50732, Control_c, 0, 64, 97
1, 50747, Control_c, 0, 64, 64
1, 50770, Control_c, 0, 64, 0
1, 50819, Note_on_c, 0, 45, 66
1, 50829, Control_c, 0, 64, 68
1, 50844, Control_c, 0, 64, 97
1, 50852, Note_off_c, 0, 42, 56
1, 50859, Control_c, 0, 64, 127
1, 50884, Note_on_c, 0, 49, 70
1, 50919, Note_off_c, 0, 45, 63
1, 50938, Note_off_c, 0, 59, 54
1, 50947, Note_off_c, 0, 71, 56
1, 50960, Note_off_c, 0, 49, 63
1, 50965, Note_on_c, 0, 52, 69
1, 50998, Note_off_c, 0, 64, 60
1, 51008, Poly_aftertouch_c, 0, 68, 0
1, 51041, Note_on_c, 0, 54, 77
1, 51043, Note_off_c, 0, 52, 61
1, 51091, Note_off_c, 0, 54, 64
1, 51122, Note_on_c, 0, 52, 66
1, 51197, Note_off_c, 0, 52, 55
1, 51199, Note_on_c, 0, 49, 74
1, 51278, Note_on_c, 0, 45, 73
1, 51306, Note_off_c, 0, 49, 61
1, 51396, Note_on_c, 0, 40, 69
1, 51406, Note_off_c, 0, 45, 62
1, 51409, Note_on_c, 0, 73, 87
1, 51419, Note_on_c, 0, 66, 73
1, 51421, Control_c, 0, 64, 100
1, 51423, Note_on_c, 0, 61, 74
1, 51437, Control_c, 0, 64, 71
1, 51452, Control_c, 0, 64, 0
1, 51531, Note_on_c, 0, 45, 68
1, 51534, Control_c, 0, 64, 21
1, 51549, Note_off_c, 0, 40, 52
1, 51549, Control_c, 0, 64, 78
1, 51563, Control_c, 0, 64, 127
1, 51600, Note_on_c, 0, 49, 68
1, 51628, Note_off_c, 0, 45, 63
1, 51634, Note_off_c, 0, 61, 61
1, 51665, Note_off_c, 0, 73, 61
1, 51666, Note_off_c, 0, 49, 63
1, 51691, Note_on_c, 0, 52, 65
1, 51727, Note_off_c, 0, 66, 57
1, 51755, Note_off_c, 0, 52, 59
1, 51764, Note_on_c, 0, 54, 61
1, 51795, Note_off_c, 0, 54, 65
1, 51844, Control_c, 0, 67, 12
1, 51854, Note_on_c, 0, 52, 47
1, 51859, Control_c, 0, 67, 34
1, 51874, Control_c, 0, 67, 68
1, 51889, Control_c, 0, 67, 101
1, 51898, Note_off_c, 0, 52, 57
1, 51904, Control_c, 0, 67, 127
1, 51938, Note_on_c, 0, 49, 58
1, 52033, Note_on_c, 0, 45, 56
1, 52037, Note_off_c, 0, 49, 62
1, 52121, Note_off_c, 0, 45, 62
1, 52170, Control_c, 0, 64, 118
1, 52185, Control_c, 0, 64, 105
1, 52200, Control_c, 0, 64, 95
1, 52215, Control_c, 0, 64, 87
1, 52231, Control_c, 0, 64, 77
1, 52246, Control_c, 0, 64, 65
1, 52268, Control_c, 0, 64, 0
1, 52278, Note_on_c, 0, 39, 27
1, 52287, Note_on_c, 0, 46, 29
1, 52377, Note_on_c, 0, 73, 48
1, 52393, Note_on_c, 0, 61, 33
1, 52403, Note_on_c, 0, 67, 35
1, 52416, Control_c, 0, 64, 36
1, 52431, Control_c, 0, 64, 58
1, 52437, Note_off_c, 0, 39, 51
1, 52446, Control_c, 0, 64, 65
1, 52449, Note_off_c, 0, 46, 48
1, 52460, Control_c, 0, 64, 71
1, 52475, Control_c, 0, 64, 80
1, 52483, Note_on_c, 0, 51, 53
1, 52490, Control_c, 0, 64, 95
1, 52504, Control_c, 0, 64, 113
1, 52517, Note_off_c, 0, 51, 63
1, 52519, Control_c, 0, 64, 127
1, 52602, Note_off_c, 0, 61, 41
1, 52606, Note_on_c, 0, 53, 45
1, 52641, Note_off_c, 0, 53, 56
1, 52646, Note_off_c, 0, 73, 55
1, 52655, Note_on_c, 0, 55, 43
1, 52693, Note_off_c, 0, 55, 53
1, 52717, Note_on_c, 0, 61, 51
1, 52762, Note_off_c, 0, 61, 59
1, 52768, Note_on_c, 0, 75, 62
1, 52774, Note_on_c, 0, 63, 53
1, 52775, Note_on_c, 0, 70, 54
1, 52788, Note_off_c, 0, 67, 35
1, 52807, Note_on_c, 0, 53, 54
1, 52834, Note_off_c, 0, 53, 65
1, 52858, Note_off_c, 0, 70, 61
1, 52865, Note_off_c, 0, 63, 59
1, 52898, Note_on_c, 0, 51, 63
1, 52900, Note_off_c, 0, 75, 48
1, 52947, Note_off_c, 0, 51, 65
1, 53014, Note_on_c, 0, 43, 58
1, 53016, Control_c, 0, 64, 89
1, 53025, Note_on_c, 0, 50, 44
1, 53031, Control_c, 0, 64, 65
1, 53033, Note_on_c, 0, 71, 61
1, 53035, Note_on_c, 0, 76, 67
1, 53046, Control_c, 0, 64, 0
1, 53052, Note_on_c, 0, 64, 49
1, 53061, Control_c, 0, 64, 49
1, 53063, Note_off_c, 0, 43, 63
1, 53068, Note_off_c, 0, 50, 65
1, 53076, Control_c, 0, 64, 68
1, 53090, Note_off_c, 0, 64, 63
1, 53090, Control_c, 0, 64, 79
1, 53102, Note_on_c, 0, 53, 66
1, 53105, Control_c, 0, 64, 94
1, 53112, Note_off_c, 0, 71, 65
1, 53120, Control_c, 0, 64, 127
1, 53128, Note_off_c, 0, 53, 68
1, 53132, Note_off_c, 0, 76, 62
1, 53181, Note_on_c, 0, 57, 52
1, 53221, Note_off_c, 0, 57, 63
1, 53238, Note_on_c, 0, 59, 57
1, 53290, Note_off_c, 0, 59, 61
1, 53331, Note_on_c, 0, 65, 57
1, 53341, Note_on_c, 0, 81, 69
1, 53351, Note_on_c, 0, 74, 57
1, 53364, Note_on_c, 0, 69, 55
1, 53366, Note_off_c, 0, 65, 64
1, 53385, Note_off_c, 0, 74, 66
1, 53397, Note_off_c, 0, 81, 60
1, 53411, Note_on_c, 0, 59, 57
1, 53421, Note_off_c, 0, 69, 62
1, 53438, Note_off_c, 0, 59, 65
1, 53446, Note_on_c, 0, 57, 56
1, 53472, Note_off_c, 0, 57, 64
1, 53552, Note_on_c, 0, 53, 49
1, 53588, Note_off_c, 0, 53, 54
1, 53648, Note_on_c, 0, 39, 57
1, 53668, Control_c, 0, 64, 106
1, 53673, Note_on_c, 0, 46, 52
1, 53683, Note_on_c, 0, 73, 69
1, 53683, Control_c, 0, 64, 81
1, 53689, Note_on_c, 0, 67, 56
1, 53690, Note_on_c, 0, 61, 58
1, 53698, Control_c, 0, 64, 65
1, 53699, Note_off_c, 0, 39, 60
1, 53711, Note_off_c, 0, 46, 62
1, 53713, Control_c, 0, 64, 52
1, 53716, Note_off_c, 0, 73, 60
1, 53722, Note_off_c, 0, 61, 63
1, 53727, Control_c, 0, 64, 64
1, 53742, Control_c, 0, 64, 71
1, 53754, Note_on_c, 0, 51, 44
1, 53764, Control_c, 0, 64, 82
1, 53776, Note_off_c, 0, 67, 55
1, 53779, Control_c, 0, 64, 101
1, 53786, Note_off_c, 0, 51, 57
1, 53794, Control_c, 0, 64, 127
1, 53815, Note_on_c, 0, 75, 67
1, 53823, Note_on_c, 0, 53, 63
1, 53829, Note_on_c, 0, 70, 59
1, 53834, Note_on_c, 0, 63, 69
1, 53862, Note_on_c, 0, 55, 61
1, 53870, Note_off_c, 0, 53, 64
1, 53872, Note_off_c, 0, 75, 61
1, 53886, Note_off_c, 0, 70, 60
1, 53892, Note_off_c, 0, 55, 64
1, 53894, Note_off_c, 0, 63, 60
1, 53913, Note_on_c, 0, 61, 72
1, 53946, Note_on_c, 0, 73, 83
1, 53950, Note_off_c, 0, 61, 60
1, 53951, Note_on_c, 0, 67, 70
1, 53974, Note_on_c, 0, 55, 58
1, 53984, Note_on_c, 0, 53, 67
1, 53995, Note_off_c, 0, 67, 59
1, 53996, Note_off_c, 0, 73, 61
1, 54003, Note_off_c, 0, 55, 65
1, 54010, Note_off_c, 0, 53, 71
1, 54068, Note_on_c, 0, 70, 73
1, 54071, Note_on_c, 0, 63, 76
1, 54074, Note_on_c, 0, 75, 73
1, 54079, Note_on_c, 0, 51, 72
1, 54094, Note_off_c, 0, 70, 67
1, 54113, Note_off_c, 0, 51, 64
1, 54123, Note_off_c, 0, 63, 61
1, 54130, Note_off_c, 0, 75, 62
1, 54165, Control_c, 0, 64, 85
1, 54175, Note_on_c, 0, 43, 69
1, 54180, Control_c, 0, 64, 0
1, 54185, Note_on_c, 0, 50, 59
1, 54193, Note_on_c, 0, 71, 78
1, 54197, Note_on_c, 0, 76, 80
1, 54202, Note_on_c, 0, 64, 73
1, 54220, Note_off_c, 0, 43, 62
1, 54226, Note_off_c, 0, 50, 64
1, 54230, Note_off_c, 0, 64, 65
1, 54239, Control_c, 0, 64, 62
1, 54252, Note_on_c, 0, 53, 66
1, 54252, Note_off_c, 0, 71, 66
1, 54254, Control_c, 0, 64, 95
1, 54268, Note_off_c, 0, 76, 63
1, 54269, Control_c, 0, 64, 127
1, 54277, Note_off_c, 0, 53, 69
1, 54309, Note_on_c, 0, 57, 67
1, 54364, Note_on_c, 0, 59, 73
1, 54364, Note_off_c, 0, 57, 63
1, 54396, Note_off_c, 0, 59, 63
1, 54434, Note_on_c, 0, 65, 70
1, 54448, Note_on_c, 0, 81, 85
1, 54456, Note_on_c, 0, 74, 64
1, 54456, Note_off_c, 0, 65, 67
1, 54459, Note_on_c, 0, 69, 63
1, 54473, Note_off_c, 0, 74, 66
1, 54478, Note_off_c, 0, 69, 63
1, 54497, Note_off_c, 0, 81, 65
1, 54514, Note_on_c, 0, 59, 44
1, 54516, Note_on_c, 0, 57, 53
1, 54536, Note_off_c, 0, 59, 62
1, 54538, Note_off_c, 0, 57, 63
1, 54587, Control_c, 0, 64, 102
1, 54590, Note_on_c, 0, 53, 67
1, 54602, Control_c, 0, 64, 86
1, 54617, Note_off_c, 0, 53, 63
1, 54617, Control_c, 0, 64, 70
1, 54633, Control_c, 0, 64, 0
1, 54688, Note_on_c, 0, 51, 62
1, 54703, Note_on_c, 0, 85, 76
1, 54707, Note_on_c, 0, 73, 69
1, 54707, Note_on_c, 0, 79, 62
1, 54721, Control_c, 0, 64, 49
1, 54728, Note_on_c, 0, 58, 64
1, 54736, Note_off_c, 0, 51, 62
1, 54736, Control_c, 0, 64, 65
1, 54751, Control_c, 0, 64, 75
1, 54758, Note_off_c, 0, 58, 66
1, 54766, Control_c, 0, 64, 89
1, 54780, Control_c, 0, 64, 118
1, 54786, Note_on_c, 0, 63, 69
1, 54795, Control_c, 0, 64, 127
1, 54804, Note_off_c, 0, 73, 56
1, 54808, Note_off_c, 0, 63, 65
1, 54810, Control_c, 0, 67, 123
1, 54825, Note_off_c, 0, 85, 62
1, 54825, Control_c, 0, 67, 101
1, 54840, Control_c, 0, 67, 74
1, 54849, Note_on_c, 0, 65, 63
1, 54855, Control_c, 0, 67, 47
1, 54870, Control_c, 0, 67, 22
1, 54885, Control_c, 0, 67, 0
1, 54895, Note_off_c, 0, 79, 60
1, 54896, Note_on_c, 0, 67, 69
1, 54904, Note_off_c, 0, 65, 60
1, 54924, Note_off_c, 0, 67, 64
1, 54940, Note_on_c, 0, 82, 84
1, 54944, Note_on_c, 0, 87, 85
1, 54945, Note_on_c, 0, 73, 82
1, 54953, Note_on_c, 0, 75, 74
1, 54983, Note_off_c, 0, 73, 60
1, 54986, Note_off_c, 0, 82, 64
1, 54995, Note_off_c, 0, 75, 50
1, 55012, Note_on_c, 0, 67, 52
1, 55018, Note_on_c, 0, 65, 68
1, 55027, Note_off_c, 0, 87, 62
1, 55035, Note_off_c, 0, 67, 60
1, 55042, Note_off_c, 0, 65, 69
1, 55090, Note_on_c, 0, 63, 78
1, 55139, Note_off_c, 0, 63, 58
1, 55166, Control_c, 0, 64, 93
1, 55177, Note_on_c, 0, 55, 75
1, 55180, Control_c, 0, 64, 69
1, 55189, Note_on_c, 0, 62, 69
1, 55194, Note_on_c, 0, 83, 80
1, 55195, Note_on_c, 0, 88, 86
1, 55195, Control_c, 0, 64, 0
1, 55198, Note_on_c, 0, 76, 82
1, 55222, Note_off_c, 0, 76, 66
1, 55225, Control_c, 0, 64, 53
1, 55227, Note_off_c, 0, 55, 63
1, 55228, Note_off_c, 0, 62, 60
1, 55240, Control_c, 0, 64, 74
1, 55242, Note_off_c, 0, 83, 64
1, 55262, Control_c, 0, 64, 92
1, 55265, Note_off_c, 0, 88, 65
1, 55271, Note_on_c, 0, 65, 69
1, 55277, Control_c, 0, 64, 127
1, 55296, Note_off_c, 0, 65, 68
1, 55315, Note_on_c, 0, 69, 78
1, 55371, Note_on_c, 0, 71, 78
1, 55373, Note_off_c, 0, 69, 63
1, 55412, Note_off_c, 0, 71, 67
1, 55439, Note_on_c, 0, 77, 83
1, 55445, Note_on_c, 0, 86, 75
1, 55448, Note_on_c, 0, 93, 93
1, 55454, Note_on_c, 0, 81, 82
1, 55463, Note_off_c, 0, 77, 68
1, 55468, Note_off_c, 0, 86, 71
1, 55472, Note_off_c, 0, 81, 70
1, 55499, Note_off_c, 0, 93, 68
1, 55508, Note_on_c, 0, 71, 70
1, 55520, Note_on_c, 0, 69, 65
1, 55525, Note_off_c, 0, 71, 68
1, 55535, Note_off_c, 0, 69, 70
1, 55588, Note_on_c, 0, 65, 77
1, 55618, Note_off_c, 0, 65, 55
1, 55663, Control_c, 0, 64, 95
1, 55674, Note_on_c, 0, 63, 70
1, 55678, Control_c, 0, 64, 73
1, 55693, Control_c, 0, 64, 61
1, 55703, Note_on_c, 0, 91, 70
1, 55703, Note_on_c, 0, 97, 72
1, 55705, Note_on_c, 0, 85, 69
1, 55708, Control_c, 0, 64, 65
1, 55722, Control_c, 0, 64, 75
1, 55723, Note_on_c, 0, 70, 40
1, 55724, Note_off_c, 0, 70, 54
1, 55727, Note_off_c, 0, 97, 68
1, 55728, Note_off_c, 0, 85, 69
1, 55737, Control_c, 0, 64, 91
1, 55744, Note_off_c, 0, 63, 56
1, 55752, Control_c, 0, 64, 127
1, 55758, Note_off_c, 0, 91, 65
1, 55776, Note_on_c, 0, 75, 70
1, 55794, Note_off_c, 0, 75, 68
1, 55810, Note_on_c, 0, 99, 82
1, 55818, Note_on_c, 0, 87, 86
1, 55820, Note_on_c, 0, 94, 72
1, 55844, Note_on_c, 0, 77, 65
1, 55860, Note_off_c, 0, 99, 65
1, 55869, Note_off_c, 0, 94, 65
1, 55874, Note_off_c, 0, 87, 63
1, 55878, Note_off_c, 0, 77, 65
1, 55883, Note_on_c, 0, 79, 65
1, 55908, Note_off_c, 0, 79, 66
1, 55926, Note_on_c, 0, 85, 88
1, 55928, Note_on_c, 0, 91, 90
1, 55929, Note_on_c, 0, 97, 81
1, 55948, Note_on_c, 0, 87, 56
1, 55950, Note_off_c, 0, 85, 66
1, 55968, Note_off_c, 0, 87, 62
1, 55969, Note_off_c, 0, 91, 67
1, 55979, Note_off_c, 0, 97, 66
1, 56006, Note_on_c, 0, 77, 61
1, 56024, Note_off_c, 0, 77, 65
1, 56040, Note_on_c, 0, 94, 84
1, 56043, Note_on_c, 0, 87, 90
1, 56046, Note_on_c, 0, 99, 82
1, 56068, Note_on_c, 0, 75, 88
1, 56077, Note_off_c, 0, 94, 60
1, 56098, Note_off_c, 0, 87, 63
1, 56101, Note_off_c, 0, 99, 65
1, 56104, Note_off_c, 0, 75, 65
1, 56144, Control_c, 0, 64, 78
1, 56154, Note_on_c, 0, 67, 77
1, 56155, Note_on_c, 0, 95, 93
1, 56157, Note_on_c, 0, 88, 96
1, 56159, Control_c, 0, 64, 0
1, 56161, Note_on_c, 0, 74, 76
1, 56161, Note_on_c, 0, 100, 89
1, 56174, Control_c, 0, 64, 67
1, 56181, Note_off_c, 0, 88, 64
1, 56186, Note_off_c, 0, 67, 63
1, 56187, Note_off_c, 0, 74, 66
1, 56189, Control_c, 0, 64, 90
1, 56199, Note_off_c, 0, 95, 67
1, 56203, Control_c, 0, 64, 127
1, 56211, Note_off_c, 0, 100, 65
1, 56217, Note_on_c, 0, 77, 77
1, 56245, Note_off_c, 0, 77, 65
1, 56269, Note_on_c, 0, 81, 82
1, 56318, Note_off_c, 0, 81, 64
1, 56334, Note_on_c, 0, 83, 58
1, 56351, Note_off_c, 0, 83, 64
1, 56351, Note_on_c, 0, 84, 38
1, 56379, Note_on_c, 0, 89, 87
1, 56381, Note_on_c, 0, 93, 107
1, 56381, Note_off_c, 0, 84, 56
1, 56382, Note_on_c, 0, 105, 103
1, 56393, Note_on_c, 0, 98, 68
1, 56411, Note_off_c, 0, 98, 66
1, 56414, Note_off_c, 0, 89, 65
1, 56419, Note_off_c, 0, 105, 62
1, 56423, Note_off_c, 0, 93, 69
1, 56426, Note_on_c, 0, 88, 17
1, 56436, Note_on_c, 0, 83, 62
1, 56459, Note_on_c, 0, 81, 80
1, 56468, Note_off_c, 0, 83, 67
1, 56468, Note_off_c, 0, 88, 52
1, 56477, Note_off_c, 0, 81, 71
1, 56529, Note_on_c, 0, 79, 58
1, 56548, Note_off_c, 0, 79, 61
1, 56605, Control_c, 0, 64, 81
1, 56608, Note_on_c, 0, 79, 93
1, 56618, Note_on_c, 0, 86, 82
1, 56619, Control_c, 0, 64, 0
1, 56620, Note_on_c, 0, 75, 96
1, 56625, Note_on_c, 0, 63, 90
1, 56635, Note_on_c, 0, 70, 75
1, 56641, Note_off_c, 0, 75, 66
1, 56644, Note_off_c, 0, 63, 71
1, 56649, Note_on_c, 0, 91, 65
1, 56656, Note_on_c, 0, 85, 29
1, 56657, Note_off_c, 0, 85, 127
1, 56657, Note_off_c, 0, 79, 64
1, 56658, Note_off_c, 0, 70, 68
1, 56664, Control_c, 0, 64, 98
1, 56664, Note_on_c, 0, 87, 62
1, 56671, Note_off_c, 0, 86, 64
1, 56678, Control_c, 0, 64, 127
1, 56709, Note_off_c, 0, 91, 63
1, 56733, Note_off_c, 0, 87, 64
1, 56739, Note_on_c, 0, 86, 60
1, 56743, Note_on_c, 0, 79, 57
1, 56779, Note_off_c, 0, 79, 53
1, 56787, Note_on_c, 0, 87, 54
1, 56790, Note_off_c, 0, 86, 64
1, 56800, Note_on_c, 0, 91, 62
1, 56827, Note_off_c, 0, 87, 64
1, 56831, Note_off_c, 0, 91, 57
1, 56855, Note_on_c, 0, 94, 117
1, 56858, Note_on_c, 0, 79, 80
1, 56858, Note_on_c, 0, 86, 70
1, 56878, Note_off_c, 0, 94, 70
1, 56904, Note_on_c, 0, 87, 77
1, 56905, Note_off_c, 0, 79, 60
1, 56907, Note_off_c, 0, 86, 65
1, 56909, Note_on_c, 0, 91, 73
1, 56936, Note_off_c, 0, 91, 61
1, 56961, Note_off_c, 0, 87, 62
1, 56968, Note_on_c, 0, 86, 59
1, 56969, Note_on_c, 0, 79, 67
1, 57003, Note_off_c, 0, 79, 58
1, 57003, Poly_aftertouch_c, 0, 87, 0
1, 57010, Note_on_c, 0, 87, 66
1, 57019, Note_off_c, 0, 86, 67
1, 57024, Note_on_c, 0, 91, 77
1, 57049, Note_off_c, 0, 91, 60
1, 57052, Note_off_c, 0, 87, 57
1, 57087, Note_on_c, 0, 79, 75
1, 57087, Note_on_c, 0, 86, 56
1, 57117, Note_off_c, 0, 79, 57
1, 57135, Note_on_c, 0, 87, 77
1, 57135, Note_on_c, 0, 91, 81
1, 57136, Note_off_c, 0, 86, 66
1, 57159, Note_off_c, 0, 87, 65
1, 57167, Note_off_c, 0, 91, 59
1, 57195, Note_on_c, 0, 86, 63
1, 57201, Note_on_c, 0, 79, 78
1, 57234, Note_off_c, 0, 79, 56
1, 57241, Note_on_c, 0, 87, 81
1, 57244, Note_on_c, 0, 91, 84
1, 57245, Note_off_c, 0, 86, 66
1, 57264, Note_off_c, 0, 87, 66
1, 57289, Note_off_c, 0, 91, 63
1, 57311, Note_on_c, 0, 79, 86
1, 57311, Note_on_c, 0, 86, 73
1, 57341, Note_off_c, 0, 79, 58
1, 57355, Note_on_c, 0, 87, 79
1, 57359, Note_on_c, 0, 91, 75
1, 57362, Note_off_c, 0, 86, 67
1, 57382, Note_off_c, 0, 87, 58
1, 57404, Note_off_c, 0, 91, 61
1, 57419, Note_on_c, 0, 79, 87
1, 57419, Note_on_c, 0, 86, 70
1, 57455, Note_off_c, 0, 79, 58
1, 57463, Note_on_c, 0, 91, 74
1, 57471, Note_on_c, 0, 87, 78
1, 57473, Note_off_c, 0, 86, 65
1, 57499, Note_off_c, 0, 87, 72
1, 57523, Note_off_c, 0, 91, 61
1, 57526, Note_on_c, 0, 82, 103
1, 57529, Note_on_c, 0, 75, 90
1, 57530, Note_on_c, 0, 79, 95
1, 57532, Note_on_c, 0, 86, 76
1, 57547, Note_off_c, 0, 75, 71
1, 57551, Note_off_c, 0, 82, 64
1, 57571, Note_off_c, 0, 79, 62
1, 57585, Note_on_c, 0, 91, 66
1, 57585, Note_on_c, 0, 87, 74
1, 57591, Note_off_c, 0, 86, 66
1, 57613, Note_off_c, 0, 87, 61
1, 57625, Note_off_c, 0, 91, 57
1, 57639, Note_on_c, 0, 86, 66
1, 57642, Note_on_c, 0, 79, 83
1, 57685, Note_off_c, 0, 79, 60
1, 57691, Note_on_c, 0, 91, 73
1, 57696, Note_off_c, 0, 86, 66
1, 57702, Note_on_c, 0, 87, 74
1, 57727, Note_off_c, 0, 87, 68
1, 57742, Note_off_c, 0, 91, 64
1, 57755, Note_on_c, 0, 86, 72
1, 57755, Note_on_c, 0, 79, 87
1, 57759, Note_on_c, 0, 94, 107
1, 57784, Note_off_c, 0, 94, 72
1, 57797, Note_off_c, 0, 79, 63
1, 57802, Note_on_c, 0, 87, 80
1, 57806, Note_on_c, 0, 91, 73
1, 57811, Note_off_c, 0, 86, 65
1, 57851, Note_off_c, 0, 91, 59
1, 57855, Note_off_c, 0, 87, 59
1, 57872, Note_on_c, 0, 79, 78
1, 57873, Note_on_c, 0, 86, 57
1, 57901, Note_off_c, 0, 79, 61
1, 57919, Note_on_c, 0, 87, 75
1, 57921, Note_on_c, 0, 91, 73
1, 57923, Note_off_c, 0, 86, 66
1, 57948, Note_off_c, 0, 87, 60
1, 57955, Note_off_c, 0, 91, 59
1, 57985, Note_on_c, 0, 79, 83
1, 57987, Note_on_c, 0, 86, 54
1, 58015, Note_off_c, 0, 79, 61
1, 58033, Note_on_c, 0, 87, 82
1, 58036, Note_on_c, 0, 91, 81
1, 58037, Note_off_c, 0, 86, 66
1, 58059, Note_off_c, 0, 87, 58
1, 58075, Note_off_c, 0, 91, 58
1, 58095, Note_on_c, 0, 79, 88
1, 58098, Note_on_c, 0, 86, 62
1, 58136, Note_off_c, 0, 79, 61
1, 58143, Note_on_c, 0, 87, 77
1, 58144, Note_on_c, 0, 91, 79
1, 58146, Note_off_c, 0, 86, 66
1, 58191, Note_off_c, 0, 91, 63
1, 58210, Note_on_c, 0, 86, 66
1, 58211, Note_on_c, 0, 79, 82
1, 58211, Note_off_c, 0, 87, 59
1, 58256, Note_on_c, 0, 91, 80
1, 58262, Note_on_c, 0, 87, 44
1, 58263, Note_off_c, 0, 86, 66
1, 58265, Note_off_c, 0, 79, 58
1, 58310, Note_off_c, 0, 91, 64
1, 58322, Note_on_c, 0, 79, 63
1, 58329, Note_off_c, 0, 87, 64
1, 58330, Note_on_c, 0, 86, 58
1, 58352, Poly_aftertouch_c, 0, 91, 0
1, 58358, Note_on_c, 0, 91, 83
1, 58372, Note_off_c, 0, 86, 65
1, 58410, Note_off_c, 0, 79, 60
1, 58424, Note_on_c, 0, 86, 57
1, 58432, Poly_aftertouch_c, 0, 85, 0
1, 58433, Note_off_c, 0, 91, 67
1, 58440, Note_on_c, 0, 82, 102
1, 58444, Note_off_c, 0, 86, 67
1, 58446, Note_on_c, 0, 75, 88
1, 58465, Note_off_c, 0, 75, 67
1, 58473, Note_off_c, 0, 82, 63
1, 58475, Poly_aftertouch_c, 0, 89, 0
1, 58510, Note_on_c, 0, 79, 90
1, 58562, Note_on_c, 0, 86, 75
1, 58584, Note_off_c, 0, 79, 59
1, 58620, Note_on_c, 0, 91, 81
1, 58659, Note_off_c, 0, 86, 63
1, 58671, Note_off_c, 0, 91, 65
1, 58677, Note_on_c, 0, 94, 96
1, 58688, Note_on_c, 0, 87, 82
1, 58702, Note_off_c, 0, 94, 63
1, 58708, Note_off_c, 0, 87, 73
1, 58733, Note_on_c, 0, 91, 83
1, 58790, Note_on_c, 0, 86, 72
1, 58802, Note_off_c, 0, 91, 64
1, 58837, Note_off_c, 0, 86, 66
1, 58849, Note_on_c, 0, 79, 68
1, 58873, Note_off_c, 0, 79, 67
1, 58906, Note_on_c, 0, 75, 72
1, 58908, Note_on_c, 0, 82, 71
1, 58924, Note_off_c, 0, 82, 68
1, 58929, Note_off_c, 0, 75, 70
1, 58971, Note_on_c, 0, 79, 71
1, 59028, Note_on_c, 0, 74, 66
1, 59033, Note_off_c, 0, 79, 60
1, 59057, Note_off_c, 0, 74, 66
1, 59078, Note_on_c, 0, 67, 63
1, 59106, Note_off_c, 0, 67, 65
1, 59136, Note_on_c, 0, 70, 76
1, 59140, Note_on_c, 0, 63, 76
1, 59157, Note_off_c, 0, 70, 70
1, 59163, Note_off_c, 0, 63, 68
1, 59186, Note_on_c, 0, 67, 62
1, 59246, Note_on_c, 0, 62, 56
1, 59261, Note_off_c, 0, 67, 57
1, 59291, Note_on_c, 0, 55, 78
1, 59314, Note_off_c, 0, 62, 57
1, 59335, Note_off_c, 0, 55, 61
1, 59359, Note_on_c, 0, 58, 98
1, 59362, Note_on_c, 0, 51, 85
1, 59381, Note_off_c, 0, 58, 62
1, 59389, Note_off_c, 0, 51, 69
1, 59402, Note_on_c, 0, 55, 68
1, 59457, Note_on_c, 0, 62, 61
1, 59460, Note_off_c, 0, 55, 64
1, 59514, Note_on_c, 0, 67, 63
1, 59518, Note_off_c, 0, 62, 62
1, 59544, Note_off_c, 0, 67, 63
1, 59587, Note_on_c, 0, 70, 84
1, 59589, Note_on_c, 0, 63, 74
1, 59608, Note_off_c, 0, 70, 64
1, 59613, Note_off_c, 0, 63, 66
1, 59640, Note_on_c, 0, 67, 66
1, 59699, Note_off_c, 0, 67, 61
1, 59702, Note_on_c, 0, 74, 66
1, 59762, Note_off_c, 0, 74, 64
1, 59764, Note_on_c, 0, 79, 62
1, 59795, Note_off_c, 0, 79, 63
1, 59830, Note_on_c, 0, 82, 84
1, 59836, Note_on_c, 0, 75, 65
1, 59848, Note_off_c, 0, 82, 70
1, 59854, Note_off_c, 0, 75, 67
1, 59900, Note_on_c, 0, 79, 69
1, 59955, Note_on_c, 0, 86, 69
1, 59993, Note_off_c, 0, 79, 56
1, 60006, Note_on_c, 0, 91, 78
1, 60054, Note_off_c, 0, 86, 59
1, 60059, Note_on_c, 0, 94, 93
1, 60072, Note_off_c, 0, 91, 65
1, 60075, Note_on_c, 0, 87, 68
1, 60085, Note_off_c, 0, 94, 60
1, 60099, Note_off_c, 0, 87, 69
1, 60128, Note_on_c, 0, 91, 71
1, 60175, Note_on_c, 0, 86, 57
1, 60215, Note_off_c, 0, 91, 53
1, 60240, Note_off_c, 0, 86, 61
1, 60243, Note_on_c, 0, 79, 54
1, 60273, Note_off_c, 0, 79, 57
1, 60304, Note_on_c, 0, 82, 73
1, 60310, Note_on_c, 0, 75, 61
1, 60328, Note_off_c, 0, 82, 65
1, 60329, Note_off_c, 0, 75, 64
1, 60367, Note_on_c, 0, 79, 58
1, 60437, Note_on_c, 0, 86, 57
1, 60506, Note_on_c, 0, 91, 54
1, 60520, Note_off_c, 0, 86, 58
1, 60536, Note_off_c, 0, 79, 39
1, 60543, Note_off_c, 0, 91, 59
1, 60557, Note_on_c, 0, 94, 77
1, 60573, Note_on_c, 0, 87, 56
1, 60585, Note_off_c, 0, 94, 60
1, 60596, Note_off_c, 0, 87, 66
1, 60637, Note_on_c, 0, 91, 66
1, 60700, Note_on_c, 0, 86, 46
1, 60741, Note_off_c, 0, 91, 36
1, 60751, Note_on_c, 0, 79, 48
1, 60795, Note_off_c, 0, 79, 52
1, 60796, Note_off_c, 0, 86, 58
1, 60832, Note_on_c, 0, 82, 57
1, 60840, Note_on_c, 0, 75, 47
1, 60864, Note_off_c, 0, 75, 61
1, 60866, Note_off_c, 0, 82, 63
1, 60912, Note_on_c, 0, 79, 50
1, 60954, Note_on_c, 0, 86, 49
1, 61053, Note_on_c, 0, 91, 47
1, 61064, Note_off_c, 0, 86, 53
1, 61091, Note_off_c, 0, 91, 48
1, 61112, Note_on_c, 0, 94, 63
1, 61121, Note_off_c, 0, 79, 35
1, 61126, Note_on_c, 0, 87, 54
1, 61137, Note_off_c, 0, 94, 68
1, 61153, Note_off_c, 0, 87, 66
1, 61195, Note_on_c, 0, 91, 52
1, 61253, Control_c, 0, 67, 14
1, 61267, Control_c, 0, 67, 37
1, 61282, Note_on_c, 0, 86, 37
1, 61282, Control_c, 0, 67, 64
1, 61297, Control_c, 0, 67, 87
1, 61312, Note_off_c, 0, 91, 30
1, 61312, Control_c, 0, 67, 108
1, 61327, Control_c, 0, 67, 127
1, 61362, Note_on_c, 0, 79, 35
1, 61411, Note_off_c, 0, 79, 46
1, 61424, Note_off_c, 0, 86, 45
1, 61442, Note_on_c, 0, 75, 46
1, 61446, Note_on_c, 0, 82, 51
1, 61470, Note_off_c, 0, 75, 55
1, 61474, Note_off_c, 0, 82, 63
1, 61523, Note_on_c, 0, 79, 52
1, 61604, Note_on_c, 0, 86, 44
1, 61716, Note_on_c, 0, 91, 43
1, 61785, Note_off_c, 0, 86, 31
1, 61818, Note_on_c, 0, 94, 44
1, 61836, Note_on_c, 0, 87, 34
1, 61848, Note_off_c, 0, 94, 58
1, 61868, Note_off_c, 0, 87, 57
1, 61887, Note_off_c, 0, 91, 37
1, 62045, Note_on_c, 0, 86, 42
1, 62179, Note_off_c, 0, 79, 38
1, 62192, Note_off_c, 0, 86, 29
1, 62260, Note_on_c, 0, 74, 42
1, 62268, Note_on_c, 0, 82, 46
1, 62327, Note_off_c, 0, 74, 60
1, 62358, Note_off_c, 0, 82, 52
1, 62534, Note_on_c, 0, 86, 41
1, 62547, Note_on_c, 0, 79, 31
1, 62853, Note_off_c, 0, 86, 31
1, 62857, Note_off_c, 0, 79, 33
1, 62882, Note_on_c, 0, 94, 40
1, 62883, Note_on_c, 0, 91, 35
1, 62891, Note_on_c, 0, 87, 33
1, 62953, Note_off_c, 0, 87, 45
1, 62960, Note_off_c, 0, 94, 51
1, 63091, Note_off_c, 0, 91, 39
1, 63358, Note_on_c, 0, 86, 38
1, 63376, Note_on_c, 0, 79, 32
1, 63452, Note_off_c, 0, 86, 61
1, 63532, Note_off_c, 0, 79, 38
1, 64307, Control_c, 0, 64, 121
1, 64322, Control_c, 0, 64, 116
1, 64337, Control_c, 0, 64, 112
1, 64352, Control_c, 0, 64, 110
1, 64366, Control_c, 0, 64, 107
1, 64381, Control_c, 0, 64, 105
1, 64396, Control_c, 0, 64, 103
1, 64411, Control_c, 0, 64, 101
1, 64426, Control_c, 0, 64, 98
1, 64440, Control_c, 0, 64, 95
1, 64455, Control_c, 0, 64, 90
1, 64463, Note_on_c, 0, 87, 41
1, 64468, Note_on_c, 0, 80, 37
1, 64470, Control_c, 0, 64, 83
1, 64479, Note_on_c, 0, 83, 37
1, 64484, Control_c, 0, 64, 72
1, 64486, Note_on_c, 0, 73, 28
1, 64499, Control_c, 0, 64, 62
1, 64514, Control_c, 0, 64, 0
1, 64559, Control_c, 0, 64, 23
1, 64573, Control_c, 0, 64, 60
1, 64588, Control_c, 0, 64, 68
1, 64604, Control_c, 0, 64, 76
1, 64618, Control_c, 0, 64, 85
1, 64633, Control_c, 0, 64, 97
1, 64648, Control_c, 0, 64, 111
1, 64663, Control_c, 0, 64, 127
1, 64671, Note_on_c, 0, 82, 46
1, 64698, Note_on_c, 0, 77, 29
1, 64699, Note_off_c, 0, 80, 40
1, 64722, Note_off_c, 0, 82, 48
1, 64740, Note_off_c, 0, 77, 50
1, 64781, Note_off_c, 0, 83, 38
1, 64789, Note_off_c, 0, 73, 44
1, 64828, Note_on_c, 0, 89, 66
1, 64837, Note_on_c, 0, 82, 53
1, 64844, Note_on_c, 0, 77, 43
1, 64850, Note_on_c, 0, 85, 53
1, 64895, Note_off_c, 0, 87, 38
1, 65012, Note_on_c, 0, 80, 53
1, 65016, Note_off_c, 0, 82, 31
1, 65020, Note_on_c, 0, 73, 48
1, 65052, Note_off_c, 0, 80, 57
1, 65053, Note_off_c, 0, 77, 43
1, 65060, Note_off_c, 0, 85, 56
1, 65068, Note_off_c, 0, 73, 60
1, 65186, Note_on_c, 0, 85, 67
1, 65217, Note_on_c, 0, 78, 49
1, 65223, Note_on_c, 0, 71, 45
1, 65231, Note_on_c, 0, 81, 40
1, 65234, Control_c, 0, 64, 102
1, 65246, Note_off_c, 0, 89, 54
1, 65249, Control_c, 0, 64, 86
1, 65264, Control_c, 0, 64, 72
1, 65279, Control_c, 0, 64, 61
1, 65291, Note_off_c, 0, 81, 38
1, 65294, Control_c, 0, 64, 52
1, 65309, Control_c, 0, 64, 61
1, 65323, Control_c, 0, 64, 66
1, 65338, Control_c, 0, 64, 75
1, 65353, Control_c, 0, 64, 86
1, 65368, Control_c, 0, 64, 102
1, 65383, Control_c, 0, 64, 127
1, 65387, Note_off_c, 0, 78, 41
1, 65389, Note_on_c, 0, 80, 49
1, 65404, Note_on_c, 0, 75, 40
1, 65424, Note_off_c, 0, 85, 56
1, 65433, Note_off_c, 0, 71, 27
1, 65440, Note_off_c, 0, 80, 54
1, 65444, Note_off_c, 0, 75, 50
1, 65556, Note_on_c, 0, 92, 71
1, 65575, Note_on_c, 0, 75, 45
1, 65575, Note_on_c, 0, 80, 44
1, 65587, Note_on_c, 0, 87, 47
1, 65622, Note_off_c, 0, 87, 53
1, 65643, Note_off_c, 0, 92, 63
1, 65735, Note_on_c, 0, 85, 65
1, 65756, Note_on_c, 0, 71, 47
1, 65765, Note_on_c, 0, 78, 54
1, 65778, Note_off_c, 0, 80, 28
1, 65780, Note_off_c, 0, 71, 61
1, 65783, Note_off_c, 0, 75, 22
1, 65812, Note_off_c, 0, 78, 54
1, 65829, Note_off_c, 0, 85, 59
1, 65917, Note_on_c, 0, 87, 72
1, 65936, Note_on_c, 0, 80, 46
1, 65938, Control_c, 0, 64, 110
1, 65942, Note_on_c, 0, 83, 53
1, 65951, Note_on_c, 0, 73, 46
1, 65953, Control_c, 0, 64, 93
1, 65968, Control_c, 0, 64, 78
1, 65983, Control_c, 0, 64, 65
1, 65998, Control_c, 0, 64, 0
1, 66027, Control_c, 0, 64, 35
1, 66042, Control_c, 0, 64, 61
1, 66057, Control_c, 0, 64, 66
1, 66072, Control_c, 0, 64, 73
1, 66087, Control_c, 0, 64, 82
1, 66101, Control_c, 0, 64, 94
1, 66111, Note_on_c, 0, 82, 50
1, 66113, Note_off_c, 0, 80, 37
1, 66116, Control_c, 0, 64, 105
1, 66124, Note_on_c, 0, 77, 43
1, 66130, Control_c, 0, 64, 127
1, 66173, Note_off_c, 0, 82, 52
1, 66174, Note_off_c, 0, 77, 46
1, 66213, Note_off_c, 0, 73, 43
1, 66249, Note_off_c, 0, 83, 34
1, 66272, Note_on_c, 0, 89, 75
1, 66274, Note_off_c, 0, 87, 34
1, 66287, Note_on_c, 0, 85, 59
1, 66290, Note_on_c, 0, 82, 57
1, 66294, Note_on_c, 0, 77, 46
1, 66458, Note_on_c, 0, 80, 51
1, 66466, Note_on_c, 0, 73, 47
1, 66477, Note_off_c, 0, 82, 32
1, 66496, Note_off_c, 0, 85, 54
1, 66504, Note_off_c, 0, 77, 43
1, 66518, Note_off_c, 0, 73, 63
1, 66522, Note_off_c, 0, 80, 53
1, 66567, Note_off_c, 0, 89, 46
1, 66630, Note_on_c, 0, 85, 72
1, 66657, Control_c, 0, 64, 97
1, 66668, Note_on_c, 0, 71, 52
1, 66670, Note_on_c, 0, 81, 50
1, 66672, Control_c, 0, 64, 77
1, 66673, Note_on_c, 0, 78, 46
1, 66686, Control_c, 0, 64, 65
1, 66701, Control_c, 0, 64, 43
1, 66716, Control_c, 0, 64, 54
1, 66731, Control_c, 0, 64, 64
1, 66746, Control_c, 0, 64, 70
1, 66761, Control_c, 0, 64, 80
1, 66776, Control_c, 0, 64, 93
1, 66791, Control_c, 0, 64, 111
1, 66805, Control_c, 0, 64, 127
1, 66807, Note_off_c, 0, 81, 42
1, 66837, Note_off_c, 0, 78, 31
1, 66838, Note_on_c, 0, 75, 43
1, 66847, Note_on_c, 0, 80, 44
1, 66874, Note_off_c, 0, 85, 54
1, 66880, Note_off_c, 0, 75, 55
1, 66895, Note_off_c, 0, 80, 58
1, 66906, Note_off_c, 0, 71, 44
1, 66985, Note_on_c, 0, 92, 80
1, 67002, Note_on_c, 0, 87, 65
1, 67013, Note_on_c, 0, 80, 54
1, 67022, Note_on_c, 0, 75, 47
1, 67072, Note_off_c, 0, 92, 62
1, 67075, Note_off_c, 0, 87, 58
1, 67161, Note_on_c, 0, 81, 52
1, 67166, Note_on_c, 0, 85, 65
1, 67182, Note_on_c, 0, 71, 48
1, 67186, Note_on_c, 0, 78, 57
1, 67198, Note_off_c, 0, 81, 60
1, 67202, Note_off_c, 0, 80, 27
1, 67207, Note_off_c, 0, 71, 58
1, 67240, Note_off_c, 0, 75, 21
1, 67257, Note_off_c, 0, 78, 58
1, 67263, Note_off_c, 0, 85, 61
1, 67331, Control_c, 0, 64, 118
1, 67346, Control_c, 0, 64, 103
1, 67348, Note_on_c, 0, 80, 56
1, 67351, Note_on_c, 0, 87, 74
1, 67360, Control_c, 0, 64, 89
1, 67366, Note_on_c, 0, 73, 50
1, 67372, Note_on_c, 0, 83, 58
1, 67375, Control_c, 0, 64, 74
1, 67390, Control_c, 0, 64, 58
1, 67406, Control_c, 0, 64, 0
1, 67465, Control_c, 0, 64, 32
1, 67480, Control_c, 0, 64, 56
1, 67495, Control_c, 0, 64, 64
1, 67509, Control_c, 0, 64, 68
1, 67514, Note_off_c, 0, 80, 53
1, 67524, Control_c, 0, 64, 75
1, 67531, Note_on_c, 0, 82, 52
1, 67533, Note_on_c, 0, 77, 50
1, 67539, Control_c, 0, 64, 81
1, 67554, Control_c, 0, 64, 89
1, 67569, Control_c, 0, 64, 96
1, 67583, Control_c, 0, 64, 102
1, 67596, Note_off_c, 0, 82, 52
1, 67598, Control_c, 0, 64, 108
1, 67613, Control_c, 0, 64, 119
1, 67617, Note_off_c, 0, 73, 28
1, 67618, Note_off_c, 0, 77, 40
1, 67625, Note_off_c, 0, 83, 52
1, 67628, Control_c, 0, 64, 127
1, 67692, Note_off_c, 0, 87, 51
1, 67703, Control_c, 0, 64, 101
1, 67706, Note_on_c, 0, 89, 72
1, 67713, Note_on_c, 0, 82, 59
1, 67717, Note_on_c, 0, 85, 63
1, 67717, Control_c, 0, 64, 83
1, 67732, Control_c, 0, 64, 69
1, 67735, Note_on_c, 0, 77, 50
1, 67747, Control_c, 0, 64, 59
1, 67762, Control_c, 0, 64, 62
1, 67777, Control_c, 0, 64, 66
1, 67791, Control_c, 0, 64, 71
1, 67806, Control_c, 0, 64, 81
1, 67821, Control_c, 0, 64, 92
1, 67835, Control_c, 0, 64, 103
1, 67850, Control_c, 0, 64, 112
1, 67855, Note_off_c, 0, 89, 39
1, 67863, Note_off_c, 0, 85, 55
1, 67865, Control_c, 0, 64, 122
1, 67879, Note_on_c, 0, 80, 55
1, 67880, Control_c, 0, 64, 127
1, 67886, Note_off_c, 0, 82, 32
1, 67901, Note_off_c, 0, 77, 46
1, 67907, Note_on_c, 0, 73, 30
1, 67935, Note_off_c, 0, 80, 54
1, 67942, Note_off_c, 0, 73, 53
1, 68050, Control_c, 0, 64, 105
1, 68058, Note_on_c, 0, 85, 63
1, 68065, Control_c, 0, 64, 90
1, 68075, Note_on_c, 0, 81, 54
1, 68077, Note_on_c, 0, 71, 49
1, 68077, Note_on_c, 0, 78, 47
1, 68080, Control_c, 0, 64, 76
1, 68095, Control_c, 0, 64, 61
1, 68109, Control_c, 0, 64, 37
1, 68124, Control_c, 0, 64, 52
1, 68139, Control_c, 0, 64, 63
1, 68153, Control_c, 0, 64, 68
1, 68168, Control_c, 0, 64, 75
1, 68183, Control_c, 0, 64, 84
1, 68198, Control_c, 0, 64, 93
1, 68214, Control_c, 0, 64, 101
1, 68229, Control_c, 0, 64, 109
1, 68244, Control_c, 0, 64, 117
1, 68248, Note_on_c, 0, 80, 49
1, 68258, Note_on_c, 0, 75, 44
1, 68258, Control_c, 0, 64, 127
1, 68296, Note_off_c, 0, 78, 42
1, 68299, Note_off_c, 0, 75, 54
1, 68302, Note_off_c, 0, 80, 55
1, 68314, Note_off_c, 0, 81, 55
1, 68322, Note_off_c, 0, 71, 42
1, 68346, Note_off_c, 0, 85, 54
1, 68412, Note_on_c, 0, 87, 63
1, 68417, Note_on_c, 0, 80, 53
1, 68427, Note_on_c, 0, 75, 43
1, 68430, Note_on_c, 0, 83, 52
1, 68516, Note_off_c, 0, 83, 61
1, 68538, Note_off_c, 0, 87, 51
1, 68599, Note_on_c, 0, 78, 42
1, 68603, Note_on_c, 0, 71, 40
1, 68603, Note_off_c, 0, 80, 34
1, 68633, Note_off_c, 0, 78, 55
1, 68637, Note_off_c, 0, 71, 56
1, 68651, Note_off_c, 0, 75, 44
1, 68740, Control_c, 0, 64, 117
1, 68755, Control_c, 0, 64, 106
1, 68770, Control_c, 0, 64, 93
1, 68782, Note_on_c, 0, 83, 50
1, 68785, Control_c, 0, 64, 81
1, 68786, Note_on_c, 0, 76, 46
1, 68796, Note_on_c, 0, 79, 43
1, 68800, Control_c, 0, 64, 69
1, 68804, Note_on_c, 0, 69, 29
1, 68815, Control_c, 0, 64, 52
1, 68829, Control_c, 0, 64, 0
1, 68844, Control_c, 0, 64, 36
1, 68859, Control_c, 0, 64, 61
1, 68874, Control_c, 0, 64, 66
1, 68889, Control_c, 0, 64, 72
1, 68904, Control_c, 0, 64, 80
1, 68919, Control_c, 0, 64, 90
1, 68933, Control_c, 0, 64, 101
1, 68948, Control_c, 0, 64, 127
1, 68964, Note_off_c, 0, 76, 39
1, 68972, Note_on_c, 0, 78, 45
1, 68975, Note_off_c, 0, 69, 19
1, 68981, Note_on_c, 0, 73, 39
1, 69023, Note_off_c, 0, 78, 54
1, 69029, Note_off_c, 0, 73, 45
1, 69049, Note_off_c, 0, 79, 38
1, 69053, Note_off_c, 0, 83, 49
1, 69138, Note_on_c, 0, 85, 51
1, 69146, Note_on_c, 0, 73, 42
1, 69150, Note_on_c, 0, 78, 42
1, 69154, Note_on_c, 0, 81, 42
1, 69249, Note_off_c, 0, 81, 54
1, 69252, Note_off_c, 0, 85, 50
1, 69307, Note_on_c, 0, 76, 48
1, 69319, Note_off_c, 0, 78, 23
1, 69322, Note_on_c, 0, 69, 29
1, 69348, Note_off_c, 0, 76, 60
1, 69356, Note_off_c, 0, 69, 51
1, 69369, Note_off_c, 0, 73, 49
1, 69489, Control_c, 0, 64, 121
1, 69500, Note_on_c, 0, 75, 42
1, 69504, Control_c, 0, 64, 96
1, 69506, Note_on_c, 0, 68, 44
1, 69510, Note_on_c, 0, 78, 42
1, 69513, Note_on_c, 0, 82, 48
1, 69519, Control_c, 0, 64, 78
1, 69534, Control_c, 0, 64, 64
1, 69549, Control_c, 0, 64, 0
1, 69578, Control_c, 0, 64, 49
1, 69593, Control_c, 0, 64, 64
1, 69607, Control_c, 0, 64, 69
1, 69622, Control_c, 0, 64, 79
1, 69637, Control_c, 0, 64, 90
1, 69652, Control_c, 0, 64, 105
1, 69665, Note_off_c, 0, 75, 31
1, 69667, Control_c, 0, 64, 127
1, 69701, Note_on_c, 0, 72, 36
1, 69703, Note_on_c, 0, 77, 37
1, 69803, Note_off_c, 0, 77, 58
1, 69809, Note_off_c, 0, 72, 38
1, 69846, Note_off_c, 0, 68, 42
1, 69863, Note_off_c, 0, 78, 36
1, 69895, Note_off_c, 0, 82, 32
1, 69924, Note_on_c, 0, 84, 43
1, 69931, Note_on_c, 0, 80, 42
1, 69957, Note_on_c, 0, 77, 37
1, 69990, Note_off_c, 0, 84, 59
1, 69999, Note_on_c, 0, 72, 9
1, 70037, Note_off_c, 0, 80, 51
1, 70062, Note_off_c, 0, 72, 41
1, 70178, Note_on_c, 0, 75, 35
1, 70210, Note_off_c, 0, 77, 44
1, 70216, Poly_aftertouch_c, 0, 72, 127
1, 70218, Poly_aftertouch_c, 0, 68, 127
1, 70269, Poly_aftertouch_c, 0, 68, 0
1, 70287, Poly_aftertouch_c, 0, 72, 0
1, 70344, Note_off_c, 0, 75, 42
1, 70460, Control_c, 0, 64, 102
1, 70463, Note_on_c, 0, 82, 58
1, 70475, Control_c, 0, 64, 81
1, 70484, Note_on_c, 0, 56, 46
1, 70490, Control_c, 0, 64, 67
1, 70494, Note_on_c, 0, 66, 40
1, 70496, Note_on_c, 0, 78, 36
1, 70505, Control_c, 0, 64, 51
1, 70511, Note_on_c, 0, 63, 31
1, 70520, Control_c, 0, 64, 56
1, 70535, Control_c, 0, 64, 65
1, 70544, Note_off_c, 0, 56, 60
1, 70549, Control_c, 0, 64, 71
1, 70555, Poly_aftertouch_c, 0, 72, 127
1, 70562, Note_off_c, 0, 63, 55
1, 70563, Note_off_c, 0, 82, 49
1, 70564, Note_off_c, 0, 66, 61
1, 70564, Control_c, 0, 64, 86
1, 70579, Control_c, 0, 64, 116
1, 70593, Control_c, 0, 64, 127
1, 70610, Note_off_c, 0, 78, 42
1, 70624, Poly_aftertouch_c, 0, 72, 0
1, 70648, Note_on_c, 0, 70, 55
1, 70806, Note_on_c, 0, 84, 67
1, 70810, Note_on_c, 0, 72, 50
1, 70812, Note_off_c, 0, 70, 0
1, 70816, Note_on_c, 0, 80, 55
1, 70818, Note_on_c, 0, 78, 60
1, 70828, Note_off_c, 0, 84, 69
1, 70831, Note_on_c, 0, 70, 27
1, 70843, Note_off_c, 0, 80, 63
1, 70889, Note_off_c, 0, 72, 60
1, 70907, Note_off_c, 0, 70, 53
1, 70920, Note_off_c, 0, 78, 61
1, 70960, Note_on_c, 0, 68, 61
1, 71065, Note_off_c, 0, 68, 54
1, 71105, Control_c, 0, 64, 110
1, 71120, Control_c, 0, 64, 84
1, 71123, Note_on_c, 0, 80, 67
1, 71134, Note_on_c, 0, 54, 58
1, 71134, Control_c, 0, 64, 63
1, 71141, Note_on_c, 0, 70, 51
1, 71142, Note_on_c, 0, 76, 50
1, 71146, Note_on_c, 0, 64, 51
1, 71149, Control_c, 0, 64, 0
1, 71155, Note_on_c, 0, 61, 44
1, 71164, Control_c, 0, 64, 38
1, 71174, Note_off_c, 0, 54, 62
1, 71178, Control_c, 0, 64, 63
1, 71184, Note_off_c, 0, 64, 65
1, 71193, Control_c, 0, 64, 72
1, 71195, Note_off_c, 0, 61, 61
1, 71208, Control_c, 0, 64, 86
1, 71223, Control_c, 0, 64, 114
1, 71238, Control_c, 0, 64, 127
1, 71257, Note_off_c, 0, 70, 0
1, 71288, Note_on_c, 0, 68, 55
1, 71295, Poly_aftertouch_c, 0, 70, 127
1, 71301, Note_off_c, 0, 80, 31
1, 71375, Note_off_c, 0, 68, 53
1, 71378, Poly_aftertouch_c, 0, 70, 0
1, 71443, Note_on_c, 0, 87, 79
1, 71444, Note_off_c, 0, 76, 0
1, 71450, Note_on_c, 0, 80, 66
1, 71450, Note_on_c, 0, 82, 63
1, 71468, Note_on_c, 0, 76, 20
1, 71473, Note_on_c, 0, 68, 53
1, 71476, Note_off_c, 0, 87, 62
1, 71479, Note_on_c, 0, 70, 59
1, 71486, Note_off_c, 0, 82, 61
1, 71504, Note_off_c, 0, 68, 64
1, 71504, Note_off_c, 0, 80, 61
1, 71530, Note_off_c, 0, 70, 53
1, 71599, Note_on_c, 0, 66, 68
1, 71620, Note_on_c, 0, 78, 45
1, 71640, Note_off_c, 0, 66, 57
1, 71645, Note_off_c, 0, 76, 25
1, 71645, Note_off_c, 0, 78, 58
1, 71751, Control_c, 0, 64, 89
1, 71755, Note_on_c, 0, 78, 47
1, 71766, Control_c, 0, 64, 68
1, 71769, Note_on_c, 0, 82, 70
1, 71777, Note_on_c, 0, 66, 57
1, 71781, Note_on_c, 0, 56, 59
1, 71781, Control_c, 0, 64, 0
1, 71790, Note_on_c, 0, 72, 46
1, 71798, Note_on_c, 0, 63, 50
1, 71810, Control_c, 0, 64, 43
1, 71822, Note_off_c, 0, 56, 59
1, 71825, Control_c, 0, 64, 68
1, 71840, Control_c, 0, 64, 82
1, 71840, Note_off_c, 0, 82, 62
1, 71842, Note_off_c, 0, 63, 61
1, 71843, Note_off_c, 0, 66, 61
1, 71855, Control_c, 0, 64, 110
1, 71870, Control_c, 0, 64, 127
1, 71886, Note_off_c, 0, 72, 61
1, 71892, Note_off_c, 0, 78, 60
1, 71933, Note_on_c, 0, 70, 60
1, 72040, Note_off_c, 0, 70, 54
1, 72092, Note_on_c, 0, 84, 77
1, 72100, Note_on_c, 0, 80, 66
1, 72108, Note_on_c, 0, 78, 63
1, 72114, Note_on_c, 0, 72, 52
1, 72123, Note_off_c, 0, 84, 62
1, 72130, Note_on_c, 0, 70, 36
1, 72146, Note_off_c, 0, 80, 57
1, 72192, Note_off_c, 0, 72, 60
1, 72199, Note_off_c, 0, 70, 58
1, 72213, Note_off_c, 0, 78, 61
1, 72251, Note_on_c, 0, 68, 60
1, 72347, Note_off_c, 0, 68, 58
1, 72374, Control_c, 0, 64, 100
1, 72389, Control_c, 0, 64, 77
1, 72404, Control_c, 0, 64, 57
1, 72406, Note_on_c, 0, 80, 68
1, 72418, Control_c, 0, 64, 0
1, 72420, Note_on_c, 0, 54, 62
1, 72421, Note_on_c, 0, 64, 60
1, 72422, Note_on_c, 0, 70, 55
1, 72427, Note_on_c, 0, 76, 51
1, 72433, Note_on_c, 0, 61, 43
1, 72448, Control_c, 0, 64, 63
1, 72457, Note_off_c, 0, 54, 65
1, 72463, Control_c, 0, 64, 78
1, 72477, Note_off_c, 0, 64, 62
1, 72482, Note_off_c, 0, 61, 61
1, 72485, Control_c, 0, 64, 96
1, 72500, Control_c, 0, 64, 127
1, 72546, Note_off_c, 0, 80, 52
1, 72576, Note_on_c, 0, 68, 51
1, 72657, Note_off_c, 0, 68, 56
1, 72674, Note_off_c, 0, 70, 43
1, 72681, Note_off_c, 0, 76, 49
1, 72733, Note_on_c, 0, 87, 80
1, 72734, Note_on_c, 0, 80, 66
1, 72743, Note_on_c, 0, 82, 65
1, 72754, Note_on_c, 0, 76, 30
1, 72761, Note_on_c, 0, 70, 51
1, 72764, Note_off_c, 0, 87, 63
1, 72770, Note_on_c, 0, 68, 52
1, 72773, Note_off_c, 0, 82, 63
1, 72788, Note_off_c, 0, 80, 61
1, 72791, Note_off_c, 0, 68, 62
1, 72824, Note_off_c, 0, 70, 62
1, 72864, Note_off_c, 0, 76, 33
1, 72892, Note_on_c, 0, 66, 67
1, 72911, Note_on_c, 0, 78, 46
1, 72935, Note_off_c, 0, 78, 60
1, 72943, Note_off_c, 0, 66, 57
1, 73019, Control_c, 0, 64, 97
1, 73034, Control_c, 0, 64, 70
1, 73046, Note_on_c, 0, 78, 44
1, 73048, Control_c, 0, 64, 0
1, 73055, Note_on_c, 0, 82, 72
1, 73064, Note_on_c, 0, 56, 60
1, 73064, Note_on_c, 0, 66, 56
1, 73077, Note_on_c, 0, 72, 45
1, 73080, Note_on_c, 0, 63, 45
1, 73093, Control_c, 0, 64, 65
1, 73108, Control_c, 0, 64, 79
1, 73112, Note_off_c, 0, 56, 59
1, 73122, Control_c, 0, 64, 102
1, 73125, Note_off_c, 0, 82, 63
1, 73132, Note_off_c, 0, 66, 60
1, 73133, Note_off_c, 0, 63, 58
1, 73137, Control_c, 0, 64, 127
1, 73165, Note_off_c, 0, 72, 61
1, 73173, Note_off_c, 0, 78, 61
1, 73205, Note_on_c, 0, 70, 60
1, 73316, Note_off_c, 0, 70, 57
1, 73383, Note_on_c, 0, 84, 76
1, 73393, Note_on_c, 0, 80, 63
1, 73396, Note_on_c, 0, 72, 51
1, 73396, Note_on_c, 0, 78, 59
1, 73406, Note_off_c, 0, 84, 66
1, 73420, Note_on_c, 0, 70, 41
1, 73422, Note_off_c, 0, 80, 63
1, 73478, Note_off_c, 0, 70, 59
1, 73480, Note_off_c, 0, 72, 61
1, 73484, Note_off_c, 0, 78, 62
1, 73529, Note_on_c, 0, 68, 59
1, 73620, Note_off_c, 0, 68, 58
1, 73648, Control_c, 0, 64, 120
1, 73663, Control_c, 0, 64, 87
1, 73678, Control_c, 0, 64, 66
1, 73681, Note_on_c, 0, 80, 63
1, 73693, Control_c, 0, 64, 0
1, 73695, Note_on_c, 0, 76, 56
1, 73703, Note_on_c, 0, 70, 55
1, 73709, Note_on_c, 0, 54, 62
1, 73713, Note_on_c, 0, 64, 52
1, 73722, Control_c, 0, 64, 44
1, 73729, Note_on_c, 0, 61, 32
1, 73737, Control_c, 0, 64, 68
1, 73743, Note_off_c, 0, 54, 62
1, 73752, Control_c, 0, 64, 81
1, 73755, Note_off_c, 0, 64, 65
1, 73758, Note_off_c, 0, 80, 62
1, 73766, Control_c, 0, 64, 107
1, 73768, Note_off_c, 0, 61, 48
1, 73781, Control_c, 0, 64, 127
1, 73785, Note_off_c, 0, 70, 57
1, 73794, Note_off_c, 0, 76, 52
1, 73827, Note_on_c, 0, 68, 52
1, 73912, Note_off_c, 0, 68, 52
1, 74005, Note_on_c, 0, 82, 72
1, 74010, Note_on_c, 0, 78, 63
1, 74020, Note_on_c, 0, 70, 53
1, 74020, Note_on_c, 0, 76, 61
1, 74028, Note_off_c, 0, 82, 69
1, 74039, Note_off_c, 0, 78, 67
1, 74042, Note_on_c, 0, 68, 48
1, 74080, Note_off_c, 0, 68, 59
1, 74080, Note_off_c, 0, 76, 60
1, 74092, Note_off_c, 0, 70, 63
1, 74155, Note_on_c, 0, 66, 49
1, 74230, Note_off_c, 0, 66, 58
1, 74279, Control_c, 0, 64, 91
1, 74293, Control_c, 0, 64, 69
1, 74308, Note_on_c, 0, 78, 63
1, 74308, Control_c, 0, 64, 0
1, 74319, Note_on_c, 0, 52, 51
1, 74327, Note_on_c, 0, 74, 52
1, 74328, Note_on_c, 0, 59, 52
1, 74335, Note_on_c, 0, 68, 55
1, 74336, Note_on_c, 0, 62, 42
1, 74350, Note_off_c, 0, 52, 64
1, 74352, Control_c, 0, 64, 61
1, 74365, Note_off_c, 0, 59, 62
1, 74367, Control_c, 0, 64, 77
1, 74372, Note_off_c, 0, 62, 63
1, 74377, Note_off_c, 0, 78, 63
1, 74382, Control_c, 0, 64, 99
1, 74392, Note_off_c, 0, 74, 61
1, 74396, Control_c, 0, 64, 127
1, 74398, Note_off_c, 0, 68, 58
1, 74447, Note_on_c, 0, 66, 50
1, 74472, Note_off_c, 0, 66, 60
1, 74615, Note_on_c, 0, 80, 59
1, 74628, Note_on_c, 0, 76, 65
1, 74633, Note_on_c, 0, 74, 53
1, 74636, Note_on_c, 0, 68, 48
1, 74649, Note_off_c, 0, 80, 62
1, 74651, Note_on_c, 0, 66, 35
1, 74655, Note_off_c, 0, 76, 66
1, 74696, Note_off_c, 0, 66, 47
1, 74701, Note_off_c, 0, 74, 60
1, 74714, Note_off_c, 0, 68, 61
1, 74768, Note_on_c, 0, 64, 54
1, 74842, Note_off_c, 0, 64, 48
1, 74849, Control_c, 0, 64, 112
1, 74864, Control_c, 0, 64, 92
1, 74879, Control_c, 0, 64, 73
1, 74894, Control_c, 0, 64, 0
1, 74916, Note_on_c, 0, 77, 56
1, 74924, Note_on_c, 0, 74, 54
1, 74941, Note_on_c, 0, 70, 41
1, 74943, Note_on_c, 0, 46, 57
1, 74951, Note_on_c, 0, 58, 47
1, 74960, Note_on_c, 0, 53, 39
1, 74982, Control_c, 0, 64, 66
1, 74995, Note_off_c, 0, 77, 58
1, 74997, Control_c, 0, 64, 81
1, 75001, Note_off_c, 0, 46, 61
1, 75003, Note_off_c, 0, 53, 63
1, 75012, Control_c, 0, 64, 112
1, 75027, Control_c, 0, 64, 127
1, 75030, Note_off_c, 0, 58, 59
1, 75034, Note_off_c, 0, 70, 55
1, 75045, Note_off_c, 0, 74, 54
1, 75071, Note_on_c, 0, 65, 52
1, 75113, Note_off_c, 0, 65, 59
1, 75218, Note_on_c, 0, 70, 59
1, 75219, Note_on_c, 0, 62, 50
1, 75244, Note_off_c, 0, 70, 66
1, 75256, Note_off_c, 0, 62, 62
1, 75362, Note_on_c, 0, 65, 57
1, 75425, Note_off_c, 0, 65, 57
1, 75480, Control_c, 0, 64, 96
1, 75495, Control_c, 0, 64, 67
1, 75509, Note_on_c, 0, 78, 69
1, 75510, Control_c, 0, 64, 0
1, 75510, Note_on_c, 0, 74, 65
1, 75525, Note_on_c, 0, 62, 56
1, 75527, Note_on_c, 0, 59, 56
1, 75528, Note_on_c, 0, 52, 48
1, 75536, Note_on_c, 0, 68, 58
1, 75554, Control_c, 0, 64, 44
1, 75557, Note_off_c, 0, 52, 54
1, 75557, Note_off_c, 0, 59, 64
1, 75563, Note_off_c, 0, 62, 64
1, 75568, Control_c, 0, 64, 73
1, 75576, Note_off_c, 0, 78, 63
1, 75583, Control_c, 0, 64, 96
1, 75598, Control_c, 0, 64, 127
1, 75602, Note_off_c, 0, 74, 58
1, 75606, Note_off_c, 0, 68, 61
1, 75657, Note_on_c, 0, 66, 49
1, 75683, Note_off_c, 0, 66, 62
1, 75810, Note_on_c, 0, 80, 64
1, 75826, Note_on_c, 0, 74, 58
1, 75831, Note_on_c, 0, 76, 63
1, 75835, Note_on_c, 0, 68, 48
1, 75846, Note_on_c, 0, 66, 21
1, 75848, Note_off_c, 0, 80, 60
1, 75856, Note_off_c, 0, 76, 65
1, 75888, Note_off_c, 0, 66, 48
1, 75893, Note_off_c, 0, 74, 62
1, 75909, Note_off_c, 0, 68, 59
1, 75962, Note_on_c, 0, 64, 51
1, 76020, Note_off_c, 0, 64, 49
1, 76087, Control_c, 0, 64, 92
1, 76102, Control_c, 0, 64, 70
1, 76111, Note_on_c, 0, 74, 51
1, 76116, Note_on_c, 0, 77, 56
1, 76116, Control_c, 0, 64, 0
1, 76133, Note_on_c, 0, 46, 54
1, 76136, Note_on_c, 0, 70, 45
1, 76140, Note_on_c, 0, 58, 47
1, 76156, Note_on_c, 0, 53, 29
1, 76161, Control_c, 0, 64, 23
1, 76175, Control_c, 0, 64, 66
1, 76183, Note_off_c, 0, 46, 61
1, 76190, Note_off_c, 0, 53, 62
1, 76191, Control_c, 0, 64, 79
1, 76194, Note_off_c, 0, 77, 54
1, 76206, Control_c, 0, 64, 100
1, 76219, Note_off_c, 0, 58, 61
1, 76228, Control_c, 0, 64, 127
1, 76236, Note_off_c, 0, 70, 57
1, 76245, Note_off_c, 0, 74, 58
1, 76275, Note_on_c, 0, 65, 50
1, 76323, Note_off_c, 0, 65, 54
1, 76419, Note_on_c, 0, 70, 57
1, 76426, Note_on_c, 0, 62, 51
1, 76447, Note_off_c, 0, 70, 66
1, 76457, Note_off_c, 0, 62, 63
1, 76556, Note_on_c, 0, 65, 48
1, 76633, Note_off_c, 0, 65, 60
1, 76672, Control_c, 0, 64, 106
1, 76687, Control_c, 0, 64, 79
1, 76702, Control_c, 0, 64, 49
1, 76712, Note_on_c, 0, 78, 58
1, 76715, Note_on_c, 0, 74, 50
1, 76717, Control_c, 0, 64, 0
1, 76717, Note_on_c, 0, 52, 46
1, 76729, Note_on_c, 0, 59, 44
1, 76732, Note_on_c, 0, 62, 39
1, 76746, Note_on_c, 0, 68, 38
1, 76746, Note_off_c, 0, 52, 59
1, 76746, Control_c, 0, 64, 57
1, 76761, Note_off_c, 0, 59, 62
1, 76761, Control_c, 0, 64, 75
1, 76762, Note_off_c, 0, 62, 60
1, 76776, Control_c, 0, 64, 97
1, 76780, Note_off_c, 0, 78, 60
1, 76790, Control_c, 0, 64, 127
1, 76821, Note_off_c, 0, 68, 58
1, 76821, Note_off_c, 0, 74, 58
1, 76853, Note_on_c, 0, 66, 46
1, 76881, Note_off_c, 0, 66, 62
1, 77067, Note_on_c, 0, 80, 50
1, 77080, Note_on_c, 0, 74, 44
1, 77092, Note_on_c, 0, 76, 44
1, 77102, Note_off_c, 0, 80, 63
1, 77104, Note_on_c, 0, 68, 26
1, 77113, Note_on_c, 0, 66, 23
1, 77117, Note_off_c, 0, 76, 56
1, 77151, Note_off_c, 0, 74, 36
1, 77155, Note_off_c, 0, 66, 49
1, 77219, Note_off_c, 0, 68, 40
1, 77244, Note_on_c, 0, 64, 44
1, 77316, Note_off_c, 0, 64, 42
1, 77421, Control_c, 0, 64, 91
1, 77436, Control_c, 0, 64, 72
1, 77438, Note_on_c, 0, 77, 46
1, 77441, Note_on_c, 0, 74, 40
1, 77451, Control_c, 0, 64, 0
1, 77457, Note_on_c, 0, 46, 48
1, 77457, Note_on_c, 0, 70, 38
1, 77470, Note_on_c, 0, 58, 40
1, 77485, Note_on_c, 0, 53, 23
1, 77495, Control_c, 0, 64, 45
1, 77510, Control_c, 0, 64, 68
1, 77525, Control_c, 0, 64, 81
1, 77534, Note_off_c, 0, 53, 58
1, 77536, Note_off_c, 0, 46, 61
1, 77540, Control_c, 0, 64, 104
1, 77543, Note_off_c, 0, 77, 39
1, 77555, Control_c, 0, 64, 127
1, 77564, Note_off_c, 0, 58, 59
1, 77566, Note_off_c, 0, 74, 60
1, 77593, Note_off_c, 0, 70, 36
1, 77603, Note_on_c, 0, 65, 48
1, 77649, Note_off_c, 0, 65, 58
1, 77769, Note_on_c, 0, 70, 58
1, 77780, Note_on_c, 0, 62, 41
1, 77796, Note_off_c, 0, 70, 65
1, 77865, Note_off_c, 0, 62, 53
1, 78141, Control_c, 0, 64, 102
1, 78156, Control_c, 0, 64, 84
1, 78168, Note_on_c, 0, 59, 47
1, 78170, Control_c, 0, 64, 68
1, 78172, Note_on_c, 0, 47, 43
1, 78178, Note_on_c, 0, 52, 49
1, 78179, Note_on_c, 0, 56, 45
1, 78179, Note_on_c, 0, 66, 46
1, 78185, Control_c, 0, 64, 42
1, 78195, Note_on_c, 0, 62, 30
1, 78200, Control_c, 0, 64, 34
1, 78215, Control_c, 0, 64, 60
1, 78230, Control_c, 0, 64, 67
1, 78244, Control_c, 0, 64, 74
1, 78255, Note_off_c, 0, 56, 57
1, 78256, Note_off_c, 0, 47, 63
1, 78259, Control_c, 0, 64, 85
1, 78262, Note_off_c, 0, 52, 61
1, 78263, Note_off_c, 0, 66, 57
1, 78274, Control_c, 0, 64, 106
1, 78289, Control_c, 0, 64, 127
1, 78315, Note_off_c, 0, 62, 27
1, 78318, Note_on_c, 0, 68, 60
1, 78325, Note_off_c, 0, 59, 59
1, 78326, Note_on_c, 0, 64, 46
1, 78348, Note_off_c, 0, 68, 64
1, 78352, Note_off_c, 0, 64, 63
1, 78475, Note_on_c, 0, 71, 67
1, 78485, Note_on_c, 0, 61, 60
1, 78507, Note_on_c, 0, 66, 37
1, 78514, Note_off_c, 0, 71, 59
1, 78534, Note_on_c, 0, 62, 53
1, 78538, Note_off_c, 0, 66, 55
1, 78568, Note_off_c, 0, 62, 60
1, 78610, Note_on_c, 0, 74, 61
1, 78613, Note_on_c, 0, 68, 54
1, 78632, Note_off_c, 0, 68, 63
1, 78635, Note_off_c, 0, 74, 66
1, 78689, Note_off_c, 0, 61, 55
1, 78741, Control_c, 0, 64, 108
1, 78753, Note_on_c, 0, 68, 57
1, 78756, Control_c, 0, 64, 82
1, 78762, Note_on_c, 0, 74, 49
1, 78765, Note_on_c, 0, 78, 59
1, 78766, Note_on_c, 0, 64, 52
1, 78768, Note_on_c, 0, 71, 60
1, 78769, Note_on_c, 0, 59, 55
1, 78771, Control_c, 0, 64, 65
1, 78786, Control_c, 0, 64, 14
1, 78801, Control_c, 0, 64, 50
1, 78815, Control_c, 0, 64, 64
1, 78830, Note_off_c, 0, 59, 61
1, 78830, Control_c, 0, 64, 72
1, 78840, Note_off_c, 0, 68, 58
1, 78845, Control_c, 0, 64, 86
1, 78846, Note_off_c, 0, 64, 63
1, 78847, Note_off_c, 0, 78, 58
1, 78860, Control_c, 0, 64, 104
1, 78875, Control_c, 0, 64, 127
1, 78890, Note_off_c, 0, 74, 38
1, 78897, Note_on_c, 0, 80, 69
1, 78908, Note_off_c, 0, 71, 59
1, 78911, Note_on_c, 0, 76, 53
1, 78930, Note_off_c, 0, 80, 63
1, 78934, Note_off_c, 0, 76, 59
1, 79036, Note_on_c, 0, 83, 74
1, 79044, Note_on_c, 0, 73, 71
1, 79080, Note_off_c, 0, 83, 64
1, 79087, Note_on_c, 0, 76, 43
1, 79131, Note_off_c, 0, 76, 61
1, 79162, Note_on_c, 0, 86, 75
1, 79177, Note_on_c, 0, 80, 47
1, 79196, Note_off_c, 0, 86, 60
1, 79199, Note_off_c, 0, 80, 59
1, 79239, Note_off_c, 0, 73, 54
1, 79297, Control_c, 0, 64, 103
1, 79311, Control_c, 0, 64, 77
1, 79313, Note_on_c, 0, 90, 75
1, 79316, Note_on_c, 0, 80, 64
1, 79319, Note_on_c, 0, 86, 67
1, 79323, Note_on_c, 0, 71, 57
1, 79326, Control_c, 0, 64, 59
1, 79330, Note_on_c, 0, 83, 62
1, 79332, Note_on_c, 0, 76, 58
1, 79341, Control_c, 0, 64, 17
1, 79356, Control_c, 0, 64, 59
1, 79371, Control_c, 0, 64, 68
1, 79387, Control_c, 0, 64, 80
1, 79402, Control_c, 0, 64, 98
1, 79408, Note_off_c, 0, 71, 62
1, 79415, Note_off_c, 0, 90, 61
1, 79416, Control_c, 0, 64, 127
1, 79417, Note_off_c, 0, 76, 60
1, 79419, Note_off_c, 0, 80, 55
1, 79422, Note_off_c, 0, 86, 57
1, 79462, Note_on_c, 0, 92, 74
1, 79469, Note_on_c, 0, 88, 58
1, 79487, Note_off_c, 0, 88, 65
1, 79505, Control_c, 0, 67, 127
1, 79507, Note_off_c, 0, 92, 63
1, 79511, Note_off_c, 0, 83, 59
1, 79520, Control_c, 0, 67, 110
1, 79535, Control_c, 0, 67, 85
1, 79550, Control_c, 0, 67, 58
1, 79564, Control_c, 0, 67, 38
1, 79579, Control_c, 0, 67, 31
1, 79609, Control_c, 0, 67, 34
1, 79610, Note_on_c, 0, 95, 73
1, 79613, Note_on_c, 0, 85, 61
1, 79623, Control_c, 0, 67, 37
1, 79625, Note_on_c, 0, 90, 59
1, 79638, Control_c, 0, 67, 40
1, 79653, Note_off_c, 0, 90, 66
1, 79653, Control_c, 0, 67, 41
1, 79668, Control_c, 0, 67, 42
1, 79672, Note_on_c, 0, 86, 64
1, 79674, Note_off_c, 0, 95, 62
1, 79698, Control_c, 0, 67, 42
1, 79713, Control_c, 0, 67, 41
1, 79728, Control_c, 0, 67, 40
1, 79734, Note_off_c, 0, 85, 37
1, 79737, Note_off_c, 0, 86, 57
1, 79742, Control_c, 0, 67, 40
1, 79757, Control_c, 0, 67, 39
1, 79757, Note_on_c, 0, 98, 67
1, 79761, Note_on_c, 0, 83, 59
1, 79770, Note_on_c, 0, 92, 56
1, 79783, Note_off_c, 0, 98, 67
1, 79787, Control_c, 0, 67, 39
1, 79788, Note_off_c, 0, 83, 67
1, 79791, Note_off_c, 0, 92, 60
1, 79861, Control_c, 0, 67, 38
1, 79876, Control_c, 0, 67, 38
1, 79890, Control_c, 0, 64, 96
1, 79890, Control_c, 0, 67, 37
1, 79905, Control_c, 0, 64, 72
1, 79905, Control_c, 0, 67, 36
1, 79920, Control_c, 0, 64, 0
1, 79920, Control_c, 0, 67, 35
1, 79934, Control_c, 0, 67, 33
1, 79942, Note_on_c, 0, 70, 75
1, 79949, Control_c, 0, 64, 63
1, 79949, Control_c, 0, 67, 31
1, 79972, Control_c, 0, 64, 73
1, 79972, Control_c, 0, 67, 27
1, 79987, Control_c, 0, 64, 94
1, 79987, Control_c, 0, 67, 18
1, 79987, Note_on_c, 0, 101, 81
1, 79988, Note_off_c, 0, 70, 55
1, 80002, Control_c, 0, 64, 127
1, 80002, Control_c, 0, 67, 0
1, 80029, Note_off_c, 0, 101, 61
1, 80031, Note_on_c, 0, 98, 80
1, 80076, Note_on_c, 0, 94, 70
1, 80081, Note_off_c, 0, 98, 66
1, 80097, Note_off_c, 0, 94, 71
1, 80108, Note_on_c, 0, 89, 84
1, 80130, Note_off_c, 0, 89, 67
1, 80139, Note_on_c, 0, 77, 39
1, 80168, Note_off_c, 0, 77, 56
1, 80183, Note_on_c, 0, 86, 72
1, 80184, Poly_aftertouch_c, 0, 82, 127
1, 80207, Note_on_c, 0, 82, 40
1, 80216, Note_off_c, 0, 86, 57
1, 80242, Note_off_c, 0, 82, 64
1, 80251, Note_on_c, 0, 77, 75
1, 80289, Note_off_c, 0, 77, 49
1, 80299, Note_on_c, 0, 82, 60
1, 80299, Control_c, 0, 67, 12
1, 80313, Control_c, 0, 67, 22
1, 80318, Note_off_c, 0, 82, 62
1, 80328, Control_c, 0, 67, 33
1, 80335, Note_on_c, 0, 86, 64
1, 80343, Control_c, 0, 67, 41
1, 80358, Control_c, 0, 67, 46
1, 80359, Note_off_c, 0, 86, 68
1, 80367, Note_on_c, 0, 88, 23
1, 80372, Control_c, 0, 67, 48
1, 80401, Note_on_c, 0, 82, 27
1, 80401, Note_on_c, 0, 77, 23
1, 80402, Control_c, 0, 67, 49
1, 80403, Note_off_c, 0, 88, 45
1, 80407, Poly_aftertouch_c, 0, 83, 0
1, 80418, Note_on_c, 0, 89, 74
1, 80437, Note_off_c, 0, 82, 52
1, 80440, Note_off_c, 0, 77, 55
1, 80461, Control_c, 0, 67, 48
1, 80469, Note_off_c, 0, 89, 42
1, 80475, Note_on_c, 0, 94, 63
1, 80476, Control_c, 0, 64, 109
1, 80491, Control_c, 0, 64, 75
1, 80496, Note_on_c, 0, 98, 66
1, 80502, Note_off_c, 0, 94, 67
1, 80506, Control_c, 0, 64, 0
1, 80514, Note_off_c, 0, 98, 67
1, 80521, Control_c, 0, 67, 50
1, 80535, Control_c, 0, 64, 42
1, 80535, Control_c, 0, 67, 52
1, 80540, Note_on_c, 0, 68, 62
1, 80550, Control_c, 0, 64, 73
1, 80550, Control_c, 0, 67, 59
1, 80562, Note_on_c, 0, 102, 92
1, 80565, Control_c, 0, 64, 92
1, 80565, Control_c, 0, 67, 69
1, 80569, Note_off_c, 0, 68, 64
1, 80580, Control_c, 0, 64, 127
1, 80580, Control_c, 0, 67, 78
1, 80595, Control_c, 0, 67, 82
1, 80610, Control_c, 0, 67, 83
1, 80639, Control_c, 0, 67, 82
1, 80654, Control_c, 0, 67, 81
1, 80658, Note_on_c, 0, 98, 64
1, 80669, Control_c, 0, 67, 80
1, 80683, Note_off_c, 0, 102, 62
1, 80684, Control_c, 0, 67, 80
1, 80699, Control_c, 0, 67, 79
1, 80720, Control_c, 0, 67, 78
1, 80742, Note_on_c, 0, 83, 48
1, 80749, Note_on_c, 0, 74, 48
1, 80764, Note_on_c, 0, 78, 43
1, 80765, Control_c, 0, 67, 79
1, 80774, Note_on_c, 0, 95, 51
1, 80780, Control_c, 0, 67, 79
1, 80795, Control_c, 0, 67, 80
1, 80810, Control_c, 0, 67, 81
1, 80825, Control_c, 0, 67, 81
1, 80839, Control_c, 0, 67, 82
1, 80841, Note_off_c, 0, 98, 61
1, 80845, Note_on_c, 0, 90, 60
1, 80854, Control_c, 0, 67, 83
1, 80872, Note_off_c, 0, 95, 45
1, 80884, Control_c, 0, 67, 83
1, 80899, Control_c, 0, 67, 84
1, 80913, Control_c, 0, 67, 84
1, 80917, Note_off_c, 0, 83, 33
1, 80921, Note_off_c, 0, 90, 61
1, 80928, Control_c, 0, 67, 86
1, 80942, Note_off_c, 0, 74, 38
1, 80943, Control_c, 0, 67, 90
1, 80945, Note_off_c, 0, 78, 34
1, 80958, Control_c, 0, 67, 94
1, 80972, Control_c, 0, 67, 97
1, 80976, Note_on_c, 0, 104, 72
1, 80988, Control_c, 0, 67, 98
1, 81003, Control_c, 0, 67, 99
1, 81018, Control_c, 0, 67, 99
1, 81033, Control_c, 0, 67, 100
1, 81062, Control_c, 0, 67, 100
1, 81064, Note_on_c, 0, 98, 48
1, 81070, Note_off_c, 0, 104, 61
1, 81092, Control_c, 0, 67, 101
1, 81105, Note_on_c, 0, 78, 48
1, 81107, Control_c, 0, 67, 101
1, 81108, Note_on_c, 0, 74, 52
1, 81114, Note_on_c, 0, 83, 25
1, 81122, Control_c, 0, 67, 102
1, 81128, Note_on_c, 0, 95, 49
1, 81133, Note_off_c, 0, 78, 63
1, 81140, Note_off_c, 0, 74, 66
1, 81147, Note_off_c, 0, 83, 48
1, 81151, Control_c, 0, 67, 102
1, 81155, Note_off_c, 0, 98, 62
1, 81165, Note_off_c, 0, 95, 52
1, 81177, Note_on_c, 0, 92, 52
1, 81181, Control_c, 0, 67, 103
1, 81210, Control_c, 0, 64, 112
1, 81211, Note_off_c, 0, 92, 62
1, 81225, Control_c, 0, 64, 79
1, 81240, Control_c, 0, 64, 67
1, 81255, Control_c, 0, 64, 71
1, 81264, Note_on_c, 0, 101, 81
1, 81267, Note_on_c, 0, 58, 67
1, 81269, Control_c, 0, 64, 82
1, 81284, Control_c, 0, 64, 104
1, 81294, Note_off_c, 0, 58, 68
1, 81299, Control_c, 0, 64, 127
1, 81310, Note_off_c, 0, 101, 63
1, 81314, Control_c, 0, 67, 103
1, 81320, Note_on_c, 0, 98, 73
1, 81328, Control_c, 0, 67, 104
1, 81343, Control_c, 0, 67, 104
1, 81352, Note_on_c, 0, 94, 68
1, 81358, Control_c, 0, 67, 105
1, 81365, Note_off_c, 0, 98, 64
1, 81373, Control_c, 0, 67, 109
1, 81381, Note_off_c, 0, 94, 64
1, 81388, Control_c, 0, 67, 117
1, 81396, Note_on_c, 0, 89, 74
1, 81403, Control_c, 0, 67, 127
1, 81415, Note_on_c, 0, 74, 53
1, 81419, Note_off_c, 0, 89, 68
1, 81421, Note_on_c, 0, 70, 52
1, 81427, Note_on_c, 0, 65, 59
1, 81436, Note_off_c, 0, 74, 62
1, 81442, Note_off_c, 0, 70, 62
1, 81463, Note_off_c, 0, 65, 65
1, 81479, Note_on_c, 0, 86, 65
1, 81524, Note_on_c, 0, 82, 64
1, 81524, Note_off_c, 0, 86, 63
1, 81552, Note_off_c, 0, 82, 66
1, 81558, Note_on_c, 0, 77, 74
1, 81580, Note_off_c, 0, 77, 72
1, 81640, Note_on_c, 0, 74, 71
1, 81662, Control_c, 0, 64, 108
1, 81677, Control_c, 0, 64, 90
1, 81677, Note_off_c, 0, 74, 63
1, 81692, Control_c, 0, 64, 76
1, 81695, Note_on_c, 0, 70, 48
1, 81701, Note_on_c, 0, 58, 58
1, 81707, Control_c, 0, 64, 59
1, 81719, Note_on_c, 0, 65, 55
1, 81721, Control_c, 0, 64, 0
1, 81732, Note_off_c, 0, 70, 47
1, 81732, Note_off_c, 0, 58, 62
1, 81756, Note_off_c, 0, 65, 63
1, 81776, Note_on_c, 0, 74, 35
1, 81807, Note_off_c, 0, 74, 54
1, 81847, Note_on_c, 0, 78, 61
1, 81850, Note_on_c, 0, 56, 45
1, 81856, Control_c, 0, 64, 51
1, 81871, Control_c, 0, 64, 64
1, 81885, Control_c, 0, 64, 71
1, 81900, Control_c, 0, 64, 78
1, 81912, Note_on_c, 0, 74, 46
1, 81915, Control_c, 0, 64, 88
1, 81930, Control_c, 0, 64, 97
1, 81945, Control_c, 0, 64, 107
1, 81959, Control_c, 0, 64, 120
1, 81974, Control_c, 0, 64, 127
1, 82007, Note_off_c, 0, 78, 49
1, 82029, Note_on_c, 0, 62, 42
1, 82035, Note_on_c, 0, 71, 46
1, 82036, Note_on_c, 0, 61, 43
1, 82092, Note_off_c, 0, 74, 59
1, 82109, Note_on_c, 0, 66, 48
1, 82122, Note_off_c, 0, 56, 41
1, 82130, Note_off_c, 0, 71, 52
1, 82158, Note_off_c, 0, 66, 56
1, 82187, Note_off_c, 0, 62, 37
1, 82222, Note_on_c, 0, 80, 54
1, 82258, Note_off_c, 0, 61, 40
1, 82298, Note_on_c, 0, 74, 44
1, 82343, Note_off_c, 0, 80, 34
1, 82348, Note_on_c, 0, 59, 48
1, 82354, Note_on_c, 0, 71, 49
1, 82379, Note_off_c, 0, 59, 63
1, 82404, Note_off_c, 0, 74, 61
1, 82406, Note_off_c, 0, 71, 57
1, 82425, Note_on_c, 0, 68, 50
1, 82458, Note_off_c, 0, 68, 63
1, 82470, Control_c, 0, 64, 95
1, 82485, Control_c, 0, 64, 75
1, 82500, Control_c, 0, 64, 65
1, 82512, Note_on_c, 0, 46, 53
1, 82515, Control_c, 0, 64, 67
1, 82525, Note_on_c, 0, 77, 65
1, 82530, Control_c, 0, 64, 74
1, 82541, Note_off_c, 0, 46, 61
1, 82544, Control_c, 0, 64, 84
1, 82559, Control_c, 0, 64, 110
1, 82574, Control_c, 0, 64, 127
1, 82575, Note_off_c, 0, 77, 62
1, 82592, Note_on_c, 0, 74, 70
1, 82652, Note_off_c, 0, 74, 63
1, 82657, Note_on_c, 0, 70, 62
1, 82660, Note_on_c, 0, 62, 55
1, 82674, Note_on_c, 0, 58, 46
1, 82678, Note_on_c, 0, 53, 58
1, 82683, Note_off_c, 0, 62, 62
1, 82685, Note_off_c, 0, 70, 67
1, 82703, Note_off_c, 0, 58, 58
1, 82706, Note_off_c, 0, 53, 67
1, 82716, Note_on_c, 0, 65, 52
1, 82740, Note_off_c, 0, 65, 60
1, 82789, Note_on_c, 0, 62, 60
1, 82812, Control_c, 0, 64, 99
1, 82827, Control_c, 0, 64, 82
1, 82841, Control_c, 0, 64, 63
1, 82846, Note_off_c, 0, 62, 59
1, 82856, Control_c, 0, 64, 0
1, 82919, Note_on_c, 0, 53, 51
1, 82962, Note_off_c, 0, 53, 67
1, 82990, Note_on_c, 0, 46, 47
1, 83056, Control_c, 0, 64, 24
1, 83066, Note_off_c, 0, 46, 46
1, 83071, Control_c, 0, 64, 57
1, 83086, Control_c, 0, 64, 66
1, 83095, Note_on_c, 0, 44, 57
1, 83101, Control_c, 0, 64, 74
1, 83115, Control_c, 0, 64, 83
1, 83116, Note_on_c, 0, 50, 45
1, 83117, Note_on_c, 0, 54, 34
1, 83122, Note_on_c, 0, 59, 42
1, 83126, Note_off_c, 0, 44, 64
1, 83130, Control_c, 0, 64, 95
1, 83145, Control_c, 0, 64, 105
1, 83159, Control_c, 0, 64, 119
1, 83174, Control_c, 0, 64, 127
1, 83175, Note_off_c, 0, 54, 51
1, 83191, Note_off_c, 0, 50, 55
1, 83221, Note_off_c, 0, 59, 56
1, 83258, Note_on_c, 0, 61, 51
1, 83288, Note_off_c, 0, 61, 63
1, 83397, Control_c, 0, 64, 100
1, 83409, Note_on_c, 0, 59, 59
1, 83410, Note_on_c, 0, 58, 75
1, 83412, Control_c, 0, 64, 85
1, 83424, Note_on_c, 0, 62, 48
1, 83427, Control_c, 0, 64, 76
1, 83442, Control_c, 0, 64, 73
1, 83457, Control_c, 0, 64, 75
1, 83462, Note_off_c, 0, 59, 53
1, 83472, Control_c, 0, 64, 81
1, 83479, Note_on_c, 0, 54, 54
1, 83487, Control_c, 0, 64, 89
1, 83501, Control_c, 0, 64, 106
1, 83510, Note_off_c, 0, 54, 65
1, 83516, Control_c, 0, 64, 127
1, 83533, Note_on_c, 0, 66, 59
1, 83538, Note_off_c, 0, 62, 58
1, 83561, Control_c, 0, 67, 126
1, 83567, Note_off_c, 0, 66, 64
1, 83576, Control_c, 0, 67, 111
1, 83590, Control_c, 0, 67, 83
1, 83605, Control_c, 0, 67, 55
1, 83620, Control_c, 0, 67, 29
1, 83635, Control_c, 0, 67, 10
1, 83650, Control_c, 0, 67, 0
1, 83657, Note_off_c, 0, 58, 36
1, 83687, Note_on_c, 0, 56, 67
1, 83697, Note_on_c, 0, 71, 65
1, 83710, Note_on_c, 0, 62, 61
1, 83722, Note_on_c, 0, 66, 46
1, 83722, Note_off_c, 0, 56, 66
1, 83748, Note_off_c, 0, 66, 63
1, 83767, Note_off_c, 0, 71, 62
1, 83788, Note_off_c, 0, 62, 56
1, 83853, Note_on_c, 0, 73, 73
1, 83884, Note_off_c, 0, 73, 64
1, 83968, Control_c, 0, 64, 107
1, 83982, Control_c, 0, 64, 74
1, 83987, Note_on_c, 0, 70, 87
1, 83997, Control_c, 0, 64, 0
1, 84007, Note_on_c, 0, 71, 55
1, 84016, Note_on_c, 0, 74, 61
1, 84042, Control_c, 0, 64, 59
1, 84044, Note_on_c, 0, 66, 58
1, 84055, Note_off_c, 0, 71, 54
1, 84056, Control_c, 0, 64, 70
1, 84072, Control_c, 0, 64, 84
1, 84087, Control_c, 0, 64, 102
1, 84101, Control_c, 0, 64, 127
1, 84106, Note_off_c, 0, 66, 61
1, 84124, Note_off_c, 0, 74, 62
1, 84129, Note_on_c, 0, 78, 69
1, 84157, Note_off_c, 0, 78, 64
1, 84236, Control_c, 0, 64, 108
1, 84251, Control_c, 0, 64, 76
1, 84266, Control_c, 0, 64, 0
1, 84270, Note_off_c, 0, 70, 63
1, 84281, Note_on_c, 0, 68, 66
1, 84286, Note_on_c, 0, 74, 70
1, 84291, Note_on_c, 0, 83, 62
1, 84295, Control_c, 0, 64, 57
1, 84299, Note_on_c, 0, 78, 44
1, 84307, Note_off_c, 0, 68, 66
1, 84310, Control_c, 0, 64, 72
1, 84324, Note_off_c, 0, 78, 58
1, 84325, Control_c, 0, 64, 88
1, 84340, Control_c, 0, 64, 127
1, 84349, Note_off_c, 0, 83, 61
1, 84354, Note_off_c, 0, 74, 61
1, 84433, Note_on_c, 0, 85, 71
1, 84468, Note_off_c, 0, 85, 65
1, 84525, Control_c, 0, 64, 105
1, 84539, Control_c, 0, 64, 69
1, 84554, Control_c, 0, 64, 0
1, 84578, Note_on_c, 0, 70, 67
1, 84584, Note_on_c, 0, 82, 59
1, 84584, Control_c, 0, 64, 54
1, 84589, Note_on_c, 0, 83, 59
1, 84590, Note_on_c, 0, 86, 58
1, 84599, Control_c, 0, 64, 71
1, 84613, Control_c, 0, 64, 90
1, 84613, Control_c, 0, 67, 8
1, 84614, Note_off_c, 0, 82, 51
1, 84625, Note_off_c, 0, 70, 62
1, 84628, Control_c, 0, 64, 127
1, 84628, Control_c, 0, 67, 13
1, 84640, Note_off_c, 0, 83, 54
1, 84643, Control_c, 0, 67, 18
1, 84658, Control_c, 0, 67, 26
1, 84673, Control_c, 0, 67, 37
1, 84676, Note_on_c, 0, 78, 50
1, 84688, Control_c, 0, 67, 46
1, 84703, Note_off_c, 0, 86, 58
1, 84703, Control_c, 0, 67, 53
1, 84732, Control_c, 0, 67, 52
1, 84738, Note_off_c, 0, 78, 63
1, 84741, Note_on_c, 0, 80, 59
1, 84742, Note_on_c, 0, 90, 63
1, 84747, Control_c, 0, 67, 51
1, 84748, Note_on_c, 0, 68, 59
1, 84762, Control_c, 0, 67, 50
1, 84769, Note_off_c, 0, 90, 68
1, 84799, Note_off_c, 0, 68, 52
1, 84806, Control_c, 0, 67, 50
1, 84813, Note_off_c, 0, 80, 61
1, 84820, Control_c, 0, 67, 49
1, 84835, Control_c, 0, 67, 48
1, 84865, Control_c, 0, 67, 47
1, 84879, Control_c, 0, 64, 105
1, 84894, Control_c, 0, 64, 71
1, 84909, Control_c, 0, 64, 0
1, 84909, Control_c, 0, 67, 46
1, 84923, Control_c, 0, 67, 44
1, 84934, Note_on_c, 0, 67, 62
1, 84938, Control_c, 0, 67, 40
1, 84953, Control_c, 0, 64, 64
1, 84953, Control_c, 0, 67, 35
1, 84965, Note_on_c, 0, 98, 78
1, 84965, Note_off_c, 0, 67, 64
1, 84968, Control_c, 0, 64, 82
1, 84968, Control_c, 0, 67, 27
1, 84984, Control_c, 0, 64, 127
1, 84984, Control_c, 0, 67, 9
1, 84999, Control_c, 0, 67, 0
1, 85004, Note_off_c, 0, 98, 56
1, 85010, Note_on_c, 0, 95, 79
1, 85056, Note_on_c, 0, 91, 72
1, 85058, Note_off_c, 0, 95, 66
1, 85078, Note_off_c, 0, 91, 70
1, 85090, Note_on_c, 0, 79, 65
1, 85094, Note_on_c, 0, 74, 67
1, 85094, Note_on_c, 0, 86, 75
1, 85106, Note_off_c, 0, 79, 65
1, 85112, Note_off_c, 0, 74, 67
1, 85114, Note_off_c, 0, 86, 72
1, 85159, Note_on_c, 0, 83, 80
1, 85189, Note_on_c, 0, 79, 67
1, 85226, Note_off_c, 0, 83, 63
1, 85239, Note_off_c, 0, 79, 60
1, 85245, Note_on_c, 0, 74, 74
1, 85290, Note_off_c, 0, 74, 67
1, 85296, Note_on_c, 0, 79, 58
1, 85324, Note_off_c, 0, 79, 64
1, 85326, Note_on_c, 0, 83, 84
1, 85343, Note_off_c, 0, 83, 74
1, 85373, Note_on_c, 0, 74, 68
1, 85388, Note_on_c, 0, 79, 31
1, 85395, Note_off_c, 0, 74, 71
1, 85404, Note_on_c, 0, 86, 66
1, 85422, Note_off_c, 0, 79, 52
1, 85447, Note_on_c, 0, 91, 70
1, 85451, Note_off_c, 0, 86, 56
1, 85466, Note_on_c, 0, 95, 70
1, 85466, Control_c, 0, 64, 77
1, 85469, Note_off_c, 0, 91, 69
1, 85480, Control_c, 0, 64, 0
1, 85489, Note_off_c, 0, 95, 71
1, 85495, Control_c, 0, 67, 19
1, 85510, Control_c, 0, 67, 57
1, 85525, Control_c, 0, 64, 61
1, 85525, Control_c, 0, 67, 104
1, 85534, Note_on_c, 0, 99, 87
1, 85539, Note_on_c, 0, 60, 68
1, 85540, Control_c, 0, 64, 73
1, 85540, Control_c, 0, 67, 127
1, 85554, Control_c, 0, 64, 90
1, 85566, Note_off_c, 0, 60, 66
1, 85569, Control_c, 0, 64, 127
1, 85597, Note_on_c, 0, 94, 76
1, 85621, Note_off_c, 0, 99, 63
1, 85698, Note_on_c, 0, 90, 66
1, 85723, Note_on_c, 0, 66, 46
1, 85725, Note_on_c, 0, 75, 47
1, 85726, Note_off_c, 0, 94, 51
1, 85730, Note_on_c, 0, 70, 46
1, 85761, Note_off_c, 0, 90, 63
1, 85780, Note_on_c, 0, 87, 64
1, 85844, Note_off_c, 0, 87, 64
1, 85907, Note_off_c, 0, 75, 37
1, 85908, Note_off_c, 0, 70, 55
1, 85910, Note_off_c, 0, 66, 50
1, 85910, Note_on_c, 0, 101, 84
1, 85967, Note_off_c, 0, 101, 47
1, 85987, Note_on_c, 0, 100, 16
1, 86008, Note_on_c, 0, 94, 66
1, 86033, Note_off_c, 0, 100, 28
1, 86050, Note_on_c, 0, 90, 69
1, 86062, Note_on_c, 0, 70, 49
1, 86063, Note_on_c, 0, 75, 36
1, 86065, Note_on_c, 0, 66, 51
1, 86086, Note_off_c, 0, 70, 61
1, 86090, Note_off_c, 0, 66, 63
1, 86095, Note_off_c, 0, 75, 55
1, 86095, Note_off_c, 0, 94, 63
1, 86110, Note_off_c, 0, 90, 62
1, 86135, Note_on_c, 0, 89, 56
1, 86155, Control_c, 0, 64, 102
1, 86166, Note_off_c, 0, 89, 57
1, 86170, Control_c, 0, 64, 73
1, 86184, Control_c, 0, 64, 59
1, 86199, Control_c, 0, 64, 65
1, 86207, Note_on_c, 0, 98, 85
1, 86214, Control_c, 0, 64, 74
1, 86216, Note_on_c, 0, 55, 66
1, 86229, Control_c, 0, 64, 88
1, 86232, Note_off_c, 0, 98, 59
1, 86244, Control_c, 0, 64, 127
1, 86245, Note_off_c, 0, 55, 65
1, 86247, Note_on_c, 0, 95, 80
1, 86288, Note_on_c, 0, 91, 75
1, 86295, Note_off_c, 0, 95, 66
1, 86312, Note_off_c, 0, 91, 65
1, 86333, Note_on_c, 0, 86, 68
1, 86355, Note_off_c, 0, 86, 70
1, 86372, Note_on_c, 0, 67, 60
1, 86375, Note_on_c, 0, 62, 54
1, 86406, Note_on_c, 0, 81, 75
1, 86454, Note_off_c, 0, 67, 60
1, 86463, Note_on_c, 0, 77, 60
1, 86464, Note_off_c, 0, 81, 61
1, 86484, Note_off_c, 0, 77, 66
1, 86488, Note_off_c, 0, 62, 62
1, 86502, Note_on_c, 0, 72, 68
1, 86524, Note_off_c, 0, 72, 70
1, 86578, Note_on_c, 0, 69, 66
1, 86605, Note_off_c, 0, 69, 66
1, 86618, Note_on_c, 0, 65, 58
1, 86640, Note_off_c, 0, 65, 63
1, 86660, Note_on_c, 0, 60, 59
1, 86680, Note_off_c, 0, 60, 62
1, 86681, Note_on_c, 0, 70, 62
1, 86712, Control_c, 0, 64, 110
1, 86719, Note_off_c, 0, 70, 51
1, 86726, Control_c, 0, 64, 103
1, 86741, Control_c, 0, 64, 95
1, 86756, Control_c, 0, 64, 85
1, 86771, Control_c, 0, 64, 71
1, 86786, Control_c, 0, 64, 0
1, 86806, Note_on_c, 0, 48, 54
1, 86808, Note_on_c, 0, 75, 64
1, 86860, Control_c, 0, 64, 52
1, 86875, Control_c, 0, 64, 65
1, 86885, Note_off_c, 0, 75, 53
1, 86889, Control_c, 0, 64, 72
1, 86892, Note_on_c, 0, 70, 64
1, 86904, Control_c, 0, 64, 80
1, 86919, Control_c, 0, 64, 88
1, 86933, Control_c, 0, 64, 96
1, 86948, Control_c, 0, 64, 102
1, 86963, Control_c, 0, 64, 108
1, 86969, Note_off_c, 0, 70, 61
1, 86971, Note_on_c, 0, 66, 45
1, 86978, Control_c, 0, 64, 117
1, 86993, Control_c, 0, 64, 127
1, 86995, Note_on_c, 0, 54, 42
1, 86996, Note_on_c, 0, 58, 26
1, 87002, Note_on_c, 0, 53, 42
1, 87011, Note_off_c, 0, 66, 47
1, 87016, Note_on_c, 0, 63, 45
1, 87037, Note_off_c, 0, 58, 53
1, 87043, Note_off_c, 0, 63, 60
1, 87138, Note_on_c, 0, 77, 59
1, 87162, Note_off_c, 0, 77, 57
1, 87180, Note_off_c, 0, 53, 45
1, 87196, Note_off_c, 0, 54, 44
1, 87210, Note_on_c, 0, 70, 53
1, 87265, Note_on_c, 0, 66, 44
1, 87304, Note_on_c, 0, 51, 48
1, 87314, Note_off_c, 0, 66, 53
1, 87331, Note_off_c, 0, 48, 21
1, 87333, Note_off_c, 0, 51, 59
1, 87342, Note_off_c, 0, 70, 35
1, 87361, Note_on_c, 0, 65, 50
1, 87401, Note_off_c, 0, 65, 61
1, 87460, Control_c, 0, 64, 110
1, 87475, Control_c, 0, 64, 92
1, 87488, Note_on_c, 0, 74, 61
1, 87490, Control_c, 0, 64, 74
1, 87504, Control_c, 0, 64, 35
1, 87511, Note_on_c, 0, 43, 44
1, 87519, Control_c, 0, 64, 0
1, 87522, Note_off_c, 0, 74, 61
1, 87534, Control_c, 0, 64, 50
1, 87542, Note_on_c, 0, 71, 63
1, 87544, Note_off_c, 0, 43, 50
1, 87549, Control_c, 0, 64, 66
1, 87563, Control_c, 0, 64, 73
1, 87578, Control_c, 0, 64, 84
1, 87588, Note_off_c, 0, 71, 63
1, 87593, Control_c, 0, 64, 100
1, 87597, Note_on_c, 0, 67, 64
1, 87608, Control_c, 0, 64, 127
1, 87615, Note_off_c, 0, 67, 64
1, 87642, Note_on_c, 0, 50, 57
1, 87648, Note_on_c, 0, 55, 44
1, 87648, Note_on_c, 0, 62, 55
1, 87672, Note_off_c, 0, 62, 59
1, 87672, Note_off_c, 0, 50, 65
1, 87678, Note_off_c, 0, 55, 55
1, 87727, Note_on_c, 0, 59, 40
1, 87756, Note_on_c, 0, 55, 61
1, 87757, Note_off_c, 0, 59, 55
1, 87785, Note_off_c, 0, 55, 65
1, 87812, Note_on_c, 0, 50, 50
1, 87858, Note_off_c, 0, 50, 66
1, 87863, Note_on_c, 0, 55, 58
1, 87924, Note_on_c, 0, 59, 47
1, 87930, Note_off_c, 0, 55, 57
1, 87960, Note_off_c, 0, 59, 61
1, 87983, Note_on_c, 0, 62, 32
1, 88017, Note_off_c, 0, 62, 49
1, 88032, Note_on_c, 0, 58, 62
1, 88037, Note_on_c, 0, 59, 56
1, 88055, Note_off_c, 0, 58, 65
1, 88062, Note_off_c, 0, 59, 59
1, 88077, Note_on_c, 0, 61, 70
1, 88092, Note_on_c, 0, 62, 68
1, 88098, Note_off_c, 0, 61, 65
1, 88119, Note_off_c, 0, 62, 64
1, 88199, Note_on_c, 0, 67, 62
1, 88209, Note_on_c, 0, 66, 45
1, 88219, Note_off_c, 0, 67, 62
1, 88238, Note_off_c, 0, 66, 55
1, 88258, Note_on_c, 0, 70, 63
1, 88282, Note_off_c, 0, 70, 67
1, 88286, Note_on_c, 0, 71, 58
1, 88305, Note_off_c, 0, 71, 66
1, 88387, Note_on_c, 0, 74, 44
1, 88396, Note_on_c, 0, 73, 33
1, 88413, Note_off_c, 0, 74, 59
1, 88431, Note_off_c, 0, 73, 54
1, 88446, Control_c, 0, 67, 117
1, 88448, Note_on_c, 0, 78, 59
1, 88460, Control_c, 0, 67, 100
1, 88474, Note_off_c, 0, 78, 66
1, 88475, Control_c, 0, 67, 76
1, 88489, Note_on_c, 0, 79, 54
1, 88490, Control_c, 0, 67, 44
1, 88504, Control_c, 0, 67, 20
1, 88512, Note_off_c, 0, 79, 64
1, 88519, Control_c, 0, 67, 0
1, 88611, Note_on_c, 0, 83, 48
1, 88630, Note_on_c, 0, 82, 44
1, 88633, Note_off_c, 0, 83, 62
1, 88661, Note_off_c, 0, 82, 64
1, 88697, Control_c, 0, 67, 9
1, 88703, Note_on_c, 0, 85, 48
1, 88712, Control_c, 0, 67, 16
1, 88727, Control_c, 0, 67, 25
1, 88742, Control_c, 0, 67, 34
1, 88757, Control_c, 0, 67, 44
1, 88771, Control_c, 0, 67, 57
1, 88776, Note_off_c, 0, 85, 60
1, 88786, Control_c, 0, 67, 72
1, 88790, Note_on_c, 0, 86, 41
1, 88801, Control_c, 0, 67, 84
1, 88816, Control_c, 0, 67, 97
1, 88831, Control_c, 0, 67, 110
1, 88845, Control_c, 0, 67, 123
1, 88860, Control_c, 0, 67, 127
1, 88889, Note_off_c, 0, 86, 41
1, 88995, Note_on_c, 0, 61, 48
1, 89001, Control_c, 0, 64, 115
1, 89016, Control_c, 0, 64, 107
1, 89031, Control_c, 0, 64, 98
1, 89046, Control_c, 0, 64, 88
1, 89061, Control_c, 0, 64, 77
1, 89076, Control_c, 0, 64, 64
1, 89091, Control_c, 0, 64, 0
1, 89130, Note_on_c, 0, 86, 78
1, 89224, Control_c, 0, 64, 43
1, 89239, Control_c, 0, 64, 68
1, 89254, Control_c, 0, 64, 78
1, 89269, Control_c, 0, 64, 97
1, 89283, Control_c, 0, 64, 127
1, 89363, Note_on_c, 0, 79, 41
1, 89418, Note_off_c, 0, 86, 37
1, 89470, Note_on_c, 0, 65, 28
1, 89501, Note_on_c, 0, 77, 44
1, 89598, Note_on_c, 0, 74, 53
1, 89633, Note_off_c, 0, 61, 38
1, 89643, Note_off_c, 0, 77, 45
1, 89666, Note_off_c, 0, 79, 24
1, 89699, Note_on_c, 0, 85, 66
1, 89720, Note_off_c, 0, 74, 51
1, 89791, Note_on_c, 0, 79, 27
1, 89829, Note_off_c, 0, 85, 61
1, 89885, Note_on_c, 0, 71, 36
1, 89892, Note_on_c, 0, 77, 36
1, 89921, Note_off_c, 0, 77, 58
1, 89928, Note_off_c, 0, 79, 37
1, 89940, Note_on_c, 0, 74, 52
1, 89976, Note_off_c, 0, 74, 63
1, 90042, Note_on_c, 0, 79, 64
1, 90067, Note_on_c, 0, 73, 45
1, 90083, Note_off_c, 0, 71, 37
1, 90093, Note_off_c, 0, 73, 57
1, 90134, Note_on_c, 0, 77, 56
1, 90155, Note_off_c, 0, 79, 55
1, 90219, Note_off_c, 0, 65, 42
1, 90265, Note_on_c, 0, 67, 49
1, 90269, Poly_aftertouch_c, 0, 71, 127
1, 90280, Note_off_c, 0, 77, 56
1, 90311, Note_off_c, 0, 67, 56
1, 90316, Poly_aftertouch_c, 0, 71, 0
1, 90351, Note_on_c, 0, 80, 71
1, 90368, Note_on_c, 0, 65, 34
1, 90420, Note_off_c, 0, 65, 55
1, 90452, Note_on_c, 0, 77, 64
1, 90494, Note_off_c, 0, 80, 55
1, 90539, Note_on_c, 0, 71, 44
1, 90578, Note_on_c, 0, 68, 53
1, 90594, Note_off_c, 0, 71, 56
1, 90594, Note_off_c, 0, 77, 59
1, 90638, Note_off_c, 0, 68, 55
1, 90715, Note_on_c, 0, 61, 39
1, 90781, Control_c, 0, 64, 112
1, 90784, Note_on_c, 0, 83, 63
1, 90796, Control_c, 0, 64, 98
1, 90811, Control_c, 0, 64, 84
1, 90826, Control_c, 0, 64, 70
1, 90841, Control_c, 0, 64, 0
1, 90915, Control_c, 0, 64, 47
1, 90930, Control_c, 0, 64, 63
1, 90941, Note_off_c, 0, 83, 54
1, 90945, Control_c, 0, 64, 68
1, 90953, Note_on_c, 0, 79, 59
1, 90960, Control_c, 0, 64, 74
1, 90974, Control_c, 0, 64, 82
1, 90989, Control_c, 0, 64, 92
1, 91004, Control_c, 0, 64, 102
1, 91019, Control_c, 0, 64, 117
1, 91034, Control_c, 0, 64, 127
1, 91058, Note_on_c, 0, 64, 34
1, 91064, Note_on_c, 0, 76, 52
1, 91073, Note_off_c, 0, 79, 48
1, 91105, Note_off_c, 0, 76, 61
1, 91142, Note_on_c, 0, 71, 48
1, 91165, Note_off_c, 0, 71, 60
1, 91229, Note_on_c, 0, 75, 58
1, 91259, Note_on_c, 0, 67, 45
1, 91278, Note_off_c, 0, 61, 39
1, 91285, Note_off_c, 0, 75, 59
1, 91308, Note_off_c, 0, 64, 32
1, 91314, Note_on_c, 0, 76, 58
1, 91353, Note_off_c, 0, 76, 56
1, 91387, Note_on_c, 0, 77, 60
1, 91392, Note_on_c, 0, 71, 55
1, 91434, Note_off_c, 0, 77, 56
1, 91448, Note_on_c, 0, 78, 63
1, 91501, Note_on_c, 0, 76, 52
1, 91503, Note_off_c, 0, 78, 63
1, 91526, Note_on_c, 0, 79, 64
1, 91555, Note_off_c, 0, 79, 64
1, 91583, Note_on_c, 0, 80, 63
1, 91608, Note_off_c, 0, 71, 34
1, 91633, Note_off_c, 0, 80, 62
1, 91654, Note_off_c, 0, 76, 38
1, 91657, Note_on_c, 0, 81, 63
1, 91696, Note_off_c, 0, 81, 58
1, 91729, Note_on_c, 0, 82, 62
1, 91797, Note_off_c, 0, 82, 63
1, 91824, Note_on_c, 0, 71, 43
1, 91834, Note_on_c, 0, 83, 57
1, 91885, Note_off_c, 0, 83, 52
1, 91923, Note_on_c, 0, 88, 63
1, 91963, Note_off_c, 0, 71, 38
1, 92018, Note_on_c, 0, 87, 61
1, 92046, Note_off_c, 0, 88, 52
1, 92102, Note_on_c, 0, 86, 55
1, 92112, Note_off_c, 0, 87, 60
1, 92158, Note_off_c, 0, 86, 56
1, 92216, Note_on_c, 0, 61, 40
1, 92279, Note_off_c, 0, 67, 38
1, 92308, Control_c, 0, 64, 118
1, 92321, Note_on_c, 0, 86, 66
1, 92323, Control_c, 0, 64, 108
1, 92337, Control_c, 0, 64, 98
1, 92352, Control_c, 0, 64, 83
1, 92367, Control_c, 0, 64, 71
1, 92382, Control_c, 0, 64, 57
1, 92397, Control_c, 0, 64, 0
1, 92426, Control_c, 0, 64, 27
1, 92441, Control_c, 0, 64, 58
1, 92456, Control_c, 0, 64, 65
1, 92471, Control_c, 0, 64, 69
1, 92486, Control_c, 0, 64, 75
1, 92492, Note_on_c, 0, 79, 49
1, 92501, Control_c, 0, 64, 83
1, 92516, Control_c, 0, 64, 94
1, 92531, Control_c, 0, 64, 106
1, 92545, Control_c, 0, 64, 127
1, 92549, Note_off_c, 0, 86, 37
1, 92592, Note_on_c, 0, 65, 40
1, 92605, Note_on_c, 0, 77, 52
1, 92677, Note_on_c, 0, 74, 53
1, 92698, Note_off_c, 0, 79, 37
1, 92715, Note_off_c, 0, 61, 42
1, 92724, Note_off_c, 0, 77, 49
1, 92766, Note_on_c, 0, 85, 72
1, 92775, Note_off_c, 0, 74, 49
1, 92845, Note_on_c, 0, 79, 44
1, 92859, Note_off_c, 0, 85, 64
1, 92903, Note_on_c, 0, 71, 34
1, 92925, Note_on_c, 0, 77, 56
1, 92946, Note_off_c, 0, 79, 57
1, 92963, Note_off_c, 0, 77, 60
1, 92987, Note_on_c, 0, 74, 55
1, 93014, Note_off_c, 0, 74, 62
1, 93064, Note_on_c, 0, 79, 73
1, 93069, Note_on_c, 0, 73, 58
1, 93098, Note_off_c, 0, 71, 30
1, 93114, Note_off_c, 0, 73, 61
1, 93148, Note_on_c, 0, 77, 67
1, 93186, Note_off_c, 0, 79, 56
1, 93203, Note_off_c, 0, 65, 47
1, 93210, Note_on_c, 0, 71, 49
1, 93272, Note_on_c, 0, 67, 54
1, 93282, Note_off_c, 0, 77, 60
1, 93294, Note_off_c, 0, 71, 63
1, 93324, Note_off_c, 0, 67, 58
1, 93353, Note_on_c, 0, 80, 80
1, 93364, Note_on_c, 0, 65, 43
1, 93403, Note_off_c, 0, 65, 60
1, 93443, Note_on_c, 0, 77, 72
1, 93493, Note_off_c, 0, 80, 58
1, 93511, Note_on_c, 0, 71, 59
1, 93557, Note_off_c, 0, 77, 62
1, 93562, Note_on_c, 0, 68, 59
1, 93562, Note_off_c, 0, 71, 60
1, 93592, Note_off_c, 0, 68, 64
1, 93646, Note_on_c, 0, 61, 49
1, 93714, Note_on_c, 0, 83, 81
1, 93746, Control_c, 0, 64, 114
1, 93761, Control_c, 0, 64, 102
1, 93777, Control_c, 0, 64, 88
1, 93791, Control_c, 0, 64, 70
1, 93806, Control_c, 0, 64, 0
1, 93874, Note_on_c, 0, 79, 63
1, 93881, Control_c, 0, 64, 35
1, 93882, Note_off_c, 0, 83, 57
1, 93896, Control_c, 0, 64, 61
1, 93911, Control_c, 0, 64, 69
1, 93925, Control_c, 0, 64, 78
1, 93940, Control_c, 0, 64, 89
1, 93947, Note_on_c, 0, 64, 43
1, 93955, Control_c, 0, 64, 102
1, 93970, Control_c, 0, 64, 127
1, 93971, Note_on_c, 0, 76, 59
1, 93988, Note_off_c, 0, 79, 55
1, 94011, Note_off_c, 0, 76, 61
1, 94048, Note_on_c, 0, 71, 52
1, 94069, Note_off_c, 0, 71, 63
1, 94110, Note_on_c, 0, 75, 61
1, 94119, Note_on_c, 0, 67, 58
1, 94134, Note_off_c, 0, 61, 34
1, 94156, Note_off_c, 0, 75, 60
1, 94179, Note_on_c, 0, 76, 72
1, 94219, Note_off_c, 0, 64, 32
1, 94242, Note_off_c, 0, 76, 60
1, 94252, Note_on_c, 0, 71, 61
1, 94254, Note_on_c, 0, 77, 72
1, 94313, Note_on_c, 0, 78, 69
1, 94328, Note_off_c, 0, 77, 52
1, 94356, Note_on_c, 0, 76, 66
1, 94364, Note_off_c, 0, 78, 65
1, 94382, Note_on_c, 0, 79, 65
1, 94412, Note_off_c, 0, 79, 63
1, 94438, Note_on_c, 0, 80, 68
1, 94441, Note_off_c, 0, 71, 34
1, 94493, Note_off_c, 0, 80, 63
1, 94506, Note_off_c, 0, 76, 36
1, 94510, Note_on_c, 0, 81, 69
1, 94556, Note_off_c, 0, 81, 60
1, 94570, Control_c, 0, 67, 123
1, 94584, Note_on_c, 0, 82, 68
1, 94585, Control_c, 0, 67, 111
1, 94600, Control_c, 0, 67, 98
1, 94614, Control_c, 0, 67, 81
1, 94629, Control_c, 0, 67, 64
1, 94636, Note_off_c, 0, 82, 62
1, 94644, Note_off_c, 0, 67, 31
1, 94644, Control_c, 0, 67, 48
1, 94659, Control_c, 0, 67, 36
1, 94673, Note_on_c, 0, 83, 62
1, 94674, Control_c, 0, 67, 26
1, 94675, Note_on_c, 0, 71, 44
1, 94689, Control_c, 0, 67, 20
1, 94704, Control_c, 0, 67, 17
1, 94709, Note_off_c, 0, 71, 63
1, 94710, Note_off_c, 0, 83, 56
1, 94719, Control_c, 0, 67, 16
1, 94750, Note_on_c, 0, 88, 62
1, 94763, Control_c, 0, 67, 17
1, 94778, Control_c, 0, 67, 18
1, 94793, Control_c, 0, 67, 19
1, 94808, Control_c, 0, 67, 19
1, 94822, Control_c, 0, 67, 20
1, 94823, Note_on_c, 0, 87, 63
1, 94841, Note_off_c, 0, 88, 57
1, 94852, Control_c, 0, 67, 21
1, 94866, Control_c, 0, 67, 21
1, 94881, Control_c, 0, 67, 22
1, 94900, Note_on_c, 0, 86, 61
1, 94909, Note_off_c, 0, 87, 62
1, 94911, Control_c, 0, 67, 22
1, 94926, Control_c, 0, 67, 23
1, 94942, Note_off_c, 0, 86, 60
1, 94963, Control_c, 0, 67, 23
1, 94993, Control_c, 0, 67, 24
1, 95047, Note_on_c, 0, 49, 52
1, 95052, Control_c, 0, 64, 118
1, 95066, Control_c, 0, 64, 92
1, 95081, Control_c, 0, 64, 74
1, 95096, Control_c, 0, 64, 55
1, 95098, Note_on_c, 0, 86, 62
1, 95111, Control_c, 0, 64, 28
1, 95111, Control_c, 0, 67, 23
1, 95126, Control_c, 0, 64, 60
1, 95126, Control_c, 0, 67, 22
1, 95140, Control_c, 0, 64, 69
1, 95140, Control_c, 0, 67, 22
1, 95155, Control_c, 0, 64, 80
1, 95163, Note_off_c, 0, 86, 60
1, 95166, Note_off_c, 0, 49, 61
1, 95170, Control_c, 0, 64, 96
1, 95179, Note_on_c, 0, 83, 60
1, 95185, Control_c, 0, 64, 127
1, 95225, Note_on_c, 0, 77, 57
1, 95249, Note_off_c, 0, 83, 62
1, 95270, Note_off_c, 0, 77, 59
1, 95273, Control_c, 0, 67, 22
1, 95288, Control_c, 0, 67, 23
1, 95311, Note_on_c, 0, 74, 41
1, 95338, Note_off_c, 0, 74, 57
1, 95347, Control_c, 0, 67, 23
1, 95368, Note_on_c, 0, 85, 75
1, 95431, Note_on_c, 0, 83, 65
1, 95452, Control_c, 0, 67, 24
1, 95468, Note_off_c, 0, 85, 60
1, 95491, Note_on_c, 0, 71, 55
1, 95495, Note_on_c, 0, 77, 55
1, 95497, Note_on_c, 0, 61, 50
1, 95507, Note_on_c, 0, 65, 41
1, 95509, Note_off_c, 0, 83, 65
1, 95526, Note_off_c, 0, 77, 67
1, 95541, Note_on_c, 0, 73, 59
1, 95544, Note_off_c, 0, 61, 57
1, 95548, Note_off_c, 0, 71, 54
1, 95550, Note_off_c, 0, 65, 58
1, 95568, Note_off_c, 0, 73, 66
1, 95627, Note_on_c, 0, 88, 81
1, 95634, Note_on_c, 0, 71, 50
1, 95643, Note_on_c, 0, 64, 54
1, 95667, Note_on_c, 0, 65, 33
1, 95673, Note_off_c, 0, 88, 60
1, 95708, Note_on_c, 0, 83, 65
1, 95757, Note_off_c, 0, 64, 53
1, 95768, Note_off_c, 0, 71, 38
1, 95771, Note_on_c, 0, 77, 66
1, 95780, Note_off_c, 0, 65, 29
1, 95794, Note_off_c, 0, 83, 62
1, 95812, Note_off_c, 0, 77, 62
1, 95833, Note_on_c, 0, 76, 61
1, 95874, Note_off_c, 0, 76, 57
1, 95914, Note_on_c, 0, 86, 79
1, 95919, Note_on_c, 0, 71, 46
1, 95924, Note_on_c, 0, 65, 46
1, 95929, Note_on_c, 0, 62, 52
1, 95943, Note_off_c, 0, 71, 60
1, 95954, Note_off_c, 0, 65, 62
1, 95965, Note_off_c, 0, 62, 61
1, 95968, Note_off_c, 0, 86, 60
1, 95978, Note_on_c, 0, 83, 69
1, 96007, Control_c, 0, 67, 24
1, 96029, Note_on_c, 0, 77, 63
1, 96053, Note_off_c, 0, 83, 63
1, 96066, Note_off_c, 0, 77, 61
1, 96089, Note_on_c, 0, 74, 63
1, 96096, Control_c, 0, 64, 110
1, 96111, Control_c, 0, 64, 91
1, 96126, Control_c, 0, 64, 76
1, 96128, Note_off_c, 0, 74, 57
1, 96140, Control_c, 0, 64, 64
1, 96156, Control_c, 0, 64, 59
1, 96167, Note_on_c, 0, 86, 74
1, 96168, Note_on_c, 0, 49, 63
1, 96171, Control_c, 0, 64, 64
1, 96185, Control_c, 0, 64, 68
1, 96194, Note_off_c, 0, 49, 62
1, 96200, Control_c, 0, 64, 74
1, 96215, Control_c, 0, 64, 80
1, 96216, Note_off_c, 0, 86, 56
1, 96225, Note_on_c, 0, 83, 70
1, 96230, Control_c, 0, 64, 88
1, 96245, Control_c, 0, 64, 96
1, 96260, Control_c, 0, 64, 105
1, 96275, Control_c, 0, 64, 124
1, 96290, Note_on_c, 0, 77, 68
1, 96290, Control_c, 0, 64, 127
1, 96291, Note_off_c, 0, 83, 63
1, 96325, Note_off_c, 0, 77, 63
1, 96337, Note_on_c, 0, 74, 63
1, 96367, Note_off_c, 0, 74, 67
1, 96409, Note_on_c, 0, 85, 86
1, 96416, Note_on_c, 0, 61, 60
1, 96416, Note_on_c, 0, 71, 59
1, 96427, Note_on_c, 0, 65, 46
1, 96476, Note_on_c, 0, 83, 69
1, 96513, Note_off_c, 0, 85, 61
1, 96519, Note_off_c, 0, 61, 50
1, 96534, Note_on_c, 0, 77, 68
1, 96537, Note_off_c, 0, 71, 38
1, 96562, Note_off_c, 0, 83, 63
1, 96576, Note_off_c, 0, 77, 60
1, 96576, Note_off_c, 0, 65, 39
1, 96580, Note_on_c, 0, 73, 68
1, 96605, Note_off_c, 0, 73, 66
1, 96663, Note_on_c, 0, 86, 90
1, 96671, Note_on_c, 0, 71, 52
1, 96682, Note_on_c, 0, 62, 49
1, 96695, Note_on_c, 0, 65, 48
1, 96720, Note_off_c, 0, 86, 57
1, 96725, Note_on_c, 0, 83, 73
1, 96775, Note_on_c, 0, 77, 71
1, 96786, Note_off_c, 0, 71, 39
1, 96815, Note_off_c, 0, 83, 62
1, 96825, Note_off_c, 0, 77, 63
1, 96834, Note_off_c, 0, 65, 34
1, 96841, Note_on_c, 0, 74, 70
1, 96876, Note_off_c, 0, 74, 62
1, 96910, Note_on_c, 0, 71, 53
1, 96929, Note_on_c, 0, 64, 55
1, 96936, Note_off_c, 0, 62, 24
1, 96947, Note_off_c, 0, 71, 65
1, 96949, Note_on_c, 0, 88, 90
1, 96971, Note_off_c, 0, 64, 65
1, 97010, Note_off_c, 0, 88, 61
1, 97040, Note_on_c, 0, 83, 47
1, 97053, Note_on_c, 0, 81, 63
1, 97072, Note_off_c, 0, 83, 0
1, 97072, Note_on_c, 0, 83, 5
1, 97100, Note_on_c, 0, 77, 70
1, 97101, Note_off_c, 0, 83, 48
1, 97147, Note_off_c, 0, 77, 61
1, 97157, Note_off_c, 0, 81, 45
1, 97163, Note_on_c, 0, 76, 68
1, 97195, Control_c, 0, 67, 25
1, 97213, Note_off_c, 0, 76, 55
1, 97252, Note_on_c, 0, 54, 58
1, 97283, Control_c, 0, 64, 117
1, 97298, Control_c, 0, 64, 93
1, 97303, Note_on_c, 0, 91, 83
1, 97313, Control_c, 0, 64, 74
1, 97313, Control_c, 0, 67, 25
1, 97328, Control_c, 0, 64, 57
1, 97342, Control_c, 0, 64, 0
1, 97357, Control_c, 0, 64, 50
1, 97357, Control_c, 0, 67, 25
1, 97359, Note_off_c, 0, 91, 62
1, 97372, Control_c, 0, 64, 64
1, 97381, Note_on_c, 0, 84, 68
1, 97387, Control_c, 0, 64, 72
1, 97402, Control_c, 0, 64, 84
1, 97416, Control_c, 0, 64, 101
1, 97428, Note_off_c, 0, 54, 57
1, 97431, Control_c, 0, 64, 127
1, 97433, Note_on_c, 0, 82, 70
1, 97455, Note_on_c, 0, 61, 60
1, 97458, Note_off_c, 0, 84, 57
1, 97491, Note_off_c, 0, 82, 61
1, 97493, Note_on_c, 0, 79, 69
1, 97542, Note_off_c, 0, 79, 58
1, 97559, Note_on_c, 0, 90, 80
1, 97580, Control_c, 0, 67, 25
1, 97587, Note_on_c, 0, 64, 54
1, 97602, Note_on_c, 0, 84, 64
1, 97651, Note_off_c, 0, 90, 64
1, 97669, Note_on_c, 0, 82, 69
1, 97676, Note_off_c, 0, 61, 55
1, 97685, Note_on_c, 0, 70, 68
1, 97685, Note_off_c, 0, 84, 64
1, 97699, Note_off_c, 0, 64, 62
1, 97703, Note_off_c, 0, 82, 58
1, 97724, Note_off_c, 0, 70, 63
1, 97729, Note_on_c, 0, 79, 51
1, 97750, Note_off_c, 0, 79, 58
1, 97792, Note_on_c, 0, 84, 83
1, 97816, Note_on_c, 0, 76, 72
1, 97849, Note_off_c, 0, 76, 58
1, 97852, Note_on_c, 0, 82, 77
1, 97881, Note_off_c, 0, 84, 62
1, 97911, Note_on_c, 0, 76, 48
1, 97956, Note_off_c, 0, 82, 62
1, 97961, Note_off_c, 0, 76, 57
1, 97984, Note_on_c, 0, 72, 68
1, 98021, Note_off_c, 0, 72, 58
1, 98041, Note_on_c, 0, 70, 71
1, 98062, Control_c, 0, 67, 26
1, 98065, Note_on_c, 0, 85, 84
1, 98066, Note_off_c, 0, 70, 66
1, 98121, Control_c, 0, 67, 26
1, 98127, Note_on_c, 0, 82, 76
1, 98164, Note_off_c, 0, 85, 63
1, 98191, Note_on_c, 0, 76, 69
1, 98221, Note_off_c, 0, 82, 62
1, 98226, Note_off_c, 0, 76, 61
1, 98236, Note_on_c, 0, 73, 68
1, 98279, Note_off_c, 0, 73, 61
1, 98296, Note_on_c, 0, 54, 68
1, 98343, Control_c, 0, 64, 96
1, 98355, Note_on_c, 0, 88, 89
1, 98358, Control_c, 0, 64, 75
1, 98373, Control_c, 0, 64, 36
1, 98388, Control_c, 0, 64, 0
1, 98417, Control_c, 0, 64, 59
1, 98432, Control_c, 0, 64, 70
1, 98433, Note_on_c, 0, 84, 77
1, 98433, Note_off_c, 0, 88, 58
1, 98447, Control_c, 0, 64, 84
1, 98447, Control_c, 0, 67, 26
1, 98452, Note_off_c, 0, 54, 59
1, 98462, Control_c, 0, 64, 107
1, 98470, Note_on_c, 0, 60, 58
1, 98477, Control_c, 0, 64, 127
1, 98501, Note_on_c, 0, 81, 74
1, 98506, Control_c, 0, 67, 25
1, 98522, Note_off_c, 0, 84, 62
1, 98536, Control_c, 0, 67, 25
1, 98549, Note_off_c, 0, 81, 63
1, 98567, Note_off_c, 0, 60, 60
1, 98571, Note_on_c, 0, 64, 61
1, 98577, Note_on_c, 0, 76, 67
1, 98606, Note_off_c, 0, 76, 62
1, 98630, Note_off_c, 0, 64, 62
1, 98643, Note_on_c, 0, 80, 68
1, 98655, Control_c, 0, 67, 24
1, 98663, Note_on_c, 0, 69, 66
1, 98705, Note_off_c, 0, 80, 62
1, 98707, Control_c, 0, 67, 24
1, 98717, Note_off_c, 0, 69, 58
1, 98726, Note_on_c, 0, 81, 71
1, 98776, Note_off_c, 0, 81, 62
1, 98784, Note_on_c, 0, 72, 63
1, 98791, Note_on_c, 0, 82, 78
1, 98796, Control_c, 0, 67, 23
1, 98840, Note_off_c, 0, 82, 65
1, 98859, Note_on_c, 0, 76, 69
1, 98860, Note_off_c, 0, 72, 60
1, 98861, Note_on_c, 0, 83, 78
1, 98911, Note_off_c, 0, 83, 62
1, 98924, Note_on_c, 0, 84, 79
1, 98940, Note_off_c, 0, 76, 61
1, 98959, Note_on_c, 0, 81, 72
1, 98974, Note_on_c, 0, 85, 82
1, 98992, Note_off_c, 0, 84, 62
1, 99017, Note_off_c, 0, 81, 62
1, 99026, Note_off_c, 0, 85, 66
1, 99041, Note_on_c, 0, 86, 77
1, 99056, Note_on_c, 0, 76, 66
1, 99062, Control_c, 0, 67, 23
1, 99077, Control_c, 0, 67, 22
1, 99086, Note_off_c, 0, 86, 65
1, 99092, Control_c, 0, 67, 22
1, 99098, Note_off_c, 0, 76, 59
1, 99099, Note_on_c, 0, 87, 85
1, 99106, Control_c, 0, 67, 21
1, 99107, Note_on_c, 0, 72, 61
1, 99121, Control_c, 0, 67, 20
1, 99133, Note_off_c, 0, 72, 67
1, 99136, Control_c, 0, 67, 18
1, 99147, Note_off_c, 0, 87, 66
1, 99151, Control_c, 0, 67, 16
1, 99166, Control_c, 0, 67, 13
1, 99172, Note_on_c, 0, 88, 83
1, 99181, Control_c, 0, 67, 0
1, 99217, Note_on_c, 0, 69, 66
1, 99223, Note_off_c, 0, 88, 63
1, 99226, Note_on_c, 0, 93, 81
1, 99270, Note_off_c, 0, 69, 56
1, 99280, Note_on_c, 0, 92, 77
1, 99291, Note_on_c, 0, 64, 60
1, 99309, Note_off_c, 0, 93, 64
1, 99332, Note_on_c, 0, 91, 80
1, 99333, Note_off_c, 0, 64, 63
1, 99336, Note_off_c, 0, 92, 67
1, 99351, Note_off_c, 0, 91, 71
1, 99364, Note_on_c, 0, 60, 41
1, 99390, Control_c, 0, 64, 82
1, 99394, Note_off_c, 0, 60, 56
1, 99404, Control_c, 0, 64, 55
1, 99419, Control_c, 0, 64, 0
1, 99421, Note_on_c, 0, 91, 86
1, 99437, Note_on_c, 0, 54, 71
1, 99456, Control_c, 0, 64, 55
1, 99470, Control_c, 0, 64, 70
1, 99476, Note_off_c, 0, 54, 63
1, 99484, Note_on_c, 0, 88, 80
1, 99485, Control_c, 0, 64, 90
1, 99494, Note_off_c, 0, 91, 55
1, 99500, Control_c, 0, 64, 127
1, 99546, Note_on_c, 0, 82, 78
1, 99563, Note_off_c, 0, 88, 62
1, 99592, Note_off_c, 0, 82, 63
1, 99610, Note_on_c, 0, 79, 66
1, 99639, Note_off_c, 0, 79, 65
1, 99671, Note_on_c, 0, 90, 91
1, 99731, Note_on_c, 0, 88, 72
1, 99765, Note_off_c, 0, 90, 63
1, 99777, Note_on_c, 0, 70, 57
1, 99779, Note_on_c, 0, 82, 73
1, 99781, Note_on_c, 0, 66, 55
1, 99781, Note_on_c, 0, 76, 58
1, 99798, Note_off_c, 0, 88, 64
1, 99814, Note_off_c, 0, 82, 61
1, 99822, Note_on_c, 0, 78, 68
1, 99823, Note_off_c, 0, 66, 56
1, 99823, Note_off_c, 0, 76, 56
1, 99841, Note_off_c, 0, 70, 50
1, 99846, Note_off_c, 0, 78, 68
1, 99909, Note_on_c, 0, 69, 65
1, 99909, Note_on_c, 0, 93, 90
1, 99920, Note_on_c, 0, 76, 60
1, 99928, Note_on_c, 0, 70, 40
1, 99955, Note_off_c, 0, 93, 57
1, 99975, Note_on_c, 0, 88, 73
1, 99986, Note_off_c, 0, 70, 50
1, 99987, Note_off_c, 0, 76, 44
1, 100001, Note_off_c, 0, 69, 55
1, 100031, Note_on_c, 0, 82, 80
1, 100060, Note_off_c, 0, 88, 61
1, 100081, Note_off_c, 0, 82, 64
1, 100091, Note_on_c, 0, 81, 65
1, 100123, Note_off_c, 0, 81, 60
1, 100161, Note_on_c, 0, 91, 88
1, 100167, Note_on_c, 0, 67, 65
1, 100169, Note_on_c, 0, 70, 57
1, 100189, Note_on_c, 0, 76, 27
1, 100205, Note_off_c, 0, 67, 65
1, 100206, Note_off_c, 0, 70, 66
1, 100221, Note_off_c, 0, 91, 60
1, 100226, Note_off_c, 0, 76, 51
1, 100227, Note_on_c, 0, 88, 75
1, 100273, Note_on_c, 0, 82, 76
1, 100301, Note_off_c, 0, 88, 62
1, 100325, Note_off_c, 0, 82, 63
1, 100334, Note_on_c, 0, 79, 69
1, 100353, Control_c, 0, 64, 93
1, 100367, Control_c, 0, 64, 74
1, 100368, Note_off_c, 0, 79, 59
1, 100382, Control_c, 0, 64, 64
1, 100397, Control_c, 0, 64, 65
1, 100404, Note_on_c, 0, 91, 86
1, 100405, Note_on_c, 0, 54, 69
1, 100412, Control_c, 0, 64, 71
1, 100427, Control_c, 0, 64, 81
1, 100427, Note_off_c, 0, 54, 65
1, 100441, Control_c, 0, 64, 103
1, 100456, Control_c, 0, 64, 127
1, 100461, Note_on_c, 0, 88, 81
1, 100480, Note_off_c, 0, 91, 42
1, 100522, Note_on_c, 0, 82, 75
1, 100538, Note_off_c, 0, 88, 62
1, 100570, Note_off_c, 0, 82, 63
1, 100580, Note_on_c, 0, 79, 67
1, 100606, Note_off_c, 0, 79, 66
1, 100646, Note_on_c, 0, 90, 96
1, 100651, Note_on_c, 0, 66, 60
1, 100651, Note_on_c, 0, 76, 64
1, 100662, Note_on_c, 0, 70, 50
1, 100698, Note_on_c, 0, 88, 71
1, 100741, Note_off_c, 0, 90, 62
1, 100752, Note_off_c, 0, 66, 56
1, 100758, Note_off_c, 0, 76, 50
1, 100761, Note_on_c, 0, 82, 74
1, 100785, Note_off_c, 0, 88, 62
1, 100794, Note_off_c, 0, 82, 62
1, 100800, Note_on_c, 0, 78, 70
1, 100811, Note_off_c, 0, 70, 35
1, 100826, Note_off_c, 0, 78, 67
1, 100880, Note_on_c, 0, 91, 99
1, 100889, Note_on_c, 0, 76, 63
1, 100901, Note_on_c, 0, 67, 57
1, 100910, Note_on_c, 0, 70, 59
1, 100943, Note_off_c, 0, 91, 56
1, 100943, Note_on_c, 0, 88, 70
1, 100978, Note_on_c, 0, 86, 38
1, 100986, Note_off_c, 0, 76, 49
1, 100993, Note_on_c, 0, 82, 74
1, 101011, Note_off_c, 0, 86, 35
1, 101017, Note_off_c, 0, 88, 63
1, 101026, Note_off_c, 0, 70, 37
1, 101031, Note_off_c, 0, 82, 61
1, 101044, Note_on_c, 0, 79, 74
1, 101044, Note_off_c, 0, 67, 37
1, 101075, Note_off_c, 0, 79, 59
1, 101120, Note_on_c, 0, 69, 64
1, 101125, Note_on_c, 0, 76, 45
1, 101130, Note_on_c, 0, 93, 100
1, 101147, Note_off_c, 0, 69, 67
1, 101152, Note_off_c, 0, 76, 56
1, 101184, Note_off_c, 0, 93, 49
1, 101186, Note_on_c, 0, 88, 70
1, 101211, Poly_aftertouch_c, 0, 70, 0
1, 101222, Note_on_c, 0, 89, 32
1, 101242, Note_on_c, 0, 82, 81
1, 101254, Note_off_c, 0, 89, 47
1, 101271, Note_off_c, 0, 88, 62
1, 101287, Note_off_c, 0, 82, 62
1, 101292, Note_on_c, 0, 81, 59
1, 101311, Note_off_c, 0, 81, 63
1, 101323, Control_c, 0, 64, 89
1, 101338, Control_c, 0, 64, 67
1, 101353, Control_c, 0, 64, 0
1, 101372, Note_on_c, 0, 96, 84
1, 101374, Note_on_c, 0, 55, 58
1, 101382, Control_c, 0, 64, 62
1, 101397, Control_c, 0, 64, 74
1, 101399, Note_off_c, 0, 96, 49
1, 101408, Note_on_c, 0, 95, 47
1, 101412, Control_c, 0, 64, 90
1, 101423, Note_on_c, 0, 89, 71
1, 101426, Control_c, 0, 64, 127
1, 101434, Note_off_c, 0, 95, 59
1, 101440, Note_off_c, 0, 55, 59
1, 101472, Note_on_c, 0, 85, 71
1, 101481, Note_on_c, 0, 61, 56
1, 101495, Note_off_c, 0, 89, 63
1, 101512, Note_off_c, 0, 85, 62
1, 101525, Note_on_c, 0, 84, 66
1, 101555, Note_off_c, 0, 84, 64
1, 101572, Note_on_c, 0, 65, 60
1, 101574, Note_off_c, 0, 61, 57
1, 101588, Note_on_c, 0, 94, 90
1, 101631, Note_on_c, 0, 89, 68
1, 101652, Note_on_c, 0, 70, 58
1, 101658, Note_off_c, 0, 65, 61
1, 101661, Note_off_c, 0, 94, 63
1, 101687, Note_on_c, 0, 85, 73
1, 101712, Note_off_c, 0, 89, 60
1, 101721, Note_off_c, 0, 85, 61
1, 101727, Note_off_c, 0, 70, 56
1, 101737, Note_on_c, 0, 82, 72
1, 101761, Note_off_c, 0, 82, 68
1, 101806, Note_on_c, 0, 58, 75
1, 101807, Note_on_c, 0, 87, 94
1, 101845, Note_off_c, 0, 58, 59
1, 101857, Note_on_c, 0, 85, 78
1, 101899, Note_off_c, 0, 87, 59
1, 101934, Note_on_c, 0, 80, 59
1, 101935, Note_off_c, 0, 85, 62
1, 101953, Note_off_c, 0, 80, 64
1, 101963, Note_on_c, 0, 75, 71
1, 101992, Note_off_c, 0, 75, 65
1, 102043, Note_on_c, 0, 88, 97
1, 102044, Note_on_c, 0, 68, 59
1, 102045, Note_on_c, 0, 73, 61
1, 102046, Note_on_c, 0, 64, 59
1, 102076, Note_off_c, 0, 73, 62
1, 102078, Note_off_c, 0, 64, 63
1, 102078, Note_off_c, 0, 68, 60
1, 102086, Control_c, 0, 64, 94
1, 102101, Note_on_c, 0, 85, 73
1, 102101, Control_c, 0, 64, 75
1, 102104, Note_off_c, 0, 88, 55
1, 102116, Control_c, 0, 64, 0
1, 102148, Note_on_c, 0, 80, 67
1, 102176, Note_off_c, 0, 80, 65
1, 102177, Note_off_c, 0, 85, 64
1, 102203, Note_on_c, 0, 76, 63
1, 102222, Note_off_c, 0, 76, 64
1, 102248, Control_c, 0, 64, 67
1, 102254, Note_on_c, 0, 61, 72
1, 102263, Control_c, 0, 64, 127
1, 102264, Note_on_c, 0, 91, 93
1, 102275, Note_on_c, 0, 89, 78
1, 102305, Note_off_c, 0, 91, 63
1, 102312, Note_on_c, 0, 88, 70
1, 102314, Note_off_c, 0, 89, 43
1, 102319, Note_off_c, 0, 61, 60
1, 102344, Note_on_c, 0, 86, 54
1, 102345, Note_off_c, 0, 86, 127
1, 102358, Note_on_c, 0, 83, 71
1, 102383, Note_off_c, 0, 88, 64
1, 102388, Note_on_c, 0, 67, 59
1, 102396, Note_off_c, 0, 83, 62
1, 102415, Note_on_c, 0, 79, 74
1, 102469, Note_off_c, 0, 79, 57
1, 102489, Note_off_c, 0, 67, 56
1, 102490, Note_on_c, 0, 80, 69
1, 102507, Note_on_c, 0, 71, 63
1, 102523, Note_off_c, 0, 80, 57
1, 102546, Note_on_c, 0, 81, 81
1, 102565, Note_off_c, 0, 71, 64
1, 102582, Note_on_c, 0, 76, 27
1, 102589, Note_off_c, 0, 81, 64
1, 102609, Note_on_c, 0, 82, 77
1, 102624, Note_off_c, 0, 76, 49
1, 102651, Note_off_c, 0, 82, 65
1, 102666, Note_on_c, 0, 83, 78
1, 102721, Note_on_c, 0, 84, 82
1, 102722, Note_off_c, 0, 83, 62
1, 102725, Note_on_c, 0, 71, 76
1, 102728, Note_on_c, 0, 67, 69
1, 102731, Note_on_c, 0, 61, 72
1, 102748, Note_off_c, 0, 71, 70
1, 102753, Note_off_c, 0, 67, 65
1, 102769, Note_off_c, 0, 61, 60
1, 102774, Note_on_c, 0, 85, 81
1, 102782, Note_off_c, 0, 84, 61
1, 102821, Note_off_c, 0, 85, 65
1, 102833, Note_on_c, 0, 86, 82
1, 102880, Note_off_c, 0, 86, 65
1, 102896, Note_on_c, 0, 87, 87
1, 102950, Note_off_c, 0, 87, 66
1, 102954, Note_on_c, 0, 68, 76
1, 102955, Note_on_c, 0, 58, 79
1, 102956, Note_on_c, 0, 64, 73
1, 102956, Note_on_c, 0, 88, 88
1, 102976, Note_off_c, 0, 68, 68
1, 102979, Note_off_c, 0, 64, 70
1, 102994, Note_off_c, 0, 58, 60
1, 103008, Note_off_c, 0, 88, 64
1, 103011, Note_on_c, 0, 89, 89
1, 103059, Note_on_c, 0, 90, 69
1, 103064, Note_off_c, 0, 89, 61
1, 103101, Note_off_c, 0, 90, 64
1, 103112, Note_on_c, 0, 91, 76
1, 103132, Note_off_c, 0, 91, 70
1, 103146, Control_c, 0, 64, 94
1, 103161, Control_c, 0, 64, 71
1, 103161, Note_on_c, 0, 55, 80
1, 103178, Note_on_c, 0, 96, 87
1, 103183, Control_c, 0, 64, 57
1, 103198, Control_c, 0, 64, 64
1, 103212, Note_off_c, 0, 55, 62
1, 103212, Control_c, 0, 64, 70
1, 103215, Note_off_c, 0, 96, 63
1, 103227, Control_c, 0, 64, 80
1, 103238, Note_on_c, 0, 89, 71
1, 103241, Note_on_c, 0, 61, 65
1, 103242, Control_c, 0, 64, 98
1, 103257, Control_c, 0, 64, 127
1, 103269, Note_off_c, 0, 61, 65
1, 103285, Note_on_c, 0, 65, 71
1, 103295, Note_on_c, 0, 85, 74
1, 103309, Note_off_c, 0, 65, 69
1, 103313, Note_off_c, 0, 89, 62
1, 103327, Note_off_c, 0, 85, 61
1, 103353, Note_on_c, 0, 84, 57
1, 103372, Note_off_c, 0, 84, 65
1, 103397, Note_on_c, 0, 94, 88
1, 103398, Note_on_c, 0, 67, 70
1, 103445, Note_on_c, 0, 89, 66
1, 103462, Note_off_c, 0, 67, 61
1, 103463, Note_on_c, 0, 73, 71
1, 103482, Note_off_c, 0, 94, 63
1, 103489, Note_on_c, 0, 85, 67
1, 103514, Note_off_c, 0, 89, 63
1, 103518, Note_off_c, 0, 85, 66
1, 103520, Note_off_c, 0, 73, 60
1, 103530, Note_on_c, 0, 82, 76
1, 103537, Note_on_c, 0, 77, 67
1, 103573, Note_off_c, 0, 82, 62
1, 103588, Note_off_c, 0, 77, 62
1, 103599, Control_c, 0, 64, 92
1, 103614, Control_c, 0, 64, 80
1, 103617, Note_on_c, 0, 97, 96
1, 103624, Note_on_c, 0, 70, 71
1, 103629, Control_c, 0, 64, 78
1, 103643, Control_c, 0, 64, 81
1, 103658, Control_c, 0, 64, 90
1, 103673, Control_c, 0, 64, 118
1, 103681, Note_on_c, 0, 92, 70
1, 103688, Control_c, 0, 64, 127
1, 103698, Note_off_c, 0, 70, 61
1, 103707, Note_on_c, 0, 88, 74
1, 103708, Note_off_c, 0, 97, 64
1, 103715, Note_on_c, 0, 75, 45
1, 103736, Note_on_c, 0, 76, 63
1, 103743, Note_off_c, 0, 92, 66
1, 103744, Note_off_c, 0, 75, 59
1, 103757, Note_off_c, 0, 88, 65
1, 103761, Note_on_c, 0, 85, 74
1, 103784, Note_off_c, 0, 85, 70
1, 103799, Note_on_c, 0, 80, 64
1, 103810, Note_off_c, 0, 76, 59
1, 103828, Note_on_c, 0, 96, 96
1, 103873, Note_on_c, 0, 85, 70
1, 103890, Note_off_c, 0, 80, 60
1, 103897, Note_off_c, 0, 96, 51
1, 103898, Note_on_c, 0, 92, 65
1, 103899, Note_off_c, 0, 85, 68
1, 103933, Note_on_c, 0, 88, 57
1, 103970, Note_on_c, 0, 84, 73
1, 103971, Note_off_c, 0, 92, 66
1, 103974, Note_off_c, 0, 88, 63
1, 104017, Note_off_c, 0, 84, 63
1, 104022, Control_c, 0, 64, 103
1, 104036, Control_c, 0, 64, 76
1, 104051, Note_on_c, 0, 67, 65
1, 104051, Control_c, 0, 64, 42
1, 104052, Note_on_c, 0, 96, 96
1, 104066, Control_c, 0, 64, 54
1, 104081, Control_c, 0, 64, 67
1, 104096, Note_off_c, 0, 96, 60
1, 104096, Control_c, 0, 64, 77
1, 104110, Note_on_c, 0, 89, 72
1, 104110, Control_c, 0, 64, 97
1, 104125, Control_c, 0, 64, 127
1, 104178, Note_on_c, 0, 86, 48
1, 104178, Note_off_c, 0, 89, 62
1, 104201, Note_off_c, 0, 86, 59
1, 104204, Note_on_c, 0, 84, 68
1, 104216, Note_off_c, 0, 67, 57
1, 104222, Note_on_c, 0, 73, 67
1, 104230, Note_off_c, 0, 84, 66
1, 104266, Note_on_c, 0, 94, 93
1, 104295, Note_off_c, 0, 73, 61
1, 104314, Note_on_c, 0, 77, 64
1, 104314, Note_on_c, 0, 89, 58
1, 104345, Note_off_c, 0, 94, 65
1, 104358, Note_off_c, 0, 89, 60
1, 104359, Note_on_c, 0, 85, 61
1, 104377, Note_off_c, 0, 77, 60
1, 104382, Note_on_c, 0, 82, 79
1, 104385, Note_off_c, 0, 85, 66
1, 104401, Note_off_c, 0, 82, 71
1, 104449, Note_on_c, 0, 70, 63
1, 104463, Note_on_c, 0, 96, 84
1, 104495, Note_on_c, 0, 98, 27
1, 104496, Note_off_c, 0, 98, 127
1, 104507, Note_off_c, 0, 96, 66
1, 104508, Note_off_c, 0, 70, 61
1, 104521, Note_on_c, 0, 89, 71
1, 104525, Note_on_c, 0, 76, 63
1, 104556, Note_on_c, 0, 86, 65
1, 104556, Note_off_c, 0, 89, 61
1, 104576, Note_off_c, 0, 86, 67
1, 104596, Note_on_c, 0, 80, 56
1, 104598, Note_off_c, 0, 76, 60
1, 104600, Note_on_c, 0, 84, 76
1, 104620, Note_off_c, 0, 84, 72
1, 104629, Note_off_c, 0, 80, 61
1, 104660, Note_on_c, 0, 97, 94
1, 104713, Note_on_c, 0, 92, 72
1, 104749, Note_off_c, 0, 97, 65
1, 104773, Note_on_c, 0, 88, 49
1, 104778, Note_off_c, 0, 92, 66
1, 104795, Note_off_c, 0, 88, 61
1, 104797, Note_on_c, 0, 85, 73
1, 104818, Note_off_c, 0, 85, 70
1, 104846, Note_on_c, 0, 69, 66
1, 104874, Control_c, 0, 64, 88
1, 104875, Note_on_c, 0, 98, 92
1, 104889, Control_c, 0, 64, 66
1, 104904, Control_c, 0, 64, 45
1, 104918, Note_off_c, 0, 98, 65
1, 104919, Control_c, 0, 64, 64
1, 104933, Control_c, 0, 64, 73
1, 104949, Control_c, 0, 64, 86
1, 104961, Note_on_c, 0, 91, 62
1, 104964, Note_off_c, 0, 69, 57
1, 104964, Control_c, 0, 64, 127
1, 104967, Note_on_c, 0, 93, 57
1, 104978, Note_on_c, 0, 74, 56
1, 104995, Note_off_c, 0, 93, 64
1, 104999, Note_on_c, 0, 87, 77
1, 105018, Note_off_c, 0, 91, 65
1, 105019, Note_off_c, 0, 74, 59
1, 105034, Note_off_c, 0, 87, 62
1, 105046, Note_on_c, 0, 86, 67
1, 105065, Note_on_c, 0, 79, 63
1, 105072, Note_off_c, 0, 86, 66
1, 105094, Note_on_c, 0, 96, 88
1, 105137, Note_off_c, 0, 79, 52
1, 105149, Note_on_c, 0, 91, 71
1, 105152, Note_off_c, 0, 96, 59
1, 105184, Note_on_c, 0, 87, 78
1, 105211, Note_off_c, 0, 91, 64
1, 105224, Note_off_c, 0, 87, 62
1, 105227, Note_on_c, 0, 84, 68
1, 105249, Note_off_c, 0, 84, 69
1, 105255, Note_on_c, 0, 72, 70
1, 105297, Note_on_c, 0, 99, 86
1, 105320, Note_off_c, 0, 72, 60
1, 105330, Note_on_c, 0, 97, 38
1, 105335, Note_on_c, 0, 94, 73
1, 105368, Note_off_c, 0, 97, 58
1, 105368, Note_off_c, 0, 99, 64
1, 105376, Note_on_c, 0, 78, 65
1, 105386, Note_on_c, 0, 90, 69
1, 105411, Note_off_c, 0, 94, 63
1, 105426, Note_on_c, 0, 87, 81
1, 105435, Note_off_c, 0, 90, 63
1, 105457, Note_off_c, 0, 78, 62
1, 105459, Note_off_c, 0, 87, 62
1, 105477, Note_on_c, 0, 82, 74
1, 105509, Note_on_c, 0, 98, 80
1, 105517, Note_on_c, 0, 100, 67
1, 105533, Note_off_c, 0, 100, 66
1, 105544, Note_on_c, 0, 94, 71
1, 105549, Note_off_c, 0, 82, 62
1, 105579, Note_off_c, 0, 98, 65
1, 105580, Note_on_c, 0, 87, 74
1, 105595, Note_on_c, 0, 90, 65
1, 105601, Poly_aftertouch_c, 0, 97, 127
1, 105606, Note_off_c, 0, 87, 68
1, 105614, Note_off_c, 0, 94, 64
1, 105623, Note_off_c, 0, 90, 69
1, 105626, Note_on_c, 0, 86, 75
1, 105643, Poly_aftertouch_c, 0, 97, 0
1, 105656, Note_off_c, 0, 86, 61
1, 105682, Control_c, 0, 64, 90
1, 105697, Control_c, 0, 64, 68
1, 105700, Note_on_c, 0, 98, 83
1, 105712, Control_c, 0, 64, 62
1, 105714, Note_on_c, 0, 96, 74
1, 105724, Note_on_c, 0, 69, 71
1, 105727, Control_c, 0, 64, 67
1, 105742, Note_off_c, 0, 98, 66
1, 105742, Control_c, 0, 64, 77
1, 105746, Note_on_c, 0, 91, 74
1, 105752, Note_off_c, 0, 96, 47
1, 105757, Control_c, 0, 64, 93
1, 105772, Control_c, 0, 64, 127
1, 105793, Note_on_c, 0, 87, 78
1, 105806, Poly_aftertouch_c, 0, 94, 127
1, 105823, Note_off_c, 0, 91, 64
1, 105830, Poly_aftertouch_c, 0, 94, 0
1, 105843, Note_on_c, 0, 86, 73
1, 105845, Note_off_c, 0, 87, 64
1, 105871, Note_on_c, 0, 75, 66
1, 105873, Note_off_c, 0, 69, 52
1, 105879, Note_off_c, 0, 86, 62
1, 105907, Note_on_c, 0, 96, 80
1, 105924, Note_on_c, 0, 95, 70
1, 105942, Note_off_c, 0, 75, 57
1, 105948, Note_on_c, 0, 91, 74
1, 105958, Note_off_c, 0, 96, 61
1, 105971, Note_off_c, 0, 95, 39
1, 105980, Note_on_c, 0, 79, 62
1, 105989, Note_on_c, 0, 87, 69
1, 106014, Note_off_c, 0, 91, 64
1, 106024, Note_off_c, 0, 87, 62
1, 106031, Note_on_c, 0, 84, 74
1, 106070, Note_off_c, 0, 84, 60
1, 106073, Note_off_c, 0, 79, 54
1, 106103, Note_on_c, 0, 98, 91
1, 106116, Note_on_c, 0, 72, 64
1, 106157, Note_on_c, 0, 94, 78
1, 106176, Note_off_c, 0, 98, 64
1, 106198, Note_on_c, 0, 90, 71
1, 106210, Note_off_c, 0, 72, 60
1, 106210, Note_on_c, 0, 78, 59
1, 106222, Note_off_c, 0, 94, 66
1, 106243, Note_off_c, 0, 90, 62
1, 106244, Note_on_c, 0, 86, 71
1, 106265, Note_on_c, 0, 82, 56
1, 106267, Note_off_c, 0, 86, 70
1, 106306, Note_on_c, 0, 99, 94
1, 106307, Note_on_c, 0, 84, 70
1, 106325, Note_off_c, 0, 82, 60
1, 106333, Note_off_c, 0, 78, 39
1, 106360, Note_off_c, 0, 84, 62
1, 106363, Note_on_c, 0, 94, 77
1, 106380, Note_off_c, 0, 99, 66
1, 106400, Note_on_c, 0, 90, 70
1, 106420, Note_off_c, 0, 94, 64
1, 106428, Note_off_c, 0, 90, 64
1, 106434, Note_on_c, 0, 87, 69
1, 106459, Note_off_c, 0, 87, 70
1, 106503, Note_on_c, 0, 101, 85
1, 106504, Control_c, 0, 64, 101
1, 106514, Note_on_c, 0, 72, 62
1, 106519, Control_c, 0, 64, 77
1, 106527, Note_off_c, 0, 101, 65
1, 106535, Control_c, 0, 64, 59
1, 106550, Control_c, 0, 64, 60
1, 106565, Control_c, 0, 64, 68
1, 106571, Note_on_c, 0, 94, 65
1, 106577, Note_on_c, 0, 78, 56
1, 106580, Control_c, 0, 64, 80
1, 106583, Note_off_c, 0, 72, 63
1, 106590, Note_on_c, 0, 90, 67
1, 106595, Control_c, 0, 64, 127
1, 106634, Note_on_c, 0, 82, 60
1, 106639, Note_off_c, 0, 78, 62
1, 106639, Note_off_c, 0, 94, 63
1, 106641, Note_off_c, 0, 90, 63
1, 106651, Note_on_c, 0, 89, 60
1, 106669, Note_off_c, 0, 82, 61
1, 106675, Note_off_c, 0, 89, 60
1, 106684, Control_c, 0, 64, 105
1, 106699, Control_c, 0, 64, 80
1, 106707, Note_on_c, 0, 99, 84
1, 106714, Control_c, 0, 64, 65
1, 106720, Note_on_c, 0, 73, 68
1, 106728, Control_c, 0, 64, 70
1, 106735, Note_on_c, 0, 95, 67
1, 106743, Control_c, 0, 64, 83
1, 106758, Control_c, 0, 64, 122
1, 106773, Control_c, 0, 64, 127
1, 106779, Note_on_c, 0, 79, 64
1, 106791, Note_off_c, 0, 99, 64
1, 106795, Note_on_c, 0, 91, 55
1, 106810, Note_off_c, 0, 73, 61
1, 106812, Note_off_c, 0, 95, 66
1, 106815, Note_off_c, 0, 91, 63
1, 106821, Note_on_c, 0, 83, 64
1, 106830, Note_on_c, 0, 87, 68
1, 106838, Note_off_c, 0, 79, 62
1, 106857, Note_off_c, 0, 87, 67
1, 106890, Note_off_c, 0, 83, 61
1, 106900, Note_on_c, 0, 102, 89
1, 106924, Note_on_c, 0, 74, 78
1, 106951, Note_on_c, 0, 96, 65
1, 106973, Note_on_c, 0, 80, 67
1, 106976, Note_off_c, 0, 102, 64
1, 106990, Note_off_c, 0, 74, 65
1, 106997, Note_on_c, 0, 92, 66
1, 107017, Note_off_c, 0, 96, 64
1, 107024, Note_on_c, 0, 84, 62
1, 107027, Note_off_c, 0, 92, 65
1, 107031, Note_off_c, 0, 80, 62
1, 107049, Note_on_c, 0, 90, 51
1, 107063, Note_off_c, 0, 84, 60
1, 107069, Note_off_c, 0, 90, 62
1, 107101, Note_on_c, 0, 75, 73
1, 107102, Note_on_c, 0, 101, 90
1, 107148, Note_off_c, 0, 101, 61
1, 107158, Note_on_c, 0, 81, 66
1, 107176, Note_on_c, 0, 97, 50
1, 107176, Note_off_c, 0, 75, 55
1, 107188, Note_on_c, 0, 93, 66
1, 107192, Note_on_c, 0, 85, 73
1, 107203, Note_off_c, 0, 81, 59
1, 107218, Note_off_c, 0, 93, 64
1, 107221, Note_off_c, 0, 97, 64
1, 107230, Note_on_c, 0, 89, 60
1, 107238, Note_off_c, 0, 85, 64
1, 107258, Note_off_c, 0, 89, 61
1, 107268, Control_c, 0, 64, 86
1, 107283, Control_c, 0, 64, 63
1, 107286, Note_on_c, 0, 101, 80
1, 107297, Note_on_c, 0, 72, 77
1, 107298, Control_c, 0, 64, 47
1, 107310, Note_off_c, 0, 101, 61
1, 107313, Control_c, 0, 64, 65
1, 107328, Control_c, 0, 64, 77
1, 107343, Control_c, 0, 64, 97
1, 107352, Note_on_c, 0, 94, 67
1, 107358, Control_c, 0, 64, 127
1, 107364, Note_on_c, 0, 78, 68
1, 107368, Note_on_c, 0, 90, 70
1, 107371, Note_off_c, 0, 72, 64
1, 107408, Note_on_c, 0, 82, 75
1, 107410, Note_off_c, 0, 94, 63
1, 107414, Note_off_c, 0, 90, 59
1, 107421, Note_off_c, 0, 78, 63
1, 107439, Note_on_c, 0, 89, 54
1, 107459, Note_off_c, 0, 82, 63
1, 107459, Note_off_c, 0, 89, 61
1, 107477, Note_on_c, 0, 99, 89
1, 107490, Note_on_c, 0, 73, 83
1, 107506, Note_on_c, 0, 95, 63
1, 107548, Note_on_c, 0, 79, 69
1, 107563, Note_off_c, 0, 99, 64
1, 107577, Note_on_c, 0, 91, 57
1, 107589, Note_on_c, 0, 83, 70
1, 107589, Note_off_c, 0, 95, 66
1, 107591, Note_off_c, 0, 73, 60
1, 107595, Note_off_c, 0, 91, 63
1, 107599, Note_on_c, 0, 87, 68
1, 107608, Note_off_c, 0, 79, 61
1, 107625, Note_off_c, 0, 87, 69
1, 107662, Note_off_c, 0, 83, 61
1, 107677, Note_on_c, 0, 102, 90
1, 107683, Note_on_c, 0, 74, 83
1, 107714, Note_on_c, 0, 96, 67
1, 107741, Note_off_c, 0, 102, 64
1, 107743, Note_on_c, 0, 80, 70
1, 107755, Note_off_c, 0, 74, 67
1, 107760, Note_on_c, 0, 92, 68
1, 107782, Note_off_c, 0, 96, 65
1, 107783, Note_on_c, 0, 84, 72
1, 107793, Note_off_c, 0, 92, 61
1, 107800, Note_on_c, 0, 90, 67
1, 107803, Note_off_c, 0, 80, 62
1, 107826, Note_off_c, 0, 90, 69
1, 107838, Note_off_c, 0, 84, 62
1, 107861, Note_on_c, 0, 75, 80
1, 107864, Note_on_c, 0, 101, 87
1, 107912, Note_off_c, 0, 101, 58
1, 107924, Note_on_c, 0, 81, 70
1, 107940, Note_on_c, 0, 97, 43
1, 107946, Note_off_c, 0, 75, 59
1, 107948, Note_on_c, 0, 93, 63
1, 107966, Note_on_c, 0, 85, 72
1, 107969, Note_off_c, 0, 81, 60
1, 107972, Note_off_c, 0, 97, 56
1, 107974, Note_on_c, 0, 89, 75
1, 107974, Note_off_c, 0, 93, 68
1, 107990, Note_off_c, 0, 85, 69
1, 108004, Note_off_c, 0, 89, 60
1, 108017, Control_c, 0, 64, 87
1, 108028, Note_on_c, 0, 101, 83
1, 108032, Control_c, 0, 64, 73
1, 108047, Control_c, 0, 64, 74
1, 108048, Note_on_c, 0, 72, 81
1, 108062, Control_c, 0, 64, 82
1, 108076, Control_c, 0, 64, 95
1, 108082, Note_off_c, 0, 101, 58
1, 108091, Control_c, 0, 64, 127
1, 108109, Note_on_c, 0, 90, 75
1, 108109, Note_on_c, 0, 78, 70
1, 108115, Note_off_c, 0, 72, 65
1, 108144, Note_off_c, 0, 90, 57
1, 108151, Note_on_c, 0, 82, 79
1, 108157, Note_on_c, 0, 89, 72
1, 108166, Note_off_c, 0, 78, 64
1, 108193, Note_off_c, 0, 89, 58
1, 108205, Note_off_c, 0, 82, 61
1, 108218, Note_on_c, 0, 99, 89
1, 108225, Note_on_c, 0, 73, 84
1, 108246, Note_on_c, 0, 95, 62
1, 108293, Note_on_c, 0, 79, 71
1, 108297, Note_off_c, 0, 99, 64
1, 108303, Note_on_c, 0, 91, 55
1, 108319, Note_off_c, 0, 95, 65
1, 108321, Note_on_c, 0, 83, 74
1, 108323, Note_off_c, 0, 91, 63
1, 108326, Note_off_c, 0, 73, 59
1, 108330, Note_on_c, 0, 87, 72
1, 108346, Note_off_c, 0, 79, 62
1, 108355, Note_off_c, 0, 87, 69
1, 108391, Note_off_c, 0, 83, 62
1, 108399, Note_on_c, 0, 102, 92
1, 108409, Note_on_c, 0, 74, 85
1, 108434, Note_on_c, 0, 96, 67
1, 108465, Note_off_c, 0, 102, 64
1, 108478, Note_on_c, 0, 80, 71
1, 108488, Note_on_c, 0, 92, 71
1, 108490, Note_off_c, 0, 74, 67
1, 108507, Note_off_c, 0, 96, 65
1, 108515, Note_on_c, 0, 84, 72
1, 108519, Note_on_c, 0, 90, 74
1, 108519, Note_off_c, 0, 92, 62
1, 108528, Note_off_c, 0, 80, 63
1, 108541, Note_off_c, 0, 90, 70
1, 108565, Note_off_c, 0, 84, 63
1, 108588, Note_on_c, 0, 101, 96
1, 108593, Note_on_c, 0, 75, 79
1, 108642, Note_on_c, 0, 81, 66
1, 108646, Note_off_c, 0, 101, 62
1, 108664, Note_off_c, 0, 75, 61
1, 108672, Note_on_c, 0, 93, 63
1, 108685, Note_on_c, 0, 85, 77
1, 108685, Note_on_c, 0, 89, 79
1, 108690, Note_off_c, 0, 81, 62
1, 108690, Note_off_c, 0, 93, 66
1, 108715, Note_off_c, 0, 85, 64
1, 108723, Note_off_c, 0, 89, 60
1, 108752, Note_on_c, 0, 101, 84
1, 108767, Note_on_c, 0, 72, 85
1, 108791, Note_on_c, 0, 100, 32
1, 108793, Note_off_c, 0, 101, 58
1, 108811, Note_on_c, 0, 94, 68
1, 108820, Note_off_c, 0, 100, 56
1, 108821, Note_on_c, 0, 90, 73
1, 108827, Note_on_c, 0, 78, 72
1, 108830, Note_off_c, 0, 72, 61
1, 108863, Note_off_c, 0, 90, 60
1, 108864, Note_off_c, 0, 94, 62
1, 108867, Note_on_c, 0, 89, 73
1, 108869, Note_on_c, 0, 82, 81
1, 108881, Note_off_c, 0, 78, 63
1, 108898, Note_off_c, 0, 89, 61
1, 108924, Note_off_c, 0, 82, 61
1, 108932, Note_on_c, 0, 99, 87
1, 108943, Note_on_c, 0, 73, 88
1, 108953, Note_on_c, 0, 95, 66
1, 108979, Note_on_c, 0, 97, 38
1, 109005, Note_off_c, 0, 97, 59
1, 109006, Note_on_c, 0, 79, 60
1, 109008, Note_off_c, 0, 99, 63
1, 109023, Note_off_c, 0, 95, 65
1, 109027, Note_on_c, 0, 87, 78
1, 109035, Note_on_c, 0, 91, 24
1, 109039, Note_on_c, 0, 83, 75
1, 109042, Note_off_c, 0, 73, 60
1, 109048, Note_off_c, 0, 87, 71
1, 109063, Note_off_c, 0, 79, 62
1, 109075, Note_off_c, 0, 91, 29
1, 109101, Note_off_c, 0, 83, 62
1, 109105, Note_on_c, 0, 101, 89
1, 109119, Note_on_c, 0, 74, 85
1, 109132, Note_on_c, 0, 96, 68
1, 109168, Note_off_c, 0, 101, 51
1, 109193, Note_on_c, 0, 80, 72
1, 109197, Note_on_c, 0, 92, 66
1, 109201, Note_off_c, 0, 74, 64
1, 109214, Note_off_c, 0, 96, 65
1, 109218, Note_on_c, 0, 84, 72
1, 109227, Note_on_c, 0, 89, 73
1, 109228, Note_off_c, 0, 92, 63
1, 109256, Note_off_c, 0, 80, 60
1, 109268, Note_off_c, 0, 84, 63
1, 109270, Note_off_c, 0, 89, 63
1, 109298, Note_on_c, 0, 75, 86
1, 109309, Note_on_c, 0, 97, 86
1, 109313, Note_on_c, 0, 102, 85
1, 109328, Note_off_c, 0, 97, 71
1, 109337, Note_on_c, 0, 99, 49
1, 109363, Note_on_c, 0, 81, 75
1, 109363, Note_off_c, 0, 99, 58
1, 109372, Note_on_c, 0, 85, 82
1, 109372, Note_off_c, 0, 102, 64
1, 109388, Note_off_c, 0, 81, 66
1, 109392, Note_off_c, 0, 85, 71
1, 109409, Note_off_c, 0, 75, 63
1, 109513, Poly_aftertouch_c, 0, 99, 0
1, 109546, Control_c, 0, 64, 100
1, 109548, Note_on_c, 0, 94, 109
1, 109550, Note_on_c, 0, 106, 102
1, 109552, Note_on_c, 0, 99, 90
1, 109559, Note_on_c, 0, 56, 84
1, 109561, Control_c, 0, 64, 59
1, 109566, Note_off_c, 0, 106, 72
1, 109569, Note_off_c, 0, 99, 75
1, 109575, Control_c, 0, 64, 0
1, 109581, Note_off_c, 0, 94, 65
1, 109590, Control_c, 0, 64, 66
1, 109605, Control_c, 0, 64, 127
1, 109644, Note_on_c, 0, 58, 72
1, 109668, Note_off_c, 0, 56, 54
1, 109686, Note_on_c, 0, 61, 76
1, 109720, Note_on_c, 0, 63, 65
1, 109727, Note_off_c, 0, 58, 62
1, 109751, Note_off_c, 0, 63, 65
1, 109752, Note_on_c, 0, 66, 79
1, 109754, Note_off_c, 0, 61, 62
1, 109774, Note_off_c, 0, 66, 68
1, 109786, Note_on_c, 0, 68, 76
1, 109823, Note_off_c, 0, 68, 62
1, 109836, Note_on_c, 0, 70, 58
1, 109846, Note_on_c, 0, 73, 53
1, 109846, Note_on_c, 0, 75, 60
1, 109853, Note_on_c, 0, 78, 63
1, 109857, Note_off_c, 0, 70, 62
1, 109868, Note_off_c, 0, 73, 60
1, 109868, Note_off_c, 0, 78, 66
1, 109871, Note_off_c, 0, 75, 65
1, 109901, Note_on_c, 0, 68, 79
1, 109943, Note_on_c, 0, 70, 61
1, 109970, Note_on_c, 0, 73, 58
1, 109989, Note_off_c, 0, 68, 56
1, 109998, Note_on_c, 0, 75, 62
1, 110005, Note_off_c, 0, 70, 64
1, 110027, Note_on_c, 0, 78, 62
1, 110029, Note_off_c, 0, 75, 61
1, 110032, Note_off_c, 0, 73, 63
1, 110046, Note_off_c, 0, 78, 66
1, 110073, Note_on_c, 0, 82, 62
1, 110093, Note_on_c, 0, 90, 64
1, 110093, Note_off_c, 0, 82, 65
1, 110100, Note_on_c, 0, 87, 46
1, 110101, Note_on_c, 0, 85, 35
1, 110121, Note_off_c, 0, 90, 67
1, 110128, Note_off_c, 0, 87, 56
1, 110130, Note_off_c, 0, 85, 0
1, 110152, Note_on_c, 0, 85, 53
1, 110178, Note_on_c, 0, 81, 25
1, 110186, Note_off_c, 0, 85, 65
1, 110197, Note_on_c, 0, 87, 73
1, 110206, Note_on_c, 0, 94, 63
1, 110213, Note_off_c, 0, 81, 48
1, 110215, Note_on_c, 0, 90, 39
1, 110216, Note_on_c, 0, 92, 43
1, 110216, Poly_aftertouch_c, 0, 79, 127
1, 110222, Note_off_c, 0, 87, 67
1, 110231, Note_off_c, 0, 94, 69
1, 110244, Note_off_c, 0, 92, 55
1, 110245, Note_off_c, 0, 90, 58
1, 110247, Note_on_c, 0, 82, 73
1, 110249, Note_on_c, 0, 80, 65
1, 110249, Note_on_c, 0, 85, 81
1, 110249, Poly_aftertouch_c, 0, 79, 0
1, 110275, Note_off_c, 0, 82, 63
1, 110276, Note_off_c, 0, 85, 58
1, 110281, Note_off_c, 0, 80, 61
1, 110294, Note_on_c, 0, 87, 88
1, 110300, Note_on_c, 0, 94, 84
1, 110314, Note_on_c, 0, 92, 58
1, 110321, Note_off_c, 0, 87, 61
1, 110328, Note_off_c, 0, 94, 58
1, 110334, Note_off_c, 0, 92, 64
1, 110336, Note_on_c, 0, 90, 32
1, 110350, Note_on_c, 0, 85, 82
1, 110351, Note_on_c, 0, 80, 71
1, 110352, Note_on_c, 0, 82, 76
1, 110371, Note_off_c, 0, 85, 71
1, 110371, Note_off_c, 0, 90, 54
1, 110374, Note_off_c, 0, 82, 70
1, 110377, Note_off_c, 0, 80, 64
1, 110395, Note_on_c, 0, 87, 88
1, 110395, Note_on_c, 0, 94, 81
1, 110395, Note_on_c, 0, 92, 77
1, 110398, Note_on_c, 0, 90, 65
1, 110415, Note_off_c, 0, 87, 62
1, 110419, Note_off_c, 0, 92, 68
1, 110422, Note_off_c, 0, 90, 69
1, 110422, Note_off_c, 0, 94, 63
1, 110443, Note_on_c, 0, 85, 92
1, 110446, Note_on_c, 0, 82, 84
1, 110452, Note_on_c, 0, 80, 74
1, 110468, Note_off_c, 0, 82, 66
1, 110471, Note_off_c, 0, 80, 69
1, 110477, Note_off_c, 0, 85, 58
1, 110487, Note_on_c, 0, 87, 79
1, 110492, Note_on_c, 0, 90, 86
1, 110494, Note_on_c, 0, 94, 78
1, 110499, Note_on_c, 0, 92, 76
1, 110509, Note_off_c, 0, 87, 71
1, 110514, Note_off_c, 0, 90, 67
1, 110514, Note_off_c, 0, 94, 70
1, 110519, Note_off_c, 0, 92, 72
1, 110537, Note_on_c, 0, 85, 92
1, 110543, Note_on_c, 0, 82, 83
1, 110544, Note_on_c, 0, 80, 80
1, 110562, Note_off_c, 0, 82, 67
1, 110574, Note_off_c, 0, 80, 60
1, 110577, Note_off_c, 0, 85, 61
1, 110580, Note_on_c, 0, 87, 95
1, 110584, Note_on_c, 0, 94, 89
1, 110586, Note_on_c, 0, 90, 86
1, 110595, Note_on_c, 0, 92, 71
1, 110606, Note_off_c, 0, 87, 60
1, 110606, Note_off_c, 0, 90, 69
1, 110607, Note_off_c, 0, 94, 63
1, 110616, Note_off_c, 0, 92, 72
1, 110635, Note_on_c, 0, 85, 94
1, 110640, Note_on_c, 0, 82, 91
1, 110645, Note_on_c, 0, 80, 80
1, 110669, Note_off_c, 0, 82, 65
1, 110676, Note_off_c, 0, 80, 65
1, 110681, Note_off_c, 0, 85, 64
1, 110684, Note_on_c, 0, 87, 103
1, 110687, Note_on_c, 0, 90, 97
1, 110687, Note_on_c, 0, 94, 89
1, 110694, Note_on_c, 0, 92, 80
1, 110711, Note_off_c, 0, 87, 63
1, 110711, Note_off_c, 0, 94, 59
1, 110714, Note_off_c, 0, 90, 59
1, 110714, Note_off_c, 0, 92, 71
1, 110736, Note_on_c, 0, 85, 105
1, 110744, Note_on_c, 0, 82, 92
1, 110747, Note_on_c, 0, 80, 83
1, 110773, Note_off_c, 0, 82, 61
1, 110774, Note_off_c, 0, 85, 66
1, 110776, Note_off_c, 0, 80, 57
1, 110782, Note_on_c, 0, 87, 109
1, 110782, Note_on_c, 0, 94, 93
1, 110786, Note_on_c, 0, 90, 94
1, 110795, Note_on_c, 0, 92, 79
1, 110810, Note_off_c, 0, 87, 60
1, 110811, Note_off_c, 0, 90, 61
1, 110813, Note_off_c, 0, 92, 73
1, 110817, Note_off_c, 0, 94, 64
1, 110837, Note_on_c, 0, 85, 103
1, 110841, Note_on_c, 0, 82, 97
1, 110846, Note_on_c, 0, 80, 85
1, 110871, Note_off_c, 0, 80, 59
1, 110874, Note_off_c, 0, 85, 67
1, 110881, Note_on_c, 0, 87, 108
1, 110881, Note_off_c, 0, 82, 59
1, 110884, Note_on_c, 0, 90, 98
1, 110884, Note_on_c, 0, 94, 89
1, 110887, Note_on_c, 0, 92, 79
1, 110908, Note_off_c, 0, 87, 63
1, 110911, Note_off_c, 0, 94, 61
1, 110912, Note_off_c, 0, 92, 66
1, 110923, Note_off_c, 0, 90, 61
1, 110935, Note_on_c, 0, 85, 103
1, 110941, Note_on_c, 0, 82, 90
1, 110942, Note_on_c, 0, 80, 92
1, 110974, Note_off_c, 0, 85, 66
1, 110976, Note_on_c, 0, 87, 112
1, 110978, Note_on_c, 0, 94, 101
1, 110982, Note_off_c, 0, 82, 61
1, 110983, Note_off_c, 0, 80, 61
1, 110984, Note_on_c, 0, 90, 83
1, 110988, Note_on_c, 0, 92, 90
1, 111006, Note_off_c, 0, 87, 68
1, 111012, Note_off_c, 0, 92, 63
1, 111013, Note_off_c, 0, 94, 65
1, 111023, Note_off_c, 0, 90, 62
1, 111036, Note_on_c, 0, 85, 97
1, 111037, Note_on_c, 0, 80, 84
1, 111039, Note_on_c, 0, 82, 87
1, 111081, Note_on_c, 0, 87, 97
1, 111083, Note_off_c, 0, 85, 63
1, 111084, Note_on_c, 0, 94, 88
1, 111086, Note_off_c, 0, 82, 63
1, 111087, Note_on_c, 0, 92, 88
1, 111087, Note_off_c, 0, 80, 64
1, 111092, Note_on_c, 0, 90, 78
1, 111110, Note_off_c, 0, 87, 59
1, 111110, Note_off_c, 0, 90, 72
1, 111131, Note_off_c, 0, 92, 68
1, 111143, Note_off_c, 0, 94, 62
1, 111148, Note_on_c, 0, 85, 96
1, 111152, Note_on_c, 0, 80, 80
1, 111152, Note_on_c, 0, 82, 87
1, 111207, Note_off_c, 0, 85, 65
1, 111227, Note_off_c, 0, 82, 61
1, 111234, Note_off_c, 0, 80, 59
1, 111254, Note_on_c, 0, 106, 83
1, 111312, Note_off_c, 0, 106, 64
1, 111399, Note_on_c, 0, 94, 64
1, 111436, Note_off_c, 0, 94, 0
1, 111436, Note_on_c, 0, 94, 25
1, 111444, Note_on_c, 0, 92, 52
1, 111465, Poly_aftertouch_c, 0, 97, 0
1, 111468, Note_off_c, 0, 94, 60
1, 111476, Note_off_c, 0, 92, 58
1, 111506, Note_on_c, 0, 90, 23
1, 111531, Note_on_c, 0, 87, 31
1, 111532, Note_off_c, 0, 87, 127
1, 111533, Note_on_c, 0, 82, 70
1, 111533, Note_on_c, 0, 85, 47
1, 111534, Note_off_c, 0, 85, 127
1, 111547, Note_off_c, 0, 90, 30
1, 111548, Note_on_c, 0, 80, 59
1, 111549, Note_off_c, 0, 82, 67
1, 111558, Note_on_c, 0, 78, 71
1, 111569, Note_on_c, 0, 75, 73
1, 111570, Note_off_c, 0, 80, 61
1, 111576, Note_off_c, 0, 78, 40
1, 111584, Note_on_c, 0, 73, 73
1, 111585, Note_off_c, 0, 75, 70
1, 111596, Note_on_c, 0, 70, 70
1, 111602, Note_off_c, 0, 73, 65
1, 111612, Note_on_c, 0, 68, 64
1, 111614, Note_off_c, 0, 70, 69
1, 111620, Note_on_c, 0, 66, 78
1, 111631, Note_off_c, 0, 68, 64
1, 111634, Note_on_c, 0, 63, 76
1, 111635, Note_off_c, 0, 66, 68
1, 111644, Note_on_c, 0, 61, 85
1, 111650, Note_off_c, 0, 63, 69
1, 111661, Note_on_c, 0, 58, 86
1, 111666, Note_off_c, 0, 61, 68
1, 111677, Note_on_c, 0, 56, 80
1, 111685, Note_off_c, 0, 58, 68
1, 111695, Note_on_c, 0, 54, 82
1, 111701, Note_off_c, 0, 56, 69
1, 111719, Note_off_c, 0, 54, 70
1, 111723, Note_on_c, 0, 51, 79
1, 111747, Note_off_c, 0, 51, 67
1, 111766, Note_on_c, 0, 49, 53
1, 111793, Note_off_c, 0, 49, 60
1, 111863, Note_on_c, 0, 44, 86
1, 111908, Note_off_c, 0, 44, 62
1, 112012, Note_on_c, 0, 49, 54
1, 112091, Note_on_c, 0, 51, 45
1, 112108, Note_off_c, 0, 49, 36
1, 112137, Note_off_c, 0, 51, 58
1, 112148, Note_on_c, 0, 54, 51
1, 112208, Note_on_c, 0, 32, 76
1, 112221, Note_off_c, 0, 54, 63
1, 112234, Note_on_c, 0, 58, 65
1, 112266, Note_off_c, 0, 32, 60
1, 112304, Note_off_c, 0, 58, 57
1, 112321, Note_on_c, 0, 54, 48
1, 112357, Note_on_c, 0, 51, 53
1, 112363, Note_off_c, 0, 54, 57
1, 112396, Note_off_c, 0, 51, 63
1, 112432, Note_on_c, 0, 49, 52
1, 112483, Note_off_c, 0, 49, 55
1, 112494, Note_on_c, 0, 21, 93
1, 112537, Note_off_c, 0, 21, 61
1, 112625, Note_on_c, 0, 49, 50
1, 112680, Note_off_c, 0, 49, 55
1, 112702, Note_on_c, 0, 51, 34
1, 112753, Note_off_c, 0, 51, 55
1, 112760, Note_on_c, 0, 54, 56
1, 112822, Note_off_c, 0, 54, 60
1, 112848, Note_on_c, 0, 58, 50
1, 112927, Note_on_c, 0, 54, 26
1, 112971, Note_off_c, 0, 58, 33
1, 112975, Note_on_c, 0, 51, 41
1, 113033, Note_off_c, 0, 51, 49
1, 113080, Note_on_c, 0, 44, 55
1, 113097, Note_off_c, 0, 54, 26
1, 113241, Note_on_c, 0, 49, 54
1, 113302, Note_off_c, 0, 44, 43
1, 113344, Note_on_c, 0, 51, 40
1, 113397, Note_on_c, 0, 54, 49
1, 113460, Note_off_c, 0, 54, 61
1, 113468, Note_on_c, 0, 58, 55
1, 113504, Note_off_c, 0, 49, 34
1, 113517, Note_off_c, 0, 51, 46
1, 113548, Note_on_c, 0, 54, 46
1, 113570, Note_off_c, 0, 58, 42
1, 113600, Note_on_c, 0, 51, 46
1, 113622, Note_on_c, 0, 49, 58
1, 113632, Note_off_c, 0, 54, 61
1, 113684, Note_off_c, 0, 51, 61
1, 113722, Note_on_c, 0, 44, 64
1, 113734, Note_off_c, 0, 49, 0
1, 113762, Note_on_c, 0, 49, 34
1, 113787, Note_off_c, 0, 44, 59
1, 113856, Note_on_c, 0, 51, 44
1, 113904, Note_on_c, 0, 54, 58
1, 113934, Control_c, 0, 67, 8
1, 113948, Control_c, 0, 67, 28
1, 113963, Control_c, 0, 67, 53
1, 113978, Control_c, 0, 67, 80
1, 113988, Note_off_c, 0, 54, 62
1, 113993, Note_on_c, 0, 58, 56
1, 113993, Control_c, 0, 67, 105
1, 114008, Control_c, 0, 67, 126
1, 114015, Note_off_c, 0, 51, 41
1, 114023, Control_c, 0, 67, 127
1, 114072, Note_on_c, 0, 54, 47
1, 114081, Note_off_c, 0, 49, 62
1, 114101, Note_off_c, 0, 58, 38
1, 114116, Note_on_c, 0, 51, 55
1, 114168, Note_off_c, 0, 54, 61
1, 114193, Note_on_c, 0, 49, 56
1, 114223, Note_off_c, 0, 51, 63
1, 114255, Note_off_c, 0, 49, 61
1, 114257, Note_on_c, 0, 44, 63
1, 114312, Note_on_c, 0, 49, 49
1, 114336, Note_off_c, 0, 44, 58
1, 114403, Note_on_c, 0, 51, 55
1, 114478, Note_on_c, 0, 54, 56
1, 114536, Note_off_c, 0, 51, 57
1, 114546, Note_off_c, 0, 54, 63
1, 114572, Note_on_c, 0, 58, 50
1, 114655, Note_off_c, 0, 58, 39
1, 114664, Note_on_c, 0, 54, 35
1, 114682, Note_on_c, 0, 51, 41
1, 114704, Note_off_c, 0, 54, 54
1, 114771, Note_off_c, 0, 49, 58
1, 114779, Note_off_c, 0, 51, 48
1, 114801, Control_c, 0, 64, 126
1, 114816, Control_c, 0, 64, 122
1, 114831, Control_c, 0, 64, 119
1, 114841, Note_on_c, 0, 44, 56
1, 114846, Control_c, 0, 64, 118
1, 114860, Control_c, 0, 64, 116
1, 114875, Control_c, 0, 64, 115
1, 114890, Control_c, 0, 64, 115
1, 114905, Control_c, 0, 64, 114
1, 114968, Note_off_c, 0, 44, 36
1, 115029, Note_on_c, 0, 49, 53
1, 115122, Note_on_c, 0, 51, 49
1, 115183, Note_on_c, 0, 54, 49
1, 115188, Note_off_c, 0, 51, 57
1, 115215, Note_off_c, 0, 54, 63
1, 115240, Note_on_c, 0, 58, 53
1, 115314, Note_off_c, 0, 58, 44
1, 115316, Note_on_c, 0, 54, 49
1, 115357, Control_c, 0, 64, 114
1, 115372, Control_c, 0, 64, 113
1, 115387, Note_on_c, 0, 51, 32
1, 115387, Control_c, 0, 64, 112
1, 115402, Control_c, 0, 64, 112
1, 115414, Note_off_c, 0, 54, 55
1, 115416, Control_c, 0, 64, 111
1, 115431, Control_c, 0, 64, 110
1, 115433, Note_off_c, 0, 51, 54
1, 115446, Control_c, 0, 64, 108
1, 115461, Control_c, 0, 64, 107
1, 115476, Control_c, 0, 64, 104
1, 115485, Note_off_c, 0, 49, 44
1, 115490, Control_c, 0, 64, 101
1, 115505, Control_c, 0, 64, 96
1, 115520, Control_c, 0, 64, 89
1, 115532, Note_on_c, 0, 63, 59
1, 115535, Control_c, 0, 64, 78
1, 115549, Note_on_c, 0, 58, 46
1, 115550, Control_c, 0, 64, 65
1, 115564, Control_c, 0, 64, 0
1, 115565, Note_on_c, 0, 44, 46
1, 115631, Note_off_c, 0, 44, 52
1, 115638, Note_on_c, 0, 49, 40
1, 115639, Control_c, 0, 64, 49
1, 115653, Control_c, 0, 64, 61
1, 115668, Control_c, 0, 64, 66
1, 115683, Control_c, 0, 64, 70
1, 115683, Note_off_c, 0, 58, 47
1, 115698, Control_c, 0, 64, 73
1, 115708, Note_on_c, 0, 54, 51
1, 115713, Control_c, 0, 64, 77
1, 115727, Control_c, 0, 64, 80
1, 115742, Control_c, 0, 64, 83
1, 115757, Note_on_c, 0, 58, 42
1, 115757, Control_c, 0, 64, 85
1, 115772, Control_c, 0, 64, 87
1, 115787, Control_c, 0, 64, 89
1, 115801, Control_c, 0, 64, 89
1, 115834, Note_off_c, 0, 58, 53
1, 115851, Note_on_c, 0, 65, 68
1, 115869, Note_on_c, 0, 60, 61
1, 115880, Note_off_c, 0, 49, 34
1, 115881, Note_off_c, 0, 54, 32
1, 115907, Note_off_c, 0, 63, 57
1, 115928, Control_c, 0, 64, 89
1, 115930, Note_on_c, 0, 57, 52
1, 115942, Control_c, 0, 64, 88
1, 115957, Control_c, 0, 64, 88
1, 115987, Control_c, 0, 64, 87
1, 115996, Note_on_c, 0, 54, 60
1, 116002, Control_c, 0, 64, 87
1, 116016, Control_c, 0, 64, 86
1, 116031, Control_c, 0, 64, 86
1, 116032, Note_off_c, 0, 57, 35
1, 116072, Note_on_c, 0, 50, 46
1, 116077, Note_off_c, 0, 54, 54
1, 116105, Control_c, 0, 64, 85
1, 116119, Note_off_c, 0, 50, 60
1, 116120, Control_c, 0, 64, 80
1, 116136, Control_c, 0, 64, 71
1, 116151, Control_c, 0, 64, 57
1, 116166, Control_c, 0, 64, 0
1, 116174, Note_on_c, 0, 62, 72
1, 116177, Note_on_c, 0, 57, 65
1, 116196, Note_on_c, 0, 44, 51
1, 116210, Control_c, 0, 64, 58
1, 116211, Note_off_c, 0, 65, 58
1, 116214, Note_off_c, 0, 60, 57
1, 116225, Control_c, 0, 64, 66
1, 116239, Control_c, 0, 64, 73
1, 116240, Note_off_c, 0, 57, 62
1, 116254, Control_c, 0, 64, 80
1, 116256, Note_on_c, 0, 50, 39
1, 116256, Note_off_c, 0, 44, 56
1, 116269, Control_c, 0, 64, 86
1, 116273, Note_off_c, 0, 62, 63
1, 116284, Control_c, 0, 64, 90
1, 116299, Control_c, 0, 64, 92
1, 116321, Note_on_c, 0, 54, 56
1, 116336, Note_off_c, 0, 50, 62
1, 116360, Note_off_c, 0, 54, 62
1, 116388, Note_on_c, 0, 57, 55
1, 116417, Control_c, 0, 64, 91
1, 116432, Note_off_c, 0, 57, 55
1, 116446, Control_c, 0, 64, 91
1, 116461, Control_c, 0, 64, 90
1, 116477, Note_on_c, 0, 69, 69
1, 116479, Note_on_c, 0, 66, 71
1, 116491, Control_c, 0, 64, 90
1, 116506, Control_c, 0, 64, 89
1, 116510, Note_on_c, 0, 60, 27
1, 116536, Control_c, 0, 64, 89
1, 116539, Note_off_c, 0, 69, 61
1, 116541, Note_off_c, 0, 60, 57
1, 116563, Note_off_c, 0, 66, 60
1, 116565, Note_on_c, 0, 57, 43
1, 116565, Control_c, 0, 64, 88
1, 116590, Note_off_c, 0, 57, 58
1, 116595, Control_c, 0, 64, 88
1, 116610, Control_c, 0, 64, 87
1, 116622, Note_on_c, 0, 62, 82
1, 116624, Control_c, 0, 64, 87
1, 116639, Control_c, 0, 64, 86
1, 116655, Note_on_c, 0, 57, 53
1, 116658, Note_on_c, 0, 54, 48
1, 116682, Note_off_c, 0, 57, 56
1, 116691, Control_c, 0, 64, 86
1, 116695, Note_off_c, 0, 54, 58
1, 116697, Note_off_c, 0, 62, 60
1, 116698, Note_on_c, 0, 50, 45
1, 116706, Control_c, 0, 64, 85
1, 116721, Control_c, 0, 64, 85
1, 116736, Control_c, 0, 64, 84
1, 116742, Note_off_c, 0, 50, 63
1, 116750, Control_c, 0, 64, 83
1, 116765, Control_c, 0, 64, 80
1, 116780, Control_c, 0, 64, 75
1, 116784, Note_on_c, 0, 63, 72
1, 116792, Note_on_c, 0, 58, 66
1, 116795, Control_c, 0, 64, 66
1, 116797, Note_on_c, 0, 44, 51
1, 116810, Control_c, 0, 64, 43
1, 116825, Control_c, 0, 64, 0
1, 116854, Control_c, 0, 64, 19
1, 116857, Note_off_c, 0, 44, 58
1, 116869, Control_c, 0, 64, 48
1, 116880, Note_on_c, 0, 49, 52
1, 116884, Control_c, 0, 64, 59
1, 116899, Control_c, 0, 64, 63
1, 116913, Control_c, 0, 64, 66
1, 116929, Control_c, 0, 64, 68
1, 116933, Note_off_c, 0, 58, 52
1, 116942, Note_on_c, 0, 54, 45
1, 116944, Control_c, 0, 64, 71
1, 116959, Control_c, 0, 64, 74
1, 116974, Control_c, 0, 64, 75
1, 116982, Note_off_c, 0, 49, 59
1, 116988, Control_c, 0, 64, 76
1, 117003, Control_c, 0, 64, 77
1, 117017, Note_on_c, 0, 58, 46
1, 117018, Control_c, 0, 64, 77
1, 117078, Note_off_c, 0, 58, 55
1, 117106, Note_on_c, 0, 65, 61
1, 117122, Note_on_c, 0, 60, 54
1, 117130, Note_off_c, 0, 54, 40
1, 117139, Note_off_c, 0, 63, 52
1, 117177, Note_on_c, 0, 57, 47
1, 117225, Control_c, 0, 64, 77
1, 117244, Note_on_c, 0, 54, 49
1, 117250, Note_off_c, 0, 57, 50
1, 117269, Control_c, 0, 64, 76
1, 117307, Note_off_c, 0, 54, 56
1, 117314, Control_c, 0, 64, 75
1, 117317, Note_on_c, 0, 50, 41
1, 117329, Control_c, 0, 64, 72
1, 117344, Control_c, 0, 64, 67
1, 117356, Note_off_c, 0, 50, 64
1, 117359, Control_c, 0, 64, 57
1, 117362, Note_off_c, 0, 65, 54
1, 117368, Note_off_c, 0, 60, 56
1, 117373, Control_c, 0, 64, 0
1, 117373, Note_on_c, 0, 62, 55
1, 117384, Note_on_c, 0, 57, 43
1, 117405, Note_on_c, 0, 44, 47
1, 117410, Control_c, 0, 64, 32
1, 117425, Control_c, 0, 64, 53
1, 117440, Control_c, 0, 64, 62
1, 117446, Note_off_c, 0, 57, 55
1, 117454, Control_c, 0, 64, 65
1, 117460, Note_off_c, 0, 44, 57
1, 117466, Note_on_c, 0, 50, 43
1, 117469, Control_c, 0, 64, 70
1, 117484, Control_c, 0, 64, 75
1, 117499, Control_c, 0, 64, 81
1, 117514, Control_c, 0, 64, 86
1, 117528, Control_c, 0, 64, 89
1, 117532, Note_on_c, 0, 54, 51
1, 117535, Note_off_c, 0, 62, 58
1, 117543, Control_c, 0, 64, 90
1, 117546, Note_off_c, 0, 50, 61
1, 117558, Control_c, 0, 64, 91
1, 117568, Note_off_c, 0, 54, 62
1, 117573, Control_c, 0, 64, 92
1, 117588, Control_c, 0, 64, 93
1, 117597, Note_on_c, 0, 57, 51
1, 117603, Control_c, 0, 64, 93
1, 117657, Note_off_c, 0, 57, 43
1, 117689, Note_on_c, 0, 60, 38
1, 117717, Note_off_c, 0, 60, 56
1, 117746, Note_on_c, 0, 57, 42
1, 117771, Note_off_c, 0, 57, 56
1, 117797, Control_c, 0, 64, 93
1, 117811, Control_c, 0, 64, 92
1, 117864, Poly_aftertouch_c, 0, 54, 127
1, 117872, Note_on_c, 0, 50, 51
1, 117904, Note_off_c, 0, 50, 64
1, 117910, Poly_aftertouch_c, 0, 54, 0
1, 117929, Control_c, 0, 64, 91
1, 117944, Control_c, 0, 64, 84
1, 117945, Note_on_c, 0, 44, 50
1, 117945, Note_on_c, 0, 75, 66
1, 117950, Note_on_c, 0, 70, 63
1, 117953, Note_on_c, 0, 63, 61
1, 117959, Control_c, 0, 64, 75
1, 117974, Control_c, 0, 64, 64
1, 117989, Control_c, 0, 64, 30
1, 117999, Note_off_c, 0, 44, 59
1, 118003, Control_c, 0, 64, 45
1, 118018, Control_c, 0, 64, 62
1, 118021, Note_off_c, 0, 63, 61
1, 118023, Note_on_c, 0, 49, 60
1, 118033, Control_c, 0, 64, 69
1, 118048, Control_c, 0, 64, 77
1, 118063, Control_c, 0, 64, 87
1, 118077, Control_c, 0, 64, 99
1, 118080, Note_off_c, 0, 75, 58
1, 118083, Note_on_c, 0, 54, 60
1, 118092, Control_c, 0, 64, 111
1, 118105, Note_off_c, 0, 49, 63
1, 118107, Control_c, 0, 64, 127
1, 118132, Note_off_c, 0, 54, 62
1, 118151, Note_on_c, 0, 58, 62
1, 118209, Note_off_c, 0, 58, 56
1, 118245, Note_on_c, 0, 77, 78
1, 118249, Note_on_c, 0, 72, 67
1, 118250, Note_on_c, 0, 60, 69
1, 118255, Note_on_c, 0, 65, 77
1, 118286, Note_off_c, 0, 60, 62
1, 118293, Note_off_c, 0, 70, 61
1, 118293, Note_off_c, 0, 72, 59
1, 118298, Note_off_c, 0, 77, 63
1, 118333, Note_off_c, 0, 65, 52
1, 118338, Note_on_c, 0, 57, 57
1, 118384, Note_off_c, 0, 57, 55
1, 118403, Note_on_c, 0, 54, 66
1, 118445, Note_on_c, 0, 50, 61
1, 118473, Note_off_c, 0, 54, 60
1, 118500, Control_c, 0, 64, 97
1, 118515, Control_c, 0, 64, 74
1, 118522, Note_off_c, 0, 50, 58
1, 118530, Control_c, 0, 64, 55
1, 118543, Note_on_c, 0, 69, 63
1, 118543, Note_on_c, 0, 74, 75
1, 118545, Control_c, 0, 64, 44
1, 118546, Note_on_c, 0, 62, 64
1, 118548, Note_on_c, 0, 44, 64
1, 118560, Control_c, 0, 64, 64
1, 118571, Note_off_c, 0, 69, 66
1, 118575, Control_c, 0, 64, 73
1, 118575, Note_off_c, 0, 62, 64
1, 118590, Control_c, 0, 64, 85
1, 118601, Note_off_c, 0, 74, 65
1, 118605, Control_c, 0, 64, 105
1, 118611, Note_off_c, 0, 44, 61
1, 118613, Note_on_c, 0, 50, 54
1, 118619, Control_c, 0, 64, 127
1, 118658, Note_on_c, 0, 54, 67
1, 118685, Note_off_c, 0, 50, 65
1, 118707, Note_off_c, 0, 54, 59
1, 118726, Note_on_c, 0, 57, 61
1, 118793, Note_off_c, 0, 57, 38
1, 118822, Note_on_c, 0, 60, 53
1, 118830, Note_on_c, 0, 81, 79
1, 118833, Note_on_c, 0, 78, 72
1, 118846, Note_off_c, 0, 60, 61
1, 118890, Note_off_c, 0, 78, 62
1, 118891, Note_off_c, 0, 81, 62
1, 118892, Note_on_c, 0, 57, 44
1, 118935, Note_off_c, 0, 57, 59
1, 118974, Note_on_c, 0, 74, 81
1, 118982, Control_c, 0, 64, 126
1, 118983, Note_on_c, 0, 54, 55
1, 118984, Note_on_c, 0, 69, 64
1, 118997, Control_c, 0, 64, 123
1, 118998, Note_off_c, 0, 74, 67
1, 119009, Note_off_c, 0, 69, 69
1, 119026, Control_c, 0, 64, 121
1, 119030, Note_off_c, 0, 54, 61
1, 119038, Note_on_c, 0, 50, 51
1, 119041, Control_c, 0, 64, 114
1, 119056, Control_c, 0, 64, 102
1, 119071, Control_c, 0, 64, 87
1, 119073, Note_off_c, 0, 50, 64
1, 119086, Control_c, 0, 64, 69
1, 119100, Control_c, 0, 64, 21
1, 119115, Note_on_c, 0, 75, 76
1, 119115, Control_c, 0, 64, 0
1, 119125, Note_on_c, 0, 63, 73
1, 119126, Note_on_c, 0, 44, 54
1, 119132, Note_on_c, 0, 70, 62
1, 119145, Control_c, 0, 64, 54
1, 119159, Control_c, 0, 64, 65
1, 119162, Note_off_c, 0, 44, 61
1, 119174, Control_c, 0, 64, 73
1, 119181, Note_off_c, 0, 63, 61
1, 119186, Note_on_c, 0, 49, 57
1, 119189, Control_c, 0, 64, 81
1, 119204, Control_c, 0, 64, 90
1, 119219, Control_c, 0, 64, 97
1, 119234, Control_c, 0, 64, 101
1, 119242, Note_on_c, 0, 54, 57
1, 119248, Control_c, 0, 64, 103
1, 119249, Note_off_c, 0, 49, 63
1, 119257, Note_off_c, 0, 75, 52
1, 119264, Control_c, 0, 64, 105
1, 119279, Control_c, 0, 64, 109
1, 119284, Note_off_c, 0, 54, 63
1, 119294, Control_c, 0, 64, 121
1, 119299, Note_on_c, 0, 58, 62
1, 119308, Control_c, 0, 64, 127
1, 119341, Note_off_c, 0, 58, 57
1, 119354, Control_c, 0, 64, 121
1, 119368, Note_off_c, 0, 70, 58
1, 119369, Control_c, 0, 64, 97
1, 119383, Control_c, 0, 64, 82
1, 119398, Control_c, 0, 64, 69
1, 119409, Note_on_c, 0, 72, 65
1, 119409, Note_on_c, 0, 77, 76
1, 119413, Control_c, 0, 64, 56
1, 119414, Note_on_c, 0, 60, 48
1, 119423, Note_on_c, 0, 65, 56
1, 119428, Control_c, 0, 64, 57
1, 119439, Note_off_c, 0, 60, 60
1, 119443, Control_c, 0, 64, 64
1, 119444, Note_off_c, 0, 72, 61
1, 119453, Note_off_c, 0, 65, 55
1, 119457, Control_c, 0, 64, 68
1, 119460, Note_off_c, 0, 77, 61
1, 119472, Control_c, 0, 64, 75
1, 119475, Note_on_c, 0, 57, 56
1, 119487, Control_c, 0, 64, 81
1, 119502, Control_c, 0, 64, 87
1, 119517, Control_c, 0, 64, 89
1, 119518, Note_off_c, 0, 57, 55
1, 119532, Control_c, 0, 64, 90
1, 119556, Note_on_c, 0, 54, 56
1, 119600, Note_off_c, 0, 54, 60
1, 119606, Control_c, 0, 64, 89
1, 119608, Note_on_c, 0, 50, 51
1, 119621, Control_c, 0, 64, 87
1, 119636, Control_c, 0, 64, 83
1, 119657, Control_c, 0, 64, 75
1, 119659, Note_off_c, 0, 50, 62
1, 119672, Control_c, 0, 64, 64
1, 119687, Control_c, 0, 64, 0
1, 119701, Note_on_c, 0, 74, 67
1, 119709, Note_on_c, 0, 69, 55
1, 119713, Note_on_c, 0, 44, 46
1, 119721, Note_on_c, 0, 62, 45
1, 119759, Note_off_c, 0, 44, 61
1, 119767, Note_on_c, 0, 50, 43
1, 119776, Control_c, 0, 64, 54
1, 119791, Control_c, 0, 64, 66
1, 119806, Control_c, 0, 64, 75
1, 119821, Control_c, 0, 64, 83
1, 119830, Note_on_c, 0, 54, 46
1, 119833, Note_off_c, 0, 50, 63
1, 119836, Control_c, 0, 64, 91
1, 119850, Control_c, 0, 64, 95
1, 119860, Note_off_c, 0, 54, 61
1, 119862, Note_off_c, 0, 62, 32
1, 119865, Control_c, 0, 64, 97
1, 119887, Note_off_c, 0, 69, 38
1, 119895, Note_on_c, 0, 57, 47
1, 119931, Note_off_c, 0, 57, 48
1, 119969, Control_c, 0, 64, 96
1, 119982, Note_off_c, 0, 74, 49
1, 119983, Control_c, 0, 64, 96
1, 119991, Note_on_c, 0, 60, 40
1, 119992, Note_on_c, 0, 69, 53
1, 120001, Note_on_c, 0, 62, 43
1, 120023, Note_off_c, 0, 60, 57
1, 120028, Control_c, 0, 64, 95
1, 120054, Note_off_c, 0, 62, 46
1, 120069, Note_on_c, 0, 57, 29
1, 120072, Control_c, 0, 64, 95
1, 120086, Note_off_c, 0, 69, 55
1, 120105, Note_off_c, 0, 57, 53
1, 120133, Control_c, 0, 64, 94
1, 120142, Note_on_c, 0, 54, 40
1, 120147, Control_c, 0, 64, 94
1, 120173, Note_off_c, 0, 54, 55
1, 120178, Note_on_c, 0, 50, 50
1, 120223, Note_off_c, 0, 50, 62
1, 120261, Note_on_c, 0, 44, 55
1, 120297, Note_off_c, 0, 44, 62
1, 120318, Note_on_c, 0, 50, 52
1, 120357, Note_off_c, 0, 50, 65
1, 120360, Note_on_c, 0, 54, 48
1, 120390, Note_off_c, 0, 54, 60
1, 120425, Note_on_c, 0, 57, 52
1, 120480, Note_off_c, 0, 57, 53
1, 120503, Note_on_c, 0, 60, 40
1, 120524, Control_c, 0, 64, 93
1, 120529, Note_off_c, 0, 60, 58
1, 120539, Control_c, 0, 64, 93
1, 120565, Note_on_c, 0, 57, 47
1, 120569, Control_c, 0, 64, 92
1, 120594, Note_off_c, 0, 57, 55
1, 120599, Control_c, 0, 64, 92
1, 120614, Control_c, 0, 64, 91
1, 120629, Control_c, 0, 64, 91
1, 120635, Note_on_c, 0, 54, 41
1, 120644, Control_c, 0, 64, 90
1, 120672, Note_on_c, 0, 50, 52
1, 120673, Control_c, 0, 64, 90
1, 120677, Note_off_c, 0, 54, 51
1, 120703, Control_c, 0, 64, 89
1, 120715, Note_off_c, 0, 50, 61
1, 120732, Control_c, 0, 64, 88
1, 120747, Control_c, 0, 64, 84
1, 120761, Control_c, 0, 64, 77
1, 120769, Note_on_c, 0, 48, 68
1, 120776, Control_c, 0, 64, 68
1, 120787, Note_on_c, 0, 44, 46
1, 120791, Control_c, 0, 64, 52
1, 120805, Control_c, 0, 64, 21
1, 120820, Control_c, 0, 64, 46
1, 120832, Note_off_c, 0, 44, 59
1, 120835, Control_c, 0, 64, 61
1, 120837, Note_on_c, 0, 50, 34
1, 120850, Control_c, 0, 64, 65
1, 120865, Control_c, 0, 64, 69
1, 120879, Control_c, 0, 64, 74
1, 120883, Note_off_c, 0, 50, 62
1, 120894, Note_on_c, 0, 54, 38
1, 120894, Control_c, 0, 64, 80
1, 120909, Control_c, 0, 64, 87
1, 120925, Control_c, 0, 64, 92
1, 120929, Note_off_c, 0, 54, 53
1, 120940, Control_c, 0, 64, 97
1, 120954, Control_c, 0, 64, 102
1, 120968, Note_on_c, 0, 57, 37
1, 120969, Control_c, 0, 64, 107
1, 120984, Control_c, 0, 64, 113
1, 120985, Note_off_c, 0, 48, 36
1, 120999, Control_c, 0, 64, 126
1, 121007, Note_off_c, 0, 57, 47
1, 121014, Control_c, 0, 64, 127
1, 121031, Note_on_c, 0, 45, 53
1, 121054, Note_on_c, 0, 60, 48
1, 121058, Note_off_c, 0, 45, 61
1, 121079, Note_off_c, 0, 60, 62
1, 121121, Note_on_c, 0, 57, 54
1, 121167, Note_off_c, 0, 57, 60
1, 121246, Note_on_c, 0, 54, 5
1, 121259, Note_on_c, 0, 50, 53
1, 121293, Note_off_c, 0, 54, 56
1, 121302, Note_off_c, 0, 50, 61
1, 121331, Note_on_c, 0, 44, 63
1, 121389, Note_off_c, 0, 44, 51
1, 121394, Note_on_c, 0, 50, 52
1, 121407, Control_c, 0, 67, 117
1, 121422, Control_c, 0, 67, 102
1, 121436, Control_c, 0, 67, 76
1, 121451, Control_c, 0, 67, 52
1, 121454, Note_on_c, 0, 54, 43
1, 121465, Note_off_c, 0, 50, 63
1, 121466, Control_c, 0, 67, 31
1, 121481, Control_c, 0, 67, 12
1, 121487, Note_off_c, 0, 54, 62
1, 121495, Control_c, 0, 67, 0
1, 121514, Note_on_c, 0, 57, 54
1, 121577, Note_off_c, 0, 57, 52
1, 121594, Note_on_c, 0, 60, 52
1, 121620, Note_off_c, 0, 60, 58
1, 121660, Note_on_c, 0, 57, 47
1, 121701, Note_off_c, 0, 57, 53
1, 121740, Note_on_c, 0, 54, 55
1, 121775, Note_on_c, 0, 50, 55
1, 121775, Note_off_c, 0, 54, 62
1, 121820, Note_off_c, 0, 50, 61
1, 121822, Control_c, 0, 64, 117
1, 121837, Control_c, 0, 64, 91
1, 121849, Note_on_c, 0, 60, 74
1, 121851, Control_c, 0, 64, 70
1, 121859, Note_on_c, 0, 44, 57
1, 121866, Control_c, 0, 64, 54
1, 121879, Note_off_c, 0, 60, 66
1, 121881, Control_c, 0, 64, 61
1, 121904, Control_c, 0, 64, 67
1, 121919, Control_c, 0, 64, 75
1, 121928, Note_on_c, 0, 50, 46
1, 121929, Note_off_c, 0, 44, 58
1, 121933, Control_c, 0, 64, 86
1, 121948, Control_c, 0, 64, 101
1, 121963, Control_c, 0, 64, 127
1, 121968, Note_on_c, 0, 54, 53
1, 122001, Note_off_c, 0, 50, 55
1, 122004, Note_on_c, 0, 57, 52
1, 122037, Note_off_c, 0, 57, 63
1, 122049, Note_off_c, 0, 54, 62
1, 122111, Note_on_c, 0, 60, 53
1, 122113, Note_on_c, 0, 62, 57
1, 122155, Note_on_c, 0, 66, 52
1, 122156, Note_off_c, 0, 60, 63
1, 122174, Note_off_c, 0, 62, 59
1, 122182, Note_on_c, 0, 69, 55
1, 122197, Note_off_c, 0, 66, 61
1, 122211, Note_off_c, 0, 69, 65
1, 122220, Note_on_c, 0, 74, 45
1, 122246, Note_off_c, 0, 74, 58
1, 122334, Control_c, 0, 64, 92
1, 122349, Control_c, 0, 64, 74
1, 122358, Note_on_c, 0, 68, 65
1, 122363, Note_on_c, 0, 72, 71
1, 122364, Control_c, 0, 64, 63
1, 122366, Note_on_c, 0, 60, 63
1, 122378, Control_c, 0, 64, 64
1, 122393, Control_c, 0, 64, 68
1, 122408, Control_c, 0, 64, 75
1, 122423, Control_c, 0, 64, 87
1, 122438, Control_c, 0, 64, 103
1, 122449, Note_off_c, 0, 68, 58
1, 122452, Control_c, 0, 64, 127
1, 122457, Note_on_c, 0, 75, 48
1, 122461, Note_off_c, 0, 72, 57
1, 122485, Note_on_c, 0, 78, 52
1, 122494, Note_off_c, 0, 60, 61
1, 122532, Note_off_c, 0, 75, 50
1, 122560, Note_on_c, 0, 80, 55
1, 122563, Note_off_c, 0, 78, 64
1, 122599, Note_off_c, 0, 80, 62
1, 122619, Note_on_c, 0, 57, 67
1, 122621, Note_on_c, 0, 69, 64
1, 122640, Note_off_c, 0, 57, 64
1, 122655, Note_off_c, 0, 69, 65
1, 122663, Note_on_c, 0, 74, 53
1, 122667, Note_on_c, 0, 72, 48
1, 122694, Note_off_c, 0, 72, 62
1, 122698, Note_on_c, 0, 78, 70
1, 122714, Note_off_c, 0, 74, 61
1, 122724, Note_on_c, 0, 81, 66
1, 122751, Note_on_c, 0, 86, 72
1, 122753, Note_off_c, 0, 78, 65
1, 122756, Note_off_c, 0, 81, 63
1, 122774, Note_off_c, 0, 86, 70
1, 122860, Note_on_c, 0, 84, 97
1, 122866, Note_on_c, 0, 72, 86
1, 122869, Note_on_c, 0, 80, 85
1, 122897, Note_off_c, 0, 84, 64
1, 122898, Note_off_c, 0, 72, 60
1, 122945, Note_off_c, 0, 80, 58
1, 122948, Note_on_c, 0, 87, 70
1, 122976, Note_on_c, 0, 90, 67
1, 123031, Note_off_c, 0, 87, 62
1, 123046, Note_on_c, 0, 92, 66
1, 123074, Note_off_c, 0, 90, 64
1, 123106, Note_on_c, 0, 81, 81
1, 123107, Note_on_c, 0, 69, 69
1, 123107, Note_off_c, 0, 92, 67
1, 123124, Note_off_c, 0, 69, 67
1, 123138, Note_on_c, 0, 86, 69
1, 123165, Note_off_c, 0, 81, 59
1, 123190, Note_off_c, 0, 86, 58
1, 123195, Note_on_c, 0, 90, 69
1, 123245, Note_on_c, 0, 93, 58
1, 123248, Note_on_c, 0, 98, 69
1, 123264, Note_off_c, 0, 90, 65
1, 123272, Note_off_c, 0, 93, 67
1, 123280, Note_off_c, 0, 98, 66
1, 123305, Control_c, 0, 64, 90
1, 123320, Note_on_c, 0, 84, 100
1, 123320, Control_c, 0, 64, 67
1, 123326, Note_on_c, 0, 78, 90
1, 123335, Control_c, 0, 64, 64
1, 123337, Note_off_c, 0, 84, 72
1, 123350, Control_c, 0, 64, 73
1, 123363, Note_off_c, 0, 78, 63
1, 123365, Control_c, 0, 64, 87
1, 123367, Note_on_c, 0, 98, 93
1, 123369, Note_on_c, 0, 96, 96
1, 123376, Note_on_c, 0, 105, 71
1, 123380, Control_c, 0, 64, 127
1, 123385, Note_on_c, 0, 100, 68
1, 123386, Note_off_c, 0, 100, 127
1, 123400, Note_on_c, 0, 107, 49
1, 123406, Note_off_c, 0, 98, 65
1, 123407, Note_off_c, 0, 96, 62
1, 123414, Note_off_c, 0, 105, 63
1, 123416, Note_on_c, 0, 93, 78
1, 123426, Note_off_c, 0, 107, 39
1, 123460, Note_on_c, 0, 96, 71
1, 123462, Note_on_c, 0, 98, 82
1, 123474, Note_on_c, 0, 105, 41
1, 123475, Note_off_c, 0, 93, 65
1, 123484, Note_off_c, 0, 96, 62
1, 123486, Note_off_c, 0, 98, 69
1, 123508, Note_off_c, 0, 105, 32
1, 123544, Poly_aftertouch_c, 0, 100, 0
1, 123577, Note_on_c, 0, 66, 78
1, 123585, Note_on_c, 0, 72, 54
1, 123598, Note_off_c, 0, 66, 68
1, 123598, Note_on_c, 0, 71, 36
1, 123608, Note_off_c, 0, 72, 63
1, 123615, Note_on_c, 0, 83, 75
1, 123617, Note_on_c, 0, 86, 63
1, 123624, Note_on_c, 0, 84, 57
1, 123630, Note_off_c, 0, 71, 58
1, 123636, Note_off_c, 0, 86, 65
1, 123637, Note_off_c, 0, 83, 66
1, 123643, Note_off_c, 0, 84, 64
1, 123648, Note_on_c, 0, 81, 68
1, 123687, Note_on_c, 0, 86, 74
1, 123705, Note_off_c, 0, 81, 60
1, 123708, Note_off_c, 0, 86, 71
1, 123836, Note_on_c, 0, 56, 71
1, 123883, Note_off_c, 0, 56, 57
1, 123886, Note_on_c, 0, 62, 64
1, 123907, Note_on_c, 0, 66, 59
1, 123910, Note_on_c, 0, 69, 35
1, 123921, Note_off_c, 0, 62, 58
1, 123943, Note_off_c, 0, 69, 54
1, 123952, Note_on_c, 0, 61, 65
1, 123960, Note_off_c, 0, 66, 56
1, 123987, Note_off_c, 0, 61, 64
1, 124007, Note_on_c, 0, 60, 61
1, 124052, Note_off_c, 0, 60, 52
1, 124063, Note_on_c, 0, 59, 66
1, 124067, Note_on_c, 0, 44, 81
1, 124106, Note_off_c, 0, 44, 63
1, 124120, Note_on_c, 0, 58, 77
1, 124122, Note_off_c, 0, 59, 59
1, 124172, Note_off_c, 0, 58, 64
1, 124191, Note_on_c, 0, 57, 61
1, 124238, Note_on_c, 0, 56, 80
1, 124241, Note_off_c, 0, 57, 62
1, 124279, Note_off_c, 0, 56, 58
1, 124318, Note_on_c, 0, 32, 96
1, 124387, Note_on_c, 0, 50, 64
1, 124399, Note_on_c, 0, 57, 45
1, 124408, Note_on_c, 0, 54, 67
1, 124416, Note_off_c, 0, 32, 58
1, 124429, Note_off_c, 0, 50, 63
1, 124460, Note_on_c, 0, 49, 74
1, 124461, Note_off_c, 0, 57, 57
1, 124474, Note_off_c, 0, 54, 66
1, 124508, Note_off_c, 0, 49, 60
1, 124527, Note_on_c, 0, 48, 62
1, 124583, Note_on_c, 0, 21, 92
1, 124587, Note_off_c, 0, 48, 59
1, 124594, Note_on_c, 0, 47, 67
1, 124620, Note_off_c, 0, 21, 61
1, 124624, Control_c, 0, 67, 14
1, 124638, Control_c, 0, 67, 47
1, 124653, Control_c, 0, 67, 97
1, 124656, Note_off_c, 0, 47, 65
1, 124668, Control_c, 0, 67, 127
1, 124669, Note_on_c, 0, 46, 68
1, 124703, Note_off_c, 0, 46, 64
1, 124733, Note_on_c, 0, 45, 58
1, 124757, Control_c, 0, 64, 101
1, 124769, Note_off_c, 0, 45, 62
1, 124772, Control_c, 0, 64, 72
1, 124787, Note_on_c, 0, 44, 66
1, 124787, Control_c, 0, 64, 0
1, 124810, Note_off_c, 0, 44, 66
1, 125047, Control_c, 0, 64, 36
1, 125062, Control_c, 0, 64, 60
1, 125064, Note_on_c, 0, 65, 46
1, 125070, Note_on_c, 0, 44, 53
1, 125076, Control_c, 0, 64, 66
1, 125080, Note_on_c, 0, 60, 32
1, 125091, Control_c, 0, 64, 73
1, 125106, Control_c, 0, 64, 78
1, 125114, Note_off_c, 0, 44, 56
1, 125121, Control_c, 0, 64, 83
1, 125136, Control_c, 0, 64, 88
1, 125148, Note_off_c, 0, 60, 53
1, 125151, Control_c, 0, 64, 93
1, 125166, Control_c, 0, 64, 99
1, 125180, Control_c, 0, 64, 104
1, 125193, Note_on_c, 0, 53, 48
1, 125195, Control_c, 0, 64, 106
1, 125210, Control_c, 0, 64, 108
1, 125225, Control_c, 0, 64, 109
1, 125240, Control_c, 0, 64, 109
1, 125254, Control_c, 0, 64, 110
1, 125268, Control_c, 0, 64, 110
1, 125269, Note_on_c, 0, 56, 46
1, 125298, Note_off_c, 0, 65, 57
1, 125308, Note_on_c, 0, 60, 52
1, 125338, Note_off_c, 0, 53, 37
1, 125347, Note_off_c, 0, 60, 60
1, 125365, Note_off_c, 0, 56, 39
1, 125393, Note_on_c, 0, 67, 67
1, 125401, Note_on_c, 0, 62, 66
1, 125416, Control_c, 0, 64, 110
1, 125459, Note_on_c, 0, 59, 59
1, 125494, Note_on_c, 0, 56, 67
1, 125521, Note_off_c, 0, 59, 49
1, 125552, Note_on_c, 0, 52, 62
1, 125560, Note_off_c, 0, 56, 63
1, 125580, Control_c, 0, 64, 110
1, 125594, Control_c, 0, 64, 111
1, 125616, Note_off_c, 0, 52, 59
1, 125624, Control_c, 0, 64, 110
1, 125646, Control_c, 0, 64, 100
1, 125661, Control_c, 0, 64, 86
1, 125666, Note_on_c, 0, 44, 66
1, 125672, Note_on_c, 0, 59, 73
1, 125672, Note_on_c, 0, 64, 75
1, 125675, Control_c, 0, 64, 73
1, 125690, Control_c, 0, 64, 63
1, 125691, Note_off_c, 0, 67, 61
1, 125694, Note_off_c, 0, 62, 45
1, 125705, Control_c, 0, 64, 64
1, 125719, Note_off_c, 0, 44, 64
1, 125721, Control_c, 0, 64, 69
1, 125736, Control_c, 0, 64, 76
1, 125744, Note_on_c, 0, 52, 62
1, 125750, Control_c, 0, 64, 87
1, 125754, Note_off_c, 0, 59, 59
1, 125765, Control_c, 0, 64, 106
1, 125777, Note_off_c, 0, 64, 65
1, 125780, Control_c, 0, 64, 127
1, 125799, Note_on_c, 0, 56, 72
1, 125854, Note_off_c, 0, 52, 62
1, 125872, Note_on_c, 0, 59, 68
1, 125877, Note_off_c, 0, 56, 61
1, 125930, Note_off_c, 0, 59, 55
1, 125958, Note_on_c, 0, 71, 78
1, 125960, Note_on_c, 0, 68, 79
1, 125979, Note_on_c, 0, 62, 61
1, 126013, Note_off_c, 0, 62, 61
1, 126049, Note_off_c, 0, 71, 60
1, 126052, Note_on_c, 0, 59, 65
1, 126068, Note_off_c, 0, 68, 60
1, 126084, Note_off_c, 0, 59, 57
1, 126122, Note_on_c, 0, 64, 85
1, 126127, Note_on_c, 0, 59, 73
1, 126132, Note_on_c, 0, 56, 66
1, 126174, Note_off_c, 0, 59, 56
1, 126187, Note_off_c, 0, 64, 64
1, 126194, Note_off_c, 0, 56, 61
1, 126221, Note_on_c, 0, 52, 47
1, 126301, Note_off_c, 0, 52, 55
1, 126330, Note_on_c, 0, 77, 83
1, 126332, Note_on_c, 0, 72, 72
1, 126339, Note_on_c, 0, 44, 58
1, 126349, Note_on_c, 0, 65, 59
1, 126358, Control_c, 0, 64, 102
1, 126373, Control_c, 0, 64, 84
1, 126396, Control_c, 0, 64, 68
1, 126408, Note_off_c, 0, 44, 54
1, 126411, Control_c, 0, 64, 0
1, 126455, Control_c, 0, 64, 60
1, 126467, Note_on_c, 0, 53, 55
1, 126469, Control_c, 0, 64, 69
1, 126484, Control_c, 0, 64, 77
1, 126499, Control_c, 0, 64, 87
1, 126515, Control_c, 0, 64, 99
1, 126530, Control_c, 0, 64, 108
1, 126545, Control_c, 0, 64, 119
1, 126557, Note_on_c, 0, 56, 63
1, 126560, Control_c, 0, 64, 127
1, 126588, Note_off_c, 0, 53, 57
1, 126599, Note_off_c, 0, 77, 63
1, 126605, Note_off_c, 0, 56, 55
1, 126610, Note_off_c, 0, 65, 37
1, 126647, Note_on_c, 0, 60, 56
1, 126689, Note_off_c, 0, 60, 57
1, 126706, Note_on_c, 0, 79, 82
1, 126714, Note_on_c, 0, 74, 74
1, 126741, Note_on_c, 0, 62, 57
1, 126743, Note_on_c, 0, 67, 57
1, 126743, Note_off_c, 0, 72, 60
1, 126773, Note_off_c, 0, 74, 63
1, 126775, Note_off_c, 0, 62, 61
1, 126806, Note_off_c, 0, 79, 54
1, 126827, Note_on_c, 0, 59, 61
1, 126849, Note_off_c, 0, 67, 47
1, 126863, Note_off_c, 0, 59, 57
1, 126902, Note_on_c, 0, 56, 60
1, 126929, Note_off_c, 0, 56, 65
1, 126942, Note_on_c, 0, 52, 57
1, 126973, Control_c, 0, 64, 113
1, 126988, Control_c, 0, 64, 95
1, 127002, Note_on_c, 0, 76, 77
1, 127003, Control_c, 0, 64, 80
1, 127011, Note_off_c, 0, 52, 46
1, 127014, Note_on_c, 0, 71, 59
1, 127018, Control_c, 0, 64, 66
1, 127030, Note_on_c, 0, 44, 53
1, 127030, Note_on_c, 0, 64, 49
1, 127033, Control_c, 0, 64, 44
1, 127047, Control_c, 0, 64, 49
1, 127062, Control_c, 0, 64, 62
1, 127064, Note_off_c, 0, 44, 64
1, 127077, Control_c, 0, 64, 68
1, 127091, Control_c, 0, 64, 75
1, 127096, Note_on_c, 0, 52, 42
1, 127106, Control_c, 0, 64, 83
1, 127121, Control_c, 0, 64, 91
1, 127144, Control_c, 0, 64, 96
1, 127159, Control_c, 0, 64, 99
1, 127163, Note_on_c, 0, 56, 62
1, 127173, Control_c, 0, 64, 100
1, 127178, Note_off_c, 0, 64, 34
1, 127179, Note_off_c, 0, 52, 60
1, 127204, Note_off_c, 0, 56, 58
1, 127209, Note_off_c, 0, 71, 36
1, 127218, Control_c, 0, 64, 101
1, 127230, Note_on_c, 0, 59, 52
1, 127233, Control_c, 0, 64, 102
1, 127247, Control_c, 0, 64, 102
1, 127262, Control_c, 0, 64, 98
1, 127275, Note_off_c, 0, 59, 47
1, 127277, Control_c, 0, 64, 84
1, 127291, Control_c, 0, 64, 69
1, 127306, Note_on_c, 0, 62, 55
1, 127306, Control_c, 0, 64, 56
1, 127315, Note_off_c, 0, 76, 56
1, 127321, Note_on_c, 0, 64, 43
1, 127322, Control_c, 0, 64, 62
1, 127326, Note_on_c, 0, 71, 54
1, 127337, Note_off_c, 0, 62, 63
1, 127337, Control_c, 0, 64, 68
1, 127352, Control_c, 0, 64, 76
1, 127367, Control_c, 0, 64, 86
1, 127380, Note_on_c, 0, 59, 61
1, 127382, Control_c, 0, 64, 100
1, 127396, Control_c, 0, 64, 105
1, 127411, Control_c, 0, 64, 103
1, 127416, Note_off_c, 0, 59, 55
1, 127426, Control_c, 0, 64, 96
1, 127441, Control_c, 0, 64, 91
1, 127456, Note_on_c, 0, 56, 53
1, 127456, Control_c, 0, 64, 90
1, 127470, Control_c, 0, 64, 91
1, 127485, Control_c, 0, 64, 94
1, 127490, Note_off_c, 0, 56, 64
1, 127495, Note_on_c, 0, 52, 56
1, 127500, Control_c, 0, 64, 98
1, 127515, Control_c, 0, 64, 103
1, 127529, Control_c, 0, 64, 107
1, 127544, Control_c, 0, 64, 111
1, 127546, Note_off_c, 0, 52, 53
1, 127559, Control_c, 0, 64, 118
1, 127574, Control_c, 0, 64, 127
1, 127582, Note_on_c, 0, 44, 60
1, 127605, Note_off_c, 0, 64, 36
1, 127613, Note_off_c, 0, 44, 64
1, 127641, Note_off_c, 0, 71, 61
1, 127657, Note_on_c, 0, 52, 57
1, 127700, Note_on_c, 0, 56, 60
1, 127730, Note_off_c, 0, 52, 60
1, 127733, Note_off_c, 0, 56, 63
1, 127765, Note_on_c, 0, 59, 57
1, 127828, Note_off_c, 0, 59, 36
1, 127846, Note_on_c, 0, 62, 60
1, 127876, Note_off_c, 0, 62, 65
1, 127914, Note_on_c, 0, 59, 55
1, 127989, Note_off_c, 0, 59, 37
1, 128003, Note_on_c, 0, 56, 61
1, 128027, Note_on_c, 0, 52, 61
1, 128051, Note_off_c, 0, 56, 54
1, 128107, Note_on_c, 0, 50, 76
1, 128134, Note_off_c, 0, 50, 68
1, 128140, Note_on_c, 0, 44, 58
1, 128170, Note_off_c, 0, 44, 63
1, 128233, Note_on_c, 0, 56, 60
1, 128259, Note_off_c, 0, 52, 52
1, 128282, Note_off_c, 0, 56, 58
1, 128293, Note_on_c, 0, 59, 48
1, 128339, Note_off_c, 0, 59, 52
1, 128377, Note_on_c, 0, 47, 48
1, 128381, Note_on_c, 0, 64, 65
1, 128382, Note_on_c, 0, 62, 62
1, 128406, Note_off_c, 0, 47, 57
1, 128427, Note_on_c, 0, 68, 62
1, 128442, Note_off_c, 0, 62, 59
1, 128449, Note_off_c, 0, 64, 61
1, 128471, Note_on_c, 0, 71, 54
1, 128484, Note_off_c, 0, 68, 63
1, 128490, Note_off_c, 0, 71, 64
1, 128564, Poly_aftertouch_c, 0, 76, 0
1, 128583, Poly_aftertouch_c, 0, 76, 0
1, 128604, Control_c, 0, 64, 89
1, 128619, Control_c, 0, 64, 80
1, 128634, Note_on_c, 0, 74, 82
1, 128639, Note_on_c, 0, 62, 69
1, 128641, Control_c, 0, 64, 80
1, 128643, Note_on_c, 0, 68, 58
1, 128656, Control_c, 0, 64, 86
1, 128671, Control_c, 0, 64, 96
1, 128686, Control_c, 0, 64, 127
1, 128719, Note_off_c, 0, 68, 60
1, 128726, Note_on_c, 0, 75, 61
1, 128744, Note_off_c, 0, 74, 62
1, 128760, Note_on_c, 0, 80, 61
1, 128778, Note_off_c, 0, 62, 58
1, 128805, Note_off_c, 0, 75, 59
1, 128823, Note_on_c, 0, 83, 70
1, 128857, Note_off_c, 0, 80, 63
1, 128877, Note_off_c, 0, 83, 64
1, 128893, Note_on_c, 0, 59, 76
1, 128895, Note_on_c, 0, 71, 75
1, 128912, Note_on_c, 0, 76, 68
1, 128915, Note_on_c, 0, 74, 72
1, 128916, Note_off_c, 0, 59, 69
1, 128918, Note_off_c, 0, 71, 71
1, 128954, Note_off_c, 0, 74, 52
1, 128966, Note_on_c, 0, 80, 82
1, 128974, Note_off_c, 0, 76, 58
1, 128991, Note_on_c, 0, 83, 69
1, 129020, Note_off_c, 0, 80, 64
1, 129023, Note_off_c, 0, 83, 65
1, 129030, Note_on_c, 0, 88, 56
1, 129047, Note_on_c, 0, 85, 28
1, 129049, Note_off_c, 0, 88, 63
1, 129073, Control_c, 0, 67, 126
1, 129082, Note_off_c, 0, 85, 53
1, 129087, Control_c, 0, 67, 96
1, 129102, Control_c, 0, 67, 43
1, 129117, Control_c, 0, 67, 0
1, 129129, Note_on_c, 0, 86, 96
1, 129134, Note_on_c, 0, 74, 86
1, 129143, Note_on_c, 0, 80, 76
1, 129148, Note_on_c, 0, 82, 71
1, 129175, Note_off_c, 0, 86, 62
1, 129178, Note_off_c, 0, 74, 63
1, 129197, Note_off_c, 0, 80, 58
1, 129219, Note_off_c, 0, 82, 54
1, 129227, Note_on_c, 0, 87, 68
1, 129250, Note_on_c, 0, 92, 67
1, 129284, Note_off_c, 0, 87, 64
1, 129323, Note_on_c, 0, 95, 75
1, 129323, Note_off_c, 0, 92, 64
1, 129367, Note_on_c, 0, 83, 87
1, 129384, Note_on_c, 0, 71, 54
1, 129391, Note_off_c, 0, 95, 67
1, 129405, Note_off_c, 0, 71, 66
1, 129410, Note_on_c, 0, 88, 83
1, 129431, Note_off_c, 0, 83, 59
1, 129467, Note_on_c, 0, 92, 71
1, 129468, Note_off_c, 0, 88, 58
1, 129519, Note_on_c, 0, 95, 64
1, 129523, Note_on_c, 0, 100, 73
1, 129542, Note_off_c, 0, 92, 65
1, 129547, Note_off_c, 0, 95, 69
1, 129557, Note_on_c, 0, 97, 33
1, 129559, Note_off_c, 0, 100, 63
1, 129568, Control_c, 0, 64, 75
1, 129583, Control_c, 0, 64, 0
1, 129586, Note_on_c, 0, 86, 105
1, 129592, Note_on_c, 0, 80, 95
1, 129592, Note_off_c, 0, 97, 55
1, 129598, Control_c, 0, 64, 36
1, 129610, Note_off_c, 0, 86, 68
1, 129613, Control_c, 0, 64, 70
1, 129628, Control_c, 0, 64, 89
1, 129633, Note_off_c, 0, 80, 65
1, 129641, Note_on_c, 0, 107, 92
1, 129643, Note_on_c, 0, 100, 91
1, 129643, Control_c, 0, 64, 127
1, 129647, Note_on_c, 0, 98, 88
1, 129661, Note_on_c, 0, 104, 60
1, 129670, Note_off_c, 0, 107, 62
1, 129673, Note_off_c, 0, 98, 67
1, 129674, Note_off_c, 0, 100, 64
1, 129681, Note_off_c, 0, 104, 63
1, 129683, Note_on_c, 0, 95, 83
1, 129727, Note_on_c, 0, 98, 81
1, 129729, Note_on_c, 0, 100, 76
1, 129750, Note_off_c, 0, 95, 65
1, 129766, Note_off_c, 0, 98, 60
1, 129766, Note_off_c, 0, 100, 62
1, 129828, Note_on_c, 0, 74, 92
1, 129838, Note_on_c, 0, 68, 82
1, 129844, Note_off_c, 0, 74, 76
1, 129857, Note_off_c, 0, 68, 70
1, 129877, Note_on_c, 0, 84, 79
1, 129887, Note_on_c, 0, 86, 60
1, 129900, Note_off_c, 0, 84, 66
1, 129906, Note_off_c, 0, 86, 64
1, 129917, Note_on_c, 0, 83, 65
1, 129963, Note_on_c, 0, 84, 49
1, 129963, Note_off_c, 0, 83, 65
1, 129977, Note_on_c, 0, 88, 30
1, 129979, Note_on_c, 0, 86, 55
1, 129983, Note_off_c, 0, 84, 60
1, 129998, Note_off_c, 0, 86, 63
1, 130010, Note_off_c, 0, 88, 53
1, 130095, Note_on_c, 0, 56, 76
1, 130154, Note_on_c, 0, 64, 62
1, 130159, Note_off_c, 0, 56, 55
1, 130163, Note_on_c, 0, 71, 46
1, 130167, Note_on_c, 0, 68, 57
1, 130194, Note_off_c, 0, 64, 61
1, 130209, Note_off_c, 0, 71, 60
1, 130227, Note_on_c, 0, 63, 68
1, 130233, Note_off_c, 0, 68, 61
1, 130260, Note_off_c, 0, 63, 64
1, 130280, Note_on_c, 0, 62, 68
1, 130335, Note_off_c, 0, 62, 55
1, 130353, Note_on_c, 0, 61, 71
1, 130358, Note_on_c, 0, 44, 83
1, 130390, Note_off_c, 0, 44, 67
1, 130406, Note_on_c, 0, 60, 74
1, 130421, Note_off_c, 0, 61, 63
1, 130455, Note_off_c, 0, 60, 65
1, 130475, Note_on_c, 0, 59, 67
1, 130525, Note_off_c, 0, 59, 57
1, 130530, Note_on_c, 0, 58, 78
1, 130560, Note_off_c, 0, 58, 63
1, 130600, Note_on_c, 0, 32, 97
1, 130668, Note_on_c, 0, 52, 76
1, 130678, Note_on_c, 0, 59, 51
1, 130693, Note_on_c, 0, 56, 63
1, 130718, Note_off_c, 0, 32, 56
1, 130720, Note_off_c, 0, 52, 61
1, 130743, Note_off_c, 0, 59, 55
1, 130747, Note_on_c, 0, 51, 67
1, 130756, Note_off_c, 0, 56, 65
1, 130801, Note_off_c, 0, 51, 63
1, 130814, Note_on_c, 0, 50, 68
1, 130854, Note_on_c, 0, 21, 94
1, 130873, Note_off_c, 0, 50, 62
1, 130877, Note_on_c, 0, 49, 77
1, 130902, Note_off_c, 0, 21, 62
1, 130949, Note_on_c, 0, 48, 67
1, 130973, Note_off_c, 0, 49, 63
1, 130982, Note_off_c, 0, 48, 63
1, 131008, Note_on_c, 0, 47, 66
1, 131022, Control_c, 0, 67, 10
1, 131037, Control_c, 0, 67, 24
1, 131046, Note_off_c, 0, 47, 65
1, 131052, Control_c, 0, 67, 49
1, 131057, Note_on_c, 0, 46, 67
1, 131066, Control_c, 0, 67, 78
1, 131080, Note_off_c, 0, 46, 61
1, 131081, Control_c, 0, 67, 102
1, 131096, Control_c, 0, 67, 119
1, 131111, Control_c, 0, 64, 106
1, 131111, Control_c, 0, 67, 127
1, 131126, Control_c, 0, 64, 87
1, 131140, Control_c, 0, 64, 70
1, 131155, Control_c, 0, 64, 0
1, 131284, Note_on_c, 0, 44, 53
1, 131288, Note_on_c, 0, 66, 60
1, 131288, Control_c, 0, 64, 30
1, 131295, Note_on_c, 0, 61, 51
1, 131303, Control_c, 0, 64, 58
1, 131318, Control_c, 0, 64, 65
1, 131333, Control_c, 0, 64, 72
1, 131348, Control_c, 0, 64, 81
1, 131363, Control_c, 0, 64, 93
1, 131378, Control_c, 0, 64, 117
1, 131383, Note_on_c, 0, 49, 63
1, 131388, Note_off_c, 0, 44, 61
1, 131393, Control_c, 0, 64, 127
1, 131461, Note_on_c, 0, 54, 54
1, 131473, Note_off_c, 0, 61, 36
1, 131497, Note_off_c, 0, 66, 57
1, 131511, Note_on_c, 0, 58, 61
1, 131553, Note_off_c, 0, 49, 57
1, 131572, Note_on_c, 0, 68, 77
1, 131577, Note_on_c, 0, 63, 71
1, 131577, Note_off_c, 0, 58, 59
1, 131604, Note_off_c, 0, 54, 39
1, 131658, Note_on_c, 0, 60, 69
1, 131714, Note_on_c, 0, 56, 71
1, 131723, Note_off_c, 0, 60, 62
1, 131741, Note_on_c, 0, 51, 71
1, 131774, Note_off_c, 0, 56, 63
1, 131785, Control_c, 0, 64, 95
1, 131800, Control_c, 0, 64, 75
1, 131807, Note_off_c, 0, 51, 62
1, 131815, Control_c, 0, 64, 59
1, 131829, Control_c, 0, 64, 46
1, 131831, Note_on_c, 0, 60, 78
1, 131831, Note_on_c, 0, 65, 81
1, 131838, Note_on_c, 0, 44, 80
1, 131844, Control_c, 0, 64, 65
1, 131859, Control_c, 0, 64, 75
1, 131874, Control_c, 0, 64, 90
1, 131888, Control_c, 0, 64, 123
1, 131890, Note_off_c, 0, 68, 52
1, 131892, Note_off_c, 0, 63, 24
1, 131903, Control_c, 0, 64, 127
1, 131913, Note_off_c, 0, 44, 62
1, 131914, Note_on_c, 0, 53, 74
1, 131927, Note_off_c, 0, 60, 61
1, 131971, Note_off_c, 0, 65, 60
1, 131987, Note_on_c, 0, 58, 78
1, 131989, Note_off_c, 0, 53, 63
1, 132048, Note_on_c, 0, 62, 71
1, 132088, Note_off_c, 0, 58, 56
1, 132104, Note_off_c, 0, 62, 59
1, 132127, Control_c, 0, 64, 101
1, 132134, Note_on_c, 0, 51, 74
1, 132135, Note_on_c, 0, 72, 83
1, 132139, Note_on_c, 0, 65, 80
1, 132142, Control_c, 0, 64, 85
1, 132156, Note_on_c, 0, 56, 59
1, 132157, Control_c, 0, 64, 77
1, 132172, Control_c, 0, 64, 76
1, 132186, Control_c, 0, 64, 81
1, 132201, Control_c, 0, 64, 91
1, 132201, Control_c, 0, 67, 126
1, 132210, Note_off_c, 0, 72, 63
1, 132215, Note_on_c, 0, 60, 80
1, 132216, Control_c, 0, 64, 127
1, 132216, Control_c, 0, 67, 121
1, 132218, Note_off_c, 0, 65, 61
1, 132221, Note_off_c, 0, 56, 64
1, 132231, Control_c, 0, 67, 114
1, 132239, Note_off_c, 0, 51, 62
1, 132246, Control_c, 0, 67, 97
1, 132260, Control_c, 0, 67, 67
1, 132275, Control_c, 0, 67, 26
1, 132290, Control_c, 0, 67, 0
1, 132293, Note_off_c, 0, 60, 59
1, 132311, Note_on_c, 0, 60, 72
1, 132314, Note_on_c, 0, 65, 90
1, 132329, Note_on_c, 0, 58, 71
1, 132366, Note_off_c, 0, 60, 63
1, 132388, Poly_aftertouch_c, 0, 54, 127
1, 132390, Note_off_c, 0, 65, 66
1, 132408, Note_on_c, 0, 62, 79
1, 132413, Poly_aftertouch_c, 0, 53, 127
1, 132427, Note_off_c, 0, 58, 62
1, 132450, Poly_aftertouch_c, 0, 53, 0
1, 132450, Poly_aftertouch_c, 0, 54, 0
1, 132469, Note_off_c, 0, 62, 61
1, 132552, Note_on_c, 0, 84, 95
1, 132564, Control_c, 0, 64, 90
1, 132572, Note_on_c, 0, 64, 78
1, 132579, Control_c, 0, 64, 61
1, 132581, Note_on_c, 0, 60, 62
1, 132584, Note_on_c, 0, 55, 59
1, 132594, Control_c, 0, 64, 0
1, 132624, Control_c, 0, 64, 62
1, 132639, Control_c, 0, 64, 80
1, 132646, Note_off_c, 0, 64, 64
1, 132654, Control_c, 0, 64, 127
1, 132667, Note_off_c, 0, 60, 65
1, 132678, Note_off_c, 0, 55, 65
1, 132723, Note_off_c, 0, 84, 53
1, 132752, Note_on_c, 0, 79, 64
1, 132828, Note_on_c, 0, 76, 67
1, 132830, Note_on_c, 0, 44, 94
1, 132833, Note_on_c, 0, 32, 86
1, 132857, Note_off_c, 0, 79, 56
1, 132860, Note_off_c, 0, 44, 59
1, 132862, Note_off_c, 0, 32, 64
1, 132883, Note_off_c, 0, 76, 62
1, 132914, Note_on_c, 0, 72, 68
1, 132953, Note_off_c, 0, 72, 55
1, 132994, Note_on_c, 0, 86, 99
1, 133072, Note_on_c, 0, 81, 73
1, 133104, Note_off_c, 0, 86, 53
1, 133151, Note_on_c, 0, 78, 67
1, 133154, Note_on_c, 0, 66, 89
1, 133154, Note_on_c, 0, 62, 76
1, 133159, Note_on_c, 0, 57, 72
1, 133187, Note_off_c, 0, 81, 60
1, 133206, Note_off_c, 0, 78, 62
1, 133207, Note_on_c, 0, 74, 73
1, 133229, Note_off_c, 0, 62, 62
1, 133234, Note_off_c, 0, 57, 60
1, 133262, Note_off_c, 0, 74, 64
1, 133265, Note_off_c, 0, 66, 63
1, 133295, Note_on_c, 0, 83, 91
1, 133372, Note_on_c, 0, 78, 72
1, 133404, Note_off_c, 0, 83, 62
1, 133428, Note_on_c, 0, 74, 75
1, 133438, Note_on_c, 0, 68, 82
1, 133443, Note_on_c, 0, 59, 75
1, 133444, Note_on_c, 0, 64, 70
1, 133461, Note_off_c, 0, 78, 64
1, 133484, Note_off_c, 0, 68, 62
1, 133485, Note_off_c, 0, 74, 64
1, 133485, Note_on_c, 0, 71, 78
1, 133488, Note_off_c, 0, 64, 61
1, 133488, Note_off_c, 0, 59, 62
1, 133551, Note_off_c, 0, 71, 60
1, 133580, Note_on_c, 0, 78, 83
1, 133587, Note_on_c, 0, 66, 93
1, 133594, Note_on_c, 0, 57, 77
1, 133602, Note_on_c, 0, 62, 69
1, 133627, Note_off_c, 0, 57, 64
1, 133633, Note_off_c, 0, 62, 63
1, 133637, Note_on_c, 0, 74, 64
1, 133640, Note_off_c, 0, 66, 54
1, 133688, Note_on_c, 0, 73, 65
1, 133695, Note_off_c, 0, 78, 55
1, 133700, Note_off_c, 0, 74, 63
1, 133725, Note_off_c, 0, 73, 63
1, 133739, Note_on_c, 0, 68, 97
1, 133743, Note_on_c, 0, 71, 65
1, 133752, Note_on_c, 0, 64, 73
1, 133755, Note_on_c, 0, 59, 69
1, 133765, Note_off_c, 0, 71, 66
1, 133795, Note_off_c, 0, 59, 62
1, 133803, Note_off_c, 0, 64, 59
1, 133845, Note_off_c, 0, 68, 57
1, 133914, Control_c, 0, 64, 104
1, 133929, Control_c, 0, 64, 73
1, 133930, Note_on_c, 0, 85, 98
1, 133935, Note_on_c, 0, 56, 81
1, 133937, Note_on_c, 0, 78, 91
1, 133944, Control_c, 0, 64, 0
1, 133988, Control_c, 0, 64, 65
1, 134003, Control_c, 0, 64, 79
1, 134018, Control_c, 0, 64, 108
1, 134022, Note_on_c, 0, 61, 70
1, 134028, Note_off_c, 0, 56, 55
1, 134032, Control_c, 0, 64, 127
1, 134081, Note_on_c, 0, 66, 74
1, 134136, Note_off_c, 0, 85, 61
1, 134144, Note_on_c, 0, 70, 76
1, 134154, Note_off_c, 0, 78, 60
1, 134167, Note_off_c, 0, 61, 51
1, 134223, Note_off_c, 0, 70, 60
1, 134227, Note_on_c, 0, 87, 102
1, 134233, Note_on_c, 0, 80, 94
1, 134270, Note_off_c, 0, 80, 61
1, 134272, Note_off_c, 0, 66, 35
1, 134275, Note_off_c, 0, 87, 70
1, 134306, Note_on_c, 0, 72, 78
1, 134374, Note_on_c, 0, 68, 74
1, 134378, Note_off_c, 0, 72, 58
1, 134400, Note_on_c, 0, 63, 73
1, 134439, Note_off_c, 0, 68, 60
1, 134484, Note_off_c, 0, 63, 61
1, 134507, Control_c, 0, 64, 90
1, 134514, Note_on_c, 0, 84, 92
1, 134517, Note_on_c, 0, 56, 81
1, 134522, Note_on_c, 0, 80, 82
1, 134522, Control_c, 0, 64, 66
1, 134523, Note_on_c, 0, 79, 83
1, 134537, Control_c, 0, 64, 0
1, 134567, Control_c, 0, 64, 30
1, 134581, Control_c, 0, 64, 64
1, 134595, Note_off_c, 0, 56, 63
1, 134596, Control_c, 0, 64, 79
1, 134605, Note_on_c, 0, 65, 72
1, 134611, Control_c, 0, 64, 101
1, 134633, Control_c, 0, 64, 127
1, 134692, Note_off_c, 0, 65, 59
1, 134698, Note_on_c, 0, 70, 75
1, 134737, Note_off_c, 0, 79, 59
1, 134763, Note_on_c, 0, 74, 70
1, 134799, Note_off_c, 0, 70, 57
1, 134830, Note_off_c, 0, 80, 58
1, 134855, Control_c, 0, 64, 104
1, 134865, Note_on_c, 0, 63, 72
1, 134869, Note_on_c, 0, 77, 82
1, 134870, Control_c, 0, 64, 77
1, 134877, Note_on_c, 0, 68, 62
1, 134885, Control_c, 0, 64, 51
1, 134895, Note_off_c, 0, 74, 56
1, 134898, Note_off_c, 0, 84, 54
1, 134899, Control_c, 0, 64, 31
1, 134914, Control_c, 0, 64, 63
1, 134929, Control_c, 0, 64, 73
1, 134944, Control_c, 0, 64, 92
1, 134955, Note_off_c, 0, 63, 59
1, 134957, Note_on_c, 0, 72, 78
1, 134959, Control_c, 0, 64, 127
1, 134968, Note_off_c, 0, 68, 60
1, 134970, Note_off_c, 0, 77, 63
1, 135014, Note_off_c, 0, 72, 59
1, 135054, Note_on_c, 0, 72, 71
1, 135070, Note_on_c, 0, 70, 62
1, 135071, Note_on_c, 0, 65, 55
1, 135111, Note_off_c, 0, 72, 62
1, 135173, Note_on_c, 0, 74, 69
1, 135202, Note_off_c, 0, 70, 56
1, 135236, Note_off_c, 0, 74, 62
1, 135245, Note_off_c, 0, 65, 60
1, 135333, Note_on_c, 0, 90, 86
1, 135411, Control_c, 0, 64, 106
1, 135422, Note_on_c, 0, 70, 57
1, 135426, Control_c, 0, 64, 68
1, 135434, Note_on_c, 0, 66, 48
1, 135441, Control_c, 0, 64, 0
1, 135443, Note_on_c, 0, 61, 49
1, 135500, Control_c, 0, 64, 79
1, 135515, Control_c, 0, 64, 127
1, 135517, Note_off_c, 0, 70, 63
1, 135549, Note_off_c, 0, 66, 61
1, 135587, Note_off_c, 0, 61, 56
1, 135651, Note_on_c, 0, 85, 51
1, 135815, Note_on_c, 0, 82, 53
1, 135841, Note_on_c, 0, 32, 49
1, 135854, Note_on_c, 0, 44, 36
1, 135876, Note_off_c, 0, 32, 57
1, 135902, Note_off_c, 0, 44, 50
1, 135939, Note_off_c, 0, 90, 60
1, 135940, Note_off_c, 0, 82, 49
1, 135943, Note_off_c, 0, 85, 52
1, 135948, Note_on_c, 0, 78, 47
1, 136019, Note_off_c, 0, 78, 61
1, 136060, Note_on_c, 0, 92, 67
1, 136212, Note_on_c, 0, 87, 45
1, 136302, Note_on_c, 0, 63, 41
1, 136302, Note_on_c, 0, 72, 44
1, 136323, Note_on_c, 0, 68, 40
1, 136323, Control_c, 0, 67, 14
1, 136338, Control_c, 0, 67, 26
1, 136345, Note_on_c, 0, 84, 35
1, 136353, Control_c, 0, 67, 40
1, 136368, Control_c, 0, 67, 51
1, 136383, Control_c, 0, 67, 62
1, 136398, Control_c, 0, 67, 72
1, 136408, Note_off_c, 0, 84, 56
1, 136413, Control_c, 0, 67, 82
1, 136427, Control_c, 0, 67, 88
1, 136434, Note_on_c, 0, 80, 47
1, 136442, Control_c, 0, 67, 93
1, 136457, Control_c, 0, 67, 98
1, 136471, Control_c, 0, 67, 102
1, 136486, Control_c, 0, 67, 106
1, 136490, Note_off_c, 0, 92, 44
1, 136501, Control_c, 0, 67, 110
1, 136509, Note_off_c, 0, 87, 57
1, 136516, Control_c, 0, 67, 114
1, 136531, Control_c, 0, 67, 118
1, 136533, Note_off_c, 0, 68, 38
1, 136545, Control_c, 0, 67, 122
1, 136558, Note_off_c, 0, 63, 32
1, 136560, Control_c, 0, 67, 125
1, 136575, Control_c, 0, 67, 127
1, 136584, Note_off_c, 0, 80, 62
1, 136587, Note_on_c, 0, 93, 66
1, 136654, Note_off_c, 0, 72, 44
1, 136753, Note_on_c, 0, 88, 50
1, 136931, Note_on_c, 0, 73, 39
1, 136935, Note_on_c, 0, 85, 48
1, 136945, Note_on_c, 0, 69, 30
1, 136958, Note_on_c, 0, 64, 22
1, 137134, Note_off_c, 0, 69, 42
1, 137160, Note_on_c, 0, 79, 42
1, 137160, Note_off_c, 0, 93, 25
1, 137162, Note_on_c, 0, 81, 37
1, 137185, Note_off_c, 0, 85, 37
1, 137212, Note_off_c, 0, 64, 41
1, 137237, Note_off_c, 0, 88, 45
1, 137271, Note_off_c, 0, 79, 37
1, 137280, Note_off_c, 0, 73, 32
1, 137285, Note_off_c, 0, 81, 33
1, 137512, Note_on_c, 0, 95, 50
1, 137523, Note_on_c, 0, 90, 43
1, 138025, Note_off_c, 0, 95, 29
1, 138225, Note_off_c, 0, 90, 0
1, 138230, Note_on_c, 0, 81, 32
1, 138231, Note_on_c, 0, 83, 25
1, 138237, Note_on_c, 0, 75, 19
1, 138251, Note_on_c, 0, 66, 16
1, 138253, Note_on_c, 0, 71, 25
1, 138261, Poly_aftertouch_c, 0, 90, 127
1, 138355, Note_off_c, 0, 81, 43
1, 138358, Poly_aftertouch_c, 0, 90, 0
1, 138359, Note_off_c, 0, 83, 45
1, 138377, Note_off_c, 0, 75, 43
1, 138380, Note_off_c, 0, 71, 35
1, 138466, Note_off_c, 0, 66, 37
1, 139925, Note_on_c, 0, 75, 39
1, 139933, Control_c, 0, 64, 123
1, 139948, Control_c, 0, 64, 113
1, 139963, Note_on_c, 0, 44, 38
1, 139963, Control_c, 0, 64, 105
1, 139977, Control_c, 0, 64, 96
1, 139992, Control_c, 0, 64, 85
1, 140007, Control_c, 0, 64, 73
1, 140021, Control_c, 0, 64, 63
1, 140036, Control_c, 0, 64, 47
1, 140051, Control_c, 0, 64, 59
1, 140066, Control_c, 0, 64, 68
1, 140081, Control_c, 0, 64, 79
1, 140097, Control_c, 0, 64, 100
1, 140112, Control_c, 0, 64, 127
1, 140121, Note_off_c, 0, 44, 54
1, 140390, Note_on_c, 0, 80, 41
1, 140402, Note_off_c, 0, 75, 48
1, 140654, Note_on_c, 0, 87, 42
1, 140660, Note_on_c, 0, 71, 31
1, 140685, Note_on_c, 0, 64, 23
1, 140696, Note_off_c, 0, 80, 37
1, 140723, Note_off_c, 0, 64, 52
1, 140732, Note_off_c, 0, 71, 60
1, 140842, Note_on_c, 0, 90, 49
1, 140857, Note_off_c, 0, 87, 55
1, 140996, Note_on_c, 0, 87, 49
1, 141024, Note_off_c, 0, 90, 37
1, 141026, Note_on_c, 0, 83, 10
1, 141064, Poly_aftertouch_c, 0, 76, 127
1, 141075, Note_off_c, 0, 83, 52
1, 141125, Poly_aftertouch_c, 0, 76, 0
1, 141164, Note_on_c, 0, 80, 52
1, 141164, Note_off_c, 0, 87, 59
1, 141264, Note_off_c, 0, 80, 58
1, 141319, Note_on_c, 0, 76, 32
1, 141325, Note_on_c, 0, 73, 52
1, 141330, Note_on_c, 0, 69, 41
1, 141367, Note_off_c, 0, 76, 50
1, 141389, Note_off_c, 0, 69, 58
1, 141399, Note_off_c, 0, 73, 59
1, 141405, Note_on_c, 0, 80, 51
1, 141465, Note_on_c, 0, 85, 53
1, 141558, Note_off_c, 0, 80, 36
1, 141561, Note_off_c, 0, 85, 59
1, 141562, Note_on_c, 0, 88, 35
1, 141639, Note_on_c, 0, 44, 46
1, 141664, Note_on_c, 0, 75, 50
1, 141668, Note_off_c, 0, 44, 58
1, 141679, Note_off_c, 0, 88, 41
1, 141803, Note_off_c, 0, 75, 56
1, 141821, Note_on_c, 0, 80, 44
1, 141974, Note_on_c, 0, 71, 40
1, 141985, Note_on_c, 0, 87, 50
1, 142002, Note_on_c, 0, 64, 4
1, 142002, Note_off_c, 0, 71, 59
1, 142016, Note_off_c, 0, 80, 50
1, 142049, Note_off_c, 0, 64, 53
1, 142145, Note_on_c, 0, 90, 58
1, 142167, Note_off_c, 0, 87, 53
1, 142293, Note_on_c, 0, 87, 53
1, 142301, Note_on_c, 0, 83, 46
1, 142307, Note_on_c, 0, 76, 44
1, 142311, Note_off_c, 0, 90, 43
1, 142362, Note_off_c, 0, 76, 53
1, 142362, Note_off_c, 0, 83, 52
1, 142452, Note_on_c, 0, 80, 55
1, 142462, Note_off_c, 0, 87, 62
1, 142545, Note_off_c, 0, 80, 59
1, 142599, Note_on_c, 0, 69, 45
1, 142607, Note_on_c, 0, 76, 36
1, 142611, Note_on_c, 0, 73, 49
1, 142638, Note_off_c, 0, 76, 50
1, 142640, Note_off_c, 0, 69, 63
1, 142652, Note_off_c, 0, 73, 57
1, 142671, Note_on_c, 0, 80, 59
1, 142742, Note_on_c, 0, 85, 56
1, 142785, Note_off_c, 0, 80, 51
1, 142807, Note_on_c, 0, 88, 60
1, 142826, Note_off_c, 0, 85, 59
1, 142869, Control_c, 0, 64, 104
1, 142884, Control_c, 0, 64, 73
1, 142899, Control_c, 0, 64, 52
1, 142910, Note_off_c, 0, 88, 49
1, 142914, Control_c, 0, 64, 63
1, 142915, Note_on_c, 0, 44, 48
1, 142928, Control_c, 0, 64, 72
1, 142929, Note_on_c, 0, 75, 53
1, 142943, Control_c, 0, 64, 90
1, 142946, Note_off_c, 0, 44, 56
1, 142958, Control_c, 0, 64, 127
1, 143063, Note_off_c, 0, 75, 52
1, 143081, Note_on_c, 0, 80, 52
1, 143235, Note_on_c, 0, 64, 44
1, 143239, Note_on_c, 0, 71, 40
1, 143255, Note_off_c, 0, 80, 49
1, 143259, Note_on_c, 0, 87, 52
1, 143260, Note_off_c, 0, 64, 60
1, 143268, Note_off_c, 0, 71, 57
1, 143390, Note_off_c, 0, 87, 60
1, 143399, Note_on_c, 0, 90, 60
1, 143503, Note_off_c, 0, 90, 61
1, 143567, Note_on_c, 0, 80, 50
1, 143573, Note_on_c, 0, 76, 45
1, 143614, Note_on_c, 0, 71, 24
1, 143659, Note_off_c, 0, 76, 49
1, 143751, Note_on_c, 0, 87, 50
1, 143834, Note_off_c, 0, 80, 34
1, 143944, Note_on_c, 0, 92, 46
1, 143945, Note_on_c, 0, 83, 36
1, 143958, Note_on_c, 0, 76, 36
1, 143964, Note_off_c, 0, 87, 36
1, 143996, Note_off_c, 0, 83, 46
1, 144112, Note_off_c, 0, 76, 38
1, 144117, Note_off_c, 0, 92, 52
1, 144148, Note_off_c, 0, 71, 43
1, 144174, Note_on_c, 0, 95, 47
1, 144258, Note_off_c, 0, 95, 55
1, 144559, Control_c, 0, 64, 110
1, 144561, Note_on_c, 0, 80, 54
1, 144564, Note_on_c, 0, 32, 51
1, 144574, Control_c, 0, 64, 79
1, 144589, Note_on_c, 0, 44, 37
1, 144589, Control_c, 0, 64, 60
1, 144598, Note_off_c, 0, 32, 57
1, 144604, Control_c, 0, 64, 65
1, 144618, Control_c, 0, 64, 78
1, 144620, Note_off_c, 0, 44, 59
1, 144633, Control_c, 0, 64, 109
1, 144648, Control_c, 0, 64, 127
1, 144723, Note_on_c, 0, 85, 61
1, 144741, Note_off_c, 0, 80, 57
1, 144861, Note_on_c, 0, 76, 59
1, 144864, Note_on_c, 0, 69, 49
1, 144866, Note_off_c, 0, 85, 58
1, 144873, Note_on_c, 0, 92, 55
1, 144887, Note_off_c, 0, 76, 64
1, 144889, Note_off_c, 0, 69, 61
1, 145013, Note_on_c, 0, 97, 65
1, 145042, Note_off_c, 0, 92, 61
1, 145147, Note_on_c, 0, 88, 54
1, 145148, Note_on_c, 0, 81, 59
1, 145150, Note_off_c, 0, 97, 59
1, 145167, Note_off_c, 0, 88, 64
1, 145175, Note_on_c, 0, 92, 59
1, 145175, Note_off_c, 0, 81, 66
1, 145294, Note_off_c, 0, 92, 64
1, 145305, Note_on_c, 0, 85, 57
1, 145382, Note_off_c, 0, 85, 61
1, 145424, Note_on_c, 0, 72, 48
1, 145434, Note_on_c, 0, 78, 59
1, 145445, Note_off_c, 0, 72, 60
1, 145470, Note_on_c, 0, 60, 8
1, 145502, Note_on_c, 0, 84, 51
1, 145514, Note_off_c, 0, 60, 54
1, 145522, Note_off_c, 0, 78, 61
1, 145552, Note_off_c, 0, 84, 59
1, 145556, Note_on_c, 0, 88, 54
1, 145594, Note_on_c, 0, 92, 63
1, 145597, Note_off_c, 0, 88, 58
1, 145663, Control_c, 0, 64, 88
1, 145679, Control_c, 0, 64, 63
1, 145688, Note_off_c, 0, 92, 62
1, 145694, Control_c, 0, 64, 0
1, 145699, Note_on_c, 0, 44, 68
1, 145701, Note_on_c, 0, 32, 53
1, 145709, Control_c, 0, 64, 64
1, 145719, Note_on_c, 0, 80, 60
1, 145722, Note_off_c, 0, 44, 63
1, 145724, Control_c, 0, 64, 78
1, 145728, Note_off_c, 0, 32, 58
1, 145738, Control_c, 0, 64, 127
1, 145798, Note_off_c, 0, 80, 61
1, 145847, Note_on_c, 0, 85, 66
1, 145972, Note_off_c, 0, 85, 56
1, 145994, Note_on_c, 0, 76, 56
1, 145994, Note_on_c, 0, 92, 61
1, 146000, Note_on_c, 0, 69, 56
1, 146015, Note_off_c, 0, 76, 62
1, 146023, Note_off_c, 0, 69, 62
1, 146128, Note_on_c, 0, 97, 65
1, 146169, Note_off_c, 0, 92, 58
1, 146245, Note_off_c, 0, 97, 62
1, 146264, Note_on_c, 0, 88, 58
1, 146270, Note_on_c, 0, 81, 58
1, 146283, Note_off_c, 0, 88, 64
1, 146285, Note_on_c, 0, 92, 59
1, 146297, Note_off_c, 0, 81, 66
1, 146381, Note_off_c, 0, 92, 63
1, 146415, Note_on_c, 0, 85, 55
1, 146486, Note_off_c, 0, 85, 61
1, 146534, Note_on_c, 0, 72, 58
1, 146548, Note_on_c, 0, 66, 52
1, 146550, Note_on_c, 0, 62, 49
1, 146551, Note_on_c, 0, 78, 61
1, 146552, Note_off_c, 0, 72, 66
1, 146580, Note_off_c, 0, 62, 63
1, 146580, Note_off_c, 0, 66, 64
1, 146632, Note_on_c, 0, 84, 55
1, 146657, Note_off_c, 0, 78, 61
1, 146693, Note_on_c, 0, 88, 51
1, 146697, Note_off_c, 0, 84, 62
1, 146749, Note_on_c, 0, 92, 62
1, 146749, Note_off_c, 0, 88, 58
1, 146835, Control_c, 0, 64, 108
1, 146850, Control_c, 0, 64, 65
1, 146865, Control_c, 0, 64, 0
1, 146870, Note_on_c, 0, 44, 97
1, 146872, Note_off_c, 0, 92, 44
1, 146873, Note_on_c, 0, 32, 83
1, 146895, Note_off_c, 0, 32, 66
1, 146901, Note_off_c, 0, 44, 63
1, 146909, Control_c, 0, 64, 76
1, 146924, Control_c, 0, 64, 127
1, 146932, Note_on_c, 0, 80, 70
1, 146990, Note_off_c, 0, 80, 63
1, 146995, Note_on_c, 0, 85, 64
1, 147019, Poly_aftertouch_c, 0, 32, 127
1, 147034, Note_off_c, 0, 85, 62
1, 147042, Note_on_c, 0, 92, 72
1, 147058, Poly_aftertouch_c, 0, 32, 0
1, 147105, Note_off_c, 0, 92, 64
1, 147106, Note_on_c, 0, 97, 88
1, 147123, Note_on_c, 0, 81, 75
1, 147126, Note_on_c, 0, 88, 72
1, 147144, Note_off_c, 0, 88, 68
1, 147151, Note_off_c, 0, 97, 66
1, 147153, Note_off_c, 0, 81, 58
1, 147159, Note_on_c, 0, 92, 66
1, 147206, Note_on_c, 0, 85, 77
1, 147219, Note_off_c, 0, 92, 67
1, 147259, Note_off_c, 0, 85, 63
1, 147265, Note_on_c, 0, 80, 63
1, 147284, Note_off_c, 0, 80, 64
1, 147355, Note_on_c, 0, 69, 68
1, 147358, Note_on_c, 0, 76, 60
1, 147426, Note_on_c, 0, 73, 70
1, 147442, Note_off_c, 0, 76, 0
1, 147451, Note_off_c, 0, 73, 68
1, 147463, Note_on_c, 0, 76, 16
1, 147463, Note_off_c, 0, 69, 54
1, 147483, Note_on_c, 0, 80, 57
1, 147508, Note_off_c, 0, 76, 42
1, 147510, Note_off_c, 0, 80, 66
1, 147516, Note_on_c, 0, 85, 70
1, 147582, Note_on_c, 0, 92, 81
1, 147582, Note_off_c, 0, 85, 65
1, 147586, Note_on_c, 0, 69, 57
1, 147591, Note_on_c, 0, 76, 65
1, 147593, Note_on_c, 0, 81, 55
1, 147593, Note_on_c, 0, 90, 54
1, 147600, Note_off_c, 0, 92, 74
1, 147613, Note_off_c, 0, 81, 61
1, 147619, Note_off_c, 0, 76, 65
1, 147625, Note_off_c, 0, 69, 60
1, 147639, Note_off_c, 0, 90, 64
1, 147647, Note_on_c, 0, 85, 54
1, 147672, Note_on_c, 0, 80, 70
1, 147682, Note_off_c, 0, 85, 66
1, 147710, Note_off_c, 0, 80, 53
1, 147714, Note_on_c, 0, 73, 81
1, 147750, Note_off_c, 0, 73, 58
1, 147806, Note_on_c, 0, 69, 65
1, 147820, Note_on_c, 0, 64, 59
1, 147866, Note_on_c, 0, 68, 61
1, 147898, Note_off_c, 0, 68, 63
1, 147915, Note_off_c, 0, 69, 37
1, 147929, Note_on_c, 0, 73, 57
1, 147952, Note_off_c, 0, 73, 65
1, 147963, Note_on_c, 0, 80, 62
1, 148027, Note_on_c, 0, 85, 81
1, 148029, Note_off_c, 0, 80, 60
1, 148032, Note_on_c, 0, 69, 59
1, 148041, Note_on_c, 0, 76, 51
1, 148059, Note_off_c, 0, 69, 67
1, 148065, Note_off_c, 0, 76, 58
1, 148080, Note_off_c, 0, 85, 64
1, 148080, Note_off_c, 0, 64, 62
1, 148083, Note_on_c, 0, 80, 52
1, 148149, Note_off_c, 0, 80, 64
1, 148151, Note_on_c, 0, 73, 65
1, 148182, Note_on_c, 0, 68, 69
1, 148185, Note_off_c, 0, 73, 61
1, 148205, Note_off_c, 0, 68, 68
1, 148274, Note_on_c, 0, 57, 54
1, 148277, Note_on_c, 0, 64, 52
1, 148346, Note_on_c, 0, 61, 52
1, 148370, Note_off_c, 0, 61, 59
1, 148402, Note_on_c, 0, 68, 53
1, 148421, Note_off_c, 0, 64, 0
1, 148434, Note_off_c, 0, 68, 64
1, 148439, Note_on_c, 0, 73, 60
1, 148447, Poly_aftertouch_c, 0, 64, 0
1, 148512, Note_off_c, 0, 73, 64
1, 148514, Note_on_c, 0, 80, 75
1, 148530, Note_on_c, 0, 69, 43
1, 148539, Note_on_c, 0, 64, 41
1, 148540, Note_off_c, 0, 80, 64
1, 148556, Note_off_c, 0, 69, 59
1, 148560, Note_on_c, 0, 78, 24
1, 148563, Note_off_c, 0, 64, 61
1, 148590, Note_off_c, 0, 57, 61
1, 148596, Note_on_c, 0, 73, 49
1, 148597, Note_off_c, 0, 78, 45
1, 148621, Note_off_c, 0, 73, 64
1, 148623, Note_on_c, 0, 68, 57
1, 148656, Note_off_c, 0, 68, 64
1, 148671, Note_on_c, 0, 61, 60
1, 148698, Note_off_c, 0, 61, 65
1, 148748, Control_c, 0, 64, 100
1, 148762, Note_on_c, 0, 57, 55
1, 148763, Control_c, 0, 64, 79
1, 148777, Control_c, 0, 64, 67
1, 148786, Note_on_c, 0, 52, 36
1, 148792, Control_c, 0, 64, 67
1, 148799, Note_on_c, 0, 56, 56
1, 148807, Control_c, 0, 64, 71
1, 148822, Control_c, 0, 64, 77
1, 148828, Note_off_c, 0, 56, 63
1, 148837, Control_c, 0, 64, 86
1, 148859, Control_c, 0, 64, 97
1, 148874, Control_c, 0, 64, 108
1, 148890, Control_c, 0, 64, 120
1, 148905, Control_c, 0, 64, 124
1, 148920, Control_c, 0, 64, 123
1, 148920, Note_off_c, 0, 57, 47
1, 148923, Note_on_c, 0, 68, 54
1, 148959, Note_off_c, 0, 52, 37
1, 149004, Note_off_c, 0, 68, 61
1, 149007, Note_on_c, 0, 73, 73
1, 149046, Note_on_c, 0, 57, 40
1, 149046, Note_on_c, 0, 52, 49
1, 149052, Note_off_c, 0, 73, 60
1, 149068, Control_c, 0, 64, 122
1, 149076, Note_on_c, 0, 68, 55
1, 149097, Control_c, 0, 64, 121
1, 149112, Control_c, 0, 64, 120
1, 149127, Control_c, 0, 64, 118
1, 149142, Note_on_c, 0, 61, 55
1, 149142, Control_c, 0, 64, 116
1, 149156, Control_c, 0, 64, 115
1, 149157, Note_off_c, 0, 52, 54
1, 149171, Control_c, 0, 64, 113
1, 149177, Note_off_c, 0, 57, 37
1, 149186, Control_c, 0, 64, 112
1, 149188, Note_on_c, 0, 56, 61
1, 149201, Control_c, 0, 64, 110
1, 149215, Control_c, 0, 64, 109
1, 149230, Control_c, 0, 64, 107
1, 149231, Note_off_c, 0, 56, 55
1, 149235, Note_off_c, 0, 68, 35
1, 149245, Control_c, 0, 64, 103
1, 149257, Note_off_c, 0, 61, 47
1, 149260, Control_c, 0, 64, 95
1, 149275, Note_on_c, 0, 52, 64
1, 149275, Control_c, 0, 64, 88
1, 149279, Note_on_c, 0, 57, 63
1, 149290, Control_c, 0, 64, 82
1, 149305, Control_c, 0, 64, 76
1, 149320, Control_c, 0, 64, 74
1, 149335, Control_c, 0, 64, 74
1, 149341, Note_on_c, 0, 56, 55
1, 149349, Control_c, 0, 64, 76
1, 149364, Control_c, 0, 64, 79
1, 149374, Note_off_c, 0, 56, 64
1, 149379, Control_c, 0, 64, 81
1, 149386, Note_on_c, 0, 61, 55
1, 149394, Control_c, 0, 64, 83
1, 149408, Control_c, 0, 64, 85
1, 149421, Note_off_c, 0, 57, 54
1, 149423, Control_c, 0, 64, 86
1, 149429, Note_off_c, 0, 61, 58
1, 149433, Note_off_c, 0, 52, 56
1, 149438, Note_on_c, 0, 68, 58
1, 149438, Control_c, 0, 64, 87
1, 149520, Note_off_c, 0, 68, 61
1, 149521, Note_on_c, 0, 73, 71
1, 149527, Control_c, 0, 64, 86
1, 149542, Control_c, 0, 64, 86
1, 149548, Note_on_c, 0, 52, 39
1, 149556, Control_c, 0, 64, 85
1, 149558, Note_on_c, 0, 57, 27
1, 149559, Note_off_c, 0, 73, 61
1, 149571, Control_c, 0, 64, 84
1, 149573, Note_on_c, 0, 68, 53
1, 149586, Control_c, 0, 64, 84
1, 149592, Note_off_c, 0, 57, 53
1, 149608, Control_c, 0, 64, 83
1, 149609, Note_off_c, 0, 52, 42
1, 149623, Control_c, 0, 64, 82
1, 149638, Control_c, 0, 64, 81
1, 149643, Note_on_c, 0, 61, 60
1, 149653, Control_c, 0, 64, 80
1, 149668, Control_c, 0, 64, 78
1, 149683, Control_c, 0, 64, 76
1, 149686, Note_off_c, 0, 68, 55
1, 149698, Control_c, 0, 64, 72
1, 149702, Note_on_c, 0, 56, 57
1, 149703, Note_off_c, 0, 61, 50
1, 149713, Control_c, 0, 64, 69
1, 149728, Control_c, 0, 64, 65
1, 149740, Note_off_c, 0, 56, 61
1, 149743, Control_c, 0, 64, 62
1, 149758, Control_c, 0, 64, 61
1, 149776, Note_on_c, 0, 52, 49
1, 149777, Note_on_c, 0, 44, 54
1, 149778, Note_on_c, 0, 57, 49
1, 149787, Control_c, 0, 64, 62
1, 149802, Control_c, 0, 64, 63
1, 149817, Control_c, 0, 64, 63
1, 149831, Control_c, 0, 64, 64
1, 149833, Note_on_c, 0, 56, 48
1, 149853, Note_off_c, 0, 57, 46
1, 149861, Note_off_c, 0, 52, 51
1, 149861, Control_c, 0, 64, 64
1, 149869, Note_off_c, 0, 56, 66
1, 149878, Note_on_c, 0, 61, 50
1, 149920, Note_off_c, 0, 61, 61
1, 149931, Note_on_c, 0, 68, 54
1, 150014, Note_off_c, 0, 68, 62
1, 150020, Note_on_c, 0, 52, 47
1, 150022, Note_on_c, 0, 73, 62
1, 150023, Control_c, 0, 64, 65
1, 150027, Note_on_c, 0, 57, 46
1, 150050, Note_off_c, 0, 73, 66
1, 150053, Control_c, 0, 64, 65
1, 150060, Note_off_c, 0, 52, 60
1, 150065, Note_off_c, 0, 57, 52
1, 150083, Control_c, 0, 64, 66
1, 150089, Note_on_c, 0, 68, 45
1, 150150, Note_on_c, 0, 61, 48
1, 150186, Control_c, 0, 64, 65
1, 150201, Control_c, 0, 64, 65
1, 150202, Note_on_c, 0, 56, 49
1, 150216, Control_c, 0, 64, 64
1, 150220, Note_off_c, 0, 61, 48
1, 150230, Control_c, 0, 64, 63
1, 150238, Note_off_c, 0, 56, 54
1, 150243, Note_off_c, 0, 68, 36
1, 150275, Control_c, 0, 64, 64
1, 150282, Note_on_c, 0, 52, 44
1, 150284, Note_on_c, 0, 57, 40
1, 150290, Control_c, 0, 64, 66
1, 150304, Control_c, 0, 64, 67
1, 150319, Control_c, 0, 64, 68
1, 150334, Control_c, 0, 64, 69
1, 150338, Note_off_c, 0, 52, 53
1, 150340, Note_off_c, 0, 57, 45
1, 150342, Note_on_c, 0, 56, 41
1, 150356, Control_c, 0, 64, 71
1, 150371, Control_c, 0, 64, 73
1, 150386, Control_c, 0, 64, 76
1, 150393, Note_off_c, 0, 56, 60
1, 150401, Control_c, 0, 64, 78
1, 150416, Control_c, 0, 64, 80
1, 150417, Note_on_c, 0, 61, 46
1, 150430, Control_c, 0, 64, 80
1, 150460, Control_c, 0, 64, 81
1, 150476, Note_off_c, 0, 61, 55
1, 150486, Note_on_c, 0, 68, 40
1, 150491, Control_c, 0, 64, 81
1, 150521, Control_c, 0, 64, 82
1, 150565, Control_c, 0, 64, 82
1, 150579, Control_c, 0, 64, 83
1, 150594, Control_c, 0, 64, 84
1, 150609, Note_off_c, 0, 68, 58
1, 150609, Control_c, 0, 64, 85
1, 150618, Note_on_c, 0, 52, 32
1, 150619, Note_on_c, 0, 73, 55
1, 150622, Note_on_c, 0, 57, 20
1, 150624, Control_c, 0, 64, 87
1, 150639, Control_c, 0, 64, 88
1, 150653, Control_c, 0, 64, 90
1, 150668, Control_c, 0, 64, 91
1, 150671, Note_off_c, 0, 57, 45
1, 150683, Control_c, 0, 64, 92
1, 150687, Note_off_c, 0, 73, 59
1, 150698, Control_c, 0, 64, 94
1, 150713, Control_c, 0, 64, 96
1, 150727, Control_c, 0, 64, 98
1, 150728, Note_on_c, 0, 68, 49
1, 150742, Control_c, 0, 64, 100
1, 150753, Note_off_c, 0, 52, 32
1, 150757, Control_c, 0, 64, 103
1, 150772, Control_c, 0, 64, 105
1, 150786, Control_c, 0, 64, 109
1, 150801, Control_c, 0, 64, 112
1, 150816, Control_c, 0, 64, 115
1, 150831, Control_c, 0, 64, 122
1, 150846, Control_c, 0, 64, 127
1, 150879, Note_on_c, 0, 61, 38
1, 150912, Note_off_c, 0, 68, 36
1, 150935, Note_off_c, 0, 44, 35
1, 151027, Note_on_c, 0, 56, 46
1, 151111, Note_off_c, 0, 61, 42
1, 151156, Note_off_c, 0, 56, 51
1, 151284, Control_c, 0, 64, 101
1, 151286, Note_on_c, 0, 56, 52
1, 151299, Control_c, 0, 64, 85
1, 151302, Note_on_c, 0, 42, 45
1, 151302, Note_on_c, 0, 51, 49
1, 151314, Control_c, 0, 64, 72
1, 151329, Control_c, 0, 64, 65
1, 151344, Control_c, 0, 64, 70
1, 151350, Note_off_c, 0, 42, 62
1, 151358, Control_c, 0, 64, 82
1, 151372, Note_off_c, 0, 56, 59
1, 151373, Control_c, 0, 64, 116
1, 151377, Note_off_c, 0, 51, 63
1, 151388, Control_c, 0, 64, 127
1, 151450, Note_on_c, 0, 52, 49
1, 151484, Note_off_c, 0, 52, 61
1, 151529, Note_on_c, 0, 57, 24
1, 151557, Note_on_c, 0, 60, 26
1, 151567, Note_on_c, 0, 64, 42
1, 151568, Note_off_c, 0, 57, 47
1, 151594, Note_off_c, 0, 60, 53
1, 151598, Note_off_c, 0, 64, 62
1, 151647, Note_on_c, 0, 54, 56
1, 151648, Note_on_c, 0, 63, 59
1, 151648, Note_on_c, 0, 68, 62
1, 151671, Note_off_c, 0, 63, 63
1, 151673, Note_off_c, 0, 54, 65
1, 151675, Note_off_c, 0, 68, 63
1, 151732, Note_on_c, 0, 64, 55
1, 151762, Note_off_c, 0, 64, 68
1, 151781, Note_on_c, 0, 69, 51
1, 151816, Note_off_c, 0, 69, 64
1, 151824, Note_on_c, 0, 72, 42
1, 151855, Note_off_c, 0, 72, 59
1, 151863, Note_on_c, 0, 76, 40
1, 151891, Note_off_c, 0, 76, 53
1, 151902, Note_on_c, 0, 66, 65
1, 151906, Note_on_c, 0, 75, 67
1, 151908, Note_on_c, 0, 80, 66
1, 151928, Note_off_c, 0, 66, 66
1, 151931, Note_off_c, 0, 75, 68
1, 151933, Note_off_c, 0, 80, 67
1, 151973, Note_on_c, 0, 76, 66
1, 152028, Note_off_c, 0, 76, 61
1, 152030, Note_on_c, 0, 81, 68
1, 152066, Note_off_c, 0, 81, 55
1, 152092, Note_on_c, 0, 84, 38
1, 152092, Note_on_c, 0, 88, 64
1, 152118, Note_off_c, 0, 84, 57
1, 152118, Note_off_c, 0, 88, 68
1, 152170, Note_on_c, 0, 78, 53
1, 152176, Note_on_c, 0, 87, 74
1, 152178, Note_on_c, 0, 92, 75
1, 152191, Note_off_c, 0, 78, 65
1, 152198, Note_off_c, 0, 87, 71
1, 152199, Note_off_c, 0, 92, 68
1, 152231, Note_on_c, 0, 88, 69
1, 152289, Note_on_c, 0, 93, 68
1, 152295, Note_off_c, 0, 88, 61
1, 152341, Note_on_c, 0, 96, 53
1, 152342, Note_off_c, 0, 93, 62
1, 152359, Control_c, 0, 64, 85
1, 152367, Note_on_c, 0, 100, 58
1, 152369, Note_off_c, 0, 96, 56
1, 152373, Control_c, 0, 64, 34
1, 152388, Control_c, 0, 64, 0
1, 152399, Note_off_c, 0, 100, 63
1, 152417, Note_on_c, 0, 90, 65
1, 152418, Control_c, 0, 64, 64
1, 152432, Control_c, 0, 64, 88
1, 152447, Control_c, 0, 64, 127
1, 152466, Note_on_c, 0, 92, 53
1, 152473, Note_on_c, 0, 99, 72
1, 152476, Note_off_c, 0, 90, 56
1, 152494, Note_off_c, 0, 99, 69
1, 152497, Note_on_c, 0, 93, 66
1, 152497, Note_off_c, 0, 92, 61
1, 152554, Note_on_c, 0, 96, 57
1, 152569, Note_off_c, 0, 93, 57
1, 152578, Note_on_c, 0, 100, 62
1, 152588, Note_off_c, 0, 96, 49
1, 152634, Note_on_c, 0, 105, 56
1, 152635, Note_off_c, 0, 100, 64
1, 152647, Control_c, 0, 64, 88
1, 152659, Note_on_c, 0, 90, 70
1, 152662, Control_c, 0, 64, 68
1, 152666, Note_off_c, 0, 105, 56
1, 152677, Control_c, 0, 64, 69
1, 152692, Control_c, 0, 64, 83
1, 152694, Note_off_c, 0, 90, 63
1, 152700, Note_on_c, 0, 94, 55
1, 152706, Control_c, 0, 64, 113
1, 152721, Control_c, 0, 64, 127
1, 152727, Note_on_c, 0, 98, 74
1, 152748, Note_off_c, 0, 94, 61
1, 152751, Note_on_c, 0, 95, 64
1, 152754, Note_off_c, 0, 98, 64
1, 152806, Note_on_c, 0, 99, 53
1, 152828, Note_on_c, 0, 102, 65
1, 152834, Note_off_c, 0, 95, 57
1, 152852, Note_off_c, 0, 99, 56
1, 152873, Note_off_c, 0, 102, 60
1, 152874, Note_on_c, 0, 107, 39
1, 152904, Note_off_c, 0, 107, 53
1, 152915, Note_on_c, 0, 88, 61
1, 152962, Note_on_c, 0, 90, 62
1, 152963, Note_on_c, 0, 97, 70
1, 152984, Note_off_c, 0, 88, 61
1, 152985, Note_off_c, 0, 97, 71
1, 152998, Note_on_c, 0, 91, 62
1, 153038, Note_off_c, 0, 90, 35
1, 153062, Note_off_c, 0, 91, 61
1, 153075, Note_on_c, 0, 94, 51
1, 153085, Note_on_c, 0, 98, 67
1, 153112, Note_off_c, 0, 94, 51
1, 153127, Note_on_c, 0, 103, 58
1, 153147, Note_off_c, 0, 98, 65
1, 153158, Note_on_c, 0, 88, 64
1, 153167, Note_off_c, 0, 103, 64
1, 153210, Note_off_c, 0, 88, 63
1, 153219, Note_on_c, 0, 92, 54
1, 153238, Note_on_c, 0, 96, 70
1, 153254, Note_on_c, 0, 93, 64
1, 153258, Note_off_c, 0, 92, 61
1, 153264, Note_off_c, 0, 96, 59
1, 153322, Note_off_c, 0, 93, 53
1, 153323, Note_on_c, 0, 97, 59
1, 153353, Note_on_c, 0, 100, 56
1, 153386, Note_off_c, 0, 97, 62
1, 153396, Note_off_c, 0, 100, 57
1, 153398, Note_on_c, 0, 105, 43
1, 153428, Note_off_c, 0, 105, 49
1, 153443, Note_on_c, 0, 86, 53
1, 153475, Note_off_c, 0, 86, 62
1, 153486, Note_on_c, 0, 95, 75
1, 153487, Note_on_c, 0, 88, 65
1, 153508, Note_off_c, 0, 95, 65
1, 153525, Note_on_c, 0, 89, 63
1, 153568, Note_off_c, 0, 88, 56
1, 153583, Note_on_c, 0, 92, 64
1, 153600, Note_on_c, 0, 96, 64
1, 153601, Note_off_c, 0, 89, 45
1, 153640, Note_off_c, 0, 92, 62
1, 153645, Note_on_c, 0, 101, 62
1, 153660, Note_off_c, 0, 96, 63
1, 153682, Note_off_c, 0, 101, 62
1, 153685, Note_on_c, 0, 86, 61
1, 153735, Note_on_c, 0, 90, 59
1, 153748, Note_off_c, 0, 86, 63
1, 153770, Note_on_c, 0, 91, 72
1, 153773, Note_on_c, 0, 94, 59
1, 153802, Note_off_c, 0, 94, 67
1, 153830, Note_off_c, 0, 91, 63
1, 153833, Note_off_c, 0, 90, 39
1, 153839, Note_on_c, 0, 95, 71
1, 153863, Note_off_c, 0, 95, 70
1, 153865, Note_on_c, 0, 99, 74
1, 153898, Note_on_c, 0, 103, 68
1, 153925, Note_off_c, 0, 99, 64
1, 153927, Note_off_c, 0, 103, 59
1, 153954, Note_on_c, 0, 84, 62
1, 153986, Note_on_c, 0, 86, 66
1, 153986, Note_off_c, 0, 84, 66
1, 154010, Note_on_c, 0, 93, 79
1, 154029, Note_off_c, 0, 93, 71
1, 154035, Note_off_c, 0, 86, 63
1, 154062, Note_on_c, 0, 87, 70
1, 154116, Note_on_c, 0, 90, 69
1, 154125, Note_off_c, 0, 87, 66
1, 154161, Note_on_c, 0, 94, 69
1, 154176, Note_on_c, 0, 99, 74
1, 154180, Note_off_c, 0, 90, 63
1, 154194, Note_on_c, 0, 84, 63
1, 154198, Note_off_c, 0, 94, 59
1, 154230, Note_off_c, 0, 99, 64
1, 154244, Note_on_c, 0, 88, 67
1, 154263, Note_off_c, 0, 84, 59
1, 154311, Note_on_c, 0, 92, 61
1, 154313, Note_on_c, 0, 89, 72
1, 154316, Note_off_c, 0, 88, 63
1, 154335, Note_off_c, 0, 92, 69
1, 154362, Note_off_c, 0, 89, 58
1, 154372, Note_on_c, 0, 93, 63
1, 154392, Note_on_c, 0, 96, 71
1, 154399, Note_off_c, 0, 93, 56
1, 154420, Note_off_c, 0, 96, 60
1, 154429, Note_on_c, 0, 101, 46
1, 154452, Note_off_c, 0, 101, 59
1, 154456, Note_on_c, 0, 81, 71
1, 154457, Control_c, 0, 64, 96
1, 154473, Control_c, 0, 64, 67
1, 154488, Control_c, 0, 64, 62
1, 154491, Note_on_c, 0, 83, 67
1, 154502, Control_c, 0, 64, 73
1, 154517, Control_c, 0, 64, 90
1, 154522, Note_off_c, 0, 81, 61
1, 154532, Control_c, 0, 64, 127
1, 154540, Note_on_c, 0, 90, 61
1, 154545, Note_off_c, 0, 83, 63
1, 154555, Note_on_c, 0, 84, 66
1, 154557, Note_off_c, 0, 90, 65
1, 154617, Note_off_c, 0, 84, 62
1, 154621, Note_on_c, 0, 87, 68
1, 154641, Note_on_c, 0, 91, 74
1, 154676, Note_off_c, 0, 87, 63
1, 154679, Note_on_c, 0, 96, 52
1, 154681, Control_c, 0, 64, 84
1, 154695, Control_c, 0, 64, 74
1, 154698, Note_off_c, 0, 96, 62
1, 154704, Note_off_c, 0, 91, 61
1, 154705, Note_on_c, 0, 78, 71
1, 154710, Control_c, 0, 64, 79
1, 154725, Control_c, 0, 64, 93
1, 154739, Control_c, 0, 64, 127
1, 154758, Note_on_c, 0, 80, 50
1, 154764, Note_off_c, 0, 78, 63
1, 154785, Note_on_c, 0, 81, 71
1, 154786, Note_on_c, 0, 87, 62
1, 154788, Note_off_c, 0, 80, 64
1, 154805, Note_off_c, 0, 87, 64
1, 154834, Note_off_c, 0, 81, 58
1, 154861, Note_on_c, 0, 84, 68
1, 154879, Note_on_c, 0, 88, 67
1, 154889, Note_off_c, 0, 84, 62
1, 154911, Note_off_c, 0, 88, 64
1, 154915, Note_on_c, 0, 93, 61
1, 154935, Note_off_c, 0, 93, 64
1, 154956, Note_on_c, 0, 75, 55
1, 154991, Note_off_c, 0, 75, 59
1, 154996, Note_on_c, 0, 77, 67
1, 155018, Note_on_c, 0, 84, 58
1, 155035, Note_off_c, 0, 84, 65
1, 155064, Note_on_c, 0, 78, 79
1, 155072, Note_off_c, 0, 77, 54
1, 155122, Note_on_c, 0, 81, 67
1, 155134, Note_off_c, 0, 78, 61
1, 155147, Note_on_c, 0, 85, 66
1, 155170, Note_on_c, 0, 90, 56
1, 155174, Note_off_c, 0, 81, 61
1, 155183, Note_off_c, 0, 85, 54
1, 155189, Note_off_c, 0, 90, 61
1, 155192, Note_on_c, 0, 72, 67
1, 155234, Note_on_c, 0, 74, 68
1, 155240, Note_off_c, 0, 72, 57
1, 155276, Note_on_c, 0, 81, 66
1, 155277, Note_on_c, 0, 75, 67
1, 155288, Note_off_c, 0, 74, 63
1, 155291, Note_off_c, 0, 81, 65
1, 155350, Note_off_c, 0, 75, 63
1, 155352, Note_on_c, 0, 78, 64
1, 155383, Note_on_c, 0, 82, 65
1, 155394, Note_on_c, 0, 87, 69
1, 155407, Note_off_c, 0, 78, 62
1, 155415, Note_off_c, 0, 82, 59
1, 155419, Note_on_c, 0, 69, 65
1, 155419, Note_off_c, 0, 87, 70
1, 155430, Control_c, 0, 64, 106
1, 155444, Control_c, 0, 64, 73
1, 155455, Note_on_c, 0, 71, 62
1, 155459, Control_c, 0, 64, 63
1, 155474, Control_c, 0, 64, 68
1, 155478, Note_off_c, 0, 69, 61
1, 155487, Note_off_c, 0, 71, 63
1, 155489, Control_c, 0, 64, 76
1, 155504, Control_c, 0, 64, 91
1, 155518, Control_c, 0, 64, 127
1, 155520, Note_on_c, 0, 78, 58
1, 155530, Note_on_c, 0, 72, 68
1, 155539, Note_off_c, 0, 78, 63
1, 155598, Note_on_c, 0, 75, 64
1, 155600, Note_off_c, 0, 72, 59
1, 155621, Note_on_c, 0, 79, 58
1, 155656, Note_off_c, 0, 75, 60
1, 155667, Note_off_c, 0, 79, 50
1, 155689, Control_c, 0, 64, 100
1, 155701, Note_on_c, 0, 66, 60
1, 155704, Control_c, 0, 64, 89
1, 155718, Control_c, 0, 64, 88
1, 155721, Poly_aftertouch_c, 0, 84, 0
1, 155733, Control_c, 0, 64, 96
1, 155735, Note_off_c, 0, 66, 64
1, 155741, Note_on_c, 0, 68, 48
1, 155748, Control_c, 0, 64, 114
1, 155763, Control_c, 0, 64, 127
1, 155770, Note_on_c, 0, 75, 53
1, 155770, Note_off_c, 0, 68, 64
1, 155773, Note_on_c, 0, 69, 66
1, 155791, Note_off_c, 0, 75, 61
1, 155817, Note_off_c, 0, 69, 60
1, 155855, Note_on_c, 0, 76, 64
1, 155869, Note_on_c, 0, 72, 37
1, 155888, Note_off_c, 0, 76, 64
1, 155893, Note_off_c, 0, 72, 60
1, 155901, Note_on_c, 0, 81, 42
1, 155925, Note_off_c, 0, 81, 56
1, 155945, Note_on_c, 0, 63, 61
1, 155991, Note_on_c, 0, 65, 54
1, 156012, Note_on_c, 0, 72, 38
1, 156039, Note_off_c, 0, 63, 30
1, 156039, Note_off_c, 0, 72, 59
1, 156061, Note_on_c, 0, 66, 65
1, 156083, Note_off_c, 0, 65, 53
1, 156112, Note_on_c, 0, 69, 61
1, 156125, Note_off_c, 0, 66, 61
1, 156130, Note_on_c, 0, 73, 69
1, 156158, Note_off_c, 0, 69, 59
1, 156158, Note_off_c, 0, 73, 62
1, 156181, Note_on_c, 0, 78, 17
1, 156193, Note_on_c, 0, 60, 62
1, 156221, Note_off_c, 0, 78, 52
1, 156237, Note_on_c, 0, 62, 64
1, 156280, Note_on_c, 0, 69, 50
1, 156281, Note_off_c, 0, 60, 59
1, 156288, Note_on_c, 0, 63, 61
1, 156303, Note_off_c, 0, 62, 60
1, 156307, Note_off_c, 0, 69, 56
1, 156324, Note_off_c, 0, 63, 65
1, 156350, Note_on_c, 0, 66, 50
1, 156382, Note_on_c, 0, 70, 55
1, 156393, Note_on_c, 0, 75, 56
1, 156400, Note_off_c, 0, 66, 55
1, 156417, Note_off_c, 0, 70, 63
1, 156421, Note_off_c, 0, 75, 66
1, 156459, Note_on_c, 0, 54, 67
1, 156466, Control_c, 0, 64, 107
1, 156481, Control_c, 0, 64, 83
1, 156496, Control_c, 0, 64, 65
1, 156511, Control_c, 0, 64, 56
1, 156526, Control_c, 0, 64, 62
1, 156534, Note_on_c, 0, 67, 54
1, 156537, Note_on_c, 0, 64, 50
1, 156540, Note_on_c, 0, 72, 53
1, 156540, Control_c, 0, 64, 68
1, 156555, Control_c, 0, 64, 74
1, 156570, Control_c, 0, 64, 81
1, 156584, Note_off_c, 0, 72, 60
1, 156585, Control_c, 0, 64, 91
1, 156599, Control_c, 0, 64, 103
1, 156602, Note_on_c, 0, 70, 64
1, 156614, Control_c, 0, 64, 120
1, 156621, Note_off_c, 0, 70, 65
1, 156626, Note_off_c, 0, 67, 52
1, 156629, Control_c, 0, 64, 127
1, 156662, Note_off_c, 0, 64, 36
1, 156683, Note_on_c, 0, 66, 68
1, 156701, Note_off_c, 0, 54, 26
1, 156707, Note_off_c, 0, 66, 66
1, 156774, Note_on_c, 0, 60, 44
1, 156787, Note_on_c, 0, 64, 17
1, 156802, Note_on_c, 0, 63, 53
1, 156826, Note_off_c, 0, 64, 53
1, 156853, Note_on_c, 0, 58, 50
1, 156855, Note_off_c, 0, 60, 61
1, 156865, Note_off_c, 0, 63, 51
1, 156874, Poly_aftertouch_c, 0, 67, 0
1, 156880, Note_off_c, 0, 58, 58
1, 156930, Note_on_c, 0, 54, 57
1, 156942, Control_c, 0, 64, 100
1, 156957, Control_c, 0, 64, 81
1, 156971, Control_c, 0, 64, 68
1, 156981, Note_on_c, 0, 60, 51
1, 156986, Control_c, 0, 64, 66
1, 157001, Control_c, 0, 64, 70
1, 157015, Note_on_c, 0, 55, 35
1, 157015, Control_c, 0, 64, 76
1, 157020, Note_on_c, 0, 64, 42
1, 157030, Control_c, 0, 64, 85
1, 157045, Control_c, 0, 64, 96
1, 157060, Control_c, 0, 64, 115
1, 157062, Note_off_c, 0, 64, 49
1, 157075, Control_c, 0, 64, 127
1, 157081, Note_on_c, 0, 58, 53
1, 157102, Note_off_c, 0, 60, 51
1, 157109, Note_off_c, 0, 55, 50
1, 157121, Note_off_c, 0, 58, 64
1, 157174, Note_on_c, 0, 66, 47
1, 157201, Note_off_c, 0, 66, 58
1, 157236, Note_on_c, 0, 60, 48
1, 157241, Note_off_c, 0, 54, 48
1, 157242, Note_on_c, 0, 55, 52
1, 157262, Note_on_c, 0, 52, 38
1, 157332, Note_off_c, 0, 52, 46
1, 157341, Note_off_c, 0, 55, 56
1, 157341, Note_on_c, 0, 58, 35
1, 157347, Note_off_c, 0, 60, 54
1, 157378, Control_c, 0, 64, 97
1, 157379, Note_off_c, 0, 58, 55
1, 157386, Note_on_c, 0, 42, 65
1, 157393, Control_c, 0, 64, 82
1, 157408, Control_c, 0, 64, 72
1, 157422, Control_c, 0, 64, 68
1, 157437, Control_c, 0, 64, 70
1, 157453, Control_c, 0, 64, 76
1, 157468, Control_c, 0, 64, 83
1, 157473, Note_on_c, 0, 55, 55
1, 157483, Control_c, 0, 64, 93
1, 157487, Note_on_c, 0, 52, 45
1, 157489, Note_on_c, 0, 60, 19
1, 157492, Note_on_c, 0, 58, 53
1, 157497, Control_c, 0, 64, 104
1, 157512, Control_c, 0, 64, 117
1, 157526, Note_off_c, 0, 55, 54
1, 157527, Note_off_c, 0, 58, 64
1, 157527, Control_c, 0, 64, 127
1, 157534, Note_off_c, 0, 60, 53
1, 157538, Note_off_c, 0, 52, 56
1, 157568, Note_off_c, 0, 42, 38
1, 157616, Note_on_c, 0, 54, 62
1, 157649, Note_off_c, 0, 54, 64
1, 157662, Note_on_c, 0, 52, 50
1, 157675, Note_on_c, 0, 55, 53
1, 157681, Note_on_c, 0, 48, 48
1, 157731, Note_off_c, 0, 55, 62
1, 157750, Control_c, 0, 64, 117
1, 157753, Note_off_c, 0, 52, 60
1, 157761, Note_on_c, 0, 46, 58
1, 157765, Control_c, 0, 64, 109
1, 157768, Note_off_c, 0, 48, 60
1, 157780, Control_c, 0, 64, 100
1, 157787, Note_off_c, 0, 46, 60
1, 157795, Control_c, 0, 64, 90
1, 157809, Control_c, 0, 64, 77
1, 157824, Control_c, 0, 64, 61
1, 157846, Control_c, 0, 64, 0
1, 157863, Note_on_c, 0, 42, 54
1, 157913, Note_on_c, 0, 48, 45
1, 157920, Control_c, 0, 64, 59
1, 157935, Control_c, 0, 64, 65
1, 157950, Control_c, 0, 64, 70
1, 157963, Note_on_c, 0, 43, 39
1, 157964, Control_c, 0, 64, 76
1, 157979, Control_c, 0, 64, 82
1, 157994, Control_c, 0, 64, 86
1, 158009, Note_on_c, 0, 46, 44
1, 158009, Control_c, 0, 64, 89
1, 158012, Note_off_c, 0, 48, 54
1, 158022, Note_off_c, 0, 43, 54
1, 158024, Control_c, 0, 64, 90
1, 158040, Note_off_c, 0, 46, 58
1, 158080, Note_off_c, 0, 42, 0
1, 158083, Note_on_c, 0, 54, 54
1, 158099, Control_c, 0, 64, 89
1, 158108, Note_off_c, 0, 54, 62
1, 158113, Control_c, 0, 64, 89
1, 158116, Poly_aftertouch_c, 0, 42, 127
1, 158128, Control_c, 0, 64, 88
1, 158143, Control_c, 0, 64, 88
1, 158157, Poly_aftertouch_c, 0, 42, 0
1, 158159, Note_on_c, 0, 48, 52
1, 158182, Note_on_c, 0, 43, 39
1, 158196, Note_on_c, 0, 40, 38
1, 158261, Control_c, 0, 64, 86
1, 158262, Note_on_c, 0, 46, 31
1, 158267, Note_off_c, 0, 40, 40
1, 158269, Note_off_c, 0, 48, 56
1, 158276, Control_c, 0, 64, 82
1, 158280, Note_off_c, 0, 43, 51
1, 158290, Control_c, 0, 64, 75
1, 158294, Note_off_c, 0, 46, 53
1, 158305, Control_c, 0, 64, 67
1, 158313, Note_on_c, 0, 30, 57
1, 158320, Control_c, 0, 64, 64
1, 158350, Control_c, 0, 64, 66
1, 158364, Control_c, 0, 64, 68
1, 158379, Control_c, 0, 64, 70
1, 158394, Control_c, 0, 64, 73
1, 158397, Note_on_c, 0, 43, 43
1, 158409, Control_c, 0, 64, 74
1, 158418, Note_on_c, 0, 40, 32
1, 158424, Control_c, 0, 64, 76
1, 158432, Note_on_c, 0, 46, 36
1, 158438, Control_c, 0, 64, 76
1, 158461, Note_off_c, 0, 40, 50
1, 158464, Note_off_c, 0, 43, 59
1, 158469, Control_c, 0, 64, 76
1, 158472, Note_off_c, 0, 46, 62
1, 158480, Poly_aftertouch_c, 0, 48, 0
1, 158484, Note_off_c, 0, 30, 42
1, 158552, Note_on_c, 0, 42, 53
1, 158590, Note_off_c, 0, 42, 61
1, 158625, Control_c, 0, 64, 75
1, 158640, Control_c, 0, 64, 75
1, 158653, Note_on_c, 0, 40, 20
1, 158656, Note_on_c, 0, 36, 44
1, 158685, Poly_aftertouch_c, 0, 43, 127
1, 158731, Poly_aftertouch_c, 0, 43, 0
1, 158734, Note_on_c, 0, 34, 46
1, 158743, Control_c, 0, 64, 74
1, 158750, Note_off_c, 0, 36, 46
1, 158758, Control_c, 0, 64, 74
1, 158770, Note_off_c, 0, 34, 55
1, 158773, Control_c, 0, 64, 71
1, 158788, Control_c, 0, 64, 67
1, 158799, Note_on_c, 0, 30, 46
1, 158803, Control_c, 0, 64, 60
1, 158818, Control_c, 0, 64, 43
1, 158833, Control_c, 0, 64, 39
1, 158848, Control_c, 0, 64, 49
1, 158862, Control_c, 0, 64, 57
1, 158877, Control_c, 0, 64, 63
1, 158888, Note_on_c, 0, 36, 47
1, 158892, Control_c, 0, 64, 65
1, 158894, Note_off_c, 0, 40, 0
1, 158907, Control_c, 0, 64, 69
1, 158921, Control_c, 0, 64, 72
1, 158929, Note_off_c, 0, 30, 36
1, 158930, Poly_aftertouch_c, 0, 40, 127
1, 158933, Poly_aftertouch_c, 0, 43, 127
1, 158936, Control_c, 0, 64, 77
1, 158951, Control_c, 0, 64, 81
1, 158955, Note_on_c, 0, 34, 20
1, 158966, Control_c, 0, 64, 85
1, 158979, Poly_aftertouch_c, 0, 43, 0
1, 158981, Control_c, 0, 64, 85
1, 158990, Note_off_c, 0, 36, 36
1, 158996, Control_c, 0, 64, 85
1, 159011, Control_c, 0, 64, 82
1, 159026, Control_c, 0, 64, 78
1, 159029, Note_off_c, 0, 34, 39
1, 159041, Note_on_c, 0, 42, 48
1, 159041, Control_c, 0, 64, 73
1, 159055, Control_c, 0, 64, 68
1, 159070, Control_c, 0, 64, 66
1, 159078, Note_off_c, 0, 42, 53
1, 159085, Control_c, 0, 64, 68
1, 159100, Control_c, 0, 64, 70
1, 159112, Note_on_c, 0, 36, 28
1, 159114, Control_c, 0, 64, 73
1, 159129, Control_c, 0, 64, 77
1, 159144, Control_c, 0, 64, 83
1, 159159, Control_c, 0, 64, 90
1, 159166, Poly_aftertouch_c, 0, 43, 127
1, 159174, Control_c, 0, 64, 93
1, 159175, Note_on_c, 0, 34, 44
1, 159188, Control_c, 0, 64, 95
1, 159228, Note_off_c, 0, 34, 53
1, 159231, Poly_aftertouch_c, 0, 43, 0
1, 159233, Control_c, 0, 64, 92
1, 159248, Control_c, 0, 64, 85
1, 159264, Control_c, 0, 64, 78
1, 159272, Note_off_c, 0, 36, 31
1, 159279, Control_c, 0, 64, 71
1, 159286, Note_on_c, 0, 30, 43
1, 159293, Control_c, 0, 64, 66
1, 159323, Control_c, 0, 64, 68
1, 159345, Control_c, 0, 64, 72
1, 159351, Note_on_c, 0, 36, 36
1, 159359, Control_c, 0, 64, 77
1, 159374, Control_c, 0, 64, 83
1, 159377, Note_off_c, 0, 30, 39
1, 159389, Control_c, 0, 64, 88
1, 159404, Control_c, 0, 64, 92
1, 159410, Note_on_c, 0, 34, 33
1, 159416, Poly_aftertouch_c, 0, 43, 127
1, 159419, Control_c, 0, 64, 95
1, 159434, Control_c, 0, 64, 96
1, 159449, Control_c, 0, 64, 97
1, 159479, Control_c, 0, 64, 95
1, 159493, Control_c, 0, 64, 91
1, 159494, Poly_aftertouch_c, 0, 43, 0
1, 159495, Note_off_c, 0, 34, 40
1, 159504, Note_off_c, 0, 36, 28
1, 159508, Control_c, 0, 64, 84
1, 159523, Control_c, 0, 64, 78
1, 159538, Control_c, 0, 64, 72
1, 159544, Note_on_c, 0, 42, 45
1, 159552, Control_c, 0, 64, 71
1, 159567, Control_c, 0, 64, 74
1, 159582, Control_c, 0, 64, 79
1, 159588, Note_off_c, 0, 42, 49
1, 159597, Control_c, 0, 64, 86
1, 159602, Note_on_c, 0, 36, 24
1, 159612, Control_c, 0, 64, 95
1, 159626, Control_c, 0, 64, 106
1, 159641, Control_c, 0, 64, 113
1, 159656, Poly_aftertouch_c, 0, 43, 127
1, 159656, Control_c, 0, 64, 114
1, 159661, Note_on_c, 0, 34, 38
1, 159671, Control_c, 0, 64, 114
1, 159686, Control_c, 0, 64, 109
1, 159700, Control_c, 0, 64, 100
1, 159715, Control_c, 0, 64, 88
1, 159730, Control_c, 0, 64, 74
1, 159731, Note_off_c, 0, 34, 49
1, 159744, Poly_aftertouch_c, 0, 43, 0
1, 159744, Control_c, 0, 64, 63
1, 159759, Control_c, 0, 64, 53
1, 159766, Note_off_c, 0, 36, 39
1, 159774, Control_c, 0, 64, 62
1, 159789, Control_c, 0, 64, 68
1, 159797, Note_on_c, 0, 30, 43
1, 159804, Control_c, 0, 64, 77
1, 159819, Control_c, 0, 64, 90
1, 159833, Control_c, 0, 64, 105
1, 159848, Control_c, 0, 64, 127
1, 159857, Note_on_c, 0, 36, 42
1, 159902, Note_on_c, 0, 43, 21
1, 159936, Note_on_c, 0, 34, 36
1, 159984, Note_off_c, 0, 30, 39
1, 160072, Note_off_c, 0, 43, 38
1, 160095, Note_on_c, 0, 42, 52
1, 160129, Note_off_c, 0, 42, 60
1, 160132, Note_off_c, 0, 36, 0
1, 160149, Note_off_c, 0, 34, 41
1, 160169, Poly_aftertouch_c, 0, 36, 127
1, 160185, Note_on_c, 0, 36, 3
1, 160233, Note_on_c, 0, 43, 23
1, 160359, Note_on_c, 0, 34, 41
1, 160402, Note_off_c, 0, 36, 38
1, 160416, Note_off_c, 0, 34, 59
1, 160446, Note_off_c, 0, 43, 40
1, 160459, Poly_aftertouch_c, 0, 40, 0
1, 160535, Note_on_c, 0, 30, 57
1, 160580, Note_on_c, 0, 34, 49
1, 160606, Note_off_c, 0, 30, 58
1, 160618, Note_off_c, 0, 34, 60
1, 160620, Note_on_c, 0, 37, 52
1, 160651, Note_off_c, 0, 37, 57
1, 160674, Note_on_c, 0, 36, 56
1, 160704, Note_off_c, 0, 36, 61
1, 160713, Note_on_c, 0, 43, 51
1, 160724, Note_on_c, 0, 40, 30
1, 160743, Note_on_c, 0, 48, 51
1, 160744, Note_off_c, 0, 43, 63
1, 160763, Note_off_c, 0, 40, 53
1, 160770, Note_off_c, 0, 48, 59
1, 160846, Note_on_c, 0, 42, 65
1, 160878, Note_on_c, 0, 46, 63
1, 160912, Note_off_c, 0, 42, 61
1, 160913, Note_off_c, 0, 46, 63
1, 160914, Note_on_c, 0, 49, 73
1, 160939, Note_off_c, 0, 49, 66
1, 160945, Note_on_c, 0, 48, 61
1, 160975, Note_off_c, 0, 48, 65
1, 160981, Note_on_c, 0, 52, 50
1, 160990, Note_on_c, 0, 55, 51
1, 161002, Note_on_c, 0, 60, 60
1, 161009, Note_off_c, 0, 52, 56
1, 161015, Note_off_c, 0, 55, 57
1, 161029, Note_off_c, 0, 60, 67
1, 161070, Note_on_c, 0, 54, 75
1, 161110, Note_on_c, 0, 58, 71
1, 161136, Note_on_c, 0, 61, 81
1, 161137, Note_off_c, 0, 58, 67
1, 161145, Note_off_c, 0, 54, 64
1, 161162, Note_off_c, 0, 61, 65
1, 161175, Note_on_c, 0, 60, 68
1, 161205, Note_on_c, 0, 64, 66
1, 161209, Note_off_c, 0, 60, 66
1, 161226, Note_on_c, 0, 67, 67
1, 161240, Note_off_c, 0, 64, 65
1, 161243, Note_on_c, 0, 72, 79
1, 161255, Note_off_c, 0, 67, 66
1, 161271, Note_off_c, 0, 72, 60
1, 161285, Note_on_c, 0, 66, 83
1, 161318, Note_on_c, 0, 70, 75
1, 161353, Note_on_c, 0, 73, 86
1, 161365, Note_off_c, 0, 66, 58
1, 161373, Note_off_c, 0, 70, 62
1, 161375, Note_on_c, 0, 72, 77
1, 161382, Note_off_c, 0, 73, 62
1, 161416, Note_on_c, 0, 76, 76
1, 161425, Note_off_c, 0, 72, 64
1, 161434, Note_on_c, 0, 79, 74
1, 161450, Control_c, 0, 67, 102
1, 161457, Note_on_c, 0, 84, 77
1, 161458, Note_off_c, 0, 76, 58
1, 161464, Note_off_c, 0, 79, 62
1, 161464, Control_c, 0, 67, 35
1, 161479, Control_c, 0, 67, 0
1, 161480, Note_off_c, 0, 84, 68
1, 161514, Note_on_c, 0, 78, 57
1, 161515, Note_on_c, 0, 82, 76
1, 161529, Note_on_c, 0, 85, 92
1, 161560, Note_off_c, 0, 78, 46
1, 161569, Note_off_c, 0, 85, 65
1, 161574, Note_off_c, 0, 82, 62
1, 161574, Note_on_c, 0, 84, 79
1, 161631, Note_on_c, 0, 88, 75
1, 161640, Note_on_c, 0, 91, 79
1, 161644, Note_off_c, 0, 84, 62
1, 161664, Note_on_c, 0, 96, 75
1, 161688, Note_off_c, 0, 88, 65
1, 161702, Note_off_c, 0, 91, 64
1, 161705, Note_off_c, 0, 96, 63
1, 161706, Note_on_c, 0, 97, 107
1, 161708, Note_on_c, 0, 90, 97
1, 161710, Note_on_c, 0, 94, 84
1, 161738, Note_off_c, 0, 97, 68
1, 161742, Note_on_c, 0, 92, 41
1, 161743, Note_off_c, 0, 92, 127
1, 161746, Note_on_c, 0, 96, 72
1, 161747, Note_off_c, 0, 94, 61
1, 161754, Note_off_c, 0, 90, 64
1, 161772, Note_on_c, 0, 91, 74
1, 161804, Note_off_c, 0, 96, 65
1, 161843, Note_off_c, 0, 91, 64
1, 161843, Note_on_c, 0, 88, 59
1, 161855, Note_on_c, 0, 84, 71
1, 161863, Note_off_c, 0, 88, 64
1, 161877, Note_off_c, 0, 84, 70
1, 161914, Note_on_c, 0, 82, 73
1, 161915, Note_on_c, 0, 85, 63
1, 161923, Note_on_c, 0, 78, 65
1, 161934, Note_off_c, 0, 85, 64
1, 161935, Note_off_c, 0, 82, 70
1, 161947, Note_off_c, 0, 78, 69
1, 161956, Note_on_c, 0, 84, 68
1, 161997, Note_on_c, 0, 79, 59
1, 162003, Note_off_c, 0, 84, 56
1, 162007, Note_on_c, 0, 76, 57
1, 162061, Note_on_c, 0, 72, 60
1, 162061, Note_off_c, 0, 76, 50
1, 162069, Note_off_c, 0, 79, 58
1, 162088, Note_off_c, 0, 72, 67
1, 162092, Note_on_c, 0, 73, 78
1, 162096, Note_on_c, 0, 66, 67
1, 162102, Note_on_c, 0, 70, 59
1, 162115, Note_off_c, 0, 73, 70
1, 162121, Note_off_c, 0, 66, 62
1, 162129, Note_off_c, 0, 70, 65
1, 162146, Note_on_c, 0, 72, 78
1, 162175, Note_on_c, 0, 76, 77
1, 162191, Note_off_c, 0, 72, 62
1, 162193, Note_on_c, 0, 79, 73
1, 162209, Note_on_c, 0, 84, 82
1, 162218, Note_off_c, 0, 76, 63
1, 162232, Note_off_c, 0, 79, 61
1, 162248, Note_off_c, 0, 84, 63
1, 162261, Note_on_c, 0, 78, 94
1, 162263, Note_on_c, 0, 82, 97
1, 162268, Note_on_c, 0, 85, 97
1, 162297, Note_on_c, 0, 84, 85
1, 162303, Note_off_c, 0, 78, 58
1, 162304, Note_off_c, 0, 85, 63
1, 162305, Note_off_c, 0, 82, 63
1, 162363, Note_off_c, 0, 84, 65
1, 162364, Note_on_c, 0, 88, 79
1, 162371, Note_on_c, 0, 89, 73
1, 162373, Note_on_c, 0, 91, 83
1, 162391, Note_on_c, 0, 96, 78
1, 162400, Note_off_c, 0, 89, 52
1, 162406, Note_off_c, 0, 88, 66
1, 162425, Note_off_c, 0, 91, 64
1, 162427, Note_off_c, 0, 96, 62
1, 162431, Note_on_c, 0, 94, 105
1, 162435, Note_on_c, 0, 90, 100
1, 162435, Note_on_c, 0, 97, 103
1, 162462, Note_off_c, 0, 97, 72
1, 162474, Note_off_c, 0, 94, 69
1, 162478, Note_off_c, 0, 90, 68
1, 162483, Note_on_c, 0, 96, 80
1, 162516, Note_on_c, 0, 91, 91
1, 162535, Note_off_c, 0, 96, 65
1, 162549, Note_on_c, 0, 88, 70
1, 162562, Note_off_c, 0, 91, 65
1, 162579, Note_off_c, 0, 88, 65
1, 162583, Note_on_c, 0, 84, 69
1, 162605, Note_off_c, 0, 84, 69
1, 162635, Note_on_c, 0, 85, 71
1, 162638, Note_on_c, 0, 82, 72
1, 162642, Note_on_c, 0, 78, 66
1, 162651, Note_off_c, 0, 85, 67
1, 162655, Note_off_c, 0, 82, 66
1, 162661, Note_off_c, 0, 78, 65
1, 162668, Note_on_c, 0, 84, 71
1, 162724, Note_off_c, 0, 84, 63
1, 162726, Note_on_c, 0, 76, 58
1, 162734, Note_on_c, 0, 79, 46
1, 162760, Note_off_c, 0, 79, 58
1, 162767, Note_off_c, 0, 76, 57
1, 162770, Note_on_c, 0, 72, 67
1, 162797, Note_off_c, 0, 72, 65
1, 162811, Note_on_c, 0, 70, 69
1, 162813, Note_on_c, 0, 73, 70
1, 162817, Note_on_c, 0, 66, 61
1, 162835, Note_off_c, 0, 70, 69
1, 162838, Note_off_c, 0, 73, 67
1, 162841, Note_off_c, 0, 66, 64
1, 162880, Note_on_c, 0, 72, 71
1, 162915, Note_on_c, 0, 76, 60
1, 162916, Note_off_c, 0, 72, 59
1, 162939, Note_on_c, 0, 79, 63
1, 162946, Note_on_c, 0, 84, 72
1, 162961, Note_off_c, 0, 76, 56
1, 162987, Note_off_c, 0, 79, 57
1, 162987, Note_on_c, 0, 85, 87
1, 162989, Note_on_c, 0, 82, 82
1, 162993, Note_off_c, 0, 84, 59
1, 163007, Note_off_c, 0, 85, 69
1, 163011, Note_on_c, 0, 78, 59
1, 163024, Note_off_c, 0, 82, 50
1, 163035, Note_on_c, 0, 84, 57
1, 163038, Note_off_c, 0, 78, 66
1, 163058, Note_on_c, 0, 79, 70
1, 163086, Note_on_c, 0, 76, 72
1, 163101, Note_off_c, 0, 84, 64
1, 163130, Note_on_c, 0, 72, 75
1, 163154, Note_off_c, 0, 76, 60
1, 163156, Note_off_c, 0, 79, 59
1, 163169, Note_off_c, 0, 72, 56
1, 163172, Note_on_c, 0, 73, 94
1, 163175, Note_on_c, 0, 66, 79
1, 163177, Note_on_c, 0, 70, 76
1, 163202, Note_off_c, 0, 66, 63
1, 163205, Note_off_c, 0, 70, 64
1, 163212, Note_on_c, 0, 72, 65
1, 163212, Note_off_c, 0, 73, 61
1, 163259, Note_on_c, 0, 76, 80
1, 163270, Note_off_c, 0, 72, 61
1, 163281, Note_on_c, 0, 79, 69
1, 163300, Note_on_c, 0, 84, 72
1, 163318, Note_off_c, 0, 76, 61
1, 163338, Note_off_c, 0, 79, 61
1, 163350, Note_on_c, 0, 85, 99
1, 163351, Note_on_c, 0, 82, 96
1, 163365, Note_on_c, 0, 78, 67
1, 163366, Note_off_c, 0, 84, 0
1, 163378, Note_on_c, 0, 84, 49
1, 163379, Note_off_c, 0, 85, 59
1, 163395, Note_off_c, 0, 82, 63
1, 163402, Note_on_c, 0, 79, 73
1, 163404, Note_off_c, 0, 78, 61
1, 163425, Note_on_c, 0, 76, 81
1, 163446, Note_off_c, 0, 84, 65
1, 163466, Note_on_c, 0, 72, 81
1, 163491, Note_off_c, 0, 76, 61
1, 163497, Note_off_c, 0, 79, 59
1, 163516, Note_off_c, 0, 72, 60
1, 163524, Note_on_c, 0, 66, 89
1, 163524, Note_on_c, 0, 73, 94
1, 163527, Note_on_c, 0, 70, 83
1, 163548, Note_off_c, 0, 70, 65
1, 163549, Note_off_c, 0, 66, 58
1, 163551, Note_on_c, 0, 72, 57
1, 163562, Note_off_c, 0, 73, 58
1, 163595, Note_on_c, 0, 76, 80
1, 163611, Note_on_c, 0, 79, 73
1, 163618, Note_off_c, 0, 72, 63
1, 163632, Note_on_c, 0, 84, 77
1, 163661, Note_off_c, 0, 76, 61
1, 163674, Note_off_c, 0, 79, 60
1, 163680, Note_off_c, 0, 84, 64
1, 163693, Note_on_c, 0, 85, 103
1, 163694, Note_on_c, 0, 82, 94
1, 163706, Note_on_c, 0, 78, 68
1, 163709, Note_off_c, 0, 85, 67
1, 163716, Note_off_c, 0, 82, 0
1, 163732, Note_off_c, 0, 78, 68
1, 163732, Poly_aftertouch_c, 0, 82, 0
1, 163735, Note_on_c, 0, 84, 75
1, 163741, Note_on_c, 0, 79, 79
1, 163761, Note_on_c, 0, 76, 87
1, 163800, Note_off_c, 0, 84, 61
1, 163803, Note_on_c, 0, 72, 81
1, 163848, Note_off_c, 0, 76, 59
1, 163853, Note_off_c, 0, 79, 60
1, 163857, Note_off_c, 0, 72, 64
1, 163870, Note_on_c, 0, 70, 81
1, 163871, Note_on_c, 0, 66, 80
1, 163871, Note_on_c, 0, 73, 87
1, 163890, Note_off_c, 0, 73, 71
1, 163890, Note_off_c, 0, 66, 70
1, 163896, Note_off_c, 0, 70, 63
1, 163916, Note_on_c, 0, 72, 70
1, 163953, Note_on_c, 0, 76, 79
1, 163968, Note_on_c, 0, 79, 74
1, 163974, Note_off_c, 0, 72, 61
1, 163989, Note_on_c, 0, 84, 69
1, 164010, Note_off_c, 0, 76, 58
1, 164024, Note_off_c, 0, 84, 59
1, 164025, Note_off_c, 0, 79, 59
1, 164037, Note_on_c, 0, 85, 88
1, 164039, Note_on_c, 0, 82, 86
1, 164054, Note_off_c, 0, 85, 73
1, 164063, Note_off_c, 0, 82, 61
1, 164065, Note_on_c, 0, 78, 50
1, 164081, Note_on_c, 0, 84, 65
1, 164087, Note_off_c, 0, 78, 60
1, 164097, Note_on_c, 0, 79, 68
1, 164115, Note_on_c, 0, 76, 72
1, 164124, Note_off_c, 0, 84, 61
1, 164155, Note_off_c, 0, 79, 60
1, 164162, Note_on_c, 0, 72, 68
1, 164169, Note_off_c, 0, 76, 61
1, 164188, Note_off_c, 0, 72, 67
1, 164202, Note_on_c, 0, 70, 89
1, 164207, Note_on_c, 0, 66, 77
1, 164220, Note_off_c, 0, 70, 68
1, 164232, Note_off_c, 0, 66, 68
1, 164271, Note_on_c, 0, 67, 83
1, 164287, Note_on_c, 0, 72, 62
1, 164290, Note_on_c, 0, 76, 69
1, 164309, Note_on_c, 0, 79, 77
1, 164319, Note_off_c, 0, 67, 63
1, 164355, Note_off_c, 0, 72, 63
1, 164355, Note_off_c, 0, 76, 61
1, 164359, Note_off_c, 0, 79, 62
1, 164366, Note_on_c, 0, 82, 102
1, 164368, Note_on_c, 0, 78, 94
1, 164401, Note_off_c, 0, 82, 65
1, 164413, Note_off_c, 0, 78, 58
1, 164417, Note_on_c, 0, 79, 84
1, 164418, Note_on_c, 0, 76, 80
1, 164455, Note_on_c, 0, 72, 74
1, 164488, Note_off_c, 0, 79, 56
1, 164499, Note_on_c, 0, 67, 77
1, 164531, Note_off_c, 0, 72, 58
1, 164542, Note_on_c, 0, 70, 84
1, 164543, Note_off_c, 0, 76, 59
1, 164547, Note_on_c, 0, 66, 70
1, 164550, Note_off_c, 0, 67, 60
1, 164572, Note_off_c, 0, 66, 66
1, 164574, Note_off_c, 0, 70, 50
1, 164615, Note_on_c, 0, 67, 68
1, 164645, Note_on_c, 0, 72, 69
1, 164660, Note_on_c, 0, 76, 78
1, 164674, Note_on_c, 0, 79, 77
1, 164678, Note_off_c, 0, 67, 60
1, 164697, Note_off_c, 0, 72, 62
1, 164718, Note_off_c, 0, 76, 62
1, 164723, Note_on_c, 0, 82, 88
1, 164727, Note_on_c, 0, 78, 81
1, 164731, Note_off_c, 0, 79, 61
1, 164746, Note_off_c, 0, 82, 64
1, 164754, Note_off_c, 0, 78, 57
1, 164773, Note_on_c, 0, 76, 75
1, 164773, Note_on_c, 0, 79, 64
1, 164801, Note_on_c, 0, 72, 75
1, 164841, Note_on_c, 0, 67, 78
1, 164846, Note_off_c, 0, 79, 59
1, 164884, Note_off_c, 0, 72, 59
1, 164894, Note_off_c, 0, 67, 58
1, 164896, Note_on_c, 0, 66, 70
1, 164898, Note_on_c, 0, 70, 70
1, 164906, Note_off_c, 0, 76, 59
1, 164921, Note_off_c, 0, 66, 66
1, 164927, Note_off_c, 0, 70, 58
1, 164955, Note_on_c, 0, 67, 70
1, 164987, Note_on_c, 0, 72, 74
1, 165003, Note_on_c, 0, 76, 77
1, 165004, Note_off_c, 0, 67, 63
1, 165018, Note_on_c, 0, 79, 80
1, 165038, Note_off_c, 0, 72, 63
1, 165054, Note_off_c, 0, 76, 62
1, 165062, Note_on_c, 0, 82, 76
1, 165064, Note_on_c, 0, 78, 76
1, 165083, Note_off_c, 0, 82, 69
1, 165087, Note_off_c, 0, 79, 0
1, 165098, Note_on_c, 0, 79, 60
1, 165107, Note_on_c, 0, 76, 77
1, 165112, Note_off_c, 0, 78, 60
1, 165142, Note_on_c, 0, 72, 72
1, 165164, Note_off_c, 0, 79, 61
1, 165181, Note_on_c, 0, 67, 79
1, 165223, Note_off_c, 0, 72, 61
1, 165229, Note_on_c, 0, 66, 73
1, 165235, Note_off_c, 0, 67, 57
1, 165237, Note_off_c, 0, 76, 58
1, 165239, Note_on_c, 0, 70, 63
1, 165259, Note_off_c, 0, 66, 60
1, 165267, Note_off_c, 0, 70, 55
1, 165275, Note_on_c, 0, 67, 56
1, 165313, Note_on_c, 0, 72, 63
1, 165348, Note_on_c, 0, 76, 72
1, 165352, Note_off_c, 0, 67, 62
1, 165356, Note_on_c, 0, 79, 71
1, 165378, Note_off_c, 0, 72, 59
1, 165390, Note_off_c, 0, 76, 57
1, 165396, Note_off_c, 0, 79, 54
1, 165401, Note_on_c, 0, 82, 86
1, 165407, Note_on_c, 0, 78, 81
1, 165425, Note_off_c, 0, 82, 64
1, 165432, Note_off_c, 0, 78, 62
1, 165451, Note_on_c, 0, 79, 68
1, 165455, Note_on_c, 0, 76, 71
1, 165479, Note_on_c, 0, 72, 73
1, 165518, Note_on_c, 0, 67, 75
1, 165519, Note_off_c, 0, 79, 59
1, 165555, Note_off_c, 0, 72, 58
1, 165566, Note_on_c, 0, 70, 81
1, 165566, Note_off_c, 0, 67, 57
1, 165569, Note_on_c, 0, 66, 73
1, 165576, Note_off_c, 0, 76, 58
1, 165591, Note_off_c, 0, 70, 61
1, 165597, Note_off_c, 0, 66, 62
1, 165624, Note_on_c, 0, 67, 61
1, 165663, Note_on_c, 0, 72, 58
1, 165675, Note_on_c, 0, 76, 68
1, 165681, Note_off_c, 0, 67, 57
1, 165689, Note_on_c, 0, 79, 69
1, 165697, Note_off_c, 0, 72, 56
1, 165722, Note_off_c, 0, 76, 60
1, 165727, Note_off_c, 0, 79, 51
1, 165739, Note_on_c, 0, 75, 68
1, 165739, Note_on_c, 0, 78, 69
1, 165756, Note_off_c, 0, 78, 66
1, 165762, Note_off_c, 0, 75, 67
1, 165772, Note_on_c, 0, 79, 48
1, 165777, Note_on_c, 0, 76, 61
1, 165798, Note_on_c, 0, 72, 65
1, 165836, Note_on_c, 0, 67, 68
1, 165864, Note_off_c, 0, 79, 37
1, 165877, Note_off_c, 0, 72, 58
1, 165899, Note_off_c, 0, 67, 57
1, 165903, Note_on_c, 0, 70, 64
1, 165904, Note_off_c, 0, 76, 58
1, 165912, Note_on_c, 0, 66, 48
1, 165942, Note_off_c, 0, 66, 63
1, 165947, Note_off_c, 0, 70, 58
1, 165968, Note_on_c, 0, 67, 49
1, 165989, Note_on_c, 0, 72, 60
1, 166015, Note_on_c, 0, 76, 63
1, 166026, Note_on_c, 0, 79, 63
1, 166028, Note_off_c, 0, 67, 57
1, 166046, Note_off_c, 0, 72, 55
1, 166048, Note_off_c, 0, 76, 60
1, 166061, Note_off_c, 0, 79, 56
1, 166087, Note_on_c, 0, 78, 62
1, 166091, Note_on_c, 0, 73, 62
1, 166114, Note_off_c, 0, 78, 66
1, 166125, Note_off_c, 0, 73, 62
1, 166129, Note_on_c, 0, 76, 51
1, 166144, Note_on_c, 0, 79, 29
1, 166163, Note_on_c, 0, 72, 62
1, 166190, Note_off_c, 0, 79, 46
1, 166196, Note_on_c, 0, 67, 61
1, 166238, Note_off_c, 0, 72, 58
1, 166253, Note_off_c, 0, 67, 56
1, 166257, Note_off_c, 0, 76, 57
1, 166265, Note_on_c, 0, 66, 56
1, 166268, Note_on_c, 0, 70, 53
1, 166299, Note_off_c, 0, 66, 61
1, 166308, Note_off_c, 0, 70, 60
1, 166332, Note_on_c, 0, 67, 39
1, 166351, Note_on_c, 0, 72, 56
1, 166376, Note_off_c, 0, 67, 58
1, 166379, Note_on_c, 0, 79, 65
1, 166380, Note_on_c, 0, 76, 55
1, 166392, Note_off_c, 0, 72, 58
1, 166411, Note_off_c, 0, 76, 63
1, 166436, Note_on_c, 0, 78, 60
1, 166439, Note_on_c, 0, 73, 58
1, 166460, Note_off_c, 0, 78, 63
1, 166475, Note_off_c, 0, 73, 63
1, 166484, Note_on_c, 0, 76, 51
1, 166496, Note_off_c, 0, 79, 0
1, 166505, Note_on_c, 0, 72, 53
1, 166532, Poly_aftertouch_c, 0, 79, 127
1, 166545, Note_on_c, 0, 67, 59
1, 166567, Poly_aftertouch_c, 0, 79, 0
1, 166580, Note_off_c, 0, 72, 51
1, 166585, Note_off_c, 0, 67, 59
1, 166606, Note_off_c, 0, 76, 54
1, 166616, Control_c, 0, 67, 16
1, 166624, Note_on_c, 0, 66, 52
1, 166629, Note_on_c, 0, 70, 47
1, 166631, Control_c, 0, 67, 35
1, 166646, Control_c, 0, 67, 63
1, 166661, Control_c, 0, 67, 88
1, 166662, Note_off_c, 0, 66, 60
1, 166664, Note_off_c, 0, 70, 50
1, 166675, Control_c, 0, 67, 110
1, 166680, Note_on_c, 0, 67, 52
1, 166690, Control_c, 0, 67, 127
1, 166706, Note_on_c, 0, 72, 50
1, 166726, Note_off_c, 0, 67, 50
1, 166736, Note_on_c, 0, 76, 45
1, 166738, Note_on_c, 0, 79, 57
1, 166747, Note_off_c, 0, 72, 57
1, 166764, Note_off_c, 0, 76, 59
1, 166800, Note_on_c, 0, 78, 61
1, 166808, Note_on_c, 0, 73, 60
1, 166827, Note_off_c, 0, 79, 0
1, 166837, Note_off_c, 0, 78, 63
1, 166851, Note_off_c, 0, 73, 61
1, 166860, Note_on_c, 0, 76, 60
1, 166865, Poly_aftertouch_c, 0, 79, 127
1, 166880, Note_on_c, 0, 72, 51
1, 166918, Poly_aftertouch_c, 0, 79, 0
1, 166942, Note_on_c, 0, 67, 50
1, 166964, Control_c, 0, 64, 114
1, 166970, Note_off_c, 0, 72, 56
1, 166979, Control_c, 0, 64, 89
1, 166982, Note_off_c, 0, 67, 58
1, 166994, Control_c, 0, 64, 75
1, 166997, Note_on_c, 0, 70, 62
1, 167002, Note_off_c, 0, 76, 38
1, 167008, Control_c, 0, 64, 69
1, 167014, Note_on_c, 0, 66, 44
1, 167023, Control_c, 0, 64, 72
1, 167038, Control_c, 0, 64, 78
1, 167053, Control_c, 0, 64, 89
1, 167054, Note_off_c, 0, 66, 57
1, 167061, Note_off_c, 0, 70, 55
1, 167064, Note_on_c, 0, 67, 50
1, 167068, Control_c, 0, 64, 102
1, 167083, Control_c, 0, 64, 127
1, 167093, Note_on_c, 0, 72, 53
1, 167122, Note_on_c, 0, 76, 53
1, 167150, Note_off_c, 0, 72, 49
1, 167170, Note_off_c, 0, 76, 54
1, 167175, Note_off_c, 0, 67, 29
1, 167205, Note_on_c, 0, 73, 60
1, 167213, Note_on_c, 0, 78, 49
1, 167237, Note_off_c, 0, 78, 60
1, 167242, Note_off_c, 0, 73, 62
1, 167250, Note_on_c, 0, 76, 43
1, 167295, Note_on_c, 0, 72, 45
1, 167340, Note_off_c, 0, 76, 54
1, 167366, Control_c, 0, 64, 117
1, 167369, Note_on_c, 0, 67, 42
1, 167381, Control_c, 0, 64, 94
1, 167396, Control_c, 0, 64, 80
1, 167402, Note_off_c, 0, 67, 55
1, 167405, Note_off_c, 0, 72, 38
1, 167411, Control_c, 0, 64, 72
1, 167413, Note_on_c, 0, 70, 45
1, 167414, Note_on_c, 0, 66, 46
1, 167425, Control_c, 0, 64, 72
1, 167440, Control_c, 0, 64, 76
1, 167455, Control_c, 0, 64, 82
1, 167457, Note_off_c, 0, 66, 55
1, 167460, Note_off_c, 0, 70, 55
1, 167469, Control_c, 0, 64, 88
1, 167484, Control_c, 0, 64, 95
1, 167498, Note_on_c, 0, 67, 51
1, 167499, Control_c, 0, 64, 101
1, 167514, Control_c, 0, 64, 105
1, 167521, Note_on_c, 0, 72, 50
1, 167529, Control_c, 0, 64, 109
1, 167543, Control_c, 0, 64, 110
1, 167609, Note_off_c, 0, 67, 30
1, 167611, Note_on_c, 0, 76, 40
1, 167617, Note_off_c, 0, 72, 50
1, 167651, Note_on_c, 0, 73, 53
1, 167653, Note_off_c, 0, 76, 45
1, 167656, Note_on_c, 0, 78, 46
1, 167680, Note_off_c, 0, 78, 57
1, 167685, Note_off_c, 0, 73, 51
1, 167723, Note_on_c, 0, 76, 45
1, 167763, Note_on_c, 0, 72, 45
1, 167825, Note_off_c, 0, 76, 36
1, 167847, Note_on_c, 0, 67, 40
1, 167847, Control_c, 0, 64, 109
1, 167862, Control_c, 0, 64, 106
1, 167876, Control_c, 0, 64, 100
1, 167888, Note_off_c, 0, 67, 49
1, 167891, Control_c, 0, 64, 90
1, 167894, Note_off_c, 0, 72, 34
1, 167906, Control_c, 0, 64, 78
1, 167911, Note_on_c, 0, 70, 43
1, 167918, Note_on_c, 0, 66, 36
1, 167921, Control_c, 0, 64, 71
1, 167936, Control_c, 0, 64, 69
1, 167950, Control_c, 0, 64, 72
1, 167965, Control_c, 0, 64, 77
1, 167971, Note_off_c, 0, 66, 44
1, 167980, Control_c, 0, 64, 82
1, 167995, Control_c, 0, 64, 88
1, 167997, Note_on_c, 0, 67, 43
1, 168007, Note_off_c, 0, 70, 39
1, 168010, Control_c, 0, 64, 94
1, 168025, Control_c, 0, 64, 99
1, 168025, Note_on_c, 0, 72, 43
1, 168040, Control_c, 0, 64, 102
1, 168055, Control_c, 0, 64, 105
1, 168070, Control_c, 0, 64, 106
1, 168085, Control_c, 0, 64, 106
1, 168100, Control_c, 0, 64, 107
1, 168114, Control_c, 0, 64, 107
1, 168135, Note_on_c, 0, 76, 43
1, 168170, Note_off_c, 0, 72, 38
1, 168195, Note_off_c, 0, 67, 26
1, 168225, Note_off_c, 0, 76, 37
1, 168226, Note_on_c, 0, 78, 44
1, 168237, Note_on_c, 0, 73, 48
1, 168265, Note_off_c, 0, 78, 50
1, 168280, Note_off_c, 0, 73, 47
1, 168297, Note_on_c, 0, 76, 33
1, 168393, Note_on_c, 0, 72, 43
1, 168452, Note_off_c, 0, 76, 39
1, 168507, Control_c, 0, 64, 107
1, 168509, Note_on_c, 0, 67, 26
1, 168522, Control_c, 0, 64, 106
1, 168523, Note_off_c, 0, 72, 27
1, 168553, Note_off_c, 0, 67, 49
1, 168581, Control_c, 0, 64, 106
1, 168605, Note_on_c, 0, 66, 33
1, 168607, Note_on_c, 0, 70, 37
1, 168686, Note_off_c, 0, 66, 35
1, 168703, Note_on_c, 0, 67, 35
1, 168713, Note_off_c, 0, 70, 38
1, 168829, Note_on_c, 0, 72, 41
1, 168878, Control_c, 0, 64, 105
1, 168974, Note_on_c, 0, 76, 29
1, 169058, Note_off_c, 0, 72, 32
1, 169133, Note_on_c, 0, 78, 36
1, 169137, Note_off_c, 0, 76, 38
1, 169154, Note_on_c, 0, 73, 26
1, 169158, Note_off_c, 0, 67, 32
1, 169200, Note_off_c, 0, 73, 47
1, 169229, Note_off_c, 0, 78, 45
1, 169274, Note_on_c, 0, 76, 41
1, 169483, Note_on_c, 0, 72, 38
1, 169611, Control_c, 0, 67, 125
1, 169626, Control_c, 0, 67, 119
1, 169642, Control_c, 0, 67, 109
1, 169657, Control_c, 0, 64, 106
1, 169657, Control_c, 0, 67, 99
1, 169672, Control_c, 0, 67, 87
1, 169673, Note_off_c, 0, 76, 31
1, 169687, Control_c, 0, 67, 74
1, 169701, Control_c, 0, 67, 62
1, 169716, Control_c, 0, 67, 52
1, 169731, Control_c, 0, 67, 44
1, 169745, Control_c, 0, 67, 36
1, 169760, Control_c, 0, 67, 31
1, 169775, Control_c, 0, 67, 25
1, 169790, Control_c, 0, 67, 20
1, 169805, Control_c, 0, 64, 106
1, 169805, Control_c, 0, 67, 15
1, 169827, Control_c, 0, 67, 10
1, 169842, Control_c, 0, 67, 0
1, 169843, Note_on_c, 0, 67, 31
1, 169867, Note_off_c, 0, 72, 38
1, 169901, Control_c, 0, 67, 8
1, 169916, Control_c, 0, 67, 11
1, 169931, Control_c, 0, 67, 13
1, 169946, Control_c, 0, 67, 16
1, 169960, Control_c, 0, 67, 18
1, 169975, Control_c, 0, 67, 23
1, 169990, Control_c, 0, 67, 34
1, 170005, Control_c, 0, 67, 52
1, 170020, Control_c, 0, 67, 70
1, 170034, Control_c, 0, 67, 86
1, 170049, Control_c, 0, 67, 101
1, 170064, Control_c, 0, 67, 110
1, 170079, Control_c, 0, 67, 118
1, 170094, Control_c, 0, 67, 124
1, 170109, Control_c, 0, 67, 127
1, 170160, Note_off_c, 0, 67, 36
1, 170391, Control_c, 0, 64, 106
1, 170481, Control_c, 0, 64, 105
1, 170510, Control_c, 0, 64, 105
1, 170555, Control_c, 0, 64, 104
1, 170592, Control_c, 0, 64, 104
1, 170606, Control_c, 0, 64, 103
1, 170636, Control_c, 0, 64, 103
1, 170651, Control_c, 0, 64, 102
1, 170666, Control_c, 0, 64, 102
1, 170681, Control_c, 0, 64, 101
1, 170695, Control_c, 0, 64, 101
1, 170710, Control_c, 0, 64, 100
1, 170725, Control_c, 0, 64, 100
1, 170740, Control_c, 0, 64, 99
1, 170755, Control_c, 0, 64, 98
1, 170770, Control_c, 0, 64, 98
1, 170784, Control_c, 0, 64, 97
1, 170799, Control_c, 0, 64, 97
1, 170814, Control_c, 0, 64, 96
1, 170829, Control_c, 0, 64, 95
1, 170844, Control_c, 0, 64, 94
1, 170858, Control_c, 0, 64, 93
1, 170873, Control_c, 0, 64, 92
1, 170888, Control_c, 0, 64, 91
1, 170902, Control_c, 0, 64, 90
1, 170917, Control_c, 0, 64, 88
1, 170931, Control_c, 0, 64, 87
1, 170946, Control_c, 0, 64, 85
1, 170961, Control_c, 0, 64, 83
1, 170976, Control_c, 0, 64, 81
1, 170979, Note_on_c, 0, 79, 47
1, 170989, Note_on_c, 0, 72, 33
1, 170991, Control_c, 0, 64, 77
1, 171006, Control_c, 0, 64, 71
1, 171010, Note_on_c, 0, 65, 24
1, 171011, Note_on_c, 0, 75, 36
1, 171020, Control_c, 0, 64, 65
1, 171035, Control_c, 0, 64, 55
1, 171050, Control_c, 0, 64, 35
1, 171065, Control_c, 0, 64, 34
1, 171080, Control_c, 0, 64, 45
1, 171094, Control_c, 0, 64, 54
1, 171109, Control_c, 0, 64, 60
1, 171124, Control_c, 0, 64, 64
1, 171139, Control_c, 0, 64, 66
1, 171154, Control_c, 0, 64, 69
1, 171168, Control_c, 0, 64, 72
1, 171175, Note_off_c, 0, 72, 35
1, 171183, Control_c, 0, 64, 75
1, 171198, Note_on_c, 0, 74, 42
1, 171198, Control_c, 0, 64, 80
1, 171212, Note_on_c, 0, 69, 22
1, 171213, Control_c, 0, 64, 84
1, 171227, Control_c, 0, 64, 91
1, 171244, Control_c, 0, 64, 97
1, 171259, Note_off_c, 0, 69, 48
1, 171259, Control_c, 0, 64, 103
1, 171259, Note_off_c, 0, 74, 57
1, 171270, Note_off_c, 0, 65, 35
1, 171273, Control_c, 0, 64, 106
1, 171288, Control_c, 0, 64, 110
1, 171301, Note_off_c, 0, 75, 36
1, 171303, Control_c, 0, 64, 112
1, 171325, Control_c, 0, 64, 114
1, 171340, Control_c, 0, 64, 116
1, 171355, Control_c, 0, 64, 119
1, 171370, Control_c, 0, 64, 122
1, 171382, Note_on_c, 0, 69, 44
1, 171384, Control_c, 0, 64, 124
1, 171385, Note_on_c, 0, 81, 60
1, 171389, Note_off_c, 0, 79, 31
1, 171403, Note_on_c, 0, 74, 50
1, 171434, Note_on_c, 0, 77, 35
1, 171507, Note_off_c, 0, 74, 38
1, 171569, Note_on_c, 0, 65, 50
1, 171577, Control_c, 0, 64, 123
1, 171580, Note_on_c, 0, 72, 45
1, 171591, Control_c, 0, 64, 122
1, 171605, Note_off_c, 0, 77, 24
1, 171606, Control_c, 0, 64, 121
1, 171612, Note_off_c, 0, 65, 58
1, 171621, Control_c, 0, 64, 119
1, 171627, Note_off_c, 0, 69, 43
1, 171627, Note_off_c, 0, 72, 57
1, 171636, Control_c, 0, 64, 119
1, 171650, Control_c, 0, 64, 118
1, 171665, Control_c, 0, 64, 118
1, 171710, Control_c, 0, 64, 117
1, 171724, Control_c, 0, 64, 116
1, 171739, Control_c, 0, 64, 110
1, 171742, Note_on_c, 0, 77, 68
1, 171754, Control_c, 0, 64, 101
1, 171763, Note_on_c, 0, 70, 49
1, 171769, Control_c, 0, 64, 90
1, 171783, Note_on_c, 0, 63, 49
1, 171784, Control_c, 0, 64, 79
1, 171788, Note_off_c, 0, 81, 23
1, 171796, Note_on_c, 0, 73, 36
1, 171799, Control_c, 0, 64, 67
1, 171814, Control_c, 0, 64, 55
1, 171829, Control_c, 0, 64, 43
1, 171843, Control_c, 0, 64, 48
1, 171858, Control_c, 0, 64, 59
1, 171873, Control_c, 0, 64, 64
1, 171888, Control_c, 0, 64, 67
1, 171890, Note_off_c, 0, 73, 38
1, 171903, Control_c, 0, 64, 71
1, 171917, Control_c, 0, 64, 75
1, 171922, Note_off_c, 0, 70, 37
1, 171932, Control_c, 0, 64, 81
1, 171943, Note_on_c, 0, 72, 43
1, 171947, Control_c, 0, 64, 88
1, 171952, Note_on_c, 0, 67, 41
1, 171962, Control_c, 0, 64, 94
1, 171977, Control_c, 0, 64, 100
1, 171991, Control_c, 0, 64, 104
1, 172003, Note_off_c, 0, 77, 53
1, 172006, Control_c, 0, 64, 107
1, 172007, Note_off_c, 0, 67, 53
1, 172011, Note_off_c, 0, 72, 46
1, 172021, Control_c, 0, 64, 109
1, 172037, Control_c, 0, 64, 111
1, 172040, Note_off_c, 0, 63, 25
1, 172052, Control_c, 0, 64, 113
1, 172073, Control_c, 0, 64, 115
1, 172088, Control_c, 0, 64, 116
1, 172103, Control_c, 0, 64, 117
1, 172114, Note_on_c, 0, 84, 74
1, 172133, Control_c, 0, 64, 117
1, 172142, Note_on_c, 0, 67, 53
1, 172142, Note_on_c, 0, 79, 55
1, 172144, Note_on_c, 0, 72, 50
1, 172204, Note_off_c, 0, 84, 58
1, 172254, Note_off_c, 0, 79, 37
1, 172281, Control_c, 0, 64, 117
1, 172294, Note_on_c, 0, 77, 63
1, 172296, Control_c, 0, 64, 116
1, 172297, Note_off_c, 0, 72, 36
1, 172306, Note_on_c, 0, 63, 51
1, 172311, Note_on_c, 0, 73, 47
1, 172311, Control_c, 0, 64, 115
1, 172312, Note_on_c, 0, 70, 59
1, 172326, Control_c, 0, 64, 114
1, 172338, Note_off_c, 0, 67, 22
1, 172340, Control_c, 0, 64, 113
1, 172344, Note_off_c, 0, 73, 51
1, 172350, Note_off_c, 0, 63, 60
1, 172355, Control_c, 0, 64, 113
1, 172370, Control_c, 0, 64, 111
1, 172380, Note_off_c, 0, 70, 62
1, 172385, Control_c, 0, 64, 109
1, 172400, Control_c, 0, 64, 107
1, 172407, Note_off_c, 0, 77, 55
1, 172414, Control_c, 0, 64, 105
1, 172429, Control_c, 0, 64, 103
1, 172444, Control_c, 0, 64, 100
1, 172459, Control_c, 0, 64, 94
1, 172473, Control_c, 0, 64, 86
1, 172485, Note_on_c, 0, 79, 67
1, 172488, Control_c, 0, 64, 76
1, 172503, Control_c, 0, 64, 66
1, 172505, Note_on_c, 0, 75, 50
1, 172512, Note_on_c, 0, 72, 46
1, 172518, Control_c, 0, 64, 0
1, 172532, Note_on_c, 0, 65, 40
1, 172666, Control_c, 0, 64, 44
1, 172681, Control_c, 0, 64, 62
1, 172686, Note_off_c, 0, 72, 38
1, 172689, Note_on_c, 0, 74, 46
1, 172696, Control_c, 0, 64, 67
1, 172697, Note_on_c, 0, 69, 39
1, 172711, Control_c, 0, 64, 74
1, 172726, Control_c, 0, 64, 83
1, 172740, Control_c, 0, 64, 92
1, 172751, Note_off_c, 0, 69, 56
1, 172755, Control_c, 0, 64, 102
1, 172765, Note_off_c, 0, 74, 56
1, 172770, Control_c, 0, 64, 108
1, 172780, Note_off_c, 0, 65, 40
1, 172785, Control_c, 0, 64, 110
1, 172824, Note_off_c, 0, 75, 38
1, 172836, Control_c, 0, 64, 108
1, 172852, Control_c, 0, 64, 98
1, 172864, Note_on_c, 0, 81, 71
1, 172867, Control_c, 0, 64, 85
1, 172880, Note_on_c, 0, 69, 44
1, 172882, Control_c, 0, 64, 71
1, 172883, Note_off_c, 0, 79, 39
1, 172885, Note_on_c, 0, 77, 52
1, 172890, Note_on_c, 0, 74, 47
1, 172896, Control_c, 0, 64, 21
1, 172911, Control_c, 0, 64, 0
1, 172956, Control_c, 0, 64, 52
1, 172970, Control_c, 0, 64, 64
1, 172985, Control_c, 0, 64, 69
1, 172994, Note_off_c, 0, 74, 45
1, 173000, Control_c, 0, 64, 75
1, 173015, Control_c, 0, 64, 83
1, 173030, Control_c, 0, 64, 90
1, 173045, Control_c, 0, 64, 96
1, 173060, Control_c, 0, 64, 99
1, 173069, Note_on_c, 0, 72, 49
1, 173071, Note_on_c, 0, 65, 45
1, 173075, Control_c, 0, 64, 101
1, 173084, Note_off_c, 0, 77, 33
1, 173089, Control_c, 0, 64, 101
1, 173099, Note_off_c, 0, 69, 35
1, 173113, Note_off_c, 0, 65, 61
1, 173123, Note_off_c, 0, 72, 50
1, 173223, Control_c, 0, 64, 100
1, 173236, Note_on_c, 0, 77, 63
1, 173237, Control_c, 0, 64, 94
1, 173252, Control_c, 0, 64, 85
1, 173254, Note_off_c, 0, 81, 27
1, 173256, Note_on_c, 0, 70, 48
1, 173267, Note_on_c, 0, 73, 48
1, 173267, Control_c, 0, 64, 74
1, 173282, Control_c, 0, 64, 61
1, 173288, Note_on_c, 0, 63, 40
1, 173296, Control_c, 0, 64, 0
1, 173356, Control_c, 0, 64, 52
1, 173370, Note_off_c, 0, 73, 55
1, 173370, Control_c, 0, 64, 63
1, 173385, Control_c, 0, 64, 66
1, 173400, Control_c, 0, 64, 70
1, 173414, Control_c, 0, 64, 75
1, 173429, Control_c, 0, 64, 81
1, 173435, Note_on_c, 0, 67, 39
1, 173438, Note_on_c, 0, 72, 42
1, 173441, Note_off_c, 0, 70, 41
1, 173444, Control_c, 0, 64, 87
1, 173459, Control_c, 0, 64, 91
1, 173474, Control_c, 0, 64, 94
1, 173489, Control_c, 0, 64, 95
1, 173494, Note_off_c, 0, 67, 53
1, 173501, Note_off_c, 0, 77, 51
1, 173504, Control_c, 0, 64, 96
1, 173509, Note_off_c, 0, 72, 48
1, 173519, Control_c, 0, 64, 97
1, 173537, Note_off_c, 0, 63, 23
1, 173611, Note_on_c, 0, 84, 69
1, 173629, Note_on_c, 0, 79, 61
1, 173641, Note_on_c, 0, 67, 46
1, 173643, Note_on_c, 0, 72, 52
1, 173681, Note_off_c, 0, 84, 59
1, 173714, Note_off_c, 0, 79, 56
1, 173749, Control_c, 0, 64, 96
1, 173764, Control_c, 0, 64, 96
1, 173783, Note_off_c, 0, 72, 31
1, 173793, Note_on_c, 0, 77, 62
1, 173793, Control_c, 0, 64, 95
1, 173799, Note_on_c, 0, 73, 57
1, 173808, Note_on_c, 0, 70, 59
1, 173814, Note_on_c, 0, 63, 49
1, 173822, Note_off_c, 0, 67, 24
1, 173823, Control_c, 0, 64, 95
1, 173838, Control_c, 0, 64, 94
1, 173841, Note_off_c, 0, 73, 59
1, 173850, Note_off_c, 0, 63, 59
1, 173853, Control_c, 0, 64, 93
1, 173868, Control_c, 0, 64, 91
1, 173876, Note_off_c, 0, 70, 61
1, 173882, Note_off_c, 0, 77, 58
1, 173882, Control_c, 0, 64, 90
1, 173897, Control_c, 0, 64, 89
1, 173912, Control_c, 0, 64, 87
1, 173927, Control_c, 0, 64, 85
1, 173942, Control_c, 0, 64, 81
1, 173957, Control_c, 0, 64, 74
1, 173972, Control_c, 0, 64, 65
1, 173981, Note_on_c, 0, 79, 69
1, 173987, Control_c, 0, 64, 0
1, 173988, Note_on_c, 0, 75, 54
1, 173997, Note_on_c, 0, 72, 47
1, 174017, Note_on_c, 0, 65, 46
1, 174135, Control_c, 0, 64, 36
1, 174146, Note_off_c, 0, 72, 37
1, 174150, Control_c, 0, 64, 58
1, 174165, Control_c, 0, 64, 66
1, 174170, Note_on_c, 0, 74, 51
1, 174180, Control_c, 0, 64, 72
1, 174181, Note_on_c, 0, 69, 40
1, 174194, Control_c, 0, 64, 81
1, 174209, Control_c, 0, 64, 91
1, 174224, Control_c, 0, 64, 102
1, 174228, Note_off_c, 0, 65, 20
1, 174233, Note_off_c, 0, 69, 56
1, 174238, Control_c, 0, 64, 112
1, 174246, Note_off_c, 0, 74, 57
1, 174248, Note_off_c, 0, 75, 51
1, 174253, Control_c, 0, 64, 124
1, 174268, Control_c, 0, 64, 127
1, 174295, Note_off_c, 0, 79, 48
1, 174350, Note_on_c, 0, 81, 70
1, 174362, Note_on_c, 0, 69, 44
1, 174364, Note_on_c, 0, 77, 59
1, 174374, Note_on_c, 0, 74, 56
1, 174422, Note_off_c, 0, 77, 58
1, 174483, Note_off_c, 0, 81, 51
1, 174495, Note_off_c, 0, 74, 36
1, 174538, Note_on_c, 0, 72, 50
1, 174540, Note_on_c, 0, 65, 48
1, 174543, Control_c, 0, 64, 124
1, 174558, Control_c, 0, 64, 121
1, 174571, Note_off_c, 0, 69, 44
1, 174573, Control_c, 0, 64, 118
1, 174577, Note_off_c, 0, 65, 63
1, 174578, Note_off_c, 0, 72, 60
1, 174588, Control_c, 0, 64, 116
1, 174603, Control_c, 0, 64, 114
1, 174617, Control_c, 0, 64, 114
1, 174632, Control_c, 0, 64, 112
1, 174647, Control_c, 0, 64, 111
1, 174662, Control_c, 0, 64, 109
1, 174675, Control_c, 0, 64, 107
1, 174690, Control_c, 0, 64, 103
1, 174704, Note_on_c, 0, 77, 65
1, 174705, Control_c, 0, 64, 96
1, 174720, Control_c, 0, 64, 85
1, 174732, Note_on_c, 0, 70, 46
1, 174735, Control_c, 0, 64, 73
1, 174738, Note_on_c, 0, 63, 45
1, 174738, Note_on_c, 0, 73, 48
1, 174750, Control_c, 0, 64, 58
1, 174765, Control_c, 0, 64, 0
1, 174810, Control_c, 0, 64, 39
1, 174824, Control_c, 0, 64, 59
1, 174839, Control_c, 0, 64, 65
1, 174840, Note_off_c, 0, 70, 54
1, 174854, Control_c, 0, 64, 69
1, 174868, Control_c, 0, 64, 74
1, 174883, Control_c, 0, 64, 80
1, 174898, Control_c, 0, 64, 87
1, 174906, Note_on_c, 0, 67, 36
1, 174913, Control_c, 0, 64, 93
1, 174920, Note_on_c, 0, 72, 31
1, 174928, Control_c, 0, 64, 99
1, 174942, Control_c, 0, 64, 103
1, 174944, Note_off_c, 0, 73, 52
1, 174957, Control_c, 0, 64, 106
1, 174964, Note_off_c, 0, 72, 47
1, 174971, Note_off_c, 0, 67, 51
1, 174972, Control_c, 0, 64, 106
1, 174987, Control_c, 0, 64, 107
1, 174988, Note_off_c, 0, 63, 19
1, 175016, Control_c, 0, 64, 107
1, 175027, Note_off_c, 0, 77, 38
1, 175084, Note_on_c, 0, 72, 39
1, 175090, Note_on_c, 0, 79, 62
1, 175097, Note_on_c, 0, 75, 52
1, 175125, Note_on_c, 0, 67, 36
1, 175211, Note_off_c, 0, 79, 42
1, 175231, Control_c, 0, 64, 107
1, 175266, Note_on_c, 0, 70, 47
1, 175266, Note_off_c, 0, 72, 43
1, 175269, Note_off_c, 0, 75, 37
1, 175277, Note_on_c, 0, 63, 42
1, 175277, Control_c, 0, 64, 106
1, 175291, Control_c, 0, 64, 106
1, 175304, Note_off_c, 0, 67, 40
1, 175306, Control_c, 0, 64, 105
1, 175315, Note_off_c, 0, 70, 58
1, 175321, Control_c, 0, 64, 105
1, 175322, Note_off_c, 0, 63, 58
1, 175336, Control_c, 0, 64, 104
1, 175365, Control_c, 0, 64, 104
1, 175380, Control_c, 0, 64, 103
1, 175395, Control_c, 0, 64, 103
1, 175410, Control_c, 0, 64, 102
1, 175424, Control_c, 0, 64, 98
1, 175438, Control_c, 0, 64, 92
1, 175453, Control_c, 0, 64, 82
1, 175468, Note_on_c, 0, 68, 35
1, 175468, Control_c, 0, 64, 71
1, 175471, Note_on_c, 0, 71, 43
1, 175473, Note_on_c, 0, 75, 45
1, 175483, Control_c, 0, 64, 58
1, 175488, Note_on_c, 0, 61, 29
1, 175498, Control_c, 0, 64, 0
1, 175543, Control_c, 0, 64, 27
1, 175558, Control_c, 0, 64, 55
1, 175572, Control_c, 0, 64, 63
1, 175587, Control_c, 0, 64, 66
1, 175602, Note_off_c, 0, 68, 47
1, 175602, Control_c, 0, 64, 69
1, 175617, Control_c, 0, 64, 73
1, 175632, Control_c, 0, 64, 78
1, 175646, Control_c, 0, 64, 84
1, 175661, Control_c, 0, 64, 90
1, 175674, Note_on_c, 0, 70, 40
1, 175676, Control_c, 0, 64, 95
1, 175679, Note_on_c, 0, 65, 32
1, 175690, Control_c, 0, 64, 100
1, 175705, Control_c, 0, 64, 104
1, 175720, Control_c, 0, 64, 106
1, 175730, Note_off_c, 0, 70, 56
1, 175731, Note_off_c, 0, 65, 45
1, 175735, Control_c, 0, 64, 107
1, 175750, Control_c, 0, 64, 107
1, 175766, Note_off_c, 0, 71, 39
1, 175792, Note_off_c, 0, 61, 40
1, 175821, Note_off_c, 0, 75, 35
1, 175874, Note_on_c, 0, 70, 39
1, 175898, Note_on_c, 0, 65, 27
1, 175901, Note_on_c, 0, 77, 47
1, 175910, Note_on_c, 0, 73, 45
1, 175994, Control_c, 0, 64, 107
1, 176013, Note_off_c, 0, 77, 39
1, 176023, Control_c, 0, 64, 106
1, 176061, Note_off_c, 0, 73, 38
1, 176069, Control_c, 0, 64, 106
1, 176094, Note_off_c, 0, 70, 36
1, 176099, Control_c, 0, 64, 105
1, 176103, Note_on_c, 0, 68, 42
1, 176123, Note_on_c, 0, 61, 11
1, 176143, Control_c, 0, 64, 105
1, 176158, Control_c, 0, 64, 104
1, 176173, Note_off_c, 0, 65, 42
1, 176187, Control_c, 0, 64, 104
1, 176188, Note_off_c, 0, 68, 60
1, 176189, Note_off_c, 0, 61, 45
1, 176202, Control_c, 0, 64, 103
1, 176217, Control_c, 0, 64, 103
1, 176231, Control_c, 0, 64, 102
1, 176246, Control_c, 0, 64, 101
1, 176261, Control_c, 0, 64, 100
1, 176276, Control_c, 0, 64, 98
1, 176291, Control_c, 0, 64, 97
1, 176306, Control_c, 0, 64, 96
1, 176321, Control_c, 0, 64, 94
1, 176336, Control_c, 0, 64, 93
1, 176351, Control_c, 0, 64, 91
1, 176360, Note_on_c, 0, 59, 38
1, 176366, Control_c, 0, 64, 88
1, 176369, Note_on_c, 0, 73, 45
1, 176370, Note_on_c, 0, 69, 38
1, 176371, Note_on_c, 0, 66, 27
1, 176380, Control_c, 0, 64, 83
1, 176395, Control_c, 0, 64, 77
1, 176410, Control_c, 0, 64, 69
1, 176425, Control_c, 0, 64, 58
1, 176439, Control_c, 0, 64, 0
1, 176499, Control_c, 0, 64, 36
1, 176513, Control_c, 0, 64, 55
1, 176528, Control_c, 0, 64, 62
1, 176543, Control_c, 0, 64, 65
1, 176565, Control_c, 0, 64, 68
1, 176580, Control_c, 0, 64, 71
1, 176595, Control_c, 0, 64, 73
1, 176610, Control_c, 0, 64, 75
1, 176625, Control_c, 0, 64, 76
1, 176639, Control_c, 0, 64, 77
1, 176646, Note_off_c, 0, 66, 38
1, 176654, Control_c, 0, 64, 79
1, 176669, Control_c, 0, 64, 81
1, 176678, Note_on_c, 0, 68, 37
1, 176684, Control_c, 0, 64, 83
1, 176699, Control_c, 0, 64, 85
1, 176710, Note_on_c, 0, 63, 19
1, 176713, Control_c, 0, 64, 87
1, 176728, Control_c, 0, 64, 88
1, 176743, Control_c, 0, 64, 89
1, 176752, Note_off_c, 0, 69, 31
1, 176765, Note_off_c, 0, 59, 17
1, 176782, Note_off_c, 0, 63, 40
1, 176810, Note_off_c, 0, 68, 38
1, 176842, Note_off_c, 0, 73, 39
1, 176922, Control_c, 0, 64, 89
1, 176936, Control_c, 0, 64, 88
1, 176951, Control_c, 0, 64, 87
1, 176954, Note_on_c, 0, 68, 31
1, 176966, Control_c, 0, 64, 87
1, 176981, Control_c, 0, 64, 86
1, 176993, Note_on_c, 0, 63, 21
1, 176996, Control_c, 0, 64, 85
1, 177000, Note_on_c, 0, 75, 32
1, 177008, Note_on_c, 0, 71, 34
1, 177010, Control_c, 0, 64, 84
1, 177025, Control_c, 0, 64, 81
1, 177040, Control_c, 0, 64, 75
1, 177054, Control_c, 0, 64, 68
1, 177069, Control_c, 0, 64, 61
1, 177084, Control_c, 0, 64, 35
1, 177099, Control_c, 0, 64, 0
1, 177144, Control_c, 0, 64, 24
1, 177158, Control_c, 0, 64, 45
1, 177173, Control_c, 0, 64, 57
1, 177188, Control_c, 0, 64, 63
1, 177203, Control_c, 0, 64, 65
1, 177218, Control_c, 0, 64, 67
1, 177233, Control_c, 0, 64, 70
1, 177248, Control_c, 0, 64, 72
1, 177262, Control_c, 0, 64, 74
1, 177277, Control_c, 0, 64, 77
1, 177292, Control_c, 0, 64, 79
1, 177314, Control_c, 0, 64, 81
1, 177329, Control_c, 0, 64, 82
1, 177343, Control_c, 0, 64, 82
1, 177358, Note_off_c, 0, 63, 37
1, 177358, Control_c, 0, 64, 83
1, 177407, Note_off_c, 0, 68, 36
1, 177448, Control_c, 0, 64, 82
1, 177458, Note_off_c, 0, 75, 34
1, 177472, Note_on_c, 0, 66, 22
1, 177483, Note_on_c, 0, 59, 12
1, 177492, Control_c, 0, 64, 82
1, 177522, Control_c, 0, 64, 81
1, 177536, Control_c, 0, 64, 81
1, 177551, Control_c, 0, 64, 80
1, 177566, Control_c, 0, 64, 80
1, 177581, Control_c, 0, 64, 79
1, 177589, Note_off_c, 0, 71, 36
1, 177610, Control_c, 0, 64, 78
1, 177625, Control_c, 0, 64, 78
1, 177641, Control_c, 0, 64, 77
1, 177656, Control_c, 0, 64, 75
1, 177671, Control_c, 0, 64, 74
1, 177685, Control_c, 0, 64, 73
1, 177700, Control_c, 0, 64, 72
1, 177715, Control_c, 0, 64, 70
1, 177730, Control_c, 0, 64, 69
1, 177745, Control_c, 0, 64, 68
1, 177759, Control_c, 0, 64, 66
1, 177774, Control_c, 0, 64, 65
1, 177789, Control_c, 0, 64, 64
1, 177804, Control_c, 0, 64, 63
1, 177819, Control_c, 0, 64, 61
1, 177833, Control_c, 0, 64, 58
1, 177848, Control_c, 0, 64, 53
1, 177863, Control_c, 0, 64, 48
1, 177877, Control_c, 0, 64, 40
1, 177881, Note_off_c, 0, 59, 36
1, 177892, Control_c, 0, 64, 29
1, 177907, Control_c, 0, 64, 11
1, 177922, Control_c, 0, 64, 0
1, 178017, Note_off_c, 0, 66, 44
1, 178671, Control_c, 0, 67, 126
1, 178686, Control_c, 0, 67, 124
1, 178700, Control_c, 0, 67, 117
1, 178715, Control_c, 0, 67, 107
1, 178730, Control_c, 0, 67, 88
1, 178745, Control_c, 0, 67, 69
1, 178760, Control_c, 0, 67, 49
1, 178774, Control_c, 0, 67, 32
1, 178789, Control_c, 0, 67, 18
1, 178812, Control_c, 0, 64, 19
1, 178812, Control_c, 0, 67, 0
1, 178827, Control_c, 0, 64, 44
1, 178841, Control_c, 0, 64, 57
1, 178856, Control_c, 0, 64, 63
1, 178871, Control_c, 0, 64, 65
1, 178886, Control_c, 0, 64, 69
1, 178901, Control_c, 0, 64, 72
1, 178915, Control_c, 0, 64, 76
1, 178930, Control_c, 0, 64, 80
1, 178945, Control_c, 0, 64, 86
1, 178960, Control_c, 0, 64, 93
1, 178975, Control_c, 0, 64, 103
1, 178989, Control_c, 0, 64, 127
1, 179272, Control_c, 0, 67, 14
1, 179287, Control_c, 0, 67, 26
1, 179302, Control_c, 0, 67, 38
1, 179317, Note_on_c, 0, 73, 55
1, 179317, Control_c, 0, 67, 49
1, 179331, Control_c, 0, 67, 60
1, 179343, Note_on_c, 0, 66, 40
1, 179346, Control_c, 0, 67, 67
1, 179361, Control_c, 0, 67, 74
1, 179374, Note_on_c, 0, 61, 41
1, 179376, Control_c, 0, 67, 80
1, 179391, Control_c, 0, 67, 86
1, 179392, Note_on_c, 0, 54, 27
1, 179403, Note_on_c, 0, 47, 27
1, 179405, Control_c, 0, 67, 92
1, 179418, Note_on_c, 0, 57, 21
1, 179420, Control_c, 0, 67, 97
1, 179435, Control_c, 0, 67, 104
1, 179450, Control_c, 0, 67, 110
1, 179464, Control_c, 0, 67, 115
1, 179479, Control_c, 0, 67, 119
1, 179494, Control_c, 0, 67, 122
1, 179509, Control_c, 0, 67, 125
1, 179524, Control_c, 0, 67, 127
1, 179567, Note_off_c, 0, 61, 40
1, 179609, Note_off_c, 0, 47, 45
1, 179628, Note_off_c, 0, 54, 45
1, 179693, Note_off_c, 0, 57, 41
1, 179785, Note_on_c, 0, 68, 46
1, 179800, Note_on_c, 0, 63, 39
1, 179889, Note_off_c, 0, 73, 57
1, 179984, Note_off_c, 0, 66, 34
1, 179985, Note_off_c, 0, 63, 37
1, 179999, Note_off_c, 0, 68, 56
1, 180095, Control_c, 0, 64, 110
1, 180104, Note_on_c, 0, 75, 69
1, 180110, Control_c, 0, 64, 97
1, 180118, Note_on_c, 0, 68, 63
1, 180125, Control_c, 0, 64, 86
1, 180140, Control_c, 0, 64, 75
1, 180146, Note_on_c, 0, 63, 34
1, 180151, Note_on_c, 0, 59, 39
1, 180154, Control_c, 0, 64, 66
1, 180166, Note_on_c, 0, 52, 34
1, 180169, Control_c, 0, 64, 57
1, 180184, Control_c, 0, 64, 58
1, 180199, Control_c, 0, 64, 63
1, 180214, Control_c, 0, 64, 67
1, 180229, Control_c, 0, 64, 71
1, 180237, Note_off_c, 0, 63, 57
1, 180244, Control_c, 0, 64, 76
1, 180259, Control_c, 0, 64, 82
1, 180274, Control_c, 0, 64, 90
1, 180288, Control_c, 0, 64, 98
1, 180310, Control_c, 0, 64, 108
1, 180312, Note_off_c, 0, 75, 52
1, 180325, Control_c, 0, 64, 122
1, 180340, Control_c, 0, 64, 127
1, 180351, Note_off_c, 0, 59, 37
1, 180429, Note_on_c, 0, 66, 54
1, 180446, Note_on_c, 0, 61, 55
1, 180466, Note_off_c, 0, 52, 42
1, 180515, Note_off_c, 0, 66, 61
1, 180531, Note_off_c, 0, 61, 61
1, 180609, Note_off_c, 0, 68, 56
1, 180703, Note_on_c, 0, 71, 75
1, 180724, Note_on_c, 0, 64, 54
1, 180735, Note_on_c, 0, 59, 53
1, 180754, Control_c, 0, 64, 94
1, 180766, Note_on_c, 0, 52, 38
1, 180768, Note_on_c, 0, 55, 40
1, 180769, Control_c, 0, 64, 73
1, 180771, Note_on_c, 0, 45, 37
1, 180784, Control_c, 0, 64, 0
1, 180844, Control_c, 0, 64, 30
1, 180845, Note_off_c, 0, 59, 58
1, 180859, Control_c, 0, 64, 74
1, 180874, Control_c, 0, 64, 94
1, 180889, Control_c, 0, 64, 127
1, 180932, Note_off_c, 0, 45, 49
1, 180939, Note_off_c, 0, 52, 58
1, 181001, Note_off_c, 0, 55, 57
1, 181007, Note_on_c, 0, 66, 58
1, 181019, Note_on_c, 0, 61, 56
1, 181042, Note_off_c, 0, 71, 59
1, 181084, Note_off_c, 0, 64, 35
1, 181088, Note_off_c, 0, 61, 62
1, 181100, Note_off_c, 0, 66, 62
1, 181320, Note_on_c, 0, 78, 69
1, 181326, Control_c, 0, 64, 119
1, 181335, Note_on_c, 0, 73, 60
1, 181341, Control_c, 0, 64, 105
1, 181356, Control_c, 0, 64, 93
1, 181358, Note_on_c, 0, 66, 32
1, 181370, Control_c, 0, 64, 80
1, 181376, Note_on_c, 0, 57, 35
1, 181383, Note_on_c, 0, 50, 29
1, 181385, Control_c, 0, 64, 68
1, 181387, Note_on_c, 0, 61, 28
1, 181400, Control_c, 0, 64, 47
1, 181414, Control_c, 0, 64, 0
1, 181428, Control_c, 0, 64, 28
1, 181443, Control_c, 0, 64, 59
1, 181458, Control_c, 0, 64, 65
1, 181473, Control_c, 0, 64, 70
1, 181488, Control_c, 0, 64, 76
1, 181502, Control_c, 0, 64, 84
1, 181503, Note_off_c, 0, 61, 36
1, 181517, Control_c, 0, 64, 92
1, 181528, Note_off_c, 0, 57, 37
1, 181532, Control_c, 0, 64, 100
1, 181546, Control_c, 0, 64, 109
1, 181561, Control_c, 0, 64, 120
1, 181576, Control_c, 0, 64, 127
1, 181614, Note_off_c, 0, 50, 46
1, 181643, Note_on_c, 0, 74, 68
1, 181651, Note_off_c, 0, 78, 38
1, 181662, Note_on_c, 0, 69, 52
1, 181716, Note_off_c, 0, 66, 41
1, 181736, Note_off_c, 0, 73, 57
1, 181785, Note_off_c, 0, 74, 61
1, 181789, Note_off_c, 0, 69, 61
1, 181936, Note_on_c, 0, 73, 82
1, 181940, Control_c, 0, 64, 113
1, 181955, Control_c, 0, 64, 101
1, 181970, Note_on_c, 0, 66, 54
1, 181970, Control_c, 0, 64, 88
1, 181976, Note_on_c, 0, 61, 49
1, 181977, Note_on_c, 0, 54, 43
1, 181983, Note_on_c, 0, 57, 40
1, 181985, Control_c, 0, 64, 74
1, 181993, Note_on_c, 0, 47, 34
1, 182000, Control_c, 0, 64, 61
1, 182014, Control_c, 0, 64, 0
1, 182074, Control_c, 0, 64, 53
1, 182089, Control_c, 0, 64, 64
1, 182092, Note_off_c, 0, 61, 58
1, 182104, Control_c, 0, 64, 67
1, 182119, Control_c, 0, 64, 71
1, 182133, Control_c, 0, 64, 77
1, 182148, Control_c, 0, 64, 84
1, 182163, Control_c, 0, 64, 91
1, 182167, Note_off_c, 0, 47, 39
1, 182177, Control_c, 0, 64, 98
1, 182184, Note_off_c, 0, 54, 37
1, 182192, Control_c, 0, 64, 104
1, 182207, Control_c, 0, 64, 112
1, 182222, Control_c, 0, 64, 123
1, 182237, Control_c, 0, 64, 127
1, 182240, Note_off_c, 0, 57, 44
1, 182241, Note_on_c, 0, 68, 62
1, 182258, Note_on_c, 0, 63, 52
1, 182383, Note_off_c, 0, 73, 60
1, 182407, Note_off_c, 0, 63, 37
1, 182415, Note_off_c, 0, 66, 52
1, 182450, Note_off_c, 0, 68, 59
1, 182519, Control_c, 0, 64, 118
1, 182522, Note_on_c, 0, 75, 76
1, 182534, Control_c, 0, 64, 102
1, 182556, Control_c, 0, 64, 85
1, 182562, Note_on_c, 0, 68, 63
1, 182571, Control_c, 0, 64, 70
1, 182578, Note_on_c, 0, 63, 42
1, 182580, Note_on_c, 0, 59, 44
1, 182586, Control_c, 0, 64, 43
1, 182593, Note_on_c, 0, 52, 38
1, 182600, Control_c, 0, 64, 0
1, 182645, Control_c, 0, 64, 48
1, 182660, Control_c, 0, 64, 64
1, 182667, Note_off_c, 0, 63, 56
1, 182674, Control_c, 0, 64, 68
1, 182689, Control_c, 0, 64, 74
1, 182704, Control_c, 0, 64, 81
1, 182719, Control_c, 0, 64, 90
1, 182734, Control_c, 0, 64, 98
1, 182737, Note_off_c, 0, 75, 43
1, 182748, Control_c, 0, 64, 108
1, 182763, Control_c, 0, 64, 118
1, 182778, Control_c, 0, 64, 127
1, 182782, Note_off_c, 0, 59, 36
1, 182839, Note_on_c, 0, 66, 52
1, 182873, Note_on_c, 0, 61, 46
1, 182884, Note_off_c, 0, 52, 40
1, 182953, Note_off_c, 0, 66, 60
1, 182962, Note_off_c, 0, 61, 60
1, 183045, Note_off_c, 0, 68, 59
1, 183120, Control_c, 0, 64, 123
1, 183132, Note_on_c, 0, 71, 71
1, 183135, Control_c, 0, 64, 107
1, 183149, Control_c, 0, 64, 94
1, 183152, Note_on_c, 0, 64, 53
1, 183164, Control_c, 0, 64, 81
1, 183171, Note_on_c, 0, 59, 47
1, 183177, Note_on_c, 0, 52, 39
1, 183179, Control_c, 0, 64, 66
1, 183180, Note_on_c, 0, 55, 41
1, 183184, Note_on_c, 0, 45, 36
1, 183194, Control_c, 0, 64, 0
1, 183254, Control_c, 0, 64, 40
1, 183259, Note_off_c, 0, 59, 55
1, 183269, Control_c, 0, 64, 62
1, 183284, Control_c, 0, 64, 68
1, 183305, Control_c, 0, 64, 77
1, 183320, Control_c, 0, 64, 92
1, 183335, Control_c, 0, 64, 114
1, 183347, Note_off_c, 0, 45, 50
1, 183350, Control_c, 0, 64, 127
1, 183371, Note_off_c, 0, 52, 52
1, 183453, Note_off_c, 0, 55, 41
1, 183456, Note_on_c, 0, 66, 49
1, 183469, Note_on_c, 0, 61, 46
1, 183515, Note_off_c, 0, 64, 26
1, 183533, Note_off_c, 0, 71, 59
1, 183568, Note_off_c, 0, 61, 58
1, 183610, Note_off_c, 0, 66, 62
1, 183851, Note_on_c, 0, 78, 56
1, 183872, Note_on_c, 0, 73, 54
1, 183877, Note_on_c, 0, 66, 34
1, 183883, Control_c, 0, 64, 120
1, 183898, Control_c, 0, 64, 110
1, 183903, Note_on_c, 0, 61, 33
1, 183909, Note_on_c, 0, 57, 37
1, 183913, Control_c, 0, 64, 99
1, 183925, Note_on_c, 0, 50, 30
1, 183928, Control_c, 0, 64, 87
1, 183943, Control_c, 0, 64, 74
1, 183957, Control_c, 0, 64, 61
1, 183972, Control_c, 0, 64, 0
1, 184032, Control_c, 0, 64, 46
1, 184054, Control_c, 0, 64, 61
1, 184069, Control_c, 0, 64, 66
1, 184084, Control_c, 0, 64, 71
1, 184091, Note_off_c, 0, 61, 43
1, 184099, Control_c, 0, 64, 77
1, 184114, Control_c, 0, 64, 85
1, 184128, Control_c, 0, 64, 93
1, 184132, Note_off_c, 0, 57, 34
1, 184143, Control_c, 0, 64, 100
1, 184158, Control_c, 0, 64, 107
1, 184173, Control_c, 0, 64, 115
1, 184188, Control_c, 0, 64, 127
1, 184229, Note_off_c, 0, 50, 42
1, 184260, Note_on_c, 0, 74, 51
1, 184285, Note_off_c, 0, 78, 31
1, 184288, Note_on_c, 0, 69, 45
1, 184372, Note_off_c, 0, 73, 39
1, 184393, Note_off_c, 0, 66, 43
1, 184408, Note_off_c, 0, 74, 60
1, 184446, Note_off_c, 0, 69, 56
1, 184623, Note_on_c, 0, 73, 76
1, 184650, Note_on_c, 0, 66, 52
1, 184667, Note_on_c, 0, 61, 44
1, 184676, Control_c, 0, 64, 115
1, 184691, Control_c, 0, 64, 105
1, 184699, Note_on_c, 0, 54, 47
1, 184703, Note_on_c, 0, 57, 41
1, 184706, Control_c, 0, 64, 92
1, 184707, Note_on_c, 0, 47, 38
1, 184721, Control_c, 0, 64, 79
1, 184736, Control_c, 0, 64, 65
1, 184751, Control_c, 0, 64, 0
1, 184782, Note_off_c, 0, 61, 53
1, 184802, Control_c, 0, 64, 27
1, 184817, Control_c, 0, 64, 57
1, 184833, Control_c, 0, 64, 65
1, 184848, Control_c, 0, 64, 71
1, 184863, Control_c, 0, 64, 78
1, 184877, Control_c, 0, 64, 87
1, 184892, Control_c, 0, 64, 96
1, 184902, Note_off_c, 0, 54, 55
1, 184903, Note_off_c, 0, 47, 40
1, 184907, Control_c, 0, 64, 106
1, 184922, Control_c, 0, 64, 118
1, 184937, Control_c, 0, 64, 127
1, 184943, Note_on_c, 0, 68, 58
1, 184956, Note_on_c, 0, 63, 49
1, 184962, Note_off_c, 0, 57, 52
1, 185081, Note_off_c, 0, 73, 60
1, 185094, Note_off_c, 0, 63, 52
1, 185112, Note_off_c, 0, 66, 58
1, 185132, Note_off_c, 0, 68, 60
1, 185212, Note_on_c, 0, 75, 74
1, 185217, Control_c, 0, 64, 114
1, 185232, Control_c, 0, 64, 91
1, 185244, Note_on_c, 0, 68, 67
1, 185246, Note_on_c, 0, 63, 44
1, 185247, Control_c, 0, 64, 75
1, 185253, Note_on_c, 0, 59, 45
1, 185262, Control_c, 0, 64, 61
1, 185267, Note_on_c, 0, 52, 36
1, 185276, Control_c, 0, 64, 0
1, 185306, Control_c, 0, 64, 51
1, 185321, Control_c, 0, 64, 64
1, 185326, Note_off_c, 0, 63, 59
1, 185336, Control_c, 0, 64, 70
1, 185350, Control_c, 0, 64, 76
1, 185365, Control_c, 0, 64, 86
1, 185380, Control_c, 0, 64, 98
1, 185384, Note_off_c, 0, 75, 55
1, 185395, Control_c, 0, 64, 110
1, 185395, Note_off_c, 0, 59, 48
1, 185410, Control_c, 0, 64, 127
1, 185496, Note_on_c, 0, 66, 57
1, 185499, Note_off_c, 0, 52, 40
1, 185517, Note_on_c, 0, 61, 56
1, 185608, Note_off_c, 0, 66, 60
1, 185613, Note_off_c, 0, 61, 61
1, 185672, Note_off_c, 0, 68, 57
1, 185767, Note_on_c, 0, 71, 73
1, 185779, Note_on_c, 0, 64, 57
1, 185788, Control_c, 0, 64, 112
1, 185791, Note_on_c, 0, 59, 55
1, 185803, Control_c, 0, 64, 92
1, 185806, Note_on_c, 0, 45, 42
1, 185806, Note_on_c, 0, 52, 43
1, 185808, Note_on_c, 0, 55, 46
1, 185818, Control_c, 0, 64, 75
1, 185833, Control_c, 0, 64, 49
1, 185848, Control_c, 0, 64, 0
1, 185867, Note_off_c, 0, 59, 58
1, 185907, Control_c, 0, 64, 33
1, 185922, Control_c, 0, 64, 63
1, 185937, Control_c, 0, 64, 72
1, 185952, Control_c, 0, 64, 83
1, 185957, Note_off_c, 0, 45, 51
1, 185966, Control_c, 0, 64, 97
1, 185981, Control_c, 0, 64, 120
1, 185985, Note_off_c, 0, 52, 56
1, 185996, Control_c, 0, 64, 127
1, 186027, Note_off_c, 0, 55, 59
1, 186042, Note_on_c, 0, 66, 61
1, 186049, Note_on_c, 0, 61, 52
1, 186089, Note_off_c, 0, 71, 57
1, 186133, Note_off_c, 0, 64, 35
1, 186144, Note_off_c, 0, 61, 52
1, 186224, Note_off_c, 0, 66, 56
1, 186329, Control_c, 0, 64, 126
1, 186334, Note_on_c, 0, 73, 69
1, 186343, Control_c, 0, 64, 93
1, 186356, Note_on_c, 0, 66, 58
1, 186358, Control_c, 0, 64, 72
1, 186372, Note_on_c, 0, 61, 41
1, 186373, Control_c, 0, 64, 40
1, 186376, Note_on_c, 0, 57, 34
1, 186388, Control_c, 0, 64, 0
1, 186393, Note_on_c, 0, 50, 29
1, 186419, Control_c, 0, 64, 49
1, 186434, Control_c, 0, 64, 64
1, 186438, Note_off_c, 0, 61, 56
1, 186448, Control_c, 0, 64, 71
1, 186463, Control_c, 0, 64, 82
1, 186478, Control_c, 0, 64, 95
1, 186488, Note_off_c, 0, 57, 38
1, 186493, Control_c, 0, 64, 111
1, 186508, Control_c, 0, 64, 127
1, 186510, Note_off_c, 0, 73, 56
1, 186592, Note_off_c, 0, 50, 45
1, 186637, Note_on_c, 0, 64, 46
1, 186659, Note_on_c, 0, 59, 47
1, 186694, Note_off_c, 0, 64, 58
1, 186758, Note_off_c, 0, 59, 52
1, 186836, Note_off_c, 0, 66, 37
1, 186953, Control_c, 0, 64, 117
1, 186963, Note_on_c, 0, 69, 56
1, 186967, Control_c, 0, 64, 110
1, 186982, Control_c, 0, 64, 103
1, 186984, Note_on_c, 0, 62, 42
1, 186997, Control_c, 0, 64, 96
1, 187005, Note_on_c, 0, 57, 29
1, 187012, Control_c, 0, 64, 86
1, 187027, Control_c, 0, 64, 73
1, 187049, Control_c, 0, 64, 61
1, 187051, Note_on_c, 0, 50, 31
1, 187063, Note_on_c, 0, 53, 29
1, 187064, Control_c, 0, 64, 0
1, 187070, Note_on_c, 0, 43, 20
1, 187123, Control_c, 0, 64, 53
1, 187138, Control_c, 0, 64, 63
1, 187153, Control_c, 0, 64, 66
1, 187166, Note_off_c, 0, 57, 47
1, 187167, Control_c, 0, 64, 70
1, 187182, Control_c, 0, 64, 75
1, 187197, Control_c, 0, 64, 80
1, 187212, Control_c, 0, 64, 86
1, 187228, Control_c, 0, 64, 90
1, 187243, Control_c, 0, 64, 93
1, 187258, Control_c, 0, 64, 95
1, 187263, Note_off_c, 0, 43, 39
1, 187272, Control_c, 0, 64, 97
1, 187287, Control_c, 0, 64, 98
1, 187290, Note_off_c, 0, 50, 38
1, 187302, Control_c, 0, 64, 99
1, 187317, Control_c, 0, 64, 100
1, 187332, Control_c, 0, 64, 100
1, 187376, Control_c, 0, 64, 101
1, 187390, Note_on_c, 0, 64, 37
1, 187405, Note_on_c, 0, 59, 35
1, 187450, Control_c, 0, 67, 124
1, 187465, Control_c, 0, 67, 117
1, 187467, Note_off_c, 0, 69, 38
1, 187479, Control_c, 0, 67, 109
1, 187482, Note_off_c, 0, 53, 27
1, 187494, Control_c, 0, 67, 100
1, 187509, Control_c, 0, 67, 88
1, 187511, Note_off_c, 0, 62, 32
1, 187524, Control_c, 0, 67, 79
1, 187539, Control_c, 0, 67, 73
1, 187553, Control_c, 0, 67, 69
1, 187568, Control_c, 0, 67, 68
1, 187584, Note_off_c, 0, 59, 43
1, 187627, Control_c, 0, 67, 69
1, 187638, Note_off_c, 0, 64, 27
1, 187642, Control_c, 0, 67, 70
1, 187657, Control_c, 0, 67, 71
1, 187672, Control_c, 0, 67, 71
1, 187687, Control_c, 0, 67, 72
1, 187702, Control_c, 0, 64, 100
1, 187702, Control_c, 0, 67, 72
1, 187717, Control_c, 0, 64, 100
1, 187717, Control_c, 0, 67, 73
1, 187732, Control_c, 0, 64, 99
1, 187732, Control_c, 0, 67, 73
1, 187746, Control_c, 0, 64, 98
1, 187776, Control_c, 0, 64, 97
1, 187797, Control_c, 0, 64, 97
1, 187812, Control_c, 0, 64, 96
1, 187812, Control_c, 0, 67, 74
1, 187827, Control_c, 0, 64, 94
1, 187842, Note_on_c, 0, 71, 51
1, 187842, Control_c, 0, 64, 93
1, 187857, Control_c, 0, 64, 91
1, 187863, Note_on_c, 0, 64, 34
1, 187872, Control_c, 0, 64, 90
1, 187887, Control_c, 0, 64, 88
1, 187902, Control_c, 0, 64, 87
1, 187917, Control_c, 0, 64, 85
1, 187920, Note_on_c, 0, 55, 31
1, 187925, Note_on_c, 0, 48, 27
1, 187928, Note_on_c, 0, 59, 23
1, 187931, Control_c, 0, 64, 82
1, 187946, Control_c, 0, 64, 77
1, 187961, Control_c, 0, 64, 71
1, 187976, Control_c, 0, 64, 63
1, 187991, Control_c, 0, 64, 29
1, 187991, Control_c, 0, 67, 74
1, 188005, Control_c, 0, 64, 0
1, 188051, Control_c, 0, 64, 43
1, 188066, Control_c, 0, 64, 56
1, 188081, Control_c, 0, 64, 63
1, 188095, Control_c, 0, 64, 65
1, 188110, Control_c, 0, 64, 68
1, 188125, Control_c, 0, 64, 72
1, 188140, Note_off_c, 0, 71, 36
1, 188140, Control_c, 0, 64, 75
1, 188153, Control_c, 0, 64, 79
1, 188153, Control_c, 0, 67, 74
1, 188167, Note_off_c, 0, 59, 41
1, 188167, Control_c, 0, 64, 83
1, 188182, Control_c, 0, 64, 85
1, 188197, Control_c, 0, 64, 86
1, 188212, Control_c, 0, 64, 87
1, 188227, Control_c, 0, 64, 87
1, 188241, Control_c, 0, 64, 88
1, 188327, Note_off_c, 0, 55, 39
1, 188449, Control_c, 0, 64, 87
1, 188560, Control_c, 0, 64, 87
1, 188575, Control_c, 0, 67, 73
1, 188618, Note_on_c, 0, 60, 56
1, 188692, Note_off_c, 0, 64, 43
1, 188704, Note_off_c, 0, 48, 27
1, 188752, Control_c, 0, 67, 74
1, 188767, Control_c, 0, 67, 74
1, 188782, Control_c, 0, 67, 75
1, 188797, Control_c, 0, 67, 77
1, 188812, Control_c, 0, 67, 80
1, 188828, Control_c, 0, 67, 83
1, 188842, Control_c, 0, 64, 86
1, 188842, Control_c, 0, 67, 94
1, 188857, Control_c, 0, 67, 111
1, 188872, Control_c, 0, 67, 127
1, 188916, Control_c, 0, 64, 86
1, 188961, Control_c, 0, 64, 85
1, 189005, Control_c, 0, 64, 85
1, 189034, Control_c, 0, 64, 84
1, 189079, Control_c, 0, 64, 84
1, 189124, Control_c, 0, 64, 83
1, 189183, Control_c, 0, 64, 83
1, 189257, Control_c, 0, 64, 82
1, 189324, Control_c, 0, 64, 82
1, 189383, Control_c, 0, 64, 81
1, 189516, Control_c, 0, 64, 81
1, 189575, Control_c, 0, 64, 80
1, 189603, Note_on_c, 0, 68, 35
1, 189605, Control_c, 0, 64, 80
1, 189621, Control_c, 0, 64, 79
1, 189623, Note_on_c, 0, 58, 24
1, 189623, Note_on_c, 0, 64, 34
1, 189651, Control_c, 0, 64, 79
1, 189657, Note_on_c, 0, 42, 26
1, 189657, Note_on_c, 0, 49, 24
1, 189666, Control_c, 0, 64, 78
1, 189681, Control_c, 0, 64, 77
1, 189696, Control_c, 0, 64, 75
1, 189711, Control_c, 0, 64, 74
1, 189726, Control_c, 0, 64, 71
1, 189740, Control_c, 0, 64, 68
1, 189755, Control_c, 0, 64, 64
1, 189770, Control_c, 0, 64, 61
1, 189785, Control_c, 0, 64, 51
1, 189799, Control_c, 0, 64, 36
1, 189814, Control_c, 0, 64, 0
1, 190637, Control_c, 0, 64, 44
1, 190652, Control_c, 0, 64, 55
1, 190667, Control_c, 0, 64, 61
1, 190682, Control_c, 0, 64, 64
1, 190696, Control_c, 0, 64, 66
1, 190711, Control_c, 0, 64, 68
1, 190726, Control_c, 0, 64, 70
1, 190741, Control_c, 0, 64, 73
1, 190756, Control_c, 0, 64, 76
1, 190770, Control_c, 0, 64, 80
1, 190793, Control_c, 0, 64, 85
1, 190808, Control_c, 0, 64, 90
1, 190822, Control_c, 0, 64, 94
1, 190837, Control_c, 0, 64, 98
1, 190852, Control_c, 0, 64, 101
1, 190867, Control_c, 0, 64, 102
1, 190882, Control_c, 0, 64, 104
1, 190896, Control_c, 0, 64, 105
1, 190911, Control_c, 0, 64, 105
1, 190926, Control_c, 0, 64, 106
1, 191079, Note_off_c, 0, 58, 41
1, 191133, Control_c, 0, 64, 105
1, 191148, Control_c, 0, 64, 105
1, 191163, Control_c, 0, 64, 104
1, 191167, Note_off_c, 0, 68, 19
1, 191178, Control_c, 0, 64, 104
1, 191193, Control_c, 0, 64, 103
1, 191223, Control_c, 0, 64, 103
1, 191237, Control_c, 0, 64, 102
1, 191250, Note_off_c, 0, 49, 39
1, 191252, Control_c, 0, 64, 102
1, 191297, Control_c, 0, 64, 101
1, 191327, Control_c, 0, 64, 101
1, 191357, Control_c, 0, 64, 100
1, 191371, Control_c, 0, 64, 100
1, 191401, Control_c, 0, 64, 99
1, 191416, Control_c, 0, 64, 99
1, 191418, Note_off_c, 0, 42, 41
1, 191431, Control_c, 0, 64, 98
1, 191445, Control_c, 0, 64, 98
1, 191460, Control_c, 0, 64, 97
1, 191475, Control_c, 0, 64, 97
1, 191490, Control_c, 0, 64, 96
1, 191505, Control_c, 0, 64, 96
1, 191519, Control_c, 0, 64, 95
1, 191541, Control_c, 0, 64, 95
1, 191556, Control_c, 0, 64, 94
1, 191571, Control_c, 0, 64, 94
1, 191586, Control_c, 0, 64, 93
1, 191601, Control_c, 0, 64, 92
1, 191616, Control_c, 0, 64, 92
1, 191645, Control_c, 0, 64, 91
1, 191660, Control_c, 0, 64, 90
1, 191675, Control_c, 0, 64, 90
1, 191690, Control_c, 0, 64, 89
1, 191705, Control_c, 0, 64, 89
1, 191719, Control_c, 0, 64, 88
1, 191734, Control_c, 0, 64, 88
1, 191749, Control_c, 0, 64, 87
1, 191763, Control_c, 0, 64, 87
1, 191778, Control_c, 0, 64, 86
1, 191793, Control_c, 0, 64, 86
1, 191808, Control_c, 0, 64, 85
1, 191816, Note_off_c, 0, 64, 17
1, 191823, Control_c, 0, 64, 85
1, 191837, Control_c, 0, 64, 84
1, 191852, Control_c, 0, 64, 84
1, 191867, Control_c, 0, 64, 83
1, 191882, Control_c, 0, 64, 83
1, 191911, Control_c, 0, 64, 82
1, 191926, Control_c, 0, 64, 81
1, 191941, Control_c, 0, 64, 81
1, 191955, Control_c, 0, 64, 79
1, 191970, Control_c, 0, 64, 77
1, 191985, Control_c, 0, 64, 74
1, 192000, Control_c, 0, 64, 70
1, 192015, Control_c, 0, 64, 66
1, 192030, Control_c, 0, 64, 62
1, 192045, Control_c, 0, 64, 58
1, 192060, Control_c, 0, 64, 57
1, 192075, Control_c, 0, 64, 58
1, 192090, Control_c, 0, 64, 60
1, 192105, Control_c, 0, 64, 61
1, 192120, Control_c, 0, 64, 63
1, 192134, Control_c, 0, 64, 64
1, 192149, Control_c, 0, 64, 66
1, 192164, Control_c, 0, 64, 68
1, 192179, Control_c, 0, 64, 71
1, 192193, Control_c, 0, 64, 74
1, 192208, Control_c, 0, 64, 79
1, 192223, Control_c, 0, 64, 87
1, 192238, Control_c, 0, 64, 96
1, 192253, Control_c, 0, 64, 108
1, 192267, Control_c, 0, 64, 127
1, 192340, Note_off_c, 0, 60, 61
1, 192507, Note_on_c, 0, 35, 29
1, 192600, Note_on_c, 0, 47, 34
1, 192620, Note_off_c, 0, 35, 0
1, 192647, Poly_aftertouch_c, 0, 35, 0
1, 192680, Note_off_c, 0, 47, 58
1, 192743, Note_on_c, 0, 59, 36
1, 192744, Note_on_c, 0, 57, 36
1, 192818, Note_off_c, 0, 57, 53
1, 192835, Note_on_c, 0, 64, 33
1, 192857, Note_off_c, 0, 59, 37
1, 192859, Note_on_c, 0, 66, 54
1, 192905, Note_off_c, 0, 64, 42
1, 192933, Note_off_c, 0, 66, 62
1, 192950, Note_on_c, 0, 69, 47
1, 192954, Note_on_c, 0, 71, 41
1, 192962, Note_on_c, 0, 61, 51
1, 192975, Note_off_c, 0, 69, 59
1, 192979, Note_off_c, 0, 71, 59
1, 193059, Note_on_c, 0, 71, 60
1, 193068, Note_on_c, 0, 69, 49
1, 193096, Note_off_c, 0, 69, 63
1, 193113, Control_c, 0, 67, 125
1, 193125, Note_on_c, 0, 76, 53
1, 193128, Control_c, 0, 67, 117
1, 193129, Note_off_c, 0, 71, 62
1, 193142, Control_c, 0, 67, 106
1, 193145, Note_off_c, 0, 61, 58
1, 193148, Note_on_c, 0, 78, 51
1, 193156, Note_off_c, 0, 76, 61
1, 193157, Control_c, 0, 67, 93
1, 193163, Note_on_c, 0, 81, 65
1, 193172, Note_off_c, 0, 78, 65
1, 193172, Control_c, 0, 67, 79
1, 193176, Note_on_c, 0, 83, 54
1, 193184, Note_on_c, 0, 73, 68
1, 193187, Control_c, 0, 67, 65
1, 193193, Note_off_c, 0, 81, 61
1, 193202, Note_off_c, 0, 83, 65
1, 193202, Control_c, 0, 67, 53
1, 193217, Control_c, 0, 67, 44
1, 193232, Control_c, 0, 67, 38
1, 193235, Note_off_c, 0, 73, 63
1, 193246, Control_c, 0, 67, 34
1, 193261, Control_c, 0, 67, 31
1, 193276, Control_c, 0, 67, 29
1, 193291, Control_c, 0, 67, 28
1, 193291, Note_on_c, 0, 83, 46
1, 193296, Note_on_c, 0, 81, 43
1, 193306, Control_c, 0, 67, 28
1, 193321, Note_off_c, 0, 81, 58
1, 193323, Note_on_c, 0, 88, 63
1, 193336, Note_on_c, 0, 90, 71
1, 193357, Note_off_c, 0, 88, 62
1, 193357, Note_off_c, 0, 83, 42
1, 193373, Note_on_c, 0, 93, 52
1, 193378, Note_on_c, 0, 95, 57
1, 193388, Note_off_c, 0, 90, 62
1, 193395, Note_off_c, 0, 93, 61
1, 193400, Note_off_c, 0, 95, 65
1, 193454, Note_on_c, 0, 95, 74
1, 193458, Note_on_c, 0, 85, 81
1, 193463, Note_on_c, 0, 93, 80
1, 193465, Note_on_c, 0, 73, 70
1, 193493, Note_off_c, 0, 73, 66
1, 193493, Note_off_c, 0, 85, 52
1, 193511, Note_off_c, 0, 95, 65
1, 193512, Note_on_c, 0, 90, 68
1, 193538, Note_on_c, 0, 88, 65
1, 193539, Note_off_c, 0, 93, 60
1, 193572, Control_c, 0, 67, 28
1, 193579, Note_off_c, 0, 90, 64
1, 193583, Note_off_c, 0, 88, 59
1, 193603, Control_c, 0, 67, 29
1, 193623, Note_on_c, 0, 81, 51
1, 193632, Control_c, 0, 67, 29
1, 193643, Note_off_c, 0, 81, 58
1, 193721, Control_c, 0, 67, 30
1, 193724, Note_on_c, 0, 81, 58
1, 193760, Note_on_c, 0, 76, 40
1, 193765, Control_c, 0, 67, 30
1, 193829, Note_off_c, 0, 76, 39
1, 193849, Note_off_c, 0, 81, 29
1, 193866, Note_on_c, 0, 71, 10
1, 193872, Note_on_c, 0, 69, 13
1, 193932, Note_off_c, 0, 71, 0
1, 193935, Note_off_c, 0, 69, 0
1, 193936, Control_c, 0, 67, 31
1, 193950, Note_on_c, 0, 87, 87
1, 193953, Note_on_c, 0, 71, 35
1, 193953, Note_on_c, 0, 69, 39
1, 193964, Note_on_c, 0, 75, 58
1, 194002, Note_off_c, 0, 87, 63
1, 194005, Note_off_c, 0, 69, 62
1, 194016, Note_off_c, 0, 71, 59
1, 194017, Note_on_c, 0, 76, 31
1, 194021, Note_on_c, 0, 78, 58
1, 194038, Note_off_c, 0, 75, 51
1, 194063, Note_off_c, 0, 76, 54
1, 194077, Note_on_c, 0, 83, 54
1, 194077, Note_off_c, 0, 78, 61
1, 194093, Note_on_c, 0, 81, 34
1, 194105, Note_off_c, 0, 83, 67
1, 194125, Note_off_c, 0, 81, 52
1, 194191, Note_on_c, 0, 83, 36
1, 194194, Note_on_c, 0, 81, 65
1, 194239, Note_on_c, 0, 88, 62
1, 194239, Note_off_c, 0, 81, 51
1, 194254, Note_off_c, 0, 83, 58
1, 194259, Note_on_c, 0, 90, 62
1, 194305, Note_off_c, 0, 88, 59
1, 194311, Note_on_c, 0, 95, 65
1, 194312, Note_on_c, 0, 93, 59
1, 194325, Note_off_c, 0, 90, 64
1, 194343, Note_off_c, 0, 93, 66
1, 194349, Note_off_c, 0, 95, 63
1, 194411, Control_c, 0, 67, 31
1, 194418, Note_on_c, 0, 95, 63
1, 194419, Note_on_c, 0, 85, 79
1, 194425, Note_on_c, 0, 93, 75
1, 194427, Note_on_c, 0, 73, 73
1, 194458, Note_off_c, 0, 73, 64
1, 194469, Note_off_c, 0, 85, 58
1, 194470, Control_c, 0, 67, 32
1, 194486, Note_off_c, 0, 95, 63
1, 194498, Note_on_c, 0, 88, 65
1, 194500, Note_on_c, 0, 90, 60
1, 194511, Note_off_c, 0, 93, 58
1, 194551, Note_off_c, 0, 90, 62
1, 194561, Note_off_c, 0, 88, 63
1, 194591, Note_on_c, 0, 81, 54
1, 194612, Note_off_c, 0, 81, 61
1, 194665, Note_on_c, 0, 83, 43
1, 194687, Note_on_c, 0, 81, 64
1, 194767, Note_off_c, 0, 83, 40
1, 194802, Note_on_c, 0, 69, 49
1, 194803, Note_on_c, 0, 71, 41
1, 194829, Note_off_c, 0, 69, 56
1, 194831, Note_off_c, 0, 71, 57
1, 194861, Note_off_c, 0, 81, 53
1, 194901, Note_on_c, 0, 90, 90
1, 194907, Note_on_c, 0, 69, 62
1, 194907, Control_c, 0, 67, 32
1, 194910, Note_on_c, 0, 78, 74
1, 194918, Note_on_c, 0, 71, 50
1, 194943, Note_off_c, 0, 69, 65
1, 194949, Note_off_c, 0, 71, 64
1, 194954, Note_off_c, 0, 90, 64
1, 194964, Note_on_c, 0, 76, 49
1, 194995, Note_off_c, 0, 76, 64
1, 195002, Note_off_c, 0, 78, 64
1, 195005, Note_on_c, 0, 83, 62
1, 195020, Note_on_c, 0, 81, 41
1, 195033, Note_off_c, 0, 83, 68
1, 195048, Note_off_c, 0, 81, 54
1, 195126, Note_on_c, 0, 81, 53
1, 195130, Note_on_c, 0, 83, 59
1, 195132, Note_on_c, 0, 87, 85
1, 195138, Note_on_c, 0, 75, 72
1, 195192, Note_off_c, 0, 81, 55
1, 195194, Note_on_c, 0, 88, 57
1, 195205, Note_on_c, 0, 90, 64
1, 195208, Note_off_c, 0, 87, 62
1, 195209, Note_off_c, 0, 83, 48
1, 195236, Note_off_c, 0, 75, 40
1, 195250, Note_off_c, 0, 88, 56
1, 195261, Note_on_c, 0, 95, 64
1, 195269, Note_on_c, 0, 93, 54
1, 195286, Note_off_c, 0, 90, 64
1, 195302, Note_off_c, 0, 93, 63
1, 195305, Note_off_c, 0, 95, 63
1, 195369, Note_on_c, 0, 95, 73
1, 195371, Note_on_c, 0, 85, 83
1, 195377, Note_on_c, 0, 73, 74
1, 195381, Note_on_c, 0, 93, 77
1, 195402, Note_off_c, 0, 85, 60
1, 195408, Note_off_c, 0, 73, 62
1, 195425, Note_on_c, 0, 90, 62
1, 195444, Note_off_c, 0, 95, 63
1, 195449, Note_on_c, 0, 88, 65
1, 195464, Note_off_c, 0, 93, 62
1, 195497, Note_off_c, 0, 90, 64
1, 195504, Note_off_c, 0, 88, 63
1, 195524, Note_on_c, 0, 81, 63
1, 195549, Note_off_c, 0, 81, 67
1, 195595, Note_on_c, 0, 83, 52
1, 195622, Note_on_c, 0, 81, 63
1, 195655, Note_on_c, 0, 76, 51
1, 195689, Note_off_c, 0, 83, 49
1, 195714, Note_off_c, 0, 76, 45
1, 195736, Note_on_c, 0, 71, 54
1, 195746, Note_on_c, 0, 69, 60
1, 195768, Note_off_c, 0, 69, 64
1, 195771, Note_off_c, 0, 71, 58
1, 195817, Note_off_c, 0, 81, 57
1, 195835, Note_on_c, 0, 80, 78
1, 195842, Note_on_c, 0, 68, 70
1, 195848, Note_on_c, 0, 71, 64
1, 195855, Note_on_c, 0, 69, 60
1, 195855, Note_on_c, 0, 78, 51
1, 195877, Note_off_c, 0, 78, 60
1, 195880, Note_off_c, 0, 68, 58
1, 195884, Note_off_c, 0, 80, 61
1, 195911, Note_off_c, 0, 69, 61
1, 195923, Note_off_c, 0, 71, 62
1, 195926, Note_on_c, 0, 76, 42
1, 195953, Note_on_c, 0, 78, 63
1, 195977, Note_off_c, 0, 76, 60
1, 195989, Note_off_c, 0, 78, 62
1, 195990, Note_on_c, 0, 83, 63
1, 195991, Note_on_c, 0, 81, 55
1, 196018, Note_off_c, 0, 83, 64
1, 196031, Note_off_c, 0, 81, 65
1, 196106, Note_on_c, 0, 83, 59
1, 196107, Note_on_c, 0, 81, 61
1, 196153, Note_off_c, 0, 81, 47
1, 196162, Note_on_c, 0, 88, 63
1, 196174, Note_on_c, 0, 90, 67
1, 196181, Note_off_c, 0, 83, 61
1, 196221, Note_off_c, 0, 88, 60
1, 196224, Note_on_c, 0, 95, 64
1, 196227, Note_on_c, 0, 93, 58
1, 196238, Note_off_c, 0, 90, 64
1, 196258, Note_off_c, 0, 93, 67
1, 196261, Note_off_c, 0, 95, 64
1, 196317, Note_on_c, 0, 80, 83
1, 196328, Note_on_c, 0, 68, 72
1, 196332, Note_on_c, 0, 95, 62
1, 196336, Note_on_c, 0, 93, 71
1, 196387, Note_off_c, 0, 80, 58
1, 196397, Note_on_c, 0, 90, 62
1, 196399, Note_off_c, 0, 95, 61
1, 196412, Note_on_c, 0, 88, 61
1, 196422, Note_off_c, 0, 93, 60
1, 196457, Note_off_c, 0, 90, 64
1, 196459, Note_off_c, 0, 88, 61
1, 196490, Note_on_c, 0, 81, 61
1, 196512, Note_off_c, 0, 81, 65
1, 196576, Note_on_c, 0, 83, 35
1, 196585, Note_on_c, 0, 81, 63
1, 196627, Note_off_c, 0, 83, 58
1, 196637, Note_on_c, 0, 76, 41
1, 196660, Note_off_c, 0, 68, 60
1, 196716, Note_on_c, 0, 69, 35
1, 196723, Note_off_c, 0, 76, 35
1, 196724, Note_on_c, 0, 71, 22
1, 196749, Note_off_c, 0, 69, 53
1, 196757, Note_off_c, 0, 81, 57
1, 196761, Note_off_c, 0, 71, 52
1, 196797, Control_c, 0, 67, 34
1, 196812, Note_on_c, 0, 78, 71
1, 196813, Control_c, 0, 67, 36
1, 196818, Note_on_c, 0, 66, 58
1, 196828, Control_c, 0, 67, 37
1, 196843, Note_on_c, 0, 71, 46
1, 196843, Control_c, 0, 67, 40
1, 196849, Note_on_c, 0, 69, 40
1, 196850, Note_off_c, 0, 78, 51
1, 196857, Control_c, 0, 67, 45
1, 196862, Note_off_c, 0, 66, 57
1, 196872, Control_c, 0, 67, 60
1, 196877, Note_off_c, 0, 69, 57
1, 196880, Note_on_c, 0, 76, 52
1, 196887, Control_c, 0, 67, 83
1, 196895, Note_on_c, 0, 78, 42
1, 196896, Note_off_c, 0, 71, 61
1, 196902, Control_c, 0, 67, 108
1, 196917, Control_c, 0, 67, 124
1, 196931, Control_c, 0, 67, 127
1, 196953, Note_off_c, 0, 76, 60
1, 196962, Note_on_c, 0, 81, 61
1, 196964, Note_off_c, 0, 78, 63
1, 196967, Note_on_c, 0, 83, 62
1, 196989, Note_off_c, 0, 81, 64
1, 196996, Note_off_c, 0, 83, 66
1, 197077, Note_on_c, 0, 83, 67
1, 197082, Note_on_c, 0, 81, 51
1, 197131, Note_on_c, 0, 88, 64
1, 197136, Note_off_c, 0, 81, 54
1, 197150, Note_on_c, 0, 90, 67
1, 197160, Note_off_c, 0, 83, 61
1, 197193, Note_off_c, 0, 88, 63
1, 197203, Note_on_c, 0, 93, 56
1, 197203, Note_on_c, 0, 95, 65
1, 197211, Note_off_c, 0, 90, 65
1, 197224, Note_off_c, 0, 93, 64
1, 197230, Note_off_c, 0, 95, 68
1, 197272, Note_on_c, 0, 95, 77
1, 197272, Control_c, 0, 64, 126
1, 197285, Note_on_c, 0, 93, 87
1, 197286, Note_on_c, 0, 73, 68
1, 197287, Control_c, 0, 64, 95
1, 197292, Note_on_c, 0, 61, 63
1, 197301, Control_c, 0, 64, 83
1, 197316, Control_c, 0, 64, 82
1, 197331, Control_c, 0, 64, 85
1, 197339, Note_on_c, 0, 90, 64
1, 197345, Note_off_c, 0, 95, 65
1, 197346, Control_c, 0, 64, 92
1, 197360, Note_on_c, 0, 88, 62
1, 197361, Control_c, 0, 64, 103
1, 197366, Note_off_c, 0, 61, 56
1, 197369, Note_off_c, 0, 73, 54
1, 197370, Note_off_c, 0, 93, 61
1, 197375, Control_c, 0, 64, 127
1, 197399, Note_off_c, 0, 90, 65
1, 197411, Note_off_c, 0, 88, 62
1, 197429, Note_on_c, 0, 81, 65
1, 197455, Note_off_c, 0, 81, 65
1, 197520, Note_on_c, 0, 83, 58
1, 197542, Note_on_c, 0, 81, 64
1, 197588, Note_on_c, 0, 76, 49
1, 197594, Note_off_c, 0, 83, 54
1, 197671, Note_on_c, 0, 69, 55
1, 197671, Poly_aftertouch_c, 0, 78, 127
1, 197672, Note_on_c, 0, 71, 50
1, 197673, Note_off_c, 0, 76, 37
1, 197702, Note_off_c, 0, 69, 58
1, 197702, Note_off_c, 0, 71, 53
1, 197707, Poly_aftertouch_c, 0, 78, 0
1, 197736, Note_off_c, 0, 81, 59
1, 197778, Note_on_c, 0, 75, 76
1, 197789, Note_on_c, 0, 69, 51
1, 197789, Note_on_c, 0, 63, 61
1, 197791, Note_on_c, 0, 71, 48
1, 197823, Note_off_c, 0, 63, 62
1, 197828, Note_off_c, 0, 75, 56
1, 197848, Note_off_c, 0, 69, 59
1, 197855, Note_on_c, 0, 76, 47
1, 197856, Note_off_c, 0, 71, 61
1, 197865, Note_on_c, 0, 78, 56
1, 197906, Note_off_c, 0, 76, 60
1, 197929, Note_off_c, 0, 78, 60
1, 197930, Note_on_c, 0, 83, 57
1, 197936, Note_on_c, 0, 81, 48
1, 197958, Note_off_c, 0, 81, 60
1, 197961, Note_off_c, 0, 83, 65
1, 198037, Note_on_c, 0, 81, 50
1, 198040, Note_on_c, 0, 83, 68
1, 198103, Note_on_c, 0, 88, 61
1, 198116, Note_off_c, 0, 81, 58
1, 198117, Note_off_c, 0, 83, 58
1, 198124, Note_on_c, 0, 90, 66
1, 198165, Note_off_c, 0, 88, 60
1, 198182, Note_on_c, 0, 95, 45
1, 198186, Note_off_c, 0, 90, 64
1, 198201, Note_on_c, 0, 93, 29
1, 198207, Note_off_c, 0, 95, 59
1, 198238, Note_off_c, 0, 93, 52
1, 198281, Note_on_c, 0, 73, 71
1, 198286, Note_on_c, 0, 95, 69
1, 198291, Note_on_c, 0, 93, 63
1, 198292, Note_on_c, 0, 61, 58
1, 198335, Note_off_c, 0, 61, 59
1, 198346, Note_off_c, 0, 73, 60
1, 198350, Note_off_c, 0, 95, 62
1, 198359, Note_on_c, 0, 90, 52
1, 198365, Note_on_c, 0, 88, 63
1, 198368, Note_off_c, 0, 93, 61
1, 198400, Note_off_c, 0, 90, 64
1, 198409, Note_off_c, 0, 88, 60
1, 198441, Note_on_c, 0, 81, 56
1, 198460, Note_off_c, 0, 81, 62
1, 198527, Note_on_c, 0, 83, 45
1, 198530, Note_on_c, 0, 81, 65
1, 198576, Note_off_c, 0, 83, 57
1, 198577, Note_on_c, 0, 76, 45
1, 198620, Note_on_c, 0, 78, 19
1, 198648, Note_on_c, 0, 69, 56
1, 198656, Note_off_c, 0, 76, 47
1, 198657, Note_on_c, 0, 71, 51
1, 198661, Note_off_c, 0, 78, 52
1, 198681, Note_off_c, 0, 71, 59
1, 198684, Note_off_c, 0, 69, 62
1, 198705, Note_off_c, 0, 81, 54
1, 198756, Note_on_c, 0, 78, 69
1, 198764, Note_on_c, 0, 66, 63
1, 198769, Note_on_c, 0, 69, 53
1, 198782, Note_on_c, 0, 71, 36
1, 198797, Note_off_c, 0, 69, 65
1, 198799, Note_on_c, 0, 76, 53
1, 198800, Note_off_c, 0, 66, 61
1, 198809, Note_off_c, 0, 71, 60
1, 198846, Note_off_c, 0, 76, 59
1, 198862, Note_off_c, 0, 78, 62
1, 198867, Note_on_c, 0, 81, 50
1, 198869, Note_on_c, 0, 83, 56
1, 198898, Note_off_c, 0, 81, 64
1, 198901, Note_off_c, 0, 83, 64
1, 198980, Note_on_c, 0, 75, 67
1, 198984, Note_on_c, 0, 63, 67
1, 198994, Note_on_c, 0, 83, 61
1, 199002, Note_on_c, 0, 81, 37
1, 199026, Note_off_c, 0, 75, 50
1, 199050, Note_off_c, 0, 81, 49
1, 199053, Note_off_c, 0, 63, 56
1, 199054, Note_on_c, 0, 88, 54
1, 199066, Note_on_c, 0, 90, 62
1, 199069, Note_off_c, 0, 83, 57
1, 199102, Note_off_c, 0, 88, 58
1, 199122, Note_on_c, 0, 93, 54
1, 199128, Note_off_c, 0, 90, 63
1, 199132, Note_on_c, 0, 95, 45
1, 199146, Note_off_c, 0, 93, 61
1, 199158, Note_off_c, 0, 95, 58
1, 199215, Note_on_c, 0, 73, 64
1, 199219, Note_on_c, 0, 61, 61
1, 199226, Note_on_c, 0, 93, 73
1, 199229, Note_on_c, 0, 95, 62
1, 199265, Note_on_c, 0, 90, 61
1, 199265, Note_off_c, 0, 95, 57
1, 199281, Note_on_c, 0, 88, 60
1, 199292, Note_off_c, 0, 93, 62
1, 199304, Note_off_c, 0, 73, 52
1, 199323, Note_off_c, 0, 90, 64
1, 199330, Note_off_c, 0, 88, 61
1, 199354, Note_on_c, 0, 81, 58
1, 199372, Note_off_c, 0, 81, 64
1, 199430, Note_on_c, 0, 83, 37
1, 199441, Note_on_c, 0, 81, 65
1, 199450, Note_off_c, 0, 61, 49
1, 199493, Note_on_c, 0, 76, 45
1, 199506, Note_off_c, 0, 83, 57
1, 199572, Note_on_c, 0, 69, 50
1, 199581, Note_on_c, 0, 71, 44
1, 199605, Note_off_c, 0, 69, 54
1, 199607, Note_off_c, 0, 71, 58
1, 199617, Note_off_c, 0, 76, 28
1, 199643, Note_off_c, 0, 81, 59
1, 199683, Note_on_c, 0, 68, 67
1, 199686, Note_on_c, 0, 69, 55
1, 199688, Note_on_c, 0, 56, 62
1, 199688, Note_on_c, 0, 71, 52
1, 199748, Note_off_c, 0, 69, 59
1, 199751, Note_on_c, 0, 76, 53
1, 199762, Note_off_c, 0, 71, 61
1, 199787, Note_on_c, 0, 78, 56
1, 199823, Note_off_c, 0, 76, 60
1, 199839, Note_on_c, 0, 81, 53
1, 199841, Note_off_c, 0, 78, 61
1, 199843, Note_on_c, 0, 83, 53
1, 199867, Note_off_c, 0, 81, 64
1, 199875, Note_off_c, 0, 83, 66
1, 199950, Note_on_c, 0, 83, 64
1, 199958, Note_on_c, 0, 81, 42
1, 199989, Note_off_c, 0, 81, 53
1, 200003, Note_on_c, 0, 88, 57
1, 200013, Note_on_c, 0, 90, 69
1, 200019, Note_off_c, 0, 68, 39
1, 200024, Note_off_c, 0, 83, 59
1, 200034, Note_off_c, 0, 56, 49
1, 200050, Note_off_c, 0, 88, 55
1, 200070, Note_on_c, 0, 95, 64
1, 200071, Note_off_c, 0, 90, 65
1, 200073, Note_on_c, 0, 93, 54
1, 200093, Note_off_c, 0, 93, 62
1, 200095, Note_off_c, 0, 95, 70
1, 200156, Note_on_c, 0, 95, 78
1, 200159, Note_on_c, 0, 93, 83
1, 200160, Note_on_c, 0, 68, 56
1, 200162, Note_on_c, 0, 56, 51
1, 200216, Note_on_c, 0, 90, 62
1, 200222, Note_off_c, 0, 95, 64
1, 200245, Note_on_c, 0, 88, 63
1, 200248, Note_off_c, 0, 93, 63
1, 200275, Note_off_c, 0, 90, 64
1, 200279, Note_off_c, 0, 88, 61
1, 200313, Note_on_c, 0, 81, 56
1, 200331, Note_off_c, 0, 68, 53
1, 200331, Note_off_c, 0, 81, 64
1, 200376, Note_off_c, 0, 56, 63
1, 200392, Note_on_c, 0, 83, 45
1, 200408, Note_on_c, 0, 81, 65
1, 200455, Note_on_c, 0, 76, 46
1, 200460, Note_off_c, 0, 83, 50
1, 200532, Note_off_c, 0, 76, 51
1, 200538, Note_on_c, 0, 69, 50
1, 200539, Note_on_c, 0, 71, 46
1, 200565, Note_off_c, 0, 69, 55
1, 200565, Note_off_c, 0, 71, 58
1, 200603, Note_off_c, 0, 81, 58
1, 200648, Note_on_c, 0, 66, 48
1, 200650, Note_on_c, 0, 54, 48
1, 200663, Note_on_c, 0, 71, 40
1, 200667, Note_on_c, 0, 69, 40
1, 200695, Note_off_c, 0, 69, 57
1, 200707, Note_on_c, 0, 76, 53
1, 200714, Note_off_c, 0, 71, 61
1, 200722, Note_off_c, 0, 66, 57
1, 200737, Note_on_c, 0, 78, 52
1, 200773, Note_off_c, 0, 76, 56
1, 200784, Note_on_c, 0, 81, 53
1, 200794, Note_on_c, 0, 83, 49
1, 200798, Note_off_c, 0, 78, 61
1, 200814, Note_off_c, 0, 81, 65
1, 200815, Note_off_c, 0, 54, 63
1, 200817, Note_off_c, 0, 83, 62
1, 200903, Note_on_c, 0, 83, 55
1, 200928, Note_on_c, 0, 81, 22
1, 200953, Note_on_c, 0, 88, 40
1, 200965, Note_off_c, 0, 81, 50
1, 200991, Note_on_c, 0, 90, 50
1, 201009, Note_off_c, 0, 88, 41
1, 201041, Note_on_c, 0, 95, 64
1, 201111, Note_on_c, 0, 45, 52
1, 201111, Note_off_c, 0, 90, 61
1, 201113, Note_on_c, 0, 52, 53
1, 201119, Note_off_c, 0, 95, 60
1, 201140, Note_off_c, 0, 45, 62
1, 201164, Note_off_c, 0, 52, 63
1, 201307, Note_off_c, 0, 83, 44
1, 201366, Note_on_c, 0, 64, 69
1, 201387, Note_on_c, 0, 93, 57
1, 201393, Control_c, 0, 64, 112
1, 201405, Note_on_c, 0, 61, 50
1, 201408, Control_c, 0, 64, 88
1, 201420, Note_on_c, 0, 57, 36
1, 201423, Control_c, 0, 64, 71
1, 201427, Note_off_c, 0, 93, 44
1, 201429, Note_on_c, 0, 56, 44
1, 201438, Control_c, 0, 64, 36
1, 201447, Note_on_c, 0, 90, 55
1, 201453, Control_c, 0, 64, 0
1, 201468, Control_c, 0, 64, 52
1, 201482, Control_c, 0, 64, 65
1, 201497, Control_c, 0, 64, 75
1, 201505, Note_on_c, 0, 88, 51
1, 201512, Control_c, 0, 64, 89
1, 201527, Control_c, 0, 64, 127
1, 201538, Note_off_c, 0, 90, 39
1, 201547, Note_off_c, 0, 88, 62
1, 201554, Note_on_c, 0, 85, 49
1, 201576, Note_off_c, 0, 85, 61
1, 201599, Note_on_c, 0, 81, 53
1, 201619, Note_off_c, 0, 81, 61
1, 201645, Note_off_c, 0, 64, 54
1, 201674, Note_on_c, 0, 78, 58
1, 201721, Note_on_c, 0, 76, 60
1, 201737, Note_off_c, 0, 78, 53
1, 201750, Control_c, 0, 67, 127
1, 201765, Control_c, 0, 67, 121
1, 201779, Control_c, 0, 67, 115
1, 201792, Note_on_c, 0, 73, 53
1, 201794, Control_c, 0, 67, 109
1, 201796, Note_off_c, 0, 76, 60
1, 201809, Control_c, 0, 67, 105
1, 201822, Note_off_c, 0, 73, 66
1, 201824, Control_c, 0, 67, 104
1, 201839, Control_c, 0, 67, 103
1, 201863, Note_on_c, 0, 69, 56
1, 201867, Note_on_c, 0, 66, 79
1, 201868, Control_c, 0, 67, 103
1, 201883, Control_c, 0, 67, 101
1, 201897, Control_c, 0, 67, 96
1, 201898, Note_off_c, 0, 69, 62
1, 201912, Control_c, 0, 67, 86
1, 201917, Note_on_c, 0, 73, 48
1, 201927, Control_c, 0, 67, 74
1, 201942, Note_on_c, 0, 76, 54
1, 201942, Control_c, 0, 67, 63
1, 201957, Note_off_c, 0, 73, 53
1, 201957, Control_c, 0, 67, 56
1, 201972, Control_c, 0, 67, 52
1, 201988, Note_off_c, 0, 66, 61
1, 201991, Note_off_c, 0, 76, 58
1, 202006, Note_on_c, 0, 78, 60
1, 202024, Control_c, 0, 67, 52
1, 202039, Control_c, 0, 67, 54
1, 202040, Note_off_c, 0, 78, 67
1, 202052, Note_off_c, 0, 56, 51
1, 202053, Control_c, 0, 67, 55
1, 202068, Control_c, 0, 67, 56
1, 202083, Control_c, 0, 67, 57
1, 202085, Note_off_c, 0, 57, 40
1, 202097, Control_c, 0, 67, 58
1, 202102, Note_off_c, 0, 61, 0
1, 202106, Note_on_c, 0, 81, 63
1, 202112, Control_c, 0, 67, 58
1, 202117, Note_on_c, 0, 64, 76
1, 202135, Note_off_c, 0, 81, 62
1, 202139, Poly_aftertouch_c, 0, 61, 127
1, 202142, Control_c, 0, 67, 59
1, 202169, Note_on_c, 0, 85, 61
1, 202171, Control_c, 0, 67, 60
1, 202186, Control_c, 0, 67, 60
1, 202192, Poly_aftertouch_c, 0, 61, 0
1, 202216, Control_c, 0, 67, 61
1, 202236, Note_on_c, 0, 88, 57
1, 202237, Note_off_c, 0, 85, 62
1, 202286, Note_off_c, 0, 88, 56
1, 202289, Note_on_c, 0, 90, 49
1, 202350, Control_c, 0, 64, 115
1, 202364, Control_c, 0, 64, 84
1, 202366, Note_on_c, 0, 61, 74
1, 202369, Note_off_c, 0, 90, 57
1, 202379, Control_c, 0, 64, 63
1, 202383, Note_on_c, 0, 93, 69
1, 202385, Note_on_c, 0, 57, 53
1, 202385, Note_off_c, 0, 64, 59
1, 202395, Control_c, 0, 64, 0
1, 202410, Note_on_c, 0, 54, 43
1, 202425, Control_c, 0, 64, 54
1, 202440, Control_c, 0, 64, 70
1, 202440, Note_on_c, 0, 90, 56
1, 202444, Note_off_c, 0, 93, 57
1, 202454, Control_c, 0, 64, 84
1, 202469, Control_c, 0, 64, 122
1, 202469, Control_c, 0, 67, 61
1, 202481, Note_on_c, 0, 88, 61
1, 202484, Control_c, 0, 64, 127
1, 202511, Note_off_c, 0, 90, 64
1, 202538, Note_on_c, 0, 85, 60
1, 202542, Note_off_c, 0, 88, 57
1, 202560, Note_off_c, 0, 61, 62
1, 202568, Note_off_c, 0, 85, 67
1, 202575, Note_off_c, 0, 57, 60
1, 202592, Note_on_c, 0, 81, 61
1, 202607, Note_off_c, 0, 54, 64
1, 202616, Note_off_c, 0, 81, 65
1, 202669, Note_on_c, 0, 78, 59
1, 202676, Control_c, 0, 67, 61
1, 202736, Note_on_c, 0, 76, 57
1, 202740, Note_off_c, 0, 78, 57
1, 202807, Note_off_c, 0, 76, 58
1, 202810, Note_on_c, 0, 73, 49
1, 202817, Control_c, 0, 67, 60
1, 202841, Note_off_c, 0, 73, 65
1, 202869, Note_on_c, 0, 52, 65
1, 202876, Note_on_c, 0, 45, 51
1, 202880, Note_on_c, 0, 69, 58
1, 202900, Note_off_c, 0, 52, 63
1, 202906, Note_off_c, 0, 45, 56
1, 202915, Note_off_c, 0, 69, 62
1, 202943, Note_on_c, 0, 73, 47
1, 202963, Note_on_c, 0, 76, 62
1, 202978, Note_off_c, 0, 73, 61
1, 203018, Note_off_c, 0, 76, 60
1, 203033, Note_on_c, 0, 78, 57
1, 203057, Note_off_c, 0, 78, 66
1, 203113, Note_on_c, 0, 81, 59
1, 203150, Note_off_c, 0, 81, 57
1, 203180, Note_on_c, 0, 85, 53
1, 203244, Note_off_c, 0, 85, 58
1, 203249, Note_on_c, 0, 88, 53
1, 203286, Note_on_c, 0, 90, 60
1, 203291, Note_off_c, 0, 88, 60
1, 203349, Note_off_c, 0, 90, 62
1, 203357, Note_on_c, 0, 64, 79
1, 203373, Note_on_c, 0, 93, 72
1, 203376, Note_on_c, 0, 61, 61
1, 203383, Note_on_c, 0, 57, 54
1, 203401, Note_on_c, 0, 56, 58
1, 203439, Note_on_c, 0, 90, 65
1, 203462, Note_off_c, 0, 93, 39
1, 203486, Note_on_c, 0, 88, 58
1, 203532, Note_off_c, 0, 90, 64
1, 203554, Note_on_c, 0, 85, 57
1, 203560, Note_off_c, 0, 88, 56
1, 203586, Note_off_c, 0, 85, 66
1, 203599, Note_off_c, 0, 64, 55
1, 203607, Note_on_c, 0, 81, 63
1, 203625, Control_c, 0, 67, 61
1, 203630, Note_off_c, 0, 81, 67
1, 203684, Control_c, 0, 67, 61
1, 203688, Note_on_c, 0, 78, 65
1, 203757, Note_on_c, 0, 76, 63
1, 203774, Note_off_c, 0, 78, 59
1, 203819, Note_on_c, 0, 73, 61
1, 203838, Note_off_c, 0, 76, 59
1, 203844, Note_on_c, 0, 66, 81
1, 203854, Note_off_c, 0, 73, 64
1, 203890, Note_on_c, 0, 69, 63
1, 203935, Note_off_c, 0, 69, 59
1, 203943, Note_off_c, 0, 66, 60
1, 203964, Note_on_c, 0, 73, 54
1, 203976, Note_on_c, 0, 76, 64
1, 203996, Note_off_c, 0, 73, 64
1, 204034, Note_off_c, 0, 76, 61
1, 204036, Note_off_c, 0, 56, 39
1, 204040, Note_on_c, 0, 78, 64
1, 204064, Note_off_c, 0, 78, 69
1, 204075, Note_off_c, 0, 61, 0
1, 204088, Note_on_c, 0, 64, 82
1, 204112, Poly_aftertouch_c, 0, 61, 127
1, 204121, Note_on_c, 0, 81, 63
1, 204148, Poly_aftertouch_c, 0, 61, 0
1, 204154, Note_off_c, 0, 81, 56
1, 204160, Note_off_c, 0, 57, 17
1, 204165, Poly_aftertouch_c, 0, 61, 0
1, 204187, Note_on_c, 0, 85, 59
1, 204189, Control_c, 0, 67, 62
1, 204236, Note_on_c, 0, 88, 61
1, 204250, Note_off_c, 0, 85, 60
1, 204299, Note_off_c, 0, 88, 62
1, 204306, Note_on_c, 0, 90, 56
1, 204339, Note_on_c, 0, 61, 75
1, 204342, Note_off_c, 0, 64, 64
1, 204344, Control_c, 0, 64, 88
1, 204348, Note_on_c, 0, 57, 63
1, 204354, Note_on_c, 0, 54, 57
1, 204359, Control_c, 0, 64, 69
1, 204367, Note_off_c, 0, 90, 62
1, 204374, Control_c, 0, 64, 0
1, 204375, Note_on_c, 0, 93, 72
1, 204404, Control_c, 0, 64, 38
1, 204419, Control_c, 0, 64, 64
1, 204430, Note_on_c, 0, 90, 59
1, 204434, Control_c, 0, 64, 72
1, 204440, Note_off_c, 0, 93, 52
1, 204448, Control_c, 0, 64, 89
1, 204463, Control_c, 0, 64, 127
1, 204478, Note_on_c, 0, 88, 62
1, 204517, Note_off_c, 0, 90, 64
1, 204532, Note_on_c, 0, 85, 61
1, 204549, Note_off_c, 0, 88, 58
1, 204566, Note_off_c, 0, 85, 63
1, 204597, Note_on_c, 0, 81, 61
1, 204598, Note_on_c, 0, 59, 80
1, 204616, Note_off_c, 0, 61, 51
1, 204620, Note_off_c, 0, 81, 65
1, 204648, Note_off_c, 0, 57, 56
1, 204669, Note_on_c, 0, 78, 63
1, 204729, Note_on_c, 0, 76, 67
1, 204746, Note_off_c, 0, 78, 51
1, 204797, Note_on_c, 0, 73, 54
1, 204802, Note_off_c, 0, 76, 60
1, 204819, Note_on_c, 0, 61, 78
1, 204827, Note_off_c, 0, 73, 65
1, 204839, Note_off_c, 0, 59, 37
1, 204847, Note_off_c, 0, 61, 67
1, 204848, Note_on_c, 0, 69, 72
1, 204861, Note_off_c, 0, 54, 64
1, 204886, Note_off_c, 0, 69, 55
1, 204907, Note_on_c, 0, 73, 61
1, 204932, Note_on_c, 0, 76, 64
1, 204944, Note_off_c, 0, 73, 63
1, 204981, Note_off_c, 0, 76, 62
1, 204985, Note_on_c, 0, 78, 63
1, 205018, Note_off_c, 0, 78, 68
1, 205057, Note_on_c, 0, 45, 64
1, 205058, Note_on_c, 0, 52, 59
1, 205073, Note_on_c, 0, 81, 67
1, 205082, Note_off_c, 0, 45, 62
1, 205083, Note_off_c, 0, 52, 59
1, 205101, Note_off_c, 0, 81, 61
1, 205127, Note_on_c, 0, 85, 65
1, 205188, Note_on_c, 0, 88, 68
1, 205197, Note_off_c, 0, 85, 62
1, 205240, Note_on_c, 0, 90, 63
1, 205246, Note_off_c, 0, 88, 63
1, 205286, Control_c, 0, 64, 126
1, 205301, Control_c, 0, 64, 84
1, 205310, Note_on_c, 0, 64, 83
1, 205314, Note_off_c, 0, 90, 62
1, 205315, Control_c, 0, 64, 64
1, 205319, Note_on_c, 0, 93, 82
1, 205322, Note_on_c, 0, 61, 62
1, 205330, Control_c, 0, 64, 0
1, 205331, Note_on_c, 0, 57, 56
1, 205345, Control_c, 0, 64, 36
1, 205355, Note_on_c, 0, 56, 54
1, 205360, Control_c, 0, 64, 64
1, 205360, Control_c, 0, 67, 61
1, 205376, Control_c, 0, 64, 72
1, 205384, Note_on_c, 0, 90, 68
1, 205390, Control_c, 0, 64, 90
1, 205401, Note_off_c, 0, 93, 51
1, 205405, Control_c, 0, 64, 127
1, 205435, Note_on_c, 0, 88, 62
1, 205468, Note_off_c, 0, 90, 64
1, 205484, Note_on_c, 0, 85, 61
1, 205495, Note_off_c, 0, 88, 62
1, 205514, Note_off_c, 0, 85, 67
1, 205535, Note_on_c, 0, 81, 64
1, 205538, Control_c, 0, 67, 62
1, 205559, Note_off_c, 0, 64, 56
1, 205560, Note_off_c, 0, 81, 67
1, 205611, Note_on_c, 0, 78, 60
1, 205685, Note_on_c, 0, 76, 56
1, 205693, Note_off_c, 0, 78, 59
1, 205757, Note_on_c, 0, 73, 52
1, 205782, Note_off_c, 0, 76, 48
1, 205806, Note_off_c, 0, 73, 63
1, 205855, Note_on_c, 0, 66, 81
1, 205859, Note_on_c, 0, 69, 57
1, 205899, Note_off_c, 0, 69, 56
1, 205902, Control_c, 0, 67, 62
1, 205917, Control_c, 0, 67, 63
1, 205927, Note_on_c, 0, 73, 45
1, 205932, Control_c, 0, 67, 65
1, 205946, Control_c, 0, 67, 68
1, 205954, Note_on_c, 0, 76, 55
1, 205961, Control_c, 0, 67, 76
1, 205973, Note_off_c, 0, 73, 53
1, 205976, Control_c, 0, 67, 88
1, 205991, Control_c, 0, 67, 103
1, 206006, Control_c, 0, 67, 113
1, 206019, Note_off_c, 0, 76, 62
1, 206020, Control_c, 0, 67, 118
1, 206035, Note_on_c, 0, 78, 56
1, 206035, Control_c, 0, 67, 119
1, 206061, Note_off_c, 0, 78, 67
1, 206064, Control_c, 0, 67, 118
1, 206071, Note_off_c, 0, 66, 59
1, 206079, Control_c, 0, 67, 118
1, 206124, Control_c, 0, 67, 117
1, 206126, Note_on_c, 0, 81, 65
1, 206153, Control_c, 0, 67, 117
1, 206157, Note_off_c, 0, 81, 58
1, 206205, Note_on_c, 0, 85, 56
1, 206218, Note_off_c, 0, 57, 36
1, 206228, Note_off_c, 0, 56, 30
1, 206258, Note_off_c, 0, 85, 58
1, 206262, Note_on_c, 0, 88, 68
1, 206307, Note_off_c, 0, 61, 59
1, 206331, Note_off_c, 0, 88, 62
1, 206345, Control_c, 0, 67, 116
1, 206351, Note_on_c, 0, 90, 80
1, 206359, Note_on_c, 0, 64, 84
1, 206360, Control_c, 0, 64, 89
1, 206375, Control_c, 0, 64, 68
1, 206375, Control_c, 0, 67, 116
1, 206389, Note_on_c, 0, 57, 49
1, 206391, Control_c, 0, 64, 0
1, 206397, Note_on_c, 0, 54, 48
1, 206416, Note_on_c, 0, 88, 67
1, 206421, Control_c, 0, 64, 52
1, 206421, Control_c, 0, 67, 115
1, 206436, Control_c, 0, 64, 69
1, 206440, Note_off_c, 0, 90, 62
1, 206450, Control_c, 0, 64, 83
1, 206465, Control_c, 0, 64, 111
1, 206480, Control_c, 0, 64, 127
1, 206481, Note_off_c, 0, 88, 62
1, 206483, Note_on_c, 0, 85, 57
1, 206513, Note_off_c, 0, 85, 66
1, 206534, Note_on_c, 0, 81, 63
1, 206552, Note_off_c, 0, 81, 66
1, 206610, Note_on_c, 0, 78, 62
1, 206666, Note_on_c, 0, 76, 60
1, 206675, Note_off_c, 0, 78, 57
1, 206724, Control_c, 0, 67, 116
1, 206726, Note_off_c, 0, 76, 58
1, 206739, Control_c, 0, 67, 116
1, 206749, Note_on_c, 0, 73, 45
1, 206774, Note_off_c, 0, 73, 58
1, 206799, Note_on_c, 0, 69, 59
1, 206841, Note_off_c, 0, 69, 56
1, 206842, Control_c, 0, 67, 117
1, 206854, Note_on_c, 0, 61, 80
1, 206857, Control_c, 0, 67, 118
1, 206872, Control_c, 0, 67, 119
1, 206875, Note_off_c, 0, 64, 59
1, 206880, Note_on_c, 0, 66, 57
1, 206887, Control_c, 0, 67, 121
1, 206902, Control_c, 0, 67, 127
1, 206906, Note_off_c, 0, 66, 65
1, 206917, Control_c, 0, 67, 127
1, 206919, Note_off_c, 0, 61, 64
1, 206923, Note_off_c, 0, 57, 52
1, 206950, Note_on_c, 0, 69, 62
1, 206952, Note_off_c, 0, 54, 54
1, 206976, Note_off_c, 0, 69, 66
1, 207018, Note_on_c, 0, 73, 63
1, 207070, Note_off_c, 0, 73, 57
1, 207074, Note_on_c, 0, 76, 41
1, 207102, Note_off_c, 0, 76, 56
1, 207110, Note_on_c, 0, 78, 59
1, 207136, Note_off_c, 0, 78, 67
1, 207152, Note_on_c, 0, 44, 63
1, 207156, Note_on_c, 0, 52, 62
1, 207191, Note_on_c, 0, 81, 62
1, 207198, Note_off_c, 0, 52, 62
1, 207200, Note_off_c, 0, 44, 62
1, 207232, Note_off_c, 0, 81, 55
1, 207270, Note_on_c, 0, 85, 64
1, 207310, Note_off_c, 0, 85, 57
1, 207340, Control_c, 0, 64, 103
1, 207350, Note_on_c, 0, 88, 72
1, 207355, Control_c, 0, 64, 79
1, 207361, Note_on_c, 0, 59, 79
1, 207370, Control_c, 0, 64, 63
1, 207377, Note_on_c, 0, 57, 64
1, 207385, Control_c, 0, 64, 52
1, 207399, Control_c, 0, 64, 66
1, 207400, Note_off_c, 0, 88, 62
1, 207414, Control_c, 0, 64, 74
1, 207418, Note_on_c, 0, 85, 49
1, 207429, Control_c, 0, 64, 88
1, 207441, Note_off_c, 0, 85, 59
1, 207444, Control_c, 0, 64, 127
1, 207454, Note_on_c, 0, 81, 57
1, 207472, Note_off_c, 0, 81, 62
1, 207521, Note_on_c, 0, 78, 61
1, 207570, Note_off_c, 0, 78, 51
1, 207575, Note_on_c, 0, 76, 58
1, 207612, Note_off_c, 0, 76, 58
1, 207621, Note_on_c, 0, 73, 57
1, 207642, Note_off_c, 0, 73, 64
1, 207670, Note_on_c, 0, 69, 59
1, 207685, Note_off_c, 0, 57, 55
1, 207698, Note_off_c, 0, 69, 66
1, 207745, Note_on_c, 0, 66, 57
1, 207775, Note_off_c, 0, 66, 64
1, 207796, Note_on_c, 0, 64, 63
1, 207839, Note_off_c, 0, 64, 59
1, 207848, Note_on_c, 0, 66, 65
1, 207879, Note_off_c, 0, 66, 66
1, 207903, Note_off_c, 0, 59, 59
1, 207937, Note_on_c, 0, 69, 63
1, 207969, Note_off_c, 0, 69, 62
1, 208000, Note_on_c, 0, 73, 62
1, 208039, Note_off_c, 0, 73, 63
1, 208052, Note_on_c, 0, 76, 53
1, 208083, Note_off_c, 0, 76, 64
1, 208099, Note_on_c, 0, 78, 56
1, 208109, Note_on_c, 0, 42, 61
1, 208125, Note_off_c, 0, 78, 66
1, 208154, Note_on_c, 0, 52, 63
1, 208155, Note_off_c, 0, 42, 62
1, 208188, Note_off_c, 0, 52, 62
1, 208192, Note_on_c, 0, 81, 60
1, 208269, Note_off_c, 0, 81, 55
1, 208311, Control_c, 0, 64, 101
1, 208321, Note_on_c, 0, 83, 64
1, 208326, Control_c, 0, 64, 77
1, 208333, Note_on_c, 0, 61, 79
1, 208340, Note_off_c, 0, 83, 65
1, 208340, Control_c, 0, 64, 63
1, 208355, Control_c, 0, 64, 66
1, 208356, Note_on_c, 0, 57, 51
1, 208370, Control_c, 0, 64, 74
1, 208378, Note_on_c, 0, 81, 58
1, 208385, Control_c, 0, 64, 87
1, 208397, Note_off_c, 0, 81, 62
1, 208400, Control_c, 0, 64, 127
1, 208446, Note_on_c, 0, 78, 60
1, 208507, Note_on_c, 0, 76, 62
1, 208512, Note_off_c, 0, 78, 56
1, 208540, Note_off_c, 0, 76, 59
1, 208551, Note_on_c, 0, 73, 58
1, 208572, Note_off_c, 0, 73, 64
1, 208593, Note_on_c, 0, 69, 60
1, 208611, Note_off_c, 0, 61, 59
1, 208620, Note_off_c, 0, 69, 66
1, 208670, Note_on_c, 0, 66, 52
1, 208702, Note_off_c, 0, 57, 59
1, 208717, Note_off_c, 0, 66, 57
1, 208732, Note_on_c, 0, 64, 51
1, 208774, Note_off_c, 0, 64, 65
1, 208795, Note_on_c, 0, 61, 60
1, 208831, Note_off_c, 0, 61, 60
1, 208877, Note_on_c, 0, 64, 37
1, 208900, Note_on_c, 0, 66, 52
1, 208905, Note_off_c, 0, 64, 58
1, 208923, Note_off_c, 0, 66, 61
1, 208975, Note_on_c, 0, 69, 61
1, 209012, Note_off_c, 0, 69, 58
1, 209062, Note_on_c, 0, 73, 47
1, 209096, Note_on_c, 0, 40, 42
1, 209103, Note_on_c, 0, 76, 57
1, 209106, Note_off_c, 0, 73, 55
1, 209153, Note_off_c, 0, 76, 50
1, 209182, Note_on_c, 0, 78, 47
1, 209197, Note_off_c, 0, 40, 52
1, 209210, Note_on_c, 0, 47, 44
1, 209259, Note_off_c, 0, 47, 61
1, 209275, Note_on_c, 0, 81, 48
1, 209347, Note_off_c, 0, 78, 22
1, 209392, Note_off_c, 0, 81, 57
1, 209542, Control_c, 0, 64, 89
1, 209544, Note_on_c, 0, 83, 53
1, 209553, Note_on_c, 0, 73, 62
1, 209557, Control_c, 0, 64, 72
1, 209571, Control_c, 0, 64, 63
1, 209573, Note_on_c, 0, 61, 47
1, 209582, Note_off_c, 0, 83, 55
1, 209587, Control_c, 0, 64, 69
1, 209602, Control_c, 0, 64, 80
1, 209615, Note_on_c, 0, 80, 47
1, 209617, Control_c, 0, 64, 106
1, 209632, Control_c, 0, 64, 127
1, 209638, Note_off_c, 0, 73, 63
1, 209647, Note_off_c, 0, 61, 61
1, 209650, Note_on_c, 0, 76, 60
1, 209651, Note_off_c, 0, 80, 50
1, 209686, Note_off_c, 0, 76, 60
1, 209686, Note_on_c, 0, 73, 45
1, 209715, Note_off_c, 0, 73, 61
1, 209733, Note_on_c, 0, 71, 63
1, 209760, Note_off_c, 0, 71, 70
1, 209835, Note_on_c, 0, 68, 28
1, 209870, Note_off_c, 0, 68, 53
1, 209872, Note_on_c, 0, 64, 56
1, 209960, Note_off_c, 0, 64, 58
1, 209966, Note_on_c, 0, 61, 30
1, 210002, Note_off_c, 0, 61, 53
1, 210012, Note_on_c, 0, 59, 54
1, 210020, Note_on_c, 0, 75, 67
1, 210037, Note_on_c, 0, 63, 53
1, 210046, Note_off_c, 0, 59, 61
1, 210050, Note_off_c, 0, 75, 61
1, 210072, Note_on_c, 0, 61, 39
1, 210074, Note_off_c, 0, 63, 62
1, 210094, Note_on_c, 0, 64, 46
1, 210100, Note_off_c, 0, 61, 58
1, 210118, Note_off_c, 0, 64, 62
1, 210165, Note_on_c, 0, 68, 36
1, 210194, Note_off_c, 0, 68, 52
1, 210239, Note_on_c, 0, 71, 54
1, 210279, Note_off_c, 0, 71, 65
1, 210318, Note_on_c, 0, 73, 49
1, 210357, Note_off_c, 0, 73, 62
1, 210363, Note_on_c, 0, 76, 57
1, 210407, Note_off_c, 0, 76, 59
1, 210426, Note_on_c, 0, 80, 42
1, 210463, Note_off_c, 0, 80, 58
1, 210479, Note_on_c, 0, 68, 63
1, 210483, Note_on_c, 0, 56, 54
1, 210483, Note_on_c, 0, 83, 67
1, 210513, Note_off_c, 0, 56, 64
1, 210514, Note_off_c, 0, 68, 60
1, 210529, Note_off_c, 0, 83, 60
1, 210564, Note_on_c, 0, 80, 53
1, 210586, Note_off_c, 0, 80, 61
1, 210591, Note_on_c, 0, 76, 56
1, 210625, Note_off_c, 0, 76, 61
1, 210649, Note_on_c, 0, 73, 29
1, 210673, Note_on_c, 0, 71, 57
1, 210684, Note_off_c, 0, 73, 53
1, 210692, Note_off_c, 0, 71, 65
1, 210755, Note_on_c, 0, 68, 49
1, 210799, Note_off_c, 0, 68, 61
1, 210819, Note_on_c, 0, 64, 54
1, 210893, Note_off_c, 0, 64, 59
1, 210904, Note_on_c, 0, 61, 28
1, 210938, Note_on_c, 0, 71, 63
1, 210952, Note_on_c, 0, 59, 53
1, 210966, Note_off_c, 0, 71, 69
1, 210974, Note_off_c, 0, 61, 0
1, 210980, Note_off_c, 0, 59, 61
1, 210992, Note_on_c, 0, 61, 35
1, 211037, Note_on_c, 0, 64, 43
1, 211038, Note_off_c, 0, 61, 61
1, 211063, Note_off_c, 0, 64, 59
1, 211090, Note_on_c, 0, 68, 43
1, 211112, Note_off_c, 0, 68, 62
1, 211171, Note_on_c, 0, 71, 57
1, 211206, Note_off_c, 0, 71, 66
1, 211241, Note_on_c, 0, 73, 47
1, 211269, Note_off_c, 0, 73, 60
1, 211285, Note_on_c, 0, 76, 53
1, 211314, Note_off_c, 0, 76, 59
1, 211335, Note_on_c, 0, 80, 46
1, 211370, Note_off_c, 0, 80, 63
1, 211380, Note_on_c, 0, 73, 58
1, 211388, Note_on_c, 0, 83, 62
1, 211397, Note_on_c, 0, 61, 49
1, 211417, Note_off_c, 0, 73, 61
1, 211418, Note_off_c, 0, 83, 61
1, 211425, Note_off_c, 0, 61, 60
1, 211465, Note_on_c, 0, 80, 46
1, 211487, Note_off_c, 0, 80, 58
1, 211498, Note_on_c, 0, 76, 44
1, 211525, Note_off_c, 0, 76, 59
1, 211537, Note_on_c, 0, 73, 37
1, 211567, Note_on_c, 0, 71, 54
1, 211569, Note_off_c, 0, 73, 54
1, 211584, Note_off_c, 0, 71, 67
1, 211650, Note_on_c, 0, 68, 48
1, 211683, Note_off_c, 0, 68, 63
1, 211713, Note_on_c, 0, 64, 42
1, 211773, Note_off_c, 0, 64, 54
1, 211787, Note_on_c, 0, 61, 32
1, 211820, Note_off_c, 0, 61, 51
1, 211833, Note_on_c, 0, 59, 59
1, 211833, Note_on_c, 0, 75, 60
1, 211851, Note_on_c, 0, 63, 44
1, 211863, Note_off_c, 0, 75, 65
1, 211868, Note_off_c, 0, 59, 61
1, 211881, Note_off_c, 0, 63, 59
1, 211914, Note_on_c, 0, 64, 40
1, 211944, Note_off_c, 0, 64, 55
1, 211975, Poly_aftertouch_c, 0, 61, 0
1, 211979, Note_on_c, 0, 68, 31
1, 212010, Note_off_c, 0, 68, 53
1, 212052, Note_on_c, 0, 71, 55
1, 212072, Note_off_c, 0, 71, 64
1, 212126, Note_on_c, 0, 73, 50
1, 212151, Note_off_c, 0, 73, 63
1, 212178, Note_on_c, 0, 76, 48
1, 212204, Note_off_c, 0, 76, 60
1, 212222, Note_on_c, 0, 80, 48
1, 212251, Note_off_c, 0, 80, 65
1, 212262, Note_on_c, 0, 83, 67
1, 212269, Note_on_c, 0, 68, 58
1, 212270, Note_on_c, 0, 56, 59
1, 212294, Note_off_c, 0, 83, 55
1, 212299, Note_off_c, 0, 56, 65
1, 212300, Note_off_c, 0, 68, 63
1, 212359, Note_on_c, 0, 80, 15
1, 212360, Note_on_c, 0, 76, 48
1, 212394, Note_off_c, 0, 76, 60
1, 212399, Note_off_c, 0, 80, 51
1, 212405, Note_on_c, 0, 73, 47
1, 212429, Note_off_c, 0, 73, 58
1, 212442, Note_on_c, 0, 71, 56
1, 212462, Note_off_c, 0, 71, 64
1, 212543, Note_on_c, 0, 68, 43
1, 212575, Note_off_c, 0, 68, 60
1, 212591, Note_on_c, 0, 64, 52
1, 212662, Note_off_c, 0, 64, 58
1, 212670, Note_on_c, 0, 61, 37
1, 212706, Note_off_c, 0, 61, 48
1, 212718, Note_on_c, 0, 71, 66
1, 212728, Note_on_c, 0, 59, 54
1, 212744, Note_off_c, 0, 71, 69
1, 212761, Note_off_c, 0, 59, 62
1, 212780, Note_on_c, 0, 61, 35
1, 212797, Note_on_c, 0, 64, 47
1, 212811, Note_off_c, 0, 61, 59
1, 212823, Note_off_c, 0, 64, 61
1, 212861, Note_on_c, 0, 68, 40
1, 212885, Note_off_c, 0, 68, 57
1, 212940, Note_on_c, 0, 71, 58
1, 212968, Note_off_c, 0, 71, 66
1, 213004, Note_on_c, 0, 73, 54
1, 213034, Note_off_c, 0, 73, 66
1, 213052, Note_on_c, 0, 76, 53
1, 213085, Note_off_c, 0, 76, 63
1, 213117, Note_on_c, 0, 80, 30
1, 213147, Note_off_c, 0, 80, 54
1, 213156, Note_on_c, 0, 73, 68
1, 213158, Note_on_c, 0, 83, 65
1, 213174, Note_on_c, 0, 61, 47
1, 213183, Note_off_c, 0, 73, 68
1, 213189, Note_off_c, 0, 83, 60
1, 213203, Note_off_c, 0, 61, 55
1, 213254, Note_on_c, 0, 80, 30
1, 213273, Note_on_c, 0, 76, 46
1, 213287, Note_off_c, 0, 80, 50
1, 213297, Note_on_c, 0, 73, 50
1, 213300, Note_off_c, 0, 76, 57
1, 213323, Note_off_c, 0, 73, 61
1, 213349, Note_on_c, 0, 71, 48
1, 213368, Note_off_c, 0, 71, 64
1, 213427, Note_on_c, 0, 68, 47
1, 213465, Note_off_c, 0, 68, 63
1, 213478, Note_on_c, 0, 64, 56
1, 213548, Note_on_c, 0, 61, 40
1, 213553, Note_off_c, 0, 64, 59
1, 213582, Note_off_c, 0, 61, 51
1, 213604, Note_on_c, 0, 75, 64
1, 213607, Note_on_c, 0, 59, 50
1, 213632, Note_off_c, 0, 75, 64
1, 213635, Note_off_c, 0, 59, 62
1, 213644, Note_on_c, 0, 63, 23
1, 213682, Note_on_c, 0, 64, 46
1, 213684, Note_off_c, 0, 63, 48
1, 213705, Note_off_c, 0, 64, 61
1, 213727, Poly_aftertouch_c, 0, 61, 127
1, 213738, Note_on_c, 0, 68, 36
1, 213759, Poly_aftertouch_c, 0, 61, 0
1, 213771, Note_off_c, 0, 68, 51
1, 213820, Note_on_c, 0, 71, 54
1, 213847, Note_off_c, 0, 71, 64
1, 213892, Note_on_c, 0, 73, 50
1, 213916, Note_off_c, 0, 73, 63
1, 213934, Note_on_c, 0, 76, 54
1, 213965, Note_off_c, 0, 76, 62
1, 213982, Note_on_c, 0, 80, 42
1, 214026, Note_off_c, 0, 80, 63
1, 214040, Note_on_c, 0, 83, 66
1, 214045, Note_on_c, 0, 68, 58
1, 214046, Note_on_c, 0, 56, 59
1, 214072, Note_off_c, 0, 83, 58
1, 214076, Note_off_c, 0, 68, 61
1, 214079, Note_off_c, 0, 56, 64
1, 214115, Note_on_c, 0, 80, 42
1, 214140, Note_off_c, 0, 80, 58
1, 214144, Note_on_c, 0, 76, 48
1, 214170, Note_off_c, 0, 76, 58
1, 214175, Note_on_c, 0, 73, 48
1, 214199, Note_off_c, 0, 73, 60
1, 214216, Note_on_c, 0, 71, 50
1, 214239, Note_off_c, 0, 71, 62
1, 214300, Note_on_c, 0, 68, 46
1, 214337, Note_off_c, 0, 68, 62
1, 214360, Note_on_c, 0, 64, 48
1, 214426, Note_off_c, 0, 64, 57
1, 214428, Note_on_c, 0, 61, 37
1, 214462, Note_off_c, 0, 61, 51
1, 214488, Note_on_c, 0, 59, 57
1, 214489, Note_on_c, 0, 71, 62
1, 214515, Note_off_c, 0, 71, 69
1, 214524, Note_off_c, 0, 59, 61
1, 214575, Note_on_c, 0, 61, 18
1, 214581, Note_on_c, 0, 64, 36
1, 214609, Note_off_c, 0, 64, 57
1, 214617, Note_off_c, 0, 61, 53
1, 214631, Note_on_c, 0, 68, 34
1, 214660, Note_off_c, 0, 68, 54
1, 214713, Note_on_c, 0, 71, 41
1, 214748, Note_off_c, 0, 71, 57
1, 214772, Note_on_c, 0, 73, 54
1, 214809, Note_off_c, 0, 73, 64
1, 214828, Note_on_c, 0, 76, 49
1, 214861, Note_off_c, 0, 76, 62
1, 214881, Note_on_c, 0, 80, 41
1, 214913, Note_off_c, 0, 80, 59
1, 214938, Note_on_c, 0, 83, 62
1, 214939, Note_on_c, 0, 73, 63
1, 214953, Note_on_c, 0, 61, 48
1, 214965, Note_off_c, 0, 83, 66
1, 214966, Note_off_c, 0, 73, 68
1, 214979, Note_off_c, 0, 61, 58
1, 215009, Note_on_c, 0, 80, 45
1, 215031, Note_off_c, 0, 80, 59
1, 215034, Note_on_c, 0, 76, 49
1, 215061, Note_on_c, 0, 73, 56
1, 215064, Note_off_c, 0, 76, 57
1, 215088, Note_off_c, 0, 73, 65
1, 215108, Note_on_c, 0, 71, 57
1, 215128, Note_off_c, 0, 71, 64
1, 215195, Note_on_c, 0, 68, 49
1, 215221, Note_off_c, 0, 68, 62
1, 215251, Note_on_c, 0, 64, 50
1, 215313, Note_off_c, 0, 64, 61
1, 215316, Note_on_c, 0, 61, 40
1, 215345, Note_off_c, 0, 61, 54
1, 215372, Note_on_c, 0, 59, 55
1, 215374, Note_on_c, 0, 75, 63
1, 215392, Note_on_c, 0, 63, 44
1, 215400, Note_off_c, 0, 75, 67
1, 215403, Note_off_c, 0, 59, 63
1, 215423, Note_off_c, 0, 63, 60
1, 215447, Note_on_c, 0, 61, 30
1, 215456, Note_on_c, 0, 64, 39
1, 215483, Note_off_c, 0, 64, 57
1, 215484, Note_off_c, 0, 61, 53
1, 215525, Note_on_c, 0, 68, 25
1, 215558, Note_off_c, 0, 68, 53
1, 215603, Note_on_c, 0, 71, 50
1, 215623, Note_off_c, 0, 71, 62
1, 215668, Note_on_c, 0, 73, 54
1, 215699, Note_off_c, 0, 73, 65
1, 215715, Note_on_c, 0, 76, 52
1, 215753, Note_off_c, 0, 76, 61
1, 215775, Note_on_c, 0, 80, 45
1, 215816, Note_off_c, 0, 80, 58
1, 215842, Note_on_c, 0, 83, 65
1, 215851, Note_on_c, 0, 56, 48
1, 215857, Note_on_c, 0, 68, 43
1, 215868, Note_off_c, 0, 83, 65
1, 215879, Note_off_c, 0, 56, 61
1, 215883, Note_off_c, 0, 68, 57
1, 215922, Note_on_c, 0, 80, 39
1, 215937, Note_on_c, 0, 76, 60
1, 215951, Note_off_c, 0, 80, 55
1, 215972, Note_off_c, 0, 76, 63
1, 215981, Note_on_c, 0, 73, 50
1, 216003, Note_off_c, 0, 73, 62
1, 216032, Note_on_c, 0, 71, 42
1, 216056, Note_off_c, 0, 71, 61
1, 216103, Note_on_c, 0, 68, 55
1, 216158, Note_off_c, 0, 68, 57
1, 216203, Note_on_c, 0, 64, 27
1, 216284, Note_on_c, 0, 61, 37
1, 216304, Note_off_c, 0, 64, 38
1, 216318, Note_off_c, 0, 61, 52
1, 216352, Note_on_c, 0, 71, 38
1, 216362, Note_on_c, 0, 59, 42
1, 216381, Note_off_c, 0, 71, 56
1, 216390, Note_off_c, 0, 59, 55
1, 216417, Note_on_c, 0, 61, 42
1, 216437, Note_on_c, 0, 64, 42
1, 216450, Note_off_c, 0, 61, 59
1, 216466, Note_off_c, 0, 64, 64
1, 216495, Note_on_c, 0, 68, 51
1, 216527, Note_off_c, 0, 68, 65
1, 216599, Note_on_c, 0, 71, 44
1, 216626, Note_off_c, 0, 71, 55
1, 216668, Note_on_c, 0, 73, 53
1, 216718, Note_off_c, 0, 73, 56
1, 216730, Note_on_c, 0, 76, 54
1, 216781, Note_off_c, 0, 76, 59
1, 216807, Note_on_c, 0, 80, 41
1, 216855, Note_off_c, 0, 80, 61
1, 216879, Note_on_c, 0, 83, 67
1, 216906, Note_on_c, 0, 40, 45
1, 216919, Note_off_c, 0, 83, 56
1, 216928, Note_on_c, 0, 47, 42
1, 216951, Note_on_c, 0, 80, 50
1, 216962, Note_off_c, 0, 40, 60
1, 216974, Note_off_c, 0, 80, 63
1, 216980, Note_on_c, 0, 76, 56
1, 216982, Note_off_c, 0, 47, 63
1, 217021, Note_off_c, 0, 76, 63
1, 217035, Note_on_c, 0, 73, 37
1, 217066, Note_on_c, 0, 71, 56
1, 217067, Note_off_c, 0, 73, 54
1, 217087, Note_off_c, 0, 71, 64
1, 217153, Note_on_c, 0, 68, 47
1, 217194, Note_off_c, 0, 68, 62
1, 217214, Note_on_c, 0, 64, 50
1, 217258, Note_off_c, 0, 64, 61
1, 217329, Note_on_c, 0, 47, 47
1, 217395, Note_on_c, 0, 49, 43
1, 217398, Note_off_c, 0, 47, 56
1, 217434, Note_off_c, 0, 49, 61
1, 217445, Note_on_c, 0, 52, 33
1, 217479, Note_on_c, 0, 56, 31
1, 217483, Note_off_c, 0, 52, 52
1, 217514, Note_off_c, 0, 56, 55
1, 217529, Note_on_c, 0, 59, 48
1, 217576, Note_off_c, 0, 59, 57
1, 217621, Note_on_c, 0, 64, 39
1, 217640, Poly_aftertouch_c, 0, 61, 127
1, 217660, Note_off_c, 0, 64, 64
1, 217663, Note_on_c, 0, 68, 53
1, 217687, Poly_aftertouch_c, 0, 61, 0
1, 217689, Note_off_c, 0, 68, 64
1, 217749, Note_on_c, 0, 59, 45
1, 217807, Note_on_c, 0, 61, 46
1, 217824, Note_off_c, 0, 59, 56
1, 217851, Note_on_c, 0, 64, 40
1, 217854, Note_off_c, 0, 61, 59
1, 217880, Note_off_c, 0, 64, 56
1, 217888, Note_on_c, 0, 68, 43
1, 217916, Note_off_c, 0, 68, 55
1, 217959, Note_on_c, 0, 71, 52
1, 218008, Note_off_c, 0, 71, 52
1, 218036, Note_on_c, 0, 73, 32
1, 218039, Note_on_c, 0, 76, 51
1, 218089, Note_off_c, 0, 73, 45
1, 218107, Note_on_c, 0, 80, 52
1, 218116, Note_off_c, 0, 76, 59
1, 218137, Note_off_c, 0, 80, 66
1, 218188, Note_on_c, 0, 71, 50
1, 218248, Note_on_c, 0, 73, 40
1, 218256, Note_off_c, 0, 71, 48
1, 218280, Note_off_c, 0, 73, 60
1, 218293, Note_on_c, 0, 76, 47
1, 218331, Note_off_c, 0, 76, 59
1, 218353, Note_on_c, 0, 80, 57
1, 218384, Note_off_c, 0, 80, 63
1, 218474, Note_on_c, 0, 88, 47
1, 218553, Note_on_c, 0, 92, 47
1, 218593, Note_on_c, 0, 95, 50
1, 218618, Note_off_c, 0, 88, 36
1, 218648, Note_off_c, 0, 92, 44
1, 218678, Note_off_c, 0, 95, 58
1, 218681, Note_on_c, 0, 97, 52
1, 218742, Note_off_c, 0, 97, 52
1, 218823, Note_on_c, 0, 99, 52
1, 218824, Note_on_c, 0, 87, 48
1, 218841, Note_on_c, 0, 92, 43
1, 218852, Note_on_c, 0, 47, 25
1, 218877, Note_on_c, 0, 40, 23
1, 219005, Note_off_c, 0, 99, 30
1, 219039, Note_off_c, 0, 87, 39
1, 219085, Note_off_c, 0, 92, 41
1, 220940, Note_off_c, 0, 40, 30
1, 221736, Note_off_c, 0, 47, 27
1, 221774, Control_c, 0, 67, 127
1, 221789, Control_c, 0, 67, 125
1, 221803, Control_c, 0, 67, 123
1, 221818, Control_c, 0, 67, 120
1, 221833, Control_c, 0, 67, 117
1, 221848, Control_c, 0, 67, 115
1, 221863, Control_c, 0, 67, 111
1, 221878, Control_c, 0, 67, 108
1, 221893, Control_c, 0, 67, 105
1, 221908, Control_c, 0, 67, 101
1, 221923, Control_c, 0, 67, 98
1, 221938, Control_c, 0, 67, 95
1, 221953, Control_c, 0, 67, 92
1, 221967, Control_c, 0, 67, 90
1, 221982, Control_c, 0, 67, 89
1, 221997, Control_c, 0, 67, 88
1, 222085, Control_c, 0, 67, 89
1, 222100, Control_c, 0, 67, 89
1, 222130, Control_c, 0, 67, 90
1, 222159, Control_c, 0, 67, 90
1, 222189, Control_c, 0, 67, 91
1, 222256, Control_c, 0, 67, 91
1, 222300, Control_c, 0, 67, 92
1, 222509, Control_c, 0, 67, 92
1, 222597, Control_c, 0, 64, 126
1, 222612, Control_c, 0, 64, 122
1, 222627, Control_c, 0, 64, 120
1, 222641, Control_c, 0, 64, 118
1, 222656, Control_c, 0, 64, 118
1, 222671, Control_c, 0, 64, 117
1, 222686, Control_c, 0, 64, 116
1, 222701, Control_c, 0, 64, 115
1, 222716, Control_c, 0, 64, 114
1, 222731, Control_c, 0, 64, 114
1, 222745, Control_c, 0, 64, 113
1, 222760, Control_c, 0, 64, 113
1, 222775, Control_c, 0, 64, 112
1, 222790, Control_c, 0, 64, 111
1, 222805, Control_c, 0, 64, 111
1, 222820, Control_c, 0, 64, 110
1, 222834, Control_c, 0, 64, 110
1, 222864, Control_c, 0, 64, 109
1, 222879, Control_c, 0, 64, 109
1, 222894, Control_c, 0, 64, 108
1, 222908, Control_c, 0, 64, 108
1, 222938, Control_c, 0, 64, 107
1, 222953, Control_c, 0, 64, 107
1, 222967, Control_c, 0, 64, 106
1, 222990, Control_c, 0, 64, 106
1, 223035, Control_c, 0, 64, 105
1, 223049, Control_c, 0, 64, 105
1, 223079, Control_c, 0, 64, 104
1, 223109, Control_c, 0, 64, 104
1, 223123, Control_c, 0, 64, 103
1, 223153, Control_c, 0, 64, 103
1, 223184, Control_c, 0, 64, 102
1, 223199, Control_c, 0, 64, 102
1, 223213, Control_c, 0, 64, 101
1, 223228, Control_c, 0, 64, 101
1, 223243, Control_c, 0, 64, 100
1, 223258, Control_c, 0, 64, 100
1, 223272, Control_c, 0, 64, 99
1, 223287, Control_c, 0, 64, 99
1, 223317, Control_c, 0, 64, 98
1, 223332, Control_c, 0, 64, 98
1, 223346, Control_c, 0, 64, 97
1, 223361, Control_c, 0, 64, 96
1, 223376, Control_c, 0, 64, 96
1, 223390, Control_c, 0, 64, 95
1, 223405, Control_c, 0, 64, 95
1, 223420, Control_c, 0, 64, 94
1, 223435, Control_c, 0, 64, 94
1, 223450, Control_c, 0, 64, 93
1, 223479, Control_c, 0, 64, 93
1, 223509, Control_c, 0, 64, 92
1, 223524, Control_c, 0, 64, 92
1, 223553, Control_c, 0, 64, 91
1, 223568, Control_c, 0, 64, 91
1, 223613, Control_c, 0, 64, 90
1, 223643, Control_c, 0, 64, 90
1, 223672, Control_c, 0, 64, 89
1, 223702, Control_c, 0, 64, 89
1, 223717, Control_c, 0, 64, 88
1, 223753, Control_c, 0, 64, 88
1, 223768, Control_c, 0, 64, 87
1, 223783, Control_c, 0, 64, 87
1, 223813, Control_c, 0, 64, 86
1, 223813, Control_c, 0, 67, 93
1, 223827, Control_c, 0, 64, 86
1, 223842, Control_c, 0, 64, 85
1, 223857, Control_c, 0, 64, 85
1, 223872, Control_c, 0, 64, 84
1, 223887, Control_c, 0, 64, 84
1, 223902, Control_c, 0, 64, 83
1, 223917, Control_c, 0, 64, 83
1, 223932, Control_c, 0, 64, 82
1, 223946, Control_c, 0, 64, 81
1, 223962, Control_c, 0, 64, 80
1, 223977, Control_c, 0, 64, 79
1, 223991, Control_c, 0, 64, 78
1, 223991, Control_c, 0, 67, 93
1, 224006, Control_c, 0, 64, 77
1, 224021, Control_c, 0, 64, 76
1, 224036, Control_c, 0, 64, 75
1, 224051, Control_c, 0, 64, 74
1, 224066, Control_c, 0, 64, 73
1, 224081, Control_c, 0, 64, 73
1, 224095, Control_c, 0, 64, 72
1, 224140, Control_c, 0, 64, 72
1, 224169, Control_c, 0, 64, 71
1, 224547, Control_c, 0, 64, 71
1, 224710, Control_c, 0, 64, 70
1, 224814, Control_c, 0, 64, 70
1, 224933, Control_c, 0, 64, 69
1, 225007, Control_c, 0, 64, 69
1, 225096, Control_c, 0, 64, 68
1, 225369, Control_c, 0, 64, 68
1, 225458, Control_c, 0, 67, 93
1, 225503, Control_c, 0, 64, 67
1, 225637, Control_c, 0, 64, 67
1, 225800, Control_c, 0, 64, 66
1, 225830, Control_c, 0, 67, 92
1, 225904, Control_c, 0, 64, 66
1, 225948, Control_c, 0, 64, 65
1, 226000, Control_c, 0, 64, 65
1, 226045, Control_c, 0, 64, 64
1, 226059, Control_c, 0, 67, 92
1, 226104, Control_c, 0, 64, 64
1, 226148, Control_c, 0, 67, 91
1, 226163, Control_c, 0, 64, 63
1, 226192, Control_c, 0, 67, 91
1, 226222, Control_c, 0, 64, 63
1, 226266, Control_c, 0, 64, 62
1, 226266, Control_c, 0, 67, 90
1, 226296, Control_c, 0, 64, 62
1, 226296, Control_c, 0, 67, 90
1, 226311, Control_c, 0, 64, 61
1, 226326, Control_c, 0, 64, 60
1, 226340, Control_c, 0, 64, 60
1, 226340, Control_c, 0, 67, 89
1, 226355, Control_c, 0, 64, 59
1, 226370, Control_c, 0, 64, 58
1, 226370, Control_c, 0, 67, 89
1, 226385, Control_c, 0, 64, 57
1, 226385, Control_c, 0, 67, 88
1, 226400, Control_c, 0, 64, 56
1, 226415, Control_c, 0, 64, 54
1, 226415, Control_c, 0, 67, 88
1, 226430, Control_c, 0, 64, 53
1, 226445, Control_c, 0, 64, 52
1, 226460, Control_c, 0, 64, 51
1, 226460, Control_c, 0, 67, 87
1, 226474, Control_c, 0, 64, 50
1, 226489, Control_c, 0, 64, 49
1, 226489, Control_c, 0, 67, 87
1, 226504, Control_c, 0, 64, 47
1, 226519, Control_c, 0, 64, 45
1, 226534, Control_c, 0, 64, 43
1, 226549, Control_c, 0, 64, 41
1, 226549, Control_c, 0, 67, 86
1, 226563, Control_c, 0, 64, 38
1, 226578, Control_c, 0, 64, 35
1, 226593, Control_c, 0, 64, 31
1, 226607, Control_c, 0, 64, 26
1, 226622, Control_c, 0, 64, 19
1, 226622, Control_c, 0, 67, 86
1, 226637, Control_c, 0, 64, 0
1, 226696, Control_c, 0, 67, 85
1, 226734, Control_c, 0, 67, 85
1, 226749, Control_c, 0, 67, 83
1, 226763, Control_c, 0, 67, 76
1, 226778, Control_c, 0, 67, 68
1, 226793, Control_c, 0, 67, 58
1, 226807, Control_c, 0, 67, 48
1, 226822, Control_c, 0, 67, 37
1, 226837, Control_c, 0, 67, 23
1, 226852, Control_c, 0, 67, 0
1, 226927, End_track
0, 0, End_of_file
