0, 0, Header, 0, 1, 384
1, 0, Start_track
1, 0, Title_t, "Sonata K. 310--Ran Jia          "
1, 0, Text_t, "2009 Piano-e-Competition audition round"
1, 0, Text_t, "captured January 2009"
1, 0, Text_t, "http://www.piano-e-competition.com/"
1, 0, Text_t, "File processed for distribution by software from Zenph Studios, Inc., http://www.zenph.com"
1, 0, Instrument_name_t, "Yamaha Disklavier Pro Mark IV concert grand piano, model DCFIIISM4PRO"
1, 0, Sequencer_specific, 39, 67, 113, 0, 1, 0, 1, 0, 83, 111, 110, 97, 116, 97, 32, 75, 46, 32, 51, 49, 48, 32, 32, 32, 82, 97, 110, 32, 74, 105, 97, 32, 32, 32, 32, 32, 32, 32, 32, 32
1, 0, Sequencer_specific, 6, 67, 113, 0, 0, 0, 69
1, 0, System_exclusive, 21, 67, 113, 126, 21, 0, 2, 2, 0, 3, 14, 1, 4, 1, 13, 13, 10, 11, 9, 2, 7, 247
1, 0, Sequencer_specific, 5, 67, 123, 12, 2, 1
1, 0, Tempo, 512820
1, 0, Time_signature, 4, 2, 24, 8
1, 0, System_exclusive, 5, 126, 127, 9, 1, 247
1, 1, System_exclusive, 8, 67, 16, 76, 0, 0, 126, 0, 247
1, 2, System_exclusive, 8, 67, 16, 76, 8, 9, 7, 1, 247
1, 3, Control_c, 0, 0, 0
1, 3, Control_c, 1, 0, 0
1, 3, Control_c, 2, 0, 0
1, 3, Control_c, 3, 0, 0
1, 3, Control_c, 4, 0, 0
1, 3, Control_c, 5, 0, 0
1, 3, Control_c, 6, 0, 0
1, 3, Control_c, 7, 0, 0
1, 3, Control_c, 8, 0, 0
1, 3, Control_c, 9, 0, 127
1, 3, Control_c, 10, 0, 0
1, 3, Control_c, 11, 0, 0
1, 3, Control_c, 12, 0, 0
1, 3, Control_c, 13, 0, 0
1, 3, Control_c, 14, 0, 0
1, 3, Control_c, 15, 0, 0
1, 4, Control_c, 0, 32, 0
1, 4, Control_c, 1, 32, 0
1, 4, Control_c, 2, 32, 0
1, 4, Control_c, 3, 32, 0
1, 4, Control_c, 4, 32, 0
1, 4, Control_c, 5, 32, 0
1, 4, Control_c, 6, 32, 0
1, 4, Control_c, 7, 32, 0
1, 4, Control_c, 8, 32, 0
1, 4, Control_c, 9, 32, 0
1, 4, Control_c, 10, 32, 0
1, 4, Control_c, 11, 32, 0
1, 4, Control_c, 12, 32, 0
1, 4, Control_c, 13, 32, 0
1, 4, Control_c, 14, 32, 0
1, 4, Control_c, 15, 32, 0
1, 5, Program_c, 0, 0
1, 5, Program_c, 1, 0
1, 5, Program_c, 2, 0
1, 5, Program_c, 3, 0
1, 5, Program_c, 4, 0
1, 5, Program_c, 5, 0
1, 5, Program_c, 6, 0
1, 5, Program_c, 7, 0
1, 5, Program_c, 8, 0
1, 5, Program_c, 9, 0
1, 5, Program_c, 10, 0
1, 5, Program_c, 11, 0
1, 5, Program_c, 12, 0
1, 5, Program_c, 13, 0
1, 5, Program_c, 14, 0
1, 5, Program_c, 15, 0
1, 6, Control_c, 0, 7, 100
1, 6, Control_c, 1, 7, 100
1, 6, Control_c, 2, 7, 100
1, 6, Control_c, 3, 7, 100
1, 6, Control_c, 4, 7, 100
1, 6, Control_c, 5, 7, 100
1, 6, Control_c, 6, 7, 100
1, 6, Control_c, 7, 7, 100
1, 6, Control_c, 8, 7, 100
1, 6, Control_c, 9, 7, 100
1, 6, Control_c, 10, 7, 100
1, 6, Control_c, 11, 7, 100
1, 6, Control_c, 12, 7, 100
1, 6, Control_c, 13, 7, 100
1, 6, Control_c, 14, 7, 100
1, 6, Control_c, 15, 7, 100
1, 1129, Note_on_c, 0, 75, 72
1, 1173, Note_on_c, 0, 76, 95
1, 1178, Note_off_c, 0, 75, 64
1, 1194, Note_on_c, 0, 64, 62
1, 1197, Note_on_c, 0, 60, 63
1, 1200, Note_on_c, 0, 57, 60
1, 1239, Control_c, 0, 64, 12
1, 1254, Control_c, 0, 64, 32
1, 1269, Control_c, 0, 64, 48
1, 1283, Control_c, 0, 64, 64
1, 1298, Control_c, 0, 64, 83
1, 1313, Control_c, 0, 64, 127
1, 1345, Note_off_c, 0, 60, 57
1, 1351, Note_off_c, 0, 57, 52
1, 1353, Note_off_c, 0, 64, 50
1, 1478, Note_on_c, 0, 60, 57
1, 1480, Note_on_c, 0, 64, 59
1, 1482, Note_on_c, 0, 57, 52
1, 1549, Note_off_c, 0, 60, 57
1, 1551, Note_off_c, 0, 64, 53
1, 1551, Note_off_c, 0, 57, 50
1, 1601, Note_off_c, 0, 76, 58
1, 1682, Note_on_c, 0, 76, 99
1, 1684, Note_on_c, 0, 60, 62
1, 1690, Note_on_c, 0, 57, 54
1, 1691, Note_on_c, 0, 64, 57
1, 1716, Note_off_c, 0, 76, 68
1, 1728, Note_off_c, 0, 57, 57
1, 1730, Note_off_c, 0, 60, 58
1, 1734, Note_off_c, 0, 64, 56
1, 1875, Note_on_c, 0, 60, 47
1, 1881, Note_on_c, 0, 64, 44
1, 1888, Note_on_c, 0, 57, 45
1, 1928, Note_off_c, 0, 57, 59
1, 1928, Note_off_c, 0, 60, 60
1, 1932, Note_off_c, 0, 64, 52
1, 1957, Note_on_c, 0, 76, 85
1, 1976, Note_off_c, 0, 76, 72
1, 2029, Note_on_c, 0, 76, 91
1, 2033, Note_on_c, 0, 60, 64
1, 2035, Note_on_c, 0, 64, 59
1, 2037, Note_on_c, 0, 57, 50
1, 2076, Note_off_c, 0, 57, 59
1, 2076, Note_off_c, 0, 60, 61
1, 2089, Note_off_c, 0, 64, 52
1, 2214, Note_on_c, 0, 60, 48
1, 2215, Note_on_c, 0, 64, 51
1, 2217, Note_on_c, 0, 57, 43
1, 2265, Note_off_c, 0, 60, 55
1, 2272, Note_off_c, 0, 64, 54
1, 2273, Note_off_c, 0, 57, 57
1, 2389, Note_on_c, 0, 72, 84
1, 2391, Note_on_c, 0, 57, 51
1, 2393, Note_on_c, 0, 60, 56
1, 2393, Note_on_c, 0, 64, 57
1, 2438, Note_off_c, 0, 60, 57
1, 2446, Note_off_c, 0, 57, 54
1, 2449, Note_off_c, 0, 64, 53
1, 2462, Note_off_c, 0, 76, 60
1, 2550, Note_on_c, 0, 60, 53
1, 2558, Note_on_c, 0, 64, 51
1, 2565, Note_on_c, 0, 57, 44
1, 2601, Note_off_c, 0, 60, 63
1, 2617, Note_off_c, 0, 72, 64
1, 2621, Note_off_c, 0, 64, 55
1, 2624, Note_on_c, 0, 69, 76
1, 2627, Note_off_c, 0, 57, 57
1, 2656, Note_off_c, 0, 69, 63
1, 2713, Note_on_c, 0, 69, 73
1, 2722, Control_c, 0, 64, 74
1, 2736, Control_c, 0, 64, 60
1, 2738, Note_on_c, 0, 57, 54
1, 2741, Note_on_c, 0, 64, 53
1, 2747, Note_on_c, 0, 59, 56
1, 2749, Note_on_c, 0, 68, 86
1, 2751, Control_c, 0, 64, 43
1, 2752, Note_on_c, 0, 62, 55
1, 2766, Control_c, 0, 64, 0
1, 2777, Note_off_c, 0, 69, 66
1, 2804, Note_off_c, 0, 62, 51
1, 2810, Note_off_c, 0, 59, 53
1, 2810, Control_c, 0, 64, 22
1, 2815, Note_off_c, 0, 64, 53
1, 2821, Note_off_c, 0, 57, 58
1, 2825, Control_c, 0, 64, 37
1, 2840, Control_c, 0, 64, 50
1, 2854, Control_c, 0, 64, 61
1, 2869, Control_c, 0, 64, 70
1, 2884, Control_c, 0, 64, 78
1, 2899, Control_c, 0, 64, 89
1, 2914, Control_c, 0, 64, 105
1, 2928, Control_c, 0, 64, 127
1, 2934, Note_on_c, 0, 62, 50
1, 2943, Note_on_c, 0, 57, 48
1, 2943, Note_on_c, 0, 64, 45
1, 2947, Note_on_c, 0, 59, 43
1, 2958, Note_off_c, 0, 68, 55
1, 2980, Note_off_c, 0, 59, 56
1, 2982, Note_off_c, 0, 62, 56
1, 2986, Note_off_c, 0, 57, 59
1, 2991, Note_off_c, 0, 64, 46
1, 3106, Note_on_c, 0, 68, 76
1, 3107, Note_on_c, 0, 64, 54
1, 3108, Note_on_c, 0, 62, 57
1, 3109, Note_on_c, 0, 57, 46
1, 3116, Note_on_c, 0, 59, 41
1, 3155, Note_off_c, 0, 59, 59
1, 3164, Note_off_c, 0, 64, 55
1, 3166, Note_off_c, 0, 57, 54
1, 3166, Note_off_c, 0, 62, 55
1, 3174, Note_off_c, 0, 68, 60
1, 3286, Note_on_c, 0, 62, 55
1, 3286, Note_on_c, 0, 64, 53
1, 3286, Note_on_c, 0, 57, 53
1, 3294, Note_on_c, 0, 59, 41
1, 3329, Note_off_c, 0, 59, 59
1, 3331, Note_off_c, 0, 62, 58
1, 3335, Note_off_c, 0, 57, 52
1, 3336, Note_off_c, 0, 64, 55
1, 3458, Note_on_c, 0, 64, 58
1, 3459, Note_on_c, 0, 57, 54
1, 3463, Note_on_c, 0, 62, 54
1, 3471, Note_on_c, 0, 59, 46
1, 3509, Note_off_c, 0, 59, 59
1, 3521, Note_off_c, 0, 62, 56
1, 3527, Note_off_c, 0, 57, 58
1, 3528, Note_off_c, 0, 64, 58
1, 3629, Note_on_c, 0, 64, 57
1, 3630, Note_on_c, 0, 57, 59
1, 3632, Note_on_c, 0, 62, 58
1, 3635, Note_on_c, 0, 59, 41
1, 3691, Note_off_c, 0, 59, 48
1, 3691, Note_off_c, 0, 62, 48
1, 3696, Note_off_c, 0, 64, 53
1, 3702, Note_off_c, 0, 57, 57
1, 3809, Note_on_c, 0, 74, 82
1, 3820, Control_c, 0, 64, 93
1, 3821, Note_on_c, 0, 64, 53
1, 3823, Note_on_c, 0, 59, 45
1, 3826, Note_on_c, 0, 62, 54
1, 3829, Note_on_c, 0, 57, 53
1, 3835, Control_c, 0, 64, 75
1, 3850, Control_c, 0, 64, 66
1, 3864, Control_c, 0, 64, 63
1, 3883, Note_off_c, 0, 59, 53
1, 3885, Note_off_c, 0, 62, 55
1, 3886, Note_off_c, 0, 64, 55
1, 3890, Note_off_c, 0, 57, 52
1, 3894, Control_c, 0, 64, 64
1, 3909, Control_c, 0, 64, 66
1, 3924, Control_c, 0, 64, 67
1, 3939, Control_c, 0, 64, 69
1, 3954, Control_c, 0, 64, 70
1, 3969, Control_c, 0, 64, 71
1, 3983, Control_c, 0, 64, 71
1, 3996, Note_on_c, 0, 64, 56
1, 3997, Note_on_c, 0, 62, 52
1, 3999, Note_on_c, 0, 59, 56
1, 4008, Note_on_c, 0, 57, 52
1, 4039, Note_off_c, 0, 62, 56
1, 4057, Control_c, 0, 64, 69
1, 4058, Note_off_c, 0, 59, 57
1, 4065, Note_off_c, 0, 64, 58
1, 4070, Note_off_c, 0, 57, 57
1, 4072, Control_c, 0, 64, 66
1, 4076, Note_off_c, 0, 74, 66
1, 4077, Note_on_c, 0, 71, 77
1, 4087, Control_c, 0, 64, 61
1, 4101, Control_c, 0, 64, 52
1, 4116, Control_c, 0, 64, 33
1, 4131, Control_c, 0, 64, 0
1, 4153, Note_on_c, 0, 76, 91
1, 4161, Note_on_c, 0, 60, 63
1, 4163, Note_on_c, 0, 64, 64
1, 4168, Note_on_c, 0, 57, 61
1, 4179, Note_off_c, 0, 71, 55
1, 4223, Note_off_c, 0, 60, 59
1, 4227, Note_off_c, 0, 64, 56
1, 4228, Note_off_c, 0, 57, 55
1, 4234, Control_c, 0, 64, 22
1, 4249, Control_c, 0, 64, 39
1, 4264, Control_c, 0, 64, 52
1, 4279, Control_c, 0, 64, 63
1, 4294, Control_c, 0, 64, 74
1, 4309, Control_c, 0, 64, 88
1, 4318, Note_on_c, 0, 64, 61
1, 4324, Control_c, 0, 64, 101
1, 4326, Note_on_c, 0, 60, 58
1, 4328, Note_on_c, 0, 57, 58
1, 4338, Control_c, 0, 64, 127
1, 4368, Note_off_c, 0, 60, 54
1, 4375, Note_off_c, 0, 57, 59
1, 4380, Note_off_c, 0, 64, 57
1, 4406, Note_off_c, 0, 76, 65
1, 4483, Note_on_c, 0, 76, 90
1, 4489, Note_on_c, 0, 60, 62
1, 4493, Note_on_c, 0, 57, 54
1, 4496, Note_on_c, 0, 64, 58
1, 4538, Note_off_c, 0, 60, 54
1, 4538, Note_off_c, 0, 76, 66
1, 4539, Note_off_c, 0, 64, 56
1, 4547, Note_off_c, 0, 57, 59
1, 4664, Note_on_c, 0, 60, 53
1, 4677, Note_on_c, 0, 64, 46
1, 4678, Note_on_c, 0, 57, 44
1, 4729, Note_off_c, 0, 60, 60
1, 4730, Note_off_c, 0, 57, 54
1, 4730, Note_off_c, 0, 64, 54
1, 4748, Note_on_c, 0, 76, 73
1, 4764, Note_off_c, 0, 76, 71
1, 4815, Note_on_c, 0, 76, 88
1, 4827, Note_on_c, 0, 57, 57
1, 4829, Note_on_c, 0, 64, 60
1, 4832, Note_on_c, 0, 60, 62
1, 4862, Note_off_c, 0, 60, 63
1, 4870, Note_off_c, 0, 64, 49
1, 4874, Note_off_c, 0, 57, 59
1, 4968, Note_off_c, 0, 76, 62
1, 4988, Note_on_c, 0, 60, 55
1, 4988, Note_on_c, 0, 77, 82
1, 4991, Note_on_c, 0, 64, 58
1, 4998, Note_on_c, 0, 57, 52
1, 5035, Note_off_c, 0, 57, 60
1, 5036, Note_off_c, 0, 60, 57
1, 5040, Note_off_c, 0, 64, 53
1, 5062, Note_on_c, 0, 76, 85
1, 5081, Note_off_c, 0, 77, 61
1, 5143, Note_on_c, 0, 74, 78
1, 5146, Note_on_c, 0, 57, 54
1, 5146, Note_on_c, 0, 60, 67
1, 5149, Note_on_c, 0, 64, 62
1, 5165, Note_off_c, 0, 76, 59
1, 5199, Note_off_c, 0, 60, 56
1, 5203, Note_off_c, 0, 64, 55
1, 5206, Note_off_c, 0, 57, 60
1, 5213, Note_off_c, 0, 74, 66
1, 5218, Note_on_c, 0, 72, 78
1, 5272, Control_c, 0, 64, 122
1, 5287, Control_c, 0, 64, 114
1, 5292, Note_off_c, 0, 72, 42
1, 5299, Note_on_c, 0, 60, 60
1, 5299, Note_on_c, 0, 64, 61
1, 5301, Note_on_c, 0, 71, 80
1, 5302, Control_c, 0, 64, 105
1, 5309, Note_on_c, 0, 57, 54
1, 5317, Control_c, 0, 64, 100
1, 5331, Control_c, 0, 64, 94
1, 5346, Control_c, 0, 64, 88
1, 5360, Note_off_c, 0, 60, 62
1, 5361, Control_c, 0, 64, 84
1, 5365, Note_on_c, 0, 69, 83
1, 5374, Note_off_c, 0, 71, 65
1, 5377, Control_c, 0, 64, 79
1, 5378, Note_off_c, 0, 64, 56
1, 5380, Note_off_c, 0, 57, 56
1, 5392, Control_c, 0, 64, 73
1, 5404, Note_off_c, 0, 69, 64
1, 5406, Control_c, 0, 64, 67
1, 5421, Control_c, 0, 64, 62
1, 5436, Control_c, 0, 64, 51
1, 5451, Note_on_c, 0, 69, 79
1, 5451, Control_c, 0, 64, 29
1, 5466, Control_c, 0, 64, 0
1, 5483, Note_on_c, 0, 57, 57
1, 5483, Note_on_c, 0, 62, 57
1, 5483, Note_on_c, 0, 64, 60
1, 5487, Note_on_c, 0, 59, 46
1, 5500, Note_on_c, 0, 68, 84
1, 5528, Note_off_c, 0, 69, 67
1, 5535, Note_off_c, 0, 59, 55
1, 5540, Note_off_c, 0, 62, 53
1, 5545, Note_off_c, 0, 64, 54
1, 5554, Note_off_c, 0, 57, 56
1, 5555, Control_c, 0, 64, 14
1, 5570, Control_c, 0, 64, 27
1, 5584, Control_c, 0, 64, 39
1, 5599, Control_c, 0, 64, 50
1, 5614, Control_c, 0, 64, 59
1, 5629, Control_c, 0, 64, 65
1, 5644, Control_c, 0, 64, 72
1, 5659, Control_c, 0, 64, 76
1, 5661, Note_on_c, 0, 62, 56
1, 5664, Note_on_c, 0, 64, 59
1, 5668, Note_on_c, 0, 57, 58
1, 5669, Note_on_c, 0, 59, 47
1, 5673, Control_c, 0, 64, 80
1, 5688, Control_c, 0, 64, 84
1, 5703, Control_c, 0, 64, 89
1, 5714, Note_off_c, 0, 59, 55
1, 5718, Control_c, 0, 64, 94
1, 5724, Note_off_c, 0, 57, 52
1, 5724, Note_off_c, 0, 64, 53
1, 5725, Note_off_c, 0, 62, 55
1, 5733, Control_c, 0, 64, 95
1, 5747, Control_c, 0, 64, 91
1, 5762, Control_c, 0, 64, 77
1, 5763, Note_off_c, 0, 68, 60
1, 5777, Control_c, 0, 64, 62
1, 5792, Control_c, 0, 64, 48
1, 5806, Control_c, 0, 64, 35
1, 5821, Control_c, 0, 64, 37
1, 5826, Note_on_c, 0, 68, 81
1, 5836, Control_c, 0, 64, 46
1, 5843, Note_on_c, 0, 64, 53
1, 5844, Note_on_c, 0, 57, 52
1, 5847, Note_on_c, 0, 62, 55
1, 5849, Note_on_c, 0, 59, 39
1, 5851, Control_c, 0, 64, 58
1, 5866, Control_c, 0, 64, 73
1, 5880, Control_c, 0, 64, 102
1, 5889, Note_off_c, 0, 59, 58
1, 5894, Note_off_c, 0, 57, 55
1, 5894, Note_off_c, 0, 62, 54
1, 5895, Control_c, 0, 64, 127
1, 5896, Note_off_c, 0, 64, 55
1, 5939, Note_off_c, 0, 68, 61
1, 6011, Note_on_c, 0, 59, 43
1, 6014, Note_on_c, 0, 64, 54
1, 6017, Note_on_c, 0, 62, 54
1, 6021, Note_on_c, 0, 57, 57
1, 6058, Note_off_c, 0, 62, 56
1, 6061, Note_off_c, 0, 59, 57
1, 6064, Note_off_c, 0, 64, 56
1, 6067, Note_off_c, 0, 57, 57
1, 6175, Note_on_c, 0, 64, 67
1, 6178, Note_on_c, 0, 57, 57
1, 6179, Note_on_c, 0, 62, 63
1, 6184, Note_on_c, 0, 59, 56
1, 6231, Note_off_c, 0, 59, 53
1, 6243, Note_off_c, 0, 62, 57
1, 6244, Note_off_c, 0, 64, 55
1, 6250, Note_off_c, 0, 57, 58
1, 6343, Note_on_c, 0, 64, 65
1, 6345, Note_on_c, 0, 57, 58
1, 6348, Note_on_c, 0, 59, 50
1, 6352, Note_on_c, 0, 62, 65
1, 6410, Note_off_c, 0, 59, 53
1, 6418, Note_off_c, 0, 62, 56
1, 6419, Note_off_c, 0, 64, 54
1, 6425, Note_off_c, 0, 57, 58
1, 6496, Control_c, 0, 64, 93
1, 6504, Note_on_c, 0, 74, 87
1, 6511, Control_c, 0, 64, 71
1, 6513, Note_on_c, 0, 64, 63
1, 6520, Note_on_c, 0, 62, 65
1, 6523, Note_on_c, 0, 57, 57
1, 6526, Control_c, 0, 64, 59
1, 6527, Note_on_c, 0, 59, 59
1, 6541, Control_c, 0, 64, 41
1, 6555, Control_c, 0, 64, 25
1, 6570, Control_c, 0, 64, 24
1, 6584, Note_off_c, 0, 59, 47
1, 6585, Control_c, 0, 64, 29
1, 6598, Note_off_c, 0, 62, 56
1, 6600, Note_off_c, 0, 64, 53
1, 6600, Control_c, 0, 64, 35
1, 6611, Note_off_c, 0, 57, 52
1, 6615, Control_c, 0, 64, 42
1, 6629, Control_c, 0, 64, 52
1, 6644, Control_c, 0, 64, 60
1, 6659, Control_c, 0, 64, 66
1, 6674, Control_c, 0, 64, 70
1, 6675, Note_on_c, 0, 62, 59
1, 6678, Note_on_c, 0, 64, 61
1, 6685, Note_on_c, 0, 59, 57
1, 6688, Control_c, 0, 64, 73
1, 6692, Note_on_c, 0, 57, 55
1, 6703, Control_c, 0, 64, 75
1, 6718, Control_c, 0, 64, 80
1, 6733, Control_c, 0, 64, 95
1, 6736, Note_off_c, 0, 62, 60
1, 6755, Note_off_c, 0, 59, 59
1, 6755, Control_c, 0, 64, 127
1, 6765, Note_off_c, 0, 64, 55
1, 6768, Note_off_c, 0, 74, 64
1, 6771, Note_on_c, 0, 71, 72
1, 6775, Note_off_c, 0, 57, 60
1, 6824, Note_off_c, 0, 71, 65
1, 6829, Control_c, 0, 64, 91
1, 6844, Control_c, 0, 64, 64
1, 6848, Note_on_c, 0, 57, 69
1, 6849, Note_on_c, 0, 76, 89
1, 6851, Note_on_c, 0, 64, 65
1, 6855, Note_on_c, 0, 60, 65
1, 6856, Note_on_c, 0, 72, 80
1, 6859, Control_c, 0, 64, 44
1, 6869, Note_off_c, 0, 64, 66
1, 6873, Note_off_c, 0, 60, 65
1, 6874, Control_c, 0, 64, 0
1, 6879, Note_off_c, 0, 57, 64
1, 6903, Control_c, 0, 64, 12
1, 6918, Control_c, 0, 64, 26
1, 6933, Control_c, 0, 64, 37
1, 6947, Control_c, 0, 64, 48
1, 6962, Control_c, 0, 64, 59
1, 6978, Control_c, 0, 64, 68
1, 6993, Control_c, 0, 64, 81
1, 7000, Note_off_c, 0, 72, 59
1, 7008, Control_c, 0, 64, 100
1, 7023, Control_c, 0, 64, 127
1, 7029, Note_on_c, 0, 57, 76
1, 7062, Note_off_c, 0, 76, 62
1, 7095, Note_on_c, 0, 69, 69
1, 7097, Control_c, 0, 64, 84
1, 7098, Note_on_c, 0, 72, 77
1, 7112, Control_c, 0, 64, 62
1, 7114, Note_off_c, 0, 57, 59
1, 7117, Note_off_c, 0, 72, 72
1, 7118, Note_off_c, 0, 69, 72
1, 7126, Control_c, 0, 64, 43
1, 7141, Control_c, 0, 64, 0
1, 7185, Note_on_c, 0, 52, 66
1, 7185, Note_on_c, 0, 76, 74
1, 7190, Note_on_c, 0, 72, 68
1, 7212, Note_off_c, 0, 52, 69
1, 7346, Note_on_c, 0, 48, 67
1, 7383, Note_off_c, 0, 48, 65
1, 7418, Note_off_c, 0, 72, 35
1, 7499, Note_off_c, 0, 76, 60
1, 7523, Note_on_c, 0, 45, 55
1, 7623, Control_c, 0, 67, 12
1, 7638, Control_c, 0, 67, 26
1, 7652, Control_c, 0, 67, 47
1, 7667, Control_c, 0, 67, 79
1, 7682, Control_c, 0, 67, 118
1, 7687, Note_off_c, 0, 45, 62
1, 7696, Note_on_c, 0, 72, 53
1, 7697, Note_on_c, 0, 69, 55
1, 7697, Control_c, 0, 67, 127
1, 7722, Note_off_c, 0, 69, 60
1, 7725, Note_off_c, 0, 72, 54
1, 7845, Note_on_c, 0, 74, 66
1, 7867, Note_on_c, 0, 71, 39
1, 7891, Note_off_c, 0, 74, 65
1, 7895, Note_off_c, 0, 71, 58
1, 8000, Note_on_c, 0, 76, 72
1, 8011, Note_on_c, 0, 72, 55
1, 8032, Note_off_c, 0, 72, 62
1, 8032, Note_off_c, 0, 76, 64
1, 8185, Note_on_c, 0, 76, 63
1, 8200, Note_on_c, 0, 73, 49
1, 8253, Control_c, 0, 64, 19
1, 8268, Control_c, 0, 64, 32
1, 8269, Note_off_c, 0, 73, 0
1, 8269, Note_on_c, 0, 73, 16
1, 8282, Control_c, 0, 64, 40
1, 8297, Control_c, 0, 64, 50
1, 8312, Control_c, 0, 64, 59
1, 8327, Control_c, 0, 64, 64
1, 8342, Control_c, 0, 64, 69
1, 8357, Control_c, 0, 64, 72
1, 8372, Control_c, 0, 64, 74
1, 8386, Control_c, 0, 64, 76
1, 8401, Control_c, 0, 64, 78
1, 8416, Control_c, 0, 64, 79
1, 8431, Control_c, 0, 64, 79
1, 8431, Note_off_c, 0, 73, 45
1, 8488, Note_off_c, 0, 76, 58
1, 8519, Control_c, 0, 64, 77
1, 8534, Control_c, 0, 64, 71
1, 8549, Control_c, 0, 64, 62
1, 8563, Note_on_c, 0, 77, 47
1, 8564, Note_on_c, 0, 74, 38
1, 8564, Control_c, 0, 64, 50
1, 8570, Note_on_c, 0, 60, 36
1, 8580, Note_on_c, 0, 57, 30
1, 8580, Control_c, 0, 64, 31
1, 8585, Note_on_c, 0, 62, 28
1, 8589, Note_on_c, 0, 53, 34
1, 8595, Control_c, 0, 64, 11
1, 8610, Control_c, 0, 64, 16
1, 8612, Note_off_c, 0, 77, 0
1, 8612, Note_on_c, 0, 77, 5
1, 8624, Control_c, 0, 64, 25
1, 8639, Control_c, 0, 64, 35
1, 8654, Control_c, 0, 64, 45
1, 8669, Control_c, 0, 64, 56
1, 8684, Control_c, 0, 64, 64
1, 8698, Control_c, 0, 64, 68
1, 8713, Control_c, 0, 64, 70
1, 8720, Note_off_c, 0, 60, 42
1, 8723, Note_off_c, 0, 62, 40
1, 8728, Control_c, 0, 64, 72
1, 8738, Note_off_c, 0, 53, 34
1, 8739, Note_off_c, 0, 77, 52
1, 8742, Note_off_c, 0, 57, 39
1, 8742, Control_c, 0, 64, 74
1, 8746, Note_off_c, 0, 74, 65
1, 8757, Control_c, 0, 64, 75
1, 8772, Control_c, 0, 64, 76
1, 8861, Control_c, 0, 64, 75
1, 8876, Control_c, 0, 64, 74
1, 8890, Control_c, 0, 64, 70
1, 8905, Control_c, 0, 64, 66
1, 8920, Control_c, 0, 64, 61
1, 8931, Note_on_c, 0, 62, 41
1, 8935, Control_c, 0, 64, 51
1, 8938, Note_on_c, 0, 59, 39
1, 8942, Note_on_c, 0, 55, 47
1, 8950, Control_c, 0, 64, 38
1, 8965, Control_c, 0, 64, 19
1, 8980, Control_c, 0, 64, 0
1, 9099, Note_off_c, 0, 55, 57
1, 9099, Note_on_c, 0, 67, 58
1, 9103, Note_on_c, 0, 71, 56
1, 9112, Note_off_c, 0, 62, 57
1, 9117, Note_off_c, 0, 59, 50
1, 9133, Note_off_c, 0, 67, 63
1, 9137, Note_off_c, 0, 71, 61
1, 9247, Note_on_c, 0, 72, 68
1, 9256, Note_on_c, 0, 69, 57
1, 9279, Note_off_c, 0, 69, 59
1, 9294, Note_off_c, 0, 72, 62
1, 9403, Note_on_c, 0, 74, 62
1, 9408, Note_on_c, 0, 71, 58
1, 9430, Note_off_c, 0, 71, 62
1, 9439, Note_off_c, 0, 74, 60
1, 9603, Note_on_c, 0, 75, 54
1, 9625, Note_on_c, 0, 71, 33
1, 9668, Note_off_c, 0, 71, 0
1, 9668, Note_on_c, 0, 71, 5
1, 9669, Control_c, 0, 64, 9
1, 9684, Control_c, 0, 64, 20
1, 9699, Control_c, 0, 64, 30
1, 9713, Control_c, 0, 64, 38
1, 9729, Control_c, 0, 64, 47
1, 9752, Control_c, 0, 64, 55
1, 9767, Control_c, 0, 64, 62
1, 9781, Control_c, 0, 64, 65
1, 9796, Control_c, 0, 64, 67
1, 9803, Note_off_c, 0, 71, 48
1, 9811, Control_c, 0, 64, 68
1, 9826, Control_c, 0, 64, 70
1, 9841, Control_c, 0, 64, 71
1, 9855, Control_c, 0, 64, 73
1, 9870, Control_c, 0, 64, 74
1, 9885, Control_c, 0, 64, 74
1, 9886, Note_off_c, 0, 75, 54
1, 9944, Control_c, 0, 64, 73
1, 9959, Control_c, 0, 64, 69
1, 9973, Control_c, 0, 64, 63
1, 9987, Note_on_c, 0, 76, 43
1, 9988, Control_c, 0, 64, 51
1, 9993, Note_on_c, 0, 72, 31
1, 9999, Note_on_c, 0, 59, 29
1, 10003, Control_c, 0, 64, 36
1, 10007, Note_on_c, 0, 60, 28
1, 10008, Note_on_c, 0, 52, 37
1, 10008, Note_on_c, 0, 55, 33
1, 10018, Control_c, 0, 64, 24
1, 10033, Control_c, 0, 64, 26
1, 10047, Control_c, 0, 64, 32
1, 10055, Note_off_c, 0, 76, 0
1, 10055, Note_on_c, 0, 76, 3
1, 10056, Note_off_c, 0, 72, 0
1, 10056, Note_on_c, 0, 72, 3
1, 10062, Control_c, 0, 64, 38
1, 10077, Control_c, 0, 64, 50
1, 10092, Control_c, 0, 64, 60
1, 10102, Note_off_c, 0, 72, 59
1, 10103, Note_off_c, 0, 76, 58
1, 10106, Control_c, 0, 64, 66
1, 10121, Note_off_c, 0, 52, 55
1, 10121, Control_c, 0, 64, 69
1, 10126, Note_off_c, 0, 60, 42
1, 10136, Control_c, 0, 64, 70
1, 10151, Control_c, 0, 64, 71
1, 10153, Note_off_c, 0, 55, 41
1, 10153, Note_off_c, 0, 59, 37
1, 10167, Control_c, 0, 64, 71
1, 10270, Control_c, 0, 64, 70
1, 10285, Control_c, 0, 64, 69
1, 10300, Control_c, 0, 64, 67
1, 10315, Control_c, 0, 64, 65
1, 10330, Control_c, 0, 64, 63
1, 10345, Control_c, 0, 64, 60
1, 10360, Note_on_c, 0, 60, 42
1, 10360, Control_c, 0, 64, 52
1, 10365, Note_on_c, 0, 57, 40
1, 10375, Control_c, 0, 64, 40
1, 10377, Note_on_c, 0, 53, 37
1, 10389, Control_c, 0, 64, 23
1, 10404, Control_c, 0, 64, 0
1, 10418, Note_off_c, 0, 60, 0
1, 10418, Note_on_c, 0, 60, 3
1, 10525, Note_on_c, 0, 69, 58
1, 10531, Note_on_c, 0, 65, 51
1, 10560, Note_off_c, 0, 65, 58
1, 10586, Note_off_c, 0, 69, 64
1, 10595, Note_off_c, 0, 60, 51
1, 10607, Note_off_c, 0, 53, 43
1, 10640, Note_off_c, 0, 57, 35
1, 10674, Note_on_c, 0, 71, 71
1, 10682, Note_on_c, 0, 68, 64
1, 10725, Note_off_c, 0, 68, 57
1, 10761, Note_off_c, 0, 71, 64
1, 10831, Note_on_c, 0, 72, 75
1, 10836, Note_on_c, 0, 69, 67
1, 10881, Note_off_c, 0, 69, 66
1, 10914, Note_off_c, 0, 72, 63
1, 11003, Note_on_c, 0, 72, 79
1, 11093, Control_c, 0, 64, 20
1, 11108, Control_c, 0, 64, 30
1, 11123, Control_c, 0, 64, 39
1, 11137, Control_c, 0, 64, 47
1, 11152, Control_c, 0, 64, 54
1, 11167, Control_c, 0, 64, 60
1, 11182, Control_c, 0, 64, 63
1, 11197, Note_off_c, 0, 72, 61
1, 11197, Control_c, 0, 64, 64
1, 11211, Control_c, 0, 64, 64
1, 11226, Control_c, 0, 64, 65
1, 11248, Control_c, 0, 64, 66
1, 11263, Control_c, 0, 64, 67
1, 11281, Note_on_c, 0, 71, 62
1, 11308, Control_c, 0, 64, 67
1, 11323, Control_c, 0, 64, 63
1, 11338, Control_c, 0, 64, 57
1, 11344, Note_on_c, 0, 77, 78
1, 11352, Control_c, 0, 64, 43
1, 11355, Note_on_c, 0, 59, 50
1, 11363, Note_on_c, 0, 53, 46
1, 11367, Control_c, 0, 64, 17
1, 11382, Control_c, 0, 64, 0
1, 11383, Note_on_c, 0, 50, 43
1, 11385, Note_off_c, 0, 71, 61
1, 11441, Control_c, 0, 64, 17
1, 11444, Note_off_c, 0, 53, 63
1, 11456, Control_c, 0, 64, 29
1, 11471, Control_c, 0, 64, 38
1, 11486, Control_c, 0, 64, 47
1, 11500, Control_c, 0, 64, 55
1, 11515, Control_c, 0, 64, 60
1, 11520, Note_off_c, 0, 59, 37
1, 11521, Note_off_c, 0, 50, 58
1, 11530, Control_c, 0, 64, 62
1, 11544, Control_c, 0, 64, 63
1, 11606, Note_off_c, 0, 77, 62
1, 11608, Note_on_c, 0, 74, 59
1, 11648, Control_c, 0, 64, 62
1, 11663, Control_c, 0, 64, 59
1, 11673, Note_on_c, 0, 72, 64
1, 11678, Control_c, 0, 64, 50
1, 11683, Note_off_c, 0, 74, 59
1, 11692, Control_c, 0, 64, 31
1, 11704, Note_on_c, 0, 57, 37
1, 11707, Note_on_c, 0, 60, 42
1, 11707, Control_c, 0, 64, 0
1, 11719, Note_on_c, 0, 52, 43
1, 11797, Control_c, 0, 64, 17
1, 11812, Control_c, 0, 64, 26
1, 11827, Control_c, 0, 64, 34
1, 11838, Note_off_c, 0, 60, 48
1, 11841, Control_c, 0, 64, 41
1, 11856, Control_c, 0, 64, 48
1, 11871, Control_c, 0, 64, 53
1, 11886, Control_c, 0, 64, 57
1, 11901, Control_c, 0, 64, 59
1, 11916, Control_c, 0, 64, 60
1, 11920, Note_off_c, 0, 52, 36
1, 11931, Control_c, 0, 64, 61
1, 11942, Note_off_c, 0, 57, 40
1, 11946, Control_c, 0, 64, 62
1, 11958, Note_off_c, 0, 72, 57
1, 11960, Control_c, 0, 64, 63
1, 11975, Note_on_c, 0, 76, 49
1, 11975, Control_c, 0, 64, 64
1, 12027, Control_c, 0, 64, 63
1, 12041, Control_c, 0, 64, 61
1, 12055, Note_on_c, 0, 74, 49
1, 12056, Control_c, 0, 64, 55
1, 12070, Note_on_c, 0, 56, 46
1, 12071, Control_c, 0, 64, 42
1, 12073, Note_off_c, 0, 76, 38
1, 12074, Note_on_c, 0, 52, 29
1, 12084, Note_on_c, 0, 59, 26
1, 12086, Control_c, 0, 64, 14
1, 12101, Control_c, 0, 64, 0
1, 12145, Control_c, 0, 64, 19
1, 12160, Control_c, 0, 64, 29
1, 12175, Control_c, 0, 64, 40
1, 12190, Control_c, 0, 64, 49
1, 12205, Control_c, 0, 64, 57
1, 12220, Control_c, 0, 64, 62
1, 12234, Note_off_c, 0, 59, 41
1, 12235, Control_c, 0, 64, 64
1, 12264, Control_c, 0, 64, 64
1, 12268, Note_off_c, 0, 56, 37
1, 12279, Control_c, 0, 64, 65
1, 12294, Control_c, 0, 64, 65
1, 12294, Control_c, 0, 67, 114
1, 12309, Control_c, 0, 64, 66
1, 12309, Control_c, 0, 67, 95
1, 12319, Note_off_c, 0, 74, 48
1, 12323, Control_c, 0, 67, 73
1, 12338, Control_c, 0, 64, 66
1, 12338, Control_c, 0, 67, 52
1, 12353, Control_c, 0, 67, 36
1, 12367, Control_c, 0, 64, 68
1, 12367, Control_c, 0, 67, 24
1, 12377, Note_on_c, 0, 71, 55
1, 12382, Control_c, 0, 64, 72
1, 12382, Control_c, 0, 67, 17
1, 12397, Control_c, 0, 64, 78
1, 12397, Control_c, 0, 67, 12
1, 12412, Control_c, 0, 64, 89
1, 12412, Control_c, 0, 67, 10
1, 12427, Control_c, 0, 64, 108
1, 12427, Control_c, 0, 67, 9
1, 12441, Control_c, 0, 64, 127
1, 12441, Control_c, 0, 67, 0
1, 12443, Note_on_c, 0, 75, 75
1, 12446, Note_off_c, 0, 71, 64
1, 12471, Control_c, 0, 64, 70
1, 12485, Control_c, 0, 64, 38
1, 12492, Note_off_c, 0, 52, 44
1, 12493, Note_on_c, 0, 76, 91
1, 12500, Note_off_c, 0, 75, 67
1, 12500, Control_c, 0, 64, 0
1, 12514, Note_on_c, 0, 64, 68
1, 12515, Note_on_c, 0, 60, 64
1, 12520, Note_on_c, 0, 57, 61
1, 12576, Control_c, 0, 64, 10
1, 12590, Control_c, 0, 64, 56
1, 12605, Control_c, 0, 64, 127
1, 12662, Note_off_c, 0, 57, 57
1, 12664, Note_off_c, 0, 64, 58
1, 12664, Note_off_c, 0, 60, 58
1, 12777, Note_on_c, 0, 64, 61
1, 12780, Note_on_c, 0, 57, 68
1, 12781, Note_on_c, 0, 60, 72
1, 12844, Note_off_c, 0, 64, 55
1, 12847, Note_off_c, 0, 76, 64
1, 12849, Note_off_c, 0, 60, 58
1, 12850, Note_off_c, 0, 57, 57
1, 12940, Note_on_c, 0, 76, 100
1, 12953, Note_on_c, 0, 64, 63
1, 12954, Note_on_c, 0, 57, 66
1, 12959, Note_on_c, 0, 60, 66
1, 12979, Note_off_c, 0, 76, 67
1, 12997, Note_off_c, 0, 60, 60
1, 13006, Note_off_c, 0, 64, 52
1, 13013, Note_off_c, 0, 57, 57
1, 13113, Note_on_c, 0, 60, 54
1, 13117, Note_on_c, 0, 64, 58
1, 13124, Note_on_c, 0, 57, 62
1, 13189, Note_off_c, 0, 57, 52
1, 13193, Note_off_c, 0, 64, 54
1, 13195, Note_off_c, 0, 60, 56
1, 13196, Note_on_c, 0, 76, 89
1, 13214, Note_off_c, 0, 76, 73
1, 13272, Note_on_c, 0, 76, 91
1, 13278, Note_on_c, 0, 60, 53
1, 13279, Control_c, 0, 64, 86
1, 13281, Note_on_c, 0, 64, 53
1, 13284, Note_on_c, 0, 57, 57
1, 13294, Control_c, 0, 64, 76
1, 13308, Control_c, 0, 64, 75
1, 13321, Note_off_c, 0, 57, 58
1, 13323, Control_c, 0, 64, 75
1, 13324, Note_off_c, 0, 60, 58
1, 13328, Note_off_c, 0, 64, 50
1, 13338, Control_c, 0, 64, 78
1, 13354, Control_c, 0, 64, 84
1, 13369, Control_c, 0, 64, 95
1, 13384, Control_c, 0, 64, 115
1, 13399, Control_c, 0, 64, 127
1, 13416, Note_off_c, 0, 76, 63
1, 13445, Note_on_c, 0, 77, 81
1, 13450, Note_on_c, 0, 60, 64
1, 13452, Note_on_c, 0, 64, 60
1, 13457, Note_on_c, 0, 57, 53
1, 13473, Control_c, 0, 64, 89
1, 13494, Control_c, 0, 64, 69
1, 13495, Note_off_c, 0, 57, 61
1, 13504, Note_off_c, 0, 60, 55
1, 13509, Control_c, 0, 64, 59
1, 13510, Note_off_c, 0, 64, 52
1, 13524, Control_c, 0, 64, 46
1, 13525, Note_on_c, 0, 76, 84
1, 13538, Control_c, 0, 64, 43
1, 13542, Note_off_c, 0, 77, 60
1, 13553, Control_c, 0, 64, 45
1, 13568, Control_c, 0, 64, 50
1, 13583, Control_c, 0, 64, 56
1, 13598, Control_c, 0, 64, 62
1, 13603, Note_on_c, 0, 74, 81
1, 13606, Note_on_c, 0, 57, 56
1, 13612, Control_c, 0, 64, 69
1, 13613, Note_on_c, 0, 64, 62
1, 13615, Note_on_c, 0, 60, 61
1, 13627, Control_c, 0, 64, 73
1, 13630, Note_off_c, 0, 76, 59
1, 13642, Control_c, 0, 64, 74
1, 13647, Note_off_c, 0, 60, 64
1, 13653, Note_off_c, 0, 57, 61
1, 13657, Note_off_c, 0, 64, 60
1, 13677, Note_off_c, 0, 74, 66
1, 13680, Note_on_c, 0, 72, 84
1, 13716, Control_c, 0, 64, 73
1, 13731, Control_c, 0, 64, 72
1, 13746, Control_c, 0, 64, 69
1, 13748, Note_on_c, 0, 64, 55
1, 13749, Note_on_c, 0, 60, 58
1, 13749, Note_off_c, 0, 72, 58
1, 13758, Note_on_c, 0, 71, 76
1, 13761, Control_c, 0, 64, 67
1, 13774, Note_off_c, 0, 60, 63
1, 13776, Control_c, 0, 64, 65
1, 13791, Control_c, 0, 64, 63
1, 13798, Note_off_c, 0, 64, 55
1, 13806, Control_c, 0, 64, 60
1, 13809, Poly_aftertouch_c, 0, 57, 127
1, 13818, Note_on_c, 0, 69, 82
1, 13820, Control_c, 0, 64, 57
1, 13830, Note_off_c, 0, 71, 66
1, 13835, Control_c, 0, 64, 52
1, 13841, Poly_aftertouch_c, 0, 57, 0
1, 13850, Control_c, 0, 64, 41
1, 13853, Note_off_c, 0, 69, 67
1, 13865, Control_c, 0, 64, 0
1, 13901, Note_on_c, 0, 69, 84
1, 13913, Note_on_c, 0, 65, 66
1, 13921, Note_on_c, 0, 62, 55
1, 13931, Note_on_c, 0, 59, 54
1, 13935, Note_on_c, 0, 57, 50
1, 13975, Note_off_c, 0, 57, 58
1, 13976, Note_off_c, 0, 62, 55
1, 13983, Control_c, 0, 64, 31
1, 13987, Note_off_c, 0, 65, 58
1, 13988, Note_off_c, 0, 59, 58
1, 13998, Control_c, 0, 64, 47
1, 14012, Control_c, 0, 64, 60
1, 14027, Control_c, 0, 64, 76
1, 14042, Control_c, 0, 64, 127
1, 14094, Note_on_c, 0, 62, 60
1, 14098, Note_on_c, 0, 68, 87
1, 14101, Note_on_c, 0, 65, 58
1, 14106, Note_on_c, 0, 59, 57
1, 14113, Note_on_c, 0, 57, 37
1, 14127, Note_off_c, 0, 69, 62
1, 14147, Note_off_c, 0, 65, 55
1, 14154, Note_off_c, 0, 57, 49
1, 14155, Note_off_c, 0, 62, 59
1, 14158, Note_off_c, 0, 59, 51
1, 14177, Note_off_c, 0, 68, 60
1, 14191, Control_c, 0, 64, 67
1, 14206, Control_c, 0, 64, 51
1, 14221, Control_c, 0, 64, 41
1, 14243, Control_c, 0, 64, 47
1, 14258, Control_c, 0, 64, 57
1, 14268, Note_on_c, 0, 68, 87
1, 14273, Control_c, 0, 64, 69
1, 14274, Note_on_c, 0, 65, 59
1, 14283, Note_on_c, 0, 62, 56
1, 14283, Note_on_c, 0, 57, 30
1, 14284, Note_on_c, 0, 59, 55
1, 14288, Control_c, 0, 64, 127
1, 14313, Note_off_c, 0, 68, 63
1, 14321, Note_off_c, 0, 62, 59
1, 14324, Note_off_c, 0, 59, 57
1, 14330, Note_off_c, 0, 57, 46
1, 14334, Note_off_c, 0, 65, 57
1, 14443, Note_on_c, 0, 62, 51
1, 14444, Note_on_c, 0, 59, 52
1, 14451, Note_on_c, 0, 57, 36
1, 14452, Note_on_c, 0, 65, 55
1, 14485, Note_off_c, 0, 65, 57
1, 14489, Note_off_c, 0, 62, 59
1, 14493, Note_off_c, 0, 59, 56
1, 14496, Note_off_c, 0, 57, 56
1, 14610, Note_on_c, 0, 65, 63
1, 14613, Note_on_c, 0, 57, 50
1, 14613, Note_on_c, 0, 62, 58
1, 14614, Note_on_c, 0, 59, 52
1, 14655, Note_off_c, 0, 62, 58
1, 14659, Note_off_c, 0, 59, 51
1, 14661, Note_off_c, 0, 57, 57
1, 14666, Note_off_c, 0, 65, 60
1, 14789, Note_on_c, 0, 65, 56
1, 14791, Note_on_c, 0, 57, 44
1, 14795, Note_on_c, 0, 59, 47
1, 14796, Note_on_c, 0, 62, 48
1, 14840, Note_off_c, 0, 59, 57
1, 14843, Note_off_c, 0, 57, 54
1, 14843, Note_off_c, 0, 62, 58
1, 14850, Note_off_c, 0, 65, 59
1, 14878, Note_on_c, 0, 68, 69
1, 14909, Control_c, 0, 64, 88
1, 14924, Control_c, 0, 64, 67
1, 14939, Control_c, 0, 64, 55
1, 14947, Note_on_c, 0, 74, 75
1, 14955, Control_c, 0, 64, 37
1, 14964, Note_on_c, 0, 62, 47
1, 14965, Note_on_c, 0, 59, 44
1, 14965, Note_on_c, 0, 65, 55
1, 14968, Note_on_c, 0, 57, 41
1, 14970, Control_c, 0, 64, 33
1, 14992, Control_c, 0, 64, 38
1, 15007, Control_c, 0, 64, 44
1, 15016, Note_off_c, 0, 68, 59
1, 15018, Note_off_c, 0, 57, 54
1, 15019, Note_off_c, 0, 65, 53
1, 15020, Note_off_c, 0, 59, 59
1, 15022, Control_c, 0, 64, 52
1, 15023, Note_off_c, 0, 62, 58
1, 15037, Control_c, 0, 64, 60
1, 15052, Control_c, 0, 64, 67
1, 15066, Control_c, 0, 64, 71
1, 15081, Control_c, 0, 64, 72
1, 15129, Note_on_c, 0, 65, 56
1, 15132, Note_on_c, 0, 62, 55
1, 15140, Note_on_c, 0, 59, 49
1, 15141, Note_on_c, 0, 57, 43
1, 15155, Control_c, 0, 64, 72
1, 15168, Note_off_c, 0, 65, 60
1, 15170, Control_c, 0, 64, 70
1, 15184, Control_c, 0, 64, 66
1, 15195, Note_off_c, 0, 62, 57
1, 15199, Control_c, 0, 64, 61
1, 15207, Note_off_c, 0, 57, 53
1, 15208, Note_off_c, 0, 59, 59
1, 15214, Control_c, 0, 64, 51
1, 15220, Note_off_c, 0, 74, 62
1, 15226, Note_on_c, 0, 71, 68
1, 15229, Control_c, 0, 64, 26
1, 15244, Control_c, 0, 64, 0
1, 15290, Note_on_c, 0, 76, 79
1, 15292, Note_off_c, 0, 71, 63
1, 15298, Note_on_c, 0, 60, 56
1, 15304, Note_on_c, 0, 64, 53
1, 15307, Note_on_c, 0, 57, 45
1, 15362, Note_off_c, 0, 60, 60
1, 15362, Note_off_c, 0, 57, 56
1, 15362, Control_c, 0, 64, 24
1, 15377, Control_c, 0, 64, 55
1, 15392, Control_c, 0, 64, 100
1, 15397, Note_off_c, 0, 64, 37
1, 15407, Control_c, 0, 64, 127
1, 15463, Note_on_c, 0, 64, 47
1, 15465, Note_on_c, 0, 57, 57
1, 15469, Note_on_c, 0, 60, 66
1, 15520, Note_off_c, 0, 60, 57
1, 15526, Note_off_c, 0, 57, 53
1, 15530, Note_off_c, 0, 64, 57
1, 15550, Note_off_c, 0, 76, 64
1, 15628, Note_on_c, 0, 76, 88
1, 15636, Note_on_c, 0, 60, 61
1, 15640, Note_on_c, 0, 64, 63
1, 15641, Note_on_c, 0, 57, 58
1, 15678, Note_off_c, 0, 57, 55
1, 15680, Note_off_c, 0, 60, 53
1, 15682, Note_off_c, 0, 64, 58
1, 15798, Note_off_c, 0, 76, 60
1, 15802, Note_on_c, 0, 64, 59
1, 15803, Note_on_c, 0, 57, 55
1, 15806, Note_on_c, 0, 60, 62
1, 15848, Note_off_c, 0, 60, 53
1, 15852, Note_off_c, 0, 57, 57
1, 15866, Note_off_c, 0, 64, 55
1, 15903, Note_on_c, 0, 76, 71
1, 15973, Note_on_c, 0, 60, 58
1, 15977, Note_off_c, 0, 76, 63
1, 15978, Note_on_c, 0, 64, 59
1, 15978, Note_on_c, 0, 75, 80
1, 15982, Note_on_c, 0, 57, 44
1, 16014, Note_off_c, 0, 57, 57
1, 16015, Note_off_c, 0, 60, 63
1, 16021, Note_off_c, 0, 64, 56
1, 16037, Control_c, 0, 64, 117
1, 16050, Note_on_c, 0, 76, 80
1, 16052, Control_c, 0, 64, 101
1, 16056, Note_off_c, 0, 75, 65
1, 16067, Control_c, 0, 64, 93
1, 16081, Control_c, 0, 64, 83
1, 16096, Control_c, 0, 64, 70
1, 16111, Control_c, 0, 64, 61
1, 16126, Note_on_c, 0, 64, 65
1, 16126, Control_c, 0, 64, 47
1, 16130, Note_on_c, 0, 57, 48
1, 16130, Note_on_c, 0, 60, 57
1, 16132, Note_on_c, 0, 77, 85
1, 16135, Note_off_c, 0, 76, 66
1, 16140, Control_c, 0, 64, 33
1, 16155, Control_c, 0, 64, 21
1, 16170, Control_c, 0, 64, 22
1, 16179, Note_off_c, 0, 60, 59
1, 16183, Note_off_c, 0, 57, 55
1, 16185, Control_c, 0, 64, 28
1, 16190, Note_off_c, 0, 64, 59
1, 16200, Control_c, 0, 64, 35
1, 16205, Note_on_c, 0, 76, 84
1, 16214, Control_c, 0, 64, 43
1, 16229, Control_c, 0, 64, 52
1, 16244, Control_c, 0, 64, 60
1, 16250, Note_off_c, 0, 77, 62
1, 16259, Control_c, 0, 64, 65
1, 16274, Control_c, 0, 64, 69
1, 16281, Note_on_c, 0, 74, 84
1, 16287, Note_on_c, 0, 60, 55
1, 16288, Note_on_c, 0, 64, 62
1, 16289, Control_c, 0, 64, 71
1, 16297, Note_on_c, 0, 57, 55
1, 16304, Control_c, 0, 64, 72
1, 16319, Control_c, 0, 64, 73
1, 16328, Note_off_c, 0, 76, 64
1, 16333, Control_c, 0, 64, 75
1, 16334, Note_off_c, 0, 57, 59
1, 16334, Note_off_c, 0, 60, 59
1, 16345, Note_off_c, 0, 64, 61
1, 16348, Control_c, 0, 64, 77
1, 16363, Note_on_c, 0, 72, 85
1, 16363, Control_c, 0, 64, 78
1, 16390, Note_off_c, 0, 74, 66
1, 16432, Note_off_c, 0, 72, 66
1, 16434, Note_on_c, 0, 71, 83
1, 16435, Note_on_c, 0, 57, 56
1, 16441, Note_on_c, 0, 60, 64
1, 16447, Note_on_c, 0, 64, 54
1, 16467, Control_c, 0, 64, 77
1, 16468, Note_off_c, 0, 60, 68
1, 16489, Control_c, 0, 64, 74
1, 16491, Note_off_c, 0, 64, 52
1, 16500, Note_off_c, 0, 57, 60
1, 16504, Control_c, 0, 64, 71
1, 16515, Note_on_c, 0, 69, 85
1, 16519, Control_c, 0, 64, 66
1, 16528, Note_off_c, 0, 71, 63
1, 16533, Control_c, 0, 64, 61
1, 16548, Control_c, 0, 64, 52
1, 16564, Control_c, 0, 64, 34
1, 16579, Control_c, 0, 64, 0
1, 16593, Note_on_c, 0, 72, 88
1, 16611, Note_on_c, 0, 64, 56
1, 16614, Note_on_c, 0, 55, 54
1, 16618, Note_on_c, 0, 58, 58
1, 16619, Note_on_c, 0, 60, 56
1, 16621, Note_off_c, 0, 69, 59
1, 16683, Control_c, 0, 64, 11
1, 16686, Note_off_c, 0, 58, 59
1, 16693, Note_off_c, 0, 64, 58
1, 16694, Note_off_c, 0, 55, 57
1, 16694, Note_off_c, 0, 60, 60
1, 16698, Control_c, 0, 64, 27
1, 16712, Control_c, 0, 64, 38
1, 16727, Control_c, 0, 64, 49
1, 16742, Control_c, 0, 64, 61
1, 16757, Control_c, 0, 64, 72
1, 16772, Control_c, 0, 64, 92
1, 16774, Note_on_c, 0, 70, 88
1, 16784, Note_on_c, 0, 58, 60
1, 16787, Control_c, 0, 64, 104
1, 16788, Note_on_c, 0, 64, 59
1, 16792, Note_on_c, 0, 55, 47
1, 16793, Note_on_c, 0, 60, 49
1, 16802, Control_c, 0, 64, 108
1, 16816, Control_c, 0, 64, 114
1, 16819, Note_off_c, 0, 72, 60
1, 16831, Control_c, 0, 64, 127
1, 16844, Note_off_c, 0, 60, 59
1, 16846, Note_off_c, 0, 55, 57
1, 16849, Note_off_c, 0, 64, 57
1, 16853, Note_off_c, 0, 58, 60
1, 16873, Note_off_c, 0, 70, 64
1, 16935, Control_c, 0, 64, 78
1, 16936, Note_on_c, 0, 70, 88
1, 16948, Note_on_c, 0, 58, 57
1, 16950, Control_c, 0, 64, 62
1, 16953, Note_on_c, 0, 60, 53
1, 16954, Note_on_c, 0, 64, 57
1, 16963, Note_on_c, 0, 55, 54
1, 16964, Control_c, 0, 64, 44
1, 16979, Control_c, 0, 64, 37
1, 16989, Note_off_c, 0, 60, 49
1, 16994, Control_c, 0, 64, 42
1, 16995, Note_off_c, 0, 55, 51
1, 16996, Note_off_c, 0, 64, 50
1, 17001, Note_off_c, 0, 58, 58
1, 17009, Control_c, 0, 64, 48
1, 17024, Control_c, 0, 64, 56
1, 17038, Control_c, 0, 64, 65
1, 17053, Control_c, 0, 64, 79
1, 17068, Control_c, 0, 64, 93
1, 17082, Control_c, 0, 64, 106
1, 17097, Control_c, 0, 64, 127
1, 17099, Note_on_c, 0, 58, 64
1, 17100, Note_on_c, 0, 60, 55
1, 17101, Note_on_c, 0, 64, 61
1, 17105, Note_on_c, 0, 55, 48
1, 17151, Note_off_c, 0, 55, 56
1, 17152, Note_off_c, 0, 60, 53
1, 17163, Note_off_c, 0, 58, 59
1, 17163, Note_off_c, 0, 64, 58
1, 17267, Control_c, 0, 64, 79
1, 17273, Note_on_c, 0, 64, 72
1, 17279, Note_on_c, 0, 55, 62
1, 17279, Note_on_c, 0, 58, 66
1, 17280, Note_on_c, 0, 60, 66
1, 17282, Control_c, 0, 64, 66
1, 17296, Control_c, 0, 64, 63
1, 17311, Control_c, 0, 64, 64
1, 17326, Control_c, 0, 64, 68
1, 17327, Note_off_c, 0, 60, 57
1, 17335, Note_off_c, 0, 55, 57
1, 17338, Note_off_c, 0, 64, 55
1, 17338, Note_off_c, 0, 58, 58
1, 17341, Control_c, 0, 64, 76
1, 17357, Control_c, 0, 64, 84
1, 17372, Control_c, 0, 64, 99
1, 17386, Control_c, 0, 64, 127
1, 17449, Note_on_c, 0, 64, 65
1, 17451, Note_on_c, 0, 60, 61
1, 17454, Note_on_c, 0, 58, 62
1, 17459, Note_on_c, 0, 55, 55
1, 17473, Note_off_c, 0, 70, 54
1, 17494, Note_off_c, 0, 55, 59
1, 17505, Note_off_c, 0, 60, 57
1, 17509, Note_off_c, 0, 58, 60
1, 17511, Note_off_c, 0, 64, 58
1, 17539, Note_on_c, 0, 76, 64
1, 17594, Control_c, 0, 64, 97
1, 17605, Note_on_c, 0, 79, 85
1, 17609, Control_c, 0, 64, 67
1, 17612, Note_on_c, 0, 58, 60
1, 17618, Note_on_c, 0, 64, 66
1, 17620, Note_on_c, 0, 55, 55
1, 17624, Control_c, 0, 64, 51
1, 17624, Note_on_c, 0, 60, 63
1, 17639, Control_c, 0, 64, 42
1, 17653, Control_c, 0, 64, 46
1, 17663, Note_off_c, 0, 76, 60
1, 17664, Note_off_c, 0, 60, 52
1, 17666, Note_off_c, 0, 55, 62
1, 17668, Control_c, 0, 64, 53
1, 17673, Note_off_c, 0, 64, 57
1, 17676, Note_off_c, 0, 58, 52
1, 17683, Control_c, 0, 64, 60
1, 17698, Control_c, 0, 64, 70
1, 17712, Control_c, 0, 64, 91
1, 17727, Control_c, 0, 64, 127
1, 17776, Note_on_c, 0, 55, 51
1, 17776, Note_on_c, 0, 64, 53
1, 17778, Note_on_c, 0, 58, 46
1, 17804, Note_on_c, 0, 60, 41
1, 17818, Note_off_c, 0, 55, 63
1, 17826, Note_off_c, 0, 58, 54
1, 17833, Note_off_c, 0, 60, 53
1, 17839, Note_off_c, 0, 64, 59
1, 17858, Note_off_c, 0, 79, 54
1, 17860, Note_on_c, 0, 82, 74
1, 17884, Note_off_c, 0, 82, 69
1, 17934, Note_on_c, 0, 60, 62
1, 17934, Control_c, 0, 64, 94
1, 17936, Note_on_c, 0, 82, 90
1, 17940, Note_on_c, 0, 65, 68
1, 17943, Note_on_c, 0, 53, 62
1, 17949, Control_c, 0, 64, 66
1, 17964, Control_c, 0, 64, 52
1, 17986, Control_c, 0, 64, 29
1, 17990, Note_off_c, 0, 60, 58
1, 17997, Note_off_c, 0, 53, 58
1, 18000, Note_off_c, 0, 65, 53
1, 18001, Control_c, 0, 64, 0
1, 18105, Note_on_c, 0, 60, 59
1, 18107, Note_on_c, 0, 81, 81
1, 18110, Note_on_c, 0, 65, 52
1, 18121, Note_off_c, 0, 82, 62
1, 18122, Note_on_c, 0, 53, 49
1, 18135, Note_off_c, 0, 60, 67
1, 18135, Note_off_c, 0, 65, 60
1, 18146, Note_off_c, 0, 81, 67
1, 18147, Note_off_c, 0, 53, 60
1, 18265, Note_on_c, 0, 77, 80
1, 18268, Note_on_c, 0, 57, 57
1, 18270, Note_on_c, 0, 62, 60
1, 18275, Note_on_c, 0, 53, 43
1, 18293, Note_off_c, 0, 77, 58
1, 18295, Note_off_c, 0, 62, 61
1, 18300, Note_off_c, 0, 57, 64
1, 18304, Note_off_c, 0, 53, 59
1, 18412, Note_on_c, 0, 62, 60
1, 18413, Note_on_c, 0, 53, 56
1, 18420, Note_on_c, 0, 57, 48
1, 18420, Note_on_c, 0, 74, 66
1, 18443, Note_off_c, 0, 62, 64
1, 18444, Note_off_c, 0, 74, 69
1, 18446, Note_off_c, 0, 57, 61
1, 18450, Note_off_c, 0, 53, 66
1, 18578, Note_on_c, 0, 74, 65
1, 18580, Note_on_c, 0, 52, 59
1, 18587, Note_on_c, 0, 55, 54
1, 18587, Note_on_c, 0, 57, 46
1, 18595, Control_c, 0, 64, 9
1, 18609, Control_c, 0, 64, 25
1, 18624, Control_c, 0, 64, 36
1, 18630, Note_off_c, 0, 55, 62
1, 18632, Note_off_c, 0, 57, 58
1, 18639, Control_c, 0, 64, 47
1, 18641, Note_off_c, 0, 52, 61
1, 18653, Control_c, 0, 64, 58
1, 18668, Control_c, 0, 64, 66
1, 18683, Control_c, 0, 64, 70
1, 18698, Control_c, 0, 64, 71
1, 18713, Control_c, 0, 64, 70
1, 18735, Control_c, 0, 64, 66
1, 18748, Note_on_c, 0, 55, 67
1, 18750, Control_c, 0, 64, 60
1, 18755, Note_on_c, 0, 73, 69
1, 18758, Note_on_c, 0, 57, 56
1, 18760, Note_on_c, 0, 52, 66
1, 18765, Control_c, 0, 64, 48
1, 18775, Note_off_c, 0, 74, 56
1, 18780, Control_c, 0, 64, 16
1, 18784, Note_off_c, 0, 55, 63
1, 18788, Note_off_c, 0, 52, 66
1, 18790, Note_off_c, 0, 57, 63
1, 18795, Control_c, 0, 64, 0
1, 18796, Note_off_c, 0, 73, 60
1, 18908, Note_on_c, 0, 76, 75
1, 18909, Note_on_c, 0, 57, 56
1, 18910, Note_on_c, 0, 52, 52
1, 18916, Note_on_c, 0, 61, 64
1, 18949, Note_off_c, 0, 61, 64
1, 18953, Note_off_c, 0, 52, 66
1, 18953, Note_off_c, 0, 76, 65
1, 18953, Note_off_c, 0, 57, 63
1, 19068, Note_on_c, 0, 52, 56
1, 19069, Note_on_c, 0, 61, 57
1, 19070, Note_on_c, 0, 79, 68
1, 19080, Note_on_c, 0, 57, 45
1, 19097, Note_off_c, 0, 52, 67
1, 19100, Note_off_c, 0, 61, 55
1, 19104, Note_off_c, 0, 79, 58
1, 19108, Note_off_c, 0, 57, 57
1, 19234, Note_on_c, 0, 79, 59
1, 19238, Note_on_c, 0, 62, 54
1, 19240, Note_on_c, 0, 57, 31
1, 19267, Note_on_c, 0, 50, 18
1, 19336, Note_off_c, 0, 62, 62
1, 19362, Note_off_c, 0, 57, 57
1, 19388, Control_c, 0, 67, 9
1, 19394, Note_off_c, 0, 50, 58
1, 19403, Control_c, 0, 67, 12
1, 19407, Note_on_c, 0, 78, 58
1, 19418, Control_c, 0, 67, 16
1, 19432, Control_c, 0, 67, 21
1, 19447, Control_c, 0, 67, 28
1, 19449, Note_off_c, 0, 79, 55
1, 19462, Control_c, 0, 67, 39
1, 19484, Control_c, 0, 67, 54
1, 19499, Control_c, 0, 67, 72
1, 19514, Control_c, 0, 67, 93
1, 19529, Control_c, 0, 67, 118
1, 19544, Control_c, 0, 67, 127
1, 19600, Note_off_c, 0, 78, 58
1, 19602, Note_on_c, 0, 50, 35
1, 19604, Note_on_c, 0, 47, 42
1, 19606, Note_on_c, 0, 55, 37
1, 19762, Note_on_c, 0, 77, 61
1, 19818, Note_off_c, 0, 55, 45
1, 19827, Note_off_c, 0, 50, 54
1, 19854, Note_off_c, 0, 47, 53
1, 19881, Note_off_c, 0, 77, 51
1, 19936, Note_on_c, 0, 55, 41
1, 19943, Note_on_c, 0, 48, 48
1, 20063, Control_c, 0, 64, 12
1, 20078, Control_c, 0, 64, 23
1, 20084, Note_off_c, 0, 48, 64
1, 20092, Control_c, 0, 64, 33
1, 20095, Note_off_c, 0, 55, 60
1, 20107, Control_c, 0, 64, 43
1, 20112, Note_on_c, 0, 75, 47
1, 20122, Control_c, 0, 64, 52
1, 20137, Control_c, 0, 64, 59
1, 20152, Control_c, 0, 64, 63
1, 20167, Control_c, 0, 64, 65
1, 20181, Control_c, 0, 64, 66
1, 20196, Control_c, 0, 64, 67
1, 20212, Control_c, 0, 64, 67
1, 20293, Control_c, 0, 64, 66
1, 20307, Note_off_c, 0, 75, 39
1, 20307, Control_c, 0, 64, 65
1, 20322, Control_c, 0, 64, 63
1, 20327, Note_on_c, 0, 60, 38
1, 20333, Note_on_c, 0, 57, 34
1, 20337, Control_c, 0, 64, 61
1, 20352, Control_c, 0, 64, 56
1, 20367, Control_c, 0, 64, 47
1, 20382, Control_c, 0, 64, 31
1, 20397, Control_c, 0, 64, 0
1, 20471, Control_c, 0, 64, 10
1, 20486, Control_c, 0, 64, 18
1, 20500, Control_c, 0, 64, 27
1, 20515, Control_c, 0, 64, 35
1, 20530, Control_c, 0, 64, 42
1, 20533, Note_on_c, 0, 76, 41
1, 20545, Control_c, 0, 64, 50
1, 20560, Control_c, 0, 64, 57
1, 20575, Control_c, 0, 64, 62
1, 20583, Note_off_c, 0, 76, 0
1, 20583, Note_on_c, 0, 76, 11
1, 20590, Control_c, 0, 64, 64
1, 20592, Note_off_c, 0, 57, 30
1, 20605, Control_c, 0, 64, 66
1, 20620, Control_c, 0, 64, 67
1, 20635, Control_c, 0, 64, 68
1, 20650, Control_c, 0, 64, 68
1, 20668, Note_off_c, 0, 60, 41
1, 20690, Note_off_c, 0, 76, 37
1, 20783, Control_c, 0, 64, 68
1, 20797, Control_c, 0, 64, 66
1, 20799, Note_on_c, 0, 76, 49
1, 20812, Control_c, 0, 64, 65
1, 20827, Control_c, 0, 64, 63
1, 20842, Control_c, 0, 64, 61
1, 20856, Control_c, 0, 64, 57
1, 20858, Note_on_c, 0, 53, 23
1, 20871, Control_c, 0, 64, 50
1, 20886, Control_c, 0, 64, 42
1, 20901, Control_c, 0, 64, 33
1, 20916, Control_c, 0, 64, 26
1, 20930, Control_c, 0, 64, 20
1, 20945, Control_c, 0, 64, 14
1, 20960, Control_c, 0, 64, 0
1, 21021, Note_off_c, 0, 76, 51
1, 21022, Note_on_c, 0, 74, 48
1, 21028, Note_on_c, 0, 57, 39
1, 21043, Note_off_c, 0, 53, 40
1, 21082, Note_off_c, 0, 74, 62
1, 21189, Note_on_c, 0, 53, 40
1, 21192, Note_off_c, 0, 57, 39
1, 21195, Note_on_c, 0, 74, 50
1, 21353, Note_on_c, 0, 57, 41
1, 21371, Note_off_c, 0, 53, 37
1, 21513, Note_on_c, 0, 53, 42
1, 21514, Note_off_c, 0, 57, 31
1, 21669, Note_off_c, 0, 74, 64
1, 21671, Note_off_c, 0, 53, 35
1, 21687, Note_on_c, 0, 57, 40
1, 21697, Note_on_c, 0, 76, 55
1, 21756, Note_off_c, 0, 76, 61
1, 21764, Note_on_c, 0, 74, 57
1, 21786, Note_off_c, 0, 74, 68
1, 21837, Note_on_c, 0, 74, 64
1, 21841, Note_off_c, 0, 57, 49
1, 21849, Note_on_c, 0, 54, 47
1, 21907, Note_off_c, 0, 74, 64
1, 21914, Note_on_c, 0, 72, 66
1, 21932, Note_off_c, 0, 54, 42
1, 21967, Note_off_c, 0, 72, 62
1, 22000, Note_on_c, 0, 57, 35
1, 22001, Note_on_c, 0, 71, 54
1, 22033, Note_off_c, 0, 71, 59
1, 22033, Note_off_c, 0, 57, 46
1, 22063, Note_on_c, 0, 72, 55
1, 22096, Note_off_c, 0, 72, 59
1, 22145, Note_on_c, 0, 71, 48
1, 22180, Note_on_c, 0, 55, 39
1, 22221, Control_c, 0, 64, 9
1, 22231, Note_on_c, 0, 62, 50
1, 22236, Control_c, 0, 64, 23
1, 22250, Control_c, 0, 64, 33
1, 22265, Control_c, 0, 64, 41
1, 22280, Control_c, 0, 64, 49
1, 22280, Note_off_c, 0, 62, 59
1, 22294, Control_c, 0, 64, 57
1, 22309, Control_c, 0, 64, 63
1, 22313, Note_on_c, 0, 59, 47
1, 22324, Control_c, 0, 64, 65
1, 22339, Control_c, 0, 64, 66
1, 22348, Note_off_c, 0, 55, 20
1, 22353, Note_off_c, 0, 59, 49
1, 22354, Control_c, 0, 64, 67
1, 22368, Control_c, 0, 64, 69
1, 22379, Note_on_c, 0, 62, 60
1, 22383, Control_c, 0, 64, 73
1, 22383, Control_c, 0, 67, 118
1, 22398, Control_c, 0, 64, 80
1, 22398, Control_c, 0, 67, 102
1, 22413, Control_c, 0, 64, 87
1, 22413, Control_c, 0, 67, 82
1, 22427, Note_off_c, 0, 71, 59
1, 22428, Control_c, 0, 64, 95
1, 22428, Control_c, 0, 67, 58
1, 22429, Note_off_c, 0, 62, 57
1, 22442, Control_c, 0, 64, 111
1, 22442, Control_c, 0, 67, 29
1, 22457, Control_c, 0, 64, 127
1, 22457, Control_c, 0, 67, 0
1, 22482, Note_on_c, 0, 79, 73
1, 22491, Note_on_c, 0, 55, 53
1, 22504, Note_off_c, 0, 79, 68
1, 22548, Note_on_c, 0, 62, 60
1, 22624, Note_off_c, 0, 62, 60
1, 22646, Note_on_c, 0, 59, 49
1, 22716, Note_on_c, 0, 62, 56
1, 22717, Note_off_c, 0, 59, 59
1, 22721, Note_off_c, 0, 55, 57
1, 22730, Note_on_c, 0, 79, 76
1, 22751, Note_off_c, 0, 79, 66
1, 22761, Control_c, 0, 64, 82
1, 22763, Note_off_c, 0, 62, 62
1, 22775, Control_c, 0, 64, 56
1, 22790, Control_c, 0, 64, 30
1, 22793, Note_on_c, 0, 79, 92
1, 22805, Control_c, 0, 64, 36
1, 22820, Note_off_c, 0, 79, 66
1, 22820, Control_c, 0, 64, 50
1, 22829, Note_on_c, 0, 55, 61
1, 22835, Control_c, 0, 64, 65
1, 22850, Control_c, 0, 64, 127
1, 22877, Note_on_c, 0, 63, 70
1, 22946, Note_off_c, 0, 63, 61
1, 22960, Note_on_c, 0, 60, 67
1, 23036, Note_off_c, 0, 60, 64
1, 23044, Note_on_c, 0, 63, 74
1, 23085, Note_off_c, 0, 55, 39
1, 23120, Note_off_c, 0, 63, 60
1, 23130, Note_on_c, 0, 79, 97
1, 23142, Note_on_c, 0, 55, 79
1, 23162, Note_off_c, 0, 79, 67
1, 23228, Note_on_c, 0, 65, 74
1, 23249, Note_off_c, 0, 55, 61
1, 23305, Note_on_c, 0, 62, 73
1, 23307, Note_off_c, 0, 65, 64
1, 23386, Note_on_c, 0, 65, 70
1, 23387, Note_off_c, 0, 62, 61
1, 23446, Note_off_c, 0, 65, 65
1, 23476, Note_on_c, 0, 84, 100
1, 23479, Note_on_c, 0, 72, 94
1, 23481, Control_c, 0, 64, 67
1, 23488, Note_on_c, 0, 55, 67
1, 23496, Control_c, 0, 64, 45
1, 23511, Control_c, 0, 64, 0
1, 23562, Note_on_c, 0, 63, 69
1, 23570, Control_c, 0, 64, 14
1, 23579, Note_off_c, 0, 55, 57
1, 23585, Control_c, 0, 64, 27
1, 23599, Control_c, 0, 64, 36
1, 23614, Control_c, 0, 64, 45
1, 23629, Control_c, 0, 64, 55
1, 23643, Note_off_c, 0, 63, 62
1, 23644, Control_c, 0, 64, 63
1, 23651, Note_on_c, 0, 60, 71
1, 23658, Control_c, 0, 64, 69
1, 23673, Control_c, 0, 64, 72
1, 23688, Control_c, 0, 64, 74
1, 23703, Control_c, 0, 64, 80
1, 23718, Control_c, 0, 64, 101
1, 23727, Note_off_c, 0, 60, 64
1, 23732, Control_c, 0, 64, 127
1, 23734, Note_on_c, 0, 63, 69
1, 23793, Control_c, 0, 64, 92
1, 23796, Note_off_c, 0, 63, 61
1, 23808, Control_c, 0, 64, 68
1, 23821, Note_on_c, 0, 55, 74
1, 23822, Control_c, 0, 64, 59
1, 23837, Control_c, 0, 64, 54
1, 23852, Control_c, 0, 64, 57
1, 23866, Control_c, 0, 64, 62
1, 23881, Control_c, 0, 64, 66
1, 23888, Note_off_c, 0, 55, 63
1, 23896, Control_c, 0, 64, 70
1, 23900, Note_on_c, 0, 63, 66
1, 23911, Control_c, 0, 64, 73
1, 23914, Note_off_c, 0, 84, 60
1, 23926, Control_c, 0, 64, 75
1, 23941, Control_c, 0, 64, 75
1, 23956, Control_c, 0, 64, 76
1, 23977, Note_off_c, 0, 63, 60
1, 23993, Control_c, 0, 64, 76
1, 23994, Note_on_c, 0, 60, 64
1, 24006, Note_on_c, 0, 82, 78
1, 24008, Control_c, 0, 64, 77
1, 24022, Control_c, 0, 64, 77
1, 24037, Control_c, 0, 64, 79
1, 24052, Control_c, 0, 64, 82
1, 24059, Note_on_c, 0, 63, 65
1, 24059, Note_off_c, 0, 60, 64
1, 24067, Control_c, 0, 64, 86
1, 24076, Note_on_c, 0, 80, 82
1, 24081, Control_c, 0, 64, 88
1, 24082, Note_off_c, 0, 82, 62
1, 24096, Control_c, 0, 64, 88
1, 24111, Control_c, 0, 64, 82
1, 24126, Control_c, 0, 64, 67
1, 24132, Note_off_c, 0, 63, 59
1, 24141, Control_c, 0, 64, 54
1, 24149, Note_on_c, 0, 79, 84
1, 24153, Note_on_c, 0, 55, 70
1, 24155, Control_c, 0, 64, 32
1, 24169, Note_off_c, 0, 80, 65
1, 24170, Control_c, 0, 64, 0
1, 24219, Note_off_c, 0, 55, 63
1, 24230, Control_c, 0, 64, 19
1, 24231, Note_on_c, 0, 63, 70
1, 24245, Control_c, 0, 64, 27
1, 24260, Control_c, 0, 64, 33
1, 24274, Control_c, 0, 64, 39
1, 24289, Control_c, 0, 64, 46
1, 24302, Note_off_c, 0, 63, 62
1, 24304, Control_c, 0, 64, 55
1, 24313, Note_on_c, 0, 60, 68
1, 24319, Control_c, 0, 64, 64
1, 24334, Control_c, 0, 64, 72
1, 24348, Control_c, 0, 64, 80
1, 24363, Control_c, 0, 64, 90
1, 24376, Note_off_c, 0, 60, 63
1, 24378, Control_c, 0, 64, 103
1, 24391, Note_on_c, 0, 63, 65
1, 24392, Control_c, 0, 64, 127
1, 24437, Control_c, 0, 64, 87
1, 24452, Control_c, 0, 64, 64
1, 24463, Note_off_c, 0, 63, 60
1, 24466, Control_c, 0, 64, 46
1, 24472, Note_on_c, 0, 78, 86
1, 24476, Note_on_c, 0, 55, 66
1, 24481, Control_c, 0, 64, 0
1, 24516, Note_off_c, 0, 79, 61
1, 24541, Control_c, 0, 64, 11
1, 24552, Note_on_c, 0, 63, 61
1, 24557, Control_c, 0, 64, 25
1, 24564, Note_off_c, 0, 55, 59
1, 24571, Control_c, 0, 64, 33
1, 24586, Control_c, 0, 64, 40
1, 24599, Note_off_c, 0, 72, 57
1, 24601, Control_c, 0, 64, 49
1, 24616, Control_c, 0, 64, 57
1, 24624, Note_off_c, 0, 63, 63
1, 24631, Control_c, 0, 64, 62
1, 24632, Note_on_c, 0, 60, 66
1, 24645, Control_c, 0, 64, 65
1, 24660, Control_c, 0, 64, 66
1, 24675, Control_c, 0, 64, 67
1, 24689, Control_c, 0, 64, 68
1, 24698, Note_off_c, 0, 60, 62
1, 24704, Control_c, 0, 64, 73
1, 24709, Note_on_c, 0, 63, 61
1, 24727, Control_c, 0, 64, 77
1, 24742, Control_c, 0, 64, 78
1, 24757, Control_c, 0, 64, 77
1, 24764, Note_off_c, 0, 63, 56
1, 24771, Control_c, 0, 64, 67
1, 24786, Control_c, 0, 64, 52
1, 24801, Control_c, 0, 64, 0
1, 24814, Note_off_c, 0, 78, 65
1, 24814, Note_on_c, 0, 79, 78
1, 24818, Note_on_c, 0, 55, 52
1, 24830, Note_on_c, 0, 71, 58
1, 24889, Note_on_c, 0, 62, 59
1, 24890, Control_c, 0, 64, 28
1, 24890, Control_c, 0, 67, 12
1, 24895, Note_off_c, 0, 55, 54
1, 24904, Control_c, 0, 64, 41
1, 24904, Control_c, 0, 67, 25
1, 24919, Control_c, 0, 64, 53
1, 24919, Control_c, 0, 67, 44
1, 24934, Control_c, 0, 64, 63
1, 24934, Control_c, 0, 67, 72
1, 24949, Control_c, 0, 64, 71
1, 24949, Control_c, 0, 67, 102
1, 24956, Note_off_c, 0, 62, 61
1, 24964, Control_c, 0, 64, 76
1, 24964, Control_c, 0, 67, 127
1, 24972, Note_on_c, 0, 59, 58
1, 24993, Control_c, 0, 64, 77
1, 25008, Control_c, 0, 64, 82
1, 25023, Control_c, 0, 64, 94
1, 25033, Note_off_c, 0, 59, 58
1, 25038, Control_c, 0, 64, 119
1, 25045, Note_off_c, 0, 71, 49
1, 25053, Control_c, 0, 64, 127
1, 25057, Note_on_c, 0, 62, 63
1, 25068, Control_c, 0, 64, 108
1, 25076, Note_off_c, 0, 79, 60
1, 25083, Control_c, 0, 64, 72
1, 25097, Control_c, 0, 64, 54
1, 25112, Control_c, 0, 64, 25
1, 25112, Note_off_c, 0, 62, 60
1, 25127, Control_c, 0, 64, 13
1, 25142, Control_c, 0, 64, 23
1, 25144, Note_on_c, 0, 79, 80
1, 25153, Note_on_c, 0, 55, 54
1, 25157, Control_c, 0, 64, 31
1, 25163, Note_off_c, 0, 79, 70
1, 25171, Control_c, 0, 64, 37
1, 25186, Control_c, 0, 64, 38
1, 25201, Control_c, 0, 64, 36
1, 25214, Note_on_c, 0, 62, 63
1, 25215, Control_c, 0, 64, 30
1, 25230, Control_c, 0, 64, 19
1, 25245, Control_c, 0, 64, 0
1, 25276, Note_off_c, 0, 62, 62
1, 25301, Note_on_c, 0, 59, 50
1, 25349, Note_off_c, 0, 59, 58
1, 25363, Note_off_c, 0, 55, 44
1, 25363, Note_on_c, 0, 62, 53
1, 25377, Note_on_c, 0, 79, 79
1, 25396, Note_off_c, 0, 79, 69
1, 25401, Note_off_c, 0, 62, 64
1, 25448, Note_on_c, 0, 79, 76
1, 25477, Note_on_c, 0, 55, 51
1, 25544, Note_on_c, 0, 63, 56
1, 25563, Note_off_c, 0, 55, 50
1, 25616, Note_off_c, 0, 63, 63
1, 25637, Note_on_c, 0, 60, 56
1, 25689, Note_off_c, 0, 60, 61
1, 25694, Note_off_c, 0, 79, 59
1, 25714, Note_on_c, 0, 63, 53
1, 25763, Note_off_c, 0, 63, 55
1, 25798, Note_on_c, 0, 79, 64
1, 25805, Note_on_c, 0, 55, 55
1, 25816, Control_c, 0, 64, 8
1, 25831, Control_c, 0, 64, 20
1, 25845, Control_c, 0, 64, 30
1, 25852, Note_off_c, 0, 55, 55
1, 25860, Control_c, 0, 64, 37
1, 25875, Control_c, 0, 64, 44
1, 25878, Note_on_c, 0, 65, 60
1, 25890, Control_c, 0, 64, 51
1, 25905, Control_c, 0, 64, 57
1, 25919, Control_c, 0, 64, 60
1, 25934, Control_c, 0, 64, 62
1, 25940, Note_off_c, 0, 65, 63
1, 25966, Note_on_c, 0, 62, 55
1, 25993, Control_c, 0, 64, 63
1, 26008, Control_c, 0, 64, 64
1, 26010, Note_off_c, 0, 79, 59
1, 26023, Note_off_c, 0, 62, 59
1, 26023, Control_c, 0, 64, 67
1, 26037, Control_c, 0, 64, 69
1, 26038, Note_on_c, 0, 65, 51
1, 26052, Control_c, 0, 64, 69
1, 26075, Note_off_c, 0, 65, 65
1, 26082, Control_c, 0, 64, 66
1, 26097, Control_c, 0, 64, 60
1, 26111, Control_c, 0, 64, 43
1, 26126, Note_on_c, 0, 84, 69
1, 26126, Control_c, 0, 64, 0
1, 26131, Note_on_c, 0, 55, 52
1, 26135, Note_on_c, 0, 72, 58
1, 26178, Note_off_c, 0, 55, 61
1, 26198, Note_off_c, 0, 72, 0
1, 26198, Note_on_c, 0, 72, 3
1, 26215, Note_on_c, 0, 63, 56
1, 26275, Note_off_c, 0, 63, 61
1, 26306, Note_on_c, 0, 60, 49
1, 26354, Note_off_c, 0, 60, 63
1, 26385, Note_on_c, 0, 63, 51
1, 26428, Note_off_c, 0, 63, 56
1, 26461, Note_on_c, 0, 55, 52
1, 26496, Note_off_c, 0, 55, 58
1, 26533, Note_on_c, 0, 63, 50
1, 26543, Note_off_c, 0, 84, 56
1, 26589, Note_off_c, 0, 63, 61
1, 26619, Note_on_c, 0, 60, 46
1, 26621, Note_on_c, 0, 82, 62
1, 26649, Note_off_c, 0, 60, 57
1, 26678, Note_off_c, 0, 82, 64
1, 26688, Note_on_c, 0, 63, 52
1, 26694, Note_on_c, 0, 80, 69
1, 26727, Note_off_c, 0, 63, 54
1, 26759, Note_off_c, 0, 80, 60
1, 26769, Note_on_c, 0, 79, 66
1, 26780, Note_on_c, 0, 55, 40
1, 26810, Note_off_c, 0, 55, 56
1, 26839, Note_on_c, 0, 63, 53
1, 26897, Note_off_c, 0, 63, 61
1, 26924, Note_on_c, 0, 60, 51
1, 26975, Note_off_c, 0, 60, 64
1, 27013, Note_on_c, 0, 63, 53
1, 27055, Note_off_c, 0, 63, 55
1, 27095, Note_on_c, 0, 55, 54
1, 27101, Note_on_c, 0, 78, 63
1, 27136, Note_off_c, 0, 79, 51
1, 27166, Control_c, 0, 64, 17
1, 27166, Note_off_c, 0, 55, 57
1, 27171, Note_on_c, 0, 63, 50
1, 27180, Control_c, 0, 64, 26
1, 27195, Control_c, 0, 64, 31
1, 27210, Control_c, 0, 64, 36
1, 27224, Control_c, 0, 64, 40
1, 27227, Note_off_c, 0, 63, 62
1, 27239, Control_c, 0, 64, 44
1, 27254, Control_c, 0, 64, 48
1, 27265, Note_on_c, 0, 60, 46
1, 27269, Control_c, 0, 64, 51
1, 27284, Control_c, 0, 64, 55
1, 27298, Control_c, 0, 64, 58
1, 27313, Control_c, 0, 64, 61
1, 27314, Note_off_c, 0, 60, 61
1, 27321, Note_on_c, 0, 63, 58
1, 27328, Control_c, 0, 64, 63
1, 27330, Note_off_c, 0, 78, 62
1, 27343, Control_c, 0, 64, 63
1, 27358, Control_c, 0, 64, 62
1, 27364, Note_off_c, 0, 63, 65
1, 27372, Control_c, 0, 64, 50
1, 27387, Note_off_c, 0, 72, 56
1, 27387, Control_c, 0, 64, 11
1, 27402, Control_c, 0, 64, 0
1, 27402, Control_c, 0, 67, 117
1, 27412, Note_on_c, 0, 62, 87
1, 27417, Note_on_c, 0, 59, 81
1, 27417, Control_c, 0, 67, 28
1, 27419, Note_on_c, 0, 55, 77
1, 27419, Note_on_c, 0, 79, 94
1, 27431, Control_c, 0, 64, 33
1, 27431, Control_c, 0, 67, 0
1, 27440, Note_off_c, 0, 62, 65
1, 27443, Note_off_c, 0, 55, 70
1, 27446, Note_off_c, 0, 59, 65
1, 27446, Control_c, 0, 64, 49
1, 27461, Control_c, 0, 64, 64
1, 27476, Control_c, 0, 64, 98
1, 27491, Control_c, 0, 64, 127
1, 27497, Note_on_c, 0, 74, 73
1, 27524, Note_off_c, 0, 79, 58
1, 27564, Note_off_c, 0, 74, 66
1, 27586, Note_on_c, 0, 71, 69
1, 27624, Control_c, 0, 64, 104
1, 27639, Control_c, 0, 64, 74
1, 27649, Note_off_c, 0, 71, 62
1, 27654, Control_c, 0, 64, 54
1, 27662, Note_on_c, 0, 74, 72
1, 27669, Control_c, 0, 64, 0
1, 27719, Note_off_c, 0, 74, 62
1, 27754, Note_on_c, 0, 79, 78
1, 27827, Note_off_c, 0, 79, 61
1, 27829, Note_on_c, 0, 75, 73
1, 27899, Note_off_c, 0, 75, 62
1, 27911, Note_on_c, 0, 60, 79
1, 27912, Note_on_c, 0, 48, 79
1, 27915, Note_on_c, 0, 72, 73
1, 27933, Note_off_c, 0, 60, 73
1, 27935, Note_off_c, 0, 48, 68
1, 27974, Note_off_c, 0, 72, 61
1, 27989, Note_on_c, 0, 75, 64
1, 28056, Note_off_c, 0, 75, 58
1, 28077, Note_on_c, 0, 79, 75
1, 28077, Control_c, 0, 64, 17
1, 28078, Note_on_c, 0, 55, 87
1, 28081, Note_on_c, 0, 43, 86
1, 28092, Control_c, 0, 64, 33
1, 28099, Note_off_c, 0, 55, 73
1, 28104, Note_off_c, 0, 43, 66
1, 28107, Control_c, 0, 64, 39
1, 28121, Control_c, 0, 64, 46
1, 28136, Control_c, 0, 64, 57
1, 28151, Control_c, 0, 64, 64
1, 28153, Note_on_c, 0, 74, 76
1, 28161, Note_off_c, 0, 79, 60
1, 28166, Control_c, 0, 64, 67
1, 28181, Control_c, 0, 64, 67
1, 28195, Control_c, 0, 64, 63
1, 28210, Control_c, 0, 64, 55
1, 28218, Note_off_c, 0, 74, 66
1, 28225, Control_c, 0, 64, 34
1, 28239, Control_c, 0, 64, 0
1, 28242, Note_on_c, 0, 71, 69
1, 28308, Note_off_c, 0, 71, 62
1, 28321, Note_on_c, 0, 74, 70
1, 28376, Note_off_c, 0, 74, 62
1, 28415, Note_on_c, 0, 79, 78
1, 28496, Note_off_c, 0, 79, 60
1, 28496, Note_on_c, 0, 75, 74
1, 28567, Note_off_c, 0, 75, 62
1, 28573, Note_on_c, 0, 60, 78
1, 28575, Note_on_c, 0, 48, 80
1, 28584, Note_on_c, 0, 72, 73
1, 28596, Note_off_c, 0, 60, 72
1, 28597, Note_off_c, 0, 48, 69
1, 28635, Note_off_c, 0, 72, 59
1, 28657, Note_on_c, 0, 75, 68
1, 28730, Note_off_c, 0, 75, 58
1, 28742, Note_on_c, 0, 43, 84
1, 28742, Note_on_c, 0, 55, 87
1, 28743, Note_on_c, 0, 79, 78
1, 28752, Control_c, 0, 64, 11
1, 28762, Note_off_c, 0, 55, 72
1, 28763, Note_off_c, 0, 43, 66
1, 28767, Control_c, 0, 64, 20
1, 28782, Control_c, 0, 64, 30
1, 28797, Control_c, 0, 64, 38
1, 28811, Control_c, 0, 64, 48
1, 28820, Note_on_c, 0, 74, 76
1, 28825, Note_off_c, 0, 79, 60
1, 28826, Control_c, 0, 64, 55
1, 28841, Control_c, 0, 64, 59
1, 28855, Control_c, 0, 64, 61
1, 28870, Control_c, 0, 64, 60
1, 28885, Note_off_c, 0, 74, 66
1, 28885, Control_c, 0, 64, 57
1, 28900, Control_c, 0, 64, 48
1, 28910, Note_on_c, 0, 71, 67
1, 28915, Control_c, 0, 64, 35
1, 28930, Control_c, 0, 64, 12
1, 28944, Control_c, 0, 64, 0
1, 28973, Note_off_c, 0, 71, 61
1, 28988, Note_on_c, 0, 74, 74
1, 29037, Note_off_c, 0, 74, 66
1, 29077, Note_on_c, 0, 79, 78
1, 29141, Note_off_c, 0, 79, 50
1, 29156, Note_on_c, 0, 75, 74
1, 29219, Note_off_c, 0, 75, 61
1, 29240, Note_on_c, 0, 48, 74
1, 29241, Note_on_c, 0, 60, 69
1, 29244, Note_on_c, 0, 72, 66
1, 29259, Note_off_c, 0, 60, 66
1, 29268, Note_off_c, 0, 48, 67
1, 29276, Note_off_c, 0, 72, 60
1, 29312, Note_on_c, 0, 75, 69
1, 29366, Note_off_c, 0, 75, 61
1, 29396, Note_on_c, 0, 55, 76
1, 29399, Note_on_c, 0, 43, 69
1, 29400, Note_on_c, 0, 71, 67
1, 29400, Note_on_c, 0, 74, 67
1, 29420, Note_off_c, 0, 55, 67
1, 29422, Note_off_c, 0, 43, 62
1, 29426, Note_off_c, 0, 71, 68
1, 29438, Note_off_c, 0, 74, 51
1, 29467, Note_on_c, 0, 79, 74
1, 29534, Note_off_c, 0, 79, 53
1, 29557, Note_on_c, 0, 60, 76
1, 29558, Note_on_c, 0, 48, 77
1, 29561, Note_on_c, 0, 72, 72
1, 29565, Note_on_c, 0, 75, 69
1, 29574, Note_off_c, 0, 60, 70
1, 29586, Note_off_c, 0, 48, 68
1, 29595, Note_off_c, 0, 72, 58
1, 29624, Note_off_c, 0, 75, 58
1, 29635, Note_on_c, 0, 79, 76
1, 29702, Note_off_c, 0, 79, 57
1, 29714, Note_on_c, 0, 55, 85
1, 29716, Note_on_c, 0, 43, 78
1, 29720, Note_on_c, 0, 74, 74
1, 29721, Note_on_c, 0, 71, 76
1, 29736, Note_off_c, 0, 55, 73
1, 29744, Note_off_c, 0, 43, 66
1, 29752, Note_off_c, 0, 71, 61
1, 29771, Note_off_c, 0, 74, 62
1, 29783, Note_on_c, 0, 79, 81
1, 29851, Note_off_c, 0, 79, 60
1, 29873, Note_on_c, 0, 60, 81
1, 29876, Note_on_c, 0, 48, 81
1, 29878, Note_on_c, 0, 72, 76
1, 29881, Note_on_c, 0, 75, 72
1, 29895, Note_off_c, 0, 60, 72
1, 29901, Note_off_c, 0, 48, 69
1, 29920, Note_off_c, 0, 72, 64
1, 29962, Note_off_c, 0, 75, 62
1, 29963, Note_on_c, 0, 79, 74
1, 30025, Note_off_c, 0, 79, 61
1, 30042, Control_c, 0, 64, 35
1, 30048, Note_on_c, 0, 55, 89
1, 30049, Note_on_c, 0, 43, 90
1, 30052, Note_on_c, 0, 74, 85
1, 30053, Note_on_c, 0, 71, 87
1, 30057, Control_c, 0, 64, 63
1, 30067, Note_off_c, 0, 55, 74
1, 30070, Note_off_c, 0, 43, 66
1, 30071, Note_off_c, 0, 74, 73
1, 30072, Control_c, 0, 64, 71
1, 30080, Note_off_c, 0, 71, 65
1, 30086, Control_c, 0, 64, 62
1, 30101, Control_c, 0, 64, 38
1, 30116, Control_c, 0, 64, 0
1, 30318, Note_on_c, 0, 67, 62
1, 30363, Note_on_c, 0, 71, 74
1, 30374, Note_off_c, 0, 67, 65
1, 30377, Note_on_c, 0, 74, 72
1, 30394, Note_on_c, 0, 79, 90
1, 30402, Note_off_c, 0, 71, 69
1, 30403, Note_off_c, 0, 74, 69
1, 30408, Note_on_c, 0, 43, 84
1, 30411, Note_on_c, 0, 31, 80
1, 30413, Control_c, 0, 64, 43
1, 30421, Note_off_c, 0, 79, 66
1, 30428, Control_c, 0, 64, 64
1, 30442, Control_c, 0, 64, 127
1, 30652, Note_off_c, 0, 43, 48
1, 30662, Note_off_c, 0, 31, 59
1, 30731, Control_c, 0, 64, 82
1, 30746, Control_c, 0, 64, 63
1, 30761, Control_c, 0, 64, 48
1, 30773, Note_on_c, 0, 43, 73
1, 30776, Note_on_c, 0, 31, 76
1, 30776, Control_c, 0, 64, 18
1, 30791, Control_c, 0, 64, 0
1, 30908, Note_off_c, 0, 31, 64
1, 30909, Control_c, 0, 67, 10
1, 30915, Note_off_c, 0, 43, 61
1, 30924, Control_c, 0, 67, 18
1, 30940, Control_c, 0, 67, 30
1, 30951, Note_on_c, 0, 79, 65
1, 30955, Control_c, 0, 67, 52
1, 30970, Control_c, 0, 67, 85
1, 30979, Note_off_c, 0, 79, 59
1, 30985, Control_c, 0, 67, 124
1, 31000, Control_c, 0, 67, 127
1, 31143, Note_on_c, 0, 81, 46
1, 31169, Note_off_c, 0, 81, 58
1, 31283, Note_on_c, 0, 83, 66
1, 31312, Note_off_c, 0, 83, 67
1, 31465, Note_on_c, 0, 64, 55
1, 31468, Note_on_c, 0, 67, 52
1, 31473, Note_on_c, 0, 84, 54
1, 31493, Note_off_c, 0, 64, 60
1, 31494, Note_off_c, 0, 67, 57
1, 31519, Note_off_c, 0, 84, 57
1, 31551, Note_on_c, 0, 86, 61
1, 31611, Note_off_c, 0, 86, 62
1, 31618, Note_on_c, 0, 83, 70
1, 31628, Note_on_c, 0, 67, 44
1, 31629, Note_on_c, 0, 64, 43
1, 31658, Note_off_c, 0, 64, 54
1, 31660, Note_off_c, 0, 67, 53
1, 31684, Note_off_c, 0, 83, 63
1, 31686, Note_on_c, 0, 86, 73
1, 31773, Note_on_c, 0, 84, 79
1, 31776, Note_off_c, 0, 86, 62
1, 31783, Note_on_c, 0, 64, 53
1, 31788, Note_on_c, 0, 67, 48
1, 31815, Note_off_c, 0, 64, 57
1, 31816, Note_off_c, 0, 67, 57
1, 31843, Note_on_c, 0, 86, 72
1, 31844, Note_off_c, 0, 84, 63
1, 31924, Note_off_c, 0, 86, 62
1, 31939, Note_on_c, 0, 83, 68
1, 31945, Note_on_c, 0, 64, 48
1, 31947, Note_on_c, 0, 67, 48
1, 31971, Note_off_c, 0, 67, 60
1, 31971, Note_off_c, 0, 64, 56
1, 31992, Note_off_c, 0, 83, 62
1, 32013, Note_on_c, 0, 86, 59
1, 32088, Note_off_c, 0, 86, 62
1, 32109, Note_on_c, 0, 84, 61
1, 32111, Note_on_c, 0, 67, 37
1, 32114, Note_on_c, 0, 64, 31
1, 32163, Note_off_c, 0, 84, 61
1, 32183, Note_on_c, 0, 86, 58
1, 32270, Note_off_c, 0, 86, 60
1, 32276, Note_on_c, 0, 83, 61
1, 32317, Note_off_c, 0, 67, 60
1, 32320, Note_off_c, 0, 64, 58
1, 32321, Note_off_c, 0, 83, 60
1, 32353, Note_on_c, 0, 84, 58
1, 32416, Note_off_c, 0, 84, 63
1, 32425, Note_on_c, 0, 81, 69
1, 32467, Note_off_c, 0, 81, 61
1, 32505, Note_on_c, 0, 83, 51
1, 32562, Note_off_c, 0, 83, 59
1, 32584, Note_on_c, 0, 79, 52
1, 32612, Note_off_c, 0, 79, 55
1, 32651, Note_on_c, 0, 81, 51
1, 32714, Note_off_c, 0, 81, 64
1, 32735, Note_on_c, 0, 77, 54
1, 32739, Note_on_c, 0, 69, 55
1, 32746, Note_on_c, 0, 62, 45
1, 32763, Note_off_c, 0, 69, 60
1, 32767, Note_off_c, 0, 77, 56
1, 32773, Note_off_c, 0, 62, 57
1, 32811, Note_on_c, 0, 79, 49
1, 32886, Note_off_c, 0, 79, 55
1, 32887, Note_on_c, 0, 62, 54
1, 32892, Note_on_c, 0, 76, 64
1, 32892, Note_on_c, 0, 69, 50
1, 32915, Note_off_c, 0, 69, 61
1, 32922, Note_off_c, 0, 62, 64
1, 32929, Note_off_c, 0, 76, 57
1, 32976, Note_on_c, 0, 79, 51
1, 33053, Note_off_c, 0, 79, 61
1, 33055, Note_on_c, 0, 69, 56
1, 33056, Note_on_c, 0, 77, 70
1, 33062, Note_on_c, 0, 62, 58
1, 33086, Note_off_c, 0, 69, 58
1, 33086, Note_off_c, 0, 62, 60
1, 33122, Note_off_c, 0, 77, 59
1, 33133, Note_on_c, 0, 79, 62
1, 33203, Note_off_c, 0, 79, 61
1, 33208, Note_on_c, 0, 69, 59
1, 33211, Note_on_c, 0, 62, 49
1, 33214, Note_on_c, 0, 76, 68
1, 33234, Note_off_c, 0, 69, 59
1, 33243, Note_off_c, 0, 62, 58
1, 33251, Note_off_c, 0, 76, 58
1, 33296, Note_on_c, 0, 79, 54
1, 33364, Note_off_c, 0, 79, 58
1, 33377, Note_on_c, 0, 69, 42
1, 33383, Note_on_c, 0, 62, 37
1, 33385, Note_on_c, 0, 77, 60
1, 33428, Note_off_c, 0, 69, 0
1, 33428, Note_on_c, 0, 69, 9
1, 33430, Note_off_c, 0, 77, 55
1, 33457, Note_on_c, 0, 79, 61
1, 33533, Note_off_c, 0, 79, 61
1, 33543, Note_on_c, 0, 76, 66
1, 33584, Note_off_c, 0, 76, 56
1, 33600, Note_off_c, 0, 69, 58
1, 33615, Note_on_c, 0, 77, 66
1, 33629, Note_off_c, 0, 62, 59
1, 33678, Note_off_c, 0, 77, 59
1, 33713, Note_on_c, 0, 74, 62
1, 33743, Note_off_c, 0, 74, 61
1, 33772, Note_on_c, 0, 76, 64
1, 33838, Note_off_c, 0, 76, 64
1, 33863, Note_on_c, 0, 72, 48
1, 33885, Note_off_c, 0, 72, 59
1, 33927, Note_on_c, 0, 74, 51
1, 33987, Note_off_c, 0, 74, 63
1, 34018, Note_on_c, 0, 65, 58
1, 34019, Note_on_c, 0, 55, 57
1, 34022, Note_on_c, 0, 71, 39
1, 34027, Note_on_c, 0, 62, 47
1, 34039, Note_off_c, 0, 65, 62
1, 34049, Note_off_c, 0, 55, 66
1, 34053, Note_off_c, 0, 71, 57
1, 34054, Note_off_c, 0, 62, 56
1, 34091, Note_on_c, 0, 72, 51
1, 34153, Note_off_c, 0, 72, 57
1, 34162, Note_on_c, 0, 62, 56
1, 34164, Note_on_c, 0, 65, 60
1, 34171, Note_on_c, 0, 69, 62
1, 34174, Note_on_c, 0, 55, 50
1, 34188, Note_off_c, 0, 65, 66
1, 34196, Note_off_c, 0, 62, 65
1, 34198, Note_off_c, 0, 55, 62
1, 34209, Note_off_c, 0, 69, 61
1, 34245, Note_on_c, 0, 72, 61
1, 34312, Note_off_c, 0, 72, 57
1, 34318, Note_on_c, 0, 65, 72
1, 34322, Note_on_c, 0, 55, 55
1, 34326, Note_on_c, 0, 62, 61
1, 34326, Note_on_c, 0, 71, 67
1, 34343, Note_off_c, 0, 65, 70
1, 34350, Note_off_c, 0, 62, 65
1, 34354, Note_off_c, 0, 55, 66
1, 34388, Note_off_c, 0, 71, 63
1, 34396, Note_on_c, 0, 72, 68
1, 34475, Note_off_c, 0, 72, 62
1, 34487, Note_on_c, 0, 65, 65
1, 34488, Note_on_c, 0, 69, 70
1, 34489, Note_on_c, 0, 55, 56
1, 34493, Note_on_c, 0, 62, 50
1, 34505, Note_off_c, 0, 65, 68
1, 34515, Note_off_c, 0, 55, 64
1, 34517, Note_off_c, 0, 62, 59
1, 34528, Note_off_c, 0, 69, 56
1, 34566, Note_on_c, 0, 72, 61
1, 34631, Note_off_c, 0, 72, 58
1, 34654, Note_on_c, 0, 65, 51
1, 34656, Note_on_c, 0, 71, 57
1, 34660, Note_on_c, 0, 55, 38
1, 34675, Note_on_c, 0, 62, 28
1, 34704, Note_off_c, 0, 65, 0
1, 34704, Note_on_c, 0, 65, 20
1, 34711, Note_off_c, 0, 71, 63
1, 34736, Note_on_c, 0, 72, 61
1, 34799, Note_off_c, 0, 72, 62
1, 34809, Note_on_c, 0, 69, 64
1, 34860, Note_off_c, 0, 69, 59
1, 34889, Note_on_c, 0, 71, 65
1, 34900, Note_off_c, 0, 62, 54
1, 34907, Note_off_c, 0, 65, 57
1, 34956, Note_off_c, 0, 71, 62
1, 34971, Note_on_c, 0, 67, 66
1, 34975, Note_off_c, 0, 55, 41
1, 35005, Note_off_c, 0, 67, 62
1, 35042, Note_on_c, 0, 69, 61
1, 35102, Note_off_c, 0, 69, 64
1, 35116, Note_on_c, 0, 65, 61
1, 35152, Note_off_c, 0, 65, 64
1, 35197, Note_on_c, 0, 67, 54
1, 35270, Note_off_c, 0, 67, 64
1, 35286, Note_on_c, 0, 64, 55
1, 35287, Note_on_c, 0, 60, 42
1, 35320, Note_off_c, 0, 64, 64
1, 35357, Note_on_c, 0, 67, 57
1, 35417, Note_off_c, 0, 67, 52
1, 35440, Note_on_c, 0, 65, 67
1, 35507, Note_off_c, 0, 65, 63
1, 35512, Note_on_c, 0, 64, 70
1, 35549, Note_off_c, 0, 64, 60
1, 35590, Note_on_c, 0, 65, 72
1, 35644, Note_off_c, 0, 65, 63
1, 35659, Note_on_c, 0, 67, 81
1, 35712, Note_off_c, 0, 67, 57
1, 35741, Note_on_c, 0, 69, 76
1, 35772, Note_off_c, 0, 60, 52
1, 35784, Note_off_c, 0, 69, 67
1, 35813, Note_on_c, 0, 71, 74
1, 35869, Note_off_c, 0, 71, 58
1, 35891, Note_on_c, 0, 72, 75
1, 35944, Note_off_c, 0, 72, 57
1, 35978, Note_on_c, 0, 74, 73
1, 36061, Note_on_c, 0, 72, 78
1, 36079, Note_off_c, 0, 74, 56
1, 36123, Note_off_c, 0, 72, 64
1, 36137, Note_on_c, 0, 71, 78
1, 36193, Note_off_c, 0, 71, 63
1, 36218, Note_on_c, 0, 72, 83
1, 36258, Note_off_c, 0, 72, 64
1, 36293, Note_on_c, 0, 74, 70
1, 36337, Note_off_c, 0, 74, 61
1, 36365, Note_on_c, 0, 76, 73
1, 36388, Note_off_c, 0, 76, 68
1, 36444, Note_on_c, 0, 77, 70
1, 36493, Note_off_c, 0, 77, 58
1, 36523, Note_on_c, 0, 52, 54
1, 36526, Note_on_c, 0, 60, 49
1, 36527, Note_on_c, 0, 79, 64
1, 36547, Note_off_c, 0, 52, 62
1, 36547, Note_off_c, 0, 60, 59
1, 36587, Note_off_c, 0, 79, 57
1, 36605, Note_on_c, 0, 81, 66
1, 36672, Note_off_c, 0, 81, 62
1, 36675, Note_on_c, 0, 52, 57
1, 36676, Note_on_c, 0, 60, 57
1, 36680, Note_on_c, 0, 78, 76
1, 36711, Note_off_c, 0, 60, 66
1, 36716, Note_off_c, 0, 52, 66
1, 36737, Note_off_c, 0, 78, 63
1, 36763, Note_on_c, 0, 81, 75
1, 36848, Note_on_c, 0, 60, 64
1, 36850, Note_on_c, 0, 79, 76
1, 36850, Note_off_c, 0, 81, 64
1, 36851, Note_on_c, 0, 52, 62
1, 36877, Note_off_c, 0, 60, 63
1, 36884, Note_off_c, 0, 52, 65
1, 36915, Note_on_c, 0, 81, 79
1, 36917, Note_off_c, 0, 79, 63
1, 36996, Note_off_c, 0, 81, 64
1, 37000, Note_on_c, 0, 78, 85
1, 37010, Note_on_c, 0, 52, 62
1, 37011, Note_on_c, 0, 60, 60
1, 37041, Note_off_c, 0, 60, 53
1, 37045, Note_off_c, 0, 52, 66
1, 37071, Note_off_c, 0, 78, 62
1, 37073, Note_on_c, 0, 81, 75
1, 37132, Note_off_c, 0, 81, 63
1, 37164, Note_on_c, 0, 79, 74
1, 37167, Note_on_c, 0, 60, 52
1, 37170, Note_on_c, 0, 52, 53
1, 37196, Control_c, 0, 67, 111
1, 37211, Control_c, 0, 67, 90
1, 37226, Control_c, 0, 67, 71
1, 37241, Note_on_c, 0, 84, 70
1, 37241, Control_c, 0, 67, 53
1, 37243, Note_off_c, 0, 79, 56
1, 37256, Control_c, 0, 67, 38
1, 37270, Control_c, 0, 67, 26
1, 37285, Control_c, 0, 67, 18
1, 37300, Control_c, 0, 67, 10
1, 37315, Control_c, 0, 67, 0
1, 37319, Note_off_c, 0, 84, 64
1, 37323, Note_on_c, 0, 83, 74
1, 37393, Note_off_c, 0, 83, 63
1, 37403, Note_on_c, 0, 84, 76
1, 37430, Note_off_c, 0, 52, 47
1, 37489, Note_off_c, 0, 84, 63
1, 37494, Note_on_c, 0, 86, 81
1, 37568, Note_on_c, 0, 84, 78
1, 37590, Note_off_c, 0, 86, 57
1, 37641, Note_off_c, 0, 84, 65
1, 37650, Note_on_c, 0, 83, 74
1, 37715, Note_off_c, 0, 83, 63
1, 37730, Note_on_c, 0, 84, 73
1, 37817, Note_on_c, 0, 83, 67
1, 37817, Note_on_c, 0, 53, 57
1, 37819, Note_off_c, 0, 84, 59
1, 37870, Note_off_c, 0, 83, 63
1, 37898, Note_on_c, 0, 81, 68
1, 37972, Note_off_c, 0, 81, 63
1, 37977, Note_on_c, 0, 80, 75
1, 38058, Note_off_c, 0, 80, 62
1, 38067, Note_on_c, 0, 81, 66
1, 38076, Note_off_c, 0, 60, 39
1, 38152, Note_on_c, 0, 79, 73
1, 38157, Note_on_c, 0, 57, 56
1, 38166, Note_off_c, 0, 81, 60
1, 38229, Note_off_c, 0, 57, 61
1, 38239, Note_on_c, 0, 77, 74
1, 38264, Note_off_c, 0, 79, 55
1, 38313, Note_off_c, 0, 77, 63
1, 38328, Note_on_c, 0, 76, 70
1, 38392, Note_off_c, 0, 76, 64
1, 38397, Note_on_c, 0, 77, 67
1, 38490, Note_on_c, 0, 76, 68
1, 38494, Note_on_c, 0, 62, 49
1, 38512, Note_off_c, 0, 77, 55
1, 38546, Note_off_c, 0, 76, 66
1, 38562, Note_on_c, 0, 74, 69
1, 38637, Note_off_c, 0, 74, 65
1, 38648, Note_on_c, 0, 73, 75
1, 38678, Note_off_c, 0, 53, 59
1, 38711, Note_off_c, 0, 73, 65
1, 38725, Note_on_c, 0, 74, 73
1, 38793, Note_off_c, 0, 74, 64
1, 38807, Note_on_c, 0, 53, 52
1, 38808, Note_on_c, 0, 73, 79
1, 38863, Note_off_c, 0, 73, 63
1, 38882, Note_on_c, 0, 74, 70
1, 38930, Note_off_c, 0, 74, 67
1, 38971, Note_on_c, 0, 76, 74
1, 39018, Note_off_c, 0, 76, 66
1, 39048, Note_on_c, 0, 77, 69
1, 39089, Note_off_c, 0, 53, 59
1, 39107, Note_off_c, 0, 77, 59
1, 39130, Note_on_c, 0, 52, 47
1, 39132, Note_on_c, 0, 81, 64
1, 39215, Note_on_c, 0, 79, 64
1, 39216, Note_off_c, 0, 81, 61
1, 39280, Note_off_c, 0, 79, 63
1, 39290, Note_on_c, 0, 78, 69
1, 39352, Note_off_c, 0, 78, 61
1, 39370, Note_on_c, 0, 79, 56
1, 39439, Note_on_c, 0, 55, 53
1, 39455, Note_on_c, 0, 77, 67
1, 39462, Note_off_c, 0, 62, 44
1, 39465, Note_off_c, 0, 79, 59
1, 39483, Note_off_c, 0, 55, 63
1, 39524, Note_on_c, 0, 76, 70
1, 39540, Note_off_c, 0, 77, 57
1, 39580, Note_off_c, 0, 76, 66
1, 39602, Note_on_c, 0, 74, 68
1, 39656, Note_off_c, 0, 74, 64
1, 39676, Note_on_c, 0, 76, 68
1, 39758, Note_on_c, 0, 60, 54
1, 39764, Note_on_c, 0, 74, 66
1, 39769, Note_off_c, 0, 76, 57
1, 39818, Note_off_c, 0, 74, 66
1, 39839, Note_on_c, 0, 72, 66
1, 39910, Note_off_c, 0, 72, 63
1, 39926, Note_on_c, 0, 71, 65
1, 39936, Note_off_c, 0, 52, 43
1, 39958, Note_off_c, 0, 71, 64
1, 40000, Note_on_c, 0, 72, 61
1, 40035, Note_off_c, 0, 72, 58
1, 40055, Note_on_c, 0, 52, 51
1, 40075, Note_on_c, 0, 71, 68
1, 40104, Note_off_c, 0, 71, 66
1, 40143, Note_on_c, 0, 72, 67
1, 40192, Note_off_c, 0, 72, 62
1, 40223, Note_on_c, 0, 74, 68
1, 40249, Note_off_c, 0, 74, 67
1, 40296, Note_on_c, 0, 76, 70
1, 40348, Note_off_c, 0, 52, 42
1, 40357, Note_off_c, 0, 76, 60
1, 40379, Note_on_c, 0, 77, 65
1, 40389, Note_on_c, 0, 50, 43
1, 40458, Note_off_c, 0, 77, 59
1, 40472, Note_on_c, 0, 79, 64
1, 40546, Note_off_c, 0, 79, 61
1, 40552, Note_on_c, 0, 76, 67
1, 40604, Note_off_c, 0, 76, 61
1, 40631, Note_on_c, 0, 77, 62
1, 40699, Note_off_c, 0, 77, 61
1, 40707, Note_on_c, 0, 74, 64
1, 40718, Note_on_c, 0, 57, 42
1, 40719, Note_on_c, 0, 53, 41
1, 40756, Note_off_c, 0, 60, 35
1, 40761, Note_off_c, 0, 74, 64
1, 40777, Note_on_c, 0, 76, 66
1, 40780, Note_off_c, 0, 50, 37
1, 40849, Note_off_c, 0, 76, 66
1, 40858, Note_on_c, 0, 72, 71
1, 40919, Note_off_c, 0, 72, 62
1, 40926, Note_on_c, 0, 74, 69
1, 41015, Note_off_c, 0, 74, 64
1, 41018, Note_on_c, 0, 71, 72
1, 41025, Note_on_c, 0, 55, 60
1, 41076, Note_off_c, 0, 71, 65
1, 41084, Note_off_c, 0, 57, 57
1, 41089, Note_on_c, 0, 72, 72
1, 41122, Note_off_c, 0, 53, 64
1, 41173, Note_off_c, 0, 72, 64
1, 41177, Note_on_c, 0, 69, 71
1, 41243, Note_off_c, 0, 69, 64
1, 41261, Note_on_c, 0, 71, 71
1, 41343, Note_off_c, 0, 71, 64
1, 41346, Note_on_c, 0, 67, 71
1, 41352, Note_on_c, 0, 47, 64
1, 41401, Note_off_c, 0, 67, 60
1, 41424, Note_on_c, 0, 69, 66
1, 41494, Note_off_c, 0, 69, 65
1, 41505, Note_on_c, 0, 65, 64
1, 41546, Note_off_c, 0, 65, 59
1, 41576, Note_on_c, 0, 67, 62
1, 41621, Note_off_c, 0, 47, 36
1, 41650, Note_off_c, 0, 67, 63
1, 41657, Note_on_c, 0, 48, 48
1, 41665, Note_on_c, 0, 64, 57
1, 41689, Control_c, 0, 64, 13
1, 41703, Note_off_c, 0, 64, 61
1, 41704, Control_c, 0, 64, 23
1, 41718, Control_c, 0, 64, 32
1, 41732, Note_on_c, 0, 67, 56
1, 41733, Control_c, 0, 64, 41
1, 41748, Control_c, 0, 64, 50
1, 41763, Control_c, 0, 64, 58
1, 41778, Control_c, 0, 64, 62
1, 41793, Control_c, 0, 64, 64
1, 41807, Control_c, 0, 64, 65
1, 41810, Note_on_c, 0, 65, 73
1, 41813, Note_off_c, 0, 67, 64
1, 41822, Control_c, 0, 64, 65
1, 41823, Note_off_c, 0, 48, 63
1, 41837, Control_c, 0, 64, 67
1, 41839, Note_off_c, 0, 55, 55
1, 41852, Control_c, 0, 64, 69
1, 41866, Control_c, 0, 64, 70
1, 41874, Note_off_c, 0, 65, 64
1, 41885, Note_on_c, 0, 64, 73
1, 41910, Control_c, 0, 64, 67
1, 41925, Control_c, 0, 64, 61
1, 41942, Note_off_c, 0, 64, 59
1, 41947, Control_c, 0, 64, 50
1, 41962, Control_c, 0, 64, 32
1, 41969, Note_on_c, 0, 65, 79
1, 41969, Note_on_c, 0, 55, 65
1, 41977, Control_c, 0, 64, 0
1, 41981, Note_on_c, 0, 50, 55
1, 42006, Control_c, 0, 64, 15
1, 42021, Control_c, 0, 64, 22
1, 42026, Note_off_c, 0, 65, 63
1, 42036, Control_c, 0, 64, 26
1, 42040, Note_on_c, 0, 67, 83
1, 42051, Control_c, 0, 64, 30
1, 42065, Control_c, 0, 64, 33
1, 42080, Control_c, 0, 64, 36
1, 42095, Control_c, 0, 64, 39
1, 42110, Control_c, 0, 64, 41
1, 42121, Note_on_c, 0, 69, 78
1, 42122, Note_off_c, 0, 67, 60
1, 42126, Control_c, 0, 64, 42
1, 42140, Control_c, 0, 64, 42
1, 42169, Note_off_c, 0, 69, 63
1, 42185, Control_c, 0, 64, 43
1, 42199, Note_on_c, 0, 71, 80
1, 42200, Control_c, 0, 64, 44
1, 42215, Control_c, 0, 64, 44
1, 42229, Control_c, 0, 64, 44
1, 42244, Control_c, 0, 64, 40
1, 42259, Control_c, 0, 64, 29
1, 42273, Note_off_c, 0, 71, 47
1, 42274, Control_c, 0, 64, 0
1, 42275, Note_on_c, 0, 72, 82
1, 42282, Note_on_c, 0, 52, 60
1, 42287, Note_off_c, 0, 55, 61
1, 42288, Note_off_c, 0, 50, 58
1, 42344, Note_off_c, 0, 72, 60
1, 42351, Note_on_c, 0, 74, 78
1, 42417, Note_off_c, 0, 74, 65
1, 42433, Note_on_c, 0, 76, 80
1, 42509, Note_on_c, 0, 74, 77
1, 42525, Note_off_c, 0, 76, 62
1, 42571, Note_off_c, 0, 74, 67
1, 42577, Note_off_c, 0, 52, 63
1, 42589, Note_on_c, 0, 60, 59
1, 42592, Note_on_c, 0, 72, 77
1, 42637, Note_off_c, 0, 72, 63
1, 42669, Note_on_c, 0, 70, 71
1, 42726, Note_off_c, 0, 70, 62
1, 42746, Note_on_c, 0, 69, 73
1, 42790, Note_off_c, 0, 69, 67
1, 42822, Note_on_c, 0, 68, 71
1, 42870, Note_off_c, 0, 68, 60
1, 42904, Note_on_c, 0, 69, 67
1, 42912, Note_on_c, 0, 53, 49
1, 42956, Note_off_c, 0, 69, 62
1, 42979, Note_on_c, 0, 71, 68
1, 43022, Note_off_c, 0, 71, 60
1, 43063, Note_on_c, 0, 72, 63
1, 43111, Note_off_c, 0, 72, 61
1, 43135, Note_on_c, 0, 71, 67
1, 43162, Note_off_c, 0, 53, 65
1, 43168, Note_off_c, 0, 71, 59
1, 43174, Note_off_c, 0, 60, 64
1, 43221, Note_on_c, 0, 72, 69
1, 43255, Note_off_c, 0, 72, 55
1, 43299, Note_on_c, 0, 73, 60
1, 43330, Note_off_c, 0, 73, 63
1, 43364, Note_on_c, 0, 74, 66
1, 43398, Note_off_c, 0, 74, 64
1, 43451, Note_on_c, 0, 73, 60
1, 43491, Note_off_c, 0, 73, 61
1, 43524, Note_on_c, 0, 74, 65
1, 43576, Note_off_c, 0, 74, 62
1, 43600, Note_on_c, 0, 76, 71
1, 43632, Note_off_c, 0, 76, 62
1, 43675, Note_on_c, 0, 77, 70
1, 43716, Note_off_c, 0, 77, 56
1, 43746, Note_on_c, 0, 76, 73
1, 43786, Note_off_c, 0, 76, 55
1, 43829, Note_on_c, 0, 77, 75
1, 43869, Note_off_c, 0, 77, 52
1, 43904, Note_on_c, 0, 80, 67
1, 43933, Note_off_c, 0, 80, 64
1, 43976, Note_on_c, 0, 81, 74
1, 44014, Note_off_c, 0, 81, 62
1, 44056, Note_on_c, 0, 80, 61
1, 44091, Note_off_c, 0, 80, 60
1, 44136, Note_on_c, 0, 81, 59
1, 44149, Note_on_c, 0, 53, 48
1, 44175, Note_off_c, 0, 81, 62
1, 44190, Note_off_c, 0, 53, 56
1, 44225, Note_on_c, 0, 83, 54
1, 44232, Note_on_c, 0, 62, 48
1, 44255, Note_off_c, 0, 83, 58
1, 44272, Note_off_c, 0, 62, 51
1, 44305, Note_on_c, 0, 57, 43
1, 44306, Note_on_c, 0, 84, 58
1, 44333, Note_off_c, 0, 57, 57
1, 44347, Note_off_c, 0, 84, 61
1, 44370, Note_on_c, 0, 62, 51
1, 44372, Note_on_c, 0, 83, 54
1, 44415, Note_off_c, 0, 83, 61
1, 44419, Note_off_c, 0, 62, 57
1, 44458, Note_on_c, 0, 84, 73
1, 44467, Note_on_c, 0, 53, 49
1, 44501, Note_off_c, 0, 53, 61
1, 44515, Note_off_c, 0, 84, 61
1, 44527, Note_on_c, 0, 62, 56
1, 44528, Note_on_c, 0, 83, 73
1, 44575, Note_off_c, 0, 83, 59
1, 44575, Note_off_c, 0, 62, 57
1, 44615, Note_on_c, 0, 57, 54
1, 44616, Note_on_c, 0, 84, 81
1, 44652, Note_off_c, 0, 57, 63
1, 44681, Note_on_c, 0, 62, 59
1, 44684, Note_off_c, 0, 84, 64
1, 44686, Note_on_c, 0, 83, 79
1, 44734, Note_off_c, 0, 62, 58
1, 44735, Note_off_c, 0, 83, 60
1, 44774, Note_on_c, 0, 53, 55
1, 44774, Note_on_c, 0, 86, 80
1, 44822, Note_off_c, 0, 53, 60
1, 44840, Note_on_c, 0, 62, 62
1, 44846, Note_on_c, 0, 84, 82
1, 44870, Note_off_c, 0, 86, 58
1, 44890, Note_off_c, 0, 62, 57
1, 44920, Note_on_c, 0, 83, 81
1, 44921, Note_on_c, 0, 57, 54
1, 44945, Note_off_c, 0, 84, 57
1, 44967, Note_off_c, 0, 57, 62
1, 44995, Note_off_c, 0, 83, 66
1, 45006, Note_on_c, 0, 62, 61
1, 45007, Note_on_c, 0, 81, 78
1, 45044, Note_off_c, 0, 81, 64
1, 45054, Note_off_c, 0, 62, 57
1, 45087, Note_on_c, 0, 83, 82
1, 45091, Note_on_c, 0, 53, 57
1, 45155, Note_on_c, 0, 81, 79
1, 45162, Note_on_c, 0, 62, 60
1, 45173, Note_off_c, 0, 83, 64
1, 45174, Note_off_c, 0, 53, 59
1, 45210, Note_off_c, 0, 62, 57
1, 45228, Note_on_c, 0, 57, 64
1, 45232, Note_on_c, 0, 79, 80
1, 45238, Note_off_c, 0, 81, 64
1, 45263, Note_off_c, 0, 57, 62
1, 45287, Note_off_c, 0, 79, 61
1, 45311, Note_on_c, 0, 77, 75
1, 45319, Note_on_c, 0, 62, 56
1, 45348, Note_off_c, 0, 62, 54
1, 45384, Note_on_c, 0, 76, 73
1, 45387, Note_off_c, 0, 77, 60
1, 45413, Note_on_c, 0, 55, 45
1, 45448, Note_off_c, 0, 76, 63
1, 45454, Note_off_c, 0, 55, 60
1, 45465, Note_on_c, 0, 64, 56
1, 45466, Note_on_c, 0, 79, 70
1, 45518, Note_off_c, 0, 64, 60
1, 45544, Note_off_c, 0, 79, 61
1, 45549, Note_on_c, 0, 60, 55
1, 45557, Note_on_c, 0, 81, 78
1, 45585, Note_off_c, 0, 60, 64
1, 45615, Note_on_c, 0, 64, 62
1, 45629, Note_on_c, 0, 79, 78
1, 45653, Note_off_c, 0, 81, 62
1, 45666, Note_off_c, 0, 64, 61
1, 45707, Note_on_c, 0, 77, 85
1, 45710, Note_on_c, 0, 55, 61
1, 45724, Note_off_c, 0, 79, 61
1, 45767, Note_off_c, 0, 77, 65
1, 45770, Note_on_c, 0, 64, 63
1, 45776, Note_on_c, 0, 76, 82
1, 45781, Note_off_c, 0, 55, 62
1, 45838, Note_off_c, 0, 76, 53
1, 45841, Note_off_c, 0, 64, 61
1, 45847, Note_on_c, 0, 60, 67
1, 45849, Note_on_c, 0, 74, 80
1, 45891, Note_off_c, 0, 60, 62
1, 45899, Control_c, 0, 64, 14
1, 45901, Note_off_c, 0, 74, 62
1, 45909, Note_on_c, 0, 64, 61
1, 45914, Control_c, 0, 64, 40
1, 45925, Note_on_c, 0, 72, 78
1, 45929, Control_c, 0, 64, 56
1, 45944, Control_c, 0, 64, 69
1, 45959, Control_c, 0, 64, 73
1, 45962, Note_off_c, 0, 64, 59
1, 45973, Control_c, 0, 64, 65
1, 45977, Note_off_c, 0, 72, 62
1, 45988, Control_c, 0, 64, 54
1, 46003, Note_on_c, 0, 76, 73
1, 46003, Control_c, 0, 64, 14
1, 46017, Note_on_c, 0, 55, 58
1, 46018, Control_c, 0, 64, 0
1, 46049, Note_off_c, 0, 76, 67
1, 46061, Note_off_c, 0, 55, 58
1, 46062, Control_c, 0, 64, 18
1, 46074, Note_on_c, 0, 65, 65
1, 46075, Note_on_c, 0, 74, 68
1, 46077, Control_c, 0, 64, 21
1, 46092, Control_c, 0, 64, 20
1, 46107, Control_c, 0, 64, 13
1, 46122, Note_off_c, 0, 74, 65
1, 46122, Control_c, 0, 64, 0
1, 46127, Note_off_c, 0, 65, 61
1, 46138, Note_on_c, 0, 76, 61
1, 46160, Note_off_c, 0, 76, 68
1, 46170, Note_on_c, 0, 59, 47
1, 46175, Note_on_c, 0, 74, 59
1, 46205, Note_off_c, 0, 59, 63
1, 46220, Note_on_c, 0, 65, 62
1, 46221, Note_off_c, 0, 74, 66
1, 46224, Note_on_c, 0, 76, 78
1, 46268, Note_off_c, 0, 65, 61
1, 46268, Note_off_c, 0, 76, 65
1, 46283, Note_on_c, 0, 74, 58
1, 46293, Note_on_c, 0, 55, 59
1, 46315, Note_off_c, 0, 74, 66
1, 46316, Note_on_c, 0, 76, 79
1, 46360, Note_on_c, 0, 65, 64
1, 46372, Note_off_c, 0, 76, 67
1, 46375, Note_off_c, 0, 55, 61
1, 46386, Note_on_c, 0, 74, 76
1, 46406, Note_off_c, 0, 65, 61
1, 46427, Note_on_c, 0, 59, 59
1, 46465, Note_off_c, 0, 74, 63
1, 46470, Note_on_c, 0, 72, 71
1, 46470, Note_off_c, 0, 59, 61
1, 46518, Note_on_c, 0, 65, 50
1, 46527, Note_on_c, 0, 74, 74
1, 46534, Note_off_c, 0, 72, 59
1, 46544, Note_off_c, 0, 65, 60
1, 46548, Note_off_c, 0, 74, 74
1, 46626, Note_on_c, 0, 64, 58
1, 46630, Note_on_c, 0, 60, 56
1, 46710, Note_on_c, 0, 84, 72
1, 46786, Note_on_c, 0, 83, 78
1, 46815, Note_off_c, 0, 84, 61
1, 46856, Note_on_c, 0, 81, 82
1, 46874, Note_off_c, 0, 83, 58
1, 46918, Note_off_c, 0, 81, 64
1, 46944, Note_on_c, 0, 79, 75
1, 47008, Note_off_c, 0, 79, 55
1, 47013, Note_on_c, 0, 81, 72
1, 47085, Note_off_c, 0, 81, 64
1, 47097, Note_on_c, 0, 78, 68
1, 47135, Note_off_c, 0, 78, 58
1, 47171, Note_on_c, 0, 81, 67
1, 47216, Note_off_c, 0, 60, 63
1, 47222, Note_off_c, 0, 64, 57
1, 47251, Note_off_c, 0, 81, 56
1, 47266, Note_on_c, 0, 79, 68
1, 47326, Note_off_c, 0, 79, 52
1, 47343, Note_on_c, 0, 81, 71
1, 47407, Note_off_c, 0, 81, 60
1, 47427, Note_on_c, 0, 78, 70
1, 47472, Note_off_c, 0, 78, 56
1, 47503, Note_on_c, 0, 81, 64
1, 47562, Note_off_c, 0, 81, 56
1, 47579, Note_on_c, 0, 71, 74
1, 47579, Note_on_c, 0, 79, 68
1, 47596, Note_off_c, 0, 71, 71
1, 47625, Note_off_c, 0, 79, 51
1, 47659, Note_on_c, 0, 81, 69
1, 47708, Note_off_c, 0, 81, 61
1, 47727, Note_on_c, 0, 77, 69
1, 47734, Note_on_c, 0, 67, 70
1, 47758, Note_off_c, 0, 67, 71
1, 47774, Note_off_c, 0, 77, 51
1, 47804, Note_on_c, 0, 79, 65
1, 47848, Note_off_c, 0, 79, 62
1, 47886, Control_c, 0, 67, 27
1, 47896, Note_on_c, 0, 76, 65
1, 47901, Control_c, 0, 67, 65
1, 47903, Note_on_c, 0, 72, 64
1, 47916, Control_c, 0, 67, 127
1, 47964, Note_off_c, 0, 76, 60
1, 47980, Note_on_c, 0, 84, 63
1, 48051, Note_on_c, 0, 83, 67
1, 48054, Note_off_c, 0, 84, 61
1, 48064, Note_off_c, 0, 72, 64
1, 48121, Note_off_c, 0, 83, 61
1, 48124, Note_on_c, 0, 81, 69
1, 48176, Note_off_c, 0, 81, 63
1, 48214, Note_on_c, 0, 79, 62
1, 48262, Note_off_c, 0, 79, 51
1, 48289, Note_on_c, 0, 81, 61
1, 48350, Note_off_c, 0, 81, 60
1, 48375, Note_on_c, 0, 78, 53
1, 48403, Note_off_c, 0, 78, 56
1, 48452, Note_on_c, 0, 81, 55
1, 48494, Note_off_c, 0, 81, 57
1, 48527, Note_on_c, 0, 79, 64
1, 48571, Note_off_c, 0, 79, 54
1, 48591, Note_on_c, 0, 81, 64
1, 48670, Note_off_c, 0, 81, 63
1, 48703, Note_on_c, 0, 78, 56
1, 48739, Note_off_c, 0, 78, 52
1, 48772, Note_on_c, 0, 81, 52
1, 48830, Note_off_c, 0, 81, 57
1, 48857, Note_on_c, 0, 79, 60
1, 48859, Note_on_c, 0, 71, 57
1, 48881, Note_off_c, 0, 71, 62
1, 48900, Note_off_c, 0, 79, 59
1, 48933, Note_on_c, 0, 81, 60
1, 49001, Note_off_c, 0, 81, 62
1, 49006, Note_on_c, 0, 67, 62
1, 49012, Note_on_c, 0, 77, 62
1, 49035, Note_off_c, 0, 67, 68
1, 49053, Note_off_c, 0, 77, 58
1, 49102, Note_on_c, 0, 79, 47
1, 49178, Note_off_c, 0, 79, 53
1, 49185, Note_on_c, 0, 76, 60
1, 49186, Note_on_c, 0, 72, 48
1, 49217, Note_off_c, 0, 76, 58
1, 49247, Note_off_c, 0, 72, 59
1, 49256, Note_on_c, 0, 77, 62
1, 49323, Note_off_c, 0, 77, 61
1, 49340, Note_on_c, 0, 74, 56
1, 49371, Note_off_c, 0, 74, 64
1, 49405, Note_on_c, 0, 76, 64
1, 49486, Note_off_c, 0, 76, 64
1, 49496, Control_c, 0, 67, 117
1, 49501, Note_on_c, 0, 72, 61
1, 49511, Control_c, 0, 67, 85
1, 49526, Control_c, 0, 67, 55
1, 49537, Note_off_c, 0, 72, 58
1, 49540, Control_c, 0, 67, 29
1, 49555, Control_c, 0, 67, 9
1, 49570, Control_c, 0, 67, 0
1, 49573, Note_on_c, 0, 74, 60
1, 49642, Note_off_c, 0, 74, 63
1, 49662, Note_on_c, 0, 71, 54
1, 49704, Note_off_c, 0, 71, 55
1, 49726, Note_on_c, 0, 72, 59
1, 49802, Note_off_c, 0, 72, 62
1, 49818, Note_on_c, 0, 60, 52
1, 49819, Note_on_c, 0, 69, 57
1, 49822, Note_on_c, 0, 52, 48
1, 49860, Note_off_c, 0, 69, 62
1, 49899, Note_on_c, 0, 71, 52
1, 49961, Note_off_c, 0, 71, 65
1, 49978, Note_on_c, 0, 67, 61
1, 50015, Note_off_c, 0, 67, 63
1, 50053, Note_on_c, 0, 69, 53
1, 50113, Note_off_c, 0, 69, 65
1, 50126, Note_on_c, 0, 65, 59
1, 50137, Note_on_c, 0, 55, 47
1, 50166, Note_off_c, 0, 65, 64
1, 50201, Note_on_c, 0, 67, 59
1, 50266, Note_off_c, 0, 67, 65
1, 50291, Note_on_c, 0, 64, 55
1, 50302, Note_off_c, 0, 60, 58
1, 50343, Note_off_c, 0, 64, 56
1, 50358, Note_on_c, 0, 65, 56
1, 50429, Note_off_c, 0, 52, 37
1, 50440, Note_off_c, 0, 65, 63
1, 50457, Note_on_c, 0, 57, 47
1, 50460, Note_on_c, 0, 62, 55
1, 50471, Note_on_c, 0, 53, 43
1, 50489, Note_off_c, 0, 55, 25
1, 50598, Note_off_c, 0, 62, 59
1, 50636, Note_on_c, 0, 64, 52
1, 50685, Note_off_c, 0, 64, 58
1, 50699, Note_on_c, 0, 65, 64
1, 50745, Note_off_c, 0, 65, 66
1, 50775, Note_on_c, 0, 67, 70
1, 50832, Note_off_c, 0, 67, 60
1, 50841, Note_on_c, 0, 69, 76
1, 50921, Note_off_c, 0, 69, 64
1, 50932, Note_on_c, 0, 71, 75
1, 51000, Note_off_c, 0, 53, 62
1, 51003, Note_off_c, 0, 71, 65
1, 51010, Note_off_c, 0, 57, 58
1, 51011, Note_on_c, 0, 72, 80
1, 51050, Note_off_c, 0, 72, 64
1, 51086, Note_on_c, 0, 74, 77
1, 51104, Note_on_c, 0, 59, 57
1, 51111, Note_on_c, 0, 53, 49
1, 51111, Note_on_c, 0, 55, 53
1, 51158, Note_off_c, 0, 74, 63
1, 51168, Note_on_c, 0, 76, 79
1, 51243, Note_on_c, 0, 77, 80
1, 51245, Note_off_c, 0, 76, 63
1, 51296, Note_off_c, 0, 77, 61
1, 51320, Note_on_c, 0, 79, 80
1, 51364, Control_c, 0, 64, 11
1, 51377, Note_off_c, 0, 79, 57
1, 51378, Control_c, 0, 64, 17
1, 51392, Note_on_c, 0, 81, 83
1, 51393, Control_c, 0, 64, 22
1, 51408, Control_c, 0, 64, 29
1, 51423, Control_c, 0, 64, 36
1, 51437, Control_c, 0, 64, 43
1, 51452, Control_c, 0, 64, 52
1, 51467, Control_c, 0, 64, 57
1, 51469, Note_on_c, 0, 83, 80
1, 51474, Note_off_c, 0, 81, 63
1, 51482, Control_c, 0, 64, 60
1, 51496, Control_c, 0, 64, 62
1, 51511, Control_c, 0, 64, 63
1, 51524, Note_off_c, 0, 83, 65
1, 51541, Note_off_c, 0, 59, 55
1, 51546, Note_off_c, 0, 53, 35
1, 51550, Note_on_c, 0, 84, 78
1, 51588, Note_off_c, 0, 55, 55
1, 51622, Note_off_c, 0, 84, 60
1, 51626, Note_on_c, 0, 86, 78
1, 51645, Control_c, 0, 64, 62
1, 51660, Control_c, 0, 64, 61
1, 51682, Control_c, 0, 64, 59
1, 51697, Control_c, 0, 64, 56
1, 51709, Note_off_c, 0, 86, 61
1, 51713, Control_c, 0, 64, 50
1, 51716, Note_on_c, 0, 60, 57
1, 51722, Note_on_c, 0, 88, 78
1, 51727, Control_c, 0, 64, 40
1, 51731, Note_on_c, 0, 52, 51
1, 51742, Control_c, 0, 64, 26
1, 51757, Control_c, 0, 64, 0
1, 51794, Note_on_c, 0, 84, 84
1, 51828, Note_off_c, 0, 88, 60
1, 51847, Note_off_c, 0, 60, 57
1, 51866, Note_on_c, 0, 83, 89
1, 51879, Note_off_c, 0, 84, 64
1, 51944, Note_off_c, 0, 83, 65
1, 51949, Note_on_c, 0, 84, 76
1, 52027, Note_on_c, 0, 60, 38
1, 52028, Note_on_c, 0, 83, 76
1, 52043, Note_on_c, 0, 53, 39
1, 52044, Note_off_c, 0, 84, 61
1, 52067, Note_off_c, 0, 52, 31
1, 52099, Note_off_c, 0, 83, 65
1, 52103, Note_on_c, 0, 81, 69
1, 52149, Note_off_c, 0, 81, 66
1, 52171, Note_on_c, 0, 79, 65
1, 52227, Note_off_c, 0, 79, 50
1, 52254, Note_on_c, 0, 77, 64
1, 52324, Note_off_c, 0, 77, 61
1, 52334, Note_on_c, 0, 76, 64
1, 52363, Note_on_c, 0, 55, 39
1, 52372, Note_off_c, 0, 76, 58
1, 52424, Note_off_c, 0, 60, 42
1, 52519, Note_off_c, 0, 53, 41
1, 52528, Note_on_c, 0, 74, 30
1, 52552, Note_on_c, 0, 76, 58
1, 52575, Note_off_c, 0, 76, 66
1, 52581, Note_off_c, 0, 74, 0
1, 52593, Note_on_c, 0, 74, 53
1, 52628, Note_off_c, 0, 74, 59
1, 52629, Note_on_c, 0, 76, 73
1, 52652, Note_off_c, 0, 55, 35
1, 52662, Note_off_c, 0, 76, 63
1, 52667, Note_on_c, 0, 74, 55
1, 52683, Note_on_c, 0, 59, 52
1, 52832, Note_off_c, 0, 74, 65
1, 52845, Control_c, 0, 64, 8
1, 52850, Note_off_c, 0, 59, 63
1, 52860, Control_c, 0, 64, 19
1, 52865, Note_on_c, 0, 72, 47
1, 52874, Control_c, 0, 64, 25
1, 52889, Control_c, 0, 64, 32
1, 52892, Note_off_c, 0, 72, 58
1, 52904, Control_c, 0, 64, 39
1, 52919, Control_c, 0, 64, 46
1, 52925, Note_on_c, 0, 74, 56
1, 52934, Control_c, 0, 64, 54
1, 52948, Control_c, 0, 64, 61
1, 52963, Control_c, 0, 64, 65
1, 52972, Note_off_c, 0, 74, 62
1, 52978, Control_c, 0, 64, 67
1, 52993, Control_c, 0, 64, 67
1, 52996, Note_on_c, 0, 72, 62
1, 53023, Note_off_c, 0, 72, 67
1, 53037, Control_c, 0, 64, 67
1, 53052, Control_c, 0, 64, 66
1, 53067, Control_c, 0, 64, 65
1, 53077, Note_on_c, 0, 72, 77
1, 53082, Control_c, 0, 64, 63
1, 53097, Control_c, 0, 64, 62
1, 53112, Control_c, 0, 64, 62
1, 53127, Control_c, 0, 64, 61
1, 53130, Note_off_c, 0, 72, 60
1, 53141, Control_c, 0, 64, 61
1, 53156, Control_c, 0, 64, 60
1, 53157, Note_on_c, 0, 71, 67
1, 53178, Control_c, 0, 64, 59
1, 53193, Control_c, 0, 64, 59
1, 53207, Control_c, 0, 64, 58
1, 53234, Note_off_c, 0, 71, 65
1, 53238, Note_on_c, 0, 69, 65
1, 53252, Control_c, 0, 64, 57
1, 53267, Control_c, 0, 64, 55
1, 53282, Control_c, 0, 64, 48
1, 53297, Control_c, 0, 64, 36
1, 53312, Control_c, 0, 64, 11
1, 53318, Note_off_c, 0, 69, 64
1, 53321, Note_on_c, 0, 67, 67
1, 53327, Control_c, 0, 64, 0
1, 53368, Note_off_c, 0, 67, 66
1, 53386, Note_on_c, 0, 69, 62
1, 53442, Note_off_c, 0, 69, 64
1, 53468, Note_on_c, 0, 66, 75
1, 53513, Note_off_c, 0, 66, 64
1, 53546, Note_on_c, 0, 69, 64
1, 53598, Note_off_c, 0, 69, 62
1, 53625, Note_on_c, 0, 67, 77
1, 53674, Note_off_c, 0, 67, 65
1, 53700, Note_on_c, 0, 69, 69
1, 53750, Note_off_c, 0, 69, 62
1, 53783, Note_on_c, 0, 66, 65
1, 53820, Note_off_c, 0, 66, 60
1, 53859, Note_on_c, 0, 69, 63
1, 53928, Note_off_c, 0, 69, 58
1, 53946, Note_on_c, 0, 83, 73
1, 53950, Note_on_c, 0, 74, 70
1, 53955, Note_on_c, 0, 67, 61
1, 53967, Note_off_c, 0, 83, 72
1, 53970, Note_off_c, 0, 74, 69
1, 53991, Note_off_c, 0, 67, 66
1, 54024, Note_on_c, 0, 69, 57
1, 54057, Note_off_c, 0, 69, 67
1, 54102, Note_on_c, 0, 79, 78
1, 54107, Note_on_c, 0, 65, 51
1, 54131, Note_off_c, 0, 79, 58
1, 54146, Note_off_c, 0, 65, 65
1, 54173, Note_on_c, 0, 67, 62
1, 54217, Note_off_c, 0, 67, 57
1, 54254, Control_c, 0, 64, 9
1, 54261, Note_on_c, 0, 84, 76
1, 54266, Note_on_c, 0, 76, 67
1, 54269, Note_on_c, 0, 64, 56
1, 54269, Control_c, 0, 64, 24
1, 54282, Note_off_c, 0, 84, 69
1, 54284, Note_off_c, 0, 76, 69
1, 54284, Control_c, 0, 64, 37
1, 54299, Control_c, 0, 64, 52
1, 54304, Note_off_c, 0, 64, 65
1, 54314, Control_c, 0, 64, 66
1, 54328, Control_c, 0, 64, 127
1, 54346, Note_on_c, 0, 72, 71
1, 54412, Note_off_c, 0, 72, 60
1, 54418, Control_c, 0, 67, 41
1, 54422, Note_on_c, 0, 71, 71
1, 54432, Control_c, 0, 67, 98
1, 54447, Control_c, 0, 64, 72
1, 54447, Control_c, 0, 67, 127
1, 54462, Control_c, 0, 64, 50
1, 54477, Control_c, 0, 64, 0
1, 54489, Note_off_c, 0, 71, 66
1, 54501, Note_on_c, 0, 69, 63
1, 54554, Note_off_c, 0, 69, 62
1, 54579, Note_on_c, 0, 67, 63
1, 54614, Note_off_c, 0, 67, 63
1, 54659, Note_on_c, 0, 69, 60
1, 54709, Note_off_c, 0, 69, 63
1, 54740, Note_on_c, 0, 66, 63
1, 54775, Note_off_c, 0, 66, 63
1, 54815, Note_on_c, 0, 69, 61
1, 54861, Note_off_c, 0, 69, 60
1, 54895, Note_on_c, 0, 67, 70
1, 54928, Note_off_c, 0, 67, 61
1, 54972, Note_on_c, 0, 69, 60
1, 55021, Note_off_c, 0, 69, 57
1, 55053, Note_on_c, 0, 66, 54
1, 55085, Note_off_c, 0, 66, 61
1, 55131, Note_on_c, 0, 69, 59
1, 55188, Note_off_c, 0, 69, 58
1, 55218, Note_on_c, 0, 83, 63
1, 55219, Note_on_c, 0, 74, 62
1, 55220, Note_on_c, 0, 67, 52
1, 55234, Note_off_c, 0, 83, 68
1, 55237, Note_off_c, 0, 74, 68
1, 55248, Note_off_c, 0, 67, 59
1, 55302, Note_on_c, 0, 69, 40
1, 55327, Note_off_c, 0, 69, 59
1, 55371, Note_on_c, 0, 65, 46
1, 55373, Note_on_c, 0, 79, 68
1, 55390, Note_off_c, 0, 79, 65
1, 55411, Note_off_c, 0, 65, 53
1, 55458, Note_on_c, 0, 67, 53
1, 55503, Note_off_c, 0, 67, 59
1, 55545, Note_on_c, 0, 84, 64
1, 55550, Note_on_c, 0, 76, 58
1, 55553, Note_on_c, 0, 64, 56
1, 55593, Note_off_c, 0, 64, 61
1, 55626, Note_on_c, 0, 65, 61
1, 55665, Note_off_c, 0, 65, 62
1, 55702, Note_on_c, 0, 62, 66
1, 55705, Note_off_c, 0, 76, 52
1, 55723, Control_c, 0, 67, 107
1, 55738, Control_c, 0, 67, 74
1, 55752, Note_off_c, 0, 62, 59
1, 55753, Control_c, 0, 67, 37
1, 55767, Control_c, 0, 67, 0
1, 55786, Note_on_c, 0, 64, 54
1, 55792, Note_off_c, 0, 84, 60
1, 55825, Note_off_c, 0, 64, 61
1, 55855, Note_on_c, 0, 79, 78
1, 55863, Note_on_c, 0, 60, 52
1, 55891, Note_off_c, 0, 79, 61
1, 55893, Note_off_c, 0, 60, 59
1, 55902, Note_on_c, 0, 81, 70
1, 55941, Note_on_c, 0, 62, 60
1, 55950, Note_off_c, 0, 81, 66
1, 55964, Note_on_c, 0, 79, 64
1, 55978, Note_off_c, 0, 62, 63
1, 55996, Note_off_c, 0, 79, 62
1, 56008, Note_on_c, 0, 59, 55
1, 56012, Note_on_c, 0, 78, 70
1, 56049, Note_off_c, 0, 78, 59
1, 56057, Note_off_c, 0, 59, 60
1, 56079, Note_on_c, 0, 79, 64
1, 56089, Note_on_c, 0, 60, 57
1, 56126, Note_off_c, 0, 60, 64
1, 56141, Note_off_c, 0, 79, 51
1, 56150, Note_on_c, 0, 84, 81
1, 56176, Note_on_c, 0, 57, 56
1, 56230, Note_off_c, 0, 57, 60
1, 56233, Control_c, 0, 64, 21
1, 56248, Control_c, 0, 64, 30
1, 56251, Note_on_c, 0, 59, 61
1, 56263, Control_c, 0, 64, 37
1, 56278, Control_c, 0, 64, 43
1, 56293, Control_c, 0, 64, 50
1, 56299, Note_off_c, 0, 59, 57
1, 56307, Control_c, 0, 64, 55
1, 56322, Control_c, 0, 64, 58
1, 56337, Note_on_c, 0, 55, 63
1, 56337, Control_c, 0, 64, 60
1, 56352, Control_c, 0, 64, 61
1, 56367, Control_c, 0, 64, 65
1, 56382, Control_c, 0, 64, 75
1, 56391, Note_off_c, 0, 55, 62
1, 56397, Control_c, 0, 64, 105
1, 56412, Control_c, 0, 64, 127
1, 56412, Note_on_c, 0, 57, 63
1, 56433, Note_off_c, 0, 84, 57
1, 56445, Note_off_c, 0, 57, 63
1, 56456, Control_c, 0, 64, 96
1, 56471, Control_c, 0, 64, 59
1, 56476, Note_on_c, 0, 76, 74
1, 56486, Note_on_c, 0, 53, 61
1, 56486, Control_c, 0, 64, 0
1, 56501, Note_off_c, 0, 76, 70
1, 56516, Note_on_c, 0, 77, 79
1, 56527, Note_off_c, 0, 53, 65
1, 56552, Note_on_c, 0, 55, 61
1, 56563, Note_off_c, 0, 77, 65
1, 56585, Note_on_c, 0, 76, 70
1, 56591, Note_off_c, 0, 55, 60
1, 56622, Note_on_c, 0, 52, 66
1, 56628, Note_off_c, 0, 76, 64
1, 56640, Note_on_c, 0, 74, 72
1, 56671, Note_off_c, 0, 52, 67
1, 56679, Note_off_c, 0, 74, 58
1, 56694, Note_on_c, 0, 53, 64
1, 56704, Note_on_c, 0, 76, 74
1, 56748, Note_off_c, 0, 53, 64
1, 56770, Note_off_c, 0, 76, 60
1, 56778, Note_on_c, 0, 77, 90
1, 56781, Note_on_c, 0, 50, 66
1, 56797, Control_c, 0, 64, 43
1, 56798, Note_off_c, 0, 77, 70
1, 56812, Control_c, 0, 64, 60
1, 56827, Control_c, 0, 64, 76
1, 56829, Note_off_c, 0, 50, 61
1, 56841, Control_c, 0, 64, 127
1, 56856, Note_on_c, 0, 52, 73
1, 56922, Note_off_c, 0, 52, 65
1, 56950, Note_on_c, 0, 48, 74
1, 57016, Note_off_c, 0, 48, 66
1, 57034, Note_on_c, 0, 50, 75
1, 57085, Control_c, 0, 64, 87
1, 57088, Note_off_c, 0, 50, 62
1, 57100, Control_c, 0, 64, 59
1, 57115, Control_c, 0, 64, 31
1, 57117, Note_on_c, 0, 86, 98
1, 57121, Note_on_c, 0, 47, 83
1, 57130, Control_c, 0, 64, 0
1, 57145, Control_c, 0, 64, 10
1, 57160, Control_c, 0, 64, 29
1, 57175, Control_c, 0, 64, 44
1, 57187, Note_off_c, 0, 47, 64
1, 57190, Control_c, 0, 64, 59
1, 57196, Note_on_c, 0, 48, 79
1, 57204, Control_c, 0, 64, 69
1, 57219, Control_c, 0, 64, 79
1, 57234, Control_c, 0, 64, 79
1, 57263, Note_off_c, 0, 48, 62
1, 57279, Note_on_c, 0, 45, 81
1, 57294, Control_c, 0, 64, 82
1, 57309, Control_c, 0, 64, 92
1, 57319, Note_off_c, 0, 86, 53
1, 57324, Control_c, 0, 64, 127
1, 57350, Note_off_c, 0, 45, 64
1, 57360, Note_on_c, 0, 47, 80
1, 57368, Note_on_c, 0, 88, 84
1, 57407, Note_off_c, 0, 88, 63
1, 57414, Note_off_c, 0, 47, 61
1, 57427, Control_c, 0, 64, 71
1, 57435, Note_on_c, 0, 43, 88
1, 57437, Note_on_c, 0, 89, 99
1, 57442, Control_c, 0, 64, 53
1, 57457, Control_c, 0, 64, 36
1, 57463, Note_off_c, 0, 89, 68
1, 57471, Control_c, 0, 64, 41
1, 57486, Control_c, 0, 64, 56
1, 57501, Control_c, 0, 64, 70
1, 57503, Note_off_c, 0, 43, 61
1, 57512, Note_on_c, 0, 45, 83
1, 57516, Control_c, 0, 64, 127
1, 57588, Note_on_c, 0, 41, 86
1, 57590, Note_off_c, 0, 45, 62
1, 57674, Note_off_c, 0, 41, 62
1, 57684, Note_on_c, 0, 43, 78
1, 57742, Note_off_c, 0, 43, 60
1, 57746, Control_c, 0, 64, 62
1, 57761, Control_c, 0, 64, 0
1, 57764, Note_on_c, 0, 40, 81
1, 57765, Note_on_c, 0, 83, 80
1, 57770, Note_on_c, 0, 79, 81
1, 57802, Note_off_c, 0, 83, 63
1, 57813, Note_on_c, 0, 84, 76
1, 57815, Note_off_c, 0, 40, 65
1, 57831, Note_off_c, 0, 79, 50
1, 57835, Note_on_c, 0, 41, 73
1, 57865, Note_on_c, 0, 83, 72
1, 57892, Note_off_c, 0, 84, 62
1, 57902, Note_off_c, 0, 41, 60
1, 57915, Note_on_c, 0, 38, 74
1, 57924, Note_off_c, 0, 83, 67
1, 57934, Note_on_c, 0, 81, 70
1, 57970, Note_off_c, 0, 38, 65
1, 57984, Note_on_c, 0, 83, 72
1, 57984, Note_off_c, 0, 81, 63
1, 57987, Note_on_c, 0, 41, 63
1, 58021, Note_off_c, 0, 41, 65
1, 58039, Note_off_c, 0, 83, 64
1, 58057, Note_on_c, 0, 40, 87
1, 58057, Control_c, 0, 64, 56
1, 58069, Note_on_c, 0, 79, 89
1, 58069, Note_on_c, 0, 84, 92
1, 58072, Control_c, 0, 64, 127
1, 58078, Note_off_c, 0, 40, 69
1, 58123, Note_off_c, 0, 79, 53
1, 58132, Control_c, 0, 64, 69
1, 58144, Note_on_c, 0, 83, 82
1, 58147, Control_c, 0, 64, 40
1, 58156, Note_off_c, 0, 84, 62
1, 58162, Control_c, 0, 64, 0
1, 58229, Note_off_c, 0, 83, 65
1, 58234, Note_on_c, 0, 84, 75
1, 58302, Note_on_c, 0, 79, 77
1, 58303, Note_off_c, 0, 84, 63
1, 58329, Note_off_c, 0, 79, 66
1, 58369, Control_c, 0, 64, 11
1, 58377, Note_on_c, 0, 41, 92
1, 58384, Control_c, 0, 64, 60
1, 58388, Note_on_c, 0, 83, 91
1, 58391, Note_on_c, 0, 74, 88
1, 58399, Control_c, 0, 64, 127
1, 58400, Note_off_c, 0, 41, 70
1, 58451, Control_c, 0, 64, 80
1, 58466, Control_c, 0, 64, 56
1, 58469, Note_on_c, 0, 81, 84
1, 58481, Control_c, 0, 64, 0
1, 58489, Note_off_c, 0, 83, 61
1, 58549, Note_off_c, 0, 74, 58
1, 58553, Note_on_c, 0, 79, 74
1, 58575, Note_off_c, 0, 81, 62
1, 58633, Note_on_c, 0, 77, 77
1, 58636, Note_off_c, 0, 79, 62
1, 58657, Note_off_c, 0, 77, 68
1, 58709, Note_on_c, 0, 43, 79
1, 58717, Control_c, 0, 64, 60
1, 58718, Note_on_c, 0, 76, 92
1, 58723, Note_on_c, 0, 72, 85
1, 58732, Control_c, 0, 64, 127
1, 58776, Control_c, 0, 64, 71
1, 58786, Note_on_c, 0, 77, 85
1, 58788, Note_off_c, 0, 43, 56
1, 58791, Control_c, 0, 64, 47
1, 58803, Note_off_c, 0, 76, 62
1, 58806, Control_c, 0, 64, 0
1, 58861, Note_off_c, 0, 72, 49
1, 58873, Note_on_c, 0, 79, 75
1, 58874, Note_off_c, 0, 77, 64
1, 58956, Note_off_c, 0, 79, 61
1, 58957, Note_on_c, 0, 76, 74
1, 58980, Note_off_c, 0, 76, 70
1, 59029, Control_c, 0, 64, 10
1, 59037, Note_on_c, 0, 31, 79
1, 59043, Note_on_c, 0, 74, 87
1, 59044, Control_c, 0, 64, 61
1, 59047, Note_on_c, 0, 71, 78
1, 59059, Control_c, 0, 64, 127
1, 59065, Note_off_c, 0, 31, 66
1, 59115, Note_on_c, 0, 76, 80
1, 59118, Control_c, 0, 64, 100
1, 59123, Note_off_c, 0, 74, 60
1, 59128, Note_off_c, 0, 71, 60
1, 59133, Control_c, 0, 64, 55
1, 59148, Control_c, 0, 64, 0
1, 59205, Note_off_c, 0, 76, 66
1, 59207, Note_on_c, 0, 77, 74
1, 59282, Note_off_c, 0, 77, 61
1, 59284, Note_on_c, 0, 74, 70
1, 59353, Note_off_c, 0, 74, 62
1, 59369, Note_on_c, 0, 72, 88
1, 59381, Note_on_c, 0, 60, 75
1, 59460, Note_on_c, 0, 62, 75
1, 59460, Note_off_c, 0, 60, 64
1, 59496, Control_c, 0, 64, 11
1, 59510, Control_c, 0, 64, 25
1, 59525, Control_c, 0, 64, 33
1, 59530, Note_off_c, 0, 62, 63
1, 59540, Control_c, 0, 64, 41
1, 59545, Note_on_c, 0, 64, 68
1, 59555, Control_c, 0, 64, 51
1, 59569, Control_c, 0, 64, 61
1, 59584, Control_c, 0, 64, 69
1, 59599, Control_c, 0, 64, 75
1, 59605, Note_off_c, 0, 64, 61
1, 59614, Control_c, 0, 64, 78
1, 59616, Note_on_c, 0, 62, 71
1, 59629, Control_c, 0, 64, 79
1, 59643, Control_c, 0, 64, 80
1, 59658, Note_off_c, 0, 72, 60
1, 59658, Control_c, 0, 64, 81
1, 59673, Control_c, 0, 64, 85
1, 59689, Control_c, 0, 64, 88
1, 59694, Note_off_c, 0, 62, 62
1, 59704, Control_c, 0, 64, 90
1, 59716, Note_on_c, 0, 72, 84
1, 59717, Note_on_c, 0, 76, 87
1, 59719, Control_c, 0, 64, 92
1, 59721, Note_on_c, 0, 60, 75
1, 59733, Control_c, 0, 64, 93
1, 59738, Note_off_c, 0, 72, 67
1, 59746, Note_off_c, 0, 76, 63
1, 59748, Control_c, 0, 64, 95
1, 59763, Control_c, 0, 64, 98
1, 59778, Control_c, 0, 64, 99
1, 59784, Note_off_c, 0, 60, 60
1, 59790, Note_on_c, 0, 59, 68
1, 59793, Control_c, 0, 64, 100
1, 59882, Note_on_c, 0, 57, 65
1, 59895, Note_off_c, 0, 59, 53
1, 59919, Control_c, 0, 64, 100
1, 59934, Control_c, 0, 64, 101
1, 59963, Control_c, 0, 64, 100
1, 59978, Control_c, 0, 64, 88
1, 59983, Note_off_c, 0, 57, 61
1, 59988, Note_on_c, 0, 76, 78
1, 59990, Note_on_c, 0, 72, 75
1, 59991, Note_on_c, 0, 56, 70
1, 59992, Control_c, 0, 64, 67
1, 60006, Note_off_c, 0, 72, 69
1, 60006, Note_off_c, 0, 76, 75
1, 60007, Control_c, 0, 64, 49
1, 60022, Control_c, 0, 64, 0
1, 60052, Control_c, 0, 64, 15
1, 60058, Note_on_c, 0, 72, 84
1, 60058, Note_on_c, 0, 76, 92
1, 60064, Note_off_c, 0, 56, 65
1, 60066, Control_c, 0, 64, 39
1, 60067, Note_on_c, 0, 57, 69
1, 60075, Note_off_c, 0, 72, 73
1, 60081, Control_c, 0, 64, 56
1, 60083, Note_off_c, 0, 76, 67
1, 60096, Control_c, 0, 64, 74
1, 60111, Control_c, 0, 64, 127
1, 60145, Note_on_c, 0, 59, 74
1, 60156, Note_off_c, 0, 57, 55
1, 60224, Note_off_c, 0, 59, 62
1, 60230, Note_on_c, 0, 60, 68
1, 60287, Note_off_c, 0, 60, 63
1, 60293, Note_on_c, 0, 59, 66
1, 60379, Note_off_c, 0, 59, 62
1, 60394, Note_on_c, 0, 57, 80
1, 60396, Note_on_c, 0, 76, 92
1, 60400, Note_on_c, 0, 72, 84
1, 60417, Note_off_c, 0, 72, 74
1, 60428, Note_off_c, 0, 76, 62
1, 60461, Note_off_c, 0, 57, 59
1, 60467, Note_on_c, 0, 55, 75
1, 60561, Note_off_c, 0, 55, 64
1, 60565, Note_on_c, 0, 53, 69
1, 60651, Note_on_c, 0, 76, 85
1, 60653, Note_off_c, 0, 53, 64
1, 60667, Note_on_c, 0, 72, 70
1, 60672, Note_on_c, 0, 52, 70
1, 60677, Note_off_c, 0, 76, 70
1, 60682, Note_off_c, 0, 72, 68
1, 60683, Control_c, 0, 64, 74
1, 60697, Control_c, 0, 64, 52
1, 60712, Control_c, 0, 64, 0
1, 60728, Note_on_c, 0, 72, 87
1, 60729, Note_on_c, 0, 74, 84
1, 60746, Note_on_c, 0, 53, 68
1, 60749, Note_off_c, 0, 52, 63
1, 60801, Control_c, 0, 64, 22
1, 60815, Control_c, 0, 64, 35
1, 60821, Note_on_c, 0, 55, 72
1, 60827, Note_off_c, 0, 53, 64
1, 60830, Control_c, 0, 64, 49
1, 60845, Control_c, 0, 64, 61
1, 60860, Control_c, 0, 64, 71
1, 60875, Control_c, 0, 64, 82
1, 60889, Control_c, 0, 64, 85
1, 60896, Note_off_c, 0, 55, 66
1, 60902, Note_on_c, 0, 57, 74
1, 60904, Control_c, 0, 64, 86
1, 60919, Control_c, 0, 64, 91
1, 60934, Control_c, 0, 64, 105
1, 60949, Control_c, 0, 64, 127
1, 60968, Note_off_c, 0, 57, 60
1, 60976, Note_on_c, 0, 55, 72
1, 60979, Note_off_c, 0, 72, 53
1, 60981, Note_off_c, 0, 74, 62
1, 61059, Note_off_c, 0, 55, 63
1, 61065, Note_on_c, 0, 74, 82
1, 61067, Note_on_c, 0, 72, 82
1, 61070, Note_on_c, 0, 53, 84
1, 61084, Note_off_c, 0, 72, 73
1, 61086, Note_off_c, 0, 74, 69
1, 61140, Note_off_c, 0, 53, 63
1, 61143, Note_on_c, 0, 50, 71
1, 61247, Note_on_c, 0, 52, 71
1, 61296, Note_off_c, 0, 50, 58
1, 61313, Note_on_c, 0, 72, 81
1, 61318, Note_on_c, 0, 53, 70
1, 61320, Control_c, 0, 64, 94
1, 61321, Note_on_c, 0, 74, 70
1, 61333, Note_off_c, 0, 72, 70
1, 61335, Control_c, 0, 64, 70
1, 61336, Note_off_c, 0, 52, 65
1, 61342, Note_off_c, 0, 74, 72
1, 61350, Control_c, 0, 64, 53
1, 61365, Control_c, 0, 64, 0
1, 61377, Note_off_c, 0, 53, 66
1, 61387, Note_on_c, 0, 55, 76
1, 61389, Note_on_c, 0, 74, 93
1, 61398, Note_on_c, 0, 71, 81
1, 61461, Control_c, 0, 64, 20
1, 61466, Note_off_c, 0, 55, 63
1, 61467, Note_on_c, 0, 54, 80
1, 61476, Control_c, 0, 64, 36
1, 61491, Control_c, 0, 64, 48
1, 61506, Control_c, 0, 64, 62
1, 61520, Control_c, 0, 64, 72
1, 61535, Control_c, 0, 64, 80
1, 61541, Note_off_c, 0, 54, 63
1, 61550, Control_c, 0, 64, 81
1, 61559, Note_on_c, 0, 55, 76
1, 61565, Control_c, 0, 64, 82
1, 61580, Control_c, 0, 64, 83
1, 61594, Control_c, 0, 64, 91
1, 61609, Control_c, 0, 64, 110
1, 61622, Note_off_c, 0, 74, 60
1, 61624, Control_c, 0, 64, 127
1, 61628, Note_off_c, 0, 55, 64
1, 61632, Note_on_c, 0, 54, 73
1, 61661, Note_off_c, 0, 71, 37
1, 61683, Control_c, 0, 64, 114
1, 61698, Control_c, 0, 64, 80
1, 61709, Note_off_c, 0, 54, 61
1, 61712, Control_c, 0, 64, 71
1, 61727, Note_on_c, 0, 55, 74
1, 61727, Control_c, 0, 64, 70
1, 61742, Note_on_c, 0, 79, 93
1, 61742, Control_c, 0, 64, 71
1, 61748, Note_on_c, 0, 71, 79
1, 61757, Control_c, 0, 64, 72
1, 61760, Note_off_c, 0, 79, 67
1, 61766, Note_off_c, 0, 71, 74
1, 61771, Control_c, 0, 64, 74
1, 61783, Note_off_c, 0, 55, 62
1, 61786, Control_c, 0, 64, 75
1, 61803, Note_on_c, 0, 53, 68
1, 61831, Control_c, 0, 64, 75
1, 61886, Note_off_c, 0, 53, 65
1, 61900, Note_on_c, 0, 52, 73
1, 61974, Note_off_c, 0, 52, 59
1, 61979, Control_c, 0, 64, 74
1, 61992, Note_on_c, 0, 50, 74
1, 61994, Control_c, 0, 64, 65
1, 62001, Note_on_c, 0, 79, 84
1, 62006, Note_on_c, 0, 71, 68
1, 62009, Control_c, 0, 64, 47
1, 62022, Note_off_c, 0, 71, 70
1, 62024, Control_c, 0, 64, 0
1, 62025, Note_off_c, 0, 79, 65
1, 62067, Note_on_c, 0, 76, 94
1, 62068, Note_off_c, 0, 50, 61
1, 62071, Note_on_c, 0, 48, 73
1, 62072, Note_on_c, 0, 72, 76
1, 62128, Control_c, 0, 64, 12
1, 62143, Control_c, 0, 64, 38
1, 62152, Note_off_c, 0, 48, 65
1, 62153, Note_on_c, 0, 50, 70
1, 62165, Control_c, 0, 64, 52
1, 62180, Control_c, 0, 64, 64
1, 62195, Control_c, 0, 64, 82
1, 62210, Control_c, 0, 64, 119
1, 62225, Control_c, 0, 64, 127
1, 62235, Note_off_c, 0, 50, 63
1, 62239, Note_on_c, 0, 52, 72
1, 62308, Note_off_c, 0, 52, 64
1, 62317, Note_on_c, 0, 50, 67
1, 62317, Note_off_c, 0, 76, 60
1, 62331, Note_off_c, 0, 72, 47
1, 62392, Note_off_c, 0, 50, 61
1, 62409, Note_on_c, 0, 76, 98
1, 62410, Note_on_c, 0, 48, 83
1, 62410, Note_on_c, 0, 84, 92
1, 62414, Note_on_c, 0, 72, 90
1, 62431, Note_off_c, 0, 72, 74
1, 62437, Note_off_c, 0, 84, 58
1, 62439, Note_off_c, 0, 76, 62
1, 62481, Note_off_c, 0, 48, 63
1, 62484, Note_on_c, 0, 47, 75
1, 62562, Note_on_c, 0, 45, 70
1, 62582, Note_off_c, 0, 47, 58
1, 62657, Note_on_c, 0, 72, 87
1, 62658, Note_on_c, 0, 76, 92
1, 62660, Note_off_c, 0, 45, 63
1, 62666, Note_on_c, 0, 44, 75
1, 62669, Note_on_c, 0, 84, 72
1, 62674, Note_off_c, 0, 72, 73
1, 62677, Note_off_c, 0, 76, 74
1, 62684, Control_c, 0, 64, 86
1, 62684, Note_off_c, 0, 84, 67
1, 62699, Control_c, 0, 64, 57
1, 62713, Control_c, 0, 64, 0
1, 62731, Note_on_c, 0, 76, 98
1, 62731, Note_on_c, 0, 84, 99
1, 62732, Note_on_c, 0, 72, 96
1, 62747, Note_on_c, 0, 45, 76
1, 62749, Note_off_c, 0, 44, 63
1, 62773, Control_c, 0, 64, 10
1, 62787, Control_c, 0, 64, 31
1, 62802, Control_c, 0, 64, 45
1, 62817, Note_on_c, 0, 47, 76
1, 62817, Control_c, 0, 64, 60
1, 62828, Note_off_c, 0, 45, 62
1, 62832, Control_c, 0, 64, 84
1, 62847, Control_c, 0, 64, 127
1, 62911, Note_off_c, 0, 47, 64
1, 62913, Note_on_c, 0, 48, 79
1, 62967, Note_off_c, 0, 84, 56
1, 62976, Note_off_c, 0, 76, 57
1, 62978, Note_off_c, 0, 72, 53
1, 62990, Note_off_c, 0, 48, 63
1, 62991, Note_on_c, 0, 47, 81
1, 63032, Control_c, 0, 64, 81
1, 63047, Control_c, 0, 64, 61
1, 63062, Control_c, 0, 64, 47
1, 63065, Note_off_c, 0, 47, 61
1, 63077, Note_on_c, 0, 76, 96
1, 63077, Control_c, 0, 64, 43
1, 63079, Note_on_c, 0, 84, 91
1, 63081, Note_on_c, 0, 45, 87
1, 63082, Note_on_c, 0, 72, 90
1, 63092, Control_c, 0, 64, 48
1, 63101, Note_off_c, 0, 72, 64
1, 63107, Control_c, 0, 64, 57
1, 63110, Note_off_c, 0, 76, 69
1, 63116, Note_off_c, 0, 84, 59
1, 63122, Control_c, 0, 64, 66
1, 63137, Control_c, 0, 64, 79
1, 63152, Control_c, 0, 64, 88
1, 63155, Note_on_c, 0, 43, 80
1, 63157, Note_off_c, 0, 45, 63
1, 63166, Control_c, 0, 64, 90
1, 63234, Note_on_c, 0, 41, 74
1, 63240, Control_c, 0, 64, 90
1, 63241, Note_off_c, 0, 43, 61
1, 63255, Control_c, 0, 64, 92
1, 63270, Control_c, 0, 64, 97
1, 63284, Control_c, 0, 64, 102
1, 63299, Control_c, 0, 64, 103
1, 63314, Control_c, 0, 64, 92
1, 63329, Control_c, 0, 64, 67
1, 63333, Note_on_c, 0, 76, 92
1, 63341, Note_off_c, 0, 41, 60
1, 63342, Note_on_c, 0, 40, 77
1, 63343, Note_on_c, 0, 84, 76
1, 63344, Note_on_c, 0, 72, 69
1, 63344, Control_c, 0, 64, 44
1, 63351, Note_off_c, 0, 76, 73
1, 63357, Note_off_c, 0, 84, 69
1, 63358, Control_c, 0, 64, 0
1, 63361, Note_off_c, 0, 72, 65
1, 63405, Note_on_c, 0, 84, 90
1, 63408, Note_on_c, 0, 74, 91
1, 63410, Note_on_c, 0, 81, 91
1, 63419, Note_on_c, 0, 41, 74
1, 63425, Note_off_c, 0, 40, 64
1, 63477, Control_c, 0, 64, 28
1, 63488, Note_on_c, 0, 43, 72
1, 63491, Control_c, 0, 64, 35
1, 63500, Note_off_c, 0, 41, 61
1, 63506, Control_c, 0, 64, 42
1, 63521, Control_c, 0, 64, 51
1, 63536, Control_c, 0, 64, 62
1, 63551, Control_c, 0, 64, 70
1, 63566, Control_c, 0, 64, 79
1, 63569, Note_off_c, 0, 43, 61
1, 63572, Note_on_c, 0, 45, 76
1, 63581, Control_c, 0, 64, 83
1, 63596, Control_c, 0, 64, 85
1, 63610, Control_c, 0, 64, 91
1, 63625, Control_c, 0, 64, 127
1, 63636, Note_off_c, 0, 81, 55
1, 63636, Note_off_c, 0, 84, 58
1, 63638, Note_off_c, 0, 74, 57
1, 63648, Note_off_c, 0, 45, 63
1, 63649, Note_on_c, 0, 43, 76
1, 63722, Control_c, 0, 64, 77
1, 63737, Control_c, 0, 64, 59
1, 63747, Note_on_c, 0, 81, 95
1, 63748, Note_on_c, 0, 41, 83
1, 63748, Note_off_c, 0, 43, 55
1, 63750, Note_on_c, 0, 74, 92
1, 63751, Note_on_c, 0, 84, 90
1, 63752, Control_c, 0, 64, 37
1, 63767, Control_c, 0, 64, 23
1, 63782, Control_c, 0, 64, 30
1, 63790, Note_off_c, 0, 74, 64
1, 63796, Control_c, 0, 64, 39
1, 63804, Note_off_c, 0, 84, 60
1, 63810, Note_off_c, 0, 81, 62
1, 63811, Control_c, 0, 64, 50
1, 63822, Note_on_c, 0, 38, 84
1, 63826, Control_c, 0, 64, 62
1, 63830, Note_off_c, 0, 41, 59
1, 63840, Control_c, 0, 64, 74
1, 63855, Control_c, 0, 64, 93
1, 63870, Control_c, 0, 64, 98
1, 63918, Note_on_c, 0, 40, 80
1, 63930, Control_c, 0, 64, 99
1, 63945, Control_c, 0, 64, 100
1, 63957, Note_off_c, 0, 38, 62
1, 63959, Control_c, 0, 64, 103
1, 63974, Control_c, 0, 64, 108
1, 63989, Control_c, 0, 64, 109
1, 64001, Note_on_c, 0, 41, 78
1, 64010, Note_on_c, 0, 84, 81
1, 64013, Note_on_c, 0, 81, 82
1, 64013, Note_on_c, 0, 74, 76
1, 64019, Control_c, 0, 64, 90
1, 64019, Note_off_c, 0, 40, 62
1, 64031, Note_off_c, 0, 74, 75
1, 64033, Control_c, 0, 64, 67
1, 64034, Note_off_c, 0, 81, 68
1, 64043, Note_off_c, 0, 84, 59
1, 64048, Control_c, 0, 64, 46
1, 64063, Control_c, 0, 64, 0
1, 64073, Note_off_c, 0, 41, 63
1, 64081, Note_on_c, 0, 43, 72
1, 64091, Note_on_c, 0, 83, 96
1, 64091, Note_on_c, 0, 79, 92
1, 64092, Note_on_c, 0, 74, 92
1, 64158, Note_on_c, 0, 42, 79
1, 64160, Note_off_c, 0, 43, 62
1, 64181, Control_c, 0, 64, 20
1, 64196, Control_c, 0, 64, 29
1, 64211, Control_c, 0, 64, 37
1, 64225, Control_c, 0, 64, 45
1, 64240, Control_c, 0, 64, 54
1, 64248, Note_off_c, 0, 42, 62
1, 64249, Note_on_c, 0, 43, 80
1, 64255, Control_c, 0, 64, 63
1, 64270, Control_c, 0, 64, 68
1, 64285, Control_c, 0, 64, 73
1, 64289, Note_off_c, 0, 79, 51
1, 64299, Note_off_c, 0, 74, 40
1, 64300, Control_c, 0, 64, 77
1, 64307, Note_off_c, 0, 83, 56
1, 64314, Control_c, 0, 64, 85
1, 64321, Note_on_c, 0, 42, 77
1, 64329, Note_off_c, 0, 43, 60
1, 64329, Control_c, 0, 64, 102
1, 64344, Control_c, 0, 64, 127
1, 64412, Control_c, 0, 64, 74
1, 64427, Control_c, 0, 64, 54
1, 64427, Note_on_c, 0, 43, 84
1, 64427, Note_on_c, 0, 83, 92
1, 64428, Note_off_c, 0, 42, 61
1, 64430, Note_on_c, 0, 79, 92
1, 64433, Note_on_c, 0, 74, 85
1, 64441, Control_c, 0, 64, 16
1, 64456, Control_c, 0, 64, 0
1, 64479, Note_off_c, 0, 74, 57
1, 64487, Control_c, 0, 64, 22
1, 64502, Control_c, 0, 64, 36
1, 64504, Note_off_c, 0, 79, 60
1, 64511, Note_on_c, 0, 41, 77
1, 64513, Note_off_c, 0, 43, 59
1, 64517, Control_c, 0, 64, 48
1, 64519, Note_off_c, 0, 83, 58
1, 64532, Control_c, 0, 64, 60
1, 64546, Control_c, 0, 64, 70
1, 64561, Control_c, 0, 64, 86
1, 64576, Control_c, 0, 64, 96
1, 64590, Control_c, 0, 64, 127
1, 64606, Note_on_c, 0, 40, 71
1, 64610, Note_off_c, 0, 41, 62
1, 64674, Note_off_c, 0, 40, 64
1, 64678, Note_on_c, 0, 74, 67
1, 64681, Note_on_c, 0, 38, 71
1, 64683, Note_on_c, 0, 83, 66
1, 64690, Note_on_c, 0, 79, 52
1, 64701, Note_off_c, 0, 74, 72
1, 64708, Note_off_c, 0, 83, 69
1, 64709, Control_c, 0, 64, 68
1, 64713, Note_off_c, 0, 79, 59
1, 64724, Control_c, 0, 64, 45
1, 64728, Note_off_c, 0, 38, 64
1, 64738, Control_c, 0, 64, 0
1, 64753, Control_c, 0, 64, 36
1, 64765, Note_on_c, 0, 36, 86
1, 64767, Note_on_c, 0, 72, 101
1, 64767, Note_on_c, 0, 76, 93
1, 64767, Note_on_c, 0, 79, 87
1, 64768, Control_c, 0, 64, 59
1, 64769, Note_on_c, 0, 84, 94
1, 64782, Control_c, 0, 64, 127
1, 64791, Note_off_c, 0, 36, 64
1, 64801, Note_off_c, 0, 72, 66
1, 64804, Note_off_c, 0, 76, 68
1, 64804, Note_off_c, 0, 84, 66
1, 64810, Note_off_c, 0, 79, 60
1, 64857, Control_c, 0, 64, 79
1, 64872, Control_c, 0, 64, 46
1, 64887, Control_c, 0, 64, 0
1, 65075, Note_on_c, 0, 72, 60
1, 65110, Note_on_c, 0, 76, 85
1, 65128, Note_on_c, 0, 79, 91
1, 65135, Note_on_c, 0, 48, 84
1, 65137, Note_off_c, 0, 72, 63
1, 65138, Control_c, 0, 64, 58
1, 65140, Note_on_c, 0, 36, 81
1, 65140, Note_off_c, 0, 76, 68
1, 65146, Note_off_c, 0, 79, 68
1, 65159, Control_c, 0, 64, 127
1, 65233, Control_c, 0, 64, 61
1, 65248, Control_c, 0, 64, 0
1, 65268, Note_off_c, 0, 48, 58
1, 65280, Note_off_c, 0, 36, 58
1, 65450, Note_on_c, 0, 67, 64
1, 65493, Note_on_c, 0, 72, 71
1, 65518, Note_on_c, 0, 76, 89
1, 65523, Note_on_c, 0, 48, 88
1, 65529, Note_on_c, 0, 36, 76
1, 65530, Control_c, 0, 64, 10
1, 65532, Note_off_c, 0, 67, 66
1, 65541, Note_off_c, 0, 72, 64
1, 65545, Control_c, 0, 64, 60
1, 65551, Note_off_c, 0, 36, 67
1, 65551, Note_off_c, 0, 76, 69
1, 65554, Note_off_c, 0, 48, 66
1, 65560, Control_c, 0, 64, 127
1, 65908, Control_c, 0, 64, 48
1, 65923, Control_c, 0, 64, 0
1, 66271, Note_on_c, 0, 78, 78
1, 66314, Note_on_c, 0, 79, 93
1, 66331, Note_on_c, 0, 67, 78
1, 66331, Note_off_c, 0, 78, 70
1, 66335, Note_on_c, 0, 60, 72
1, 66336, Note_on_c, 0, 64, 69
1, 66353, Control_c, 0, 64, 21
1, 66368, Control_c, 0, 64, 69
1, 66383, Control_c, 0, 64, 127
1, 66490, Note_off_c, 0, 67, 57
1, 66507, Note_off_c, 0, 60, 61
1, 66510, Note_off_c, 0, 64, 53
1, 66607, Note_on_c, 0, 67, 67
1, 66616, Note_on_c, 0, 60, 70
1, 66616, Note_on_c, 0, 64, 67
1, 66697, Note_off_c, 0, 60, 58
1, 66702, Note_off_c, 0, 67, 50
1, 66705, Note_off_c, 0, 64, 54
1, 66714, Note_off_c, 0, 79, 60
1, 66779, Note_on_c, 0, 79, 97
1, 66799, Note_on_c, 0, 64, 58
1, 66800, Note_on_c, 0, 67, 61
1, 66802, Note_on_c, 0, 60, 66
1, 66821, Note_off_c, 0, 79, 62
1, 66836, Note_off_c, 0, 67, 59
1, 66839, Note_off_c, 0, 64, 61
1, 66842, Note_off_c, 0, 60, 63
1, 66974, Note_on_c, 0, 67, 50
1, 66976, Note_on_c, 0, 60, 50
1, 66976, Note_on_c, 0, 64, 51
1, 67027, Note_off_c, 0, 64, 56
1, 67030, Note_off_c, 0, 60, 62
1, 67036, Note_off_c, 0, 67, 56
1, 67045, Note_on_c, 0, 79, 88
1, 67064, Note_off_c, 0, 79, 69
1, 67116, Note_on_c, 0, 79, 93
1, 67122, Note_on_c, 0, 64, 58
1, 67127, Note_on_c, 0, 67, 58
1, 67130, Note_on_c, 0, 60, 65
1, 67170, Note_off_c, 0, 60, 60
1, 67173, Note_off_c, 0, 64, 53
1, 67176, Note_off_c, 0, 67, 53
1, 67296, Note_on_c, 0, 64, 55
1, 67298, Note_on_c, 0, 60, 48
1, 67304, Note_on_c, 0, 67, 54
1, 67346, Note_off_c, 0, 60, 55
1, 67349, Note_off_c, 0, 64, 53
1, 67352, Note_off_c, 0, 67, 53
1, 67463, Note_on_c, 0, 76, 88
1, 67478, Note_on_c, 0, 60, 56
1, 67479, Note_on_c, 0, 64, 52
1, 67481, Note_on_c, 0, 67, 56
1, 67525, Note_off_c, 0, 67, 53
1, 67527, Note_off_c, 0, 64, 57
1, 67529, Note_off_c, 0, 60, 49
1, 67545, Note_off_c, 0, 79, 54
1, 67638, Note_on_c, 0, 64, 52
1, 67646, Note_on_c, 0, 67, 54
1, 67649, Note_on_c, 0, 60, 63
1, 67703, Note_off_c, 0, 76, 68
1, 67715, Note_on_c, 0, 72, 74
1, 67717, Note_off_c, 0, 64, 60
1, 67751, Note_off_c, 0, 67, 56
1, 67757, Note_off_c, 0, 72, 61
1, 67758, Note_off_c, 0, 60, 58
1, 67808, Note_on_c, 0, 72, 73
1, 67851, Control_c, 0, 64, 72
1, 67854, Note_on_c, 0, 71, 81
1, 67856, Note_on_c, 0, 67, 50
1, 67861, Note_on_c, 0, 65, 53
1, 67863, Note_on_c, 0, 62, 54
1, 67864, Note_on_c, 0, 60, 56
1, 67866, Control_c, 0, 64, 51
1, 67876, Note_off_c, 0, 72, 65
1, 67880, Control_c, 0, 64, 0
1, 67948, Note_off_c, 0, 62, 45
1, 67951, Note_off_c, 0, 60, 55
1, 67954, Control_c, 0, 64, 21
1, 67960, Note_off_c, 0, 67, 38
1, 67967, Note_off_c, 0, 65, 40
1, 67969, Control_c, 0, 64, 42
1, 67984, Control_c, 0, 64, 63
1, 67999, Control_c, 0, 64, 127
1, 68061, Note_on_c, 0, 67, 49
1, 68067, Note_on_c, 0, 65, 50
1, 68070, Note_on_c, 0, 60, 49
1, 68072, Note_on_c, 0, 62, 52
1, 68118, Note_off_c, 0, 60, 56
1, 68118, Note_off_c, 0, 62, 58
1, 68124, Note_off_c, 0, 65, 58
1, 68130, Note_off_c, 0, 67, 57
1, 68140, Note_off_c, 0, 71, 62
1, 68234, Note_on_c, 0, 71, 78
1, 68248, Note_on_c, 0, 65, 54
1, 68249, Note_on_c, 0, 67, 55
1, 68249, Note_on_c, 0, 60, 54
1, 68253, Note_on_c, 0, 62, 44
1, 68288, Note_off_c, 0, 60, 61
1, 68292, Note_off_c, 0, 71, 65
1, 68293, Note_off_c, 0, 62, 60
1, 68294, Note_off_c, 0, 65, 59
1, 68297, Note_off_c, 0, 67, 55
1, 68409, Note_on_c, 0, 60, 52
1, 68410, Note_on_c, 0, 62, 48
1, 68410, Note_on_c, 0, 67, 61
1, 68411, Note_on_c, 0, 65, 58
1, 68461, Note_off_c, 0, 62, 56
1, 68465, Note_off_c, 0, 60, 52
1, 68467, Note_off_c, 0, 67, 58
1, 68468, Note_off_c, 0, 65, 59
1, 68581, Note_on_c, 0, 65, 64
1, 68582, Note_on_c, 0, 67, 64
1, 68586, Note_on_c, 0, 60, 63
1, 68587, Note_on_c, 0, 62, 58
1, 68642, Note_off_c, 0, 62, 50
1, 68643, Note_off_c, 0, 60, 55
1, 68645, Note_off_c, 0, 65, 60
1, 68645, Note_off_c, 0, 67, 61
1, 68757, Note_on_c, 0, 67, 59
1, 68765, Note_on_c, 0, 60, 55
1, 68765, Note_on_c, 0, 65, 53
1, 68770, Note_on_c, 0, 62, 51
1, 68799, Note_off_c, 0, 67, 50
1, 68802, Note_off_c, 0, 60, 56
1, 68805, Note_off_c, 0, 65, 62
1, 68808, Note_off_c, 0, 62, 62
1, 68917, Note_on_c, 0, 77, 90
1, 68930, Note_on_c, 0, 60, 58
1, 68931, Note_on_c, 0, 67, 56
1, 68933, Note_on_c, 0, 62, 48
1, 68934, Note_on_c, 0, 65, 52
1, 68985, Note_off_c, 0, 62, 49
1, 68990, Note_off_c, 0, 67, 58
1, 68994, Note_off_c, 0, 65, 56
1, 68997, Note_off_c, 0, 60, 58
1, 69106, Note_on_c, 0, 67, 60
1, 69112, Note_on_c, 0, 62, 53
1, 69112, Note_on_c, 0, 65, 54
1, 69114, Note_on_c, 0, 60, 57
1, 69149, Note_off_c, 0, 65, 65
1, 69168, Note_off_c, 0, 62, 55
1, 69173, Note_off_c, 0, 67, 56
1, 69179, Note_off_c, 0, 60, 53
1, 69186, Note_off_c, 0, 77, 63
1, 69188, Note_on_c, 0, 74, 74
1, 69215, Control_c, 0, 64, 67
1, 69229, Control_c, 0, 64, 27
1, 69244, Control_c, 0, 64, 0
1, 69251, Note_on_c, 0, 79, 92
1, 69266, Note_on_c, 0, 67, 61
1, 69267, Note_on_c, 0, 64, 64
1, 69267, Note_off_c, 0, 74, 60
1, 69269, Note_on_c, 0, 60, 59
1, 69331, Note_off_c, 0, 67, 59
1, 69334, Note_off_c, 0, 64, 59
1, 69334, Control_c, 0, 64, 52
1, 69334, Note_off_c, 0, 60, 60
1, 69349, Control_c, 0, 64, 86
1, 69364, Control_c, 0, 64, 127
1, 69435, Note_on_c, 0, 67, 62
1, 69436, Note_on_c, 0, 60, 57
1, 69443, Note_on_c, 0, 64, 55
1, 69484, Note_off_c, 0, 60, 56
1, 69486, Note_off_c, 0, 64, 58
1, 69495, Note_off_c, 0, 67, 57
1, 69516, Note_off_c, 0, 79, 58
1, 69599, Note_on_c, 0, 79, 93
1, 69603, Note_on_c, 0, 60, 64
1, 69605, Note_on_c, 0, 64, 55
1, 69608, Note_on_c, 0, 67, 65
1, 69655, Note_off_c, 0, 79, 60
1, 69656, Note_off_c, 0, 67, 56
1, 69657, Note_off_c, 0, 64, 52
1, 69666, Note_off_c, 0, 60, 61
1, 69790, Note_on_c, 0, 67, 55
1, 69791, Note_on_c, 0, 60, 57
1, 69795, Note_on_c, 0, 64, 53
1, 69844, Note_off_c, 0, 64, 53
1, 69853, Note_off_c, 0, 60, 60
1, 69855, Note_off_c, 0, 67, 61
1, 69860, Note_on_c, 0, 79, 78
1, 69883, Note_off_c, 0, 79, 68
1, 69924, Note_on_c, 0, 79, 96
1, 69949, Note_on_c, 0, 67, 57
1, 69951, Note_on_c, 0, 60, 60
1, 69958, Note_on_c, 0, 64, 51
1, 69979, Note_off_c, 0, 67, 55
1, 69981, Note_off_c, 0, 60, 62
1, 69983, Note_off_c, 0, 64, 58
1, 70091, Note_off_c, 0, 79, 59
1, 70107, Note_on_c, 0, 60, 53
1, 70108, Note_on_c, 0, 64, 50
1, 70108, Note_on_c, 0, 67, 58
1, 70110, Note_on_c, 0, 81, 75
1, 70149, Note_off_c, 0, 64, 60
1, 70154, Note_off_c, 0, 60, 57
1, 70157, Note_off_c, 0, 67, 53
1, 70178, Note_on_c, 0, 79, 78
1, 70196, Note_off_c, 0, 81, 56
1, 70257, Note_on_c, 0, 77, 83
1, 70261, Note_on_c, 0, 64, 59
1, 70265, Note_on_c, 0, 67, 69
1, 70265, Note_on_c, 0, 60, 68
1, 70294, Note_off_c, 0, 79, 60
1, 70333, Note_off_c, 0, 67, 61
1, 70336, Note_off_c, 0, 64, 59
1, 70338, Note_on_c, 0, 76, 84
1, 70340, Note_off_c, 0, 60, 62
1, 70352, Note_off_c, 0, 77, 56
1, 70410, Note_off_c, 0, 76, 68
1, 70418, Note_on_c, 0, 74, 77
1, 70425, Note_on_c, 0, 60, 69
1, 70431, Note_on_c, 0, 67, 67
1, 70432, Note_on_c, 0, 64, 61
1, 70490, Note_off_c, 0, 74, 60
1, 70491, Note_on_c, 0, 72, 82
1, 70529, Note_off_c, 0, 72, 60
1, 70561, Note_off_c, 0, 64, 58
1, 70565, Note_off_c, 0, 67, 60
1, 70578, Note_on_c, 0, 72, 74
1, 70591, Note_off_c, 0, 60, 62
1, 70634, Note_on_c, 0, 70, 95
1, 70638, Control_c, 0, 64, 66
1, 70649, Note_off_c, 0, 72, 64
1, 70653, Control_c, 0, 64, 30
1, 70668, Note_on_c, 0, 61, 71
1, 70668, Control_c, 0, 64, 0
1, 70671, Note_on_c, 0, 64, 65
1, 70672, Note_on_c, 0, 67, 74
1, 70742, Control_c, 0, 64, 40
1, 70757, Control_c, 0, 64, 64
1, 70772, Control_c, 0, 64, 127
1, 70806, Note_off_c, 0, 67, 59
1, 70813, Note_off_c, 0, 64, 59
1, 70816, Note_off_c, 0, 61, 59
1, 70905, Note_on_c, 0, 61, 69
1, 70909, Note_on_c, 0, 67, 68
1, 70913, Note_on_c, 0, 64, 59
1, 70969, Note_off_c, 0, 64, 52
1, 70973, Note_off_c, 0, 67, 59
1, 70976, Note_off_c, 0, 70, 59
1, 70982, Note_off_c, 0, 61, 62
1, 71079, Note_on_c, 0, 70, 85
1, 71088, Note_on_c, 0, 67, 67
1, 71092, Note_on_c, 0, 64, 58
1, 71096, Note_on_c, 0, 61, 60
1, 71129, Note_off_c, 0, 70, 65
1, 71156, Note_off_c, 0, 64, 55
1, 71157, Note_off_c, 0, 61, 56
1, 71158, Note_off_c, 0, 67, 61
1, 71271, Note_on_c, 0, 61, 58
1, 71271, Note_on_c, 0, 67, 61
1, 71273, Note_on_c, 0, 64, 57
1, 71312, Note_off_c, 0, 61, 53
1, 71313, Note_off_c, 0, 64, 60
1, 71316, Note_off_c, 0, 67, 57
1, 71436, Note_on_c, 0, 67, 64
1, 71437, Note_on_c, 0, 61, 56
1, 71442, Note_on_c, 0, 64, 60
1, 71484, Note_off_c, 0, 64, 58
1, 71489, Note_off_c, 0, 61, 56
1, 71492, Note_off_c, 0, 67, 56
1, 71603, Note_on_c, 0, 73, 76
1, 71610, Note_on_c, 0, 61, 54
1, 71611, Note_on_c, 0, 67, 58
1, 71611, Note_on_c, 0, 64, 52
1, 71650, Note_off_c, 0, 67, 56
1, 71654, Note_off_c, 0, 61, 60
1, 71656, Note_off_c, 0, 64, 59
1, 71766, Note_on_c, 0, 76, 87
1, 71768, Note_on_c, 0, 61, 60
1, 71768, Note_on_c, 0, 67, 65
1, 71769, Note_on_c, 0, 64, 62
1, 71836, Note_off_c, 0, 67, 61
1, 71843, Note_off_c, 0, 64, 60
1, 71844, Note_off_c, 0, 61, 61
1, 71857, Note_off_c, 0, 73, 60
1, 71929, Note_on_c, 0, 79, 89
1, 71937, Note_on_c, 0, 61, 74
1, 71937, Note_on_c, 0, 67, 81
1, 71938, Note_on_c, 0, 64, 72
1, 71996, Note_off_c, 0, 76, 59
1, 71999, Note_off_c, 0, 67, 57
1, 72008, Note_off_c, 0, 64, 60
1, 72014, Note_off_c, 0, 61, 62
1, 72077, Control_c, 0, 64, 64
1, 72092, Control_c, 0, 64, 29
1, 72101, Note_on_c, 0, 67, 85
1, 72103, Note_on_c, 0, 82, 96
1, 72103, Note_on_c, 0, 60, 77
1, 72104, Note_on_c, 0, 64, 82
1, 72107, Control_c, 0, 64, 0
1, 72150, Note_off_c, 0, 79, 52
1, 72152, Control_c, 0, 64, 33
1, 72160, Note_off_c, 0, 67, 63
1, 72161, Note_off_c, 0, 64, 62
1, 72167, Control_c, 0, 64, 52
1, 72172, Note_off_c, 0, 60, 62
1, 72181, Control_c, 0, 64, 77
1, 72196, Control_c, 0, 64, 127
1, 72266, Note_on_c, 0, 79, 80
1, 72267, Note_on_c, 0, 67, 76
1, 72272, Note_on_c, 0, 64, 69
1, 72273, Note_on_c, 0, 60, 67
1, 72295, Note_off_c, 0, 82, 62
1, 72308, Note_off_c, 0, 64, 53
1, 72312, Note_off_c, 0, 67, 55
1, 72318, Note_off_c, 0, 60, 62
1, 72389, Control_c, 0, 64, 60
1, 72404, Control_c, 0, 64, 0
1, 72422, Note_on_c, 0, 67, 74
1, 72422, Note_off_c, 0, 79, 58
1, 72425, Note_on_c, 0, 64, 63
1, 72425, Note_on_c, 0, 60, 68
1, 72428, Note_on_c, 0, 76, 75
1, 72463, Note_off_c, 0, 64, 60
1, 72463, Note_off_c, 0, 67, 54
1, 72470, Note_off_c, 0, 60, 62
1, 72568, Note_off_c, 0, 76, 64
1, 72583, Note_on_c, 0, 67, 53
1, 72589, Note_on_c, 0, 64, 50
1, 72590, Note_on_c, 0, 60, 57
1, 72598, Note_on_c, 0, 72, 53
1, 72615, Note_off_c, 0, 67, 53
1, 72621, Note_off_c, 0, 64, 53
1, 72626, Note_off_c, 0, 60, 66
1, 72750, Note_off_c, 0, 72, 55
1, 72759, Note_on_c, 0, 67, 52
1, 72759, Note_on_c, 0, 64, 45
1, 72762, Note_on_c, 0, 61, 54
1, 72765, Note_on_c, 0, 70, 56
1, 72800, Note_off_c, 0, 67, 57
1, 72801, Note_off_c, 0, 61, 63
1, 72803, Note_off_c, 0, 64, 61
1, 72934, Note_on_c, 0, 67, 45
1, 72935, Note_on_c, 0, 73, 59
1, 72940, Note_on_c, 0, 64, 40
1, 72944, Note_on_c, 0, 61, 35
1, 72946, Note_off_c, 0, 70, 57
1, 72971, Note_off_c, 0, 67, 52
1, 72974, Note_off_c, 0, 64, 52
1, 72976, Note_off_c, 0, 61, 56
1, 73078, Note_off_c, 0, 73, 63
1, 73093, Note_on_c, 0, 61, 43
1, 73094, Note_on_c, 0, 64, 48
1, 73096, Note_on_c, 0, 67, 54
1, 73097, Note_on_c, 0, 76, 69
1, 73130, Note_off_c, 0, 67, 57
1, 73135, Note_off_c, 0, 64, 61
1, 73136, Note_off_c, 0, 61, 62
1, 73255, Note_on_c, 0, 61, 62
1, 73257, Note_on_c, 0, 79, 74
1, 73265, Note_on_c, 0, 67, 57
1, 73269, Note_on_c, 0, 64, 55
1, 73271, Note_off_c, 0, 76, 56
1, 73298, Note_off_c, 0, 67, 59
1, 73300, Note_off_c, 0, 64, 58
1, 73306, Note_off_c, 0, 61, 60
1, 73427, Note_on_c, 0, 67, 85
1, 73430, Note_on_c, 0, 64, 75
1, 73430, Note_on_c, 0, 60, 76
1, 73436, Note_on_c, 0, 82, 86
1, 73442, Control_c, 0, 64, 42
1, 73452, Note_off_c, 0, 79, 56
1, 73457, Control_c, 0, 64, 61
1, 73472, Control_c, 0, 64, 109
1, 73474, Note_off_c, 0, 67, 64
1, 73476, Note_off_c, 0, 64, 63
1, 73487, Control_c, 0, 64, 127
1, 73498, Note_off_c, 0, 60, 61
1, 73595, Note_on_c, 0, 67, 77
1, 73598, Note_on_c, 0, 79, 71
1, 73600, Note_on_c, 0, 64, 60
1, 73609, Note_on_c, 0, 60, 66
1, 73624, Note_off_c, 0, 82, 59
1, 73636, Note_off_c, 0, 67, 45
1, 73638, Note_off_c, 0, 64, 61
1, 73655, Note_off_c, 0, 60, 58
1, 73739, Control_c, 0, 64, 76
1, 73752, Note_on_c, 0, 67, 69
1, 73753, Note_on_c, 0, 60, 64
1, 73753, Control_c, 0, 64, 53
1, 73757, Note_on_c, 0, 64, 65
1, 73760, Note_off_c, 0, 79, 60
1, 73764, Note_on_c, 0, 76, 68
1, 73768, Control_c, 0, 64, 0
1, 73795, Note_off_c, 0, 64, 61
1, 73797, Note_off_c, 0, 67, 64
1, 73806, Note_off_c, 0, 60, 60
1, 73908, Note_off_c, 0, 76, 65
1, 73920, Note_on_c, 0, 67, 61
1, 73923, Note_on_c, 0, 60, 60
1, 73926, Note_on_c, 0, 64, 55
1, 73934, Note_on_c, 0, 72, 56
1, 73948, Note_off_c, 0, 67, 57
1, 73955, Note_off_c, 0, 64, 60
1, 73960, Note_off_c, 0, 60, 61
1, 74080, Note_off_c, 0, 72, 59
1, 74087, Note_on_c, 0, 61, 53
1, 74088, Note_on_c, 0, 70, 57
1, 74092, Note_on_c, 0, 67, 50
1, 74098, Note_on_c, 0, 64, 45
1, 74118, Note_off_c, 0, 67, 58
1, 74127, Note_off_c, 0, 61, 62
1, 74127, Note_off_c, 0, 64, 57
1, 74260, Note_on_c, 0, 61, 55
1, 74261, Note_on_c, 0, 64, 43
1, 74261, Note_on_c, 0, 67, 49
1, 74263, Note_on_c, 0, 73, 63
1, 74270, Note_off_c, 0, 70, 60
1, 74293, Note_off_c, 0, 67, 56
1, 74299, Note_off_c, 0, 61, 63
1, 74299, Note_off_c, 0, 64, 60
1, 74399, Note_off_c, 0, 73, 62
1, 74422, Note_on_c, 0, 67, 60
1, 74424, Note_on_c, 0, 61, 60
1, 74425, Note_on_c, 0, 64, 55
1, 74425, Note_on_c, 0, 76, 61
1, 74459, Note_off_c, 0, 67, 60
1, 74464, Note_off_c, 0, 64, 62
1, 74464, Note_off_c, 0, 61, 60
1, 74577, Note_on_c, 0, 67, 65
1, 74577, Note_on_c, 0, 79, 69
1, 74577, Note_off_c, 0, 76, 56
1, 74580, Note_on_c, 0, 61, 57
1, 74589, Note_on_c, 0, 64, 53
1, 74617, Note_off_c, 0, 67, 58
1, 74625, Note_off_c, 0, 61, 62
1, 74625, Note_off_c, 0, 64, 61
1, 74712, Note_off_c, 0, 79, 59
1, 74738, Note_on_c, 0, 82, 86
1, 74739, Note_on_c, 0, 67, 90
1, 74740, Note_on_c, 0, 64, 86
1, 74740, Control_c, 0, 64, 42
1, 74741, Note_on_c, 0, 60, 82
1, 74755, Control_c, 0, 64, 76
1, 74757, Note_off_c, 0, 67, 75
1, 74759, Note_off_c, 0, 64, 71
1, 74762, Note_off_c, 0, 60, 72
1, 74769, Control_c, 0, 64, 127
1, 74807, Note_off_c, 0, 82, 65
1, 74816, Note_on_c, 0, 79, 75
1, 74903, Note_on_c, 0, 76, 80
1, 74936, Note_off_c, 0, 79, 59
1, 74976, Note_off_c, 0, 76, 66
1, 74996, Note_on_c, 0, 72, 67
1, 75030, Control_c, 0, 64, 69
1, 75045, Control_c, 0, 64, 54
1, 75053, Note_off_c, 0, 72, 61
1, 75060, Control_c, 0, 64, 27
1, 75072, Note_on_c, 0, 79, 80
1, 75074, Control_c, 0, 64, 0
1, 75104, Control_c, 0, 64, 20
1, 75118, Control_c, 0, 64, 27
1, 75133, Control_c, 0, 64, 31
1, 75148, Control_c, 0, 64, 34
1, 75149, Note_on_c, 0, 76, 73
1, 75154, Note_off_c, 0, 79, 59
1, 75163, Control_c, 0, 64, 37
1, 75178, Control_c, 0, 64, 37
1, 75222, Note_off_c, 0, 76, 66
1, 75233, Note_on_c, 0, 72, 72
1, 75266, Control_c, 0, 64, 36
1, 75281, Control_c, 0, 64, 32
1, 75292, Note_off_c, 0, 72, 62
1, 75296, Control_c, 0, 64, 27
1, 75297, Note_on_c, 0, 70, 74
1, 75311, Control_c, 0, 64, 23
1, 75326, Control_c, 0, 64, 24
1, 75341, Control_c, 0, 64, 27
1, 75342, Note_off_c, 0, 70, 64
1, 75355, Control_c, 0, 64, 33
1, 75370, Control_c, 0, 64, 38
1, 75372, Note_on_c, 0, 76, 84
1, 75385, Control_c, 0, 64, 45
1, 75400, Control_c, 0, 64, 53
1, 75415, Control_c, 0, 64, 62
1, 75430, Control_c, 0, 64, 71
1, 75444, Note_on_c, 0, 72, 80
1, 75445, Control_c, 0, 64, 83
1, 75459, Control_c, 0, 64, 93
1, 75474, Control_c, 0, 64, 108
1, 75476, Note_off_c, 0, 76, 63
1, 75489, Control_c, 0, 64, 127
1, 75516, Note_on_c, 0, 70, 82
1, 75570, Note_off_c, 0, 72, 60
1, 75589, Note_on_c, 0, 67, 77
1, 75589, Note_off_c, 0, 70, 63
1, 75674, Note_on_c, 0, 72, 91
1, 75678, Note_off_c, 0, 67, 41
1, 75749, Note_on_c, 0, 70, 82
1, 75781, Note_off_c, 0, 72, 63
1, 75833, Note_on_c, 0, 67, 80
1, 75858, Note_off_c, 0, 70, 66
1, 75898, Note_on_c, 0, 64, 74
1, 75905, Note_off_c, 0, 67, 65
1, 75964, Note_off_c, 0, 64, 60
1, 75987, Note_on_c, 0, 43, 87
1, 75988, Note_on_c, 0, 46, 101
1, 75991, Note_on_c, 0, 70, 85
1, 75993, Note_on_c, 0, 36, 84
1, 75993, Note_on_c, 0, 40, 78
1, 76000, Control_c, 0, 64, 63
1, 76014, Control_c, 0, 64, 32
1, 76029, Control_c, 0, 64, 0
1, 76053, Note_off_c, 0, 70, 61
1, 76059, Note_on_c, 0, 67, 73
1, 76151, Note_on_c, 0, 64, 75
1, 76181, Note_off_c, 0, 67, 59
1, 76219, Note_off_c, 0, 64, 63
1, 76237, Note_on_c, 0, 60, 70
1, 76285, Note_off_c, 0, 60, 63
1, 76321, Note_on_c, 0, 67, 86
1, 76399, Note_on_c, 0, 64, 77
1, 76416, Note_off_c, 0, 67, 63
1, 76492, Note_on_c, 0, 60, 79
1, 76503, Note_off_c, 0, 64, 61
1, 76544, Note_off_c, 0, 60, 63
1, 76559, Note_on_c, 0, 59, 70
1, 76627, Note_off_c, 0, 59, 0
1, 76643, Note_on_c, 0, 58, 85
1, 76669, Note_off_c, 0, 58, 67
1, 76710, Poly_aftertouch_c, 0, 59, 0
1, 76724, Note_on_c, 0, 67, 75
1, 76796, Note_on_c, 0, 66, 79
1, 76799, Note_off_c, 0, 67, 65
1, 76865, Note_off_c, 0, 66, 65
1, 76869, Note_on_c, 0, 67, 78
1, 76950, Note_on_c, 0, 69, 84
1, 76950, Note_off_c, 0, 67, 65
1, 76956, Control_c, 0, 64, 21
1, 76971, Control_c, 0, 64, 52
1, 76986, Control_c, 0, 64, 62
1, 77001, Control_c, 0, 64, 74
1, 77016, Control_c, 0, 64, 99
1, 77025, Note_on_c, 0, 67, 79
1, 77031, Control_c, 0, 64, 127
1, 77046, Note_off_c, 0, 69, 62
1, 77066, Note_off_c, 0, 36, 60
1, 77100, Note_on_c, 0, 66, 82
1, 77100, Note_off_c, 0, 46, 39
1, 77121, Note_off_c, 0, 67, 60
1, 77177, Note_off_c, 0, 66, 63
1, 77186, Note_on_c, 0, 64, 70
1, 77216, Note_off_c, 0, 43, 59
1, 77222, Note_off_c, 0, 40, 62
1, 77224, Note_off_c, 0, 64, 63
1, 77230, Control_c, 0, 64, 62
1, 77245, Control_c, 0, 64, 0
1, 77270, Note_on_c, 0, 63, 101
1, 77272, Note_on_c, 0, 71, 94
1, 77275, Control_c, 0, 64, 34
1, 77277, Note_on_c, 0, 35, 81
1, 77290, Control_c, 0, 64, 58
1, 77302, Note_off_c, 0, 63, 67
1, 77302, Note_off_c, 0, 71, 65
1, 77305, Control_c, 0, 64, 127
1, 77337, Note_off_c, 0, 35, 65
1, 77360, Note_on_c, 0, 47, 76
1, 77440, Note_on_c, 0, 46, 72
1, 77445, Note_off_c, 0, 47, 63
1, 77517, Note_off_c, 0, 46, 60
1, 77525, Note_on_c, 0, 47, 60
1, 77604, Note_off_c, 0, 47, 62
1, 77606, Note_on_c, 0, 63, 102
1, 77608, Note_on_c, 0, 71, 90
1, 77619, Note_on_c, 0, 46, 74
1, 77641, Note_off_c, 0, 63, 66
1, 77646, Note_off_c, 0, 71, 65
1, 77684, Note_on_c, 0, 47, 69
1, 77684, Note_off_c, 0, 46, 61
1, 77756, Note_off_c, 0, 47, 62
1, 77773, Note_on_c, 0, 46, 60
1, 77845, Note_off_c, 0, 46, 62
1, 77849, Note_on_c, 0, 47, 60
1, 77892, Note_on_c, 0, 63, 84
1, 77907, Note_on_c, 0, 71, 56
1, 77913, Note_off_c, 0, 63, 68
1, 77924, Note_off_c, 0, 47, 64
1, 77930, Note_off_c, 0, 71, 62
1, 77935, Control_c, 0, 64, 55
1, 77950, Control_c, 0, 64, 10
1, 77955, Note_on_c, 0, 63, 97
1, 77957, Note_on_c, 0, 71, 82
1, 77960, Note_on_c, 0, 35, 82
1, 77965, Control_c, 0, 64, 40
1, 77980, Control_c, 0, 64, 127
1, 77994, Note_off_c, 0, 63, 68
1, 77998, Note_off_c, 0, 71, 67
1, 78008, Note_off_c, 0, 35, 65
1, 78033, Note_on_c, 0, 47, 75
1, 78116, Note_on_c, 0, 46, 69
1, 78120, Note_off_c, 0, 47, 63
1, 78196, Note_on_c, 0, 47, 69
1, 78205, Note_off_c, 0, 46, 60
1, 78291, Note_off_c, 0, 47, 63
1, 78299, Note_on_c, 0, 63, 99
1, 78300, Note_on_c, 0, 71, 90
1, 78307, Note_on_c, 0, 46, 73
1, 78331, Note_off_c, 0, 63, 67
1, 78336, Note_off_c, 0, 71, 68
1, 78371, Note_off_c, 0, 46, 62
1, 78378, Note_on_c, 0, 47, 70
1, 78447, Note_off_c, 0, 47, 61
1, 78461, Note_on_c, 0, 46, 65
1, 78527, Note_off_c, 0, 46, 63
1, 78540, Note_on_c, 0, 47, 59
1, 78614, Note_off_c, 0, 47, 61
1, 78617, Control_c, 0, 64, 92
1, 78638, Control_c, 0, 64, 46
1, 78645, Note_on_c, 0, 64, 98
1, 78648, Note_on_c, 0, 72, 98
1, 78650, Note_on_c, 0, 71, 82
1, 78653, Control_c, 0, 64, 0
1, 78659, Note_on_c, 0, 35, 72
1, 78697, Control_c, 0, 64, 17
1, 78706, Note_off_c, 0, 35, 67
1, 78712, Control_c, 0, 64, 44
1, 78727, Control_c, 0, 64, 65
1, 78730, Note_on_c, 0, 47, 71
1, 78742, Control_c, 0, 64, 127
1, 78791, Note_off_c, 0, 71, 59
1, 78834, Note_off_c, 0, 47, 61
1, 78841, Note_on_c, 0, 46, 65
1, 78914, Note_off_c, 0, 46, 63
1, 78920, Note_on_c, 0, 47, 59
1, 78944, Note_on_c, 0, 71, 66
1, 79007, Note_off_c, 0, 47, 63
1, 79010, Note_on_c, 0, 69, 81
1, 79019, Note_on_c, 0, 46, 69
1, 79079, Note_off_c, 0, 46, 62
1, 79082, Note_off_c, 0, 71, 61
1, 79085, Note_on_c, 0, 47, 61
1, 79164, Note_off_c, 0, 47, 60
1, 79180, Note_on_c, 0, 46, 60
1, 79195, Note_off_c, 0, 64, 57
1, 79237, Note_off_c, 0, 46, 60
1, 79246, Note_on_c, 0, 47, 56
1, 79258, Note_off_c, 0, 69, 61
1, 79264, Note_on_c, 0, 68, 74
1, 79290, Note_off_c, 0, 68, 65
1, 79305, Control_c, 0, 64, 86
1, 79309, Note_off_c, 0, 72, 63
1, 79314, Note_off_c, 0, 47, 62
1, 79320, Control_c, 0, 64, 50
1, 79335, Control_c, 0, 64, 0
1, 79337, Note_on_c, 0, 66, 96
1, 79344, Note_on_c, 0, 69, 82
1, 79345, Note_on_c, 0, 35, 77
1, 79365, Control_c, 0, 64, 29
1, 79387, Control_c, 0, 64, 66
1, 79402, Note_off_c, 0, 35, 63
1, 79402, Control_c, 0, 64, 127
1, 79433, Note_on_c, 0, 47, 66
1, 79511, Note_on_c, 0, 46, 65
1, 79517, Note_off_c, 0, 47, 62
1, 79589, Note_on_c, 0, 47, 58
1, 79605, Note_off_c, 0, 46, 61
1, 79608, Note_off_c, 0, 69, 62
1, 79625, Note_on_c, 0, 75, 76
1, 79675, Note_off_c, 0, 66, 0
1, 79686, Note_off_c, 0, 47, 57
1, 79688, Note_on_c, 0, 76, 91
1, 79693, Note_on_c, 0, 46, 80
1, 79697, Note_on_c, 0, 66, 40
1, 79725, Note_off_c, 0, 75, 62
1, 79760, Note_on_c, 0, 47, 68
1, 79764, Note_off_c, 0, 46, 62
1, 79837, Note_off_c, 0, 47, 63
1, 79845, Note_on_c, 0, 46, 69
1, 79848, Note_off_c, 0, 76, 58
1, 79913, Note_off_c, 0, 66, 57
1, 79915, Note_off_c, 0, 46, 61
1, 79919, Note_on_c, 0, 47, 59
1, 79960, Note_on_c, 0, 72, 75
1, 79990, Note_off_c, 0, 72, 62
1, 79994, Note_off_c, 0, 47, 62
1, 80010, Control_c, 0, 64, 78
1, 80024, Control_c, 0, 64, 45
1, 80030, Note_on_c, 0, 71, 94
1, 80031, Note_on_c, 0, 63, 92
1, 80034, Note_on_c, 0, 35, 72
1, 80039, Control_c, 0, 64, 0
1, 80069, Control_c, 0, 64, 44
1, 80076, Note_off_c, 0, 35, 66
1, 80084, Control_c, 0, 64, 77
1, 80099, Control_c, 0, 64, 127
1, 80105, Note_off_c, 0, 63, 61
1, 80113, Note_on_c, 0, 47, 63
1, 80217, Note_on_c, 0, 46, 59
1, 80219, Note_off_c, 0, 47, 59
1, 80278, Note_off_c, 0, 46, 59
1, 80284, Note_on_c, 0, 47, 50
1, 80310, Note_on_c, 0, 69, 73
1, 80365, Note_off_c, 0, 47, 63
1, 80370, Note_on_c, 0, 67, 83
1, 80390, Note_on_c, 0, 46, 61
1, 80431, Note_off_c, 0, 46, 57
1, 80433, Note_off_c, 0, 69, 60
1, 80449, Note_on_c, 0, 47, 61
1, 80518, Note_off_c, 0, 47, 59
1, 80540, Note_on_c, 0, 46, 57
1, 80597, Note_off_c, 0, 46, 60
1, 80617, Note_off_c, 0, 67, 41
1, 80622, Note_on_c, 0, 47, 58
1, 80622, Note_on_c, 0, 66, 77
1, 80653, Note_off_c, 0, 66, 63
1, 80655, Control_c, 0, 64, 58
1, 80659, Note_off_c, 0, 47, 60
1, 80660, Note_off_c, 0, 71, 62
1, 80670, Control_c, 0, 64, 0
1, 80694, Note_on_c, 0, 64, 83
1, 80698, Note_on_c, 0, 67, 83
1, 80703, Note_on_c, 0, 35, 75
1, 80729, Control_c, 0, 64, 47
1, 80743, Note_off_c, 0, 35, 68
1, 80744, Control_c, 0, 64, 127
1, 80755, Note_off_c, 0, 67, 62
1, 80770, Note_on_c, 0, 47, 68
1, 80864, Note_off_c, 0, 47, 62
1, 80867, Note_on_c, 0, 46, 66
1, 80942, Note_on_c, 0, 47, 57
1, 80950, Note_off_c, 0, 46, 62
1, 80965, Note_on_c, 0, 75, 82
1, 81028, Note_off_c, 0, 47, 62
1, 81031, Note_on_c, 0, 76, 89
1, 81040, Note_on_c, 0, 46, 80
1, 81040, Note_off_c, 0, 75, 64
1, 81096, Note_on_c, 0, 47, 69
1, 81103, Note_off_c, 0, 46, 63
1, 81126, Note_off_c, 0, 76, 53
1, 81183, Note_off_c, 0, 47, 63
1, 81188, Note_on_c, 0, 46, 67
1, 81228, Note_off_c, 0, 64, 56
1, 81246, Note_off_c, 0, 46, 61
1, 81258, Note_on_c, 0, 47, 57
1, 81276, Note_on_c, 0, 71, 65
1, 81293, Note_off_c, 0, 71, 70
1, 81323, Note_off_c, 0, 47, 62
1, 81346, Control_c, 0, 64, 62
1, 81354, Note_on_c, 0, 69, 92
1, 81360, Control_c, 0, 64, 0
1, 81362, Note_on_c, 0, 35, 69
1, 81365, Note_on_c, 0, 61, 79
1, 81390, Control_c, 0, 64, 8
1, 81401, Note_off_c, 0, 35, 68
1, 81405, Control_c, 0, 64, 47
1, 81420, Control_c, 0, 64, 82
1, 81434, Control_c, 0, 64, 127
1, 81438, Note_on_c, 0, 47, 66
1, 81468, Note_off_c, 0, 61, 61
1, 81526, Note_on_c, 0, 46, 63
1, 81529, Note_off_c, 0, 47, 60
1, 81603, Note_off_c, 0, 46, 62
1, 81606, Note_on_c, 0, 47, 54
1, 81652, Note_on_c, 0, 67, 64
1, 81692, Note_off_c, 0, 47, 63
1, 81705, Note_on_c, 0, 46, 67
1, 81708, Note_on_c, 0, 66, 83
1, 81766, Note_off_c, 0, 46, 61
1, 81779, Note_on_c, 0, 47, 67
1, 81856, Note_off_c, 0, 47, 58
1, 81879, Note_on_c, 0, 46, 59
1, 81887, Note_off_c, 0, 67, 34
1, 81923, Note_off_c, 0, 66, 52
1, 81924, Note_off_c, 0, 69, 59
1, 81940, Note_off_c, 0, 46, 60
1, 81945, Note_on_c, 0, 47, 58
1, 81949, Note_on_c, 0, 64, 71
1, 81973, Note_off_c, 0, 64, 67
1, 82003, Control_c, 0, 64, 79
1, 82006, Note_off_c, 0, 47, 62
1, 82018, Control_c, 0, 64, 46
1, 82033, Control_c, 0, 64, 0
1, 82038, Note_on_c, 0, 66, 87
1, 82039, Note_on_c, 0, 63, 84
1, 82039, Note_on_c, 0, 35, 74
1, 82048, Control_c, 0, 64, 20
1, 82064, Control_c, 0, 64, 52
1, 82079, Note_off_c, 0, 35, 65
1, 82079, Control_c, 0, 64, 107
1, 82094, Control_c, 0, 64, 127
1, 82116, Note_on_c, 0, 47, 71
1, 82201, Note_off_c, 0, 47, 62
1, 82209, Note_on_c, 0, 46, 66
1, 82261, Note_off_c, 0, 66, 59
1, 82287, Note_off_c, 0, 46, 62
1, 82292, Note_on_c, 0, 71, 73
1, 82294, Note_on_c, 0, 47, 68
1, 82311, Note_off_c, 0, 63, 62
1, 82316, Control_c, 0, 64, 74
1, 82331, Control_c, 0, 64, 40
1, 82346, Control_c, 0, 64, 28
1, 82361, Note_off_c, 0, 47, 63
1, 82361, Control_c, 0, 64, 50
1, 82364, Note_on_c, 0, 72, 92
1, 82382, Control_c, 0, 64, 73
1, 82386, Note_on_c, 0, 46, 74
1, 82397, Control_c, 0, 64, 127
1, 82445, Note_off_c, 0, 46, 62
1, 82455, Note_off_c, 0, 71, 38
1, 82458, Note_on_c, 0, 47, 67
1, 82502, Note_off_c, 0, 72, 60
1, 82513, Note_off_c, 0, 47, 60
1, 82545, Control_c, 0, 67, 10
1, 82554, Note_on_c, 0, 46, 54
1, 82560, Control_c, 0, 64, 71
1, 82560, Control_c, 0, 67, 28
1, 82575, Control_c, 0, 64, 47
1, 82575, Control_c, 0, 67, 72
1, 82590, Control_c, 0, 64, 0
1, 82590, Control_c, 0, 67, 127
1, 82599, Note_off_c, 0, 46, 62
1, 82617, Note_on_c, 0, 69, 73
1, 82625, Note_on_c, 0, 47, 53
1, 82644, Note_off_c, 0, 69, 63
1, 82660, Note_off_c, 0, 47, 65
1, 82706, Note_on_c, 0, 68, 67
1, 82712, Note_on_c, 0, 64, 50
1, 82718, Note_on_c, 0, 40, 53
1, 82746, Note_off_c, 0, 40, 58
1, 82753, Control_c, 0, 64, 10
1, 82768, Control_c, 0, 64, 26
1, 82782, Control_c, 0, 64, 36
1, 82797, Control_c, 0, 64, 45
1, 82805, Note_on_c, 0, 52, 56
1, 82811, Note_off_c, 0, 68, 0
1, 82811, Note_on_c, 0, 68, 8
1, 82812, Control_c, 0, 64, 56
1, 82826, Control_c, 0, 64, 64
1, 82841, Control_c, 0, 64, 70
1, 82857, Note_off_c, 0, 52, 58
1, 82857, Control_c, 0, 64, 72
1, 82872, Control_c, 0, 64, 73
1, 82887, Control_c, 0, 64, 74
1, 82890, Note_on_c, 0, 51, 46
1, 82902, Control_c, 0, 64, 76
1, 82917, Control_c, 0, 64, 80
1, 82931, Control_c, 0, 64, 83
1, 82933, Note_off_c, 0, 51, 61
1, 82946, Control_c, 0, 64, 85
1, 82966, Note_off_c, 0, 68, 39
1, 82970, Note_on_c, 0, 52, 47
1, 82976, Control_c, 0, 64, 84
1, 82991, Control_c, 0, 64, 76
1, 83005, Control_c, 0, 64, 65
1, 83016, Note_off_c, 0, 52, 59
1, 83019, Note_off_c, 0, 64, 42
1, 83020, Control_c, 0, 64, 57
1, 83035, Control_c, 0, 64, 50
1, 83049, Note_on_c, 0, 76, 68
1, 83061, Note_on_c, 0, 68, 58
1, 83064, Note_on_c, 0, 51, 38
1, 83064, Control_c, 0, 64, 55
1, 83079, Control_c, 0, 64, 61
1, 83090, Note_off_c, 0, 68, 54
1, 83094, Control_c, 0, 64, 67
1, 83098, Note_off_c, 0, 76, 62
1, 83106, Note_off_c, 0, 51, 61
1, 83109, Control_c, 0, 64, 71
1, 83131, Control_c, 0, 64, 73
1, 83147, Note_on_c, 0, 52, 51
1, 83187, Note_off_c, 0, 52, 60
1, 83219, Note_on_c, 0, 51, 50
1, 83259, Note_off_c, 0, 51, 62
1, 83294, Control_c, 0, 64, 72
1, 83301, Note_on_c, 0, 68, 68
1, 83304, Note_on_c, 0, 52, 46
1, 83309, Note_on_c, 0, 76, 54
1, 83309, Control_c, 0, 64, 65
1, 83317, Note_off_c, 0, 68, 66
1, 83324, Control_c, 0, 64, 53
1, 83327, Note_off_c, 0, 76, 65
1, 83333, Note_off_c, 0, 52, 59
1, 83338, Control_c, 0, 64, 27
1, 83353, Control_c, 0, 64, 0
1, 83365, Note_on_c, 0, 76, 74
1, 83368, Note_on_c, 0, 68, 84
1, 83379, Note_on_c, 0, 40, 64
1, 83383, Control_c, 0, 64, 33
1, 83389, Note_off_c, 0, 68, 70
1, 83392, Note_off_c, 0, 76, 68
1, 83398, Control_c, 0, 64, 48
1, 83408, Note_off_c, 0, 40, 66
1, 83413, Control_c, 0, 64, 62
1, 83428, Control_c, 0, 64, 79
1, 83443, Control_c, 0, 64, 103
1, 83443, Note_on_c, 0, 52, 58
1, 83457, Control_c, 0, 64, 105
1, 83502, Control_c, 0, 64, 104
1, 83517, Control_c, 0, 64, 103
1, 83524, Note_off_c, 0, 52, 62
1, 83531, Control_c, 0, 64, 102
1, 83536, Note_on_c, 0, 51, 51
1, 83546, Control_c, 0, 64, 100
1, 83561, Control_c, 0, 64, 97
1, 83575, Control_c, 0, 64, 94
1, 83586, Note_off_c, 0, 51, 56
1, 83590, Control_c, 0, 64, 93
1, 83605, Note_on_c, 0, 52, 49
1, 83605, Control_c, 0, 64, 92
1, 83620, Control_c, 0, 64, 90
1, 83635, Control_c, 0, 64, 89
1, 83651, Control_c, 0, 64, 88
1, 83666, Control_c, 0, 64, 88
1, 83680, Control_c, 0, 64, 87
1, 83685, Note_off_c, 0, 52, 57
1, 83710, Control_c, 0, 64, 86
1, 83720, Note_on_c, 0, 51, 46
1, 83722, Note_on_c, 0, 76, 81
1, 83723, Note_on_c, 0, 68, 76
1, 83740, Control_c, 0, 64, 86
1, 83744, Note_off_c, 0, 76, 70
1, 83745, Note_off_c, 0, 68, 69
1, 83765, Note_off_c, 0, 51, 60
1, 83769, Control_c, 0, 64, 85
1, 83784, Control_c, 0, 64, 84
1, 83793, Note_on_c, 0, 52, 52
1, 83799, Control_c, 0, 64, 84
1, 83814, Control_c, 0, 64, 83
1, 83828, Control_c, 0, 64, 83
1, 83833, Note_off_c, 0, 52, 60
1, 83843, Control_c, 0, 64, 82
1, 83858, Control_c, 0, 64, 81
1, 83875, Note_on_c, 0, 51, 51
1, 83880, Control_c, 0, 64, 80
1, 83895, Control_c, 0, 64, 78
1, 83909, Note_off_c, 0, 51, 57
1, 83910, Control_c, 0, 64, 77
1, 83925, Control_c, 0, 64, 77
1, 83952, Note_on_c, 0, 52, 51
1, 83954, Control_c, 0, 64, 76
1, 84009, Note_off_c, 0, 52, 59
1, 84013, Control_c, 0, 64, 76
1, 84028, Control_c, 0, 64, 71
1, 84043, Control_c, 0, 64, 62
1, 84058, Control_c, 0, 64, 43
1, 84073, Control_c, 0, 64, 0
1, 84075, Note_on_c, 0, 77, 68
1, 84076, Note_on_c, 0, 76, 61
1, 84084, Note_on_c, 0, 40, 51
1, 84087, Note_on_c, 0, 69, 55
1, 84114, Note_off_c, 0, 40, 62
1, 84117, Control_c, 0, 64, 22
1, 84132, Control_c, 0, 64, 35
1, 84147, Control_c, 0, 64, 47
1, 84150, Note_on_c, 0, 52, 48
1, 84161, Control_c, 0, 64, 57
1, 84168, Note_off_c, 0, 76, 56
1, 84176, Control_c, 0, 64, 63
1, 84191, Control_c, 0, 64, 67
1, 84206, Control_c, 0, 64, 67
1, 84248, Note_off_c, 0, 52, 59
1, 84259, Note_on_c, 0, 51, 47
1, 84265, Control_c, 0, 64, 68
1, 84280, Control_c, 0, 64, 69
1, 84295, Control_c, 0, 64, 71
1, 84307, Note_off_c, 0, 51, 58
1, 84310, Control_c, 0, 64, 74
1, 84325, Note_on_c, 0, 52, 42
1, 84325, Control_c, 0, 64, 77
1, 84340, Control_c, 0, 64, 79
1, 84357, Note_on_c, 0, 76, 57
1, 84369, Control_c, 0, 64, 76
1, 84381, Note_off_c, 0, 52, 60
1, 84384, Control_c, 0, 64, 68
1, 84398, Control_c, 0, 64, 59
1, 84413, Control_c, 0, 64, 47
1, 84414, Note_on_c, 0, 51, 48
1, 84416, Note_on_c, 0, 74, 63
1, 84428, Control_c, 0, 64, 42
1, 84429, Note_off_c, 0, 76, 60
1, 84443, Control_c, 0, 64, 46
1, 84450, Note_off_c, 0, 51, 49
1, 84459, Control_c, 0, 64, 51
1, 84474, Control_c, 0, 64, 58
1, 84486, Note_on_c, 0, 52, 53
1, 84489, Control_c, 0, 64, 64
1, 84503, Control_c, 0, 64, 69
1, 84518, Control_c, 0, 64, 70
1, 84528, Note_off_c, 0, 52, 62
1, 84533, Control_c, 0, 64, 69
1, 84548, Control_c, 0, 64, 69
1, 84560, Note_on_c, 0, 51, 41
1, 84578, Note_off_c, 0, 69, 45
1, 84607, Control_c, 0, 64, 69
1, 84614, Note_off_c, 0, 51, 60
1, 84629, Control_c, 0, 64, 70
1, 84644, Control_c, 0, 64, 72
1, 84657, Note_on_c, 0, 73, 62
1, 84658, Note_on_c, 0, 52, 49
1, 84659, Control_c, 0, 64, 74
1, 84677, Note_off_c, 0, 74, 37
1, 84685, Note_off_c, 0, 73, 67
1, 84689, Control_c, 0, 64, 69
1, 84701, Note_off_c, 0, 52, 65
1, 84704, Control_c, 0, 64, 59
1, 84718, Control_c, 0, 64, 33
1, 84733, Control_c, 0, 64, 0
1, 84739, Note_on_c, 0, 74, 65
1, 84745, Note_on_c, 0, 71, 62
1, 84748, Note_off_c, 0, 77, 55
1, 84751, Note_on_c, 0, 40, 56
1, 84778, Control_c, 0, 64, 14
1, 84782, Note_off_c, 0, 40, 64
1, 84793, Control_c, 0, 64, 32
1, 84798, Note_off_c, 0, 74, 61
1, 84808, Control_c, 0, 64, 45
1, 84817, Note_on_c, 0, 52, 52
1, 84823, Control_c, 0, 64, 59
1, 84837, Control_c, 0, 64, 67
1, 84852, Control_c, 0, 64, 75
1, 84867, Control_c, 0, 64, 76
1, 84900, Note_off_c, 0, 52, 58
1, 84915, Note_on_c, 0, 51, 42
1, 84941, Control_c, 0, 64, 77
1, 84956, Control_c, 0, 64, 78
1, 84969, Note_off_c, 0, 51, 59
1, 84971, Control_c, 0, 64, 82
1, 84980, Note_on_c, 0, 52, 52
1, 84985, Control_c, 0, 64, 89
1, 85000, Control_c, 0, 64, 95
1, 85008, Note_on_c, 0, 80, 67
1, 85015, Control_c, 0, 64, 96
1, 85029, Control_c, 0, 64, 92
1, 85044, Control_c, 0, 64, 77
1, 85047, Note_off_c, 0, 52, 61
1, 85059, Control_c, 0, 64, 65
1, 85073, Note_on_c, 0, 81, 82
1, 85074, Control_c, 0, 64, 56
1, 85076, Note_on_c, 0, 51, 54
1, 85085, Note_off_c, 0, 80, 63
1, 85089, Control_c, 0, 64, 49
1, 85103, Control_c, 0, 64, 51
1, 85118, Control_c, 0, 64, 56
1, 85121, Note_off_c, 0, 51, 60
1, 85133, Control_c, 0, 64, 61
1, 85148, Control_c, 0, 64, 67
1, 85151, Note_on_c, 0, 52, 56
1, 85163, Control_c, 0, 64, 74
1, 85178, Control_c, 0, 64, 78
1, 85192, Control_c, 0, 64, 78
1, 85204, Note_off_c, 0, 52, 61
1, 85227, Note_on_c, 0, 51, 48
1, 85246, Note_off_c, 0, 81, 59
1, 85248, Note_off_c, 0, 71, 55
1, 85267, Control_c, 0, 64, 79
1, 85269, Note_off_c, 0, 51, 63
1, 85282, Control_c, 0, 64, 80
1, 85297, Note_on_c, 0, 52, 46
1, 85297, Control_c, 0, 64, 89
1, 85312, Control_c, 0, 64, 108
1, 85327, Control_c, 0, 64, 127
1, 85328, Note_on_c, 0, 77, 67
1, 85356, Note_off_c, 0, 77, 66
1, 85356, Control_c, 0, 64, 89
1, 85359, Note_off_c, 0, 52, 62
1, 85371, Control_c, 0, 64, 65
1, 85394, Control_c, 0, 64, 37
1, 85408, Control_c, 0, 64, 0
1, 85419, Note_on_c, 0, 40, 62
1, 85425, Note_on_c, 0, 76, 61
1, 85446, Note_on_c, 0, 77, 34
1, 85450, Note_off_c, 0, 40, 65
1, 85452, Control_c, 0, 64, 23
1, 85467, Control_c, 0, 64, 38
1, 85482, Control_c, 0, 64, 53
1, 85485, Note_off_c, 0, 77, 31
1, 85493, Note_on_c, 0, 52, 61
1, 85497, Control_c, 0, 64, 64
1, 85512, Control_c, 0, 64, 74
1, 85526, Control_c, 0, 64, 80
1, 85587, Note_off_c, 0, 52, 59
1, 85599, Note_on_c, 0, 51, 55
1, 85650, Note_off_c, 0, 51, 58
1, 85660, Control_c, 0, 64, 83
1, 85673, Note_on_c, 0, 52, 51
1, 85675, Control_c, 0, 64, 88
1, 85690, Control_c, 0, 64, 91
1, 85697, Note_on_c, 0, 74, 61
1, 85720, Control_c, 0, 64, 82
1, 85730, Note_off_c, 0, 52, 61
1, 85734, Control_c, 0, 64, 69
1, 85749, Control_c, 0, 64, 59
1, 85761, Note_on_c, 0, 72, 70
1, 85764, Control_c, 0, 64, 48
1, 85769, Note_on_c, 0, 51, 53
1, 85778, Control_c, 0, 64, 45
1, 85780, Note_off_c, 0, 74, 62
1, 85793, Control_c, 0, 64, 50
1, 85803, Note_off_c, 0, 51, 52
1, 85808, Control_c, 0, 64, 56
1, 85823, Control_c, 0, 64, 63
1, 85832, Note_on_c, 0, 52, 57
1, 85838, Control_c, 0, 64, 70
1, 85852, Control_c, 0, 64, 74
1, 85867, Control_c, 0, 64, 75
1, 85883, Note_off_c, 0, 52, 57
1, 85909, Note_on_c, 0, 51, 51
1, 85952, Note_off_c, 0, 72, 53
1, 85956, Control_c, 0, 64, 78
1, 85964, Note_off_c, 0, 51, 54
1, 85970, Control_c, 0, 64, 83
1, 85985, Control_c, 0, 64, 90
1, 85996, Note_on_c, 0, 52, 48
1, 86000, Control_c, 0, 64, 92
1, 86013, Note_on_c, 0, 71, 44
1, 86015, Control_c, 0, 64, 88
1, 86030, Control_c, 0, 64, 71
1, 86038, Note_off_c, 0, 52, 61
1, 86039, Note_off_c, 0, 71, 60
1, 86043, Note_off_c, 0, 76, 64
1, 86046, Control_c, 0, 64, 54
1, 86061, Control_c, 0, 64, 0
1, 86081, Note_on_c, 0, 72, 71
1, 86090, Note_on_c, 0, 40, 60
1, 86090, Note_on_c, 0, 69, 60
1, 86119, Control_c, 0, 64, 21
1, 86122, Note_off_c, 0, 40, 66
1, 86122, Note_off_c, 0, 72, 59
1, 86142, Control_c, 0, 64, 40
1, 86156, Control_c, 0, 64, 57
1, 86167, Note_on_c, 0, 52, 57
1, 86171, Control_c, 0, 64, 72
1, 86186, Control_c, 0, 64, 127
1, 86248, Note_off_c, 0, 52, 59
1, 86252, Note_on_c, 0, 51, 56
1, 86311, Note_off_c, 0, 51, 55
1, 86326, Note_on_c, 0, 52, 52
1, 86355, Note_on_c, 0, 80, 70
1, 86398, Note_off_c, 0, 52, 63
1, 86424, Note_on_c, 0, 81, 79
1, 86428, Note_on_c, 0, 51, 60
1, 86432, Note_off_c, 0, 80, 63
1, 86453, Note_off_c, 0, 69, 0
1, 86453, Note_on_c, 0, 69, 10
1, 86468, Note_off_c, 0, 51, 62
1, 86497, Note_on_c, 0, 52, 60
1, 86504, Note_off_c, 0, 81, 58
1, 86558, Note_off_c, 0, 52, 57
1, 86565, Note_on_c, 0, 51, 58
1, 86603, Note_off_c, 0, 69, 54
1, 86623, Note_off_c, 0, 51, 59
1, 86635, Note_on_c, 0, 52, 40
1, 86656, Note_on_c, 0, 76, 68
1, 86674, Note_off_c, 0, 76, 68
1, 86689, Control_c, 0, 64, 76
1, 86704, Control_c, 0, 64, 57
1, 86712, Note_off_c, 0, 52, 61
1, 86719, Control_c, 0, 64, 18
1, 86734, Control_c, 0, 64, 0
1, 86751, Note_on_c, 0, 74, 65
1, 86752, Note_on_c, 0, 40, 63
1, 86775, Note_on_c, 0, 66, 49
1, 86778, Control_c, 0, 64, 24
1, 86785, Note_off_c, 0, 40, 65
1, 86793, Control_c, 0, 64, 38
1, 86808, Control_c, 0, 64, 49
1, 86814, Note_off_c, 0, 66, 60
1, 86823, Control_c, 0, 64, 62
1, 86838, Control_c, 0, 64, 71
1, 86841, Note_on_c, 0, 52, 57
1, 86853, Control_c, 0, 64, 79
1, 86876, Control_c, 0, 64, 81
1, 86917, Note_off_c, 0, 52, 58
1, 86939, Note_on_c, 0, 51, 47
1, 86965, Control_c, 0, 64, 81
1, 86979, Control_c, 0, 64, 84
1, 86994, Control_c, 0, 64, 93
1, 86997, Note_off_c, 0, 51, 59
1, 87009, Control_c, 0, 64, 127
1, 87019, Note_on_c, 0, 52, 51
1, 87038, Note_on_c, 0, 72, 54
1, 87061, Note_off_c, 0, 52, 59
1, 87068, Control_c, 0, 64, 86
1, 87083, Control_c, 0, 64, 67
1, 87094, Note_on_c, 0, 71, 65
1, 87097, Control_c, 0, 64, 59
1, 87105, Note_on_c, 0, 51, 51
1, 87112, Control_c, 0, 64, 56
1, 87127, Control_c, 0, 64, 60
1, 87142, Control_c, 0, 64, 65
1, 87148, Note_off_c, 0, 51, 48
1, 87157, Control_c, 0, 64, 73
1, 87169, Note_off_c, 0, 72, 36
1, 87172, Control_c, 0, 64, 84
1, 87172, Note_on_c, 0, 52, 58
1, 87187, Control_c, 0, 64, 95
1, 87202, Control_c, 0, 64, 100
1, 87216, Control_c, 0, 64, 100
1, 87218, Note_off_c, 0, 52, 58
1, 87246, Control_c, 0, 64, 102
1, 87255, Note_on_c, 0, 51, 51
1, 87261, Control_c, 0, 64, 114
1, 87276, Control_c, 0, 64, 127
1, 87279, Note_off_c, 0, 71, 59
1, 87301, Note_off_c, 0, 51, 59
1, 87320, Note_off_c, 0, 74, 38
1, 87334, Note_on_c, 0, 52, 47
1, 87336, Note_on_c, 0, 69, 50
1, 87359, Note_off_c, 0, 69, 61
1, 87377, Note_off_c, 0, 52, 62
1, 87379, Control_c, 0, 64, 75
1, 87394, Control_c, 0, 64, 52
1, 87409, Control_c, 0, 64, 19
1, 87414, Note_on_c, 0, 71, 66
1, 87418, Note_on_c, 0, 40, 63
1, 87422, Note_on_c, 0, 68, 62
1, 87423, Control_c, 0, 64, 0
1, 87438, Control_c, 0, 64, 11
1, 87450, Note_off_c, 0, 40, 65
1, 87453, Control_c, 0, 64, 26
1, 87468, Control_c, 0, 64, 37
1, 87483, Control_c, 0, 64, 50
1, 87492, Note_on_c, 0, 52, 56
1, 87497, Control_c, 0, 64, 60
1, 87512, Control_c, 0, 64, 68
1, 87527, Control_c, 0, 64, 74
1, 87541, Control_c, 0, 64, 75
1, 87563, Note_off_c, 0, 52, 61
1, 87579, Note_on_c, 0, 51, 48
1, 87586, Control_c, 0, 64, 80
1, 87601, Control_c, 0, 64, 93
1, 87624, Control_c, 0, 64, 127
1, 87652, Note_off_c, 0, 71, 59
1, 87654, Note_off_c, 0, 51, 58
1, 87680, Note_on_c, 0, 52, 54
1, 87682, Note_on_c, 0, 76, 62
1, 87714, Control_c, 0, 64, 83
1, 87729, Note_off_c, 0, 52, 63
1, 87729, Control_c, 0, 64, 64
1, 87744, Control_c, 0, 64, 54
1, 87750, Note_on_c, 0, 77, 72
1, 87759, Control_c, 0, 64, 52
1, 87768, Note_off_c, 0, 76, 54
1, 87771, Note_on_c, 0, 51, 54
1, 87774, Control_c, 0, 64, 58
1, 87789, Note_off_c, 0, 68, 35
1, 87789, Control_c, 0, 64, 66
1, 87803, Control_c, 0, 64, 78
1, 87803, Control_c, 0, 67, 108
1, 87809, Note_off_c, 0, 51, 64
1, 87818, Control_c, 0, 64, 95
1, 87818, Control_c, 0, 67, 84
1, 87831, Note_on_c, 0, 52, 62
1, 87833, Control_c, 0, 64, 113
1, 87833, Control_c, 0, 67, 64
1, 87847, Control_c, 0, 64, 127
1, 87847, Control_c, 0, 67, 51
1, 87862, Control_c, 0, 67, 41
1, 87877, Control_c, 0, 67, 37
1, 87891, Note_off_c, 0, 52, 63
1, 87892, Note_off_c, 0, 77, 57
1, 87921, Note_on_c, 0, 51, 44
1, 87951, Control_c, 0, 67, 38
1, 87964, Note_off_c, 0, 51, 62
1, 87966, Control_c, 0, 67, 38
1, 87981, Control_c, 0, 67, 39
1, 87990, Note_on_c, 0, 52, 59
1, 87995, Control_c, 0, 67, 40
1, 88004, Note_on_c, 0, 74, 67
1, 88010, Control_c, 0, 67, 41
1, 88033, Note_off_c, 0, 74, 66
1, 88039, Note_off_c, 0, 52, 64
1, 88040, Control_c, 0, 67, 39
1, 88054, Control_c, 0, 64, 53
1, 88054, Control_c, 0, 67, 30
1, 88069, Control_c, 0, 64, 0
1, 88069, Control_c, 0, 67, 0
1, 88075, Note_on_c, 0, 73, 99
1, 88078, Note_on_c, 0, 69, 85
1, 88082, Note_on_c, 0, 45, 92
1, 88114, Control_c, 0, 64, 12
1, 88129, Control_c, 0, 64, 79
1, 88135, Note_off_c, 0, 45, 66
1, 88144, Control_c, 0, 64, 127
1, 88160, Note_on_c, 0, 57, 76
1, 88248, Note_off_c, 0, 57, 61
1, 88251, Note_on_c, 0, 56, 75
1, 88334, Note_on_c, 0, 57, 69
1, 88337, Note_off_c, 0, 56, 62
1, 88357, Note_off_c, 0, 73, 59
1, 88395, Note_off_c, 0, 69, 62
1, 88439, Note_off_c, 0, 57, 58
1, 88447, Note_on_c, 0, 81, 99
1, 88450, Note_on_c, 0, 73, 102
1, 88454, Note_on_c, 0, 56, 77
1, 88483, Note_off_c, 0, 73, 66
1, 88485, Note_off_c, 0, 81, 68
1, 88525, Note_off_c, 0, 56, 61
1, 88526, Note_on_c, 0, 57, 69
1, 88607, Note_off_c, 0, 57, 57
1, 88621, Note_on_c, 0, 56, 63
1, 88694, Note_off_c, 0, 56, 63
1, 88701, Note_on_c, 0, 57, 64
1, 88719, Note_on_c, 0, 73, 82
1, 88726, Note_on_c, 0, 81, 72
1, 88738, Note_off_c, 0, 73, 72
1, 88744, Control_c, 0, 64, 80
1, 88750, Note_off_c, 0, 81, 67
1, 88759, Control_c, 0, 64, 44
1, 88761, Note_off_c, 0, 57, 62
1, 88774, Control_c, 0, 64, 0
1, 88781, Note_on_c, 0, 73, 94
1, 88787, Note_on_c, 0, 81, 93
1, 88788, Note_on_c, 0, 45, 82
1, 88789, Control_c, 0, 64, 37
1, 88803, Control_c, 0, 64, 59
1, 88817, Note_off_c, 0, 73, 68
1, 88818, Control_c, 0, 64, 127
1, 88821, Note_off_c, 0, 81, 64
1, 88846, Note_off_c, 0, 45, 64
1, 88863, Note_on_c, 0, 57, 70
1, 88940, Note_on_c, 0, 56, 76
1, 88945, Note_off_c, 0, 57, 61
1, 89022, Note_on_c, 0, 57, 66
1, 89034, Note_off_c, 0, 56, 60
1, 89123, Note_off_c, 0, 57, 58
1, 89136, Note_on_c, 0, 73, 100
1, 89137, Note_on_c, 0, 81, 96
1, 89141, Note_on_c, 0, 56, 74
1, 89161, Note_off_c, 0, 73, 63
1, 89175, Note_off_c, 0, 81, 66
1, 89201, Note_off_c, 0, 56, 63
1, 89206, Note_on_c, 0, 57, 73
1, 89279, Note_off_c, 0, 57, 57
1, 89294, Note_on_c, 0, 56, 64
1, 89362, Note_off_c, 0, 56, 62
1, 89372, Note_on_c, 0, 57, 61
1, 89448, Note_off_c, 0, 57, 60
1, 89479, Control_c, 0, 64, 61
1, 89479, Note_on_c, 0, 82, 99
1, 89482, Note_on_c, 0, 81, 85
1, 89485, Note_on_c, 0, 74, 87
1, 89487, Note_on_c, 0, 45, 82
1, 89493, Control_c, 0, 64, 0
1, 89538, Control_c, 0, 64, 31
1, 89539, Note_off_c, 0, 45, 61
1, 89553, Control_c, 0, 64, 54
1, 89560, Note_on_c, 0, 57, 69
1, 89567, Control_c, 0, 64, 90
1, 89569, Note_off_c, 0, 81, 57
1, 89582, Control_c, 0, 64, 127
1, 89646, Note_on_c, 0, 56, 61
1, 89650, Note_off_c, 0, 57, 61
1, 89720, Note_off_c, 0, 56, 62
1, 89732, Note_on_c, 0, 57, 57
1, 89753, Note_off_c, 0, 82, 62
1, 89769, Note_on_c, 0, 81, 76
1, 89797, Note_off_c, 0, 57, 59
1, 89815, Note_on_c, 0, 56, 63
1, 89839, Note_on_c, 0, 79, 76
1, 89858, Note_off_c, 0, 56, 53
1, 89892, Note_on_c, 0, 57, 62
1, 89892, Note_off_c, 0, 81, 59
1, 89959, Note_off_c, 0, 57, 59
1, 89976, Note_on_c, 0, 56, 61
1, 90015, Note_off_c, 0, 74, 55
1, 90042, Note_off_c, 0, 56, 62
1, 90064, Note_on_c, 0, 57, 60
1, 90084, Note_off_c, 0, 79, 52
1, 90087, Note_on_c, 0, 78, 74
1, 90117, Note_off_c, 0, 78, 65
1, 90125, Note_off_c, 0, 57, 60
1, 90138, Control_c, 0, 64, 110
1, 90153, Control_c, 0, 64, 59
1, 90162, Note_on_c, 0, 45, 77
1, 90165, Note_on_c, 0, 79, 83
1, 90167, Control_c, 0, 64, 22
1, 90168, Note_on_c, 0, 76, 72
1, 90182, Control_c, 0, 64, 23
1, 90197, Control_c, 0, 64, 40
1, 90201, Note_off_c, 0, 45, 65
1, 90212, Control_c, 0, 64, 59
1, 90227, Control_c, 0, 64, 127
1, 90234, Note_off_c, 0, 79, 59
1, 90236, Note_on_c, 0, 57, 67
1, 90326, Note_on_c, 0, 56, 62
1, 90328, Note_off_c, 0, 57, 59
1, 90402, Note_on_c, 0, 57, 55
1, 90404, Note_off_c, 0, 56, 62
1, 90410, Note_on_c, 0, 85, 73
1, 90476, Note_on_c, 0, 86, 95
1, 90480, Note_off_c, 0, 57, 60
1, 90494, Note_on_c, 0, 56, 67
1, 90506, Note_off_c, 0, 85, 62
1, 90560, Note_off_c, 0, 56, 63
1, 90563, Note_on_c, 0, 57, 65
1, 90640, Note_on_c, 0, 56, 54
1, 90642, Note_off_c, 0, 57, 60
1, 90654, Note_off_c, 0, 76, 61
1, 90656, Note_off_c, 0, 86, 53
1, 90707, Note_off_c, 0, 56, 64
1, 90714, Note_on_c, 0, 57, 50
1, 90723, Note_on_c, 0, 82, 66
1, 90761, Note_off_c, 0, 82, 59
1, 90782, Control_c, 0, 64, 65
1, 90783, Note_off_c, 0, 57, 60
1, 90797, Control_c, 0, 64, 25
1, 90811, Control_c, 0, 64, 0
1, 90814, Note_on_c, 0, 81, 91
1, 90817, Note_on_c, 0, 73, 84
1, 90823, Note_on_c, 0, 45, 74
1, 90842, Control_c, 0, 64, 43
1, 90857, Control_c, 0, 64, 127
1, 90872, Note_off_c, 0, 45, 62
1, 90885, Note_off_c, 0, 73, 61
1, 90901, Note_on_c, 0, 57, 63
1, 90984, Note_on_c, 0, 56, 67
1, 90984, Note_off_c, 0, 57, 60
1, 91039, Note_off_c, 0, 56, 58
1, 91080, Note_on_c, 0, 57, 47
1, 91093, Note_on_c, 0, 79, 69
1, 91121, Note_off_c, 0, 57, 59
1, 91151, Note_on_c, 0, 56, 66
1, 91157, Note_on_c, 0, 77, 75
1, 91196, Note_off_c, 0, 56, 58
1, 91218, Note_on_c, 0, 57, 56
1, 91246, Note_off_c, 0, 79, 36
1, 91298, Note_off_c, 0, 57, 57
1, 91314, Note_on_c, 0, 56, 58
1, 91357, Note_off_c, 0, 56, 62
1, 91359, Note_off_c, 0, 77, 51
1, 91394, Note_on_c, 0, 57, 41
1, 91410, Note_on_c, 0, 76, 57
1, 91427, Note_off_c, 0, 81, 59
1, 91430, Note_off_c, 0, 76, 64
1, 91437, Note_off_c, 0, 57, 61
1, 91457, Control_c, 0, 64, 75
1, 91471, Control_c, 0, 64, 47
1, 91482, Note_on_c, 0, 77, 74
1, 91484, Note_on_c, 0, 45, 70
1, 91486, Control_c, 0, 64, 0
1, 91488, Note_on_c, 0, 74, 74
1, 91501, Control_c, 0, 64, 24
1, 91516, Control_c, 0, 64, 50
1, 91521, Note_off_c, 0, 45, 66
1, 91531, Control_c, 0, 64, 101
1, 91545, Control_c, 0, 64, 127
1, 91546, Note_off_c, 0, 77, 60
1, 91556, Note_on_c, 0, 57, 62
1, 91640, Note_off_c, 0, 57, 60
1, 91643, Note_on_c, 0, 56, 70
1, 91715, Note_off_c, 0, 56, 63
1, 91723, Note_on_c, 0, 57, 69
1, 91745, Note_on_c, 0, 85, 81
1, 91797, Note_off_c, 0, 57, 60
1, 91806, Note_on_c, 0, 56, 72
1, 91810, Note_on_c, 0, 86, 89
1, 91827, Note_off_c, 0, 85, 67
1, 91878, Note_on_c, 0, 57, 70
1, 91878, Note_off_c, 0, 56, 63
1, 91914, Note_off_c, 0, 86, 54
1, 91951, Note_off_c, 0, 57, 59
1, 91953, Note_on_c, 0, 56, 64
1, 92022, Note_off_c, 0, 56, 64
1, 92025, Note_off_c, 0, 74, 59
1, 92031, Note_on_c, 0, 57, 64
1, 92043, Note_on_c, 0, 81, 73
1, 92066, Note_off_c, 0, 81, 70
1, 92092, Note_off_c, 0, 57, 61
1, 92094, Control_c, 0, 64, 84
1, 92116, Control_c, 0, 64, 51
1, 92130, Note_on_c, 0, 79, 87
1, 92131, Control_c, 0, 64, 0
1, 92136, Note_on_c, 0, 71, 82
1, 92141, Note_on_c, 0, 45, 74
1, 92160, Control_c, 0, 64, 24
1, 92175, Control_c, 0, 64, 65
1, 92190, Control_c, 0, 64, 127
1, 92192, Note_off_c, 0, 45, 61
1, 92218, Note_on_c, 0, 57, 65
1, 92300, Note_off_c, 0, 57, 60
1, 92306, Note_on_c, 0, 56, 68
1, 92372, Note_off_c, 0, 56, 63
1, 92401, Note_on_c, 0, 57, 58
1, 92405, Note_on_c, 0, 77, 72
1, 92429, Note_off_c, 0, 79, 53
1, 92453, Note_off_c, 0, 57, 55
1, 92478, Note_on_c, 0, 56, 62
1, 92484, Note_on_c, 0, 76, 81
1, 92535, Note_off_c, 0, 56, 59
1, 92537, Note_off_c, 0, 77, 56
1, 92555, Note_on_c, 0, 57, 63
1, 92621, Note_off_c, 0, 57, 59
1, 92639, Note_on_c, 0, 56, 60
1, 92657, Note_off_c, 0, 71, 55
1, 92664, Note_off_c, 0, 76, 59
1, 92686, Note_off_c, 0, 56, 61
1, 92712, Note_on_c, 0, 74, 62
1, 92721, Note_on_c, 0, 57, 58
1, 92731, Note_off_c, 0, 74, 69
1, 92752, Note_off_c, 0, 57, 61
1, 92768, Control_c, 0, 64, 78
1, 92783, Control_c, 0, 64, 51
1, 92798, Control_c, 0, 64, 0
1, 92805, Note_on_c, 0, 76, 69
1, 92807, Note_on_c, 0, 45, 64
1, 92815, Note_on_c, 0, 73, 64
1, 92828, Control_c, 0, 64, 28
1, 92842, Control_c, 0, 64, 53
1, 92847, Note_off_c, 0, 45, 64
1, 92865, Control_c, 0, 64, 74
1, 92880, Control_c, 0, 64, 127
1, 92895, Note_on_c, 0, 57, 62
1, 92964, Note_off_c, 0, 57, 61
1, 92982, Note_on_c, 0, 56, 61
1, 92996, Note_off_c, 0, 73, 52
1, 93037, Note_off_c, 0, 76, 65
1, 93038, Note_off_c, 0, 56, 62
1, 93042, Note_on_c, 0, 81, 81
1, 93062, Note_on_c, 0, 57, 71
1, 93114, Note_on_c, 0, 82, 96
1, 93144, Note_off_c, 0, 57, 60
1, 93145, Note_on_c, 0, 56, 76
1, 93161, Note_off_c, 0, 81, 56
1, 93208, Note_off_c, 0, 56, 64
1, 93213, Note_on_c, 0, 57, 77
1, 93263, Note_off_c, 0, 82, 62
1, 93280, Note_on_c, 0, 56, 77
1, 93283, Note_off_c, 0, 57, 62
1, 93345, Note_on_c, 0, 79, 80
1, 93351, Note_off_c, 0, 56, 63
1, 93351, Note_on_c, 0, 57, 69
1, 93397, Note_off_c, 0, 57, 59
1, 93414, Control_c, 0, 64, 105
1, 93421, Note_off_c, 0, 79, 45
1, 93429, Control_c, 0, 64, 65
1, 93429, Note_on_c, 0, 77, 89
1, 93431, Note_on_c, 0, 74, 80
1, 93441, Note_on_c, 0, 50, 71
1, 93444, Control_c, 0, 64, 45
1, 93458, Control_c, 0, 64, 0
1, 93503, Control_c, 0, 64, 16
1, 93516, Note_on_c, 0, 53, 75
1, 93516, Note_off_c, 0, 50, 61
1, 93518, Control_c, 0, 64, 37
1, 93532, Control_c, 0, 64, 51
1, 93547, Control_c, 0, 64, 65
1, 93562, Control_c, 0, 64, 102
1, 93577, Control_c, 0, 64, 127
1, 93599, Note_on_c, 0, 57, 82
1, 93620, Note_off_c, 0, 53, 65
1, 93663, Note_off_c, 0, 57, 59
1, 93676, Note_on_c, 0, 62, 81
1, 93766, Note_off_c, 0, 62, 58
1, 93766, Note_on_c, 0, 65, 91
1, 93845, Note_on_c, 0, 64, 84
1, 93849, Note_off_c, 0, 65, 65
1, 93858, Note_off_c, 0, 74, 50
1, 93865, Control_c, 0, 64, 105
1, 93880, Control_c, 0, 64, 79
1, 93888, Note_off_c, 0, 77, 59
1, 93895, Control_c, 0, 64, 64
1, 93909, Control_c, 0, 64, 52
1, 93914, Note_off_c, 0, 64, 62
1, 93920, Note_on_c, 0, 62, 87
1, 93924, Control_c, 0, 64, 31
1, 93939, Control_c, 0, 64, 0
1, 93996, Note_on_c, 0, 74, 72
1, 93996, Note_on_c, 0, 77, 88
1, 94001, Note_on_c, 0, 60, 81
1, 94005, Note_off_c, 0, 62, 60
1, 94017, Note_off_c, 0, 74, 73
1, 94019, Note_off_c, 0, 77, 67
1, 94072, Note_off_c, 0, 60, 62
1, 94074, Control_c, 0, 64, 40
1, 94079, Note_on_c, 0, 59, 75
1, 94081, Note_on_c, 0, 77, 100
1, 94081, Note_on_c, 0, 86, 95
1, 94088, Control_c, 0, 64, 73
1, 94102, Note_off_c, 0, 77, 68
1, 94103, Control_c, 0, 64, 127
1, 94115, Note_off_c, 0, 86, 65
1, 94158, Note_off_c, 0, 59, 63
1, 94164, Note_on_c, 0, 60, 79
1, 94228, Note_off_c, 0, 60, 62
1, 94240, Note_on_c, 0, 62, 77
1, 94311, Note_off_c, 0, 62, 61
1, 94322, Note_on_c, 0, 60, 73
1, 94389, Note_off_c, 0, 60, 56
1, 94407, Control_c, 0, 64, 69
1, 94416, Note_on_c, 0, 59, 71
1, 94417, Note_on_c, 0, 77, 85
1, 94419, Note_on_c, 0, 74, 73
1, 94421, Control_c, 0, 64, 34
1, 94436, Control_c, 0, 64, 0
1, 94445, Note_off_c, 0, 74, 65
1, 94457, Note_off_c, 0, 77, 64
1, 94460, Note_off_c, 0, 59, 46
1, 94470, Note_on_c, 0, 79, 74
1, 94487, Note_on_c, 0, 55, 66
1, 94514, Note_on_c, 0, 77, 79
1, 94544, Note_off_c, 0, 79, 60
1, 94565, Note_off_c, 0, 55, 65
1, 94566, Note_on_c, 0, 57, 69
1, 94576, Note_off_c, 0, 77, 64
1, 94580, Note_on_c, 0, 76, 73
1, 94628, Note_off_c, 0, 76, 44
1, 94642, Note_off_c, 0, 57, 62
1, 94644, Note_on_c, 0, 59, 70
1, 94645, Note_on_c, 0, 77, 88
1, 94702, Note_off_c, 0, 77, 55
1, 94702, Note_off_c, 0, 59, 61
1, 94724, Note_on_c, 0, 76, 87
1, 94725, Note_on_c, 0, 60, 72
1, 94730, Note_on_c, 0, 72, 77
1, 94782, Note_off_c, 0, 60, 60
1, 94791, Note_on_c, 0, 59, 68
1, 94885, Note_on_c, 0, 60, 82
1, 94891, Note_off_c, 0, 59, 62
1, 94958, Note_off_c, 0, 60, 66
1, 94959, Note_on_c, 0, 62, 87
1, 95035, Note_off_c, 0, 62, 61
1, 95042, Note_on_c, 0, 64, 84
1, 95109, Note_off_c, 0, 64, 59
1, 95128, Note_on_c, 0, 62, 84
1, 95158, Note_off_c, 0, 76, 61
1, 95161, Note_off_c, 0, 72, 46
1, 95191, Note_off_c, 0, 62, 55
1, 95207, Note_on_c, 0, 60, 84
1, 95277, Note_off_c, 0, 60, 62
1, 95281, Note_on_c, 0, 59, 75
1, 95291, Note_on_c, 0, 72, 63
1, 95293, Note_on_c, 0, 76, 76
1, 95313, Note_off_c, 0, 76, 72
1, 95318, Note_off_c, 0, 72, 66
1, 95351, Note_off_c, 0, 59, 44
1, 95363, Control_c, 0, 64, 51
1, 95366, Note_on_c, 0, 84, 96
1, 95366, Note_on_c, 0, 76, 102
1, 95369, Note_on_c, 0, 57, 76
1, 95378, Control_c, 0, 64, 72
1, 95387, Note_off_c, 0, 76, 70
1, 95393, Control_c, 0, 64, 127
1, 95401, Note_off_c, 0, 84, 65
1, 95453, Note_on_c, 0, 59, 76
1, 95453, Note_off_c, 0, 57, 60
1, 95522, Note_off_c, 0, 59, 63
1, 95533, Note_on_c, 0, 60, 76
1, 95596, Note_off_c, 0, 60, 61
1, 95620, Note_on_c, 0, 59, 72
1, 95676, Control_c, 0, 64, 91
1, 95678, Note_off_c, 0, 59, 58
1, 95691, Control_c, 0, 64, 54
1, 95696, Note_on_c, 0, 76, 81
1, 95700, Note_on_c, 0, 72, 69
1, 95705, Note_on_c, 0, 57, 72
1, 95706, Control_c, 0, 64, 0
1, 95718, Note_off_c, 0, 72, 67
1, 95733, Note_off_c, 0, 76, 68
1, 95746, Note_off_c, 0, 57, 45
1, 95748, Note_on_c, 0, 77, 80
1, 95768, Note_on_c, 0, 53, 67
1, 95793, Note_on_c, 0, 76, 69
1, 95819, Note_off_c, 0, 77, 60
1, 95846, Note_off_c, 0, 53, 65
1, 95847, Note_off_c, 0, 76, 66
1, 95850, Note_on_c, 0, 55, 69
1, 95853, Note_on_c, 0, 74, 68
1, 95894, Note_off_c, 0, 74, 54
1, 95926, Note_on_c, 0, 76, 79
1, 95930, Note_off_c, 0, 55, 65
1, 95932, Note_on_c, 0, 57, 68
1, 95986, Note_off_c, 0, 76, 62
1, 95991, Note_off_c, 0, 57, 61
1, 96007, Note_on_c, 0, 59, 71
1, 96007, Note_on_c, 0, 74, 77
1, 96022, Note_on_c, 0, 71, 64
1, 96065, Note_off_c, 0, 59, 57
1, 96075, Note_on_c, 0, 57, 71
1, 96162, Note_on_c, 0, 59, 78
1, 96175, Note_off_c, 0, 57, 59
1, 96241, Note_on_c, 0, 60, 86
1, 96244, Note_off_c, 0, 59, 64
1, 96320, Note_off_c, 0, 60, 65
1, 96323, Note_on_c, 0, 62, 86
1, 96395, Note_off_c, 0, 62, 52
1, 96404, Note_on_c, 0, 60, 84
1, 96424, Note_off_c, 0, 71, 22
1, 96452, Note_off_c, 0, 74, 62
1, 96463, Note_off_c, 0, 60, 60
1, 96485, Note_on_c, 0, 59, 82
1, 96552, Note_off_c, 0, 59, 60
1, 96557, Note_on_c, 0, 57, 75
1, 96569, Note_on_c, 0, 74, 73
1, 96571, Note_on_c, 0, 71, 62
1, 96590, Note_off_c, 0, 74, 72
1, 96591, Note_off_c, 0, 71, 68
1, 96626, Note_off_c, 0, 57, 51
1, 96639, Control_c, 0, 64, 23
1, 96649, Note_on_c, 0, 56, 74
1, 96654, Note_on_c, 0, 74, 96
1, 96654, Note_on_c, 0, 83, 94
1, 96654, Control_c, 0, 64, 58
1, 96669, Control_c, 0, 64, 127
1, 96676, Note_off_c, 0, 74, 68
1, 96687, Note_off_c, 0, 83, 68
1, 96737, Note_on_c, 0, 57, 65
1, 96742, Note_off_c, 0, 56, 60
1, 96793, Note_off_c, 0, 57, 62
1, 96802, Note_on_c, 0, 59, 68
1, 96873, Note_off_c, 0, 59, 60
1, 96887, Note_on_c, 0, 57, 64
1, 96956, Note_off_c, 0, 57, 60
1, 96964, Control_c, 0, 64, 65
1, 96967, Note_on_c, 0, 56, 67
1, 96979, Control_c, 0, 64, 0
1, 96982, Note_on_c, 0, 74, 81
1, 96998, Note_on_c, 0, 71, 50
1, 97014, Note_off_c, 0, 56, 66
1, 97019, Note_off_c, 0, 71, 62
1, 97026, Note_off_c, 0, 74, 62
1, 97042, Note_on_c, 0, 76, 71
1, 97047, Note_on_c, 0, 52, 62
1, 97075, Note_on_c, 0, 74, 60
1, 97103, Note_off_c, 0, 76, 64
1, 97107, Note_off_c, 0, 52, 65
1, 97122, Note_on_c, 0, 54, 62
1, 97141, Note_off_c, 0, 74, 66
1, 97146, Note_on_c, 0, 72, 64
1, 97199, Note_on_c, 0, 56, 63
1, 97202, Note_off_c, 0, 54, 61
1, 97207, Note_off_c, 0, 72, 62
1, 97213, Note_on_c, 0, 74, 75
1, 97256, Note_off_c, 0, 56, 57
1, 97280, Note_on_c, 0, 57, 78
1, 97285, Note_off_c, 0, 74, 64
1, 97289, Note_on_c, 0, 72, 73
1, 97292, Control_c, 0, 64, 48
1, 97301, Note_off_c, 0, 57, 67
1, 97306, Control_c, 0, 64, 70
1, 97321, Control_c, 0, 64, 127
1, 97358, Note_off_c, 0, 72, 62
1, 97378, Note_on_c, 0, 69, 73
1, 97445, Note_off_c, 0, 69, 63
1, 97470, Note_on_c, 0, 72, 60
1, 97510, Note_off_c, 0, 72, 59
1, 97527, Note_on_c, 0, 76, 71
1, 97574, Note_off_c, 0, 76, 67
1, 97610, Control_c, 0, 64, 71
1, 97617, Note_on_c, 0, 55, 69
1, 97620, Note_on_c, 0, 43, 62
1, 97623, Note_on_c, 0, 64, 69
1, 97625, Control_c, 0, 64, 51
1, 97639, Control_c, 0, 64, 33
1, 97654, Control_c, 0, 64, 36
1, 97669, Control_c, 0, 64, 50
1, 97684, Control_c, 0, 64, 66
1, 97691, Note_on_c, 0, 67, 75
1, 97698, Control_c, 0, 64, 127
1, 97714, Note_off_c, 0, 64, 56
1, 97772, Note_on_c, 0, 71, 72
1, 97781, Note_off_c, 0, 67, 64
1, 97828, Note_off_c, 0, 55, 62
1, 97837, Note_off_c, 0, 43, 59
1, 97857, Note_on_c, 0, 76, 82
1, 97864, Note_off_c, 0, 71, 65
1, 97921, Control_c, 0, 64, 72
1, 97930, Note_on_c, 0, 64, 98
1, 97934, Note_on_c, 0, 54, 91
1, 97936, Control_c, 0, 64, 34
1, 97938, Note_on_c, 0, 42, 83
1, 97950, Control_c, 0, 64, 0
1, 97965, Note_off_c, 0, 76, 59
1, 97995, Control_c, 0, 64, 43
1, 98009, Note_on_c, 0, 69, 76
1, 98010, Control_c, 0, 64, 64
1, 98025, Control_c, 0, 64, 127
1, 98076, Note_off_c, 0, 64, 59
1, 98090, Note_on_c, 0, 72, 74
1, 98137, Note_off_c, 0, 69, 60
1, 98166, Note_off_c, 0, 54, 62
1, 98181, Note_on_c, 0, 76, 73
1, 98184, Note_off_c, 0, 72, 62
1, 98198, Note_off_c, 0, 42, 60
1, 98237, Note_off_c, 0, 76, 61
1, 98241, Control_c, 0, 64, 107
1, 98255, Control_c, 0, 64, 52
1, 98270, Control_c, 0, 64, 0
1, 98274, Note_on_c, 0, 63, 97
1, 98278, Note_on_c, 0, 53, 90
1, 98283, Note_on_c, 0, 41, 81
1, 98315, Control_c, 0, 64, 22
1, 98329, Control_c, 0, 64, 46
1, 98340, Note_on_c, 0, 69, 68
1, 98344, Control_c, 0, 64, 62
1, 98359, Control_c, 0, 64, 95
1, 98374, Control_c, 0, 64, 127
1, 98388, Note_off_c, 0, 63, 59
1, 98411, Note_on_c, 0, 72, 69
1, 98443, Note_off_c, 0, 69, 64
1, 98501, Note_off_c, 0, 72, 62
1, 98507, Note_on_c, 0, 75, 65
1, 98507, Note_off_c, 0, 53, 59
1, 98521, Note_off_c, 0, 41, 60
1, 98538, Note_off_c, 0, 75, 62
1, 98581, Control_c, 0, 64, 63
1, 98596, Control_c, 0, 64, 28
1, 98611, Control_c, 0, 64, 0
1, 98623, Note_on_c, 0, 52, 77
1, 98626, Note_on_c, 0, 76, 82
1, 98628, Note_on_c, 0, 40, 69
1, 98641, Control_c, 0, 64, 29
1, 98655, Control_c, 0, 64, 50
1, 98670, Control_c, 0, 64, 79
1, 98685, Control_c, 0, 64, 127
1, 98689, Note_off_c, 0, 76, 57
1, 98707, Note_off_c, 0, 40, 56
1, 98708, Note_on_c, 0, 64, 74
1, 98781, Note_on_c, 0, 68, 74
1, 98794, Note_off_c, 0, 64, 60
1, 98869, Note_on_c, 0, 71, 72
1, 98881, Note_off_c, 0, 68, 59
1, 98901, Control_c, 0, 64, 54
1, 98916, Control_c, 0, 64, 0
1, 98919, Note_off_c, 0, 52, 67
1, 98939, Note_off_c, 0, 71, 66
1, 98943, Note_on_c, 0, 76, 89
1, 99012, Note_off_c, 0, 76, 66
1, 99018, Note_on_c, 0, 68, 75
1, 99063, Note_off_c, 0, 68, 61
1, 99099, Note_on_c, 0, 71, 69
1, 99153, Note_off_c, 0, 71, 61
1, 99155, Note_on_c, 0, 52, 63
1, 99167, Control_c, 0, 64, 14
1, 99182, Note_on_c, 0, 76, 68
1, 99182, Control_c, 0, 64, 29
1, 99197, Control_c, 0, 64, 42
1, 99212, Control_c, 0, 64, 56
1, 99227, Control_c, 0, 64, 71
1, 99238, Note_off_c, 0, 76, 63
1, 99238, Note_on_c, 0, 64, 83
1, 99241, Note_on_c, 0, 80, 78
1, 99241, Control_c, 0, 64, 127
1, 99242, Note_off_c, 0, 52, 64
1, 99259, Note_off_c, 0, 64, 70
1, 99307, Note_off_c, 0, 80, 59
1, 99315, Note_on_c, 0, 71, 67
1, 99370, Note_off_c, 0, 71, 61
1, 99384, Note_on_c, 0, 76, 73
1, 99431, Note_off_c, 0, 76, 63
1, 99468, Note_on_c, 0, 80, 67
1, 99493, Control_c, 0, 64, 78
1, 99508, Control_c, 0, 64, 57
1, 99522, Control_c, 0, 64, 33
1, 99525, Note_on_c, 0, 56, 69
1, 99531, Note_off_c, 0, 80, 61
1, 99537, Control_c, 0, 64, 0
1, 99546, Note_on_c, 0, 83, 64
1, 99552, Control_c, 0, 64, 10
1, 99557, Note_off_c, 0, 56, 67
1, 99567, Control_c, 0, 64, 16
1, 99583, Note_on_c, 0, 57, 65
1, 99604, Note_on_c, 0, 80, 62
1, 99614, Note_off_c, 0, 83, 62
1, 99619, Control_c, 0, 64, 12
1, 99625, Note_off_c, 0, 57, 61
1, 99635, Control_c, 0, 64, 0
1, 99687, Note_on_c, 0, 76, 67
1, 99688, Note_on_c, 0, 54, 62
1, 99697, Note_off_c, 0, 80, 63
1, 99724, Note_off_c, 0, 54, 67
1, 99736, Note_off_c, 0, 76, 68
1, 99753, Note_on_c, 0, 56, 61
1, 99757, Note_on_c, 0, 74, 65
1, 99785, Note_off_c, 0, 74, 68
1, 99797, Note_off_c, 0, 56, 64
1, 99841, Note_on_c, 0, 72, 76
1, 99842, Control_c, 0, 64, 17
1, 99845, Note_on_c, 0, 57, 63
1, 99857, Control_c, 0, 64, 24
1, 99872, Control_c, 0, 64, 29
1, 99885, Note_off_c, 0, 72, 62
1, 99887, Control_c, 0, 64, 31
1, 99901, Control_c, 0, 64, 32
1, 99916, Note_on_c, 0, 69, 76
1, 99931, Control_c, 0, 64, 31
1, 99988, Note_off_c, 0, 69, 63
1, 99990, Note_on_c, 0, 72, 81
1, 100049, Control_c, 0, 64, 32
1, 100069, Note_on_c, 0, 76, 80
1, 100076, Note_off_c, 0, 72, 62
1, 100079, Control_c, 0, 64, 31
1, 100094, Control_c, 0, 64, 21
1, 100109, Control_c, 0, 64, 0
1, 100142, Note_off_c, 0, 57, 59
1, 100145, Note_off_c, 0, 76, 66
1, 100151, Note_on_c, 0, 81, 87
1, 100228, Note_off_c, 0, 81, 60
1, 100237, Note_on_c, 0, 72, 74
1, 100310, Note_on_c, 0, 76, 77
1, 100310, Note_off_c, 0, 72, 62
1, 100371, Note_off_c, 0, 76, 64
1, 100383, Note_on_c, 0, 81, 75
1, 100387, Note_on_c, 0, 45, 66
1, 100428, Control_c, 0, 64, 38
1, 100439, Note_off_c, 0, 81, 56
1, 100443, Control_c, 0, 64, 56
1, 100446, Note_off_c, 0, 45, 63
1, 100457, Control_c, 0, 64, 77
1, 100461, Note_on_c, 0, 57, 79
1, 100466, Note_on_c, 0, 84, 86
1, 100472, Control_c, 0, 64, 127
1, 100482, Note_off_c, 0, 57, 70
1, 100540, Note_off_c, 0, 84, 61
1, 100544, Note_on_c, 0, 81, 79
1, 100625, Note_on_c, 0, 76, 71
1, 100660, Note_off_c, 0, 81, 60
1, 100676, Note_off_c, 0, 76, 66
1, 100705, Note_on_c, 0, 72, 64
1, 100723, Control_c, 0, 64, 93
1, 100738, Control_c, 0, 64, 63
1, 100741, Note_off_c, 0, 72, 58
1, 100753, Control_c, 0, 64, 46
1, 100766, Note_on_c, 0, 51, 73
1, 100768, Control_c, 0, 64, 38
1, 100777, Note_on_c, 0, 81, 76
1, 100783, Control_c, 0, 64, 47
1, 100797, Control_c, 0, 64, 58
1, 100812, Control_c, 0, 64, 69
1, 100827, Note_on_c, 0, 52, 71
1, 100827, Control_c, 0, 64, 92
1, 100842, Note_on_c, 0, 78, 78
1, 100842, Note_off_c, 0, 81, 60
1, 100842, Control_c, 0, 64, 127
1, 100851, Note_off_c, 0, 51, 54
1, 100887, Note_off_c, 0, 52, 65
1, 100889, Note_on_c, 0, 49, 69
1, 100928, Note_on_c, 0, 72, 69
1, 100942, Note_off_c, 0, 78, 65
1, 100973, Note_on_c, 0, 51, 74
1, 100973, Note_off_c, 0, 49, 62
1, 100978, Note_off_c, 0, 72, 61
1, 100996, Note_on_c, 0, 69, 72
1, 101029, Note_off_c, 0, 69, 63
1, 101035, Control_c, 0, 64, 68
1, 101045, Note_off_c, 0, 51, 57
1, 101049, Control_c, 0, 64, 37
1, 101064, Control_c, 0, 64, 0
1, 101070, Note_on_c, 0, 52, 84
1, 101076, Note_on_c, 0, 76, 92
1, 101101, Control_c, 0, 64, 8
1, 101116, Control_c, 0, 64, 36
1, 101131, Control_c, 0, 64, 52
1, 101133, Note_off_c, 0, 76, 66
1, 101146, Control_c, 0, 64, 71
1, 101155, Note_on_c, 0, 64, 81
1, 101161, Control_c, 0, 64, 127
1, 101241, Note_on_c, 0, 68, 81
1, 101254, Note_off_c, 0, 64, 60
1, 101322, Note_on_c, 0, 71, 76
1, 101328, Note_off_c, 0, 68, 59
1, 101369, Control_c, 0, 64, 69
1, 101384, Control_c, 0, 64, 36
1, 101385, Note_off_c, 0, 52, 67
1, 101396, Note_off_c, 0, 71, 67
1, 101397, Note_on_c, 0, 76, 91
1, 101398, Control_c, 0, 64, 0
1, 101482, Note_off_c, 0, 76, 64
1, 101486, Note_on_c, 0, 68, 79
1, 101535, Note_off_c, 0, 68, 59
1, 101554, Note_on_c, 0, 71, 79
1, 101629, Note_on_c, 0, 52, 74
1, 101629, Note_off_c, 0, 71, 59
1, 101638, Note_on_c, 0, 76, 78
1, 101650, Control_c, 0, 64, 38
1, 101665, Control_c, 0, 64, 59
1, 101680, Control_c, 0, 64, 105
1, 101695, Control_c, 0, 64, 127
1, 101706, Note_on_c, 0, 80, 87
1, 101709, Note_off_c, 0, 76, 65
1, 101713, Note_on_c, 0, 64, 95
1, 101725, Note_off_c, 0, 52, 61
1, 101751, Note_off_c, 0, 64, 66
1, 101787, Note_off_c, 0, 80, 60
1, 101789, Note_on_c, 0, 71, 74
1, 101868, Note_off_c, 0, 71, 58
1, 101877, Note_on_c, 0, 76, 80
1, 101931, Note_off_c, 0, 76, 61
1, 101960, Note_on_c, 0, 80, 80
1, 101984, Control_c, 0, 64, 69
1, 101999, Control_c, 0, 64, 54
1, 102007, Note_on_c, 0, 56, 75
1, 102014, Control_c, 0, 64, 42
1, 102026, Note_off_c, 0, 80, 63
1, 102029, Control_c, 0, 64, 47
1, 102033, Note_on_c, 0, 83, 77
1, 102044, Control_c, 0, 64, 58
1, 102049, Note_off_c, 0, 56, 65
1, 102059, Control_c, 0, 64, 69
1, 102065, Note_on_c, 0, 57, 70
1, 102074, Control_c, 0, 64, 100
1, 102089, Control_c, 0, 64, 127
1, 102099, Note_on_c, 0, 80, 80
1, 102110, Note_off_c, 0, 83, 60
1, 102118, Note_off_c, 0, 57, 61
1, 102157, Note_on_c, 0, 54, 72
1, 102176, Note_on_c, 0, 76, 78
1, 102201, Note_off_c, 0, 80, 64
1, 102216, Poly_aftertouch_c, 0, 56, 0
1, 102230, Note_on_c, 0, 56, 61
1, 102230, Note_off_c, 0, 54, 63
1, 102231, Note_off_c, 0, 76, 66
1, 102246, Note_on_c, 0, 74, 79
1, 102267, Control_c, 0, 64, 76
1, 102281, Note_off_c, 0, 74, 64
1, 102282, Control_c, 0, 64, 50
1, 102296, Control_c, 0, 64, 0
1, 102309, Note_off_c, 0, 56, 61
1, 102316, Note_on_c, 0, 57, 79
1, 102323, Note_on_c, 0, 72, 86
1, 102375, Note_off_c, 0, 72, 65
1, 102399, Note_on_c, 0, 69, 81
1, 102475, Note_on_c, 0, 72, 86
1, 102482, Note_off_c, 0, 69, 64
1, 102555, Note_on_c, 0, 76, 82
1, 102560, Note_off_c, 0, 72, 62
1, 102629, Control_c, 0, 64, 11
1, 102640, Note_off_c, 0, 76, 66
1, 102641, Note_on_c, 0, 81, 90
1, 102644, Control_c, 0, 64, 0
1, 102679, Note_off_c, 0, 57, 54
1, 102722, Note_off_c, 0, 81, 61
1, 102726, Note_on_c, 0, 72, 79
1, 102798, Note_on_c, 0, 76, 82
1, 102803, Note_off_c, 0, 72, 63
1, 102860, Note_on_c, 0, 81, 78
1, 102860, Note_off_c, 0, 76, 67
1, 102889, Note_on_c, 0, 45, 79
1, 102926, Control_c, 0, 64, 45
1, 102935, Note_off_c, 0, 81, 58
1, 102941, Control_c, 0, 64, 74
1, 102942, Note_on_c, 0, 84, 89
1, 102950, Note_on_c, 0, 57, 95
1, 102956, Control_c, 0, 64, 127
1, 102957, Note_off_c, 0, 45, 63
1, 102987, Note_off_c, 0, 57, 67
1, 103019, Note_off_c, 0, 84, 58
1, 103027, Note_on_c, 0, 81, 83
1, 103107, Note_on_c, 0, 76, 77
1, 103141, Note_off_c, 0, 81, 62
1, 103161, Note_off_c, 0, 76, 63
1, 103187, Note_on_c, 0, 72, 68
1, 103217, Note_off_c, 0, 72, 62
1, 103223, Control_c, 0, 64, 89
1, 103237, Control_c, 0, 64, 60
1, 103252, Control_c, 0, 64, 35
1, 103253, Note_on_c, 0, 51, 77
1, 103263, Note_on_c, 0, 81, 81
1, 103267, Control_c, 0, 64, 31
1, 103282, Control_c, 0, 64, 42
1, 103296, Control_c, 0, 64, 54
1, 103304, Note_on_c, 0, 52, 73
1, 103311, Control_c, 0, 64, 68
1, 103326, Control_c, 0, 64, 102
1, 103327, Note_on_c, 0, 78, 83
1, 103335, Note_off_c, 0, 81, 57
1, 103349, Control_c, 0, 64, 127
1, 103370, Note_off_c, 0, 52, 65
1, 103372, Note_off_c, 0, 51, 61
1, 103380, Note_on_c, 0, 49, 70
1, 103417, Note_on_c, 0, 72, 67
1, 103429, Note_off_c, 0, 78, 64
1, 103447, Note_off_c, 0, 49, 64
1, 103471, Note_off_c, 0, 72, 62
1, 103471, Note_on_c, 0, 51, 76
1, 103481, Note_on_c, 0, 69, 72
1, 103511, Control_c, 0, 64, 61
1, 103526, Control_c, 0, 64, 20
1, 103537, Note_off_c, 0, 51, 60
1, 103540, Note_on_c, 0, 52, 90
1, 103541, Control_c, 0, 64, 0
1, 103556, Control_c, 0, 64, 48
1, 103561, Note_on_c, 0, 68, 87
1, 103561, Note_off_c, 0, 69, 39
1, 103565, Note_off_c, 0, 52, 70
1, 103570, Control_c, 0, 64, 81
1, 103585, Control_c, 0, 64, 127
1, 103631, Note_on_c, 0, 71, 76
1, 103631, Control_c, 0, 64, 100
1, 103635, Note_off_c, 0, 68, 59
1, 103646, Control_c, 0, 64, 52
1, 103661, Control_c, 0, 64, 0
1, 103709, Note_off_c, 0, 71, 66
1, 103713, Note_on_c, 0, 76, 76
1, 103791, Note_on_c, 0, 68, 76
1, 103808, Note_off_c, 0, 76, 61
1, 103856, Note_off_c, 0, 68, 59
1, 103865, Note_on_c, 0, 69, 79
1, 103866, Note_on_c, 0, 53, 94
1, 103868, Control_c, 0, 64, 52
1, 103871, Note_on_c, 0, 41, 89
1, 103883, Control_c, 0, 64, 127
1, 103892, Note_off_c, 0, 53, 68
1, 103895, Note_off_c, 0, 41, 70
1, 103934, Note_off_c, 0, 69, 65
1, 103941, Note_on_c, 0, 71, 72
1, 104028, Note_on_c, 0, 75, 70
1, 104028, Note_off_c, 0, 71, 65
1, 104106, Note_off_c, 0, 75, 60
1, 104113, Note_on_c, 0, 69, 70
1, 104171, Control_c, 0, 64, 60
1, 104186, Note_on_c, 0, 68, 85
1, 104186, Control_c, 0, 64, 0
1, 104190, Note_on_c, 0, 52, 95
1, 104194, Note_on_c, 0, 40, 90
1, 104194, Note_off_c, 0, 69, 57
1, 104222, Note_off_c, 0, 52, 71
1, 104226, Note_off_c, 0, 40, 68
1, 104230, Control_c, 0, 64, 43
1, 104244, Control_c, 0, 64, 64
1, 104258, Note_on_c, 0, 71, 75
1, 104259, Control_c, 0, 64, 127
1, 104262, Note_off_c, 0, 68, 59
1, 104337, Note_off_c, 0, 71, 64
1, 104341, Note_on_c, 0, 76, 76
1, 104433, Note_on_c, 0, 68, 82
1, 104449, Note_off_c, 0, 76, 62
1, 104468, Control_c, 0, 64, 98
1, 104483, Control_c, 0, 64, 53
1, 104497, Control_c, 0, 64, 0
1, 104503, Note_off_c, 0, 68, 60
1, 104512, Note_on_c, 0, 53, 99
1, 104512, Note_on_c, 0, 69, 81
1, 104515, Note_on_c, 0, 41, 98
1, 104527, Control_c, 0, 64, 18
1, 104541, Note_off_c, 0, 53, 72
1, 104541, Control_c, 0, 64, 45
1, 104548, Note_off_c, 0, 41, 63
1, 104556, Control_c, 0, 64, 63
1, 104571, Control_c, 0, 64, 127
1, 104587, Note_off_c, 0, 69, 65
1, 104594, Note_on_c, 0, 71, 75
1, 104683, Note_on_c, 0, 75, 70
1, 104698, Note_off_c, 0, 71, 61
1, 104752, Note_on_c, 0, 69, 68
1, 104756, Note_off_c, 0, 75, 61
1, 104779, Control_c, 0, 64, 66
1, 104794, Control_c, 0, 64, 0
1, 104808, Note_off_c, 0, 69, 66
1, 104863, Note_on_c, 0, 76, 93
1, 104864, Note_on_c, 0, 68, 92
1, 104875, Note_on_c, 0, 52, 98
1, 104877, Note_on_c, 0, 71, 72
1, 104880, Note_on_c, 0, 40, 89
1, 104890, Control_c, 0, 64, 33
1, 104896, Note_off_c, 0, 68, 64
1, 104898, Note_off_c, 0, 76, 67
1, 104900, Note_off_c, 0, 71, 71
1, 104905, Control_c, 0, 64, 64
1, 104920, Control_c, 0, 64, 127
1, 105042, Note_off_c, 0, 40, 62
1, 105066, Note_off_c, 0, 52, 63
1, 105115, Note_on_c, 0, 64, 86
1, 105205, Note_off_c, 0, 64, 61
1, 105209, Note_on_c, 0, 63, 87
1, 105281, Note_off_c, 0, 63, 61
1, 105295, Note_on_c, 0, 64, 78
1, 105373, Note_off_c, 0, 64, 59
1, 105376, Note_on_c, 0, 65, 86
1, 105448, Note_on_c, 0, 66, 86
1, 105463, Note_off_c, 0, 65, 61
1, 105504, Note_off_c, 0, 66, 65
1, 105513, Control_c, 0, 64, 113
1, 105517, Note_on_c, 0, 67, 86
1, 105528, Control_c, 0, 64, 95
1, 105543, Control_c, 0, 64, 82
1, 105558, Control_c, 0, 64, 69
1, 105573, Control_c, 0, 64, 61
1, 105577, Note_off_c, 0, 67, 64
1, 105594, Note_on_c, 0, 68, 87
1, 105595, Control_c, 0, 64, 51
1, 105610, Control_c, 0, 64, 38
1, 105625, Control_c, 0, 64, 25
1, 105640, Control_c, 0, 64, 16
1, 105654, Control_c, 0, 64, 0
1, 105656, Note_off_c, 0, 68, 64
1, 105666, Note_on_c, 0, 69, 82
1, 105732, Note_off_c, 0, 69, 63
1, 105738, Note_on_c, 0, 70, 85
1, 105799, Note_off_c, 0, 70, 65
1, 105809, Note_on_c, 0, 71, 84
1, 105880, Note_on_c, 0, 72, 87
1, 105892, Note_off_c, 0, 71, 58
1, 105948, Note_on_c, 0, 73, 84
1, 105979, Note_off_c, 0, 72, 64
1, 106010, Note_off_c, 0, 73, 69
1, 106022, Note_on_c, 0, 74, 84
1, 106097, Note_on_c, 0, 75, 87
1, 106107, Note_off_c, 0, 74, 64
1, 106188, Note_on_c, 0, 76, 91
1, 106193, Note_off_c, 0, 75, 54
1, 106208, Note_on_c, 0, 64, 64
1, 106210, Note_on_c, 0, 60, 64
1, 106216, Note_on_c, 0, 57, 61
1, 106321, Control_c, 0, 64, 47
1, 106344, Control_c, 0, 64, 72
1, 106359, Control_c, 0, 64, 127
1, 106425, Note_off_c, 0, 64, 53
1, 106441, Note_off_c, 0, 60, 59
1, 106443, Note_off_c, 0, 57, 53
1, 106539, Note_on_c, 0, 64, 69
1, 106547, Note_on_c, 0, 60, 66
1, 106553, Note_on_c, 0, 57, 64
1, 106650, Note_off_c, 0, 57, 57
1, 106650, Note_off_c, 0, 64, 55
1, 106657, Note_off_c, 0, 60, 59
1, 106668, Note_off_c, 0, 76, 60
1, 106735, Note_on_c, 0, 76, 99
1, 106762, Note_on_c, 0, 64, 59
1, 106766, Note_on_c, 0, 60, 54
1, 106769, Note_on_c, 0, 57, 56
1, 106784, Note_off_c, 0, 76, 67
1, 106801, Note_off_c, 0, 60, 63
1, 106802, Note_off_c, 0, 64, 53
1, 106807, Note_off_c, 0, 57, 59
1, 106928, Note_on_c, 0, 60, 55
1, 106929, Note_on_c, 0, 64, 56
1, 106938, Note_on_c, 0, 57, 48
1, 106989, Note_off_c, 0, 57, 50
1, 106994, Note_off_c, 0, 60, 55
1, 107006, Note_on_c, 0, 76, 89
1, 107010, Note_off_c, 0, 64, 52
1, 107024, Note_off_c, 0, 76, 72
1, 107081, Note_on_c, 0, 76, 95
1, 107098, Note_on_c, 0, 64, 43
1, 107107, Note_on_c, 0, 60, 52
1, 107117, Note_on_c, 0, 57, 49
1, 107158, Note_off_c, 0, 64, 53
1, 107159, Note_off_c, 0, 57, 59
1, 107161, Note_off_c, 0, 60, 58
1, 107280, Note_on_c, 0, 57, 39
1, 107284, Note_on_c, 0, 60, 50
1, 107292, Note_on_c, 0, 64, 47
1, 107341, Note_off_c, 0, 60, 60
1, 107342, Note_off_c, 0, 64, 54
1, 107351, Note_off_c, 0, 57, 51
1, 107454, Note_on_c, 0, 72, 86
1, 107463, Note_on_c, 0, 60, 47
1, 107467, Note_on_c, 0, 64, 42
1, 107471, Note_on_c, 0, 57, 54
1, 107510, Note_off_c, 0, 57, 57
1, 107511, Note_off_c, 0, 60, 59
1, 107523, Note_off_c, 0, 64, 42
1, 107528, Note_off_c, 0, 76, 60
1, 107630, Note_on_c, 0, 60, 50
1, 107633, Note_on_c, 0, 64, 53
1, 107633, Note_on_c, 0, 57, 52
1, 107670, Note_off_c, 0, 60, 59
1, 107701, Note_off_c, 0, 64, 47
1, 107704, Note_off_c, 0, 72, 64
1, 107709, Note_on_c, 0, 69, 76
1, 107728, Note_off_c, 0, 57, 49
1, 107753, Note_off_c, 0, 69, 63
1, 107800, Note_on_c, 0, 69, 66
1, 107856, Note_on_c, 0, 59, 47
1, 107856, Control_c, 0, 64, 69
1, 107857, Note_on_c, 0, 68, 88
1, 107861, Note_on_c, 0, 57, 52
1, 107861, Note_on_c, 0, 64, 38
1, 107871, Control_c, 0, 64, 45
1, 107878, Note_off_c, 0, 69, 64
1, 107882, Note_on_c, 0, 62, 42
1, 107886, Control_c, 0, 64, 0
1, 107943, Note_off_c, 0, 64, 36
1, 107945, Control_c, 0, 64, 10
1, 107946, Note_off_c, 0, 62, 54
1, 107958, Note_off_c, 0, 59, 39
1, 107959, Note_off_c, 0, 57, 51
1, 107960, Control_c, 0, 64, 40
1, 107974, Control_c, 0, 64, 62
1, 107989, Control_c, 0, 64, 127
1, 108074, Note_on_c, 0, 57, 34
1, 108078, Note_on_c, 0, 62, 49
1, 108079, Note_on_c, 0, 64, 46
1, 108082, Note_on_c, 0, 59, 45
1, 108122, Note_off_c, 0, 59, 58
1, 108123, Note_off_c, 0, 62, 58
1, 108125, Note_off_c, 0, 57, 56
1, 108130, Note_off_c, 0, 64, 44
1, 108148, Note_off_c, 0, 68, 58
1, 108235, Note_on_c, 0, 68, 79
1, 108247, Note_on_c, 0, 59, 44
1, 108249, Note_on_c, 0, 57, 46
1, 108251, Note_on_c, 0, 64, 47
1, 108257, Note_on_c, 0, 62, 44
1, 108304, Note_off_c, 0, 59, 54
1, 108304, Note_off_c, 0, 68, 60
1, 108307, Note_off_c, 0, 57, 54
1, 108315, Note_off_c, 0, 62, 55
1, 108325, Note_off_c, 0, 64, 49
1, 108426, Note_on_c, 0, 57, 48
1, 108430, Note_on_c, 0, 64, 43
1, 108433, Note_on_c, 0, 59, 40
1, 108433, Note_on_c, 0, 62, 52
1, 108472, Note_off_c, 0, 59, 57
1, 108473, Note_off_c, 0, 57, 56
1, 108481, Note_off_c, 0, 62, 57
1, 108486, Note_off_c, 0, 64, 55
1, 108600, Note_on_c, 0, 64, 62
1, 108603, Note_on_c, 0, 62, 53
1, 108604, Note_on_c, 0, 57, 54
1, 108605, Note_on_c, 0, 59, 43
1, 108652, Note_off_c, 0, 59, 54
1, 108667, Note_off_c, 0, 62, 52
1, 108670, Note_off_c, 0, 57, 58
1, 108674, Note_off_c, 0, 64, 59
1, 108774, Note_on_c, 0, 59, 47
1, 108780, Note_on_c, 0, 64, 55
1, 108783, Note_on_c, 0, 57, 56
1, 108789, Note_on_c, 0, 62, 53
1, 108827, Note_off_c, 0, 59, 54
1, 108833, Note_off_c, 0, 57, 54
1, 108843, Note_off_c, 0, 62, 59
1, 108845, Note_off_c, 0, 64, 53
1, 108947, Note_on_c, 0, 74, 82
1, 108957, Note_on_c, 0, 64, 60
1, 108958, Note_on_c, 0, 62, 59
1, 108960, Note_on_c, 0, 57, 57
1, 108964, Note_on_c, 0, 59, 47
1, 109023, Note_off_c, 0, 62, 55
1, 109024, Note_off_c, 0, 59, 49
1, 109025, Note_off_c, 0, 64, 55
1, 109030, Note_off_c, 0, 57, 51
1, 109131, Note_on_c, 0, 64, 52
1, 109132, Note_on_c, 0, 59, 52
1, 109136, Note_on_c, 0, 62, 54
1, 109139, Note_on_c, 0, 57, 45
1, 109179, Note_off_c, 0, 62, 60
1, 109192, Note_off_c, 0, 59, 51
1, 109203, Note_off_c, 0, 64, 54
1, 109213, Note_on_c, 0, 71, 77
1, 109216, Note_off_c, 0, 74, 66
1, 109219, Note_off_c, 0, 57, 48
1, 109257, Control_c, 0, 64, 78
1, 109272, Control_c, 0, 64, 58
1, 109287, Control_c, 0, 64, 0
1, 109288, Note_on_c, 0, 76, 87
1, 109297, Note_on_c, 0, 57, 55
1, 109304, Note_on_c, 0, 64, 60
1, 109309, Note_on_c, 0, 60, 55
1, 109314, Note_off_c, 0, 71, 61
1, 109378, Note_off_c, 0, 64, 55
1, 109379, Note_off_c, 0, 60, 54
1, 109381, Note_off_c, 0, 57, 60
1, 109399, Control_c, 0, 64, 30
1, 109413, Control_c, 0, 64, 47
1, 109428, Control_c, 0, 64, 66
1, 109443, Control_c, 0, 64, 127
1, 109485, Note_on_c, 0, 64, 56
1, 109487, Note_on_c, 0, 57, 56
1, 109488, Note_on_c, 0, 60, 59
1, 109540, Note_off_c, 0, 60, 53
1, 109545, Note_off_c, 0, 57, 56
1, 109549, Note_off_c, 0, 64, 54
1, 109573, Note_off_c, 0, 76, 63
1, 109651, Note_on_c, 0, 76, 92
1, 109660, Note_on_c, 0, 57, 59
1, 109666, Note_on_c, 0, 60, 58
1, 109666, Note_on_c, 0, 64, 57
1, 109701, Note_off_c, 0, 60, 57
1, 109704, Note_off_c, 0, 76, 64
1, 109708, Note_off_c, 0, 64, 59
1, 109713, Note_off_c, 0, 57, 60
1, 109821, Note_on_c, 0, 64, 51
1, 109827, Note_on_c, 0, 57, 55
1, 109827, Note_on_c, 0, 60, 57
1, 109875, Note_off_c, 0, 57, 49
1, 109876, Note_off_c, 0, 60, 56
1, 109892, Note_off_c, 0, 64, 55
1, 109907, Note_on_c, 0, 76, 80
1, 109924, Note_off_c, 0, 76, 75
1, 109979, Note_on_c, 0, 76, 86
1, 109991, Note_on_c, 0, 64, 52
1, 109998, Note_on_c, 0, 60, 54
1, 110000, Note_on_c, 0, 57, 52
1, 110036, Note_off_c, 0, 57, 61
1, 110038, Note_off_c, 0, 64, 55
1, 110038, Note_off_c, 0, 60, 61
1, 110155, Note_off_c, 0, 76, 60
1, 110169, Note_on_c, 0, 60, 51
1, 110175, Note_on_c, 0, 64, 46
1, 110175, Note_on_c, 0, 77, 73
1, 110181, Note_on_c, 0, 57, 44
1, 110213, Note_off_c, 0, 64, 48
1, 110219, Note_off_c, 0, 60, 60
1, 110221, Note_off_c, 0, 57, 59
1, 110247, Note_on_c, 0, 76, 84
1, 110258, Note_off_c, 0, 77, 56
1, 110318, Note_on_c, 0, 74, 80
1, 110318, Note_on_c, 0, 57, 53
1, 110321, Note_on_c, 0, 64, 53
1, 110326, Note_on_c, 0, 60, 55
1, 110352, Note_off_c, 0, 76, 64
1, 110359, Note_off_c, 0, 60, 58
1, 110374, Note_off_c, 0, 64, 55
1, 110377, Note_off_c, 0, 57, 56
1, 110396, Note_on_c, 0, 72, 80
1, 110409, Note_off_c, 0, 74, 59
1, 110459, Note_off_c, 0, 72, 66
1, 110471, Note_on_c, 0, 71, 75
1, 110481, Note_on_c, 0, 60, 57
1, 110481, Note_on_c, 0, 64, 55
1, 110485, Note_on_c, 0, 57, 58
1, 110539, Note_on_c, 0, 69, 75
1, 110541, Note_off_c, 0, 71, 63
1, 110545, Note_off_c, 0, 60, 59
1, 110560, Note_off_c, 0, 69, 72
1, 110563, Note_off_c, 0, 64, 55
1, 110569, Note_off_c, 0, 57, 57
1, 110607, Control_c, 0, 64, 83
1, 110616, Note_on_c, 0, 69, 78
1, 110622, Control_c, 0, 64, 59
1, 110637, Control_c, 0, 64, 28
1, 110652, Control_c, 0, 64, 0
1, 110655, Note_on_c, 0, 68, 83
1, 110667, Note_on_c, 0, 62, 52
1, 110668, Note_on_c, 0, 59, 50
1, 110668, Note_on_c, 0, 64, 52
1, 110676, Note_on_c, 0, 57, 46
1, 110676, Note_off_c, 0, 69, 65
1, 110742, Note_off_c, 0, 62, 47
1, 110744, Note_off_c, 0, 59, 51
1, 110745, Note_off_c, 0, 64, 52
1, 110747, Note_off_c, 0, 57, 53
1, 110755, Control_c, 0, 64, 32
1, 110770, Control_c, 0, 64, 49
1, 110785, Control_c, 0, 64, 66
1, 110800, Control_c, 0, 64, 127
1, 110880, Note_on_c, 0, 64, 46
1, 110883, Note_on_c, 0, 62, 53
1, 110884, Note_on_c, 0, 57, 49
1, 110886, Note_on_c, 0, 59, 51
1, 110927, Note_off_c, 0, 57, 58
1, 110927, Note_off_c, 0, 59, 58
1, 110930, Note_off_c, 0, 62, 56
1, 110933, Note_off_c, 0, 64, 50
1, 110962, Note_off_c, 0, 68, 58
1, 111047, Note_on_c, 0, 68, 83
1, 111052, Note_on_c, 0, 64, 54
1, 111055, Note_on_c, 0, 59, 46
1, 111056, Note_on_c, 0, 57, 43
1, 111057, Note_on_c, 0, 62, 47
1, 111099, Note_off_c, 0, 59, 56
1, 111102, Note_off_c, 0, 57, 57
1, 111106, Note_off_c, 0, 64, 52
1, 111108, Note_off_c, 0, 62, 58
1, 111111, Note_off_c, 0, 68, 61
1, 111221, Note_on_c, 0, 62, 49
1, 111225, Note_on_c, 0, 59, 45
1, 111225, Note_on_c, 0, 57, 44
1, 111225, Note_on_c, 0, 64, 56
1, 111276, Note_off_c, 0, 59, 50
1, 111282, Note_off_c, 0, 57, 54
1, 111282, Note_off_c, 0, 64, 51
1, 111285, Note_off_c, 0, 62, 58
1, 111395, Note_on_c, 0, 64, 65
1, 111398, Note_on_c, 0, 57, 52
1, 111399, Note_on_c, 0, 62, 60
1, 111405, Note_on_c, 0, 59, 55
1, 111442, Note_off_c, 0, 59, 56
1, 111465, Note_off_c, 0, 64, 59
1, 111468, Note_off_c, 0, 62, 58
1, 111471, Note_off_c, 0, 57, 56
1, 111564, Note_on_c, 0, 64, 66
1, 111566, Note_on_c, 0, 62, 62
1, 111568, Note_on_c, 0, 59, 52
1, 111571, Note_on_c, 0, 57, 56
1, 111639, Note_off_c, 0, 59, 46
1, 111656, Note_off_c, 0, 64, 53
1, 111657, Note_off_c, 0, 62, 57
1, 111659, Note_off_c, 0, 57, 56
1, 111737, Note_on_c, 0, 74, 83
1, 111743, Note_on_c, 0, 64, 61
1, 111746, Note_on_c, 0, 62, 61
1, 111748, Note_on_c, 0, 57, 54
1, 111749, Control_c, 0, 64, 70
1, 111753, Note_on_c, 0, 59, 58
1, 111764, Control_c, 0, 64, 52
1, 111779, Control_c, 0, 64, 12
1, 111794, Control_c, 0, 64, 0
1, 111824, Control_c, 0, 64, 24
1, 111833, Note_off_c, 0, 62, 58
1, 111839, Control_c, 0, 64, 39
1, 111839, Note_off_c, 0, 64, 57
1, 111842, Note_off_c, 0, 57, 58
1, 111845, Note_off_c, 0, 59, 54
1, 111854, Control_c, 0, 64, 53
1, 111868, Control_c, 0, 64, 71
1, 111883, Control_c, 0, 64, 127
1, 111922, Note_on_c, 0, 62, 60
1, 111924, Note_on_c, 0, 64, 58
1, 111925, Note_on_c, 0, 59, 44
1, 111937, Note_on_c, 0, 57, 57
1, 111979, Note_off_c, 0, 62, 61
1, 111997, Note_off_c, 0, 59, 59
1, 112008, Note_on_c, 0, 71, 73
1, 112009, Note_off_c, 0, 64, 55
1, 112014, Note_off_c, 0, 74, 64
1, 112021, Note_off_c, 0, 57, 58
1, 112075, Control_c, 0, 64, 69
1, 112086, Note_on_c, 0, 57, 64
1, 112086, Note_on_c, 0, 64, 64
1, 112088, Note_off_c, 0, 71, 53
1, 112089, Note_on_c, 0, 60, 69
1, 112089, Note_on_c, 0, 76, 86
1, 112090, Control_c, 0, 64, 42
1, 112094, Note_on_c, 0, 72, 81
1, 112105, Note_off_c, 0, 64, 66
1, 112105, Control_c, 0, 64, 0
1, 112107, Note_off_c, 0, 60, 69
1, 112121, Note_off_c, 0, 57, 62
1, 112149, Control_c, 0, 64, 25
1, 112164, Control_c, 0, 64, 43
1, 112179, Control_c, 0, 64, 58
1, 112194, Control_c, 0, 64, 83
1, 112208, Control_c, 0, 64, 127
1, 112247, Note_off_c, 0, 72, 57
1, 112274, Note_on_c, 0, 57, 70
1, 112322, Note_off_c, 0, 76, 54
1, 112346, Note_on_c, 0, 69, 65
1, 112353, Note_on_c, 0, 72, 70
1, 112370, Note_off_c, 0, 72, 68
1, 112372, Note_off_c, 0, 69, 71
1, 112373, Note_off_c, 0, 57, 59
1, 112379, Control_c, 0, 64, 67
1, 112393, Control_c, 0, 64, 45
1, 112408, Control_c, 0, 64, 0
1, 112436, Note_on_c, 0, 76, 73
1, 112438, Note_on_c, 0, 72, 65
1, 112444, Note_on_c, 0, 52, 59
1, 112468, Note_off_c, 0, 52, 65
1, 112601, Note_on_c, 0, 48, 65
1, 112632, Note_off_c, 0, 48, 66
1, 112671, Note_off_c, 0, 72, 36
1, 112765, Control_c, 0, 67, 13
1, 112775, Note_on_c, 0, 45, 52
1, 112780, Control_c, 0, 67, 23
1, 112785, Note_off_c, 0, 76, 60
1, 112795, Control_c, 0, 67, 39
1, 112809, Control_c, 0, 67, 64
1, 112824, Control_c, 0, 67, 95
1, 112839, Control_c, 0, 67, 123
1, 112854, Control_c, 0, 67, 127
1, 112951, Note_on_c, 0, 69, 56
1, 112954, Note_on_c, 0, 72, 51
1, 112956, Note_off_c, 0, 45, 63
1, 112979, Note_off_c, 0, 72, 56
1, 112980, Note_off_c, 0, 69, 58
1, 113119, Note_on_c, 0, 74, 64
1, 113140, Note_on_c, 0, 71, 42
1, 113162, Note_off_c, 0, 74, 61
1, 113165, Note_off_c, 0, 71, 59
1, 113287, Note_on_c, 0, 72, 61
1, 113289, Note_on_c, 0, 76, 63
1, 113310, Note_off_c, 0, 72, 62
1, 113321, Note_off_c, 0, 76, 64
1, 113480, Note_on_c, 0, 76, 59
1, 113481, Note_on_c, 0, 73, 52
1, 113544, Control_c, 0, 64, 10
1, 113559, Control_c, 0, 64, 22
1, 113574, Control_c, 0, 64, 31
1, 113588, Control_c, 0, 64, 41
1, 113603, Control_c, 0, 64, 51
1, 113618, Control_c, 0, 64, 61
1, 113632, Control_c, 0, 64, 67
1, 113647, Control_c, 0, 64, 74
1, 113662, Control_c, 0, 64, 77
1, 113677, Control_c, 0, 64, 78
1, 113692, Control_c, 0, 64, 79
1, 113706, Control_c, 0, 64, 81
1, 113707, Note_off_c, 0, 73, 39
1, 113721, Control_c, 0, 64, 82
1, 113751, Control_c, 0, 64, 82
1, 113756, Note_off_c, 0, 76, 58
1, 113832, Control_c, 0, 64, 82
1, 113847, Control_c, 0, 64, 76
1, 113859, Note_on_c, 0, 57, 36
1, 113860, Note_on_c, 0, 60, 35
1, 113862, Control_c, 0, 64, 67
1, 113866, Note_on_c, 0, 62, 34
1, 113877, Control_c, 0, 64, 54
1, 113878, Note_on_c, 0, 77, 46
1, 113878, Note_on_c, 0, 74, 34
1, 113887, Note_on_c, 0, 53, 34
1, 113892, Control_c, 0, 64, 36
1, 113907, Control_c, 0, 64, 19
1, 113921, Control_c, 0, 64, 23
1, 113936, Control_c, 0, 64, 32
1, 113940, Note_off_c, 0, 74, 0
1, 113940, Note_on_c, 0, 74, 5
1, 113951, Control_c, 0, 64, 42
1, 113966, Control_c, 0, 64, 56
1, 113980, Control_c, 0, 64, 66
1, 113995, Control_c, 0, 64, 77
1, 114011, Control_c, 0, 64, 81
1, 114015, Note_off_c, 0, 60, 50
1, 114018, Note_off_c, 0, 53, 40
1, 114018, Note_off_c, 0, 57, 45
1, 114018, Note_off_c, 0, 62, 38
1, 114026, Control_c, 0, 64, 82
1, 114027, Note_off_c, 0, 77, 54
1, 114037, Note_off_c, 0, 74, 58
1, 114129, Control_c, 0, 64, 81
1, 114159, Control_c, 0, 64, 81
1, 114174, Control_c, 0, 64, 79
1, 114189, Control_c, 0, 64, 77
1, 114203, Control_c, 0, 64, 73
1, 114218, Control_c, 0, 64, 69
1, 114233, Control_c, 0, 64, 64
1, 114236, Note_on_c, 0, 62, 42
1, 114247, Control_c, 0, 64, 58
1, 114250, Note_on_c, 0, 59, 39
1, 114256, Note_on_c, 0, 55, 42
1, 114262, Control_c, 0, 64, 47
1, 114277, Control_c, 0, 64, 31
1, 114292, Control_c, 0, 64, 0
1, 114418, Note_on_c, 0, 71, 54
1, 114419, Note_off_c, 0, 62, 54
1, 114420, Note_on_c, 0, 67, 56
1, 114440, Note_off_c, 0, 55, 42
1, 114450, Note_off_c, 0, 67, 60
1, 114452, Note_off_c, 0, 71, 61
1, 114460, Note_off_c, 0, 59, 42
1, 114589, Note_on_c, 0, 72, 58
1, 114596, Note_on_c, 0, 69, 48
1, 114624, Note_off_c, 0, 69, 56
1, 114626, Note_off_c, 0, 72, 59
1, 114748, Note_on_c, 0, 74, 61
1, 114755, Note_on_c, 0, 71, 50
1, 114777, Note_off_c, 0, 71, 62
1, 114783, Note_off_c, 0, 74, 59
1, 114955, Note_on_c, 0, 75, 56
1, 114970, Note_on_c, 0, 71, 43
1, 115012, Control_c, 0, 64, 12
1, 115026, Control_c, 0, 64, 24
1, 115041, Control_c, 0, 64, 34
1, 115056, Control_c, 0, 64, 42
1, 115071, Control_c, 0, 64, 51
1, 115085, Control_c, 0, 64, 59
1, 115100, Control_c, 0, 64, 64
1, 115115, Control_c, 0, 64, 67
1, 115130, Control_c, 0, 64, 69
1, 115145, Control_c, 0, 64, 72
1, 115157, Note_off_c, 0, 71, 36
1, 115159, Control_c, 0, 64, 75
1, 115174, Control_c, 0, 64, 78
1, 115189, Control_c, 0, 64, 81
1, 115204, Control_c, 0, 64, 82
1, 115223, Note_off_c, 0, 75, 55
1, 115308, Control_c, 0, 64, 78
1, 115330, Control_c, 0, 64, 70
1, 115345, Control_c, 0, 64, 60
1, 115350, Note_on_c, 0, 60, 32
1, 115350, Note_on_c, 0, 76, 47
1, 115352, Note_on_c, 0, 55, 32
1, 115354, Note_on_c, 0, 59, 28
1, 115356, Note_on_c, 0, 72, 35
1, 115359, Control_c, 0, 64, 44
1, 115371, Note_on_c, 0, 52, 30
1, 115374, Control_c, 0, 64, 14
1, 115389, Control_c, 0, 64, 0
1, 115400, Note_off_c, 0, 76, 0
1, 115400, Note_on_c, 0, 76, 12
1, 115419, Control_c, 0, 64, 23
1, 115424, Note_off_c, 0, 72, 0
1, 115424, Note_on_c, 0, 72, 3
1, 115434, Control_c, 0, 64, 36
1, 115449, Control_c, 0, 64, 50
1, 115464, Control_c, 0, 64, 63
1, 115466, Note_off_c, 0, 72, 60
1, 115473, Note_off_c, 0, 60, 46
1, 115478, Note_off_c, 0, 52, 57
1, 115478, Control_c, 0, 64, 75
1, 115479, Note_off_c, 0, 76, 58
1, 115487, Note_off_c, 0, 59, 41
1, 115493, Control_c, 0, 64, 87
1, 115493, Note_off_c, 0, 55, 43
1, 115508, Control_c, 0, 64, 88
1, 115627, Control_c, 0, 64, 86
1, 115642, Control_c, 0, 64, 85
1, 115657, Control_c, 0, 64, 83
1, 115672, Control_c, 0, 64, 80
1, 115687, Control_c, 0, 64, 77
1, 115701, Control_c, 0, 64, 72
1, 115716, Control_c, 0, 64, 66
1, 115731, Control_c, 0, 64, 60
1, 115733, Note_on_c, 0, 60, 42
1, 115744, Note_on_c, 0, 57, 42
1, 115746, Control_c, 0, 64, 52
1, 115759, Note_on_c, 0, 53, 35
1, 115761, Control_c, 0, 64, 44
1, 115775, Control_c, 0, 64, 38
1, 115776, Note_off_c, 0, 60, 0
1, 115776, Note_on_c, 0, 60, 8
1, 115790, Control_c, 0, 64, 34
1, 115805, Control_c, 0, 64, 26
1, 115820, Control_c, 0, 64, 9
1, 115834, Control_c, 0, 64, 0
1, 115903, Note_on_c, 0, 69, 57
1, 115907, Note_on_c, 0, 65, 52
1, 115931, Note_off_c, 0, 60, 57
1, 115944, Note_off_c, 0, 65, 66
1, 115957, Note_off_c, 0, 53, 44
1, 115977, Note_off_c, 0, 69, 64
1, 115986, Note_off_c, 0, 57, 41
1, 116065, Note_on_c, 0, 71, 64
1, 116078, Note_on_c, 0, 68, 64
1, 116126, Note_off_c, 0, 68, 60
1, 116161, Note_off_c, 0, 71, 63
1, 116229, Note_on_c, 0, 72, 71
1, 116230, Note_on_c, 0, 69, 68
1, 116278, Note_off_c, 0, 69, 66
1, 116330, Note_off_c, 0, 72, 64
1, 116397, Note_on_c, 0, 72, 70
1, 116510, Control_c, 0, 64, 15
1, 116524, Control_c, 0, 64, 26
1, 116539, Control_c, 0, 64, 35
1, 116554, Control_c, 0, 64, 45
1, 116569, Control_c, 0, 64, 54
1, 116584, Control_c, 0, 64, 61
1, 116598, Control_c, 0, 64, 64
1, 116613, Control_c, 0, 64, 66
1, 116628, Control_c, 0, 64, 67
1, 116635, Note_off_c, 0, 72, 62
1, 116643, Control_c, 0, 64, 67
1, 116657, Control_c, 0, 64, 68
1, 116672, Control_c, 0, 64, 69
1, 116677, Note_on_c, 0, 71, 60
1, 116687, Control_c, 0, 64, 69
1, 116702, Control_c, 0, 64, 69
1, 116717, Control_c, 0, 64, 66
1, 116731, Control_c, 0, 64, 59
1, 116744, Note_on_c, 0, 77, 75
1, 116746, Control_c, 0, 64, 44
1, 116750, Note_on_c, 0, 59, 44
1, 116757, Note_on_c, 0, 53, 36
1, 116761, Control_c, 0, 64, 0
1, 116772, Note_on_c, 0, 50, 40
1, 116772, Note_off_c, 0, 71, 59
1, 116827, Control_c, 0, 64, 22
1, 116841, Note_off_c, 0, 53, 57
1, 116842, Control_c, 0, 64, 36
1, 116856, Control_c, 0, 64, 46
1, 116871, Control_c, 0, 64, 56
1, 116886, Control_c, 0, 64, 63
1, 116901, Control_c, 0, 64, 67
1, 116915, Note_off_c, 0, 50, 53
1, 116916, Control_c, 0, 64, 68
1, 116918, Note_off_c, 0, 59, 35
1, 116990, Control_c, 0, 64, 69
1, 117023, Note_on_c, 0, 74, 57
1, 117034, Control_c, 0, 64, 68
1, 117049, Control_c, 0, 64, 66
1, 117064, Control_c, 0, 64, 61
1, 117073, Note_off_c, 0, 77, 37
1, 117079, Control_c, 0, 64, 47
1, 117091, Note_off_c, 0, 74, 62
1, 117094, Control_c, 0, 64, 14
1, 117097, Note_on_c, 0, 72, 51
1, 117099, Note_on_c, 0, 60, 43
1, 117109, Control_c, 0, 64, 0
1, 117112, Note_on_c, 0, 57, 33
1, 117115, Note_on_c, 0, 52, 41
1, 117182, Control_c, 0, 64, 15
1, 117198, Control_c, 0, 64, 25
1, 117213, Control_c, 0, 64, 35
1, 117226, Note_off_c, 0, 60, 55
1, 117228, Control_c, 0, 64, 43
1, 117243, Control_c, 0, 64, 52
1, 117258, Control_c, 0, 64, 59
1, 117272, Control_c, 0, 64, 64
1, 117287, Control_c, 0, 64, 66
1, 117302, Control_c, 0, 64, 66
1, 117317, Control_c, 0, 64, 67
1, 117323, Note_off_c, 0, 52, 34
1, 117332, Control_c, 0, 64, 68
1, 117346, Control_c, 0, 64, 70
1, 117361, Control_c, 0, 64, 72
1, 117365, Note_off_c, 0, 57, 38
1, 117374, Note_off_c, 0, 72, 51
1, 117376, Control_c, 0, 64, 76
1, 117386, Note_on_c, 0, 76, 46
1, 117391, Control_c, 0, 64, 79
1, 117405, Control_c, 0, 64, 80
1, 117435, Control_c, 0, 64, 77
1, 117450, Control_c, 0, 64, 68
1, 117452, Note_off_c, 0, 76, 56
1, 117453, Note_on_c, 0, 74, 51
1, 117464, Note_on_c, 0, 52, 37
1, 117465, Control_c, 0, 64, 57
1, 117476, Note_on_c, 0, 56, 38
1, 117479, Control_c, 0, 64, 36
1, 117484, Note_on_c, 0, 59, 38
1, 117494, Control_c, 0, 64, 0
1, 117539, Control_c, 0, 64, 20
1, 117553, Control_c, 0, 64, 33
1, 117575, Control_c, 0, 64, 45
1, 117590, Control_c, 0, 64, 58
1, 117604, Control_c, 0, 64, 68
1, 117619, Control_c, 0, 64, 82
1, 117628, Note_off_c, 0, 56, 44
1, 117634, Control_c, 0, 64, 93
1, 117649, Control_c, 0, 64, 103
1, 117664, Control_c, 0, 64, 127
1, 117674, Note_off_c, 0, 52, 54
1, 117693, Control_c, 0, 67, 119
1, 117708, Control_c, 0, 67, 106
1, 117723, Control_c, 0, 67, 95
1, 117738, Control_c, 0, 67, 85
1, 117750, Note_off_c, 0, 59, 41
1, 117753, Control_c, 0, 67, 76
1, 117760, Note_off_c, 0, 74, 36
1, 117768, Control_c, 0, 67, 69
1, 117779, Note_on_c, 0, 71, 43
1, 117783, Control_c, 0, 67, 65
1, 117797, Control_c, 0, 67, 62
1, 117812, Control_c, 0, 67, 61
1, 117816, Note_off_c, 0, 71, 51
1, 117827, Control_c, 0, 67, 60
1, 117842, Control_c, 0, 67, 58
1, 117857, Control_c, 0, 67, 51
1, 117871, Control_c, 0, 64, 61
1, 117871, Control_c, 0, 67, 33
1, 117886, Control_c, 0, 64, 0
1, 117886, Control_c, 0, 67, 0
1, 117905, Note_on_c, 0, 57, 84
1, 117908, Note_on_c, 0, 72, 80
1, 117908, Note_on_c, 0, 45, 78
1, 117931, Control_c, 0, 64, 48
1, 117945, Control_c, 0, 64, 79
1, 117960, Control_c, 0, 64, 127
1, 117971, Note_off_c, 0, 57, 57
1, 117973, Note_off_c, 0, 72, 60
1, 117986, Note_on_c, 0, 81, 75
1, 118074, Note_off_c, 0, 81, 63
1, 118084, Note_on_c, 0, 72, 61
1, 118146, Note_off_c, 0, 72, 61
1, 118158, Note_on_c, 0, 81, 61
1, 118231, Note_off_c, 0, 81, 60
1, 118245, Note_on_c, 0, 57, 87
1, 118255, Note_on_c, 0, 72, 73
1, 118279, Note_off_c, 0, 57, 64
1, 118302, Note_off_c, 0, 45, 53
1, 118305, Note_off_c, 0, 72, 59
1, 118342, Note_on_c, 0, 81, 60
1, 118437, Note_off_c, 0, 81, 59
1, 118481, Note_on_c, 0, 72, 50
1, 118515, Note_on_c, 0, 57, 69
1, 118524, Note_off_c, 0, 72, 62
1, 118537, Note_on_c, 0, 81, 67
1, 118538, Note_off_c, 0, 57, 68
1, 118584, Note_off_c, 0, 81, 59
1, 118585, Note_on_c, 0, 57, 85
1, 118613, Note_on_c, 0, 72, 66
1, 118659, Note_off_c, 0, 72, 59
1, 118682, Note_on_c, 0, 81, 59
1, 118722, Note_off_c, 0, 81, 59
1, 118766, Note_on_c, 0, 72, 58
1, 118808, Note_off_c, 0, 72, 61
1, 118832, Note_on_c, 0, 81, 60
1, 118886, Note_off_c, 0, 81, 62
1, 118918, Note_on_c, 0, 53, 82
1, 118920, Note_on_c, 0, 72, 61
1, 118933, Control_c, 0, 64, 82
1, 118944, Note_off_c, 0, 57, 57
1, 118948, Control_c, 0, 64, 62
1, 118963, Control_c, 0, 64, 49
1, 118965, Note_off_c, 0, 72, 58
1, 118978, Note_on_c, 0, 81, 60
1, 118978, Control_c, 0, 64, 44
1, 118992, Control_c, 0, 64, 50
1, 119007, Control_c, 0, 64, 58
1, 119022, Control_c, 0, 64, 65
1, 119037, Control_c, 0, 64, 79
1, 119043, Note_off_c, 0, 81, 60
1, 119051, Control_c, 0, 64, 91
1, 119073, Control_c, 0, 64, 96
1, 119088, Control_c, 0, 64, 99
1, 119090, Note_on_c, 0, 72, 56
1, 119103, Control_c, 0, 64, 106
1, 119118, Control_c, 0, 64, 127
1, 119133, Note_off_c, 0, 72, 59
1, 119162, Note_on_c, 0, 81, 61
1, 119169, Note_off_c, 0, 53, 62
1, 119172, Note_on_c, 0, 51, 69
1, 119207, Control_c, 0, 64, 71
1, 119217, Note_off_c, 0, 81, 62
1, 119222, Control_c, 0, 64, 50
1, 119234, Note_off_c, 0, 51, 61
1, 119237, Control_c, 0, 64, 14
1, 119238, Note_on_c, 0, 53, 71
1, 119238, Note_on_c, 0, 71, 68
1, 119251, Control_c, 0, 64, 0
1, 119310, Note_off_c, 0, 71, 62
1, 119331, Note_on_c, 0, 81, 64
1, 119340, Control_c, 0, 64, 11
1, 119355, Control_c, 0, 64, 18
1, 119369, Control_c, 0, 64, 23
1, 119384, Note_off_c, 0, 81, 59
1, 119384, Control_c, 0, 64, 27
1, 119399, Control_c, 0, 64, 30
1, 119405, Note_on_c, 0, 52, 78
1, 119414, Control_c, 0, 64, 35
1, 119417, Note_on_c, 0, 71, 64
1, 119428, Note_off_c, 0, 53, 61
1, 119429, Control_c, 0, 64, 40
1, 119443, Control_c, 0, 64, 47
1, 119458, Control_c, 0, 64, 54
1, 119473, Control_c, 0, 64, 61
1, 119476, Note_off_c, 0, 71, 61
1, 119486, Note_off_c, 0, 52, 64
1, 119488, Control_c, 0, 64, 66
1, 119491, Note_on_c, 0, 81, 67
1, 119503, Control_c, 0, 64, 69
1, 119518, Control_c, 0, 64, 70
1, 119532, Control_c, 0, 64, 67
1, 119547, Note_off_c, 0, 81, 63
1, 119547, Control_c, 0, 64, 61
1, 119562, Control_c, 0, 64, 48
1, 119577, Control_c, 0, 64, 24
1, 119577, Note_on_c, 0, 52, 81
1, 119580, Note_on_c, 0, 71, 64
1, 119592, Control_c, 0, 64, 0
1, 119642, Note_off_c, 0, 71, 63
1, 119650, Note_on_c, 0, 81, 65
1, 119667, Control_c, 0, 64, 10
1, 119681, Control_c, 0, 64, 17
1, 119696, Control_c, 0, 64, 23
1, 119711, Control_c, 0, 64, 28
1, 119722, Note_off_c, 0, 81, 60
1, 119726, Control_c, 0, 64, 32
1, 119741, Control_c, 0, 64, 35
1, 119750, Note_on_c, 0, 71, 58
1, 119756, Control_c, 0, 64, 39
1, 119771, Control_c, 0, 64, 44
1, 119786, Control_c, 0, 64, 50
1, 119800, Control_c, 0, 64, 59
1, 119804, Note_off_c, 0, 71, 62
1, 119822, Control_c, 0, 64, 65
1, 119833, Note_on_c, 0, 81, 64
1, 119837, Control_c, 0, 64, 71
1, 119852, Control_c, 0, 64, 72
1, 119867, Control_c, 0, 64, 71
1, 119881, Control_c, 0, 64, 64
1, 119896, Control_c, 0, 64, 52
1, 119902, Note_off_c, 0, 81, 62
1, 119911, Control_c, 0, 64, 35
1, 119916, Note_on_c, 0, 71, 73
1, 119926, Control_c, 0, 64, 18
1, 119941, Control_c, 0, 64, 19
1, 119956, Control_c, 0, 64, 26
1, 119971, Control_c, 0, 64, 33
1, 119986, Control_c, 0, 64, 42
1, 119986, Note_off_c, 0, 71, 65
1, 119992, Note_on_c, 0, 79, 67
1, 120000, Control_c, 0, 64, 51
1, 120015, Control_c, 0, 64, 59
1, 120030, Control_c, 0, 64, 67
1, 120045, Control_c, 0, 64, 74
1, 120055, Note_off_c, 0, 79, 59
1, 120060, Control_c, 0, 64, 78
1, 120072, Note_on_c, 0, 71, 66
1, 120119, Control_c, 0, 64, 79
1, 120132, Note_off_c, 0, 71, 62
1, 120134, Control_c, 0, 64, 79
1, 120148, Note_on_c, 0, 79, 61
1, 120222, Control_c, 0, 64, 74
1, 120237, Control_c, 0, 64, 64
1, 120249, Note_on_c, 0, 55, 62
1, 120249, Note_on_c, 0, 70, 78
1, 120252, Control_c, 0, 64, 52
1, 120255, Note_off_c, 0, 52, 58
1, 120255, Note_off_c, 0, 79, 61
1, 120267, Control_c, 0, 64, 31
1, 120281, Control_c, 0, 64, 14
1, 120311, Control_c, 0, 64, 20
1, 120325, Control_c, 0, 64, 27
1, 120336, Note_off_c, 0, 70, 61
1, 120340, Control_c, 0, 64, 33
1, 120355, Control_c, 0, 64, 39
1, 120359, Note_on_c, 0, 79, 63
1, 120370, Control_c, 0, 64, 47
1, 120385, Control_c, 0, 64, 54
1, 120401, Control_c, 0, 64, 61
1, 120415, Control_c, 0, 64, 66
1, 120424, Note_off_c, 0, 79, 56
1, 120430, Control_c, 0, 64, 69
1, 120442, Note_on_c, 0, 70, 67
1, 120445, Control_c, 0, 64, 70
1, 120460, Control_c, 0, 64, 70
1, 120475, Control_c, 0, 64, 73
1, 120487, Note_off_c, 0, 55, 62
1, 120489, Control_c, 0, 64, 79
1, 120501, Note_on_c, 0, 52, 59
1, 120502, Note_off_c, 0, 70, 61
1, 120504, Control_c, 0, 64, 88
1, 120507, Note_on_c, 0, 79, 63
1, 120519, Control_c, 0, 64, 93
1, 120534, Control_c, 0, 64, 91
1, 120549, Control_c, 0, 64, 74
1, 120557, Note_off_c, 0, 52, 59
1, 120561, Note_off_c, 0, 79, 60
1, 120571, Control_c, 0, 64, 57
1, 120576, Note_on_c, 0, 53, 67
1, 120582, Note_on_c, 0, 69, 74
1, 120586, Control_c, 0, 64, 37
1, 120601, Control_c, 0, 64, 0
1, 120630, Control_c, 0, 64, 11
1, 120645, Control_c, 0, 64, 26
1, 120647, Note_off_c, 0, 69, 63
1, 120660, Note_on_c, 0, 79, 62
1, 120660, Control_c, 0, 64, 38
1, 120675, Control_c, 0, 64, 48
1, 120690, Control_c, 0, 64, 58
1, 120704, Control_c, 0, 64, 66
1, 120717, Note_off_c, 0, 79, 59
1, 120719, Control_c, 0, 64, 76
1, 120734, Control_c, 0, 64, 83
1, 120749, Control_c, 0, 64, 90
1, 120758, Note_on_c, 0, 69, 61
1, 120764, Control_c, 0, 64, 127
1, 120803, Note_off_c, 0, 69, 63
1, 120814, Note_off_c, 0, 53, 60
1, 120824, Note_on_c, 0, 79, 70
1, 120868, Control_c, 0, 64, 75
1, 120876, Note_off_c, 0, 79, 61
1, 120883, Control_c, 0, 64, 59
1, 120897, Control_c, 0, 64, 47
1, 120910, Note_on_c, 0, 53, 81
1, 120910, Note_on_c, 0, 69, 67
1, 120927, Control_c, 0, 64, 54
1, 120941, Control_c, 0, 64, 63
1, 120956, Control_c, 0, 64, 73
1, 120966, Note_off_c, 0, 69, 62
1, 120970, Note_on_c, 0, 79, 62
1, 120971, Control_c, 0, 64, 89
1, 120986, Control_c, 0, 64, 105
1, 120991, Note_off_c, 0, 53, 56
1, 121001, Control_c, 0, 64, 111
1, 121015, Control_c, 0, 64, 127
1, 121050, Note_off_c, 0, 79, 58
1, 121086, Note_on_c, 0, 69, 54
1, 121126, Note_off_c, 0, 69, 58
1, 121144, Note_on_c, 0, 53, 72
1, 121147, Note_on_c, 0, 79, 64
1, 121148, Control_c, 0, 64, 86
1, 121163, Control_c, 0, 64, 61
1, 121170, Note_off_c, 0, 53, 69
1, 121178, Control_c, 0, 64, 44
1, 121194, Control_c, 0, 64, 38
1, 121196, Note_off_c, 0, 79, 57
1, 121209, Control_c, 0, 64, 43
1, 121224, Control_c, 0, 64, 50
1, 121225, Note_on_c, 0, 53, 87
1, 121235, Note_on_c, 0, 69, 58
1, 121238, Control_c, 0, 64, 56
1, 121253, Control_c, 0, 64, 61
1, 121268, Control_c, 0, 64, 65
1, 121283, Control_c, 0, 64, 68
1, 121298, Control_c, 0, 64, 71
1, 121306, Note_off_c, 0, 69, 61
1, 121312, Control_c, 0, 64, 80
1, 121334, Control_c, 0, 64, 127
1, 121344, Note_on_c, 0, 77, 55
1, 121385, Note_off_c, 0, 77, 61
1, 121389, Note_off_c, 0, 53, 64
1, 121393, Control_c, 0, 64, 79
1, 121408, Control_c, 0, 64, 54
1, 121410, Note_on_c, 0, 55, 72
1, 121423, Control_c, 0, 64, 0
1, 121430, Note_on_c, 0, 69, 55
1, 121456, Note_off_c, 0, 55, 64
1, 121470, Note_off_c, 0, 69, 62
1, 121482, Note_on_c, 0, 53, 66
1, 121488, Note_on_c, 0, 77, 69
1, 121536, Note_off_c, 0, 77, 64
1, 121542, Note_off_c, 0, 53, 64
1, 121558, Note_on_c, 0, 52, 82
1, 121572, Note_on_c, 0, 69, 62
1, 121615, Note_off_c, 0, 52, 63
1, 121619, Note_off_c, 0, 69, 64
1, 121628, Note_on_c, 0, 77, 67
1, 121634, Note_on_c, 0, 50, 70
1, 121690, Note_off_c, 0, 77, 61
1, 121695, Note_off_c, 0, 50, 62
1, 121703, Note_on_c, 0, 48, 69
1, 121729, Note_on_c, 0, 69, 59
1, 121762, Note_off_c, 0, 69, 67
1, 121766, Note_off_c, 0, 48, 62
1, 121782, Note_on_c, 0, 77, 68
1, 121786, Note_on_c, 0, 47, 75
1, 121835, Note_off_c, 0, 77, 60
1, 121853, Note_off_c, 0, 47, 60
1, 121856, Note_on_c, 0, 67, 72
1, 121863, Note_on_c, 0, 50, 78
1, 121908, Note_off_c, 0, 67, 63
1, 121940, Note_on_c, 0, 77, 68
1, 121998, Note_off_c, 0, 77, 61
1, 122024, Note_on_c, 0, 48, 75
1, 122027, Note_off_c, 0, 50, 62
1, 122031, Note_on_c, 0, 67, 68
1, 122048, Note_off_c, 0, 48, 68
1, 122082, Note_off_c, 0, 67, 65
1, 122102, Note_on_c, 0, 77, 61
1, 122155, Note_off_c, 0, 77, 62
1, 122190, Note_on_c, 0, 48, 70
1, 122200, Note_on_c, 0, 67, 67
1, 122236, Note_off_c, 0, 67, 60
1, 122255, Note_on_c, 0, 77, 66
1, 122324, Note_off_c, 0, 77, 58
1, 122360, Note_on_c, 0, 67, 51
1, 122397, Note_off_c, 0, 67, 59
1, 122421, Note_on_c, 0, 77, 60
1, 122481, Note_off_c, 0, 77, 62
1, 122503, Note_on_c, 0, 67, 67
1, 122557, Note_off_c, 0, 67, 63
1, 122579, Note_on_c, 0, 76, 60
1, 122640, Note_off_c, 0, 76, 60
1, 122683, Note_on_c, 0, 67, 57
1, 122724, Note_off_c, 0, 67, 65
1, 122744, Note_on_c, 0, 55, 62
1, 122753, Note_on_c, 0, 76, 58
1, 122755, Note_off_c, 0, 48, 61
1, 122785, Note_off_c, 0, 76, 59
1, 122805, Note_off_c, 0, 55, 63
1, 122805, Note_on_c, 0, 52, 65
1, 122832, Note_on_c, 0, 67, 58
1, 122872, Note_off_c, 0, 67, 64
1, 122892, Note_on_c, 0, 76, 54
1, 122966, Note_off_c, 0, 76, 63
1, 123006, Note_on_c, 0, 67, 54
1, 123046, Note_off_c, 0, 52, 60
1, 123051, Note_off_c, 0, 67, 63
1, 123059, Note_on_c, 0, 49, 66
1, 123069, Note_on_c, 0, 76, 56
1, 123107, Note_off_c, 0, 76, 62
1, 123121, Note_off_c, 0, 49, 60
1, 123136, Note_on_c, 0, 65, 62
1, 123139, Note_on_c, 0, 52, 66
1, 123190, Note_off_c, 0, 65, 59
1, 123223, Note_on_c, 0, 76, 62
1, 123247, Note_off_c, 0, 52, 59
1, 123264, Note_off_c, 0, 76, 62
1, 123297, Note_on_c, 0, 50, 51
1, 123301, Note_on_c, 0, 65, 60
1, 123324, Note_off_c, 0, 50, 55
1, 123337, Note_off_c, 0, 65, 65
1, 123379, Note_on_c, 0, 76, 53
1, 123409, Note_off_c, 0, 76, 56
1, 123446, Note_on_c, 0, 50, 73
1, 123449, Note_on_c, 0, 65, 63
1, 123476, Note_off_c, 0, 50, 64
1, 123487, Note_off_c, 0, 65, 61
1, 123501, Note_on_c, 0, 76, 59
1, 123568, Note_off_c, 0, 76, 63
1, 123612, Note_on_c, 0, 65, 64
1, 123613, Note_on_c, 0, 50, 73
1, 123648, Note_off_c, 0, 65, 64
1, 123649, Note_off_c, 0, 50, 58
1, 123681, Note_on_c, 0, 76, 61
1, 123736, Note_off_c, 0, 76, 64
1, 123759, Control_c, 0, 64, 8
1, 123774, Control_c, 0, 64, 48
1, 123775, Note_on_c, 0, 65, 68
1, 123777, Note_on_c, 0, 50, 79
1, 123789, Control_c, 0, 64, 62
1, 123804, Control_c, 0, 64, 89
1, 123819, Control_c, 0, 64, 127
1, 123828, Note_off_c, 0, 65, 60
1, 123855, Note_on_c, 0, 74, 56
1, 123911, Note_off_c, 0, 74, 62
1, 123922, Control_c, 0, 64, 105
1, 123929, Note_off_c, 0, 50, 62
1, 123937, Control_c, 0, 64, 69
1, 123944, Note_on_c, 0, 52, 70
1, 123946, Note_on_c, 0, 65, 61
1, 123952, Control_c, 0, 64, 55
1, 123966, Control_c, 0, 64, 32
1, 123981, Control_c, 0, 64, 0
1, 123989, Note_off_c, 0, 65, 59
1, 123996, Note_off_c, 0, 52, 63
1, 124010, Note_on_c, 0, 74, 60
1, 124011, Note_on_c, 0, 50, 67
1, 124026, Control_c, 0, 64, 17
1, 124040, Control_c, 0, 64, 28
1, 124055, Control_c, 0, 64, 37
1, 124059, Note_off_c, 0, 74, 66
1, 124070, Control_c, 0, 64, 44
1, 124080, Note_off_c, 0, 50, 59
1, 124085, Control_c, 0, 64, 50
1, 124093, Note_on_c, 0, 48, 83
1, 124095, Note_on_c, 0, 65, 62
1, 124100, Control_c, 0, 64, 52
1, 124114, Control_c, 0, 64, 50
1, 124129, Control_c, 0, 64, 44
1, 124135, Note_off_c, 0, 65, 63
1, 124144, Control_c, 0, 64, 35
1, 124149, Note_on_c, 0, 74, 62
1, 124159, Control_c, 0, 64, 24
1, 124165, Note_on_c, 0, 47, 75
1, 124168, Note_off_c, 0, 48, 64
1, 124174, Control_c, 0, 64, 16
1, 124189, Control_c, 0, 64, 14
1, 124204, Control_c, 0, 64, 12
1, 124207, Note_off_c, 0, 74, 62
1, 124218, Control_c, 0, 64, 11
1, 124233, Control_c, 0, 64, 9
1, 124236, Note_on_c, 0, 45, 73
1, 124242, Note_off_c, 0, 47, 65
1, 124248, Control_c, 0, 64, 0
1, 124248, Note_on_c, 0, 65, 58
1, 124284, Note_off_c, 0, 65, 65
1, 124319, Note_on_c, 0, 74, 63
1, 124326, Note_off_c, 0, 45, 63
1, 124327, Note_on_c, 0, 44, 71
1, 124370, Note_off_c, 0, 74, 64
1, 124395, Note_on_c, 0, 47, 76
1, 124405, Note_on_c, 0, 64, 62
1, 124415, Note_off_c, 0, 44, 60
1, 124454, Note_off_c, 0, 64, 57
1, 124483, Note_on_c, 0, 74, 61
1, 124534, Note_off_c, 0, 74, 63
1, 124553, Note_on_c, 0, 45, 73
1, 124565, Note_off_c, 0, 47, 61
1, 124572, Note_on_c, 0, 64, 50
1, 124602, Note_off_c, 0, 45, 63
1, 124621, Note_off_c, 0, 64, 59
1, 124642, Note_on_c, 0, 74, 55
1, 124692, Note_off_c, 0, 74, 62
1, 124724, Note_on_c, 0, 45, 69
1, 124740, Note_on_c, 0, 64, 47
1, 124782, Note_off_c, 0, 64, 58
1, 124786, Note_off_c, 0, 45, 60
1, 124808, Note_on_c, 0, 72, 56
1, 124867, Note_off_c, 0, 72, 58
1, 124895, Note_on_c, 0, 45, 70
1, 124897, Note_on_c, 0, 64, 53
1, 124949, Note_off_c, 0, 45, 60
1, 124961, Note_off_c, 0, 64, 59
1, 124985, Note_on_c, 0, 72, 54
1, 125041, Note_off_c, 0, 72, 55
1, 125072, Note_on_c, 0, 45, 56
1, 125092, Note_on_c, 0, 64, 51
1, 125138, Control_c, 0, 64, 15
1, 125139, Note_off_c, 0, 64, 59
1, 125153, Control_c, 0, 64, 26
1, 125163, Note_on_c, 0, 71, 57
1, 125168, Control_c, 0, 64, 34
1, 125183, Control_c, 0, 64, 41
1, 125199, Control_c, 0, 64, 48
1, 125213, Control_c, 0, 64, 56
1, 125226, Note_off_c, 0, 71, 56
1, 125228, Control_c, 0, 64, 62
1, 125239, Note_on_c, 0, 43, 63
1, 125243, Control_c, 0, 64, 66
1, 125258, Control_c, 0, 64, 68
1, 125259, Note_on_c, 0, 64, 57
1, 125273, Control_c, 0, 64, 69
1, 125287, Control_c, 0, 64, 70
1, 125298, Note_off_c, 0, 45, 43
1, 125298, Note_off_c, 0, 43, 59
1, 125302, Control_c, 0, 64, 72
1, 125313, Note_off_c, 0, 64, 58
1, 125317, Control_c, 0, 64, 77
1, 125320, Note_on_c, 0, 71, 60
1, 125332, Control_c, 0, 64, 90
1, 125347, Control_c, 0, 64, 109
1, 125351, Note_off_c, 0, 71, 67
1, 125361, Control_c, 0, 64, 127
1, 125391, Control_c, 0, 64, 105
1, 125406, Control_c, 0, 64, 76
1, 125411, Note_on_c, 0, 71, 72
1, 125412, Note_on_c, 0, 43, 60
1, 125420, Control_c, 0, 64, 60
1, 125423, Note_on_c, 0, 64, 56
1, 125435, Control_c, 0, 64, 36
1, 125450, Control_c, 0, 64, 0
1, 125456, Note_off_c, 0, 64, 52
1, 125486, Note_on_c, 0, 76, 70
1, 125491, Note_off_c, 0, 71, 63
1, 125494, Control_c, 0, 64, 22
1, 125509, Control_c, 0, 64, 33
1, 125524, Control_c, 0, 64, 44
1, 125539, Control_c, 0, 64, 54
1, 125554, Control_c, 0, 64, 62
1, 125568, Note_on_c, 0, 64, 56
1, 125569, Control_c, 0, 64, 67
1, 125570, Note_off_c, 0, 76, 63
1, 125575, Note_on_c, 0, 55, 58
1, 125575, Note_on_c, 0, 71, 65
1, 125578, Note_off_c, 0, 43, 32
1, 125584, Control_c, 0, 64, 70
1, 125622, Note_off_c, 0, 64, 59
1, 125653, Note_off_c, 0, 71, 66
1, 125655, Note_on_c, 0, 76, 71
1, 125673, Control_c, 0, 64, 69
1, 125687, Control_c, 0, 64, 68
1, 125702, Control_c, 0, 64, 66
1, 125715, Note_off_c, 0, 76, 63
1, 125717, Control_c, 0, 64, 64
1, 125731, Control_c, 0, 64, 63
1, 125746, Control_c, 0, 64, 63
1, 125761, Control_c, 0, 64, 61
1, 125776, Control_c, 0, 64, 60
1, 125791, Control_c, 0, 64, 56
1, 125805, Control_c, 0, 64, 52
1, 125827, Control_c, 0, 64, 46
1, 125842, Control_c, 0, 64, 41
1, 125847, Note_on_c, 0, 76, 58
1, 125857, Control_c, 0, 64, 38
1, 125859, Note_on_c, 0, 54, 36
1, 125867, Note_on_c, 0, 69, 39
1, 125871, Control_c, 0, 64, 35
1, 125885, Note_off_c, 0, 55, 30
1, 125886, Control_c, 0, 64, 31
1, 125901, Control_c, 0, 64, 27
1, 125916, Control_c, 0, 64, 20
1, 125931, Control_c, 0, 64, 13
1, 125945, Control_c, 0, 64, 0
1, 126087, Note_on_c, 0, 75, 45
1, 126107, Note_off_c, 0, 76, 37
1, 126120, Note_off_c, 0, 69, 43
1, 126252, Note_off_c, 0, 75, 57
1, 126260, Note_on_c, 0, 53, 42
1, 126309, Note_off_c, 0, 54, 40
1, 126418, Note_on_c, 0, 74, 54
1, 126432, Note_on_c, 0, 69, 48
1, 126475, Note_off_c, 0, 74, 63
1, 126475, Note_off_c, 0, 69, 61
1, 126600, Note_on_c, 0, 74, 46
1, 126604, Note_on_c, 0, 52, 38
1, 126608, Note_on_c, 0, 69, 34
1, 126637, Note_off_c, 0, 53, 40
1, 126784, Note_on_c, 0, 73, 44
1, 126789, Note_off_c, 0, 52, 54
1, 126821, Note_off_c, 0, 74, 49
1, 126897, Note_off_c, 0, 69, 42
1, 126951, Note_on_c, 0, 52, 43
1, 127001, Note_off_c, 0, 73, 61
1, 127137, Note_on_c, 0, 72, 55
1, 127142, Note_on_c, 0, 69, 46
1, 127198, Note_off_c, 0, 69, 59
1, 127235, Note_off_c, 0, 72, 54
1, 127295, Note_off_c, 0, 52, 34
1, 127314, Note_on_c, 0, 70, 52
1, 127328, Note_on_c, 0, 50, 38
1, 127328, Note_on_c, 0, 69, 40
1, 127491, Note_on_c, 0, 71, 53
1, 127533, Note_off_c, 0, 70, 61
1, 127605, Note_off_c, 0, 69, 39
1, 127650, Note_off_c, 0, 71, 64
1, 127663, Note_on_c, 0, 52, 56
1, 127801, Note_off_c, 0, 50, 41
1, 127828, Note_on_c, 0, 73, 61
1, 127834, Note_on_c, 0, 69, 48
1, 127977, Note_off_c, 0, 69, 54
1, 128005, Note_on_c, 0, 53, 55
1, 128037, Note_off_c, 0, 52, 32
1, 128046, Note_off_c, 0, 73, 60
1, 128190, Note_on_c, 0, 74, 53
1, 128202, Note_on_c, 0, 69, 44
1, 128358, Note_off_c, 0, 53, 45
1, 128359, Note_off_c, 0, 69, 39
1, 128366, Note_on_c, 0, 49, 47
1, 128386, Note_off_c, 0, 74, 56
1, 128386, Control_c, 0, 67, 8
1, 128401, Control_c, 0, 67, 11
1, 128416, Control_c, 0, 67, 15
1, 128430, Control_c, 0, 67, 19
1, 128445, Control_c, 0, 67, 25
1, 128460, Control_c, 0, 67, 35
1, 128475, Control_c, 0, 67, 48
1, 128490, Control_c, 0, 67, 68
1, 128505, Control_c, 0, 67, 88
1, 128519, Control_c, 0, 67, 106
1, 128534, Control_c, 0, 67, 122
1, 128549, Control_c, 0, 67, 127
1, 128557, Note_on_c, 0, 76, 55
1, 128563, Control_c, 0, 64, 14
1, 128574, Note_on_c, 0, 69, 47
1, 128578, Control_c, 0, 64, 25
1, 128593, Control_c, 0, 64, 34
1, 128608, Control_c, 0, 64, 43
1, 128623, Control_c, 0, 64, 53
1, 128637, Control_c, 0, 64, 61
1, 128652, Control_c, 0, 64, 66
1, 128667, Control_c, 0, 64, 70
1, 128682, Control_c, 0, 64, 71
1, 128695, Note_off_c, 0, 69, 57
1, 128697, Control_c, 0, 64, 72
1, 128711, Control_c, 0, 64, 72
1, 128716, Note_off_c, 0, 76, 63
1, 128739, Note_off_c, 0, 49, 35
1, 128785, Control_c, 0, 64, 72
1, 128809, Control_c, 0, 64, 71
1, 128824, Control_c, 0, 64, 69
1, 128838, Control_c, 0, 64, 66
1, 128853, Note_on_c, 0, 79, 48
1, 128853, Control_c, 0, 64, 64
1, 128864, Note_on_c, 0, 69, 36
1, 128868, Control_c, 0, 64, 61
1, 128871, Note_on_c, 0, 50, 32
1, 128882, Control_c, 0, 64, 57
1, 128897, Note_off_c, 0, 79, 0
1, 128897, Note_on_c, 0, 79, 17
1, 128897, Control_c, 0, 64, 51
1, 128912, Control_c, 0, 64, 43
1, 128927, Control_c, 0, 64, 33
1, 128942, Control_c, 0, 64, 24
1, 128956, Control_c, 0, 64, 18
1, 128971, Control_c, 0, 64, 11
1, 128986, Control_c, 0, 64, 0
1, 129128, Note_on_c, 0, 77, 49
1, 129262, Note_off_c, 0, 79, 41
1, 129305, Note_on_c, 0, 52, 42
1, 129343, Note_off_c, 0, 50, 36
1, 129402, Control_c, 0, 64, 15
1, 129417, Control_c, 0, 64, 22
1, 129432, Control_c, 0, 64, 28
1, 129447, Control_c, 0, 64, 34
1, 129461, Control_c, 0, 64, 39
1, 129476, Control_c, 0, 64, 45
1, 129479, Note_on_c, 0, 76, 50
1, 129491, Control_c, 0, 64, 53
1, 129502, Note_off_c, 0, 77, 36
1, 129505, Control_c, 0, 64, 59
1, 129520, Control_c, 0, 64, 63
1, 129535, Control_c, 0, 64, 65
1, 129559, Note_off_c, 0, 76, 61
1, 129586, Control_c, 0, 64, 66
1, 129646, Control_c, 0, 64, 65
1, 129660, Control_c, 0, 64, 65
1, 129670, Note_off_c, 0, 52, 34
1, 129673, Note_on_c, 0, 74, 47
1, 129675, Control_c, 0, 64, 63
1, 129682, Note_on_c, 0, 53, 42
1, 129690, Control_c, 0, 64, 59
1, 129704, Control_c, 0, 64, 52
1, 129719, Control_c, 0, 64, 37
1, 129734, Control_c, 0, 64, 10
1, 129749, Control_c, 0, 64, 0
1, 129808, Control_c, 0, 64, 9
1, 129823, Control_c, 0, 64, 16
1, 129831, Note_off_c, 0, 74, 57
1, 129838, Control_c, 0, 64, 22
1, 129852, Note_off_c, 0, 69, 56
1, 129852, Control_c, 0, 64, 26
1, 129857, Note_on_c, 0, 72, 50
1, 129867, Control_c, 0, 64, 29
1, 129882, Control_c, 0, 64, 33
1, 129897, Control_c, 0, 64, 36
1, 129912, Control_c, 0, 64, 39
1, 129927, Control_c, 0, 64, 44
1, 129942, Control_c, 0, 64, 49
1, 129957, Control_c, 0, 64, 54
1, 129972, Control_c, 0, 64, 58
1, 129987, Control_c, 0, 64, 61
1, 130001, Control_c, 0, 64, 61
1, 130028, Note_off_c, 0, 72, 34
1, 130031, Control_c, 0, 64, 60
1, 130046, Control_c, 0, 64, 57
1, 130052, Note_on_c, 0, 51, 41
1, 130055, Note_on_c, 0, 71, 46
1, 130061, Control_c, 0, 64, 49
1, 130062, Note_on_c, 0, 66, 43
1, 130065, Note_off_c, 0, 53, 34
1, 130076, Control_c, 0, 64, 31
1, 130091, Control_c, 0, 64, 0
1, 130165, Control_c, 0, 64, 18
1, 130180, Control_c, 0, 64, 29
1, 130195, Control_c, 0, 64, 38
1, 130209, Control_c, 0, 64, 51
1, 130224, Control_c, 0, 64, 60
1, 130234, Note_off_c, 0, 51, 61
1, 130239, Control_c, 0, 64, 68
1, 130254, Control_c, 0, 64, 77
1, 130262, Note_on_c, 0, 69, 43
1, 130269, Control_c, 0, 64, 83
1, 130283, Control_c, 0, 64, 87
1, 130297, Control_c, 0, 64, 92
1, 130297, Control_c, 0, 67, 109
1, 130307, Note_off_c, 0, 69, 67
1, 130316, Note_off_c, 0, 71, 23
1, 130320, Control_c, 0, 64, 100
1, 130320, Control_c, 0, 67, 92
1, 130322, Note_off_c, 0, 66, 39
1, 130334, Control_c, 0, 64, 108
1, 130334, Control_c, 0, 67, 79
1, 130349, Control_c, 0, 64, 127
1, 130349, Control_c, 0, 67, 70
1, 130364, Control_c, 0, 67, 63
1, 130379, Control_c, 0, 67, 59
1, 130394, Control_c, 0, 67, 57
1, 130408, Control_c, 0, 67, 55
1, 130438, Control_c, 0, 67, 54
1, 130452, Note_on_c, 0, 68, 59
1, 130453, Control_c, 0, 67, 53
1, 130468, Control_c, 0, 64, 89
1, 130468, Control_c, 0, 67, 50
1, 130482, Control_c, 0, 64, 51
1, 130482, Control_c, 0, 67, 41
1, 130497, Control_c, 0, 64, 0
1, 130497, Control_c, 0, 67, 24
1, 130498, Note_on_c, 0, 71, 74
1, 130508, Note_off_c, 0, 68, 61
1, 130511, Note_on_c, 0, 76, 85
1, 130512, Control_c, 0, 67, 0
1, 130522, Note_on_c, 0, 52, 67
1, 130526, Note_off_c, 0, 71, 68
1, 130526, Control_c, 0, 64, 36
1, 130541, Control_c, 0, 64, 59
1, 130545, Note_off_c, 0, 76, 64
1, 130556, Control_c, 0, 64, 127
1, 130581, Note_on_c, 0, 59, 66
1, 130648, Note_off_c, 0, 59, 61
1, 130660, Note_on_c, 0, 56, 69
1, 130687, Note_off_c, 0, 52, 0
1, 130687, Note_on_c, 0, 52, 2
1, 130738, Note_off_c, 0, 56, 61
1, 130739, Note_off_c, 0, 52, 49
1, 130752, Note_on_c, 0, 59, 65
1, 130810, Note_off_c, 0, 59, 60
1, 130835, Note_on_c, 0, 76, 93
1, 130848, Note_on_c, 0, 52, 70
1, 130865, Note_off_c, 0, 76, 59
1, 130922, Note_on_c, 0, 59, 64
1, 130988, Note_off_c, 0, 59, 60
1, 130991, Note_on_c, 0, 56, 60
1, 131072, Note_off_c, 0, 56, 62
1, 131088, Note_on_c, 0, 59, 62
1, 131094, Note_off_c, 0, 52, 54
1, 131098, Note_on_c, 0, 76, 81
1, 131118, Note_off_c, 0, 76, 74
1, 131128, Control_c, 0, 64, 63
1, 131137, Note_off_c, 0, 59, 60
1, 131143, Control_c, 0, 64, 32
1, 131157, Control_c, 0, 64, 0
1, 131164, Note_on_c, 0, 76, 101
1, 131172, Control_c, 0, 64, 26
1, 131185, Note_on_c, 0, 52, 66
1, 131187, Control_c, 0, 64, 46
1, 131192, Note_off_c, 0, 76, 71
1, 131202, Control_c, 0, 64, 65
1, 131217, Control_c, 0, 64, 127
1, 131237, Note_on_c, 0, 60, 69
1, 131316, Note_off_c, 0, 60, 62
1, 131319, Note_on_c, 0, 57, 66
1, 131382, Note_off_c, 0, 57, 61
1, 131401, Note_on_c, 0, 60, 67
1, 131419, Note_off_c, 0, 52, 63
1, 131468, Note_off_c, 0, 60, 62
1, 131499, Note_on_c, 0, 76, 99
1, 131510, Note_on_c, 0, 52, 70
1, 131529, Note_off_c, 0, 76, 62
1, 131574, Note_on_c, 0, 62, 73
1, 131649, Note_off_c, 0, 62, 62
1, 131662, Note_on_c, 0, 59, 64
1, 131730, Note_off_c, 0, 59, 61
1, 131740, Note_on_c, 0, 62, 68
1, 131763, Note_off_c, 0, 52, 62
1, 131817, Note_off_c, 0, 62, 60
1, 131832, Control_c, 0, 64, 63
1, 131847, Control_c, 0, 64, 21
1, 131850, Note_on_c, 0, 81, 100
1, 131852, Note_on_c, 0, 69, 94
1, 131861, Control_c, 0, 64, 0
1, 131873, Note_on_c, 0, 52, 64
1, 131921, Control_c, 0, 64, 28
1, 131923, Note_off_c, 0, 52, 61
1, 131929, Note_on_c, 0, 60, 61
1, 131936, Control_c, 0, 64, 43
1, 131951, Control_c, 0, 64, 55
1, 131966, Control_c, 0, 64, 67
1, 131980, Control_c, 0, 64, 84
1, 131995, Control_c, 0, 64, 113
1, 132007, Note_off_c, 0, 60, 63
1, 132010, Control_c, 0, 64, 127
1, 132020, Note_on_c, 0, 57, 62
1, 132091, Note_off_c, 0, 57, 61
1, 132103, Note_on_c, 0, 60, 66
1, 132167, Note_off_c, 0, 60, 61
1, 132187, Control_c, 0, 64, 70
1, 132195, Note_on_c, 0, 52, 75
1, 132202, Control_c, 0, 64, 55
1, 132217, Control_c, 0, 64, 44
1, 132231, Control_c, 0, 64, 48
1, 132241, Note_off_c, 0, 81, 57
1, 132246, Control_c, 0, 64, 56
1, 132252, Note_off_c, 0, 52, 63
1, 132261, Control_c, 0, 64, 64
1, 132272, Note_on_c, 0, 60, 69
1, 132276, Control_c, 0, 64, 76
1, 132291, Control_c, 0, 64, 98
1, 132306, Control_c, 0, 64, 127
1, 132346, Note_off_c, 0, 60, 60
1, 132360, Note_on_c, 0, 57, 64
1, 132361, Note_on_c, 0, 79, 77
1, 132415, Note_off_c, 0, 57, 57
1, 132425, Note_on_c, 0, 60, 59
1, 132428, Note_on_c, 0, 77, 84
1, 132467, Note_off_c, 0, 79, 61
1, 132470, Control_c, 0, 64, 114
1, 132484, Control_c, 0, 64, 70
1, 132499, Note_on_c, 0, 76, 87
1, 132499, Control_c, 0, 64, 51
1, 132502, Note_off_c, 0, 60, 60
1, 132514, Control_c, 0, 64, 23
1, 132524, Note_on_c, 0, 52, 67
1, 132529, Control_c, 0, 64, 0
1, 132566, Control_c, 0, 64, 18
1, 132570, Note_off_c, 0, 77, 60
1, 132581, Control_c, 0, 64, 30
1, 132586, Note_off_c, 0, 52, 63
1, 132596, Control_c, 0, 64, 38
1, 132610, Note_on_c, 0, 60, 66
1, 132610, Control_c, 0, 64, 50
1, 132625, Control_c, 0, 64, 59
1, 132640, Control_c, 0, 64, 66
1, 132655, Control_c, 0, 64, 73
1, 132670, Control_c, 0, 64, 77
1, 132677, Note_off_c, 0, 60, 62
1, 132682, Note_on_c, 0, 57, 66
1, 132684, Control_c, 0, 64, 78
1, 132699, Control_c, 0, 64, 82
1, 132714, Control_c, 0, 64, 100
1, 132729, Control_c, 0, 64, 127
1, 132738, Note_off_c, 0, 57, 59
1, 132757, Note_on_c, 0, 60, 65
1, 132818, Control_c, 0, 64, 85
1, 132825, Note_off_c, 0, 60, 61
1, 132833, Control_c, 0, 64, 59
1, 132845, Note_on_c, 0, 75, 87
1, 132848, Control_c, 0, 64, 29
1, 132863, Control_c, 0, 64, 0
1, 132864, Note_on_c, 0, 52, 63
1, 132872, Note_off_c, 0, 76, 64
1, 132892, Control_c, 0, 64, 31
1, 132902, Note_off_c, 0, 69, 63
1, 132907, Control_c, 0, 64, 47
1, 132921, Control_c, 0, 64, 62
1, 132925, Note_off_c, 0, 75, 65
1, 132934, Note_on_c, 0, 60, 67
1, 132936, Control_c, 0, 64, 82
1, 132951, Control_c, 0, 64, 127
1, 132995, Note_off_c, 0, 60, 62
1, 133007, Note_on_c, 0, 57, 57
1, 133067, Note_off_c, 0, 57, 57
1, 133069, Control_c, 0, 67, 9
1, 133082, Note_on_c, 0, 60, 60
1, 133084, Control_c, 0, 67, 13
1, 133085, Note_on_c, 0, 68, 67
1, 133087, Note_off_c, 0, 52, 45
1, 133099, Control_c, 0, 67, 19
1, 133114, Control_c, 0, 67, 34
1, 133128, Control_c, 0, 67, 60
1, 133131, Note_on_c, 0, 71, 66
1, 133131, Note_off_c, 0, 60, 58
1, 133138, Note_off_c, 0, 68, 62
1, 133143, Control_c, 0, 67, 100
1, 133158, Control_c, 0, 64, 88
1, 133158, Control_c, 0, 67, 127
1, 133174, Control_c, 0, 64, 56
1, 133175, Note_on_c, 0, 76, 82
1, 133189, Control_c, 0, 64, 12
1, 133192, Note_on_c, 0, 52, 61
1, 133200, Note_off_c, 0, 71, 66
1, 133204, Control_c, 0, 64, 0
1, 133248, Control_c, 0, 64, 12
1, 133252, Note_on_c, 0, 59, 56
1, 133263, Control_c, 0, 64, 32
1, 133278, Control_c, 0, 64, 43
1, 133300, Control_c, 0, 64, 52
1, 133315, Control_c, 0, 64, 60
1, 133319, Note_off_c, 0, 59, 58
1, 133330, Control_c, 0, 64, 65
1, 133340, Note_on_c, 0, 56, 57
1, 133345, Control_c, 0, 64, 68
1, 133359, Control_c, 0, 64, 68
1, 133374, Control_c, 0, 64, 69
1, 133389, Control_c, 0, 64, 73
1, 133400, Note_off_c, 0, 56, 61
1, 133404, Control_c, 0, 64, 83
1, 133419, Control_c, 0, 64, 119
1, 133422, Note_on_c, 0, 59, 59
1, 133430, Note_off_c, 0, 52, 43
1, 133433, Control_c, 0, 64, 127
1, 133437, Note_off_c, 0, 76, 58
1, 133471, Note_off_c, 0, 59, 55
1, 133492, Control_c, 0, 64, 83
1, 133505, Note_on_c, 0, 76, 77
1, 133507, Control_c, 0, 64, 59
1, 133522, Control_c, 0, 64, 25
1, 133525, Note_off_c, 0, 76, 73
1, 133534, Note_on_c, 0, 52, 52
1, 133537, Control_c, 0, 64, 0
1, 133584, Note_on_c, 0, 59, 59
1, 133640, Note_off_c, 0, 52, 0
1, 133651, Note_off_c, 0, 59, 60
1, 133667, Note_on_c, 0, 56, 51
1, 133677, Poly_aftertouch_c, 0, 52, 127
1, 133712, Note_off_c, 0, 56, 61
1, 133737, Note_on_c, 0, 59, 45
1, 133742, Poly_aftertouch_c, 0, 52, 0
1, 133743, Note_on_c, 0, 76, 72
1, 133760, Note_off_c, 0, 76, 71
1, 133775, Note_off_c, 0, 59, 63
1, 133816, Note_on_c, 0, 76, 72
1, 133843, Note_on_c, 0, 52, 49
1, 133888, Note_on_c, 0, 60, 55
1, 133968, Note_off_c, 0, 60, 62
1, 133988, Note_on_c, 0, 57, 55
1, 134039, Note_off_c, 0, 57, 60
1, 134043, Note_off_c, 0, 52, 17
1, 134052, Note_off_c, 0, 76, 59
1, 134079, Note_on_c, 0, 60, 42
1, 134106, Note_off_c, 0, 60, 58
1, 134153, Note_on_c, 0, 76, 65
1, 134153, Control_c, 0, 64, 14
1, 134168, Control_c, 0, 64, 27
1, 134171, Note_on_c, 0, 52, 53
1, 134182, Control_c, 0, 64, 38
1, 134197, Control_c, 0, 64, 48
1, 134212, Control_c, 0, 64, 59
1, 134227, Control_c, 0, 64, 67
1, 134228, Note_on_c, 0, 62, 59
1, 134242, Control_c, 0, 64, 72
1, 134256, Control_c, 0, 64, 73
1, 134266, Note_off_c, 0, 52, 37
1, 134275, Note_off_c, 0, 62, 59
1, 134311, Note_on_c, 0, 59, 46
1, 134353, Note_off_c, 0, 76, 61
1, 134356, Note_off_c, 0, 59, 61
1, 134383, Note_on_c, 0, 62, 54
1, 134431, Note_off_c, 0, 62, 61
1, 134434, Control_c, 0, 64, 73
1, 134449, Control_c, 0, 64, 69
1, 134464, Control_c, 0, 64, 62
1, 134479, Control_c, 0, 64, 50
1, 134492, Note_on_c, 0, 81, 67
1, 134493, Control_c, 0, 64, 26
1, 134494, Note_on_c, 0, 69, 58
1, 134504, Note_on_c, 0, 52, 36
1, 134508, Control_c, 0, 64, 0
1, 134546, Note_off_c, 0, 52, 55
1, 134576, Note_on_c, 0, 60, 44
1, 134631, Note_off_c, 0, 60, 63
1, 134649, Note_on_c, 0, 57, 52
1, 134702, Note_off_c, 0, 57, 58
1, 134715, Control_c, 0, 64, 30
1, 134730, Control_c, 0, 64, 53
1, 134742, Note_on_c, 0, 60, 49
1, 134745, Control_c, 0, 64, 78
1, 134760, Control_c, 0, 64, 127
1, 134780, Note_off_c, 0, 60, 61
1, 134798, Control_c, 0, 64, 68
1, 134813, Control_c, 0, 64, 45
1, 134827, Control_c, 0, 64, 0
1, 134832, Note_on_c, 0, 52, 51
1, 134863, Note_off_c, 0, 52, 60
1, 134867, Note_off_c, 0, 81, 53
1, 134887, Note_on_c, 0, 60, 49
1, 134902, Control_c, 0, 64, 12
1, 134917, Control_c, 0, 64, 14
1, 134931, Control_c, 0, 64, 16
1, 134946, Control_c, 0, 64, 24
1, 134961, Control_c, 0, 64, 34
1, 134964, Note_off_c, 0, 60, 61
1, 134976, Control_c, 0, 64, 41
1, 134982, Note_on_c, 0, 57, 51
1, 134988, Note_on_c, 0, 79, 58
1, 134991, Control_c, 0, 64, 43
1, 135005, Control_c, 0, 64, 40
1, 135019, Note_off_c, 0, 57, 63
1, 135020, Control_c, 0, 64, 29
1, 135035, Control_c, 0, 64, 0
1, 135052, Note_on_c, 0, 77, 66
1, 135058, Note_off_c, 0, 79, 55
1, 135060, Note_on_c, 0, 60, 45
1, 135096, Note_off_c, 0, 60, 54
1, 135131, Note_on_c, 0, 76, 64
1, 135131, Note_off_c, 0, 77, 60
1, 135150, Note_on_c, 0, 52, 44
1, 135176, Note_off_c, 0, 52, 60
1, 135199, Note_on_c, 0, 60, 57
1, 135262, Note_off_c, 0, 60, 60
1, 135287, Note_on_c, 0, 57, 51
1, 135325, Note_off_c, 0, 57, 57
1, 135367, Note_on_c, 0, 60, 50
1, 135409, Note_off_c, 0, 60, 63
1, 135456, Note_on_c, 0, 75, 61
1, 135464, Control_c, 0, 64, 20
1, 135465, Note_on_c, 0, 52, 49
1, 135479, Control_c, 0, 64, 31
1, 135483, Note_off_c, 0, 76, 57
1, 135494, Control_c, 0, 64, 40
1, 135504, Note_off_c, 0, 52, 65
1, 135509, Control_c, 0, 64, 50
1, 135523, Control_c, 0, 64, 58
1, 135524, Note_on_c, 0, 60, 60
1, 135546, Control_c, 0, 64, 64
1, 135561, Control_c, 0, 64, 66
1, 135567, Note_off_c, 0, 75, 60
1, 135577, Control_c, 0, 64, 66
1, 135597, Note_off_c, 0, 60, 62
1, 135621, Control_c, 0, 64, 67
1, 135629, Note_on_c, 0, 57, 48
1, 135636, Control_c, 0, 64, 70
1, 135651, Control_c, 0, 64, 77
1, 135666, Control_c, 0, 64, 103
1, 135671, Note_off_c, 0, 57, 61
1, 135680, Control_c, 0, 64, 127
1, 135698, Note_on_c, 0, 60, 48
1, 135718, Note_off_c, 0, 60, 64
1, 135740, Note_off_c, 0, 69, 43
1, 135740, Control_c, 0, 64, 81
1, 135755, Control_c, 0, 64, 50
1, 135769, Control_c, 0, 64, 0
1, 135769, Control_c, 0, 67, 113
1, 135784, Control_c, 0, 64, 20
1, 135784, Control_c, 0, 67, 46
1, 135786, Note_on_c, 0, 56, 80
1, 135786, Note_on_c, 0, 76, 85
1, 135787, Note_on_c, 0, 52, 80
1, 135790, Note_on_c, 0, 59, 71
1, 135799, Control_c, 0, 64, 43
1, 135799, Control_c, 0, 67, 0
1, 135806, Note_off_c, 0, 59, 66
1, 135807, Note_off_c, 0, 56, 68
1, 135809, Note_off_c, 0, 52, 72
1, 135814, Control_c, 0, 64, 63
1, 135829, Control_c, 0, 64, 127
1, 135861, Note_off_c, 0, 76, 59
1, 135874, Note_on_c, 0, 71, 70
1, 135945, Note_off_c, 0, 71, 64
1, 135954, Note_on_c, 0, 68, 71
1, 136020, Note_off_c, 0, 68, 58
1, 136036, Note_on_c, 0, 71, 66
1, 136051, Control_c, 0, 64, 66
1, 136066, Control_c, 0, 64, 41
1, 136080, Control_c, 0, 64, 0
1, 136115, Note_off_c, 0, 71, 65
1, 136122, Note_on_c, 0, 76, 75
1, 136198, Note_off_c, 0, 76, 61
1, 136200, Note_on_c, 0, 72, 69
1, 136268, Note_off_c, 0, 72, 62
1, 136271, Note_on_c, 0, 57, 72
1, 136276, Note_on_c, 0, 45, 73
1, 136295, Note_on_c, 0, 69, 71
1, 136303, Note_off_c, 0, 57, 67
1, 136308, Note_off_c, 0, 45, 67
1, 136356, Note_off_c, 0, 69, 63
1, 136376, Note_on_c, 0, 72, 62
1, 136431, Note_off_c, 0, 72, 59
1, 136443, Control_c, 0, 64, 32
1, 136449, Note_on_c, 0, 76, 77
1, 136454, Note_on_c, 0, 40, 84
1, 136454, Note_on_c, 0, 52, 79
1, 136458, Control_c, 0, 64, 44
1, 136473, Control_c, 0, 64, 56
1, 136477, Note_off_c, 0, 40, 68
1, 136478, Note_off_c, 0, 52, 73
1, 136488, Control_c, 0, 64, 65
1, 136503, Control_c, 0, 64, 75
1, 136518, Control_c, 0, 64, 79
1, 136519, Note_off_c, 0, 76, 65
1, 136527, Note_on_c, 0, 71, 72
1, 136607, Note_off_c, 0, 71, 65
1, 136621, Note_on_c, 0, 68, 75
1, 136637, Control_c, 0, 64, 79
1, 136651, Control_c, 0, 64, 77
1, 136666, Control_c, 0, 64, 74
1, 136681, Control_c, 0, 64, 69
1, 136688, Note_off_c, 0, 68, 59
1, 136695, Control_c, 0, 64, 62
1, 136703, Note_on_c, 0, 71, 60
1, 136710, Control_c, 0, 64, 48
1, 136725, Control_c, 0, 64, 16
1, 136740, Control_c, 0, 64, 0
1, 136782, Note_on_c, 0, 76, 82
1, 136795, Note_off_c, 0, 71, 52
1, 136858, Note_off_c, 0, 76, 63
1, 136860, Note_on_c, 0, 72, 74
1, 136934, Note_off_c, 0, 72, 61
1, 136938, Note_on_c, 0, 57, 70
1, 136944, Note_on_c, 0, 45, 71
1, 136953, Note_on_c, 0, 69, 73
1, 136964, Note_off_c, 0, 57, 64
1, 136979, Note_off_c, 0, 45, 64
1, 137013, Note_off_c, 0, 69, 63
1, 137019, Note_on_c, 0, 72, 62
1, 137100, Note_off_c, 0, 72, 62
1, 137113, Note_on_c, 0, 76, 75
1, 137117, Note_on_c, 0, 52, 79
1, 137117, Control_c, 0, 64, 11
1, 137119, Note_on_c, 0, 40, 78
1, 137132, Control_c, 0, 64, 24
1, 137147, Control_c, 0, 64, 32
1, 137162, Control_c, 0, 64, 40
1, 137178, Control_c, 0, 64, 48
1, 137189, Note_off_c, 0, 76, 66
1, 137192, Control_c, 0, 64, 56
1, 137197, Note_on_c, 0, 71, 72
1, 137207, Control_c, 0, 64, 60
1, 137222, Control_c, 0, 64, 62
1, 137237, Control_c, 0, 64, 62
1, 137239, Note_off_c, 0, 40, 61
1, 137266, Note_off_c, 0, 52, 63
1, 137273, Note_off_c, 0, 71, 64
1, 137281, Control_c, 0, 64, 63
1, 137286, Note_on_c, 0, 68, 80
1, 137296, Control_c, 0, 64, 66
1, 137311, Control_c, 0, 64, 69
1, 137325, Control_c, 0, 64, 72
1, 137340, Control_c, 0, 64, 73
1, 137355, Control_c, 0, 64, 72
1, 137356, Note_off_c, 0, 68, 59
1, 137369, Note_on_c, 0, 71, 66
1, 137370, Control_c, 0, 64, 66
1, 137385, Control_c, 0, 64, 56
1, 137400, Control_c, 0, 64, 36
1, 137415, Control_c, 0, 64, 0
1, 137443, Note_on_c, 0, 76, 78
1, 137444, Note_off_c, 0, 71, 63
1, 137504, Control_c, 0, 64, 10
1, 137518, Control_c, 0, 64, 24
1, 137522, Note_off_c, 0, 76, 62
1, 137523, Note_on_c, 0, 72, 73
1, 137533, Control_c, 0, 64, 33
1, 137548, Control_c, 0, 64, 41
1, 137563, Control_c, 0, 64, 50
1, 137578, Control_c, 0, 64, 60
1, 137585, Note_off_c, 0, 72, 62
1, 137592, Control_c, 0, 64, 64
1, 137607, Note_on_c, 0, 57, 55
1, 137607, Control_c, 0, 64, 67
1, 137609, Note_on_c, 0, 45, 63
1, 137609, Note_on_c, 0, 69, 68
1, 137629, Note_off_c, 0, 57, 62
1, 137638, Note_off_c, 0, 45, 65
1, 137651, Control_c, 0, 64, 67
1, 137665, Note_off_c, 0, 69, 64
1, 137666, Note_on_c, 0, 72, 65
1, 137666, Control_c, 0, 64, 68
1, 137681, Control_c, 0, 64, 70
1, 137696, Control_c, 0, 64, 71
1, 137708, Note_off_c, 0, 72, 59
1, 137711, Control_c, 0, 64, 71
1, 137755, Control_c, 0, 64, 72
1, 137758, Note_on_c, 0, 40, 79
1, 137758, Note_on_c, 0, 68, 78
1, 137761, Note_on_c, 0, 52, 75
1, 137763, Note_on_c, 0, 71, 74
1, 137770, Control_c, 0, 64, 71
1, 137782, Note_off_c, 0, 52, 68
1, 137785, Note_off_c, 0, 40, 67
1, 137785, Control_c, 0, 64, 67
1, 137806, Note_off_c, 0, 68, 54
1, 137807, Control_c, 0, 64, 58
1, 137822, Control_c, 0, 64, 36
1, 137837, Control_c, 0, 64, 0
1, 137839, Note_off_c, 0, 71, 61
1, 137841, Note_on_c, 0, 76, 74
1, 137919, Note_off_c, 0, 76, 63
1, 137932, Note_on_c, 0, 57, 68
1, 137933, Note_on_c, 0, 45, 72
1, 137934, Note_on_c, 0, 72, 69
1, 137938, Note_on_c, 0, 69, 67
1, 137951, Note_off_c, 0, 57, 64
1, 137957, Note_off_c, 0, 45, 65
1, 137975, Note_off_c, 0, 69, 57
1, 137984, Note_off_c, 0, 72, 62
1, 138003, Note_on_c, 0, 76, 71
1, 138079, Note_off_c, 0, 76, 63
1, 138089, Note_on_c, 0, 40, 74
1, 138089, Note_on_c, 0, 52, 73
1, 138089, Note_on_c, 0, 71, 70
1, 138093, Note_on_c, 0, 68, 69
1, 138107, Note_off_c, 0, 52, 68
1, 138111, Note_off_c, 0, 40, 64
1, 138139, Note_off_c, 0, 68, 61
1, 138166, Note_on_c, 0, 76, 76
1, 138166, Note_off_c, 0, 71, 64
1, 138230, Note_off_c, 0, 76, 53
1, 138253, Note_on_c, 0, 57, 72
1, 138254, Note_on_c, 0, 45, 71
1, 138256, Note_on_c, 0, 69, 70
1, 138261, Note_on_c, 0, 72, 64
1, 138270, Note_off_c, 0, 57, 66
1, 138282, Note_off_c, 0, 45, 65
1, 138305, Note_off_c, 0, 69, 65
1, 138325, Note_off_c, 0, 72, 62
1, 138334, Note_on_c, 0, 76, 72
1, 138391, Note_off_c, 0, 76, 65
1, 138415, Control_c, 0, 64, 47
1, 138422, Note_on_c, 0, 52, 86
1, 138422, Note_on_c, 0, 71, 75
1, 138422, Note_on_c, 0, 68, 87
1, 138423, Note_on_c, 0, 40, 86
1, 138430, Control_c, 0, 64, 65
1, 138443, Note_off_c, 0, 71, 72
1, 138445, Note_off_c, 0, 52, 74
1, 138445, Control_c, 0, 64, 68
1, 138446, Note_off_c, 0, 68, 65
1, 138452, Note_off_c, 0, 40, 69
1, 138459, Control_c, 0, 64, 55
1, 138474, Control_c, 0, 64, 0
1, 138681, Note_on_c, 0, 64, 52
1, 138726, Note_on_c, 0, 68, 71
1, 138746, Note_off_c, 0, 64, 62
1, 138758, Note_on_c, 0, 71, 72
1, 138774, Note_on_c, 0, 76, 87
1, 138782, Note_off_c, 0, 71, 71
1, 138786, Note_off_c, 0, 68, 63
1, 138787, Note_on_c, 0, 52, 85
1, 138791, Note_on_c, 0, 40, 78
1, 138794, Control_c, 0, 64, 50
1, 138802, Note_off_c, 0, 76, 67
1, 138809, Control_c, 0, 64, 80
1, 138824, Control_c, 0, 64, 127
1, 139016, Note_off_c, 0, 52, 55
1, 139048, Note_off_c, 0, 40, 60
1, 139164, Control_c, 0, 64, 77
1, 139165, Note_on_c, 0, 52, 86
1, 139168, Note_on_c, 0, 40, 78
1, 139179, Control_c, 0, 64, 61
1, 139194, Control_c, 0, 64, 43
1, 139208, Control_c, 0, 64, 21
1, 139223, Control_c, 0, 64, 0
1, 139312, Note_off_c, 0, 40, 64
1, 139314, Note_off_c, 0, 52, 66
1, 139335, Control_c, 0, 67, 12
1, 139350, Control_c, 0, 67, 27
1, 139364, Control_c, 0, 67, 53
1, 139367, Note_on_c, 0, 76, 54
1, 139379, Control_c, 0, 67, 103
1, 139391, Note_off_c, 0, 76, 61
1, 139394, Control_c, 0, 67, 127
1, 139525, Note_on_c, 0, 78, 62
1, 139561, Note_off_c, 0, 78, 50
1, 139680, Note_on_c, 0, 80, 63
1, 139713, Note_off_c, 0, 80, 60
1, 139856, Note_on_c, 0, 64, 36
1, 139858, Note_on_c, 0, 81, 49
1, 139872, Note_on_c, 0, 60, 39
1, 139931, Note_off_c, 0, 81, 61
1, 139947, Note_on_c, 0, 83, 53
1, 140005, Note_off_c, 0, 64, 49
1, 140015, Note_off_c, 0, 83, 64
1, 140020, Note_on_c, 0, 65, 46
1, 140020, Note_on_c, 0, 80, 69
1, 140041, Note_on_c, 0, 62, 46
1, 140047, Note_off_c, 0, 60, 38
1, 140101, Note_on_c, 0, 83, 70
1, 140102, Note_off_c, 0, 80, 62
1, 140173, Note_off_c, 0, 65, 50
1, 140188, Note_on_c, 0, 81, 81
1, 140189, Note_on_c, 0, 60, 41
1, 140190, Note_off_c, 0, 83, 65
1, 140192, Note_on_c, 0, 64, 41
1, 140198, Note_off_c, 0, 62, 43
1, 140256, Note_on_c, 0, 83, 72
1, 140256, Note_off_c, 0, 81, 65
1, 140318, Note_off_c, 0, 60, 60
1, 140324, Note_off_c, 0, 64, 37
1, 140338, Note_off_c, 0, 83, 65
1, 140351, Note_on_c, 0, 80, 70
1, 140356, Note_on_c, 0, 62, 42
1, 140358, Note_on_c, 0, 65, 44
1, 140409, Note_off_c, 0, 80, 61
1, 140424, Note_on_c, 0, 83, 58
1, 140492, Note_off_c, 0, 65, 34
1, 140497, Note_off_c, 0, 62, 48
1, 140504, Note_off_c, 0, 83, 64
1, 140525, Note_on_c, 0, 81, 62
1, 140552, Note_on_c, 0, 60, 36
1, 140554, Note_on_c, 0, 64, 25
1, 140587, Note_off_c, 0, 81, 63
1, 140601, Note_on_c, 0, 83, 51
1, 140677, Note_off_c, 0, 83, 61
1, 140683, Note_on_c, 0, 79, 62
1, 140712, Note_off_c, 0, 60, 64
1, 140724, Note_off_c, 0, 64, 57
1, 140742, Note_off_c, 0, 79, 59
1, 140764, Note_on_c, 0, 81, 61
1, 140845, Note_off_c, 0, 81, 63
1, 140855, Note_on_c, 0, 77, 66
1, 140904, Note_off_c, 0, 77, 59
1, 140938, Note_on_c, 0, 79, 54
1, 141006, Note_off_c, 0, 79, 53
1, 141016, Note_on_c, 0, 76, 58
1, 141058, Note_off_c, 0, 76, 52
1, 141099, Note_on_c, 0, 77, 45
1, 141154, Note_off_c, 0, 77, 50
1, 141169, Note_on_c, 0, 74, 50
1, 141175, Note_on_c, 0, 69, 40
1, 141183, Note_on_c, 0, 65, 45
1, 141209, Note_off_c, 0, 74, 58
1, 141244, Note_on_c, 0, 76, 53
1, 141329, Note_off_c, 0, 76, 64
1, 141337, Note_on_c, 0, 73, 58
1, 141337, Note_off_c, 0, 65, 59
1, 141340, Note_on_c, 0, 70, 61
1, 141353, Note_on_c, 0, 67, 55
1, 141375, Note_off_c, 0, 69, 37
1, 141407, Note_off_c, 0, 73, 60
1, 141420, Note_on_c, 0, 76, 66
1, 141499, Note_on_c, 0, 74, 73
1, 141499, Note_off_c, 0, 76, 65
1, 141506, Note_off_c, 0, 70, 56
1, 141510, Note_on_c, 0, 69, 52
1, 141521, Note_off_c, 0, 67, 60
1, 141523, Note_on_c, 0, 65, 62
1, 141579, Note_off_c, 0, 74, 64
1, 141582, Note_on_c, 0, 76, 68
1, 141662, Note_off_c, 0, 69, 40
1, 141666, Note_off_c, 0, 76, 65
1, 141673, Note_off_c, 0, 65, 56
1, 141679, Note_on_c, 0, 73, 68
1, 141684, Note_on_c, 0, 70, 58
1, 141696, Note_on_c, 0, 67, 54
1, 141731, Note_off_c, 0, 73, 60
1, 141748, Note_on_c, 0, 76, 58
1, 141774, Note_off_c, 0, 70, 55
1, 141830, Note_off_c, 0, 76, 62
1, 141842, Note_off_c, 0, 67, 35
1, 141847, Note_on_c, 0, 74, 59
1, 141853, Note_on_c, 0, 69, 47
1, 141873, Note_on_c, 0, 65, 42
1, 141911, Note_off_c, 0, 74, 62
1, 141925, Note_on_c, 0, 76, 63
1, 142008, Note_off_c, 0, 76, 64
1, 142020, Note_on_c, 0, 72, 63
1, 142074, Note_off_c, 0, 72, 59
1, 142095, Note_on_c, 0, 74, 63
1, 142104, Note_off_c, 0, 69, 55
1, 142130, Note_off_c, 0, 65, 64
1, 142170, Note_off_c, 0, 74, 64
1, 142178, Note_on_c, 0, 71, 67
1, 142223, Note_off_c, 0, 71, 63
1, 142251, Note_on_c, 0, 72, 61
1, 142330, Note_off_c, 0, 72, 62
1, 142348, Note_on_c, 0, 69, 57
1, 142378, Note_off_c, 0, 69, 60
1, 142419, Note_on_c, 0, 71, 53
1, 142485, Note_off_c, 0, 71, 62
1, 142503, Note_on_c, 0, 52, 52
1, 142505, Note_on_c, 0, 68, 55
1, 142506, Note_on_c, 0, 59, 45
1, 142506, Note_on_c, 0, 62, 47
1, 142536, Note_off_c, 0, 62, 54
1, 142540, Note_off_c, 0, 59, 56
1, 142542, Note_off_c, 0, 52, 64
1, 142542, Note_off_c, 0, 68, 52
1, 142575, Note_on_c, 0, 71, 47
1, 142636, Note_off_c, 0, 71, 52
1, 142666, Note_on_c, 0, 69, 57
1, 142670, Note_on_c, 0, 62, 45
1, 142675, Note_on_c, 0, 53, 51
1, 142688, Note_on_c, 0, 59, 26
1, 142715, Note_off_c, 0, 62, 48
1, 142722, Note_off_c, 0, 53, 62
1, 142723, Note_off_c, 0, 59, 53
1, 142726, Note_off_c, 0, 69, 63
1, 142748, Note_on_c, 0, 71, 63
1, 142814, Note_off_c, 0, 71, 61
1, 142830, Note_on_c, 0, 59, 47
1, 142831, Note_on_c, 0, 62, 52
1, 142837, Note_on_c, 0, 68, 63
1, 142840, Note_on_c, 0, 52, 56
1, 142876, Note_off_c, 0, 62, 55
1, 142879, Note_off_c, 0, 52, 64
1, 142879, Note_off_c, 0, 59, 60
1, 142894, Note_off_c, 0, 68, 57
1, 142923, Note_on_c, 0, 71, 55
1, 142989, Note_off_c, 0, 71, 61
1, 142997, Note_on_c, 0, 62, 53
1, 142998, Note_on_c, 0, 53, 56
1, 143002, Note_on_c, 0, 69, 63
1, 143005, Note_on_c, 0, 59, 43
1, 143032, Note_off_c, 0, 62, 53
1, 143040, Note_off_c, 0, 59, 56
1, 143043, Note_off_c, 0, 53, 65
1, 143062, Note_off_c, 0, 69, 63
1, 143094, Note_on_c, 0, 71, 54
1, 143152, Note_off_c, 0, 71, 62
1, 143156, Note_on_c, 0, 59, 40
1, 143165, Note_on_c, 0, 62, 45
1, 143169, Note_on_c, 0, 68, 67
1, 143181, Note_on_c, 0, 52, 45
1, 143226, Note_off_c, 0, 68, 55
1, 143253, Note_on_c, 0, 71, 58
1, 143313, Note_off_c, 0, 71, 65
1, 143344, Note_on_c, 0, 65, 58
1, 143347, Note_off_c, 0, 62, 60
1, 143364, Note_off_c, 0, 52, 65
1, 143374, Note_off_c, 0, 59, 61
1, 143379, Note_off_c, 0, 65, 63
1, 143409, Note_on_c, 0, 71, 63
1, 143473, Note_off_c, 0, 71, 64
1, 143502, Note_on_c, 0, 64, 62
1, 143536, Note_off_c, 0, 64, 62
1, 143569, Note_on_c, 0, 71, 57
1, 143627, Note_off_c, 0, 71, 64
1, 143657, Note_on_c, 0, 62, 62
1, 143690, Note_off_c, 0, 62, 63
1, 143731, Note_on_c, 0, 71, 52
1, 143794, Note_off_c, 0, 71, 57
1, 143833, Note_on_c, 0, 57, 54
1, 143836, Note_on_c, 0, 60, 57
1, 143841, Note_on_c, 0, 45, 48
1, 143883, Note_off_c, 0, 60, 60
1, 143902, Note_on_c, 0, 64, 53
1, 143965, Note_off_c, 0, 64, 60
1, 143986, Note_on_c, 0, 63, 57
1, 144033, Note_off_c, 0, 63, 64
1, 144065, Note_on_c, 0, 64, 44
1, 144118, Note_off_c, 0, 64, 61
1, 144147, Note_on_c, 0, 65, 59
1, 144182, Note_off_c, 0, 65, 67
1, 144227, Note_on_c, 0, 64, 49
1, 144269, Note_off_c, 0, 64, 62
1, 144308, Note_on_c, 0, 68, 65
1, 144366, Note_off_c, 0, 68, 58
1, 144389, Note_on_c, 0, 64, 60
1, 144451, Note_off_c, 0, 64, 60
1, 144480, Note_on_c, 0, 69, 68
1, 144543, Note_off_c, 0, 69, 62
1, 144547, Note_off_c, 0, 45, 56
1, 144560, Note_off_c, 0, 57, 44
1, 144562, Note_on_c, 0, 64, 61
1, 144625, Note_off_c, 0, 64, 61
1, 144646, Note_on_c, 0, 71, 72
1, 144712, Note_off_c, 0, 71, 61
1, 144731, Note_on_c, 0, 64, 64
1, 144793, Note_off_c, 0, 64, 61
1, 144812, Note_on_c, 0, 72, 68
1, 144872, Control_c, 0, 64, 12
1, 144874, Note_off_c, 0, 72, 59
1, 144887, Control_c, 0, 64, 25
1, 144897, Note_on_c, 0, 64, 61
1, 144901, Control_c, 0, 64, 37
1, 144916, Control_c, 0, 64, 48
1, 144931, Control_c, 0, 64, 61
1, 144946, Control_c, 0, 64, 68
1, 144948, Note_off_c, 0, 64, 60
1, 144960, Control_c, 0, 64, 74
1, 144975, Control_c, 0, 64, 79
1, 144977, Note_on_c, 0, 74, 58
1, 144990, Control_c, 0, 64, 87
1, 145005, Control_c, 0, 64, 105
1, 145009, Note_off_c, 0, 74, 64
1, 145020, Control_c, 0, 64, 127
1, 145037, Note_on_c, 0, 64, 59
1, 145065, Note_off_c, 0, 64, 65
1, 145124, Control_c, 0, 64, 75
1, 145138, Control_c, 0, 64, 60
1, 145142, Note_on_c, 0, 60, 54
1, 145147, Note_on_c, 0, 69, 50
1, 145149, Note_on_c, 0, 76, 55
1, 145154, Control_c, 0, 64, 41
1, 145169, Control_c, 0, 64, 0
1, 145170, Note_off_c, 0, 60, 55
1, 145175, Note_off_c, 0, 69, 56
1, 145210, Note_off_c, 0, 76, 53
1, 145225, Note_on_c, 0, 77, 64
1, 145305, Note_on_c, 0, 75, 69
1, 145305, Note_off_c, 0, 77, 61
1, 145311, Note_on_c, 0, 69, 48
1, 145314, Note_on_c, 0, 60, 46
1, 145344, Note_off_c, 0, 60, 57
1, 145347, Note_off_c, 0, 69, 58
1, 145384, Note_off_c, 0, 75, 60
1, 145386, Note_on_c, 0, 77, 71
1, 145469, Note_on_c, 0, 76, 82
1, 145474, Note_off_c, 0, 77, 63
1, 145479, Note_on_c, 0, 69, 59
1, 145482, Note_on_c, 0, 60, 53
1, 145520, Note_off_c, 0, 69, 59
1, 145521, Note_off_c, 0, 60, 63
1, 145544, Note_on_c, 0, 77, 76
1, 145548, Note_off_c, 0, 76, 66
1, 145633, Note_on_c, 0, 75, 85
1, 145633, Note_off_c, 0, 77, 63
1, 145644, Note_on_c, 0, 69, 57
1, 145645, Note_on_c, 0, 60, 58
1, 145685, Note_off_c, 0, 60, 63
1, 145686, Note_off_c, 0, 69, 57
1, 145707, Note_on_c, 0, 77, 79
1, 145711, Note_off_c, 0, 75, 61
1, 145775, Note_off_c, 0, 77, 62
1, 145800, Note_on_c, 0, 76, 78
1, 145800, Note_on_c, 0, 60, 58
1, 145802, Note_on_c, 0, 69, 54
1, 145872, Control_c, 0, 67, 127
1, 145887, Note_off_c, 0, 76, 61
1, 145887, Control_c, 0, 67, 109
1, 145889, Note_on_c, 0, 81, 75
1, 145902, Control_c, 0, 67, 89
1, 145917, Control_c, 0, 67, 64
1, 145931, Control_c, 0, 67, 45
1, 145939, Note_off_c, 0, 69, 65
1, 145947, Control_c, 0, 67, 31
1, 145956, Note_off_c, 0, 81, 64
1, 145962, Control_c, 0, 67, 20
1, 145963, Note_on_c, 0, 80, 78
1, 145977, Control_c, 0, 67, 10
1, 145992, Control_c, 0, 67, 0
1, 145997, Note_off_c, 0, 60, 64
1, 146042, Note_off_c, 0, 80, 63
1, 146049, Note_on_c, 0, 81, 76
1, 146124, Note_off_c, 0, 81, 62
1, 146136, Note_on_c, 0, 83, 73
1, 146210, Note_on_c, 0, 81, 72
1, 146212, Note_off_c, 0, 83, 63
1, 146276, Note_off_c, 0, 81, 64
1, 146298, Note_on_c, 0, 80, 63
1, 146349, Note_off_c, 0, 80, 59
1, 146363, Note_on_c, 0, 81, 66
1, 146450, Note_off_c, 0, 81, 62
1, 146453, Note_on_c, 0, 79, 64
1, 146456, Note_on_c, 0, 50, 42
1, 146519, Note_off_c, 0, 79, 61
1, 146537, Note_on_c, 0, 77, 63
1, 146596, Note_off_c, 0, 77, 60
1, 146616, Note_on_c, 0, 76, 60
1, 146680, Note_off_c, 0, 76, 64
1, 146694, Note_on_c, 0, 77, 66
1, 146796, Note_on_c, 0, 76, 66
1, 146804, Note_off_c, 0, 77, 55
1, 146809, Note_on_c, 0, 53, 52
1, 146848, Note_off_c, 0, 76, 64
1, 146876, Note_on_c, 0, 74, 62
1, 146876, Note_off_c, 0, 53, 64
1, 146943, Note_off_c, 0, 74, 62
1, 146957, Note_on_c, 0, 73, 71
1, 147037, Note_off_c, 0, 73, 64
1, 147047, Note_on_c, 0, 74, 66
1, 147121, Note_on_c, 0, 72, 73
1, 147132, Note_on_c, 0, 58, 61
1, 147134, Note_off_c, 0, 74, 59
1, 147201, Note_on_c, 0, 70, 76
1, 147223, Note_off_c, 0, 72, 51
1, 147278, Note_off_c, 0, 70, 63
1, 147288, Note_on_c, 0, 69, 75
1, 147288, Note_off_c, 0, 50, 46
1, 147353, Note_off_c, 0, 69, 66
1, 147369, Note_on_c, 0, 70, 73
1, 147434, Note_off_c, 0, 70, 63
1, 147448, Note_on_c, 0, 50, 47
1, 147452, Note_on_c, 0, 69, 71
1, 147508, Note_off_c, 0, 69, 65
1, 147535, Note_on_c, 0, 70, 71
1, 147588, Note_off_c, 0, 70, 63
1, 147618, Note_on_c, 0, 72, 64
1, 147685, Note_off_c, 0, 72, 60
1, 147689, Note_on_c, 0, 74, 65
1, 147765, Note_off_c, 0, 74, 64
1, 147774, Note_on_c, 0, 77, 67
1, 147791, Note_on_c, 0, 48, 53
1, 147857, Note_on_c, 0, 76, 70
1, 147857, Note_off_c, 0, 50, 50
1, 147866, Note_off_c, 0, 77, 56
1, 147924, Note_off_c, 0, 76, 65
1, 147943, Note_on_c, 0, 75, 64
1, 147992, Note_off_c, 0, 75, 61
1, 148010, Note_on_c, 0, 76, 59
1, 148025, Note_off_c, 0, 58, 36
1, 148099, Note_on_c, 0, 74, 63
1, 148111, Note_on_c, 0, 56, 54
1, 148113, Note_off_c, 0, 76, 61
1, 148170, Note_off_c, 0, 56, 63
1, 148177, Note_on_c, 0, 72, 65
1, 148203, Note_off_c, 0, 74, 60
1, 148247, Note_off_c, 0, 72, 64
1, 148267, Note_on_c, 0, 71, 68
1, 148334, Note_off_c, 0, 71, 64
1, 148349, Note_on_c, 0, 72, 67
1, 148425, Note_on_c, 0, 57, 58
1, 148437, Note_on_c, 0, 71, 71
1, 148453, Note_off_c, 0, 72, 53
1, 148505, Note_off_c, 0, 71, 66
1, 148515, Note_on_c, 0, 69, 70
1, 148583, Note_off_c, 0, 69, 65
1, 148592, Note_off_c, 0, 48, 61
1, 148595, Note_on_c, 0, 68, 75
1, 148666, Note_off_c, 0, 68, 61
1, 148677, Note_on_c, 0, 69, 72
1, 148740, Note_off_c, 0, 69, 64
1, 148742, Note_on_c, 0, 48, 51
1, 148757, Note_on_c, 0, 68, 73
1, 148808, Note_off_c, 0, 68, 60
1, 148824, Note_on_c, 0, 69, 69
1, 148873, Note_off_c, 0, 69, 65
1, 148905, Note_on_c, 0, 71, 66
1, 148939, Note_off_c, 0, 71, 61
1, 148947, Note_off_c, 0, 48, 61
1, 148979, Note_on_c, 0, 72, 66
1, 149044, Note_off_c, 0, 72, 58
1, 149070, Note_on_c, 0, 74, 54
1, 149075, Note_on_c, 0, 47, 49
1, 149083, Control_c, 0, 64, 23
1, 149098, Control_c, 0, 64, 29
1, 149113, Control_c, 0, 64, 35
1, 149127, Control_c, 0, 64, 44
1, 149142, Control_c, 0, 64, 59
1, 149145, Note_off_c, 0, 74, 64
1, 149150, Note_on_c, 0, 77, 69
1, 149158, Note_off_c, 0, 47, 63
1, 149159, Control_c, 0, 64, 70
1, 149174, Control_c, 0, 64, 95
1, 149188, Control_c, 0, 64, 127
1, 149222, Note_off_c, 0, 77, 61
1, 149225, Note_off_c, 0, 57, 54
1, 149236, Note_on_c, 0, 72, 61
1, 149285, Note_off_c, 0, 72, 52
1, 149308, Note_on_c, 0, 77, 61
1, 149386, Note_off_c, 0, 77, 60
1, 149395, Control_c, 0, 64, 77
1, 149398, Note_on_c, 0, 62, 69
1, 149403, Note_on_c, 0, 71, 63
1, 149410, Control_c, 0, 64, 63
1, 149413, Note_on_c, 0, 53, 57
1, 149425, Control_c, 0, 64, 47
1, 149436, Note_off_c, 0, 71, 61
1, 149440, Control_c, 0, 64, 32
1, 149455, Control_c, 0, 64, 30
1, 149462, Note_on_c, 0, 77, 64
1, 149470, Control_c, 0, 64, 34
1, 149485, Control_c, 0, 64, 39
1, 149499, Control_c, 0, 64, 46
1, 149514, Control_c, 0, 64, 53
1, 149529, Control_c, 0, 64, 59
1, 149540, Note_off_c, 0, 77, 60
1, 149543, Control_c, 0, 64, 63
1, 149558, Control_c, 0, 64, 66
1, 149562, Note_on_c, 0, 69, 66
1, 149573, Control_c, 0, 64, 66
1, 149588, Control_c, 0, 64, 67
1, 149603, Control_c, 0, 64, 67
1, 149617, Control_c, 0, 64, 71
1, 149619, Note_off_c, 0, 69, 64
1, 149628, Note_on_c, 0, 77, 60
1, 149632, Control_c, 0, 64, 76
1, 149647, Control_c, 0, 64, 83
1, 149662, Control_c, 0, 64, 86
1, 149673, Note_off_c, 0, 77, 51
1, 149677, Control_c, 0, 64, 85
1, 149691, Control_c, 0, 64, 76
1, 149706, Control_c, 0, 64, 62
1, 149721, Control_c, 0, 64, 49
1, 149725, Note_on_c, 0, 68, 65
1, 149736, Note_on_c, 0, 52, 58
1, 149736, Control_c, 0, 64, 26
1, 149750, Control_c, 0, 64, 0
1, 149803, Note_off_c, 0, 53, 50
1, 149803, Control_c, 0, 64, 13
1, 149809, Note_on_c, 0, 71, 64
1, 149817, Note_off_c, 0, 68, 54
1, 149818, Control_c, 0, 64, 20
1, 149832, Control_c, 0, 64, 27
1, 149835, Note_off_c, 0, 62, 54
1, 149847, Control_c, 0, 64, 33
1, 149862, Control_c, 0, 64, 40
1, 149877, Control_c, 0, 64, 46
1, 149892, Control_c, 0, 64, 53
1, 149893, Note_off_c, 0, 71, 65
1, 149896, Note_on_c, 0, 65, 74
1, 149906, Control_c, 0, 64, 60
1, 149921, Control_c, 0, 64, 64
1, 149936, Control_c, 0, 64, 67
1, 149951, Control_c, 0, 64, 69
1, 149960, Note_off_c, 0, 65, 64
1, 149963, Note_on_c, 0, 71, 72
1, 149967, Control_c, 0, 64, 72
1, 149981, Control_c, 0, 64, 74
1, 149996, Control_c, 0, 64, 73
1, 150011, Control_c, 0, 64, 67
1, 150026, Control_c, 0, 64, 58
1, 150041, Control_c, 0, 64, 42
1, 150045, Note_off_c, 0, 71, 66
1, 150053, Note_on_c, 0, 64, 79
1, 150055, Control_c, 0, 64, 12
1, 150060, Note_on_c, 0, 56, 59
1, 150063, Note_on_c, 0, 59, 59
1, 150070, Control_c, 0, 64, 0
1, 150085, Control_c, 0, 64, 10
1, 150100, Control_c, 0, 64, 24
1, 150115, Control_c, 0, 64, 32
1, 150116, Note_off_c, 0, 64, 63
1, 150121, Note_on_c, 0, 71, 70
1, 150129, Control_c, 0, 64, 40
1, 150144, Control_c, 0, 64, 48
1, 150159, Control_c, 0, 64, 56
1, 150173, Note_off_c, 0, 59, 56
1, 150173, Control_c, 0, 64, 62
1, 150188, Control_c, 0, 64, 65
1, 150203, Control_c, 0, 64, 67
1, 150204, Note_off_c, 0, 71, 64
1, 150218, Note_on_c, 0, 62, 77
1, 150218, Control_c, 0, 64, 68
1, 150233, Control_c, 0, 64, 70
1, 150248, Control_c, 0, 64, 75
1, 150260, Note_off_c, 0, 56, 60
1, 150263, Control_c, 0, 64, 82
1, 150275, Note_off_c, 0, 62, 61
1, 150277, Control_c, 0, 64, 90
1, 150288, Note_on_c, 0, 71, 65
1, 150292, Control_c, 0, 64, 91
1, 150307, Control_c, 0, 64, 90
1, 150322, Control_c, 0, 64, 84
1, 150337, Control_c, 0, 64, 76
1, 150349, Note_off_c, 0, 71, 65
1, 150352, Control_c, 0, 64, 70
1, 150366, Control_c, 0, 64, 66
1, 150371, Note_off_c, 0, 52, 57
1, 150376, Note_on_c, 0, 60, 72
1, 150381, Control_c, 0, 64, 63
1, 150388, Note_on_c, 0, 57, 63
1, 150396, Control_c, 0, 64, 60
1, 150411, Control_c, 0, 64, 58
1, 150420, Note_off_c, 0, 60, 56
1, 150426, Control_c, 0, 64, 58
1, 150457, Note_on_c, 0, 72, 74
1, 150552, Note_off_c, 0, 72, 63
1, 150555, Note_on_c, 0, 71, 77
1, 150566, Control_c, 0, 64, 57
1, 150580, Control_c, 0, 64, 56
1, 150595, Control_c, 0, 64, 55
1, 150610, Control_c, 0, 64, 54
1, 150623, Note_off_c, 0, 71, 64
1, 150625, Control_c, 0, 64, 51
1, 150626, Note_on_c, 0, 72, 72
1, 150640, Control_c, 0, 64, 46
1, 150654, Control_c, 0, 64, 37
1, 150669, Control_c, 0, 64, 15
1, 150684, Control_c, 0, 64, 0
1, 150713, Note_on_c, 0, 45, 62
1, 150713, Note_on_c, 0, 74, 78
1, 150715, Note_on_c, 0, 52, 61
1, 150717, Note_off_c, 0, 72, 64
1, 150790, Note_on_c, 0, 72, 74
1, 150808, Note_off_c, 0, 57, 35
1, 150823, Note_off_c, 0, 74, 64
1, 150871, Note_on_c, 0, 71, 79
1, 150889, Note_off_c, 0, 72, 61
1, 150933, Note_off_c, 0, 71, 66
1, 150951, Note_on_c, 0, 69, 76
1, 151034, Note_off_c, 0, 45, 55
1, 151035, Note_on_c, 0, 68, 83
1, 151039, Note_on_c, 0, 47, 63
1, 151044, Note_off_c, 0, 69, 60
1, 151110, Note_off_c, 0, 68, 60
1, 151114, Note_on_c, 0, 74, 74
1, 151188, Control_c, 0, 64, 14
1, 151194, Note_on_c, 0, 73, 81
1, 151194, Note_off_c, 0, 74, 66
1, 151203, Control_c, 0, 64, 25
1, 151218, Control_c, 0, 64, 34
1, 151233, Control_c, 0, 64, 45
1, 151248, Control_c, 0, 64, 56
1, 151270, Control_c, 0, 64, 63
1, 151275, Note_off_c, 0, 73, 67
1, 151279, Note_on_c, 0, 74, 79
1, 151285, Control_c, 0, 64, 64
1, 151298, Note_off_c, 0, 47, 58
1, 151300, Control_c, 0, 64, 61
1, 151315, Control_c, 0, 64, 51
1, 151329, Control_c, 0, 64, 28
1, 151344, Control_c, 0, 64, 0
1, 151350, Note_off_c, 0, 52, 0
1, 151350, Note_on_c, 0, 52, 23
1, 151363, Note_on_c, 0, 76, 85
1, 151367, Note_on_c, 0, 50, 56
1, 151367, Note_on_c, 0, 56, 67
1, 151368, Note_off_c, 0, 74, 64
1, 151374, Control_c, 0, 64, 11
1, 151389, Control_c, 0, 64, 26
1, 151403, Control_c, 0, 64, 36
1, 151418, Control_c, 0, 64, 45
1, 151433, Control_c, 0, 64, 55
1, 151438, Note_on_c, 0, 74, 80
1, 151448, Control_c, 0, 64, 62
1, 151463, Control_c, 0, 64, 66
1, 151469, Note_off_c, 0, 76, 60
1, 151477, Control_c, 0, 64, 68
1, 151511, Note_off_c, 0, 56, 60
1, 151521, Note_on_c, 0, 72, 84
1, 151521, Control_c, 0, 64, 69
1, 151542, Note_off_c, 0, 74, 60
1, 151553, Control_c, 0, 64, 69
1, 151591, Note_off_c, 0, 52, 45
1, 151594, Note_off_c, 0, 50, 59
1, 151607, Note_on_c, 0, 71, 82
1, 151612, Control_c, 0, 64, 67
1, 151619, Note_off_c, 0, 72, 55
1, 151626, Control_c, 0, 64, 63
1, 151641, Control_c, 0, 64, 55
1, 151656, Control_c, 0, 64, 39
1, 151671, Control_c, 0, 64, 8
1, 151676, Note_off_c, 0, 71, 63
1, 151684, Note_on_c, 0, 52, 72
1, 151685, Note_on_c, 0, 57, 74
1, 151686, Control_c, 0, 64, 0
1, 151687, Note_on_c, 0, 69, 79
1, 151694, Note_on_c, 0, 48, 70
1, 151761, Note_off_c, 0, 69, 64
1, 151764, Note_on_c, 0, 71, 75
1, 151831, Note_off_c, 0, 71, 62
1, 151845, Note_on_c, 0, 72, 76
1, 151909, Note_off_c, 0, 72, 62
1, 151920, Note_on_c, 0, 71, 77
1, 151986, Note_off_c, 0, 71, 58
1, 152006, Note_on_c, 0, 72, 78
1, 152064, Note_off_c, 0, 72, 55
1, 152088, Note_on_c, 0, 75, 75
1, 152140, Note_off_c, 0, 75, 63
1, 152165, Note_on_c, 0, 76, 79
1, 152214, Note_off_c, 0, 76, 65
1, 152242, Note_on_c, 0, 75, 80
1, 152303, Note_off_c, 0, 75, 62
1, 152316, Note_on_c, 0, 76, 82
1, 152338, Note_off_c, 0, 57, 63
1, 152349, Note_off_c, 0, 52, 66
1, 152353, Note_off_c, 0, 48, 65
1, 152384, Note_off_c, 0, 76, 65
1, 152399, Note_on_c, 0, 80, 81
1, 152471, Note_off_c, 0, 80, 62
1, 152472, Note_on_c, 0, 81, 83
1, 152551, Note_on_c, 0, 80, 82
1, 152558, Note_off_c, 0, 81, 65
1, 152625, Note_off_c, 0, 80, 62
1, 152627, Control_c, 0, 64, 17
1, 152629, Note_on_c, 0, 81, 89
1, 152635, Note_on_c, 0, 57, 84
1, 152636, Note_on_c, 0, 52, 83
1, 152637, Note_on_c, 0, 49, 82
1, 152641, Control_c, 0, 64, 56
1, 152654, Note_off_c, 0, 57, 71
1, 152656, Control_c, 0, 64, 85
1, 152657, Note_off_c, 0, 52, 74
1, 152659, Note_off_c, 0, 49, 70
1, 152671, Control_c, 0, 64, 127
1, 152707, Note_on_c, 0, 79, 84
1, 152720, Note_off_c, 0, 81, 61
1, 152793, Note_on_c, 0, 77, 80
1, 152804, Note_off_c, 0, 79, 58
1, 152847, Note_off_c, 0, 77, 63
1, 152871, Note_on_c, 0, 76, 79
1, 152926, Note_off_c, 0, 76, 64
1, 152946, Control_c, 0, 64, 59
1, 152958, Note_on_c, 0, 50, 69
1, 152961, Control_c, 0, 64, 0
1, 152963, Note_on_c, 0, 77, 82
1, 152994, Note_off_c, 0, 50, 60
1, 153024, Note_off_c, 0, 77, 62
1, 153028, Note_on_c, 0, 57, 60
1, 153032, Note_on_c, 0, 79, 77
1, 153078, Note_off_c, 0, 57, 57
1, 153105, Note_off_c, 0, 79, 61
1, 153115, Note_on_c, 0, 81, 78
1, 153115, Note_on_c, 0, 53, 54
1, 153156, Note_off_c, 0, 53, 67
1, 153191, Note_on_c, 0, 77, 79
1, 153196, Note_on_c, 0, 57, 55
1, 153196, Note_off_c, 0, 81, 61
1, 153236, Note_off_c, 0, 57, 60
1, 153249, Note_off_c, 0, 77, 61
1, 153264, Note_on_c, 0, 74, 69
1, 153276, Note_on_c, 0, 50, 59
1, 153317, Note_off_c, 0, 50, 63
1, 153326, Note_off_c, 0, 74, 57
1, 153340, Note_on_c, 0, 57, 55
1, 153344, Note_on_c, 0, 76, 78
1, 153395, Note_off_c, 0, 76, 64
1, 153410, Note_off_c, 0, 57, 59
1, 153427, Note_on_c, 0, 77, 69
1, 153437, Note_on_c, 0, 53, 54
1, 153471, Note_off_c, 0, 53, 66
1, 153488, Note_off_c, 0, 77, 59
1, 153499, Note_on_c, 0, 74, 68
1, 153506, Note_on_c, 0, 57, 43
1, 153541, Note_off_c, 0, 57, 55
1, 153546, Note_off_c, 0, 74, 62
1, 153588, Note_on_c, 0, 71, 68
1, 153593, Note_on_c, 0, 50, 55
1, 153628, Note_off_c, 0, 50, 65
1, 153641, Note_off_c, 0, 71, 60
1, 153654, Note_on_c, 0, 59, 61
1, 153663, Note_on_c, 0, 72, 66
1, 153702, Note_off_c, 0, 59, 59
1, 153703, Note_off_c, 0, 72, 52
1, 153744, Note_on_c, 0, 74, 65
1, 153747, Note_on_c, 0, 53, 42
1, 153774, Note_off_c, 0, 53, 59
1, 153779, Note_off_c, 0, 74, 61
1, 153816, Note_on_c, 0, 59, 54
1, 153822, Note_on_c, 0, 71, 66
1, 153858, Note_off_c, 0, 59, 60
1, 153878, Note_off_c, 0, 71, 61
1, 153892, Note_on_c, 0, 76, 71
1, 153905, Note_on_c, 0, 50, 52
1, 153945, Note_off_c, 0, 50, 63
1, 153958, Note_off_c, 0, 76, 64
1, 153966, Note_on_c, 0, 77, 68
1, 153969, Note_on_c, 0, 59, 53
1, 154018, Note_off_c, 0, 59, 59
1, 154042, Note_on_c, 0, 74, 65
1, 154043, Note_off_c, 0, 77, 61
1, 154049, Note_on_c, 0, 53, 48
1, 154071, Note_off_c, 0, 74, 66
1, 154074, Note_off_c, 0, 53, 60
1, 154115, Note_on_c, 0, 59, 52
1, 154125, Note_on_c, 0, 71, 62
1, 154144, Note_off_c, 0, 59, 55
1, 154179, Note_off_c, 0, 71, 59
1, 154197, Note_on_c, 0, 75, 65
1, 154209, Note_on_c, 0, 52, 40
1, 154239, Note_off_c, 0, 52, 61
1, 154244, Note_off_c, 0, 75, 58
1, 154267, Note_on_c, 0, 60, 63
1, 154275, Note_on_c, 0, 76, 67
1, 154318, Note_off_c, 0, 60, 60
1, 154349, Note_off_c, 0, 76, 64
1, 154353, Note_on_c, 0, 57, 48
1, 154358, Note_on_c, 0, 77, 76
1, 154385, Note_off_c, 0, 57, 56
1, 154428, Note_on_c, 0, 60, 61
1, 154439, Note_on_c, 0, 76, 75
1, 154454, Note_off_c, 0, 77, 56
1, 154476, Note_off_c, 0, 60, 59
1, 154514, Note_on_c, 0, 74, 75
1, 154519, Note_off_c, 0, 76, 61
1, 154528, Note_on_c, 0, 52, 54
1, 154572, Note_off_c, 0, 74, 68
1, 154589, Note_on_c, 0, 72, 75
1, 154591, Note_on_c, 0, 60, 63
1, 154594, Note_off_c, 0, 52, 53
1, 154648, Note_off_c, 0, 72, 57
1, 154651, Note_off_c, 0, 60, 62
1, 154665, Note_on_c, 0, 57, 65
1, 154665, Note_on_c, 0, 71, 79
1, 154712, Note_off_c, 0, 57, 64
1, 154717, Note_off_c, 0, 71, 63
1, 154731, Note_on_c, 0, 60, 65
1, 154738, Note_on_c, 0, 69, 80
1, 154786, Note_off_c, 0, 60, 60
1, 154788, Note_off_c, 0, 69, 65
1, 154823, Note_on_c, 0, 72, 72
1, 154838, Note_on_c, 0, 52, 62
1, 154872, Note_off_c, 0, 72, 63
1, 154882, Note_off_c, 0, 52, 63
1, 154890, Note_on_c, 0, 71, 71
1, 154909, Note_on_c, 0, 62, 57
1, 154942, Note_off_c, 0, 71, 62
1, 154955, Note_off_c, 0, 62, 59
1, 154963, Note_on_c, 0, 72, 67
1, 154987, Note_on_c, 0, 56, 54
1, 154988, Note_off_c, 0, 72, 67
1, 155014, Note_on_c, 0, 71, 60
1, 155023, Note_off_c, 0, 56, 64
1, 155054, Note_on_c, 0, 62, 62
1, 155059, Note_off_c, 0, 71, 66
1, 155075, Note_on_c, 0, 72, 66
1, 155099, Note_off_c, 0, 72, 68
1, 155111, Note_off_c, 0, 62, 56
1, 155115, Note_on_c, 0, 71, 61
1, 155137, Note_on_c, 0, 52, 58
1, 155156, Note_off_c, 0, 71, 64
1, 155166, Note_on_c, 0, 72, 78
1, 155214, Note_off_c, 0, 72, 60
1, 155220, Note_on_c, 0, 62, 64
1, 155221, Note_on_c, 0, 71, 71
1, 155233, Note_off_c, 0, 52, 62
1, 155281, Note_on_c, 0, 56, 61
1, 155285, Note_off_c, 0, 62, 61
1, 155288, Note_off_c, 0, 71, 64
1, 155299, Note_on_c, 0, 69, 69
1, 155322, Note_off_c, 0, 56, 63
1, 155363, Note_on_c, 0, 71, 72
1, 155363, Note_off_c, 0, 69, 64
1, 155373, Note_on_c, 0, 62, 58
1, 155384, Note_off_c, 0, 71, 72
1, 155417, Note_off_c, 0, 62, 59
1, 155473, Note_on_c, 0, 60, 61
1, 155485, Note_on_c, 0, 57, 52
1, 155558, Note_on_c, 0, 81, 65
1, 155634, Note_on_c, 0, 79, 76
1, 155658, Note_off_c, 0, 81, 60
1, 155708, Note_on_c, 0, 77, 78
1, 155724, Note_off_c, 0, 79, 53
1, 155783, Note_off_c, 0, 77, 61
1, 155802, Note_on_c, 0, 76, 76
1, 155864, Note_off_c, 0, 76, 58
1, 155876, Note_on_c, 0, 77, 71
1, 155950, Note_off_c, 0, 77, 62
1, 155957, Note_on_c, 0, 75, 69
1, 156013, Note_off_c, 0, 75, 56
1, 156029, Note_off_c, 0, 57, 58
1, 156036, Note_on_c, 0, 77, 65
1, 156045, Note_off_c, 0, 60, 61
1, 156111, Note_off_c, 0, 77, 58
1, 156119, Note_on_c, 0, 76, 69
1, 156186, Note_off_c, 0, 76, 63
1, 156196, Note_on_c, 0, 77, 70
1, 156271, Note_off_c, 0, 77, 62
1, 156278, Note_on_c, 0, 75, 70
1, 156338, Note_off_c, 0, 75, 58
1, 156356, Note_on_c, 0, 77, 66
1, 156424, Note_off_c, 0, 77, 57
1, 156430, Note_on_c, 0, 68, 76
1, 156435, Note_on_c, 0, 76, 75
1, 156453, Note_off_c, 0, 68, 67
1, 156494, Note_off_c, 0, 76, 61
1, 156519, Note_on_c, 0, 77, 71
1, 156578, Note_off_c, 0, 77, 59
1, 156591, Note_on_c, 0, 74, 73
1, 156593, Note_on_c, 0, 64, 72
1, 156618, Note_off_c, 0, 64, 66
1, 156654, Note_off_c, 0, 74, 60
1, 156661, Note_on_c, 0, 76, 71
1, 156710, Note_off_c, 0, 76, 67
1, 156734, Control_c, 0, 67, 18
1, 156749, Control_c, 0, 67, 52
1, 156753, Note_on_c, 0, 72, 72
1, 156756, Note_on_c, 0, 69, 63
1, 156764, Control_c, 0, 67, 110
1, 156779, Control_c, 0, 67, 127
1, 156814, Note_off_c, 0, 72, 63
1, 156825, Note_on_c, 0, 81, 78
1, 156904, Note_on_c, 0, 79, 74
1, 156906, Note_off_c, 0, 81, 63
1, 156982, Note_on_c, 0, 77, 75
1, 156984, Note_off_c, 0, 79, 57
1, 157004, Note_off_c, 0, 69, 61
1, 157032, Note_off_c, 0, 77, 63
1, 157068, Note_on_c, 0, 76, 68
1, 157120, Note_off_c, 0, 76, 61
1, 157140, Note_on_c, 0, 77, 60
1, 157201, Note_off_c, 0, 77, 61
1, 157222, Note_on_c, 0, 75, 61
1, 157270, Note_off_c, 0, 75, 56
1, 157304, Note_on_c, 0, 77, 56
1, 157355, Note_off_c, 0, 77, 53
1, 157383, Note_on_c, 0, 76, 66
1, 157431, Note_off_c, 0, 76, 59
1, 157461, Note_on_c, 0, 77, 68
1, 157521, Note_off_c, 0, 77, 59
1, 157544, Note_on_c, 0, 75, 62
1, 157580, Note_off_c, 0, 75, 58
1, 157619, Note_on_c, 0, 77, 58
1, 157671, Note_off_c, 0, 77, 54
1, 157692, Note_on_c, 0, 76, 69
1, 157694, Note_on_c, 0, 68, 59
1, 157714, Note_off_c, 0, 68, 61
1, 157744, Note_off_c, 0, 76, 61
1, 157771, Note_on_c, 0, 77, 64
1, 157819, Note_off_c, 0, 77, 58
1, 157845, Note_on_c, 0, 74, 59
1, 157849, Note_on_c, 0, 64, 54
1, 157871, Note_off_c, 0, 64, 62
1, 157881, Note_off_c, 0, 74, 56
1, 157917, Note_on_c, 0, 76, 62
1, 157977, Note_off_c, 0, 76, 59
1, 158016, Note_on_c, 0, 69, 58
1, 158027, Note_on_c, 0, 72, 61
1, 158071, Note_off_c, 0, 72, 61
1, 158081, Note_off_c, 0, 69, 60
1, 158096, Note_on_c, 0, 74, 53
1, 158158, Note_off_c, 0, 74, 60
1, 158183, Note_on_c, 0, 76, 60
1, 158258, Note_off_c, 0, 76, 59
1, 158263, Note_on_c, 0, 74, 62
1, 158305, Note_off_c, 0, 74, 62
1, 158337, Note_on_c, 0, 72, 58
1, 158350, Control_c, 0, 67, 108
1, 158362, Note_off_c, 0, 72, 60
1, 158365, Control_c, 0, 67, 76
1, 158380, Control_c, 0, 67, 46
1, 158394, Control_c, 0, 67, 22
1, 158409, Control_c, 0, 67, 0
1, 158423, Note_on_c, 0, 71, 53
1, 158461, Note_off_c, 0, 71, 66
1, 158500, Note_on_c, 0, 69, 60
1, 158532, Note_off_c, 0, 69, 66
1, 158567, Note_on_c, 0, 68, 59
1, 158612, Note_off_c, 0, 68, 61
1, 158653, Note_on_c, 0, 69, 57
1, 158654, Note_on_c, 0, 57, 58
1, 158666, Note_on_c, 0, 48, 55
1, 158668, Note_on_c, 0, 52, 54
1, 158720, Note_off_c, 0, 69, 60
1, 158731, Note_on_c, 0, 71, 63
1, 158783, Note_off_c, 0, 71, 59
1, 158824, Note_on_c, 0, 72, 68
1, 158899, Note_on_c, 0, 71, 71
1, 158931, Note_off_c, 0, 72, 60
1, 158976, Note_off_c, 0, 71, 65
1, 158980, Note_on_c, 0, 69, 78
1, 159017, Note_off_c, 0, 69, 68
1, 159047, Note_on_c, 0, 67, 82
1, 159122, Note_on_c, 0, 65, 78
1, 159143, Note_off_c, 0, 67, 63
1, 159184, Note_off_c, 0, 65, 66
1, 159202, Note_on_c, 0, 64, 70
1, 159229, Note_off_c, 0, 52, 63
1, 159238, Note_off_c, 0, 57, 59
1, 159247, Note_off_c, 0, 64, 63
1, 159286, Note_on_c, 0, 62, 69
1, 159292, Note_on_c, 0, 53, 62
1, 159306, Note_on_c, 0, 50, 61
1, 159316, Note_off_c, 0, 62, 66
1, 159350, Control_c, 0, 64, 18
1, 159362, Note_on_c, 0, 58, 70
1, 159365, Control_c, 0, 64, 29
1, 159380, Control_c, 0, 64, 37
1, 159393, Note_off_c, 0, 48, 35
1, 159395, Control_c, 0, 64, 47
1, 159405, Note_off_c, 0, 58, 65
1, 159409, Control_c, 0, 64, 57
1, 159424, Control_c, 0, 64, 65
1, 159439, Control_c, 0, 64, 72
1, 159453, Control_c, 0, 64, 79
1, 159455, Note_on_c, 0, 65, 49
1, 159468, Control_c, 0, 64, 86
1, 159483, Note_off_c, 0, 65, 64
1, 159483, Control_c, 0, 64, 103
1, 159499, Control_c, 0, 64, 127
1, 159533, Note_on_c, 0, 62, 71
1, 159581, Note_off_c, 0, 62, 57
1, 159626, Note_on_c, 0, 70, 72
1, 159668, Note_off_c, 0, 70, 56
1, 159673, Note_off_c, 0, 53, 64
1, 159689, Note_on_c, 0, 65, 76
1, 159693, Note_off_c, 0, 50, 62
1, 159753, Note_off_c, 0, 65, 63
1, 159778, Note_on_c, 0, 74, 71
1, 159841, Note_off_c, 0, 74, 64
1, 159847, Note_on_c, 0, 70, 74
1, 159899, Note_off_c, 0, 70, 60
1, 159922, Control_c, 0, 64, 97
1, 159937, Note_on_c, 0, 77, 77
1, 159937, Control_c, 0, 64, 71
1, 159939, Note_on_c, 0, 53, 60
1, 159939, Note_on_c, 0, 59, 61
1, 159943, Note_on_c, 0, 50, 59
1, 159945, Note_on_c, 0, 56, 60
1, 159952, Control_c, 0, 64, 58
1, 159966, Control_c, 0, 64, 41
1, 159981, Control_c, 0, 64, 9
1, 159983, Note_off_c, 0, 77, 65
1, 159996, Control_c, 0, 64, 0
1, 160015, Note_on_c, 0, 74, 72
1, 160040, Control_c, 0, 64, 14
1, 160055, Control_c, 0, 64, 24
1, 160061, Note_off_c, 0, 74, 68
1, 160070, Control_c, 0, 64, 31
1, 160085, Control_c, 0, 64, 39
1, 160094, Note_on_c, 0, 80, 78
1, 160100, Control_c, 0, 64, 48
1, 160114, Control_c, 0, 64, 58
1, 160129, Control_c, 0, 64, 66
1, 160144, Control_c, 0, 64, 73
1, 160145, Note_off_c, 0, 80, 61
1, 160157, Note_on_c, 0, 77, 82
1, 160159, Control_c, 0, 64, 76
1, 160174, Control_c, 0, 64, 79
1, 160189, Control_c, 0, 64, 82
1, 160204, Control_c, 0, 64, 91
1, 160219, Control_c, 0, 64, 109
1, 160233, Control_c, 0, 64, 127
1, 160234, Note_off_c, 0, 77, 57
1, 160236, Note_on_c, 0, 83, 86
1, 160266, Note_off_c, 0, 59, 61
1, 160296, Note_off_c, 0, 53, 65
1, 160306, Note_off_c, 0, 83, 65
1, 160312, Note_off_c, 0, 56, 60
1, 160316, Note_on_c, 0, 80, 82
1, 160329, Note_off_c, 0, 50, 61
1, 160357, Note_off_c, 0, 80, 60
1, 160399, Note_on_c, 0, 86, 80
1, 160466, Note_on_c, 0, 83, 73
1, 160469, Note_off_c, 0, 86, 62
1, 160493, Control_c, 0, 64, 117
1, 160508, Control_c, 0, 64, 75
1, 160523, Control_c, 0, 64, 61
1, 160531, Note_off_c, 0, 83, 54
1, 160538, Control_c, 0, 64, 46
1, 160553, Control_c, 0, 64, 26
1, 160565, Note_on_c, 0, 88, 74
1, 160568, Control_c, 0, 64, 17
1, 160573, Note_on_c, 0, 57, 56
1, 160582, Control_c, 0, 64, 20
1, 160585, Note_on_c, 0, 48, 54
1, 160588, Note_on_c, 0, 52, 54
1, 160597, Control_c, 0, 64, 27
1, 160609, Note_off_c, 0, 57, 61
1, 160612, Control_c, 0, 64, 36
1, 160622, Note_off_c, 0, 52, 67
1, 160627, Control_c, 0, 64, 44
1, 160642, Control_c, 0, 64, 53
1, 160645, Note_on_c, 0, 84, 84
1, 160654, Note_off_c, 0, 88, 55
1, 160656, Control_c, 0, 64, 62
1, 160671, Control_c, 0, 64, 70
1, 160686, Control_c, 0, 64, 84
1, 160700, Control_c, 0, 64, 127
1, 160720, Note_on_c, 0, 81, 85
1, 160758, Note_off_c, 0, 84, 61
1, 160760, Control_c, 0, 64, 85
1, 160774, Control_c, 0, 64, 60
1, 160781, Note_off_c, 0, 81, 65
1, 160789, Control_c, 0, 64, 20
1, 160794, Note_on_c, 0, 76, 71
1, 160804, Control_c, 0, 64, 0
1, 160876, Note_off_c, 0, 76, 55
1, 160881, Note_on_c, 0, 79, 74
1, 160889, Note_off_c, 0, 48, 37
1, 160899, Note_on_c, 0, 57, 46
1, 160902, Note_on_c, 0, 50, 42
1, 160955, Note_on_c, 0, 77, 72
1, 160957, Note_off_c, 0, 79, 61
1, 161036, Note_off_c, 0, 77, 62
1, 161045, Note_on_c, 0, 76, 61
1, 161080, Note_off_c, 0, 76, 66
1, 161110, Note_on_c, 0, 74, 53
1, 161171, Note_off_c, 0, 74, 51
1, 161209, Note_on_c, 0, 72, 56
1, 161236, Note_on_c, 0, 52, 43
1, 161294, Note_off_c, 0, 50, 41
1, 161306, Note_off_c, 0, 72, 60
1, 161349, Note_on_c, 0, 71, 50
1, 161372, Note_off_c, 0, 71, 62
1, 161401, Note_on_c, 0, 72, 41
1, 161426, Note_off_c, 0, 72, 57
1, 161438, Note_on_c, 0, 71, 62
1, 161457, Note_off_c, 0, 71, 66
1, 161468, Note_off_c, 0, 57, 53
1, 161475, Note_on_c, 0, 72, 67
1, 161504, Note_off_c, 0, 72, 66
1, 161518, Note_on_c, 0, 71, 76
1, 161537, Note_on_c, 0, 56, 51
1, 161537, Note_off_c, 0, 52, 35
1, 161656, Control_c, 0, 64, 15
1, 161671, Control_c, 0, 64, 24
1, 161685, Control_c, 0, 64, 31
1, 161691, Note_off_c, 0, 71, 63
1, 161700, Control_c, 0, 64, 37
1, 161715, Control_c, 0, 64, 42
1, 161719, Note_on_c, 0, 69, 53
1, 161724, Note_off_c, 0, 56, 65
1, 161730, Control_c, 0, 64, 50
1, 161752, Control_c, 0, 64, 58
1, 161761, Note_off_c, 0, 69, 66
1, 161767, Control_c, 0, 64, 63
1, 161782, Control_c, 0, 64, 66
1, 161797, Control_c, 0, 64, 67
1, 161804, Note_on_c, 0, 71, 61
1, 161811, Control_c, 0, 64, 68
1, 161826, Control_c, 0, 64, 69
1, 161837, Note_off_c, 0, 71, 66
1, 161841, Control_c, 0, 64, 70
1, 161855, Control_c, 0, 64, 71
1, 161868, Note_on_c, 0, 69, 66
1, 161870, Control_c, 0, 64, 72
1, 161891, Note_off_c, 0, 69, 72
1, 161900, Control_c, 0, 64, 71
1, 161915, Control_c, 0, 64, 69
1, 161931, Control_c, 0, 64, 67
1, 161946, Control_c, 0, 64, 63
1, 161953, Note_on_c, 0, 69, 78
1, 161960, Control_c, 0, 64, 59
1, 161975, Control_c, 0, 64, 51
1, 161990, Control_c, 0, 64, 39
1, 162005, Control_c, 0, 64, 21
1, 162020, Note_off_c, 0, 69, 61
1, 162020, Control_c, 0, 64, 0
1, 162039, Note_on_c, 0, 67, 70
1, 162102, Note_off_c, 0, 67, 65
1, 162110, Note_on_c, 0, 65, 64
1, 162169, Note_off_c, 0, 65, 60
1, 162188, Note_on_c, 0, 64, 69
1, 162232, Note_off_c, 0, 64, 63
1, 162262, Note_on_c, 0, 65, 71
1, 162314, Note_off_c, 0, 65, 63
1, 162338, Note_on_c, 0, 63, 65
1, 162374, Note_off_c, 0, 63, 63
1, 162413, Note_on_c, 0, 65, 65
1, 162457, Note_off_c, 0, 65, 61
1, 162491, Note_on_c, 0, 64, 73
1, 162547, Note_off_c, 0, 64, 63
1, 162571, Note_on_c, 0, 65, 66
1, 162622, Note_off_c, 0, 65, 61
1, 162648, Note_on_c, 0, 63, 64
1, 162685, Note_off_c, 0, 63, 62
1, 162729, Note_on_c, 0, 65, 65
1, 162781, Note_off_c, 0, 65, 60
1, 162806, Note_on_c, 0, 80, 76
1, 162812, Note_on_c, 0, 64, 55
1, 162816, Note_on_c, 0, 71, 53
1, 162826, Note_off_c, 0, 80, 71
1, 162839, Note_off_c, 0, 71, 63
1, 162844, Note_off_c, 0, 64, 57
1, 162875, Note_on_c, 0, 65, 61
1, 162923, Note_off_c, 0, 65, 63
1, 162958, Note_on_c, 0, 62, 57
1, 162961, Note_on_c, 0, 76, 78
1, 162988, Note_off_c, 0, 76, 61
1, 163000, Note_off_c, 0, 62, 63
1, 163035, Note_on_c, 0, 64, 54
1, 163060, Note_off_c, 0, 64, 58
1, 163110, Control_c, 0, 64, 11
1, 163119, Note_on_c, 0, 81, 78
1, 163122, Note_on_c, 0, 60, 55
1, 163125, Control_c, 0, 64, 38
1, 163131, Note_on_c, 0, 72, 60
1, 163140, Note_off_c, 0, 81, 71
1, 163140, Control_c, 0, 64, 54
1, 163149, Note_off_c, 0, 72, 64
1, 163153, Note_off_c, 0, 60, 66
1, 163155, Control_c, 0, 64, 78
1, 163170, Control_c, 0, 64, 127
1, 163197, Note_on_c, 0, 69, 69
1, 163265, Note_off_c, 0, 69, 64
1, 163276, Note_on_c, 0, 67, 74
1, 163280, Control_c, 0, 67, 19
1, 163295, Control_c, 0, 67, 47
1, 163310, Control_c, 0, 67, 99
1, 163325, Control_c, 0, 64, 108
1, 163325, Control_c, 0, 67, 127
1, 163340, Control_c, 0, 64, 66
1, 163348, Note_off_c, 0, 67, 65
1, 163355, Control_c, 0, 64, 47
1, 163356, Note_on_c, 0, 65, 71
1, 163370, Control_c, 0, 64, 0
1, 163410, Note_off_c, 0, 65, 58
1, 163444, Note_on_c, 0, 64, 65
1, 163489, Note_off_c, 0, 64, 61
1, 163522, Note_on_c, 0, 65, 65
1, 163568, Note_off_c, 0, 65, 63
1, 163602, Note_on_c, 0, 63, 59
1, 163636, Note_off_c, 0, 63, 65
1, 163674, Note_on_c, 0, 65, 63
1, 163724, Note_off_c, 0, 65, 59
1, 163752, Note_on_c, 0, 64, 69
1, 163789, Note_off_c, 0, 64, 59
1, 163831, Note_on_c, 0, 65, 62
1, 163880, Note_off_c, 0, 65, 57
1, 163910, Note_on_c, 0, 63, 60
1, 163948, Note_off_c, 0, 63, 62
1, 164002, Note_on_c, 0, 65, 58
1, 164046, Note_off_c, 0, 65, 61
1, 164078, Note_on_c, 0, 80, 64
1, 164079, Note_on_c, 0, 64, 54
1, 164094, Note_on_c, 0, 71, 39
1, 164096, Note_off_c, 0, 80, 66
1, 164107, Note_off_c, 0, 64, 55
1, 164122, Note_off_c, 0, 71, 60
1, 164142, Note_on_c, 0, 65, 57
1, 164178, Note_off_c, 0, 65, 65
1, 164222, Note_on_c, 0, 62, 60
1, 164234, Note_on_c, 0, 76, 68
1, 164251, Note_off_c, 0, 76, 68
1, 164265, Note_off_c, 0, 62, 61
1, 164306, Note_on_c, 0, 64, 52
1, 164350, Note_off_c, 0, 64, 59
1, 164384, Note_on_c, 0, 81, 72
1, 164390, Note_on_c, 0, 60, 60
1, 164401, Note_on_c, 0, 72, 54
1, 164425, Note_off_c, 0, 60, 65
1, 164467, Note_on_c, 0, 62, 61
1, 164489, Control_c, 0, 67, 115
1, 164504, Control_c, 0, 67, 89
1, 164506, Note_off_c, 0, 62, 61
1, 164519, Control_c, 0, 67, 64
1, 164534, Control_c, 0, 67, 44
1, 164544, Note_on_c, 0, 59, 60
1, 164548, Control_c, 0, 67, 33
1, 164563, Control_c, 0, 67, 25
1, 164578, Note_off_c, 0, 72, 53
1, 164578, Control_c, 0, 67, 19
1, 164583, Note_off_c, 0, 59, 62
1, 164593, Control_c, 0, 67, 11
1, 164608, Control_c, 0, 67, 0
1, 164622, Note_on_c, 0, 60, 57
1, 164623, Note_off_c, 0, 81, 59
1, 164659, Note_off_c, 0, 60, 66
1, 164702, Note_on_c, 0, 57, 56
1, 164710, Note_on_c, 0, 76, 67
1, 164738, Note_off_c, 0, 76, 67
1, 164740, Note_off_c, 0, 57, 64
1, 164755, Note_on_c, 0, 77, 74
1, 164789, Note_on_c, 0, 59, 54
1, 164805, Note_off_c, 0, 77, 65
1, 164812, Note_on_c, 0, 76, 75
1, 164820, Note_off_c, 0, 59, 62
1, 164842, Note_off_c, 0, 76, 65
1, 164853, Note_on_c, 0, 55, 56
1, 164866, Note_on_c, 0, 74, 64
1, 164891, Note_off_c, 0, 55, 66
1, 164902, Note_off_c, 0, 74, 62
1, 164926, Note_on_c, 0, 76, 63
1, 164929, Note_on_c, 0, 57, 56
1, 164974, Note_off_c, 0, 57, 59
1, 165006, Note_off_c, 0, 76, 66
1, 165008, Note_on_c, 0, 81, 85
1, 165018, Note_on_c, 0, 53, 56
1, 165045, Control_c, 0, 64, 35
1, 165046, Note_off_c, 0, 81, 68
1, 165060, Control_c, 0, 64, 48
1, 165061, Note_off_c, 0, 53, 64
1, 165074, Control_c, 0, 64, 62
1, 165089, Control_c, 0, 64, 85
1, 165096, Note_on_c, 0, 55, 63
1, 165104, Control_c, 0, 64, 127
1, 165142, Note_off_c, 0, 55, 58
1, 165173, Note_on_c, 0, 52, 67
1, 165233, Note_off_c, 0, 52, 65
1, 165257, Note_on_c, 0, 53, 64
1, 165302, Note_off_c, 0, 53, 62
1, 165327, Control_c, 0, 64, 65
1, 165340, Note_on_c, 0, 50, 66
1, 165340, Note_on_c, 0, 72, 82
1, 165342, Control_c, 0, 64, 12
1, 165357, Control_c, 0, 64, 0
1, 165379, Note_off_c, 0, 50, 61
1, 165380, Note_off_c, 0, 72, 62
1, 165394, Note_on_c, 0, 74, 65
1, 165418, Note_on_c, 0, 52, 68
1, 165435, Note_off_c, 0, 74, 68
1, 165438, Note_on_c, 0, 72, 69
1, 165456, Note_off_c, 0, 52, 60
1, 165473, Note_off_c, 0, 72, 64
1, 165484, Note_on_c, 0, 71, 75
1, 165486, Note_on_c, 0, 48, 65
1, 165538, Note_off_c, 0, 48, 65
1, 165548, Note_off_c, 0, 71, 61
1, 165553, Note_on_c, 0, 72, 76
1, 165570, Note_on_c, 0, 50, 67
1, 165618, Note_off_c, 0, 50, 60
1, 165630, Control_c, 0, 64, 15
1, 165641, Note_on_c, 0, 74, 80
1, 165645, Note_off_c, 0, 72, 64
1, 165645, Control_c, 0, 64, 49
1, 165650, Note_on_c, 0, 47, 70
1, 165659, Note_off_c, 0, 74, 75
1, 165659, Control_c, 0, 64, 63
1, 165674, Control_c, 0, 64, 127
1, 165705, Note_off_c, 0, 47, 63
1, 165722, Note_on_c, 0, 48, 73
1, 165791, Note_off_c, 0, 48, 63
1, 165802, Note_on_c, 0, 45, 73
1, 165866, Note_off_c, 0, 45, 63
1, 165885, Note_on_c, 0, 47, 79
1, 165942, Control_c, 0, 64, 83
1, 165951, Note_off_c, 0, 47, 64
1, 165957, Control_c, 0, 64, 56
1, 165972, Control_c, 0, 64, 20
1, 165975, Note_on_c, 0, 44, 81
1, 165975, Note_on_c, 0, 83, 93
1, 165987, Control_c, 0, 64, 0
1, 166001, Control_c, 0, 64, 12
1, 166016, Control_c, 0, 64, 34
1, 166031, Control_c, 0, 64, 49
1, 166033, Note_off_c, 0, 44, 62
1, 166046, Control_c, 0, 64, 66
1, 166055, Note_on_c, 0, 45, 76
1, 166061, Control_c, 0, 64, 91
1, 166075, Control_c, 0, 64, 127
1, 166128, Note_on_c, 0, 42, 80
1, 166131, Note_off_c, 0, 45, 62
1, 166171, Note_off_c, 0, 83, 57
1, 166199, Note_on_c, 0, 44, 83
1, 166204, Note_off_c, 0, 42, 61
1, 166215, Note_on_c, 0, 84, 82
1, 166252, Note_off_c, 0, 84, 56
1, 166276, Control_c, 0, 64, 67
1, 166277, Note_off_c, 0, 44, 46
1, 166288, Note_on_c, 0, 40, 84
1, 166288, Note_on_c, 0, 86, 98
1, 166291, Control_c, 0, 64, 47
1, 166306, Control_c, 0, 64, 36
1, 166312, Note_off_c, 0, 86, 65
1, 166320, Control_c, 0, 64, 47
1, 166335, Control_c, 0, 64, 62
1, 166350, Control_c, 0, 64, 127
1, 166358, Note_off_c, 0, 40, 65
1, 166363, Note_on_c, 0, 41, 82
1, 166438, Note_off_c, 0, 41, 57
1, 166443, Note_on_c, 0, 38, 85
1, 166519, Note_off_c, 0, 38, 65
1, 166529, Note_on_c, 0, 40, 82
1, 166592, Note_off_c, 0, 40, 64
1, 166601, Control_c, 0, 64, 60
1, 166610, Note_on_c, 0, 36, 84
1, 166613, Note_on_c, 0, 80, 78
1, 166616, Control_c, 0, 64, 0
1, 166619, Note_on_c, 0, 76, 72
1, 166646, Note_off_c, 0, 80, 61
1, 166664, Note_on_c, 0, 81, 73
1, 166672, Note_off_c, 0, 36, 62
1, 166682, Note_on_c, 0, 38, 75
1, 166717, Note_on_c, 0, 80, 73
1, 166721, Note_off_c, 0, 76, 58
1, 166738, Note_off_c, 0, 81, 61
1, 166743, Note_off_c, 0, 38, 59
1, 166759, Note_on_c, 0, 35, 72
1, 166759, Note_on_c, 0, 78, 79
1, 166762, Note_off_c, 0, 80, 64
1, 166810, Note_off_c, 0, 35, 66
1, 166830, Note_on_c, 0, 38, 67
1, 166830, Note_on_c, 0, 80, 80
1, 166831, Note_off_c, 0, 78, 64
1, 166869, Note_off_c, 0, 38, 64
1, 166899, Note_off_c, 0, 80, 56
1, 166899, Control_c, 0, 64, 42
1, 166906, Note_on_c, 0, 36, 86
1, 166913, Note_on_c, 0, 81, 93
1, 166914, Control_c, 0, 64, 127
1, 166923, Note_on_c, 0, 76, 86
1, 166926, Note_off_c, 0, 36, 68
1, 166995, Control_c, 0, 64, 65
1, 167001, Note_on_c, 0, 80, 90
1, 167004, Note_off_c, 0, 81, 64
1, 167010, Control_c, 0, 64, 20
1, 167016, Note_off_c, 0, 76, 59
1, 167024, Control_c, 0, 64, 0
1, 167081, Note_off_c, 0, 80, 65
1, 167090, Note_on_c, 0, 81, 67
1, 167146, Note_on_c, 0, 76, 75
1, 167150, Note_off_c, 0, 81, 62
1, 167187, Note_off_c, 0, 76, 64
1, 167230, Note_on_c, 0, 38, 88
1, 167232, Control_c, 0, 64, 58
1, 167239, Note_on_c, 0, 71, 91
1, 167239, Note_on_c, 0, 79, 92
1, 167247, Control_c, 0, 64, 127
1, 167251, Note_off_c, 0, 38, 69
1, 167291, Control_c, 0, 64, 93
1, 167306, Control_c, 0, 64, 56
1, 167314, Note_on_c, 0, 77, 81
1, 167321, Control_c, 0, 64, 0
1, 167332, Note_off_c, 0, 79, 59
1, 167390, Note_off_c, 0, 71, 55
1, 167402, Note_on_c, 0, 76, 76
1, 167417, Note_off_c, 0, 77, 59
1, 167477, Note_off_c, 0, 76, 65
1, 167480, Note_on_c, 0, 74, 66
1, 167503, Note_off_c, 0, 74, 69
1, 167551, Note_on_c, 0, 40, 86
1, 167558, Note_on_c, 0, 72, 93
1, 167559, Control_c, 0, 64, 60
1, 167561, Note_on_c, 0, 69, 85
1, 167573, Control_c, 0, 64, 127
1, 167586, Note_off_c, 0, 40, 64
1, 167627, Note_on_c, 0, 74, 78
1, 167633, Control_c, 0, 64, 86
1, 167647, Note_off_c, 0, 72, 59
1, 167647, Control_c, 0, 64, 60
1, 167656, Note_off_c, 0, 69, 61
1, 167662, Control_c, 0, 64, 32
1, 167677, Control_c, 0, 64, 0
1, 167713, Note_off_c, 0, 74, 66
1, 167719, Note_on_c, 0, 76, 72
1, 167792, Note_off_c, 0, 76, 64
1, 167796, Note_on_c, 0, 72, 74
1, 167819, Note_off_c, 0, 72, 69
1, 167890, Note_on_c, 0, 68, 82
1, 167892, Note_on_c, 0, 40, 84
1, 167892, Note_on_c, 0, 71, 79
1, 167892, Control_c, 0, 64, 39
1, 167907, Control_c, 0, 64, 54
1, 167915, Note_off_c, 0, 40, 68
1, 167921, Control_c, 0, 64, 73
1, 167926, Note_on_c, 0, 70, 33
1, 167936, Control_c, 0, 64, 127
1, 167939, Note_off_c, 0, 68, 56
1, 167958, Note_off_c, 0, 70, 58
1, 167960, Note_on_c, 0, 72, 78
1, 167983, Note_off_c, 0, 71, 56
1, 168044, Note_on_c, 0, 74, 84
1, 168044, Note_off_c, 0, 72, 65
1, 168112, Note_on_c, 0, 71, 82
1, 168114, Control_c, 0, 64, 91
1, 168119, Note_off_c, 0, 74, 66
1, 168129, Control_c, 0, 64, 61
1, 168133, Note_off_c, 0, 71, 73
1, 168144, Control_c, 0, 64, 33
1, 168159, Control_c, 0, 64, 0
1, 168297, Note_on_c, 0, 56, 89
1, 168299, Note_on_c, 0, 86, 104
1, 168300, Note_on_c, 0, 59, 93
1, 168302, Note_on_c, 0, 53, 84
1, 168306, Control_c, 0, 64, 55
1, 168307, Note_on_c, 0, 50, 81
1, 168322, Control_c, 0, 64, 127
1, 168371, Note_off_c, 0, 86, 66
1, 168374, Note_on_c, 0, 89, 92
1, 168458, Note_on_c, 0, 83, 82
1, 168458, Note_off_c, 0, 89, 65
1, 168515, Note_off_c, 0, 83, 65
1, 168542, Note_on_c, 0, 86, 76
1, 168620, Note_on_c, 0, 80, 84
1, 168620, Note_off_c, 0, 86, 63
1, 168676, Note_off_c, 0, 80, 62
1, 168700, Note_on_c, 0, 83, 74
1, 168774, Note_off_c, 0, 83, 64
1, 168774, Note_on_c, 0, 77, 77
1, 168841, Note_on_c, 0, 80, 79
1, 168846, Note_off_c, 0, 77, 61
1, 168917, Note_off_c, 0, 80, 63
1, 168935, Note_on_c, 0, 74, 71
1, 168992, Note_off_c, 0, 74, 54
1, 168997, Note_on_c, 0, 77, 82
1, 169077, Note_off_c, 0, 77, 60
1, 169086, Note_on_c, 0, 71, 72
1, 169137, Note_off_c, 0, 71, 63
1, 169160, Note_on_c, 0, 74, 73
1, 169233, Note_on_c, 0, 68, 82
1, 169234, Note_off_c, 0, 74, 64
1, 169318, Note_off_c, 0, 56, 62
1, 169319, Note_off_c, 0, 53, 63
1, 169328, Note_on_c, 0, 71, 71
1, 169328, Note_off_c, 0, 68, 60
1, 169347, Note_off_c, 0, 50, 62
1, 169367, Note_off_c, 0, 59, 60
1, 169378, Note_on_c, 0, 65, 73
1, 169385, Note_off_c, 0, 71, 64
1, 169452, Note_on_c, 0, 68, 78
1, 169452, Note_off_c, 0, 65, 61
1, 169471, Note_off_c, 0, 68, 70
1, 169552, Control_c, 0, 64, 64
1, 169567, Control_c, 0, 64, 39
1, 169573, Note_on_c, 0, 81, 85
1, 169576, Note_on_c, 0, 72, 86
1, 169577, Note_on_c, 0, 75, 79
1, 169579, Note_on_c, 0, 60, 73
1, 169582, Control_c, 0, 64, 0
1, 169583, Note_on_c, 0, 78, 72
1, 169586, Note_on_c, 0, 84, 79
1, 169611, Control_c, 0, 64, 24
1, 169614, Note_off_c, 0, 60, 61
1, 169626, Control_c, 0, 64, 39
1, 169641, Control_c, 0, 64, 53
1, 169649, Note_on_c, 0, 63, 76
1, 169656, Control_c, 0, 64, 66
1, 169670, Control_c, 0, 64, 89
1, 169685, Control_c, 0, 64, 127
1, 169686, Note_off_c, 0, 63, 61
1, 169731, Note_on_c, 0, 57, 73
1, 169760, Note_off_c, 0, 57, 64
1, 169788, Control_c, 0, 64, 80
1, 169795, Note_on_c, 0, 60, 79
1, 169803, Control_c, 0, 64, 60
1, 169818, Control_c, 0, 64, 38
1, 169833, Control_c, 0, 64, 17
1, 169844, Note_off_c, 0, 60, 57
1, 169848, Control_c, 0, 64, 24
1, 169862, Control_c, 0, 64, 38
1, 169868, Note_on_c, 0, 54, 81
1, 169877, Control_c, 0, 64, 50
1, 169892, Control_c, 0, 64, 63
1, 169908, Control_c, 0, 64, 83
1, 169923, Control_c, 0, 64, 127
1, 169932, Note_off_c, 0, 54, 64
1, 169938, Note_on_c, 0, 57, 78
1, 170005, Control_c, 0, 64, 81
1, 170017, Note_off_c, 0, 57, 59
1, 170019, Note_on_c, 0, 51, 79
1, 170020, Control_c, 0, 64, 62
1, 170035, Control_c, 0, 64, 46
1, 170049, Control_c, 0, 64, 31
1, 170064, Control_c, 0, 64, 35
1, 170079, Control_c, 0, 64, 44
1, 170086, Note_off_c, 0, 51, 63
1, 170093, Control_c, 0, 64, 55
1, 170094, Note_on_c, 0, 54, 80
1, 170108, Control_c, 0, 64, 67
1, 170123, Control_c, 0, 64, 108
1, 170131, Note_off_c, 0, 54, 65
1, 170138, Control_c, 0, 64, 127
1, 170167, Control_c, 0, 64, 108
1, 170172, Note_on_c, 0, 48, 75
1, 170182, Control_c, 0, 64, 67
1, 170197, Control_c, 0, 64, 52
1, 170212, Control_c, 0, 64, 41
1, 170226, Control_c, 0, 64, 49
1, 170239, Note_on_c, 0, 51, 82
1, 170240, Note_off_c, 0, 48, 66
1, 170241, Control_c, 0, 64, 63
1, 170256, Control_c, 0, 64, 127
1, 170293, Note_off_c, 0, 51, 62
1, 170315, Control_c, 0, 64, 68
1, 170324, Note_on_c, 0, 45, 83
1, 170330, Control_c, 0, 64, 54
1, 170345, Control_c, 0, 64, 49
1, 170360, Control_c, 0, 64, 58
1, 170375, Control_c, 0, 64, 69
1, 170384, Note_off_c, 0, 45, 63
1, 170390, Control_c, 0, 64, 95
1, 170402, Note_on_c, 0, 48, 79
1, 170405, Control_c, 0, 64, 127
1, 170470, Note_on_c, 0, 42, 80
1, 170477, Note_off_c, 0, 48, 62
1, 170508, Control_c, 0, 64, 77
1, 170523, Control_c, 0, 64, 56
1, 170536, Note_off_c, 0, 84, 55
1, 170538, Control_c, 0, 64, 0
1, 170544, Note_on_c, 0, 45, 76
1, 170558, Note_off_c, 0, 42, 62
1, 170575, Note_off_c, 0, 75, 56
1, 170579, Note_off_c, 0, 81, 60
1, 170580, Note_off_c, 0, 78, 45
1, 170620, Note_off_c, 0, 45, 64
1, 170630, Note_on_c, 0, 39, 82
1, 170697, Note_on_c, 0, 42, 74
1, 170703, Note_off_c, 0, 39, 63
1, 170710, Note_off_c, 0, 72, 36
1, 170769, Note_off_c, 0, 42, 61
1, 170790, Note_on_c, 0, 40, 93
1, 170828, Control_c, 0, 64, 33
1, 170842, Control_c, 0, 64, 42
1, 170857, Control_c, 0, 64, 53
1, 170872, Control_c, 0, 64, 67
1, 170879, Note_on_c, 0, 81, 95
1, 170887, Control_c, 0, 64, 101
1, 170902, Control_c, 0, 64, 127
1, 170956, Note_on_c, 0, 76, 86
1, 170961, Note_off_c, 0, 81, 64
1, 171031, Note_on_c, 0, 72, 86
1, 171060, Note_off_c, 0, 76, 63
1, 171099, Note_off_c, 0, 72, 60
1, 171102, Note_on_c, 0, 69, 87
1, 171123, Note_off_c, 0, 40, 39
1, 171123, Control_c, 0, 64, 58
1, 171138, Control_c, 0, 64, 0
1, 171144, Note_off_c, 0, 69, 65
1, 171174, Note_on_c, 0, 52, 72
1, 171175, Note_on_c, 0, 64, 85
1, 171240, Note_off_c, 0, 52, 65
1, 171245, Note_on_c, 0, 48, 75
1, 171248, Note_on_c, 0, 60, 83
1, 171250, Note_off_c, 0, 64, 64
1, 171293, Note_off_c, 0, 60, 63
1, 171317, Note_on_c, 0, 45, 75
1, 171320, Note_on_c, 0, 57, 79
1, 171323, Note_off_c, 0, 48, 65
1, 171360, Note_off_c, 0, 57, 66
1, 171367, Note_off_c, 0, 45, 65
1, 171397, Note_on_c, 0, 52, 97
1, 171409, Note_on_c, 0, 40, 93
1, 171420, Control_c, 0, 64, 61
1, 171424, Note_off_c, 0, 52, 72
1, 171434, Control_c, 0, 64, 127
1, 171516, Control_c, 0, 64, 66
1, 171531, Control_c, 0, 64, 42
1, 171546, Control_c, 0, 64, 0
1, 171598, Note_off_c, 0, 40, 60
1, 171792, Note_on_c, 0, 64, 99
1, 171794, Note_on_c, 0, 76, 90
1, 171794, Note_on_c, 0, 68, 87
1, 171799, Note_on_c, 0, 71, 76
1, 171802, Note_on_c, 0, 52, 83
1, 171812, Control_c, 0, 64, 63
1, 171823, Note_off_c, 0, 52, 73
1, 171827, Control_c, 0, 64, 127
1, 171889, Note_off_c, 0, 76, 60
1, 171892, Note_off_c, 0, 64, 57
1, 171901, Note_off_c, 0, 68, 55
1, 171946, Note_off_c, 0, 71, 56
1, 172020, Control_c, 0, 64, 106
1, 172035, Control_c, 0, 64, 72
1, 172050, Control_c, 0, 64, 60
1, 172064, Control_c, 0, 64, 41
1, 172079, Control_c, 0, 64, 13
1, 172094, Control_c, 0, 64, 0
1, 172248, Note_on_c, 0, 69, 62
1, 172263, Note_on_c, 0, 57, 43
1, 172294, Control_c, 0, 64, 14
1, 172309, Control_c, 0, 64, 23
1, 172317, Note_off_c, 0, 57, 61
1, 172324, Control_c, 0, 64, 30
1, 172339, Control_c, 0, 64, 38
1, 172342, Note_on_c, 0, 59, 57
1, 172354, Control_c, 0, 64, 47
1, 172369, Control_c, 0, 64, 59
1, 172384, Control_c, 0, 64, 66
1, 172385, Note_off_c, 0, 59, 61
1, 172399, Control_c, 0, 64, 74
1, 172413, Control_c, 0, 64, 78
1, 172415, Note_on_c, 0, 60, 63
1, 172451, Note_off_c, 0, 60, 63
1, 172488, Note_on_c, 0, 59, 61
1, 172501, Note_off_c, 0, 69, 60
1, 172551, Note_off_c, 0, 59, 61
1, 172580, Note_on_c, 0, 57, 65
1, 172581, Note_on_c, 0, 72, 75
1, 172587, Note_on_c, 0, 69, 62
1, 172604, Note_off_c, 0, 69, 67
1, 172604, Note_off_c, 0, 72, 68
1, 172640, Note_off_c, 0, 57, 54
1, 172652, Note_on_c, 0, 55, 67
1, 172741, Note_off_c, 0, 55, 62
1, 172760, Note_on_c, 0, 53, 58
1, 172828, Control_c, 0, 64, 75
1, 172834, Note_on_c, 0, 69, 68
1, 172834, Note_on_c, 0, 72, 67
1, 172843, Control_c, 0, 64, 66
1, 172844, Note_off_c, 0, 53, 63
1, 172851, Note_off_c, 0, 72, 66
1, 172852, Note_off_c, 0, 69, 69
1, 172858, Control_c, 0, 64, 54
1, 172873, Note_on_c, 0, 52, 51
1, 172873, Control_c, 0, 64, 30
1, 172887, Control_c, 0, 64, 0
1, 172902, Note_on_c, 0, 72, 84
1, 172905, Note_on_c, 0, 69, 79
1, 172917, Control_c, 0, 64, 19
1, 172921, Note_on_c, 0, 53, 52
1, 172921, Note_off_c, 0, 69, 75
1, 172924, Note_off_c, 0, 52, 61
1, 172932, Control_c, 0, 64, 36
1, 172932, Note_off_c, 0, 72, 65
1, 172947, Control_c, 0, 64, 49
1, 172961, Control_c, 0, 64, 62
1, 172977, Control_c, 0, 64, 81
1, 172999, Control_c, 0, 64, 127
1, 173010, Note_off_c, 0, 53, 65
1, 173012, Note_on_c, 0, 55, 68
1, 173077, Note_off_c, 0, 55, 64
1, 173087, Note_on_c, 0, 57, 62
1, 173155, Note_off_c, 0, 57, 60
1, 173164, Note_on_c, 0, 55, 66
1, 173242, Note_off_c, 0, 55, 63
1, 173254, Note_on_c, 0, 72, 86
1, 173257, Note_on_c, 0, 53, 78
1, 173259, Note_on_c, 0, 69, 77
1, 173278, Note_off_c, 0, 69, 75
1, 173281, Control_c, 0, 64, 111
1, 173293, Note_off_c, 0, 72, 63
1, 173296, Control_c, 0, 64, 105
1, 173311, Control_c, 0, 64, 101
1, 173326, Control_c, 0, 64, 100
1, 173328, Note_off_c, 0, 53, 63
1, 173337, Note_on_c, 0, 52, 72
1, 173341, Control_c, 0, 64, 99
1, 173356, Control_c, 0, 64, 98
1, 173371, Control_c, 0, 64, 97
1, 173385, Control_c, 0, 64, 95
1, 173400, Control_c, 0, 64, 94
1, 173415, Control_c, 0, 64, 93
1, 173431, Note_on_c, 0, 50, 65
1, 173433, Note_off_c, 0, 52, 61
1, 173444, Control_c, 0, 64, 93
1, 173459, Control_c, 0, 64, 92
1, 173489, Control_c, 0, 64, 92
1, 173503, Note_on_c, 0, 72, 78
1, 173504, Control_c, 0, 64, 85
1, 173514, Note_on_c, 0, 69, 63
1, 173514, Note_off_c, 0, 50, 58
1, 173518, Control_c, 0, 64, 70
1, 173527, Note_off_c, 0, 72, 65
1, 173531, Note_off_c, 0, 69, 68
1, 173532, Note_on_c, 0, 48, 70
1, 173533, Control_c, 0, 64, 56
1, 173548, Control_c, 0, 64, 23
1, 173563, Control_c, 0, 64, 0
1, 173570, Note_on_c, 0, 71, 81
1, 173576, Note_on_c, 0, 69, 77
1, 173610, Note_on_c, 0, 50, 67
1, 173610, Note_off_c, 0, 48, 61
1, 173622, Control_c, 0, 64, 8
1, 173636, Control_c, 0, 64, 28
1, 173651, Control_c, 0, 64, 39
1, 173666, Control_c, 0, 64, 51
1, 173681, Note_on_c, 0, 52, 74
1, 173681, Control_c, 0, 64, 63
1, 173687, Note_off_c, 0, 50, 58
1, 173696, Control_c, 0, 64, 82
1, 173710, Control_c, 0, 64, 113
1, 173733, Control_c, 0, 64, 127
1, 173755, Note_off_c, 0, 52, 65
1, 173762, Note_on_c, 0, 53, 70
1, 173826, Note_off_c, 0, 69, 55
1, 173830, Note_off_c, 0, 53, 65
1, 173838, Note_on_c, 0, 52, 75
1, 173841, Note_off_c, 0, 71, 60
1, 173896, Control_c, 0, 64, 70
1, 173912, Control_c, 0, 64, 54
1, 173916, Note_off_c, 0, 52, 65
1, 173924, Note_on_c, 0, 50, 78
1, 173925, Note_on_c, 0, 71, 85
1, 173926, Note_on_c, 0, 69, 79
1, 173927, Control_c, 0, 64, 35
1, 173941, Control_c, 0, 64, 30
1, 173956, Control_c, 0, 64, 37
1, 173969, Note_off_c, 0, 69, 63
1, 173971, Control_c, 0, 64, 44
1, 173979, Note_off_c, 0, 71, 65
1, 173986, Control_c, 0, 64, 54
1, 173992, Note_off_c, 0, 50, 59
1, 173997, Note_on_c, 0, 47, 77
1, 174001, Control_c, 0, 64, 62
1, 174015, Control_c, 0, 64, 69
1, 174030, Control_c, 0, 64, 74
1, 174089, Control_c, 0, 64, 74
1, 174096, Note_on_c, 0, 48, 70
1, 174104, Control_c, 0, 64, 75
1, 174119, Control_c, 0, 64, 78
1, 174134, Control_c, 0, 64, 79
1, 174140, Note_off_c, 0, 47, 59
1, 174163, Control_c, 0, 64, 78
1, 174175, Note_on_c, 0, 71, 74
1, 174177, Note_on_c, 0, 50, 73
1, 174178, Control_c, 0, 64, 68
1, 174187, Note_off_c, 0, 48, 64
1, 174190, Note_on_c, 0, 69, 46
1, 174193, Control_c, 0, 64, 57
1, 174196, Note_off_c, 0, 71, 72
1, 174208, Control_c, 0, 64, 31
1, 174213, Note_off_c, 0, 69, 61
1, 174223, Control_c, 0, 64, 0
1, 174232, Note_off_c, 0, 50, 61
1, 174248, Note_on_c, 0, 52, 71
1, 174251, Note_on_c, 0, 76, 87
1, 174256, Note_on_c, 0, 71, 78
1, 174265, Note_on_c, 0, 68, 74
1, 174282, Control_c, 0, 64, 15
1, 174297, Control_c, 0, 64, 31
1, 174312, Control_c, 0, 64, 44
1, 174315, Note_off_c, 0, 52, 65
1, 174320, Note_on_c, 0, 51, 73
1, 174327, Control_c, 0, 64, 57
1, 174341, Control_c, 0, 64, 69
1, 174356, Control_c, 0, 64, 84
1, 174371, Control_c, 0, 64, 91
1, 174386, Note_off_c, 0, 51, 63
1, 174402, Note_on_c, 0, 52, 72
1, 174445, Control_c, 0, 64, 95
1, 174459, Control_c, 0, 64, 127
1, 174471, Note_off_c, 0, 52, 64
1, 174482, Note_off_c, 0, 76, 50
1, 174487, Note_on_c, 0, 51, 77
1, 174496, Note_off_c, 0, 71, 54
1, 174514, Note_off_c, 0, 68, 55
1, 174553, Note_off_c, 0, 51, 60
1, 174556, Control_c, 0, 64, 71
1, 174571, Control_c, 0, 64, 58
1, 174576, Note_on_c, 0, 52, 78
1, 174584, Note_on_c, 0, 76, 89
1, 174585, Control_c, 0, 64, 46
1, 174587, Note_on_c, 0, 71, 82
1, 174595, Note_on_c, 0, 68, 76
1, 174600, Control_c, 0, 64, 44
1, 174615, Control_c, 0, 64, 51
1, 174630, Control_c, 0, 64, 58
1, 174636, Note_off_c, 0, 52, 61
1, 174645, Control_c, 0, 64, 65
1, 174646, Note_off_c, 0, 68, 40
1, 174649, Note_off_c, 0, 71, 58
1, 174652, Note_on_c, 0, 50, 76
1, 174659, Control_c, 0, 64, 73
1, 174664, Note_off_c, 0, 76, 56
1, 174674, Control_c, 0, 64, 76
1, 174705, Control_c, 0, 64, 75
1, 174735, Note_off_c, 0, 50, 61
1, 174749, Note_on_c, 0, 48, 77
1, 174750, Control_c, 0, 64, 76
1, 174779, Control_c, 0, 64, 76
1, 174794, Control_c, 0, 64, 77
1, 174808, Control_c, 0, 64, 80
1, 174816, Note_off_c, 0, 48, 59
1, 174823, Control_c, 0, 64, 85
1, 174838, Note_on_c, 0, 47, 74
1, 174838, Control_c, 0, 64, 81
1, 174840, Note_on_c, 0, 68, 79
1, 174845, Note_on_c, 0, 76, 73
1, 174853, Note_on_c, 0, 71, 59
1, 174853, Control_c, 0, 64, 65
1, 174865, Note_off_c, 0, 68, 64
1, 174868, Note_off_c, 0, 76, 68
1, 174868, Control_c, 0, 64, 45
1, 174872, Note_off_c, 0, 71, 65
1, 174882, Control_c, 0, 64, 0
1, 174899, Note_off_c, 0, 47, 59
1, 174913, Note_on_c, 0, 45, 73
1, 174914, Note_on_c, 0, 72, 92
1, 174918, Note_on_c, 0, 69, 83
1, 174971, Control_c, 0, 64, 21
1, 174985, Note_off_c, 0, 45, 64
1, 174986, Control_c, 0, 64, 37
1, 174989, Note_on_c, 0, 47, 73
1, 175001, Control_c, 0, 64, 50
1, 175016, Control_c, 0, 64, 63
1, 175031, Control_c, 0, 64, 83
1, 175046, Control_c, 0, 64, 127
1, 175052, Note_off_c, 0, 47, 64
1, 175059, Note_on_c, 0, 48, 75
1, 175126, Note_off_c, 0, 48, 63
1, 175138, Note_on_c, 0, 47, 70
1, 175142, Note_off_c, 0, 72, 57
1, 175146, Note_off_c, 0, 69, 54
1, 175218, Note_off_c, 0, 47, 62
1, 175247, Note_on_c, 0, 45, 76
1, 175257, Note_on_c, 0, 81, 91
1, 175257, Note_on_c, 0, 72, 89
1, 175258, Note_on_c, 0, 69, 87
1, 175276, Note_off_c, 0, 69, 75
1, 175276, Note_off_c, 0, 72, 69
1, 175280, Note_off_c, 0, 81, 59
1, 175309, Note_off_c, 0, 45, 62
1, 175320, Note_on_c, 0, 43, 75
1, 175412, Note_on_c, 0, 41, 71
1, 175415, Note_off_c, 0, 43, 60
1, 175502, Note_off_c, 0, 41, 57
1, 175505, Note_on_c, 0, 81, 85
1, 175506, Note_on_c, 0, 69, 67
1, 175511, Note_on_c, 0, 72, 64
1, 175513, Control_c, 0, 64, 77
1, 175514, Note_on_c, 0, 40, 76
1, 175519, Note_on_c, 0, 74, 58
1, 175523, Note_off_c, 0, 81, 73
1, 175527, Note_off_c, 0, 69, 68
1, 175528, Note_off_c, 0, 72, 67
1, 175528, Control_c, 0, 64, 57
1, 175538, Note_off_c, 0, 74, 66
1, 175541, Note_on_c, 0, 71, 16
1, 175543, Control_c, 0, 64, 18
1, 175558, Control_c, 0, 64, 0
1, 175579, Note_off_c, 0, 71, 53
1, 175584, Note_on_c, 0, 72, 98
1, 175585, Note_on_c, 0, 69, 101
1, 175587, Note_on_c, 0, 41, 77
1, 175588, Note_on_c, 0, 81, 99
1, 175595, Note_off_c, 0, 40, 62
1, 175609, Note_on_c, 0, 79, 65
1, 175610, Note_off_c, 0, 79, 127
1, 175631, Control_c, 0, 64, 19
1, 175646, Control_c, 0, 64, 36
1, 175661, Control_c, 0, 64, 48
1, 175669, Note_on_c, 0, 43, 74
1, 175672, Note_off_c, 0, 41, 63
1, 175676, Control_c, 0, 64, 62
1, 175691, Control_c, 0, 64, 76
1, 175705, Control_c, 0, 64, 99
1, 175720, Control_c, 0, 64, 103
1, 175745, Note_off_c, 0, 43, 61
1, 175748, Note_on_c, 0, 45, 76
1, 175750, Control_c, 0, 64, 104
1, 175765, Control_c, 0, 64, 108
1, 175779, Control_c, 0, 64, 115
1, 175794, Control_c, 0, 64, 127
1, 175818, Note_off_c, 0, 45, 62
1, 175823, Note_on_c, 0, 43, 71
1, 175825, Note_off_c, 0, 81, 50
1, 175851, Note_off_c, 0, 69, 54
1, 175854, Note_off_c, 0, 72, 59
1, 175907, Note_off_c, 0, 43, 57
1, 175922, Note_on_c, 0, 41, 81
1, 175932, Note_on_c, 0, 81, 96
1, 175933, Note_on_c, 0, 72, 97
1, 175937, Note_on_c, 0, 69, 86
1, 175955, Note_off_c, 0, 69, 74
1, 175964, Note_off_c, 0, 72, 61
1, 175970, Note_off_c, 0, 81, 59
1, 176000, Note_off_c, 0, 41, 61
1, 176003, Note_on_c, 0, 40, 80
1, 176086, Note_on_c, 0, 38, 71
1, 176101, Note_off_c, 0, 40, 61
1, 176191, Note_off_c, 0, 38, 59
1, 176192, Note_on_c, 0, 72, 88
1, 176196, Note_on_c, 0, 36, 72
1, 176200, Note_on_c, 0, 69, 75
1, 176201, Note_on_c, 0, 81, 81
1, 176202, Control_c, 0, 64, 95
1, 176215, Note_off_c, 0, 69, 72
1, 176215, Note_off_c, 0, 72, 64
1, 176217, Control_c, 0, 64, 68
1, 176220, Note_off_c, 0, 81, 73
1, 176232, Control_c, 0, 64, 50
1, 176246, Control_c, 0, 64, 0
1, 176271, Note_on_c, 0, 71, 94
1, 176271, Note_on_c, 0, 81, 95
1, 176272, Note_on_c, 0, 77, 95
1, 176274, Note_on_c, 0, 38, 75
1, 176285, Note_off_c, 0, 36, 62
1, 176322, Control_c, 0, 64, 13
1, 176336, Control_c, 0, 64, 31
1, 176349, Note_on_c, 0, 40, 76
1, 176351, Control_c, 0, 64, 43
1, 176358, Note_off_c, 0, 38, 62
1, 176366, Control_c, 0, 64, 55
1, 176380, Control_c, 0, 64, 67
1, 176395, Control_c, 0, 64, 80
1, 176410, Control_c, 0, 64, 88
1, 176430, Note_on_c, 0, 41, 76
1, 176432, Note_off_c, 0, 40, 64
1, 176440, Control_c, 0, 64, 88
1, 176454, Control_c, 0, 64, 90
1, 176469, Control_c, 0, 64, 105
1, 176484, Control_c, 0, 64, 127
1, 176508, Note_on_c, 0, 40, 75
1, 176510, Note_off_c, 0, 41, 61
1, 176525, Note_off_c, 0, 81, 55
1, 176527, Note_off_c, 0, 77, 55
1, 176530, Note_off_c, 0, 71, 55
1, 176587, Control_c, 0, 64, 84
1, 176602, Control_c, 0, 64, 60
1, 176608, Note_on_c, 0, 38, 86
1, 176611, Note_off_c, 0, 40, 63
1, 176617, Note_on_c, 0, 77, 99
1, 176617, Control_c, 0, 64, 36
1, 176620, Note_on_c, 0, 81, 95
1, 176621, Note_on_c, 0, 71, 94
1, 176632, Control_c, 0, 64, 0
1, 176647, Control_c, 0, 64, 11
1, 176661, Control_c, 0, 64, 30
1, 176676, Control_c, 0, 64, 42
1, 176689, Note_on_c, 0, 35, 78
1, 176691, Control_c, 0, 64, 55
1, 176696, Note_off_c, 0, 38, 58
1, 176706, Control_c, 0, 64, 67
1, 176721, Control_c, 0, 64, 88
1, 176743, Control_c, 0, 64, 108
1, 176750, Note_off_c, 0, 77, 55
1, 176756, Note_off_c, 0, 71, 54
1, 176756, Note_off_c, 0, 81, 61
1, 176787, Control_c, 0, 64, 110
1, 176790, Note_on_c, 0, 36, 77
1, 176802, Control_c, 0, 64, 127
1, 176827, Note_off_c, 0, 35, 64
1, 176877, Note_on_c, 0, 38, 83
1, 176889, Note_on_c, 0, 77, 82
1, 176891, Note_on_c, 0, 81, 76
1, 176893, Note_off_c, 0, 36, 62
1, 176900, Note_on_c, 0, 71, 63
1, 176906, Control_c, 0, 64, 114
1, 176912, Note_off_c, 0, 77, 66
1, 176918, Note_off_c, 0, 71, 68
1, 176918, Note_off_c, 0, 81, 65
1, 176921, Control_c, 0, 64, 66
1, 176936, Control_c, 0, 64, 44
1, 176951, Control_c, 0, 64, 0
1, 176955, Note_off_c, 0, 38, 61
1, 176962, Note_on_c, 0, 40, 81
1, 176963, Note_on_c, 0, 71, 91
1, 176964, Note_on_c, 0, 80, 94
1, 176968, Note_on_c, 0, 76, 90
1, 177010, Control_c, 0, 64, 12
1, 177025, Control_c, 0, 64, 28
1, 177040, Control_c, 0, 64, 41
1, 177042, Note_on_c, 0, 39, 82
1, 177048, Note_off_c, 0, 40, 65
1, 177054, Control_c, 0, 64, 52
1, 177069, Control_c, 0, 64, 62
1, 177084, Control_c, 0, 64, 70
1, 177099, Control_c, 0, 64, 78
1, 177115, Control_c, 0, 64, 79
1, 177132, Note_on_c, 0, 40, 84
1, 177134, Note_off_c, 0, 39, 63
1, 177144, Control_c, 0, 64, 80
1, 177159, Control_c, 0, 64, 89
1, 177174, Control_c, 0, 64, 127
1, 177177, Note_off_c, 0, 76, 53
1, 177207, Note_on_c, 0, 39, 78
1, 177210, Note_off_c, 0, 71, 53
1, 177216, Note_off_c, 0, 40, 63
1, 177216, Note_off_c, 0, 80, 54
1, 177277, Control_c, 0, 64, 88
1, 177292, Control_c, 0, 64, 58
1, 177302, Note_on_c, 0, 40, 91
1, 177306, Note_on_c, 0, 76, 93
1, 177307, Note_off_c, 0, 39, 64
1, 177307, Control_c, 0, 64, 19
1, 177308, Note_on_c, 0, 80, 95
1, 177311, Note_on_c, 0, 71, 94
1, 177322, Control_c, 0, 64, 0
1, 177351, Control_c, 0, 64, 19
1, 177366, Control_c, 0, 64, 36
1, 177381, Control_c, 0, 64, 49
1, 177388, Note_on_c, 0, 38, 80
1, 177395, Control_c, 0, 64, 63
1, 177396, Note_off_c, 0, 40, 61
1, 177410, Control_c, 0, 64, 77
1, 177425, Control_c, 0, 64, 98
1, 177439, Note_off_c, 0, 71, 58
1, 177440, Control_c, 0, 64, 111
1, 177447, Note_off_c, 0, 76, 57
1, 177447, Note_off_c, 0, 80, 58
1, 177455, Control_c, 0, 64, 127
1, 177490, Note_on_c, 0, 36, 73
1, 177496, Note_off_c, 0, 38, 62
1, 177557, Note_off_c, 0, 36, 63
1, 177563, Note_on_c, 0, 35, 75
1, 177577, Note_on_c, 0, 80, 79
1, 177578, Note_on_c, 0, 76, 78
1, 177596, Control_c, 0, 64, 67
1, 177597, Note_on_c, 0, 71, 41
1, 177602, Note_off_c, 0, 76, 69
1, 177609, Note_off_c, 0, 80, 59
1, 177610, Control_c, 0, 64, 52
1, 177614, Note_off_c, 0, 35, 63
1, 177620, Note_off_c, 0, 71, 59
1, 177625, Control_c, 0, 64, 59
1, 177640, Control_c, 0, 64, 127
1, 177649, Note_on_c, 0, 81, 104
1, 177651, Note_on_c, 0, 33, 91
1, 177652, Note_on_c, 0, 72, 95
1, 177652, Note_on_c, 0, 76, 98
1, 177681, Note_off_c, 0, 72, 65
1, 177681, Note_off_c, 0, 76, 69
1, 177684, Note_off_c, 0, 81, 69
1, 177714, Control_c, 0, 64, 95
1, 177729, Control_c, 0, 64, 50
1, 177744, Control_c, 0, 64, 0
1, 177785, Note_off_c, 0, 33, 63
1, 178022, Note_on_c, 0, 72, 93
1, 178022, Note_on_c, 0, 76, 95
1, 178023, Note_on_c, 0, 69, 87
1, 178026, Control_c, 0, 64, 39
1, 178028, Note_on_c, 0, 45, 85
1, 178033, Note_on_c, 0, 33, 84
1, 178041, Control_c, 0, 64, 74
1, 178049, Note_off_c, 0, 69, 67
1, 178053, Note_off_c, 0, 72, 67
1, 178055, Note_off_c, 0, 76, 70
1, 178056, Control_c, 0, 64, 127
1, 178119, Note_off_c, 0, 45, 61
1, 178130, Control_c, 0, 64, 89
1, 178137, Note_off_c, 0, 33, 62
1, 178145, Control_c, 0, 64, 56
1, 178160, Control_c, 0, 64, 0
1, 178462, Note_on_c, 0, 69, 90
1, 178462, Note_on_c, 0, 72, 92
1, 178462, Note_on_c, 0, 64, 97
1, 178463, Control_c, 0, 64, 37
1, 178465, Note_on_c, 0, 45, 94
1, 178471, Note_on_c, 0, 33, 83
1, 178478, Control_c, 0, 64, 58
1, 178493, Control_c, 0, 64, 127
1, 178514, Note_off_c, 0, 45, 65
1, 178522, Note_off_c, 0, 33, 63
1, 178522, Note_off_c, 0, 64, 64
1, 178528, Note_off_c, 0, 69, 67
1, 178539, Note_off_c, 0, 72, 65
1, 178953, Control_c, 0, 64, 91
1, 178968, Control_c, 0, 64, 74
1, 178990, Control_c, 0, 64, 63
1, 179004, Control_c, 0, 64, 53
1, 179019, Control_c, 0, 64, 31
1, 179034, Control_c, 0, 64, 0
1, 179109, End_track
0, 0, End_of_file
