0, 0, Header, 0, 1, 384
1, 0, Start_track
1, 0, Title_t, "Toccata 'Couperin'--Jia         "
1, 0, Text_t, "2009 International Piano-e-Competition finals"
1, 0, Text_t, "captured June-July 2009"
1, 0, Text_t, "http://www.piano-e-competition.com/"
1, 0, Text_t, "standard-resolution version"
1, 0, Text_t, "File processed for distribution by software from Zenph Studios, Inc., http://www.zenph.com"
1, 0, Instrument_name_t, "Yamaha Disklavier Pro Mark IV concert grand piano, model DCFIIISM4PRO"
1, 0, Sequencer_specific, 39, 67, 113, 0, 1, 0, 1, 0, 84, 111, 99, 99, 97, 116, 97, 67, 111, 117, 112, 101, 114, 105, 110, 32, 82, 97, 110, 32, 74, 105, 97, 32, 32, 32, 32, 32, 32, 32, 32, 32
1, 0, Sequencer_specific, 6, 67, 113, 0, 0, 0, 69
1, 0, System_exclusive, 21, 67, 113, 126, 21, 0, 2, 2, 2, 3, 12, 8, 4, 10, 4, 10, 4, 10, 10, 15, 3, 247
1, 0, Sequencer_specific, 5, 67, 123, 12, 2, 1
1, 0, Tempo, 512820
1, 0, Time_signature, 4, 2, 24, 8
1, 0, System_exclusive, 5, 126, 127, 9, 1, 247
1, 1, System_exclusive, 8, 67, 16, 76, 0, 0, 126, 0, 247
1, 2, System_exclusive, 8, 67, 16, 76, 8, 9, 7, 1, 247
1, 3, Control_c, 0, 0, 0
1, 3, Control_c, 1, 0, 0
1, 3, Control_c, 2, 0, 0
1, 3, Control_c, 3, 0, 0
1, 3, Control_c, 4, 0, 0
1, 3, Control_c, 5, 0, 0
1, 3, Control_c, 6, 0, 0
1, 3, Control_c, 7, 0, 0
1, 3, Control_c, 8, 0, 0
1, 3, Control_c, 9, 0, 127
1, 3, Control_c, 10, 0, 0
1, 3, Control_c, 11, 0, 0
1, 3, Control_c, 12, 0, 0
1, 3, Control_c, 13, 0, 0
1, 3, Control_c, 14, 0, 0
1, 3, Control_c, 15, 0, 0
1, 4, Control_c, 0, 32, 0
1, 4, Control_c, 1, 32, 0
1, 4, Control_c, 2, 32, 0
1, 4, Control_c, 3, 32, 0
1, 4, Control_c, 4, 32, 0
1, 4, Control_c, 5, 32, 0
1, 4, Control_c, 6, 32, 0
1, 4, Control_c, 7, 32, 0
1, 4, Control_c, 8, 32, 0
1, 4, Control_c, 9, 32, 0
1, 4, Control_c, 10, 32, 0
1, 4, Control_c, 11, 32, 0
1, 4, Control_c, 12, 32, 0
1, 4, Control_c, 13, 32, 0
1, 4, Control_c, 14, 32, 0
1, 4, Control_c, 15, 32, 0
1, 5, Program_c, 0, 0
1, 5, Program_c, 1, 0
1, 5, Program_c, 2, 0
1, 5, Program_c, 3, 0
1, 5, Program_c, 4, 0
1, 5, Program_c, 5, 0
1, 5, Program_c, 6, 0
1, 5, Program_c, 7, 0
1, 5, Program_c, 8, 0
1, 5, Program_c, 9, 0
1, 5, Program_c, 10, 0
1, 5, Program_c, 11, 0
1, 5, Program_c, 12, 0
1, 5, Program_c, 13, 0
1, 5, Program_c, 14, 0
1, 5, Program_c, 15, 0
1, 6, Control_c, 0, 7, 100
1, 6, Control_c, 1, 7, 100
1, 6, Control_c, 2, 7, 100
1, 6, Control_c, 3, 7, 100
1, 6, Control_c, 4, 7, 100
1, 6, Control_c, 5, 7, 100
1, 6, Control_c, 6, 7, 100
1, 6, Control_c, 7, 7, 100
1, 6, Control_c, 8, 7, 100
1, 6, Control_c, 9, 7, 100
1, 6, Control_c, 10, 7, 100
1, 6, Control_c, 11, 7, 100
1, 6, Control_c, 12, 7, 100
1, 6, Control_c, 13, 7, 100
1, 6, Control_c, 14, 7, 100
1, 6, Control_c, 15, 7, 100
1, 117, Control_c, 0, 67, 15
1, 229, Control_c, 0, 67, 31
1, 341, Control_c, 0, 67, 46
1, 452, Control_c, 0, 67, 63
1, 564, Control_c, 0, 67, 77
1, 676, Control_c, 0, 67, 94
1, 787, Control_c, 0, 67, 108
1, 899, Control_c, 0, 67, 127
1, 1129, Note_on_c, 0, 76, 73
1, 1153, Note_off_c, 0, 76, 67
1, 1207, Note_on_c, 0, 76, 57
1, 1228, Note_off_c, 0, 76, 61
1, 1273, Note_on_c, 0, 76, 69
1, 1291, Note_off_c, 0, 76, 65
1, 1347, Note_on_c, 0, 76, 60
1, 1365, Note_off_c, 0, 76, 63
1, 1415, Note_on_c, 0, 76, 65
1, 1434, Note_off_c, 0, 76, 63
1, 1493, Note_on_c, 0, 76, 57
1, 1514, Note_off_c, 0, 76, 61
1, 1553, Note_on_c, 0, 76, 60
1, 1573, Note_off_c, 0, 76, 61
1, 1621, Note_on_c, 0, 76, 70
1, 1647, Note_off_c, 0, 76, 66
1, 1698, Note_on_c, 0, 76, 75
1, 1715, Note_off_c, 0, 76, 67
1, 1776, Note_on_c, 0, 76, 69
1, 1794, Note_off_c, 0, 76, 65
1, 1843, Note_on_c, 0, 76, 64
1, 1860, Note_off_c, 0, 76, 64
1, 1919, Note_on_c, 0, 76, 67
1, 1936, Note_off_c, 0, 76, 66
1, 1983, Note_on_c, 0, 76, 76
1, 2001, Note_off_c, 0, 76, 67
1, 2056, Note_on_c, 0, 76, 75
1, 2079, Note_off_c, 0, 76, 64
1, 2129, Note_on_c, 0, 76, 75
1, 2151, Note_off_c, 0, 76, 66
1, 2205, Note_on_c, 0, 76, 61
1, 2231, Note_off_c, 0, 76, 57
1, 2269, Note_on_c, 0, 83, 66
1, 2272, Note_on_c, 0, 79, 66
1, 2287, Note_on_c, 0, 78, 61
1, 2321, Note_off_c, 0, 78, 60
1, 2329, Note_off_c, 0, 79, 61
1, 2354, Note_on_c, 0, 76, 58
1, 2354, Note_off_c, 0, 83, 63
1, 2376, Note_off_c, 0, 76, 62
1, 2444, Note_on_c, 0, 74, 51
1, 2453, Note_on_c, 0, 71, 43
1, 2495, Note_off_c, 0, 74, 55
1, 2504, Note_on_c, 0, 76, 58
1, 2511, Note_off_c, 0, 71, 47
1, 2558, Note_off_c, 0, 76, 57
1, 2602, Note_on_c, 0, 83, 50
1, 2602, Note_on_c, 0, 79, 57
1, 2603, Note_on_c, 0, 78, 49
1, 2638, Note_off_c, 0, 78, 57
1, 2641, Note_off_c, 0, 79, 59
1, 2662, Note_on_c, 0, 76, 57
1, 2678, Note_off_c, 0, 83, 55
1, 2691, Note_off_c, 0, 76, 57
1, 2742, Note_on_c, 0, 74, 60
1, 2752, Note_on_c, 0, 71, 50
1, 2804, Note_on_c, 0, 76, 60
1, 2816, Note_off_c, 0, 74, 58
1, 2817, Note_off_c, 0, 71, 54
1, 2858, Note_off_c, 0, 76, 59
1, 2901, Note_on_c, 0, 83, 57
1, 2903, Note_on_c, 0, 78, 57
1, 2907, Note_on_c, 0, 79, 61
1, 2940, Note_off_c, 0, 78, 57
1, 2945, Note_off_c, 0, 79, 58
1, 2962, Note_on_c, 0, 76, 66
1, 2978, Note_off_c, 0, 83, 56
1, 2996, Note_off_c, 0, 76, 58
1, 3048, Note_on_c, 0, 74, 71
1, 3057, Note_on_c, 0, 71, 64
1, 3121, Note_on_c, 0, 76, 68
1, 3126, Note_off_c, 0, 71, 53
1, 3132, Note_off_c, 0, 74, 61
1, 3191, Note_off_c, 0, 76, 57
1, 3212, Note_on_c, 0, 83, 62
1, 3216, Note_on_c, 0, 78, 66
1, 3219, Note_on_c, 0, 79, 65
1, 3246, Note_off_c, 0, 79, 64
1, 3246, Note_off_c, 0, 78, 61
1, 3255, Note_off_c, 0, 83, 62
1, 3282, Note_on_c, 0, 76, 57
1, 3304, Control_c, 0, 67, 118
1, 3307, Note_off_c, 0, 76, 56
1, 3319, Control_c, 0, 67, 102
1, 3334, Control_c, 0, 67, 86
1, 3349, Control_c, 0, 67, 72
1, 3356, Note_on_c, 0, 74, 69
1, 3363, Control_c, 0, 67, 60
1, 3374, Note_on_c, 0, 71, 44
1, 3378, Control_c, 0, 67, 50
1, 3393, Control_c, 0, 67, 44
1, 3398, Note_off_c, 0, 71, 59
1, 3401, Note_off_c, 0, 74, 64
1, 3408, Control_c, 0, 67, 38
1, 3423, Control_c, 0, 67, 35
1, 3430, Note_on_c, 0, 76, 57
1, 3437, Control_c, 0, 67, 33
1, 3452, Control_c, 0, 67, 33
1, 3467, Note_off_c, 0, 76, 61
1, 3467, Control_c, 0, 67, 32
1, 3482, Control_c, 0, 67, 31
1, 3502, Note_on_c, 0, 71, 59
1, 3508, Note_on_c, 0, 83, 64
1, 3508, Note_on_c, 0, 86, 72
1, 3509, Note_on_c, 0, 78, 62
1, 3510, Note_on_c, 0, 64, 69
1, 3513, Note_on_c, 0, 79, 61
1, 3531, Note_off_c, 0, 71, 68
1, 3538, Note_off_c, 0, 64, 67
1, 3550, Note_off_c, 0, 78, 55
1, 3556, Control_c, 0, 67, 31
1, 3559, Note_off_c, 0, 79, 59
1, 3566, Note_off_c, 0, 86, 57
1, 3570, Note_on_c, 0, 76, 64
1, 3571, Control_c, 0, 67, 30
1, 3585, Note_off_c, 0, 83, 60
1, 3586, Control_c, 0, 67, 29
1, 3600, Control_c, 0, 67, 28
1, 3603, Note_off_c, 0, 76, 52
1, 3615, Control_c, 0, 67, 25
1, 3631, Control_c, 0, 67, 21
1, 3646, Control_c, 0, 67, 18
1, 3660, Note_on_c, 0, 74, 67
1, 3660, Control_c, 0, 67, 15
1, 3675, Control_c, 0, 67, 13
1, 3690, Control_c, 0, 67, 12
1, 3691, Note_off_c, 0, 74, 62
1, 3705, Control_c, 0, 67, 11
1, 3706, Note_on_c, 0, 76, 57
1, 3720, Control_c, 0, 67, 9
1, 3735, Control_c, 0, 67, 8
1, 3747, Note_off_c, 0, 76, 59
1, 3750, Control_c, 0, 67, 0
1, 3798, Note_on_c, 0, 83, 64
1, 3800, Note_on_c, 0, 79, 63
1, 3809, Note_on_c, 0, 64, 57
1, 3809, Note_on_c, 0, 71, 50
1, 3815, Note_on_c, 0, 78, 47
1, 3816, Note_on_c, 0, 86, 54
1, 3832, Note_off_c, 0, 64, 65
1, 3833, Note_off_c, 0, 71, 60
1, 3838, Note_off_c, 0, 86, 59
1, 3839, Note_off_c, 0, 79, 54
1, 3841, Note_off_c, 0, 78, 57
1, 3858, Note_off_c, 0, 83, 62
1, 3865, Note_on_c, 0, 76, 69
1, 3913, Note_off_c, 0, 76, 60
1, 3952, Note_on_c, 0, 78, 57
1, 3957, Note_on_c, 0, 85, 68
1, 3959, Note_on_c, 0, 59, 62
1, 3961, Note_on_c, 0, 66, 54
1, 3964, Note_on_c, 0, 69, 49
1, 3969, Note_on_c, 0, 81, 57
1, 3981, Note_off_c, 0, 59, 59
1, 3984, Note_off_c, 0, 66, 59
1, 3990, Note_off_c, 0, 69, 58
1, 3997, Note_off_c, 0, 78, 59
1, 4000, Note_off_c, 0, 81, 60
1, 4021, Note_off_c, 0, 85, 61
1, 4026, Note_on_c, 0, 76, 68
1, 4057, Note_off_c, 0, 76, 62
1, 4109, Note_on_c, 0, 78, 69
1, 4111, Note_on_c, 0, 79, 73
1, 4113, Note_on_c, 0, 83, 73
1, 4113, Note_on_c, 0, 71, 71
1, 4114, Note_on_c, 0, 86, 72
1, 4117, Note_on_c, 0, 64, 66
1, 4134, Note_off_c, 0, 78, 64
1, 4135, Note_off_c, 0, 64, 66
1, 4137, Note_off_c, 0, 71, 70
1, 4149, Note_off_c, 0, 79, 61
1, 4159, Note_off_c, 0, 86, 61
1, 4167, Note_on_c, 0, 76, 70
1, 4171, Note_off_c, 0, 83, 64
1, 4200, Note_off_c, 0, 76, 60
1, 4271, Note_on_c, 0, 74, 67
1, 4299, Note_off_c, 0, 74, 66
1, 4337, Note_on_c, 0, 76, 68
1, 4379, Note_off_c, 0, 76, 56
1, 4419, Note_on_c, 0, 83, 68
1, 4424, Note_on_c, 0, 78, 66
1, 4425, Note_on_c, 0, 64, 59
1, 4426, Note_on_c, 0, 71, 51
1, 4426, Note_on_c, 0, 79, 60
1, 4447, Note_off_c, 0, 64, 65
1, 4450, Note_on_c, 0, 86, 43
1, 4450, Note_off_c, 0, 71, 62
1, 4451, Note_off_c, 0, 78, 65
1, 4467, Note_off_c, 0, 79, 55
1, 4477, Note_off_c, 0, 86, 54
1, 4489, Note_off_c, 0, 83, 63
1, 4492, Note_on_c, 0, 76, 72
1, 4534, Note_off_c, 0, 76, 59
1, 4563, Note_on_c, 0, 59, 70
1, 4565, Note_on_c, 0, 85, 77
1, 4569, Note_on_c, 0, 66, 60
1, 4569, Note_on_c, 0, 78, 70
1, 4572, Note_on_c, 0, 69, 57
1, 4581, Note_on_c, 0, 81, 64
1, 4583, Note_off_c, 0, 59, 65
1, 4590, Note_off_c, 0, 66, 63
1, 4593, Note_off_c, 0, 69, 62
1, 4599, Note_on_c, 0, 88, 22
1, 4599, Note_off_c, 0, 78, 60
1, 4617, Note_off_c, 0, 81, 55
1, 4619, Note_off_c, 0, 88, 36
1, 4632, Note_off_c, 0, 85, 63
1, 4634, Note_on_c, 0, 76, 70
1, 4671, Note_off_c, 0, 76, 63
1, 4716, Note_on_c, 0, 78, 68
1, 4719, Note_on_c, 0, 83, 76
1, 4720, Note_on_c, 0, 79, 72
1, 4720, Note_on_c, 0, 86, 74
1, 4721, Note_on_c, 0, 71, 79
1, 4723, Note_on_c, 0, 64, 79
1, 4742, Note_off_c, 0, 71, 68
1, 4748, Note_off_c, 0, 64, 69
1, 4758, Note_off_c, 0, 78, 59
1, 4764, Note_off_c, 0, 79, 61
1, 4767, Note_off_c, 0, 86, 59
1, 4771, Note_on_c, 0, 76, 77
1, 4784, Note_off_c, 0, 83, 63
1, 4814, Note_off_c, 0, 76, 61
1, 4881, Note_on_c, 0, 74, 62
1, 4906, Note_off_c, 0, 74, 57
1, 4936, Note_on_c, 0, 76, 68
1, 4970, Note_off_c, 0, 76, 57
1, 5025, Note_on_c, 0, 83, 65
1, 5029, Note_on_c, 0, 78, 58
1, 5030, Note_on_c, 0, 64, 58
1, 5031, Note_on_c, 0, 71, 42
1, 5035, Note_on_c, 0, 79, 57
1, 5040, Control_c, 0, 64, 51
1, 5046, Note_on_c, 0, 86, 50
1, 5052, Note_off_c, 0, 64, 64
1, 5055, Control_c, 0, 64, 0
1, 5061, Note_off_c, 0, 71, 57
1, 5061, Note_off_c, 0, 78, 63
1, 5070, Note_off_c, 0, 86, 59
1, 5073, Note_off_c, 0, 79, 57
1, 5094, Note_on_c, 0, 76, 68
1, 5095, Note_off_c, 0, 83, 63
1, 5141, Note_off_c, 0, 76, 62
1, 5177, Note_on_c, 0, 59, 67
1, 5177, Note_on_c, 0, 85, 70
1, 5182, Note_on_c, 0, 69, 50
1, 5183, Note_on_c, 0, 78, 60
1, 5192, Note_on_c, 0, 81, 57
1, 5195, Note_on_c, 0, 66, 35
1, 5205, Note_off_c, 0, 59, 65
1, 5205, Note_off_c, 0, 69, 58
1, 5213, Note_off_c, 0, 78, 65
1, 5216, Note_off_c, 0, 81, 61
1, 5218, Note_off_c, 0, 85, 56
1, 5228, Note_off_c, 0, 66, 49
1, 5243, Note_on_c, 0, 76, 66
1, 5273, Note_off_c, 0, 76, 63
1, 5326, Note_on_c, 0, 78, 62
1, 5327, Note_on_c, 0, 71, 75
1, 5331, Note_on_c, 0, 79, 63
1, 5332, Note_on_c, 0, 64, 72
1, 5335, Note_on_c, 0, 83, 64
1, 5354, Note_on_c, 0, 86, 46
1, 5356, Note_off_c, 0, 71, 62
1, 5360, Note_off_c, 0, 64, 67
1, 5362, Note_off_c, 0, 78, 59
1, 5378, Note_off_c, 0, 86, 58
1, 5379, Note_off_c, 0, 79, 58
1, 5386, Note_on_c, 0, 76, 72
1, 5400, Note_off_c, 0, 83, 62
1, 5440, Note_off_c, 0, 76, 63
1, 5473, Note_on_c, 0, 85, 79
1, 5484, Note_on_c, 0, 59, 74
1, 5484, Note_on_c, 0, 69, 79
1, 5487, Note_on_c, 0, 78, 67
1, 5492, Note_on_c, 0, 66, 68
1, 5495, Note_on_c, 0, 81, 62
1, 5495, Note_on_c, 0, 88, 45
1, 5515, Note_off_c, 0, 78, 60
1, 5518, Note_off_c, 0, 66, 66
1, 5520, Note_off_c, 0, 88, 56
1, 5520, Note_off_c, 0, 59, 61
1, 5524, Note_off_c, 0, 81, 63
1, 5527, Note_off_c, 0, 69, 61
1, 5538, Note_on_c, 0, 76, 77
1, 5544, Note_off_c, 0, 85, 64
1, 5577, Note_off_c, 0, 76, 59
1, 5622, Note_on_c, 0, 82, 77
1, 5625, Note_on_c, 0, 71, 88
1, 5633, Note_on_c, 0, 79, 66
1, 5634, Note_on_c, 0, 64, 80
1, 5668, Note_off_c, 0, 64, 65
1, 5669, Note_off_c, 0, 71, 64
1, 5679, Note_off_c, 0, 79, 59
1, 5685, Note_off_c, 0, 82, 64
1, 5690, Note_on_c, 0, 76, 77
1, 5747, Note_off_c, 0, 76, 60
1, 5775, Note_on_c, 0, 59, 75
1, 5776, Note_on_c, 0, 69, 76
1, 5778, Note_on_c, 0, 66, 69
1, 5799, Note_off_c, 0, 59, 67
1, 5803, Note_off_c, 0, 66, 67
1, 5804, Note_off_c, 0, 69, 62
1, 5817, Note_on_c, 0, 76, 48
1, 5821, Note_on_c, 0, 84, 3
1, 5845, Note_off_c, 0, 76, 63
1, 5846, Note_off_c, 0, 84, 39
1, 5905, Note_on_c, 0, 86, 70
1, 5917, Note_on_c, 0, 90, 70
1, 5921, Control_c, 0, 64, 35
1, 5927, Note_on_c, 0, 71, 64
1, 5936, Control_c, 0, 64, 61
1, 5938, Note_on_c, 0, 64, 62
1, 5950, Control_c, 0, 64, 66
1, 5965, Control_c, 0, 64, 73
1, 5971, Note_off_c, 0, 86, 63
1, 5974, Note_off_c, 0, 90, 63
1, 5975, Note_off_c, 0, 71, 51
1, 5980, Control_c, 0, 64, 82
1, 5995, Note_on_c, 0, 78, 65
1, 5995, Control_c, 0, 64, 94
1, 6010, Control_c, 0, 64, 106
1, 6026, Note_off_c, 0, 78, 63
1, 6026, Control_c, 0, 64, 126
1, 6039, Note_off_c, 0, 64, 37
1, 6041, Control_c, 0, 64, 127
1, 6070, Note_on_c, 0, 78, 68
1, 6085, Note_on_c, 0, 67, 50
1, 6095, Note_off_c, 0, 78, 69
1, 6124, Note_off_c, 0, 67, 60
1, 6152, Note_on_c, 0, 78, 67
1, 6193, Note_off_c, 0, 78, 60
1, 6221, Note_on_c, 0, 90, 77
1, 6225, Note_on_c, 0, 86, 69
1, 6233, Note_on_c, 0, 71, 56
1, 6250, Note_off_c, 0, 86, 68
1, 6257, Note_off_c, 0, 71, 65
1, 6276, Note_off_c, 0, 90, 64
1, 6295, Note_on_c, 0, 78, 71
1, 6321, Note_off_c, 0, 78, 64
1, 6365, Note_on_c, 0, 74, 60
1, 6370, Note_on_c, 0, 78, 75
1, 6397, Note_off_c, 0, 74, 62
1, 6398, Note_off_c, 0, 78, 64
1, 6444, Note_on_c, 0, 78, 71
1, 6492, Note_off_c, 0, 78, 62
1, 6517, Note_on_c, 0, 76, 69
1, 6519, Note_on_c, 0, 86, 75
1, 6519, Note_on_c, 0, 90, 71
1, 6548, Note_off_c, 0, 86, 63
1, 6552, Note_off_c, 0, 90, 60
1, 6564, Note_off_c, 0, 76, 55
1, 6587, Note_on_c, 0, 78, 72
1, 6612, Note_off_c, 0, 78, 67
1, 6671, Note_on_c, 0, 79, 57
1, 6673, Note_on_c, 0, 78, 70
1, 6699, Note_off_c, 0, 78, 68
1, 6716, Note_off_c, 0, 79, 60
1, 6745, Note_on_c, 0, 78, 71
1, 6775, Note_off_c, 0, 78, 61
1, 6817, Note_on_c, 0, 86, 67
1, 6819, Note_on_c, 0, 83, 67
1, 6826, Note_on_c, 0, 90, 60
1, 6842, Note_off_c, 0, 86, 69
1, 6847, Note_off_c, 0, 83, 68
1, 6852, Note_off_c, 0, 90, 66
1, 6885, Note_on_c, 0, 78, 59
1, 6911, Note_off_c, 0, 78, 66
1, 6957, Note_on_c, 0, 86, 53
1, 6960, Control_c, 0, 64, 106
1, 6960, Control_c, 0, 67, 32
1, 6966, Note_on_c, 0, 78, 75
1, 6975, Control_c, 0, 64, 84
1, 6975, Control_c, 0, 67, 73
1, 6980, Note_off_c, 0, 86, 62
1, 6987, Note_off_c, 0, 78, 71
1, 6990, Control_c, 0, 64, 65
1, 6990, Control_c, 0, 67, 114
1, 7004, Control_c, 0, 64, 0
1, 7004, Control_c, 0, 67, 127
1, 7029, Note_on_c, 0, 78, 70
1, 7070, Note_off_c, 0, 78, 63
1, 7112, Note_on_c, 0, 78, 59
1, 7118, Note_on_c, 0, 90, 69
1, 7118, Note_on_c, 0, 86, 47
1, 7139, Note_off_c, 0, 78, 68
1, 7143, Note_off_c, 0, 86, 58
1, 7146, Note_off_c, 0, 90, 66
1, 7260, Note_on_c, 0, 81, 66
1, 7261, Note_on_c, 0, 90, 68
1, 7268, Note_on_c, 0, 93, 68
1, 7270, Note_on_c, 0, 86, 43
1, 7286, Note_off_c, 0, 81, 63
1, 7294, Note_off_c, 0, 93, 65
1, 7294, Note_off_c, 0, 86, 60
1, 7297, Note_off_c, 0, 90, 56
1, 7329, Note_on_c, 0, 81, 60
1, 7358, Note_off_c, 0, 81, 63
1, 7412, Note_on_c, 0, 78, 65
1, 7416, Note_on_c, 0, 90, 68
1, 7433, Note_on_c, 0, 86, 37
1, 7437, Note_off_c, 0, 78, 69
1, 7440, Note_on_c, 0, 83, 40
1, 7452, Note_off_c, 0, 90, 63
1, 7464, Note_off_c, 0, 86, 55
1, 7467, Note_off_c, 0, 83, 52
1, 7481, Note_on_c, 0, 78, 71
1, 7503, Note_off_c, 0, 78, 70
1, 7557, Note_on_c, 0, 86, 65
1, 7562, Note_on_c, 0, 83, 51
1, 7572, Note_on_c, 0, 91, 61
1, 7573, Note_on_c, 0, 79, 58
1, 7590, Note_off_c, 0, 91, 63
1, 7594, Note_off_c, 0, 79, 61
1, 7595, Note_off_c, 0, 83, 65
1, 7603, Note_off_c, 0, 86, 60
1, 7627, Note_on_c, 0, 79, 58
1, 7663, Note_off_c, 0, 79, 65
1, 7723, Note_on_c, 0, 83, 66
1, 7723, Note_on_c, 0, 86, 67
1, 7731, Note_on_c, 0, 76, 66
1, 7732, Note_on_c, 0, 88, 53
1, 7748, Note_off_c, 0, 76, 64
1, 7750, Note_off_c, 0, 83, 58
1, 7753, Note_off_c, 0, 88, 60
1, 7771, Note_off_c, 0, 86, 57
1, 7813, Note_on_c, 0, 76, 63
1, 7830, Note_off_c, 0, 76, 64
1, 7876, Note_on_c, 0, 83, 67
1, 7881, Note_on_c, 0, 79, 66
1, 7888, Note_on_c, 0, 74, 40
1, 7908, Note_off_c, 0, 79, 65
1, 7918, Note_off_c, 0, 74, 35
1, 7923, Note_off_c, 0, 83, 62
1, 7950, Note_on_c, 0, 74, 65
1, 7979, Note_off_c, 0, 74, 65
1, 8025, Note_on_c, 0, 71, 70
1, 8030, Note_on_c, 0, 76, 70
1, 8033, Note_on_c, 0, 79, 57
1, 8048, Note_off_c, 0, 71, 70
1, 8055, Note_on_c, 0, 83, 33
1, 8056, Note_off_c, 0, 76, 67
1, 8067, Note_off_c, 0, 79, 48
1, 8082, Note_off_c, 0, 83, 50
1, 8102, Note_on_c, 0, 71, 71
1, 8123, Note_off_c, 0, 71, 67
1, 8169, Note_on_c, 0, 83, 70
1, 8180, Note_on_c, 0, 79, 67
1, 8182, Note_on_c, 0, 74, 64
1, 8184, Note_on_c, 0, 86, 61
1, 8202, Note_off_c, 0, 74, 65
1, 8203, Note_off_c, 0, 86, 64
1, 8219, Note_off_c, 0, 79, 61
1, 8230, Note_off_c, 0, 83, 57
1, 8266, Note_on_c, 0, 74, 72
1, 8288, Note_off_c, 0, 74, 67
1, 8331, Note_on_c, 0, 79, 74
1, 8332, Note_on_c, 0, 69, 77
1, 8337, Note_on_c, 0, 76, 71
1, 8347, Note_on_c, 0, 81, 43
1, 8349, Note_off_c, 0, 69, 69
1, 8350, Note_off_c, 0, 79, 59
1, 8356, Note_off_c, 0, 76, 66
1, 8372, Note_off_c, 0, 81, 56
1, 8409, Note_on_c, 0, 69, 73
1, 8450, Note_off_c, 0, 69, 48
1, 8474, Note_on_c, 0, 69, 68
1, 8510, Note_off_c, 0, 69, 62
1, 8566, Note_on_c, 0, 69, 59
1, 8597, Note_off_c, 0, 69, 66
1, 8647, Note_on_c, 0, 79, 69
1, 8655, Note_on_c, 0, 83, 59
1, 8656, Note_on_c, 0, 71, 67
1, 8659, Note_on_c, 0, 76, 57
1, 8672, Note_off_c, 0, 83, 64
1, 8673, Note_off_c, 0, 71, 68
1, 8682, Note_off_c, 0, 79, 56
1, 8683, Note_off_c, 0, 76, 64
1, 8733, Note_on_c, 0, 71, 58
1, 8752, Note_off_c, 0, 71, 65
1, 8797, Note_on_c, 0, 71, 62
1, 8820, Note_off_c, 0, 71, 66
1, 8857, Note_on_c, 0, 71, 65
1, 8878, Note_off_c, 0, 71, 66
1, 8888, Control_c, 0, 67, 126
1, 8903, Control_c, 0, 64, 53
1, 8903, Control_c, 0, 67, 89
1, 8917, Control_c, 0, 64, 73
1, 8917, Control_c, 0, 67, 41
1, 8932, Control_c, 0, 64, 98
1, 8932, Control_c, 0, 67, 0
1, 8943, Note_on_c, 0, 90, 94
1, 8947, Control_c, 0, 64, 127
1, 8948, Note_on_c, 0, 83, 76
1, 8951, Note_on_c, 0, 86, 71
1, 8955, Note_on_c, 0, 78, 75
1, 8969, Note_off_c, 0, 86, 65
1, 8975, Note_off_c, 0, 78, 71
1, 8981, Note_off_c, 0, 83, 61
1, 8990, Note_off_c, 0, 90, 66
1, 9026, Note_on_c, 0, 78, 70
1, 9052, Note_off_c, 0, 78, 62
1, 9099, Note_on_c, 0, 64, 56
1, 9103, Note_on_c, 0, 78, 72
1, 9126, Note_off_c, 0, 78, 68
1, 9151, Note_off_c, 0, 64, 55
1, 9195, Note_on_c, 0, 78, 58
1, 9232, Note_off_c, 0, 78, 61
1, 9266, Note_on_c, 0, 90, 73
1, 9271, Note_on_c, 0, 83, 62
1, 9273, Note_on_c, 0, 86, 56
1, 9276, Note_on_c, 0, 71, 57
1, 9297, Note_off_c, 0, 83, 68
1, 9299, Note_off_c, 0, 86, 66
1, 9304, Note_off_c, 0, 71, 66
1, 9306, Note_off_c, 0, 90, 63
1, 9343, Note_on_c, 0, 78, 70
1, 9368, Note_off_c, 0, 78, 64
1, 9385, Control_c, 0, 64, 95
1, 9399, Control_c, 0, 64, 73
1, 9399, Control_c, 0, 67, 32
1, 9414, Control_c, 0, 64, 0
1, 9414, Control_c, 0, 67, 85
1, 9416, Note_on_c, 0, 74, 58
1, 9427, Note_on_c, 0, 78, 68
1, 9429, Control_c, 0, 67, 127
1, 9440, Note_off_c, 0, 74, 65
1, 9444, Note_off_c, 0, 78, 69
1, 9509, Note_on_c, 0, 78, 62
1, 9529, Note_off_c, 0, 78, 68
1, 9574, Note_on_c, 0, 78, 51
1, 9576, Note_on_c, 0, 83, 61
1, 9577, Note_on_c, 0, 86, 58
1, 9580, Note_on_c, 0, 90, 57
1, 9594, Note_off_c, 0, 83, 66
1, 9597, Note_off_c, 0, 78, 60
1, 9598, Note_off_c, 0, 86, 65
1, 9613, Note_off_c, 0, 90, 65
1, 9653, Note_on_c, 0, 78, 68
1, 9670, Note_off_c, 0, 78, 69
1, 9722, Note_on_c, 0, 90, 71
1, 9726, Note_on_c, 0, 81, 61
1, 9735, Note_on_c, 0, 93, 67
1, 9745, Note_on_c, 0, 86, 28
1, 9753, Note_off_c, 0, 90, 60
1, 9759, Note_off_c, 0, 93, 68
1, 9776, Note_off_c, 0, 81, 0
1, 9780, Note_off_c, 0, 86, 45
1, 9787, Note_on_c, 0, 81, 57
1, 9824, Note_off_c, 0, 81, 61
1, 9875, Note_on_c, 0, 86, 58
1, 9880, Note_on_c, 0, 78, 57
1, 9880, Note_on_c, 0, 90, 66
1, 9894, Note_on_c, 0, 83, 55
1, 9908, Note_off_c, 0, 78, 65
1, 9920, Note_off_c, 0, 83, 66
1, 9924, Note_off_c, 0, 90, 59
1, 9935, Note_off_c, 0, 86, 58
1, 9953, Note_on_c, 0, 78, 71
1, 9977, Note_off_c, 0, 78, 69
1, 10036, Note_on_c, 0, 83, 50
1, 10039, Note_on_c, 0, 86, 71
1, 10048, Note_on_c, 0, 79, 56
1, 10054, Note_on_c, 0, 91, 58
1, 10070, Note_off_c, 0, 79, 61
1, 10072, Note_off_c, 0, 91, 61
1, 10073, Note_off_c, 0, 83, 63
1, 10078, Note_off_c, 0, 86, 60
1, 10099, Note_on_c, 0, 79, 61
1, 10132, Note_off_c, 0, 79, 60
1, 10188, Note_on_c, 0, 83, 76
1, 10191, Note_on_c, 0, 86, 71
1, 10196, Note_on_c, 0, 76, 61
1, 10200, Note_on_c, 0, 88, 54
1, 10215, Note_off_c, 0, 76, 63
1, 10220, Note_off_c, 0, 88, 61
1, 10224, Note_off_c, 0, 83, 64
1, 10244, Note_off_c, 0, 86, 62
1, 10280, Note_on_c, 0, 76, 60
1, 10302, Note_off_c, 0, 76, 60
1, 10337, Note_on_c, 0, 83, 73
1, 10349, Note_on_c, 0, 74, 53
1, 10350, Note_on_c, 0, 79, 67
1, 10357, Note_on_c, 0, 86, 55
1, 10371, Note_off_c, 0, 74, 61
1, 10374, Note_off_c, 0, 79, 67
1, 10376, Note_off_c, 0, 86, 64
1, 10391, Note_off_c, 0, 83, 60
1, 10427, Note_on_c, 0, 74, 67
1, 10451, Note_off_c, 0, 74, 66
1, 10493, Note_on_c, 0, 71, 68
1, 10500, Note_on_c, 0, 76, 66
1, 10500, Note_on_c, 0, 79, 60
1, 10512, Note_off_c, 0, 71, 68
1, 10519, Note_on_c, 0, 83, 33
1, 10527, Note_off_c, 0, 76, 64
1, 10532, Note_off_c, 0, 79, 53
1, 10549, Note_off_c, 0, 83, 49
1, 10564, Note_on_c, 0, 71, 78
1, 10583, Note_off_c, 0, 71, 72
1, 10643, Note_on_c, 0, 83, 70
1, 10649, Note_on_c, 0, 74, 70
1, 10656, Note_on_c, 0, 79, 61
1, 10674, Note_on_c, 0, 86, 32
1, 10676, Note_off_c, 0, 74, 64
1, 10686, Note_off_c, 0, 79, 63
1, 10689, Note_off_c, 0, 86, 40
1, 10699, Note_off_c, 0, 83, 54
1, 10722, Note_on_c, 0, 74, 70
1, 10750, Note_off_c, 0, 74, 66
1, 10808, Note_on_c, 0, 69, 74
1, 10808, Note_on_c, 0, 79, 70
1, 10810, Note_on_c, 0, 76, 74
1, 10824, Note_off_c, 0, 69, 69
1, 10826, Note_on_c, 0, 81, 42
1, 10833, Note_off_c, 0, 76, 68
1, 10849, Note_off_c, 0, 79, 61
1, 10850, Note_off_c, 0, 81, 56
1, 10877, Note_on_c, 0, 69, 77
1, 10916, Note_off_c, 0, 69, 50
1, 10944, Note_on_c, 0, 69, 63
1, 10974, Note_off_c, 0, 69, 64
1, 11033, Note_on_c, 0, 69, 60
1, 11062, Note_off_c, 0, 69, 67
1, 11119, Note_on_c, 0, 79, 68
1, 11124, Note_on_c, 0, 71, 69
1, 11126, Note_on_c, 0, 76, 61
1, 11133, Note_on_c, 0, 83, 52
1, 11139, Note_off_c, 0, 71, 69
1, 11146, Note_off_c, 0, 76, 64
1, 11154, Note_off_c, 0, 83, 60
1, 11154, Note_off_c, 0, 79, 57
1, 11199, Note_on_c, 0, 71, 60
1, 11217, Note_off_c, 0, 71, 66
1, 11269, Note_on_c, 0, 71, 57
1, 11282, Control_c, 0, 67, 104
1, 11288, Note_off_c, 0, 71, 64
1, 11297, Control_c, 0, 67, 56
1, 11312, Control_c, 0, 67, 0
1, 11321, Note_on_c, 0, 71, 66
1, 11347, Note_off_c, 0, 71, 68
1, 11420, Note_on_c, 0, 90, 91
1, 11423, Control_c, 0, 64, 127
1, 11426, Note_on_c, 0, 83, 68
1, 11428, Note_on_c, 0, 78, 78
1, 11428, Note_on_c, 0, 86, 64
1, 11446, Note_off_c, 0, 78, 74
1, 11452, Note_off_c, 0, 86, 63
1, 11458, Note_off_c, 0, 83, 61
1, 11461, Note_off_c, 0, 90, 64
1, 11502, Note_on_c, 0, 78, 76
1, 11527, Note_off_c, 0, 78, 62
1, 11584, Note_on_c, 0, 78, 68
1, 11595, Note_on_c, 0, 57, 54
1, 11605, Note_on_c, 0, 64, 54
1, 11610, Note_off_c, 0, 78, 68
1, 11625, Note_off_c, 0, 57, 64
1, 11631, Note_off_c, 0, 64, 60
1, 11668, Note_on_c, 0, 78, 67
1, 11706, Note_off_c, 0, 78, 55
1, 11739, Note_on_c, 0, 71, 64
1, 11741, Note_on_c, 0, 90, 69
1, 11760, Note_on_c, 0, 86, 48
1, 11765, Note_on_c, 0, 83, 41
1, 11766, Note_off_c, 0, 71, 67
1, 11784, Note_off_c, 0, 86, 59
1, 11784, Note_off_c, 0, 90, 62
1, 11790, Note_off_c, 0, 83, 56
1, 11822, Note_on_c, 0, 78, 62
1, 11849, Note_off_c, 0, 78, 67
1, 11868, Control_c, 0, 64, 97
1, 11883, Control_c, 0, 64, 72
1, 11890, Note_on_c, 0, 74, 69
1, 11898, Control_c, 0, 64, 0
1, 11906, Note_on_c, 0, 78, 62
1, 11908, Note_off_c, 0, 74, 66
1, 11924, Note_off_c, 0, 78, 65
1, 11986, Note_on_c, 0, 78, 62
1, 12007, Note_off_c, 0, 78, 64
1, 12057, Note_on_c, 0, 86, 55
1, 12057, Note_on_c, 0, 83, 56
1, 12059, Note_on_c, 0, 90, 65
1, 12063, Note_on_c, 0, 78, 50
1, 12076, Note_off_c, 0, 83, 64
1, 12078, Note_off_c, 0, 86, 64
1, 12087, Note_off_c, 0, 78, 59
1, 12091, Note_off_c, 0, 90, 63
1, 12129, Note_on_c, 0, 78, 56
1, 12158, Note_off_c, 0, 78, 63
1, 12210, Note_on_c, 0, 81, 61
1, 12211, Note_on_c, 0, 90, 67
1, 12215, Note_on_c, 0, 93, 70
1, 12221, Note_on_c, 0, 86, 56
1, 12239, Note_off_c, 0, 81, 63
1, 12240, Note_off_c, 0, 86, 63
1, 12242, Note_off_c, 0, 90, 60
1, 12254, Note_off_c, 0, 93, 59
1, 12281, Note_on_c, 0, 81, 61
1, 12305, Note_off_c, 0, 81, 68
1, 12365, Note_on_c, 0, 78, 66
1, 12365, Note_on_c, 0, 86, 56
1, 12366, Note_on_c, 0, 83, 67
1, 12367, Note_on_c, 0, 90, 72
1, 12388, Note_off_c, 0, 78, 69
1, 12389, Note_off_c, 0, 83, 69
1, 12410, Note_off_c, 0, 90, 57
1, 12413, Note_off_c, 0, 86, 64
1, 12438, Note_on_c, 0, 78, 72
1, 12460, Note_off_c, 0, 78, 70
1, 12520, Note_on_c, 0, 86, 72
1, 12525, Note_on_c, 0, 83, 51
1, 12530, Note_on_c, 0, 91, 53
1, 12532, Note_on_c, 0, 79, 42
1, 12533, Note_off_c, 0, 79, 127
1, 12552, Note_off_c, 0, 91, 58
1, 12556, Note_off_c, 0, 83, 60
1, 12558, Note_off_c, 0, 86, 63
1, 12577, Note_on_c, 0, 79, 61
1, 12615, Note_off_c, 0, 79, 62
1, 12664, Note_on_c, 0, 76, 72
1, 12673, Note_on_c, 0, 86, 67
1, 12675, Note_on_c, 0, 83, 55
1, 12680, Note_off_c, 0, 76, 67
1, 12686, Note_on_c, 0, 88, 47
1, 12695, Note_off_c, 0, 83, 61
1, 12710, Note_off_c, 0, 88, 58
1, 12722, Note_off_c, 0, 86, 63
1, 12737, Note_on_c, 0, 76, 77
1, 12764, Note_off_c, 0, 76, 63
1, 12809, Note_on_c, 0, 74, 72
1, 12814, Note_on_c, 0, 83, 73
1, 12826, Note_on_c, 0, 79, 67
1, 12834, Note_off_c, 0, 74, 68
1, 12840, Note_on_c, 0, 86, 49
1, 12854, Note_off_c, 0, 79, 62
1, 12862, Note_off_c, 0, 86, 60
1, 12877, Note_off_c, 0, 83, 62
1, 12895, Note_on_c, 0, 74, 83
1, 12925, Note_off_c, 0, 74, 61
1, 12970, Note_on_c, 0, 71, 88
1, 12971, Note_on_c, 0, 79, 68
1, 12974, Note_on_c, 0, 76, 70
1, 12990, Note_off_c, 0, 71, 68
1, 12991, Note_off_c, 0, 76, 66
1, 13014, Note_off_c, 0, 79, 58
1, 13038, Note_on_c, 0, 71, 73
1, 13061, Note_off_c, 0, 71, 68
1, 13119, Note_on_c, 0, 74, 85
1, 13124, Note_on_c, 0, 79, 77
1, 13124, Note_on_c, 0, 83, 74
1, 13127, Note_on_c, 0, 86, 70
1, 13137, Note_off_c, 0, 74, 74
1, 13151, Note_off_c, 0, 86, 69
1, 13161, Note_off_c, 0, 79, 63
1, 13181, Note_off_c, 0, 83, 58
1, 13191, Note_on_c, 0, 74, 84
1, 13225, Note_off_c, 0, 74, 66
1, 13247, Control_c, 0, 64, 82
1, 13262, Control_c, 0, 64, 112
1, 13267, Note_on_c, 0, 57, 96
1, 13270, Note_on_c, 0, 79, 83
1, 13271, Note_on_c, 0, 50, 92
1, 13276, Note_on_c, 0, 76, 81
1, 13277, Note_on_c, 0, 83, 78
1, 13277, Control_c, 0, 64, 89
1, 13289, Note_off_c, 0, 57, 67
1, 13291, Note_off_c, 0, 76, 67
1, 13292, Note_off_c, 0, 83, 66
1, 13292, Control_c, 0, 64, 0
1, 13294, Note_off_c, 0, 50, 71
1, 13325, Note_off_c, 0, 79, 60
1, 13343, Note_on_c, 0, 71, 82
1, 13380, Note_off_c, 0, 71, 64
1, 13423, Note_on_c, 0, 69, 83
1, 13431, Note_on_c, 0, 72, 74
1, 13431, Note_on_c, 0, 76, 63
1, 13443, Note_off_c, 0, 69, 67
1, 13451, Note_on_c, 0, 81, 49
1, 13455, Note_off_c, 0, 72, 65
1, 13476, Note_off_c, 0, 81, 56
1, 13478, Note_off_c, 0, 76, 62
1, 13503, Note_on_c, 0, 69, 75
1, 13527, Note_off_c, 0, 69, 70
1, 13583, Note_on_c, 0, 64, 86
1, 13592, Note_on_c, 0, 72, 60
1, 13603, Note_off_c, 0, 64, 73
1, 13622, Note_on_c, 0, 76, 19
1, 13628, Note_off_c, 0, 72, 53
1, 13675, Note_off_c, 0, 76, 29
1, 13679, Note_on_c, 0, 64, 49
1, 13708, Note_off_c, 0, 64, 57
1, 13743, Note_on_c, 0, 76, 77
1, 13744, Note_on_c, 0, 67, 81
1, 13748, Note_on_c, 0, 79, 68
1, 13750, Note_on_c, 0, 72, 59
1, 13766, Note_off_c, 0, 67, 66
1, 13772, Note_off_c, 0, 79, 66
1, 13775, Note_off_c, 0, 72, 65
1, 13788, Note_off_c, 0, 76, 55
1, 13822, Note_on_c, 0, 67, 71
1, 13846, Note_off_c, 0, 67, 67
1, 13888, Note_on_c, 0, 72, 65
1, 13889, Note_on_c, 0, 64, 88
1, 13892, Control_c, 0, 67, 47
1, 13897, Note_on_c, 0, 69, 69
1, 13900, Note_on_c, 0, 76, 70
1, 13907, Control_c, 0, 67, 127
1, 13908, Note_off_c, 0, 64, 73
1, 13920, Note_off_c, 0, 69, 70
1, 13920, Note_off_c, 0, 76, 63
1, 13943, Note_off_c, 0, 72, 63
1, 13968, Note_on_c, 0, 64, 81
1, 13999, Note_off_c, 0, 64, 62
1, 14042, Note_on_c, 0, 62, 72
1, 14047, Note_on_c, 0, 71, 75
1, 14058, Note_on_c, 0, 66, 60
1, 14060, Note_on_c, 0, 74, 61
1, 14066, Note_off_c, 0, 62, 67
1, 14078, Note_off_c, 0, 74, 65
1, 14089, Note_off_c, 0, 66, 65
1, 14114, Note_off_c, 0, 71, 56
1, 14127, Note_on_c, 0, 62, 69
1, 14154, Note_off_c, 0, 62, 64
1, 14196, Note_on_c, 0, 50, 78
1, 14199, Note_on_c, 0, 57, 75
1, 14213, Note_on_c, 0, 71, 62
1, 14218, Note_on_c, 0, 64, 55
1, 14224, Note_off_c, 0, 50, 68
1, 14225, Note_off_c, 0, 57, 67
1, 14233, Note_off_c, 0, 71, 62
1, 14245, Note_off_c, 0, 64, 59
1, 14257, Note_on_c, 0, 60, 75
1, 14290, Note_off_c, 0, 60, 64
1, 14353, Note_on_c, 0, 60, 57
1, 14356, Note_on_c, 0, 66, 63
1, 14356, Note_on_c, 0, 64, 45
1, 14368, Note_on_c, 0, 69, 41
1, 14376, Note_off_c, 0, 60, 63
1, 14389, Note_off_c, 0, 64, 59
1, 14400, Note_off_c, 0, 66, 62
1, 14406, Note_off_c, 0, 69, 55
1, 14446, Note_on_c, 0, 60, 60
1, 14466, Note_off_c, 0, 60, 63
1, 14522, Note_on_c, 0, 62, 64
1, 14524, Note_on_c, 0, 50, 69
1, 14528, Note_on_c, 0, 43, 61
1, 14528, Note_on_c, 0, 57, 58
1, 14533, Note_on_c, 0, 59, 45
1, 14547, Note_off_c, 0, 50, 64
1, 14552, Note_off_c, 0, 43, 59
1, 14559, Note_off_c, 0, 57, 65
1, 14559, Note_off_c, 0, 59, 61
1, 14570, Note_off_c, 0, 62, 57
1, 14606, Note_on_c, 0, 55, 16
1, 14607, Note_off_c, 0, 55, 127
1, 14684, Note_on_c, 0, 52, 62
1, 14720, Note_off_c, 0, 52, 61
1, 14747, Note_on_c, 0, 55, 51
1, 14798, Note_off_c, 0, 55, 58
1, 14830, Note_on_c, 0, 43, 58
1, 14831, Note_on_c, 0, 50, 51
1, 14833, Note_on_c, 0, 59, 52
1, 14856, Note_on_c, 0, 57, 19
1, 14856, Note_on_c, 0, 62, 36
1, 14856, Note_off_c, 0, 43, 58
1, 14859, Note_off_c, 0, 50, 60
1, 14872, Note_off_c, 0, 59, 60
1, 14886, Note_off_c, 0, 62, 52
1, 14897, Note_off_c, 0, 57, 42
1, 14914, Note_on_c, 0, 55, 46
1, 14940, Note_off_c, 0, 55, 58
1, 14968, Note_on_c, 0, 50, 56
1, 14981, Note_on_c, 0, 61, 55
1, 14983, Note_on_c, 0, 57, 41
1, 14986, Note_on_c, 0, 64, 45
1, 14999, Note_off_c, 0, 50, 66
1, 15008, Note_off_c, 0, 61, 64
1, 15017, Note_off_c, 0, 64, 55
1, 15044, Note_off_c, 0, 57, 0
1, 15056, Note_on_c, 0, 57, 53
1, 15086, Note_off_c, 0, 57, 64
1, 15139, Note_on_c, 0, 50, 62
1, 15141, Note_on_c, 0, 43, 72
1, 15143, Note_on_c, 0, 62, 56
1, 15149, Note_on_c, 0, 59, 50
1, 15155, Note_on_c, 0, 57, 56
1, 15169, Note_off_c, 0, 50, 67
1, 15169, Note_off_c, 0, 43, 64
1, 15179, Note_off_c, 0, 59, 63
1, 15182, Note_off_c, 0, 57, 64
1, 15196, Note_off_c, 0, 62, 55
1, 15218, Note_on_c, 0, 55, 45
1, 15253, Note_off_c, 0, 55, 33
1, 15304, Note_on_c, 0, 52, 58
1, 15338, Note_off_c, 0, 52, 61
1, 15369, Note_on_c, 0, 55, 53
1, 15418, Note_off_c, 0, 55, 59
1, 15448, Note_on_c, 0, 59, 59
1, 15453, Note_on_c, 0, 43, 57
1, 15462, Note_on_c, 0, 50, 43
1, 15462, Note_on_c, 0, 57, 43
1, 15479, Note_on_c, 0, 62, 44
1, 15480, Note_off_c, 0, 43, 57
1, 15482, Note_off_c, 0, 59, 62
1, 15490, Note_off_c, 0, 57, 54
1, 15495, Note_off_c, 0, 50, 56
1, 15509, Note_off_c, 0, 62, 59
1, 15534, Note_on_c, 0, 55, 56
1, 15562, Note_off_c, 0, 55, 64
1, 15593, Note_on_c, 0, 50, 58
1, 15607, Note_on_c, 0, 64, 56
1, 15608, Note_on_c, 0, 57, 24
1, 15608, Note_on_c, 0, 61, 53
1, 15624, Note_off_c, 0, 50, 66
1, 15642, Note_off_c, 0, 64, 65
1, 15646, Note_off_c, 0, 61, 63
1, 15661, Note_off_c, 0, 57, 0
1, 15676, Note_on_c, 0, 57, 44
1, 15710, Note_off_c, 0, 57, 61
1, 15755, Note_on_c, 0, 50, 67
1, 15757, Note_on_c, 0, 43, 77
1, 15757, Note_on_c, 0, 62, 57
1, 15766, Note_on_c, 0, 59, 53
1, 15775, Note_on_c, 0, 57, 53
1, 15785, Note_off_c, 0, 50, 66
1, 15789, Note_off_c, 0, 43, 64
1, 15796, Note_off_c, 0, 59, 64
1, 15803, Note_off_c, 0, 57, 59
1, 15804, Note_off_c, 0, 62, 56
1, 15838, Note_on_c, 0, 55, 31
1, 15894, Note_off_c, 0, 55, 29
1, 15922, Note_on_c, 0, 52, 67
1, 15956, Note_off_c, 0, 52, 61
1, 15971, Note_on_c, 0, 55, 66
1, 16021, Note_off_c, 0, 55, 58
1, 16084, Note_on_c, 0, 43, 57
1, 16086, Note_on_c, 0, 50, 49
1, 16087, Note_on_c, 0, 59, 44
1, 16094, Note_on_c, 0, 57, 26
1, 16101, Note_on_c, 0, 62, 42
1, 16111, Note_off_c, 0, 43, 57
1, 16117, Note_off_c, 0, 50, 57
1, 16126, Note_off_c, 0, 59, 60
1, 16131, Note_off_c, 0, 57, 46
1, 16132, Note_off_c, 0, 62, 57
1, 16149, Note_on_c, 0, 55, 57
1, 16179, Note_off_c, 0, 55, 64
1, 16226, Note_on_c, 0, 57, 54
1, 16228, Note_on_c, 0, 50, 56
1, 16235, Note_on_c, 0, 61, 51
1, 16243, Note_on_c, 0, 64, 38
1, 16257, Note_off_c, 0, 57, 65
1, 16262, Note_off_c, 0, 61, 58
1, 16263, Note_off_c, 0, 50, 65
1, 16271, Note_off_c, 0, 64, 55
1, 16316, Note_on_c, 0, 57, 55
1, 16350, Note_off_c, 0, 57, 64
1, 16383, Note_on_c, 0, 66, 65
1, 16384, Note_on_c, 0, 47, 66
1, 16385, Note_on_c, 0, 54, 62
1, 16396, Note_on_c, 0, 62, 52
1, 16412, Note_off_c, 0, 54, 66
1, 16412, Note_off_c, 0, 47, 66
1, 16421, Note_off_c, 0, 62, 59
1, 16428, Note_off_c, 0, 66, 58
1, 16434, Control_c, 0, 67, 127
1, 16449, Control_c, 0, 67, 98
1, 16455, Note_on_c, 0, 59, 69
1, 16463, Control_c, 0, 67, 52
1, 16478, Control_c, 0, 67, 0
1, 16484, Note_off_c, 0, 59, 62
1, 16533, Note_on_c, 0, 59, 79
1, 16542, Note_on_c, 0, 52, 74
1, 16546, Note_on_c, 0, 67, 60
1, 16555, Note_on_c, 0, 64, 47
1, 16558, Note_off_c, 0, 59, 68
1, 16568, Note_off_c, 0, 52, 65
1, 16579, Note_off_c, 0, 64, 60
1, 16579, Note_off_c, 0, 67, 64
1, 16606, Note_on_c, 0, 59, 63
1, 16648, Note_off_c, 0, 59, 59
1, 16693, Note_on_c, 0, 50, 77
1, 16695, Note_on_c, 0, 69, 62
1, 16699, Note_on_c, 0, 57, 73
1, 16704, Note_on_c, 0, 66, 59
1, 16720, Note_off_c, 0, 69, 67
1, 16723, Note_off_c, 0, 57, 67
1, 16725, Note_off_c, 0, 50, 67
1, 16735, Note_off_c, 0, 66, 62
1, 16737, Control_c, 0, 67, 62
1, 16752, Control_c, 0, 67, 127
1, 16770, Note_on_c, 0, 61, 69
1, 16794, Note_off_c, 0, 61, 65
1, 16837, Note_on_c, 0, 60, 65
1, 16839, Note_on_c, 0, 54, 65
1, 16847, Note_on_c, 0, 64, 64
1, 16854, Note_on_c, 0, 71, 62
1, 16863, Note_off_c, 0, 54, 67
1, 16865, Note_off_c, 0, 60, 67
1, 16872, Note_off_c, 0, 64, 68
1, 16880, Note_off_c, 0, 71, 69
1, 16929, Note_on_c, 0, 60, 54
1, 16952, Note_off_c, 0, 60, 60
1, 17008, Note_on_c, 0, 43, 68
1, 17011, Note_on_c, 0, 50, 56
1, 17020, Note_on_c, 0, 59, 53
1, 17024, Note_on_c, 0, 62, 33
1, 17026, Note_on_c, 0, 57, 43
1, 17038, Note_off_c, 0, 50, 61
1, 17038, Note_off_c, 0, 43, 65
1, 17054, Note_off_c, 0, 57, 58
1, 17056, Note_off_c, 0, 59, 63
1, 17069, Note_off_c, 0, 62, 49
1, 17083, Note_on_c, 0, 55, 56
1, 17105, Note_off_c, 0, 55, 60
1, 17176, Note_on_c, 0, 52, 53
1, 17203, Note_off_c, 0, 52, 59
1, 17225, Note_on_c, 0, 55, 52
1, 17272, Poly_aftertouch_c, 0, 49, 0
1, 17280, Note_off_c, 0, 55, 58
1, 17325, Note_on_c, 0, 59, 58
1, 17330, Note_on_c, 0, 43, 60
1, 17331, Note_on_c, 0, 50, 52
1, 17345, Note_on_c, 0, 57, 22
1, 17354, Note_on_c, 0, 62, 40
1, 17355, Note_off_c, 0, 43, 61
1, 17360, Note_off_c, 0, 50, 59
1, 17364, Note_off_c, 0, 59, 60
1, 17390, Note_off_c, 0, 62, 57
1, 17393, Note_off_c, 0, 57, 44
1, 17410, Note_on_c, 0, 55, 61
1, 17442, Note_off_c, 0, 55, 62
1, 17480, Note_on_c, 0, 57, 75
1, 17489, Note_on_c, 0, 50, 63
1, 17495, Note_on_c, 0, 64, 56
1, 17503, Note_on_c, 0, 61, 44
1, 17512, Note_off_c, 0, 57, 63
1, 17521, Note_off_c, 0, 50, 67
1, 17530, Note_off_c, 0, 64, 66
1, 17532, Note_off_c, 0, 61, 53
1, 17567, Note_on_c, 0, 57, 63
1, 17602, Note_off_c, 0, 57, 60
1, 17641, Note_on_c, 0, 47, 81
1, 17646, Note_on_c, 0, 66, 72
1, 17651, Note_on_c, 0, 62, 62
1, 17662, Note_on_c, 0, 55, 54
1, 17665, Control_c, 0, 67, 111
1, 17669, Note_off_c, 0, 47, 68
1, 17679, Note_off_c, 0, 62, 65
1, 17679, Control_c, 0, 67, 58
1, 17691, Note_off_c, 0, 55, 56
1, 17694, Control_c, 0, 67, 0
1, 17706, Note_off_c, 0, 66, 58
1, 17712, Note_on_c, 0, 59, 75
1, 17742, Note_off_c, 0, 59, 61
1, 17793, Note_on_c, 0, 59, 83
1, 17798, Note_on_c, 0, 67, 67
1, 17799, Note_on_c, 0, 52, 81
1, 17805, Note_on_c, 0, 64, 53
1, 17824, Note_off_c, 0, 52, 65
1, 17826, Note_off_c, 0, 59, 61
1, 17831, Note_off_c, 0, 64, 65
1, 17834, Note_off_c, 0, 67, 60
1, 17859, Note_on_c, 0, 59, 64
1, 17902, Note_off_c, 0, 59, 61
1, 17941, Note_on_c, 0, 50, 83
1, 17947, Note_on_c, 0, 69, 68
1, 17948, Note_on_c, 0, 57, 77
1, 17953, Note_on_c, 0, 66, 63
1, 17972, Note_off_c, 0, 69, 68
1, 17974, Note_off_c, 0, 57, 67
1, 17988, Note_off_c, 0, 50, 63
1, 17989, Note_off_c, 0, 66, 61
1, 18029, Note_on_c, 0, 61, 71
1, 18052, Note_off_c, 0, 61, 66
1, 18101, Note_on_c, 0, 60, 66
1, 18103, Note_on_c, 0, 54, 65
1, 18109, Note_on_c, 0, 64, 67
1, 18109, Note_on_c, 0, 71, 68
1, 18135, Note_off_c, 0, 54, 67
1, 18138, Note_off_c, 0, 60, 66
1, 18143, Note_off_c, 0, 71, 66
1, 18144, Note_off_c, 0, 64, 67
1, 18189, Note_on_c, 0, 60, 61
1, 18209, Note_off_c, 0, 60, 65
1, 18251, Control_c, 0, 67, 65
1, 18266, Note_on_c, 0, 46, 76
1, 18266, Control_c, 0, 67, 127
1, 18267, Note_on_c, 0, 60, 68
1, 18275, Note_on_c, 0, 65, 64
1, 18282, Note_on_c, 0, 53, 50
1, 18284, Note_on_c, 0, 62, 50
1, 18296, Note_off_c, 0, 46, 61
1, 18297, Note_off_c, 0, 60, 66
1, 18304, Note_off_c, 0, 65, 65
1, 18305, Note_off_c, 0, 53, 61
1, 18314, Note_off_c, 0, 62, 64
1, 18332, Note_on_c, 0, 58, 69
1, 18359, Note_off_c, 0, 58, 65
1, 18433, Note_on_c, 0, 55, 63
1, 18467, Note_off_c, 0, 55, 62
1, 18512, Note_on_c, 0, 58, 60
1, 18562, Note_off_c, 0, 58, 57
1, 18595, Note_on_c, 0, 46, 58
1, 18597, Note_on_c, 0, 53, 56
1, 18599, Note_on_c, 0, 62, 52
1, 18621, Note_off_c, 0, 46, 60
1, 18621, Note_on_c, 0, 60, 17
1, 18623, Note_off_c, 0, 53, 60
1, 18636, Note_off_c, 0, 62, 63
1, 18661, Note_off_c, 0, 60, 49
1, 18669, Note_on_c, 0, 58, 54
1, 18695, Note_off_c, 0, 58, 59
1, 18741, Note_on_c, 0, 60, 69
1, 18743, Note_on_c, 0, 53, 57
1, 18750, Note_on_c, 0, 64, 57
1, 18755, Note_on_c, 0, 67, 54
1, 18768, Note_off_c, 0, 60, 68
1, 18776, Note_off_c, 0, 53, 66
1, 18782, Note_off_c, 0, 64, 66
1, 18791, Note_off_c, 0, 67, 62
1, 18826, Note_on_c, 0, 60, 65
1, 18852, Note_off_c, 0, 60, 66
1, 18916, Note_on_c, 0, 46, 72
1, 18922, Note_on_c, 0, 53, 61
1, 18922, Note_on_c, 0, 65, 54
1, 18926, Note_on_c, 0, 60, 59
1, 18927, Note_on_c, 0, 62, 56
1, 18944, Note_off_c, 0, 53, 63
1, 18945, Note_off_c, 0, 46, 64
1, 18952, Note_off_c, 0, 65, 64
1, 18955, Note_off_c, 0, 60, 65
1, 18959, Note_off_c, 0, 62, 64
1, 18990, Note_on_c, 0, 58, 61
1, 19012, Note_off_c, 0, 58, 63
1, 19080, Note_on_c, 0, 55, 63
1, 19110, Note_off_c, 0, 55, 64
1, 19158, Note_on_c, 0, 58, 57
1, 19195, Note_off_c, 0, 58, 60
1, 19235, Note_on_c, 0, 46, 62
1, 19237, Note_on_c, 0, 62, 60
1, 19243, Note_on_c, 0, 53, 50
1, 19254, Note_on_c, 0, 60, 40
1, 19262, Note_on_c, 0, 65, 38
1, 19262, Note_off_c, 0, 46, 63
1, 19270, Note_off_c, 0, 53, 59
1, 19274, Note_off_c, 0, 62, 62
1, 19283, Note_off_c, 0, 60, 56
1, 19292, Note_off_c, 0, 65, 52
1, 19301, Note_on_c, 0, 58, 62
1, 19323, Note_off_c, 0, 58, 62
1, 19383, Note_on_c, 0, 60, 60
1, 19390, Note_on_c, 0, 53, 59
1, 19401, Note_on_c, 0, 64, 57
1, 19403, Note_on_c, 0, 67, 52
1, 19411, Note_off_c, 0, 60, 66
1, 19419, Note_off_c, 0, 53, 67
1, 19432, Note_off_c, 0, 67, 58
1, 19435, Note_off_c, 0, 64, 66
1, 19467, Note_on_c, 0, 60, 69
1, 19492, Note_off_c, 0, 60, 68
1, 19549, Note_on_c, 0, 46, 80
1, 19559, Note_on_c, 0, 53, 65
1, 19560, Note_on_c, 0, 65, 60
1, 19562, Note_on_c, 0, 60, 59
1, 19578, Note_on_c, 0, 62, 49
1, 19580, Note_off_c, 0, 53, 65
1, 19581, Note_off_c, 0, 46, 63
1, 19590, Note_off_c, 0, 60, 66
1, 19594, Note_off_c, 0, 65, 62
1, 19605, Note_off_c, 0, 62, 60
1, 19640, Note_on_c, 0, 58, 61
1, 19662, Note_off_c, 0, 58, 64
1, 19721, Note_on_c, 0, 55, 65
1, 19754, Note_off_c, 0, 55, 62
1, 19787, Note_on_c, 0, 58, 59
1, 19833, Note_off_c, 0, 58, 57
1, 19874, Note_on_c, 0, 46, 69
1, 19875, Note_on_c, 0, 53, 66
1, 19876, Note_on_c, 0, 62, 60
1, 19883, Note_on_c, 0, 60, 50
1, 19888, Note_on_c, 0, 65, 54
1, 19902, Note_off_c, 0, 53, 68
1, 19906, Note_off_c, 0, 46, 64
1, 19908, Note_off_c, 0, 60, 62
1, 19922, Note_off_c, 0, 65, 65
1, 19924, Note_off_c, 0, 62, 58
1, 19934, Note_on_c, 0, 58, 66
1, 19961, Note_off_c, 0, 58, 65
1, 20025, Note_on_c, 0, 53, 53
1, 20032, Note_on_c, 0, 60, 56
1, 20034, Note_on_c, 0, 64, 63
1, 20038, Note_on_c, 0, 67, 57
1, 20059, Note_off_c, 0, 53, 66
1, 20063, Note_off_c, 0, 60, 65
1, 20064, Note_off_c, 0, 64, 67
1, 20067, Note_off_c, 0, 67, 65
1, 20112, Note_on_c, 0, 60, 64
1, 20143, Note_off_c, 0, 60, 63
1, 20186, Note_on_c, 0, 50, 72
1, 20186, Note_on_c, 0, 69, 69
1, 20195, Note_on_c, 0, 57, 60
1, 20195, Note_on_c, 0, 65, 57
1, 20215, Note_off_c, 0, 69, 61
1, 20217, Note_off_c, 0, 65, 63
1, 20224, Note_off_c, 0, 50, 66
1, 20224, Note_off_c, 0, 57, 65
1, 20256, Note_on_c, 0, 62, 68
1, 20282, Control_c, 0, 67, 108
1, 20297, Control_c, 0, 67, 68
1, 20299, Note_off_c, 0, 62, 55
1, 20311, Control_c, 0, 67, 16
1, 20326, Control_c, 0, 67, 0
1, 20338, Note_on_c, 0, 62, 77
1, 20338, Note_on_c, 0, 70, 71
1, 20345, Note_on_c, 0, 55, 77
1, 20351, Note_on_c, 0, 67, 52
1, 20377, Note_off_c, 0, 62, 61
1, 20379, Note_off_c, 0, 55, 65
1, 20384, Note_off_c, 0, 67, 57
1, 20389, Note_off_c, 0, 70, 60
1, 20417, Note_on_c, 0, 62, 62
1, 20458, Note_off_c, 0, 62, 61
1, 20502, Note_on_c, 0, 53, 81
1, 20502, Note_on_c, 0, 69, 68
1, 20502, Note_on_c, 0, 72, 68
1, 20508, Note_on_c, 0, 60, 74
1, 20531, Note_off_c, 0, 53, 68
1, 20536, Note_off_c, 0, 69, 61
1, 20540, Note_off_c, 0, 60, 65
1, 20543, Note_off_c, 0, 72, 62
1, 20573, Note_on_c, 0, 64, 70
1, 20602, Note_off_c, 0, 64, 65
1, 20645, Control_c, 0, 67, 104
1, 20653, Note_on_c, 0, 57, 80
1, 20657, Note_on_c, 0, 74, 69
1, 20657, Note_on_c, 0, 63, 70
1, 20660, Note_on_c, 0, 67, 60
1, 20660, Control_c, 0, 67, 127
1, 20676, Note_off_c, 0, 57, 70
1, 20681, Note_off_c, 0, 63, 68
1, 20681, Note_off_c, 0, 74, 67
1, 20687, Note_off_c, 0, 67, 65
1, 20725, Note_on_c, 0, 63, 68
1, 20748, Note_off_c, 0, 63, 70
1, 20827, Note_on_c, 0, 65, 56
1, 20831, Note_on_c, 0, 46, 61
1, 20831, Note_on_c, 0, 60, 56
1, 20834, Note_on_c, 0, 53, 55
1, 20834, Note_on_c, 0, 62, 52
1, 20859, Note_off_c, 0, 53, 61
1, 20862, Note_off_c, 0, 46, 63
1, 20868, Note_off_c, 0, 60, 65
1, 20873, Note_off_c, 0, 62, 61
1, 20875, Note_off_c, 0, 65, 58
1, 20895, Note_on_c, 0, 58, 65
1, 20919, Note_off_c, 0, 58, 63
1, 20988, Note_on_c, 0, 55, 62
1, 21023, Note_off_c, 0, 55, 61
1, 21035, Note_on_c, 0, 58, 56
1, 21089, Note_off_c, 0, 58, 58
1, 21145, Note_on_c, 0, 46, 71
1, 21146, Note_on_c, 0, 62, 57
1, 21149, Note_on_c, 0, 60, 50
1, 21149, Note_on_c, 0, 53, 64
1, 21159, Note_on_c, 0, 65, 46
1, 21173, Note_off_c, 0, 60, 63
1, 21176, Note_off_c, 0, 53, 67
1, 21182, Note_off_c, 0, 46, 65
1, 21189, Note_off_c, 0, 62, 60
1, 21190, Note_off_c, 0, 65, 60
1, 21206, Note_on_c, 0, 58, 66
1, 21233, Note_off_c, 0, 58, 65
1, 21301, Note_on_c, 0, 60, 64
1, 21310, Note_on_c, 0, 53, 56
1, 21322, Note_on_c, 0, 64, 52
1, 21323, Note_on_c, 0, 67, 51
1, 21340, Note_off_c, 0, 53, 67
1, 21340, Note_off_c, 0, 60, 59
1, 21346, Note_off_c, 0, 64, 63
1, 21360, Note_off_c, 0, 67, 64
1, 21385, Note_on_c, 0, 60, 55
1, 21422, Note_off_c, 0, 60, 61
1, 21460, Note_on_c, 0, 50, 76
1, 21470, Note_on_c, 0, 69, 66
1, 21472, Note_on_c, 0, 57, 67
1, 21479, Note_on_c, 0, 65, 56
1, 21497, Note_off_c, 0, 69, 66
1, 21499, Note_off_c, 0, 65, 61
1, 21506, Note_off_c, 0, 57, 61
1, 21509, Note_off_c, 0, 50, 64
1, 21535, Note_on_c, 0, 62, 70
1, 21576, Note_off_c, 0, 62, 56
1, 21615, Note_on_c, 0, 70, 76
1, 21617, Note_on_c, 0, 55, 77
1, 21620, Note_on_c, 0, 61, 78
1, 21626, Note_on_c, 0, 67, 64
1, 21647, Note_off_c, 0, 61, 64
1, 21651, Note_off_c, 0, 67, 66
1, 21653, Note_off_c, 0, 55, 59
1, 21663, Note_off_c, 0, 70, 63
1, 21699, Note_on_c, 0, 64, 58
1, 21729, Note_off_c, 0, 64, 66
1, 21772, Note_on_c, 0, 72, 75
1, 21777, Note_on_c, 0, 69, 65
1, 21778, Note_on_c, 0, 56, 78
1, 21784, Note_on_c, 0, 62, 75
1, 21786, Note_on_c, 0, 53, 72
1, 21800, Note_off_c, 0, 62, 70
1, 21807, Note_off_c, 0, 69, 63
1, 21813, Note_off_c, 0, 56, 61
1, 21814, Note_off_c, 0, 53, 68
1, 21817, Note_off_c, 0, 72, 63
1, 21827, Note_on_c, 0, 64, 68
1, 21867, Note_off_c, 0, 64, 64
1, 21906, Control_c, 0, 64, 46
1, 21921, Control_c, 0, 64, 61
1, 21921, Control_c, 0, 67, 124
1, 21930, Note_on_c, 0, 67, 62
1, 21933, Note_on_c, 0, 74, 62
1, 21936, Control_c, 0, 64, 67
1, 21936, Control_c, 0, 67, 100
1, 21942, Note_on_c, 0, 64, 73
1, 21945, Note_on_c, 0, 60, 71
1, 21951, Control_c, 0, 64, 74
1, 21951, Control_c, 0, 67, 62
1, 21963, Note_off_c, 0, 67, 61
1, 21963, Note_off_c, 0, 74, 57
1, 21965, Note_off_c, 0, 64, 70
1, 21966, Control_c, 0, 64, 86
1, 21966, Control_c, 0, 67, 16
1, 21970, Note_off_c, 0, 60, 67
1, 21981, Control_c, 0, 64, 127
1, 21981, Control_c, 0, 67, 0
1, 21987, Note_on_c, 0, 63, 84
1, 22009, Note_off_c, 0, 63, 70
1, 22071, Control_c, 0, 64, 95
1, 22085, Control_c, 0, 64, 68
1, 22100, Note_on_c, 0, 65, 94
1, 22100, Note_on_c, 0, 62, 95
1, 22100, Control_c, 0, 64, 0
1, 22103, Note_on_c, 0, 74, 89
1, 22103, Note_on_c, 0, 69, 91
1, 22106, Note_on_c, 0, 77, 84
1, 22118, Note_off_c, 0, 62, 73
1, 22118, Note_off_c, 0, 65, 72
1, 22149, Note_off_c, 0, 69, 65
1, 22151, Note_on_c, 0, 76, 25
1, 22152, Note_off_c, 0, 76, 127
1, 22183, Note_on_c, 0, 65, 68
1, 22189, Note_off_c, 0, 74, 60
1, 22189, Note_off_c, 0, 77, 61
1, 22223, Note_off_c, 0, 65, 60
1, 22306, Note_on_c, 0, 62, 57
1, 22330, Note_off_c, 0, 62, 40
1, 22355, Note_on_c, 0, 65, 70
1, 22396, Note_off_c, 0, 65, 61
1, 22431, Note_on_c, 0, 69, 69
1, 22437, Note_on_c, 0, 74, 66
1, 22438, Note_on_c, 0, 77, 68
1, 22476, Note_off_c, 0, 69, 62
1, 22501, Note_off_c, 0, 74, 53
1, 22502, Note_on_c, 0, 65, 73
1, 22504, Note_off_c, 0, 77, 60
1, 22526, Note_off_c, 0, 65, 69
1, 22588, Note_on_c, 0, 71, 74
1, 22589, Note_on_c, 0, 67, 71
1, 22595, Note_on_c, 0, 79, 68
1, 22595, Note_on_c, 0, 74, 74
1, 22616, Note_off_c, 0, 67, 63
1, 22633, Note_off_c, 0, 71, 59
1, 22636, Note_off_c, 0, 74, 59
1, 22639, Note_off_c, 0, 79, 53
1, 22680, Note_on_c, 0, 69, 48
1, 22708, Note_off_c, 0, 69, 56
1, 22754, Note_on_c, 0, 72, 75
1, 22758, Note_on_c, 0, 60, 69
1, 22759, Note_on_c, 0, 64, 64
1, 22759, Note_on_c, 0, 67, 72
1, 22761, Note_on_c, 0, 76, 65
1, 22778, Note_off_c, 0, 64, 64
1, 22783, Note_off_c, 0, 60, 67
1, 22787, Note_off_c, 0, 67, 64
1, 22789, Note_off_c, 0, 76, 52
1, 22824, Note_off_c, 0, 72, 63
1, 22863, Note_on_c, 0, 64, 18
1, 22864, Note_off_c, 0, 64, 127
1, 22913, Note_on_c, 0, 60, 66
1, 22941, Note_off_c, 0, 60, 67
1, 22986, Note_on_c, 0, 64, 64
1, 23017, Note_off_c, 0, 64, 64
1, 23066, Note_on_c, 0, 71, 66
1, 23067, Note_on_c, 0, 62, 67
1, 23068, Note_on_c, 0, 55, 68
1, 23068, Note_on_c, 0, 74, 66
1, 23072, Note_on_c, 0, 67, 54
1, 23096, Note_off_c, 0, 62, 65
1, 23096, Note_off_c, 0, 67, 61
1, 23096, Note_off_c, 0, 55, 65
1, 23097, Note_off_c, 0, 74, 67
1, 23112, Note_off_c, 0, 71, 64
1, 23142, Note_on_c, 0, 62, 65
1, 23170, Note_off_c, 0, 62, 65
1, 23212, Note_on_c, 0, 60, 78
1, 23217, Note_on_c, 0, 67, 58
1, 23231, Note_on_c, 0, 64, 50
1, 23233, Note_off_c, 0, 60, 71
1, 23257, Note_off_c, 0, 64, 59
1, 23259, Note_off_c, 0, 67, 61
1, 23275, Note_on_c, 0, 72, 18
1, 23283, Note_on_c, 0, 60, 73
1, 23301, Note_off_c, 0, 72, 49
1, 23304, Note_off_c, 0, 60, 71
1, 23338, Control_c, 0, 64, 53
1, 23352, Control_c, 0, 64, 127
1, 23360, Note_on_c, 0, 62, 89
1, 23362, Note_on_c, 0, 69, 88
1, 23362, Note_on_c, 0, 74, 85
1, 23362, Note_on_c, 0, 77, 83
1, 23365, Note_on_c, 0, 65, 91
1, 23390, Control_c, 0, 64, 84
1, 23391, Note_off_c, 0, 65, 74
1, 23399, Note_off_c, 0, 62, 60
1, 23405, Control_c, 0, 64, 0
1, 23408, Note_off_c, 0, 69, 63
1, 23412, Note_off_c, 0, 77, 62
1, 23433, Note_off_c, 0, 74, 63
1, 23534, Note_on_c, 0, 62, 80
1, 23555, Note_off_c, 0, 62, 69
1, 23614, Note_on_c, 0, 65, 68
1, 23646, Note_off_c, 0, 65, 62
1, 23696, Note_on_c, 0, 69, 61
1, 23697, Note_on_c, 0, 74, 68
1, 23706, Note_on_c, 0, 77, 61
1, 23728, Note_off_c, 0, 69, 65
1, 23750, Note_off_c, 0, 77, 53
1, 23760, Note_off_c, 0, 74, 61
1, 23774, Note_on_c, 0, 65, 52
1, 23798, Note_off_c, 0, 65, 59
1, 23849, Note_on_c, 0, 67, 67
1, 23851, Note_on_c, 0, 71, 68
1, 23854, Note_on_c, 0, 79, 61
1, 23860, Note_on_c, 0, 74, 66
1, 23874, Note_off_c, 0, 67, 65
1, 23876, Note_off_c, 0, 79, 59
1, 23880, Note_off_c, 0, 71, 67
1, 23892, Note_off_c, 0, 74, 65
1, 23929, Note_on_c, 0, 67, 65
1, 23948, Note_off_c, 0, 67, 65
1, 23999, Note_on_c, 0, 60, 69
1, 24002, Note_on_c, 0, 72, 72
1, 24002, Note_on_c, 0, 67, 82
1, 24011, Note_on_c, 0, 64, 47
1, 24017, Note_on_c, 0, 76, 50
1, 24025, Note_off_c, 0, 60, 67
1, 24037, Note_off_c, 0, 64, 59
1, 24039, Note_off_c, 0, 67, 60
1, 24041, Note_off_c, 0, 76, 57
1, 24073, Note_off_c, 0, 72, 62
1, 24106, Note_on_c, 0, 64, 48
1, 24140, Note_off_c, 0, 64, 58
1, 24163, Note_on_c, 0, 55, 74
1, 24166, Note_on_c, 0, 62, 63
1, 24175, Note_on_c, 0, 71, 61
1, 24179, Note_on_c, 0, 67, 53
1, 24187, Note_on_c, 0, 74, 47
1, 24188, Note_off_c, 0, 55, 66
1, 24194, Note_off_c, 0, 62, 64
1, 24203, Note_off_c, 0, 67, 60
1, 24204, Note_off_c, 0, 71, 55
1, 24214, Note_off_c, 0, 74, 58
1, 24251, Note_on_c, 0, 62, 64
1, 24276, Note_off_c, 0, 62, 64
1, 24317, Control_c, 0, 64, 64
1, 24318, Note_on_c, 0, 60, 91
1, 24318, Note_on_c, 0, 48, 88
1, 24321, Note_on_c, 0, 67, 71
1, 24322, Note_on_c, 0, 55, 66
1, 24326, Note_on_c, 0, 64, 76
1, 24332, Control_c, 0, 64, 65
1, 24333, Note_on_c, 0, 72, 61
1, 24336, Note_off_c, 0, 60, 73
1, 24342, Note_off_c, 0, 48, 67
1, 24347, Note_off_c, 0, 55, 64
1, 24347, Control_c, 0, 64, 0
1, 24353, Note_off_c, 0, 64, 66
1, 24360, Note_off_c, 0, 67, 61
1, 24360, Note_off_c, 0, 72, 67
1, 24394, Note_on_c, 0, 60, 80
1, 24425, Note_off_c, 0, 60, 65
1, 24478, Note_on_c, 0, 60, 62
1, 24504, Note_off_c, 0, 60, 68
1, 24553, Note_on_c, 0, 60, 75
1, 24577, Note_off_c, 0, 60, 70
1, 24628, Control_c, 0, 64, 63
1, 24629, Note_on_c, 0, 76, 88
1, 24630, Note_on_c, 0, 60, 99
1, 24630, Note_on_c, 0, 72, 83
1, 24633, Note_on_c, 0, 64, 93
1, 24634, Note_on_c, 0, 69, 82
1, 24636, Note_on_c, 0, 57, 80
1, 24643, Control_c, 0, 64, 127
1, 24652, Note_off_c, 0, 64, 70
1, 24664, Note_off_c, 0, 60, 61
1, 24669, Note_off_c, 0, 57, 61
1, 24672, Control_c, 0, 64, 87
1, 24685, Note_off_c, 0, 69, 58
1, 24687, Control_c, 0, 64, 38
1, 24700, Note_off_c, 0, 76, 53
1, 24702, Note_on_c, 0, 64, 80
1, 24702, Control_c, 0, 64, 0
1, 24714, Note_off_c, 0, 72, 62
1, 24758, Note_off_c, 0, 64, 63
1, 24792, Note_on_c, 0, 60, 89
1, 24811, Note_off_c, 0, 60, 70
1, 24879, Note_on_c, 0, 64, 77
1, 24919, Note_off_c, 0, 64, 58
1, 24960, Note_on_c, 0, 72, 76
1, 24970, Note_on_c, 0, 70, 42
1, 24974, Note_on_c, 0, 76, 63
1, 24977, Note_on_c, 0, 69, 65
1, 24994, Note_off_c, 0, 72, 61
1, 25004, Note_off_c, 0, 69, 67
1, 25013, Note_off_c, 0, 70, 53
1, 25015, Note_off_c, 0, 76, 61
1, 25036, Note_on_c, 0, 64, 71
1, 25061, Note_off_c, 0, 64, 69
1, 25114, Note_on_c, 0, 73, 78
1, 25117, Note_on_c, 0, 61, 70
1, 25118, Note_on_c, 0, 70, 64
1, 25121, Note_on_c, 0, 66, 71
1, 25123, Note_on_c, 0, 54, 62
1, 25125, Note_on_c, 0, 78, 63
1, 25146, Note_off_c, 0, 66, 67
1, 25149, Note_off_c, 0, 61, 62
1, 25157, Note_off_c, 0, 54, 64
1, 25158, Note_off_c, 0, 70, 59
1, 25162, Note_off_c, 0, 78, 62
1, 25167, Note_off_c, 0, 73, 59
1, 25188, Note_on_c, 0, 66, 77
1, 25215, Note_off_c, 0, 66, 67
1, 25278, Note_on_c, 0, 59, 80
1, 25280, Note_on_c, 0, 62, 72
1, 25287, Note_on_c, 0, 66, 73
1, 25288, Note_on_c, 0, 71, 61
1, 25298, Note_off_c, 0, 59, 69
1, 25301, Note_on_c, 0, 74, 47
1, 25304, Note_off_c, 0, 62, 67
1, 25307, Note_on_c, 0, 72, 40
1, 25325, Note_off_c, 0, 66, 56
1, 25328, Note_off_c, 0, 74, 58
1, 25334, Note_off_c, 0, 71, 65
1, 25335, Note_off_c, 0, 72, 56
1, 25357, Note_on_c, 0, 62, 74
1, 25385, Note_off_c, 0, 62, 65
1, 25429, Note_on_c, 0, 54, 90
1, 25438, Note_on_c, 0, 61, 78
1, 25440, Note_on_c, 0, 70, 71
1, 25444, Note_on_c, 0, 66, 68
1, 25448, Note_on_c, 0, 73, 61
1, 25459, Note_off_c, 0, 54, 63
1, 25462, Note_off_c, 0, 61, 67
1, 25474, Note_off_c, 0, 66, 63
1, 25486, Note_off_c, 0, 73, 60
1, 25488, Note_off_c, 0, 70, 62
1, 25503, Note_on_c, 0, 61, 79
1, 25528, Note_off_c, 0, 61, 68
1, 25570, Control_c, 0, 64, 75
1, 25585, Control_c, 0, 64, 84
1, 25586, Note_on_c, 0, 59, 93
1, 25588, Note_on_c, 0, 62, 80
1, 25588, Note_on_c, 0, 66, 79
1, 25590, Note_on_c, 0, 47, 89
1, 25591, Note_on_c, 0, 54, 89
1, 25600, Control_c, 0, 64, 64
1, 25603, Note_on_c, 0, 71, 64
1, 25605, Note_off_c, 0, 59, 69
1, 25611, Note_off_c, 0, 47, 69
1, 25611, Note_off_c, 0, 54, 69
1, 25614, Control_c, 0, 64, 0
1, 25628, Note_off_c, 0, 71, 65
1, 25629, Note_off_c, 0, 62, 60
1, 25641, Note_off_c, 0, 66, 64
1, 25754, Note_on_c, 0, 59, 71
1, 25777, Note_off_c, 0, 59, 67
1, 25840, Note_on_c, 0, 57, 38
1, 25874, Note_off_c, 0, 57, 33
1, 25898, Note_on_c, 0, 59, 3
1, 25902, Note_off_c, 0, 59, 32
1, 25912, Note_on_c, 0, 56, 82
1, 25913, Note_on_c, 0, 61, 84
1, 25914, Note_on_c, 0, 68, 75
1, 25915, Note_on_c, 0, 49, 82
1, 25916, Note_on_c, 0, 73, 81
1, 25918, Control_c, 0, 64, 93
1, 25919, Note_on_c, 0, 65, 68
1, 25933, Control_c, 0, 64, 127
1, 25933, Note_off_c, 0, 61, 69
1, 25934, Note_off_c, 0, 56, 70
1, 25942, Note_off_c, 0, 68, 63
1, 25944, Note_off_c, 0, 65, 68
1, 25947, Control_c, 0, 64, 94
1, 25950, Note_off_c, 0, 49, 64
1, 25960, Note_off_c, 0, 73, 64
1, 25962, Control_c, 0, 64, 30
1, 25977, Control_c, 0, 64, 0
1, 25990, Note_on_c, 0, 61, 80
1, 26019, Note_off_c, 0, 61, 65
1, 26075, Note_on_c, 0, 61, 77
1, 26109, Note_off_c, 0, 61, 62
1, 26143, Note_on_c, 0, 61, 68
1, 26169, Note_off_c, 0, 61, 67
1, 26215, Control_c, 0, 64, 65
1, 26228, Note_on_c, 0, 64, 77
1, 26229, Note_on_c, 0, 52, 89
1, 26229, Note_on_c, 0, 59, 88
1, 26229, Note_on_c, 0, 56, 82
1, 26230, Control_c, 0, 64, 127
1, 26240, Note_on_c, 0, 68, 54
1, 26251, Note_off_c, 0, 52, 67
1, 26252, Note_off_c, 0, 56, 69
1, 26259, Control_c, 0, 64, 71
1, 26263, Note_off_c, 0, 59, 58
1, 26263, Note_off_c, 0, 68, 63
1, 26274, Control_c, 0, 64, 0
1, 26282, Note_on_c, 0, 51, 21
1, 26285, Note_off_c, 0, 64, 63
1, 26300, Note_on_c, 0, 56, 91
1, 26312, Note_off_c, 0, 51, 39
1, 26334, Note_off_c, 0, 56, 64
1, 26389, Note_on_c, 0, 56, 80
1, 26428, Note_off_c, 0, 56, 64
1, 26455, Note_on_c, 0, 56, 64
1, 26500, Note_off_c, 0, 56, 65
1, 26533, Control_c, 0, 64, 127
1, 26534, Note_on_c, 0, 54, 91
1, 26536, Note_on_c, 0, 42, 91
1, 26539, Note_on_c, 0, 66, 78
1, 26540, Note_on_c, 0, 49, 93
1, 26540, Note_on_c, 0, 58, 94
1, 26551, Note_off_c, 0, 54, 74
1, 26553, Note_on_c, 0, 61, 37
1, 26559, Note_off_c, 0, 49, 68
1, 26564, Note_off_c, 0, 42, 68
1, 26571, Note_off_c, 0, 61, 65
1, 26574, Note_off_c, 0, 66, 63
1, 26577, Control_c, 0, 64, 81
1, 26578, Note_off_c, 0, 58, 59
1, 26592, Control_c, 0, 64, 0
1, 26607, Control_c, 0, 67, 100
1, 26613, Note_on_c, 0, 54, 85
1, 26622, Control_c, 0, 67, 127
1, 26646, Note_on_c, 0, 49, 48
1, 26652, Note_off_c, 0, 54, 62
1, 26660, Note_off_c, 0, 49, 0
1, 26660, Note_on_c, 0, 49, 41
1, 26666, Note_off_c, 0, 49, 35
1, 26708, Note_on_c, 0, 54, 70
1, 26734, Note_off_c, 0, 54, 65
1, 26800, Note_on_c, 0, 54, 60
1, 26821, Note_off_c, 0, 54, 65
1, 26866, Note_on_c, 0, 54, 63
1, 26888, Note_off_c, 0, 54, 63
1, 26955, Note_on_c, 0, 54, 54
1, 26980, Note_off_c, 0, 54, 62
1, 27031, Note_on_c, 0, 54, 64
1, 27056, Note_off_c, 0, 54, 66
1, 27123, Note_on_c, 0, 54, 58
1, 27146, Note_off_c, 0, 54, 62
1, 27189, Note_on_c, 0, 54, 74
1, 27206, Note_off_c, 0, 54, 68
1, 27255, Note_on_c, 0, 54, 79
1, 27283, Note_off_c, 0, 54, 67
1, 27343, Note_on_c, 0, 54, 78
1, 27370, Note_off_c, 0, 54, 67
1, 27416, Note_on_c, 0, 54, 78
1, 27448, Note_off_c, 0, 54, 66
1, 27492, Note_on_c, 0, 54, 86
1, 27511, Note_off_c, 0, 54, 73
1, 27552, Note_on_c, 0, 54, 84
1, 27585, Note_off_c, 0, 54, 63
1, 27653, Note_on_c, 0, 54, 71
1, 27679, Note_off_c, 0, 54, 63
1, 27731, Note_on_c, 0, 54, 70
1, 27749, Note_off_c, 0, 54, 68
1, 27802, Note_on_c, 0, 53, 77
1, 27808, Note_on_c, 0, 55, 79
1, 27817, Note_on_c, 0, 59, 64
1, 27828, Note_off_c, 0, 53, 68
1, 27869, Note_off_c, 0, 55, 64
1, 27870, Note_off_c, 0, 59, 57
1, 27877, Note_on_c, 0, 54, 63
1, 27912, Note_off_c, 0, 54, 66
1, 27978, Note_on_c, 0, 50, 55
1, 27979, Note_on_c, 0, 47, 50
1, 28029, Note_off_c, 0, 50, 57
1, 28035, Note_off_c, 0, 47, 57
1, 28045, Note_on_c, 0, 52, 58
1, 28075, Note_off_c, 0, 52, 64
1, 28131, Note_on_c, 0, 53, 73
1, 28139, Note_on_c, 0, 55, 61
1, 28143, Note_on_c, 0, 59, 49
1, 28163, Note_off_c, 0, 53, 65
1, 28175, Note_off_c, 0, 59, 62
1, 28183, Note_off_c, 0, 55, 65
1, 28214, Note_on_c, 0, 54, 59
1, 28238, Note_off_c, 0, 54, 64
1, 28298, Note_on_c, 0, 50, 62
1, 28305, Note_on_c, 0, 47, 56
1, 28343, Note_off_c, 0, 50, 64
1, 28357, Note_off_c, 0, 47, 63
1, 28372, Note_on_c, 0, 52, 57
1, 28419, Note_off_c, 0, 52, 64
1, 28439, Note_on_c, 0, 42, 81
1, 28446, Control_c, 0, 67, 102
1, 28461, Control_c, 0, 67, 39
1, 28469, Note_off_c, 0, 42, 64
1, 28476, Control_c, 0, 67, 0
1, 28506, Note_on_c, 0, 54, 73
1, 28532, Note_off_c, 0, 54, 67
1, 28587, Note_on_c, 0, 54, 76
1, 28622, Note_off_c, 0, 54, 69
1, 28685, Note_on_c, 0, 54, 55
1, 28707, Note_off_c, 0, 54, 63
1, 28753, Note_on_c, 0, 54, 97
1, 28770, Note_off_c, 0, 54, 75
1, 28824, Note_on_c, 0, 66, 74
1, 28858, Note_off_c, 0, 66, 60
1, 28891, Poly_aftertouch_c, 0, 66, 0
1, 28899, Note_on_c, 0, 66, 71
1, 28944, Note_off_c, 0, 66, 60
1, 28973, Note_on_c, 0, 66, 56
1, 28998, Note_off_c, 0, 66, 64
1, 29047, Note_on_c, 0, 65, 95
1, 29050, Note_on_c, 0, 67, 91
1, 29052, Note_on_c, 0, 71, 82
1, 29060, Control_c, 0, 64, 68
1, 29071, Note_off_c, 0, 65, 65
1, 29075, Control_c, 0, 64, 66
1, 29090, Control_c, 0, 64, 0
1, 29105, Note_off_c, 0, 71, 62
1, 29110, Note_off_c, 0, 67, 63
1, 29125, Note_on_c, 0, 66, 70
1, 29148, Note_off_c, 0, 66, 66
1, 29228, Note_on_c, 0, 62, 60
1, 29231, Note_on_c, 0, 59, 59
1, 29269, Note_off_c, 0, 62, 56
1, 29299, Note_on_c, 0, 64, 60
1, 29300, Note_off_c, 0, 59, 50
1, 29328, Note_off_c, 0, 64, 66
1, 29378, Note_on_c, 0, 65, 73
1, 29383, Note_on_c, 0, 67, 70
1, 29386, Note_on_c, 0, 71, 57
1, 29418, Note_off_c, 0, 65, 61
1, 29421, Note_off_c, 0, 71, 64
1, 29440, Note_off_c, 0, 67, 59
1, 29456, Note_on_c, 0, 66, 64
1, 29478, Note_off_c, 0, 66, 66
1, 29540, Note_on_c, 0, 62, 65
1, 29546, Note_on_c, 0, 59, 60
1, 29574, Note_off_c, 0, 62, 61
1, 29593, Note_off_c, 0, 59, 58
1, 29617, Note_on_c, 0, 64, 60
1, 29660, Note_off_c, 0, 64, 63
1, 29689, Note_on_c, 0, 54, 87
1, 29710, Note_off_c, 0, 54, 71
1, 29763, Note_on_c, 0, 66, 73
1, 29787, Note_off_c, 0, 66, 66
1, 29845, Note_on_c, 0, 66, 73
1, 29868, Note_off_c, 0, 66, 67
1, 29911, Note_on_c, 0, 66, 82
1, 29939, Note_off_c, 0, 66, 65
1, 29990, Note_on_c, 0, 66, 99
1, 30009, Note_off_c, 0, 66, 67
1, 30064, Note_on_c, 0, 78, 85
1, 30100, Note_off_c, 0, 78, 61
1, 30154, Note_on_c, 0, 78, 77
1, 30192, Note_off_c, 0, 78, 63
1, 30222, Note_on_c, 0, 78, 70
1, 30246, Note_off_c, 0, 78, 67
1, 30292, Control_c, 0, 64, 85
1, 30303, Note_on_c, 0, 77, 103
1, 30304, Note_on_c, 0, 79, 101
1, 30304, Note_on_c, 0, 81, 98
1, 30307, Control_c, 0, 64, 87
1, 30322, Control_c, 0, 64, 64
1, 30336, Control_c, 0, 64, 0
1, 30338, Note_on_c, 0, 83, 45
1, 30342, Note_off_c, 0, 83, 60
1, 30354, Note_off_c, 0, 77, 60
1, 30367, Note_off_c, 0, 81, 59
1, 30377, Note_on_c, 0, 78, 92
1, 30380, Note_off_c, 0, 79, 66
1, 30419, Note_off_c, 0, 78, 66
1, 30467, Note_on_c, 0, 74, 95
1, 30470, Note_on_c, 0, 71, 82
1, 30533, Note_off_c, 0, 71, 63
1, 30545, Note_off_c, 0, 74, 53
1, 30545, Note_on_c, 0, 76, 87
1, 30592, Note_off_c, 0, 76, 62
1, 30613, Note_on_c, 0, 77, 102
1, 30613, Note_on_c, 0, 83, 100
1, 30614, Note_on_c, 0, 79, 99
1, 30617, Control_c, 0, 64, 67
1, 30632, Control_c, 0, 64, 67
1, 30647, Control_c, 0, 64, 0
1, 30649, Note_off_c, 0, 77, 64
1, 30679, Note_off_c, 0, 83, 62
1, 30683, Note_off_c, 0, 79, 66
1, 30686, Note_on_c, 0, 78, 84
1, 30706, Note_off_c, 0, 78, 70
1, 30780, Note_on_c, 0, 74, 78
1, 30781, Note_on_c, 0, 71, 66
1, 30817, Note_off_c, 0, 74, 61
1, 30819, Note_off_c, 0, 71, 63
1, 30833, Note_on_c, 0, 76, 80
1, 30852, Note_off_c, 0, 76, 70
1, 30935, Note_on_c, 0, 65, 79
1, 30937, Note_on_c, 0, 67, 77
1, 30940, Note_on_c, 0, 71, 66
1, 30974, Note_off_c, 0, 65, 60
1, 30978, Note_off_c, 0, 71, 60
1, 30991, Note_off_c, 0, 67, 62
1, 31009, Note_on_c, 0, 66, 62
1, 31029, Note_off_c, 0, 66, 63
1, 31085, Note_on_c, 0, 62, 61
1, 31089, Note_on_c, 0, 59, 57
1, 31144, Note_off_c, 0, 62, 52
1, 31155, Note_on_c, 0, 64, 57
1, 31165, Note_off_c, 0, 59, 57
1, 31180, Note_off_c, 0, 64, 66
1, 31242, Note_on_c, 0, 65, 69
1, 31247, Note_on_c, 0, 71, 56
1, 31248, Control_c, 0, 64, 58
1, 31251, Note_on_c, 0, 67, 60
1, 31263, Control_c, 0, 64, 0
1, 31272, Note_off_c, 0, 65, 63
1, 31284, Note_off_c, 0, 71, 63
1, 31299, Note_off_c, 0, 67, 60
1, 31331, Note_on_c, 0, 66, 49
1, 31355, Note_off_c, 0, 66, 57
1, 31404, Note_on_c, 0, 62, 63
1, 31405, Note_on_c, 0, 59, 57
1, 31442, Note_off_c, 0, 62, 61
1, 31457, Note_off_c, 0, 59, 59
1, 31482, Note_on_c, 0, 64, 59
1, 31518, Note_off_c, 0, 64, 65
1, 31549, Note_on_c, 0, 54, 82
1, 31572, Note_off_c, 0, 54, 67
1, 31630, Note_on_c, 0, 66, 70
1, 31655, Note_off_c, 0, 66, 67
1, 31708, Note_on_c, 0, 66, 75
1, 31734, Note_off_c, 0, 66, 67
1, 31781, Note_on_c, 0, 78, 70
1, 31806, Note_off_c, 0, 78, 68
1, 31862, Note_on_c, 0, 66, 89
1, 31880, Note_off_c, 0, 66, 72
1, 31930, Note_on_c, 0, 78, 72
1, 31958, Note_off_c, 0, 78, 64
1, 32011, Note_on_c, 0, 78, 63
1, 32050, Note_off_c, 0, 78, 61
1, 32080, Note_on_c, 0, 90, 71
1, 32104, Note_off_c, 0, 90, 70
1, 32150, Note_on_c, 0, 90, 105
1, 32171, Note_off_c, 0, 90, 69
1, 32230, Note_on_c, 0, 78, 71
1, 32253, Note_off_c, 0, 78, 70
1, 32307, Note_on_c, 0, 66, 68
1, 32342, Note_off_c, 0, 66, 55
1, 32391, Note_on_c, 0, 66, 62
1, 32410, Note_off_c, 0, 66, 66
1, 32465, Note_on_c, 0, 54, 92
1, 32485, Note_off_c, 0, 54, 71
1, 32542, Note_on_c, 0, 66, 50
1, 32570, Note_off_c, 0, 66, 64
1, 32612, Note_on_c, 0, 54, 65
1, 32652, Note_off_c, 0, 54, 67
1, 32688, Note_on_c, 0, 54, 66
1, 32712, Note_off_c, 0, 54, 67
1, 32745, Control_c, 0, 67, 36
1, 32760, Control_c, 0, 67, 127
1, 32766, Note_on_c, 0, 42, 111
1, 32785, Note_off_c, 0, 42, 75
1, 32828, Note_on_c, 0, 42, 82
1, 32855, Note_off_c, 0, 42, 64
1, 32924, Note_on_c, 0, 42, 81
1, 32947, Note_off_c, 0, 42, 70
1, 32995, Note_on_c, 0, 42, 82
1, 33023, Note_off_c, 0, 42, 64
1, 33067, Note_on_c, 0, 42, 102
1, 33087, Note_off_c, 0, 42, 73
1, 33143, Note_on_c, 0, 42, 82
1, 33198, Note_off_c, 0, 42, 61
1, 33239, Note_on_c, 0, 42, 74
1, 33269, Note_off_c, 0, 42, 65
1, 33314, Note_on_c, 0, 42, 83
1, 33360, Note_off_c, 0, 42, 55
1, 33380, Note_on_c, 0, 42, 86
1, 33403, Note_off_c, 0, 42, 70
1, 33448, Note_on_c, 0, 42, 77
1, 33448, Note_on_c, 0, 45, 77
1, 33478, Note_off_c, 0, 42, 65
1, 33505, Note_off_c, 0, 45, 64
1, 33531, Note_on_c, 0, 49, 93
1, 33552, Note_off_c, 0, 49, 68
1, 33591, Note_on_c, 0, 49, 74
1, 33594, Note_on_c, 0, 52, 77
1, 33617, Note_off_c, 0, 49, 69
1, 33621, Note_off_c, 0, 52, 66
1, 33677, Note_on_c, 0, 54, 89
1, 33696, Note_off_c, 0, 54, 71
1, 33734, Note_on_c, 0, 54, 76
1, 33744, Note_on_c, 0, 57, 69
1, 33768, Note_off_c, 0, 54, 61
1, 33784, Note_off_c, 0, 57, 61
1, 33791, Control_c, 0, 64, 43
1, 33806, Control_c, 0, 64, 69
1, 33816, Note_on_c, 0, 61, 98
1, 33821, Control_c, 0, 64, 102
1, 33835, Note_off_c, 0, 61, 71
1, 33836, Control_c, 0, 64, 127
1, 33888, Note_on_c, 0, 61, 77
1, 33896, Note_on_c, 0, 64, 75
1, 33902, Control_c, 0, 64, 89
1, 33917, Control_c, 0, 64, 0
1, 33919, Note_off_c, 0, 64, 71
1, 33930, Note_off_c, 0, 61, 60
1, 33976, Note_on_c, 0, 49, 98
1, 33998, Note_off_c, 0, 49, 69
1, 34035, Note_on_c, 0, 49, 85
1, 34045, Note_on_c, 0, 52, 71
1, 34082, Note_off_c, 0, 49, 64
1, 34101, Note_off_c, 0, 52, 60
1, 34123, Note_on_c, 0, 54, 90
1, 34144, Note_off_c, 0, 54, 72
1, 34190, Note_on_c, 0, 56, 48
1, 34191, Note_off_c, 0, 56, 127
1, 34196, Note_on_c, 0, 54, 75
1, 34199, Note_on_c, 0, 57, 68
1, 34221, Note_off_c, 0, 54, 68
1, 34224, Note_off_c, 0, 57, 66
1, 34284, Note_on_c, 0, 61, 72
1, 34304, Note_off_c, 0, 61, 40
1, 34304, Note_on_c, 0, 60, 41
1, 34333, Note_off_c, 0, 60, 36
1, 34346, Note_on_c, 0, 64, 70
1, 34349, Note_on_c, 0, 61, 73
1, 34363, Control_c, 0, 64, 53
1, 34374, Note_off_c, 0, 61, 66
1, 34377, Control_c, 0, 64, 75
1, 34384, Note_off_c, 0, 64, 64
1, 34392, Control_c, 0, 64, 127
1, 34420, Note_on_c, 0, 66, 92
1, 34436, Note_off_c, 0, 66, 73
1, 34481, Control_c, 0, 64, 86
1, 34483, Note_on_c, 0, 69, 70
1, 34493, Note_on_c, 0, 66, 64
1, 34496, Control_c, 0, 64, 0
1, 34505, Note_off_c, 0, 69, 70
1, 34517, Note_off_c, 0, 66, 66
1, 34563, Note_on_c, 0, 54, 96
1, 34581, Note_off_c, 0, 54, 72
1, 34629, Note_on_c, 0, 54, 74
1, 34641, Note_on_c, 0, 57, 70
1, 34654, Note_off_c, 0, 54, 65
1, 34676, Note_off_c, 0, 57, 63
1, 34715, Note_on_c, 0, 61, 87
1, 34736, Note_off_c, 0, 61, 70
1, 34781, Note_on_c, 0, 64, 71
1, 34798, Note_on_c, 0, 61, 51
1, 34806, Note_off_c, 0, 64, 69
1, 34821, Note_off_c, 0, 61, 59
1, 34859, Note_on_c, 0, 61, 86
1, 34880, Note_off_c, 0, 61, 70
1, 34928, Note_on_c, 0, 64, 65
1, 34936, Note_on_c, 0, 61, 60
1, 34961, Note_off_c, 0, 61, 65
1, 34974, Note_off_c, 0, 64, 63
1, 34998, Note_on_c, 0, 66, 77
1, 35019, Note_off_c, 0, 66, 70
1, 35079, Note_on_c, 0, 69, 65
1, 35099, Note_on_c, 0, 66, 35
1, 35108, Note_off_c, 0, 69, 65
1, 35132, Note_off_c, 0, 66, 0
1, 35147, Note_on_c, 0, 66, 67
1, 35171, Note_off_c, 0, 66, 67
1, 35221, Note_on_c, 0, 69, 63
1, 35227, Note_on_c, 0, 66, 60
1, 35253, Note_off_c, 0, 66, 66
1, 35265, Note_off_c, 0, 69, 58
1, 35305, Note_on_c, 0, 73, 78
1, 35327, Note_off_c, 0, 73, 69
1, 35398, Note_on_c, 0, 76, 63
1, 35405, Note_on_c, 0, 73, 56
1, 35430, Note_off_c, 0, 73, 65
1, 35434, Note_off_c, 0, 76, 59
1, 35493, Note_on_c, 0, 73, 71
1, 35523, Note_off_c, 0, 73, 65
1, 35608, Control_c, 0, 64, 33
1, 35622, Control_c, 0, 64, 52
1, 35627, Note_on_c, 0, 76, 27
1, 35637, Control_c, 0, 64, 61
1, 35652, Control_c, 0, 64, 64
1, 35667, Control_c, 0, 64, 66
1, 35681, Control_c, 0, 64, 68
1, 35687, Note_off_c, 0, 76, 43
1, 35696, Control_c, 0, 64, 71
1, 35711, Control_c, 0, 64, 73
1, 35726, Control_c, 0, 64, 75
1, 35731, Note_on_c, 0, 78, 56
1, 35741, Control_c, 0, 64, 77
1, 35755, Control_c, 0, 64, 79
1, 35766, Note_off_c, 0, 78, 58
1, 35770, Control_c, 0, 64, 81
1, 35785, Control_c, 0, 64, 83
1, 35800, Control_c, 0, 64, 85
1, 35815, Control_c, 0, 64, 87
1, 35830, Control_c, 0, 64, 90
1, 35845, Control_c, 0, 64, 92
1, 35860, Control_c, 0, 64, 94
1, 35873, Note_on_c, 0, 78, 35
1, 35875, Control_c, 0, 64, 97
1, 35876, Note_on_c, 0, 81, 51
1, 35889, Control_c, 0, 64, 99
1, 35904, Control_c, 0, 64, 100
1, 35919, Control_c, 0, 64, 101
1, 35994, Note_off_c, 0, 78, 44
1, 36022, Note_off_c, 0, 81, 58
1, 36081, Control_c, 0, 64, 101
1, 36085, Note_on_c, 0, 73, 31
1, 36115, Note_on_c, 0, 74, 35
1, 36119, Control_c, 0, 64, 100
1, 36134, Control_c, 0, 64, 100
1, 36149, Control_c, 0, 64, 99
1, 36163, Control_c, 0, 64, 99
1, 36178, Note_on_c, 0, 78, 40
1, 36178, Control_c, 0, 64, 97
1, 36193, Control_c, 0, 64, 95
1, 36207, Control_c, 0, 64, 92
1, 36222, Control_c, 0, 64, 86
1, 36237, Control_c, 0, 64, 81
1, 36252, Control_c, 0, 64, 74
1, 36266, Note_on_c, 0, 85, 52
1, 36267, Control_c, 0, 64, 70
1, 36281, Control_c, 0, 64, 69
1, 36296, Control_c, 0, 64, 69
1, 36311, Control_c, 0, 64, 71
1, 36326, Control_c, 0, 64, 73
1, 36341, Control_c, 0, 64, 76
1, 36355, Control_c, 0, 64, 79
1, 36356, Note_off_c, 0, 78, 46
1, 36370, Control_c, 0, 64, 82
1, 36386, Control_c, 0, 64, 84
1, 36401, Control_c, 0, 64, 86
1, 36416, Control_c, 0, 64, 88
1, 36430, Control_c, 0, 64, 90
1, 36445, Control_c, 0, 64, 92
1, 36461, Control_c, 0, 64, 94
1, 36463, Note_on_c, 0, 78, 55
1, 36465, Note_off_c, 0, 74, 40
1, 36476, Control_c, 0, 64, 95
1, 36491, Control_c, 0, 64, 96
1, 36505, Control_c, 0, 64, 97
1, 36523, Note_off_c, 0, 73, 37
1, 36554, Note_off_c, 0, 85, 38
1, 36560, Note_off_c, 0, 78, 56
1, 36567, Note_on_c, 0, 71, 40
1, 36610, Note_on_c, 0, 74, 50
1, 36674, Note_on_c, 0, 83, 67
1, 36709, Note_off_c, 0, 71, 48
1, 36730, Note_off_c, 0, 74, 33
1, 36778, Note_on_c, 0, 85, 83
1, 36782, Note_off_c, 0, 83, 62
1, 36793, Note_on_c, 0, 78, 50
1, 36817, Control_c, 0, 64, 96
1, 36824, Note_on_c, 0, 73, 49
1, 36838, Note_off_c, 0, 78, 53
1, 36846, Control_c, 0, 64, 96
1, 36875, Note_on_c, 0, 78, 66
1, 36927, Note_off_c, 0, 85, 59
1, 36957, Control_c, 0, 64, 95
1, 36974, Note_off_c, 0, 78, 62
1, 36984, Note_on_c, 0, 71, 49
1, 36990, Note_on_c, 0, 74, 74
1, 37007, Note_off_c, 0, 71, 60
1, 37010, Note_off_c, 0, 73, 39
1, 37016, Control_c, 0, 64, 95
1, 37052, Note_off_c, 0, 74, 59
1, 37063, Note_on_c, 0, 83, 74
1, 37091, Control_c, 0, 64, 94
1, 37105, Control_c, 0, 64, 94
1, 37120, Control_c, 0, 64, 90
1, 37135, Control_c, 0, 64, 85
1, 37149, Control_c, 0, 64, 76
1, 37164, Note_on_c, 0, 81, 72
1, 37164, Control_c, 0, 64, 67
1, 37176, Note_on_c, 0, 71, 35
1, 37180, Control_c, 0, 64, 55
1, 37186, Note_off_c, 0, 83, 61
1, 37186, Note_on_c, 0, 69, 45
1, 37195, Note_on_c, 0, 74, 44
1, 37195, Control_c, 0, 64, 36
1, 37210, Control_c, 0, 64, 51
1, 37225, Control_c, 0, 64, 62
1, 37237, Note_off_c, 0, 71, 56
1, 37240, Control_c, 0, 64, 65
1, 37243, Note_off_c, 0, 81, 63
1, 37245, Note_off_c, 0, 69, 49
1, 37251, Note_on_c, 0, 79, 70
1, 37254, Control_c, 0, 64, 67
1, 37269, Control_c, 0, 64, 69
1, 37278, Note_on_c, 0, 67, 35
1, 37284, Control_c, 0, 64, 72
1, 37299, Control_c, 0, 64, 75
1, 37314, Control_c, 0, 64, 77
1, 37321, Note_off_c, 0, 67, 53
1, 37328, Control_c, 0, 64, 78
1, 37341, Note_off_c, 0, 79, 56
1, 37343, Control_c, 0, 64, 79
1, 37345, Note_on_c, 0, 78, 69
1, 37357, Note_on_c, 0, 66, 57
1, 37358, Control_c, 0, 64, 80
1, 37373, Control_c, 0, 64, 81
1, 37388, Control_c, 0, 64, 82
1, 37402, Control_c, 0, 64, 84
1, 37415, Note_off_c, 0, 74, 57
1, 37417, Control_c, 0, 64, 87
1, 37432, Control_c, 0, 64, 89
1, 37437, Note_on_c, 0, 71, 38
1, 37439, Note_off_c, 0, 66, 59
1, 37443, Note_off_c, 0, 78, 53
1, 37446, Control_c, 0, 64, 90
1, 37466, Note_off_c, 0, 71, 55
1, 37476, Control_c, 0, 64, 88
1, 37491, Control_c, 0, 64, 83
1, 37506, Control_c, 0, 64, 76
1, 37520, Control_c, 0, 64, 69
1, 37535, Note_on_c, 0, 83, 66
1, 37535, Control_c, 0, 64, 64
1, 37538, Note_on_c, 0, 76, 61
1, 37550, Note_on_c, 0, 71, 48
1, 37550, Control_c, 0, 64, 65
1, 37560, Note_on_c, 0, 72, 42
1, 37565, Control_c, 0, 64, 67
1, 37580, Control_c, 0, 64, 70
1, 37583, Note_off_c, 0, 76, 54
1, 37602, Control_c, 0, 64, 72
1, 37604, Note_off_c, 0, 72, 51
1, 37617, Control_c, 0, 64, 73
1, 37630, Note_on_c, 0, 76, 49
1, 37632, Control_c, 0, 64, 75
1, 37646, Note_off_c, 0, 71, 53
1, 37647, Control_c, 0, 64, 76
1, 37661, Control_c, 0, 64, 78
1, 37676, Control_c, 0, 64, 79
1, 37691, Control_c, 0, 64, 79
1, 37699, Note_off_c, 0, 83, 49
1, 37729, Note_off_c, 0, 76, 61
1, 37744, Note_on_c, 0, 69, 52
1, 37748, Note_on_c, 0, 72, 68
1, 37807, Note_off_c, 0, 69, 53
1, 37820, Note_on_c, 0, 81, 72
1, 37824, Control_c, 0, 64, 79
1, 37830, Note_off_c, 0, 72, 61
1, 37854, Control_c, 0, 64, 78
1, 37905, Note_on_c, 0, 83, 80
1, 37908, Note_on_c, 0, 76, 49
1, 37914, Control_c, 0, 64, 78
1, 37914, Note_off_c, 0, 81, 63
1, 37928, Note_on_c, 0, 71, 52
1, 37958, Control_c, 0, 64, 78
1, 37961, Note_off_c, 0, 76, 59
1, 37968, Note_off_c, 0, 71, 66
1, 37970, Note_on_c, 0, 69, 38
1, 37994, Note_on_c, 0, 81, 77
1, 38000, Note_off_c, 0, 69, 56
1, 38012, Note_off_c, 0, 83, 55
1, 38018, Control_c, 0, 64, 76
1, 38033, Control_c, 0, 64, 70
1, 38048, Control_c, 0, 64, 49
1, 38063, Control_c, 0, 64, 0
1, 38080, Note_off_c, 0, 81, 60
1, 38081, Note_on_c, 0, 74, 72
1, 38102, Note_on_c, 0, 62, 61
1, 38107, Note_on_c, 0, 72, 57
1, 38140, Note_off_c, 0, 74, 62
1, 38142, Note_off_c, 0, 62, 60
1, 38169, Note_on_c, 0, 69, 45
1, 38194, Note_off_c, 0, 72, 49
1, 38236, Note_off_c, 0, 69, 59
1, 38259, Note_on_c, 0, 64, 50
1, 38274, Note_on_c, 0, 76, 58
1, 38303, Note_off_c, 0, 64, 58
1, 38308, Note_off_c, 0, 76, 62
1, 38351, Control_c, 0, 64, 39
1, 38366, Control_c, 0, 64, 58
1, 38375, Note_on_c, 0, 72, 47
1, 38381, Control_c, 0, 64, 65
1, 38396, Control_c, 0, 64, 69
1, 38410, Control_c, 0, 64, 73
1, 38420, Note_off_c, 0, 72, 57
1, 38425, Control_c, 0, 64, 77
1, 38440, Control_c, 0, 64, 81
1, 38455, Control_c, 0, 64, 84
1, 38470, Note_on_c, 0, 78, 51
1, 38470, Control_c, 0, 64, 86
1, 38482, Note_on_c, 0, 73, 31
1, 38484, Control_c, 0, 64, 88
1, 38496, Note_on_c, 0, 70, 29
1, 38497, Note_on_c, 0, 66, 39
1, 38499, Control_c, 0, 64, 89
1, 38514, Control_c, 0, 64, 90
1, 38529, Control_c, 0, 64, 91
1, 38543, Note_off_c, 0, 70, 46
1, 38544, Control_c, 0, 64, 92
1, 38552, Note_off_c, 0, 73, 0
1, 38566, Note_on_c, 0, 73, 47
1, 38588, Note_off_c, 0, 66, 60
1, 38608, Note_off_c, 0, 78, 63
1, 38634, Note_off_c, 0, 73, 61
1, 38721, Control_c, 0, 64, 91
1, 38736, Control_c, 0, 64, 90
1, 38750, Control_c, 0, 64, 87
1, 38765, Control_c, 0, 64, 82
1, 38777, Note_on_c, 0, 66, 33
1, 38781, Control_c, 0, 64, 76
1, 38796, Control_c, 0, 64, 70
1, 38801, Note_on_c, 0, 61, 35
1, 38801, Note_on_c, 0, 73, 58
1, 38811, Control_c, 0, 64, 64
1, 38811, Note_on_c, 0, 62, 29
1, 38825, Control_c, 0, 64, 64
1, 38834, Note_off_c, 0, 66, 44
1, 38840, Control_c, 0, 64, 66
1, 38855, Control_c, 0, 64, 68
1, 38870, Control_c, 0, 64, 70
1, 38885, Control_c, 0, 64, 72
1, 38886, Note_off_c, 0, 62, 38
1, 38899, Control_c, 0, 64, 74
1, 38912, Note_on_c, 0, 66, 51
1, 38914, Control_c, 0, 64, 76
1, 38929, Control_c, 0, 64, 78
1, 38944, Control_c, 0, 64, 80
1, 38958, Note_off_c, 0, 61, 36
1, 38958, Note_off_c, 0, 73, 57
1, 38959, Control_c, 0, 64, 82
1, 38973, Control_c, 0, 64, 83
1, 38975, Note_off_c, 0, 66, 60
1, 39006, Note_on_c, 0, 59, 37
1, 39015, Note_on_c, 0, 62, 54
1, 39067, Note_off_c, 0, 59, 53
1, 39080, Note_on_c, 0, 71, 69
1, 39112, Note_off_c, 0, 62, 38
1, 39163, Note_on_c, 0, 66, 51
1, 39169, Note_off_c, 0, 71, 65
1, 39171, Note_on_c, 0, 73, 82
1, 39173, Control_c, 0, 64, 83
1, 39184, Note_on_c, 0, 61, 48
1, 39207, Note_off_c, 0, 66, 53
1, 39226, Poly_aftertouch_c, 0, 62, 127
1, 39243, Note_on_c, 0, 66, 50
1, 39247, Control_c, 0, 64, 82
1, 39273, Poly_aftertouch_c, 0, 62, 0
1, 39281, Note_off_c, 0, 73, 58
1, 39292, Control_c, 0, 64, 82
1, 39316, Note_off_c, 0, 66, 62
1, 39338, Note_on_c, 0, 59, 44
1, 39356, Note_on_c, 0, 62, 50
1, 39358, Note_off_c, 0, 61, 25
1, 39368, Note_off_c, 0, 59, 53
1, 39394, Note_off_c, 0, 62, 61
1, 39423, Note_on_c, 0, 71, 63
1, 39440, Control_c, 0, 64, 81
1, 39455, Control_c, 0, 64, 78
1, 39470, Control_c, 0, 64, 74
1, 39485, Control_c, 0, 64, 66
1, 39500, Control_c, 0, 64, 58
1, 39513, Note_off_c, 0, 71, 61
1, 39514, Control_c, 0, 64, 40
1, 39515, Note_on_c, 0, 62, 27
1, 39520, Note_on_c, 0, 69, 60
1, 39520, Note_on_c, 0, 59, 17
1, 39524, Note_on_c, 0, 57, 37
1, 39529, Control_c, 0, 64, 40
1, 39544, Control_c, 0, 64, 54
1, 39559, Control_c, 0, 64, 62
1, 39572, Note_off_c, 0, 69, 61
1, 39575, Control_c, 0, 64, 65
1, 39576, Note_off_c, 0, 57, 58
1, 39579, Note_off_c, 0, 59, 56
1, 39590, Control_c, 0, 64, 66
1, 39595, Note_on_c, 0, 67, 61
1, 39604, Control_c, 0, 64, 68
1, 39619, Control_c, 0, 64, 69
1, 39634, Control_c, 0, 64, 70
1, 39649, Control_c, 0, 64, 72
1, 39660, Note_off_c, 0, 67, 55
1, 39663, Control_c, 0, 64, 74
1, 39678, Control_c, 0, 64, 76
1, 39680, Note_on_c, 0, 54, 59
1, 39681, Note_on_c, 0, 66, 57
1, 39693, Control_c, 0, 64, 77
1, 39708, Control_c, 0, 64, 79
1, 39723, Control_c, 0, 64, 82
1, 39738, Control_c, 0, 64, 84
1, 39746, Note_off_c, 0, 62, 49
1, 39750, Note_off_c, 0, 54, 61
1, 39753, Control_c, 0, 64, 85
1, 39754, Note_off_c, 0, 66, 56
1, 39783, Control_c, 0, 64, 83
1, 39797, Control_c, 0, 64, 78
1, 39812, Control_c, 0, 64, 73
1, 39827, Control_c, 0, 64, 67
1, 39833, Note_on_c, 0, 71, 67
1, 39848, Control_c, 0, 64, 64
1, 39854, Note_on_c, 0, 64, 51
1, 39869, Note_on_c, 0, 60, 41
1, 39878, Control_c, 0, 64, 66
1, 39882, Note_off_c, 0, 64, 58
1, 39893, Control_c, 0, 64, 68
1, 39905, Note_off_c, 0, 60, 54
1, 39908, Control_c, 0, 64, 70
1, 39923, Control_c, 0, 64, 72
1, 39934, Note_on_c, 0, 64, 53
1, 39938, Control_c, 0, 64, 73
1, 39953, Control_c, 0, 64, 74
1, 39968, Control_c, 0, 64, 75
1, 39982, Note_off_c, 0, 71, 52
1, 39982, Control_c, 0, 64, 76
1, 39996, Note_off_c, 0, 64, 63
1, 39997, Control_c, 0, 64, 77
1, 40012, Control_c, 0, 64, 77
1, 40027, Note_on_c, 0, 57, 49
1, 40029, Note_on_c, 0, 60, 58
1, 40073, Note_off_c, 0, 57, 57
1, 40083, Note_off_c, 0, 60, 64
1, 40102, Note_on_c, 0, 69, 69
1, 40179, Note_off_c, 0, 69, 64
1, 40180, Note_on_c, 0, 64, 50
1, 40185, Note_on_c, 0, 71, 74
1, 40189, Control_c, 0, 64, 77
1, 40205, Note_on_c, 0, 59, 38
1, 40228, Note_off_c, 0, 64, 61
1, 40239, Note_off_c, 0, 59, 62
1, 40245, Note_on_c, 0, 57, 37
1, 40259, Note_on_c, 0, 69, 69
1, 40275, Note_off_c, 0, 57, 50
1, 40278, Control_c, 0, 64, 77
1, 40288, Note_off_c, 0, 71, 60
1, 40292, Control_c, 0, 64, 78
1, 40337, Control_c, 0, 64, 76
1, 40352, Control_c, 0, 64, 71
1, 40361, Note_on_c, 0, 62, 65
1, 40364, Note_off_c, 0, 69, 57
1, 40367, Control_c, 0, 64, 65
1, 40380, Note_on_c, 0, 60, 54
1, 40381, Note_on_c, 0, 50, 57
1, 40382, Control_c, 0, 64, 50
1, 40388, Note_on_c, 0, 57, 40
1, 40397, Control_c, 0, 64, 0
1, 40427, Control_c, 0, 64, 17
1, 40433, Note_off_c, 0, 50, 62
1, 40441, Control_c, 0, 64, 60
1, 40450, Note_off_c, 0, 62, 54
1, 40456, Control_c, 0, 64, 66
1, 40471, Control_c, 0, 64, 72
1, 40486, Control_c, 0, 64, 77
1, 40490, Note_off_c, 0, 60, 52
1, 40501, Control_c, 0, 64, 80
1, 40519, Note_off_c, 0, 57, 37
1, 40531, Control_c, 0, 64, 77
1, 40545, Control_c, 0, 64, 71
1, 40552, Note_on_c, 0, 52, 53
1, 40560, Control_c, 0, 64, 64
1, 40569, Note_on_c, 0, 64, 60
1, 40575, Control_c, 0, 64, 48
1, 40590, Control_c, 0, 64, 42
1, 40611, Control_c, 0, 64, 56
1, 40621, Note_off_c, 0, 64, 61
1, 40626, Control_c, 0, 64, 64
1, 40641, Control_c, 0, 64, 67
1, 40656, Control_c, 0, 64, 70
1, 40666, Note_on_c, 0, 60, 50
1, 40671, Control_c, 0, 64, 71
1, 40678, Note_off_c, 0, 52, 52
1, 40686, Control_c, 0, 64, 72
1, 40701, Control_c, 0, 64, 74
1, 40716, Control_c, 0, 64, 75
1, 40723, Note_off_c, 0, 60, 55
1, 40731, Control_c, 0, 64, 76
1, 40763, Note_on_c, 0, 66, 50
1, 40802, Note_on_c, 0, 58, 31
1, 40811, Note_on_c, 0, 54, 42
1, 40823, Poly_aftertouch_c, 0, 61, 0
1, 40823, Note_on_c, 0, 61, 3
1, 40844, Note_off_c, 0, 58, 53
1, 40886, Note_off_c, 0, 54, 62
1, 40893, Control_c, 0, 64, 75
1, 40895, Note_off_c, 0, 66, 61
1, 40942, Note_off_c, 0, 61, 57
1, 41011, Control_c, 0, 64, 74
1, 41026, Control_c, 0, 64, 71
1, 41041, Control_c, 0, 64, 66
1, 41056, Control_c, 0, 64, 54
1, 41070, Control_c, 0, 64, 0
1, 41073, Note_on_c, 0, 59, 49
1, 41081, Note_on_c, 0, 50, 43
1, 41111, Note_on_c, 0, 47, 21
1, 41115, Control_c, 0, 64, 46
1, 41130, Control_c, 0, 64, 59
1, 41133, Note_off_c, 0, 50, 58
1, 41144, Control_c, 0, 64, 64
1, 41159, Control_c, 0, 64, 66
1, 41166, Note_on_c, 0, 54, 48
1, 41175, Control_c, 0, 64, 69
1, 41190, Control_c, 0, 64, 71
1, 41205, Control_c, 0, 64, 74
1, 41219, Control_c, 0, 64, 76
1, 41221, Note_off_c, 0, 47, 32
1, 41234, Control_c, 0, 64, 77
1, 41237, Note_off_c, 0, 54, 55
1, 41249, Control_c, 0, 64, 78
1, 41259, Note_on_c, 0, 45, 43
1, 41260, Note_on_c, 0, 50, 46
1, 41264, Control_c, 0, 64, 80
1, 41269, Note_off_c, 0, 59, 55
1, 41279, Control_c, 0, 64, 82
1, 41293, Control_c, 0, 64, 84
1, 41303, Note_off_c, 0, 45, 56
1, 41308, Control_c, 0, 64, 86
1, 41323, Control_c, 0, 64, 86
1, 41334, Note_off_c, 0, 50, 57
1, 41348, Note_on_c, 0, 57, 53
1, 41360, Control_c, 0, 64, 86
1, 41375, Control_c, 0, 64, 84
1, 41389, Control_c, 0, 64, 79
1, 41404, Control_c, 0, 64, 72
1, 41419, Control_c, 0, 64, 65
1, 41422, Note_on_c, 0, 59, 64
1, 41424, Note_off_c, 0, 57, 57
1, 41427, Note_on_c, 0, 50, 39
1, 41434, Control_c, 0, 64, 59
1, 41448, Note_on_c, 0, 47, 42
1, 41449, Control_c, 0, 64, 58
1, 41464, Control_c, 0, 64, 63
1, 41479, Control_c, 0, 64, 66
1, 41487, Note_off_c, 0, 50, 58
1, 41494, Control_c, 0, 64, 68
1, 41500, Note_on_c, 0, 54, 61
1, 41508, Control_c, 0, 64, 70
1, 41513, Note_off_c, 0, 47, 54
1, 41523, Control_c, 0, 64, 71
1, 41538, Control_c, 0, 64, 72
1, 41538, Note_off_c, 0, 59, 53
1, 41553, Control_c, 0, 64, 73
1, 41568, Control_c, 0, 64, 75
1, 41582, Control_c, 0, 64, 79
1, 41583, Note_off_c, 0, 54, 62
1, 41592, Note_on_c, 0, 50, 56
1, 41597, Note_on_c, 0, 45, 53
1, 41597, Control_c, 0, 64, 82
1, 41612, Control_c, 0, 64, 86
1, 41626, Control_c, 0, 64, 89
1, 41627, Note_off_c, 0, 45, 64
1, 41641, Control_c, 0, 64, 91
1, 41649, Note_off_c, 0, 50, 62
1, 41656, Note_on_c, 0, 57, 53
1, 41656, Control_c, 0, 64, 91
1, 41681, Note_off_c, 0, 57, 62
1, 41686, Control_c, 0, 64, 88
1, 41700, Control_c, 0, 64, 83
1, 41715, Control_c, 0, 64, 75
1, 41730, Control_c, 0, 64, 66
1, 41744, Control_c, 0, 64, 54
1, 41750, Note_on_c, 0, 62, 68
1, 41759, Note_on_c, 0, 50, 63
1, 41759, Control_c, 0, 64, 49
1, 41765, Note_on_c, 0, 52, 54
1, 41774, Control_c, 0, 64, 60
1, 41789, Control_c, 0, 64, 65
1, 41799, Note_off_c, 0, 52, 61
1, 41804, Control_c, 0, 64, 67
1, 41810, Note_off_c, 0, 50, 62
1, 41819, Control_c, 0, 64, 69
1, 41834, Control_c, 0, 64, 71
1, 41839, Note_on_c, 0, 55, 54
1, 41848, Control_c, 0, 64, 72
1, 41863, Control_c, 0, 64, 75
1, 41877, Note_off_c, 0, 62, 59
1, 41878, Control_c, 0, 64, 77
1, 41881, Note_off_c, 0, 55, 64
1, 41893, Control_c, 0, 64, 78
1, 41908, Control_c, 0, 64, 79
1, 41910, Note_on_c, 0, 49, 59
1, 41913, Note_on_c, 0, 52, 55
1, 41923, Control_c, 0, 64, 81
1, 41937, Control_c, 0, 64, 84
1, 41945, Note_off_c, 0, 49, 64
1, 41952, Control_c, 0, 64, 87
1, 41965, Note_off_c, 0, 52, 60
1, 41968, Control_c, 0, 64, 88
1, 41995, Note_on_c, 0, 61, 63
1, 42012, Control_c, 0, 64, 86
1, 42027, Control_c, 0, 64, 81
1, 42033, Note_off_c, 0, 61, 60
1, 42042, Control_c, 0, 64, 73
1, 42054, Note_on_c, 0, 45, 56
1, 42057, Control_c, 0, 64, 63
1, 42072, Control_c, 0, 64, 46
1, 42072, Note_on_c, 0, 57, 70
1, 42079, Note_on_c, 0, 55, 70
1, 42094, Control_c, 0, 64, 48
1, 42106, Note_on_c, 0, 52, 42
1, 42109, Control_c, 0, 64, 61
1, 42117, Note_off_c, 0, 45, 58
1, 42123, Control_c, 0, 64, 65
1, 42131, Note_off_c, 0, 55, 58
1, 42138, Control_c, 0, 64, 68
1, 42150, Note_off_c, 0, 57, 60
1, 42153, Control_c, 0, 64, 70
1, 42157, Note_on_c, 0, 59, 71
1, 42167, Control_c, 0, 64, 71
1, 42169, Note_on_c, 0, 47, 49
1, 42182, Control_c, 0, 64, 73
1, 42197, Control_c, 0, 64, 74
1, 42200, Note_off_c, 0, 52, 38
1, 42212, Control_c, 0, 64, 76
1, 42227, Control_c, 0, 64, 77
1, 42237, Note_off_c, 0, 59, 60
1, 42238, Note_on_c, 0, 49, 57
1, 42245, Note_off_c, 0, 47, 55
1, 42249, Note_on_c, 0, 61, 61
1, 42257, Control_c, 0, 64, 77
1, 42272, Control_c, 0, 64, 78
1, 42281, Note_off_c, 0, 49, 60
1, 42287, Control_c, 0, 64, 79
1, 42302, Control_c, 0, 64, 82
1, 42316, Control_c, 0, 64, 84
1, 42317, Note_off_c, 0, 61, 60
1, 42323, Note_on_c, 0, 55, 50
1, 42331, Control_c, 0, 64, 85
1, 42349, Note_off_c, 0, 55, 60
1, 42361, Control_c, 0, 64, 82
1, 42375, Control_c, 0, 64, 76
1, 42390, Control_c, 0, 64, 67
1, 42405, Control_c, 0, 64, 51
1, 42409, Note_on_c, 0, 64, 68
1, 42419, Note_on_c, 0, 54, 46
1, 42420, Control_c, 0, 64, 0
1, 42424, Note_on_c, 0, 52, 50
1, 42435, Control_c, 0, 64, 19
1, 42449, Control_c, 0, 64, 55
1, 42458, Note_off_c, 0, 54, 57
1, 42464, Control_c, 0, 64, 63
1, 42479, Control_c, 0, 64, 66
1, 42490, Note_off_c, 0, 64, 62
1, 42494, Control_c, 0, 64, 69
1, 42496, Note_on_c, 0, 57, 60
1, 42509, Control_c, 0, 64, 71
1, 42523, Control_c, 0, 64, 73
1, 42538, Control_c, 0, 64, 76
1, 42547, Note_off_c, 0, 52, 36
1, 42553, Control_c, 0, 64, 78
1, 42557, Note_off_c, 0, 57, 62
1, 42567, Control_c, 0, 64, 79
1, 42582, Control_c, 0, 64, 81
1, 42585, Note_on_c, 0, 50, 49
1, 42588, Note_on_c, 0, 54, 68
1, 42597, Control_c, 0, 64, 85
1, 42612, Control_c, 0, 64, 89
1, 42627, Control_c, 0, 64, 92
1, 42641, Note_off_c, 0, 50, 58
1, 42653, Note_off_c, 0, 54, 59
1, 42656, Control_c, 0, 64, 91
1, 42659, Note_on_c, 0, 62, 66
1, 42671, Control_c, 0, 64, 86
1, 42686, Control_c, 0, 64, 77
1, 42701, Control_c, 0, 64, 67
1, 42713, Note_on_c, 0, 47, 52
1, 42716, Control_c, 0, 64, 36
1, 42721, Note_off_c, 0, 62, 61
1, 42731, Control_c, 0, 64, 21
1, 42733, Note_on_c, 0, 59, 72
1, 42746, Control_c, 0, 64, 53
1, 42760, Note_on_c, 0, 54, 53
1, 42761, Control_c, 0, 64, 64
1, 42776, Control_c, 0, 64, 67
1, 42790, Control_c, 0, 64, 70
1, 42795, Note_off_c, 0, 47, 58
1, 42804, Note_off_c, 0, 54, 61
1, 42805, Control_c, 0, 64, 72
1, 42807, Note_on_c, 0, 62, 65
1, 42814, Note_off_c, 0, 59, 58
1, 42820, Control_c, 0, 64, 74
1, 42821, Note_on_c, 0, 50, 48
1, 42843, Control_c, 0, 64, 76
1, 42858, Control_c, 0, 64, 77
1, 42872, Control_c, 0, 64, 77
1, 42885, Note_off_c, 0, 50, 65
1, 42899, Note_on_c, 0, 54, 58
1, 42907, Note_on_c, 0, 66, 74
1, 42908, Note_off_c, 0, 62, 61
1, 42927, Note_off_c, 0, 54, 66
1, 42946, Control_c, 0, 64, 78
1, 42961, Control_c, 0, 64, 80
1, 42976, Control_c, 0, 64, 80
1, 42977, Note_off_c, 0, 66, 60
1, 42983, Note_on_c, 0, 61, 61
1, 43005, Control_c, 0, 64, 78
1, 43015, Note_off_c, 0, 61, 62
1, 43020, Control_c, 0, 64, 72
1, 43035, Control_c, 0, 64, 63
1, 43050, Control_c, 0, 64, 0
1, 43067, Note_on_c, 0, 64, 67
1, 43074, Note_on_c, 0, 52, 54
1, 43109, Control_c, 0, 64, 47
1, 43121, Note_off_c, 0, 64, 62
1, 43124, Control_c, 0, 64, 66
1, 43139, Control_c, 0, 64, 76
1, 43139, Note_on_c, 0, 59, 64
1, 43154, Control_c, 0, 64, 89
1, 43164, Note_off_c, 0, 52, 56
1, 43169, Control_c, 0, 64, 99
1, 43177, Note_off_c, 0, 59, 57
1, 43199, Control_c, 0, 64, 92
1, 43214, Control_c, 0, 64, 80
1, 43223, Note_on_c, 0, 67, 83
1, 43229, Control_c, 0, 64, 66
1, 43235, Note_on_c, 0, 55, 65
1, 43244, Control_c, 0, 64, 0
1, 43258, Control_c, 0, 64, 34
1, 43271, Note_off_c, 0, 55, 63
1, 43273, Control_c, 0, 64, 61
1, 43288, Control_c, 0, 64, 67
1, 43303, Control_c, 0, 64, 71
1, 43317, Note_on_c, 0, 62, 50
1, 43318, Control_c, 0, 64, 76
1, 43333, Control_c, 0, 64, 82
1, 43347, Control_c, 0, 64, 86
1, 43360, Note_off_c, 0, 62, 61
1, 43362, Control_c, 0, 64, 90
1, 43377, Control_c, 0, 64, 91
1, 43377, Control_c, 0, 67, 109
1, 43390, Note_on_c, 0, 59, 69
1, 43391, Control_c, 0, 64, 92
1, 43391, Control_c, 0, 67, 78
1, 43406, Control_c, 0, 67, 45
1, 43421, Control_c, 0, 67, 15
1, 43436, Note_off_c, 0, 59, 56
1, 43436, Note_off_c, 0, 67, 58
1, 43436, Control_c, 0, 67, 0
1, 43451, Control_c, 0, 64, 92
1, 43467, Note_on_c, 0, 62, 56
1, 43498, Note_off_c, 0, 62, 52
1, 43547, Note_on_c, 0, 69, 64
1, 43551, Note_on_c, 0, 61, 65
1, 43554, Control_c, 0, 64, 92
1, 43592, Note_off_c, 0, 61, 63
1, 43621, Note_off_c, 0, 69, 62
1, 43622, Note_on_c, 0, 64, 69
1, 43649, Note_off_c, 0, 64, 69
1, 43652, Control_c, 0, 64, 88
1, 43667, Control_c, 0, 64, 81
1, 43682, Control_c, 0, 64, 68
1, 43696, Control_c, 0, 64, 0
1, 43719, Note_on_c, 0, 62, 57
1, 43721, Note_on_c, 0, 71, 79
1, 43724, Note_on_c, 0, 59, 58
1, 43741, Control_c, 0, 64, 29
1, 43756, Control_c, 0, 64, 62
1, 43770, Control_c, 0, 64, 68
1, 43771, Note_off_c, 0, 62, 52
1, 43783, Note_off_c, 0, 59, 43
1, 43785, Control_c, 0, 64, 74
1, 43800, Control_c, 0, 64, 80
1, 43802, Note_on_c, 0, 66, 66
1, 43814, Control_c, 0, 64, 87
1, 43829, Control_c, 0, 64, 92
1, 43836, Note_off_c, 0, 71, 54
1, 43844, Control_c, 0, 64, 96
1, 43859, Control_c, 0, 64, 99
1, 43874, Control_c, 0, 64, 103
1, 43877, Note_off_c, 0, 66, 59
1, 43886, Note_on_c, 0, 57, 61
1, 43888, Control_c, 0, 64, 108
1, 43893, Note_on_c, 0, 62, 61
1, 43903, Control_c, 0, 64, 122
1, 43917, Note_off_c, 0, 57, 65
1, 43918, Control_c, 0, 64, 127
1, 43947, Note_on_c, 0, 69, 64
1, 43952, Note_off_c, 0, 62, 57
1, 43973, Note_off_c, 0, 69, 67
1, 44007, Control_c, 0, 64, 108
1, 44022, Control_c, 0, 64, 87
1, 44032, Note_on_c, 0, 74, 89
1, 44036, Control_c, 0, 64, 71
1, 44039, Note_on_c, 0, 64, 70
1, 44044, Note_on_c, 0, 62, 74
1, 44051, Control_c, 0, 64, 54
1, 44066, Control_c, 0, 64, 57
1, 44079, Note_off_c, 0, 64, 58
1, 44081, Control_c, 0, 64, 65
1, 44084, Note_off_c, 0, 62, 55
1, 44096, Control_c, 0, 64, 70
1, 44110, Note_on_c, 0, 67, 74
1, 44111, Control_c, 0, 64, 75
1, 44126, Control_c, 0, 64, 80
1, 44140, Control_c, 0, 64, 85
1, 44150, Note_off_c, 0, 74, 63
1, 44155, Control_c, 0, 64, 91
1, 44168, Note_off_c, 0, 67, 61
1, 44170, Control_c, 0, 64, 96
1, 44185, Control_c, 0, 64, 103
1, 44188, Note_on_c, 0, 61, 62
1, 44194, Note_on_c, 0, 64, 68
1, 44200, Control_c, 0, 64, 120
1, 44214, Control_c, 0, 64, 127
1, 44221, Note_off_c, 0, 61, 63
1, 44247, Note_off_c, 0, 64, 61
1, 44263, Note_on_c, 0, 73, 73
1, 44293, Note_off_c, 0, 73, 64
1, 44318, Control_c, 0, 64, 101
1, 44333, Control_c, 0, 64, 76
1, 44345, Note_on_c, 0, 66, 78
1, 44346, Note_on_c, 0, 76, 91
1, 44350, Note_on_c, 0, 64, 78
1, 44355, Control_c, 0, 64, 58
1, 44371, Control_c, 0, 64, 28
1, 44386, Control_c, 0, 64, 61
1, 44400, Control_c, 0, 64, 68
1, 44409, Note_off_c, 0, 66, 54
1, 44415, Control_c, 0, 64, 75
1, 44420, Note_on_c, 0, 69, 78
1, 44425, Note_off_c, 0, 76, 63
1, 44430, Control_c, 0, 64, 87
1, 44445, Control_c, 0, 64, 98
1, 44460, Control_c, 0, 64, 109
1, 44475, Control_c, 0, 64, 119
1, 44480, Note_off_c, 0, 69, 66
1, 44490, Control_c, 0, 64, 127
1, 44508, Note_off_c, 0, 64, 32
1, 44513, Note_on_c, 0, 62, 62
1, 44524, Note_on_c, 0, 66, 73
1, 44565, Note_off_c, 0, 62, 56
1, 44580, Note_on_c, 0, 74, 64
1, 44580, Note_off_c, 0, 66, 61
1, 44607, Note_off_c, 0, 74, 69
1, 44637, Control_c, 0, 64, 88
1, 44643, Note_on_c, 0, 59, 71
1, 44652, Control_c, 0, 64, 67
1, 44656, Note_on_c, 0, 71, 82
1, 44659, Note_on_c, 0, 66, 77
1, 44667, Control_c, 0, 64, 0
1, 44697, Control_c, 0, 64, 63
1, 44711, Control_c, 0, 64, 73
1, 44716, Note_off_c, 0, 66, 63
1, 44718, Note_off_c, 0, 71, 65
1, 44722, Note_on_c, 0, 74, 72
1, 44726, Control_c, 0, 64, 89
1, 44740, Note_on_c, 0, 62, 57
1, 44741, Control_c, 0, 64, 110
1, 44747, Note_off_c, 0, 59, 38
1, 44756, Control_c, 0, 64, 127
1, 44798, Note_on_c, 0, 78, 77
1, 44798, Note_off_c, 0, 74, 65
1, 44802, Note_on_c, 0, 66, 73
1, 44810, Note_off_c, 0, 62, 61
1, 44814, Note_on_c, 0, 73, 78
1, 44833, Note_off_c, 0, 66, 64
1, 44850, Note_off_c, 0, 73, 60
1, 44851, Note_off_c, 0, 78, 63
1, 44934, Control_c, 0, 64, 90
1, 44939, Note_on_c, 0, 81, 100
1, 44941, Note_on_c, 0, 71, 94
1, 44947, Note_on_c, 0, 69, 87
1, 44949, Control_c, 0, 64, 47
1, 44963, Control_c, 0, 64, 0
1, 44978, Control_c, 0, 64, 64
1, 44993, Control_c, 0, 64, 75
1, 45008, Control_c, 0, 64, 94
1, 45017, Note_off_c, 0, 71, 59
1, 45018, Note_on_c, 0, 74, 82
1, 45020, Note_off_c, 0, 69, 59
1, 45020, Note_off_c, 0, 81, 54
1, 45023, Control_c, 0, 64, 119
1, 45037, Control_c, 0, 64, 127
1, 45075, Note_off_c, 0, 74, 68
1, 45111, Note_on_c, 0, 71, 71
1, 45112, Note_on_c, 0, 67, 86
1, 45153, Note_off_c, 0, 71, 46
1, 45168, Note_off_c, 0, 67, 61
1, 45174, Note_on_c, 0, 79, 81
1, 45240, Note_off_c, 0, 79, 61
1, 45248, Note_on_c, 0, 67, 90
1, 45249, Note_on_c, 0, 64, 89
1, 45257, Note_on_c, 0, 76, 83
1, 45259, Note_on_c, 0, 71, 82
1, 45288, Note_off_c, 0, 67, 66
1, 45300, Note_off_c, 0, 64, 63
1, 45305, Note_off_c, 0, 71, 61
1, 45309, Note_off_c, 0, 76, 52
1, 45312, Control_c, 0, 64, 96
1, 45327, Control_c, 0, 64, 65
1, 45330, Note_on_c, 0, 79, 76
1, 45342, Control_c, 0, 64, 0
1, 45373, Note_off_c, 0, 79, 55
1, 45378, Note_on_c, 0, 83, 73
1, 45387, Note_on_c, 0, 81, 21
1, 45396, Note_on_c, 0, 72, 89
1, 45401, Note_on_c, 0, 62, 73
1, 45403, Note_on_c, 0, 66, 75
1, 45417, Note_off_c, 0, 81, 46
1, 45419, Note_on_c, 0, 78, 63
1, 45429, Note_off_c, 0, 62, 64
1, 45433, Note_off_c, 0, 72, 63
1, 45435, Note_off_c, 0, 66, 60
1, 45442, Note_off_c, 0, 83, 64
1, 45444, Note_off_c, 0, 78, 69
1, 45468, Note_on_c, 0, 74, 73
1, 45491, Note_off_c, 0, 74, 70
1, 45546, Note_on_c, 0, 86, 96
1, 45548, Control_c, 0, 64, 53
1, 45551, Note_on_c, 0, 79, 96
1, 45551, Note_on_c, 0, 74, 102
1, 45554, Note_on_c, 0, 67, 87
1, 45554, Note_on_c, 0, 64, 87
1, 45563, Control_c, 0, 64, 127
1, 45567, Note_off_c, 0, 74, 83
1, 45579, Note_off_c, 0, 79, 56
1, 45583, Note_off_c, 0, 86, 65
1, 45586, Note_off_c, 0, 64, 60
1, 45587, Note_off_c, 0, 67, 57
1, 45625, Note_on_c, 0, 74, 84
1, 45643, Note_off_c, 0, 74, 78
1, 45700, Note_on_c, 0, 67, 71
1, 45706, Note_on_c, 0, 74, 78
1, 45751, Note_off_c, 0, 67, 60
1, 45792, Note_on_c, 0, 64, 65
1, 45795, Note_on_c, 0, 62, 67
1, 45814, Note_off_c, 0, 64, 63
1, 45816, Note_off_c, 0, 62, 62
1, 45873, Note_on_c, 0, 48, 85
1, 45873, Note_on_c, 0, 55, 89
1, 45879, Note_on_c, 0, 64, 75
1, 45881, Note_off_c, 0, 74, 36
1, 45885, Note_on_c, 0, 62, 82
1, 45893, Note_off_c, 0, 55, 71
1, 45894, Note_off_c, 0, 48, 66
1, 45905, Note_off_c, 0, 62, 70
1, 45924, Note_off_c, 0, 64, 65
1, 45938, Note_on_c, 0, 67, 72
1, 45960, Note_off_c, 0, 67, 69
1, 45966, Note_on_c, 0, 74, 61
1, 45988, Note_off_c, 0, 74, 63
1, 46031, Note_on_c, 0, 74, 79
1, 46058, Note_off_c, 0, 74, 63
1, 46088, Note_on_c, 0, 86, 79
1, 46095, Note_on_c, 0, 79, 76
1, 46110, Note_off_c, 0, 86, 69
1, 46114, Note_off_c, 0, 79, 70
1, 46179, Note_on_c, 0, 74, 85
1, 46179, Control_c, 0, 64, 80
1, 46183, Note_on_c, 0, 67, 76
1, 46185, Note_on_c, 0, 64, 76
1, 46185, Note_on_c, 0, 86, 92
1, 46186, Note_on_c, 0, 79, 89
1, 46195, Control_c, 0, 64, 0
1, 46200, Note_off_c, 0, 74, 72
1, 46205, Note_off_c, 0, 64, 65
1, 46210, Note_off_c, 0, 67, 64
1, 46213, Note_off_c, 0, 79, 60
1, 46221, Note_off_c, 0, 86, 59
1, 46245, Note_on_c, 0, 72, 79
1, 46281, Note_off_c, 0, 72, 62
1, 46333, Note_on_c, 0, 60, 77
1, 46336, Note_on_c, 0, 67, 72
1, 46356, Note_off_c, 0, 67, 38
1, 46356, Note_on_c, 0, 63, 22
1, 46357, Note_off_c, 0, 63, 127
1, 46358, Note_off_c, 0, 60, 68
1, 46389, Note_on_c, 0, 69, 84
1, 46416, Note_off_c, 0, 69, 63
1, 46480, Note_on_c, 0, 74, 88
1, 46481, Note_on_c, 0, 67, 68
1, 46484, Note_on_c, 0, 64, 77
1, 46486, Note_on_c, 0, 86, 93
1, 46490, Note_on_c, 0, 79, 81
1, 46497, Note_off_c, 0, 74, 76
1, 46506, Note_off_c, 0, 67, 67
1, 46507, Note_off_c, 0, 64, 72
1, 46509, Note_off_c, 0, 79, 68
1, 46527, Note_off_c, 0, 86, 66
1, 46555, Note_on_c, 0, 72, 83
1, 46603, Note_off_c, 0, 72, 64
1, 46640, Note_on_c, 0, 67, 85
1, 46642, Note_on_c, 0, 60, 77
1, 46643, Note_on_c, 0, 63, 63
1, 46644, Note_off_c, 0, 63, 127
1, 46654, Note_off_c, 0, 67, 70
1, 46666, Note_off_c, 0, 60, 71
1, 46674, Note_on_c, 0, 64, 37
1, 46695, Note_on_c, 0, 69, 80
1, 46705, Note_off_c, 0, 64, 55
1, 46722, Note_off_c, 0, 69, 64
1, 46791, Note_on_c, 0, 74, 111
1, 46791, Note_on_c, 0, 67, 81
1, 46793, Note_on_c, 0, 64, 82
1, 46795, Control_c, 0, 64, 94
1, 46796, Note_on_c, 0, 86, 94
1, 46798, Note_on_c, 0, 79, 93
1, 46806, Note_off_c, 0, 74, 77
1, 46810, Control_c, 0, 64, 127
1, 46818, Note_off_c, 0, 64, 69
1, 46819, Note_off_c, 0, 67, 65
1, 46835, Note_off_c, 0, 79, 63
1, 46837, Note_off_c, 0, 86, 67
1, 46855, Note_on_c, 0, 84, 15
1, 46877, Note_on_c, 0, 74, 85
1, 46895, Note_off_c, 0, 74, 73
1, 46906, Note_off_c, 0, 84, 39
1, 46958, Note_on_c, 0, 67, 68
1, 46958, Note_on_c, 0, 74, 76
1, 46994, Note_off_c, 0, 67, 59
1, 47030, Note_on_c, 0, 64, 71
1, 47034, Note_on_c, 0, 62, 75
1, 47050, Note_off_c, 0, 64, 69
1, 47059, Note_off_c, 0, 62, 67
1, 47059, Note_off_c, 0, 74, 48
1, 47104, Note_on_c, 0, 52, 101
1, 47105, Note_on_c, 0, 45, 94
1, 47108, Note_on_c, 0, 62, 88
1, 47112, Note_on_c, 0, 64, 74
1, 47122, Note_off_c, 0, 52, 72
1, 47128, Note_off_c, 0, 45, 69
1, 47152, Note_off_c, 0, 62, 63
1, 47157, Note_off_c, 0, 64, 65
1, 47179, Note_on_c, 0, 67, 67
1, 47180, Note_on_c, 0, 74, 76
1, 47198, Note_off_c, 0, 67, 66
1, 47201, Note_off_c, 0, 74, 72
1, 47250, Poly_aftertouch_c, 0, 45, 127
1, 47260, Note_on_c, 0, 74, 89
1, 47276, Poly_aftertouch_c, 0, 45, 0
1, 47305, Note_off_c, 0, 74, 60
1, 47324, Note_on_c, 0, 86, 74
1, 47344, Note_on_c, 0, 79, 65
1, 47351, Note_off_c, 0, 86, 71
1, 47361, Note_off_c, 0, 79, 65
1, 47410, Note_on_c, 0, 74, 99
1, 47410, Control_c, 0, 64, 81
1, 47414, Note_on_c, 0, 86, 96
1, 47416, Note_on_c, 0, 64, 82
1, 47417, Note_on_c, 0, 67, 78
1, 47420, Note_on_c, 0, 79, 87
1, 47425, Note_off_c, 0, 74, 77
1, 47425, Control_c, 0, 64, 0
1, 47438, Note_off_c, 0, 64, 70
1, 47438, Note_off_c, 0, 67, 68
1, 47446, Note_off_c, 0, 79, 63
1, 47463, Note_off_c, 0, 86, 62
1, 47486, Note_on_c, 0, 72, 75
1, 47509, Note_on_c, 0, 74, 36
1, 47512, Note_off_c, 0, 72, 66
1, 47541, Note_off_c, 0, 74, 33
1, 47568, Note_on_c, 0, 60, 76
1, 47572, Note_on_c, 0, 67, 82
1, 47579, Note_on_c, 0, 64, 63
1, 47587, Note_off_c, 0, 67, 42
1, 47590, Note_off_c, 0, 60, 70
1, 47599, Note_off_c, 0, 64, 65
1, 47622, Note_on_c, 0, 69, 74
1, 47645, Note_off_c, 0, 69, 69
1, 47712, Note_on_c, 0, 67, 74
1, 47712, Note_on_c, 0, 74, 93
1, 47719, Note_on_c, 0, 64, 65
1, 47721, Note_on_c, 0, 86, 91
1, 47722, Note_on_c, 0, 79, 90
1, 47728, Note_off_c, 0, 74, 76
1, 47737, Note_off_c, 0, 67, 67
1, 47739, Note_off_c, 0, 79, 70
1, 47744, Note_off_c, 0, 64, 66
1, 47759, Note_off_c, 0, 86, 66
1, 47799, Note_on_c, 0, 72, 84
1, 47835, Note_off_c, 0, 72, 66
1, 47865, Note_on_c, 0, 60, 82
1, 47869, Note_on_c, 0, 67, 78
1, 47886, Note_off_c, 0, 67, 67
1, 47896, Note_off_c, 0, 60, 65
1, 47934, Note_on_c, 0, 69, 78
1, 47955, Note_off_c, 0, 69, 71
1, 48022, Note_on_c, 0, 68, 90
1, 48027, Note_on_c, 0, 81, 98
1, 48028, Note_on_c, 0, 86, 101
1, 48028, Note_on_c, 0, 74, 86
1, 48031, Note_on_c, 0, 77, 93
1, 48033, Control_c, 0, 64, 127
1, 48041, Note_on_c, 0, 64, 70
1, 48041, Note_on_c, 0, 65, 66
1, 48043, Note_on_c, 0, 84, 78
1, 48044, Note_off_c, 0, 84, 127
1, 48049, Note_off_c, 0, 74, 70
1, 48060, Note_off_c, 0, 68, 65
1, 48061, Note_off_c, 0, 64, 67
1, 48061, Note_off_c, 0, 86, 69
1, 48064, Note_off_c, 0, 65, 67
1, 48076, Note_off_c, 0, 77, 63
1, 48076, Note_off_c, 0, 81, 59
1, 48099, Control_c, 0, 64, 83
1, 48114, Control_c, 0, 64, 0
1, 48115, Note_on_c, 0, 72, 81
1, 48150, Note_off_c, 0, 72, 65
1, 48194, Note_on_c, 0, 53, 78
1, 48200, Note_on_c, 0, 69, 74
1, 48203, Note_on_c, 0, 60, 71
1, 48219, Note_off_c, 0, 53, 71
1, 48221, Note_off_c, 0, 69, 71
1, 48224, Note_off_c, 0, 60, 63
1, 48265, Note_on_c, 0, 72, 77
1, 48299, Note_off_c, 0, 72, 61
1, 48350, Note_on_c, 0, 74, 77
1, 48351, Note_on_c, 0, 77, 75
1, 48351, Note_on_c, 0, 81, 72
1, 48353, Note_on_c, 0, 86, 71
1, 48359, Note_on_c, 0, 65, 68
1, 48362, Note_on_c, 0, 69, 58
1, 48371, Note_off_c, 0, 74, 72
1, 48375, Note_off_c, 0, 77, 67
1, 48383, Note_off_c, 0, 69, 64
1, 48384, Note_off_c, 0, 86, 62
1, 48386, Note_off_c, 0, 65, 66
1, 48394, Note_off_c, 0, 81, 61
1, 48423, Note_on_c, 0, 72, 78
1, 48448, Note_off_c, 0, 72, 64
1, 48500, Note_on_c, 0, 60, 70
1, 48500, Note_on_c, 0, 88, 86
1, 48508, Note_on_c, 0, 84, 62
1, 48514, Note_on_c, 0, 79, 61
1, 48515, Note_on_c, 0, 71, 53
1, 48517, Note_on_c, 0, 67, 50
1, 48526, Note_off_c, 0, 60, 68
1, 48526, Note_off_c, 0, 84, 63
1, 48529, Note_on_c, 0, 83, 54
1, 48537, Note_off_c, 0, 71, 62
1, 48537, Note_off_c, 0, 79, 65
1, 48543, Note_off_c, 0, 67, 58
1, 48548, Note_off_c, 0, 88, 64
1, 48551, Note_off_c, 0, 83, 62
1, 48579, Note_on_c, 0, 74, 80
1, 48602, Note_off_c, 0, 74, 70
1, 48648, Control_c, 0, 64, 85
1, 48654, Note_on_c, 0, 74, 96
1, 48656, Note_on_c, 0, 65, 88
1, 48657, Note_on_c, 0, 86, 87
1, 48657, Note_on_c, 0, 81, 82
1, 48658, Note_on_c, 0, 69, 86
1, 48659, Note_on_c, 0, 77, 96
1, 48663, Control_c, 0, 64, 127
1, 48671, Note_off_c, 0, 74, 70
1, 48678, Note_on_c, 0, 84, 51
1, 48685, Note_off_c, 0, 81, 59
1, 48689, Note_off_c, 0, 69, 54
1, 48692, Note_off_c, 0, 86, 68
1, 48693, Control_c, 0, 64, 106
1, 48697, Note_off_c, 0, 65, 64
1, 48697, Note_off_c, 0, 77, 64
1, 48708, Control_c, 0, 64, 79
1, 48711, Note_off_c, 0, 84, 52
1, 48722, Control_c, 0, 64, 0
1, 48755, Note_on_c, 0, 72, 39
1, 48773, Note_on_c, 0, 71, 36
1, 48776, Note_off_c, 0, 72, 59
1, 48806, Note_on_c, 0, 53, 79
1, 48808, Note_off_c, 0, 71, 31
1, 48818, Note_on_c, 0, 60, 67
1, 48819, Note_on_c, 0, 69, 72
1, 48839, Note_off_c, 0, 53, 70
1, 48846, Note_off_c, 0, 60, 64
1, 48848, Note_off_c, 0, 69, 70
1, 48901, Note_on_c, 0, 72, 69
1, 48934, Note_off_c, 0, 72, 61
1, 48973, Note_on_c, 0, 68, 72
1, 48978, Note_on_c, 0, 86, 80
1, 48981, Note_on_c, 0, 77, 71
1, 48982, Note_on_c, 0, 81, 70
1, 48983, Note_on_c, 0, 74, 66
1, 48984, Note_on_c, 0, 65, 64
1, 49001, Note_off_c, 0, 74, 65
1, 49005, Note_off_c, 0, 77, 67
1, 49006, Note_off_c, 0, 68, 63
1, 49009, Note_off_c, 0, 81, 60
1, 49011, Note_off_c, 0, 65, 67
1, 49019, Note_off_c, 0, 86, 65
1, 49050, Note_on_c, 0, 72, 83
1, 49082, Note_off_c, 0, 72, 60
1, 49119, Note_on_c, 0, 68, 80
1, 49131, Note_on_c, 0, 88, 86
1, 49132, Note_on_c, 0, 60, 71
1, 49134, Note_on_c, 0, 83, 74
1, 49135, Note_on_c, 0, 79, 76
1, 49147, Note_on_c, 0, 72, 33
1, 49158, Note_off_c, 0, 60, 70
1, 49167, Note_off_c, 0, 79, 55
1, 49173, Note_off_c, 0, 68, 62
1, 49176, Note_off_c, 0, 88, 63
1, 49177, Note_off_c, 0, 72, 51
1, 49191, Note_off_c, 0, 83, 61
1, 49208, Note_on_c, 0, 74, 85
1, 49235, Note_off_c, 0, 74, 65
1, 49278, Note_on_c, 0, 66, 68
1, 49279, Note_off_c, 0, 66, 127
1, 49279, Control_c, 0, 64, 67
1, 49280, Note_on_c, 0, 74, 84
1, 49284, Note_on_c, 0, 69, 78
1, 49286, Note_on_c, 0, 65, 87
1, 49286, Note_on_c, 0, 86, 84
1, 49288, Note_on_c, 0, 77, 85
1, 49289, Note_on_c, 0, 81, 78
1, 49294, Control_c, 0, 64, 127
1, 49301, Note_off_c, 0, 74, 72
1, 49305, Note_on_c, 0, 84, 53
1, 49311, Note_off_c, 0, 69, 63
1, 49322, Note_off_c, 0, 65, 60
1, 49322, Note_off_c, 0, 86, 65
1, 49326, Note_off_c, 0, 81, 56
1, 49328, Note_off_c, 0, 77, 64
1, 49354, Note_off_c, 0, 84, 39
1, 49371, Note_on_c, 0, 72, 83
1, 49410, Note_off_c, 0, 72, 54
1, 49425, Note_on_c, 0, 53, 87
1, 49444, Note_on_c, 0, 60, 49
1, 49444, Note_on_c, 0, 69, 71
1, 49448, Note_off_c, 0, 53, 69
1, 49460, Note_off_c, 0, 69, 73
1, 49466, Note_off_c, 0, 60, 63
1, 49524, Note_on_c, 0, 72, 67
1, 49545, Control_c, 0, 64, 99
1, 49547, Note_off_c, 0, 72, 67
1, 49560, Control_c, 0, 64, 64
1, 49582, Control_c, 0, 64, 0
1, 49596, Note_on_c, 0, 77, 74
1, 49598, Note_on_c, 0, 86, 75
1, 49599, Note_on_c, 0, 74, 71
1, 49599, Note_on_c, 0, 81, 71
1, 49603, Note_on_c, 0, 65, 63
1, 49617, Note_off_c, 0, 74, 68
1, 49619, Note_off_c, 0, 77, 70
1, 49628, Note_off_c, 0, 65, 69
1, 49630, Note_off_c, 0, 81, 59
1, 49645, Note_off_c, 0, 86, 57
1, 49685, Note_on_c, 0, 72, 57
1, 49703, Note_on_c, 0, 74, 34
1, 49703, Note_off_c, 0, 72, 63
1, 49736, Note_off_c, 0, 74, 52
1, 49751, Note_on_c, 0, 88, 76
1, 49756, Note_on_c, 0, 67, 62
1, 49757, Note_on_c, 0, 60, 67
1, 49762, Note_on_c, 0, 79, 55
1, 49763, Note_on_c, 0, 71, 52
1, 49766, Note_on_c, 0, 83, 53
1, 49773, Note_on_c, 0, 81, 39
1, 49783, Note_off_c, 0, 79, 62
1, 49784, Note_off_c, 0, 60, 67
1, 49785, Note_off_c, 0, 67, 64
1, 49785, Note_off_c, 0, 71, 61
1, 49790, Note_off_c, 0, 83, 66
1, 49793, Note_off_c, 0, 88, 65
1, 49802, Note_off_c, 0, 81, 35
1, 49822, Note_on_c, 0, 74, 72
1, 49855, Note_off_c, 0, 74, 64
1, 49900, Note_on_c, 0, 74, 79
1, 49900, Note_on_c, 0, 81, 76
1, 49903, Note_on_c, 0, 77, 87
1, 49904, Note_on_c, 0, 86, 83
1, 49907, Note_on_c, 0, 65, 80
1, 49909, Note_on_c, 0, 69, 76
1, 49921, Note_off_c, 0, 74, 72
1, 49930, Note_off_c, 0, 69, 70
1, 49940, Note_off_c, 0, 65, 64
1, 49946, Note_off_c, 0, 77, 60
1, 49946, Note_off_c, 0, 86, 65
1, 49959, Note_off_c, 0, 81, 57
1, 49980, Note_on_c, 0, 72, 81
1, 50003, Note_off_c, 0, 72, 66
1, 50053, Note_on_c, 0, 60, 83
1, 50058, Note_on_c, 0, 67, 79
1, 50058, Note_on_c, 0, 71, 79
1, 50059, Note_on_c, 0, 83, 83
1, 50059, Note_on_c, 0, 88, 86
1, 50062, Note_on_c, 0, 79, 85
1, 50078, Note_off_c, 0, 71, 71
1, 50079, Note_off_c, 0, 60, 63
1, 50080, Note_off_c, 0, 67, 69
1, 50096, Note_off_c, 0, 88, 65
1, 50117, Note_off_c, 0, 79, 61
1, 50123, Note_on_c, 0, 74, 87
1, 50129, Note_off_c, 0, 83, 60
1, 50159, Note_off_c, 0, 74, 66
1, 50202, Note_on_c, 0, 74, 88
1, 50205, Note_on_c, 0, 65, 86
1, 50207, Note_on_c, 0, 81, 84
1, 50210, Note_on_c, 0, 69, 78
1, 50212, Note_on_c, 0, 86, 80
1, 50213, Note_on_c, 0, 77, 81
1, 50228, Note_off_c, 0, 74, 67
1, 50233, Note_off_c, 0, 69, 69
1, 50246, Note_off_c, 0, 65, 62
1, 50249, Note_off_c, 0, 86, 64
1, 50270, Note_on_c, 0, 72, 83
1, 50275, Note_off_c, 0, 77, 63
1, 50278, Note_off_c, 0, 81, 62
1, 50299, Note_off_c, 0, 72, 62
1, 50356, Note_on_c, 0, 60, 84
1, 50362, Note_on_c, 0, 88, 77
1, 50363, Note_on_c, 0, 71, 75
1, 50367, Note_on_c, 0, 67, 60
1, 50371, Note_on_c, 0, 79, 66
1, 50380, Note_on_c, 0, 81, 43
1, 50382, Note_off_c, 0, 60, 64
1, 50385, Note_off_c, 0, 71, 72
1, 50388, Note_off_c, 0, 67, 61
1, 50404, Note_off_c, 0, 79, 55
1, 50406, Note_off_c, 0, 81, 58
1, 50409, Note_off_c, 0, 88, 61
1, 50445, Note_on_c, 0, 74, 38
1, 50475, Note_off_c, 0, 74, 34
1, 50523, Control_c, 0, 64, 53
1, 50526, Note_on_c, 0, 90, 100
1, 50533, Note_on_c, 0, 83, 99
1, 50538, Control_c, 0, 64, 127
1, 50571, Note_off_c, 0, 90, 67
1, 50588, Note_off_c, 0, 83, 69
1, 50591, Note_on_c, 0, 78, 72
1, 50610, Note_off_c, 0, 78, 71
1, 50681, Note_on_c, 0, 78, 81
1, 50732, Note_off_c, 0, 78, 65
1, 50743, Note_on_c, 0, 71, 63
1, 50785, Note_off_c, 0, 71, 64
1, 50827, Poly_aftertouch_c, 0, 71, 0
1, 50836, Note_on_c, 0, 71, 73
1, 50850, Note_on_c, 0, 78, 54
1, 50877, Note_off_c, 0, 78, 67
1, 50898, Note_off_c, 0, 71, 63
1, 50912, Note_on_c, 0, 66, 64
1, 50941, Note_off_c, 0, 66, 63
1, 51003, Note_on_c, 0, 66, 71
1, 51003, Note_on_c, 0, 71, 66
1, 51035, Note_off_c, 0, 71, 63
1, 51060, Note_off_c, 0, 66, 57
1, 51069, Note_on_c, 0, 59, 60
1, 51129, Note_off_c, 0, 59, 46
1, 51148, Note_on_c, 0, 71, 81
1, 51158, Note_on_c, 0, 78, 68
1, 51190, Note_off_c, 0, 78, 62
1, 51213, Note_off_c, 0, 71, 66
1, 51231, Note_on_c, 0, 66, 50
1, 51262, Note_off_c, 0, 66, 54
1, 51310, Note_on_c, 0, 71, 57
1, 51313, Note_on_c, 0, 66, 51
1, 51334, Note_off_c, 0, 71, 62
1, 51366, Note_off_c, 0, 66, 61
1, 51374, Note_on_c, 0, 59, 63
1, 51420, Note_off_c, 0, 59, 61
1, 51453, Note_on_c, 0, 59, 65
1, 51497, Note_on_c, 0, 66, 27
1, 51515, Note_off_c, 0, 59, 62
1, 51525, Note_on_c, 0, 54, 60
1, 51525, Note_off_c, 0, 66, 57
1, 51552, Note_off_c, 0, 54, 66
1, 51619, Note_on_c, 0, 54, 72
1, 51619, Note_on_c, 0, 59, 58
1, 51648, Note_off_c, 0, 59, 60
1, 51690, Note_on_c, 0, 47, 62
1, 51690, Note_off_c, 0, 54, 63
1, 51733, Control_c, 0, 64, 110
1, 51748, Control_c, 0, 64, 85
1, 51757, Note_off_c, 0, 47, 51
1, 51762, Control_c, 0, 64, 81
1, 51766, Note_on_c, 0, 59, 77
1, 51777, Note_on_c, 0, 66, 67
1, 51777, Control_c, 0, 64, 90
1, 51792, Control_c, 0, 64, 114
1, 51803, Note_off_c, 0, 66, 67
1, 51807, Control_c, 0, 64, 127
1, 51820, Note_off_c, 0, 59, 64
1, 51821, Note_on_c, 0, 54, 75
1, 51854, Note_off_c, 0, 54, 68
1, 51925, Note_on_c, 0, 54, 61
1, 51933, Note_on_c, 0, 59, 59
1, 51959, Note_off_c, 0, 59, 64
1, 51989, Note_off_c, 0, 54, 67
1, 51992, Note_on_c, 0, 47, 64
1, 52025, Note_off_c, 0, 47, 66
1, 52082, Note_on_c, 0, 47, 74
1, 52085, Note_on_c, 0, 54, 64
1, 52106, Note_off_c, 0, 54, 65
1, 52123, Note_off_c, 0, 47, 64
1, 52139, Note_on_c, 0, 42, 68
1, 52178, Note_off_c, 0, 42, 61
1, 52228, Note_on_c, 0, 47, 49
1, 52240, Note_on_c, 0, 42, 67
1, 52254, Note_off_c, 0, 47, 59
1, 52272, Note_off_c, 0, 42, 64
1, 52305, Note_on_c, 0, 35, 32
1, 52348, Note_off_c, 0, 35, 53
1, 52407, Note_on_c, 0, 21, 90
1, 52408, Control_c, 0, 67, 51
1, 52414, Note_on_c, 0, 23, 84
1, 52423, Control_c, 0, 67, 127
1, 52431, Note_off_c, 0, 21, 63
1, 52438, Control_c, 0, 64, 80
1, 52449, Note_off_c, 0, 23, 59
1, 52452, Control_c, 0, 64, 0
1, 52487, Note_on_c, 0, 47, 69
1, 52517, Note_off_c, 0, 47, 65
1, 52579, Note_on_c, 0, 47, 76
1, 52606, Note_off_c, 0, 47, 66
1, 52656, Note_on_c, 0, 47, 69
1, 52689, Note_off_c, 0, 47, 64
1, 52732, Note_on_c, 0, 47, 90
1, 52754, Note_off_c, 0, 47, 70
1, 52797, Note_on_c, 0, 47, 79
1, 52838, Note_off_c, 0, 47, 65
1, 52886, Note_on_c, 0, 47, 72
1, 52907, Note_off_c, 0, 47, 69
1, 52949, Note_on_c, 0, 47, 72
1, 52987, Note_off_c, 0, 47, 65
1, 53013, Note_on_c, 0, 47, 91
1, 53032, Note_off_c, 0, 47, 75
1, 53091, Note_on_c, 0, 47, 80
1, 53128, Note_off_c, 0, 47, 64
1, 53180, Note_on_c, 0, 47, 74
1, 53207, Note_off_c, 0, 47, 69
1, 53261, Note_on_c, 0, 47, 67
1, 53285, Note_off_c, 0, 47, 67
1, 53332, Note_on_c, 0, 47, 96
1, 53352, Note_off_c, 0, 47, 73
1, 53401, Note_on_c, 0, 47, 77
1, 53430, Note_off_c, 0, 47, 65
1, 53486, Note_on_c, 0, 47, 76
1, 53513, Note_off_c, 0, 47, 70
1, 53563, Note_on_c, 0, 47, 69
1, 53593, Note_off_c, 0, 47, 66
1, 53630, Note_on_c, 0, 47, 92
1, 53653, Note_off_c, 0, 47, 69
1, 53698, Note_on_c, 0, 47, 72
1, 53736, Note_off_c, 0, 47, 61
1, 53781, Note_on_c, 0, 47, 71
1, 53817, Note_off_c, 0, 47, 66
1, 53867, Note_on_c, 0, 47, 62
1, 53895, Note_off_c, 0, 47, 66
1, 53940, Note_on_c, 0, 47, 91
1, 53962, Note_off_c, 0, 47, 71
1, 54012, Note_on_c, 0, 47, 71
1, 54043, Note_off_c, 0, 47, 67
1, 54111, Note_on_c, 0, 47, 71
1, 54142, Note_off_c, 0, 47, 66
1, 54195, Note_on_c, 0, 47, 65
1, 54220, Note_off_c, 0, 47, 65
1, 54267, Note_on_c, 0, 47, 83
1, 54295, Note_off_c, 0, 47, 67
1, 54358, Note_on_c, 0, 47, 30
1, 54401, Note_off_c, 0, 47, 0
1, 54414, Note_on_c, 0, 47, 62
1, 54439, Note_off_c, 0, 47, 67
1, 54500, Note_on_c, 0, 47, 58
1, 54525, Note_off_c, 0, 47, 59
1, 54570, Note_on_c, 0, 47, 71
1, 54590, Note_off_c, 0, 47, 65
1, 54651, Note_on_c, 0, 47, 61
1, 54673, Note_off_c, 0, 47, 65
1, 54733, Note_on_c, 0, 47, 69
1, 54756, Note_off_c, 0, 47, 65
1, 54803, Note_on_c, 0, 47, 54
1, 54833, Note_off_c, 0, 47, 66
1, 54880, Note_on_c, 0, 47, 77
1, 54907, Note_off_c, 0, 47, 66
1, 54973, Note_on_c, 0, 47, 36
1, 55003, Note_off_c, 0, 47, 0
1, 55029, Note_on_c, 0, 47, 46
1, 55060, Note_off_c, 0, 47, 59
1, 55111, Note_on_c, 0, 47, 60
1, 55142, Note_off_c, 0, 47, 65
1, 55188, Note_on_c, 0, 47, 80
1, 55214, Note_off_c, 0, 47, 68
1, 55239, Control_c, 0, 64, 38
1, 55253, Control_c, 0, 64, 62
1, 55267, Note_on_c, 0, 47, 66
1, 55268, Control_c, 0, 64, 65
1, 55283, Control_c, 0, 64, 66
1, 55294, Note_off_c, 0, 47, 66
1, 55297, Control_c, 0, 64, 67
1, 55312, Control_c, 0, 64, 67
1, 55342, Control_c, 0, 64, 68
1, 55357, Control_c, 0, 64, 69
1, 55371, Control_c, 0, 64, 72
1, 55386, Control_c, 0, 64, 75
1, 55392, Note_on_c, 0, 47, 48
1, 55401, Control_c, 0, 64, 80
1, 55416, Control_c, 0, 64, 85
1, 55430, Note_off_c, 0, 47, 64
1, 55431, Control_c, 0, 64, 87
1, 55445, Control_c, 0, 64, 86
1, 55460, Control_c, 0, 64, 77
1, 55475, Control_c, 0, 64, 52
1, 55490, Note_on_c, 0, 46, 72
1, 55491, Note_off_c, 0, 46, 127
1, 55491, Control_c, 0, 64, 0
1, 55492, Note_on_c, 0, 50, 82
1, 55494, Note_on_c, 0, 59, 76
1, 55500, Note_on_c, 0, 54, 71
1, 55503, Note_on_c, 0, 47, 77
1, 55519, Note_off_c, 0, 50, 71
1, 55522, Note_off_c, 0, 47, 68
1, 55524, Note_off_c, 0, 54, 67
1, 55531, Note_off_c, 0, 59, 63
1, 55662, Note_on_c, 0, 50, 5
1, 55703, Note_off_c, 0, 50, 50
1, 55739, Note_on_c, 0, 50, 51
1, 55791, Note_off_c, 0, 50, 62
1, 55827, Note_on_c, 0, 50, 46
1, 55829, Note_on_c, 0, 54, 64
1, 55831, Note_on_c, 0, 47, 59
1, 55844, Note_on_c, 0, 59, 47
1, 55856, Note_off_c, 0, 47, 60
1, 55857, Note_off_c, 0, 50, 60
1, 55868, Note_off_c, 0, 54, 63
1, 55871, Note_off_c, 0, 59, 58
1, 55936, Note_on_c, 0, 50, 11
1, 55978, Note_on_c, 0, 60, 61
1, 55983, Note_on_c, 0, 41, 71
1, 55983, Note_off_c, 0, 50, 54
1, 55990, Note_on_c, 0, 51, 59
1, 56008, Note_off_c, 0, 60, 65
1, 56009, Note_on_c, 0, 55, 40
1, 56010, Note_off_c, 0, 41, 64
1, 56018, Note_off_c, 0, 51, 65
1, 56038, Note_off_c, 0, 55, 51
1, 56073, Note_on_c, 0, 51, 55
1, 56103, Note_off_c, 0, 51, 64
1, 56136, Note_on_c, 0, 50, 88
1, 56139, Note_on_c, 0, 59, 68
1, 56144, Note_on_c, 0, 47, 75
1, 56151, Note_on_c, 0, 54, 54
1, 56162, Note_off_c, 0, 50, 71
1, 56168, Note_off_c, 0, 47, 67
1, 56168, Note_off_c, 0, 59, 63
1, 56178, Note_off_c, 0, 54, 63
1, 56303, Note_on_c, 0, 50, 66
1, 56339, Note_off_c, 0, 50, 66
1, 56398, Note_on_c, 0, 50, 72
1, 56443, Note_off_c, 0, 50, 61
1, 56474, Note_on_c, 0, 50, 52
1, 56480, Note_on_c, 0, 47, 63
1, 56485, Note_on_c, 0, 54, 58
1, 56497, Note_on_c, 0, 59, 47
1, 56497, Note_off_c, 0, 50, 63
1, 56503, Note_off_c, 0, 47, 63
1, 56520, Note_off_c, 0, 54, 64
1, 56525, Note_off_c, 0, 59, 61
1, 56556, Note_on_c, 0, 50, 61
1, 56604, Note_off_c, 0, 50, 66
1, 56643, Note_on_c, 0, 51, 68
1, 56644, Note_on_c, 0, 41, 68
1, 56644, Note_on_c, 0, 60, 51
1, 56659, Note_on_c, 0, 55, 48
1, 56670, Note_off_c, 0, 51, 66
1, 56674, Note_off_c, 0, 41, 64
1, 56674, Note_off_c, 0, 60, 61
1, 56686, Note_off_c, 0, 55, 61
1, 56734, Note_on_c, 0, 51, 61
1, 56761, Note_off_c, 0, 51, 65
1, 56795, Note_on_c, 0, 50, 89
1, 56802, Note_on_c, 0, 47, 79
1, 56803, Note_on_c, 0, 59, 70
1, 56811, Note_on_c, 0, 54, 58
1, 56819, Note_off_c, 0, 50, 69
1, 56825, Note_off_c, 0, 47, 68
1, 56833, Note_off_c, 0, 59, 62
1, 56837, Note_off_c, 0, 54, 65
1, 56953, Note_on_c, 0, 50, 59
1, 56988, Note_off_c, 0, 50, 67
1, 57053, Note_on_c, 0, 50, 68
1, 57110, Note_off_c, 0, 50, 0
1, 57127, Note_on_c, 0, 50, 59
1, 57137, Note_on_c, 0, 47, 66
1, 57155, Note_on_c, 0, 54, 59
1, 57158, Note_off_c, 0, 50, 65
1, 57164, Note_off_c, 0, 47, 66
1, 57169, Note_on_c, 0, 59, 51
1, 57188, Note_off_c, 0, 54, 64
1, 57200, Note_off_c, 0, 59, 64
1, 57213, Note_on_c, 0, 50, 68
1, 57259, Note_off_c, 0, 50, 64
1, 57301, Note_on_c, 0, 41, 72
1, 57302, Note_on_c, 0, 60, 63
1, 57310, Note_on_c, 0, 51, 61
1, 57316, Note_on_c, 0, 55, 51
1, 57328, Note_off_c, 0, 41, 64
1, 57333, Note_off_c, 0, 60, 65
1, 57335, Note_off_c, 0, 51, 64
1, 57347, Note_off_c, 0, 55, 64
1, 57383, Note_on_c, 0, 51, 64
1, 57418, Note_off_c, 0, 51, 64
1, 57453, Note_on_c, 0, 50, 78
1, 57457, Note_on_c, 0, 47, 77
1, 57460, Note_on_c, 0, 54, 70
1, 57476, Note_on_c, 0, 59, 59
1, 57483, Note_off_c, 0, 50, 67
1, 57486, Note_off_c, 0, 47, 67
1, 57494, Note_off_c, 0, 54, 65
1, 57512, Note_off_c, 0, 59, 64
1, 57542, Note_on_c, 0, 50, 62
1, 57569, Note_off_c, 0, 50, 68
1, 57610, Note_on_c, 0, 41, 74
1, 57623, Note_on_c, 0, 60, 59
1, 57626, Note_on_c, 0, 51, 52
1, 57632, Note_on_c, 0, 55, 53
1, 57638, Note_off_c, 0, 41, 63
1, 57643, Note_off_c, 0, 60, 66
1, 57656, Note_off_c, 0, 55, 62
1, 57680, Note_off_c, 0, 51, 0
1, 57699, Note_on_c, 0, 51, 36
1, 57729, Note_off_c, 0, 51, 54
1, 57766, Control_c, 0, 67, 102
1, 57776, Note_on_c, 0, 48, 58
1, 57778, Note_on_c, 0, 45, 62
1, 57781, Note_on_c, 0, 57, 59
1, 57781, Control_c, 0, 67, 58
1, 57796, Control_c, 0, 67, 0
1, 57799, Note_on_c, 0, 52, 42
1, 57802, Note_off_c, 0, 48, 57
1, 57803, Note_off_c, 0, 45, 60
1, 57820, Note_off_c, 0, 57, 65
1, 57835, Note_off_c, 0, 52, 54
1, 57894, Note_on_c, 0, 48, 34
1, 57926, Note_on_c, 0, 39, 65
1, 57932, Note_off_c, 0, 48, 44
1, 57941, Note_on_c, 0, 49, 50
1, 57941, Note_on_c, 0, 58, 56
1, 57954, Note_off_c, 0, 39, 58
1, 57970, Note_off_c, 0, 58, 65
1, 57992, Note_off_c, 0, 49, 0
1, 58006, Note_on_c, 0, 49, 57
1, 58011, Control_c, 0, 67, 10
1, 58026, Control_c, 0, 67, 62
1, 58041, Note_off_c, 0, 49, 63
1, 58041, Control_c, 0, 67, 78
1, 58056, Control_c, 0, 67, 58
1, 58071, Control_c, 0, 67, 30
1, 58085, Control_c, 0, 67, 0
1, 58091, Note_on_c, 0, 55, 79
1, 58095, Note_on_c, 0, 46, 76
1, 58096, Note_on_c, 0, 43, 73
1, 58103, Note_on_c, 0, 50, 58
1, 58119, Note_off_c, 0, 46, 65
1, 58123, Note_off_c, 0, 43, 65
1, 58131, Note_off_c, 0, 50, 67
1, 58137, Note_off_c, 0, 55, 64
1, 58160, Control_c, 0, 64, 62
1, 58171, Note_on_c, 0, 46, 63
1, 58175, Control_c, 0, 64, 69
1, 58175, Control_c, 0, 67, 26
1, 58189, Control_c, 0, 64, 74
1, 58189, Control_c, 0, 67, 52
1, 58201, Note_off_c, 0, 46, 57
1, 58204, Control_c, 0, 64, 84
1, 58204, Control_c, 0, 67, 68
1, 58219, Control_c, 0, 64, 91
1, 58219, Control_c, 0, 67, 72
1, 58234, Control_c, 0, 64, 95
1, 58234, Control_c, 0, 67, 73
1, 58249, Control_c, 0, 64, 96
1, 58249, Control_c, 0, 67, 72
1, 58263, Note_on_c, 0, 46, 80
1, 58264, Control_c, 0, 64, 95
1, 58264, Control_c, 0, 67, 68
1, 58278, Control_c, 0, 64, 92
1, 58278, Control_c, 0, 67, 67
1, 58290, Note_off_c, 0, 46, 62
1, 58293, Control_c, 0, 64, 85
1, 58308, Control_c, 0, 64, 75
1, 58308, Control_c, 0, 67, 68
1, 58322, Control_c, 0, 64, 65
1, 58322, Control_c, 0, 67, 72
1, 58337, Control_c, 0, 64, 32
1, 58337, Control_c, 0, 67, 73
1, 58341, Note_on_c, 0, 46, 69
1, 58352, Control_c, 0, 64, 0
1, 58367, Control_c, 0, 67, 72
1, 58382, Control_c, 0, 67, 73
1, 58384, Note_off_c, 0, 46, 55
1, 58396, Control_c, 0, 67, 81
1, 58411, Control_c, 0, 67, 113
1, 58426, Control_c, 0, 67, 127
1, 58431, Note_on_c, 0, 50, 59
1, 58436, Note_on_c, 0, 55, 44
1, 58441, Note_on_c, 0, 46, 55
1, 58449, Note_on_c, 0, 43, 43
1, 58466, Note_off_c, 0, 50, 65
1, 58466, Note_off_c, 0, 55, 60
1, 58479, Note_off_c, 0, 43, 52
1, 58505, Note_off_c, 0, 46, 0
1, 58524, Note_on_c, 0, 46, 28
1, 58553, Note_off_c, 0, 46, 55
1, 58598, Note_on_c, 0, 47, 73
1, 58601, Note_on_c, 0, 37, 74
1, 58601, Note_on_c, 0, 51, 59
1, 58601, Note_on_c, 0, 56, 57
1, 58625, Note_off_c, 0, 47, 66
1, 58633, Note_off_c, 0, 37, 63
1, 58638, Note_off_c, 0, 51, 61
1, 58641, Note_off_c, 0, 56, 62
1, 58696, Note_on_c, 0, 47, 47
1, 58724, Note_off_c, 0, 47, 55
1, 58757, Note_on_c, 0, 43, 80
1, 58759, Note_on_c, 0, 46, 75
1, 58759, Note_on_c, 0, 55, 59
1, 58763, Note_on_c, 0, 50, 63
1, 58783, Note_off_c, 0, 46, 65
1, 58785, Note_off_c, 0, 43, 65
1, 58794, Note_off_c, 0, 55, 63
1, 58802, Note_off_c, 0, 50, 66
1, 58835, Note_on_c, 0, 46, 60
1, 58860, Note_off_c, 0, 46, 61
1, 58921, Note_on_c, 0, 46, 78
1, 58946, Note_off_c, 0, 46, 64
1, 58995, Note_on_c, 0, 46, 77
1, 59045, Note_off_c, 0, 46, 54
1, 59082, Note_on_c, 0, 46, 58
1, 59089, Note_on_c, 0, 50, 62
1, 59092, Note_on_c, 0, 43, 60
1, 59097, Note_on_c, 0, 55, 50
1, 59106, Note_off_c, 0, 46, 63
1, 59117, Note_off_c, 0, 43, 60
1, 59129, Note_off_c, 0, 50, 67
1, 59132, Note_off_c, 0, 55, 64
1, 59188, Note_on_c, 0, 46, 48
1, 59215, Note_off_c, 0, 46, 54
1, 59244, Note_on_c, 0, 47, 62
1, 59245, Note_on_c, 0, 37, 65
1, 59253, Note_on_c, 0, 56, 47
1, 59254, Note_on_c, 0, 51, 51
1, 59266, Note_off_c, 0, 47, 60
1, 59270, Note_off_c, 0, 37, 60
1, 59288, Note_off_c, 0, 56, 63
1, 59289, Note_off_c, 0, 51, 63
1, 59347, Note_on_c, 0, 47, 57
1, 59375, Note_off_c, 0, 47, 65
1, 59412, Note_on_c, 0, 46, 90
1, 59416, Note_on_c, 0, 43, 80
1, 59418, Note_on_c, 0, 55, 66
1, 59421, Note_on_c, 0, 50, 63
1, 59436, Note_off_c, 0, 46, 66
1, 59439, Note_off_c, 0, 43, 66
1, 59452, Note_off_c, 0, 55, 65
1, 59461, Note_off_c, 0, 50, 63
1, 59487, Note_on_c, 0, 46, 76
1, 59520, Note_off_c, 0, 46, 65
1, 59585, Note_on_c, 0, 46, 71
1, 59611, Note_off_c, 0, 46, 65
1, 59660, Note_on_c, 0, 46, 59
1, 59689, Note_off_c, 0, 46, 61
1, 59743, Note_on_c, 0, 46, 56
1, 59746, Note_on_c, 0, 50, 60
1, 59751, Note_on_c, 0, 55, 52
1, 59752, Note_on_c, 0, 43, 48
1, 59768, Note_off_c, 0, 46, 61
1, 59784, Note_off_c, 0, 43, 53
1, 59784, Note_off_c, 0, 50, 66
1, 59784, Note_off_c, 0, 55, 64
1, 59826, Note_on_c, 0, 46, 48
1, 59855, Note_off_c, 0, 46, 59
1, 59913, Note_on_c, 0, 47, 64
1, 59914, Note_on_c, 0, 37, 68
1, 59916, Note_on_c, 0, 51, 52
1, 59916, Note_on_c, 0, 56, 52
1, 59937, Note_off_c, 0, 47, 63
1, 59949, Note_off_c, 0, 37, 64
1, 59951, Note_off_c, 0, 56, 63
1, 59951, Note_off_c, 0, 51, 63
1, 59996, Note_on_c, 0, 47, 52
1, 60020, Note_off_c, 0, 47, 61
1, 60071, Note_on_c, 0, 54, 69
1, 60085, Note_on_c, 0, 43, 69
1, 60089, Note_on_c, 0, 46, 64
1, 60108, Note_off_c, 0, 54, 67
1, 60110, Note_on_c, 0, 50, 36
1, 60112, Note_off_c, 0, 43, 65
1, 60126, Note_off_c, 0, 46, 63
1, 60148, Note_off_c, 0, 50, 56
1, 60167, Note_on_c, 0, 46, 48
1, 60200, Note_off_c, 0, 46, 62
1, 60234, Note_on_c, 0, 47, 75
1, 60238, Note_on_c, 0, 37, 80
1, 60240, Note_on_c, 0, 51, 63
1, 60244, Note_on_c, 0, 56, 58
1, 60260, Note_off_c, 0, 47, 64
1, 60278, Note_off_c, 0, 51, 63
1, 60279, Note_off_c, 0, 56, 63
1, 60281, Note_off_c, 0, 37, 61
1, 60319, Note_on_c, 0, 47, 60
1, 60343, Note_off_c, 0, 47, 62
1, 60362, Control_c, 0, 67, 115
1, 60377, Control_c, 0, 67, 113
1, 60391, Control_c, 0, 67, 120
1, 60398, Note_on_c, 0, 49, 32
1, 60401, Note_on_c, 0, 44, 66
1, 60402, Note_on_c, 0, 53, 55
1, 60403, Note_on_c, 0, 41, 57
1, 60406, Control_c, 0, 67, 127
1, 60424, Note_on_c, 0, 48, 37
1, 60431, Note_off_c, 0, 53, 65
1, 60432, Note_off_c, 0, 41, 57
1, 60432, Note_off_c, 0, 44, 63
1, 60438, Note_off_c, 0, 49, 53
1, 60459, Note_off_c, 0, 48, 46
1, 60476, Note_on_c, 0, 44, 61
1, 60515, Note_off_c, 0, 44, 63
1, 60556, Note_on_c, 0, 35, 63
1, 60556, Note_on_c, 0, 45, 56
1, 60570, Note_on_c, 0, 49, 25
1, 60572, Note_on_c, 0, 54, 40
1, 60581, Note_off_c, 0, 45, 59
1, 60592, Note_off_c, 0, 35, 63
1, 60602, Note_off_c, 0, 54, 59
1, 60607, Note_off_c, 0, 49, 46
1, 60717, Note_on_c, 0, 51, 58
1, 60725, Note_on_c, 0, 39, 40
1, 60732, Control_c, 0, 64, 44
1, 60747, Control_c, 0, 64, 69
1, 60752, Note_off_c, 0, 51, 65
1, 60762, Note_off_c, 0, 39, 53
1, 60762, Control_c, 0, 64, 79
1, 60777, Control_c, 0, 64, 99
1, 60791, Control_c, 0, 64, 127
1, 60792, Note_on_c, 0, 42, 61
1, 60844, Note_off_c, 0, 42, 58
1, 60888, Note_on_c, 0, 46, 67
1, 60942, Note_on_c, 0, 49, 62
1, 60957, Note_off_c, 0, 46, 62
1, 60968, Note_off_c, 0, 49, 65
1, 61029, Note_on_c, 0, 51, 72
1, 61054, Note_off_c, 0, 51, 65
1, 61104, Note_on_c, 0, 54, 61
1, 61129, Poly_aftertouch_c, 0, 51, 0
1, 61156, Note_off_c, 0, 54, 57
1, 61186, Note_on_c, 0, 58, 72
1, 61212, Note_off_c, 0, 58, 64
1, 61275, Note_on_c, 0, 61, 58
1, 61284, Note_on_c, 0, 58, 54
1, 61305, Note_off_c, 0, 61, 64
1, 61310, Note_off_c, 0, 58, 59
1, 61347, Note_on_c, 0, 58, 60
1, 61400, Note_off_c, 0, 58, 0
1, 61403, Note_on_c, 0, 61, 63
1, 61417, Note_on_c, 0, 58, 37
1, 61439, Note_off_c, 0, 58, 64
1, 61459, Note_off_c, 0, 61, 54
1, 61490, Note_on_c, 0, 63, 76
1, 61514, Note_off_c, 0, 63, 66
1, 61561, Note_on_c, 0, 63, 55
1, 61576, Note_on_c, 0, 66, 55
1, 61590, Note_off_c, 0, 63, 65
1, 61600, Note_off_c, 0, 66, 60
1, 61657, Note_on_c, 0, 70, 73
1, 61718, Note_on_c, 0, 73, 57
1, 61740, Note_off_c, 0, 70, 36
1, 61755, Note_off_c, 0, 73, 62
1, 61809, Note_on_c, 0, 75, 63
1, 61880, Note_on_c, 0, 78, 50
1, 61919, Control_c, 0, 64, 100
1, 61920, Note_off_c, 0, 78, 61
1, 61922, Note_off_c, 0, 75, 54
1, 61934, Control_c, 0, 64, 75
1, 61949, Control_c, 0, 64, 61
1, 61955, Note_on_c, 0, 82, 98
1, 61964, Control_c, 0, 64, 66
1, 61979, Control_c, 0, 64, 78
1, 61993, Control_c, 0, 64, 111
1, 62008, Control_c, 0, 64, 127
1, 62023, Note_off_c, 0, 82, 63
1, 62032, Note_on_c, 0, 78, 66
1, 62033, Note_on_c, 0, 75, 59
1, 62090, Note_off_c, 0, 78, 54
1, 62092, Note_off_c, 0, 75, 48
1, 62115, Note_on_c, 0, 75, 69
1, 62146, Note_off_c, 0, 75, 62
1, 62180, Note_on_c, 0, 70, 64
1, 62181, Note_on_c, 0, 73, 54
1, 62203, Note_off_c, 0, 73, 63
1, 62205, Note_off_c, 0, 70, 67
1, 62280, Note_on_c, 0, 70, 70
1, 62336, Note_off_c, 0, 70, 59
1, 62364, Note_on_c, 0, 66, 55
1, 62392, Note_on_c, 0, 63, 32
1, 62411, Note_off_c, 0, 66, 52
1, 62429, Note_off_c, 0, 63, 0
1, 62447, Note_on_c, 0, 63, 60
1, 62477, Note_off_c, 0, 63, 65
1, 62531, Note_on_c, 0, 58, 56
1, 62576, Note_off_c, 0, 58, 55
1, 62583, Poly_aftertouch_c, 0, 61, 127
1, 62616, Note_on_c, 0, 58, 54
1, 62618, Note_on_c, 0, 51, 57
1, 62634, Poly_aftertouch_c, 0, 61, 0
1, 62646, Note_off_c, 0, 51, 66
1, 62716, Note_off_c, 0, 58, 28
1, 62719, Note_on_c, 0, 61, 35
1, 62763, Note_off_c, 0, 61, 51
1, 62789, Note_on_c, 0, 63, 54
1, 62846, Note_on_c, 0, 66, 41
1, 62847, Note_off_c, 0, 63, 61
1, 62876, Note_off_c, 0, 66, 55
1, 62932, Note_on_c, 0, 70, 70
1, 62965, Note_off_c, 0, 70, 0
1, 63019, Note_on_c, 0, 73, 49
1, 63022, Poly_aftertouch_c, 0, 70, 0
1, 63051, Note_off_c, 0, 73, 58
1, 63110, Note_on_c, 0, 75, 62
1, 63141, Note_off_c, 0, 75, 62
1, 63195, Note_on_c, 0, 78, 52
1, 63197, Note_on_c, 0, 75, 42
1, 63233, Note_off_c, 0, 78, 60
1, 63236, Note_off_c, 0, 75, 60
1, 63266, Note_on_c, 0, 82, 94
1, 63325, Note_off_c, 0, 82, 62
1, 63353, Note_on_c, 0, 78, 67
1, 63362, Note_on_c, 0, 75, 57
1, 63395, Note_off_c, 0, 75, 60
1, 63409, Note_off_c, 0, 78, 58
1, 63424, Note_on_c, 0, 75, 75
1, 63456, Note_off_c, 0, 75, 62
1, 63493, Note_on_c, 0, 70, 62
1, 63502, Note_on_c, 0, 73, 45
1, 63518, Note_off_c, 0, 70, 66
1, 63529, Note_off_c, 0, 73, 57
1, 63590, Note_on_c, 0, 70, 69
1, 63624, Note_off_c, 0, 70, 61
1, 63658, Note_on_c, 0, 66, 56
1, 63661, Note_on_c, 0, 63, 53
1, 63693, Note_off_c, 0, 63, 63
1, 63697, Note_off_c, 0, 66, 57
1, 63753, Note_on_c, 0, 63, 66
1, 63787, Note_off_c, 0, 63, 60
1, 63824, Note_on_c, 0, 58, 61
1, 63827, Note_on_c, 0, 61, 47
1, 63872, Note_off_c, 0, 61, 56
1, 63885, Note_off_c, 0, 58, 0
1, 63903, Note_on_c, 0, 58, 44
1, 63907, Note_on_c, 0, 51, 66
1, 63948, Note_off_c, 0, 51, 60
1, 64005, Note_on_c, 0, 61, 43
1, 64028, Note_off_c, 0, 58, 60
1, 64047, Note_off_c, 0, 61, 57
1, 64082, Note_on_c, 0, 63, 59
1, 64139, Note_off_c, 0, 63, 62
1, 64222, Poly_aftertouch_c, 0, 66, 0
1, 64228, Note_on_c, 0, 70, 73
1, 64256, Note_off_c, 0, 70, 0
1, 64283, Control_c, 0, 67, 122
1, 64298, Control_c, 0, 67, 98
1, 64301, Note_on_c, 0, 73, 54
1, 64313, Control_c, 0, 67, 64
1, 64321, Poly_aftertouch_c, 0, 70, 0
1, 64328, Control_c, 0, 67, 40
1, 64343, Control_c, 0, 67, 21
1, 64344, Note_off_c, 0, 73, 61
1, 64357, Control_c, 0, 67, 0
1, 64376, Note_on_c, 0, 75, 69
1, 64404, Note_off_c, 0, 75, 60
1, 64417, Control_c, 0, 67, 13
1, 64432, Control_c, 0, 67, 34
1, 64447, Control_c, 0, 67, 78
1, 64462, Control_c, 0, 67, 119
1, 64475, Note_on_c, 0, 78, 55
1, 64476, Control_c, 0, 67, 127
1, 64494, Note_on_c, 0, 75, 34
1, 64510, Note_off_c, 0, 78, 61
1, 64523, Note_off_c, 0, 75, 55
1, 64546, Note_on_c, 0, 75, 61
1, 64632, Note_on_c, 0, 78, 55
1, 64671, Note_off_c, 0, 78, 58
1, 64674, Note_off_c, 0, 75, 58
1, 64725, Note_on_c, 0, 75, 48
1, 64770, Note_off_c, 0, 75, 48
1, 64785, Note_on_c, 0, 70, 50
1, 64785, Note_on_c, 0, 73, 54
1, 64819, Note_off_c, 0, 70, 60
1, 64822, Note_off_c, 0, 73, 61
1, 64860, Note_on_c, 0, 82, 95
1, 64869, Control_c, 0, 67, 123
1, 64883, Control_c, 0, 67, 100
1, 64898, Control_c, 0, 67, 69
1, 64914, Control_c, 0, 67, 38
1, 64919, Note_on_c, 0, 73, 59
1, 64927, Note_on_c, 0, 70, 43
1, 64929, Control_c, 0, 67, 26
1, 64931, Note_off_c, 0, 82, 57
1, 64958, Control_c, 0, 67, 35
1, 64968, Note_off_c, 0, 70, 59
1, 64973, Control_c, 0, 67, 46
1, 64985, Note_off_c, 0, 73, 57
1, 64988, Control_c, 0, 67, 72
1, 65003, Control_c, 0, 67, 112
1, 65018, Control_c, 0, 67, 127
1, 65031, Note_on_c, 0, 75, 75
1, 65072, Note_on_c, 0, 78, 56
1, 65120, Note_off_c, 0, 78, 55
1, 65132, Note_off_c, 0, 75, 52
1, 65181, Control_c, 0, 64, 89
1, 65188, Note_on_c, 0, 82, 93
1, 65196, Control_c, 0, 64, 67
1, 65211, Control_c, 0, 64, 55
1, 65226, Control_c, 0, 64, 66
1, 65241, Note_off_c, 0, 82, 66
1, 65241, Control_c, 0, 64, 81
1, 65248, Note_on_c, 0, 75, 62
1, 65255, Note_on_c, 0, 78, 56
1, 65255, Control_c, 0, 64, 108
1, 65270, Control_c, 0, 64, 127
1, 65296, Note_off_c, 0, 78, 54
1, 65318, Note_off_c, 0, 75, 58
1, 65365, Note_on_c, 0, 75, 64
1, 65412, Note_off_c, 0, 75, 53
1, 65422, Note_on_c, 0, 73, 59
1, 65434, Note_on_c, 0, 70, 49
1, 65472, Note_off_c, 0, 70, 60
1, 65478, Note_off_c, 0, 73, 50
1, 65541, Note_on_c, 0, 63, 60
1, 65556, Note_on_c, 0, 70, 49
1, 65571, Note_off_c, 0, 63, 66
1, 65606, Note_on_c, 0, 73, 56
1, 65645, Note_off_c, 0, 73, 59
1, 65652, Note_off_c, 0, 70, 58
1, 65707, Note_on_c, 0, 75, 58
1, 65773, Note_on_c, 0, 78, 51
1, 65806, Note_off_c, 0, 78, 60
1, 65812, Note_off_c, 0, 75, 61
1, 65839, Control_c, 0, 64, 84
1, 65854, Control_c, 0, 64, 56
1, 65856, Note_on_c, 0, 80, 80
1, 65869, Control_c, 0, 64, 0
1, 65884, Control_c, 0, 64, 57
1, 65899, Control_c, 0, 64, 73
1, 65913, Note_off_c, 0, 80, 56
1, 65913, Control_c, 0, 64, 102
1, 65927, Note_on_c, 0, 75, 55
1, 65929, Note_on_c, 0, 78, 51
1, 65929, Control_c, 0, 64, 127
1, 65969, Note_off_c, 0, 78, 59
1, 65973, Note_off_c, 0, 75, 53
1, 66017, Note_on_c, 0, 75, 70
1, 66059, Note_off_c, 0, 75, 61
1, 66097, Note_on_c, 0, 68, 57
1, 66099, Note_on_c, 0, 72, 50
1, 66138, Note_off_c, 0, 68, 56
1, 66152, Note_off_c, 0, 72, 48
1, 66178, Note_on_c, 0, 63, 70
1, 66179, Note_on_c, 0, 68, 47
1, 66203, Note_off_c, 0, 63, 68
1, 66205, Note_off_c, 0, 68, 63
1, 66270, Note_on_c, 0, 72, 56
1, 66303, Note_off_c, 0, 72, 63
1, 66351, Note_on_c, 0, 75, 55
1, 66372, Note_off_c, 0, 75, 63
1, 66426, Note_on_c, 0, 78, 51
1, 66441, Note_on_c, 0, 75, 48
1, 66462, Note_off_c, 0, 78, 52
1, 66468, Note_off_c, 0, 75, 63
1, 66507, Note_on_c, 0, 75, 68
1, 66575, Note_on_c, 0, 78, 46
1, 66617, Note_off_c, 0, 75, 58
1, 66618, Note_off_c, 0, 78, 55
1, 66664, Note_on_c, 0, 75, 52
1, 66704, Note_off_c, 0, 75, 58
1, 66734, Note_on_c, 0, 68, 51
1, 66739, Note_on_c, 0, 72, 50
1, 66773, Note_off_c, 0, 72, 60
1, 66775, Note_off_c, 0, 68, 57
1, 66828, Note_on_c, 0, 82, 89
1, 66888, Note_off_c, 0, 82, 64
1, 66915, Note_on_c, 0, 78, 49
1, 66922, Note_on_c, 0, 75, 44
1, 66960, Note_off_c, 0, 75, 61
1, 66960, Note_off_c, 0, 78, 52
1, 67004, Note_on_c, 0, 75, 72
1, 67050, Note_off_c, 0, 75, 61
1, 67056, Note_on_c, 0, 70, 53
1, 67075, Note_on_c, 0, 72, 12
1, 67082, Note_off_c, 0, 70, 66
1, 67118, Note_off_c, 0, 72, 52
1, 67151, Note_on_c, 0, 75, 92
1, 67210, Note_on_c, 0, 72, 56
1, 67217, Note_off_c, 0, 75, 59
1, 67221, Note_on_c, 0, 68, 60
1, 67275, Note_off_c, 0, 72, 58
1, 67301, Note_off_c, 0, 68, 57
1, 67321, Note_on_c, 0, 68, 72
1, 67376, Note_off_c, 0, 68, 61
1, 67399, Note_on_c, 0, 63, 55
1, 67401, Note_on_c, 0, 66, 54
1, 67431, Note_off_c, 0, 63, 64
1, 67444, Note_off_c, 0, 66, 57
1, 67477, Note_on_c, 0, 77, 106
1, 67556, Note_on_c, 0, 72, 57
1, 67562, Note_off_c, 0, 77, 57
1, 67597, Note_on_c, 0, 68, 25
1, 67609, Note_off_c, 0, 72, 51
1, 67635, Note_off_c, 0, 68, 50
1, 67661, Note_on_c, 0, 70, 70
1, 67719, Note_on_c, 0, 65, 61
1, 67729, Note_on_c, 0, 66, 32
1, 67738, Note_off_c, 0, 70, 61
1, 67761, Note_off_c, 0, 66, 53
1, 67761, Note_off_c, 0, 65, 59
1, 67774, Control_c, 0, 64, 91
1, 67789, Control_c, 0, 64, 61
1, 67804, Control_c, 0, 64, 0
1, 67819, Control_c, 0, 64, 54
1, 67822, Note_on_c, 0, 82, 95
1, 67833, Control_c, 0, 64, 72
1, 67848, Control_c, 0, 64, 95
1, 67863, Control_c, 0, 64, 127
1, 67871, Note_on_c, 0, 75, 49
1, 67880, Note_off_c, 0, 82, 64
1, 67905, Note_on_c, 0, 78, 53
1, 67949, Note_off_c, 0, 78, 57
1, 67967, Note_off_c, 0, 75, 37
1, 67987, Note_on_c, 0, 75, 72
1, 68028, Note_off_c, 0, 75, 57
1, 68054, Note_on_c, 0, 68, 50
1, 68077, Note_on_c, 0, 72, 35
1, 68092, Note_off_c, 0, 68, 57
1, 68107, Note_off_c, 0, 72, 54
1, 68160, Note_on_c, 0, 63, 62
1, 68160, Note_on_c, 0, 70, 66
1, 68186, Note_off_c, 0, 63, 57
1, 68186, Note_off_c, 0, 70, 66
1, 68217, Note_on_c, 0, 72, 47
1, 68247, Note_on_c, 0, 68, 23
1, 68264, Note_off_c, 0, 72, 55
1, 68281, Note_off_c, 0, 68, 51
1, 68349, Note_on_c, 0, 75, 60
1, 68384, Note_on_c, 0, 78, 52
1, 68420, Note_off_c, 0, 78, 62
1, 68437, Note_off_c, 0, 75, 56
1, 68464, Control_c, 0, 64, 100
1, 68479, Control_c, 0, 64, 69
1, 68490, Note_on_c, 0, 80, 78
1, 68494, Control_c, 0, 64, 0
1, 68509, Control_c, 0, 64, 55
1, 68524, Control_c, 0, 64, 69
1, 68536, Note_off_c, 0, 80, 59
1, 68538, Control_c, 0, 64, 84
1, 68553, Control_c, 0, 64, 127
1, 68558, Note_on_c, 0, 75, 48
1, 68565, Note_on_c, 0, 78, 43
1, 68602, Note_off_c, 0, 75, 57
1, 68604, Note_off_c, 0, 78, 49
1, 68650, Note_on_c, 0, 75, 59
1, 68680, Note_off_c, 0, 75, 62
1, 68709, Note_on_c, 0, 68, 58
1, 68720, Note_on_c, 0, 72, 43
1, 68745, Note_off_c, 0, 68, 57
1, 68758, Note_off_c, 0, 72, 63
1, 68805, Note_on_c, 0, 68, 51
1, 68806, Note_on_c, 0, 63, 50
1, 68832, Note_off_c, 0, 63, 59
1, 68866, Note_off_c, 0, 68, 0
1, 68870, Note_on_c, 0, 72, 53
1, 68888, Note_on_c, 0, 68, 27
1, 68918, Note_off_c, 0, 72, 52
1, 68921, Note_off_c, 0, 68, 55
1, 68963, Note_on_c, 0, 75, 60
1, 68983, Note_off_c, 0, 75, 64
1, 69039, Note_on_c, 0, 78, 55
1, 69082, Note_off_c, 0, 78, 60
1, 69108, Note_on_c, 0, 75, 49
1, 69201, Note_on_c, 0, 78, 45
1, 69231, Note_off_c, 0, 78, 53
1, 69246, Note_off_c, 0, 75, 60
1, 69276, Note_on_c, 0, 75, 53
1, 69324, Note_off_c, 0, 75, 53
1, 69361, Note_on_c, 0, 68, 50
1, 69365, Note_on_c, 0, 72, 47
1, 69400, Note_off_c, 0, 68, 59
1, 69401, Note_off_c, 0, 72, 63
1, 69433, Note_on_c, 0, 82, 75
1, 69487, Note_off_c, 0, 82, 63
1, 69529, Note_on_c, 0, 78, 47
1, 69538, Note_on_c, 0, 75, 41
1, 69569, Note_off_c, 0, 75, 0
1, 69572, Note_off_c, 0, 78, 50
1, 69588, Note_on_c, 0, 75, 55
1, 69641, Note_off_c, 0, 75, 62
1, 69652, Note_on_c, 0, 70, 57
1, 69679, Note_off_c, 0, 70, 66
1, 69708, Poly_aftertouch_c, 0, 72, 127
1, 69737, Note_on_c, 0, 75, 80
1, 69744, Poly_aftertouch_c, 0, 72, 0
1, 69812, Note_off_c, 0, 75, 58
1, 69827, Note_on_c, 0, 68, 58
1, 69827, Note_on_c, 0, 72, 51
1, 69867, Note_off_c, 0, 72, 62
1, 69894, Note_off_c, 0, 68, 0
1, 69905, Note_on_c, 0, 68, 69
1, 69965, Note_off_c, 0, 68, 61
1, 69994, Note_on_c, 0, 63, 62
1, 69994, Note_on_c, 0, 66, 63
1, 70019, Note_off_c, 0, 63, 59
1, 70060, Note_off_c, 0, 66, 55
1, 70063, Note_on_c, 0, 77, 96
1, 70098, Note_on_c, 0, 76, 47
1, 70125, Note_off_c, 0, 76, 38
1, 70149, Note_on_c, 0, 72, 64
1, 70164, Note_off_c, 0, 77, 54
1, 70184, Note_on_c, 0, 68, 26
1, 70215, Note_off_c, 0, 72, 57
1, 70218, Note_off_c, 0, 68, 52
1, 70224, Note_on_c, 0, 70, 83
1, 70279, Note_on_c, 0, 66, 59
1, 70298, Note_on_c, 0, 65, 66
1, 70309, Note_off_c, 0, 66, 64
1, 70311, Note_off_c, 0, 70, 58
1, 70346, Note_off_c, 0, 65, 60
1, 70347, Control_c, 0, 64, 104
1, 70362, Control_c, 0, 64, 74
1, 70376, Note_on_c, 0, 80, 99
1, 70376, Control_c, 0, 64, 58
1, 70391, Control_c, 0, 64, 66
1, 70406, Control_c, 0, 64, 76
1, 70409, Note_off_c, 0, 80, 66
1, 70420, Control_c, 0, 64, 95
1, 70435, Control_c, 0, 64, 127
1, 70451, Note_on_c, 0, 76, 59
1, 70489, Note_on_c, 0, 73, 27
1, 70491, Note_off_c, 0, 76, 58
1, 70530, Note_off_c, 0, 73, 51
1, 70534, Note_on_c, 0, 61, 84
1, 70541, Note_on_c, 0, 68, 71
1, 70566, Note_off_c, 0, 61, 67
1, 70620, Note_off_c, 0, 68, 54
1, 70635, Poly_aftertouch_c, 0, 71, 127
1, 70672, Poly_aftertouch_c, 0, 71, 0
1, 70736, Note_on_c, 0, 87, 95
1, 70788, Note_off_c, 0, 87, 64
1, 70791, Note_on_c, 0, 83, 55
1, 70833, Note_off_c, 0, 83, 58
1, 70837, Poly_aftertouch_c, 0, 80, 127
1, 70874, Note_on_c, 0, 80, 55
1, 70926, Note_off_c, 0, 80, 63
1, 70931, Note_on_c, 0, 75, 56
1, 70969, Note_off_c, 0, 75, 59
1, 71030, Note_on_c, 0, 85, 97
1, 71083, Note_on_c, 0, 80, 49
1, 71086, Note_on_c, 0, 83, 62
1, 71086, Note_off_c, 0, 85, 61
1, 71130, Note_off_c, 0, 83, 54
1, 71158, Note_off_c, 0, 80, 60
1, 71197, Note_on_c, 0, 80, 75
1, 71244, Note_off_c, 0, 80, 62
1, 71260, Note_on_c, 0, 73, 47
1, 71326, Note_off_c, 0, 73, 57
1, 71359, Note_on_c, 0, 82, 101
1, 71436, Note_off_c, 0, 82, 59
1, 71445, Note_on_c, 0, 80, 57
1, 71450, Note_on_c, 0, 76, 50
1, 71510, Note_off_c, 0, 80, 52
1, 71576, Note_off_c, 0, 76, 63
1, 71589, Note_on_c, 0, 73, 60
1, 71595, Note_on_c, 0, 70, 60
1, 71625, Note_off_c, 0, 73, 60
1, 71641, Note_off_c, 0, 70, 59
1, 71653, Control_c, 0, 64, 115
1, 71667, Control_c, 0, 64, 79
1, 71679, Note_on_c, 0, 80, 92
1, 71682, Control_c, 0, 64, 58
1, 71697, Control_c, 0, 64, 58
1, 71712, Control_c, 0, 64, 70
1, 71727, Control_c, 0, 64, 85
1, 71740, Note_off_c, 0, 80, 61
1, 71741, Control_c, 0, 64, 127
1, 71750, Note_on_c, 0, 73, 48
1, 71760, Note_on_c, 0, 76, 62
1, 71798, Note_off_c, 0, 76, 56
1, 71825, Note_off_c, 0, 73, 0
1, 71838, Note_on_c, 0, 73, 69
1, 71868, Note_off_c, 0, 73, 65
1, 71923, Note_on_c, 0, 68, 56
1, 71939, Note_on_c, 0, 71, 47
1, 71957, Note_off_c, 0, 68, 61
1, 71980, Note_off_c, 0, 71, 62
1, 71997, Note_on_c, 0, 61, 70
1, 72018, Note_off_c, 0, 61, 65
1, 72023, Note_on_c, 0, 68, 36
1, 72082, Note_on_c, 0, 71, 57
1, 72096, Note_off_c, 0, 68, 0
1, 72096, Note_on_c, 0, 68, 10
1, 72117, Note_off_c, 0, 71, 61
1, 72140, Note_off_c, 0, 68, 50
1, 72175, Note_on_c, 0, 73, 64
1, 72242, Note_on_c, 0, 76, 58
1, 72286, Note_off_c, 0, 73, 56
1, 72292, Note_off_c, 0, 76, 58
1, 72297, Control_c, 0, 64, 89
1, 72312, Control_c, 0, 64, 70
1, 72328, Control_c, 0, 64, 63
1, 72330, Note_on_c, 0, 78, 74
1, 72343, Control_c, 0, 64, 67
1, 72358, Control_c, 0, 64, 75
1, 72372, Control_c, 0, 64, 92
1, 72383, Note_off_c, 0, 78, 57
1, 72387, Control_c, 0, 64, 127
1, 72394, Note_on_c, 0, 73, 52
1, 72400, Note_on_c, 0, 76, 52
1, 72436, Note_off_c, 0, 76, 60
1, 72437, Note_off_c, 0, 73, 58
1, 72495, Note_on_c, 0, 73, 67
1, 72524, Note_off_c, 0, 73, 64
1, 72548, Note_on_c, 0, 66, 60
1, 72589, Note_off_c, 0, 66, 55
1, 72597, Note_on_c, 0, 71, 35
1, 72629, Note_off_c, 0, 71, 54
1, 72643, Note_on_c, 0, 61, 64
1, 72651, Note_on_c, 0, 66, 48
1, 72672, Note_off_c, 0, 61, 64
1, 72707, Note_on_c, 0, 71, 59
1, 72747, Note_off_c, 0, 71, 58
1, 72758, Note_off_c, 0, 66, 60
1, 72829, Note_on_c, 0, 73, 68
1, 72875, Note_on_c, 0, 76, 58
1, 72921, Note_off_c, 0, 73, 59
1, 72927, Control_c, 0, 64, 91
1, 72928, Note_off_c, 0, 76, 54
1, 72942, Control_c, 0, 64, 68
1, 72957, Control_c, 0, 64, 62
1, 72966, Note_on_c, 0, 80, 90
1, 72972, Control_c, 0, 64, 69
1, 72987, Control_c, 0, 64, 79
1, 73002, Control_c, 0, 64, 100
1, 73005, Note_off_c, 0, 80, 63
1, 73016, Control_c, 0, 64, 127
1, 73034, Note_on_c, 0, 76, 56
1, 73043, Note_on_c, 0, 73, 49
1, 73073, Note_off_c, 0, 76, 58
1, 73077, Note_off_c, 0, 73, 62
1, 73127, Note_on_c, 0, 61, 67
1, 73128, Note_on_c, 0, 68, 63
1, 73147, Note_off_c, 0, 61, 64
1, 73212, Note_off_c, 0, 68, 60
1, 73344, Note_on_c, 0, 87, 87
1, 73393, Note_off_c, 0, 87, 64
1, 73411, Note_on_c, 0, 83, 60
1, 73446, Note_off_c, 0, 83, 61
1, 73494, Note_on_c, 0, 80, 57
1, 73559, Note_off_c, 0, 80, 59
1, 73571, Note_on_c, 0, 75, 56
1, 73592, Note_on_c, 0, 76, 46
1, 73620, Note_off_c, 0, 76, 56
1, 73629, Note_off_c, 0, 75, 51
1, 73658, Note_on_c, 0, 85, 80
1, 73710, Note_off_c, 0, 85, 61
1, 73738, Note_on_c, 0, 80, 45
1, 73740, Note_on_c, 0, 83, 50
1, 73764, Note_off_c, 0, 83, 61
1, 73778, Note_off_c, 0, 80, 59
1, 73831, Note_on_c, 0, 80, 72
1, 73872, Note_off_c, 0, 80, 60
1, 73887, Note_on_c, 0, 73, 55
1, 73942, Note_off_c, 0, 73, 51
1, 73978, Note_on_c, 0, 82, 79
1, 74037, Note_off_c, 0, 82, 61
1, 74050, Note_on_c, 0, 80, 51
1, 74058, Note_on_c, 0, 76, 49
1, 74084, Note_off_c, 0, 80, 50
1, 74097, Note_off_c, 0, 76, 59
1, 74142, Note_on_c, 0, 76, 71
1, 74173, Note_off_c, 0, 76, 63
1, 74201, Note_on_c, 0, 70, 62
1, 74248, Note_off_c, 0, 70, 58
1, 74269, Control_c, 0, 64, 97
1, 74284, Note_on_c, 0, 80, 78
1, 74284, Control_c, 0, 64, 68
1, 74307, Control_c, 0, 64, 53
1, 74308, Poly_aftertouch_c, 0, 73, 0
1, 74322, Control_c, 0, 64, 64
1, 74337, Control_c, 0, 64, 72
1, 74342, Note_off_c, 0, 80, 63
1, 74351, Control_c, 0, 64, 86
1, 74366, Control_c, 0, 64, 127
1, 74377, Note_on_c, 0, 76, 55
1, 74381, Note_on_c, 0, 73, 32
1, 74412, Note_off_c, 0, 76, 60
1, 74426, Note_off_c, 0, 73, 0
1, 74442, Note_on_c, 0, 73, 70
1, 74470, Note_off_c, 0, 73, 66
1, 74525, Note_on_c, 0, 68, 60
1, 74540, Note_on_c, 0, 71, 48
1, 74558, Note_off_c, 0, 68, 60
1, 74578, Note_off_c, 0, 71, 64
1, 74588, Note_on_c, 0, 61, 71
1, 74615, Poly_aftertouch_c, 0, 68, 0
1, 74615, Note_off_c, 0, 61, 64
1, 74673, Note_on_c, 0, 71, 57
1, 74689, Note_on_c, 0, 68, 50
1, 74708, Note_off_c, 0, 71, 60
1, 74718, Note_off_c, 0, 68, 64
1, 74758, Note_on_c, 0, 73, 66
1, 74790, Note_off_c, 0, 73, 64
1, 74838, Note_on_c, 0, 76, 57
1, 74844, Note_on_c, 0, 73, 39
1, 74856, Control_c, 0, 64, 112
1, 74871, Control_c, 0, 64, 79
1, 74874, Note_off_c, 0, 76, 62
1, 74879, Note_off_c, 0, 73, 60
1, 74885, Control_c, 0, 64, 59
1, 74900, Control_c, 0, 64, 55
1, 74915, Note_on_c, 0, 78, 69
1, 74915, Control_c, 0, 64, 67
1, 74930, Control_c, 0, 64, 80
1, 74945, Control_c, 0, 64, 111
1, 74951, Note_off_c, 0, 78, 56
1, 74959, Control_c, 0, 64, 127
1, 74988, Note_on_c, 0, 73, 54
1, 74993, Note_on_c, 0, 76, 48
1, 75028, Note_off_c, 0, 73, 58
1, 75032, Note_off_c, 0, 76, 45
1, 75072, Note_on_c, 0, 73, 79
1, 75094, Note_off_c, 0, 73, 70
1, 75145, Note_on_c, 0, 66, 54
1, 75148, Note_on_c, 0, 70, 48
1, 75180, Note_off_c, 0, 66, 60
1, 75187, Note_off_c, 0, 70, 60
1, 75216, Note_on_c, 0, 61, 72
1, 75229, Note_on_c, 0, 66, 49
1, 75247, Note_off_c, 0, 61, 61
1, 75253, Note_off_c, 0, 66, 61
1, 75326, Note_on_c, 0, 70, 27
1, 75339, Note_on_c, 0, 66, 11
1, 75362, Note_off_c, 0, 70, 0
1, 75384, Note_on_c, 0, 70, 52
1, 75384, Note_off_c, 0, 66, 54
1, 75417, Note_off_c, 0, 70, 61
1, 75474, Note_on_c, 0, 73, 28
1, 75485, Control_c, 0, 64, 113
1, 75500, Control_c, 0, 64, 71
1, 75506, Note_off_c, 0, 73, 57
1, 75515, Control_c, 0, 64, 0
1, 75524, Poly_aftertouch_c, 0, 76, 0
1, 75530, Note_on_c, 0, 75, 89
1, 75545, Control_c, 0, 64, 59
1, 75560, Control_c, 0, 64, 76
1, 75567, Note_off_c, 0, 75, 63
1, 75575, Control_c, 0, 64, 106
1, 75589, Control_c, 0, 64, 127
1, 75613, Note_on_c, 0, 70, 49
1, 75619, Note_on_c, 0, 66, 48
1, 75650, Note_off_c, 0, 66, 61
1, 75650, Note_off_c, 0, 70, 60
1, 75696, Note_on_c, 0, 66, 54
1, 75730, Note_off_c, 0, 66, 62
1, 75796, Note_on_c, 0, 63, 54
1, 75804, Note_on_c, 0, 66, 36
1, 75831, Note_off_c, 0, 66, 59
1, 75843, Note_off_c, 0, 63, 0
1, 75863, Note_on_c, 0, 59, 61
1, 75881, Poly_aftertouch_c, 0, 63, 127
1, 75899, Note_off_c, 0, 59, 56
1, 75914, Poly_aftertouch_c, 0, 63, 0
1, 75944, Note_on_c, 0, 66, 49
1, 75951, Poly_aftertouch_c, 0, 63, 127
1, 75966, Poly_aftertouch_c, 0, 63, 0
1, 75986, Note_off_c, 0, 66, 58
1, 76051, Note_on_c, 0, 66, 51
1, 76104, Note_off_c, 0, 66, 0
1, 76116, Note_on_c, 0, 70, 51
1, 76123, Note_on_c, 0, 66, 25
1, 76148, Note_off_c, 0, 70, 64
1, 76165, Note_off_c, 0, 66, 53
1, 76176, Note_on_c, 0, 70, 81
1, 76269, Note_on_c, 0, 66, 55
1, 76293, Note_off_c, 0, 70, 57
1, 76297, Note_off_c, 0, 66, 63
1, 76332, Note_on_c, 0, 66, 56
1, 76361, Note_off_c, 0, 66, 61
1, 76414, Note_on_c, 0, 63, 56
1, 76433, Note_on_c, 0, 66, 33
1, 76448, Note_off_c, 0, 63, 64
1, 76460, Note_off_c, 0, 66, 57
1, 76480, Note_on_c, 0, 59, 68
1, 76507, Note_off_c, 0, 59, 63
1, 76520, Note_on_c, 0, 63, 15
1, 76558, Note_on_c, 0, 66, 58
1, 76611, Note_off_c, 0, 66, 58
1, 76629, Note_off_c, 0, 63, 42
1, 76642, Note_on_c, 0, 66, 58
1, 76682, Note_off_c, 0, 66, 56
1, 76716, Note_on_c, 0, 70, 62
1, 76724, Note_on_c, 0, 66, 27
1, 76748, Note_off_c, 0, 70, 63
1, 76760, Note_off_c, 0, 66, 48
1, 76792, Note_on_c, 0, 70, 75
1, 76893, Note_off_c, 0, 70, 57
1, 76907, Poly_aftertouch_c, 0, 66, 127
1, 76932, Note_on_c, 0, 66, 21
1, 76981, Note_off_c, 0, 66, 60
1, 77007, Note_on_c, 0, 63, 54
1, 77035, Note_off_c, 0, 63, 64
1, 77057, Control_c, 0, 64, 94
1, 77071, Control_c, 0, 64, 69
1, 77084, Note_on_c, 0, 77, 72
1, 77086, Control_c, 0, 64, 0
1, 77089, Note_on_c, 0, 56, 55
1, 77101, Control_c, 0, 64, 24
1, 77116, Note_off_c, 0, 77, 59
1, 77117, Control_c, 0, 64, 64
1, 77128, Note_off_c, 0, 56, 50
1, 77132, Control_c, 0, 64, 76
1, 77136, Note_on_c, 0, 63, 18
1, 77147, Control_c, 0, 64, 98
1, 77161, Control_c, 0, 64, 127
1, 77169, Note_on_c, 0, 66, 60
1, 77179, Note_off_c, 0, 63, 52
1, 77195, Note_off_c, 0, 66, 65
1, 77260, Note_on_c, 0, 66, 47
1, 77314, Note_off_c, 0, 66, 0
1, 77314, Note_on_c, 0, 66, 9
1, 77321, Note_on_c, 0, 70, 49
1, 77362, Note_off_c, 0, 70, 60
1, 77363, Note_off_c, 0, 66, 53
1, 77407, Note_on_c, 0, 73, 83
1, 77437, Note_off_c, 0, 73, 56
1, 77501, Note_on_c, 0, 70, 41
1, 77513, Note_on_c, 0, 66, 22
1, 77560, Note_off_c, 0, 66, 0
1, 77560, Note_on_c, 0, 66, 51
1, 77561, Note_off_c, 0, 70, 52
1, 77622, Note_off_c, 0, 66, 56
1, 77655, Note_on_c, 0, 63, 61
1, 77684, Note_off_c, 0, 63, 65
1, 77702, Control_c, 0, 64, 106
1, 77717, Control_c, 0, 64, 75
1, 77732, Control_c, 0, 64, 44
1, 77733, Note_on_c, 0, 56, 60
1, 77733, Note_on_c, 0, 72, 63
1, 77747, Control_c, 0, 64, 38
1, 77761, Control_c, 0, 64, 64
1, 77764, Note_on_c, 0, 63, 42
1, 77768, Note_off_c, 0, 56, 61
1, 77775, Note_off_c, 0, 72, 60
1, 77776, Control_c, 0, 64, 77
1, 77791, Control_c, 0, 64, 96
1, 77796, Note_off_c, 0, 63, 54
1, 77806, Control_c, 0, 64, 127
1, 77817, Note_on_c, 0, 66, 54
1, 77840, Note_off_c, 0, 66, 60
1, 77891, Note_on_c, 0, 66, 63
1, 77911, Note_off_c, 0, 66, 63
1, 77965, Note_on_c, 0, 70, 44
1, 77983, Note_on_c, 0, 66, 27
1, 78003, Note_off_c, 0, 70, 63
1, 78014, Control_c, 0, 64, 96
1, 78015, Note_off_c, 0, 66, 54
1, 78036, Control_c, 0, 64, 65
1, 78047, Note_on_c, 0, 73, 88
1, 78051, Control_c, 0, 64, 0
1, 78081, Control_c, 0, 64, 64
1, 78082, Note_off_c, 0, 73, 61
1, 78096, Control_c, 0, 64, 85
1, 78111, Control_c, 0, 64, 127
1, 78117, Note_on_c, 0, 68, 63
1, 78167, Note_off_c, 0, 68, 54
1, 78191, Note_on_c, 0, 68, 71
1, 78195, Poly_aftertouch_c, 0, 64, 127
1, 78236, Poly_aftertouch_c, 0, 64, 0
1, 78238, Note_off_c, 0, 68, 58
1, 78255, Note_on_c, 0, 64, 42
1, 78281, Note_on_c, 0, 61, 44
1, 78287, Note_off_c, 0, 64, 65
1, 78288, Control_c, 0, 67, 112
1, 78303, Control_c, 0, 67, 68
1, 78311, Note_off_c, 0, 61, 54
1, 78317, Control_c, 0, 67, 0
1, 78341, Note_on_c, 0, 64, 79
1, 78359, Note_off_c, 0, 64, 71
1, 78421, Note_on_c, 0, 61, 48
1, 78427, Note_on_c, 0, 56, 54
1, 78447, Note_off_c, 0, 61, 62
1, 78453, Note_off_c, 0, 56, 61
1, 78498, Note_on_c, 0, 56, 64
1, 78522, Note_off_c, 0, 56, 65
1, 78546, Note_on_c, 0, 52, 66
1, 78576, Note_off_c, 0, 52, 62
1, 78613, Control_c, 0, 64, 85
1, 78613, Control_c, 0, 67, 74
1, 78625, Poly_aftertouch_c, 0, 56, 0
1, 78628, Control_c, 0, 64, 0
1, 78628, Control_c, 0, 67, 127
1, 78633, Note_on_c, 0, 56, 63
1, 78637, Note_on_c, 0, 61, 74
1, 78640, Note_on_c, 0, 52, 75
1, 78644, Note_on_c, 0, 49, 73
1, 78655, Note_off_c, 0, 56, 65
1, 78664, Note_off_c, 0, 61, 65
1, 78667, Note_off_c, 0, 49, 66
1, 78669, Note_off_c, 0, 52, 62
1, 78731, Note_on_c, 0, 52, 67
1, 78761, Note_off_c, 0, 52, 64
1, 78805, Note_on_c, 0, 52, 58
1, 78837, Note_off_c, 0, 52, 62
1, 78919, Note_on_c, 0, 52, 52
1, 78971, Note_off_c, 0, 52, 0
1, 78978, Note_on_c, 0, 49, 60
1, 78983, Note_on_c, 0, 52, 33
1, 78992, Note_on_c, 0, 61, 47
1, 78994, Note_on_c, 0, 56, 50
1, 79006, Note_off_c, 0, 49, 64
1, 79014, Note_off_c, 0, 52, 48
1, 79020, Note_off_c, 0, 61, 57
1, 79021, Note_off_c, 0, 56, 57
1, 79067, Note_on_c, 0, 52, 46
1, 79093, Note_off_c, 0, 52, 59
1, 79129, Note_on_c, 0, 62, 62
1, 79130, Note_on_c, 0, 41, 68
1, 79142, Note_on_c, 0, 51, 50
1, 79146, Note_on_c, 0, 57, 43
1, 79160, Note_off_c, 0, 41, 64
1, 79163, Note_off_c, 0, 62, 62
1, 79171, Note_off_c, 0, 51, 59
1, 79175, Note_off_c, 0, 57, 54
1, 79213, Note_on_c, 0, 53, 55
1, 79246, Note_off_c, 0, 53, 66
1, 79277, Note_on_c, 0, 61, 84
1, 79280, Note_on_c, 0, 52, 79
1, 79284, Note_on_c, 0, 49, 74
1, 79284, Note_on_c, 0, 56, 68
1, 79288, Control_c, 0, 64, 63
1, 79298, Note_off_c, 0, 61, 69
1, 79303, Control_c, 0, 64, 62
1, 79307, Note_off_c, 0, 49, 67
1, 79308, Note_off_c, 0, 52, 68
1, 79311, Note_off_c, 0, 56, 66
1, 79318, Control_c, 0, 64, 0
1, 79363, Note_on_c, 0, 52, 54
1, 79394, Note_off_c, 0, 52, 60
1, 79447, Note_on_c, 0, 52, 72
1, 79467, Note_off_c, 0, 52, 65
1, 79544, Note_on_c, 0, 52, 59
1, 79575, Note_off_c, 0, 52, 62
1, 79614, Note_on_c, 0, 49, 66
1, 79614, Note_on_c, 0, 52, 57
1, 79618, Note_on_c, 0, 56, 67
1, 79619, Note_on_c, 0, 61, 61
1, 79642, Note_off_c, 0, 49, 65
1, 79645, Note_off_c, 0, 56, 66
1, 79648, Note_off_c, 0, 52, 53
1, 79648, Note_off_c, 0, 61, 64
1, 79693, Note_on_c, 0, 52, 64
1, 79724, Note_off_c, 0, 52, 63
1, 79773, Note_on_c, 0, 41, 72
1, 79774, Note_on_c, 0, 62, 68
1, 79777, Note_on_c, 0, 51, 70
1, 79789, Note_on_c, 0, 57, 51
1, 79799, Note_off_c, 0, 41, 65
1, 79804, Note_off_c, 0, 51, 66
1, 79807, Note_off_c, 0, 62, 57
1, 79812, Note_off_c, 0, 57, 60
1, 79854, Note_on_c, 0, 53, 60
1, 79887, Note_off_c, 0, 53, 66
1, 79930, Note_on_c, 0, 52, 92
1, 79930, Note_on_c, 0, 61, 81
1, 79935, Note_on_c, 0, 49, 76
1, 79935, Note_on_c, 0, 56, 68
1, 79951, Note_off_c, 0, 61, 67
1, 79954, Note_off_c, 0, 52, 67
1, 79957, Note_off_c, 0, 56, 68
1, 79959, Note_off_c, 0, 49, 67
1, 80009, Note_on_c, 0, 52, 63
1, 80043, Note_off_c, 0, 52, 61
1, 80107, Note_on_c, 0, 52, 74
1, 80137, Note_off_c, 0, 52, 63
1, 80172, Note_on_c, 0, 52, 61
1, 80216, Note_off_c, 0, 52, 56
1, 80257, Note_on_c, 0, 52, 66
1, 80265, Note_on_c, 0, 49, 66
1, 80266, Note_on_c, 0, 56, 65
1, 80282, Note_on_c, 0, 61, 47
1, 80298, Note_off_c, 0, 52, 60
1, 80298, Note_off_c, 0, 49, 66
1, 80302, Note_off_c, 0, 56, 65
1, 80314, Note_off_c, 0, 61, 61
1, 80365, Poly_aftertouch_c, 0, 52, 0
1, 80430, Note_on_c, 0, 41, 74
1, 80430, Note_on_c, 0, 62, 56
1, 80430, Note_on_c, 0, 51, 77
1, 80435, Note_on_c, 0, 57, 49
1, 80457, Note_off_c, 0, 41, 64
1, 80461, Note_off_c, 0, 51, 65
1, 80461, Note_off_c, 0, 57, 59
1, 80471, Note_off_c, 0, 62, 54
1, 80501, Note_on_c, 0, 53, 63
1, 80541, Note_off_c, 0, 53, 63
1, 80578, Control_c, 0, 64, 38
1, 80585, Note_on_c, 0, 52, 86
1, 80587, Note_on_c, 0, 56, 69
1, 80592, Note_on_c, 0, 49, 75
1, 80593, Control_c, 0, 64, 57
1, 80595, Note_on_c, 0, 61, 53
1, 80608, Control_c, 0, 64, 0
1, 80618, Note_off_c, 0, 49, 67
1, 80619, Note_off_c, 0, 52, 61
1, 80623, Note_off_c, 0, 56, 63
1, 80633, Note_off_c, 0, 61, 63
1, 80657, Note_on_c, 0, 52, 57
1, 80694, Note_off_c, 0, 52, 63
1, 80711, Control_c, 0, 67, 109
1, 80725, Control_c, 0, 67, 73
1, 80740, Control_c, 0, 67, 28
1, 80741, Note_on_c, 0, 41, 75
1, 80745, Note_on_c, 0, 51, 69
1, 80755, Control_c, 0, 67, 0
1, 80759, Note_on_c, 0, 62, 34
1, 80761, Note_on_c, 0, 57, 37
1, 80771, Note_off_c, 0, 41, 63
1, 80771, Note_off_c, 0, 51, 66
1, 80793, Note_off_c, 0, 62, 53
1, 80796, Note_off_c, 0, 57, 51
1, 80821, Note_on_c, 0, 53, 63
1, 80850, Note_off_c, 0, 53, 65
1, 80900, Note_on_c, 0, 50, 66
1, 80904, Note_on_c, 0, 47, 68
1, 80909, Note_on_c, 0, 54, 67
1, 80918, Control_c, 0, 64, 55
1, 80931, Note_off_c, 0, 50, 66
1, 80932, Note_off_c, 0, 47, 66
1, 80933, Control_c, 0, 64, 0
1, 80936, Note_on_c, 0, 59, 21
1, 80943, Note_off_c, 0, 54, 62
1, 80980, Note_off_c, 0, 59, 30
1, 81001, Note_on_c, 0, 50, 47
1, 81038, Note_off_c, 0, 50, 59
1, 81062, Note_on_c, 0, 39, 65
1, 81068, Note_on_c, 0, 49, 70
1, 81070, Note_on_c, 0, 61, 48
1, 81092, Note_on_c, 0, 55, 45
1, 81094, Note_off_c, 0, 39, 62
1, 81095, Note_off_c, 0, 49, 66
1, 81101, Note_off_c, 0, 61, 33
1, 81122, Note_off_c, 0, 55, 55
1, 81148, Note_on_c, 0, 51, 65
1, 81183, Note_off_c, 0, 51, 65
1, 81208, Control_c, 0, 67, 24
1, 81223, Control_c, 0, 67, 93
1, 81225, Note_on_c, 0, 48, 88
1, 81228, Note_on_c, 0, 45, 92
1, 81237, Note_on_c, 0, 52, 64
1, 81238, Control_c, 0, 67, 127
1, 81245, Note_on_c, 0, 57, 54
1, 81251, Note_off_c, 0, 45, 70
1, 81254, Note_off_c, 0, 48, 64
1, 81263, Note_off_c, 0, 52, 62
1, 81281, Note_off_c, 0, 57, 65
1, 81319, Note_on_c, 0, 48, 52
1, 81347, Note_off_c, 0, 48, 54
1, 81384, Note_on_c, 0, 48, 75
1, 81411, Note_off_c, 0, 48, 64
1, 81465, Note_on_c, 0, 48, 72
1, 81509, Note_off_c, 0, 48, 55
1, 81559, Note_on_c, 0, 48, 65
1, 81563, Note_on_c, 0, 45, 70
1, 81572, Note_on_c, 0, 57, 49
1, 81573, Note_on_c, 0, 52, 55
1, 81590, Note_off_c, 0, 45, 66
1, 81590, Note_off_c, 0, 48, 64
1, 81601, Note_off_c, 0, 57, 60
1, 81611, Note_off_c, 0, 52, 61
1, 81656, Note_on_c, 0, 48, 54
1, 81682, Note_off_c, 0, 48, 58
1, 81719, Note_on_c, 0, 37, 68
1, 81724, Note_on_c, 0, 47, 61
1, 81730, Note_on_c, 0, 58, 49
1, 81743, Note_on_c, 0, 53, 47
1, 81747, Note_off_c, 0, 37, 64
1, 81747, Note_off_c, 0, 47, 62
1, 81760, Note_off_c, 0, 58, 58
1, 81770, Note_off_c, 0, 53, 60
1, 81810, Note_on_c, 0, 49, 66
1, 81843, Note_off_c, 0, 49, 65
1, 81886, Note_on_c, 0, 48, 87
1, 81890, Note_on_c, 0, 45, 88
1, 81898, Note_on_c, 0, 52, 64
1, 81900, Note_on_c, 0, 57, 60
1, 81914, Note_off_c, 0, 45, 68
1, 81914, Note_off_c, 0, 48, 66
1, 81931, Note_off_c, 0, 52, 61
1, 81936, Note_off_c, 0, 57, 65
1, 81969, Note_on_c, 0, 48, 69
1, 81997, Note_off_c, 0, 48, 65
1, 82049, Note_on_c, 0, 48, 81
1, 82082, Note_off_c, 0, 48, 64
1, 82127, Note_on_c, 0, 48, 66
1, 82170, Note_off_c, 0, 48, 55
1, 82217, Note_on_c, 0, 48, 69
1, 82219, Note_on_c, 0, 45, 79
1, 82228, Note_on_c, 0, 52, 62
1, 82237, Note_on_c, 0, 57, 46
1, 82242, Note_off_c, 0, 45, 67
1, 82251, Note_off_c, 0, 48, 65
1, 82263, Note_off_c, 0, 52, 62
1, 82270, Note_off_c, 0, 57, 64
1, 82297, Note_on_c, 0, 48, 67
1, 82335, Note_off_c, 0, 48, 64
1, 82377, Note_on_c, 0, 37, 78
1, 82377, Note_on_c, 0, 47, 77
1, 82389, Note_on_c, 0, 53, 60
1, 82392, Note_on_c, 0, 58, 43
1, 82401, Note_off_c, 0, 47, 67
1, 82406, Note_off_c, 0, 37, 65
1, 82423, Note_off_c, 0, 58, 58
1, 82424, Note_off_c, 0, 53, 66
1, 82455, Note_on_c, 0, 49, 71
1, 82496, Note_off_c, 0, 49, 60
1, 82542, Note_on_c, 0, 48, 88
1, 82547, Note_on_c, 0, 45, 89
1, 82547, Note_on_c, 0, 52, 65
1, 82555, Note_on_c, 0, 57, 58
1, 82570, Note_off_c, 0, 45, 68
1, 82574, Note_off_c, 0, 48, 62
1, 82584, Note_off_c, 0, 52, 63
1, 82596, Note_off_c, 0, 57, 62
1, 82622, Note_on_c, 0, 48, 67
1, 82660, Note_off_c, 0, 48, 62
1, 82703, Note_on_c, 0, 48, 75
1, 82737, Note_off_c, 0, 48, 64
1, 82788, Note_on_c, 0, 48, 72
1, 82850, Note_off_c, 0, 48, 0
1, 82865, Note_on_c, 0, 48, 60
1, 82871, Note_on_c, 0, 45, 82
1, 82889, Note_on_c, 0, 52, 63
1, 82889, Note_on_c, 0, 57, 60
1, 82893, Note_off_c, 0, 45, 67
1, 82898, Note_off_c, 0, 48, 64
1, 82926, Note_off_c, 0, 52, 65
1, 82929, Note_off_c, 0, 57, 64
1, 82961, Note_on_c, 0, 48, 75
1, 83000, Note_off_c, 0, 48, 62
1, 83040, Note_on_c, 0, 47, 77
1, 83042, Note_on_c, 0, 37, 78
1, 83043, Note_on_c, 0, 58, 64
1, 83055, Note_on_c, 0, 53, 65
1, 83068, Note_off_c, 0, 47, 68
1, 83073, Note_off_c, 0, 37, 64
1, 83078, Note_off_c, 0, 58, 63
1, 83089, Note_off_c, 0, 53, 66
1, 83119, Note_on_c, 0, 49, 74
1, 83155, Note_off_c, 0, 49, 61
1, 83203, Note_on_c, 0, 48, 81
1, 83203, Note_on_c, 0, 52, 72
1, 83204, Note_on_c, 0, 45, 83
1, 83214, Note_on_c, 0, 57, 64
1, 83231, Note_off_c, 0, 45, 67
1, 83244, Note_off_c, 0, 48, 57
1, 83259, Note_off_c, 0, 57, 60
1, 83260, Note_off_c, 0, 52, 60
1, 83293, Note_on_c, 0, 48, 64
1, 83332, Note_off_c, 0, 48, 62
1, 83371, Note_on_c, 0, 37, 85
1, 83372, Note_on_c, 0, 47, 81
1, 83380, Note_on_c, 0, 54, 49
1, 83381, Note_off_c, 0, 54, 127
1, 83381, Note_on_c, 0, 58, 65
1, 83401, Note_off_c, 0, 47, 68
1, 83403, Note_on_c, 0, 53, 50
1, 83414, Note_off_c, 0, 58, 66
1, 83416, Note_off_c, 0, 37, 57
1, 83429, Note_off_c, 0, 53, 58
1, 83446, Note_on_c, 0, 49, 77
1, 83477, Note_off_c, 0, 49, 65
1, 83526, Note_on_c, 0, 43, 72
1, 83533, Note_on_c, 0, 46, 68
1, 83536, Note_on_c, 0, 50, 68
1, 83537, Note_on_c, 0, 55, 68
1, 83557, Note_off_c, 0, 43, 65
1, 83575, Note_off_c, 0, 55, 64
1, 83576, Note_off_c, 0, 50, 66
1, 83581, Note_off_c, 0, 46, 0
1, 83619, Poly_aftertouch_c, 0, 46, 127
1, 83641, Poly_aftertouch_c, 0, 46, 0
1, 83648, Control_c, 0, 67, 115
1, 83662, Control_c, 0, 67, 81
1, 83677, Control_c, 0, 67, 37
1, 83682, Note_on_c, 0, 45, 78
1, 83688, Note_on_c, 0, 35, 68
1, 83692, Note_on_c, 0, 51, 62
1, 83692, Control_c, 0, 67, 0
1, 83697, Note_on_c, 0, 56, 57
1, 83719, Note_off_c, 0, 35, 65
1, 83721, Note_off_c, 0, 45, 58
1, 83727, Note_off_c, 0, 51, 63
1, 83737, Note_off_c, 0, 56, 64
1, 83769, Note_on_c, 0, 47, 66
1, 83802, Note_off_c, 0, 47, 66
1, 83840, Note_on_c, 0, 41, 93
1, 83856, Note_on_c, 0, 53, 75
1, 83879, Note_off_c, 0, 41, 65
1, 83905, Note_off_c, 0, 53, 62
1, 83915, Control_c, 0, 64, 40
1, 83927, Note_on_c, 0, 44, 76
1, 83929, Control_c, 0, 64, 60
1, 83944, Control_c, 0, 64, 64
1, 83959, Control_c, 0, 64, 65
1, 83971, Note_off_c, 0, 44, 61
1, 83973, Control_c, 0, 64, 67
1, 83988, Control_c, 0, 64, 68
1, 83993, Note_on_c, 0, 48, 87
1, 84003, Control_c, 0, 64, 70
1, 84015, Note_off_c, 0, 48, 67
1, 84025, Control_c, 0, 64, 71
1, 84040, Control_c, 0, 64, 72
1, 84055, Control_c, 0, 64, 73
1, 84076, Note_on_c, 0, 48, 59
1, 84083, Note_on_c, 0, 51, 69
1, 84085, Control_c, 0, 64, 70
1, 84100, Note_off_c, 0, 48, 62
1, 84100, Control_c, 0, 64, 66
1, 84115, Control_c, 0, 64, 41
1, 84115, Note_off_c, 0, 51, 67
1, 84129, Control_c, 0, 64, 0
1, 84157, Note_on_c, 0, 53, 91
1, 84190, Note_off_c, 0, 53, 68
1, 84234, Note_on_c, 0, 53, 59
1, 84254, Note_on_c, 0, 57, 47
1, 84256, Note_off_c, 0, 53, 64
1, 84282, Note_off_c, 0, 57, 55
1, 84310, Note_on_c, 0, 60, 89
1, 84328, Note_off_c, 0, 60, 74
1, 84389, Note_on_c, 0, 60, 70
1, 84389, Note_on_c, 0, 63, 77
1, 84414, Note_off_c, 0, 60, 66
1, 84431, Note_off_c, 0, 63, 58
1, 84471, Note_on_c, 0, 60, 77
1, 84479, Note_on_c, 0, 62, 68
1, 84490, Note_off_c, 0, 60, 71
1, 84498, Note_off_c, 0, 62, 64
1, 84537, Note_on_c, 0, 60, 77
1, 84541, Note_on_c, 0, 63, 80
1, 84567, Note_off_c, 0, 60, 63
1, 84577, Note_off_c, 0, 63, 56
1, 84590, Control_c, 0, 64, 11
1, 84604, Control_c, 0, 64, 29
1, 84615, Note_on_c, 0, 65, 94
1, 84619, Control_c, 0, 64, 39
1, 84634, Control_c, 0, 64, 45
1, 84639, Note_off_c, 0, 65, 69
1, 84649, Control_c, 0, 64, 50
1, 84664, Control_c, 0, 64, 51
1, 84689, Note_on_c, 0, 68, 74
1, 84693, Control_c, 0, 64, 47
1, 84694, Note_on_c, 0, 65, 53
1, 84708, Control_c, 0, 64, 36
1, 84711, Note_off_c, 0, 65, 67
1, 84721, Note_off_c, 0, 68, 65
1, 84723, Control_c, 0, 64, 0
1, 84763, Note_on_c, 0, 72, 94
1, 84815, Note_off_c, 0, 72, 69
1, 84834, Control_c, 0, 67, 9
1, 84842, Note_on_c, 0, 72, 73
1, 84849, Control_c, 0, 67, 13
1, 84864, Control_c, 0, 67, 19
1, 84871, Note_on_c, 0, 74, 47
1, 84878, Control_c, 0, 67, 23
1, 84883, Note_off_c, 0, 72, 59
1, 84893, Control_c, 0, 67, 26
1, 84897, Note_off_c, 0, 74, 36
1, 84908, Control_c, 0, 67, 30
1, 84914, Note_on_c, 0, 77, 82
1, 84923, Control_c, 0, 67, 34
1, 84937, Control_c, 0, 67, 38
1, 84951, Note_off_c, 0, 77, 68
1, 84952, Control_c, 0, 67, 41
1, 84967, Control_c, 0, 67, 42
1, 84982, Control_c, 0, 67, 43
1, 84997, Control_c, 0, 67, 44
1, 85003, Note_on_c, 0, 80, 69
1, 85004, Note_on_c, 0, 77, 59
1, 85027, Control_c, 0, 67, 43
1, 85030, Note_off_c, 0, 77, 66
1, 85036, Note_off_c, 0, 80, 64
1, 85042, Control_c, 0, 67, 39
1, 85057, Control_c, 0, 67, 30
1, 85071, Control_c, 0, 67, 8
1, 85086, Control_c, 0, 67, 0
1, 85101, Control_c, 0, 64, 62
1, 85116, Note_on_c, 0, 87, 102
1, 85116, Control_c, 0, 64, 127
1, 85123, Note_on_c, 0, 83, 83
1, 85125, Note_on_c, 0, 80, 94
1, 85140, Note_on_c, 0, 85, 58
1, 85153, Note_on_c, 0, 82, 42
1, 85154, Note_off_c, 0, 82, 127
1, 85158, Note_off_c, 0, 85, 62
1, 85168, Note_off_c, 0, 87, 69
1, 85179, Note_off_c, 0, 80, 64
1, 85187, Note_off_c, 0, 83, 63
1, 85188, Note_on_c, 0, 75, 87
1, 85206, Note_off_c, 0, 75, 73
1, 85259, Note_on_c, 0, 75, 71
1, 85269, Note_on_c, 0, 68, 68
1, 85269, Note_on_c, 0, 71, 64
1, 85283, Note_off_c, 0, 75, 70
1, 85302, Note_off_c, 0, 71, 58
1, 85345, Note_on_c, 0, 63, 67
1, 85387, Note_off_c, 0, 68, 58
1, 85394, Note_off_c, 0, 63, 61
1, 85416, Poly_aftertouch_c, 0, 68, 0
1, 85426, Note_on_c, 0, 68, 52
1, 85432, Note_on_c, 0, 71, 66
1, 85436, Note_on_c, 0, 75, 63
1, 85461, Note_off_c, 0, 75, 67
1, 85471, Note_off_c, 0, 68, 54
1, 85490, Note_off_c, 0, 71, 63
1, 85491, Note_on_c, 0, 63, 71
1, 85515, Note_off_c, 0, 63, 56
1, 85593, Note_on_c, 0, 59, 58
1, 85596, Note_on_c, 0, 56, 65
1, 85609, Note_on_c, 0, 62, 30
1, 85647, Note_off_c, 0, 62, 49
1, 85659, Note_on_c, 0, 53, 56
1, 85665, Note_off_c, 0, 56, 63
1, 85685, Note_off_c, 0, 53, 63
1, 85691, Note_off_c, 0, 59, 41
1, 85745, Note_on_c, 0, 53, 77
1, 85779, Note_off_c, 0, 53, 66
1, 85795, Note_on_c, 0, 63, 62
1, 85811, Note_on_c, 0, 59, 39
1, 85832, Note_off_c, 0, 63, 62
1, 85837, Note_off_c, 0, 59, 56
1, 85906, Note_on_c, 0, 59, 57
1, 85952, Note_on_c, 0, 63, 58
1, 85983, Note_off_c, 0, 59, 58
1, 85993, Note_on_c, 0, 68, 70
1, 86010, Note_off_c, 0, 63, 61
1, 86016, Note_off_c, 0, 68, 63
1, 86056, Note_on_c, 0, 65, 80
1, 86082, Note_off_c, 0, 65, 67
1, 86116, Note_on_c, 0, 75, 71
1, 86119, Note_on_c, 0, 71, 35
1, 86137, Note_off_c, 0, 75, 71
1, 86150, Note_off_c, 0, 71, 56
1, 86207, Note_on_c, 0, 71, 63
1, 86213, Note_on_c, 0, 75, 64
1, 86256, Note_on_c, 0, 80, 73
1, 86288, Note_off_c, 0, 80, 65
1, 86320, Note_off_c, 0, 75, 61
1, 86325, Note_off_c, 0, 71, 64
1, 86346, Control_c, 0, 64, 94
1, 86361, Control_c, 0, 64, 0
1, 86366, Note_on_c, 0, 85, 92
1, 86367, Note_on_c, 0, 80, 72
1, 86370, Note_on_c, 0, 77, 84
1, 86405, Control_c, 0, 64, 94
1, 86420, Note_on_c, 0, 73, 92
1, 86420, Control_c, 0, 64, 127
1, 86422, Note_off_c, 0, 77, 68
1, 86427, Note_off_c, 0, 80, 61
1, 86427, Note_off_c, 0, 85, 65
1, 86446, Note_off_c, 0, 73, 62
1, 86446, Note_on_c, 0, 82, 33
1, 86494, Note_off_c, 0, 82, 49
1, 86533, Note_on_c, 0, 68, 71
1, 86534, Note_on_c, 0, 65, 67
1, 86541, Note_on_c, 0, 73, 50
1, 86569, Note_off_c, 0, 73, 58
1, 86583, Note_off_c, 0, 68, 62
1, 86587, Note_on_c, 0, 61, 71
1, 86601, Note_off_c, 0, 65, 62
1, 86620, Note_off_c, 0, 61, 65
1, 86648, Poly_aftertouch_c, 0, 66, 127
1, 86688, Note_on_c, 0, 73, 53
1, 86698, Note_on_c, 0, 65, 54
1, 86708, Note_on_c, 0, 68, 58
1, 86714, Poly_aftertouch_c, 0, 66, 0
1, 86766, Note_on_c, 0, 61, 70
1, 86767, Note_off_c, 0, 65, 61
1, 86784, Note_off_c, 0, 68, 59
1, 86788, Note_off_c, 0, 61, 66
1, 86818, Note_off_c, 0, 73, 63
1, 86846, Note_on_c, 0, 61, 59
1, 86863, Note_on_c, 0, 56, 64
1, 86911, Note_on_c, 0, 53, 53
1, 86926, Note_off_c, 0, 56, 62
1, 86937, Note_off_c, 0, 61, 58
1, 86940, Note_off_c, 0, 53, 66
1, 87032, Note_on_c, 0, 80, 65
1, 87036, Note_on_c, 0, 77, 56
1, 87067, Note_off_c, 0, 77, 67
1, 87079, Note_on_c, 0, 73, 68
1, 87097, Note_off_c, 0, 80, 58
1, 87112, Note_off_c, 0, 73, 60
1, 87185, Note_on_c, 0, 77, 33
1, 87216, Note_on_c, 0, 76, 20
1, 87233, Note_on_c, 0, 68, 54
1, 87266, Note_off_c, 0, 76, 48
1, 87266, Poly_aftertouch_c, 0, 73, 127
1, 87280, Note_off_c, 0, 77, 43
1, 87300, Note_off_c, 0, 68, 57
1, 87305, Poly_aftertouch_c, 0, 73, 0
1, 87317, Control_c, 0, 64, 100
1, 87331, Control_c, 0, 64, 77
1, 87334, Note_on_c, 0, 87, 76
1, 87339, Note_on_c, 0, 83, 60
1, 87346, Control_c, 0, 64, 64
1, 87352, Note_on_c, 0, 80, 50
1, 87361, Control_c, 0, 64, 65
1, 87377, Control_c, 0, 64, 73
1, 87392, Control_c, 0, 64, 86
1, 87397, Note_on_c, 0, 75, 60
1, 87402, Note_off_c, 0, 80, 57
1, 87406, Control_c, 0, 64, 121
1, 87408, Note_off_c, 0, 87, 65
1, 87409, Note_off_c, 0, 83, 61
1, 87421, Control_c, 0, 64, 127
1, 87449, Note_off_c, 0, 75, 0
1, 87471, Note_on_c, 0, 75, 39
1, 87499, Note_on_c, 0, 68, 56
1, 87502, Note_on_c, 0, 71, 53
1, 87512, Note_off_c, 0, 75, 63
1, 87566, Note_on_c, 0, 63, 63
1, 87573, Note_off_c, 0, 71, 63
1, 87596, Note_off_c, 0, 68, 61
1, 87624, Note_off_c, 0, 63, 62
1, 87658, Note_on_c, 0, 80, 81
1, 87668, Note_on_c, 0, 75, 75
1, 87669, Note_on_c, 0, 71, 75
1, 87725, Note_off_c, 0, 71, 62
1, 87741, Note_on_c, 0, 68, 58
1, 87742, Note_off_c, 0, 75, 61
1, 87747, Note_off_c, 0, 80, 60
1, 87775, Note_off_c, 0, 68, 64
1, 87818, Note_on_c, 0, 59, 65
1, 87829, Note_on_c, 0, 63, 68
1, 87835, Note_on_c, 0, 68, 66
1, 87897, Note_on_c, 0, 56, 81
1, 87925, Note_off_c, 0, 63, 60
1, 87933, Note_off_c, 0, 68, 58
1, 87939, Note_off_c, 0, 59, 58
1, 87977, Note_off_c, 0, 56, 58
1, 87988, Note_on_c, 0, 82, 90
1, 87990, Note_on_c, 0, 75, 83
1, 87996, Note_on_c, 0, 78, 78
1, 88051, Note_off_c, 0, 78, 62
1, 88052, Note_off_c, 0, 75, 59
1, 88056, Note_on_c, 0, 70, 71
1, 88078, Note_off_c, 0, 82, 63
1, 88085, Note_off_c, 0, 70, 65
1, 88136, Note_on_c, 0, 70, 86
1, 88139, Note_on_c, 0, 66, 79
1, 88144, Note_on_c, 0, 63, 74
1, 88192, Note_off_c, 0, 70, 64
1, 88210, Note_off_c, 0, 66, 60
1, 88213, Note_on_c, 0, 58, 82
1, 88216, Note_off_c, 0, 63, 59
1, 88274, Control_c, 0, 64, 105
1, 88279, Note_off_c, 0, 58, 60
1, 88290, Control_c, 0, 64, 69
1, 88292, Note_on_c, 0, 85, 86
1, 88294, Note_on_c, 0, 81, 79
1, 88301, Note_on_c, 0, 78, 72
1, 88305, Control_c, 0, 64, 0
1, 88319, Control_c, 0, 64, 29
1, 88334, Control_c, 0, 64, 66
1, 88349, Control_c, 0, 64, 81
1, 88351, Note_on_c, 0, 73, 83
1, 88357, Note_off_c, 0, 78, 63
1, 88361, Note_off_c, 0, 81, 62
1, 88363, Control_c, 0, 64, 122
1, 88378, Control_c, 0, 64, 127
1, 88380, Note_off_c, 0, 73, 59
1, 88388, Note_off_c, 0, 85, 64
1, 88442, Note_on_c, 0, 69, 63
1, 88443, Note_on_c, 0, 66, 66
1, 88449, Note_on_c, 0, 61, 69
1, 88468, Note_off_c, 0, 66, 65
1, 88470, Note_off_c, 0, 69, 64
1, 88473, Note_off_c, 0, 61, 66
1, 88532, Note_on_c, 0, 51, 84
1, 88554, Note_off_c, 0, 51, 68
1, 88608, Note_on_c, 0, 92, 107
1, 88612, Note_on_c, 0, 85, 101
1, 88658, Poly_aftertouch_c, 0, 51, 127
1, 88677, Note_off_c, 0, 85, 63
1, 88678, Note_on_c, 0, 80, 73
1, 88689, Note_off_c, 0, 92, 68
1, 88696, Poly_aftertouch_c, 0, 51, 0
1, 88712, Note_off_c, 0, 80, 60
1, 88762, Note_on_c, 0, 80, 69
1, 88775, Note_on_c, 0, 73, 72
1, 88818, Note_off_c, 0, 80, 62
1, 88845, Note_on_c, 0, 68, 74
1, 88859, Note_off_c, 0, 73, 53
1, 88914, Note_on_c, 0, 90, 97
1, 88917, Note_off_c, 0, 68, 51
1, 88918, Note_on_c, 0, 85, 93
1, 88983, Note_off_c, 0, 85, 60
1, 88985, Note_on_c, 0, 78, 74
1, 88996, Note_off_c, 0, 90, 64
1, 89027, Note_off_c, 0, 78, 59
1, 89078, Note_on_c, 0, 78, 71
1, 89080, Note_on_c, 0, 73, 80
1, 89129, Note_off_c, 0, 78, 62
1, 89153, Note_on_c, 0, 66, 80
1, 89164, Note_off_c, 0, 73, 63
1, 89223, Note_off_c, 0, 66, 59
1, 89227, Note_on_c, 0, 87, 90
1, 89231, Note_on_c, 0, 83, 84
1, 89233, Note_on_c, 0, 80, 87
1, 89304, Note_off_c, 0, 83, 61
1, 89312, Note_off_c, 0, 87, 64
1, 89315, Note_off_c, 0, 80, 59
1, 89316, Note_on_c, 0, 75, 75
1, 89365, Note_off_c, 0, 75, 62
1, 89394, Note_on_c, 0, 75, 71
1, 89397, Note_on_c, 0, 71, 75
1, 89402, Note_on_c, 0, 68, 73
1, 89462, Note_off_c, 0, 75, 61
1, 89472, Note_on_c, 0, 63, 80
1, 89474, Note_off_c, 0, 71, 64
1, 89483, Note_off_c, 0, 68, 61
1, 89504, Control_c, 0, 64, 88
1, 89519, Control_c, 0, 64, 43
1, 89534, Control_c, 0, 64, 0
1, 89542, Note_on_c, 0, 81, 86
1, 89543, Note_off_c, 0, 63, 60
1, 89546, Note_on_c, 0, 78, 89
1, 89546, Note_on_c, 0, 85, 88
1, 89549, Control_c, 0, 64, 67
1, 89564, Control_c, 0, 64, 95
1, 89579, Control_c, 0, 64, 127
1, 89594, Note_off_c, 0, 81, 63
1, 89596, Note_on_c, 0, 73, 94
1, 89606, Note_off_c, 0, 78, 64
1, 89612, Note_off_c, 0, 85, 65
1, 89638, Note_off_c, 0, 73, 62
1, 89696, Note_on_c, 0, 73, 79
1, 89707, Note_on_c, 0, 69, 73
1, 89707, Note_on_c, 0, 66, 74
1, 89722, Note_off_c, 0, 73, 68
1, 89769, Note_off_c, 0, 69, 61
1, 89781, Note_on_c, 0, 61, 71
1, 89811, Note_off_c, 0, 66, 62
1, 89823, Note_off_c, 0, 61, 60
1, 89865, Note_on_c, 0, 69, 76
1, 89866, Note_on_c, 0, 66, 67
1, 89868, Note_on_c, 0, 73, 79
1, 89933, Note_off_c, 0, 69, 59
1, 89936, Note_on_c, 0, 61, 80
1, 89936, Note_off_c, 0, 66, 54
1, 89954, Note_off_c, 0, 73, 60
1, 89960, Note_off_c, 0, 61, 67
1, 90023, Note_on_c, 0, 57, 64
1, 90026, Note_on_c, 0, 61, 70
1, 90091, Note_on_c, 0, 51, 75
1, 90100, Note_off_c, 0, 57, 62
1, 90121, Note_off_c, 0, 61, 60
1, 90133, Note_off_c, 0, 51, 63
1, 90135, Control_c, 0, 64, 76
1, 90149, Control_c, 0, 64, 0
1, 90175, Note_on_c, 0, 83, 94
1, 90179, Control_c, 0, 64, 45
1, 90180, Note_on_c, 0, 75, 85
1, 90181, Note_on_c, 0, 78, 83
1, 90194, Control_c, 0, 64, 92
1, 90209, Control_c, 0, 64, 127
1, 90234, Note_on_c, 0, 71, 79
1, 90234, Note_off_c, 0, 83, 67
1, 90242, Note_off_c, 0, 75, 64
1, 90249, Note_off_c, 0, 78, 65
1, 90254, Note_off_c, 0, 71, 73
1, 90323, Note_on_c, 0, 71, 71
1, 90331, Note_on_c, 0, 66, 65
1, 90338, Note_on_c, 0, 63, 70
1, 90343, Note_off_c, 0, 71, 73
1, 90399, Note_on_c, 0, 59, 65
1, 90400, Note_off_c, 0, 66, 56
1, 90412, Note_off_c, 0, 63, 62
1, 90428, Note_off_c, 0, 59, 65
1, 90491, Note_on_c, 0, 71, 70
1, 90499, Note_on_c, 0, 66, 69
1, 90503, Note_on_c, 0, 63, 62
1, 90550, Note_on_c, 0, 59, 78
1, 90550, Note_off_c, 0, 63, 46
1, 90572, Note_off_c, 0, 59, 68
1, 90588, Note_off_c, 0, 66, 61
1, 90589, Note_off_c, 0, 71, 62
1, 90634, Note_on_c, 0, 59, 58
1, 90638, Note_on_c, 0, 54, 66
1, 90690, Note_on_c, 0, 51, 70
1, 90717, Note_off_c, 0, 54, 64
1, 90719, Note_off_c, 0, 59, 60
1, 90730, Note_off_c, 0, 51, 63
1, 90765, Control_c, 0, 64, 92
1, 90780, Control_c, 0, 64, 0
1, 90805, Note_on_c, 0, 80, 89
1, 90808, Note_on_c, 0, 75, 77
1, 90810, Control_c, 0, 64, 17
1, 90810, Note_on_c, 0, 71, 81
1, 90825, Control_c, 0, 64, 82
1, 90840, Control_c, 0, 64, 127
1, 90852, Note_on_c, 0, 68, 87
1, 90858, Note_off_c, 0, 80, 66
1, 90866, Note_off_c, 0, 71, 67
1, 90879, Note_off_c, 0, 75, 63
1, 90880, Note_off_c, 0, 68, 60
1, 90928, Note_on_c, 0, 68, 62
1, 90938, Note_on_c, 0, 59, 59
1, 90941, Note_on_c, 0, 63, 62
1, 90963, Note_off_c, 0, 68, 59
1, 91007, Note_on_c, 0, 56, 63
1, 91018, Note_off_c, 0, 59, 61
1, 91019, Note_off_c, 0, 63, 60
1, 91045, Note_off_c, 0, 56, 65
1, 91105, Note_on_c, 0, 63, 63
1, 91121, Note_on_c, 0, 59, 64
1, 91129, Note_on_c, 0, 68, 37
1, 91156, Note_off_c, 0, 68, 58
1, 91158, Note_off_c, 0, 59, 52
1, 91158, Note_off_c, 0, 63, 56
1, 91176, Note_on_c, 0, 56, 59
1, 91197, Note_off_c, 0, 56, 63
1, 91257, Note_on_c, 0, 56, 76
1, 91258, Note_on_c, 0, 59, 67
1, 91297, Note_off_c, 0, 59, 57
1, 91323, Note_on_c, 0, 51, 75
1, 91323, Note_off_c, 0, 56, 62
1, 91353, Note_off_c, 0, 51, 66
1, 91410, Note_on_c, 0, 56, 84
1, 91425, Note_on_c, 0, 59, 66
1, 91428, Note_off_c, 0, 56, 74
1, 91448, Note_off_c, 0, 59, 69
1, 91462, Note_on_c, 0, 63, 67
1, 91490, Note_off_c, 0, 63, 65
1, 91566, Note_on_c, 0, 63, 76
1, 91587, Control_c, 0, 64, 98
1, 91602, Control_c, 0, 64, 76
1, 91617, Control_c, 0, 64, 50
1, 91632, Control_c, 0, 64, 0
1, 91636, Note_on_c, 0, 71, 65
1, 91644, Note_on_c, 0, 68, 54
1, 91660, Note_off_c, 0, 63, 58
1, 91663, Note_off_c, 0, 71, 69
1, 91672, Note_off_c, 0, 68, 64
1, 91735, Control_c, 0, 64, 62
1, 91744, Note_on_c, 0, 82, 71
1, 91750, Control_c, 0, 64, 68
1, 91752, Note_on_c, 0, 75, 61
1, 91754, Note_on_c, 0, 78, 57
1, 91765, Control_c, 0, 64, 76
1, 91780, Control_c, 0, 64, 89
1, 91787, Note_off_c, 0, 75, 56
1, 91794, Control_c, 0, 64, 117
1, 91805, Note_off_c, 0, 82, 63
1, 91808, Note_on_c, 0, 70, 71
1, 91809, Control_c, 0, 64, 127
1, 91814, Note_off_c, 0, 78, 54
1, 91844, Note_off_c, 0, 70, 57
1, 91887, Note_on_c, 0, 70, 55
1, 91898, Note_on_c, 0, 63, 63
1, 91898, Note_on_c, 0, 66, 61
1, 91912, Note_off_c, 0, 70, 68
1, 91960, Note_off_c, 0, 66, 61
1, 91966, Note_on_c, 0, 58, 75
1, 91968, Note_off_c, 0, 63, 62
1, 92016, Note_off_c, 0, 58, 59
1, 92017, Control_c, 0, 64, 101
1, 92032, Control_c, 0, 64, 68
1, 92038, Note_on_c, 0, 78, 83
1, 92046, Note_on_c, 0, 75, 71
1, 92047, Control_c, 0, 64, 0
1, 92050, Note_on_c, 0, 71, 72
1, 92076, Control_c, 0, 64, 29
1, 92091, Control_c, 0, 64, 74
1, 92106, Control_c, 0, 64, 99
1, 92113, Note_on_c, 0, 66, 67
1, 92120, Control_c, 0, 64, 127
1, 92125, Note_off_c, 0, 71, 57
1, 92146, Note_off_c, 0, 78, 57
1, 92156, Note_off_c, 0, 75, 60
1, 92184, Note_on_c, 0, 63, 75
1, 92198, Note_on_c, 0, 59, 65
1, 92243, Note_off_c, 0, 66, 60
1, 92285, Note_off_c, 0, 63, 61
1, 92286, Note_on_c, 0, 54, 78
1, 92287, Note_off_c, 0, 59, 62
1, 92321, Control_c, 0, 64, 107
1, 92336, Control_c, 0, 64, 71
1, 92351, Control_c, 0, 64, 0
1, 92354, Note_on_c, 0, 77, 88
1, 92360, Note_on_c, 0, 71, 75
1, 92362, Note_on_c, 0, 74, 78
1, 92365, Note_off_c, 0, 54, 60
1, 92396, Control_c, 0, 64, 65
1, 92410, Control_c, 0, 64, 82
1, 92423, Note_on_c, 0, 65, 66
1, 92425, Control_c, 0, 64, 123
1, 92440, Control_c, 0, 64, 127
1, 92448, Note_off_c, 0, 71, 56
1, 92452, Note_off_c, 0, 65, 61
1, 92459, Note_off_c, 0, 77, 62
1, 92467, Note_off_c, 0, 74, 62
1, 92501, Note_on_c, 0, 59, 64
1, 92501, Note_on_c, 0, 62, 64
1, 92508, Poly_aftertouch_c, 0, 65, 127
1, 92544, Poly_aftertouch_c, 0, 65, 0
1, 92577, Note_on_c, 0, 53, 77
1, 92578, Note_off_c, 0, 62, 60
1, 92582, Note_off_c, 0, 59, 60
1, 92632, Control_c, 0, 64, 73
1, 92636, Note_off_c, 0, 53, 62
1, 92647, Control_c, 0, 64, 0
1, 92661, Note_on_c, 0, 78, 88
1, 92668, Note_on_c, 0, 72, 75
1, 92672, Note_on_c, 0, 74, 72
1, 92691, Control_c, 0, 64, 75
1, 92706, Control_c, 0, 64, 127
1, 92716, Note_on_c, 0, 66, 83
1, 92725, Note_off_c, 0, 78, 65
1, 92731, Note_off_c, 0, 72, 62
1, 92731, Note_off_c, 0, 74, 63
1, 92756, Note_off_c, 0, 66, 60
1, 92803, Note_on_c, 0, 66, 67
1, 92812, Note_on_c, 0, 62, 63
1, 92816, Note_on_c, 0, 60, 71
1, 92845, Note_off_c, 0, 66, 60
1, 92879, Note_off_c, 0, 62, 59
1, 92885, Note_on_c, 0, 54, 73
1, 92887, Note_off_c, 0, 60, 63
1, 92917, Note_off_c, 0, 54, 69
1, 92967, Note_on_c, 0, 66, 86
1, 93029, Note_off_c, 0, 66, 61
1, 93041, Note_on_c, 0, 54, 79
1, 93070, Note_off_c, 0, 54, 63
1, 93129, Note_on_c, 0, 54, 83
1, 93156, Note_off_c, 0, 54, 59
1, 93214, Note_on_c, 0, 54, 57
1, 93242, Note_off_c, 0, 54, 60
1, 93263, Control_c, 0, 67, 51
1, 93278, Control_c, 0, 67, 127
1, 93284, Note_on_c, 0, 42, 95
1, 93305, Note_off_c, 0, 42, 70
1, 93308, Control_c, 0, 64, 66
1, 93322, Control_c, 0, 64, 0
1, 93345, Note_on_c, 0, 42, 76
1, 93379, Note_off_c, 0, 42, 57
1, 93442, Note_on_c, 0, 42, 73
1, 93466, Note_off_c, 0, 42, 66
1, 93513, Note_on_c, 0, 42, 74
1, 93552, Note_off_c, 0, 42, 62
1, 93612, Note_on_c, 0, 42, 95
1, 93633, Note_off_c, 0, 42, 70
1, 93680, Note_on_c, 0, 42, 73
1, 93724, Note_off_c, 0, 42, 61
1, 93771, Note_on_c, 0, 42, 67
1, 93805, Note_off_c, 0, 42, 64
1, 93853, Note_on_c, 0, 42, 63
1, 93883, Note_off_c, 0, 42, 64
1, 93922, Note_on_c, 0, 42, 93
1, 93944, Note_off_c, 0, 42, 71
1, 94000, Note_on_c, 0, 42, 75
1, 94032, Note_off_c, 0, 42, 61
1, 94089, Note_on_c, 0, 42, 73
1, 94115, Note_off_c, 0, 42, 65
1, 94176, Note_on_c, 0, 42, 62
1, 94208, Note_off_c, 0, 42, 56
1, 94234, Note_on_c, 0, 42, 76
1, 94253, Note_off_c, 0, 42, 63
1, 94301, Note_on_c, 0, 42, 77
1, 94340, Note_off_c, 0, 42, 59
1, 94391, Note_on_c, 0, 42, 60
1, 94418, Note_off_c, 0, 42, 59
1, 94477, Note_on_c, 0, 42, 59
1, 94517, Note_off_c, 0, 42, 63
1, 94546, Note_on_c, 0, 42, 85
1, 94569, Note_off_c, 0, 42, 69
1, 94620, Note_on_c, 0, 42, 65
1, 94669, Note_off_c, 0, 42, 61
1, 94700, Note_on_c, 0, 50, 47
1, 94703, Note_on_c, 0, 48, 54
1, 94750, Note_off_c, 0, 48, 59
1, 94768, Note_off_c, 0, 50, 56
1, 94769, Note_on_c, 0, 42, 61
1, 94813, Note_off_c, 0, 42, 62
1, 94870, Note_on_c, 0, 42, 78
1, 94890, Note_off_c, 0, 42, 66
1, 94957, Note_on_c, 0, 42, 61
1, 94998, Note_off_c, 0, 42, 61
1, 95034, Note_on_c, 0, 48, 45
1, 95045, Note_on_c, 0, 50, 28
1, 95086, Note_off_c, 0, 48, 58
1, 95094, Note_on_c, 0, 42, 57
1, 95100, Note_off_c, 0, 50, 48
1, 95143, Note_off_c, 0, 42, 61
1, 95192, Note_on_c, 0, 42, 64
1, 95216, Note_off_c, 0, 42, 61
1, 95281, Note_on_c, 0, 42, 59
1, 95323, Note_off_c, 0, 42, 63
1, 95360, Note_on_c, 0, 48, 47
1, 95362, Note_on_c, 0, 50, 38
1, 95409, Note_off_c, 0, 48, 57
1, 95418, Note_off_c, 0, 50, 55
1, 95426, Note_on_c, 0, 42, 52
1, 95469, Note_off_c, 0, 42, 59
1, 95506, Note_on_c, 0, 42, 65
1, 95535, Note_off_c, 0, 42, 48
1, 95595, Note_on_c, 0, 42, 55
1, 95629, Note_off_c, 0, 42, 63
1, 95669, Note_on_c, 0, 48, 56
1, 95677, Note_on_c, 0, 50, 38
1, 95711, Note_off_c, 0, 50, 61
1, 95732, Note_off_c, 0, 48, 60
1, 95734, Note_on_c, 0, 42, 50
1, 95764, Note_off_c, 0, 42, 63
1, 95816, Note_on_c, 0, 44, 69
1, 95843, Note_off_c, 0, 44, 65
1, 95884, Note_on_c, 0, 42, 45
1, 95911, Note_on_c, 0, 48, 34
1, 95913, Note_on_c, 0, 50, 29
1, 95923, Note_off_c, 0, 42, 61
1, 95949, Note_off_c, 0, 48, 55
1, 95952, Note_off_c, 0, 50, 51
1, 95977, Note_on_c, 0, 38, 53
1, 96014, Note_off_c, 0, 38, 57
1, 96073, Note_on_c, 0, 40, 52
1, 96076, Note_on_c, 0, 48, 31
1, 96083, Note_on_c, 0, 50, 22
1, 96104, Note_off_c, 0, 40, 56
1, 96118, Note_off_c, 0, 48, 52
1, 96126, Note_off_c, 0, 50, 51
1, 96148, Note_on_c, 0, 44, 65
1, 96176, Note_off_c, 0, 44, 64
1, 96215, Note_on_c, 0, 50, 46
1, 96216, Note_on_c, 0, 48, 50
1, 96235, Note_on_c, 0, 42, 41
1, 96257, Note_off_c, 0, 50, 63
1, 96265, Note_off_c, 0, 48, 59
1, 96268, Note_off_c, 0, 42, 53
1, 96304, Note_on_c, 0, 38, 56
1, 96333, Note_off_c, 0, 38, 58
1, 96386, Note_on_c, 0, 40, 50
1, 96390, Note_on_c, 0, 48, 35
1, 96405, Note_on_c, 0, 50, 13
1, 96418, Note_off_c, 0, 40, 56
1, 96433, Note_off_c, 0, 48, 53
1, 96450, Note_off_c, 0, 50, 44
1, 96468, Note_on_c, 0, 44, 64
1, 96494, Note_off_c, 0, 44, 63
1, 96533, Note_on_c, 0, 50, 50
1, 96536, Note_on_c, 0, 48, 49
1, 96546, Note_on_c, 0, 42, 44
1, 96578, Note_off_c, 0, 42, 57
1, 96578, Note_off_c, 0, 50, 62
1, 96579, Note_off_c, 0, 48, 59
1, 96614, Note_on_c, 0, 38, 60
1, 96648, Note_off_c, 0, 38, 62
1, 96698, Note_on_c, 0, 48, 45
1, 96699, Note_on_c, 0, 40, 51
1, 96715, Note_on_c, 0, 50, 34
1, 96734, Note_off_c, 0, 40, 55
1, 96745, Note_off_c, 0, 48, 60
1, 96757, Note_off_c, 0, 50, 56
1, 96781, Note_on_c, 0, 44, 72
1, 96816, Note_off_c, 0, 44, 62
1, 96839, Note_on_c, 0, 50, 53
1, 96855, Note_on_c, 0, 42, 54
1, 96855, Note_on_c, 0, 48, 50
1, 96888, Control_c, 0, 67, 110
1, 96890, Note_off_c, 0, 42, 64
1, 96890, Note_off_c, 0, 48, 56
1, 96891, Note_off_c, 0, 50, 62
1, 96902, Control_c, 0, 67, 82
1, 96917, Control_c, 0, 67, 49
1, 96932, Control_c, 0, 67, 14
1, 96933, Note_on_c, 0, 38, 67
1, 96947, Control_c, 0, 67, 0
1, 96965, Note_off_c, 0, 38, 63
1, 96974, Note_on_c, 0, 40, 58
1, 96982, Note_on_c, 0, 48, 53
1, 97007, Note_off_c, 0, 40, 64
1, 97014, Note_off_c, 0, 48, 64
1, 97035, Control_c, 0, 67, 26
1, 97050, Control_c, 0, 67, 85
1, 97065, Control_c, 0, 67, 127
1, 97082, Note_on_c, 0, 48, 90
1, 97085, Note_on_c, 0, 42, 72
1, 97092, Note_on_c, 0, 45, 64
1, 97097, Note_on_c, 0, 52, 74
1, 97105, Note_off_c, 0, 48, 69
1, 97115, Note_off_c, 0, 42, 64
1, 97117, Note_off_c, 0, 45, 60
1, 97146, Note_off_c, 0, 52, 56
1, 97162, Note_on_c, 0, 48, 72
1, 97207, Note_off_c, 0, 48, 59
1, 97250, Note_on_c, 0, 45, 50
1, 97299, Note_off_c, 0, 45, 60
1, 97332, Note_on_c, 0, 48, 60
1, 97368, Note_off_c, 0, 48, 62
1, 97427, Note_on_c, 0, 52, 48
1, 97430, Note_on_c, 0, 42, 56
1, 97430, Note_on_c, 0, 45, 51
1, 97442, Note_on_c, 0, 48, 41
1, 97454, Note_off_c, 0, 52, 58
1, 97457, Note_off_c, 0, 42, 59
1, 97459, Note_off_c, 0, 45, 55
1, 97487, Note_off_c, 0, 48, 0
1, 97487, Note_on_c, 0, 48, 23
1, 97540, Note_off_c, 0, 48, 60
1, 97591, Note_on_c, 0, 54, 43
1, 97592, Note_on_c, 0, 50, 66
1, 97595, Note_on_c, 0, 47, 72
1, 97620, Note_off_c, 0, 47, 66
1, 97624, Note_off_c, 0, 54, 60
1, 97632, Note_off_c, 0, 50, 0
1, 97669, Poly_aftertouch_c, 0, 50, 127
1, 97684, Poly_aftertouch_c, 0, 50, 0
1, 97747, Note_on_c, 0, 48, 83
1, 97749, Note_on_c, 0, 45, 73
1, 97754, Note_on_c, 0, 42, 67
1, 97757, Note_on_c, 0, 52, 75
1, 97765, Note_off_c, 0, 48, 67
1, 97777, Note_off_c, 0, 45, 66
1, 97785, Note_off_c, 0, 42, 64
1, 97826, Note_off_c, 0, 52, 59
1, 97829, Note_on_c, 0, 48, 71
1, 97886, Note_off_c, 0, 48, 63
1, 97931, Note_on_c, 0, 45, 62
1, 97982, Note_off_c, 0, 45, 60
1, 98010, Note_on_c, 0, 48, 62
1, 98047, Note_off_c, 0, 48, 61
1, 98086, Note_on_c, 0, 48, 68
1, 98086, Note_on_c, 0, 52, 65
1, 98089, Note_on_c, 0, 45, 58
1, 98090, Note_on_c, 0, 42, 64
1, 98107, Note_off_c, 0, 48, 64
1, 98116, Note_off_c, 0, 45, 59
1, 98119, Note_off_c, 0, 52, 63
1, 98124, Note_off_c, 0, 42, 64
1, 98177, Note_on_c, 0, 48, 64
1, 98211, Note_off_c, 0, 48, 63
1, 98256, Note_on_c, 0, 50, 77
1, 98259, Note_on_c, 0, 47, 78
1, 98268, Note_on_c, 0, 54, 45
1, 98285, Note_off_c, 0, 50, 67
1, 98288, Note_off_c, 0, 47, 66
1, 98305, Note_off_c, 0, 54, 61
1, 98340, Note_on_c, 0, 50, 60
1, 98366, Note_off_c, 0, 50, 66
1, 98415, Note_on_c, 0, 48, 102
1, 98418, Note_on_c, 0, 42, 81
1, 98420, Note_on_c, 0, 45, 78
1, 98425, Note_on_c, 0, 52, 77
1, 98436, Note_off_c, 0, 48, 70
1, 98443, Note_off_c, 0, 42, 67
1, 98443, Note_off_c, 0, 45, 68
1, 98500, Note_on_c, 0, 48, 74
1, 98503, Note_off_c, 0, 52, 58
1, 98557, Note_off_c, 0, 48, 62
1, 98591, Note_on_c, 0, 45, 59
1, 98655, Note_off_c, 0, 45, 59
1, 98673, Note_on_c, 0, 48, 64
1, 98713, Note_off_c, 0, 48, 62
1, 98753, Note_on_c, 0, 52, 49
1, 98758, Note_on_c, 0, 48, 61
1, 98762, Note_on_c, 0, 42, 56
1, 98777, Note_on_c, 0, 45, 34
1, 98781, Note_off_c, 0, 48, 60
1, 98783, Note_off_c, 0, 52, 60
1, 98796, Note_off_c, 0, 42, 64
1, 98816, Note_off_c, 0, 45, 46
1, 98819, Note_on_c, 0, 47, 59
1, 98846, Note_off_c, 0, 47, 65
1, 98904, Note_on_c, 0, 47, 83
1, 98909, Note_on_c, 0, 50, 77
1, 98912, Note_on_c, 0, 54, 53
1, 98937, Note_off_c, 0, 47, 64
1, 98937, Note_off_c, 0, 50, 67
1, 98953, Note_off_c, 0, 54, 64
1, 98986, Poly_aftertouch_c, 0, 50, 0
1, 99025, Poly_aftertouch_c, 0, 50, 0
1, 99071, Note_on_c, 0, 48, 84
1, 99075, Note_on_c, 0, 42, 71
1, 99075, Note_on_c, 0, 52, 73
1, 99082, Note_on_c, 0, 45, 61
1, 99106, Note_off_c, 0, 48, 60
1, 99112, Note_off_c, 0, 52, 63
1, 99112, Note_off_c, 0, 45, 65
1, 99132, Note_off_c, 0, 42, 60
1, 99161, Note_on_c, 0, 48, 63
1, 99208, Note_off_c, 0, 48, 62
1, 99229, Note_on_c, 0, 50, 82
1, 99231, Note_on_c, 0, 47, 75
1, 99239, Note_on_c, 0, 54, 72
1, 99258, Note_off_c, 0, 47, 66
1, 99268, Note_off_c, 0, 50, 63
1, 99281, Note_off_c, 0, 54, 64
1, 99312, Note_on_c, 0, 50, 62
1, 99356, Note_off_c, 0, 50, 63
1, 99386, Note_on_c, 0, 48, 72
1, 99392, Note_on_c, 0, 57, 71
1, 99394, Note_on_c, 0, 52, 71
1, 99425, Note_off_c, 0, 52, 64
1, 99434, Note_off_c, 0, 48, 63
1, 99443, Note_off_c, 0, 57, 63
1, 99496, Poly_aftertouch_c, 0, 52, 0
1, 99545, Note_on_c, 0, 59, 66
1, 99546, Note_on_c, 0, 50, 70
1, 99548, Note_on_c, 0, 54, 74
1, 99578, Note_off_c, 0, 54, 66
1, 99586, Note_off_c, 0, 50, 65
1, 99615, Note_off_c, 0, 59, 58
1, 99629, Poly_aftertouch_c, 0, 54, 0
1, 99654, Control_c, 0, 67, 119
1, 99669, Control_c, 0, 67, 98
1, 99683, Control_c, 0, 67, 70
1, 99698, Control_c, 0, 67, 35
1, 99713, Control_c, 0, 67, 0
1, 99757, Note_on_c, 0, 64, 74
1, 99764, Control_c, 0, 64, 66
1, 99767, Note_on_c, 0, 60, 57
1, 99779, Control_c, 0, 64, 77
1, 99794, Control_c, 0, 64, 92
1, 99804, Note_off_c, 0, 60, 62
1, 99809, Control_c, 0, 64, 127
1, 99836, Note_on_c, 0, 57, 60
1, 99856, Note_off_c, 0, 64, 61
1, 99864, Note_off_c, 0, 57, 64
1, 99927, Note_on_c, 0, 57, 61
1, 99982, Note_on_c, 0, 52, 54
1, 99982, Note_off_c, 0, 57, 60
1, 100032, Note_off_c, 0, 52, 63
1, 100077, Note_on_c, 0, 57, 78
1, 100135, Note_off_c, 0, 57, 60
1, 100157, Note_on_c, 0, 52, 70
1, 100188, Note_off_c, 0, 52, 63
1, 100254, Note_on_c, 0, 52, 69
1, 100257, Note_on_c, 0, 48, 65
1, 100327, Note_on_c, 0, 42, 71
1, 100355, Note_off_c, 0, 48, 62
1, 100373, Control_c, 0, 64, 94
1, 100379, Note_off_c, 0, 52, 61
1, 100388, Control_c, 0, 64, 33
1, 100391, Note_off_c, 0, 42, 61
1, 100399, Note_on_c, 0, 60, 81
1, 100399, Note_on_c, 0, 62, 86
1, 100403, Control_c, 0, 64, 0
1, 100432, Control_c, 0, 64, 66
1, 100447, Note_off_c, 0, 60, 64
1, 100447, Control_c, 0, 64, 127
1, 100476, Note_on_c, 0, 57, 69
1, 100502, Note_off_c, 0, 62, 60
1, 100513, Note_off_c, 0, 57, 64
1, 100575, Note_on_c, 0, 57, 69
1, 100627, Note_off_c, 0, 57, 63
1, 100641, Note_on_c, 0, 50, 59
1, 100683, Note_on_c, 0, 49, 45
1, 100689, Note_off_c, 0, 50, 64
1, 100717, Note_off_c, 0, 49, 53
1, 100738, Note_on_c, 0, 57, 77
1, 100788, Note_off_c, 0, 57, 62
1, 100808, Note_on_c, 0, 50, 73
1, 100846, Note_off_c, 0, 50, 64
1, 100887, Note_on_c, 0, 50, 57
1, 100921, Note_on_c, 0, 48, 54
1, 100982, Note_on_c, 0, 42, 65
1, 101006, Note_off_c, 0, 50, 55
1, 101010, Note_off_c, 0, 48, 62
1, 101046, Note_off_c, 0, 42, 55
1, 101086, Note_on_c, 0, 60, 73
1, 101153, Note_on_c, 0, 57, 60
1, 101162, Note_off_c, 0, 60, 55
1, 101183, Note_off_c, 0, 57, 64
1, 101232, Note_on_c, 0, 57, 68
1, 101307, Control_c, 0, 64, 102
1, 101317, Note_on_c, 0, 50, 64
1, 101321, Note_off_c, 0, 57, 55
1, 101322, Control_c, 0, 64, 68
1, 101337, Control_c, 0, 64, 0
1, 101375, Note_off_c, 0, 50, 57
1, 101401, Note_on_c, 0, 64, 86
1, 101406, Note_on_c, 0, 60, 79
1, 101411, Control_c, 0, 64, 75
1, 101426, Control_c, 0, 64, 127
1, 101444, Note_off_c, 0, 60, 60
1, 101468, Note_on_c, 0, 57, 53
1, 101474, Note_off_c, 0, 64, 65
1, 101491, Note_off_c, 0, 57, 62
1, 101553, Note_on_c, 0, 57, 67
1, 101605, Note_off_c, 0, 57, 60
1, 101618, Note_on_c, 0, 52, 76
1, 101680, Note_off_c, 0, 52, 62
1, 101692, Control_c, 0, 64, 91
1, 101707, Control_c, 0, 64, 0
1, 101717, Note_on_c, 0, 57, 97
1, 101720, Poly_aftertouch_c, 0, 52, 0
1, 101726, Note_on_c, 0, 52, 67
1, 101752, Control_c, 0, 64, 66
1, 101764, Note_off_c, 0, 52, 60
1, 101766, Control_c, 0, 64, 91
1, 101781, Control_c, 0, 64, 127
1, 101794, Note_on_c, 0, 48, 71
1, 101797, Note_off_c, 0, 57, 63
1, 101821, Note_off_c, 0, 48, 66
1, 101866, Note_on_c, 0, 48, 92
1, 101944, Note_off_c, 0, 48, 63
1, 101946, Note_on_c, 0, 45, 81
1, 102000, Note_off_c, 0, 45, 64
1, 102012, Control_c, 0, 64, 101
1, 102027, Control_c, 0, 64, 60
1, 102042, Control_c, 0, 64, 0
1, 102045, Note_on_c, 0, 60, 99
1, 102051, Note_on_c, 0, 57, 85
1, 102086, Control_c, 0, 64, 57
1, 102101, Control_c, 0, 64, 86
1, 102109, Note_off_c, 0, 57, 62
1, 102116, Control_c, 0, 64, 127
1, 102126, Note_off_c, 0, 60, 67
1, 102128, Note_on_c, 0, 52, 69
1, 102158, Note_off_c, 0, 52, 63
1, 102205, Note_on_c, 0, 52, 88
1, 102272, Note_off_c, 0, 52, 60
1, 102278, Note_on_c, 0, 48, 78
1, 102322, Note_off_c, 0, 48, 61
1, 102337, Control_c, 0, 64, 97
1, 102352, Control_c, 0, 64, 0
1, 102369, Note_on_c, 0, 64, 98
1, 102376, Note_on_c, 0, 61, 85
1, 102397, Control_c, 0, 64, 59
1, 102411, Control_c, 0, 64, 83
1, 102426, Control_c, 0, 64, 127
1, 102442, Note_off_c, 0, 64, 65
1, 102444, Note_on_c, 0, 58, 88
1, 102444, Note_off_c, 0, 61, 63
1, 102463, Note_off_c, 0, 58, 72
1, 102517, Note_on_c, 0, 58, 70
1, 102575, Note_off_c, 0, 58, 62
1, 102606, Note_on_c, 0, 52, 55
1, 102640, Note_off_c, 0, 52, 65
1, 102678, Note_on_c, 0, 52, 80
1, 102748, Note_off_c, 0, 52, 60
1, 102757, Note_on_c, 0, 49, 78
1, 102789, Note_off_c, 0, 49, 65
1, 102848, Note_on_c, 0, 49, 80
1, 102909, Control_c, 0, 67, 25
1, 102920, Note_off_c, 0, 49, 63
1, 102924, Control_c, 0, 67, 76
1, 102928, Note_on_c, 0, 46, 71
1, 102939, Control_c, 0, 67, 127
1, 102966, Note_off_c, 0, 46, 63
1, 102983, Control_c, 0, 64, 83
1, 102998, Control_c, 0, 64, 0
1, 103015, Note_on_c, 0, 42, 91
1, 103037, Note_off_c, 0, 42, 68
1, 103080, Note_on_c, 0, 42, 69
1, 103131, Note_off_c, 0, 42, 61
1, 103163, Note_on_c, 0, 46, 60
1, 103178, Note_on_c, 0, 49, 43
1, 103202, Note_off_c, 0, 46, 62
1, 103217, Note_off_c, 0, 49, 60
1, 103241, Note_on_c, 0, 42, 61
1, 103275, Note_off_c, 0, 42, 62
1, 103327, Note_on_c, 0, 42, 82
1, 103350, Note_off_c, 0, 42, 65
1, 103406, Note_on_c, 0, 42, 68
1, 103455, Note_off_c, 0, 42, 62
1, 103484, Note_on_c, 0, 46, 61
1, 103508, Note_on_c, 0, 49, 47
1, 103541, Note_off_c, 0, 46, 57
1, 103559, Note_off_c, 0, 49, 56
1, 103574, Note_on_c, 0, 42, 50
1, 103606, Note_off_c, 0, 42, 56
1, 103652, Note_on_c, 0, 42, 73
1, 103672, Note_off_c, 0, 42, 65
1, 103735, Note_on_c, 0, 42, 64
1, 103785, Note_off_c, 0, 42, 58
1, 103801, Note_on_c, 0, 46, 61
1, 103830, Note_on_c, 0, 49, 36
1, 103848, Note_off_c, 0, 46, 58
1, 103876, Note_off_c, 0, 49, 53
1, 103908, Note_on_c, 0, 42, 38
1, 103947, Note_off_c, 0, 42, 0
1, 103962, Note_on_c, 0, 42, 70
1, 103986, Note_off_c, 0, 42, 64
1, 104032, Note_on_c, 0, 42, 57
1, 104076, Note_off_c, 0, 42, 62
1, 104111, Note_on_c, 0, 46, 44
1, 104115, Note_on_c, 0, 49, 48
1, 104143, Note_off_c, 0, 46, 55
1, 104171, Note_off_c, 0, 49, 55
1, 104172, Note_on_c, 0, 42, 61
1, 104221, Note_off_c, 0, 42, 60
1, 104264, Note_on_c, 0, 43, 72
1, 104291, Note_off_c, 0, 43, 65
1, 104362, Note_on_c, 0, 42, 49
1, 104376, Note_on_c, 0, 46, 31
1, 104381, Note_on_c, 0, 49, 26
1, 104396, Note_off_c, 0, 42, 63
1, 104415, Note_off_c, 0, 46, 45
1, 104418, Note_off_c, 0, 49, 44
1, 104421, Note_on_c, 0, 38, 70
1, 104454, Note_off_c, 0, 38, 64
1, 104501, Note_on_c, 0, 49, 54
1, 104522, Note_on_c, 0, 46, 21
1, 104525, Note_on_c, 0, 40, 17
1, 104540, Note_off_c, 0, 49, 61
1, 104557, Note_off_c, 0, 46, 46
1, 104569, Note_off_c, 0, 40, 52
1, 104575, Note_on_c, 0, 43, 73
1, 104608, Note_off_c, 0, 43, 64
1, 104650, Note_on_c, 0, 46, 44
1, 104659, Note_on_c, 0, 42, 57
1, 104667, Note_on_c, 0, 49, 31
1, 104692, Note_off_c, 0, 46, 58
1, 104702, Note_off_c, 0, 49, 58
1, 104706, Note_off_c, 0, 42, 61
1, 104740, Note_on_c, 0, 38, 59
1, 104775, Note_off_c, 0, 38, 63
1, 104816, Note_on_c, 0, 49, 45
1, 104823, Note_on_c, 0, 46, 38
1, 104826, Note_on_c, 0, 40, 48
1, 104854, Note_off_c, 0, 40, 55
1, 104865, Note_off_c, 0, 49, 61
1, 104869, Note_off_c, 0, 46, 57
1, 104901, Note_on_c, 0, 43, 73
1, 104935, Note_off_c, 0, 43, 63
1, 104979, Note_on_c, 0, 49, 49
1, 104981, Note_on_c, 0, 46, 42
1, 105004, Note_on_c, 0, 42, 47
1, 105035, Note_off_c, 0, 46, 55
1, 105038, Note_off_c, 0, 49, 60
1, 105046, Note_off_c, 0, 42, 61
1, 105075, Note_on_c, 0, 38, 56
1, 105107, Note_off_c, 0, 38, 60
1, 105148, Note_on_c, 0, 49, 55
1, 105154, Note_on_c, 0, 40, 51
1, 105154, Note_on_c, 0, 46, 44
1, 105184, Note_off_c, 0, 40, 59
1, 105196, Note_off_c, 0, 46, 58
1, 105203, Note_off_c, 0, 49, 58
1, 105232, Note_on_c, 0, 43, 69
1, 105266, Note_off_c, 0, 43, 61
1, 105288, Control_c, 0, 67, 124
1, 105303, Control_c, 0, 67, 96
1, 105315, Note_on_c, 0, 42, 53
1, 105318, Control_c, 0, 67, 57
1, 105324, Note_on_c, 0, 49, 34
1, 105333, Control_c, 0, 67, 12
1, 105338, Note_on_c, 0, 46, 10
1, 105347, Control_c, 0, 67, 0
1, 105359, Note_off_c, 0, 42, 60
1, 105360, Note_off_c, 0, 49, 55
1, 105379, Note_off_c, 0, 46, 43
1, 105395, Note_on_c, 0, 38, 57
1, 105422, Note_off_c, 0, 38, 58
1, 105446, Note_on_c, 0, 49, 56
1, 105458, Note_on_c, 0, 40, 39
1, 105473, Note_off_c, 0, 49, 64
1, 105495, Note_off_c, 0, 40, 54
1, 105525, Control_c, 0, 67, 37
1, 105539, Control_c, 0, 67, 114
1, 105554, Control_c, 0, 67, 127
1, 105558, Note_on_c, 0, 52, 91
1, 105565, Note_on_c, 0, 42, 70
1, 105565, Note_on_c, 0, 55, 83
1, 105570, Note_on_c, 0, 46, 53
1, 105580, Note_off_c, 0, 52, 69
1, 105588, Note_off_c, 0, 42, 64
1, 105601, Note_off_c, 0, 46, 47
1, 105622, Note_off_c, 0, 55, 62
1, 105634, Note_on_c, 0, 52, 71
1, 105675, Note_off_c, 0, 52, 64
1, 105725, Note_on_c, 0, 49, 60
1, 105759, Note_off_c, 0, 49, 65
1, 105815, Note_on_c, 0, 52, 51
1, 105849, Note_off_c, 0, 52, 63
1, 105898, Note_on_c, 0, 46, 59
1, 105906, Note_on_c, 0, 42, 53
1, 105906, Note_on_c, 0, 52, 49
1, 105908, Note_on_c, 0, 55, 61
1, 105927, Note_off_c, 0, 46, 64
1, 105935, Note_off_c, 0, 42, 60
1, 105935, Note_off_c, 0, 52, 56
1, 105942, Note_off_c, 0, 55, 63
1, 106006, Note_on_c, 0, 52, 43
1, 106037, Note_off_c, 0, 52, 55
1, 106066, Note_on_c, 0, 51, 73
1, 106069, Note_on_c, 0, 57, 65
1, 106070, Note_on_c, 0, 54, 68
1, 106091, Note_off_c, 0, 51, 67
1, 106093, Note_off_c, 0, 54, 67
1, 106117, Note_off_c, 0, 57, 54
1, 106159, Note_on_c, 0, 54, 53
1, 106182, Note_off_c, 0, 54, 64
1, 106227, Note_on_c, 0, 52, 91
1, 106231, Note_on_c, 0, 46, 72
1, 106233, Note_on_c, 0, 42, 77
1, 106234, Note_on_c, 0, 55, 83
1, 106248, Note_off_c, 0, 52, 70
1, 106261, Note_off_c, 0, 46, 64
1, 106265, Note_off_c, 0, 42, 64
1, 106305, Note_off_c, 0, 55, 61
1, 106309, Note_on_c, 0, 52, 72
1, 106365, Note_off_c, 0, 52, 62
1, 106412, Note_on_c, 0, 49, 64
1, 106446, Note_off_c, 0, 49, 65
1, 106495, Note_on_c, 0, 52, 57
1, 106537, Note_off_c, 0, 52, 59
1, 106585, Note_on_c, 0, 46, 45
1, 106586, Note_on_c, 0, 42, 53
1, 106590, Note_on_c, 0, 55, 62
1, 106593, Note_on_c, 0, 52, 44
1, 106614, Note_off_c, 0, 46, 55
1, 106615, Note_off_c, 0, 42, 58
1, 106625, Note_off_c, 0, 55, 63
1, 106626, Note_off_c, 0, 52, 53
1, 106682, Note_on_c, 0, 52, 51
1, 106717, Note_off_c, 0, 52, 62
1, 106744, Note_on_c, 0, 51, 74
1, 106745, Note_on_c, 0, 54, 72
1, 106755, Note_on_c, 0, 57, 57
1, 106769, Note_off_c, 0, 51, 67
1, 106775, Note_off_c, 0, 54, 68
1, 106803, Note_off_c, 0, 57, 57
1, 106821, Note_on_c, 0, 54, 69
1, 106856, Note_off_c, 0, 54, 67
1, 106903, Note_on_c, 0, 46, 90
1, 106903, Note_on_c, 0, 52, 95
1, 106911, Note_on_c, 0, 42, 70
1, 106916, Note_on_c, 0, 55, 82
1, 106922, Note_off_c, 0, 52, 70
1, 106931, Note_off_c, 0, 46, 61
1, 106942, Note_off_c, 0, 42, 65
1, 106985, Note_on_c, 0, 52, 71
1, 106989, Note_off_c, 0, 55, 61
1, 107045, Note_off_c, 0, 52, 61
1, 107078, Note_on_c, 0, 49, 65
1, 107119, Note_off_c, 0, 49, 62
1, 107157, Note_on_c, 0, 52, 62
1, 107196, Note_off_c, 0, 52, 59
1, 107251, Note_on_c, 0, 52, 71
1, 107253, Note_on_c, 0, 55, 64
1, 107255, Note_on_c, 0, 46, 51
1, 107283, Note_off_c, 0, 46, 57
1, 107283, Note_off_c, 0, 52, 62
1, 107283, Note_off_c, 0, 55, 64
1, 107366, Poly_aftertouch_c, 0, 52, 0
1, 107410, Note_on_c, 0, 51, 79
1, 107410, Note_on_c, 0, 54, 77
1, 107413, Note_on_c, 0, 57, 64
1, 107437, Note_off_c, 0, 51, 68
1, 107446, Note_off_c, 0, 54, 58
1, 107461, Note_off_c, 0, 57, 56
1, 107480, Note_on_c, 0, 54, 54
1, 107525, Note_off_c, 0, 54, 64
1, 107572, Note_on_c, 0, 46, 80
1, 107574, Note_on_c, 0, 52, 87
1, 107584, Note_on_c, 0, 55, 69
1, 107587, Note_on_c, 0, 42, 55
1, 107610, Note_off_c, 0, 46, 60
1, 107616, Note_off_c, 0, 42, 57
1, 107624, Note_off_c, 0, 55, 61
1, 107627, Note_off_c, 0, 52, 0
1, 107664, Poly_aftertouch_c, 0, 52, 127
1, 107694, Poly_aftertouch_c, 0, 52, 0
1, 107723, Note_on_c, 0, 57, 67
1, 107728, Note_on_c, 0, 54, 95
1, 107733, Note_on_c, 0, 51, 87
1, 107762, Note_off_c, 0, 51, 64
1, 107769, Note_off_c, 0, 57, 60
1, 107819, Note_off_c, 0, 54, 63
1, 107888, Note_on_c, 0, 52, 97
1, 107888, Note_on_c, 0, 55, 98
1, 107897, Note_on_c, 0, 58, 68
1, 107914, Note_off_c, 0, 52, 65
1, 107923, Note_off_c, 0, 55, 59
1, 107938, Note_off_c, 0, 58, 60
1, 107960, Note_on_c, 0, 55, 47
1, 108010, Note_off_c, 0, 55, 56
1, 108042, Note_on_c, 0, 57, 96
1, 108044, Note_on_c, 0, 61, 68
1, 108051, Note_on_c, 0, 54, 79
1, 108064, Note_off_c, 0, 57, 64
1, 108072, Note_off_c, 0, 54, 68
1, 108107, Note_off_c, 0, 61, 61
1, 108115, Note_on_c, 0, 57, 64
1, 108138, Note_off_c, 0, 57, 61
1, 108238, Control_c, 0, 67, 91
1, 108253, Control_c, 0, 67, 40
1, 108269, Control_c, 0, 67, 0
1, 108283, Control_c, 0, 64, 127
1, 108289, Note_on_c, 0, 76, 73
1, 108291, Note_on_c, 0, 72, 69
1, 108296, Note_on_c, 0, 70, 67
1, 108331, Note_off_c, 0, 70, 59
1, 108331, Note_off_c, 0, 72, 59
1, 108341, Note_off_c, 0, 76, 56
1, 108349, Note_on_c, 0, 64, 83
1, 108373, Note_off_c, 0, 64, 70
1, 108446, Note_on_c, 0, 64, 55
1, 108455, Note_on_c, 0, 58, 52
1, 108466, Note_on_c, 0, 60, 46
1, 108478, Note_off_c, 0, 64, 56
1, 108503, Note_off_c, 0, 58, 64
1, 108516, Note_off_c, 0, 60, 57
1, 108522, Note_on_c, 0, 52, 63
1, 108570, Note_off_c, 0, 52, 62
1, 108612, Note_on_c, 0, 64, 57
1, 108623, Note_on_c, 0, 60, 52
1, 108636, Note_on_c, 0, 58, 47
1, 108666, Note_off_c, 0, 58, 65
1, 108678, Note_on_c, 0, 52, 65
1, 108706, Note_off_c, 0, 60, 61
1, 108711, Note_off_c, 0, 52, 62
1, 108724, Note_off_c, 0, 64, 62
1, 108767, Note_on_c, 0, 52, 59
1, 108836, Note_on_c, 0, 42, 74
1, 108879, Note_off_c, 0, 42, 62
1, 108893, Note_off_c, 0, 52, 62
1, 108898, Control_c, 0, 64, 82
1, 108913, Control_c, 0, 64, 0
1, 108929, Note_on_c, 0, 74, 83
1, 108933, Note_on_c, 0, 72, 85
1, 108937, Note_on_c, 0, 70, 74
1, 108958, Control_c, 0, 64, 127
1, 108983, Note_on_c, 0, 62, 75
1, 108986, Note_off_c, 0, 74, 69
1, 108993, Note_off_c, 0, 70, 64
1, 109000, Note_off_c, 0, 72, 62
1, 109004, Note_off_c, 0, 62, 65
1, 109080, Note_on_c, 0, 64, 72
1, 109103, Note_off_c, 0, 64, 67
1, 109105, Note_on_c, 0, 58, 61
1, 109121, Note_on_c, 0, 60, 56
1, 109153, Note_off_c, 0, 60, 65
1, 109157, Note_off_c, 0, 58, 64
1, 109177, Note_on_c, 0, 50, 64
1, 109204, Note_off_c, 0, 50, 66
1, 109262, Note_on_c, 0, 62, 64
1, 109276, Note_on_c, 0, 58, 56
1, 109277, Note_on_c, 0, 60, 40
1, 109315, Note_on_c, 0, 50, 53
1, 109341, Note_off_c, 0, 50, 64
1, 109354, Note_off_c, 0, 58, 58
1, 109363, Note_off_c, 0, 60, 62
1, 109369, Note_off_c, 0, 62, 60
1, 109413, Note_on_c, 0, 50, 62
1, 109465, Note_on_c, 0, 42, 71
1, 109507, Note_off_c, 0, 50, 63
1, 109510, Note_off_c, 0, 42, 62
1, 109584, Note_on_c, 0, 72, 66
1, 109587, Note_on_c, 0, 70, 58
1, 109643, Note_on_c, 0, 62, 61
1, 109690, Note_off_c, 0, 62, 0
1, 109703, Note_off_c, 0, 72, 58
1, 109703, Note_off_c, 0, 70, 57
1, 109727, Poly_aftertouch_c, 0, 62, 127
1, 109749, Poly_aftertouch_c, 0, 62, 0
1, 109759, Note_on_c, 0, 60, 53
1, 109768, Note_on_c, 0, 58, 58
1, 109810, Note_off_c, 0, 60, 58
1, 109813, Note_off_c, 0, 58, 61
1, 109818, Note_on_c, 0, 50, 70
1, 109854, Control_c, 0, 64, 118
1, 109870, Control_c, 0, 64, 73
1, 109878, Note_off_c, 0, 50, 63
1, 109885, Control_c, 0, 64, 0
1, 109905, Note_on_c, 0, 72, 68
1, 109908, Note_on_c, 0, 76, 80
1, 109914, Control_c, 0, 64, 69
1, 109915, Note_on_c, 0, 70, 69
1, 109929, Control_c, 0, 64, 101
1, 109944, Control_c, 0, 64, 127
1, 109960, Note_on_c, 0, 64, 71
1, 109960, Note_off_c, 0, 76, 60
1, 109992, Note_off_c, 0, 64, 60
1, 109995, Note_off_c, 0, 70, 62
1, 109998, Note_off_c, 0, 72, 58
1, 110036, Note_on_c, 0, 64, 66
1, 110083, Note_on_c, 0, 60, 47
1, 110085, Note_off_c, 0, 64, 66
1, 110090, Note_on_c, 0, 58, 62
1, 110145, Note_on_c, 0, 52, 67
1, 110145, Note_off_c, 0, 58, 64
1, 110160, Note_off_c, 0, 60, 62
1, 110192, Note_off_c, 0, 52, 61
1, 110221, Note_on_c, 0, 67, 85
1, 110222, Note_on_c, 0, 60, 62
1, 110239, Note_on_c, 0, 64, 74
1, 110283, Note_on_c, 0, 55, 80
1, 110297, Note_off_c, 0, 67, 57
1, 110299, Note_off_c, 0, 60, 63
1, 110318, Note_off_c, 0, 55, 63
1, 110326, Note_off_c, 0, 64, 64
1, 110381, Note_on_c, 0, 55, 79
1, 110424, Note_off_c, 0, 55, 64
1, 110463, Note_on_c, 0, 42, 87
1, 110496, Note_off_c, 0, 42, 65
1, 110543, Control_c, 0, 64, 82
1, 110552, Note_on_c, 0, 70, 91
1, 110558, Control_c, 0, 64, 0
1, 110564, Note_on_c, 0, 67, 80
1, 110565, Note_on_c, 0, 64, 73
1, 110585, Note_on_c, 0, 66, 12
1, 110586, Note_off_c, 0, 66, 127
1, 110588, Control_c, 0, 64, 55
1, 110603, Control_c, 0, 64, 78
1, 110618, Control_c, 0, 64, 111
1, 110621, Note_on_c, 0, 58, 84
1, 110631, Note_off_c, 0, 64, 62
1, 110633, Control_c, 0, 64, 127
1, 110645, Note_off_c, 0, 67, 60
1, 110655, Note_off_c, 0, 70, 64
1, 110665, Note_off_c, 0, 58, 59
1, 110714, Note_on_c, 0, 64, 82
1, 110777, Note_off_c, 0, 64, 62
1, 110791, Note_on_c, 0, 58, 45
1, 110809, Note_on_c, 0, 57, 45
1, 110812, Note_off_c, 0, 58, 63
1, 110826, Control_c, 0, 64, 81
1, 110836, Note_off_c, 0, 57, 58
1, 110841, Control_c, 0, 64, 0
1, 110858, Note_on_c, 0, 76, 91
1, 110860, Note_on_c, 0, 74, 92
1, 110864, Note_on_c, 0, 68, 90
1, 110885, Control_c, 0, 64, 71
1, 110900, Control_c, 0, 64, 127
1, 110922, Note_off_c, 0, 76, 65
1, 110928, Note_on_c, 0, 64, 84
1, 110944, Note_off_c, 0, 74, 68
1, 110951, Note_off_c, 0, 64, 67
1, 110958, Note_off_c, 0, 68, 59
1, 111035, Note_on_c, 0, 64, 83
1, 111059, Note_off_c, 0, 64, 68
1, 111098, Note_on_c, 0, 52, 72
1, 111150, Note_off_c, 0, 52, 64
1, 111181, Note_on_c, 0, 64, 83
1, 111245, Note_on_c, 0, 52, 77
1, 111250, Note_off_c, 0, 64, 61
1, 111283, Note_off_c, 0, 52, 59
1, 111318, Note_on_c, 0, 52, 81
1, 111352, Control_c, 0, 67, 25
1, 111366, Control_c, 0, 67, 70
1, 111381, Control_c, 0, 64, 95
1, 111381, Control_c, 0, 67, 123
1, 111384, Note_off_c, 0, 52, 61
1, 111396, Control_c, 0, 64, 65
1, 111396, Control_c, 0, 67, 127
1, 111399, Note_on_c, 0, 40, 87
1, 111411, Control_c, 0, 64, 0
1, 111429, Note_off_c, 0, 40, 66
1, 111482, Note_on_c, 0, 52, 85
1, 111485, Note_on_c, 0, 62, 70
1, 111486, Note_on_c, 0, 56, 71
1, 111501, Note_on_c, 0, 64, 52
1, 111505, Note_off_c, 0, 52, 68
1, 111512, Note_off_c, 0, 56, 69
1, 111513, Note_off_c, 0, 62, 64
1, 111524, Note_off_c, 0, 64, 61
1, 111556, Note_on_c, 0, 52, 76
1, 111595, Note_off_c, 0, 52, 61
1, 111641, Note_on_c, 0, 60, 73
1, 111644, Note_on_c, 0, 55, 70
1, 111646, Note_on_c, 0, 65, 64
1, 111667, Note_off_c, 0, 60, 67
1, 111668, Note_off_c, 0, 55, 65
1, 111674, Note_off_c, 0, 65, 64
1, 111714, Note_on_c, 0, 55, 74
1, 111747, Note_off_c, 0, 55, 67
1, 111802, Note_on_c, 0, 52, 74
1, 111804, Note_on_c, 0, 62, 69
1, 111807, Note_on_c, 0, 56, 68
1, 111829, Note_off_c, 0, 52, 63
1, 111833, Note_off_c, 0, 62, 65
1, 111834, Note_off_c, 0, 56, 66
1, 111878, Note_on_c, 0, 52, 78
1, 111906, Note_off_c, 0, 52, 66
1, 111962, Note_on_c, 0, 63, 71
1, 111963, Note_on_c, 0, 53, 77
1, 111968, Note_on_c, 0, 57, 57
1, 111990, Note_off_c, 0, 53, 66
1, 111991, Note_off_c, 0, 63, 63
1, 111992, Note_off_c, 0, 57, 62
1, 112034, Note_on_c, 0, 53, 85
1, 112063, Note_off_c, 0, 53, 68
1, 112117, Note_on_c, 0, 50, 77
1, 112123, Note_on_c, 0, 54, 65
1, 112124, Note_on_c, 0, 60, 58
1, 112132, Note_on_c, 0, 62, 47
1, 112147, Note_off_c, 0, 50, 67
1, 112155, Note_off_c, 0, 60, 67
1, 112156, Note_off_c, 0, 54, 67
1, 112159, Note_off_c, 0, 62, 57
1, 112185, Note_on_c, 0, 50, 90
1, 112216, Note_off_c, 0, 50, 67
1, 112270, Note_on_c, 0, 48, 84
1, 112272, Note_on_c, 0, 52, 71
1, 112275, Note_on_c, 0, 58, 68
1, 112299, Note_off_c, 0, 48, 65
1, 112305, Note_off_c, 0, 52, 64
1, 112306, Note_off_c, 0, 58, 65
1, 112348, Note_on_c, 0, 48, 90
1, 112373, Note_off_c, 0, 48, 66
1, 112423, Note_on_c, 0, 45, 87
1, 112425, Note_on_c, 0, 49, 81
1, 112427, Note_on_c, 0, 55, 68
1, 112448, Note_off_c, 0, 45, 70
1, 112455, Note_on_c, 0, 57, 29
1, 112458, Note_off_c, 0, 55, 65
1, 112461, Note_off_c, 0, 49, 61
1, 112498, Note_off_c, 0, 57, 50
1, 112513, Note_on_c, 0, 45, 81
1, 112524, Control_c, 0, 64, 45
1, 112538, Control_c, 0, 64, 60
1, 112553, Control_c, 0, 64, 65
1, 112554, Note_off_c, 0, 45, 61
1, 112568, Control_c, 0, 64, 67
1, 112582, Control_c, 0, 64, 69
1, 112588, Note_on_c, 0, 58, 72
1, 112590, Note_on_c, 0, 48, 85
1, 112597, Note_on_c, 0, 53, 61
1, 112597, Control_c, 0, 64, 72
1, 112612, Control_c, 0, 64, 76
1, 112615, Note_on_c, 0, 60, 31
1, 112627, Control_c, 0, 64, 83
1, 112630, Note_off_c, 0, 58, 58
1, 112633, Note_off_c, 0, 53, 66
1, 112642, Control_c, 0, 64, 97
1, 112651, Note_off_c, 0, 60, 59
1, 112657, Control_c, 0, 64, 127
1, 112675, Note_off_c, 0, 48, 64
1, 112746, Control_c, 0, 64, 107
1, 112749, Note_on_c, 0, 53, 79
1, 112751, Note_on_c, 0, 55, 81
1, 112752, Note_on_c, 0, 40, 89
1, 112753, Note_on_c, 0, 46, 92
1, 112761, Control_c, 0, 64, 64
1, 112762, Note_on_c, 0, 48, 74
1, 112776, Control_c, 0, 64, 0
1, 112776, Note_off_c, 0, 55, 68
1, 112783, Note_off_c, 0, 46, 64
1, 112791, Note_off_c, 0, 48, 66
1, 112796, Note_off_c, 0, 53, 67
1, 112836, Note_on_c, 0, 43, 68
1, 112845, Note_off_c, 0, 40, 0
1, 112863, Note_on_c, 0, 40, 40
1, 112866, Note_off_c, 0, 43, 61
1, 112925, Note_on_c, 0, 43, 69
1, 112951, Note_off_c, 0, 43, 65
1, 113015, Note_on_c, 0, 43, 70
1, 113041, Note_off_c, 0, 43, 65
1, 113058, Note_off_c, 0, 40, 0
1, 113074, Note_on_c, 0, 40, 49
1, 113090, Note_on_c, 0, 55, 69
1, 113092, Note_on_c, 0, 45, 85
1, 113096, Note_on_c, 0, 49, 73
1, 113120, Note_off_c, 0, 55, 63
1, 113122, Note_off_c, 0, 45, 66
1, 113125, Note_off_c, 0, 49, 65
1, 113146, Note_on_c, 0, 57, 3
1, 113147, Control_c, 0, 67, 124
1, 113158, Note_on_c, 0, 45, 71
1, 113161, Control_c, 0, 67, 94
1, 113176, Control_c, 0, 67, 51
1, 113186, Note_off_c, 0, 57, 26
1, 113191, Control_c, 0, 67, 0
1, 113196, Note_off_c, 0, 45, 63
1, 113220, Control_c, 0, 64, 40
1, 113243, Control_c, 0, 64, 57
1, 113250, Note_off_c, 0, 40, 0
1, 113250, Note_on_c, 0, 40, 2
1, 113250, Note_on_c, 0, 45, 74
1, 113258, Control_c, 0, 64, 64
1, 113273, Control_c, 0, 64, 72
1, 113278, Note_off_c, 0, 45, 67
1, 113287, Control_c, 0, 64, 83
1, 113302, Control_c, 0, 64, 104
1, 113317, Control_c, 0, 64, 127
1, 113329, Note_on_c, 0, 45, 73
1, 113345, Note_off_c, 0, 45, 70
1, 113391, Control_c, 0, 67, 20
1, 113405, Control_c, 0, 64, 71
1, 113405, Control_c, 0, 67, 99
1, 113419, Note_on_c, 0, 62, 73
1, 113420, Control_c, 0, 64, 0
1, 113420, Control_c, 0, 67, 127
1, 113421, Note_on_c, 0, 52, 81
1, 113421, Note_on_c, 0, 56, 79
1, 113423, Note_on_c, 0, 64, 65
1, 113448, Note_off_c, 0, 64, 69
1, 113450, Note_off_c, 0, 52, 61
1, 113450, Note_off_c, 0, 56, 64
1, 113450, Note_off_c, 0, 62, 61
1, 113464, Note_off_c, 0, 40, 56
1, 113494, Note_on_c, 0, 52, 80
1, 113522, Note_off_c, 0, 52, 66
1, 113583, Note_on_c, 0, 52, 83
1, 113594, Note_on_c, 0, 47, 70
1, 113608, Note_off_c, 0, 52, 68
1, 113621, Note_off_c, 0, 47, 66
1, 113649, Note_on_c, 0, 52, 77
1, 113682, Note_off_c, 0, 52, 64
1, 113731, Note_on_c, 0, 40, 71
1, 113734, Note_on_c, 0, 52, 81
1, 113762, Note_off_c, 0, 52, 67
1, 113769, Note_off_c, 0, 40, 64
1, 113810, Note_on_c, 0, 52, 90
1, 113849, Note_off_c, 0, 52, 58
1, 113894, Note_on_c, 0, 52, 76
1, 113897, Note_on_c, 0, 47, 82
1, 113921, Note_off_c, 0, 52, 66
1, 113922, Note_off_c, 0, 47, 69
1, 113996, Note_on_c, 0, 52, 41
1, 114020, Note_off_c, 0, 52, 59
1, 114052, Note_on_c, 0, 56, 88
1, 114056, Note_on_c, 0, 52, 78
1, 114057, Note_on_c, 0, 62, 74
1, 114074, Note_on_c, 0, 64, 50
1, 114080, Note_off_c, 0, 52, 66
1, 114087, Note_off_c, 0, 56, 64
1, 114089, Note_off_c, 0, 62, 63
1, 114099, Note_off_c, 0, 64, 60
1, 114123, Note_on_c, 0, 52, 86
1, 114172, Note_off_c, 0, 52, 62
1, 114211, Note_on_c, 0, 55, 91
1, 114214, Note_on_c, 0, 60, 74
1, 114217, Note_on_c, 0, 65, 71
1, 114235, Note_off_c, 0, 55, 65
1, 114237, Note_off_c, 0, 60, 70
1, 114242, Note_off_c, 0, 65, 67
1, 114284, Note_on_c, 0, 55, 83
1, 114319, Note_off_c, 0, 55, 61
1, 114371, Note_on_c, 0, 52, 78
1, 114371, Note_on_c, 0, 62, 71
1, 114374, Note_on_c, 0, 56, 69
1, 114396, Note_off_c, 0, 52, 65
1, 114402, Note_off_c, 0, 62, 61
1, 114407, Note_off_c, 0, 56, 62
1, 114442, Note_on_c, 0, 52, 84
1, 114474, Note_off_c, 0, 52, 63
1, 114533, Note_on_c, 0, 57, 64
1, 114534, Note_on_c, 0, 53, 77
1, 114537, Note_on_c, 0, 63, 69
1, 114560, Note_off_c, 0, 57, 67
1, 114563, Note_off_c, 0, 53, 64
1, 114565, Note_off_c, 0, 63, 66
1, 114611, Note_on_c, 0, 53, 73
1, 114634, Note_off_c, 0, 53, 68
1, 114688, Note_on_c, 0, 50, 83
1, 114692, Note_on_c, 0, 54, 70
1, 114692, Note_on_c, 0, 60, 70
1, 114718, Note_off_c, 0, 50, 66
1, 114726, Note_on_c, 0, 62, 29
1, 114730, Note_off_c, 0, 60, 66
1, 114735, Note_off_c, 0, 54, 66
1, 114764, Note_off_c, 0, 62, 45
1, 114770, Note_on_c, 0, 50, 89
1, 114803, Note_off_c, 0, 50, 64
1, 114851, Note_on_c, 0, 48, 81
1, 114852, Note_on_c, 0, 52, 73
1, 114859, Note_on_c, 0, 58, 66
1, 114882, Note_off_c, 0, 48, 63
1, 114886, Note_off_c, 0, 52, 65
1, 114892, Note_off_c, 0, 58, 63
1, 114927, Note_on_c, 0, 48, 91
1, 114954, Note_off_c, 0, 48, 64
1, 115015, Note_on_c, 0, 45, 80
1, 115015, Note_on_c, 0, 55, 74
1, 115017, Note_on_c, 0, 49, 78
1, 115042, Note_off_c, 0, 45, 67
1, 115046, Note_off_c, 0, 55, 63
1, 115049, Note_off_c, 0, 49, 66
1, 115081, Control_c, 0, 64, 36
1, 115082, Note_on_c, 0, 45, 90
1, 115096, Control_c, 0, 64, 63
1, 115096, Control_c, 0, 67, 125
1, 115111, Control_c, 0, 64, 70
1, 115111, Control_c, 0, 67, 82
1, 115122, Note_off_c, 0, 45, 64
1, 115125, Control_c, 0, 64, 77
1, 115125, Control_c, 0, 67, 0
1, 115140, Control_c, 0, 64, 84
1, 115155, Control_c, 0, 64, 92
1, 115170, Control_c, 0, 64, 102
1, 115172, Note_on_c, 0, 58, 72
1, 115173, Note_on_c, 0, 48, 85
1, 115177, Note_on_c, 0, 53, 64
1, 115182, Note_on_c, 0, 60, 48
1, 115185, Control_c, 0, 64, 118
1, 115200, Control_c, 0, 64, 127
1, 115204, Note_off_c, 0, 53, 67
1, 115206, Note_off_c, 0, 60, 59
1, 115207, Note_off_c, 0, 58, 57
1, 115244, Control_c, 0, 64, 99
1, 115259, Control_c, 0, 64, 76
1, 115259, Control_c, 0, 67, 45
1, 115259, Note_off_c, 0, 48, 65
1, 115274, Control_c, 0, 64, 0
1, 115274, Control_c, 0, 67, 125
1, 115289, Control_c, 0, 67, 127
1, 115334, Note_on_c, 0, 43, 86
1, 115345, Note_on_c, 0, 55, 62
1, 115348, Note_on_c, 0, 53, 62
1, 115359, Note_off_c, 0, 43, 67
1, 115361, Note_on_c, 0, 52, 51
1, 115376, Note_off_c, 0, 55, 64
1, 115378, Note_off_c, 0, 53, 66
1, 115389, Note_off_c, 0, 52, 58
1, 115422, Note_on_c, 0, 47, 62
1, 115450, Note_off_c, 0, 47, 65
1, 115510, Note_on_c, 0, 46, 85
1, 115517, Note_on_c, 0, 56, 75
1, 115519, Note_on_c, 0, 58, 71
1, 115540, Note_off_c, 0, 46, 64
1, 115573, Note_off_c, 0, 56, 62
1, 115573, Note_off_c, 0, 58, 60
1, 115593, Note_on_c, 0, 50, 70
1, 115622, Note_off_c, 0, 50, 67
1, 115677, Note_on_c, 0, 43, 72
1, 115685, Note_on_c, 0, 55, 62
1, 115688, Note_on_c, 0, 53, 63
1, 115711, Note_off_c, 0, 43, 66
1, 115721, Note_off_c, 0, 55, 65
1, 115729, Note_off_c, 0, 53, 65
1, 115766, Note_on_c, 0, 47, 59
1, 115793, Note_off_c, 0, 47, 62
1, 115846, Note_on_c, 0, 40, 61
1, 115850, Note_on_c, 0, 50, 60
1, 115850, Note_on_c, 0, 52, 48
1, 115879, Note_off_c, 0, 40, 64
1, 115884, Note_off_c, 0, 52, 61
1, 115903, Note_off_c, 0, 50, 64
1, 115936, Note_on_c, 0, 44, 59
1, 115972, Note_off_c, 0, 44, 62
1, 116011, Note_on_c, 0, 41, 64
1, 116015, Note_on_c, 0, 50, 56
1, 116042, Note_off_c, 0, 41, 63
1, 116048, Note_off_c, 0, 50, 66
1, 116085, Note_on_c, 0, 46, 55
1, 116133, Note_off_c, 0, 46, 59
1, 116165, Note_on_c, 0, 44, 76
1, 116174, Note_on_c, 0, 53, 58
1, 116197, Note_off_c, 0, 44, 63
1, 116213, Note_off_c, 0, 53, 65
1, 116249, Note_on_c, 0, 49, 55
1, 116297, Note_off_c, 0, 49, 60
1, 116333, Note_on_c, 0, 41, 61
1, 116339, Note_on_c, 0, 50, 44
1, 116368, Note_off_c, 0, 41, 62
1, 116377, Note_off_c, 0, 50, 65
1, 116405, Note_on_c, 0, 46, 55
1, 116455, Note_off_c, 0, 46, 57
1, 116493, Note_on_c, 0, 40, 56
1, 116497, Note_on_c, 0, 48, 54
1, 116529, Note_off_c, 0, 40, 64
1, 116541, Note_off_c, 0, 48, 61
1, 116582, Note_on_c, 0, 44, 52
1, 116621, Note_off_c, 0, 44, 63
1, 116657, Note_on_c, 0, 45, 74
1, 116658, Note_on_c, 0, 52, 67
1, 116663, Note_on_c, 0, 38, 64
1, 116678, Note_off_c, 0, 45, 65
1, 116689, Note_off_c, 0, 38, 58
1, 116733, Note_off_c, 0, 52, 60
1, 116741, Note_on_c, 0, 48, 60
1, 116800, Note_off_c, 0, 48, 60
1, 116839, Note_on_c, 0, 45, 43
1, 116890, Note_off_c, 0, 45, 59
1, 116931, Note_on_c, 0, 48, 49
1, 116976, Note_off_c, 0, 48, 58
1, 117002, Note_on_c, 0, 38, 60
1, 117011, Note_on_c, 0, 45, 43
1, 117017, Note_on_c, 0, 52, 52
1, 117036, Note_off_c, 0, 38, 63
1, 117041, Note_off_c, 0, 45, 54
1, 117054, Note_off_c, 0, 52, 63
1, 117094, Note_on_c, 0, 48, 49
1, 117132, Note_off_c, 0, 48, 63
1, 117168, Note_on_c, 0, 50, 69
1, 117171, Note_on_c, 0, 54, 49
1, 117183, Note_on_c, 0, 47, 55
1, 117197, Note_off_c, 0, 50, 67
1, 117209, Note_off_c, 0, 47, 58
1, 117223, Note_off_c, 0, 54, 58
1, 117252, Note_on_c, 0, 50, 58
1, 117280, Note_off_c, 0, 50, 64
1, 117331, Note_on_c, 0, 38, 86
1, 117337, Note_on_c, 0, 52, 72
1, 117340, Note_on_c, 0, 45, 71
1, 117358, Note_off_c, 0, 38, 68
1, 117361, Note_off_c, 0, 45, 64
1, 117404, Note_off_c, 0, 52, 61
1, 117417, Note_on_c, 0, 48, 57
1, 117458, Note_off_c, 0, 48, 64
1, 117504, Note_on_c, 0, 45, 47
1, 117569, Note_off_c, 0, 45, 61
1, 117593, Note_on_c, 0, 48, 49
1, 117638, Note_off_c, 0, 48, 58
1, 117673, Note_on_c, 0, 38, 64
1, 117677, Note_on_c, 0, 52, 57
1, 117678, Note_on_c, 0, 45, 58
1, 117701, Note_off_c, 0, 38, 60
1, 117703, Note_off_c, 0, 45, 59
1, 117711, Note_off_c, 0, 52, 63
1, 117767, Note_on_c, 0, 48, 52
1, 117808, Note_off_c, 0, 48, 60
1, 117841, Note_on_c, 0, 47, 77
1, 117842, Note_on_c, 0, 50, 66
1, 117855, Note_on_c, 0, 54, 44
1, 117865, Note_off_c, 0, 47, 68
1, 117873, Note_off_c, 0, 50, 67
1, 117903, Note_off_c, 0, 54, 55
1, 117933, Note_on_c, 0, 50, 57
1, 117960, Note_off_c, 0, 50, 62
1, 118017, Note_on_c, 0, 38, 84
1, 118017, Note_on_c, 0, 52, 74
1, 118018, Note_on_c, 0, 45, 85
1, 118042, Note_off_c, 0, 45, 68
1, 118049, Note_off_c, 0, 38, 66
1, 118094, Note_off_c, 0, 52, 59
1, 118097, Note_on_c, 0, 48, 60
1, 118138, Note_off_c, 0, 48, 63
1, 118178, Note_on_c, 0, 45, 39
1, 118248, Note_off_c, 0, 45, 62
1, 118264, Note_on_c, 0, 48, 54
1, 118301, Note_off_c, 0, 48, 63
1, 118353, Note_on_c, 0, 45, 55
1, 118357, Note_on_c, 0, 38, 41
1, 118369, Note_on_c, 0, 52, 26
1, 118380, Note_off_c, 0, 45, 59
1, 118392, Note_off_c, 0, 38, 53
1, 118409, Note_off_c, 0, 52, 44
1, 118434, Note_on_c, 0, 48, 57
1, 118490, Note_off_c, 0, 48, 57
1, 118521, Note_on_c, 0, 50, 71
1, 118526, Note_on_c, 0, 54, 58
1, 118535, Note_on_c, 0, 47, 42
1, 118551, Note_off_c, 0, 50, 67
1, 118563, Note_off_c, 0, 54, 65
1, 118567, Note_off_c, 0, 47, 57
1, 118598, Note_on_c, 0, 48, 58
1, 118631, Control_c, 0, 67, 105
1, 118642, Note_off_c, 0, 48, 60
1, 118647, Control_c, 0, 67, 67
1, 118662, Control_c, 0, 67, 21
1, 118670, Note_on_c, 0, 51, 76
1, 118674, Note_on_c, 0, 48, 64
1, 118677, Control_c, 0, 67, 0
1, 118679, Note_on_c, 0, 55, 61
1, 118697, Note_off_c, 0, 51, 66
1, 118707, Note_off_c, 0, 48, 66
1, 118728, Note_off_c, 0, 55, 58
1, 118762, Poly_aftertouch_c, 0, 51, 0
1, 118830, Note_on_c, 0, 56, 52
1, 118834, Note_on_c, 0, 49, 85
1, 118839, Note_on_c, 0, 52, 90
1, 118875, Note_off_c, 0, 52, 58
1, 118876, Note_off_c, 0, 56, 63
1, 118882, Note_off_c, 0, 49, 60
1, 118988, Note_on_c, 0, 57, 59
1, 118989, Note_on_c, 0, 50, 90
1, 118992, Note_on_c, 0, 53, 97
1, 119016, Note_off_c, 0, 53, 64
1, 119019, Note_off_c, 0, 50, 67
1, 119023, Note_off_c, 0, 57, 63
1, 119077, Control_c, 0, 67, 12
1, 119091, Control_c, 0, 67, 69
1, 119096, Note_on_c, 0, 53, 23
1, 119106, Control_c, 0, 67, 122
1, 119121, Control_c, 0, 67, 127
1, 119128, Note_off_c, 0, 53, 56
1, 119142, Note_on_c, 0, 51, 76
1, 119146, Note_on_c, 0, 60, 64
1, 119150, Note_on_c, 0, 56, 48
1, 119173, Note_off_c, 0, 51, 65
1, 119184, Note_off_c, 0, 60, 66
1, 119200, Note_off_c, 0, 56, 0
1, 119200, Note_on_c, 0, 56, 58
1, 119237, Note_off_c, 0, 56, 64
1, 119327, Note_on_c, 0, 52, 70
1, 119334, Note_on_c, 0, 38, 65
1, 119337, Note_on_c, 0, 45, 59
1, 119387, Note_off_c, 0, 45, 53
1, 119398, Note_on_c, 0, 48, 67
1, 119410, Note_off_c, 0, 52, 60
1, 119436, Note_off_c, 0, 38, 34
1, 119453, Note_off_c, 0, 48, 61
1, 119492, Note_on_c, 0, 45, 60
1, 119542, Note_off_c, 0, 45, 60
1, 119576, Note_on_c, 0, 48, 59
1, 119614, Note_off_c, 0, 48, 61
1, 119641, Note_on_c, 0, 45, 72
1, 119646, Note_on_c, 0, 38, 61
1, 119665, Note_off_c, 0, 45, 66
1, 119667, Note_on_c, 0, 52, 55
1, 119678, Note_off_c, 0, 38, 63
1, 119698, Note_off_c, 0, 52, 64
1, 119738, Note_on_c, 0, 48, 64
1, 119778, Note_off_c, 0, 48, 60
1, 119798, Note_on_c, 0, 46, 76
1, 119824, Note_on_c, 0, 54, 59
1, 119824, Note_off_c, 0, 46, 64
1, 119827, Note_on_c, 0, 48, 36
1, 119859, Note_off_c, 0, 48, 49
1, 119866, Note_off_c, 0, 54, 63
1, 119895, Note_on_c, 0, 50, 60
1, 119943, Note_off_c, 0, 50, 61
1, 119961, Note_on_c, 0, 48, 76
1, 119963, Note_on_c, 0, 51, 83
1, 119985, Note_on_c, 0, 55, 61
1, 119999, Note_off_c, 0, 51, 66
1, 120016, Note_off_c, 0, 48, 63
1, 120030, Note_off_c, 0, 55, 60
1, 120121, Note_on_c, 0, 56, 63
1, 120135, Note_on_c, 0, 49, 87
1, 120135, Note_on_c, 0, 52, 90
1, 120167, Note_off_c, 0, 56, 61
1, 120169, Note_off_c, 0, 52, 59
1, 120169, Note_off_c, 0, 49, 60
1, 120220, Note_on_c, 0, 52, 41
1, 120242, Note_off_c, 0, 52, 62
1, 120276, Note_on_c, 0, 57, 65
1, 120293, Note_on_c, 0, 53, 96
1, 120294, Note_on_c, 0, 50, 85
1, 120309, Control_c, 0, 67, 101
1, 120309, Note_off_c, 0, 57, 63
1, 120314, Note_off_c, 0, 53, 72
1, 120323, Note_off_c, 0, 50, 67
1, 120323, Control_c, 0, 67, 45
1, 120338, Control_c, 0, 67, 0
1, 120373, Poly_aftertouch_c, 0, 53, 0
1, 120425, Note_on_c, 0, 60, 64
1, 120440, Note_on_c, 0, 51, 72
1, 120442, Note_on_c, 0, 56, 78
1, 120465, Note_off_c, 0, 60, 62
1, 120470, Control_c, 0, 64, 65
1, 120474, Note_off_c, 0, 51, 63
1, 120485, Control_c, 0, 64, 96
1, 120500, Control_c, 0, 64, 127
1, 120515, Note_off_c, 0, 56, 67
1, 120589, Control_c, 0, 64, 78
1, 120591, Note_on_c, 0, 55, 84
1, 120592, Note_on_c, 0, 64, 95
1, 120597, Note_on_c, 0, 50, 78
1, 120598, Note_on_c, 0, 59, 67
1, 120604, Control_c, 0, 64, 0
1, 120616, Note_off_c, 0, 55, 65
1, 120619, Note_off_c, 0, 59, 63
1, 120625, Note_off_c, 0, 50, 70
1, 120673, Note_on_c, 0, 59, 78
1, 120684, Note_off_c, 0, 64, 59
1, 120726, Note_off_c, 0, 59, 61
1, 120767, Note_on_c, 0, 38, 67
1, 120778, Note_on_c, 0, 55, 58
1, 120792, Note_off_c, 0, 38, 61
1, 120796, Note_on_c, 0, 40, 40
1, 120825, Note_off_c, 0, 55, 60
1, 120831, Note_off_c, 0, 40, 53
1, 120852, Note_on_c, 0, 59, 66
1, 120881, Note_off_c, 0, 59, 63
1, 120923, Note_on_c, 0, 55, 79
1, 120926, Note_on_c, 0, 50, 77
1, 120931, Note_on_c, 0, 59, 71
1, 120938, Note_on_c, 0, 64, 65
1, 120945, Note_off_c, 0, 55, 67
1, 120953, Note_off_c, 0, 50, 68
1, 120955, Note_off_c, 0, 59, 68
1, 120967, Note_off_c, 0, 64, 68
1, 121028, Note_on_c, 0, 59, 48
1, 121058, Note_off_c, 0, 59, 54
1, 121080, Note_on_c, 0, 58, 82
1, 121083, Note_on_c, 0, 63, 74
1, 121090, Note_on_c, 0, 66, 72
1, 121099, Note_off_c, 0, 58, 71
1, 121106, Note_off_c, 0, 63, 67
1, 121149, Note_off_c, 0, 66, 60
1, 121155, Note_on_c, 0, 63, 73
1, 121178, Note_off_c, 0, 63, 69
1, 121219, Control_c, 0, 64, 76
1, 121233, Note_on_c, 0, 59, 95
1, 121234, Control_c, 0, 64, 127
1, 121235, Note_on_c, 0, 55, 95
1, 121236, Note_on_c, 0, 50, 91
1, 121241, Note_on_c, 0, 64, 90
1, 121250, Note_off_c, 0, 59, 74
1, 121255, Note_off_c, 0, 55, 71
1, 121263, Note_off_c, 0, 50, 69
1, 121264, Control_c, 0, 64, 71
1, 121264, Control_c, 0, 67, 10
1, 121279, Control_c, 0, 64, 0
1, 121279, Control_c, 0, 67, 10
1, 121293, Control_c, 0, 67, 12
1, 121308, Control_c, 0, 67, 19
1, 121319, Note_on_c, 0, 59, 76
1, 121319, Note_off_c, 0, 64, 63
1, 121323, Control_c, 0, 67, 33
1, 121337, Control_c, 0, 67, 48
1, 121352, Control_c, 0, 67, 61
1, 121367, Control_c, 0, 67, 70
1, 121368, Note_off_c, 0, 59, 60
1, 121382, Control_c, 0, 67, 72
1, 121412, Control_c, 0, 67, 71
1, 121413, Note_on_c, 0, 40, 66
1, 121418, Note_on_c, 0, 55, 66
1, 121421, Note_on_c, 0, 38, 51
1, 121427, Control_c, 0, 67, 68
1, 121442, Control_c, 0, 67, 63
1, 121445, Note_off_c, 0, 40, 65
1, 121452, Note_off_c, 0, 38, 55
1, 121456, Control_c, 0, 67, 54
1, 121479, Control_c, 0, 67, 34
1, 121480, Note_off_c, 0, 55, 60
1, 121493, Control_c, 0, 67, 0
1, 121505, Note_on_c, 0, 59, 67
1, 121534, Note_off_c, 0, 59, 65
1, 121579, Note_on_c, 0, 55, 81
1, 121580, Note_on_c, 0, 50, 78
1, 121582, Note_on_c, 0, 59, 82
1, 121596, Note_on_c, 0, 64, 72
1, 121602, Note_off_c, 0, 55, 68
1, 121602, Note_off_c, 0, 59, 70
1, 121606, Note_off_c, 0, 50, 69
1, 121622, Note_off_c, 0, 64, 67
1, 121668, Note_on_c, 0, 59, 69
1, 121705, Note_off_c, 0, 59, 55
1, 121729, Note_on_c, 0, 58, 87
1, 121729, Note_on_c, 0, 63, 84
1, 121743, Note_on_c, 0, 66, 69
1, 121748, Note_off_c, 0, 58, 71
1, 121749, Note_off_c, 0, 63, 70
1, 121805, Note_off_c, 0, 66, 61
1, 121810, Note_on_c, 0, 63, 68
1, 121835, Note_off_c, 0, 63, 66
1, 121880, Control_c, 0, 64, 71
1, 121883, Note_on_c, 0, 59, 101
1, 121883, Note_on_c, 0, 55, 96
1, 121886, Note_on_c, 0, 50, 91
1, 121894, Note_on_c, 0, 64, 92
1, 121895, Control_c, 0, 64, 127
1, 121902, Note_off_c, 0, 59, 67
1, 121903, Note_off_c, 0, 55, 72
1, 121911, Note_off_c, 0, 50, 74
1, 121976, Note_on_c, 0, 59, 65
1, 121976, Note_off_c, 0, 64, 61
1, 122016, Note_off_c, 0, 59, 58
1, 122043, Note_on_c, 0, 38, 87
1, 122065, Note_on_c, 0, 55, 77
1, 122070, Note_off_c, 0, 38, 69
1, 122072, Control_c, 0, 64, 76
1, 122087, Control_c, 0, 64, 0
1, 122118, Note_off_c, 0, 55, 59
1, 122131, Note_on_c, 0, 59, 69
1, 122163, Note_off_c, 0, 59, 62
1, 122230, Note_on_c, 0, 64, 51
1, 122233, Note_on_c, 0, 59, 66
1, 122234, Note_on_c, 0, 55, 64
1, 122242, Note_on_c, 0, 48, 42
1, 122243, Note_off_c, 0, 48, 127
1, 122250, Note_off_c, 0, 59, 64
1, 122253, Note_on_c, 0, 50, 37
1, 122254, Note_off_c, 0, 64, 60
1, 122261, Note_off_c, 0, 55, 58
1, 122296, Note_off_c, 0, 50, 31
1, 122310, Note_on_c, 0, 59, 59
1, 122339, Note_off_c, 0, 59, 61
1, 122375, Note_on_c, 0, 66, 72
1, 122377, Note_on_c, 0, 63, 82
1, 122378, Note_on_c, 0, 58, 77
1, 122398, Note_off_c, 0, 63, 68
1, 122401, Note_off_c, 0, 58, 69
1, 122432, Note_off_c, 0, 66, 61
1, 122445, Note_on_c, 0, 63, 65
1, 122482, Note_off_c, 0, 63, 63
1, 122526, Note_on_c, 0, 67, 70
1, 122527, Note_on_c, 0, 59, 91
1, 122530, Note_on_c, 0, 64, 88
1, 122549, Note_off_c, 0, 64, 72
1, 122550, Note_off_c, 0, 67, 67
1, 122551, Note_off_c, 0, 59, 66
1, 122597, Note_on_c, 0, 64, 74
1, 122650, Note_off_c, 0, 64, 61
1, 122673, Note_on_c, 0, 63, 103
1, 122675, Note_on_c, 0, 66, 96
1, 122676, Note_on_c, 0, 70, 73
1, 122717, Note_off_c, 0, 63, 58
1, 122723, Note_off_c, 0, 66, 0
1, 122736, Note_off_c, 0, 70, 61
1, 122738, Note_on_c, 0, 66, 60
1, 122775, Note_off_c, 0, 66, 54
1, 122831, Note_on_c, 0, 71, 69
1, 122831, Note_on_c, 0, 64, 103
1, 122832, Note_on_c, 0, 67, 108
1, 122855, Note_off_c, 0, 67, 65
1, 122856, Note_off_c, 0, 71, 65
1, 122860, Note_off_c, 0, 64, 69
1, 122895, Note_on_c, 0, 67, 72
1, 122937, Note_off_c, 0, 67, 61
1, 122989, Note_on_c, 0, 74, 83
1, 122992, Note_on_c, 0, 70, 108
1, 122998, Note_on_c, 0, 66, 84
1, 123014, Note_off_c, 0, 66, 66
1, 123021, Note_off_c, 0, 70, 64
1, 123021, Control_c, 0, 64, 127
1, 123026, Note_on_c, 0, 65, 44
1, 123033, Note_off_c, 0, 74, 60
1, 123050, Note_on_c, 0, 70, 69
1, 123055, Note_off_c, 0, 65, 62
1, 123070, Note_off_c, 0, 70, 70
1, 123096, Control_c, 0, 64, 76
1, 123111, Control_c, 0, 64, 0
1, 123229, Control_c, 0, 67, 9
1, 123244, Control_c, 0, 67, 13
1, 123258, Control_c, 0, 67, 18
1, 123273, Control_c, 0, 67, 32
1, 123288, Control_c, 0, 67, 49
1, 123303, Control_c, 0, 67, 63
1, 123317, Control_c, 0, 67, 73
1, 123332, Control_c, 0, 67, 78
1, 123347, Control_c, 0, 67, 80
1, 123362, Control_c, 0, 67, 83
1, 123377, Control_c, 0, 67, 89
1, 123391, Control_c, 0, 67, 101
1, 123406, Control_c, 0, 67, 119
1, 123421, Control_c, 0, 67, 127
1, 123636, Note_on_c, 0, 62, 65
1, 123668, Note_on_c, 0, 55, 46
1, 123689, Control_c, 0, 64, 21
1, 123692, Note_on_c, 0, 59, 19
1, 123704, Control_c, 0, 64, 58
1, 123726, Control_c, 0, 64, 65
1, 123740, Control_c, 0, 64, 69
1, 123755, Control_c, 0, 64, 72
1, 123758, Note_off_c, 0, 55, 60
1, 123770, Control_c, 0, 64, 75
1, 123785, Control_c, 0, 64, 80
1, 123789, Note_on_c, 0, 50, 9
1, 123800, Control_c, 0, 64, 85
1, 123814, Control_c, 0, 64, 90
1, 123829, Control_c, 0, 64, 93
1, 123844, Control_c, 0, 64, 95
1, 123859, Control_c, 0, 64, 97
1, 123869, Note_off_c, 0, 50, 0
1, 123869, Note_on_c, 0, 50, 24
1, 123874, Control_c, 0, 64, 99
1, 123889, Control_c, 0, 64, 101
1, 123892, Note_off_c, 0, 59, 31
1, 123904, Control_c, 0, 64, 103
1, 123926, Note_off_c, 0, 50, 58
1, 123966, Note_on_c, 0, 37, 51
1, 124038, Note_on_c, 0, 59, 47
1, 124039, Note_off_c, 0, 62, 38
1, 124047, Note_on_c, 0, 55, 42
1, 124053, Note_off_c, 0, 37, 34
1, 124077, Note_off_c, 0, 55, 59
1, 124112, Note_off_c, 0, 59, 56
1, 124117, Note_on_c, 0, 50, 61
1, 124151, Note_off_c, 0, 50, 65
1, 124200, Control_c, 0, 64, 102
1, 124207, Note_on_c, 0, 64, 69
1, 124214, Control_c, 0, 64, 102
1, 124217, Note_on_c, 0, 59, 62
1, 124224, Note_on_c, 0, 52, 47
1, 124230, Control_c, 0, 64, 101
1, 124238, Note_on_c, 0, 56, 46
1, 124245, Note_off_c, 0, 59, 66
1, 124259, Note_off_c, 0, 64, 60
1, 124267, Note_off_c, 0, 56, 56
1, 124286, Note_off_c, 0, 52, 0
1, 124298, Note_on_c, 0, 52, 50
1, 124325, Note_off_c, 0, 52, 59
1, 124334, Control_c, 0, 64, 101
1, 124349, Control_c, 0, 64, 95
1, 124363, Control_c, 0, 64, 86
1, 124372, Note_on_c, 0, 61, 72
1, 124378, Control_c, 0, 64, 73
1, 124384, Note_on_c, 0, 57, 62
1, 124393, Control_c, 0, 64, 61
1, 124408, Control_c, 0, 64, 23
1, 124411, Note_on_c, 0, 52, 51
1, 124423, Control_c, 0, 64, 49
1, 124437, Control_c, 0, 64, 63
1, 124440, Note_off_c, 0, 52, 59
1, 124452, Control_c, 0, 64, 67
1, 124470, Note_on_c, 0, 49, 58
1, 124475, Control_c, 0, 64, 72
1, 124485, Note_off_c, 0, 61, 63
1, 124490, Control_c, 0, 64, 77
1, 124493, Note_off_c, 0, 57, 58
1, 124503, Note_off_c, 0, 49, 54
1, 124505, Control_c, 0, 64, 82
1, 124519, Control_c, 0, 64, 85
1, 124534, Control_c, 0, 64, 89
1, 124549, Control_c, 0, 64, 93
1, 124562, Note_on_c, 0, 49, 63
1, 124563, Control_c, 0, 64, 97
1, 124578, Control_c, 0, 64, 101
1, 124590, Note_off_c, 0, 49, 65
1, 124593, Control_c, 0, 64, 105
1, 124608, Control_c, 0, 64, 108
1, 124623, Note_on_c, 0, 37, 60
1, 124637, Control_c, 0, 64, 105
1, 124652, Control_c, 0, 64, 96
1, 124667, Control_c, 0, 64, 84
1, 124682, Control_c, 0, 64, 75
1, 124697, Control_c, 0, 64, 68
1, 124703, Note_on_c, 0, 59, 74
1, 124709, Note_on_c, 0, 47, 57
1, 124712, Control_c, 0, 64, 67
1, 124717, Note_off_c, 0, 37, 33
1, 124720, Note_on_c, 0, 55, 57
1, 124727, Control_c, 0, 64, 70
1, 124741, Control_c, 0, 64, 73
1, 124752, Note_off_c, 0, 55, 57
1, 124755, Note_off_c, 0, 47, 0
1, 124756, Control_c, 0, 64, 77
1, 124764, Note_off_c, 0, 59, 59
1, 124771, Control_c, 0, 64, 81
1, 124771, Control_c, 0, 67, 113
1, 124786, Control_c, 0, 64, 85
1, 124786, Control_c, 0, 67, 83
1, 124792, Poly_aftertouch_c, 0, 47, 127
1, 124801, Control_c, 0, 64, 88
1, 124801, Control_c, 0, 67, 42
1, 124805, Poly_aftertouch_c, 0, 47, 0
1, 124812, Poly_aftertouch_c, 0, 52, 0
1, 124815, Control_c, 0, 64, 88
1, 124815, Control_c, 0, 67, 0
1, 124830, Control_c, 0, 64, 89
1, 124859, Control_c, 0, 64, 89
1, 124861, Note_on_c, 0, 57, 69
1, 124865, Note_on_c, 0, 49, 68
1, 124870, Note_on_c, 0, 52, 52
1, 124874, Note_on_c, 0, 45, 62
1, 124874, Control_c, 0, 64, 90
1, 124888, Control_c, 0, 64, 93
1, 124897, Note_off_c, 0, 49, 62
1, 124901, Note_off_c, 0, 45, 56
1, 124903, Control_c, 0, 64, 95
1, 124905, Note_off_c, 0, 52, 62
1, 124918, Control_c, 0, 64, 95
1, 124920, Note_off_c, 0, 57, 60
1, 124948, Control_c, 0, 64, 92
1, 124950, Poly_aftertouch_c, 0, 54, 127
1, 124950, Note_on_c, 0, 45, 44
1, 124962, Control_c, 0, 64, 84
1, 124977, Control_c, 0, 64, 72
1, 124980, Note_off_c, 0, 45, 53
1, 124985, Poly_aftertouch_c, 0, 54, 0
1, 124992, Control_c, 0, 64, 51
1, 125007, Control_c, 0, 64, 0
1, 125021, Note_on_c, 0, 62, 80
1, 125023, Note_on_c, 0, 59, 74
1, 125034, Note_on_c, 0, 55, 65
1, 125052, Control_c, 0, 64, 38
1, 125065, Note_off_c, 0, 55, 62
1, 125067, Control_c, 0, 64, 63
1, 125082, Control_c, 0, 64, 72
1, 125097, Control_c, 0, 64, 80
1, 125099, Note_off_c, 0, 59, 59
1, 125102, Note_on_c, 0, 50, 65
1, 125112, Control_c, 0, 64, 92
1, 125127, Control_c, 0, 64, 108
1, 125135, Note_off_c, 0, 50, 65
1, 125141, Control_c, 0, 64, 127
1, 125188, Note_on_c, 0, 50, 77
1, 125229, Note_off_c, 0, 50, 66
1, 125278, Note_on_c, 0, 37, 74
1, 125310, Note_off_c, 0, 37, 64
1, 125317, Note_off_c, 0, 62, 53
1, 125366, Note_on_c, 0, 55, 68
1, 125371, Note_on_c, 0, 59, 66
1, 125404, Note_off_c, 0, 55, 60
1, 125433, Note_on_c, 0, 50, 66
1, 125435, Note_off_c, 0, 59, 56
1, 125468, Note_off_c, 0, 50, 65
1, 125519, Note_on_c, 0, 64, 76
1, 125527, Note_on_c, 0, 59, 70
1, 125532, Note_on_c, 0, 56, 64
1, 125534, Note_on_c, 0, 52, 54
1, 125554, Note_off_c, 0, 59, 65
1, 125561, Note_off_c, 0, 52, 57
1, 125563, Note_off_c, 0, 56, 65
1, 125567, Note_off_c, 0, 64, 58
1, 125612, Note_on_c, 0, 52, 51
1, 125638, Control_c, 0, 64, 99
1, 125639, Note_off_c, 0, 52, 58
1, 125653, Control_c, 0, 64, 78
1, 125667, Control_c, 0, 64, 61
1, 125680, Note_on_c, 0, 61, 73
1, 125682, Control_c, 0, 64, 0
1, 125683, Note_on_c, 0, 57, 65
1, 125689, Note_on_c, 0, 49, 72
1, 125712, Note_on_c, 0, 52, 51
1, 125723, Note_off_c, 0, 49, 64
1, 125743, Note_off_c, 0, 52, 56
1, 125746, Note_off_c, 0, 61, 62
1, 125759, Note_off_c, 0, 57, 60
1, 125778, Poly_aftertouch_c, 0, 49, 0
1, 125838, Note_on_c, 0, 52, 51
1, 125844, Note_on_c, 0, 59, 72
1, 125845, Note_on_c, 0, 47, 52
1, 125848, Note_on_c, 0, 55, 58
1, 125871, Note_off_c, 0, 47, 57
1, 125883, Note_off_c, 0, 52, 63
1, 125895, Note_off_c, 0, 55, 63
1, 125903, Note_off_c, 0, 59, 60
1, 125935, Note_on_c, 0, 47, 55
1, 125968, Note_off_c, 0, 47, 59
1, 126002, Control_c, 0, 64, 47
1, 126008, Note_on_c, 0, 57, 68
1, 126016, Control_c, 0, 64, 66
1, 126019, Note_on_c, 0, 52, 52
1, 126022, Note_on_c, 0, 49, 63
1, 126031, Control_c, 0, 64, 75
1, 126046, Control_c, 0, 64, 87
1, 126061, Control_c, 0, 64, 108
1, 126076, Control_c, 0, 64, 127
1, 126084, Note_on_c, 0, 45, 63
1, 126095, Note_off_c, 0, 49, 61
1, 126102, Note_off_c, 0, 57, 48
1, 126107, Note_off_c, 0, 52, 61
1, 126112, Note_off_c, 0, 45, 64
1, 126175, Note_on_c, 0, 45, 61
1, 126211, Note_on_c, 0, 37, 63
1, 126244, Note_off_c, 0, 37, 64
1, 126254, Note_off_c, 0, 45, 63
1, 126313, Control_c, 0, 64, 105
1, 126320, Note_on_c, 0, 67, 78
1, 126323, Note_on_c, 0, 59, 77
1, 126323, Note_on_c, 0, 64, 72
1, 126328, Control_c, 0, 64, 72
1, 126342, Control_c, 0, 64, 0
1, 126369, Note_off_c, 0, 59, 58
1, 126372, Control_c, 0, 64, 67
1, 126387, Control_c, 0, 64, 87
1, 126396, Note_on_c, 0, 55, 67
1, 126402, Control_c, 0, 64, 127
1, 126404, Note_off_c, 0, 64, 63
1, 126426, Note_off_c, 0, 55, 63
1, 126467, Note_on_c, 0, 52, 78
1, 126483, Note_on_c, 0, 55, 66
1, 126490, Note_off_c, 0, 52, 65
1, 126504, Note_off_c, 0, 55, 63
1, 126555, Note_on_c, 0, 37, 82
1, 126577, Note_off_c, 0, 37, 66
1, 126594, Note_off_c, 0, 67, 40
1, 126619, Note_on_c, 0, 59, 76
1, 126626, Note_on_c, 0, 64, 67
1, 126672, Note_off_c, 0, 59, 61
1, 126713, Note_on_c, 0, 55, 71
1, 126719, Note_off_c, 0, 64, 62
1, 126740, Note_off_c, 0, 55, 66
1, 126795, Note_on_c, 0, 69, 79
1, 126800, Note_on_c, 0, 64, 70
1, 126804, Note_on_c, 0, 61, 71
1, 126805, Note_on_c, 0, 52, 70
1, 126812, Note_on_c, 0, 57, 52
1, 126831, Note_off_c, 0, 52, 65
1, 126836, Note_off_c, 0, 57, 59
1, 126836, Note_off_c, 0, 64, 61
1, 126841, Note_off_c, 0, 61, 61
1, 126846, Note_off_c, 0, 69, 62
1, 126878, Note_on_c, 0, 57, 70
1, 126912, Note_off_c, 0, 57, 60
1, 126929, Control_c, 0, 64, 92
1, 126944, Control_c, 0, 64, 11
1, 126958, Control_c, 0, 64, 0
1, 126962, Note_on_c, 0, 66, 80
1, 126962, Note_on_c, 0, 61, 76
1, 126965, Note_on_c, 0, 57, 63
1, 126988, Control_c, 0, 64, 65
1, 127003, Note_off_c, 0, 57, 60
1, 127003, Control_c, 0, 64, 83
1, 127018, Control_c, 0, 64, 127
1, 127022, Note_off_c, 0, 66, 64
1, 127031, Note_on_c, 0, 54, 84
1, 127039, Note_off_c, 0, 61, 60
1, 127063, Poly_aftertouch_c, 0, 63, 127
1, 127092, Note_on_c, 0, 49, 68
1, 127092, Poly_aftertouch_c, 0, 63, 0
1, 127113, Note_off_c, 0, 54, 67
1, 127116, Note_off_c, 0, 49, 61
1, 127174, Note_on_c, 0, 37, 82
1, 127204, Note_off_c, 0, 37, 68
1, 127268, Note_on_c, 0, 64, 86
1, 127272, Note_on_c, 0, 59, 75
1, 127273, Note_on_c, 0, 55, 75
1, 127276, Note_on_c, 0, 52, 82
1, 127293, Note_on_c, 0, 47, 66
1, 127321, Note_off_c, 0, 64, 62
1, 127322, Note_off_c, 0, 52, 0
1, 127328, Note_on_c, 0, 61, 17
1, 127330, Note_off_c, 0, 47, 64
1, 127330, Note_off_c, 0, 55, 62
1, 127336, Note_off_c, 0, 59, 60
1, 127359, Poly_aftertouch_c, 0, 52, 127
1, 127363, Note_off_c, 0, 61, 52
1, 127380, Poly_aftertouch_c, 0, 52, 0
1, 127428, Note_on_c, 0, 61, 80
1, 127429, Note_on_c, 0, 58, 76
1, 127430, Note_on_c, 0, 49, 80
1, 127433, Note_on_c, 0, 46, 82
1, 127436, Note_on_c, 0, 54, 68
1, 127464, Note_off_c, 0, 49, 65
1, 127468, Note_off_c, 0, 54, 68
1, 127476, Note_off_c, 0, 46, 59
1, 127496, Note_off_c, 0, 58, 63
1, 127502, Note_on_c, 0, 49, 82
1, 127513, Note_off_c, 0, 61, 61
1, 127526, Note_off_c, 0, 49, 67
1, 127588, Control_c, 0, 64, 68
1, 127595, Note_on_c, 0, 67, 96
1, 127600, Note_on_c, 0, 64, 87
1, 127603, Control_c, 0, 64, 0
1, 127611, Note_on_c, 0, 59, 79
1, 127614, Note_on_c, 0, 60, 76
1, 127637, Note_off_c, 0, 60, 69
1, 127648, Control_c, 0, 64, 74
1, 127663, Control_c, 0, 64, 127
1, 127670, Note_on_c, 0, 55, 84
1, 127670, Note_off_c, 0, 59, 62
1, 127712, Note_off_c, 0, 64, 52
1, 127721, Note_off_c, 0, 55, 57
1, 127745, Note_on_c, 0, 52, 80
1, 127746, Note_on_c, 0, 55, 51
1, 127770, Note_off_c, 0, 52, 66
1, 127770, Note_off_c, 0, 55, 67
1, 127835, Note_on_c, 0, 37, 90
1, 127851, Note_off_c, 0, 67, 55
1, 127861, Note_off_c, 0, 37, 68
1, 127919, Note_on_c, 0, 59, 87
1, 127922, Note_on_c, 0, 64, 78
1, 127965, Note_off_c, 0, 59, 60
1, 127984, Note_on_c, 0, 57, 66
1, 127997, Note_off_c, 0, 64, 63
1, 128017, Note_off_c, 0, 57, 64
1, 128067, Note_on_c, 0, 69, 82
1, 128071, Note_on_c, 0, 57, 61
1, 128078, Note_on_c, 0, 52, 59
1, 128083, Note_on_c, 0, 64, 57
1, 128085, Note_on_c, 0, 61, 69
1, 128102, Note_off_c, 0, 57, 63
1, 128104, Note_off_c, 0, 52, 65
1, 128120, Note_off_c, 0, 64, 61
1, 128126, Note_off_c, 0, 69, 62
1, 128131, Note_off_c, 0, 61, 61
1, 128184, Note_on_c, 0, 57, 42
1, 128223, Note_off_c, 0, 57, 0
1, 128224, Note_on_c, 0, 54, 95
1, 128228, Note_on_c, 0, 49, 79
1, 128234, Control_c, 0, 64, 101
1, 128240, Note_on_c, 0, 66, 75
1, 128245, Note_on_c, 0, 61, 78
1, 128247, Note_on_c, 0, 58, 66
1, 128249, Control_c, 0, 64, 72
1, 128250, Poly_aftertouch_c, 0, 57, 0
1, 128261, Note_off_c, 0, 54, 66
1, 128262, Note_off_c, 0, 49, 64
1, 128264, Control_c, 0, 64, 0
1, 128271, Note_off_c, 0, 61, 63
1, 128274, Note_off_c, 0, 58, 66
1, 128284, Note_off_c, 0, 66, 63
1, 128335, Note_on_c, 0, 53, 59
1, 128362, Note_off_c, 0, 53, 56
1, 128379, Note_on_c, 0, 52, 79
1, 128381, Note_on_c, 0, 47, 79
1, 128384, Note_on_c, 0, 55, 73
1, 128389, Note_on_c, 0, 59, 75
1, 128399, Note_on_c, 0, 64, 57
1, 128405, Note_off_c, 0, 52, 66
1, 128425, Note_off_c, 0, 47, 66
1, 128434, Note_off_c, 0, 64, 57
1, 128438, Note_on_c, 0, 61, 13
1, 128438, Note_off_c, 0, 55, 63
1, 128444, Note_off_c, 0, 59, 60
1, 128455, Note_on_c, 0, 52, 77
1, 128484, Note_off_c, 0, 61, 40
1, 128496, Note_off_c, 0, 52, 63
1, 128537, Note_on_c, 0, 58, 75
1, 128540, Note_on_c, 0, 61, 81
1, 128545, Control_c, 0, 64, 68
1, 128548, Note_on_c, 0, 54, 52
1, 128558, Control_c, 0, 64, 127
1, 128569, Note_on_c, 0, 55, 57
1, 128590, Note_off_c, 0, 54, 47
1, 128597, Note_off_c, 0, 55, 64
1, 128599, Note_on_c, 0, 49, 85
1, 128611, Note_off_c, 0, 58, 61
1, 128624, Note_off_c, 0, 61, 60
1, 128626, Note_off_c, 0, 49, 68
1, 128642, Note_on_c, 0, 51, 21
1, 128685, Note_on_c, 0, 49, 97
1, 128688, Note_on_c, 0, 46, 90
1, 128692, Note_off_c, 0, 51, 57
1, 128732, Note_off_c, 0, 46, 57
1, 128738, Note_off_c, 0, 49, 58
1, 128741, Note_on_c, 0, 37, 81
1, 128798, Note_off_c, 0, 37, 63
1, 128825, Control_c, 0, 64, 73
1, 128840, Control_c, 0, 64, 0
1, 128846, Note_on_c, 0, 69, 99
1, 128849, Note_on_c, 0, 62, 97
1, 128850, Note_on_c, 0, 65, 90
1, 128855, Control_c, 0, 67, 9
1, 128869, Control_c, 0, 67, 13
1, 128884, Control_c, 0, 67, 15
1, 128899, Control_c, 0, 64, 73
1, 128899, Control_c, 0, 67, 14
1, 128914, Control_c, 0, 64, 127
1, 128914, Control_c, 0, 67, 11
1, 128917, Note_on_c, 0, 57, 87
1, 128917, Note_off_c, 0, 62, 62
1, 128928, Control_c, 0, 67, 9
1, 128943, Control_c, 0, 67, 0
1, 128963, Note_off_c, 0, 65, 58
1, 128982, Note_off_c, 0, 57, 58
1, 128998, Note_on_c, 0, 47, 90
1, 129004, Note_on_c, 0, 35, 79
1, 129031, Note_off_c, 0, 35, 65
1, 129035, Note_off_c, 0, 47, 66
1, 129084, Note_on_c, 0, 57, 73
1, 129108, Note_off_c, 0, 69, 44
1, 129155, Note_off_c, 0, 57, 56
1, 129172, Note_on_c, 0, 62, 73
1, 129176, Note_on_c, 0, 65, 69
1, 129214, Note_off_c, 0, 62, 60
1, 129244, Note_off_c, 0, 65, 58
1, 129247, Note_on_c, 0, 57, 76
1, 129268, Note_off_c, 0, 57, 67
1, 129324, Note_on_c, 0, 71, 79
1, 129326, Note_on_c, 0, 66, 74
1, 129330, Note_on_c, 0, 54, 80
1, 129330, Note_on_c, 0, 59, 82
1, 129331, Note_on_c, 0, 63, 67
1, 129362, Note_off_c, 0, 63, 63
1, 129365, Note_off_c, 0, 59, 58
1, 129374, Note_off_c, 0, 71, 65
1, 129377, Note_off_c, 0, 54, 60
1, 129386, Note_off_c, 0, 66, 62
1, 129395, Poly_aftertouch_c, 0, 68, 127
1, 129401, Note_on_c, 0, 59, 71
1, 129424, Note_off_c, 0, 59, 66
1, 129433, Poly_aftertouch_c, 0, 68, 0
1, 129456, Control_c, 0, 64, 96
1, 129471, Control_c, 0, 64, 64
1, 129474, Note_on_c, 0, 67, 92
1, 129475, Note_on_c, 0, 53, 88
1, 129477, Note_on_c, 0, 59, 79
1, 129481, Note_on_c, 0, 48, 76
1, 129484, Note_on_c, 0, 62, 71
1, 129486, Control_c, 0, 64, 0
1, 129490, Note_on_c, 0, 50, 68
1, 129500, Note_off_c, 0, 53, 69
1, 129500, Control_c, 0, 64, 71
1, 129511, Note_off_c, 0, 50, 65
1, 129514, Note_off_c, 0, 48, 66
1, 129515, Control_c, 0, 64, 119
1, 129530, Control_c, 0, 64, 127
1, 129563, Note_on_c, 0, 55, 81
1, 129565, Note_off_c, 0, 59, 57
1, 129581, Note_off_c, 0, 62, 54
1, 129623, Note_on_c, 0, 35, 83
1, 129626, Note_on_c, 0, 47, 90
1, 129629, Note_off_c, 0, 55, 59
1, 129645, Note_off_c, 0, 67, 55
1, 129648, Note_off_c, 0, 35, 67
1, 129652, Note_off_c, 0, 47, 68
1, 129712, Note_on_c, 0, 55, 82
1, 129714, Poly_aftertouch_c, 0, 36, 127
1, 129755, Note_off_c, 0, 55, 64
1, 129762, Poly_aftertouch_c, 0, 36, 0
1, 129793, Note_on_c, 0, 62, 77
1, 129802, Note_on_c, 0, 50, 78
1, 129803, Note_on_c, 0, 54, 83
1, 129804, Note_on_c, 0, 66, 85
1, 129859, Note_off_c, 0, 62, 58
1, 129863, Note_off_c, 0, 54, 64
1, 129869, Note_on_c, 0, 57, 80
1, 129880, Note_off_c, 0, 50, 62
1, 129883, Note_off_c, 0, 66, 63
1, 129911, Note_off_c, 0, 57, 65
1, 129958, Note_on_c, 0, 52, 76
1, 129958, Note_on_c, 0, 47, 82
1, 129963, Note_on_c, 0, 59, 69
1, 129964, Note_on_c, 0, 64, 80
1, 129982, Note_off_c, 0, 52, 65
1, 129990, Note_off_c, 0, 59, 63
1, 129998, Note_off_c, 0, 47, 67
1, 130012, Note_off_c, 0, 64, 65
1, 130020, Note_on_c, 0, 55, 76
1, 130045, Note_off_c, 0, 55, 66
1, 130071, Control_c, 0, 64, 92
1, 130086, Control_c, 0, 64, 0
1, 130116, Control_c, 0, 64, 47
1, 130116, Note_on_c, 0, 74, 97
1, 130121, Note_on_c, 0, 69, 91
1, 130122, Note_on_c, 0, 62, 94
1, 130122, Note_on_c, 0, 65, 96
1, 130128, Note_on_c, 0, 57, 79
1, 130131, Note_on_c, 0, 53, 78
1, 130131, Control_c, 0, 64, 86
1, 130146, Note_off_c, 0, 62, 66
1, 130146, Control_c, 0, 64, 127
1, 130155, Note_off_c, 0, 57, 65
1, 130165, Note_off_c, 0, 53, 67
1, 130195, Note_off_c, 0, 65, 62
1, 130201, Note_on_c, 0, 62, 83
1, 130208, Note_off_c, 0, 69, 63
1, 130231, Poly_aftertouch_c, 0, 52, 0
1, 130245, Poly_aftertouch_c, 0, 71, 127
1, 130259, Note_off_c, 0, 62, 57
1, 130273, Poly_aftertouch_c, 0, 71, 0
1, 130275, Note_on_c, 0, 47, 100
1, 130276, Note_on_c, 0, 35, 88
1, 130299, Note_off_c, 0, 47, 69
1, 130301, Note_off_c, 0, 35, 70
1, 130343, Note_off_c, 0, 74, 58
1, 130357, Note_on_c, 0, 62, 84
1, 130406, Note_off_c, 0, 62, 61
1, 130446, Note_on_c, 0, 65, 83
1, 130447, Note_on_c, 0, 69, 81
1, 130490, Note_off_c, 0, 65, 57
1, 130515, Note_off_c, 0, 69, 61
1, 130518, Note_on_c, 0, 62, 85
1, 130557, Note_off_c, 0, 62, 59
1, 130582, Control_c, 0, 64, 96
1, 130595, Note_on_c, 0, 56, 88
1, 130597, Note_on_c, 0, 59, 79
1, 130597, Control_c, 0, 64, 69
1, 130599, Note_on_c, 0, 64, 87
1, 130605, Note_on_c, 0, 68, 80
1, 130605, Note_on_c, 0, 76, 90
1, 130609, Note_on_c, 0, 71, 79
1, 130612, Control_c, 0, 64, 0
1, 130626, Note_off_c, 0, 59, 66
1, 130632, Note_off_c, 0, 64, 62
1, 130645, Note_off_c, 0, 56, 66
1, 130664, Note_off_c, 0, 76, 62
1, 130666, Note_off_c, 0, 68, 61
1, 130670, Note_on_c, 0, 64, 78
1, 130675, Note_off_c, 0, 71, 62
1, 130708, Note_off_c, 0, 64, 66
1, 130753, Note_on_c, 0, 52, 101
1, 130754, Note_on_c, 0, 72, 101
1, 130754, Note_on_c, 0, 55, 93
1, 130754, Note_on_c, 0, 64, 92
1, 130755, Note_on_c, 0, 60, 95
1, 130758, Note_on_c, 0, 67, 79
1, 130761, Control_c, 0, 64, 127
1, 130773, Note_off_c, 0, 60, 74
1, 130778, Note_off_c, 0, 55, 70
1, 130783, Note_on_c, 0, 70, 65
1, 130791, Note_off_c, 0, 52, 63
1, 130805, Note_off_c, 0, 70, 41
1, 130826, Note_off_c, 0, 64, 64
1, 130827, Note_on_c, 0, 60, 94
1, 130847, Note_off_c, 0, 67, 60
1, 130887, Note_off_c, 0, 60, 60
1, 130901, Note_on_c, 0, 47, 96
1, 130904, Note_on_c, 0, 35, 78
1, 130918, Note_on_c, 0, 36, 63
1, 130927, Note_off_c, 0, 47, 68
1, 130930, Note_off_c, 0, 35, 67
1, 130944, Note_off_c, 0, 36, 57
1, 130948, Note_off_c, 0, 72, 56
1, 130974, Note_on_c, 0, 60, 81
1, 131013, Note_off_c, 0, 60, 59
1, 131053, Note_on_c, 0, 59, 96
1, 131057, Note_on_c, 0, 54, 85
1, 131060, Note_on_c, 0, 50, 77
1, 131062, Note_on_c, 0, 62, 84
1, 131062, Note_on_c, 0, 66, 79
1, 131064, Note_on_c, 0, 71, 81
1, 131077, Note_off_c, 0, 59, 63
1, 131085, Note_off_c, 0, 54, 66
1, 131088, Note_off_c, 0, 50, 69
1, 131111, Note_off_c, 0, 62, 60
1, 131116, Note_off_c, 0, 71, 63
1, 131129, Note_on_c, 0, 59, 79
1, 131133, Note_off_c, 0, 66, 63
1, 131156, Note_off_c, 0, 59, 59
1, 131173, Poly_aftertouch_c, 0, 68, 0
1, 131217, Note_on_c, 0, 57, 82
1, 131219, Note_on_c, 0, 47, 78
1, 131224, Note_on_c, 0, 55, 80
1, 131227, Note_on_c, 0, 64, 65
1, 131234, Note_on_c, 0, 50, 49
1, 131237, Note_on_c, 0, 60, 63
1, 131239, Note_off_c, 0, 57, 70
1, 131240, Note_off_c, 0, 47, 72
1, 131247, Note_off_c, 0, 55, 70
1, 131252, Note_off_c, 0, 64, 60
1, 131253, Note_on_c, 0, 48, 30
1, 131258, Note_off_c, 0, 50, 63
1, 131258, Note_on_c, 0, 69, 37
1, 131261, Note_on_c, 0, 62, 37
1, 131265, Note_off_c, 0, 60, 67
1, 131268, Note_on_c, 0, 57, 68
1, 131285, Note_off_c, 0, 62, 60
1, 131290, Note_off_c, 0, 57, 70
1, 131292, Note_off_c, 0, 69, 53
1, 131293, Note_off_c, 0, 48, 49
1, 131316, Control_c, 0, 64, 85
1, 131326, Poly_aftertouch_c, 0, 52, 0
1, 131330, Control_c, 0, 64, 0
1, 131375, Control_c, 0, 64, 73
1, 131377, Note_on_c, 0, 62, 98
1, 131379, Note_on_c, 0, 65, 105
1, 131380, Note_on_c, 0, 77, 98
1, 131383, Note_on_c, 0, 55, 91
1, 131383, Note_on_c, 0, 74, 96
1, 131384, Note_on_c, 0, 69, 90
1, 131390, Control_c, 0, 64, 127
1, 131397, Note_off_c, 0, 65, 69
1, 131402, Note_off_c, 0, 62, 67
1, 131409, Note_off_c, 0, 55, 64
1, 131453, Note_off_c, 0, 69, 60
1, 131464, Note_on_c, 0, 65, 93
1, 131518, Note_off_c, 0, 65, 55
1, 131533, Note_off_c, 0, 74, 59
1, 131549, Note_on_c, 0, 47, 104
1, 131551, Note_on_c, 0, 36, 88
1, 131574, Note_off_c, 0, 47, 68
1, 131575, Note_off_c, 0, 36, 69
1, 131613, Note_off_c, 0, 77, 54
1, 131620, Note_on_c, 0, 65, 84
1, 131675, Note_off_c, 0, 65, 61
1, 131708, Note_on_c, 0, 69, 85
1, 131714, Note_on_c, 0, 74, 83
1, 131750, Note_off_c, 0, 69, 64
1, 131776, Note_off_c, 0, 74, 64
1, 131781, Note_on_c, 0, 65, 81
1, 131803, Note_off_c, 0, 65, 68
1, 131851, Note_on_c, 0, 67, 93
1, 131855, Note_on_c, 0, 59, 82
1, 131856, Note_on_c, 0, 79, 91
1, 131857, Note_on_c, 0, 62, 79
1, 131858, Note_on_c, 0, 71, 85
1, 131863, Note_on_c, 0, 74, 83
1, 131890, Note_off_c, 0, 67, 59
1, 131893, Note_off_c, 0, 62, 58
1, 131896, Note_off_c, 0, 59, 59
1, 131900, Note_off_c, 0, 79, 59
1, 131903, Note_off_c, 0, 71, 60
1, 131919, Note_off_c, 0, 74, 59
1, 131923, Note_on_c, 0, 67, 73
1, 131970, Note_off_c, 0, 67, 62
1, 132012, Note_on_c, 0, 64, 101
1, 132014, Note_on_c, 0, 59, 84
1, 132015, Note_on_c, 0, 56, 91
1, 132016, Note_on_c, 0, 68, 89
1, 132018, Note_on_c, 0, 76, 85
1, 132019, Note_on_c, 0, 71, 75
1, 132048, Note_off_c, 0, 64, 68
1, 132049, Note_off_c, 0, 59, 61
1, 132061, Note_off_c, 0, 56, 65
1, 132071, Note_off_c, 0, 76, 64
1, 132077, Note_off_c, 0, 71, 62
1, 132080, Note_off_c, 0, 68, 60
1, 132088, Note_on_c, 0, 64, 77
1, 132124, Control_c, 0, 64, 105
1, 132125, Note_off_c, 0, 64, 64
1, 132139, Control_c, 0, 64, 76
1, 132153, Control_c, 0, 64, 0
1, 132164, Note_on_c, 0, 62, 103
1, 132167, Note_on_c, 0, 57, 88
1, 132170, Note_on_c, 0, 65, 85
1, 132171, Note_on_c, 0, 53, 86
1, 132173, Note_on_c, 0, 69, 74
1, 132173, Note_on_c, 0, 74, 81
1, 132207, Note_off_c, 0, 57, 62
1, 132209, Note_off_c, 0, 62, 62
1, 132221, Note_off_c, 0, 53, 62
1, 132226, Note_off_c, 0, 65, 61
1, 132230, Note_off_c, 0, 74, 64
1, 132234, Note_off_c, 0, 69, 60
1, 132243, Note_on_c, 0, 62, 72
1, 132274, Note_off_c, 0, 62, 64
1, 132318, Note_on_c, 0, 60, 97
1, 132322, Note_on_c, 0, 55, 89
1, 132322, Note_on_c, 0, 52, 88
1, 132327, Note_on_c, 0, 64, 95
1, 132327, Note_on_c, 0, 72, 92
1, 132331, Note_on_c, 0, 67, 82
1, 132333, Control_c, 0, 64, 69
1, 132338, Note_off_c, 0, 60, 72
1, 132343, Note_off_c, 0, 55, 72
1, 132348, Control_c, 0, 64, 127
1, 132359, Note_off_c, 0, 52, 61
1, 132369, Note_on_c, 0, 70, 26
1, 132399, Note_on_c, 0, 60, 98
1, 132405, Note_off_c, 0, 70, 31
1, 132409, Note_off_c, 0, 64, 61
1, 132443, Note_off_c, 0, 60, 62
1, 132474, Note_off_c, 0, 67, 58
1, 132475, Note_on_c, 0, 47, 91
1, 132476, Note_on_c, 0, 35, 88
1, 132497, Note_off_c, 0, 47, 72
1, 132500, Note_off_c, 0, 35, 70
1, 132528, Note_on_c, 0, 60, 82
1, 132542, Note_off_c, 0, 72, 57
1, 132562, Note_off_c, 0, 60, 61
1, 132599, Control_c, 0, 64, 106
1, 132614, Control_c, 0, 64, 60
1, 132629, Control_c, 0, 64, 0
1, 132651, Note_on_c, 0, 81, 105
1, 132655, Note_on_c, 0, 77, 97
1, 132657, Note_on_c, 0, 74, 104
1, 132659, Control_c, 0, 64, 49
1, 132674, Control_c, 0, 64, 127
1, 132699, Note_on_c, 0, 78, 9
1, 132700, Note_off_c, 0, 78, 127
1, 132718, Note_off_c, 0, 81, 56
1, 132730, Note_off_c, 0, 74, 67
1, 132732, Poly_aftertouch_c, 0, 78, 0
1, 132736, Note_on_c, 0, 69, 68
1, 132748, Note_off_c, 0, 77, 62
1, 132757, Note_off_c, 0, 69, 70
1, 132808, Note_on_c, 0, 65, 72
1, 132811, Note_on_c, 0, 62, 68
1, 132812, Note_on_c, 0, 69, 81
1, 132851, Note_off_c, 0, 69, 64
1, 132876, Note_on_c, 0, 57, 75
1, 132892, Note_off_c, 0, 62, 61
1, 132893, Note_off_c, 0, 65, 64
1, 132934, Note_off_c, 0, 57, 64
1, 132963, Note_on_c, 0, 76, 99
1, 132963, Note_on_c, 0, 72, 94
1, 132966, Note_on_c, 0, 69, 96
1, 133027, Note_off_c, 0, 76, 55
1, 133028, Note_off_c, 0, 69, 61
1, 133042, Note_on_c, 0, 64, 79
1, 133051, Note_off_c, 0, 72, 66
1, 133063, Note_off_c, 0, 64, 71
1, 133115, Note_on_c, 0, 60, 82
1, 133118, Note_on_c, 0, 64, 86
1, 133119, Note_on_c, 0, 57, 75
1, 133189, Note_on_c, 0, 52, 82
1, 133192, Note_off_c, 0, 57, 60
1, 133199, Note_off_c, 0, 60, 65
1, 133206, Note_off_c, 0, 64, 59
1, 133230, Control_c, 0, 64, 73
1, 133242, Note_off_c, 0, 52, 65
1, 133245, Control_c, 0, 64, 0
1, 133266, Note_on_c, 0, 83, 100
1, 133268, Note_on_c, 0, 75, 97
1, 133270, Note_on_c, 0, 78, 89
1, 133289, Control_c, 0, 64, 127
1, 133322, Note_off_c, 0, 83, 61
1, 133332, Note_on_c, 0, 71, 88
1, 133338, Note_off_c, 0, 75, 65
1, 133339, Note_off_c, 0, 78, 67
1, 133357, Note_off_c, 0, 71, 66
1, 133406, Note_on_c, 0, 71, 73
1, 133415, Note_on_c, 0, 66, 79
1, 133422, Note_on_c, 0, 63, 70
1, 133426, Note_off_c, 0, 71, 70
1, 133494, Note_off_c, 0, 66, 57
1, 133499, Note_off_c, 0, 63, 60
1, 133499, Note_on_c, 0, 59, 72
1, 133521, Note_off_c, 0, 59, 66
1, 133583, Note_on_c, 0, 71, 79
1, 133586, Note_on_c, 0, 63, 79
1, 133586, Note_on_c, 0, 66, 80
1, 133640, Note_on_c, 0, 59, 75
1, 133660, Note_off_c, 0, 63, 60
1, 133670, Poly_aftertouch_c, 0, 68, 127
1, 133680, Note_off_c, 0, 59, 63
1, 133684, Note_off_c, 0, 66, 62
1, 133699, Note_off_c, 0, 71, 65
1, 133717, Poly_aftertouch_c, 0, 68, 0
1, 133718, Note_on_c, 0, 47, 80
1, 133780, Note_on_c, 0, 35, 84
1, 133803, Note_off_c, 0, 35, 67
1, 133807, Note_off_c, 0, 47, 64
1, 133866, Poly_aftertouch_c, 0, 36, 127
1, 133878, Note_on_c, 0, 84, 88
1, 133880, Note_on_c, 0, 72, 102
1, 133885, Note_on_c, 0, 76, 78
1, 133899, Note_on_c, 0, 82, 64
1, 133907, Note_off_c, 0, 76, 68
1, 133914, Poly_aftertouch_c, 0, 36, 0
1, 133917, Note_off_c, 0, 82, 66
1, 133917, Note_off_c, 0, 84, 62
1, 133925, Note_off_c, 0, 72, 67
1, 133940, Note_on_c, 0, 64, 90
1, 133940, Note_on_c, 0, 71, 98
1, 133944, Note_on_c, 0, 70, 80
1, 133957, Note_off_c, 0, 71, 73
1, 133963, Note_off_c, 0, 64, 67
1, 133964, Note_off_c, 0, 70, 69
1, 133993, Poly_aftertouch_c, 0, 83, 0
1, 134021, Note_on_c, 0, 67, 101
1, 134023, Note_on_c, 0, 76, 86
1, 134024, Note_on_c, 0, 79, 91
1, 134056, Note_off_c, 0, 67, 61
1, 134057, Note_off_c, 0, 76, 59
1, 134067, Note_off_c, 0, 79, 60
1, 134084, Note_on_c, 0, 63, 88
1, 134087, Note_on_c, 0, 59, 83
1, 134088, Note_on_c, 0, 69, 93
1, 134104, Note_on_c, 0, 57, 57
1, 134106, Note_off_c, 0, 69, 70
1, 134115, Note_off_c, 0, 59, 61
1, 134125, Note_off_c, 0, 63, 64
1, 134129, Note_off_c, 0, 57, 61
1, 134170, Note_on_c, 0, 72, 101
1, 134174, Note_on_c, 0, 76, 91
1, 134176, Note_on_c, 0, 84, 83
1, 134186, Control_c, 0, 64, 88
1, 134197, Note_on_c, 0, 82, 61
1, 134201, Note_off_c, 0, 76, 67
1, 134202, Note_off_c, 0, 84, 70
1, 134209, Control_c, 0, 64, 63
1, 134212, Note_on_c, 0, 83, 49
1, 134213, Note_off_c, 0, 72, 65
1, 134216, Note_off_c, 0, 82, 63
1, 134223, Control_c, 0, 64, 0
1, 134233, Note_off_c, 0, 83, 39
1, 134241, Note_on_c, 0, 71, 97
1, 134243, Note_on_c, 0, 70, 92
1, 134246, Note_on_c, 0, 64, 86
1, 134259, Note_off_c, 0, 71, 70
1, 134259, Note_on_c, 0, 65, 70
1, 134266, Note_off_c, 0, 64, 72
1, 134275, Note_off_c, 0, 70, 64
1, 134282, Note_off_c, 0, 65, 69
1, 134322, Note_on_c, 0, 67, 98
1, 134325, Note_on_c, 0, 76, 88
1, 134328, Note_on_c, 0, 79, 90
1, 134352, Note_off_c, 0, 67, 61
1, 134360, Note_off_c, 0, 76, 59
1, 134361, Note_off_c, 0, 79, 60
1, 134370, Note_on_c, 0, 59, 90
1, 134371, Note_on_c, 0, 69, 98
1, 134378, Note_on_c, 0, 66, 79
1, 134399, Note_off_c, 0, 66, 69
1, 134417, Note_off_c, 0, 69, 59
1, 134420, Note_off_c, 0, 59, 61
1, 134460, Control_c, 0, 64, 23
1, 134472, Note_on_c, 0, 83, 89
1, 134473, Note_on_c, 0, 78, 79
1, 134474, Control_c, 0, 64, 127
1, 134477, Note_on_c, 0, 75, 92
1, 134534, Note_on_c, 0, 80, 46
1, 134535, Note_on_c, 0, 71, 85
1, 134540, Note_off_c, 0, 83, 67
1, 134542, Note_on_c, 0, 63, 59
1, 134543, Note_off_c, 0, 75, 62
1, 134546, Note_off_c, 0, 78, 65
1, 134554, Note_off_c, 0, 63, 0
1, 134554, Note_on_c, 0, 63, 44
1, 134557, Note_off_c, 0, 71, 68
1, 134580, Note_off_c, 0, 80, 43
1, 134610, Note_off_c, 0, 63, 0
1, 134624, Note_on_c, 0, 66, 79
1, 134624, Note_on_c, 0, 71, 79
1, 134626, Note_on_c, 0, 63, 49
1, 134638, Note_off_c, 0, 71, 79
1, 134695, Note_on_c, 0, 59, 72
1, 134698, Note_off_c, 0, 66, 56
1, 134715, Note_off_c, 0, 63, 56
1, 134720, Note_off_c, 0, 59, 68
1, 134733, Note_on_c, 0, 62, 12
1, 134780, Note_on_c, 0, 71, 87
1, 134780, Note_off_c, 0, 62, 41
1, 134784, Note_on_c, 0, 63, 72
1, 134787, Note_on_c, 0, 66, 82
1, 134841, Note_on_c, 0, 59, 84
1, 134862, Note_off_c, 0, 63, 59
1, 134882, Note_off_c, 0, 59, 59
1, 134882, Note_off_c, 0, 66, 60
1, 134889, Poly_aftertouch_c, 0, 68, 127
1, 134897, Note_off_c, 0, 71, 64
1, 134920, Note_on_c, 0, 47, 85
1, 134927, Poly_aftertouch_c, 0, 68, 0
1, 134998, Note_on_c, 0, 35, 82
1, 135014, Note_off_c, 0, 47, 66
1, 135025, Note_off_c, 0, 35, 65
1, 135096, Note_on_c, 0, 72, 108
1, 135096, Note_on_c, 0, 84, 93
1, 135097, Note_on_c, 0, 76, 89
1, 135116, Note_on_c, 0, 82, 68
1, 135131, Note_off_c, 0, 84, 65
1, 135133, Note_off_c, 0, 82, 66
1, 135143, Note_off_c, 0, 76, 59
1, 135148, Note_off_c, 0, 72, 67
1, 135162, Note_on_c, 0, 71, 97
1, 135165, Note_on_c, 0, 64, 91
1, 135165, Note_on_c, 0, 70, 87
1, 135178, Note_off_c, 0, 71, 73
1, 135185, Note_off_c, 0, 64, 71
1, 135185, Note_off_c, 0, 70, 70
1, 135247, Note_on_c, 0, 67, 102
1, 135249, Note_on_c, 0, 76, 93
1, 135253, Note_on_c, 0, 79, 87
1, 135280, Note_off_c, 0, 67, 67
1, 135290, Note_off_c, 0, 76, 64
1, 135299, Note_off_c, 0, 79, 58
1, 135319, Note_on_c, 0, 59, 84
1, 135321, Note_on_c, 0, 69, 91
1, 135322, Note_on_c, 0, 63, 62
1, 135323, Note_off_c, 0, 63, 127
1, 135327, Note_on_c, 0, 60, 76
1, 135333, Note_on_c, 0, 64, 73
1, 135340, Note_off_c, 0, 69, 70
1, 135342, Note_off_c, 0, 59, 67
1, 135348, Note_off_c, 0, 60, 70
1, 135357, Note_off_c, 0, 64, 71
1, 135372, Control_c, 0, 64, 80
1, 135387, Control_c, 0, 64, 0
1, 135398, Note_on_c, 0, 72, 102
1, 135401, Note_on_c, 0, 76, 93
1, 135403, Note_on_c, 0, 84, 85
1, 135419, Note_on_c, 0, 82, 62
1, 135420, Note_off_c, 0, 84, 68
1, 135425, Note_off_c, 0, 76, 67
1, 135436, Note_on_c, 0, 83, 46
1, 135437, Note_off_c, 0, 83, 127
1, 135437, Note_off_c, 0, 82, 65
1, 135437, Note_off_c, 0, 72, 66
1, 135462, Note_on_c, 0, 71, 111
1, 135466, Note_on_c, 0, 70, 91
1, 135467, Note_on_c, 0, 64, 86
1, 135475, Note_off_c, 0, 71, 73
1, 135482, Note_on_c, 0, 65, 68
1, 135490, Note_off_c, 0, 70, 64
1, 135491, Note_off_c, 0, 64, 69
1, 135508, Note_off_c, 0, 65, 67
1, 135544, Note_on_c, 0, 67, 95
1, 135544, Note_on_c, 0, 76, 89
1, 135548, Note_on_c, 0, 79, 89
1, 135576, Note_off_c, 0, 67, 60
1, 135583, Note_off_c, 0, 76, 63
1, 135589, Note_off_c, 0, 79, 61
1, 135595, Note_on_c, 0, 59, 83
1, 135601, Note_on_c, 0, 69, 80
1, 135603, Note_on_c, 0, 66, 76
1, 135625, Note_off_c, 0, 66, 69
1, 135627, Note_off_c, 0, 69, 65
1, 135647, Note_off_c, 0, 59, 63
1, 135684, Control_c, 0, 64, 127
1, 135701, Note_on_c, 0, 83, 90
1, 135702, Note_on_c, 0, 75, 92
1, 135707, Note_on_c, 0, 78, 72
1, 135730, Note_on_c, 0, 80, 53
1, 135762, Note_on_c, 0, 71, 87
1, 135762, Note_off_c, 0, 78, 61
1, 135767, Note_off_c, 0, 83, 62
1, 135767, Note_off_c, 0, 80, 50
1, 135771, Note_off_c, 0, 75, 62
1, 135796, Note_off_c, 0, 71, 61
1, 135846, Note_on_c, 0, 71, 74
1, 135851, Note_on_c, 0, 66, 81
1, 135854, Note_on_c, 0, 63, 72
1, 135866, Note_off_c, 0, 71, 73
1, 135919, Note_on_c, 0, 59, 72
1, 135919, Note_off_c, 0, 66, 59
1, 135928, Note_off_c, 0, 63, 61
1, 135941, Note_off_c, 0, 59, 68
1, 135999, Note_on_c, 0, 71, 83
1, 136006, Note_on_c, 0, 63, 76
1, 136006, Note_on_c, 0, 66, 82
1, 136054, Note_on_c, 0, 59, 74
1, 136087, Note_off_c, 0, 63, 57
1, 136099, Note_off_c, 0, 59, 63
1, 136109, Note_off_c, 0, 66, 62
1, 136120, Note_off_c, 0, 71, 64
1, 136134, Note_on_c, 0, 47, 79
1, 136206, Note_on_c, 0, 35, 83
1, 136226, Note_off_c, 0, 47, 66
1, 136233, Note_off_c, 0, 35, 64
1, 136285, Control_c, 0, 64, 95
1, 136300, Control_c, 0, 64, 69
1, 136308, Note_on_c, 0, 84, 78
1, 136311, Note_on_c, 0, 76, 75
1, 136315, Control_c, 0, 64, 0
1, 136316, Note_on_c, 0, 72, 84
1, 136345, Note_off_c, 0, 84, 58
1, 136359, Control_c, 0, 64, 57
1, 136361, Note_off_c, 0, 76, 61
1, 136372, Note_off_c, 0, 72, 63
1, 136374, Control_c, 0, 64, 64
1, 136378, Note_on_c, 0, 71, 86
1, 136385, Note_on_c, 0, 70, 71
1, 136389, Control_c, 0, 64, 68
1, 136392, Note_on_c, 0, 65, 56
1, 136397, Note_off_c, 0, 71, 70
1, 136404, Control_c, 0, 64, 69
1, 136410, Note_on_c, 0, 64, 41
1, 136412, Note_off_c, 0, 70, 68
1, 136418, Control_c, 0, 64, 68
1, 136422, Note_off_c, 0, 65, 65
1, 136433, Control_c, 0, 64, 67
1, 136447, Note_off_c, 0, 64, 55
1, 136456, Control_c, 0, 64, 67
1, 136470, Note_on_c, 0, 67, 86
1, 136472, Note_on_c, 0, 76, 79
1, 136477, Note_on_c, 0, 79, 75
1, 136498, Note_off_c, 0, 67, 64
1, 136500, Control_c, 0, 64, 66
1, 136504, Note_off_c, 0, 76, 60
1, 136509, Note_off_c, 0, 79, 60
1, 136530, Control_c, 0, 64, 66
1, 136539, Note_on_c, 0, 64, 67
1, 136540, Note_on_c, 0, 69, 80
1, 136540, Note_on_c, 0, 60, 72
1, 136544, Control_c, 0, 64, 65
1, 136547, Note_on_c, 0, 59, 69
1, 136559, Control_c, 0, 64, 65
1, 136563, Note_off_c, 0, 69, 65
1, 136573, Note_off_c, 0, 59, 66
1, 136573, Note_off_c, 0, 60, 66
1, 136573, Note_off_c, 0, 64, 66
1, 136574, Control_c, 0, 64, 64
1, 136626, Note_on_c, 0, 76, 85
1, 136626, Note_on_c, 0, 72, 90
1, 136631, Note_on_c, 0, 84, 71
1, 136645, Note_off_c, 0, 84, 69
1, 136648, Note_off_c, 0, 76, 68
1, 136659, Note_off_c, 0, 72, 59
1, 136688, Note_on_c, 0, 71, 93
1, 136691, Note_on_c, 0, 64, 84
1, 136692, Note_on_c, 0, 70, 81
1, 136705, Note_off_c, 0, 71, 74
1, 136713, Note_off_c, 0, 70, 71
1, 136715, Note_off_c, 0, 64, 68
1, 136770, Note_on_c, 0, 76, 86
1, 136771, Note_on_c, 0, 67, 90
1, 136773, Note_on_c, 0, 79, 87
1, 136781, Control_c, 0, 64, 64
1, 136797, Note_off_c, 0, 67, 62
1, 136811, Note_off_c, 0, 76, 62
1, 136815, Note_off_c, 0, 79, 60
1, 136834, Note_on_c, 0, 61, 63
1, 136835, Note_off_c, 0, 61, 127
1, 136836, Note_on_c, 0, 69, 94
1, 136841, Control_c, 0, 64, 64
1, 136841, Note_on_c, 0, 59, 78
1, 136843, Note_on_c, 0, 60, 77
1, 136847, Note_on_c, 0, 64, 65
1, 136856, Control_c, 0, 64, 64
1, 136861, Note_off_c, 0, 69, 64
1, 136864, Note_off_c, 0, 59, 68
1, 136867, Note_off_c, 0, 60, 70
1, 136876, Note_off_c, 0, 64, 68
1, 136915, Control_c, 0, 64, 63
1, 136919, Note_on_c, 0, 72, 101
1, 136924, Note_on_c, 0, 76, 90
1, 136924, Note_on_c, 0, 84, 90
1, 136942, Note_on_c, 0, 82, 57
1, 136945, Note_off_c, 0, 84, 61
1, 136948, Note_off_c, 0, 76, 65
1, 136962, Note_off_c, 0, 72, 61
1, 136962, Note_off_c, 0, 82, 62
1, 136974, Control_c, 0, 64, 64
1, 136986, Note_on_c, 0, 71, 110
1, 136989, Note_on_c, 0, 64, 86
1, 136991, Note_on_c, 0, 70, 87
1, 137003, Note_off_c, 0, 71, 68
1, 137004, Control_c, 0, 64, 64
1, 137017, Note_off_c, 0, 70, 62
1, 137020, Control_c, 0, 64, 65
1, 137022, Note_off_c, 0, 64, 65
1, 137035, Control_c, 0, 64, 65
1, 137049, Control_c, 0, 64, 66
1, 137064, Control_c, 0, 64, 67
1, 137068, Note_on_c, 0, 67, 97
1, 137069, Note_on_c, 0, 76, 88
1, 137072, Note_on_c, 0, 79, 85
1, 137079, Control_c, 0, 64, 68
1, 137093, Control_c, 0, 64, 71
1, 137106, Note_off_c, 0, 67, 60
1, 137108, Control_c, 0, 64, 74
1, 137112, Note_off_c, 0, 76, 63
1, 137115, Note_off_c, 0, 79, 63
1, 137123, Control_c, 0, 64, 79
1, 137138, Control_c, 0, 64, 83
1, 137139, Note_on_c, 0, 69, 98
1, 137141, Note_on_c, 0, 59, 89
1, 137144, Note_on_c, 0, 60, 79
1, 137148, Note_on_c, 0, 64, 77
1, 137153, Control_c, 0, 64, 88
1, 137164, Note_off_c, 0, 59, 66
1, 137167, Control_c, 0, 64, 92
1, 137168, Note_off_c, 0, 64, 73
1, 137168, Note_off_c, 0, 69, 62
1, 137175, Note_off_c, 0, 60, 63
1, 137182, Control_c, 0, 64, 97
1, 137205, Control_c, 0, 64, 100
1, 137219, Control_c, 0, 64, 101
1, 137225, Note_on_c, 0, 72, 100
1, 137228, Note_on_c, 0, 76, 94
1, 137229, Note_on_c, 0, 84, 87
1, 137234, Control_c, 0, 64, 102
1, 137241, Note_on_c, 0, 82, 72
1, 137245, Note_on_c, 0, 83, 75
1, 137249, Control_c, 0, 64, 102
1, 137254, Note_off_c, 0, 76, 63
1, 137255, Note_off_c, 0, 84, 56
1, 137261, Note_off_c, 0, 83, 69
1, 137262, Note_off_c, 0, 82, 66
1, 137270, Note_off_c, 0, 72, 63
1, 137293, Control_c, 0, 64, 103
1, 137294, Note_on_c, 0, 72, 88
1, 137301, Note_on_c, 0, 64, 83
1, 137306, Note_on_c, 0, 65, 77
1, 137308, Control_c, 0, 64, 104
1, 137313, Note_off_c, 0, 72, 66
1, 137314, Note_on_c, 0, 70, 58
1, 137323, Control_c, 0, 64, 107
1, 137327, Note_off_c, 0, 64, 69
1, 137328, Note_off_c, 0, 65, 70
1, 137329, Note_on_c, 0, 71, 39
1, 137338, Note_off_c, 0, 70, 61
1, 137338, Control_c, 0, 64, 117
1, 137353, Control_c, 0, 64, 127
1, 137356, Note_off_c, 0, 71, 58
1, 137377, Note_on_c, 0, 76, 91
1, 137380, Note_on_c, 0, 67, 98
1, 137382, Note_on_c, 0, 79, 91
1, 137414, Poly_aftertouch_c, 0, 63, 0
1, 137419, Note_off_c, 0, 67, 58
1, 137422, Note_off_c, 0, 76, 64
1, 137422, Note_off_c, 0, 79, 65
1, 137440, Note_on_c, 0, 69, 95
1, 137446, Note_on_c, 0, 59, 79
1, 137449, Note_on_c, 0, 63, 63
1, 137456, Control_c, 0, 64, 93
1, 137471, Control_c, 0, 64, 50
1, 137479, Note_off_c, 0, 63, 66
1, 137486, Control_c, 0, 64, 0
1, 137487, Note_off_c, 0, 69, 61
1, 137491, Note_off_c, 0, 59, 55
1, 137500, Control_c, 0, 64, 63
1, 137515, Control_c, 0, 64, 86
1, 137519, Note_on_c, 0, 71, 113
1, 137520, Note_on_c, 0, 83, 95
1, 137522, Note_on_c, 0, 78, 90
1, 137524, Note_on_c, 0, 75, 90
1, 137530, Control_c, 0, 64, 127
1, 137532, Note_on_c, 0, 80, 69
1, 137534, Note_off_c, 0, 83, 76
1, 137538, Note_off_c, 0, 71, 63
1, 137541, Note_off_c, 0, 75, 74
1, 137544, Note_off_c, 0, 78, 66
1, 137548, Note_off_c, 0, 80, 69
1, 137604, Note_on_c, 0, 59, 67
1, 137605, Note_on_c, 0, 71, 82
1, 137606, Note_on_c, 0, 63, 79
1, 137613, Note_on_c, 0, 66, 74
1, 137619, Note_off_c, 0, 71, 77
1, 137634, Note_off_c, 0, 59, 65
1, 137636, Note_off_c, 0, 66, 68
1, 137652, Note_off_c, 0, 63, 58
1, 137681, Note_on_c, 0, 63, 78
1, 137684, Note_on_c, 0, 66, 89
1, 137715, Note_off_c, 0, 66, 52
1, 137720, Note_off_c, 0, 63, 60
1, 137764, Note_on_c, 0, 47, 93
1, 137765, Note_on_c, 0, 59, 97
1, 137782, Control_c, 0, 64, 66
1, 137783, Note_off_c, 0, 59, 68
1, 137785, Note_off_c, 0, 47, 71
1, 137797, Control_c, 0, 64, 0
1, 137844, Note_on_c, 0, 71, 98
1, 137845, Note_on_c, 0, 83, 84
1, 137845, Note_on_c, 0, 78, 86
1, 137851, Note_on_c, 0, 75, 75
1, 137858, Note_off_c, 0, 71, 77
1, 137862, Note_off_c, 0, 83, 72
1, 137863, Note_off_c, 0, 78, 70
1, 137868, Note_off_c, 0, 75, 69
1, 137921, Note_on_c, 0, 71, 95
1, 137924, Note_on_c, 0, 59, 77
1, 137947, Note_on_c, 0, 66, 50
1, 137948, Note_off_c, 0, 71, 68
1, 137953, Note_off_c, 0, 59, 69
1, 137974, Note_off_c, 0, 66, 37
1, 137995, Note_on_c, 0, 72, 98
1, 137998, Note_on_c, 0, 79, 93
1, 138003, Note_on_c, 0, 75, 75
1, 138003, Note_on_c, 0, 84, 82
1, 138010, Note_on_c, 0, 80, 51
1, 138011, Note_off_c, 0, 80, 127
1, 138012, Note_off_c, 0, 72, 69
1, 138019, Note_off_c, 0, 79, 64
1, 138023, Note_off_c, 0, 84, 72
1, 138025, Note_on_c, 0, 82, 42
1, 138027, Note_off_c, 0, 75, 66
1, 138033, Poly_aftertouch_c, 0, 80, 0
1, 138052, Note_off_c, 0, 82, 56
1, 138081, Note_on_c, 0, 72, 103
1, 138081, Note_on_c, 0, 63, 85
1, 138087, Note_on_c, 0, 67, 80
1, 138089, Note_on_c, 0, 61, 78
1, 138117, Note_off_c, 0, 67, 61
1, 138117, Note_off_c, 0, 72, 66
1, 138131, Control_c, 0, 64, 127
1, 138132, Note_off_c, 0, 61, 60
1, 138135, Note_off_c, 0, 63, 63
1, 138138, Note_on_c, 0, 71, 106
1, 138139, Note_on_c, 0, 78, 99
1, 138141, Note_on_c, 0, 75, 89
1, 138144, Note_on_c, 0, 83, 74
1, 138157, Note_off_c, 0, 71, 67
1, 138157, Note_off_c, 0, 78, 71
1, 138160, Note_off_c, 0, 75, 71
1, 138161, Note_off_c, 0, 83, 72
1, 138224, Note_on_c, 0, 71, 94
1, 138230, Note_on_c, 0, 63, 68
1, 138230, Note_on_c, 0, 66, 64
1, 138236, Note_off_c, 0, 71, 81
1, 138237, Note_on_c, 0, 59, 72
1, 138247, Note_off_c, 0, 66, 68
1, 138254, Note_off_c, 0, 63, 64
1, 138264, Note_off_c, 0, 59, 66
1, 138278, Note_on_c, 0, 65, 32
1, 138295, Poly_aftertouch_c, 0, 63, 0
1, 138296, Note_on_c, 0, 66, 96
1, 138300, Note_on_c, 0, 63, 82
1, 138323, Note_off_c, 0, 63, 64
1, 138328, Note_off_c, 0, 65, 44
1, 138329, Note_off_c, 0, 66, 60
1, 138368, Note_on_c, 0, 59, 87
1, 138376, Note_on_c, 0, 47, 91
1, 138397, Note_off_c, 0, 47, 70
1, 138400, Note_off_c, 0, 59, 63
1, 138427, Control_c, 0, 64, 80
1, 138442, Control_c, 0, 64, 0
1, 138453, Note_on_c, 0, 83, 85
1, 138454, Note_on_c, 0, 71, 92
1, 138463, Note_on_c, 0, 75, 73
1, 138470, Note_off_c, 0, 71, 76
1, 138472, Note_off_c, 0, 83, 69
1, 138479, Note_on_c, 0, 78, 36
1, 138480, Note_off_c, 0, 78, 127
1, 138484, Note_off_c, 0, 75, 70
1, 138525, Note_on_c, 0, 71, 86
1, 138527, Note_on_c, 0, 63, 75
1, 138528, Note_on_c, 0, 59, 73
1, 138534, Note_on_c, 0, 66, 67
1, 138543, Note_off_c, 0, 71, 71
1, 138550, Note_off_c, 0, 59, 69
1, 138556, Note_off_c, 0, 63, 63
1, 138559, Note_off_c, 0, 66, 66
1, 138597, Note_on_c, 0, 72, 101
1, 138601, Note_on_c, 0, 79, 91
1, 138605, Note_on_c, 0, 84, 78
1, 138607, Note_on_c, 0, 75, 71
1, 138617, Note_off_c, 0, 72, 67
1, 138623, Note_on_c, 0, 82, 48
1, 138626, Note_off_c, 0, 84, 71
1, 138629, Note_off_c, 0, 79, 56
1, 138630, Note_off_c, 0, 75, 68
1, 138647, Note_off_c, 0, 82, 59
1, 138663, Note_on_c, 0, 72, 98
1, 138668, Note_on_c, 0, 63, 80
1, 138668, Note_on_c, 0, 67, 84
1, 138675, Note_on_c, 0, 61, 75
1, 138708, Note_off_c, 0, 72, 61
1, 138711, Note_off_c, 0, 67, 60
1, 138712, Note_off_c, 0, 61, 65
1, 138717, Note_off_c, 0, 63, 57
1, 138746, Note_on_c, 0, 71, 108
1, 138746, Control_c, 0, 64, 74
1, 138754, Note_on_c, 0, 78, 90
1, 138754, Note_on_c, 0, 83, 85
1, 138757, Note_on_c, 0, 75, 84
1, 138761, Control_c, 0, 64, 127
1, 138765, Note_on_c, 0, 80, 74
1, 138767, Note_off_c, 0, 83, 73
1, 138772, Note_off_c, 0, 71, 65
1, 138773, Note_off_c, 0, 78, 72
1, 138774, Note_off_c, 0, 75, 73
1, 138783, Note_off_c, 0, 80, 67
1, 138813, Note_on_c, 0, 71, 83
1, 138818, Note_on_c, 0, 66, 91
1, 138820, Note_on_c, 0, 63, 88
1, 138825, Note_off_c, 0, 71, 81
1, 138833, Note_on_c, 0, 59, 67
1, 138850, Note_on_c, 0, 60, 56
1, 138856, Note_off_c, 0, 66, 59
1, 138860, Note_off_c, 0, 59, 64
1, 138861, Note_on_c, 0, 83, 30
1, 138867, Note_off_c, 0, 63, 60
1, 138886, Note_off_c, 0, 60, 53
1, 138901, Note_off_c, 0, 83, 44
1, 138904, Note_on_c, 0, 66, 88
1, 138906, Note_on_c, 0, 63, 84
1, 138936, Note_off_c, 0, 63, 63
1, 138945, Note_off_c, 0, 66, 60
1, 138966, Note_on_c, 0, 59, 83
1, 138971, Note_on_c, 0, 47, 89
1, 138993, Note_off_c, 0, 47, 69
1, 138996, Note_off_c, 0, 59, 62
1, 139011, Note_on_c, 0, 48, 32
1, 139028, Control_c, 0, 64, 104
1, 139043, Control_c, 0, 64, 70
1, 139045, Note_off_c, 0, 48, 50
1, 139056, Poly_aftertouch_c, 0, 49, 0
1, 139058, Control_c, 0, 64, 0
1, 139059, Note_on_c, 0, 71, 90
1, 139059, Note_on_c, 0, 78, 79
1, 139063, Note_on_c, 0, 83, 71
1, 139074, Note_on_c, 0, 75, 53
1, 139074, Note_off_c, 0, 71, 75
1, 139080, Note_off_c, 0, 78, 67
1, 139084, Note_off_c, 0, 83, 71
1, 139097, Note_off_c, 0, 75, 61
1, 139117, Control_c, 0, 64, 45
1, 139122, Note_on_c, 0, 71, 82
1, 139125, Note_on_c, 0, 63, 75
1, 139132, Control_c, 0, 64, 59
1, 139133, Note_on_c, 0, 66, 58
1, 139142, Note_on_c, 0, 59, 43
1, 139143, Note_off_c, 0, 71, 70
1, 139147, Control_c, 0, 64, 63
1, 139157, Note_off_c, 0, 63, 64
1, 139160, Note_off_c, 0, 66, 65
1, 139162, Control_c, 0, 64, 64
1, 139171, Note_off_c, 0, 59, 55
1, 139177, Control_c, 0, 64, 64
1, 139192, Control_c, 0, 64, 65
1, 139202, Note_on_c, 0, 72, 96
1, 139205, Note_on_c, 0, 79, 85
1, 139207, Control_c, 0, 64, 67
1, 139209, Note_on_c, 0, 75, 62
1, 139212, Note_on_c, 0, 84, 71
1, 139217, Note_off_c, 0, 72, 71
1, 139221, Control_c, 0, 64, 71
1, 139227, Note_off_c, 0, 84, 68
1, 139229, Note_off_c, 0, 79, 61
1, 139236, Note_off_c, 0, 75, 67
1, 139236, Control_c, 0, 64, 75
1, 139244, Note_on_c, 0, 82, 13
1, 139251, Control_c, 0, 64, 79
1, 139265, Control_c, 0, 64, 85
1, 139266, Note_on_c, 0, 63, 78
1, 139268, Note_on_c, 0, 72, 86
1, 139270, Note_on_c, 0, 67, 78
1, 139280, Control_c, 0, 64, 92
1, 139288, Note_off_c, 0, 82, 29
1, 139289, Note_off_c, 0, 72, 70
1, 139295, Control_c, 0, 64, 102
1, 139298, Note_on_c, 0, 62, 50
1, 139299, Note_off_c, 0, 67, 62
1, 139310, Control_c, 0, 64, 118
1, 139323, Note_off_c, 0, 63, 60
1, 139325, Note_off_c, 0, 62, 56
1, 139325, Control_c, 0, 64, 127
1, 139347, Note_on_c, 0, 71, 110
1, 139352, Note_on_c, 0, 78, 91
1, 139356, Note_on_c, 0, 83, 88
1, 139357, Note_on_c, 0, 75, 79
1, 139376, Note_off_c, 0, 71, 61
1, 139377, Note_off_c, 0, 83, 67
1, 139378, Note_on_c, 0, 80, 45
1, 139382, Note_off_c, 0, 75, 62
1, 139398, Note_off_c, 0, 78, 61
1, 139403, Note_off_c, 0, 80, 56
1, 139423, Note_on_c, 0, 71, 95
1, 139428, Note_on_c, 0, 59, 83
1, 139428, Note_on_c, 0, 63, 79
1, 139428, Note_on_c, 0, 66, 84
1, 139470, Note_off_c, 0, 59, 56
1, 139472, Note_off_c, 0, 71, 64
1, 139473, Note_off_c, 0, 66, 55
1, 139478, Note_off_c, 0, 63, 53
1, 139503, Note_on_c, 0, 72, 105
1, 139506, Note_on_c, 0, 79, 99
1, 139509, Note_on_c, 0, 75, 88
1, 139512, Note_on_c, 0, 84, 87
1, 139527, Note_on_c, 0, 82, 63
1, 139530, Note_off_c, 0, 84, 72
1, 139533, Note_off_c, 0, 72, 66
1, 139546, Note_off_c, 0, 82, 63
1, 139548, Note_off_c, 0, 79, 60
1, 139559, Note_off_c, 0, 75, 60
1, 139575, Note_on_c, 0, 72, 104
1, 139578, Note_on_c, 0, 63, 90
1, 139586, Note_on_c, 0, 61, 84
1, 139586, Note_on_c, 0, 67, 86
1, 139589, Note_on_c, 0, 68, 54
1, 139607, Note_off_c, 0, 72, 66
1, 139615, Note_off_c, 0, 67, 58
1, 139617, Note_off_c, 0, 68, 64
1, 139632, Note_off_c, 0, 61, 55
1, 139632, Note_off_c, 0, 63, 59
1, 139661, Note_on_c, 0, 71, 111
1, 139664, Note_on_c, 0, 78, 102
1, 139667, Note_on_c, 0, 75, 89
1, 139667, Note_on_c, 0, 83, 93
1, 139688, Note_on_c, 0, 80, 49
1, 139688, Note_off_c, 0, 71, 67
1, 139689, Note_off_c, 0, 83, 62
1, 139692, Note_off_c, 0, 75, 62
1, 139704, Note_off_c, 0, 78, 64
1, 139712, Note_off_c, 0, 80, 59
1, 139723, Note_on_c, 0, 59, 89
1, 139723, Note_on_c, 0, 71, 92
1, 139726, Note_on_c, 0, 66, 85
1, 139751, Note_off_c, 0, 66, 66
1, 139761, Note_on_c, 0, 63, 18
1, 139769, Note_off_c, 0, 59, 64
1, 139772, Note_off_c, 0, 71, 62
1, 139789, Note_off_c, 0, 63, 59
1, 139792, Control_c, 0, 64, 113
1, 139807, Control_c, 0, 64, 67
1, 139814, Note_on_c, 0, 74, 119
1, 139820, Note_on_c, 0, 77, 90
1, 139820, Note_on_c, 0, 81, 100
1, 139821, Note_on_c, 0, 86, 104
1, 139822, Control_c, 0, 64, 0
1, 139834, Poly_aftertouch_c, 0, 69, 0
1, 139836, Note_off_c, 0, 74, 73
1, 139837, Control_c, 0, 64, 59
1, 139838, Note_off_c, 0, 81, 65
1, 139839, Note_off_c, 0, 86, 67
1, 139846, Note_off_c, 0, 77, 66
1, 139848, Note_on_c, 0, 84, 40
1, 139852, Control_c, 0, 64, 127
1, 139864, Note_on_c, 0, 82, 15
1, 139865, Note_off_c, 0, 82, 127
1, 139870, Note_on_c, 0, 65, 63
1, 139872, Note_off_c, 0, 84, 62
1, 139881, Note_on_c, 0, 74, 109
1, 139885, Note_on_c, 0, 63, 68
1, 139886, Note_on_c, 0, 69, 86
1, 139918, Note_on_c, 0, 66, 57
1, 139928, Note_off_c, 0, 74, 69
1, 139934, Note_off_c, 0, 69, 65
1, 139944, Note_off_c, 0, 65, 64
1, 139953, Note_off_c, 0, 63, 59
1, 139956, Note_off_c, 0, 66, 50
1, 140000, Control_c, 0, 64, 84
1, 140014, Control_c, 0, 64, 0
1, 140701, Note_on_c, 0, 23, 74
1, 140705, Note_on_c, 0, 35, 61
1, 140731, Note_off_c, 0, 23, 60
1, 140731, Note_off_c, 0, 35, 60
1, 140771, Note_on_c, 0, 42, 57
1, 140774, Note_on_c, 0, 38, 49
1, 140805, Note_off_c, 0, 38, 54
1, 140809, Note_off_c, 0, 42, 62
1, 140846, Note_on_c, 0, 39, 65
1, 140852, Note_on_c, 0, 27, 57
1, 140874, Note_off_c, 0, 39, 57
1, 140892, Note_off_c, 0, 27, 34
1, 140914, Note_on_c, 0, 41, 68
1, 140921, Note_on_c, 0, 45, 59
1, 140950, Note_off_c, 0, 41, 63
1, 140954, Note_off_c, 0, 45, 60
1, 140994, Note_on_c, 0, 42, 71
1, 140997, Note_on_c, 0, 30, 65
1, 141025, Note_off_c, 0, 42, 65
1, 141029, Note_off_c, 0, 30, 62
1, 141079, Note_on_c, 0, 44, 62
1, 141081, Note_on_c, 0, 48, 64
1, 141107, Note_off_c, 0, 44, 65
1, 141116, Note_off_c, 0, 48, 64
1, 141140, Note_on_c, 0, 45, 72
1, 141145, Note_on_c, 0, 33, 61
1, 141167, Note_off_c, 0, 45, 66
1, 141175, Note_off_c, 0, 33, 56
1, 141235, Note_on_c, 0, 51, 68
1, 141236, Note_on_c, 0, 46, 62
1, 141262, Note_off_c, 0, 46, 63
1, 141269, Note_off_c, 0, 51, 68
1, 141294, Note_on_c, 0, 35, 72
1, 141295, Note_on_c, 0, 47, 71
1, 141323, Note_off_c, 0, 47, 66
1, 141325, Note_off_c, 0, 35, 65
1, 141374, Note_on_c, 0, 54, 69
1, 141376, Note_on_c, 0, 50, 67
1, 141393, Control_c, 0, 64, 17
1, 141403, Note_off_c, 0, 50, 68
1, 141407, Control_c, 0, 64, 36
1, 141415, Note_off_c, 0, 54, 63
1, 141422, Control_c, 0, 64, 40
1, 141430, Note_on_c, 0, 51, 87
1, 141437, Control_c, 0, 64, 43
1, 141438, Note_on_c, 0, 39, 66
1, 141452, Control_c, 0, 64, 45
1, 141458, Note_off_c, 0, 51, 63
1, 141464, Note_off_c, 0, 39, 59
1, 141466, Control_c, 0, 64, 46
1, 141481, Control_c, 0, 64, 48
1, 141496, Control_c, 0, 64, 52
1, 141511, Control_c, 0, 64, 55
1, 141519, Note_on_c, 0, 57, 69
1, 141526, Note_on_c, 0, 53, 57
1, 141526, Control_c, 0, 64, 57
1, 141540, Control_c, 0, 64, 59
1, 141545, Note_off_c, 0, 57, 68
1, 141549, Note_off_c, 0, 53, 61
1, 141555, Control_c, 0, 64, 61
1, 141570, Control_c, 0, 64, 62
1, 141575, Note_on_c, 0, 54, 91
1, 141578, Note_on_c, 0, 42, 77
1, 141585, Control_c, 0, 64, 63
1, 141600, Control_c, 0, 64, 64
1, 141609, Note_off_c, 0, 54, 60
1, 141610, Note_off_c, 0, 42, 65
1, 141614, Control_c, 0, 64, 66
1, 141629, Control_c, 0, 64, 67
1, 141644, Control_c, 0, 64, 68
1, 141652, Note_on_c, 0, 56, 75
1, 141652, Note_on_c, 0, 60, 72
1, 141686, Note_off_c, 0, 56, 66
1, 141700, Note_off_c, 0, 60, 62
1, 141722, Note_on_c, 0, 57, 91
1, 141727, Note_on_c, 0, 45, 83
1, 141740, Control_c, 0, 64, 69
1, 141753, Note_off_c, 0, 57, 58
1, 141755, Note_off_c, 0, 45, 68
1, 141770, Control_c, 0, 64, 68
1, 141785, Control_c, 0, 64, 68
1, 141798, Note_on_c, 0, 63, 83
1, 141800, Control_c, 0, 64, 66
1, 141801, Note_on_c, 0, 58, 78
1, 141816, Control_c, 0, 64, 63
1, 141824, Note_off_c, 0, 58, 69
1, 141830, Control_c, 0, 64, 60
1, 141845, Control_c, 0, 64, 57
1, 141853, Note_off_c, 0, 63, 64
1, 141860, Control_c, 0, 64, 60
1, 141865, Note_on_c, 0, 59, 89
1, 141868, Note_on_c, 0, 47, 85
1, 141875, Control_c, 0, 64, 64
1, 141889, Control_c, 0, 64, 68
1, 141891, Note_off_c, 0, 47, 71
1, 141898, Note_off_c, 0, 59, 59
1, 141904, Control_c, 0, 64, 70
1, 141919, Control_c, 0, 64, 74
1, 141934, Control_c, 0, 64, 78
1, 141937, Note_on_c, 0, 66, 86
1, 141947, Note_on_c, 0, 62, 74
1, 141949, Control_c, 0, 64, 82
1, 141963, Control_c, 0, 64, 88
1, 141971, Note_off_c, 0, 62, 67
1, 141978, Control_c, 0, 64, 93
1, 141993, Control_c, 0, 64, 97
1, 141998, Note_off_c, 0, 66, 62
1, 142006, Note_on_c, 0, 63, 99
1, 142008, Note_on_c, 0, 51, 92
1, 142008, Control_c, 0, 64, 102
1, 142023, Control_c, 0, 64, 108
1, 142037, Note_off_c, 0, 51, 65
1, 142038, Control_c, 0, 64, 117
1, 142048, Note_off_c, 0, 63, 60
1, 142053, Control_c, 0, 64, 127
1, 142084, Note_on_c, 0, 69, 94
1, 142088, Note_on_c, 0, 65, 81
1, 142097, Control_c, 0, 64, 101
1, 142108, Note_off_c, 0, 65, 72
1, 142112, Control_c, 0, 64, 81
1, 142120, Note_off_c, 0, 69, 65
1, 142127, Control_c, 0, 64, 65
1, 142142, Control_c, 0, 64, 58
1, 142149, Note_on_c, 0, 66, 106
1, 142153, Note_on_c, 0, 54, 91
1, 142156, Control_c, 0, 64, 67
1, 142171, Control_c, 0, 64, 79
1, 142186, Note_off_c, 0, 54, 59
1, 142186, Control_c, 0, 64, 98
1, 142190, Note_off_c, 0, 66, 62
1, 142201, Control_c, 0, 64, 127
1, 142227, Note_on_c, 0, 68, 94
1, 142228, Note_on_c, 0, 72, 94
1, 142257, Poly_aftertouch_c, 0, 56, 0
1, 142267, Note_off_c, 0, 68, 60
1, 142272, Note_off_c, 0, 72, 65
1, 142297, Note_on_c, 0, 69, 99
1, 142302, Note_on_c, 0, 57, 93
1, 142334, Note_off_c, 0, 69, 63
1, 142337, Note_off_c, 0, 57, 59
1, 142376, Note_on_c, 0, 75, 98
1, 142379, Note_on_c, 0, 70, 94
1, 142411, Poly_aftertouch_c, 0, 58, 0
1, 142419, Note_off_c, 0, 70, 62
1, 142442, Note_off_c, 0, 75, 65
1, 142463, Note_on_c, 0, 71, 103
1, 142464, Note_on_c, 0, 59, 97
1, 142494, Note_off_c, 0, 59, 68
1, 142494, Note_off_c, 0, 71, 68
1, 142530, Note_on_c, 0, 61, 3
1, 142543, Note_on_c, 0, 74, 98
1, 142547, Note_on_c, 0, 77, 90
1, 142573, Note_off_c, 0, 61, 35
1, 142576, Note_off_c, 0, 74, 68
1, 142590, Note_off_c, 0, 77, 65
1, 142615, Note_on_c, 0, 75, 100
1, 142621, Note_on_c, 0, 63, 91
1, 142646, Note_off_c, 0, 63, 61
1, 142646, Note_off_c, 0, 75, 69
1, 142651, Note_on_c, 0, 62, 48
1, 142655, Note_on_c, 0, 73, 32
1, 142678, Note_off_c, 0, 62, 56
1, 142688, Note_off_c, 0, 73, 55
1, 142692, Note_on_c, 0, 81, 107
1, 142698, Note_on_c, 0, 77, 89
1, 142740, Note_off_c, 0, 81, 65
1, 142743, Note_off_c, 0, 77, 66
1, 142758, Control_c, 0, 64, 90
1, 142773, Control_c, 0, 64, 34
1, 142773, Note_on_c, 0, 71, 110
1, 142776, Note_on_c, 0, 66, 98
1, 142777, Note_on_c, 0, 59, 95
1, 142787, Control_c, 0, 64, 0
1, 142802, Control_c, 0, 64, 19
1, 142804, Note_on_c, 0, 61, 41
1, 142817, Control_c, 0, 64, 75
1, 142830, Note_off_c, 0, 59, 60
1, 142832, Control_c, 0, 64, 127
1, 142833, Note_off_c, 0, 66, 61
1, 142834, Note_off_c, 0, 61, 53
1, 142839, Note_off_c, 0, 71, 55
1, 142870, Note_on_c, 0, 73, 106
1, 142873, Note_on_c, 0, 85, 94
1, 142877, Note_on_c, 0, 75, 93
1, 142891, Note_off_c, 0, 75, 69
1, 142893, Note_on_c, 0, 80, 44
1, 142894, Note_off_c, 0, 80, 127
1, 142898, Note_on_c, 0, 86, 61
1, 142913, Note_off_c, 0, 73, 59
1, 142917, Note_off_c, 0, 86, 65
1, 142932, Note_off_c, 0, 85, 58
1, 142958, Note_on_c, 0, 74, 107
1, 142961, Note_on_c, 0, 62, 94
1, 142963, Note_on_c, 0, 69, 91
1, 142997, Note_off_c, 0, 62, 66
1, 142998, Note_off_c, 0, 69, 59
1, 143002, Note_off_c, 0, 74, 65
1, 143050, Note_on_c, 0, 75, 96
1, 143053, Note_on_c, 0, 87, 96
1, 143053, Poly_aftertouch_c, 0, 64, 127
1, 143077, Note_on_c, 0, 85, 47
1, 143088, Note_off_c, 0, 75, 67
1, 143089, Poly_aftertouch_c, 0, 64, 0
1, 143094, Note_on_c, 0, 88, 42
1, 143097, Note_on_c, 0, 80, 19
1, 143098, Note_off_c, 0, 80, 127
1, 143102, Note_off_c, 0, 85, 56
1, 143116, Note_off_c, 0, 87, 61
1, 143119, Note_off_c, 0, 88, 56
1, 143157, Control_c, 0, 64, 72
1, 143162, Poly_aftertouch_c, 0, 70, 0
1, 143172, Control_c, 0, 64, 0
1, 143188, Note_on_c, 0, 78, 106
1, 143191, Note_on_c, 0, 68, 93
1, 143202, Note_on_c, 0, 71, 65
1, 143209, Control_c, 0, 64, 76
1, 143217, Note_on_c, 0, 67, 65
1, 143218, Note_on_c, 0, 72, 55
1, 143220, Note_on_c, 0, 66, 32
1, 143224, Control_c, 0, 64, 127
1, 143228, Note_off_c, 0, 78, 69
1, 143238, Note_off_c, 0, 72, 61
1, 143240, Note_off_c, 0, 71, 62
1, 143244, Note_off_c, 0, 67, 67
1, 143253, Note_off_c, 0, 68, 61
1, 143262, Note_off_c, 0, 66, 49
1, 143279, Note_on_c, 0, 83, 81
1, 143281, Note_on_c, 0, 80, 81
1, 143289, Note_on_c, 0, 78, 95
1, 143306, Note_on_c, 0, 90, 63
1, 143309, Note_on_c, 0, 87, 55
1, 143334, Note_off_c, 0, 87, 59
1, 143334, Note_off_c, 0, 90, 66
1, 143359, Note_off_c, 0, 78, 62
1, 143365, Note_off_c, 0, 83, 59
1, 143369, Note_on_c, 0, 52, 90
1, 143370, Note_on_c, 0, 59, 87
1, 143372, Note_off_c, 0, 80, 58
1, 143391, Note_off_c, 0, 59, 66
1, 143393, Note_off_c, 0, 52, 67
1, 143435, Note_on_c, 0, 76, 98
1, 143443, Note_on_c, 0, 88, 86
1, 143446, Note_on_c, 0, 80, 66
1, 143453, Note_on_c, 0, 83, 73
1, 143467, Note_off_c, 0, 76, 63
1, 143485, Note_off_c, 0, 88, 65
1, 143495, Note_off_c, 0, 83, 61
1, 143497, Note_off_c, 0, 80, 64
1, 143515, Note_on_c, 0, 78, 109
1, 143522, Note_on_c, 0, 68, 85
1, 143526, Note_on_c, 0, 71, 78
1, 143527, Note_on_c, 0, 66, 78
1, 143550, Note_off_c, 0, 71, 67
1, 143554, Note_on_c, 0, 77, 37
1, 143554, Note_off_c, 0, 78, 70
1, 143570, Note_off_c, 0, 68, 61
1, 143571, Note_off_c, 0, 66, 50
1, 143582, Note_on_c, 0, 78, 92
1, 143584, Note_off_c, 0, 77, 59
1, 143589, Note_on_c, 0, 82, 62
1, 143592, Note_on_c, 0, 80, 82
1, 143602, Note_on_c, 0, 87, 73
1, 143608, Note_on_c, 0, 83, 64
1, 143624, Note_off_c, 0, 87, 70
1, 143652, Note_off_c, 0, 78, 59
1, 143654, Note_off_c, 0, 83, 58
1, 143658, Note_off_c, 0, 80, 60
1, 143670, Note_on_c, 0, 76, 102
1, 143673, Note_on_c, 0, 68, 92
1, 143676, Note_on_c, 0, 71, 84
1, 143679, Note_on_c, 0, 64, 83
1, 143682, Note_off_c, 0, 82, 40
1, 143713, Note_off_c, 0, 76, 59
1, 143725, Note_off_c, 0, 71, 63
1, 143733, Note_off_c, 0, 68, 58
1, 143735, Note_off_c, 0, 64, 60
1, 143742, Note_on_c, 0, 76, 98
1, 143747, Note_on_c, 0, 83, 87
1, 143756, Note_on_c, 0, 80, 76
1, 143763, Note_on_c, 0, 88, 69
1, 143773, Note_on_c, 0, 85, 48
1, 143773, Control_c, 0, 64, 74
1, 143779, Note_off_c, 0, 88, 66
1, 143786, Note_off_c, 0, 76, 64
1, 143788, Control_c, 0, 64, 0
1, 143790, Note_off_c, 0, 80, 52
1, 143798, Note_off_c, 0, 85, 45
1, 143800, Note_off_c, 0, 83, 63
1, 143817, Control_c, 0, 64, 46
1, 143819, Note_on_c, 0, 74, 110
1, 143822, Note_on_c, 0, 64, 92
1, 143828, Note_on_c, 0, 68, 93
1, 143831, Note_on_c, 0, 62, 82
1, 143832, Control_c, 0, 64, 75
1, 143847, Control_c, 0, 64, 100
1, 143861, Control_c, 0, 64, 127
1, 143882, Note_off_c, 0, 74, 70
1, 143885, Note_on_c, 0, 72, 106
1, 143893, Note_on_c, 0, 82, 86
1, 143904, Note_on_c, 0, 80, 64
1, 143906, Note_on_c, 0, 84, 59
1, 143912, Note_off_c, 0, 72, 67
1, 143912, Note_off_c, 0, 82, 70
1, 143914, Note_off_c, 0, 62, 55
1, 143922, Note_off_c, 0, 80, 64
1, 143923, Note_off_c, 0, 64, 62
1, 143932, Note_off_c, 0, 84, 64
1, 143941, Note_off_c, 0, 68, 58
1, 143978, Note_on_c, 0, 71, 105
1, 143980, Note_on_c, 0, 80, 94
1, 143992, Note_on_c, 0, 83, 72
1, 144010, Note_on_c, 0, 82, 58
1, 144010, Note_off_c, 0, 71, 65
1, 144024, Note_off_c, 0, 83, 60
1, 144037, Note_off_c, 0, 82, 57
1, 144037, Note_on_c, 0, 64, 68
1, 144043, Note_on_c, 0, 68, 73
1, 144043, Note_on_c, 0, 60, 62
1, 144055, Note_off_c, 0, 80, 59
1, 144062, Note_on_c, 0, 72, 18
1, 144062, Note_off_c, 0, 68, 68
1, 144063, Note_off_c, 0, 64, 68
1, 144070, Note_off_c, 0, 60, 66
1, 144091, Control_c, 0, 64, 81
1, 144101, Note_off_c, 0, 72, 53
1, 144106, Control_c, 0, 64, 0
1, 144135, Control_c, 0, 64, 31
1, 144136, Note_on_c, 0, 76, 105
1, 144138, Note_on_c, 0, 65, 83
1, 144144, Note_on_c, 0, 64, 82
1, 144148, Note_on_c, 0, 69, 79
1, 144150, Control_c, 0, 64, 127
1, 144153, Note_on_c, 0, 74, 71
1, 144160, Note_on_c, 0, 68, 36
1, 144161, Note_off_c, 0, 68, 127
1, 144166, Note_off_c, 0, 76, 66
1, 144173, Note_off_c, 0, 74, 69
1, 144183, Note_off_c, 0, 69, 61
1, 144185, Note_on_c, 0, 70, 21
1, 144189, Note_off_c, 0, 64, 61
1, 144189, Note_off_c, 0, 65, 63
1, 144214, Note_on_c, 0, 81, 79
1, 144215, Note_on_c, 0, 76, 91
1, 144221, Note_on_c, 0, 77, 65
1, 144224, Note_off_c, 0, 70, 57
1, 144227, Note_on_c, 0, 88, 71
1, 144232, Note_on_c, 0, 78, 57
1, 144238, Note_on_c, 0, 86, 67
1, 144251, Note_on_c, 0, 84, 42
1, 144268, Note_off_c, 0, 86, 53
1, 144271, Note_off_c, 0, 88, 62
1, 144272, Note_off_c, 0, 76, 60
1, 144276, Note_off_c, 0, 84, 58
1, 144287, Note_on_c, 0, 62, 99
1, 144288, Note_on_c, 0, 52, 92
1, 144290, Note_on_c, 0, 57, 91
1, 144296, Note_on_c, 0, 53, 72
1, 144297, Note_off_c, 0, 77, 61
1, 144299, Note_off_c, 0, 81, 58
1, 144305, Note_off_c, 0, 62, 64
1, 144307, Note_on_c, 0, 54, 52
1, 144309, Note_off_c, 0, 52, 70
1, 144314, Note_off_c, 0, 57, 66
1, 144315, Note_off_c, 0, 78, 30
1, 144322, Note_off_c, 0, 53, 68
1, 144332, Note_off_c, 0, 54, 61
1, 144368, Note_on_c, 0, 74, 96
1, 144372, Note_on_c, 0, 81, 78
1, 144373, Note_on_c, 0, 77, 66
1, 144383, Note_on_c, 0, 86, 67
1, 144404, Note_off_c, 0, 86, 63
1, 144416, Note_off_c, 0, 74, 62
1, 144424, Note_off_c, 0, 81, 61
1, 144430, Note_on_c, 0, 76, 115
1, 144433, Note_on_c, 0, 65, 81
1, 144433, Note_off_c, 0, 77, 63
1, 144434, Note_on_c, 0, 64, 88
1, 144442, Note_on_c, 0, 69, 79
1, 144449, Note_off_c, 0, 76, 65
1, 144455, Note_on_c, 0, 74, 34
1, 144460, Note_off_c, 0, 64, 64
1, 144461, Note_off_c, 0, 69, 72
1, 144469, Note_off_c, 0, 65, 63
1, 144479, Note_off_c, 0, 74, 62
1, 144504, Note_on_c, 0, 74, 85
1, 144515, Note_on_c, 0, 77, 72
1, 144518, Note_on_c, 0, 81, 66
1, 144526, Poly_aftertouch_c, 0, 68, 0
1, 144529, Note_off_c, 0, 74, 66
1, 144534, Note_off_c, 0, 81, 68
1, 144538, Note_off_c, 0, 77, 70
1, 144596, Control_c, 0, 64, 83
1, 144597, Note_on_c, 0, 77, 88
1, 144610, Control_c, 0, 64, 0
1, 144623, Note_on_c, 0, 79, 54
1, 144642, Note_on_c, 0, 67, 86
1, 144645, Note_on_c, 0, 65, 91
1, 144645, Note_off_c, 0, 79, 61
1, 144648, Note_on_c, 0, 57, 79
1, 144653, Note_off_c, 0, 77, 62
1, 144665, Note_off_c, 0, 67, 65
1, 144669, Note_off_c, 0, 57, 69
1, 144679, Note_off_c, 0, 65, 63
1, 144744, Note_on_c, 0, 69, 99
1, 144750, Note_on_c, 0, 57, 84
1, 144753, Note_on_c, 0, 62, 77
1, 144753, Note_on_c, 0, 65, 77
1, 144780, Note_off_c, 0, 62, 66
1, 144782, Note_off_c, 0, 57, 66
1, 144785, Note_off_c, 0, 65, 63
1, 144785, Note_off_c, 0, 69, 64
1, 144812, Note_on_c, 0, 69, 86
1, 144823, Note_on_c, 0, 74, 79
1, 144824, Note_on_c, 0, 77, 76
1, 144824, Note_on_c, 0, 81, 77
1, 144851, Note_off_c, 0, 81, 61
1, 144851, Note_off_c, 0, 77, 65
1, 144853, Note_off_c, 0, 69, 64
1, 144854, Note_off_c, 0, 74, 61
1, 144891, Note_on_c, 0, 71, 104
1, 144895, Note_on_c, 0, 63, 91
1, 144897, Note_on_c, 0, 66, 85
1, 144903, Note_on_c, 0, 59, 80
1, 144922, Note_off_c, 0, 71, 65
1, 144922, Note_off_c, 0, 59, 69
1, 144924, Note_off_c, 0, 66, 62
1, 144943, Note_off_c, 0, 63, 62
1, 144970, Note_on_c, 0, 78, 84
1, 144971, Note_on_c, 0, 71, 89
1, 144979, Note_on_c, 0, 83, 60
1, 144997, Note_off_c, 0, 83, 64
1, 145002, Note_on_c, 0, 75, 20
1, 145003, Note_off_c, 0, 75, 127
1, 145008, Note_off_c, 0, 78, 62
1, 145012, Note_off_c, 0, 71, 64
1, 145035, Note_on_c, 0, 68, 103
1, 145040, Note_on_c, 0, 61, 88
1, 145044, Note_on_c, 0, 58, 84
1, 145046, Note_on_c, 0, 56, 95
1, 145047, Note_on_c, 0, 66, 86
1, 145049, Control_c, 0, 64, 127
1, 145058, Note_off_c, 0, 61, 73
1, 145062, Note_off_c, 0, 58, 69
1, 145065, Note_off_c, 0, 66, 66
1, 145068, Note_off_c, 0, 68, 62
1, 145071, Note_off_c, 0, 56, 65
1, 145071, Note_on_c, 0, 57, 59
1, 145074, Note_off_c, 0, 57, 0
1, 145074, Note_on_c, 0, 57, 35
1, 145094, Note_off_c, 0, 57, 65
1, 145095, Note_on_c, 0, 60, 85
1, 145100, Note_off_c, 0, 60, 0
1, 145100, Note_on_c, 0, 60, 65
1, 145107, Note_on_c, 0, 55, 79
1, 145114, Note_off_c, 0, 60, 0
1, 145114, Note_on_c, 0, 60, 63
1, 145119, Note_on_c, 0, 71, 68
1, 145122, Note_off_c, 0, 55, 0
1, 145122, Note_on_c, 0, 55, 72
1, 145126, Note_on_c, 0, 66, 91
1, 145128, Note_on_c, 0, 68, 87
1, 145135, Note_off_c, 0, 55, 0
1, 145135, Note_on_c, 0, 55, 60
1, 145146, Note_off_c, 0, 60, 46
1, 145149, Note_on_c, 0, 75, 46
1, 145170, Note_off_c, 0, 55, 42
1, 145175, Note_off_c, 0, 75, 59
1, 145180, Note_on_c, 0, 78, 15
1, 145180, Note_off_c, 0, 66, 61
1, 145194, Note_off_c, 0, 71, 62
1, 145198, Note_on_c, 0, 40, 95
1, 145198, Note_off_c, 0, 68, 56
1, 145199, Note_on_c, 0, 48, 98
1, 145219, Note_off_c, 0, 78, 54
1, 145220, Note_off_c, 0, 48, 69
1, 145222, Note_off_c, 0, 40, 70
1, 145278, Note_on_c, 0, 64, 94
1, 145287, Note_on_c, 0, 71, 74
1, 145289, Note_on_c, 0, 76, 75
1, 145300, Note_on_c, 0, 68, 70
1, 145310, Note_off_c, 0, 64, 61
1, 145316, Poly_aftertouch_c, 0, 47, 0
1, 145321, Note_off_c, 0, 76, 61
1, 145336, Note_off_c, 0, 68, 62
1, 145340, Note_off_c, 0, 71, 64
1, 145345, Control_c, 0, 64, 94
1, 145352, Note_on_c, 0, 66, 104
1, 145360, Control_c, 0, 64, 64
1, 145364, Note_on_c, 0, 56, 75
1, 145373, Note_on_c, 0, 54, 66
1, 145375, Control_c, 0, 64, 0
1, 145405, Control_c, 0, 64, 67
1, 145405, Note_off_c, 0, 66, 62
1, 145414, Note_off_c, 0, 56, 60
1, 145420, Control_c, 0, 64, 89
1, 145420, Note_off_c, 0, 54, 58
1, 145432, Poly_aftertouch_c, 0, 60, 127
1, 145439, Note_on_c, 0, 66, 87
1, 145441, Control_c, 0, 64, 127
1, 145442, Note_on_c, 0, 68, 81
1, 145443, Note_on_c, 0, 71, 76
1, 145456, Note_on_c, 0, 75, 63
1, 145476, Poly_aftertouch_c, 0, 60, 0
1, 145476, Note_off_c, 0, 75, 65
1, 145492, Note_off_c, 0, 66, 57
1, 145497, Note_off_c, 0, 71, 63
1, 145501, Note_off_c, 0, 68, 58
1, 145520, Note_on_c, 0, 65, 97
1, 145523, Note_on_c, 0, 59, 73
1, 145534, Note_on_c, 0, 57, 77
1, 145535, Note_on_c, 0, 64, 73
1, 145536, Note_on_c, 0, 52, 72
1, 145542, Note_on_c, 0, 53, 66
1, 145556, Note_off_c, 0, 64, 39
1, 145563, Note_off_c, 0, 65, 63
1, 145572, Note_off_c, 0, 57, 60
1, 145579, Note_off_c, 0, 59, 62
1, 145583, Note_off_c, 0, 53, 59
1, 145586, Note_on_c, 0, 64, 97
1, 145586, Note_off_c, 0, 52, 60
1, 145590, Note_on_c, 0, 71, 83
1, 145598, Note_on_c, 0, 68, 72
1, 145602, Note_on_c, 0, 76, 67
1, 145620, Note_off_c, 0, 76, 65
1, 145622, Note_off_c, 0, 64, 63
1, 145626, Note_off_c, 0, 68, 63
1, 145636, Note_off_c, 0, 71, 60
1, 145649, Control_c, 0, 64, 121
1, 145664, Control_c, 0, 64, 69
1, 145667, Note_on_c, 0, 62, 95
1, 145670, Note_on_c, 0, 52, 88
1, 145670, Note_on_c, 0, 56, 85
1, 145672, Note_on_c, 0, 50, 79
1, 145679, Control_c, 0, 64, 0
1, 145694, Poly_aftertouch_c, 0, 73, 0
1, 145720, Note_on_c, 0, 60, 95
1, 145723, Control_c, 0, 64, 67
1, 145728, Note_on_c, 0, 70, 77
1, 145738, Note_on_c, 0, 72, 62
1, 145738, Control_c, 0, 64, 86
1, 145745, Note_off_c, 0, 60, 66
1, 145747, Note_off_c, 0, 62, 61
1, 145749, Note_off_c, 0, 70, 71
1, 145753, Control_c, 0, 64, 106
1, 145757, Note_off_c, 0, 72, 64
1, 145759, Note_off_c, 0, 50, 60
1, 145768, Control_c, 0, 64, 124
1, 145774, Note_off_c, 0, 52, 59
1, 145778, Note_off_c, 0, 56, 59
1, 145781, Control_c, 0, 64, 127
1, 145797, Note_on_c, 0, 68, 38
1, 145801, Note_on_c, 0, 59, 101
1, 145816, Note_on_c, 0, 71, 76
1, 145838, Note_off_c, 0, 59, 65
1, 145851, Note_off_c, 0, 71, 59
1, 145871, Note_on_c, 0, 56, 83
1, 145871, Control_c, 0, 64, 88
1, 145876, Note_on_c, 0, 48, 76
1, 145876, Note_on_c, 0, 60, 75
1, 145879, Note_on_c, 0, 52, 62
1, 145883, Note_off_c, 0, 68, 62
1, 145886, Control_c, 0, 64, 0
1, 145895, Note_off_c, 0, 60, 68
1, 145896, Note_off_c, 0, 52, 68
1, 145897, Note_off_c, 0, 48, 63
1, 145899, Note_off_c, 0, 56, 67
1, 145901, Poly_aftertouch_c, 0, 70, 0
1, 145918, Note_on_c, 0, 53, 22
1, 145919, Note_off_c, 0, 53, 127
1, 145960, Control_c, 0, 64, 85
1, 145961, Note_on_c, 0, 53, 52
1, 145965, Note_on_c, 0, 52, 69
1, 145965, Note_on_c, 0, 64, 100
1, 145975, Control_c, 0, 64, 127
1, 145976, Note_on_c, 0, 57, 75
1, 145993, Note_off_c, 0, 64, 60
1, 146004, Note_off_c, 0, 57, 66
1, 146022, Note_off_c, 0, 52, 62
1, 146023, Note_off_c, 0, 53, 65
1, 146035, Note_on_c, 0, 64, 85
1, 146037, Note_on_c, 0, 69, 80
1, 146042, Note_on_c, 0, 65, 65
1, 146046, Poly_aftertouch_c, 0, 54, 127
1, 146050, Note_on_c, 0, 76, 74
1, 146060, Note_on_c, 0, 66, 48
1, 146064, Note_on_c, 0, 74, 66
1, 146073, Poly_aftertouch_c, 0, 54, 0
1, 146091, Note_off_c, 0, 66, 34
1, 146094, Note_off_c, 0, 64, 62
1, 146094, Note_off_c, 0, 76, 62
1, 146101, Note_off_c, 0, 74, 54
1, 146111, Note_off_c, 0, 65, 61
1, 146115, Note_off_c, 0, 69, 58
1, 146116, Note_on_c, 0, 50, 101
1, 146119, Note_on_c, 0, 45, 89
1, 146120, Note_on_c, 0, 40, 87
1, 146120, Note_on_c, 0, 41, 85
1, 146120, Poly_aftertouch_c, 0, 72, 127
1, 146135, Note_off_c, 0, 50, 75
1, 146145, Note_off_c, 0, 45, 66
1, 146146, Note_off_c, 0, 40, 66
1, 146148, Note_off_c, 0, 41, 64
1, 146161, Poly_aftertouch_c, 0, 72, 0
1, 146196, Note_on_c, 0, 62, 88
1, 146202, Note_on_c, 0, 65, 76
1, 146206, Note_on_c, 0, 74, 76
1, 146207, Note_on_c, 0, 69, 77
1, 146233, Note_off_c, 0, 74, 64
1, 146240, Note_off_c, 0, 62, 62
1, 146258, Note_off_c, 0, 69, 61
1, 146264, Note_off_c, 0, 65, 61
1, 146271, Note_on_c, 0, 64, 101
1, 146272, Note_on_c, 0, 53, 91
1, 146276, Note_on_c, 0, 57, 84
1, 146285, Note_on_c, 0, 52, 67
1, 146287, Note_off_c, 0, 64, 76
1, 146304, Note_off_c, 0, 57, 67
1, 146305, Note_on_c, 0, 62, 16
1, 146308, Note_off_c, 0, 52, 64
1, 146309, Note_off_c, 0, 53, 63
1, 146331, Note_off_c, 0, 62, 0
1, 146331, Note_on_c, 0, 62, 43
1, 146344, Note_on_c, 0, 65, 72
1, 146349, Note_on_c, 0, 69, 63
1, 146365, Note_off_c, 0, 65, 72
1, 146369, Note_off_c, 0, 62, 62
1, 146369, Note_off_c, 0, 69, 67
1, 146412, Control_c, 0, 64, 92
1, 146422, Note_on_c, 0, 55, 106
1, 146427, Control_c, 0, 64, 0
1, 146429, Note_on_c, 0, 65, 83
1, 146450, Note_off_c, 0, 55, 63
1, 146455, Note_on_c, 0, 67, 45
1, 146472, Note_off_c, 0, 65, 62
1, 146478, Note_on_c, 0, 55, 103
1, 146485, Note_off_c, 0, 67, 48
1, 146490, Note_on_c, 0, 52, 74
1, 146498, Note_on_c, 0, 43, 62
1, 146502, Note_on_c, 0, 45, 64
1, 146502, Note_off_c, 0, 55, 69
1, 146507, Note_on_c, 0, 53, 59
1, 146520, Note_off_c, 0, 52, 64
1, 146523, Note_off_c, 0, 45, 64
1, 146523, Note_off_c, 0, 43, 60
1, 146528, Note_off_c, 0, 53, 64
1, 146574, Note_on_c, 0, 57, 102
1, 146575, Note_on_c, 0, 45, 88
1, 146576, Note_on_c, 0, 53, 87
1, 146580, Note_on_c, 0, 50, 81
1, 146595, Note_on_c, 0, 55, 53
1, 146596, Note_off_c, 0, 55, 127
1, 146604, Note_off_c, 0, 45, 70
1, 146606, Note_on_c, 0, 52, 39
1, 146608, Note_off_c, 0, 50, 71
1, 146608, Note_off_c, 0, 53, 66
1, 146609, Note_off_c, 0, 57, 59
1, 146639, Note_on_c, 0, 57, 90
1, 146650, Note_off_c, 0, 52, 29
1, 146651, Note_on_c, 0, 62, 72
1, 146651, Note_on_c, 0, 65, 74
1, 146653, Note_on_c, 0, 69, 77
1, 146675, Note_off_c, 0, 57, 66
1, 146678, Note_off_c, 0, 65, 66
1, 146679, Note_off_c, 0, 69, 65
1, 146680, Note_off_c, 0, 62, 64
1, 146721, Note_on_c, 0, 59, 100
1, 146722, Note_on_c, 0, 51, 97
1, 146726, Note_on_c, 0, 54, 83
1, 146729, Note_on_c, 0, 47, 78
1, 146738, Note_off_c, 0, 59, 70
1, 146749, Note_off_c, 0, 54, 72
1, 146752, Note_off_c, 0, 51, 65
1, 146757, Note_off_c, 0, 47, 70
1, 146789, Note_on_c, 0, 59, 73
1, 146790, Note_on_c, 0, 66, 66
1, 146809, Note_off_c, 0, 59, 70
1, 146810, Note_off_c, 0, 66, 66
1, 146824, Note_on_c, 0, 71, 10
1, 146825, Note_off_c, 0, 71, 127
1, 146872, Control_c, 0, 64, 23
1, 146884, Note_on_c, 0, 64, 76
1, 146887, Control_c, 0, 64, 59
1, 146895, Note_on_c, 0, 56, 65
1, 146896, Note_on_c, 0, 47, 54
1, 146901, Note_on_c, 0, 52, 48
1, 146901, Control_c, 0, 64, 65
1, 146909, Note_on_c, 0, 40, 39
1, 146916, Control_c, 0, 64, 75
1, 146930, Note_off_c, 0, 47, 62
1, 146934, Note_off_c, 0, 56, 66
1, 146939, Control_c, 0, 64, 89
1, 146952, Note_off_c, 0, 40, 50
1, 146953, Control_c, 0, 64, 112
1, 146959, Note_off_c, 0, 52, 0
1, 146968, Control_c, 0, 64, 127
1, 146970, Note_on_c, 0, 52, 59
1, 147015, Note_off_c, 0, 52, 60
1, 147057, Note_on_c, 0, 40, 80
1, 147062, Note_on_c, 0, 28, 77
1, 147068, Note_off_c, 0, 64, 53
1, 147081, Note_off_c, 0, 40, 66
1, 147094, Note_off_c, 0, 28, 60
1, 147106, Note_on_c, 0, 50, 78
1, 147143, Note_off_c, 0, 50, 64
1, 147176, Control_c, 0, 64, 103
1, 147190, Poly_aftertouch_c, 0, 52, 127
1, 147191, Control_c, 0, 64, 78
1, 147200, Note_on_c, 0, 52, 18
1, 147200, Note_on_c, 0, 64, 89
1, 147203, Note_on_c, 0, 56, 86
1, 147205, Control_c, 0, 64, 67
1, 147206, Note_on_c, 0, 40, 72
1, 147209, Note_on_c, 0, 47, 81
1, 147220, Control_c, 0, 64, 69
1, 147234, Note_off_c, 0, 47, 68
1, 147235, Control_c, 0, 64, 76
1, 147235, Note_off_c, 0, 52, 62
1, 147245, Note_off_c, 0, 40, 64
1, 147250, Control_c, 0, 64, 85
1, 147265, Control_c, 0, 64, 102
1, 147279, Control_c, 0, 64, 127
1, 147280, Note_on_c, 0, 52, 87
1, 147325, Note_off_c, 0, 52, 62
1, 147339, Note_off_c, 0, 64, 58
1, 147362, Note_off_c, 0, 56, 63
1, 147363, Note_on_c, 0, 40, 97
1, 147367, Note_on_c, 0, 28, 79
1, 147381, Poly_aftertouch_c, 0, 61, 127
1, 147390, Note_on_c, 0, 29, 51
1, 147402, Note_on_c, 0, 50, 92
1, 147405, Note_off_c, 0, 28, 57
1, 147406, Note_off_c, 0, 40, 62
1, 147431, Poly_aftertouch_c, 0, 61, 0
1, 147432, Note_off_c, 0, 29, 50
1, 147440, Note_off_c, 0, 50, 67
1, 147473, Control_c, 0, 64, 79
1, 147488, Control_c, 0, 64, 0
1, 147500, Note_on_c, 0, 55, 111
1, 147503, Note_on_c, 0, 67, 97
1, 147505, Note_on_c, 0, 48, 96
1, 147509, Note_on_c, 0, 60, 87
1, 147512, Note_on_c, 0, 43, 84
1, 147517, Control_c, 0, 64, 27
1, 147526, Note_off_c, 0, 55, 67
1, 147532, Control_c, 0, 64, 68
1, 147538, Note_off_c, 0, 48, 63
1, 147542, Note_off_c, 0, 43, 67
1, 147547, Control_c, 0, 64, 90
1, 147560, Note_off_c, 0, 60, 61
1, 147562, Control_c, 0, 64, 127
1, 147568, Note_on_c, 0, 55, 81
1, 147578, Note_off_c, 0, 67, 58
1, 147599, Note_on_c, 0, 57, 35
1, 147617, Poly_aftertouch_c, 0, 46, 0
1, 147618, Note_off_c, 0, 55, 63
1, 147631, Note_off_c, 0, 57, 57
1, 147662, Note_on_c, 0, 28, 88
1, 147676, Note_on_c, 0, 41, 92
1, 147679, Note_on_c, 0, 40, 78
1, 147697, Note_on_c, 0, 29, 54
1, 147697, Note_off_c, 0, 28, 63
1, 147699, Note_off_c, 0, 41, 66
1, 147704, Note_off_c, 0, 40, 66
1, 147721, Note_on_c, 0, 66, 81
1, 147723, Note_on_c, 0, 54, 91
1, 147743, Note_off_c, 0, 29, 48
1, 147749, Note_off_c, 0, 66, 64
1, 147754, Note_off_c, 0, 54, 64
1, 147777, Control_c, 0, 64, 80
1, 147792, Control_c, 0, 64, 0
1, 147814, Note_on_c, 0, 50, 99
1, 147820, Note_on_c, 0, 38, 90
1, 147825, Note_on_c, 0, 45, 87
1, 147826, Note_on_c, 0, 44, 54
1, 147836, Control_c, 0, 64, 49
1, 147851, Control_c, 0, 64, 74
1, 147860, Note_off_c, 0, 44, 38
1, 147866, Control_c, 0, 64, 91
1, 147877, Note_on_c, 0, 52, 91
1, 147880, Note_on_c, 0, 57, 73
1, 147881, Control_c, 0, 64, 127
1, 147896, Note_off_c, 0, 45, 64
1, 147896, Note_off_c, 0, 50, 69
1, 147897, Note_on_c, 0, 64, 63
1, 147900, Note_off_c, 0, 52, 70
1, 147904, Note_off_c, 0, 57, 66
1, 147910, Note_off_c, 0, 38, 62
1, 147920, Note_off_c, 0, 64, 65
1, 147967, Note_on_c, 0, 54, 90
1, 147974, Note_on_c, 0, 66, 82
1, 148007, Note_off_c, 0, 54, 63
1, 148024, Note_off_c, 0, 66, 61
1, 148026, Note_on_c, 0, 40, 101
1, 148027, Note_on_c, 0, 28, 94
1, 148046, Note_off_c, 0, 40, 72
1, 148053, Note_off_c, 0, 28, 65
1, 148058, Control_c, 0, 64, 90
1, 148061, Note_on_c, 0, 30, 35
1, 148062, Note_off_c, 0, 30, 127
1, 148073, Control_c, 0, 64, 0
1, 148103, Control_c, 0, 64, 60
1, 148103, Poly_aftertouch_c, 0, 30, 0
1, 148114, Note_on_c, 0, 69, 86
1, 148118, Note_on_c, 0, 62, 78
1, 148118, Control_c, 0, 64, 127
1, 148128, Note_on_c, 0, 49, 97
1, 148130, Note_on_c, 0, 55, 101
1, 148137, Note_on_c, 0, 45, 87
1, 148146, Note_on_c, 0, 50, 85
1, 148152, Note_off_c, 0, 55, 69
1, 148153, Note_off_c, 0, 49, 58
1, 148167, Note_off_c, 0, 45, 67
1, 148169, Note_off_c, 0, 50, 67
1, 148205, Note_on_c, 0, 59, 74
1, 148206, Note_on_c, 0, 57, 78
1, 148264, Note_off_c, 0, 59, 55
1, 148269, Note_off_c, 0, 69, 62
1, 148270, Note_off_c, 0, 62, 0
1, 148278, Note_off_c, 0, 57, 58
1, 148284, Note_on_c, 0, 40, 104
1, 148286, Poly_aftertouch_c, 0, 50, 127
1, 148288, Note_on_c, 0, 28, 88
1, 148299, Note_on_c, 0, 29, 73
1, 148307, Poly_aftertouch_c, 0, 62, 127
1, 148315, Note_on_c, 0, 30, 47
1, 148318, Note_off_c, 0, 28, 62
1, 148318, Poly_aftertouch_c, 0, 50, 0
1, 148319, Note_off_c, 0, 40, 66
1, 148332, Note_off_c, 0, 29, 64
1, 148353, Note_off_c, 0, 30, 51
1, 148356, Poly_aftertouch_c, 0, 62, 0
1, 148367, Note_on_c, 0, 55, 97
1, 148373, Note_on_c, 0, 62, 60
1, 148374, Note_on_c, 0, 67, 83
1, 148383, Poly_aftertouch_c, 0, 34, 0
1, 148409, Note_off_c, 0, 55, 65
1, 148415, Control_c, 0, 64, 105
1, 148428, Poly_aftertouch_c, 0, 34, 0
1, 148428, Note_off_c, 0, 67, 62
1, 148434, Note_off_c, 0, 62, 62
1, 148437, Control_c, 0, 64, 69
1, 148449, Note_on_c, 0, 52, 95
1, 148452, Control_c, 0, 64, 0
1, 148455, Poly_aftertouch_c, 0, 66, 0
1, 148462, Note_on_c, 0, 46, 52
1, 148463, Note_on_c, 0, 47, 77
1, 148466, Note_on_c, 0, 40, 67
1, 148472, Note_on_c, 0, 38, 65
1, 148494, Note_on_c, 0, 42, 19
1, 148496, Control_c, 0, 64, 64
1, 148499, Note_off_c, 0, 38, 57
1, 148510, Note_off_c, 0, 52, 62
1, 148511, Control_c, 0, 64, 82
1, 148513, Note_on_c, 0, 55, 98
1, 148523, Note_on_c, 0, 62, 75
1, 148523, Note_off_c, 0, 47, 63
1, 148525, Note_off_c, 0, 46, 50
1, 148526, Control_c, 0, 64, 103
1, 148534, Note_on_c, 0, 67, 64
1, 148535, Note_off_c, 0, 55, 71
1, 148537, Note_off_c, 0, 40, 62
1, 148540, Note_off_c, 0, 42, 48
1, 148541, Control_c, 0, 64, 127
1, 148550, Note_off_c, 0, 62, 64
1, 148557, Note_off_c, 0, 67, 63
1, 148603, Note_on_c, 0, 71, 93
1, 148604, Note_on_c, 0, 59, 97
1, 148605, Note_on_c, 0, 66, 87
1, 148656, Note_on_c, 0, 28, 89
1, 148659, Note_on_c, 0, 40, 84
1, 148668, Note_off_c, 0, 71, 58
1, 148681, Note_off_c, 0, 28, 62
1, 148684, Note_off_c, 0, 40, 66
1, 148689, Control_c, 0, 64, 110
1, 148695, Note_off_c, 0, 59, 42
1, 148704, Control_c, 0, 64, 69
1, 148719, Control_c, 0, 64, 0
1, 148745, Note_off_c, 0, 66, 56
1, 148748, Control_c, 0, 64, 68
1, 148762, Poly_aftertouch_c, 0, 30, 0
1, 148763, Control_c, 0, 64, 94
1, 148770, Note_on_c, 0, 57, 95
1, 148773, Note_on_c, 0, 45, 84
1, 148776, Note_on_c, 0, 52, 80
1, 148778, Control_c, 0, 64, 127
1, 148795, Note_off_c, 0, 57, 62
1, 148799, Note_off_c, 0, 45, 69
1, 148812, Note_off_c, 0, 52, 64
1, 148821, Note_on_c, 0, 57, 78
1, 148830, Note_on_c, 0, 64, 79
1, 148833, Note_on_c, 0, 69, 79
1, 148865, Note_off_c, 0, 57, 61
1, 148879, Note_off_c, 0, 64, 61
1, 148883, Note_off_c, 0, 69, 63
1, 148909, Note_on_c, 0, 60, 104
1, 148914, Note_on_c, 0, 48, 96
1, 148914, Note_on_c, 0, 55, 93
1, 148923, Note_off_c, 0, 60, 77
1, 148935, Note_off_c, 0, 55, 71
1, 148949, Note_off_c, 0, 48, 62
1, 148952, Note_on_c, 0, 51, 23
1, 148983, Note_on_c, 0, 60, 96
1, 148986, Note_on_c, 0, 67, 76
1, 148988, Note_on_c, 0, 72, 73
1, 148999, Note_on_c, 0, 71, 72
1, 148999, Note_off_c, 0, 51, 52
1, 149018, Note_off_c, 0, 67, 62
1, 149024, Note_off_c, 0, 60, 62
1, 149025, Note_off_c, 0, 71, 66
1, 149030, Note_off_c, 0, 72, 63
1, 149046, Control_c, 0, 64, 99
1, 149061, Note_on_c, 0, 40, 110
1, 149061, Control_c, 0, 64, 48
1, 149063, Note_on_c, 0, 28, 93
1, 149075, Control_c, 0, 64, 0
1, 149081, Note_on_c, 0, 27, 64
1, 149087, Note_off_c, 0, 28, 66
1, 149090, Note_off_c, 0, 40, 69
1, 149090, Control_c, 0, 64, 64
1, 149100, Note_on_c, 0, 29, 44
1, 149105, Control_c, 0, 64, 81
1, 149120, Note_off_c, 0, 27, 51
1, 149120, Control_c, 0, 64, 127
1, 149132, Note_on_c, 0, 59, 95
1, 149136, Note_off_c, 0, 29, 57
1, 149137, Note_on_c, 0, 64, 86
1, 149146, Note_on_c, 0, 67, 60
1, 149161, Note_on_c, 0, 65, 65
1, 149173, Note_off_c, 0, 59, 64
1, 149179, Note_off_c, 0, 64, 62
1, 149188, Note_off_c, 0, 65, 64
1, 149191, Note_off_c, 0, 67, 63
1, 149227, Note_on_c, 0, 54, 83
1, 149230, Note_on_c, 0, 60, 88
1, 149231, Control_c, 0, 64, 98
1, 149246, Control_c, 0, 64, 77
1, 149248, Note_on_c, 0, 50, 56
1, 149250, Note_off_c, 0, 60, 69
1, 149261, Control_c, 0, 64, 0
1, 149268, Note_on_c, 0, 62, 83
1, 149268, Note_off_c, 0, 54, 57
1, 149270, Note_on_c, 0, 57, 17
1, 149276, Note_off_c, 0, 50, 60
1, 149280, Note_on_c, 0, 69, 67
1, 149295, Note_off_c, 0, 62, 64
1, 149297, Note_on_c, 0, 66, 38
1, 149306, Note_off_c, 0, 69, 69
1, 149319, Note_off_c, 0, 57, 28
1, 149328, Note_off_c, 0, 66, 33
1, 149364, Control_c, 0, 64, 68
1, 149369, Note_on_c, 0, 76, 93
1, 149374, Note_on_c, 0, 59, 78
1, 149376, Note_on_c, 0, 52, 77
1, 149376, Note_on_c, 0, 71, 80
1, 149379, Control_c, 0, 64, 95
1, 149382, Note_on_c, 0, 67, 86
1, 149394, Note_off_c, 0, 59, 70
1, 149394, Control_c, 0, 64, 127
1, 149404, Note_off_c, 0, 52, 67
1, 149417, Note_on_c, 0, 73, 22
1, 149423, Note_on_c, 0, 74, 15
1, 149453, Note_on_c, 0, 64, 82
1, 149456, Note_off_c, 0, 67, 55
1, 149485, Note_off_c, 0, 73, 0
1, 149485, Note_on_c, 0, 73, 10
1, 149498, Note_off_c, 0, 64, 64
1, 149527, Note_on_c, 0, 52, 95
1, 149527, Note_off_c, 0, 76, 50
1, 149528, Note_on_c, 0, 40, 88
1, 149530, Note_off_c, 0, 71, 61
1, 149547, Note_off_c, 0, 52, 68
1, 149550, Note_on_c, 0, 42, 46
1, 149551, Note_off_c, 0, 40, 68
1, 149561, Note_off_c, 0, 74, 42
1, 149569, Note_on_c, 0, 62, 91
1, 149583, Note_off_c, 0, 42, 57
1, 149584, Note_off_c, 0, 73, 46
1, 149608, Note_off_c, 0, 62, 62
1, 149630, Control_c, 0, 64, 104
1, 149645, Control_c, 0, 64, 71
1, 149660, Control_c, 0, 64, 0
1, 149668, Note_on_c, 0, 67, 99
1, 149671, Note_on_c, 0, 60, 86
1, 149672, Note_on_c, 0, 79, 100
1, 149674, Note_on_c, 0, 55, 91
1, 149674, Control_c, 0, 64, 56
1, 149676, Note_on_c, 0, 72, 103
1, 149689, Control_c, 0, 64, 68
1, 149691, Note_off_c, 0, 67, 65
1, 149697, Note_on_c, 0, 58, 47
1, 149700, Note_off_c, 0, 60, 64
1, 149704, Control_c, 0, 64, 81
1, 149707, Note_off_c, 0, 55, 65
1, 149719, Control_c, 0, 64, 99
1, 149725, Note_off_c, 0, 58, 57
1, 149734, Control_c, 0, 64, 127
1, 149740, Note_off_c, 0, 72, 59
1, 149747, Note_on_c, 0, 67, 86
1, 149757, Note_on_c, 0, 69, 72
1, 149760, Note_off_c, 0, 79, 38
1, 149775, Note_off_c, 0, 69, 67
1, 149788, Note_off_c, 0, 67, 65
1, 149821, Note_on_c, 0, 52, 99
1, 149823, Note_on_c, 0, 40, 93
1, 149842, Note_off_c, 0, 52, 70
1, 149844, Note_off_c, 0, 40, 71
1, 149873, Note_on_c, 0, 66, 89
1, 149896, Poly_aftertouch_c, 0, 50, 127
1, 149907, Note_off_c, 0, 66, 66
1, 149934, Poly_aftertouch_c, 0, 50, 0
1, 149950, Control_c, 0, 64, 76
1, 149965, Control_c, 0, 64, 0
1, 149971, Note_on_c, 0, 69, 102
1, 149972, Note_on_c, 0, 81, 99
1, 149973, Note_on_c, 0, 62, 89
1, 149975, Note_on_c, 0, 74, 98
1, 149979, Note_on_c, 0, 57, 79
1, 149979, Control_c, 0, 64, 63
1, 149991, Note_off_c, 0, 69, 66
1, 149994, Control_c, 0, 64, 88
1, 149997, Note_on_c, 0, 80, 53
1, 150004, Note_on_c, 0, 61, 39
1, 150007, Note_off_c, 0, 57, 66
1, 150007, Note_off_c, 0, 62, 61
1, 150009, Control_c, 0, 64, 127
1, 150020, Note_off_c, 0, 80, 37
1, 150043, Note_off_c, 0, 61, 53
1, 150059, Note_on_c, 0, 71, 78
1, 150061, Note_on_c, 0, 69, 82
1, 150067, Note_off_c, 0, 74, 61
1, 150096, Note_off_c, 0, 81, 58
1, 150106, Note_off_c, 0, 71, 63
1, 150112, Note_off_c, 0, 69, 59
1, 150126, Note_on_c, 0, 40, 92
1, 150126, Note_on_c, 0, 52, 103
1, 150154, Note_off_c, 0, 52, 66
1, 150157, Note_off_c, 0, 40, 65
1, 150165, Note_on_c, 0, 46, 36
1, 150166, Note_off_c, 0, 46, 127
1, 150201, Note_on_c, 0, 67, 93
1, 150203, Poly_aftertouch_c, 0, 46, 0
1, 150211, Note_on_c, 0, 79, 78
1, 150219, Note_on_c, 0, 74, 72
1, 150246, Note_off_c, 0, 67, 63
1, 150255, Note_off_c, 0, 74, 59
1, 150261, Note_off_c, 0, 79, 58
1, 150276, Control_c, 0, 64, 106
1, 150280, Note_on_c, 0, 64, 103
1, 150288, Note_on_c, 0, 52, 93
1, 150289, Note_on_c, 0, 59, 88
1, 150291, Control_c, 0, 64, 64
1, 150294, Poly_aftertouch_c, 0, 69, 0
1, 150305, Control_c, 0, 64, 0
1, 150320, Control_c, 0, 64, 63
1, 150327, Note_on_c, 0, 54, 20
1, 150335, Control_c, 0, 64, 90
1, 150349, Note_on_c, 0, 67, 102
1, 150350, Control_c, 0, 64, 127
1, 150355, Note_on_c, 0, 74, 83
1, 150358, Note_on_c, 0, 79, 90
1, 150370, Note_off_c, 0, 64, 66
1, 150375, Note_off_c, 0, 74, 72
1, 150380, Note_off_c, 0, 54, 49
1, 150380, Note_off_c, 0, 79, 62
1, 150383, Note_off_c, 0, 67, 65
1, 150383, Note_on_c, 0, 78, 43
1, 150391, Note_off_c, 0, 59, 62
1, 150392, Note_on_c, 0, 73, 34
1, 150393, Note_off_c, 0, 73, 127
1, 150398, Note_off_c, 0, 52, 62
1, 150410, Note_off_c, 0, 78, 59
1, 150443, Note_on_c, 0, 71, 104
1, 150449, Note_on_c, 0, 83, 101
1, 150452, Note_on_c, 0, 78, 91
1, 150469, Note_on_c, 0, 80, 62
1, 150478, Note_off_c, 0, 71, 66
1, 150488, Note_off_c, 0, 80, 64
1, 150492, Note_off_c, 0, 78, 68
1, 150508, Note_off_c, 0, 83, 64
1, 150527, Note_on_c, 0, 52, 105
1, 150531, Note_on_c, 0, 40, 92
1, 150555, Note_off_c, 0, 40, 67
1, 150557, Note_on_c, 0, 41, 52
1, 150557, Note_on_c, 0, 42, 46
1, 150563, Note_off_c, 0, 52, 67
1, 150588, Note_off_c, 0, 41, 56
1, 150591, Note_off_c, 0, 42, 58
1, 150640, Poly_aftertouch_c, 0, 46, 0
1, 150661, Control_c, 0, 64, 79
1, 150684, Control_c, 0, 64, 0
1, 150696, Note_on_c, 0, 79, 103
1, 150699, Note_on_c, 0, 86, 102
1, 150699, Control_c, 0, 64, 59
1, 150704, Note_on_c, 0, 74, 110
1, 150713, Note_on_c, 0, 67, 84
1, 150714, Note_on_c, 0, 64, 76
1, 150714, Control_c, 0, 64, 80
1, 150720, Note_on_c, 0, 65, 74
1, 150728, Control_c, 0, 64, 127
1, 150732, Note_on_c, 0, 62, 60
1, 150755, Note_off_c, 0, 62, 62
1, 150761, Note_off_c, 0, 74, 58
1, 150771, Note_off_c, 0, 65, 55
1, 150776, Note_off_c, 0, 64, 59
1, 150783, Note_off_c, 0, 67, 59
1, 150793, Note_on_c, 0, 76, 82
1, 150795, Note_on_c, 0, 74, 84
1, 150806, Note_off_c, 0, 79, 56
1, 150837, Note_off_c, 0, 86, 57
1, 150844, Note_off_c, 0, 76, 60
1, 150848, Note_off_c, 0, 74, 64
1, 150865, Note_on_c, 0, 72, 102
1, 150866, Note_on_c, 0, 64, 88
1, 150870, Note_on_c, 0, 60, 80
1, 150870, Note_on_c, 0, 67, 85
1, 150908, Note_off_c, 0, 72, 64
1, 150923, Note_off_c, 0, 67, 57
1, 150923, Note_off_c, 0, 64, 65
1, 150935, Note_off_c, 0, 60, 64
1, 150938, Note_on_c, 0, 72, 94
1, 150940, Note_on_c, 0, 84, 91
1, 150950, Note_on_c, 0, 79, 80
1, 150992, Note_off_c, 0, 72, 64
1, 151008, Note_off_c, 0, 79, 60
1, 151012, Note_off_c, 0, 84, 61
1, 151022, Note_on_c, 0, 69, 104
1, 151026, Note_on_c, 0, 64, 91
1, 151037, Note_on_c, 0, 57, 73
1, 151039, Control_c, 0, 64, 111
1, 151042, Note_on_c, 0, 59, 69
1, 151054, Control_c, 0, 64, 94
1, 151062, Note_off_c, 0, 69, 66
1, 151066, Note_off_c, 0, 57, 67
1, 151068, Note_off_c, 0, 59, 65
1, 151084, Control_c, 0, 64, 105
1, 151087, Note_on_c, 0, 80, 91
1, 151088, Note_on_c, 0, 72, 92
1, 151090, Note_off_c, 0, 64, 64
1, 151099, Control_c, 0, 64, 127
1, 151102, Note_on_c, 0, 84, 83
1, 151104, Note_off_c, 0, 80, 68
1, 151112, Note_on_c, 0, 79, 77
1, 151113, Note_on_c, 0, 74, 63
1, 151122, Note_off_c, 0, 84, 68
1, 151130, Note_off_c, 0, 72, 64
1, 151131, Note_off_c, 0, 79, 71
1, 151132, Note_off_c, 0, 74, 64
1, 151170, Note_on_c, 0, 80, 25
1, 151188, Note_on_c, 0, 65, 91
1, 151188, Note_on_c, 0, 55, 76
1, 151194, Note_on_c, 0, 83, 101
1, 151194, Note_on_c, 0, 88, 95
1, 151199, Note_on_c, 0, 57, 68
1, 151209, Note_off_c, 0, 65, 69
1, 151211, Note_off_c, 0, 55, 66
1, 151212, Note_off_c, 0, 80, 45
1, 151227, Note_off_c, 0, 57, 62
1, 151245, Note_on_c, 0, 85, 15
1, 151253, Note_off_c, 0, 83, 70
1, 151268, Note_on_c, 0, 76, 85
1, 151291, Control_c, 0, 64, 71
1, 151292, Note_off_c, 0, 88, 63
1, 151293, Note_off_c, 0, 85, 50
1, 151297, Note_off_c, 0, 76, 59
1, 151306, Control_c, 0, 64, 0
1, 151365, Control_c, 0, 64, 127
1, 151380, Note_on_c, 0, 91, 101
1, 151382, Note_on_c, 0, 79, 100
1, 151382, Note_on_c, 0, 72, 86
1, 151384, Note_on_c, 0, 84, 103
1, 151388, Note_on_c, 0, 69, 81
1, 151400, Note_off_c, 0, 79, 68
1, 151406, Note_on_c, 0, 90, 64
1, 151412, Note_off_c, 0, 69, 68
1, 151430, Note_off_c, 0, 72, 65
1, 151432, Note_off_c, 0, 90, 64
1, 151438, Note_off_c, 0, 91, 70
1, 151456, Note_off_c, 0, 84, 63
1, 151471, Note_on_c, 0, 79, 84
1, 151493, Note_off_c, 0, 79, 64
1, 151547, Note_on_c, 0, 79, 82
1, 151553, Note_on_c, 0, 72, 86
1, 151617, Note_off_c, 0, 72, 53
1, 151623, Note_on_c, 0, 69, 78
1, 151626, Note_on_c, 0, 67, 87
1, 151673, Note_off_c, 0, 69, 61
1, 151674, Note_off_c, 0, 67, 58
1, 151692, Note_on_c, 0, 48, 110
1, 151704, Note_on_c, 0, 43, 72
1, 151712, Note_on_c, 0, 41, 74
1, 151718, Note_off_c, 0, 79, 50
1, 151725, Note_off_c, 0, 48, 69
1, 151731, Note_off_c, 0, 43, 66
1, 151734, Note_off_c, 0, 41, 63
1, 151763, Note_on_c, 0, 69, 85
1, 151768, Note_on_c, 0, 67, 89
1, 151796, Note_off_c, 0, 67, 58
1, 151817, Note_off_c, 0, 69, 65
1, 151838, Note_on_c, 0, 72, 78
1, 151843, Note_on_c, 0, 79, 77
1, 151859, Note_off_c, 0, 72, 70
1, 151863, Note_off_c, 0, 79, 70
1, 151921, Note_on_c, 0, 79, 79
1, 151948, Note_off_c, 0, 79, 58
1, 151984, Note_on_c, 0, 91, 89
1, 151990, Note_on_c, 0, 79, 82
1, 151999, Note_on_c, 0, 84, 75
1, 152025, Note_off_c, 0, 91, 67
1, 152046, Note_off_c, 0, 84, 62
1, 152052, Note_off_c, 0, 79, 60
1, 152069, Note_on_c, 0, 70, 62
1, 152070, Note_on_c, 0, 77, 91
1, 152073, Note_on_c, 0, 72, 81
1, 152082, Note_on_c, 0, 69, 76
1, 152086, Note_off_c, 0, 77, 75
1, 152091, Note_off_c, 0, 70, 66
1, 152100, Note_off_c, 0, 69, 72
1, 152108, Note_off_c, 0, 72, 58
1, 152132, Note_on_c, 0, 72, 88
1, 152144, Note_on_c, 0, 84, 85
1, 152150, Note_on_c, 0, 77, 76
1, 152172, Note_off_c, 0, 72, 68
1, 152178, Note_off_c, 0, 77, 70
1, 152183, Note_on_c, 0, 82, 37
1, 152194, Note_off_c, 0, 84, 64
1, 152216, Note_off_c, 0, 82, 54
1, 152226, Note_on_c, 0, 74, 111
1, 152228, Note_on_c, 0, 65, 87
1, 152229, Note_on_c, 0, 69, 83
1, 152255, Note_off_c, 0, 65, 64
1, 152258, Note_off_c, 0, 74, 69
1, 152267, Note_off_c, 0, 69, 59
1, 152294, Note_on_c, 0, 79, 104
1, 152296, Note_on_c, 0, 84, 86
1, 152299, Note_on_c, 0, 91, 85
1, 152304, Note_on_c, 0, 89, 86
1, 152307, Note_on_c, 0, 77, 63
1, 152308, Note_off_c, 0, 77, 127
1, 152323, Note_off_c, 0, 91, 66
1, 152324, Note_off_c, 0, 89, 67
1, 152331, Note_off_c, 0, 79, 66
1, 152336, Note_off_c, 0, 84, 64
1, 152367, Note_on_c, 0, 77, 120
1, 152377, Note_on_c, 0, 72, 87
1, 152378, Note_on_c, 0, 73, 55
1, 152379, Note_off_c, 0, 73, 127
1, 152380, Note_on_c, 0, 69, 75
1, 152392, Note_off_c, 0, 77, 61
1, 152401, Note_off_c, 0, 72, 67
1, 152401, Poly_aftertouch_c, 0, 73, 0
1, 152402, Note_off_c, 0, 69, 68
1, 152435, Note_on_c, 0, 72, 95
1, 152441, Note_on_c, 0, 84, 91
1, 152448, Note_on_c, 0, 77, 80
1, 152473, Note_off_c, 0, 72, 66
1, 152479, Note_on_c, 0, 82, 32
1, 152484, Note_off_c, 0, 77, 60
1, 152493, Note_off_c, 0, 84, 62
1, 152500, Note_on_c, 0, 74, 105
1, 152503, Note_on_c, 0, 68, 73
1, 152512, Note_off_c, 0, 82, 52
1, 152515, Note_on_c, 0, 69, 56
1, 152520, Note_off_c, 0, 68, 67
1, 152523, Note_off_c, 0, 74, 69
1, 152524, Note_on_c, 0, 64, 53
1, 152528, Note_on_c, 0, 65, 44
1, 152538, Control_c, 0, 64, 78
1, 152547, Note_off_c, 0, 69, 62
1, 152549, Note_off_c, 0, 64, 62
1, 152550, Note_off_c, 0, 65, 61
1, 152553, Control_c, 0, 64, 0
1, 152583, Control_c, 0, 64, 59
1, 152591, Note_on_c, 0, 84, 105
1, 152592, Note_on_c, 0, 91, 98
1, 152592, Note_on_c, 0, 79, 103
1, 152596, Note_on_c, 0, 72, 85
1, 152598, Control_c, 0, 64, 84
1, 152601, Note_on_c, 0, 69, 84
1, 152607, Note_on_c, 0, 90, 67
1, 152613, Control_c, 0, 64, 127
1, 152619, Note_off_c, 0, 79, 65
1, 152625, Note_off_c, 0, 69, 66
1, 152625, Note_off_c, 0, 90, 67
1, 152630, Note_off_c, 0, 91, 70
1, 152638, Note_off_c, 0, 72, 67
1, 152640, Note_off_c, 0, 84, 63
1, 152669, Note_on_c, 0, 79, 81
1, 152691, Note_off_c, 0, 79, 68
1, 152748, Note_on_c, 0, 79, 83
1, 152756, Note_on_c, 0, 72, 79
1, 152807, Note_off_c, 0, 72, 61
1, 152831, Note_on_c, 0, 67, 87
1, 152831, Note_on_c, 0, 69, 77
1, 152877, Note_off_c, 0, 67, 60
1, 152878, Note_off_c, 0, 69, 60
1, 152885, Note_off_c, 0, 79, 52
1, 152892, Note_on_c, 0, 45, 111
1, 152897, Note_on_c, 0, 38, 93
1, 152932, Note_off_c, 0, 45, 71
1, 152938, Note_off_c, 0, 38, 64
1, 152965, Note_on_c, 0, 67, 88
1, 152965, Note_on_c, 0, 69, 85
1, 153006, Note_off_c, 0, 67, 65
1, 153012, Note_off_c, 0, 69, 63
1, 153016, Poly_aftertouch_c, 0, 42, 0
1, 153030, Poly_aftertouch_c, 0, 39, 0
1, 153042, Note_on_c, 0, 72, 66
1, 153048, Note_on_c, 0, 79, 65
1, 153060, Note_off_c, 0, 72, 64
1, 153066, Note_off_c, 0, 79, 66
1, 153118, Note_on_c, 0, 79, 93
1, 153139, Note_off_c, 0, 79, 63
1, 153169, Control_c, 0, 64, 93
1, 153184, Control_c, 0, 64, 51
1, 153193, Note_on_c, 0, 91, 89
1, 153198, Note_on_c, 0, 79, 100
1, 153198, Control_c, 0, 64, 0
1, 153201, Note_on_c, 0, 84, 86
1, 153228, Control_c, 0, 64, 65
1, 153237, Note_off_c, 0, 91, 65
1, 153242, Control_c, 0, 64, 83
1, 153251, Note_off_c, 0, 84, 64
1, 153253, Note_off_c, 0, 79, 64
1, 153257, Control_c, 0, 64, 127
1, 153258, Note_on_c, 0, 70, 64
1, 153261, Note_on_c, 0, 77, 91
1, 153268, Note_on_c, 0, 72, 74
1, 153278, Note_off_c, 0, 70, 66
1, 153279, Note_off_c, 0, 77, 68
1, 153282, Note_on_c, 0, 69, 65
1, 153296, Note_off_c, 0, 72, 62
1, 153301, Note_off_c, 0, 69, 66
1, 153334, Note_on_c, 0, 72, 91
1, 153342, Note_on_c, 0, 84, 90
1, 153355, Note_on_c, 0, 77, 72
1, 153361, Note_on_c, 0, 78, 60
1, 153367, Note_off_c, 0, 72, 67
1, 153369, Note_on_c, 0, 82, 47
1, 153378, Note_off_c, 0, 77, 67
1, 153379, Note_off_c, 0, 78, 65
1, 153382, Note_off_c, 0, 84, 66
1, 153394, Note_off_c, 0, 82, 58
1, 153414, Note_on_c, 0, 69, 72
1, 153415, Note_on_c, 0, 74, 101
1, 153416, Note_on_c, 0, 65, 87
1, 153446, Note_off_c, 0, 74, 67
1, 153451, Note_off_c, 0, 65, 60
1, 153455, Note_off_c, 0, 69, 64
1, 153489, Note_on_c, 0, 84, 91
1, 153491, Note_on_c, 0, 91, 95
1, 153492, Note_on_c, 0, 79, 93
1, 153498, Note_on_c, 0, 77, 81
1, 153504, Note_on_c, 0, 89, 81
1, 153520, Note_off_c, 0, 89, 60
1, 153522, Note_off_c, 0, 77, 55
1, 153523, Note_off_c, 0, 79, 63
1, 153525, Note_off_c, 0, 84, 66
1, 153531, Note_off_c, 0, 91, 63
1, 153564, Note_on_c, 0, 77, 105
1, 153567, Note_on_c, 0, 72, 90
1, 153567, Note_on_c, 0, 69, 81
1, 153593, Note_off_c, 0, 77, 59
1, 153599, Note_off_c, 0, 69, 60
1, 153603, Note_off_c, 0, 72, 60
1, 153638, Note_on_c, 0, 72, 87
1, 153640, Note_on_c, 0, 84, 91
1, 153649, Note_on_c, 0, 77, 70
1, 153677, Note_off_c, 0, 77, 71
1, 153682, Note_off_c, 0, 72, 65
1, 153691, Note_off_c, 0, 84, 65
1, 153694, Note_on_c, 0, 74, 102
1, 153700, Note_on_c, 0, 65, 84
1, 153703, Note_on_c, 0, 69, 74
1, 153717, Note_off_c, 0, 65, 74
1, 153717, Note_off_c, 0, 74, 63
1, 153723, Note_off_c, 0, 69, 72
1, 153724, Control_c, 0, 64, 97
1, 153739, Control_c, 0, 64, 64
1, 153754, Control_c, 0, 64, 0
1, 153768, Control_c, 0, 64, 68
1, 153783, Control_c, 0, 64, 98
1, 153787, Note_on_c, 0, 89, 92
1, 153792, Note_on_c, 0, 86, 89
1, 153793, Note_on_c, 0, 79, 101
1, 153793, Note_on_c, 0, 82, 99
1, 153794, Note_on_c, 0, 70, 97
1, 153799, Note_on_c, 0, 85, 51
1, 153799, Control_c, 0, 64, 127
1, 153799, Note_on_c, 0, 73, 70
1, 153800, Note_off_c, 0, 73, 127
1, 153808, Note_on_c, 0, 74, 85
1, 153810, Note_off_c, 0, 79, 68
1, 153820, Note_on_c, 0, 81, 62
1, 153821, Note_off_c, 0, 85, 64
1, 153828, Note_off_c, 0, 74, 74
1, 153832, Poly_aftertouch_c, 0, 73, 0
1, 153837, Note_off_c, 0, 81, 64
1, 153838, Note_off_c, 0, 86, 63
1, 153840, Note_off_c, 0, 82, 64
1, 153840, Note_off_c, 0, 70, 66
1, 153843, Note_off_c, 0, 89, 65
1, 153868, Note_on_c, 0, 77, 63
1, 153904, Poly_aftertouch_c, 0, 88, 0
1, 153911, Note_off_c, 0, 77, 64
1, 153954, Note_on_c, 0, 46, 92
1, 153960, Note_on_c, 0, 58, 103
1, 153961, Note_on_c, 0, 74, 89
1, 153979, Note_off_c, 0, 46, 68
1, 153981, Note_off_c, 0, 58, 68
1, 153995, Note_off_c, 0, 74, 61
1, 154020, Note_on_c, 0, 56, 3
1, 154033, Note_on_c, 0, 77, 77
1, 154058, Note_off_c, 0, 56, 49
1, 154075, Note_off_c, 0, 77, 60
1, 154106, Note_on_c, 0, 82, 92
1, 154109, Note_on_c, 0, 86, 83
1, 154109, Control_c, 0, 64, 71
1, 154118, Note_on_c, 0, 70, 87
1, 154120, Note_on_c, 0, 74, 81
1, 154121, Note_on_c, 0, 79, 87
1, 154124, Control_c, 0, 64, 0
1, 154126, Note_on_c, 0, 91, 66
1, 154137, Note_off_c, 0, 79, 72
1, 154139, Note_off_c, 0, 74, 73
1, 154140, Note_on_c, 0, 89, 39
1, 154140, Note_off_c, 0, 70, 62
1, 154143, Note_off_c, 0, 82, 59
1, 154151, Note_off_c, 0, 91, 59
1, 154173, Note_off_c, 0, 86, 42
1, 154179, Note_on_c, 0, 77, 91
1, 154181, Note_off_c, 0, 89, 45
1, 154217, Note_off_c, 0, 77, 65
1, 154260, Note_on_c, 0, 93, 94
1, 154261, Note_on_c, 0, 88, 87
1, 154262, Note_on_c, 0, 84, 89
1, 154264, Note_on_c, 0, 76, 98
1, 154268, Note_on_c, 0, 72, 81
1, 154271, Note_on_c, 0, 65, 75
1, 154294, Note_off_c, 0, 65, 70
1, 154294, Note_off_c, 0, 76, 65
1, 154298, Note_on_c, 0, 64, 35
1, 154299, Note_off_c, 0, 64, 127
1, 154301, Note_off_c, 0, 93, 65
1, 154306, Note_off_c, 0, 72, 65
1, 154317, Note_off_c, 0, 84, 63
1, 154330, Note_off_c, 0, 88, 56
1, 154336, Note_on_c, 0, 79, 82
1, 154343, Poly_aftertouch_c, 0, 91, 0
1, 154368, Note_off_c, 0, 79, 60
1, 154389, Control_c, 0, 64, 62
1, 154404, Control_c, 0, 64, 127
1, 154407, Note_on_c, 0, 79, 90
1, 154408, Note_on_c, 0, 70, 110
1, 154419, Note_on_c, 0, 74, 92
1, 154424, Note_on_c, 0, 86, 75
1, 154427, Note_on_c, 0, 82, 82
1, 154431, Note_on_c, 0, 91, 78
1, 154433, Note_off_c, 0, 79, 66
1, 154440, Note_off_c, 0, 74, 72
1, 154450, Note_on_c, 0, 89, 52
1, 154455, Note_off_c, 0, 70, 67
1, 154455, Note_off_c, 0, 91, 61
1, 154457, Note_off_c, 0, 86, 57
1, 154462, Note_on_c, 0, 73, 44
1, 154463, Note_off_c, 0, 73, 127
1, 154478, Note_off_c, 0, 89, 64
1, 154479, Note_off_c, 0, 82, 62
1, 154498, Note_on_c, 0, 77, 87
1, 154538, Note_off_c, 0, 77, 65
1, 154577, Note_on_c, 0, 58, 105
1, 154580, Note_on_c, 0, 46, 93
1, 154583, Note_on_c, 0, 74, 86
1, 154593, Note_off_c, 0, 58, 74
1, 154601, Note_off_c, 0, 46, 67
1, 154612, Note_off_c, 0, 74, 61
1, 154651, Note_on_c, 0, 77, 80
1, 154678, Note_on_c, 0, 46, 21
1, 154679, Note_off_c, 0, 77, 63
1, 154701, Note_off_c, 0, 46, 57
1, 154724, Note_on_c, 0, 82, 89
1, 154724, Control_c, 0, 64, 71
1, 154726, Note_on_c, 0, 86, 78
1, 154734, Note_on_c, 0, 79, 89
1, 154735, Note_on_c, 0, 91, 71
1, 154737, Note_on_c, 0, 70, 81
1, 154738, Note_on_c, 0, 74, 83
1, 154739, Control_c, 0, 64, 0
1, 154751, Note_off_c, 0, 79, 72
1, 154753, Note_on_c, 0, 89, 34
1, 154757, Note_off_c, 0, 82, 62
1, 154757, Note_off_c, 0, 74, 73
1, 154760, Note_off_c, 0, 70, 68
1, 154767, Note_off_c, 0, 91, 55
1, 154786, Note_off_c, 0, 89, 52
1, 154792, Note_off_c, 0, 86, 39
1, 154801, Note_on_c, 0, 77, 81
1, 154821, Note_off_c, 0, 77, 71
1, 154873, Note_on_c, 0, 93, 94
1, 154878, Note_on_c, 0, 88, 79
1, 154879, Note_on_c, 0, 76, 98
1, 154881, Note_on_c, 0, 65, 89
1, 154881, Note_on_c, 0, 72, 84
1, 154881, Note_on_c, 0, 84, 77
1, 154910, Note_off_c, 0, 76, 65
1, 154911, Note_off_c, 0, 65, 65
1, 154914, Note_off_c, 0, 72, 60
1, 154918, Note_off_c, 0, 84, 61
1, 154921, Note_off_c, 0, 93, 63
1, 154942, Note_off_c, 0, 88, 63
1, 154943, Note_on_c, 0, 79, 89
1, 154979, Note_off_c, 0, 79, 64
1, 155018, Note_on_c, 0, 79, 98
1, 155021, Control_c, 0, 64, 90
1, 155024, Note_on_c, 0, 74, 87
1, 155027, Note_on_c, 0, 70, 65
1, 155029, Note_on_c, 0, 86, 80
1, 155030, Note_on_c, 0, 82, 85
1, 155031, Note_on_c, 0, 71, 86
1, 155036, Control_c, 0, 64, 127
1, 155036, Note_on_c, 0, 91, 89
1, 155036, Note_off_c, 0, 79, 68
1, 155040, Note_on_c, 0, 73, 55
1, 155041, Note_off_c, 0, 73, 127
1, 155046, Note_off_c, 0, 74, 69
1, 155048, Note_off_c, 0, 70, 64
1, 155052, Note_off_c, 0, 71, 71
1, 155057, Note_off_c, 0, 91, 63
1, 155063, Note_on_c, 0, 89, 16
1, 155065, Note_off_c, 0, 82, 57
1, 155078, Note_off_c, 0, 86, 59
1, 155088, Note_off_c, 0, 89, 57
1, 155099, Note_on_c, 0, 72, 20
1, 155101, Note_on_c, 0, 77, 84
1, 155136, Note_off_c, 0, 72, 36
1, 155144, Note_off_c, 0, 77, 64
1, 155179, Note_on_c, 0, 46, 104
1, 155182, Note_on_c, 0, 58, 98
1, 155192, Note_on_c, 0, 74, 89
1, 155198, Note_on_c, 0, 56, 72
1, 155203, Note_off_c, 0, 46, 69
1, 155207, Note_off_c, 0, 58, 65
1, 155220, Note_off_c, 0, 56, 66
1, 155231, Note_off_c, 0, 74, 62
1, 155260, Note_on_c, 0, 77, 82
1, 155299, Note_off_c, 0, 77, 61
1, 155337, Note_on_c, 0, 82, 91
1, 155339, Note_on_c, 0, 70, 90
1, 155340, Note_on_c, 0, 74, 89
1, 155340, Note_on_c, 0, 86, 76
1, 155342, Note_on_c, 0, 79, 89
1, 155358, Note_on_c, 0, 77, 65
1, 155359, Note_off_c, 0, 79, 65
1, 155361, Note_off_c, 0, 74, 68
1, 155365, Note_on_c, 0, 91, 53
1, 155373, Note_off_c, 0, 77, 70
1, 155379, Note_off_c, 0, 70, 60
1, 155391, Note_off_c, 0, 91, 57
1, 155403, Note_off_c, 0, 82, 58
1, 155408, Note_on_c, 0, 79, 80
1, 155414, Note_off_c, 0, 86, 60
1, 155446, Note_off_c, 0, 79, 64
1, 155449, Poly_aftertouch_c, 0, 89, 0
1, 155483, Note_on_c, 0, 76, 93
1, 155485, Note_on_c, 0, 65, 88
1, 155487, Note_on_c, 0, 72, 80
1, 155491, Note_on_c, 0, 93, 81
1, 155500, Note_on_c, 0, 88, 65
1, 155513, Note_off_c, 0, 93, 54
1, 155524, Note_on_c, 0, 84, 54
1, 155544, Note_off_c, 0, 84, 64
1, 155544, Note_off_c, 0, 88, 41
1, 155550, Note_on_c, 0, 79, 77
1, 155569, Note_off_c, 0, 79, 70
1, 155577, Control_c, 0, 64, 85
1, 155585, Note_off_c, 0, 72, 62
1, 155592, Control_c, 0, 64, 63
1, 155593, Poly_aftertouch_c, 0, 86, 0
1, 155597, Note_off_c, 0, 76, 55
1, 155607, Control_c, 0, 64, 35
1, 155619, Note_off_c, 0, 65, 61
1, 155622, Control_c, 0, 64, 65
1, 155634, Note_on_c, 0, 79, 89
1, 155636, Control_c, 0, 64, 78
1, 155641, Note_on_c, 0, 86, 59
1, 155644, Note_on_c, 0, 82, 70
1, 155651, Control_c, 0, 64, 96
1, 155660, Note_on_c, 0, 91, 50
1, 155665, Note_off_c, 0, 79, 59
1, 155666, Control_c, 0, 64, 127
1, 155671, Note_off_c, 0, 82, 65
1, 155679, Note_off_c, 0, 86, 64
1, 155684, Note_off_c, 0, 91, 58
1, 155709, Note_on_c, 0, 70, 69
1, 155710, Note_on_c, 0, 77, 74
1, 155718, Note_on_c, 0, 74, 61
1, 155731, Note_on_c, 0, 65, 40
1, 155738, Note_off_c, 0, 70, 62
1, 155739, Note_off_c, 0, 74, 66
1, 155739, Note_off_c, 0, 77, 62
1, 155762, Note_off_c, 0, 65, 55
1, 155775, Note_on_c, 0, 81, 89
1, 155779, Note_on_c, 0, 88, 79
1, 155783, Note_on_c, 0, 84, 76
1, 155794, Note_on_c, 0, 93, 58
1, 155805, Note_off_c, 0, 88, 64
1, 155805, Note_off_c, 0, 84, 69
1, 155807, Note_off_c, 0, 81, 57
1, 155814, Note_off_c, 0, 93, 62
1, 155847, Note_on_c, 0, 72, 75
1, 155847, Note_on_c, 0, 73, 35
1, 155847, Note_on_c, 0, 79, 74
1, 155852, Note_on_c, 0, 76, 74
1, 155874, Note_off_c, 0, 79, 64
1, 155880, Note_off_c, 0, 73, 58
1, 155886, Note_off_c, 0, 76, 60
1, 155900, Note_off_c, 0, 72, 62
1, 155922, Poly_aftertouch_c, 0, 79, 0
1, 155927, Note_on_c, 0, 79, 85
1, 155937, Note_on_c, 0, 86, 75
1, 155940, Note_on_c, 0, 82, 59
1, 155954, Note_off_c, 0, 79, 61
1, 155962, Note_on_c, 0, 81, 39
1, 155963, Note_off_c, 0, 82, 61
1, 155966, Note_off_c, 0, 86, 61
1, 155988, Note_off_c, 0, 81, 56
1, 156001, Note_on_c, 0, 77, 88
1, 156005, Note_on_c, 0, 74, 74
1, 156008, Note_on_c, 0, 65, 77
1, 156008, Note_on_c, 0, 70, 71
1, 156032, Poly_aftertouch_c, 0, 87, 0
1, 156035, Note_off_c, 0, 65, 64
1, 156042, Note_off_c, 0, 74, 63
1, 156045, Note_off_c, 0, 70, 59
1, 156048, Note_off_c, 0, 77, 61
1, 156065, Note_on_c, 0, 81, 86
1, 156072, Note_on_c, 0, 88, 90
1, 156073, Note_on_c, 0, 84, 80
1, 156093, Note_on_c, 0, 90, 50
1, 156096, Note_on_c, 0, 93, 46
1, 156104, Note_off_c, 0, 88, 56
1, 156106, Note_off_c, 0, 81, 63
1, 156106, Note_off_c, 0, 84, 58
1, 156115, Note_off_c, 0, 90, 60
1, 156122, Note_off_c, 0, 93, 59
1, 156133, Control_c, 0, 64, 95
1, 156142, Note_on_c, 0, 72, 81
1, 156146, Note_on_c, 0, 79, 85
1, 156148, Control_c, 0, 64, 72
1, 156151, Note_on_c, 0, 76, 76
1, 156162, Control_c, 0, 64, 39
1, 156177, Control_c, 0, 64, 52
1, 156189, Note_off_c, 0, 79, 58
1, 156193, Control_c, 0, 64, 67
1, 156193, Note_off_c, 0, 76, 60
1, 156208, Control_c, 0, 64, 80
1, 156209, Note_off_c, 0, 72, 63
1, 156211, Note_on_c, 0, 79, 84
1, 156215, Note_on_c, 0, 82, 91
1, 156220, Note_on_c, 0, 86, 84
1, 156223, Control_c, 0, 64, 103
1, 156238, Control_c, 0, 64, 127
1, 156250, Note_off_c, 0, 79, 64
1, 156258, Note_on_c, 0, 91, 26
1, 156259, Note_off_c, 0, 86, 59
1, 156262, Note_off_c, 0, 82, 65
1, 156290, Note_on_c, 0, 77, 94
1, 156291, Note_on_c, 0, 70, 80
1, 156291, Note_on_c, 0, 74, 84
1, 156293, Note_off_c, 0, 91, 55
1, 156297, Note_on_c, 0, 65, 79
1, 156318, Poly_aftertouch_c, 0, 87, 0
1, 156321, Note_off_c, 0, 65, 67
1, 156333, Note_off_c, 0, 77, 62
1, 156342, Note_off_c, 0, 74, 63
1, 156347, Note_off_c, 0, 70, 62
1, 156361, Note_on_c, 0, 81, 100
1, 156369, Note_on_c, 0, 88, 83
1, 156372, Note_on_c, 0, 84, 80
1, 156377, Note_on_c, 0, 85, 44
1, 156381, Note_on_c, 0, 93, 64
1, 156386, Note_on_c, 0, 90, 52
1, 156391, Note_off_c, 0, 88, 65
1, 156393, Note_off_c, 0, 81, 66
1, 156396, Note_off_c, 0, 84, 64
1, 156400, Note_off_c, 0, 93, 63
1, 156401, Note_off_c, 0, 85, 59
1, 156408, Note_off_c, 0, 90, 60
1, 156434, Note_on_c, 0, 72, 86
1, 156437, Note_on_c, 0, 79, 88
1, 156439, Note_on_c, 0, 76, 86
1, 156480, Note_off_c, 0, 79, 57
1, 156483, Note_off_c, 0, 76, 62
1, 156492, Note_off_c, 0, 72, 64
1, 156503, Note_on_c, 0, 79, 85
1, 156509, Note_on_c, 0, 82, 99
1, 156513, Note_on_c, 0, 86, 98
1, 156532, Note_on_c, 0, 87, 52
1, 156533, Note_off_c, 0, 87, 127
1, 156542, Note_off_c, 0, 79, 64
1, 156542, Note_off_c, 0, 86, 58
1, 156547, Note_off_c, 0, 82, 68
1, 156548, Note_on_c, 0, 91, 31
1, 156583, Note_on_c, 0, 77, 96
1, 156583, Note_on_c, 0, 74, 83
1, 156584, Note_off_c, 0, 91, 54
1, 156586, Note_on_c, 0, 65, 84
1, 156586, Note_on_c, 0, 70, 79
1, 156620, Note_off_c, 0, 77, 65
1, 156621, Note_off_c, 0, 65, 57
1, 156625, Note_off_c, 0, 74, 64
1, 156638, Note_off_c, 0, 70, 58
1, 156648, Note_on_c, 0, 81, 104
1, 156652, Note_on_c, 0, 84, 88
1, 156655, Note_on_c, 0, 88, 94
1, 156674, Note_on_c, 0, 90, 67
1, 156684, Note_on_c, 0, 93, 55
1, 156688, Note_off_c, 0, 81, 64
1, 156695, Note_off_c, 0, 90, 67
1, 156699, Note_off_c, 0, 84, 63
1, 156699, Note_off_c, 0, 88, 60
1, 156707, Note_off_c, 0, 93, 60
1, 156732, Note_on_c, 0, 79, 96
1, 156734, Note_on_c, 0, 72, 88
1, 156736, Note_on_c, 0, 76, 89
1, 156753, Note_on_c, 0, 73, 23
1, 156773, Note_off_c, 0, 79, 61
1, 156779, Note_off_c, 0, 76, 63
1, 156788, Note_off_c, 0, 73, 58
1, 156789, Note_off_c, 0, 72, 64
1, 156801, Note_on_c, 0, 79, 95
1, 156805, Note_on_c, 0, 82, 106
1, 156809, Note_on_c, 0, 86, 93
1, 156819, Note_on_c, 0, 91, 75
1, 156835, Note_off_c, 0, 91, 69
1, 156837, Note_on_c, 0, 87, 33
1, 156839, Note_off_c, 0, 79, 65
1, 156848, Note_off_c, 0, 86, 58
1, 156850, Note_off_c, 0, 82, 62
1, 156866, Note_off_c, 0, 87, 56
1, 156887, Note_on_c, 0, 73, 65
1, 156887, Note_on_c, 0, 77, 100
1, 156889, Note_on_c, 0, 65, 88
1, 156891, Note_on_c, 0, 70, 79
1, 156893, Note_on_c, 0, 74, 88
1, 156906, Note_off_c, 0, 73, 67
1, 156917, Note_off_c, 0, 74, 63
1, 156927, Note_off_c, 0, 77, 64
1, 156935, Note_off_c, 0, 65, 61
1, 156948, Note_off_c, 0, 70, 58
1, 156956, Note_on_c, 0, 81, 108
1, 156962, Note_on_c, 0, 88, 94
1, 156962, Note_on_c, 0, 84, 90
1, 156974, Note_on_c, 0, 93, 72
1, 156977, Note_on_c, 0, 90, 64
1, 156990, Note_off_c, 0, 93, 67
1, 156995, Note_off_c, 0, 81, 67
1, 156997, Note_off_c, 0, 90, 66
1, 156998, Note_on_c, 0, 86, 31
1, 156999, Note_off_c, 0, 86, 127
1, 157004, Note_off_c, 0, 84, 66
1, 157007, Note_off_c, 0, 88, 62
1, 157043, Note_on_c, 0, 79, 97
1, 157045, Note_on_c, 0, 72, 89
1, 157048, Note_on_c, 0, 76, 92
1, 157063, Note_on_c, 0, 73, 30
1, 157093, Note_off_c, 0, 76, 61
1, 157094, Note_off_c, 0, 79, 58
1, 157097, Note_off_c, 0, 73, 55
1, 157112, Note_off_c, 0, 72, 61
1, 157125, Note_on_c, 0, 79, 94
1, 157128, Note_on_c, 0, 82, 99
1, 157132, Note_on_c, 0, 86, 91
1, 157159, Note_on_c, 0, 87, 40
1, 157160, Note_off_c, 0, 87, 127
1, 157163, Note_on_c, 0, 91, 39
1, 157169, Note_off_c, 0, 79, 62
1, 157177, Note_off_c, 0, 86, 61
1, 157182, Note_off_c, 0, 82, 61
1, 157192, Note_off_c, 0, 91, 58
1, 157219, Note_on_c, 0, 77, 106
1, 157222, Note_on_c, 0, 70, 87
1, 157222, Note_on_c, 0, 74, 95
1, 157224, Note_on_c, 0, 65, 90
1, 157282, Note_off_c, 0, 65, 59
1, 157287, Note_off_c, 0, 74, 61
1, 157290, Note_off_c, 0, 77, 57
1, 157297, Note_off_c, 0, 70, 62
1, 157305, Note_on_c, 0, 81, 110
1, 157308, Note_on_c, 0, 88, 101
1, 157314, Note_on_c, 0, 84, 85
1, 157329, Note_on_c, 0, 93, 70
1, 157333, Note_off_c, 0, 84, 69
1, 157334, Note_on_c, 0, 90, 59
1, 157347, Note_off_c, 0, 81, 64
1, 157354, Note_off_c, 0, 88, 63
1, 157358, Note_off_c, 0, 90, 56
1, 157376, Note_off_c, 0, 93, 62
1, 157396, Note_on_c, 0, 72, 95
1, 157399, Note_on_c, 0, 79, 102
1, 157402, Note_on_c, 0, 76, 95
1, 157485, Note_off_c, 0, 76, 62
1, 157490, Note_off_c, 0, 72, 62
1, 157496, Control_c, 0, 64, 92
1, 157511, Note_off_c, 0, 79, 55
1, 157511, Control_c, 0, 64, 0
1, 157540, Note_on_c, 0, 95, 103
1, 157540, Note_on_c, 0, 92, 107
1, 157542, Note_on_c, 0, 88, 100
1, 157555, Control_c, 0, 64, 75
1, 157570, Control_c, 0, 64, 127
1, 157596, Note_on_c, 0, 83, 91
1, 157605, Note_off_c, 0, 95, 66
1, 157608, Note_off_c, 0, 88, 64
1, 157618, Note_off_c, 0, 83, 67
1, 157625, Note_off_c, 0, 92, 67
1, 157681, Note_on_c, 0, 83, 95
1, 157685, Note_on_c, 0, 80, 88
1, 157690, Note_on_c, 0, 76, 79
1, 157707, Note_off_c, 0, 83, 67
1, 157729, Note_off_c, 0, 80, 68
1, 157757, Note_on_c, 0, 71, 76
1, 157770, Note_off_c, 0, 76, 60
1, 157780, Note_off_c, 0, 71, 71
1, 157834, Note_on_c, 0, 65, 78
1, 157847, Note_on_c, 0, 72, 60
1, 157849, Note_on_c, 0, 71, 76
1, 157850, Note_on_c, 0, 69, 65
1, 157866, Note_on_c, 0, 68, 48
1, 157882, Note_off_c, 0, 72, 58
1, 157887, Note_off_c, 0, 69, 63
1, 157892, Note_on_c, 0, 60, 81
1, 157893, Note_off_c, 0, 65, 61
1, 157900, Note_on_c, 0, 70, 18
1, 157906, Note_off_c, 0, 71, 62
1, 157922, Note_off_c, 0, 60, 65
1, 157935, Note_off_c, 0, 68, 37
1, 157945, Note_off_c, 0, 70, 44
1, 157970, Note_on_c, 0, 59, 87
1, 157973, Note_on_c, 0, 56, 88
1, 157987, Note_off_c, 0, 59, 71
1, 157990, Note_on_c, 0, 52, 77
1, 158017, Note_off_c, 0, 56, 68
1, 158020, Note_on_c, 0, 47, 72
1, 158042, Note_off_c, 0, 52, 64
1, 158050, Note_off_c, 0, 47, 67
1, 158053, Note_on_c, 0, 50, 24
1, 158097, Note_off_c, 0, 50, 55
1, 158133, Note_on_c, 0, 38, 106
1, 158139, Note_on_c, 0, 26, 86
1, 158142, Note_on_c, 0, 28, 85
1, 158172, Note_off_c, 0, 38, 67
1, 158172, Note_off_c, 0, 26, 65
1, 158176, Note_off_c, 0, 28, 61
1, 158193, Note_on_c, 0, 47, 81
1, 158224, Poly_aftertouch_c, 0, 52, 0
1, 158236, Poly_aftertouch_c, 0, 32, 127
1, 158238, Note_off_c, 0, 47, 63
1, 158279, Poly_aftertouch_c, 0, 32, 0
1, 158283, Note_on_c, 0, 59, 63
1, 158284, Note_on_c, 0, 56, 62
1, 158301, Note_on_c, 0, 47, 86
1, 158308, Note_on_c, 0, 35, 79
1, 158309, Note_off_c, 0, 59, 64
1, 158311, Note_off_c, 0, 56, 64
1, 158323, Note_off_c, 0, 47, 72
1, 158331, Note_off_c, 0, 35, 67
1, 158361, Note_on_c, 0, 59, 83
1, 158408, Note_off_c, 0, 59, 59
1, 158438, Note_on_c, 0, 68, 75
1, 158443, Note_on_c, 0, 71, 80
1, 158444, Note_on_c, 0, 64, 64
1, 158457, Note_on_c, 0, 50, 94
1, 158464, Note_off_c, 0, 64, 64
1, 158473, Note_on_c, 0, 40, 67
1, 158475, Note_on_c, 0, 38, 62
1, 158476, Note_off_c, 0, 71, 64
1, 158477, Note_off_c, 0, 68, 61
1, 158494, Note_off_c, 0, 50, 66
1, 158499, Note_off_c, 0, 40, 61
1, 158507, Note_off_c, 0, 38, 53
1, 158535, Note_on_c, 0, 71, 80
1, 158583, Note_off_c, 0, 71, 59
1, 158607, Note_on_c, 0, 56, 102
1, 158607, Note_on_c, 0, 44, 98
1, 158608, Note_on_c, 0, 76, 66
1, 158610, Note_on_c, 0, 83, 70
1, 158621, Note_on_c, 0, 80, 57
1, 158627, Note_on_c, 0, 79, 53
1, 158627, Note_off_c, 0, 76, 64
1, 158628, Note_off_c, 0, 56, 69
1, 158635, Note_off_c, 0, 83, 68
1, 158640, Note_off_c, 0, 80, 61
1, 158645, Note_off_c, 0, 44, 61
1, 158649, Note_off_c, 0, 79, 59
1, 158689, Note_on_c, 0, 83, 80
1, 158733, Note_off_c, 0, 83, 57
1, 158751, Control_c, 0, 64, 68
1, 158758, Note_on_c, 0, 95, 97
1, 158762, Note_on_c, 0, 92, 94
1, 158765, Note_on_c, 0, 47, 110
1, 158765, Control_c, 0, 64, 0
1, 158769, Note_on_c, 0, 88, 74
1, 158773, Note_on_c, 0, 89, 68
1, 158774, Note_on_c, 0, 35, 92
1, 158780, Control_c, 0, 64, 69
1, 158783, Note_on_c, 0, 93, 45
1, 158784, Note_on_c, 0, 37, 72
1, 158789, Note_on_c, 0, 36, 60
1, 158789, Note_off_c, 0, 88, 71
1, 158791, Note_off_c, 0, 89, 63
1, 158795, Note_off_c, 0, 35, 74
1, 158795, Control_c, 0, 64, 127
1, 158799, Note_off_c, 0, 47, 68
1, 158799, Note_off_c, 0, 95, 66
1, 158807, Note_off_c, 0, 37, 63
1, 158809, Note_off_c, 0, 92, 66
1, 158810, Note_off_c, 0, 93, 58
1, 158818, Note_on_c, 0, 42, 10
1, 158819, Note_off_c, 0, 42, 127
1, 158819, Note_off_c, 0, 36, 56
1, 158834, Note_on_c, 0, 83, 75
1, 158847, Note_off_c, 0, 83, 71
1, 158864, Poly_aftertouch_c, 0, 42, 0
1, 158912, Note_on_c, 0, 83, 77
1, 158927, Note_on_c, 0, 52, 93
1, 158931, Note_on_c, 0, 40, 83
1, 158934, Note_on_c, 0, 76, 67
1, 158935, Note_on_c, 0, 80, 54
1, 158953, Note_off_c, 0, 52, 64
1, 158958, Note_off_c, 0, 40, 69
1, 158971, Note_off_c, 0, 83, 59
1, 158986, Note_on_c, 0, 79, 11
1, 159000, Note_on_c, 0, 71, 76
1, 159000, Note_off_c, 0, 76, 58
1, 159035, Note_off_c, 0, 79, 40
1, 159041, Note_off_c, 0, 71, 0
1, 159046, Note_off_c, 0, 80, 43
1, 159072, Note_on_c, 0, 56, 102
1, 159074, Note_on_c, 0, 44, 92
1, 159078, Poly_aftertouch_c, 0, 71, 127
1, 159100, Note_off_c, 0, 44, 67
1, 159110, Note_off_c, 0, 56, 60
1, 159110, Poly_aftertouch_c, 0, 71, 0
1, 159124, Note_on_c, 0, 80, 72
1, 159127, Note_on_c, 0, 76, 68
1, 159135, Note_on_c, 0, 83, 71
1, 159144, Note_off_c, 0, 76, 64
1, 159157, Note_off_c, 0, 83, 71
1, 159159, Note_off_c, 0, 80, 62
1, 159217, Note_on_c, 0, 59, 102
1, 159221, Note_on_c, 0, 83, 88
1, 159222, Note_on_c, 0, 47, 98
1, 159248, Note_off_c, 0, 59, 68
1, 159255, Note_off_c, 0, 47, 68
1, 159283, Note_on_c, 0, 88, 79
1, 159283, Note_on_c, 0, 92, 78
1, 159289, Note_off_c, 0, 83, 66
1, 159294, Note_on_c, 0, 95, 61
1, 159303, Note_off_c, 0, 88, 69
1, 159306, Note_off_c, 0, 92, 68
1, 159317, Note_off_c, 0, 95, 67
1, 159320, Control_c, 0, 64, 110
1, 159335, Control_c, 0, 64, 59
1, 159350, Control_c, 0, 64, 0
1, 159362, Note_on_c, 0, 88, 97
1, 159362, Note_on_c, 0, 92, 90
1, 159365, Note_on_c, 0, 52, 103
1, 159365, Note_on_c, 0, 95, 87
1, 159368, Note_on_c, 0, 40, 99
1, 159381, Control_c, 0, 64, 30
1, 159382, Note_off_c, 0, 95, 73
1, 159396, Control_c, 0, 64, 127
1, 159397, Note_off_c, 0, 52, 68
1, 159397, Note_off_c, 0, 40, 66
1, 159401, Note_on_c, 0, 42, 50
1, 159402, Note_off_c, 0, 42, 127
1, 159409, Note_off_c, 0, 92, 67
1, 159428, Note_off_c, 0, 88, 65
1, 159430, Note_on_c, 0, 83, 77
1, 159439, Poly_aftertouch_c, 0, 42, 0
1, 159446, Note_off_c, 0, 83, 76
1, 159517, Note_on_c, 0, 59, 98
1, 159517, Note_on_c, 0, 83, 72
1, 159523, Note_on_c, 0, 47, 89
1, 159528, Note_on_c, 0, 80, 69
1, 159541, Note_on_c, 0, 76, 58
1, 159548, Note_off_c, 0, 47, 66
1, 159551, Note_off_c, 0, 59, 66
1, 159573, Note_off_c, 0, 76, 49
1, 159590, Note_off_c, 0, 83, 56
1, 159599, Note_on_c, 0, 71, 62
1, 159608, Note_off_c, 0, 80, 58
1, 159618, Note_off_c, 0, 71, 64
1, 159670, Note_on_c, 0, 71, 66
1, 159681, Note_on_c, 0, 64, 98
1, 159683, Note_on_c, 0, 52, 91
1, 159698, Note_off_c, 0, 71, 62
1, 159703, Note_off_c, 0, 52, 72
1, 159710, Note_off_c, 0, 64, 66
1, 159715, Note_on_c, 0, 80, 81
1, 159725, Note_on_c, 0, 83, 59
1, 159741, Note_off_c, 0, 80, 64
1, 159750, Note_off_c, 0, 83, 67
1, 159803, Poly_aftertouch_c, 0, 76, 0
1, 159806, Note_on_c, 0, 83, 89
1, 159812, Note_on_c, 0, 56, 95
1, 159812, Note_on_c, 0, 68, 97
1, 159830, Note_off_c, 0, 68, 70
1, 159840, Note_off_c, 0, 56, 61
1, 159874, Note_on_c, 0, 92, 72
1, 159874, Note_on_c, 0, 95, 67
1, 159879, Note_off_c, 0, 83, 61
1, 159880, Note_on_c, 0, 88, 70
1, 159898, Note_off_c, 0, 92, 68
1, 159899, Note_off_c, 0, 95, 69
1, 159905, Note_off_c, 0, 88, 67
1, 159907, Control_c, 0, 64, 103
1, 159922, Control_c, 0, 64, 57
1, 159936, Control_c, 0, 64, 0
1, 159946, Note_on_c, 0, 95, 88
1, 159949, Note_on_c, 0, 92, 85
1, 159949, Note_on_c, 0, 88, 99
1, 159951, Control_c, 0, 64, 63
1, 159955, Note_on_c, 0, 59, 101
1, 159960, Note_on_c, 0, 47, 98
1, 159966, Control_c, 0, 64, 83
1, 159967, Note_off_c, 0, 95, 69
1, 159980, Note_off_c, 0, 47, 72
1, 159981, Control_c, 0, 64, 127
1, 159985, Note_off_c, 0, 59, 67
1, 159993, Note_on_c, 0, 49, 45
1, 159994, Note_off_c, 0, 49, 127
1, 159997, Note_off_c, 0, 92, 67
1, 160011, Note_off_c, 0, 88, 63
1, 160015, Note_on_c, 0, 83, 76
1, 160026, Poly_aftertouch_c, 0, 49, 0
1, 160035, Note_off_c, 0, 83, 72
1, 160110, Note_on_c, 0, 64, 100
1, 160112, Note_on_c, 0, 52, 93
1, 160113, Note_on_c, 0, 83, 71
1, 160115, Note_on_c, 0, 80, 67
1, 160125, Note_on_c, 0, 76, 60
1, 160131, Note_off_c, 0, 52, 68
1, 160135, Note_off_c, 0, 64, 65
1, 160152, Note_off_c, 0, 76, 64
1, 160172, Note_off_c, 0, 83, 44
1, 160177, Note_off_c, 0, 80, 58
1, 160193, Note_on_c, 0, 71, 78
1, 160255, Note_on_c, 0, 68, 102
1, 160256, Note_on_c, 0, 56, 99
1, 160282, Note_off_c, 0, 71, 61
1, 160285, Note_on_c, 0, 80, 73
1, 160290, Note_off_c, 0, 68, 66
1, 160294, Note_on_c, 0, 76, 55
1, 160295, Note_off_c, 0, 56, 61
1, 160299, Note_on_c, 0, 83, 67
1, 160316, Note_off_c, 0, 80, 64
1, 160318, Note_off_c, 0, 76, 57
1, 160323, Note_off_c, 0, 83, 70
1, 160393, Note_on_c, 0, 83, 84
1, 160404, Note_on_c, 0, 71, 105
1, 160408, Note_on_c, 0, 59, 94
1, 160432, Note_on_c, 0, 61, 56
1, 160435, Note_off_c, 0, 71, 69
1, 160438, Note_off_c, 0, 59, 63
1, 160455, Note_off_c, 0, 61, 60
1, 160464, Note_on_c, 0, 92, 63
1, 160464, Note_off_c, 0, 83, 64
1, 160471, Note_on_c, 0, 88, 63
1, 160491, Note_off_c, 0, 88, 66
1, 160492, Note_off_c, 0, 92, 67
1, 160502, Note_on_c, 0, 95, 6
1, 160542, Note_on_c, 0, 92, 70
1, 160553, Note_on_c, 0, 64, 109
1, 160553, Note_on_c, 0, 88, 75
1, 160557, Note_on_c, 0, 52, 100
1, 160565, Note_off_c, 0, 95, 62
1, 160573, Note_off_c, 0, 88, 72
1, 160581, Note_off_c, 0, 52, 63
1, 160581, Note_off_c, 0, 64, 72
1, 160584, Note_on_c, 0, 54, 51
1, 160584, Note_off_c, 0, 92, 67
1, 160604, Note_on_c, 0, 83, 76
1, 160612, Note_off_c, 0, 54, 63
1, 160637, Note_off_c, 0, 83, 62
1, 160696, Note_on_c, 0, 83, 68
1, 160703, Note_on_c, 0, 80, 60
1, 160710, Note_on_c, 0, 71, 98
1, 160714, Note_on_c, 0, 59, 95
1, 160721, Note_off_c, 0, 80, 64
1, 160737, Note_off_c, 0, 83, 61
1, 160741, Note_off_c, 0, 71, 69
1, 160742, Note_off_c, 0, 59, 61
1, 160775, Note_on_c, 0, 83, 66
1, 160800, Note_off_c, 0, 83, 68
1, 160843, Note_on_c, 0, 95, 88
1, 160846, Note_on_c, 0, 92, 77
1, 160849, Note_on_c, 0, 88, 82
1, 160850, Note_on_c, 0, 76, 105
1, 160863, Note_off_c, 0, 95, 69
1, 160867, Note_off_c, 0, 88, 71
1, 160879, Note_off_c, 0, 92, 65
1, 160890, Note_off_c, 0, 76, 63
1, 160912, Note_on_c, 0, 83, 76
1, 160946, Note_off_c, 0, 83, 63
1, 160966, Poly_aftertouch_c, 0, 65, 0
1, 160996, Note_on_c, 0, 83, 70
1, 161001, Note_on_c, 0, 71, 79
1, 161001, Note_on_c, 0, 80, 73
1, 161021, Note_off_c, 0, 80, 70
1, 161041, Note_off_c, 0, 71, 60
1, 161042, Note_off_c, 0, 83, 62
1, 161079, Note_on_c, 0, 83, 53
1, 161105, Note_off_c, 0, 83, 67
1, 161135, Note_on_c, 0, 88, 97
1, 161137, Note_on_c, 0, 92, 102
1, 161139, Note_on_c, 0, 95, 92
1, 161144, Note_on_c, 0, 80, 90
1, 161148, Note_off_c, 0, 88, 78
1, 161162, Note_on_c, 0, 76, 67
1, 161162, Note_off_c, 0, 95, 76
1, 161165, Note_on_c, 0, 93, 56
1, 161166, Note_off_c, 0, 93, 127
1, 161166, Note_off_c, 0, 92, 69
1, 161166, Note_off_c, 0, 80, 76
1, 161179, Note_off_c, 0, 76, 64
1, 161439, Note_on_c, 0, 60, 99
1, 161448, Note_on_c, 0, 72, 73
1, 161452, Note_on_c, 0, 68, 68
1, 161459, Note_off_c, 0, 60, 69
1, 161462, Note_off_c, 0, 72, 68
1, 161476, Note_off_c, 0, 68, 68
1, 161477, Note_on_c, 0, 70, 32
1, 161478, Control_c, 0, 64, 85
1, 161493, Control_c, 0, 64, 0
1, 161503, Note_on_c, 0, 59, 96
1, 161511, Note_off_c, 0, 70, 45
1, 161514, Note_on_c, 0, 52, 66
1, 161524, Note_on_c, 0, 53, 65
1, 161526, Note_on_c, 0, 47, 50
1, 161535, Note_off_c, 0, 59, 63
1, 161545, Note_off_c, 0, 52, 64
1, 161545, Note_off_c, 0, 53, 64
1, 161546, Note_on_c, 0, 48, 34
1, 161547, Note_off_c, 0, 48, 127
1, 161554, Note_off_c, 0, 47, 58
1, 161573, Note_on_c, 0, 56, 104
1, 161592, Note_on_c, 0, 68, 77
1, 161599, Note_on_c, 0, 64, 59
1, 161607, Note_off_c, 0, 56, 69
1, 161613, Note_off_c, 0, 68, 70
1, 161622, Note_off_c, 0, 64, 61
1, 161652, Note_on_c, 0, 47, 81
1, 161654, Note_on_c, 0, 59, 93
1, 161656, Note_on_c, 0, 51, 62
1, 161657, Note_off_c, 0, 51, 127
1, 161662, Note_on_c, 0, 52, 67
1, 161681, Note_off_c, 0, 47, 70
1, 161684, Note_off_c, 0, 52, 63
1, 161699, Note_off_c, 0, 59, 60
1, 161788, Note_on_c, 0, 68, 110
1, 161797, Note_on_c, 0, 64, 93
1, 161797, Note_on_c, 0, 80, 88
1, 161800, Note_on_c, 0, 56, 93
1, 161805, Control_c, 0, 64, 127
1, 161809, Note_on_c, 0, 76, 45
1, 161809, Note_on_c, 0, 59, 42
1, 161811, Note_off_c, 0, 80, 74
1, 161815, Note_on_c, 0, 78, 68
1, 161822, Note_off_c, 0, 56, 71
1, 161824, Note_off_c, 0, 68, 64
1, 161825, Note_off_c, 0, 59, 67
1, 161825, Note_off_c, 0, 64, 62
1, 161827, Note_off_c, 0, 76, 55
1, 161837, Note_off_c, 0, 78, 64
1, 162184, Note_on_c, 0, 52, 110
1, 162219, Note_off_c, 0, 52, 68
1, 162255, Note_on_c, 0, 40, 115
1, 162266, Note_on_c, 0, 28, 92
1, 162269, Note_on_c, 0, 29, 88
1, 162284, Note_off_c, 0, 40, 71
1, 162285, Note_on_c, 0, 30, 56
1, 162286, Note_off_c, 0, 30, 127
1, 162289, Note_off_c, 0, 28, 64
1, 162295, Note_off_c, 0, 29, 65
1, 162509, Control_c, 0, 64, 112
1, 162524, Control_c, 0, 64, 79
1, 162538, Control_c, 0, 64, 0
1, 162613, End_track
0, 0, End_of_file
