0, 0, Header, 0, 1, 384
1, 0, Start_track
1, 0, Title_t, "Sonata in D, K.311--Jia         "
1, 0, Text_t, "2009 International Piano-e-Competition finals"
1, 0, Text_t, "captured June-July 2009"
1, 0, Text_t, "http://www.piano-e-competition.com/"
1, 0, Text_t, "standard-resolution version"
1, 0, Text_t, "File processed for distribution by software from Zenph Studios, Inc., http://www.zenph.com"
1, 0, Instrument_name_t, "Yamaha Disklavier Pro Mark IV concert grand piano, model DCFIIISM4PRO"
1, 0, Sequencer_specific, 39, 67, 113, 0, 1, 0, 1, 0, 83, 111, 110, 97, 116, 97, 32, 68, 44, 32, 75, 46, 51, 49, 49, 32, 82, 97, 110, 32, 74, 105, 97, 32, 32, 32, 32, 32, 32, 32, 32, 32
1, 0, Sequencer_specific, 6, 67, 113, 0, 0, 0, 69
1, 0, System_exclusive, 21, 67, 113, 126, 21, 0, 2, 2, 2, 3, 12, 8, 4, 10, 4, 10, 4, 3, 5, 10, 0, 247
1, 0, Sequencer_specific, 5, 67, 123, 12, 2, 1
1, 0, Tempo, 512820
1, 0, Time_signature, 4, 2, 24, 8
1, 0, System_exclusive, 5, 126, 127, 9, 1, 247
1, 1, System_exclusive, 8, 67, 16, 76, 0, 0, 126, 0, 247
1, 2, System_exclusive, 8, 67, 16, 76, 8, 9, 7, 1, 247
1, 3, Control_c, 0, 0, 0
1, 3, Control_c, 1, 0, 0
1, 3, Control_c, 2, 0, 0
1, 3, Control_c, 3, 0, 0
1, 3, Control_c, 4, 0, 0
1, 3, Control_c, 5, 0, 0
1, 3, Control_c, 6, 0, 0
1, 3, Control_c, 7, 0, 0
1, 3, Control_c, 8, 0, 0
1, 3, Control_c, 9, 0, 127
1, 3, Control_c, 10, 0, 0
1, 3, Control_c, 11, 0, 0
1, 3, Control_c, 12, 0, 0
1, 3, Control_c, 13, 0, 0
1, 3, Control_c, 14, 0, 0
1, 3, Control_c, 15, 0, 0
1, 4, Control_c, 0, 32, 0
1, 4, Control_c, 1, 32, 0
1, 4, Control_c, 2, 32, 0
1, 4, Control_c, 3, 32, 0
1, 4, Control_c, 4, 32, 0
1, 4, Control_c, 5, 32, 0
1, 4, Control_c, 6, 32, 0
1, 4, Control_c, 7, 32, 0
1, 4, Control_c, 8, 32, 0
1, 4, Control_c, 9, 32, 0
1, 4, Control_c, 10, 32, 0
1, 4, Control_c, 11, 32, 0
1, 4, Control_c, 12, 32, 0
1, 4, Control_c, 13, 32, 0
1, 4, Control_c, 14, 32, 0
1, 4, Control_c, 15, 32, 0
1, 5, Program_c, 0, 0
1, 5, Program_c, 1, 0
1, 5, Program_c, 2, 0
1, 5, Program_c, 3, 0
1, 5, Program_c, 4, 0
1, 5, Program_c, 5, 0
1, 5, Program_c, 6, 0
1, 5, Program_c, 7, 0
1, 5, Program_c, 8, 0
1, 5, Program_c, 9, 0
1, 5, Program_c, 10, 0
1, 5, Program_c, 11, 0
1, 5, Program_c, 12, 0
1, 5, Program_c, 13, 0
1, 5, Program_c, 14, 0
1, 5, Program_c, 15, 0
1, 6, Control_c, 0, 7, 100
1, 6, Control_c, 1, 7, 100
1, 6, Control_c, 2, 7, 100
1, 6, Control_c, 3, 7, 100
1, 6, Control_c, 4, 7, 100
1, 6, Control_c, 5, 7, 100
1, 6, Control_c, 6, 7, 100
1, 6, Control_c, 7, 7, 100
1, 6, Control_c, 8, 7, 100
1, 6, Control_c, 9, 7, 100
1, 6, Control_c, 10, 7, 100
1, 6, Control_c, 11, 7, 100
1, 6, Control_c, 12, 7, 100
1, 6, Control_c, 13, 7, 100
1, 6, Control_c, 14, 7, 100
1, 6, Control_c, 15, 7, 100
1, 1137, Control_c, 0, 64, 40
1, 1140, Note_on_c, 0, 66, 55
1, 1151, Note_on_c, 0, 38, 53
1, 1152, Control_c, 0, 64, 63
1, 1166, Control_c, 0, 64, 70
1, 1169, Note_on_c, 0, 69, 76
1, 1172, Note_on_c, 0, 42, 67
1, 1181, Note_on_c, 0, 45, 70
1, 1181, Control_c, 0, 64, 77
1, 1186, Note_on_c, 0, 74, 88
1, 1187, Note_on_c, 0, 50, 72
1, 1196, Note_off_c, 0, 66, 63
1, 1196, Control_c, 0, 64, 86
1, 1205, Note_off_c, 0, 38, 63
1, 1206, Note_off_c, 0, 69, 64
1, 1210, Note_off_c, 0, 45, 67
1, 1211, Control_c, 0, 64, 94
1, 1214, Note_off_c, 0, 42, 65
1, 1216, Note_off_c, 0, 50, 68
1, 1217, Note_off_c, 0, 74, 65
1, 1226, Control_c, 0, 64, 99
1, 1241, Control_c, 0, 64, 101
1, 1256, Control_c, 0, 64, 102
1, 1271, Control_c, 0, 64, 102
1, 1285, Control_c, 0, 64, 103
1, 1315, Control_c, 0, 64, 103
1, 1330, Control_c, 0, 64, 107
1, 1345, Control_c, 0, 64, 116
1, 1359, Control_c, 0, 64, 127
1, 1419, Control_c, 0, 64, 97
1, 1433, Control_c, 0, 64, 70
1, 1448, Control_c, 0, 64, 0
1, 1870, Note_on_c, 0, 79, 55
1, 1870, Note_on_c, 0, 66, 35
1, 1884, Note_on_c, 0, 62, 42
1, 1949, Note_on_c, 0, 78, 65
1, 1964, Note_off_c, 0, 79, 57
1, 2001, Note_off_c, 0, 78, 63
1, 2016, Note_on_c, 0, 76, 66
1, 2078, Note_on_c, 0, 78, 82
1, 2083, Note_off_c, 0, 76, 60
1, 2135, Note_off_c, 0, 62, 52
1, 2138, Note_off_c, 0, 66, 55
1, 2158, Note_on_c, 0, 67, 51
1, 2158, Note_on_c, 0, 81, 82
1, 2165, Note_off_c, 0, 78, 65
1, 2167, Note_on_c, 0, 64, 48
1, 2230, Note_on_c, 0, 79, 80
1, 2257, Note_off_c, 0, 81, 62
1, 2290, Note_off_c, 0, 79, 63
1, 2297, Note_on_c, 0, 78, 82
1, 2368, Note_off_c, 0, 67, 53
1, 2368, Note_off_c, 0, 78, 63
1, 2371, Note_on_c, 0, 79, 76
1, 2382, Note_off_c, 0, 64, 56
1, 2439, Note_off_c, 0, 79, 64
1, 2449, Note_on_c, 0, 81, 67
1, 2451, Note_on_c, 0, 69, 42
1, 2455, Note_on_c, 0, 66, 39
1, 2554, Note_off_c, 0, 81, 62
1, 2790, Note_off_c, 0, 66, 53
1, 2792, Note_off_c, 0, 69, 54
1, 3063, Note_on_c, 0, 81, 58
1, 3102, Note_off_c, 0, 81, 59
1, 3202, Note_on_c, 0, 83, 83
1, 3245, Note_off_c, 0, 83, 64
1, 3343, Note_on_c, 0, 85, 87
1, 3408, Note_off_c, 0, 85, 64
1, 3496, Note_on_c, 0, 86, 85
1, 3537, Note_off_c, 0, 86, 64
1, 3643, Note_on_c, 0, 81, 71
1, 3652, Note_on_c, 0, 54, 49
1, 3688, Note_off_c, 0, 54, 64
1, 3782, Note_on_c, 0, 62, 49
1, 3828, Note_off_c, 0, 62, 55
1, 3928, Note_on_c, 0, 78, 58
1, 3930, Note_off_c, 0, 81, 57
1, 3935, Note_on_c, 0, 50, 46
1, 3980, Note_off_c, 0, 50, 60
1, 4066, Note_on_c, 0, 62, 48
1, 4077, Note_off_c, 0, 78, 31
1, 4115, Note_off_c, 0, 62, 56
1, 4213, Note_on_c, 0, 52, 53
1, 4219, Note_on_c, 0, 81, 71
1, 4254, Note_off_c, 0, 52, 59
1, 4278, Note_on_c, 0, 79, 77
1, 4299, Note_off_c, 0, 81, 59
1, 4338, Note_off_c, 0, 79, 64
1, 4342, Note_on_c, 0, 78, 80
1, 4344, Note_on_c, 0, 62, 53
1, 4381, Note_off_c, 0, 62, 62
1, 4406, Note_on_c, 0, 79, 84
1, 4416, Note_off_c, 0, 78, 63
1, 4481, Note_on_c, 0, 81, 80
1, 4487, Note_off_c, 0, 79, 64
1, 4489, Note_on_c, 0, 57, 58
1, 4514, Note_off_c, 0, 57, 63
1, 4615, Note_on_c, 0, 79, 77
1, 4621, Note_off_c, 0, 81, 61
1, 4628, Note_on_c, 0, 61, 57
1, 4654, Note_off_c, 0, 61, 61
1, 4757, Note_off_c, 0, 79, 59
1, 4777, Note_on_c, 0, 77, 63
1, 4792, Note_on_c, 0, 50, 35
1, 4800, Note_on_c, 0, 62, 34
1, 4941, Note_off_c, 0, 77, 61
1, 4973, Note_on_c, 0, 78, 50
1, 5047, Note_off_c, 0, 78, 61
1, 5051, Note_off_c, 0, 50, 48
1, 5167, Note_off_c, 0, 62, 56
1, 5493, Note_on_c, 0, 66, 43
1, 5493, Note_on_c, 0, 79, 59
1, 5496, Note_on_c, 0, 62, 42
1, 5569, Note_on_c, 0, 78, 70
1, 5585, Note_off_c, 0, 79, 56
1, 5618, Note_off_c, 0, 78, 64
1, 5622, Note_on_c, 0, 76, 76
1, 5703, Note_on_c, 0, 78, 85
1, 5709, Note_off_c, 0, 76, 63
1, 5765, Note_off_c, 0, 66, 52
1, 5775, Note_off_c, 0, 62, 51
1, 5776, Note_on_c, 0, 81, 83
1, 5783, Note_off_c, 0, 78, 65
1, 5785, Note_on_c, 0, 67, 57
1, 5792, Note_on_c, 0, 64, 50
1, 5847, Note_on_c, 0, 79, 82
1, 5876, Note_off_c, 0, 81, 63
1, 5914, Note_off_c, 0, 79, 63
1, 5919, Note_on_c, 0, 78, 82
1, 5984, Note_off_c, 0, 67, 47
1, 5993, Note_off_c, 0, 78, 64
1, 5998, Note_off_c, 0, 64, 52
1, 5999, Note_on_c, 0, 79, 74
1, 6065, Note_off_c, 0, 79, 62
1, 6079, Note_on_c, 0, 81, 67
1, 6093, Note_on_c, 0, 69, 38
1, 6097, Note_on_c, 0, 66, 40
1, 6189, Note_off_c, 0, 81, 62
1, 6446, Note_off_c, 0, 69, 57
1, 6482, Note_off_c, 0, 66, 51
1, 6697, Note_on_c, 0, 81, 61
1, 6729, Note_off_c, 0, 81, 60
1, 6839, Note_on_c, 0, 83, 83
1, 6883, Note_off_c, 0, 83, 64
1, 6977, Note_on_c, 0, 85, 91
1, 7036, Note_off_c, 0, 85, 64
1, 7110, Note_on_c, 0, 86, 86
1, 7170, Note_off_c, 0, 86, 64
1, 7254, Note_on_c, 0, 81, 72
1, 7269, Note_on_c, 0, 54, 52
1, 7306, Note_off_c, 0, 54, 64
1, 7402, Note_on_c, 0, 62, 50
1, 7447, Note_off_c, 0, 62, 56
1, 7530, Note_off_c, 0, 81, 56
1, 7542, Note_on_c, 0, 78, 58
1, 7559, Note_on_c, 0, 50, 42
1, 7595, Note_off_c, 0, 78, 63
1, 7611, Note_off_c, 0, 50, 58
1, 7689, Note_on_c, 0, 62, 42
1, 7736, Note_off_c, 0, 62, 47
1, 7829, Note_on_c, 0, 81, 65
1, 7829, Note_on_c, 0, 52, 49
1, 7898, Note_off_c, 0, 52, 52
1, 7910, Note_on_c, 0, 79, 71
1, 7910, Note_off_c, 0, 81, 60
1, 7962, Note_off_c, 0, 79, 62
1, 7971, Note_on_c, 0, 62, 49
1, 7977, Note_on_c, 0, 78, 73
1, 8016, Note_off_c, 0, 62, 59
1, 8035, Note_on_c, 0, 79, 78
1, 8040, Note_off_c, 0, 78, 63
1, 8107, Note_off_c, 0, 79, 63
1, 8110, Note_on_c, 0, 81, 81
1, 8114, Note_on_c, 0, 57, 62
1, 8144, Note_off_c, 0, 57, 64
1, 8174, Note_on_c, 0, 79, 77
1, 8201, Note_off_c, 0, 81, 60
1, 8239, Note_on_c, 0, 61, 61
1, 8246, Note_on_c, 0, 78, 78
1, 8251, Note_off_c, 0, 79, 62
1, 8273, Note_off_c, 0, 61, 61
1, 8299, Note_off_c, 0, 78, 66
1, 8317, Note_on_c, 0, 76, 73
1, 8342, Note_off_c, 0, 76, 63
1, 8383, Note_on_c, 0, 74, 84
1, 8402, Note_off_c, 0, 74, 72
1, 8404, Note_on_c, 0, 62, 46
1, 8424, Control_c, 0, 67, 25
1, 8431, Note_off_c, 0, 62, 55
1, 8439, Control_c, 0, 67, 63
1, 8454, Control_c, 0, 67, 106
1, 8468, Control_c, 0, 67, 127
1, 8532, Note_on_c, 0, 66, 64
1, 8561, Note_off_c, 0, 66, 63
1, 8690, Note_on_c, 0, 69, 67
1, 8708, Note_on_c, 0, 62, 25
1, 8716, Note_off_c, 0, 69, 69
1, 8745, Note_off_c, 0, 62, 44
1, 8845, Note_on_c, 0, 66, 50
1, 8872, Note_off_c, 0, 66, 56
1, 8986, Note_on_c, 0, 79, 53
1, 9005, Note_on_c, 0, 62, 30
1, 9007, Note_off_c, 0, 79, 62
1, 9024, Note_on_c, 0, 78, 59
1, 9039, Note_off_c, 0, 62, 48
1, 9057, Note_off_c, 0, 78, 58
1, 9080, Note_on_c, 0, 79, 69
1, 9107, Note_off_c, 0, 79, 64
1, 9131, Note_on_c, 0, 66, 50
1, 9132, Note_on_c, 0, 78, 67
1, 9157, Note_off_c, 0, 66, 58
1, 9163, Note_off_c, 0, 78, 63
1, 9179, Note_on_c, 0, 79, 60
1, 9214, Note_off_c, 0, 79, 62
1, 9229, Note_on_c, 0, 78, 67
1, 9270, Note_off_c, 0, 78, 64
1, 9274, Note_on_c, 0, 62, 40
1, 9284, Note_on_c, 0, 79, 65
1, 9303, Note_off_c, 0, 62, 55
1, 9340, Note_off_c, 0, 79, 61
1, 9342, Note_on_c, 0, 78, 64
1, 9399, Note_off_c, 0, 78, 62
1, 9425, Note_on_c, 0, 66, 48
1, 9427, Note_on_c, 0, 76, 62
1, 9450, Note_off_c, 0, 66, 58
1, 9467, Note_off_c, 0, 76, 56
1, 9485, Note_on_c, 0, 74, 63
1, 9537, Note_off_c, 0, 74, 64
1, 9548, Note_on_c, 0, 73, 73
1, 9560, Note_on_c, 0, 64, 54
1, 9570, Note_off_c, 0, 73, 69
1, 9584, Note_off_c, 0, 64, 64
1, 9702, Note_on_c, 0, 67, 55
1, 9735, Note_off_c, 0, 67, 59
1, 9849, Note_on_c, 0, 69, 66
1, 9862, Note_on_c, 0, 64, 41
1, 9875, Note_off_c, 0, 69, 68
1, 9889, Note_off_c, 0, 64, 56
1, 9984, Note_on_c, 0, 67, 56
1, 10023, Note_off_c, 0, 67, 59
1, 10141, Note_on_c, 0, 64, 55
1, 10147, Note_on_c, 0, 76, 61
1, 10183, Note_off_c, 0, 64, 61
1, 10203, Note_on_c, 0, 66, 53
1, 10258, Note_off_c, 0, 66, 60
1, 10281, Note_on_c, 0, 67, 61
1, 10338, Note_off_c, 0, 67, 61
1, 10346, Note_on_c, 0, 66, 67
1, 10377, Note_off_c, 0, 66, 65
1, 10421, Note_on_c, 0, 64, 61
1, 10425, Note_off_c, 0, 76, 61
1, 10452, Note_off_c, 0, 64, 65
1, 10480, Note_on_c, 0, 62, 61
1, 10520, Note_off_c, 0, 62, 59
1, 10559, Note_on_c, 0, 61, 40
1, 10595, Note_off_c, 0, 61, 63
1, 10614, Note_on_c, 0, 59, 60
1, 10682, Note_off_c, 0, 59, 61
1, 10699, Note_on_c, 0, 76, 71
1, 10703, Note_on_c, 0, 57, 58
1, 10721, Note_off_c, 0, 76, 68
1, 10735, Note_off_c, 0, 57, 65
1, 10833, Note_on_c, 0, 61, 68
1, 10875, Note_off_c, 0, 61, 61
1, 10982, Note_on_c, 0, 69, 76
1, 10983, Note_on_c, 0, 57, 61
1, 11015, Note_off_c, 0, 69, 62
1, 11017, Note_off_c, 0, 57, 63
1, 11119, Note_on_c, 0, 61, 60
1, 11160, Note_off_c, 0, 61, 60
1, 11247, Note_on_c, 0, 81, 69
1, 11263, Note_on_c, 0, 57, 47
1, 11274, Note_off_c, 0, 81, 61
1, 11292, Note_off_c, 0, 57, 61
1, 11308, Note_on_c, 0, 79, 63
1, 11343, Note_off_c, 0, 79, 61
1, 11358, Note_on_c, 0, 81, 68
1, 11387, Note_off_c, 0, 81, 60
1, 11392, Note_on_c, 0, 61, 56
1, 11412, Note_on_c, 0, 79, 57
1, 11426, Note_off_c, 0, 61, 62
1, 11445, Note_off_c, 0, 79, 63
1, 11458, Note_on_c, 0, 81, 73
1, 11510, Note_off_c, 0, 81, 60
1, 11530, Note_on_c, 0, 79, 64
1, 11534, Note_on_c, 0, 55, 51
1, 11570, Note_off_c, 0, 55, 60
1, 11640, Note_off_c, 0, 79, 58
1, 11662, Note_on_c, 0, 78, 65
1, 11668, Note_on_c, 0, 61, 62
1, 11689, Note_off_c, 0, 61, 63
1, 11722, Note_off_c, 0, 78, 62
1, 11736, Note_on_c, 0, 76, 68
1, 11781, Note_off_c, 0, 76, 61
1, 11802, Note_on_c, 0, 74, 71
1, 11807, Note_on_c, 0, 54, 58
1, 11826, Note_off_c, 0, 74, 71
1, 11833, Note_off_c, 0, 54, 66
1, 11950, Note_on_c, 0, 62, 56
1, 11986, Note_off_c, 0, 62, 60
1, 12096, Note_on_c, 0, 54, 55
1, 12097, Note_on_c, 0, 69, 62
1, 12122, Note_off_c, 0, 54, 66
1, 12125, Note_off_c, 0, 69, 67
1, 12237, Note_on_c, 0, 62, 58
1, 12273, Note_off_c, 0, 62, 61
1, 12385, Note_on_c, 0, 78, 63
1, 12390, Note_on_c, 0, 54, 57
1, 12428, Note_off_c, 0, 54, 66
1, 12452, Note_on_c, 0, 50, 61
1, 12522, Note_off_c, 0, 50, 65
1, 12527, Note_on_c, 0, 52, 70
1, 12598, Note_on_c, 0, 54, 73
1, 12612, Note_off_c, 0, 52, 61
1, 12672, Note_on_c, 0, 55, 73
1, 12677, Note_off_c, 0, 54, 65
1, 12696, Note_off_c, 0, 78, 56
1, 12715, Note_off_c, 0, 55, 64
1, 12724, Control_c, 0, 67, 116
1, 12739, Control_c, 0, 67, 98
1, 12744, Note_on_c, 0, 57, 67
1, 12754, Control_c, 0, 67, 75
1, 12769, Control_c, 0, 67, 53
1, 12784, Control_c, 0, 67, 33
1, 12798, Control_c, 0, 67, 11
1, 12813, Note_off_c, 0, 57, 59
1, 12813, Control_c, 0, 67, 0
1, 12814, Note_on_c, 0, 59, 74
1, 12873, Note_off_c, 0, 59, 59
1, 12886, Note_on_c, 0, 61, 72
1, 12919, Note_off_c, 0, 61, 63
1, 12947, Note_on_c, 0, 78, 75
1, 12964, Note_on_c, 0, 62, 54
1, 13002, Note_off_c, 0, 78, 63
1, 13021, Note_on_c, 0, 74, 72
1, 13077, Note_off_c, 0, 74, 62
1, 13089, Note_on_c, 0, 76, 83
1, 13164, Note_on_c, 0, 78, 85
1, 13166, Note_off_c, 0, 62, 60
1, 13170, Note_off_c, 0, 76, 60
1, 13214, Note_off_c, 0, 78, 66
1, 13233, Note_on_c, 0, 79, 80
1, 13284, Note_off_c, 0, 79, 58
1, 13295, Note_on_c, 0, 81, 82
1, 13374, Note_off_c, 0, 81, 61
1, 13379, Note_on_c, 0, 83, 75
1, 13427, Note_off_c, 0, 83, 65
1, 13439, Note_on_c, 0, 85, 75
1, 13516, Note_on_c, 0, 86, 79
1, 13516, Note_off_c, 0, 85, 64
1, 13583, Note_on_c, 0, 85, 70
1, 13598, Note_off_c, 0, 86, 58
1, 13658, Note_on_c, 0, 83, 75
1, 13659, Note_on_c, 0, 57, 60
1, 13665, Note_on_c, 0, 54, 52
1, 13673, Note_off_c, 0, 85, 61
1, 13689, Note_off_c, 0, 57, 64
1, 13692, Note_off_c, 0, 54, 64
1, 13728, Note_off_c, 0, 83, 63
1, 13731, Note_on_c, 0, 81, 73
1, 13778, Note_off_c, 0, 81, 61
1, 13805, Note_on_c, 0, 57, 43
1, 13806, Note_on_c, 0, 79, 69
1, 13807, Note_on_c, 0, 54, 43
1, 13835, Note_off_c, 0, 57, 56
1, 13838, Note_off_c, 0, 54, 61
1, 13853, Note_off_c, 0, 79, 54
1, 13882, Note_on_c, 0, 78, 67
1, 13945, Note_on_c, 0, 54, 53
1, 13946, Note_on_c, 0, 57, 49
1, 13949, Note_on_c, 0, 76, 69
1, 13956, Note_off_c, 0, 78, 63
1, 13974, Note_off_c, 0, 57, 60
1, 13981, Note_off_c, 0, 54, 64
1, 13986, Note_off_c, 0, 76, 59
1, 14022, Note_on_c, 0, 74, 64
1, 14059, Note_off_c, 0, 74, 58
1, 14099, Note_on_c, 0, 59, 54
1, 14100, Note_on_c, 0, 55, 50
1, 14103, Note_on_c, 0, 76, 71
1, 14155, Note_off_c, 0, 76, 59
1, 14169, Note_on_c, 0, 78, 74
1, 14242, Note_on_c, 0, 76, 78
1, 14249, Note_off_c, 0, 78, 62
1, 14305, Note_on_c, 0, 75, 82
1, 14305, Note_off_c, 0, 76, 64
1, 14350, Note_off_c, 0, 59, 61
1, 14354, Note_off_c, 0, 55, 64
1, 14356, Note_off_c, 0, 75, 65
1, 14375, Note_on_c, 0, 76, 82
1, 14432, Note_off_c, 0, 76, 59
1, 14445, Note_on_c, 0, 78, 81
1, 14515, Note_off_c, 0, 78, 62
1, 14517, Note_on_c, 0, 79, 81
1, 14586, Note_off_c, 0, 79, 63
1, 14596, Note_on_c, 0, 81, 70
1, 14668, Note_off_c, 0, 81, 64
1, 14679, Note_on_c, 0, 83, 73
1, 14742, Note_on_c, 0, 81, 69
1, 14753, Note_off_c, 0, 83, 57
1, 14819, Note_on_c, 0, 79, 75
1, 14827, Note_on_c, 0, 55, 54
1, 14830, Note_on_c, 0, 59, 50
1, 14832, Note_off_c, 0, 81, 56
1, 14857, Note_off_c, 0, 55, 60
1, 14859, Note_off_c, 0, 59, 55
1, 14894, Note_on_c, 0, 78, 75
1, 14898, Note_off_c, 0, 79, 59
1, 14950, Note_off_c, 0, 78, 65
1, 14965, Note_on_c, 0, 59, 55
1, 14965, Note_on_c, 0, 76, 69
1, 14968, Note_on_c, 0, 55, 54
1, 14994, Note_off_c, 0, 55, 60
1, 15010, Note_off_c, 0, 59, 53
1, 15030, Note_on_c, 0, 74, 70
1, 15044, Note_off_c, 0, 76, 0
1, 15081, Poly_aftertouch_c, 0, 76, 127
1, 15102, Note_off_c, 0, 74, 65
1, 15104, Note_on_c, 0, 73, 76
1, 15111, Note_on_c, 0, 59, 59
1, 15114, Note_on_c, 0, 56, 62
1, 15118, Poly_aftertouch_c, 0, 76, 0
1, 15138, Note_off_c, 0, 56, 64
1, 15141, Note_off_c, 0, 59, 61
1, 15156, Note_off_c, 0, 73, 61
1, 15176, Note_on_c, 0, 71, 68
1, 15218, Note_off_c, 0, 71, 56
1, 15254, Note_on_c, 0, 73, 72
1, 15255, Note_on_c, 0, 57, 62
1, 15278, Note_off_c, 0, 57, 61
1, 15330, Note_off_c, 0, 73, 63
1, 15338, Note_on_c, 0, 74, 68
1, 15408, Note_on_c, 0, 55, 54
1, 15430, Note_on_c, 0, 73, 55
1, 15436, Note_off_c, 0, 55, 62
1, 15436, Note_off_c, 0, 74, 64
1, 15467, Note_off_c, 0, 73, 65
1, 15475, Note_on_c, 0, 69, 65
1, 15525, Note_off_c, 0, 69, 56
1, 15558, Note_on_c, 0, 54, 60
1, 15561, Note_on_c, 0, 74, 68
1, 15585, Note_off_c, 0, 54, 66
1, 15662, Note_off_c, 0, 74, 60
1, 15713, Note_on_c, 0, 50, 61
1, 15743, Note_off_c, 0, 50, 66
1, 15865, Note_on_c, 0, 79, 68
1, 15868, Note_on_c, 0, 49, 55
1, 15895, Note_off_c, 0, 49, 60
1, 15919, Note_off_c, 0, 79, 60
1, 15935, Note_on_c, 0, 81, 69
1, 16002, Note_on_c, 0, 45, 71
1, 16006, Note_on_c, 0, 79, 74
1, 16029, Note_off_c, 0, 81, 60
1, 16035, Note_off_c, 0, 45, 66
1, 16058, Note_off_c, 0, 79, 63
1, 16074, Note_on_c, 0, 76, 74
1, 16122, Note_off_c, 0, 76, 60
1, 16157, Note_on_c, 0, 79, 82
1, 16173, Note_on_c, 0, 50, 49
1, 16204, Note_off_c, 0, 50, 58
1, 16218, Note_on_c, 0, 78, 76
1, 16239, Note_off_c, 0, 79, 59
1, 16295, Note_on_c, 0, 54, 66
1, 16296, Note_on_c, 0, 76, 75
1, 16312, Note_off_c, 0, 78, 65
1, 16319, Note_off_c, 0, 54, 68
1, 16341, Note_off_c, 0, 76, 63
1, 16361, Note_on_c, 0, 74, 69
1, 16402, Note_off_c, 0, 74, 54
1, 16437, Note_on_c, 0, 73, 70
1, 16444, Note_on_c, 0, 57, 59
1, 16476, Note_off_c, 0, 57, 64
1, 16484, Note_off_c, 0, 73, 61
1, 16504, Note_on_c, 0, 74, 66
1, 16577, Note_off_c, 0, 74, 64
1, 16580, Note_on_c, 0, 73, 73
1, 16595, Note_on_c, 0, 55, 57
1, 16619, Note_off_c, 0, 55, 62
1, 16622, Note_off_c, 0, 73, 62
1, 16649, Note_on_c, 0, 69, 55
1, 16691, Note_off_c, 0, 69, 59
1, 16727, Note_on_c, 0, 74, 60
1, 16738, Note_on_c, 0, 54, 50
1, 16767, Note_off_c, 0, 54, 62
1, 16856, Note_off_c, 0, 74, 65
1, 16899, Note_on_c, 0, 50, 60
1, 16927, Note_off_c, 0, 50, 64
1, 17040, Note_on_c, 0, 49, 81
1, 17043, Note_on_c, 0, 79, 80
1, 17078, Note_off_c, 0, 49, 60
1, 17104, Note_off_c, 0, 79, 63
1, 17114, Note_on_c, 0, 81, 78
1, 17182, Note_on_c, 0, 45, 70
1, 17182, Note_on_c, 0, 79, 78
1, 17206, Note_off_c, 0, 81, 63
1, 17212, Note_off_c, 0, 45, 63
1, 17242, Note_off_c, 0, 79, 62
1, 17260, Note_on_c, 0, 76, 69
1, 17294, Note_off_c, 0, 76, 56
1, 17330, Note_on_c, 0, 50, 56
1, 17337, Note_on_c, 0, 79, 71
1, 17364, Note_off_c, 0, 50, 67
1, 17403, Note_on_c, 0, 78, 62
1, 17407, Note_off_c, 0, 79, 57
1, 17466, Note_on_c, 0, 54, 65
1, 17481, Note_on_c, 0, 76, 59
1, 17481, Note_off_c, 0, 78, 64
1, 17494, Note_off_c, 0, 54, 65
1, 17519, Note_off_c, 0, 76, 62
1, 17546, Note_on_c, 0, 74, 63
1, 17584, Note_off_c, 0, 74, 59
1, 17633, Note_on_c, 0, 73, 66
1, 17635, Note_on_c, 0, 57, 56
1, 17639, Note_on_c, 0, 52, 57
1, 17640, Note_on_c, 0, 45, 59
1, 17698, Note_off_c, 0, 73, 62
1, 17704, Note_on_c, 0, 76, 69
1, 17713, Control_c, 0, 64, 31
1, 17728, Control_c, 0, 64, 53
1, 17743, Control_c, 0, 64, 62
1, 17758, Control_c, 0, 64, 63
1, 17773, Control_c, 0, 64, 64
1, 17782, Note_on_c, 0, 73, 70
1, 17783, Note_off_c, 0, 52, 59
1, 17788, Control_c, 0, 64, 65
1, 17790, Note_off_c, 0, 76, 59
1, 17799, Note_off_c, 0, 57, 37
1, 17803, Control_c, 0, 64, 65
1, 17817, Control_c, 0, 64, 66
1, 17826, Note_off_c, 0, 73, 61
1, 17832, Control_c, 0, 64, 67
1, 17847, Control_c, 0, 64, 68
1, 17852, Note_on_c, 0, 69, 68
1, 17861, Control_c, 0, 64, 70
1, 17876, Control_c, 0, 64, 71
1, 17906, Control_c, 0, 64, 69
1, 17919, Note_off_c, 0, 69, 59
1, 17921, Control_c, 0, 64, 64
1, 17926, Note_off_c, 0, 45, 38
1, 17935, Control_c, 0, 64, 0
1, 17943, Note_on_c, 0, 54, 75
1, 17943, Note_on_c, 0, 78, 83
1, 17947, Note_on_c, 0, 50, 67
1, 17949, Note_on_c, 0, 57, 66
1, 18011, Note_off_c, 0, 78, 64
1, 18017, Note_on_c, 0, 81, 80
1, 18024, Control_c, 0, 64, 24
1, 18039, Control_c, 0, 64, 44
1, 18052, Note_off_c, 0, 54, 51
1, 18053, Control_c, 0, 64, 59
1, 18068, Control_c, 0, 64, 61
1, 18083, Control_c, 0, 64, 62
1, 18091, Note_on_c, 0, 78, 72
1, 18098, Control_c, 0, 64, 62
1, 18105, Note_off_c, 0, 57, 35
1, 18113, Control_c, 0, 64, 63
1, 18117, Note_off_c, 0, 81, 61
1, 18128, Control_c, 0, 64, 66
1, 18142, Control_c, 0, 64, 68
1, 18145, Note_off_c, 0, 78, 63
1, 18149, Note_on_c, 0, 74, 75
1, 18157, Control_c, 0, 64, 71
1, 18164, Note_off_c, 0, 50, 64
1, 18187, Control_c, 0, 64, 69
1, 18196, Note_off_c, 0, 74, 60
1, 18202, Control_c, 0, 64, 58
1, 18217, Control_c, 0, 64, 0
1, 18233, Note_on_c, 0, 73, 86
1, 18235, Note_on_c, 0, 52, 82
1, 18238, Note_on_c, 0, 57, 75
1, 18244, Note_on_c, 0, 45, 76
1, 18306, Note_on_c, 0, 76, 84
1, 18307, Note_off_c, 0, 73, 62
1, 18368, Note_off_c, 0, 52, 43
1, 18399, Note_on_c, 0, 73, 84
1, 18405, Note_off_c, 0, 57, 27
1, 18411, Note_off_c, 0, 76, 61
1, 18455, Note_off_c, 0, 73, 64
1, 18471, Note_on_c, 0, 69, 71
1, 18511, Note_off_c, 0, 45, 52
1, 18532, Note_off_c, 0, 69, 61
1, 18549, Note_on_c, 0, 54, 79
1, 18551, Note_on_c, 0, 78, 83
1, 18552, Note_on_c, 0, 50, 73
1, 18552, Control_c, 0, 64, 49
1, 18553, Note_on_c, 0, 57, 74
1, 18566, Control_c, 0, 64, 0
1, 18616, Note_off_c, 0, 78, 66
1, 18618, Note_on_c, 0, 81, 85
1, 18696, Note_on_c, 0, 78, 78
1, 18696, Note_off_c, 0, 81, 62
1, 18762, Note_off_c, 0, 78, 64
1, 18768, Note_on_c, 0, 74, 75
1, 18794, Note_off_c, 0, 74, 63
1, 18807, Note_off_c, 0, 54, 49
1, 18815, Note_off_c, 0, 57, 54
1, 18819, Note_off_c, 0, 50, 65
1, 18825, Note_on_c, 0, 76, 81
1, 18831, Note_on_c, 0, 73, 72
1, 18846, Note_off_c, 0, 76, 68
1, 18851, Note_off_c, 0, 73, 67
1, 18982, Note_on_c, 0, 73, 61
1, 18983, Note_on_c, 0, 81, 71
1, 18986, Note_on_c, 0, 76, 63
1, 18986, Note_on_c, 0, 45, 67
1, 18988, Note_on_c, 0, 52, 61
1, 18989, Note_on_c, 0, 57, 60
1, 18992, Note_on_c, 0, 49, 59
1, 19008, Note_off_c, 0, 81, 65
1, 19010, Note_off_c, 0, 73, 66
1, 19010, Note_off_c, 0, 57, 62
1, 19014, Note_off_c, 0, 76, 64
1, 19019, Note_off_c, 0, 52, 64
1, 19019, Note_off_c, 0, 45, 64
1, 19021, Note_off_c, 0, 49, 65
1, 19134, Note_on_c, 0, 81, 81
1, 19138, Note_on_c, 0, 73, 80
1, 19138, Note_on_c, 0, 76, 79
1, 19139, Note_on_c, 0, 49, 61
1, 19139, Note_on_c, 0, 57, 65
1, 19140, Note_on_c, 0, 52, 65
1, 19144, Note_on_c, 0, 45, 64
1, 19160, Note_off_c, 0, 73, 69
1, 19165, Note_off_c, 0, 57, 64
1, 19174, Note_off_c, 0, 52, 65
1, 19174, Note_off_c, 0, 76, 61
1, 19174, Note_off_c, 0, 81, 63
1, 19175, Note_off_c, 0, 45, 64
1, 19177, Note_off_c, 0, 49, 64
1, 19273, Note_on_c, 0, 81, 85
1, 19279, Note_on_c, 0, 76, 79
1, 19281, Note_on_c, 0, 52, 64
1, 19282, Note_on_c, 0, 57, 64
1, 19285, Note_on_c, 0, 45, 59
1, 19285, Note_on_c, 0, 49, 63
1, 19290, Note_on_c, 0, 73, 56
1, 19312, Note_off_c, 0, 57, 63
1, 19312, Note_off_c, 0, 73, 40
1, 19316, Note_on_c, 0, 74, 37
1, 19318, Note_off_c, 0, 49, 64
1, 19318, Note_off_c, 0, 52, 65
1, 19320, Note_off_c, 0, 45, 63
1, 19321, Note_off_c, 0, 76, 64
1, 19329, Note_off_c, 0, 74, 44
1, 19329, Note_off_c, 0, 81, 64
1, 19433, Note_on_c, 0, 81, 85
1, 19434, Note_on_c, 0, 73, 79
1, 19439, Note_on_c, 0, 76, 78
1, 19442, Note_on_c, 0, 45, 66
1, 19444, Note_on_c, 0, 57, 72
1, 19445, Note_on_c, 0, 52, 71
1, 19448, Control_c, 0, 64, 47
1, 19453, Note_on_c, 0, 49, 55
1, 19463, Control_c, 0, 64, 65
1, 19465, Note_off_c, 0, 76, 64
1, 19470, Note_off_c, 0, 57, 66
1, 19475, Note_off_c, 0, 52, 64
1, 19475, Note_off_c, 0, 73, 62
1, 19478, Control_c, 0, 64, 73
1, 19482, Note_off_c, 0, 49, 64
1, 19484, Note_off_c, 0, 45, 64
1, 19484, Note_off_c, 0, 81, 64
1, 19493, Control_c, 0, 64, 83
1, 19507, Control_c, 0, 64, 93
1, 19522, Control_c, 0, 64, 104
1, 19537, Control_c, 0, 64, 117
1, 19552, Control_c, 0, 64, 127
1, 19611, Control_c, 0, 67, 22
1, 19625, Control_c, 0, 67, 55
1, 19640, Control_c, 0, 67, 108
1, 19655, Control_c, 0, 64, 102
1, 19655, Control_c, 0, 67, 127
1, 19670, Control_c, 0, 64, 81
1, 19685, Control_c, 0, 64, 64
1, 19699, Control_c, 0, 64, 0
1, 19889, Note_on_c, 0, 74, 57
1, 19961, Note_on_c, 0, 73, 69
1, 19978, Note_off_c, 0, 74, 59
1, 20008, Note_off_c, 0, 73, 62
1, 20024, Note_on_c, 0, 71, 69
1, 20057, Note_off_c, 0, 71, 58
1, 20082, Note_on_c, 0, 73, 71
1, 20144, Note_off_c, 0, 73, 63
1, 20165, Note_on_c, 0, 74, 71
1, 20264, Note_off_c, 0, 74, 57
1, 20301, Note_on_c, 0, 75, 54
1, 20324, Note_on_c, 0, 57, 23
1, 20567, Note_on_c, 0, 76, 46
1, 20575, Note_off_c, 0, 75, 44
1, 20615, Note_on_c, 0, 61, 40
1, 20672, Note_off_c, 0, 76, 59
1, 20736, Note_off_c, 0, 57, 38
1, 20755, Note_on_c, 0, 59, 45
1, 20782, Note_off_c, 0, 61, 41
1, 20896, Note_on_c, 0, 76, 69
1, 20901, Note_off_c, 0, 59, 48
1, 20910, Note_on_c, 0, 62, 44
1, 20945, Note_off_c, 0, 76, 59
1, 21060, Note_on_c, 0, 81, 61
1, 21064, Note_off_c, 0, 62, 33
1, 21069, Note_on_c, 0, 61, 44
1, 21157, Note_off_c, 0, 61, 49
1, 21209, Note_on_c, 0, 80, 72
1, 21222, Note_on_c, 0, 64, 42
1, 21244, Note_off_c, 0, 81, 60
1, 21366, Note_off_c, 0, 64, 39
1, 21368, Note_on_c, 0, 78, 78
1, 21386, Note_on_c, 0, 57, 40
1, 21420, Note_off_c, 0, 80, 58
1, 21513, Note_on_c, 0, 76, 74
1, 21529, Note_off_c, 0, 78, 64
1, 21530, Note_on_c, 0, 61, 51
1, 21583, Note_off_c, 0, 57, 38
1, 21653, Note_off_c, 0, 61, 38
1, 21658, Note_off_c, 0, 76, 59
1, 21666, Note_on_c, 0, 73, 62
1, 21683, Note_on_c, 0, 59, 41
1, 21798, Note_off_c, 0, 59, 55
1, 21809, Note_off_c, 0, 73, 59
1, 21818, Note_on_c, 0, 74, 61
1, 21828, Note_on_c, 0, 66, 46
1, 21856, Note_off_c, 0, 74, 57
1, 21946, Note_off_c, 0, 66, 39
1, 21981, Note_on_c, 0, 62, 49
1, 22125, Note_on_c, 0, 74, 64
1, 22144, Note_on_c, 0, 59, 45
1, 22145, Note_off_c, 0, 62, 29
1, 22165, Note_off_c, 0, 74, 58
1, 22195, Note_off_c, 0, 59, 53
1, 22284, Note_on_c, 0, 76, 70
1, 22286, Note_on_c, 0, 56, 51
1, 22386, Note_off_c, 0, 56, 56
1, 22415, Note_on_c, 0, 74, 79
1, 22435, Note_on_c, 0, 59, 47
1, 22450, Note_off_c, 0, 76, 60
1, 22522, Note_off_c, 0, 59, 55
1, 22565, Note_on_c, 0, 73, 84
1, 22579, Note_on_c, 0, 52, 47
1, 22606, Note_off_c, 0, 74, 60
1, 22706, Note_off_c, 0, 52, 47
1, 22712, Note_on_c, 0, 71, 79
1, 22727, Note_on_c, 0, 62, 50
1, 22730, Note_off_c, 0, 73, 63
1, 22839, Note_off_c, 0, 62, 57
1, 22867, Note_on_c, 0, 68, 76
1, 22874, Note_on_c, 0, 61, 47
1, 22877, Note_off_c, 0, 71, 61
1, 23003, Note_off_c, 0, 61, 36
1, 23005, Note_off_c, 0, 68, 62
1, 23010, Note_on_c, 0, 69, 74
1, 23028, Note_on_c, 0, 64, 50
1, 23031, Note_off_c, 0, 69, 70
1, 23161, Note_on_c, 0, 56, 56
1, 23164, Note_off_c, 0, 64, 55
1, 23292, Note_off_c, 0, 56, 39
1, 23300, Note_on_c, 0, 71, 66
1, 23311, Note_on_c, 0, 64, 42
1, 23344, Note_off_c, 0, 71, 61
1, 23438, Note_off_c, 0, 64, 50
1, 23448, Note_on_c, 0, 72, 58
1, 23455, Note_on_c, 0, 57, 42
1, 23550, Note_off_c, 0, 72, 41
1, 23565, Note_off_c, 0, 57, 35
1, 23600, Note_on_c, 0, 73, 58
1, 23610, Note_on_c, 0, 64, 32
1, 23624, Note_off_c, 0, 73, 64
1, 23755, Note_on_c, 0, 54, 47
1, 23765, Note_off_c, 0, 64, 48
1, 23899, Note_off_c, 0, 54, 52
1, 23927, Note_on_c, 0, 76, 53
1, 23938, Note_on_c, 0, 57, 36
1, 23986, Note_on_c, 0, 74, 62
1, 23993, Note_off_c, 0, 76, 48
1, 24000, Note_off_c, 0, 57, 52
1, 24062, Note_on_c, 0, 73, 65
1, 24063, Note_off_c, 0, 74, 60
1, 24089, Note_on_c, 0, 52, 36
1, 24193, Control_c, 0, 64, 36
1, 24208, Control_c, 0, 64, 61
1, 24222, Control_c, 0, 64, 65
1, 24228, Note_on_c, 0, 57, 46
1, 24237, Control_c, 0, 64, 67
1, 24252, Control_c, 0, 64, 69
1, 24257, Note_off_c, 0, 52, 38
1, 24267, Control_c, 0, 64, 72
1, 24282, Control_c, 0, 64, 74
1, 24296, Control_c, 0, 64, 76
1, 24311, Control_c, 0, 64, 78
1, 24326, Control_c, 0, 64, 79
1, 24349, Control_c, 0, 64, 80
1, 24364, Control_c, 0, 64, 81
1, 24384, Note_on_c, 0, 61, 47
1, 24384, Note_off_c, 0, 57, 32
1, 24434, Note_off_c, 0, 73, 55
1, 24467, Control_c, 0, 64, 80
1, 24482, Control_c, 0, 64, 80
1, 24496, Note_off_c, 0, 61, 37
1, 24496, Control_c, 0, 64, 79
1, 24511, Control_c, 0, 64, 78
1, 24519, Note_on_c, 0, 57, 40
1, 24526, Control_c, 0, 64, 75
1, 24532, Note_on_c, 0, 74, 62
1, 24541, Control_c, 0, 64, 71
1, 24556, Control_c, 0, 64, 64
1, 24570, Control_c, 0, 64, 0
1, 24587, Note_on_c, 0, 73, 68
1, 24594, Note_off_c, 0, 74, 62
1, 24642, Note_off_c, 0, 73, 64
1, 24658, Note_off_c, 0, 57, 30
1, 24659, Note_on_c, 0, 71, 71
1, 24667, Note_on_c, 0, 52, 44
1, 24673, Note_on_c, 0, 56, 45
1, 24702, Note_off_c, 0, 71, 62
1, 24778, Note_off_c, 0, 52, 58
1, 24789, Note_off_c, 0, 56, 58
1, 24809, Note_on_c, 0, 73, 73
1, 24855, Note_off_c, 0, 73, 62
1, 24950, Note_on_c, 0, 74, 67
1, 24990, Note_off_c, 0, 74, 55
1, 25118, Note_on_c, 0, 75, 58
1, 25152, Note_off_c, 0, 75, 61
1, 25303, Note_on_c, 0, 75, 46
1, 25325, Note_on_c, 0, 57, 31
1, 25454, Note_on_c, 0, 76, 61
1, 25464, Note_off_c, 0, 75, 60
1, 25481, Note_off_c, 0, 76, 64
1, 25483, Note_on_c, 0, 61, 45
1, 25546, Note_off_c, 0, 57, 40
1, 25582, Note_off_c, 0, 61, 32
1, 25607, Note_on_c, 0, 59, 47
1, 25642, Note_on_c, 0, 76, 55
1, 25665, Note_off_c, 0, 76, 61
1, 25680, Note_on_c, 0, 78, 63
1, 25711, Note_off_c, 0, 59, 48
1, 25721, Note_off_c, 0, 78, 64
1, 25733, Note_on_c, 0, 76, 76
1, 25754, Note_on_c, 0, 62, 40
1, 25754, Note_off_c, 0, 76, 69
1, 25773, Note_on_c, 0, 75, 63
1, 25810, Note_off_c, 0, 75, 61
1, 25824, Note_on_c, 0, 76, 69
1, 25837, Note_off_c, 0, 62, 43
1, 25890, Note_off_c, 0, 76, 62
1, 25893, Note_on_c, 0, 81, 75
1, 25897, Note_on_c, 0, 61, 47
1, 25919, Note_off_c, 0, 81, 62
1, 25945, Note_off_c, 0, 61, 54
1, 26032, Note_on_c, 0, 80, 77
1, 26045, Note_on_c, 0, 64, 42
1, 26078, Note_off_c, 0, 80, 63
1, 26139, Note_off_c, 0, 64, 45
1, 26173, Note_on_c, 0, 78, 75
1, 26192, Note_on_c, 0, 57, 37
1, 26221, Note_off_c, 0, 78, 62
1, 26307, Note_on_c, 0, 76, 70
1, 26319, Note_on_c, 0, 61, 43
1, 26345, Note_off_c, 0, 76, 55
1, 26382, Note_off_c, 0, 57, 44
1, 26385, Note_off_c, 0, 61, 48
1, 26449, Note_on_c, 0, 73, 64
1, 26464, Note_on_c, 0, 59, 40
1, 26560, Note_off_c, 0, 73, 61
1, 26568, Note_off_c, 0, 59, 52
1, 26602, Note_on_c, 0, 74, 62
1, 26618, Note_on_c, 0, 66, 47
1, 26650, Note_off_c, 0, 74, 59
1, 26714, Note_off_c, 0, 66, 38
1, 26750, Note_on_c, 0, 62, 48
1, 26773, Note_on_c, 0, 74, 68
1, 26805, Note_off_c, 0, 74, 65
1, 26831, Note_on_c, 0, 76, 50
1, 26859, Note_off_c, 0, 62, 36
1, 26871, Note_off_c, 0, 76, 64
1, 26903, Note_on_c, 0, 73, 76
1, 26904, Note_on_c, 0, 74, 31
1, 26905, Note_on_c, 0, 59, 48
1, 26922, Note_off_c, 0, 74, 36
1, 26947, Poly_aftertouch_c, 0, 74, 0
1, 26948, Note_off_c, 0, 73, 61
1, 26963, Note_on_c, 0, 74, 58
1, 26985, Note_off_c, 0, 59, 46
1, 27037, Note_on_c, 0, 56, 56
1, 27040, Note_on_c, 0, 76, 79
1, 27040, Note_off_c, 0, 74, 65
1, 27067, Note_off_c, 0, 76, 61
1, 27122, Note_off_c, 0, 56, 54
1, 27182, Note_on_c, 0, 74, 74
1, 27189, Note_on_c, 0, 59, 54
1, 27228, Note_off_c, 0, 74, 63
1, 27300, Note_off_c, 0, 59, 38
1, 27321, Note_on_c, 0, 73, 84
1, 27330, Note_on_c, 0, 52, 48
1, 27364, Note_off_c, 0, 73, 64
1, 27435, Note_off_c, 0, 52, 40
1, 27478, Note_on_c, 0, 71, 76
1, 27481, Note_on_c, 0, 56, 51
1, 27512, Note_off_c, 0, 71, 58
1, 27568, Note_off_c, 0, 56, 40
1, 27631, Note_on_c, 0, 73, 65
1, 27646, Note_on_c, 0, 57, 40
1, 27873, Note_off_c, 0, 73, 54
1, 27879, Note_on_c, 0, 76, 58
1, 27945, Note_off_c, 0, 76, 59
1, 27948, Note_off_c, 0, 57, 36
1, 27953, Note_on_c, 0, 66, 62
1, 27964, Note_on_c, 0, 50, 43
1, 27965, Note_on_c, 0, 62, 38
1, 28110, Note_off_c, 0, 62, 57
1, 28164, Note_off_c, 0, 66, 61
1, 28190, Note_on_c, 0, 71, 55
1, 28253, Note_off_c, 0, 50, 58
1, 28271, Note_off_c, 0, 71, 62
1, 28287, Note_on_c, 0, 69, 59
1, 28304, Note_on_c, 0, 61, 43
1, 28308, Note_on_c, 0, 52, 37
1, 28459, Note_off_c, 0, 61, 47
1, 28476, Note_off_c, 0, 69, 58
1, 28491, Note_on_c, 0, 68, 52
1, 28509, Poly_aftertouch_c, 0, 69, 0
1, 28514, Note_off_c, 0, 68, 59
1, 28524, Note_on_c, 0, 69, 50
1, 28561, Note_off_c, 0, 69, 65
1, 28577, Note_on_c, 0, 68, 70
1, 28593, Note_off_c, 0, 52, 41
1, 28607, Note_off_c, 0, 68, 62
1, 28608, Note_on_c, 0, 59, 43
1, 28622, Note_on_c, 0, 69, 65
1, 28664, Note_off_c, 0, 69, 65
1, 28667, Note_on_c, 0, 68, 63
1, 28719, Note_off_c, 0, 68, 63
1, 28747, Note_on_c, 0, 66, 59
1, 28775, Control_c, 0, 67, 121
1, 28781, Note_off_c, 0, 66, 64
1, 28789, Control_c, 0, 67, 103
1, 28804, Control_c, 0, 67, 80
1, 28805, Note_on_c, 0, 68, 62
1, 28819, Control_c, 0, 67, 49
1, 28830, Note_off_c, 0, 68, 65
1, 28833, Note_off_c, 0, 59, 45
1, 28834, Control_c, 0, 67, 0
1, 28885, Note_on_c, 0, 57, 74
1, 28890, Note_on_c, 0, 69, 74
1, 28940, Note_off_c, 0, 69, 55
1, 28959, Note_on_c, 0, 76, 74
1, 29021, Note_off_c, 0, 76, 63
1, 29035, Note_on_c, 0, 75, 72
1, 29053, Note_off_c, 0, 57, 64
1, 29088, Note_off_c, 0, 75, 61
1, 29093, Note_on_c, 0, 76, 73
1, 29150, Note_off_c, 0, 76, 61
1, 29166, Note_on_c, 0, 78, 68
1, 29232, Note_on_c, 0, 76, 71
1, 29243, Note_off_c, 0, 78, 57
1, 29299, Note_off_c, 0, 76, 62
1, 29306, Note_on_c, 0, 69, 73
1, 29318, Note_on_c, 0, 75, 66
1, 29329, Note_off_c, 0, 69, 70
1, 29360, Note_off_c, 0, 75, 61
1, 29374, Note_on_c, 0, 76, 64
1, 29440, Note_off_c, 0, 76, 61
1, 29451, Note_on_c, 0, 71, 78
1, 29458, Note_on_c, 0, 74, 74
1, 29473, Note_off_c, 0, 71, 67
1, 29496, Note_off_c, 0, 74, 64
1, 29516, Note_on_c, 0, 76, 61
1, 29582, Note_off_c, 0, 76, 60
1, 29601, Note_on_c, 0, 69, 73
1, 29607, Note_on_c, 0, 74, 78
1, 29625, Note_off_c, 0, 69, 65
1, 29646, Note_off_c, 0, 74, 63
1, 29669, Note_on_c, 0, 76, 65
1, 29721, Note_off_c, 0, 76, 62
1, 29741, Note_on_c, 0, 74, 76
1, 29741, Note_on_c, 0, 68, 72
1, 29779, Note_off_c, 0, 68, 60
1, 29783, Note_off_c, 0, 74, 63
1, 29800, Note_on_c, 0, 76, 70
1, 29860, Note_off_c, 0, 76, 60
1, 29879, Note_on_c, 0, 64, 64
1, 29894, Note_on_c, 0, 74, 63
1, 29911, Note_off_c, 0, 64, 64
1, 29920, Note_off_c, 0, 74, 66
1, 29940, Note_on_c, 0, 76, 60
1, 30010, Note_off_c, 0, 76, 60
1, 30025, Note_on_c, 0, 69, 59
1, 30038, Note_on_c, 0, 73, 69
1, 30081, Note_off_c, 0, 73, 61
1, 30097, Note_on_c, 0, 76, 61
1, 30172, Note_off_c, 0, 69, 64
1, 30172, Note_off_c, 0, 76, 62
1, 30179, Note_on_c, 0, 75, 72
1, 30236, Note_on_c, 0, 76, 69
1, 30237, Note_off_c, 0, 75, 62
1, 30305, Note_off_c, 0, 76, 62
1, 30313, Note_on_c, 0, 78, 73
1, 30386, Note_on_c, 0, 76, 62
1, 30409, Note_off_c, 0, 78, 56
1, 30453, Note_on_c, 0, 57, 73
1, 30457, Note_off_c, 0, 76, 62
1, 30464, Note_on_c, 0, 75, 69
1, 30482, Note_off_c, 0, 57, 63
1, 30521, Note_off_c, 0, 75, 59
1, 30522, Note_on_c, 0, 76, 66
1, 30587, Note_off_c, 0, 76, 63
1, 30597, Note_on_c, 0, 74, 79
1, 30599, Note_on_c, 0, 59, 69
1, 30626, Note_off_c, 0, 59, 62
1, 30643, Note_off_c, 0, 74, 62
1, 30661, Note_on_c, 0, 76, 74
1, 30722, Note_off_c, 0, 76, 61
1, 30739, Note_on_c, 0, 74, 82
1, 30743, Note_on_c, 0, 57, 67
1, 30770, Note_off_c, 0, 57, 66
1, 30781, Note_off_c, 0, 74, 63
1, 30799, Note_on_c, 0, 76, 71
1, 30861, Note_off_c, 0, 76, 62
1, 30872, Note_on_c, 0, 56, 65
1, 30880, Note_on_c, 0, 74, 78
1, 30907, Note_off_c, 0, 56, 64
1, 30919, Note_off_c, 0, 74, 64
1, 30939, Note_on_c, 0, 76, 71
1, 31002, Note_off_c, 0, 76, 61
1, 31010, Note_on_c, 0, 52, 67
1, 31020, Note_on_c, 0, 74, 73
1, 31040, Note_off_c, 0, 52, 63
1, 31049, Note_off_c, 0, 74, 63
1, 31075, Note_on_c, 0, 76, 63
1, 31151, Note_off_c, 0, 76, 61
1, 31175, Note_on_c, 0, 57, 59
1, 31184, Note_on_c, 0, 73, 67
1, 31209, Note_off_c, 0, 57, 62
1, 31247, Note_on_c, 0, 64, 58
1, 31285, Note_off_c, 0, 64, 65
1, 31306, Note_on_c, 0, 63, 63
1, 31339, Note_off_c, 0, 73, 59
1, 31341, Note_off_c, 0, 63, 62
1, 31384, Note_on_c, 0, 64, 64
1, 31418, Note_off_c, 0, 64, 61
1, 31451, Note_on_c, 0, 66, 58
1, 31473, Note_off_c, 0, 66, 64
1, 31517, Note_on_c, 0, 64, 60
1, 31553, Note_off_c, 0, 64, 62
1, 31590, Note_on_c, 0, 81, 81
1, 31592, Note_on_c, 0, 63, 55
1, 31617, Note_off_c, 0, 81, 58
1, 31619, Note_off_c, 0, 63, 63
1, 31661, Note_on_c, 0, 64, 50
1, 31700, Note_off_c, 0, 64, 51
1, 31724, Note_on_c, 0, 83, 92
1, 31729, Note_on_c, 0, 62, 63
1, 31759, Note_off_c, 0, 62, 64
1, 31762, Note_off_c, 0, 83, 66
1, 31792, Note_on_c, 0, 64, 58
1, 31846, Note_off_c, 0, 64, 56
1, 31867, Note_on_c, 0, 62, 56
1, 31875, Note_on_c, 0, 81, 89
1, 31903, Note_off_c, 0, 62, 63
1, 31909, Note_off_c, 0, 81, 65
1, 31944, Note_on_c, 0, 64, 53
1, 31988, Note_off_c, 0, 64, 63
1, 32002, Note_on_c, 0, 62, 61
1, 32016, Note_on_c, 0, 80, 87
1, 32036, Note_off_c, 0, 62, 61
1, 32057, Note_off_c, 0, 80, 64
1, 32086, Note_on_c, 0, 64, 52
1, 32128, Note_off_c, 0, 64, 64
1, 32147, Note_on_c, 0, 62, 56
1, 32157, Note_on_c, 0, 76, 78
1, 32183, Note_off_c, 0, 62, 63
1, 32203, Note_off_c, 0, 76, 60
1, 32222, Note_on_c, 0, 64, 56
1, 32266, Note_off_c, 0, 64, 60
1, 32303, Note_on_c, 0, 81, 74
1, 32307, Note_on_c, 0, 61, 61
1, 32345, Note_off_c, 0, 61, 63
1, 32377, Note_on_c, 0, 64, 63
1, 32418, Note_off_c, 0, 64, 62
1, 32445, Note_off_c, 0, 81, 63
1, 32448, Note_on_c, 0, 63, 59
1, 32484, Note_off_c, 0, 63, 63
1, 32516, Note_on_c, 0, 64, 66
1, 32571, Note_off_c, 0, 64, 47
1, 32600, Note_on_c, 0, 66, 64
1, 32630, Note_off_c, 0, 66, 66
1, 32668, Note_on_c, 0, 64, 51
1, 32710, Note_off_c, 0, 64, 58
1, 32725, Note_on_c, 0, 63, 65
1, 32736, Note_on_c, 0, 45, 89
1, 32759, Note_off_c, 0, 63, 63
1, 32764, Note_off_c, 0, 45, 67
1, 32797, Note_on_c, 0, 64, 62
1, 32841, Note_off_c, 0, 64, 53
1, 32874, Note_on_c, 0, 62, 68
1, 32880, Note_on_c, 0, 47, 89
1, 32909, Note_off_c, 0, 62, 64
1, 32922, Note_off_c, 0, 47, 64
1, 32940, Note_on_c, 0, 64, 57
1, 32999, Note_off_c, 0, 64, 52
1, 33023, Note_on_c, 0, 62, 62
1, 33023, Note_on_c, 0, 45, 85
1, 33054, Note_off_c, 0, 62, 63
1, 33062, Note_off_c, 0, 45, 63
1, 33095, Note_on_c, 0, 64, 61
1, 33145, Note_off_c, 0, 64, 53
1, 33169, Note_on_c, 0, 44, 76
1, 33171, Note_on_c, 0, 62, 56
1, 33211, Note_off_c, 0, 62, 61
1, 33221, Note_off_c, 0, 44, 61
1, 33240, Note_on_c, 0, 64, 52
1, 33282, Note_off_c, 0, 64, 62
1, 33309, Note_on_c, 0, 62, 57
1, 33320, Note_on_c, 0, 40, 64
1, 33354, Note_off_c, 0, 62, 61
1, 33364, Note_off_c, 0, 40, 62
1, 33381, Note_on_c, 0, 64, 46
1, 33423, Note_off_c, 0, 64, 57
1, 33497, Control_c, 0, 64, 52
1, 33509, Note_on_c, 0, 61, 49
1, 33511, Note_on_c, 0, 45, 62
1, 33511, Control_c, 0, 64, 65
1, 33526, Control_c, 0, 64, 68
1, 33541, Control_c, 0, 64, 71
1, 33541, Control_c, 0, 67, 27
1, 33548, Note_off_c, 0, 45, 64
1, 33556, Control_c, 0, 64, 74
1, 33556, Control_c, 0, 67, 71
1, 33571, Control_c, 0, 64, 76
1, 33571, Control_c, 0, 67, 121
1, 33585, Control_c, 0, 64, 78
1, 33585, Control_c, 0, 67, 127
1, 33600, Control_c, 0, 64, 79
1, 33676, Control_c, 0, 64, 78
1, 33690, Control_c, 0, 64, 78
1, 33705, Control_c, 0, 64, 77
1, 33720, Control_c, 0, 64, 76
1, 33734, Control_c, 0, 64, 75
1, 33749, Control_c, 0, 64, 74
1, 33764, Control_c, 0, 64, 72
1, 33779, Control_c, 0, 64, 71
1, 33794, Control_c, 0, 64, 69
1, 33808, Control_c, 0, 64, 68
1, 33817, Note_off_c, 0, 61, 52
1, 33823, Control_c, 0, 64, 66
1, 33838, Control_c, 0, 64, 63
1, 33853, Control_c, 0, 64, 54
1, 33868, Control_c, 0, 64, 31
1, 33882, Control_c, 0, 64, 0
1, 33951, Note_on_c, 0, 76, 55
1, 33984, Note_on_c, 0, 61, 37
1, 34021, Note_off_c, 0, 61, 58
1, 34052, Note_on_c, 0, 69, 52
1, 34114, Note_off_c, 0, 69, 57
1, 34123, Note_on_c, 0, 61, 58
1, 34167, Note_off_c, 0, 61, 60
1, 34207, Note_on_c, 0, 69, 49
1, 34253, Note_off_c, 0, 69, 61
1, 34255, Note_on_c, 0, 74, 78
1, 34276, Note_on_c, 0, 59, 54
1, 34315, Note_off_c, 0, 59, 61
1, 34342, Note_off_c, 0, 76, 57
1, 34348, Note_on_c, 0, 69, 55
1, 34394, Note_off_c, 0, 69, 58
1, 34415, Note_on_c, 0, 59, 60
1, 34450, Note_off_c, 0, 59, 62
1, 34476, Note_on_c, 0, 69, 57
1, 34531, Note_off_c, 0, 69, 55
1, 34556, Note_on_c, 0, 57, 63
1, 34561, Note_on_c, 0, 73, 87
1, 34576, Note_off_c, 0, 74, 64
1, 34602, Control_c, 0, 64, 48
1, 34616, Note_off_c, 0, 57, 56
1, 34617, Control_c, 0, 64, 64
1, 34624, Note_on_c, 0, 69, 63
1, 34631, Control_c, 0, 64, 66
1, 34646, Control_c, 0, 64, 69
1, 34661, Control_c, 0, 64, 71
1, 34668, Note_off_c, 0, 73, 63
1, 34676, Control_c, 0, 64, 73
1, 34685, Note_off_c, 0, 69, 61
1, 34691, Control_c, 0, 64, 75
1, 34704, Note_on_c, 0, 57, 68
1, 34705, Control_c, 0, 64, 76
1, 34734, Note_off_c, 0, 57, 64
1, 34749, Control_c, 0, 64, 75
1, 34764, Control_c, 0, 64, 74
1, 34776, Note_on_c, 0, 69, 63
1, 34779, Control_c, 0, 64, 72
1, 34794, Control_c, 0, 64, 68
1, 34809, Control_c, 0, 64, 61
1, 34831, Control_c, 0, 64, 0
1, 34834, Note_off_c, 0, 69, 51
1, 34862, Note_on_c, 0, 62, 62
1, 34870, Note_on_c, 0, 78, 75
1, 34893, Note_off_c, 0, 78, 67
1, 34898, Note_off_c, 0, 62, 58
1, 34950, Note_on_c, 0, 69, 47
1, 34990, Note_off_c, 0, 69, 51
1, 35015, Note_on_c, 0, 80, 71
1, 35017, Note_on_c, 0, 68, 47
1, 35053, Note_on_c, 0, 78, 71
1, 35053, Note_off_c, 0, 68, 62
1, 35066, Note_off_c, 0, 80, 62
1, 35077, Note_on_c, 0, 69, 60
1, 35089, Note_off_c, 0, 78, 64
1, 35102, Note_on_c, 0, 76, 70
1, 35122, Note_off_c, 0, 69, 60
1, 35147, Note_on_c, 0, 78, 82
1, 35151, Note_off_c, 0, 76, 62
1, 35167, Note_on_c, 0, 62, 48
1, 35182, Note_off_c, 0, 78, 65
1, 35194, Note_off_c, 0, 62, 57
1, 35232, Note_on_c, 0, 69, 49
1, 35269, Note_off_c, 0, 69, 53
1, 35298, Note_on_c, 0, 80, 81
1, 35299, Note_on_c, 0, 68, 49
1, 35327, Note_off_c, 0, 68, 56
1, 35342, Note_off_c, 0, 80, 63
1, 35363, Note_on_c, 0, 69, 47
1, 35412, Note_off_c, 0, 69, 57
1, 35456, Note_on_c, 0, 83, 70
1, 35469, Note_on_c, 0, 62, 39
1, 35514, Note_off_c, 0, 62, 48
1, 35532, Note_on_c, 0, 69, 51
1, 35591, Note_off_c, 0, 69, 56
1, 35611, Note_on_c, 0, 81, 73
1, 35617, Note_off_c, 0, 83, 63
1, 35619, Note_on_c, 0, 68, 42
1, 35648, Note_off_c, 0, 68, 57
1, 35649, Note_off_c, 0, 81, 62
1, 35709, Note_on_c, 0, 69, 41
1, 35741, Note_off_c, 0, 69, 55
1, 35764, Note_on_c, 0, 80, 66
1, 35774, Note_on_c, 0, 62, 51
1, 35830, Note_off_c, 0, 62, 51
1, 35834, Note_on_c, 0, 69, 46
1, 35897, Note_off_c, 0, 69, 58
1, 35901, Note_off_c, 0, 80, 53
1, 35910, Note_on_c, 0, 78, 71
1, 35913, Note_on_c, 0, 68, 47
1, 35947, Note_off_c, 0, 78, 63
1, 35956, Note_off_c, 0, 68, 59
1, 36001, Note_on_c, 0, 69, 39
1, 36037, Note_off_c, 0, 69, 55
1, 36070, Note_on_c, 0, 76, 68
1, 36075, Note_on_c, 0, 61, 48
1, 36096, Note_off_c, 0, 76, 67
1, 36129, Control_c, 0, 67, 90
1, 36137, Note_on_c, 0, 69, 48
1, 36144, Control_c, 0, 67, 17
1, 36147, Note_off_c, 0, 61, 51
1, 36159, Control_c, 0, 67, 0
1, 36201, Note_off_c, 0, 69, 59
1, 36221, Note_on_c, 0, 68, 50
1, 36260, Note_off_c, 0, 68, 61
1, 36299, Note_on_c, 0, 69, 51
1, 36362, Note_off_c, 0, 69, 56
1, 36392, Note_on_c, 0, 76, 76
1, 36396, Note_on_c, 0, 61, 58
1, 36439, Note_off_c, 0, 61, 60
1, 36472, Note_on_c, 0, 69, 59
1, 36525, Note_off_c, 0, 69, 56
1, 36544, Note_on_c, 0, 61, 62
1, 36599, Note_off_c, 0, 61, 58
1, 36618, Note_on_c, 0, 69, 60
1, 36674, Note_off_c, 0, 69, 58
1, 36692, Note_on_c, 0, 74, 83
1, 36701, Note_on_c, 0, 59, 65
1, 36751, Note_off_c, 0, 59, 57
1, 36761, Note_on_c, 0, 69, 65
1, 36770, Note_off_c, 0, 76, 57
1, 36829, Note_off_c, 0, 69, 60
1, 36851, Note_on_c, 0, 59, 67
1, 36896, Note_off_c, 0, 59, 56
1, 36910, Note_on_c, 0, 69, 61
1, 36976, Note_off_c, 0, 69, 60
1, 36997, Note_on_c, 0, 57, 70
1, 36997, Note_on_c, 0, 73, 87
1, 37021, Note_off_c, 0, 74, 62
1, 37044, Note_off_c, 0, 57, 57
1, 37056, Control_c, 0, 64, 32
1, 37059, Note_on_c, 0, 69, 68
1, 37071, Control_c, 0, 64, 58
1, 37093, Control_c, 0, 64, 66
1, 37107, Control_c, 0, 64, 70
1, 37122, Control_c, 0, 64, 73
1, 37125, Note_off_c, 0, 69, 60
1, 37137, Control_c, 0, 64, 76
1, 37140, Note_on_c, 0, 57, 64
1, 37152, Control_c, 0, 64, 80
1, 37167, Control_c, 0, 64, 84
1, 37179, Note_off_c, 0, 57, 59
1, 37181, Control_c, 0, 64, 90
1, 37196, Control_c, 0, 64, 100
1, 37211, Control_c, 0, 64, 127
1, 37212, Note_on_c, 0, 69, 67
1, 37234, Note_off_c, 0, 69, 70
1, 37271, Control_c, 0, 64, 111
1, 37286, Control_c, 0, 64, 72
1, 37301, Control_c, 0, 64, 0
1, 37313, Note_on_c, 0, 50, 79
1, 37314, Note_on_c, 0, 71, 80
1, 37323, Note_off_c, 0, 73, 61
1, 37349, Note_off_c, 0, 50, 61
1, 37400, Note_on_c, 0, 59, 66
1, 37444, Note_off_c, 0, 59, 59
1, 37450, Note_on_c, 0, 54, 59
1, 37492, Note_off_c, 0, 54, 66
1, 37515, Note_off_c, 0, 71, 59
1, 37542, Note_on_c, 0, 59, 50
1, 37548, Note_on_c, 0, 78, 76
1, 37578, Note_off_c, 0, 59, 63
1, 37614, Note_on_c, 0, 50, 60
1, 37617, Note_on_c, 0, 76, 79
1, 37656, Note_off_c, 0, 78, 61
1, 37664, Note_off_c, 0, 50, 61
1, 37678, Note_on_c, 0, 59, 59
1, 37679, Note_off_c, 0, 76, 63
1, 37688, Note_on_c, 0, 74, 76
1, 37742, Note_off_c, 0, 74, 63
1, 37743, Note_off_c, 0, 59, 59
1, 37761, Note_on_c, 0, 73, 75
1, 37769, Note_on_c, 0, 54, 49
1, 37796, Note_off_c, 0, 54, 64
1, 37836, Note_on_c, 0, 71, 75
1, 37838, Note_on_c, 0, 59, 54
1, 37838, Note_off_c, 0, 73, 63
1, 37869, Note_off_c, 0, 59, 64
1, 37885, Note_off_c, 0, 71, 63
1, 37910, Note_on_c, 0, 69, 75
1, 37923, Note_on_c, 0, 52, 69
1, 37960, Control_c, 0, 64, 52
1, 37962, Note_off_c, 0, 52, 63
1, 37975, Control_c, 0, 64, 61
1, 37989, Note_on_c, 0, 61, 67
1, 37989, Control_c, 0, 64, 64
1, 38004, Control_c, 0, 64, 66
1, 38019, Control_c, 0, 64, 68
1, 38034, Control_c, 0, 64, 70
1, 38040, Note_off_c, 0, 61, 57
1, 38049, Control_c, 0, 64, 71
1, 38064, Control_c, 0, 64, 71
1, 38067, Note_on_c, 0, 57, 61
1, 38079, Control_c, 0, 64, 72
1, 38094, Control_c, 0, 64, 75
1, 38100, Note_off_c, 0, 57, 63
1, 38108, Control_c, 0, 64, 82
1, 38123, Control_c, 0, 64, 93
1, 38123, Note_on_c, 0, 61, 61
1, 38138, Note_off_c, 0, 69, 59
1, 38138, Control_c, 0, 64, 108
1, 38153, Control_c, 0, 64, 118
1, 38162, Note_off_c, 0, 61, 57
1, 38168, Control_c, 0, 64, 117
1, 38182, Control_c, 0, 64, 97
1, 38185, Note_on_c, 0, 73, 65
1, 38194, Note_on_c, 0, 52, 73
1, 38197, Control_c, 0, 64, 72
1, 38212, Control_c, 0, 64, 0
1, 38215, Note_off_c, 0, 73, 66
1, 38236, Note_on_c, 0, 71, 75
1, 38240, Note_off_c, 0, 52, 54
1, 38264, Note_off_c, 0, 71, 63
1, 38271, Note_on_c, 0, 73, 81
1, 38281, Note_on_c, 0, 62, 44
1, 38308, Note_off_c, 0, 62, 58
1, 38311, Note_on_c, 0, 56, 56
1, 38319, Note_off_c, 0, 73, 63
1, 38323, Note_on_c, 0, 71, 67
1, 38338, Note_off_c, 0, 56, 60
1, 38354, Note_off_c, 0, 71, 62
1, 38365, Note_on_c, 0, 69, 71
1, 38371, Note_on_c, 0, 62, 52
1, 38409, Note_off_c, 0, 62, 59
1, 38413, Note_off_c, 0, 69, 64
1, 38419, Note_on_c, 0, 71, 66
1, 38446, Note_off_c, 0, 71, 66
1, 38465, Control_c, 0, 67, 9
1, 38479, Control_c, 0, 67, 53
1, 38480, Note_on_c, 0, 69, 64
1, 38494, Control_c, 0, 67, 106
1, 38503, Note_on_c, 0, 57, 49
1, 38509, Control_c, 0, 67, 127
1, 38557, Note_off_c, 0, 69, 62
1, 38562, Note_off_c, 0, 57, 54
1, 38591, Note_on_c, 0, 64, 45
1, 38632, Note_off_c, 0, 64, 64
1, 38658, Note_on_c, 0, 61, 59
1, 38699, Note_off_c, 0, 61, 60
1, 38735, Note_on_c, 0, 64, 47
1, 38770, Note_off_c, 0, 64, 52
1, 38834, Note_on_c, 0, 61, 51
1, 38847, Note_on_c, 0, 76, 64
1, 38881, Note_off_c, 0, 61, 58
1, 38928, Note_on_c, 0, 69, 50
1, 38974, Note_off_c, 0, 69, 60
1, 38993, Note_on_c, 0, 61, 55
1, 39036, Note_off_c, 0, 61, 59
1, 39089, Note_on_c, 0, 69, 51
1, 39125, Note_off_c, 0, 69, 54
1, 39140, Note_on_c, 0, 74, 77
1, 39162, Note_on_c, 0, 59, 54
1, 39196, Note_off_c, 0, 59, 63
1, 39218, Note_on_c, 0, 69, 57
1, 39230, Note_off_c, 0, 76, 58
1, 39289, Note_off_c, 0, 69, 61
1, 39293, Note_on_c, 0, 59, 60
1, 39341, Note_off_c, 0, 59, 61
1, 39375, Note_on_c, 0, 69, 49
1, 39426, Note_off_c, 0, 69, 58
1, 39459, Note_on_c, 0, 57, 62
1, 39467, Note_on_c, 0, 73, 77
1, 39471, Note_off_c, 0, 74, 65
1, 39507, Note_off_c, 0, 57, 56
1, 39517, Control_c, 0, 64, 49
1, 39521, Note_on_c, 0, 69, 60
1, 39532, Control_c, 0, 64, 63
1, 39546, Control_c, 0, 64, 65
1, 39561, Control_c, 0, 64, 67
1, 39572, Note_off_c, 0, 73, 63
1, 39576, Control_c, 0, 64, 68
1, 39590, Note_off_c, 0, 69, 61
1, 39613, Note_on_c, 0, 57, 62
1, 39641, Note_off_c, 0, 57, 66
1, 39650, Control_c, 0, 64, 67
1, 39692, Note_on_c, 0, 69, 56
1, 39695, Control_c, 0, 64, 67
1, 39709, Control_c, 0, 64, 66
1, 39724, Control_c, 0, 64, 64
1, 39739, Note_off_c, 0, 69, 54
1, 39739, Control_c, 0, 64, 53
1, 39754, Control_c, 0, 64, 0
1, 39778, Note_on_c, 0, 78, 67
1, 39780, Note_on_c, 0, 62, 56
1, 39802, Note_off_c, 0, 78, 70
1, 39817, Note_off_c, 0, 62, 61
1, 39855, Note_on_c, 0, 69, 49
1, 39895, Note_off_c, 0, 69, 62
1, 39927, Note_on_c, 0, 80, 69
1, 39929, Note_on_c, 0, 68, 50
1, 39959, Note_on_c, 0, 78, 70
1, 39966, Note_off_c, 0, 68, 61
1, 39976, Note_off_c, 0, 80, 63
1, 39992, Note_on_c, 0, 69, 58
1, 39997, Note_off_c, 0, 78, 64
1, 40012, Note_on_c, 0, 76, 73
1, 40043, Note_off_c, 0, 69, 57
1, 40062, Note_off_c, 0, 76, 60
1, 40064, Note_on_c, 0, 78, 78
1, 40086, Note_on_c, 0, 62, 57
1, 40094, Note_off_c, 0, 78, 66
1, 40122, Note_off_c, 0, 62, 63
1, 40164, Note_on_c, 0, 69, 50
1, 40195, Note_off_c, 0, 69, 56
1, 40219, Note_on_c, 0, 80, 79
1, 40226, Note_on_c, 0, 68, 47
1, 40256, Note_off_c, 0, 68, 55
1, 40259, Note_off_c, 0, 80, 62
1, 40289, Note_on_c, 0, 69, 46
1, 40356, Note_off_c, 0, 69, 55
1, 40374, Note_on_c, 0, 83, 80
1, 40399, Note_on_c, 0, 62, 49
1, 40439, Note_off_c, 0, 62, 61
1, 40468, Note_on_c, 0, 69, 52
1, 40507, Note_off_c, 0, 69, 59
1, 40526, Note_off_c, 0, 83, 64
1, 40527, Note_on_c, 0, 81, 70
1, 40538, Note_on_c, 0, 68, 49
1, 40553, Note_off_c, 0, 81, 62
1, 40569, Note_off_c, 0, 68, 61
1, 40604, Note_on_c, 0, 69, 48
1, 40657, Note_off_c, 0, 69, 56
1, 40690, Note_on_c, 0, 80, 65
1, 40696, Note_on_c, 0, 62, 49
1, 40752, Note_off_c, 0, 62, 53
1, 40770, Note_on_c, 0, 69, 53
1, 40829, Note_off_c, 0, 69, 54
1, 40838, Note_off_c, 0, 80, 59
1, 40846, Note_on_c, 0, 78, 63
1, 40856, Note_on_c, 0, 68, 47
1, 40875, Note_off_c, 0, 78, 66
1, 40894, Note_off_c, 0, 68, 61
1, 40942, Note_on_c, 0, 69, 41
1, 40978, Note_off_c, 0, 69, 53
1, 41006, Note_on_c, 0, 76, 64
1, 41020, Note_on_c, 0, 61, 47
1, 41034, Note_off_c, 0, 76, 65
1, 41074, Note_off_c, 0, 61, 54
1, 41075, Note_on_c, 0, 69, 53
1, 41075, Control_c, 0, 67, 100
1, 41089, Control_c, 0, 67, 27
1, 41104, Control_c, 0, 67, 0
1, 41139, Note_off_c, 0, 69, 60
1, 41161, Note_on_c, 0, 68, 52
1, 41195, Note_off_c, 0, 68, 61
1, 41235, Note_on_c, 0, 69, 50
1, 41290, Note_off_c, 0, 69, 56
1, 41322, Note_on_c, 0, 76, 84
1, 41328, Note_on_c, 0, 61, 56
1, 41367, Note_off_c, 0, 61, 62
1, 41396, Note_on_c, 0, 69, 63
1, 41455, Note_off_c, 0, 69, 59
1, 41467, Note_on_c, 0, 61, 57
1, 41517, Note_off_c, 0, 61, 58
1, 41547, Note_on_c, 0, 69, 55
1, 41606, Note_off_c, 0, 69, 57
1, 41637, Note_on_c, 0, 74, 85
1, 41640, Note_on_c, 0, 59, 66
1, 41692, Note_off_c, 0, 59, 58
1, 41707, Note_off_c, 0, 76, 57
1, 41713, Note_on_c, 0, 69, 64
1, 41774, Note_off_c, 0, 69, 58
1, 41796, Note_on_c, 0, 59, 68
1, 41833, Note_off_c, 0, 59, 60
1, 41864, Note_on_c, 0, 69, 61
1, 41923, Note_off_c, 0, 69, 59
1, 41945, Note_on_c, 0, 73, 88
1, 41946, Note_on_c, 0, 57, 68
1, 41955, Note_off_c, 0, 74, 64
1, 41989, Note_off_c, 0, 57, 60
1, 42010, Note_on_c, 0, 69, 67
1, 42017, Control_c, 0, 64, 47
1, 42031, Control_c, 0, 64, 59
1, 42046, Control_c, 0, 64, 64
1, 42061, Control_c, 0, 64, 67
1, 42066, Note_off_c, 0, 69, 57
1, 42076, Control_c, 0, 64, 69
1, 42089, Note_on_c, 0, 57, 65
1, 42090, Control_c, 0, 64, 71
1, 42105, Control_c, 0, 64, 73
1, 42120, Control_c, 0, 64, 74
1, 42129, Note_off_c, 0, 57, 61
1, 42135, Control_c, 0, 64, 75
1, 42149, Control_c, 0, 64, 75
1, 42165, Note_on_c, 0, 69, 64
1, 42181, Note_off_c, 0, 69, 68
1, 42209, Control_c, 0, 64, 76
1, 42253, Control_c, 0, 64, 73
1, 42267, Note_on_c, 0, 71, 80
1, 42267, Control_c, 0, 64, 68
1, 42282, Note_on_c, 0, 50, 72
1, 42282, Control_c, 0, 64, 59
1, 42285, Note_off_c, 0, 73, 59
1, 42297, Control_c, 0, 64, 0
1, 42335, Note_off_c, 0, 50, 62
1, 42349, Control_c, 0, 64, 37
1, 42364, Control_c, 0, 64, 49
1, 42373, Note_on_c, 0, 59, 66
1, 42379, Control_c, 0, 64, 55
1, 42394, Control_c, 0, 64, 58
1, 42407, Control_c, 0, 64, 61
1, 42422, Note_off_c, 0, 59, 57
1, 42422, Control_c, 0, 64, 62
1, 42426, Note_on_c, 0, 54, 61
1, 42437, Control_c, 0, 64, 62
1, 42452, Control_c, 0, 64, 61
1, 42467, Control_c, 0, 64, 57
1, 42471, Note_off_c, 0, 54, 64
1, 42482, Control_c, 0, 64, 40
1, 42489, Note_off_c, 0, 71, 61
1, 42497, Control_c, 0, 64, 0
1, 42517, Note_on_c, 0, 59, 55
1, 42518, Note_on_c, 0, 78, 69
1, 42556, Note_off_c, 0, 59, 62
1, 42583, Note_on_c, 0, 50, 62
1, 42593, Note_on_c, 0, 76, 78
1, 42617, Note_off_c, 0, 78, 52
1, 42630, Note_off_c, 0, 50, 60
1, 42651, Note_on_c, 0, 59, 57
1, 42653, Note_off_c, 0, 76, 63
1, 42663, Note_on_c, 0, 74, 76
1, 42714, Note_off_c, 0, 74, 61
1, 42716, Note_off_c, 0, 59, 58
1, 42731, Note_on_c, 0, 73, 75
1, 42738, Note_on_c, 0, 54, 47
1, 42767, Note_off_c, 0, 54, 65
1, 42795, Note_on_c, 0, 71, 74
1, 42795, Note_off_c, 0, 73, 62
1, 42812, Note_on_c, 0, 59, 44
1, 42839, Note_off_c, 0, 59, 56
1, 42842, Note_off_c, 0, 71, 63
1, 42869, Note_on_c, 0, 69, 78
1, 42880, Note_on_c, 0, 52, 68
1, 42896, Control_c, 0, 64, 47
1, 42911, Control_c, 0, 64, 60
1, 42926, Note_off_c, 0, 52, 59
1, 42926, Control_c, 0, 64, 65
1, 42941, Control_c, 0, 64, 67
1, 42949, Note_on_c, 0, 61, 64
1, 42956, Control_c, 0, 64, 69
1, 42970, Control_c, 0, 64, 70
1, 42985, Control_c, 0, 64, 71
1, 42992, Note_off_c, 0, 61, 58
1, 43000, Control_c, 0, 64, 72
1, 43020, Note_on_c, 0, 57, 57
1, 43054, Note_off_c, 0, 57, 62
1, 43067, Control_c, 0, 64, 72
1, 43082, Control_c, 0, 64, 73
1, 43089, Note_on_c, 0, 61, 64
1, 43096, Control_c, 0, 64, 76
1, 43103, Note_off_c, 0, 69, 61
1, 43111, Control_c, 0, 64, 78
1, 43119, Note_off_c, 0, 61, 61
1, 43126, Control_c, 0, 64, 79
1, 43145, Note_on_c, 0, 73, 67
1, 43156, Control_c, 0, 64, 78
1, 43161, Note_on_c, 0, 52, 67
1, 43170, Control_c, 0, 64, 72
1, 43177, Note_off_c, 0, 73, 64
1, 43185, Control_c, 0, 64, 64
1, 43200, Note_on_c, 0, 71, 67
1, 43200, Control_c, 0, 64, 0
1, 43230, Note_off_c, 0, 71, 66
1, 43242, Note_on_c, 0, 73, 76
1, 43242, Note_off_c, 0, 52, 55
1, 43251, Note_on_c, 0, 62, 16
1, 43263, Note_on_c, 0, 56, 61
1, 43292, Note_on_c, 0, 71, 61
1, 43294, Note_off_c, 0, 73, 62
1, 43298, Note_off_c, 0, 56, 63
1, 43313, Note_off_c, 0, 62, 0
1, 43329, Note_on_c, 0, 62, 37
1, 43333, Note_off_c, 0, 71, 62
1, 43347, Note_on_c, 0, 69, 72
1, 43380, Note_off_c, 0, 62, 59
1, 43389, Note_off_c, 0, 69, 62
1, 43424, Note_on_c, 0, 71, 71
1, 43466, Note_on_c, 0, 61, 62
1, 43471, Note_on_c, 0, 57, 59
1, 43473, Note_off_c, 0, 71, 65
1, 43474, Note_on_c, 0, 69, 83
1, 43519, Note_off_c, 0, 69, 64
1, 43552, Note_on_c, 0, 64, 73
1, 43614, Note_off_c, 0, 64, 61
1, 43618, Note_on_c, 0, 69, 79
1, 43649, Note_off_c, 0, 61, 60
1, 43662, Note_off_c, 0, 57, 62
1, 43683, Note_off_c, 0, 69, 61
1, 43695, Note_on_c, 0, 73, 80
1, 43765, Note_off_c, 0, 73, 64
1, 43775, Note_on_c, 0, 76, 82
1, 43849, Note_off_c, 0, 76, 62
1, 43854, Note_on_c, 0, 73, 75
1, 43919, Note_on_c, 0, 74, 81
1, 43919, Note_off_c, 0, 73, 64
1, 43924, Note_on_c, 0, 59, 73
1, 43924, Note_on_c, 0, 56, 70
1, 43930, Note_on_c, 0, 52, 61
1, 43963, Note_off_c, 0, 59, 60
1, 43971, Note_off_c, 0, 56, 61
1, 43972, Note_off_c, 0, 52, 62
1, 43993, Note_off_c, 0, 74, 60
1, 44005, Note_on_c, 0, 71, 78
1, 44024, Note_off_c, 0, 71, 73
1, 44079, Note_on_c, 0, 57, 76
1, 44084, Note_on_c, 0, 69, 91
1, 44088, Note_on_c, 0, 61, 72
1, 44133, Note_off_c, 0, 69, 65
1, 44159, Note_on_c, 0, 64, 76
1, 44234, Note_on_c, 0, 69, 78
1, 44238, Note_off_c, 0, 64, 61
1, 44306, Note_on_c, 0, 73, 81
1, 44315, Note_off_c, 0, 69, 62
1, 44321, Note_off_c, 0, 61, 62
1, 44324, Note_off_c, 0, 57, 62
1, 44382, Note_off_c, 0, 73, 63
1, 44384, Note_on_c, 0, 76, 83
1, 44461, Note_on_c, 0, 73, 79
1, 44462, Note_off_c, 0, 76, 63
1, 44517, Note_on_c, 0, 59, 77
1, 44522, Note_on_c, 0, 56, 73
1, 44525, Note_on_c, 0, 74, 81
1, 44527, Note_on_c, 0, 52, 62
1, 44532, Note_off_c, 0, 73, 64
1, 44551, Note_off_c, 0, 59, 57
1, 44559, Note_off_c, 0, 56, 63
1, 44560, Note_off_c, 0, 52, 62
1, 44622, Note_on_c, 0, 71, 81
1, 44625, Note_off_c, 0, 74, 62
1, 44681, Note_on_c, 0, 57, 79
1, 44681, Note_off_c, 0, 71, 64
1, 44684, Note_on_c, 0, 69, 83
1, 44689, Note_on_c, 0, 61, 80
1, 44711, Note_off_c, 0, 69, 66
1, 44746, Note_off_c, 0, 57, 61
1, 44792, Note_off_c, 0, 61, 59
1, 45005, Note_on_c, 0, 80, 85
1, 45006, Note_on_c, 0, 59, 77
1, 45006, Note_on_c, 0, 71, 86
1, 45007, Note_on_c, 0, 74, 85
1, 45007, Note_on_c, 0, 76, 81
1, 45011, Note_on_c, 0, 56, 72
1, 45012, Note_on_c, 0, 52, 74
1, 45028, Note_off_c, 0, 59, 69
1, 45028, Note_off_c, 0, 71, 68
1, 45029, Note_off_c, 0, 74, 70
1, 45036, Note_off_c, 0, 56, 68
1, 45037, Note_off_c, 0, 76, 61
1, 45042, Note_off_c, 0, 52, 65
1, 45052, Note_off_c, 0, 80, 63
1, 45291, Control_c, 0, 64, 35
1, 45306, Control_c, 0, 64, 55
1, 45328, Control_c, 0, 64, 62
1, 45343, Control_c, 0, 64, 66
1, 45357, Note_on_c, 0, 81, 77
1, 45358, Control_c, 0, 64, 72
1, 45362, Note_on_c, 0, 69, 70
1, 45365, Note_on_c, 0, 76, 65
1, 45367, Note_on_c, 0, 73, 72
1, 45370, Note_on_c, 0, 57, 54
1, 45373, Note_on_c, 0, 45, 55
1, 45373, Control_c, 0, 64, 80
1, 45379, Note_on_c, 0, 49, 58
1, 45379, Note_on_c, 0, 52, 56
1, 45388, Control_c, 0, 64, 87
1, 45397, Note_off_c, 0, 69, 63
1, 45403, Control_c, 0, 64, 95
1, 45409, Note_off_c, 0, 73, 61
1, 45409, Note_off_c, 0, 81, 64
1, 45410, Note_off_c, 0, 76, 61
1, 45418, Control_c, 0, 64, 102
1, 45433, Control_c, 0, 64, 108
1, 45447, Control_c, 0, 64, 114
1, 45462, Control_c, 0, 64, 122
1, 45477, Control_c, 0, 64, 127
1, 45506, Control_c, 0, 67, 21
1, 45521, Control_c, 0, 67, 58
1, 45536, Control_c, 0, 67, 102
1, 45551, Control_c, 0, 67, 127
1, 45580, Control_c, 0, 64, 116
1, 45595, Control_c, 0, 64, 108
1, 45610, Control_c, 0, 64, 99
1, 45625, Control_c, 0, 64, 91
1, 45641, Control_c, 0, 64, 83
1, 45656, Control_c, 0, 64, 73
1, 45670, Control_c, 0, 64, 63
1, 45685, Control_c, 0, 64, 0
1, 45725, Note_off_c, 0, 49, 56
1, 45745, Note_off_c, 0, 52, 37
1, 45755, Note_off_c, 0, 57, 47
1, 45840, Note_off_c, 0, 45, 32
1, 46146, Note_on_c, 0, 74, 46
1, 46157, Note_on_c, 0, 66, 35
1, 46158, Note_on_c, 0, 50, 34
1, 46255, Control_c, 0, 64, 39
1, 46270, Control_c, 0, 64, 54
1, 46285, Control_c, 0, 64, 61
1, 46300, Control_c, 0, 64, 65
1, 46314, Control_c, 0, 64, 67
1, 46329, Note_on_c, 0, 73, 65
1, 46329, Control_c, 0, 64, 68
1, 46344, Control_c, 0, 64, 70
1, 46347, Note_off_c, 0, 66, 44
1, 46348, Note_on_c, 0, 64, 40
1, 46357, Note_off_c, 0, 74, 62
1, 46359, Control_c, 0, 64, 71
1, 46374, Control_c, 0, 64, 72
1, 46388, Control_c, 0, 64, 73
1, 46389, Note_off_c, 0, 64, 55
1, 46407, Note_off_c, 0, 73, 61
1, 46418, Control_c, 0, 64, 73
1, 46464, Control_c, 0, 64, 73
1, 46479, Control_c, 0, 64, 72
1, 46482, Note_on_c, 0, 73, 70
1, 46491, Note_on_c, 0, 64, 56
1, 46493, Control_c, 0, 64, 70
1, 46508, Control_c, 0, 64, 65
1, 46523, Control_c, 0, 64, 56
1, 46537, Control_c, 0, 64, 45
1, 46542, Note_off_c, 0, 64, 60
1, 46552, Control_c, 0, 64, 51
1, 46567, Control_c, 0, 64, 58
1, 46582, Control_c, 0, 64, 62
1, 46597, Control_c, 0, 64, 64
1, 46611, Control_c, 0, 64, 66
1, 46626, Control_c, 0, 64, 67
1, 46634, Note_on_c, 0, 71, 74
1, 46641, Control_c, 0, 64, 68
1, 46656, Control_c, 0, 64, 70
1, 46658, Note_on_c, 0, 62, 36
1, 46665, Note_off_c, 0, 73, 58
1, 46671, Control_c, 0, 64, 71
1, 46685, Control_c, 0, 64, 73
1, 46691, Note_off_c, 0, 62, 54
1, 46700, Note_off_c, 0, 71, 63
1, 46700, Control_c, 0, 64, 74
1, 46715, Control_c, 0, 64, 74
1, 46759, Control_c, 0, 64, 74
1, 46774, Control_c, 0, 64, 71
1, 46789, Control_c, 0, 64, 64
1, 46792, Note_on_c, 0, 62, 57
1, 46794, Note_on_c, 0, 71, 70
1, 46811, Control_c, 0, 64, 21
1, 46813, Note_on_c, 0, 52, 48
1, 46826, Control_c, 0, 64, 0
1, 46833, Note_off_c, 0, 50, 44
1, 46862, Note_off_c, 0, 62, 61
1, 46870, Control_c, 0, 64, 23
1, 46885, Control_c, 0, 64, 51
1, 46900, Control_c, 0, 64, 61
1, 46915, Control_c, 0, 64, 64
1, 46930, Control_c, 0, 64, 65
1, 46944, Control_c, 0, 64, 66
1, 46946, Note_off_c, 0, 71, 62
1, 46950, Note_on_c, 0, 69, 73
1, 46959, Control_c, 0, 64, 69
1, 46974, Control_c, 0, 64, 71
1, 46979, Note_on_c, 0, 61, 57
1, 46989, Control_c, 0, 64, 74
1, 47004, Control_c, 0, 64, 76
1, 47008, Note_off_c, 0, 61, 62
1, 47015, Note_off_c, 0, 69, 62
1, 47018, Control_c, 0, 64, 77
1, 47048, Control_c, 0, 64, 76
1, 47063, Control_c, 0, 64, 73
1, 47078, Control_c, 0, 64, 66
1, 47093, Control_c, 0, 64, 49
1, 47107, Note_on_c, 0, 61, 55
1, 47108, Control_c, 0, 64, 0
1, 47117, Note_on_c, 0, 69, 62
1, 47137, Control_c, 0, 64, 46
1, 47152, Control_c, 0, 64, 58
1, 47159, Note_off_c, 0, 61, 61
1, 47167, Control_c, 0, 64, 63
1, 47182, Control_c, 0, 64, 64
1, 47197, Control_c, 0, 64, 65
1, 47211, Control_c, 0, 64, 65
1, 47245, Note_off_c, 0, 69, 59
1, 47252, Note_on_c, 0, 68, 70
1, 47269, Note_on_c, 0, 59, 49
1, 47301, Control_c, 0, 64, 65
1, 47305, Note_off_c, 0, 59, 60
1, 47316, Control_c, 0, 64, 64
1, 47330, Note_off_c, 0, 68, 59
1, 47331, Control_c, 0, 64, 64
1, 47346, Control_c, 0, 64, 63
1, 47360, Control_c, 0, 64, 61
1, 47375, Control_c, 0, 64, 57
1, 47390, Control_c, 0, 64, 40
1, 47394, Note_off_c, 0, 52, 31
1, 47405, Control_c, 0, 64, 0
1, 47430, Note_on_c, 0, 68, 56
1, 47434, Note_on_c, 0, 57, 46
1, 47435, Note_on_c, 0, 59, 38
1, 47436, Note_on_c, 0, 62, 45
1, 47478, Note_off_c, 0, 57, 62
1, 47787, Note_on_c, 0, 52, 50
1, 47823, Note_off_c, 0, 52, 62
1, 47901, Control_c, 0, 64, 35
1, 47916, Control_c, 0, 64, 56
1, 47926, Note_off_c, 0, 59, 57
1, 47931, Control_c, 0, 64, 63
1, 47946, Control_c, 0, 64, 64
1, 47960, Control_c, 0, 64, 67
1, 47963, Note_off_c, 0, 62, 50
1, 47975, Control_c, 0, 64, 68
1, 47990, Control_c, 0, 64, 70
1, 48005, Control_c, 0, 64, 71
1, 48020, Control_c, 0, 64, 71
1, 48095, Control_c, 0, 64, 71
1, 48109, Control_c, 0, 64, 70
1, 48124, Control_c, 0, 64, 70
1, 48139, Control_c, 0, 64, 69
1, 48154, Control_c, 0, 64, 68
1, 48160, Note_off_c, 0, 68, 36
1, 48169, Control_c, 0, 64, 67
1, 48180, Note_on_c, 0, 69, 37
1, 48184, Control_c, 0, 64, 65
1, 48196, Note_on_c, 0, 45, 32
1, 48199, Control_c, 0, 64, 61
1, 48208, Note_on_c, 0, 61, 26
1, 48214, Control_c, 0, 64, 0
1, 48339, Control_c, 0, 64, 14
1, 48354, Control_c, 0, 64, 48
1, 48369, Control_c, 0, 64, 59
1, 48384, Control_c, 0, 64, 64
1, 48398, Control_c, 0, 64, 66
1, 48411, Note_off_c, 0, 61, 42
1, 48411, Note_off_c, 0, 69, 59
1, 48413, Control_c, 0, 64, 68
1, 48428, Control_c, 0, 64, 70
1, 48428, Control_c, 0, 67, 121
1, 48443, Control_c, 0, 64, 72
1, 48443, Control_c, 0, 67, 99
1, 48458, Control_c, 0, 64, 73
1, 48458, Control_c, 0, 67, 65
1, 48472, Control_c, 0, 64, 75
1, 48472, Control_c, 0, 67, 37
1, 48487, Control_c, 0, 64, 76
1, 48487, Control_c, 0, 67, 17
1, 48502, Control_c, 0, 64, 77
1, 48502, Control_c, 0, 67, 0
1, 48605, Control_c, 0, 64, 76
1, 48620, Control_c, 0, 64, 75
1, 48631, Note_off_c, 0, 45, 46
1, 48634, Control_c, 0, 64, 75
1, 48649, Control_c, 0, 64, 74
1, 48664, Control_c, 0, 64, 73
1, 48679, Control_c, 0, 64, 72
1, 48694, Control_c, 0, 64, 70
1, 48709, Control_c, 0, 64, 69
1, 48724, Control_c, 0, 64, 68
1, 48738, Control_c, 0, 64, 67
1, 48753, Control_c, 0, 64, 65
1, 48768, Control_c, 0, 64, 64
1, 48783, Control_c, 0, 64, 61
1, 48798, Control_c, 0, 64, 59
1, 48813, Control_c, 0, 64, 57
1, 48828, Control_c, 0, 64, 54
1, 48843, Control_c, 0, 64, 49
1, 48858, Control_c, 0, 64, 40
1, 48873, Control_c, 0, 64, 17
1, 48887, Control_c, 0, 64, 0
1, 49105, Note_on_c, 0, 81, 37
1, 49259, Note_on_c, 0, 79, 51
1, 49263, Note_off_c, 0, 81, 60
1, 49290, Note_off_c, 0, 79, 53
1, 49391, Note_on_c, 0, 79, 47
1, 49553, Note_on_c, 0, 78, 57
1, 49558, Note_off_c, 0, 79, 59
1, 49603, Note_off_c, 0, 78, 60
1, 49704, Note_on_c, 0, 78, 56
1, 49858, Note_on_c, 0, 76, 61
1, 49887, Note_off_c, 0, 78, 60
1, 49913, Note_off_c, 0, 76, 56
1, 49997, Note_on_c, 0, 76, 51
1, 49999, Control_c, 0, 64, 36
1, 50014, Control_c, 0, 64, 48
1, 50029, Control_c, 0, 64, 56
1, 50044, Control_c, 0, 64, 60
1, 50059, Control_c, 0, 64, 62
1, 50074, Control_c, 0, 64, 63
1, 50088, Control_c, 0, 64, 64
1, 50103, Control_c, 0, 64, 64
1, 50118, Control_c, 0, 64, 65
1, 50153, Note_on_c, 0, 75, 52
1, 50166, Note_off_c, 0, 76, 59
1, 50201, Note_off_c, 0, 75, 56
1, 50221, Control_c, 0, 64, 64
1, 50236, Control_c, 0, 64, 64
1, 50251, Control_c, 0, 64, 63
1, 50266, Control_c, 0, 64, 61
1, 50280, Control_c, 0, 64, 56
1, 50294, Note_on_c, 0, 72, 71
1, 50295, Control_c, 0, 64, 40
1, 50296, Note_on_c, 0, 59, 64
1, 50297, Note_on_c, 0, 75, 73
1, 50300, Note_on_c, 0, 47, 63
1, 50310, Control_c, 0, 64, 0
1, 50449, Note_on_c, 0, 71, 69
1, 50455, Note_off_c, 0, 72, 63
1, 50497, Note_off_c, 0, 71, 64
1, 50604, Note_on_c, 0, 71, 80
1, 50747, Note_off_c, 0, 71, 63
1, 50751, Note_on_c, 0, 69, 66
1, 50792, Note_off_c, 0, 69, 57
1, 50896, Note_on_c, 0, 69, 72
1, 50897, Control_c, 0, 64, 37
1, 50912, Control_c, 0, 64, 49
1, 50926, Control_c, 0, 64, 53
1, 50941, Control_c, 0, 64, 54
1, 50956, Control_c, 0, 64, 53
1, 50971, Control_c, 0, 64, 50
1, 50986, Control_c, 0, 64, 44
1, 51001, Control_c, 0, 64, 30
1, 51016, Control_c, 0, 64, 0
1, 51021, Note_off_c, 0, 69, 54
1, 51042, Note_on_c, 0, 67, 73
1, 51102, Note_off_c, 0, 67, 61
1, 51166, Note_off_c, 0, 75, 58
1, 51177, Note_on_c, 0, 67, 70
1, 51178, Control_c, 0, 67, 11
1, 51193, Control_c, 0, 67, 46
1, 51208, Control_c, 0, 67, 103
1, 51223, Control_c, 0, 67, 127
1, 51233, Note_off_c, 0, 47, 60
1, 51258, Note_off_c, 0, 67, 55
1, 51284, Note_off_c, 0, 59, 59
1, 51323, Note_on_c, 0, 66, 56
1, 51345, Note_off_c, 0, 66, 63
1, 51480, Note_on_c, 0, 75, 49
1, 51611, Note_off_c, 0, 75, 49
1, 51625, Note_on_c, 0, 76, 53
1, 51678, Note_off_c, 0, 76, 51
1, 51768, Note_on_c, 0, 71, 50
1, 51774, Note_on_c, 0, 67, 46
1, 51797, Note_off_c, 0, 71, 65
1, 51804, Note_off_c, 0, 67, 62
1, 51901, Note_on_c, 0, 79, 65
1, 51966, Note_off_c, 0, 79, 60
1, 52076, Note_on_c, 0, 77, 65
1, 52201, Note_off_c, 0, 77, 54
1, 52221, Note_on_c, 0, 78, 55
1, 52273, Note_off_c, 0, 78, 55
1, 52370, Note_on_c, 0, 71, 52
1, 52377, Note_on_c, 0, 63, 45
1, 52396, Note_off_c, 0, 71, 65
1, 52414, Note_off_c, 0, 63, 65
1, 52515, Note_on_c, 0, 81, 59
1, 52572, Control_c, 0, 67, 124
1, 52587, Control_c, 0, 67, 101
1, 52589, Note_off_c, 0, 81, 58
1, 52602, Control_c, 0, 67, 70
1, 52617, Control_c, 0, 67, 30
1, 52631, Control_c, 0, 67, 0
1, 52663, Note_on_c, 0, 75, 72
1, 52663, Note_on_c, 0, 78, 73
1, 52679, Note_on_c, 0, 48, 52
1, 52681, Note_on_c, 0, 47, 58
1, 52749, Note_off_c, 0, 48, 51
1, 52795, Note_on_c, 0, 45, 79
1, 52823, Note_off_c, 0, 47, 64
1, 52841, Note_off_c, 0, 45, 64
1, 52955, Note_on_c, 0, 45, 82
1, 53098, Note_on_c, 0, 43, 79
1, 53118, Note_off_c, 0, 45, 64
1, 53145, Note_off_c, 0, 43, 62
1, 53177, Note_off_c, 0, 75, 56
1, 53255, Note_on_c, 0, 43, 82
1, 53272, Note_on_c, 0, 79, 62
1, 53272, Note_off_c, 0, 78, 63
1, 53274, Note_on_c, 0, 76, 63
1, 53404, Note_on_c, 0, 42, 74
1, 53428, Note_off_c, 0, 43, 64
1, 53453, Note_off_c, 0, 42, 62
1, 53562, Note_on_c, 0, 42, 70
1, 53641, Control_c, 0, 67, 10
1, 53655, Control_c, 0, 67, 50
1, 53669, Note_off_c, 0, 76, 57
1, 53670, Control_c, 0, 67, 104
1, 53682, Note_off_c, 0, 79, 59
1, 53685, Control_c, 0, 67, 127
1, 53695, Note_off_c, 0, 42, 61
1, 53706, Note_on_c, 0, 40, 58
1, 53793, Note_off_c, 0, 40, 58
1, 53889, Note_on_c, 0, 79, 52
1, 54026, Note_off_c, 0, 79, 60
1, 54037, Note_on_c, 0, 78, 55
1, 54073, Note_off_c, 0, 78, 61
1, 54186, Note_on_c, 0, 78, 57
1, 54345, Note_on_c, 0, 76, 63
1, 54370, Note_off_c, 0, 78, 60
1, 54389, Note_off_c, 0, 76, 57
1, 54488, Note_on_c, 0, 76, 64
1, 54632, Note_on_c, 0, 74, 66
1, 54656, Note_off_c, 0, 76, 54
1, 54673, Note_off_c, 0, 74, 61
1, 54760, Control_c, 0, 67, 124
1, 54775, Control_c, 0, 67, 98
1, 54784, Note_on_c, 0, 74, 66
1, 54790, Control_c, 0, 67, 59
1, 54805, Control_c, 0, 67, 10
1, 54819, Control_c, 0, 67, 0
1, 54921, Note_on_c, 0, 73, 61
1, 54926, Note_off_c, 0, 74, 56
1, 54970, Note_off_c, 0, 73, 61
1, 55082, Note_on_c, 0, 70, 72
1, 55085, Note_on_c, 0, 73, 73
1, 55086, Note_on_c, 0, 57, 63
1, 55097, Note_on_c, 0, 45, 57
1, 55239, Note_on_c, 0, 69, 70
1, 55261, Note_off_c, 0, 70, 62
1, 55299, Note_off_c, 0, 69, 61
1, 55386, Note_on_c, 0, 69, 79
1, 55513, Note_off_c, 0, 69, 64
1, 55524, Note_on_c, 0, 67, 74
1, 55574, Note_off_c, 0, 67, 58
1, 55669, Note_on_c, 0, 67, 67
1, 55815, Note_off_c, 0, 67, 38
1, 55819, Note_on_c, 0, 66, 68
1, 55825, Control_c, 0, 67, 15
1, 55840, Control_c, 0, 67, 51
1, 55855, Control_c, 0, 67, 94
1, 55870, Control_c, 0, 67, 127
1, 55871, Note_off_c, 0, 66, 60
1, 55878, Note_off_c, 0, 73, 59
1, 55967, Note_off_c, 0, 45, 59
1, 55973, Note_on_c, 0, 66, 56
1, 56013, Note_off_c, 0, 66, 61
1, 56022, Note_off_c, 0, 57, 59
1, 56122, Note_on_c, 0, 64, 53
1, 56153, Note_off_c, 0, 64, 60
1, 56262, Note_on_c, 0, 73, 59
1, 56374, Note_off_c, 0, 73, 58
1, 56423, Note_on_c, 0, 74, 43
1, 56457, Note_off_c, 0, 74, 55
1, 56589, Note_on_c, 0, 66, 53
1, 56590, Note_on_c, 0, 69, 49
1, 56618, Note_off_c, 0, 66, 64
1, 56620, Note_off_c, 0, 69, 61
1, 56722, Note_on_c, 0, 78, 56
1, 56767, Note_off_c, 0, 78, 61
1, 56874, Note_on_c, 0, 75, 52
1, 56992, Note_off_c, 0, 75, 52
1, 57019, Note_on_c, 0, 76, 43
1, 57081, Note_off_c, 0, 76, 53
1, 57168, Note_on_c, 0, 69, 53
1, 57177, Note_on_c, 0, 61, 49
1, 57200, Note_off_c, 0, 69, 66
1, 57216, Note_off_c, 0, 61, 63
1, 57317, Note_on_c, 0, 79, 64
1, 57324, Control_c, 0, 67, 102
1, 57339, Control_c, 0, 67, 36
1, 57353, Control_c, 0, 67, 0
1, 57384, Note_off_c, 0, 79, 56
1, 57458, Note_on_c, 0, 45, 81
1, 57463, Note_on_c, 0, 76, 77
1, 57465, Note_on_c, 0, 73, 72
1, 57597, Note_on_c, 0, 43, 75
1, 57608, Note_off_c, 0, 45, 65
1, 57623, Note_off_c, 0, 43, 66
1, 57749, Note_on_c, 0, 43, 76
1, 57880, Note_off_c, 0, 73, 56
1, 57885, Note_on_c, 0, 42, 77
1, 57915, Note_off_c, 0, 43, 64
1, 57941, Note_off_c, 0, 42, 62
1, 58053, Note_on_c, 0, 42, 68
1, 58054, Note_on_c, 0, 78, 59
1, 58055, Note_off_c, 0, 76, 54
1, 58064, Note_on_c, 0, 74, 52
1, 58191, Note_on_c, 0, 40, 65
1, 58225, Note_off_c, 0, 42, 62
1, 58250, Note_off_c, 0, 40, 61
1, 58269, Note_off_c, 0, 74, 44
1, 58351, Note_on_c, 0, 40, 59
1, 58407, Note_off_c, 0, 78, 62
1, 58444, Note_off_c, 0, 40, 61
1, 58489, Control_c, 0, 64, 47
1, 58500, Note_on_c, 0, 38, 58
1, 58504, Control_c, 0, 64, 59
1, 58518, Control_c, 0, 64, 64
1, 58533, Control_c, 0, 64, 66
1, 58548, Control_c, 0, 64, 68
1, 58563, Control_c, 0, 64, 72
1, 58566, Note_off_c, 0, 38, 63
1, 58578, Control_c, 0, 64, 76
1, 58592, Control_c, 0, 64, 79
1, 58607, Control_c, 0, 64, 81
1, 58622, Control_c, 0, 64, 82
1, 58637, Control_c, 0, 64, 83
1, 58739, Note_on_c, 0, 78, 56
1, 58740, Control_c, 0, 64, 80
1, 58755, Control_c, 0, 64, 75
1, 58756, Note_on_c, 0, 62, 56
1, 58770, Control_c, 0, 64, 68
1, 58785, Control_c, 0, 64, 58
1, 58797, Note_off_c, 0, 78, 58
1, 58807, Control_c, 0, 64, 29
1, 58822, Control_c, 0, 64, 35
1, 58825, Note_on_c, 0, 86, 55
1, 58837, Control_c, 0, 64, 52
1, 58851, Control_c, 0, 64, 60
1, 58864, Note_off_c, 0, 86, 59
1, 58866, Control_c, 0, 64, 63
1, 58880, Control_c, 0, 64, 65
1, 58894, Note_on_c, 0, 78, 66
1, 58895, Control_c, 0, 64, 68
1, 58896, Note_on_c, 0, 61, 67
1, 58910, Control_c, 0, 64, 71
1, 58924, Control_c, 0, 64, 75
1, 58928, Note_off_c, 0, 62, 57
1, 58933, Note_off_c, 0, 61, 61
1, 58937, Note_off_c, 0, 78, 59
1, 58939, Control_c, 0, 64, 79
1, 58954, Control_c, 0, 64, 81
1, 58966, Note_on_c, 0, 86, 66
1, 58984, Control_c, 0, 64, 80
1, 58999, Control_c, 0, 64, 75
1, 59003, Note_off_c, 0, 86, 60
1, 59014, Control_c, 0, 64, 68
1, 59029, Control_c, 0, 64, 55
1, 59030, Note_on_c, 0, 78, 73
1, 59034, Note_on_c, 0, 61, 75
1, 59043, Control_c, 0, 64, 0
1, 59058, Control_c, 0, 64, 27
1, 59073, Control_c, 0, 64, 56
1, 59082, Note_off_c, 0, 78, 63
1, 59088, Control_c, 0, 64, 64
1, 59098, Note_on_c, 0, 86, 74
1, 59103, Control_c, 0, 64, 66
1, 59117, Control_c, 0, 64, 69
1, 59132, Control_c, 0, 64, 73
1, 59147, Control_c, 0, 64, 77
1, 59154, Note_off_c, 0, 86, 62
1, 59162, Control_c, 0, 64, 81
1, 59167, Note_on_c, 0, 59, 79
1, 59176, Control_c, 0, 64, 84
1, 59177, Note_on_c, 0, 78, 71
1, 59181, Note_off_c, 0, 61, 59
1, 59191, Control_c, 0, 64, 85
1, 59224, Note_off_c, 0, 59, 61
1, 59224, Note_off_c, 0, 78, 60
1, 59237, Control_c, 0, 64, 83
1, 59238, Note_on_c, 0, 86, 73
1, 59252, Control_c, 0, 64, 76
1, 59266, Control_c, 0, 64, 67
1, 59281, Control_c, 0, 64, 0
1, 59299, Note_off_c, 0, 86, 60
1, 59316, Note_on_c, 0, 59, 81
1, 59319, Note_on_c, 0, 78, 80
1, 59355, Control_c, 0, 64, 43
1, 59370, Control_c, 0, 64, 58
1, 59380, Note_off_c, 0, 78, 62
1, 59385, Control_c, 0, 64, 63
1, 59387, Note_on_c, 0, 86, 76
1, 59400, Control_c, 0, 64, 65
1, 59414, Control_c, 0, 64, 66
1, 59429, Control_c, 0, 64, 67
1, 59444, Control_c, 0, 64, 69
1, 59446, Note_off_c, 0, 86, 64
1, 59459, Control_c, 0, 64, 72
1, 59460, Note_on_c, 0, 57, 82
1, 59463, Note_on_c, 0, 78, 79
1, 59473, Control_c, 0, 64, 76
1, 59485, Note_off_c, 0, 59, 58
1, 59488, Control_c, 0, 64, 78
1, 59503, Control_c, 0, 64, 80
1, 59518, Control_c, 0, 64, 80
1, 59526, Note_off_c, 0, 78, 61
1, 59530, Note_on_c, 0, 86, 79
1, 59533, Control_c, 0, 64, 79
1, 59535, Note_off_c, 0, 57, 62
1, 59555, Control_c, 0, 64, 74
1, 59570, Control_c, 0, 64, 67
1, 59585, Control_c, 0, 64, 34
1, 59599, Control_c, 0, 64, 0
1, 59606, Note_off_c, 0, 86, 60
1, 59610, Note_on_c, 0, 57, 84
1, 59617, Note_on_c, 0, 78, 83
1, 59629, Control_c, 0, 64, 58
1, 59644, Control_c, 0, 64, 64
1, 59659, Control_c, 0, 64, 67
1, 59673, Control_c, 0, 64, 69
1, 59677, Note_on_c, 0, 86, 74
1, 59677, Note_off_c, 0, 78, 63
1, 59688, Control_c, 0, 64, 72
1, 59698, Note_off_c, 0, 57, 55
1, 59703, Control_c, 0, 64, 75
1, 59718, Control_c, 0, 64, 78
1, 59733, Control_c, 0, 64, 80
1, 59744, Note_off_c, 0, 86, 62
1, 59747, Control_c, 0, 64, 82
1, 59756, Note_on_c, 0, 56, 81
1, 59762, Note_on_c, 0, 78, 84
1, 59762, Control_c, 0, 64, 83
1, 59763, Note_on_c, 0, 57, 21
1, 59777, Control_c, 0, 64, 83
1, 59780, Note_off_c, 0, 56, 71
1, 59806, Note_off_c, 0, 57, 52
1, 59816, Note_off_c, 0, 78, 63
1, 59821, Note_on_c, 0, 86, 73
1, 59866, Control_c, 0, 64, 82
1, 59881, Control_c, 0, 64, 81
1, 59896, Control_c, 0, 64, 78
1, 59896, Note_off_c, 0, 86, 63
1, 59905, Note_on_c, 0, 56, 89
1, 59911, Control_c, 0, 64, 73
1, 59914, Note_on_c, 0, 44, 79
1, 59922, Note_on_c, 0, 76, 77
1, 59926, Control_c, 0, 64, 66
1, 59940, Control_c, 0, 64, 21
1, 59955, Control_c, 0, 64, 0
1, 59970, Note_off_c, 0, 76, 60
1, 59988, Note_on_c, 0, 86, 77
1, 60044, Note_off_c, 0, 86, 66
1, 60070, Note_on_c, 0, 76, 82
1, 60075, Control_c, 0, 64, 42
1, 60089, Control_c, 0, 64, 59
1, 60104, Control_c, 0, 64, 65
1, 60119, Control_c, 0, 64, 67
1, 60124, Note_off_c, 0, 76, 58
1, 60133, Note_on_c, 0, 86, 80
1, 60134, Control_c, 0, 64, 69
1, 60149, Control_c, 0, 64, 71
1, 60163, Control_c, 0, 64, 74
1, 60178, Control_c, 0, 64, 78
1, 60189, Note_off_c, 0, 86, 64
1, 60193, Control_c, 0, 64, 82
1, 60208, Control_c, 0, 64, 85
1, 60209, Note_on_c, 0, 76, 84
1, 60222, Control_c, 0, 64, 88
1, 60237, Control_c, 0, 64, 90
1, 60252, Control_c, 0, 64, 92
1, 60263, Note_off_c, 0, 76, 61
1, 60267, Control_c, 0, 64, 93
1, 60272, Note_on_c, 0, 86, 82
1, 60339, Note_off_c, 0, 86, 62
1, 60360, Note_on_c, 0, 76, 80
1, 60376, Note_off_c, 0, 44, 50
1, 60397, Note_off_c, 0, 56, 61
1, 60415, Note_off_c, 0, 76, 58
1, 60418, Note_on_c, 0, 86, 75
1, 60468, Control_c, 0, 64, 93
1, 60473, Note_off_c, 0, 86, 64
1, 60483, Control_c, 0, 64, 92
1, 60497, Control_c, 0, 64, 91
1, 60509, Note_on_c, 0, 76, 71
1, 60512, Note_on_c, 0, 58, 74
1, 60512, Control_c, 0, 64, 89
1, 60513, Note_on_c, 0, 46, 70
1, 60527, Control_c, 0, 64, 84
1, 60542, Control_c, 0, 64, 76
1, 60557, Control_c, 0, 64, 67
1, 60561, Note_off_c, 0, 76, 59
1, 60571, Control_c, 0, 64, 0
1, 60577, Note_on_c, 0, 85, 72
1, 60626, Note_off_c, 0, 85, 62
1, 60645, Control_c, 0, 64, 45
1, 60660, Control_c, 0, 64, 60
1, 60662, Note_on_c, 0, 76, 71
1, 60675, Control_c, 0, 64, 65
1, 60689, Control_c, 0, 64, 67
1, 60704, Control_c, 0, 64, 70
1, 60719, Note_off_c, 0, 76, 58
1, 60719, Control_c, 0, 64, 73
1, 60727, Note_on_c, 0, 85, 69
1, 60734, Control_c, 0, 64, 75
1, 60749, Control_c, 0, 64, 78
1, 60763, Control_c, 0, 64, 81
1, 60778, Note_off_c, 0, 85, 63
1, 60778, Control_c, 0, 64, 85
1, 60793, Control_c, 0, 64, 88
1, 60806, Note_on_c, 0, 76, 67
1, 60808, Control_c, 0, 64, 90
1, 60824, Control_c, 0, 64, 91
1, 60836, Note_off_c, 0, 46, 53
1, 60838, Control_c, 0, 64, 91
1, 60861, Note_off_c, 0, 76, 57
1, 60873, Note_on_c, 0, 85, 63
1, 60919, Note_off_c, 0, 85, 59
1, 60956, Note_on_c, 0, 76, 63
1, 60995, Note_off_c, 0, 76, 58
1, 61025, Note_on_c, 0, 85, 59
1, 61032, Note_off_c, 0, 58, 29
1, 61068, Control_c, 0, 64, 91
1, 61079, Note_off_c, 0, 85, 58
1, 61083, Control_c, 0, 64, 89
1, 61098, Control_c, 0, 64, 84
1, 61113, Control_c, 0, 64, 76
1, 61118, Note_on_c, 0, 74, 63
1, 61126, Note_on_c, 0, 59, 53
1, 61127, Control_c, 0, 64, 68
1, 61142, Control_c, 0, 64, 61
1, 61157, Control_c, 0, 64, 57
1, 61162, Note_off_c, 0, 74, 64
1, 61172, Control_c, 0, 64, 62
1, 61187, Control_c, 0, 64, 65
1, 61190, Note_on_c, 0, 85, 65
1, 61202, Control_c, 0, 64, 67
1, 61217, Control_c, 0, 64, 70
1, 61224, Note_off_c, 0, 85, 60
1, 61231, Control_c, 0, 64, 72
1, 61246, Control_c, 0, 64, 75
1, 61258, Note_on_c, 0, 74, 67
1, 61261, Note_on_c, 0, 57, 60
1, 61261, Control_c, 0, 64, 78
1, 61276, Control_c, 0, 64, 82
1, 61291, Control_c, 0, 64, 86
1, 61297, Note_off_c, 0, 59, 59
1, 61306, Control_c, 0, 64, 91
1, 61308, Note_off_c, 0, 57, 60
1, 61309, Note_off_c, 0, 74, 61
1, 61317, Note_on_c, 0, 85, 74
1, 61320, Control_c, 0, 64, 94
1, 61335, Control_c, 0, 64, 96
1, 61364, Control_c, 0, 64, 94
1, 61368, Note_off_c, 0, 85, 64
1, 61379, Control_c, 0, 64, 88
1, 61394, Control_c, 0, 64, 80
1, 61401, Note_on_c, 0, 57, 82
1, 61404, Note_on_c, 0, 74, 75
1, 61409, Control_c, 0, 64, 72
1, 61424, Control_c, 0, 64, 66
1, 61438, Control_c, 0, 64, 64
1, 61452, Note_off_c, 0, 74, 62
1, 61453, Control_c, 0, 64, 66
1, 61455, Note_on_c, 0, 85, 72
1, 61468, Control_c, 0, 64, 68
1, 61483, Control_c, 0, 64, 71
1, 61498, Control_c, 0, 64, 73
1, 61512, Control_c, 0, 64, 75
1, 61513, Note_off_c, 0, 85, 61
1, 61527, Control_c, 0, 64, 77
1, 61538, Note_on_c, 0, 55, 84
1, 61539, Note_on_c, 0, 74, 72
1, 61542, Control_c, 0, 64, 79
1, 61557, Control_c, 0, 64, 80
1, 61559, Note_off_c, 0, 57, 52
1, 61571, Control_c, 0, 64, 82
1, 61586, Control_c, 0, 64, 85
1, 61592, Note_off_c, 0, 74, 62
1, 61601, Control_c, 0, 64, 88
1, 61603, Note_on_c, 0, 85, 75
1, 61604, Note_off_c, 0, 55, 63
1, 61617, Control_c, 0, 64, 89
1, 61647, Control_c, 0, 64, 85
1, 61661, Control_c, 0, 64, 77
1, 61676, Control_c, 0, 64, 66
1, 61678, Note_off_c, 0, 85, 61
1, 61687, Note_on_c, 0, 74, 76
1, 61688, Note_on_c, 0, 55, 83
1, 61691, Control_c, 0, 64, 0
1, 61735, Note_off_c, 0, 74, 63
1, 61735, Control_c, 0, 64, 36
1, 61750, Control_c, 0, 64, 60
1, 61753, Note_on_c, 0, 83, 79
1, 61765, Control_c, 0, 64, 65
1, 61787, Control_c, 0, 64, 69
1, 61794, Note_off_c, 0, 55, 57
1, 61802, Control_c, 0, 64, 73
1, 61817, Control_c, 0, 64, 78
1, 61820, Note_off_c, 0, 83, 64
1, 61832, Control_c, 0, 64, 85
1, 61838, Note_on_c, 0, 74, 82
1, 61843, Note_on_c, 0, 54, 81
1, 61847, Control_c, 0, 64, 92
1, 61862, Control_c, 0, 64, 99
1, 61876, Control_c, 0, 64, 105
1, 61886, Poly_aftertouch_c, 0, 55, 127
1, 61890, Note_off_c, 0, 74, 65
1, 61891, Control_c, 0, 64, 109
1, 61903, Note_on_c, 0, 83, 84
1, 61906, Control_c, 0, 64, 110
1, 61909, Note_off_c, 0, 54, 64
1, 61921, Control_c, 0, 64, 107
1, 61930, Poly_aftertouch_c, 0, 55, 0
1, 61935, Control_c, 0, 64, 94
1, 61950, Control_c, 0, 64, 79
1, 61959, Note_off_c, 0, 83, 64
1, 61965, Control_c, 0, 64, 64
1, 61980, Control_c, 0, 64, 0
1, 61981, Note_on_c, 0, 74, 88
1, 61982, Note_on_c, 0, 54, 78
1, 62009, Control_c, 0, 64, 63
1, 62024, Control_c, 0, 64, 70
1, 62033, Note_off_c, 0, 74, 64
1, 62039, Control_c, 0, 64, 79
1, 62041, Note_on_c, 0, 83, 84
1, 62054, Control_c, 0, 64, 90
1, 62058, Note_off_c, 0, 54, 57
1, 62069, Control_c, 0, 64, 100
1, 62084, Control_c, 0, 64, 108
1, 62099, Control_c, 0, 64, 117
1, 62101, Note_off_c, 0, 83, 63
1, 62114, Control_c, 0, 64, 127
1, 62120, Note_on_c, 0, 74, 85
1, 62120, Note_on_c, 0, 53, 77
1, 62149, Note_off_c, 0, 53, 69
1, 62166, Note_off_c, 0, 74, 65
1, 62183, Note_on_c, 0, 83, 82
1, 62217, Control_c, 0, 64, 121
1, 62232, Control_c, 0, 64, 96
1, 62244, Note_off_c, 0, 83, 64
1, 62247, Control_c, 0, 64, 78
1, 62261, Control_c, 0, 64, 61
1, 62266, Note_on_c, 0, 73, 81
1, 62267, Note_on_c, 0, 53, 81
1, 62276, Control_c, 0, 64, 0
1, 62277, Note_on_c, 0, 41, 70
1, 62317, Note_off_c, 0, 73, 59
1, 62335, Note_on_c, 0, 83, 72
1, 62394, Note_off_c, 0, 83, 63
1, 62414, Note_on_c, 0, 73, 81
1, 62464, Note_off_c, 0, 73, 60
1, 62477, Note_on_c, 0, 83, 73
1, 62529, Control_c, 0, 64, 38
1, 62533, Note_off_c, 0, 83, 66
1, 62552, Control_c, 0, 64, 61
1, 62566, Control_c, 0, 64, 66
1, 62567, Note_on_c, 0, 73, 83
1, 62581, Control_c, 0, 64, 74
1, 62596, Control_c, 0, 64, 82
1, 62610, Control_c, 0, 64, 89
1, 62623, Note_off_c, 0, 73, 62
1, 62625, Control_c, 0, 64, 95
1, 62626, Note_on_c, 0, 83, 72
1, 62640, Control_c, 0, 64, 100
1, 62643, Note_off_c, 0, 53, 54
1, 62655, Control_c, 0, 64, 103
1, 62661, Note_off_c, 0, 41, 56
1, 62670, Control_c, 0, 64, 105
1, 62690, Note_off_c, 0, 83, 61
1, 62715, Note_on_c, 0, 73, 76
1, 62778, Note_off_c, 0, 73, 61
1, 62784, Note_on_c, 0, 83, 70
1, 62788, Control_c, 0, 64, 105
1, 62803, Control_c, 0, 64, 106
1, 62832, Control_c, 0, 64, 104
1, 62847, Control_c, 0, 64, 89
1, 62850, Note_off_c, 0, 83, 62
1, 62862, Control_c, 0, 64, 71
1, 62875, Note_on_c, 0, 72, 73
1, 62876, Note_on_c, 0, 54, 73
1, 62877, Control_c, 0, 64, 0
1, 62880, Note_on_c, 0, 42, 71
1, 62927, Note_off_c, 0, 72, 61
1, 62942, Note_on_c, 0, 81, 77
1, 62994, Note_off_c, 0, 81, 63
1, 63023, Note_on_c, 0, 72, 76
1, 63072, Note_off_c, 0, 72, 61
1, 63084, Note_on_c, 0, 81, 83
1, 63139, Note_off_c, 0, 81, 62
1, 63143, Control_c, 0, 64, 43
1, 63158, Control_c, 0, 64, 65
1, 63163, Note_on_c, 0, 72, 79
1, 63169, Note_off_c, 0, 42, 61
1, 63173, Control_c, 0, 64, 72
1, 63188, Control_c, 0, 64, 80
1, 63203, Control_c, 0, 64, 88
1, 63219, Control_c, 0, 64, 95
1, 63221, Note_off_c, 0, 72, 62
1, 63226, Note_on_c, 0, 81, 81
1, 63233, Control_c, 0, 64, 100
1, 63235, Note_off_c, 0, 54, 65
1, 63248, Control_c, 0, 64, 105
1, 63263, Control_c, 0, 64, 107
1, 63276, Note_off_c, 0, 81, 63
1, 63315, Note_on_c, 0, 72, 74
1, 63369, Note_on_c, 0, 81, 78
1, 63374, Note_off_c, 0, 72, 62
1, 63393, Note_off_c, 0, 81, 63
1, 63419, Control_c, 0, 64, 105
1, 63434, Control_c, 0, 64, 95
1, 63448, Control_c, 0, 64, 82
1, 63463, Control_c, 0, 64, 69
1, 63464, Note_on_c, 0, 81, 77
1, 63474, Note_on_c, 0, 71, 64
1, 63478, Control_c, 0, 64, 0
1, 63479, Note_on_c, 0, 55, 56
1, 63529, Note_off_c, 0, 55, 59
1, 63545, Note_on_c, 0, 62, 54
1, 63598, Note_off_c, 0, 62, 56
1, 63609, Note_on_c, 0, 79, 77
1, 63610, Note_off_c, 0, 81, 62
1, 63619, Note_on_c, 0, 59, 62
1, 63664, Note_off_c, 0, 59, 60
1, 63681, Note_on_c, 0, 62, 66
1, 63681, Note_off_c, 0, 79, 62
1, 63743, Note_off_c, 0, 62, 60
1, 63744, Control_c, 0, 64, 45
1, 63753, Note_on_c, 0, 79, 88
1, 63756, Note_on_c, 0, 55, 73
1, 63759, Control_c, 0, 64, 61
1, 63774, Control_c, 0, 64, 65
1, 63789, Control_c, 0, 64, 68
1, 63804, Control_c, 0, 64, 72
1, 63818, Note_off_c, 0, 55, 60
1, 63819, Control_c, 0, 64, 77
1, 63824, Note_on_c, 0, 62, 68
1, 63833, Control_c, 0, 64, 80
1, 63848, Control_c, 0, 64, 82
1, 63857, Note_off_c, 0, 71, 60
1, 63863, Control_c, 0, 64, 84
1, 63878, Control_c, 0, 64, 85
1, 63890, Note_off_c, 0, 62, 61
1, 63890, Note_on_c, 0, 59, 70
1, 63893, Control_c, 0, 64, 85
1, 63895, Note_on_c, 0, 78, 91
1, 63901, Note_off_c, 0, 79, 61
1, 63907, Control_c, 0, 64, 86
1, 63940, Note_off_c, 0, 78, 66
1, 63949, Note_off_c, 0, 59, 59
1, 63964, Note_on_c, 0, 62, 66
1, 63996, Control_c, 0, 64, 85
1, 64012, Control_c, 0, 64, 85
1, 64027, Control_c, 0, 64, 80
1, 64037, Note_off_c, 0, 62, 60
1, 64047, Note_on_c, 0, 86, 87
1, 64049, Control_c, 0, 64, 73
1, 64059, Note_on_c, 0, 55, 66
1, 64063, Control_c, 0, 64, 62
1, 64065, Note_on_c, 0, 77, 73
1, 64078, Control_c, 0, 64, 0
1, 64120, Note_off_c, 0, 55, 58
1, 64133, Note_on_c, 0, 62, 65
1, 64138, Control_c, 0, 64, 49
1, 64153, Control_c, 0, 64, 62
1, 64168, Control_c, 0, 64, 66
1, 64183, Control_c, 0, 64, 69
1, 64188, Note_off_c, 0, 62, 59
1, 64196, Note_on_c, 0, 59, 61
1, 64197, Note_on_c, 0, 85, 85
1, 64197, Control_c, 0, 64, 73
1, 64206, Note_off_c, 0, 86, 62
1, 64212, Control_c, 0, 64, 79
1, 64227, Control_c, 0, 64, 85
1, 64242, Control_c, 0, 64, 91
1, 64246, Note_off_c, 0, 59, 59
1, 64257, Control_c, 0, 64, 95
1, 64262, Note_on_c, 0, 62, 60
1, 64268, Note_off_c, 0, 85, 63
1, 64271, Control_c, 0, 64, 98
1, 64286, Control_c, 0, 64, 98
1, 64301, Control_c, 0, 64, 96
1, 64316, Control_c, 0, 64, 88
1, 64323, Note_off_c, 0, 62, 58
1, 64331, Control_c, 0, 64, 76
1, 64332, Note_on_c, 0, 85, 87
1, 64337, Note_on_c, 0, 55, 70
1, 64345, Control_c, 0, 64, 62
1, 64360, Control_c, 0, 64, 0
1, 64404, Note_on_c, 0, 62, 61
1, 64404, Control_c, 0, 64, 52
1, 64419, Control_c, 0, 64, 63
1, 64434, Control_c, 0, 64, 67
1, 64449, Control_c, 0, 64, 71
1, 64463, Control_c, 0, 64, 73
1, 64471, Note_off_c, 0, 62, 60
1, 64475, Note_on_c, 0, 59, 64
1, 64476, Note_off_c, 0, 77, 62
1, 64477, Note_on_c, 0, 83, 88
1, 64478, Control_c, 0, 64, 74
1, 64493, Note_off_c, 0, 55, 31
1, 64493, Control_c, 0, 64, 74
1, 64522, Note_off_c, 0, 85, 61
1, 64523, Control_c, 0, 64, 75
1, 64531, Note_off_c, 0, 59, 60
1, 64536, Note_off_c, 0, 83, 65
1, 64537, Control_c, 0, 64, 76
1, 64555, Note_on_c, 0, 62, 56
1, 64582, Control_c, 0, 64, 75
1, 64587, Note_off_c, 0, 62, 63
1, 64597, Control_c, 0, 64, 72
1, 64612, Control_c, 0, 64, 65
1, 64622, Note_on_c, 0, 79, 81
1, 64627, Control_c, 0, 64, 0
1, 64627, Note_on_c, 0, 82, 82
1, 64640, Note_on_c, 0, 54, 66
1, 64706, Note_off_c, 0, 54, 57
1, 64712, Note_on_c, 0, 61, 64
1, 64750, Note_off_c, 0, 61, 60
1, 64770, Note_on_c, 0, 58, 66
1, 64774, Note_on_c, 0, 78, 83
1, 64791, Note_off_c, 0, 79, 57
1, 64820, Note_off_c, 0, 58, 60
1, 64844, Note_on_c, 0, 61, 63
1, 64853, Note_off_c, 0, 78, 64
1, 64890, Note_off_c, 0, 61, 57
1, 64919, Note_on_c, 0, 54, 69
1, 64922, Note_on_c, 0, 78, 87
1, 64931, Control_c, 0, 64, 45
1, 64946, Control_c, 0, 64, 58
1, 64961, Control_c, 0, 64, 64
1, 64975, Control_c, 0, 64, 67
1, 64981, Note_off_c, 0, 54, 62
1, 64990, Note_on_c, 0, 61, 70
1, 64990, Control_c, 0, 64, 70
1, 65005, Control_c, 0, 64, 74
1, 65020, Control_c, 0, 64, 77
1, 65032, Note_off_c, 0, 61, 59
1, 65035, Control_c, 0, 64, 80
1, 65042, Note_on_c, 0, 58, 68
1, 65050, Control_c, 0, 64, 83
1, 65064, Note_off_c, 0, 78, 63
1, 65065, Control_c, 0, 64, 85
1, 65066, Note_on_c, 0, 76, 86
1, 65080, Control_c, 0, 64, 86
1, 65089, Note_off_c, 0, 58, 59
1, 65094, Control_c, 0, 64, 86
1, 65115, Note_on_c, 0, 61, 63
1, 65124, Note_off_c, 0, 82, 63
1, 65124, Control_c, 0, 64, 87
1, 65129, Note_off_c, 0, 76, 62
1, 65160, Note_off_c, 0, 61, 55
1, 65183, Control_c, 0, 64, 85
1, 65198, Control_c, 0, 64, 82
1, 65208, Note_on_c, 0, 83, 77
1, 65212, Control_c, 0, 64, 74
1, 65215, Note_on_c, 0, 53, 57
1, 65217, Note_on_c, 0, 74, 73
1, 65227, Control_c, 0, 64, 64
1, 65242, Control_c, 0, 64, 0
1, 65296, Note_off_c, 0, 53, 54
1, 65297, Note_on_c, 0, 62, 51
1, 65346, Note_off_c, 0, 62, 59
1, 65360, Note_on_c, 0, 73, 75
1, 65361, Note_on_c, 0, 56, 58
1, 65402, Note_off_c, 0, 74, 58
1, 65405, Note_off_c, 0, 56, 61
1, 65424, Note_off_c, 0, 73, 61
1, 65448, Note_on_c, 0, 62, 59
1, 65496, Note_off_c, 0, 62, 58
1, 65509, Note_on_c, 0, 73, 76
1, 65521, Note_on_c, 0, 53, 58
1, 65542, Note_off_c, 0, 83, 56
1, 65580, Note_off_c, 0, 53, 61
1, 65601, Note_on_c, 0, 62, 51
1, 65635, Control_c, 0, 64, 53
1, 65646, Note_off_c, 0, 62, 61
1, 65650, Control_c, 0, 64, 62
1, 65665, Control_c, 0, 64, 66
1, 65666, Note_on_c, 0, 56, 54
1, 65671, Note_off_c, 0, 73, 62
1, 65673, Note_on_c, 0, 71, 73
1, 65680, Control_c, 0, 64, 69
1, 65680, Control_c, 0, 67, 8
1, 65695, Control_c, 0, 64, 73
1, 65695, Control_c, 0, 67, 26
1, 65709, Control_c, 0, 64, 76
1, 65709, Control_c, 0, 67, 53
1, 65715, Note_off_c, 0, 56, 59
1, 65724, Control_c, 0, 64, 79
1, 65724, Control_c, 0, 67, 80
1, 65739, Control_c, 0, 64, 81
1, 65739, Control_c, 0, 67, 107
1, 65754, Control_c, 0, 64, 84
1, 65754, Control_c, 0, 67, 127
1, 65755, Note_on_c, 0, 62, 52
1, 65769, Control_c, 0, 64, 86
1, 65783, Control_c, 0, 64, 87
1, 65794, Note_off_c, 0, 62, 60
1, 65798, Note_off_c, 0, 71, 58
1, 65798, Control_c, 0, 64, 87
1, 65813, Control_c, 0, 64, 88
1, 65917, Control_c, 0, 64, 87
1, 65932, Control_c, 0, 64, 87
1, 65947, Control_c, 0, 64, 86
1, 65952, Note_on_c, 0, 76, 69
1, 65961, Control_c, 0, 64, 85
1, 65964, Note_on_c, 0, 67, 57
1, 65976, Control_c, 0, 64, 84
1, 65991, Control_c, 0, 64, 82
1, 66006, Control_c, 0, 64, 77
1, 66007, Note_on_c, 0, 54, 50
1, 66021, Control_c, 0, 64, 70
1, 66035, Control_c, 0, 64, 55
1, 66050, Control_c, 0, 64, 0
1, 66109, Control_c, 0, 64, 38
1, 66119, Note_off_c, 0, 76, 46
1, 66124, Control_c, 0, 64, 55
1, 66139, Control_c, 0, 64, 61
1, 66153, Control_c, 0, 64, 64
1, 66168, Control_c, 0, 64, 66
1, 66183, Control_c, 0, 64, 68
1, 66198, Control_c, 0, 64, 70
1, 66213, Control_c, 0, 64, 72
1, 66227, Control_c, 0, 64, 74
1, 66232, Note_on_c, 0, 74, 64
1, 66242, Control_c, 0, 64, 75
1, 66245, Note_on_c, 0, 66, 51
1, 66257, Control_c, 0, 64, 75
1, 66272, Control_c, 0, 64, 76
1, 66295, Control_c, 0, 64, 76
1, 66309, Note_off_c, 0, 67, 53
1, 66321, Note_off_c, 0, 66, 56
1, 66326, Note_off_c, 0, 74, 63
1, 66399, Control_c, 0, 64, 76
1, 66406, Note_on_c, 0, 74, 73
1, 66419, Note_on_c, 0, 66, 60
1, 66445, Control_c, 0, 64, 75
1, 66474, Control_c, 0, 64, 75
1, 66480, Note_off_c, 0, 66, 58
1, 66554, Note_on_c, 0, 73, 81
1, 66563, Control_c, 0, 64, 74
1, 66564, Note_off_c, 0, 74, 57
1, 66566, Note_on_c, 0, 64, 67
1, 66621, Note_off_c, 0, 64, 62
1, 66633, Note_off_c, 0, 73, 61
1, 66652, Control_c, 0, 64, 74
1, 66666, Control_c, 0, 64, 73
1, 66681, Control_c, 0, 64, 69
1, 66696, Control_c, 0, 64, 59
1, 66701, Note_on_c, 0, 73, 69
1, 66711, Control_c, 0, 64, 0
1, 66717, Note_on_c, 0, 42, 46
1, 66720, Note_on_c, 0, 64, 63
1, 66773, Note_off_c, 0, 64, 61
1, 66805, Note_off_c, 0, 54, 51
1, 66850, Note_on_c, 0, 71, 72
1, 66866, Note_on_c, 0, 62, 55
1, 66885, Note_off_c, 0, 73, 50
1, 66911, Note_off_c, 0, 62, 58
1, 66919, Note_off_c, 0, 71, 64
1, 66992, Control_c, 0, 64, 26
1, 67007, Control_c, 0, 64, 47
1, 67008, Note_on_c, 0, 71, 67
1, 67014, Note_on_c, 0, 62, 60
1, 67022, Control_c, 0, 64, 57
1, 67044, Control_c, 0, 64, 62
1, 67056, Note_off_c, 0, 62, 62
1, 67059, Control_c, 0, 64, 65
1, 67074, Control_c, 0, 64, 67
1, 67089, Control_c, 0, 64, 69
1, 67104, Control_c, 0, 64, 70
1, 67117, Control_c, 0, 64, 71
1, 67131, Control_c, 0, 64, 72
1, 67133, Note_off_c, 0, 71, 61
1, 67154, Note_on_c, 0, 70, 68
1, 67166, Note_on_c, 0, 61, 60
1, 67199, Note_off_c, 0, 61, 61
1, 67217, Note_off_c, 0, 70, 61
1, 67266, Control_c, 0, 64, 72
1, 67280, Control_c, 0, 64, 71
1, 67295, Control_c, 0, 64, 69
1, 67310, Control_c, 0, 64, 66
1, 67319, Note_on_c, 0, 70, 61
1, 67321, Note_on_c, 0, 61, 50
1, 67325, Control_c, 0, 64, 51
1, 67330, Note_on_c, 0, 64, 47
1, 67340, Control_c, 0, 64, 0
1, 67346, Note_on_c, 0, 47, 49
1, 67346, Note_off_c, 0, 42, 59
1, 67512, Note_off_c, 0, 47, 49
1, 67667, Note_on_c, 0, 42, 49
1, 67716, Note_off_c, 0, 42, 58
1, 67821, Control_c, 0, 64, 24
1, 67836, Control_c, 0, 64, 51
1, 67851, Control_c, 0, 64, 60
1, 67866, Control_c, 0, 64, 64
1, 67875, Note_off_c, 0, 61, 57
1, 67880, Control_c, 0, 64, 65
1, 67959, Note_off_c, 0, 64, 36
1, 67969, Control_c, 0, 64, 65
1, 67984, Control_c, 0, 64, 64
1, 67999, Control_c, 0, 64, 63
1, 68004, Note_off_c, 0, 70, 47
1, 68015, Control_c, 0, 64, 59
1, 68029, Control_c, 0, 64, 53
1, 68031, Note_on_c, 0, 71, 43
1, 68044, Control_c, 0, 64, 41
1, 68050, Note_on_c, 0, 62, 41
1, 68059, Control_c, 0, 64, 0
1, 68061, Note_on_c, 0, 35, 34
1, 68281, Control_c, 0, 67, 115
1, 68296, Control_c, 0, 67, 83
1, 68311, Control_c, 0, 67, 13
1, 68326, Control_c, 0, 67, 0
1, 68332, Note_off_c, 0, 35, 55
1, 68336, Note_off_c, 0, 62, 53
1, 68345, Note_off_c, 0, 71, 58
1, 68734, Note_on_c, 0, 71, 92
1, 68738, Note_on_c, 0, 59, 83
1, 68740, Note_on_c, 0, 62, 79
1, 68741, Note_on_c, 0, 66, 81
1, 68744, Note_on_c, 0, 47, 77
1, 68748, Control_c, 0, 64, 39
1, 68762, Control_c, 0, 64, 63
1, 68777, Control_c, 0, 64, 68
1, 68792, Control_c, 0, 64, 73
1, 68808, Control_c, 0, 64, 78
1, 68823, Control_c, 0, 64, 83
1, 68838, Control_c, 0, 64, 86
1, 68852, Control_c, 0, 64, 88
1, 68867, Control_c, 0, 64, 90
1, 68882, Control_c, 0, 64, 92
1, 68897, Control_c, 0, 64, 92
1, 68912, Control_c, 0, 64, 93
1, 69093, Note_off_c, 0, 66, 37
1, 69102, Note_off_c, 0, 59, 54
1, 69149, Control_c, 0, 64, 92
1, 69161, Note_off_c, 0, 47, 54
1, 69163, Note_off_c, 0, 62, 34
1, 69238, Control_c, 0, 64, 92
1, 69274, Control_c, 0, 64, 91
1, 69287, Note_off_c, 0, 71, 50
1, 69304, Control_c, 0, 64, 91
1, 69319, Control_c, 0, 64, 90
1, 69334, Control_c, 0, 64, 89
1, 69348, Control_c, 0, 64, 89
1, 69363, Control_c, 0, 64, 88
1, 69378, Control_c, 0, 64, 87
1, 69393, Control_c, 0, 64, 86
1, 69408, Control_c, 0, 64, 84
1, 69423, Control_c, 0, 64, 82
1, 69438, Control_c, 0, 64, 77
1, 69447, Note_on_c, 0, 72, 70
1, 69452, Control_c, 0, 64, 71
1, 69455, Note_on_c, 0, 66, 60
1, 69459, Note_on_c, 0, 57, 51
1, 69460, Note_on_c, 0, 62, 52
1, 69462, Note_on_c, 0, 45, 51
1, 69467, Control_c, 0, 64, 61
1, 69482, Control_c, 0, 64, 0
1, 69585, Control_c, 0, 64, 29
1, 69601, Control_c, 0, 64, 62
1, 69616, Control_c, 0, 64, 68
1, 69631, Control_c, 0, 64, 73
1, 69639, Note_off_c, 0, 62, 55
1, 69646, Control_c, 0, 64, 79
1, 69658, Note_off_c, 0, 66, 58
1, 69659, Note_off_c, 0, 72, 62
1, 69661, Control_c, 0, 64, 84
1, 69661, Control_c, 0, 67, 9
1, 69675, Control_c, 0, 64, 87
1, 69675, Control_c, 0, 67, 38
1, 69690, Control_c, 0, 64, 87
1, 69690, Control_c, 0, 67, 84
1, 69705, Control_c, 0, 67, 127
1, 69749, Control_c, 0, 64, 86
1, 69753, Note_off_c, 0, 57, 32
1, 69764, Control_c, 0, 64, 83
1, 69779, Control_c, 0, 64, 79
1, 69794, Control_c, 0, 64, 73
1, 69808, Control_c, 0, 64, 62
1, 69811, Note_off_c, 0, 45, 47
1, 69823, Control_c, 0, 64, 0
1, 70334, Note_on_c, 0, 74, 43
1, 70348, Note_on_c, 0, 71, 30
1, 70355, Note_on_c, 0, 55, 33
1, 70360, Note_on_c, 0, 43, 33
1, 70484, Control_c, 0, 64, 45
1, 70498, Control_c, 0, 64, 58
1, 70513, Control_c, 0, 64, 64
1, 70528, Control_c, 0, 64, 67
1, 70543, Control_c, 0, 64, 69
1, 70555, Note_off_c, 0, 71, 36
1, 70557, Control_c, 0, 64, 71
1, 70572, Control_c, 0, 64, 74
1, 70587, Control_c, 0, 64, 76
1, 70602, Control_c, 0, 64, 77
1, 70617, Control_c, 0, 64, 79
1, 70630, Note_off_c, 0, 55, 40
1, 70631, Control_c, 0, 64, 81
1, 70646, Control_c, 0, 64, 83
1, 70661, Control_c, 0, 64, 85
1, 70676, Control_c, 0, 64, 86
1, 70691, Control_c, 0, 64, 87
1, 70705, Control_c, 0, 64, 88
1, 70827, Note_off_c, 0, 74, 32
1, 70860, Note_off_c, 0, 43, 34
1, 71006, Note_on_c, 0, 75, 44
1, 71115, Note_off_c, 0, 75, 49
1, 71142, Control_c, 0, 64, 87
1, 71172, Control_c, 0, 64, 87
1, 71187, Control_c, 0, 64, 86
1, 71203, Control_c, 0, 64, 86
1, 71232, Control_c, 0, 64, 85
1, 71247, Control_c, 0, 64, 84
1, 71262, Control_c, 0, 64, 82
1, 71274, Note_on_c, 0, 76, 45
1, 71276, Note_on_c, 0, 54, 37
1, 71277, Control_c, 0, 64, 78
1, 71278, Note_on_c, 0, 72, 41
1, 71283, Note_on_c, 0, 42, 34
1, 71292, Control_c, 0, 64, 71
1, 71307, Control_c, 0, 64, 60
1, 71321, Control_c, 0, 64, 0
1, 71380, Control_c, 0, 64, 29
1, 71395, Control_c, 0, 64, 58
1, 71410, Control_c, 0, 64, 65
1, 71425, Control_c, 0, 64, 71
1, 71440, Control_c, 0, 64, 75
1, 71442, Note_off_c, 0, 54, 47
1, 71447, Note_off_c, 0, 76, 51
1, 71453, Note_off_c, 0, 42, 42
1, 71454, Control_c, 0, 64, 79
1, 71462, Note_off_c, 0, 72, 37
1, 71469, Control_c, 0, 64, 81
1, 71484, Control_c, 0, 64, 83
1, 71499, Control_c, 0, 64, 83
1, 71514, Control_c, 0, 64, 84
1, 71610, Control_c, 0, 64, 83
1, 71640, Control_c, 0, 64, 83
1, 71654, Control_c, 0, 64, 82
1, 71684, Control_c, 0, 64, 82
1, 71698, Control_c, 0, 64, 81
1, 71713, Control_c, 0, 64, 81
1, 71728, Control_c, 0, 64, 80
1, 71743, Control_c, 0, 64, 79
1, 71758, Control_c, 0, 64, 78
1, 71772, Control_c, 0, 64, 77
1, 71787, Control_c, 0, 64, 77
1, 71802, Control_c, 0, 64, 76
1, 71817, Control_c, 0, 64, 74
1, 71832, Control_c, 0, 64, 72
1, 71846, Control_c, 0, 64, 69
1, 71861, Control_c, 0, 64, 65
1, 71876, Control_c, 0, 64, 58
1, 71891, Control_c, 0, 64, 31
1, 71906, Control_c, 0, 64, 0
1, 72359, Control_c, 0, 67, 127
1, 72374, Control_c, 0, 67, 89
1, 72389, Control_c, 0, 67, 25
1, 72403, Control_c, 0, 67, 0
1, 72800, Note_on_c, 0, 74, 67
1, 72804, Note_on_c, 0, 59, 49
1, 72848, Note_off_c, 0, 59, 59
1, 72883, Note_on_c, 0, 67, 49
1, 72934, Note_off_c, 0, 67, 57
1, 72950, Note_on_c, 0, 59, 55
1, 72987, Note_off_c, 0, 59, 62
1, 73030, Note_on_c, 0, 67, 48
1, 73079, Note_off_c, 0, 67, 55
1, 73104, Note_on_c, 0, 57, 65
1, 73104, Note_on_c, 0, 72, 82
1, 73160, Note_off_c, 0, 57, 59
1, 73182, Note_on_c, 0, 67, 61
1, 73192, Note_off_c, 0, 74, 56
1, 73244, Note_off_c, 0, 67, 59
1, 73256, Note_on_c, 0, 57, 64
1, 73328, Note_off_c, 0, 57, 60
1, 73337, Note_on_c, 0, 67, 59
1, 73393, Note_off_c, 0, 67, 60
1, 73415, Note_on_c, 0, 55, 68
1, 73417, Note_on_c, 0, 71, 85
1, 73423, Note_off_c, 0, 72, 64
1, 73434, Control_c, 0, 64, 65
1, 73449, Control_c, 0, 64, 83
1, 73464, Control_c, 0, 64, 92
1, 73479, Control_c, 0, 64, 109
1, 73483, Note_on_c, 0, 67, 63
1, 73490, Note_off_c, 0, 55, 62
1, 73493, Control_c, 0, 64, 127
1, 73538, Control_c, 0, 64, 113
1, 73552, Control_c, 0, 64, 79
1, 73566, Note_off_c, 0, 67, 58
1, 73567, Control_c, 0, 64, 0
1, 73579, Note_on_c, 0, 55, 69
1, 73609, Note_off_c, 0, 55, 65
1, 73644, Note_on_c, 0, 67, 59
1, 73710, Note_off_c, 0, 67, 53
1, 73715, Note_off_c, 0, 71, 62
1, 73725, Note_on_c, 0, 76, 81
1, 73732, Note_on_c, 0, 60, 60
1, 73747, Note_off_c, 0, 76, 69
1, 73798, Note_off_c, 0, 60, 47
1, 73833, Note_on_c, 0, 67, 46
1, 73861, Note_off_c, 0, 67, 56
1, 73877, Note_on_c, 0, 78, 73
1, 73882, Note_on_c, 0, 66, 51
1, 73912, Note_on_c, 0, 76, 72
1, 73921, Note_off_c, 0, 66, 61
1, 73930, Note_off_c, 0, 78, 65
1, 73945, Note_on_c, 0, 67, 58
1, 73953, Note_on_c, 0, 74, 78
1, 73954, Note_off_c, 0, 76, 65
1, 73997, Note_off_c, 0, 67, 56
1, 74008, Note_on_c, 0, 76, 85
1, 74012, Note_off_c, 0, 74, 64
1, 74029, Note_off_c, 0, 76, 67
1, 74034, Note_on_c, 0, 60, 57
1, 74072, Note_off_c, 0, 60, 65
1, 74101, Note_on_c, 0, 67, 46
1, 74142, Note_off_c, 0, 67, 59
1, 74159, Note_on_c, 0, 66, 57
1, 74166, Note_on_c, 0, 78, 86
1, 74198, Note_off_c, 0, 66, 59
1, 74207, Note_off_c, 0, 78, 64
1, 74240, Note_on_c, 0, 67, 56
1, 74288, Note_off_c, 0, 67, 56
1, 74312, Note_on_c, 0, 81, 88
1, 74335, Note_on_c, 0, 60, 56
1, 74380, Note_off_c, 0, 60, 60
1, 74409, Note_on_c, 0, 67, 53
1, 74450, Note_off_c, 0, 67, 60
1, 74467, Note_on_c, 0, 79, 78
1, 74470, Note_on_c, 0, 66, 52
1, 74478, Note_off_c, 0, 81, 62
1, 74500, Note_off_c, 0, 79, 62
1, 74509, Note_off_c, 0, 66, 62
1, 74558, Note_on_c, 0, 67, 57
1, 74598, Note_off_c, 0, 67, 59
1, 74634, Note_on_c, 0, 78, 74
1, 74642, Note_on_c, 0, 60, 53
1, 74693, Note_off_c, 0, 60, 55
1, 74717, Note_on_c, 0, 67, 55
1, 74757, Note_off_c, 0, 67, 60
1, 74776, Note_off_c, 0, 78, 64
1, 74780, Note_on_c, 0, 76, 69
1, 74786, Note_on_c, 0, 66, 51
1, 74811, Note_off_c, 0, 76, 57
1, 74823, Note_off_c, 0, 66, 61
1, 74868, Note_on_c, 0, 67, 52
1, 74906, Note_off_c, 0, 67, 61
1, 74938, Note_on_c, 0, 74, 66
1, 74944, Note_on_c, 0, 59, 50
1, 74946, Control_c, 0, 67, 21
1, 74961, Control_c, 0, 67, 67
1, 74972, Note_off_c, 0, 74, 66
1, 74976, Control_c, 0, 67, 127
1, 75008, Note_off_c, 0, 59, 49
1, 75021, Note_on_c, 0, 67, 54
1, 75064, Note_off_c, 0, 67, 60
1, 75084, Note_on_c, 0, 66, 51
1, 75117, Note_off_c, 0, 66, 61
1, 75178, Note_on_c, 0, 67, 44
1, 75215, Note_off_c, 0, 67, 59
1, 75260, Note_on_c, 0, 74, 65
1, 75281, Note_on_c, 0, 59, 55
1, 75321, Note_off_c, 0, 59, 61
1, 75351, Note_on_c, 0, 67, 52
1, 75412, Note_off_c, 0, 67, 59
1, 75437, Note_on_c, 0, 59, 48
1, 75468, Note_off_c, 0, 59, 60
1, 75515, Note_on_c, 0, 67, 40
1, 75556, Note_off_c, 0, 67, 59
1, 75570, Note_on_c, 0, 72, 68
1, 75583, Note_on_c, 0, 57, 53
1, 75614, Note_off_c, 0, 74, 59
1, 75625, Note_off_c, 0, 57, 62
1, 75659, Note_on_c, 0, 67, 49
1, 75704, Note_off_c, 0, 67, 58
1, 75737, Note_on_c, 0, 57, 51
1, 75775, Note_off_c, 0, 57, 63
1, 75800, Note_on_c, 0, 67, 55
1, 75849, Note_off_c, 0, 67, 56
1, 75877, Note_on_c, 0, 71, 70
1, 75884, Note_on_c, 0, 55, 60
1, 75906, Note_off_c, 0, 72, 58
1, 75921, Note_off_c, 0, 55, 63
1, 75953, Note_on_c, 0, 67, 60
1, 75991, Note_off_c, 0, 67, 60
1, 76030, Note_on_c, 0, 55, 59
1, 76070, Note_off_c, 0, 55, 62
1, 76112, Note_on_c, 0, 67, 47
1, 76139, Note_off_c, 0, 67, 56
1, 76185, Note_off_c, 0, 71, 65
1, 76201, Note_on_c, 0, 69, 72
1, 76205, Note_on_c, 0, 48, 63
1, 76247, Note_off_c, 0, 48, 55
1, 76299, Note_on_c, 0, 57, 43
1, 76339, Note_off_c, 0, 57, 61
1, 76363, Note_on_c, 0, 52, 34
1, 76399, Note_off_c, 0, 52, 51
1, 76411, Note_off_c, 0, 69, 55
1, 76428, Note_on_c, 0, 57, 59
1, 76440, Note_on_c, 0, 76, 71
1, 76470, Note_off_c, 0, 57, 60
1, 76510, Note_on_c, 0, 74, 73
1, 76514, Note_on_c, 0, 48, 56
1, 76516, Note_off_c, 0, 76, 55
1, 76569, Note_off_c, 0, 48, 57
1, 76580, Note_on_c, 0, 72, 71
1, 76591, Note_on_c, 0, 57, 49
1, 76592, Note_off_c, 0, 74, 62
1, 76633, Note_off_c, 0, 57, 63
1, 76645, Note_on_c, 0, 52, 48
1, 76654, Note_off_c, 0, 72, 64
1, 76655, Note_on_c, 0, 71, 69
1, 76680, Note_off_c, 0, 52, 63
1, 76698, Note_off_c, 0, 71, 67
1, 76709, Note_on_c, 0, 69, 67
1, 76726, Note_on_c, 0, 57, 50
1, 76763, Note_off_c, 0, 57, 60
1, 76780, Note_off_c, 0, 69, 62
1, 76797, Note_on_c, 0, 67, 65
1, 76809, Note_on_c, 0, 50, 58
1, 76853, Control_c, 0, 64, 43
1, 76867, Control_c, 0, 64, 59
1, 76875, Note_off_c, 0, 50, 58
1, 76878, Note_on_c, 0, 59, 60
1, 76882, Control_c, 0, 64, 62
1, 76897, Control_c, 0, 64, 64
1, 76912, Control_c, 0, 64, 65
1, 76926, Control_c, 0, 64, 66
1, 76939, Note_off_c, 0, 59, 59
1, 76941, Control_c, 0, 64, 67
1, 76955, Note_on_c, 0, 55, 54
1, 76956, Control_c, 0, 64, 68
1, 76971, Control_c, 0, 64, 69
1, 76986, Note_off_c, 0, 55, 65
1, 76986, Control_c, 0, 64, 72
1, 77000, Control_c, 0, 64, 74
1, 77015, Control_c, 0, 64, 77
1, 77016, Note_on_c, 0, 59, 50
1, 77020, Note_off_c, 0, 67, 56
1, 77030, Control_c, 0, 64, 77
1, 77045, Control_c, 0, 64, 76
1, 77057, Note_off_c, 0, 59, 60
1, 77060, Control_c, 0, 64, 72
1, 77075, Control_c, 0, 64, 61
1, 77078, Note_on_c, 0, 71, 57
1, 77090, Control_c, 0, 64, 0
1, 77090, Note_on_c, 0, 50, 60
1, 77107, Note_off_c, 0, 71, 69
1, 77117, Note_on_c, 0, 69, 71
1, 77146, Note_off_c, 0, 69, 62
1, 77170, Note_on_c, 0, 71, 65
1, 77181, Note_off_c, 0, 50, 62
1, 77185, Note_on_c, 0, 60, 39
1, 77203, Note_off_c, 0, 71, 67
1, 77213, Note_on_c, 0, 69, 75
1, 77214, Note_off_c, 0, 60, 60
1, 77219, Note_on_c, 0, 54, 52
1, 77244, Note_off_c, 0, 69, 58
1, 77250, Note_off_c, 0, 54, 65
1, 77274, Note_on_c, 0, 67, 58
1, 77295, Note_off_c, 0, 67, 62
1, 77298, Note_on_c, 0, 60, 52
1, 77308, Note_on_c, 0, 69, 65
1, 77326, Note_off_c, 0, 60, 56
1, 77345, Note_off_c, 0, 69, 63
1, 77374, Note_on_c, 0, 67, 61
1, 77406, Note_on_c, 0, 55, 44
1, 77462, Note_off_c, 0, 55, 50
1, 77465, Note_on_c, 0, 62, 54
1, 77489, Control_c, 0, 67, 122
1, 77504, Control_c, 0, 67, 71
1, 77526, Control_c, 0, 67, 0
1, 77537, Note_off_c, 0, 62, 59
1, 77561, Note_on_c, 0, 59, 57
1, 77595, Note_off_c, 0, 59, 63
1, 77599, Note_off_c, 0, 67, 56
1, 77632, Note_on_c, 0, 62, 59
1, 77664, Note_off_c, 0, 62, 62
1, 77704, Note_on_c, 0, 74, 81
1, 77729, Note_on_c, 0, 59, 47
1, 77769, Note_off_c, 0, 59, 62
1, 77804, Note_on_c, 0, 67, 63
1, 77867, Note_off_c, 0, 67, 59
1, 77877, Note_on_c, 0, 59, 61
1, 77935, Note_off_c, 0, 59, 59
1, 77955, Note_on_c, 0, 67, 63
1, 78011, Note_off_c, 0, 67, 57
1, 78012, Note_on_c, 0, 72, 85
1, 78026, Note_on_c, 0, 57, 66
1, 78081, Note_off_c, 0, 57, 58
1, 78083, Note_off_c, 0, 74, 57
1, 78101, Note_on_c, 0, 67, 66
1, 78163, Note_off_c, 0, 67, 60
1, 78173, Note_on_c, 0, 57, 67
1, 78230, Note_off_c, 0, 57, 54
1, 78238, Note_on_c, 0, 67, 67
1, 78320, Note_off_c, 0, 67, 60
1, 78327, Note_off_c, 0, 72, 64
1, 78330, Note_on_c, 0, 55, 74
1, 78331, Note_on_c, 0, 71, 83
1, 78392, Note_off_c, 0, 55, 61
1, 78403, Note_on_c, 0, 67, 61
1, 78424, Control_c, 0, 64, 31
1, 78438, Control_c, 0, 64, 47
1, 78453, Control_c, 0, 64, 54
1, 78467, Note_off_c, 0, 67, 61
1, 78468, Control_c, 0, 64, 57
1, 78487, Note_on_c, 0, 55, 71
1, 78498, Control_c, 0, 64, 56
1, 78512, Control_c, 0, 64, 53
1, 78519, Note_off_c, 0, 55, 66
1, 78527, Control_c, 0, 64, 52
1, 78542, Control_c, 0, 64, 53
1, 78553, Note_on_c, 0, 67, 63
1, 78557, Control_c, 0, 64, 56
1, 78571, Control_c, 0, 64, 60
1, 78586, Control_c, 0, 64, 63
1, 78601, Control_c, 0, 64, 64
1, 78604, Note_off_c, 0, 71, 60
1, 78608, Note_off_c, 0, 67, 54
1, 78616, Control_c, 0, 64, 58
1, 78631, Control_c, 0, 64, 0
1, 78634, Note_on_c, 0, 76, 80
1, 78636, Note_on_c, 0, 60, 67
1, 78658, Note_off_c, 0, 76, 67
1, 78683, Note_off_c, 0, 60, 57
1, 78720, Note_on_c, 0, 67, 59
1, 78772, Note_off_c, 0, 67, 55
1, 78794, Note_on_c, 0, 78, 74
1, 78801, Note_on_c, 0, 66, 56
1, 78829, Note_on_c, 0, 76, 75
1, 78837, Note_off_c, 0, 66, 61
1, 78842, Note_off_c, 0, 78, 66
1, 78864, Note_off_c, 0, 76, 62
1, 78873, Note_on_c, 0, 74, 76
1, 78874, Note_on_c, 0, 67, 61
1, 78913, Note_off_c, 0, 67, 58
1, 78923, Note_on_c, 0, 76, 85
1, 78925, Note_off_c, 0, 74, 65
1, 78946, Note_on_c, 0, 60, 61
1, 78946, Note_off_c, 0, 76, 65
1, 78983, Note_off_c, 0, 60, 63
1, 79019, Note_on_c, 0, 67, 55
1, 79061, Note_off_c, 0, 67, 58
1, 79084, Note_on_c, 0, 66, 55
1, 79084, Note_on_c, 0, 78, 85
1, 79122, Note_off_c, 0, 66, 60
1, 79129, Note_off_c, 0, 78, 63
1, 79162, Note_on_c, 0, 67, 54
1, 79204, Note_off_c, 0, 67, 60
1, 79230, Note_on_c, 0, 81, 86
1, 79246, Note_on_c, 0, 60, 60
1, 79292, Note_off_c, 0, 60, 57
1, 79317, Note_on_c, 0, 67, 58
1, 79356, Note_off_c, 0, 67, 61
1, 79378, Note_on_c, 0, 66, 55
1, 79384, Note_on_c, 0, 79, 78
1, 79394, Note_off_c, 0, 81, 61
1, 79416, Note_off_c, 0, 66, 62
1, 79424, Note_off_c, 0, 79, 61
1, 79461, Note_on_c, 0, 67, 52
1, 79504, Note_off_c, 0, 67, 59
1, 79547, Note_on_c, 0, 60, 52
1, 79549, Note_on_c, 0, 78, 70
1, 79612, Note_off_c, 0, 60, 48
1, 79618, Note_on_c, 0, 67, 57
1, 79659, Note_off_c, 0, 67, 59
1, 79688, Note_off_c, 0, 78, 63
1, 79689, Note_on_c, 0, 66, 49
1, 79696, Note_on_c, 0, 76, 58
1, 79726, Note_off_c, 0, 66, 62
1, 79732, Note_off_c, 0, 76, 59
1, 79769, Note_on_c, 0, 67, 51
1, 79811, Note_off_c, 0, 67, 59
1, 79853, Note_on_c, 0, 74, 64
1, 79858, Note_on_c, 0, 59, 50
1, 79885, Note_off_c, 0, 74, 66
1, 79890, Control_c, 0, 67, 46
1, 79905, Control_c, 0, 67, 112
1, 79919, Control_c, 0, 67, 127
1, 79928, Note_off_c, 0, 59, 41
1, 79940, Note_on_c, 0, 67, 42
1, 79985, Note_off_c, 0, 67, 59
1, 80008, Note_on_c, 0, 66, 48
1, 80046, Note_off_c, 0, 66, 63
1, 80093, Note_on_c, 0, 67, 46
1, 80134, Note_off_c, 0, 67, 55
1, 80191, Note_on_c, 0, 74, 63
1, 80193, Note_on_c, 0, 59, 51
1, 80228, Note_off_c, 0, 59, 61
1, 80277, Note_on_c, 0, 67, 42
1, 80326, Note_off_c, 0, 67, 61
1, 80341, Note_on_c, 0, 59, 45
1, 80386, Note_off_c, 0, 59, 59
1, 80429, Note_on_c, 0, 67, 48
1, 80471, Note_off_c, 0, 67, 60
1, 80499, Note_on_c, 0, 72, 64
1, 80515, Note_on_c, 0, 57, 51
1, 80561, Note_off_c, 0, 57, 60
1, 80583, Note_on_c, 0, 67, 48
1, 80590, Note_off_c, 0, 74, 58
1, 80643, Note_off_c, 0, 67, 57
1, 80664, Note_on_c, 0, 57, 57
1, 80703, Note_off_c, 0, 57, 62
1, 80741, Note_on_c, 0, 67, 53
1, 80783, Note_off_c, 0, 67, 60
1, 80815, Note_on_c, 0, 55, 66
1, 80815, Note_on_c, 0, 71, 75
1, 80859, Note_off_c, 0, 55, 63
1, 80859, Note_off_c, 0, 72, 56
1, 80887, Note_on_c, 0, 67, 61
1, 80935, Note_off_c, 0, 67, 57
1, 80972, Note_on_c, 0, 55, 63
1, 81011, Note_off_c, 0, 55, 59
1, 81037, Note_on_c, 0, 67, 48
1, 81063, Note_off_c, 0, 67, 58
1, 81131, Note_off_c, 0, 71, 64
1, 81141, Note_on_c, 0, 69, 65
1, 81147, Note_on_c, 0, 48, 61
1, 81184, Note_off_c, 0, 48, 61
1, 81224, Note_on_c, 0, 57, 56
1, 81283, Note_off_c, 0, 57, 60
1, 81294, Note_on_c, 0, 52, 60
1, 81343, Note_off_c, 0, 52, 60
1, 81364, Note_off_c, 0, 69, 54
1, 81385, Note_on_c, 0, 76, 73
1, 81388, Note_on_c, 0, 57, 54
1, 81430, Note_off_c, 0, 57, 61
1, 81454, Note_on_c, 0, 74, 77
1, 81464, Note_on_c, 0, 48, 62
1, 81471, Note_off_c, 0, 76, 57
1, 81528, Note_on_c, 0, 72, 76
1, 81544, Note_off_c, 0, 48, 54
1, 81546, Note_on_c, 0, 57, 55
1, 81554, Note_off_c, 0, 74, 61
1, 81586, Note_off_c, 0, 57, 62
1, 81597, Note_on_c, 0, 71, 76
1, 81600, Note_on_c, 0, 52, 56
1, 81602, Note_off_c, 0, 72, 64
1, 81636, Note_off_c, 0, 52, 63
1, 81650, Note_off_c, 0, 71, 66
1, 81656, Note_on_c, 0, 69, 74
1, 81680, Note_on_c, 0, 57, 56
1, 81710, Note_off_c, 0, 57, 62
1, 81724, Note_off_c, 0, 69, 61
1, 81737, Note_on_c, 0, 67, 70
1, 81761, Note_on_c, 0, 50, 61
1, 81818, Note_off_c, 0, 50, 52
1, 81828, Note_on_c, 0, 59, 62
1, 81833, Control_c, 0, 64, 50
1, 81848, Control_c, 0, 64, 59
1, 81862, Control_c, 0, 64, 61
1, 81877, Control_c, 0, 64, 61
1, 81889, Note_off_c, 0, 59, 59
1, 81900, Note_on_c, 0, 55, 61
1, 81922, Control_c, 0, 64, 62
1, 81937, Control_c, 0, 64, 64
1, 81940, Note_off_c, 0, 55, 63
1, 81952, Control_c, 0, 64, 65
1, 81967, Control_c, 0, 64, 67
1, 81970, Note_off_c, 0, 67, 57
1, 81976, Note_on_c, 0, 59, 51
1, 81981, Control_c, 0, 64, 67
1, 82018, Control_c, 0, 64, 66
1, 82022, Note_off_c, 0, 59, 62
1, 82027, Note_on_c, 0, 71, 61
1, 82033, Control_c, 0, 64, 61
1, 82040, Note_on_c, 0, 50, 62
1, 82048, Control_c, 0, 64, 0
1, 82059, Note_off_c, 0, 71, 66
1, 82072, Note_on_c, 0, 69, 68
1, 82104, Note_off_c, 0, 69, 60
1, 82116, Note_off_c, 0, 50, 63
1, 82121, Note_on_c, 0, 71, 68
1, 82127, Note_on_c, 0, 60, 44
1, 82154, Note_on_c, 0, 54, 47
1, 82164, Note_off_c, 0, 71, 67
1, 82169, Note_on_c, 0, 69, 65
1, 82183, Note_off_c, 0, 54, 61
1, 82207, Note_off_c, 0, 69, 63
1, 82223, Note_on_c, 0, 67, 72
1, 82253, Note_off_c, 0, 60, 57
1, 82256, Note_off_c, 0, 67, 58
1, 82278, Note_on_c, 0, 69, 61
1, 82320, Note_off_c, 0, 69, 62
1, 82344, Note_on_c, 0, 59, 51
1, 82348, Note_on_c, 0, 67, 70
1, 82354, Note_on_c, 0, 55, 50
1, 82390, Note_off_c, 0, 67, 61
1, 82419, Note_on_c, 0, 69, 61
1, 82449, Note_off_c, 0, 69, 66
1, 82482, Note_on_c, 0, 67, 60
1, 82515, Note_off_c, 0, 67, 62
1, 82518, Note_off_c, 0, 55, 60
1, 82518, Note_off_c, 0, 59, 53
1, 82551, Note_on_c, 0, 66, 65
1, 82582, Note_off_c, 0, 66, 64
1, 82629, Note_on_c, 0, 67, 58
1, 82675, Note_off_c, 0, 67, 55
1, 82695, Note_on_c, 0, 71, 65
1, 82761, Note_off_c, 0, 71, 61
1, 82781, Note_on_c, 0, 69, 65
1, 82785, Note_on_c, 0, 54, 58
1, 82796, Note_on_c, 0, 62, 39
1, 82812, Note_off_c, 0, 54, 65
1, 82825, Note_off_c, 0, 62, 54
1, 82831, Note_off_c, 0, 69, 59
1, 82859, Note_on_c, 0, 72, 64
1, 82927, Note_on_c, 0, 62, 44
1, 82935, Note_off_c, 0, 72, 60
1, 82939, Note_on_c, 0, 71, 67
1, 82942, Note_on_c, 0, 55, 46
1, 82993, Note_off_c, 0, 71, 64
1, 83012, Note_on_c, 0, 69, 65
1, 83050, Note_off_c, 0, 69, 62
1, 83086, Note_on_c, 0, 67, 68
1, 83125, Note_off_c, 0, 67, 61
1, 83146, Note_off_c, 0, 62, 61
1, 83152, Note_off_c, 0, 55, 62
1, 83159, Note_on_c, 0, 66, 68
1, 83193, Note_off_c, 0, 66, 63
1, 83239, Note_on_c, 0, 67, 68
1, 83291, Note_off_c, 0, 67, 55
1, 83313, Note_on_c, 0, 71, 65
1, 83364, Note_off_c, 0, 71, 63
1, 83371, Note_on_c, 0, 54, 66
1, 83376, Note_on_c, 0, 69, 71
1, 83381, Note_on_c, 0, 62, 48
1, 83401, Note_off_c, 0, 54, 63
1, 83407, Note_off_c, 0, 62, 57
1, 83423, Note_off_c, 0, 69, 62
1, 83461, Note_on_c, 0, 72, 67
1, 83528, Note_on_c, 0, 62, 46
1, 83540, Note_off_c, 0, 72, 61
1, 83543, Note_on_c, 0, 55, 49
1, 83543, Note_on_c, 0, 71, 73
1, 83605, Note_off_c, 0, 71, 64
1, 83615, Note_on_c, 0, 69, 72
1, 83656, Note_off_c, 0, 69, 66
1, 83686, Note_on_c, 0, 67, 73
1, 83739, Note_off_c, 0, 67, 59
1, 83755, Note_on_c, 0, 66, 76
1, 83774, Note_off_c, 0, 62, 61
1, 83779, Note_off_c, 0, 55, 63
1, 83803, Note_off_c, 0, 66, 59
1, 83827, Note_on_c, 0, 67, 77
1, 83882, Note_off_c, 0, 67, 62
1, 83898, Note_on_c, 0, 71, 76
1, 83966, Note_off_c, 0, 71, 63
1, 83975, Note_on_c, 0, 54, 50
1, 83976, Note_on_c, 0, 69, 74
1, 83976, Note_on_c, 0, 62, 46
1, 84003, Note_off_c, 0, 54, 60
1, 84005, Note_off_c, 0, 62, 57
1, 84022, Note_off_c, 0, 69, 61
1, 84038, Note_on_c, 0, 72, 69
1, 84110, Note_off_c, 0, 72, 59
1, 84115, Note_on_c, 0, 71, 71
1, 84122, Note_on_c, 0, 55, 60
1, 84133, Note_on_c, 0, 62, 39
1, 84156, Note_off_c, 0, 55, 62
1, 84168, Note_off_c, 0, 62, 52
1, 84171, Note_off_c, 0, 71, 63
1, 84190, Note_on_c, 0, 74, 74
1, 84270, Note_off_c, 0, 74, 63
1, 84272, Note_on_c, 0, 72, 70
1, 84274, Note_on_c, 0, 62, 60
1, 84276, Note_on_c, 0, 54, 68
1, 84314, Note_off_c, 0, 54, 63
1, 84315, Note_off_c, 0, 62, 56
1, 84341, Note_off_c, 0, 72, 60
1, 84347, Note_on_c, 0, 69, 75
1, 84393, Note_off_c, 0, 69, 61
1, 84419, Note_on_c, 0, 71, 79
1, 84422, Note_on_c, 0, 55, 67
1, 84432, Note_on_c, 0, 62, 46
1, 84450, Note_off_c, 0, 55, 66
1, 84458, Note_off_c, 0, 62, 56
1, 84474, Note_off_c, 0, 71, 57
1, 84491, Note_on_c, 0, 74, 79
1, 84557, Note_off_c, 0, 74, 64
1, 84563, Note_on_c, 0, 55, 55
1, 84569, Note_on_c, 0, 73, 77
1, 84578, Note_on_c, 0, 52, 48
1, 84587, Note_off_c, 0, 55, 62
1, 84605, Note_off_c, 0, 52, 58
1, 84633, Note_off_c, 0, 73, 62
1, 84637, Note_on_c, 0, 76, 76
1, 84724, Note_on_c, 0, 54, 52
1, 84725, Note_off_c, 0, 76, 60
1, 84727, Note_on_c, 0, 57, 47
1, 84730, Note_on_c, 0, 74, 79
1, 84787, Note_off_c, 0, 74, 63
1, 84798, Note_on_c, 0, 76, 73
1, 84873, Note_off_c, 0, 76, 61
1, 84876, Note_on_c, 0, 74, 73
1, 84894, Note_off_c, 0, 57, 61
1, 84902, Note_off_c, 0, 54, 64
1, 84932, Note_off_c, 0, 74, 64
1, 84932, Control_c, 0, 67, 115
1, 84941, Note_on_c, 0, 73, 79
1, 84947, Control_c, 0, 67, 95
1, 84962, Control_c, 0, 67, 75
1, 84977, Control_c, 0, 67, 60
1, 84990, Note_off_c, 0, 73, 62
1, 84992, Control_c, 0, 67, 51
1, 85013, Control_c, 0, 67, 49
1, 85029, Note_on_c, 0, 74, 74
1, 85043, Control_c, 0, 67, 51
1, 85058, Control_c, 0, 67, 53
1, 85067, Note_off_c, 0, 74, 63
1, 85073, Control_c, 0, 67, 55
1, 85088, Control_c, 0, 67, 57
1, 85097, Note_on_c, 0, 78, 68
1, 85102, Control_c, 0, 67, 57
1, 85117, Control_c, 0, 67, 58
1, 85132, Control_c, 0, 67, 60
1, 85147, Control_c, 0, 67, 62
1, 85162, Control_c, 0, 67, 66
1, 85165, Note_off_c, 0, 78, 62
1, 85172, Note_on_c, 0, 49, 60
1, 85177, Control_c, 0, 67, 70
1, 85177, Note_on_c, 0, 76, 69
1, 85186, Note_on_c, 0, 57, 39
1, 85192, Control_c, 0, 67, 75
1, 85201, Note_off_c, 0, 49, 65
1, 85206, Control_c, 0, 67, 76
1, 85219, Note_off_c, 0, 57, 52
1, 85221, Control_c, 0, 67, 77
1, 85224, Note_off_c, 0, 76, 61
1, 85252, Note_on_c, 0, 79, 66
1, 85295, Control_c, 0, 67, 76
1, 85320, Note_on_c, 0, 57, 47
1, 85326, Note_on_c, 0, 78, 72
1, 85329, Note_on_c, 0, 50, 55
1, 85332, Note_off_c, 0, 79, 59
1, 85354, Control_c, 0, 67, 76
1, 85388, Note_off_c, 0, 78, 64
1, 85397, Note_on_c, 0, 76, 71
1, 85399, Control_c, 0, 67, 76
1, 85439, Note_off_c, 0, 76, 62
1, 85476, Note_on_c, 0, 74, 70
1, 85487, Control_c, 0, 67, 76
1, 85508, Note_off_c, 0, 74, 62
1, 85538, Note_on_c, 0, 73, 74
1, 85547, Note_off_c, 0, 57, 61
1, 85555, Note_off_c, 0, 50, 65
1, 85571, Note_off_c, 0, 73, 61
1, 85614, Note_on_c, 0, 74, 70
1, 85661, Note_off_c, 0, 74, 60
1, 85681, Note_on_c, 0, 78, 66
1, 85758, Note_off_c, 0, 78, 62
1, 85770, Note_on_c, 0, 76, 68
1, 85777, Note_on_c, 0, 49, 62
1, 85785, Note_on_c, 0, 57, 45
1, 85807, Note_off_c, 0, 49, 65
1, 85815, Note_off_c, 0, 57, 55
1, 85816, Note_off_c, 0, 76, 61
1, 85848, Note_on_c, 0, 79, 64
1, 85922, Note_on_c, 0, 57, 46
1, 85925, Note_off_c, 0, 79, 57
1, 85927, Note_on_c, 0, 78, 69
1, 85943, Note_on_c, 0, 50, 44
1, 85990, Note_off_c, 0, 78, 63
1, 86004, Note_on_c, 0, 76, 66
1, 86046, Note_off_c, 0, 76, 61
1, 86078, Note_on_c, 0, 74, 68
1, 86104, Control_c, 0, 67, 75
1, 86119, Control_c, 0, 67, 72
1, 86125, Note_off_c, 0, 74, 62
1, 86134, Control_c, 0, 67, 66
1, 86143, Note_off_c, 0, 50, 64
1, 86147, Note_on_c, 0, 73, 75
1, 86149, Control_c, 0, 67, 55
1, 86156, Note_off_c, 0, 57, 61
1, 86163, Control_c, 0, 67, 21
1, 86178, Control_c, 0, 67, 0
1, 86193, Note_off_c, 0, 73, 61
1, 86224, Note_on_c, 0, 74, 77
1, 86278, Note_off_c, 0, 74, 62
1, 86286, Note_on_c, 0, 76, 79
1, 86336, Note_off_c, 0, 76, 56
1, 86362, Note_on_c, 0, 51, 78
1, 86363, Note_on_c, 0, 78, 83
1, 86363, Note_on_c, 0, 59, 75
1, 86387, Note_off_c, 0, 59, 65
1, 86393, Note_off_c, 0, 51, 66
1, 86441, Note_off_c, 0, 78, 63
1, 86444, Note_on_c, 0, 81, 77
1, 86512, Note_on_c, 0, 59, 80
1, 86522, Note_on_c, 0, 52, 70
1, 86529, Note_on_c, 0, 79, 77
1, 86535, Note_off_c, 0, 81, 60
1, 86599, Note_on_c, 0, 78, 79
1, 86601, Control_c, 0, 67, 26
1, 86613, Note_off_c, 0, 79, 60
1, 86616, Control_c, 0, 67, 80
1, 86627, Note_off_c, 0, 59, 61
1, 86631, Control_c, 0, 67, 122
1, 86635, Note_off_c, 0, 52, 63
1, 86646, Control_c, 0, 67, 127
1, 86656, Note_off_c, 0, 78, 65
1, 86676, Note_on_c, 0, 76, 77
1, 86723, Note_off_c, 0, 76, 61
1, 86748, Note_on_c, 0, 75, 72
1, 86793, Note_off_c, 0, 75, 60
1, 86828, Note_on_c, 0, 76, 68
1, 86876, Note_off_c, 0, 76, 59
1, 86896, Note_on_c, 0, 78, 63
1, 86955, Note_off_c, 0, 78, 59
1, 86980, Note_on_c, 0, 79, 65
1, 86992, Note_on_c, 0, 59, 48
1, 87001, Note_on_c, 0, 51, 33
1, 87019, Note_off_c, 0, 59, 56
1, 87038, Note_off_c, 0, 51, 49
1, 87046, Note_off_c, 0, 79, 60
1, 87064, Note_on_c, 0, 81, 61
1, 87132, Note_off_c, 0, 81, 59
1, 87135, Note_on_c, 0, 59, 39
1, 87144, Note_on_c, 0, 52, 45
1, 87148, Note_on_c, 0, 79, 68
1, 87213, Note_off_c, 0, 79, 57
1, 87217, Note_on_c, 0, 78, 65
1, 87280, Note_off_c, 0, 78, 62
1, 87305, Note_on_c, 0, 76, 67
1, 87320, Note_off_c, 0, 52, 60
1, 87323, Note_off_c, 0, 59, 61
1, 87341, Note_off_c, 0, 76, 59
1, 87350, Control_c, 0, 67, 114
1, 87365, Control_c, 0, 67, 55
1, 87371, Note_on_c, 0, 75, 75
1, 87380, Control_c, 0, 67, 0
1, 87422, Note_off_c, 0, 75, 63
1, 87451, Note_on_c, 0, 76, 71
1, 87510, Note_off_c, 0, 76, 59
1, 87516, Note_on_c, 0, 78, 74
1, 87586, Note_off_c, 0, 78, 61
1, 87588, Note_on_c, 0, 61, 89
1, 87588, Note_on_c, 0, 79, 81
1, 87592, Note_on_c, 0, 52, 79
1, 87621, Note_off_c, 0, 52, 65
1, 87639, Note_off_c, 0, 61, 59
1, 87663, Note_off_c, 0, 79, 62
1, 87672, Note_on_c, 0, 83, 79
1, 87743, Note_on_c, 0, 62, 87
1, 87744, Note_on_c, 0, 54, 78
1, 87752, Note_on_c, 0, 81, 81
1, 87758, Note_off_c, 0, 83, 64
1, 87830, Note_on_c, 0, 79, 77
1, 87843, Note_off_c, 0, 81, 58
1, 87883, Control_c, 0, 67, 53
1, 87891, Note_off_c, 0, 62, 61
1, 87898, Control_c, 0, 67, 80
1, 87899, Note_off_c, 0, 54, 64
1, 87902, Note_on_c, 0, 78, 82
1, 87910, Note_off_c, 0, 79, 59
1, 87913, Control_c, 0, 67, 99
1, 87927, Control_c, 0, 67, 127
1, 87953, Note_off_c, 0, 78, 65
1, 87977, Note_on_c, 0, 76, 73
1, 88045, Note_off_c, 0, 76, 57
1, 88063, Note_on_c, 0, 78, 72
1, 88122, Note_off_c, 0, 78, 58
1, 88140, Note_on_c, 0, 79, 72
1, 88212, Note_off_c, 0, 79, 60
1, 88221, Note_on_c, 0, 81, 69
1, 88227, Note_on_c, 0, 61, 55
1, 88229, Note_on_c, 0, 52, 55
1, 88259, Note_off_c, 0, 61, 54
1, 88265, Note_off_c, 0, 52, 63
1, 88282, Note_off_c, 0, 81, 63
1, 88301, Note_on_c, 0, 83, 66
1, 88364, Note_off_c, 0, 83, 64
1, 88377, Note_on_c, 0, 81, 71
1, 88381, Note_on_c, 0, 54, 50
1, 88383, Note_on_c, 0, 62, 47
1, 88442, Note_off_c, 0, 81, 60
1, 88450, Note_on_c, 0, 79, 70
1, 88522, Note_off_c, 0, 79, 61
1, 88525, Note_on_c, 0, 78, 70
1, 88542, Control_c, 0, 67, 125
1, 88543, Note_off_c, 0, 54, 65
1, 88557, Control_c, 0, 67, 94
1, 88558, Note_off_c, 0, 62, 56
1, 88563, Note_off_c, 0, 78, 64
1, 88572, Control_c, 0, 67, 41
1, 88587, Control_c, 0, 67, 0
1, 88596, Note_on_c, 0, 76, 67
1, 88627, Note_off_c, 0, 76, 62
1, 88668, Note_on_c, 0, 78, 75
1, 88706, Note_off_c, 0, 78, 63
1, 88752, Note_on_c, 0, 79, 67
1, 88796, Note_off_c, 0, 79, 54
1, 88823, Note_on_c, 0, 81, 82
1, 88825, Note_on_c, 0, 66, 82
1, 88847, Note_off_c, 0, 66, 69
1, 88868, Note_off_c, 0, 81, 61
1, 88896, Note_on_c, 0, 84, 81
1, 88972, Note_on_c, 0, 83, 80
1, 88975, Note_off_c, 0, 84, 63
1, 88977, Note_on_c, 0, 67, 80
1, 89004, Note_off_c, 0, 67, 63
1, 89033, Note_off_c, 0, 83, 63
1, 89040, Note_on_c, 0, 86, 83
1, 89112, Note_off_c, 0, 86, 58
1, 89121, Note_on_c, 0, 66, 77
1, 89123, Note_on_c, 0, 81, 85
1, 89144, Note_off_c, 0, 66, 68
1, 89168, Note_off_c, 0, 81, 61
1, 89196, Note_on_c, 0, 86, 80
1, 89217, Control_c, 0, 67, 23
1, 89232, Control_c, 0, 67, 70
1, 89247, Control_c, 0, 67, 122
1, 89250, Note_off_c, 0, 86, 63
1, 89262, Control_c, 0, 67, 127
1, 89264, Note_on_c, 0, 67, 68
1, 89270, Note_on_c, 0, 83, 76
1, 89290, Note_off_c, 0, 67, 67
1, 89318, Note_off_c, 0, 83, 65
1, 89341, Note_on_c, 0, 86, 66
1, 89386, Note_off_c, 0, 86, 64
1, 89413, Note_on_c, 0, 78, 65
1, 89422, Note_on_c, 0, 63, 48
1, 89450, Note_off_c, 0, 63, 59
1, 89461, Note_off_c, 0, 78, 56
1, 89497, Note_on_c, 0, 83, 54
1, 89542, Note_off_c, 0, 83, 51
1, 89568, Note_on_c, 0, 79, 68
1, 89580, Note_on_c, 0, 64, 50
1, 89604, Note_off_c, 0, 64, 60
1, 89616, Note_off_c, 0, 79, 51
1, 89644, Note_on_c, 0, 83, 66
1, 89708, Note_off_c, 0, 83, 63
1, 89714, Note_on_c, 0, 63, 63
1, 89721, Note_on_c, 0, 78, 66
1, 89744, Note_off_c, 0, 63, 66
1, 89759, Note_off_c, 0, 78, 55
1, 89794, Note_on_c, 0, 83, 60
1, 89803, Control_c, 0, 67, 122
1, 89818, Control_c, 0, 67, 79
1, 89833, Control_c, 0, 67, 11
1, 89848, Control_c, 0, 67, 0
1, 89850, Note_off_c, 0, 83, 60
1, 89863, Note_on_c, 0, 64, 59
1, 89866, Note_on_c, 0, 79, 72
1, 89895, Note_off_c, 0, 64, 65
1, 89908, Note_off_c, 0, 79, 55
1, 89938, Note_on_c, 0, 83, 75
1, 89993, Note_off_c, 0, 83, 60
1, 90001, Note_on_c, 0, 61, 75
1, 90011, Note_on_c, 0, 76, 82
1, 90030, Note_off_c, 0, 61, 63
1, 90061, Note_off_c, 0, 76, 58
1, 90076, Note_on_c, 0, 81, 74
1, 90144, Note_off_c, 0, 81, 62
1, 90152, Note_on_c, 0, 62, 64
1, 90155, Note_on_c, 0, 78, 69
1, 90182, Note_off_c, 0, 62, 64
1, 90214, Note_off_c, 0, 78, 63
1, 90224, Note_on_c, 0, 81, 65
1, 90297, Note_on_c, 0, 61, 71
1, 90298, Note_off_c, 0, 81, 62
1, 90307, Note_on_c, 0, 76, 67
1, 90325, Note_off_c, 0, 61, 63
1, 90329, Control_c, 0, 67, 12
1, 90344, Control_c, 0, 67, 31
1, 90349, Note_off_c, 0, 76, 56
1, 90359, Control_c, 0, 67, 56
1, 90375, Control_c, 0, 67, 98
1, 90376, Note_on_c, 0, 81, 57
1, 90390, Control_c, 0, 67, 127
1, 90427, Note_off_c, 0, 81, 60
1, 90455, Note_on_c, 0, 78, 56
1, 90456, Note_on_c, 0, 62, 56
1, 90488, Note_off_c, 0, 62, 62
1, 90492, Note_off_c, 0, 78, 62
1, 90527, Note_on_c, 0, 81, 59
1, 90568, Note_off_c, 0, 81, 60
1, 90611, Note_on_c, 0, 58, 58
1, 90612, Note_on_c, 0, 73, 57
1, 90642, Note_off_c, 0, 58, 64
1, 90659, Note_off_c, 0, 73, 58
1, 90682, Note_on_c, 0, 78, 58
1, 90735, Note_off_c, 0, 78, 52
1, 90754, Note_on_c, 0, 74, 69
1, 90768, Note_on_c, 0, 59, 58
1, 90799, Note_off_c, 0, 59, 60
1, 90808, Note_off_c, 0, 74, 58
1, 90838, Note_on_c, 0, 78, 63
1, 90883, Note_off_c, 0, 78, 58
1, 90906, Note_on_c, 0, 58, 61
1, 90911, Note_on_c, 0, 73, 71
1, 90938, Note_off_c, 0, 58, 63
1, 90956, Note_off_c, 0, 73, 60
1, 90997, Note_on_c, 0, 78, 61
1, 91033, Note_off_c, 0, 78, 58
1, 91066, Note_on_c, 0, 74, 64
1, 91067, Note_on_c, 0, 59, 60
1, 91094, Note_off_c, 0, 74, 66
1, 91097, Note_off_c, 0, 59, 58
1, 91136, Note_on_c, 0, 78, 59
1, 91209, Note_off_c, 0, 78, 62
1, 91219, Note_on_c, 0, 75, 64
1, 91221, Note_on_c, 0, 60, 52
1, 91230, Note_on_c, 0, 57, 48
1, 91248, Note_off_c, 0, 60, 58
1, 91256, Note_off_c, 0, 75, 56
1, 91257, Note_off_c, 0, 57, 59
1, 91294, Note_on_c, 0, 78, 58
1, 91362, Note_off_c, 0, 78, 60
1, 91372, Note_on_c, 0, 76, 69
1, 91376, Note_on_c, 0, 59, 50
1, 91379, Note_on_c, 0, 55, 45
1, 91434, Note_off_c, 0, 76, 60
1, 91443, Note_on_c, 0, 75, 73
1, 91486, Note_off_c, 0, 75, 62
1, 91520, Note_on_c, 0, 76, 64
1, 91569, Note_off_c, 0, 76, 57
1, 91589, Note_on_c, 0, 78, 72
1, 91598, Control_c, 0, 67, 122
1, 91612, Control_c, 0, 67, 102
1, 91627, Control_c, 0, 67, 69
1, 91640, Note_off_c, 0, 78, 58
1, 91642, Control_c, 0, 67, 28
1, 91657, Control_c, 0, 67, 0
1, 91660, Note_off_c, 0, 55, 61
1, 91663, Note_on_c, 0, 79, 70
1, 91665, Note_off_c, 0, 59, 60
1, 91722, Note_off_c, 0, 79, 62
1, 91746, Note_on_c, 0, 78, 71
1, 91771, Note_off_c, 0, 78, 66
1, 91822, Note_on_c, 0, 79, 56
1, 91861, Note_off_c, 0, 79, 59
1, 91885, Note_on_c, 0, 81, 67
1, 91926, Note_off_c, 0, 81, 56
1, 91963, Note_on_c, 0, 55, 54
1, 91963, Note_on_c, 0, 83, 69
1, 91973, Note_on_c, 0, 64, 41
1, 91989, Note_off_c, 0, 55, 58
1, 92002, Note_off_c, 0, 64, 55
1, 92017, Note_off_c, 0, 83, 62
1, 92039, Note_on_c, 0, 85, 72
1, 92108, Note_off_c, 0, 85, 63
1, 92109, Note_on_c, 0, 55, 52
1, 92112, Note_on_c, 0, 64, 48
1, 92114, Note_on_c, 0, 86, 73
1, 92140, Note_off_c, 0, 55, 63
1, 92143, Note_off_c, 0, 64, 59
1, 92191, Note_on_c, 0, 85, 78
1, 92193, Note_off_c, 0, 86, 64
1, 92266, Note_on_c, 0, 83, 80
1, 92276, Note_on_c, 0, 64, 50
1, 92277, Note_on_c, 0, 55, 54
1, 92290, Note_off_c, 0, 85, 57
1, 92302, Note_off_c, 0, 55, 60
1, 92302, Note_off_c, 0, 64, 59
1, 92341, Note_on_c, 0, 81, 82
1, 92362, Note_off_c, 0, 83, 61
1, 92412, Note_off_c, 0, 81, 62
1, 92423, Note_on_c, 0, 79, 79
1, 92428, Note_on_c, 0, 55, 54
1, 92430, Note_on_c, 0, 64, 52
1, 92460, Note_off_c, 0, 64, 58
1, 92462, Note_off_c, 0, 55, 62
1, 92483, Note_off_c, 0, 79, 60
1, 92497, Note_on_c, 0, 78, 78
1, 92568, Note_off_c, 0, 78, 64
1, 92572, Note_on_c, 0, 76, 80
1, 92583, Note_on_c, 0, 55, 64
1, 92583, Note_on_c, 0, 64, 60
1, 92626, Note_off_c, 0, 55, 63
1, 92629, Note_off_c, 0, 64, 56
1, 92640, Note_on_c, 0, 78, 80
1, 92644, Note_off_c, 0, 76, 62
1, 92720, Note_off_c, 0, 78, 63
1, 92722, Note_on_c, 0, 79, 82
1, 92731, Note_on_c, 0, 64, 69
1, 92734, Note_on_c, 0, 55, 68
1, 92784, Note_off_c, 0, 55, 60
1, 92787, Note_off_c, 0, 64, 61
1, 92799, Note_on_c, 0, 78, 81
1, 92818, Note_off_c, 0, 79, 59
1, 92880, Note_on_c, 0, 76, 82
1, 92883, Note_on_c, 0, 64, 76
1, 92887, Control_c, 0, 64, 29
1, 92889, Note_on_c, 0, 56, 67
1, 92892, Note_off_c, 0, 78, 64
1, 92902, Control_c, 0, 64, 0
1, 92922, Note_off_c, 0, 56, 65
1, 92934, Note_off_c, 0, 64, 60
1, 92936, Note_off_c, 0, 76, 61
1, 92962, Note_on_c, 0, 74, 74
1, 93021, Note_off_c, 0, 74, 59
1, 93026, Note_on_c, 0, 73, 79
1, 93032, Note_on_c, 0, 56, 78
1, 93038, Note_on_c, 0, 64, 68
1, 93057, Note_off_c, 0, 64, 68
1, 93065, Note_off_c, 0, 56, 60
1, 93101, Note_off_c, 0, 73, 63
1, 93109, Note_on_c, 0, 71, 71
1, 93175, Note_on_c, 0, 73, 74
1, 93177, Note_off_c, 0, 71, 63
1, 93185, Note_on_c, 0, 57, 75
1, 93217, Note_off_c, 0, 57, 61
1, 93251, Note_off_c, 0, 73, 62
1, 93257, Note_on_c, 0, 74, 82
1, 93326, Note_on_c, 0, 73, 81
1, 93343, Note_on_c, 0, 55, 71
1, 93346, Note_off_c, 0, 74, 62
1, 93377, Note_off_c, 0, 55, 63
1, 93394, Note_off_c, 0, 73, 63
1, 93407, Note_on_c, 0, 69, 72
1, 93477, Note_off_c, 0, 69, 57
1, 93488, Note_on_c, 0, 74, 80
1, 93491, Note_on_c, 0, 54, 67
1, 93531, Note_off_c, 0, 54, 65
1, 93618, Note_off_c, 0, 74, 66
1, 93646, Note_on_c, 0, 50, 68
1, 93680, Note_off_c, 0, 50, 69
1, 93804, Note_on_c, 0, 49, 68
1, 93808, Note_on_c, 0, 79, 78
1, 93867, Note_off_c, 0, 49, 62
1, 93871, Note_off_c, 0, 79, 63
1, 93875, Note_on_c, 0, 81, 76
1, 93950, Note_on_c, 0, 45, 74
1, 93954, Note_on_c, 0, 79, 87
1, 93989, Note_off_c, 0, 81, 62
1, 94027, Note_off_c, 0, 79, 63
1, 94034, Note_off_c, 0, 45, 62
1, 94039, Note_on_c, 0, 76, 77
1, 94093, Note_off_c, 0, 76, 60
1, 94111, Note_on_c, 0, 50, 79
1, 94118, Note_on_c, 0, 79, 84
1, 94185, Note_on_c, 0, 78, 78
1, 94185, Note_off_c, 0, 50, 64
1, 94213, Note_off_c, 0, 79, 60
1, 94261, Note_on_c, 0, 54, 80
1, 94266, Note_on_c, 0, 76, 80
1, 94285, Note_off_c, 0, 78, 65
1, 94311, Note_off_c, 0, 54, 63
1, 94323, Note_off_c, 0, 76, 62
1, 94334, Note_on_c, 0, 74, 79
1, 94403, Note_off_c, 0, 74, 61
1, 94409, Note_on_c, 0, 73, 80
1, 94409, Note_on_c, 0, 57, 68
1, 94457, Note_off_c, 0, 57, 56
1, 94477, Note_off_c, 0, 73, 62
1, 94483, Note_on_c, 0, 74, 70
1, 94557, Note_on_c, 0, 73, 85
1, 94560, Note_on_c, 0, 55, 69
1, 94570, Note_off_c, 0, 74, 63
1, 94594, Note_off_c, 0, 55, 60
1, 94618, Note_off_c, 0, 73, 63
1, 94630, Note_on_c, 0, 69, 71
1, 94704, Note_off_c, 0, 69, 55
1, 94707, Note_on_c, 0, 74, 76
1, 94710, Note_on_c, 0, 54, 68
1, 94759, Note_off_c, 0, 54, 61
1, 94809, Note_off_c, 0, 74, 66
1, 94870, Note_on_c, 0, 50, 68
1, 94897, Note_off_c, 0, 50, 68
1, 95023, Note_on_c, 0, 79, 77
1, 95025, Note_on_c, 0, 49, 64
1, 95065, Note_off_c, 0, 49, 61
1, 95090, Note_off_c, 0, 79, 62
1, 95097, Note_on_c, 0, 81, 78
1, 95169, Note_on_c, 0, 45, 69
1, 95169, Note_on_c, 0, 79, 86
1, 95202, Note_off_c, 0, 81, 62
1, 95203, Note_off_c, 0, 45, 64
1, 95236, Note_off_c, 0, 79, 63
1, 95249, Note_on_c, 0, 76, 76
1, 95290, Note_off_c, 0, 76, 57
1, 95320, Note_on_c, 0, 50, 66
1, 95325, Note_on_c, 0, 79, 82
1, 95357, Note_off_c, 0, 50, 67
1, 95396, Note_on_c, 0, 78, 74
1, 95405, Note_off_c, 0, 79, 59
1, 95462, Note_on_c, 0, 54, 71
1, 95473, Note_on_c, 0, 76, 72
1, 95489, Note_off_c, 0, 78, 64
1, 95503, Note_off_c, 0, 54, 64
1, 95524, Note_off_c, 0, 76, 63
1, 95553, Note_on_c, 0, 74, 66
1, 95586, Note_off_c, 0, 74, 62
1, 95623, Note_on_c, 0, 73, 74
1, 95628, Note_on_c, 0, 52, 62
1, 95629, Note_on_c, 0, 57, 63
1, 95638, Note_on_c, 0, 45, 60
1, 95685, Note_off_c, 0, 73, 62
1, 95693, Note_on_c, 0, 76, 70
1, 95774, Note_on_c, 0, 73, 72
1, 95776, Note_off_c, 0, 76, 58
1, 95783, Note_off_c, 0, 57, 48
1, 95814, Note_off_c, 0, 73, 62
1, 95826, Note_off_c, 0, 52, 57
1, 95853, Note_on_c, 0, 69, 64
1, 95916, Note_off_c, 0, 69, 57
1, 95938, Note_off_c, 0, 45, 38
1, 95946, Note_on_c, 0, 78, 83
1, 95947, Note_on_c, 0, 54, 73
1, 95949, Note_on_c, 0, 57, 69
1, 95952, Note_on_c, 0, 50, 69
1, 96015, Note_off_c, 0, 78, 64
1, 96023, Note_on_c, 0, 81, 78
1, 96047, Note_off_c, 0, 54, 52
1, 96112, Note_off_c, 0, 57, 37
1, 96115, Note_on_c, 0, 78, 66
1, 96117, Note_off_c, 0, 81, 56
1, 96164, Note_off_c, 0, 78, 61
1, 96170, Note_on_c, 0, 74, 70
1, 96197, Note_off_c, 0, 50, 63
1, 96240, Note_off_c, 0, 74, 59
1, 96255, Note_on_c, 0, 52, 79
1, 96257, Note_on_c, 0, 73, 85
1, 96259, Note_on_c, 0, 57, 78
1, 96267, Note_on_c, 0, 45, 74
1, 96331, Note_off_c, 0, 73, 61
1, 96332, Note_on_c, 0, 76, 84
1, 96399, Note_off_c, 0, 52, 35
1, 96418, Note_on_c, 0, 73, 78
1, 96428, Note_off_c, 0, 57, 36
1, 96430, Note_off_c, 0, 76, 60
1, 96470, Note_off_c, 0, 73, 63
1, 96489, Note_on_c, 0, 69, 74
1, 96512, Control_c, 0, 64, 70
1, 96527, Control_c, 0, 64, 90
1, 96542, Control_c, 0, 64, 127
1, 96554, Note_off_c, 0, 69, 60
1, 96567, Note_on_c, 0, 54, 83
1, 96570, Note_on_c, 0, 78, 88
1, 96571, Note_on_c, 0, 50, 79
1, 96571, Control_c, 0, 64, 93
1, 96573, Note_on_c, 0, 57, 78
1, 96586, Control_c, 0, 64, 65
1, 96588, Note_off_c, 0, 45, 37
1, 96601, Control_c, 0, 64, 0
1, 96641, Note_off_c, 0, 78, 66
1, 96647, Note_on_c, 0, 81, 82
1, 96721, Note_on_c, 0, 78, 76
1, 96730, Note_off_c, 0, 81, 58
1, 96784, Note_on_c, 0, 74, 75
1, 96785, Note_off_c, 0, 78, 64
1, 96814, Note_off_c, 0, 74, 60
1, 96851, Note_off_c, 0, 54, 64
1, 96854, Note_on_c, 0, 76, 81
1, 96857, Note_off_c, 0, 50, 64
1, 96859, Note_on_c, 0, 73, 78
1, 96866, Note_off_c, 0, 57, 51
1, 96875, Note_off_c, 0, 76, 69
1, 96880, Note_off_c, 0, 73, 70
1, 97020, Note_on_c, 0, 81, 80
1, 97030, Note_on_c, 0, 57, 69
1, 97031, Note_on_c, 0, 52, 68
1, 97032, Note_on_c, 0, 73, 71
1, 97033, Note_on_c, 0, 49, 66
1, 97034, Note_on_c, 0, 45, 68
1, 97044, Note_on_c, 0, 76, 49
1, 97050, Note_off_c, 0, 73, 67
1, 97057, Note_off_c, 0, 81, 64
1, 97058, Note_off_c, 0, 57, 64
1, 97059, Note_off_c, 0, 52, 65
1, 97062, Note_off_c, 0, 49, 64
1, 97063, Note_off_c, 0, 45, 65
1, 97070, Note_off_c, 0, 76, 57
1, 97167, Note_on_c, 0, 81, 84
1, 97172, Note_on_c, 0, 76, 74
1, 97173, Note_on_c, 0, 49, 65
1, 97173, Note_on_c, 0, 52, 69
1, 97175, Note_on_c, 0, 57, 72
1, 97175, Note_on_c, 0, 73, 71
1, 97179, Note_on_c, 0, 45, 62
1, 97198, Note_off_c, 0, 57, 66
1, 97199, Note_off_c, 0, 73, 67
1, 97207, Note_off_c, 0, 76, 60
1, 97207, Note_off_c, 0, 81, 63
1, 97208, Note_off_c, 0, 45, 65
1, 97208, Note_off_c, 0, 52, 64
1, 97210, Note_off_c, 0, 49, 64
1, 97311, Note_on_c, 0, 81, 87
1, 97314, Note_on_c, 0, 73, 77
1, 97317, Note_on_c, 0, 49, 70
1, 97318, Note_on_c, 0, 52, 67
1, 97318, Note_on_c, 0, 76, 79
1, 97319, Note_on_c, 0, 57, 66
1, 97327, Note_on_c, 0, 45, 54
1, 97343, Note_off_c, 0, 73, 65
1, 97348, Note_off_c, 0, 57, 66
1, 97348, Note_off_c, 0, 76, 59
1, 97349, Note_off_c, 0, 52, 63
1, 97354, Note_off_c, 0, 49, 65
1, 97355, Note_off_c, 0, 45, 61
1, 97361, Note_off_c, 0, 81, 62
1, 97487, Note_on_c, 0, 81, 82
1, 97500, Note_on_c, 0, 76, 68
1, 97503, Note_on_c, 0, 57, 67
1, 97504, Note_on_c, 0, 73, 70
1, 97506, Note_on_c, 0, 45, 56
1, 97510, Note_on_c, 0, 52, 53
1, 97513, Control_c, 0, 64, 62
1, 97519, Note_on_c, 0, 49, 54
1, 97528, Control_c, 0, 64, 66
1, 97531, Note_off_c, 0, 73, 67
1, 97531, Note_off_c, 0, 57, 66
1, 97539, Note_off_c, 0, 76, 59
1, 97540, Note_off_c, 0, 45, 65
1, 97542, Note_off_c, 0, 52, 64
1, 97543, Control_c, 0, 64, 72
1, 97548, Note_off_c, 0, 49, 62
1, 97549, Note_off_c, 0, 81, 63
1, 97559, Control_c, 0, 64, 83
1, 97574, Control_c, 0, 64, 104
1, 97589, Control_c, 0, 64, 127
1, 97707, Control_c, 0, 67, 34
1, 97722, Control_c, 0, 64, 89
1, 97722, Control_c, 0, 67, 87
1, 97744, Control_c, 0, 64, 67
1, 97744, Control_c, 0, 67, 127
1, 97759, Control_c, 0, 64, 0
1, 97983, Note_on_c, 0, 79, 53
1, 98047, Note_on_c, 0, 78, 67
1, 98066, Note_off_c, 0, 79, 58
1, 98100, Note_off_c, 0, 78, 62
1, 98114, Note_on_c, 0, 76, 67
1, 98156, Note_off_c, 0, 76, 61
1, 98177, Note_on_c, 0, 78, 67
1, 98241, Note_off_c, 0, 78, 63
1, 98257, Note_on_c, 0, 79, 68
1, 98391, Note_off_c, 0, 79, 54
1, 98406, Note_on_c, 0, 80, 55
1, 98409, Note_on_c, 0, 62, 30
1, 98685, Note_on_c, 0, 81, 45
1, 98692, Note_off_c, 0, 80, 56
1, 98721, Note_on_c, 0, 66, 29
1, 98782, Note_off_c, 0, 81, 61
1, 98862, Note_on_c, 0, 64, 45
1, 98868, Note_off_c, 0, 62, 32
1, 98887, Note_off_c, 0, 66, 42
1, 98999, Note_on_c, 0, 81, 78
1, 99026, Note_on_c, 0, 67, 43
1, 99036, Note_off_c, 0, 64, 37
1, 99055, Note_off_c, 0, 81, 58
1, 99157, Note_off_c, 0, 67, 50
1, 99159, Note_on_c, 0, 86, 69
1, 99167, Note_on_c, 0, 66, 50
1, 99311, Note_off_c, 0, 66, 37
1, 99319, Note_on_c, 0, 85, 74
1, 99333, Note_on_c, 0, 69, 45
1, 99369, Note_off_c, 0, 86, 57
1, 99461, Note_off_c, 0, 69, 47
1, 99482, Note_on_c, 0, 83, 72
1, 99506, Note_on_c, 0, 62, 30
1, 99526, Note_off_c, 0, 85, 59
1, 99632, Note_off_c, 0, 83, 61
1, 99633, Note_on_c, 0, 81, 60
1, 99639, Note_on_c, 0, 66, 43
1, 99737, Note_off_c, 0, 62, 39
1, 99754, Note_off_c, 0, 66, 35
1, 99774, Note_off_c, 0, 81, 59
1, 99783, Note_on_c, 0, 78, 57
1, 99788, Note_on_c, 0, 64, 43
1, 99921, Note_off_c, 0, 64, 54
1, 99927, Note_off_c, 0, 78, 58
1, 99943, Note_on_c, 0, 79, 55
1, 99948, Note_on_c, 0, 71, 49
1, 99994, Note_off_c, 0, 79, 57
1, 100087, Note_off_c, 0, 71, 57
1, 100111, Note_on_c, 0, 67, 46
1, 100246, Note_off_c, 0, 67, 38
1, 100249, Note_on_c, 0, 79, 65
1, 100267, Note_on_c, 0, 64, 49
1, 100284, Note_off_c, 0, 79, 57
1, 100368, Note_off_c, 0, 64, 35
1, 100397, Note_on_c, 0, 81, 70
1, 100417, Note_on_c, 0, 61, 45
1, 100538, Note_off_c, 0, 61, 59
1, 100550, Note_on_c, 0, 79, 78
1, 100560, Note_on_c, 0, 64, 56
1, 100590, Note_off_c, 0, 81, 58
1, 100651, Note_off_c, 0, 64, 42
1, 100701, Note_on_c, 0, 78, 81
1, 100710, Note_on_c, 0, 57, 47
1, 100761, Note_off_c, 0, 79, 56
1, 100850, Note_on_c, 0, 76, 82
1, 100857, Note_off_c, 0, 57, 47
1, 100872, Note_on_c, 0, 67, 51
1, 100883, Note_off_c, 0, 78, 63
1, 100994, Note_off_c, 0, 67, 56
1, 101005, Note_on_c, 0, 73, 83
1, 101013, Note_on_c, 0, 66, 54
1, 101029, Note_off_c, 0, 76, 60
1, 101148, Note_on_c, 0, 74, 82
1, 101150, Note_off_c, 0, 73, 63
1, 101158, Note_on_c, 0, 69, 57
1, 101161, Note_off_c, 0, 66, 37
1, 101175, Note_off_c, 0, 74, 66
1, 101301, Note_on_c, 0, 61, 62
1, 101316, Note_off_c, 0, 69, 48
1, 101447, Note_off_c, 0, 61, 49
1, 101455, Note_on_c, 0, 76, 73
1, 101461, Note_on_c, 0, 69, 50
1, 101511, Note_off_c, 0, 76, 60
1, 101609, Note_on_c, 0, 77, 61
1, 101611, Note_off_c, 0, 69, 50
1, 101628, Note_on_c, 0, 62, 44
1, 101739, Note_off_c, 0, 77, 53
1, 101745, Note_off_c, 0, 62, 47
1, 101763, Note_on_c, 0, 78, 59
1, 101770, Note_on_c, 0, 69, 41
1, 101806, Note_off_c, 0, 78, 60
1, 101912, Note_off_c, 0, 69, 36
1, 101927, Note_on_c, 0, 59, 45
1, 102102, Note_on_c, 0, 81, 49
1, 102114, Note_on_c, 0, 62, 34
1, 102121, Note_off_c, 0, 59, 33
1, 102153, Note_off_c, 0, 81, 55
1, 102167, Note_on_c, 0, 79, 56
1, 102246, Note_off_c, 0, 79, 56
1, 102252, Note_on_c, 0, 78, 61
1, 102258, Note_off_c, 0, 62, 32
1, 102274, Note_on_c, 0, 57, 40
1, 102386, Control_c, 0, 64, 17
1, 102401, Control_c, 0, 64, 52
1, 102416, Note_on_c, 0, 62, 33
1, 102416, Control_c, 0, 64, 62
1, 102430, Control_c, 0, 64, 65
1, 102445, Control_c, 0, 64, 68
1, 102457, Note_off_c, 0, 57, 34
1, 102460, Control_c, 0, 64, 71
1, 102475, Control_c, 0, 64, 74
1, 102490, Control_c, 0, 64, 78
1, 102505, Control_c, 0, 64, 82
1, 102520, Control_c, 0, 64, 85
1, 102534, Control_c, 0, 64, 88
1, 102549, Control_c, 0, 64, 90
1, 102564, Control_c, 0, 64, 92
1, 102565, Note_on_c, 0, 66, 46
1, 102578, Control_c, 0, 64, 92
1, 102580, Note_off_c, 0, 62, 27
1, 102631, Note_off_c, 0, 78, 56
1, 102675, Note_off_c, 0, 66, 38
1, 102712, Control_c, 0, 64, 92
1, 102720, Note_on_c, 0, 79, 59
1, 102723, Note_on_c, 0, 62, 38
1, 102726, Control_c, 0, 64, 91
1, 102741, Control_c, 0, 64, 89
1, 102756, Control_c, 0, 64, 87
1, 102770, Note_on_c, 0, 78, 61
1, 102770, Control_c, 0, 64, 83
1, 102780, Note_off_c, 0, 79, 54
1, 102785, Control_c, 0, 64, 78
1, 102800, Control_c, 0, 64, 72
1, 102808, Note_off_c, 0, 62, 37
1, 102815, Control_c, 0, 64, 63
1, 102830, Control_c, 0, 64, 0
1, 102839, Note_off_c, 0, 78, 62
1, 102851, Note_on_c, 0, 76, 68
1, 102862, Note_on_c, 0, 61, 46
1, 102864, Note_on_c, 0, 57, 37
1, 102900, Note_off_c, 0, 76, 60
1, 102996, Note_off_c, 0, 57, 51
1, 103024, Note_on_c, 0, 78, 62
1, 103050, Note_off_c, 0, 61, 46
1, 103084, Note_off_c, 0, 78, 58
1, 103183, Note_on_c, 0, 79, 58
1, 103227, Note_off_c, 0, 79, 54
1, 103371, Note_on_c, 0, 80, 48
1, 103430, Note_off_c, 0, 80, 52
1, 103561, Note_on_c, 0, 80, 40
1, 103594, Note_on_c, 0, 62, 24
1, 103736, Note_on_c, 0, 81, 52
1, 103748, Note_on_c, 0, 65, 41
1, 103752, Note_off_c, 0, 80, 48
1, 103766, Note_off_c, 0, 81, 56
1, 103808, Note_off_c, 0, 65, 54
1, 103837, Note_off_c, 0, 62, 39
1, 103872, Note_on_c, 0, 64, 45
1, 103927, Note_on_c, 0, 81, 51
1, 103950, Note_off_c, 0, 81, 59
1, 103957, Note_on_c, 0, 82, 65
1, 103982, Note_off_c, 0, 64, 57
1, 103998, Note_off_c, 0, 82, 64
1, 104013, Note_on_c, 0, 81, 75
1, 104019, Note_on_c, 0, 67, 50
1, 104034, Note_off_c, 0, 81, 68
1, 104055, Note_on_c, 0, 80, 61
1, 104089, Note_off_c, 0, 80, 61
1, 104104, Note_on_c, 0, 81, 73
1, 104114, Note_off_c, 0, 67, 51
1, 104162, Note_off_c, 0, 81, 64
1, 104164, Note_on_c, 0, 86, 71
1, 104168, Note_on_c, 0, 65, 49
1, 104189, Note_off_c, 0, 86, 65
1, 104215, Note_off_c, 0, 65, 56
1, 104309, Note_on_c, 0, 69, 46
1, 104310, Note_on_c, 0, 84, 67
1, 104347, Note_off_c, 0, 84, 58
1, 104418, Note_off_c, 0, 69, 37
1, 104446, Note_on_c, 0, 82, 70
1, 104473, Note_on_c, 0, 62, 36
1, 104481, Note_off_c, 0, 82, 61
1, 104591, Note_on_c, 0, 81, 66
1, 104606, Note_on_c, 0, 65, 38
1, 104630, Note_off_c, 0, 81, 55
1, 104660, Note_off_c, 0, 62, 20
1, 104665, Note_off_c, 0, 65, 47
1, 104736, Note_on_c, 0, 64, 48
1, 104738, Note_on_c, 0, 78, 57
1, 104848, Note_off_c, 0, 78, 58
1, 104855, Note_off_c, 0, 64, 56
1, 104887, Note_on_c, 0, 79, 59
1, 104894, Note_on_c, 0, 70, 49
1, 104931, Note_off_c, 0, 79, 57
1, 104984, Note_off_c, 0, 70, 52
1, 105031, Note_on_c, 0, 67, 48
1, 105047, Note_on_c, 0, 79, 67
1, 105078, Note_off_c, 0, 79, 62
1, 105091, Note_on_c, 0, 81, 63
1, 105118, Note_off_c, 0, 67, 50
1, 105133, Note_off_c, 0, 81, 64
1, 105155, Note_on_c, 0, 79, 58
1, 105174, Note_off_c, 0, 79, 62
1, 105179, Note_on_c, 0, 64, 45
1, 105185, Note_on_c, 0, 78, 58
1, 105226, Note_off_c, 0, 78, 62
1, 105248, Note_on_c, 0, 79, 75
1, 105278, Note_off_c, 0, 64, 44
1, 105321, Note_off_c, 0, 79, 63
1, 105322, Note_on_c, 0, 81, 78
1, 105324, Note_on_c, 0, 61, 52
1, 105358, Note_off_c, 0, 81, 64
1, 105420, Note_off_c, 0, 61, 58
1, 105468, Note_on_c, 0, 79, 84
1, 105475, Note_on_c, 0, 64, 54
1, 105507, Note_off_c, 0, 79, 62
1, 105602, Note_off_c, 0, 64, 39
1, 105623, Note_on_c, 0, 77, 83
1, 105626, Note_on_c, 0, 57, 48
1, 105671, Note_off_c, 0, 77, 63
1, 105750, Note_off_c, 0, 57, 52
1, 105765, Note_on_c, 0, 76, 85
1, 105766, Note_on_c, 0, 61, 58
1, 105809, Note_off_c, 0, 76, 59
1, 105913, Note_on_c, 0, 79, 80
1, 105915, Note_off_c, 0, 61, 55
1, 105930, Note_on_c, 0, 62, 52
1, 106067, Note_off_c, 0, 62, 59
1, 106084, Note_on_c, 0, 77, 72
1, 106091, Note_on_c, 0, 69, 61
1, 106115, Note_off_c, 0, 79, 63
1, 106159, Note_off_c, 0, 77, 65
1, 106222, Note_on_c, 0, 60, 69
1, 106264, Note_off_c, 0, 69, 59
1, 106378, Note_on_c, 0, 69, 59
1, 106380, Note_on_c, 0, 76, 80
1, 106411, Note_off_c, 0, 60, 57
1, 106448, Note_off_c, 0, 76, 55
1, 106524, Note_off_c, 0, 69, 53
1, 106537, Note_on_c, 0, 73, 68
1, 106546, Note_on_c, 0, 58, 51
1, 106682, Note_off_c, 0, 73, 59
1, 106696, Note_on_c, 0, 74, 58
1, 106737, Note_on_c, 0, 65, 37
1, 106761, Note_off_c, 0, 74, 60
1, 106863, Note_off_c, 0, 65, 38
1, 106875, Note_on_c, 0, 64, 41
1, 106936, Control_c, 0, 64, 35
1, 106950, Control_c, 0, 64, 50
1, 106965, Control_c, 0, 64, 58
1, 106980, Control_c, 0, 64, 62
1, 106995, Control_c, 0, 64, 64
1, 107010, Control_c, 0, 64, 66
1, 107014, Note_off_c, 0, 64, 36
1, 107024, Control_c, 0, 64, 68
1, 107039, Control_c, 0, 64, 70
1, 107040, Note_on_c, 0, 80, 58
1, 107054, Note_off_c, 0, 58, 34
1, 107054, Control_c, 0, 64, 73
1, 107059, Note_on_c, 0, 62, 36
1, 107069, Control_c, 0, 64, 75
1, 107084, Control_c, 0, 64, 77
1, 107099, Control_c, 0, 64, 79
1, 107113, Control_c, 0, 64, 80
1, 107116, Note_off_c, 0, 80, 60
1, 107207, Note_off_c, 0, 62, 29
1, 107242, Note_on_c, 0, 80, 57
1, 107257, Note_on_c, 0, 57, 36
1, 107263, Control_c, 0, 64, 79
1, 107277, Control_c, 0, 64, 79
1, 107292, Control_c, 0, 64, 77
1, 107307, Control_c, 0, 64, 75
1, 107322, Control_c, 0, 64, 72
1, 107337, Control_c, 0, 64, 68
1, 107352, Control_c, 0, 64, 63
1, 107366, Control_c, 0, 64, 37
1, 107381, Control_c, 0, 64, 0
1, 107415, Note_on_c, 0, 62, 38
1, 107570, Note_on_c, 0, 65, 39
1, 107570, Note_off_c, 0, 62, 34
1, 107581, Control_c, 0, 64, 24
1, 107596, Control_c, 0, 64, 44
1, 107611, Control_c, 0, 64, 54
1, 107626, Control_c, 0, 64, 61
1, 107641, Control_c, 0, 64, 63
1, 107655, Control_c, 0, 64, 64
1, 107670, Control_c, 0, 64, 65
1, 107683, Note_off_c, 0, 57, 40
1, 107685, Control_c, 0, 64, 67
1, 107700, Control_c, 0, 64, 67
1, 107712, Note_off_c, 0, 65, 35
1, 107715, Note_on_c, 0, 62, 41
1, 107715, Control_c, 0, 64, 68
1, 107729, Control_c, 0, 64, 69
1, 107789, Note_off_c, 0, 62, 50
1, 107803, Control_c, 0, 64, 68
1, 107833, Control_c, 0, 64, 68
1, 107847, Control_c, 0, 64, 67
1, 107862, Control_c, 0, 64, 66
1, 107867, Note_on_c, 0, 81, 55
1, 107869, Note_off_c, 0, 80, 52
1, 107877, Note_on_c, 0, 61, 44
1, 107877, Control_c, 0, 64, 65
1, 107880, Note_on_c, 0, 57, 43
1, 107891, Control_c, 0, 64, 63
1, 107906, Control_c, 0, 64, 60
1, 107906, Control_c, 0, 67, 113
1, 107908, Note_off_c, 0, 61, 52
1, 107909, Note_off_c, 0, 57, 54
1, 107921, Control_c, 0, 64, 47
1, 107921, Control_c, 0, 67, 83
1, 107937, Control_c, 0, 64, 0
1, 107937, Control_c, 0, 67, 39
1, 107952, Control_c, 0, 67, 0
1, 108017, Note_on_c, 0, 55, 81
1, 108026, Note_on_c, 0, 43, 72
1, 108041, Note_off_c, 0, 55, 67
1, 108052, Note_off_c, 0, 43, 64
1, 108158, Note_on_c, 0, 42, 79
1, 108159, Note_on_c, 0, 54, 78
1, 108183, Note_off_c, 0, 54, 67
1, 108185, Note_off_c, 0, 42, 65
1, 108257, Note_off_c, 0, 81, 49
1, 108313, Note_on_c, 0, 52, 73
1, 108315, Note_on_c, 0, 40, 73
1, 108339, Note_off_c, 0, 52, 64
1, 108348, Note_off_c, 0, 40, 62
1, 108461, Note_on_c, 0, 50, 77
1, 108464, Note_on_c, 0, 78, 67
1, 108473, Note_on_c, 0, 38, 65
1, 108524, Note_on_c, 0, 81, 60
1, 108529, Note_off_c, 0, 78, 59
1, 108582, Note_off_c, 0, 38, 62
1, 108593, Note_off_c, 0, 81, 63
1, 108603, Note_on_c, 0, 80, 69
1, 108620, Note_off_c, 0, 50, 67
1, 108664, Note_off_c, 0, 80, 61
1, 108672, Note_on_c, 0, 81, 68
1, 108728, Note_off_c, 0, 81, 61
1, 108743, Note_on_c, 0, 83, 67
1, 108810, Note_off_c, 0, 83, 62
1, 108813, Note_on_c, 0, 81, 64
1, 108873, Note_off_c, 0, 81, 62
1, 108882, Note_on_c, 0, 74, 75
1, 108884, Note_on_c, 0, 80, 64
1, 108916, Note_off_c, 0, 74, 60
1, 108930, Note_off_c, 0, 80, 58
1, 108950, Note_on_c, 0, 81, 61
1, 109014, Note_off_c, 0, 81, 62
1, 109032, Note_on_c, 0, 76, 67
1, 109032, Note_on_c, 0, 79, 71
1, 109070, Note_off_c, 0, 79, 60
1, 109081, Note_off_c, 0, 76, 59
1, 109092, Note_on_c, 0, 81, 63
1, 109146, Note_off_c, 0, 81, 61
1, 109166, Note_on_c, 0, 79, 72
1, 109177, Note_on_c, 0, 74, 66
1, 109202, Note_off_c, 0, 79, 60
1, 109209, Note_off_c, 0, 74, 64
1, 109220, Note_on_c, 0, 81, 65
1, 109284, Note_off_c, 0, 81, 62
1, 109304, Note_on_c, 0, 79, 75
1, 109322, Note_on_c, 0, 73, 61
1, 109341, Note_off_c, 0, 79, 60
1, 109359, Note_off_c, 0, 73, 60
1, 109364, Note_on_c, 0, 81, 62
1, 109424, Note_off_c, 0, 81, 61
1, 109449, Note_on_c, 0, 79, 66
1, 109456, Note_on_c, 0, 69, 53
1, 109476, Note_off_c, 0, 79, 66
1, 109489, Note_off_c, 0, 69, 62
1, 109505, Note_on_c, 0, 81, 57
1, 109573, Note_off_c, 0, 81, 62
1, 109594, Note_on_c, 0, 74, 59
1, 109600, Note_on_c, 0, 78, 65
1, 109658, Note_off_c, 0, 78, 57
1, 109670, Note_on_c, 0, 81, 63
1, 109740, Note_off_c, 0, 81, 62
1, 109741, Note_off_c, 0, 74, 66
1, 109753, Note_on_c, 0, 80, 65
1, 109807, Note_off_c, 0, 80, 60
1, 109815, Note_on_c, 0, 81, 70
1, 109874, Note_off_c, 0, 81, 61
1, 109895, Note_on_c, 0, 83, 69
1, 109957, Note_on_c, 0, 81, 74
1, 109969, Note_off_c, 0, 83, 61
1, 110020, Note_on_c, 0, 62, 79
1, 110023, Note_off_c, 0, 81, 63
1, 110028, Note_on_c, 0, 80, 73
1, 110043, Note_off_c, 0, 62, 66
1, 110087, Note_off_c, 0, 80, 62
1, 110088, Note_on_c, 0, 81, 64
1, 110156, Note_off_c, 0, 81, 62
1, 110162, Note_on_c, 0, 64, 79
1, 110169, Note_on_c, 0, 79, 77
1, 110195, Note_off_c, 0, 64, 66
1, 110208, Note_off_c, 0, 79, 61
1, 110227, Note_on_c, 0, 81, 66
1, 110287, Note_off_c, 0, 81, 61
1, 110306, Note_on_c, 0, 62, 70
1, 110309, Note_on_c, 0, 79, 74
1, 110333, Note_off_c, 0, 62, 67
1, 110341, Note_off_c, 0, 79, 59
1, 110371, Note_on_c, 0, 81, 65
1, 110430, Note_off_c, 0, 81, 61
1, 110444, Note_on_c, 0, 61, 64
1, 110447, Note_on_c, 0, 79, 73
1, 110485, Note_off_c, 0, 61, 61
1, 110496, Note_off_c, 0, 79, 60
1, 110522, Note_on_c, 0, 81, 64
1, 110577, Note_off_c, 0, 81, 61
1, 110593, Note_on_c, 0, 57, 57
1, 110598, Note_on_c, 0, 79, 69
1, 110617, Note_off_c, 0, 57, 59
1, 110624, Note_off_c, 0, 79, 65
1, 110660, Note_on_c, 0, 81, 52
1, 110707, Note_off_c, 0, 81, 60
1, 110742, Note_on_c, 0, 62, 60
1, 110747, Note_on_c, 0, 78, 65
1, 110780, Note_off_c, 0, 62, 60
1, 110820, Note_on_c, 0, 69, 52
1, 110857, Note_off_c, 0, 69, 61
1, 110884, Note_off_c, 0, 78, 54
1, 110937, Note_on_c, 0, 69, 69
1, 111006, Note_off_c, 0, 69, 40
1, 111019, Note_on_c, 0, 71, 70
1, 111043, Note_off_c, 0, 71, 71
1, 111084, Note_on_c, 0, 69, 64
1, 111120, Note_off_c, 0, 69, 59
1, 111147, Note_on_c, 0, 86, 81
1, 111159, Note_on_c, 0, 68, 66
1, 111176, Note_off_c, 0, 86, 62
1, 111185, Note_off_c, 0, 68, 65
1, 111230, Note_on_c, 0, 69, 66
1, 111274, Note_off_c, 0, 69, 54
1, 111290, Note_on_c, 0, 88, 88
1, 111305, Note_on_c, 0, 67, 60
1, 111327, Note_off_c, 0, 67, 63
1, 111329, Note_off_c, 0, 88, 65
1, 111364, Note_on_c, 0, 69, 60
1, 111404, Note_off_c, 0, 69, 55
1, 111432, Note_on_c, 0, 67, 63
1, 111433, Note_on_c, 0, 86, 91
1, 111468, Note_off_c, 0, 86, 66
1, 111472, Note_off_c, 0, 67, 60
1, 111513, Note_on_c, 0, 69, 57
1, 111557, Note_off_c, 0, 69, 60
1, 111576, Note_on_c, 0, 85, 92
1, 111583, Note_on_c, 0, 67, 63
1, 111612, Note_off_c, 0, 67, 63
1, 111618, Note_off_c, 0, 85, 66
1, 111650, Note_on_c, 0, 69, 60
1, 111700, Note_off_c, 0, 69, 59
1, 111718, Note_on_c, 0, 67, 54
1, 111724, Note_on_c, 0, 81, 82
1, 111755, Note_off_c, 0, 67, 64
1, 111775, Note_off_c, 0, 81, 63
1, 111792, Note_on_c, 0, 69, 58
1, 111846, Note_off_c, 0, 69, 58
1, 111867, Note_on_c, 0, 86, 79
1, 111869, Note_on_c, 0, 66, 65
1, 111913, Note_off_c, 0, 66, 59
1, 111919, Control_c, 0, 64, 39
1, 111934, Control_c, 0, 64, 59
1, 111947, Note_on_c, 0, 69, 66
1, 111956, Control_c, 0, 64, 65
1, 111971, Control_c, 0, 64, 69
1, 111986, Control_c, 0, 64, 74
1, 111999, Note_off_c, 0, 69, 60
1, 112001, Control_c, 0, 64, 82
1, 112016, Control_c, 0, 64, 93
1, 112022, Note_on_c, 0, 68, 69
1, 112030, Control_c, 0, 64, 102
1, 112032, Note_off_c, 0, 86, 65
1, 112045, Control_c, 0, 64, 103
1, 112056, Note_off_c, 0, 68, 57
1, 112060, Control_c, 0, 64, 93
1, 112075, Control_c, 0, 64, 74
1, 112090, Control_c, 0, 64, 0
1, 112105, Note_on_c, 0, 69, 64
1, 112152, Note_off_c, 0, 69, 56
1, 112157, Note_on_c, 0, 71, 71
1, 112180, Note_off_c, 0, 71, 69
1, 112226, Note_on_c, 0, 69, 60
1, 112259, Note_off_c, 0, 69, 59
1, 112292, Note_on_c, 0, 68, 66
1, 112298, Note_on_c, 0, 50, 79
1, 112320, Note_off_c, 0, 68, 64
1, 112323, Note_off_c, 0, 50, 68
1, 112357, Note_on_c, 0, 69, 66
1, 112410, Note_off_c, 0, 69, 54
1, 112440, Note_on_c, 0, 67, 71
1, 112446, Note_on_c, 0, 52, 85
1, 112479, Note_off_c, 0, 67, 59
1, 112486, Note_off_c, 0, 52, 60
1, 112510, Note_on_c, 0, 69, 72
1, 112569, Note_off_c, 0, 69, 57
1, 112591, Note_on_c, 0, 50, 86
1, 112596, Note_on_c, 0, 67, 67
1, 112632, Note_off_c, 0, 50, 64
1, 112637, Note_off_c, 0, 67, 61
1, 112667, Note_on_c, 0, 69, 62
1, 112735, Note_off_c, 0, 69, 59
1, 112746, Note_on_c, 0, 49, 81
1, 112749, Note_on_c, 0, 67, 65
1, 112787, Note_off_c, 0, 67, 60
1, 112801, Note_off_c, 0, 49, 62
1, 112820, Note_on_c, 0, 69, 60
1, 112861, Note_off_c, 0, 69, 60
1, 112893, Note_on_c, 0, 67, 56
1, 112899, Note_on_c, 0, 45, 65
1, 112930, Note_off_c, 0, 67, 63
1, 112933, Note_off_c, 0, 45, 55
1, 112944, Note_on_c, 0, 69, 58
1, 113004, Note_off_c, 0, 69, 55
1, 113060, Control_c, 0, 64, 37
1, 113072, Note_on_c, 0, 66, 45
1, 113075, Note_on_c, 0, 50, 58
1, 113075, Control_c, 0, 64, 59
1, 113090, Control_c, 0, 64, 66
1, 113105, Control_c, 0, 64, 72
1, 113105, Control_c, 0, 67, 19
1, 113120, Control_c, 0, 64, 78
1, 113120, Control_c, 0, 67, 65
1, 113128, Note_off_c, 0, 50, 64
1, 113135, Control_c, 0, 64, 82
1, 113135, Control_c, 0, 67, 126
1, 113150, Control_c, 0, 64, 85
1, 113150, Control_c, 0, 67, 127
1, 113165, Control_c, 0, 64, 86
1, 113224, Control_c, 0, 64, 85
1, 113239, Control_c, 0, 64, 84
1, 113254, Control_c, 0, 64, 83
1, 113268, Control_c, 0, 64, 81
1, 113283, Control_c, 0, 64, 79
1, 113298, Control_c, 0, 64, 76
1, 113312, Control_c, 0, 64, 74
1, 113327, Control_c, 0, 64, 72
1, 113342, Control_c, 0, 64, 69
1, 113357, Control_c, 0, 64, 67
1, 113372, Control_c, 0, 64, 64
1, 113386, Control_c, 0, 64, 58
1, 113401, Control_c, 0, 64, 49
1, 113402, Note_off_c, 0, 66, 55
1, 113416, Control_c, 0, 64, 39
1, 113431, Control_c, 0, 64, 28
1, 113446, Control_c, 0, 64, 0
1, 113548, Note_on_c, 0, 81, 55
1, 113569, Note_on_c, 0, 66, 39
1, 113606, Note_off_c, 0, 66, 54
1, 113639, Note_on_c, 0, 74, 58
1, 113691, Note_off_c, 0, 74, 58
1, 113700, Note_on_c, 0, 66, 53
1, 113747, Note_off_c, 0, 66, 59
1, 113786, Note_on_c, 0, 74, 55
1, 113832, Note_off_c, 0, 74, 60
1, 113848, Note_on_c, 0, 79, 82
1, 113862, Note_on_c, 0, 64, 63
1, 113904, Note_off_c, 0, 64, 62
1, 113924, Note_off_c, 0, 81, 57
1, 113931, Note_on_c, 0, 74, 61
1, 113984, Note_off_c, 0, 74, 60
1, 114011, Note_on_c, 0, 64, 64
1, 114055, Note_off_c, 0, 64, 61
1, 114077, Note_on_c, 0, 74, 63
1, 114128, Note_off_c, 0, 74, 62
1, 114149, Control_c, 0, 64, 69
1, 114154, Note_on_c, 0, 78, 86
1, 114163, Note_on_c, 0, 62, 64
1, 114164, Control_c, 0, 64, 93
1, 114165, Note_off_c, 0, 79, 61
1, 114179, Control_c, 0, 64, 127
1, 114229, Note_off_c, 0, 62, 56
1, 114231, Control_c, 0, 64, 118
1, 114235, Note_on_c, 0, 74, 71
1, 114246, Control_c, 0, 64, 72
1, 114260, Control_c, 0, 64, 0
1, 114263, Note_off_c, 0, 78, 64
1, 114300, Note_off_c, 0, 74, 61
1, 114320, Note_on_c, 0, 62, 68
1, 114347, Note_off_c, 0, 62, 65
1, 114390, Note_on_c, 0, 74, 64
1, 114449, Note_off_c, 0, 74, 56
1, 114481, Note_on_c, 0, 83, 75
1, 114485, Note_on_c, 0, 67, 55
1, 114501, Note_off_c, 0, 83, 71
1, 114524, Note_off_c, 0, 67, 59
1, 114567, Note_on_c, 0, 74, 52
1, 114604, Note_off_c, 0, 74, 64
1, 114628, Note_on_c, 0, 73, 54
1, 114629, Note_on_c, 0, 85, 74
1, 114661, Note_on_c, 0, 83, 72
1, 114664, Note_off_c, 0, 73, 63
1, 114675, Note_off_c, 0, 85, 66
1, 114696, Note_off_c, 0, 83, 64
1, 114697, Note_on_c, 0, 74, 62
1, 114702, Note_on_c, 0, 81, 75
1, 114744, Note_off_c, 0, 74, 61
1, 114754, Note_off_c, 0, 81, 54
1, 114758, Note_on_c, 0, 83, 78
1, 114778, Note_off_c, 0, 83, 66
1, 114783, Note_on_c, 0, 67, 56
1, 114818, Note_off_c, 0, 67, 63
1, 114852, Note_on_c, 0, 74, 51
1, 114890, Note_off_c, 0, 74, 59
1, 114912, Note_on_c, 0, 73, 54
1, 114912, Note_on_c, 0, 85, 78
1, 114941, Note_off_c, 0, 73, 61
1, 114944, Note_off_c, 0, 85, 60
1, 114993, Note_on_c, 0, 74, 55
1, 115051, Note_off_c, 0, 74, 57
1, 115072, Note_on_c, 0, 88, 76
1, 115095, Note_on_c, 0, 67, 49
1, 115137, Note_off_c, 0, 67, 60
1, 115165, Note_on_c, 0, 74, 57
1, 115203, Note_off_c, 0, 74, 60
1, 115225, Note_off_c, 0, 88, 63
1, 115228, Note_on_c, 0, 86, 71
1, 115236, Note_on_c, 0, 73, 49
1, 115251, Note_off_c, 0, 86, 69
1, 115261, Note_off_c, 0, 73, 59
1, 115314, Note_on_c, 0, 74, 47
1, 115347, Note_off_c, 0, 74, 54
1, 115390, Note_on_c, 0, 85, 60
1, 115396, Note_on_c, 0, 67, 50
1, 115446, Note_off_c, 0, 67, 53
1, 115452, Note_on_c, 0, 74, 51
1, 115518, Note_off_c, 0, 74, 61
1, 115536, Note_on_c, 0, 73, 57
1, 115539, Note_off_c, 0, 85, 63
1, 115543, Note_on_c, 0, 83, 62
1, 115572, Note_off_c, 0, 73, 62
1, 115576, Note_off_c, 0, 83, 60
1, 115612, Note_on_c, 0, 74, 44
1, 115657, Note_off_c, 0, 74, 62
1, 115689, Note_on_c, 0, 81, 63
1, 115710, Note_on_c, 0, 66, 44
1, 115731, Note_off_c, 0, 81, 61
1, 115744, Control_c, 0, 67, 99
1, 115759, Control_c, 0, 67, 25
1, 115764, Note_on_c, 0, 74, 62
1, 115769, Note_off_c, 0, 66, 53
1, 115774, Control_c, 0, 67, 0
1, 115824, Note_off_c, 0, 74, 62
1, 115847, Note_on_c, 0, 73, 52
1, 115884, Note_off_c, 0, 73, 63
1, 115919, Note_on_c, 0, 74, 60
1, 115979, Note_off_c, 0, 74, 59
1, 116006, Note_on_c, 0, 81, 87
1, 116011, Note_on_c, 0, 66, 60
1, 116060, Note_off_c, 0, 66, 53
1, 116081, Note_on_c, 0, 74, 67
1, 116138, Note_off_c, 0, 74, 60
1, 116166, Note_on_c, 0, 66, 61
1, 116205, Note_off_c, 0, 66, 62
1, 116223, Note_on_c, 0, 74, 65
1, 116292, Note_off_c, 0, 74, 62
1, 116307, Note_on_c, 0, 79, 86
1, 116314, Note_on_c, 0, 64, 69
1, 116351, Note_off_c, 0, 81, 57
1, 116368, Note_off_c, 0, 64, 61
1, 116381, Note_on_c, 0, 74, 66
1, 116462, Note_off_c, 0, 74, 62
1, 116479, Note_on_c, 0, 64, 68
1, 116520, Note_off_c, 0, 64, 62
1, 116548, Note_on_c, 0, 74, 68
1, 116612, Note_on_c, 0, 78, 86
1, 116612, Note_off_c, 0, 74, 61
1, 116630, Note_off_c, 0, 79, 60
1, 116632, Note_on_c, 0, 62, 71
1, 116655, Control_c, 0, 64, 42
1, 116670, Control_c, 0, 64, 58
1, 116676, Note_off_c, 0, 62, 59
1, 116685, Control_c, 0, 64, 64
1, 116700, Control_c, 0, 64, 67
1, 116710, Note_on_c, 0, 74, 70
1, 116715, Control_c, 0, 64, 70
1, 116731, Control_c, 0, 64, 72
1, 116746, Control_c, 0, 64, 74
1, 116752, Note_off_c, 0, 74, 64
1, 116760, Control_c, 0, 64, 75
1, 116775, Control_c, 0, 64, 76
1, 116781, Note_on_c, 0, 62, 69
1, 116790, Control_c, 0, 64, 77
1, 116805, Control_c, 0, 64, 77
1, 116810, Note_off_c, 0, 62, 62
1, 116820, Control_c, 0, 64, 79
1, 116834, Control_c, 0, 64, 82
1, 116846, Note_on_c, 0, 74, 72
1, 116849, Control_c, 0, 64, 87
1, 116864, Control_c, 0, 64, 96
1, 116872, Note_off_c, 0, 74, 67
1, 116879, Control_c, 0, 64, 107
1, 116894, Control_c, 0, 64, 118
1, 116909, Control_c, 0, 64, 119
1, 116924, Control_c, 0, 64, 108
1, 116939, Control_c, 0, 64, 87
1, 116942, Note_off_c, 0, 78, 62
1, 116943, Note_on_c, 0, 76, 82
1, 116948, Note_on_c, 0, 55, 76
1, 116953, Control_c, 0, 64, 65
1, 116968, Control_c, 0, 64, 0
1, 116983, Note_off_c, 0, 55, 61
1, 117049, Note_on_c, 0, 64, 38
1, 117062, Note_on_c, 0, 62, 17
1, 117080, Note_off_c, 0, 64, 63
1, 117091, Note_on_c, 0, 59, 66
1, 117101, Note_off_c, 0, 62, 41
1, 117139, Note_off_c, 0, 59, 57
1, 117168, Note_off_c, 0, 76, 59
1, 117170, Note_on_c, 0, 64, 56
1, 117183, Note_on_c, 0, 83, 77
1, 117209, Note_off_c, 0, 64, 64
1, 117248, Note_on_c, 0, 55, 63
1, 117254, Note_on_c, 0, 81, 82
1, 117269, Note_off_c, 0, 83, 62
1, 117297, Note_off_c, 0, 55, 57
1, 117307, Note_on_c, 0, 64, 56
1, 117328, Note_on_c, 0, 79, 81
1, 117355, Note_off_c, 0, 81, 62
1, 117371, Note_off_c, 0, 64, 64
1, 117380, Note_on_c, 0, 59, 58
1, 117406, Note_on_c, 0, 78, 79
1, 117411, Note_off_c, 0, 79, 62
1, 117416, Note_off_c, 0, 59, 62
1, 117460, Note_off_c, 0, 78, 66
1, 117463, Note_on_c, 0, 64, 55
1, 117468, Note_on_c, 0, 76, 79
1, 117494, Note_off_c, 0, 64, 66
1, 117540, Note_on_c, 0, 57, 67
1, 117541, Note_off_c, 0, 76, 62
1, 117542, Note_on_c, 0, 74, 84
1, 117569, Control_c, 0, 64, 62
1, 117583, Control_c, 0, 64, 65
1, 117589, Note_off_c, 0, 57, 59
1, 117609, Note_on_c, 0, 66, 72
1, 117613, Control_c, 0, 64, 66
1, 117628, Control_c, 0, 64, 67
1, 117643, Control_c, 0, 64, 69
1, 117657, Control_c, 0, 64, 71
1, 117667, Note_off_c, 0, 66, 60
1, 117672, Control_c, 0, 64, 74
1, 117687, Control_c, 0, 64, 74
1, 117698, Note_on_c, 0, 62, 59
1, 117731, Note_off_c, 0, 62, 64
1, 117731, Control_c, 0, 64, 75
1, 117746, Control_c, 0, 64, 77
1, 117756, Note_on_c, 0, 66, 68
1, 117761, Control_c, 0, 64, 83
1, 117776, Control_c, 0, 64, 91
1, 117784, Note_off_c, 0, 74, 60
1, 117791, Control_c, 0, 64, 100
1, 117803, Note_off_c, 0, 66, 50
1, 117806, Control_c, 0, 64, 110
1, 117821, Control_c, 0, 64, 112
1, 117829, Note_on_c, 0, 78, 68
1, 117833, Note_on_c, 0, 57, 70
1, 117836, Control_c, 0, 64, 105
1, 117850, Control_c, 0, 64, 79
1, 117863, Note_off_c, 0, 78, 64
1, 117865, Control_c, 0, 64, 0
1, 117872, Note_on_c, 0, 76, 73
1, 117882, Note_off_c, 0, 57, 56
1, 117902, Note_off_c, 0, 76, 57
1, 117913, Note_on_c, 0, 67, 50
1, 117925, Note_on_c, 0, 78, 69
1, 117952, Note_on_c, 0, 61, 58
1, 117956, Note_off_c, 0, 67, 64
1, 117956, Note_off_c, 0, 78, 71
1, 117965, Note_on_c, 0, 76, 78
1, 117983, Note_off_c, 0, 61, 64
1, 118011, Note_off_c, 0, 76, 61
1, 118031, Note_on_c, 0, 67, 42
1, 118031, Note_on_c, 0, 74, 75
1, 118062, Note_off_c, 0, 67, 54
1, 118070, Note_off_c, 0, 74, 60
1, 118080, Note_on_c, 0, 76, 70
1, 118116, Note_on_c, 0, 62, 62
1, 118144, Note_off_c, 0, 76, 62
1, 118158, Note_on_c, 0, 74, 73
1, 118188, Note_off_c, 0, 62, 60
1, 118196, Note_on_c, 0, 66, 64
1, 118212, Control_c, 0, 67, 54
1, 118217, Note_off_c, 0, 74, 64
1, 118227, Control_c, 0, 67, 127
1, 118244, Note_off_c, 0, 66, 59
1, 118282, Note_on_c, 0, 62, 48
1, 118328, Note_off_c, 0, 62, 61
1, 118343, Note_on_c, 0, 66, 63
1, 118364, Note_off_c, 0, 66, 64
1, 118471, Note_on_c, 0, 69, 65
1, 118483, Note_on_c, 0, 54, 58
1, 118517, Note_off_c, 0, 54, 61
1, 118560, Note_on_c, 0, 62, 44
1, 118608, Note_off_c, 0, 62, 58
1, 118618, Note_on_c, 0, 54, 58
1, 118664, Note_off_c, 0, 54, 62
1, 118715, Note_on_c, 0, 62, 57
1, 118755, Note_off_c, 0, 62, 60
1, 118788, Note_on_c, 0, 67, 80
1, 118797, Note_on_c, 0, 52, 63
1, 118846, Note_off_c, 0, 52, 59
1, 118852, Note_off_c, 0, 69, 54
1, 118870, Note_on_c, 0, 62, 57
1, 118911, Note_off_c, 0, 62, 60
1, 118940, Note_on_c, 0, 52, 67
1, 118983, Note_off_c, 0, 52, 60
1, 119009, Note_on_c, 0, 62, 60
1, 119068, Note_off_c, 0, 62, 56
1, 119094, Note_on_c, 0, 50, 70
1, 119100, Note_on_c, 0, 66, 84
1, 119109, Control_c, 0, 64, 31
1, 119113, Note_off_c, 0, 67, 62
1, 119125, Control_c, 0, 64, 55
1, 119140, Control_c, 0, 64, 64
1, 119154, Control_c, 0, 64, 67
1, 119159, Note_on_c, 0, 62, 63
1, 119164, Note_off_c, 0, 50, 64
1, 119169, Control_c, 0, 64, 69
1, 119184, Control_c, 0, 64, 72
1, 119186, Note_off_c, 0, 66, 63
1, 119199, Control_c, 0, 64, 74
1, 119214, Control_c, 0, 64, 76
1, 119228, Control_c, 0, 64, 76
1, 119231, Note_off_c, 0, 62, 61
1, 119243, Note_on_c, 0, 50, 72
1, 119275, Note_off_c, 0, 50, 69
1, 119314, Note_on_c, 0, 62, 60
1, 119347, Control_c, 0, 64, 74
1, 119362, Control_c, 0, 64, 69
1, 119377, Control_c, 0, 64, 0
1, 119381, Note_off_c, 0, 62, 55
1, 119398, Note_on_c, 0, 71, 80
1, 119401, Note_on_c, 0, 55, 69
1, 119417, Note_off_c, 0, 71, 69
1, 119455, Note_off_c, 0, 55, 60
1, 119502, Note_on_c, 0, 62, 43
1, 119532, Note_off_c, 0, 62, 57
1, 119556, Note_on_c, 0, 61, 56
1, 119562, Note_on_c, 0, 73, 73
1, 119594, Note_on_c, 0, 71, 75
1, 119596, Note_off_c, 0, 61, 62
1, 119606, Note_off_c, 0, 73, 65
1, 119617, Note_on_c, 0, 62, 58
1, 119630, Note_off_c, 0, 71, 63
1, 119642, Note_on_c, 0, 69, 70
1, 119675, Note_off_c, 0, 62, 59
1, 119693, Note_on_c, 0, 71, 78
1, 119696, Note_off_c, 0, 69, 62
1, 119711, Note_on_c, 0, 55, 56
1, 119711, Note_off_c, 0, 71, 74
1, 119746, Note_off_c, 0, 55, 62
1, 119768, Note_on_c, 0, 62, 50
1, 119815, Note_off_c, 0, 62, 59
1, 119841, Note_on_c, 0, 61, 52
1, 119848, Note_on_c, 0, 73, 79
1, 119876, Note_off_c, 0, 61, 63
1, 119884, Note_off_c, 0, 73, 60
1, 119916, Note_on_c, 0, 62, 49
1, 119965, Note_off_c, 0, 62, 59
1, 119997, Note_on_c, 0, 76, 80
1, 120006, Note_on_c, 0, 55, 56
1, 120048, Note_off_c, 0, 55, 60
1, 120085, Note_on_c, 0, 62, 54
1, 120125, Note_off_c, 0, 62, 62
1, 120146, Note_off_c, 0, 76, 61
1, 120147, Note_on_c, 0, 61, 50
1, 120152, Note_on_c, 0, 74, 72
1, 120179, Note_off_c, 0, 61, 59
1, 120197, Note_off_c, 0, 74, 55
1, 120222, Note_on_c, 0, 62, 57
1, 120265, Note_off_c, 0, 62, 56
1, 120312, Note_on_c, 0, 55, 50
1, 120313, Note_on_c, 0, 73, 69
1, 120387, Note_on_c, 0, 62, 50
1, 120429, Note_off_c, 0, 62, 62
1, 120438, Note_off_c, 0, 73, 59
1, 120450, Note_on_c, 0, 71, 67
1, 120456, Note_on_c, 0, 61, 52
1, 120465, Note_off_c, 0, 55, 27
1, 120477, Note_off_c, 0, 71, 64
1, 120501, Note_off_c, 0, 61, 58
1, 120529, Note_on_c, 0, 62, 49
1, 120570, Note_off_c, 0, 62, 60
1, 120607, Note_on_c, 0, 69, 64
1, 120610, Note_on_c, 0, 54, 58
1, 120636, Control_c, 0, 67, 125
1, 120650, Control_c, 0, 64, 50
1, 120650, Control_c, 0, 67, 98
1, 120653, Note_off_c, 0, 54, 61
1, 120665, Control_c, 0, 64, 63
1, 120665, Control_c, 0, 67, 60
1, 120670, Note_on_c, 0, 62, 59
1, 120680, Control_c, 0, 64, 68
1, 120680, Control_c, 0, 67, 17
1, 120694, Control_c, 0, 64, 72
1, 120694, Control_c, 0, 67, 0
1, 120709, Control_c, 0, 64, 77
1, 120716, Note_off_c, 0, 62, 56
1, 120719, Note_off_c, 0, 69, 33
1, 120725, Control_c, 0, 64, 81
1, 120740, Control_c, 0, 64, 84
1, 120741, Note_on_c, 0, 61, 57
1, 120755, Control_c, 0, 64, 85
1, 120770, Control_c, 0, 64, 86
1, 120773, Note_off_c, 0, 61, 64
1, 120785, Control_c, 0, 64, 87
1, 120797, Note_on_c, 0, 62, 53
1, 120799, Control_c, 0, 64, 89
1, 120814, Control_c, 0, 64, 94
1, 120825, Note_off_c, 0, 62, 57
1, 120829, Control_c, 0, 64, 103
1, 120844, Control_c, 0, 64, 112
1, 120859, Control_c, 0, 64, 114
1, 120873, Control_c, 0, 64, 110
1, 120888, Control_c, 0, 64, 93
1, 120903, Control_c, 0, 64, 74
1, 120915, Note_on_c, 0, 81, 93
1, 120918, Control_c, 0, 64, 62
1, 120919, Note_on_c, 0, 42, 81
1, 120919, Note_on_c, 0, 69, 87
1, 120933, Control_c, 0, 64, 59
1, 120951, Note_off_c, 0, 69, 68
1, 120955, Control_c, 0, 64, 67
1, 120958, Note_off_c, 0, 81, 64
1, 120969, Note_off_c, 0, 42, 54
1, 120970, Control_c, 0, 64, 73
1, 120972, Note_on_c, 0, 41, 33
1, 120985, Control_c, 0, 64, 81
1, 120999, Control_c, 0, 64, 93
1, 121009, Note_on_c, 0, 50, 70
1, 121013, Note_off_c, 0, 41, 44
1, 121014, Control_c, 0, 64, 100
1, 121030, Control_c, 0, 64, 102
1, 121045, Control_c, 0, 64, 102
1, 121066, Note_on_c, 0, 42, 74
1, 121076, Note_off_c, 0, 50, 64
1, 121121, Note_off_c, 0, 42, 58
1, 121138, Note_on_c, 0, 50, 62
1, 121163, Control_c, 0, 64, 103
1, 121207, Control_c, 0, 64, 100
1, 121221, Note_off_c, 0, 50, 63
1, 121222, Control_c, 0, 64, 89
1, 121237, Control_c, 0, 64, 75
1, 121245, Note_on_c, 0, 40, 78
1, 121247, Note_on_c, 0, 79, 94
1, 121249, Note_on_c, 0, 67, 92
1, 121252, Control_c, 0, 64, 49
1, 121267, Control_c, 0, 64, 0
1, 121312, Control_c, 0, 64, 56
1, 121317, Note_on_c, 0, 50, 72
1, 121317, Note_off_c, 0, 40, 61
1, 121326, Control_c, 0, 64, 65
1, 121341, Control_c, 0, 64, 70
1, 121356, Control_c, 0, 64, 75
1, 121362, Note_off_c, 0, 79, 59
1, 121371, Control_c, 0, 64, 80
1, 121386, Control_c, 0, 64, 83
1, 121400, Control_c, 0, 64, 85
1, 121401, Note_off_c, 0, 50, 65
1, 121401, Note_off_c, 0, 67, 59
1, 121405, Note_on_c, 0, 40, 65
1, 121415, Control_c, 0, 64, 86
1, 121430, Control_c, 0, 64, 88
1, 121444, Control_c, 0, 64, 90
1, 121459, Control_c, 0, 64, 93
1, 121467, Note_on_c, 0, 50, 64
1, 121473, Note_off_c, 0, 40, 63
1, 121474, Control_c, 0, 64, 97
1, 121489, Control_c, 0, 64, 100
1, 121504, Control_c, 0, 64, 100
1, 121535, Control_c, 0, 64, 96
1, 121549, Control_c, 0, 64, 85
1, 121552, Note_off_c, 0, 50, 62
1, 121564, Note_on_c, 0, 78, 87
1, 121564, Control_c, 0, 64, 69
1, 121566, Note_on_c, 0, 66, 85
1, 121568, Note_on_c, 0, 38, 74
1, 121579, Control_c, 0, 64, 14
1, 121594, Control_c, 0, 64, 0
1, 121623, Control_c, 0, 64, 58
1, 121636, Note_on_c, 0, 50, 63
1, 121638, Control_c, 0, 64, 65
1, 121641, Note_off_c, 0, 38, 60
1, 121653, Control_c, 0, 64, 71
1, 121660, Note_off_c, 0, 78, 62
1, 121667, Control_c, 0, 64, 76
1, 121682, Control_c, 0, 64, 81
1, 121693, Note_off_c, 0, 66, 60
1, 121705, Control_c, 0, 64, 84
1, 121720, Control_c, 0, 64, 87
1, 121723, Note_off_c, 0, 50, 60
1, 121728, Note_on_c, 0, 38, 71
1, 121735, Control_c, 0, 64, 89
1, 121749, Control_c, 0, 64, 92
1, 121762, Note_off_c, 0, 38, 65
1, 121764, Control_c, 0, 64, 98
1, 121779, Control_c, 0, 64, 105
1, 121789, Note_on_c, 0, 50, 64
1, 121794, Control_c, 0, 64, 111
1, 121809, Control_c, 0, 64, 113
1, 121823, Control_c, 0, 64, 112
1, 121838, Control_c, 0, 64, 99
1, 121842, Note_off_c, 0, 50, 63
1, 121853, Control_c, 0, 64, 79
1, 121867, Control_c, 0, 64, 62
1, 121882, Control_c, 0, 64, 0
1, 121887, Note_on_c, 0, 76, 91
1, 121889, Note_on_c, 0, 64, 87
1, 121898, Note_on_c, 0, 43, 73
1, 121912, Control_c, 0, 64, 54
1, 121914, Note_off_c, 0, 64, 67
1, 121927, Control_c, 0, 64, 66
1, 121937, Note_off_c, 0, 76, 64
1, 121941, Control_c, 0, 64, 74
1, 121955, Note_on_c, 0, 52, 72
1, 121956, Control_c, 0, 64, 82
1, 121964, Note_off_c, 0, 43, 56
1, 121971, Control_c, 0, 64, 88
1, 121986, Control_c, 0, 64, 91
1, 122001, Control_c, 0, 64, 91
1, 122015, Control_c, 0, 64, 92
1, 122030, Control_c, 0, 64, 96
1, 122035, Note_off_c, 0, 52, 61
1, 122036, Note_on_c, 0, 47, 66
1, 122045, Control_c, 0, 64, 104
1, 122060, Control_c, 0, 64, 112
1, 122075, Control_c, 0, 64, 113
1, 122090, Control_c, 0, 64, 104
1, 122098, Note_off_c, 0, 47, 65
1, 122104, Control_c, 0, 64, 85
1, 122119, Control_c, 0, 64, 66
1, 122126, Note_on_c, 0, 52, 62
1, 122131, Note_on_c, 0, 83, 79
1, 122134, Control_c, 0, 64, 0
1, 122183, Note_off_c, 0, 52, 62
1, 122199, Note_on_c, 0, 81, 79
1, 122201, Note_on_c, 0, 43, 68
1, 122213, Note_off_c, 0, 83, 64
1, 122269, Note_on_c, 0, 79, 80
1, 122280, Note_on_c, 0, 52, 62
1, 122298, Note_off_c, 0, 81, 61
1, 122303, Note_off_c, 0, 43, 54
1, 122338, Note_off_c, 0, 52, 60
1, 122345, Note_on_c, 0, 78, 79
1, 122348, Note_on_c, 0, 47, 54
1, 122359, Note_off_c, 0, 79, 59
1, 122391, Note_off_c, 0, 47, 65
1, 122403, Note_off_c, 0, 78, 66
1, 122411, Note_on_c, 0, 76, 78
1, 122422, Note_on_c, 0, 52, 64
1, 122458, Note_off_c, 0, 52, 63
1, 122483, Control_c, 0, 64, 33
1, 122486, Note_on_c, 0, 74, 87
1, 122487, Note_off_c, 0, 76, 62
1, 122498, Control_c, 0, 64, 59
1, 122499, Note_on_c, 0, 45, 73
1, 122513, Control_c, 0, 64, 66
1, 122528, Control_c, 0, 64, 72
1, 122543, Control_c, 0, 64, 77
1, 122558, Control_c, 0, 64, 81
1, 122563, Note_off_c, 0, 45, 62
1, 122572, Control_c, 0, 64, 84
1, 122572, Note_on_c, 0, 54, 75
1, 122587, Control_c, 0, 64, 85
1, 122602, Control_c, 0, 64, 86
1, 122617, Control_c, 0, 64, 87
1, 122623, Note_off_c, 0, 54, 62
1, 122636, Note_on_c, 0, 50, 65
1, 122646, Control_c, 0, 64, 87
1, 122676, Control_c, 0, 64, 88
1, 122687, Note_off_c, 0, 50, 63
1, 122690, Control_c, 0, 64, 89
1, 122699, Note_on_c, 0, 54, 68
1, 122705, Control_c, 0, 64, 91
1, 122714, Note_off_c, 0, 74, 57
1, 122720, Control_c, 0, 64, 96
1, 122735, Control_c, 0, 64, 106
1, 122750, Control_c, 0, 64, 127
1, 122761, Note_off_c, 0, 54, 63
1, 122763, Note_on_c, 0, 78, 63
1, 122768, Note_on_c, 0, 45, 72
1, 122792, Note_off_c, 0, 78, 67
1, 122797, Note_on_c, 0, 76, 81
1, 122809, Control_c, 0, 64, 96
1, 122823, Note_on_c, 0, 49, 63
1, 122824, Control_c, 0, 64, 79
1, 122829, Note_on_c, 0, 55, 62
1, 122835, Note_off_c, 0, 76, 57
1, 122838, Control_c, 0, 64, 71
1, 122853, Note_on_c, 0, 78, 72
1, 122853, Control_c, 0, 64, 71
1, 122857, Note_off_c, 0, 55, 64
1, 122863, Note_off_c, 0, 49, 63
1, 122868, Control_c, 0, 64, 75
1, 122869, Note_off_c, 0, 45, 64
1, 122883, Control_c, 0, 64, 80
1, 122891, Note_on_c, 0, 76, 76
1, 122897, Note_off_c, 0, 78, 67
1, 122897, Control_c, 0, 64, 86
1, 122912, Control_c, 0, 64, 87
1, 122924, Note_off_c, 0, 76, 63
1, 122927, Control_c, 0, 64, 84
1, 122937, Note_on_c, 0, 74, 74
1, 122942, Control_c, 0, 64, 74
1, 122957, Control_c, 0, 64, 48
1, 122972, Control_c, 0, 64, 0
1, 122975, Note_on_c, 0, 76, 72
1, 122984, Note_off_c, 0, 74, 60
1, 122996, Note_off_c, 0, 76, 68
1, 123022, Note_on_c, 0, 38, 75
1, 123053, Note_on_c, 0, 42, 70
1, 123073, Note_on_c, 0, 45, 66
1, 123115, Note_on_c, 0, 50, 69
1, 123173, Note_on_c, 0, 74, 91
1, 123178, Note_on_c, 0, 66, 76
1, 123181, Control_c, 0, 64, 60
1, 123184, Poly_aftertouch_c, 0, 70, 127
1, 123196, Note_on_c, 0, 69, 64
1, 123202, Control_c, 0, 64, 78
1, 123204, Note_off_c, 0, 74, 67
1, 123205, Note_off_c, 0, 66, 70
1, 123214, Note_off_c, 0, 69, 65
1, 123216, Poly_aftertouch_c, 0, 70, 0
1, 123217, Control_c, 0, 64, 96
1, 123232, Control_c, 0, 64, 127
1, 123260, Note_off_c, 0, 45, 63
1, 123261, Note_off_c, 0, 38, 59
1, 123265, Note_off_c, 0, 42, 62
1, 123293, Note_off_c, 0, 50, 64
1, 123455, Control_c, 0, 64, 98
1, 123469, Control_c, 0, 64, 52
1, 123484, Control_c, 0, 64, 0
1, 123870, Note_on_c, 0, 66, 42
1, 123884, Note_on_c, 0, 79, 52
1, 123894, Note_on_c, 0, 62, 30
1, 123970, Note_on_c, 0, 78, 67
1, 123985, Note_off_c, 0, 79, 53
1, 124027, Note_off_c, 0, 78, 65
1, 124037, Note_on_c, 0, 76, 71
1, 124099, Note_on_c, 0, 78, 80
1, 124102, Note_off_c, 0, 76, 61
1, 124170, Note_on_c, 0, 81, 85
1, 124176, Note_on_c, 0, 64, 51
1, 124178, Note_on_c, 0, 67, 52
1, 124182, Note_off_c, 0, 78, 64
1, 124184, Note_off_c, 0, 66, 54
1, 124199, Note_off_c, 0, 62, 39
1, 124238, Note_on_c, 0, 79, 84
1, 124266, Note_off_c, 0, 81, 64
1, 124303, Note_off_c, 0, 79, 63
1, 124304, Note_on_c, 0, 78, 80
1, 124372, Note_on_c, 0, 79, 74
1, 124379, Note_off_c, 0, 78, 64
1, 124385, Note_off_c, 0, 67, 55
1, 124398, Note_off_c, 0, 64, 54
1, 124448, Note_off_c, 0, 79, 63
1, 124467, Note_on_c, 0, 81, 64
1, 124477, Note_on_c, 0, 69, 38
1, 124489, Note_on_c, 0, 66, 34
1, 124588, Note_off_c, 0, 81, 61
1, 124920, Note_off_c, 0, 69, 54
1, 125003, Note_off_c, 0, 66, 48
1, 125082, Note_on_c, 0, 81, 61
1, 125114, Note_off_c, 0, 81, 60
1, 125232, Note_on_c, 0, 83, 81
1, 125273, Note_off_c, 0, 83, 65
1, 125374, Note_on_c, 0, 85, 84
1, 125435, Note_off_c, 0, 85, 64
1, 125528, Note_on_c, 0, 86, 80
1, 125571, Note_off_c, 0, 86, 63
1, 125675, Note_on_c, 0, 81, 64
1, 125682, Note_on_c, 0, 54, 41
1, 125720, Note_off_c, 0, 54, 58
1, 125816, Note_on_c, 0, 62, 48
1, 125869, Note_off_c, 0, 62, 53
1, 125974, Note_off_c, 0, 81, 57
1, 125976, Note_on_c, 0, 78, 50
1, 125988, Note_on_c, 0, 50, 36
1, 126040, Note_off_c, 0, 50, 51
1, 126111, Note_on_c, 0, 62, 44
1, 126164, Note_off_c, 0, 62, 54
1, 126190, Note_off_c, 0, 78, 58
1, 126272, Note_on_c, 0, 81, 64
1, 126275, Note_on_c, 0, 52, 50
1, 126328, Note_off_c, 0, 52, 55
1, 126331, Note_on_c, 0, 79, 73
1, 126343, Note_off_c, 0, 81, 57
1, 126394, Note_off_c, 0, 79, 63
1, 126400, Note_on_c, 0, 78, 77
1, 126408, Note_on_c, 0, 62, 48
1, 126445, Note_off_c, 0, 62, 60
1, 126460, Note_on_c, 0, 79, 75
1, 126464, Note_off_c, 0, 78, 63
1, 126546, Note_on_c, 0, 81, 72
1, 126548, Note_off_c, 0, 79, 61
1, 126558, Note_on_c, 0, 57, 54
1, 126583, Note_off_c, 0, 57, 61
1, 126691, Note_on_c, 0, 79, 68
1, 126691, Note_off_c, 0, 81, 60
1, 126695, Note_on_c, 0, 61, 59
1, 126741, Note_off_c, 0, 61, 56
1, 126862, Note_off_c, 0, 79, 56
1, 126876, Note_on_c, 0, 77, 57
1, 126892, Note_on_c, 0, 50, 35
1, 126898, Note_on_c, 0, 62, 33
1, 127090, Note_off_c, 0, 77, 53
1, 127115, Note_on_c, 0, 78, 45
1, 127190, Note_off_c, 0, 78, 50
1, 127240, Note_off_c, 0, 50, 48
1, 127395, Note_off_c, 0, 62, 56
1, 127633, Note_on_c, 0, 66, 55
1, 127639, Note_on_c, 0, 79, 62
1, 127645, Note_on_c, 0, 62, 46
1, 127668, Note_off_c, 0, 66, 62
1, 127673, Note_off_c, 0, 62, 59
1, 127706, Note_on_c, 0, 78, 66
1, 127717, Note_off_c, 0, 79, 55
1, 127758, Note_off_c, 0, 78, 63
1, 127770, Note_on_c, 0, 76, 67
1, 127774, Note_on_c, 0, 62, 66
1, 127777, Note_on_c, 0, 66, 65
1, 127809, Note_off_c, 0, 66, 62
1, 127817, Note_off_c, 0, 62, 58
1, 127829, Note_on_c, 0, 78, 67
1, 127830, Note_off_c, 0, 76, 61
1, 127896, Note_on_c, 0, 81, 71
1, 127896, Note_off_c, 0, 78, 64
1, 127920, Note_on_c, 0, 64, 68
1, 127923, Note_on_c, 0, 67, 68
1, 127950, Note_off_c, 0, 67, 66
1, 127958, Note_off_c, 0, 64, 61
1, 127968, Note_on_c, 0, 79, 76
1, 127974, Note_off_c, 0, 81, 62
1, 128026, Note_off_c, 0, 79, 63
1, 128048, Note_on_c, 0, 78, 65
1, 128069, Note_on_c, 0, 67, 42
1, 128071, Note_on_c, 0, 64, 50
1, 128096, Note_off_c, 0, 64, 60
1, 128096, Note_off_c, 0, 78, 63
1, 128100, Note_off_c, 0, 67, 52
1, 128105, Note_on_c, 0, 79, 66
1, 128193, Note_off_c, 0, 79, 58
1, 128215, Note_on_c, 0, 81, 61
1, 128224, Note_on_c, 0, 69, 43
1, 128225, Note_on_c, 0, 66, 43
1, 128332, Note_off_c, 0, 81, 55
1, 128676, Note_off_c, 0, 69, 57
1, 128719, Note_off_c, 0, 66, 46
1, 128859, Note_on_c, 0, 81, 58
1, 128897, Note_off_c, 0, 81, 60
1, 129002, Note_on_c, 0, 83, 77
1, 129045, Note_off_c, 0, 83, 65
1, 129145, Note_on_c, 0, 85, 82
1, 129206, Note_off_c, 0, 85, 66
1, 129295, Note_on_c, 0, 86, 76
1, 129336, Note_off_c, 0, 86, 63
1, 129446, Note_on_c, 0, 81, 63
1, 129455, Note_on_c, 0, 54, 33
1, 129488, Note_off_c, 0, 54, 57
1, 129592, Note_on_c, 0, 62, 48
1, 129634, Note_off_c, 0, 62, 55
1, 129735, Note_on_c, 0, 78, 52
1, 129750, Note_off_c, 0, 81, 45
1, 129761, Note_on_c, 0, 50, 37
1, 129812, Note_off_c, 0, 50, 49
1, 129885, Note_on_c, 0, 62, 49
1, 129919, Note_off_c, 0, 78, 58
1, 129947, Note_off_c, 0, 62, 54
1, 130032, Note_on_c, 0, 81, 58
1, 130040, Note_on_c, 0, 52, 49
1, 130081, Note_off_c, 0, 52, 61
1, 130096, Note_on_c, 0, 79, 65
1, 130096, Note_off_c, 0, 81, 61
1, 130155, Note_off_c, 0, 79, 61
1, 130174, Note_on_c, 0, 78, 63
1, 130177, Note_on_c, 0, 62, 52
1, 130218, Note_off_c, 0, 62, 59
1, 130224, Note_off_c, 0, 78, 61
1, 130225, Note_on_c, 0, 79, 65
1, 130290, Note_off_c, 0, 79, 58
1, 130311, Note_on_c, 0, 57, 58
1, 130311, Note_on_c, 0, 81, 72
1, 130334, Note_off_c, 0, 57, 61
1, 130383, Note_off_c, 0, 81, 60
1, 130388, Note_on_c, 0, 79, 72
1, 130451, Note_off_c, 0, 79, 61
1, 130461, Note_on_c, 0, 61, 52
1, 130466, Note_on_c, 0, 78, 63
1, 130497, Note_off_c, 0, 61, 53
1, 130504, Note_off_c, 0, 78, 58
1, 130517, Note_on_c, 0, 76, 53
1, 130540, Note_off_c, 0, 76, 59
1, 130594, Control_c, 0, 64, 48
1, 130595, Note_on_c, 0, 74, 76
1, 130600, Note_on_c, 0, 54, 56
1, 130609, Control_c, 0, 64, 0
1, 130636, Note_off_c, 0, 54, 64
1, 130653, Note_off_c, 0, 74, 63
1, 130660, Note_on_c, 0, 76, 73
1, 130663, Note_on_c, 0, 62, 59
1, 130714, Note_off_c, 0, 62, 56
1, 130736, Note_on_c, 0, 78, 84
1, 130736, Note_off_c, 0, 76, 62
1, 130746, Note_on_c, 0, 57, 56
1, 130777, Note_off_c, 0, 57, 64
1, 130786, Note_off_c, 0, 78, 65
1, 130802, Note_on_c, 0, 79, 83
1, 130807, Note_on_c, 0, 62, 69
1, 130850, Note_off_c, 0, 62, 54
1, 130868, Note_on_c, 0, 54, 69
1, 130869, Note_on_c, 0, 81, 88
1, 130874, Note_off_c, 0, 79, 57
1, 130928, Note_off_c, 0, 54, 62
1, 130928, Note_on_c, 0, 62, 66
1, 130942, Note_on_c, 0, 83, 79
1, 130952, Note_off_c, 0, 81, 62
1, 130994, Note_off_c, 0, 62, 62
1, 130999, Note_on_c, 0, 57, 62
1, 131009, Note_off_c, 0, 83, 66
1, 131012, Note_on_c, 0, 85, 80
1, 131041, Note_off_c, 0, 57, 63
1, 131066, Note_on_c, 0, 62, 61
1, 131077, Note_on_c, 0, 86, 87
1, 131094, Note_off_c, 0, 85, 64
1, 131107, Note_off_c, 0, 86, 67
1, 131112, Note_off_c, 0, 62, 57
1, 131158, Note_on_c, 0, 55, 74
1, 131160, Note_on_c, 0, 86, 97
1, 131205, Note_off_c, 0, 55, 61
1, 131226, Note_on_c, 0, 62, 66
1, 131291, Note_off_c, 0, 62, 59
1, 131297, Note_on_c, 0, 59, 69
1, 131352, Note_off_c, 0, 59, 60
1, 131384, Note_on_c, 0, 62, 58
1, 131443, Note_off_c, 0, 62, 55
1, 131443, Note_off_c, 0, 86, 57
1, 131461, Note_on_c, 0, 83, 74
1, 131473, Note_on_c, 0, 55, 59
1, 131480, Note_off_c, 0, 83, 72
1, 131527, Note_off_c, 0, 55, 54
1, 131548, Note_on_c, 0, 62, 67
1, 131609, Note_off_c, 0, 62, 60
1, 131624, Note_on_c, 0, 59, 61
1, 131661, Note_off_c, 0, 59, 63
1, 131698, Note_on_c, 0, 62, 50
1, 131701, Note_on_c, 0, 79, 73
1, 131724, Note_off_c, 0, 62, 60
1, 131752, Note_on_c, 0, 78, 83
1, 131755, Note_off_c, 0, 79, 62
1, 131769, Note_on_c, 0, 57, 64
1, 131830, Note_off_c, 0, 57, 47
1, 131835, Note_on_c, 0, 66, 70
1, 131882, Note_off_c, 0, 66, 57
1, 131909, Note_on_c, 0, 62, 61
1, 131945, Note_off_c, 0, 62, 62
1, 131980, Note_on_c, 0, 66, 63
1, 132016, Note_off_c, 0, 66, 59
1, 132052, Note_on_c, 0, 81, 77
1, 132060, Note_off_c, 0, 78, 62
1, 132063, Note_on_c, 0, 57, 62
1, 132073, Note_off_c, 0, 81, 68
1, 132099, Note_off_c, 0, 57, 62
1, 132126, Note_on_c, 0, 66, 67
1, 132192, Note_off_c, 0, 66, 60
1, 132207, Note_on_c, 0, 62, 62
1, 132242, Note_off_c, 0, 62, 64
1, 132271, Note_on_c, 0, 66, 64
1, 132293, Note_on_c, 0, 74, 75
1, 132316, Note_off_c, 0, 66, 58
1, 132360, Note_on_c, 0, 57, 70
1, 132360, Note_on_c, 0, 76, 83
1, 132362, Note_off_c, 0, 74, 62
1, 132392, Note_off_c, 0, 57, 63
1, 132424, Note_on_c, 0, 67, 68
1, 132482, Note_off_c, 0, 67, 60
1, 132496, Note_on_c, 0, 64, 69
1, 132524, Note_off_c, 0, 64, 65
1, 132564, Note_on_c, 0, 67, 62
1, 132615, Note_off_c, 0, 76, 54
1, 132620, Note_off_c, 0, 67, 59
1, 132645, Note_on_c, 0, 57, 64
1, 132645, Note_on_c, 0, 79, 69
1, 132668, Note_off_c, 0, 79, 68
1, 132678, Note_off_c, 0, 57, 64
1, 132708, Note_on_c, 0, 67, 67
1, 132758, Note_off_c, 0, 67, 59
1, 132785, Note_on_c, 0, 64, 50
1, 132810, Note_off_c, 0, 64, 59
1, 132835, Note_on_c, 0, 67, 59
1, 132854, Note_on_c, 0, 73, 74
1, 132863, Note_off_c, 0, 67, 64
1, 132886, Note_off_c, 0, 73, 63
1, 132929, Note_on_c, 0, 54, 64
1, 132929, Note_on_c, 0, 74, 77
1, 132967, Note_off_c, 0, 54, 66
1, 132981, Note_off_c, 0, 74, 61
1, 132996, Note_on_c, 0, 62, 60
1, 132999, Note_on_c, 0, 76, 81
1, 133035, Note_off_c, 0, 62, 60
1, 133059, Note_on_c, 0, 57, 56
1, 133061, Note_off_c, 0, 76, 59
1, 133066, Note_on_c, 0, 78, 78
1, 133092, Note_off_c, 0, 57, 64
1, 133109, Note_off_c, 0, 78, 64
1, 133123, Note_on_c, 0, 62, 64
1, 133131, Note_on_c, 0, 79, 77
1, 133174, Note_off_c, 0, 62, 58
1, 133187, Note_off_c, 0, 79, 57
1, 133199, Note_on_c, 0, 81, 82
1, 133201, Note_on_c, 0, 54, 68
1, 133243, Note_off_c, 0, 54, 60
1, 133257, Note_off_c, 0, 81, 63
1, 133266, Note_on_c, 0, 83, 79
1, 133267, Note_on_c, 0, 62, 57
1, 133313, Note_off_c, 0, 62, 60
1, 133323, Note_off_c, 0, 83, 64
1, 133329, Note_on_c, 0, 57, 51
1, 133337, Note_on_c, 0, 85, 69
1, 133360, Note_off_c, 0, 57, 64
1, 133376, Note_off_c, 0, 85, 62
1, 133384, Note_on_c, 0, 62, 60
1, 133402, Note_on_c, 0, 86, 75
1, 133432, Note_off_c, 0, 62, 56
1, 133448, Note_off_c, 0, 86, 64
1, 133479, Note_on_c, 0, 55, 65
1, 133481, Note_on_c, 0, 88, 76
1, 133513, Note_off_c, 0, 55, 61
1, 133539, Note_off_c, 0, 88, 63
1, 133542, Note_on_c, 0, 62, 64
1, 133551, Note_on_c, 0, 86, 66
1, 133578, Note_off_c, 0, 62, 62
1, 133584, Note_off_c, 0, 86, 57
1, 133612, Note_on_c, 0, 85, 73
1, 133621, Note_on_c, 0, 59, 60
1, 133653, Note_off_c, 0, 59, 63
1, 133677, Note_off_c, 0, 85, 64
1, 133688, Note_on_c, 0, 86, 78
1, 133690, Note_on_c, 0, 62, 62
1, 133727, Note_off_c, 0, 62, 61
1, 133760, Note_on_c, 0, 85, 85
1, 133768, Note_on_c, 0, 55, 60
1, 133772, Note_off_c, 0, 86, 60
1, 133810, Note_off_c, 0, 55, 62
1, 133831, Note_on_c, 0, 83, 81
1, 133834, Note_on_c, 0, 62, 64
1, 133844, Note_off_c, 0, 85, 65
1, 133869, Note_off_c, 0, 62, 64
1, 133887, Note_off_c, 0, 83, 65
1, 133905, Note_on_c, 0, 59, 56
1, 133907, Note_on_c, 0, 81, 68
1, 133934, Note_off_c, 0, 59, 64
1, 133958, Note_off_c, 0, 81, 44
1, 133959, Note_on_c, 0, 62, 59
1, 133974, Note_on_c, 0, 79, 73
1, 133986, Note_off_c, 0, 62, 63
1, 134039, Note_off_c, 0, 79, 62
1, 134043, Note_on_c, 0, 78, 81
1, 134049, Note_on_c, 0, 57, 63
1, 134085, Note_off_c, 0, 57, 61
1, 134097, Note_off_c, 0, 78, 64
1, 134119, Note_on_c, 0, 66, 67
1, 134122, Note_on_c, 0, 79, 73
1, 134155, Note_off_c, 0, 66, 59
1, 134172, Note_off_c, 0, 79, 57
1, 134193, Note_on_c, 0, 80, 71
1, 134206, Note_on_c, 0, 62, 59
1, 134238, Note_off_c, 0, 62, 64
1, 134258, Note_on_c, 0, 66, 71
1, 134259, Note_off_c, 0, 80, 61
1, 134272, Note_on_c, 0, 81, 74
1, 134303, Note_off_c, 0, 66, 58
1, 134342, Note_on_c, 0, 79, 78
1, 134347, Note_on_c, 0, 57, 62
1, 134349, Note_off_c, 0, 81, 60
1, 134385, Note_off_c, 0, 57, 62
1, 134407, Note_on_c, 0, 66, 69
1, 134413, Note_off_c, 0, 79, 62
1, 134415, Note_on_c, 0, 78, 76
1, 134460, Note_off_c, 0, 66, 56
1, 134474, Note_off_c, 0, 78, 65
1, 134495, Note_on_c, 0, 76, 75
1, 134501, Note_on_c, 0, 62, 54
1, 134529, Note_off_c, 0, 62, 62
1, 134555, Note_off_c, 0, 76, 46
1, 134556, Note_on_c, 0, 66, 65
1, 134563, Note_on_c, 0, 74, 79
1, 134590, Note_off_c, 0, 66, 62
1, 134628, Note_off_c, 0, 74, 61
1, 134630, Note_on_c, 0, 75, 75
1, 134642, Note_on_c, 0, 57, 70
1, 134672, Note_off_c, 0, 57, 63
1, 134682, Note_off_c, 0, 75, 65
1, 134704, Note_on_c, 0, 76, 78
1, 134716, Note_on_c, 0, 67, 64
1, 134754, Note_off_c, 0, 76, 61
1, 134757, Note_off_c, 0, 67, 59
1, 134774, Note_on_c, 0, 78, 74
1, 134790, Note_on_c, 0, 64, 61
1, 134821, Note_off_c, 0, 64, 67
1, 134848, Note_off_c, 0, 78, 62
1, 134858, Note_on_c, 0, 79, 75
1, 134863, Note_on_c, 0, 67, 65
1, 134902, Note_off_c, 0, 67, 60
1, 134924, Note_on_c, 0, 78, 78
1, 134925, Note_on_c, 0, 57, 70
1, 134938, Note_off_c, 0, 79, 57
1, 134952, Control_c, 0, 64, 37
1, 134967, Control_c, 0, 64, 0
1, 134976, Note_off_c, 0, 57, 58
1, 134997, Note_on_c, 0, 76, 82
1, 135009, Note_off_c, 0, 78, 65
1, 135010, Note_on_c, 0, 64, 61
1, 135046, Note_off_c, 0, 76, 62
1, 135048, Note_off_c, 0, 64, 62
1, 135067, Note_on_c, 0, 74, 75
1, 135083, Note_on_c, 0, 67, 42
1, 135097, Note_off_c, 0, 74, 60
1, 135134, Note_on_c, 0, 73, 79
1, 135153, Note_off_c, 0, 67, 55
1, 135163, Note_off_c, 0, 73, 61
1, 135221, Note_on_c, 0, 74, 82
1, 135223, Note_on_c, 0, 66, 55
1, 135228, Note_on_c, 0, 62, 53
1, 135273, Note_off_c, 0, 74, 63
1, 135298, Note_on_c, 0, 69, 74
1, 135367, Note_off_c, 0, 69, 59
1, 135371, Note_on_c, 0, 74, 83
1, 135401, Note_off_c, 0, 66, 44
1, 135409, Note_off_c, 0, 62, 61
1, 135439, Note_on_c, 0, 78, 77
1, 135439, Note_off_c, 0, 74, 63
1, 135517, Note_off_c, 0, 78, 63
1, 135519, Note_on_c, 0, 81, 80
1, 135593, Note_off_c, 0, 81, 63
1, 135596, Note_on_c, 0, 78, 72
1, 135657, Note_off_c, 0, 78, 65
1, 135664, Note_on_c, 0, 79, 72
1, 135666, Note_on_c, 0, 64, 60
1, 135668, Note_on_c, 0, 57, 60
1, 135672, Note_on_c, 0, 61, 62
1, 135698, Note_off_c, 0, 64, 66
1, 135703, Note_off_c, 0, 57, 63
1, 135709, Note_off_c, 0, 61, 64
1, 135730, Note_on_c, 0, 76, 77
1, 135730, Note_off_c, 0, 79, 61
1, 135751, Note_off_c, 0, 76, 69
1, 135809, Note_on_c, 0, 62, 71
1, 135811, Note_on_c, 0, 74, 90
1, 135814, Note_on_c, 0, 66, 71
1, 135855, Note_off_c, 0, 74, 67
1, 135884, Note_on_c, 0, 69, 75
1, 135965, Note_on_c, 0, 74, 85
1, 135965, Note_off_c, 0, 69, 59
1, 136028, Note_on_c, 0, 78, 80
1, 136039, Note_off_c, 0, 74, 62
1, 136074, Note_off_c, 0, 66, 59
1, 136082, Note_off_c, 0, 62, 61
1, 136103, Note_on_c, 0, 81, 81
1, 136106, Note_off_c, 0, 78, 64
1, 136174, Note_on_c, 0, 78, 80
1, 136179, Note_off_c, 0, 81, 64
1, 136240, Note_on_c, 0, 61, 73
1, 136243, Note_on_c, 0, 79, 80
1, 136243, Note_on_c, 0, 64, 71
1, 136246, Note_on_c, 0, 57, 64
1, 136251, Note_off_c, 0, 78, 65
1, 136270, Note_off_c, 0, 64, 67
1, 136276, Note_off_c, 0, 61, 63
1, 136276, Note_off_c, 0, 57, 64
1, 136320, Note_on_c, 0, 76, 79
1, 136330, Note_off_c, 0, 79, 62
1, 136383, Note_off_c, 0, 76, 62
1, 136389, Note_on_c, 0, 62, 85
1, 136391, Note_on_c, 0, 74, 86
1, 136395, Note_on_c, 0, 66, 74
1, 136410, Note_off_c, 0, 62, 70
1, 136419, Note_off_c, 0, 66, 69
1, 136442, Note_off_c, 0, 74, 65
1, 136651, Note_on_c, 0, 76, 68
1, 136693, Note_on_c, 0, 79, 73
1, 136718, Note_on_c, 0, 85, 97
1, 136722, Note_on_c, 0, 58, 94
1, 136726, Note_on_c, 0, 46, 83
1, 136731, Note_off_c, 0, 76, 62
1, 136733, Note_off_c, 0, 79, 65
1, 136744, Note_off_c, 0, 58, 67
1, 136753, Note_off_c, 0, 46, 66
1, 136754, Note_off_c, 0, 85, 67
1, 137018, Note_on_c, 0, 74, 67
1, 137066, Control_c, 0, 64, 31
1, 137066, Note_on_c, 0, 78, 73
1, 137080, Control_c, 0, 64, 59
1, 137083, Note_off_c, 0, 74, 61
1, 137089, Note_on_c, 0, 86, 89
1, 137095, Control_c, 0, 64, 66
1, 137103, Note_on_c, 0, 59, 71
1, 137106, Note_on_c, 0, 47, 66
1, 137110, Control_c, 0, 64, 73
1, 137116, Note_off_c, 0, 78, 65
1, 137125, Control_c, 0, 64, 82
1, 137129, Note_off_c, 0, 86, 66
1, 137140, Control_c, 0, 64, 92
1, 137155, Control_c, 0, 64, 100
1, 137170, Control_c, 0, 64, 107
1, 137185, Control_c, 0, 64, 108
1, 137214, Control_c, 0, 67, 10
1, 137229, Control_c, 0, 67, 40
1, 137244, Control_c, 0, 64, 107
1, 137244, Control_c, 0, 67, 86
1, 137259, Control_c, 0, 64, 106
1, 137259, Control_c, 0, 67, 127
1, 137273, Control_c, 0, 64, 105
1, 137288, Control_c, 0, 64, 103
1, 137298, Note_off_c, 0, 59, 53
1, 137303, Control_c, 0, 64, 100
1, 137318, Control_c, 0, 64, 97
1, 137333, Control_c, 0, 64, 94
1, 137347, Control_c, 0, 64, 92
1, 137362, Control_c, 0, 64, 89
1, 137373, Note_off_c, 0, 47, 38
1, 137377, Control_c, 0, 64, 86
1, 137391, Control_c, 0, 64, 82
1, 137406, Control_c, 0, 64, 78
1, 137429, Control_c, 0, 64, 73
1, 137444, Control_c, 0, 64, 67
1, 137459, Control_c, 0, 64, 49
1, 137473, Control_c, 0, 64, 0
1, 137903, Control_c, 0, 64, 17
1, 137918, Control_c, 0, 64, 30
1, 137933, Control_c, 0, 64, 40
1, 137948, Control_c, 0, 64, 48
1, 137963, Control_c, 0, 64, 54
1, 137978, Control_c, 0, 64, 59
1, 137993, Control_c, 0, 64, 62
1, 138003, Note_on_c, 0, 79, 44
1, 138008, Control_c, 0, 64, 64
1, 138013, Note_on_c, 0, 71, 39
1, 138022, Control_c, 0, 64, 66
1, 138023, Note_on_c, 0, 55, 33
1, 138033, Note_on_c, 0, 43, 30
1, 138037, Control_c, 0, 64, 68
1, 138052, Control_c, 0, 64, 71
1, 138067, Control_c, 0, 64, 73
1, 138082, Control_c, 0, 64, 75
1, 138096, Control_c, 0, 64, 77
1, 138111, Control_c, 0, 64, 79
1, 138124, Note_off_c, 0, 71, 51
1, 138126, Control_c, 0, 64, 81
1, 138140, Control_c, 0, 64, 82
1, 138155, Control_c, 0, 64, 83
1, 138177, Control_c, 0, 64, 84
1, 138192, Control_c, 0, 64, 84
1, 138298, Note_on_c, 0, 78, 59
1, 138306, Note_on_c, 0, 69, 52
1, 138310, Note_off_c, 0, 79, 51
1, 138376, Note_off_c, 0, 69, 51
1, 138382, Note_off_c, 0, 78, 60
1, 138482, Note_on_c, 0, 78, 74
1, 138488, Note_on_c, 0, 69, 58
1, 138538, Note_off_c, 0, 69, 57
1, 138607, Note_off_c, 0, 43, 36
1, 138618, Note_off_c, 0, 55, 41
1, 138641, Note_on_c, 0, 76, 74
1, 138650, Note_on_c, 0, 67, 61
1, 138698, Note_off_c, 0, 76, 62
1, 138700, Note_off_c, 0, 67, 59
1, 138714, Note_off_c, 0, 78, 39
1, 138741, Control_c, 0, 64, 84
1, 138770, Control_c, 0, 64, 82
1, 138785, Control_c, 0, 64, 76
1, 138800, Control_c, 0, 64, 70
1, 138806, Note_on_c, 0, 76, 68
1, 138815, Control_c, 0, 64, 62
1, 138819, Note_on_c, 0, 57, 46
1, 138821, Note_on_c, 0, 67, 53
1, 138829, Note_on_c, 0, 45, 43
1, 138830, Control_c, 0, 64, 36
1, 138844, Control_c, 0, 64, 33
1, 138853, Note_off_c, 0, 67, 64
1, 138859, Control_c, 0, 64, 51
1, 138874, Control_c, 0, 64, 62
1, 138889, Control_c, 0, 64, 64
1, 138904, Control_c, 0, 64, 66
1, 138926, Control_c, 0, 64, 68
1, 138941, Control_c, 0, 64, 70
1, 138955, Control_c, 0, 64, 74
1, 138970, Control_c, 0, 64, 77
1, 138982, Note_off_c, 0, 76, 62
1, 138985, Control_c, 0, 64, 80
1, 138987, Note_on_c, 0, 74, 66
1, 138989, Note_on_c, 0, 66, 59
1, 139000, Control_c, 0, 64, 83
1, 139015, Control_c, 0, 64, 85
1, 139030, Control_c, 0, 64, 86
1, 139033, Note_off_c, 0, 74, 58
1, 139036, Note_off_c, 0, 66, 56
1, 139044, Control_c, 0, 64, 87
1, 139059, Control_c, 0, 64, 87
1, 139069, Note_off_c, 0, 57, 37
1, 139090, Control_c, 0, 64, 87
1, 139105, Control_c, 0, 64, 83
1, 139119, Control_c, 0, 64, 77
1, 139134, Control_c, 0, 64, 69
1, 139146, Note_on_c, 0, 74, 66
1, 139149, Control_c, 0, 64, 60
1, 139161, Note_on_c, 0, 66, 53
1, 139164, Control_c, 0, 64, 47
1, 139179, Control_c, 0, 64, 59
1, 139193, Control_c, 0, 64, 64
1, 139208, Control_c, 0, 64, 67
1, 139212, Note_off_c, 0, 66, 61
1, 139223, Control_c, 0, 64, 69
1, 139238, Control_c, 0, 64, 71
1, 139253, Control_c, 0, 64, 73
1, 139267, Control_c, 0, 64, 76
1, 139282, Control_c, 0, 64, 78
1, 139297, Control_c, 0, 64, 78
1, 139302, Note_off_c, 0, 74, 58
1, 139320, Note_on_c, 0, 73, 68
1, 139341, Note_on_c, 0, 64, 54
1, 139387, Note_off_c, 0, 64, 57
1, 139412, Note_off_c, 0, 73, 60
1, 139435, Note_off_c, 0, 45, 43
1, 139489, Control_c, 0, 64, 78
1, 139519, Control_c, 0, 64, 77
1, 139534, Control_c, 0, 64, 75
1, 139540, Note_on_c, 0, 73, 59
1, 139549, Control_c, 0, 64, 71
1, 139550, Note_on_c, 0, 67, 52
1, 139555, Note_on_c, 0, 64, 39
1, 139562, Note_on_c, 0, 50, 37
1, 139564, Control_c, 0, 64, 68
1, 139578, Control_c, 0, 64, 63
1, 139593, Control_c, 0, 64, 46
1, 139608, Control_c, 0, 64, 0
1, 139771, Note_off_c, 0, 50, 35
1, 140035, Note_on_c, 0, 45, 44
1, 140139, Note_off_c, 0, 45, 62
1, 140151, Control_c, 0, 64, 29
1, 140165, Control_c, 0, 64, 46
1, 140180, Control_c, 0, 64, 56
1, 140195, Control_c, 0, 64, 62
1, 140210, Control_c, 0, 64, 65
1, 140224, Control_c, 0, 64, 68
1, 140239, Control_c, 0, 64, 71
1, 140254, Control_c, 0, 64, 73
1, 140269, Control_c, 0, 64, 76
1, 140284, Control_c, 0, 64, 79
1, 140298, Control_c, 0, 64, 81
1, 140313, Control_c, 0, 64, 84
1, 140316, Note_off_c, 0, 64, 38
1, 140319, Note_off_c, 0, 67, 43
1, 140328, Control_c, 0, 64, 85
1, 140342, Control_c, 0, 64, 87
1, 140357, Control_c, 0, 64, 88
1, 140372, Control_c, 0, 64, 88
1, 140500, Note_off_c, 0, 73, 36
1, 140587, Control_c, 0, 64, 88
1, 140616, Control_c, 0, 64, 87
1, 140631, Control_c, 0, 64, 87
1, 140661, Control_c, 0, 64, 86
1, 140676, Control_c, 0, 64, 86
1, 140692, Control_c, 0, 64, 85
1, 140707, Control_c, 0, 64, 85
1, 140721, Control_c, 0, 64, 84
1, 140732, Note_on_c, 0, 74, 44
1, 140736, Control_c, 0, 64, 83
1, 140747, Note_on_c, 0, 66, 25
1, 140751, Control_c, 0, 64, 80
1, 140752, Note_on_c, 0, 38, 31
1, 140765, Control_c, 0, 64, 77
1, 140780, Control_c, 0, 64, 70
1, 140795, Control_c, 0, 64, 63
1, 140810, Control_c, 0, 64, 0
1, 140884, Control_c, 0, 64, 41
1, 140899, Control_c, 0, 64, 57
1, 140914, Control_c, 0, 64, 64
1, 140929, Control_c, 0, 64, 67
1, 140944, Control_c, 0, 64, 70
1, 140955, Note_off_c, 0, 38, 41
1, 140956, Note_off_c, 0, 74, 37
1, 140959, Control_c, 0, 64, 74
1, 140973, Control_c, 0, 64, 78
1, 140988, Note_off_c, 0, 66, 43
1, 140988, Control_c, 0, 64, 80
1, 141003, Control_c, 0, 64, 83
1, 141018, Control_c, 0, 64, 84
1, 141032, Control_c, 0, 64, 85
1, 141173, Control_c, 0, 67, 123
1, 141188, Control_c, 0, 67, 109
1, 141203, Control_c, 0, 67, 82
1, 141218, Control_c, 0, 67, 56
1, 141233, Control_c, 0, 67, 34
1, 141247, Control_c, 0, 67, 20
1, 141262, Control_c, 0, 67, 10
1, 141277, Control_c, 0, 64, 84
1, 141277, Control_c, 0, 67, 0
1, 141307, Control_c, 0, 64, 84
1, 141321, Control_c, 0, 64, 83
1, 141351, Control_c, 0, 64, 83
1, 141365, Control_c, 0, 64, 82
1, 141380, Control_c, 0, 64, 82
1, 141395, Control_c, 0, 64, 81
1, 141425, Control_c, 0, 64, 81
1, 141439, Control_c, 0, 64, 80
1, 141454, Control_c, 0, 64, 79
1, 141469, Control_c, 0, 64, 79
1, 141485, Control_c, 0, 64, 78
1, 141500, Control_c, 0, 64, 77
1, 141515, Control_c, 0, 64, 76
1, 141530, Control_c, 0, 64, 76
1, 141544, Control_c, 0, 64, 75
1, 141559, Control_c, 0, 64, 74
1, 141574, Control_c, 0, 64, 73
1, 141588, Control_c, 0, 64, 72
1, 141603, Control_c, 0, 64, 71
1, 141618, Control_c, 0, 64, 69
1, 141633, Control_c, 0, 64, 66
1, 141648, Control_c, 0, 64, 62
1, 141662, Control_c, 0, 64, 53
1, 141677, Control_c, 0, 64, 45
1, 141692, Control_c, 0, 64, 40
1, 141707, Control_c, 0, 64, 37
1, 141722, Control_c, 0, 64, 36
1, 141737, Control_c, 0, 64, 34
1, 141752, Control_c, 0, 64, 30
1, 141766, Control_c, 0, 64, 23
1, 141781, Control_c, 0, 64, 11
1, 141796, Control_c, 0, 64, 0
1, 146755, Control_c, 0, 67, 10
1, 146770, Control_c, 0, 67, 18
1, 146784, Control_c, 0, 67, 32
1, 146799, Control_c, 0, 67, 43
1, 146814, Control_c, 0, 67, 53
1, 146829, Control_c, 0, 67, 63
1, 146844, Control_c, 0, 67, 74
1, 146858, Control_c, 0, 67, 85
1, 146873, Control_c, 0, 67, 96
1, 146888, Control_c, 0, 67, 109
1, 146903, Control_c, 0, 67, 119
1, 146917, Control_c, 0, 67, 127
1, 149027, Note_on_c, 0, 71, 51
1, 149053, Note_on_c, 0, 55, 40
1, 149058, Note_on_c, 0, 62, 31
1, 149491, Note_on_c, 0, 74, 57
1, 149529, Note_off_c, 0, 71, 61
1, 149543, Note_on_c, 0, 72, 63
1, 149604, Note_off_c, 0, 74, 56
1, 149920, Note_on_c, 0, 71, 63
1, 149975, Note_off_c, 0, 72, 54
1, 150003, Note_on_c, 0, 54, 37
1, 150003, Note_on_c, 0, 69, 69
1, 150049, Note_off_c, 0, 71, 62
1, 150088, Note_off_c, 0, 55, 42
1, 150492, Note_on_c, 0, 55, 43
1, 150498, Note_on_c, 0, 71, 67
1, 150581, Note_off_c, 0, 54, 42
1, 150629, Note_off_c, 0, 69, 38
1, 150687, Note_off_c, 0, 62, 41
1, 151015, Note_on_c, 0, 72, 52
1, 151024, Note_on_c, 0, 62, 37
1, 151027, Note_on_c, 0, 57, 40
1, 151114, Note_off_c, 0, 71, 59
1, 151121, Note_off_c, 0, 55, 37
1, 151563, Note_on_c, 0, 74, 55
1, 151582, Note_on_c, 0, 54, 36
1, 151646, Note_off_c, 0, 72, 58
1, 151682, Note_off_c, 0, 57, 53
1, 152108, Note_on_c, 0, 72, 50
1, 152119, Note_on_c, 0, 55, 38
1, 152194, Note_off_c, 0, 54, 43
1, 152231, Note_off_c, 0, 74, 37
1, 152365, Note_on_c, 0, 71, 60
1, 152454, Note_off_c, 0, 72, 55
1, 152619, Note_on_c, 0, 69, 64
1, 152623, Note_off_c, 0, 62, 42
1, 152662, Note_off_c, 0, 71, 60
1, 152716, Control_c, 0, 67, 122
1, 152731, Control_c, 0, 67, 110
1, 152745, Control_c, 0, 67, 90
1, 152760, Control_c, 0, 67, 65
1, 152775, Control_c, 0, 67, 35
1, 152790, Control_c, 0, 67, 15
1, 152805, Control_c, 0, 67, 0
1, 152849, Note_on_c, 0, 67, 62
1, 152853, Note_off_c, 0, 69, 60
1, 152957, Note_off_c, 0, 67, 52
1, 153003, Note_off_c, 0, 55, 42
1, 153105, Note_on_c, 0, 72, 80
1, 153106, Note_on_c, 0, 64, 81
1, 153106, Note_on_c, 0, 67, 77
1, 153115, Note_on_c, 0, 52, 69
1, 153207, Note_off_c, 0, 67, 62
1, 153208, Note_off_c, 0, 64, 64
1, 153212, Note_off_c, 0, 52, 62
1, 153216, Note_off_c, 0, 72, 63
1, 153613, Note_on_c, 0, 71, 82
1, 153618, Note_on_c, 0, 62, 77
1, 153619, Note_on_c, 0, 67, 76
1, 153623, Note_on_c, 0, 50, 68
1, 153705, Note_off_c, 0, 50, 64
1, 153711, Note_off_c, 0, 62, 61
1, 153714, Note_off_c, 0, 67, 62
1, 153726, Note_off_c, 0, 71, 64
1, 154144, Note_on_c, 0, 76, 76
1, 154149, Note_on_c, 0, 60, 57
1, 154155, Note_on_c, 0, 67, 63
1, 154159, Note_on_c, 0, 48, 52
1, 154198, Control_c, 0, 64, 41
1, 154213, Control_c, 0, 64, 56
1, 154228, Control_c, 0, 64, 63
1, 154242, Control_c, 0, 64, 65
1, 154257, Control_c, 0, 64, 68
1, 154273, Control_c, 0, 64, 71
1, 154288, Control_c, 0, 64, 75
1, 154289, Note_off_c, 0, 48, 59
1, 154303, Control_c, 0, 64, 79
1, 154317, Control_c, 0, 64, 82
1, 154321, Note_off_c, 0, 60, 61
1, 154332, Control_c, 0, 64, 83
1, 154347, Control_c, 0, 64, 85
1, 154362, Control_c, 0, 64, 87
1, 154377, Control_c, 0, 64, 87
1, 154391, Control_c, 0, 64, 88
1, 154406, Control_c, 0, 67, 21
1, 154421, Control_c, 0, 67, 46
1, 154436, Control_c, 0, 67, 76
1, 154451, Control_c, 0, 67, 107
1, 154465, Control_c, 0, 64, 87
1, 154465, Control_c, 0, 67, 127
1, 154480, Control_c, 0, 64, 87
1, 154495, Control_c, 0, 64, 86
1, 154510, Note_off_c, 0, 67, 38
1, 154510, Control_c, 0, 64, 84
1, 154525, Control_c, 0, 64, 82
1, 154540, Control_c, 0, 64, 79
1, 154555, Control_c, 0, 64, 75
1, 154569, Control_c, 0, 64, 68
1, 154584, Control_c, 0, 64, 54
1, 154587, Note_off_c, 0, 76, 49
1, 154599, Control_c, 0, 64, 0
1, 154931, Note_on_c, 0, 74, 51
1, 154945, Note_on_c, 0, 59, 37
1, 154955, Note_on_c, 0, 67, 37
1, 155045, Note_off_c, 0, 74, 60
1, 155184, Note_on_c, 0, 72, 56
1, 155210, Note_on_c, 0, 54, 42
1, 155247, Note_off_c, 0, 67, 52
1, 155302, Note_off_c, 0, 59, 37
1, 155430, Note_on_c, 0, 69, 59
1, 155497, Note_off_c, 0, 72, 54
1, 155674, Note_off_c, 0, 54, 44
1, 155677, Note_on_c, 0, 71, 58
1, 155688, Note_on_c, 0, 55, 36
1, 155707, Note_off_c, 0, 69, 54
1, 155844, Control_c, 0, 64, 26
1, 155860, Control_c, 0, 64, 46
1, 155875, Control_c, 0, 64, 57
1, 155889, Control_c, 0, 64, 64
1, 155904, Control_c, 0, 64, 66
1, 155910, Note_off_c, 0, 71, 62
1, 155911, Note_on_c, 0, 67, 55
1, 155919, Control_c, 0, 64, 68
1, 155934, Control_c, 0, 64, 70
1, 155949, Control_c, 0, 64, 73
1, 155963, Control_c, 0, 64, 75
1, 155978, Control_c, 0, 64, 77
1, 155993, Control_c, 0, 64, 79
1, 156008, Control_c, 0, 64, 81
1, 156023, Control_c, 0, 64, 82
1, 156037, Control_c, 0, 64, 83
1, 156044, Note_off_c, 0, 67, 53
1, 156164, Control_c, 0, 64, 83
1, 156178, Control_c, 0, 64, 81
1, 156188, Note_off_c, 0, 55, 34
1, 156188, Note_on_c, 0, 71, 49
1, 156190, Note_on_c, 0, 67, 45
1, 156193, Control_c, 0, 64, 79
1, 156208, Control_c, 0, 64, 77
1, 156215, Note_on_c, 0, 50, 34
1, 156222, Control_c, 0, 64, 74
1, 156237, Control_c, 0, 64, 72
1, 156251, Control_c, 0, 64, 68
1, 156266, Control_c, 0, 64, 62
1, 156281, Control_c, 0, 64, 24
1, 156295, Control_c, 0, 64, 0
1, 156728, Note_off_c, 0, 71, 35
1, 156747, Note_off_c, 0, 67, 41
1, 156755, Note_on_c, 0, 69, 43
1, 156760, Note_on_c, 0, 66, 39
1, 156986, Control_c, 0, 64, 14
1, 157000, Control_c, 0, 64, 47
1, 157000, Control_c, 0, 67, 122
1, 157015, Control_c, 0, 64, 59
1, 157015, Control_c, 0, 67, 106
1, 157023, Note_off_c, 0, 69, 61
1, 157030, Control_c, 0, 64, 64
1, 157030, Control_c, 0, 67, 82
1, 157045, Control_c, 0, 64, 68
1, 157045, Control_c, 0, 67, 53
1, 157049, Note_off_c, 0, 50, 56
1, 157060, Control_c, 0, 64, 72
1, 157060, Control_c, 0, 67, 24
1, 157074, Control_c, 0, 64, 75
1, 157074, Control_c, 0, 67, 0
1, 157089, Control_c, 0, 64, 77
1, 157104, Control_c, 0, 64, 79
1, 157118, Control_c, 0, 64, 80
1, 157133, Control_c, 0, 64, 81
1, 157252, Control_c, 0, 64, 80
1, 157267, Control_c, 0, 64, 79
1, 157278, Note_on_c, 0, 71, 59
1, 157282, Control_c, 0, 64, 78
1, 157297, Control_c, 0, 64, 76
1, 157309, Note_on_c, 0, 62, 36
1, 157311, Control_c, 0, 64, 73
1, 157316, Note_on_c, 0, 55, 40
1, 157326, Control_c, 0, 64, 69
1, 157327, Note_off_c, 0, 66, 54
1, 157341, Control_c, 0, 64, 63
1, 157356, Control_c, 0, 64, 32
1, 157371, Control_c, 0, 64, 0
1, 157490, Control_c, 0, 67, 10
1, 157505, Control_c, 0, 67, 15
1, 157520, Control_c, 0, 67, 23
1, 157534, Control_c, 0, 67, 30
1, 157549, Control_c, 0, 67, 33
1, 157564, Control_c, 0, 67, 34
1, 157660, Control_c, 0, 67, 33
1, 157675, Control_c, 0, 67, 33
1, 157705, Control_c, 0, 67, 32
1, 157749, Control_c, 0, 67, 32
1, 157758, Note_on_c, 0, 74, 56
1, 157775, Note_off_c, 0, 71, 61
1, 157799, Note_on_c, 0, 72, 62
1, 157808, Control_c, 0, 67, 32
1, 157838, Control_c, 0, 67, 33
1, 157839, Note_off_c, 0, 74, 60
1, 157853, Control_c, 0, 67, 33
1, 157867, Control_c, 0, 67, 34
1, 157971, Control_c, 0, 67, 33
1, 158045, Control_c, 0, 67, 33
1, 158134, Control_c, 0, 67, 32
1, 158167, Note_on_c, 0, 71, 54
1, 158200, Note_off_c, 0, 72, 55
1, 158260, Note_on_c, 0, 69, 56
1, 158273, Note_off_c, 0, 71, 55
1, 158281, Note_on_c, 0, 54, 38
1, 158338, Note_off_c, 0, 55, 39
1, 158786, Note_on_c, 0, 71, 57
1, 158793, Note_on_c, 0, 55, 35
1, 158848, Note_off_c, 0, 54, 41
1, 158915, Note_off_c, 0, 69, 36
1, 159026, Note_off_c, 0, 62, 40
1, 159334, Note_on_c, 0, 72, 52
1, 159335, Note_off_c, 0, 55, 36
1, 159345, Note_on_c, 0, 62, 22
1, 159357, Note_on_c, 0, 57, 34
1, 159395, Note_off_c, 0, 71, 51
1, 159883, Note_on_c, 0, 76, 55
1, 159905, Note_on_c, 0, 54, 35
1, 159938, Note_off_c, 0, 72, 56
1, 160048, Note_off_c, 0, 57, 31
1, 160131, Note_on_c, 0, 74, 61
1, 160265, Note_off_c, 0, 76, 34
1, 160351, Control_c, 0, 67, 33
1, 160382, Note_on_c, 0, 55, 38
1, 160385, Note_on_c, 0, 72, 60
1, 160461, Note_off_c, 0, 54, 42
1, 160482, Note_off_c, 0, 74, 54
1, 160648, Note_on_c, 0, 71, 72
1, 160718, Note_off_c, 0, 72, 57
1, 160848, Control_c, 0, 67, 32
1, 160863, Control_c, 0, 67, 32
1, 160874, Note_on_c, 0, 69, 70
1, 160878, Control_c, 0, 67, 31
1, 160890, Note_off_c, 0, 71, 62
1, 160892, Control_c, 0, 67, 30
1, 160899, Note_off_c, 0, 62, 45
1, 160907, Control_c, 0, 67, 29
1, 160922, Control_c, 0, 67, 27
1, 160937, Control_c, 0, 67, 25
1, 160952, Control_c, 0, 67, 22
1, 160966, Control_c, 0, 67, 15
1, 160981, Control_c, 0, 67, 0
1, 161112, Note_off_c, 0, 69, 56
1, 161117, Note_on_c, 0, 67, 70
1, 161192, Note_off_c, 0, 67, 60
1, 161276, Note_off_c, 0, 55, 50
1, 161366, Note_on_c, 0, 72, 90
1, 161370, Note_on_c, 0, 64, 81
1, 161370, Note_on_c, 0, 67, 82
1, 161383, Note_on_c, 0, 52, 74
1, 161466, Note_off_c, 0, 67, 62
1, 161472, Note_off_c, 0, 52, 62
1, 161472, Note_off_c, 0, 64, 64
1, 161474, Note_off_c, 0, 72, 64
1, 161882, Note_on_c, 0, 71, 84
1, 161885, Note_on_c, 0, 62, 74
1, 161885, Note_on_c, 0, 67, 76
1, 161890, Note_on_c, 0, 50, 70
1, 161977, Note_off_c, 0, 50, 65
1, 161980, Note_off_c, 0, 62, 62
1, 161982, Note_off_c, 0, 67, 61
1, 161992, Note_off_c, 0, 71, 64
1, 162347, Control_c, 0, 64, 23
1, 162362, Control_c, 0, 64, 39
1, 162376, Control_c, 0, 64, 51
1, 162391, Control_c, 0, 64, 58
1, 162406, Control_c, 0, 64, 63
1, 162421, Control_c, 0, 64, 65
1, 162428, Note_on_c, 0, 76, 75
1, 162436, Control_c, 0, 64, 67
1, 162445, Note_on_c, 0, 60, 56
1, 162448, Note_on_c, 0, 67, 59
1, 162451, Control_c, 0, 64, 70
1, 162454, Note_on_c, 0, 48, 54
1, 162465, Control_c, 0, 64, 73
1, 162480, Control_c, 0, 64, 76
1, 162495, Control_c, 0, 64, 79
1, 162510, Control_c, 0, 64, 82
1, 162525, Control_c, 0, 64, 85
1, 162539, Control_c, 0, 64, 87
1, 162553, Note_off_c, 0, 48, 61
1, 162554, Control_c, 0, 64, 89
1, 162555, Note_off_c, 0, 60, 58
1, 162569, Control_c, 0, 64, 90
1, 162584, Control_c, 0, 64, 90
1, 162627, Note_off_c, 0, 67, 38
1, 162657, Control_c, 0, 67, 18
1, 162661, Note_off_c, 0, 76, 55
1, 162672, Control_c, 0, 64, 90
1, 162672, Control_c, 0, 67, 36
1, 162687, Control_c, 0, 64, 89
1, 162687, Control_c, 0, 67, 56
1, 162702, Control_c, 0, 64, 87
1, 162702, Control_c, 0, 67, 76
1, 162717, Control_c, 0, 64, 86
1, 162717, Control_c, 0, 67, 96
1, 162731, Control_c, 0, 64, 84
1, 162731, Control_c, 0, 67, 114
1, 162746, Control_c, 0, 64, 81
1, 162746, Control_c, 0, 67, 127
1, 162761, Control_c, 0, 64, 77
1, 162776, Control_c, 0, 64, 73
1, 162791, Control_c, 0, 64, 67
1, 162806, Control_c, 0, 64, 48
1, 162821, Control_c, 0, 64, 0
1, 162832, Note_on_c, 0, 78, 60
1, 163108, Note_on_c, 0, 79, 54
1, 163129, Note_off_c, 0, 78, 48
1, 163348, Note_on_c, 0, 72, 50
1, 163361, Note_on_c, 0, 67, 35
1, 163375, Note_on_c, 0, 64, 16
1, 163406, Note_off_c, 0, 79, 43
1, 163447, Note_off_c, 0, 67, 49
1, 163587, Note_off_c, 0, 64, 41
1, 163617, Note_on_c, 0, 67, 36
1, 163631, Note_on_c, 0, 71, 52
1, 163634, Note_off_c, 0, 72, 54
1, 163650, Note_on_c, 0, 62, 33
1, 163724, Control_c, 0, 64, 19
1, 163739, Control_c, 0, 64, 47
1, 163754, Control_c, 0, 64, 60
1, 163769, Control_c, 0, 64, 65
1, 163783, Control_c, 0, 64, 66
1, 163798, Control_c, 0, 64, 68
1, 163813, Control_c, 0, 64, 70
1, 163828, Control_c, 0, 64, 72
1, 163843, Control_c, 0, 64, 75
1, 163858, Control_c, 0, 64, 77
1, 163873, Control_c, 0, 64, 79
1, 163888, Control_c, 0, 64, 80
1, 163903, Control_c, 0, 64, 80
1, 163958, Note_off_c, 0, 71, 61
1, 164051, Control_c, 0, 64, 80
1, 164081, Control_c, 0, 64, 79
1, 164110, Control_c, 0, 64, 79
1, 164124, Note_on_c, 0, 71, 48
1, 164125, Control_c, 0, 64, 78
1, 164140, Control_c, 0, 64, 77
1, 164154, Note_off_c, 0, 71, 66
1, 164155, Control_c, 0, 64, 76
1, 164156, Note_on_c, 0, 66, 40
1, 164169, Control_c, 0, 64, 74
1, 164183, Note_on_c, 0, 69, 44
1, 164184, Control_c, 0, 64, 71
1, 164192, Note_off_c, 0, 67, 37
1, 164199, Control_c, 0, 64, 66
1, 164213, Note_off_c, 0, 69, 60
1, 164214, Control_c, 0, 64, 55
1, 164228, Control_c, 0, 64, 0
1, 164233, Note_on_c, 0, 71, 59
1, 164263, Note_off_c, 0, 71, 67
1, 164301, Note_on_c, 0, 69, 44
1, 164327, Note_off_c, 0, 62, 46
1, 164329, Note_on_c, 0, 71, 53
1, 164329, Note_off_c, 0, 69, 57
1, 164363, Note_off_c, 0, 71, 66
1, 164387, Note_on_c, 0, 69, 61
1, 164418, Note_off_c, 0, 69, 64
1, 164429, Note_off_c, 0, 66, 61
1, 164437, Note_on_c, 0, 71, 55
1, 164472, Note_off_c, 0, 71, 66
1, 164496, Note_on_c, 0, 69, 56
1, 164527, Note_off_c, 0, 69, 66
1, 164561, Note_on_c, 0, 67, 41
1, 164591, Note_off_c, 0, 67, 53
1, 164609, Note_on_c, 0, 69, 60
1, 164648, Note_off_c, 0, 69, 62
1, 164670, Note_on_c, 0, 67, 57
1, 164694, Note_on_c, 0, 55, 38
1, 164785, Control_c, 0, 64, 21
1, 164800, Control_c, 0, 64, 43
1, 164815, Control_c, 0, 64, 54
1, 164830, Control_c, 0, 64, 60
1, 164844, Control_c, 0, 64, 63
1, 164859, Control_c, 0, 64, 66
1, 164874, Control_c, 0, 64, 68
1, 164889, Control_c, 0, 64, 70
1, 164904, Control_c, 0, 64, 71
1, 164918, Control_c, 0, 64, 73
1, 164933, Control_c, 0, 64, 76
1, 164948, Note_on_c, 0, 59, 31
1, 164948, Control_c, 0, 64, 79
1, 164963, Control_c, 0, 64, 82
1, 164978, Control_c, 0, 64, 84
1, 164992, Control_c, 0, 64, 86
1, 165007, Control_c, 0, 64, 88
1, 165022, Control_c, 0, 64, 90
1, 165030, Note_off_c, 0, 67, 41
1, 165037, Control_c, 0, 64, 92
1, 165051, Control_c, 0, 64, 93
1, 165066, Control_c, 0, 64, 94
1, 165081, Control_c, 0, 64, 95
1, 165096, Control_c, 0, 64, 96
1, 165111, Control_c, 0, 67, 123
1, 165133, Control_c, 0, 64, 96
1, 165133, Control_c, 0, 67, 114
1, 165148, Control_c, 0, 67, 100
1, 165163, Control_c, 0, 67, 79
1, 165178, Control_c, 0, 67, 61
1, 165193, Control_c, 0, 67, 45
1, 165207, Control_c, 0, 67, 34
1, 165210, Note_on_c, 0, 62, 40
1, 165222, Control_c, 0, 67, 26
1, 165237, Control_c, 0, 67, 18
1, 165251, Control_c, 0, 67, 9
1, 165266, Control_c, 0, 67, 0
1, 165279, Note_off_c, 0, 59, 39
1, 165331, Note_off_c, 0, 62, 32
1, 165464, Note_on_c, 0, 59, 28
1, 165517, Note_off_c, 0, 59, 47
1, 165579, Note_off_c, 0, 55, 53
1, 165697, Control_c, 0, 64, 96
1, 165722, Note_on_c, 0, 69, 73
1, 165727, Control_c, 0, 64, 95
1, 165742, Control_c, 0, 64, 95
1, 165756, Control_c, 0, 64, 94
1, 165769, Note_on_c, 0, 48, 44
1, 165771, Control_c, 0, 64, 93
1, 165786, Control_c, 0, 64, 92
1, 165801, Control_c, 0, 64, 92
1, 165815, Control_c, 0, 64, 91
1, 165830, Control_c, 0, 64, 89
1, 165845, Control_c, 0, 64, 88
1, 165860, Control_c, 0, 64, 87
1, 165882, Control_c, 0, 64, 86
1, 165897, Control_c, 0, 64, 85
1, 165912, Control_c, 0, 64, 83
1, 165927, Control_c, 0, 64, 81
1, 165942, Control_c, 0, 64, 78
1, 165957, Control_c, 0, 64, 74
1, 165971, Control_c, 0, 64, 68
1, 165986, Control_c, 0, 64, 57
1, 166001, Control_c, 0, 64, 0
1, 166022, Note_on_c, 0, 52, 45
1, 166090, Control_c, 0, 64, 39
1, 166105, Control_c, 0, 64, 53
1, 166120, Control_c, 0, 64, 60
1, 166135, Control_c, 0, 64, 64
1, 166149, Control_c, 0, 64, 65
1, 166164, Control_c, 0, 64, 67
1, 166179, Control_c, 0, 64, 71
1, 166193, Control_c, 0, 64, 74
1, 166208, Control_c, 0, 64, 77
1, 166223, Control_c, 0, 64, 80
1, 166238, Control_c, 0, 64, 82
1, 166254, Control_c, 0, 64, 84
1, 166269, Control_c, 0, 64, 85
1, 166271, Note_on_c, 0, 57, 46
1, 166284, Control_c, 0, 64, 88
1, 166298, Control_c, 0, 64, 90
1, 166313, Control_c, 0, 64, 92
1, 166317, Note_off_c, 0, 52, 34
1, 166328, Control_c, 0, 64, 93
1, 166343, Control_c, 0, 64, 94
1, 166358, Control_c, 0, 64, 95
1, 166503, Note_off_c, 0, 57, 34
1, 166508, Note_on_c, 0, 52, 46
1, 166594, Note_off_c, 0, 48, 42
1, 166661, Control_c, 0, 64, 94
1, 166676, Control_c, 0, 64, 94
1, 166705, Control_c, 0, 64, 93
1, 166735, Control_c, 0, 64, 93
1, 166750, Control_c, 0, 64, 92
1, 166765, Control_c, 0, 64, 92
1, 166779, Control_c, 0, 64, 91
1, 166788, Note_on_c, 0, 67, 55
1, 166794, Control_c, 0, 64, 90
1, 166805, Note_on_c, 0, 50, 41
1, 166809, Control_c, 0, 64, 90
1, 166824, Control_c, 0, 64, 89
1, 166827, Note_off_c, 0, 52, 22
1, 166839, Control_c, 0, 64, 88
1, 166854, Control_c, 0, 64, 86
1, 166869, Control_c, 0, 64, 81
1, 166884, Control_c, 0, 64, 74
1, 166898, Control_c, 0, 64, 65
1, 166913, Control_c, 0, 64, 0
1, 166921, Note_off_c, 0, 69, 51
1, 166958, Control_c, 0, 64, 33
1, 166972, Control_c, 0, 64, 55
1, 166987, Control_c, 0, 64, 63
1, 167002, Control_c, 0, 64, 66
1, 167016, Control_c, 0, 64, 68
1, 167031, Control_c, 0, 64, 71
1, 167042, Note_on_c, 0, 66, 67
1, 167047, Control_c, 0, 64, 76
1, 167062, Control_c, 0, 64, 81
1, 167072, Note_on_c, 0, 60, 45
1, 167077, Control_c, 0, 64, 84
1, 167092, Control_c, 0, 64, 88
1, 167107, Control_c, 0, 64, 92
1, 167121, Note_off_c, 0, 67, 56
1, 167121, Control_c, 0, 64, 94
1, 167136, Control_c, 0, 64, 98
1, 167151, Control_c, 0, 64, 101
1, 167166, Control_c, 0, 64, 105
1, 167181, Control_c, 0, 64, 108
1, 167195, Control_c, 0, 64, 110
1, 167210, Control_c, 0, 64, 111
1, 167211, Note_off_c, 0, 66, 60
1, 167225, Control_c, 0, 64, 111
1, 167304, Note_on_c, 0, 66, 78
1, 167304, Note_on_c, 0, 57, 49
1, 167347, Note_off_c, 0, 60, 36
1, 167524, Note_off_c, 0, 50, 48
1, 167548, Note_on_c, 0, 62, 81
1, 167554, Note_on_c, 0, 60, 48
1, 167582, Note_off_c, 0, 57, 35
1, 167591, Note_off_c, 0, 66, 58
1, 167617, Control_c, 0, 64, 111
1, 167676, Control_c, 0, 64, 110
1, 167706, Control_c, 0, 64, 110
1, 167735, Control_c, 0, 64, 109
1, 167750, Control_c, 0, 64, 108
1, 167764, Control_c, 0, 64, 107
1, 167779, Control_c, 0, 64, 106
1, 167794, Control_c, 0, 64, 105
1, 167808, Note_on_c, 0, 74, 80
1, 167809, Control_c, 0, 64, 104
1, 167816, Note_off_c, 0, 60, 38
1, 167824, Control_c, 0, 64, 102
1, 167840, Control_c, 0, 64, 99
1, 167842, Note_on_c, 0, 55, 41
1, 167855, Control_c, 0, 64, 95
1, 167869, Control_c, 0, 64, 91
1, 167884, Control_c, 0, 64, 88
1, 167899, Control_c, 0, 64, 83
1, 167914, Control_c, 0, 64, 77
1, 167929, Control_c, 0, 64, 70
1, 167940, Note_off_c, 0, 62, 38
1, 167943, Control_c, 0, 64, 57
1, 167958, Control_c, 0, 64, 0
1, 168065, Note_on_c, 0, 59, 47
1, 168232, Control_c, 0, 64, 21
1, 168247, Control_c, 0, 64, 53
1, 168262, Control_c, 0, 64, 61
1, 168276, Control_c, 0, 64, 65
1, 168291, Control_c, 0, 64, 67
1, 168306, Control_c, 0, 64, 69
1, 168321, Control_c, 0, 64, 72
1, 168321, Control_c, 0, 67, 9
1, 168336, Control_c, 0, 64, 74
1, 168336, Control_c, 0, 67, 21
1, 168343, Note_on_c, 0, 62, 42
1, 168345, Note_off_c, 0, 59, 35
1, 168350, Control_c, 0, 64, 76
1, 168350, Control_c, 0, 67, 45
1, 168365, Control_c, 0, 64, 78
1, 168365, Control_c, 0, 67, 67
1, 168380, Control_c, 0, 64, 80
1, 168380, Control_c, 0, 67, 86
1, 168395, Control_c, 0, 64, 82
1, 168395, Control_c, 0, 67, 103
1, 168410, Control_c, 0, 64, 83
1, 168410, Control_c, 0, 67, 118
1, 168425, Control_c, 0, 64, 85
1, 168425, Control_c, 0, 67, 127
1, 168440, Control_c, 0, 64, 86
1, 168455, Control_c, 0, 64, 87
1, 168469, Control_c, 0, 64, 88
1, 168499, Control_c, 0, 64, 88
1, 168595, Note_on_c, 0, 59, 43
1, 168617, Note_off_c, 0, 55, 53
1, 168622, Note_off_c, 0, 62, 29
1, 168722, Note_off_c, 0, 59, 38
1, 168810, Control_c, 0, 64, 88
1, 168840, Control_c, 0, 64, 87
1, 168850, Note_on_c, 0, 67, 53
1, 168855, Control_c, 0, 64, 86
1, 168878, Control_c, 0, 64, 85
1, 168882, Note_on_c, 0, 52, 36
1, 168892, Control_c, 0, 64, 84
1, 168907, Control_c, 0, 64, 83
1, 168922, Control_c, 0, 64, 81
1, 168928, Note_off_c, 0, 74, 58
1, 168937, Control_c, 0, 64, 78
1, 168952, Control_c, 0, 64, 73
1, 168967, Control_c, 0, 64, 67
1, 168981, Control_c, 0, 64, 48
1, 168996, Control_c, 0, 64, 0
1, 169085, Control_c, 0, 64, 42
1, 169099, Note_on_c, 0, 55, 43
1, 169099, Control_c, 0, 64, 57
1, 169114, Control_c, 0, 64, 64
1, 169129, Control_c, 0, 64, 67
1, 169144, Control_c, 0, 64, 69
1, 169159, Control_c, 0, 64, 70
1, 169173, Control_c, 0, 64, 73
1, 169188, Control_c, 0, 64, 75
1, 169203, Control_c, 0, 64, 77
1, 169218, Control_c, 0, 64, 79
1, 169233, Control_c, 0, 64, 80
1, 169247, Control_c, 0, 64, 81
1, 169262, Control_c, 0, 64, 82
1, 169280, Note_off_c, 0, 67, 56
1, 169307, Control_c, 0, 64, 82
1, 169349, Note_on_c, 0, 59, 42
1, 169364, Note_off_c, 0, 55, 34
1, 169410, Note_on_c, 0, 67, 49
1, 169411, Control_c, 0, 64, 82
1, 169459, Note_off_c, 0, 67, 58
1, 169486, Note_on_c, 0, 69, 55
1, 169527, Note_off_c, 0, 69, 62
1, 169545, Control_c, 0, 64, 81
1, 169554, Note_on_c, 0, 67, 55
1, 169569, Note_on_c, 0, 55, 44
1, 169587, Note_off_c, 0, 67, 64
1, 169589, Control_c, 0, 64, 81
1, 169601, Note_on_c, 0, 69, 56
1, 169622, Note_off_c, 0, 55, 54
1, 169641, Control_c, 0, 64, 80
1, 169653, Note_off_c, 0, 69, 63
1, 169669, Note_on_c, 0, 67, 66
1, 169672, Note_off_c, 0, 52, 36
1, 169700, Control_c, 0, 64, 80
1, 169759, Control_c, 0, 64, 79
1, 169774, Control_c, 0, 64, 78
1, 169788, Control_c, 0, 64, 77
1, 169800, Note_off_c, 0, 59, 41
1, 169803, Control_c, 0, 64, 75
1, 169805, Note_off_c, 0, 67, 54
1, 169811, Note_on_c, 0, 69, 56
1, 169818, Control_c, 0, 64, 73
1, 169833, Control_c, 0, 64, 68
1, 169841, Note_on_c, 0, 48, 42
1, 169847, Control_c, 0, 64, 60
1, 169862, Control_c, 0, 64, 0
1, 170025, Control_c, 0, 64, 27
1, 170040, Control_c, 0, 64, 47
1, 170055, Control_c, 0, 64, 57
1, 170070, Control_c, 0, 64, 63
1, 170085, Control_c, 0, 64, 66
1, 170100, Control_c, 0, 64, 69
1, 170108, Note_on_c, 0, 52, 32
1, 170114, Control_c, 0, 64, 71
1, 170129, Control_c, 0, 64, 73
1, 170144, Control_c, 0, 64, 76
1, 170159, Control_c, 0, 64, 78
1, 170173, Control_c, 0, 64, 81
1, 170188, Control_c, 0, 64, 84
1, 170203, Control_c, 0, 64, 86
1, 170218, Control_c, 0, 64, 87
1, 170234, Control_c, 0, 64, 88
1, 170245, Note_off_c, 0, 69, 52
1, 170249, Control_c, 0, 64, 88
1, 170353, Note_off_c, 0, 52, 38
1, 170365, Note_on_c, 0, 69, 62
1, 170372, Note_on_c, 0, 57, 40
1, 170444, Note_off_c, 0, 69, 57
1, 170594, Note_on_c, 0, 52, 41
1, 170637, Note_off_c, 0, 57, 35
1, 170670, Control_c, 0, 64, 88
1, 170677, Note_off_c, 0, 48, 41
1, 170728, Note_off_c, 0, 52, 0
1, 170744, Control_c, 0, 64, 87
1, 170768, Poly_aftertouch_c, 0, 52, 0
1, 170789, Control_c, 0, 64, 87
1, 170833, Control_c, 0, 64, 86
1, 170848, Control_c, 0, 64, 86
1, 170860, Note_on_c, 0, 67, 51
1, 170863, Control_c, 0, 64, 84
1, 170878, Control_c, 0, 64, 83
1, 170878, Note_on_c, 0, 50, 40
1, 170893, Control_c, 0, 64, 80
1, 170908, Control_c, 0, 64, 76
1, 170923, Control_c, 0, 64, 70
1, 170937, Control_c, 0, 64, 54
1, 170952, Control_c, 0, 64, 0
1, 171176, Note_on_c, 0, 66, 61
1, 171201, Note_on_c, 0, 60, 37
1, 171214, Note_off_c, 0, 67, 54
1, 171317, Note_off_c, 0, 66, 60
1, 171414, Note_on_c, 0, 66, 54
1, 171416, Note_off_c, 0, 60, 48
1, 171419, Note_on_c, 0, 57, 39
1, 171631, Note_off_c, 0, 66, 58
1, 171633, Note_off_c, 0, 50, 48
1, 171635, Note_off_c, 0, 57, 33
1, 171644, Note_on_c, 0, 62, 39
1, 171662, Note_on_c, 0, 60, 38
1, 171927, Note_off_c, 0, 60, 47
1, 171933, Note_off_c, 0, 62, 46
1, 171971, Note_on_c, 0, 67, 37
1, 171984, Note_on_c, 0, 55, 33
1, 171987, Note_on_c, 0, 59, 28
1, 172347, Control_c, 0, 64, 30
1, 172361, Control_c, 0, 64, 47
1, 172376, Control_c, 0, 64, 56
1, 172391, Control_c, 0, 64, 62
1, 172406, Control_c, 0, 64, 66
1, 172421, Control_c, 0, 64, 68
1, 172435, Control_c, 0, 64, 70
1, 172450, Control_c, 0, 64, 73
1, 172465, Control_c, 0, 64, 77
1, 172480, Control_c, 0, 64, 81
1, 172495, Control_c, 0, 64, 84
1, 172509, Control_c, 0, 64, 87
1, 172524, Control_c, 0, 64, 90
1, 172538, Note_off_c, 0, 59, 43
1, 172539, Control_c, 0, 64, 92
1, 172553, Control_c, 0, 64, 94
1, 172568, Control_c, 0, 64, 94
1, 172601, Note_off_c, 0, 55, 39
1, 172605, Note_off_c, 0, 67, 32
1, 172696, Control_c, 0, 64, 94
1, 172726, Control_c, 0, 64, 93
1, 172740, Control_c, 0, 64, 93
1, 172755, Control_c, 0, 64, 92
1, 172770, Control_c, 0, 64, 92
1, 172785, Control_c, 0, 64, 91
1, 172799, Control_c, 0, 64, 91
1, 172814, Control_c, 0, 64, 90
1, 172844, Control_c, 0, 64, 90
1, 172859, Control_c, 0, 64, 89
1, 172873, Control_c, 0, 64, 89
1, 172888, Control_c, 0, 64, 88
1, 172903, Control_c, 0, 64, 88
1, 172918, Control_c, 0, 64, 87
1, 172933, Control_c, 0, 64, 87
1, 172947, Control_c, 0, 64, 86
1, 172962, Control_c, 0, 64, 86
1, 172977, Control_c, 0, 64, 85
1, 172991, Control_c, 0, 64, 85
1, 173006, Control_c, 0, 64, 84
1, 173021, Control_c, 0, 64, 83
1, 173036, Control_c, 0, 64, 83
1, 173051, Control_c, 0, 64, 82
1, 173066, Control_c, 0, 64, 81
1, 173081, Control_c, 0, 64, 80
1, 173096, Control_c, 0, 64, 79
1, 173111, Control_c, 0, 64, 78
1, 173126, Control_c, 0, 64, 75
1, 173140, Control_c, 0, 64, 71
1, 173155, Control_c, 0, 64, 64
1, 173158, Note_on_c, 0, 63, 43
1, 173170, Control_c, 0, 64, 0
1, 173180, Note_on_c, 0, 54, 31
1, 173182, Note_on_c, 0, 47, 29
1, 173183, Note_on_c, 0, 57, 25
1, 173258, Control_c, 0, 64, 23
1, 173273, Control_c, 0, 64, 49
1, 173288, Control_c, 0, 64, 60
1, 173303, Control_c, 0, 64, 65
1, 173318, Control_c, 0, 64, 68
1, 173332, Control_c, 0, 64, 70
1, 173347, Control_c, 0, 64, 72
1, 173370, Control_c, 0, 64, 75
1, 173384, Control_c, 0, 64, 77
1, 173399, Control_c, 0, 64, 79
1, 173414, Control_c, 0, 64, 82
1, 173429, Control_c, 0, 64, 83
1, 173432, Note_off_c, 0, 57, 40
1, 173445, Control_c, 0, 64, 84
1, 173459, Control_c, 0, 64, 85
1, 173470, Note_off_c, 0, 54, 37
1, 173474, Control_c, 0, 64, 86
1, 173482, Note_off_c, 0, 47, 36
1, 173519, Note_off_c, 0, 63, 32
1, 173652, Control_c, 0, 64, 85
1, 173682, Control_c, 0, 64, 85
1, 173689, Note_on_c, 0, 63, 55
1, 173702, Note_on_c, 0, 54, 41
1, 173710, Note_on_c, 0, 57, 34
1, 173714, Note_on_c, 0, 47, 37
1, 173726, Control_c, 0, 64, 84
1, 173785, Control_c, 0, 64, 84
1, 173829, Control_c, 0, 64, 83
1, 173874, Control_c, 0, 64, 83
1, 173912, Note_off_c, 0, 57, 33
1, 173933, Control_c, 0, 64, 82
1, 173978, Control_c, 0, 64, 82
1, 174052, Control_c, 0, 64, 81
1, 174096, Control_c, 0, 64, 81
1, 174099, Note_off_c, 0, 54, 43
1, 174133, Control_c, 0, 64, 80
1, 174148, Control_c, 0, 64, 80
1, 174163, Control_c, 0, 64, 79
1, 174178, Control_c, 0, 64, 79
1, 174187, Note_off_c, 0, 47, 32
1, 174192, Control_c, 0, 64, 78
1, 174207, Control_c, 0, 64, 77
1, 174221, Control_c, 0, 64, 76
1, 174237, Control_c, 0, 64, 74
1, 174239, Note_on_c, 0, 64, 48
1, 174240, Note_on_c, 0, 55, 38
1, 174244, Note_on_c, 0, 52, 36
1, 174252, Control_c, 0, 64, 72
1, 174267, Control_c, 0, 64, 69
1, 174270, Note_off_c, 0, 63, 36
1, 174282, Control_c, 0, 64, 65
1, 174297, Control_c, 0, 64, 54
1, 174311, Control_c, 0, 64, 0
1, 174512, Note_on_c, 0, 66, 56
1, 174547, Note_off_c, 0, 64, 54
1, 174747, Note_on_c, 0, 67, 63
1, 174774, Note_off_c, 0, 52, 42
1, 174786, Note_off_c, 0, 66, 61
1, 174948, Note_off_c, 0, 55, 30
1, 174998, Note_on_c, 0, 64, 66
1, 175057, Note_off_c, 0, 67, 51
1, 175267, Note_on_c, 0, 62, 59
1, 175273, Note_on_c, 0, 55, 34
1, 175274, Note_on_c, 0, 52, 35
1, 175301, Note_on_c, 0, 45, 25
1, 175305, Note_off_c, 0, 64, 56
1, 175490, Note_on_c, 0, 61, 66
1, 175505, Control_c, 0, 64, 35
1, 175520, Control_c, 0, 64, 49
1, 175526, Note_off_c, 0, 62, 57
1, 175534, Control_c, 0, 64, 58
1, 175549, Control_c, 0, 64, 64
1, 175564, Control_c, 0, 64, 66
1, 175570, Note_off_c, 0, 55, 41
1, 175579, Control_c, 0, 64, 67
1, 175587, Note_off_c, 0, 45, 43
1, 175591, Note_off_c, 0, 52, 42
1, 175594, Control_c, 0, 64, 69
1, 175616, Control_c, 0, 64, 70
1, 175631, Control_c, 0, 64, 71
1, 175637, Note_off_c, 0, 61, 55
1, 175646, Control_c, 0, 64, 71
1, 175690, Control_c, 0, 64, 71
1, 175705, Control_c, 0, 64, 70
1, 175720, Control_c, 0, 64, 67
1, 175734, Control_c, 0, 64, 64
1, 175747, Note_on_c, 0, 52, 34
1, 175749, Control_c, 0, 64, 54
1, 175756, Note_on_c, 0, 61, 61
1, 175761, Note_on_c, 0, 55, 39
1, 175763, Note_on_c, 0, 45, 30
1, 175764, Control_c, 0, 64, 0
1, 175938, Note_off_c, 0, 52, 42
1, 175964, Note_off_c, 0, 61, 55
1, 175998, Note_on_c, 0, 57, 51
1, 176199, Note_off_c, 0, 45, 36
1, 176199, Note_off_c, 0, 55, 37
1, 176252, Note_off_c, 0, 57, 37
1, 176274, Note_on_c, 0, 69, 44
1, 176285, Note_on_c, 0, 54, 33
1, 176298, Note_on_c, 0, 50, 30
1, 176795, Control_c, 0, 64, 37
1, 176810, Control_c, 0, 64, 55
1, 176825, Control_c, 0, 64, 63
1, 176825, Control_c, 0, 67, 126
1, 176840, Control_c, 0, 64, 66
1, 176840, Control_c, 0, 67, 116
1, 176855, Control_c, 0, 64, 69
1, 176855, Control_c, 0, 67, 100
1, 176870, Control_c, 0, 64, 72
1, 176870, Control_c, 0, 67, 77
1, 176885, Control_c, 0, 64, 74
1, 176885, Control_c, 0, 67, 51
1, 176899, Control_c, 0, 64, 76
1, 176899, Control_c, 0, 67, 26
1, 176914, Control_c, 0, 64, 76
1, 176914, Control_c, 0, 67, 0
1, 176947, Note_off_c, 0, 69, 36
1, 177007, Note_off_c, 0, 50, 41
1, 177047, Control_c, 0, 64, 76
1, 177062, Control_c, 0, 64, 75
1, 177077, Note_off_c, 0, 54, 37
1, 177077, Control_c, 0, 64, 74
1, 177092, Control_c, 0, 64, 72
1, 177114, Control_c, 0, 64, 70
1, 177129, Control_c, 0, 64, 67
1, 177144, Control_c, 0, 64, 64
1, 177158, Control_c, 0, 64, 50
1, 177173, Control_c, 0, 64, 0
1, 177380, Control_c, 0, 64, 42
1, 177395, Control_c, 0, 64, 57
1, 177410, Control_c, 0, 64, 64
1, 177415, Note_on_c, 0, 74, 83
1, 177415, Note_on_c, 0, 59, 75
1, 177418, Note_on_c, 0, 47, 70
1, 177419, Note_on_c, 0, 62, 75
1, 177420, Note_on_c, 0, 68, 75
1, 177425, Control_c, 0, 64, 68
1, 177441, Control_c, 0, 64, 72
1, 177455, Control_c, 0, 64, 76
1, 177470, Note_off_c, 0, 59, 62
1, 177470, Control_c, 0, 64, 79
1, 177472, Note_off_c, 0, 62, 60
1, 177475, Note_off_c, 0, 47, 64
1, 177483, Note_off_c, 0, 68, 61
1, 177484, Note_off_c, 0, 74, 64
1, 177485, Control_c, 0, 64, 82
1, 177500, Control_c, 0, 64, 83
1, 177515, Control_c, 0, 64, 84
1, 177648, Control_c, 0, 64, 84
1, 177677, Control_c, 0, 64, 83
1, 177692, Control_c, 0, 64, 83
1, 177707, Control_c, 0, 64, 82
1, 177722, Control_c, 0, 64, 81
1, 177737, Control_c, 0, 64, 81
1, 177752, Control_c, 0, 64, 80
1, 177767, Control_c, 0, 64, 80
1, 177781, Control_c, 0, 64, 79
1, 177796, Control_c, 0, 64, 79
1, 177811, Control_c, 0, 64, 78
1, 177826, Control_c, 0, 64, 78
1, 177841, Control_c, 0, 64, 77
1, 177862, Control_c, 0, 64, 75
1, 177877, Control_c, 0, 64, 72
1, 177892, Control_c, 0, 64, 65
1, 177907, Control_c, 0, 64, 52
1, 177922, Control_c, 0, 64, 38
1, 177936, Control_c, 0, 64, 53
1, 177940, Note_on_c, 0, 59, 78
1, 177943, Note_on_c, 0, 47, 72
1, 177944, Note_on_c, 0, 74, 82
1, 177947, Note_on_c, 0, 62, 74
1, 177947, Note_on_c, 0, 68, 74
1, 177951, Control_c, 0, 64, 62
1, 177966, Control_c, 0, 64, 66
1, 177980, Control_c, 0, 64, 69
1, 177995, Control_c, 0, 64, 72
1, 177997, Note_off_c, 0, 62, 59
1, 177999, Note_off_c, 0, 59, 61
1, 178003, Note_off_c, 0, 47, 64
1, 178005, Note_off_c, 0, 74, 65
1, 178010, Note_off_c, 0, 68, 61
1, 178010, Control_c, 0, 64, 76
1, 178025, Control_c, 0, 64, 79
1, 178040, Control_c, 0, 64, 82
1, 178054, Control_c, 0, 64, 84
1, 178069, Control_c, 0, 64, 84
1, 178337, Control_c, 0, 64, 84
1, 178441, Control_c, 0, 64, 83
1, 178455, Control_c, 0, 64, 78
1, 178470, Control_c, 0, 64, 71
1, 178485, Control_c, 0, 64, 59
1, 178490, Note_on_c, 0, 74, 81
1, 178495, Note_on_c, 0, 59, 68
1, 178495, Note_on_c, 0, 68, 71
1, 178496, Note_on_c, 0, 62, 65
1, 178498, Note_on_c, 0, 47, 65
1, 178500, Control_c, 0, 64, 0
1, 178530, Control_c, 0, 64, 44
1, 178545, Control_c, 0, 64, 64
1, 178549, Note_off_c, 0, 59, 62
1, 178554, Note_off_c, 0, 47, 64
1, 178559, Control_c, 0, 64, 69
1, 178574, Control_c, 0, 64, 75
1, 178589, Control_c, 0, 64, 83
1, 178610, Control_c, 0, 64, 89
1, 178625, Control_c, 0, 64, 93
1, 178640, Control_c, 0, 64, 96
1, 178655, Control_c, 0, 64, 99
1, 178670, Control_c, 0, 64, 101
1, 178685, Control_c, 0, 64, 101
1, 178700, Control_c, 0, 64, 102
1, 178851, Note_off_c, 0, 62, 32
1, 178908, Control_c, 0, 64, 101
1, 179004, Note_off_c, 0, 74, 51
1, 179023, Note_off_c, 0, 68, 37
1, 179042, Control_c, 0, 64, 100
1, 179057, Control_c, 0, 64, 95
1, 179057, Control_c, 0, 67, 20
1, 179072, Control_c, 0, 64, 85
1, 179072, Control_c, 0, 67, 60
1, 179087, Control_c, 0, 64, 73
1, 179087, Control_c, 0, 67, 109
1, 179101, Control_c, 0, 64, 54
1, 179101, Control_c, 0, 67, 127
1, 179116, Control_c, 0, 64, 0
1, 179494, Control_c, 0, 64, 36
1, 179508, Control_c, 0, 64, 49
1, 179523, Control_c, 0, 64, 55
1, 179538, Control_c, 0, 64, 60
1, 179552, Control_c, 0, 64, 64
1, 179567, Control_c, 0, 64, 66
1, 179582, Control_c, 0, 64, 68
1, 179597, Control_c, 0, 64, 71
1, 179612, Control_c, 0, 64, 73
1, 179627, Control_c, 0, 64, 76
1, 179642, Control_c, 0, 64, 79
1, 179657, Control_c, 0, 64, 81
1, 179672, Control_c, 0, 64, 84
1, 179687, Control_c, 0, 64, 87
1, 179701, Control_c, 0, 64, 89
1, 179716, Control_c, 0, 64, 91
1, 179731, Control_c, 0, 64, 92
1, 179746, Control_c, 0, 64, 93
1, 179760, Control_c, 0, 64, 93
1, 179761, Note_on_c, 0, 81, 45
1, 179766, Note_on_c, 0, 57, 32
1, 179770, Note_on_c, 0, 64, 21
1, 179770, Note_on_c, 0, 73, 35
1, 179790, Control_c, 0, 64, 94
1, 179821, Control_c, 0, 64, 94
1, 179870, Note_off_c, 0, 81, 50
1, 179892, Note_off_c, 0, 57, 36
1, 179898, Note_off_c, 0, 64, 43
1, 179900, Note_off_c, 0, 73, 43
1, 180347, Note_on_c, 0, 81, 38
1, 180353, Note_on_c, 0, 73, 39
1, 180354, Note_on_c, 0, 64, 29
1, 180361, Note_on_c, 0, 57, 31
1, 180375, Control_c, 0, 64, 94
1, 180447, Note_off_c, 0, 57, 39
1, 180448, Note_off_c, 0, 81, 45
1, 180453, Note_off_c, 0, 73, 38
1, 180456, Note_off_c, 0, 64, 37
1, 180673, Control_c, 0, 64, 93
1, 180733, Control_c, 0, 64, 93
1, 180821, Control_c, 0, 64, 92
1, 180873, Control_c, 0, 64, 92
1, 180947, Control_c, 0, 64, 91
1, 180977, Control_c, 0, 64, 91
1, 180992, Control_c, 0, 64, 90
1, 181006, Control_c, 0, 64, 90
1, 181021, Control_c, 0, 64, 89
1, 181036, Control_c, 0, 64, 89
1, 181045, Note_on_c, 0, 81, 36
1, 181051, Control_c, 0, 64, 88
1, 181055, Note_on_c, 0, 64, 32
1, 181058, Note_on_c, 0, 57, 34
1, 181061, Note_on_c, 0, 73, 33
1, 181066, Control_c, 0, 64, 86
1, 181080, Control_c, 0, 64, 83
1, 181095, Control_c, 0, 64, 78
1, 181110, Control_c, 0, 64, 73
1, 181124, Control_c, 0, 64, 65
1, 181139, Control_c, 0, 64, 50
1, 181154, Control_c, 0, 64, 40
1, 181169, Control_c, 0, 64, 51
1, 181184, Control_c, 0, 64, 60
1, 181198, Control_c, 0, 64, 64
1, 181213, Control_c, 0, 64, 67
1, 181219, Note_off_c, 0, 81, 41
1, 181223, Note_off_c, 0, 64, 45
1, 181228, Control_c, 0, 64, 70
1, 181236, Note_off_c, 0, 57, 43
1, 181242, Note_off_c, 0, 73, 44
1, 181243, Control_c, 0, 64, 73
1, 181258, Control_c, 0, 64, 77
1, 181272, Control_c, 0, 64, 80
1, 181287, Control_c, 0, 64, 83
1, 181302, Control_c, 0, 64, 85
1, 181317, Control_c, 0, 64, 86
1, 181332, Control_c, 0, 64, 87
1, 181347, Control_c, 0, 64, 88
1, 181511, Control_c, 0, 64, 87
1, 181541, Control_c, 0, 64, 87
1, 181570, Control_c, 0, 64, 86
1, 181607, Control_c, 0, 64, 86
1, 181622, Control_c, 0, 64, 85
1, 181636, Control_c, 0, 64, 85
1, 181651, Control_c, 0, 64, 84
1, 181666, Control_c, 0, 64, 83
1, 181681, Control_c, 0, 64, 83
1, 181695, Control_c, 0, 64, 82
1, 181710, Control_c, 0, 64, 82
1, 181725, Control_c, 0, 64, 81
1, 181740, Control_c, 0, 64, 81
1, 181769, Control_c, 0, 64, 80
1, 181784, Control_c, 0, 64, 80
1, 181799, Control_c, 0, 64, 79
1, 181814, Control_c, 0, 64, 78
1, 181828, Control_c, 0, 64, 78
1, 181858, Control_c, 0, 64, 77
1, 181873, Control_c, 0, 64, 76
1, 181888, Control_c, 0, 64, 75
1, 181902, Control_c, 0, 64, 74
1, 181917, Control_c, 0, 64, 73
1, 181932, Control_c, 0, 64, 72
1, 181946, Control_c, 0, 64, 70
1, 181961, Control_c, 0, 64, 69
1, 181976, Control_c, 0, 64, 67
1, 181991, Control_c, 0, 64, 65
1, 182006, Control_c, 0, 64, 64
1, 182021, Control_c, 0, 64, 62
1, 182036, Control_c, 0, 64, 60
1, 182050, Control_c, 0, 64, 59
1, 182065, Control_c, 0, 64, 58
1, 182080, Control_c, 0, 64, 57
1, 182095, Control_c, 0, 64, 56
1, 182110, Control_c, 0, 64, 55
1, 182125, Control_c, 0, 64, 54
1, 182140, Control_c, 0, 64, 53
1, 182154, Control_c, 0, 64, 51
1, 182169, Control_c, 0, 64, 50
1, 182184, Control_c, 0, 64, 49
1, 182199, Control_c, 0, 64, 49
1, 182214, Control_c, 0, 64, 48
1, 182229, Control_c, 0, 64, 48
1, 182318, Control_c, 0, 64, 48
1, 182355, Control_c, 0, 64, 49
1, 182384, Control_c, 0, 67, 123
1, 182399, Control_c, 0, 64, 49
1, 182399, Control_c, 0, 67, 115
1, 182414, Control_c, 0, 64, 50
1, 182414, Control_c, 0, 67, 106
1, 182429, Control_c, 0, 67, 93
1, 182444, Control_c, 0, 64, 50
1, 182444, Control_c, 0, 67, 80
1, 182459, Control_c, 0, 64, 51
1, 182459, Control_c, 0, 67, 68
1, 182474, Control_c, 0, 67, 55
1, 182489, Control_c, 0, 67, 45
1, 182504, Control_c, 0, 67, 36
1, 182518, Control_c, 0, 67, 27
1, 182533, Control_c, 0, 67, 17
1, 182548, Control_c, 0, 67, 11
1, 182563, Control_c, 0, 64, 51
1, 182563, Control_c, 0, 67, 0
1, 182577, Control_c, 0, 64, 52
1, 182592, Control_c, 0, 64, 53
1, 182607, Control_c, 0, 64, 53
1, 182622, Control_c, 0, 64, 54
1, 182637, Control_c, 0, 64, 56
1, 182637, Control_c, 0, 67, 8
1, 182651, Control_c, 0, 64, 58
1, 182651, Control_c, 0, 67, 8
1, 182666, Control_c, 0, 64, 60
1, 182681, Control_c, 0, 64, 61
1, 182695, Control_c, 0, 64, 62
1, 182710, Control_c, 0, 64, 63
1, 182784, Control_c, 0, 64, 63
1, 182829, Control_c, 0, 64, 62
1, 182831, Note_on_c, 0, 78, 57
1, 182858, Control_c, 0, 64, 62
1, 182877, Note_off_c, 0, 78, 60
1, 182903, Control_c, 0, 64, 61
1, 182905, Note_on_c, 0, 79, 54
1, 182943, Note_off_c, 0, 79, 62
1, 182962, Note_on_c, 0, 78, 49
1, 182977, Control_c, 0, 64, 61
1, 182988, Note_off_c, 0, 78, 59
1, 183007, Control_c, 0, 67, 8
1, 183009, Note_on_c, 0, 79, 59
1, 183022, Control_c, 0, 67, 0
1, 183052, Note_off_c, 0, 79, 60
1, 183062, Note_on_c, 0, 78, 65
1, 183193, Control_c, 0, 64, 60
1, 183296, Control_c, 0, 64, 60
1, 183329, Note_off_c, 0, 78, 49
1, 183331, Note_on_c, 0, 79, 51
1, 183404, Note_off_c, 0, 79, 61
1, 183419, Note_on_c, 0, 81, 60
1, 183439, Note_on_c, 0, 62, 31
1, 183466, Note_off_c, 0, 81, 57
1, 183474, Control_c, 0, 64, 60
1, 183518, Control_c, 0, 64, 61
1, 183548, Control_c, 0, 64, 61
1, 183563, Control_c, 0, 64, 62
1, 183592, Control_c, 0, 64, 62
1, 183607, Control_c, 0, 64, 63
1, 183622, Control_c, 0, 64, 63
1, 183637, Control_c, 0, 64, 64
1, 183652, Control_c, 0, 64, 64
1, 183666, Control_c, 0, 64, 65
1, 183678, Note_on_c, 0, 66, 35
1, 183681, Control_c, 0, 64, 66
1, 183696, Control_c, 0, 64, 67
1, 183711, Control_c, 0, 64, 68
1, 183726, Control_c, 0, 64, 69
1, 183741, Control_c, 0, 64, 70
1, 183755, Control_c, 0, 64, 72
1, 183770, Control_c, 0, 64, 74
1, 183785, Control_c, 0, 64, 77
1, 183800, Control_c, 0, 64, 80
1, 183815, Control_c, 0, 64, 82
1, 183830, Control_c, 0, 64, 85
1, 183853, Control_c, 0, 64, 87
1, 183868, Control_c, 0, 64, 89
1, 183878, Note_off_c, 0, 66, 36
1, 183883, Control_c, 0, 64, 91
1, 183897, Control_c, 0, 64, 94
1, 183912, Control_c, 0, 64, 96
1, 183922, Note_on_c, 0, 81, 65
1, 183927, Note_on_c, 0, 69, 41
1, 183927, Control_c, 0, 64, 98
1, 183942, Control_c, 0, 64, 101
1, 183956, Control_c, 0, 64, 103
1, 183971, Control_c, 0, 64, 104
1, 183986, Control_c, 0, 64, 105
1, 184001, Control_c, 0, 64, 106
1, 184018, Note_off_c, 0, 81, 50
1, 184030, Control_c, 0, 64, 106
1, 184155, Note_off_c, 0, 69, 39
1, 184164, Note_on_c, 0, 66, 40
1, 184238, Note_off_c, 0, 62, 34
1, 184371, Control_c, 0, 64, 106
1, 184404, Note_on_c, 0, 62, 37
1, 184454, Note_off_c, 0, 66, 40
1, 184548, Control_c, 0, 64, 105
1, 184617, Control_c, 0, 64, 105
1, 184635, Note_on_c, 0, 81, 75
1, 184643, Note_on_c, 0, 66, 49
1, 184691, Control_c, 0, 64, 104
1, 184754, Note_off_c, 0, 81, 61
1, 184794, Control_c, 0, 64, 104
1, 184847, Note_on_c, 0, 81, 77
1, 184853, Control_c, 0, 64, 103
1, 184861, Note_off_c, 0, 66, 31
1, 184868, Note_on_c, 0, 69, 47
1, 184927, Control_c, 0, 64, 103
1, 184933, Note_off_c, 0, 81, 60
1, 184947, Note_on_c, 0, 83, 67
1, 184987, Control_c, 0, 64, 102
1, 184990, Note_off_c, 0, 83, 60
1, 185006, Note_on_c, 0, 81, 59
1, 185016, Control_c, 0, 64, 102
1, 185040, Note_off_c, 0, 81, 62
1, 185048, Note_on_c, 0, 83, 67
1, 185076, Note_on_c, 0, 66, 44
1, 185085, Note_off_c, 0, 69, 33
1, 185090, Control_c, 0, 64, 101
1, 185094, Note_off_c, 0, 83, 63
1, 185103, Note_on_c, 0, 81, 70
1, 185135, Control_c, 0, 64, 101
1, 185137, Note_off_c, 0, 62, 36
1, 185179, Control_c, 0, 64, 100
1, 185194, Control_c, 0, 64, 100
1, 185224, Control_c, 0, 64, 99
1, 185238, Control_c, 0, 64, 99
1, 185249, Note_off_c, 0, 81, 63
1, 185253, Control_c, 0, 64, 98
1, 185258, Note_on_c, 0, 83, 68
1, 185268, Control_c, 0, 64, 97
1, 185283, Control_c, 0, 64, 96
1, 185297, Control_c, 0, 64, 94
1, 185306, Note_off_c, 0, 66, 33
1, 185312, Control_c, 0, 64, 92
1, 185327, Control_c, 0, 64, 90
1, 185330, Note_on_c, 0, 81, 82
1, 185331, Note_on_c, 0, 62, 41
1, 185350, Control_c, 0, 64, 86
1, 185365, Control_c, 0, 64, 83
1, 185366, Note_off_c, 0, 83, 57
1, 185379, Control_c, 0, 64, 78
1, 185394, Control_c, 0, 64, 73
1, 185409, Control_c, 0, 64, 64
1, 185425, Control_c, 0, 64, 27
1, 185440, Control_c, 0, 64, 0
1, 185571, Note_on_c, 0, 79, 72
1, 185598, Note_on_c, 0, 64, 36
1, 185622, Note_off_c, 0, 81, 41
1, 185714, Note_off_c, 0, 79, 56
1, 185750, Control_c, 0, 64, 23
1, 185765, Control_c, 0, 64, 48
1, 185780, Control_c, 0, 64, 59
1, 185794, Control_c, 0, 64, 63
1, 185809, Control_c, 0, 64, 65
1, 185823, Note_on_c, 0, 79, 64
1, 185824, Note_off_c, 0, 64, 32
1, 185824, Control_c, 0, 64, 68
1, 185839, Control_c, 0, 64, 70
1, 185841, Note_on_c, 0, 71, 37
1, 185854, Control_c, 0, 64, 73
1, 185869, Control_c, 0, 64, 77
1, 185884, Control_c, 0, 64, 81
1, 185899, Control_c, 0, 64, 84
1, 185913, Control_c, 0, 64, 86
1, 185928, Control_c, 0, 64, 89
1, 185943, Control_c, 0, 64, 91
1, 185958, Control_c, 0, 64, 94
1, 185973, Control_c, 0, 64, 95
1, 185987, Control_c, 0, 64, 96
1, 186068, Note_off_c, 0, 71, 38
1, 186073, Note_on_c, 0, 64, 39
1, 186092, Note_off_c, 0, 79, 36
1, 186119, Note_off_c, 0, 62, 26
1, 186319, Note_on_c, 0, 62, 39
1, 186366, Control_c, 0, 64, 95
1, 186392, Note_off_c, 0, 64, 35
1, 186455, Control_c, 0, 64, 95
1, 186514, Control_c, 0, 64, 94
1, 186535, Note_on_c, 0, 79, 72
1, 186543, Control_c, 0, 64, 94
1, 186558, Control_c, 0, 64, 93
1, 186564, Note_on_c, 0, 64, 38
1, 186573, Control_c, 0, 64, 91
1, 186588, Control_c, 0, 64, 87
1, 186603, Control_c, 0, 64, 82
1, 186617, Control_c, 0, 64, 76
1, 186632, Control_c, 0, 64, 71
1, 186642, Note_off_c, 0, 79, 59
1, 186647, Control_c, 0, 64, 67
1, 186662, Control_c, 0, 64, 65
1, 186677, Control_c, 0, 64, 63
1, 186692, Control_c, 0, 64, 62
1, 186707, Control_c, 0, 64, 62
1, 186721, Control_c, 0, 64, 61
1, 186741, Note_off_c, 0, 64, 36
1, 186751, Control_c, 0, 64, 61
1, 186757, Note_on_c, 0, 78, 80
1, 186766, Control_c, 0, 64, 60
1, 186773, Note_on_c, 0, 71, 47
1, 186781, Control_c, 0, 64, 60
1, 186810, Control_c, 0, 64, 61
1, 186825, Control_c, 0, 64, 63
1, 186847, Control_c, 0, 64, 64
1, 186862, Control_c, 0, 64, 65
1, 186864, Note_off_c, 0, 78, 62
1, 186876, Control_c, 0, 64, 67
1, 186891, Control_c, 0, 64, 69
1, 186906, Control_c, 0, 64, 70
1, 186921, Control_c, 0, 64, 73
1, 186936, Control_c, 0, 64, 75
1, 186951, Control_c, 0, 64, 78
1, 186966, Control_c, 0, 64, 81
1, 186980, Note_on_c, 0, 76, 83
1, 186981, Control_c, 0, 64, 84
1, 186988, Note_on_c, 0, 64, 43
1, 186996, Control_c, 0, 64, 86
1, 187011, Control_c, 0, 64, 87
1, 187023, Note_off_c, 0, 62, 37
1, 187026, Control_c, 0, 64, 88
1, 187039, Note_off_c, 0, 64, 59
1, 187055, Control_c, 0, 64, 88
1, 187066, Note_off_c, 0, 76, 60
1, 187174, Control_c, 0, 64, 88
1, 187204, Control_c, 0, 64, 87
1, 187205, Note_on_c, 0, 76, 79
1, 187219, Control_c, 0, 64, 85
1, 187234, Control_c, 0, 64, 82
1, 187246, Note_on_c, 0, 61, 42
1, 187248, Control_c, 0, 64, 77
1, 187252, Note_off_c, 0, 71, 41
1, 187263, Control_c, 0, 64, 71
1, 187278, Control_c, 0, 64, 60
1, 187292, Control_c, 0, 64, 0
1, 187470, Note_on_c, 0, 81, 72
1, 187500, Note_on_c, 0, 64, 37
1, 187549, Note_off_c, 0, 76, 54
1, 187627, Note_off_c, 0, 81, 60
1, 187702, Note_on_c, 0, 81, 73
1, 187711, Note_off_c, 0, 64, 41
1, 187724, Note_on_c, 0, 69, 38
1, 187729, Control_c, 0, 64, 39
1, 187744, Control_c, 0, 64, 53
1, 187759, Control_c, 0, 64, 60
1, 187774, Control_c, 0, 64, 64
1, 187789, Control_c, 0, 64, 67
1, 187804, Control_c, 0, 64, 69
1, 187819, Control_c, 0, 64, 71
1, 187834, Control_c, 0, 64, 74
1, 187849, Control_c, 0, 64, 77
1, 187863, Control_c, 0, 64, 79
1, 187878, Control_c, 0, 64, 82
1, 187893, Control_c, 0, 64, 84
1, 187908, Control_c, 0, 64, 85
1, 187923, Control_c, 0, 64, 86
1, 187938, Control_c, 0, 64, 87
1, 187939, Note_on_c, 0, 64, 40
1, 187985, Note_off_c, 0, 61, 39
1, 188017, Note_off_c, 0, 64, 52
1, 188182, Note_on_c, 0, 59, 48
1, 188189, Control_c, 0, 64, 87
1, 188204, Control_c, 0, 64, 85
1, 188219, Control_c, 0, 64, 83
1, 188234, Control_c, 0, 64, 78
1, 188249, Control_c, 0, 64, 73
1, 188259, Note_off_c, 0, 69, 44
1, 188263, Control_c, 0, 64, 68
1, 188278, Control_c, 0, 64, 64
1, 188293, Control_c, 0, 64, 64
1, 188307, Control_c, 0, 64, 65
1, 188322, Control_c, 0, 64, 67
1, 188345, Control_c, 0, 64, 68
1, 188360, Control_c, 0, 64, 69
1, 188375, Control_c, 0, 64, 71
1, 188389, Control_c, 0, 64, 72
1, 188404, Control_c, 0, 64, 73
1, 188419, Control_c, 0, 64, 74
1, 188434, Control_c, 0, 64, 76
1, 188446, Note_on_c, 0, 83, 56
1, 188449, Control_c, 0, 64, 77
1, 188463, Control_c, 0, 64, 78
1, 188466, Note_on_c, 0, 62, 36
1, 188478, Control_c, 0, 64, 79
1, 188480, Note_off_c, 0, 81, 55
1, 188570, Note_off_c, 0, 83, 59
1, 188573, Note_on_c, 0, 81, 69
1, 188604, Note_off_c, 0, 81, 58
1, 188671, Note_off_c, 0, 62, 40
1, 188683, Note_on_c, 0, 81, 69
1, 188703, Note_on_c, 0, 67, 39
1, 188774, Note_on_c, 0, 79, 76
1, 188795, Note_off_c, 0, 81, 57
1, 188865, Control_c, 0, 64, 78
1, 188877, Note_on_c, 0, 78, 80
1, 188886, Note_off_c, 0, 67, 28
1, 188894, Note_off_c, 0, 79, 60
1, 188895, Note_on_c, 0, 62, 38
1, 188906, Note_off_c, 0, 59, 28
1, 188945, Note_off_c, 0, 62, 56
1, 188974, Note_on_c, 0, 79, 79
1, 188993, Note_off_c, 0, 78, 63
1, 188998, Control_c, 0, 64, 78
1, 189028, Note_off_c, 0, 79, 64
1, 189072, Control_c, 0, 64, 77
1, 189094, Control_c, 0, 64, 77
1, 189100, Note_on_c, 0, 79, 70
1, 189109, Control_c, 0, 64, 76
1, 189123, Note_on_c, 0, 58, 42
1, 189124, Control_c, 0, 64, 76
1, 189138, Control_c, 0, 64, 74
1, 189153, Control_c, 0, 64, 71
1, 189168, Control_c, 0, 64, 66
1, 189183, Control_c, 0, 64, 55
1, 189198, Control_c, 0, 64, 0
1, 189376, Note_on_c, 0, 78, 62
1, 189392, Note_on_c, 0, 61, 39
1, 189404, Note_off_c, 0, 79, 58
1, 189495, Note_off_c, 0, 78, 59
1, 189571, Note_off_c, 0, 58, 36
1, 189612, Note_on_c, 0, 78, 54
1, 189632, Note_on_c, 0, 64, 33
1, 189668, Note_off_c, 0, 61, 38
1, 189862, Note_on_c, 0, 58, 40
1, 189893, Note_off_c, 0, 64, 45
1, 189961, Control_c, 0, 64, 34
1, 189976, Control_c, 0, 64, 45
1, 189991, Control_c, 0, 64, 51
1, 190006, Control_c, 0, 64, 54
1, 190021, Control_c, 0, 64, 56
1, 190035, Control_c, 0, 64, 58
1, 190050, Control_c, 0, 64, 60
1, 190065, Control_c, 0, 64, 62
1, 190080, Control_c, 0, 64, 63
1, 190094, Control_c, 0, 64, 64
1, 190109, Control_c, 0, 64, 64
1, 190124, Control_c, 0, 64, 65
1, 190132, Note_on_c, 0, 59, 42
1, 190139, Control_c, 0, 64, 66
1, 190154, Control_c, 0, 64, 68
1, 190168, Control_c, 0, 64, 70
1, 190183, Control_c, 0, 64, 72
1, 190198, Control_c, 0, 64, 74
1, 190200, Note_off_c, 0, 58, 37
1, 190214, Control_c, 0, 64, 76
1, 190229, Control_c, 0, 64, 78
1, 190244, Control_c, 0, 64, 79
1, 190258, Control_c, 0, 64, 80
1, 190332, Note_off_c, 0, 78, 55
1, 190362, Control_c, 0, 64, 80
1, 190377, Control_c, 0, 64, 79
1, 190388, Note_on_c, 0, 66, 40
1, 190391, Control_c, 0, 64, 78
1, 190406, Control_c, 0, 64, 76
1, 190421, Control_c, 0, 64, 74
1, 190436, Control_c, 0, 64, 71
1, 190450, Note_on_c, 0, 78, 55
1, 190451, Control_c, 0, 64, 67
1, 190465, Control_c, 0, 64, 63
1, 190480, Control_c, 0, 64, 52
1, 190495, Control_c, 0, 64, 32
1, 190510, Control_c, 0, 64, 0
1, 190522, Note_off_c, 0, 78, 59
1, 190532, Note_on_c, 0, 79, 57
1, 190601, Note_off_c, 0, 79, 60
1, 190626, Note_on_c, 0, 81, 53
1, 190706, Note_off_c, 0, 81, 56
1, 190716, Note_off_c, 0, 66, 37
1, 190722, Note_on_c, 0, 79, 52
1, 190738, Note_on_c, 0, 57, 32
1, 190770, Control_c, 0, 67, 10
1, 190784, Control_c, 0, 67, 16
1, 190799, Control_c, 0, 67, 28
1, 190814, Control_c, 0, 67, 46
1, 190829, Control_c, 0, 67, 60
1, 190837, Note_off_c, 0, 59, 31
1, 190844, Control_c, 0, 67, 74
1, 190858, Control_c, 0, 67, 85
1, 190873, Control_c, 0, 67, 93
1, 190888, Control_c, 0, 67, 100
1, 190903, Control_c, 0, 67, 105
1, 190917, Control_c, 0, 67, 110
1, 190932, Control_c, 0, 67, 113
1, 190947, Control_c, 0, 67, 114
1, 190962, Control_c, 0, 67, 115
1, 190991, Note_off_c, 0, 79, 57
1, 190999, Note_on_c, 0, 78, 56
1, 191022, Control_c, 0, 64, 24
1, 191023, Note_on_c, 0, 62, 27
1, 191037, Control_c, 0, 64, 38
1, 191037, Control_c, 0, 67, 114
1, 191052, Control_c, 0, 64, 49
1, 191067, Control_c, 0, 64, 57
1, 191081, Control_c, 0, 64, 62
1, 191081, Control_c, 0, 67, 114
1, 191090, Note_off_c, 0, 57, 39
1, 191096, Control_c, 0, 64, 64
1, 191111, Control_c, 0, 64, 66
1, 191111, Control_c, 0, 67, 113
1, 191125, Control_c, 0, 64, 68
1, 191125, Control_c, 0, 67, 112
1, 191140, Control_c, 0, 64, 71
1, 191140, Control_c, 0, 67, 111
1, 191155, Control_c, 0, 64, 74
1, 191155, Control_c, 0, 67, 111
1, 191170, Control_c, 0, 64, 76
1, 191185, Control_c, 0, 64, 78
1, 191185, Control_c, 0, 67, 110
1, 191199, Control_c, 0, 64, 79
1, 191199, Control_c, 0, 67, 109
1, 191211, Note_off_c, 0, 78, 61
1, 191214, Control_c, 0, 64, 80
1, 191214, Control_c, 0, 67, 108
1, 191229, Control_c, 0, 67, 106
1, 191244, Control_c, 0, 67, 104
1, 191259, Control_c, 0, 67, 102
1, 191274, Control_c, 0, 67, 98
1, 191288, Control_c, 0, 67, 89
1, 191303, Control_c, 0, 67, 71
1, 191318, Control_c, 0, 67, 50
1, 191334, Note_on_c, 0, 78, 52
1, 191340, Control_c, 0, 67, 29
1, 191351, Note_on_c, 0, 56, 38
1, 191355, Control_c, 0, 67, 12
1, 191370, Control_c, 0, 67, 0
1, 191389, Note_off_c, 0, 62, 29
1, 191430, Control_c, 0, 64, 79
1, 191445, Control_c, 0, 64, 79
1, 191459, Control_c, 0, 64, 78
1, 191474, Control_c, 0, 64, 77
1, 191489, Control_c, 0, 64, 75
1, 191504, Control_c, 0, 64, 72
1, 191519, Control_c, 0, 64, 68
1, 191533, Control_c, 0, 64, 64
1, 191548, Control_c, 0, 64, 44
1, 191563, Control_c, 0, 64, 0
1, 191688, Note_on_c, 0, 76, 52
1, 191703, Note_on_c, 0, 59, 29
1, 191724, Note_off_c, 0, 78, 58
1, 191726, Control_c, 0, 64, 11
1, 191741, Control_c, 0, 64, 30
1, 191756, Control_c, 0, 64, 40
1, 191771, Control_c, 0, 64, 49
1, 191786, Control_c, 0, 64, 54
1, 191801, Control_c, 0, 64, 59
1, 191816, Note_off_c, 0, 76, 55
1, 191816, Control_c, 0, 64, 62
1, 191831, Control_c, 0, 64, 64
1, 191846, Control_c, 0, 64, 66
1, 191861, Control_c, 0, 64, 68
1, 191875, Control_c, 0, 64, 70
1, 191890, Control_c, 0, 64, 73
1, 191905, Control_c, 0, 64, 76
1, 191917, Note_off_c, 0, 59, 39
1, 191918, Note_on_c, 0, 76, 70
1, 191920, Control_c, 0, 64, 79
1, 191935, Control_c, 0, 64, 81
1, 191938, Note_on_c, 0, 62, 33
1, 191949, Control_c, 0, 64, 84
1, 191964, Control_c, 0, 64, 87
1, 191979, Control_c, 0, 64, 89
1, 191994, Control_c, 0, 64, 91
1, 192009, Control_c, 0, 64, 92
1, 192023, Control_c, 0, 64, 93
1, 192027, Note_off_c, 0, 76, 54
1, 192038, Control_c, 0, 64, 94
1, 192053, Control_c, 0, 64, 95
1, 192090, Control_c, 0, 64, 95
1, 192152, Note_on_c, 0, 76, 76
1, 192158, Note_off_c, 0, 62, 36
1, 192164, Control_c, 0, 64, 96
1, 192171, Note_on_c, 0, 59, 45
1, 192197, Note_off_c, 0, 56, 33
1, 192258, Note_off_c, 0, 76, 55
1, 192379, Note_on_c, 0, 76, 75
1, 192404, Note_on_c, 0, 56, 50
1, 192454, Note_off_c, 0, 59, 39
1, 192606, Note_on_c, 0, 59, 53
1, 192708, Note_off_c, 0, 76, 51
1, 192842, Note_on_c, 0, 76, 76
1, 192852, Note_on_c, 0, 62, 54
1, 192871, Note_off_c, 0, 59, 37
1, 193016, Control_c, 0, 64, 95
1, 193066, Note_on_c, 0, 59, 61
1, 193119, Note_off_c, 0, 56, 38
1, 193151, Note_off_c, 0, 62, 35
1, 193207, Note_off_c, 0, 76, 54
1, 193208, Control_c, 0, 64, 95
1, 193259, Note_on_c, 0, 55, 58
1, 193268, Control_c, 0, 64, 94
1, 193297, Control_c, 0, 64, 94
1, 193327, Control_c, 0, 64, 93
1, 193333, Note_on_c, 0, 80, 73
1, 193357, Control_c, 0, 64, 93
1, 193372, Control_c, 0, 64, 92
1, 193373, Note_off_c, 0, 59, 34
1, 193386, Control_c, 0, 64, 91
1, 193402, Control_c, 0, 64, 90
1, 193410, Note_on_c, 0, 81, 77
1, 193417, Control_c, 0, 64, 89
1, 193431, Control_c, 0, 64, 87
1, 193434, Note_off_c, 0, 80, 57
1, 193446, Control_c, 0, 64, 86
1, 193461, Control_c, 0, 64, 83
1, 193476, Control_c, 0, 64, 81
1, 193491, Note_off_c, 0, 81, 64
1, 193491, Control_c, 0, 64, 77
1, 193491, Note_on_c, 0, 83, 77
1, 193506, Control_c, 0, 64, 74
1, 193521, Control_c, 0, 64, 69
1, 193535, Control_c, 0, 64, 64
1, 193550, Control_c, 0, 64, 47
1, 193563, Note_on_c, 0, 81, 75
1, 193565, Control_c, 0, 64, 0
1, 193609, Note_off_c, 0, 83, 64
1, 193690, Control_c, 0, 64, 11
1, 193694, Note_on_c, 0, 61, 66
1, 193705, Control_c, 0, 64, 26
1, 193720, Control_c, 0, 64, 35
1, 193734, Control_c, 0, 64, 42
1, 193749, Control_c, 0, 64, 48
1, 193764, Control_c, 0, 64, 53
1, 193779, Control_c, 0, 64, 56
1, 193794, Control_c, 0, 64, 59
1, 193808, Control_c, 0, 64, 61
1, 193823, Control_c, 0, 64, 62
1, 193838, Control_c, 0, 64, 64
1, 193852, Control_c, 0, 64, 65
1, 193867, Control_c, 0, 64, 66
1, 193882, Control_c, 0, 64, 67
1, 193897, Control_c, 0, 64, 68
1, 193912, Control_c, 0, 64, 70
1, 193923, Note_on_c, 0, 64, 62
1, 193926, Control_c, 0, 64, 73
1, 193941, Control_c, 0, 64, 75
1, 193956, Control_c, 0, 64, 78
1, 193971, Control_c, 0, 64, 79
1, 193986, Control_c, 0, 64, 81
1, 193992, Note_off_c, 0, 61, 55
1, 194001, Control_c, 0, 64, 83
1, 194015, Note_off_c, 0, 55, 18
1, 194016, Control_c, 0, 64, 84
1, 194031, Control_c, 0, 64, 86
1, 194045, Control_c, 0, 64, 87
1, 194060, Control_c, 0, 64, 88
1, 194151, Note_on_c, 0, 55, 62
1, 194251, Note_off_c, 0, 55, 62
1, 194386, Note_on_c, 0, 54, 70
1, 194410, Control_c, 0, 64, 87
1, 194439, Control_c, 0, 64, 86
1, 194443, Note_off_c, 0, 64, 59
1, 194454, Control_c, 0, 64, 85
1, 194469, Control_c, 0, 64, 84
1, 194484, Control_c, 0, 64, 83
1, 194499, Control_c, 0, 64, 81
1, 194514, Control_c, 0, 64, 79
1, 194528, Control_c, 0, 64, 76
1, 194543, Control_c, 0, 64, 73
1, 194558, Control_c, 0, 64, 69
1, 194573, Control_c, 0, 64, 64
1, 194588, Control_c, 0, 64, 50
1, 194603, Control_c, 0, 64, 0
1, 194667, Note_on_c, 0, 83, 73
1, 194669, Note_on_c, 0, 62, 55
1, 194701, Note_off_c, 0, 81, 62
1, 194771, Note_on_c, 0, 81, 76
1, 194818, Note_off_c, 0, 83, 57
1, 194874, Note_on_c, 0, 79, 78
1, 194877, Note_on_c, 0, 59, 56
1, 194923, Note_off_c, 0, 81, 59
1, 194949, Note_off_c, 0, 62, 38
1, 194988, Control_c, 0, 64, 42
1, 195003, Control_c, 0, 64, 56
1, 195018, Control_c, 0, 64, 62
1, 195033, Control_c, 0, 64, 64
1, 195047, Control_c, 0, 64, 65
1, 195061, Note_off_c, 0, 54, 27
1, 195062, Control_c, 0, 64, 67
1, 195085, Control_c, 0, 64, 68
1, 195100, Control_c, 0, 64, 69
1, 195113, Note_on_c, 0, 78, 82
1, 195114, Control_c, 0, 64, 72
1, 195116, Note_on_c, 0, 57, 55
1, 195129, Control_c, 0, 64, 75
1, 195144, Control_c, 0, 64, 77
1, 195158, Control_c, 0, 64, 79
1, 195159, Note_off_c, 0, 79, 55
1, 195173, Control_c, 0, 64, 80
1, 195175, Note_off_c, 0, 59, 37
1, 195187, Control_c, 0, 64, 81
1, 195220, Note_off_c, 0, 57, 56
1, 195252, Note_off_c, 0, 78, 63
1, 195347, Note_on_c, 0, 78, 77
1, 195351, Control_c, 0, 64, 81
1, 195354, Note_on_c, 0, 59, 54
1, 195358, Note_on_c, 0, 55, 55
1, 195366, Control_c, 0, 64, 79
1, 195380, Control_c, 0, 64, 77
1, 195395, Control_c, 0, 64, 74
1, 195410, Control_c, 0, 64, 69
1, 195425, Control_c, 0, 64, 64
1, 195440, Control_c, 0, 64, 38
1, 195454, Control_c, 0, 64, 0
1, 195575, Note_on_c, 0, 76, 79
1, 195595, Note_off_c, 0, 78, 60
1, 195831, Note_on_c, 0, 75, 74
1, 195865, Note_off_c, 0, 76, 59
1, 196043, Note_on_c, 0, 76, 79
1, 196074, Note_off_c, 0, 75, 58
1, 196218, Control_c, 0, 64, 33
1, 196233, Control_c, 0, 64, 44
1, 196247, Control_c, 0, 64, 52
1, 196262, Control_c, 0, 64, 56
1, 196277, Control_c, 0, 64, 60
1, 196287, Note_on_c, 0, 78, 74
1, 196292, Control_c, 0, 64, 62
1, 196307, Control_c, 0, 64, 64
1, 196321, Control_c, 0, 64, 65
1, 196325, Note_off_c, 0, 76, 57
1, 196336, Control_c, 0, 64, 65
1, 196351, Control_c, 0, 64, 66
1, 196366, Control_c, 0, 64, 67
1, 196381, Control_c, 0, 64, 69
1, 196395, Control_c, 0, 64, 70
1, 196410, Control_c, 0, 64, 72
1, 196425, Control_c, 0, 64, 73
1, 196440, Control_c, 0, 64, 73
1, 196454, Note_off_c, 0, 55, 42
1, 196523, Note_on_c, 0, 79, 70
1, 196544, Control_c, 0, 64, 73
1, 196553, Note_off_c, 0, 78, 62
1, 196581, Control_c, 0, 64, 72
1, 196626, Control_c, 0, 64, 71
1, 196641, Control_c, 0, 64, 71
1, 196656, Control_c, 0, 64, 70
1, 196670, Control_c, 0, 64, 69
1, 196685, Control_c, 0, 64, 67
1, 196700, Control_c, 0, 64, 66
1, 196715, Control_c, 0, 64, 64
1, 196730, Control_c, 0, 64, 57
1, 196736, Note_off_c, 0, 59, 29
1, 196744, Control_c, 0, 64, 38
1, 196759, Control_c, 0, 64, 0
1, 196770, Note_on_c, 0, 71, 58
1, 196782, Note_on_c, 0, 64, 36
1, 196783, Note_on_c, 0, 56, 37
1, 196795, Note_off_c, 0, 79, 60
1, 196848, Control_c, 0, 64, 39
1, 196863, Control_c, 0, 64, 52
1, 196877, Control_c, 0, 64, 59
1, 196892, Control_c, 0, 64, 62
1, 196907, Control_c, 0, 64, 64
1, 196922, Control_c, 0, 64, 65
1, 196937, Control_c, 0, 64, 66
1, 196952, Control_c, 0, 64, 67
1, 196967, Control_c, 0, 64, 68
1, 196982, Control_c, 0, 64, 70
1, 196997, Control_c, 0, 64, 72
1, 197011, Note_on_c, 0, 76, 61
1, 197012, Control_c, 0, 64, 73
1, 197026, Control_c, 0, 64, 73
1, 197027, Note_off_c, 0, 64, 43
1, 197042, Note_off_c, 0, 71, 57
1, 197204, Control_c, 0, 64, 73
1, 197227, Note_off_c, 0, 56, 37
1, 197233, Control_c, 0, 64, 72
1, 197238, Note_on_c, 0, 74, 58
1, 197248, Control_c, 0, 64, 72
1, 197259, Note_on_c, 0, 64, 37
1, 197263, Control_c, 0, 64, 71
1, 197265, Note_on_c, 0, 57, 37
1, 197277, Control_c, 0, 64, 70
1, 197292, Control_c, 0, 64, 68
1, 197307, Control_c, 0, 64, 66
1, 197310, Note_off_c, 0, 76, 47
1, 197330, Control_c, 0, 64, 63
1, 197345, Control_c, 0, 64, 57
1, 197359, Control_c, 0, 64, 42
1, 197374, Control_c, 0, 64, 0
1, 197486, Note_on_c, 0, 73, 69
1, 197543, Note_off_c, 0, 74, 58
1, 197713, Note_on_c, 0, 71, 68
1, 197768, Note_off_c, 0, 73, 59
1, 197951, Note_on_c, 0, 69, 62
1, 197953, Note_off_c, 0, 71, 60
1, 198171, Note_off_c, 0, 64, 45
1, 198204, Note_off_c, 0, 57, 37
1, 198204, Note_on_c, 0, 71, 58
1, 198219, Note_off_c, 0, 69, 43
1, 198431, Note_on_c, 0, 73, 59
1, 198463, Note_off_c, 0, 71, 59
1, 198628, Control_c, 0, 67, 8
1, 198642, Control_c, 0, 67, 13
1, 198657, Control_c, 0, 67, 18
1, 198667, Note_on_c, 0, 74, 55
1, 198672, Control_c, 0, 67, 24
1, 198687, Note_off_c, 0, 73, 62
1, 198687, Control_c, 0, 67, 30
1, 198702, Control_c, 0, 67, 38
1, 198717, Control_c, 0, 67, 46
1, 198732, Control_c, 0, 67, 57
1, 198746, Control_c, 0, 67, 68
1, 198761, Control_c, 0, 67, 80
1, 198776, Control_c, 0, 67, 92
1, 198791, Control_c, 0, 67, 104
1, 198806, Control_c, 0, 67, 118
1, 198828, Control_c, 0, 67, 127
1, 198916, Note_on_c, 0, 76, 60
1, 198940, Note_off_c, 0, 74, 52
1, 199170, Note_off_c, 0, 76, 54
1, 199173, Note_on_c, 0, 78, 52
1, 199178, Note_on_c, 0, 74, 43
1, 199400, Note_on_c, 0, 69, 43
1, 199414, Note_off_c, 0, 74, 38
1, 199608, Note_off_c, 0, 78, 60
1, 199613, Note_on_c, 0, 81, 56
1, 199626, Note_off_c, 0, 69, 51
1, 199653, Note_on_c, 0, 74, 40
1, 199656, Note_on_c, 0, 79, 67
1, 199681, Note_off_c, 0, 81, 50
1, 199891, Note_on_c, 0, 69, 43
1, 199898, Note_off_c, 0, 74, 38
1, 199992, Note_on_c, 0, 78, 61
1, 200024, Note_off_c, 0, 79, 57
1, 200087, Note_on_c, 0, 76, 71
1, 200099, Note_off_c, 0, 69, 50
1, 200105, Note_off_c, 0, 78, 61
1, 200112, Note_on_c, 0, 73, 45
1, 200352, Note_on_c, 0, 69, 46
1, 200383, Note_off_c, 0, 73, 38
1, 200578, Note_on_c, 0, 78, 74
1, 200595, Note_off_c, 0, 69, 47
1, 200596, Note_on_c, 0, 74, 47
1, 200635, Note_off_c, 0, 76, 55
1, 200798, Note_off_c, 0, 74, 52
1, 200821, Note_on_c, 0, 69, 43
1, 201054, Note_on_c, 0, 79, 64
1, 201056, Note_off_c, 0, 69, 37
1, 201070, Note_on_c, 0, 76, 42
1, 201132, Note_off_c, 0, 78, 50
1, 201310, Note_on_c, 0, 69, 39
1, 201323, Note_off_c, 0, 76, 43
1, 201533, Note_off_c, 0, 69, 50
1, 201547, Note_on_c, 0, 81, 53
1, 201559, Note_on_c, 0, 73, 43
1, 201563, Note_off_c, 0, 79, 57
1, 201775, Note_off_c, 0, 73, 45
1, 201777, Note_on_c, 0, 69, 42
1, 202022, Note_off_c, 0, 69, 37
1, 202037, Note_on_c, 0, 79, 56
1, 202047, Note_on_c, 0, 74, 31
1, 202088, Note_off_c, 0, 81, 51
1, 202266, Note_on_c, 0, 69, 36
1, 202293, Note_off_c, 0, 74, 47
1, 202483, Note_off_c, 0, 79, 57
1, 202499, Note_off_c, 0, 69, 34
1, 202500, Note_on_c, 0, 78, 52
1, 202522, Note_on_c, 0, 74, 34
1, 202587, Control_c, 0, 64, 42
1, 202602, Control_c, 0, 64, 54
1, 202616, Control_c, 0, 64, 63
1, 202631, Control_c, 0, 64, 66
1, 202646, Control_c, 0, 64, 68
1, 202661, Control_c, 0, 64, 70
1, 202676, Control_c, 0, 64, 72
1, 202690, Control_c, 0, 64, 75
1, 202705, Control_c, 0, 64, 77
1, 202720, Control_c, 0, 64, 81
1, 202735, Control_c, 0, 64, 84
1, 202739, Note_on_c, 0, 69, 43
1, 202750, Control_c, 0, 64, 87
1, 202765, Control_c, 0, 64, 90
1, 202780, Control_c, 0, 64, 93
1, 202795, Control_c, 0, 64, 95
1, 202800, Note_off_c, 0, 69, 58
1, 202809, Control_c, 0, 64, 97
1, 202821, Note_off_c, 0, 78, 37
1, 202824, Control_c, 0, 64, 99
1, 202839, Control_c, 0, 64, 99
1, 202854, Control_c, 0, 64, 100
1, 202928, Control_c, 0, 64, 99
1, 202988, Note_off_c, 0, 74, 43
1, 203003, Control_c, 0, 64, 99
1, 203015, Note_on_c, 0, 83, 55
1, 203018, Control_c, 0, 64, 98
1, 203033, Control_c, 0, 64, 97
1, 203047, Control_c, 0, 64, 96
1, 203062, Control_c, 0, 64, 93
1, 203069, Note_on_c, 0, 66, 42
1, 203074, Note_on_c, 0, 62, 35
1, 203077, Control_c, 0, 64, 89
1, 203080, Note_off_c, 0, 83, 56
1, 203092, Control_c, 0, 64, 82
1, 203107, Control_c, 0, 64, 75
1, 203119, Note_on_c, 0, 81, 46
1, 203122, Control_c, 0, 64, 68
1, 203137, Control_c, 0, 64, 62
1, 203152, Control_c, 0, 64, 56
1, 203158, Note_off_c, 0, 81, 63
1, 203167, Control_c, 0, 64, 62
1, 203181, Control_c, 0, 64, 64
1, 203193, Note_on_c, 0, 83, 49
1, 203196, Control_c, 0, 64, 66
1, 203211, Control_c, 0, 64, 68
1, 203216, Note_off_c, 0, 83, 62
1, 203226, Control_c, 0, 64, 70
1, 203240, Control_c, 0, 64, 73
1, 203246, Note_on_c, 0, 81, 56
1, 203255, Control_c, 0, 64, 76
1, 203270, Control_c, 0, 64, 80
1, 203277, Note_off_c, 0, 81, 61
1, 203285, Control_c, 0, 64, 83
1, 203300, Control_c, 0, 64, 84
1, 203304, Note_on_c, 0, 83, 52
1, 203322, Control_c, 0, 64, 86
1, 203332, Note_off_c, 0, 83, 61
1, 203337, Control_c, 0, 64, 87
1, 203351, Note_off_c, 0, 66, 33
1, 203352, Note_on_c, 0, 81, 55
1, 203352, Control_c, 0, 64, 87
1, 203367, Control_c, 0, 64, 88
1, 203385, Note_off_c, 0, 81, 62
1, 203406, Note_on_c, 0, 83, 63
1, 203426, Note_off_c, 0, 83, 62
1, 203436, Note_on_c, 0, 69, 53
1, 203447, Note_on_c, 0, 81, 49
1, 203452, Note_off_c, 0, 62, 33
1, 203484, Note_off_c, 0, 81, 62
1, 203500, Note_on_c, 0, 83, 66
1, 203533, Note_off_c, 0, 83, 63
1, 203542, Note_on_c, 0, 67, 56
1, 203543, Control_c, 0, 64, 87
1, 203550, Note_on_c, 0, 64, 56
1, 203558, Note_off_c, 0, 69, 35
1, 203561, Note_on_c, 0, 81, 58
1, 203573, Control_c, 0, 64, 87
1, 203587, Control_c, 0, 64, 86
1, 203591, Note_off_c, 0, 81, 65
1, 203602, Control_c, 0, 64, 83
1, 203608, Note_on_c, 0, 83, 59
1, 203617, Control_c, 0, 64, 78
1, 203632, Control_c, 0, 64, 72
1, 203644, Note_off_c, 0, 83, 61
1, 203647, Control_c, 0, 64, 64
1, 203662, Control_c, 0, 64, 0
1, 203671, Note_on_c, 0, 81, 61
1, 203706, Note_off_c, 0, 81, 61
1, 203707, Control_c, 0, 64, 44
1, 203717, Note_on_c, 0, 83, 58
1, 203721, Control_c, 0, 64, 59
1, 203736, Control_c, 0, 64, 64
1, 203751, Control_c, 0, 64, 67
1, 203757, Note_off_c, 0, 83, 60
1, 203765, Control_c, 0, 64, 71
1, 203778, Note_on_c, 0, 81, 59
1, 203780, Control_c, 0, 64, 74
1, 203793, Note_off_c, 0, 64, 56
1, 203796, Control_c, 0, 64, 78
1, 203811, Control_c, 0, 64, 82
1, 203815, Note_off_c, 0, 67, 52
1, 203823, Note_off_c, 0, 81, 61
1, 203826, Control_c, 0, 64, 85
1, 203830, Note_on_c, 0, 83, 64
1, 203841, Control_c, 0, 64, 87
1, 203856, Control_c, 0, 64, 89
1, 203870, Control_c, 0, 64, 91
1, 203875, Note_off_c, 0, 83, 60
1, 203880, Note_on_c, 0, 66, 60
1, 203885, Control_c, 0, 64, 92
1, 203896, Note_on_c, 0, 81, 58
1, 203898, Note_on_c, 0, 62, 36
1, 203900, Control_c, 0, 64, 93
1, 203908, Note_off_c, 0, 66, 65
1, 203932, Note_off_c, 0, 62, 52
1, 203936, Note_off_c, 0, 81, 60
1, 203943, Note_on_c, 0, 83, 62
1, 203986, Note_off_c, 0, 83, 59
1, 203992, Note_on_c, 0, 64, 56
1, 204002, Note_on_c, 0, 61, 61
1, 204003, Note_on_c, 0, 81, 59
1, 204033, Control_c, 0, 64, 93
1, 204045, Note_off_c, 0, 81, 61
1, 204048, Control_c, 0, 64, 90
1, 204061, Note_on_c, 0, 83, 60
1, 204070, Control_c, 0, 64, 85
1, 204085, Control_c, 0, 64, 77
1, 204097, Note_off_c, 0, 83, 59
1, 204100, Control_c, 0, 64, 68
1, 204115, Control_c, 0, 64, 49
1, 204122, Note_on_c, 0, 81, 59
1, 204130, Control_c, 0, 64, 0
1, 204159, Note_off_c, 0, 81, 62
1, 204160, Control_c, 0, 64, 24
1, 204168, Note_on_c, 0, 83, 58
1, 204175, Control_c, 0, 64, 53
1, 204190, Control_c, 0, 64, 62
1, 204202, Note_off_c, 0, 83, 63
1, 204204, Control_c, 0, 64, 66
1, 204219, Control_c, 0, 64, 69
1, 204228, Note_on_c, 0, 81, 61
1, 204234, Control_c, 0, 64, 74
1, 204249, Control_c, 0, 64, 77
1, 204263, Note_off_c, 0, 81, 62
1, 204263, Control_c, 0, 64, 81
1, 204270, Note_on_c, 0, 83, 58
1, 204278, Control_c, 0, 64, 83
1, 204293, Control_c, 0, 64, 85
1, 204307, Note_off_c, 0, 83, 59
1, 204308, Control_c, 0, 64, 87
1, 204323, Control_c, 0, 64, 88
1, 204329, Note_on_c, 0, 81, 60
1, 204337, Control_c, 0, 64, 90
1, 204352, Control_c, 0, 64, 90
1, 204361, Note_off_c, 0, 81, 63
1, 204369, Note_on_c, 0, 83, 55
1, 204396, Note_off_c, 0, 64, 55
1, 204406, Note_off_c, 0, 83, 63
1, 204425, Note_on_c, 0, 81, 61
1, 204464, Note_off_c, 0, 81, 62
1, 204476, Note_on_c, 0, 83, 60
1, 204480, Note_off_c, 0, 61, 53
1, 204500, Control_c, 0, 64, 90
1, 204508, Note_on_c, 0, 66, 68
1, 204508, Note_off_c, 0, 83, 51
1, 204515, Control_c, 0, 64, 89
1, 204517, Note_on_c, 0, 62, 61
1, 204530, Control_c, 0, 64, 87
1, 204533, Note_on_c, 0, 81, 59
1, 204544, Control_c, 0, 64, 83
1, 204559, Control_c, 0, 64, 77
1, 204571, Note_off_c, 0, 81, 63
1, 204574, Control_c, 0, 64, 70
1, 204587, Note_on_c, 0, 83, 66
1, 204590, Control_c, 0, 64, 58
1, 204605, Control_c, 0, 64, 0
1, 204618, Note_off_c, 0, 83, 61
1, 204646, Note_on_c, 0, 81, 61
1, 204679, Control_c, 0, 64, 42
1, 204684, Note_off_c, 0, 81, 64
1, 204693, Control_c, 0, 64, 57
1, 204697, Note_on_c, 0, 83, 60
1, 204708, Control_c, 0, 64, 64
1, 204723, Control_c, 0, 64, 68
1, 204729, Note_off_c, 0, 83, 63
1, 204738, Control_c, 0, 64, 72
1, 204752, Note_on_c, 0, 81, 61
1, 204753, Control_c, 0, 64, 75
1, 204768, Control_c, 0, 64, 79
1, 204783, Control_c, 0, 64, 81
1, 204793, Note_off_c, 0, 81, 62
1, 204798, Control_c, 0, 64, 84
1, 204810, Note_on_c, 0, 83, 64
1, 204819, Control_c, 0, 64, 87
1, 204834, Control_c, 0, 64, 90
1, 204835, Note_off_c, 0, 83, 60
1, 204849, Control_c, 0, 64, 92
1, 204863, Note_on_c, 0, 81, 63
1, 204864, Control_c, 0, 64, 93
1, 204879, Control_c, 0, 64, 94
1, 204910, Note_on_c, 0, 83, 68
1, 204913, Note_off_c, 0, 81, 63
1, 204960, Note_off_c, 0, 83, 58
1, 204977, Note_on_c, 0, 81, 64
1, 204994, Note_off_c, 0, 66, 56
1, 204997, Control_c, 0, 64, 93
1, 205024, Note_on_c, 0, 67, 75
1, 205027, Control_c, 0, 64, 92
1, 205027, Note_off_c, 0, 81, 62
1, 205036, Note_on_c, 0, 83, 57
1, 205042, Control_c, 0, 64, 90
1, 205049, Note_on_c, 0, 64, 54
1, 205057, Control_c, 0, 64, 86
1, 205069, Note_off_c, 0, 83, 53
1, 205072, Control_c, 0, 64, 79
1, 205078, Note_off_c, 0, 62, 28
1, 205086, Control_c, 0, 64, 69
1, 205092, Note_on_c, 0, 81, 55
1, 205101, Control_c, 0, 64, 0
1, 205135, Note_off_c, 0, 81, 62
1, 205152, Note_on_c, 0, 83, 62
1, 205175, Control_c, 0, 64, 42
1, 205182, Note_off_c, 0, 83, 60
1, 205190, Control_c, 0, 64, 60
1, 205202, Note_on_c, 0, 81, 56
1, 205205, Control_c, 0, 64, 66
1, 205219, Control_c, 0, 64, 71
1, 205234, Control_c, 0, 64, 75
1, 205245, Note_off_c, 0, 81, 60
1, 205249, Control_c, 0, 64, 79
1, 205264, Control_c, 0, 64, 82
1, 205266, Note_on_c, 0, 83, 56
1, 205279, Control_c, 0, 64, 85
1, 205289, Note_off_c, 0, 83, 58
1, 205293, Control_c, 0, 64, 87
1, 205308, Control_c, 0, 64, 90
1, 205309, Note_on_c, 0, 81, 56
1, 205323, Control_c, 0, 64, 92
1, 205338, Control_c, 0, 64, 93
1, 205353, Control_c, 0, 64, 93
1, 205354, Note_off_c, 0, 67, 50
1, 205355, Note_off_c, 0, 81, 60
1, 205366, Note_on_c, 0, 83, 61
1, 205367, Control_c, 0, 64, 94
1, 205398, Note_off_c, 0, 83, 52
1, 205409, Note_off_c, 0, 64, 38
1, 205430, Note_on_c, 0, 81, 57
1, 205471, Note_off_c, 0, 81, 60
1, 205488, Note_on_c, 0, 83, 60
1, 205502, Control_c, 0, 64, 93
1, 205516, Note_on_c, 0, 69, 69
1, 205516, Control_c, 0, 64, 91
1, 205527, Note_off_c, 0, 83, 62
1, 205531, Note_on_c, 0, 66, 53
1, 205531, Control_c, 0, 64, 87
1, 205546, Control_c, 0, 64, 80
1, 205550, Note_on_c, 0, 81, 62
1, 205569, Control_c, 0, 64, 69
1, 205584, Control_c, 0, 64, 49
1, 205598, Control_c, 0, 64, 0
1, 205600, Note_off_c, 0, 81, 62
1, 205623, Note_on_c, 0, 83, 53
1, 205642, Control_c, 0, 64, 43
1, 205650, Note_off_c, 0, 83, 60
1, 205657, Control_c, 0, 64, 58
1, 205672, Control_c, 0, 64, 65
1, 205678, Note_on_c, 0, 81, 60
1, 205687, Control_c, 0, 64, 69
1, 205702, Control_c, 0, 64, 73
1, 205713, Note_off_c, 0, 81, 62
1, 205716, Control_c, 0, 64, 77
1, 205731, Note_on_c, 0, 83, 65
1, 205731, Control_c, 0, 64, 79
1, 205746, Control_c, 0, 64, 82
1, 205761, Note_off_c, 0, 83, 64
1, 205761, Control_c, 0, 64, 84
1, 205775, Note_off_c, 0, 69, 38
1, 205776, Control_c, 0, 64, 86
1, 205788, Note_on_c, 0, 81, 61
1, 205790, Control_c, 0, 64, 87
1, 205805, Control_c, 0, 64, 89
1, 205820, Control_c, 0, 64, 90
1, 205826, Note_off_c, 0, 81, 62
1, 205835, Control_c, 0, 64, 90
1, 205841, Note_on_c, 0, 83, 61
1, 205871, Note_off_c, 0, 83, 60
1, 205898, Note_on_c, 0, 81, 57
1, 205938, Note_off_c, 0, 81, 61
1, 205951, Note_on_c, 0, 83, 66
1, 205967, Note_off_c, 0, 66, 37
1, 205986, Note_off_c, 0, 83, 61
1, 206011, Note_on_c, 0, 81, 56
1, 206027, Note_on_c, 0, 67, 58
1, 206042, Control_c, 0, 64, 90
1, 206046, Note_on_c, 0, 64, 52
1, 206051, Note_off_c, 0, 81, 60
1, 206057, Control_c, 0, 64, 88
1, 206071, Note_on_c, 0, 83, 54
1, 206072, Control_c, 0, 64, 84
1, 206087, Control_c, 0, 64, 78
1, 206095, Note_off_c, 0, 83, 59
1, 206101, Control_c, 0, 64, 68
1, 206116, Control_c, 0, 64, 34
1, 206124, Note_on_c, 0, 81, 56
1, 206131, Control_c, 0, 64, 0
1, 206160, Note_off_c, 0, 81, 60
1, 206177, Control_c, 0, 64, 32
1, 206178, Note_on_c, 0, 83, 56
1, 206192, Control_c, 0, 64, 54
1, 206206, Control_c, 0, 64, 62
1, 206212, Note_off_c, 0, 83, 59
1, 206221, Control_c, 0, 64, 67
1, 206236, Control_c, 0, 64, 71
1, 206237, Note_on_c, 0, 81, 54
1, 206251, Control_c, 0, 64, 75
1, 206265, Control_c, 0, 64, 79
1, 206273, Note_off_c, 0, 81, 61
1, 206280, Control_c, 0, 64, 81
1, 206295, Control_c, 0, 64, 83
1, 206299, Note_on_c, 0, 83, 52
1, 206318, Control_c, 0, 64, 85
1, 206327, Note_off_c, 0, 83, 61
1, 206333, Control_c, 0, 64, 88
1, 206347, Control_c, 0, 64, 90
1, 206351, Note_on_c, 0, 81, 58
1, 206362, Control_c, 0, 64, 92
1, 206377, Control_c, 0, 64, 92
1, 206392, Note_off_c, 0, 81, 57
1, 206404, Note_on_c, 0, 83, 60
1, 206439, Note_off_c, 0, 83, 63
1, 206442, Note_off_c, 0, 67, 46
1, 206455, Note_on_c, 0, 81, 49
1, 206464, Control_c, 0, 64, 93
1, 206479, Control_c, 0, 64, 93
1, 206494, Control_c, 0, 64, 94
1, 206503, Note_off_c, 0, 81, 57
1, 206509, Control_c, 0, 64, 95
1, 206522, Note_on_c, 0, 66, 51
1, 206524, Note_on_c, 0, 83, 45
1, 206524, Control_c, 0, 64, 95
1, 206533, Note_on_c, 0, 62, 46
1, 206547, Note_off_c, 0, 83, 59
1, 206553, Control_c, 0, 64, 95
1, 206562, Note_on_c, 0, 81, 48
1, 206568, Note_off_c, 0, 64, 21
1, 206568, Control_c, 0, 64, 89
1, 206582, Control_c, 0, 64, 81
1, 206594, Note_off_c, 0, 81, 64
1, 206597, Control_c, 0, 64, 71
1, 206612, Control_c, 0, 64, 57
1, 206627, Control_c, 0, 64, 50
1, 206629, Note_on_c, 0, 83, 49
1, 206642, Control_c, 0, 64, 61
1, 206653, Note_off_c, 0, 83, 62
1, 206656, Control_c, 0, 64, 65
1, 206671, Control_c, 0, 64, 67
1, 206679, Note_on_c, 0, 81, 61
1, 206686, Control_c, 0, 64, 71
1, 206701, Control_c, 0, 64, 77
1, 206716, Control_c, 0, 64, 82
1, 206716, Control_c, 0, 67, 115
1, 206730, Control_c, 0, 64, 86
1, 206730, Control_c, 0, 67, 94
1, 206745, Control_c, 0, 64, 89
1, 206745, Control_c, 0, 67, 61
1, 206759, Note_off_c, 0, 81, 57
1, 206760, Note_off_c, 0, 62, 37
1, 206760, Control_c, 0, 64, 91
1, 206760, Control_c, 0, 67, 24
1, 206775, Control_c, 0, 64, 92
1, 206775, Control_c, 0, 67, 0
1, 206787, Note_on_c, 0, 80, 60
1, 206790, Control_c, 0, 64, 93
1, 206805, Control_c, 0, 64, 94
1, 206820, Control_c, 0, 64, 94
1, 206835, Control_c, 0, 64, 95
1, 206898, Note_on_c, 0, 81, 67
1, 206906, Note_off_c, 0, 66, 28
1, 206924, Note_off_c, 0, 80, 43
1, 206942, Note_off_c, 0, 81, 60
1, 207081, Control_c, 0, 64, 94
1, 207081, Note_on_c, 0, 86, 91
1, 207087, Note_on_c, 0, 74, 84
1, 207091, Note_on_c, 0, 69, 68
1, 207095, Note_on_c, 0, 66, 61
1, 207095, Control_c, 0, 64, 88
1, 207110, Control_c, 0, 64, 79
1, 207125, Control_c, 0, 64, 68
1, 207141, Control_c, 0, 64, 0
1, 207200, Control_c, 0, 64, 54
1, 207214, Control_c, 0, 64, 65
1, 207229, Control_c, 0, 64, 72
1, 207244, Control_c, 0, 64, 79
1, 207259, Control_c, 0, 64, 88
1, 207262, Note_off_c, 0, 86, 61
1, 207274, Control_c, 0, 64, 94
1, 207278, Note_off_c, 0, 74, 59
1, 207288, Control_c, 0, 64, 100
1, 207303, Control_c, 0, 64, 104
1, 207318, Control_c, 0, 64, 108
1, 207333, Control_c, 0, 64, 110
1, 207348, Control_c, 0, 64, 113
1, 207349, Note_off_c, 0, 69, 54
1, 207362, Control_c, 0, 64, 114
1, 207377, Control_c, 0, 64, 114
1, 207477, Note_off_c, 0, 66, 44
1, 207555, Control_c, 0, 64, 114
1, 207570, Control_c, 0, 64, 107
1, 207585, Control_c, 0, 64, 95
1, 207591, Note_on_c, 0, 85, 89
1, 207597, Note_on_c, 0, 73, 91
1, 207599, Note_on_c, 0, 70, 65
1, 207600, Control_c, 0, 64, 81
1, 207608, Note_on_c, 0, 64, 57
1, 207609, Note_on_c, 0, 67, 59
1, 207614, Control_c, 0, 64, 66
1, 207629, Control_c, 0, 64, 0
1, 207674, Control_c, 0, 64, 44
1, 207688, Control_c, 0, 64, 64
1, 207703, Control_c, 0, 64, 70
1, 207718, Control_c, 0, 64, 79
1, 207728, Note_off_c, 0, 85, 63
1, 207731, Note_off_c, 0, 73, 61
1, 207733, Control_c, 0, 64, 90
1, 207748, Control_c, 0, 64, 101
1, 207762, Control_c, 0, 64, 112
1, 207778, Control_c, 0, 64, 127
1, 207838, Note_off_c, 0, 70, 38
1, 207923, Note_off_c, 0, 64, 37
1, 207937, Note_off_c, 0, 67, 36
1, 208111, Control_c, 0, 64, 124
1, 208126, Control_c, 0, 64, 108
1, 208127, Note_on_c, 0, 83, 75
1, 208133, Note_on_c, 0, 71, 68
1, 208141, Control_c, 0, 64, 95
1, 208145, Note_on_c, 0, 66, 49
1, 208147, Note_on_c, 0, 62, 47
1, 208156, Control_c, 0, 64, 84
1, 208171, Control_c, 0, 64, 74
1, 208185, Control_c, 0, 64, 63
1, 208200, Control_c, 0, 64, 0
1, 208452, Control_c, 0, 67, 11
1, 208467, Control_c, 0, 67, 41
1, 208482, Control_c, 0, 67, 100
1, 208497, Control_c, 0, 67, 127
1, 208499, Note_off_c, 0, 83, 51
1, 208513, Note_off_c, 0, 62, 59
1, 208518, Note_off_c, 0, 66, 59
1, 208525, Note_off_c, 0, 71, 55
1, 209100, Note_on_c, 0, 78, 40
1, 209327, Control_c, 0, 64, 11
1, 209337, Note_off_c, 0, 78, 54
1, 209341, Control_c, 0, 64, 36
1, 209356, Control_c, 0, 64, 47
1, 209367, Note_on_c, 0, 83, 50
1, 209371, Control_c, 0, 64, 58
1, 209386, Control_c, 0, 64, 64
1, 209391, Note_on_c, 0, 71, 38
1, 209396, Note_on_c, 0, 62, 27
1, 209396, Note_on_c, 0, 66, 26
1, 209401, Control_c, 0, 64, 66
1, 209415, Control_c, 0, 64, 67
1, 209430, Control_c, 0, 64, 69
1, 209445, Control_c, 0, 64, 71
1, 209460, Control_c, 0, 64, 74
1, 209475, Control_c, 0, 64, 77
1, 209490, Control_c, 0, 64, 81
1, 209505, Control_c, 0, 64, 84
1, 209519, Control_c, 0, 64, 87
1, 209534, Control_c, 0, 64, 89
1, 209549, Control_c, 0, 64, 91
1, 209564, Control_c, 0, 64, 92
1, 209579, Control_c, 0, 64, 93
1, 209590, Note_off_c, 0, 83, 33
1, 209594, Control_c, 0, 64, 94
1, 209606, Note_off_c, 0, 66, 40
1, 209613, Note_off_c, 0, 71, 33
1, 209640, Note_off_c, 0, 62, 31
1, 209800, Control_c, 0, 64, 93
1, 209815, Control_c, 0, 64, 93
1, 209830, Control_c, 0, 64, 92
1, 209845, Control_c, 0, 64, 91
1, 209860, Control_c, 0, 64, 88
1, 209871, Note_on_c, 0, 81, 47
1, 209875, Control_c, 0, 64, 82
1, 209879, Note_on_c, 0, 66, 37
1, 209888, Note_on_c, 0, 69, 36
1, 209889, Control_c, 0, 64, 73
1, 209895, Note_on_c, 0, 60, 37
1, 209901, Note_on_c, 0, 62, 31
1, 209904, Control_c, 0, 64, 59
1, 209919, Control_c, 0, 64, 0
1, 209964, Control_c, 0, 64, 45
1, 209978, Control_c, 0, 64, 61
1, 209993, Control_c, 0, 64, 66
1, 210008, Control_c, 0, 64, 70
1, 210023, Control_c, 0, 64, 75
1, 210038, Control_c, 0, 64, 80
1, 210041, Note_off_c, 0, 81, 36
1, 210059, Note_off_c, 0, 66, 36
1, 210060, Control_c, 0, 64, 84
1, 210061, Note_off_c, 0, 62, 32
1, 210075, Control_c, 0, 64, 87
1, 210088, Note_off_c, 0, 60, 32
1, 210089, Control_c, 0, 64, 88
1, 210104, Control_c, 0, 64, 89
1, 210108, Note_off_c, 0, 69, 33
1, 210119, Control_c, 0, 64, 90
1, 210134, Control_c, 0, 64, 91
1, 210149, Control_c, 0, 64, 91
1, 210164, Control_c, 0, 64, 92
1, 210343, Control_c, 0, 64, 91
1, 210387, Control_c, 0, 64, 91
1, 210402, Control_c, 0, 64, 90
1, 210417, Note_on_c, 0, 79, 39
1, 210417, Control_c, 0, 64, 89
1, 210426, Note_on_c, 0, 67, 37
1, 210432, Note_on_c, 0, 59, 37
1, 210432, Control_c, 0, 64, 87
1, 210434, Note_on_c, 0, 62, 29
1, 210446, Control_c, 0, 64, 85
1, 210461, Control_c, 0, 64, 81
1, 210476, Control_c, 0, 64, 76
1, 210491, Control_c, 0, 64, 70
1, 210506, Control_c, 0, 64, 58
1, 210521, Control_c, 0, 64, 0
1, 210810, Control_c, 0, 67, 111
1, 210816, Note_off_c, 0, 62, 41
1, 210824, Control_c, 0, 67, 80
1, 210831, Note_off_c, 0, 59, 31
1, 210839, Control_c, 0, 67, 41
1, 210840, Note_off_c, 0, 79, 42
1, 210851, Note_off_c, 0, 67, 30
1, 210854, Control_c, 0, 67, 0
1, 211299, Control_c, 0, 64, 31
1, 211314, Control_c, 0, 64, 45
1, 211329, Control_c, 0, 64, 52
1, 211344, Control_c, 0, 64, 58
1, 211359, Control_c, 0, 64, 62
1, 211373, Control_c, 0, 64, 64
1, 211388, Control_c, 0, 64, 65
1, 211389, Note_on_c, 0, 74, 77
1, 211403, Control_c, 0, 64, 67
1, 211418, Control_c, 0, 64, 69
1, 211433, Control_c, 0, 64, 72
1, 211447, Control_c, 0, 64, 75
1, 211462, Control_c, 0, 64, 79
1, 211477, Control_c, 0, 64, 83
1, 211492, Control_c, 0, 64, 87
1, 211507, Control_c, 0, 64, 90
1, 211521, Control_c, 0, 64, 93
1, 211536, Control_c, 0, 64, 95
1, 211558, Control_c, 0, 64, 96
1, 211573, Control_c, 0, 64, 97
1, 211588, Control_c, 0, 64, 98
1, 211603, Note_off_c, 0, 74, 63
1, 211603, Control_c, 0, 64, 98
1, 211648, Control_c, 0, 64, 98
1, 211648, Note_on_c, 0, 79, 83
1, 211661, Note_on_c, 0, 67, 65
1, 211666, Note_on_c, 0, 59, 54
1, 211672, Note_on_c, 0, 62, 50
1, 211677, Control_c, 0, 64, 97
1, 211692, Control_c, 0, 64, 92
1, 211707, Control_c, 0, 64, 84
1, 211721, Control_c, 0, 64, 75
1, 211736, Control_c, 0, 64, 67
1, 211751, Control_c, 0, 64, 47
1, 211766, Control_c, 0, 64, 36
1, 211782, Control_c, 0, 64, 49
1, 211797, Control_c, 0, 64, 59
1, 211811, Control_c, 0, 64, 63
1, 211826, Control_c, 0, 64, 66
1, 211841, Control_c, 0, 64, 68
1, 211849, Note_off_c, 0, 79, 59
1, 211856, Control_c, 0, 64, 71
1, 211871, Control_c, 0, 64, 75
1, 211885, Control_c, 0, 64, 80
1, 211896, Note_off_c, 0, 67, 56
1, 211900, Control_c, 0, 64, 84
1, 211915, Control_c, 0, 64, 87
1, 211919, Note_off_c, 0, 62, 53
1, 211930, Control_c, 0, 64, 90
1, 211945, Control_c, 0, 64, 93
1, 211959, Control_c, 0, 64, 96
1, 211974, Control_c, 0, 64, 97
1, 211999, Note_off_c, 0, 59, 48
1, 212122, Control_c, 0, 64, 97
1, 212137, Control_c, 0, 64, 95
1, 212141, Note_on_c, 0, 78, 82
1, 212151, Note_on_c, 0, 66, 67
1, 212152, Control_c, 0, 64, 91
1, 212163, Note_on_c, 0, 57, 52
1, 212166, Note_on_c, 0, 63, 52
1, 212166, Control_c, 0, 64, 84
1, 212168, Note_on_c, 0, 60, 51
1, 212181, Control_c, 0, 64, 76
1, 212196, Control_c, 0, 64, 66
1, 212211, Control_c, 0, 64, 19
1, 212226, Control_c, 0, 64, 0
1, 212256, Control_c, 0, 64, 33
1, 212270, Control_c, 0, 64, 57
1, 212284, Note_off_c, 0, 66, 55
1, 212285, Control_c, 0, 64, 64
1, 212307, Control_c, 0, 64, 67
1, 212322, Control_c, 0, 64, 72
1, 212337, Control_c, 0, 64, 77
1, 212351, Control_c, 0, 64, 82
1, 212366, Control_c, 0, 64, 85
1, 212381, Control_c, 0, 64, 88
1, 212396, Control_c, 0, 64, 90
1, 212411, Control_c, 0, 64, 91
1, 212426, Control_c, 0, 64, 92
1, 212441, Control_c, 0, 64, 92
1, 212458, Note_off_c, 0, 63, 35
1, 212521, Note_off_c, 0, 57, 34
1, 212551, Note_off_c, 0, 78, 58
1, 212597, Note_off_c, 0, 60, 37
1, 212619, Control_c, 0, 64, 91
1, 212634, Control_c, 0, 64, 90
1, 212648, Note_on_c, 0, 76, 72
1, 212649, Control_c, 0, 64, 89
1, 212664, Control_c, 0, 64, 88
1, 212666, Note_on_c, 0, 64, 49
1, 212676, Note_on_c, 0, 55, 42
1, 212679, Control_c, 0, 64, 87
1, 212682, Note_on_c, 0, 59, 44
1, 212694, Control_c, 0, 64, 84
1, 212708, Control_c, 0, 64, 80
1, 212723, Control_c, 0, 64, 76
1, 212738, Control_c, 0, 64, 71
1, 212753, Control_c, 0, 64, 65
1, 212768, Control_c, 0, 64, 46
1, 212782, Control_c, 0, 64, 0
1, 212923, Note_on_c, 0, 83, 66
1, 212992, Note_off_c, 0, 76, 53
1, 213086, Control_c, 0, 64, 40
1, 213100, Control_c, 0, 64, 55
1, 213115, Control_c, 0, 64, 61
1, 213130, Control_c, 0, 64, 64
1, 213145, Control_c, 0, 64, 66
1, 213159, Control_c, 0, 64, 68
1, 213174, Control_c, 0, 64, 71
1, 213189, Control_c, 0, 64, 73
1, 213195, Note_on_c, 0, 81, 72
1, 213204, Control_c, 0, 64, 75
1, 213219, Control_c, 0, 64, 77
1, 213234, Control_c, 0, 64, 79
1, 213239, Note_off_c, 0, 83, 56
1, 213249, Control_c, 0, 64, 80
1, 213263, Control_c, 0, 64, 81
1, 213278, Control_c, 0, 64, 81
1, 213302, Note_on_c, 0, 79, 79
1, 213340, Note_off_c, 0, 55, 38
1, 213343, Note_off_c, 0, 81, 57
1, 213368, Note_off_c, 0, 64, 38
1, 213411, Note_on_c, 0, 78, 83
1, 213427, Control_c, 0, 64, 81
1, 213457, Control_c, 0, 64, 80
1, 213466, Note_off_c, 0, 79, 53
1, 213472, Control_c, 0, 64, 79
1, 213487, Control_c, 0, 64, 79
1, 213494, Note_off_c, 0, 59, 31
1, 213502, Control_c, 0, 64, 78
1, 213508, Note_on_c, 0, 76, 80
1, 213516, Control_c, 0, 64, 76
1, 213528, Note_off_c, 0, 78, 65
1, 213531, Control_c, 0, 64, 74
1, 213546, Control_c, 0, 64, 70
1, 213561, Control_c, 0, 64, 64
1, 213575, Control_c, 0, 64, 19
1, 213590, Control_c, 0, 64, 0
1, 213639, Note_on_c, 0, 74, 80
1, 213647, Note_on_c, 0, 66, 48
1, 213656, Note_on_c, 0, 57, 44
1, 213676, Note_off_c, 0, 76, 61
1, 214167, Note_on_c, 0, 76, 69
1, 214184, Note_off_c, 0, 66, 54
1, 214188, Note_on_c, 0, 61, 49
1, 214196, Note_off_c, 0, 74, 63
1, 214235, Control_c, 0, 64, 46
1, 214250, Control_c, 0, 64, 59
1, 214265, Note_off_c, 0, 57, 57
1, 214265, Control_c, 0, 64, 64
1, 214280, Control_c, 0, 64, 68
1, 214295, Control_c, 0, 64, 73
1, 214310, Control_c, 0, 64, 78
1, 214325, Control_c, 0, 64, 83
1, 214340, Control_c, 0, 64, 87
1, 214346, Note_off_c, 0, 61, 61
1, 214354, Control_c, 0, 64, 90
1, 214369, Control_c, 0, 64, 91
1, 214384, Control_c, 0, 64, 93
1, 214398, Control_c, 0, 64, 93
1, 214413, Control_c, 0, 64, 94
1, 214569, Control_c, 0, 64, 93
1, 214613, Control_c, 0, 64, 92
1, 214628, Control_c, 0, 64, 92
1, 214643, Control_c, 0, 64, 91
1, 214658, Control_c, 0, 64, 91
1, 214672, Control_c, 0, 64, 90
1, 214687, Control_c, 0, 64, 89
1, 214702, Control_c, 0, 64, 87
1, 214716, Note_on_c, 0, 77, 54
1, 214717, Control_c, 0, 64, 85
1, 214721, Note_on_c, 0, 61, 41
1, 214730, Note_on_c, 0, 50, 37
1, 214731, Control_c, 0, 64, 81
1, 214746, Control_c, 0, 64, 74
1, 214761, Control_c, 0, 64, 65
1, 214769, Note_off_c, 0, 76, 56
1, 214776, Control_c, 0, 64, 0
1, 214850, Control_c, 0, 64, 43
1, 214865, Control_c, 0, 64, 57
1, 214879, Control_c, 0, 64, 63
1, 214894, Control_c, 0, 64, 67
1, 214909, Control_c, 0, 64, 70
1, 214924, Control_c, 0, 64, 73
1, 214939, Control_c, 0, 64, 76
1, 214954, Control_c, 0, 64, 78
1, 214969, Control_c, 0, 64, 80
1, 214984, Control_c, 0, 64, 82
1, 214999, Control_c, 0, 64, 83
1, 215014, Control_c, 0, 64, 83
1, 215019, Note_off_c, 0, 61, 41
1, 215177, Control_c, 0, 64, 83
1, 215192, Control_c, 0, 64, 82
1, 215207, Control_c, 0, 64, 82
1, 215236, Control_c, 0, 64, 81
1, 215251, Control_c, 0, 64, 80
1, 215266, Control_c, 0, 64, 79
1, 215281, Control_c, 0, 64, 77
1, 215298, Note_off_c, 0, 77, 51
1, 215302, Control_c, 0, 64, 76
1, 215305, Note_on_c, 0, 62, 31
1, 215305, Note_on_c, 0, 78, 42
1, 215317, Control_c, 0, 64, 73
1, 215332, Control_c, 0, 64, 70
1, 215347, Control_c, 0, 64, 64
1, 215362, Control_c, 0, 64, 0
1, 215407, Control_c, 0, 67, 12
1, 215419, Note_off_c, 0, 50, 47
1, 215421, Control_c, 0, 67, 38
1, 215436, Control_c, 0, 67, 75
1, 215451, Control_c, 0, 67, 111
1, 215466, Control_c, 0, 67, 127
1, 215495, Control_c, 0, 64, 34
1, 215510, Control_c, 0, 64, 53
1, 215525, Control_c, 0, 64, 62
1, 215540, Control_c, 0, 64, 66
1, 215554, Control_c, 0, 64, 69
1, 215569, Control_c, 0, 64, 73
1, 215581, Note_off_c, 0, 62, 53
1, 215584, Control_c, 0, 64, 76
1, 215599, Control_c, 0, 64, 79
1, 215614, Control_c, 0, 64, 81
1, 215628, Control_c, 0, 64, 82
1, 215643, Control_c, 0, 64, 83
1, 215658, Control_c, 0, 64, 85
1, 215673, Control_c, 0, 64, 85
1, 215688, Control_c, 0, 64, 86
1, 215778, Note_off_c, 0, 78, 0
1, 215815, Poly_aftertouch_c, 0, 78, 0
1, 215851, Control_c, 0, 64, 85
1, 215866, Control_c, 0, 64, 84
1, 215881, Control_c, 0, 64, 84
1, 215896, Control_c, 0, 64, 83
1, 215911, Note_on_c, 0, 86, 42
1, 215911, Control_c, 0, 64, 82
1, 215916, Note_on_c, 0, 69, 35
1, 215925, Control_c, 0, 64, 81
1, 215929, Note_on_c, 0, 66, 29
1, 215940, Control_c, 0, 64, 77
1, 215955, Control_c, 0, 64, 71
1, 215970, Control_c, 0, 64, 61
1, 215985, Control_c, 0, 64, 0
1, 216066, Control_c, 0, 64, 49
1, 216081, Control_c, 0, 64, 61
1, 216096, Control_c, 0, 64, 66
1, 216111, Control_c, 0, 64, 69
1, 216125, Control_c, 0, 64, 73
1, 216140, Control_c, 0, 64, 77
1, 216155, Control_c, 0, 64, 80
1, 216159, Note_off_c, 0, 69, 52
1, 216170, Control_c, 0, 64, 82
1, 216185, Control_c, 0, 64, 83
1, 216200, Control_c, 0, 64, 85
1, 216215, Control_c, 0, 64, 86
1, 216229, Control_c, 0, 64, 86
1, 216312, Note_off_c, 0, 86, 60
1, 216313, Note_off_c, 0, 66, 42
1, 216377, Control_c, 0, 64, 86
1, 216428, Note_on_c, 0, 70, 37
1, 216436, Control_c, 0, 64, 85
1, 216441, Note_on_c, 0, 86, 45
1, 216443, Note_on_c, 0, 64, 39
1, 216444, Note_on_c, 0, 67, 37
1, 216451, Control_c, 0, 64, 84
1, 216465, Note_off_c, 0, 86, 60
1, 216466, Control_c, 0, 64, 83
1, 216481, Control_c, 0, 64, 79
1, 216492, Note_on_c, 0, 85, 56
1, 216496, Control_c, 0, 64, 73
1, 216511, Control_c, 0, 64, 64
1, 216519, Note_off_c, 0, 85, 59
1, 216525, Control_c, 0, 64, 0
1, 216549, Note_on_c, 0, 86, 54
1, 216555, Control_c, 0, 64, 32
1, 216571, Control_c, 0, 64, 55
1, 216572, Note_off_c, 0, 86, 64
1, 216586, Control_c, 0, 64, 62
1, 216598, Note_on_c, 0, 85, 62
1, 216600, Control_c, 0, 64, 65
1, 216615, Control_c, 0, 64, 69
1, 216626, Note_off_c, 0, 85, 65
1, 216630, Control_c, 0, 64, 72
1, 216645, Control_c, 0, 64, 76
1, 216647, Note_on_c, 0, 86, 62
1, 216660, Control_c, 0, 64, 79
1, 216670, Note_off_c, 0, 86, 67
1, 216674, Control_c, 0, 64, 81
1, 216689, Control_c, 0, 64, 83
1, 216694, Note_on_c, 0, 85, 62
1, 216704, Control_c, 0, 64, 84
1, 216712, Note_off_c, 0, 85, 64
1, 216719, Control_c, 0, 64, 85
1, 216733, Note_on_c, 0, 86, 66
1, 216760, Note_off_c, 0, 86, 66
1, 216772, Note_off_c, 0, 70, 34
1, 216775, Note_on_c, 0, 85, 72
1, 216800, Control_c, 0, 64, 84
1, 216815, Control_c, 0, 64, 83
1, 216818, Note_off_c, 0, 85, 60
1, 216830, Control_c, 0, 64, 79
1, 216832, Note_on_c, 0, 86, 61
1, 216845, Control_c, 0, 64, 72
1, 216847, Note_off_c, 0, 64, 30
1, 216860, Control_c, 0, 64, 64
1, 216873, Note_off_c, 0, 86, 65
1, 216875, Control_c, 0, 64, 0
1, 216900, Note_off_c, 0, 67, 41
1, 216902, Note_on_c, 0, 85, 59
1, 216957, Note_off_c, 0, 85, 62
1, 216983, Note_on_c, 0, 83, 57
1, 217019, Note_on_c, 0, 71, 35
1, 217030, Note_on_c, 0, 62, 27
1, 217040, Note_on_c, 0, 66, 18
1, 217061, Note_off_c, 0, 83, 0
1, 217098, Poly_aftertouch_c, 0, 83, 127
1, 217101, Note_on_c, 0, 83, 3
1, 217294, Note_off_c, 0, 83, 41
1, 217349, Note_off_c, 0, 71, 38
1, 217359, Note_off_c, 0, 66, 43
1, 217372, Note_off_c, 0, 62, 41
1, 217439, Control_c, 0, 67, 123
1, 217454, Control_c, 0, 67, 104
1, 217469, Control_c, 0, 67, 67
1, 217484, Control_c, 0, 67, 25
1, 217498, Control_c, 0, 67, 0
1, 217741, Control_c, 0, 64, 46
1, 217756, Control_c, 0, 64, 57
1, 217771, Control_c, 0, 64, 63
1, 217786, Control_c, 0, 64, 66
1, 217801, Control_c, 0, 64, 69
1, 217815, Control_c, 0, 64, 72
1, 217830, Control_c, 0, 64, 75
1, 217845, Control_c, 0, 64, 79
1, 217860, Control_c, 0, 64, 83
1, 217875, Note_on_c, 0, 78, 85
1, 217875, Control_c, 0, 64, 86
1, 217890, Control_c, 0, 64, 90
1, 217905, Control_c, 0, 64, 94
1, 217920, Control_c, 0, 64, 98
1, 217935, Control_c, 0, 64, 103
1, 217949, Control_c, 0, 64, 107
1, 217964, Control_c, 0, 64, 110
1, 217979, Control_c, 0, 64, 111
1, 217994, Control_c, 0, 64, 111
1, 218063, Note_off_c, 0, 78, 61
1, 218120, Note_on_c, 0, 83, 84
1, 218127, Control_c, 0, 64, 111
1, 218134, Note_on_c, 0, 66, 64
1, 218135, Note_on_c, 0, 62, 62
1, 218141, Control_c, 0, 64, 109
1, 218157, Control_c, 0, 64, 106
1, 218172, Control_c, 0, 64, 98
1, 218187, Control_c, 0, 64, 88
1, 218202, Control_c, 0, 64, 77
1, 218217, Control_c, 0, 64, 64
1, 218231, Control_c, 0, 64, 0
1, 218261, Control_c, 0, 64, 29
1, 218276, Control_c, 0, 64, 58
1, 218298, Control_c, 0, 64, 64
1, 218313, Control_c, 0, 64, 68
1, 218328, Control_c, 0, 64, 74
1, 218343, Control_c, 0, 64, 80
1, 218358, Control_c, 0, 64, 86
1, 218372, Control_c, 0, 64, 92
1, 218387, Control_c, 0, 64, 96
1, 218402, Control_c, 0, 64, 99
1, 218417, Control_c, 0, 64, 102
1, 218432, Control_c, 0, 64, 104
1, 218446, Control_c, 0, 64, 106
1, 218461, Control_c, 0, 64, 109
1, 218468, Note_off_c, 0, 66, 38
1, 218476, Control_c, 0, 64, 109
1, 218491, Control_c, 0, 64, 110
1, 218525, Note_off_c, 0, 83, 59
1, 218526, Note_off_c, 0, 62, 38
1, 218579, Control_c, 0, 64, 109
1, 218635, Note_on_c, 0, 83, 71
1, 218638, Control_c, 0, 64, 109
1, 218653, Control_c, 0, 64, 106
1, 218655, Note_on_c, 0, 66, 63
1, 218656, Note_on_c, 0, 62, 54
1, 218664, Note_on_c, 0, 60, 53
1, 218668, Control_c, 0, 64, 100
1, 218680, Note_off_c, 0, 83, 63
1, 218683, Control_c, 0, 64, 91
1, 218694, Note_on_c, 0, 81, 70
1, 218698, Control_c, 0, 64, 77
1, 218713, Control_c, 0, 64, 66
1, 218727, Control_c, 0, 64, 0
1, 218737, Note_off_c, 0, 81, 58
1, 218755, Note_on_c, 0, 83, 54
1, 218772, Control_c, 0, 64, 57
1, 218786, Note_off_c, 0, 83, 67
1, 218787, Control_c, 0, 64, 65
1, 218796, Note_on_c, 0, 81, 66
1, 218802, Control_c, 0, 64, 70
1, 218817, Control_c, 0, 64, 75
1, 218832, Control_c, 0, 64, 84
1, 218838, Note_off_c, 0, 81, 62
1, 218846, Control_c, 0, 64, 94
1, 218853, Note_on_c, 0, 83, 69
1, 218861, Control_c, 0, 64, 107
1, 218876, Control_c, 0, 64, 127
1, 218891, Note_off_c, 0, 83, 62
1, 218904, Note_on_c, 0, 81, 69
1, 218940, Note_off_c, 0, 81, 59
1, 218943, Note_on_c, 0, 83, 70
1, 219000, Note_off_c, 0, 83, 65
1, 219002, Note_on_c, 0, 81, 77
1, 219006, Note_off_c, 0, 66, 35
1, 219052, Note_off_c, 0, 81, 60
1, 219055, Note_on_c, 0, 83, 68
1, 219104, Note_off_c, 0, 60, 53
1, 219106, Note_off_c, 0, 83, 66
1, 219107, Note_on_c, 0, 81, 76
1, 219121, Control_c, 0, 64, 103
1, 219124, Note_off_c, 0, 62, 26
1, 219135, Control_c, 0, 64, 87
1, 219150, Control_c, 0, 64, 74
1, 219165, Control_c, 0, 64, 61
1, 219167, Note_off_c, 0, 81, 64
1, 219180, Control_c, 0, 64, 0
1, 219187, Note_on_c, 0, 79, 63
1, 219209, Note_on_c, 0, 67, 43
1, 219210, Note_on_c, 0, 62, 18
1, 219230, Note_on_c, 0, 59, 42
1, 219461, Control_c, 0, 67, 18
1, 219476, Control_c, 0, 67, 51
1, 219491, Control_c, 0, 67, 97
1, 219505, Control_c, 0, 67, 127
1, 219543, Note_off_c, 0, 79, 50
1, 219616, Note_off_c, 0, 67, 48
1, 219717, Note_off_c, 0, 62, 42
1, 219775, Note_off_c, 0, 59, 37
1, 220209, Note_on_c, 0, 74, 42
1, 220457, Note_off_c, 0, 74, 56
1, 220480, Note_on_c, 0, 79, 44
1, 220506, Note_on_c, 0, 62, 30
1, 220510, Note_on_c, 0, 59, 27
1, 220543, Control_c, 0, 64, 14
1, 220558, Control_c, 0, 64, 42
1, 220573, Control_c, 0, 64, 54
1, 220588, Control_c, 0, 64, 60
1, 220603, Control_c, 0, 64, 64
1, 220618, Control_c, 0, 64, 67
1, 220633, Control_c, 0, 64, 70
1, 220647, Control_c, 0, 64, 73
1, 220662, Control_c, 0, 64, 76
1, 220677, Control_c, 0, 64, 79
1, 220692, Control_c, 0, 64, 82
1, 220707, Control_c, 0, 64, 85
1, 220722, Control_c, 0, 64, 87
1, 220737, Control_c, 0, 64, 88
1, 220751, Control_c, 0, 64, 90
1, 220757, Note_off_c, 0, 62, 40
1, 220766, Control_c, 0, 64, 91
1, 220781, Control_c, 0, 64, 91
1, 220796, Control_c, 0, 64, 92
1, 220825, Note_off_c, 0, 79, 54
1, 220870, Control_c, 0, 64, 91
1, 220898, Note_off_c, 0, 59, 42
1, 220944, Control_c, 0, 64, 90
1, 220951, Note_on_c, 0, 79, 53
1, 220958, Control_c, 0, 64, 90
1, 220973, Control_c, 0, 64, 89
1, 220988, Control_c, 0, 64, 88
1, 220989, Note_on_c, 0, 63, 36
1, 220998, Note_on_c, 0, 57, 38
1, 221003, Control_c, 0, 64, 86
1, 221005, Note_on_c, 0, 60, 33
1, 221006, Note_off_c, 0, 79, 57
1, 221018, Control_c, 0, 64, 83
1, 221032, Note_on_c, 0, 78, 53
1, 221033, Control_c, 0, 64, 78
1, 221047, Control_c, 0, 64, 72
1, 221062, Control_c, 0, 64, 64
1, 221070, Note_off_c, 0, 78, 63
1, 221077, Control_c, 0, 64, 40
1, 221092, Control_c, 0, 64, 38
1, 221106, Note_on_c, 0, 79, 48
1, 221107, Control_c, 0, 64, 53
1, 221121, Control_c, 0, 64, 61
1, 221136, Control_c, 0, 64, 64
1, 221137, Note_off_c, 0, 79, 63
1, 221151, Control_c, 0, 64, 65
1, 221158, Note_on_c, 0, 78, 52
1, 221166, Control_c, 0, 64, 68
1, 221181, Control_c, 0, 64, 70
1, 221184, Note_off_c, 0, 78, 60
1, 221196, Control_c, 0, 64, 73
1, 221208, Note_on_c, 0, 79, 59
1, 221211, Control_c, 0, 64, 76
1, 221225, Control_c, 0, 64, 78
1, 221238, Note_off_c, 0, 79, 63
1, 221240, Control_c, 0, 64, 79
1, 221255, Control_c, 0, 64, 80
1, 221255, Note_on_c, 0, 78, 64
1, 221294, Note_off_c, 0, 78, 62
1, 221301, Note_off_c, 0, 63, 31
1, 221312, Note_on_c, 0, 79, 53
1, 221337, Note_off_c, 0, 79, 59
1, 221346, Note_on_c, 0, 78, 65
1, 221363, Note_off_c, 0, 57, 33
1, 221384, Note_off_c, 0, 78, 61
1, 221401, Note_on_c, 0, 79, 64
1, 221426, Control_c, 0, 64, 79
1, 221437, Note_off_c, 0, 79, 63
1, 221441, Control_c, 0, 64, 78
1, 221454, Note_on_c, 0, 78, 65
1, 221456, Control_c, 0, 64, 73
1, 221459, Note_off_c, 0, 60, 45
1, 221470, Control_c, 0, 64, 68
1, 221485, Control_c, 0, 64, 58
1, 221500, Control_c, 0, 64, 0
1, 221511, Note_off_c, 0, 78, 63
1, 221538, Note_on_c, 0, 76, 61
1, 221543, Note_on_c, 0, 64, 38
1, 221556, Note_on_c, 0, 59, 33
1, 221569, Note_on_c, 0, 55, 33
1, 221820, Note_on_c, 0, 83, 61
1, 221854, Note_off_c, 0, 76, 35
1, 222105, Note_on_c, 0, 81, 63
1, 222125, Note_off_c, 0, 83, 47
1, 222220, Note_on_c, 0, 79, 68
1, 222222, Note_off_c, 0, 64, 42
1, 222230, Note_off_c, 0, 55, 42
1, 222257, Note_off_c, 0, 81, 55
1, 222321, Note_off_c, 0, 59, 43
1, 222328, Note_on_c, 0, 78, 72
1, 222361, Note_off_c, 0, 79, 56
1, 222424, Note_off_c, 0, 78, 64
1, 222435, Note_on_c, 0, 76, 66
1, 222555, Note_on_c, 0, 74, 70
1, 222558, Note_off_c, 0, 76, 43
1, 222563, Note_on_c, 0, 66, 34
1, 222573, Note_on_c, 0, 62, 29
1, 222574, Note_on_c, 0, 57, 27
1, 222592, Note_off_c, 0, 74, 60
1, 222824, Note_on_c, 0, 78, 69
1, 222866, Note_off_c, 0, 78, 62
1, 223112, Note_on_c, 0, 81, 52
1, 223138, Note_off_c, 0, 66, 36
1, 223145, Note_off_c, 0, 62, 34
1, 223177, Note_off_c, 0, 57, 32
1, 223644, Note_on_c, 0, 66, 29
1, 223649, Note_on_c, 0, 57, 29
1, 223652, Note_on_c, 0, 62, 25
1, 223899, Note_on_c, 0, 80, 65
1, 223977, Note_off_c, 0, 81, 44
1, 224144, Note_on_c, 0, 79, 74
1, 224223, Note_off_c, 0, 80, 52
1, 224266, Note_off_c, 0, 66, 41
1, 224335, Note_off_c, 0, 62, 34
1, 224405, Note_off_c, 0, 57, 37
1, 224428, Note_on_c, 0, 78, 69
1, 224503, Note_off_c, 0, 79, 59
1, 224746, Note_on_c, 0, 83, 47
1, 224792, Note_on_c, 0, 64, 33
1, 224794, Note_on_c, 0, 62, 28
1, 224803, Note_on_c, 0, 57, 26
1, 224870, Note_off_c, 0, 78, 38
1, 225078, Note_on_c, 0, 79, 57
1, 225134, Note_off_c, 0, 83, 49
1, 225226, Note_on_c, 0, 76, 56
1, 225229, Note_off_c, 0, 79, 60
1, 225363, Note_off_c, 0, 76, 58
1, 225367, Note_on_c, 0, 78, 59
1, 225464, Note_off_c, 0, 78, 62
1, 225479, Note_on_c, 0, 76, 66
1, 225503, Note_off_c, 0, 64, 46
1, 225539, Note_off_c, 0, 76, 57
1, 225555, Note_on_c, 0, 78, 63
1, 225569, Note_off_c, 0, 57, 41
1, 225596, Note_off_c, 0, 78, 62
1, 225618, Note_on_c, 0, 76, 64
1, 225663, Note_off_c, 0, 76, 61
1, 225672, Note_off_c, 0, 62, 35
1, 225681, Note_on_c, 0, 78, 65
1, 225712, Note_off_c, 0, 78, 63
1, 225725, Note_on_c, 0, 76, 63
1, 225781, Note_off_c, 0, 76, 61
1, 225795, Note_on_c, 0, 78, 68
1, 225832, Note_off_c, 0, 78, 63
1, 225849, Note_on_c, 0, 76, 66
1, 225859, Control_c, 0, 67, 123
1, 225868, Note_on_c, 0, 67, 59
1, 225874, Control_c, 0, 67, 115
1, 225879, Note_on_c, 0, 61, 53
1, 225884, Note_on_c, 0, 57, 47
1, 225888, Control_c, 0, 67, 106
1, 225894, Note_off_c, 0, 76, 62
1, 225903, Control_c, 0, 67, 95
1, 225910, Note_on_c, 0, 78, 63
1, 225918, Control_c, 0, 67, 82
1, 225933, Control_c, 0, 67, 70
1, 225939, Note_off_c, 0, 78, 64
1, 225948, Control_c, 0, 67, 60
1, 225953, Note_on_c, 0, 76, 60
1, 225962, Control_c, 0, 67, 50
1, 225977, Control_c, 0, 67, 43
1, 225992, Control_c, 0, 67, 37
1, 225998, Note_off_c, 0, 76, 60
1, 226007, Control_c, 0, 67, 32
1, 226013, Note_on_c, 0, 78, 71
1, 226022, Control_c, 0, 67, 26
1, 226037, Control_c, 0, 67, 20
1, 226048, Note_off_c, 0, 78, 59
1, 226052, Control_c, 0, 67, 16
1, 226063, Note_on_c, 0, 76, 61
1, 226066, Control_c, 0, 67, 12
1, 226081, Control_c, 0, 67, 10
1, 226096, Control_c, 0, 67, 8
1, 226106, Note_off_c, 0, 76, 62
1, 226111, Control_c, 0, 67, 0
1, 226116, Note_on_c, 0, 78, 70
1, 226163, Note_off_c, 0, 78, 60
1, 226169, Note_on_c, 0, 76, 64
1, 226217, Note_off_c, 0, 76, 61
1, 226228, Note_on_c, 0, 78, 68
1, 226273, Note_off_c, 0, 78, 63
1, 226278, Note_on_c, 0, 76, 65
1, 226327, Note_off_c, 0, 76, 61
1, 226335, Note_on_c, 0, 78, 71
1, 226389, Note_off_c, 0, 78, 64
1, 226394, Note_on_c, 0, 76, 67
1, 226436, Note_off_c, 0, 76, 60
1, 226439, Note_on_c, 0, 78, 69
1, 226492, Note_off_c, 0, 78, 64
1, 226493, Note_on_c, 0, 76, 68
1, 226526, Note_off_c, 0, 61, 32
1, 226549, Note_off_c, 0, 76, 63
1, 226553, Note_on_c, 0, 78, 71
1, 226603, Note_off_c, 0, 78, 66
1, 226603, Note_on_c, 0, 76, 70
1, 226689, Note_off_c, 0, 76, 62
1, 226698, Note_on_c, 0, 74, 73
1, 226806, Note_off_c, 0, 74, 63
1, 226808, Note_on_c, 0, 76, 78
1, 226850, Note_off_c, 0, 57, 33
1, 226941, Note_on_c, 0, 74, 67
1, 226952, Note_off_c, 0, 67, 36
1, 226955, Note_off_c, 0, 76, 61
1, 226958, Note_on_c, 0, 62, 36
1, 226961, Note_on_c, 0, 66, 34
1, 227225, Note_on_c, 0, 73, 76
1, 227261, Note_off_c, 0, 74, 61
1, 227509, Note_on_c, 0, 74, 62
1, 227568, Note_off_c, 0, 73, 56
1, 227664, Note_off_c, 0, 66, 42
1, 227692, Note_off_c, 0, 62, 27
1, 227769, Note_on_c, 0, 76, 57
1, 227810, Note_off_c, 0, 74, 59
1, 228041, Note_on_c, 0, 74, 52
1, 228128, Note_off_c, 0, 76, 37
1, 228283, Control_c, 0, 67, 12
1, 228287, Note_on_c, 0, 72, 55
1, 228298, Control_c, 0, 67, 24
1, 228313, Control_c, 0, 67, 40
1, 228328, Control_c, 0, 67, 56
1, 228343, Control_c, 0, 67, 72
1, 228344, Note_off_c, 0, 74, 55
1, 228357, Control_c, 0, 67, 90
1, 228372, Control_c, 0, 67, 104
1, 228387, Control_c, 0, 67, 114
1, 228402, Control_c, 0, 67, 123
1, 228417, Control_c, 0, 67, 127
1, 228525, Note_on_c, 0, 71, 58
1, 228529, Note_off_c, 0, 72, 62
1, 228640, Control_c, 0, 64, 40
1, 228654, Control_c, 0, 64, 53
1, 228669, Control_c, 0, 64, 59
1, 228684, Control_c, 0, 64, 63
1, 228699, Control_c, 0, 64, 65
1, 228713, Control_c, 0, 64, 66
1, 228728, Control_c, 0, 64, 67
1, 228743, Control_c, 0, 64, 69
1, 228758, Control_c, 0, 64, 70
1, 228766, Note_on_c, 0, 70, 60
1, 228780, Control_c, 0, 64, 71
1, 228795, Control_c, 0, 64, 72
1, 228810, Control_c, 0, 64, 73
1, 228855, Note_off_c, 0, 71, 39
1, 228935, Note_off_c, 0, 70, 62
1, 228943, Control_c, 0, 64, 72
1, 228973, Control_c, 0, 64, 72
1, 228988, Control_c, 0, 64, 71
1, 229003, Control_c, 0, 64, 71
1, 229018, Control_c, 0, 64, 70
1, 229023, Note_on_c, 0, 71, 53
1, 229032, Control_c, 0, 64, 69
1, 229044, Note_on_c, 0, 55, 41
1, 229046, Note_on_c, 0, 62, 32
1, 229047, Control_c, 0, 64, 67
1, 229062, Control_c, 0, 64, 64
1, 229077, Control_c, 0, 64, 54
1, 229092, Control_c, 0, 64, 0
1, 229439, Note_on_c, 0, 74, 61
1, 229481, Note_off_c, 0, 71, 54
1, 229540, Note_on_c, 0, 72, 68
1, 229547, Note_on_c, 0, 57, 53
1, 229581, Note_off_c, 0, 55, 38
1, 229606, Note_off_c, 0, 74, 53
1, 229928, Note_on_c, 0, 71, 69
1, 229942, Note_off_c, 0, 57, 50
1, 229951, Note_on_c, 0, 55, 44
1, 229960, Note_off_c, 0, 72, 58
1, 230033, Note_on_c, 0, 69, 70
1, 230042, Note_on_c, 0, 54, 54
1, 230059, Note_off_c, 0, 71, 62
1, 230078, Note_off_c, 0, 55, 35
1, 230566, Note_on_c, 0, 55, 45
1, 230577, Note_on_c, 0, 71, 65
1, 230601, Note_off_c, 0, 69, 58
1, 230609, Note_off_c, 0, 54, 37
1, 230666, Note_off_c, 0, 62, 42
1, 230767, Control_c, 0, 64, 21
1, 230782, Control_c, 0, 64, 52
1, 230797, Control_c, 0, 64, 61
1, 230812, Control_c, 0, 64, 64
1, 230827, Control_c, 0, 64, 66
1, 230842, Control_c, 0, 64, 68
1, 230857, Control_c, 0, 64, 71
1, 230871, Control_c, 0, 64, 74
1, 230886, Control_c, 0, 64, 77
1, 230901, Control_c, 0, 64, 79
1, 230916, Control_c, 0, 64, 79
1, 230931, Control_c, 0, 64, 80
1, 230959, Note_off_c, 0, 71, 61
1, 231043, Control_c, 0, 64, 79
1, 231072, Control_c, 0, 64, 78
1, 231083, Note_on_c, 0, 62, 33
1, 231083, Note_on_c, 0, 72, 55
1, 231087, Control_c, 0, 64, 76
1, 231089, Note_on_c, 0, 57, 42
1, 231101, Control_c, 0, 64, 72
1, 231116, Control_c, 0, 64, 65
1, 231131, Control_c, 0, 64, 36
1, 231146, Control_c, 0, 64, 0
1, 231165, Note_off_c, 0, 55, 27
1, 231206, Control_c, 0, 64, 47
1, 231220, Control_c, 0, 64, 58
1, 231233, Note_off_c, 0, 72, 53
1, 231235, Control_c, 0, 64, 62
1, 231250, Control_c, 0, 64, 63
1, 231265, Control_c, 0, 64, 64
1, 231280, Control_c, 0, 64, 63
1, 231295, Control_c, 0, 64, 61
1, 231299, Note_on_c, 0, 74, 56
1, 231309, Control_c, 0, 64, 50
1, 231319, Note_off_c, 0, 57, 56
1, 231324, Control_c, 0, 64, 0
1, 231334, Note_off_c, 0, 74, 66
1, 231343, Note_on_c, 0, 72, 65
1, 231372, Note_off_c, 0, 72, 65
1, 231382, Note_on_c, 0, 71, 66
1, 231420, Note_off_c, 0, 71, 59
1, 231447, Note_on_c, 0, 72, 58
1, 231542, Note_off_c, 0, 72, 55
1, 231544, Note_on_c, 0, 76, 59
1, 231563, Note_on_c, 0, 60, 36
1, 231808, Note_on_c, 0, 74, 52
1, 231820, Note_off_c, 0, 60, 38
1, 231825, Note_on_c, 0, 59, 31
1, 231851, Note_off_c, 0, 76, 54
1, 232074, Note_on_c, 0, 72, 44
1, 232088, Note_off_c, 0, 59, 37
1, 232091, Note_on_c, 0, 57, 34
1, 232104, Note_off_c, 0, 74, 51
1, 232601, Note_off_c, 0, 57, 37
1, 232619, Note_on_c, 0, 55, 36
1, 232623, Note_on_c, 0, 71, 35
1, 232630, Note_off_c, 0, 72, 54
1, 232791, Control_c, 0, 67, 125
1, 232806, Control_c, 0, 67, 121
1, 232821, Control_c, 0, 67, 113
1, 232836, Control_c, 0, 67, 102
1, 232851, Control_c, 0, 67, 82
1, 232865, Control_c, 0, 67, 62
1, 232875, Note_off_c, 0, 71, 35
1, 232880, Control_c, 0, 67, 41
1, 232895, Control_c, 0, 67, 21
1, 232910, Control_c, 0, 67, 0
1, 232928, Note_off_c, 0, 62, 37
1, 232994, Note_off_c, 0, 55, 43
1, 233147, Note_on_c, 0, 72, 86
1, 233151, Note_on_c, 0, 67, 80
1, 233153, Note_on_c, 0, 64, 85
1, 233160, Note_on_c, 0, 52, 73
1, 233230, Note_off_c, 0, 52, 62
1, 233232, Note_off_c, 0, 64, 63
1, 233232, Note_off_c, 0, 67, 62
1, 233242, Note_off_c, 0, 72, 62
1, 233667, Note_on_c, 0, 62, 78
1, 233667, Note_on_c, 0, 71, 83
1, 233671, Note_on_c, 0, 67, 79
1, 233671, Note_on_c, 0, 50, 72
1, 233761, Note_off_c, 0, 50, 64
1, 233763, Note_off_c, 0, 62, 62
1, 233766, Note_off_c, 0, 67, 61
1, 233782, Note_off_c, 0, 71, 64
1, 234206, Note_on_c, 0, 76, 80
1, 234219, Note_on_c, 0, 60, 58
1, 234220, Note_on_c, 0, 67, 67
1, 234231, Note_on_c, 0, 48, 51
1, 234274, Control_c, 0, 64, 11
1, 234289, Control_c, 0, 64, 42
1, 234304, Control_c, 0, 64, 56
1, 234318, Control_c, 0, 64, 62
1, 234333, Control_c, 0, 64, 65
1, 234344, Note_off_c, 0, 48, 62
1, 234348, Control_c, 0, 64, 67
1, 234363, Control_c, 0, 64, 69
1, 234369, Note_off_c, 0, 60, 62
1, 234378, Control_c, 0, 64, 72
1, 234392, Control_c, 0, 64, 77
1, 234407, Control_c, 0, 64, 82
1, 234422, Control_c, 0, 64, 87
1, 234437, Control_c, 0, 64, 91
1, 234452, Control_c, 0, 64, 95
1, 234467, Control_c, 0, 64, 99
1, 234482, Control_c, 0, 64, 102
1, 234496, Control_c, 0, 64, 106
1, 234511, Control_c, 0, 64, 110
1, 234526, Control_c, 0, 64, 112
1, 234597, Note_off_c, 0, 67, 38
1, 234630, Control_c, 0, 64, 111
1, 234644, Control_c, 0, 64, 108
1, 234644, Control_c, 0, 67, 17
1, 234659, Control_c, 0, 64, 105
1, 234659, Control_c, 0, 67, 36
1, 234674, Control_c, 0, 64, 101
1, 234674, Control_c, 0, 67, 57
1, 234689, Control_c, 0, 64, 98
1, 234689, Control_c, 0, 67, 78
1, 234704, Control_c, 0, 64, 95
1, 234704, Control_c, 0, 67, 98
1, 234718, Control_c, 0, 64, 92
1, 234718, Control_c, 0, 67, 117
1, 234733, Control_c, 0, 64, 88
1, 234733, Control_c, 0, 67, 127
1, 234748, Control_c, 0, 64, 84
1, 234771, Control_c, 0, 64, 80
1, 234786, Control_c, 0, 64, 76
1, 234800, Control_c, 0, 64, 71
1, 234815, Control_c, 0, 64, 66
1, 234816, Note_off_c, 0, 76, 28
1, 234830, Control_c, 0, 64, 49
1, 234844, Control_c, 0, 64, 0
1, 235110, Note_on_c, 0, 74, 53
1, 235131, Note_on_c, 0, 59, 32
1, 235149, Note_on_c, 0, 67, 27
1, 235221, Note_off_c, 0, 74, 58
1, 235358, Note_on_c, 0, 72, 60
1, 235372, Note_on_c, 0, 54, 40
1, 235447, Note_off_c, 0, 59, 36
1, 235454, Note_off_c, 0, 67, 41
1, 235620, Note_on_c, 0, 69, 61
1, 235709, Note_off_c, 0, 72, 52
1, 235854, Note_off_c, 0, 54, 45
1, 235858, Note_on_c, 0, 71, 65
1, 235868, Note_on_c, 0, 55, 42
1, 235886, Note_off_c, 0, 69, 55
1, 235994, Control_c, 0, 64, 36
1, 236009, Control_c, 0, 64, 51
1, 236024, Control_c, 0, 64, 59
1, 236038, Control_c, 0, 64, 64
1, 236053, Control_c, 0, 64, 67
1, 236068, Control_c, 0, 64, 69
1, 236082, Control_c, 0, 64, 71
1, 236088, Note_off_c, 0, 71, 56
1, 236097, Control_c, 0, 64, 73
1, 236100, Note_on_c, 0, 67, 59
1, 236112, Control_c, 0, 64, 75
1, 236127, Control_c, 0, 64, 76
1, 236142, Control_c, 0, 64, 77
1, 236157, Control_c, 0, 64, 78
1, 236172, Control_c, 0, 64, 78
1, 236174, Note_off_c, 0, 55, 36
1, 236184, Note_off_c, 0, 67, 54
1, 236312, Control_c, 0, 64, 78
1, 236327, Control_c, 0, 64, 77
1, 236342, Control_c, 0, 64, 76
1, 236357, Control_c, 0, 64, 75
1, 236361, Note_on_c, 0, 71, 55
1, 236371, Control_c, 0, 64, 73
1, 236380, Note_on_c, 0, 55, 34
1, 236383, Note_on_c, 0, 50, 34
1, 236386, Control_c, 0, 64, 70
1, 236401, Control_c, 0, 64, 65
1, 236416, Control_c, 0, 64, 46
1, 236431, Control_c, 0, 64, 0
1, 236860, Note_off_c, 0, 55, 37
1, 236873, Note_off_c, 0, 71, 59
1, 236908, Note_on_c, 0, 54, 38
1, 236908, Note_on_c, 0, 69, 47
1, 237046, Control_c, 0, 64, 26
1, 237061, Control_c, 0, 64, 47
1, 237076, Control_c, 0, 64, 55
1, 237091, Control_c, 0, 64, 60
1, 237106, Control_c, 0, 64, 62
1, 237120, Control_c, 0, 64, 64
1, 237135, Control_c, 0, 64, 65
1, 237141, Note_off_c, 0, 50, 48
1, 237150, Control_c, 0, 64, 67
1, 237152, Note_off_c, 0, 54, 49
1, 237165, Control_c, 0, 64, 68
1, 237180, Control_c, 0, 64, 69
1, 237194, Control_c, 0, 64, 70
1, 237209, Control_c, 0, 64, 71
1, 237224, Control_c, 0, 64, 71
1, 237239, Control_c, 0, 67, 123
1, 237254, Control_c, 0, 67, 114
1, 237269, Control_c, 0, 67, 101
1, 237284, Control_c, 0, 67, 82
1, 237298, Control_c, 0, 67, 61
1, 237313, Control_c, 0, 67, 42
1, 237328, Control_c, 0, 67, 28
1, 237343, Control_c, 0, 67, 12
1, 237358, Control_c, 0, 67, 0
1, 237376, Note_off_c, 0, 69, 36
1, 237388, Control_c, 0, 64, 70
1, 237403, Control_c, 0, 64, 69
1, 237409, Note_on_c, 0, 71, 62
1, 237418, Control_c, 0, 64, 69
1, 237424, Note_on_c, 0, 62, 41
1, 237424, Note_on_c, 0, 55, 43
1, 237507, Note_off_c, 0, 71, 60
1, 237522, Control_c, 0, 64, 68
1, 237551, Control_c, 0, 64, 68
1, 237566, Control_c, 0, 64, 67
1, 237581, Control_c, 0, 64, 66
1, 237596, Control_c, 0, 64, 65
1, 237610, Control_c, 0, 64, 64
1, 237617, Note_on_c, 0, 72, 54
1, 237625, Control_c, 0, 64, 63
1, 237640, Control_c, 0, 64, 63
1, 237654, Control_c, 0, 64, 62
1, 237656, Note_on_c, 0, 71, 59
1, 237656, Note_off_c, 0, 72, 63
1, 237669, Control_c, 0, 64, 62
1, 237684, Control_c, 0, 64, 61
1, 237686, Note_off_c, 0, 71, 68
1, 237699, Control_c, 0, 64, 60
1, 237704, Note_on_c, 0, 69, 65
1, 237714, Control_c, 0, 64, 59
1, 237728, Control_c, 0, 64, 58
1, 237743, Control_c, 0, 64, 58
1, 237762, Note_off_c, 0, 69, 58
1, 237763, Note_off_c, 0, 55, 33
1, 237781, Control_c, 0, 64, 57
1, 237785, Note_on_c, 0, 71, 63
1, 237796, Control_c, 0, 64, 57
1, 237810, Control_c, 0, 64, 56
1, 237839, Note_on_c, 0, 59, 46
1, 237840, Control_c, 0, 64, 55
1, 237855, Control_c, 0, 64, 54
1, 237856, Note_on_c, 0, 74, 60
1, 237869, Control_c, 0, 64, 51
1, 237883, Note_off_c, 0, 71, 55
1, 237884, Control_c, 0, 64, 41
1, 237899, Control_c, 0, 64, 0
1, 237913, Note_on_c, 0, 72, 60
1, 237924, Note_on_c, 0, 57, 52
1, 237944, Note_off_c, 0, 74, 62
1, 237947, Note_off_c, 0, 59, 38
1, 238275, Note_on_c, 0, 71, 68
1, 238297, Note_on_c, 0, 55, 48
1, 238300, Note_off_c, 0, 57, 37
1, 238336, Note_off_c, 0, 72, 51
1, 238373, Note_on_c, 0, 69, 71
1, 238396, Note_on_c, 0, 54, 52
1, 238401, Note_off_c, 0, 71, 63
1, 238440, Note_off_c, 0, 55, 54
1, 238886, Note_on_c, 0, 71, 68
1, 238905, Note_on_c, 0, 56, 48
1, 239005, Note_off_c, 0, 54, 35
1, 239042, Note_off_c, 0, 69, 41
1, 239154, Note_off_c, 0, 62, 31
1, 239460, Note_on_c, 0, 72, 52
1, 239495, Note_on_c, 0, 62, 32
1, 239503, Note_on_c, 0, 57, 31
1, 239546, Note_off_c, 0, 71, 51
1, 239552, Note_off_c, 0, 56, 40
1, 239855, Note_on_c, 0, 73, 53
1, 239887, Note_off_c, 0, 72, 55
1, 240113, Note_on_c, 0, 54, 35
1, 240118, Note_on_c, 0, 76, 51
1, 240128, Note_off_c, 0, 73, 59
1, 240172, Note_off_c, 0, 57, 40
1, 240351, Note_on_c, 0, 74, 53
1, 240399, Note_off_c, 0, 76, 48
1, 240442, Control_c, 0, 67, 13
1, 240456, Control_c, 0, 67, 21
1, 240471, Control_c, 0, 67, 28
1, 240486, Control_c, 0, 67, 34
1, 240501, Control_c, 0, 67, 40
1, 240516, Control_c, 0, 67, 46
1, 240532, Control_c, 0, 67, 54
1, 240546, Control_c, 0, 67, 62
1, 240561, Control_c, 0, 67, 71
1, 240576, Control_c, 0, 67, 80
1, 240591, Control_c, 0, 67, 90
1, 240599, Note_on_c, 0, 72, 52
1, 240603, Note_on_c, 0, 55, 34
1, 240604, Note_off_c, 0, 54, 41
1, 240606, Control_c, 0, 67, 98
1, 240621, Control_c, 0, 67, 107
1, 240633, Note_off_c, 0, 74, 63
1, 240635, Control_c, 0, 67, 118
1, 240650, Control_c, 0, 67, 127
1, 241012, Note_off_c, 0, 72, 61
1, 241051, Note_on_c, 0, 74, 47
1, 241090, Note_off_c, 0, 74, 65
1, 241114, Note_on_c, 0, 72, 51
1, 241168, Note_off_c, 0, 72, 60
1, 241191, Note_on_c, 0, 71, 52
1, 241301, Note_off_c, 0, 62, 37
1, 241428, Control_c, 0, 67, 127
1, 241443, Control_c, 0, 67, 123
1, 241458, Control_c, 0, 67, 115
1, 241473, Control_c, 0, 67, 104
1, 241488, Control_c, 0, 67, 89
1, 241510, Control_c, 0, 67, 71
1, 241525, Control_c, 0, 67, 50
1, 241540, Control_c, 0, 67, 28
1, 241555, Control_c, 0, 67, 11
1, 241570, Control_c, 0, 67, 0
1, 241582, Note_off_c, 0, 71, 39
1, 241641, Note_off_c, 0, 55, 43
1, 241725, Note_on_c, 0, 64, 81
1, 241728, Note_on_c, 0, 67, 79
1, 241728, Note_on_c, 0, 72, 83
1, 241730, Note_on_c, 0, 52, 72
1, 241826, Note_off_c, 0, 52, 61
1, 241833, Note_off_c, 0, 67, 61
1, 241839, Note_off_c, 0, 64, 64
1, 241842, Note_off_c, 0, 72, 63
1, 242260, Note_on_c, 0, 62, 71
1, 242260, Note_on_c, 0, 71, 79
1, 242264, Note_on_c, 0, 50, 65
1, 242264, Note_on_c, 0, 67, 76
1, 242355, Note_off_c, 0, 50, 64
1, 242366, Note_off_c, 0, 62, 61
1, 242375, Note_off_c, 0, 67, 57
1, 242384, Note_off_c, 0, 71, 63
1, 242733, Control_c, 0, 64, 34
1, 242748, Control_c, 0, 64, 49
1, 242763, Control_c, 0, 64, 58
1, 242777, Control_c, 0, 64, 62
1, 242792, Control_c, 0, 64, 64
1, 242807, Control_c, 0, 64, 65
1, 242815, Note_on_c, 0, 76, 73
1, 242822, Control_c, 0, 64, 67
1, 242833, Note_on_c, 0, 67, 59
1, 242837, Control_c, 0, 64, 70
1, 242841, Note_on_c, 0, 60, 60
1, 242850, Note_on_c, 0, 48, 57
1, 242852, Control_c, 0, 64, 72
1, 242867, Control_c, 0, 64, 76
1, 242882, Control_c, 0, 64, 79
1, 242897, Control_c, 0, 64, 83
1, 242912, Control_c, 0, 64, 87
1, 242926, Note_off_c, 0, 60, 60
1, 242927, Control_c, 0, 64, 90
1, 242928, Note_off_c, 0, 48, 61
1, 242942, Control_c, 0, 64, 92
1, 242956, Control_c, 0, 64, 95
1, 242971, Control_c, 0, 64, 96
1, 242986, Control_c, 0, 64, 97
1, 243009, Note_off_c, 0, 67, 45
1, 243058, Note_off_c, 0, 76, 53
1, 243096, Control_c, 0, 64, 97
1, 243111, Control_c, 0, 64, 96
1, 243126, Control_c, 0, 64, 94
1, 243126, Control_c, 0, 67, 11
1, 243141, Control_c, 0, 64, 91
1, 243141, Control_c, 0, 67, 21
1, 243156, Control_c, 0, 64, 88
1, 243156, Control_c, 0, 67, 35
1, 243171, Control_c, 0, 64, 86
1, 243171, Control_c, 0, 67, 55
1, 243186, Control_c, 0, 64, 84
1, 243186, Control_c, 0, 67, 76
1, 243200, Control_c, 0, 64, 82
1, 243200, Control_c, 0, 67, 97
1, 243215, Control_c, 0, 64, 79
1, 243215, Control_c, 0, 67, 116
1, 243230, Control_c, 0, 64, 75
1, 243230, Control_c, 0, 67, 127
1, 243245, Control_c, 0, 64, 71
1, 243251, Note_on_c, 0, 78, 56
1, 243260, Control_c, 0, 64, 65
1, 243274, Control_c, 0, 64, 50
1, 243289, Control_c, 0, 64, 0
1, 243550, Note_on_c, 0, 79, 57
1, 243593, Note_off_c, 0, 78, 50
1, 243818, Note_on_c, 0, 72, 50
1, 243844, Note_on_c, 0, 67, 27
1, 243857, Note_on_c, 0, 64, 32
1, 243874, Note_off_c, 0, 79, 38
1, 243923, Note_off_c, 0, 67, 52
1, 244065, Note_off_c, 0, 64, 43
1, 244100, Note_on_c, 0, 67, 36
1, 244102, Note_on_c, 0, 71, 48
1, 244104, Note_off_c, 0, 72, 55
1, 244116, Note_on_c, 0, 62, 34
1, 244275, Control_c, 0, 64, 34
1, 244290, Control_c, 0, 64, 50
1, 244304, Control_c, 0, 64, 57
1, 244319, Control_c, 0, 64, 62
1, 244334, Control_c, 0, 64, 65
1, 244348, Control_c, 0, 64, 66
1, 244363, Control_c, 0, 64, 68
1, 244378, Control_c, 0, 64, 70
1, 244393, Control_c, 0, 64, 71
1, 244408, Control_c, 0, 64, 72
1, 244423, Control_c, 0, 64, 73
1, 244438, Control_c, 0, 64, 74
1, 244453, Control_c, 0, 64, 75
1, 244482, Note_off_c, 0, 71, 60
1, 244608, Control_c, 0, 64, 74
1, 244620, Note_on_c, 0, 71, 53
1, 244638, Control_c, 0, 64, 73
1, 244652, Note_off_c, 0, 71, 66
1, 244652, Control_c, 0, 64, 72
1, 244655, Note_on_c, 0, 66, 38
1, 244657, Note_off_c, 0, 67, 46
1, 244667, Control_c, 0, 64, 69
1, 244682, Note_on_c, 0, 69, 51
1, 244682, Control_c, 0, 64, 65
1, 244697, Control_c, 0, 64, 50
1, 244712, Control_c, 0, 64, 0
1, 244718, Note_off_c, 0, 69, 65
1, 244745, Note_on_c, 0, 71, 57
1, 244774, Note_off_c, 0, 71, 68
1, 244795, Note_on_c, 0, 69, 55
1, 244824, Note_off_c, 0, 69, 64
1, 244845, Note_on_c, 0, 71, 66
1, 244874, Note_off_c, 0, 71, 65
1, 244888, Note_off_c, 0, 62, 52
1, 244895, Note_on_c, 0, 69, 61
1, 244929, Note_off_c, 0, 69, 63
1, 244942, Note_off_c, 0, 66, 61
1, 244953, Note_on_c, 0, 71, 58
1, 244980, Note_off_c, 0, 71, 68
1, 245003, Note_on_c, 0, 69, 53
1, 245034, Note_off_c, 0, 69, 66
1, 245055, Note_on_c, 0, 67, 55
1, 245088, Note_off_c, 0, 67, 64
1, 245113, Note_on_c, 0, 69, 52
1, 245160, Note_off_c, 0, 69, 59
1, 245185, Note_on_c, 0, 67, 49
1, 245205, Note_on_c, 0, 55, 34
1, 245312, Control_c, 0, 64, 39
1, 245328, Control_c, 0, 64, 54
1, 245343, Control_c, 0, 64, 62
1, 245357, Control_c, 0, 64, 64
1, 245372, Control_c, 0, 64, 66
1, 245387, Control_c, 0, 64, 67
1, 245402, Control_c, 0, 64, 70
1, 245417, Control_c, 0, 64, 73
1, 245431, Control_c, 0, 64, 77
1, 245446, Control_c, 0, 64, 81
1, 245461, Control_c, 0, 64, 84
1, 245475, Note_on_c, 0, 59, 34
1, 245475, Control_c, 0, 64, 87
1, 245490, Control_c, 0, 64, 89
1, 245505, Control_c, 0, 64, 92
1, 245508, Note_off_c, 0, 67, 40
1, 245520, Control_c, 0, 64, 95
1, 245535, Control_c, 0, 64, 99
1, 245550, Control_c, 0, 64, 102
1, 245565, Control_c, 0, 64, 105
1, 245579, Control_c, 0, 64, 108
1, 245594, Control_c, 0, 64, 111
1, 245609, Control_c, 0, 64, 114
1, 245624, Control_c, 0, 64, 116
1, 245639, Control_c, 0, 64, 117
1, 245654, Control_c, 0, 64, 117
1, 245668, Control_c, 0, 64, 118
1, 245683, Control_c, 0, 64, 119
1, 245683, Control_c, 0, 67, 125
1, 245698, Control_c, 0, 64, 119
1, 245698, Control_c, 0, 67, 120
1, 245713, Control_c, 0, 67, 113
1, 245728, Control_c, 0, 64, 120
1, 245728, Control_c, 0, 67, 100
1, 245728, Note_on_c, 0, 62, 34
1, 245742, Control_c, 0, 67, 86
1, 245757, Control_c, 0, 67, 71
1, 245770, Note_off_c, 0, 59, 40
1, 245772, Control_c, 0, 67, 54
1, 245787, Control_c, 0, 67, 40
1, 245801, Control_c, 0, 67, 26
1, 245816, Control_c, 0, 67, 10
1, 245831, Control_c, 0, 67, 0
1, 245849, Note_off_c, 0, 62, 34
1, 245985, Note_on_c, 0, 59, 43
1, 246066, Note_off_c, 0, 59, 44
1, 246164, Note_off_c, 0, 55, 41
1, 246166, Control_c, 0, 64, 119
1, 246313, Control_c, 0, 64, 119
1, 246328, Control_c, 0, 64, 118
1, 246335, Note_on_c, 0, 71, 62
1, 246343, Control_c, 0, 64, 117
1, 246358, Control_c, 0, 64, 116
1, 246372, Control_c, 0, 64, 114
1, 246387, Control_c, 0, 64, 113
1, 246402, Control_c, 0, 64, 111
1, 246405, Note_on_c, 0, 48, 39
1, 246417, Control_c, 0, 64, 109
1, 246432, Control_c, 0, 64, 107
1, 246447, Control_c, 0, 64, 105
1, 246462, Control_c, 0, 64, 103
1, 246477, Control_c, 0, 64, 100
1, 246491, Control_c, 0, 64, 98
1, 246506, Control_c, 0, 64, 95
1, 246521, Control_c, 0, 64, 93
1, 246536, Control_c, 0, 64, 90
1, 246551, Control_c, 0, 64, 86
1, 246565, Control_c, 0, 64, 81
1, 246580, Control_c, 0, 64, 76
1, 246595, Control_c, 0, 64, 70
1, 246610, Control_c, 0, 64, 64
1, 246624, Control_c, 0, 64, 38
1, 246639, Control_c, 0, 64, 0
1, 246727, Note_on_c, 0, 69, 54
1, 246761, Note_on_c, 0, 52, 33
1, 246817, Note_off_c, 0, 71, 62
1, 246974, Control_c, 0, 64, 31
1, 246988, Control_c, 0, 64, 52
1, 246993, Note_on_c, 0, 57, 36
1, 247003, Control_c, 0, 64, 61
1, 247018, Control_c, 0, 64, 65
1, 247033, Control_c, 0, 64, 67
1, 247042, Note_off_c, 0, 52, 40
1, 247047, Control_c, 0, 64, 70
1, 247062, Control_c, 0, 64, 72
1, 247077, Control_c, 0, 64, 75
1, 247092, Control_c, 0, 64, 78
1, 247107, Control_c, 0, 64, 82
1, 247121, Control_c, 0, 64, 87
1, 247136, Control_c, 0, 64, 92
1, 247151, Control_c, 0, 64, 96
1, 247165, Control_c, 0, 64, 100
1, 247180, Control_c, 0, 64, 103
1, 247195, Control_c, 0, 64, 106
1, 247210, Control_c, 0, 64, 108
1, 247225, Control_c, 0, 64, 111
1, 247240, Control_c, 0, 64, 112
1, 247242, Note_on_c, 0, 52, 43
1, 247255, Control_c, 0, 64, 113
1, 247304, Note_off_c, 0, 57, 41
1, 247312, Note_off_c, 0, 48, 41
1, 247433, Control_c, 0, 64, 112
1, 247447, Control_c, 0, 64, 111
1, 247462, Control_c, 0, 64, 110
1, 247477, Control_c, 0, 64, 108
1, 247499, Control_c, 0, 64, 106
1, 247500, Note_on_c, 0, 67, 53
1, 247514, Control_c, 0, 64, 104
1, 247529, Control_c, 0, 64, 101
1, 247529, Note_on_c, 0, 50, 38
1, 247537, Note_off_c, 0, 52, 24
1, 247544, Control_c, 0, 64, 98
1, 247559, Control_c, 0, 64, 96
1, 247573, Control_c, 0, 64, 93
1, 247588, Control_c, 0, 64, 88
1, 247603, Control_c, 0, 64, 80
1, 247618, Control_c, 0, 64, 69
1, 247622, Note_off_c, 0, 69, 50
1, 247633, Control_c, 0, 64, 49
1, 247647, Control_c, 0, 64, 0
1, 247677, Control_c, 0, 64, 19
1, 247692, Control_c, 0, 64, 54
1, 247707, Control_c, 0, 64, 63
1, 247723, Control_c, 0, 64, 66
1, 247738, Control_c, 0, 64, 69
1, 247750, Note_on_c, 0, 66, 64
1, 247752, Control_c, 0, 64, 72
1, 247767, Control_c, 0, 64, 76
1, 247782, Control_c, 0, 64, 80
1, 247783, Note_on_c, 0, 60, 48
1, 247796, Control_c, 0, 64, 86
1, 247811, Control_c, 0, 64, 93
1, 247821, Note_off_c, 0, 67, 48
1, 247826, Control_c, 0, 64, 99
1, 247841, Control_c, 0, 64, 104
1, 247856, Control_c, 0, 64, 111
1, 247870, Control_c, 0, 64, 118
1, 247885, Control_c, 0, 64, 127
1, 247909, Note_off_c, 0, 66, 55
1, 248008, Note_on_c, 0, 66, 80
1, 248016, Note_on_c, 0, 57, 52
1, 248049, Note_off_c, 0, 60, 38
1, 248256, Note_on_c, 0, 62, 80
1, 248259, Note_on_c, 0, 60, 50
1, 248264, Note_off_c, 0, 57, 37
1, 248295, Note_off_c, 0, 66, 59
1, 248367, Control_c, 0, 64, 124
1, 248381, Control_c, 0, 64, 122
1, 248396, Control_c, 0, 64, 119
1, 248411, Control_c, 0, 64, 118
1, 248426, Control_c, 0, 64, 116
1, 248441, Control_c, 0, 64, 114
1, 248456, Control_c, 0, 64, 112
1, 248470, Control_c, 0, 64, 110
1, 248485, Control_c, 0, 64, 107
1, 248500, Control_c, 0, 64, 104
1, 248516, Control_c, 0, 64, 101
1, 248525, Note_on_c, 0, 74, 74
1, 248531, Control_c, 0, 64, 98
1, 248545, Control_c, 0, 64, 95
1, 248547, Note_off_c, 0, 60, 36
1, 248555, Note_on_c, 0, 55, 43
1, 248560, Control_c, 0, 64, 91
1, 248575, Control_c, 0, 64, 86
1, 248590, Control_c, 0, 64, 81
1, 248597, Note_off_c, 0, 50, 34
1, 248605, Control_c, 0, 64, 76
1, 248619, Control_c, 0, 64, 69
1, 248634, Control_c, 0, 64, 61
1, 248636, Note_off_c, 0, 62, 40
1, 248649, Control_c, 0, 64, 0
1, 248769, Note_on_c, 0, 59, 46
1, 248841, Control_c, 0, 64, 11
1, 248856, Control_c, 0, 64, 56
1, 248871, Control_c, 0, 64, 64
1, 248885, Control_c, 0, 64, 67
1, 248900, Control_c, 0, 64, 70
1, 248915, Control_c, 0, 64, 73
1, 248930, Control_c, 0, 64, 76
1, 248945, Control_c, 0, 64, 81
1, 248960, Control_c, 0, 64, 86
1, 248975, Control_c, 0, 64, 91
1, 248997, Control_c, 0, 64, 95
1, 249012, Control_c, 0, 64, 98
1, 249024, Note_on_c, 0, 62, 42
1, 249026, Control_c, 0, 64, 100
1, 249039, Note_off_c, 0, 59, 28
1, 249041, Control_c, 0, 64, 102
1, 249056, Control_c, 0, 64, 103
1, 249071, Control_c, 0, 64, 104
1, 249086, Control_c, 0, 64, 105
1, 249115, Control_c, 0, 64, 105
1, 249249, Note_off_c, 0, 62, 29
1, 249252, Note_on_c, 0, 59, 45
1, 249328, Note_off_c, 0, 55, 39
1, 249368, Control_c, 0, 64, 105
1, 249398, Control_c, 0, 64, 104
1, 249428, Control_c, 0, 64, 103
1, 249440, Note_off_c, 0, 59, 33
1, 249442, Control_c, 0, 64, 103
1, 249457, Control_c, 0, 64, 102
1, 249472, Control_c, 0, 64, 101
1, 249487, Control_c, 0, 64, 100
1, 249497, Note_on_c, 0, 67, 53
1, 249498, Note_on_c, 0, 52, 43
1, 249502, Control_c, 0, 64, 98
1, 249516, Control_c, 0, 64, 95
1, 249517, Note_off_c, 0, 74, 48
1, 249531, Control_c, 0, 64, 91
1, 249546, Control_c, 0, 64, 85
1, 249560, Control_c, 0, 64, 79
1, 249575, Control_c, 0, 64, 72
1, 249590, Control_c, 0, 64, 60
1, 249605, Control_c, 0, 64, 0
1, 249634, Control_c, 0, 67, 8
1, 249649, Control_c, 0, 67, 18
1, 249664, Control_c, 0, 67, 37
1, 249679, Control_c, 0, 67, 62
1, 249694, Control_c, 0, 67, 87
1, 249708, Control_c, 0, 67, 111
1, 249723, Control_c, 0, 67, 127
1, 249738, Note_on_c, 0, 55, 47
1, 249775, Control_c, 0, 64, 54
1, 249790, Control_c, 0, 64, 63
1, 249805, Control_c, 0, 64, 67
1, 249820, Control_c, 0, 64, 70
1, 249835, Control_c, 0, 64, 74
1, 249849, Control_c, 0, 64, 79
1, 249864, Control_c, 0, 64, 83
1, 249879, Control_c, 0, 64, 86
1, 249894, Control_c, 0, 64, 87
1, 249909, Control_c, 0, 64, 87
1, 249923, Control_c, 0, 64, 88
1, 249952, Note_off_c, 0, 67, 57
1, 249992, Note_on_c, 0, 59, 44
1, 250043, Note_off_c, 0, 55, 31
1, 250070, Note_on_c, 0, 67, 56
1, 250107, Note_off_c, 0, 67, 62
1, 250132, Note_on_c, 0, 69, 57
1, 250176, Note_off_c, 0, 69, 61
1, 250194, Note_on_c, 0, 55, 34
1, 250199, Note_on_c, 0, 67, 57
1, 250206, Control_c, 0, 64, 87
1, 250232, Note_off_c, 0, 67, 63
1, 250235, Note_off_c, 0, 55, 52
1, 250236, Control_c, 0, 64, 87
1, 250248, Note_on_c, 0, 69, 53
1, 250280, Control_c, 0, 64, 86
1, 250289, Note_off_c, 0, 69, 62
1, 250296, Note_off_c, 0, 52, 40
1, 250307, Note_on_c, 0, 67, 60
1, 250310, Control_c, 0, 64, 86
1, 250354, Control_c, 0, 64, 85
1, 250369, Control_c, 0, 64, 84
1, 250383, Control_c, 0, 64, 83
1, 250398, Control_c, 0, 64, 82
1, 250407, Note_off_c, 0, 59, 40
1, 250413, Control_c, 0, 64, 81
1, 250428, Control_c, 0, 64, 79
1, 250443, Control_c, 0, 64, 77
1, 250455, Note_on_c, 0, 71, 60
1, 250457, Control_c, 0, 64, 74
1, 250471, Note_on_c, 0, 48, 39
1, 250472, Control_c, 0, 64, 68
1, 250491, Note_off_c, 0, 67, 38
1, 250495, Control_c, 0, 64, 61
1, 250510, Control_c, 0, 64, 0
1, 250783, Note_on_c, 0, 69, 59
1, 250798, Note_on_c, 0, 52, 35
1, 250825, Note_off_c, 0, 71, 61
1, 250850, Control_c, 0, 64, 19
1, 250865, Control_c, 0, 64, 38
1, 250879, Control_c, 0, 64, 50
1, 250894, Control_c, 0, 64, 57
1, 250909, Control_c, 0, 64, 63
1, 250925, Control_c, 0, 64, 66
1, 250931, Note_off_c, 0, 69, 59
1, 250940, Control_c, 0, 64, 68
1, 250955, Control_c, 0, 64, 69
1, 250969, Control_c, 0, 64, 71
1, 250984, Control_c, 0, 64, 74
1, 250999, Control_c, 0, 64, 76
1, 251014, Note_off_c, 0, 52, 40
1, 251014, Control_c, 0, 64, 78
1, 251018, Note_on_c, 0, 69, 55
1, 251029, Control_c, 0, 64, 79
1, 251037, Note_on_c, 0, 57, 33
1, 251043, Control_c, 0, 64, 81
1, 251058, Control_c, 0, 64, 83
1, 251073, Control_c, 0, 64, 84
1, 251088, Control_c, 0, 64, 85
1, 251103, Control_c, 0, 64, 86
1, 251118, Note_off_c, 0, 69, 48
1, 251262, Note_on_c, 0, 52, 38
1, 251288, Note_off_c, 0, 57, 34
1, 251309, Note_off_c, 0, 48, 37
1, 251333, Control_c, 0, 64, 85
1, 251392, Control_c, 0, 64, 85
1, 251394, Note_off_c, 0, 52, 34
1, 251421, Control_c, 0, 64, 84
1, 251451, Control_c, 0, 64, 84
1, 251481, Control_c, 0, 64, 83
1, 251495, Control_c, 0, 64, 83
1, 251510, Control_c, 0, 64, 82
1, 251511, Note_on_c, 0, 67, 49
1, 251521, Note_on_c, 0, 50, 36
1, 251525, Control_c, 0, 64, 81
1, 251539, Control_c, 0, 64, 80
1, 251554, Control_c, 0, 64, 78
1, 251569, Control_c, 0, 64, 75
1, 251584, Control_c, 0, 64, 72
1, 251599, Control_c, 0, 64, 68
1, 251613, Control_c, 0, 64, 62
1, 251628, Control_c, 0, 64, 38
1, 251643, Control_c, 0, 64, 0
1, 251762, Note_on_c, 0, 66, 55
1, 251771, Note_off_c, 0, 67, 56
1, 251777, Note_on_c, 0, 60, 33
1, 251857, Note_off_c, 0, 66, 52
1, 252014, Note_off_c, 0, 60, 37
1, 252016, Note_on_c, 0, 66, 41
1, 252021, Note_on_c, 0, 57, 35
1, 252223, Note_off_c, 0, 50, 42
1, 252225, Note_off_c, 0, 66, 52
1, 252234, Note_off_c, 0, 57, 37
1, 252266, Note_on_c, 0, 62, 41
1, 252269, Note_on_c, 0, 60, 29
1, 252542, Note_off_c, 0, 60, 42
1, 252542, Note_off_c, 0, 62, 47
1, 252580, Note_on_c, 0, 67, 33
1, 252588, Note_on_c, 0, 55, 31
1, 252596, Note_on_c, 0, 59, 26
1, 253082, Control_c, 0, 64, 11
1, 253097, Control_c, 0, 64, 45
1, 253112, Control_c, 0, 64, 58
1, 253112, Control_c, 0, 67, 123
1, 253127, Control_c, 0, 64, 64
1, 253127, Control_c, 0, 67, 107
1, 253142, Control_c, 0, 64, 67
1, 253142, Control_c, 0, 67, 82
1, 253157, Control_c, 0, 64, 69
1, 253157, Control_c, 0, 67, 52
1, 253172, Control_c, 0, 64, 73
1, 253172, Control_c, 0, 67, 20
1, 253186, Control_c, 0, 64, 76
1, 253186, Control_c, 0, 67, 0
1, 253201, Control_c, 0, 64, 79
1, 253216, Control_c, 0, 64, 81
1, 253231, Control_c, 0, 64, 81
1, 253246, Control_c, 0, 64, 82
1, 253299, Note_off_c, 0, 67, 37
1, 253382, Note_off_c, 0, 59, 23
1, 253386, Note_off_c, 0, 55, 37
1, 253395, Control_c, 0, 64, 81
1, 253409, Control_c, 0, 64, 81
1, 253424, Control_c, 0, 64, 80
1, 253439, Control_c, 0, 64, 79
1, 253454, Control_c, 0, 64, 77
1, 253469, Control_c, 0, 64, 76
1, 253491, Control_c, 0, 64, 74
1, 253506, Control_c, 0, 64, 71
1, 253521, Control_c, 0, 64, 68
1, 253535, Control_c, 0, 64, 63
1, 253550, Control_c, 0, 64, 42
1, 253565, Control_c, 0, 64, 0
1, 253682, Control_c, 0, 64, 42
1, 253697, Control_c, 0, 64, 61
1, 253699, Note_on_c, 0, 79, 81
1, 253703, Note_on_c, 0, 63, 71
1, 253704, Note_on_c, 0, 51, 71
1, 253704, Note_on_c, 0, 67, 76
1, 253704, Note_on_c, 0, 73, 77
1, 253712, Control_c, 0, 64, 67
1, 253727, Control_c, 0, 64, 73
1, 253741, Control_c, 0, 64, 79
1, 253753, Note_off_c, 0, 67, 57
1, 253756, Control_c, 0, 64, 86
1, 253762, Note_off_c, 0, 63, 60
1, 253765, Note_off_c, 0, 51, 63
1, 253768, Note_off_c, 0, 79, 61
1, 253770, Note_off_c, 0, 73, 61
1, 253771, Control_c, 0, 64, 92
1, 253786, Control_c, 0, 64, 97
1, 253801, Control_c, 0, 64, 101
1, 253816, Control_c, 0, 64, 103
1, 253831, Control_c, 0, 64, 104
1, 253845, Control_c, 0, 64, 104
1, 254187, Control_c, 0, 64, 100
1, 254202, Control_c, 0, 64, 92
1, 254217, Control_c, 0, 64, 80
1, 254218, Note_on_c, 0, 63, 75
1, 254219, Note_on_c, 0, 51, 74
1, 254224, Note_on_c, 0, 79, 84
1, 254226, Note_on_c, 0, 73, 78
1, 254227, Note_on_c, 0, 67, 77
1, 254239, Control_c, 0, 64, 70
1, 254254, Control_c, 0, 64, 62
1, 254284, Control_c, 0, 64, 67
1, 254299, Control_c, 0, 64, 72
1, 254309, Note_off_c, 0, 51, 63
1, 254310, Note_off_c, 0, 63, 60
1, 254310, Note_off_c, 0, 67, 58
1, 254313, Control_c, 0, 64, 79
1, 254318, Note_off_c, 0, 79, 62
1, 254328, Control_c, 0, 64, 90
1, 254333, Note_off_c, 0, 73, 62
1, 254343, Control_c, 0, 64, 102
1, 254357, Control_c, 0, 64, 118
1, 254372, Control_c, 0, 64, 127
1, 254772, Control_c, 0, 64, 108
1, 254783, Note_on_c, 0, 79, 83
1, 254786, Note_on_c, 0, 63, 70
1, 254786, Note_on_c, 0, 73, 76
1, 254787, Control_c, 0, 64, 88
1, 254790, Note_on_c, 0, 51, 70
1, 254793, Note_on_c, 0, 67, 71
1, 254802, Control_c, 0, 64, 71
1, 254817, Control_c, 0, 64, 0
1, 254861, Control_c, 0, 64, 60
1, 254875, Control_c, 0, 64, 69
1, 254883, Note_off_c, 0, 63, 61
1, 254885, Note_off_c, 0, 51, 63
1, 254890, Control_c, 0, 64, 81
1, 254907, Control_c, 0, 64, 102
1, 254922, Control_c, 0, 64, 127
1, 255203, Note_off_c, 0, 67, 36
1, 255291, Note_off_c, 0, 79, 54
1, 255307, Note_off_c, 0, 73, 58
1, 255315, Control_c, 0, 67, 9
1, 255329, Control_c, 0, 67, 40
1, 255344, Control_c, 0, 67, 94
1, 255359, Control_c, 0, 67, 127
1, 255388, Control_c, 0, 64, 119
1, 255403, Control_c, 0, 64, 106
1, 255418, Control_c, 0, 64, 95
1, 255433, Control_c, 0, 64, 85
1, 255448, Control_c, 0, 64, 77
1, 255462, Control_c, 0, 64, 68
1, 255477, Control_c, 0, 64, 50
1, 255492, Control_c, 0, 64, 0
1, 255929, Control_c, 0, 64, 19
1, 255944, Control_c, 0, 64, 51
1, 255950, Note_on_c, 0, 69, 31
1, 255952, Note_on_c, 0, 86, 44
1, 255954, Note_on_c, 0, 78, 37
1, 255956, Note_on_c, 0, 62, 28
1, 255959, Control_c, 0, 64, 62
1, 255974, Control_c, 0, 64, 66
1, 255989, Control_c, 0, 64, 72
1, 256004, Control_c, 0, 64, 77
1, 256019, Control_c, 0, 64, 83
1, 256033, Control_c, 0, 64, 89
1, 256042, Note_off_c, 0, 69, 51
1, 256045, Note_off_c, 0, 86, 59
1, 256048, Control_c, 0, 64, 94
1, 256051, Note_off_c, 0, 78, 47
1, 256063, Control_c, 0, 64, 98
1, 256076, Note_off_c, 0, 62, 36
1, 256078, Control_c, 0, 64, 101
1, 256093, Control_c, 0, 64, 105
1, 256108, Control_c, 0, 64, 107
1, 256123, Control_c, 0, 64, 109
1, 256137, Control_c, 0, 64, 110
1, 256497, Note_on_c, 0, 86, 50
1, 256507, Note_on_c, 0, 78, 47
1, 256518, Note_on_c, 0, 69, 33
1, 256521, Note_on_c, 0, 62, 32
1, 256587, Note_off_c, 0, 86, 60
1, 256593, Note_off_c, 0, 78, 56
1, 256599, Note_off_c, 0, 62, 49
1, 256600, Note_off_c, 0, 69, 47
1, 256738, Control_c, 0, 64, 109
1, 256812, Control_c, 0, 64, 109
1, 256841, Control_c, 0, 64, 108
1, 256871, Control_c, 0, 64, 108
1, 256901, Control_c, 0, 64, 107
1, 256916, Control_c, 0, 64, 107
1, 256946, Control_c, 0, 64, 106
1, 256960, Control_c, 0, 64, 106
1, 256975, Control_c, 0, 64, 105
1, 256990, Control_c, 0, 64, 105
1, 257005, Control_c, 0, 64, 104
1, 257020, Control_c, 0, 64, 103
1, 257034, Control_c, 0, 64, 103
1, 257049, Control_c, 0, 64, 102
1, 257064, Control_c, 0, 64, 101
1, 257079, Control_c, 0, 64, 101
1, 257094, Control_c, 0, 64, 100
1, 257108, Control_c, 0, 64, 99
1, 257123, Control_c, 0, 64, 97
1, 257138, Control_c, 0, 64, 96
1, 257152, Control_c, 0, 64, 94
1, 257163, Note_on_c, 0, 86, 37
1, 257165, Note_on_c, 0, 69, 32
1, 257166, Note_on_c, 0, 78, 37
1, 257167, Control_c, 0, 64, 92
1, 257181, Note_on_c, 0, 62, 31
1, 257182, Control_c, 0, 64, 89
1, 257197, Control_c, 0, 64, 83
1, 257212, Control_c, 0, 64, 75
1, 257234, Control_c, 0, 64, 65
1, 257249, Control_c, 0, 64, 23
1, 257264, Control_c, 0, 64, 0
1, 257293, Control_c, 0, 64, 30
1, 257309, Control_c, 0, 64, 51
1, 257323, Control_c, 0, 64, 62
1, 257337, Control_c, 0, 64, 65
1, 257352, Control_c, 0, 64, 68
1, 257354, Note_off_c, 0, 86, 53
1, 257367, Control_c, 0, 64, 72
1, 257381, Control_c, 0, 64, 77
1, 257396, Control_c, 0, 64, 81
1, 257411, Control_c, 0, 64, 84
1, 257422, Note_off_c, 0, 78, 45
1, 257426, Control_c, 0, 64, 87
1, 257441, Control_c, 0, 64, 88
1, 257455, Control_c, 0, 64, 89
1, 257470, Control_c, 0, 64, 89
1, 257623, Note_off_c, 0, 69, 41
1, 257693, Control_c, 0, 67, 123
1, 257708, Control_c, 0, 67, 109
1, 257722, Control_c, 0, 67, 93
1, 257733, Note_off_c, 0, 62, 40
1, 257737, Control_c, 0, 67, 74
1, 257752, Control_c, 0, 67, 53
1, 257767, Control_c, 0, 67, 32
1, 257781, Control_c, 0, 67, 11
1, 257796, Control_c, 0, 64, 89
1, 257796, Control_c, 0, 67, 0
1, 257826, Control_c, 0, 64, 88
1, 257841, Control_c, 0, 64, 88
1, 257870, Control_c, 0, 64, 87
1, 257900, Control_c, 0, 64, 87
1, 257914, Control_c, 0, 64, 86
1, 257929, Control_c, 0, 64, 85
1, 257944, Control_c, 0, 64, 85
1, 257959, Control_c, 0, 64, 84
1, 257981, Control_c, 0, 64, 83
1, 258011, Control_c, 0, 64, 83
1, 258026, Control_c, 0, 64, 82
1, 258041, Control_c, 0, 64, 82
1, 258055, Control_c, 0, 64, 81
1, 258086, Control_c, 0, 64, 81
1, 258102, Control_c, 0, 64, 80
1, 258131, Control_c, 0, 64, 80
1, 258161, Control_c, 0, 64, 79
1, 258176, Control_c, 0, 64, 79
1, 258191, Control_c, 0, 64, 78
1, 258205, Control_c, 0, 64, 78
1, 258220, Control_c, 0, 64, 77
1, 258235, Control_c, 0, 64, 77
1, 258250, Control_c, 0, 64, 76
1, 258265, Control_c, 0, 64, 75
1, 258279, Control_c, 0, 64, 74
1, 258294, Control_c, 0, 64, 73
1, 258309, Control_c, 0, 64, 72
1, 258323, Control_c, 0, 64, 71
1, 258338, Control_c, 0, 64, 69
1, 258353, Control_c, 0, 64, 67
1, 258368, Control_c, 0, 64, 65
1, 258383, Control_c, 0, 64, 64
1, 258397, Control_c, 0, 64, 63
1, 258412, Control_c, 0, 64, 62
1, 258427, Control_c, 0, 64, 62
1, 258442, Control_c, 0, 64, 61
1, 258457, Control_c, 0, 64, 61
1, 258472, Control_c, 0, 64, 60
1, 258487, Control_c, 0, 64, 59
1, 258502, Control_c, 0, 64, 57
1, 258517, Control_c, 0, 64, 56
1, 258531, Control_c, 0, 64, 55
1, 258546, Control_c, 0, 64, 54
1, 258561, Control_c, 0, 64, 53
1, 258576, Control_c, 0, 64, 52
1, 258591, Control_c, 0, 64, 52
1, 258620, Control_c, 0, 64, 51
1, 258650, Control_c, 0, 64, 51
1, 259007, Note_on_c, 0, 71, 56
1, 259067, Note_off_c, 0, 71, 63
1, 259086, Note_on_c, 0, 72, 58
1, 259125, Note_off_c, 0, 72, 63
1, 259150, Note_on_c, 0, 71, 58
1, 259181, Note_off_c, 0, 71, 65
1, 259194, Note_on_c, 0, 72, 59
1, 259220, Control_c, 0, 64, 50
1, 259235, Control_c, 0, 64, 50
1, 259237, Note_off_c, 0, 72, 64
1, 259250, Control_c, 0, 64, 49
1, 259251, Note_on_c, 0, 71, 68
1, 259265, Control_c, 0, 64, 48
1, 259280, Control_c, 0, 64, 47
1, 259295, Control_c, 0, 64, 46
1, 259309, Control_c, 0, 64, 45
1, 259324, Control_c, 0, 64, 44
1, 259339, Control_c, 0, 64, 43
1, 259369, Control_c, 0, 64, 42
1, 259479, Control_c, 0, 64, 42
1, 259521, Note_on_c, 0, 72, 61
1, 259528, Note_off_c, 0, 71, 54
1, 259594, Note_off_c, 0, 72, 64
1, 259604, Note_on_c, 0, 74, 66
1, 259619, Note_on_c, 0, 55, 40
1, 259649, Note_off_c, 0, 74, 56
1, 259672, Control_c, 0, 64, 42
1, 259686, Control_c, 0, 64, 43
1, 259703, Control_c, 0, 64, 43
1, 259718, Control_c, 0, 64, 44
1, 259732, Control_c, 0, 64, 45
1, 259747, Control_c, 0, 64, 46
1, 259762, Control_c, 0, 64, 47
1, 259776, Control_c, 0, 64, 48
1, 259791, Control_c, 0, 64, 49
1, 259806, Control_c, 0, 64, 51
1, 259821, Control_c, 0, 64, 53
1, 259836, Control_c, 0, 64, 54
1, 259850, Control_c, 0, 64, 56
1, 259865, Control_c, 0, 64, 58
1, 259870, Note_on_c, 0, 59, 40
1, 259880, Control_c, 0, 64, 59
1, 259895, Control_c, 0, 64, 61
1, 259910, Control_c, 0, 64, 63
1, 259924, Control_c, 0, 64, 64
1, 259939, Control_c, 0, 64, 65
1, 259954, Control_c, 0, 64, 66
1, 259968, Control_c, 0, 64, 67
1, 259983, Control_c, 0, 64, 69
1, 259998, Control_c, 0, 64, 71
1, 260013, Control_c, 0, 64, 74
1, 260028, Control_c, 0, 64, 77
1, 260043, Control_c, 0, 64, 79
1, 260058, Control_c, 0, 64, 82
1, 260071, Note_off_c, 0, 59, 32
1, 260073, Control_c, 0, 64, 84
1, 260077, Note_on_c, 0, 74, 70
1, 260087, Control_c, 0, 64, 87
1, 260102, Note_on_c, 0, 62, 39
1, 260102, Control_c, 0, 64, 90
1, 260117, Control_c, 0, 64, 93
1, 260132, Control_c, 0, 64, 96
1, 260147, Control_c, 0, 64, 98
1, 260162, Control_c, 0, 64, 101
1, 260170, Note_off_c, 0, 74, 54
1, 260176, Control_c, 0, 64, 103
1, 260191, Control_c, 0, 64, 105
1, 260206, Control_c, 0, 64, 107
1, 260228, Control_c, 0, 64, 109
1, 260243, Control_c, 0, 64, 109
1, 260272, Control_c, 0, 64, 110
1, 260323, Note_off_c, 0, 55, 40
1, 260333, Note_on_c, 0, 59, 39
1, 260335, Note_off_c, 0, 62, 36
1, 260555, Control_c, 0, 64, 109
1, 260568, Note_on_c, 0, 55, 43
1, 260600, Note_off_c, 0, 59, 37
1, 260717, Control_c, 0, 64, 109
1, 260762, Control_c, 0, 64, 108
1, 260779, Note_on_c, 0, 74, 80
1, 260791, Note_on_c, 0, 59, 46
1, 260806, Control_c, 0, 64, 108
1, 260851, Control_c, 0, 64, 107
1, 260892, Note_off_c, 0, 74, 64
1, 260895, Control_c, 0, 64, 107
1, 260940, Control_c, 0, 64, 106
1, 260977, Control_c, 0, 64, 106
1, 260995, Note_on_c, 0, 74, 75
1, 261021, Control_c, 0, 64, 105
1, 261028, Note_on_c, 0, 62, 43
1, 261033, Note_off_c, 0, 59, 35
1, 261066, Control_c, 0, 64, 105
1, 261070, Note_off_c, 0, 74, 62
1, 261077, Note_on_c, 0, 76, 69
1, 261080, Control_c, 0, 64, 104
1, 261123, Note_off_c, 0, 76, 58
1, 261125, Control_c, 0, 64, 104
1, 261137, Note_on_c, 0, 74, 65
1, 261140, Control_c, 0, 64, 103
1, 261166, Note_off_c, 0, 74, 65
1, 261170, Control_c, 0, 64, 103
1, 261180, Note_on_c, 0, 76, 65
1, 261199, Control_c, 0, 64, 102
1, 261208, Note_off_c, 0, 55, 56
1, 261214, Control_c, 0, 64, 102
1, 261228, Note_off_c, 0, 76, 62
1, 261229, Control_c, 0, 64, 100
1, 261229, Note_on_c, 0, 74, 80
1, 261235, Note_on_c, 0, 59, 45
1, 261235, Note_off_c, 0, 62, 29
1, 261244, Control_c, 0, 64, 96
1, 261258, Control_c, 0, 64, 91
1, 261273, Control_c, 0, 64, 85
1, 261288, Control_c, 0, 64, 77
1, 261304, Control_c, 0, 64, 66
1, 261319, Control_c, 0, 64, 0
1, 261394, Note_off_c, 0, 74, 65
1, 261402, Note_on_c, 0, 76, 78
1, 261483, Note_on_c, 0, 74, 83
1, 261497, Note_off_c, 0, 59, 40
1, 261497, Note_on_c, 0, 55, 41
1, 261501, Note_off_c, 0, 76, 54
1, 261725, Note_on_c, 0, 72, 72
1, 261743, Note_on_c, 0, 57, 38
1, 261795, Note_off_c, 0, 74, 54
1, 261860, Control_c, 0, 64, 17
1, 261874, Control_c, 0, 64, 47
1, 261876, Note_off_c, 0, 72, 58
1, 261889, Control_c, 0, 64, 58
1, 261904, Control_c, 0, 64, 63
1, 261919, Control_c, 0, 64, 65
1, 261934, Control_c, 0, 64, 66
1, 261948, Control_c, 0, 64, 69
1, 261959, Note_on_c, 0, 72, 63
1, 261963, Control_c, 0, 64, 72
1, 261974, Note_off_c, 0, 57, 34
1, 261978, Control_c, 0, 64, 75
1, 261992, Note_on_c, 0, 64, 32
1, 261993, Control_c, 0, 64, 78
1, 262008, Control_c, 0, 64, 81
1, 262022, Control_c, 0, 64, 84
1, 262037, Control_c, 0, 64, 86
1, 262052, Control_c, 0, 64, 89
1, 262067, Control_c, 0, 64, 91
1, 262082, Control_c, 0, 64, 92
1, 262098, Control_c, 0, 64, 93
1, 262100, Note_off_c, 0, 72, 38
1, 262113, Control_c, 0, 64, 93
1, 262202, Note_on_c, 0, 57, 38
1, 262221, Note_off_c, 0, 55, 38
1, 262228, Note_off_c, 0, 64, 38
1, 262424, Control_c, 0, 64, 93
1, 262439, Note_on_c, 0, 55, 49
1, 262475, Control_c, 0, 64, 92
1, 262494, Note_off_c, 0, 57, 25
1, 262505, Control_c, 0, 64, 92
1, 262520, Control_c, 0, 64, 91
1, 262550, Control_c, 0, 64, 91
1, 262565, Control_c, 0, 64, 90
1, 262579, Control_c, 0, 64, 89
1, 262594, Control_c, 0, 64, 89
1, 262609, Control_c, 0, 64, 88
1, 262624, Control_c, 0, 64, 87
1, 262639, Control_c, 0, 64, 86
1, 262653, Control_c, 0, 64, 84
1, 262659, Note_on_c, 0, 72, 74
1, 262668, Control_c, 0, 64, 81
1, 262683, Control_c, 0, 64, 76
1, 262687, Note_on_c, 0, 57, 41
1, 262697, Control_c, 0, 64, 69
1, 262712, Control_c, 0, 64, 58
1, 262727, Control_c, 0, 64, 0
1, 262771, Control_c, 0, 64, 19
1, 262786, Control_c, 0, 64, 43
1, 262794, Note_off_c, 0, 72, 57
1, 262801, Control_c, 0, 64, 54
1, 262816, Control_c, 0, 64, 60
1, 262831, Control_c, 0, 64, 63
1, 262845, Control_c, 0, 64, 65
1, 262860, Control_c, 0, 64, 66
1, 262868, Note_off_c, 0, 57, 37
1, 262875, Control_c, 0, 64, 67
1, 262885, Note_on_c, 0, 71, 77
1, 262890, Control_c, 0, 64, 69
1, 262895, Note_on_c, 0, 64, 43
1, 262906, Control_c, 0, 64, 71
1, 262920, Control_c, 0, 64, 74
1, 262935, Control_c, 0, 64, 78
1, 262950, Control_c, 0, 64, 80
1, 262965, Control_c, 0, 64, 82
1, 262980, Control_c, 0, 64, 83
1, 262991, Note_off_c, 0, 71, 62
1, 262994, Control_c, 0, 64, 84
1, 263009, Control_c, 0, 64, 85
1, 263024, Control_c, 0, 64, 85
1, 263089, Note_on_c, 0, 69, 85
1, 263100, Note_on_c, 0, 57, 43
1, 263133, Note_off_c, 0, 55, 29
1, 263161, Note_off_c, 0, 57, 52
1, 263204, Note_off_c, 0, 69, 61
1, 263322, Note_on_c, 0, 69, 74
1, 263359, Note_on_c, 0, 54, 45
1, 263402, Control_c, 0, 64, 85
1, 263417, Control_c, 0, 64, 83
1, 263428, Note_off_c, 0, 64, 36
1, 263432, Control_c, 0, 64, 82
1, 263447, Control_c, 0, 64, 80
1, 263462, Control_c, 0, 64, 77
1, 263476, Control_c, 0, 64, 75
1, 263491, Control_c, 0, 64, 71
1, 263506, Control_c, 0, 64, 66
1, 263520, Control_c, 0, 64, 57
1, 263535, Control_c, 0, 64, 0
1, 263608, Note_on_c, 0, 74, 73
1, 263627, Note_on_c, 0, 57, 38
1, 263674, Note_off_c, 0, 69, 56
1, 263744, Note_off_c, 0, 74, 62
1, 263824, Note_off_c, 0, 57, 36
1, 263832, Note_on_c, 0, 74, 80
1, 263837, Note_on_c, 0, 62, 45
1, 263973, Control_c, 0, 64, 29
1, 263988, Control_c, 0, 64, 63
1, 264003, Control_c, 0, 64, 67
1, 264018, Control_c, 0, 64, 70
1, 264032, Control_c, 0, 64, 73
1, 264034, Note_off_c, 0, 54, 61
1, 264047, Control_c, 0, 64, 75
1, 264061, Control_c, 0, 64, 78
1, 264063, Note_on_c, 0, 57, 48
1, 264076, Control_c, 0, 64, 80
1, 264091, Control_c, 0, 64, 82
1, 264106, Control_c, 0, 64, 83
1, 264249, Note_off_c, 0, 57, 37
1, 264301, Note_on_c, 0, 52, 55
1, 264313, Control_c, 0, 64, 82
1, 264328, Control_c, 0, 64, 80
1, 264342, Control_c, 0, 64, 77
1, 264357, Control_c, 0, 64, 72
1, 264372, Control_c, 0, 64, 66
1, 264384, Note_off_c, 0, 62, 38
1, 264387, Control_c, 0, 64, 60
1, 264402, Control_c, 0, 64, 56
1, 264416, Control_c, 0, 64, 61
1, 264431, Control_c, 0, 64, 64
1, 264446, Control_c, 0, 64, 65
1, 264460, Control_c, 0, 64, 67
1, 264475, Control_c, 0, 64, 68
1, 264492, Control_c, 0, 64, 71
1, 264507, Control_c, 0, 64, 74
1, 264521, Control_c, 0, 64, 77
1, 264536, Control_c, 0, 64, 79
1, 264537, Note_on_c, 0, 57, 45
1, 264550, Note_on_c, 0, 76, 64
1, 264551, Control_c, 0, 64, 81
1, 264565, Control_c, 0, 64, 83
1, 264579, Note_off_c, 0, 74, 60
1, 264580, Control_c, 0, 64, 83
1, 264595, Control_c, 0, 64, 84
1, 264625, Control_c, 0, 64, 85
1, 264657, Note_on_c, 0, 74, 67
1, 264658, Note_off_c, 0, 76, 58
1, 264687, Note_off_c, 0, 74, 66
1, 264699, Control_c, 0, 64, 84
1, 264746, Note_off_c, 0, 57, 32
1, 264768, Note_on_c, 0, 74, 78
1, 264778, Note_on_c, 0, 60, 46
1, 264840, Control_c, 0, 64, 84
1, 264867, Note_on_c, 0, 72, 79
1, 264870, Control_c, 0, 64, 83
1, 264896, Note_off_c, 0, 74, 60
1, 264914, Control_c, 0, 64, 83
1, 264971, Note_on_c, 0, 71, 81
1, 264973, Control_c, 0, 64, 82
1, 264985, Note_off_c, 0, 60, 37
1, 264986, Note_off_c, 0, 52, 36
1, 264987, Note_on_c, 0, 57, 47
1, 264990, Note_off_c, 0, 72, 62
1, 265033, Control_c, 0, 64, 82
1, 265073, Note_on_c, 0, 72, 81
1, 265083, Note_off_c, 0, 71, 64
1, 265107, Control_c, 0, 64, 81
1, 265119, Note_off_c, 0, 72, 63
1, 265151, Note_off_c, 0, 57, 31
1, 265152, Control_c, 0, 64, 81
1, 265166, Control_c, 0, 64, 80
1, 265181, Control_c, 0, 64, 79
1, 265196, Control_c, 0, 64, 77
1, 265199, Note_on_c, 0, 72, 75
1, 265211, Control_c, 0, 64, 74
1, 265212, Note_on_c, 0, 51, 43
1, 265226, Control_c, 0, 64, 70
1, 265240, Control_c, 0, 64, 63
1, 265255, Control_c, 0, 64, 0
1, 265471, Note_on_c, 0, 71, 76
1, 265476, Note_on_c, 0, 54, 48
1, 265499, Note_off_c, 0, 72, 58
1, 265604, Control_c, 0, 64, 27
1, 265611, Note_off_c, 0, 71, 63
1, 265619, Control_c, 0, 64, 42
1, 265634, Control_c, 0, 64, 49
1, 265649, Control_c, 0, 64, 55
1, 265663, Control_c, 0, 64, 58
1, 265665, Note_off_c, 0, 51, 43
1, 265678, Control_c, 0, 64, 60
1, 265708, Control_c, 0, 64, 59
1, 265709, Note_on_c, 0, 71, 60
1, 265722, Control_c, 0, 64, 58
1, 265724, Note_on_c, 0, 57, 34
1, 265737, Control_c, 0, 64, 57
1, 265752, Control_c, 0, 64, 56
1, 265767, Control_c, 0, 64, 54
1, 265782, Control_c, 0, 64, 51
1, 265784, Note_off_c, 0, 54, 29
1, 265796, Control_c, 0, 64, 47
1, 265811, Control_c, 0, 64, 43
1, 265826, Control_c, 0, 64, 39
1, 265841, Control_c, 0, 64, 36
1, 265856, Control_c, 0, 64, 34
1, 265870, Control_c, 0, 64, 31
1, 265885, Control_c, 0, 64, 27
1, 265900, Control_c, 0, 64, 23
1, 265915, Control_c, 0, 64, 19
1, 265930, Control_c, 0, 64, 17
1, 265939, Note_on_c, 0, 51, 46
1, 265945, Control_c, 0, 64, 14
1, 266019, Control_c, 0, 64, 17
1, 266034, Control_c, 0, 64, 21
1, 266048, Control_c, 0, 64, 24
1, 266063, Control_c, 0, 64, 28
1, 266064, Note_off_c, 0, 57, 37
1, 266078, Control_c, 0, 64, 32
1, 266094, Control_c, 0, 64, 35
1, 266109, Control_c, 0, 64, 38
1, 266124, Control_c, 0, 64, 42
1, 266138, Control_c, 0, 64, 46
1, 266153, Control_c, 0, 64, 49
1, 266168, Control_c, 0, 64, 53
1, 266183, Control_c, 0, 64, 55
1, 266198, Control_c, 0, 64, 58
1, 266217, Note_on_c, 0, 52, 44
1, 266219, Control_c, 0, 64, 60
1, 266234, Control_c, 0, 64, 62
1, 266249, Control_c, 0, 64, 63
1, 266264, Control_c, 0, 64, 64
1, 266279, Control_c, 0, 64, 66
1, 266294, Control_c, 0, 64, 67
1, 266309, Control_c, 0, 64, 68
1, 266321, Note_off_c, 0, 51, 37
1, 266338, Control_c, 0, 64, 68
1, 266430, Note_off_c, 0, 71, 58
1, 266442, Control_c, 0, 64, 68
1, 266457, Control_c, 0, 64, 67
1, 266471, Control_c, 0, 64, 66
1, 266486, Control_c, 0, 64, 65
1, 266493, Note_on_c, 0, 59, 39
1, 266501, Control_c, 0, 64, 64
1, 266516, Control_c, 0, 64, 62
1, 266531, Control_c, 0, 64, 57
1, 266545, Control_c, 0, 64, 45
1, 266552, Note_on_c, 0, 71, 51
1, 266560, Control_c, 0, 64, 24
1, 266575, Control_c, 0, 64, 0
1, 266627, Note_off_c, 0, 71, 61
1, 266634, Note_on_c, 0, 72, 57
1, 266693, Note_off_c, 0, 72, 61
1, 266721, Note_on_c, 0, 74, 54
1, 266805, Note_off_c, 0, 59, 35
1, 266810, Note_off_c, 0, 74, 60
1, 266822, Note_on_c, 0, 72, 54
1, 266838, Note_on_c, 0, 50, 28
1, 266949, Note_off_c, 0, 52, 32
1, 267096, Note_off_c, 0, 72, 56
1, 267112, Note_on_c, 0, 71, 52
1, 267128, Note_on_c, 0, 55, 34
1, 267176, Control_c, 0, 64, 24
1, 267191, Control_c, 0, 64, 42
1, 267206, Control_c, 0, 64, 52
1, 267221, Control_c, 0, 64, 59
1, 267224, Note_off_c, 0, 50, 49
1, 267235, Control_c, 0, 64, 63
1, 267250, Control_c, 0, 64, 64
1, 267265, Control_c, 0, 64, 66
1, 267280, Control_c, 0, 64, 68
1, 267294, Control_c, 0, 64, 71
1, 267309, Control_c, 0, 64, 74
1, 267324, Control_c, 0, 64, 76
1, 267333, Note_off_c, 0, 71, 62
1, 267339, Control_c, 0, 64, 77
1, 267354, Control_c, 0, 64, 78
1, 267368, Control_c, 0, 64, 79
1, 267383, Control_c, 0, 64, 79
1, 267455, Note_on_c, 0, 71, 51
1, 267478, Note_on_c, 0, 49, 39
1, 267516, Control_c, 0, 64, 79
1, 267531, Control_c, 0, 64, 78
1, 267546, Control_c, 0, 64, 78
1, 267552, Note_off_c, 0, 55, 37
1, 267561, Control_c, 0, 64, 77
1, 267576, Control_c, 0, 64, 76
1, 267590, Control_c, 0, 64, 74
1, 267605, Control_c, 0, 64, 71
1, 267620, Control_c, 0, 64, 68
1, 267635, Control_c, 0, 64, 64
1, 267650, Control_c, 0, 64, 54
1, 267665, Control_c, 0, 64, 0
1, 267804, Note_on_c, 0, 69, 53
1, 267834, Note_on_c, 0, 52, 33
1, 267846, Note_off_c, 0, 71, 51
1, 267880, Control_c, 0, 64, 34
1, 267895, Control_c, 0, 64, 46
1, 267909, Control_c, 0, 64, 55
1, 267924, Control_c, 0, 64, 61
1, 267939, Control_c, 0, 64, 64
1, 267949, Note_off_c, 0, 69, 54
1, 267954, Control_c, 0, 64, 65
1, 267969, Control_c, 0, 64, 67
1, 267984, Control_c, 0, 64, 70
1, 267999, Control_c, 0, 64, 73
1, 268014, Control_c, 0, 64, 77
1, 268029, Control_c, 0, 64, 80
1, 268044, Control_c, 0, 64, 83
1, 268046, Note_on_c, 0, 69, 66
1, 268058, Control_c, 0, 64, 85
1, 268064, Note_on_c, 0, 55, 42
1, 268068, Note_off_c, 0, 52, 40
1, 268073, Control_c, 0, 64, 89
1, 268088, Control_c, 0, 64, 92
1, 268103, Control_c, 0, 64, 94
1, 268117, Control_c, 0, 64, 97
1, 268132, Control_c, 0, 64, 98
1, 268147, Control_c, 0, 64, 100
1, 268157, Note_off_c, 0, 69, 60
1, 268162, Control_c, 0, 64, 101
1, 268177, Control_c, 0, 64, 101
1, 268206, Control_c, 0, 64, 102
1, 268257, Note_off_c, 0, 55, 41
1, 268260, Note_on_c, 0, 69, 74
1, 268286, Note_on_c, 0, 52, 48
1, 268326, Note_off_c, 0, 49, 41
1, 268373, Note_off_c, 0, 69, 60
1, 268496, Note_on_c, 0, 69, 71
1, 268532, Note_on_c, 0, 49, 56
1, 268591, Note_off_c, 0, 52, 35
1, 268674, Control_c, 0, 64, 101
1, 268752, Note_on_c, 0, 52, 58
1, 268762, Note_off_c, 0, 69, 33
1, 268985, Control_c, 0, 64, 101
1, 269000, Note_on_c, 0, 69, 81
1, 269009, Note_on_c, 0, 55, 59
1, 269029, Control_c, 0, 64, 100
1, 269039, Note_off_c, 0, 52, 55
1, 269073, Control_c, 0, 64, 100
1, 269147, Control_c, 0, 64, 99
1, 269229, Control_c, 0, 64, 99
1, 269238, Note_on_c, 0, 52, 68
1, 269269, Note_off_c, 0, 49, 58
1, 269273, Control_c, 0, 64, 98
1, 269304, Control_c, 0, 64, 98
1, 269319, Control_c, 0, 64, 97
1, 269337, Note_off_c, 0, 55, 36
1, 269349, Control_c, 0, 64, 97
1, 269393, Control_c, 0, 64, 96
1, 269395, Note_off_c, 0, 69, 48
1, 269408, Control_c, 0, 64, 96
1, 269423, Control_c, 0, 64, 95
1, 269430, Note_on_c, 0, 48, 59
1, 269437, Control_c, 0, 64, 95
1, 269452, Control_c, 0, 64, 94
1, 269467, Control_c, 0, 64, 92
1, 269481, Control_c, 0, 64, 90
1, 269495, Note_on_c, 0, 73, 73
1, 269496, Control_c, 0, 64, 86
1, 269511, Control_c, 0, 64, 83
1, 269526, Control_c, 0, 64, 78
1, 269541, Control_c, 0, 64, 72
1, 269556, Control_c, 0, 64, 66
1, 269567, Note_on_c, 0, 74, 75
1, 269570, Control_c, 0, 64, 46
1, 269578, Note_off_c, 0, 52, 39
1, 269585, Control_c, 0, 64, 0
1, 269597, Note_off_c, 0, 73, 58
1, 269638, Note_off_c, 0, 74, 65
1, 269639, Note_on_c, 0, 76, 76
1, 269708, Note_on_c, 0, 74, 77
1, 269741, Note_off_c, 0, 76, 62
1, 269844, Note_on_c, 0, 54, 60
1, 270008, Control_c, 0, 64, 11
1, 270023, Control_c, 0, 64, 53
1, 270037, Control_c, 0, 64, 63
1, 270050, Control_c, 0, 64, 66
1, 270065, Control_c, 0, 64, 69
1, 270081, Control_c, 0, 64, 72
1, 270083, Note_on_c, 0, 57, 64
1, 270096, Control_c, 0, 64, 76
1, 270110, Control_c, 0, 64, 81
1, 270125, Control_c, 0, 64, 84
1, 270140, Control_c, 0, 64, 86
1, 270155, Control_c, 0, 64, 88
1, 270160, Note_off_c, 0, 54, 50
1, 270170, Control_c, 0, 64, 89
1, 270184, Control_c, 0, 64, 90
1, 270201, Note_off_c, 0, 48, 30
1, 270214, Control_c, 0, 64, 91
1, 270311, Note_on_c, 0, 48, 62
1, 270407, Control_c, 0, 64, 90
1, 270428, Note_off_c, 0, 48, 57
1, 270466, Control_c, 0, 64, 90
1, 270496, Control_c, 0, 64, 89
1, 270510, Control_c, 0, 64, 89
1, 270525, Control_c, 0, 64, 88
1, 270540, Control_c, 0, 64, 87
1, 270555, Control_c, 0, 64, 86
1, 270557, Note_on_c, 0, 47, 66
1, 270570, Control_c, 0, 64, 85
1, 270584, Control_c, 0, 64, 84
1, 270599, Control_c, 0, 64, 83
1, 270614, Control_c, 0, 64, 82
1, 270628, Control_c, 0, 64, 81
1, 270643, Control_c, 0, 64, 78
1, 270658, Control_c, 0, 64, 76
1, 270673, Control_c, 0, 64, 73
1, 270682, Note_off_c, 0, 57, 37
1, 270688, Control_c, 0, 64, 69
1, 270710, Control_c, 0, 64, 65
1, 270725, Control_c, 0, 64, 54
1, 270740, Control_c, 0, 64, 0
1, 270863, Note_on_c, 0, 76, 65
1, 270866, Note_on_c, 0, 55, 51
1, 270888, Note_off_c, 0, 74, 65
1, 270963, Note_on_c, 0, 74, 76
1, 271042, Note_off_c, 0, 76, 36
1, 271068, Note_on_c, 0, 72, 78
1, 271079, Note_on_c, 0, 52, 53
1, 271125, Note_off_c, 0, 55, 36
1, 271135, Note_off_c, 0, 74, 55
1, 271141, Control_c, 0, 64, 27
1, 271156, Control_c, 0, 64, 41
1, 271171, Control_c, 0, 64, 49
1, 271186, Control_c, 0, 64, 54
1, 271200, Control_c, 0, 64, 59
1, 271215, Control_c, 0, 64, 62
1, 271230, Control_c, 0, 64, 64
1, 271245, Control_c, 0, 64, 67
1, 271260, Control_c, 0, 64, 69
1, 271275, Control_c, 0, 64, 72
1, 271286, Note_off_c, 0, 47, 33
1, 271290, Control_c, 0, 64, 74
1, 271305, Control_c, 0, 64, 76
1, 271305, Note_on_c, 0, 50, 53
1, 271309, Note_on_c, 0, 71, 81
1, 271320, Control_c, 0, 64, 77
1, 271334, Control_c, 0, 64, 78
1, 271345, Note_off_c, 0, 52, 35
1, 271349, Control_c, 0, 64, 78
1, 271364, Control_c, 0, 64, 79
1, 271367, Note_off_c, 0, 72, 54
1, 271425, Note_off_c, 0, 50, 59
1, 271453, Note_off_c, 0, 71, 64
1, 271504, Control_c, 0, 64, 78
1, 271534, Control_c, 0, 64, 78
1, 271549, Control_c, 0, 64, 77
1, 271556, Note_on_c, 0, 71, 72
1, 271558, Note_on_c, 0, 52, 46
1, 271564, Control_c, 0, 64, 76
1, 271568, Note_on_c, 0, 48, 42
1, 271579, Control_c, 0, 64, 74
1, 271594, Control_c, 0, 64, 71
1, 271608, Control_c, 0, 64, 68
1, 271623, Control_c, 0, 64, 64
1, 271638, Control_c, 0, 64, 54
1, 271653, Control_c, 0, 64, 0
1, 271808, Note_on_c, 0, 69, 73
1, 271867, Note_off_c, 0, 71, 50
1, 272047, Note_on_c, 0, 68, 72
1, 272081, Note_off_c, 0, 69, 59
1, 272287, Note_on_c, 0, 69, 66
1, 272323, Note_off_c, 0, 68, 57
1, 272525, Note_on_c, 0, 71, 57
1, 272550, Note_off_c, 0, 69, 46
1, 272595, Control_c, 0, 64, 36
1, 272610, Control_c, 0, 64, 49
1, 272625, Control_c, 0, 64, 58
1, 272640, Control_c, 0, 64, 63
1, 272654, Control_c, 0, 64, 65
1, 272669, Control_c, 0, 64, 66
1, 272684, Control_c, 0, 64, 68
1, 272698, Control_c, 0, 64, 69
1, 272713, Control_c, 0, 64, 73
1, 272728, Control_c, 0, 64, 77
1, 272734, Note_off_c, 0, 48, 40
1, 272743, Control_c, 0, 64, 80
1, 272758, Control_c, 0, 64, 82
1, 272772, Note_on_c, 0, 72, 56
1, 272772, Control_c, 0, 64, 84
1, 272787, Control_c, 0, 64, 84
1, 272789, Note_off_c, 0, 71, 56
1, 272802, Control_c, 0, 64, 85
1, 272920, Control_c, 0, 64, 84
1, 272935, Control_c, 0, 64, 84
1, 272958, Control_c, 0, 64, 83
1, 272973, Control_c, 0, 64, 80
1, 272987, Control_c, 0, 64, 76
1, 272997, Note_off_c, 0, 72, 62
1, 273002, Control_c, 0, 64, 71
1, 273006, Note_on_c, 0, 64, 48
1, 273007, Note_off_c, 0, 52, 24
1, 273017, Control_c, 0, 64, 64
1, 273019, Note_on_c, 0, 57, 34
1, 273019, Note_on_c, 0, 49, 41
1, 273031, Control_c, 0, 64, 44
1, 273046, Control_c, 0, 64, 0
1, 273076, Control_c, 0, 64, 40
1, 273091, Control_c, 0, 64, 55
1, 273105, Control_c, 0, 64, 62
1, 273120, Control_c, 0, 64, 65
1, 273135, Control_c, 0, 64, 67
1, 273150, Control_c, 0, 64, 68
1, 273165, Control_c, 0, 64, 70
1, 273180, Control_c, 0, 64, 72
1, 273195, Control_c, 0, 64, 74
1, 273209, Control_c, 0, 64, 76
1, 273224, Control_c, 0, 64, 77
1, 273239, Control_c, 0, 64, 79
1, 273248, Note_on_c, 0, 69, 54
1, 273254, Control_c, 0, 64, 79
1, 273269, Control_c, 0, 64, 80
1, 273270, Note_off_c, 0, 57, 34
1, 273281, Note_off_c, 0, 64, 49
1, 273284, Control_c, 0, 64, 80
1, 273433, Note_off_c, 0, 49, 44
1, 273462, Control_c, 0, 64, 80
1, 273477, Control_c, 0, 64, 79
1, 273492, Control_c, 0, 64, 79
1, 273493, Note_on_c, 0, 67, 51
1, 273507, Control_c, 0, 64, 78
1, 273508, Note_on_c, 0, 57, 32
1, 273519, Note_on_c, 0, 50, 34
1, 273521, Control_c, 0, 64, 76
1, 273536, Control_c, 0, 64, 73
1, 273551, Control_c, 0, 64, 70
1, 273566, Control_c, 0, 64, 66
1, 273567, Note_off_c, 0, 69, 38
1, 273581, Control_c, 0, 64, 58
1, 273596, Control_c, 0, 64, 0
1, 273749, Note_on_c, 0, 66, 55
1, 273791, Note_off_c, 0, 67, 58
1, 273984, Note_on_c, 0, 64, 54
1, 274017, Note_off_c, 0, 66, 54
1, 274217, Note_off_c, 0, 64, 60
1, 274224, Note_on_c, 0, 62, 53
1, 274455, Note_off_c, 0, 62, 54
1, 274455, Control_c, 0, 67, 9
1, 274470, Control_c, 0, 67, 19
1, 274471, Note_on_c, 0, 64, 46
1, 274485, Control_c, 0, 67, 37
1, 274500, Control_c, 0, 67, 55
1, 274508, Note_off_c, 0, 57, 51
1, 274515, Control_c, 0, 67, 74
1, 274530, Control_c, 0, 67, 92
1, 274541, Note_off_c, 0, 50, 45
1, 274545, Control_c, 0, 67, 109
1, 274559, Control_c, 0, 67, 125
1, 274574, Control_c, 0, 67, 127
1, 274711, Note_on_c, 0, 66, 54
1, 274746, Note_off_c, 0, 64, 55
1, 274940, Note_off_c, 0, 66, 61
1, 274950, Note_on_c, 0, 67, 53
1, 275185, Note_on_c, 0, 69, 53
1, 275189, Note_off_c, 0, 67, 57
1, 275454, Note_on_c, 0, 71, 46
1, 275467, Note_off_c, 0, 69, 58
1, 275475, Note_on_c, 0, 67, 23
1, 275686, Note_on_c, 0, 62, 42
1, 275707, Note_off_c, 0, 67, 41
1, 275878, Note_off_c, 0, 71, 56
1, 275894, Note_on_c, 0, 74, 51
1, 275907, Note_off_c, 0, 62, 47
1, 275932, Note_on_c, 0, 72, 61
1, 275950, Note_on_c, 0, 67, 36
1, 275957, Note_off_c, 0, 74, 53
1, 276179, Note_on_c, 0, 62, 39
1, 276196, Note_off_c, 0, 67, 37
1, 276286, Note_on_c, 0, 71, 65
1, 276313, Note_off_c, 0, 72, 56
1, 276376, Note_on_c, 0, 69, 70
1, 276381, Note_off_c, 0, 71, 63
1, 276387, Note_off_c, 0, 62, 37
1, 276399, Note_on_c, 0, 66, 41
1, 276631, Note_on_c, 0, 62, 40
1, 276640, Note_off_c, 0, 66, 37
1, 276858, Note_on_c, 0, 71, 73
1, 276868, Note_off_c, 0, 62, 37
1, 276874, Note_on_c, 0, 67, 40
1, 276934, Note_off_c, 0, 69, 50
1, 277076, Note_off_c, 0, 67, 55
1, 277099, Note_on_c, 0, 62, 39
1, 277329, Note_on_c, 0, 72, 61
1, 277330, Note_off_c, 0, 62, 36
1, 277343, Note_on_c, 0, 69, 36
1, 277391, Note_off_c, 0, 71, 55
1, 277594, Note_on_c, 0, 62, 36
1, 277627, Note_off_c, 0, 69, 37
1, 277831, Note_on_c, 0, 74, 56
1, 277835, Note_off_c, 0, 62, 36
1, 277843, Note_on_c, 0, 66, 39
1, 277850, Note_off_c, 0, 72, 58
1, 278074, Note_on_c, 0, 62, 36
1, 278083, Note_off_c, 0, 66, 33
1, 278309, Note_on_c, 0, 72, 47
1, 278318, Note_off_c, 0, 62, 36
1, 278334, Note_on_c, 0, 67, 27
1, 278360, Note_off_c, 0, 74, 56
1, 278544, Note_on_c, 0, 62, 35
1, 278590, Note_off_c, 0, 67, 41
1, 278754, Note_off_c, 0, 62, 39
1, 278766, Note_off_c, 0, 72, 56
1, 278781, Note_on_c, 0, 71, 44
1, 278789, Note_on_c, 0, 67, 36
1, 278822, Control_c, 0, 64, 14
1, 278836, Control_c, 0, 64, 42
1, 278851, Control_c, 0, 64, 56
1, 278867, Control_c, 0, 64, 63
1, 278882, Control_c, 0, 64, 66
1, 278897, Control_c, 0, 64, 67
1, 278912, Control_c, 0, 64, 70
1, 278927, Control_c, 0, 64, 72
1, 278948, Control_c, 0, 64, 75
1, 278963, Control_c, 0, 64, 78
1, 278978, Control_c, 0, 64, 81
1, 278993, Control_c, 0, 64, 84
1, 279008, Control_c, 0, 64, 87
1, 279013, Note_on_c, 0, 62, 36
1, 279022, Control_c, 0, 64, 90
1, 279037, Control_c, 0, 64, 93
1, 279049, Note_off_c, 0, 71, 57
1, 279052, Control_c, 0, 64, 96
1, 279055, Note_off_c, 0, 62, 57
1, 279067, Control_c, 0, 64, 98
1, 279082, Control_c, 0, 64, 101
1, 279097, Control_c, 0, 64, 103
1, 279112, Control_c, 0, 64, 104
1, 279127, Control_c, 0, 64, 104
1, 279245, Control_c, 0, 64, 104
1, 279274, Control_c, 0, 64, 103
1, 279289, Control_c, 0, 64, 102
1, 279300, Note_off_c, 0, 67, 30
1, 279302, Note_on_c, 0, 55, 44
1, 279304, Control_c, 0, 64, 100
1, 279319, Note_on_c, 0, 59, 39
1, 279319, Control_c, 0, 64, 97
1, 279334, Control_c, 0, 64, 93
1, 279348, Control_c, 0, 64, 88
1, 279356, Note_on_c, 0, 88, 52
1, 279363, Control_c, 0, 64, 83
1, 279378, Control_c, 0, 64, 77
1, 279392, Control_c, 0, 64, 71
1, 279407, Control_c, 0, 64, 67
1, 279416, Note_off_c, 0, 88, 59
1, 279422, Control_c, 0, 64, 67
1, 279437, Control_c, 0, 64, 68
1, 279449, Note_on_c, 0, 86, 51
1, 279452, Control_c, 0, 64, 69
1, 279466, Control_c, 0, 64, 71
1, 279480, Note_off_c, 0, 86, 59
1, 279481, Control_c, 0, 64, 72
1, 279496, Control_c, 0, 64, 74
1, 279507, Note_on_c, 0, 88, 51
1, 279511, Control_c, 0, 64, 75
1, 279526, Control_c, 0, 64, 78
1, 279536, Note_off_c, 0, 88, 65
1, 279541, Control_c, 0, 64, 80
1, 279556, Control_c, 0, 64, 83
1, 279570, Note_on_c, 0, 86, 48
1, 279571, Control_c, 0, 64, 85
1, 279585, Control_c, 0, 64, 87
1, 279593, Note_off_c, 0, 86, 59
1, 279600, Control_c, 0, 64, 88
1, 279610, Note_on_c, 0, 88, 61
1, 279615, Control_c, 0, 64, 88
1, 279630, Note_off_c, 0, 88, 63
1, 279630, Control_c, 0, 64, 89
1, 279633, Note_off_c, 0, 59, 36
1, 279643, Note_off_c, 0, 55, 35
1, 279653, Note_on_c, 0, 86, 58
1, 279675, Control_c, 0, 64, 89
1, 279679, Note_off_c, 0, 86, 60
1, 279697, Control_c, 0, 64, 89
1, 279708, Note_on_c, 0, 88, 68
1, 279730, Note_on_c, 0, 62, 52
1, 279730, Note_off_c, 0, 88, 60
1, 279753, Note_on_c, 0, 86, 64
1, 279793, Note_off_c, 0, 86, 62
1, 279799, Note_on_c, 0, 88, 73
1, 279819, Note_on_c, 0, 60, 61
1, 279827, Note_on_c, 0, 57, 58
1, 279830, Control_c, 0, 64, 88
1, 279839, Note_off_c, 0, 88, 57
1, 279843, Note_off_c, 0, 62, 38
1, 279845, Control_c, 0, 64, 88
1, 279858, Note_on_c, 0, 86, 60
1, 279860, Control_c, 0, 64, 87
1, 279875, Control_c, 0, 64, 84
1, 279890, Control_c, 0, 64, 79
1, 279905, Control_c, 0, 64, 74
1, 279906, Note_off_c, 0, 86, 63
1, 279912, Note_on_c, 0, 88, 67
1, 279919, Control_c, 0, 64, 66
1, 279934, Control_c, 0, 64, 54
1, 279949, Note_off_c, 0, 88, 60
1, 279949, Control_c, 0, 64, 14
1, 279964, Note_on_c, 0, 86, 64
1, 279964, Control_c, 0, 64, 34
1, 279979, Control_c, 0, 64, 54
1, 279994, Control_c, 0, 64, 62
1, 280009, Control_c, 0, 64, 65
1, 280015, Note_off_c, 0, 86, 66
1, 280018, Note_on_c, 0, 88, 71
1, 280023, Control_c, 0, 64, 67
1, 280038, Control_c, 0, 64, 69
1, 280053, Control_c, 0, 64, 73
1, 280063, Note_off_c, 0, 88, 60
1, 280068, Note_off_c, 0, 57, 55
1, 280068, Control_c, 0, 64, 78
1, 280074, Note_on_c, 0, 86, 63
1, 280083, Control_c, 0, 64, 82
1, 280083, Note_off_c, 0, 60, 58
1, 280097, Control_c, 0, 64, 85
1, 280112, Control_c, 0, 64, 87
1, 280127, Control_c, 0, 64, 89
1, 280129, Note_on_c, 0, 88, 68
1, 280129, Note_off_c, 0, 86, 66
1, 280142, Control_c, 0, 64, 91
1, 280157, Note_on_c, 0, 59, 60
1, 280157, Control_c, 0, 64, 92
1, 280161, Note_on_c, 0, 55, 53
1, 280171, Control_c, 0, 64, 93
1, 280179, Note_off_c, 0, 59, 62
1, 280186, Note_off_c, 0, 88, 64
1, 280187, Note_off_c, 0, 55, 59
1, 280193, Note_on_c, 0, 86, 66
1, 280243, Note_on_c, 0, 88, 67
1, 280244, Note_off_c, 0, 86, 66
1, 280271, Note_on_c, 0, 57, 56
1, 280274, Note_on_c, 0, 54, 61
1, 280275, Control_c, 0, 64, 92
1, 280289, Control_c, 0, 64, 90
1, 280298, Note_off_c, 0, 88, 63
1, 280304, Control_c, 0, 64, 86
1, 280309, Note_on_c, 0, 86, 66
1, 280319, Control_c, 0, 64, 80
1, 280334, Control_c, 0, 64, 72
1, 280349, Control_c, 0, 64, 59
1, 280358, Note_on_c, 0, 88, 63
1, 280359, Note_off_c, 0, 86, 64
1, 280364, Control_c, 0, 64, 0
1, 280405, Note_off_c, 0, 88, 60
1, 280418, Note_on_c, 0, 86, 67
1, 280423, Control_c, 0, 64, 43
1, 280445, Control_c, 0, 64, 59
1, 280460, Control_c, 0, 64, 64
1, 280471, Note_off_c, 0, 86, 64
1, 280476, Note_on_c, 0, 88, 60
1, 280476, Control_c, 0, 64, 67
1, 280491, Control_c, 0, 64, 69
1, 280506, Control_c, 0, 64, 72
1, 280514, Note_off_c, 0, 88, 63
1, 280520, Control_c, 0, 64, 76
1, 280528, Note_on_c, 0, 86, 68
1, 280536, Control_c, 0, 64, 80
1, 280551, Control_c, 0, 64, 83
1, 280566, Control_c, 0, 64, 86
1, 280577, Note_on_c, 0, 88, 69
1, 280578, Note_off_c, 0, 86, 66
1, 280581, Control_c, 0, 64, 88
1, 280595, Control_c, 0, 64, 89
1, 280610, Control_c, 0, 64, 91
1, 280620, Note_off_c, 0, 57, 50
1, 280625, Control_c, 0, 64, 91
1, 280626, Note_off_c, 0, 88, 59
1, 280635, Note_on_c, 0, 86, 65
1, 280654, Control_c, 0, 64, 92
1, 280683, Note_on_c, 0, 88, 65
1, 280683, Note_off_c, 0, 54, 38
1, 280683, Note_off_c, 0, 86, 66
1, 280722, Note_off_c, 0, 88, 61
1, 280743, Note_on_c, 0, 86, 68
1, 280758, Control_c, 0, 64, 91
1, 280766, Note_on_c, 0, 59, 70
1, 280772, Note_on_c, 0, 55, 66
1, 280773, Control_c, 0, 64, 91
1, 280787, Control_c, 0, 64, 88
1, 280795, Note_off_c, 0, 86, 66
1, 280802, Control_c, 0, 64, 83
1, 280804, Note_on_c, 0, 88, 60
1, 280817, Control_c, 0, 64, 74
1, 280832, Control_c, 0, 64, 64
1, 280841, Note_off_c, 0, 88, 63
1, 280846, Control_c, 0, 64, 0
1, 280858, Note_on_c, 0, 86, 63
1, 280905, Note_off_c, 0, 86, 65
1, 280912, Note_on_c, 0, 88, 59
1, 280921, Control_c, 0, 64, 31
1, 280936, Control_c, 0, 64, 55
1, 280951, Control_c, 0, 64, 63
1, 280951, Note_off_c, 0, 88, 60
1, 280966, Control_c, 0, 64, 66
1, 280969, Note_on_c, 0, 86, 65
1, 280981, Control_c, 0, 64, 69
1, 280995, Control_c, 0, 64, 72
1, 281010, Control_c, 0, 64, 77
1, 281016, Note_off_c, 0, 86, 64
1, 281018, Note_on_c, 0, 88, 63
1, 281025, Control_c, 0, 64, 81
1, 281039, Control_c, 0, 64, 85
1, 281054, Control_c, 0, 64, 88
1, 281059, Note_off_c, 0, 88, 60
1, 281069, Control_c, 0, 64, 91
1, 281073, Note_on_c, 0, 86, 61
1, 281084, Control_c, 0, 64, 93
1, 281099, Control_c, 0, 64, 95
1, 281113, Control_c, 0, 64, 95
1, 281125, Note_off_c, 0, 86, 65
1, 281132, Note_on_c, 0, 88, 64
1, 281165, Note_off_c, 0, 55, 58
1, 281166, Note_off_c, 0, 59, 55
1, 281171, Note_off_c, 0, 88, 56
1, 281195, Note_on_c, 0, 86, 65
1, 281239, Control_c, 0, 64, 94
1, 281247, Note_off_c, 0, 86, 65
1, 281254, Control_c, 0, 64, 92
1, 281258, Note_on_c, 0, 60, 71
1, 281263, Note_on_c, 0, 88, 66
1, 281270, Control_c, 0, 64, 86
1, 281279, Note_on_c, 0, 57, 53
1, 281285, Control_c, 0, 64, 78
1, 281300, Control_c, 0, 64, 66
1, 281300, Note_off_c, 0, 88, 61
1, 281314, Control_c, 0, 64, 0
1, 281320, Note_on_c, 0, 86, 60
1, 281363, Note_off_c, 0, 86, 64
1, 281374, Control_c, 0, 64, 32
1, 281378, Note_on_c, 0, 88, 62
1, 281388, Control_c, 0, 64, 59
1, 281403, Control_c, 0, 64, 65
1, 281416, Note_off_c, 0, 88, 61
1, 281418, Control_c, 0, 64, 68
1, 281433, Control_c, 0, 64, 73
1, 281434, Note_on_c, 0, 86, 61
1, 281448, Control_c, 0, 64, 78
1, 281462, Control_c, 0, 64, 83
1, 281477, Control_c, 0, 64, 87
1, 281485, Note_off_c, 0, 86, 63
1, 281492, Control_c, 0, 64, 91
1, 281494, Note_on_c, 0, 88, 62
1, 281507, Control_c, 0, 64, 94
1, 281522, Control_c, 0, 64, 97
1, 281532, Note_off_c, 0, 88, 62
1, 281537, Control_c, 0, 64, 99
1, 281548, Note_on_c, 0, 86, 57
1, 281549, Note_off_c, 0, 60, 54
1, 281551, Control_c, 0, 64, 100
1, 281566, Control_c, 0, 64, 101
1, 281595, Note_off_c, 0, 57, 36
1, 281600, Note_off_c, 0, 86, 64
1, 281610, Note_on_c, 0, 88, 60
1, 281649, Note_off_c, 0, 88, 62
1, 281666, Note_on_c, 0, 86, 55
1, 281714, Note_off_c, 0, 86, 60
1, 281729, Control_c, 0, 64, 100
1, 281737, Note_on_c, 0, 88, 59
1, 281744, Control_c, 0, 64, 98
1, 281759, Control_c, 0, 64, 95
1, 281760, Note_on_c, 0, 62, 62
1, 281762, Note_off_c, 0, 88, 58
1, 281770, Note_on_c, 0, 59, 56
1, 281774, Control_c, 0, 64, 87
1, 281781, Note_on_c, 0, 86, 50
1, 281788, Control_c, 0, 64, 78
1, 281803, Control_c, 0, 64, 69
1, 281818, Control_c, 0, 64, 49
1, 281822, Note_off_c, 0, 86, 63
1, 281833, Control_c, 0, 64, 0
1, 281839, Note_on_c, 0, 88, 62
1, 281875, Note_off_c, 0, 88, 62
1, 281877, Control_c, 0, 64, 42
1, 281892, Control_c, 0, 64, 57
1, 281896, Note_on_c, 0, 86, 56
1, 281907, Control_c, 0, 64, 64
1, 281922, Control_c, 0, 64, 67
1, 281943, Control_c, 0, 64, 70
1, 281948, Note_off_c, 0, 86, 63
1, 281958, Control_c, 0, 64, 75
1, 281967, Note_on_c, 0, 88, 55
1, 281973, Control_c, 0, 64, 80
1, 281988, Control_c, 0, 64, 84
1, 282003, Control_c, 0, 64, 87
1, 282003, Note_off_c, 0, 88, 63
1, 282018, Control_c, 0, 64, 90
1, 282020, Note_on_c, 0, 86, 52
1, 282033, Control_c, 0, 64, 92
1, 282041, Note_off_c, 0, 62, 44
1, 282048, Control_c, 0, 64, 95
1, 282062, Note_off_c, 0, 86, 63
1, 282063, Control_c, 0, 64, 97
1, 282078, Note_on_c, 0, 88, 58
1, 282078, Control_c, 0, 64, 97
1, 282112, Note_off_c, 0, 88, 52
1, 282125, Note_on_c, 0, 86, 56
1, 282170, Note_off_c, 0, 86, 63
1, 282194, Note_on_c, 0, 88, 61
1, 282208, Note_off_c, 0, 59, 34
1, 282218, Note_off_c, 0, 88, 56
1, 282237, Note_on_c, 0, 86, 55
1, 282241, Control_c, 0, 64, 97
1, 282271, Control_c, 0, 64, 96
1, 282283, Note_off_c, 0, 86, 63
1, 282286, Control_c, 0, 64, 95
1, 282291, Note_on_c, 0, 88, 67
1, 282293, Note_on_c, 0, 60, 53
1, 282300, Control_c, 0, 64, 91
1, 282309, Note_on_c, 0, 57, 54
1, 282315, Control_c, 0, 64, 85
1, 282326, Note_off_c, 0, 88, 59
1, 282330, Control_c, 0, 64, 76
1, 282344, Note_on_c, 0, 86, 58
1, 282345, Control_c, 0, 64, 63
1, 282359, Control_c, 0, 64, 0
1, 282397, Note_off_c, 0, 86, 64
1, 282404, Control_c, 0, 64, 34
1, 282410, Note_on_c, 0, 88, 57
1, 282418, Control_c, 0, 64, 57
1, 282433, Control_c, 0, 64, 64
1, 282436, Note_off_c, 0, 88, 59
1, 282448, Control_c, 0, 64, 68
1, 282453, Note_on_c, 0, 86, 57
1, 282463, Control_c, 0, 64, 71
1, 282478, Control_c, 0, 64, 76
1, 282492, Control_c, 0, 64, 81
1, 282499, Note_off_c, 0, 86, 64
1, 282507, Control_c, 0, 64, 85
1, 282510, Note_on_c, 0, 88, 67
1, 282522, Control_c, 0, 64, 88
1, 282537, Control_c, 0, 64, 90
1, 282540, Note_off_c, 0, 88, 59
1, 282552, Control_c, 0, 64, 92
1, 282559, Note_on_c, 0, 86, 58
1, 282566, Control_c, 0, 64, 93
1, 282581, Control_c, 0, 64, 94
1, 282596, Control_c, 0, 64, 95
1, 282612, Note_off_c, 0, 86, 64
1, 282616, Note_on_c, 0, 88, 63
1, 282648, Note_off_c, 0, 60, 37
1, 282653, Note_off_c, 0, 88, 60
1, 282662, Note_on_c, 0, 86, 52
1, 282722, Control_c, 0, 64, 96
1, 282724, Note_off_c, 0, 86, 65
1, 282737, Control_c, 0, 64, 97
1, 282738, Note_on_c, 0, 88, 58
1, 282751, Control_c, 0, 64, 98
1, 282775, Note_off_c, 0, 88, 63
1, 282780, Control_c, 0, 64, 95
1, 282784, Note_on_c, 0, 55, 53
1, 282784, Note_on_c, 0, 59, 52
1, 282787, Note_off_c, 0, 57, 24
1, 282787, Note_on_c, 0, 86, 57
1, 282795, Control_c, 0, 64, 86
1, 282810, Control_c, 0, 64, 70
1, 282824, Control_c, 0, 64, 34
1, 282829, Note_off_c, 0, 86, 62
1, 282839, Control_c, 0, 64, 0
1, 282841, Note_on_c, 0, 88, 67
1, 282870, Control_c, 0, 64, 59
1, 282879, Note_off_c, 0, 88, 60
1, 282885, Control_c, 0, 64, 66
1, 282896, Note_on_c, 0, 86, 61
1, 282900, Control_c, 0, 64, 71
1, 282914, Control_c, 0, 64, 79
1, 282929, Control_c, 0, 64, 88
1, 282944, Control_c, 0, 64, 97
1, 282959, Control_c, 0, 64, 106
1, 282974, Control_c, 0, 64, 117
1, 282974, Control_c, 0, 67, 119
1, 282988, Control_c, 0, 64, 127
1, 282988, Control_c, 0, 67, 102
1, 282999, Note_off_c, 0, 86, 63
1, 283002, Note_off_c, 0, 55, 60
1, 283003, Control_c, 0, 67, 74
1, 283018, Control_c, 0, 67, 41
1, 283031, Note_on_c, 0, 85, 61
1, 283033, Control_c, 0, 67, 0
1, 283093, Note_off_c, 0, 59, 55
1, 283130, Note_on_c, 0, 86, 69
1, 283154, Note_off_c, 0, 86, 70
1, 283166, Note_off_c, 0, 85, 37
1, 283343, Note_on_c, 0, 79, 88
1, 283351, Note_on_c, 0, 67, 79
1, 283354, Note_on_c, 0, 62, 64
1, 283357, Note_on_c, 0, 59, 61
1, 283358, Control_c, 0, 64, 106
1, 283373, Control_c, 0, 64, 88
1, 283388, Control_c, 0, 64, 70
1, 283403, Control_c, 0, 64, 0
1, 283455, Control_c, 0, 64, 19
1, 283470, Control_c, 0, 64, 58
1, 283485, Control_c, 0, 64, 66
1, 283500, Control_c, 0, 64, 72
1, 283514, Control_c, 0, 64, 79
1, 283529, Control_c, 0, 64, 87
1, 283544, Control_c, 0, 64, 94
1, 283559, Note_off_c, 0, 79, 55
1, 283559, Control_c, 0, 64, 102
1, 283573, Control_c, 0, 64, 110
1, 283587, Note_off_c, 0, 67, 55
1, 283588, Control_c, 0, 64, 127
1, 283671, Note_off_c, 0, 62, 56
1, 283782, Note_off_c, 0, 59, 53
1, 283870, Control_c, 0, 64, 108
1, 283872, Note_on_c, 0, 66, 90
1, 283872, Note_on_c, 0, 78, 88
1, 283884, Note_on_c, 0, 63, 61
1, 283885, Control_c, 0, 64, 87
1, 283887, Note_on_c, 0, 60, 60
1, 283888, Note_on_c, 0, 57, 60
1, 283900, Control_c, 0, 64, 69
1, 283915, Control_c, 0, 64, 0
1, 283974, Control_c, 0, 64, 52
1, 283988, Control_c, 0, 64, 65
1, 284003, Control_c, 0, 64, 73
1, 284018, Control_c, 0, 64, 84
1, 284033, Control_c, 0, 64, 98
1, 284048, Control_c, 0, 64, 127
1, 284051, Note_off_c, 0, 78, 60
1, 284052, Note_off_c, 0, 66, 58
1, 284167, Note_off_c, 0, 63, 50
1, 284245, Note_off_c, 0, 57, 48
1, 284283, Note_off_c, 0, 60, 38
1, 284405, Note_on_c, 0, 76, 79
1, 284408, Note_on_c, 0, 64, 77
1, 284412, Control_c, 0, 64, 109
1, 284417, Note_on_c, 0, 59, 56
1, 284424, Note_on_c, 0, 55, 54
1, 284427, Control_c, 0, 64, 94
1, 284441, Control_c, 0, 64, 79
1, 284456, Control_c, 0, 64, 67
1, 284472, Control_c, 0, 64, 0
1, 284680, Control_c, 0, 67, 25
1, 284694, Control_c, 0, 67, 57
1, 284709, Control_c, 0, 67, 95
1, 284724, Control_c, 0, 67, 127
1, 284744, Note_off_c, 0, 55, 60
1, 284750, Note_off_c, 0, 59, 51
1, 284796, Note_off_c, 0, 76, 51
1, 284827, Note_off_c, 0, 64, 52
1, 285268, Note_on_c, 0, 71, 45
1, 285503, Note_off_c, 0, 71, 57
1, 285529, Note_on_c, 0, 76, 49
1, 285535, Note_on_c, 0, 55, 34
1, 285548, Note_on_c, 0, 64, 29
1, 285551, Note_on_c, 0, 59, 27
1, 285576, Control_c, 0, 64, 23
1, 285590, Control_c, 0, 64, 50
1, 285605, Control_c, 0, 64, 62
1, 285620, Control_c, 0, 64, 66
1, 285634, Control_c, 0, 64, 68
1, 285649, Control_c, 0, 64, 71
1, 285664, Control_c, 0, 64, 75
1, 285687, Control_c, 0, 64, 78
1, 285702, Control_c, 0, 64, 82
1, 285716, Control_c, 0, 64, 86
1, 285731, Control_c, 0, 64, 89
1, 285736, Note_off_c, 0, 76, 32
1, 285746, Control_c, 0, 64, 92
1, 285760, Control_c, 0, 64, 95
1, 285775, Control_c, 0, 64, 97
1, 285790, Control_c, 0, 64, 98
1, 285805, Control_c, 0, 64, 99
1, 285810, Note_off_c, 0, 59, 35
1, 285810, Note_off_c, 0, 64, 40
1, 285820, Control_c, 0, 64, 100
1, 285828, Note_off_c, 0, 55, 30
1, 285997, Control_c, 0, 64, 99
1, 286012, Control_c, 0, 64, 98
1, 286027, Control_c, 0, 64, 93
1, 286028, Note_on_c, 0, 74, 52
1, 286035, Note_on_c, 0, 62, 42
1, 286040, Note_on_c, 0, 59, 37
1, 286042, Control_c, 0, 64, 86
1, 286057, Control_c, 0, 64, 76
1, 286059, Note_on_c, 0, 53, 34
1, 286059, Note_on_c, 0, 55, 34
1, 286072, Control_c, 0, 64, 67
1, 286087, Control_c, 0, 64, 49
1, 286102, Control_c, 0, 64, 0
1, 286117, Control_c, 0, 64, 43
1, 286132, Control_c, 0, 64, 61
1, 286147, Control_c, 0, 64, 66
1, 286161, Control_c, 0, 64, 69
1, 286176, Control_c, 0, 64, 72
1, 286191, Control_c, 0, 64, 77
1, 286206, Control_c, 0, 64, 81
1, 286214, Note_off_c, 0, 74, 34
1, 286221, Control_c, 0, 64, 85
1, 286236, Control_c, 0, 64, 89
1, 286250, Control_c, 0, 64, 91
1, 286265, Control_c, 0, 64, 92
1, 286280, Control_c, 0, 64, 92
1, 286295, Control_c, 0, 64, 93
1, 286296, Note_off_c, 0, 59, 26
1, 286306, Note_off_c, 0, 62, 30
1, 286352, Note_off_c, 0, 55, 32
1, 286374, Note_off_c, 0, 53, 41
1, 286495, Control_c, 0, 64, 92
1, 286539, Control_c, 0, 64, 91
1, 286551, Note_on_c, 0, 72, 37
1, 286554, Control_c, 0, 64, 90
1, 286559, Note_on_c, 0, 60, 34
1, 286568, Note_on_c, 0, 55, 32
1, 286569, Control_c, 0, 64, 87
1, 286582, Note_on_c, 0, 52, 33
1, 286583, Control_c, 0, 64, 83
1, 286598, Control_c, 0, 64, 78
1, 286613, Control_c, 0, 64, 71
1, 286628, Control_c, 0, 64, 60
1, 286643, Control_c, 0, 64, 0
1, 286969, Control_c, 0, 67, 124
1, 286984, Control_c, 0, 67, 112
1, 286988, Note_off_c, 0, 55, 34
1, 286999, Control_c, 0, 67, 96
1, 287007, Note_off_c, 0, 52, 33
1, 287014, Control_c, 0, 67, 75
1, 287029, Control_c, 0, 67, 54
1, 287044, Control_c, 0, 67, 35
1, 287055, Note_off_c, 0, 72, 42
1, 287059, Control_c, 0, 67, 14
1, 287073, Control_c, 0, 67, 0
1, 287101, Note_off_c, 0, 60, 41
1, 287333, Control_c, 0, 64, 42
1, 287348, Control_c, 0, 64, 54
1, 287363, Control_c, 0, 64, 61
1, 287378, Control_c, 0, 64, 64
1, 287393, Control_c, 0, 64, 66
1, 287407, Control_c, 0, 64, 69
1, 287422, Control_c, 0, 64, 73
1, 287437, Control_c, 0, 64, 76
1, 287452, Control_c, 0, 64, 79
1, 287467, Control_c, 0, 64, 83
1, 287480, Note_on_c, 0, 67, 77
1, 287481, Control_c, 0, 64, 86
1, 287496, Control_c, 0, 64, 89
1, 287511, Control_c, 0, 64, 93
1, 287526, Control_c, 0, 64, 96
1, 287540, Control_c, 0, 64, 99
1, 287555, Control_c, 0, 64, 102
1, 287570, Control_c, 0, 64, 105
1, 287585, Control_c, 0, 64, 107
1, 287599, Control_c, 0, 64, 108
1, 287614, Control_c, 0, 64, 108
1, 287634, Note_off_c, 0, 67, 60
1, 287726, Note_on_c, 0, 72, 77
1, 287734, Control_c, 0, 64, 108
1, 287738, Note_on_c, 0, 60, 67
1, 287744, Note_on_c, 0, 52, 53
1, 287748, Note_on_c, 0, 55, 52
1, 287749, Control_c, 0, 64, 107
1, 287764, Control_c, 0, 64, 102
1, 287778, Control_c, 0, 64, 94
1, 287793, Control_c, 0, 64, 84
1, 287808, Control_c, 0, 64, 74
1, 287822, Control_c, 0, 64, 64
1, 287837, Control_c, 0, 64, 0
1, 287882, Control_c, 0, 64, 47
1, 287896, Control_c, 0, 64, 59
1, 287911, Control_c, 0, 64, 64
1, 287934, Control_c, 0, 64, 67
1, 287949, Control_c, 0, 64, 70
1, 287963, Control_c, 0, 64, 74
1, 287978, Control_c, 0, 64, 79
1, 287993, Control_c, 0, 64, 83
1, 288008, Control_c, 0, 64, 87
1, 288014, Note_off_c, 0, 55, 51
1, 288023, Control_c, 0, 64, 90
1, 288037, Control_c, 0, 64, 94
1, 288052, Control_c, 0, 64, 97
1, 288059, Note_off_c, 0, 72, 33
1, 288067, Control_c, 0, 64, 99
1, 288082, Control_c, 0, 64, 101
1, 288090, Note_off_c, 0, 60, 39
1, 288092, Note_off_c, 0, 52, 51
1, 288097, Control_c, 0, 64, 102
1, 288252, Note_on_c, 0, 71, 78
1, 288260, Control_c, 0, 64, 101
1, 288263, Note_on_c, 0, 59, 62
1, 288275, Control_c, 0, 64, 97
1, 288275, Note_on_c, 0, 50, 54
1, 288280, Note_on_c, 0, 56, 54
1, 288288, Note_on_c, 0, 53, 50
1, 288290, Control_c, 0, 64, 90
1, 288304, Control_c, 0, 64, 81
1, 288319, Control_c, 0, 64, 69
1, 288334, Control_c, 0, 64, 0
1, 288393, Control_c, 0, 64, 50
1, 288405, Note_off_c, 0, 59, 52
1, 288408, Control_c, 0, 64, 63
1, 288423, Control_c, 0, 64, 67
1, 288437, Control_c, 0, 64, 73
1, 288453, Control_c, 0, 64, 78
1, 288468, Control_c, 0, 64, 84
1, 288483, Control_c, 0, 64, 89
1, 288498, Control_c, 0, 64, 93
1, 288513, Control_c, 0, 64, 97
1, 288527, Control_c, 0, 64, 100
1, 288542, Control_c, 0, 64, 102
1, 288557, Note_off_c, 0, 56, 37
1, 288557, Control_c, 0, 64, 103
1, 288571, Control_c, 0, 64, 104
1, 288586, Control_c, 0, 64, 104
1, 288604, Note_off_c, 0, 50, 35
1, 288659, Note_off_c, 0, 71, 60
1, 288671, Note_off_c, 0, 53, 57
1, 288713, Control_c, 0, 64, 104
1, 288727, Control_c, 0, 64, 103
1, 288742, Control_c, 0, 64, 101
1, 288750, Note_on_c, 0, 69, 66
1, 288755, Note_on_c, 0, 57, 49
1, 288757, Control_c, 0, 64, 98
1, 288771, Control_c, 0, 64, 94
1, 288775, Note_on_c, 0, 48, 44
1, 288780, Note_on_c, 0, 52, 46
1, 288785, Control_c, 0, 64, 89
1, 288800, Control_c, 0, 64, 83
1, 288815, Control_c, 0, 64, 75
1, 288830, Control_c, 0, 64, 68
1, 288845, Control_c, 0, 64, 52
1, 288859, Control_c, 0, 64, 0
1, 289018, Note_on_c, 0, 76, 65
1, 289101, Note_off_c, 0, 69, 50
1, 289280, Note_on_c, 0, 74, 70
1, 289381, Note_off_c, 0, 76, 33
1, 289395, Note_on_c, 0, 72, 72
1, 289414, Note_off_c, 0, 48, 42
1, 289482, Note_off_c, 0, 74, 53
1, 289490, Note_off_c, 0, 57, 43
1, 289507, Note_on_c, 0, 71, 76
1, 289557, Note_off_c, 0, 72, 55
1, 289607, Note_on_c, 0, 69, 75
1, 289628, Note_off_c, 0, 71, 66
1, 289727, Note_on_c, 0, 67, 73
1, 289748, Note_on_c, 0, 59, 48
1, 289751, Note_on_c, 0, 50, 42
1, 289786, Note_off_c, 0, 69, 54
1, 289805, Note_off_c, 0, 52, 32
1, 290274, Note_on_c, 0, 69, 66
1, 290275, Note_on_c, 0, 54, 56
1, 290279, Note_off_c, 0, 59, 54
1, 290290, Note_off_c, 0, 67, 61
1, 290358, Control_c, 0, 64, 46
1, 290373, Control_c, 0, 64, 61
1, 290388, Control_c, 0, 64, 66
1, 290403, Control_c, 0, 64, 70
1, 290418, Control_c, 0, 64, 74
1, 290427, Note_off_c, 0, 50, 58
1, 290432, Control_c, 0, 64, 80
1, 290447, Control_c, 0, 64, 85
1, 290462, Control_c, 0, 64, 89
1, 290477, Control_c, 0, 64, 92
1, 290492, Control_c, 0, 64, 94
1, 290493, Note_off_c, 0, 54, 65
1, 290506, Control_c, 0, 64, 96
1, 290521, Control_c, 0, 64, 97
1, 290536, Control_c, 0, 64, 98
1, 290565, Control_c, 0, 64, 98
1, 290639, Control_c, 0, 64, 98
1, 290758, Control_c, 0, 64, 97
1, 290773, Control_c, 0, 64, 96
1, 290788, Control_c, 0, 64, 95
1, 290803, Control_c, 0, 64, 91
1, 290812, Note_on_c, 0, 70, 59
1, 290817, Control_c, 0, 64, 85
1, 290824, Note_on_c, 0, 54, 44
1, 290832, Control_c, 0, 64, 78
1, 290833, Note_on_c, 0, 43, 34
1, 290847, Control_c, 0, 64, 68
1, 290862, Control_c, 0, 64, 47
1, 290871, Note_off_c, 0, 69, 53
1, 290877, Control_c, 0, 64, 0
1, 290944, Control_c, 0, 64, 49
1, 290959, Control_c, 0, 64, 61
1, 290974, Control_c, 0, 64, 65
1, 290988, Control_c, 0, 64, 68
1, 291003, Control_c, 0, 64, 72
1, 291018, Control_c, 0, 64, 76
1, 291033, Control_c, 0, 64, 78
1, 291048, Control_c, 0, 64, 81
1, 291062, Control_c, 0, 64, 83
1, 291077, Control_c, 0, 64, 85
1, 291092, Control_c, 0, 64, 86
1, 291178, Note_off_c, 0, 54, 42
1, 291270, Control_c, 0, 64, 85
1, 291285, Control_c, 0, 64, 85
1, 291300, Control_c, 0, 64, 84
1, 291315, Control_c, 0, 64, 84
1, 291329, Control_c, 0, 64, 83
1, 291344, Control_c, 0, 64, 81
1, 291359, Control_c, 0, 64, 79
1, 291366, Note_off_c, 0, 70, 51
1, 291373, Control_c, 0, 64, 75
1, 291374, Note_on_c, 0, 71, 47
1, 291384, Note_on_c, 0, 55, 42
1, 291388, Control_c, 0, 64, 72
1, 291403, Control_c, 0, 64, 67
1, 291418, Control_c, 0, 64, 60
1, 291433, Control_c, 0, 64, 0
1, 291447, Control_c, 0, 67, 24
1, 291462, Control_c, 0, 67, 46
1, 291477, Control_c, 0, 67, 72
1, 291491, Control_c, 0, 67, 96
1, 291506, Control_c, 0, 67, 118
1, 291521, Control_c, 0, 67, 127
1, 291549, Note_off_c, 0, 43, 42
1, 291551, Control_c, 0, 64, 44
1, 291566, Control_c, 0, 64, 59
1, 291581, Control_c, 0, 64, 64
1, 291596, Control_c, 0, 64, 68
1, 291611, Control_c, 0, 64, 72
1, 291625, Control_c, 0, 64, 75
1, 291641, Control_c, 0, 64, 78
1, 291656, Control_c, 0, 64, 81
1, 291678, Control_c, 0, 64, 84
1, 291693, Control_c, 0, 64, 86
1, 291697, Note_off_c, 0, 55, 50
1, 291708, Control_c, 0, 64, 87
1, 291723, Control_c, 0, 64, 88
1, 291930, Control_c, 0, 64, 87
1, 291945, Control_c, 0, 64, 87
1, 291955, Note_off_c, 0, 71, 38
1, 291959, Note_on_c, 0, 79, 48
1, 291959, Control_c, 0, 64, 86
1, 291974, Control_c, 0, 64, 85
1, 291977, Note_on_c, 0, 62, 35
1, 291987, Note_on_c, 0, 59, 37
1, 291989, Control_c, 0, 64, 83
1, 292004, Control_c, 0, 64, 80
1, 292019, Control_c, 0, 64, 75
1, 292034, Control_c, 0, 64, 68
1, 292049, Control_c, 0, 64, 48
1, 292064, Control_c, 0, 64, 0
1, 292122, Control_c, 0, 64, 44
1, 292137, Control_c, 0, 64, 60
1, 292152, Control_c, 0, 64, 64
1, 292167, Control_c, 0, 64, 68
1, 292182, Control_c, 0, 64, 71
1, 292196, Control_c, 0, 64, 75
1, 292211, Control_c, 0, 64, 79
1, 292226, Control_c, 0, 64, 81
1, 292241, Control_c, 0, 64, 84
1, 292256, Control_c, 0, 64, 85
1, 292269, Note_off_c, 0, 62, 40
1, 292270, Control_c, 0, 64, 86
1, 292285, Control_c, 0, 64, 87
1, 292300, Control_c, 0, 64, 88
1, 292358, Note_off_c, 0, 59, 36
1, 292386, Note_off_c, 0, 79, 57
1, 292513, Note_on_c, 0, 79, 54
1, 292515, Note_on_c, 0, 60, 37
1, 292516, Control_c, 0, 64, 87
1, 292523, Note_on_c, 0, 57, 38
1, 292523, Note_on_c, 0, 63, 36
1, 292531, Control_c, 0, 64, 85
1, 292544, Note_off_c, 0, 79, 57
1, 292545, Control_c, 0, 64, 81
1, 292560, Control_c, 0, 64, 75
1, 292575, Control_c, 0, 64, 68
1, 292577, Note_on_c, 0, 78, 46
1, 292590, Control_c, 0, 64, 54
1, 292605, Control_c, 0, 64, 0
1, 292606, Note_off_c, 0, 78, 55
1, 292646, Note_on_c, 0, 79, 30
1, 292649, Control_c, 0, 64, 37
1, 292664, Control_c, 0, 64, 56
1, 292678, Note_on_c, 0, 78, 51
1, 292679, Control_c, 0, 64, 63
1, 292693, Control_c, 0, 64, 65
1, 292702, Note_off_c, 0, 78, 57
1, 292704, Note_off_c, 0, 79, 0
1, 292704, Note_on_c, 0, 79, 34
1, 292708, Control_c, 0, 64, 68
1, 292723, Control_c, 0, 64, 72
1, 292738, Control_c, 0, 64, 76
1, 292752, Note_off_c, 0, 79, 62
1, 292752, Control_c, 0, 64, 80
1, 292767, Control_c, 0, 64, 82
1, 292772, Note_on_c, 0, 78, 57
1, 292782, Control_c, 0, 64, 84
1, 292793, Note_off_c, 0, 78, 61
1, 292797, Control_c, 0, 64, 85
1, 292808, Note_on_c, 0, 79, 59
1, 292812, Control_c, 0, 64, 86
1, 292827, Control_c, 0, 64, 87
1, 292842, Control_c, 0, 64, 87
1, 292851, Note_off_c, 0, 79, 61
1, 292858, Note_on_c, 0, 78, 70
1, 292889, Note_off_c, 0, 63, 29
1, 292895, Note_off_c, 0, 78, 60
1, 292906, Note_on_c, 0, 79, 56
1, 292916, Control_c, 0, 64, 87
1, 292916, Note_off_c, 0, 57, 37
1, 292931, Control_c, 0, 64, 86
1, 292945, Control_c, 0, 64, 84
1, 292946, Note_off_c, 0, 79, 62
1, 292960, Control_c, 0, 64, 80
1, 292964, Note_on_c, 0, 78, 64
1, 292973, Note_off_c, 0, 60, 44
1, 292975, Control_c, 0, 64, 73
1, 292990, Control_c, 0, 64, 64
1, 293005, Control_c, 0, 64, 0
1, 293019, Note_off_c, 0, 78, 61
1, 293053, Note_on_c, 0, 76, 49
1, 293070, Note_on_c, 0, 64, 26
1, 293080, Note_on_c, 0, 59, 26
1, 293082, Note_on_c, 0, 55, 27
1, 293107, Note_off_c, 0, 76, 54
1, 293425, Note_off_c, 0, 59, 39
1, 293438, Note_off_c, 0, 55, 42
1, 293449, Note_off_c, 0, 64, 42
1, 293664, Control_c, 0, 67, 126
1, 293679, Control_c, 0, 67, 111
1, 293694, Control_c, 0, 67, 85
1, 293709, Control_c, 0, 67, 42
1, 293724, Control_c, 0, 67, 0
1, 293828, Control_c, 0, 64, 49
1, 293842, Control_c, 0, 64, 63
1, 293857, Control_c, 0, 64, 69
1, 293872, Control_c, 0, 64, 76
1, 293887, Control_c, 0, 64, 87
1, 293901, Control_c, 0, 64, 100
1, 293924, Control_c, 0, 64, 116
1, 293939, Control_c, 0, 64, 127
1, 293971, Note_on_c, 0, 83, 88
1, 294228, Note_on_c, 0, 88, 90
1, 294236, Note_on_c, 0, 71, 65
1, 294242, Note_on_c, 0, 67, 62
1, 294276, Note_off_c, 0, 83, 56
1, 294295, Control_c, 0, 64, 105
1, 294310, Control_c, 0, 64, 89
1, 294324, Control_c, 0, 64, 72
1, 294339, Control_c, 0, 64, 42
1, 294354, Control_c, 0, 64, 0
1, 294398, Control_c, 0, 64, 52
1, 294413, Control_c, 0, 64, 64
1, 294428, Control_c, 0, 64, 71
1, 294443, Control_c, 0, 64, 78
1, 294458, Control_c, 0, 64, 87
1, 294472, Control_c, 0, 64, 95
1, 294487, Control_c, 0, 64, 103
1, 294502, Control_c, 0, 64, 112
1, 294517, Control_c, 0, 64, 127
1, 294561, Note_off_c, 0, 71, 54
1, 294609, Note_off_c, 0, 67, 50
1, 294618, Note_off_c, 0, 88, 60
1, 294738, Note_on_c, 0, 88, 75
1, 294748, Note_on_c, 0, 71, 62
1, 294749, Note_on_c, 0, 67, 55
1, 294752, Note_on_c, 0, 65, 58
1, 294761, Control_c, 0, 64, 117
1, 294776, Control_c, 0, 64, 95
1, 294788, Note_off_c, 0, 88, 63
1, 294791, Control_c, 0, 64, 79
1, 294803, Note_on_c, 0, 86, 70
1, 294805, Control_c, 0, 64, 56
1, 294820, Control_c, 0, 64, 0
1, 294841, Note_off_c, 0, 86, 60
1, 294855, Note_on_c, 0, 88, 65
1, 294881, Control_c, 0, 64, 47
1, 294890, Note_off_c, 0, 88, 64
1, 294895, Control_c, 0, 64, 66
1, 294901, Note_on_c, 0, 86, 75
1, 294910, Control_c, 0, 64, 75
1, 294925, Control_c, 0, 64, 87
1, 294939, Control_c, 0, 64, 101
1, 294954, Note_off_c, 0, 86, 64
1, 294954, Control_c, 0, 64, 119
1, 294955, Note_on_c, 0, 88, 76
1, 294969, Control_c, 0, 64, 127
1, 295005, Note_off_c, 0, 88, 64
1, 295012, Note_on_c, 0, 86, 69
1, 295050, Note_on_c, 0, 88, 72
1, 295056, Note_off_c, 0, 86, 63
1, 295077, Note_off_c, 0, 71, 60
1, 295105, Note_on_c, 0, 86, 74
1, 295107, Note_off_c, 0, 88, 65
1, 295146, Control_c, 0, 64, 108
1, 295158, Note_on_c, 0, 88, 75
1, 295158, Note_off_c, 0, 86, 65
1, 295161, Control_c, 0, 64, 77
1, 295165, Note_off_c, 0, 67, 37
1, 295176, Control_c, 0, 64, 0
1, 295203, Note_off_c, 0, 65, 56
1, 295206, Note_on_c, 0, 86, 70
1, 295211, Note_off_c, 0, 88, 66
1, 295263, Note_off_c, 0, 86, 66
1, 295277, Note_on_c, 0, 84, 71
1, 295291, Note_on_c, 0, 67, 42
1, 295295, Note_on_c, 0, 72, 48
1, 295316, Note_on_c, 0, 64, 36
1, 295367, Note_off_c, 0, 84, 0
1, 295387, Note_on_c, 0, 84, 29
1, 295568, Control_c, 0, 67, 16
1, 295571, Note_off_c, 0, 84, 52
1, 295583, Control_c, 0, 67, 49
1, 295598, Control_c, 0, 67, 90
1, 295613, Control_c, 0, 67, 127
1, 295740, Note_off_c, 0, 72, 43
1, 295827, Note_off_c, 0, 67, 36
1, 295876, Note_off_c, 0, 64, 36
1, 296319, Note_on_c, 0, 79, 44
1, 296555, Note_off_c, 0, 79, 54
1, 296592, Note_on_c, 0, 84, 40
1, 296597, Note_on_c, 0, 67, 36
1, 296599, Control_c, 0, 64, 34
1, 296613, Note_on_c, 0, 64, 29
1, 296614, Control_c, 0, 64, 53
1, 296629, Control_c, 0, 64, 62
1, 296644, Control_c, 0, 64, 65
1, 296659, Control_c, 0, 64, 67
1, 296673, Control_c, 0, 64, 70
1, 296688, Control_c, 0, 64, 73
1, 296703, Control_c, 0, 64, 77
1, 296717, Control_c, 0, 64, 80
1, 296732, Control_c, 0, 64, 83
1, 296747, Control_c, 0, 64, 85
1, 296762, Control_c, 0, 64, 87
1, 296777, Control_c, 0, 64, 89
1, 296791, Control_c, 0, 64, 90
1, 296806, Control_c, 0, 64, 91
1, 296821, Control_c, 0, 64, 92
1, 296853, Note_off_c, 0, 67, 36
1, 296957, Note_off_c, 0, 84, 51
1, 296970, Note_off_c, 0, 64, 43
1, 297052, Control_c, 0, 64, 91
1, 297066, Control_c, 0, 64, 91
1, 297081, Control_c, 0, 64, 90
1, 297096, Control_c, 0, 64, 89
1, 297110, Control_c, 0, 64, 89
1, 297111, Note_on_c, 0, 84, 49
1, 297125, Note_on_c, 0, 65, 38
1, 297125, Control_c, 0, 64, 88
1, 297127, Note_on_c, 0, 68, 39
1, 297131, Note_on_c, 0, 62, 40
1, 297140, Control_c, 0, 64, 86
1, 297155, Note_off_c, 0, 84, 63
1, 297155, Control_c, 0, 64, 83
1, 297170, Control_c, 0, 64, 79
1, 297185, Control_c, 0, 64, 72
1, 297190, Note_on_c, 0, 83, 48
1, 297200, Control_c, 0, 64, 66
1, 297215, Control_c, 0, 64, 55
1, 297218, Note_off_c, 0, 83, 58
1, 297230, Control_c, 0, 64, 37
1, 297245, Control_c, 0, 64, 49
1, 297247, Note_on_c, 0, 84, 57
1, 297260, Control_c, 0, 64, 59
1, 297275, Control_c, 0, 64, 63
1, 297277, Note_off_c, 0, 84, 67
1, 297289, Control_c, 0, 64, 65
1, 297304, Control_c, 0, 64, 66
1, 297306, Note_on_c, 0, 83, 56
1, 297319, Control_c, 0, 64, 68
1, 297325, Note_off_c, 0, 83, 64
1, 297334, Control_c, 0, 64, 70
1, 297348, Note_on_c, 0, 84, 58
1, 297349, Control_c, 0, 64, 73
1, 297364, Control_c, 0, 64, 75
1, 297379, Control_c, 0, 64, 77
1, 297388, Note_off_c, 0, 84, 61
1, 297393, Control_c, 0, 64, 78
1, 297396, Note_on_c, 0, 83, 64
1, 297410, Note_off_c, 0, 68, 29
1, 297423, Control_c, 0, 64, 78
1, 297425, Note_off_c, 0, 83, 50
1, 297445, Note_on_c, 0, 84, 46
1, 297478, Note_on_c, 0, 83, 45
1, 297478, Note_off_c, 0, 84, 50
1, 297487, Note_off_c, 0, 62, 31
1, 297546, Note_on_c, 0, 84, 12
1, 297553, Note_off_c, 0, 83, 0
1, 297553, Note_on_c, 0, 83, 33
1, 297556, Control_c, 0, 64, 78
1, 297571, Control_c, 0, 64, 77
1, 297572, Note_off_c, 0, 65, 43
1, 297586, Control_c, 0, 64, 75
1, 297591, Note_off_c, 0, 84, 37
1, 297601, Control_c, 0, 64, 73
1, 297606, Note_off_c, 0, 83, 65
1, 297615, Control_c, 0, 64, 69
1, 297630, Control_c, 0, 64, 63
1, 297636, Note_on_c, 0, 81, 62
1, 297645, Control_c, 0, 64, 0
1, 297675, Note_on_c, 0, 69, 35
1, 297680, Note_on_c, 0, 64, 33
1, 297689, Note_on_c, 0, 60, 23
1, 297920, Note_on_c, 0, 88, 57
1, 297944, Note_off_c, 0, 81, 52
1, 298216, Note_on_c, 0, 86, 57
1, 298228, Note_off_c, 0, 60, 45
1, 298298, Note_off_c, 0, 88, 39
1, 298330, Note_on_c, 0, 84, 65
1, 298336, Note_off_c, 0, 69, 35
1, 298373, Note_off_c, 0, 64, 36
1, 298378, Note_off_c, 0, 86, 58
1, 298442, Note_on_c, 0, 83, 72
1, 298480, Note_off_c, 0, 84, 59
1, 298540, Note_off_c, 0, 83, 65
1, 298541, Note_on_c, 0, 81, 66
1, 298671, Note_off_c, 0, 81, 56
1, 298676, Note_on_c, 0, 71, 36
1, 298682, Note_on_c, 0, 79, 60
1, 298684, Note_on_c, 0, 67, 38
1, 298696, Note_on_c, 0, 62, 28
1, 298711, Note_off_c, 0, 79, 62
1, 298940, Note_on_c, 0, 81, 59
1, 298979, Note_off_c, 0, 81, 58
1, 299055, Note_off_c, 0, 67, 28
1, 299065, Note_off_c, 0, 71, 31
1, 299142, Note_off_c, 0, 62, 21
1, 299199, Note_on_c, 0, 82, 77
1, 299257, Note_off_c, 0, 82, 61
1, 299441, Note_on_c, 0, 83, 79
1, 299507, Note_off_c, 0, 83, 62
1, 299682, Note_on_c, 0, 84, 82
1, 299686, Note_on_c, 0, 71, 58
1, 299692, Note_on_c, 0, 67, 58
1, 299701, Note_on_c, 0, 62, 48
1, 299745, Note_off_c, 0, 84, 61
1, 299930, Note_on_c, 0, 85, 90
1, 300010, Note_off_c, 0, 85, 59
1, 300144, Note_off_c, 0, 71, 29
1, 300184, Note_on_c, 0, 86, 87
1, 300246, Note_off_c, 0, 67, 25
1, 300246, Note_off_c, 0, 86, 63
1, 300452, Note_on_c, 0, 87, 85
1, 300527, Note_off_c, 0, 62, 30
1, 300763, Note_on_c, 0, 72, 53
1, 300786, Note_on_c, 0, 67, 48
1, 300788, Note_on_c, 0, 62, 39
1, 300996, Note_on_c, 0, 88, 66
1, 301014, Note_off_c, 0, 87, 58
1, 301163, Note_on_c, 0, 87, 79
1, 301164, Note_off_c, 0, 88, 62
1, 301302, Note_on_c, 0, 88, 71
1, 301316, Note_off_c, 0, 87, 65
1, 301445, Note_on_c, 0, 86, 76
1, 301465, Note_off_c, 0, 88, 56
1, 301486, Control_c, 0, 64, 26
1, 301501, Control_c, 0, 64, 40
1, 301515, Control_c, 0, 64, 50
1, 301530, Control_c, 0, 64, 56
1, 301545, Control_c, 0, 64, 62
1, 301560, Note_on_c, 0, 84, 74
1, 301560, Control_c, 0, 64, 64
1, 301575, Control_c, 0, 64, 65
1, 301579, Note_off_c, 0, 86, 62
1, 301589, Control_c, 0, 64, 66
1, 301604, Control_c, 0, 64, 67
1, 301619, Control_c, 0, 64, 68
1, 301620, Note_off_c, 0, 62, 55
1, 301634, Control_c, 0, 64, 69
1, 301649, Control_c, 0, 64, 69
1, 301662, Note_off_c, 0, 84, 65
1, 301665, Note_on_c, 0, 83, 77
1, 301671, Note_off_c, 0, 72, 30
1, 301722, Note_off_c, 0, 67, 42
1, 301764, Note_on_c, 0, 81, 76
1, 301768, Note_off_c, 0, 83, 63
1, 301772, Note_on_c, 0, 62, 33
1, 301781, Control_c, 0, 64, 69
1, 301812, Note_on_c, 0, 66, 51
1, 301826, Control_c, 0, 64, 68
1, 301841, Control_c, 0, 64, 68
1, 301856, Control_c, 0, 64, 67
1, 301871, Control_c, 0, 64, 66
1, 301886, Note_on_c, 0, 72, 53
1, 301886, Control_c, 0, 64, 64
1, 301889, Note_off_c, 0, 81, 63
1, 301900, Control_c, 0, 64, 62
1, 301901, Note_on_c, 0, 83, 66
1, 301915, Control_c, 0, 64, 54
1, 301930, Control_c, 0, 64, 31
1, 301945, Control_c, 0, 64, 0
1, 301997, Note_off_c, 0, 83, 63
1, 302011, Note_on_c, 0, 81, 68
1, 302059, Note_off_c, 0, 81, 57
1, 302085, Note_on_c, 0, 83, 67
1, 302118, Note_off_c, 0, 83, 63
1, 302138, Control_c, 0, 64, 14
1, 302140, Note_on_c, 0, 81, 67
1, 302160, Control_c, 0, 64, 19
1, 302175, Control_c, 0, 64, 23
1, 302184, Note_off_c, 0, 81, 58
1, 302190, Control_c, 0, 64, 26
1, 302203, Note_on_c, 0, 83, 68
1, 302205, Control_c, 0, 64, 28
1, 302220, Control_c, 0, 64, 34
1, 302234, Control_c, 0, 64, 39
1, 302240, Note_off_c, 0, 83, 62
1, 302249, Control_c, 0, 64, 44
1, 302251, Note_on_c, 0, 81, 68
1, 302264, Control_c, 0, 64, 49
1, 302279, Control_c, 0, 64, 53
1, 302291, Note_off_c, 0, 81, 62
1, 302294, Control_c, 0, 64, 57
1, 302303, Note_on_c, 0, 83, 65
1, 302309, Control_c, 0, 64, 60
1, 302324, Control_c, 0, 64, 62
1, 302338, Control_c, 0, 64, 64
1, 302347, Note_off_c, 0, 83, 65
1, 302352, Note_on_c, 0, 81, 65
1, 302353, Control_c, 0, 64, 65
1, 302368, Control_c, 0, 64, 67
1, 302383, Control_c, 0, 64, 68
1, 302396, Note_off_c, 0, 81, 62
1, 302398, Note_on_c, 0, 83, 66
1, 302442, Control_c, 0, 64, 67
1, 302446, Note_off_c, 0, 66, 36
1, 302457, Note_off_c, 0, 83, 65
1, 302457, Control_c, 0, 64, 67
1, 302467, Note_on_c, 0, 81, 68
1, 302486, Control_c, 0, 64, 66
1, 302494, Note_off_c, 0, 62, 43
1, 302501, Control_c, 0, 64, 65
1, 302516, Control_c, 0, 64, 64
1, 302530, Control_c, 0, 64, 63
1, 302545, Control_c, 0, 64, 62
1, 302560, Control_c, 0, 64, 61
1, 302575, Control_c, 0, 64, 59
1, 302590, Control_c, 0, 64, 58
1, 302595, Note_off_c, 0, 81, 60
1, 302603, Note_on_c, 0, 79, 65
1, 302604, Control_c, 0, 64, 55
1, 302619, Control_c, 0, 64, 53
1, 302634, Control_c, 0, 64, 50
1, 302649, Control_c, 0, 64, 48
1, 302664, Control_c, 0, 64, 46
1, 302679, Control_c, 0, 64, 45
1, 302694, Control_c, 0, 64, 44
1, 302703, Note_off_c, 0, 79, 60
1, 302708, Control_c, 0, 64, 43
1, 302712, Note_on_c, 0, 81, 69
1, 302738, Control_c, 0, 64, 43
1, 302796, Note_off_c, 0, 72, 37
1, 302832, Note_off_c, 0, 81, 61
1, 302845, Note_on_c, 0, 79, 65
1, 302854, Note_on_c, 0, 67, 39
1, 302855, Note_on_c, 0, 71, 39
1, 302908, Note_off_c, 0, 79, 61
1, 302939, Control_c, 0, 64, 42
1, 302968, Control_c, 0, 64, 42
1, 302977, Note_on_c, 0, 79, 71
1, 302983, Control_c, 0, 64, 41
1, 302999, Control_c, 0, 64, 40
1, 303014, Control_c, 0, 64, 39
1, 303029, Control_c, 0, 64, 38
1, 303043, Control_c, 0, 64, 37
1, 303058, Control_c, 0, 64, 36
1, 303073, Control_c, 0, 64, 34
1, 303087, Control_c, 0, 64, 32
1, 303096, Note_on_c, 0, 78, 76
1, 303102, Control_c, 0, 64, 31
1, 303117, Note_off_c, 0, 79, 58
1, 303117, Control_c, 0, 64, 30
1, 303132, Control_c, 0, 64, 28
1, 303147, Control_c, 0, 64, 27
1, 303162, Control_c, 0, 64, 24
1, 303176, Control_c, 0, 64, 23
1, 303191, Control_c, 0, 64, 21
1, 303206, Control_c, 0, 64, 19
1, 303212, Note_on_c, 0, 79, 78
1, 303236, Control_c, 0, 64, 17
1, 303242, Note_off_c, 0, 78, 62
1, 303251, Control_c, 0, 64, 14
1, 303266, Control_c, 0, 64, 11
1, 303345, Note_on_c, 0, 81, 65
1, 303361, Note_off_c, 0, 79, 55
1, 303474, Note_on_c, 0, 79, 67
1, 303495, Note_off_c, 0, 81, 50
1, 303574, Note_off_c, 0, 71, 32
1, 303586, Note_on_c, 0, 78, 62
1, 303597, Note_off_c, 0, 79, 52
1, 303637, Control_c, 0, 64, 14
1, 303679, Note_off_c, 0, 67, 36
1, 303702, Note_off_c, 0, 78, 63
1, 303716, Note_on_c, 0, 76, 53
1, 303868, Note_on_c, 0, 74, 54
1, 303889, Note_off_c, 0, 76, 39
1, 304008, Note_off_c, 0, 74, 61
1, 304017, Note_on_c, 0, 76, 48
1, 304172, Note_on_c, 0, 75, 54
1, 304174, Note_off_c, 0, 76, 55
1, 304303, Note_on_c, 0, 76, 53
1, 304314, Note_off_c, 0, 75, 44
1, 304448, Note_off_c, 0, 76, 55
1, 304464, Note_on_c, 0, 78, 46
1, 304496, Control_c, 0, 64, 17
1, 304574, Note_on_c, 0, 76, 54
1, 304600, Note_off_c, 0, 78, 37
1, 304703, Control_c, 0, 64, 19
1, 304718, Note_on_c, 0, 74, 56
1, 304719, Note_off_c, 0, 76, 51
1, 304822, Note_off_c, 0, 74, 62
1, 304834, Note_on_c, 0, 72, 49
1, 304962, Note_off_c, 0, 72, 56
1, 304974, Note_on_c, 0, 71, 54
1, 304984, Note_on_c, 0, 62, 35
1, 304985, Note_on_c, 0, 55, 37
1, 305086, Note_off_c, 0, 71, 57
1, 305218, Note_on_c, 0, 72, 55
1, 305260, Note_off_c, 0, 72, 64
1, 305267, Note_on_c, 0, 71, 55
1, 305304, Note_on_c, 0, 69, 57
1, 305306, Note_off_c, 0, 71, 60
1, 305351, Note_off_c, 0, 69, 58
1, 305369, Note_on_c, 0, 71, 55
1, 305385, Note_off_c, 0, 55, 43
1, 305415, Note_on_c, 0, 59, 44
1, 305427, Note_off_c, 0, 71, 57
1, 305429, Note_on_c, 0, 74, 62
1, 305469, Note_on_c, 0, 72, 60
1, 305472, Note_off_c, 0, 59, 51
1, 305488, Note_on_c, 0, 57, 40
1, 305499, Note_off_c, 0, 74, 58
1, 305719, Control_c, 0, 64, 21
1, 305806, Note_off_c, 0, 57, 53
1, 305837, Note_on_c, 0, 71, 55
1, 305847, Note_on_c, 0, 55, 44
1, 305862, Note_off_c, 0, 72, 44
1, 305902, Note_off_c, 0, 55, 56
1, 305955, Note_on_c, 0, 54, 58
1, 306202, Note_on_c, 0, 69, 66
1, 306240, Note_off_c, 0, 71, 62
1, 306424, Note_on_c, 0, 55, 59
1, 306562, Note_off_c, 0, 54, 36
1, 306689, Note_on_c, 0, 71, 72
1, 306693, Note_off_c, 0, 62, 42
1, 306809, Note_off_c, 0, 69, 39
1, 306930, Note_on_c, 0, 62, 44
1, 306935, Note_on_c, 0, 57, 47
1, 307002, Note_off_c, 0, 55, 36
1, 307177, Note_on_c, 0, 72, 58
1, 307264, Note_off_c, 0, 71, 56
1, 307454, Note_on_c, 0, 54, 41
1, 307548, Note_off_c, 0, 57, 38
1, 307737, Note_on_c, 0, 76, 53
1, 307748, Note_off_c, 0, 72, 57
1, 307757, Control_c, 0, 64, 19
1, 307831, Control_c, 0, 64, 17
1, 307845, Note_on_c, 0, 74, 52
1, 307862, Note_off_c, 0, 76, 48
1, 307875, Control_c, 0, 64, 14
1, 307920, Control_c, 0, 64, 11
1, 307935, Control_c, 0, 64, 0
1, 307967, Note_off_c, 0, 54, 33
1, 307971, Note_on_c, 0, 72, 52
1, 307976, Note_off_c, 0, 74, 55
1, 307982, Note_on_c, 0, 55, 36
1, 308476, Control_c, 0, 64, 11
1, 308491, Control_c, 0, 64, 14
1, 308506, Control_c, 0, 64, 17
1, 308551, Control_c, 0, 64, 19
1, 308557, Note_on_c, 0, 71, 41
1, 308564, Note_off_c, 0, 72, 48
1, 308610, Control_c, 0, 64, 21
1, 308647, Note_off_c, 0, 62, 30
1, 308713, Control_c, 0, 64, 23
1, 308758, Control_c, 0, 67, 122
1, 308772, Control_c, 0, 67, 110
1, 308787, Control_c, 0, 67, 95
1, 308802, Control_c, 0, 67, 77
1, 308816, Control_c, 0, 67, 56
1, 308831, Control_c, 0, 67, 38
1, 308846, Control_c, 0, 64, 24
1, 308846, Control_c, 0, 67, 22
1, 308861, Control_c, 0, 67, 0
1, 308912, Note_off_c, 0, 71, 41
1, 308931, Note_off_c, 0, 55, 42
1, 308943, Control_c, 0, 64, 23
1, 309031, Control_c, 0, 64, 21
1, 309061, Control_c, 0, 64, 19
1, 309072, Note_on_c, 0, 72, 84
1, 309074, Note_on_c, 0, 64, 85
1, 309075, Note_on_c, 0, 67, 78
1, 309079, Note_on_c, 0, 52, 75
1, 309170, Note_off_c, 0, 64, 63
1, 309170, Note_off_c, 0, 67, 61
1, 309172, Note_off_c, 0, 52, 61
1, 309179, Note_off_c, 0, 72, 62
1, 309195, Control_c, 0, 64, 21
1, 309388, Control_c, 0, 64, 19
1, 309566, Control_c, 0, 64, 17
1, 309581, Control_c, 0, 64, 14
1, 309606, Note_on_c, 0, 71, 82
1, 309608, Note_on_c, 0, 62, 74
1, 309609, Note_on_c, 0, 50, 66
1, 309610, Control_c, 0, 64, 11
1, 309611, Note_on_c, 0, 67, 70
1, 309707, Control_c, 0, 64, 14
1, 309716, Note_off_c, 0, 50, 66
1, 309716, Note_off_c, 0, 62, 62
1, 309721, Control_c, 0, 64, 17
1, 309751, Control_c, 0, 64, 19
1, 309762, Note_off_c, 0, 67, 54
1, 309785, Note_off_c, 0, 71, 61
1, 309795, Control_c, 0, 64, 21
1, 310003, Control_c, 0, 64, 23
1, 310033, Control_c, 0, 64, 24
1, 310048, Control_c, 0, 64, 26
1, 310062, Control_c, 0, 64, 27
1, 310077, Control_c, 0, 64, 28
1, 310092, Control_c, 0, 64, 29
1, 310107, Control_c, 0, 64, 30
1, 310122, Control_c, 0, 64, 32
1, 310137, Control_c, 0, 64, 35
1, 310152, Control_c, 0, 64, 38
1, 310161, Note_on_c, 0, 76, 73
1, 310167, Control_c, 0, 64, 41
1, 310178, Note_on_c, 0, 67, 60
1, 310182, Control_c, 0, 64, 44
1, 310196, Control_c, 0, 64, 47
1, 310198, Note_on_c, 0, 60, 48
1, 310210, Note_on_c, 0, 48, 41
1, 310211, Control_c, 0, 64, 51
1, 310226, Control_c, 0, 64, 54
1, 310241, Control_c, 0, 64, 58
1, 310256, Control_c, 0, 64, 61
1, 310270, Control_c, 0, 64, 63
1, 310285, Control_c, 0, 64, 65
1, 310300, Control_c, 0, 64, 66
1, 310315, Control_c, 0, 64, 68
1, 310330, Control_c, 0, 64, 70
1, 310344, Control_c, 0, 64, 74
1, 310359, Control_c, 0, 64, 79
1, 310374, Control_c, 0, 64, 83
1, 310393, Note_off_c, 0, 48, 43
1, 310396, Control_c, 0, 64, 87
1, 310411, Control_c, 0, 64, 90
1, 310426, Control_c, 0, 64, 92
1, 310441, Control_c, 0, 64, 94
1, 310447, Note_off_c, 0, 60, 38
1, 310456, Control_c, 0, 64, 95
1, 310470, Control_c, 0, 64, 95
1, 310542, Note_off_c, 0, 67, 38
1, 310544, Control_c, 0, 67, 8
1, 310559, Control_c, 0, 67, 18
1, 310574, Control_c, 0, 67, 33
1, 310589, Control_c, 0, 67, 51
1, 310604, Control_c, 0, 67, 69
1, 310618, Control_c, 0, 64, 95
1, 310618, Control_c, 0, 67, 88
1, 310633, Control_c, 0, 64, 94
1, 310633, Control_c, 0, 67, 102
1, 310648, Control_c, 0, 64, 93
1, 310648, Control_c, 0, 67, 114
1, 310663, Control_c, 0, 64, 92
1, 310663, Control_c, 0, 67, 124
1, 310677, Control_c, 0, 64, 92
1, 310677, Control_c, 0, 67, 127
1, 310692, Control_c, 0, 64, 91
1, 310707, Control_c, 0, 64, 90
1, 310722, Control_c, 0, 64, 89
1, 310737, Control_c, 0, 64, 89
1, 310751, Control_c, 0, 64, 88
1, 310766, Control_c, 0, 64, 87
1, 310781, Control_c, 0, 64, 86
1, 310796, Control_c, 0, 64, 86
1, 310812, Control_c, 0, 64, 85
1, 310827, Control_c, 0, 64, 85
1, 310841, Control_c, 0, 64, 84
1, 310856, Control_c, 0, 64, 83
1, 310869, Note_on_c, 0, 74, 70
1, 310871, Control_c, 0, 64, 80
1, 310886, Control_c, 0, 64, 76
1, 310890, Note_on_c, 0, 67, 50
1, 310898, Note_off_c, 0, 76, 24
1, 310900, Control_c, 0, 64, 70
1, 310905, Note_on_c, 0, 59, 47
1, 310915, Control_c, 0, 64, 61
1, 310930, Control_c, 0, 64, 0
1, 310974, Control_c, 0, 64, 37
1, 310989, Control_c, 0, 64, 51
1, 311004, Control_c, 0, 64, 58
1, 311019, Control_c, 0, 64, 63
1, 311034, Control_c, 0, 64, 65
1, 311049, Control_c, 0, 64, 69
1, 311064, Control_c, 0, 64, 72
1, 311079, Control_c, 0, 64, 75
1, 311093, Control_c, 0, 64, 77
1, 311094, Note_off_c, 0, 74, 58
1, 311108, Control_c, 0, 64, 79
1, 311115, Note_off_c, 0, 59, 38
1, 311123, Control_c, 0, 64, 80
1, 311145, Control_c, 0, 64, 80
1, 311160, Control_c, 0, 64, 81
1, 311227, Note_on_c, 0, 74, 58
1, 311249, Control_c, 0, 64, 80
1, 311264, Control_c, 0, 64, 80
1, 311279, Note_on_c, 0, 62, 40
1, 311279, Control_c, 0, 64, 79
1, 311288, Note_on_c, 0, 54, 40
1, 311292, Note_off_c, 0, 67, 56
1, 311293, Control_c, 0, 64, 78
1, 311308, Control_c, 0, 64, 76
1, 311323, Control_c, 0, 64, 73
1, 311338, Control_c, 0, 64, 70
1, 311353, Control_c, 0, 64, 64
1, 311367, Control_c, 0, 64, 29
1, 311382, Control_c, 0, 64, 0
1, 311425, Note_on_c, 0, 72, 63
1, 311475, Note_off_c, 0, 74, 57
1, 311542, Note_on_c, 0, 71, 68
1, 311572, Note_off_c, 0, 72, 55
1, 311648, Note_on_c, 0, 69, 65
1, 311648, Note_off_c, 0, 71, 64
1, 311762, Note_off_c, 0, 69, 56
1, 311764, Note_off_c, 0, 54, 45
1, 311771, Note_on_c, 0, 72, 68
1, 311774, Note_on_c, 0, 55, 41
1, 311873, Note_off_c, 0, 72, 57
1, 311879, Note_on_c, 0, 71, 62
1, 311996, Note_off_c, 0, 71, 57
1, 312008, Note_on_c, 0, 69, 56
1, 312012, Control_c, 0, 64, 17
1, 312027, Control_c, 0, 64, 43
1, 312042, Control_c, 0, 64, 53
1, 312057, Control_c, 0, 64, 59
1, 312071, Control_c, 0, 64, 62
1, 312074, Note_off_c, 0, 62, 38
1, 312075, Note_off_c, 0, 69, 59
1, 312086, Control_c, 0, 64, 65
1, 312101, Control_c, 0, 64, 67
1, 312104, Note_on_c, 0, 67, 57
1, 312116, Control_c, 0, 64, 69
1, 312131, Control_c, 0, 64, 71
1, 312145, Note_off_c, 0, 67, 57
1, 312146, Control_c, 0, 64, 72
1, 312161, Control_c, 0, 64, 73
1, 312176, Control_c, 0, 64, 73
1, 312200, Note_off_c, 0, 55, 37
1, 312249, Control_c, 0, 64, 73
1, 312250, Note_on_c, 0, 71, 47
1, 312264, Control_c, 0, 64, 72
1, 312271, Note_on_c, 0, 67, 46
1, 312279, Control_c, 0, 64, 70
1, 312280, Note_on_c, 0, 62, 27
1, 312286, Note_on_c, 0, 50, 32
1, 312294, Control_c, 0, 64, 67
1, 312308, Control_c, 0, 64, 63
1, 312323, Control_c, 0, 64, 49
1, 312338, Control_c, 0, 64, 0
1, 312706, Note_off_c, 0, 71, 38
1, 312791, Note_off_c, 0, 67, 53
1, 312805, Note_on_c, 0, 69, 40
1, 312813, Note_on_c, 0, 66, 36
1, 312880, Control_c, 0, 64, 29
1, 312895, Control_c, 0, 64, 39
1, 312910, Control_c, 0, 64, 47
1, 312925, Control_c, 0, 64, 54
1, 312939, Control_c, 0, 64, 59
1, 312954, Control_c, 0, 64, 62
1, 312954, Control_c, 0, 67, 123
1, 312969, Control_c, 0, 64, 64
1, 312969, Control_c, 0, 67, 118
1, 312984, Control_c, 0, 64, 65
1, 312984, Control_c, 0, 67, 113
1, 312984, Note_off_c, 0, 50, 43
1, 312999, Control_c, 0, 64, 67
1, 312999, Control_c, 0, 67, 104
1, 313013, Note_off_c, 0, 69, 62
1, 313013, Control_c, 0, 64, 69
1, 313013, Control_c, 0, 67, 89
1, 313028, Control_c, 0, 64, 71
1, 313028, Control_c, 0, 67, 74
1, 313043, Control_c, 0, 64, 73
1, 313043, Control_c, 0, 67, 61
1, 313058, Control_c, 0, 64, 75
1, 313058, Control_c, 0, 67, 53
1, 313073, Control_c, 0, 64, 77
1, 313073, Control_c, 0, 67, 52
1, 313088, Control_c, 0, 64, 77
1, 313103, Control_c, 0, 64, 78
1, 313103, Control_c, 0, 67, 53
1, 313116, Note_off_c, 0, 62, 40
1, 313118, Control_c, 0, 67, 56
1, 313132, Control_c, 0, 67, 59
1, 313147, Control_c, 0, 67, 62
1, 313162, Control_c, 0, 67, 65
1, 313177, Control_c, 0, 64, 77
1, 313177, Control_c, 0, 67, 71
1, 313191, Control_c, 0, 64, 77
1, 313191, Control_c, 0, 67, 84
1, 313206, Control_c, 0, 64, 76
1, 313206, Control_c, 0, 67, 105
1, 313220, Note_off_c, 0, 66, 48
1, 313222, Control_c, 0, 64, 74
1, 313222, Control_c, 0, 67, 122
1, 313237, Control_c, 0, 64, 71
1, 313237, Control_c, 0, 67, 127
1, 313252, Control_c, 0, 64, 67
1, 313267, Control_c, 0, 64, 51
1, 313276, Note_on_c, 0, 70, 58
1, 313281, Control_c, 0, 64, 0
1, 313296, Note_on_c, 0, 62, 36
1, 313303, Note_on_c, 0, 55, 42
1, 313511, Note_on_c, 0, 71, 70
1, 313550, Note_off_c, 0, 70, 58
1, 313699, Note_off_c, 0, 55, 34
1, 313714, Note_on_c, 0, 74, 63
1, 313717, Note_off_c, 0, 71, 54
1, 313750, Note_on_c, 0, 57, 35
1, 313756, Note_on_c, 0, 72, 64
1, 313768, Note_off_c, 0, 74, 54
1, 313950, Note_off_c, 0, 72, 58
1, 313965, Note_on_c, 0, 71, 57
1, 313973, Note_on_c, 0, 55, 42
1, 313974, Note_off_c, 0, 62, 59
1, 313977, Note_off_c, 0, 57, 42
1, 314044, Note_off_c, 0, 55, 46
1, 314193, Note_off_c, 0, 71, 55
1, 314194, Note_on_c, 0, 68, 52
1, 314199, Note_on_c, 0, 62, 38
1, 314209, Note_on_c, 0, 54, 32
1, 314251, Note_off_c, 0, 62, 57
1, 314406, Note_off_c, 0, 68, 42
1, 314432, Note_on_c, 0, 69, 46
1, 314474, Note_off_c, 0, 69, 57
1, 314603, Note_off_c, 0, 54, 46
1, 314644, Note_on_c, 0, 62, 49
1, 314653, Note_on_c, 0, 55, 46
1, 314784, Note_off_c, 0, 62, 36
1, 314896, Note_on_c, 0, 72, 52
1, 314980, Note_on_c, 0, 71, 68
1, 314984, Note_off_c, 0, 72, 57
1, 315018, Note_off_c, 0, 71, 62
1, 315106, Note_on_c, 0, 62, 51
1, 315109, Note_on_c, 0, 57, 50
1, 315145, Note_off_c, 0, 55, 41
1, 315262, Note_off_c, 0, 62, 37
1, 315339, Note_on_c, 0, 74, 72
1, 315431, Note_off_c, 0, 74, 64
1, 315442, Note_on_c, 0, 72, 60
1, 315468, Note_off_c, 0, 72, 68
1, 315621, Note_on_c, 0, 62, 35
1, 315642, Note_on_c, 0, 54, 37
1, 315660, Note_off_c, 0, 57, 18
1, 315813, Note_off_c, 0, 62, 34
1, 315905, Note_on_c, 0, 76, 53
1, 316020, Note_on_c, 0, 74, 55
1, 316024, Note_off_c, 0, 76, 49
1, 316093, Note_off_c, 0, 54, 45
1, 316135, Note_off_c, 0, 74, 55
1, 316152, Note_on_c, 0, 72, 50
1, 316165, Note_on_c, 0, 62, 27
1, 316167, Note_on_c, 0, 55, 30
1, 316261, Control_c, 0, 64, 30
1, 316276, Control_c, 0, 64, 45
1, 316290, Control_c, 0, 64, 54
1, 316305, Control_c, 0, 64, 61
1, 316320, Control_c, 0, 64, 63
1, 316335, Control_c, 0, 64, 66
1, 316350, Control_c, 0, 64, 67
1, 316364, Control_c, 0, 64, 69
1, 316387, Control_c, 0, 64, 71
1, 316402, Control_c, 0, 64, 73
1, 316418, Control_c, 0, 64, 74
1, 316433, Control_c, 0, 64, 75
1, 316462, Control_c, 0, 64, 76
1, 316486, Note_off_c, 0, 72, 52
1, 316581, Control_c, 0, 64, 75
1, 316595, Control_c, 0, 64, 75
1, 316620, Note_on_c, 0, 74, 44
1, 316625, Control_c, 0, 64, 74
1, 316639, Control_c, 0, 64, 73
1, 316654, Control_c, 0, 64, 72
1, 316659, Note_off_c, 0, 74, 63
1, 316669, Control_c, 0, 64, 70
1, 316671, Note_on_c, 0, 72, 50
1, 316684, Control_c, 0, 64, 68
1, 316699, Control_c, 0, 64, 65
1, 316713, Control_c, 0, 64, 61
1, 316728, Control_c, 0, 64, 34
1, 316734, Note_off_c, 0, 72, 58
1, 316743, Control_c, 0, 64, 0
1, 316761, Note_on_c, 0, 71, 39
1, 316906, Control_c, 0, 64, 24
1, 316921, Control_c, 0, 64, 42
1, 316936, Control_c, 0, 64, 52
1, 316950, Control_c, 0, 64, 58
1, 316965, Control_c, 0, 64, 62
1, 316980, Control_c, 0, 64, 63
1, 316995, Control_c, 0, 64, 65
1, 317008, Note_off_c, 0, 62, 38
1, 317010, Control_c, 0, 64, 66
1, 317025, Control_c, 0, 64, 68
1, 317025, Control_c, 0, 67, 123
1, 317039, Control_c, 0, 64, 69
1, 317039, Control_c, 0, 67, 115
1, 317054, Control_c, 0, 64, 70
1, 317054, Control_c, 0, 67, 104
1, 317069, Control_c, 0, 64, 71
1, 317069, Control_c, 0, 67, 88
1, 317084, Control_c, 0, 64, 72
1, 317084, Control_c, 0, 67, 69
1, 317099, Control_c, 0, 64, 73
1, 317099, Control_c, 0, 67, 48
1, 317113, Control_c, 0, 64, 73
1, 317113, Control_c, 0, 67, 31
1, 317136, Control_c, 0, 67, 16
1, 317150, Note_off_c, 0, 71, 45
1, 317151, Control_c, 0, 67, 0
1, 317175, Note_off_c, 0, 55, 37
1, 317270, Control_c, 0, 64, 73
1, 317285, Control_c, 0, 64, 71
1, 317300, Control_c, 0, 64, 69
1, 317308, Note_on_c, 0, 72, 81
1, 317312, Note_on_c, 0, 64, 78
1, 317312, Note_on_c, 0, 67, 76
1, 317315, Control_c, 0, 64, 64
1, 317321, Note_on_c, 0, 52, 68
1, 317330, Control_c, 0, 64, 0
1, 317407, Note_off_c, 0, 67, 61
1, 317416, Note_off_c, 0, 72, 63
1, 317417, Note_off_c, 0, 64, 64
1, 317419, Note_off_c, 0, 52, 61
1, 317824, Note_on_c, 0, 71, 81
1, 317826, Note_on_c, 0, 62, 79
1, 317830, Note_on_c, 0, 50, 74
1, 317830, Note_on_c, 0, 67, 76
1, 317917, Note_off_c, 0, 50, 64
1, 317923, Note_off_c, 0, 62, 61
1, 317929, Note_off_c, 0, 67, 59
1, 317939, Note_off_c, 0, 71, 64
1, 318284, Control_c, 0, 64, 11
1, 318299, Control_c, 0, 64, 34
1, 318314, Control_c, 0, 64, 44
1, 318329, Control_c, 0, 64, 51
1, 318344, Control_c, 0, 64, 56
1, 318358, Control_c, 0, 64, 61
1, 318373, Control_c, 0, 64, 63
1, 318388, Control_c, 0, 64, 65
1, 318392, Note_on_c, 0, 76, 77
1, 318403, Control_c, 0, 64, 67
1, 318404, Note_on_c, 0, 67, 64
1, 318418, Control_c, 0, 64, 69
1, 318433, Control_c, 0, 64, 71
1, 318440, Note_on_c, 0, 60, 61
1, 318446, Note_on_c, 0, 48, 56
1, 318448, Control_c, 0, 64, 73
1, 318463, Control_c, 0, 64, 76
1, 318477, Control_c, 0, 64, 79
1, 318492, Control_c, 0, 64, 82
1, 318507, Control_c, 0, 64, 84
1, 318522, Control_c, 0, 64, 86
1, 318537, Control_c, 0, 64, 88
1, 318549, Note_off_c, 0, 48, 59
1, 318549, Note_off_c, 0, 60, 58
1, 318551, Control_c, 0, 64, 90
1, 318566, Control_c, 0, 64, 91
1, 318581, Control_c, 0, 64, 91
1, 318605, Note_off_c, 0, 67, 38
1, 318670, Note_off_c, 0, 76, 55
1, 318781, Control_c, 0, 64, 90
1, 318796, Control_c, 0, 64, 90
1, 318812, Control_c, 0, 64, 89
1, 318814, Note_on_c, 0, 78, 62
1, 318827, Control_c, 0, 64, 88
1, 318841, Control_c, 0, 64, 87
1, 318856, Control_c, 0, 64, 85
1, 318865, Note_on_c, 0, 76, 67
1, 318871, Control_c, 0, 64, 82
1, 318875, Note_off_c, 0, 78, 57
1, 318886, Control_c, 0, 64, 78
1, 318901, Control_c, 0, 64, 73
1, 318907, Note_off_c, 0, 76, 61
1, 318916, Control_c, 0, 64, 65
1, 318931, Control_c, 0, 64, 0
1, 318932, Note_on_c, 0, 74, 58
1, 318970, Note_off_c, 0, 74, 64
1, 318988, Note_on_c, 0, 76, 53
1, 319059, Note_off_c, 0, 76, 60
1, 319086, Note_on_c, 0, 78, 59
1, 319178, Note_off_c, 0, 78, 58
1, 319204, Note_on_c, 0, 79, 48
1, 319226, Control_c, 0, 67, 9
1, 319241, Control_c, 0, 67, 12
1, 319256, Control_c, 0, 67, 19
1, 319271, Control_c, 0, 67, 29
1, 319286, Control_c, 0, 67, 39
1, 319300, Control_c, 0, 67, 50
1, 319315, Control_c, 0, 67, 62
1, 319330, Control_c, 0, 67, 76
1, 319345, Control_c, 0, 67, 88
1, 319360, Control_c, 0, 67, 100
1, 319382, Control_c, 0, 67, 111
1, 319397, Control_c, 0, 67, 122
1, 319412, Control_c, 0, 67, 127
1, 319566, Note_on_c, 0, 72, 47
1, 319592, Note_on_c, 0, 67, 33
1, 319604, Note_on_c, 0, 64, 25
1, 319638, Note_off_c, 0, 79, 46
1, 319723, Note_off_c, 0, 67, 39
1, 319819, Note_off_c, 0, 64, 42
1, 319858, Note_on_c, 0, 67, 34
1, 319864, Note_on_c, 0, 71, 49
1, 319881, Note_off_c, 0, 72, 58
1, 319884, Note_on_c, 0, 62, 33
1, 320005, Control_c, 0, 64, 27
1, 320020, Control_c, 0, 64, 47
1, 320035, Control_c, 0, 64, 56
1, 320049, Control_c, 0, 64, 63
1, 320064, Control_c, 0, 64, 66
1, 320079, Control_c, 0, 64, 68
1, 320094, Control_c, 0, 64, 69
1, 320109, Control_c, 0, 64, 71
1, 320131, Control_c, 0, 64, 73
1, 320146, Control_c, 0, 64, 74
1, 320161, Control_c, 0, 64, 76
1, 320176, Control_c, 0, 64, 77
1, 320190, Control_c, 0, 64, 77
1, 320205, Control_c, 0, 64, 78
1, 320258, Note_off_c, 0, 71, 57
1, 320379, Note_on_c, 0, 71, 49
1, 320381, Control_c, 0, 64, 77
1, 320397, Control_c, 0, 64, 77
1, 320412, Control_c, 0, 64, 76
1, 320415, Note_off_c, 0, 71, 66
1, 320421, Note_on_c, 0, 66, 40
1, 320427, Control_c, 0, 64, 76
1, 320442, Control_c, 0, 64, 75
1, 320445, Note_on_c, 0, 69, 50
1, 320448, Note_off_c, 0, 67, 37
1, 320457, Control_c, 0, 64, 74
1, 320471, Control_c, 0, 64, 72
1, 320480, Note_off_c, 0, 69, 65
1, 320486, Control_c, 0, 64, 69
1, 320501, Control_c, 0, 64, 65
1, 320510, Note_on_c, 0, 71, 49
1, 320516, Control_c, 0, 64, 53
1, 320531, Control_c, 0, 64, 0
1, 320541, Note_off_c, 0, 71, 66
1, 320561, Note_on_c, 0, 69, 58
1, 320584, Note_off_c, 0, 69, 61
1, 320619, Note_on_c, 0, 71, 52
1, 320641, Note_off_c, 0, 71, 63
1, 320653, Note_on_c, 0, 69, 62
1, 320659, Note_off_c, 0, 62, 48
1, 320683, Note_off_c, 0, 69, 65
1, 320721, Note_on_c, 0, 71, 62
1, 320724, Note_off_c, 0, 66, 60
1, 320751, Note_off_c, 0, 71, 67
1, 320778, Note_on_c, 0, 69, 58
1, 320814, Note_off_c, 0, 69, 62
1, 320844, Note_on_c, 0, 67, 43
1, 320880, Note_off_c, 0, 67, 60
1, 320913, Note_on_c, 0, 69, 47
1, 320952, Note_off_c, 0, 69, 61
1, 320982, Note_on_c, 0, 67, 50
1, 320999, Note_on_c, 0, 55, 33
1, 321101, Control_c, 0, 64, 21
1, 321116, Control_c, 0, 64, 39
1, 321130, Control_c, 0, 64, 49
1, 321145, Control_c, 0, 64, 56
1, 321160, Control_c, 0, 64, 62
1, 321175, Control_c, 0, 64, 64
1, 321190, Control_c, 0, 64, 66
1, 321205, Control_c, 0, 64, 68
1, 321220, Control_c, 0, 64, 69
1, 321235, Control_c, 0, 64, 71
1, 321250, Control_c, 0, 64, 74
1, 321262, Note_on_c, 0, 59, 36
1, 321265, Control_c, 0, 64, 76
1, 321279, Control_c, 0, 64, 78
1, 321294, Control_c, 0, 64, 81
1, 321309, Control_c, 0, 64, 83
1, 321324, Control_c, 0, 64, 86
1, 321339, Control_c, 0, 64, 89
1, 321354, Control_c, 0, 64, 92
1, 321368, Control_c, 0, 64, 95
1, 321383, Control_c, 0, 64, 97
1, 321398, Control_c, 0, 64, 99
1, 321413, Control_c, 0, 64, 101
1, 321427, Control_c, 0, 64, 103
1, 321442, Control_c, 0, 64, 105
1, 321457, Control_c, 0, 64, 106
1, 321472, Control_c, 0, 64, 107
1, 321487, Control_c, 0, 64, 108
1, 321487, Control_c, 0, 67, 126
1, 321501, Control_c, 0, 64, 109
1, 321501, Control_c, 0, 67, 121
1, 321516, Control_c, 0, 64, 109
1, 321516, Control_c, 0, 67, 114
1, 321521, Note_on_c, 0, 62, 37
1, 321531, Control_c, 0, 67, 102
1, 321546, Control_c, 0, 64, 110
1, 321546, Control_c, 0, 67, 88
1, 321561, Control_c, 0, 67, 70
1, 321575, Control_c, 0, 67, 52
1, 321587, Note_off_c, 0, 59, 34
1, 321590, Control_c, 0, 67, 33
1, 321605, Control_c, 0, 67, 17
1, 321627, Control_c, 0, 67, 0
1, 321674, Note_off_c, 0, 62, 31
1, 321783, Note_on_c, 0, 59, 39
1, 321865, Note_off_c, 0, 59, 50
1, 321980, Note_off_c, 0, 55, 46
1, 322043, Control_c, 0, 64, 109
1, 322117, Control_c, 0, 64, 109
1, 322147, Control_c, 0, 64, 108
1, 322162, Control_c, 0, 64, 108
1, 322176, Control_c, 0, 64, 107
1, 322191, Control_c, 0, 64, 107
1, 322206, Control_c, 0, 64, 106
1, 322236, Control_c, 0, 64, 106
1, 322250, Control_c, 0, 64, 105
1, 322255, Note_on_c, 0, 48, 41
1, 322265, Control_c, 0, 64, 105
1, 322280, Control_c, 0, 64, 104
1, 322293, Note_on_c, 0, 69, 47
1, 322295, Control_c, 0, 64, 103
1, 322310, Control_c, 0, 64, 101
1, 322324, Control_c, 0, 64, 100
1, 322339, Control_c, 0, 64, 99
1, 322353, Poly_aftertouch_c, 0, 71, 127
1, 322354, Control_c, 0, 64, 98
1, 322376, Control_c, 0, 64, 97
1, 322388, Poly_aftertouch_c, 0, 71, 0
1, 322391, Control_c, 0, 64, 96
1, 322406, Control_c, 0, 64, 94
1, 322421, Control_c, 0, 64, 92
1, 322436, Control_c, 0, 64, 91
1, 322450, Control_c, 0, 64, 89
1, 322466, Control_c, 0, 64, 87
1, 322481, Control_c, 0, 64, 84
1, 322484, Note_off_c, 0, 67, 39
1, 322496, Control_c, 0, 64, 81
1, 322511, Control_c, 0, 64, 77
1, 322525, Control_c, 0, 64, 72
1, 322540, Control_c, 0, 64, 66
1, 322555, Control_c, 0, 64, 58
1, 322570, Control_c, 0, 64, 19
1, 322584, Control_c, 0, 64, 0
1, 322621, Note_on_c, 0, 52, 41
1, 322658, Control_c, 0, 64, 33
1, 322673, Control_c, 0, 64, 47
1, 322688, Control_c, 0, 64, 57
1, 322703, Control_c, 0, 64, 61
1, 322718, Control_c, 0, 64, 63
1, 322732, Control_c, 0, 64, 64
1, 322747, Control_c, 0, 64, 66
1, 322762, Control_c, 0, 64, 68
1, 322776, Control_c, 0, 64, 71
1, 322791, Control_c, 0, 64, 73
1, 322807, Control_c, 0, 64, 76
1, 322822, Control_c, 0, 64, 79
1, 322837, Control_c, 0, 64, 81
1, 322852, Control_c, 0, 64, 83
1, 322856, Note_on_c, 0, 57, 46
1, 322867, Control_c, 0, 64, 86
1, 322881, Control_c, 0, 64, 88
1, 322896, Control_c, 0, 64, 90
1, 322908, Note_off_c, 0, 52, 40
1, 322911, Control_c, 0, 64, 92
1, 322926, Control_c, 0, 64, 95
1, 322941, Control_c, 0, 64, 97
1, 322955, Control_c, 0, 64, 98
1, 322970, Control_c, 0, 64, 100
1, 322985, Control_c, 0, 64, 100
1, 322999, Control_c, 0, 64, 101
1, 323096, Note_on_c, 0, 52, 49
1, 323167, Note_off_c, 0, 57, 33
1, 323184, Note_off_c, 0, 48, 41
1, 323274, Control_c, 0, 64, 100
1, 323304, Control_c, 0, 64, 100
1, 323318, Control_c, 0, 64, 99
1, 323333, Control_c, 0, 64, 99
1, 323348, Control_c, 0, 64, 98
1, 323363, Control_c, 0, 64, 97
1, 323378, Control_c, 0, 64, 96
1, 323379, Note_on_c, 0, 67, 50
1, 323392, Control_c, 0, 64, 95
1, 323407, Control_c, 0, 64, 94
1, 323422, Control_c, 0, 64, 93
1, 323426, Note_on_c, 0, 50, 39
1, 323437, Control_c, 0, 64, 91
1, 323452, Control_c, 0, 64, 89
1, 323467, Control_c, 0, 64, 86
1, 323481, Control_c, 0, 64, 81
1, 323496, Control_c, 0, 64, 75
1, 323503, Note_off_c, 0, 69, 52
1, 323507, Note_off_c, 0, 52, 34
1, 323511, Control_c, 0, 64, 66
1, 323525, Control_c, 0, 64, 31
1, 323540, Control_c, 0, 64, 0
1, 323570, Control_c, 0, 64, 31
1, 323585, Control_c, 0, 64, 52
1, 323601, Control_c, 0, 64, 60
1, 323616, Control_c, 0, 64, 64
1, 323630, Control_c, 0, 64, 68
1, 323645, Control_c, 0, 64, 71
1, 323660, Control_c, 0, 64, 76
1, 323675, Control_c, 0, 64, 80
1, 323690, Control_c, 0, 64, 83
1, 323704, Control_c, 0, 64, 87
1, 323719, Control_c, 0, 64, 90
1, 323734, Control_c, 0, 64, 93
1, 323739, Note_on_c, 0, 66, 61
1, 323749, Control_c, 0, 64, 97
1, 323760, Note_on_c, 0, 60, 43
1, 323764, Control_c, 0, 64, 100
1, 323778, Control_c, 0, 64, 104
1, 323793, Note_off_c, 0, 67, 50
1, 323793, Control_c, 0, 64, 107
1, 323808, Control_c, 0, 64, 109
1, 323822, Control_c, 0, 64, 111
1, 323837, Control_c, 0, 64, 112
1, 323852, Control_c, 0, 64, 112
1, 323875, Control_c, 0, 64, 113
1, 323912, Note_off_c, 0, 66, 57
1, 323998, Note_on_c, 0, 66, 75
1, 324007, Note_on_c, 0, 57, 48
1, 324035, Note_off_c, 0, 60, 36
1, 324126, Control_c, 0, 64, 112
1, 324134, Note_off_c, 0, 50, 45
1, 324171, Control_c, 0, 64, 112
1, 324201, Control_c, 0, 64, 111
1, 324202, Note_off_c, 0, 57, 37
1, 324215, Control_c, 0, 64, 111
1, 324230, Control_c, 0, 64, 110
1, 324237, Note_on_c, 0, 62, 77
1, 324240, Note_on_c, 0, 60, 46
1, 324256, Note_off_c, 0, 66, 57
1, 324260, Control_c, 0, 64, 110
1, 324275, Control_c, 0, 64, 109
1, 324289, Control_c, 0, 64, 109
1, 324319, Control_c, 0, 64, 108
1, 324334, Control_c, 0, 64, 108
1, 324348, Control_c, 0, 64, 107
1, 324363, Control_c, 0, 64, 106
1, 324378, Control_c, 0, 64, 106
1, 324394, Control_c, 0, 64, 104
1, 324409, Control_c, 0, 64, 103
1, 324424, Control_c, 0, 64, 101
1, 324439, Control_c, 0, 64, 99
1, 324453, Note_off_c, 0, 60, 32
1, 324453, Control_c, 0, 64, 97
1, 324468, Control_c, 0, 64, 95
1, 324483, Control_c, 0, 64, 92
1, 324492, Note_on_c, 0, 74, 67
1, 324498, Control_c, 0, 64, 90
1, 324513, Note_on_c, 0, 55, 43
1, 324513, Control_c, 0, 64, 87
1, 324527, Control_c, 0, 64, 84
1, 324542, Control_c, 0, 64, 81
1, 324548, Note_off_c, 0, 62, 52
1, 324557, Control_c, 0, 64, 77
1, 324571, Control_c, 0, 64, 71
1, 324586, Control_c, 0, 64, 64
1, 324601, Control_c, 0, 64, 31
1, 324624, Control_c, 0, 64, 0
1, 324761, Note_on_c, 0, 59, 40
1, 324815, Control_c, 0, 64, 43
1, 324830, Control_c, 0, 64, 60
1, 324845, Control_c, 0, 64, 65
1, 324860, Control_c, 0, 64, 68
1, 324874, Control_c, 0, 64, 72
1, 324889, Control_c, 0, 64, 76
1, 324904, Control_c, 0, 64, 80
1, 324919, Control_c, 0, 64, 85
1, 324934, Control_c, 0, 64, 88
1, 324949, Control_c, 0, 64, 91
1, 324964, Control_c, 0, 64, 94
1, 324978, Control_c, 0, 64, 96
1, 324981, Note_off_c, 0, 59, 29
1, 324993, Control_c, 0, 64, 98
1, 325008, Control_c, 0, 64, 101
1, 325014, Note_on_c, 0, 62, 39
1, 325023, Control_c, 0, 64, 103
1, 325038, Control_c, 0, 64, 105
1, 325052, Control_c, 0, 64, 106
1, 325067, Control_c, 0, 64, 107
1, 325082, Control_c, 0, 64, 107
1, 325227, Note_off_c, 0, 55, 56
1, 325241, Note_on_c, 0, 59, 42
1, 325262, Note_off_c, 0, 62, 35
1, 325320, Control_c, 0, 64, 107
1, 325349, Control_c, 0, 64, 106
1, 325372, Control_c, 0, 64, 106
1, 325387, Control_c, 0, 64, 105
1, 325401, Control_c, 0, 64, 104
1, 325403, Note_off_c, 0, 59, 31
1, 325416, Control_c, 0, 64, 103
1, 325431, Control_c, 0, 64, 103
1, 325446, Control_c, 0, 64, 102
1, 325462, Control_c, 0, 64, 101
1, 325476, Control_c, 0, 64, 99
1, 325481, Note_on_c, 0, 67, 52
1, 325491, Control_c, 0, 64, 98
1, 325494, Note_on_c, 0, 52, 40
1, 325497, Note_off_c, 0, 74, 55
1, 325506, Control_c, 0, 64, 96
1, 325521, Control_c, 0, 64, 94
1, 325536, Control_c, 0, 64, 91
1, 325550, Control_c, 0, 64, 87
1, 325565, Control_c, 0, 64, 82
1, 325580, Control_c, 0, 64, 75
1, 325594, Control_c, 0, 64, 68
1, 325609, Control_c, 0, 64, 58
1, 325624, Control_c, 0, 64, 0
1, 325639, Control_c, 0, 64, 28
1, 325654, Control_c, 0, 64, 46
1, 325668, Control_c, 0, 64, 56
1, 325683, Control_c, 0, 64, 62
1, 325698, Control_c, 0, 64, 65
1, 325713, Control_c, 0, 64, 67
1, 325723, Note_on_c, 0, 55, 45
1, 325727, Control_c, 0, 64, 71
1, 325742, Control_c, 0, 64, 75
1, 325757, Control_c, 0, 64, 79
1, 325772, Control_c, 0, 64, 83
1, 325787, Control_c, 0, 64, 87
1, 325802, Control_c, 0, 64, 90
1, 325816, Control_c, 0, 64, 93
1, 325831, Control_c, 0, 64, 96
1, 325846, Control_c, 0, 64, 98
1, 325861, Control_c, 0, 64, 100
1, 325876, Control_c, 0, 64, 102
1, 325891, Control_c, 0, 64, 103
1, 325894, Note_off_c, 0, 67, 49
1, 325960, Note_on_c, 0, 59, 44
1, 325989, Note_off_c, 0, 55, 32
1, 326036, Note_on_c, 0, 67, 53
1, 326105, Note_off_c, 0, 67, 60
1, 326121, Control_c, 0, 64, 102
1, 326128, Note_on_c, 0, 69, 58
1, 326136, Control_c, 0, 64, 102
1, 326165, Control_c, 0, 64, 101
1, 326183, Note_on_c, 0, 55, 39
1, 326189, Note_off_c, 0, 69, 56
1, 326202, Note_on_c, 0, 67, 55
1, 326210, Control_c, 0, 64, 101
1, 326249, Note_off_c, 0, 67, 60
1, 326255, Control_c, 0, 64, 100
1, 326260, Note_off_c, 0, 55, 53
1, 326261, Note_on_c, 0, 69, 53
1, 326284, Control_c, 0, 64, 100
1, 326299, Control_c, 0, 64, 99
1, 326326, Note_off_c, 0, 69, 61
1, 326329, Control_c, 0, 64, 99
1, 326330, Note_on_c, 0, 67, 50
1, 326333, Note_off_c, 0, 52, 40
1, 326343, Control_c, 0, 64, 98
1, 326373, Control_c, 0, 64, 98
1, 326388, Control_c, 0, 64, 97
1, 326417, Control_c, 0, 64, 96
1, 326432, Control_c, 0, 64, 95
1, 326442, Note_off_c, 0, 59, 28
1, 326447, Control_c, 0, 64, 95
1, 326462, Control_c, 0, 64, 94
1, 326477, Control_c, 0, 64, 92
1, 326491, Control_c, 0, 64, 91
1, 326504, Note_on_c, 0, 71, 55
1, 326506, Control_c, 0, 64, 89
1, 326521, Control_c, 0, 64, 87
1, 326524, Note_on_c, 0, 48, 41
1, 326526, Note_off_c, 0, 67, 51
1, 326536, Control_c, 0, 64, 84
1, 326550, Control_c, 0, 64, 81
1, 326565, Control_c, 0, 64, 77
1, 326580, Control_c, 0, 64, 71
1, 326595, Control_c, 0, 64, 63
1, 326610, Control_c, 0, 64, 0
1, 326729, Control_c, 0, 64, 21
1, 326743, Control_c, 0, 64, 41
1, 326758, Control_c, 0, 64, 49
1, 326773, Control_c, 0, 64, 55
1, 326788, Control_c, 0, 64, 59
1, 326803, Control_c, 0, 64, 63
1, 326818, Control_c, 0, 64, 65
1, 326833, Control_c, 0, 64, 67
1, 326848, Control_c, 0, 64, 68
1, 326870, Control_c, 0, 64, 70
1, 326883, Note_on_c, 0, 69, 52
1, 326885, Note_on_c, 0, 52, 40
1, 326885, Control_c, 0, 64, 73
1, 326900, Control_c, 0, 64, 75
1, 326914, Control_c, 0, 64, 78
1, 326922, Note_off_c, 0, 71, 46
1, 326929, Control_c, 0, 64, 81
1, 326944, Control_c, 0, 64, 83
1, 326959, Control_c, 0, 64, 86
1, 326973, Control_c, 0, 64, 88
1, 326988, Control_c, 0, 64, 90
1, 327003, Control_c, 0, 64, 93
1, 327018, Control_c, 0, 64, 95
1, 327033, Control_c, 0, 64, 96
1, 327039, Note_off_c, 0, 69, 53
1, 327048, Control_c, 0, 64, 98
1, 327062, Control_c, 0, 64, 98
1, 327092, Control_c, 0, 64, 99
1, 327122, Note_off_c, 0, 52, 34
1, 327138, Note_on_c, 0, 69, 57
1, 327152, Note_on_c, 0, 57, 38
1, 327236, Note_off_c, 0, 69, 52
1, 327380, Note_on_c, 0, 52, 45
1, 327446, Note_off_c, 0, 48, 40
1, 327451, Note_off_c, 0, 57, 41
1, 327492, Control_c, 0, 64, 98
1, 327536, Control_c, 0, 64, 98
1, 327546, Note_off_c, 0, 52, 34
1, 327551, Control_c, 0, 64, 97
1, 327566, Control_c, 0, 64, 97
1, 327596, Control_c, 0, 64, 96
1, 327619, Control_c, 0, 64, 95
1, 327630, Note_on_c, 0, 67, 55
1, 327634, Control_c, 0, 64, 94
1, 327649, Control_c, 0, 64, 92
1, 327656, Note_on_c, 0, 50, 42
1, 327664, Control_c, 0, 64, 91
1, 327678, Control_c, 0, 64, 89
1, 327693, Control_c, 0, 64, 86
1, 327708, Control_c, 0, 64, 81
1, 327723, Control_c, 0, 64, 72
1, 327738, Control_c, 0, 64, 64
1, 327752, Control_c, 0, 64, 0
1, 327811, Control_c, 0, 64, 36
1, 327826, Control_c, 0, 64, 57
1, 327841, Control_c, 0, 64, 63
1, 327856, Control_c, 0, 64, 66
1, 327870, Control_c, 0, 64, 69
1, 327885, Control_c, 0, 64, 73
1, 327900, Control_c, 0, 64, 77
1, 327915, Control_c, 0, 64, 83
1, 327930, Control_c, 0, 64, 89
1, 327933, Note_on_c, 0, 66, 63
1, 327945, Control_c, 0, 64, 95
1, 327949, Note_on_c, 0, 60, 50
1, 327960, Control_c, 0, 64, 101
1, 327975, Control_c, 0, 64, 108
1, 327989, Control_c, 0, 64, 119
1, 328004, Control_c, 0, 64, 127
1, 328010, Note_off_c, 0, 67, 38
1, 328082, Note_off_c, 0, 66, 59
1, 328165, Note_on_c, 0, 66, 65
1, 328183, Note_on_c, 0, 57, 50
1, 328195, Note_off_c, 0, 60, 30
1, 328352, Note_off_c, 0, 57, 37
1, 328423, Note_on_c, 0, 62, 63
1, 328425, Note_on_c, 0, 60, 50
1, 328445, Note_off_c, 0, 66, 50
1, 328477, Note_off_c, 0, 60, 58
1, 328492, Note_off_c, 0, 50, 63
1, 328649, Control_c, 0, 64, 126
1, 328661, Note_on_c, 0, 67, 64
1, 328664, Control_c, 0, 64, 108
1, 328672, Note_off_c, 0, 62, 57
1, 328679, Control_c, 0, 64, 95
1, 328687, Note_on_c, 0, 43, 61
1, 328693, Control_c, 0, 64, 82
1, 328708, Control_c, 0, 64, 69
1, 328723, Control_c, 0, 64, 0
1, 328797, Control_c, 0, 64, 49
1, 328812, Control_c, 0, 64, 65
1, 328827, Control_c, 0, 64, 74
1, 328842, Control_c, 0, 64, 87
1, 328857, Control_c, 0, 64, 118
1, 328872, Control_c, 0, 64, 127
1, 328925, Note_on_c, 0, 55, 62
1, 328928, Note_off_c, 0, 43, 60
1, 329172, Note_off_c, 0, 55, 60
1, 329176, Note_on_c, 0, 59, 68
1, 329411, Note_on_c, 0, 62, 74
1, 329414, Note_off_c, 0, 59, 53
1, 329469, Note_off_c, 0, 62, 59
1, 329507, Note_off_c, 0, 67, 29
1, 329646, Note_on_c, 0, 79, 84
1, 329657, Note_on_c, 0, 67, 73
1, 329687, Note_on_c, 0, 40, 65
1, 329709, Control_c, 0, 64, 106
1, 329724, Control_c, 0, 64, 85
1, 329739, Control_c, 0, 64, 68
1, 329754, Control_c, 0, 64, 0
1, 329798, Control_c, 0, 64, 14
1, 329813, Control_c, 0, 64, 62
1, 329827, Control_c, 0, 64, 69
1, 329842, Control_c, 0, 64, 79
1, 329864, Control_c, 0, 64, 93
1, 329879, Control_c, 0, 64, 118
1, 329894, Control_c, 0, 64, 127
1, 329912, Note_on_c, 0, 52, 73
1, 329928, Note_off_c, 0, 40, 60
1, 330065, Note_off_c, 0, 67, 51
1, 330089, Note_off_c, 0, 52, 56
1, 330156, Note_on_c, 0, 55, 75
1, 330288, Note_off_c, 0, 79, 51
1, 330334, Note_off_c, 0, 55, 58
1, 330384, Note_on_c, 0, 59, 77
1, 330445, Note_off_c, 0, 59, 60
1, 330640, Note_on_c, 0, 83, 80
1, 330651, Note_on_c, 0, 71, 68
1, 330687, Control_c, 0, 64, 104
1, 330702, Control_c, 0, 64, 82
1, 330705, Note_on_c, 0, 36, 59
1, 330717, Control_c, 0, 64, 45
1, 330732, Control_c, 0, 64, 0
1, 330777, Control_c, 0, 64, 62
1, 330792, Control_c, 0, 64, 83
1, 330806, Control_c, 0, 64, 127
1, 330852, Note_off_c, 0, 83, 56
1, 330860, Note_off_c, 0, 71, 60
1, 330920, Note_off_c, 0, 36, 56
1, 330948, Note_on_c, 0, 81, 79
1, 330959, Note_on_c, 0, 48, 62
1, 330961, Note_on_c, 0, 69, 68
1, 331022, Note_off_c, 0, 48, 60
1, 331117, Note_off_c, 0, 81, 55
1, 331143, Note_off_c, 0, 69, 56
1, 331204, Note_on_c, 0, 52, 73
1, 331426, Note_off_c, 0, 52, 55
1, 331444, Note_on_c, 0, 57, 73
1, 331510, Note_off_c, 0, 57, 59
1, 331686, Note_on_c, 0, 79, 77
1, 331700, Note_on_c, 0, 67, 63
1, 331719, Control_c, 0, 64, 97
1, 331728, Note_on_c, 0, 38, 65
1, 331734, Control_c, 0, 64, 76
1, 331748, Control_c, 0, 64, 42
1, 331763, Control_c, 0, 64, 0
1, 331801, Note_off_c, 0, 67, 60
1, 331808, Control_c, 0, 64, 62
1, 331823, Control_c, 0, 64, 70
1, 331837, Control_c, 0, 64, 81
1, 331852, Control_c, 0, 64, 101
1, 331867, Control_c, 0, 64, 127
1, 331939, Note_off_c, 0, 38, 59
1, 331944, Note_on_c, 0, 78, 78
1, 331946, Note_on_c, 0, 66, 80
1, 331960, Note_on_c, 0, 50, 67
1, 331972, Note_off_c, 0, 79, 53
1, 332023, Note_off_c, 0, 50, 64
1, 332031, Note_off_c, 0, 66, 57
1, 332060, Note_off_c, 0, 78, 59
1, 332193, Note_on_c, 0, 78, 87
1, 332198, Note_on_c, 0, 66, 86
1, 332209, Note_on_c, 0, 57, 71
1, 332243, Note_off_c, 0, 66, 61
1, 332261, Note_off_c, 0, 78, 63
1, 332423, Note_off_c, 0, 57, 52
1, 332443, Note_on_c, 0, 74, 90
1, 332446, Note_on_c, 0, 62, 82
1, 332468, Note_off_c, 0, 62, 68
1, 332469, Note_on_c, 0, 60, 70
1, 332496, Note_off_c, 0, 74, 66
1, 332586, Note_off_c, 0, 60, 60
1, 332785, Note_on_c, 0, 86, 91
1, 332791, Note_on_c, 0, 74, 90
1, 332830, Note_on_c, 0, 35, 63
1, 332875, Control_c, 0, 64, 97
1, 332890, Control_c, 0, 64, 77
1, 332905, Control_c, 0, 64, 40
1, 332920, Control_c, 0, 64, 0
1, 332978, Control_c, 0, 64, 36
1, 332992, Control_c, 0, 64, 64
1, 333007, Control_c, 0, 64, 74
1, 333022, Control_c, 0, 64, 92
1, 333037, Control_c, 0, 64, 127
1, 333069, Note_off_c, 0, 35, 60
1, 333093, Note_on_c, 0, 47, 66
1, 333159, Note_off_c, 0, 47, 63
1, 333209, Note_off_c, 0, 86, 59
1, 333257, Note_off_c, 0, 74, 58
1, 333337, Note_on_c, 0, 50, 72
1, 333579, Note_on_c, 0, 55, 77
1, 333629, Note_off_c, 0, 50, 60
1, 333686, Note_off_c, 0, 55, 59
1, 333839, Note_on_c, 0, 79, 88
1, 333844, Note_on_c, 0, 67, 80
1, 333895, Note_on_c, 0, 40, 56
1, 333904, Control_c, 0, 64, 96
1, 333919, Control_c, 0, 64, 75
1, 333933, Control_c, 0, 64, 0
1, 334009, Control_c, 0, 64, 11
1, 334024, Control_c, 0, 64, 67
1, 334038, Control_c, 0, 64, 79
1, 334053, Control_c, 0, 64, 108
1, 334068, Control_c, 0, 64, 127
1, 334118, Note_off_c, 0, 40, 60
1, 334134, Note_on_c, 0, 52, 59
1, 334231, Note_off_c, 0, 67, 53
1, 334240, Note_off_c, 0, 52, 55
1, 334246, Note_off_c, 0, 79, 55
1, 334367, Note_on_c, 0, 79, 87
1, 334376, Note_on_c, 0, 67, 80
1, 334388, Note_on_c, 0, 55, 61
1, 334473, Note_off_c, 0, 67, 54
1, 334509, Note_off_c, 0, 55, 50
1, 334600, Note_off_c, 0, 79, 55
1, 334622, Note_on_c, 0, 59, 68
1, 334693, Note_off_c, 0, 59, 58
1, 334905, Note_on_c, 0, 83, 83
1, 334918, Note_on_c, 0, 71, 71
1, 334980, Control_c, 0, 64, 119
1, 334995, Control_c, 0, 64, 93
1, 334997, Note_on_c, 0, 36, 60
1, 335010, Control_c, 0, 64, 73
1, 335024, Control_c, 0, 64, 0
1, 335084, Control_c, 0, 64, 41
1, 335105, Control_c, 0, 64, 65
1, 335120, Control_c, 0, 64, 75
1, 335135, Control_c, 0, 64, 94
1, 335150, Control_c, 0, 64, 127
1, 335191, Note_off_c, 0, 71, 58
1, 335207, Note_off_c, 0, 83, 47
1, 335304, Note_off_c, 0, 36, 34
1, 335309, Note_on_c, 0, 81, 84
1, 335325, Note_on_c, 0, 69, 67
1, 335340, Note_on_c, 0, 48, 51
1, 335390, Note_off_c, 0, 48, 55
1, 335461, Note_off_c, 0, 69, 50
1, 335496, Note_off_c, 0, 81, 57
1, 335597, Note_on_c, 0, 81, 83
1, 335600, Note_on_c, 0, 52, 56
1, 335604, Note_on_c, 0, 69, 66
1, 335715, Note_off_c, 0, 52, 55
1, 335719, Note_off_c, 0, 69, 46
1, 335744, Note_off_c, 0, 81, 56
1, 335842, Note_on_c, 0, 81, 81
1, 335852, Note_on_c, 0, 57, 55
1, 335862, Note_on_c, 0, 69, 61
1, 335890, Note_off_c, 0, 57, 60
1, 335967, Note_off_c, 0, 69, 48
1, 335987, Note_off_c, 0, 81, 51
1, 336104, Note_on_c, 0, 79, 74
1, 336106, Control_c, 0, 64, 101
1, 336121, Control_c, 0, 64, 79
1, 336124, Note_on_c, 0, 67, 57
1, 336136, Control_c, 0, 64, 53
1, 336138, Note_on_c, 0, 38, 51
1, 336151, Control_c, 0, 64, 0
1, 336196, Control_c, 0, 64, 27
1, 336208, Note_off_c, 0, 67, 58
1, 336210, Control_c, 0, 64, 63
1, 336225, Control_c, 0, 64, 71
1, 336240, Control_c, 0, 64, 81
1, 336255, Control_c, 0, 64, 100
1, 336270, Control_c, 0, 64, 127
1, 336355, Note_off_c, 0, 38, 43
1, 336366, Note_on_c, 0, 78, 72
1, 336378, Note_on_c, 0, 66, 66
1, 336384, Note_on_c, 0, 50, 50
1, 336411, Note_off_c, 0, 79, 55
1, 336422, Note_off_c, 0, 50, 64
1, 336470, Note_off_c, 0, 66, 52
1, 336508, Note_off_c, 0, 78, 59
1, 336626, Note_on_c, 0, 78, 80
1, 336636, Note_on_c, 0, 66, 71
1, 336640, Note_on_c, 0, 57, 50
1, 336684, Note_off_c, 0, 66, 54
1, 336694, Note_off_c, 0, 78, 64
1, 336707, Note_off_c, 0, 57, 51
1, 336864, Note_on_c, 0, 74, 80
1, 336867, Note_on_c, 0, 60, 47
1, 336867, Note_on_c, 0, 62, 71
1, 336892, Note_off_c, 0, 62, 66
1, 336919, Note_off_c, 0, 74, 64
1, 337018, Note_off_c, 0, 60, 38
1, 337111, Note_on_c, 0, 55, 39
1, 337156, Note_on_c, 0, 79, 69
1, 337177, Note_on_c, 0, 67, 49
1, 337212, Control_c, 0, 64, 106
1, 337227, Control_c, 0, 64, 94
1, 337241, Control_c, 0, 64, 84
1, 337256, Control_c, 0, 64, 75
1, 337271, Control_c, 0, 64, 65
1, 337286, Control_c, 0, 64, 0
1, 337409, Note_on_c, 0, 62, 44
1, 337414, Note_on_c, 0, 59, 41
1, 337451, Note_off_c, 0, 62, 58
1, 337453, Note_off_c, 0, 59, 60
1, 337648, Control_c, 0, 67, 18
1, 337663, Control_c, 0, 67, 37
1, 337671, Note_on_c, 0, 62, 37
1, 337674, Note_on_c, 0, 59, 38
1, 337678, Control_c, 0, 67, 62
1, 337693, Control_c, 0, 67, 83
1, 337707, Control_c, 0, 67, 103
1, 337722, Control_c, 0, 67, 119
1, 337725, Note_off_c, 0, 59, 45
1, 337727, Note_off_c, 0, 62, 49
1, 337737, Control_c, 0, 64, 33
1, 337737, Control_c, 0, 67, 127
1, 337752, Control_c, 0, 64, 57
1, 337767, Control_c, 0, 64, 64
1, 337782, Control_c, 0, 64, 67
1, 337797, Control_c, 0, 64, 71
1, 337812, Control_c, 0, 64, 75
1, 337826, Control_c, 0, 64, 81
1, 337841, Control_c, 0, 64, 87
1, 337856, Control_c, 0, 64, 94
1, 337871, Control_c, 0, 64, 100
1, 337886, Control_c, 0, 64, 106
1, 337900, Control_c, 0, 64, 114
1, 337915, Control_c, 0, 64, 127
1, 337923, Note_on_c, 0, 62, 36
1, 337930, Note_off_c, 0, 67, 37
1, 337933, Note_on_c, 0, 59, 38
1, 337987, Note_off_c, 0, 79, 59
1, 338076, Note_off_c, 0, 55, 44
1, 338154, Note_off_c, 0, 59, 37
1, 338319, Note_off_c, 0, 62, 35
1, 338321, Note_on_c, 0, 83, 53
1, 338394, Note_on_c, 0, 50, 37
1, 338399, Control_c, 0, 64, 117
1, 338413, Control_c, 0, 64, 108
1, 338428, Control_c, 0, 64, 101
1, 338443, Control_c, 0, 64, 92
1, 338458, Control_c, 0, 64, 82
1, 338472, Control_c, 0, 64, 70
1, 338487, Control_c, 0, 64, 53
1, 338502, Control_c, 0, 64, 0
1, 338546, Control_c, 0, 64, 36
1, 338561, Control_c, 0, 64, 58
1, 338576, Control_c, 0, 64, 64
1, 338591, Control_c, 0, 64, 67
1, 338605, Control_c, 0, 64, 70
1, 338620, Control_c, 0, 64, 73
1, 338635, Control_c, 0, 64, 77
1, 338649, Control_c, 0, 64, 80
1, 338664, Control_c, 0, 64, 85
1, 338679, Control_c, 0, 64, 89
1, 338694, Control_c, 0, 64, 93
1, 338709, Control_c, 0, 64, 98
1, 338724, Control_c, 0, 64, 102
1, 338731, Note_on_c, 0, 81, 52
1, 338739, Control_c, 0, 64, 107
1, 338754, Control_c, 0, 64, 112
1, 338766, Note_on_c, 0, 62, 26
1, 338769, Control_c, 0, 64, 115
1, 338777, Note_on_c, 0, 60, 28
1, 338784, Control_c, 0, 64, 118
1, 338799, Control_c, 0, 64, 120
1, 338807, Note_off_c, 0, 83, 39
1, 338814, Control_c, 0, 64, 122
1, 338828, Control_c, 0, 64, 123
1, 338865, Note_off_c, 0, 60, 41
1, 338866, Control_c, 0, 64, 124
1, 338890, Note_off_c, 0, 62, 36
1, 338902, Note_off_c, 0, 81, 47
1, 339013, Control_c, 0, 64, 123
1, 339016, Note_on_c, 0, 81, 62
1, 339025, Note_on_c, 0, 62, 41
1, 339031, Note_on_c, 0, 60, 36
1, 339111, Note_off_c, 0, 60, 48
1, 339144, Note_off_c, 0, 62, 34
1, 339268, Note_off_c, 0, 50, 45
1, 339274, Note_on_c, 0, 78, 67
1, 339279, Control_c, 0, 64, 122
1, 339286, Note_on_c, 0, 60, 40
1, 339288, Note_on_c, 0, 62, 39
1, 339304, Note_off_c, 0, 81, 58
1, 339324, Control_c, 0, 64, 121
1, 339339, Control_c, 0, 64, 119
1, 339340, Note_off_c, 0, 60, 51
1, 339353, Control_c, 0, 64, 118
1, 339368, Control_c, 0, 64, 117
1, 339383, Control_c, 0, 64, 115
1, 339398, Control_c, 0, 64, 113
1, 339413, Control_c, 0, 64, 110
1, 339415, Note_off_c, 0, 62, 32
1, 339427, Control_c, 0, 64, 107
1, 339442, Control_c, 0, 64, 104
1, 339457, Control_c, 0, 64, 101
1, 339472, Control_c, 0, 64, 96
1, 339487, Control_c, 0, 64, 90
1, 339502, Control_c, 0, 64, 82
1, 339517, Control_c, 0, 64, 72
1, 339524, Note_on_c, 0, 79, 52
1, 339526, Note_off_c, 0, 78, 58
1, 339532, Control_c, 0, 64, 57
1, 339541, Note_on_c, 0, 55, 33
1, 339546, Control_c, 0, 64, 0
1, 339788, Note_on_c, 0, 83, 48
1, 339789, Note_off_c, 0, 79, 38
1, 339791, Note_on_c, 0, 62, 37
1, 339798, Note_on_c, 0, 59, 35
1, 339846, Note_off_c, 0, 59, 54
1, 339856, Note_off_c, 0, 62, 52
1, 339999, Control_c, 0, 64, 39
1, 340004, Note_off_c, 0, 83, 55
1, 340014, Control_c, 0, 64, 56
1, 340028, Note_on_c, 0, 62, 35
1, 340029, Control_c, 0, 64, 63
1, 340032, Note_on_c, 0, 86, 53
1, 340043, Control_c, 0, 64, 66
1, 340047, Note_on_c, 0, 59, 29
1, 340058, Control_c, 0, 64, 69
1, 340073, Control_c, 0, 64, 72
1, 340087, Control_c, 0, 64, 75
1, 340102, Control_c, 0, 64, 79
1, 340104, Note_off_c, 0, 59, 42
1, 340117, Control_c, 0, 64, 83
1, 340119, Note_off_c, 0, 62, 37
1, 340132, Control_c, 0, 64, 87
1, 340147, Control_c, 0, 64, 91
1, 340161, Control_c, 0, 64, 95
1, 340171, Note_off_c, 0, 86, 39
1, 340176, Control_c, 0, 64, 100
1, 340191, Control_c, 0, 64, 104
1, 340206, Control_c, 0, 64, 108
1, 340221, Control_c, 0, 64, 111
1, 340236, Control_c, 0, 64, 113
1, 340250, Control_c, 0, 64, 114
1, 340265, Control_c, 0, 64, 115
1, 340288, Note_on_c, 0, 59, 38
1, 340289, Note_on_c, 0, 62, 33
1, 340356, Note_off_c, 0, 55, 40
1, 340359, Note_off_c, 0, 59, 57
1, 340452, Control_c, 0, 64, 114
1, 340476, Note_off_c, 0, 62, 38
1, 340481, Control_c, 0, 64, 114
1, 340496, Control_c, 0, 64, 112
1, 340511, Control_c, 0, 64, 110
1, 340525, Control_c, 0, 64, 106
1, 340540, Control_c, 0, 64, 102
1, 340550, Note_on_c, 0, 83, 53
1, 340555, Control_c, 0, 64, 96
1, 340566, Note_on_c, 0, 50, 37
1, 340570, Control_c, 0, 64, 88
1, 340585, Control_c, 0, 64, 81
1, 340599, Control_c, 0, 64, 73
1, 340614, Control_c, 0, 64, 63
1, 340629, Control_c, 0, 64, 0
1, 340815, Note_on_c, 0, 81, 53
1, 340821, Note_on_c, 0, 60, 34
1, 340824, Note_on_c, 0, 62, 29
1, 340854, Note_off_c, 0, 83, 57
1, 340879, Note_off_c, 0, 60, 46
1, 340884, Note_off_c, 0, 62, 43
1, 340926, Note_off_c, 0, 81, 50
1, 341051, Note_on_c, 0, 81, 53
1, 341069, Note_on_c, 0, 62, 33
1, 341070, Note_on_c, 0, 60, 35
1, 341096, Control_c, 0, 64, 14
1, 341111, Control_c, 0, 64, 38
1, 341125, Control_c, 0, 64, 51
1, 341140, Control_c, 0, 64, 60
1, 341155, Control_c, 0, 64, 63
1, 341171, Control_c, 0, 64, 65
1, 341186, Control_c, 0, 64, 66
1, 341198, Note_off_c, 0, 60, 38
1, 341201, Control_c, 0, 64, 68
1, 341210, Note_off_c, 0, 62, 35
1, 341216, Control_c, 0, 64, 70
1, 341231, Control_c, 0, 64, 73
1, 341246, Control_c, 0, 64, 75
1, 341260, Control_c, 0, 64, 78
1, 341275, Control_c, 0, 64, 81
1, 341290, Control_c, 0, 64, 83
1, 341305, Control_c, 0, 64, 85
1, 341309, Note_on_c, 0, 78, 57
1, 341312, Note_on_c, 0, 62, 36
1, 341317, Note_on_c, 0, 60, 41
1, 341320, Control_c, 0, 64, 88
1, 341335, Control_c, 0, 64, 89
1, 341336, Note_off_c, 0, 50, 40
1, 341347, Note_off_c, 0, 81, 58
1, 341349, Control_c, 0, 64, 90
1, 341364, Control_c, 0, 64, 91
1, 341383, Note_off_c, 0, 78, 62
1, 341388, Note_off_c, 0, 60, 49
1, 341443, Note_off_c, 0, 62, 31
1, 341512, Control_c, 0, 64, 90
1, 341527, Control_c, 0, 64, 87
1, 341541, Control_c, 0, 64, 81
1, 341556, Control_c, 0, 64, 74
1, 341561, Note_on_c, 0, 79, 62
1, 341566, Note_on_c, 0, 62, 32
1, 341571, Control_c, 0, 64, 67
1, 341580, Note_on_c, 0, 55, 38
1, 341583, Note_on_c, 0, 59, 37
1, 341583, Note_on_c, 0, 67, 41
1, 341586, Control_c, 0, 64, 56
1, 341601, Control_c, 0, 64, 50
1, 341615, Control_c, 0, 64, 59
1, 341629, Note_off_c, 0, 67, 48
1, 341630, Control_c, 0, 64, 63
1, 341645, Control_c, 0, 64, 66
1, 341659, Note_off_c, 0, 79, 56
1, 341660, Control_c, 0, 64, 68
1, 341675, Control_c, 0, 64, 70
1, 341690, Control_c, 0, 64, 73
1, 341705, Control_c, 0, 64, 77
1, 341716, Note_off_c, 0, 59, 57
1, 341720, Control_c, 0, 64, 80
1, 341723, Note_off_c, 0, 62, 46
1, 341734, Control_c, 0, 64, 82
1, 341736, Note_off_c, 0, 55, 55
1, 341749, Control_c, 0, 64, 84
1, 341764, Control_c, 0, 64, 85
1, 341779, Control_c, 0, 64, 86
1, 341794, Control_c, 0, 64, 86
1, 341815, Note_on_c, 0, 83, 71
1, 341827, Note_on_c, 0, 71, 60
1, 341878, Note_off_c, 0, 71, 57
1, 341904, Note_off_c, 0, 83, 60
1, 341904, Control_c, 0, 64, 86
1, 341979, Control_c, 0, 64, 85
1, 341994, Control_c, 0, 64, 84
1, 342009, Control_c, 0, 64, 83
1, 342024, Control_c, 0, 64, 80
1, 342039, Control_c, 0, 64, 77
1, 342053, Control_c, 0, 64, 71
1, 342068, Control_c, 0, 64, 64
1, 342079, Note_on_c, 0, 86, 56
1, 342082, Note_on_c, 0, 60, 37
1, 342083, Note_on_c, 0, 50, 41
1, 342083, Control_c, 0, 64, 0
1, 342087, Note_on_c, 0, 54, 37
1, 342098, Note_on_c, 0, 74, 34
1, 342131, Note_off_c, 0, 86, 54
1, 342132, Note_off_c, 0, 74, 55
1, 342199, Note_off_c, 0, 60, 38
1, 342241, Note_off_c, 0, 54, 31
1, 342343, Note_on_c, 0, 86, 58
1, 342347, Note_on_c, 0, 74, 57
1, 342378, Note_off_c, 0, 86, 62
1, 342400, Note_off_c, 0, 74, 59
1, 342598, Note_off_c, 0, 50, 48
1, 342644, Note_on_c, 0, 79, 49
1, 342653, Note_on_c, 0, 59, 32
1, 342658, Note_on_c, 0, 67, 38
1, 342661, Note_on_c, 0, 55, 27
1, 342683, Control_c, 0, 64, 32
1, 342697, Control_c, 0, 64, 51
1, 342712, Control_c, 0, 64, 62
1, 342727, Control_c, 0, 64, 65
1, 342737, Note_off_c, 0, 67, 48
1, 342742, Control_c, 0, 64, 69
1, 342757, Control_c, 0, 64, 72
1, 342771, Note_off_c, 0, 79, 59
1, 342773, Control_c, 0, 64, 75
1, 342787, Control_c, 0, 64, 78
1, 342802, Control_c, 0, 64, 82
1, 342817, Control_c, 0, 64, 85
1, 342832, Control_c, 0, 64, 88
1, 342847, Control_c, 0, 64, 90
1, 342861, Control_c, 0, 64, 92
1, 342876, Control_c, 0, 64, 92
1, 342891, Control_c, 0, 64, 93
1, 342959, Note_on_c, 0, 83, 53
1, 342960, Note_on_c, 0, 71, 51
1, 343003, Note_off_c, 0, 59, 39
1, 343030, Note_off_c, 0, 71, 57
1, 343042, Note_off_c, 0, 55, 35
1, 343069, Note_off_c, 0, 83, 57
1, 343128, Control_c, 0, 64, 93
1, 343158, Control_c, 0, 64, 92
1, 343173, Control_c, 0, 64, 92
1, 343187, Control_c, 0, 64, 91
1, 343202, Control_c, 0, 64, 91
1, 343217, Control_c, 0, 64, 90
1, 343232, Control_c, 0, 64, 89
1, 343246, Control_c, 0, 64, 88
1, 343261, Control_c, 0, 64, 86
1, 343276, Control_c, 0, 64, 84
1, 343291, Control_c, 0, 64, 81
1, 343294, Note_on_c, 0, 86, 44
1, 343301, Note_on_c, 0, 74, 45
1, 343306, Control_c, 0, 64, 77
1, 343312, Note_on_c, 0, 60, 30
1, 343320, Control_c, 0, 64, 72
1, 343322, Note_on_c, 0, 54, 25
1, 343329, Note_on_c, 0, 50, 26
1, 343343, Control_c, 0, 64, 66
1, 343358, Control_c, 0, 64, 47
1, 343365, Note_off_c, 0, 74, 58
1, 343373, Control_c, 0, 64, 0
1, 343378, Note_off_c, 0, 86, 53
1, 343690, Note_on_c, 0, 86, 48
1, 343699, Note_on_c, 0, 74, 44
1, 343753, Note_off_c, 0, 74, 60
1, 343759, Note_off_c, 0, 86, 54
1, 343961, Note_off_c, 0, 60, 41
1, 344245, Note_off_c, 0, 54, 43
1, 344340, Note_off_c, 0, 50, 39
1, 344340, Note_on_c, 0, 86, 40
1, 344352, Note_on_c, 0, 74, 37
1, 344361, Note_on_c, 0, 59, 28
1, 344361, Note_on_c, 0, 55, 26
1, 344492, Control_c, 0, 64, 33
1, 344507, Control_c, 0, 64, 51
1, 344522, Control_c, 0, 64, 60
1, 344536, Control_c, 0, 64, 64
1, 344551, Control_c, 0, 64, 67
1, 344566, Control_c, 0, 64, 72
1, 344581, Control_c, 0, 64, 76
1, 344596, Control_c, 0, 64, 82
1, 344611, Control_c, 0, 64, 87
1, 344626, Control_c, 0, 64, 92
1, 344640, Control_c, 0, 64, 97
1, 344655, Control_c, 0, 64, 102
1, 344670, Control_c, 0, 64, 105
1, 344684, Control_c, 0, 64, 109
1, 344699, Control_c, 0, 64, 116
1, 344700, Note_off_c, 0, 86, 37
1, 344714, Control_c, 0, 64, 127
1, 344718, Note_off_c, 0, 74, 37
1, 345959, Control_c, 0, 64, 124
1, 345974, Control_c, 0, 64, 123
1, 345989, Control_c, 0, 64, 121
1, 346004, Control_c, 0, 64, 119
1, 346018, Control_c, 0, 64, 118
1, 346033, Control_c, 0, 64, 117
1, 346048, Control_c, 0, 64, 115
1, 346063, Control_c, 0, 64, 113
1, 346078, Control_c, 0, 64, 111
1, 346093, Control_c, 0, 64, 109
1, 346098, Note_on_c, 0, 79, 37
1, 346107, Control_c, 0, 64, 107
1, 346115, Note_on_c, 0, 67, 30
1, 346122, Control_c, 0, 64, 104
1, 346137, Control_c, 0, 64, 103
1, 346152, Control_c, 0, 64, 101
1, 346167, Control_c, 0, 64, 99
1, 346182, Control_c, 0, 64, 96
1, 346197, Control_c, 0, 64, 93
1, 346211, Control_c, 0, 64, 89
1, 346226, Control_c, 0, 64, 83
1, 346241, Control_c, 0, 64, 76
1, 346255, Control_c, 0, 64, 69
1, 346270, Control_c, 0, 64, 57
1, 346285, Control_c, 0, 64, 29
1, 346300, Control_c, 0, 64, 37
1, 346315, Control_c, 0, 64, 50
1, 346337, Control_c, 0, 64, 58
1, 346352, Control_c, 0, 64, 62
1, 346367, Control_c, 0, 64, 64
1, 346382, Control_c, 0, 64, 66
1, 346397, Control_c, 0, 64, 68
1, 346411, Control_c, 0, 64, 70
1, 346426, Control_c, 0, 64, 72
1, 346441, Control_c, 0, 64, 75
1, 346456, Control_c, 0, 64, 78
1, 346470, Control_c, 0, 64, 81
1, 346485, Control_c, 0, 64, 84
1, 346500, Control_c, 0, 64, 86
1, 346515, Control_c, 0, 64, 87
1, 346530, Control_c, 0, 64, 88
1, 346558, Note_off_c, 0, 67, 32
1, 346581, Note_off_c, 0, 79, 37
1, 346841, Control_c, 0, 67, 125
1, 346856, Control_c, 0, 67, 119
1, 346871, Control_c, 0, 67, 112
1, 346885, Control_c, 0, 67, 104
1, 346900, Control_c, 0, 67, 94
1, 346915, Control_c, 0, 67, 82
1, 346930, Control_c, 0, 67, 69
1, 346945, Control_c, 0, 67, 56
1, 346960, Control_c, 0, 67, 42
1, 346975, Control_c, 0, 67, 32
1, 346990, Control_c, 0, 67, 24
1, 347005, Control_c, 0, 67, 17
1, 347020, Control_c, 0, 67, 11
1, 347034, Control_c, 0, 67, 0
1, 347039, Note_off_c, 0, 59, 33
1, 347053, Note_off_c, 0, 55, 37
1, 347130, Control_c, 0, 64, 88
1, 347189, Control_c, 0, 64, 87
1, 347219, Control_c, 0, 64, 87
1, 347264, Control_c, 0, 64, 86
1, 347308, Control_c, 0, 64, 86
1, 347323, Control_c, 0, 64, 85
1, 347367, Control_c, 0, 64, 85
1, 347411, Control_c, 0, 64, 84
1, 347485, Control_c, 0, 64, 84
1, 347545, Control_c, 0, 64, 83
1, 347605, Control_c, 0, 64, 83
1, 347650, Control_c, 0, 64, 82
1, 347708, Control_c, 0, 64, 82
1, 347753, Control_c, 0, 64, 81
1, 347783, Control_c, 0, 64, 81
1, 347798, Control_c, 0, 64, 80
1, 347812, Control_c, 0, 64, 80
1, 347849, Control_c, 0, 64, 79
1, 347864, Control_c, 0, 64, 78
1, 347879, Control_c, 0, 64, 78
1, 347894, Control_c, 0, 64, 77
1, 347924, Control_c, 0, 64, 77
1, 347939, Control_c, 0, 64, 76
1, 347954, Control_c, 0, 64, 75
1, 347969, Control_c, 0, 64, 75
1, 347983, Control_c, 0, 64, 74
1, 347998, Control_c, 0, 64, 73
1, 348013, Control_c, 0, 64, 72
1, 348028, Control_c, 0, 64, 71
1, 348042, Control_c, 0, 64, 70
1, 348057, Control_c, 0, 64, 68
1, 348072, Control_c, 0, 64, 67
1, 348087, Control_c, 0, 64, 66
1, 348102, Control_c, 0, 64, 65
1, 348117, Control_c, 0, 64, 64
1, 348131, Control_c, 0, 64, 64
1, 348161, Control_c, 0, 64, 63
1, 348206, Control_c, 0, 64, 63
1, 348221, Control_c, 0, 64, 62
1, 348235, Control_c, 0, 64, 62
1, 348250, Control_c, 0, 64, 61
1, 348265, Control_c, 0, 64, 61
1, 348280, Control_c, 0, 64, 60
1, 348309, Control_c, 0, 64, 60
1, 348324, Control_c, 0, 64, 59
1, 348339, Control_c, 0, 64, 59
1, 348355, Control_c, 0, 64, 58
1, 348370, Control_c, 0, 64, 58
1, 348385, Control_c, 0, 64, 57
1, 348399, Control_c, 0, 64, 56
1, 348414, Control_c, 0, 64, 56
1, 348429, Control_c, 0, 64, 55
1, 348444, Control_c, 0, 64, 54
1, 348458, Control_c, 0, 64, 53
1, 348473, Control_c, 0, 64, 52
1, 348488, Control_c, 0, 64, 51
1, 348503, Control_c, 0, 64, 50
1, 348518, Control_c, 0, 64, 49
1, 348532, Control_c, 0, 64, 49
1, 348547, Control_c, 0, 64, 48
1, 348562, Control_c, 0, 64, 47
1, 348585, Control_c, 0, 64, 47
1, 348599, Control_c, 0, 64, 46
1, 348614, Control_c, 0, 64, 45
1, 348629, Control_c, 0, 64, 45
1, 348644, Control_c, 0, 64, 44
1, 348658, Control_c, 0, 64, 44
1, 348673, Control_c, 0, 64, 43
1, 348688, Control_c, 0, 64, 43
1, 348718, Control_c, 0, 64, 42
1, 348732, Control_c, 0, 64, 42
1, 348762, Control_c, 0, 64, 41
1, 348777, Control_c, 0, 64, 40
1, 348792, Control_c, 0, 64, 40
1, 348806, Control_c, 0, 64, 39
1, 348821, Control_c, 0, 64, 38
1, 348836, Control_c, 0, 64, 37
1, 348851, Control_c, 0, 64, 36
1, 348865, Control_c, 0, 64, 36
1, 348880, Control_c, 0, 64, 35
1, 348895, Control_c, 0, 64, 34
1, 348910, Control_c, 0, 64, 33
1, 348925, Control_c, 0, 64, 32
1, 348939, Control_c, 0, 64, 31
1, 348999, Control_c, 0, 64, 30
1, 349044, Control_c, 0, 64, 29
1, 349073, Control_c, 0, 64, 28
1, 349088, Control_c, 0, 64, 27
1, 349103, Control_c, 0, 64, 26
1, 349118, Control_c, 0, 64, 24
1, 349147, Control_c, 0, 64, 23
1, 349163, Control_c, 0, 64, 19
1, 349178, Control_c, 0, 64, 14
1, 349193, Control_c, 0, 64, 0
1, 352447, Control_c, 0, 67, 11
1, 352462, Control_c, 0, 67, 19
1, 352477, Control_c, 0, 67, 28
1, 352492, Control_c, 0, 67, 36
1, 352506, Control_c, 0, 67, 44
1, 352521, Control_c, 0, 67, 51
1, 352536, Control_c, 0, 67, 59
1, 352551, Control_c, 0, 67, 69
1, 352566, Control_c, 0, 67, 80
1, 352580, Control_c, 0, 67, 93
1, 352595, Control_c, 0, 67, 107
1, 352610, Control_c, 0, 67, 123
1, 352624, Control_c, 0, 67, 127
1, 354119, Note_on_c, 0, 69, 41
1, 354161, Note_on_c, 0, 81, 61
1, 354167, Note_off_c, 0, 69, 61
1, 354451, Note_on_c, 0, 78, 53
1, 354475, Note_off_c, 0, 81, 50
1, 354590, Note_off_c, 0, 78, 57
1, 354592, Note_on_c, 0, 76, 59
1, 354594, Note_on_c, 0, 66, 43
1, 354606, Note_on_c, 0, 62, 36
1, 354614, Note_off_c, 0, 76, 61
1, 354615, Note_on_c, 0, 74, 54
1, 354623, Note_off_c, 0, 66, 55
1, 354637, Note_off_c, 0, 74, 62
1, 354725, Note_off_c, 0, 62, 0
1, 354736, Note_on_c, 0, 73, 64
1, 354763, Poly_aftertouch_c, 0, 62, 127
1, 354767, Note_on_c, 0, 62, 3
1, 354775, Note_off_c, 0, 73, 57
1, 354878, Note_on_c, 0, 74, 64
1, 354913, Note_off_c, 0, 74, 63
1, 354979, Note_off_c, 0, 62, 42
1, 354992, Note_on_c, 0, 68, 50
1, 354993, Note_on_c, 0, 76, 72
1, 354996, Note_on_c, 0, 59, 51
1, 355018, Note_off_c, 0, 76, 67
1, 355019, Note_on_c, 0, 74, 59
1, 355035, Note_off_c, 0, 68, 56
1, 355037, Note_off_c, 0, 74, 65
1, 355125, Note_on_c, 0, 73, 81
1, 355177, Note_off_c, 0, 73, 62
1, 355257, Note_on_c, 0, 74, 74
1, 355283, Note_off_c, 0, 74, 67
1, 355329, Note_off_c, 0, 59, 9
1, 355418, Note_on_c, 0, 74, 57
1, 355420, Note_on_c, 0, 78, 59
1, 355423, Note_on_c, 0, 69, 35
1, 355426, Note_on_c, 0, 57, 38
1, 355605, Note_off_c, 0, 69, 50
1, 355616, Note_off_c, 0, 57, 43
1, 355652, Note_off_c, 0, 78, 51
1, 355657, Note_off_c, 0, 74, 49
1, 355694, Note_on_c, 0, 76, 57
1, 355700, Note_on_c, 0, 73, 52
1, 355718, Note_off_c, 0, 76, 56
1, 355721, Note_off_c, 0, 73, 62
1, 355822, Note_on_c, 0, 67, 50
1, 355855, Note_on_c, 0, 79, 66
1, 355865, Note_off_c, 0, 67, 59
1, 356126, Note_on_c, 0, 76, 62
1, 356165, Note_off_c, 0, 79, 57
1, 356231, Note_on_c, 0, 74, 60
1, 356253, Note_off_c, 0, 76, 57
1, 356257, Note_on_c, 0, 64, 51
1, 356259, Note_on_c, 0, 57, 46
1, 356260, Note_on_c, 0, 73, 69
1, 356288, Note_off_c, 0, 74, 63
1, 356293, Note_off_c, 0, 64, 65
1, 356317, Note_off_c, 0, 73, 62
1, 356382, Note_on_c, 0, 71, 73
1, 356442, Note_off_c, 0, 71, 63
1, 356506, Note_on_c, 0, 73, 83
1, 356564, Note_off_c, 0, 73, 63
1, 356634, Note_on_c, 0, 61, 52
1, 356637, Note_on_c, 0, 69, 75
1, 356641, Note_off_c, 0, 57, 36
1, 356648, Note_on_c, 0, 64, 45
1, 356684, Note_off_c, 0, 69, 60
1, 356763, Note_on_c, 0, 76, 75
1, 356821, Note_off_c, 0, 76, 61
1, 356904, Note_on_c, 0, 81, 63
1, 356952, Note_off_c, 0, 81, 53
1, 356979, Note_off_c, 0, 64, 38
1, 356979, Note_off_c, 0, 61, 56
1, 357053, Note_on_c, 0, 69, 46
1, 357055, Note_on_c, 0, 79, 64
1, 357060, Note_on_c, 0, 76, 57
1, 357062, Note_on_c, 0, 62, 39
1, 357151, Note_off_c, 0, 69, 61
1, 357192, Note_off_c, 0, 62, 62
1, 357266, Control_c, 0, 67, 122
1, 357281, Control_c, 0, 67, 106
1, 357295, Control_c, 0, 67, 86
1, 357298, Note_off_c, 0, 76, 49
1, 357310, Control_c, 0, 67, 64
1, 357325, Control_c, 0, 67, 41
1, 357340, Control_c, 0, 67, 15
1, 357345, Note_on_c, 0, 74, 58
1, 357345, Note_on_c, 0, 78, 55
1, 357355, Control_c, 0, 67, 0
1, 357365, Note_off_c, 0, 79, 57
1, 357375, Note_off_c, 0, 74, 65
1, 357381, Note_off_c, 0, 78, 61
1, 357456, Note_on_c, 0, 74, 69
1, 357471, Note_on_c, 0, 50, 75
1, 357473, Note_on_c, 0, 78, 87
1, 357517, Note_off_c, 0, 50, 64
1, 357538, Note_off_c, 0, 74, 58
1, 357606, Note_on_c, 0, 62, 67
1, 357641, Note_off_c, 0, 62, 62
1, 357737, Note_on_c, 0, 64, 70
1, 357739, Note_off_c, 0, 78, 59
1, 357742, Note_on_c, 0, 79, 74
1, 357773, Note_off_c, 0, 64, 65
1, 357805, Note_off_c, 0, 79, 61
1, 357872, Note_on_c, 0, 83, 76
1, 357876, Note_on_c, 0, 66, 65
1, 357927, Note_on_c, 0, 81, 76
1, 357933, Note_off_c, 0, 83, 64
1, 357974, Note_off_c, 0, 66, 63
1, 357990, Note_on_c, 0, 79, 77
1, 358009, Note_off_c, 0, 81, 61
1, 358050, Note_on_c, 0, 78, 74
1, 358052, Note_off_c, 0, 79, 63
1, 358092, Note_off_c, 0, 78, 65
1, 358114, Note_on_c, 0, 76, 61
1, 358158, Note_off_c, 0, 76, 45
1, 358168, Note_on_c, 0, 74, 72
1, 358186, Note_off_c, 0, 74, 68
1, 358249, Note_on_c, 0, 74, 72
1, 358262, Note_on_c, 0, 50, 74
1, 358265, Note_on_c, 0, 78, 81
1, 358301, Note_off_c, 0, 50, 63
1, 358334, Note_off_c, 0, 74, 59
1, 358406, Note_on_c, 0, 62, 69
1, 358436, Note_off_c, 0, 62, 63
1, 358528, Note_off_c, 0, 78, 46
1, 358537, Note_on_c, 0, 64, 72
1, 358541, Note_on_c, 0, 79, 77
1, 358568, Note_off_c, 0, 64, 63
1, 358600, Note_off_c, 0, 79, 62
1, 358666, Note_on_c, 0, 83, 77
1, 358669, Note_on_c, 0, 66, 76
1, 358728, Note_on_c, 0, 81, 78
1, 358740, Note_off_c, 0, 83, 62
1, 358790, Note_on_c, 0, 79, 75
1, 358803, Note_off_c, 0, 66, 63
1, 358815, Note_off_c, 0, 81, 62
1, 358848, Note_on_c, 0, 78, 79
1, 358853, Note_off_c, 0, 79, 63
1, 358885, Note_off_c, 0, 78, 66
1, 358910, Note_on_c, 0, 76, 66
1, 358948, Note_off_c, 0, 76, 51
1, 358962, Note_on_c, 0, 74, 75
1, 358985, Note_off_c, 0, 74, 70
1, 359049, Note_on_c, 0, 74, 79
1, 359051, Note_on_c, 0, 83, 83
1, 359053, Note_on_c, 0, 55, 76
1, 359091, Note_off_c, 0, 55, 66
1, 359092, Note_off_c, 0, 74, 65
1, 359205, Note_on_c, 0, 67, 65
1, 359234, Note_off_c, 0, 67, 64
1, 359304, Note_off_c, 0, 83, 55
1, 359322, Note_on_c, 0, 85, 76
1, 359337, Note_on_c, 0, 64, 63
1, 359355, Note_off_c, 0, 64, 65
1, 359393, Note_off_c, 0, 85, 60
1, 359459, Note_on_c, 0, 86, 79
1, 359466, Control_c, 0, 64, 54
1, 359467, Note_on_c, 0, 66, 77
1, 359471, Note_on_c, 0, 54, 71
1, 359481, Control_c, 0, 64, 64
1, 359496, Control_c, 0, 64, 0
1, 359519, Note_on_c, 0, 85, 73
1, 359521, Note_off_c, 0, 66, 65
1, 359527, Note_off_c, 0, 86, 62
1, 359530, Note_off_c, 0, 54, 65
1, 359583, Note_on_c, 0, 83, 80
1, 359616, Note_off_c, 0, 85, 58
1, 359652, Note_on_c, 0, 81, 71
1, 359658, Note_off_c, 0, 83, 65
1, 359694, Note_off_c, 0, 81, 63
1, 359714, Note_on_c, 0, 79, 66
1, 359763, Note_off_c, 0, 79, 58
1, 359775, Note_on_c, 0, 78, 72
1, 359839, Note_off_c, 0, 78, 50
1, 359852, Note_on_c, 0, 83, 81
1, 359861, Note_on_c, 0, 67, 82
1, 359863, Note_on_c, 0, 55, 81
1, 359875, Control_c, 0, 64, 75
1, 359883, Note_off_c, 0, 67, 68
1, 359888, Note_off_c, 0, 55, 67
1, 359889, Control_c, 0, 64, 84
1, 359903, Control_c, 0, 64, 77
1, 359916, Note_on_c, 0, 81, 78
1, 359918, Control_c, 0, 64, 0
1, 359930, Note_off_c, 0, 83, 63
1, 359984, Note_on_c, 0, 79, 78
1, 360002, Note_off_c, 0, 81, 62
1, 360043, Note_on_c, 0, 78, 76
1, 360055, Note_off_c, 0, 79, 62
1, 360088, Note_off_c, 0, 78, 66
1, 360107, Note_on_c, 0, 76, 68
1, 360149, Note_off_c, 0, 76, 53
1, 360153, Note_on_c, 0, 74, 74
1, 360177, Note_off_c, 0, 74, 71
1, 360247, Note_on_c, 0, 81, 76
1, 360252, Note_on_c, 0, 76, 72
1, 360253, Note_on_c, 0, 73, 83
1, 360259, Control_c, 0, 64, 67
1, 360260, Note_on_c, 0, 69, 64
1, 360261, Note_on_c, 0, 57, 63
1, 360273, Note_off_c, 0, 81, 64
1, 360273, Note_off_c, 0, 73, 71
1, 360274, Control_c, 0, 64, 127
1, 360276, Note_off_c, 0, 76, 68
1, 360318, Control_c, 0, 67, 25
1, 360334, Control_c, 0, 67, 103
1, 360349, Control_c, 0, 64, 86
1, 360349, Control_c, 0, 67, 127
1, 360364, Control_c, 0, 64, 62
1, 360379, Control_c, 0, 64, 0
1, 360425, Note_off_c, 0, 69, 62
1, 360462, Note_off_c, 0, 57, 60
1, 360716, Note_on_c, 0, 69, 38
1, 360744, Note_on_c, 0, 81, 59
1, 360757, Note_off_c, 0, 69, 59
1, 361020, Note_on_c, 0, 78, 49
1, 361057, Note_off_c, 0, 81, 38
1, 361143, Note_on_c, 0, 76, 63
1, 361155, Note_on_c, 0, 66, 39
1, 361161, Note_off_c, 0, 78, 44
1, 361167, Note_on_c, 0, 62, 32
1, 361176, Note_off_c, 0, 76, 61
1, 361181, Note_on_c, 0, 74, 49
1, 361205, Note_off_c, 0, 74, 61
1, 361207, Note_off_c, 0, 66, 46
1, 361282, Note_off_c, 0, 62, 0
1, 361289, Note_on_c, 0, 73, 70
1, 361327, Poly_aftertouch_c, 0, 62, 127
1, 361344, Note_off_c, 0, 73, 62
1, 361422, Note_on_c, 0, 74, 77
1, 361474, Note_off_c, 0, 74, 64
1, 361525, Poly_aftertouch_c, 0, 62, 0
1, 361546, Note_on_c, 0, 68, 56
1, 361548, Note_on_c, 0, 76, 69
1, 361558, Note_on_c, 0, 59, 44
1, 361562, Note_on_c, 0, 74, 82
1, 361575, Note_off_c, 0, 76, 66
1, 361617, Note_off_c, 0, 74, 63
1, 361646, Note_off_c, 0, 68, 45
1, 361684, Note_on_c, 0, 73, 80
1, 361740, Note_off_c, 0, 73, 63
1, 361817, Note_on_c, 0, 74, 72
1, 361856, Note_off_c, 0, 74, 60
1, 361894, Note_off_c, 0, 59, 36
1, 361990, Note_on_c, 0, 78, 60
1, 361993, Note_on_c, 0, 69, 38
1, 362000, Note_on_c, 0, 57, 35
1, 362004, Note_on_c, 0, 74, 46
1, 362142, Note_off_c, 0, 69, 61
1, 362157, Note_off_c, 0, 57, 52
1, 362237, Note_off_c, 0, 78, 53
1, 362246, Note_off_c, 0, 74, 46
1, 362290, Note_on_c, 0, 76, 54
1, 362297, Note_on_c, 0, 73, 47
1, 362322, Note_off_c, 0, 73, 58
1, 362323, Note_off_c, 0, 76, 55
1, 362419, Note_on_c, 0, 67, 51
1, 362440, Note_on_c, 0, 79, 72
1, 362452, Note_off_c, 0, 67, 64
1, 362717, Note_on_c, 0, 76, 59
1, 362743, Note_off_c, 0, 79, 55
1, 362828, Note_on_c, 0, 74, 63
1, 362831, Note_off_c, 0, 76, 53
1, 362845, Note_on_c, 0, 64, 50
1, 362851, Note_on_c, 0, 73, 65
1, 362853, Note_on_c, 0, 57, 42
1, 362856, Note_off_c, 0, 74, 67
1, 362875, Note_off_c, 0, 64, 65
1, 362884, Note_off_c, 0, 73, 62
1, 362978, Note_on_c, 0, 71, 62
1, 363012, Note_off_c, 0, 71, 61
1, 363107, Note_on_c, 0, 73, 68
1, 363140, Note_off_c, 0, 73, 58
1, 363221, Note_off_c, 0, 57, 43
1, 363236, Note_on_c, 0, 69, 59
1, 363238, Note_on_c, 0, 64, 50
1, 363240, Note_on_c, 0, 61, 50
1, 363267, Note_off_c, 0, 69, 65
1, 363366, Note_on_c, 0, 76, 61
1, 363400, Note_off_c, 0, 76, 57
1, 363493, Note_on_c, 0, 81, 65
1, 363536, Note_off_c, 0, 81, 59
1, 363540, Note_off_c, 0, 64, 52
1, 363561, Note_off_c, 0, 61, 57
1, 363663, Note_on_c, 0, 79, 58
1, 363665, Note_on_c, 0, 69, 42
1, 363676, Note_on_c, 0, 62, 33
1, 363677, Note_on_c, 0, 76, 56
1, 363724, Control_c, 0, 64, 38
1, 363738, Control_c, 0, 64, 54
1, 363753, Control_c, 0, 64, 61
1, 363768, Control_c, 0, 64, 62
1, 363769, Note_off_c, 0, 69, 59
1, 363782, Control_c, 0, 64, 63
1, 363828, Note_off_c, 0, 62, 52
1, 363856, Control_c, 0, 64, 62
1, 363871, Control_c, 0, 67, 123
1, 363881, Note_off_c, 0, 76, 53
1, 363886, Control_c, 0, 64, 62
1, 363886, Control_c, 0, 67, 112
1, 363901, Control_c, 0, 67, 98
1, 363916, Control_c, 0, 67, 81
1, 363930, Control_c, 0, 67, 56
1, 363945, Control_c, 0, 64, 61
1, 363945, Control_c, 0, 67, 36
1, 363960, Note_on_c, 0, 74, 60
1, 363960, Control_c, 0, 67, 19
1, 363963, Note_on_c, 0, 78, 57
1, 363975, Control_c, 0, 67, 0
1, 363978, Note_off_c, 0, 79, 56
1, 363990, Control_c, 0, 64, 61
1, 363999, Note_off_c, 0, 74, 62
1, 364005, Note_off_c, 0, 78, 60
1, 364005, Control_c, 0, 64, 60
1, 364020, Control_c, 0, 64, 56
1, 364035, Control_c, 0, 64, 45
1, 364049, Control_c, 0, 64, 0
1, 364081, Note_on_c, 0, 74, 78
1, 364085, Note_on_c, 0, 50, 79
1, 364088, Note_on_c, 0, 78, 94
1, 364135, Note_off_c, 0, 50, 64
1, 364140, Note_off_c, 0, 74, 60
1, 364213, Note_on_c, 0, 62, 71
1, 364261, Note_off_c, 0, 62, 60
1, 364354, Note_on_c, 0, 64, 79
1, 364357, Note_on_c, 0, 79, 79
1, 364362, Note_off_c, 0, 78, 57
1, 364389, Note_off_c, 0, 64, 64
1, 364419, Note_off_c, 0, 79, 63
1, 364491, Note_on_c, 0, 83, 83
1, 364496, Note_on_c, 0, 66, 84
1, 364559, Note_on_c, 0, 81, 79
1, 364565, Note_off_c, 0, 83, 64
1, 364598, Note_off_c, 0, 66, 65
1, 364620, Note_on_c, 0, 79, 79
1, 364651, Note_off_c, 0, 81, 63
1, 364664, Control_c, 0, 64, 35
1, 364678, Control_c, 0, 64, 53
1, 364686, Note_on_c, 0, 78, 78
1, 364693, Control_c, 0, 64, 61
1, 364694, Note_off_c, 0, 79, 62
1, 364708, Control_c, 0, 64, 64
1, 364723, Control_c, 0, 64, 67
1, 364735, Note_off_c, 0, 78, 65
1, 364738, Control_c, 0, 64, 70
1, 364741, Note_on_c, 0, 76, 70
1, 364753, Control_c, 0, 64, 73
1, 364768, Control_c, 0, 64, 76
1, 364783, Control_c, 0, 64, 81
1, 364797, Note_on_c, 0, 74, 84
1, 364798, Control_c, 0, 64, 86
1, 364798, Note_off_c, 0, 76, 55
1, 364812, Control_c, 0, 64, 91
1, 364816, Note_off_c, 0, 74, 73
1, 364827, Control_c, 0, 64, 92
1, 364842, Control_c, 0, 64, 91
1, 364857, Control_c, 0, 64, 83
1, 364872, Control_c, 0, 64, 68
1, 364884, Note_on_c, 0, 43, 83
1, 364886, Control_c, 0, 64, 0
1, 364887, Note_on_c, 0, 79, 87
1, 364890, Note_on_c, 0, 83, 93
1, 364924, Note_off_c, 0, 43, 62
1, 364959, Note_off_c, 0, 79, 51
1, 365017, Note_on_c, 0, 55, 77
1, 365066, Note_off_c, 0, 55, 64
1, 365152, Note_off_c, 0, 83, 63
1, 365154, Note_on_c, 0, 57, 80
1, 365156, Note_on_c, 0, 85, 79
1, 365190, Note_off_c, 0, 57, 61
1, 365236, Note_off_c, 0, 85, 62
1, 365293, Note_on_c, 0, 59, 84
1, 365295, Control_c, 0, 64, 27
1, 365296, Note_on_c, 0, 88, 85
1, 365309, Control_c, 0, 64, 0
1, 365311, Note_off_c, 0, 59, 71
1, 365355, Note_on_c, 0, 86, 77
1, 365381, Note_off_c, 0, 88, 62
1, 365412, Note_on_c, 0, 85, 82
1, 365440, Note_off_c, 0, 86, 64
1, 365477, Note_on_c, 0, 83, 75
1, 365489, Note_off_c, 0, 85, 65
1, 365519, Note_off_c, 0, 83, 65
1, 365535, Note_on_c, 0, 81, 68
1, 365586, Note_off_c, 0, 81, 56
1, 365604, Note_on_c, 0, 79, 61
1, 365634, Note_off_c, 0, 79, 53
1, 365661, Note_on_c, 0, 55, 67
1, 365661, Note_on_c, 0, 85, 76
1, 365663, Note_on_c, 0, 59, 63
1, 365663, Note_on_c, 0, 64, 67
1, 365684, Note_off_c, 0, 59, 62
1, 365685, Note_off_c, 0, 55, 67
1, 365689, Note_off_c, 0, 64, 69
1, 365725, Note_on_c, 0, 83, 72
1, 365759, Note_off_c, 0, 85, 61
1, 365785, Note_on_c, 0, 81, 74
1, 365793, Note_off_c, 0, 83, 65
1, 365833, Note_off_c, 0, 81, 62
1, 365856, Note_on_c, 0, 79, 70
1, 365882, Note_off_c, 0, 79, 61
1, 365916, Note_on_c, 0, 78, 68
1, 365944, Note_off_c, 0, 78, 67
1, 365969, Note_on_c, 0, 76, 72
1, 366015, Note_off_c, 0, 76, 55
1, 366036, Note_on_c, 0, 62, 66
1, 366037, Note_on_c, 0, 66, 69
1, 366038, Note_on_c, 0, 57, 66
1, 366044, Note_on_c, 0, 83, 84
1, 366061, Note_off_c, 0, 66, 66
1, 366062, Note_off_c, 0, 62, 65
1, 366064, Note_off_c, 0, 57, 65
1, 366103, Note_on_c, 0, 81, 77
1, 366112, Note_off_c, 0, 83, 58
1, 366164, Note_on_c, 0, 79, 77
1, 366190, Note_off_c, 0, 81, 61
1, 366225, Note_on_c, 0, 78, 74
1, 366233, Note_off_c, 0, 79, 62
1, 366272, Note_off_c, 0, 78, 64
1, 366285, Note_on_c, 0, 76, 73
1, 366339, Note_off_c, 0, 76, 61
1, 366343, Note_on_c, 0, 74, 79
1, 366369, Note_off_c, 0, 74, 64
1, 366413, Note_on_c, 0, 81, 80
1, 366419, Note_on_c, 0, 67, 67
1, 366422, Note_on_c, 0, 57, 64
1, 366423, Note_on_c, 0, 64, 63
1, 366449, Note_off_c, 0, 67, 62
1, 366461, Note_off_c, 0, 64, 63
1, 366473, Note_on_c, 0, 79, 78
1, 366475, Note_off_c, 0, 81, 63
1, 366532, Note_on_c, 0, 78, 79
1, 366563, Note_off_c, 0, 79, 61
1, 366601, Note_on_c, 0, 76, 78
1, 366607, Note_off_c, 0, 78, 65
1, 366635, Note_off_c, 0, 76, 60
1, 366653, Note_on_c, 0, 74, 73
1, 366676, Note_off_c, 0, 57, 42
1, 366685, Note_off_c, 0, 74, 58
1, 366718, Note_on_c, 0, 73, 76
1, 366772, Note_on_c, 0, 74, 84
1, 366778, Note_off_c, 0, 73, 62
1, 366787, Note_on_c, 0, 66, 65
1, 366788, Note_on_c, 0, 62, 63
1, 366792, Control_c, 0, 64, 68
1, 366794, Note_off_c, 0, 74, 70
1, 366806, Note_off_c, 0, 66, 65
1, 366807, Control_c, 0, 64, 64
1, 366809, Note_off_c, 0, 62, 63
1, 366822, Control_c, 0, 64, 0
1, 367061, Note_on_c, 0, 38, 67
1, 367063, Note_on_c, 0, 62, 65
1, 367089, Note_on_c, 0, 42, 73
1, 367097, Note_on_c, 0, 66, 73
1, 367125, Note_off_c, 0, 62, 61
1, 367133, Note_on_c, 0, 45, 83
1, 367138, Note_on_c, 0, 69, 82
1, 367149, Note_off_c, 0, 38, 62
1, 367153, Note_off_c, 0, 42, 63
1, 367155, Note_off_c, 0, 66, 64
1, 367159, Note_off_c, 0, 45, 69
1, 367170, Note_off_c, 0, 69, 67
1, 367409, Note_on_c, 0, 42, 63
1, 367416, Note_on_c, 0, 66, 66
1, 367457, Note_on_c, 0, 69, 80
1, 367460, Note_on_c, 0, 45, 72
1, 367494, Note_off_c, 0, 66, 57
1, 367504, Note_on_c, 0, 50, 81
1, 367512, Note_on_c, 0, 74, 87
1, 367516, Note_off_c, 0, 42, 64
1, 367519, Note_off_c, 0, 45, 65
1, 367519, Note_off_c, 0, 69, 65
1, 367541, Note_off_c, 0, 74, 66
1, 367552, Note_off_c, 0, 50, 65
1, 367768, Note_on_c, 0, 45, 69
1, 367778, Note_on_c, 0, 69, 68
1, 367826, Note_on_c, 0, 74, 81
1, 367827, Note_on_c, 0, 50, 74
1, 367853, Note_off_c, 0, 69, 60
1, 367871, Note_off_c, 0, 45, 64
1, 367872, Note_on_c, 0, 78, 88
1, 367878, Note_on_c, 0, 54, 85
1, 367886, Note_off_c, 0, 74, 67
1, 367892, Note_off_c, 0, 50, 66
1, 367907, Note_off_c, 0, 54, 67
1, 367916, Note_off_c, 0, 78, 66
1, 368160, Note_on_c, 0, 50, 59
1, 368168, Note_on_c, 0, 74, 76
1, 368219, Note_on_c, 0, 54, 61
1, 368222, Note_on_c, 0, 78, 79
1, 368225, Note_off_c, 0, 50, 63
1, 368229, Note_off_c, 0, 74, 64
1, 368259, Note_off_c, 0, 54, 66
1, 368276, Note_on_c, 0, 81, 80
1, 368277, Note_on_c, 0, 57, 58
1, 368293, Note_off_c, 0, 78, 64
1, 368370, Note_off_c, 0, 81, 63
1, 368411, Note_off_c, 0, 57, 55
1, 368423, Control_c, 0, 67, 16
1, 368438, Control_c, 0, 67, 62
1, 368452, Control_c, 0, 67, 127
1, 369144, Note_on_c, 0, 81, 47
1, 369172, Control_c, 0, 64, 43
1, 369177, Note_on_c, 0, 66, 22
1, 369183, Note_on_c, 0, 62, 25
1, 369187, Control_c, 0, 64, 55
1, 369194, Note_on_c, 0, 57, 21
1, 369201, Control_c, 0, 64, 63
1, 369216, Control_c, 0, 64, 66
1, 369231, Control_c, 0, 64, 68
1, 369246, Control_c, 0, 64, 70
1, 369261, Control_c, 0, 64, 73
1, 369275, Control_c, 0, 64, 76
1, 369290, Control_c, 0, 64, 80
1, 369305, Control_c, 0, 64, 84
1, 369320, Control_c, 0, 64, 87
1, 369335, Control_c, 0, 64, 88
1, 369350, Control_c, 0, 64, 90
1, 369364, Note_off_c, 0, 62, 50
1, 369364, Control_c, 0, 64, 91
1, 369379, Control_c, 0, 64, 92
1, 369411, Note_off_c, 0, 66, 41
1, 369498, Note_on_c, 0, 83, 71
1, 369527, Control_c, 0, 64, 90
1, 369528, Note_off_c, 0, 81, 62
1, 369549, Control_c, 0, 64, 86
1, 369564, Control_c, 0, 64, 79
1, 369579, Note_on_c, 0, 74, 67
1, 369579, Control_c, 0, 64, 68
1, 369594, Control_c, 0, 64, 0
1, 369599, Note_on_c, 0, 67, 43
1, 369603, Note_on_c, 0, 64, 46
1, 369608, Note_off_c, 0, 83, 60
1, 369683, Control_c, 0, 64, 49
1, 369698, Control_c, 0, 64, 60
1, 369713, Control_c, 0, 64, 64
1, 369727, Control_c, 0, 64, 67
1, 369742, Control_c, 0, 64, 70
1, 369743, Note_off_c, 0, 67, 55
1, 369757, Control_c, 0, 64, 72
1, 369772, Control_c, 0, 64, 74
1, 369787, Control_c, 0, 64, 76
1, 369801, Control_c, 0, 64, 77
1, 369839, Note_off_c, 0, 74, 60
1, 369861, Control_c, 0, 64, 75
1, 369868, Note_on_c, 0, 73, 54
1, 369875, Control_c, 0, 64, 71
1, 369890, Control_c, 0, 64, 66
1, 369905, Control_c, 0, 64, 52
1, 369921, Control_c, 0, 64, 0
1, 369951, Note_off_c, 0, 64, 32
1, 369967, Note_off_c, 0, 73, 63
1, 369994, Note_on_c, 0, 74, 53
1, 369995, Note_on_c, 0, 66, 35
1, 370005, Note_on_c, 0, 62, 30
1, 370027, Note_off_c, 0, 74, 65
1, 370131, Note_on_c, 0, 86, 68
1, 370174, Note_off_c, 0, 86, 61
1, 370179, Note_off_c, 0, 66, 41
1, 370223, Note_off_c, 0, 57, 42
1, 370228, Note_off_c, 0, 62, 37
1, 370261, Note_on_c, 0, 85, 75
1, 370324, Note_off_c, 0, 85, 64
1, 370395, Note_on_c, 0, 83, 83
1, 370436, Note_off_c, 0, 83, 65
1, 370527, Note_on_c, 0, 81, 70
1, 370568, Note_off_c, 0, 81, 57
1, 370655, Note_on_c, 0, 80, 62
1, 370703, Note_off_c, 0, 80, 60
1, 370767, Note_on_c, 0, 81, 67
1, 370787, Note_on_c, 0, 66, 41
1, 370795, Note_on_c, 0, 62, 38
1, 370798, Note_on_c, 0, 57, 31
1, 370834, Control_c, 0, 64, 47
1, 370848, Control_c, 0, 64, 61
1, 370851, Note_off_c, 0, 81, 60
1, 370863, Control_c, 0, 64, 67
1, 370878, Control_c, 0, 64, 71
1, 370893, Control_c, 0, 64, 74
1, 370903, Note_on_c, 0, 83, 66
1, 370908, Control_c, 0, 64, 73
1, 370922, Control_c, 0, 64, 70
1, 370923, Note_off_c, 0, 62, 60
1, 370937, Control_c, 0, 64, 63
1, 370944, Note_off_c, 0, 83, 66
1, 370952, Control_c, 0, 64, 0
1, 370955, Note_off_c, 0, 66, 55
1, 370957, Note_on_c, 0, 81, 63
1, 370974, Note_off_c, 0, 81, 65
1, 370977, Note_on_c, 0, 80, 70
1, 371023, Note_off_c, 0, 80, 62
1, 371034, Note_on_c, 0, 81, 79
1, 371079, Note_on_c, 0, 83, 77
1, 371098, Note_off_c, 0, 81, 62
1, 371138, Note_off_c, 0, 83, 64
1, 371156, Note_on_c, 0, 74, 78
1, 371175, Note_on_c, 0, 67, 51
1, 371188, Note_on_c, 0, 64, 44
1, 371329, Note_off_c, 0, 67, 51
1, 371400, Note_off_c, 0, 74, 61
1, 371432, Note_on_c, 0, 73, 57
1, 371465, Note_off_c, 0, 64, 56
1, 371520, Note_off_c, 0, 73, 62
1, 371543, Note_on_c, 0, 66, 44
1, 371560, Note_on_c, 0, 62, 35
1, 371564, Note_on_c, 0, 74, 50
1, 371598, Note_off_c, 0, 74, 64
1, 371685, Note_on_c, 0, 86, 69
1, 371722, Note_off_c, 0, 66, 35
1, 371730, Note_off_c, 0, 86, 61
1, 371767, Note_off_c, 0, 57, 44
1, 371817, Note_on_c, 0, 85, 77
1, 371830, Note_off_c, 0, 62, 41
1, 371874, Note_off_c, 0, 85, 64
1, 371943, Note_on_c, 0, 83, 78
1, 371988, Note_off_c, 0, 83, 65
1, 372077, Note_on_c, 0, 81, 65
1, 372104, Note_off_c, 0, 81, 62
1, 372193, Note_on_c, 0, 80, 60
1, 372223, Note_off_c, 0, 80, 61
1, 372308, Note_on_c, 0, 81, 64
1, 372330, Control_c, 0, 64, 46
1, 372334, Note_on_c, 0, 66, 41
1, 372337, Note_on_c, 0, 62, 38
1, 372340, Note_on_c, 0, 57, 36
1, 372344, Control_c, 0, 64, 60
1, 372359, Control_c, 0, 64, 64
1, 372374, Control_c, 0, 64, 66
1, 372377, Note_off_c, 0, 81, 60
1, 372389, Control_c, 0, 64, 69
1, 372404, Control_c, 0, 64, 74
1, 372418, Control_c, 0, 64, 83
1, 372433, Note_off_c, 0, 62, 55
1, 372433, Control_c, 0, 64, 96
1, 372448, Control_c, 0, 64, 103
1, 372455, Note_on_c, 0, 83, 64
1, 372478, Control_c, 0, 64, 97
1, 372480, Note_off_c, 0, 66, 36
1, 372491, Note_off_c, 0, 83, 64
1, 372492, Control_c, 0, 64, 82
1, 372495, Note_on_c, 0, 81, 66
1, 372507, Control_c, 0, 64, 63
1, 372520, Note_off_c, 0, 81, 65
1, 372521, Note_on_c, 0, 80, 72
1, 372522, Control_c, 0, 64, 0
1, 372571, Note_off_c, 0, 80, 60
1, 372588, Note_on_c, 0, 81, 69
1, 372628, Note_on_c, 0, 83, 77
1, 372641, Note_off_c, 0, 81, 62
1, 372689, Note_off_c, 0, 83, 63
1, 372700, Note_on_c, 0, 67, 49
1, 372700, Note_on_c, 0, 64, 45
1, 372712, Note_on_c, 0, 74, 74
1, 372833, Note_off_c, 0, 67, 55
1, 372943, Note_off_c, 0, 74, 61
1, 372968, Note_on_c, 0, 73, 59
1, 373024, Note_off_c, 0, 64, 35
1, 373072, Note_off_c, 0, 73, 61
1, 373107, Note_on_c, 0, 66, 47
1, 373114, Note_on_c, 0, 74, 58
1, 373122, Note_on_c, 0, 62, 40
1, 373144, Note_off_c, 0, 74, 68
1, 373147, Note_off_c, 0, 66, 64
1, 373160, Note_off_c, 0, 62, 63
1, 373166, Note_off_c, 0, 57, 56
1, 373516, Control_c, 0, 64, 36
1, 373526, Note_on_c, 0, 62, 59
1, 373530, Note_on_c, 0, 59, 48
1, 373531, Control_c, 0, 64, 55
1, 373537, Note_on_c, 0, 47, 32
1, 373539, Note_on_c, 0, 54, 45
1, 373546, Control_c, 0, 64, 64
1, 373561, Control_c, 0, 64, 67
1, 373575, Control_c, 0, 64, 72
1, 373590, Control_c, 0, 64, 76
1, 373605, Control_c, 0, 64, 80
1, 373620, Control_c, 0, 64, 83
1, 373625, Note_off_c, 0, 54, 63
1, 373630, Note_off_c, 0, 59, 58
1, 373635, Control_c, 0, 64, 85
1, 373649, Control_c, 0, 64, 87
1, 373664, Control_c, 0, 64, 89
1, 373666, Note_off_c, 0, 62, 62
1, 373679, Control_c, 0, 64, 89
1, 373820, Note_off_c, 0, 47, 40
1, 373872, Control_c, 0, 64, 89
1, 373901, Control_c, 0, 64, 88
1, 373916, Control_c, 0, 64, 87
1, 373931, Control_c, 0, 64, 86
1, 373946, Control_c, 0, 64, 81
1, 373955, Note_on_c, 0, 64, 54
1, 373959, Note_on_c, 0, 62, 45
1, 373961, Control_c, 0, 64, 74
1, 373967, Note_on_c, 0, 43, 37
1, 373973, Note_on_c, 0, 59, 44
1, 373976, Control_c, 0, 64, 63
1, 373991, Control_c, 0, 64, 0
1, 374058, Control_c, 0, 64, 52
1, 374072, Control_c, 0, 64, 63
1, 374087, Control_c, 0, 64, 66
1, 374102, Control_c, 0, 64, 70
1, 374116, Control_c, 0, 64, 74
1, 374120, Note_off_c, 0, 62, 61
1, 374131, Control_c, 0, 64, 79
1, 374146, Control_c, 0, 64, 83
1, 374149, Note_off_c, 0, 59, 58
1, 374161, Control_c, 0, 64, 87
1, 374176, Control_c, 0, 64, 89
1, 374191, Control_c, 0, 64, 91
1, 374196, Note_off_c, 0, 64, 56
1, 374205, Control_c, 0, 64, 92
1, 374220, Control_c, 0, 64, 93
1, 374336, Note_off_c, 0, 43, 35
1, 374354, Control_c, 0, 64, 91
1, 374369, Control_c, 0, 64, 86
1, 374384, Control_c, 0, 64, 77
1, 374389, Note_on_c, 0, 45, 41
1, 374398, Note_on_c, 0, 69, 50
1, 374398, Control_c, 0, 64, 66
1, 374407, Note_on_c, 0, 64, 35
1, 374413, Control_c, 0, 64, 0
1, 374416, Note_on_c, 0, 61, 32
1, 374472, Control_c, 0, 64, 52
1, 374487, Control_c, 0, 64, 63
1, 374502, Control_c, 0, 64, 66
1, 374509, Note_off_c, 0, 64, 60
1, 374516, Control_c, 0, 64, 69
1, 374531, Control_c, 0, 64, 73
1, 374546, Control_c, 0, 64, 77
1, 374561, Control_c, 0, 64, 81
1, 374563, Note_off_c, 0, 69, 59
1, 374569, Note_off_c, 0, 61, 56
1, 374576, Control_c, 0, 64, 84
1, 374590, Control_c, 0, 64, 86
1, 374605, Control_c, 0, 64, 87
1, 374647, Note_off_c, 0, 45, 42
1, 374739, Control_c, 0, 64, 86
1, 374754, Control_c, 0, 64, 86
1, 374769, Control_c, 0, 64, 85
1, 374792, Control_c, 0, 64, 83
1, 374801, Note_on_c, 0, 66, 42
1, 374807, Control_c, 0, 64, 80
1, 374811, Note_on_c, 0, 62, 33
1, 374818, Note_on_c, 0, 57, 31
1, 374821, Control_c, 0, 64, 75
1, 374823, Note_on_c, 0, 38, 33
1, 374836, Control_c, 0, 64, 68
1, 374851, Control_c, 0, 64, 60
1, 374866, Control_c, 0, 64, 0
1, 374954, Control_c, 0, 67, 118
1, 374969, Control_c, 0, 67, 102
1, 374983, Control_c, 0, 67, 82
1, 374998, Control_c, 0, 67, 62
1, 375013, Control_c, 0, 67, 42
1, 375028, Control_c, 0, 67, 27
1, 375043, Control_c, 0, 67, 13
1, 375058, Control_c, 0, 67, 0
1, 375067, Note_off_c, 0, 38, 43
1, 375070, Note_off_c, 0, 62, 43
1, 375074, Note_off_c, 0, 66, 53
1, 375099, Note_off_c, 0, 57, 41
1, 375419, Note_on_c, 0, 62, 74
1, 375420, Note_on_c, 0, 50, 74
1, 375424, Note_on_c, 0, 38, 68
1, 375456, Note_off_c, 0, 50, 63
1, 375457, Note_off_c, 0, 38, 63
1, 375466, Note_off_c, 0, 62, 59
1, 375544, Note_on_c, 0, 62, 77
1, 375550, Note_on_c, 0, 50, 84
1, 375551, Note_on_c, 0, 38, 75
1, 375592, Note_off_c, 0, 50, 62
1, 375593, Note_off_c, 0, 38, 61
1, 375596, Note_off_c, 0, 62, 63
1, 375672, Note_on_c, 0, 64, 72
1, 375674, Note_on_c, 0, 50, 95
1, 375681, Note_on_c, 0, 62, 77
1, 375683, Note_on_c, 0, 38, 83
1, 375720, Note_off_c, 0, 64, 62
1, 375773, Note_off_c, 0, 62, 62
1, 375779, Note_on_c, 0, 61, 68
1, 375842, Note_off_c, 0, 61, 60
1, 375845, Note_on_c, 0, 62, 47
1, 375849, Note_off_c, 0, 50, 62
1, 375852, Note_off_c, 0, 38, 62
1, 375881, Note_off_c, 0, 62, 63
1, 375933, Note_on_c, 0, 50, 86
1, 375935, Note_on_c, 0, 62, 74
1, 375939, Note_on_c, 0, 38, 74
1, 375980, Note_off_c, 0, 38, 62
1, 375984, Note_off_c, 0, 62, 59
1, 375985, Note_off_c, 0, 50, 65
1, 376063, Note_on_c, 0, 64, 72
1, 376064, Note_on_c, 0, 50, 95
1, 376070, Note_on_c, 0, 62, 75
1, 376072, Note_on_c, 0, 38, 85
1, 376073, Control_c, 0, 64, 59
1, 376087, Control_c, 0, 64, 65
1, 376102, Control_c, 0, 64, 52
1, 376108, Note_off_c, 0, 64, 61
1, 376117, Control_c, 0, 64, 0
1, 376158, Note_on_c, 0, 61, 68
1, 376200, Note_off_c, 0, 62, 0
1, 376215, Note_off_c, 0, 61, 59
1, 376224, Note_off_c, 0, 50, 60
1, 376232, Note_off_c, 0, 38, 59
1, 376234, Note_on_c, 0, 62, 3
1, 376255, Note_off_c, 0, 62, 48
1, 376317, Note_on_c, 0, 62, 68
1, 376322, Note_on_c, 0, 50, 69
1, 376323, Note_on_c, 0, 38, 63
1, 376352, Note_off_c, 0, 38, 63
1, 376353, Note_off_c, 0, 50, 68
1, 376363, Note_off_c, 0, 62, 60
1, 376450, Note_on_c, 0, 49, 100
1, 376453, Note_on_c, 0, 61, 79
1, 376454, Note_on_c, 0, 37, 85
1, 376467, Control_c, 0, 64, 121
1, 376471, Note_off_c, 0, 49, 68
1, 376477, Note_off_c, 0, 61, 68
1, 376480, Note_off_c, 0, 37, 68
1, 376482, Control_c, 0, 64, 127
1, 376526, Control_c, 0, 64, 90
1, 376541, Control_c, 0, 64, 19
1, 376556, Control_c, 0, 64, 0
1, 376857, Note_on_c, 0, 76, 56
1, 376867, Control_c, 0, 67, 23
1, 376882, Control_c, 0, 67, 87
1, 376886, Note_on_c, 0, 81, 70
1, 376886, Note_off_c, 0, 76, 64
1, 376897, Control_c, 0, 67, 127
1, 377262, Note_on_c, 0, 69, 48
1, 377271, Note_on_c, 0, 61, 42
1, 377288, Note_off_c, 0, 69, 56
1, 377300, Note_off_c, 0, 61, 52
1, 377314, Note_off_c, 0, 81, 57
1, 377383, Note_on_c, 0, 85, 71
1, 377383, Note_on_c, 0, 61, 54
1, 377389, Note_on_c, 0, 69, 45
1, 377416, Note_off_c, 0, 61, 63
1, 377419, Note_off_c, 0, 69, 58
1, 377439, Note_off_c, 0, 85, 64
1, 377504, Note_on_c, 0, 83, 84
1, 377508, Note_on_c, 0, 69, 56
1, 377516, Note_on_c, 0, 61, 47
1, 377543, Note_off_c, 0, 69, 60
1, 377547, Note_off_c, 0, 61, 59
1, 377551, Note_off_c, 0, 83, 64
1, 377628, Note_on_c, 0, 81, 82
1, 377635, Note_on_c, 0, 61, 58
1, 377636, Note_on_c, 0, 69, 61
1, 377665, Note_off_c, 0, 61, 64
1, 377669, Note_off_c, 0, 69, 59
1, 377678, Note_off_c, 0, 81, 63
1, 377747, Note_on_c, 0, 80, 77
1, 377758, Note_on_c, 0, 69, 52
1, 377765, Note_on_c, 0, 61, 41
1, 377791, Note_off_c, 0, 69, 57
1, 377806, Note_off_c, 0, 61, 61
1, 377810, Note_off_c, 0, 80, 61
1, 377876, Note_on_c, 0, 78, 76
1, 377877, Note_on_c, 0, 69, 50
1, 377902, Note_on_c, 0, 61, 44
1, 377917, Note_off_c, 0, 78, 65
1, 377918, Note_off_c, 0, 69, 55
1, 377930, Note_off_c, 0, 61, 55
1, 378028, Note_on_c, 0, 76, 61
1, 378030, Note_on_c, 0, 69, 46
1, 378045, Note_on_c, 0, 59, 42
1, 378128, Control_c, 0, 64, 17
1, 378143, Control_c, 0, 64, 53
1, 378157, Control_c, 0, 64, 61
1, 378172, Control_c, 0, 64, 64
1, 378187, Control_c, 0, 64, 66
1, 378202, Control_c, 0, 64, 67
1, 378217, Control_c, 0, 64, 69
1, 378224, Note_off_c, 0, 69, 58
1, 378231, Control_c, 0, 64, 70
1, 378246, Control_c, 0, 64, 72
1, 378261, Control_c, 0, 64, 73
1, 378276, Control_c, 0, 64, 74
1, 378290, Control_c, 0, 64, 75
1, 378304, Note_off_c, 0, 59, 62
1, 378305, Control_c, 0, 64, 75
1, 378305, Control_c, 0, 67, 117
1, 378320, Control_c, 0, 67, 85
1, 378335, Control_c, 0, 67, 41
1, 378350, Control_c, 0, 67, 0
1, 378364, Control_c, 0, 64, 75
1, 378379, Control_c, 0, 64, 73
1, 378394, Control_c, 0, 64, 69
1, 378397, Note_off_c, 0, 76, 60
1, 378409, Control_c, 0, 64, 60
1, 378417, Note_on_c, 0, 74, 55
1, 378424, Control_c, 0, 64, 0
1, 378438, Note_off_c, 0, 74, 62
1, 378557, Note_on_c, 0, 47, 72
1, 378560, Note_on_c, 0, 35, 67
1, 378560, Note_on_c, 0, 59, 83
1, 378584, Note_off_c, 0, 47, 67
1, 378589, Note_off_c, 0, 59, 61
1, 378590, Note_off_c, 0, 35, 65
1, 378666, Note_on_c, 0, 47, 81
1, 378668, Note_on_c, 0, 35, 77
1, 378677, Note_on_c, 0, 59, 77
1, 378710, Note_off_c, 0, 47, 64
1, 378712, Note_off_c, 0, 35, 63
1, 378712, Note_off_c, 0, 59, 62
1, 378798, Note_on_c, 0, 61, 68
1, 378804, Note_on_c, 0, 47, 95
1, 378808, Note_on_c, 0, 35, 85
1, 378817, Control_c, 0, 64, 51
1, 378819, Note_on_c, 0, 59, 76
1, 378832, Control_c, 0, 64, 61
1, 378847, Control_c, 0, 64, 45
1, 378857, Note_off_c, 0, 61, 61
1, 378861, Control_c, 0, 64, 0
1, 378887, Note_off_c, 0, 59, 62
1, 378892, Note_on_c, 0, 58, 66
1, 378966, Note_on_c, 0, 59, 60
1, 378972, Note_off_c, 0, 47, 62
1, 378972, Note_off_c, 0, 58, 59
1, 378990, Note_off_c, 0, 35, 63
1, 379016, Note_off_c, 0, 59, 59
1, 379072, Note_on_c, 0, 47, 79
1, 379073, Note_on_c, 0, 59, 70
1, 379075, Note_on_c, 0, 35, 72
1, 379106, Note_off_c, 0, 47, 65
1, 379115, Note_off_c, 0, 59, 61
1, 379121, Note_off_c, 0, 35, 62
1, 379195, Note_on_c, 0, 59, 76
1, 379206, Note_on_c, 0, 45, 97
1, 379210, Note_on_c, 0, 33, 87
1, 379214, Note_on_c, 0, 57, 81
1, 379216, Control_c, 0, 64, 53
1, 379231, Control_c, 0, 64, 36
1, 379246, Control_c, 0, 64, 0
1, 379264, Note_off_c, 0, 59, 57
1, 379287, Note_on_c, 0, 56, 71
1, 379291, Note_off_c, 0, 57, 63
1, 379353, Note_off_c, 0, 56, 63
1, 379354, Note_on_c, 0, 57, 67
1, 379359, Note_off_c, 0, 45, 58
1, 379383, Note_off_c, 0, 33, 58
1, 379393, Note_off_c, 0, 57, 62
1, 379482, Note_on_c, 0, 57, 72
1, 379486, Note_on_c, 0, 33, 75
1, 379489, Note_on_c, 0, 45, 69
1, 379518, Note_off_c, 0, 45, 66
1, 379522, Note_off_c, 0, 33, 59
1, 379523, Note_off_c, 0, 57, 62
1, 379627, Note_on_c, 0, 56, 81
1, 379631, Note_on_c, 0, 44, 97
1, 379632, Note_on_c, 0, 32, 85
1, 379640, Control_c, 0, 64, 75
1, 379652, Note_off_c, 0, 44, 71
1, 379654, Note_off_c, 0, 56, 68
1, 379655, Control_c, 0, 64, 127
1, 379657, Note_off_c, 0, 32, 65
1, 379714, Control_c, 0, 64, 106
1, 379728, Control_c, 0, 64, 71
1, 379743, Control_c, 0, 64, 0
1, 380089, Note_on_c, 0, 76, 61
1, 380120, Note_off_c, 0, 76, 62
1, 380125, Note_on_c, 0, 86, 76
1, 380478, Note_on_c, 0, 56, 60
1, 380512, Note_off_c, 0, 56, 62
1, 380521, Note_off_c, 0, 86, 60
1, 380541, Note_on_c, 0, 85, 58
1, 380603, Note_off_c, 0, 85, 65
1, 380608, Note_on_c, 0, 83, 64
1, 380617, Note_on_c, 0, 59, 38
1, 380637, Note_off_c, 0, 83, 64
1, 380650, Note_off_c, 0, 59, 48
1, 380674, Note_on_c, 0, 81, 63
1, 380705, Note_off_c, 0, 81, 59
1, 380732, Note_on_c, 0, 64, 43
1, 380744, Note_on_c, 0, 80, 67
1, 380765, Note_off_c, 0, 64, 55
1, 380811, Note_on_c, 0, 78, 64
1, 380817, Note_off_c, 0, 80, 63
1, 380843, Note_off_c, 0, 78, 61
1, 380867, Note_on_c, 0, 56, 59
1, 380883, Note_on_c, 0, 76, 59
1, 380905, Note_off_c, 0, 56, 63
1, 380906, Note_off_c, 0, 76, 60
1, 380941, Note_on_c, 0, 78, 65
1, 380993, Note_on_c, 0, 76, 66
1, 381003, Note_off_c, 0, 78, 62
1, 381004, Note_on_c, 0, 59, 49
1, 381030, Note_off_c, 0, 59, 58
1, 381031, Note_off_c, 0, 76, 60
1, 381059, Note_on_c, 0, 74, 65
1, 381090, Note_off_c, 0, 74, 63
1, 381130, Note_on_c, 0, 73, 64
1, 381134, Note_on_c, 0, 64, 52
1, 381169, Note_off_c, 0, 73, 63
1, 381172, Note_off_c, 0, 64, 62
1, 381184, Note_on_c, 0, 71, 67
1, 381231, Note_off_c, 0, 71, 60
1, 381255, Note_on_c, 0, 73, 67
1, 381261, Note_on_c, 0, 57, 54
1, 381283, Note_off_c, 0, 73, 66
1, 381291, Note_off_c, 0, 57, 64
1, 381315, Note_on_c, 0, 76, 65
1, 381361, Note_off_c, 0, 76, 59
1, 381383, Note_on_c, 0, 78, 72
1, 381399, Note_on_c, 0, 61, 48
1, 381428, Note_off_c, 0, 61, 55
1, 381443, Note_off_c, 0, 78, 58
1, 381449, Note_on_c, 0, 80, 66
1, 381486, Note_off_c, 0, 80, 63
1, 381518, Note_on_c, 0, 81, 71
1, 381534, Note_on_c, 0, 64, 45
1, 381564, Note_off_c, 0, 64, 59
1, 381578, Note_off_c, 0, 81, 53
1, 381593, Note_on_c, 0, 83, 69
1, 381646, Note_off_c, 0, 83, 62
1, 381657, Note_on_c, 0, 85, 72
1, 381669, Note_on_c, 0, 57, 28
1, 381706, Note_off_c, 0, 57, 44
1, 381708, Note_off_c, 0, 85, 65
1, 381724, Note_on_c, 0, 86, 68
1, 381768, Note_on_c, 0, 61, 53
1, 381788, Note_off_c, 0, 86, 65
1, 381794, Note_off_c, 0, 61, 57
1, 381795, Note_on_c, 0, 88, 76
1, 381863, Note_off_c, 0, 88, 60
1, 381864, Note_on_c, 0, 85, 70
1, 381917, Note_on_c, 0, 64, 46
1, 381923, Note_on_c, 0, 83, 66
1, 381932, Note_off_c, 0, 85, 62
1, 381947, Note_off_c, 0, 64, 59
1, 381968, Note_off_c, 0, 83, 63
1, 381999, Note_on_c, 0, 81, 54
1, 382034, Note_off_c, 0, 81, 60
1, 382040, Note_on_c, 0, 56, 59
1, 382050, Note_on_c, 0, 86, 71
1, 382078, Note_off_c, 0, 56, 62
1, 382115, Note_off_c, 0, 86, 62
1, 382117, Note_on_c, 0, 85, 66
1, 382170, Note_on_c, 0, 83, 68
1, 382176, Note_off_c, 0, 85, 64
1, 382178, Note_on_c, 0, 59, 53
1, 382205, Note_off_c, 0, 59, 59
1, 382206, Note_off_c, 0, 83, 62
1, 382234, Note_on_c, 0, 81, 68
1, 382282, Note_off_c, 0, 81, 60
1, 382311, Note_on_c, 0, 64, 48
1, 382314, Note_on_c, 0, 80, 68
1, 382353, Note_off_c, 0, 64, 61
1, 382367, Note_on_c, 0, 78, 72
1, 382379, Note_off_c, 0, 80, 61
1, 382420, Note_off_c, 0, 78, 62
1, 382444, Note_on_c, 0, 76, 67
1, 382445, Note_on_c, 0, 56, 60
1, 382480, Note_off_c, 0, 76, 56
1, 382482, Note_off_c, 0, 56, 63
1, 382508, Note_on_c, 0, 78, 65
1, 382570, Note_off_c, 0, 78, 64
1, 382574, Note_on_c, 0, 76, 69
1, 382578, Note_on_c, 0, 59, 47
1, 382600, Note_off_c, 0, 76, 67
1, 382604, Note_off_c, 0, 59, 60
1, 382633, Note_on_c, 0, 74, 63
1, 382664, Note_off_c, 0, 74, 64
1, 382697, Note_on_c, 0, 73, 60
1, 382708, Note_on_c, 0, 64, 54
1, 382742, Note_off_c, 0, 73, 63
1, 382747, Note_off_c, 0, 64, 62
1, 382752, Note_on_c, 0, 71, 67
1, 382799, Note_off_c, 0, 71, 60
1, 382826, Note_on_c, 0, 73, 66
1, 382830, Note_on_c, 0, 57, 52
1, 382853, Note_off_c, 0, 73, 66
1, 382858, Note_off_c, 0, 57, 61
1, 382888, Note_on_c, 0, 76, 68
1, 382935, Note_off_c, 0, 76, 60
1, 382957, Note_on_c, 0, 78, 75
1, 382959, Note_on_c, 0, 61, 51
1, 382986, Note_off_c, 0, 61, 59
1, 383017, Note_on_c, 0, 80, 68
1, 383017, Note_off_c, 0, 78, 61
1, 383071, Note_off_c, 0, 80, 63
1, 383094, Note_on_c, 0, 81, 71
1, 383101, Note_on_c, 0, 64, 39
1, 383132, Note_off_c, 0, 64, 57
1, 383147, Note_off_c, 0, 81, 52
1, 383159, Note_on_c, 0, 83, 69
1, 383215, Note_off_c, 0, 83, 60
1, 383222, Note_on_c, 0, 85, 74
1, 383226, Note_on_c, 0, 57, 47
1, 383255, Note_off_c, 0, 57, 59
1, 383274, Note_off_c, 0, 85, 65
1, 383285, Note_on_c, 0, 86, 65
1, 383346, Note_off_c, 0, 86, 65
1, 383351, Note_on_c, 0, 61, 51
1, 383352, Note_on_c, 0, 88, 69
1, 383381, Note_off_c, 0, 61, 57
1, 383410, Note_on_c, 0, 85, 73
1, 383420, Note_off_c, 0, 88, 56
1, 383476, Note_on_c, 0, 83, 69
1, 383479, Note_off_c, 0, 85, 63
1, 383480, Note_on_c, 0, 64, 44
1, 383512, Note_off_c, 0, 64, 58
1, 383519, Note_off_c, 0, 83, 65
1, 383550, Note_on_c, 0, 81, 56
1, 383584, Note_off_c, 0, 81, 60
1, 383602, Note_on_c, 0, 86, 75
1, 383605, Note_on_c, 0, 56, 51
1, 383640, Note_off_c, 0, 56, 64
1, 383665, Note_on_c, 0, 85, 74
1, 383668, Note_off_c, 0, 86, 63
1, 383726, Note_on_c, 0, 83, 74
1, 383728, Note_on_c, 0, 59, 50
1, 383740, Note_off_c, 0, 85, 64
1, 383761, Note_off_c, 0, 59, 63
1, 383768, Note_off_c, 0, 83, 64
1, 383801, Note_on_c, 0, 81, 71
1, 383833, Note_off_c, 0, 81, 59
1, 383870, Note_on_c, 0, 64, 44
1, 383871, Note_on_c, 0, 80, 70
1, 383902, Note_off_c, 0, 64, 56
1, 383929, Note_on_c, 0, 78, 73
1, 383939, Note_off_c, 0, 80, 58
1, 383977, Note_off_c, 0, 78, 62
1, 383995, Note_on_c, 0, 56, 61
1, 383998, Note_on_c, 0, 76, 70
1, 384013, Control_c, 0, 64, 40
1, 384027, Control_c, 0, 64, 0
1, 384028, Note_off_c, 0, 76, 60
1, 384035, Note_off_c, 0, 56, 59
1, 384060, Note_on_c, 0, 78, 67
1, 384122, Note_on_c, 0, 59, 54
1, 384123, Note_on_c, 0, 76, 67
1, 384125, Note_off_c, 0, 78, 63
1, 384150, Note_off_c, 0, 76, 62
1, 384159, Note_off_c, 0, 59, 61
1, 384179, Note_on_c, 0, 74, 70
1, 384204, Note_off_c, 0, 74, 68
1, 384237, Note_on_c, 0, 73, 69
1, 384244, Note_on_c, 0, 64, 54
1, 384281, Note_off_c, 0, 64, 63
1, 384282, Note_off_c, 0, 73, 63
1, 384299, Note_on_c, 0, 71, 73
1, 384346, Note_off_c, 0, 71, 61
1, 384356, Note_on_c, 0, 73, 75
1, 384367, Note_on_c, 0, 57, 51
1, 384381, Note_off_c, 0, 73, 69
1, 384394, Note_off_c, 0, 57, 57
1, 384418, Note_on_c, 0, 76, 76
1, 384453, Note_off_c, 0, 76, 58
1, 384487, Note_on_c, 0, 78, 73
1, 384552, Note_off_c, 0, 78, 62
1, 384558, Note_on_c, 0, 80, 59
1, 384585, Note_off_c, 0, 80, 65
1, 384620, Note_on_c, 0, 81, 64
1, 384646, Note_off_c, 0, 81, 66
1, 384682, Note_on_c, 0, 83, 66
1, 384723, Note_off_c, 0, 83, 60
1, 384743, Note_on_c, 0, 85, 76
1, 384744, Note_on_c, 0, 49, 60
1, 384744, Note_on_c, 0, 57, 52
1, 384790, Note_off_c, 0, 57, 62
1, 384797, Note_off_c, 0, 49, 63
1, 384802, Note_off_c, 0, 85, 66
1, 384805, Note_on_c, 0, 83, 72
1, 384834, Note_off_c, 0, 83, 64
1, 384870, Note_on_c, 0, 81, 72
1, 384895, Note_off_c, 0, 81, 63
1, 384934, Note_on_c, 0, 80, 72
1, 385000, Note_on_c, 0, 78, 72
1, 385009, Note_off_c, 0, 80, 60
1, 385032, Note_off_c, 0, 78, 59
1, 385068, Note_on_c, 0, 76, 68
1, 385107, Note_off_c, 0, 76, 56
1, 385134, Note_on_c, 0, 57, 52
1, 385136, Note_on_c, 0, 78, 78
1, 385144, Note_on_c, 0, 50, 55
1, 385201, Note_on_c, 0, 76, 79
1, 385211, Note_off_c, 0, 78, 64
1, 385216, Note_off_c, 0, 50, 65
1, 385219, Note_off_c, 0, 57, 62
1, 385244, Note_off_c, 0, 76, 60
1, 385263, Note_on_c, 0, 74, 74
1, 385299, Note_off_c, 0, 74, 60
1, 385326, Note_on_c, 0, 73, 81
1, 385392, Note_on_c, 0, 71, 66
1, 385396, Note_off_c, 0, 73, 62
1, 385427, Note_off_c, 0, 71, 62
1, 385449, Note_on_c, 0, 69, 70
1, 385480, Control_c, 0, 64, 65
1, 385489, Note_off_c, 0, 69, 63
1, 385495, Control_c, 0, 64, 73
1, 385510, Control_c, 0, 64, 74
1, 385525, Control_c, 0, 64, 66
1, 385526, Note_on_c, 0, 74, 94
1, 385528, Note_on_c, 0, 62, 61
1, 385540, Control_c, 0, 64, 0
1, 385560, Note_off_c, 0, 62, 62
1, 385579, Note_on_c, 0, 73, 84
1, 385588, Note_on_c, 0, 61, 66
1, 385610, Note_off_c, 0, 74, 64
1, 385619, Note_off_c, 0, 61, 64
1, 385638, Note_on_c, 0, 71, 78
1, 385649, Note_off_c, 0, 73, 63
1, 385661, Note_on_c, 0, 59, 65
1, 385683, Note_off_c, 0, 71, 63
1, 385689, Note_off_c, 0, 59, 63
1, 385703, Note_on_c, 0, 69, 72
1, 385725, Note_on_c, 0, 57, 60
1, 385733, Note_off_c, 0, 69, 62
1, 385757, Note_on_c, 0, 68, 70
1, 385765, Note_off_c, 0, 57, 63
1, 385792, Note_on_c, 0, 56, 32
1, 385821, Note_on_c, 0, 66, 72
1, 385829, Note_off_c, 0, 56, 30
1, 385831, Note_off_c, 0, 68, 58
1, 385846, Note_on_c, 0, 54, 60
1, 385864, Note_off_c, 0, 66, 59
1, 385880, Note_on_c, 0, 64, 74
1, 385886, Note_off_c, 0, 54, 66
1, 385902, Note_on_c, 0, 52, 38
1, 385905, Note_off_c, 0, 64, 69
1, 385937, Note_off_c, 0, 52, 51
1, 386030, Note_on_c, 0, 52, 62
1, 386032, Note_on_c, 0, 71, 63
1, 386037, Note_on_c, 0, 76, 52
1, 386040, Note_on_c, 0, 68, 52
1, 386057, Note_off_c, 0, 71, 70
1, 386060, Note_off_c, 0, 76, 58
1, 386061, Note_off_c, 0, 52, 64
1, 386063, Note_off_c, 0, 68, 59
1, 386150, Note_on_c, 0, 76, 73
1, 386153, Note_on_c, 0, 52, 58
1, 386153, Note_on_c, 0, 71, 68
1, 386154, Note_on_c, 0, 68, 63
1, 386180, Note_off_c, 0, 68, 65
1, 386183, Note_off_c, 0, 52, 63
1, 386189, Note_off_c, 0, 71, 62
1, 386191, Note_off_c, 0, 76, 62
1, 386287, Note_on_c, 0, 76, 85
1, 386288, Note_on_c, 0, 71, 76
1, 386296, Note_on_c, 0, 68, 55
1, 386304, Note_on_c, 0, 52, 52
1, 386304, Control_c, 0, 64, 69
1, 386309, Note_off_c, 0, 76, 68
1, 386310, Note_off_c, 0, 71, 71
1, 386318, Note_off_c, 0, 68, 61
1, 386319, Control_c, 0, 64, 91
1, 386334, Control_c, 0, 64, 127
1, 386378, Control_c, 0, 67, 66
1, 386393, Control_c, 0, 67, 127
1, 386422, Control_c, 0, 64, 86
1, 386437, Control_c, 0, 64, 64
1, 386452, Control_c, 0, 64, 0
1, 386483, Note_off_c, 0, 52, 62
1, 386871, Note_on_c, 0, 73, 51
1, 386890, Control_c, 0, 64, 24
1, 386901, Note_on_c, 0, 64, 23
1, 386905, Control_c, 0, 64, 50
1, 386919, Control_c, 0, 64, 60
1, 386934, Control_c, 0, 64, 65
1, 386949, Control_c, 0, 64, 67
1, 386964, Control_c, 0, 64, 70
1, 386979, Control_c, 0, 64, 73
1, 386993, Control_c, 0, 64, 76
1, 387008, Control_c, 0, 64, 78
1, 387023, Control_c, 0, 64, 80
1, 387038, Control_c, 0, 64, 81
1, 387053, Control_c, 0, 64, 82
1, 387068, Control_c, 0, 64, 82
1, 387128, Note_off_c, 0, 64, 43
1, 387245, Control_c, 0, 64, 82
1, 387275, Control_c, 0, 64, 81
1, 387290, Control_c, 0, 64, 80
1, 387305, Control_c, 0, 64, 80
1, 387312, Note_on_c, 0, 71, 58
1, 387319, Control_c, 0, 64, 79
1, 387334, Control_c, 0, 64, 79
1, 387336, Note_off_c, 0, 73, 60
1, 387344, Note_on_c, 0, 62, 38
1, 387349, Control_c, 0, 64, 78
1, 387364, Control_c, 0, 64, 78
1, 387379, Control_c, 0, 64, 77
1, 387393, Control_c, 0, 64, 77
1, 387408, Control_c, 0, 64, 76
1, 387423, Control_c, 0, 64, 76
1, 387438, Control_c, 0, 64, 75
1, 387457, Note_on_c, 0, 73, 70
1, 387482, Control_c, 0, 64, 75
1, 387488, Note_off_c, 0, 62, 40
1, 387497, Note_off_c, 0, 71, 63
1, 387580, Control_c, 0, 64, 74
1, 387610, Note_on_c, 0, 71, 75
1, 387639, Control_c, 0, 64, 74
1, 387683, Control_c, 0, 64, 73
1, 387698, Control_c, 0, 64, 73
1, 387709, Note_off_c, 0, 73, 38
1, 387713, Control_c, 0, 64, 72
1, 387728, Control_c, 0, 64, 71
1, 387743, Control_c, 0, 64, 70
1, 387748, Note_on_c, 0, 69, 66
1, 387757, Note_on_c, 0, 61, 46
1, 387757, Control_c, 0, 64, 68
1, 387766, Note_on_c, 0, 57, 45
1, 387772, Control_c, 0, 64, 66
1, 387787, Control_c, 0, 64, 62
1, 387802, Control_c, 0, 64, 50
1, 387817, Control_c, 0, 64, 0
1, 387818, Note_off_c, 0, 71, 54
1, 388234, Note_on_c, 0, 56, 55
1, 388245, Note_off_c, 0, 57, 55
1, 388366, Note_off_c, 0, 56, 53
1, 388374, Note_on_c, 0, 57, 50
1, 388508, Note_on_c, 0, 56, 43
1, 388539, Note_off_c, 0, 57, 38
1, 388677, Note_on_c, 0, 54, 50
1, 388699, Note_off_c, 0, 61, 37
1, 388702, Note_off_c, 0, 56, 38
1, 388803, Control_c, 0, 64, 44
1, 388817, Control_c, 0, 64, 56
1, 388832, Control_c, 0, 64, 62
1, 388847, Control_c, 0, 64, 65
1, 388862, Control_c, 0, 64, 67
1, 388877, Control_c, 0, 64, 69
1, 388891, Control_c, 0, 64, 72
1, 388906, Control_c, 0, 64, 74
1, 388921, Control_c, 0, 64, 76
1, 388936, Control_c, 0, 64, 79
1, 388951, Control_c, 0, 64, 81
1, 388965, Control_c, 0, 64, 83
1, 388977, Note_off_c, 0, 69, 51
1, 388980, Control_c, 0, 64, 84
1, 388985, Note_on_c, 0, 73, 63
1, 388995, Control_c, 0, 64, 84
1, 389010, Control_c, 0, 64, 85
1, 389035, Note_off_c, 0, 73, 55
1, 389137, Control_c, 0, 64, 84
1, 389144, Note_on_c, 0, 74, 74
1, 389151, Note_on_c, 0, 69, 53
1, 389152, Control_c, 0, 64, 82
1, 389167, Control_c, 0, 64, 77
1, 389181, Control_c, 0, 64, 68
1, 389196, Control_c, 0, 64, 56
1, 389211, Control_c, 0, 64, 0
1, 389226, Control_c, 0, 64, 17
1, 389240, Control_c, 0, 64, 50
1, 389255, Control_c, 0, 64, 60
1, 389270, Control_c, 0, 64, 63
1, 389285, Control_c, 0, 64, 65
1, 389300, Control_c, 0, 64, 65
1, 389314, Control_c, 0, 64, 67
1, 389329, Control_c, 0, 64, 68
1, 389344, Control_c, 0, 64, 70
1, 389359, Control_c, 0, 64, 72
1, 389374, Control_c, 0, 64, 73
1, 389388, Control_c, 0, 64, 74
1, 389425, Note_off_c, 0, 74, 63
1, 389426, Note_on_c, 0, 78, 68
1, 389436, Note_off_c, 0, 54, 33
1, 389438, Note_on_c, 0, 50, 44
1, 389484, Note_off_c, 0, 78, 59
1, 389486, Note_off_c, 0, 69, 59
1, 389551, Control_c, 0, 64, 74
1, 389566, Control_c, 0, 64, 72
1, 389575, Note_on_c, 0, 68, 61
1, 389577, Note_on_c, 0, 76, 66
1, 389581, Control_c, 0, 64, 69
1, 389583, Note_on_c, 0, 52, 51
1, 389596, Control_c, 0, 64, 64
1, 389611, Note_off_c, 0, 50, 32
1, 389611, Control_c, 0, 64, 33
1, 389626, Control_c, 0, 64, 0
1, 389688, Note_off_c, 0, 68, 59
1, 389699, Note_on_c, 0, 54, 66
1, 389708, Note_on_c, 0, 69, 59
1, 389736, Note_off_c, 0, 52, 54
1, 389844, Note_off_c, 0, 69, 60
1, 389848, Note_on_c, 0, 74, 72
1, 389853, Note_on_c, 0, 56, 65
1, 389854, Note_on_c, 0, 71, 68
1, 389874, Note_off_c, 0, 54, 58
1, 389879, Note_off_c, 0, 76, 56
1, 389981, Note_off_c, 0, 56, 61
1, 389993, Note_on_c, 0, 57, 66
1, 389993, Note_on_c, 0, 73, 79
1, 389999, Note_off_c, 0, 71, 61
1, 390005, Note_on_c, 0, 69, 63
1, 390036, Note_off_c, 0, 74, 58
1, 390063, Control_c, 0, 64, 40
1, 390078, Control_c, 0, 64, 55
1, 390093, Control_c, 0, 64, 62
1, 390108, Control_c, 0, 64, 64
1, 390123, Control_c, 0, 64, 66
1, 390127, Note_on_c, 0, 59, 72
1, 390132, Note_off_c, 0, 57, 61
1, 390137, Control_c, 0, 64, 68
1, 390152, Control_c, 0, 64, 70
1, 390152, Control_c, 0, 67, 122
1, 390167, Control_c, 0, 64, 72
1, 390167, Control_c, 0, 67, 105
1, 390182, Control_c, 0, 64, 75
1, 390182, Control_c, 0, 67, 81
1, 390197, Control_c, 0, 64, 77
1, 390197, Control_c, 0, 67, 54
1, 390211, Control_c, 0, 64, 79
1, 390211, Control_c, 0, 67, 21
1, 390226, Control_c, 0, 64, 81
1, 390226, Control_c, 0, 67, 0
1, 390241, Control_c, 0, 64, 82
1, 390249, Note_off_c, 0, 69, 49
1, 390256, Control_c, 0, 64, 83
1, 390260, Note_on_c, 0, 61, 71
1, 390267, Note_off_c, 0, 59, 62
1, 390270, Control_c, 0, 64, 83
1, 390290, Note_off_c, 0, 61, 64
1, 390356, Note_off_c, 0, 73, 58
1, 390374, Control_c, 0, 64, 83
1, 390389, Control_c, 0, 64, 80
1, 390404, Control_c, 0, 64, 74
1, 390406, Note_on_c, 0, 71, 75
1, 390407, Note_on_c, 0, 69, 59
1, 390408, Note_on_c, 0, 66, 56
1, 390413, Note_on_c, 0, 62, 63
1, 390419, Control_c, 0, 64, 67
1, 390433, Control_c, 0, 64, 39
1, 390448, Control_c, 0, 64, 0
1, 390861, Note_off_c, 0, 69, 60
1, 390863, Note_on_c, 0, 63, 71
1, 390916, Control_c, 0, 64, 26
1, 390931, Control_c, 0, 64, 50
1, 390946, Control_c, 0, 64, 60
1, 390960, Control_c, 0, 64, 64
1, 390961, Note_off_c, 0, 66, 36
1, 390975, Control_c, 0, 64, 65
1, 390990, Control_c, 0, 64, 67
1, 390991, Note_on_c, 0, 73, 77
1, 391005, Control_c, 0, 64, 69
1, 391010, Note_off_c, 0, 71, 62
1, 391019, Control_c, 0, 64, 71
1, 391034, Control_c, 0, 64, 73
1, 391049, Control_c, 0, 64, 75
1, 391064, Control_c, 0, 64, 77
1, 391079, Control_c, 0, 64, 78
1, 391093, Control_c, 0, 64, 79
1, 391119, Note_on_c, 0, 71, 81
1, 391124, Note_off_c, 0, 63, 59
1, 391126, Note_off_c, 0, 62, 36
1, 391145, Note_off_c, 0, 73, 60
1, 391183, Note_off_c, 0, 71, 65
1, 391241, Control_c, 0, 64, 78
1, 391264, Control_c, 0, 64, 77
1, 391273, Note_on_c, 0, 71, 78
1, 391279, Control_c, 0, 64, 74
1, 391284, Note_on_c, 0, 64, 53
1, 391284, Note_on_c, 0, 68, 54
1, 391293, Control_c, 0, 64, 68
1, 391308, Control_c, 0, 64, 56
1, 391323, Control_c, 0, 64, 0
1, 391411, Control_c, 0, 64, 42
1, 391426, Control_c, 0, 64, 58
1, 391441, Control_c, 0, 64, 63
1, 391456, Control_c, 0, 64, 65
1, 391471, Control_c, 0, 64, 67
1, 391486, Control_c, 0, 64, 69
1, 391502, Control_c, 0, 64, 71
1, 391516, Control_c, 0, 64, 72
1, 391531, Control_c, 0, 64, 74
1, 391546, Control_c, 0, 64, 77
1, 391561, Control_c, 0, 64, 79
1, 391576, Control_c, 0, 64, 81
1, 391585, Note_off_c, 0, 68, 38
1, 391590, Control_c, 0, 64, 82
1, 391604, Note_off_c, 0, 64, 38
1, 391605, Control_c, 0, 64, 83
1, 391620, Control_c, 0, 64, 84
1, 391635, Control_c, 0, 64, 84
1, 391694, Control_c, 0, 64, 84
1, 391703, Note_on_c, 0, 68, 58
1, 391709, Control_c, 0, 64, 79
1, 391712, Note_on_c, 0, 62, 55
1, 391721, Note_on_c, 0, 64, 52
1, 391724, Control_c, 0, 64, 72
1, 391739, Control_c, 0, 64, 52
1, 391754, Control_c, 0, 64, 0
1, 391798, Control_c, 0, 64, 36
1, 391813, Control_c, 0, 64, 59
1, 391828, Control_c, 0, 64, 65
1, 391839, Note_off_c, 0, 71, 63
1, 391840, Note_on_c, 0, 73, 78
1, 391842, Control_c, 0, 64, 69
1, 391857, Control_c, 0, 64, 72
1, 391872, Control_c, 0, 64, 76
1, 391887, Control_c, 0, 64, 81
1, 391902, Control_c, 0, 64, 85
1, 391916, Control_c, 0, 64, 88
1, 391931, Control_c, 0, 64, 90
1, 391946, Control_c, 0, 64, 90
1, 391958, Note_off_c, 0, 68, 38
1, 391975, Note_on_c, 0, 74, 89
1, 391989, Note_off_c, 0, 73, 63
1, 391990, Control_c, 0, 64, 91
1, 391997, Note_off_c, 0, 62, 38
1, 392002, Note_off_c, 0, 64, 23
1, 392013, Control_c, 0, 64, 90
1, 392057, Control_c, 0, 64, 88
1, 392072, Control_c, 0, 64, 82
1, 392087, Control_c, 0, 64, 73
1, 392102, Control_c, 0, 64, 60
1, 392111, Note_on_c, 0, 76, 80
1, 392116, Control_c, 0, 64, 0
1, 392121, Note_on_c, 0, 69, 52
1, 392132, Note_on_c, 0, 64, 52
1, 392142, Note_on_c, 0, 61, 40
1, 392162, Note_off_c, 0, 74, 61
1, 392213, Note_off_c, 0, 69, 61
1, 392236, Note_off_c, 0, 64, 64
1, 392246, Note_on_c, 0, 81, 81
1, 392252, Note_off_c, 0, 76, 63
1, 392274, Note_off_c, 0, 61, 58
1, 392292, Note_off_c, 0, 81, 62
1, 392376, Note_on_c, 0, 80, 76
1, 392414, Note_off_c, 0, 80, 65
1, 392505, Note_on_c, 0, 78, 70
1, 392511, Note_on_c, 0, 62, 44
1, 392547, Note_off_c, 0, 78, 63
1, 392639, Note_on_c, 0, 76, 65
1, 392673, Note_off_c, 0, 76, 58
1, 392729, Note_off_c, 0, 62, 34
1, 392788, Note_on_c, 0, 74, 65
1, 392800, Note_on_c, 0, 54, 48
1, 392802, Note_on_c, 0, 57, 40
1, 392834, Note_off_c, 0, 57, 51
1, 392835, Note_off_c, 0, 54, 64
1, 392846, Note_off_c, 0, 74, 57
1, 392851, Control_c, 0, 67, 17
1, 392866, Control_c, 0, 67, 36
1, 392881, Control_c, 0, 67, 70
1, 392896, Control_c, 0, 67, 104
1, 392911, Control_c, 0, 67, 127
1, 392918, Note_on_c, 0, 73, 59
1, 392920, Note_on_c, 0, 57, 41
1, 392946, Note_on_c, 0, 52, 48
1, 393152, Note_off_c, 0, 73, 61
1, 393229, Note_on_c, 0, 74, 55
1, 393265, Note_off_c, 0, 74, 64
1, 393279, Note_on_c, 0, 73, 59
1, 393316, Note_off_c, 0, 57, 37
1, 393339, Note_off_c, 0, 73, 61
1, 393358, Note_on_c, 0, 56, 43
1, 393360, Note_on_c, 0, 71, 55
1, 393489, Control_c, 0, 64, 26
1, 393511, Control_c, 0, 64, 52
1, 393526, Control_c, 0, 64, 60
1, 393541, Control_c, 0, 64, 65
1, 393556, Control_c, 0, 64, 67
1, 393570, Control_c, 0, 64, 69
1, 393571, Note_off_c, 0, 71, 48
1, 393585, Control_c, 0, 64, 71
1, 393599, Control_c, 0, 64, 72
1, 393614, Control_c, 0, 64, 73
1, 393629, Control_c, 0, 64, 74
1, 393644, Control_c, 0, 64, 75
1, 393659, Note_off_c, 0, 56, 42
1, 393806, Control_c, 0, 64, 74
1, 393826, Note_off_c, 0, 52, 36
1, 393836, Control_c, 0, 64, 74
1, 393851, Control_c, 0, 64, 73
1, 393866, Control_c, 0, 64, 73
1, 393897, Control_c, 0, 64, 72
1, 393909, Note_on_c, 0, 73, 50
1, 393926, Control_c, 0, 64, 71
1, 393941, Note_on_c, 0, 64, 33
1, 393941, Control_c, 0, 64, 68
1, 393956, Control_c, 0, 64, 61
1, 393971, Control_c, 0, 64, 0
1, 394044, Control_c, 0, 64, 46
1, 394059, Control_c, 0, 64, 59
1, 394074, Control_c, 0, 64, 63
1, 394089, Control_c, 0, 64, 65
1, 394103, Control_c, 0, 64, 67
1, 394118, Control_c, 0, 64, 69
1, 394133, Control_c, 0, 64, 71
1, 394148, Control_c, 0, 64, 74
1, 394163, Control_c, 0, 64, 76
1, 394177, Control_c, 0, 64, 77
1, 394188, Note_off_c, 0, 64, 44
1, 394192, Control_c, 0, 64, 78
1, 394207, Control_c, 0, 64, 78
1, 394222, Control_c, 0, 64, 79
1, 394252, Control_c, 0, 64, 80
1, 394318, Control_c, 0, 64, 79
1, 394333, Control_c, 0, 64, 77
1, 394348, Control_c, 0, 64, 73
1, 394362, Note_on_c, 0, 71, 55
1, 394362, Control_c, 0, 64, 67
1, 394374, Note_on_c, 0, 62, 44
1, 394376, Note_off_c, 0, 73, 45
1, 394377, Control_c, 0, 64, 56
1, 394392, Control_c, 0, 64, 27
1, 394407, Control_c, 0, 64, 45
1, 394422, Control_c, 0, 64, 57
1, 394437, Control_c, 0, 64, 62
1, 394452, Control_c, 0, 64, 64
1, 394467, Control_c, 0, 64, 66
1, 394482, Control_c, 0, 64, 66
1, 394496, Control_c, 0, 64, 67
1, 394499, Note_on_c, 0, 73, 64
1, 394500, Note_off_c, 0, 62, 39
1, 394511, Control_c, 0, 64, 68
1, 394526, Control_c, 0, 64, 69
1, 394535, Note_off_c, 0, 71, 62
1, 394541, Control_c, 0, 64, 69
1, 394615, Control_c, 0, 64, 69
1, 394630, Control_c, 0, 64, 67
1, 394643, Note_on_c, 0, 71, 69
1, 394644, Control_c, 0, 64, 65
1, 394659, Control_c, 0, 64, 63
1, 394674, Control_c, 0, 64, 52
1, 394677, Note_off_c, 0, 73, 56
1, 394690, Control_c, 0, 64, 0
1, 394779, Note_on_c, 0, 69, 63
1, 394791, Note_on_c, 0, 61, 47
1, 394795, Note_on_c, 0, 54, 45
1, 394811, Note_off_c, 0, 71, 61
1, 394965, Note_off_c, 0, 61, 30
1, 395211, Note_off_c, 0, 54, 59
1, 395215, Note_on_c, 0, 67, 63
1, 395217, Note_on_c, 0, 61, 55
1, 395221, Note_on_c, 0, 52, 57
1, 395328, Note_off_c, 0, 61, 56
1, 395340, Note_on_c, 0, 54, 58
1, 395363, Note_off_c, 0, 52, 58
1, 395364, Note_off_c, 0, 67, 55
1, 395479, Note_on_c, 0, 52, 60
1, 395501, Note_off_c, 0, 54, 52
1, 395608, Note_off_c, 0, 52, 56
1, 395619, Note_off_c, 0, 69, 52
1, 395641, Note_on_c, 0, 66, 54
1, 395647, Note_on_c, 0, 50, 43
1, 395650, Note_on_c, 0, 62, 43
1, 395720, Control_c, 0, 64, 39
1, 395735, Control_c, 0, 64, 57
1, 395757, Control_c, 0, 64, 62
1, 395772, Control_c, 0, 64, 64
1, 395787, Control_c, 0, 64, 66
1, 395802, Control_c, 0, 64, 67
1, 395811, Note_off_c, 0, 62, 52
1, 395816, Control_c, 0, 64, 68
1, 395831, Control_c, 0, 64, 70
1, 395844, Note_off_c, 0, 66, 52
1, 395847, Control_c, 0, 64, 72
1, 395862, Control_c, 0, 64, 74
1, 395874, Note_off_c, 0, 50, 49
1, 395877, Control_c, 0, 64, 74
1, 395891, Control_c, 0, 64, 75
1, 395951, Note_on_c, 0, 49, 58
1, 395955, Note_on_c, 0, 66, 62
1, 395957, Note_on_c, 0, 70, 65
1, 395968, Note_on_c, 0, 64, 52
1, 395980, Note_off_c, 0, 49, 65
1, 395993, Note_off_c, 0, 66, 58
1, 396000, Note_off_c, 0, 64, 64
1, 396008, Note_off_c, 0, 70, 54
1, 396024, Control_c, 0, 64, 73
1, 396039, Control_c, 0, 64, 67
1, 396054, Control_c, 0, 64, 47
1, 396069, Control_c, 0, 64, 0
1, 396091, Note_on_c, 0, 71, 78
1, 396096, Note_on_c, 0, 62, 69
1, 396099, Note_on_c, 0, 66, 65
1, 396103, Note_on_c, 0, 47, 60
1, 396113, Control_c, 0, 64, 28
1, 396123, Note_off_c, 0, 62, 66
1, 396126, Note_off_c, 0, 66, 65
1, 396128, Control_c, 0, 64, 61
1, 396133, Note_off_c, 0, 71, 67
1, 396142, Control_c, 0, 64, 65
1, 396157, Control_c, 0, 64, 68
1, 396172, Control_c, 0, 64, 71
1, 396187, Control_c, 0, 64, 73
1, 396202, Control_c, 0, 64, 75
1, 396216, Control_c, 0, 64, 76
1, 396336, Control_c, 0, 64, 76
1, 396362, Note_on_c, 0, 78, 73
1, 396366, Control_c, 0, 64, 75
1, 396368, Note_on_c, 0, 73, 66
1, 396370, Note_off_c, 0, 47, 59
1, 396380, Note_on_c, 0, 45, 51
1, 396394, Note_off_c, 0, 73, 65
1, 396413, Note_off_c, 0, 78, 61
1, 396440, Control_c, 0, 64, 75
1, 396443, Note_off_c, 0, 45, 54
1, 396455, Control_c, 0, 64, 73
1, 396470, Control_c, 0, 64, 69
1, 396485, Control_c, 0, 64, 55
1, 396506, Control_c, 0, 64, 0
1, 396514, Note_on_c, 0, 76, 69
1, 396523, Note_on_c, 0, 44, 53
1, 396529, Note_on_c, 0, 71, 57
1, 396580, Control_c, 0, 64, 19
1, 396594, Control_c, 0, 64, 54
1, 396609, Control_c, 0, 64, 63
1, 396624, Control_c, 0, 64, 65
1, 396638, Control_c, 0, 64, 68
1, 396653, Control_c, 0, 64, 70
1, 396661, Note_off_c, 0, 76, 58
1, 396668, Control_c, 0, 64, 73
1, 396683, Control_c, 0, 64, 76
1, 396698, Control_c, 0, 64, 78
1, 396712, Control_c, 0, 64, 79
1, 396727, Control_c, 0, 64, 80
1, 396731, Note_off_c, 0, 71, 57
1, 396742, Control_c, 0, 64, 81
1, 396780, Note_on_c, 0, 40, 59
1, 396786, Note_on_c, 0, 74, 63
1, 396792, Note_on_c, 0, 68, 55
1, 396807, Note_off_c, 0, 40, 57
1, 396811, Note_off_c, 0, 44, 35
1, 396822, Note_off_c, 0, 68, 61
1, 396824, Note_off_c, 0, 74, 61
1, 396920, Control_c, 0, 64, 79
1, 396925, Note_on_c, 0, 73, 74
1, 396929, Note_on_c, 0, 45, 69
1, 396935, Control_c, 0, 64, 74
1, 396937, Note_on_c, 0, 69, 61
1, 396949, Control_c, 0, 64, 66
1, 396964, Control_c, 0, 64, 11
1, 396979, Control_c, 0, 64, 0
1, 397024, Control_c, 0, 64, 40
1, 397038, Control_c, 0, 64, 58
1, 397053, Control_c, 0, 64, 64
1, 397057, Note_on_c, 0, 47, 70
1, 397068, Control_c, 0, 64, 66
1, 397083, Note_off_c, 0, 45, 58
1, 397084, Control_c, 0, 64, 68
1, 397099, Control_c, 0, 64, 69
1, 397105, Note_off_c, 0, 69, 52
1, 397114, Control_c, 0, 64, 70
1, 397114, Control_c, 0, 67, 111
1, 397128, Control_c, 0, 64, 72
1, 397128, Control_c, 0, 67, 76
1, 397143, Control_c, 0, 64, 74
1, 397143, Control_c, 0, 67, 23
1, 397158, Control_c, 0, 64, 75
1, 397158, Control_c, 0, 67, 0
1, 397187, Control_c, 0, 64, 75
1, 397188, Note_on_c, 0, 49, 72
1, 397202, Control_c, 0, 64, 73
1, 397203, Note_off_c, 0, 47, 65
1, 397217, Control_c, 0, 64, 68
1, 397218, Note_off_c, 0, 49, 66
1, 397232, Control_c, 0, 64, 60
1, 397254, Control_c, 0, 64, 0
1, 397316, Note_off_c, 0, 73, 61
1, 397341, Note_on_c, 0, 57, 54
1, 397342, Note_on_c, 0, 50, 56
1, 397345, Note_on_c, 0, 54, 55
1, 397346, Note_on_c, 0, 71, 59
1, 397445, Note_off_c, 0, 71, 58
1, 397474, Note_on_c, 0, 83, 64
1, 397493, Note_off_c, 0, 83, 63
1, 397600, Note_on_c, 0, 83, 68
1, 397628, Note_off_c, 0, 57, 51
1, 397638, Note_off_c, 0, 83, 63
1, 397727, Note_on_c, 0, 83, 90
1, 397737, Note_on_c, 0, 51, 59
1, 397749, Note_off_c, 0, 54, 25
1, 397763, Note_off_c, 0, 83, 64
1, 397855, Note_on_c, 0, 83, 91
1, 397861, Control_c, 0, 64, 34
1, 397877, Control_c, 0, 64, 56
1, 397892, Control_c, 0, 64, 62
1, 397899, Note_off_c, 0, 83, 63
1, 397902, Note_off_c, 0, 50, 47
1, 397907, Control_c, 0, 64, 64
1, 397913, Note_off_c, 0, 51, 59
1, 397921, Control_c, 0, 64, 65
1, 397936, Control_c, 0, 64, 66
1, 397951, Control_c, 0, 64, 66
1, 397966, Control_c, 0, 64, 67
1, 397981, Control_c, 0, 64, 68
1, 397984, Note_on_c, 0, 83, 87
1, 397996, Control_c, 0, 64, 68
1, 398017, Control_c, 0, 64, 69
1, 398032, Control_c, 0, 64, 70
1, 398042, Note_off_c, 0, 83, 64
1, 398047, Control_c, 0, 64, 71
1, 398091, Control_c, 0, 64, 71
1, 398106, Control_c, 0, 64, 68
1, 398121, Control_c, 0, 64, 57
1, 398129, Note_on_c, 0, 56, 55
1, 398132, Note_on_c, 0, 83, 78
1, 398135, Note_on_c, 0, 52, 49
1, 398136, Control_c, 0, 64, 0
1, 398143, Note_on_c, 0, 50, 47
1, 398225, Control_c, 0, 64, 47
1, 398240, Control_c, 0, 64, 61
1, 398244, Note_off_c, 0, 83, 65
1, 398255, Control_c, 0, 64, 64
1, 398269, Note_on_c, 0, 76, 79
1, 398270, Control_c, 0, 64, 66
1, 398284, Control_c, 0, 64, 67
1, 398299, Control_c, 0, 64, 68
1, 398300, Note_off_c, 0, 52, 50
1, 398314, Control_c, 0, 64, 69
1, 398329, Control_c, 0, 64, 70
1, 398344, Control_c, 0, 64, 71
1, 398358, Note_off_c, 0, 56, 39
1, 398393, Note_on_c, 0, 88, 84
1, 398402, Control_c, 0, 64, 71
1, 398413, Note_off_c, 0, 76, 38
1, 398435, Note_off_c, 0, 50, 61
1, 398446, Note_off_c, 0, 88, 65
1, 398476, Control_c, 0, 64, 71
1, 398491, Control_c, 0, 64, 69
1, 398506, Control_c, 0, 64, 65
1, 398521, Control_c, 0, 64, 56
1, 398524, Note_on_c, 0, 88, 68
1, 398524, Note_on_c, 0, 55, 51
1, 398526, Note_on_c, 0, 49, 53
1, 398530, Note_on_c, 0, 52, 49
1, 398536, Control_c, 0, 64, 0
1, 398665, Note_on_c, 0, 81, 69
1, 398671, Note_off_c, 0, 88, 55
1, 398702, Note_off_c, 0, 81, 54
1, 398800, Note_on_c, 0, 81, 72
1, 398842, Note_off_c, 0, 81, 61
1, 398911, Note_off_c, 0, 55, 33
1, 398924, Note_on_c, 0, 81, 70
1, 398926, Note_on_c, 0, 54, 52
1, 398929, Note_off_c, 0, 52, 28
1, 398937, Note_on_c, 0, 50, 49
1, 398941, Note_off_c, 0, 81, 66
1, 398944, Note_off_c, 0, 49, 37
1, 398945, Control_c, 0, 64, 51
1, 398959, Control_c, 0, 64, 0
1, 399060, Note_on_c, 0, 74, 81
1, 399062, Note_on_c, 0, 78, 73
1, 399069, Note_off_c, 0, 54, 56
1, 399078, Note_off_c, 0, 50, 60
1, 399091, Note_off_c, 0, 74, 62
1, 399096, Note_off_c, 0, 78, 62
1, 399181, Note_on_c, 0, 76, 78
1, 399182, Note_on_c, 0, 73, 77
1, 399204, Note_off_c, 0, 76, 67
1, 399221, Note_off_c, 0, 73, 63
1, 399309, Note_on_c, 0, 71, 82
1, 399309, Note_on_c, 0, 74, 82
1, 399312, Note_on_c, 0, 52, 53
1, 399315, Control_c, 0, 64, 64
1, 399330, Control_c, 0, 64, 68
1, 399334, Note_off_c, 0, 71, 65
1, 399344, Control_c, 0, 64, 49
1, 399352, Note_off_c, 0, 74, 65
1, 399359, Control_c, 0, 64, 0
1, 399415, Note_off_c, 0, 52, 62
1, 399440, Note_on_c, 0, 73, 81
1, 399443, Note_on_c, 0, 69, 77
1, 399470, Note_off_c, 0, 69, 65
1, 399472, Note_off_c, 0, 73, 64
1, 399579, Note_on_c, 0, 71, 72
1, 399588, Note_on_c, 0, 68, 63
1, 399618, Note_off_c, 0, 68, 65
1, 399627, Note_off_c, 0, 71, 65
1, 399715, Note_on_c, 0, 69, 94
1, 399722, Control_c, 0, 64, 64
1, 399731, Note_off_c, 0, 69, 72
1, 399735, Note_on_c, 0, 57, 65
1, 399737, Control_c, 0, 64, 127
1, 399771, Note_off_c, 0, 57, 57
1, 399787, Note_on_c, 0, 64, 65
1, 399850, Note_off_c, 0, 64, 61
1, 399859, Note_on_c, 0, 61, 64
1, 399900, Note_off_c, 0, 61, 61
1, 399929, Note_on_c, 0, 64, 52
1, 399980, Note_off_c, 0, 64, 60
1, 399993, Note_on_c, 0, 61, 58
1, 400026, Note_off_c, 0, 61, 63
1, 400050, Note_on_c, 0, 64, 57
1, 400093, Control_c, 0, 64, 89
1, 400104, Note_off_c, 0, 64, 63
1, 400108, Control_c, 0, 64, 62
1, 400121, Note_on_c, 0, 85, 99
1, 400122, Control_c, 0, 64, 0
1, 400127, Note_on_c, 0, 57, 69
1, 400137, Control_c, 0, 64, 66
1, 400152, Control_c, 0, 64, 81
1, 400154, Note_off_c, 0, 85, 66
1, 400166, Control_c, 0, 64, 118
1, 400181, Control_c, 0, 64, 127
1, 400184, Note_on_c, 0, 64, 68
1, 400235, Note_on_c, 0, 61, 67
1, 400237, Note_off_c, 0, 64, 63
1, 400273, Note_off_c, 0, 57, 0
1, 400290, Note_off_c, 0, 61, 59
1, 400303, Note_on_c, 0, 57, 12
1, 400303, Note_on_c, 0, 64, 60
1, 400359, Note_off_c, 0, 64, 62
1, 400377, Note_on_c, 0, 61, 64
1, 400409, Note_off_c, 0, 61, 59
1, 400436, Note_on_c, 0, 64, 62
1, 400458, Note_off_c, 0, 57, 43
1, 400471, Control_c, 0, 64, 92
1, 400483, Note_off_c, 0, 64, 63
1, 400486, Control_c, 0, 64, 64
1, 400501, Control_c, 0, 64, 0
1, 400524, Note_on_c, 0, 59, 68
1, 400532, Note_on_c, 0, 86, 85
1, 400554, Note_off_c, 0, 59, 62
1, 400585, Note_on_c, 0, 64, 64
1, 400589, Note_on_c, 0, 85, 87
1, 400596, Note_off_c, 0, 86, 64
1, 400619, Note_off_c, 0, 64, 65
1, 400648, Note_on_c, 0, 62, 54
1, 400648, Note_off_c, 0, 85, 67
1, 400659, Note_on_c, 0, 83, 77
1, 400685, Note_off_c, 0, 62, 63
1, 400697, Note_off_c, 0, 83, 65
1, 400706, Note_on_c, 0, 64, 63
1, 400715, Note_on_c, 0, 81, 69
1, 400741, Note_off_c, 0, 64, 61
1, 400767, Note_off_c, 0, 81, 59
1, 400769, Note_on_c, 0, 80, 83
1, 400782, Note_on_c, 0, 62, 49
1, 400789, Note_off_c, 0, 80, 65
1, 400807, Note_off_c, 0, 62, 57
1, 400834, Note_on_c, 0, 64, 55
1, 400871, Note_off_c, 0, 64, 65
1, 400886, Control_c, 0, 64, 47
1, 400901, Control_c, 0, 64, 66
1, 400903, Note_on_c, 0, 56, 68
1, 400912, Note_on_c, 0, 83, 77
1, 400916, Control_c, 0, 64, 0
1, 400936, Note_off_c, 0, 56, 64
1, 400956, Note_on_c, 0, 81, 69
1, 400966, Note_off_c, 0, 83, 65
1, 400969, Note_on_c, 0, 64, 57
1, 401011, Note_off_c, 0, 64, 66
1, 401040, Note_on_c, 0, 80, 81
1, 401051, Note_on_c, 0, 59, 47
1, 401054, Note_off_c, 0, 81, 63
1, 401081, Note_off_c, 0, 59, 58
1, 401096, Note_on_c, 0, 64, 64
1, 401101, Note_on_c, 0, 78, 74
1, 401102, Note_off_c, 0, 80, 66
1, 401135, Note_off_c, 0, 64, 63
1, 401141, Note_off_c, 0, 78, 66
1, 401161, Note_on_c, 0, 59, 58
1, 401162, Note_on_c, 0, 76, 76
1, 401194, Note_off_c, 0, 59, 64
1, 401199, Note_off_c, 0, 76, 56
1, 401219, Note_on_c, 0, 74, 74
1, 401227, Note_on_c, 0, 64, 49
1, 401258, Note_off_c, 0, 64, 62
1, 401265, Control_c, 0, 67, 90
1, 401268, Note_off_c, 0, 74, 65
1, 401278, Note_on_c, 0, 73, 84
1, 401280, Control_c, 0, 67, 127
1, 401283, Note_on_c, 0, 57, 57
1, 401296, Note_off_c, 0, 73, 71
1, 401316, Note_off_c, 0, 57, 65
1, 401342, Note_on_c, 0, 64, 58
1, 401381, Note_off_c, 0, 64, 61
1, 401412, Note_on_c, 0, 61, 49
1, 401419, Note_on_c, 0, 76, 69
1, 401444, Note_off_c, 0, 61, 62
1, 401447, Note_off_c, 0, 76, 65
1, 401481, Note_on_c, 0, 64, 50
1, 401511, Note_off_c, 0, 64, 57
1, 401540, Note_on_c, 0, 61, 45
1, 401553, Note_on_c, 0, 81, 69
1, 401568, Note_off_c, 0, 61, 57
1, 401579, Note_off_c, 0, 81, 64
1, 401597, Note_on_c, 0, 64, 53
1, 401636, Note_off_c, 0, 64, 63
1, 401670, Note_on_c, 0, 85, 67
1, 401676, Note_on_c, 0, 57, 41
1, 401698, Note_off_c, 0, 85, 66
1, 401705, Note_off_c, 0, 57, 57
1, 401734, Note_on_c, 0, 64, 55
1, 401780, Note_off_c, 0, 64, 64
1, 401803, Note_on_c, 0, 88, 66
1, 401809, Note_on_c, 0, 61, 52
1, 401826, Note_off_c, 0, 88, 66
1, 401840, Note_off_c, 0, 61, 61
1, 401871, Note_on_c, 0, 64, 55
1, 401880, Control_c, 0, 67, 126
1, 401895, Control_c, 0, 67, 111
1, 401908, Note_off_c, 0, 64, 65
1, 401910, Control_c, 0, 67, 90
1, 401925, Control_c, 0, 67, 66
1, 401935, Note_on_c, 0, 61, 56
1, 401940, Control_c, 0, 67, 42
1, 401955, Control_c, 0, 67, 21
1, 401967, Note_off_c, 0, 61, 63
1, 401969, Control_c, 0, 67, 0
1, 401996, Note_on_c, 0, 64, 56
1, 402032, Note_off_c, 0, 64, 65
1, 402065, Note_on_c, 0, 59, 76
1, 402065, Note_on_c, 0, 86, 93
1, 402106, Note_off_c, 0, 59, 58
1, 402125, Note_on_c, 0, 85, 84
1, 402125, Note_on_c, 0, 64, 64
1, 402142, Note_off_c, 0, 86, 62
1, 402167, Note_off_c, 0, 64, 63
1, 402188, Note_on_c, 0, 62, 60
1, 402193, Note_off_c, 0, 85, 67
1, 402197, Note_on_c, 0, 83, 71
1, 402227, Note_off_c, 0, 62, 62
1, 402235, Note_off_c, 0, 83, 67
1, 402244, Note_on_c, 0, 64, 59
1, 402254, Note_on_c, 0, 81, 70
1, 402288, Note_off_c, 0, 81, 53
1, 402291, Note_off_c, 0, 64, 62
1, 402318, Note_on_c, 0, 80, 74
1, 402323, Note_on_c, 0, 62, 54
1, 402337, Note_off_c, 0, 80, 70
1, 402348, Note_off_c, 0, 62, 58
1, 402371, Note_on_c, 0, 64, 52
1, 402417, Note_off_c, 0, 64, 63
1, 402449, Note_on_c, 0, 56, 75
1, 402451, Note_on_c, 0, 83, 90
1, 402497, Note_off_c, 0, 56, 60
1, 402509, Note_on_c, 0, 64, 65
1, 402518, Note_on_c, 0, 81, 77
1, 402521, Note_off_c, 0, 83, 63
1, 402571, Note_off_c, 0, 64, 62
1, 402581, Note_on_c, 0, 80, 77
1, 402581, Note_on_c, 0, 59, 65
1, 402604, Note_off_c, 0, 81, 63
1, 402622, Note_off_c, 0, 59, 61
1, 402640, Note_on_c, 0, 64, 55
1, 402645, Note_on_c, 0, 78, 81
1, 402668, Note_off_c, 0, 80, 65
1, 402696, Note_off_c, 0, 78, 65
1, 402697, Note_off_c, 0, 64, 60
1, 402712, Note_on_c, 0, 76, 78
1, 402714, Note_on_c, 0, 59, 60
1, 402744, Note_off_c, 0, 59, 64
1, 402757, Note_off_c, 0, 76, 58
1, 402767, Note_on_c, 0, 64, 52
1, 402775, Note_on_c, 0, 74, 76
1, 402807, Note_off_c, 0, 64, 63
1, 402818, Note_off_c, 0, 74, 66
1, 402821, Note_on_c, 0, 73, 89
1, 402822, Control_c, 0, 67, 64
1, 402831, Note_on_c, 0, 57, 58
1, 402837, Control_c, 0, 67, 127
1, 402844, Note_off_c, 0, 73, 68
1, 402866, Note_off_c, 0, 57, 64
1, 402896, Note_on_c, 0, 64, 64
1, 402936, Note_off_c, 0, 64, 62
1, 402959, Note_on_c, 0, 61, 59
1, 402967, Note_on_c, 0, 76, 72
1, 402989, Note_off_c, 0, 61, 64
1, 402993, Note_off_c, 0, 76, 65
1, 403022, Note_on_c, 0, 64, 57
1, 403063, Note_off_c, 0, 64, 61
1, 403082, Note_on_c, 0, 61, 58
1, 403100, Note_on_c, 0, 81, 70
1, 403115, Note_off_c, 0, 61, 63
1, 403123, Note_off_c, 0, 81, 67
1, 403156, Note_on_c, 0, 64, 50
1, 403193, Note_off_c, 0, 64, 65
1, 403219, Note_on_c, 0, 85, 75
1, 403231, Note_on_c, 0, 57, 42
1, 403257, Note_off_c, 0, 85, 57
1, 403284, Note_off_c, 0, 57, 57
1, 403298, Note_on_c, 0, 64, 56
1, 403347, Note_on_c, 0, 88, 86
1, 403353, Note_off_c, 0, 64, 59
1, 403358, Note_on_c, 0, 61, 58
1, 403365, Note_off_c, 0, 88, 73
1, 403394, Note_off_c, 0, 61, 63
1, 403432, Note_on_c, 0, 64, 52
1, 403470, Note_off_c, 0, 64, 65
1, 403479, Note_on_c, 0, 61, 64
1, 403515, Note_off_c, 0, 61, 62
1, 403546, Note_on_c, 0, 64, 55
1, 403573, Note_off_c, 0, 64, 57
1, 403609, Note_on_c, 0, 62, 68
1, 403636, Note_off_c, 0, 62, 67
1, 403755, Note_on_c, 0, 77, 50
1, 403828, Note_off_c, 0, 77, 52
1, 403889, Note_on_c, 0, 78, 49
1, 403910, Note_off_c, 0, 78, 62
1, 404019, Note_on_c, 0, 69, 61
1, 404023, Note_on_c, 0, 62, 57
1, 404046, Note_off_c, 0, 69, 67
1, 404050, Note_off_c, 0, 62, 63
1, 404146, Note_on_c, 0, 81, 84
1, 404281, Note_on_c, 0, 78, 78
1, 404293, Note_off_c, 0, 81, 61
1, 404330, Note_off_c, 0, 78, 64
1, 404406, Note_on_c, 0, 61, 75
1, 404406, Note_on_c, 0, 69, 74
1, 404434, Note_off_c, 0, 69, 62
1, 404437, Note_off_c, 0, 61, 64
1, 404542, Note_on_c, 0, 75, 69
1, 404651, Note_off_c, 0, 75, 59
1, 404669, Note_on_c, 0, 76, 65
1, 404713, Note_off_c, 0, 76, 60
1, 404810, Note_on_c, 0, 69, 58
1, 404822, Note_on_c, 0, 62, 47
1, 404840, Note_off_c, 0, 69, 66
1, 404846, Note_off_c, 0, 62, 60
1, 404946, Note_on_c, 0, 78, 56
1, 405084, Note_on_c, 0, 74, 58
1, 405102, Note_off_c, 0, 78, 53
1, 405115, Note_off_c, 0, 74, 66
1, 405212, Note_on_c, 0, 69, 51
1, 405222, Note_on_c, 0, 64, 44
1, 405246, Note_off_c, 0, 69, 61
1, 405247, Note_off_c, 0, 64, 59
1, 405328, Note_on_c, 0, 72, 51
1, 405469, Note_on_c, 0, 73, 51
1, 405472, Note_off_c, 0, 72, 39
1, 405521, Note_off_c, 0, 73, 59
1, 405608, Note_on_c, 0, 68, 54
1, 405616, Note_on_c, 0, 64, 48
1, 405645, Note_off_c, 0, 68, 64
1, 405650, Note_off_c, 0, 64, 66
1, 405744, Note_on_c, 0, 74, 58
1, 405826, Note_off_c, 0, 74, 56
1, 405869, Note_on_c, 0, 71, 57
1, 405903, Note_off_c, 0, 71, 63
1, 405981, Control_c, 0, 67, 91
1, 405996, Control_c, 0, 67, 9
1, 406005, Note_on_c, 0, 69, 90
1, 406010, Control_c, 0, 67, 0
1, 406016, Note_on_c, 0, 57, 72
1, 406025, Control_c, 0, 64, 76
1, 406035, Note_off_c, 0, 69, 66
1, 406040, Control_c, 0, 64, 127
1, 406059, Note_off_c, 0, 57, 58
1, 406076, Note_on_c, 0, 64, 63
1, 406125, Note_off_c, 0, 64, 58
1, 406140, Note_on_c, 0, 61, 68
1, 406183, Note_off_c, 0, 61, 60
1, 406205, Note_on_c, 0, 64, 61
1, 406265, Note_off_c, 0, 64, 61
1, 406292, Note_on_c, 0, 61, 62
1, 406324, Note_off_c, 0, 61, 63
1, 406347, Note_on_c, 0, 64, 67
1, 406399, Note_off_c, 0, 64, 61
1, 406403, Control_c, 0, 64, 107
1, 406417, Control_c, 0, 64, 68
1, 406419, Note_on_c, 0, 85, 98
1, 406428, Note_on_c, 0, 57, 67
1, 406432, Control_c, 0, 64, 0
1, 406447, Control_c, 0, 64, 61
1, 406462, Control_c, 0, 64, 80
1, 406477, Control_c, 0, 64, 102
1, 406480, Note_off_c, 0, 85, 66
1, 406486, Note_on_c, 0, 64, 74
1, 406492, Control_c, 0, 64, 127
1, 406544, Note_off_c, 0, 64, 63
1, 406545, Note_on_c, 0, 61, 70
1, 406565, Note_off_c, 0, 57, 0
1, 406587, Note_off_c, 0, 61, 59
1, 406594, Note_on_c, 0, 57, 5
1, 406600, Note_on_c, 0, 64, 63
1, 406663, Note_off_c, 0, 64, 62
1, 406685, Note_on_c, 0, 61, 65
1, 406720, Note_off_c, 0, 61, 62
1, 406739, Note_on_c, 0, 64, 64
1, 406755, Note_off_c, 0, 57, 52
1, 406793, Note_off_c, 0, 64, 64
1, 406833, Control_c, 0, 64, 89
1, 406843, Note_on_c, 0, 59, 67
1, 406848, Note_on_c, 0, 86, 85
1, 406848, Control_c, 0, 64, 66
1, 406863, Control_c, 0, 64, 0
1, 406879, Note_off_c, 0, 59, 61
1, 406897, Note_on_c, 0, 64, 65
1, 406905, Note_on_c, 0, 85, 87
1, 406930, Note_off_c, 0, 86, 63
1, 406937, Note_off_c, 0, 64, 63
1, 406972, Note_on_c, 0, 62, 60
1, 406974, Note_on_c, 0, 83, 76
1, 406987, Note_off_c, 0, 85, 67
1, 407017, Note_off_c, 0, 62, 62
1, 407029, Note_off_c, 0, 83, 65
1, 407035, Note_on_c, 0, 64, 65
1, 407044, Note_on_c, 0, 81, 69
1, 407082, Note_off_c, 0, 64, 61
1, 407094, Note_off_c, 0, 81, 42
1, 407108, Note_on_c, 0, 80, 75
1, 407115, Note_on_c, 0, 62, 59
1, 407129, Note_off_c, 0, 80, 68
1, 407139, Note_off_c, 0, 62, 62
1, 407172, Note_on_c, 0, 64, 54
1, 407215, Note_off_c, 0, 64, 63
1, 407226, Control_c, 0, 64, 58
1, 407239, Note_on_c, 0, 56, 71
1, 407240, Control_c, 0, 64, 71
1, 407246, Note_on_c, 0, 83, 85
1, 407255, Control_c, 0, 64, 53
1, 407270, Control_c, 0, 64, 0
1, 407276, Note_off_c, 0, 56, 63
1, 407305, Note_on_c, 0, 81, 79
1, 407308, Note_on_c, 0, 64, 61
1, 407308, Note_off_c, 0, 83, 64
1, 407358, Note_off_c, 0, 64, 58
1, 407364, Note_on_c, 0, 80, 79
1, 407378, Note_on_c, 0, 59, 61
1, 407387, Note_off_c, 0, 81, 62
1, 407413, Note_off_c, 0, 59, 61
1, 407428, Note_on_c, 0, 78, 84
1, 407434, Note_on_c, 0, 64, 58
1, 407445, Note_off_c, 0, 80, 64
1, 407476, Note_off_c, 0, 78, 66
1, 407490, Note_off_c, 0, 64, 59
1, 407495, Note_on_c, 0, 76, 77
1, 407525, Note_on_c, 0, 59, 46
1, 407538, Note_off_c, 0, 76, 57
1, 407550, Note_on_c, 0, 74, 78
1, 407553, Note_off_c, 0, 59, 53
1, 407558, Note_on_c, 0, 64, 51
1, 407600, Note_off_c, 0, 64, 63
1, 407601, Note_off_c, 0, 74, 67
1, 407603, Note_on_c, 0, 73, 90
1, 407612, Control_c, 0, 67, 70
1, 407623, Note_on_c, 0, 57, 60
1, 407627, Control_c, 0, 67, 127
1, 407627, Note_off_c, 0, 73, 67
1, 407652, Note_off_c, 0, 57, 62
1, 407681, Note_on_c, 0, 64, 64
1, 407741, Note_off_c, 0, 64, 61
1, 407758, Note_on_c, 0, 76, 65
1, 407762, Note_on_c, 0, 61, 48
1, 407787, Note_off_c, 0, 76, 65
1, 407788, Note_off_c, 0, 61, 57
1, 407821, Note_on_c, 0, 64, 44
1, 407854, Note_off_c, 0, 64, 58
1, 407882, Note_on_c, 0, 61, 47
1, 407893, Note_on_c, 0, 81, 58
1, 407911, Note_off_c, 0, 81, 62
1, 407913, Note_off_c, 0, 61, 53
1, 407938, Note_on_c, 0, 64, 58
1, 407974, Note_off_c, 0, 64, 64
1, 408014, Note_on_c, 0, 57, 47
1, 408017, Note_on_c, 0, 85, 49
1, 408038, Note_off_c, 0, 85, 62
1, 408052, Note_off_c, 0, 57, 62
1, 408072, Note_on_c, 0, 64, 45
1, 408117, Note_off_c, 0, 64, 63
1, 408131, Note_on_c, 0, 88, 64
1, 408143, Note_on_c, 0, 61, 48
1, 408153, Note_off_c, 0, 88, 66
1, 408176, Note_off_c, 0, 61, 62
1, 408210, Note_on_c, 0, 64, 48
1, 408250, Note_off_c, 0, 64, 64
1, 408268, Note_on_c, 0, 61, 60
1, 408271, Control_c, 0, 67, 124
1, 408286, Control_c, 0, 67, 89
1, 408301, Control_c, 0, 67, 37
1, 408312, Note_off_c, 0, 61, 61
1, 408316, Control_c, 0, 67, 0
1, 408333, Note_on_c, 0, 64, 72
1, 408390, Note_off_c, 0, 64, 57
1, 408411, Note_on_c, 0, 59, 77
1, 408411, Note_on_c, 0, 86, 96
1, 408465, Note_off_c, 0, 59, 57
1, 408469, Note_on_c, 0, 85, 87
1, 408483, Note_on_c, 0, 64, 63
1, 408505, Note_off_c, 0, 86, 63
1, 408534, Note_off_c, 0, 64, 62
1, 408543, Note_on_c, 0, 62, 69
1, 408547, Note_on_c, 0, 83, 79
1, 408551, Note_off_c, 0, 85, 66
1, 408587, Note_off_c, 0, 62, 58
1, 408596, Note_off_c, 0, 83, 65
1, 408604, Note_on_c, 0, 64, 66
1, 408609, Note_on_c, 0, 81, 68
1, 408663, Note_off_c, 0, 64, 64
1, 408667, Note_off_c, 0, 81, 57
1, 408675, Note_on_c, 0, 80, 75
1, 408684, Note_on_c, 0, 62, 58
1, 408694, Note_off_c, 0, 80, 71
1, 408708, Note_off_c, 0, 62, 63
1, 408734, Note_on_c, 0, 64, 60
1, 408793, Note_off_c, 0, 64, 63
1, 408820, Note_on_c, 0, 56, 75
1, 408831, Note_on_c, 0, 83, 87
1, 408863, Note_off_c, 0, 56, 60
1, 408885, Note_on_c, 0, 64, 59
1, 408892, Note_on_c, 0, 81, 82
1, 408896, Note_off_c, 0, 83, 64
1, 408933, Note_off_c, 0, 64, 61
1, 408955, Note_on_c, 0, 59, 59
1, 408959, Note_on_c, 0, 80, 82
1, 408975, Note_off_c, 0, 81, 62
1, 408993, Note_off_c, 0, 59, 60
1, 409012, Note_on_c, 0, 64, 58
1, 409022, Note_on_c, 0, 78, 85
1, 409043, Note_off_c, 0, 80, 65
1, 409073, Note_off_c, 0, 64, 63
1, 409074, Note_off_c, 0, 78, 66
1, 409085, Note_on_c, 0, 76, 80
1, 409100, Note_on_c, 0, 59, 56
1, 409124, Note_off_c, 0, 59, 59
1, 409137, Note_off_c, 0, 76, 47
1, 409141, Note_on_c, 0, 74, 86
1, 409144, Note_on_c, 0, 64, 57
1, 409191, Note_off_c, 0, 64, 60
1, 409194, Note_off_c, 0, 74, 67
1, 409198, Note_on_c, 0, 73, 86
1, 409213, Control_c, 0, 67, 48
1, 409214, Note_on_c, 0, 57, 61
1, 409220, Note_off_c, 0, 73, 67
1, 409228, Control_c, 0, 67, 127
1, 409254, Note_off_c, 0, 57, 64
1, 409282, Note_on_c, 0, 64, 62
1, 409329, Note_off_c, 0, 64, 56
1, 409348, Note_on_c, 0, 76, 75
1, 409356, Note_on_c, 0, 61, 64
1, 409380, Note_off_c, 0, 76, 60
1, 409386, Note_off_c, 0, 61, 64
1, 409434, Note_on_c, 0, 64, 44
1, 409463, Note_off_c, 0, 64, 58
1, 409475, Note_on_c, 0, 61, 65
1, 409483, Note_on_c, 0, 81, 77
1, 409513, Note_off_c, 0, 61, 62
1, 409513, Note_off_c, 0, 81, 59
1, 409540, Note_on_c, 0, 64, 59
1, 409577, Note_off_c, 0, 64, 63
1, 409609, Note_on_c, 0, 57, 58
1, 409609, Note_on_c, 0, 85, 77
1, 409642, Note_off_c, 0, 85, 63
1, 409651, Note_off_c, 0, 57, 61
1, 409684, Note_on_c, 0, 64, 61
1, 409725, Note_on_c, 0, 88, 89
1, 409731, Note_off_c, 0, 64, 61
1, 409741, Note_off_c, 0, 88, 74
1, 409753, Note_on_c, 0, 61, 58
1, 409785, Note_off_c, 0, 61, 64
1, 409818, Note_on_c, 0, 64, 58
1, 409854, Note_off_c, 0, 64, 65
1, 409871, Note_on_c, 0, 61, 61
1, 409906, Note_off_c, 0, 61, 64
1, 409942, Note_on_c, 0, 64, 52
1, 409971, Note_off_c, 0, 64, 57
1, 410020, Note_on_c, 0, 62, 60
1, 410043, Note_off_c, 0, 62, 64
1, 410169, Note_on_c, 0, 77, 51
1, 410262, Note_off_c, 0, 77, 38
1, 410289, Note_on_c, 0, 78, 61
1, 410318, Note_off_c, 0, 78, 64
1, 410423, Note_on_c, 0, 69, 64
1, 410425, Note_on_c, 0, 62, 63
1, 410450, Note_off_c, 0, 69, 66
1, 410453, Note_off_c, 0, 62, 65
1, 410552, Note_on_c, 0, 81, 83
1, 410687, Note_on_c, 0, 78, 79
1, 410694, Note_off_c, 0, 81, 62
1, 410749, Note_off_c, 0, 78, 64
1, 410829, Note_on_c, 0, 69, 75
1, 410830, Note_on_c, 0, 61, 76
1, 410865, Note_off_c, 0, 61, 62
1, 410869, Note_off_c, 0, 69, 56
1, 410969, Note_on_c, 0, 75, 70
1, 411089, Note_off_c, 0, 75, 56
1, 411093, Note_on_c, 0, 76, 69
1, 411139, Note_off_c, 0, 76, 61
1, 411227, Note_on_c, 0, 69, 64
1, 411238, Note_on_c, 0, 62, 55
1, 411269, Note_off_c, 0, 69, 57
1, 411270, Note_off_c, 0, 62, 63
1, 411362, Note_on_c, 0, 78, 58
1, 411511, Note_on_c, 0, 74, 58
1, 411551, Note_off_c, 0, 74, 59
1, 411553, Note_off_c, 0, 78, 54
1, 411636, Note_on_c, 0, 69, 58
1, 411644, Note_on_c, 0, 64, 51
1, 411681, Note_off_c, 0, 64, 65
1, 411687, Note_off_c, 0, 69, 55
1, 411765, Note_on_c, 0, 72, 56
1, 411889, Note_off_c, 0, 72, 48
1, 411909, Note_on_c, 0, 73, 50
1, 411967, Note_off_c, 0, 73, 54
1, 412029, Note_on_c, 0, 68, 54
1, 412045, Note_on_c, 0, 64, 44
1, 412066, Note_off_c, 0, 68, 63
1, 412076, Note_off_c, 0, 64, 65
1, 412162, Control_c, 0, 67, 125
1, 412170, Note_on_c, 0, 74, 57
1, 412177, Control_c, 0, 67, 108
1, 412192, Control_c, 0, 67, 86
1, 412207, Control_c, 0, 67, 63
1, 412222, Control_c, 0, 67, 42
1, 412244, Control_c, 0, 67, 24
1, 412260, Control_c, 0, 67, 11
1, 412275, Control_c, 0, 67, 0
1, 412295, Note_off_c, 0, 74, 53
1, 412304, Note_on_c, 0, 71, 47
1, 412328, Note_off_c, 0, 71, 60
1, 412430, Note_on_c, 0, 50, 69
1, 412431, Note_on_c, 0, 57, 66
1, 412438, Control_c, 0, 67, 8
1, 412459, Note_off_c, 0, 57, 66
1, 412462, Note_off_c, 0, 50, 66
1, 412482, Control_c, 0, 67, 0
1, 412559, Note_on_c, 0, 77, 75
1, 412564, Note_on_c, 0, 65, 71
1, 412582, Note_off_c, 0, 77, 66
1, 412588, Note_off_c, 0, 65, 65
1, 412692, Note_on_c, 0, 78, 71
1, 412697, Note_on_c, 0, 66, 65
1, 412716, Note_off_c, 0, 66, 66
1, 412718, Note_off_c, 0, 78, 63
1, 412832, Note_on_c, 0, 50, 63
1, 412835, Note_on_c, 0, 57, 63
1, 412865, Note_off_c, 0, 57, 65
1, 412869, Note_off_c, 0, 50, 67
1, 412955, Note_on_c, 0, 81, 82
1, 412964, Note_on_c, 0, 69, 73
1, 412984, Note_off_c, 0, 81, 62
1, 412993, Note_off_c, 0, 69, 65
1, 413100, Note_on_c, 0, 78, 67
1, 413103, Note_on_c, 0, 66, 71
1, 413126, Note_off_c, 0, 78, 69
1, 413127, Note_off_c, 0, 66, 67
1, 413228, Note_on_c, 0, 49, 77
1, 413230, Note_on_c, 0, 57, 71
1, 413260, Note_off_c, 0, 57, 63
1, 413263, Note_off_c, 0, 49, 62
1, 413357, Note_on_c, 0, 75, 71
1, 413360, Note_on_c, 0, 63, 73
1, 413383, Note_off_c, 0, 63, 68
1, 413389, Note_off_c, 0, 75, 56
1, 413485, Note_on_c, 0, 76, 74
1, 413497, Note_on_c, 0, 64, 58
1, 413510, Note_off_c, 0, 76, 65
1, 413518, Note_off_c, 0, 64, 62
1, 413615, Note_on_c, 0, 50, 72
1, 413615, Note_on_c, 0, 57, 73
1, 413643, Note_off_c, 0, 57, 62
1, 413646, Note_off_c, 0, 50, 65
1, 413754, Note_on_c, 0, 78, 67
1, 413757, Note_on_c, 0, 66, 68
1, 413778, Note_off_c, 0, 78, 69
1, 413783, Note_off_c, 0, 66, 67
1, 413887, Note_on_c, 0, 74, 73
1, 413889, Note_on_c, 0, 62, 66
1, 413907, Note_off_c, 0, 62, 63
1, 413910, Note_off_c, 0, 74, 71
1, 414019, Note_on_c, 0, 57, 70
1, 414024, Note_on_c, 0, 52, 64
1, 414047, Note_off_c, 0, 57, 64
1, 414057, Note_off_c, 0, 52, 63
1, 414142, Note_on_c, 0, 72, 75
1, 414144, Note_on_c, 0, 60, 73
1, 414164, Note_off_c, 0, 72, 65
1, 414170, Note_off_c, 0, 60, 69
1, 414268, Note_on_c, 0, 61, 79
1, 414268, Note_on_c, 0, 73, 77
1, 414293, Note_off_c, 0, 61, 64
1, 414304, Note_off_c, 0, 73, 55
1, 414388, Note_on_c, 0, 56, 72
1, 414395, Note_on_c, 0, 52, 64
1, 414418, Note_off_c, 0, 56, 66
1, 414427, Note_off_c, 0, 52, 63
1, 414454, Control_c, 0, 64, 47
1, 414475, Control_c, 0, 64, 0
1, 414528, Note_on_c, 0, 74, 76
1, 414532, Note_on_c, 0, 62, 68
1, 414549, Note_off_c, 0, 74, 75
1, 414558, Note_off_c, 0, 62, 62
1, 414661, Note_on_c, 0, 71, 73
1, 414666, Note_on_c, 0, 59, 66
1, 414683, Note_off_c, 0, 71, 69
1, 414692, Note_off_c, 0, 59, 67
1, 414789, Note_on_c, 0, 45, 62
1, 414794, Note_on_c, 0, 69, 65
1, 414801, Note_on_c, 0, 61, 65
1, 414814, Note_off_c, 0, 45, 59
1, 414817, Control_c, 0, 64, 39
1, 414832, Control_c, 0, 64, 45
1, 414847, Control_c, 0, 64, 49
1, 414854, Note_on_c, 0, 57, 63
1, 414861, Control_c, 0, 64, 58
1, 414876, Control_c, 0, 64, 63
1, 414891, Control_c, 0, 64, 65
1, 414895, Note_off_c, 0, 61, 60
1, 414899, Note_off_c, 0, 57, 57
1, 414905, Control_c, 0, 64, 66
1, 414919, Note_on_c, 0, 56, 67
1, 414919, Note_off_c, 0, 69, 62
1, 414957, Note_off_c, 0, 56, 63
1, 414965, Control_c, 0, 64, 65
1, 414979, Control_c, 0, 64, 65
1, 414994, Control_c, 0, 64, 64
1, 414998, Note_on_c, 0, 57, 66
1, 415009, Control_c, 0, 64, 64
1, 415024, Control_c, 0, 64, 63
1, 415031, Note_off_c, 0, 57, 64
1, 415039, Control_c, 0, 64, 61
1, 415050, Note_on_c, 0, 56, 73
1, 415053, Control_c, 0, 64, 53
1, 415068, Control_c, 0, 64, 31
1, 415074, Note_off_c, 0, 56, 70
1, 415083, Control_c, 0, 64, 0
1, 415115, Note_on_c, 0, 57, 63
1, 415146, Note_off_c, 0, 57, 65
1, 415193, Note_on_c, 0, 42, 70
1, 415202, Note_on_c, 0, 81, 84
1, 415205, Note_on_c, 0, 73, 80
1, 415244, Note_off_c, 0, 42, 62
1, 415253, Control_c, 0, 64, 37
1, 415267, Note_on_c, 0, 54, 76
1, 415268, Control_c, 0, 64, 52
1, 415283, Control_c, 0, 64, 60
1, 415297, Control_c, 0, 64, 63
1, 415313, Control_c, 0, 64, 66
1, 415323, Note_off_c, 0, 54, 61
1, 415328, Control_c, 0, 64, 68
1, 415335, Note_on_c, 0, 53, 73
1, 415343, Control_c, 0, 64, 71
1, 415358, Control_c, 0, 64, 73
1, 415365, Note_off_c, 0, 73, 61
1, 415372, Control_c, 0, 64, 75
1, 415387, Control_c, 0, 64, 76
1, 415393, Note_off_c, 0, 53, 64
1, 415402, Note_on_c, 0, 54, 75
1, 415402, Control_c, 0, 64, 77
1, 415412, Note_off_c, 0, 81, 61
1, 415417, Control_c, 0, 64, 78
1, 415431, Control_c, 0, 64, 79
1, 415448, Control_c, 0, 64, 80
1, 415458, Note_off_c, 0, 54, 63
1, 415470, Note_on_c, 0, 53, 72
1, 415508, Note_off_c, 0, 53, 61
1, 415530, Note_on_c, 0, 54, 73
1, 415536, Control_c, 0, 64, 81
1, 415566, Control_c, 0, 64, 81
1, 415573, Note_off_c, 0, 54, 62
1, 415581, Control_c, 0, 64, 82
1, 415625, Control_c, 0, 64, 79
1, 415634, Note_on_c, 0, 83, 86
1, 415640, Control_c, 0, 64, 73
1, 415646, Note_on_c, 0, 74, 75
1, 415646, Note_on_c, 0, 38, 75
1, 415655, Control_c, 0, 64, 65
1, 415670, Control_c, 0, 64, 24
1, 415678, Note_off_c, 0, 38, 66
1, 415685, Control_c, 0, 64, 0
1, 415712, Note_on_c, 0, 50, 71
1, 415714, Control_c, 0, 64, 47
1, 415729, Control_c, 0, 64, 61
1, 415744, Control_c, 0, 64, 65
1, 415759, Control_c, 0, 64, 67
1, 415774, Note_off_c, 0, 50, 65
1, 415774, Control_c, 0, 64, 71
1, 415775, Note_on_c, 0, 49, 74
1, 415789, Control_c, 0, 64, 74
1, 415803, Control_c, 0, 64, 78
1, 415818, Control_c, 0, 64, 81
1, 415833, Control_c, 0, 64, 82
1, 415835, Note_off_c, 0, 49, 63
1, 415840, Note_on_c, 0, 50, 73
1, 415842, Note_off_c, 0, 74, 63
1, 415846, Note_off_c, 0, 83, 64
1, 415847, Control_c, 0, 64, 82
1, 415900, Note_off_c, 0, 50, 65
1, 415908, Note_on_c, 0, 49, 67
1, 415911, Note_on_c, 0, 86, 78
1, 415918, Note_on_c, 0, 78, 79
1, 415936, Control_c, 0, 64, 83
1, 415941, Note_off_c, 0, 86, 63
1, 415947, Note_off_c, 0, 78, 63
1, 415949, Note_off_c, 0, 49, 61
1, 415951, Control_c, 0, 64, 85
1, 415961, Note_on_c, 0, 50, 64
1, 415966, Control_c, 0, 64, 88
1, 415989, Control_c, 0, 64, 91
1, 416008, Note_off_c, 0, 50, 64
1, 416018, Control_c, 0, 64, 87
1, 416033, Control_c, 0, 64, 79
1, 416045, Note_on_c, 0, 81, 90
1, 416048, Control_c, 0, 64, 68
1, 416048, Note_on_c, 0, 40, 82
1, 416048, Note_on_c, 0, 73, 93
1, 416062, Control_c, 0, 64, 58
1, 416077, Control_c, 0, 64, 59
1, 416079, Note_off_c, 0, 40, 67
1, 416092, Control_c, 0, 64, 65
1, 416107, Control_c, 0, 64, 69
1, 416114, Note_on_c, 0, 52, 69
1, 416122, Control_c, 0, 64, 72
1, 416129, Note_off_c, 0, 73, 61
1, 416136, Control_c, 0, 64, 74
1, 416151, Control_c, 0, 64, 76
1, 416166, Note_off_c, 0, 52, 60
1, 416166, Control_c, 0, 64, 77
1, 416169, Note_on_c, 0, 51, 69
1, 416181, Control_c, 0, 64, 78
1, 416195, Control_c, 0, 64, 79
1, 416209, Note_off_c, 0, 81, 60
1, 416226, Note_off_c, 0, 51, 65
1, 416240, Control_c, 0, 64, 78
1, 416241, Note_on_c, 0, 52, 71
1, 416256, Control_c, 0, 64, 75
1, 416271, Control_c, 0, 64, 69
1, 416286, Control_c, 0, 64, 50
1, 416287, Note_on_c, 0, 80, 74
1, 416295, Note_off_c, 0, 52, 61
1, 416300, Control_c, 0, 64, 0
1, 416311, Note_on_c, 0, 51, 65
1, 416329, Note_off_c, 0, 80, 61
1, 416329, Note_on_c, 0, 81, 78
1, 416343, Note_off_c, 0, 51, 67
1, 416367, Note_on_c, 0, 52, 60
1, 416371, Note_off_c, 0, 81, 62
1, 416379, Note_on_c, 0, 80, 62
1, 416397, Note_off_c, 0, 52, 64
1, 416415, Note_on_c, 0, 81, 83
1, 416430, Note_on_c, 0, 45, 79
1, 416439, Note_off_c, 0, 80, 53
1, 416446, Note_off_c, 0, 81, 68
1, 416448, Control_c, 0, 64, 63
1, 416457, Note_off_c, 0, 45, 68
1, 416463, Control_c, 0, 64, 127
1, 416489, Note_on_c, 0, 57, 79
1, 416543, Note_off_c, 0, 57, 61
1, 416543, Note_on_c, 0, 56, 81
1, 416591, Note_off_c, 0, 56, 64
1, 416612, Note_on_c, 0, 57, 71
1, 416652, Note_off_c, 0, 57, 60
1, 416666, Note_on_c, 0, 56, 72
1, 416688, Note_off_c, 0, 56, 71
1, 416737, Control_c, 0, 64, 106
1, 416740, Note_on_c, 0, 57, 60
1, 416752, Control_c, 0, 64, 79
1, 416758, Note_off_c, 0, 57, 66
1, 416767, Control_c, 0, 64, 0
1, 416810, Note_on_c, 0, 42, 76
1, 416813, Note_on_c, 0, 81, 73
1, 416820, Note_on_c, 0, 73, 66
1, 416838, Note_off_c, 0, 81, 64
1, 416840, Note_off_c, 0, 42, 65
1, 416841, Note_off_c, 0, 73, 66
1, 416878, Note_on_c, 0, 54, 60
1, 416937, Note_on_c, 0, 53, 70
1, 416940, Note_on_c, 0, 81, 82
1, 416940, Note_on_c, 0, 73, 76
1, 416944, Note_off_c, 0, 54, 63
1, 416970, Note_off_c, 0, 73, 65
1, 416974, Note_off_c, 0, 53, 67
1, 416976, Note_off_c, 0, 81, 64
1, 416989, Note_on_c, 0, 54, 68
1, 417040, Note_off_c, 0, 54, 62
1, 417063, Note_on_c, 0, 53, 62
1, 417068, Note_on_c, 0, 73, 88
1, 417068, Note_on_c, 0, 81, 90
1, 417092, Note_off_c, 0, 53, 66
1, 417101, Note_off_c, 0, 73, 63
1, 417104, Note_on_c, 0, 54, 68
1, 417118, Note_off_c, 0, 81, 62
1, 417136, Note_off_c, 0, 54, 68
1, 417195, Note_on_c, 0, 83, 97
1, 417196, Note_on_c, 0, 38, 84
1, 417197, Control_c, 0, 64, 71
1, 417200, Note_on_c, 0, 74, 92
1, 417212, Control_c, 0, 64, 106
1, 417223, Note_off_c, 0, 38, 68
1, 417227, Control_c, 0, 64, 127
1, 417259, Note_on_c, 0, 50, 70
1, 417310, Note_on_c, 0, 49, 78
1, 417318, Note_off_c, 0, 50, 64
1, 417365, Note_off_c, 0, 49, 64
1, 417375, Note_off_c, 0, 83, 58
1, 417377, Note_on_c, 0, 50, 65
1, 417382, Note_off_c, 0, 74, 54
1, 417441, Note_off_c, 0, 50, 65
1, 417455, Note_on_c, 0, 49, 79
1, 417476, Note_on_c, 0, 86, 72
1, 417483, Note_on_c, 0, 78, 80
1, 417493, Note_off_c, 0, 49, 67
1, 417502, Note_off_c, 0, 86, 64
1, 417526, Note_on_c, 0, 50, 69
1, 417526, Note_off_c, 0, 78, 62
1, 417560, Control_c, 0, 64, 94
1, 417562, Note_off_c, 0, 50, 66
1, 417575, Control_c, 0, 64, 75
1, 417589, Control_c, 0, 64, 61
1, 417601, Note_on_c, 0, 40, 78
1, 417603, Note_on_c, 0, 81, 92
1, 417604, Note_on_c, 0, 73, 92
1, 417604, Control_c, 0, 64, 50
1, 417619, Control_c, 0, 64, 66
1, 417626, Note_off_c, 0, 40, 66
1, 417634, Control_c, 0, 64, 72
1, 417649, Control_c, 0, 64, 79
1, 417663, Note_on_c, 0, 52, 72
1, 417664, Control_c, 0, 64, 89
1, 417679, Control_c, 0, 64, 97
1, 417685, Note_off_c, 0, 73, 61
1, 417694, Control_c, 0, 64, 102
1, 417708, Control_c, 0, 64, 104
1, 417714, Note_on_c, 0, 51, 78
1, 417718, Note_off_c, 0, 52, 62
1, 417723, Control_c, 0, 64, 107
1, 417738, Control_c, 0, 64, 111
1, 417753, Control_c, 0, 64, 120
1, 417762, Note_off_c, 0, 81, 59
1, 417768, Control_c, 0, 64, 127
1, 417770, Note_off_c, 0, 51, 63
1, 417790, Note_on_c, 0, 52, 71
1, 417843, Note_on_c, 0, 80, 75
1, 417843, Note_off_c, 0, 52, 60
1, 417867, Note_on_c, 0, 51, 49
1, 417875, Note_off_c, 0, 80, 59
1, 417882, Note_on_c, 0, 81, 72
1, 417901, Note_off_c, 0, 51, 56
1, 417911, Note_on_c, 0, 52, 61
1, 417918, Note_off_c, 0, 81, 59
1, 417926, Note_on_c, 0, 80, 65
1, 417931, Control_c, 0, 64, 108
1, 417946, Control_c, 0, 64, 85
1, 417951, Note_off_c, 0, 52, 60
1, 417961, Control_c, 0, 64, 54
1, 417970, Note_on_c, 0, 81, 79
1, 417975, Note_off_c, 0, 80, 66
1, 417976, Control_c, 0, 64, 0
1, 417992, Note_on_c, 0, 45, 72
1, 418004, Note_off_c, 0, 81, 65
1, 418020, Control_c, 0, 67, 12
1, 418035, Control_c, 0, 67, 29
1, 418050, Control_c, 0, 67, 29
1, 418064, Control_c, 0, 67, 32
1, 418123, Note_on_c, 0, 73, 76
1, 418123, Control_c, 0, 67, 30
1, 418138, Control_c, 0, 67, 30
1, 418162, Note_off_c, 0, 45, 62
1, 418183, Control_c, 0, 67, 30
1, 418220, Control_c, 0, 67, 29
1, 418235, Control_c, 0, 67, 28
1, 418249, Control_c, 0, 67, 27
1, 418257, Note_on_c, 0, 74, 81
1, 418263, Note_off_c, 0, 73, 63
1, 418264, Control_c, 0, 67, 24
1, 418279, Control_c, 0, 67, 21
1, 418294, Control_c, 0, 67, 16
1, 418309, Control_c, 0, 67, 0
1, 418394, Note_on_c, 0, 76, 84
1, 418438, Note_off_c, 0, 74, 62
1, 418520, Note_on_c, 0, 78, 83
1, 418565, Note_off_c, 0, 76, 60
1, 418657, Note_on_c, 0, 59, 54
1, 418657, Note_on_c, 0, 80, 78
1, 418659, Note_on_c, 0, 62, 45
1, 418663, Note_on_c, 0, 52, 56
1, 418683, Note_off_c, 0, 78, 62
1, 418686, Note_off_c, 0, 62, 58
1, 418758, Note_off_c, 0, 59, 48
1, 418775, Note_off_c, 0, 52, 53
1, 418784, Note_off_c, 0, 80, 63
1, 418788, Note_on_c, 0, 81, 73
1, 418809, Note_on_c, 0, 61, 51
1, 418809, Note_on_c, 0, 57, 45
1, 418815, Note_off_c, 0, 81, 61
1, 418931, Note_on_c, 0, 73, 68
1, 418999, Control_c, 0, 67, 9
1, 419014, Control_c, 0, 67, 27
1, 419028, Control_c, 0, 67, 66
1, 419043, Control_c, 0, 67, 125
1, 419058, Control_c, 0, 67, 127
1, 419061, Note_off_c, 0, 73, 63
1, 419064, Note_on_c, 0, 74, 77
1, 419089, Note_off_c, 0, 61, 43
1, 419113, Note_off_c, 0, 57, 43
1, 419199, Note_on_c, 0, 76, 81
1, 419245, Note_off_c, 0, 74, 60
1, 419331, Note_on_c, 0, 78, 73
1, 419380, Note_off_c, 0, 76, 59
1, 419458, Note_on_c, 0, 52, 63
1, 419459, Note_on_c, 0, 62, 52
1, 419463, Note_on_c, 0, 80, 67
1, 419467, Note_on_c, 0, 59, 49
1, 419478, Note_off_c, 0, 78, 61
1, 419485, Note_off_c, 0, 62, 60
1, 419509, Note_off_c, 0, 59, 57
1, 419555, Note_off_c, 0, 52, 57
1, 419597, Note_on_c, 0, 57, 56
1, 419598, Note_off_c, 0, 80, 60
1, 419599, Note_on_c, 0, 61, 60
1, 419604, Note_on_c, 0, 81, 69
1, 419621, Note_off_c, 0, 57, 60
1, 419623, Note_off_c, 0, 61, 64
1, 419742, Note_on_c, 0, 49, 69
1, 419795, Note_off_c, 0, 81, 58
1, 419863, Note_on_c, 0, 50, 69
1, 419918, Note_off_c, 0, 49, 51
1, 419993, Note_off_c, 0, 50, 65
1, 420006, Note_on_c, 0, 52, 70
1, 420120, Note_off_c, 0, 52, 56
1, 420123, Note_on_c, 0, 54, 64
1, 420256, Note_off_c, 0, 54, 59
1, 420262, Note_on_c, 0, 71, 58
1, 420264, Note_on_c, 0, 56, 50
1, 420268, Note_on_c, 0, 74, 57
1, 420281, Note_on_c, 0, 64, 44
1, 420350, Note_off_c, 0, 56, 60
1, 420382, Note_off_c, 0, 71, 62
1, 420397, Note_on_c, 0, 57, 52
1, 420400, Note_on_c, 0, 69, 55
1, 420406, Note_on_c, 0, 73, 63
1, 420421, Note_off_c, 0, 74, 41
1, 420424, Note_off_c, 0, 57, 61
1, 420536, Note_on_c, 0, 49, 66
1, 420632, Note_off_c, 0, 64, 34
1, 420662, Note_on_c, 0, 50, 69
1, 420685, Note_off_c, 0, 49, 49
1, 420688, Note_off_c, 0, 69, 33
1, 420767, Note_off_c, 0, 50, 64
1, 420791, Note_on_c, 0, 52, 68
1, 420848, Note_off_c, 0, 73, 37
1, 420888, Note_off_c, 0, 52, 39
1, 420907, Note_on_c, 0, 54, 62
1, 421042, Note_off_c, 0, 54, 60
1, 421053, Note_on_c, 0, 71, 48
1, 421056, Note_on_c, 0, 74, 52
1, 421063, Note_on_c, 0, 56, 45
1, 421064, Note_on_c, 0, 64, 29
1, 421075, Note_off_c, 0, 71, 63
1, 421079, Note_off_c, 0, 74, 61
1, 421098, Note_off_c, 0, 64, 53
1, 421149, Control_c, 0, 67, 122
1, 421158, Note_off_c, 0, 56, 60
1, 421164, Control_c, 0, 67, 109
1, 421178, Control_c, 0, 67, 92
1, 421182, Note_on_c, 0, 57, 57
1, 421193, Control_c, 0, 67, 72
1, 421215, Control_c, 0, 67, 52
1, 421220, Note_off_c, 0, 57, 65
1, 421230, Control_c, 0, 67, 31
1, 421245, Control_c, 0, 67, 18
1, 421260, Control_c, 0, 67, 8
1, 421274, Control_c, 0, 67, 0
1, 421320, Note_on_c, 0, 72, 51
1, 421422, Note_off_c, 0, 72, 37
1, 421459, Note_on_c, 0, 73, 58
1, 421482, Note_off_c, 0, 73, 59
1, 421573, Note_on_c, 0, 59, 58
1, 421576, Note_on_c, 0, 57, 53
1, 421601, Note_off_c, 0, 59, 64
1, 421605, Note_off_c, 0, 57, 63
1, 421700, Note_on_c, 0, 73, 71
1, 421834, Note_on_c, 0, 74, 72
1, 421843, Note_off_c, 0, 73, 57
1, 421879, Note_off_c, 0, 74, 65
1, 421949, Note_on_c, 0, 61, 79
1, 421951, Note_on_c, 0, 57, 72
1, 421986, Note_off_c, 0, 61, 64
1, 421990, Note_off_c, 0, 57, 65
1, 422088, Note_on_c, 0, 75, 82
1, 422212, Note_on_c, 0, 76, 86
1, 422238, Note_off_c, 0, 75, 61
1, 422277, Note_off_c, 0, 76, 63
1, 422338, Note_on_c, 0, 62, 92
1, 422342, Note_on_c, 0, 57, 78
1, 422371, Note_off_c, 0, 57, 64
1, 422376, Note_off_c, 0, 62, 60
1, 422472, Note_on_c, 0, 77, 90
1, 422597, Note_on_c, 0, 78, 84
1, 422620, Note_off_c, 0, 77, 64
1, 422677, Note_off_c, 0, 78, 62
1, 422740, Note_on_c, 0, 64, 88
1, 422744, Note_on_c, 0, 57, 78
1, 422839, Note_off_c, 0, 57, 62
1, 422844, Note_off_c, 0, 64, 64
1, 422864, Note_on_c, 0, 78, 87
1, 423008, Note_on_c, 0, 79, 78
1, 423022, Note_off_c, 0, 78, 61
1, 423130, Note_off_c, 0, 79, 61
1, 423817, Control_c, 0, 67, 17
1, 423831, Control_c, 0, 67, 51
1, 423846, Control_c, 0, 67, 87
1, 423861, Control_c, 0, 67, 118
1, 423876, Control_c, 0, 67, 127
1, 424389, Note_on_c, 0, 69, 39
1, 424443, Note_on_c, 0, 81, 53
1, 424451, Note_off_c, 0, 69, 54
1, 424724, Note_on_c, 0, 78, 51
1, 424753, Note_off_c, 0, 81, 48
1, 424851, Note_off_c, 0, 78, 53
1, 424857, Note_on_c, 0, 76, 57
1, 424862, Note_on_c, 0, 66, 43
1, 424873, Note_on_c, 0, 74, 63
1, 424876, Note_on_c, 0, 62, 31
1, 424894, Note_off_c, 0, 76, 60
1, 424903, Note_off_c, 0, 74, 64
1, 424908, Note_off_c, 0, 66, 54
1, 425006, Note_on_c, 0, 73, 70
1, 425065, Note_off_c, 0, 73, 61
1, 425136, Note_on_c, 0, 74, 71
1, 425185, Note_off_c, 0, 74, 64
1, 425227, Note_off_c, 0, 62, 42
1, 425250, Note_on_c, 0, 76, 73
1, 425254, Note_on_c, 0, 68, 52
1, 425259, Note_on_c, 0, 59, 49
1, 425274, Note_on_c, 0, 74, 73
1, 425277, Note_off_c, 0, 76, 64
1, 425316, Note_off_c, 0, 74, 62
1, 425325, Note_off_c, 0, 68, 39
1, 425340, Note_off_c, 0, 59, 0
1, 425378, Poly_aftertouch_c, 0, 59, 127
1, 425382, Note_on_c, 0, 73, 77
1, 425430, Note_off_c, 0, 73, 62
1, 425528, Note_on_c, 0, 74, 70
1, 425558, Note_off_c, 0, 74, 62
1, 425633, Poly_aftertouch_c, 0, 59, 0
1, 425709, Note_on_c, 0, 74, 42
1, 425713, Note_on_c, 0, 78, 55
1, 425727, Note_on_c, 0, 69, 36
1, 425743, Note_on_c, 0, 57, 29
1, 425898, Note_off_c, 0, 69, 58
1, 425930, Note_off_c, 0, 57, 46
1, 425994, Note_off_c, 0, 78, 36
1, 425998, Note_off_c, 0, 74, 37
1, 426014, Note_on_c, 0, 73, 53
1, 426016, Note_on_c, 0, 76, 46
1, 426037, Note_off_c, 0, 73, 63
1, 426044, Note_off_c, 0, 76, 54
1, 426156, Note_on_c, 0, 67, 53
1, 426174, Note_on_c, 0, 79, 69
1, 426188, Note_off_c, 0, 67, 64
1, 426458, Note_on_c, 0, 76, 61
1, 426499, Note_off_c, 0, 79, 57
1, 426574, Note_on_c, 0, 74, 61
1, 426586, Note_off_c, 0, 76, 53
1, 426590, Note_on_c, 0, 57, 46
1, 426593, Note_on_c, 0, 64, 52
1, 426594, Note_on_c, 0, 73, 73
1, 426606, Note_off_c, 0, 74, 65
1, 426621, Note_off_c, 0, 73, 64
1, 426631, Note_off_c, 0, 64, 65
1, 426724, Note_on_c, 0, 71, 64
1, 426768, Note_off_c, 0, 71, 62
1, 426851, Note_on_c, 0, 73, 73
1, 426891, Note_off_c, 0, 73, 59
1, 426982, Note_on_c, 0, 69, 67
1, 426989, Note_on_c, 0, 61, 47
1, 426994, Note_on_c, 0, 64, 44
1, 427006, Note_off_c, 0, 57, 45
1, 427023, Note_off_c, 0, 69, 60
1, 427119, Note_on_c, 0, 76, 63
1, 427163, Note_off_c, 0, 76, 62
1, 427248, Note_on_c, 0, 81, 66
1, 427312, Note_off_c, 0, 81, 53
1, 427330, Note_off_c, 0, 61, 55
1, 427333, Note_off_c, 0, 64, 37
1, 427417, Note_on_c, 0, 69, 41
1, 427421, Note_on_c, 0, 79, 57
1, 427429, Note_on_c, 0, 76, 48
1, 427437, Note_on_c, 0, 62, 29
1, 427520, Note_off_c, 0, 69, 59
1, 427573, Note_off_c, 0, 62, 55
1, 427642, Note_off_c, 0, 76, 48
1, 427709, Control_c, 0, 67, 122
1, 427719, Note_on_c, 0, 78, 50
1, 427722, Note_on_c, 0, 74, 47
1, 427724, Control_c, 0, 67, 100
1, 427739, Control_c, 0, 67, 75
1, 427742, Note_off_c, 0, 79, 55
1, 427754, Note_off_c, 0, 78, 66
1, 427754, Control_c, 0, 67, 48
1, 427755, Note_off_c, 0, 74, 61
1, 427769, Control_c, 0, 67, 18
1, 427783, Control_c, 0, 67, 0
1, 427837, Note_on_c, 0, 74, 72
1, 427849, Note_on_c, 0, 78, 85
1, 427858, Note_on_c, 0, 50, 72
1, 427901, Note_off_c, 0, 50, 63
1, 427923, Note_off_c, 0, 74, 56
1, 427992, Note_on_c, 0, 62, 68
1, 428023, Note_off_c, 0, 62, 63
1, 428116, Note_on_c, 0, 79, 76
1, 428118, Note_off_c, 0, 78, 61
1, 428123, Note_on_c, 0, 64, 64
1, 428153, Note_off_c, 0, 64, 66
1, 428181, Note_off_c, 0, 79, 60
1, 428256, Note_on_c, 0, 66, 68
1, 428260, Note_on_c, 0, 83, 75
1, 428325, Note_on_c, 0, 81, 72
1, 428326, Note_off_c, 0, 83, 64
1, 428386, Note_on_c, 0, 79, 76
1, 428404, Note_off_c, 0, 81, 61
1, 428437, Note_off_c, 0, 66, 63
1, 428453, Note_on_c, 0, 78, 73
1, 428457, Note_off_c, 0, 79, 62
1, 428497, Note_off_c, 0, 78, 65
1, 428520, Note_on_c, 0, 76, 68
1, 428564, Note_off_c, 0, 76, 62
1, 428566, Note_on_c, 0, 74, 68
1, 428584, Note_off_c, 0, 74, 68
1, 428649, Note_on_c, 0, 74, 73
1, 428660, Note_on_c, 0, 50, 79
1, 428666, Note_on_c, 0, 78, 82
1, 428711, Note_off_c, 0, 50, 63
1, 428734, Note_off_c, 0, 74, 57
1, 428804, Note_on_c, 0, 62, 68
1, 428835, Note_off_c, 0, 62, 63
1, 428917, Note_off_c, 0, 78, 49
1, 428927, Note_on_c, 0, 64, 78
1, 428930, Note_on_c, 0, 79, 80
1, 428965, Note_off_c, 0, 64, 63
1, 428995, Note_off_c, 0, 79, 61
1, 429063, Note_on_c, 0, 83, 85
1, 429063, Note_on_c, 0, 66, 79
1, 429124, Note_on_c, 0, 81, 81
1, 429135, Note_off_c, 0, 83, 62
1, 429191, Note_on_c, 0, 79, 80
1, 429193, Note_off_c, 0, 66, 63
1, 429214, Note_off_c, 0, 81, 62
1, 429249, Note_on_c, 0, 78, 81
1, 429256, Note_off_c, 0, 79, 63
1, 429295, Note_off_c, 0, 78, 66
1, 429325, Note_on_c, 0, 76, 62
1, 429367, Note_off_c, 0, 76, 63
1, 429370, Note_on_c, 0, 74, 70
1, 429388, Note_off_c, 0, 74, 65
1, 429452, Note_on_c, 0, 74, 76
1, 429470, Note_on_c, 0, 83, 82
1, 429483, Note_on_c, 0, 55, 66
1, 429504, Note_off_c, 0, 74, 61
1, 429528, Note_off_c, 0, 55, 62
1, 429606, Note_on_c, 0, 67, 67
1, 429647, Note_off_c, 0, 67, 58
1, 429721, Note_off_c, 0, 83, 62
1, 429728, Note_on_c, 0, 85, 78
1, 429731, Note_on_c, 0, 64, 66
1, 429750, Note_off_c, 0, 64, 67
1, 429802, Note_off_c, 0, 85, 59
1, 429874, Note_on_c, 0, 66, 71
1, 429883, Note_on_c, 0, 86, 72
1, 429885, Note_on_c, 0, 54, 61
1, 429946, Note_on_c, 0, 85, 73
1, 429957, Note_off_c, 0, 86, 59
1, 429963, Note_off_c, 0, 66, 63
1, 429969, Note_off_c, 0, 54, 64
1, 430011, Note_on_c, 0, 83, 79
1, 430054, Note_off_c, 0, 85, 63
1, 430084, Note_on_c, 0, 81, 75
1, 430090, Note_off_c, 0, 83, 66
1, 430130, Note_off_c, 0, 81, 62
1, 430144, Note_on_c, 0, 79, 72
1, 430202, Note_off_c, 0, 79, 56
1, 430211, Note_on_c, 0, 78, 77
1, 430275, Note_off_c, 0, 78, 62
1, 430278, Note_on_c, 0, 67, 64
1, 430279, Note_on_c, 0, 83, 79
1, 430284, Note_on_c, 0, 55, 61
1, 430289, Control_c, 0, 64, 38
1, 430303, Control_c, 0, 64, 65
1, 430318, Control_c, 0, 64, 67
1, 430333, Control_c, 0, 64, 66
1, 430348, Control_c, 0, 64, 45
1, 430353, Note_on_c, 0, 81, 79
1, 430357, Note_off_c, 0, 67, 63
1, 430360, Note_off_c, 0, 55, 63
1, 430361, Note_off_c, 0, 83, 63
1, 430363, Control_c, 0, 64, 0
1, 430416, Note_on_c, 0, 79, 80
1, 430441, Note_off_c, 0, 81, 61
1, 430476, Note_on_c, 0, 78, 80
1, 430488, Note_off_c, 0, 79, 62
1, 430523, Note_off_c, 0, 78, 65
1, 430536, Note_on_c, 0, 76, 68
1, 430587, Note_on_c, 0, 74, 70
1, 430602, Note_off_c, 0, 76, 49
1, 430606, Note_off_c, 0, 74, 68
1, 430694, Note_on_c, 0, 81, 70
1, 430697, Note_on_c, 0, 73, 70
1, 430697, Note_on_c, 0, 76, 72
1, 430709, Note_on_c, 0, 69, 55
1, 430712, Note_on_c, 0, 57, 50
1, 430720, Control_c, 0, 64, 79
1, 430721, Note_off_c, 0, 81, 64
1, 430723, Note_off_c, 0, 76, 67
1, 430723, Note_off_c, 0, 73, 67
1, 430734, Control_c, 0, 64, 127
1, 430794, Control_c, 0, 67, 41
1, 430808, Control_c, 0, 64, 89
1, 430808, Control_c, 0, 67, 127
1, 430823, Control_c, 0, 64, 28
1, 430838, Control_c, 0, 64, 0
1, 430895, Note_off_c, 0, 69, 58
1, 430953, Note_off_c, 0, 57, 51
1, 431299, Note_on_c, 0, 69, 30
1, 431323, Note_on_c, 0, 81, 51
1, 431341, Note_off_c, 0, 69, 49
1, 431606, Note_on_c, 0, 78, 51
1, 431647, Note_off_c, 0, 81, 38
1, 431731, Note_off_c, 0, 78, 57
1, 431737, Note_on_c, 0, 76, 56
1, 431754, Note_on_c, 0, 66, 38
1, 431764, Note_on_c, 0, 74, 55
1, 431771, Note_on_c, 0, 62, 25
1, 431773, Note_off_c, 0, 76, 60
1, 431799, Note_off_c, 0, 74, 63
1, 431840, Note_off_c, 0, 66, 39
1, 431883, Note_on_c, 0, 73, 69
1, 431941, Note_off_c, 0, 73, 62
1, 432007, Note_on_c, 0, 74, 77
1, 432066, Note_off_c, 0, 74, 65
1, 432087, Note_off_c, 0, 62, 47
1, 432126, Note_on_c, 0, 76, 79
1, 432130, Note_on_c, 0, 59, 49
1, 432136, Note_on_c, 0, 68, 48
1, 432157, Note_on_c, 0, 74, 77
1, 432161, Note_off_c, 0, 76, 60
1, 432199, Note_off_c, 0, 74, 62
1, 432222, Note_off_c, 0, 68, 51
1, 432261, Note_on_c, 0, 73, 79
1, 432318, Note_off_c, 0, 73, 63
1, 432397, Note_on_c, 0, 74, 74
1, 432461, Note_off_c, 0, 74, 58
1, 432501, Note_off_c, 0, 59, 51
1, 432582, Note_on_c, 0, 75, 55
1, 432604, Note_on_c, 0, 69, 39
1, 432617, Note_on_c, 0, 57, 34
1, 432624, Note_on_c, 0, 61, 26
1, 432769, Note_off_c, 0, 69, 42
1, 432843, Note_off_c, 0, 57, 36
1, 432904, Note_on_c, 0, 76, 47
1, 432914, Note_off_c, 0, 75, 38
1, 432949, Note_off_c, 0, 76, 61
1, 433020, Note_off_c, 0, 61, 38
1, 433030, Note_on_c, 0, 67, 38
1, 433077, Note_on_c, 0, 79, 58
1, 433093, Note_off_c, 0, 67, 55
1, 433361, Note_on_c, 0, 76, 59
1, 433405, Note_off_c, 0, 79, 55
1, 433475, Note_on_c, 0, 74, 58
1, 433495, Note_on_c, 0, 57, 36
1, 433502, Note_on_c, 0, 64, 46
1, 433511, Note_on_c, 0, 73, 68
1, 433513, Note_off_c, 0, 76, 40
1, 433539, Note_off_c, 0, 74, 63
1, 433562, Note_off_c, 0, 64, 57
1, 433575, Note_off_c, 0, 73, 62
1, 433633, Note_on_c, 0, 71, 73
1, 433693, Note_off_c, 0, 71, 62
1, 433755, Note_on_c, 0, 73, 82
1, 433809, Note_off_c, 0, 73, 63
1, 433890, Note_on_c, 0, 61, 47
1, 433893, Note_on_c, 0, 69, 72
1, 433895, Note_off_c, 0, 57, 37
1, 433898, Note_on_c, 0, 64, 44
1, 433951, Note_off_c, 0, 69, 58
1, 434027, Note_on_c, 0, 76, 71
1, 434081, Note_off_c, 0, 76, 61
1, 434155, Note_on_c, 0, 81, 70
1, 434204, Note_off_c, 0, 81, 57
1, 434228, Note_off_c, 0, 61, 58
1, 434237, Note_off_c, 0, 64, 38
1, 434317, Note_on_c, 0, 79, 56
1, 434329, Note_on_c, 0, 69, 40
1, 434345, Note_on_c, 0, 76, 53
1, 434348, Note_on_c, 0, 62, 33
1, 434389, Control_c, 0, 64, 36
1, 434403, Control_c, 0, 64, 51
1, 434418, Control_c, 0, 64, 58
1, 434425, Note_off_c, 0, 69, 57
1, 434433, Control_c, 0, 64, 62
1, 434448, Control_c, 0, 64, 63
1, 434463, Control_c, 0, 64, 64
1, 434477, Control_c, 0, 64, 65
1, 434492, Control_c, 0, 64, 65
1, 434508, Note_off_c, 0, 62, 44
1, 434521, Control_c, 0, 64, 66
1, 434545, Note_off_c, 0, 76, 41
1, 434581, Control_c, 0, 67, 124
1, 434596, Control_c, 0, 67, 114
1, 434611, Control_c, 0, 67, 100
1, 434626, Control_c, 0, 67, 82
1, 434641, Control_c, 0, 67, 60
1, 434643, Note_on_c, 0, 74, 53
1, 434646, Note_on_c, 0, 78, 55
1, 434656, Control_c, 0, 67, 38
1, 434661, Note_off_c, 0, 79, 54
1, 434671, Control_c, 0, 67, 18
1, 434682, Note_off_c, 0, 74, 65
1, 434686, Control_c, 0, 67, 0
1, 434707, Note_off_c, 0, 78, 60
1, 434708, Control_c, 0, 64, 65
1, 434723, Control_c, 0, 64, 65
1, 434738, Control_c, 0, 64, 62
1, 434753, Control_c, 0, 64, 38
1, 434766, Note_on_c, 0, 74, 78
1, 434767, Control_c, 0, 64, 0
1, 434772, Note_on_c, 0, 50, 78
1, 434775, Note_on_c, 0, 78, 82
1, 434827, Note_off_c, 0, 50, 65
1, 434866, Note_off_c, 0, 74, 59
1, 434902, Note_on_c, 0, 62, 68
1, 434956, Note_off_c, 0, 62, 60
1, 435032, Note_on_c, 0, 64, 72
1, 435037, Note_on_c, 0, 79, 77
1, 435055, Note_off_c, 0, 78, 60
1, 435073, Note_off_c, 0, 64, 63
1, 435105, Note_off_c, 0, 79, 61
1, 435172, Note_on_c, 0, 66, 74
1, 435176, Note_on_c, 0, 83, 80
1, 435212, Control_c, 0, 64, 32
1, 435226, Control_c, 0, 64, 55
1, 435236, Note_on_c, 0, 81, 75
1, 435241, Control_c, 0, 64, 60
1, 435252, Note_off_c, 0, 83, 63
1, 435256, Control_c, 0, 64, 59
1, 435271, Control_c, 0, 64, 53
1, 435276, Note_off_c, 0, 66, 65
1, 435286, Control_c, 0, 64, 26
1, 435291, Note_on_c, 0, 79, 76
1, 435300, Control_c, 0, 64, 0
1, 435317, Note_off_c, 0, 81, 62
1, 435348, Note_on_c, 0, 78, 75
1, 435355, Note_off_c, 0, 79, 63
1, 435391, Note_off_c, 0, 78, 65
1, 435403, Note_on_c, 0, 76, 73
1, 435460, Note_off_c, 0, 76, 62
1, 435465, Note_on_c, 0, 74, 75
1, 435489, Note_off_c, 0, 74, 70
1, 435573, Note_on_c, 0, 43, 70
1, 435580, Note_on_c, 0, 83, 75
1, 435586, Note_on_c, 0, 77, 35
1, 435590, Note_on_c, 0, 79, 55
1, 435617, Note_off_c, 0, 77, 59
1, 435617, Note_off_c, 0, 79, 56
1, 435635, Note_off_c, 0, 43, 59
1, 435705, Note_on_c, 0, 55, 71
1, 435755, Note_off_c, 0, 55, 61
1, 435827, Note_off_c, 0, 83, 47
1, 435839, Note_on_c, 0, 57, 64
1, 435842, Note_on_c, 0, 85, 72
1, 435869, Note_off_c, 0, 57, 62
1, 435910, Note_off_c, 0, 85, 62
1, 435969, Note_on_c, 0, 59, 69
1, 435982, Note_on_c, 0, 88, 80
1, 435988, Note_off_c, 0, 59, 64
1, 436032, Note_on_c, 0, 86, 79
1, 436038, Note_off_c, 0, 88, 64
1, 436086, Note_on_c, 0, 85, 81
1, 436111, Note_off_c, 0, 86, 63
1, 436152, Note_on_c, 0, 83, 75
1, 436156, Note_off_c, 0, 85, 65
1, 436193, Note_off_c, 0, 83, 62
1, 436219, Note_on_c, 0, 81, 62
1, 436274, Note_off_c, 0, 81, 55
1, 436281, Note_on_c, 0, 79, 66
1, 436308, Note_off_c, 0, 79, 65
1, 436336, Note_on_c, 0, 85, 73
1, 436342, Note_on_c, 0, 55, 66
1, 436347, Note_on_c, 0, 64, 61
1, 436353, Note_on_c, 0, 59, 43
1, 436366, Note_off_c, 0, 55, 66
1, 436368, Note_off_c, 0, 64, 65
1, 436384, Note_off_c, 0, 59, 54
1, 436394, Note_on_c, 0, 83, 73
1, 436428, Note_off_c, 0, 85, 62
1, 436456, Note_on_c, 0, 81, 76
1, 436464, Note_off_c, 0, 83, 65
1, 436495, Note_off_c, 0, 81, 63
1, 436524, Note_on_c, 0, 79, 66
1, 436551, Note_off_c, 0, 79, 63
1, 436583, Note_on_c, 0, 78, 66
1, 436609, Note_off_c, 0, 78, 66
1, 436643, Note_on_c, 0, 76, 65
1, 436674, Note_off_c, 0, 76, 62
1, 436706, Note_on_c, 0, 62, 57
1, 436709, Note_on_c, 0, 66, 58
1, 436713, Note_on_c, 0, 57, 53
1, 436715, Note_on_c, 0, 83, 78
1, 436730, Note_off_c, 0, 62, 59
1, 436731, Note_off_c, 0, 66, 63
1, 436738, Note_off_c, 0, 57, 58
1, 436773, Note_on_c, 0, 81, 77
1, 436782, Note_off_c, 0, 83, 58
1, 436844, Note_on_c, 0, 79, 76
1, 436857, Note_off_c, 0, 81, 60
1, 436898, Note_on_c, 0, 78, 76
1, 436903, Note_off_c, 0, 79, 63
1, 436942, Note_off_c, 0, 78, 66
1, 436968, Note_on_c, 0, 76, 72
1, 437015, Note_off_c, 0, 76, 50
1, 437029, Note_on_c, 0, 74, 75
1, 437056, Note_off_c, 0, 74, 66
1, 437102, Note_on_c, 0, 81, 75
1, 437108, Note_on_c, 0, 67, 61
1, 437111, Note_on_c, 0, 57, 57
1, 437113, Note_on_c, 0, 64, 60
1, 437148, Note_off_c, 0, 67, 58
1, 437159, Note_on_c, 0, 79, 76
1, 437160, Note_off_c, 0, 81, 63
1, 437197, Note_off_c, 0, 64, 34
1, 437215, Note_on_c, 0, 78, 76
1, 437234, Note_off_c, 0, 79, 60
1, 437278, Note_on_c, 0, 76, 76
1, 437280, Note_off_c, 0, 78, 65
1, 437309, Note_off_c, 0, 76, 63
1, 437330, Note_on_c, 0, 74, 68
1, 437363, Note_off_c, 0, 74, 57
1, 437389, Note_on_c, 0, 73, 76
1, 437445, Note_on_c, 0, 74, 81
1, 437449, Note_off_c, 0, 73, 62
1, 437457, Note_off_c, 0, 57, 46
1, 437461, Note_on_c, 0, 62, 57
1, 437462, Note_on_c, 0, 66, 60
1, 437475, Note_off_c, 0, 74, 65
1, 437484, Note_off_c, 0, 66, 64
1, 437485, Note_off_c, 0, 62, 62
1, 437749, Note_on_c, 0, 66, 61
1, 437765, Note_on_c, 0, 42, 67
1, 437801, Note_on_c, 0, 69, 71
1, 437810, Note_on_c, 0, 45, 68
1, 437821, Note_off_c, 0, 66, 58
1, 437845, Note_on_c, 0, 50, 78
1, 437846, Note_on_c, 0, 74, 85
1, 437852, Note_off_c, 0, 69, 65
1, 437856, Note_off_c, 0, 42, 62
1, 437858, Note_off_c, 0, 45, 64
1, 437872, Note_off_c, 0, 74, 66
1, 437883, Note_off_c, 0, 50, 64
1, 438107, Note_on_c, 0, 69, 63
1, 438118, Note_on_c, 0, 45, 56
1, 438159, Note_on_c, 0, 50, 73
1, 438162, Note_on_c, 0, 74, 75
1, 438196, Note_off_c, 0, 69, 58
1, 438209, Note_on_c, 0, 78, 83
1, 438209, Note_off_c, 0, 45, 64
1, 438215, Note_on_c, 0, 54, 82
1, 438221, Note_off_c, 0, 74, 67
1, 438224, Note_off_c, 0, 50, 65
1, 438244, Note_off_c, 0, 54, 66
1, 438253, Note_off_c, 0, 78, 63
1, 438490, Note_on_c, 0, 50, 66
1, 438490, Note_on_c, 0, 74, 71
1, 438533, Note_on_c, 0, 78, 84
1, 438548, Note_on_c, 0, 54, 80
1, 438572, Note_off_c, 0, 74, 59
1, 438584, Note_off_c, 0, 50, 66
1, 438590, Note_on_c, 0, 81, 85
1, 438595, Note_on_c, 0, 57, 80
1, 438614, Note_off_c, 0, 54, 64
1, 438619, Note_off_c, 0, 78, 65
1, 438631, Note_off_c, 0, 57, 63
1, 438637, Note_off_c, 0, 81, 65
1, 438915, Note_on_c, 0, 78, 68
1, 438923, Note_on_c, 0, 54, 60
1, 438973, Note_on_c, 0, 81, 70
1, 438984, Note_off_c, 0, 78, 60
1, 438994, Note_off_c, 0, 54, 62
1, 438995, Note_on_c, 0, 57, 53
1, 439033, Note_on_c, 0, 84, 74
1, 439041, Note_off_c, 0, 57, 61
1, 439045, Note_off_c, 0, 81, 62
1, 439057, Note_on_c, 0, 60, 56
1, 439113, Note_off_c, 0, 84, 63
1, 439369, Note_off_c, 0, 60, 40
1, 439377, Control_c, 0, 67, 12
1, 439392, Control_c, 0, 67, 41
1, 439407, Control_c, 0, 67, 102
1, 439422, Control_c, 0, 67, 127
1, 440086, Note_on_c, 0, 74, 45
1, 440115, Note_on_c, 0, 55, 30
1, 440122, Note_on_c, 0, 59, 29
1, 440126, Note_on_c, 0, 50, 24
1, 440126, Control_c, 0, 64, 45
1, 440140, Control_c, 0, 64, 61
1, 440155, Control_c, 0, 64, 64
1, 440170, Control_c, 0, 64, 66
1, 440185, Control_c, 0, 64, 68
1, 440200, Control_c, 0, 64, 70
1, 440216, Control_c, 0, 64, 71
1, 440231, Control_c, 0, 64, 73
1, 440245, Control_c, 0, 64, 75
1, 440260, Control_c, 0, 64, 77
1, 440275, Control_c, 0, 64, 77
1, 440290, Control_c, 0, 64, 78
1, 440301, Note_off_c, 0, 55, 50
1, 440340, Note_off_c, 0, 59, 56
1, 440438, Note_on_c, 0, 76, 59
1, 440459, Note_off_c, 0, 74, 63
1, 440468, Control_c, 0, 64, 77
1, 440483, Control_c, 0, 64, 74
1, 440498, Control_c, 0, 64, 67
1, 440504, Note_on_c, 0, 67, 54
1, 440512, Note_off_c, 0, 76, 60
1, 440512, Control_c, 0, 64, 0
1, 440533, Note_on_c, 0, 60, 41
1, 440537, Note_on_c, 0, 57, 40
1, 440671, Note_off_c, 0, 60, 49
1, 440778, Note_off_c, 0, 67, 59
1, 440816, Note_on_c, 0, 66, 44
1, 440894, Note_off_c, 0, 57, 35
1, 440917, Note_off_c, 0, 66, 62
1, 440933, Note_on_c, 0, 59, 42
1, 440937, Note_on_c, 0, 55, 42
1, 440954, Note_on_c, 0, 67, 37
1, 440984, Note_off_c, 0, 67, 52
1, 441072, Note_on_c, 0, 79, 68
1, 441108, Note_off_c, 0, 79, 54
1, 441149, Note_off_c, 0, 59, 33
1, 441201, Note_on_c, 0, 78, 72
1, 441205, Note_off_c, 0, 50, 51
1, 441207, Note_off_c, 0, 55, 14
1, 441250, Note_off_c, 0, 78, 62
1, 441320, Note_on_c, 0, 76, 83
1, 441367, Note_off_c, 0, 76, 62
1, 441458, Note_on_c, 0, 74, 75
1, 441499, Note_off_c, 0, 74, 63
1, 441574, Note_on_c, 0, 73, 72
1, 441606, Note_off_c, 0, 73, 61
1, 441687, Note_on_c, 0, 74, 79
1, 441699, Note_on_c, 0, 55, 49
1, 441707, Note_on_c, 0, 59, 42
1, 441708, Note_on_c, 0, 50, 44
1, 441726, Note_off_c, 0, 74, 65
1, 441735, Note_off_c, 0, 55, 64
1, 441747, Note_off_c, 0, 59, 56
1, 441821, Note_on_c, 0, 76, 69
1, 441854, Note_off_c, 0, 76, 63
1, 441864, Note_on_c, 0, 74, 67
1, 441889, Note_off_c, 0, 74, 70
1, 441894, Note_on_c, 0, 73, 63
1, 441925, Note_off_c, 0, 73, 54
1, 441943, Note_on_c, 0, 74, 66
1, 441982, Note_on_c, 0, 76, 78
1, 441991, Note_off_c, 0, 74, 65
1, 442033, Note_off_c, 0, 76, 60
1, 442066, Note_on_c, 0, 67, 72
1, 442081, Note_on_c, 0, 57, 51
1, 442081, Note_on_c, 0, 60, 55
1, 442137, Note_off_c, 0, 60, 59
1, 442301, Note_off_c, 0, 67, 55
1, 442335, Note_on_c, 0, 66, 58
1, 442400, Note_off_c, 0, 57, 37
1, 442423, Note_off_c, 0, 66, 62
1, 442468, Note_on_c, 0, 55, 39
1, 442469, Note_on_c, 0, 59, 40
1, 442471, Note_on_c, 0, 67, 49
1, 442511, Note_off_c, 0, 67, 53
1, 442601, Note_on_c, 0, 79, 63
1, 442635, Note_off_c, 0, 79, 58
1, 442697, Note_off_c, 0, 59, 18
1, 442706, Note_off_c, 0, 55, 16
1, 442731, Note_on_c, 0, 78, 66
1, 442779, Note_off_c, 0, 78, 60
1, 442795, Note_off_c, 0, 50, 56
1, 442852, Note_on_c, 0, 76, 74
1, 442881, Note_off_c, 0, 76, 62
1, 442992, Note_on_c, 0, 74, 66
1, 443023, Note_off_c, 0, 74, 63
1, 443111, Note_on_c, 0, 73, 66
1, 443141, Note_off_c, 0, 73, 65
1, 443230, Note_on_c, 0, 74, 82
1, 443233, Note_on_c, 0, 55, 53
1, 443244, Note_on_c, 0, 59, 45
1, 443247, Note_on_c, 0, 50, 51
1, 443260, Note_off_c, 0, 55, 63
1, 443264, Note_off_c, 0, 74, 63
1, 443272, Note_off_c, 0, 59, 57
1, 443365, Note_on_c, 0, 76, 59
1, 443396, Note_off_c, 0, 76, 66
1, 443407, Note_on_c, 0, 74, 72
1, 443431, Note_off_c, 0, 74, 71
1, 443436, Note_on_c, 0, 73, 70
1, 443476, Note_off_c, 0, 73, 58
1, 443502, Note_on_c, 0, 74, 68
1, 443542, Note_on_c, 0, 76, 76
1, 443546, Note_off_c, 0, 74, 64
1, 443595, Note_off_c, 0, 76, 62
1, 443610, Note_on_c, 0, 60, 52
1, 443614, Note_on_c, 0, 57, 53
1, 443628, Note_on_c, 0, 67, 73
1, 443646, Note_off_c, 0, 60, 65
1, 443696, Note_off_c, 0, 57, 37
1, 443878, Note_off_c, 0, 67, 58
1, 443911, Note_on_c, 0, 66, 48
1, 444012, Note_off_c, 0, 66, 60
1, 444039, Note_on_c, 0, 67, 60
1, 444042, Note_on_c, 0, 59, 44
1, 444047, Note_on_c, 0, 55, 46
1, 444069, Note_off_c, 0, 67, 65
1, 444075, Note_off_c, 0, 59, 63
1, 444081, Note_off_c, 0, 55, 64
1, 444117, Note_off_c, 0, 50, 58
1, 444427, Control_c, 0, 64, 32
1, 444442, Control_c, 0, 64, 50
1, 444457, Control_c, 0, 64, 60
1, 444472, Control_c, 0, 64, 63
1, 444486, Control_c, 0, 64, 66
1, 444493, Note_on_c, 0, 67, 54
1, 444501, Control_c, 0, 64, 69
1, 444502, Note_on_c, 0, 59, 41
1, 444503, Note_on_c, 0, 52, 36
1, 444504, Note_on_c, 0, 64, 43
1, 444516, Control_c, 0, 64, 74
1, 444531, Control_c, 0, 64, 78
1, 444546, Control_c, 0, 64, 83
1, 444559, Note_off_c, 0, 59, 54
1, 444561, Control_c, 0, 64, 87
1, 444576, Control_c, 0, 64, 89
1, 444577, Note_off_c, 0, 64, 63
1, 444591, Control_c, 0, 64, 91
1, 444605, Control_c, 0, 64, 92
1, 444611, Note_off_c, 0, 67, 62
1, 444620, Control_c, 0, 64, 92
1, 444635, Control_c, 0, 64, 93
1, 444767, Note_off_c, 0, 52, 42
1, 444872, Control_c, 0, 64, 89
1, 444886, Control_c, 0, 64, 82
1, 444897, Note_on_c, 0, 69, 60
1, 444901, Control_c, 0, 64, 72
1, 444903, Note_on_c, 0, 48, 49
1, 444908, Note_on_c, 0, 67, 48
1, 444916, Control_c, 0, 64, 62
1, 444921, Note_on_c, 0, 64, 40
1, 444930, Control_c, 0, 64, 29
1, 444945, Control_c, 0, 64, 52
1, 444960, Control_c, 0, 64, 64
1, 444975, Control_c, 0, 64, 67
1, 444990, Control_c, 0, 64, 70
1, 445002, Note_off_c, 0, 67, 59
1, 445006, Control_c, 0, 64, 73
1, 445019, Note_off_c, 0, 64, 63
1, 445020, Control_c, 0, 64, 76
1, 445035, Control_c, 0, 64, 80
1, 445036, Note_off_c, 0, 69, 64
1, 445050, Control_c, 0, 64, 84
1, 445065, Control_c, 0, 64, 87
1, 445080, Control_c, 0, 64, 90
1, 445094, Control_c, 0, 64, 91
1, 445109, Control_c, 0, 64, 92
1, 445228, Note_off_c, 0, 48, 28
1, 445280, Control_c, 0, 64, 90
1, 445295, Control_c, 0, 64, 85
1, 445309, Control_c, 0, 64, 75
1, 445311, Note_on_c, 0, 50, 45
1, 445314, Note_on_c, 0, 69, 52
1, 445316, Note_on_c, 0, 74, 59
1, 445324, Control_c, 0, 64, 65
1, 445326, Note_on_c, 0, 66, 42
1, 445339, Control_c, 0, 64, 48
1, 445354, Control_c, 0, 64, 40
1, 445369, Control_c, 0, 64, 56
1, 445383, Control_c, 0, 64, 64
1, 445398, Control_c, 0, 64, 69
1, 445409, Note_off_c, 0, 69, 61
1, 445413, Control_c, 0, 64, 72
1, 445428, Control_c, 0, 64, 74
1, 445440, Note_off_c, 0, 74, 63
1, 445443, Control_c, 0, 64, 76
1, 445448, Note_off_c, 0, 66, 63
1, 445458, Control_c, 0, 64, 77
1, 445473, Control_c, 0, 64, 79
1, 445488, Control_c, 0, 64, 80
1, 445580, Note_off_c, 0, 50, 35
1, 445741, Note_on_c, 0, 43, 41
1, 445742, Note_on_c, 0, 62, 43
1, 445744, Note_on_c, 0, 71, 47
1, 445749, Note_on_c, 0, 67, 39
1, 445814, Control_c, 0, 64, 78
1, 445822, Note_off_c, 0, 67, 54
1, 445829, Control_c, 0, 64, 71
1, 445829, Control_c, 0, 67, 92
1, 445844, Note_off_c, 0, 71, 64
1, 445844, Control_c, 0, 64, 27
1, 445844, Control_c, 0, 67, 27
1, 445858, Control_c, 0, 64, 0
1, 445858, Control_c, 0, 67, 0
1, 445881, Note_off_c, 0, 62, 60
1, 445884, Note_off_c, 0, 43, 56
1, 446171, Note_on_c, 0, 48, 92
1, 446172, Note_on_c, 0, 55, 84
1, 446175, Note_on_c, 0, 64, 81
1, 446176, Control_c, 0, 64, 69
1, 446177, Note_on_c, 0, 60, 78
1, 446179, Note_on_c, 0, 36, 86
1, 446191, Control_c, 0, 64, 127
1, 446229, Note_off_c, 0, 55, 63
1, 446240, Note_off_c, 0, 60, 63
1, 446258, Note_off_c, 0, 48, 60
1, 446280, Note_off_c, 0, 64, 59
1, 446293, Note_off_c, 0, 36, 60
1, 446576, Control_c, 0, 64, 84
1, 446579, Note_on_c, 0, 66, 87
1, 446580, Note_on_c, 0, 45, 95
1, 446581, Note_on_c, 0, 64, 81
1, 446582, Note_on_c, 0, 60, 82
1, 446589, Note_on_c, 0, 33, 88
1, 446591, Control_c, 0, 64, 0
1, 446667, Control_c, 0, 64, 68
1, 446689, Control_c, 0, 64, 76
1, 446704, Control_c, 0, 64, 88
1, 446719, Note_off_c, 0, 64, 62
1, 446719, Control_c, 0, 64, 103
1, 446719, Note_off_c, 0, 60, 63
1, 446733, Control_c, 0, 64, 127
1, 446738, Note_off_c, 0, 33, 59
1, 446752, Note_off_c, 0, 66, 61
1, 446756, Note_off_c, 0, 45, 55
1, 446969, Control_c, 0, 64, 108
1, 446984, Control_c, 0, 64, 76
1, 446999, Control_c, 0, 64, 0
1, 447004, Note_on_c, 0, 47, 97
1, 447005, Note_on_c, 0, 71, 90
1, 447006, Note_on_c, 0, 66, 86
1, 447008, Note_on_c, 0, 63, 89
1, 447013, Note_on_c, 0, 35, 84
1, 447073, Control_c, 0, 64, 74
1, 447081, Note_off_c, 0, 71, 64
1, 447086, Note_off_c, 0, 66, 63
1, 447088, Control_c, 0, 64, 92
1, 447091, Note_off_c, 0, 63, 60
1, 447103, Control_c, 0, 64, 127
1, 447138, Note_off_c, 0, 47, 56
1, 447197, Note_off_c, 0, 35, 31
1, 447369, Control_c, 0, 64, 89
1, 447384, Control_c, 0, 64, 58
1, 447400, Control_c, 0, 64, 0
1, 447412, Note_on_c, 0, 67, 78
1, 447417, Note_on_c, 0, 64, 69
1, 447422, Note_on_c, 0, 59, 75
1, 447431, Note_on_c, 0, 40, 78
1, 447452, Control_c, 0, 64, 43
1, 447467, Control_c, 0, 64, 83
1, 447482, Control_c, 0, 64, 127
1, 447501, Note_off_c, 0, 40, 62
1, 447511, Note_off_c, 0, 64, 64
1, 447526, Control_c, 0, 67, 15
1, 447530, Note_off_c, 0, 67, 62
1, 447540, Note_off_c, 0, 59, 59
1, 447541, Control_c, 0, 64, 89
1, 447541, Control_c, 0, 67, 70
1, 447555, Control_c, 0, 64, 0
1, 447555, Control_c, 0, 67, 127
1, 447877, Note_on_c, 0, 62, 43
1, 447881, Note_on_c, 0, 54, 39
1, 447883, Note_on_c, 0, 59, 35
1, 447893, Note_on_c, 0, 47, 29
1, 447955, Control_c, 0, 64, 23
1, 447970, Control_c, 0, 64, 60
1, 447985, Control_c, 0, 64, 65
1, 447991, Note_off_c, 0, 59, 61
1, 447992, Note_off_c, 0, 54, 58
1, 448000, Control_c, 0, 64, 67
1, 448014, Control_c, 0, 64, 67
1, 448019, Note_off_c, 0, 62, 62
1, 448029, Control_c, 0, 64, 68
1, 448044, Control_c, 0, 64, 70
1, 448059, Control_c, 0, 64, 72
1, 448073, Control_c, 0, 64, 74
1, 448088, Control_c, 0, 64, 75
1, 448103, Control_c, 0, 64, 75
1, 448275, Control_c, 0, 64, 75
1, 448290, Control_c, 0, 64, 74
1, 448290, Note_off_c, 0, 47, 40
1, 448302, Note_on_c, 0, 64, 52
1, 448304, Control_c, 0, 64, 71
1, 448312, Note_on_c, 0, 43, 41
1, 448313, Note_on_c, 0, 62, 47
1, 448317, Note_on_c, 0, 59, 40
1, 448319, Control_c, 0, 64, 65
1, 448334, Control_c, 0, 64, 0
1, 448408, Control_c, 0, 64, 28
1, 448423, Control_c, 0, 64, 60
1, 448438, Control_c, 0, 64, 65
1, 448441, Note_off_c, 0, 62, 59
1, 448452, Control_c, 0, 64, 68
1, 448459, Note_off_c, 0, 59, 56
1, 448467, Control_c, 0, 64, 70
1, 448482, Control_c, 0, 64, 73
1, 448496, Control_c, 0, 64, 76
1, 448510, Note_off_c, 0, 64, 63
1, 448511, Control_c, 0, 64, 78
1, 448526, Control_c, 0, 64, 79
1, 448684, Note_off_c, 0, 43, 39
1, 448689, Control_c, 0, 64, 78
1, 448704, Control_c, 0, 64, 75
1, 448719, Control_c, 0, 64, 68
1, 448734, Control_c, 0, 64, 0
1, 448742, Note_on_c, 0, 69, 56
1, 448744, Note_on_c, 0, 45, 42
1, 448756, Note_on_c, 0, 64, 38
1, 448768, Note_on_c, 0, 61, 34
1, 448836, Note_off_c, 0, 64, 62
1, 448838, Control_c, 0, 64, 32
1, 448852, Control_c, 0, 64, 62
1, 448867, Control_c, 0, 64, 67
1, 448882, Control_c, 0, 64, 72
1, 448886, Note_off_c, 0, 61, 56
1, 448886, Note_off_c, 0, 69, 59
1, 448896, Control_c, 0, 64, 76
1, 448919, Control_c, 0, 64, 79
1, 448934, Control_c, 0, 64, 83
1, 448949, Control_c, 0, 64, 85
1, 448963, Control_c, 0, 64, 87
1, 448976, Note_off_c, 0, 45, 44
1, 449083, Control_c, 0, 64, 86
1, 449113, Control_c, 0, 64, 85
1, 449127, Control_c, 0, 64, 82
1, 449142, Control_c, 0, 64, 74
1, 449157, Control_c, 0, 64, 63
1, 449167, Note_on_c, 0, 66, 44
1, 449172, Control_c, 0, 64, 0
1, 449174, Note_on_c, 0, 38, 43
1, 449179, Note_on_c, 0, 62, 39
1, 449180, Note_on_c, 0, 57, 33
1, 449246, Control_c, 0, 64, 64
1, 449261, Control_c, 0, 64, 82
1, 449275, Control_c, 0, 64, 127
1, 449275, Control_c, 0, 67, 91
1, 449281, Note_off_c, 0, 57, 60
1, 449289, Note_off_c, 0, 62, 59
1, 449290, Control_c, 0, 67, 0
1, 449314, Note_off_c, 0, 66, 61
1, 449319, Control_c, 0, 64, 83
1, 449322, Note_off_c, 0, 38, 34
1, 449334, Control_c, 0, 64, 0
1, 449601, Note_on_c, 0, 73, 94
1, 449604, Note_on_c, 0, 58, 94
1, 449607, Note_on_c, 0, 67, 80
1, 449607, Note_on_c, 0, 64, 82
1, 449608, Note_on_c, 0, 46, 84
1, 449705, Note_off_c, 0, 67, 59
1, 449712, Control_c, 0, 64, 49
1, 449727, Control_c, 0, 64, 54
1, 449742, Control_c, 0, 64, 60
1, 449756, Control_c, 0, 64, 65
1, 449771, Control_c, 0, 64, 67
1, 449786, Control_c, 0, 64, 71
1, 449800, Note_off_c, 0, 64, 53
1, 449801, Control_c, 0, 64, 75
1, 449807, Note_off_c, 0, 46, 52
1, 449816, Control_c, 0, 64, 79
1, 449831, Control_c, 0, 64, 80
1, 449841, Note_off_c, 0, 73, 50
1, 449888, Note_off_c, 0, 58, 32
1, 449949, Control_c, 0, 64, 80
1, 449964, Control_c, 0, 64, 81
1, 450009, Control_c, 0, 64, 78
1, 450023, Control_c, 0, 64, 68
1, 450029, Note_on_c, 0, 59, 103
1, 450031, Note_on_c, 0, 62, 92
1, 450031, Note_on_c, 0, 74, 93
1, 450031, Note_on_c, 0, 66, 86
1, 450034, Note_on_c, 0, 47, 90
1, 450038, Control_c, 0, 64, 0
1, 450112, Control_c, 0, 64, 55
1, 450127, Control_c, 0, 64, 66
1, 450138, Note_off_c, 0, 62, 63
1, 450141, Control_c, 0, 64, 71
1, 450156, Control_c, 0, 64, 79
1, 450159, Note_off_c, 0, 66, 60
1, 450171, Note_off_c, 0, 59, 60
1, 450171, Control_c, 0, 64, 88
1, 450185, Note_off_c, 0, 74, 65
1, 450186, Control_c, 0, 64, 96
1, 450194, Note_off_c, 0, 47, 65
1, 450201, Control_c, 0, 64, 104
1, 450215, Control_c, 0, 64, 109
1, 450230, Control_c, 0, 64, 111
1, 450245, Control_c, 0, 64, 112
1, 450275, Control_c, 0, 64, 111
1, 450349, Control_c, 0, 64, 112
1, 450364, Control_c, 0, 64, 113
1, 450379, Control_c, 0, 64, 120
1, 450394, Control_c, 0, 64, 127
1, 450460, Control_c, 0, 64, 95
1, 450463, Note_on_c, 0, 55, 99
1, 450463, Note_on_c, 0, 77, 99
1, 450468, Note_on_c, 0, 71, 92
1, 450471, Note_on_c, 0, 43, 91
1, 450475, Control_c, 0, 64, 70
1, 450490, Control_c, 0, 64, 0
1, 450549, Control_c, 0, 64, 63
1, 450564, Control_c, 0, 64, 70
1, 450579, Control_c, 0, 64, 78
1, 450595, Control_c, 0, 64, 89
1, 450610, Control_c, 0, 64, 98
1, 450625, Control_c, 0, 64, 103
1, 450639, Control_c, 0, 64, 106
1, 450654, Control_c, 0, 64, 108
1, 450669, Control_c, 0, 64, 109
1, 450684, Control_c, 0, 64, 110
1, 450690, Note_off_c, 0, 71, 60
1, 450698, Control_c, 0, 64, 111
1, 450713, Control_c, 0, 64, 111
1, 450720, Note_off_c, 0, 55, 57
1, 450728, Control_c, 0, 64, 112
1, 450737, Note_off_c, 0, 43, 59
1, 450743, Control_c, 0, 64, 113
1, 450758, Control_c, 0, 64, 115
1, 450773, Control_c, 0, 64, 127
1, 450807, Note_off_c, 0, 77, 54
1, 450891, Control_c, 0, 64, 90
1, 450896, Note_on_c, 0, 54, 98
1, 450897, Note_on_c, 0, 78, 94
1, 450898, Note_on_c, 0, 70, 92
1, 450899, Note_on_c, 0, 42, 88
1, 450900, Note_on_c, 0, 73, 87
1, 450906, Control_c, 0, 64, 53
1, 450921, Control_c, 0, 64, 0
1, 450927, Note_off_c, 0, 42, 68
1, 450937, Note_off_c, 0, 54, 61
1, 451032, Note_on_c, 0, 55, 83
1, 451068, Note_off_c, 0, 55, 64
1, 451169, Note_on_c, 0, 54, 89
1, 451200, Note_off_c, 0, 54, 65
1, 451303, Note_on_c, 0, 52, 89
1, 451313, Control_c, 0, 64, 69
1, 451328, Control_c, 0, 64, 68
1, 451343, Control_c, 0, 64, 36
1, 451348, Note_off_c, 0, 52, 62
1, 451358, Control_c, 0, 64, 0
1, 451362, Note_off_c, 0, 70, 58
1, 451386, Note_off_c, 0, 73, 59
1, 451423, Note_off_c, 0, 78, 60
1, 451432, Note_on_c, 0, 50, 89
1, 451476, Note_off_c, 0, 50, 65
1, 451557, Note_on_c, 0, 49, 86
1, 451613, Note_off_c, 0, 49, 64
1, 451655, Control_c, 0, 67, 12
1, 451670, Control_c, 0, 67, 76
1, 451685, Control_c, 0, 67, 127
1, 451695, Note_on_c, 0, 47, 91
1, 451717, Note_off_c, 0, 47, 69
1, 451836, Note_on_c, 0, 78, 70
1, 451876, Note_off_c, 0, 78, 62
1, 451965, Note_on_c, 0, 78, 66
1, 451990, Note_off_c, 0, 78, 67
1, 452101, Note_on_c, 0, 79, 62
1, 452106, Note_on_c, 0, 71, 53
1, 452120, Note_off_c, 0, 79, 65
1, 452129, Note_on_c, 0, 81, 63
1, 452133, Note_off_c, 0, 71, 63
1, 452160, Note_on_c, 0, 74, 55
1, 452180, Note_off_c, 0, 81, 58
1, 452195, Note_on_c, 0, 79, 66
1, 452207, Note_off_c, 0, 74, 60
1, 452219, Note_off_c, 0, 79, 67
1, 452222, Note_on_c, 0, 71, 54
1, 452234, Note_on_c, 0, 78, 69
1, 452261, Note_off_c, 0, 71, 63
1, 452263, Note_off_c, 0, 78, 61
1, 452320, Note_on_c, 0, 74, 20
1, 452372, Note_on_c, 0, 78, 65
1, 452377, Note_on_c, 0, 71, 52
1, 452394, Note_off_c, 0, 74, 0
1, 452401, Note_off_c, 0, 78, 62
1, 452402, Note_off_c, 0, 71, 63
1, 452409, Note_on_c, 0, 74, 40
1, 452452, Note_off_c, 0, 74, 64
1, 452503, Note_on_c, 0, 70, 53
1, 452506, Note_on_c, 0, 79, 62
1, 452525, Note_off_c, 0, 79, 65
1, 452536, Note_on_c, 0, 81, 62
1, 452537, Note_off_c, 0, 70, 64
1, 452566, Note_on_c, 0, 73, 64
1, 452575, Note_off_c, 0, 81, 59
1, 452594, Note_on_c, 0, 79, 64
1, 452612, Note_off_c, 0, 73, 58
1, 452618, Note_off_c, 0, 79, 66
1, 452624, Note_on_c, 0, 78, 68
1, 452634, Note_on_c, 0, 70, 57
1, 452651, Note_off_c, 0, 78, 63
1, 452682, Note_off_c, 0, 70, 63
1, 452722, Note_on_c, 0, 73, 58
1, 452758, Note_off_c, 0, 73, 61
1, 452780, Note_on_c, 0, 78, 68
1, 452788, Note_on_c, 0, 70, 51
1, 452813, Note_off_c, 0, 78, 60
1, 452819, Note_off_c, 0, 70, 64
1, 452844, Note_on_c, 0, 73, 59
1, 452880, Note_off_c, 0, 73, 60
1, 452919, Note_on_c, 0, 78, 67
1, 452925, Note_on_c, 0, 69, 57
1, 452957, Note_off_c, 0, 69, 65
1, 452979, Note_on_c, 0, 72, 63
1, 453034, Note_off_c, 0, 72, 58
1, 453050, Note_on_c, 0, 69, 61
1, 453089, Note_off_c, 0, 69, 59
1, 453119, Note_on_c, 0, 72, 60
1, 453176, Note_off_c, 0, 72, 59
1, 453197, Note_on_c, 0, 69, 62
1, 453200, Note_on_c, 0, 79, 73
1, 453205, Note_off_c, 0, 78, 60
1, 453225, Note_off_c, 0, 69, 68
1, 453257, Note_on_c, 0, 72, 56
1, 453257, Note_on_c, 0, 81, 76
1, 453268, Note_off_c, 0, 79, 58
1, 453292, Note_off_c, 0, 72, 59
1, 453331, Note_on_c, 0, 68, 65
1, 453334, Note_off_c, 0, 81, 64
1, 453335, Note_on_c, 0, 83, 79
1, 453366, Note_off_c, 0, 68, 61
1, 453401, Note_on_c, 0, 71, 63
1, 453465, Note_off_c, 0, 71, 59
1, 453480, Note_on_c, 0, 68, 64
1, 453487, Note_on_c, 0, 76, 74
1, 453498, Note_off_c, 0, 83, 62
1, 453518, Note_off_c, 0, 68, 61
1, 453521, Note_off_c, 0, 76, 60
1, 453566, Note_on_c, 0, 71, 61
1, 453606, Note_off_c, 0, 71, 60
1, 453626, Note_on_c, 0, 68, 64
1, 453629, Note_on_c, 0, 76, 74
1, 453656, Note_off_c, 0, 68, 66
1, 453670, Note_off_c, 0, 76, 59
1, 453694, Note_on_c, 0, 71, 56
1, 453729, Note_off_c, 0, 71, 65
1, 453760, Note_on_c, 0, 78, 74
1, 453766, Note_on_c, 0, 67, 64
1, 453795, Note_off_c, 0, 78, 54
1, 453798, Note_on_c, 0, 79, 68
1, 453803, Note_off_c, 0, 67, 61
1, 453832, Note_on_c, 0, 71, 60
1, 453849, Note_on_c, 0, 78, 62
1, 453860, Note_off_c, 0, 79, 61
1, 453876, Note_off_c, 0, 71, 59
1, 453898, Note_on_c, 0, 76, 75
1, 453900, Note_on_c, 0, 67, 59
1, 453903, Note_off_c, 0, 78, 63
1, 453933, Note_off_c, 0, 67, 63
1, 453939, Note_off_c, 0, 76, 62
1, 453980, Note_on_c, 0, 71, 52
1, 454019, Note_off_c, 0, 71, 64
1, 454031, Note_on_c, 0, 76, 68
1, 454033, Note_on_c, 0, 67, 55
1, 454058, Note_off_c, 0, 76, 65
1, 454063, Note_off_c, 0, 67, 64
1, 454091, Note_on_c, 0, 71, 52
1, 454129, Note_off_c, 0, 71, 63
1, 454169, Note_on_c, 0, 76, 78
1, 454174, Note_on_c, 0, 66, 61
1, 454192, Note_off_c, 0, 76, 67
1, 454194, Note_on_c, 0, 78, 72
1, 454203, Note_off_c, 0, 66, 65
1, 454238, Note_on_c, 0, 71, 64
1, 454243, Note_on_c, 0, 76, 68
1, 454246, Note_off_c, 0, 78, 65
1, 454289, Note_off_c, 0, 71, 58
1, 454290, Note_off_c, 0, 76, 62
1, 454297, Note_on_c, 0, 66, 55
1, 454305, Note_on_c, 0, 74, 72
1, 454328, Note_off_c, 0, 74, 70
1, 454335, Note_off_c, 0, 66, 62
1, 454379, Note_on_c, 0, 71, 52
1, 454434, Note_off_c, 0, 71, 59
1, 454445, Note_on_c, 0, 74, 67
1, 454448, Note_on_c, 0, 66, 59
1, 454475, Note_off_c, 0, 74, 66
1, 454481, Note_off_c, 0, 66, 64
1, 454510, Note_on_c, 0, 71, 58
1, 454552, Note_off_c, 0, 71, 64
1, 454590, Note_on_c, 0, 74, 78
1, 454598, Note_on_c, 0, 66, 55
1, 454630, Note_off_c, 0, 66, 64
1, 454656, Note_on_c, 0, 69, 67
1, 454724, Note_off_c, 0, 69, 60
1, 454726, Note_on_c, 0, 66, 62
1, 454776, Note_off_c, 0, 66, 61
1, 454800, Note_on_c, 0, 69, 60
1, 454851, Note_off_c, 0, 74, 53
1, 454854, Note_off_c, 0, 69, 60
1, 454869, Note_on_c, 0, 66, 61
1, 454870, Note_on_c, 0, 76, 69
1, 454900, Note_off_c, 0, 66, 65
1, 454930, Note_on_c, 0, 69, 59
1, 454934, Note_on_c, 0, 78, 74
1, 454940, Note_off_c, 0, 76, 58
1, 454973, Note_off_c, 0, 69, 59
1, 455000, Note_on_c, 0, 64, 68
1, 455000, Note_on_c, 0, 79, 79
1, 455004, Note_off_c, 0, 78, 64
1, 455061, Note_off_c, 0, 64, 63
1, 455070, Note_on_c, 0, 67, 74
1, 455134, Note_off_c, 0, 67, 60
1, 455135, Note_on_c, 0, 72, 78
1, 455140, Note_off_c, 0, 79, 57
1, 455147, Note_on_c, 0, 64, 68
1, 455175, Note_off_c, 0, 72, 63
1, 455188, Note_off_c, 0, 64, 63
1, 455214, Note_on_c, 0, 67, 64
1, 455268, Note_on_c, 0, 72, 82
1, 455273, Note_off_c, 0, 67, 61
1, 455283, Note_on_c, 0, 64, 67
1, 455316, Note_off_c, 0, 72, 63
1, 455318, Note_off_c, 0, 64, 61
1, 455355, Note_on_c, 0, 67, 60
1, 455397, Note_on_c, 0, 72, 79
1, 455399, Note_off_c, 0, 67, 61
1, 455417, Note_on_c, 0, 64, 65
1, 455420, Note_on_c, 0, 74, 68
1, 455420, Note_off_c, 0, 72, 66
1, 455438, Note_off_c, 0, 74, 67
1, 455449, Note_off_c, 0, 64, 64
1, 455476, Note_on_c, 0, 67, 62
1, 455483, Note_on_c, 0, 72, 63
1, 455536, Note_off_c, 0, 67, 60
1, 455545, Note_on_c, 0, 64, 62
1, 455581, Note_off_c, 0, 64, 63
1, 455615, Note_on_c, 0, 67, 57
1, 455674, Note_off_c, 0, 72, 56
1, 455676, Note_off_c, 0, 67, 60
1, 455696, Note_on_c, 0, 79, 63
1, 455715, Note_on_c, 0, 64, 12
1, 455738, Note_on_c, 0, 67, 59
1, 455758, Note_off_c, 0, 64, 46
1, 455782, Note_off_c, 0, 67, 61
1, 455824, Note_on_c, 0, 62, 64
1, 455837, Note_on_c, 0, 78, 61
1, 455855, Note_off_c, 0, 79, 48
1, 455872, Note_off_c, 0, 62, 60
1, 455897, Note_on_c, 0, 66, 67
1, 455953, Note_off_c, 0, 66, 59
1, 455961, Note_on_c, 0, 71, 74
1, 455969, Note_on_c, 0, 62, 61
1, 455969, Note_off_c, 0, 78, 53
1, 455998, Note_off_c, 0, 71, 61
1, 456005, Note_off_c, 0, 62, 62
1, 456044, Note_on_c, 0, 66, 65
1, 456088, Note_on_c, 0, 71, 85
1, 456091, Note_off_c, 0, 66, 60
1, 456109, Note_on_c, 0, 62, 61
1, 456142, Note_off_c, 0, 62, 62
1, 456143, Note_off_c, 0, 71, 65
1, 456177, Note_on_c, 0, 66, 61
1, 456220, Note_off_c, 0, 66, 60
1, 456228, Note_on_c, 0, 62, 63
1, 456232, Note_on_c, 0, 71, 78
1, 456237, Control_c, 0, 64, 37
1, 456250, Note_on_c, 0, 73, 72
1, 456252, Control_c, 0, 64, 0
1, 456254, Note_off_c, 0, 71, 68
1, 456271, Note_off_c, 0, 62, 57
1, 456273, Note_off_c, 0, 73, 69
1, 456300, Note_on_c, 0, 66, 63
1, 456329, Note_on_c, 0, 71, 68
1, 456352, Note_off_c, 0, 66, 60
1, 456372, Note_on_c, 0, 62, 48
1, 456413, Note_off_c, 0, 62, 63
1, 456431, Note_on_c, 0, 66, 48
1, 456472, Note_off_c, 0, 66, 62
1, 456485, Note_off_c, 0, 71, 57
1, 456507, Note_on_c, 0, 62, 44
1, 456514, Note_on_c, 0, 78, 55
1, 456535, Note_off_c, 0, 62, 56
1, 456557, Note_on_c, 0, 66, 60
1, 456595, Note_off_c, 0, 66, 62
1, 456639, Note_on_c, 0, 58, 63
1, 456674, Note_off_c, 0, 58, 63
1, 456709, Note_on_c, 0, 66, 52
1, 456746, Note_off_c, 0, 78, 52
1, 456751, Note_off_c, 0, 66, 58
1, 456763, Note_on_c, 0, 58, 61
1, 456786, Note_on_c, 0, 76, 52
1, 456799, Note_off_c, 0, 58, 60
1, 456809, Note_off_c, 0, 76, 59
1, 456845, Note_on_c, 0, 66, 50
1, 456884, Note_off_c, 0, 66, 59
1, 456899, Note_on_c, 0, 58, 60
1, 456913, Note_on_c, 0, 73, 63
1, 456934, Note_off_c, 0, 58, 63
1, 456947, Note_off_c, 0, 73, 63
1, 456979, Note_on_c, 0, 66, 47
1, 457023, Note_off_c, 0, 66, 53
1, 457047, Note_on_c, 0, 76, 70
1, 457051, Note_on_c, 0, 59, 58
1, 457087, Note_off_c, 0, 59, 59
1, 457118, Note_on_c, 0, 66, 56
1, 457176, Note_off_c, 0, 66, 55
1, 457180, Note_off_c, 0, 76, 47
1, 457190, Note_on_c, 0, 74, 70
1, 457199, Note_on_c, 0, 59, 57
1, 457232, Note_off_c, 0, 59, 63
1, 457233, Note_off_c, 0, 74, 63
1, 457265, Note_on_c, 0, 66, 48
1, 457294, Note_off_c, 0, 66, 57
1, 457322, Note_on_c, 0, 59, 53
1, 457328, Note_on_c, 0, 71, 65
1, 457346, Note_off_c, 0, 59, 61
1, 457358, Note_off_c, 0, 71, 63
1, 457373, Note_on_c, 0, 66, 62
1, 457407, Note_off_c, 0, 66, 58
1, 457456, Note_on_c, 0, 70, 68
1, 457469, Note_on_c, 0, 54, 53
1, 457496, Note_off_c, 0, 70, 59
1, 457524, Note_on_c, 0, 71, 60
1, 457575, Note_off_c, 0, 71, 56
1, 457589, Note_on_c, 0, 73, 68
1, 457617, Note_off_c, 0, 54, 64
1, 457650, Note_off_c, 0, 73, 62
1, 457659, Note_on_c, 0, 74, 75
1, 457727, Note_off_c, 0, 74, 64
1, 457735, Note_on_c, 0, 73, 72
1, 457796, Note_off_c, 0, 73, 61
1, 457803, Note_on_c, 0, 74, 72
1, 457869, Control_c, 0, 67, 100
1, 457879, Note_on_c, 0, 73, 80
1, 457881, Note_on_c, 0, 54, 76
1, 457883, Control_c, 0, 67, 65
1, 457892, Note_off_c, 0, 74, 58
1, 457898, Control_c, 0, 67, 32
1, 457921, Control_c, 0, 67, 0
1, 457935, Note_off_c, 0, 54, 62
1, 457951, Note_on_c, 0, 55, 75
1, 458002, Note_off_c, 0, 55, 59
1, 458018, Note_on_c, 0, 54, 76
1, 458036, Note_off_c, 0, 54, 68
1, 458046, Note_on_c, 0, 53, 61
1, 458069, Note_off_c, 0, 53, 63
1, 458088, Note_on_c, 0, 52, 82
1, 458139, Note_off_c, 0, 73, 61
1, 458144, Note_off_c, 0, 52, 60
1, 458159, Note_on_c, 0, 50, 73
1, 458208, Note_on_c, 0, 49, 78
1, 458216, Note_off_c, 0, 50, 65
1, 458249, Note_off_c, 0, 49, 62
1, 458275, Note_on_c, 0, 47, 78
1, 458294, Note_on_c, 0, 74, 82
1, 458298, Note_off_c, 0, 47, 68
1, 458344, Note_off_c, 0, 74, 64
1, 458367, Note_on_c, 0, 83, 74
1, 458410, Note_off_c, 0, 83, 63
1, 458428, Note_on_c, 0, 66, 77
1, 458447, Note_on_c, 0, 74, 73
1, 458452, Note_off_c, 0, 66, 66
1, 458486, Note_off_c, 0, 74, 60
1, 458505, Note_on_c, 0, 83, 65
1, 458546, Note_off_c, 0, 83, 65
1, 458567, Note_on_c, 0, 66, 65
1, 458579, Note_on_c, 0, 74, 75
1, 458589, Note_off_c, 0, 66, 66
1, 458619, Note_off_c, 0, 74, 62
1, 458639, Note_on_c, 0, 83, 69
1, 458684, Note_off_c, 0, 83, 65
1, 458702, Note_on_c, 0, 67, 75
1, 458714, Note_on_c, 0, 74, 81
1, 458721, Note_on_c, 0, 69, 69
1, 458733, Note_off_c, 0, 67, 0
1, 458750, Note_off_c, 0, 69, 62
1, 458764, Note_off_c, 0, 74, 63
1, 458769, Note_on_c, 0, 83, 67
1, 458771, Poly_aftertouch_c, 0, 67, 127
1, 458818, Note_off_c, 0, 83, 64
1, 458827, Poly_aftertouch_c, 0, 67, 0
1, 458853, Note_on_c, 0, 66, 58
1, 458853, Note_on_c, 0, 74, 75
1, 458883, Note_off_c, 0, 66, 64
1, 458893, Note_off_c, 0, 74, 63
1, 458918, Note_on_c, 0, 83, 67
1, 458958, Note_off_c, 0, 83, 64
1, 458994, Note_on_c, 0, 66, 54
1, 458997, Note_on_c, 0, 74, 70
1, 459017, Note_off_c, 0, 66, 62
1, 459023, Note_off_c, 0, 74, 68
1, 459054, Note_on_c, 0, 83, 63
1, 459093, Note_off_c, 0, 83, 62
1, 459124, Note_on_c, 0, 67, 75
1, 459125, Note_on_c, 0, 73, 83
1, 459139, Note_on_c, 0, 69, 67
1, 459165, Note_off_c, 0, 73, 62
1, 459167, Note_off_c, 0, 69, 66
1, 459182, Note_on_c, 0, 83, 67
1, 459222, Note_off_c, 0, 67, 48
1, 459236, Note_off_c, 0, 83, 64
1, 459260, Note_on_c, 0, 66, 64
1, 459265, Note_on_c, 0, 73, 81
1, 459288, Note_off_c, 0, 66, 65
1, 459313, Note_off_c, 0, 73, 61
1, 459340, Note_on_c, 0, 83, 54
1, 459379, Note_off_c, 0, 83, 63
1, 459418, Note_on_c, 0, 66, 67
1, 459421, Note_on_c, 0, 73, 75
1, 459444, Note_off_c, 0, 66, 66
1, 459456, Note_off_c, 0, 73, 57
1, 459501, Note_on_c, 0, 83, 54
1, 459531, Note_off_c, 0, 83, 58
1, 459548, Note_on_c, 0, 66, 67
1, 459565, Note_on_c, 0, 73, 76
1, 459604, Note_off_c, 0, 73, 60
1, 459631, Note_on_c, 0, 81, 69
1, 459674, Note_off_c, 0, 81, 61
1, 459703, Note_on_c, 0, 73, 74
1, 459738, Note_off_c, 0, 73, 60
1, 459766, Note_on_c, 0, 81, 63
1, 459805, Note_off_c, 0, 81, 63
1, 459839, Note_on_c, 0, 73, 75
1, 459844, Note_off_c, 0, 66, 60
1, 459851, Note_on_c, 0, 67, 62
1, 459879, Note_off_c, 0, 73, 58
1, 459893, Note_off_c, 0, 67, 61
1, 459901, Note_on_c, 0, 81, 66
1, 459912, Note_on_c, 0, 69, 72
1, 459948, Note_off_c, 0, 81, 57
1, 459954, Note_off_c, 0, 69, 63
1, 459976, Note_on_c, 0, 75, 83
1, 459981, Note_on_c, 0, 71, 67
1, 460006, Note_off_c, 0, 71, 67
1, 460035, Note_off_c, 0, 75, 63
1, 460043, Note_on_c, 0, 81, 70
1, 460096, Note_off_c, 0, 81, 53
1, 460106, Note_on_c, 0, 76, 83
1, 460112, Note_on_c, 0, 64, 73
1, 460136, Note_off_c, 0, 64, 70
1, 460169, Note_off_c, 0, 76, 60
1, 460188, Note_on_c, 0, 79, 71
1, 460246, Note_off_c, 0, 79, 62
1, 460250, Note_on_c, 0, 64, 62
1, 460270, Note_on_c, 0, 76, 67
1, 460279, Note_off_c, 0, 64, 66
1, 460303, Note_off_c, 0, 76, 61
1, 460316, Note_on_c, 0, 79, 63
1, 460361, Note_off_c, 0, 79, 62
1, 460381, Note_on_c, 0, 66, 70
1, 460383, Note_on_c, 0, 71, 87
1, 460391, Note_on_c, 0, 67, 68
1, 460428, Note_off_c, 0, 67, 56
1, 460431, Note_off_c, 0, 71, 63
1, 460449, Note_on_c, 0, 79, 74
1, 460488, Note_off_c, 0, 66, 25
1, 460492, Note_off_c, 0, 79, 61
1, 460516, Note_on_c, 0, 64, 63
1, 460526, Note_on_c, 0, 71, 80
1, 460544, Note_off_c, 0, 64, 68
1, 460569, Note_off_c, 0, 71, 65
1, 460587, Note_on_c, 0, 79, 65
1, 460631, Note_off_c, 0, 79, 60
1, 460648, Note_on_c, 0, 64, 70
1, 460658, Note_on_c, 0, 73, 79
1, 460670, Note_off_c, 0, 64, 70
1, 460687, Note_off_c, 0, 73, 59
1, 460735, Note_on_c, 0, 79, 65
1, 460767, Note_off_c, 0, 79, 63
1, 460786, Note_on_c, 0, 64, 77
1, 460800, Note_on_c, 0, 69, 85
1, 460802, Control_c, 0, 64, 35
1, 460813, Note_on_c, 0, 66, 71
1, 460813, Note_off_c, 0, 64, 63
1, 460817, Control_c, 0, 64, 11
1, 460832, Control_c, 0, 64, 0
1, 460842, Note_off_c, 0, 66, 58
1, 460849, Note_off_c, 0, 69, 62
1, 460862, Note_on_c, 0, 79, 72
1, 460884, Note_on_c, 0, 64, 25
1, 460906, Note_off_c, 0, 79, 58
1, 460923, Note_off_c, 0, 64, 56
1, 460927, Note_on_c, 0, 62, 66
1, 460944, Note_on_c, 0, 69, 76
1, 460961, Note_off_c, 0, 62, 63
1, 460986, Note_off_c, 0, 69, 63
1, 461007, Note_on_c, 0, 79, 65
1, 461038, Note_off_c, 0, 79, 60
1, 461073, Note_on_c, 0, 62, 67
1, 461077, Note_on_c, 0, 69, 70
1, 461100, Note_off_c, 0, 62, 65
1, 461120, Note_off_c, 0, 69, 63
1, 461140, Note_on_c, 0, 79, 68
1, 461180, Note_off_c, 0, 79, 62
1, 461215, Note_on_c, 0, 62, 71
1, 461224, Note_on_c, 0, 69, 69
1, 461260, Note_off_c, 0, 69, 57
1, 461286, Note_on_c, 0, 78, 66
1, 461323, Note_off_c, 0, 78, 61
1, 461362, Note_on_c, 0, 69, 66
1, 461406, Note_off_c, 0, 69, 59
1, 461430, Note_on_c, 0, 78, 59
1, 461471, Note_off_c, 0, 78, 60
1, 461512, Note_off_c, 0, 62, 60
1, 461513, Note_on_c, 0, 69, 62
1, 461525, Note_on_c, 0, 64, 60
1, 461541, Note_off_c, 0, 69, 68
1, 461579, Note_on_c, 0, 78, 58
1, 461580, Note_off_c, 0, 64, 60
1, 461586, Note_on_c, 0, 66, 66
1, 461611, Note_off_c, 0, 78, 65
1, 461624, Note_off_c, 0, 66, 61
1, 461638, Note_on_c, 0, 67, 70
1, 461653, Note_on_c, 0, 71, 72
1, 461672, Note_off_c, 0, 67, 67
1, 461685, Note_off_c, 0, 71, 62
1, 461715, Note_on_c, 0, 78, 63
1, 461761, Note_off_c, 0, 78, 57
1, 461782, Note_on_c, 0, 71, 73
1, 461797, Note_on_c, 0, 55, 65
1, 461825, Note_off_c, 0, 55, 66
1, 461829, Note_off_c, 0, 71, 63
1, 461853, Note_on_c, 0, 76, 70
1, 461915, Note_off_c, 0, 76, 58
1, 461929, Note_on_c, 0, 55, 62
1, 461935, Note_on_c, 0, 71, 67
1, 461960, Note_off_c, 0, 71, 71
1, 461965, Note_off_c, 0, 55, 63
1, 461978, Note_on_c, 0, 75, 69
1, 462018, Note_off_c, 0, 75, 62
1, 462064, Note_on_c, 0, 55, 67
1, 462065, Note_on_c, 0, 76, 87
1, 462106, Note_off_c, 0, 76, 63
1, 462124, Note_on_c, 0, 83, 75
1, 462178, Note_off_c, 0, 83, 59
1, 462208, Note_on_c, 0, 76, 78
1, 462250, Note_off_c, 0, 76, 62
1, 462268, Note_on_c, 0, 81, 68
1, 462307, Note_off_c, 0, 55, 55
1, 462330, Note_off_c, 0, 81, 56
1, 462351, Note_on_c, 0, 57, 60
1, 462359, Note_on_c, 0, 76, 72
1, 462404, Note_off_c, 0, 76, 58
1, 462419, Note_on_c, 0, 80, 61
1, 462424, Note_off_c, 0, 57, 59
1, 462428, Note_on_c, 0, 59, 66
1, 462475, Note_off_c, 0, 80, 62
1, 462476, Note_off_c, 0, 59, 57
1, 462506, Note_on_c, 0, 61, 66
1, 462506, Note_on_c, 0, 76, 74
1, 462530, Note_off_c, 0, 61, 64
1, 462540, Note_off_c, 0, 76, 60
1, 462563, Note_on_c, 0, 81, 71
1, 462613, Note_off_c, 0, 81, 60
1, 462634, Note_on_c, 0, 54, 67
1, 462638, Note_on_c, 0, 74, 73
1, 462661, Note_off_c, 0, 54, 67
1, 462668, Note_off_c, 0, 74, 65
1, 462698, Note_on_c, 0, 81, 67
1, 462744, Note_off_c, 0, 81, 61
1, 462760, Note_on_c, 0, 54, 59
1, 462772, Note_on_c, 0, 73, 76
1, 462787, Note_off_c, 0, 54, 66
1, 462818, Note_off_c, 0, 73, 58
1, 462841, Note_on_c, 0, 81, 63
1, 462910, Note_off_c, 0, 81, 62
1, 462917, Note_on_c, 0, 54, 63
1, 462918, Note_on_c, 0, 79, 74
1, 462970, Note_off_c, 0, 79, 51
1, 462987, Note_on_c, 0, 82, 76
1, 463049, Note_off_c, 0, 82, 64
1, 463059, Note_on_c, 0, 78, 73
1, 463117, Note_off_c, 0, 78, 62
1, 463123, Note_on_c, 0, 83, 73
1, 463188, Note_off_c, 0, 83, 64
1, 463209, Note_on_c, 0, 56, 67
1, 463209, Note_off_c, 0, 54, 62
1, 463211, Note_on_c, 0, 76, 75
1, 463252, Note_off_c, 0, 76, 63
1, 463273, Note_off_c, 0, 56, 63
1, 463274, Note_on_c, 0, 85, 78
1, 463277, Note_on_c, 0, 58, 73
1, 463314, Note_off_c, 0, 85, 63
1, 463319, Note_off_c, 0, 58, 59
1, 463343, Note_on_c, 0, 59, 64
1, 463348, Note_on_c, 0, 74, 85
1, 463370, Note_off_c, 0, 59, 66
1, 463392, Note_off_c, 0, 74, 65
1, 463415, Note_on_c, 0, 85, 79
1, 463468, Note_off_c, 0, 85, 63
1, 463493, Note_on_c, 0, 74, 76
1, 463494, Note_on_c, 0, 54, 59
1, 463522, Note_off_c, 0, 54, 65
1, 463534, Note_off_c, 0, 74, 65
1, 463564, Note_on_c, 0, 85, 67
1, 463600, Note_off_c, 0, 85, 59
1, 463628, Note_on_c, 0, 55, 62
1, 463637, Note_on_c, 0, 74, 65
1, 463659, Note_off_c, 0, 55, 64
1, 463666, Note_off_c, 0, 74, 68
1, 463698, Note_on_c, 0, 83, 74
1, 463746, Note_off_c, 0, 83, 63
1, 463770, Note_on_c, 0, 52, 54
1, 463779, Note_on_c, 0, 73, 69
1, 463799, Note_off_c, 0, 52, 56
1, 463812, Note_off_c, 0, 73, 61
1, 463840, Note_on_c, 0, 83, 66
1, 463880, Note_off_c, 0, 83, 62
1, 463916, Note_on_c, 0, 49, 74
1, 463922, Note_on_c, 0, 73, 68
1, 463946, Note_off_c, 0, 49, 64
1, 463969, Note_off_c, 0, 73, 62
1, 463990, Note_on_c, 0, 83, 61
1, 464025, Note_off_c, 0, 83, 63
1, 464064, Note_on_c, 0, 66, 81
1, 464065, Note_on_c, 0, 73, 67
1, 464096, Note_off_c, 0, 66, 59
1, 464104, Note_off_c, 0, 73, 53
1, 464132, Note_on_c, 0, 81, 61
1, 464181, Note_off_c, 0, 81, 62
1, 464205, Note_on_c, 0, 63, 62
1, 464217, Note_on_c, 0, 71, 63
1, 464238, Note_off_c, 0, 63, 64
1, 464249, Note_off_c, 0, 71, 62
1, 464280, Note_on_c, 0, 81, 64
1, 464320, Note_off_c, 0, 81, 61
1, 464348, Note_on_c, 0, 71, 62
1, 464355, Note_on_c, 0, 59, 51
1, 464384, Note_off_c, 0, 59, 56
1, 464392, Note_off_c, 0, 71, 63
1, 464419, Note_on_c, 0, 81, 65
1, 464450, Note_off_c, 0, 81, 61
1, 464490, Note_on_c, 0, 64, 55
1, 464497, Note_on_c, 0, 71, 55
1, 464520, Note_off_c, 0, 71, 62
1, 464528, Note_off_c, 0, 64, 63
1, 464554, Note_on_c, 0, 79, 64
1, 464591, Note_off_c, 0, 79, 60
1, 464635, Note_on_c, 0, 69, 62
1, 464636, Note_on_c, 0, 61, 59
1, 464678, Note_off_c, 0, 69, 61
1, 464679, Note_off_c, 0, 61, 61
1, 464703, Note_on_c, 0, 79, 67
1, 464732, Note_off_c, 0, 79, 63
1, 464778, Note_on_c, 0, 69, 67
1, 464781, Note_on_c, 0, 57, 67
1, 464809, Note_off_c, 0, 57, 64
1, 464819, Note_off_c, 0, 69, 60
1, 464835, Note_on_c, 0, 79, 67
1, 464873, Note_off_c, 0, 79, 62
1, 464915, Note_on_c, 0, 50, 87
1, 464921, Note_on_c, 0, 69, 64
1, 464954, Note_off_c, 0, 50, 64
1, 464955, Note_off_c, 0, 69, 62
1, 464981, Note_on_c, 0, 78, 74
1, 465035, Note_off_c, 0, 78, 63
1, 465054, Note_on_c, 0, 47, 92
1, 465068, Note_on_c, 0, 67, 69
1, 465093, Note_off_c, 0, 47, 66
1, 465105, Note_off_c, 0, 67, 59
1, 465127, Note_on_c, 0, 78, 68
1, 465177, Note_off_c, 0, 78, 62
1, 465192, Note_on_c, 0, 43, 91
1, 465206, Note_on_c, 0, 67, 71
1, 465235, Note_off_c, 0, 43, 64
1, 465239, Note_off_c, 0, 67, 62
1, 465268, Note_on_c, 0, 78, 64
1, 465317, Note_off_c, 0, 78, 56
1, 465331, Note_on_c, 0, 49, 96
1, 465347, Note_on_c, 0, 67, 58
1, 465373, Note_off_c, 0, 67, 62
1, 465375, Note_off_c, 0, 49, 63
1, 465418, Note_on_c, 0, 76, 69
1, 465467, Note_off_c, 0, 76, 62
1, 465481, Control_c, 0, 67, 11
1, 465482, Note_on_c, 0, 46, 87
1, 465492, Note_on_c, 0, 66, 74
1, 465496, Control_c, 0, 67, 52
1, 465510, Control_c, 0, 67, 120
1, 465522, Note_off_c, 0, 46, 56
1, 465525, Control_c, 0, 67, 127
1, 465541, Note_off_c, 0, 66, 58
1, 465563, Note_on_c, 0, 76, 64
1, 465603, Note_off_c, 0, 76, 62
1, 465621, Note_on_c, 0, 42, 75
1, 465646, Note_on_c, 0, 66, 62
1, 465650, Note_off_c, 0, 42, 64
1, 465681, Note_off_c, 0, 66, 61
1, 465698, Note_on_c, 0, 76, 54
1, 465743, Note_off_c, 0, 76, 60
1, 465772, Note_on_c, 0, 59, 67
1, 465782, Note_on_c, 0, 66, 64
1, 465803, Note_off_c, 0, 59, 59
1, 465815, Note_off_c, 0, 66, 63
1, 465851, Note_on_c, 0, 74, 57
1, 465885, Note_off_c, 0, 74, 67
1, 465908, Note_on_c, 0, 56, 65
1, 465923, Note_on_c, 0, 64, 59
1, 465943, Note_off_c, 0, 56, 62
1, 465961, Note_off_c, 0, 64, 64
1, 465986, Note_on_c, 0, 74, 64
1, 466019, Note_off_c, 0, 74, 63
1, 466048, Note_on_c, 0, 52, 63
1, 466080, Note_off_c, 0, 52, 64
1, 466080, Note_on_c, 0, 64, 41
1, 466107, Note_off_c, 0, 64, 58
1, 466119, Note_on_c, 0, 74, 64
1, 466165, Note_off_c, 0, 74, 62
1, 466190, Note_on_c, 0, 64, 62
1, 466200, Note_on_c, 0, 57, 62
1, 466232, Note_off_c, 0, 64, 62
1, 466239, Note_off_c, 0, 57, 59
1, 466269, Note_on_c, 0, 72, 59
1, 466299, Note_off_c, 0, 72, 64
1, 466338, Note_on_c, 0, 62, 63
1, 466342, Note_on_c, 0, 54, 64
1, 466372, Note_off_c, 0, 54, 63
1, 466375, Note_off_c, 0, 62, 61
1, 466405, Note_on_c, 0, 72, 60
1, 466431, Note_off_c, 0, 72, 67
1, 466470, Note_on_c, 0, 50, 62
1, 466474, Note_on_c, 0, 62, 61
1, 466502, Note_off_c, 0, 50, 66
1, 466510, Note_off_c, 0, 62, 61
1, 466527, Note_on_c, 0, 72, 63
1, 466569, Note_off_c, 0, 72, 61
1, 466606, Note_on_c, 0, 55, 65
1, 466616, Note_on_c, 0, 62, 64
1, 466633, Note_off_c, 0, 55, 66
1, 466649, Note_off_c, 0, 62, 60
1, 466671, Note_on_c, 0, 71, 58
1, 466720, Note_off_c, 0, 71, 54
1, 466769, Note_on_c, 0, 48, 63
1, 466780, Note_on_c, 0, 64, 56
1, 466786, Note_on_c, 0, 36, 49
1, 466823, Note_off_c, 0, 64, 62
1, 466831, Note_on_c, 0, 71, 63
1, 466913, Note_on_c, 0, 69, 75
1, 466916, Note_off_c, 0, 71, 64
1, 466985, Note_on_c, 0, 68, 82
1, 466987, Note_off_c, 0, 69, 62
1, 467043, Note_off_c, 0, 68, 63
1, 467055, Note_on_c, 0, 69, 78
1, 467118, Note_on_c, 0, 71, 87
1, 467120, Note_off_c, 0, 69, 63
1, 467194, Note_on_c, 0, 72, 82
1, 467204, Note_off_c, 0, 71, 62
1, 467267, Note_on_c, 0, 74, 81
1, 467268, Note_off_c, 0, 72, 64
1, 467341, Note_off_c, 0, 74, 66
1, 467342, Note_on_c, 0, 76, 80
1, 467350, Control_c, 0, 64, 29
1, 467365, Control_c, 0, 64, 49
1, 467367, Note_off_c, 0, 36, 58
1, 467380, Control_c, 0, 64, 60
1, 467395, Control_c, 0, 64, 65
1, 467408, Note_on_c, 0, 72, 77
1, 467409, Control_c, 0, 64, 67
1, 467419, Note_off_c, 0, 76, 60
1, 467424, Control_c, 0, 64, 70
1, 467439, Control_c, 0, 64, 72
1, 467454, Control_c, 0, 64, 75
1, 467469, Control_c, 0, 64, 78
1, 467484, Note_off_c, 0, 72, 62
1, 467484, Control_c, 0, 64, 79
1, 467484, Note_on_c, 0, 71, 71
1, 467499, Control_c, 0, 64, 81
1, 467514, Control_c, 0, 64, 83
1, 467519, Note_off_c, 0, 71, 64
1, 467529, Control_c, 0, 64, 85
1, 467537, Note_on_c, 0, 69, 65
1, 467543, Control_c, 0, 64, 86
1, 467555, Note_off_c, 0, 69, 65
1, 467558, Control_c, 0, 64, 87
1, 467573, Control_c, 0, 64, 87
1, 467626, Note_on_c, 0, 67, 82
1, 467639, Control_c, 0, 64, 87
1, 467647, Note_off_c, 0, 48, 60
1, 467654, Control_c, 0, 64, 86
1, 467657, Note_on_c, 0, 59, 63
1, 467669, Control_c, 0, 64, 84
1, 467684, Control_c, 0, 64, 82
1, 467698, Control_c, 0, 64, 78
1, 467713, Control_c, 0, 64, 74
1, 467728, Control_c, 0, 64, 68
1, 467743, Control_c, 0, 64, 61
1, 467758, Control_c, 0, 64, 0
1, 467796, Note_on_c, 0, 50, 61
1, 467831, Note_off_c, 0, 50, 64
1, 467862, Note_off_c, 0, 59, 49
1, 467934, Note_on_c, 0, 50, 53
1, 467967, Note_off_c, 0, 50, 65
1, 468077, Note_off_c, 0, 67, 59
1, 468093, Note_on_c, 0, 50, 54
1, 468093, Note_on_c, 0, 66, 58
1, 468104, Note_on_c, 0, 57, 46
1, 468128, Control_c, 0, 67, 97
1, 468129, Note_off_c, 0, 50, 66
1, 468143, Control_c, 0, 67, 23
1, 468155, Note_on_c, 0, 52, 70
1, 468158, Control_c, 0, 67, 0
1, 468204, Note_off_c, 0, 52, 59
1, 468223, Note_on_c, 0, 50, 60
1, 468259, Note_off_c, 0, 50, 66
1, 468270, Note_off_c, 0, 57, 38
1, 468287, Note_on_c, 0, 48, 75
1, 468335, Note_off_c, 0, 48, 59
1, 468351, Note_off_c, 0, 66, 63
1, 468355, Note_on_c, 0, 47, 66
1, 468420, Note_off_c, 0, 47, 64
1, 468436, Note_on_c, 0, 45, 62
1, 468492, Note_off_c, 0, 45, 59
1, 468511, Note_on_c, 0, 43, 56
1, 468673, Note_on_c, 0, 74, 52
1, 468713, Note_off_c, 0, 74, 58
1, 468807, Note_on_c, 0, 74, 63
1, 468833, Note_off_c, 0, 43, 38
1, 468855, Note_off_c, 0, 74, 63
1, 468945, Note_on_c, 0, 74, 77
1, 468995, Note_off_c, 0, 74, 65
1, 469082, Note_on_c, 0, 74, 83
1, 469129, Note_off_c, 0, 74, 63
1, 469227, Note_on_c, 0, 74, 86
1, 469275, Note_off_c, 0, 74, 65
1, 469379, Note_on_c, 0, 74, 72
1, 469515, Note_on_c, 0, 60, 49
1, 469517, Note_on_c, 0, 62, 49
1, 469526, Note_on_c, 0, 57, 44
1, 469552, Note_off_c, 0, 62, 57
1, 469553, Note_off_c, 0, 60, 62
1, 469556, Note_off_c, 0, 57, 58
1, 469566, Control_c, 0, 67, 9
1, 469581, Control_c, 0, 67, 26
1, 469596, Control_c, 0, 67, 50
1, 469611, Control_c, 0, 67, 76
1, 469626, Control_c, 0, 67, 102
1, 469640, Control_c, 0, 67, 127
1, 469648, Note_on_c, 0, 60, 51
1, 469650, Note_on_c, 0, 57, 46
1, 469651, Note_on_c, 0, 62, 49
1, 469690, Note_off_c, 0, 60, 62
1, 469693, Note_off_c, 0, 62, 59
1, 469693, Note_off_c, 0, 57, 61
1, 469800, Note_on_c, 0, 66, 53
1, 469801, Note_on_c, 0, 60, 47
1, 469802, Note_on_c, 0, 62, 46
1, 469803, Note_on_c, 0, 57, 43
1, 469838, Note_off_c, 0, 60, 63
1, 469839, Note_off_c, 0, 74, 40
1, 469841, Note_off_c, 0, 57, 60
1, 469843, Note_off_c, 0, 62, 55
1, 469946, Note_on_c, 0, 62, 48
1, 469948, Note_on_c, 0, 57, 43
1, 469949, Note_on_c, 0, 60, 44
1, 469987, Note_off_c, 0, 60, 62
1, 469991, Note_off_c, 0, 62, 54
1, 469991, Note_off_c, 0, 57, 61
1, 470089, Note_on_c, 0, 60, 43
1, 470090, Note_on_c, 0, 57, 45
1, 470095, Note_on_c, 0, 62, 44
1, 470126, Note_off_c, 0, 60, 63
1, 470127, Note_off_c, 0, 62, 53
1, 470130, Note_off_c, 0, 57, 59
1, 470238, Note_on_c, 0, 62, 40
1, 470250, Note_on_c, 0, 59, 47
1, 470266, Note_off_c, 0, 66, 59
1, 470388, Note_on_c, 0, 67, 58
1, 470420, Note_off_c, 0, 67, 64
1, 470515, Note_on_c, 0, 71, 77
1, 470537, Note_off_c, 0, 71, 66
1, 470547, Note_off_c, 0, 62, 49
1, 470576, Note_off_c, 0, 59, 52
1, 470651, Note_on_c, 0, 74, 87
1, 470694, Note_off_c, 0, 74, 63
1, 470784, Note_on_c, 0, 79, 88
1, 470822, Note_off_c, 0, 79, 63
1, 470916, Note_on_c, 0, 83, 81
1, 470954, Note_off_c, 0, 83, 66
1, 471072, Note_on_c, 0, 86, 66
1, 471211, Note_on_c, 0, 54, 52
1, 471216, Note_on_c, 0, 62, 40
1, 471221, Note_on_c, 0, 57, 40
1, 471250, Note_off_c, 0, 54, 61
1, 471252, Note_off_c, 0, 62, 51
1, 471253, Note_off_c, 0, 57, 56
1, 471349, Note_on_c, 0, 57, 52
1, 471359, Note_on_c, 0, 54, 43
1, 471360, Note_on_c, 0, 62, 44
1, 471398, Note_off_c, 0, 54, 58
1, 471398, Note_off_c, 0, 57, 63
1, 471400, Note_off_c, 0, 62, 53
1, 471506, Note_on_c, 0, 54, 48
1, 471511, Note_on_c, 0, 62, 46
1, 471514, Note_on_c, 0, 57, 45
1, 471522, Note_on_c, 0, 84, 47
1, 471547, Note_off_c, 0, 57, 60
1, 471550, Note_off_c, 0, 62, 52
1, 471552, Note_off_c, 0, 86, 39
1, 471552, Note_off_c, 0, 54, 61
1, 471650, Note_on_c, 0, 62, 44
1, 471655, Note_on_c, 0, 54, 46
1, 471655, Note_on_c, 0, 57, 31
1, 471688, Note_off_c, 0, 54, 58
1, 471690, Note_off_c, 0, 62, 51
1, 471693, Note_off_c, 0, 57, 55
1, 471776, Note_on_c, 0, 54, 53
1, 471782, Note_on_c, 0, 57, 43
1, 471786, Note_on_c, 0, 62, 41
1, 471823, Note_off_c, 0, 57, 61
1, 471830, Note_off_c, 0, 54, 60
1, 471830, Note_off_c, 0, 62, 53
1, 471844, Note_off_c, 0, 84, 60
1, 471925, Note_on_c, 0, 62, 59
1, 471928, Note_on_c, 0, 55, 59
1, 471955, Note_off_c, 0, 62, 64
1, 471959, Note_off_c, 0, 55, 64
1, 472092, Note_on_c, 0, 83, 57
1, 472141, Note_off_c, 0, 83, 60
1, 472152, Note_on_c, 0, 84, 63
1, 472212, Note_off_c, 0, 84, 64
1, 472225, Note_on_c, 0, 86, 64
1, 472280, Note_on_c, 0, 83, 58
1, 472307, Note_off_c, 0, 86, 55
1, 472338, Note_off_c, 0, 83, 64
1, 472352, Note_on_c, 0, 59, 56
1, 472352, Note_on_c, 0, 62, 56
1, 472352, Note_on_c, 0, 79, 68
1, 472375, Note_off_c, 0, 59, 60
1, 472376, Note_off_c, 0, 62, 62
1, 472376, Note_off_c, 0, 79, 67
1, 472530, Note_on_c, 0, 79, 58
1, 472569, Note_off_c, 0, 79, 61
1, 472580, Note_on_c, 0, 81, 64
1, 472641, Note_on_c, 0, 83, 72
1, 472641, Note_off_c, 0, 81, 61
1, 472703, Note_on_c, 0, 79, 69
1, 472727, Note_off_c, 0, 83, 62
1, 472753, Note_on_c, 0, 60, 67
1, 472755, Note_on_c, 0, 67, 62
1, 472756, Note_off_c, 0, 79, 61
1, 472768, Note_on_c, 0, 76, 72
1, 472778, Note_off_c, 0, 60, 67
1, 472778, Note_off_c, 0, 67, 64
1, 472792, Note_off_c, 0, 76, 67
1, 472936, Note_on_c, 0, 76, 72
1, 473000, Note_on_c, 0, 78, 75
1, 473002, Note_off_c, 0, 76, 61
1, 473070, Note_on_c, 0, 79, 78
1, 473070, Note_off_c, 0, 78, 63
1, 473127, Note_on_c, 0, 76, 68
1, 473164, Note_off_c, 0, 79, 60
1, 473182, Note_off_c, 0, 76, 62
1, 473183, Note_on_c, 0, 67, 64
1, 473184, Note_on_c, 0, 73, 81
1, 473185, Note_on_c, 0, 64, 66
1, 473210, Note_off_c, 0, 64, 66
1, 473211, Note_off_c, 0, 67, 66
1, 473219, Note_off_c, 0, 73, 63
1, 473221, Control_c, 0, 67, 109
1, 473236, Control_c, 0, 67, 73
1, 473251, Control_c, 0, 67, 26
1, 473266, Control_c, 0, 67, 0
1, 473344, Note_on_c, 0, 73, 67
1, 473399, Note_off_c, 0, 73, 60
1, 473400, Note_on_c, 0, 74, 77
1, 473461, Note_off_c, 0, 74, 65
1, 473474, Note_on_c, 0, 76, 65
1, 473517, Note_off_c, 0, 76, 63
1, 473530, Note_on_c, 0, 73, 66
1, 473602, Note_off_c, 0, 73, 60
1, 473619, Note_on_c, 0, 74, 67
1, 473651, Note_on_c, 0, 62, 34
1, 473780, Note_on_c, 0, 76, 78
1, 473791, Note_on_c, 0, 61, 46
1, 473816, Note_off_c, 0, 62, 40
1, 473833, Note_off_c, 0, 74, 57
1, 473923, Note_on_c, 0, 78, 84
1, 473924, Note_on_c, 0, 60, 59
1, 473940, Note_off_c, 0, 61, 54
1, 473991, Note_off_c, 0, 76, 58
1, 474059, Note_on_c, 0, 79, 75
1, 474060, Note_off_c, 0, 78, 66
1, 474060, Note_on_c, 0, 59, 64
1, 474072, Note_off_c, 0, 60, 49
1, 474095, Note_off_c, 0, 79, 61
1, 474195, Note_on_c, 0, 76, 72
1, 474197, Note_on_c, 0, 60, 51
1, 474202, Note_off_c, 0, 59, 35
1, 474215, Note_off_c, 0, 76, 63
1, 474236, Control_c, 0, 67, 12
1, 474251, Control_c, 0, 67, 29
1, 474266, Control_c, 0, 67, 55
1, 474271, Note_off_c, 0, 60, 43
1, 474281, Control_c, 0, 67, 83
1, 474296, Control_c, 0, 67, 109
1, 474310, Control_c, 0, 67, 127
1, 474327, Note_on_c, 0, 72, 57
1, 474343, Note_on_c, 0, 64, 44
1, 474346, Note_off_c, 0, 72, 63
1, 474483, Note_on_c, 0, 71, 62
1, 474486, Note_on_c, 0, 67, 57
1, 474500, Note_off_c, 0, 64, 52
1, 474624, Note_on_c, 0, 62, 66
1, 474664, Note_off_c, 0, 62, 60
1, 474761, Note_on_c, 0, 62, 76
1, 474799, Note_off_c, 0, 62, 58
1, 474921, Note_off_c, 0, 67, 54
1, 474927, Note_on_c, 0, 66, 54
1, 474931, Note_off_c, 0, 71, 55
1, 474935, Note_on_c, 0, 62, 54
1, 474937, Note_on_c, 0, 69, 57
1, 474981, Note_off_c, 0, 62, 61
1, 475004, Note_on_c, 0, 64, 69
1, 475012, Note_off_c, 0, 66, 58
1, 475058, Note_off_c, 0, 64, 64
1, 475076, Note_on_c, 0, 62, 66
1, 475108, Note_off_c, 0, 62, 62
1, 475145, Note_on_c, 0, 60, 78
1, 475164, Note_off_c, 0, 69, 64
1, 475195, Note_off_c, 0, 60, 64
1, 475210, Note_on_c, 0, 59, 67
1, 475270, Note_off_c, 0, 59, 61
1, 475281, Note_on_c, 0, 57, 67
1, 475355, Note_on_c, 0, 55, 64
1, 475359, Note_off_c, 0, 57, 57
1, 475503, Note_on_c, 0, 74, 73
1, 475550, Note_off_c, 0, 74, 63
1, 475640, Note_on_c, 0, 74, 85
1, 475686, Note_off_c, 0, 74, 64
1, 475720, Note_off_c, 0, 55, 60
1, 475771, Note_on_c, 0, 76, 74
1, 475796, Note_off_c, 0, 76, 64
1, 475799, Note_on_c, 0, 78, 70
1, 475847, Note_off_c, 0, 78, 66
1, 475849, Note_on_c, 0, 76, 73
1, 475910, Note_off_c, 0, 76, 61
1, 475920, Note_on_c, 0, 74, 57
1, 475941, Note_off_c, 0, 74, 63
1, 476047, Note_on_c, 0, 74, 65
1, 476090, Note_off_c, 0, 74, 64
1, 476212, Note_on_c, 0, 74, 62
1, 476357, Note_on_c, 0, 60, 47
1, 476358, Note_on_c, 0, 57, 43
1, 476358, Note_on_c, 0, 62, 36
1, 476392, Note_off_c, 0, 60, 63
1, 476396, Note_off_c, 0, 62, 51
1, 476400, Note_off_c, 0, 57, 62
1, 476497, Note_on_c, 0, 57, 48
1, 476499, Note_on_c, 0, 60, 44
1, 476501, Note_on_c, 0, 62, 41
1, 476533, Note_off_c, 0, 60, 59
1, 476535, Note_off_c, 0, 62, 54
1, 476536, Note_off_c, 0, 57, 62
1, 476652, Note_on_c, 0, 62, 44
1, 476653, Note_on_c, 0, 57, 46
1, 476657, Note_on_c, 0, 66, 46
1, 476659, Note_on_c, 0, 60, 43
1, 476682, Note_off_c, 0, 74, 38
1, 476694, Note_off_c, 0, 60, 63
1, 476696, Note_off_c, 0, 62, 57
1, 476699, Note_off_c, 0, 57, 61
1, 476793, Note_on_c, 0, 60, 52
1, 476793, Note_on_c, 0, 62, 50
1, 476794, Note_on_c, 0, 57, 50
1, 476835, Note_off_c, 0, 60, 62
1, 476836, Note_off_c, 0, 62, 59
1, 476837, Note_off_c, 0, 57, 60
1, 476937, Note_on_c, 0, 57, 53
1, 476938, Note_on_c, 0, 60, 52
1, 476941, Note_on_c, 0, 62, 43
1, 476974, Note_off_c, 0, 60, 64
1, 476975, Note_off_c, 0, 62, 54
1, 476977, Note_off_c, 0, 57, 62
1, 477030, Note_off_c, 0, 66, 60
1, 477079, Note_on_c, 0, 62, 54
1, 477085, Note_on_c, 0, 59, 60
1, 477155, Note_on_c, 0, 67, 56
1, 477193, Note_off_c, 0, 67, 60
1, 477219, Note_on_c, 0, 71, 67
1, 477264, Note_off_c, 0, 71, 64
1, 477301, Note_on_c, 0, 67, 62
1, 477306, Control_c, 0, 64, 23
1, 477321, Control_c, 0, 64, 44
1, 477336, Control_c, 0, 64, 54
1, 477347, Note_off_c, 0, 67, 58
1, 477351, Control_c, 0, 64, 60
1, 477354, Note_on_c, 0, 74, 69
1, 477366, Control_c, 0, 64, 63
1, 477387, Control_c, 0, 64, 65
1, 477402, Control_c, 0, 64, 66
1, 477417, Control_c, 0, 64, 68
1, 477419, Note_off_c, 0, 74, 66
1, 477428, Note_on_c, 0, 71, 72
1, 477432, Control_c, 0, 64, 72
1, 477447, Control_c, 0, 64, 75
1, 477461, Note_off_c, 0, 62, 56
1, 477461, Control_c, 0, 64, 77
1, 477476, Control_c, 0, 64, 79
1, 477481, Note_off_c, 0, 71, 62
1, 477491, Control_c, 0, 64, 81
1, 477499, Note_on_c, 0, 79, 75
1, 477506, Control_c, 0, 64, 82
1, 477509, Note_off_c, 0, 59, 58
1, 477521, Control_c, 0, 64, 82
1, 477534, Note_off_c, 0, 79, 61
1, 477535, Control_c, 0, 64, 83
1, 477568, Note_on_c, 0, 74, 80
1, 477628, Note_off_c, 0, 74, 59
1, 477643, Note_on_c, 0, 83, 61
1, 477697, Note_off_c, 0, 83, 65
1, 477704, Note_on_c, 0, 79, 73
1, 477728, Control_c, 0, 64, 82
1, 477759, Control_c, 0, 64, 82
1, 477759, Note_off_c, 0, 79, 62
1, 477783, Note_on_c, 0, 86, 77
1, 477803, Control_c, 0, 64, 81
1, 477805, Note_off_c, 0, 86, 67
1, 477867, Note_on_c, 0, 86, 84
1, 477891, Note_off_c, 0, 86, 62
1, 477892, Control_c, 0, 64, 80
1, 477907, Control_c, 0, 64, 79
1, 477921, Control_c, 0, 64, 76
1, 477936, Control_c, 0, 64, 70
1, 477945, Note_on_c, 0, 86, 81
1, 477951, Control_c, 0, 64, 64
1, 477966, Control_c, 0, 64, 0
1, 478083, Note_on_c, 0, 57, 52
1, 478086, Note_on_c, 0, 54, 47
1, 478087, Note_on_c, 0, 62, 42
1, 478126, Note_off_c, 0, 54, 62
1, 478129, Note_off_c, 0, 57, 62
1, 478134, Note_off_c, 0, 62, 49
1, 478248, Note_on_c, 0, 54, 39
1, 478251, Note_on_c, 0, 62, 38
1, 478251, Note_on_c, 0, 57, 39
1, 478284, Note_off_c, 0, 57, 58
1, 478286, Note_off_c, 0, 54, 55
1, 478288, Note_off_c, 0, 62, 51
1, 478310, Note_on_c, 0, 85, 66
1, 478323, Note_off_c, 0, 86, 55
1, 478394, Note_off_c, 0, 85, 63
1, 478395, Note_on_c, 0, 84, 59
1, 478397, Note_on_c, 0, 57, 47
1, 478400, Note_on_c, 0, 54, 43
1, 478406, Note_on_c, 0, 62, 36
1, 478440, Note_off_c, 0, 57, 60
1, 478442, Note_off_c, 0, 54, 58
1, 478445, Note_off_c, 0, 62, 51
1, 478545, Note_on_c, 0, 54, 44
1, 478549, Note_on_c, 0, 62, 38
1, 478553, Note_on_c, 0, 57, 42
1, 478586, Note_off_c, 0, 57, 60
1, 478587, Note_off_c, 0, 54, 58
1, 478591, Note_off_c, 0, 62, 50
1, 478689, Note_on_c, 0, 62, 44
1, 478691, Note_on_c, 0, 54, 47
1, 478692, Note_on_c, 0, 57, 42
1, 478728, Note_off_c, 0, 57, 61
1, 478735, Note_off_c, 0, 54, 58
1, 478735, Note_off_c, 0, 62, 51
1, 478775, Note_off_c, 0, 84, 46
1, 478826, Note_on_c, 0, 55, 64
1, 478832, Note_on_c, 0, 62, 58
1, 478861, Note_off_c, 0, 55, 65
1, 478862, Note_off_c, 0, 62, 63
1, 478988, Note_on_c, 0, 83, 59
1, 479033, Note_off_c, 0, 83, 63
1, 479047, Note_on_c, 0, 84, 62
1, 479114, Note_off_c, 0, 84, 61
1, 479125, Note_on_c, 0, 86, 60
1, 479170, Note_on_c, 0, 83, 53
1, 479204, Note_off_c, 0, 86, 60
1, 479230, Note_off_c, 0, 83, 63
1, 479240, Note_on_c, 0, 62, 51
1, 479244, Note_on_c, 0, 59, 50
1, 479250, Note_on_c, 0, 79, 58
1, 479264, Note_off_c, 0, 62, 60
1, 479268, Note_off_c, 0, 59, 58
1, 479274, Note_off_c, 0, 79, 62
1, 479416, Note_on_c, 0, 79, 62
1, 479456, Note_off_c, 0, 79, 59
1, 479469, Note_on_c, 0, 81, 69
1, 479537, Note_off_c, 0, 81, 61
1, 479540, Note_on_c, 0, 83, 65
1, 479591, Note_on_c, 0, 79, 65
1, 479629, Note_off_c, 0, 83, 56
1, 479653, Note_off_c, 0, 79, 62
1, 479666, Note_on_c, 0, 67, 61
1, 479669, Note_on_c, 0, 60, 60
1, 479670, Note_on_c, 0, 76, 72
1, 479694, Note_off_c, 0, 67, 64
1, 479697, Note_off_c, 0, 60, 66
1, 479700, Note_off_c, 0, 76, 63
1, 479826, Note_on_c, 0, 76, 69
1, 479880, Note_on_c, 0, 78, 73
1, 479883, Note_off_c, 0, 76, 61
1, 479953, Note_on_c, 0, 79, 76
1, 479965, Note_off_c, 0, 78, 58
1, 480013, Note_on_c, 0, 76, 64
1, 480042, Note_off_c, 0, 79, 60
1, 480064, Note_off_c, 0, 76, 63
1, 480068, Note_on_c, 0, 73, 82
1, 480070, Note_on_c, 0, 64, 71
1, 480072, Note_on_c, 0, 67, 62
1, 480093, Note_off_c, 0, 67, 63
1, 480094, Note_off_c, 0, 64, 68
1, 480109, Note_off_c, 0, 73, 63
1, 480224, Note_on_c, 0, 73, 71
1, 480227, Control_c, 0, 67, 120
1, 480242, Control_c, 0, 67, 100
1, 480257, Control_c, 0, 67, 73
1, 480272, Control_c, 0, 67, 46
1, 480287, Note_on_c, 0, 74, 71
1, 480287, Control_c, 0, 67, 23
1, 480289, Note_off_c, 0, 73, 60
1, 480302, Control_c, 0, 67, 0
1, 480355, Note_on_c, 0, 76, 69
1, 480357, Note_off_c, 0, 74, 63
1, 480421, Note_on_c, 0, 73, 68
1, 480422, Note_off_c, 0, 76, 61
1, 480454, Note_off_c, 0, 73, 62
1, 480519, Note_on_c, 0, 74, 74
1, 480526, Note_on_c, 0, 62, 64
1, 480536, Note_on_c, 0, 50, 58
1, 480678, Note_on_c, 0, 73, 83
1, 480722, Note_off_c, 0, 74, 60
1, 480815, Note_on_c, 0, 72, 84
1, 480840, Note_off_c, 0, 73, 63
1, 480950, Note_on_c, 0, 71, 86
1, 480955, Note_off_c, 0, 72, 65
1, 481006, Control_c, 0, 64, 30
1, 481020, Control_c, 0, 64, 56
1, 481035, Control_c, 0, 64, 63
1, 481050, Control_c, 0, 64, 65
1, 481065, Control_c, 0, 64, 67
1, 481080, Note_off_c, 0, 71, 60
1, 481080, Control_c, 0, 64, 69
1, 481083, Note_on_c, 0, 72, 74
1, 481095, Control_c, 0, 64, 72
1, 481107, Note_off_c, 0, 72, 65
1, 481110, Control_c, 0, 64, 76
1, 481132, Control_c, 0, 64, 83
1, 481146, Control_c, 0, 64, 93
1, 481161, Control_c, 0, 64, 108
1, 481176, Control_c, 0, 64, 115
1, 481191, Control_c, 0, 64, 101
1, 481206, Control_c, 0, 64, 74
1, 481220, Control_c, 0, 64, 0
1, 481232, Note_on_c, 0, 69, 73
1, 481256, Note_off_c, 0, 69, 68
1, 481267, Note_on_c, 0, 71, 73
1, 481278, Note_off_c, 0, 62, 56
1, 481306, Note_off_c, 0, 71, 67
1, 481316, Note_on_c, 0, 69, 76
1, 481348, Note_off_c, 0, 69, 62
1, 481366, Note_on_c, 0, 67, 74
1, 481375, Note_off_c, 0, 50, 57
1, 481386, Note_on_c, 0, 55, 62
1, 481387, Note_off_c, 0, 67, 68
1, 481413, Note_off_c, 0, 55, 64
1, 481661, Note_on_c, 0, 47, 53
1, 481663, Note_on_c, 0, 59, 56
1, 481697, Note_on_c, 0, 50, 65
1, 481710, Note_on_c, 0, 62, 65
1, 481715, Note_off_c, 0, 59, 59
1, 481752, Note_off_c, 0, 47, 63
1, 481753, Note_on_c, 0, 55, 73
1, 481754, Note_off_c, 0, 50, 64
1, 481754, Note_off_c, 0, 62, 62
1, 481756, Note_on_c, 0, 67, 71
1, 481777, Note_off_c, 0, 55, 67
1, 481779, Note_off_c, 0, 67, 67
1, 482052, Note_on_c, 0, 62, 59
1, 482058, Note_on_c, 0, 50, 60
1, 482093, Note_on_c, 0, 67, 72
1, 482099, Note_on_c, 0, 55, 64
1, 482113, Note_off_c, 0, 62, 61
1, 482140, Note_on_c, 0, 71, 78
1, 482150, Note_off_c, 0, 55, 64
1, 482151, Note_on_c, 0, 59, 76
1, 482153, Note_off_c, 0, 50, 64
1, 482158, Note_off_c, 0, 67, 63
1, 482174, Note_off_c, 0, 59, 68
1, 482178, Note_off_c, 0, 71, 66
1, 482439, Note_on_c, 0, 67, 66
1, 482444, Note_on_c, 0, 55, 65
1, 482480, Note_on_c, 0, 71, 81
1, 482487, Note_on_c, 0, 59, 69
1, 482508, Note_off_c, 0, 67, 61
1, 482537, Note_on_c, 0, 74, 88
1, 482538, Note_on_c, 0, 62, 78
1, 482545, Note_off_c, 0, 59, 62
1, 482549, Note_off_c, 0, 55, 63
1, 482554, Note_off_c, 0, 71, 66
1, 482569, Note_off_c, 0, 62, 65
1, 482581, Note_off_c, 0, 74, 68
1, 482874, Note_on_c, 0, 71, 62
1, 482882, Note_on_c, 0, 59, 49
1, 482923, Note_on_c, 0, 74, 80
1, 482927, Note_on_c, 0, 62, 56
1, 482927, Note_off_c, 0, 71, 63
1, 482959, Note_off_c, 0, 59, 42
1, 482982, Note_off_c, 0, 62, 54
1, 482991, Note_off_c, 0, 74, 66
1, 482994, Note_on_c, 0, 79, 73
1, 483014, Note_on_c, 0, 67, 50
1, 483104, Note_off_c, 0, 79, 60
1, 483282, Control_c, 0, 67, 11
1, 483297, Control_c, 0, 67, 33
1, 483311, Control_c, 0, 67, 66
1, 483326, Control_c, 0, 67, 111
1, 483342, Control_c, 0, 67, 127
1, 483369, Note_off_c, 0, 67, 50
1, 484058, Note_on_c, 0, 83, 50
1, 484126, Control_c, 0, 64, 45
1, 484142, Control_c, 0, 64, 59
1, 484157, Control_c, 0, 64, 64
1, 484171, Control_c, 0, 64, 65
1, 484186, Control_c, 0, 64, 68
1, 484201, Control_c, 0, 64, 70
1, 484216, Control_c, 0, 64, 74
1, 484231, Control_c, 0, 64, 76
1, 484245, Control_c, 0, 64, 78
1, 484260, Control_c, 0, 64, 80
1, 484275, Control_c, 0, 64, 81
1, 484290, Control_c, 0, 64, 82
1, 484305, Control_c, 0, 64, 82
1, 484433, Note_off_c, 0, 83, 64
1, 484442, Note_on_c, 0, 84, 56
1, 484468, Control_c, 0, 64, 81
1, 484483, Control_c, 0, 64, 78
1, 484497, Control_c, 0, 64, 71
1, 484505, Note_on_c, 0, 76, 60
1, 484508, Note_off_c, 0, 84, 59
1, 484512, Control_c, 0, 64, 61
1, 484523, Note_on_c, 0, 69, 46
1, 484527, Note_on_c, 0, 66, 46
1, 484527, Control_c, 0, 64, 0
1, 484546, Note_on_c, 0, 59, 36
1, 484586, Control_c, 0, 64, 40
1, 484601, Control_c, 0, 64, 55
1, 484606, Note_off_c, 0, 69, 53
1, 484616, Control_c, 0, 64, 60
1, 484631, Control_c, 0, 64, 63
1, 484645, Control_c, 0, 64, 64
1, 484660, Control_c, 0, 64, 66
1, 484675, Control_c, 0, 64, 67
1, 484690, Control_c, 0, 64, 68
1, 484794, Note_off_c, 0, 76, 59
1, 484827, Note_on_c, 0, 75, 51
1, 484880, Note_off_c, 0, 66, 37
1, 484889, Control_c, 0, 64, 67
1, 484904, Control_c, 0, 64, 66
1, 484919, Control_c, 0, 64, 63
1, 484921, Note_off_c, 0, 75, 61
1, 484934, Control_c, 0, 64, 46
1, 484949, Note_on_c, 0, 67, 46
1, 484949, Control_c, 0, 64, 0
1, 484953, Note_on_c, 0, 64, 42
1, 484953, Note_on_c, 0, 76, 54
1, 484990, Note_off_c, 0, 76, 62
1, 485084, Note_on_c, 0, 88, 64
1, 485118, Note_off_c, 0, 88, 62
1, 485220, Note_on_c, 0, 86, 69
1, 485265, Note_off_c, 0, 86, 62
1, 485295, Note_off_c, 0, 67, 43
1, 485296, Note_off_c, 0, 64, 44
1, 485321, Note_off_c, 0, 59, 47
1, 485346, Note_on_c, 0, 84, 74
1, 485388, Note_off_c, 0, 84, 63
1, 485480, Note_on_c, 0, 83, 63
1, 485521, Note_off_c, 0, 83, 58
1, 485617, Note_on_c, 0, 82, 69
1, 485660, Note_off_c, 0, 82, 59
1, 485736, Note_on_c, 0, 83, 68
1, 485787, Note_off_c, 0, 83, 61
1, 485864, Note_on_c, 0, 84, 63
1, 485900, Note_off_c, 0, 84, 66
1, 485914, Note_on_c, 0, 83, 61
1, 485935, Note_on_c, 0, 82, 72
1, 485942, Note_off_c, 0, 83, 62
1, 485974, Note_off_c, 0, 82, 59
1, 486011, Poly_aftertouch_c, 0, 83, 127
1, 486031, Poly_aftertouch_c, 0, 83, 0
1, 486049, Note_on_c, 0, 84, 70
1, 486100, Note_off_c, 0, 84, 62
1, 486123, Note_on_c, 0, 76, 69
1, 486136, Note_on_c, 0, 69, 47
1, 486137, Note_on_c, 0, 66, 45
1, 486144, Note_on_c, 0, 59, 42
1, 486275, Note_off_c, 0, 69, 48
1, 486382, Note_off_c, 0, 76, 58
1, 486413, Note_on_c, 0, 75, 54
1, 486497, Note_off_c, 0, 66, 38
1, 486503, Note_off_c, 0, 75, 60
1, 486543, Note_on_c, 0, 76, 52
1, 486546, Note_on_c, 0, 64, 42
1, 486555, Note_on_c, 0, 67, 26
1, 486574, Note_off_c, 0, 76, 53
1, 486677, Note_on_c, 0, 88, 63
1, 486720, Note_off_c, 0, 88, 57
1, 486767, Note_off_c, 0, 67, 34
1, 486806, Note_off_c, 0, 64, 40
1, 486817, Note_on_c, 0, 86, 66
1, 486860, Note_off_c, 0, 86, 62
1, 486877, Note_off_c, 0, 59, 40
1, 486946, Note_on_c, 0, 84, 73
1, 486998, Note_off_c, 0, 84, 63
1, 487079, Note_on_c, 0, 83, 71
1, 487147, Note_off_c, 0, 83, 58
1, 487212, Note_on_c, 0, 82, 68
1, 487268, Note_off_c, 0, 82, 59
1, 487334, Note_on_c, 0, 81, 75
1, 487381, Note_off_c, 0, 81, 61
1, 487455, Note_on_c, 0, 83, 68
1, 487490, Note_off_c, 0, 83, 63
1, 487501, Note_on_c, 0, 81, 66
1, 487523, Note_off_c, 0, 81, 69
1, 487531, Note_on_c, 0, 80, 66
1, 487560, Note_off_c, 0, 80, 60
1, 487590, Note_on_c, 0, 81, 64
1, 487635, Note_on_c, 0, 83, 73
1, 487642, Note_off_c, 0, 81, 62
1, 487691, Note_off_c, 0, 83, 63
1, 487706, Note_on_c, 0, 74, 74
1, 487712, Note_on_c, 0, 67, 45
1, 487717, Note_on_c, 0, 64, 46
1, 487730, Note_on_c, 0, 57, 39
1, 487837, Note_off_c, 0, 67, 54
1, 487959, Note_off_c, 0, 74, 60
1, 487991, Note_on_c, 0, 73, 60
1, 488025, Note_off_c, 0, 64, 50
1, 488077, Note_off_c, 0, 73, 61
1, 488126, Note_on_c, 0, 74, 55
1, 488131, Note_on_c, 0, 62, 34
1, 488135, Note_on_c, 0, 66, 36
1, 488162, Note_off_c, 0, 74, 65
1, 488258, Note_on_c, 0, 86, 59
1, 488309, Note_off_c, 0, 86, 59
1, 488382, Note_on_c, 0, 85, 69
1, 488414, Note_off_c, 0, 66, 39
1, 488435, Note_off_c, 0, 85, 59
1, 488463, Note_off_c, 0, 62, 35
1, 488510, Note_on_c, 0, 83, 69
1, 488533, Note_off_c, 0, 57, 44
1, 488551, Note_off_c, 0, 83, 64
1, 488658, Note_on_c, 0, 81, 58
1, 488707, Note_off_c, 0, 81, 57
1, 488782, Note_on_c, 0, 80, 65
1, 488815, Note_off_c, 0, 80, 59
1, 488908, Note_on_c, 0, 81, 77
1, 488944, Note_off_c, 0, 81, 63
1, 489039, Note_on_c, 0, 83, 68
1, 489073, Note_off_c, 0, 83, 64
1, 489083, Note_on_c, 0, 81, 63
1, 489108, Note_off_c, 0, 81, 65
1, 489111, Note_on_c, 0, 80, 67
1, 489160, Note_off_c, 0, 80, 54
1, 489170, Note_on_c, 0, 81, 68
1, 489209, Note_on_c, 0, 83, 72
1, 489215, Note_off_c, 0, 81, 63
1, 489250, Note_off_c, 0, 83, 66
1, 489280, Note_on_c, 0, 74, 74
1, 489285, Note_on_c, 0, 64, 45
1, 489289, Note_on_c, 0, 67, 42
1, 489297, Note_on_c, 0, 57, 38
1, 489378, Note_off_c, 0, 67, 54
1, 489526, Note_off_c, 0, 74, 61
1, 489556, Note_on_c, 0, 73, 55
1, 489629, Note_off_c, 0, 64, 37
1, 489652, Note_off_c, 0, 73, 58
1, 489680, Note_on_c, 0, 74, 55
1, 489691, Note_on_c, 0, 66, 36
1, 489695, Note_on_c, 0, 62, 37
1, 489715, Note_off_c, 0, 74, 65
1, 489829, Note_on_c, 0, 78, 56
1, 489867, Note_off_c, 0, 78, 58
1, 489953, Note_on_c, 0, 76, 70
1, 489968, Note_off_c, 0, 66, 42
1, 489984, Note_off_c, 0, 62, 38
1, 489987, Note_off_c, 0, 76, 57
1, 490052, Note_off_c, 0, 57, 32
1, 490078, Note_on_c, 0, 74, 72
1, 490118, Note_off_c, 0, 74, 59
1, 490207, Note_on_c, 0, 73, 62
1, 490220, Control_c, 0, 67, 116
1, 490234, Control_c, 0, 67, 97
1, 490249, Control_c, 0, 67, 77
1, 490255, Note_off_c, 0, 73, 58
1, 490264, Control_c, 0, 67, 60
1, 490279, Control_c, 0, 67, 49
1, 490294, Control_c, 0, 67, 43
1, 490309, Control_c, 0, 67, 39
1, 490324, Control_c, 0, 67, 37
1, 490341, Note_on_c, 0, 71, 64
1, 490368, Control_c, 0, 67, 38
1, 490372, Note_off_c, 0, 71, 64
1, 490383, Control_c, 0, 67, 39
1, 490398, Control_c, 0, 67, 40
1, 490413, Control_c, 0, 67, 41
1, 490427, Control_c, 0, 67, 41
1, 490442, Control_c, 0, 67, 42
1, 490457, Control_c, 0, 67, 42
1, 490464, Note_on_c, 0, 76, 68
1, 490492, Note_off_c, 0, 76, 65
1, 490562, Control_c, 0, 67, 42
1, 490569, Note_on_c, 0, 78, 69
1, 490577, Control_c, 0, 67, 41
1, 490592, Control_c, 0, 67, 39
1, 490595, Note_off_c, 0, 78, 68
1, 490601, Note_on_c, 0, 76, 68
1, 490606, Control_c, 0, 67, 37
1, 490621, Control_c, 0, 67, 35
1, 490627, Note_off_c, 0, 76, 66
1, 490636, Control_c, 0, 67, 32
1, 490647, Note_on_c, 0, 75, 64
1, 490650, Control_c, 0, 67, 25
1, 490665, Control_c, 0, 67, 19
1, 490680, Control_c, 0, 67, 12
1, 490685, Note_off_c, 0, 75, 55
1, 490695, Control_c, 0, 67, 0
1, 490696, Note_on_c, 0, 76, 65
1, 490759, Note_on_c, 0, 78, 70
1, 490761, Note_off_c, 0, 76, 62
1, 490827, Note_off_c, 0, 78, 63
1, 490839, Note_on_c, 0, 69, 64
1, 490878, Note_on_c, 0, 59, 37
1, 490882, Note_on_c, 0, 52, 43
1, 490887, Note_on_c, 0, 62, 35
1, 491042, Note_off_c, 0, 62, 52
1, 491100, Note_off_c, 0, 69, 60
1, 491124, Note_on_c, 0, 68, 55
1, 491200, Note_off_c, 0, 59, 51
1, 491227, Note_off_c, 0, 68, 62
1, 491259, Note_on_c, 0, 69, 55
1, 491271, Note_on_c, 0, 61, 38
1, 491279, Note_on_c, 0, 57, 31
1, 491297, Note_off_c, 0, 69, 62
1, 491400, Note_on_c, 0, 81, 64
1, 491438, Note_off_c, 0, 81, 54
1, 491517, Note_off_c, 0, 61, 41
1, 491528, Note_on_c, 0, 80, 65
1, 491576, Note_off_c, 0, 80, 59
1, 491579, Note_off_c, 0, 57, 34
1, 491662, Note_on_c, 0, 78, 66
1, 491674, Note_off_c, 0, 52, 40
1, 491700, Note_off_c, 0, 78, 56
1, 491790, Note_on_c, 0, 76, 62
1, 491826, Note_off_c, 0, 76, 58
1, 491912, Note_on_c, 0, 75, 70
1, 491946, Note_off_c, 0, 75, 58
1, 492000, Control_c, 0, 64, 14
1, 492014, Control_c, 0, 64, 0
1, 492035, Note_on_c, 0, 76, 82
1, 492074, Note_off_c, 0, 76, 63
1, 492155, Note_on_c, 0, 78, 72
1, 492186, Note_off_c, 0, 78, 65
1, 492197, Note_on_c, 0, 76, 74
1, 492219, Note_off_c, 0, 76, 69
1, 492228, Note_on_c, 0, 75, 66
1, 492269, Note_off_c, 0, 75, 49
1, 492292, Note_on_c, 0, 76, 69
1, 492339, Note_off_c, 0, 76, 64
1, 492342, Note_on_c, 0, 78, 70
1, 492406, Note_off_c, 0, 78, 64
1, 492442, Note_on_c, 0, 69, 62
1, 492450, Note_on_c, 0, 59, 42
1, 492455, Note_on_c, 0, 62, 37
1, 492461, Note_on_c, 0, 52, 36
1, 492512, Control_c, 0, 64, 21
1, 492526, Control_c, 0, 64, 51
1, 492535, Note_off_c, 0, 62, 56
1, 492541, Control_c, 0, 64, 61
1, 492556, Control_c, 0, 64, 64
1, 492571, Control_c, 0, 64, 68
1, 492577, Note_off_c, 0, 59, 59
1, 492586, Control_c, 0, 64, 71
1, 492601, Control_c, 0, 64, 75
1, 492616, Control_c, 0, 64, 78
1, 492630, Control_c, 0, 64, 80
1, 492637, Note_off_c, 0, 52, 53
1, 492645, Control_c, 0, 64, 81
1, 492660, Control_c, 0, 64, 82
1, 492675, Control_c, 0, 64, 82
1, 492679, Note_off_c, 0, 69, 58
1, 492723, Note_on_c, 0, 68, 55
1, 492755, Note_off_c, 0, 68, 62
1, 492808, Control_c, 0, 64, 83
1, 492822, Control_c, 0, 64, 82
1, 492837, Control_c, 0, 64, 79
1, 492852, Control_c, 0, 64, 70
1, 492867, Control_c, 0, 64, 0
1, 492869, Note_on_c, 0, 45, 63
1, 492876, Note_on_c, 0, 69, 52
1, 492880, Note_on_c, 0, 57, 43
1, 492898, Note_off_c, 0, 45, 65
1, 492910, Note_off_c, 0, 57, 55
1, 492925, Note_off_c, 0, 69, 60
1, 492932, Note_on_c, 0, 64, 54
1, 492969, Note_off_c, 0, 64, 65
1, 493000, Note_on_c, 0, 61, 51
1, 493006, Note_on_c, 0, 57, 49
1, 493010, Note_on_c, 0, 45, 52
1, 493040, Note_off_c, 0, 61, 61
1, 493042, Note_off_c, 0, 45, 63
1, 493045, Note_off_c, 0, 57, 58
1, 493066, Note_on_c, 0, 64, 51
1, 493120, Note_off_c, 0, 64, 62
1, 493141, Note_on_c, 0, 69, 54
1, 493162, Note_on_c, 0, 45, 57
1, 493163, Note_on_c, 0, 57, 52
1, 493185, Note_off_c, 0, 69, 63
1, 493192, Note_off_c, 0, 45, 62
1, 493194, Note_off_c, 0, 57, 56
1, 493219, Note_on_c, 0, 64, 47
1, 493250, Note_off_c, 0, 64, 60
1, 493293, Note_on_c, 0, 57, 55
1, 493294, Note_on_c, 0, 45, 55
1, 493296, Note_on_c, 0, 69, 58
1, 493326, Note_off_c, 0, 45, 64
1, 493327, Note_off_c, 0, 57, 62
1, 493351, Note_on_c, 0, 64, 54
1, 493363, Note_off_c, 0, 69, 57
1, 493403, Note_off_c, 0, 64, 63
1, 493428, Note_on_c, 0, 57, 52
1, 493430, Note_on_c, 0, 45, 48
1, 493430, Note_on_c, 0, 61, 52
1, 493460, Note_off_c, 0, 45, 54
1, 493462, Note_off_c, 0, 57, 58
1, 493471, Note_off_c, 0, 61, 62
1, 493494, Note_on_c, 0, 64, 51
1, 493548, Note_off_c, 0, 64, 56
1, 493559, Note_on_c, 0, 45, 61
1, 493567, Note_on_c, 0, 57, 52
1, 493569, Note_on_c, 0, 69, 57
1, 493591, Note_off_c, 0, 57, 60
1, 493600, Note_off_c, 0, 45, 59
1, 493615, Note_off_c, 0, 69, 61
1, 493641, Note_on_c, 0, 64, 49
1, 493674, Note_off_c, 0, 64, 60
1, 493698, Note_on_c, 0, 45, 62
1, 493700, Note_on_c, 0, 56, 69
1, 493706, Note_on_c, 0, 71, 63
1, 493727, Note_off_c, 0, 45, 62
1, 493730, Note_off_c, 0, 56, 64
1, 493765, Note_on_c, 0, 64, 57
1, 493780, Note_off_c, 0, 71, 59
1, 493817, Note_off_c, 0, 64, 62
1, 493838, Note_on_c, 0, 56, 61
1, 493853, Note_on_c, 0, 62, 57
1, 493860, Note_on_c, 0, 45, 40
1, 493877, Note_off_c, 0, 56, 62
1, 493895, Note_off_c, 0, 45, 49
1, 493901, Note_off_c, 0, 62, 58
1, 493919, Note_on_c, 0, 64, 46
1, 493962, Note_off_c, 0, 64, 64
1, 493977, Note_on_c, 0, 71, 68
1, 493983, Note_on_c, 0, 56, 71
1, 493988, Note_on_c, 0, 45, 60
1, 494018, Note_off_c, 0, 56, 61
1, 494020, Note_off_c, 0, 45, 64
1, 494029, Note_off_c, 0, 71, 63
1, 494053, Note_on_c, 0, 64, 61
1, 494084, Note_off_c, 0, 64, 66
1, 494113, Note_on_c, 0, 56, 83
1, 494115, Note_on_c, 0, 71, 67
1, 494121, Note_on_c, 0, 45, 64
1, 494154, Note_off_c, 0, 45, 65
1, 494160, Note_off_c, 0, 56, 60
1, 494172, Note_on_c, 0, 64, 67
1, 494180, Note_off_c, 0, 71, 56
1, 494225, Note_off_c, 0, 64, 64
1, 494248, Note_on_c, 0, 56, 82
1, 494249, Note_on_c, 0, 45, 68
1, 494255, Note_on_c, 0, 62, 61
1, 494290, Note_off_c, 0, 45, 64
1, 494298, Note_off_c, 0, 56, 63
1, 494304, Note_off_c, 0, 62, 56
1, 494319, Note_on_c, 0, 64, 56
1, 494357, Note_off_c, 0, 64, 65
1, 494372, Note_on_c, 0, 71, 61
1, 494378, Note_on_c, 0, 45, 75
1, 494381, Note_on_c, 0, 56, 77
1, 494409, Note_off_c, 0, 71, 64
1, 494418, Note_on_c, 0, 64, 62
1, 494419, Note_off_c, 0, 45, 62
1, 494424, Note_off_c, 0, 56, 60
1, 494448, Note_off_c, 0, 64, 66
1, 494506, Note_on_c, 0, 55, 89
1, 494513, Note_on_c, 0, 73, 78
1, 494515, Note_on_c, 0, 45, 77
1, 494542, Note_off_c, 0, 45, 65
1, 494542, Note_off_c, 0, 55, 61
1, 494571, Note_on_c, 0, 67, 72
1, 494600, Note_off_c, 0, 73, 59
1, 494642, Note_off_c, 0, 67, 62
1, 494652, Note_on_c, 0, 64, 65
1, 494654, Note_on_c, 0, 55, 87
1, 494655, Note_on_c, 0, 45, 72
1, 494691, Note_off_c, 0, 55, 60
1, 494694, Note_off_c, 0, 45, 66
1, 494708, Note_off_c, 0, 64, 63
1, 494714, Note_on_c, 0, 67, 60
1, 494777, Note_off_c, 0, 67, 62
1, 494789, Note_on_c, 0, 73, 73
1, 494796, Note_on_c, 0, 55, 93
1, 494801, Note_on_c, 0, 45, 85
1, 494828, Note_off_c, 0, 55, 64
1, 494834, Note_off_c, 0, 45, 63
1, 494843, Note_on_c, 0, 67, 49
1, 494847, Note_off_c, 0, 73, 61
1, 494869, Note_off_c, 0, 67, 58
1, 494926, Note_on_c, 0, 54, 91
1, 494929, Note_on_c, 0, 74, 82
1, 494931, Note_on_c, 0, 45, 81
1, 494960, Note_off_c, 0, 45, 67
1, 494965, Note_off_c, 0, 54, 58
1, 494986, Note_on_c, 0, 69, 72
1, 495010, Note_off_c, 0, 74, 61
1, 495045, Note_off_c, 0, 69, 62
1, 495060, Note_on_c, 0, 54, 92
1, 495060, Note_on_c, 0, 66, 75
1, 495065, Note_on_c, 0, 45, 78
1, 495098, Note_off_c, 0, 45, 67
1, 495104, Note_off_c, 0, 54, 60
1, 495123, Note_off_c, 0, 66, 60
1, 495126, Note_on_c, 0, 69, 66
1, 495144, Control_c, 0, 64, 43
1, 495159, Control_c, 0, 64, 58
1, 495173, Control_c, 0, 64, 63
1, 495188, Control_c, 0, 64, 65
1, 495188, Note_off_c, 0, 69, 63
1, 495191, Note_on_c, 0, 74, 72
1, 495194, Note_on_c, 0, 54, 98
1, 495197, Note_on_c, 0, 45, 87
1, 495203, Control_c, 0, 64, 68
1, 495217, Control_c, 0, 64, 73
1, 495232, Control_c, 0, 64, 81
1, 495239, Note_off_c, 0, 54, 64
1, 495242, Note_off_c, 0, 45, 63
1, 495247, Control_c, 0, 64, 90
1, 495248, Note_off_c, 0, 74, 65
1, 495260, Note_on_c, 0, 69, 42
1, 495262, Control_c, 0, 64, 91
1, 495277, Control_c, 0, 64, 91
1, 495283, Note_off_c, 0, 69, 60
1, 495291, Control_c, 0, 64, 85
1, 495306, Control_c, 0, 64, 73
1, 495322, Control_c, 0, 64, 23
1, 495326, Note_on_c, 0, 52, 98
1, 495327, Note_on_c, 0, 76, 77
1, 495333, Note_on_c, 0, 45, 86
1, 495344, Control_c, 0, 64, 0
1, 495373, Note_off_c, 0, 45, 67
1, 495376, Note_off_c, 0, 52, 63
1, 495407, Note_on_c, 0, 73, 75
1, 495426, Note_off_c, 0, 76, 60
1, 495470, Note_on_c, 0, 52, 94
1, 495475, Note_on_c, 0, 45, 81
1, 495486, Note_on_c, 0, 69, 70
1, 495509, Note_off_c, 0, 73, 0
1, 495511, Note_off_c, 0, 45, 65
1, 495511, Note_off_c, 0, 52, 61
1, 495525, Note_on_c, 0, 73, 50
1, 495555, Note_off_c, 0, 69, 53
1, 495594, Note_off_c, 0, 73, 63
1, 495597, Note_on_c, 0, 76, 74
1, 495612, Note_on_c, 0, 52, 98
1, 495618, Note_on_c, 0, 45, 81
1, 495657, Note_on_c, 0, 73, 70
1, 495660, Note_off_c, 0, 76, 62
1, 495666, Note_off_c, 0, 52, 54
1, 495674, Note_off_c, 0, 45, 63
1, 495715, Note_off_c, 0, 73, 62
1, 495755, Note_on_c, 0, 50, 93
1, 495755, Note_on_c, 0, 78, 85
1, 495762, Note_on_c, 0, 45, 83
1, 495824, Note_off_c, 0, 50, 62
1, 495829, Note_off_c, 0, 45, 63
1, 495830, Note_on_c, 0, 74, 75
1, 495861, Note_off_c, 0, 78, 63
1, 495905, Note_off_c, 0, 74, 65
1, 495907, Note_on_c, 0, 69, 73
1, 495911, Note_on_c, 0, 50, 87
1, 495916, Note_on_c, 0, 45, 83
1, 495922, Control_c, 0, 64, 19
1, 495937, Control_c, 0, 64, 40
1, 495951, Control_c, 0, 64, 51
1, 495966, Control_c, 0, 64, 58
1, 495980, Note_on_c, 0, 74, 75
1, 495980, Note_off_c, 0, 45, 62
1, 495981, Control_c, 0, 64, 62
1, 495985, Note_off_c, 0, 50, 63
1, 495996, Control_c, 0, 64, 64
1, 496011, Control_c, 0, 64, 65
1, 496026, Control_c, 0, 64, 66
1, 496040, Control_c, 0, 64, 68
1, 496055, Control_c, 0, 64, 69
1, 496065, Note_on_c, 0, 78, 85
1, 496067, Note_off_c, 0, 74, 65
1, 496068, Note_on_c, 0, 50, 79
1, 496070, Control_c, 0, 64, 72
1, 496080, Note_on_c, 0, 45, 73
1, 496085, Control_c, 0, 64, 76
1, 496107, Control_c, 0, 64, 80
1, 496123, Control_c, 0, 64, 82
1, 496124, Note_off_c, 0, 45, 65
1, 496138, Control_c, 0, 64, 83
1, 496152, Control_c, 0, 64, 85
1, 496153, Note_on_c, 0, 74, 71
1, 496160, Note_off_c, 0, 50, 65
1, 496167, Control_c, 0, 64, 85
1, 496182, Control_c, 0, 64, 86
1, 496197, Control_c, 0, 64, 87
1, 496202, Note_on_c, 0, 45, 68
1, 496212, Control_c, 0, 64, 87
1, 496225, Note_off_c, 0, 78, 59
1, 496274, Note_on_c, 0, 49, 80
1, 496310, Note_off_c, 0, 69, 35
1, 496312, Note_off_c, 0, 74, 60
1, 496313, Note_on_c, 0, 52, 76
1, 496315, Control_c, 0, 64, 88
1, 496360, Control_c, 0, 64, 87
1, 496375, Control_c, 0, 64, 87
1, 496377, Note_on_c, 0, 57, 82
1, 496390, Control_c, 0, 64, 80
1, 496401, Note_on_c, 0, 79, 95
1, 496402, Note_on_c, 0, 76, 84
1, 496404, Note_on_c, 0, 69, 84
1, 496405, Note_on_c, 0, 73, 85
1, 496405, Control_c, 0, 64, 70
1, 496419, Control_c, 0, 64, 0
1, 496612, Control_c, 0, 64, 38
1, 496626, Control_c, 0, 64, 59
1, 496641, Control_c, 0, 64, 64
1, 496656, Control_c, 0, 64, 67
1, 496658, Note_off_c, 0, 69, 56
1, 496670, Control_c, 0, 64, 71
1, 496685, Control_c, 0, 64, 74
1, 496700, Control_c, 0, 64, 78
1, 496706, Note_off_c, 0, 76, 47
1, 496715, Control_c, 0, 64, 81
1, 496730, Control_c, 0, 64, 84
1, 496738, Note_off_c, 0, 73, 52
1, 496744, Control_c, 0, 64, 86
1, 496759, Control_c, 0, 64, 87
1, 496774, Control_c, 0, 64, 89
1, 496789, Control_c, 0, 64, 90
1, 497066, Note_off_c, 0, 79, 51
1, 497210, Note_on_c, 0, 76, 92
1, 497344, Note_on_c, 0, 85, 93
1, 497396, Note_off_c, 0, 76, 58
1, 497537, Note_off_c, 0, 57, 39
1, 497543, Note_off_c, 0, 45, 44
1, 497578, Note_off_c, 0, 52, 50
1, 497602, Note_off_c, 0, 49, 52
1, 497826, Control_c, 0, 64, 89
1, 497830, Note_on_c, 0, 81, 91
1, 497874, Note_off_c, 0, 85, 59
1, 497901, Control_c, 0, 64, 89
1, 497945, Control_c, 0, 64, 88
1, 497989, Control_c, 0, 64, 88
1, 498009, Note_on_c, 0, 88, 93
1, 498019, Control_c, 0, 64, 87
1, 498048, Control_c, 0, 64, 87
1, 498059, Note_off_c, 0, 81, 59
1, 498063, Control_c, 0, 64, 86
1, 498078, Control_c, 0, 64, 85
1, 498093, Control_c, 0, 64, 84
1, 498108, Control_c, 0, 64, 83
1, 498122, Control_c, 0, 64, 81
1, 498137, Control_c, 0, 64, 79
1, 498152, Control_c, 0, 64, 77
1, 498167, Control_c, 0, 64, 75
1, 498182, Control_c, 0, 64, 71
1, 498196, Control_c, 0, 64, 66
1, 498211, Control_c, 0, 64, 51
1, 498226, Control_c, 0, 64, 0
1, 498814, Note_on_c, 0, 86, 84
1, 498887, Note_off_c, 0, 88, 52
1, 499204, Note_on_c, 0, 85, 67
1, 499300, Note_off_c, 0, 86, 58
1, 499524, Note_on_c, 0, 83, 73
1, 499598, Note_off_c, 0, 85, 60
1, 499739, Note_on_c, 0, 81, 76
1, 499767, Note_off_c, 0, 83, 64
1, 499920, Note_on_c, 0, 80, 77
1, 499953, Note_off_c, 0, 81, 63
1, 500085, Note_on_c, 0, 81, 77
1, 500119, Note_off_c, 0, 80, 60
1, 500244, Note_on_c, 0, 82, 73
1, 500272, Note_off_c, 0, 81, 62
1, 500365, Note_on_c, 0, 83, 73
1, 500374, Note_off_c, 0, 82, 64
1, 500452, Note_on_c, 0, 81, 80
1, 500494, Note_off_c, 0, 83, 60
1, 500540, Note_off_c, 0, 81, 64
1, 500541, Note_on_c, 0, 79, 76
1, 500623, Note_off_c, 0, 79, 62
1, 500625, Note_on_c, 0, 78, 78
1, 500706, Note_on_c, 0, 81, 77
1, 500723, Note_off_c, 0, 78, 62
1, 500769, Note_off_c, 0, 81, 63
1, 500771, Note_on_c, 0, 79, 75
1, 500840, Note_off_c, 0, 79, 61
1, 500844, Note_on_c, 0, 83, 78
1, 500910, Note_on_c, 0, 81, 76
1, 500930, Note_off_c, 0, 83, 63
1, 500966, Note_off_c, 0, 81, 65
1, 500983, Note_on_c, 0, 79, 76
1, 501048, Note_off_c, 0, 79, 61
1, 501050, Note_on_c, 0, 78, 77
1, 501127, Note_off_c, 0, 78, 64
1, 501128, Note_on_c, 0, 76, 84
1, 501206, Note_on_c, 0, 78, 77
1, 501208, Note_off_c, 0, 76, 60
1, 501288, Note_on_c, 0, 79, 77
1, 501296, Note_off_c, 0, 78, 64
1, 501380, Note_on_c, 0, 78, 74
1, 501389, Note_off_c, 0, 79, 61
1, 501493, Note_on_c, 0, 81, 69
1, 501529, Note_off_c, 0, 78, 62
1, 501678, Note_on_c, 0, 79, 65
1, 501710, Note_off_c, 0, 81, 57
1, 501788, Note_on_c, 0, 78, 74
1, 501806, Note_off_c, 0, 79, 59
1, 501874, Note_on_c, 0, 76, 77
1, 501894, Note_off_c, 0, 78, 64
1, 501934, Note_off_c, 0, 76, 64
1, 501952, Note_on_c, 0, 74, 77
1, 502018, Note_off_c, 0, 74, 63
1, 502026, Note_on_c, 0, 73, 77
1, 502107, Note_on_c, 0, 71, 75
1, 502121, Note_off_c, 0, 73, 60
1, 502161, Note_off_c, 0, 71, 65
1, 502175, Note_on_c, 0, 69, 72
1, 502249, Note_on_c, 0, 67, 76
1, 502253, Note_off_c, 0, 69, 61
1, 502403, Note_on_c, 0, 69, 68
1, 502404, Note_off_c, 0, 67, 58
1, 502499, Note_off_c, 0, 69, 62
1, 502510, Note_on_c, 0, 67, 72
1, 502575, Note_off_c, 0, 67, 62
1, 502591, Note_on_c, 0, 69, 67
1, 502641, Note_off_c, 0, 69, 63
1, 502659, Note_on_c, 0, 67, 67
1, 502703, Note_off_c, 0, 67, 61
1, 502715, Note_on_c, 0, 69, 65
1, 502755, Note_off_c, 0, 69, 61
1, 502772, Note_on_c, 0, 67, 67
1, 502816, Note_off_c, 0, 67, 62
1, 502819, Note_on_c, 0, 69, 65
1, 502870, Note_off_c, 0, 69, 64
1, 502879, Note_on_c, 0, 67, 65
1, 502927, Note_on_c, 0, 69, 62
1, 502927, Note_off_c, 0, 67, 61
1, 502967, Note_off_c, 0, 69, 61
1, 502982, Note_on_c, 0, 67, 68
1, 503024, Note_on_c, 0, 69, 57
1, 503030, Note_off_c, 0, 67, 62
1, 503058, Note_off_c, 0, 69, 65
1, 503074, Note_on_c, 0, 67, 62
1, 503118, Note_off_c, 0, 67, 63
1, 503120, Note_on_c, 0, 69, 65
1, 503148, Note_off_c, 0, 69, 67
1, 503157, Control_c, 0, 67, 12
1, 503171, Control_c, 0, 67, 25
1, 503172, Note_on_c, 0, 67, 68
1, 503186, Control_c, 0, 67, 39
1, 503201, Control_c, 0, 67, 58
1, 503214, Note_on_c, 0, 69, 69
1, 503216, Control_c, 0, 67, 77
1, 503222, Note_off_c, 0, 67, 62
1, 503231, Control_c, 0, 67, 97
1, 503246, Control_c, 0, 67, 116
1, 503247, Note_off_c, 0, 69, 63
1, 503261, Control_c, 0, 67, 127
1, 503266, Note_on_c, 0, 67, 57
1, 503312, Note_off_c, 0, 67, 62
1, 503314, Note_on_c, 0, 69, 68
1, 503353, Note_off_c, 0, 69, 60
1, 503371, Note_on_c, 0, 67, 67
1, 503422, Note_off_c, 0, 67, 62
1, 503424, Note_on_c, 0, 69, 65
1, 503458, Note_off_c, 0, 69, 62
1, 503480, Note_on_c, 0, 67, 66
1, 503525, Note_off_c, 0, 67, 62
1, 503528, Note_on_c, 0, 69, 65
1, 503569, Note_off_c, 0, 69, 62
1, 503595, Note_on_c, 0, 67, 66
1, 503641, Note_off_c, 0, 67, 62
1, 503642, Note_on_c, 0, 69, 62
1, 503677, Note_off_c, 0, 69, 62
1, 503697, Note_on_c, 0, 67, 61
1, 503738, Note_off_c, 0, 67, 63
1, 503747, Note_on_c, 0, 69, 66
1, 503781, Note_off_c, 0, 69, 63
1, 503814, Note_on_c, 0, 67, 66
1, 503889, Note_off_c, 0, 67, 62
1, 503898, Note_on_c, 0, 66, 69
1, 504024, Note_off_c, 0, 66, 61
1, 504043, Note_on_c, 0, 67, 71
1, 504131, Note_off_c, 0, 67, 61
1, 504153, Note_on_c, 0, 68, 69
1, 504212, Note_off_c, 0, 68, 63
1, 504235, Note_on_c, 0, 69, 66
1, 504279, Note_off_c, 0, 69, 62
1, 504309, Note_on_c, 0, 70, 64
1, 504343, Note_off_c, 0, 70, 68
1, 504373, Note_on_c, 0, 71, 69
1, 504414, Note_off_c, 0, 71, 61
1, 504440, Note_on_c, 0, 72, 62
1, 504477, Note_off_c, 0, 72, 56
1, 504492, Note_on_c, 0, 73, 72
1, 504523, Note_off_c, 0, 73, 65
1, 504551, Note_on_c, 0, 74, 69
1, 504575, Note_off_c, 0, 74, 69
1, 504599, Note_on_c, 0, 75, 70
1, 504625, Note_off_c, 0, 75, 66
1, 504655, Note_on_c, 0, 76, 76
1, 504703, Note_off_c, 0, 76, 60
1, 504722, Note_on_c, 0, 77, 69
1, 504750, Note_off_c, 0, 77, 64
1, 504758, Note_on_c, 0, 78, 72
1, 504809, Note_off_c, 0, 78, 64
1, 504831, Note_on_c, 0, 79, 68
1, 504861, Note_off_c, 0, 79, 60
1, 504885, Note_on_c, 0, 80, 67
1, 504933, Note_off_c, 0, 80, 61
1, 504971, Note_on_c, 0, 81, 59
1, 505007, Note_off_c, 0, 81, 53
1, 505055, Note_on_c, 0, 82, 50
1, 505165, Note_off_c, 0, 82, 57
1, 505196, Note_on_c, 0, 83, 43
1, 505300, Control_c, 0, 64, 43
1, 505314, Control_c, 0, 64, 58
1, 505329, Control_c, 0, 64, 64
1, 505340, Note_off_c, 0, 83, 56
1, 505344, Control_c, 0, 64, 66
1, 505359, Control_c, 0, 64, 69
1, 505374, Control_c, 0, 64, 71
1, 505389, Control_c, 0, 64, 74
1, 505404, Control_c, 0, 64, 75
1, 505419, Control_c, 0, 64, 76
1, 505463, Control_c, 0, 64, 77
1, 505507, Control_c, 0, 64, 76
1, 505551, Control_c, 0, 64, 75
1, 505566, Control_c, 0, 64, 73
1, 505581, Control_c, 0, 64, 70
1, 505596, Control_c, 0, 64, 65
1, 505611, Control_c, 0, 64, 43
1, 505625, Control_c, 0, 64, 0
1, 506217, Note_on_c, 0, 81, 46
1, 506343, Note_off_c, 0, 81, 56
1, 506354, Note_on_c, 0, 79, 47
1, 506421, Note_off_c, 0, 79, 53
1, 507036, Note_on_c, 0, 78, 50
1, 507169, Note_on_c, 0, 76, 39
1, 507175, Note_off_c, 0, 78, 56
1, 507276, Note_off_c, 0, 76, 57
1, 507932, Control_c, 0, 64, 19
1, 507947, Control_c, 0, 64, 35
1, 507950, Note_on_c, 0, 78, 51
1, 507962, Control_c, 0, 64, 46
1, 507976, Control_c, 0, 64, 53
1, 507991, Control_c, 0, 64, 59
1, 508006, Control_c, 0, 64, 62
1, 508021, Control_c, 0, 64, 63
1, 508036, Control_c, 0, 64, 64
1, 508051, Control_c, 0, 64, 65
1, 508066, Control_c, 0, 64, 66
1, 508088, Control_c, 0, 64, 68
1, 508104, Control_c, 0, 64, 69
1, 508119, Control_c, 0, 64, 72
1, 508133, Control_c, 0, 64, 75
1, 508148, Control_c, 0, 64, 77
1, 508162, Control_c, 0, 64, 79
1, 508176, Control_c, 0, 64, 81
1, 508191, Control_c, 0, 64, 82
1, 508206, Control_c, 0, 64, 83
1, 508221, Control_c, 0, 64, 84
1, 508236, Control_c, 0, 64, 85
1, 508342, Note_off_c, 0, 78, 49
1, 508449, Note_on_c, 0, 79, 56
1, 508458, Control_c, 0, 64, 84
1, 508503, Control_c, 0, 64, 84
1, 508514, Note_off_c, 0, 79, 60
1, 508516, Note_on_c, 0, 78, 61
1, 508532, Control_c, 0, 64, 83
1, 508547, Control_c, 0, 64, 83
1, 508548, Note_off_c, 0, 78, 65
1, 508562, Control_c, 0, 64, 82
1, 508566, Note_on_c, 0, 76, 66
1, 508576, Control_c, 0, 64, 81
1, 508591, Control_c, 0, 64, 80
1, 508606, Control_c, 0, 64, 78
1, 508621, Control_c, 0, 64, 77
1, 508624, Note_on_c, 0, 78, 70
1, 508624, Note_off_c, 0, 76, 59
1, 508636, Control_c, 0, 64, 75
1, 508650, Control_c, 0, 64, 73
1, 508665, Control_c, 0, 64, 70
1, 508680, Control_c, 0, 64, 66
1, 508695, Control_c, 0, 64, 61
1, 508704, Note_on_c, 0, 81, 71
1, 508710, Control_c, 0, 64, 42
1, 508725, Control_c, 0, 64, 0
1, 508767, Note_off_c, 0, 78, 55
1, 509222, Control_c, 0, 64, 21
1, 509237, Control_c, 0, 64, 35
1, 509252, Control_c, 0, 64, 44
1, 509267, Control_c, 0, 64, 51
1, 509281, Control_c, 0, 64, 56
1, 509296, Control_c, 0, 64, 59
1, 509311, Control_c, 0, 64, 62
1, 509326, Control_c, 0, 64, 64
1, 509337, Note_on_c, 0, 79, 67
1, 509341, Control_c, 0, 64, 65
1, 509355, Control_c, 0, 64, 67
1, 509370, Control_c, 0, 64, 69
1, 509385, Control_c, 0, 64, 70
1, 509391, Note_off_c, 0, 81, 50
1, 509399, Control_c, 0, 64, 72
1, 509414, Control_c, 0, 64, 74
1, 509429, Control_c, 0, 64, 75
1, 509444, Control_c, 0, 64, 75
1, 509452, Note_off_c, 0, 79, 61
1, 509532, Note_on_c, 0, 79, 75
1, 509547, Control_c, 0, 64, 75
1, 509562, Control_c, 0, 64, 74
1, 509585, Control_c, 0, 64, 72
1, 509600, Control_c, 0, 64, 70
1, 509614, Control_c, 0, 64, 68
1, 509629, Control_c, 0, 64, 64
1, 509644, Control_c, 0, 64, 59
1, 509659, Control_c, 0, 64, 44
1, 509673, Control_c, 0, 64, 14
1, 509688, Control_c, 0, 64, 0
1, 510022, Note_on_c, 0, 81, 60
1, 510073, Note_off_c, 0, 79, 55
1, 510266, Note_on_c, 0, 79, 71
1, 510304, Note_off_c, 0, 81, 58
1, 510421, Note_on_c, 0, 78, 69
1, 510441, Note_off_c, 0, 79, 58
1, 510567, Note_on_c, 0, 79, 67
1, 510640, Note_off_c, 0, 78, 40
1, 510787, Note_on_c, 0, 80, 58
1, 510878, Note_off_c, 0, 79, 48
1, 511551, Note_on_c, 0, 83, 48
1, 511718, Note_off_c, 0, 80, 37
1, 511934, Control_c, 0, 64, 19
1, 511949, Control_c, 0, 64, 27
1, 511964, Control_c, 0, 64, 34
1, 511979, Control_c, 0, 64, 40
1, 511993, Control_c, 0, 64, 47
1, 512008, Control_c, 0, 64, 51
1, 512023, Control_c, 0, 64, 54
1, 512038, Control_c, 0, 64, 57
1, 512053, Control_c, 0, 64, 60
1, 512067, Control_c, 0, 64, 62
1, 512082, Control_c, 0, 64, 63
1, 512098, Control_c, 0, 64, 64
1, 512113, Control_c, 0, 64, 65
1, 512128, Control_c, 0, 64, 66
1, 512143, Control_c, 0, 64, 68
1, 512158, Control_c, 0, 64, 70
1, 512172, Control_c, 0, 64, 71
1, 512187, Control_c, 0, 64, 73
1, 512202, Control_c, 0, 64, 75
1, 512216, Control_c, 0, 64, 76
1, 512231, Control_c, 0, 64, 77
1, 512246, Control_c, 0, 64, 79
1, 512261, Control_c, 0, 64, 81
1, 512276, Control_c, 0, 64, 82
1, 512290, Control_c, 0, 64, 83
1, 512305, Control_c, 0, 64, 84
1, 512320, Control_c, 0, 64, 85
1, 512335, Control_c, 0, 64, 86
1, 512364, Control_c, 0, 64, 86
1, 512379, Control_c, 0, 64, 87
1, 512409, Control_c, 0, 64, 87
1, 512424, Control_c, 0, 64, 88
1, 512837, Note_off_c, 0, 83, 33
1, 512898, Note_on_c, 0, 81, 39
1, 512951, Control_c, 0, 64, 87
1, 512980, Control_c, 0, 64, 87
1, 512995, Control_c, 0, 64, 86
1, 513010, Control_c, 0, 64, 86
1, 513025, Control_c, 0, 64, 85
1, 513039, Control_c, 0, 64, 84
1, 513054, Control_c, 0, 64, 83
1, 513069, Control_c, 0, 64, 81
1, 513084, Control_c, 0, 64, 79
1, 513099, Control_c, 0, 64, 76
1, 513113, Control_c, 0, 64, 71
1, 513128, Control_c, 0, 64, 65
1, 513143, Control_c, 0, 64, 46
1, 513158, Control_c, 0, 64, 0
1, 513402, Control_c, 0, 64, 52
1, 513417, Control_c, 0, 64, 66
1, 513432, Control_c, 0, 64, 69
1, 513446, Control_c, 0, 64, 71
1, 513461, Control_c, 0, 64, 72
1, 513476, Control_c, 0, 64, 75
1, 513491, Control_c, 0, 64, 78
1, 513506, Control_c, 0, 64, 80
1, 513521, Control_c, 0, 64, 82
1, 513536, Control_c, 0, 64, 83
1, 513551, Control_c, 0, 64, 84
1, 513581, Note_off_c, 0, 81, 28
1, 513892, Control_c, 0, 64, 84
1, 514010, Control_c, 0, 67, 121
1, 514025, Control_c, 0, 64, 83
1, 514025, Control_c, 0, 67, 111
1, 514040, Control_c, 0, 67, 97
1, 514055, Control_c, 0, 67, 81
1, 514077, Control_c, 0, 67, 61
1, 514092, Control_c, 0, 67, 47
1, 514107, Control_c, 0, 64, 83
1, 514107, Control_c, 0, 67, 36
1, 514121, Control_c, 0, 67, 28
1, 514136, Control_c, 0, 67, 21
1, 514152, Control_c, 0, 64, 82
1, 514152, Control_c, 0, 67, 15
1, 514167, Control_c, 0, 67, 10
1, 514182, Control_c, 0, 67, 0
1, 514196, Control_c, 0, 64, 82
1, 514226, Control_c, 0, 64, 81
1, 514270, Control_c, 0, 64, 81
1, 514300, Control_c, 0, 64, 80
1, 514315, Control_c, 0, 64, 80
1, 514329, Control_c, 0, 64, 79
1, 514344, Control_c, 0, 64, 78
1, 514359, Control_c, 0, 64, 77
1, 514374, Control_c, 0, 64, 76
1, 514389, Control_c, 0, 64, 75
1, 514403, Control_c, 0, 64, 74
1, 514418, Control_c, 0, 64, 73
1, 514433, Control_c, 0, 64, 72
1, 514448, Control_c, 0, 64, 70
1, 514463, Control_c, 0, 64, 68
1, 514478, Control_c, 0, 64, 66
1, 514493, Control_c, 0, 64, 65
1, 514508, Control_c, 0, 64, 64
1, 514523, Control_c, 0, 64, 63
1, 514537, Control_c, 0, 64, 61
1, 514552, Control_c, 0, 64, 59
1, 514567, Control_c, 0, 64, 57
1, 514582, Control_c, 0, 64, 56
1, 514597, Control_c, 0, 64, 54
1, 514612, Control_c, 0, 64, 53
1, 514627, Control_c, 0, 64, 51
1, 514642, Control_c, 0, 64, 49
1, 514657, Control_c, 0, 64, 45
1, 514672, Control_c, 0, 64, 42
1, 514686, Control_c, 0, 64, 37
1, 514701, Control_c, 0, 64, 31
1, 514716, Control_c, 0, 64, 24
1, 514731, Control_c, 0, 64, 11
1, 514745, Control_c, 0, 64, 0
1, 515026, Note_on_c, 0, 69, 59
1, 515048, Control_c, 0, 67, 9
1, 515063, Note_on_c, 0, 81, 73
1, 515063, Control_c, 0, 67, 22
1, 515069, Note_off_c, 0, 69, 62
1, 515078, Control_c, 0, 67, 54
1, 515092, Control_c, 0, 67, 92
1, 515107, Control_c, 0, 67, 121
1, 515122, Control_c, 0, 67, 127
1, 515360, Note_on_c, 0, 78, 51
1, 515390, Note_off_c, 0, 81, 46
1, 515472, Note_off_c, 0, 78, 53
1, 515480, Note_on_c, 0, 76, 58
1, 515489, Note_on_c, 0, 66, 50
1, 515496, Note_on_c, 0, 74, 58
1, 515508, Note_on_c, 0, 62, 30
1, 515512, Note_off_c, 0, 76, 61
1, 515527, Note_off_c, 0, 74, 65
1, 515531, Note_off_c, 0, 66, 52
1, 515625, Note_off_c, 0, 62, 0
1, 515627, Note_on_c, 0, 73, 62
1, 515662, Poly_aftertouch_c, 0, 62, 127
1, 515667, Note_off_c, 0, 73, 57
1, 515769, Note_on_c, 0, 74, 56
1, 515804, Note_off_c, 0, 74, 65
1, 515877, Poly_aftertouch_c, 0, 62, 0
1, 515882, Note_on_c, 0, 76, 64
1, 515899, Note_on_c, 0, 68, 44
1, 515900, Note_on_c, 0, 59, 45
1, 515901, Note_on_c, 0, 74, 71
1, 515903, Note_off_c, 0, 76, 65
1, 515933, Note_off_c, 0, 74, 59
1, 515950, Note_off_c, 0, 68, 50
1, 516018, Note_on_c, 0, 73, 71
1, 516066, Note_off_c, 0, 73, 61
1, 516163, Note_on_c, 0, 74, 66
1, 516191, Note_off_c, 0, 74, 66
1, 516296, Note_off_c, 0, 59, 42
1, 516334, Note_on_c, 0, 78, 56
1, 516348, Note_on_c, 0, 74, 47
1, 516349, Note_on_c, 0, 57, 34
1, 516363, Note_on_c, 0, 69, 31
1, 516515, Note_off_c, 0, 57, 50
1, 516517, Note_off_c, 0, 69, 52
1, 516600, Note_off_c, 0, 74, 39
1, 516612, Note_off_c, 0, 78, 38
1, 516624, Note_on_c, 0, 73, 55
1, 516628, Note_on_c, 0, 76, 52
1, 516660, Note_off_c, 0, 73, 66
1, 516661, Note_off_c, 0, 76, 52
1, 516772, Note_on_c, 0, 67, 54
1, 516782, Note_on_c, 0, 79, 69
1, 516803, Note_off_c, 0, 67, 64
1, 517081, Note_on_c, 0, 76, 57
1, 517119, Note_off_c, 0, 79, 54
1, 517190, Note_on_c, 0, 74, 61
1, 517196, Note_off_c, 0, 76, 56
1, 517210, Note_on_c, 0, 64, 48
1, 517212, Note_on_c, 0, 73, 66
1, 517213, Note_on_c, 0, 57, 46
1, 517233, Note_off_c, 0, 74, 63
1, 517235, Note_off_c, 0, 64, 63
1, 517256, Note_off_c, 0, 73, 62
1, 517335, Note_on_c, 0, 71, 65
1, 517381, Note_off_c, 0, 71, 61
1, 517467, Note_on_c, 0, 73, 66
1, 517510, Note_off_c, 0, 73, 61
1, 517588, Note_off_c, 0, 57, 39
1, 517597, Note_on_c, 0, 69, 65
1, 517601, Note_on_c, 0, 61, 48
1, 517603, Note_on_c, 0, 64, 48
1, 517626, Note_off_c, 0, 69, 64
1, 517735, Note_on_c, 0, 76, 63
1, 517774, Note_off_c, 0, 76, 59
1, 517867, Note_on_c, 0, 81, 65
1, 517910, Note_off_c, 0, 81, 60
1, 517936, Note_off_c, 0, 64, 46
1, 517944, Note_off_c, 0, 61, 54
1, 518028, Note_on_c, 0, 79, 59
1, 518037, Note_on_c, 0, 69, 41
1, 518039, Note_on_c, 0, 76, 58
1, 518045, Note_on_c, 0, 62, 35
1, 518129, Note_off_c, 0, 69, 60
1, 518177, Note_off_c, 0, 62, 55
1, 518192, Control_c, 0, 67, 122
1, 518207, Control_c, 0, 67, 109
1, 518222, Control_c, 0, 67, 89
1, 518237, Control_c, 0, 67, 64
1, 518245, Note_off_c, 0, 76, 53
1, 518252, Control_c, 0, 67, 38
1, 518267, Control_c, 0, 67, 13
1, 518281, Control_c, 0, 67, 0
1, 518314, Note_off_c, 0, 79, 55
1, 518319, Note_on_c, 0, 78, 60
1, 518329, Note_on_c, 0, 74, 51
1, 518355, Note_off_c, 0, 74, 61
1, 518360, Note_off_c, 0, 78, 59
1, 518431, Note_on_c, 0, 74, 76
1, 518445, Note_on_c, 0, 78, 92
1, 518446, Note_on_c, 0, 50, 84
1, 518484, Note_off_c, 0, 50, 64
1, 518508, Note_off_c, 0, 74, 55
1, 518585, Note_on_c, 0, 62, 68
1, 518622, Note_off_c, 0, 62, 61
1, 518675, Note_off_c, 0, 78, 58
1, 518709, Note_on_c, 0, 79, 76
1, 518718, Note_on_c, 0, 64, 72
1, 518746, Note_off_c, 0, 64, 64
1, 518760, Note_off_c, 0, 79, 59
1, 518846, Note_on_c, 0, 83, 81
1, 518851, Note_on_c, 0, 66, 75
1, 518904, Note_on_c, 0, 81, 75
1, 518913, Note_off_c, 0, 83, 63
1, 518938, Note_off_c, 0, 66, 63
1, 518967, Note_on_c, 0, 79, 79
1, 518991, Note_off_c, 0, 81, 60
1, 519031, Note_on_c, 0, 78, 70
1, 519036, Note_off_c, 0, 79, 61
1, 519071, Note_off_c, 0, 78, 65
1, 519101, Note_on_c, 0, 76, 54
1, 519137, Note_off_c, 0, 76, 51
1, 519150, Note_on_c, 0, 74, 70
1, 519168, Note_off_c, 0, 74, 68
1, 519229, Note_on_c, 0, 74, 76
1, 519235, Note_on_c, 0, 50, 82
1, 519238, Note_on_c, 0, 78, 90
1, 519270, Note_off_c, 0, 50, 64
1, 519321, Note_off_c, 0, 74, 59
1, 519385, Note_on_c, 0, 62, 76
1, 519416, Note_off_c, 0, 62, 64
1, 519483, Note_off_c, 0, 78, 56
1, 519509, Note_on_c, 0, 79, 75
1, 519516, Note_on_c, 0, 64, 76
1, 519545, Note_off_c, 0, 64, 63
1, 519564, Note_off_c, 0, 79, 61
1, 519643, Note_on_c, 0, 66, 89
1, 519643, Note_on_c, 0, 83, 83
1, 519701, Note_on_c, 0, 81, 78
1, 519712, Note_off_c, 0, 83, 63
1, 519725, Note_off_c, 0, 66, 61
1, 519760, Note_on_c, 0, 79, 79
1, 519784, Note_off_c, 0, 81, 62
1, 519823, Note_off_c, 0, 79, 62
1, 519825, Note_on_c, 0, 78, 71
1, 519864, Note_off_c, 0, 78, 65
1, 519885, Note_on_c, 0, 76, 61
1, 519917, Note_off_c, 0, 76, 48
1, 519933, Note_on_c, 0, 74, 79
1, 519954, Note_off_c, 0, 74, 73
1, 520022, Note_on_c, 0, 74, 85
1, 520022, Note_on_c, 0, 83, 94
1, 520027, Note_on_c, 0, 55, 76
1, 520072, Note_off_c, 0, 74, 64
1, 520072, Note_off_c, 0, 55, 62
1, 520167, Note_on_c, 0, 67, 67
1, 520210, Note_off_c, 0, 67, 58
1, 520285, Note_off_c, 0, 83, 58
1, 520298, Note_on_c, 0, 64, 70
1, 520299, Note_on_c, 0, 85, 77
1, 520322, Note_off_c, 0, 64, 70
1, 520362, Note_off_c, 0, 85, 62
1, 520429, Note_on_c, 0, 66, 85
1, 520430, Note_on_c, 0, 86, 84
1, 520431, Note_on_c, 0, 54, 78
1, 520439, Control_c, 0, 64, 65
1, 520454, Control_c, 0, 64, 66
1, 520469, Control_c, 0, 64, 0
1, 520484, Note_off_c, 0, 66, 64
1, 520489, Note_off_c, 0, 54, 65
1, 520500, Note_on_c, 0, 85, 76
1, 520509, Note_off_c, 0, 86, 62
1, 520563, Note_on_c, 0, 83, 80
1, 520598, Note_off_c, 0, 85, 61
1, 520639, Note_on_c, 0, 81, 71
1, 520640, Note_off_c, 0, 83, 65
1, 520676, Note_off_c, 0, 81, 64
1, 520698, Note_on_c, 0, 79, 68
1, 520753, Note_off_c, 0, 79, 58
1, 520765, Note_on_c, 0, 78, 70
1, 520817, Note_off_c, 0, 78, 54
1, 520829, Note_on_c, 0, 67, 81
1, 520831, Note_on_c, 0, 55, 73
1, 520837, Note_on_c, 0, 83, 79
1, 520861, Control_c, 0, 64, 66
1, 520876, Control_c, 0, 64, 67
1, 520892, Control_c, 0, 64, 28
1, 520906, Note_on_c, 0, 81, 79
1, 520906, Note_off_c, 0, 55, 64
1, 520906, Note_off_c, 0, 67, 62
1, 520906, Control_c, 0, 64, 0
1, 520920, Note_off_c, 0, 83, 61
1, 520973, Note_on_c, 0, 79, 75
1, 520989, Note_off_c, 0, 81, 61
1, 521035, Note_on_c, 0, 78, 76
1, 521039, Note_off_c, 0, 79, 62
1, 521083, Note_off_c, 0, 78, 65
1, 521093, Note_on_c, 0, 76, 70
1, 521143, Note_off_c, 0, 76, 55
1, 521154, Note_on_c, 0, 74, 68
1, 521180, Note_off_c, 0, 74, 68
1, 521245, Note_on_c, 0, 81, 74
1, 521254, Note_on_c, 0, 73, 74
1, 521254, Note_on_c, 0, 76, 68
1, 521262, Control_c, 0, 64, 69
1, 521263, Note_on_c, 0, 69, 65
1, 521265, Note_on_c, 0, 57, 63
1, 521270, Note_off_c, 0, 81, 66
1, 521277, Control_c, 0, 64, 127
1, 521279, Note_off_c, 0, 76, 67
1, 521280, Note_off_c, 0, 73, 67
1, 521321, Control_c, 0, 67, 56
1, 521336, Control_c, 0, 67, 127
1, 521351, Control_c, 0, 64, 98
1, 521362, Note_off_c, 0, 69, 64
1, 521366, Control_c, 0, 64, 65
1, 521374, Note_off_c, 0, 57, 64
1, 521380, Control_c, 0, 64, 0
1, 521725, Note_on_c, 0, 57, 40
1, 521768, Note_on_c, 0, 69, 54
1, 521775, Note_off_c, 0, 57, 58
1, 522034, Note_on_c, 0, 66, 50
1, 522066, Note_off_c, 0, 69, 48
1, 522154, Note_off_c, 0, 66, 54
1, 522155, Note_on_c, 0, 64, 59
1, 522160, Note_on_c, 0, 54, 44
1, 522169, Note_on_c, 0, 50, 37
1, 522180, Note_on_c, 0, 62, 55
1, 522185, Note_off_c, 0, 64, 66
1, 522221, Note_off_c, 0, 62, 59
1, 522273, Note_off_c, 0, 54, 36
1, 522311, Note_on_c, 0, 61, 69
1, 522363, Note_off_c, 0, 61, 60
1, 522441, Note_on_c, 0, 62, 73
1, 522499, Note_off_c, 0, 62, 61
1, 522544, Note_off_c, 0, 50, 47
1, 522565, Note_on_c, 0, 64, 78
1, 522574, Note_on_c, 0, 56, 49
1, 522578, Note_on_c, 0, 62, 72
1, 522579, Note_on_c, 0, 47, 45
1, 522592, Note_off_c, 0, 64, 67
1, 522628, Note_off_c, 0, 62, 61
1, 522674, Note_off_c, 0, 56, 38
1, 522698, Note_on_c, 0, 61, 80
1, 522752, Note_off_c, 0, 61, 63
1, 522830, Note_on_c, 0, 62, 73
1, 522860, Note_off_c, 0, 62, 61
1, 522932, Note_off_c, 0, 47, 44
1, 523009, Note_on_c, 0, 62, 46
1, 523009, Note_on_c, 0, 66, 55
1, 523012, Note_on_c, 0, 45, 38
1, 523014, Note_on_c, 0, 57, 33
1, 523169, Note_off_c, 0, 57, 50
1, 523234, Note_off_c, 0, 45, 43
1, 523239, Note_off_c, 0, 62, 55
1, 523289, Note_off_c, 0, 66, 50
1, 523301, Note_on_c, 0, 64, 56
1, 523318, Note_on_c, 0, 61, 33
1, 523352, Note_off_c, 0, 64, 59
1, 523355, Note_off_c, 0, 61, 45
1, 523435, Note_on_c, 0, 55, 54
1, 523476, Note_on_c, 0, 67, 65
1, 523498, Note_off_c, 0, 55, 55
1, 523727, Note_on_c, 0, 64, 64
1, 523769, Note_off_c, 0, 67, 53
1, 523841, Note_on_c, 0, 62, 64
1, 523860, Note_off_c, 0, 64, 54
1, 523868, Note_on_c, 0, 52, 50
1, 523873, Note_on_c, 0, 61, 71
1, 523874, Note_on_c, 0, 45, 47
1, 523898, Note_off_c, 0, 62, 61
1, 523947, Note_off_c, 0, 52, 53
1, 523950, Note_off_c, 0, 61, 63
1, 523997, Note_on_c, 0, 59, 76
1, 524065, Note_off_c, 0, 59, 60
1, 524123, Note_on_c, 0, 61, 80
1, 524181, Note_off_c, 0, 61, 61
1, 524252, Note_on_c, 0, 49, 56
1, 524258, Note_on_c, 0, 57, 76
1, 524262, Note_on_c, 0, 52, 51
1, 524296, Note_off_c, 0, 45, 32
1, 524311, Note_off_c, 0, 57, 62
1, 524386, Note_on_c, 0, 64, 78
1, 524442, Note_off_c, 0, 64, 65
1, 524517, Note_on_c, 0, 69, 74
1, 524583, Note_off_c, 0, 69, 58
1, 524599, Note_off_c, 0, 52, 50
1, 524637, Note_off_c, 0, 49, 52
1, 524682, Note_on_c, 0, 50, 46
1, 524691, Note_on_c, 0, 57, 47
1, 524691, Note_on_c, 0, 67, 64
1, 524702, Note_on_c, 0, 64, 57
1, 524783, Control_c, 0, 64, 17
1, 524792, Note_off_c, 0, 50, 64
1, 524797, Control_c, 0, 64, 39
1, 524812, Control_c, 0, 64, 48
1, 524826, Note_off_c, 0, 57, 62
1, 524827, Control_c, 0, 64, 53
1, 524842, Control_c, 0, 64, 55
1, 524856, Control_c, 0, 64, 56
1, 524872, Control_c, 0, 64, 57
1, 524876, Note_off_c, 0, 64, 52
1, 524887, Control_c, 0, 64, 57
1, 524902, Control_c, 0, 64, 58
1, 524917, Control_c, 0, 64, 59
1, 524917, Control_c, 0, 67, 122
1, 524923, Note_off_c, 0, 67, 49
1, 524932, Control_c, 0, 64, 60
1, 524932, Control_c, 0, 67, 103
1, 524946, Control_c, 0, 67, 80
1, 524948, Note_on_c, 0, 66, 60
1, 524950, Note_on_c, 0, 62, 52
1, 524961, Control_c, 0, 64, 59
1, 524961, Control_c, 0, 67, 55
1, 524974, Note_off_c, 0, 62, 58
1, 524974, Note_off_c, 0, 66, 65
1, 524976, Control_c, 0, 64, 58
1, 524976, Control_c, 0, 67, 37
1, 524991, Control_c, 0, 64, 55
1, 524991, Control_c, 0, 67, 21
1, 525006, Control_c, 0, 64, 50
1, 525006, Control_c, 0, 67, 0
1, 525020, Control_c, 0, 64, 40
1, 525035, Control_c, 0, 64, 0
1, 525095, Note_on_c, 0, 74, 74
1, 525099, Note_on_c, 0, 50, 79
1, 525100, Note_on_c, 0, 78, 86
1, 525154, Note_off_c, 0, 50, 65
1, 525171, Note_off_c, 0, 74, 55
1, 525220, Note_on_c, 0, 62, 75
1, 525270, Note_off_c, 0, 62, 62
1, 525351, Note_on_c, 0, 64, 79
1, 525359, Note_on_c, 0, 79, 78
1, 525364, Note_off_c, 0, 78, 62
1, 525394, Note_off_c, 0, 64, 62
1, 525420, Note_off_c, 0, 79, 63
1, 525487, Note_on_c, 0, 66, 79
1, 525487, Note_on_c, 0, 83, 82
1, 525548, Note_on_c, 0, 81, 81
1, 525562, Note_off_c, 0, 83, 63
1, 525577, Note_off_c, 0, 66, 65
1, 525610, Note_on_c, 0, 79, 77
1, 525634, Note_off_c, 0, 81, 62
1, 525668, Note_on_c, 0, 78, 76
1, 525679, Note_off_c, 0, 79, 61
1, 525711, Note_off_c, 0, 78, 64
1, 525722, Note_on_c, 0, 76, 68
1, 525776, Note_off_c, 0, 76, 62
1, 525778, Note_on_c, 0, 74, 73
1, 525795, Note_off_c, 0, 74, 68
1, 525870, Note_on_c, 0, 43, 75
1, 525872, Note_on_c, 0, 79, 72
1, 525875, Note_on_c, 0, 83, 87
1, 525906, Note_off_c, 0, 43, 65
1, 525930, Note_off_c, 0, 79, 58
1, 525996, Note_on_c, 0, 55, 73
1, 526038, Note_off_c, 0, 55, 65
1, 526128, Note_off_c, 0, 83, 54
1, 526137, Note_on_c, 0, 57, 68
1, 526144, Note_on_c, 0, 85, 74
1, 526167, Note_off_c, 0, 57, 62
1, 526213, Note_off_c, 0, 85, 61
1, 526275, Note_on_c, 0, 59, 69
1, 526277, Note_on_c, 0, 88, 80
1, 526294, Note_off_c, 0, 59, 64
1, 526339, Note_on_c, 0, 86, 73
1, 526344, Note_off_c, 0, 88, 64
1, 526386, Note_on_c, 0, 85, 79
1, 526413, Note_off_c, 0, 86, 62
1, 526451, Note_off_c, 0, 85, 65
1, 526454, Note_on_c, 0, 83, 72
1, 526491, Note_off_c, 0, 83, 61
1, 526512, Note_on_c, 0, 81, 68
1, 526563, Note_off_c, 0, 81, 53
1, 526580, Note_on_c, 0, 79, 63
1, 526607, Note_off_c, 0, 79, 66
1, 526632, Note_on_c, 0, 55, 60
1, 526633, Note_on_c, 0, 85, 75
1, 526634, Note_on_c, 0, 64, 61
1, 526636, Note_on_c, 0, 59, 57
1, 526658, Note_off_c, 0, 64, 66
1, 526658, Note_off_c, 0, 59, 60
1, 526659, Note_off_c, 0, 55, 65
1, 526694, Note_on_c, 0, 83, 73
1, 526718, Note_off_c, 0, 85, 61
1, 526748, Note_on_c, 0, 81, 71
1, 526753, Note_off_c, 0, 83, 66
1, 526784, Note_off_c, 0, 81, 62
1, 526817, Note_on_c, 0, 79, 70
1, 526843, Note_off_c, 0, 79, 62
1, 526881, Note_on_c, 0, 78, 66
1, 526905, Note_off_c, 0, 78, 69
1, 526938, Note_on_c, 0, 76, 70
1, 526968, Note_off_c, 0, 76, 62
1, 527008, Note_on_c, 0, 83, 80
1, 527012, Note_on_c, 0, 62, 55
1, 527015, Note_on_c, 0, 66, 58
1, 527025, Note_on_c, 0, 57, 44
1, 527036, Note_off_c, 0, 62, 58
1, 527036, Note_off_c, 0, 66, 63
1, 527055, Note_off_c, 0, 57, 53
1, 527066, Note_on_c, 0, 81, 79
1, 527070, Note_off_c, 0, 83, 61
1, 527132, Note_on_c, 0, 79, 75
1, 527141, Note_off_c, 0, 81, 62
1, 527192, Note_on_c, 0, 78, 74
1, 527193, Note_off_c, 0, 79, 63
1, 527234, Note_off_c, 0, 78, 65
1, 527253, Note_on_c, 0, 76, 70
1, 527310, Note_off_c, 0, 76, 56
1, 527314, Note_on_c, 0, 74, 78
1, 527338, Note_off_c, 0, 74, 68
1, 527384, Note_on_c, 0, 81, 79
1, 527391, Note_on_c, 0, 67, 64
1, 527393, Note_on_c, 0, 64, 65
1, 527400, Note_on_c, 0, 57, 59
1, 527427, Note_off_c, 0, 67, 57
1, 527445, Note_on_c, 0, 79, 79
1, 527447, Note_off_c, 0, 81, 62
1, 527481, Note_off_c, 0, 64, 36
1, 527501, Note_on_c, 0, 78, 81
1, 527523, Note_off_c, 0, 79, 59
1, 527572, Note_on_c, 0, 76, 79
1, 527572, Note_off_c, 0, 78, 67
1, 527601, Note_off_c, 0, 76, 63
1, 527622, Note_on_c, 0, 74, 66
1, 527653, Note_off_c, 0, 74, 60
1, 527677, Note_on_c, 0, 73, 79
1, 527701, Note_off_c, 0, 73, 63
1, 527715, Note_off_c, 0, 57, 51
1, 527740, Note_on_c, 0, 74, 74
1, 527755, Note_on_c, 0, 66, 52
1, 527759, Note_on_c, 0, 62, 47
1, 527857, Note_off_c, 0, 74, 63
1, 527862, Note_off_c, 0, 66, 37
1, 527889, Note_off_c, 0, 62, 37
1, 528276, Note_on_c, 0, 50, 81
1, 528276, Note_on_c, 0, 62, 76
1, 528282, Note_on_c, 0, 38, 80
1, 528314, Note_off_c, 0, 50, 67
1, 528318, Note_off_c, 0, 38, 64
1, 528330, Note_off_c, 0, 62, 59
1, 528396, Note_on_c, 0, 62, 79
1, 528401, Note_on_c, 0, 38, 77
1, 528401, Note_on_c, 0, 50, 87
1, 528443, Note_off_c, 0, 50, 62
1, 528445, Note_off_c, 0, 38, 63
1, 528456, Note_off_c, 0, 62, 62
1, 528527, Note_on_c, 0, 64, 76
1, 528532, Note_on_c, 0, 50, 96
1, 528539, Note_on_c, 0, 38, 87
1, 528548, Note_on_c, 0, 62, 79
1, 528577, Note_off_c, 0, 64, 64
1, 528618, Note_off_c, 0, 62, 63
1, 528623, Note_on_c, 0, 61, 74
1, 528686, Note_on_c, 0, 62, 61
1, 528686, Note_off_c, 0, 61, 60
1, 528714, Note_off_c, 0, 50, 63
1, 528718, Note_off_c, 0, 38, 61
1, 528735, Note_off_c, 0, 62, 60
1, 528795, Note_on_c, 0, 62, 74
1, 528803, Note_on_c, 0, 50, 93
1, 528810, Note_on_c, 0, 38, 86
1, 528855, Note_off_c, 0, 50, 65
1, 528858, Note_off_c, 0, 62, 62
1, 528859, Note_off_c, 0, 38, 63
1, 528921, Note_on_c, 0, 64, 73
1, 528936, Note_on_c, 0, 50, 98
1, 528937, Note_on_c, 0, 62, 75
1, 528941, Note_on_c, 0, 38, 88
1, 528971, Note_off_c, 0, 64, 62
1, 529006, Note_on_c, 0, 61, 76
1, 529011, Note_off_c, 0, 62, 61
1, 529088, Note_off_c, 0, 61, 61
1, 529091, Note_on_c, 0, 62, 64
1, 529095, Note_off_c, 0, 50, 62
1, 529111, Note_off_c, 0, 38, 60
1, 529133, Note_off_c, 0, 62, 60
1, 529195, Note_on_c, 0, 50, 79
1, 529197, Note_on_c, 0, 62, 76
1, 529201, Note_on_c, 0, 38, 80
1, 529227, Note_off_c, 0, 50, 66
1, 529242, Note_off_c, 0, 38, 61
1, 529251, Note_off_c, 0, 62, 63
1, 529343, Note_on_c, 0, 60, 78
1, 529348, Note_on_c, 0, 48, 87
1, 529352, Note_on_c, 0, 36, 82
1, 529373, Note_off_c, 0, 48, 69
1, 529373, Note_off_c, 0, 60, 68
1, 529379, Control_c, 0, 64, 114
1, 529382, Note_off_c, 0, 36, 64
1, 529393, Control_c, 0, 64, 127
1, 529438, Control_c, 0, 64, 89
1, 529452, Control_c, 0, 64, 0
1, 529482, Control_c, 0, 67, 33
1, 529497, Control_c, 0, 67, 111
1, 529511, Control_c, 0, 67, 127
1, 529756, Note_on_c, 0, 69, 58
1, 529803, Note_on_c, 0, 81, 68
1, 529809, Note_off_c, 0, 69, 63
1, 530194, Note_on_c, 0, 72, 47
1, 530205, Note_on_c, 0, 74, 44
1, 530223, Note_off_c, 0, 72, 59
1, 530234, Note_off_c, 0, 74, 56
1, 530256, Note_off_c, 0, 81, 59
1, 530325, Note_on_c, 0, 72, 52
1, 530325, Note_on_c, 0, 74, 55
1, 530325, Note_on_c, 0, 84, 67
1, 530351, Note_off_c, 0, 72, 56
1, 530358, Note_off_c, 0, 74, 62
1, 530363, Note_off_c, 0, 84, 64
1, 530444, Note_on_c, 0, 83, 84
1, 530449, Note_on_c, 0, 72, 52
1, 530457, Note_on_c, 0, 74, 51
1, 530484, Note_off_c, 0, 72, 61
1, 530485, Note_off_c, 0, 74, 56
1, 530499, Note_off_c, 0, 83, 65
1, 530585, Note_on_c, 0, 72, 60
1, 530587, Note_on_c, 0, 81, 84
1, 530588, Note_on_c, 0, 74, 53
1, 530622, Note_off_c, 0, 72, 59
1, 530625, Note_off_c, 0, 81, 64
1, 530626, Note_off_c, 0, 74, 61
1, 530709, Note_on_c, 0, 79, 76
1, 530712, Note_on_c, 0, 74, 57
1, 530723, Note_on_c, 0, 72, 54
1, 530744, Note_off_c, 0, 72, 61
1, 530748, Note_off_c, 0, 74, 54
1, 530764, Note_off_c, 0, 79, 59
1, 530830, Note_on_c, 0, 78, 75
1, 530835, Note_on_c, 0, 72, 46
1, 530849, Note_on_c, 0, 74, 46
1, 530866, Note_off_c, 0, 72, 53
1, 530879, Note_off_c, 0, 74, 54
1, 530885, Note_off_c, 0, 78, 62
1, 530977, Note_on_c, 0, 81, 63
1, 530985, Note_on_c, 0, 74, 45
1, 531004, Note_on_c, 0, 71, 42
1, 531099, Control_c, 0, 64, 45
1, 531114, Control_c, 0, 64, 60
1, 531129, Control_c, 0, 64, 64
1, 531144, Control_c, 0, 64, 66
1, 531159, Control_c, 0, 64, 68
1, 531168, Note_off_c, 0, 74, 60
1, 531173, Control_c, 0, 64, 71
1, 531188, Control_c, 0, 64, 74
1, 531203, Control_c, 0, 64, 77
1, 531217, Control_c, 0, 64, 80
1, 531226, Note_off_c, 0, 71, 63
1, 531232, Control_c, 0, 64, 81
1, 531247, Control_c, 0, 64, 82
1, 531247, Control_c, 0, 67, 122
1, 531263, Control_c, 0, 64, 82
1, 531263, Control_c, 0, 67, 97
1, 531278, Control_c, 0, 67, 65
1, 531300, Control_c, 0, 67, 33
1, 531314, Control_c, 0, 67, 0
1, 531358, Note_off_c, 0, 81, 46
1, 531382, Note_on_c, 0, 79, 56
1, 531388, Control_c, 0, 64, 82
1, 531401, Note_off_c, 0, 79, 61
1, 531403, Control_c, 0, 64, 79
1, 531418, Control_c, 0, 64, 74
1, 531433, Control_c, 0, 64, 66
1, 531448, Control_c, 0, 64, 0
1, 531526, Note_on_c, 0, 59, 84
1, 531527, Note_on_c, 0, 47, 82
1, 531532, Note_on_c, 0, 35, 74
1, 531557, Note_off_c, 0, 47, 66
1, 531561, Note_off_c, 0, 35, 65
1, 531567, Note_off_c, 0, 59, 60
1, 531651, Note_on_c, 0, 59, 85
1, 531651, Note_on_c, 0, 35, 74
1, 531652, Note_on_c, 0, 47, 88
1, 531695, Note_off_c, 0, 59, 59
1, 531698, Note_off_c, 0, 47, 65
1, 531707, Note_off_c, 0, 35, 64
1, 531776, Note_on_c, 0, 59, 76
1, 531788, Note_on_c, 0, 45, 95
1, 531794, Note_on_c, 0, 33, 87
1, 531797, Note_on_c, 0, 57, 76
1, 531824, Note_off_c, 0, 59, 57
1, 531859, Note_off_c, 0, 57, 63
1, 531862, Note_on_c, 0, 56, 73
1, 531926, Note_off_c, 0, 56, 61
1, 531940, Note_on_c, 0, 57, 53
1, 531960, Note_off_c, 0, 45, 60
1, 531980, Note_off_c, 0, 33, 59
1, 531985, Note_off_c, 0, 57, 62
1, 532056, Note_on_c, 0, 57, 61
1, 532068, Note_on_c, 0, 45, 80
1, 532074, Note_on_c, 0, 33, 76
1, 532097, Note_off_c, 0, 57, 63
1, 532107, Note_off_c, 0, 45, 62
1, 532123, Note_off_c, 0, 33, 59
1, 532180, Note_on_c, 0, 57, 67
1, 532196, Note_on_c, 0, 43, 92
1, 532199, Note_on_c, 0, 31, 91
1, 532202, Note_on_c, 0, 55, 75
1, 532226, Note_off_c, 0, 57, 62
1, 532274, Note_off_c, 0, 55, 63
1, 532278, Note_on_c, 0, 54, 61
1, 532340, Note_off_c, 0, 54, 58
1, 532351, Note_off_c, 0, 43, 57
1, 532353, Note_on_c, 0, 55, 56
1, 532358, Note_off_c, 0, 31, 60
1, 532393, Note_off_c, 0, 55, 65
1, 532471, Note_on_c, 0, 31, 75
1, 532472, Note_on_c, 0, 55, 75
1, 532474, Note_on_c, 0, 43, 68
1, 532504, Note_off_c, 0, 43, 65
1, 532506, Note_off_c, 0, 31, 62
1, 532527, Note_off_c, 0, 55, 59
1, 532611, Note_on_c, 0, 42, 94
1, 532611, Control_c, 0, 64, 74
1, 532612, Note_on_c, 0, 54, 76
1, 532614, Note_on_c, 0, 30, 88
1, 532626, Control_c, 0, 64, 127
1, 532634, Note_off_c, 0, 42, 69
1, 532638, Note_off_c, 0, 54, 67
1, 532640, Note_off_c, 0, 30, 64
1, 532685, Control_c, 0, 64, 119
1, 532700, Control_c, 0, 64, 75
1, 532715, Control_c, 0, 64, 0
1, 533076, Note_on_c, 0, 74, 58
1, 533111, Note_off_c, 0, 74, 63
1, 533115, Note_on_c, 0, 84, 67
1, 533467, Note_on_c, 0, 54, 55
1, 533502, Note_off_c, 0, 54, 63
1, 533511, Note_off_c, 0, 84, 56
1, 533537, Note_on_c, 0, 83, 60
1, 533598, Note_off_c, 0, 83, 62
1, 533602, Note_on_c, 0, 81, 64
1, 533610, Note_on_c, 0, 57, 44
1, 533633, Note_off_c, 0, 81, 61
1, 533638, Note_off_c, 0, 57, 57
1, 533671, Note_on_c, 0, 79, 59
1, 533697, Note_off_c, 0, 79, 66
1, 533733, Note_on_c, 0, 62, 47
1, 533736, Note_on_c, 0, 78, 63
1, 533773, Note_off_c, 0, 62, 60
1, 533798, Note_on_c, 0, 76, 69
1, 533808, Note_off_c, 0, 78, 63
1, 533834, Note_off_c, 0, 76, 60
1, 533870, Note_on_c, 0, 74, 62
1, 533873, Note_on_c, 0, 54, 55
1, 533900, Note_off_c, 0, 74, 61
1, 533907, Note_off_c, 0, 54, 63
1, 533923, Note_on_c, 0, 76, 69
1, 533985, Note_on_c, 0, 74, 66
1, 533988, Note_off_c, 0, 76, 59
1, 534006, Note_on_c, 0, 57, 53
1, 534033, Note_off_c, 0, 57, 63
1, 534045, Note_off_c, 0, 74, 66
1, 534051, Note_on_c, 0, 72, 65
1, 534081, Note_off_c, 0, 72, 65
1, 534119, Note_on_c, 0, 71, 63
1, 534133, Note_on_c, 0, 62, 48
1, 534152, Note_off_c, 0, 71, 62
1, 534177, Note_off_c, 0, 62, 58
1, 534184, Note_on_c, 0, 69, 59
1, 534213, Note_off_c, 0, 69, 67
1, 534250, Note_on_c, 0, 55, 53
1, 534252, Note_on_c, 0, 71, 67
1, 534295, Note_off_c, 0, 55, 63
1, 534305, Note_off_c, 0, 71, 64
1, 534316, Note_on_c, 0, 74, 71
1, 534377, Note_off_c, 0, 74, 64
1, 534387, Note_on_c, 0, 76, 67
1, 534392, Note_on_c, 0, 59, 59
1, 534424, Note_off_c, 0, 59, 62
1, 534435, Note_off_c, 0, 76, 57
1, 534447, Note_on_c, 0, 78, 71
1, 534490, Note_off_c, 0, 78, 61
1, 534518, Note_on_c, 0, 79, 77
1, 534520, Note_on_c, 0, 62, 47
1, 534569, Note_off_c, 0, 79, 45
1, 534570, Note_off_c, 0, 62, 57
1, 534584, Note_on_c, 0, 81, 76
1, 534648, Note_on_c, 0, 83, 74
1, 534649, Note_off_c, 0, 81, 60
1, 534650, Note_on_c, 0, 55, 53
1, 534682, Note_off_c, 0, 55, 64
1, 534706, Note_off_c, 0, 83, 64
1, 534716, Note_on_c, 0, 84, 64
1, 534773, Note_on_c, 0, 59, 57
1, 534776, Note_off_c, 0, 84, 65
1, 534786, Note_on_c, 0, 86, 72
1, 534796, Note_off_c, 0, 59, 59
1, 534841, Note_on_c, 0, 83, 68
1, 534846, Note_off_c, 0, 86, 62
1, 534906, Note_on_c, 0, 62, 54
1, 534907, Note_on_c, 0, 81, 67
1, 534912, Note_off_c, 0, 83, 62
1, 534948, Note_off_c, 0, 62, 58
1, 534951, Note_off_c, 0, 81, 61
1, 534977, Note_on_c, 0, 79, 61
1, 535010, Note_off_c, 0, 79, 59
1, 535036, Note_on_c, 0, 54, 59
1, 535046, Note_on_c, 0, 84, 72
1, 535074, Note_off_c, 0, 54, 64
1, 535110, Note_on_c, 0, 83, 64
1, 535112, Note_off_c, 0, 84, 61
1, 535166, Note_on_c, 0, 81, 66
1, 535166, Note_off_c, 0, 83, 63
1, 535170, Note_on_c, 0, 57, 55
1, 535190, Note_off_c, 0, 81, 67
1, 535197, Note_off_c, 0, 57, 63
1, 535225, Note_on_c, 0, 79, 68
1, 535256, Note_off_c, 0, 79, 59
1, 535287, Note_on_c, 0, 78, 70
1, 535298, Note_on_c, 0, 62, 53
1, 535341, Note_off_c, 0, 62, 58
1, 535350, Note_on_c, 0, 76, 73
1, 535362, Note_off_c, 0, 78, 63
1, 535389, Note_off_c, 0, 76, 62
1, 535419, Note_on_c, 0, 74, 69
1, 535428, Note_on_c, 0, 54, 64
1, 535450, Note_off_c, 0, 74, 59
1, 535469, Note_off_c, 0, 54, 61
1, 535481, Note_on_c, 0, 76, 65
1, 535540, Note_on_c, 0, 74, 72
1, 535548, Note_off_c, 0, 76, 60
1, 535553, Note_on_c, 0, 57, 65
1, 535585, Note_off_c, 0, 57, 64
1, 535600, Note_off_c, 0, 74, 66
1, 535600, Note_on_c, 0, 72, 72
1, 535639, Note_off_c, 0, 72, 65
1, 535666, Note_on_c, 0, 71, 69
1, 535685, Note_on_c, 0, 62, 59
1, 535699, Note_off_c, 0, 71, 60
1, 535722, Note_on_c, 0, 69, 70
1, 535724, Note_off_c, 0, 62, 59
1, 535747, Note_off_c, 0, 69, 68
1, 535797, Note_on_c, 0, 71, 74
1, 535807, Note_on_c, 0, 55, 59
1, 535839, Note_off_c, 0, 55, 64
1, 535839, Note_off_c, 0, 71, 55
1, 535853, Note_on_c, 0, 74, 76
1, 535909, Note_off_c, 0, 74, 65
1, 535918, Note_on_c, 0, 76, 74
1, 535926, Note_on_c, 0, 59, 64
1, 535955, Note_off_c, 0, 59, 63
1, 535978, Note_off_c, 0, 76, 59
1, 535985, Note_on_c, 0, 78, 76
1, 536030, Note_off_c, 0, 78, 61
1, 536051, Note_on_c, 0, 79, 80
1, 536057, Note_on_c, 0, 62, 55
1, 536094, Note_off_c, 0, 62, 61
1, 536115, Note_off_c, 0, 79, 60
1, 536119, Note_on_c, 0, 81, 80
1, 536176, Note_on_c, 0, 55, 63
1, 536183, Note_on_c, 0, 83, 77
1, 536186, Note_off_c, 0, 81, 61
1, 536212, Note_off_c, 0, 55, 62
1, 536246, Note_off_c, 0, 83, 64
1, 536254, Note_on_c, 0, 84, 69
1, 536313, Note_on_c, 0, 59, 62
1, 536316, Note_off_c, 0, 84, 64
1, 536328, Note_on_c, 0, 86, 68
1, 536341, Note_off_c, 0, 59, 64
1, 536377, Note_on_c, 0, 83, 75
1, 536385, Note_off_c, 0, 86, 63
1, 536438, Note_on_c, 0, 62, 57
1, 536442, Note_off_c, 0, 83, 64
1, 536447, Note_on_c, 0, 81, 62
1, 536477, Note_off_c, 0, 62, 62
1, 536479, Note_off_c, 0, 81, 63
1, 536510, Note_on_c, 0, 79, 64
1, 536557, Note_off_c, 0, 79, 58
1, 536577, Note_on_c, 0, 51, 65
1, 536587, Note_on_c, 0, 81, 67
1, 536614, Note_off_c, 0, 81, 67
1, 536615, Note_off_c, 0, 51, 63
1, 536648, Note_on_c, 0, 79, 64
1, 536674, Note_off_c, 0, 79, 64
1, 536707, Note_on_c, 0, 78, 68
1, 536709, Note_on_c, 0, 54, 49
1, 536736, Note_off_c, 0, 54, 62
1, 536739, Note_off_c, 0, 78, 62
1, 536769, Note_on_c, 0, 76, 68
1, 536801, Note_off_c, 0, 76, 58
1, 536825, Note_on_c, 0, 59, 54
1, 536829, Note_on_c, 0, 75, 67
1, 536876, Note_off_c, 0, 59, 53
1, 536896, Note_on_c, 0, 72, 66
1, 536897, Note_off_c, 0, 75, 59
1, 536925, Note_off_c, 0, 72, 63
1, 536964, Note_on_c, 0, 71, 63
1, 536966, Note_on_c, 0, 51, 62
1, 536986, Control_c, 0, 64, 23
1, 536996, Note_off_c, 0, 71, 63
1, 537000, Control_c, 0, 64, 0
1, 537007, Note_off_c, 0, 51, 62
1, 537022, Note_on_c, 0, 72, 62
1, 537063, Note_off_c, 0, 72, 64
1, 537082, Note_on_c, 0, 71, 66
1, 537094, Note_on_c, 0, 54, 54
1, 537112, Note_off_c, 0, 71, 66
1, 537124, Note_off_c, 0, 54, 64
1, 537146, Note_on_c, 0, 69, 64
1, 537194, Note_off_c, 0, 69, 57
1, 537206, Note_on_c, 0, 67, 70
1, 537222, Note_on_c, 0, 59, 53
1, 537258, Note_off_c, 0, 67, 60
1, 537263, Note_off_c, 0, 59, 58
1, 537271, Note_on_c, 0, 66, 69
1, 537306, Note_off_c, 0, 66, 66
1, 537340, Note_on_c, 0, 52, 63
1, 537344, Note_on_c, 0, 67, 63
1, 537380, Note_off_c, 0, 52, 62
1, 537396, Note_off_c, 0, 67, 59
1, 537407, Note_on_c, 0, 71, 65
1, 537453, Note_off_c, 0, 71, 65
1, 537470, Note_on_c, 0, 73, 72
1, 537474, Note_on_c, 0, 55, 65
1, 537508, Note_off_c, 0, 55, 60
1, 537517, Note_off_c, 0, 73, 64
1, 537529, Note_on_c, 0, 75, 69
1, 537562, Note_off_c, 0, 75, 64
1, 537592, Note_on_c, 0, 76, 70
1, 537602, Note_on_c, 0, 59, 58
1, 537642, Note_off_c, 0, 59, 59
1, 537644, Note_off_c, 0, 76, 55
1, 537663, Note_on_c, 0, 78, 64
1, 537714, Note_off_c, 0, 78, 56
1, 537717, Note_on_c, 0, 79, 71
1, 537726, Note_on_c, 0, 52, 63
1, 537777, Note_off_c, 0, 52, 59
1, 537777, Note_off_c, 0, 79, 61
1, 537780, Note_on_c, 0, 81, 69
1, 537849, Note_off_c, 0, 81, 63
1, 537858, Note_on_c, 0, 55, 63
1, 537859, Note_on_c, 0, 83, 68
1, 537908, Note_off_c, 0, 55, 59
1, 537915, Note_on_c, 0, 79, 65
1, 537922, Note_off_c, 0, 83, 59
1, 537978, Note_on_c, 0, 78, 69
1, 537991, Note_on_c, 0, 59, 54
1, 537993, Note_off_c, 0, 79, 60
1, 538030, Note_off_c, 0, 78, 63
1, 538049, Note_on_c, 0, 76, 69
1, 538071, Note_off_c, 0, 59, 51
1, 538086, Note_off_c, 0, 76, 56
1, 538118, Note_on_c, 0, 49, 63
1, 538118, Note_on_c, 0, 79, 74
1, 538182, Note_on_c, 0, 78, 68
1, 538185, Note_off_c, 0, 79, 60
1, 538193, Note_off_c, 0, 49, 57
1, 538239, Note_on_c, 0, 76, 66
1, 538245, Note_on_c, 0, 52, 60
1, 538252, Note_off_c, 0, 78, 63
1, 538270, Note_off_c, 0, 76, 61
1, 538284, Note_off_c, 0, 52, 61
1, 538301, Note_on_c, 0, 74, 71
1, 538331, Note_off_c, 0, 74, 63
1, 538370, Note_on_c, 0, 73, 72
1, 538372, Note_on_c, 0, 57, 56
1, 538425, Note_off_c, 0, 57, 55
1, 538432, Note_on_c, 0, 71, 67
1, 538447, Note_off_c, 0, 73, 62
1, 538471, Note_off_c, 0, 71, 61
1, 538504, Note_on_c, 0, 69, 63
1, 538510, Note_on_c, 0, 49, 65
1, 538531, Note_off_c, 0, 69, 66
1, 538560, Note_on_c, 0, 71, 68
1, 538569, Note_off_c, 0, 49, 54
1, 538617, Note_off_c, 0, 71, 64
1, 538618, Note_on_c, 0, 69, 69
1, 538632, Note_on_c, 0, 52, 61
1, 538650, Note_off_c, 0, 69, 64
1, 538670, Note_off_c, 0, 52, 60
1, 538685, Note_on_c, 0, 67, 64
1, 538715, Note_off_c, 0, 67, 63
1, 538754, Note_on_c, 0, 66, 61
1, 538775, Note_on_c, 0, 57, 47
1, 538791, Note_off_c, 0, 66, 65
1, 538817, Note_off_c, 0, 57, 58
1, 538820, Note_on_c, 0, 64, 66
1, 538851, Note_off_c, 0, 64, 65
1, 538891, Note_on_c, 0, 50, 61
1, 538891, Note_on_c, 0, 66, 55
1, 538905, Control_c, 0, 64, 40
1, 538918, Note_off_c, 0, 66, 65
1, 538920, Control_c, 0, 64, 0
1, 538933, Note_off_c, 0, 50, 65
1, 538951, Note_on_c, 0, 69, 65
1, 538993, Note_off_c, 0, 69, 59
1, 539019, Note_on_c, 0, 71, 75
1, 539023, Note_on_c, 0, 54, 58
1, 539054, Note_off_c, 0, 54, 64
1, 539070, Note_off_c, 0, 71, 63
1, 539085, Note_on_c, 0, 73, 68
1, 539112, Note_off_c, 0, 73, 68
1, 539145, Note_on_c, 0, 57, 52
1, 539149, Note_on_c, 0, 74, 70
1, 539179, Note_off_c, 0, 74, 64
1, 539192, Note_off_c, 0, 57, 58
1, 539208, Note_on_c, 0, 76, 76
1, 539266, Note_off_c, 0, 76, 58
1, 539273, Note_on_c, 0, 50, 61
1, 539276, Note_on_c, 0, 78, 70
1, 539299, Note_off_c, 0, 78, 70
1, 539333, Note_on_c, 0, 79, 75
1, 539344, Note_off_c, 0, 50, 59
1, 539350, Control_c, 0, 64, 39
1, 539365, Control_c, 0, 64, 53
1, 539380, Note_off_c, 0, 79, 53
1, 539380, Control_c, 0, 64, 59
1, 539395, Note_on_c, 0, 81, 73
1, 539395, Control_c, 0, 64, 62
1, 539403, Note_on_c, 0, 54, 62
1, 539410, Control_c, 0, 64, 63
1, 539425, Control_c, 0, 64, 65
1, 539440, Control_c, 0, 64, 66
1, 539454, Control_c, 0, 64, 67
1, 539456, Note_off_c, 0, 81, 61
1, 539469, Control_c, 0, 64, 68
1, 539480, Note_off_c, 0, 54, 58
1, 539484, Control_c, 0, 64, 68
1, 539485, Note_on_c, 0, 83, 38
1, 539497, Note_on_c, 0, 84, 37
1, 539511, Note_off_c, 0, 83, 58
1, 539514, Control_c, 0, 64, 69
1, 539523, Note_on_c, 0, 57, 53
1, 539532, Note_off_c, 0, 84, 51
1, 539535, Control_c, 0, 64, 70
1, 539543, Note_on_c, 0, 85, 57
1, 539550, Control_c, 0, 64, 72
1, 539565, Control_c, 0, 64, 74
1, 539566, Note_off_c, 0, 85, 65
1, 539567, Note_off_c, 0, 57, 59
1, 539580, Control_c, 0, 64, 76
1, 539595, Control_c, 0, 64, 77
1, 539625, Control_c, 0, 64, 74
1, 539631, Note_on_c, 0, 81, 69
1, 539640, Control_c, 0, 64, 67
1, 539654, Control_c, 0, 64, 0
1, 539664, Note_on_c, 0, 55, 71
1, 539684, Note_off_c, 0, 81, 62
1, 539701, Note_on_c, 0, 79, 61
1, 539714, Control_c, 0, 64, 58
1, 539720, Note_off_c, 0, 79, 64
1, 539728, Control_c, 0, 64, 65
1, 539743, Control_c, 0, 64, 68
1, 539758, Control_c, 0, 64, 72
1, 539773, Control_c, 0, 64, 76
1, 539787, Control_c, 0, 64, 79
1, 539802, Control_c, 0, 64, 81
1, 539804, Note_off_c, 0, 55, 64
1, 539817, Control_c, 0, 64, 82
1, 539832, Control_c, 0, 64, 82
1, 539879, Note_on_c, 0, 76, 55
1, 539903, Note_off_c, 0, 76, 59
1, 539915, Poly_aftertouch_c, 0, 79, 0
1, 539918, Note_on_c, 0, 74, 70
1, 539935, Control_c, 0, 64, 83
1, 539950, Control_c, 0, 64, 84
1, 539961, Note_off_c, 0, 74, 63
1, 539965, Control_c, 0, 64, 85
1, 539994, Control_c, 0, 64, 83
1, 540009, Control_c, 0, 64, 77
1, 540010, Note_on_c, 0, 79, 83
1, 540024, Control_c, 0, 64, 70
1, 540039, Control_c, 0, 64, 64
1, 540043, Note_on_c, 0, 67, 46
1, 540067, Note_on_c, 0, 78, 76
1, 540069, Control_c, 0, 64, 66
1, 540070, Note_off_c, 0, 67, 57
1, 540081, Note_off_c, 0, 79, 60
1, 540084, Control_c, 0, 64, 69
1, 540085, Note_on_c, 0, 66, 66
1, 540099, Control_c, 0, 64, 71
1, 540114, Note_on_c, 0, 76, 68
1, 540114, Control_c, 0, 64, 73
1, 540116, Note_off_c, 0, 66, 64
1, 540129, Control_c, 0, 64, 74
1, 540137, Note_off_c, 0, 78, 64
1, 540140, Note_off_c, 0, 76, 65
1, 540170, Note_on_c, 0, 74, 78
1, 540172, Note_on_c, 0, 64, 43
1, 540194, Note_off_c, 0, 74, 68
1, 540198, Note_off_c, 0, 64, 58
1, 540209, Note_on_c, 0, 62, 57
1, 540239, Note_on_c, 0, 61, 67
1, 540242, Note_on_c, 0, 72, 68
1, 540242, Note_off_c, 0, 62, 64
1, 540248, Control_c, 0, 64, 75
1, 540263, Control_c, 0, 64, 77
1, 540266, Note_off_c, 0, 61, 65
1, 540284, Control_c, 0, 64, 78
1, 540287, Note_off_c, 0, 72, 63
1, 540299, Control_c, 0, 64, 77
1, 540303, Note_on_c, 0, 69, 58
1, 540314, Control_c, 0, 64, 66
1, 540321, Note_on_c, 0, 59, 63
1, 540322, Note_on_c, 0, 71, 36
1, 540329, Control_c, 0, 64, 0
1, 540334, Note_on_c, 0, 57, 70
1, 540334, Note_off_c, 0, 69, 64
1, 540345, Note_on_c, 0, 67, 74
1, 540346, Note_off_c, 0, 59, 65
1, 540352, Note_off_c, 0, 71, 55
1, 540359, Note_off_c, 0, 57, 67
1, 540367, Note_off_c, 0, 67, 69
1, 540492, Note_on_c, 0, 81, 74
1, 540498, Note_on_c, 0, 76, 61
1, 540500, Note_on_c, 0, 73, 66
1, 540505, Note_on_c, 0, 45, 60
1, 540514, Note_on_c, 0, 57, 40
1, 540526, Note_off_c, 0, 73, 65
1, 540528, Note_off_c, 0, 76, 63
1, 540528, Note_off_c, 0, 81, 63
1, 540533, Note_off_c, 0, 45, 58
1, 540546, Note_off_c, 0, 57, 52
1, 540624, Note_on_c, 0, 45, 65
1, 540625, Note_on_c, 0, 76, 70
1, 540626, Note_on_c, 0, 81, 73
1, 540629, Note_on_c, 0, 73, 65
1, 540633, Note_on_c, 0, 57, 60
1, 540648, Note_off_c, 0, 81, 70
1, 540650, Note_off_c, 0, 73, 65
1, 540655, Note_off_c, 0, 45, 63
1, 540656, Note_off_c, 0, 57, 63
1, 540659, Note_off_c, 0, 76, 62
1, 540769, Note_on_c, 0, 81, 78
1, 540769, Note_on_c, 0, 76, 79
1, 540770, Note_on_c, 0, 73, 71
1, 540775, Note_on_c, 0, 57, 59
1, 540778, Note_on_c, 0, 45, 60
1, 540788, Control_c, 0, 64, 63
1, 540790, Note_off_c, 0, 76, 70
1, 540790, Note_off_c, 0, 81, 68
1, 540793, Note_off_c, 0, 73, 68
1, 540802, Control_c, 0, 64, 69
1, 540817, Control_c, 0, 64, 79
1, 540832, Control_c, 0, 64, 92
1, 540848, Control_c, 0, 64, 105
1, 540863, Control_c, 0, 64, 111
1, 540863, Control_c, 0, 67, 17
1, 540878, Control_c, 0, 67, 38
1, 540892, Control_c, 0, 64, 108
1, 540892, Control_c, 0, 67, 65
1, 540907, Control_c, 0, 64, 93
1, 540907, Control_c, 0, 67, 104
1, 540922, Control_c, 0, 64, 78
1, 540922, Control_c, 0, 67, 127
1, 540937, Control_c, 0, 64, 64
1, 540952, Control_c, 0, 64, 0
1, 540999, Note_off_c, 0, 57, 56
1, 541060, Note_off_c, 0, 45, 65
1, 541275, Note_on_c, 0, 78, 53
1, 541303, Note_on_c, 0, 69, 38
1, 541345, Control_c, 0, 64, 44
1, 541359, Control_c, 0, 64, 57
1, 541374, Control_c, 0, 64, 63
1, 541389, Control_c, 0, 64, 65
1, 541404, Control_c, 0, 64, 67
1, 541404, Control_c, 0, 67, 127
1, 541419, Control_c, 0, 64, 69
1, 541419, Control_c, 0, 67, 121
1, 541433, Control_c, 0, 64, 70
1, 541433, Control_c, 0, 67, 110
1, 541448, Control_c, 0, 64, 72
1, 541448, Control_c, 0, 67, 95
1, 541463, Control_c, 0, 64, 74
1, 541463, Control_c, 0, 67, 76
1, 541478, Control_c, 0, 64, 76
1, 541478, Control_c, 0, 67, 61
1, 541493, Control_c, 0, 64, 78
1, 541493, Control_c, 0, 67, 56
1, 541507, Control_c, 0, 64, 79
1, 541522, Control_c, 0, 64, 80
1, 541522, Control_c, 0, 67, 56
1, 541537, Control_c, 0, 67, 57
1, 541548, Note_off_c, 0, 69, 37
1, 541551, Control_c, 0, 67, 57
1, 541566, Control_c, 0, 67, 58
1, 541581, Control_c, 0, 67, 58
1, 541596, Control_c, 0, 67, 59
1, 541611, Control_c, 0, 67, 59
1, 541625, Control_c, 0, 67, 60
1, 541656, Control_c, 0, 67, 60
1, 541686, Control_c, 0, 67, 61
1, 541708, Note_on_c, 0, 76, 59
1, 541725, Note_on_c, 0, 67, 46
1, 541735, Note_off_c, 0, 78, 57
1, 541830, Note_off_c, 0, 67, 51
1, 541842, Control_c, 0, 64, 79
1, 541857, Note_on_c, 0, 78, 69
1, 541901, Control_c, 0, 64, 79
1, 541906, Note_off_c, 0, 76, 60
1, 541960, Control_c, 0, 64, 78
1, 542002, Note_on_c, 0, 76, 69
1, 542004, Control_c, 0, 64, 78
1, 542048, Control_c, 0, 64, 77
1, 542048, Control_c, 0, 67, 60
1, 542081, Note_off_c, 0, 78, 45
1, 542123, Control_c, 0, 64, 77
1, 542138, Control_c, 0, 64, 76
1, 542153, Control_c, 0, 64, 76
1, 542154, Note_on_c, 0, 74, 66
1, 542161, Note_on_c, 0, 66, 47
1, 542167, Control_c, 0, 64, 75
1, 542182, Control_c, 0, 64, 74
1, 542182, Note_on_c, 0, 62, 41
1, 542197, Control_c, 0, 64, 72
1, 542212, Control_c, 0, 64, 70
1, 542227, Control_c, 0, 64, 67
1, 542242, Control_c, 0, 64, 62
1, 542248, Note_off_c, 0, 76, 55
1, 542256, Control_c, 0, 64, 44
1, 542271, Control_c, 0, 64, 0
1, 542651, Note_on_c, 0, 61, 54
1, 542666, Note_off_c, 0, 62, 54
1, 542767, Note_off_c, 0, 61, 58
1, 542774, Note_on_c, 0, 62, 57
1, 542887, Control_c, 0, 67, 61
1, 542901, Note_on_c, 0, 61, 55
1, 542945, Note_off_c, 0, 62, 37
1, 543072, Note_on_c, 0, 59, 52
1, 543100, Note_off_c, 0, 61, 42
1, 543169, Control_c, 0, 64, 21
1, 543170, Note_off_c, 0, 66, 50
1, 543184, Control_c, 0, 64, 48
1, 543198, Control_c, 0, 64, 60
1, 543213, Control_c, 0, 64, 64
1, 543228, Control_c, 0, 64, 65
1, 543244, Control_c, 0, 64, 67
1, 543258, Control_c, 0, 64, 69
1, 543281, Control_c, 0, 64, 72
1, 543296, Control_c, 0, 64, 75
1, 543310, Control_c, 0, 64, 77
1, 543325, Control_c, 0, 64, 79
1, 543340, Control_c, 0, 64, 80
1, 543355, Control_c, 0, 64, 81
1, 543370, Control_c, 0, 64, 82
1, 543376, Note_on_c, 0, 78, 64
1, 543378, Note_off_c, 0, 74, 63
1, 543384, Control_c, 0, 64, 83
1, 543384, Control_c, 0, 67, 60
1, 543414, Control_c, 0, 64, 83
1, 543442, Note_off_c, 0, 78, 63
1, 543522, Note_on_c, 0, 79, 72
1, 543529, Note_on_c, 0, 74, 61
1, 543533, Control_c, 0, 64, 82
1, 543548, Control_c, 0, 64, 78
1, 543562, Control_c, 0, 64, 72
1, 543577, Control_c, 0, 64, 65
1, 543592, Control_c, 0, 64, 57
1, 543607, Control_c, 0, 64, 55
1, 543621, Control_c, 0, 64, 61
1, 543636, Control_c, 0, 64, 64
1, 543651, Control_c, 0, 64, 66
1, 543666, Control_c, 0, 64, 67
1, 543681, Control_c, 0, 64, 68
1, 543695, Control_c, 0, 64, 69
1, 543710, Control_c, 0, 64, 70
1, 543725, Control_c, 0, 64, 71
1, 543739, Control_c, 0, 64, 73
1, 543754, Control_c, 0, 64, 74
1, 543769, Control_c, 0, 64, 74
1, 543798, Note_off_c, 0, 79, 61
1, 543807, Note_on_c, 0, 83, 70
1, 543823, Note_on_c, 0, 55, 49
1, 543828, Control_c, 0, 64, 75
1, 543835, Note_off_c, 0, 59, 36
1, 543852, Note_off_c, 0, 83, 59
1, 543862, Note_off_c, 0, 74, 55
1, 543932, Control_c, 0, 64, 74
1, 543957, Note_on_c, 0, 81, 70
1, 543962, Control_c, 0, 64, 73
1, 543962, Note_on_c, 0, 73, 70
1, 543965, Note_on_c, 0, 57, 58
1, 543977, Control_c, 0, 64, 71
1, 543992, Control_c, 0, 64, 68
1, 544007, Control_c, 0, 64, 63
1, 544028, Control_c, 0, 64, 38
1, 544043, Control_c, 0, 64, 0
1, 544066, Note_off_c, 0, 55, 27
1, 544096, Note_off_c, 0, 73, 61
1, 544111, Note_on_c, 0, 59, 67
1, 544113, Note_on_c, 0, 74, 68
1, 544118, Control_c, 0, 67, 61
1, 544166, Note_off_c, 0, 57, 50
1, 544206, Control_c, 0, 67, 61
1, 544236, Control_c, 0, 67, 62
1, 544246, Note_on_c, 0, 61, 75
1, 544248, Note_on_c, 0, 79, 78
1, 544253, Note_on_c, 0, 76, 74
1, 544260, Note_off_c, 0, 74, 59
1, 544266, Control_c, 0, 67, 62
1, 544272, Note_off_c, 0, 59, 57
1, 544285, Note_off_c, 0, 81, 55
1, 544296, Control_c, 0, 67, 63
1, 544311, Control_c, 0, 67, 64
1, 544325, Control_c, 0, 67, 64
1, 544340, Control_c, 0, 67, 65
1, 544355, Control_c, 0, 67, 66
1, 544369, Control_c, 0, 67, 66
1, 544370, Note_off_c, 0, 61, 62
1, 544381, Note_on_c, 0, 62, 71
1, 544384, Control_c, 0, 67, 67
1, 544386, Note_on_c, 0, 78, 82
1, 544399, Control_c, 0, 67, 68
1, 544401, Note_on_c, 0, 74, 70
1, 544404, Note_off_c, 0, 76, 59
1, 544429, Note_off_c, 0, 79, 57
1, 544488, Control_c, 0, 67, 67
1, 544503, Control_c, 0, 67, 66
1, 544516, Note_on_c, 0, 64, 75
1, 544517, Control_c, 0, 67, 64
1, 544519, Note_off_c, 0, 62, 60
1, 544532, Control_c, 0, 67, 61
1, 544547, Control_c, 0, 64, 41
1, 544547, Control_c, 0, 67, 58
1, 544561, Control_c, 0, 64, 59
1, 544561, Control_c, 0, 67, 55
1, 544576, Control_c, 0, 64, 64
1, 544576, Control_c, 0, 67, 51
1, 544591, Control_c, 0, 64, 67
1, 544591, Control_c, 0, 67, 38
1, 544606, Control_c, 0, 64, 69
1, 544606, Control_c, 0, 67, 15
1, 544621, Control_c, 0, 64, 70
1, 544621, Control_c, 0, 67, 0
1, 544636, Control_c, 0, 64, 73
1, 544651, Control_c, 0, 64, 75
1, 544656, Note_on_c, 0, 66, 73
1, 544657, Note_off_c, 0, 74, 57
1, 544665, Control_c, 0, 64, 78
1, 544676, Note_off_c, 0, 64, 64
1, 544680, Control_c, 0, 64, 79
1, 544695, Control_c, 0, 64, 80
1, 544707, Note_off_c, 0, 66, 59
1, 544806, Control_c, 0, 64, 80
1, 544808, Note_on_c, 0, 74, 71
1, 544811, Note_on_c, 0, 71, 69
1, 544814, Note_on_c, 0, 76, 74
1, 544821, Control_c, 0, 64, 77
1, 544823, Note_on_c, 0, 67, 71
1, 544824, Note_off_c, 0, 78, 61
1, 544836, Control_c, 0, 64, 71
1, 544852, Control_c, 0, 64, 61
1, 544866, Control_c, 0, 64, 0
1, 545262, Note_on_c, 0, 68, 74
1, 545268, Note_off_c, 0, 74, 63
1, 545307, Note_off_c, 0, 71, 52
1, 545370, Control_c, 0, 64, 32
1, 545385, Control_c, 0, 64, 59
1, 545399, Control_c, 0, 64, 64
1, 545409, Note_on_c, 0, 78, 79
1, 545414, Control_c, 0, 64, 66
1, 545429, Control_c, 0, 64, 68
1, 545432, Note_off_c, 0, 76, 60
1, 545444, Control_c, 0, 64, 70
1, 545459, Control_c, 0, 64, 72
1, 545473, Control_c, 0, 64, 74
1, 545488, Control_c, 0, 64, 75
1, 545503, Control_c, 0, 64, 75
1, 545545, Note_on_c, 0, 76, 82
1, 545559, Note_off_c, 0, 67, 19
1, 545569, Note_off_c, 0, 78, 61
1, 545581, Note_off_c, 0, 68, 37
1, 545603, Note_off_c, 0, 76, 62
1, 545675, Control_c, 0, 64, 75
1, 545689, Control_c, 0, 64, 73
1, 545691, Note_on_c, 0, 76, 69
1, 545704, Control_c, 0, 64, 71
1, 545711, Note_on_c, 0, 73, 51
1, 545716, Note_on_c, 0, 69, 51
1, 545719, Control_c, 0, 64, 67
1, 545734, Control_c, 0, 64, 59
1, 545749, Control_c, 0, 64, 0
1, 545867, Control_c, 0, 64, 49
1, 545882, Control_c, 0, 64, 62
1, 545897, Control_c, 0, 64, 65
1, 545911, Control_c, 0, 64, 67
1, 545926, Control_c, 0, 64, 68
1, 545941, Control_c, 0, 64, 70
1, 545956, Control_c, 0, 64, 71
1, 545971, Control_c, 0, 64, 73
1, 545986, Control_c, 0, 64, 74
1, 546001, Control_c, 0, 64, 74
1, 546015, Control_c, 0, 64, 75
1, 546022, Note_off_c, 0, 73, 48
1, 546030, Control_c, 0, 64, 75
1, 546031, Note_off_c, 0, 69, 53
1, 546060, Control_c, 0, 64, 76
1, 546075, Control_c, 0, 64, 76
1, 546119, Control_c, 0, 64, 76
1, 546134, Control_c, 0, 64, 74
1, 546148, Control_c, 0, 64, 69
1, 546149, Note_on_c, 0, 73, 49
1, 546163, Control_c, 0, 64, 62
1, 546164, Note_on_c, 0, 69, 44
1, 546172, Note_on_c, 0, 67, 45
1, 546178, Control_c, 0, 64, 11
1, 546193, Control_c, 0, 64, 0
1, 546222, Control_c, 0, 64, 49
1, 546237, Control_c, 0, 64, 61
1, 546252, Control_c, 0, 64, 63
1, 546275, Control_c, 0, 64, 64
1, 546289, Note_off_c, 0, 76, 59
1, 546289, Control_c, 0, 64, 64
1, 546300, Note_on_c, 0, 78, 64
1, 546349, Control_c, 0, 64, 63
1, 546360, Note_off_c, 0, 73, 55
1, 546364, Control_c, 0, 64, 62
1, 546379, Control_c, 0, 64, 58
1, 546394, Control_c, 0, 64, 48
1, 546409, Control_c, 0, 64, 14
1, 546423, Control_c, 0, 64, 0
1, 546434, Note_off_c, 0, 67, 37
1, 546439, Note_off_c, 0, 78, 62
1, 546444, Note_on_c, 0, 79, 68
1, 546448, Note_off_c, 0, 69, 26
1, 546578, Note_off_c, 0, 79, 51
1, 546579, Note_on_c, 0, 81, 60
1, 546586, Note_on_c, 0, 74, 42
1, 546591, Note_on_c, 0, 69, 38
1, 546606, Note_on_c, 0, 66, 29
1, 546669, Note_off_c, 0, 66, 0
1, 546669, Note_on_c, 0, 66, 13
1, 546670, Note_off_c, 0, 74, 61
1, 546690, Note_off_c, 0, 69, 62
1, 546695, Note_off_c, 0, 81, 53
1, 546706, Control_c, 0, 67, 10
1, 546714, Note_on_c, 0, 86, 64
1, 546716, Note_off_c, 0, 66, 61
1, 546720, Control_c, 0, 67, 31
1, 546735, Control_c, 0, 67, 54
1, 546746, Note_off_c, 0, 86, 61
1, 546750, Control_c, 0, 67, 77
1, 546764, Control_c, 0, 67, 96
1, 546779, Control_c, 0, 67, 111
1, 546794, Control_c, 0, 67, 123
1, 546809, Control_c, 0, 67, 127
1, 546844, Note_on_c, 0, 85, 68
1, 546896, Note_off_c, 0, 85, 59
1, 546973, Note_on_c, 0, 83, 71
1, 546985, Note_on_c, 0, 67, 47
1, 547006, Note_off_c, 0, 83, 56
1, 547117, Note_on_c, 0, 81, 62
1, 547117, Note_off_c, 0, 67, 31
1, 547150, Note_off_c, 0, 81, 61
1, 547250, Note_on_c, 0, 59, 45
1, 547252, Note_on_c, 0, 79, 52
1, 547255, Note_on_c, 0, 62, 30
1, 547280, Note_off_c, 0, 59, 57
1, 547287, Note_off_c, 0, 79, 52
1, 547291, Note_off_c, 0, 62, 49
1, 547390, Note_on_c, 0, 78, 57
1, 547392, Note_on_c, 0, 62, 36
1, 547425, Note_on_c, 0, 57, 38
1, 547618, Note_off_c, 0, 78, 54
1, 547691, Note_on_c, 0, 79, 54
1, 547731, Note_off_c, 0, 79, 61
1, 547745, Note_on_c, 0, 78, 51
1, 547771, Note_off_c, 0, 62, 42
1, 547817, Note_off_c, 0, 78, 62
1, 547838, Note_on_c, 0, 76, 57
1, 547846, Note_on_c, 0, 61, 32
1, 547949, Control_c, 0, 64, 23
1, 547964, Control_c, 0, 64, 52
1, 547964, Control_c, 0, 67, 126
1, 547969, Note_off_c, 0, 76, 57
1, 547979, Control_c, 0, 64, 63
1, 547979, Control_c, 0, 67, 119
1, 547993, Control_c, 0, 64, 66
1, 547993, Control_c, 0, 67, 106
1, 548008, Control_c, 0, 64, 68
1, 548008, Control_c, 0, 67, 89
1, 548023, Control_c, 0, 64, 70
1, 548023, Control_c, 0, 67, 64
1, 548039, Control_c, 0, 64, 73
1, 548039, Control_c, 0, 67, 45
1, 548054, Control_c, 0, 64, 75
1, 548054, Control_c, 0, 67, 31
1, 548069, Control_c, 0, 64, 77
1, 548069, Control_c, 0, 67, 24
1, 548083, Control_c, 0, 64, 78
1, 548083, Control_c, 0, 67, 21
1, 548098, Control_c, 0, 64, 78
1, 548098, Control_c, 0, 67, 21
1, 548113, Control_c, 0, 64, 79
1, 548147, Note_off_c, 0, 61, 40
1, 548202, Control_c, 0, 67, 20
1, 548216, Control_c, 0, 67, 20
1, 548231, Control_c, 0, 67, 19
1, 548246, Control_c, 0, 67, 16
1, 548261, Control_c, 0, 67, 9
1, 548276, Control_c, 0, 64, 78
1, 548276, Control_c, 0, 67, 0
1, 548299, Note_on_c, 0, 78, 49
1, 548305, Control_c, 0, 64, 78
1, 548314, Note_on_c, 0, 69, 44
1, 548320, Control_c, 0, 64, 77
1, 548335, Control_c, 0, 64, 76
1, 548350, Control_c, 0, 64, 73
1, 548355, Note_off_c, 0, 57, 40
1, 548365, Control_c, 0, 64, 68
1, 548380, Control_c, 0, 64, 57
1, 548395, Control_c, 0, 64, 0
1, 548439, Control_c, 0, 64, 45
1, 548454, Control_c, 0, 64, 59
1, 548469, Control_c, 0, 64, 64
1, 548483, Control_c, 0, 64, 66
1, 548498, Control_c, 0, 64, 68
1, 548520, Control_c, 0, 64, 70
1, 548535, Control_c, 0, 64, 73
1, 548550, Control_c, 0, 64, 75
1, 548564, Control_c, 0, 64, 77
1, 548579, Control_c, 0, 64, 78
1, 548582, Note_off_c, 0, 69, 37
1, 548594, Control_c, 0, 64, 78
1, 548609, Control_c, 0, 64, 79
1, 548639, Control_c, 0, 64, 80
1, 548698, Control_c, 0, 64, 79
1, 548713, Control_c, 0, 64, 77
1, 548728, Control_c, 0, 64, 72
1, 548742, Control_c, 0, 64, 67
1, 548748, Note_on_c, 0, 76, 54
1, 548755, Note_on_c, 0, 67, 49
1, 548757, Note_off_c, 0, 78, 53
1, 548757, Control_c, 0, 64, 63
1, 548772, Control_c, 0, 64, 62
1, 548787, Control_c, 0, 64, 64
1, 548802, Control_c, 0, 64, 65
1, 548816, Control_c, 0, 64, 66
1, 548831, Control_c, 0, 64, 67
1, 548847, Control_c, 0, 64, 68
1, 548862, Control_c, 0, 64, 69
1, 548877, Control_c, 0, 64, 70
1, 548886, Note_on_c, 0, 78, 59
1, 548889, Note_off_c, 0, 67, 51
1, 548892, Control_c, 0, 64, 71
1, 548907, Control_c, 0, 64, 72
1, 548921, Control_c, 0, 64, 72
1, 548925, Note_off_c, 0, 76, 60
1, 548951, Control_c, 0, 64, 73
1, 549025, Control_c, 0, 64, 72
1, 549033, Note_on_c, 0, 76, 54
1, 549052, Note_off_c, 0, 78, 38
1, 549158, Control_c, 0, 64, 72
1, 549173, Control_c, 0, 64, 71
1, 549173, Note_on_c, 0, 74, 61
1, 549181, Note_off_c, 0, 76, 54
1, 549187, Control_c, 0, 64, 69
1, 549193, Note_on_c, 0, 66, 42
1, 549194, Note_on_c, 0, 59, 33
1, 549202, Control_c, 0, 64, 65
1, 549217, Control_c, 0, 64, 53
1, 549232, Control_c, 0, 64, 0
1, 549284, Control_c, 0, 64, 26
1, 549299, Control_c, 0, 64, 49
1, 549313, Control_c, 0, 64, 59
1, 549328, Control_c, 0, 64, 63
1, 549344, Control_c, 0, 64, 65
1, 549358, Control_c, 0, 64, 68
1, 549373, Control_c, 0, 64, 70
1, 549388, Control_c, 0, 64, 73
1, 549403, Control_c, 0, 64, 75
1, 549418, Control_c, 0, 64, 76
1, 549432, Control_c, 0, 64, 77
1, 549447, Control_c, 0, 64, 78
1, 549457, Note_off_c, 0, 66, 37
1, 549462, Control_c, 0, 64, 79
1, 549596, Control_c, 0, 64, 78
1, 549611, Control_c, 0, 64, 75
1, 549621, Note_on_c, 0, 72, 57
1, 549626, Control_c, 0, 64, 70
1, 549627, Note_on_c, 0, 57, 51
1, 549629, Note_on_c, 0, 66, 49
1, 549639, Note_off_c, 0, 59, 38
1, 549641, Control_c, 0, 64, 63
1, 549656, Control_c, 0, 64, 0
1, 549700, Control_c, 0, 64, 40
1, 549715, Control_c, 0, 64, 56
1, 549730, Control_c, 0, 64, 62
1, 549745, Control_c, 0, 64, 64
1, 549757, Note_on_c, 0, 59, 56
1, 549760, Control_c, 0, 64, 65
1, 549775, Control_c, 0, 64, 67
1, 549783, Note_off_c, 0, 57, 56
1, 549787, Note_off_c, 0, 72, 47
1, 549787, Note_off_c, 0, 66, 58
1, 549789, Control_c, 0, 64, 69
1, 549804, Control_c, 0, 64, 71
1, 549819, Control_c, 0, 64, 73
1, 549834, Control_c, 0, 64, 74
1, 549849, Control_c, 0, 64, 75
1, 549863, Control_c, 0, 64, 76
1, 549878, Control_c, 0, 64, 77
1, 549893, Control_c, 0, 64, 77
1, 549900, Note_on_c, 0, 57, 62
1, 549937, Control_c, 0, 64, 78
1, 549942, Note_off_c, 0, 59, 38
1, 549972, Note_off_c, 0, 74, 37
1, 549996, Control_c, 0, 64, 77
1, 550019, Control_c, 0, 64, 75
1, 550034, Control_c, 0, 64, 71
1, 550045, Note_off_c, 0, 57, 53
1, 550049, Control_c, 0, 64, 62
1, 550053, Note_on_c, 0, 71, 67
1, 550058, Note_on_c, 0, 55, 58
1, 550060, Note_on_c, 0, 67, 61
1, 550063, Control_c, 0, 64, 0
1, 550107, Control_c, 0, 64, 33
1, 550122, Control_c, 0, 64, 55
1, 550136, Control_c, 0, 64, 62
1, 550151, Control_c, 0, 64, 65
1, 550166, Control_c, 0, 64, 67
1, 550179, Note_off_c, 0, 67, 53
1, 550180, Control_c, 0, 64, 69
1, 550195, Control_c, 0, 64, 72
1, 550210, Control_c, 0, 64, 74
1, 550214, Note_off_c, 0, 71, 58
1, 550225, Control_c, 0, 64, 76
1, 550240, Control_c, 0, 64, 78
1, 550255, Control_c, 0, 64, 79
1, 550259, Note_off_c, 0, 55, 53
1, 550270, Control_c, 0, 64, 80
1, 550284, Control_c, 0, 64, 81
1, 550299, Control_c, 0, 64, 81
1, 550325, Note_on_c, 0, 54, 67
1, 550325, Note_on_c, 0, 75, 75
1, 550328, Note_on_c, 0, 71, 69
1, 550329, Control_c, 0, 64, 82
1, 550333, Note_on_c, 0, 69, 69
1, 550354, Note_off_c, 0, 54, 66
1, 550368, Note_off_c, 0, 69, 56
1, 550372, Note_off_c, 0, 71, 64
1, 550388, Control_c, 0, 64, 81
1, 550391, Note_off_c, 0, 75, 60
1, 550403, Control_c, 0, 64, 76
1, 550418, Control_c, 0, 64, 67
1, 550433, Control_c, 0, 64, 0
1, 550464, Note_on_c, 0, 76, 84
1, 550472, Note_on_c, 0, 52, 63
1, 550472, Note_on_c, 0, 71, 75
1, 550475, Note_on_c, 0, 67, 68
1, 550493, Control_c, 0, 64, 28
1, 550493, Note_off_c, 0, 71, 71
1, 550502, Note_off_c, 0, 67, 67
1, 550508, Control_c, 0, 64, 62
1, 550514, Note_off_c, 0, 76, 63
1, 550523, Control_c, 0, 64, 68
1, 550538, Control_c, 0, 64, 74
1, 550552, Control_c, 0, 64, 80
1, 550567, Control_c, 0, 64, 84
1, 550582, Control_c, 0, 64, 86
1, 550597, Control_c, 0, 64, 87
1, 550729, Control_c, 0, 64, 86
1, 550734, Note_on_c, 0, 83, 78
1, 550736, Note_off_c, 0, 52, 55
1, 550743, Note_on_c, 0, 78, 67
1, 550744, Control_c, 0, 64, 86
1, 550748, Note_on_c, 0, 50, 51
1, 550767, Control_c, 0, 64, 85
1, 550777, Note_off_c, 0, 78, 66
1, 550786, Note_off_c, 0, 83, 61
1, 550811, Control_c, 0, 64, 85
1, 550823, Note_off_c, 0, 50, 52
1, 550826, Control_c, 0, 64, 84
1, 550841, Control_c, 0, 64, 82
1, 550856, Control_c, 0, 64, 76
1, 550871, Control_c, 0, 64, 67
1, 550885, Control_c, 0, 64, 0
1, 550892, Note_on_c, 0, 49, 50
1, 550898, Note_on_c, 0, 81, 61
1, 550901, Note_on_c, 0, 76, 56
1, 550974, Control_c, 0, 64, 23
1, 550989, Control_c, 0, 64, 56
1, 551004, Control_c, 0, 64, 64
1, 551018, Control_c, 0, 64, 68
1, 551033, Control_c, 0, 64, 72
1, 551048, Control_c, 0, 64, 76
1, 551062, Note_off_c, 0, 81, 59
1, 551063, Control_c, 0, 64, 79
1, 551078, Control_c, 0, 64, 81
1, 551092, Control_c, 0, 64, 84
1, 551107, Control_c, 0, 64, 85
1, 551122, Control_c, 0, 64, 86
1, 551137, Control_c, 0, 64, 86
1, 551157, Note_on_c, 0, 45, 57
1, 551160, Note_off_c, 0, 76, 39
1, 551170, Note_on_c, 0, 79, 55
1, 551173, Note_on_c, 0, 73, 58
1, 551176, Note_off_c, 0, 49, 24
1, 551185, Note_off_c, 0, 45, 56
1, 551202, Note_off_c, 0, 73, 60
1, 551209, Note_off_c, 0, 79, 60
1, 551286, Control_c, 0, 64, 84
1, 551301, Control_c, 0, 64, 79
1, 551304, Note_on_c, 0, 50, 69
1, 551304, Note_on_c, 0, 78, 70
1, 551309, Note_on_c, 0, 74, 64
1, 551316, Control_c, 0, 64, 71
1, 551331, Control_c, 0, 64, 58
1, 551346, Control_c, 0, 64, 0
1, 551390, Control_c, 0, 64, 55
1, 551405, Control_c, 0, 64, 65
1, 551420, Control_c, 0, 64, 69
1, 551432, Note_on_c, 0, 52, 76
1, 551434, Control_c, 0, 64, 73
1, 551449, Control_c, 0, 64, 79
1, 551459, Note_off_c, 0, 50, 63
1, 551464, Control_c, 0, 64, 85
1, 551478, Note_off_c, 0, 74, 54
1, 551479, Control_c, 0, 64, 92
1, 551494, Control_c, 0, 64, 98
1, 551516, Control_c, 0, 64, 104
1, 551530, Control_c, 0, 64, 110
1, 551545, Control_c, 0, 64, 119
1, 551560, Control_c, 0, 64, 127
1, 551563, Note_on_c, 0, 54, 70
1, 551589, Note_off_c, 0, 52, 61
1, 551595, Note_off_c, 0, 54, 67
1, 551634, Control_c, 0, 64, 112
1, 551649, Control_c, 0, 64, 94
1, 551664, Control_c, 0, 64, 75
1, 551677, Note_off_c, 0, 78, 63
1, 551679, Control_c, 0, 64, 48
1, 551694, Control_c, 0, 64, 0
1, 551703, Note_on_c, 0, 76, 64
1, 551704, Note_on_c, 0, 59, 63
1, 551705, Note_on_c, 0, 62, 60
1, 551709, Note_on_c, 0, 55, 62
1, 551807, Note_off_c, 0, 76, 58
1, 551837, Note_on_c, 0, 88, 65
1, 551858, Note_off_c, 0, 88, 64
1, 551957, Note_on_c, 0, 88, 85
1, 552004, Note_off_c, 0, 88, 62
1, 552016, Note_off_c, 0, 62, 53
1, 552074, Note_off_c, 0, 59, 0
1, 552090, Note_on_c, 0, 88, 97
1, 552094, Note_on_c, 0, 56, 67
1, 552129, Poly_aftertouch_c, 0, 59, 0
1, 552139, Note_off_c, 0, 88, 63
1, 552224, Note_on_c, 0, 88, 95
1, 552284, Note_off_c, 0, 88, 65
1, 552290, Note_off_c, 0, 56, 53
1, 552350, Note_off_c, 0, 55, 30
1, 552362, Note_on_c, 0, 88, 95
1, 552414, Note_off_c, 0, 88, 65
1, 552488, Note_on_c, 0, 88, 85
1, 552503, Note_on_c, 0, 61, 48
1, 552505, Note_on_c, 0, 55, 41
1, 552506, Note_on_c, 0, 57, 43
1, 552633, Note_on_c, 0, 81, 83
1, 552681, Note_off_c, 0, 88, 62
1, 552693, Note_off_c, 0, 81, 63
1, 552697, Note_off_c, 0, 57, 36
1, 552714, Note_off_c, 0, 61, 37
1, 552768, Note_on_c, 0, 81, 82
1, 552808, Note_off_c, 0, 55, 51
1, 552819, Note_off_c, 0, 81, 64
1, 552904, Note_on_c, 0, 81, 80
1, 552907, Note_on_c, 0, 54, 52
1, 552907, Note_on_c, 0, 60, 53
1, 552928, Note_on_c, 0, 57, 25
1, 553045, Note_on_c, 0, 86, 68
1, 553071, Note_off_c, 0, 81, 26
1, 553096, Note_off_c, 0, 86, 63
1, 553179, Note_on_c, 0, 86, 72
1, 553228, Note_off_c, 0, 86, 63
1, 553311, Note_on_c, 0, 86, 70
1, 553325, Note_on_c, 0, 59, 45
1, 553329, Note_on_c, 0, 55, 45
1, 553332, Note_off_c, 0, 57, 35
1, 553340, Note_off_c, 0, 54, 33
1, 553346, Note_off_c, 0, 60, 36
1, 553358, Note_off_c, 0, 86, 63
1, 553453, Note_on_c, 0, 83, 71
1, 553455, Note_on_c, 0, 79, 73
1, 553490, Note_off_c, 0, 79, 61
1, 553492, Note_off_c, 0, 83, 65
1, 553553, Note_off_c, 0, 55, 48
1, 553567, Note_off_c, 0, 59, 37
1, 553581, Note_on_c, 0, 78, 78
1, 553591, Note_on_c, 0, 81, 65
1, 553611, Note_off_c, 0, 81, 62
1, 553617, Note_off_c, 0, 78, 64
1, 553704, Note_on_c, 0, 76, 86
1, 553706, Note_on_c, 0, 79, 80
1, 553709, Note_on_c, 0, 57, 58
1, 553752, Note_off_c, 0, 76, 63
1, 553774, Note_off_c, 0, 79, 61
1, 553841, Note_on_c, 0, 78, 83
1, 553843, Note_on_c, 0, 74, 84
1, 553888, Note_off_c, 0, 74, 65
1, 553894, Note_off_c, 0, 78, 64
1, 553898, Note_off_c, 0, 57, 62
1, 553975, Note_on_c, 0, 76, 84
1, 553978, Note_on_c, 0, 73, 86
1, 554031, Note_off_c, 0, 73, 63
1, 554037, Note_off_c, 0, 76, 61
1, 554107, Note_on_c, 0, 74, 94
1, 554129, Note_on_c, 0, 50, 59
1, 554148, Control_c, 0, 64, 48
1, 554163, Control_c, 0, 64, 64
1, 554177, Control_c, 0, 64, 69
1, 554178, Note_off_c, 0, 50, 60
1, 554192, Control_c, 0, 64, 74
1, 554193, Note_on_c, 0, 57, 61
1, 554207, Control_c, 0, 64, 79
1, 554222, Control_c, 0, 64, 83
1, 554237, Control_c, 0, 64, 87
1, 554239, Note_off_c, 0, 74, 66
1, 554252, Control_c, 0, 64, 90
1, 554254, Note_off_c, 0, 57, 61
1, 554258, Note_on_c, 0, 54, 64
1, 554267, Control_c, 0, 64, 91
1, 554281, Control_c, 0, 64, 92
1, 554304, Note_off_c, 0, 54, 62
1, 554311, Control_c, 0, 64, 93
1, 554326, Note_on_c, 0, 57, 62
1, 554383, Note_off_c, 0, 57, 60
1, 554393, Note_on_c, 0, 54, 71
1, 554415, Control_c, 0, 64, 92
1, 554429, Note_off_c, 0, 54, 60
1, 554451, Note_on_c, 0, 57, 63
1, 554519, Note_off_c, 0, 57, 59
1, 554527, Control_c, 0, 64, 90
1, 554529, Note_on_c, 0, 78, 94
1, 554540, Note_on_c, 0, 50, 72
1, 554541, Control_c, 0, 64, 84
1, 554556, Control_c, 0, 64, 75
1, 554571, Control_c, 0, 64, 64
1, 554585, Control_c, 0, 64, 0
1, 554601, Note_on_c, 0, 57, 61
1, 554615, Control_c, 0, 64, 39
1, 554630, Control_c, 0, 64, 61
1, 554645, Control_c, 0, 64, 64
1, 554651, Note_off_c, 0, 57, 59
1, 554656, Note_on_c, 0, 54, 59
1, 554659, Control_c, 0, 64, 67
1, 554674, Control_c, 0, 64, 69
1, 554679, Note_off_c, 0, 50, 0
1, 554689, Control_c, 0, 64, 73
1, 554703, Control_c, 0, 64, 75
1, 554709, Note_off_c, 0, 54, 62
1, 554716, Poly_aftertouch_c, 0, 50, 127
1, 554718, Control_c, 0, 64, 78
1, 554723, Note_on_c, 0, 57, 60
1, 554733, Control_c, 0, 64, 79
1, 554748, Control_c, 0, 64, 79
1, 554770, Note_off_c, 0, 57, 60
1, 554782, Note_on_c, 0, 54, 64
1, 554816, Note_off_c, 0, 78, 58
1, 554822, Control_c, 0, 64, 80
1, 554826, Note_off_c, 0, 54, 61
1, 554849, Note_on_c, 0, 57, 63
1, 554861, Poly_aftertouch_c, 0, 50, 0
1, 554866, Control_c, 0, 64, 79
1, 554881, Control_c, 0, 64, 75
1, 554890, Note_off_c, 0, 57, 57
1, 554896, Control_c, 0, 64, 67
1, 554911, Control_c, 0, 64, 0
1, 554932, Note_on_c, 0, 52, 61
1, 554937, Note_on_c, 0, 79, 83
1, 554973, Note_off_c, 0, 52, 63
1, 554991, Note_on_c, 0, 57, 61
1, 554991, Note_on_c, 0, 78, 83
1, 555012, Note_off_c, 0, 79, 58
1, 555030, Note_off_c, 0, 57, 61
1, 555054, Note_on_c, 0, 55, 62
1, 555063, Note_off_c, 0, 78, 66
1, 555067, Note_on_c, 0, 76, 78
1, 555096, Note_off_c, 0, 55, 63
1, 555109, Note_off_c, 0, 76, 64
1, 555117, Note_on_c, 0, 57, 59
1, 555120, Note_on_c, 0, 74, 76
1, 555165, Note_off_c, 0, 57, 59
1, 555188, Note_on_c, 0, 55, 58
1, 555188, Note_on_c, 0, 73, 87
1, 555189, Note_off_c, 0, 74, 59
1, 555219, Note_off_c, 0, 55, 64
1, 555222, Note_off_c, 0, 73, 63
1, 555263, Note_on_c, 0, 57, 53
1, 555309, Note_off_c, 0, 57, 60
1, 555328, Note_on_c, 0, 49, 63
1, 555331, Note_on_c, 0, 76, 84
1, 555334, Control_c, 0, 64, 60
1, 555349, Control_c, 0, 64, 0
1, 555373, Note_off_c, 0, 49, 63
1, 555397, Note_on_c, 0, 74, 80
1, 555397, Note_off_c, 0, 76, 62
1, 555402, Note_on_c, 0, 57, 52
1, 555444, Note_off_c, 0, 57, 61
1, 555452, Note_on_c, 0, 73, 85
1, 555465, Note_on_c, 0, 52, 55
1, 555478, Note_off_c, 0, 74, 62
1, 555501, Note_off_c, 0, 52, 62
1, 555519, Note_on_c, 0, 71, 82
1, 555528, Note_on_c, 0, 57, 57
1, 555531, Note_off_c, 0, 73, 65
1, 555567, Note_off_c, 0, 71, 64
1, 555574, Note_off_c, 0, 57, 56
1, 555578, Note_on_c, 0, 69, 77
1, 555591, Note_on_c, 0, 52, 59
1, 555629, Note_off_c, 0, 52, 62
1, 555635, Note_off_c, 0, 69, 60
1, 555638, Note_on_c, 0, 67, 80
1, 555661, Control_c, 0, 67, 27
1, 555666, Note_on_c, 0, 57, 38
1, 555675, Control_c, 0, 67, 74
1, 555690, Control_c, 0, 67, 119
1, 555692, Note_off_c, 0, 67, 64
1, 555696, Note_on_c, 0, 66, 80
1, 555698, Note_off_c, 0, 57, 58
1, 555705, Control_c, 0, 67, 127
1, 555714, Note_on_c, 0, 50, 52
1, 555717, Note_off_c, 0, 66, 70
1, 555745, Note_off_c, 0, 50, 62
1, 555788, Note_on_c, 0, 57, 49
1, 555824, Note_off_c, 0, 57, 61
1, 555830, Note_on_c, 0, 69, 71
1, 555842, Note_on_c, 0, 54, 51
1, 555863, Note_off_c, 0, 69, 62
1, 555871, Note_off_c, 0, 54, 64
1, 555916, Note_on_c, 0, 57, 44
1, 555947, Note_off_c, 0, 57, 56
1, 555963, Note_on_c, 0, 54, 51
1, 555966, Note_on_c, 0, 74, 68
1, 555992, Note_off_c, 0, 54, 60
1, 555992, Note_off_c, 0, 74, 69
1, 556044, Note_on_c, 0, 57, 41
1, 556074, Note_off_c, 0, 57, 56
1, 556088, Note_on_c, 0, 78, 66
1, 556106, Note_on_c, 0, 50, 35
1, 556120, Note_off_c, 0, 78, 57
1, 556142, Note_off_c, 0, 50, 55
1, 556155, Note_on_c, 0, 57, 51
1, 556203, Note_off_c, 0, 57, 58
1, 556215, Note_on_c, 0, 81, 67
1, 556229, Note_on_c, 0, 54, 48
1, 556237, Note_off_c, 0, 81, 68
1, 556262, Note_off_c, 0, 54, 64
1, 556300, Note_on_c, 0, 57, 46
1, 556306, Control_c, 0, 67, 123
1, 556321, Control_c, 0, 67, 89
1, 556329, Note_off_c, 0, 57, 57
1, 556336, Control_c, 0, 67, 35
1, 556343, Note_on_c, 0, 54, 63
1, 556350, Control_c, 0, 67, 0
1, 556382, Note_off_c, 0, 54, 66
1, 556402, Note_on_c, 0, 57, 66
1, 556461, Note_off_c, 0, 57, 58
1, 556476, Note_on_c, 0, 79, 89
1, 556480, Note_on_c, 0, 52, 72
1, 556519, Note_off_c, 0, 52, 62
1, 556534, Note_on_c, 0, 78, 81
1, 556541, Note_on_c, 0, 57, 54
1, 556553, Note_off_c, 0, 79, 59
1, 556582, Note_off_c, 0, 57, 62
1, 556599, Note_on_c, 0, 55, 66
1, 556608, Note_off_c, 0, 78, 66
1, 556609, Note_on_c, 0, 76, 72
1, 556637, Note_off_c, 0, 55, 62
1, 556652, Note_off_c, 0, 76, 64
1, 556666, Note_on_c, 0, 57, 59
1, 556672, Note_on_c, 0, 74, 67
1, 556705, Note_off_c, 0, 57, 63
1, 556717, Note_off_c, 0, 74, 48
1, 556722, Note_on_c, 0, 55, 64
1, 556748, Note_on_c, 0, 73, 67
1, 556762, Note_off_c, 0, 55, 63
1, 556768, Note_off_c, 0, 73, 66
1, 556789, Note_on_c, 0, 57, 55
1, 556841, Note_off_c, 0, 57, 60
1, 556876, Note_on_c, 0, 49, 70
1, 556884, Note_on_c, 0, 76, 86
1, 556914, Note_off_c, 0, 49, 64
1, 556940, Note_off_c, 0, 76, 61
1, 556941, Note_on_c, 0, 57, 55
1, 556941, Note_on_c, 0, 74, 78
1, 556985, Note_off_c, 0, 57, 58
1, 557005, Note_on_c, 0, 73, 78
1, 557009, Note_on_c, 0, 52, 57
1, 557025, Note_off_c, 0, 74, 63
1, 557048, Note_off_c, 0, 52, 63
1, 557070, Note_on_c, 0, 71, 75
1, 557072, Note_on_c, 0, 57, 53
1, 557082, Note_off_c, 0, 73, 64
1, 557113, Note_off_c, 0, 71, 66
1, 557123, Note_off_c, 0, 57, 57
1, 557126, Note_on_c, 0, 69, 74
1, 557134, Note_on_c, 0, 52, 57
1, 557167, Note_off_c, 0, 52, 64
1, 557174, Note_off_c, 0, 69, 57
1, 557192, Note_on_c, 0, 57, 48
1, 557196, Note_on_c, 0, 67, 75
1, 557233, Control_c, 0, 67, 34
1, 557237, Note_off_c, 0, 57, 61
1, 557245, Note_off_c, 0, 67, 63
1, 557247, Control_c, 0, 67, 90
1, 557252, Note_on_c, 0, 66, 77
1, 557261, Note_on_c, 0, 50, 62
1, 557262, Control_c, 0, 67, 127
1, 557273, Note_off_c, 0, 66, 70
1, 557299, Note_off_c, 0, 50, 66
1, 557323, Note_on_c, 0, 57, 59
1, 557367, Note_off_c, 0, 57, 60
1, 557392, Note_on_c, 0, 54, 49
1, 557400, Note_on_c, 0, 69, 63
1, 557421, Note_off_c, 0, 54, 64
1, 557427, Note_off_c, 0, 69, 68
1, 557456, Note_on_c, 0, 57, 51
1, 557509, Note_off_c, 0, 57, 62
1, 557516, Note_on_c, 0, 54, 59
1, 557537, Note_on_c, 0, 74, 67
1, 557552, Note_off_c, 0, 54, 62
1, 557564, Note_off_c, 0, 74, 70
1, 557603, Note_on_c, 0, 57, 38
1, 557638, Note_off_c, 0, 57, 55
1, 557655, Note_on_c, 0, 78, 69
1, 557659, Note_on_c, 0, 50, 51
1, 557691, Note_off_c, 0, 78, 55
1, 557702, Note_off_c, 0, 50, 64
1, 557721, Note_on_c, 0, 57, 53
1, 557783, Note_off_c, 0, 57, 57
1, 557786, Note_on_c, 0, 81, 69
1, 557796, Note_on_c, 0, 54, 60
1, 557804, Note_off_c, 0, 81, 66
1, 557840, Note_off_c, 0, 54, 64
1, 557874, Note_on_c, 0, 57, 49
1, 557911, Note_off_c, 0, 57, 63
1, 557929, Note_on_c, 0, 54, 51
1, 557957, Note_off_c, 0, 54, 62
1, 557994, Note_on_c, 0, 57, 40
1, 558028, Note_off_c, 0, 57, 53
1, 558048, Note_on_c, 0, 55, 64
1, 558075, Note_off_c, 0, 55, 64
1, 558193, Note_on_c, 0, 82, 58
1, 558319, Note_off_c, 0, 82, 62
1, 558336, Note_on_c, 0, 83, 51
1, 558358, Note_off_c, 0, 83, 61
1, 558459, Note_on_c, 0, 67, 69
1, 558461, Note_on_c, 0, 74, 67
1, 558485, Note_off_c, 0, 67, 67
1, 558488, Note_off_c, 0, 74, 69
1, 558588, Note_on_c, 0, 86, 82
1, 558714, Note_on_c, 0, 83, 85
1, 558718, Note_off_c, 0, 86, 65
1, 558764, Note_off_c, 0, 83, 65
1, 558851, Note_on_c, 0, 74, 78
1, 558855, Note_on_c, 0, 66, 69
1, 558878, Note_off_c, 0, 74, 61
1, 558881, Note_off_c, 0, 66, 65
1, 559000, Note_on_c, 0, 80, 66
1, 559105, Note_off_c, 0, 80, 51
1, 559126, Note_on_c, 0, 81, 61
1, 559162, Note_off_c, 0, 81, 59
1, 559253, Note_on_c, 0, 74, 65
1, 559263, Note_on_c, 0, 67, 54
1, 559286, Note_off_c, 0, 74, 62
1, 559294, Note_off_c, 0, 67, 63
1, 559380, Note_on_c, 0, 83, 64
1, 559522, Note_on_c, 0, 79, 57
1, 559525, Note_off_c, 0, 83, 58
1, 559562, Note_off_c, 0, 79, 58
1, 559652, Note_on_c, 0, 74, 58
1, 559655, Note_on_c, 0, 69, 54
1, 559688, Note_off_c, 0, 74, 61
1, 559689, Note_off_c, 0, 69, 65
1, 559789, Note_on_c, 0, 77, 56
1, 559926, Note_off_c, 0, 77, 34
1, 559931, Note_on_c, 0, 78, 53
1, 559972, Note_off_c, 0, 78, 58
1, 560056, Note_on_c, 0, 73, 58
1, 560064, Note_on_c, 0, 69, 53
1, 560086, Note_off_c, 0, 73, 66
1, 560095, Control_c, 0, 67, 110
1, 560095, Note_off_c, 0, 69, 66
1, 560109, Control_c, 0, 67, 73
1, 560124, Control_c, 0, 67, 26
1, 560139, Control_c, 0, 67, 0
1, 560193, Note_on_c, 0, 79, 53
1, 560305, Note_off_c, 0, 79, 56
1, 560324, Note_on_c, 0, 76, 55
1, 560363, Note_off_c, 0, 76, 60
1, 560455, Note_on_c, 0, 74, 93
1, 560464, Control_c, 0, 64, 104
1, 560467, Note_on_c, 0, 50, 68
1, 560479, Control_c, 0, 64, 127
1, 560482, Note_off_c, 0, 74, 65
1, 560524, Note_on_c, 0, 57, 66
1, 560527, Note_off_c, 0, 50, 61
1, 560571, Note_off_c, 0, 57, 58
1, 560591, Note_on_c, 0, 54, 55
1, 560631, Note_off_c, 0, 54, 65
1, 560652, Note_on_c, 0, 57, 64
1, 560711, Note_off_c, 0, 57, 58
1, 560734, Note_on_c, 0, 54, 62
1, 560774, Note_off_c, 0, 54, 63
1, 560798, Note_on_c, 0, 57, 60
1, 560852, Note_off_c, 0, 57, 62
1, 560872, Control_c, 0, 64, 87
1, 560882, Note_on_c, 0, 78, 99
1, 560886, Note_on_c, 0, 50, 66
1, 560887, Control_c, 0, 64, 63
1, 560901, Control_c, 0, 64, 0
1, 560916, Control_c, 0, 64, 59
1, 560921, Note_off_c, 0, 78, 67
1, 560931, Control_c, 0, 64, 72
1, 560944, Note_on_c, 0, 57, 66
1, 560945, Control_c, 0, 64, 90
1, 560960, Control_c, 0, 64, 127
1, 560974, Note_off_c, 0, 50, 0
1, 561003, Note_off_c, 0, 57, 61
1, 561008, Note_on_c, 0, 54, 64
1, 561011, Poly_aftertouch_c, 0, 50, 127
1, 561054, Note_off_c, 0, 54, 62
1, 561068, Note_on_c, 0, 57, 58
1, 561132, Note_off_c, 0, 57, 61
1, 561148, Note_on_c, 0, 54, 63
1, 561193, Note_off_c, 0, 54, 63
1, 561213, Note_on_c, 0, 57, 57
1, 561246, Poly_aftertouch_c, 0, 50, 0
1, 561275, Note_off_c, 0, 57, 60
1, 561278, Control_c, 0, 64, 101
1, 561293, Control_c, 0, 64, 67
1, 561308, Control_c, 0, 64, 0
1, 561311, Note_on_c, 0, 52, 67
1, 561314, Note_on_c, 0, 79, 90
1, 561359, Note_off_c, 0, 52, 60
1, 561362, Note_on_c, 0, 78, 87
1, 561365, Note_on_c, 0, 57, 62
1, 561387, Note_off_c, 0, 79, 60
1, 561412, Note_off_c, 0, 57, 60
1, 561436, Note_on_c, 0, 55, 66
1, 561439, Note_off_c, 0, 78, 66
1, 561443, Note_on_c, 0, 76, 77
1, 561478, Note_off_c, 0, 55, 63
1, 561480, Note_off_c, 0, 76, 63
1, 561497, Note_on_c, 0, 74, 75
1, 561499, Note_on_c, 0, 57, 60
1, 561531, Note_off_c, 0, 74, 57
1, 561548, Note_off_c, 0, 57, 59
1, 561561, Note_on_c, 0, 73, 84
1, 561582, Note_on_c, 0, 55, 53
1, 561585, Note_off_c, 0, 73, 65
1, 561609, Note_off_c, 0, 55, 57
1, 561633, Note_on_c, 0, 57, 51
1, 561677, Note_off_c, 0, 57, 62
1, 561704, Note_on_c, 0, 49, 71
1, 561709, Control_c, 0, 64, 72
1, 561712, Note_on_c, 0, 76, 88
1, 561724, Control_c, 0, 64, 76
1, 561739, Control_c, 0, 64, 65
1, 561743, Note_off_c, 0, 49, 63
1, 561754, Control_c, 0, 64, 0
1, 561764, Note_on_c, 0, 74, 85
1, 561767, Note_on_c, 0, 57, 58
1, 561769, Note_off_c, 0, 76, 64
1, 561815, Note_off_c, 0, 57, 56
1, 561827, Note_on_c, 0, 73, 84
1, 561844, Note_on_c, 0, 52, 54
1, 561856, Note_off_c, 0, 74, 63
1, 561878, Note_off_c, 0, 52, 62
1, 561891, Note_on_c, 0, 71, 81
1, 561893, Note_on_c, 0, 57, 57
1, 561904, Note_off_c, 0, 73, 65
1, 561940, Note_off_c, 0, 57, 57
1, 561940, Note_off_c, 0, 71, 64
1, 561951, Note_on_c, 0, 69, 76
1, 561960, Note_on_c, 0, 52, 59
1, 562003, Note_off_c, 0, 52, 61
1, 562003, Note_off_c, 0, 69, 60
1, 562023, Note_on_c, 0, 67, 76
1, 562036, Note_on_c, 0, 57, 50
1, 562068, Note_off_c, 0, 57, 64
1, 562071, Note_off_c, 0, 67, 63
1, 562072, Note_on_c, 0, 66, 85
1, 562073, Control_c, 0, 67, 44
1, 562088, Control_c, 0, 67, 127
1, 562091, Note_on_c, 0, 50, 56
1, 562091, Note_off_c, 0, 66, 71
1, 562121, Note_off_c, 0, 50, 67
1, 562149, Note_on_c, 0, 57, 62
1, 562196, Note_off_c, 0, 57, 59
1, 562213, Note_on_c, 0, 54, 54
1, 562217, Note_on_c, 0, 69, 70
1, 562244, Note_off_c, 0, 54, 63
1, 562247, Note_off_c, 0, 69, 62
1, 562289, Note_on_c, 0, 57, 29
1, 562324, Note_off_c, 0, 57, 54
1, 562339, Note_on_c, 0, 54, 47
1, 562351, Note_on_c, 0, 74, 64
1, 562367, Note_off_c, 0, 54, 60
1, 562372, Note_off_c, 0, 74, 64
1, 562408, Note_on_c, 0, 57, 48
1, 562437, Note_off_c, 0, 57, 58
1, 562473, Note_on_c, 0, 50, 49
1, 562473, Note_on_c, 0, 78, 57
1, 562500, Note_off_c, 0, 78, 58
1, 562509, Note_off_c, 0, 50, 63
1, 562524, Note_on_c, 0, 57, 48
1, 562577, Note_off_c, 0, 57, 58
1, 562599, Note_on_c, 0, 54, 51
1, 562599, Note_on_c, 0, 81, 58
1, 562617, Note_off_c, 0, 81, 62
1, 562637, Note_off_c, 0, 54, 61
1, 562666, Control_c, 0, 67, 115
1, 562670, Note_on_c, 0, 57, 46
1, 562681, Control_c, 0, 67, 80
1, 562696, Control_c, 0, 67, 16
1, 562709, Note_off_c, 0, 57, 63
1, 562710, Control_c, 0, 67, 0
1, 562724, Note_on_c, 0, 54, 58
1, 562770, Note_off_c, 0, 54, 64
1, 562794, Note_on_c, 0, 57, 67
1, 562834, Note_off_c, 0, 57, 61
1, 562865, Note_on_c, 0, 79, 91
1, 562868, Note_on_c, 0, 52, 74
1, 562909, Note_off_c, 0, 52, 60
1, 562917, Note_on_c, 0, 78, 85
1, 562925, Note_on_c, 0, 57, 68
1, 562935, Note_off_c, 0, 79, 60
1, 562977, Note_off_c, 0, 57, 60
1, 562989, Note_on_c, 0, 55, 68
1, 562990, Note_off_c, 0, 78, 66
1, 562991, Note_on_c, 0, 76, 75
1, 563032, Note_off_c, 0, 55, 63
1, 563034, Note_off_c, 0, 76, 63
1, 563052, Note_on_c, 0, 74, 71
1, 563053, Note_on_c, 0, 57, 58
1, 563087, Note_off_c, 0, 74, 59
1, 563100, Note_off_c, 0, 57, 60
1, 563122, Note_on_c, 0, 55, 57
1, 563124, Note_on_c, 0, 73, 75
1, 563146, Note_off_c, 0, 55, 62
1, 563146, Note_off_c, 0, 73, 69
1, 563180, Note_on_c, 0, 57, 55
1, 563233, Note_off_c, 0, 57, 60
1, 563258, Note_on_c, 0, 49, 65
1, 563268, Note_on_c, 0, 76, 79
1, 563290, Note_off_c, 0, 49, 65
1, 563320, Note_off_c, 0, 76, 60
1, 563321, Note_on_c, 0, 74, 84
1, 563328, Note_on_c, 0, 57, 54
1, 563374, Note_off_c, 0, 57, 57
1, 563383, Note_on_c, 0, 73, 80
1, 563397, Note_on_c, 0, 52, 57
1, 563401, Note_off_c, 0, 74, 62
1, 563436, Note_off_c, 0, 52, 62
1, 563444, Note_on_c, 0, 71, 84
1, 563451, Note_off_c, 0, 73, 65
1, 563455, Note_on_c, 0, 57, 56
1, 563501, Note_off_c, 0, 71, 64
1, 563514, Note_on_c, 0, 69, 69
1, 563522, Note_off_c, 0, 57, 57
1, 563534, Note_on_c, 0, 52, 60
1, 563552, Note_off_c, 0, 69, 51
1, 563565, Note_off_c, 0, 52, 64
1, 563571, Note_on_c, 0, 67, 79
1, 563594, Note_on_c, 0, 57, 47
1, 563624, Note_off_c, 0, 67, 64
1, 563632, Note_on_c, 0, 66, 80
1, 563633, Note_off_c, 0, 57, 62
1, 563645, Control_c, 0, 67, 74
1, 563652, Note_off_c, 0, 66, 70
1, 563660, Note_on_c, 0, 50, 55
1, 563660, Control_c, 0, 67, 127
1, 563695, Note_off_c, 0, 50, 66
1, 563715, Note_on_c, 0, 57, 61
1, 563761, Note_off_c, 0, 57, 58
1, 563780, Note_on_c, 0, 69, 68
1, 563787, Note_on_c, 0, 54, 53
1, 563811, Note_off_c, 0, 69, 62
1, 563816, Note_off_c, 0, 54, 63
1, 563857, Note_on_c, 0, 57, 41
1, 563890, Note_off_c, 0, 57, 55
1, 563908, Note_on_c, 0, 54, 52
1, 563924, Note_on_c, 0, 74, 62
1, 563939, Note_off_c, 0, 54, 64
1, 563943, Note_off_c, 0, 74, 65
1, 563973, Note_on_c, 0, 57, 53
1, 564014, Note_off_c, 0, 57, 63
1, 564042, Note_on_c, 0, 50, 53
1, 564042, Note_on_c, 0, 78, 63
1, 564068, Note_off_c, 0, 78, 67
1, 564080, Note_off_c, 0, 50, 65
1, 564113, Note_on_c, 0, 57, 47
1, 564159, Note_off_c, 0, 57, 60
1, 564169, Note_on_c, 0, 81, 76
1, 564180, Note_on_c, 0, 54, 49
1, 564188, Note_off_c, 0, 81, 70
1, 564217, Note_off_c, 0, 54, 63
1, 564259, Note_on_c, 0, 57, 50
1, 564295, Note_off_c, 0, 57, 64
1, 564308, Note_on_c, 0, 54, 60
1, 564345, Note_off_c, 0, 54, 65
1, 564378, Note_on_c, 0, 57, 53
1, 564413, Note_off_c, 0, 57, 58
1, 564444, Note_on_c, 0, 55, 64
1, 564469, Note_off_c, 0, 55, 64
1, 564598, Note_on_c, 0, 82, 60
1, 564707, Note_off_c, 0, 82, 63
1, 564724, Note_on_c, 0, 83, 62
1, 564742, Note_off_c, 0, 83, 66
1, 564847, Note_on_c, 0, 74, 68
1, 564855, Note_on_c, 0, 67, 58
1, 564872, Note_off_c, 0, 74, 70
1, 564876, Note_off_c, 0, 67, 62
1, 564995, Note_on_c, 0, 86, 82
1, 565123, Note_on_c, 0, 83, 81
1, 565123, Note_off_c, 0, 86, 64
1, 565161, Note_off_c, 0, 83, 66
1, 565249, Note_on_c, 0, 74, 76
1, 565251, Note_on_c, 0, 66, 72
1, 565270, Note_off_c, 0, 74, 71
1, 565273, Note_off_c, 0, 66, 68
1, 565397, Note_on_c, 0, 80, 65
1, 565502, Note_off_c, 0, 80, 54
1, 565514, Note_on_c, 0, 81, 63
1, 565547, Note_off_c, 0, 81, 58
1, 565641, Note_on_c, 0, 74, 66
1, 565650, Note_on_c, 0, 67, 57
1, 565669, Note_off_c, 0, 74, 69
1, 565678, Note_off_c, 0, 67, 63
1, 565778, Note_on_c, 0, 83, 59
1, 565931, Note_on_c, 0, 79, 55
1, 565937, Note_off_c, 0, 83, 54
1, 565973, Note_off_c, 0, 79, 58
1, 566051, Note_on_c, 0, 74, 60
1, 566053, Note_on_c, 0, 69, 57
1, 566084, Note_off_c, 0, 74, 63
1, 566084, Note_off_c, 0, 69, 66
1, 566188, Note_on_c, 0, 77, 55
1, 566327, Note_off_c, 0, 77, 44
1, 566331, Note_on_c, 0, 78, 43
1, 566381, Note_off_c, 0, 78, 54
1, 566453, Note_on_c, 0, 73, 54
1, 566457, Note_on_c, 0, 69, 47
1, 566499, Note_off_c, 0, 73, 65
1, 566504, Note_off_c, 0, 69, 64
1, 566566, Control_c, 0, 67, 125
1, 566581, Control_c, 0, 67, 102
1, 566596, Control_c, 0, 67, 67
1, 566597, Note_on_c, 0, 79, 51
1, 566611, Control_c, 0, 67, 36
1, 566626, Control_c, 0, 67, 9
1, 566640, Control_c, 0, 67, 0
1, 566719, Note_off_c, 0, 79, 57
1, 566721, Note_on_c, 0, 76, 51
1, 566745, Note_off_c, 0, 76, 59
1, 566850, Note_on_c, 0, 55, 67
1, 566850, Note_on_c, 0, 62, 64
1, 566880, Note_off_c, 0, 55, 65
1, 566880, Note_off_c, 0, 62, 64
1, 566983, Note_on_c, 0, 82, 75
1, 566989, Note_on_c, 0, 70, 69
1, 567015, Note_off_c, 0, 82, 56
1, 567015, Note_off_c, 0, 70, 68
1, 567113, Note_on_c, 0, 83, 71
1, 567119, Note_on_c, 0, 71, 61
1, 567136, Note_off_c, 0, 83, 70
1, 567138, Note_off_c, 0, 71, 64
1, 567252, Note_on_c, 0, 62, 65
1, 567255, Note_on_c, 0, 55, 64
1, 567293, Note_off_c, 0, 55, 63
1, 567296, Note_off_c, 0, 62, 55
1, 567374, Note_on_c, 0, 86, 82
1, 567384, Note_on_c, 0, 74, 70
1, 567396, Note_off_c, 0, 86, 66
1, 567403, Note_off_c, 0, 74, 68
1, 567518, Note_on_c, 0, 83, 62
1, 567523, Note_on_c, 0, 71, 58
1, 567537, Note_off_c, 0, 83, 63
1, 567544, Note_off_c, 0, 71, 64
1, 567637, Note_on_c, 0, 54, 66
1, 567640, Note_on_c, 0, 62, 60
1, 567672, Note_off_c, 0, 54, 64
1, 567672, Note_off_c, 0, 62, 63
1, 567764, Note_on_c, 0, 80, 76
1, 567768, Note_on_c, 0, 68, 74
1, 567792, Note_off_c, 0, 68, 66
1, 567804, Note_off_c, 0, 80, 56
1, 567893, Note_on_c, 0, 81, 73
1, 567903, Note_on_c, 0, 69, 56
1, 567915, Note_off_c, 0, 81, 66
1, 567925, Note_off_c, 0, 69, 60
1, 568034, Note_on_c, 0, 55, 72
1, 568040, Note_on_c, 0, 62, 64
1, 568068, Note_off_c, 0, 62, 64
1, 568072, Note_off_c, 0, 55, 61
1, 568156, Note_on_c, 0, 83, 82
1, 568165, Note_on_c, 0, 71, 70
1, 568177, Note_off_c, 0, 83, 68
1, 568183, Note_off_c, 0, 71, 68
1, 568303, Note_on_c, 0, 79, 66
1, 568308, Note_on_c, 0, 67, 57
1, 568320, Note_off_c, 0, 79, 65
1, 568331, Note_off_c, 0, 67, 60
1, 568437, Note_on_c, 0, 57, 67
1, 568437, Note_on_c, 0, 62, 64
1, 568465, Note_off_c, 0, 62, 64
1, 568467, Note_off_c, 0, 57, 63
1, 568551, Note_on_c, 0, 77, 74
1, 568556, Note_on_c, 0, 65, 66
1, 568575, Note_off_c, 0, 77, 66
1, 568576, Note_off_c, 0, 65, 66
1, 568685, Note_on_c, 0, 78, 73
1, 568686, Note_on_c, 0, 66, 73
1, 568711, Note_off_c, 0, 66, 67
1, 568714, Note_off_c, 0, 78, 59
1, 568822, Note_on_c, 0, 57, 65
1, 568822, Note_on_c, 0, 61, 70
1, 568854, Note_off_c, 0, 61, 64
1, 568855, Note_off_c, 0, 57, 63
1, 568857, Control_c, 0, 64, 42
1, 568872, Control_c, 0, 64, 0
1, 568950, Note_on_c, 0, 79, 79
1, 568957, Note_on_c, 0, 67, 66
1, 568969, Note_off_c, 0, 79, 68
1, 568977, Note_off_c, 0, 67, 64
1, 569082, Note_on_c, 0, 76, 73
1, 569092, Note_on_c, 0, 64, 63
1, 569107, Note_off_c, 0, 76, 68
1, 569112, Note_off_c, 0, 64, 65
1, 569206, Note_on_c, 0, 74, 73
1, 569209, Note_on_c, 0, 50, 68
1, 569213, Note_on_c, 0, 66, 66
1, 569232, Note_off_c, 0, 50, 68
1, 569272, Note_on_c, 0, 62, 64
1, 569323, Note_off_c, 0, 62, 59
1, 569336, Note_on_c, 0, 61, 62
1, 569375, Note_off_c, 0, 61, 62
1, 569404, Note_on_c, 0, 62, 61
1, 569416, Note_off_c, 0, 66, 37
1, 569448, Note_off_c, 0, 62, 60
1, 569464, Note_on_c, 0, 61, 70
1, 569513, Note_off_c, 0, 61, 62
1, 569533, Note_off_c, 0, 74, 47
1, 569538, Note_on_c, 0, 62, 65
1, 569568, Note_off_c, 0, 62, 65
1, 569626, Note_on_c, 0, 66, 73
1, 569627, Note_on_c, 0, 74, 84
1, 569633, Note_on_c, 0, 47, 72
1, 569636, Control_c, 0, 64, 37
1, 569651, Control_c, 0, 64, 57
1, 569664, Note_off_c, 0, 47, 68
1, 569665, Control_c, 0, 64, 64
1, 569680, Control_c, 0, 64, 67
1, 569695, Control_c, 0, 64, 70
1, 569696, Note_on_c, 0, 59, 70
1, 569709, Control_c, 0, 64, 73
1, 569724, Control_c, 0, 64, 78
1, 569739, Control_c, 0, 64, 83
1, 569746, Note_off_c, 0, 66, 61
1, 569750, Note_off_c, 0, 59, 59
1, 569754, Control_c, 0, 64, 86
1, 569759, Note_on_c, 0, 58, 67
1, 569769, Control_c, 0, 64, 88
1, 569783, Control_c, 0, 64, 90
1, 569794, Note_off_c, 0, 74, 63
1, 569798, Control_c, 0, 64, 92
1, 569809, Note_off_c, 0, 58, 60
1, 569813, Control_c, 0, 64, 92
1, 569821, Note_on_c, 0, 59, 73
1, 569827, Control_c, 0, 64, 93
1, 569842, Control_c, 0, 64, 93
1, 569874, Note_off_c, 0, 59, 58
1, 569899, Note_on_c, 0, 58, 70
1, 569930, Note_off_c, 0, 58, 65
1, 569948, Note_on_c, 0, 59, 72
1, 569979, Note_off_c, 0, 59, 62
1, 570035, Control_c, 0, 64, 93
1, 570047, Note_on_c, 0, 76, 88
1, 570050, Control_c, 0, 64, 90
1, 570051, Note_on_c, 0, 43, 79
1, 570057, Note_on_c, 0, 67, 76
1, 570065, Control_c, 0, 64, 83
1, 570080, Control_c, 0, 64, 74
1, 570094, Note_off_c, 0, 43, 64
1, 570095, Control_c, 0, 64, 65
1, 570109, Control_c, 0, 64, 35
1, 570122, Note_on_c, 0, 55, 72
1, 570124, Control_c, 0, 64, 0
1, 570139, Control_c, 0, 64, 48
1, 570154, Control_c, 0, 64, 62
1, 570169, Control_c, 0, 64, 65
1, 570183, Note_off_c, 0, 55, 64
1, 570183, Control_c, 0, 64, 68
1, 570185, Note_on_c, 0, 54, 71
1, 570198, Control_c, 0, 64, 69
1, 570213, Control_c, 0, 64, 72
1, 570235, Control_c, 0, 64, 75
1, 570236, Note_off_c, 0, 67, 54
1, 570250, Control_c, 0, 64, 78
1, 570251, Note_off_c, 0, 54, 65
1, 570257, Note_on_c, 0, 55, 73
1, 570265, Control_c, 0, 64, 80
1, 570269, Note_off_c, 0, 76, 61
1, 570280, Control_c, 0, 64, 82
1, 570319, Note_off_c, 0, 55, 63
1, 570329, Note_on_c, 0, 54, 68
1, 570334, Note_on_c, 0, 79, 82
1, 570337, Note_on_c, 0, 71, 78
1, 570339, Control_c, 0, 64, 82
1, 570354, Control_c, 0, 64, 83
1, 570369, Note_off_c, 0, 54, 66
1, 570369, Control_c, 0, 64, 86
1, 570373, Note_off_c, 0, 71, 64
1, 570377, Note_on_c, 0, 55, 60
1, 570382, Note_off_c, 0, 79, 60
1, 570383, Control_c, 0, 64, 92
1, 570398, Control_c, 0, 64, 98
1, 570414, Control_c, 0, 64, 103
1, 570423, Note_off_c, 0, 55, 64
1, 570444, Control_c, 0, 64, 98
1, 570458, Control_c, 0, 64, 88
1, 570462, Note_on_c, 0, 74, 89
1, 570463, Note_on_c, 0, 45, 82
1, 570463, Note_on_c, 0, 64, 92
1, 570473, Control_c, 0, 64, 75
1, 570488, Control_c, 0, 64, 66
1, 570492, Note_off_c, 0, 45, 67
1, 570503, Control_c, 0, 64, 61
1, 570518, Control_c, 0, 64, 65
1, 570531, Note_off_c, 0, 64, 57
1, 570531, Note_on_c, 0, 57, 71
1, 570532, Control_c, 0, 64, 68
1, 570547, Control_c, 0, 64, 71
1, 570562, Control_c, 0, 64, 73
1, 570577, Control_c, 0, 64, 75
1, 570584, Note_off_c, 0, 57, 61
1, 570585, Note_on_c, 0, 56, 73
1, 570592, Control_c, 0, 64, 76
1, 570642, Note_off_c, 0, 56, 64
1, 570647, Note_off_c, 0, 74, 62
1, 570657, Note_on_c, 0, 57, 69
1, 570680, Control_c, 0, 64, 75
1, 570695, Control_c, 0, 64, 75
1, 570703, Note_on_c, 0, 73, 77
1, 570710, Control_c, 0, 64, 74
1, 570712, Note_off_c, 0, 57, 62
1, 570724, Control_c, 0, 64, 73
1, 570728, Note_on_c, 0, 56, 63
1, 570739, Control_c, 0, 64, 72
1, 570754, Note_on_c, 0, 74, 78
1, 570754, Control_c, 0, 64, 70
1, 570757, Note_off_c, 0, 73, 62
1, 570763, Note_off_c, 0, 56, 65
1, 570769, Control_c, 0, 64, 66
1, 570784, Note_on_c, 0, 57, 62
1, 570784, Control_c, 0, 64, 51
1, 570799, Control_c, 0, 64, 0
1, 570804, Note_off_c, 0, 74, 62
1, 570805, Note_on_c, 0, 73, 71
1, 570818, Note_off_c, 0, 57, 61
1, 570853, Note_on_c, 0, 74, 86
1, 570856, Note_on_c, 0, 50, 75
1, 570867, Note_off_c, 0, 73, 64
1, 570891, Note_off_c, 0, 50, 67
1, 570903, Control_c, 0, 64, 69
1, 570907, Note_off_c, 0, 74, 68
1, 570917, Control_c, 0, 64, 79
1, 570923, Note_on_c, 0, 62, 77
1, 570932, Control_c, 0, 64, 90
1, 570947, Control_c, 0, 64, 93
1, 570962, Control_c, 0, 64, 95
1, 570984, Control_c, 0, 64, 96
1, 570993, Note_off_c, 0, 62, 60
1, 570999, Control_c, 0, 64, 98
1, 570999, Note_on_c, 0, 61, 77
1, 571014, Control_c, 0, 64, 98
1, 571048, Note_off_c, 0, 61, 63
1, 571064, Note_on_c, 0, 62, 75
1, 571124, Note_off_c, 0, 62, 61
1, 571136, Note_on_c, 0, 61, 67
1, 571164, Note_off_c, 0, 61, 64
1, 571167, Poly_aftertouch_c, 0, 62, 0
1, 571174, Note_on_c, 0, 62, 63
1, 571191, Control_c, 0, 64, 97
1, 571207, Control_c, 0, 64, 93
1, 571213, Note_off_c, 0, 62, 60
1, 571222, Control_c, 0, 64, 86
1, 571237, Control_c, 0, 64, 77
1, 571252, Control_c, 0, 64, 66
1, 571261, Note_on_c, 0, 74, 77
1, 571267, Control_c, 0, 64, 0
1, 571268, Note_on_c, 0, 66, 69
1, 571272, Note_on_c, 0, 47, 80
1, 571296, Note_off_c, 0, 66, 64
1, 571297, Note_off_c, 0, 47, 67
1, 571306, Note_off_c, 0, 74, 63
1, 571333, Note_on_c, 0, 59, 69
1, 571383, Note_off_c, 0, 59, 57
1, 571393, Note_on_c, 0, 58, 70
1, 571394, Note_on_c, 0, 66, 76
1, 571398, Note_on_c, 0, 74, 78
1, 571440, Note_off_c, 0, 66, 62
1, 571443, Note_off_c, 0, 74, 62
1, 571444, Note_off_c, 0, 58, 61
1, 571455, Note_on_c, 0, 59, 68
1, 571499, Note_off_c, 0, 59, 59
1, 571515, Note_on_c, 0, 58, 72
1, 571522, Note_on_c, 0, 66, 84
1, 571522, Note_on_c, 0, 74, 86
1, 571541, Note_off_c, 0, 58, 68
1, 571556, Note_off_c, 0, 66, 62
1, 571561, Note_on_c, 0, 59, 70
1, 571574, Note_off_c, 0, 74, 65
1, 571587, Note_off_c, 0, 59, 67
1, 571644, Note_on_c, 0, 76, 95
1, 571652, Note_on_c, 0, 67, 87
1, 571652, Control_c, 0, 64, 53
1, 571653, Note_on_c, 0, 43, 82
1, 571666, Control_c, 0, 64, 65
1, 571681, Control_c, 0, 64, 70
1, 571684, Note_off_c, 0, 43, 67
1, 571696, Control_c, 0, 64, 74
1, 571704, Note_on_c, 0, 55, 74
1, 571711, Control_c, 0, 64, 79
1, 571733, Control_c, 0, 64, 83
1, 571747, Control_c, 0, 64, 86
1, 571762, Control_c, 0, 64, 90
1, 571772, Note_off_c, 0, 55, 64
1, 571775, Note_on_c, 0, 54, 74
1, 571777, Control_c, 0, 64, 92
1, 571792, Control_c, 0, 64, 94
1, 571807, Control_c, 0, 64, 94
1, 571832, Note_off_c, 0, 54, 64
1, 571833, Note_off_c, 0, 67, 54
1, 571842, Note_on_c, 0, 55, 74
1, 571855, Note_off_c, 0, 76, 57
1, 571901, Note_off_c, 0, 55, 62
1, 571918, Note_on_c, 0, 54, 69
1, 571926, Control_c, 0, 64, 95
1, 571934, Note_on_c, 0, 79, 80
1, 571938, Note_on_c, 0, 71, 76
1, 571941, Control_c, 0, 64, 98
1, 571956, Control_c, 0, 64, 103
1, 571969, Note_off_c, 0, 54, 64
1, 571970, Control_c, 0, 64, 109
1, 571971, Note_on_c, 0, 55, 69
1, 571976, Note_off_c, 0, 79, 58
1, 571977, Note_off_c, 0, 71, 62
1, 571985, Control_c, 0, 64, 113
1, 572001, Control_c, 0, 64, 113
1, 572016, Control_c, 0, 64, 104
1, 572017, Note_off_c, 0, 55, 63
1, 572031, Control_c, 0, 64, 88
1, 572046, Control_c, 0, 64, 74
1, 572057, Note_on_c, 0, 45, 76
1, 572060, Control_c, 0, 64, 62
1, 572067, Note_on_c, 0, 64, 86
1, 572072, Note_on_c, 0, 74, 74
1, 572073, Note_on_c, 0, 72, 74
1, 572075, Control_c, 0, 64, 49
1, 572082, Note_off_c, 0, 45, 66
1, 572090, Control_c, 0, 64, 63
1, 572105, Control_c, 0, 64, 68
1, 572117, Note_on_c, 0, 57, 69
1, 572119, Note_off_c, 0, 64, 63
1, 572120, Control_c, 0, 64, 74
1, 572134, Control_c, 0, 64, 80
1, 572143, Note_off_c, 0, 72, 62
1, 572149, Control_c, 0, 64, 84
1, 572164, Control_c, 0, 64, 86
1, 572179, Control_c, 0, 64, 87
1, 572180, Note_off_c, 0, 57, 62
1, 572183, Note_on_c, 0, 56, 70
1, 572234, Note_off_c, 0, 56, 62
1, 572248, Note_off_c, 0, 74, 60
1, 572257, Note_on_c, 0, 57, 69
1, 572268, Control_c, 0, 64, 85
1, 572283, Control_c, 0, 64, 80
1, 572297, Control_c, 0, 64, 73
1, 572304, Note_off_c, 0, 57, 58
1, 572311, Note_on_c, 0, 73, 70
1, 572312, Control_c, 0, 64, 65
1, 572327, Control_c, 0, 64, 50
1, 572331, Note_on_c, 0, 56, 44
1, 572342, Control_c, 0, 64, 24
1, 572355, Note_off_c, 0, 56, 60
1, 572357, Note_on_c, 0, 74, 68
1, 572365, Note_off_c, 0, 73, 0
1, 572371, Control_c, 0, 64, 23
1, 572374, Note_on_c, 0, 57, 61
1, 572383, Note_on_c, 0, 73, 55
1, 572384, Note_off_c, 0, 74, 66
1, 572386, Control_c, 0, 64, 0
1, 572421, Note_off_c, 0, 57, 60
1, 572437, Note_on_c, 0, 74, 74
1, 572441, Note_off_c, 0, 73, 64
1, 572457, Note_on_c, 0, 50, 72
1, 572474, Note_off_c, 0, 74, 66
1, 572601, Note_on_c, 0, 66, 66
1, 572677, Note_off_c, 0, 50, 61
1, 572718, Note_off_c, 0, 66, 64
1, 572720, Note_on_c, 0, 69, 78
1, 572851, Note_on_c, 0, 71, 79
1, 572900, Note_off_c, 0, 69, 56
1, 572978, Note_on_c, 0, 73, 80
1, 573029, Note_off_c, 0, 71, 61
1, 573123, Note_on_c, 0, 74, 77
1, 573139, Note_off_c, 0, 73, 64
1, 573254, Note_off_c, 0, 74, 60
1, 573264, Note_on_c, 0, 76, 69
1, 573265, Note_on_c, 0, 61, 46
1, 573271, Note_on_c, 0, 57, 43
1, 573321, Note_off_c, 0, 76, 52
1, 573399, Note_on_c, 0, 69, 68
1, 573530, Note_on_c, 0, 71, 72
1, 573540, Note_off_c, 0, 69, 55
1, 573570, Control_c, 0, 67, 18
1, 573585, Control_c, 0, 67, 40
1, 573601, Control_c, 0, 67, 68
1, 573605, Note_off_c, 0, 61, 49
1, 573616, Control_c, 0, 67, 95
1, 573631, Control_c, 0, 67, 118
1, 573636, Note_off_c, 0, 57, 51
1, 573646, Control_c, 0, 67, 127
1, 573659, Note_on_c, 0, 73, 81
1, 573687, Note_off_c, 0, 71, 63
1, 573784, Note_off_c, 0, 73, 64
1, 573787, Note_on_c, 0, 74, 83
1, 573922, Note_on_c, 0, 76, 72
1, 573940, Note_off_c, 0, 74, 44
1, 574018, Note_off_c, 0, 76, 54
1, 574061, Note_on_c, 0, 78, 55
1, 574064, Note_on_c, 0, 62, 56
1, 574065, Note_on_c, 0, 50, 58
1, 574081, Note_off_c, 0, 78, 63
1, 574203, Note_on_c, 0, 66, 59
1, 574210, Note_on_c, 0, 69, 47
1, 574248, Note_off_c, 0, 69, 59
1, 574264, Note_off_c, 0, 66, 53
1, 574319, Note_on_c, 0, 69, 56
1, 574332, Note_on_c, 0, 73, 63
1, 574340, Note_off_c, 0, 69, 61
1, 574363, Note_off_c, 0, 73, 64
1, 574433, Note_off_c, 0, 50, 62
1, 574454, Note_on_c, 0, 71, 63
1, 574457, Note_on_c, 0, 74, 66
1, 574462, Note_off_c, 0, 62, 58
1, 574483, Note_off_c, 0, 71, 66
1, 574491, Note_off_c, 0, 74, 63
1, 574571, Note_on_c, 0, 73, 73
1, 574581, Note_on_c, 0, 76, 66
1, 574603, Note_off_c, 0, 73, 60
1, 574614, Note_off_c, 0, 76, 60
1, 574703, Note_on_c, 0, 74, 63
1, 574704, Note_on_c, 0, 78, 61
1, 574745, Note_off_c, 0, 74, 61
1, 574756, Note_off_c, 0, 78, 62
1, 574838, Note_on_c, 0, 79, 63
1, 574844, Note_on_c, 0, 76, 52
1, 574850, Note_on_c, 0, 64, 44
1, 574860, Note_on_c, 0, 57, 36
1, 574863, Note_off_c, 0, 79, 58
1, 574865, Note_on_c, 0, 61, 40
1, 574868, Note_off_c, 0, 76, 58
1, 574971, Note_on_c, 0, 69, 60
1, 574986, Note_on_c, 0, 73, 54
1, 575018, Note_off_c, 0, 69, 55
1, 575074, Note_off_c, 0, 73, 48
1, 575094, Note_off_c, 0, 64, 40
1, 575105, Note_on_c, 0, 74, 65
1, 575105, Note_off_c, 0, 61, 38
1, 575133, Note_on_c, 0, 71, 54
1, 575174, Note_off_c, 0, 71, 56
1, 575189, Note_off_c, 0, 74, 61
1, 575237, Note_on_c, 0, 73, 54
1, 575241, Note_on_c, 0, 76, 61
1, 575259, Note_off_c, 0, 57, 57
1, 575267, Note_off_c, 0, 73, 61
1, 575312, Note_off_c, 0, 76, 53
1, 575381, Note_on_c, 0, 78, 53
1, 575384, Note_on_c, 0, 74, 51
1, 575506, Note_off_c, 0, 78, 61
1, 575510, Note_off_c, 0, 74, 38
1, 575537, Note_on_c, 0, 79, 49
1, 575543, Note_on_c, 0, 76, 43
1, 575616, Note_off_c, 0, 76, 39
1, 575681, Note_off_c, 0, 79, 46
1, 575758, Note_on_c, 0, 81, 44
1, 575770, Note_on_c, 0, 78, 31
1, 575772, Control_c, 0, 64, 33
1, 575774, Note_on_c, 0, 66, 27
1, 575783, Note_on_c, 0, 62, 23
1, 575787, Control_c, 0, 64, 51
1, 575802, Control_c, 0, 64, 60
1, 575817, Control_c, 0, 64, 63
1, 575832, Control_c, 0, 64, 64
1, 575846, Control_c, 0, 64, 65
1, 575861, Control_c, 0, 64, 66
1, 575876, Control_c, 0, 64, 67
1, 575891, Control_c, 0, 64, 68
1, 575906, Control_c, 0, 64, 68
1, 575920, Control_c, 0, 64, 69
1, 576011, Control_c, 0, 64, 68
1, 576024, Note_off_c, 0, 81, 47
1, 576040, Control_c, 0, 64, 68
1, 576078, Note_off_c, 0, 78, 46
1, 576084, Control_c, 0, 64, 67
1, 576099, Control_c, 0, 64, 67
1, 576114, Control_c, 0, 64, 66
1, 576144, Control_c, 0, 64, 66
1, 576174, Control_c, 0, 64, 65
1, 576188, Control_c, 0, 64, 65
1, 576203, Control_c, 0, 64, 64
1, 576234, Note_off_c, 0, 62, 38
1, 576240, Control_c, 0, 64, 63
1, 576255, Control_c, 0, 64, 63
1, 576269, Control_c, 0, 64, 62
1, 576284, Control_c, 0, 64, 61
1, 576299, Control_c, 0, 64, 60
1, 576311, Note_off_c, 0, 66, 38
1, 576314, Control_c, 0, 64, 59
1, 576329, Control_c, 0, 64, 58
1, 576343, Control_c, 0, 64, 56
1, 576358, Control_c, 0, 64, 53
1, 576373, Control_c, 0, 64, 47
1, 576388, Control_c, 0, 64, 37
1, 576403, Control_c, 0, 64, 0
1, 576457, Note_on_c, 0, 69, 38
1, 576499, Note_on_c, 0, 81, 51
1, 576525, Note_off_c, 0, 69, 52
1, 576770, Note_on_c, 0, 78, 50
1, 576805, Note_off_c, 0, 81, 36
1, 576881, Note_on_c, 0, 76, 53
1, 576883, Note_off_c, 0, 78, 51
1, 576904, Note_on_c, 0, 74, 58
1, 576907, Note_on_c, 0, 66, 33
1, 576909, Note_on_c, 0, 62, 37
1, 576944, Note_off_c, 0, 76, 57
1, 576953, Note_off_c, 0, 74, 56
1, 577032, Note_on_c, 0, 73, 68
1, 577064, Note_off_c, 0, 66, 44
1, 577102, Note_off_c, 0, 73, 60
1, 577157, Note_on_c, 0, 74, 73
1, 577218, Note_off_c, 0, 74, 64
1, 577265, Note_off_c, 0, 62, 58
1, 577275, Note_on_c, 0, 76, 77
1, 577291, Note_on_c, 0, 68, 53
1, 577295, Note_on_c, 0, 59, 51
1, 577302, Note_on_c, 0, 74, 74
1, 577314, Note_off_c, 0, 76, 60
1, 577367, Note_off_c, 0, 74, 63
1, 577414, Note_on_c, 0, 73, 80
1, 577444, Note_off_c, 0, 68, 37
1, 577473, Note_off_c, 0, 73, 63
1, 577543, Note_on_c, 0, 74, 72
1, 577589, Note_off_c, 0, 74, 65
1, 577684, Note_off_c, 0, 59, 42
1, 577735, Note_on_c, 0, 74, 51
1, 577740, Note_on_c, 0, 78, 54
1, 577768, Note_on_c, 0, 69, 37
1, 577774, Note_on_c, 0, 57, 24
1, 577964, Note_off_c, 0, 74, 56
1, 577997, Note_off_c, 0, 69, 38
1, 578027, Note_off_c, 0, 78, 45
1, 578033, Note_off_c, 0, 57, 43
1, 578034, Note_on_c, 0, 73, 54
1, 578037, Note_on_c, 0, 76, 51
1, 578069, Note_off_c, 0, 73, 65
1, 578081, Note_off_c, 0, 76, 58
1, 578183, Note_on_c, 0, 67, 54
1, 578210, Note_on_c, 0, 79, 65
1, 578230, Note_off_c, 0, 67, 54
1, 578483, Note_on_c, 0, 76, 61
1, 578528, Note_off_c, 0, 79, 55
1, 578590, Note_on_c, 0, 74, 62
1, 578611, Note_on_c, 0, 57, 43
1, 578621, Note_off_c, 0, 76, 52
1, 578624, Note_on_c, 0, 73, 65
1, 578629, Note_on_c, 0, 64, 38
1, 578660, Note_off_c, 0, 74, 64
1, 578699, Note_off_c, 0, 73, 62
1, 578740, Note_on_c, 0, 71, 74
1, 578761, Note_off_c, 0, 64, 35
1, 578803, Note_off_c, 0, 71, 62
1, 578870, Note_on_c, 0, 73, 81
1, 578943, Note_off_c, 0, 73, 61
1, 578999, Note_on_c, 0, 69, 76
1, 579002, Note_on_c, 0, 61, 50
1, 579009, Note_on_c, 0, 64, 48
1, 579044, Note_off_c, 0, 57, 33
1, 579063, Note_off_c, 0, 69, 60
1, 579127, Note_on_c, 0, 76, 80
1, 579187, Note_off_c, 0, 76, 61
1, 579262, Note_on_c, 0, 81, 76
1, 579323, Note_off_c, 0, 81, 59
1, 579341, Note_off_c, 0, 64, 38
1, 579355, Note_off_c, 0, 61, 51
1, 579431, Note_on_c, 0, 69, 43
1, 579432, Note_on_c, 0, 79, 61
1, 579442, Note_on_c, 0, 62, 40
1, 579447, Note_on_c, 0, 76, 53
1, 579503, Control_c, 0, 64, 23
1, 579518, Control_c, 0, 64, 40
1, 579533, Control_c, 0, 64, 52
1, 579544, Note_off_c, 0, 69, 48
1, 579548, Control_c, 0, 64, 61
1, 579562, Control_c, 0, 64, 63
1, 579577, Control_c, 0, 64, 64
1, 579631, Note_off_c, 0, 62, 41
1, 579650, Note_off_c, 0, 76, 55
1, 579651, Control_c, 0, 64, 64
1, 579731, Note_on_c, 0, 74, 60
1, 579735, Note_on_c, 0, 78, 58
1, 579745, Note_off_c, 0, 79, 49
1, 579755, Control_c, 0, 64, 65
1, 579774, Note_off_c, 0, 74, 63
1, 579784, Control_c, 0, 64, 65
1, 579784, Control_c, 0, 67, 115
1, 579788, Note_off_c, 0, 78, 58
1, 579799, Control_c, 0, 64, 66
1, 579799, Control_c, 0, 67, 97
1, 579813, Control_c, 0, 64, 65
1, 579813, Control_c, 0, 67, 71
1, 579828, Control_c, 0, 64, 64
1, 579828, Control_c, 0, 67, 43
1, 579843, Control_c, 0, 64, 59
1, 579843, Control_c, 0, 67, 14
1, 579849, Note_on_c, 0, 50, 81
1, 579851, Note_on_c, 0, 74, 73
1, 579854, Note_on_c, 0, 78, 87
1, 579858, Control_c, 0, 64, 28
1, 579858, Control_c, 0, 67, 0
1, 579873, Control_c, 0, 64, 0
1, 579898, Note_off_c, 0, 50, 65
1, 579928, Note_off_c, 0, 74, 55
1, 579990, Note_on_c, 0, 62, 74
1, 580038, Note_off_c, 0, 62, 61
1, 580121, Note_on_c, 0, 79, 75
1, 580128, Note_on_c, 0, 64, 81
1, 580128, Note_off_c, 0, 78, 59
1, 580170, Note_off_c, 0, 64, 62
1, 580184, Note_off_c, 0, 79, 61
1, 580260, Note_on_c, 0, 66, 89
1, 580261, Note_on_c, 0, 83, 85
1, 580319, Note_on_c, 0, 81, 79
1, 580329, Note_off_c, 0, 83, 63
1, 580376, Note_on_c, 0, 79, 79
1, 580394, Note_off_c, 0, 66, 63
1, 580402, Note_off_c, 0, 81, 61
1, 580436, Note_on_c, 0, 78, 77
1, 580441, Note_off_c, 0, 79, 64
1, 580481, Note_off_c, 0, 78, 65
1, 580495, Note_on_c, 0, 76, 70
1, 580554, Note_off_c, 0, 76, 56
1, 580557, Note_on_c, 0, 74, 76
1, 580580, Note_off_c, 0, 74, 71
1, 580655, Note_on_c, 0, 79, 86
1, 580663, Note_on_c, 0, 55, 78
1, 580664, Note_on_c, 0, 83, 97
1, 580716, Note_off_c, 0, 55, 58
1, 580716, Note_off_c, 0, 79, 59
1, 580798, Note_on_c, 0, 67, 77
1, 580848, Note_off_c, 0, 67, 62
1, 580893, Note_off_c, 0, 83, 0
1, 580925, Poly_aftertouch_c, 0, 83, 0
1, 580926, Note_on_c, 0, 69, 75
1, 580928, Note_on_c, 0, 85, 76
1, 580971, Note_off_c, 0, 69, 61
1, 580988, Note_off_c, 0, 85, 63
1, 581069, Note_on_c, 0, 71, 82
1, 581076, Note_on_c, 0, 88, 86
1, 581105, Note_off_c, 0, 71, 66
1, 581131, Note_on_c, 0, 86, 76
1, 581149, Note_off_c, 0, 88, 63
1, 581187, Note_on_c, 0, 85, 84
1, 581218, Note_off_c, 0, 86, 63
1, 581252, Note_on_c, 0, 83, 78
1, 581256, Note_off_c, 0, 85, 66
1, 581288, Note_off_c, 0, 83, 66
1, 581313, Note_on_c, 0, 81, 67
1, 581365, Note_off_c, 0, 81, 60
1, 581369, Note_on_c, 0, 79, 73
1, 581405, Note_off_c, 0, 79, 56
1, 581435, Note_on_c, 0, 85, 73
1, 581438, Note_on_c, 0, 55, 61
1, 581444, Note_on_c, 0, 64, 62
1, 581446, Note_on_c, 0, 59, 60
1, 581477, Note_off_c, 0, 55, 64
1, 581477, Note_off_c, 0, 64, 67
1, 581480, Note_off_c, 0, 59, 64
1, 581506, Note_on_c, 0, 83, 75
1, 581536, Note_off_c, 0, 85, 54
1, 581561, Note_on_c, 0, 81, 70
1, 581564, Note_off_c, 0, 83, 65
1, 581607, Note_off_c, 0, 81, 62
1, 581629, Note_on_c, 0, 79, 66
1, 581655, Note_off_c, 0, 79, 61
1, 581688, Note_on_c, 0, 78, 63
1, 581714, Note_off_c, 0, 78, 65
1, 581739, Note_on_c, 0, 76, 71
1, 581775, Note_off_c, 0, 76, 57
1, 581818, Note_on_c, 0, 62, 65
1, 581821, Note_on_c, 0, 83, 79
1, 581825, Note_on_c, 0, 66, 59
1, 581828, Note_on_c, 0, 57, 56
1, 581846, Note_off_c, 0, 62, 65
1, 581846, Note_off_c, 0, 66, 65
1, 581852, Note_off_c, 0, 57, 61
1, 581882, Note_on_c, 0, 81, 76
1, 581883, Note_off_c, 0, 83, 64
1, 581945, Note_on_c, 0, 79, 75
1, 581955, Note_off_c, 0, 81, 61
1, 582005, Note_off_c, 0, 79, 62
1, 582007, Note_on_c, 0, 78, 76
1, 582055, Note_off_c, 0, 78, 65
1, 582074, Note_on_c, 0, 76, 69
1, 582125, Note_off_c, 0, 76, 57
1, 582132, Note_on_c, 0, 74, 80
1, 582162, Note_off_c, 0, 74, 64
1, 582213, Note_on_c, 0, 64, 70
1, 582213, Note_on_c, 0, 81, 78
1, 582213, Note_on_c, 0, 67, 67
1, 582216, Note_on_c, 0, 57, 66
1, 582240, Note_off_c, 0, 67, 66
1, 582246, Note_off_c, 0, 64, 66
1, 582273, Note_on_c, 0, 79, 79
1, 582277, Note_off_c, 0, 81, 62
1, 582330, Note_on_c, 0, 78, 84
1, 582346, Note_off_c, 0, 79, 60
1, 582394, Note_on_c, 0, 76, 73
1, 582395, Note_off_c, 0, 78, 66
1, 582422, Note_off_c, 0, 76, 65
1, 582442, Note_on_c, 0, 74, 73
1, 582472, Note_off_c, 0, 74, 59
1, 582508, Note_on_c, 0, 73, 73
1, 582508, Note_off_c, 0, 57, 44
1, 582551, Note_on_c, 0, 74, 86
1, 582559, Note_on_c, 0, 66, 66
1, 582559, Note_on_c, 0, 62, 66
1, 582561, Note_off_c, 0, 73, 61
1, 582571, Note_off_c, 0, 74, 71
1, 582573, Control_c, 0, 64, 49
1, 582582, Note_off_c, 0, 66, 65
1, 582588, Note_off_c, 0, 62, 64
1, 582588, Control_c, 0, 64, 65
1, 582603, Control_c, 0, 64, 0
1, 582842, Note_on_c, 0, 38, 65
1, 582844, Note_on_c, 0, 62, 62
1, 582876, Note_on_c, 0, 42, 74
1, 582877, Note_on_c, 0, 66, 71
1, 582910, Note_off_c, 0, 62, 61
1, 582918, Note_on_c, 0, 45, 82
1, 582921, Note_on_c, 0, 69, 83
1, 582934, Note_off_c, 0, 38, 63
1, 582938, Note_off_c, 0, 42, 63
1, 582938, Note_off_c, 0, 66, 64
1, 582947, Note_off_c, 0, 45, 70
1, 582961, Note_off_c, 0, 69, 65
1, 583201, Note_on_c, 0, 66, 62
1, 583210, Note_on_c, 0, 42, 62
1, 583249, Note_on_c, 0, 69, 73
1, 583253, Note_on_c, 0, 45, 76
1, 583274, Note_off_c, 0, 66, 61
1, 583295, Note_on_c, 0, 74, 87
1, 583297, Note_on_c, 0, 50, 80
1, 583303, Note_off_c, 0, 69, 66
1, 583304, Note_off_c, 0, 42, 62
1, 583307, Note_off_c, 0, 45, 64
1, 583330, Note_off_c, 0, 74, 65
1, 583331, Note_off_c, 0, 50, 66
1, 583575, Note_on_c, 0, 69, 63
1, 583586, Note_on_c, 0, 45, 66
1, 583626, Note_on_c, 0, 74, 76
1, 583633, Note_on_c, 0, 50, 77
1, 583659, Note_off_c, 0, 69, 60
1, 583672, Note_on_c, 0, 78, 81
1, 583678, Note_on_c, 0, 54, 85
1, 583684, Note_off_c, 0, 74, 67
1, 583688, Note_off_c, 0, 50, 66
1, 583691, Note_off_c, 0, 45, 65
1, 583717, Note_off_c, 0, 54, 67
1, 583722, Note_off_c, 0, 78, 63
1, 583996, Note_on_c, 0, 50, 57
1, 583999, Note_on_c, 0, 74, 67
1, 584044, Note_on_c, 0, 78, 74
1, 584052, Note_on_c, 0, 54, 67
1, 584055, Note_off_c, 0, 74, 62
1, 584059, Note_off_c, 0, 50, 63
1, 584093, Note_off_c, 0, 54, 63
1, 584100, Note_on_c, 0, 81, 72
1, 584107, Note_off_c, 0, 78, 64
1, 584113, Note_on_c, 0, 57, 62
1, 584183, Note_off_c, 0, 81, 62
1, 584277, Control_c, 0, 67, 11
1, 584292, Control_c, 0, 67, 36
1, 584307, Control_c, 0, 67, 76
1, 584322, Control_c, 0, 67, 122
1, 584336, Control_c, 0, 67, 127
1, 584361, Note_off_c, 0, 57, 56
1, 585125, Note_on_c, 0, 81, 45
1, 585131, Control_c, 0, 64, 32
1, 585146, Control_c, 0, 64, 57
1, 585150, Note_on_c, 0, 66, 20
1, 585151, Note_on_c, 0, 62, 26
1, 585160, Control_c, 0, 64, 63
1, 585161, Note_on_c, 0, 57, 31
1, 585175, Control_c, 0, 64, 65
1, 585190, Control_c, 0, 64, 66
1, 585212, Control_c, 0, 64, 68
1, 585227, Control_c, 0, 64, 71
1, 585241, Control_c, 0, 64, 73
1, 585256, Control_c, 0, 64, 76
1, 585271, Control_c, 0, 64, 77
1, 585286, Control_c, 0, 64, 78
1, 585301, Control_c, 0, 64, 79
1, 585316, Control_c, 0, 64, 80
1, 585352, Note_off_c, 0, 62, 51
1, 585402, Note_off_c, 0, 66, 41
1, 585491, Note_on_c, 0, 83, 63
1, 585501, Note_off_c, 0, 81, 60
1, 585523, Control_c, 0, 64, 79
1, 585538, Control_c, 0, 64, 76
1, 585553, Control_c, 0, 64, 70
1, 585560, Note_on_c, 0, 74, 63
1, 585567, Control_c, 0, 64, 61
1, 585577, Note_off_c, 0, 83, 57
1, 585583, Control_c, 0, 64, 0
1, 585588, Note_on_c, 0, 64, 44
1, 585589, Note_on_c, 0, 67, 42
1, 585701, Note_off_c, 0, 67, 46
1, 585821, Note_off_c, 0, 74, 61
1, 585859, Note_on_c, 0, 73, 55
1, 585893, Note_off_c, 0, 64, 37
1, 585956, Note_off_c, 0, 73, 62
1, 585978, Note_on_c, 0, 62, 34
1, 585979, Note_on_c, 0, 66, 35
1, 585989, Note_on_c, 0, 74, 51
1, 586026, Note_off_c, 0, 74, 65
1, 586121, Note_on_c, 0, 86, 60
1, 586138, Note_off_c, 0, 66, 39
1, 586150, Note_off_c, 0, 86, 57
1, 586187, Note_off_c, 0, 62, 22
1, 586198, Note_off_c, 0, 57, 43
1, 586244, Note_on_c, 0, 85, 73
1, 586288, Note_off_c, 0, 85, 62
1, 586366, Note_on_c, 0, 83, 80
1, 586409, Note_off_c, 0, 83, 65
1, 586496, Note_on_c, 0, 81, 72
1, 586535, Note_off_c, 0, 81, 52
1, 586625, Note_on_c, 0, 80, 69
1, 586666, Note_off_c, 0, 80, 60
1, 586749, Note_on_c, 0, 81, 76
1, 586762, Note_on_c, 0, 62, 47
1, 586764, Note_on_c, 0, 66, 46
1, 586770, Note_on_c, 0, 57, 42
1, 586780, Note_off_c, 0, 81, 59
1, 586796, Note_off_c, 0, 62, 63
1, 586800, Note_off_c, 0, 66, 57
1, 586872, Note_on_c, 0, 83, 71
1, 586911, Note_off_c, 0, 83, 66
1, 586922, Note_on_c, 0, 81, 59
1, 586941, Note_off_c, 0, 81, 63
1, 586952, Note_on_c, 0, 80, 61
1, 586986, Note_off_c, 0, 80, 49
1, 587006, Note_on_c, 0, 81, 60
1, 587057, Note_on_c, 0, 83, 71
1, 587060, Note_off_c, 0, 81, 62
1, 587114, Note_off_c, 0, 83, 63
1, 587139, Note_on_c, 0, 74, 71
1, 587150, Note_on_c, 0, 64, 47
1, 587158, Note_on_c, 0, 67, 45
1, 587251, Note_off_c, 0, 67, 35
1, 587381, Note_off_c, 0, 74, 59
1, 587423, Note_on_c, 0, 73, 56
1, 587479, Note_off_c, 0, 64, 33
1, 587519, Note_off_c, 0, 73, 63
1, 587554, Note_on_c, 0, 74, 61
1, 587561, Note_on_c, 0, 66, 33
1, 587562, Note_on_c, 0, 62, 35
1, 587588, Note_off_c, 0, 74, 65
1, 587695, Note_on_c, 0, 86, 60
1, 587731, Note_off_c, 0, 86, 61
1, 587769, Note_off_c, 0, 66, 41
1, 587830, Note_on_c, 0, 85, 64
1, 587870, Note_off_c, 0, 62, 34
1, 587874, Note_off_c, 0, 85, 61
1, 587914, Note_off_c, 0, 57, 43
1, 587951, Note_on_c, 0, 83, 73
1, 587993, Note_off_c, 0, 83, 62
1, 588088, Note_on_c, 0, 81, 56
1, 588118, Note_off_c, 0, 81, 54
1, 588224, Note_on_c, 0, 80, 50
1, 588252, Note_off_c, 0, 80, 55
1, 588342, Note_on_c, 0, 81, 71
1, 588350, Note_on_c, 0, 62, 46
1, 588350, Note_on_c, 0, 66, 47
1, 588357, Note_on_c, 0, 57, 44
1, 588371, Note_off_c, 0, 81, 60
1, 588378, Note_off_c, 0, 62, 61
1, 588382, Note_off_c, 0, 66, 57
1, 588477, Note_on_c, 0, 83, 68
1, 588503, Note_off_c, 0, 83, 68
1, 588524, Note_on_c, 0, 81, 56
1, 588542, Note_off_c, 0, 81, 62
1, 588552, Note_on_c, 0, 80, 61
1, 588581, Note_off_c, 0, 80, 50
1, 588613, Note_on_c, 0, 81, 55
1, 588652, Note_off_c, 0, 81, 62
1, 588654, Note_on_c, 0, 83, 71
1, 588697, Note_off_c, 0, 83, 65
1, 588732, Note_on_c, 0, 74, 71
1, 588752, Note_on_c, 0, 67, 51
1, 588754, Note_on_c, 0, 64, 49
1, 588789, Note_off_c, 0, 67, 64
1, 588801, Note_off_c, 0, 64, 56
1, 588996, Note_off_c, 0, 74, 59
1, 589030, Note_on_c, 0, 73, 47
1, 589113, Note_off_c, 0, 73, 53
1, 589150, Note_on_c, 0, 74, 53
1, 589153, Note_on_c, 0, 66, 45
1, 589162, Note_on_c, 0, 62, 42
1, 589185, Note_off_c, 0, 66, 64
1, 589185, Note_off_c, 0, 74, 66
1, 589195, Note_off_c, 0, 62, 63
1, 589203, Note_off_c, 0, 57, 56
1, 589564, Control_c, 0, 64, 38
1, 589579, Control_c, 0, 64, 54
1, 589593, Note_on_c, 0, 59, 40
1, 589593, Note_on_c, 0, 62, 44
1, 589594, Control_c, 0, 64, 61
1, 589594, Note_on_c, 0, 54, 43
1, 589607, Note_on_c, 0, 47, 30
1, 589608, Control_c, 0, 64, 64
1, 589623, Control_c, 0, 64, 66
1, 589638, Control_c, 0, 64, 69
1, 589653, Control_c, 0, 64, 73
1, 589668, Control_c, 0, 64, 77
1, 589683, Control_c, 0, 64, 81
1, 589704, Note_off_c, 0, 54, 62
1, 589704, Control_c, 0, 64, 85
1, 589710, Note_off_c, 0, 59, 58
1, 589719, Control_c, 0, 64, 88
1, 589734, Control_c, 0, 64, 90
1, 589742, Note_off_c, 0, 62, 61
1, 589749, Control_c, 0, 64, 92
1, 589763, Control_c, 0, 64, 93
1, 589778, Control_c, 0, 64, 93
1, 589847, Note_off_c, 0, 47, 43
1, 590000, Control_c, 0, 64, 93
1, 590015, Control_c, 0, 64, 92
1, 590029, Control_c, 0, 64, 89
1, 590043, Note_on_c, 0, 64, 53
1, 590044, Control_c, 0, 64, 83
1, 590048, Note_on_c, 0, 62, 44
1, 590050, Note_on_c, 0, 43, 41
1, 590058, Note_on_c, 0, 59, 42
1, 590059, Control_c, 0, 64, 74
1, 590074, Control_c, 0, 64, 66
1, 590089, Control_c, 0, 64, 36
1, 590103, Control_c, 0, 64, 0
1, 590133, Control_c, 0, 64, 47
1, 590148, Control_c, 0, 64, 61
1, 590163, Control_c, 0, 64, 65
1, 590178, Control_c, 0, 64, 67
1, 590184, Note_off_c, 0, 62, 56
1, 590193, Control_c, 0, 64, 70
1, 590196, Note_off_c, 0, 59, 57
1, 590208, Control_c, 0, 64, 74
1, 590222, Control_c, 0, 64, 77
1, 590231, Note_off_c, 0, 64, 61
1, 590237, Control_c, 0, 64, 81
1, 590252, Control_c, 0, 64, 84
1, 590266, Control_c, 0, 64, 86
1, 590281, Control_c, 0, 64, 88
1, 590296, Control_c, 0, 64, 88
1, 590311, Control_c, 0, 64, 89
1, 590339, Note_off_c, 0, 43, 39
1, 590431, Control_c, 0, 64, 88
1, 590452, Control_c, 0, 64, 86
1, 590467, Control_c, 0, 64, 79
1, 590471, Note_on_c, 0, 64, 42
1, 590476, Note_on_c, 0, 69, 52
1, 590482, Control_c, 0, 64, 68
1, 590494, Note_on_c, 0, 45, 39
1, 590497, Control_c, 0, 64, 19
1, 590506, Note_on_c, 0, 61, 34
1, 590512, Control_c, 0, 64, 0
1, 590571, Control_c, 0, 64, 49
1, 590586, Control_c, 0, 64, 64
1, 590589, Note_off_c, 0, 64, 62
1, 590601, Control_c, 0, 64, 67
1, 590616, Control_c, 0, 64, 70
1, 590631, Note_off_c, 0, 69, 61
1, 590631, Control_c, 0, 64, 75
1, 590646, Control_c, 0, 64, 79
1, 590654, Note_off_c, 0, 61, 56
1, 590661, Control_c, 0, 64, 83
1, 590676, Control_c, 0, 64, 86
1, 590691, Control_c, 0, 64, 88
1, 590705, Control_c, 0, 64, 88
1, 590720, Control_c, 0, 64, 89
1, 590765, Note_off_c, 0, 45, 44
1, 590897, Control_c, 0, 64, 88
1, 590912, Control_c, 0, 64, 88
1, 590927, Control_c, 0, 64, 86
1, 590941, Note_on_c, 0, 66, 39
1, 590942, Control_c, 0, 64, 80
1, 590944, Note_on_c, 0, 38, 35
1, 590947, Note_on_c, 0, 57, 30
1, 590947, Note_on_c, 0, 62, 33
1, 590957, Control_c, 0, 64, 71
1, 590971, Control_c, 0, 64, 59
1, 590986, Control_c, 0, 64, 0
1, 591031, Control_c, 0, 64, 57
1, 591039, Note_off_c, 0, 57, 60
1, 591045, Control_c, 0, 64, 65
1, 591060, Control_c, 0, 64, 68
1, 591069, Note_off_c, 0, 62, 55
1, 591075, Control_c, 0, 64, 72
1, 591089, Note_off_c, 0, 66, 61
1, 591090, Control_c, 0, 64, 76
1, 591105, Control_c, 0, 64, 80
1, 591120, Control_c, 0, 64, 82
1, 591135, Control_c, 0, 67, 126
1, 591150, Control_c, 0, 67, 101
1, 591165, Control_c, 0, 64, 81
1, 591165, Control_c, 0, 67, 65
1, 591178, Note_off_c, 0, 38, 55
1, 591180, Control_c, 0, 64, 79
1, 591180, Control_c, 0, 67, 22
1, 591202, Control_c, 0, 64, 77
1, 591202, Control_c, 0, 67, 0
1, 591217, Control_c, 0, 64, 74
1, 591232, Control_c, 0, 64, 71
1, 591247, Control_c, 0, 64, 68
1, 591262, Control_c, 0, 64, 66
1, 591276, Control_c, 0, 64, 65
1, 591291, Control_c, 0, 64, 65
1, 591306, Control_c, 0, 64, 64
1, 591320, Control_c, 0, 64, 56
1, 591335, Control_c, 0, 64, 0
1, 591371, Note_on_c, 0, 83, 87
1, 591374, Note_on_c, 0, 78, 86
1, 591382, Note_on_c, 0, 59, 103
1, 591388, Note_on_c, 0, 47, 89
1, 591407, Note_off_c, 0, 59, 64
1, 591409, Note_off_c, 0, 47, 71
1, 591418, Note_off_c, 0, 78, 62
1, 591434, Note_off_c, 0, 83, 66
1, 591437, Note_on_c, 0, 86, 82
1, 591500, Note_on_c, 0, 59, 89
1, 591501, Note_off_c, 0, 86, 65
1, 591502, Note_on_c, 0, 47, 68
1, 591507, Note_on_c, 0, 83, 66
1, 591519, Note_on_c, 0, 78, 61
1, 591528, Note_off_c, 0, 59, 64
1, 591528, Note_off_c, 0, 47, 67
1, 591547, Note_off_c, 0, 78, 67
1, 591567, Note_off_c, 0, 83, 66
1, 591574, Note_on_c, 0, 86, 76
1, 591628, Note_on_c, 0, 47, 77
1, 591628, Note_on_c, 0, 59, 89
1, 591629, Note_off_c, 0, 86, 63
1, 591636, Note_on_c, 0, 83, 70
1, 591636, Note_on_c, 0, 78, 69
1, 591650, Note_off_c, 0, 59, 67
1, 591658, Note_off_c, 0, 47, 69
1, 591677, Note_off_c, 0, 78, 62
1, 591695, Note_on_c, 0, 86, 75
1, 591695, Note_off_c, 0, 83, 65
1, 591749, Note_on_c, 0, 55, 102
1, 591750, Control_c, 0, 64, 64
1, 591751, Note_off_c, 0, 86, 64
1, 591753, Note_on_c, 0, 43, 95
1, 591765, Control_c, 0, 64, 61
1, 591766, Note_on_c, 0, 83, 62
1, 591768, Note_on_c, 0, 76, 72
1, 591777, Note_off_c, 0, 55, 65
1, 591778, Note_off_c, 0, 43, 69
1, 591780, Control_c, 0, 64, 0
1, 591799, Note_off_c, 0, 76, 59
1, 591809, Note_on_c, 0, 86, 80
1, 591822, Note_off_c, 0, 83, 65
1, 591874, Note_off_c, 0, 86, 61
1, 591877, Note_on_c, 0, 55, 97
1, 591880, Note_on_c, 0, 43, 83
1, 591881, Note_on_c, 0, 83, 51
1, 591887, Note_on_c, 0, 76, 71
1, 591908, Note_off_c, 0, 55, 65
1, 591910, Note_off_c, 0, 43, 67
1, 591921, Note_off_c, 0, 76, 58
1, 591946, Note_on_c, 0, 86, 71
1, 591961, Note_off_c, 0, 83, 64
1, 592011, Note_on_c, 0, 55, 96
1, 592013, Note_on_c, 0, 43, 85
1, 592024, Note_on_c, 0, 83, 55
1, 592034, Note_off_c, 0, 86, 58
1, 592035, Note_on_c, 0, 76, 68
1, 592042, Note_off_c, 0, 43, 67
1, 592045, Note_off_c, 0, 55, 64
1, 592068, Note_on_c, 0, 86, 56
1, 592068, Note_off_c, 0, 76, 60
1, 592088, Note_off_c, 0, 83, 65
1, 592123, Note_off_c, 0, 86, 66
1, 592137, Note_on_c, 0, 57, 98
1, 592141, Note_on_c, 0, 45, 95
1, 592143, Control_c, 0, 64, 64
1, 592146, Note_on_c, 0, 81, 74
1, 592148, Note_on_c, 0, 76, 76
1, 592158, Control_c, 0, 64, 0
1, 592167, Note_off_c, 0, 45, 67
1, 592169, Note_off_c, 0, 57, 67
1, 592177, Note_off_c, 0, 76, 60
1, 592187, Note_on_c, 0, 85, 80
1, 592204, Note_off_c, 0, 81, 62
1, 592235, Note_off_c, 0, 85, 64
1, 592259, Note_on_c, 0, 57, 96
1, 592261, Note_on_c, 0, 45, 96
1, 592276, Note_on_c, 0, 81, 47
1, 592278, Note_on_c, 0, 76, 59
1, 592293, Note_off_c, 0, 57, 64
1, 592294, Note_off_c, 0, 45, 65
1, 592296, Note_on_c, 0, 85, 77
1, 592306, Note_off_c, 0, 76, 52
1, 592306, Control_c, 0, 64, 71
1, 592318, Note_off_c, 0, 81, 64
1, 592321, Control_c, 0, 64, 76
1, 592336, Control_c, 0, 64, 78
1, 592348, Note_off_c, 0, 85, 63
1, 592381, Control_c, 0, 64, 79
1, 592387, Note_on_c, 0, 45, 89
1, 592387, Note_on_c, 0, 57, 84
1, 592390, Note_on_c, 0, 76, 57
1, 592396, Control_c, 0, 64, 85
1, 592407, Note_on_c, 0, 85, 48
1, 592408, Note_off_c, 0, 57, 71
1, 592411, Control_c, 0, 64, 96
1, 592412, Note_on_c, 0, 81, 43
1, 592416, Note_off_c, 0, 76, 63
1, 592417, Note_off_c, 0, 45, 60
1, 592425, Control_c, 0, 64, 127
1, 592437, Note_off_c, 0, 85, 64
1, 592437, Note_off_c, 0, 81, 56
1, 592485, Control_c, 0, 64, 84
1, 592499, Control_c, 0, 64, 0
1, 592512, Note_on_c, 0, 74, 105
1, 592514, Note_on_c, 0, 50, 104
1, 592514, Note_on_c, 0, 81, 80
1, 592515, Note_on_c, 0, 86, 92
1, 592515, Note_on_c, 0, 78, 88
1, 592520, Note_on_c, 0, 38, 91
1, 592527, Note_off_c, 0, 74, 76
1, 592530, Note_off_c, 0, 86, 76
1, 592533, Note_off_c, 0, 81, 68
1, 592537, Note_off_c, 0, 78, 66
1, 592600, Note_off_c, 0, 38, 58
1, 592607, Note_off_c, 0, 50, 58
1, 592931, Note_on_c, 0, 69, 97
1, 592932, Note_on_c, 0, 74, 90
1, 592932, Note_on_c, 0, 50, 97
1, 592932, Note_on_c, 0, 81, 88
1, 592933, Note_on_c, 0, 45, 91
1, 592934, Note_on_c, 0, 78, 85
1, 592938, Note_on_c, 0, 42, 89
1, 592938, Note_on_c, 0, 38, 88
1, 592960, Note_off_c, 0, 69, 67
1, 592962, Note_off_c, 0, 74, 68
1, 592964, Note_off_c, 0, 78, 66
1, 592965, Note_off_c, 0, 81, 66
1, 592979, Note_off_c, 0, 50, 65
1, 592980, Note_off_c, 0, 45, 66
1, 592986, Note_off_c, 0, 42, 64
1, 592991, Note_off_c, 0, 38, 64
1, 593361, Note_on_c, 0, 50, 91
1, 593363, Note_on_c, 0, 69, 90
1, 593364, Note_on_c, 0, 78, 88
1, 593364, Note_on_c, 0, 74, 92
1, 593366, Control_c, 0, 64, 35
1, 593367, Note_on_c, 0, 45, 85
1, 593369, Note_on_c, 0, 38, 85
1, 593373, Note_on_c, 0, 42, 82
1, 593381, Control_c, 0, 64, 62
1, 593396, Control_c, 0, 64, 66
1, 593404, Note_off_c, 0, 74, 68
1, 593404, Note_off_c, 0, 69, 64
1, 593411, Control_c, 0, 64, 69
1, 593415, Note_off_c, 0, 78, 64
1, 593426, Control_c, 0, 64, 73
1, 593448, Control_c, 0, 64, 75
1, 593463, Control_c, 0, 64, 77
1, 593478, Control_c, 0, 64, 79
1, 593492, Control_c, 0, 64, 80
1, 593507, Control_c, 0, 64, 81
1, 593522, Control_c, 0, 64, 81
1, 593567, Control_c, 0, 64, 82
1, 593686, Control_c, 0, 64, 81
1, 593734, Note_off_c, 0, 38, 57
1, 593738, Note_off_c, 0, 45, 59
1, 593744, Note_off_c, 0, 42, 58
1, 593756, Note_off_c, 0, 50, 58
1, 593789, Control_c, 0, 64, 81
1, 593849, Control_c, 0, 64, 80
1, 593863, Control_c, 0, 64, 79
1, 593878, Control_c, 0, 64, 78
1, 593893, Control_c, 0, 64, 74
1, 593908, Control_c, 0, 64, 68
1, 593922, Control_c, 0, 64, 49
1, 593937, Control_c, 0, 64, 0
1, 594012, End_track
0, 0, End_of_file
