0, 0, Header, 0, 1, 384
1, 0, Start_track
1, 0, Title_t, "Dante Sonata--Jia               "
1, 0, Text_t, "2009 International Piano-e-Competition finals"
1, 0, Text_t, "captured June-July 2009"
1, 0, Text_t, "http://www.piano-e-competition.com/"
1, 0, Text_t, "standard-resolution version"
1, 0, Text_t, "File processed for distribution by software from Zenph Studios, Inc., http://www.zenph.com"
1, 0, Instrument_name_t, "Yamaha Disklavier Pro Mark IV concert grand piano, model DCFIIISM4PRO"
1, 0, Sequencer_specific, 39, 67, 113, 0, 1, 0, 1, 0, 68, 97, 110, 116, 101, 32, 83, 111, 110, 97, 116, 97, 32, 32, 32, 32, 82, 97, 110, 32, 74, 105, 97, 32, 32, 32, 32, 32, 32, 32, 32, 32
1, 0, Sequencer_specific, 6, 67, 113, 0, 0, 0, 69
1, 0, System_exclusive, 21, 67, 113, 126, 21, 0, 2, 2, 2, 3, 12, 8, 4, 10, 4, 10, 4, 3, 5, 10, 0, 247
1, 0, Sequencer_specific, 5, 67, 123, 12, 2, 1
1, 0, Tempo, 512820
1, 0, Time_signature, 4, 2, 24, 8
1, 0, System_exclusive, 5, 126, 127, 9, 1, 247
1, 1, System_exclusive, 8, 67, 16, 76, 0, 0, 126, 0, 247
1, 2, System_exclusive, 8, 67, 16, 76, 8, 9, 7, 1, 247
1, 3, Control_c, 0, 0, 0
1, 3, Control_c, 1, 0, 0
1, 3, Control_c, 2, 0, 0
1, 3, Control_c, 3, 0, 0
1, 3, Control_c, 4, 0, 0
1, 3, Control_c, 5, 0, 0
1, 3, Control_c, 6, 0, 0
1, 3, Control_c, 7, 0, 0
1, 3, Control_c, 8, 0, 0
1, 3, Control_c, 9, 0, 127
1, 3, Control_c, 10, 0, 0
1, 3, Control_c, 11, 0, 0
1, 3, Control_c, 12, 0, 0
1, 3, Control_c, 13, 0, 0
1, 3, Control_c, 14, 0, 0
1, 3, Control_c, 15, 0, 0
1, 4, Control_c, 0, 32, 0
1, 4, Control_c, 1, 32, 0
1, 4, Control_c, 2, 32, 0
1, 4, Control_c, 3, 32, 0
1, 4, Control_c, 4, 32, 0
1, 4, Control_c, 5, 32, 0
1, 4, Control_c, 6, 32, 0
1, 4, Control_c, 7, 32, 0
1, 4, Control_c, 8, 32, 0
1, 4, Control_c, 9, 32, 0
1, 4, Control_c, 10, 32, 0
1, 4, Control_c, 11, 32, 0
1, 4, Control_c, 12, 32, 0
1, 4, Control_c, 13, 32, 0
1, 4, Control_c, 14, 32, 0
1, 4, Control_c, 15, 32, 0
1, 5, Program_c, 0, 0
1, 5, Program_c, 1, 0
1, 5, Program_c, 2, 0
1, 5, Program_c, 3, 0
1, 5, Program_c, 4, 0
1, 5, Program_c, 5, 0
1, 5, Program_c, 6, 0
1, 5, Program_c, 7, 0
1, 5, Program_c, 8, 0
1, 5, Program_c, 9, 0
1, 5, Program_c, 10, 0
1, 5, Program_c, 11, 0
1, 5, Program_c, 12, 0
1, 5, Program_c, 13, 0
1, 5, Program_c, 14, 0
1, 5, Program_c, 15, 0
1, 6, Control_c, 0, 7, 100
1, 6, Control_c, 1, 7, 100
1, 6, Control_c, 2, 7, 100
1, 6, Control_c, 3, 7, 100
1, 6, Control_c, 4, 7, 100
1, 6, Control_c, 5, 7, 100
1, 6, Control_c, 6, 7, 100
1, 6, Control_c, 7, 7, 100
1, 6, Control_c, 8, 7, 100
1, 6, Control_c, 9, 7, 100
1, 6, Control_c, 10, 7, 100
1, 6, Control_c, 11, 7, 100
1, 6, Control_c, 12, 7, 100
1, 6, Control_c, 13, 7, 100
1, 6, Control_c, 14, 7, 100
1, 6, Control_c, 15, 7, 100
1, 117, Control_c, 0, 64, 15
1, 229, Control_c, 0, 64, 31
1, 341, Control_c, 0, 64, 46
1, 452, Control_c, 0, 64, 63
1, 564, Control_c, 0, 64, 77
1, 676, Control_c, 0, 64, 94
1, 787, Control_c, 0, 64, 108
1, 899, Control_c, 0, 64, 127
1, 1129, Note_on_c, 0, 69, 90
1, 1132, Note_on_c, 0, 57, 84
1, 1145, Note_off_c, 0, 69, 75
1, 1150, Note_off_c, 0, 57, 71
1, 1194, Note_on_c, 0, 69, 105
1, 1197, Note_on_c, 0, 57, 93
1, 1772, Note_off_c, 0, 69, 46
1, 1877, Note_off_c, 0, 57, 49
1, 2393, Note_on_c, 0, 63, 85
1, 2399, Note_on_c, 0, 51, 73
1, 2413, Note_off_c, 0, 63, 71
1, 2434, Note_off_c, 0, 51, 66
1, 2470, Note_on_c, 0, 63, 99
1, 2473, Note_on_c, 0, 51, 100
1, 2518, Note_off_c, 0, 63, 63
1, 2525, Note_off_c, 0, 51, 64
1, 3690, Note_on_c, 0, 57, 94
1, 3692, Note_on_c, 0, 45, 88
1, 3710, Note_off_c, 0, 57, 71
1, 3718, Note_off_c, 0, 45, 67
1, 3761, Note_on_c, 0, 45, 89
1, 3763, Note_on_c, 0, 57, 94
1, 3798, Note_off_c, 0, 57, 65
1, 3802, Note_off_c, 0, 45, 66
1, 4183, Note_on_c, 0, 51, 93
1, 4190, Note_on_c, 0, 39, 76
1, 4204, Note_off_c, 0, 51, 72
1, 4213, Note_off_c, 0, 39, 62
1, 4254, Note_on_c, 0, 51, 97
1, 4261, Note_on_c, 0, 39, 94
1, 4304, Note_off_c, 0, 51, 65
1, 4305, Note_off_c, 0, 39, 60
1, 4848, Note_on_c, 0, 45, 92
1, 4850, Note_on_c, 0, 33, 87
1, 4869, Note_off_c, 0, 45, 72
1, 4878, Note_off_c, 0, 33, 62
1, 4927, Note_on_c, 0, 45, 92
1, 4933, Note_on_c, 0, 33, 86
1, 4977, Note_off_c, 0, 33, 59
1, 4980, Note_off_c, 0, 45, 64
1, 5718, Note_on_c, 0, 39, 99
1, 5722, Note_on_c, 0, 27, 90
1, 5770, Note_off_c, 0, 39, 60
1, 5782, Note_off_c, 0, 27, 60
1, 5833, Note_on_c, 0, 39, 95
1, 5836, Note_on_c, 0, 27, 86
1, 5915, Control_c, 0, 64, 117
1, 5930, Control_c, 0, 64, 100
1, 5944, Control_c, 0, 64, 87
1, 5959, Control_c, 0, 64, 74
1, 5974, Control_c, 0, 64, 57
1, 5989, Control_c, 0, 64, 0
1, 7144, Note_on_c, 0, 54, 84
1, 7154, Note_on_c, 0, 48, 73
1, 7164, Note_on_c, 0, 45, 67
1, 7761, Control_c, 0, 64, 67
1, 7776, Control_c, 0, 64, 76
1, 7791, Control_c, 0, 64, 85
1, 7806, Control_c, 0, 64, 95
1, 7821, Control_c, 0, 64, 109
1, 7836, Control_c, 0, 64, 127
1, 7888, Note_off_c, 0, 48, 56
1, 7936, Note_off_c, 0, 45, 35
1, 8005, Note_off_c, 0, 54, 60
1, 8283, Note_on_c, 0, 49, 85
1, 8283, Note_on_c, 0, 55, 90
1, 8284, Note_on_c, 0, 46, 84
1, 8339, Control_c, 0, 64, 101
1, 8354, Control_c, 0, 64, 89
1, 8369, Control_c, 0, 64, 77
1, 8384, Control_c, 0, 64, 66
1, 8399, Control_c, 0, 64, 0
1, 8807, Control_c, 0, 64, 46
1, 8822, Control_c, 0, 64, 63
1, 8836, Control_c, 0, 64, 67
1, 8851, Control_c, 0, 64, 71
1, 8866, Control_c, 0, 64, 76
1, 8881, Control_c, 0, 64, 84
1, 8895, Control_c, 0, 64, 94
1, 8910, Control_c, 0, 64, 107
1, 8925, Control_c, 0, 64, 127
1, 9000, Note_off_c, 0, 49, 54
1, 9040, Note_off_c, 0, 55, 54
1, 9057, Note_off_c, 0, 46, 30
1, 9371, Note_on_c, 0, 56, 98
1, 9378, Note_on_c, 0, 47, 87
1, 9383, Note_on_c, 0, 51, 82
1, 9422, Control_c, 0, 64, 110
1, 9438, Control_c, 0, 64, 91
1, 9453, Control_c, 0, 64, 75
1, 9467, Control_c, 0, 64, 61
1, 9482, Control_c, 0, 64, 0
1, 9934, Control_c, 0, 64, 27
1, 9949, Control_c, 0, 64, 60
1, 9964, Control_c, 0, 64, 68
1, 9979, Control_c, 0, 64, 74
1, 9993, Control_c, 0, 64, 84
1, 10008, Control_c, 0, 64, 95
1, 10015, Note_off_c, 0, 47, 38
1, 10023, Control_c, 0, 64, 107
1, 10037, Control_c, 0, 64, 127
1, 10117, Note_off_c, 0, 51, 37
1, 10334, Note_off_c, 0, 56, 37
1, 10636, Note_on_c, 0, 51, 96
1, 10638, Note_on_c, 0, 56, 84
1, 10640, Note_on_c, 0, 63, 91
1, 10644, Note_on_c, 0, 58, 79
1, 10682, Control_c, 0, 64, 98
1, 10697, Control_c, 0, 64, 79
1, 10712, Control_c, 0, 64, 64
1, 10727, Control_c, 0, 64, 0
1, 10802, Control_c, 0, 64, 32
1, 10816, Control_c, 0, 64, 56
1, 10831, Control_c, 0, 64, 63
1, 10846, Control_c, 0, 64, 66
1, 10860, Control_c, 0, 64, 68
1, 10875, Control_c, 0, 64, 71
1, 10890, Control_c, 0, 64, 74
1, 10905, Control_c, 0, 64, 77
1, 10920, Control_c, 0, 64, 80
1, 10934, Control_c, 0, 64, 84
1, 10949, Control_c, 0, 64, 87
1, 10964, Control_c, 0, 64, 90
1, 10979, Control_c, 0, 64, 94
1, 10994, Control_c, 0, 64, 97
1, 11008, Control_c, 0, 64, 100
1, 11023, Control_c, 0, 64, 103
1, 11039, Control_c, 0, 64, 105
1, 11054, Control_c, 0, 64, 107
1, 11069, Control_c, 0, 64, 110
1, 11083, Control_c, 0, 64, 111
1, 11098, Control_c, 0, 64, 112
1, 11113, Control_c, 0, 64, 113
1, 11128, Control_c, 0, 64, 114
1, 11143, Control_c, 0, 64, 115
1, 11157, Control_c, 0, 64, 116
1, 11172, Control_c, 0, 64, 117
1, 11187, Control_c, 0, 64, 118
1, 11202, Control_c, 0, 64, 119
1, 11217, Control_c, 0, 64, 119
1, 11231, Control_c, 0, 64, 120
1, 11261, Control_c, 0, 64, 121
1, 11290, Control_c, 0, 64, 122
1, 11335, Control_c, 0, 64, 123
1, 11348, Note_off_c, 0, 39, 51
1, 11350, Control_c, 0, 64, 124
1, 11358, Note_off_c, 0, 27, 50
1, 11365, Control_c, 0, 64, 126
1, 11424, Note_on_c, 0, 40, 83
1, 11431, Note_on_c, 0, 28, 76
1, 11432, Control_c, 0, 64, 124
1, 11461, Control_c, 0, 64, 119
1, 11476, Control_c, 0, 64, 112
1, 11490, Control_c, 0, 64, 103
1, 11505, Control_c, 0, 64, 94
1, 11520, Control_c, 0, 64, 83
1, 11535, Control_c, 0, 64, 71
1, 11550, Control_c, 0, 64, 51
1, 11565, Control_c, 0, 64, 0
1, 11639, Control_c, 0, 64, 40
1, 11654, Control_c, 0, 64, 53
1, 11669, Control_c, 0, 64, 60
1, 11683, Control_c, 0, 64, 64
1, 11698, Control_c, 0, 64, 66
1, 11713, Control_c, 0, 64, 68
1, 11728, Control_c, 0, 64, 70
1, 11743, Control_c, 0, 64, 72
1, 11758, Control_c, 0, 64, 74
1, 11772, Control_c, 0, 64, 77
1, 11787, Control_c, 0, 64, 79
1, 11802, Control_c, 0, 64, 81
1, 11816, Control_c, 0, 64, 82
1, 11833, Control_c, 0, 64, 84
1, 11848, Control_c, 0, 64, 85
1, 11862, Control_c, 0, 64, 86
1, 11877, Control_c, 0, 64, 87
1, 11892, Control_c, 0, 64, 87
1, 11906, Control_c, 0, 64, 88
1, 11929, Note_off_c, 0, 40, 50
1, 12127, Note_on_c, 0, 42, 75
1, 12134, Note_on_c, 0, 30, 68
1, 12168, Note_off_c, 0, 56, 58
1, 12180, Note_off_c, 0, 28, 44
1, 12200, Note_off_c, 0, 58, 38
1, 12204, Note_off_c, 0, 42, 63
1, 12288, Note_off_c, 0, 30, 36
1, 12293, Note_on_c, 0, 55, 66
1, 12300, Control_c, 0, 64, 87
1, 12301, Note_on_c, 0, 40, 66
1, 12304, Note_on_c, 0, 58, 69
1, 12308, Note_on_c, 0, 28, 60
1, 12314, Control_c, 0, 64, 85
1, 12329, Control_c, 0, 64, 83
1, 12344, Control_c, 0, 64, 80
1, 12359, Control_c, 0, 64, 77
1, 12374, Control_c, 0, 64, 72
1, 12388, Control_c, 0, 64, 66
1, 12403, Control_c, 0, 64, 52
1, 12418, Control_c, 0, 64, 0
1, 12700, Control_c, 0, 64, 30
1, 12715, Control_c, 0, 64, 42
1, 12730, Control_c, 0, 64, 50
1, 12745, Control_c, 0, 64, 56
1, 12760, Control_c, 0, 64, 59
1, 12775, Control_c, 0, 64, 62
1, 12790, Control_c, 0, 64, 63
1, 12804, Control_c, 0, 64, 64
1, 12819, Control_c, 0, 64, 65
1, 12834, Control_c, 0, 64, 66
1, 12849, Control_c, 0, 64, 67
1, 12863, Control_c, 0, 64, 68
1, 12878, Control_c, 0, 64, 69
1, 12893, Control_c, 0, 64, 70
1, 12915, Control_c, 0, 64, 73
1, 12930, Control_c, 0, 64, 75
1, 12945, Control_c, 0, 64, 76
1, 12960, Control_c, 0, 64, 77
1, 12975, Control_c, 0, 64, 78
1, 12989, Control_c, 0, 64, 79
1, 13181, Control_c, 0, 64, 78
1, 13213, Note_off_c, 0, 40, 34
1, 13314, Control_c, 0, 64, 78
1, 13344, Control_c, 0, 64, 77
1, 13374, Control_c, 0, 64, 77
1, 13375, Note_on_c, 0, 39, 51
1, 13377, Note_on_c, 0, 27, 56
1, 13389, Control_c, 0, 64, 76
1, 13403, Control_c, 0, 64, 76
1, 13418, Control_c, 0, 64, 75
1, 13434, Control_c, 0, 64, 74
1, 13449, Control_c, 0, 64, 73
1, 13458, Note_off_c, 0, 28, 51
1, 13463, Control_c, 0, 64, 71
1, 13478, Control_c, 0, 64, 68
1, 13493, Control_c, 0, 64, 65
1, 13508, Control_c, 0, 64, 59
1, 13523, Control_c, 0, 64, 35
1, 13538, Control_c, 0, 64, 0
1, 13796, Control_c, 0, 64, 47
1, 13811, Control_c, 0, 64, 61
1, 13826, Control_c, 0, 64, 66
1, 13840, Control_c, 0, 64, 70
1, 13855, Control_c, 0, 64, 74
1, 13870, Control_c, 0, 64, 79
1, 13884, Control_c, 0, 64, 83
1, 13899, Control_c, 0, 64, 86
1, 13914, Control_c, 0, 64, 89
1, 13929, Control_c, 0, 64, 91
1, 13944, Control_c, 0, 64, 92
1, 13958, Control_c, 0, 64, 93
1, 14003, Control_c, 0, 64, 94
1, 14038, Note_off_c, 0, 27, 35
1, 14039, Note_off_c, 0, 63, 29
1, 14108, Note_off_c, 0, 51, 48
1, 14333, Note_on_c, 0, 63, 74
1, 14345, Note_on_c, 0, 51, 64
1, 14456, Control_c, 0, 64, 93
1, 14495, Note_on_c, 0, 32, 65
1, 14501, Note_off_c, 0, 39, 22
1, 14685, Note_off_c, 0, 55, 56
1, 14722, Control_c, 0, 64, 93
1, 14735, Note_on_c, 0, 39, 53
1, 14811, Control_c, 0, 64, 92
1, 14817, Note_off_c, 0, 51, 56
1, 14825, Note_on_c, 0, 44, 60
1, 14870, Control_c, 0, 64, 92
1, 14888, Note_off_c, 0, 58, 36
1, 14934, Note_on_c, 0, 51, 63
1, 14960, Control_c, 0, 64, 91
1, 14964, Note_off_c, 0, 63, 38
1, 14980, Note_on_c, 0, 56, 68
1, 14989, Control_c, 0, 64, 91
1, 15019, Control_c, 0, 64, 90
1, 15034, Control_c, 0, 64, 90
1, 15049, Control_c, 0, 64, 89
1, 15058, Note_on_c, 0, 60, 65
1, 15064, Control_c, 0, 64, 89
1, 15079, Control_c, 0, 64, 88
1, 15094, Control_c, 0, 64, 87
1, 15109, Control_c, 0, 64, 86
1, 15123, Control_c, 0, 64, 84
1, 15134, Note_on_c, 0, 63, 72
1, 15138, Control_c, 0, 64, 83
1, 15160, Control_c, 0, 64, 81
1, 15175, Control_c, 0, 64, 79
1, 15190, Control_c, 0, 64, 76
1, 15204, Control_c, 0, 64, 73
1, 15219, Control_c, 0, 64, 68
1, 15234, Control_c, 0, 64, 63
1, 15249, Control_c, 0, 64, 38
1, 15264, Control_c, 0, 64, 0
1, 15663, Control_c, 0, 64, 14
1, 15678, Control_c, 0, 64, 42
1, 15693, Control_c, 0, 64, 52
1, 15708, Control_c, 0, 64, 59
1, 15723, Control_c, 0, 64, 62
1, 15738, Control_c, 0, 64, 64
1, 15753, Control_c, 0, 64, 66
1, 15768, Control_c, 0, 64, 67
1, 15783, Control_c, 0, 64, 68
1, 15797, Control_c, 0, 64, 70
1, 15812, Control_c, 0, 64, 71
1, 15827, Control_c, 0, 64, 73
1, 15842, Control_c, 0, 64, 76
1, 15857, Control_c, 0, 64, 79
1, 15872, Control_c, 0, 64, 81
1, 15887, Control_c, 0, 64, 83
1, 15909, Control_c, 0, 64, 85
1, 15924, Control_c, 0, 64, 87
1, 15939, Control_c, 0, 64, 89
1, 15953, Control_c, 0, 64, 91
1, 15968, Control_c, 0, 64, 93
1, 15983, Control_c, 0, 64, 95
1, 15998, Control_c, 0, 64, 96
1, 16013, Control_c, 0, 64, 97
1, 16027, Control_c, 0, 64, 98
1, 16042, Control_c, 0, 64, 99
1, 16057, Control_c, 0, 64, 100
1, 16087, Control_c, 0, 64, 100
1, 16131, Control_c, 0, 64, 101
1, 16334, Note_off_c, 0, 51, 53
1, 16555, Note_off_c, 0, 63, 49
1, 16599, Note_off_c, 0, 56, 40
1, 16659, Note_off_c, 0, 32, 32
1, 16698, Note_off_c, 0, 44, 57
1, 16763, Note_off_c, 0, 60, 18
1, 16812, Note_off_c, 0, 39, 57
1, 16999, Control_c, 0, 64, 100
1, 17073, Control_c, 0, 64, 100
1, 17540, Control_c, 0, 64, 99
1, 17555, Control_c, 0, 64, 91
1, 17570, Control_c, 0, 64, 76
1, 17585, Control_c, 0, 64, 0
1, 17878, Note_on_c, 0, 72, 95
1, 17882, Note_on_c, 0, 60, 90
1, 17894, Note_off_c, 0, 72, 73
1, 17900, Note_off_c, 0, 60, 73
1, 17945, Note_on_c, 0, 72, 99
1, 17951, Note_on_c, 0, 60, 95
1, 18103, Control_c, 0, 64, 38
1, 18117, Control_c, 0, 64, 62
1, 18132, Control_c, 0, 64, 69
1, 18155, Control_c, 0, 64, 78
1, 18170, Control_c, 0, 64, 92
1, 18184, Control_c, 0, 64, 115
1, 18199, Control_c, 0, 64, 127
1, 18396, Note_off_c, 0, 72, 41
1, 18554, Note_off_c, 0, 60, 55
1, 19030, Note_on_c, 0, 66, 90
1, 19034, Note_on_c, 0, 54, 80
1, 19046, Note_off_c, 0, 66, 73
1, 19056, Note_off_c, 0, 54, 68
1, 19098, Note_on_c, 0, 54, 95
1, 19098, Note_on_c, 0, 66, 104
1, 19141, Note_off_c, 0, 66, 64
1, 19148, Note_off_c, 0, 54, 64
1, 20286, Note_on_c, 0, 48, 83
1, 20287, Note_on_c, 0, 60, 79
1, 20308, Note_off_c, 0, 48, 67
1, 20309, Note_off_c, 0, 60, 70
1, 20358, Note_on_c, 0, 48, 80
1, 20360, Note_on_c, 0, 60, 81
1, 20409, Note_off_c, 0, 60, 63
1, 20412, Note_off_c, 0, 48, 62
1, 20739, Note_on_c, 0, 54, 84
1, 20744, Note_on_c, 0, 42, 73
1, 20761, Note_off_c, 0, 54, 68
1, 20767, Note_off_c, 0, 42, 63
1, 20808, Note_on_c, 0, 54, 86
1, 20816, Note_on_c, 0, 42, 91
1, 20856, Note_off_c, 0, 54, 65
1, 20872, Note_off_c, 0, 42, 62
1, 21285, Note_on_c, 0, 48, 95
1, 21288, Note_on_c, 0, 36, 88
1, 21306, Note_off_c, 0, 48, 70
1, 21315, Note_off_c, 0, 36, 64
1, 21360, Note_on_c, 0, 48, 93
1, 21366, Note_on_c, 0, 36, 90
1, 21417, Note_off_c, 0, 48, 62
1, 21423, Note_off_c, 0, 36, 60
1, 22154, Note_on_c, 0, 42, 100
1, 22157, Note_on_c, 0, 30, 93
1, 22198, Note_off_c, 0, 42, 64
1, 22207, Note_off_c, 0, 30, 61
1, 22263, Note_on_c, 0, 42, 102
1, 22266, Note_on_c, 0, 30, 89
1, 22330, Control_c, 0, 64, 111
1, 22345, Control_c, 0, 64, 81
1, 22360, Control_c, 0, 64, 46
1, 22375, Control_c, 0, 64, 0
1, 23771, Note_on_c, 0, 57, 90
1, 23774, Note_on_c, 0, 51, 82
1, 23782, Note_on_c, 0, 48, 77
1, 24397, Control_c, 0, 64, 63
1, 24412, Control_c, 0, 64, 78
1, 24427, Control_c, 0, 64, 96
1, 24442, Control_c, 0, 64, 127
1, 24570, Note_off_c, 0, 51, 39
1, 24594, Note_off_c, 0, 57, 52
1, 24799, Note_off_c, 0, 48, 40
1, 24946, Note_on_c, 0, 58, 95
1, 24950, Note_on_c, 0, 49, 92
1, 24952, Note_on_c, 0, 52, 84
1, 25014, Control_c, 0, 64, 108
1, 25029, Control_c, 0, 64, 90
1, 25043, Control_c, 0, 64, 76
1, 25058, Control_c, 0, 64, 62
1, 25073, Control_c, 0, 64, 0
1, 25593, Control_c, 0, 64, 67
1, 25607, Control_c, 0, 64, 74
1, 25622, Control_c, 0, 64, 83
1, 25644, Control_c, 0, 64, 97
1, 25659, Control_c, 0, 64, 127
1, 25686, Note_off_c, 0, 52, 58
1, 25748, Note_off_c, 0, 49, 50
1, 25801, Note_off_c, 0, 58, 47
1, 26079, Note_on_c, 0, 54, 89
1, 26080, Note_on_c, 0, 59, 93
1, 26082, Note_on_c, 0, 50, 90
1, 26132, Control_c, 0, 64, 114
1, 26147, Control_c, 0, 64, 92
1, 26162, Control_c, 0, 64, 75
1, 26177, Control_c, 0, 64, 54
1, 26192, Control_c, 0, 64, 0
1, 26673, Control_c, 0, 64, 45
1, 26687, Control_c, 0, 64, 63
1, 26702, Control_c, 0, 64, 70
1, 26717, Control_c, 0, 64, 78
1, 26732, Control_c, 0, 64, 91
1, 26734, Note_off_c, 0, 50, 40
1, 26746, Control_c, 0, 64, 110
1, 26761, Control_c, 0, 64, 127
1, 26792, Note_off_c, 0, 59, 43
1, 26835, Note_off_c, 0, 54, 53
1, 27339, Note_on_c, 0, 54, 104
1, 27343, Note_on_c, 0, 66, 91
1, 27345, Note_on_c, 0, 59, 81
1, 27351, Note_on_c, 0, 61, 78
1, 27378, Control_c, 0, 64, 103
1, 27392, Control_c, 0, 64, 82
1, 27407, Control_c, 0, 64, 64
1, 27422, Control_c, 0, 64, 0
1, 27510, Control_c, 0, 64, 30
1, 27525, Control_c, 0, 64, 54
1, 27540, Control_c, 0, 64, 63
1, 27554, Control_c, 0, 64, 66
1, 27569, Control_c, 0, 64, 69
1, 27584, Control_c, 0, 64, 72
1, 27599, Control_c, 0, 64, 76
1, 27614, Control_c, 0, 64, 81
1, 27629, Control_c, 0, 64, 88
1, 27644, Control_c, 0, 64, 95
1, 27659, Control_c, 0, 64, 101
1, 27673, Control_c, 0, 64, 107
1, 27688, Control_c, 0, 64, 114
1, 27703, Control_c, 0, 64, 127
1, 27970, Note_off_c, 0, 42, 42
1, 28054, Note_off_c, 0, 30, 33
1, 28133, Note_on_c, 0, 43, 88
1, 28141, Note_on_c, 0, 31, 81
1, 28201, Control_c, 0, 64, 112
1, 28216, Control_c, 0, 64, 95
1, 28231, Control_c, 0, 64, 79
1, 28246, Control_c, 0, 64, 65
1, 28260, Control_c, 0, 64, 0
1, 28334, Control_c, 0, 64, 11
1, 28349, Control_c, 0, 64, 49
1, 28364, Control_c, 0, 64, 60
1, 28378, Control_c, 0, 64, 64
1, 28393, Control_c, 0, 64, 67
1, 28408, Control_c, 0, 64, 69
1, 28423, Control_c, 0, 64, 71
1, 28438, Control_c, 0, 64, 73
1, 28452, Control_c, 0, 64, 76
1, 28467, Control_c, 0, 64, 79
1, 28482, Control_c, 0, 64, 82
1, 28497, Control_c, 0, 64, 85
1, 28512, Control_c, 0, 64, 88
1, 28527, Control_c, 0, 64, 91
1, 28541, Control_c, 0, 64, 93
1, 28556, Control_c, 0, 64, 96
1, 28571, Control_c, 0, 64, 99
1, 28586, Control_c, 0, 64, 101
1, 28601, Control_c, 0, 64, 102
1, 28654, Control_c, 0, 64, 102
1, 28664, Note_off_c, 0, 43, 46
1, 28698, Control_c, 0, 64, 103
1, 28741, Note_off_c, 0, 31, 32
1, 28847, Note_on_c, 0, 45, 80
1, 28853, Note_on_c, 0, 33, 71
1, 28902, Note_off_c, 0, 59, 56
1, 28927, Note_off_c, 0, 45, 60
1, 28928, Note_off_c, 0, 61, 57
1, 28944, Note_off_c, 0, 33, 58
1, 28979, Control_c, 0, 64, 102
1, 28994, Control_c, 0, 64, 102
1, 29004, Note_on_c, 0, 58, 70
1, 29009, Control_c, 0, 64, 100
1, 29010, Note_on_c, 0, 61, 62
1, 29022, Note_on_c, 0, 43, 67
1, 29024, Control_c, 0, 64, 97
1, 29028, Note_on_c, 0, 31, 62
1, 29039, Control_c, 0, 64, 93
1, 29054, Control_c, 0, 64, 88
1, 29069, Control_c, 0, 64, 83
1, 29083, Control_c, 0, 64, 75
1, 29098, Control_c, 0, 64, 68
1, 29113, Control_c, 0, 64, 53
1, 29127, Control_c, 0, 64, 0
1, 29432, Control_c, 0, 64, 38
1, 29447, Control_c, 0, 64, 51
1, 29461, Control_c, 0, 64, 58
1, 29476, Control_c, 0, 64, 62
1, 29491, Control_c, 0, 64, 64
1, 29505, Control_c, 0, 64, 65
1, 29520, Control_c, 0, 64, 66
1, 29535, Control_c, 0, 64, 68
1, 29550, Control_c, 0, 64, 69
1, 29565, Control_c, 0, 64, 71
1, 29579, Control_c, 0, 64, 73
1, 29594, Control_c, 0, 64, 76
1, 29609, Control_c, 0, 64, 78
1, 29624, Control_c, 0, 64, 79
1, 29638, Control_c, 0, 64, 81
1, 29653, Control_c, 0, 64, 83
1, 29668, Control_c, 0, 64, 85
1, 29683, Control_c, 0, 64, 86
1, 29698, Control_c, 0, 64, 87
1, 29712, Control_c, 0, 64, 87
1, 29909, Note_off_c, 0, 43, 38
1, 30068, Control_c, 0, 64, 87
1, 30112, Control_c, 0, 64, 86
1, 30135, Control_c, 0, 64, 86
1, 30160, Note_on_c, 0, 42, 55
1, 30164, Control_c, 0, 64, 85
1, 30167, Note_on_c, 0, 30, 57
1, 30179, Control_c, 0, 64, 85
1, 30194, Control_c, 0, 64, 84
1, 30210, Control_c, 0, 64, 83
1, 30225, Control_c, 0, 64, 81
1, 30240, Control_c, 0, 64, 80
1, 30254, Control_c, 0, 64, 79
1, 30259, Note_off_c, 0, 31, 41
1, 30269, Control_c, 0, 64, 77
1, 30284, Control_c, 0, 64, 74
1, 30299, Control_c, 0, 64, 71
1, 30314, Control_c, 0, 64, 68
1, 30328, Control_c, 0, 64, 61
1, 30343, Control_c, 0, 64, 33
1, 30358, Control_c, 0, 64, 0
1, 30550, Control_c, 0, 64, 34
1, 30565, Control_c, 0, 64, 58
1, 30580, Control_c, 0, 64, 64
1, 30595, Control_c, 0, 64, 67
1, 30610, Control_c, 0, 64, 70
1, 30625, Control_c, 0, 64, 73
1, 30639, Control_c, 0, 64, 77
1, 30654, Control_c, 0, 64, 81
1, 30669, Control_c, 0, 64, 86
1, 30684, Control_c, 0, 64, 91
1, 30699, Control_c, 0, 64, 96
1, 30714, Control_c, 0, 64, 101
1, 30728, Control_c, 0, 64, 105
1, 30743, Control_c, 0, 64, 110
1, 30758, Control_c, 0, 64, 115
1, 30772, Control_c, 0, 64, 127
1, 30782, Note_off_c, 0, 66, 19
1, 30800, Note_off_c, 0, 30, 38
1, 30921, Note_off_c, 0, 54, 52
1, 31096, Note_on_c, 0, 66, 69
1, 31107, Note_on_c, 0, 54, 58
1, 31265, Note_off_c, 0, 42, 42
1, 31316, Note_on_c, 0, 35, 60
1, 31525, Note_off_c, 0, 58, 34
1, 31568, Note_on_c, 0, 42, 56
1, 31592, Note_off_c, 0, 54, 52
1, 31674, Note_on_c, 0, 47, 61
1, 31710, Note_off_c, 0, 61, 52
1, 31741, Note_off_c, 0, 66, 35
1, 31742, Note_on_c, 0, 54, 55
1, 31812, Note_on_c, 0, 59, 62
1, 31880, Note_on_c, 0, 63, 66
1, 31900, Control_c, 0, 64, 123
1, 31915, Control_c, 0, 64, 117
1, 31930, Control_c, 0, 64, 113
1, 31945, Control_c, 0, 64, 109
1, 31960, Control_c, 0, 64, 106
1, 31962, Note_on_c, 0, 66, 72
1, 31975, Control_c, 0, 64, 101
1, 31990, Control_c, 0, 64, 97
1, 32005, Control_c, 0, 64, 92
1, 32020, Control_c, 0, 64, 88
1, 32034, Control_c, 0, 64, 81
1, 32049, Control_c, 0, 64, 74
1, 32064, Control_c, 0, 64, 66
1, 32079, Control_c, 0, 64, 31
1, 32094, Control_c, 0, 64, 0
1, 32605, Control_c, 0, 64, 19
1, 32620, Control_c, 0, 64, 36
1, 32635, Control_c, 0, 64, 47
1, 32649, Control_c, 0, 64, 55
1, 32664, Control_c, 0, 64, 60
1, 32679, Control_c, 0, 64, 62
1, 32694, Control_c, 0, 64, 64
1, 32709, Control_c, 0, 64, 65
1, 32723, Control_c, 0, 64, 66
1, 32738, Control_c, 0, 64, 67
1, 32753, Control_c, 0, 64, 69
1, 32768, Control_c, 0, 64, 71
1, 32783, Control_c, 0, 64, 72
1, 32798, Control_c, 0, 64, 75
1, 32813, Control_c, 0, 64, 77
1, 32827, Control_c, 0, 64, 79
1, 32842, Control_c, 0, 64, 81
1, 32857, Control_c, 0, 64, 83
1, 32872, Control_c, 0, 64, 85
1, 32887, Control_c, 0, 64, 88
1, 32902, Control_c, 0, 64, 90
1, 32917, Control_c, 0, 64, 93
1, 32931, Control_c, 0, 64, 95
1, 32946, Control_c, 0, 64, 97
1, 32961, Control_c, 0, 64, 99
1, 32975, Control_c, 0, 64, 101
1, 32990, Control_c, 0, 64, 103
1, 33005, Control_c, 0, 64, 105
1, 33020, Control_c, 0, 64, 106
1, 33035, Control_c, 0, 64, 108
1, 33049, Control_c, 0, 64, 109
1, 33064, Control_c, 0, 64, 111
1, 33079, Control_c, 0, 64, 114
1, 33094, Control_c, 0, 64, 116
1, 33109, Control_c, 0, 64, 118
1, 33131, Control_c, 0, 64, 119
1, 33146, Control_c, 0, 64, 122
1, 33161, Control_c, 0, 64, 126
1, 33176, Control_c, 0, 64, 127
1, 33378, Note_off_c, 0, 54, 60
1, 33461, Note_off_c, 0, 66, 58
1, 33480, Note_off_c, 0, 59, 35
1, 33514, Note_off_c, 0, 63, 37
1, 33617, Note_off_c, 0, 35, 37
1, 33650, Note_off_c, 0, 42, 59
1, 33664, Note_off_c, 0, 47, 63
1, 33997, Control_c, 0, 64, 124
1, 34012, Control_c, 0, 64, 123
1, 34027, Control_c, 0, 64, 122
1, 34042, Control_c, 0, 64, 121
1, 34057, Control_c, 0, 64, 120
1, 34071, Control_c, 0, 64, 119
1, 34086, Control_c, 0, 64, 118
1, 34116, Control_c, 0, 64, 118
1, 34130, Control_c, 0, 64, 117
1, 34145, Control_c, 0, 64, 117
1, 34160, Control_c, 0, 64, 116
1, 34175, Control_c, 0, 64, 115
1, 34190, Control_c, 0, 64, 115
1, 34206, Control_c, 0, 64, 114
1, 34220, Control_c, 0, 64, 114
1, 34235, Control_c, 0, 64, 113
1, 34265, Control_c, 0, 64, 112
1, 34295, Control_c, 0, 64, 111
1, 34309, Control_c, 0, 64, 110
1, 34324, Control_c, 0, 64, 110
1, 34339, Control_c, 0, 64, 109
1, 34369, Control_c, 0, 64, 109
1, 34383, Control_c, 0, 64, 108
1, 34398, Control_c, 0, 64, 108
1, 34413, Control_c, 0, 64, 107
1, 34458, Control_c, 0, 64, 107
1, 34473, Control_c, 0, 64, 106
1, 34488, Control_c, 0, 64, 105
1, 34502, Control_c, 0, 64, 103
1, 34517, Control_c, 0, 64, 100
1, 34532, Control_c, 0, 64, 95
1, 34546, Control_c, 0, 64, 88
1, 34561, Control_c, 0, 64, 79
1, 34576, Control_c, 0, 64, 69
1, 34591, Control_c, 0, 64, 37
1, 34606, Control_c, 0, 64, 0
1, 35026, Note_on_c, 0, 75, 75
1, 35028, Note_on_c, 0, 87, 75
1, 35031, Note_on_c, 0, 63, 52
1, 35047, Note_off_c, 0, 75, 70
1, 35051, Note_off_c, 0, 87, 67
1, 35057, Note_off_c, 0, 63, 58
1, 35074, Control_c, 0, 64, 68
1, 35089, Note_on_c, 0, 87, 102
1, 35089, Control_c, 0, 64, 90
1, 35090, Note_on_c, 0, 63, 76
1, 35090, Note_on_c, 0, 75, 89
1, 35104, Control_c, 0, 64, 127
1, 35111, Note_off_c, 0, 63, 70
1, 35134, Note_off_c, 0, 87, 67
1, 35135, Note_off_c, 0, 75, 63
1, 35537, Note_on_c, 0, 57, 69
1, 35537, Note_on_c, 0, 81, 81
1, 35541, Note_on_c, 0, 69, 71
1, 35558, Note_off_c, 0, 81, 66
1, 35561, Note_off_c, 0, 57, 66
1, 35565, Note_off_c, 0, 69, 67
1, 35606, Note_on_c, 0, 57, 92
1, 35612, Note_on_c, 0, 81, 89
1, 35615, Note_on_c, 0, 69, 87
1, 35628, Note_off_c, 0, 57, 67
1, 35724, Note_off_c, 0, 69, 58
1, 35752, Note_off_c, 0, 81, 64
1, 36026, Note_on_c, 0, 69, 71
1, 36029, Note_on_c, 0, 93, 81
1, 36030, Note_on_c, 0, 81, 75
1, 36049, Note_off_c, 0, 93, 71
1, 36051, Note_off_c, 0, 69, 68
1, 36051, Note_off_c, 0, 81, 69
1, 36093, Note_on_c, 0, 93, 82
1, 36097, Note_on_c, 0, 81, 83
1, 36102, Note_on_c, 0, 69, 69
1, 36133, Note_off_c, 0, 69, 68
1, 36144, Note_off_c, 0, 93, 65
1, 36149, Note_off_c, 0, 81, 62
1, 36285, Note_on_c, 0, 63, 81
1, 36291, Note_on_c, 0, 75, 81
1, 36293, Note_on_c, 0, 87, 78
1, 36306, Note_off_c, 0, 63, 70
1, 36310, Note_off_c, 0, 75, 72
1, 36315, Note_off_c, 0, 87, 71
1, 36349, Note_on_c, 0, 63, 90
1, 36351, Note_on_c, 0, 75, 90
1, 36352, Note_on_c, 0, 87, 84
1, 36366, Note_off_c, 0, 63, 74
1, 36370, Note_off_c, 0, 87, 73
1, 36385, Note_off_c, 0, 75, 66
1, 36437, Control_c, 0, 64, 82
1, 36452, Control_c, 0, 64, 0
1, 36829, Note_on_c, 0, 54, 81
1, 36831, Note_on_c, 0, 63, 81
1, 36834, Note_on_c, 0, 57, 69
1, 36835, Note_on_c, 0, 47, 89
1, 36838, Note_on_c, 0, 35, 86
1, 36857, Note_off_c, 0, 54, 66
1, 36859, Note_off_c, 0, 47, 70
1, 36859, Note_off_c, 0, 57, 64
1, 36873, Note_off_c, 0, 35, 67
1, 36890, Note_off_c, 0, 63, 60
1, 37094, Note_on_c, 0, 46, 98
1, 37096, Note_on_c, 0, 34, 92
1, 37097, Note_on_c, 0, 54, 93
1, 37099, Note_on_c, 0, 66, 81
1, 37099, Note_on_c, 0, 63, 79
1, 37102, Note_on_c, 0, 58, 78
1, 37117, Note_off_c, 0, 46, 67
1, 37121, Note_off_c, 0, 34, 68
1, 37126, Note_off_c, 0, 54, 67
1, 37127, Control_c, 0, 64, 127
1, 37135, Note_off_c, 0, 58, 61
1, 37149, Note_off_c, 0, 63, 59
1, 37151, Note_off_c, 0, 66, 62
1, 37201, Control_c, 0, 64, 90
1, 37216, Control_c, 0, 64, 58
1, 37230, Control_c, 0, 64, 0
1, 38184, Note_on_c, 0, 63, 66
1, 38188, Note_on_c, 0, 87, 81
1, 38195, Note_on_c, 0, 75, 67
1, 38202, Control_c, 0, 64, 63
1, 38206, Note_off_c, 0, 63, 63
1, 38209, Note_off_c, 0, 87, 68
1, 38212, Note_off_c, 0, 75, 66
1, 38217, Control_c, 0, 64, 75
1, 38232, Control_c, 0, 64, 92
1, 38243, Note_on_c, 0, 87, 87
1, 38244, Note_on_c, 0, 75, 84
1, 38247, Control_c, 0, 64, 127
1, 38250, Note_on_c, 0, 63, 68
1, 38277, Note_off_c, 0, 63, 65
1, 38281, Note_off_c, 0, 87, 65
1, 38282, Note_off_c, 0, 75, 61
1, 38673, Note_on_c, 0, 58, 66
1, 38678, Note_on_c, 0, 82, 78
1, 38686, Note_on_c, 0, 70, 71
1, 38699, Note_off_c, 0, 82, 70
1, 38700, Note_off_c, 0, 58, 66
1, 38711, Note_off_c, 0, 70, 68
1, 38746, Note_on_c, 0, 58, 80
1, 38748, Note_on_c, 0, 82, 92
1, 38758, Note_on_c, 0, 70, 88
1, 38764, Note_off_c, 0, 58, 72
1, 38873, Note_off_c, 0, 70, 61
1, 38919, Note_off_c, 0, 82, 64
1, 39147, Note_on_c, 0, 70, 73
1, 39151, Note_on_c, 0, 94, 78
1, 39159, Note_on_c, 0, 82, 73
1, 39170, Note_off_c, 0, 70, 71
1, 39170, Note_off_c, 0, 94, 72
1, 39174, Note_off_c, 0, 82, 68
1, 39216, Note_on_c, 0, 94, 93
1, 39217, Note_on_c, 0, 82, 95
1, 39221, Note_on_c, 0, 70, 84
1, 39252, Note_off_c, 0, 94, 67
1, 39261, Note_off_c, 0, 82, 61
1, 39267, Note_off_c, 0, 70, 59
1, 39394, Note_on_c, 0, 63, 72
1, 39400, Note_on_c, 0, 75, 79
1, 39403, Note_on_c, 0, 87, 70
1, 39418, Note_off_c, 0, 75, 73
1, 39419, Note_off_c, 0, 63, 68
1, 39421, Note_off_c, 0, 87, 68
1, 39462, Note_on_c, 0, 75, 88
1, 39464, Note_on_c, 0, 87, 84
1, 39468, Note_on_c, 0, 63, 72
1, 39482, Note_off_c, 0, 87, 73
1, 39489, Note_off_c, 0, 63, 70
1, 39500, Note_off_c, 0, 75, 64
1, 39698, Control_c, 0, 64, 100
1, 39713, Control_c, 0, 64, 68
1, 39728, Control_c, 0, 64, 0
1, 39891, Note_on_c, 0, 54, 78
1, 39892, Note_on_c, 0, 34, 89
1, 39895, Note_on_c, 0, 46, 87
1, 39899, Note_on_c, 0, 63, 71
1, 39908, Note_on_c, 0, 66, 59
1, 39912, Note_on_c, 0, 58, 47
1, 39916, Note_off_c, 0, 54, 69
1, 39922, Note_off_c, 0, 46, 66
1, 39929, Note_off_c, 0, 63, 65
1, 39934, Note_off_c, 0, 66, 65
1, 39935, Note_off_c, 0, 34, 57
1, 39940, Note_off_c, 0, 58, 57
1, 40152, Note_on_c, 0, 45, 104
1, 40155, Note_on_c, 0, 33, 95
1, 40156, Note_on_c, 0, 66, 77
1, 40157, Note_on_c, 0, 60, 89
1, 40158, Note_on_c, 0, 72, 85
1, 40161, Note_on_c, 0, 63, 75
1, 40165, Control_c, 0, 64, 35
1, 40174, Note_off_c, 0, 60, 73
1, 40180, Control_c, 0, 64, 127
1, 40181, Note_off_c, 0, 33, 68
1, 40182, Note_off_c, 0, 45, 67
1, 40184, Note_off_c, 0, 63, 69
1, 40189, Note_off_c, 0, 66, 64
1, 40200, Note_off_c, 0, 72, 64
1, 40433, Note_on_c, 0, 96, 89
1, 40438, Note_on_c, 0, 72, 72
1, 40441, Note_on_c, 0, 60, 69
1, 40443, Note_on_c, 0, 84, 65
1, 40452, Note_off_c, 0, 96, 70
1, 40454, Note_off_c, 0, 72, 69
1, 40456, Note_off_c, 0, 60, 72
1, 40459, Note_off_c, 0, 84, 67
1, 40503, Note_on_c, 0, 60, 83
1, 40503, Note_on_c, 0, 72, 87
1, 40505, Note_on_c, 0, 96, 94
1, 40508, Note_on_c, 0, 84, 93
1, 40523, Note_off_c, 0, 72, 67
1, 40537, Note_off_c, 0, 60, 65
1, 40542, Note_off_c, 0, 96, 62
1, 40545, Note_off_c, 0, 84, 60
1, 40703, Note_on_c, 0, 75, 82
1, 40703, Note_on_c, 0, 87, 83
1, 40707, Note_on_c, 0, 63, 78
1, 40716, Note_on_c, 0, 51, 62
1, 40722, Note_off_c, 0, 75, 72
1, 40724, Note_off_c, 0, 63, 68
1, 40724, Note_off_c, 0, 87, 70
1, 40742, Note_off_c, 0, 51, 62
1, 40764, Note_on_c, 0, 51, 84
1, 40767, Note_on_c, 0, 63, 93
1, 40768, Note_on_c, 0, 75, 96
1, 40775, Note_on_c, 0, 87, 89
1, 40789, Note_off_c, 0, 63, 70
1, 40792, Note_off_c, 0, 87, 73
1, 40800, Note_off_c, 0, 51, 67
1, 40807, Note_off_c, 0, 75, 64
1, 41092, Control_c, 0, 64, 115
1, 41106, Control_c, 0, 64, 97
1, 41121, Control_c, 0, 64, 82
1, 41136, Control_c, 0, 64, 64
1, 41151, Control_c, 0, 64, 0
1, 41235, Note_on_c, 0, 43, 104
1, 41236, Note_on_c, 0, 60, 105
1, 41237, Note_on_c, 0, 63, 89
1, 41240, Note_on_c, 0, 72, 89
1, 41240, Note_on_c, 0, 31, 95
1, 41240, Note_on_c, 0, 67, 84
1, 41254, Control_c, 0, 64, 70
1, 41263, Note_off_c, 0, 31, 72
1, 41266, Note_off_c, 0, 43, 69
1, 41269, Control_c, 0, 64, 127
1, 41302, Note_off_c, 0, 60, 62
1, 41326, Note_off_c, 0, 63, 64
1, 41367, Note_off_c, 0, 67, 57
1, 41376, Note_off_c, 0, 72, 62
1, 41602, Note_on_c, 0, 96, 97
1, 41603, Note_on_c, 0, 72, 80
1, 41604, Note_on_c, 0, 60, 81
1, 41606, Note_on_c, 0, 84, 85
1, 41620, Note_off_c, 0, 72, 73
1, 41620, Note_off_c, 0, 96, 70
1, 41622, Note_off_c, 0, 84, 73
1, 41627, Note_off_c, 0, 60, 68
1, 41669, Note_on_c, 0, 96, 96
1, 41669, Note_on_c, 0, 72, 89
1, 41669, Note_on_c, 0, 84, 102
1, 41670, Note_on_c, 0, 60, 86
1, 41693, Note_off_c, 0, 72, 62
1, 41699, Note_off_c, 0, 96, 70
1, 41708, Note_off_c, 0, 60, 62
1, 41710, Note_off_c, 0, 84, 66
1, 41935, Note_on_c, 0, 63, 91
1, 41937, Note_on_c, 0, 75, 91
1, 41939, Note_on_c, 0, 51, 80
1, 41942, Note_on_c, 0, 87, 81
1, 41952, Note_off_c, 0, 63, 73
1, 41954, Note_off_c, 0, 75, 71
1, 41961, Note_off_c, 0, 87, 74
1, 41967, Note_off_c, 0, 51, 65
1, 42002, Note_on_c, 0, 51, 104
1, 42003, Note_on_c, 0, 63, 106
1, 42008, Note_on_c, 0, 75, 100
1, 42009, Note_on_c, 0, 87, 96
1, 42032, Note_off_c, 0, 63, 64
1, 42043, Note_off_c, 0, 51, 65
1, 42048, Note_off_c, 0, 75, 67
1, 42074, Note_off_c, 0, 87, 69
1, 42724, Control_c, 0, 64, 112
1, 42739, Control_c, 0, 64, 86
1, 42754, Control_c, 0, 64, 68
1, 42769, Control_c, 0, 64, 0
1, 42770, Note_on_c, 0, 42, 100
1, 42772, Note_on_c, 0, 87, 106
1, 42774, Note_on_c, 0, 93, 98
1, 42775, Note_on_c, 0, 99, 104
1, 42775, Note_on_c, 0, 30, 92
1, 42776, Note_on_c, 0, 36, 87
1, 42822, Note_off_c, 0, 30, 59
1, 42823, Note_off_c, 0, 87, 63
1, 42830, Note_off_c, 0, 42, 63
1, 42833, Note_off_c, 0, 93, 65
1, 42834, Note_off_c, 0, 99, 63
1, 42840, Note_off_c, 0, 36, 61
1, 42894, Note_on_c, 0, 42, 100
1, 42894, Poly_aftertouch_c, 0, 36, 0
1, 42897, Note_on_c, 0, 87, 114
1, 42900, Note_on_c, 0, 93, 101
1, 42900, Note_on_c, 0, 99, 100
1, 42901, Note_on_c, 0, 36, 83
1, 42903, Note_on_c, 0, 30, 92
1, 42968, Control_c, 0, 64, 72
1, 42984, Control_c, 0, 64, 90
1, 42999, Control_c, 0, 64, 127
1, 43099, Note_off_c, 0, 36, 59
1, 43106, Note_off_c, 0, 30, 60
1, 43166, Note_off_c, 0, 42, 57
1, 43204, Note_off_c, 0, 99, 61
1, 43248, Note_off_c, 0, 93, 54
1, 43265, Note_off_c, 0, 87, 56
1, 43723, Note_on_c, 0, 48, 92
1, 43723, Note_on_c, 0, 81, 98
1, 43723, Note_on_c, 0, 87, 102
1, 43724, Note_on_c, 0, 42, 83
1, 43726, Note_on_c, 0, 93, 93
1, 43728, Note_on_c, 0, 36, 80
1, 43746, Note_off_c, 0, 81, 63
1, 43746, Note_off_c, 0, 48, 67
1, 43749, Note_off_c, 0, 42, 66
1, 43752, Note_off_c, 0, 36, 64
1, 43752, Note_off_c, 0, 93, 64
1, 43761, Note_off_c, 0, 87, 65
1, 43796, Note_on_c, 0, 48, 98
1, 43800, Note_on_c, 0, 42, 90
1, 43801, Note_on_c, 0, 36, 94
1, 43801, Note_on_c, 0, 81, 103
1, 43801, Note_on_c, 0, 87, 96
1, 43802, Note_on_c, 0, 93, 99
1, 43823, Note_off_c, 0, 36, 70
1, 43825, Note_off_c, 0, 48, 65
1, 43827, Note_off_c, 0, 81, 70
1, 43834, Note_off_c, 0, 42, 62
1, 43835, Note_off_c, 0, 93, 67
1, 43837, Note_on_c, 0, 92, 44
1, 43838, Note_off_c, 0, 92, 127
1, 43841, Note_off_c, 0, 87, 67
1, 44525, Note_on_c, 0, 54, 87
1, 44525, Note_on_c, 0, 75, 98
1, 44526, Note_on_c, 0, 48, 84
1, 44529, Note_on_c, 0, 42, 79
1, 44530, Note_on_c, 0, 87, 88
1, 44532, Note_on_c, 0, 81, 86
1, 44544, Note_off_c, 0, 54, 73
1, 44555, Note_off_c, 0, 81, 64
1, 44557, Note_off_c, 0, 42, 62
1, 44558, Note_off_c, 0, 48, 64
1, 44558, Note_off_c, 0, 75, 61
1, 44563, Note_off_c, 0, 87, 62
1, 44603, Note_on_c, 0, 75, 95
1, 44604, Note_on_c, 0, 54, 101
1, 44604, Note_on_c, 0, 87, 93
1, 44608, Note_on_c, 0, 48, 91
1, 44608, Note_on_c, 0, 42, 85
1, 44612, Note_on_c, 0, 81, 87
1, 44635, Note_off_c, 0, 48, 66
1, 44638, Note_off_c, 0, 42, 64
1, 44644, Note_off_c, 0, 81, 53
1, 44646, Note_off_c, 0, 87, 68
1, 44650, Note_off_c, 0, 75, 62
1, 44662, Note_off_c, 0, 54, 62
1, 44885, Note_on_c, 0, 54, 68
1, 44885, Note_on_c, 0, 48, 64
1, 44888, Note_on_c, 0, 69, 82
1, 44891, Note_on_c, 0, 60, 59
1, 44891, Note_on_c, 0, 81, 75
1, 44906, Note_off_c, 0, 81, 70
1, 44906, Note_on_c, 0, 74, 55
1, 44906, Note_off_c, 0, 69, 71
1, 44907, Note_off_c, 0, 48, 65
1, 44910, Note_off_c, 0, 54, 67
1, 44912, Note_off_c, 0, 60, 63
1, 44930, Note_off_c, 0, 74, 62
1, 44949, Note_on_c, 0, 69, 90
1, 44950, Note_on_c, 0, 60, 79
1, 44951, Note_on_c, 0, 81, 87
1, 44952, Note_on_c, 0, 48, 77
1, 44958, Note_on_c, 0, 54, 83
1, 44967, Note_on_c, 0, 74, 64
1, 44969, Note_off_c, 0, 81, 69
1, 44976, Note_off_c, 0, 48, 68
1, 44983, Note_off_c, 0, 54, 64
1, 44994, Note_off_c, 0, 74, 67
1, 44995, Note_off_c, 0, 60, 58
1, 44997, Note_off_c, 0, 69, 64
1, 45131, Note_on_c, 0, 66, 88
1, 45136, Note_on_c, 0, 60, 73
1, 45137, Note_on_c, 0, 69, 74
1, 45154, Note_on_c, 0, 63, 52
1, 45154, Note_off_c, 0, 66, 65
1, 45155, Note_off_c, 0, 60, 73
1, 45156, Note_off_c, 0, 69, 66
1, 45179, Note_off_c, 0, 63, 59
1, 45204, Note_on_c, 0, 54, 64
1, 45207, Note_on_c, 0, 60, 84
1, 45207, Poly_aftertouch_c, 0, 75, 127
1, 45210, Note_on_c, 0, 75, 7
1, 45213, Note_on_c, 0, 63, 64
1, 45216, Note_on_c, 0, 66, 87
1, 45217, Note_on_c, 0, 69, 88
1, 45230, Note_off_c, 0, 60, 71
1, 45236, Note_off_c, 0, 63, 64
1, 45240, Note_off_c, 0, 69, 65
1, 45252, Note_off_c, 0, 54, 64
1, 45252, Note_off_c, 0, 66, 57
1, 45253, Note_off_c, 0, 75, 61
1, 45392, Note_on_c, 0, 60, 83
1, 45393, Note_on_c, 0, 57, 70
1, 45395, Note_on_c, 0, 66, 68
1, 45396, Note_on_c, 0, 54, 61
1, 45403, Note_on_c, 0, 48, 55
1, 45405, Note_on_c, 0, 69, 57
1, 45415, Note_off_c, 0, 60, 69
1, 45416, Note_off_c, 0, 66, 70
1, 45418, Note_off_c, 0, 54, 64
1, 45422, Note_off_c, 0, 57, 65
1, 45428, Note_off_c, 0, 69, 60
1, 45428, Note_off_c, 0, 48, 58
1, 45465, Note_on_c, 0, 57, 81
1, 45465, Note_on_c, 0, 60, 84
1, 45467, Note_on_c, 0, 48, 73
1, 45470, Note_on_c, 0, 54, 81
1, 45472, Note_on_c, 0, 66, 81
1, 45472, Note_on_c, 0, 69, 73
1, 45485, Note_off_c, 0, 57, 71
1, 45490, Note_off_c, 0, 54, 71
1, 45493, Note_off_c, 0, 69, 67
1, 45499, Note_off_c, 0, 48, 64
1, 45501, Note_off_c, 0, 66, 63
1, 45512, Note_off_c, 0, 60, 63
1, 45626, Poly_aftertouch_c, 0, 54, 0
1, 45649, Note_on_c, 0, 45, 75
1, 45649, Note_on_c, 0, 51, 82
1, 45651, Note_on_c, 0, 54, 77
1, 45663, Note_on_c, 0, 57, 67
1, 45672, Note_off_c, 0, 51, 67
1, 45675, Note_off_c, 0, 54, 70
1, 45675, Note_on_c, 0, 63, 42
1, 45676, Note_off_c, 0, 45, 64
1, 45690, Note_off_c, 0, 57, 67
1, 45704, Note_off_c, 0, 63, 57
1, 45715, Note_on_c, 0, 51, 86
1, 45725, Note_on_c, 0, 45, 82
1, 45727, Note_on_c, 0, 42, 74
1, 45727, Note_on_c, 0, 54, 93
1, 45734, Note_on_c, 0, 63, 70
1, 45738, Note_on_c, 0, 57, 75
1, 45756, Note_off_c, 0, 45, 67
1, 45757, Note_off_c, 0, 51, 66
1, 45762, Note_off_c, 0, 63, 69
1, 45768, Note_off_c, 0, 57, 64
1, 45773, Note_off_c, 0, 54, 62
1, 45775, Note_off_c, 0, 42, 62
1, 46002, Note_on_c, 0, 48, 84
1, 46005, Note_on_c, 0, 45, 66
1, 46015, Note_on_c, 0, 42, 49
1, 46016, Note_on_c, 0, 36, 50
1, 46017, Note_on_c, 0, 54, 57
1, 46026, Note_off_c, 0, 45, 66
1, 46027, Note_off_c, 0, 48, 66
1, 46035, Note_on_c, 0, 57, 33
1, 46038, Note_off_c, 0, 54, 66
1, 46049, Note_off_c, 0, 36, 53
1, 46054, Control_c, 0, 64, 76
1, 46057, Note_off_c, 0, 57, 62
1, 46058, Note_off_c, 0, 42, 0
1, 46068, Note_on_c, 0, 48, 98
1, 46069, Control_c, 0, 64, 0
1, 46072, Note_on_c, 0, 45, 95
1, 46075, Note_on_c, 0, 42, 67
1, 46078, Note_on_c, 0, 36, 69
1, 46081, Note_on_c, 0, 57, 74
1, 46088, Note_on_c, 0, 54, 82
1, 46108, Note_off_c, 0, 57, 65
1, 46110, Note_off_c, 0, 48, 66
1, 46113, Control_c, 0, 64, 70
1, 46116, Note_off_c, 0, 54, 69
1, 46128, Control_c, 0, 64, 127
1, 46552, Note_off_c, 0, 45, 56
1, 46566, Note_off_c, 0, 42, 60
1, 46574, Note_off_c, 0, 36, 58
1, 46635, Note_on_c, 0, 47, 108
1, 46640, Control_c, 0, 64, 75
1, 46643, Note_on_c, 0, 57, 99
1, 46645, Note_on_c, 0, 45, 92
1, 46649, Note_on_c, 0, 54, 78
1, 46654, Control_c, 0, 64, 0
1, 46655, Note_on_c, 0, 35, 78
1, 46657, Note_on_c, 0, 42, 82
1, 46714, Control_c, 0, 64, 66
1, 46718, Note_off_c, 0, 57, 62
1, 46727, Note_off_c, 0, 47, 67
1, 46728, Control_c, 0, 64, 127
1, 46733, Note_off_c, 0, 54, 65
1, 47536, Note_off_c, 0, 35, 37
1, 47552, Note_off_c, 0, 42, 36
1, 47553, Note_off_c, 0, 45, 34
1, 47598, Note_on_c, 0, 57, 90
1, 47606, Note_on_c, 0, 46, 89
1, 47610, Note_on_c, 0, 50, 79
1, 47621, Note_on_c, 0, 45, 72
1, 47625, Note_on_c, 0, 42, 64
1, 47626, Note_on_c, 0, 34, 70
1, 47626, Control_c, 0, 64, 109
1, 47641, Control_c, 0, 64, 74
1, 47656, Control_c, 0, 64, 0
1, 47820, Control_c, 0, 64, 49
1, 47835, Control_c, 0, 64, 63
1, 47849, Control_c, 0, 64, 67
1, 47864, Control_c, 0, 64, 70
1, 47879, Control_c, 0, 64, 73
1, 47894, Control_c, 0, 64, 76
1, 47908, Control_c, 0, 64, 80
1, 47923, Control_c, 0, 64, 84
1, 47938, Control_c, 0, 64, 87
1, 47953, Control_c, 0, 64, 90
1, 47968, Control_c, 0, 64, 93
1, 47982, Control_c, 0, 64, 96
1, 47997, Control_c, 0, 64, 99
1, 48012, Control_c, 0, 64, 103
1, 48027, Control_c, 0, 64, 106
1, 48042, Control_c, 0, 64, 109
1, 48057, Control_c, 0, 64, 110
1, 48072, Control_c, 0, 64, 112
1, 48087, Control_c, 0, 64, 113
1, 48108, Control_c, 0, 64, 115
1, 48123, Control_c, 0, 64, 118
1, 48134, Note_off_c, 0, 57, 43
1, 48138, Control_c, 0, 64, 119
1, 48153, Control_c, 0, 64, 120
1, 48168, Control_c, 0, 64, 122
1, 48176, Note_off_c, 0, 34, 35
1, 48182, Control_c, 0, 64, 124
1, 48197, Control_c, 0, 64, 126
1, 48209, Note_off_c, 0, 46, 35
1, 48212, Control_c, 0, 64, 127
1, 48238, Note_off_c, 0, 50, 29
1, 48242, Note_off_c, 0, 42, 41
1, 48335, Note_on_c, 0, 54, 87
1, 48346, Note_on_c, 0, 50, 71
1, 48358, Note_on_c, 0, 46, 62
1, 48366, Note_on_c, 0, 42, 48
1, 48367, Note_off_c, 0, 45, 0
1, 48389, Control_c, 0, 64, 110
1, 48393, Note_on_c, 0, 34, 47
1, 48395, Note_on_c, 0, 38, 46
1, 48404, Control_c, 0, 64, 95
1, 48418, Poly_aftertouch_c, 0, 45, 0
1, 48419, Control_c, 0, 64, 83
1, 48433, Control_c, 0, 64, 70
1, 48448, Control_c, 0, 64, 0
1, 49670, Note_on_c, 0, 55, 63
1, 49693, Note_on_c, 0, 43, 47
1, 49723, Note_off_c, 0, 54, 57
1, 49778, Note_off_c, 0, 42, 55
1, 50109, Control_c, 0, 64, 46
1, 50124, Control_c, 0, 64, 58
1, 50139, Control_c, 0, 64, 63
1, 50153, Control_c, 0, 64, 65
1, 50169, Control_c, 0, 64, 67
1, 50184, Control_c, 0, 64, 69
1, 50199, Control_c, 0, 64, 72
1, 50214, Control_c, 0, 64, 77
1, 50215, Note_off_c, 0, 55, 48
1, 50229, Control_c, 0, 64, 82
1, 50243, Control_c, 0, 64, 87
1, 50258, Control_c, 0, 64, 92
1, 50273, Control_c, 0, 64, 97
1, 50281, Note_off_c, 0, 50, 38
1, 50287, Note_off_c, 0, 46, 34
1, 50288, Control_c, 0, 64, 100
1, 50302, Control_c, 0, 64, 104
1, 50317, Control_c, 0, 64, 106
1, 50332, Control_c, 0, 64, 106
1, 50355, Control_c, 0, 64, 107
1, 50430, Control_c, 0, 64, 106
1, 50641, Note_off_c, 0, 34, 53
1, 50766, Note_off_c, 0, 43, 57
1, 50898, Note_off_c, 0, 38, 39
1, 50918, Control_c, 0, 64, 106
1, 50963, Control_c, 0, 64, 105
1, 50978, Control_c, 0, 64, 104
1, 50993, Control_c, 0, 64, 103
1, 51008, Control_c, 0, 64, 103
1, 51023, Control_c, 0, 64, 102
1, 51038, Control_c, 0, 64, 101
1, 51053, Control_c, 0, 64, 101
1, 51067, Control_c, 0, 64, 100
1, 51082, Control_c, 0, 64, 99
1, 51104, Control_c, 0, 64, 98
1, 51119, Control_c, 0, 64, 97
1, 51133, Control_c, 0, 64, 96
1, 51148, Control_c, 0, 64, 95
1, 51163, Control_c, 0, 64, 95
1, 51178, Control_c, 0, 64, 94
1, 51192, Control_c, 0, 64, 93
1, 51206, Control_c, 0, 64, 92
1, 51221, Control_c, 0, 64, 91
1, 51236, Control_c, 0, 64, 89
1, 51250, Control_c, 0, 64, 88
1, 51265, Control_c, 0, 64, 87
1, 51280, Control_c, 0, 64, 85
1, 51295, Control_c, 0, 64, 84
1, 51310, Control_c, 0, 64, 82
1, 51324, Control_c, 0, 64, 80
1, 51339, Control_c, 0, 64, 78
1, 51354, Control_c, 0, 64, 76
1, 51369, Control_c, 0, 64, 73
1, 51384, Control_c, 0, 64, 71
1, 51398, Control_c, 0, 64, 68
1, 51413, Control_c, 0, 64, 64
1, 51428, Control_c, 0, 64, 58
1, 51443, Control_c, 0, 64, 47
1, 51458, Control_c, 0, 64, 41
1, 51503, Control_c, 0, 64, 40
1, 51517, Control_c, 0, 64, 39
1, 51532, Control_c, 0, 64, 36
1, 51547, Control_c, 0, 64, 28
1, 51562, Control_c, 0, 64, 14
1, 51577, Control_c, 0, 64, 0
1, 52133, Control_c, 0, 67, 12
1, 52147, Control_c, 0, 67, 28
1, 52162, Control_c, 0, 67, 46
1, 52177, Control_c, 0, 67, 66
1, 52192, Control_c, 0, 67, 88
1, 52207, Control_c, 0, 67, 111
1, 52221, Control_c, 0, 67, 127
1, 52503, Control_c, 0, 64, 11
1, 52518, Control_c, 0, 64, 40
1, 52533, Control_c, 0, 64, 52
1, 52547, Control_c, 0, 64, 59
1, 52563, Control_c, 0, 64, 63
1, 52578, Control_c, 0, 64, 66
1, 52600, Control_c, 0, 64, 67
1, 52615, Control_c, 0, 64, 69
1, 52630, Control_c, 0, 64, 71
1, 52645, Control_c, 0, 64, 73
1, 52659, Control_c, 0, 64, 75
1, 52674, Control_c, 0, 64, 77
1, 52689, Control_c, 0, 64, 80
1, 52704, Control_c, 0, 64, 82
1, 52719, Control_c, 0, 64, 84
1, 52734, Control_c, 0, 64, 87
1, 52749, Control_c, 0, 64, 89
1, 52764, Control_c, 0, 64, 91
1, 52778, Control_c, 0, 64, 93
1, 52793, Control_c, 0, 64, 95
1, 52808, Control_c, 0, 64, 96
1, 52823, Control_c, 0, 64, 97
1, 52838, Control_c, 0, 64, 97
1, 52852, Control_c, 0, 64, 98
1, 52867, Control_c, 0, 64, 98
1, 53105, Note_on_c, 0, 33, 32
1, 53273, Note_on_c, 0, 45, 32
1, 53296, Control_c, 0, 64, 98
1, 53330, Note_off_c, 0, 45, 45
1, 53356, Note_off_c, 0, 33, 35
1, 53372, Note_on_c, 0, 34, 50
1, 53453, Control_c, 0, 64, 97
1, 53460, Note_off_c, 0, 34, 49
1, 53464, Note_on_c, 0, 46, 43
1, 53506, Note_off_c, 0, 46, 48
1, 53536, Note_on_c, 0, 37, 56
1, 53572, Control_c, 0, 64, 97
1, 53580, Note_off_c, 0, 37, 57
1, 53590, Note_on_c, 0, 49, 57
1, 53634, Note_off_c, 0, 49, 59
1, 53670, Note_on_c, 0, 40, 67
1, 53714, Note_off_c, 0, 40, 61
1, 53745, Note_on_c, 0, 52, 45
1, 53764, Control_c, 0, 64, 96
1, 53777, Note_off_c, 0, 52, 53
1, 53801, Note_on_c, 0, 41, 69
1, 53844, Note_off_c, 0, 41, 61
1, 53850, Note_on_c, 0, 53, 67
1, 53891, Note_off_c, 0, 53, 62
1, 53897, Control_c, 0, 64, 96
1, 53911, Control_c, 0, 64, 94
1, 53923, Note_on_c, 0, 43, 71
1, 53926, Control_c, 0, 64, 91
1, 53941, Control_c, 0, 64, 87
1, 53956, Control_c, 0, 64, 81
1, 53971, Control_c, 0, 64, 73
1, 53977, Note_off_c, 0, 43, 62
1, 53984, Note_on_c, 0, 55, 64
1, 53986, Control_c, 0, 64, 64
1, 54001, Control_c, 0, 64, 0
1, 54028, Note_off_c, 0, 55, 64
1, 54070, Note_on_c, 0, 45, 65
1, 54123, Note_off_c, 0, 45, 62
1, 54133, Note_on_c, 0, 57, 52
1, 54177, Note_off_c, 0, 57, 61
1, 54233, Note_on_c, 0, 46, 60
1, 54278, Note_off_c, 0, 46, 60
1, 54332, Note_on_c, 0, 58, 47
1, 54373, Note_off_c, 0, 58, 54
1, 54499, Note_on_c, 0, 37, 35
1, 54596, Note_on_c, 0, 49, 40
1, 54642, Note_off_c, 0, 37, 48
1, 54669, Note_off_c, 0, 49, 56
1, 55610, Control_c, 0, 64, 31
1, 55624, Control_c, 0, 64, 44
1, 55639, Control_c, 0, 64, 54
1, 55654, Control_c, 0, 64, 62
1, 55669, Control_c, 0, 64, 65
1, 55684, Control_c, 0, 64, 67
1, 55698, Control_c, 0, 64, 68
1, 55713, Control_c, 0, 64, 70
1, 55728, Control_c, 0, 64, 73
1, 55743, Control_c, 0, 64, 75
1, 55758, Control_c, 0, 64, 78
1, 55774, Control_c, 0, 64, 81
1, 55788, Control_c, 0, 64, 84
1, 55803, Control_c, 0, 64, 87
1, 55818, Control_c, 0, 64, 90
1, 55833, Control_c, 0, 64, 93
1, 55847, Control_c, 0, 64, 96
1, 55862, Control_c, 0, 64, 98
1, 55877, Control_c, 0, 64, 101
1, 55892, Control_c, 0, 64, 103
1, 55907, Control_c, 0, 64, 106
1, 55921, Control_c, 0, 64, 108
1, 55936, Control_c, 0, 64, 109
1, 55981, Control_c, 0, 64, 109
1, 56055, Control_c, 0, 64, 109
1, 56192, Note_on_c, 0, 53, 25
1, 56379, Note_on_c, 0, 65, 35
1, 56468, Note_off_c, 0, 53, 39
1, 56508, Note_off_c, 0, 65, 35
1, 56514, Note_on_c, 0, 52, 40
1, 56603, Note_on_c, 0, 64, 46
1, 56649, Note_off_c, 0, 64, 48
1, 56656, Control_c, 0, 64, 108
1, 56715, Note_on_c, 0, 50, 41
1, 56716, Note_off_c, 0, 52, 41
1, 56749, Note_off_c, 0, 50, 55
1, 56770, Note_on_c, 0, 62, 44
1, 56802, Note_off_c, 0, 62, 54
1, 56859, Note_on_c, 0, 47, 58
1, 56877, Control_c, 0, 64, 108
1, 56904, Note_on_c, 0, 59, 57
1, 56905, Note_off_c, 0, 47, 57
1, 56941, Note_off_c, 0, 59, 57
1, 56993, Note_on_c, 0, 44, 67
1, 57023, Note_off_c, 0, 44, 64
1, 57047, Note_on_c, 0, 56, 55
1, 57097, Note_off_c, 0, 56, 57
1, 57137, Control_c, 0, 64, 107
1, 57140, Note_on_c, 0, 41, 73
1, 57187, Note_off_c, 0, 41, 58
1, 57205, Note_on_c, 0, 53, 60
1, 57226, Control_c, 0, 64, 107
1, 57241, Note_off_c, 0, 53, 64
1, 57256, Control_c, 0, 64, 106
1, 57271, Control_c, 0, 64, 105
1, 57282, Note_on_c, 0, 40, 65
1, 57286, Control_c, 0, 64, 102
1, 57301, Control_c, 0, 64, 96
1, 57316, Control_c, 0, 64, 89
1, 57322, Note_off_c, 0, 40, 60
1, 57330, Control_c, 0, 64, 80
1, 57345, Control_c, 0, 64, 69
1, 57360, Control_c, 0, 64, 47
1, 57366, Note_on_c, 0, 52, 29
1, 57375, Control_c, 0, 64, 0
1, 57405, Note_off_c, 0, 52, 45
1, 57445, Note_on_c, 0, 38, 52
1, 57474, Note_off_c, 0, 38, 56
1, 57494, Note_on_c, 0, 50, 49
1, 57538, Note_off_c, 0, 50, 61
1, 57697, Note_on_c, 0, 32, 40
1, 57811, Note_on_c, 0, 44, 39
1, 57857, Control_c, 0, 64, 31
1, 57872, Control_c, 0, 64, 55
1, 57873, Note_off_c, 0, 32, 48
1, 57886, Control_c, 0, 64, 64
1, 57900, Note_off_c, 0, 44, 50
1, 57901, Control_c, 0, 64, 68
1, 57916, Control_c, 0, 64, 72
1, 57931, Control_c, 0, 64, 74
1, 57975, Control_c, 0, 64, 73
1, 57990, Control_c, 0, 64, 70
1, 58005, Control_c, 0, 64, 67
1, 58019, Control_c, 0, 64, 60
1, 58034, Control_c, 0, 64, 0
1, 59021, Control_c, 0, 64, 38
1, 59036, Control_c, 0, 64, 58
1, 59050, Control_c, 0, 64, 64
1, 59065, Control_c, 0, 64, 66
1, 59080, Control_c, 0, 64, 67
1, 59095, Control_c, 0, 64, 70
1, 59110, Control_c, 0, 64, 72
1, 59125, Control_c, 0, 64, 75
1, 59139, Control_c, 0, 64, 77
1, 59154, Control_c, 0, 64, 80
1, 59169, Control_c, 0, 64, 82
1, 59184, Control_c, 0, 64, 85
1, 59199, Control_c, 0, 64, 87
1, 59213, Control_c, 0, 64, 90
1, 59228, Control_c, 0, 64, 92
1, 59243, Control_c, 0, 64, 95
1, 59257, Control_c, 0, 64, 97
1, 59272, Control_c, 0, 64, 99
1, 59287, Control_c, 0, 64, 100
1, 59302, Control_c, 0, 64, 100
1, 59317, Control_c, 0, 64, 101
1, 59354, Control_c, 0, 64, 101
1, 59589, Note_on_c, 0, 45, 33
1, 59601, Note_on_c, 0, 33, 26
1, 59675, Note_off_c, 0, 45, 37
1, 59698, Note_off_c, 0, 33, 35
1, 59843, Control_c, 0, 64, 101
1, 59852, Note_on_c, 0, 45, 26
1, 59858, Note_on_c, 0, 33, 27
1, 59962, Control_c, 0, 64, 100
1, 60132, Note_on_c, 0, 50, 25
1, 60134, Note_on_c, 0, 53, 30
1, 60160, Note_off_c, 0, 45, 39
1, 60222, Note_off_c, 0, 50, 40
1, 60230, Note_off_c, 0, 53, 39
1, 60264, Note_off_c, 0, 33, 31
1, 60267, Control_c, 0, 64, 100
1, 60367, Note_on_c, 0, 53, 22
1, 60368, Note_on_c, 0, 50, 35
1, 60463, Note_off_c, 0, 50, 33
1, 60515, Note_on_c, 0, 34, 36
1, 60519, Note_on_c, 0, 46, 27
1, 60548, Control_c, 0, 64, 99
1, 60559, Note_off_c, 0, 34, 49
1, 60562, Note_off_c, 0, 46, 52
1, 60583, Note_off_c, 0, 53, 38
1, 60637, Control_c, 0, 64, 99
1, 60663, Note_on_c, 0, 46, 41
1, 60670, Note_on_c, 0, 34, 40
1, 60697, Control_c, 0, 64, 98
1, 60747, Note_off_c, 0, 46, 34
1, 60750, Note_off_c, 0, 34, 38
1, 60771, Control_c, 0, 64, 98
1, 60786, Note_on_c, 0, 53, 46
1, 60788, Note_on_c, 0, 50, 38
1, 60841, Note_off_c, 0, 50, 49
1, 60881, Note_off_c, 0, 53, 0
1, 60898, Note_on_c, 0, 53, 41
1, 60907, Note_on_c, 0, 50, 43
1, 60984, Note_off_c, 0, 50, 52
1, 60991, Note_on_c, 0, 33, 44
1, 60994, Note_on_c, 0, 45, 42
1, 61012, Note_off_c, 0, 53, 38
1, 61015, Control_c, 0, 64, 97
1, 61027, Note_off_c, 0, 33, 51
1, 61032, Note_off_c, 0, 45, 50
1, 61085, Note_on_c, 0, 45, 49
1, 61093, Note_on_c, 0, 33, 46
1, 61148, Note_off_c, 0, 45, 58
1, 61152, Note_off_c, 0, 33, 54
1, 61170, Note_on_c, 0, 53, 45
1, 61179, Control_c, 0, 64, 97
1, 61186, Note_on_c, 0, 50, 26
1, 61233, Note_off_c, 0, 53, 0
1, 61239, Note_off_c, 0, 50, 0
1, 61251, Note_on_c, 0, 53, 42
1, 61265, Note_on_c, 0, 50, 31
1, 61326, Control_c, 0, 64, 96
1, 61330, Note_on_c, 0, 44, 52
1, 61331, Note_on_c, 0, 32, 52
1, 61331, Note_off_c, 0, 50, 52
1, 61335, Note_off_c, 0, 53, 50
1, 61361, Note_off_c, 0, 44, 55
1, 61364, Note_off_c, 0, 32, 53
1, 61372, Control_c, 0, 64, 96
1, 61420, Note_on_c, 0, 32, 57
1, 61423, Note_on_c, 0, 44, 57
1, 61431, Control_c, 0, 64, 95
1, 61474, Note_off_c, 0, 44, 57
1, 61475, Control_c, 0, 64, 95
1, 61477, Note_on_c, 0, 53, 49
1, 61483, Note_off_c, 0, 32, 55
1, 61492, Note_on_c, 0, 50, 39
1, 61505, Control_c, 0, 64, 94
1, 61530, Note_off_c, 0, 50, 50
1, 61534, Control_c, 0, 64, 94
1, 61557, Note_off_c, 0, 53, 0
1, 61572, Note_on_c, 0, 53, 42
1, 61587, Control_c, 0, 64, 93
1, 61593, Note_on_c, 0, 50, 47
1, 61616, Control_c, 0, 64, 93
1, 61631, Note_off_c, 0, 53, 58
1, 61631, Control_c, 0, 64, 91
1, 61646, Control_c, 0, 64, 86
1, 61648, Note_on_c, 0, 31, 54
1, 61650, Note_off_c, 0, 50, 55
1, 61659, Note_on_c, 0, 43, 31
1, 61660, Control_c, 0, 64, 80
1, 61675, Control_c, 0, 64, 72
1, 61683, Note_off_c, 0, 31, 52
1, 61690, Control_c, 0, 64, 65
1, 61705, Control_c, 0, 64, 50
1, 61706, Note_off_c, 0, 43, 0
1, 61720, Control_c, 0, 64, 42
1, 61721, Note_on_c, 0, 43, 54
1, 61725, Note_on_c, 0, 31, 59
1, 61734, Control_c, 0, 64, 51
1, 61749, Control_c, 0, 64, 58
1, 61764, Control_c, 0, 64, 61
1, 61778, Control_c, 0, 64, 62
1, 61793, Control_c, 0, 64, 63
1, 61795, Note_off_c, 0, 43, 58
1, 61799, Note_off_c, 0, 31, 60
1, 61805, Note_on_c, 0, 52, 45
1, 61808, Control_c, 0, 64, 64
1, 61811, Note_on_c, 0, 50, 37
1, 61823, Control_c, 0, 64, 64
1, 61838, Control_c, 0, 64, 65
1, 61853, Control_c, 0, 64, 66
1, 61858, Note_off_c, 0, 52, 0
1, 61867, Control_c, 0, 64, 66
1, 61873, Note_on_c, 0, 52, 45
1, 61879, Note_off_c, 0, 50, 0
1, 61879, Note_on_c, 0, 50, 39
1, 61882, Control_c, 0, 64, 68
1, 61897, Control_c, 0, 64, 68
1, 61927, Control_c, 0, 64, 68
1, 61933, Note_off_c, 0, 50, 60
1, 61933, Note_off_c, 0, 52, 58
1, 61942, Control_c, 0, 64, 66
1, 61945, Note_on_c, 0, 30, 60
1, 61951, Note_on_c, 0, 42, 49
1, 61957, Control_c, 0, 64, 63
1, 61972, Control_c, 0, 64, 56
1, 61978, Note_off_c, 0, 30, 55
1, 61986, Control_c, 0, 64, 47
1, 62001, Control_c, 0, 64, 49
1, 62005, Note_off_c, 0, 42, 0
1, 62014, Note_on_c, 0, 30, 60
1, 62016, Control_c, 0, 64, 56
1, 62016, Note_on_c, 0, 42, 55
1, 62031, Control_c, 0, 64, 61
1, 62046, Control_c, 0, 64, 63
1, 62060, Control_c, 0, 64, 65
1, 62075, Control_c, 0, 64, 66
1, 62078, Note_off_c, 0, 42, 58
1, 62090, Control_c, 0, 64, 67
1, 62091, Note_off_c, 0, 30, 57
1, 62104, Note_on_c, 0, 52, 43
1, 62105, Control_c, 0, 64, 68
1, 62108, Note_on_c, 0, 50, 41
1, 62120, Control_c, 0, 64, 70
1, 62134, Control_c, 0, 64, 71
1, 62149, Control_c, 0, 64, 73
1, 62165, Control_c, 0, 64, 75
1, 62167, Note_off_c, 0, 52, 0
1, 62168, Note_off_c, 0, 50, 0
1, 62179, Note_on_c, 0, 52, 47
1, 62180, Control_c, 0, 64, 76
1, 62189, Note_on_c, 0, 50, 33
1, 62231, Note_off_c, 0, 52, 59
1, 62234, Note_off_c, 0, 50, 53
1, 62239, Control_c, 0, 64, 74
1, 62241, Note_on_c, 0, 29, 60
1, 62241, Note_on_c, 0, 41, 58
1, 62254, Control_c, 0, 64, 71
1, 62269, Note_off_c, 0, 41, 57
1, 62269, Control_c, 0, 64, 66
1, 62273, Note_off_c, 0, 29, 58
1, 62283, Control_c, 0, 64, 54
1, 62298, Control_c, 0, 64, 42
1, 62313, Control_c, 0, 64, 49
1, 62321, Note_on_c, 0, 41, 69
1, 62323, Note_on_c, 0, 29, 61
1, 62335, Control_c, 0, 64, 59
1, 62350, Control_c, 0, 64, 63
1, 62365, Control_c, 0, 64, 65
1, 62380, Control_c, 0, 64, 66
1, 62391, Note_off_c, 0, 41, 60
1, 62395, Control_c, 0, 64, 68
1, 62409, Control_c, 0, 64, 70
1, 62412, Note_on_c, 0, 50, 51
1, 62413, Note_on_c, 0, 52, 52
1, 62418, Note_off_c, 0, 29, 52
1, 62424, Control_c, 0, 64, 72
1, 62439, Control_c, 0, 64, 74
1, 62446, Note_off_c, 0, 50, 55
1, 62446, Note_off_c, 0, 52, 58
1, 62454, Control_c, 0, 64, 75
1, 62469, Control_c, 0, 64, 76
1, 62483, Control_c, 0, 64, 77
1, 62498, Control_c, 0, 64, 78
1, 62511, Note_on_c, 0, 52, 47
1, 62513, Control_c, 0, 64, 80
1, 62514, Note_on_c, 0, 50, 40
1, 62528, Control_c, 0, 64, 82
1, 62543, Control_c, 0, 64, 83
1, 62553, Note_on_c, 0, 28, 68
1, 62555, Note_on_c, 0, 40, 60
1, 62556, Note_off_c, 0, 50, 58
1, 62556, Note_off_c, 0, 52, 58
1, 62572, Control_c, 0, 64, 82
1, 62581, Note_off_c, 0, 40, 57
1, 62582, Note_off_c, 0, 28, 56
1, 62587, Control_c, 0, 64, 78
1, 62601, Control_c, 0, 64, 72
1, 62616, Control_c, 0, 64, 65
1, 62631, Control_c, 0, 64, 53
1, 62635, Note_on_c, 0, 28, 65
1, 62635, Note_on_c, 0, 40, 65
1, 62646, Control_c, 0, 64, 51
1, 62661, Control_c, 0, 64, 60
1, 62675, Note_on_c, 0, 52, 54
1, 62675, Control_c, 0, 64, 65
1, 62682, Note_on_c, 0, 50, 38
1, 62690, Control_c, 0, 64, 66
1, 62691, Note_off_c, 0, 40, 62
1, 62699, Note_off_c, 0, 28, 58
1, 62705, Control_c, 0, 64, 68
1, 62712, Note_off_c, 0, 52, 61
1, 62717, Note_off_c, 0, 50, 56
1, 62720, Control_c, 0, 64, 69
1, 62735, Control_c, 0, 64, 70
1, 62750, Control_c, 0, 64, 72
1, 62765, Control_c, 0, 64, 74
1, 62780, Control_c, 0, 64, 75
1, 62794, Control_c, 0, 64, 76
1, 62804, Note_on_c, 0, 52, 37
1, 62807, Note_on_c, 0, 50, 39
1, 62809, Control_c, 0, 64, 77
1, 62824, Control_c, 0, 64, 78
1, 62840, Note_off_c, 0, 52, 54
1, 62843, Note_off_c, 0, 50, 55
1, 62864, Note_on_c, 0, 27, 63
1, 62869, Control_c, 0, 64, 77
1, 62883, Control_c, 0, 64, 75
1, 62884, Note_on_c, 0, 39, 33
1, 62895, Note_off_c, 0, 27, 57
1, 62898, Control_c, 0, 64, 71
1, 62913, Control_c, 0, 64, 65
1, 62927, Control_c, 0, 64, 46
1, 62929, Note_off_c, 0, 39, 0
1, 62929, Note_on_c, 0, 39, 49
1, 62935, Note_on_c, 0, 27, 66
1, 62942, Control_c, 0, 64, 0
1, 62982, Note_off_c, 0, 27, 60
1, 62987, Note_off_c, 0, 39, 59
1, 63014, Note_on_c, 0, 51, 61
1, 63059, Note_off_c, 0, 51, 0
1, 63103, Poly_aftertouch_c, 0, 51, 127
1, 63128, Poly_aftertouch_c, 0, 51, 0
1, 63173, Note_on_c, 0, 39, 63
1, 63174, Note_on_c, 0, 27, 64
1, 63200, Note_off_c, 0, 39, 57
1, 63209, Note_off_c, 0, 27, 63
1, 63252, Note_on_c, 0, 27, 60
1, 63254, Note_on_c, 0, 39, 59
1, 63297, Note_off_c, 0, 39, 60
1, 63300, Note_off_c, 0, 27, 61
1, 63321, Note_on_c, 0, 51, 63
1, 63354, Note_off_c, 0, 51, 59
1, 63435, Poly_aftertouch_c, 0, 51, 0
1, 63951, Note_on_c, 0, 34, 50
1, 63983, Note_off_c, 0, 34, 54
1, 64024, Note_on_c, 0, 34, 52
1, 64054, Note_off_c, 0, 34, 62
1, 64118, Note_on_c, 0, 46, 49
1, 64150, Note_off_c, 0, 46, 50
1, 64198, Note_on_c, 0, 46, 50
1, 64242, Note_off_c, 0, 46, 57
1, 64276, Note_on_c, 0, 34, 56
1, 64306, Note_off_c, 0, 34, 60
1, 64377, Note_on_c, 0, 34, 42
1, 64415, Note_off_c, 0, 34, 50
1, 64455, Note_on_c, 0, 46, 52
1, 64485, Note_off_c, 0, 46, 55
1, 64586, Note_on_c, 0, 46, 47
1, 64639, Note_off_c, 0, 46, 52
1, 65266, Note_on_c, 0, 37, 43
1, 65269, Note_on_c, 0, 25, 43
1, 65310, Note_off_c, 0, 37, 50
1, 65312, Note_off_c, 0, 25, 53
1, 65418, Note_on_c, 0, 37, 47
1, 65421, Note_on_c, 0, 25, 46
1, 65519, Note_off_c, 0, 37, 38
1, 65541, Note_off_c, 0, 25, 36
1, 65590, Note_on_c, 0, 49, 42
1, 65653, Note_off_c, 0, 49, 52
1, 65794, Note_on_c, 0, 49, 35
1, 66050, Note_off_c, 0, 49, 27
1, 66647, Note_on_c, 0, 33, 37
1, 66705, Note_off_c, 0, 33, 53
1, 66885, Note_on_c, 0, 33, 31
1, 66978, Note_off_c, 0, 33, 43
1, 67166, Note_on_c, 0, 45, 31
1, 67224, Note_off_c, 0, 45, 53
1, 67606, Note_on_c, 0, 45, 20
1, 67722, Note_off_c, 0, 45, 38
1, 69280, Control_c, 0, 64, 24
1, 69294, Control_c, 0, 64, 46
1, 69309, Control_c, 0, 64, 56
1, 69324, Control_c, 0, 64, 62
1, 69340, Control_c, 0, 64, 65
1, 69355, Control_c, 0, 64, 67
1, 69370, Control_c, 0, 64, 70
1, 69385, Control_c, 0, 64, 72
1, 69399, Control_c, 0, 64, 75
1, 69414, Control_c, 0, 64, 77
1, 69429, Control_c, 0, 64, 81
1, 69444, Control_c, 0, 64, 84
1, 69459, Control_c, 0, 64, 87
1, 69473, Control_c, 0, 64, 92
1, 69488, Control_c, 0, 64, 97
1, 69503, Control_c, 0, 64, 103
1, 69518, Control_c, 0, 64, 115
1, 69533, Control_c, 0, 64, 127
1, 69722, Note_on_c, 0, 69, 37
1, 69746, Note_on_c, 0, 57, 21
1, 69872, Note_off_c, 0, 69, 48
1, 69883, Note_off_c, 0, 57, 40
1, 69983, Note_on_c, 0, 26, 30
1, 69990, Note_on_c, 0, 69, 42
1, 70008, Note_on_c, 0, 57, 33
1, 70017, Note_on_c, 0, 38, 19
1, 70055, Note_off_c, 0, 26, 56
1, 70126, Note_off_c, 0, 38, 35
1, 70236, Note_off_c, 0, 69, 34
1, 70280, Note_off_c, 0, 57, 39
1, 70486, Note_on_c, 0, 45, 28
1, 70494, Note_on_c, 0, 50, 19
1, 70502, Note_on_c, 0, 53, 17
1, 70578, Note_off_c, 0, 53, 44
1, 70583, Note_off_c, 0, 50, 42
1, 70611, Note_off_c, 0, 45, 35
1, 70742, Note_on_c, 0, 45, 36
1, 70744, Note_on_c, 0, 53, 20
1, 70745, Note_on_c, 0, 50, 30
1, 70935, Note_on_c, 0, 70, 49
1, 70956, Note_on_c, 0, 58, 36
1, 70962, Note_off_c, 0, 45, 36
1, 71004, Note_off_c, 0, 53, 37
1, 71038, Note_off_c, 0, 70, 56
1, 71041, Note_off_c, 0, 58, 39
1, 71050, Note_off_c, 0, 50, 39
1, 71158, Note_on_c, 0, 70, 51
1, 71183, Note_on_c, 0, 58, 34
1, 71338, Note_on_c, 0, 46, 39
1, 71350, Note_on_c, 0, 53, 24
1, 71388, Poly_aftertouch_c, 0, 50, 127
1, 71389, Note_off_c, 0, 46, 48
1, 71396, Note_off_c, 0, 53, 49
1, 71445, Poly_aftertouch_c, 0, 50, 0
1, 71494, Note_off_c, 0, 70, 48
1, 71511, Note_on_c, 0, 46, 33
1, 71517, Note_on_c, 0, 53, 23
1, 71520, Note_off_c, 0, 58, 44
1, 71526, Note_on_c, 0, 50, 27
1, 71614, Note_off_c, 0, 46, 33
1, 71618, Note_off_c, 0, 53, 35
1, 71628, Note_on_c, 0, 69, 48
1, 71639, Note_off_c, 0, 50, 30
1, 71649, Note_on_c, 0, 57, 23
1, 71693, Note_off_c, 0, 57, 49
1, 71709, Note_off_c, 0, 69, 36
1, 71759, Note_on_c, 0, 69, 44
1, 71785, Note_on_c, 0, 57, 36
1, 71883, Note_on_c, 0, 45, 39
1, 71887, Note_on_c, 0, 50, 32
1, 71889, Note_on_c, 0, 53, 30
1, 71914, Note_off_c, 0, 57, 31
1, 71915, Note_off_c, 0, 69, 37
1, 71931, Note_off_c, 0, 53, 50
1, 71936, Note_off_c, 0, 50, 47
1, 71985, Note_off_c, 0, 45, 0
1, 72009, Note_on_c, 0, 53, 35
1, 72014, Note_on_c, 0, 50, 34
1, 72021, Poly_aftertouch_c, 0, 45, 127
1, 72085, Poly_aftertouch_c, 0, 45, 0
1, 72092, Note_off_c, 0, 53, 44
1, 72097, Note_on_c, 0, 68, 49
1, 72099, Note_on_c, 0, 56, 46
1, 72102, Note_off_c, 0, 50, 49
1, 72134, Note_off_c, 0, 68, 49
1, 72137, Note_off_c, 0, 56, 49
1, 72196, Note_on_c, 0, 68, 53
1, 72207, Note_on_c, 0, 56, 44
1, 72269, Note_on_c, 0, 44, 39
1, 72277, Note_on_c, 0, 53, 28
1, 72279, Note_on_c, 0, 50, 26
1, 72304, Note_off_c, 0, 44, 52
1, 72341, Note_off_c, 0, 68, 55
1, 72348, Note_off_c, 0, 53, 0
1, 72356, Note_off_c, 0, 50, 0
1, 72364, Note_on_c, 0, 53, 39
1, 72364, Note_off_c, 0, 56, 38
1, 72382, Note_on_c, 0, 50, 24
1, 72388, Note_on_c, 0, 44, 55
1, 72430, Note_off_c, 0, 50, 58
1, 72433, Note_off_c, 0, 53, 55
1, 72455, Note_on_c, 0, 67, 52
1, 72464, Note_on_c, 0, 55, 38
1, 72483, Note_off_c, 0, 44, 58
1, 72512, Note_off_c, 0, 67, 0
1, 72534, Note_off_c, 0, 55, 0
1, 72547, Note_on_c, 0, 55, 42
1, 72551, Poly_aftertouch_c, 0, 67, 127
1, 72602, Poly_aftertouch_c, 0, 67, 0
1, 72606, Note_on_c, 0, 50, 52
1, 72614, Note_off_c, 0, 55, 55
1, 72631, Note_on_c, 0, 45, 40
1, 72649, Note_off_c, 0, 50, 60
1, 72678, Note_off_c, 0, 45, 44
1, 72694, Poly_aftertouch_c, 0, 43, 127
1, 72720, Note_on_c, 0, 50, 56
1, 72733, Note_on_c, 0, 45, 29
1, 72775, Note_off_c, 0, 45, 51
1, 72777, Note_off_c, 0, 50, 52
1, 72798, Note_on_c, 0, 66, 50
1, 72802, Note_on_c, 0, 54, 43
1, 72833, Note_off_c, 0, 66, 54
1, 72845, Note_off_c, 0, 54, 50
1, 72847, Poly_aftertouch_c, 0, 43, 0
1, 72885, Note_on_c, 0, 66, 60
1, 72899, Note_on_c, 0, 54, 49
1, 72950, Note_on_c, 0, 50, 43
1, 72951, Note_on_c, 0, 45, 41
1, 72954, Note_on_c, 0, 42, 44
1, 72992, Note_off_c, 0, 45, 49
1, 72994, Note_off_c, 0, 50, 50
1, 73001, Note_off_c, 0, 42, 45
1, 73010, Note_off_c, 0, 66, 59
1, 73014, Note_off_c, 0, 54, 51
1, 73056, Poly_aftertouch_c, 0, 50, 127
1, 73061, Note_on_c, 0, 42, 41
1, 73076, Poly_aftertouch_c, 0, 50, 0
1, 73077, Note_on_c, 0, 45, 34
1, 73114, Note_off_c, 0, 45, 52
1, 73116, Note_on_c, 0, 65, 60
1, 73124, Note_off_c, 0, 42, 51
1, 73129, Control_c, 0, 64, 103
1, 73132, Note_on_c, 0, 53, 39
1, 73144, Control_c, 0, 64, 90
1, 73147, Note_off_c, 0, 65, 62
1, 73159, Control_c, 0, 64, 79
1, 73174, Control_c, 0, 64, 69
1, 73189, Control_c, 0, 64, 60
1, 73192, Note_off_c, 0, 53, 0
1, 73204, Control_c, 0, 64, 58
1, 73208, Note_on_c, 0, 65, 66
1, 73210, Note_on_c, 0, 53, 41
1, 73218, Control_c, 0, 64, 63
1, 73233, Control_c, 0, 64, 67
1, 73248, Control_c, 0, 64, 69
1, 73263, Control_c, 0, 64, 72
1, 73266, Note_on_c, 0, 41, 47
1, 73268, Note_on_c, 0, 45, 38
1, 73278, Control_c, 0, 64, 76
1, 73292, Control_c, 0, 64, 79
1, 73299, Note_off_c, 0, 41, 55
1, 73299, Note_off_c, 0, 65, 51
1, 73307, Control_c, 0, 64, 82
1, 73321, Note_off_c, 0, 53, 53
1, 73322, Control_c, 0, 64, 85
1, 73323, Note_off_c, 0, 45, 44
1, 73338, Control_c, 0, 64, 87
1, 73353, Control_c, 0, 64, 88
1, 73367, Control_c, 0, 64, 90
1, 73382, Control_c, 0, 64, 91
1, 73383, Note_on_c, 0, 45, 32
1, 73395, Note_on_c, 0, 41, 51
1, 73397, Control_c, 0, 64, 92
1, 73412, Control_c, 0, 64, 92
1, 73427, Control_c, 0, 64, 92
1, 73432, Note_off_c, 0, 41, 52
1, 73438, Note_on_c, 0, 64, 52
1, 73442, Note_on_c, 0, 52, 45
1, 73447, Note_off_c, 0, 45, 44
1, 73456, Control_c, 0, 64, 89
1, 73465, Note_off_c, 0, 64, 54
1, 73471, Control_c, 0, 64, 83
1, 73475, Note_off_c, 0, 52, 51
1, 73486, Control_c, 0, 64, 75
1, 73501, Control_c, 0, 64, 66
1, 73512, Note_on_c, 0, 64, 64
1, 73515, Control_c, 0, 64, 0
1, 73525, Note_on_c, 0, 52, 47
1, 73545, Control_c, 0, 64, 44
1, 73567, Control_c, 0, 64, 60
1, 73576, Note_on_c, 0, 45, 44
1, 73582, Control_c, 0, 64, 65
1, 73583, Note_on_c, 0, 40, 50
1, 73597, Control_c, 0, 64, 68
1, 73604, Note_on_c, 0, 41, 19
1, 73612, Control_c, 0, 64, 73
1, 73622, Note_off_c, 0, 45, 55
1, 73624, Note_off_c, 0, 40, 60
1, 73627, Control_c, 0, 64, 78
1, 73632, Note_off_c, 0, 52, 51
1, 73641, Control_c, 0, 64, 81
1, 73645, Note_off_c, 0, 64, 57
1, 73655, Control_c, 0, 64, 83
1, 73670, Control_c, 0, 64, 85
1, 73685, Control_c, 0, 64, 86
1, 73690, Note_off_c, 0, 41, 0
1, 73695, Note_on_c, 0, 45, 35
1, 73700, Control_c, 0, 64, 87
1, 73705, Note_on_c, 0, 40, 34
1, 73708, Note_on_c, 0, 41, 26
1, 73714, Control_c, 0, 64, 88
1, 73742, Note_off_c, 0, 40, 51
1, 73746, Note_off_c, 0, 45, 52
1, 73758, Note_on_c, 0, 63, 56
1, 73769, Note_on_c, 0, 51, 43
1, 73769, Note_off_c, 0, 41, 45
1, 73773, Control_c, 0, 64, 87
1, 73788, Control_c, 0, 64, 85
1, 73789, Note_off_c, 0, 63, 58
1, 73803, Control_c, 0, 64, 78
1, 73818, Control_c, 0, 64, 71
1, 73833, Control_c, 0, 64, 58
1, 73835, Note_off_c, 0, 51, 0
1, 73839, Note_on_c, 0, 63, 60
1, 73848, Control_c, 0, 64, 0
1, 73854, Note_on_c, 0, 51, 37
1, 73877, Control_c, 0, 64, 50
1, 73892, Control_c, 0, 64, 63
1, 73895, Note_on_c, 0, 39, 48
1, 73900, Note_on_c, 0, 41, 37
1, 73907, Control_c, 0, 64, 67
1, 73909, Note_on_c, 0, 45, 28
1, 73922, Control_c, 0, 64, 71
1, 73937, Control_c, 0, 64, 76
1, 73941, Note_off_c, 0, 41, 49
1, 73947, Note_off_c, 0, 39, 51
1, 73952, Control_c, 0, 64, 80
1, 73953, Note_off_c, 0, 63, 54
1, 73960, Note_off_c, 0, 45, 45
1, 73966, Control_c, 0, 64, 82
1, 73981, Control_c, 0, 64, 84
1, 73996, Control_c, 0, 64, 86
1, 74011, Control_c, 0, 64, 88
1, 74012, Note_off_c, 0, 51, 44
1, 74020, Note_on_c, 0, 39, 22
1, 74026, Control_c, 0, 64, 89
1, 74027, Note_on_c, 0, 45, 26
1, 74040, Control_c, 0, 64, 90
1, 74048, Note_on_c, 0, 41, 20
1, 74055, Control_c, 0, 64, 91
1, 74067, Note_on_c, 0, 62, 49
1, 74078, Note_off_c, 0, 45, 47
1, 74081, Note_off_c, 0, 39, 42
1, 74082, Note_on_c, 0, 50, 23
1, 74092, Note_off_c, 0, 62, 57
1, 74092, Note_off_c, 0, 41, 50
1, 74114, Control_c, 0, 64, 88
1, 74129, Control_c, 0, 64, 84
1, 74142, Note_off_c, 0, 50, 0
1, 74142, Note_on_c, 0, 50, 30
1, 74145, Control_c, 0, 64, 78
1, 74150, Note_on_c, 0, 62, 64
1, 74160, Control_c, 0, 64, 73
1, 74175, Control_c, 0, 64, 67
1, 74189, Control_c, 0, 64, 65
1, 74204, Control_c, 0, 64, 67
1, 74208, Note_on_c, 0, 41, 37
1, 74214, Note_on_c, 0, 45, 32
1, 74219, Control_c, 0, 64, 69
1, 74221, Note_on_c, 0, 38, 38
1, 74234, Control_c, 0, 64, 71
1, 74242, Note_off_c, 0, 62, 56
1, 74249, Control_c, 0, 64, 72
1, 74256, Note_off_c, 0, 45, 50
1, 74257, Note_off_c, 0, 41, 45
1, 74263, Control_c, 0, 64, 74
1, 74268, Note_off_c, 0, 50, 36
1, 74278, Control_c, 0, 64, 77
1, 74293, Control_c, 0, 64, 79
1, 74313, Note_off_c, 0, 38, 0
1, 74316, Control_c, 0, 64, 82
1, 74331, Control_c, 0, 64, 84
1, 74334, Note_on_c, 0, 38, 17
1, 74341, Note_on_c, 0, 45, 28
1, 74345, Control_c, 0, 64, 86
1, 74360, Control_c, 0, 64, 88
1, 74372, Poly_aftertouch_c, 0, 41, 127
1, 74375, Control_c, 0, 64, 89
1, 74377, Note_on_c, 0, 61, 61
1, 74389, Control_c, 0, 64, 90
1, 74390, Note_on_c, 0, 49, 46
1, 74393, Note_off_c, 0, 45, 46
1, 74407, Note_off_c, 0, 61, 63
1, 74419, Poly_aftertouch_c, 0, 41, 0
1, 74419, Control_c, 0, 64, 89
1, 74425, Note_off_c, 0, 49, 51
1, 74434, Control_c, 0, 64, 86
1, 74438, Note_off_c, 0, 38, 36
1, 74449, Control_c, 0, 64, 81
1, 74463, Control_c, 0, 64, 74
1, 74470, Note_on_c, 0, 61, 65
1, 74478, Control_c, 0, 64, 66
1, 74480, Note_on_c, 0, 49, 44
1, 74493, Control_c, 0, 64, 62
1, 74508, Control_c, 0, 64, 64
1, 74522, Control_c, 0, 64, 66
1, 74530, Note_on_c, 0, 41, 39
1, 74534, Note_on_c, 0, 37, 38
1, 74537, Control_c, 0, 64, 68
1, 74543, Note_on_c, 0, 45, 27
1, 74552, Control_c, 0, 64, 70
1, 74567, Control_c, 0, 64, 73
1, 74582, Control_c, 0, 64, 76
1, 74583, Note_off_c, 0, 61, 56
1, 74587, Note_off_c, 0, 41, 43
1, 74591, Note_off_c, 0, 45, 48
1, 74596, Control_c, 0, 64, 79
1, 74605, Note_off_c, 0, 49, 36
1, 74611, Control_c, 0, 64, 82
1, 74626, Control_c, 0, 64, 84
1, 74631, Note_off_c, 0, 37, 0
1, 74641, Control_c, 0, 64, 87
1, 74650, Note_on_c, 0, 37, 31
1, 74655, Control_c, 0, 64, 89
1, 74666, Note_on_c, 0, 45, 33
1, 74667, Note_on_c, 0, 41, 26
1, 74670, Control_c, 0, 64, 91
1, 74688, Note_on_c, 0, 62, 56
1, 74706, Note_on_c, 0, 50, 30
1, 74709, Note_off_c, 0, 37, 50
1, 74710, Note_off_c, 0, 62, 59
1, 74714, Note_off_c, 0, 45, 48
1, 74715, Note_off_c, 0, 41, 47
1, 74715, Control_c, 0, 64, 90
1, 74730, Control_c, 0, 64, 86
1, 74745, Control_c, 0, 64, 80
1, 74755, Note_off_c, 0, 50, 0
1, 74760, Control_c, 0, 64, 75
1, 74775, Control_c, 0, 64, 73
1, 74781, Note_on_c, 0, 50, 31
1, 74782, Note_on_c, 0, 62, 64
1, 74804, Control_c, 0, 64, 74
1, 74819, Control_c, 0, 64, 75
1, 74830, Note_on_c, 0, 45, 41
1, 74834, Control_c, 0, 64, 77
1, 74834, Note_on_c, 0, 38, 49
1, 74835, Note_on_c, 0, 41, 35
1, 74845, Note_off_c, 0, 50, 55
1, 74849, Control_c, 0, 64, 80
1, 74861, Note_off_c, 0, 62, 57
1, 74863, Control_c, 0, 64, 81
1, 74877, Note_off_c, 0, 45, 51
1, 74878, Control_c, 0, 64, 83
1, 74881, Note_off_c, 0, 41, 48
1, 74886, Note_off_c, 0, 38, 52
1, 74893, Control_c, 0, 64, 84
1, 74907, Control_c, 0, 64, 86
1, 74922, Control_c, 0, 64, 87
1, 74938, Control_c, 0, 64, 89
1, 74953, Control_c, 0, 64, 89
1, 74977, Note_on_c, 0, 38, 21
1, 74983, Note_on_c, 0, 63, 61
1, 74985, Note_on_c, 0, 45, 38
1, 74988, Note_on_c, 0, 41, 40
1, 74998, Control_c, 0, 64, 87
1, 75012, Control_c, 0, 64, 84
1, 75013, Note_off_c, 0, 63, 65
1, 75020, Note_on_c, 0, 51, 16
1, 75024, Note_off_c, 0, 41, 51
1, 75026, Note_off_c, 0, 45, 50
1, 75027, Control_c, 0, 64, 78
1, 75041, Note_off_c, 0, 38, 44
1, 75042, Control_c, 0, 64, 72
1, 75064, Control_c, 0, 64, 67
1, 75079, Control_c, 0, 64, 66
1, 75087, Note_on_c, 0, 63, 71
1, 75090, Note_off_c, 0, 51, 0
1, 75090, Note_on_c, 0, 51, 20
1, 75094, Control_c, 0, 64, 68
1, 75109, Control_c, 0, 64, 70
1, 75123, Control_c, 0, 64, 73
1, 75138, Control_c, 0, 64, 77
1, 75153, Control_c, 0, 64, 81
1, 75168, Control_c, 0, 64, 84
1, 75183, Control_c, 0, 64, 88
1, 75184, Note_on_c, 0, 41, 34
1, 75185, Note_on_c, 0, 45, 37
1, 75186, Note_on_c, 0, 39, 41
1, 75198, Control_c, 0, 64, 91
1, 75202, Note_off_c, 0, 63, 56
1, 75212, Control_c, 0, 64, 93
1, 75221, Note_off_c, 0, 51, 49
1, 75222, Note_off_c, 0, 45, 49
1, 75226, Note_off_c, 0, 41, 45
1, 75234, Note_off_c, 0, 39, 42
1, 75242, Control_c, 0, 64, 91
1, 75257, Control_c, 0, 64, 88
1, 75272, Control_c, 0, 64, 84
1, 75284, Note_on_c, 0, 45, 41
1, 75286, Control_c, 0, 64, 81
1, 75287, Note_on_c, 0, 39, 35
1, 75297, Note_on_c, 0, 41, 38
1, 75301, Control_c, 0, 64, 80
1, 75304, Note_on_c, 0, 64, 50
1, 75309, Note_on_c, 0, 52, 45
1, 75328, Note_off_c, 0, 64, 59
1, 75336, Note_off_c, 0, 39, 53
1, 75336, Note_off_c, 0, 41, 51
1, 75344, Note_off_c, 0, 52, 49
1, 75345, Control_c, 0, 64, 81
1, 75347, Note_off_c, 0, 45, 51
1, 75360, Control_c, 0, 64, 83
1, 75375, Control_c, 0, 64, 84
1, 75386, Note_on_c, 0, 52, 57
1, 75390, Note_on_c, 0, 64, 68
1, 75390, Control_c, 0, 64, 85
1, 75405, Control_c, 0, 64, 86
1, 75419, Control_c, 0, 64, 87
1, 75451, Note_off_c, 0, 52, 59
1, 75460, Note_on_c, 0, 41, 44
1, 75467, Note_on_c, 0, 40, 51
1, 75470, Note_off_c, 0, 64, 59
1, 75472, Note_on_c, 0, 45, 42
1, 75505, Note_off_c, 0, 45, 52
1, 75515, Note_off_c, 0, 40, 43
1, 75565, Note_on_c, 0, 40, 21
1, 75571, Note_on_c, 0, 45, 38
1, 75597, Note_off_c, 0, 41, 23
1, 75603, Note_off_c, 0, 45, 55
1, 75604, Note_on_c, 0, 65, 63
1, 75607, Note_off_c, 0, 40, 43
1, 75614, Note_on_c, 0, 53, 48
1, 75626, Note_off_c, 0, 65, 63
1, 75672, Control_c, 0, 64, 84
1, 75674, Note_off_c, 0, 53, 0
1, 75686, Note_on_c, 0, 53, 53
1, 75686, Control_c, 0, 64, 80
1, 75689, Note_on_c, 0, 65, 74
1, 75701, Control_c, 0, 64, 74
1, 75716, Control_c, 0, 64, 69
1, 75732, Control_c, 0, 64, 67
1, 75739, Note_on_c, 0, 45, 45
1, 75746, Control_c, 0, 64, 68
1, 75749, Note_on_c, 0, 41, 48
1, 75760, Note_on_c, 0, 50, 40
1, 75761, Control_c, 0, 64, 70
1, 75764, Note_off_c, 0, 53, 55
1, 75776, Control_c, 0, 64, 72
1, 75785, Note_off_c, 0, 65, 60
1, 75791, Control_c, 0, 64, 75
1, 75798, Note_off_c, 0, 45, 54
1, 75798, Note_off_c, 0, 50, 55
1, 75813, Control_c, 0, 64, 77
1, 75828, Control_c, 0, 64, 80
1, 75834, Note_off_c, 0, 41, 0
1, 75842, Control_c, 0, 64, 83
1, 75854, Note_on_c, 0, 41, 33
1, 75857, Control_c, 0, 64, 85
1, 75870, Note_on_c, 0, 45, 41
1, 75872, Control_c, 0, 64, 87
1, 75877, Note_on_c, 0, 50, 53
1, 75887, Control_c, 0, 64, 89
1, 75902, Control_c, 0, 64, 90
1, 75912, Note_off_c, 0, 41, 57
1, 75915, Note_on_c, 0, 66, 58
1, 75916, Control_c, 0, 64, 90
1, 75930, Note_on_c, 0, 54, 40
1, 75936, Note_off_c, 0, 66, 63
1, 75939, Note_off_c, 0, 50, 56
1, 75946, Control_c, 0, 64, 91
1, 75952, Note_off_c, 0, 45, 53
1, 75976, Note_off_c, 0, 54, 0
1, 75993, Note_on_c, 0, 54, 49
1, 75996, Note_on_c, 0, 66, 74
1, 76006, Control_c, 0, 64, 91
1, 76021, Control_c, 0, 64, 92
1, 76050, Control_c, 0, 64, 91
1, 76065, Control_c, 0, 64, 88
1, 76080, Control_c, 0, 64, 81
1, 76080, Note_on_c, 0, 45, 60
1, 76083, Note_on_c, 0, 50, 60
1, 76090, Note_on_c, 0, 42, 53
1, 76093, Note_off_c, 0, 54, 55
1, 76095, Control_c, 0, 64, 75
1, 76109, Control_c, 0, 64, 69
1, 76114, Note_off_c, 0, 66, 58
1, 76124, Control_c, 0, 64, 66
1, 76126, Note_off_c, 0, 45, 62
1, 76137, Note_off_c, 0, 50, 57
1, 76139, Control_c, 0, 64, 68
1, 76154, Control_c, 0, 64, 70
1, 76168, Control_c, 0, 64, 73
1, 76183, Control_c, 0, 64, 77
1, 76196, Note_off_c, 0, 42, 0
1, 76198, Control_c, 0, 64, 80
1, 76204, Note_on_c, 0, 67, 64
1, 76211, Note_on_c, 0, 55, 59
1, 76213, Control_c, 0, 64, 83
1, 76223, Note_on_c, 0, 50, 38
1, 76228, Control_c, 0, 64, 87
1, 76232, Note_off_c, 0, 67, 65
1, 76232, Note_off_c, 0, 55, 60
1, 76232, Poly_aftertouch_c, 0, 42, 127
1, 76234, Note_on_c, 0, 45, 43
1, 76242, Control_c, 0, 64, 89
1, 76257, Control_c, 0, 64, 90
1, 76258, Note_off_c, 0, 50, 53
1, 76272, Control_c, 0, 64, 90
1, 76274, Note_off_c, 0, 45, 52
1, 76284, Note_on_c, 0, 67, 75
1, 76290, Poly_aftertouch_c, 0, 42, 0
1, 76301, Note_on_c, 0, 55, 61
1, 76346, Control_c, 0, 64, 91
1, 76349, Note_on_c, 0, 50, 55
1, 76352, Note_off_c, 0, 55, 59
1, 76352, Note_on_c, 0, 43, 50
1, 76361, Control_c, 0, 64, 92
1, 76364, Note_on_c, 0, 45, 39
1, 76375, Note_off_c, 0, 67, 61
1, 76375, Control_c, 0, 64, 94
1, 76390, Control_c, 0, 64, 95
1, 76396, Note_off_c, 0, 45, 56
1, 76405, Control_c, 0, 64, 96
1, 76409, Note_off_c, 0, 43, 62
1, 76450, Control_c, 0, 64, 92
1, 76465, Control_c, 0, 64, 84
1, 76468, Note_off_c, 0, 50, 53
1, 76471, Note_on_c, 0, 68, 74
1, 76479, Control_c, 0, 64, 76
1, 76484, Note_on_c, 0, 56, 62
1, 76494, Control_c, 0, 64, 68
1, 76499, Note_off_c, 0, 68, 61
1, 76508, Note_off_c, 0, 56, 60
1, 76509, Control_c, 0, 64, 63
1, 76525, Control_c, 0, 64, 64
1, 76539, Control_c, 0, 64, 66
1, 76560, Note_on_c, 0, 68, 71
1, 76562, Control_c, 0, 64, 69
1, 76577, Note_on_c, 0, 56, 63
1, 76577, Control_c, 0, 64, 72
1, 76591, Control_c, 0, 64, 74
1, 76606, Control_c, 0, 64, 78
1, 76608, Note_on_c, 0, 50, 53
1, 76613, Note_on_c, 0, 44, 54
1, 76618, Note_on_c, 0, 53, 55
1, 76621, Control_c, 0, 64, 81
1, 76636, Control_c, 0, 64, 84
1, 76650, Control_c, 0, 64, 87
1, 76656, Note_off_c, 0, 50, 62
1, 76656, Note_off_c, 0, 44, 55
1, 76659, Note_off_c, 0, 53, 59
1, 76665, Control_c, 0, 64, 88
1, 76694, Note_off_c, 0, 56, 60
1, 76707, Note_off_c, 0, 68, 59
1, 76737, Note_on_c, 0, 44, 46
1, 76742, Note_on_c, 0, 53, 54
1, 76749, Note_on_c, 0, 50, 52
1, 76779, Note_on_c, 0, 69, 77
1, 76790, Note_on_c, 0, 57, 60
1, 76793, Note_off_c, 0, 44, 51
1, 76803, Note_off_c, 0, 53, 53
1, 76809, Note_off_c, 0, 50, 56
1, 76811, Note_off_c, 0, 69, 58
1, 76812, Note_off_c, 0, 57, 60
1, 76857, Control_c, 0, 64, 87
1, 76869, Note_on_c, 0, 69, 75
1, 76872, Control_c, 0, 64, 85
1, 76887, Control_c, 0, 64, 79
1, 76891, Note_on_c, 0, 57, 59
1, 76901, Control_c, 0, 64, 70
1, 76916, Control_c, 0, 64, 51
1, 76931, Control_c, 0, 64, 0
1, 76961, Control_c, 0, 64, 30
1, 76963, Note_on_c, 0, 50, 52
1, 76966, Note_on_c, 0, 45, 54
1, 76969, Note_on_c, 0, 53, 45
1, 76976, Control_c, 0, 64, 60
1, 76990, Control_c, 0, 64, 66
1, 76993, Note_off_c, 0, 57, 39
1, 76998, Note_off_c, 0, 50, 65
1, 77000, Note_off_c, 0, 53, 58
1, 77003, Note_off_c, 0, 45, 61
1, 77005, Control_c, 0, 64, 72
1, 77020, Control_c, 0, 64, 77
1, 77035, Control_c, 0, 64, 83
1, 77050, Control_c, 0, 64, 88
1, 77059, Note_off_c, 0, 69, 63
1, 77064, Control_c, 0, 64, 91
1, 77079, Control_c, 0, 64, 95
1, 77080, Note_on_c, 0, 53, 49
1, 77094, Control_c, 0, 64, 97
1, 77098, Note_on_c, 0, 50, 46
1, 77100, Note_on_c, 0, 45, 44
1, 77109, Control_c, 0, 64, 98
1, 77124, Control_c, 0, 64, 98
1, 77138, Note_off_c, 0, 53, 59
1, 77139, Control_c, 0, 64, 98
1, 77162, Note_off_c, 0, 50, 50
1, 77168, Note_on_c, 0, 74, 75
1, 77186, Note_on_c, 0, 62, 48
1, 77227, Note_off_c, 0, 62, 51
1, 77228, Control_c, 0, 64, 97
1, 77243, Control_c, 0, 64, 97
1, 77246, Note_off_c, 0, 74, 62
1, 77272, Control_c, 0, 64, 96
1, 77287, Control_c, 0, 64, 95
1, 77308, Control_c, 0, 64, 95
1, 77311, Note_off_c, 0, 45, 41
1, 77323, Control_c, 0, 64, 93
1, 77339, Control_c, 0, 64, 92
1, 77345, Note_on_c, 0, 74, 63
1, 77354, Control_c, 0, 64, 90
1, 77359, Note_on_c, 0, 62, 38
1, 77369, Control_c, 0, 64, 89
1, 77384, Control_c, 0, 64, 88
1, 77399, Control_c, 0, 64, 86
1, 77413, Control_c, 0, 64, 84
1, 77428, Control_c, 0, 64, 81
1, 77443, Control_c, 0, 64, 76
1, 77458, Control_c, 0, 64, 67
1, 77473, Control_c, 0, 64, 0
1, 77547, Control_c, 0, 64, 49
1, 77562, Control_c, 0, 64, 62
1, 77577, Control_c, 0, 64, 66
1, 77592, Control_c, 0, 64, 71
1, 77606, Control_c, 0, 64, 76
1, 77621, Control_c, 0, 64, 81
1, 77636, Control_c, 0, 64, 85
1, 77651, Control_c, 0, 64, 89
1, 77666, Control_c, 0, 64, 92
1, 77680, Control_c, 0, 64, 97
1, 77695, Control_c, 0, 64, 101
1, 77710, Control_c, 0, 64, 106
1, 77720, Note_off_c, 0, 74, 32
1, 77724, Control_c, 0, 64, 108
1, 77739, Control_c, 0, 64, 108
1, 77765, Note_off_c, 0, 62, 39
1, 77908, Note_on_c, 0, 72, 51
1, 77912, Note_on_c, 0, 60, 46
1, 77917, Control_c, 0, 64, 108
1, 77946, Control_c, 0, 64, 107
1, 77961, Control_c, 0, 64, 106
1, 77976, Control_c, 0, 64, 104
1, 77991, Control_c, 0, 64, 103
1, 78006, Control_c, 0, 64, 101
1, 78021, Control_c, 0, 64, 100
1, 78036, Control_c, 0, 64, 97
1, 78056, Note_off_c, 0, 60, 36
1, 78058, Control_c, 0, 64, 91
1, 78066, Note_on_c, 0, 26, 42
1, 78073, Control_c, 0, 64, 81
1, 78078, Note_off_c, 0, 72, 52
1, 78082, Note_on_c, 0, 38, 36
1, 78087, Control_c, 0, 64, 67
1, 78102, Control_c, 0, 64, 0
1, 78148, Control_c, 0, 64, 51
1, 78162, Note_off_c, 0, 26, 56
1, 78162, Control_c, 0, 64, 64
1, 78177, Control_c, 0, 64, 72
1, 78182, Note_on_c, 0, 60, 43
1, 78182, Note_on_c, 0, 72, 52
1, 78192, Control_c, 0, 64, 80
1, 78207, Control_c, 0, 64, 91
1, 78222, Control_c, 0, 64, 101
1, 78236, Control_c, 0, 64, 113
1, 78242, Note_off_c, 0, 38, 39
1, 78251, Control_c, 0, 64, 127
1, 78319, Note_off_c, 0, 72, 39
1, 78367, Note_off_c, 0, 60, 39
1, 78527, Note_on_c, 0, 55, 36
1, 78528, Note_on_c, 0, 46, 41
1, 78530, Note_on_c, 0, 52, 34
1, 78568, Note_off_c, 0, 46, 50
1, 78573, Note_off_c, 0, 55, 47
1, 78577, Note_off_c, 0, 52, 46
1, 78689, Note_on_c, 0, 46, 39
1, 78695, Note_on_c, 0, 55, 38
1, 78710, Note_on_c, 0, 52, 37
1, 78835, Note_on_c, 0, 71, 53
1, 78841, Note_off_c, 0, 55, 27
1, 78841, Note_on_c, 0, 59, 42
1, 78866, Note_off_c, 0, 71, 61
1, 78867, Note_off_c, 0, 46, 25
1, 78877, Note_off_c, 0, 59, 49
1, 78882, Note_off_c, 0, 52, 24
1, 78961, Note_on_c, 0, 71, 52
1, 78984, Note_on_c, 0, 59, 43
1, 79040, Note_on_c, 0, 52, 38
1, 79049, Note_on_c, 0, 47, 32
1, 79049, Note_on_c, 0, 55, 34
1, 79071, Note_off_c, 0, 59, 38
1, 79071, Note_off_c, 0, 71, 49
1, 79081, Note_off_c, 0, 52, 56
1, 79092, Note_off_c, 0, 55, 47
1, 79100, Note_off_c, 0, 47, 45
1, 79158, Note_on_c, 0, 47, 32
1, 79159, Note_on_c, 0, 55, 40
1, 79167, Note_on_c, 0, 52, 43
1, 79212, Note_off_c, 0, 47, 54
1, 79225, Note_off_c, 0, 55, 52
1, 79228, Note_on_c, 0, 70, 47
1, 79231, Note_off_c, 0, 52, 53
1, 79252, Note_off_c, 0, 70, 59
1, 79252, Note_on_c, 0, 58, 10
1, 79311, Note_on_c, 0, 70, 67
1, 79354, Note_on_c, 0, 52, 52
1, 79361, Note_on_c, 0, 46, 45
1, 79361, Note_on_c, 0, 55, 45
1, 79389, Note_off_c, 0, 70, 58
1, 79395, Note_off_c, 0, 46, 55
1, 79397, Note_off_c, 0, 55, 56
1, 79398, Note_off_c, 0, 52, 56
1, 79421, Note_off_c, 0, 58, 39
1, 79481, Note_on_c, 0, 55, 34
1, 79485, Note_on_c, 0, 46, 53
1, 79497, Note_on_c, 0, 52, 25
1, 79524, Note_off_c, 0, 55, 48
1, 79526, Note_on_c, 0, 69, 58
1, 79528, Note_on_c, 0, 57, 55
1, 79536, Note_off_c, 0, 52, 50
1, 79557, Note_off_c, 0, 69, 64
1, 79559, Note_off_c, 0, 57, 61
1, 79567, Note_off_c, 0, 46, 58
1, 79621, Note_on_c, 0, 69, 75
1, 79639, Note_on_c, 0, 57, 45
1, 79674, Note_on_c, 0, 52, 46
1, 79687, Note_off_c, 0, 57, 56
1, 79696, Note_on_c, 0, 46, 48
1, 79697, Note_on_c, 0, 45, 41
1, 79699, Note_off_c, 0, 69, 58
1, 79717, Note_off_c, 0, 52, 56
1, 79729, Note_off_c, 0, 46, 53
1, 79735, Note_off_c, 0, 45, 50
1, 79798, Note_on_c, 0, 45, 50
1, 79801, Note_on_c, 0, 52, 45
1, 79817, Note_on_c, 0, 46, 41
1, 79845, Note_on_c, 0, 68, 60
1, 79850, Note_off_c, 0, 52, 56
1, 79853, Control_c, 0, 64, 104
1, 79854, Note_on_c, 0, 56, 55
1, 79857, Note_off_c, 0, 46, 52
1, 79868, Control_c, 0, 64, 89
1, 79869, Note_off_c, 0, 45, 57
1, 79871, Note_off_c, 0, 68, 64
1, 79879, Note_off_c, 0, 56, 57
1, 79882, Control_c, 0, 64, 77
1, 79897, Control_c, 0, 64, 69
1, 79912, Control_c, 0, 64, 66
1, 79926, Note_on_c, 0, 68, 73
1, 79926, Control_c, 0, 64, 68
1, 79935, Note_on_c, 0, 56, 53
1, 79941, Control_c, 0, 64, 71
1, 79956, Control_c, 0, 64, 74
1, 79971, Control_c, 0, 64, 78
1, 79986, Control_c, 0, 64, 83
1, 79994, Note_on_c, 0, 44, 54
1, 79998, Note_on_c, 0, 46, 33
1, 80000, Control_c, 0, 64, 88
1, 80003, Note_on_c, 0, 52, 45
1, 80015, Control_c, 0, 64, 93
1, 80030, Control_c, 0, 64, 97
1, 80031, Note_off_c, 0, 46, 54
1, 80037, Note_off_c, 0, 52, 53
1, 80038, Note_off_c, 0, 44, 56
1, 80045, Control_c, 0, 64, 100
1, 80050, Note_off_c, 0, 68, 58
1, 80057, Note_off_c, 0, 56, 53
1, 80060, Control_c, 0, 64, 104
1, 80075, Control_c, 0, 64, 109
1, 80090, Control_c, 0, 64, 113
1, 80105, Control_c, 0, 64, 114
1, 80120, Note_on_c, 0, 46, 51
1, 80131, Note_on_c, 0, 52, 49
1, 80134, Control_c, 0, 64, 113
1, 80140, Note_on_c, 0, 67, 60
1, 80145, Note_on_c, 0, 55, 54
1, 80149, Control_c, 0, 64, 103
1, 80164, Control_c, 0, 64, 90
1, 80167, Note_off_c, 0, 46, 53
1, 80167, Note_off_c, 0, 67, 64
1, 80168, Note_off_c, 0, 52, 58
1, 80170, Note_off_c, 0, 55, 57
1, 80176, Note_on_c, 0, 44, 3
1, 80179, Control_c, 0, 64, 79
1, 80194, Control_c, 0, 64, 70
1, 80199, Note_off_c, 0, 44, 43
1, 80208, Control_c, 0, 64, 65
1, 80223, Control_c, 0, 64, 67
1, 80227, Note_on_c, 0, 67, 74
1, 80234, Note_on_c, 0, 55, 57
1, 80238, Control_c, 0, 64, 70
1, 80252, Control_c, 0, 64, 74
1, 80267, Control_c, 0, 64, 79
1, 80275, Note_on_c, 0, 52, 36
1, 80277, Note_on_c, 0, 46, 44
1, 80282, Control_c, 0, 64, 83
1, 80286, Note_on_c, 0, 43, 40
1, 80304, Control_c, 0, 64, 89
1, 80308, Note_off_c, 0, 67, 54
1, 80309, Note_off_c, 0, 55, 56
1, 80316, Note_off_c, 0, 46, 55
1, 80319, Control_c, 0, 64, 93
1, 80324, Note_off_c, 0, 52, 48
1, 80334, Control_c, 0, 64, 98
1, 80349, Control_c, 0, 64, 101
1, 80364, Control_c, 0, 64, 106
1, 80378, Note_off_c, 0, 43, 0
1, 80379, Control_c, 0, 64, 111
1, 80392, Note_on_c, 0, 43, 40
1, 80394, Control_c, 0, 64, 118
1, 80400, Note_on_c, 0, 46, 55
1, 80404, Note_on_c, 0, 52, 15
1, 80408, Control_c, 0, 64, 127
1, 80438, Note_on_c, 0, 66, 64
1, 80440, Note_off_c, 0, 46, 58
1, 80450, Note_on_c, 0, 54, 52
1, 80451, Note_off_c, 0, 43, 58
1, 80452, Control_c, 0, 64, 117
1, 80460, Note_off_c, 0, 52, 51
1, 80462, Note_off_c, 0, 66, 65
1, 80467, Control_c, 0, 64, 99
1, 80478, Note_off_c, 0, 54, 55
1, 80482, Control_c, 0, 64, 84
1, 80497, Control_c, 0, 64, 72
1, 80512, Control_c, 0, 64, 56
1, 80519, Note_on_c, 0, 66, 75
1, 80528, Control_c, 0, 64, 0
1, 80528, Note_on_c, 0, 54, 52
1, 80543, Control_c, 0, 64, 43
1, 80557, Control_c, 0, 64, 62
1, 80572, Control_c, 0, 64, 67
1, 80579, Note_on_c, 0, 42, 56
1, 80580, Note_on_c, 0, 46, 41
1, 80587, Control_c, 0, 64, 71
1, 80602, Control_c, 0, 64, 76
1, 80617, Control_c, 0, 64, 82
1, 80620, Note_off_c, 0, 42, 59
1, 80621, Note_off_c, 0, 46, 49
1, 80631, Control_c, 0, 64, 88
1, 80641, Note_off_c, 0, 66, 53
1, 80646, Control_c, 0, 64, 96
1, 80649, Note_off_c, 0, 54, 51
1, 80661, Control_c, 0, 64, 103
1, 80676, Control_c, 0, 64, 110
1, 80691, Control_c, 0, 64, 115
1, 80705, Control_c, 0, 64, 127
1, 80712, Note_on_c, 0, 46, 36
1, 80726, Note_on_c, 0, 42, 35
1, 80733, Note_on_c, 0, 65, 61
1, 80748, Note_on_c, 0, 53, 35
1, 80751, Note_off_c, 0, 46, 51
1, 80757, Note_off_c, 0, 65, 64
1, 80759, Note_off_c, 0, 42, 55
1, 80764, Control_c, 0, 64, 108
1, 80779, Control_c, 0, 64, 94
1, 80794, Control_c, 0, 64, 80
1, 80806, Note_off_c, 0, 53, 0
1, 80809, Control_c, 0, 64, 68
1, 80819, Note_on_c, 0, 65, 73
1, 80821, Note_on_c, 0, 53, 48
1, 80823, Control_c, 0, 64, 23
1, 80838, Control_c, 0, 64, 0
1, 80853, Control_c, 0, 64, 50
1, 80857, Note_on_c, 0, 41, 51
1, 80857, Note_on_c, 0, 46, 36
1, 80868, Control_c, 0, 64, 64
1, 80883, Control_c, 0, 64, 68
1, 80891, Note_off_c, 0, 41, 58
1, 80896, Note_off_c, 0, 46, 50
1, 80898, Control_c, 0, 64, 74
1, 80909, Note_off_c, 0, 65, 55
1, 80912, Control_c, 0, 64, 80
1, 80927, Control_c, 0, 64, 87
1, 80928, Note_off_c, 0, 53, 51
1, 80942, Control_c, 0, 64, 94
1, 80957, Control_c, 0, 64, 100
1, 80972, Control_c, 0, 64, 106
1, 80981, Note_on_c, 0, 46, 44
1, 80987, Control_c, 0, 64, 111
1, 80989, Note_on_c, 0, 41, 52
1, 81002, Control_c, 0, 64, 119
1, 81017, Control_c, 0, 64, 127
1, 81031, Note_on_c, 0, 64, 59
1, 81037, Note_off_c, 0, 41, 55
1, 81053, Note_off_c, 0, 46, 46
1, 81057, Note_on_c, 0, 52, 26
1, 81058, Note_off_c, 0, 64, 64
1, 81068, Control_c, 0, 64, 116
1, 81082, Control_c, 0, 64, 100
1, 81097, Control_c, 0, 64, 86
1, 81112, Control_c, 0, 64, 73
1, 81117, Note_off_c, 0, 52, 0
1, 81117, Note_on_c, 0, 52, 36
1, 81123, Note_on_c, 0, 64, 75
1, 81127, Control_c, 0, 64, 53
1, 81142, Control_c, 0, 64, 0
1, 81157, Control_c, 0, 64, 43
1, 81168, Note_on_c, 0, 43, 47
1, 81172, Control_c, 0, 64, 62
1, 81175, Note_on_c, 0, 40, 40
1, 81176, Note_on_c, 0, 46, 28
1, 81187, Control_c, 0, 64, 67
1, 81202, Control_c, 0, 64, 73
1, 81208, Note_off_c, 0, 43, 58
1, 81216, Control_c, 0, 64, 82
1, 81217, Note_off_c, 0, 46, 48
1, 81225, Note_off_c, 0, 64, 58
1, 81230, Note_off_c, 0, 40, 42
1, 81231, Control_c, 0, 64, 90
1, 81240, Note_off_c, 0, 52, 36
1, 81246, Control_c, 0, 64, 97
1, 81261, Control_c, 0, 64, 103
1, 81275, Control_c, 0, 64, 108
1, 81284, Note_on_c, 0, 40, 36
1, 81290, Control_c, 0, 64, 115
1, 81300, Note_on_c, 0, 46, 35
1, 81300, Note_on_c, 0, 43, 45
1, 81305, Control_c, 0, 64, 127
1, 81335, Note_on_c, 0, 63, 64
1, 81345, Note_on_c, 0, 51, 57
1, 81357, Note_off_c, 0, 43, 55
1, 81364, Note_off_c, 0, 63, 64
1, 81369, Note_off_c, 0, 40, 53
1, 81371, Note_off_c, 0, 46, 41
1, 81371, Note_off_c, 0, 51, 62
1, 81380, Control_c, 0, 64, 105
1, 81395, Control_c, 0, 64, 90
1, 81410, Control_c, 0, 64, 77
1, 81425, Note_on_c, 0, 63, 68
1, 81425, Control_c, 0, 64, 66
1, 81440, Control_c, 0, 64, 44
1, 81440, Note_on_c, 0, 51, 54
1, 81454, Control_c, 0, 64, 50
1, 81469, Control_c, 0, 64, 63
1, 81481, Note_on_c, 0, 39, 48
1, 81484, Control_c, 0, 64, 68
1, 81485, Note_on_c, 0, 43, 50
1, 81485, Note_on_c, 0, 46, 38
1, 81498, Control_c, 0, 64, 73
1, 81513, Control_c, 0, 64, 82
1, 81524, Note_off_c, 0, 43, 59
1, 81527, Note_off_c, 0, 51, 54
1, 81528, Control_c, 0, 64, 91
1, 81538, Note_off_c, 0, 63, 57
1, 81543, Note_off_c, 0, 46, 44
1, 81543, Control_c, 0, 64, 98
1, 81558, Control_c, 0, 64, 106
1, 81569, Note_off_c, 0, 39, 0
1, 81572, Control_c, 0, 64, 118
1, 81587, Control_c, 0, 64, 127
1, 81593, Note_on_c, 0, 39, 33
1, 81616, Note_on_c, 0, 46, 38
1, 81627, Note_on_c, 0, 43, 49
1, 81634, Note_on_c, 0, 64, 63
1, 81641, Note_on_c, 0, 52, 54
1, 81646, Control_c, 0, 64, 116
1, 81656, Note_off_c, 0, 64, 66
1, 81661, Note_off_c, 0, 43, 59
1, 81661, Control_c, 0, 64, 98
1, 81669, Note_off_c, 0, 46, 53
1, 81676, Control_c, 0, 64, 85
1, 81683, Note_off_c, 0, 52, 43
1, 81691, Control_c, 0, 64, 75
1, 81696, Note_off_c, 0, 39, 44
1, 81705, Control_c, 0, 64, 68
1, 81716, Note_on_c, 0, 52, 52
1, 81720, Control_c, 0, 64, 67
1, 81721, Note_on_c, 0, 64, 73
1, 81735, Control_c, 0, 64, 69
1, 81750, Control_c, 0, 64, 73
1, 81765, Control_c, 0, 64, 77
1, 81774, Note_on_c, 0, 43, 46
1, 81776, Note_on_c, 0, 46, 47
1, 81777, Note_off_c, 0, 52, 56
1, 81780, Control_c, 0, 64, 83
1, 81783, Note_on_c, 0, 40, 55
1, 81802, Control_c, 0, 64, 92
1, 81810, Note_off_c, 0, 64, 61
1, 81817, Control_c, 0, 64, 102
1, 81832, Control_c, 0, 64, 116
1, 81835, Note_off_c, 0, 46, 52
1, 81836, Note_off_c, 0, 43, 58
1, 81847, Control_c, 0, 64, 127
1, 81913, Note_on_c, 0, 65, 68
1, 81920, Control_c, 0, 64, 119
1, 81927, Note_on_c, 0, 53, 50
1, 81929, Note_on_c, 0, 46, 52
1, 81935, Control_c, 0, 64, 99
1, 81938, Note_off_c, 0, 65, 67
1, 81942, Note_on_c, 0, 41, 52
1, 81950, Control_c, 0, 64, 87
1, 81961, Note_off_c, 0, 40, 22
1, 81965, Control_c, 0, 64, 77
1, 81976, Note_off_c, 0, 46, 49
1, 81980, Control_c, 0, 64, 69
1, 81983, Note_off_c, 0, 53, 0
1, 81984, Note_off_c, 0, 41, 59
1, 81994, Control_c, 0, 64, 67
1, 81995, Note_on_c, 0, 65, 77
1, 81996, Note_on_c, 0, 53, 55
1, 82009, Control_c, 0, 64, 69
1, 82024, Control_c, 0, 64, 73
1, 82039, Control_c, 0, 64, 78
1, 82054, Control_c, 0, 64, 83
1, 82069, Control_c, 0, 64, 89
1, 82070, Note_on_c, 0, 41, 64
1, 82074, Note_on_c, 0, 46, 57
1, 82074, Note_off_c, 0, 53, 53
1, 82084, Control_c, 0, 64, 97
1, 82084, Note_off_c, 0, 65, 60
1, 82098, Control_c, 0, 64, 107
1, 82113, Control_c, 0, 64, 127
1, 82133, Note_off_c, 0, 41, 57
1, 82169, Note_off_c, 0, 46, 36
1, 82179, Note_on_c, 0, 66, 73
1, 82197, Note_on_c, 0, 54, 56
1, 82206, Note_off_c, 0, 66, 63
1, 82218, Control_c, 0, 64, 104
1, 82220, Note_off_c, 0, 54, 62
1, 82233, Control_c, 0, 64, 89
1, 82248, Control_c, 0, 64, 79
1, 82262, Note_on_c, 0, 66, 72
1, 82263, Control_c, 0, 64, 70
1, 82275, Note_on_c, 0, 54, 60
1, 82276, Note_on_c, 0, 46, 58
1, 82278, Control_c, 0, 64, 68
1, 82282, Note_on_c, 0, 42, 61
1, 82293, Control_c, 0, 64, 71
1, 82307, Control_c, 0, 64, 75
1, 82322, Control_c, 0, 64, 81
1, 82337, Control_c, 0, 64, 89
1, 82352, Control_c, 0, 64, 101
1, 82359, Note_off_c, 0, 54, 59
1, 82364, Note_off_c, 0, 46, 0
1, 82367, Control_c, 0, 64, 127
1, 82371, Note_off_c, 0, 66, 57
1, 82380, Note_on_c, 0, 46, 46
1, 82387, Note_off_c, 0, 42, 0
1, 82424, Poly_aftertouch_c, 0, 42, 127
1, 82446, Note_off_c, 0, 46, 62
1, 82465, Note_on_c, 0, 67, 71
1, 82469, Note_on_c, 0, 55, 68
1, 82474, Poly_aftertouch_c, 0, 42, 0
1, 82490, Note_off_c, 0, 67, 68
1, 82494, Note_off_c, 0, 55, 64
1, 82515, Control_c, 0, 64, 99
1, 82529, Control_c, 0, 64, 85
1, 82549, Note_on_c, 0, 67, 76
1, 82552, Control_c, 0, 64, 75
1, 82559, Note_on_c, 0, 55, 76
1, 82567, Control_c, 0, 64, 71
1, 82582, Control_c, 0, 64, 71
1, 82597, Control_c, 0, 64, 74
1, 82607, Note_on_c, 0, 43, 57
1, 82610, Note_on_c, 0, 52, 60
1, 82611, Control_c, 0, 64, 78
1, 82619, Note_on_c, 0, 46, 51
1, 82623, Note_off_c, 0, 55, 56
1, 82626, Control_c, 0, 64, 85
1, 82641, Control_c, 0, 64, 95
1, 82652, Note_off_c, 0, 46, 63
1, 82653, Note_off_c, 0, 67, 60
1, 82656, Control_c, 0, 64, 119
1, 82658, Note_off_c, 0, 52, 54
1, 82671, Control_c, 0, 64, 127
1, 82725, Note_on_c, 0, 52, 56
1, 82726, Note_on_c, 0, 46, 64
1, 82737, Note_on_c, 0, 44, 60
1, 82749, Note_on_c, 0, 68, 73
1, 82760, Control_c, 0, 64, 99
1, 82761, Note_on_c, 0, 56, 64
1, 82773, Note_off_c, 0, 68, 67
1, 82775, Control_c, 0, 64, 73
1, 82782, Note_off_c, 0, 56, 63
1, 82790, Control_c, 0, 64, 0
1, 82826, Note_on_c, 0, 68, 82
1, 82833, Note_off_c, 0, 44, 60
1, 82834, Control_c, 0, 64, 64
1, 82836, Note_on_c, 0, 56, 79
1, 82841, Note_off_c, 0, 46, 34
1, 82845, Note_off_c, 0, 43, 47
1, 82848, Control_c, 0, 64, 76
1, 82863, Control_c, 0, 64, 95
1, 82877, Note_off_c, 0, 52, 60
1, 82878, Control_c, 0, 64, 127
1, 82942, Note_off_c, 0, 56, 59
1, 82959, Note_off_c, 0, 68, 59
1, 82992, Note_on_c, 0, 45, 62
1, 83008, Note_on_c, 0, 52, 55
1, 83013, Note_on_c, 0, 55, 56
1, 83041, Note_on_c, 0, 69, 68
1, 83042, Control_c, 0, 67, 126
1, 83047, Note_on_c, 0, 57, 59
1, 83056, Note_off_c, 0, 55, 63
1, 83057, Control_c, 0, 67, 115
1, 83068, Note_off_c, 0, 69, 69
1, 83068, Note_off_c, 0, 57, 64
1, 83071, Control_c, 0, 67, 100
1, 83086, Control_c, 0, 67, 81
1, 83101, Control_c, 0, 67, 70
1, 83110, Note_off_c, 0, 52, 60
1, 83115, Note_on_c, 0, 46, 61
1, 83115, Note_on_c, 0, 69, 78
1, 83116, Control_c, 0, 67, 66
1, 83124, Note_on_c, 0, 57, 71
1, 83145, Note_off_c, 0, 45, 63
1, 83160, Control_c, 0, 67, 68
1, 83175, Note_off_c, 0, 46, 62
1, 83175, Control_c, 0, 67, 70
1, 83190, Control_c, 0, 67, 71
1, 83198, Note_off_c, 0, 57, 56
1, 83205, Control_c, 0, 67, 72
1, 83220, Control_c, 0, 67, 73
1, 83223, Note_off_c, 0, 69, 61
1, 83235, Control_c, 0, 67, 75
1, 83249, Control_c, 0, 67, 77
1, 83264, Control_c, 0, 67, 79
1, 83279, Control_c, 0, 67, 82
1, 83301, Control_c, 0, 67, 88
1, 83316, Control_c, 0, 67, 92
1, 83327, Note_on_c, 0, 70, 77
1, 83331, Control_c, 0, 67, 94
1, 83338, Note_on_c, 0, 58, 70
1, 83345, Control_c, 0, 64, 90
1, 83345, Control_c, 0, 67, 95
1, 83351, Note_off_c, 0, 70, 67
1, 83360, Control_c, 0, 64, 53
1, 83363, Note_off_c, 0, 58, 65
1, 83366, Note_on_c, 0, 25, 73
1, 83375, Control_c, 0, 64, 0
1, 83375, Control_c, 0, 67, 93
1, 83383, Note_on_c, 0, 37, 58
1, 83390, Control_c, 0, 67, 91
1, 83397, Note_off_c, 0, 25, 60
1, 83405, Note_on_c, 0, 70, 83
1, 83405, Control_c, 0, 64, 74
1, 83405, Control_c, 0, 67, 89
1, 83413, Note_on_c, 0, 58, 82
1, 83415, Note_off_c, 0, 37, 63
1, 83420, Control_c, 0, 64, 122
1, 83420, Control_c, 0, 67, 85
1, 83434, Control_c, 0, 64, 127
1, 83434, Control_c, 0, 67, 83
1, 83449, Control_c, 0, 67, 79
1, 83464, Control_c, 0, 67, 74
1, 83479, Control_c, 0, 67, 68
1, 83494, Control_c, 0, 67, 59
1, 83509, Control_c, 0, 67, 52
1, 83519, Note_off_c, 0, 58, 58
1, 83524, Control_c, 0, 67, 44
1, 83526, Note_off_c, 0, 70, 61
1, 83539, Control_c, 0, 67, 34
1, 83552, Note_on_c, 0, 55, 66
1, 83553, Control_c, 0, 67, 25
1, 83562, Note_on_c, 0, 46, 62
1, 83566, Note_on_c, 0, 52, 50
1, 83568, Control_c, 0, 67, 13
1, 83583, Control_c, 0, 67, 0
1, 83593, Note_off_c, 0, 55, 56
1, 83599, Note_off_c, 0, 52, 63
1, 83610, Note_off_c, 0, 46, 63
1, 83616, Note_on_c, 0, 69, 75
1, 83620, Note_on_c, 0, 57, 66
1, 83636, Note_off_c, 0, 69, 70
1, 83647, Note_off_c, 0, 57, 64
1, 83673, Note_on_c, 0, 52, 65
1, 83688, Note_on_c, 0, 69, 89
1, 83693, Note_on_c, 0, 55, 43
1, 83694, Note_on_c, 0, 57, 86
1, 83695, Note_on_c, 0, 45, 40
1, 83708, Note_off_c, 0, 52, 61
1, 83720, Note_off_c, 0, 55, 56
1, 83722, Note_off_c, 0, 57, 62
1, 83744, Note_off_c, 0, 45, 0
1, 83752, Note_off_c, 0, 69, 66
1, 83759, Note_on_c, 0, 45, 62
1, 83771, Note_on_c, 0, 52, 67
1, 83771, Note_on_c, 0, 55, 67
1, 83798, Note_off_c, 0, 45, 66
1, 83802, Note_off_c, 0, 52, 63
1, 83821, Note_off_c, 0, 55, 61
1, 83882, Note_on_c, 0, 82, 90
1, 83887, Note_on_c, 0, 70, 85
1, 83902, Note_off_c, 0, 82, 64
1, 83905, Note_off_c, 0, 70, 67
1, 83939, Control_c, 0, 64, 102
1, 83954, Control_c, 0, 64, 74
1, 83956, Note_on_c, 0, 82, 91
1, 83965, Note_on_c, 0, 70, 81
1, 83968, Control_c, 0, 64, 0
1, 84012, Note_on_c, 0, 58, 61
1, 84013, Control_c, 0, 64, 39
1, 84019, Note_on_c, 0, 64, 61
1, 84021, Note_on_c, 0, 67, 52
1, 84028, Control_c, 0, 64, 64
1, 84039, Note_off_c, 0, 58, 65
1, 84050, Control_c, 0, 64, 72
1, 84054, Note_off_c, 0, 67, 55
1, 84055, Note_off_c, 0, 64, 66
1, 84065, Control_c, 0, 64, 83
1, 84080, Control_c, 0, 64, 102
1, 84094, Control_c, 0, 64, 127
1, 84108, Note_off_c, 0, 70, 59
1, 84110, Note_off_c, 0, 82, 62
1, 84111, Note_on_c, 0, 67, 63
1, 84125, Note_on_c, 0, 57, 51
1, 84127, Note_on_c, 0, 64, 54
1, 84148, Note_off_c, 0, 67, 62
1, 84170, Note_off_c, 0, 64, 58
1, 84194, Note_on_c, 0, 81, 71
1, 84207, Note_on_c, 0, 69, 51
1, 84221, Note_off_c, 0, 81, 61
1, 84230, Note_off_c, 0, 69, 60
1, 84257, Control_c, 0, 67, 17
1, 84263, Note_off_c, 0, 57, 61
1, 84272, Control_c, 0, 64, 94
1, 84272, Control_c, 0, 67, 44
1, 84287, Control_c, 0, 64, 71
1, 84287, Control_c, 0, 67, 85
1, 84296, Note_on_c, 0, 81, 69
1, 84300, Note_on_c, 0, 69, 60
1, 84301, Control_c, 0, 64, 0
1, 84301, Control_c, 0, 67, 120
1, 84316, Control_c, 0, 67, 127
1, 84346, Control_c, 0, 64, 43
1, 84361, Control_c, 0, 64, 67
1, 84375, Control_c, 0, 64, 77
1, 84390, Control_c, 0, 64, 91
1, 84405, Control_c, 0, 64, 111
1, 84419, Control_c, 0, 64, 127
1, 84449, Note_off_c, 0, 81, 54
1, 84499, Note_off_c, 0, 69, 59
1, 84649, Note_on_c, 0, 64, 54
1, 84658, Control_c, 0, 64, 95
1, 84662, Note_on_c, 0, 76, 41
1, 84670, Note_off_c, 0, 64, 61
1, 84672, Control_c, 0, 64, 69
1, 84687, Control_c, 0, 64, 0
1, 84712, Note_off_c, 0, 76, 0
1, 84714, Note_on_c, 0, 26, 59
1, 84725, Note_on_c, 0, 76, 41
1, 84731, Control_c, 0, 64, 62
1, 84739, Note_on_c, 0, 64, 52
1, 84746, Control_c, 0, 64, 83
1, 84747, Note_off_c, 0, 26, 62
1, 84748, Note_on_c, 0, 38, 24
1, 84761, Control_c, 0, 64, 127
1, 84804, Note_off_c, 0, 38, 48
1, 84853, Note_off_c, 0, 64, 55
1, 84874, Note_off_c, 0, 76, 60
1, 84912, Note_on_c, 0, 52, 60
1, 84916, Note_on_c, 0, 47, 55
1, 84940, Note_on_c, 0, 44, 34
1, 84945, Note_off_c, 0, 52, 60
1, 84949, Note_off_c, 0, 47, 64
1, 84961, Note_on_c, 0, 77, 63
1, 84963, Note_on_c, 0, 65, 56
1, 84978, Note_off_c, 0, 44, 50
1, 84979, Note_off_c, 0, 77, 67
1, 84985, Note_off_c, 0, 65, 62
1, 85037, Note_on_c, 0, 47, 53
1, 85037, Note_on_c, 0, 65, 74
1, 85041, Note_on_c, 0, 77, 81
1, 85050, Note_on_c, 0, 44, 26
1, 85084, Note_off_c, 0, 77, 63
1, 85087, Note_off_c, 0, 47, 0
1, 85091, Note_on_c, 0, 53, 8
1, 85098, Note_off_c, 0, 44, 0
1, 85098, Note_on_c, 0, 44, 25
1, 85107, Note_off_c, 0, 65, 60
1, 85121, Note_on_c, 0, 47, 31
1, 85148, Note_off_c, 0, 47, 61
1, 85160, Note_off_c, 0, 44, 60
1, 85171, Note_off_c, 0, 53, 59
1, 85223, Note_on_c, 0, 73, 77
1, 85234, Note_on_c, 0, 61, 69
1, 85247, Note_off_c, 0, 73, 68
1, 85256, Note_off_c, 0, 61, 65
1, 85302, Control_c, 0, 64, 104
1, 85309, Note_on_c, 0, 73, 84
1, 85318, Note_on_c, 0, 61, 71
1, 85318, Control_c, 0, 64, 74
1, 85333, Control_c, 0, 64, 0
1, 85362, Control_c, 0, 64, 27
1, 85366, Note_on_c, 0, 59, 59
1, 85377, Control_c, 0, 64, 64
1, 85382, Note_on_c, 0, 65, 46
1, 85392, Control_c, 0, 64, 72
1, 85401, Note_off_c, 0, 59, 61
1, 85407, Control_c, 0, 64, 89
1, 85410, Note_off_c, 0, 65, 56
1, 85421, Control_c, 0, 64, 127
1, 85459, Note_on_c, 0, 65, 55
1, 85463, Poly_aftertouch_c, 0, 56, 127
1, 85464, Note_off_c, 0, 61, 59
1, 85469, Note_on_c, 0, 59, 53
1, 85475, Note_off_c, 0, 73, 58
1, 85488, Note_on_c, 0, 56, 3
1, 85491, Note_off_c, 0, 65, 64
1, 85542, Note_off_c, 0, 59, 53
1, 85562, Control_c, 0, 64, 118
1, 85572, Note_on_c, 0, 62, 57
1, 85573, Note_on_c, 0, 74, 60
1, 85577, Control_c, 0, 64, 88
1, 85589, Note_off_c, 0, 56, 53
1, 85592, Control_c, 0, 64, 71
1, 85593, Note_off_c, 0, 74, 60
1, 85604, Note_off_c, 0, 62, 49
1, 85607, Control_c, 0, 64, 59
1, 85607, Control_c, 0, 67, 126
1, 85621, Control_c, 0, 64, 64
1, 85621, Control_c, 0, 67, 103
1, 85637, Control_c, 0, 64, 71
1, 85637, Control_c, 0, 67, 66
1, 85652, Control_c, 0, 64, 81
1, 85652, Control_c, 0, 67, 25
1, 85663, Note_on_c, 0, 74, 73
1, 85666, Control_c, 0, 64, 102
1, 85666, Control_c, 0, 67, 0
1, 85668, Note_on_c, 0, 62, 52
1, 85681, Control_c, 0, 64, 127
1, 85727, Note_off_c, 0, 74, 60
1, 85766, Note_off_c, 0, 62, 58
1, 85870, Note_on_c, 0, 68, 70
1, 85873, Note_on_c, 0, 56, 76
1, 85893, Note_off_c, 0, 68, 67
1, 85898, Note_off_c, 0, 56, 67
1, 85918, Control_c, 0, 64, 93
1, 85933, Control_c, 0, 64, 48
1, 85935, Note_on_c, 0, 25, 77
1, 85941, Note_on_c, 0, 37, 73
1, 85941, Note_on_c, 0, 56, 80
1, 85941, Note_on_c, 0, 68, 85
1, 85947, Control_c, 0, 64, 0
1, 85959, Note_off_c, 0, 25, 63
1, 85962, Control_c, 0, 64, 67
1, 85971, Note_off_c, 0, 37, 66
1, 85977, Control_c, 0, 64, 127
1, 86061, Note_off_c, 0, 68, 59
1, 86064, Note_off_c, 0, 56, 60
1, 86089, Note_on_c, 0, 44, 78
1, 86096, Note_on_c, 0, 52, 67
1, 86132, Note_off_c, 0, 52, 61
1, 86135, Note_off_c, 0, 44, 59
1, 86145, Note_on_c, 0, 57, 71
1, 86147, Note_on_c, 0, 69, 68
1, 86171, Note_off_c, 0, 57, 67
1, 86173, Note_off_c, 0, 69, 68
1, 86212, Note_on_c, 0, 57, 89
1, 86212, Note_on_c, 0, 69, 82
1, 86213, Note_on_c, 0, 52, 61
1, 86227, Note_on_c, 0, 45, 59
1, 86243, Note_off_c, 0, 52, 62
1, 86245, Note_off_c, 0, 57, 67
1, 86254, Note_off_c, 0, 45, 63
1, 86278, Note_off_c, 0, 69, 66
1, 86307, Note_on_c, 0, 45, 75
1, 86318, Note_on_c, 0, 52, 72
1, 86335, Note_off_c, 0, 45, 66
1, 86342, Note_off_c, 0, 52, 68
1, 86418, Note_on_c, 0, 70, 92
1, 86424, Note_on_c, 0, 82, 82
1, 86430, Control_c, 0, 64, 81
1, 86436, Note_off_c, 0, 70, 71
1, 86442, Note_off_c, 0, 82, 70
1, 86445, Control_c, 0, 64, 0
1, 86489, Note_on_c, 0, 82, 100
1, 86490, Note_on_c, 0, 70, 93
1, 86504, Control_c, 0, 64, 59
1, 86519, Control_c, 0, 64, 75
1, 86531, Note_on_c, 0, 58, 76
1, 86534, Control_c, 0, 64, 107
1, 86534, Note_on_c, 0, 64, 69
1, 86542, Note_on_c, 0, 67, 58
1, 86549, Control_c, 0, 64, 127
1, 86558, Note_off_c, 0, 58, 64
1, 86560, Note_off_c, 0, 64, 68
1, 86564, Note_off_c, 0, 67, 63
1, 86622, Note_on_c, 0, 64, 77
1, 86622, Note_off_c, 0, 70, 60
1, 86626, Note_off_c, 0, 82, 63
1, 86630, Note_on_c, 0, 67, 76
1, 86635, Note_on_c, 0, 57, 69
1, 86651, Note_off_c, 0, 67, 69
1, 86670, Note_off_c, 0, 64, 60
1, 86682, Control_c, 0, 64, 87
1, 86685, Note_off_c, 0, 57, 58
1, 86696, Control_c, 0, 64, 0
1, 86713, Note_on_c, 0, 81, 77
1, 86715, Note_on_c, 0, 69, 77
1, 86734, Note_off_c, 0, 81, 70
1, 86738, Note_off_c, 0, 69, 71
1, 86741, Control_c, 0, 64, 66
1, 86756, Control_c, 0, 64, 104
1, 86770, Control_c, 0, 64, 127
1, 86793, Note_on_c, 0, 81, 84
1, 86799, Note_on_c, 0, 69, 73
1, 86853, Note_off_c, 0, 81, 63
1, 86872, Note_off_c, 0, 69, 58
1, 87008, Note_on_c, 0, 76, 69
1, 87011, Note_on_c, 0, 64, 66
1, 87023, Control_c, 0, 64, 96
1, 87026, Note_off_c, 0, 76, 66
1, 87030, Note_off_c, 0, 64, 66
1, 87046, Control_c, 0, 64, 54
1, 87061, Control_c, 0, 64, 0
1, 87074, Note_on_c, 0, 26, 65
1, 87075, Control_c, 0, 64, 57
1, 87085, Note_on_c, 0, 38, 53
1, 87090, Note_on_c, 0, 76, 83
1, 87090, Control_c, 0, 64, 86
1, 87091, Note_on_c, 0, 64, 74
1, 87105, Control_c, 0, 64, 127
1, 87106, Note_off_c, 0, 26, 56
1, 87119, Note_off_c, 0, 38, 51
1, 87164, Note_off_c, 0, 64, 56
1, 87193, Note_off_c, 0, 76, 60
1, 87239, Note_on_c, 0, 52, 66
1, 87241, Note_on_c, 0, 47, 54
1, 87262, Note_on_c, 0, 44, 45
1, 87271, Note_off_c, 0, 52, 61
1, 87273, Note_off_c, 0, 47, 65
1, 87292, Note_on_c, 0, 77, 70
1, 87292, Note_on_c, 0, 65, 67
1, 87296, Note_off_c, 0, 44, 52
1, 87315, Note_off_c, 0, 77, 71
1, 87321, Note_off_c, 0, 65, 65
1, 87355, Note_on_c, 0, 47, 58
1, 87360, Note_on_c, 0, 44, 53
1, 87360, Note_on_c, 0, 77, 79
1, 87364, Note_on_c, 0, 65, 79
1, 87385, Note_off_c, 0, 44, 61
1, 87394, Note_off_c, 0, 47, 59
1, 87413, Note_off_c, 0, 77, 65
1, 87419, Poly_aftertouch_c, 0, 53, 127
1, 87423, Note_off_c, 0, 65, 60
1, 87429, Note_on_c, 0, 53, 23
1, 87470, Note_on_c, 0, 44, 35
1, 87492, Note_off_c, 0, 53, 63
1, 87504, Note_off_c, 0, 44, 54
1, 87556, Note_on_c, 0, 73, 74
1, 87560, Note_on_c, 0, 61, 74
1, 87580, Note_off_c, 0, 73, 68
1, 87586, Note_off_c, 0, 61, 66
1, 87608, Control_c, 0, 64, 124
1, 87623, Control_c, 0, 64, 91
1, 87631, Note_on_c, 0, 73, 81
1, 87637, Control_c, 0, 64, 71
1, 87640, Note_on_c, 0, 61, 67
1, 87652, Control_c, 0, 64, 0
1, 87705, Note_on_c, 0, 59, 58
1, 87709, Note_on_c, 0, 65, 56
1, 87713, Control_c, 0, 64, 60
1, 87728, Control_c, 0, 64, 68
1, 87733, Note_off_c, 0, 65, 62
1, 87736, Note_off_c, 0, 59, 64
1, 87742, Control_c, 0, 64, 76
1, 87757, Control_c, 0, 64, 84
1, 87764, Note_on_c, 0, 56, 6
1, 87772, Control_c, 0, 64, 91
1, 87795, Control_c, 0, 64, 97
1, 87810, Control_c, 0, 64, 100
1, 87818, Note_on_c, 0, 65, 58
1, 87822, Note_on_c, 0, 59, 54
1, 87824, Control_c, 0, 64, 101
1, 87833, Note_off_c, 0, 73, 51
1, 87849, Note_off_c, 0, 61, 36
1, 87850, Note_off_c, 0, 65, 60
1, 87855, Note_off_c, 0, 59, 61
1, 87892, Note_off_c, 0, 56, 47
1, 87921, Note_on_c, 0, 62, 59
1, 87921, Note_on_c, 0, 74, 63
1, 87956, Control_c, 0, 64, 100
1, 87957, Note_off_c, 0, 74, 60
1, 87963, Note_off_c, 0, 62, 56
1, 87971, Control_c, 0, 64, 98
1, 87986, Control_c, 0, 64, 96
1, 88001, Control_c, 0, 64, 94
1, 88016, Control_c, 0, 64, 90
1, 88031, Control_c, 0, 64, 87
1, 88046, Control_c, 0, 64, 81
1, 88061, Control_c, 0, 64, 74
1, 88068, Note_on_c, 0, 74, 58
1, 88075, Control_c, 0, 64, 59
1, 88078, Note_on_c, 0, 62, 33
1, 88090, Control_c, 0, 64, 0
1, 88194, Control_c, 0, 64, 65
1, 88209, Control_c, 0, 64, 87
1, 88223, Control_c, 0, 64, 127
1, 88263, Note_off_c, 0, 74, 37
1, 88299, Note_off_c, 0, 62, 54
1, 88549, Note_on_c, 0, 68, 58
1, 88559, Note_on_c, 0, 56, 49
1, 88639, Note_off_c, 0, 68, 54
1, 88645, Note_off_c, 0, 56, 39
1, 88752, Note_on_c, 0, 68, 51
1, 88764, Note_on_c, 0, 56, 41
1, 88901, Note_on_c, 0, 52, 43
1, 88914, Note_on_c, 0, 49, 35
1, 88949, Note_off_c, 0, 52, 55
1, 88955, Note_off_c, 0, 49, 51
1, 89058, Note_off_c, 0, 56, 37
1, 89068, Note_on_c, 0, 49, 43
1, 89071, Note_on_c, 0, 52, 30
1, 89128, Note_off_c, 0, 49, 50
1, 89131, Note_off_c, 0, 52, 44
1, 89164, Note_on_c, 0, 69, 58
1, 89175, Note_on_c, 0, 57, 47
1, 89193, Note_off_c, 0, 68, 32
1, 89205, Note_off_c, 0, 69, 57
1, 89211, Note_off_c, 0, 57, 55
1, 89287, Note_on_c, 0, 69, 57
1, 89307, Note_on_c, 0, 57, 42
1, 89369, Note_on_c, 0, 49, 55
1, 89375, Note_on_c, 0, 52, 43
1, 89403, Note_off_c, 0, 52, 56
1, 89404, Note_off_c, 0, 49, 61
1, 89411, Note_off_c, 0, 57, 38
1, 89435, Note_off_c, 0, 69, 58
1, 89494, Note_on_c, 0, 52, 49
1, 89502, Note_on_c, 0, 49, 53
1, 89592, Note_on_c, 0, 70, 59
1, 89618, Note_off_c, 0, 52, 54
1, 89619, Note_on_c, 0, 58, 26
1, 89621, Note_off_c, 0, 70, 65
1, 89664, Note_off_c, 0, 49, 50
1, 89685, Note_on_c, 0, 70, 71
1, 89686, Note_off_c, 0, 58, 0
1, 89700, Note_on_c, 0, 58, 46
1, 89766, Control_c, 0, 64, 98
1, 89780, Control_c, 0, 64, 76
1, 89793, Note_on_c, 0, 51, 56
1, 89795, Note_on_c, 0, 54, 54
1, 89795, Control_c, 0, 64, 63
1, 89801, Note_on_c, 0, 48, 50
1, 89810, Control_c, 0, 64, 54
1, 89825, Control_c, 0, 64, 65
1, 89827, Note_off_c, 0, 54, 58
1, 89831, Note_off_c, 0, 51, 64
1, 89836, Note_off_c, 0, 48, 61
1, 89839, Control_c, 0, 64, 73
1, 89854, Control_c, 0, 64, 83
1, 89869, Control_c, 0, 64, 101
1, 89878, Note_off_c, 0, 58, 53
1, 89879, Note_off_c, 0, 70, 58
1, 89884, Control_c, 0, 64, 127
1, 89894, Note_on_c, 0, 48, 58
1, 89904, Note_on_c, 0, 51, 55
1, 89906, Note_on_c, 0, 54, 53
1, 89954, Note_on_c, 0, 69, 63
1, 89956, Note_on_c, 0, 57, 57
1, 89970, Note_off_c, 0, 54, 49
1, 89980, Note_off_c, 0, 57, 62
1, 89982, Note_off_c, 0, 69, 67
1, 89983, Note_off_c, 0, 51, 60
1, 89989, Note_off_c, 0, 48, 58
1, 90046, Note_on_c, 0, 69, 80
1, 90054, Note_on_c, 0, 57, 70
1, 90087, Note_on_c, 0, 54, 51
1, 90091, Note_off_c, 0, 57, 61
1, 90100, Note_on_c, 0, 48, 48
1, 90101, Note_on_c, 0, 51, 46
1, 90114, Note_off_c, 0, 54, 63
1, 90123, Note_off_c, 0, 69, 60
1, 90144, Note_off_c, 0, 51, 45
1, 90157, Note_off_c, 0, 48, 0
1, 90171, Note_on_c, 0, 48, 54
1, 90182, Note_on_c, 0, 51, 59
1, 90183, Note_on_c, 0, 54, 68
1, 90256, Note_off_c, 0, 54, 63
1, 90259, Note_on_c, 0, 73, 77
1, 90266, Note_on_c, 0, 61, 70
1, 90282, Note_off_c, 0, 73, 69
1, 90284, Note_off_c, 0, 51, 56
1, 90292, Note_off_c, 0, 48, 60
1, 90293, Note_off_c, 0, 61, 65
1, 90338, Note_on_c, 0, 73, 86
1, 90352, Note_on_c, 0, 61, 71
1, 90365, Control_c, 0, 64, 103
1, 90380, Control_c, 0, 64, 82
1, 90395, Control_c, 0, 64, 67
1, 90410, Control_c, 0, 64, 57
1, 90412, Note_on_c, 0, 47, 64
1, 90413, Note_on_c, 0, 50, 59
1, 90413, Note_on_c, 0, 54, 62
1, 90414, Note_on_c, 0, 57, 62
1, 90424, Control_c, 0, 64, 65
1, 90439, Control_c, 0, 64, 73
1, 90440, Note_off_c, 0, 54, 66
1, 90445, Note_off_c, 0, 50, 66
1, 90447, Note_off_c, 0, 47, 64
1, 90449, Note_off_c, 0, 57, 61
1, 90454, Control_c, 0, 64, 91
1, 90454, Note_off_c, 0, 61, 57
1, 90460, Note_off_c, 0, 73, 57
1, 90469, Control_c, 0, 64, 127
1, 90497, Note_on_c, 0, 54, 67
1, 90503, Note_on_c, 0, 57, 65
1, 90504, Note_on_c, 0, 47, 69
1, 90516, Note_on_c, 0, 50, 69
1, 90562, Note_on_c, 0, 62, 66
1, 90562, Note_on_c, 0, 74, 70
1, 90583, Note_off_c, 0, 74, 67
1, 90585, Note_off_c, 0, 62, 64
1, 90587, Note_off_c, 0, 54, 60
1, 90588, Note_off_c, 0, 57, 52
1, 90588, Note_off_c, 0, 50, 59
1, 90600, Note_off_c, 0, 47, 56
1, 90630, Note_on_c, 0, 74, 94
1, 90634, Note_on_c, 0, 62, 84
1, 90691, Note_on_c, 0, 54, 70
1, 90694, Note_on_c, 0, 57, 64
1, 90695, Note_on_c, 0, 50, 62
1, 90698, Note_on_c, 0, 47, 56
1, 90714, Note_off_c, 0, 62, 57
1, 90725, Note_off_c, 0, 54, 67
1, 90725, Note_off_c, 0, 57, 64
1, 90729, Note_off_c, 0, 74, 60
1, 90732, Note_off_c, 0, 47, 62
1, 90732, Note_off_c, 0, 50, 64
1, 90797, Note_on_c, 0, 57, 74
1, 90799, Note_on_c, 0, 47, 77
1, 90804, Note_on_c, 0, 50, 69
1, 90804, Note_on_c, 0, 54, 71
1, 90855, Note_on_c, 0, 75, 82
1, 90857, Note_on_c, 0, 63, 85
1, 90875, Note_off_c, 0, 75, 68
1, 90877, Note_off_c, 0, 63, 70
1, 90898, Note_off_c, 0, 47, 62
1, 90920, Note_off_c, 0, 54, 61
1, 90922, Control_c, 0, 64, 104
1, 90926, Note_off_c, 0, 57, 55
1, 90932, Note_on_c, 0, 63, 96
1, 90932, Note_on_c, 0, 75, 93
1, 90935, Note_off_c, 0, 50, 64
1, 90937, Control_c, 0, 64, 79
1, 90952, Control_c, 0, 64, 57
1, 90966, Control_c, 0, 64, 0
1, 90996, Control_c, 0, 64, 61
1, 91011, Control_c, 0, 64, 73
1, 91014, Note_on_c, 0, 57, 72
1, 91021, Note_on_c, 0, 50, 53
1, 91023, Note_on_c, 0, 46, 57
1, 91026, Control_c, 0, 64, 95
1, 91040, Control_c, 0, 64, 127
1, 91042, Note_off_c, 0, 57, 62
1, 91051, Note_off_c, 0, 46, 62
1, 91056, Note_off_c, 0, 50, 66
1, 91057, Note_off_c, 0, 75, 62
1, 91059, Note_off_c, 0, 63, 57
1, 91107, Note_on_c, 0, 57, 79
1, 91116, Note_on_c, 0, 46, 72
1, 91127, Note_on_c, 0, 50, 74
1, 91158, Note_on_c, 0, 74, 74
1, 91160, Note_on_c, 0, 62, 71
1, 91164, Note_off_c, 0, 57, 61
1, 91173, Note_off_c, 0, 46, 61
1, 91181, Note_off_c, 0, 50, 61
1, 91182, Note_off_c, 0, 74, 71
1, 91185, Note_off_c, 0, 62, 67
1, 91229, Note_on_c, 0, 62, 86
1, 91232, Note_on_c, 0, 74, 87
1, 91272, Note_on_c, 0, 55, 80
1, 91275, Note_off_c, 0, 62, 62
1, 91280, Note_on_c, 0, 46, 63
1, 91280, Note_on_c, 0, 50, 65
1, 91298, Note_off_c, 0, 74, 65
1, 91310, Note_off_c, 0, 46, 63
1, 91310, Note_off_c, 0, 50, 66
1, 91319, Note_off_c, 0, 55, 61
1, 91372, Note_on_c, 0, 55, 74
1, 91375, Note_on_c, 0, 50, 64
1, 91378, Note_on_c, 0, 46, 70
1, 91410, Control_c, 0, 64, 87
1, 91425, Control_c, 0, 64, 0
1, 91455, Note_on_c, 0, 67, 83
1, 91455, Note_on_c, 0, 79, 81
1, 91459, Note_off_c, 0, 50, 64
1, 91474, Note_off_c, 0, 67, 69
1, 91476, Note_off_c, 0, 79, 64
1, 91477, Note_off_c, 0, 55, 57
1, 91488, Note_off_c, 0, 46, 62
1, 91499, Control_c, 0, 64, 60
1, 91514, Control_c, 0, 64, 111
1, 91536, Note_on_c, 0, 79, 88
1, 91536, Control_c, 0, 64, 127
1, 91542, Note_on_c, 0, 67, 88
1, 91599, Note_on_c, 0, 55, 74
1, 91605, Note_on_c, 0, 50, 72
1, 91611, Note_on_c, 0, 45, 63
1, 91628, Note_off_c, 0, 67, 58
1, 91635, Note_off_c, 0, 79, 59
1, 91642, Note_off_c, 0, 45, 63
1, 91644, Note_off_c, 0, 50, 66
1, 91645, Note_off_c, 0, 55, 58
1, 91715, Note_on_c, 0, 45, 72
1, 91720, Note_on_c, 0, 55, 70
1, 91726, Note_on_c, 0, 50, 69
1, 91747, Note_on_c, 0, 77, 79
1, 91750, Note_on_c, 0, 65, 74
1, 91769, Note_off_c, 0, 77, 72
1, 91770, Note_off_c, 0, 55, 64
1, 91775, Note_off_c, 0, 65, 69
1, 91778, Note_off_c, 0, 50, 61
1, 91779, Note_off_c, 0, 45, 64
1, 91824, Note_on_c, 0, 65, 90
1, 91825, Note_on_c, 0, 77, 92
1, 91873, Note_on_c, 0, 50, 77
1, 91873, Note_on_c, 0, 53, 79
1, 91874, Note_off_c, 0, 65, 64
1, 91885, Note_on_c, 0, 45, 68
1, 91902, Note_off_c, 0, 77, 64
1, 91915, Note_off_c, 0, 45, 64
1, 91915, Note_off_c, 0, 50, 65
1, 91921, Note_off_c, 0, 53, 62
1, 91973, Note_on_c, 0, 45, 79
1, 91976, Note_on_c, 0, 53, 76
1, 91983, Note_on_c, 0, 50, 75
1, 92026, Control_c, 0, 64, 82
1, 92040, Control_c, 0, 64, 0
1, 92043, Note_on_c, 0, 74, 92
1, 92047, Note_on_c, 0, 86, 90
1, 92055, Control_c, 0, 64, 27
1, 92061, Note_off_c, 0, 74, 71
1, 92064, Note_off_c, 0, 86, 73
1, 92070, Control_c, 0, 64, 101
1, 92079, Note_off_c, 0, 45, 65
1, 92085, Control_c, 0, 64, 127
1, 92089, Note_off_c, 0, 53, 57
1, 92095, Note_off_c, 0, 50, 57
1, 92118, Note_on_c, 0, 86, 92
1, 92120, Note_on_c, 0, 72, 88
1, 92121, Note_on_c, 0, 74, 99
1, 92141, Note_on_c, 0, 84, 50
1, 92159, Note_off_c, 0, 86, 67
1, 92165, Note_off_c, 0, 84, 41
1, 92174, Note_off_c, 0, 74, 63
1, 92178, Note_off_c, 0, 72, 62
1, 92188, Note_on_c, 0, 53, 75
1, 92193, Note_on_c, 0, 47, 58
1, 92194, Note_on_c, 0, 50, 64
1, 92200, Note_on_c, 0, 44, 61
1, 92223, Note_off_c, 0, 50, 66
1, 92225, Note_off_c, 0, 53, 62
1, 92227, Note_off_c, 0, 47, 65
1, 92231, Note_off_c, 0, 44, 63
1, 92293, Note_on_c, 0, 50, 64
1, 92297, Note_on_c, 0, 53, 78
1, 92305, Note_on_c, 0, 44, 74
1, 92305, Note_on_c, 0, 47, 71
1, 92350, Note_on_c, 0, 62, 68
1, 92350, Note_on_c, 0, 74, 73
1, 92359, Note_off_c, 0, 53, 60
1, 92362, Note_off_c, 0, 50, 65
1, 92367, Note_off_c, 0, 74, 70
1, 92368, Note_off_c, 0, 47, 62
1, 92368, Note_off_c, 0, 62, 66
1, 92371, Note_off_c, 0, 44, 61
1, 92416, Note_on_c, 0, 74, 94
1, 92418, Note_on_c, 0, 62, 91
1, 92451, Note_off_c, 0, 62, 60
1, 92453, Note_on_c, 0, 53, 80
1, 92457, Note_on_c, 0, 47, 64
1, 92459, Note_on_c, 0, 50, 70
1, 92469, Note_on_c, 0, 44, 53
1, 92472, Note_off_c, 0, 74, 66
1, 92496, Note_off_c, 0, 47, 64
1, 92498, Note_off_c, 0, 44, 65
1, 92499, Note_off_c, 0, 50, 66
1, 92505, Note_off_c, 0, 53, 58
1, 92561, Note_on_c, 0, 53, 74
1, 92564, Note_on_c, 0, 44, 69
1, 92572, Note_on_c, 0, 47, 67
1, 92576, Note_on_c, 0, 50, 74
1, 92583, Control_c, 0, 64, 98
1, 92598, Control_c, 0, 64, 56
1, 92612, Control_c, 0, 64, 0
1, 92630, Note_on_c, 0, 74, 99
1, 92633, Note_on_c, 0, 86, 91
1, 92642, Control_c, 0, 64, 76
1, 92646, Note_off_c, 0, 47, 62
1, 92649, Note_off_c, 0, 74, 69
1, 92651, Note_off_c, 0, 86, 70
1, 92657, Control_c, 0, 64, 127
1, 92658, Note_off_c, 0, 53, 59
1, 92666, Note_off_c, 0, 50, 64
1, 92667, Note_off_c, 0, 44, 62
1, 92700, Note_on_c, 0, 74, 107
1, 92702, Note_on_c, 0, 86, 91
1, 92747, Note_off_c, 0, 86, 64
1, 92759, Note_on_c, 0, 53, 83
1, 92766, Note_on_c, 0, 50, 78
1, 92769, Note_on_c, 0, 43, 72
1, 92769, Note_on_c, 0, 46, 68
1, 92771, Note_off_c, 0, 74, 61
1, 92800, Note_off_c, 0, 43, 63
1, 92802, Note_off_c, 0, 50, 63
1, 92807, Note_off_c, 0, 46, 61
1, 92807, Note_off_c, 0, 53, 61
1, 92818, Poly_aftertouch_c, 0, 85, 0
1, 92862, Note_on_c, 0, 53, 78
1, 92864, Note_on_c, 0, 43, 74
1, 92872, Note_on_c, 0, 50, 75
1, 92872, Note_on_c, 0, 46, 76
1, 92917, Note_on_c, 0, 62, 81
1, 92924, Note_on_c, 0, 74, 72
1, 92937, Note_off_c, 0, 62, 70
1, 92949, Note_off_c, 0, 53, 61
1, 92949, Note_off_c, 0, 50, 64
1, 92950, Note_off_c, 0, 74, 68
1, 92953, Note_off_c, 0, 46, 61
1, 92954, Note_off_c, 0, 43, 63
1, 92985, Note_on_c, 0, 62, 91
1, 92991, Note_on_c, 0, 74, 91
1, 93039, Note_on_c, 0, 53, 84
1, 93044, Note_on_c, 0, 46, 70
1, 93045, Note_on_c, 0, 43, 69
1, 93047, Note_on_c, 0, 50, 76
1, 93048, Note_off_c, 0, 62, 59
1, 93079, Note_off_c, 0, 74, 64
1, 93083, Note_off_c, 0, 53, 62
1, 93084, Note_off_c, 0, 43, 64
1, 93085, Poly_aftertouch_c, 0, 73, 127
1, 93086, Note_off_c, 0, 50, 61
1, 93098, Note_off_c, 0, 46, 61
1, 93125, Poly_aftertouch_c, 0, 73, 0
1, 93146, Note_on_c, 0, 53, 92
1, 93151, Note_on_c, 0, 46, 65
1, 93156, Note_on_c, 0, 43, 82
1, 93156, Note_on_c, 0, 50, 77
1, 93212, Control_c, 0, 64, 88
1, 93224, Note_on_c, 0, 77, 94
1, 93227, Note_on_c, 0, 89, 94
1, 93227, Control_c, 0, 64, 0
1, 93254, Note_off_c, 0, 89, 64
1, 93256, Note_off_c, 0, 77, 65
1, 93271, Control_c, 0, 64, 72
1, 93276, Note_off_c, 0, 43, 59
1, 93286, Note_off_c, 0, 53, 60
1, 93286, Control_c, 0, 64, 104
1, 93289, Note_off_c, 0, 50, 64
1, 93300, Note_off_c, 0, 46, 58
1, 93302, Control_c, 0, 64, 127
1, 93305, Note_on_c, 0, 77, 104
1, 93307, Note_on_c, 0, 89, 103
1, 93378, Note_on_c, 0, 53, 99
1, 93384, Note_on_c, 0, 50, 80
1, 93387, Note_on_c, 0, 47, 78
1, 93396, Note_on_c, 0, 44, 67
1, 93420, Note_off_c, 0, 53, 62
1, 93422, Note_off_c, 0, 44, 65
1, 93425, Note_off_c, 0, 47, 65
1, 93426, Note_off_c, 0, 50, 65
1, 93463, Note_off_c, 0, 77, 57
1, 93471, Note_off_c, 0, 89, 58
1, 93477, Note_on_c, 0, 53, 99
1, 93480, Note_on_c, 0, 44, 84
1, 93488, Note_on_c, 0, 47, 74
1, 93488, Note_on_c, 0, 50, 76
1, 93584, Control_c, 0, 64, 77
1, 93585, Note_on_c, 0, 77, 100
1, 93585, Note_on_c, 0, 89, 104
1, 93598, Control_c, 0, 64, 0
1, 93622, Note_off_c, 0, 77, 66
1, 93627, Note_off_c, 0, 89, 64
1, 93636, Note_off_c, 0, 53, 53
1, 93643, Control_c, 0, 64, 77
1, 93657, Note_off_c, 0, 50, 59
1, 93658, Control_c, 0, 64, 127
1, 93680, Note_off_c, 0, 44, 57
1, 93684, Note_on_c, 0, 76, 105
1, 93685, Note_on_c, 0, 88, 103
1, 93709, Note_off_c, 0, 47, 43
1, 93725, Note_on_c, 0, 87, 45
1, 93754, Note_off_c, 0, 87, 56
1, 93781, Note_on_c, 0, 52, 94
1, 93789, Note_on_c, 0, 47, 82
1, 93792, Note_on_c, 0, 44, 77
1, 93823, Note_off_c, 0, 44, 64
1, 93825, Note_off_c, 0, 52, 63
1, 93834, Note_off_c, 0, 47, 63
1, 93844, Note_off_c, 0, 76, 52
1, 93852, Note_off_c, 0, 88, 57
1, 93883, Note_on_c, 0, 52, 105
1, 93890, Note_on_c, 0, 44, 91
1, 93894, Note_on_c, 0, 47, 75
1, 93945, Note_off_c, 0, 47, 58
1, 93975, Note_off_c, 0, 44, 58
1, 94002, Note_on_c, 0, 74, 94
1, 94004, Note_on_c, 0, 86, 88
1, 94030, Note_off_c, 0, 74, 61
1, 94043, Note_on_c, 0, 85, 26
1, 94055, Note_off_c, 0, 86, 64
1, 94078, Note_off_c, 0, 85, 53
1, 94090, Note_off_c, 0, 52, 34
1, 94140, Control_c, 0, 64, 83
1, 94155, Control_c, 0, 64, 0
1, 94156, Note_on_c, 0, 57, 106
1, 94163, Note_on_c, 0, 45, 95
1, 94163, Note_on_c, 0, 52, 93
1, 94163, Note_on_c, 0, 49, 94
1, 94163, Note_on_c, 0, 81, 101
1, 94199, Control_c, 0, 64, 127
1, 94210, Note_off_c, 0, 81, 69
1, 94219, Note_on_c, 0, 93, 64
1, 94291, Note_off_c, 0, 93, 64
1, 94303, Note_on_c, 0, 82, 94
1, 94345, Note_off_c, 0, 82, 64
1, 94352, Note_on_c, 0, 94, 74
1, 94399, Note_off_c, 0, 94, 64
1, 94423, Note_on_c, 0, 81, 85
1, 94464, Note_off_c, 0, 81, 67
1, 94478, Note_on_c, 0, 93, 79
1, 94492, Note_off_c, 0, 57, 56
1, 94499, Note_off_c, 0, 52, 61
1, 94500, Note_off_c, 0, 45, 60
1, 94512, Note_off_c, 0, 49, 59
1, 94516, Note_off_c, 0, 93, 61
1, 94562, Note_on_c, 0, 82, 80
1, 94586, Note_off_c, 0, 82, 64
1, 94604, Note_on_c, 0, 94, 85
1, 94633, Note_off_c, 0, 94, 64
1, 94635, Control_c, 0, 64, 89
1, 94650, Control_c, 0, 64, 65
1, 94661, Note_on_c, 0, 45, 83
1, 94663, Note_on_c, 0, 57, 79
1, 94665, Control_c, 0, 64, 0
1, 94677, Note_on_c, 0, 81, 70
1, 94684, Note_off_c, 0, 45, 67
1, 94687, Note_off_c, 0, 57, 65
1, 94699, Note_off_c, 0, 81, 69
1, 94715, Note_on_c, 0, 93, 76
1, 94738, Note_off_c, 0, 93, 67
1, 94775, Note_on_c, 0, 46, 77
1, 94777, Note_on_c, 0, 58, 88
1, 94783, Note_on_c, 0, 82, 74
1, 94794, Note_off_c, 0, 58, 72
1, 94798, Note_off_c, 0, 46, 64
1, 94812, Note_off_c, 0, 82, 58
1, 94824, Note_on_c, 0, 94, 77
1, 94851, Note_off_c, 0, 94, 64
1, 94872, Control_c, 0, 64, 49
1, 94887, Control_c, 0, 64, 127
1, 94890, Note_on_c, 0, 61, 95
1, 94893, Note_on_c, 0, 49, 90
1, 94899, Note_on_c, 0, 81, 69
1, 94902, Note_on_c, 0, 85, 52
1, 94911, Note_off_c, 0, 61, 69
1, 94914, Note_off_c, 0, 49, 69
1, 94921, Note_on_c, 0, 88, 64
1, 94929, Note_off_c, 0, 81, 60
1, 94933, Note_off_c, 0, 85, 67
1, 94944, Note_off_c, 0, 88, 69
1, 94945, Note_on_c, 0, 93, 82
1, 94972, Note_off_c, 0, 93, 61
1, 94993, Note_on_c, 0, 49, 36
1, 95003, Note_on_c, 0, 64, 89
1, 95005, Note_on_c, 0, 52, 92
1, 95011, Note_on_c, 0, 82, 77
1, 95021, Note_off_c, 0, 64, 73
1, 95027, Note_off_c, 0, 52, 66
1, 95032, Note_off_c, 0, 49, 55
1, 95036, Note_off_c, 0, 82, 61
1, 95049, Note_on_c, 0, 94, 83
1, 95073, Note_off_c, 0, 94, 66
1, 95117, Note_on_c, 0, 65, 97
1, 95119, Note_on_c, 0, 53, 91
1, 95126, Note_on_c, 0, 81, 64
1, 95136, Note_off_c, 0, 65, 70
1, 95140, Note_off_c, 0, 53, 69
1, 95148, Note_off_c, 0, 81, 61
1, 95154, Note_on_c, 0, 93, 81
1, 95169, Poly_aftertouch_c, 0, 52, 0
1, 95201, Note_off_c, 0, 93, 64
1, 95229, Note_on_c, 0, 67, 104
1, 95229, Note_on_c, 0, 82, 91
1, 95232, Note_on_c, 0, 55, 93
1, 95253, Note_off_c, 0, 55, 70
1, 95253, Note_off_c, 0, 67, 61
1, 95278, Note_off_c, 0, 82, 63
1, 95284, Poly_aftertouch_c, 0, 53, 0
1, 95287, Note_on_c, 0, 94, 85
1, 95322, Poly_aftertouch_c, 0, 61, 127
1, 95328, Note_off_c, 0, 94, 63
1, 95352, Note_on_c, 0, 69, 95
1, 95352, Note_on_c, 0, 81, 79
1, 95355, Poly_aftertouch_c, 0, 61, 0
1, 95355, Note_on_c, 0, 57, 93
1, 95376, Note_off_c, 0, 57, 72
1, 95379, Note_off_c, 0, 69, 65
1, 95389, Note_off_c, 0, 81, 64
1, 95393, Note_on_c, 0, 93, 81
1, 95424, Note_off_c, 0, 93, 62
1, 95462, Note_on_c, 0, 70, 102
1, 95466, Note_on_c, 0, 58, 83
1, 95490, Note_on_c, 0, 82, 57
1, 95501, Note_off_c, 0, 70, 66
1, 95502, Note_on_c, 0, 94, 85
1, 95502, Note_off_c, 0, 58, 59
1, 95522, Note_off_c, 0, 82, 64
1, 95548, Control_c, 0, 64, 79
1, 95549, Note_off_c, 0, 94, 67
1, 95563, Control_c, 0, 64, 0
1, 95590, Note_on_c, 0, 69, 101
1, 95592, Control_c, 0, 64, 55
1, 95593, Note_on_c, 0, 81, 94
1, 95595, Note_on_c, 0, 57, 100
1, 95596, Note_on_c, 0, 86, 77
1, 95601, Note_on_c, 0, 89, 74
1, 95607, Control_c, 0, 64, 74
1, 95614, Note_off_c, 0, 57, 71
1, 95618, Note_on_c, 0, 58, 50
1, 95622, Note_off_c, 0, 69, 67
1, 95622, Control_c, 0, 64, 99
1, 95635, Note_on_c, 0, 88, 37
1, 95636, Note_off_c, 0, 88, 127
1, 95637, Control_c, 0, 64, 127
1, 95647, Note_off_c, 0, 58, 58
1, 95649, Note_off_c, 0, 86, 64
1, 95656, Note_on_c, 0, 93, 79
1, 95658, Note_off_c, 0, 89, 63
1, 95662, Note_off_c, 0, 81, 61
1, 95699, Note_on_c, 0, 92, 30
1, 95714, Note_off_c, 0, 93, 63
1, 95735, Note_off_c, 0, 92, 47
1, 95763, Note_on_c, 0, 77, 108
1, 95766, Note_on_c, 0, 82, 76
1, 95768, Note_on_c, 0, 65, 101
1, 95788, Note_off_c, 0, 65, 70
1, 95791, Note_off_c, 0, 77, 72
1, 95803, Note_on_c, 0, 94, 79
1, 95811, Note_off_c, 0, 82, 58
1, 95850, Note_off_c, 0, 94, 66
1, 95893, Note_on_c, 0, 76, 105
1, 95894, Note_on_c, 0, 81, 74
1, 95900, Note_on_c, 0, 64, 97
1, 95919, Note_off_c, 0, 64, 72
1, 95922, Note_off_c, 0, 81, 65
1, 95924, Note_off_c, 0, 76, 68
1, 95934, Note_on_c, 0, 93, 79
1, 95959, Note_off_c, 0, 93, 64
1, 96006, Note_on_c, 0, 74, 103
1, 96011, Note_on_c, 0, 62, 90
1, 96012, Note_on_c, 0, 82, 80
1, 96033, Note_off_c, 0, 74, 70
1, 96038, Note_off_c, 0, 62, 71
1, 96053, Note_on_c, 0, 94, 82
1, 96062, Note_off_c, 0, 82, 59
1, 96096, Note_off_c, 0, 94, 65
1, 96131, Note_on_c, 0, 69, 100
1, 96133, Note_on_c, 0, 57, 95
1, 96138, Note_on_c, 0, 81, 76
1, 96152, Note_off_c, 0, 57, 68
1, 96154, Note_off_c, 0, 69, 65
1, 96160, Note_on_c, 0, 93, 78
1, 96173, Note_off_c, 0, 81, 62
1, 96194, Note_off_c, 0, 93, 59
1, 96238, Note_on_c, 0, 65, 101
1, 96243, Note_on_c, 0, 53, 98
1, 96260, Note_on_c, 0, 82, 73
1, 96265, Note_off_c, 0, 53, 73
1, 96265, Note_off_c, 0, 65, 63
1, 96268, Note_on_c, 0, 94, 81
1, 96294, Note_off_c, 0, 82, 59
1, 96309, Note_off_c, 0, 94, 66
1, 96327, Control_c, 0, 64, 82
1, 96342, Control_c, 0, 64, 0
1, 96357, Note_on_c, 0, 64, 98
1, 96359, Note_on_c, 0, 52, 95
1, 96362, Note_on_c, 0, 81, 92
1, 96371, Control_c, 0, 64, 58
1, 96371, Note_on_c, 0, 85, 71
1, 96376, Note_on_c, 0, 91, 87
1, 96380, Note_on_c, 0, 90, 44
1, 96380, Note_off_c, 0, 64, 69
1, 96381, Note_off_c, 0, 52, 71
1, 96386, Control_c, 0, 64, 76
1, 96394, Note_off_c, 0, 85, 70
1, 96400, Control_c, 0, 64, 127
1, 96407, Note_off_c, 0, 81, 64
1, 96407, Note_off_c, 0, 90, 37
1, 96425, Note_off_c, 0, 91, 65
1, 96470, Note_on_c, 0, 61, 104
1, 96473, Note_on_c, 0, 94, 81
1, 96474, Note_on_c, 0, 49, 98
1, 96488, Note_on_c, 0, 82, 77
1, 96501, Note_off_c, 0, 61, 60
1, 96502, Note_off_c, 0, 49, 66
1, 96516, Note_off_c, 0, 82, 64
1, 96538, Note_off_c, 0, 94, 65
1, 96539, Note_on_c, 0, 51, 9
1, 96588, Note_on_c, 0, 81, 78
1, 96588, Note_off_c, 0, 51, 50
1, 96595, Note_on_c, 0, 58, 104
1, 96598, Note_on_c, 0, 46, 96
1, 96613, Note_on_c, 0, 93, 76
1, 96622, Note_off_c, 0, 46, 66
1, 96624, Note_off_c, 0, 81, 61
1, 96625, Note_off_c, 0, 58, 65
1, 96667, Note_off_c, 0, 93, 63
1, 96714, Note_on_c, 0, 82, 81
1, 96724, Note_on_c, 0, 57, 100
1, 96728, Note_on_c, 0, 45, 98
1, 96754, Note_on_c, 0, 94, 71
1, 96756, Note_off_c, 0, 57, 68
1, 96765, Note_off_c, 0, 45, 65
1, 96791, Note_off_c, 0, 82, 59
1, 96804, Note_off_c, 0, 94, 66
1, 96851, Poly_aftertouch_c, 0, 46, 0
1, 96860, Note_on_c, 0, 81, 66
1, 96876, Note_on_c, 0, 55, 102
1, 96879, Note_on_c, 0, 43, 92
1, 96881, Note_on_c, 0, 93, 81
1, 96902, Note_off_c, 0, 81, 62
1, 96910, Note_off_c, 0, 55, 65
1, 96915, Note_off_c, 0, 43, 66
1, 96917, Note_off_c, 0, 93, 60
1, 97072, Note_on_c, 0, 52, 99
1, 97078, Note_on_c, 0, 40, 94
1, 97261, Note_on_c, 0, 69, 90
1, 97263, Note_on_c, 0, 81, 93
1, 97339, Note_off_c, 0, 69, 55
1, 97351, Note_off_c, 0, 81, 58
1, 97367, Note_off_c, 0, 52, 54
1, 97417, Control_c, 0, 64, 101
1, 97431, Note_off_c, 0, 40, 59
1, 97432, Control_c, 0, 64, 75
1, 97433, Note_on_c, 0, 81, 80
1, 97439, Note_on_c, 0, 74, 67
1, 97440, Note_on_c, 0, 69, 72
1, 97440, Note_on_c, 0, 77, 63
1, 97446, Control_c, 0, 64, 0
1, 97555, Note_on_c, 0, 45, 61
1, 97555, Note_on_c, 0, 50, 57
1, 97567, Note_on_c, 0, 41, 41
1, 97587, Note_off_c, 0, 50, 60
1, 97588, Note_off_c, 0, 45, 64
1, 97598, Note_off_c, 0, 41, 58
1, 97614, Poly_aftertouch_c, 0, 38, 127
1, 97616, Note_on_c, 0, 38, 3
1, 97617, Control_c, 0, 64, 103
1, 97632, Control_c, 0, 64, 127
1, 97653, Note_off_c, 0, 81, 63
1, 97653, Note_on_c, 0, 50, 66
1, 97661, Note_on_c, 0, 45, 69
1, 97663, Note_off_c, 0, 69, 59
1, 97671, Note_on_c, 0, 41, 64
1, 97701, Note_off_c, 0, 45, 65
1, 97702, Note_off_c, 0, 41, 62
1, 97704, Note_off_c, 0, 74, 63
1, 97704, Note_off_c, 0, 77, 61
1, 97713, Note_off_c, 0, 38, 42
1, 97720, Note_off_c, 0, 50, 65
1, 97778, Note_on_c, 0, 82, 64
1, 97781, Note_on_c, 0, 77, 53
1, 97784, Note_on_c, 0, 70, 62
1, 97784, Note_on_c, 0, 74, 57
1, 97797, Note_off_c, 0, 82, 62
1, 97805, Note_off_c, 0, 70, 63
1, 97811, Note_off_c, 0, 77, 67
1, 97816, Note_off_c, 0, 74, 66
1, 97856, Note_on_c, 0, 82, 88
1, 97866, Note_on_c, 0, 70, 72
1, 97877, Note_on_c, 0, 74, 68
1, 97885, Note_on_c, 0, 77, 69
1, 97929, Note_on_c, 0, 62, 60
1, 97930, Note_on_c, 0, 65, 56
1, 97939, Note_off_c, 0, 70, 61
1, 97953, Note_off_c, 0, 62, 62
1, 97954, Note_off_c, 0, 65, 61
1, 97955, Note_off_c, 0, 82, 61
1, 97959, Note_off_c, 0, 74, 57
1, 97963, Note_off_c, 0, 77, 58
1, 97983, Poly_aftertouch_c, 0, 57, 127
1, 98014, Note_on_c, 0, 57, 5
1, 98017, Note_on_c, 0, 65, 75
1, 98017, Note_on_c, 0, 62, 73
1, 98038, Note_off_c, 0, 65, 71
1, 98039, Note_off_c, 0, 62, 68
1, 98071, Note_off_c, 0, 57, 58
1, 98080, Note_on_c, 0, 69, 78
1, 98083, Note_on_c, 0, 81, 73
1, 98084, Note_on_c, 0, 74, 72
1, 98086, Note_on_c, 0, 77, 63
1, 98106, Note_off_c, 0, 69, 62
1, 98116, Note_off_c, 0, 74, 66
1, 98118, Note_off_c, 0, 77, 67
1, 98118, Note_off_c, 0, 81, 58
1, 98157, Note_on_c, 0, 81, 71
1, 98160, Note_on_c, 0, 69, 75
1, 98168, Note_on_c, 0, 74, 71
1, 98182, Note_on_c, 0, 77, 72
1, 98211, Control_c, 0, 64, 108
1, 98225, Control_c, 0, 64, 86
1, 98240, Control_c, 0, 64, 70
1, 98252, Note_on_c, 0, 45, 70
1, 98252, Note_on_c, 0, 50, 74
1, 98255, Control_c, 0, 64, 59
1, 98261, Note_off_c, 0, 81, 60
1, 98274, Note_on_c, 0, 41, 47
1, 98276, Control_c, 0, 64, 65
1, 98284, Note_off_c, 0, 50, 68
1, 98286, Note_off_c, 0, 45, 66
1, 98291, Note_on_c, 0, 38, 24
1, 98291, Control_c, 0, 64, 72
1, 98297, Note_off_c, 0, 69, 60
1, 98306, Control_c, 0, 64, 88
1, 98307, Note_off_c, 0, 41, 52
1, 98318, Note_off_c, 0, 74, 60
1, 98321, Control_c, 0, 64, 127
1, 98330, Note_off_c, 0, 77, 62
1, 98335, Note_off_c, 0, 38, 0
1, 98335, Note_on_c, 0, 38, 26
1, 98340, Note_on_c, 0, 50, 71
1, 98343, Note_on_c, 0, 45, 77
1, 98351, Note_on_c, 0, 41, 67
1, 98369, Note_off_c, 0, 45, 68
1, 98378, Note_off_c, 0, 38, 56
1, 98384, Note_off_c, 0, 41, 61
1, 98390, Note_off_c, 0, 50, 64
1, 98411, Note_on_c, 0, 80, 76
1, 98414, Note_on_c, 0, 68, 78
1, 98419, Note_on_c, 0, 74, 77
1, 98432, Note_off_c, 0, 80, 67
1, 98435, Note_off_c, 0, 68, 70
1, 98440, Note_off_c, 0, 74, 72
1, 98493, Note_on_c, 0, 68, 81
1, 98494, Note_on_c, 0, 80, 84
1, 98495, Note_on_c, 0, 74, 86
1, 98547, Note_on_c, 0, 62, 70
1, 98547, Note_on_c, 0, 65, 70
1, 98559, Note_off_c, 0, 68, 59
1, 98564, Note_off_c, 0, 74, 61
1, 98566, Note_off_c, 0, 80, 60
1, 98568, Note_off_c, 0, 62, 65
1, 98571, Note_off_c, 0, 65, 70
1, 98577, Note_on_c, 0, 57, 17
1, 98621, Note_off_c, 0, 57, 0
1, 98635, Note_on_c, 0, 62, 75
1, 98637, Note_on_c, 0, 57, 63
1, 98640, Note_on_c, 0, 65, 76
1, 98656, Note_off_c, 0, 62, 70
1, 98661, Note_off_c, 0, 65, 71
1, 98681, Note_off_c, 0, 57, 62
1, 98707, Note_on_c, 0, 74, 74
1, 98713, Note_on_c, 0, 67, 69
1, 98714, Note_on_c, 0, 69, 67
1, 98717, Note_on_c, 0, 79, 59
1, 98732, Note_off_c, 0, 67, 64
1, 98732, Note_off_c, 0, 69, 67
1, 98732, Note_off_c, 0, 74, 69
1, 98738, Note_off_c, 0, 79, 62
1, 98785, Note_on_c, 0, 79, 83
1, 98787, Note_on_c, 0, 69, 76
1, 98788, Note_on_c, 0, 67, 83
1, 98792, Note_on_c, 0, 74, 72
1, 98795, Control_c, 0, 64, 115
1, 98810, Control_c, 0, 64, 83
1, 98825, Control_c, 0, 64, 0
1, 98853, Note_off_c, 0, 74, 64
1, 98868, Note_on_c, 0, 50, 78
1, 98868, Note_off_c, 0, 79, 60
1, 98872, Note_on_c, 0, 45, 65
1, 98875, Note_off_c, 0, 69, 55
1, 98881, Note_on_c, 0, 41, 54
1, 98889, Note_on_c, 0, 38, 43
1, 98893, Note_off_c, 0, 50, 68
1, 98895, Note_off_c, 0, 67, 61
1, 98897, Note_off_c, 0, 45, 62
1, 98899, Control_c, 0, 64, 57
1, 98911, Note_off_c, 0, 41, 59
1, 98914, Control_c, 0, 64, 74
1, 98929, Control_c, 0, 64, 94
1, 98933, Note_off_c, 0, 38, 0
1, 98944, Control_c, 0, 64, 127
1, 98947, Note_on_c, 0, 50, 74
1, 98949, Note_on_c, 0, 38, 54
1, 98958, Note_on_c, 0, 45, 79
1, 98964, Note_on_c, 0, 41, 67
1, 98986, Note_off_c, 0, 38, 62
1, 98992, Note_off_c, 0, 45, 66
1, 99002, Note_off_c, 0, 41, 63
1, 99023, Note_off_c, 0, 50, 64
1, 99039, Note_on_c, 0, 74, 77
1, 99039, Note_on_c, 0, 66, 80
1, 99049, Note_on_c, 0, 69, 67
1, 99060, Note_off_c, 0, 66, 66
1, 99074, Note_off_c, 0, 69, 69
1, 99076, Note_off_c, 0, 74, 58
1, 99111, Poly_aftertouch_c, 0, 78, 127
1, 99117, Note_on_c, 0, 66, 83
1, 99121, Note_on_c, 0, 74, 70
1, 99126, Note_on_c, 0, 69, 77
1, 99169, Note_on_c, 0, 57, 67
1, 99179, Note_off_c, 0, 66, 58
1, 99181, Note_on_c, 0, 62, 56
1, 99190, Note_off_c, 0, 69, 59
1, 99197, Note_on_c, 0, 53, 28
1, 99198, Note_off_c, 0, 57, 65
1, 99205, Note_off_c, 0, 62, 59
1, 99205, Note_off_c, 0, 74, 63
1, 99209, Poly_aftertouch_c, 0, 78, 0
1, 99247, Note_off_c, 0, 53, 0
1, 99257, Note_on_c, 0, 57, 74
1, 99263, Note_on_c, 0, 53, 59
1, 99271, Note_on_c, 0, 62, 59
1, 99279, Note_off_c, 0, 57, 68
1, 99292, Note_off_c, 0, 62, 62
1, 99302, Note_off_c, 0, 53, 68
1, 99334, Note_on_c, 0, 65, 80
1, 99336, Note_on_c, 0, 69, 70
1, 99337, Note_on_c, 0, 77, 73
1, 99355, Note_off_c, 0, 65, 70
1, 99357, Note_off_c, 0, 69, 70
1, 99359, Note_off_c, 0, 77, 69
1, 99411, Control_c, 0, 64, 92
1, 99416, Note_on_c, 0, 65, 78
1, 99416, Note_on_c, 0, 77, 81
1, 99418, Note_on_c, 0, 69, 77
1, 99425, Control_c, 0, 64, 70
1, 99440, Control_c, 0, 64, 0
1, 99483, Note_on_c, 0, 50, 68
1, 99483, Note_on_c, 0, 45, 66
1, 99500, Note_on_c, 0, 41, 43
1, 99510, Note_off_c, 0, 50, 68
1, 99512, Note_off_c, 0, 45, 62
1, 99514, Note_on_c, 0, 38, 21
1, 99532, Note_off_c, 0, 41, 51
1, 99537, Note_off_c, 0, 77, 57
1, 99542, Note_off_c, 0, 38, 0
1, 99543, Control_c, 0, 64, 45
1, 99547, Note_off_c, 0, 65, 57
1, 99552, Note_off_c, 0, 69, 57
1, 99558, Control_c, 0, 64, 78
1, 99567, Note_on_c, 0, 50, 76
1, 99569, Note_on_c, 0, 38, 35
1, 99573, Control_c, 0, 64, 107
1, 99578, Note_on_c, 0, 45, 73
1, 99584, Note_on_c, 0, 41, 72
1, 99588, Control_c, 0, 64, 127
1, 99609, Note_off_c, 0, 45, 65
1, 99610, Note_off_c, 0, 38, 58
1, 99622, Note_off_c, 0, 41, 64
1, 99629, Note_off_c, 0, 50, 65
1, 99641, Note_on_c, 0, 64, 73
1, 99648, Note_on_c, 0, 76, 64
1, 99657, Note_on_c, 0, 69, 54
1, 99664, Note_off_c, 0, 64, 70
1, 99668, Note_off_c, 0, 76, 64
1, 99678, Note_off_c, 0, 69, 63
1, 99725, Note_on_c, 0, 64, 76
1, 99731, Note_on_c, 0, 76, 81
1, 99743, Note_on_c, 0, 69, 72
1, 99780, Note_on_c, 0, 53, 73
1, 99780, Note_on_c, 0, 57, 66
1, 99807, Note_off_c, 0, 57, 65
1, 99808, Note_off_c, 0, 53, 67
1, 99811, Note_off_c, 0, 76, 58
1, 99818, Note_off_c, 0, 64, 60
1, 99849, Note_off_c, 0, 69, 59
1, 99873, Note_on_c, 0, 53, 72
1, 99874, Note_on_c, 0, 57, 68
1, 99909, Note_off_c, 0, 57, 59
1, 99922, Note_off_c, 0, 53, 65
1, 99947, Note_on_c, 0, 63, 79
1, 99948, Note_on_c, 0, 75, 69
1, 99950, Note_on_c, 0, 69, 68
1, 99972, Note_off_c, 0, 75, 66
1, 99975, Note_off_c, 0, 63, 61
1, 99977, Note_off_c, 0, 69, 65
1, 100026, Control_c, 0, 64, 106
1, 100035, Note_on_c, 0, 75, 78
1, 100041, Note_on_c, 0, 69, 66
1, 100041, Note_on_c, 0, 63, 67
1, 100041, Control_c, 0, 64, 78
1, 100056, Control_c, 0, 64, 0
1, 100100, Note_on_c, 0, 45, 69
1, 100101, Note_on_c, 0, 50, 68
1, 100124, Note_on_c, 0, 41, 35
1, 100130, Note_off_c, 0, 50, 65
1, 100133, Note_off_c, 0, 45, 63
1, 100158, Note_off_c, 0, 41, 47
1, 100160, Control_c, 0, 64, 70
1, 100171, Note_off_c, 0, 75, 61
1, 100172, Poly_aftertouch_c, 0, 38, 127
1, 100174, Note_off_c, 0, 63, 59
1, 100174, Control_c, 0, 64, 127
1, 100180, Note_off_c, 0, 69, 56
1, 100190, Note_on_c, 0, 50, 68
1, 100199, Note_on_c, 0, 45, 71
1, 100206, Note_on_c, 0, 38, 2
1, 100211, Note_on_c, 0, 41, 60
1, 100238, Note_off_c, 0, 45, 62
1, 100247, Note_off_c, 0, 41, 60
1, 100250, Note_off_c, 0, 38, 43
1, 100256, Note_on_c, 0, 62, 65
1, 100258, Note_on_c, 0, 74, 63
1, 100258, Note_off_c, 0, 50, 64
1, 100261, Note_on_c, 0, 69, 49
1, 100278, Note_off_c, 0, 62, 63
1, 100284, Note_off_c, 0, 69, 64
1, 100284, Note_off_c, 0, 74, 64
1, 100343, Note_on_c, 0, 74, 77
1, 100346, Note_on_c, 0, 62, 64
1, 100351, Note_on_c, 0, 69, 74
1, 100390, Note_on_c, 0, 53, 68
1, 100393, Note_on_c, 0, 55, 55
1, 100405, Note_off_c, 0, 74, 61
1, 100407, Note_off_c, 0, 62, 60
1, 100416, Note_off_c, 0, 53, 66
1, 100418, Note_off_c, 0, 55, 61
1, 100424, Note_off_c, 0, 69, 58
1, 100485, Note_on_c, 0, 53, 76
1, 100509, Note_on_c, 0, 57, 61
1, 100539, Note_off_c, 0, 57, 61
1, 100541, Note_off_c, 0, 53, 63
1, 100551, Note_on_c, 0, 61, 75
1, 100552, Note_on_c, 0, 73, 73
1, 100559, Note_on_c, 0, 69, 63
1, 100577, Note_off_c, 0, 73, 66
1, 100578, Note_off_c, 0, 61, 64
1, 100583, Note_off_c, 0, 69, 69
1, 100634, Note_on_c, 0, 61, 73
1, 100640, Note_on_c, 0, 69, 75
1, 100640, Note_on_c, 0, 73, 78
1, 100671, Control_c, 0, 64, 92
1, 100686, Control_c, 0, 64, 71
1, 100701, Control_c, 0, 64, 0
1, 100726, Note_on_c, 0, 45, 61
1, 100726, Note_on_c, 0, 50, 66
1, 100745, Control_c, 0, 64, 64
1, 100747, Note_on_c, 0, 41, 34
1, 100748, Note_off_c, 0, 45, 63
1, 100756, Note_off_c, 0, 50, 67
1, 100760, Control_c, 0, 64, 75
1, 100771, Note_off_c, 0, 61, 60
1, 100771, Note_off_c, 0, 73, 56
1, 100775, Note_off_c, 0, 69, 58
1, 100775, Control_c, 0, 64, 94
1, 100781, Note_off_c, 0, 41, 0
1, 100789, Control_c, 0, 64, 127
1, 100792, Note_on_c, 0, 38, 41
1, 100793, Poly_aftertouch_c, 0, 41, 0
1, 100805, Note_on_c, 0, 45, 78
1, 100810, Note_on_c, 0, 41, 46
1, 100811, Note_on_c, 0, 50, 71
1, 100842, Note_off_c, 0, 38, 59
1, 100855, Note_off_c, 0, 45, 62
1, 100859, Note_on_c, 0, 62, 72
1, 100865, Note_off_c, 0, 41, 62
1, 100867, Note_on_c, 0, 74, 58
1, 100867, Note_off_c, 0, 50, 62
1, 100869, Note_on_c, 0, 69, 58
1, 100885, Note_off_c, 0, 62, 66
1, 100887, Note_off_c, 0, 74, 63
1, 100888, Note_off_c, 0, 69, 65
1, 100941, Note_on_c, 0, 62, 76
1, 100946, Note_on_c, 0, 69, 77
1, 100950, Note_on_c, 0, 74, 79
1, 101004, Note_on_c, 0, 53, 71
1, 101008, Note_on_c, 0, 57, 57
1, 101010, Note_off_c, 0, 62, 54
1, 101011, Note_off_c, 0, 74, 62
1, 101032, Note_off_c, 0, 57, 62
1, 101034, Note_off_c, 0, 53, 67
1, 101036, Note_off_c, 0, 69, 60
1, 101088, Note_on_c, 0, 53, 76
1, 101099, Note_on_c, 0, 57, 64
1, 101126, Note_off_c, 0, 53, 64
1, 101129, Note_off_c, 0, 57, 63
1, 101148, Note_on_c, 0, 75, 69
1, 101150, Note_on_c, 0, 69, 67
1, 101155, Note_on_c, 0, 63, 69
1, 101173, Note_off_c, 0, 75, 68
1, 101174, Note_off_c, 0, 69, 67
1, 101175, Note_off_c, 0, 63, 64
1, 101230, Note_on_c, 0, 63, 83
1, 101232, Note_on_c, 0, 75, 81
1, 101239, Note_on_c, 0, 69, 74
1, 101271, Control_c, 0, 64, 100
1, 101286, Control_c, 0, 64, 79
1, 101296, Note_on_c, 0, 50, 78
1, 101298, Note_on_c, 0, 45, 70
1, 101302, Control_c, 0, 64, 60
1, 101317, Control_c, 0, 64, 0
1, 101323, Note_on_c, 0, 41, 36
1, 101326, Note_off_c, 0, 50, 67
1, 101327, Note_off_c, 0, 45, 64
1, 101332, Control_c, 0, 64, 60
1, 101346, Control_c, 0, 64, 70
1, 101359, Note_off_c, 0, 41, 45
1, 101361, Control_c, 0, 64, 83
1, 101367, Note_off_c, 0, 75, 59
1, 101371, Note_off_c, 0, 63, 60
1, 101374, Note_off_c, 0, 69, 57
1, 101376, Control_c, 0, 64, 112
1, 101381, Poly_aftertouch_c, 0, 38, 127
1, 101383, Note_on_c, 0, 38, 35
1, 101391, Control_c, 0, 64, 127
1, 101393, Note_on_c, 0, 45, 69
1, 101397, Note_on_c, 0, 50, 71
1, 101415, Note_on_c, 0, 41, 58
1, 101433, Note_off_c, 0, 38, 57
1, 101435, Note_off_c, 0, 45, 63
1, 101445, Note_off_c, 0, 41, 62
1, 101452, Note_off_c, 0, 50, 61
1, 101459, Note_on_c, 0, 64, 77
1, 101470, Note_on_c, 0, 76, 62
1, 101481, Note_off_c, 0, 64, 71
1, 101482, Note_on_c, 0, 69, 47
1, 101489, Note_off_c, 0, 76, 64
1, 101508, Note_off_c, 0, 69, 58
1, 101540, Note_on_c, 0, 64, 85
1, 101550, Note_on_c, 0, 76, 79
1, 101558, Note_on_c, 0, 69, 66
1, 101588, Note_on_c, 0, 57, 65
1, 101597, Note_off_c, 0, 64, 62
1, 101603, Note_on_c, 0, 53, 48
1, 101603, Note_on_c, 0, 62, 48
1, 101615, Note_off_c, 0, 76, 59
1, 101617, Note_off_c, 0, 57, 64
1, 101621, Note_off_c, 0, 69, 62
1, 101631, Note_off_c, 0, 62, 55
1, 101636, Note_off_c, 0, 53, 54
1, 101669, Note_on_c, 0, 62, 63
1, 101671, Note_on_c, 0, 57, 76
1, 101675, Note_on_c, 0, 53, 70
1, 101696, Note_off_c, 0, 57, 67
1, 101697, Note_off_c, 0, 62, 63
1, 101722, Note_off_c, 0, 53, 66
1, 101743, Note_on_c, 0, 65, 81
1, 101744, Note_on_c, 0, 69, 71
1, 101755, Note_on_c, 0, 77, 63
1, 101764, Note_off_c, 0, 65, 71
1, 101770, Note_off_c, 0, 69, 67
1, 101775, Note_off_c, 0, 77, 64
1, 101819, Note_on_c, 0, 69, 83
1, 101821, Note_on_c, 0, 65, 87
1, 101831, Note_on_c, 0, 77, 85
1, 101835, Control_c, 0, 64, 93
1, 101850, Control_c, 0, 64, 56
1, 101865, Control_c, 0, 64, 0
1, 101877, Note_on_c, 0, 50, 79
1, 101880, Note_on_c, 0, 45, 74
1, 101894, Note_on_c, 0, 41, 49
1, 101894, Control_c, 0, 64, 47
1, 101896, Note_off_c, 0, 77, 61
1, 101903, Note_off_c, 0, 50, 68
1, 101905, Note_off_c, 0, 45, 65
1, 101909, Control_c, 0, 64, 100
1, 101923, Note_off_c, 0, 65, 62
1, 101924, Control_c, 0, 64, 127
1, 101925, Note_off_c, 0, 41, 53
1, 101937, Note_off_c, 0, 69, 59
1, 101949, Poly_aftertouch_c, 0, 38, 127
1, 101960, Note_on_c, 0, 38, 12
1, 101962, Note_on_c, 0, 50, 69
1, 101966, Note_on_c, 0, 45, 79
1, 101980, Note_on_c, 0, 41, 75
1, 102003, Note_off_c, 0, 45, 66
1, 102011, Note_off_c, 0, 38, 52
1, 102011, Note_off_c, 0, 41, 62
1, 102020, Note_off_c, 0, 50, 61
1, 102044, Note_on_c, 0, 66, 89
1, 102045, Note_on_c, 0, 74, 82
1, 102064, Note_off_c, 0, 66, 71
1, 102070, Note_off_c, 0, 74, 68
1, 102119, Note_on_c, 0, 66, 92
1, 102126, Note_on_c, 0, 78, 88
1, 102130, Note_on_c, 0, 74, 78
1, 102173, Note_on_c, 0, 62, 68
1, 102181, Note_off_c, 0, 66, 62
1, 102183, Note_off_c, 0, 74, 65
1, 102188, Note_on_c, 0, 57, 43
1, 102190, Note_on_c, 0, 53, 41
1, 102193, Note_off_c, 0, 78, 63
1, 102193, Note_off_c, 0, 62, 62
1, 102220, Note_off_c, 0, 57, 54
1, 102226, Note_off_c, 0, 53, 54
1, 102239, Poly_aftertouch_c, 0, 60, 127
1, 102265, Note_on_c, 0, 57, 80
1, 102266, Note_on_c, 0, 53, 75
1, 102266, Poly_aftertouch_c, 0, 55, 0
1, 102278, Poly_aftertouch_c, 0, 60, 0
1, 102291, Note_off_c, 0, 57, 68
1, 102312, Note_off_c, 0, 53, 66
1, 102319, Note_on_c, 0, 74, 84
1, 102321, Note_on_c, 0, 67, 84
1, 102339, Note_off_c, 0, 67, 71
1, 102341, Note_off_c, 0, 74, 72
1, 102389, Note_on_c, 0, 67, 91
1, 102392, Poly_aftertouch_c, 0, 79, 127
1, 102393, Note_on_c, 0, 79, 7
1, 102395, Note_on_c, 0, 74, 97
1, 102405, Control_c, 0, 64, 104
1, 102420, Control_c, 0, 64, 69
1, 102435, Control_c, 0, 64, 0
1, 102454, Note_off_c, 0, 79, 60
1, 102459, Note_on_c, 0, 50, 84
1, 102461, Note_on_c, 0, 45, 78
1, 102464, Control_c, 0, 64, 40
1, 102466, Note_off_c, 0, 67, 62
1, 102472, Note_on_c, 0, 41, 58
1, 102479, Control_c, 0, 64, 85
1, 102483, Note_on_c, 0, 38, 40
1, 102485, Note_off_c, 0, 50, 69
1, 102485, Note_off_c, 0, 74, 64
1, 102485, Note_off_c, 0, 45, 67
1, 102494, Control_c, 0, 64, 127
1, 102500, Note_off_c, 0, 41, 58
1, 102530, Note_off_c, 0, 38, 0
1, 102540, Note_on_c, 0, 50, 78
1, 102545, Note_on_c, 0, 45, 81
1, 102550, Note_on_c, 0, 38, 54
1, 102559, Note_on_c, 0, 41, 77
1, 102575, Note_off_c, 0, 45, 66
1, 102583, Note_off_c, 0, 38, 52
1, 102584, Note_off_c, 0, 41, 64
1, 102587, Note_on_c, 0, 68, 85
1, 102588, Note_on_c, 0, 74, 81
1, 102592, Note_off_c, 0, 50, 64
1, 102605, Note_off_c, 0, 68, 72
1, 102608, Note_off_c, 0, 74, 73
1, 102610, Note_on_c, 0, 80, 39
1, 102637, Note_off_c, 0, 80, 58
1, 102658, Note_on_c, 0, 68, 90
1, 102658, Note_on_c, 0, 80, 72
1, 102658, Note_on_c, 0, 74, 96
1, 102724, Note_on_c, 0, 57, 74
1, 102724, Note_off_c, 0, 68, 61
1, 102725, Note_on_c, 0, 62, 75
1, 102725, Note_off_c, 0, 74, 64
1, 102733, Note_off_c, 0, 80, 63
1, 102738, Note_on_c, 0, 53, 54
1, 102748, Note_off_c, 0, 62, 67
1, 102750, Note_off_c, 0, 57, 68
1, 102771, Note_off_c, 0, 53, 59
1, 102805, Note_on_c, 0, 62, 79
1, 102810, Note_on_c, 0, 53, 76
1, 102810, Note_on_c, 0, 57, 76
1, 102827, Note_off_c, 0, 62, 68
1, 102834, Note_off_c, 0, 57, 68
1, 102857, Note_off_c, 0, 53, 65
1, 102864, Note_on_c, 0, 69, 93
1, 102864, Note_on_c, 0, 74, 87
1, 102868, Note_on_c, 0, 77, 80
1, 102879, Note_on_c, 0, 81, 62
1, 102884, Note_off_c, 0, 69, 68
1, 102886, Note_off_c, 0, 74, 67
1, 102890, Note_off_c, 0, 77, 70
1, 102897, Note_off_c, 0, 81, 65
1, 102941, Note_on_c, 0, 69, 98
1, 102941, Note_on_c, 0, 74, 97
1, 102944, Note_on_c, 0, 81, 96
1, 102947, Control_c, 0, 64, 78
1, 102948, Note_on_c, 0, 77, 88
1, 102962, Control_c, 0, 64, 0
1, 103006, Control_c, 0, 64, 72
1, 103021, Control_c, 0, 64, 96
1, 103025, Note_on_c, 0, 50, 98
1, 103028, Note_on_c, 0, 45, 87
1, 103030, Note_off_c, 0, 69, 58
1, 103034, Note_on_c, 0, 41, 74
1, 103036, Note_off_c, 0, 81, 61
1, 103036, Control_c, 0, 64, 127
1, 103043, Note_on_c, 0, 38, 57
1, 103043, Note_off_c, 0, 74, 63
1, 103049, Note_off_c, 0, 50, 68
1, 103056, Note_off_c, 0, 45, 68
1, 103063, Note_off_c, 0, 41, 63
1, 103063, Note_off_c, 0, 77, 64
1, 103072, Note_off_c, 0, 38, 56
1, 103123, Note_on_c, 0, 50, 97
1, 103126, Note_on_c, 0, 41, 84
1, 103129, Note_on_c, 0, 45, 82
1, 103137, Note_on_c, 0, 38, 81
1, 103168, Note_off_c, 0, 38, 65
1, 103204, Note_off_c, 0, 45, 64
1, 103210, Note_off_c, 0, 41, 62
1, 103217, Note_off_c, 0, 50, 64
1, 103233, Note_on_c, 0, 74, 104
1, 103236, Note_on_c, 0, 77, 96
1, 103239, Note_on_c, 0, 81, 86
1, 103239, Note_on_c, 0, 86, 92
1, 103260, Note_off_c, 0, 81, 63
1, 103260, Note_off_c, 0, 86, 67
1, 103261, Note_off_c, 0, 77, 60
1, 103262, Note_off_c, 0, 74, 71
1, 103335, Note_on_c, 0, 74, 110
1, 103338, Note_on_c, 0, 77, 100
1, 103341, Note_on_c, 0, 86, 90
1, 103343, Note_on_c, 0, 81, 87
1, 103384, Note_off_c, 0, 86, 62
1, 103411, Note_off_c, 0, 74, 60
1, 103418, Note_off_c, 0, 77, 64
1, 103423, Note_off_c, 0, 81, 61
1, 103434, Note_on_c, 0, 62, 87
1, 103434, Note_on_c, 0, 65, 88
1, 103444, Note_on_c, 0, 57, 68
1, 103455, Note_off_c, 0, 62, 66
1, 103455, Note_off_c, 0, 65, 68
1, 103465, Note_off_c, 0, 57, 63
1, 103537, Note_on_c, 0, 57, 81
1, 103539, Note_on_c, 0, 62, 85
1, 103540, Note_on_c, 0, 65, 84
1, 103564, Note_off_c, 0, 65, 67
1, 103566, Note_off_c, 0, 62, 66
1, 103588, Note_off_c, 0, 57, 66
1, 103643, Note_on_c, 0, 72, 106
1, 103644, Note_on_c, 0, 84, 99
1, 103674, Note_off_c, 0, 72, 69
1, 103680, Note_off_c, 0, 84, 65
1, 103744, Note_on_c, 0, 72, 100
1, 103746, Note_on_c, 0, 79, 89
1, 103748, Note_on_c, 0, 76, 85
1, 103751, Note_on_c, 0, 84, 89
1, 103755, Control_c, 0, 64, 112
1, 103770, Control_c, 0, 64, 63
1, 103785, Control_c, 0, 64, 0
1, 103833, Note_on_c, 0, 52, 75
1, 103835, Note_on_c, 0, 43, 70
1, 103838, Note_on_c, 0, 46, 70
1, 103851, Note_off_c, 0, 84, 58
1, 103859, Note_off_c, 0, 52, 65
1, 103859, Control_c, 0, 64, 88
1, 103862, Note_off_c, 0, 43, 64
1, 103864, Note_off_c, 0, 46, 64
1, 103865, Note_off_c, 0, 72, 54
1, 103874, Control_c, 0, 64, 127
1, 103885, Note_off_c, 0, 76, 57
1, 103886, Note_off_c, 0, 79, 56
1, 103908, Note_on_c, 0, 52, 78
1, 103919, Note_on_c, 0, 43, 77
1, 103925, Note_on_c, 0, 38, 51
1, 103930, Note_on_c, 0, 46, 64
1, 103945, Note_off_c, 0, 43, 65
1, 103952, Note_off_c, 0, 46, 60
1, 103957, Note_off_c, 0, 38, 53
1, 103964, Note_off_c, 0, 52, 59
1, 103982, Note_on_c, 0, 71, 80
1, 103991, Note_on_c, 0, 76, 67
1, 103999, Note_on_c, 0, 83, 56
1, 104000, Note_off_c, 0, 71, 74
1, 104009, Note_off_c, 0, 76, 65
1, 104018, Note_off_c, 0, 83, 62
1, 104044, Note_on_c, 0, 71, 91
1, 104047, Note_on_c, 0, 83, 78
1, 104062, Note_on_c, 0, 76, 84
1, 104088, Note_on_c, 0, 64, 77
1, 104095, Note_on_c, 0, 67, 70
1, 104109, Note_off_c, 0, 64, 71
1, 104119, Note_off_c, 0, 76, 60
1, 104120, Note_off_c, 0, 71, 58
1, 104120, Note_off_c, 0, 83, 64
1, 104122, Note_off_c, 0, 67, 67
1, 104160, Note_on_c, 0, 58, 56
1, 104164, Note_on_c, 0, 64, 77
1, 104166, Note_on_c, 0, 67, 65
1, 104187, Note_off_c, 0, 64, 69
1, 104192, Note_off_c, 0, 67, 60
1, 104212, Note_off_c, 0, 58, 64
1, 104236, Note_on_c, 0, 70, 92
1, 104241, Note_on_c, 0, 76, 77
1, 104254, Note_off_c, 0, 70, 71
1, 104274, Note_off_c, 0, 76, 66
1, 104276, Note_on_c, 0, 82, 37
1, 104304, Note_off_c, 0, 82, 0
1, 104310, Control_c, 0, 64, 73
1, 104317, Note_on_c, 0, 70, 98
1, 104321, Note_on_c, 0, 82, 60
1, 104325, Control_c, 0, 64, 0
1, 104328, Note_on_c, 0, 76, 88
1, 104381, Note_on_c, 0, 52, 73
1, 104384, Control_c, 0, 64, 70
1, 104388, Note_on_c, 0, 43, 58
1, 104392, Note_on_c, 0, 46, 57
1, 104399, Note_off_c, 0, 82, 62
1, 104399, Control_c, 0, 64, 127
1, 104407, Note_off_c, 0, 52, 65
1, 104419, Note_off_c, 0, 43, 64
1, 104419, Note_off_c, 0, 46, 59
1, 104422, Note_off_c, 0, 70, 61
1, 104425, Note_off_c, 0, 76, 60
1, 104460, Note_on_c, 0, 52, 78
1, 104474, Note_on_c, 0, 38, 60
1, 104481, Note_on_c, 0, 43, 57
1, 104488, Note_off_c, 0, 52, 63
1, 104503, Note_off_c, 0, 38, 55
1, 104509, Note_off_c, 0, 43, 58
1, 104535, Note_on_c, 0, 69, 81
1, 104548, Note_on_c, 0, 76, 62
1, 104554, Note_off_c, 0, 69, 73
1, 104568, Note_on_c, 0, 81, 26
1, 104569, Note_off_c, 0, 76, 59
1, 104603, Note_off_c, 0, 81, 0
1, 104603, Note_on_c, 0, 81, 41
1, 104604, Note_on_c, 0, 69, 95
1, 104607, Note_on_c, 0, 76, 79
1, 104637, Note_on_c, 0, 56, 77
1, 104649, Note_on_c, 0, 64, 57
1, 104658, Note_off_c, 0, 81, 62
1, 104667, Note_off_c, 0, 56, 64
1, 104670, Note_off_c, 0, 64, 64
1, 104673, Note_off_c, 0, 69, 61
1, 104673, Note_off_c, 0, 76, 63
1, 104728, Note_on_c, 0, 55, 72
1, 104733, Note_on_c, 0, 64, 69
1, 104738, Note_on_c, 0, 58, 65
1, 104754, Note_off_c, 0, 64, 67
1, 104760, Note_off_c, 0, 55, 66
1, 104764, Note_off_c, 0, 58, 65
1, 104804, Note_on_c, 0, 68, 76
1, 104806, Note_on_c, 0, 76, 71
1, 104826, Note_off_c, 0, 68, 69
1, 104829, Note_off_c, 0, 76, 68
1, 104844, Control_c, 0, 64, 77
1, 104859, Control_c, 0, 64, 0
1, 104872, Note_on_c, 0, 68, 88
1, 104876, Note_on_c, 0, 80, 64
1, 104888, Note_on_c, 0, 76, 77
1, 104948, Note_on_c, 0, 52, 76
1, 104956, Note_on_c, 0, 46, 59
1, 104960, Note_on_c, 0, 43, 49
1, 104962, Control_c, 0, 64, 91
1, 104976, Note_off_c, 0, 52, 62
1, 104977, Control_c, 0, 64, 127
1, 104983, Note_off_c, 0, 46, 59
1, 104983, Note_off_c, 0, 80, 59
1, 104995, Note_off_c, 0, 68, 61
1, 105013, Note_off_c, 0, 76, 60
1, 105022, Note_off_c, 0, 43, 0
1, 105035, Note_on_c, 0, 43, 57
1, 105039, Note_on_c, 0, 38, 61
1, 105051, Poly_aftertouch_c, 0, 52, 0
1, 105053, Note_on_c, 0, 46, 35
1, 105063, Note_off_c, 0, 43, 65
1, 105066, Note_off_c, 0, 38, 57
1, 105097, Note_off_c, 0, 46, 48
1, 105107, Note_on_c, 0, 67, 82
1, 105115, Note_on_c, 0, 76, 64
1, 105118, Note_on_c, 0, 70, 54
1, 105128, Note_off_c, 0, 67, 70
1, 105134, Note_off_c, 0, 76, 64
1, 105138, Note_off_c, 0, 70, 62
1, 105141, Note_on_c, 0, 79, 29
1, 105189, Note_off_c, 0, 79, 0
1, 105189, Note_on_c, 0, 79, 47
1, 105195, Note_on_c, 0, 67, 73
1, 105198, Note_on_c, 0, 76, 77
1, 105201, Note_on_c, 0, 70, 72
1, 105232, Note_on_c, 0, 58, 59
1, 105232, Note_on_c, 0, 64, 57
1, 105233, Note_on_c, 0, 55, 56
1, 105246, Note_off_c, 0, 79, 61
1, 105254, Note_off_c, 0, 64, 63
1, 105256, Note_off_c, 0, 58, 62
1, 105256, Note_off_c, 0, 67, 57
1, 105258, Note_off_c, 0, 55, 60
1, 105274, Note_off_c, 0, 76, 58
1, 105279, Note_off_c, 0, 70, 62
1, 105322, Note_on_c, 0, 58, 69
1, 105325, Note_on_c, 0, 55, 66
1, 105332, Note_on_c, 0, 64, 43
1, 105354, Note_off_c, 0, 58, 64
1, 105356, Note_off_c, 0, 55, 65
1, 105356, Note_off_c, 0, 64, 61
1, 105398, Note_on_c, 0, 70, 63
1, 105398, Note_on_c, 0, 78, 65
1, 105401, Note_on_c, 0, 66, 72
1, 105424, Note_off_c, 0, 66, 65
1, 105424, Note_off_c, 0, 70, 66
1, 105424, Note_off_c, 0, 78, 67
1, 105475, Control_c, 0, 64, 95
1, 105481, Note_on_c, 0, 66, 75
1, 105481, Note_on_c, 0, 78, 82
1, 105487, Note_on_c, 0, 70, 69
1, 105490, Control_c, 0, 64, 72
1, 105505, Control_c, 0, 64, 0
1, 105536, Note_on_c, 0, 52, 68
1, 105537, Note_on_c, 0, 46, 61
1, 105542, Note_on_c, 0, 43, 58
1, 105549, Control_c, 0, 64, 65
1, 105564, Control_c, 0, 64, 75
1, 105564, Note_off_c, 0, 46, 63
1, 105566, Note_off_c, 0, 52, 64
1, 105578, Note_off_c, 0, 43, 63
1, 105579, Control_c, 0, 64, 99
1, 105592, Note_off_c, 0, 66, 58
1, 105592, Note_off_c, 0, 78, 56
1, 105593, Control_c, 0, 64, 127
1, 105597, Note_off_c, 0, 70, 55
1, 105609, Poly_aftertouch_c, 0, 75, 0
1, 105627, Note_on_c, 0, 52, 69
1, 105634, Note_on_c, 0, 46, 66
1, 105637, Note_on_c, 0, 43, 65
1, 105650, Note_on_c, 0, 38, 47
1, 105660, Note_off_c, 0, 52, 61
1, 105666, Note_off_c, 0, 43, 64
1, 105666, Note_off_c, 0, 46, 61
1, 105689, Note_off_c, 0, 38, 48
1, 105700, Note_on_c, 0, 77, 68
1, 105701, Note_on_c, 0, 70, 66
1, 105702, Note_on_c, 0, 65, 66
1, 105722, Note_off_c, 0, 65, 65
1, 105723, Note_off_c, 0, 70, 70
1, 105724, Note_off_c, 0, 77, 71
1, 105789, Note_on_c, 0, 77, 82
1, 105790, Note_on_c, 0, 65, 77
1, 105803, Note_on_c, 0, 70, 70
1, 105821, Note_on_c, 0, 55, 56
1, 105824, Note_on_c, 0, 58, 52
1, 105840, Note_off_c, 0, 65, 47
1, 105847, Note_off_c, 0, 55, 59
1, 105850, Note_off_c, 0, 58, 58
1, 105851, Note_off_c, 0, 77, 59
1, 105861, Note_off_c, 0, 70, 57
1, 105914, Note_on_c, 0, 55, 72
1, 105925, Note_on_c, 0, 58, 52
1, 105937, Note_off_c, 0, 55, 68
1, 105952, Note_off_c, 0, 58, 59
1, 105996, Note_on_c, 0, 70, 60
1, 105998, Note_on_c, 0, 64, 71
1, 105998, Note_on_c, 0, 76, 65
1, 106019, Note_off_c, 0, 76, 65
1, 106024, Note_off_c, 0, 64, 67
1, 106024, Note_off_c, 0, 70, 66
1, 106074, Control_c, 0, 64, 119
1, 106083, Note_on_c, 0, 64, 72
1, 106084, Note_on_c, 0, 76, 78
1, 106090, Note_on_c, 0, 70, 74
1, 106090, Control_c, 0, 64, 88
1, 106105, Control_c, 0, 64, 68
1, 106120, Control_c, 0, 64, 0
1, 106122, Note_on_c, 0, 42, 69
1, 106130, Note_on_c, 0, 52, 67
1, 106137, Note_on_c, 0, 46, 57
1, 106150, Control_c, 0, 64, 36
1, 106163, Note_off_c, 0, 52, 63
1, 106164, Control_c, 0, 64, 66
1, 106165, Note_off_c, 0, 46, 64
1, 106169, Note_off_c, 0, 76, 60
1, 106173, Note_off_c, 0, 42, 61
1, 106176, Note_off_c, 0, 64, 58
1, 106179, Control_c, 0, 64, 76
1, 106194, Control_c, 0, 64, 93
1, 106207, Note_off_c, 0, 70, 58
1, 106208, Control_c, 0, 64, 127
1, 106226, Note_on_c, 0, 52, 73
1, 106229, Note_on_c, 0, 43, 71
1, 106233, Note_on_c, 0, 46, 63
1, 106236, Note_on_c, 0, 38, 56
1, 106259, Note_off_c, 0, 52, 54
1, 106268, Note_off_c, 0, 38, 53
1, 106275, Note_off_c, 0, 46, 61
1, 106276, Note_off_c, 0, 43, 62
1, 106292, Note_on_c, 0, 63, 76
1, 106295, Note_on_c, 0, 75, 65
1, 106312, Note_on_c, 0, 70, 51
1, 106315, Note_off_c, 0, 63, 69
1, 106320, Note_off_c, 0, 75, 68
1, 106336, Note_off_c, 0, 70, 60
1, 106375, Note_on_c, 0, 63, 82
1, 106384, Note_on_c, 0, 75, 79
1, 106392, Note_on_c, 0, 70, 73
1, 106417, Note_on_c, 0, 55, 69
1, 106422, Note_on_c, 0, 58, 62
1, 106438, Note_off_c, 0, 63, 60
1, 106441, Note_off_c, 0, 75, 58
1, 106447, Note_off_c, 0, 55, 65
1, 106450, Note_off_c, 0, 58, 65
1, 106452, Note_off_c, 0, 70, 62
1, 106503, Note_on_c, 0, 55, 77
1, 106530, Note_on_c, 0, 58, 59
1, 106544, Note_off_c, 0, 55, 62
1, 106551, Note_off_c, 0, 58, 65
1, 106582, Note_on_c, 0, 70, 74
1, 106587, Note_on_c, 0, 64, 77
1, 106593, Note_on_c, 0, 76, 61
1, 106602, Note_off_c, 0, 70, 70
1, 106610, Note_off_c, 0, 64, 71
1, 106613, Note_off_c, 0, 76, 65
1, 106646, Control_c, 0, 64, 93
1, 106661, Control_c, 0, 64, 64
1, 106671, Note_on_c, 0, 64, 75
1, 106674, Note_on_c, 0, 70, 71
1, 106674, Note_on_c, 0, 76, 78
1, 106676, Control_c, 0, 64, 0
1, 106730, Note_on_c, 0, 52, 84
1, 106737, Note_on_c, 0, 46, 62
1, 106742, Note_on_c, 0, 43, 61
1, 106762, Note_off_c, 0, 52, 63
1, 106769, Note_off_c, 0, 64, 61
1, 106772, Note_off_c, 0, 46, 60
1, 106779, Control_c, 0, 64, 87
1, 106780, Note_off_c, 0, 76, 59
1, 106781, Note_off_c, 0, 43, 59
1, 106794, Control_c, 0, 64, 127
1, 106799, Note_off_c, 0, 70, 60
1, 106819, Note_on_c, 0, 52, 69
1, 106824, Note_on_c, 0, 43, 68
1, 106832, Note_on_c, 0, 38, 56
1, 106855, Note_on_c, 0, 46, 56
1, 106858, Note_off_c, 0, 43, 65
1, 106860, Note_off_c, 0, 52, 62
1, 106861, Note_off_c, 0, 38, 55
1, 106879, Note_off_c, 0, 46, 60
1, 106881, Note_on_c, 0, 65, 76
1, 106883, Note_on_c, 0, 70, 68
1, 106900, Note_on_c, 0, 77, 44
1, 106906, Note_off_c, 0, 65, 69
1, 106910, Note_off_c, 0, 70, 66
1, 106926, Note_off_c, 0, 77, 57
1, 106959, Note_on_c, 0, 65, 82
1, 106960, Note_on_c, 0, 70, 81
1, 106965, Note_on_c, 0, 77, 73
1, 107001, Note_on_c, 0, 55, 71
1, 107010, Note_on_c, 0, 58, 62
1, 107021, Note_off_c, 0, 77, 63
1, 107025, Note_off_c, 0, 65, 59
1, 107031, Note_off_c, 0, 55, 64
1, 107032, Note_off_c, 0, 58, 65
1, 107039, Note_off_c, 0, 70, 62
1, 107090, Note_on_c, 0, 55, 79
1, 107094, Note_on_c, 0, 58, 72
1, 107117, Note_off_c, 0, 58, 68
1, 107131, Note_off_c, 0, 55, 61
1, 107163, Note_on_c, 0, 66, 83
1, 107167, Note_on_c, 0, 78, 72
1, 107168, Note_on_c, 0, 70, 70
1, 107183, Note_off_c, 0, 66, 70
1, 107188, Note_off_c, 0, 70, 70
1, 107189, Note_off_c, 0, 78, 71
1, 107246, Note_on_c, 0, 66, 87
1, 107249, Note_on_c, 0, 78, 85
1, 107252, Note_on_c, 0, 70, 81
1, 107261, Control_c, 0, 64, 94
1, 107276, Control_c, 0, 64, 66
1, 107291, Control_c, 0, 64, 0
1, 107310, Note_on_c, 0, 52, 79
1, 107320, Note_on_c, 0, 46, 61
1, 107335, Control_c, 0, 64, 58
1, 107338, Note_on_c, 0, 43, 22
1, 107338, Note_off_c, 0, 52, 66
1, 107348, Note_off_c, 0, 46, 63
1, 107350, Control_c, 0, 64, 76
1, 107362, Note_off_c, 0, 66, 61
1, 107365, Control_c, 0, 64, 106
1, 107376, Note_off_c, 0, 78, 59
1, 107377, Note_off_c, 0, 70, 60
1, 107377, Note_off_c, 0, 43, 0
1, 107380, Control_c, 0, 64, 127
1, 107396, Note_on_c, 0, 52, 84
1, 107401, Note_on_c, 0, 43, 54
1, 107410, Note_on_c, 0, 38, 63
1, 107413, Note_on_c, 0, 46, 74
1, 107435, Note_off_c, 0, 43, 63
1, 107438, Note_off_c, 0, 46, 64
1, 107439, Note_off_c, 0, 38, 55
1, 107445, Note_off_c, 0, 52, 57
1, 107481, Note_on_c, 0, 67, 81
1, 107487, Note_on_c, 0, 70, 67
1, 107490, Note_on_c, 0, 79, 68
1, 107501, Note_off_c, 0, 67, 70
1, 107506, Note_off_c, 0, 79, 66
1, 107511, Note_off_c, 0, 70, 67
1, 107558, Note_on_c, 0, 67, 90
1, 107562, Note_on_c, 0, 70, 83
1, 107562, Note_on_c, 0, 79, 84
1, 107585, Note_on_c, 0, 58, 71
1, 107590, Note_on_c, 0, 64, 66
1, 107594, Note_on_c, 0, 55, 59
1, 107612, Note_off_c, 0, 58, 64
1, 107616, Note_off_c, 0, 79, 60
1, 107618, Note_off_c, 0, 55, 63
1, 107619, Note_off_c, 0, 64, 67
1, 107620, Note_off_c, 0, 67, 60
1, 107634, Note_off_c, 0, 70, 62
1, 107668, Note_on_c, 0, 58, 76
1, 107674, Note_on_c, 0, 55, 81
1, 107684, Note_on_c, 0, 64, 58
1, 107702, Note_off_c, 0, 64, 67
1, 107713, Note_off_c, 0, 55, 63
1, 107714, Note_off_c, 0, 58, 61
1, 107765, Note_on_c, 0, 68, 89
1, 107768, Note_on_c, 0, 76, 79
1, 107783, Note_off_c, 0, 68, 71
1, 107800, Note_off_c, 0, 76, 57
1, 107840, Note_on_c, 0, 68, 103
1, 107840, Control_c, 0, 64, 95
1, 107845, Note_on_c, 0, 80, 69
1, 107848, Note_on_c, 0, 76, 74
1, 107854, Control_c, 0, 64, 65
1, 107869, Control_c, 0, 64, 0
1, 107885, Note_on_c, 0, 52, 85
1, 107893, Note_on_c, 0, 46, 67
1, 107896, Note_on_c, 0, 43, 63
1, 107910, Note_off_c, 0, 52, 66
1, 107914, Control_c, 0, 64, 66
1, 107919, Note_off_c, 0, 46, 64
1, 107926, Note_off_c, 0, 43, 65
1, 107928, Control_c, 0, 64, 80
1, 107943, Control_c, 0, 64, 112
1, 107948, Note_off_c, 0, 76, 59
1, 107948, Note_off_c, 0, 80, 62
1, 107952, Note_off_c, 0, 68, 61
1, 107958, Control_c, 0, 64, 127
1, 107979, Note_on_c, 0, 52, 83
1, 107981, Note_on_c, 0, 46, 71
1, 107988, Note_on_c, 0, 43, 69
1, 107991, Note_on_c, 0, 38, 53
1, 108021, Note_off_c, 0, 43, 66
1, 108021, Note_off_c, 0, 46, 59
1, 108031, Note_off_c, 0, 38, 52
1, 108036, Note_off_c, 0, 52, 63
1, 108064, Note_on_c, 0, 69, 90
1, 108064, Note_on_c, 0, 76, 82
1, 108081, Note_on_c, 0, 81, 60
1, 108084, Note_off_c, 0, 69, 69
1, 108087, Note_off_c, 0, 76, 69
1, 108101, Note_off_c, 0, 81, 62
1, 108140, Note_on_c, 0, 69, 94
1, 108145, Note_on_c, 0, 76, 92
1, 108153, Note_on_c, 0, 81, 88
1, 108161, Note_on_c, 0, 64, 81
1, 108164, Note_on_c, 0, 67, 77
1, 108183, Note_off_c, 0, 64, 70
1, 108185, Note_off_c, 0, 67, 69
1, 108195, Note_off_c, 0, 81, 59
1, 108200, Note_off_c, 0, 69, 62
1, 108215, Note_off_c, 0, 76, 63
1, 108223, Poly_aftertouch_c, 0, 58, 127
1, 108241, Note_on_c, 0, 58, 11
1, 108241, Note_on_c, 0, 64, 91
1, 108243, Note_on_c, 0, 67, 82
1, 108266, Note_off_c, 0, 67, 65
1, 108268, Note_off_c, 0, 64, 67
1, 108301, Note_off_c, 0, 58, 59
1, 108307, Control_c, 0, 64, 114
1, 108322, Control_c, 0, 64, 75
1, 108337, Control_c, 0, 64, 0
1, 108337, Note_on_c, 0, 70, 85
1, 108339, Note_on_c, 0, 76, 74
1, 108349, Note_on_c, 0, 79, 54
1, 108356, Note_off_c, 0, 70, 71
1, 108362, Note_off_c, 0, 76, 68
1, 108371, Note_off_c, 0, 79, 59
1, 108405, Note_on_c, 0, 70, 97
1, 108406, Note_on_c, 0, 82, 79
1, 108417, Note_on_c, 0, 76, 89
1, 108420, Note_on_c, 0, 79, 80
1, 108455, Control_c, 0, 64, 76
1, 108470, Control_c, 0, 64, 127
1, 108471, Note_on_c, 0, 45, 77
1, 108471, Note_on_c, 0, 49, 82
1, 108493, Note_off_c, 0, 49, 67
1, 108496, Note_on_c, 0, 37, 42
1, 108498, Note_off_c, 0, 45, 65
1, 108502, Note_off_c, 0, 70, 59
1, 108502, Note_off_c, 0, 82, 63
1, 108504, Note_off_c, 0, 76, 58
1, 108523, Note_off_c, 0, 79, 60
1, 108536, Note_off_c, 0, 37, 49
1, 108555, Note_on_c, 0, 49, 70
1, 108561, Note_on_c, 0, 45, 78
1, 108562, Note_on_c, 0, 37, 69
1, 108593, Note_off_c, 0, 45, 68
1, 108594, Note_off_c, 0, 37, 65
1, 108611, Note_off_c, 0, 49, 65
1, 108629, Note_on_c, 0, 69, 81
1, 108629, Note_on_c, 0, 76, 73
1, 108629, Note_on_c, 0, 79, 70
1, 108648, Note_off_c, 0, 79, 65
1, 108650, Note_off_c, 0, 69, 72
1, 108650, Note_on_c, 0, 81, 38
1, 108653, Note_off_c, 0, 76, 67
1, 108677, Note_off_c, 0, 81, 56
1, 108701, Note_on_c, 0, 79, 86
1, 108703, Note_on_c, 0, 69, 89
1, 108706, Note_on_c, 0, 81, 71
1, 108707, Note_on_c, 0, 76, 85
1, 108726, Note_off_c, 0, 69, 64
1, 108760, Note_off_c, 0, 76, 64
1, 108763, Note_off_c, 0, 81, 63
1, 108763, Note_on_c, 0, 64, 79
1, 108769, Note_off_c, 0, 79, 65
1, 108784, Note_on_c, 0, 67, 52
1, 108786, Note_off_c, 0, 64, 72
1, 108809, Note_off_c, 0, 67, 59
1, 108843, Note_on_c, 0, 57, 58
1, 108847, Note_on_c, 0, 64, 82
1, 108849, Note_on_c, 0, 67, 61
1, 108873, Note_off_c, 0, 67, 63
1, 108875, Note_off_c, 0, 64, 62
1, 108904, Note_off_c, 0, 57, 63
1, 108925, Note_on_c, 0, 82, 94
1, 108927, Note_on_c, 0, 88, 90
1, 108929, Note_on_c, 0, 91, 77
1, 108939, Note_on_c, 0, 94, 60
1, 108940, Note_off_c, 0, 82, 73
1, 108947, Note_off_c, 0, 88, 69
1, 108950, Note_off_c, 0, 91, 71
1, 108957, Note_off_c, 0, 94, 64
1, 108993, Note_on_c, 0, 82, 107
1, 108996, Control_c, 0, 64, 91
1, 108997, Note_on_c, 0, 94, 107
1, 108998, Note_on_c, 0, 88, 93
1, 109001, Note_on_c, 0, 91, 93
1, 109010, Control_c, 0, 64, 73
1, 109025, Control_c, 0, 64, 76
1, 109040, Control_c, 0, 64, 127
1, 109060, Note_on_c, 0, 45, 77
1, 109061, Note_on_c, 0, 49, 75
1, 109085, Note_off_c, 0, 45, 67
1, 109086, Note_off_c, 0, 49, 66
1, 109098, Note_off_c, 0, 94, 61
1, 109099, Note_off_c, 0, 88, 60
1, 109100, Note_on_c, 0, 37, 16
1, 109103, Note_off_c, 0, 82, 58
1, 109114, Note_off_c, 0, 91, 63
1, 109132, Note_off_c, 0, 37, 0
1, 109132, Note_on_c, 0, 37, 33
1, 109136, Note_on_c, 0, 49, 84
1, 109137, Note_on_c, 0, 45, 81
1, 109168, Note_off_c, 0, 45, 63
1, 109178, Note_off_c, 0, 37, 60
1, 109195, Note_off_c, 0, 49, 65
1, 109215, Note_on_c, 0, 91, 85
1, 109216, Note_on_c, 0, 81, 86
1, 109216, Note_on_c, 0, 88, 82
1, 109233, Note_off_c, 0, 81, 73
1, 109234, Note_off_c, 0, 91, 72
1, 109237, Note_off_c, 0, 88, 70
1, 109286, Note_on_c, 0, 81, 101
1, 109288, Note_on_c, 0, 91, 90
1, 109290, Note_on_c, 0, 93, 67
1, 109293, Note_on_c, 0, 88, 83
1, 109319, Note_off_c, 0, 93, 64
1, 109320, Note_off_c, 0, 88, 63
1, 109335, Note_on_c, 0, 64, 83
1, 109340, Note_off_c, 0, 81, 58
1, 109340, Note_off_c, 0, 91, 64
1, 109346, Note_on_c, 0, 67, 67
1, 109353, Note_off_c, 0, 64, 73
1, 109364, Note_off_c, 0, 67, 66
1, 109365, Note_on_c, 0, 57, 26
1, 109401, Note_off_c, 0, 57, 0
1, 109419, Note_on_c, 0, 64, 85
1, 109421, Note_on_c, 0, 57, 57
1, 109425, Note_on_c, 0, 67, 69
1, 109437, Note_off_c, 0, 64, 72
1, 109443, Note_off_c, 0, 67, 66
1, 109468, Note_off_c, 0, 57, 62
1, 109486, Control_c, 0, 64, 99
1, 109491, Note_on_c, 0, 76, 80
1, 109494, Note_on_c, 0, 88, 71
1, 109508, Control_c, 0, 64, 71
1, 109517, Note_off_c, 0, 88, 66
1, 109520, Note_off_c, 0, 76, 69
1, 109523, Control_c, 0, 64, 0
1, 109572, Note_on_c, 0, 88, 77
1, 109574, Note_on_c, 0, 76, 83
1, 109579, Note_on_c, 0, 80, 76
1, 109580, Note_on_c, 0, 83, 75
1, 109641, Control_c, 0, 64, 61
1, 109648, Note_on_c, 0, 50, 72
1, 109656, Control_c, 0, 64, 85
1, 109665, Note_off_c, 0, 88, 62
1, 109666, Note_on_c, 0, 47, 48
1, 109668, Note_on_c, 0, 48, 41
1, 109671, Control_c, 0, 64, 127
1, 109678, Note_off_c, 0, 50, 68
1, 109679, Note_off_c, 0, 76, 56
1, 109700, Note_off_c, 0, 80, 61
1, 109704, Note_off_c, 0, 48, 49
1, 109705, Note_off_c, 0, 47, 0
1, 109705, Note_off_c, 0, 83, 62
1, 109724, Note_on_c, 0, 47, 59
1, 109726, Note_on_c, 0, 38, 81
1, 109729, Note_on_c, 0, 50, 78
1, 109752, Note_off_c, 0, 38, 65
1, 109761, Note_off_c, 0, 50, 64
1, 109767, Note_off_c, 0, 47, 66
1, 109797, Note_on_c, 0, 83, 86
1, 109798, Note_on_c, 0, 80, 84
1, 109799, Note_on_c, 0, 77, 81
1, 109815, Note_off_c, 0, 80, 73
1, 109816, Note_off_c, 0, 83, 69
1, 109818, Note_off_c, 0, 77, 73
1, 109866, Note_on_c, 0, 77, 91
1, 109872, Note_on_c, 0, 80, 87
1, 109874, Note_on_c, 0, 83, 86
1, 109905, Note_on_c, 0, 89, 27
1, 109930, Note_on_c, 0, 65, 48
1, 109942, Note_off_c, 0, 89, 48
1, 109956, Note_off_c, 0, 65, 58
1, 109956, Note_off_c, 0, 77, 62
1, 109970, Note_off_c, 0, 80, 60
1, 109970, Poly_aftertouch_c, 0, 88, 0
1, 109975, Note_off_c, 0, 83, 61
1, 109982, Note_on_c, 0, 59, 8
1, 109987, Poly_aftertouch_c, 0, 56, 127
1, 109988, Poly_aftertouch_c, 0, 60, 127
1, 109989, Note_on_c, 0, 65, 73
1, 110013, Note_off_c, 0, 65, 69
1, 110021, Poly_aftertouch_c, 0, 60, 0
1, 110034, Note_off_c, 0, 59, 60
1, 110049, Poly_aftertouch_c, 0, 56, 0
1, 110066, Note_on_c, 0, 73, 99
1, 110078, Note_on_c, 0, 83, 66
1, 110080, Note_on_c, 0, 80, 68
1, 110081, Note_on_c, 0, 85, 64
1, 110085, Note_off_c, 0, 73, 68
1, 110098, Note_off_c, 0, 85, 65
1, 110101, Note_off_c, 0, 80, 69
1, 110101, Note_off_c, 0, 83, 69
1, 110140, Note_on_c, 0, 73, 103
1, 110146, Control_c, 0, 64, 96
1, 110156, Note_on_c, 0, 85, 86
1, 110158, Note_on_c, 0, 80, 76
1, 110161, Note_on_c, 0, 83, 71
1, 110161, Control_c, 0, 64, 62
1, 110175, Control_c, 0, 64, 0
1, 110194, Note_on_c, 0, 47, 80
1, 110199, Note_on_c, 0, 50, 73
1, 110220, Control_c, 0, 64, 88
1, 110224, Note_off_c, 0, 47, 69
1, 110225, Note_off_c, 0, 50, 69
1, 110235, Control_c, 0, 64, 127
1, 110262, Note_off_c, 0, 85, 61
1, 110267, Note_off_c, 0, 73, 60
1, 110274, Note_off_c, 0, 83, 62
1, 110280, Note_off_c, 0, 80, 60
1, 110281, Note_on_c, 0, 50, 77
1, 110282, Note_on_c, 0, 47, 78
1, 110288, Note_on_c, 0, 38, 68
1, 110317, Note_off_c, 0, 38, 63
1, 110321, Note_off_c, 0, 47, 66
1, 110331, Note_off_c, 0, 50, 65
1, 110364, Note_on_c, 0, 74, 89
1, 110367, Poly_aftertouch_c, 0, 40, 127
1, 110376, Note_on_c, 0, 80, 62
1, 110376, Note_on_c, 0, 83, 65
1, 110383, Note_off_c, 0, 74, 72
1, 110396, Note_off_c, 0, 80, 66
1, 110401, Note_off_c, 0, 83, 69
1, 110405, Poly_aftertouch_c, 0, 40, 0
1, 110442, Note_on_c, 0, 74, 98
1, 110451, Note_on_c, 0, 80, 81
1, 110453, Note_on_c, 0, 83, 76
1, 110474, Note_on_c, 0, 59, 72
1, 110476, Note_on_c, 0, 65, 75
1, 110480, Note_on_c, 0, 56, 64
1, 110486, Note_on_c, 0, 86, 4
1, 110491, Note_off_c, 0, 83, 61
1, 110498, Note_off_c, 0, 59, 66
1, 110499, Note_off_c, 0, 80, 63
1, 110500, Note_off_c, 0, 65, 70
1, 110501, Note_off_c, 0, 74, 65
1, 110507, Note_off_c, 0, 56, 65
1, 110519, Note_off_c, 0, 86, 53
1, 110559, Note_on_c, 0, 65, 73
1, 110561, Note_on_c, 0, 56, 81
1, 110562, Note_on_c, 0, 59, 79
1, 110584, Note_off_c, 0, 59, 67
1, 110584, Note_off_c, 0, 65, 68
1, 110603, Note_off_c, 0, 56, 66
1, 110639, Note_on_c, 0, 68, 89
1, 110652, Note_on_c, 0, 76, 64
1, 110660, Note_off_c, 0, 68, 67
1, 110671, Note_off_c, 0, 76, 64
1, 110715, Control_c, 0, 64, 97
1, 110730, Control_c, 0, 64, 70
1, 110741, Note_on_c, 0, 70, 94
1, 110745, Control_c, 0, 64, 0
1, 110751, Note_on_c, 0, 82, 76
1, 110752, Note_on_c, 0, 79, 73
1, 110764, Note_on_c, 0, 78, 39
1, 110801, Note_on_c, 0, 46, 78
1, 110804, Note_off_c, 0, 78, 47
1, 110805, Control_c, 0, 64, 70
1, 110814, Note_on_c, 0, 49, 63
1, 110820, Control_c, 0, 64, 92
1, 110829, Note_off_c, 0, 46, 66
1, 110835, Control_c, 0, 64, 127
1, 110837, Note_off_c, 0, 49, 61
1, 110837, Note_off_c, 0, 82, 62
1, 110844, Note_off_c, 0, 70, 60
1, 110845, Note_on_c, 0, 37, 16
1, 110855, Note_off_c, 0, 79, 58
1, 110884, Note_off_c, 0, 37, 0
1, 110884, Note_on_c, 0, 37, 23
1, 110894, Note_on_c, 0, 49, 81
1, 110895, Note_on_c, 0, 45, 83
1, 110925, Note_off_c, 0, 45, 65
1, 110928, Note_off_c, 0, 37, 57
1, 110941, Note_off_c, 0, 49, 64
1, 110959, Note_on_c, 0, 69, 80
1, 110959, Note_on_c, 0, 79, 75
1, 110969, Note_on_c, 0, 76, 61
1, 110980, Note_off_c, 0, 69, 71
1, 110981, Note_off_c, 0, 79, 68
1, 110990, Note_off_c, 0, 76, 62
1, 111032, Note_on_c, 0, 69, 89
1, 111035, Note_on_c, 0, 81, 57
1, 111037, Note_on_c, 0, 79, 84
1, 111047, Note_on_c, 0, 76, 87
1, 111067, Note_off_c, 0, 69, 67
1, 111074, Note_on_c, 0, 64, 84
1, 111082, Note_on_c, 0, 67, 71
1, 111090, Poly_aftertouch_c, 0, 75, 0
1, 111090, Note_off_c, 0, 76, 59
1, 111094, Note_off_c, 0, 64, 73
1, 111097, Note_off_c, 0, 81, 64
1, 111097, Note_off_c, 0, 79, 64
1, 111106, Note_off_c, 0, 67, 67
1, 111148, Poly_aftertouch_c, 0, 57, 127
1, 111154, Note_on_c, 0, 64, 88
1, 111158, Note_on_c, 0, 67, 80
1, 111175, Note_off_c, 0, 67, 72
1, 111195, Note_off_c, 0, 64, 68
1, 111225, Poly_aftertouch_c, 0, 57, 0
1, 111238, Note_on_c, 0, 82, 95
1, 111243, Note_on_c, 0, 88, 83
1, 111243, Note_on_c, 0, 91, 87
1, 111252, Note_on_c, 0, 94, 70
1, 111258, Note_off_c, 0, 82, 67
1, 111268, Note_off_c, 0, 88, 66
1, 111269, Note_off_c, 0, 91, 62
1, 111269, Note_off_c, 0, 94, 68
1, 111314, Note_on_c, 0, 82, 111
1, 111319, Note_on_c, 0, 88, 92
1, 111320, Note_on_c, 0, 94, 98
1, 111321, Note_on_c, 0, 91, 93
1, 111332, Control_c, 0, 64, 124
1, 111347, Control_c, 0, 64, 74
1, 111362, Control_c, 0, 64, 0
1, 111368, Note_on_c, 0, 49, 87
1, 111375, Note_on_c, 0, 46, 79
1, 111377, Control_c, 0, 64, 58
1, 111392, Control_c, 0, 64, 90
1, 111392, Note_off_c, 0, 49, 68
1, 111397, Note_off_c, 0, 46, 66
1, 111404, Note_on_c, 0, 37, 27
1, 111406, Control_c, 0, 64, 127
1, 111419, Note_off_c, 0, 94, 62
1, 111419, Note_off_c, 0, 82, 56
1, 111419, Note_off_c, 0, 88, 61
1, 111432, Note_off_c, 0, 91, 62
1, 111447, Note_on_c, 0, 49, 76
1, 111448, Note_off_c, 0, 37, 0
1, 111448, Note_on_c, 0, 37, 31
1, 111452, Note_on_c, 0, 46, 86
1, 111488, Note_off_c, 0, 46, 64
1, 111489, Note_off_c, 0, 37, 55
1, 111499, Note_off_c, 0, 49, 64
1, 111531, Note_on_c, 0, 88, 85
1, 111532, Note_on_c, 0, 91, 85
1, 111533, Note_on_c, 0, 81, 86
1, 111550, Note_off_c, 0, 91, 72
1, 111550, Note_off_c, 0, 81, 72
1, 111555, Note_off_c, 0, 88, 63
1, 111604, Note_on_c, 0, 81, 100
1, 111607, Note_on_c, 0, 93, 73
1, 111608, Note_on_c, 0, 91, 98
1, 111613, Note_on_c, 0, 88, 80
1, 111642, Note_off_c, 0, 88, 58
1, 111646, Note_off_c, 0, 93, 60
1, 111654, Note_on_c, 0, 65, 81
1, 111662, Note_off_c, 0, 91, 65
1, 111663, Note_off_c, 0, 81, 57
1, 111676, Note_off_c, 0, 65, 70
1, 111726, Poly_aftertouch_c, 0, 57, 127
1, 111741, Note_on_c, 0, 64, 72
1, 111771, Note_off_c, 0, 64, 69
1, 111802, Poly_aftertouch_c, 0, 57, 0
1, 111813, Note_on_c, 0, 76, 91
1, 111821, Note_on_c, 0, 88, 83
1, 111824, Poly_aftertouch_c, 0, 65, 0
1, 111839, Note_off_c, 0, 76, 62
1, 111839, Note_off_c, 0, 88, 72
1, 111845, Poly_aftertouch_c, 0, 65, 0
1, 111898, Note_on_c, 0, 76, 93
1, 111901, Note_on_c, 0, 83, 82
1, 111902, Note_on_c, 0, 80, 83
1, 111905, Note_on_c, 0, 88, 90
1, 111933, Control_c, 0, 64, 117
1, 111948, Control_c, 0, 64, 72
1, 111962, Control_c, 0, 64, 0
1, 111969, Note_on_c, 0, 47, 81
1, 111970, Note_on_c, 0, 50, 78
1, 111988, Note_on_c, 0, 46, 33
1, 111992, Control_c, 0, 64, 38
1, 111993, Note_off_c, 0, 88, 64
1, 111995, Note_off_c, 0, 50, 68
1, 111996, Note_off_c, 0, 47, 70
1, 111996, Note_off_c, 0, 76, 60
1, 112007, Control_c, 0, 64, 82
1, 112016, Note_off_c, 0, 80, 63
1, 112018, Note_off_c, 0, 83, 64
1, 112022, Control_c, 0, 64, 127
1, 112032, Note_off_c, 0, 46, 39
1, 112048, Note_on_c, 0, 38, 68
1, 112048, Note_on_c, 0, 47, 89
1, 112048, Note_on_c, 0, 50, 80
1, 112085, Note_off_c, 0, 38, 62
1, 112096, Note_off_c, 0, 47, 66
1, 112100, Note_off_c, 0, 50, 69
1, 112127, Note_on_c, 0, 77, 82
1, 112146, Note_off_c, 0, 77, 73
1, 112148, Note_on_c, 0, 89, 44
1, 112155, Note_on_c, 0, 79, 41
1, 112174, Note_off_c, 0, 89, 58
1, 112185, Note_off_c, 0, 79, 56
1, 112197, Note_on_c, 0, 77, 98
1, 112200, Note_on_c, 0, 83, 93
1, 112205, Note_on_c, 0, 80, 85
1, 112226, Note_on_c, 0, 87, 38
1, 112233, Note_on_c, 0, 89, 21
1, 112248, Note_off_c, 0, 77, 64
1, 112249, Note_off_c, 0, 83, 65
1, 112254, Note_on_c, 0, 59, 76
1, 112256, Note_off_c, 0, 87, 57
1, 112257, Note_off_c, 0, 80, 65
1, 112258, Note_on_c, 0, 65, 70
1, 112260, Note_on_c, 0, 56, 62
1, 112274, Note_off_c, 0, 89, 29
1, 112277, Note_off_c, 0, 59, 66
1, 112280, Note_off_c, 0, 65, 66
1, 112282, Note_off_c, 0, 56, 65
1, 112323, Note_on_c, 0, 59, 86
1, 112329, Note_on_c, 0, 65, 76
1, 112332, Note_on_c, 0, 56, 84
1, 112334, Control_c, 0, 64, 76
1, 112343, Note_off_c, 0, 59, 70
1, 112344, Note_off_c, 0, 65, 71
1, 112348, Control_c, 0, 64, 0
1, 112357, Note_off_c, 0, 56, 70
1, 112408, Note_on_c, 0, 64, 80
1, 112429, Note_off_c, 0, 64, 72
1, 112445, Note_on_c, 0, 76, 7
1, 112489, Note_on_c, 0, 68, 65
1, 112489, Note_on_c, 0, 71, 76
1, 112491, Note_on_c, 0, 64, 80
1, 112549, Control_c, 0, 64, 21
1, 112564, Control_c, 0, 64, 81
1, 112570, Note_on_c, 0, 49, 77
1, 112573, Note_on_c, 0, 44, 69
1, 112579, Control_c, 0, 64, 111
1, 112585, Note_on_c, 0, 37, 53
1, 112593, Control_c, 0, 64, 127
1, 112595, Note_off_c, 0, 49, 66
1, 112605, Note_off_c, 0, 44, 63
1, 112612, Note_off_c, 0, 64, 60
1, 112616, Note_off_c, 0, 37, 60
1, 112619, Note_off_c, 0, 71, 59
1, 112626, Note_off_c, 0, 76, 51
1, 112626, Note_off_c, 0, 68, 61
1, 112657, Note_on_c, 0, 49, 68
1, 112667, Note_on_c, 0, 44, 74
1, 112671, Note_on_c, 0, 37, 58
1, 112718, Note_on_c, 0, 65, 89
1, 112723, Note_on_c, 0, 77, 81
1, 112737, Note_off_c, 0, 65, 71
1, 112738, Note_off_c, 0, 49, 62
1, 112739, Note_off_c, 0, 44, 61
1, 112742, Note_off_c, 0, 77, 73
1, 112786, Note_on_c, 0, 65, 100
1, 112792, Note_off_c, 0, 37, 36
1, 112793, Note_on_c, 0, 68, 91
1, 112793, Note_on_c, 0, 77, 82
1, 112797, Note_on_c, 0, 73, 85
1, 112829, Note_off_c, 0, 65, 63
1, 112848, Note_on_c, 0, 75, 31
1, 112850, Note_off_c, 0, 68, 64
1, 112856, Note_off_c, 0, 77, 64
1, 112859, Note_on_c, 0, 44, 84
1, 112862, Note_off_c, 0, 73, 65
1, 112865, Note_on_c, 0, 47, 79
1, 112883, Note_off_c, 0, 44, 69
1, 112883, Note_off_c, 0, 75, 53
1, 112889, Note_off_c, 0, 47, 68
1, 112901, Note_on_c, 0, 35, 19
1, 112947, Note_on_c, 0, 47, 84
1, 112954, Note_on_c, 0, 44, 83
1, 112959, Note_off_c, 0, 35, 0
1, 112959, Note_on_c, 0, 35, 49
1, 113024, Poly_aftertouch_c, 0, 36, 127
1, 113044, Note_on_c, 0, 77, 97
1, 113044, Note_on_c, 0, 85, 86
1, 113048, Note_on_c, 0, 89, 84
1, 113057, Note_off_c, 0, 47, 59
1, 113070, Poly_aftertouch_c, 0, 36, 0
1, 113073, Note_off_c, 0, 44, 63
1, 113077, Note_off_c, 0, 89, 60
1, 113082, Note_off_c, 0, 77, 60
1, 113088, Note_off_c, 0, 85, 62
1, 113089, Note_off_c, 0, 35, 62
1, 113143, Note_on_c, 0, 77, 89
1, 113148, Note_on_c, 0, 85, 82
1, 113150, Note_on_c, 0, 89, 81
1, 113171, Control_c, 0, 64, 109
1, 113181, Note_on_c, 0, 88, 47
1, 113186, Control_c, 0, 64, 84
1, 113192, Note_off_c, 0, 88, 53
1, 113201, Control_c, 0, 64, 69
1, 113216, Control_c, 0, 64, 42
1, 113224, Note_on_c, 0, 42, 80
1, 113226, Note_on_c, 0, 45, 79
1, 113231, Control_c, 0, 64, 0
1, 113249, Note_on_c, 0, 33, 53
1, 113252, Control_c, 0, 64, 58
1, 113258, Note_off_c, 0, 45, 66
1, 113259, Note_off_c, 0, 42, 66
1, 113262, Note_off_c, 0, 77, 59
1, 113267, Note_off_c, 0, 89, 55
1, 113267, Control_c, 0, 64, 68
1, 113282, Note_off_c, 0, 33, 53
1, 113283, Control_c, 0, 64, 76
1, 113291, Note_off_c, 0, 85, 63
1, 113298, Control_c, 0, 64, 90
1, 113313, Control_c, 0, 64, 121
1, 113318, Note_on_c, 0, 45, 79
1, 113318, Note_on_c, 0, 42, 84
1, 113327, Control_c, 0, 64, 127
1, 113329, Note_on_c, 0, 33, 69
1, 113366, Note_off_c, 0, 45, 64
1, 113367, Note_off_c, 0, 33, 56
1, 113367, Note_off_c, 0, 42, 63
1, 113395, Note_on_c, 0, 78, 83
1, 113397, Note_on_c, 0, 85, 77
1, 113410, Note_on_c, 0, 90, 51
1, 113412, Note_off_c, 0, 78, 74
1, 113418, Note_off_c, 0, 85, 71
1, 113433, Note_off_c, 0, 90, 61
1, 113467, Note_on_c, 0, 78, 91
1, 113476, Note_on_c, 0, 90, 76
1, 113482, Note_on_c, 0, 85, 65
1, 113497, Note_off_c, 0, 90, 72
1, 113520, Note_off_c, 0, 78, 65
1, 113520, Note_off_c, 0, 85, 56
1, 113586, Poly_aftertouch_c, 0, 86, 0
1, 113595, Note_on_c, 0, 61, 86
1, 113598, Note_on_c, 0, 66, 82
1, 113601, Note_on_c, 0, 54, 66
1, 113614, Note_off_c, 0, 61, 71
1, 113616, Note_off_c, 0, 66, 71
1, 113626, Note_off_c, 0, 54, 66
1, 113659, Note_on_c, 0, 66, 85
1, 113665, Note_on_c, 0, 78, 70
1, 113666, Note_on_c, 0, 73, 76
1, 113680, Note_off_c, 0, 78, 70
1, 113681, Note_off_c, 0, 66, 69
1, 113689, Note_off_c, 0, 73, 68
1, 113738, Note_on_c, 0, 67, 97
1, 113741, Note_on_c, 0, 73, 92
1, 113743, Note_on_c, 0, 79, 93
1, 113801, Control_c, 0, 64, 104
1, 113816, Control_c, 0, 64, 75
1, 113819, Note_on_c, 0, 37, 86
1, 113819, Note_on_c, 0, 41, 86
1, 113828, Note_on_c, 0, 29, 73
1, 113831, Control_c, 0, 64, 0
1, 113837, Note_off_c, 0, 79, 61
1, 113840, Note_off_c, 0, 67, 58
1, 113842, Note_off_c, 0, 37, 67
1, 113843, Note_off_c, 0, 41, 65
1, 113860, Control_c, 0, 64, 62
1, 113863, Note_off_c, 0, 29, 63
1, 113867, Note_off_c, 0, 73, 61
1, 113875, Control_c, 0, 64, 76
1, 113889, Note_on_c, 0, 41, 87
1, 113890, Control_c, 0, 64, 97
1, 113890, Note_on_c, 0, 37, 87
1, 113891, Note_on_c, 0, 29, 72
1, 113905, Control_c, 0, 64, 127
1, 113917, Note_off_c, 0, 29, 65
1, 113924, Note_off_c, 0, 37, 64
1, 113930, Note_off_c, 0, 41, 64
1, 113946, Note_on_c, 0, 68, 97
1, 113952, Note_on_c, 0, 73, 81
1, 113959, Note_on_c, 0, 80, 63
1, 113963, Note_off_c, 0, 68, 71
1, 113971, Note_off_c, 0, 73, 71
1, 113977, Note_off_c, 0, 80, 64
1, 114030, Note_on_c, 0, 68, 96
1, 114034, Note_on_c, 0, 73, 99
1, 114036, Note_on_c, 0, 80, 93
1, 114063, Note_off_c, 0, 68, 67
1, 114084, Note_off_c, 0, 73, 65
1, 114095, Note_off_c, 0, 80, 66
1, 114097, Note_on_c, 0, 68, 68
1, 114112, Note_on_c, 0, 61, 28
1, 114124, Note_off_c, 0, 68, 64
1, 114149, Note_off_c, 0, 61, 0
1, 114166, Note_on_c, 0, 61, 49
1, 114169, Note_on_c, 0, 68, 81
1, 114170, Note_on_c, 0, 56, 79
1, 114188, Note_off_c, 0, 68, 69
1, 114209, Note_off_c, 0, 61, 64
1, 114218, Note_off_c, 0, 56, 65
1, 114236, Note_on_c, 0, 80, 93
1, 114241, Note_on_c, 0, 85, 80
1, 114242, Note_on_c, 0, 92, 79
1, 114255, Note_off_c, 0, 80, 68
1, 114260, Note_off_c, 0, 85, 71
1, 114260, Note_off_c, 0, 92, 72
1, 114310, Note_on_c, 0, 80, 97
1, 114314, Note_on_c, 0, 92, 98
1, 114316, Note_on_c, 0, 85, 98
1, 114343, Control_c, 0, 64, 114
1, 114357, Control_c, 0, 64, 76
1, 114372, Control_c, 0, 64, 0
1, 114386, Note_on_c, 0, 42, 83
1, 114395, Note_on_c, 0, 37, 70
1, 114402, Control_c, 0, 64, 64
1, 114404, Note_on_c, 0, 30, 56
1, 114410, Note_off_c, 0, 42, 68
1, 114417, Control_c, 0, 64, 86
1, 114419, Note_off_c, 0, 37, 65
1, 114420, Note_off_c, 0, 80, 59
1, 114423, Note_off_c, 0, 85, 62
1, 114431, Control_c, 0, 64, 127
1, 114433, Note_off_c, 0, 92, 65
1, 114442, Note_off_c, 0, 30, 55
1, 114465, Note_on_c, 0, 42, 86
1, 114467, Note_on_c, 0, 30, 65
1, 114476, Note_on_c, 0, 37, 84
1, 114500, Note_off_c, 0, 30, 59
1, 114503, Note_off_c, 0, 37, 65
1, 114510, Note_off_c, 0, 42, 66
1, 114528, Note_on_c, 0, 85, 92
1, 114531, Note_on_c, 0, 81, 81
1, 114540, Note_on_c, 0, 93, 74
1, 114545, Note_off_c, 0, 85, 71
1, 114547, Note_off_c, 0, 81, 73
1, 114555, Note_off_c, 0, 93, 68
1, 114604, Note_on_c, 0, 81, 103
1, 114606, Note_on_c, 0, 85, 96
1, 114609, Note_on_c, 0, 93, 90
1, 114623, Note_off_c, 0, 93, 73
1, 114650, Note_off_c, 0, 81, 64
1, 114651, Note_off_c, 0, 85, 65
1, 114656, Note_on_c, 0, 61, 79
1, 114656, Note_on_c, 0, 69, 83
1, 114674, Note_off_c, 0, 69, 73
1, 114682, Note_off_c, 0, 61, 65
1, 114719, Note_on_c, 0, 57, 63
1, 114723, Note_on_c, 0, 69, 86
1, 114724, Note_on_c, 0, 61, 89
1, 114747, Note_off_c, 0, 69, 72
1, 114775, Note_off_c, 0, 61, 64
1, 114783, Note_off_c, 0, 57, 63
1, 114800, Note_on_c, 0, 69, 90
1, 114818, Note_on_c, 0, 81, 59
1, 114820, Note_off_c, 0, 69, 70
1, 114823, Note_on_c, 0, 72, 50
1, 114839, Note_off_c, 0, 81, 61
1, 114847, Note_off_c, 0, 72, 62
1, 114879, Note_on_c, 0, 69, 102
1, 114884, Control_c, 0, 64, 71
1, 114886, Note_on_c, 0, 81, 94
1, 114886, Note_on_c, 0, 73, 97
1, 114899, Control_c, 0, 64, 0
1, 114945, Note_on_c, 0, 52, 92
1, 114948, Note_on_c, 0, 42, 80
1, 114955, Note_off_c, 0, 81, 62
1, 114965, Note_on_c, 0, 40, 55
1, 114967, Note_off_c, 0, 52, 70
1, 114970, Note_off_c, 0, 69, 57
1, 114972, Control_c, 0, 64, 65
1, 114973, Note_off_c, 0, 42, 66
1, 114987, Control_c, 0, 64, 127
1, 114988, Note_off_c, 0, 73, 63
1, 114996, Note_off_c, 0, 40, 57
1, 115025, Note_on_c, 0, 42, 88
1, 115025, Note_on_c, 0, 52, 86
1, 115029, Note_on_c, 0, 40, 73
1, 115055, Note_off_c, 0, 40, 65
1, 115060, Note_off_c, 0, 52, 59
1, 115065, Note_off_c, 0, 42, 64
1, 115082, Note_on_c, 0, 70, 95
1, 115088, Note_on_c, 0, 73, 84
1, 115098, Note_off_c, 0, 70, 72
1, 115109, Note_off_c, 0, 73, 70
1, 115124, Note_on_c, 0, 82, 13
1, 115157, Note_on_c, 0, 70, 99
1, 115158, Note_off_c, 0, 82, 0
1, 115158, Note_on_c, 0, 82, 53
1, 115164, Note_on_c, 0, 73, 94
1, 115173, Note_on_c, 0, 80, 19
1, 115184, Note_off_c, 0, 70, 70
1, 115207, Note_off_c, 0, 73, 61
1, 115212, Note_on_c, 0, 66, 80
1, 115212, Note_off_c, 0, 80, 59
1, 115216, Note_on_c, 0, 70, 76
1, 115229, Note_off_c, 0, 82, 64
1, 115234, Note_off_c, 0, 66, 69
1, 115234, Note_off_c, 0, 70, 74
1, 115291, Note_on_c, 0, 70, 92
1, 115297, Note_on_c, 0, 61, 82
1, 115299, Note_on_c, 0, 58, 79
1, 115304, Note_on_c, 0, 66, 76
1, 115310, Note_off_c, 0, 70, 65
1, 115324, Note_off_c, 0, 66, 71
1, 115345, Note_off_c, 0, 61, 63
1, 115348, Note_off_c, 0, 58, 65
1, 115364, Note_on_c, 0, 82, 95
1, 115364, Note_on_c, 0, 90, 82
1, 115375, Note_on_c, 0, 94, 68
1, 115381, Note_off_c, 0, 82, 70
1, 115382, Note_off_c, 0, 90, 72
1, 115393, Note_off_c, 0, 94, 67
1, 115432, Control_c, 0, 64, 77
1, 115433, Note_on_c, 0, 82, 108
1, 115440, Note_on_c, 0, 94, 104
1, 115440, Note_on_c, 0, 90, 93
1, 115446, Control_c, 0, 64, 0
1, 115461, Control_c, 0, 64, 36
1, 115476, Control_c, 0, 64, 102
1, 115498, Control_c, 0, 64, 127
1, 115506, Note_on_c, 0, 51, 92
1, 115512, Note_on_c, 0, 42, 75
1, 115527, Note_off_c, 0, 51, 75
1, 115538, Note_off_c, 0, 42, 65
1, 115542, Note_off_c, 0, 94, 62
1, 115543, Note_off_c, 0, 82, 60
1, 115558, Note_off_c, 0, 90, 64
1, 115582, Note_on_c, 0, 39, 54
1, 115588, Note_on_c, 0, 42, 80
1, 115594, Note_on_c, 0, 51, 88
1, 115622, Note_off_c, 0, 42, 65
1, 115623, Note_off_c, 0, 51, 67
1, 115624, Note_off_c, 0, 39, 60
1, 115652, Note_on_c, 0, 90, 94
1, 115655, Note_on_c, 0, 83, 92
1, 115663, Note_on_c, 0, 95, 78
1, 115673, Note_off_c, 0, 90, 67
1, 115673, Note_off_c, 0, 83, 70
1, 115685, Note_off_c, 0, 95, 73
1, 115729, Note_on_c, 0, 83, 106
1, 115730, Note_on_c, 0, 90, 107
1, 115733, Note_on_c, 0, 95, 99
1, 115792, Note_on_c, 0, 71, 80
1, 115796, Note_on_c, 0, 66, 68
1, 115807, Note_on_c, 0, 59, 46
1, 115810, Note_off_c, 0, 71, 74
1, 115814, Note_off_c, 0, 83, 59
1, 115816, Note_off_c, 0, 66, 67
1, 115819, Note_off_c, 0, 95, 62
1, 115834, Note_off_c, 0, 59, 58
1, 115840, Note_off_c, 0, 90, 63
1, 115869, Note_on_c, 0, 66, 85
1, 115872, Note_on_c, 0, 71, 82
1, 115876, Note_on_c, 0, 59, 70
1, 115888, Note_off_c, 0, 71, 77
1, 115917, Note_off_c, 0, 66, 62
1, 115921, Note_off_c, 0, 59, 64
1, 115935, Note_on_c, 0, 90, 88
1, 115945, Note_on_c, 0, 83, 77
1, 115956, Note_on_c, 0, 95, 60
1, 115961, Note_off_c, 0, 90, 64
1, 115961, Poly_aftertouch_c, 0, 61, 127
1, 115965, Note_off_c, 0, 83, 72
1, 115976, Note_off_c, 0, 95, 64
1, 115995, Poly_aftertouch_c, 0, 61, 0
1, 116011, Note_on_c, 0, 83, 92
1, 116014, Note_on_c, 0, 90, 92
1, 116022, Note_on_c, 0, 95, 86
1, 116047, Control_c, 0, 64, 123
1, 116062, Control_c, 0, 64, 91
1, 116076, Control_c, 0, 64, 75
1, 116091, Control_c, 0, 64, 66
1, 116094, Note_on_c, 0, 42, 77
1, 116094, Note_on_c, 0, 50, 83
1, 116106, Control_c, 0, 64, 66
1, 116120, Note_on_c, 0, 38, 41
1, 116120, Control_c, 0, 64, 71
1, 116121, Note_off_c, 0, 50, 69
1, 116122, Note_off_c, 0, 42, 65
1, 116125, Note_off_c, 0, 83, 61
1, 116135, Control_c, 0, 64, 79
1, 116137, Note_off_c, 0, 95, 64
1, 116147, Note_off_c, 0, 90, 64
1, 116150, Control_c, 0, 64, 91
1, 116159, Note_off_c, 0, 38, 51
1, 116165, Control_c, 0, 64, 117
1, 116180, Control_c, 0, 64, 127
1, 116184, Note_on_c, 0, 42, 78
1, 116185, Note_on_c, 0, 50, 94
1, 116190, Note_on_c, 0, 38, 65
1, 116227, Note_on_c, 0, 90, 88
1, 116230, Note_on_c, 0, 83, 83
1, 116253, Note_on_c, 0, 95, 64
1, 116257, Note_off_c, 0, 83, 70
1, 116257, Note_off_c, 0, 90, 66
1, 116271, Note_off_c, 0, 95, 66
1, 116275, Note_off_c, 0, 50, 63
1, 116284, Note_off_c, 0, 38, 61
1, 116298, Note_off_c, 0, 42, 62
1, 116303, Note_on_c, 0, 83, 96
1, 116309, Note_on_c, 0, 90, 93
1, 116312, Note_on_c, 0, 95, 93
1, 116381, Note_on_c, 0, 49, 85
1, 116389, Note_on_c, 0, 42, 79
1, 116397, Note_on_c, 0, 37, 62
1, 116397, Note_off_c, 0, 95, 64
1, 116399, Note_off_c, 0, 83, 59
1, 116411, Note_off_c, 0, 49, 61
1, 116414, Note_off_c, 0, 42, 67
1, 116425, Note_off_c, 0, 90, 63
1, 116427, Note_off_c, 0, 37, 62
1, 116482, Note_on_c, 0, 49, 87
1, 116490, Note_on_c, 0, 42, 73
1, 116494, Note_on_c, 0, 37, 80
1, 116522, Note_on_c, 0, 90, 87
1, 116525, Note_on_c, 0, 81, 89
1, 116538, Note_on_c, 0, 93, 67
1, 116549, Note_off_c, 0, 81, 61
1, 116557, Note_off_c, 0, 93, 66
1, 116561, Note_off_c, 0, 90, 59
1, 116563, Note_off_c, 0, 49, 61
1, 116573, Control_c, 0, 64, 111
1, 116574, Note_off_c, 0, 37, 60
1, 116585, Note_off_c, 0, 42, 59
1, 116588, Control_c, 0, 64, 85
1, 116603, Control_c, 0, 64, 64
1, 116609, Note_on_c, 0, 81, 86
1, 116611, Note_on_c, 0, 90, 80
1, 116613, Note_on_c, 0, 93, 97
1, 116618, Control_c, 0, 64, 0
1, 116636, Note_on_c, 0, 83, 52
1, 116650, Note_off_c, 0, 83, 49
1, 116677, Control_c, 0, 64, 36
1, 116686, Note_on_c, 0, 47, 83
1, 116690, Note_on_c, 0, 38, 72
1, 116692, Control_c, 0, 64, 68
1, 116699, Note_on_c, 0, 35, 60
1, 116707, Control_c, 0, 64, 88
1, 116716, Note_off_c, 0, 47, 66
1, 116716, Note_off_c, 0, 93, 62
1, 116722, Note_off_c, 0, 38, 64
1, 116722, Control_c, 0, 64, 127
1, 116730, Note_off_c, 0, 35, 64
1, 116738, Note_off_c, 0, 81, 58
1, 116752, Note_off_c, 0, 90, 64
1, 116771, Note_on_c, 0, 47, 76
1, 116773, Note_on_c, 0, 35, 60
1, 116784, Note_on_c, 0, 38, 76
1, 116805, Note_off_c, 0, 35, 65
1, 116820, Note_off_c, 0, 38, 64
1, 116826, Note_on_c, 0, 80, 76
1, 116827, Note_on_c, 0, 90, 69
1, 116828, Note_off_c, 0, 47, 65
1, 116844, Note_off_c, 0, 80, 68
1, 116851, Note_off_c, 0, 90, 69
1, 116855, Note_on_c, 0, 92, 28
1, 116888, Note_on_c, 0, 80, 94
1, 116899, Note_off_c, 0, 92, 0
1, 116899, Note_on_c, 0, 92, 54
1, 116904, Note_on_c, 0, 90, 86
1, 116949, Note_on_c, 0, 56, 77
1, 116953, Note_on_c, 0, 54, 63
1, 116963, Note_off_c, 0, 80, 61
1, 116963, Note_on_c, 0, 62, 64
1, 116974, Note_off_c, 0, 56, 69
1, 116980, Note_off_c, 0, 54, 66
1, 116984, Note_off_c, 0, 62, 63
1, 116993, Note_off_c, 0, 92, 65
1, 116999, Note_off_c, 0, 90, 63
1, 117039, Note_on_c, 0, 62, 73
1, 117040, Note_on_c, 0, 56, 84
1, 117041, Note_on_c, 0, 54, 80
1, 117064, Note_off_c, 0, 62, 64
1, 117087, Note_off_c, 0, 56, 64
1, 117095, Note_off_c, 0, 54, 63
1, 117110, Note_on_c, 0, 90, 81
1, 117115, Note_on_c, 0, 86, 76
1, 117121, Note_on_c, 0, 98, 72
1, 117129, Note_off_c, 0, 90, 71
1, 117135, Note_off_c, 0, 86, 71
1, 117138, Note_off_c, 0, 98, 68
1, 117185, Note_on_c, 0, 86, 97
1, 117188, Note_on_c, 0, 98, 99
1, 117194, Note_on_c, 0, 90, 89
1, 117217, Control_c, 0, 64, 101
1, 117232, Control_c, 0, 64, 80
1, 117246, Note_on_c, 0, 47, 85
1, 117247, Control_c, 0, 64, 64
1, 117254, Note_on_c, 0, 38, 69
1, 117262, Note_off_c, 0, 98, 65
1, 117262, Control_c, 0, 64, 0
1, 117264, Note_on_c, 0, 35, 54
1, 117272, Note_off_c, 0, 47, 69
1, 117278, Control_c, 0, 64, 55
1, 117280, Note_off_c, 0, 38, 65
1, 117283, Note_off_c, 0, 86, 60
1, 117293, Control_c, 0, 64, 67
1, 117297, Note_off_c, 0, 35, 60
1, 117308, Control_c, 0, 64, 76
1, 117316, Note_off_c, 0, 90, 65
1, 117322, Control_c, 0, 64, 92
1, 117337, Control_c, 0, 64, 127
1, 117340, Note_on_c, 0, 38, 78
1, 117341, Note_on_c, 0, 35, 70
1, 117341, Note_on_c, 0, 47, 87
1, 117372, Note_off_c, 0, 35, 64
1, 117396, Note_off_c, 0, 47, 64
1, 117404, Note_off_c, 0, 38, 60
1, 117413, Note_on_c, 0, 80, 92
1, 117414, Note_on_c, 0, 90, 81
1, 117437, Note_off_c, 0, 90, 69
1, 117437, Note_off_c, 0, 80, 63
1, 117446, Note_on_c, 0, 92, 34
1, 117476, Note_off_c, 0, 92, 0
1, 117483, Note_on_c, 0, 80, 91
1, 117488, Note_on_c, 0, 92, 65
1, 117496, Note_on_c, 0, 90, 89
1, 117525, Note_on_c, 0, 54, 83
1, 117540, Note_on_c, 0, 60, 70
1, 117557, Note_off_c, 0, 54, 62
1, 117563, Note_off_c, 0, 80, 61
1, 117567, Note_off_c, 0, 60, 66
1, 117571, Note_off_c, 0, 92, 66
1, 117580, Note_off_c, 0, 90, 63
1, 117618, Note_on_c, 0, 54, 83
1, 117621, Note_on_c, 0, 62, 75
1, 117622, Note_on_c, 0, 56, 62
1, 117640, Note_on_c, 0, 60, 41
1, 117643, Note_off_c, 0, 62, 67
1, 117648, Note_off_c, 0, 56, 66
1, 117661, Note_off_c, 0, 54, 61
1, 117661, Note_off_c, 0, 60, 63
1, 117688, Note_on_c, 0, 81, 91
1, 117688, Note_on_c, 0, 90, 88
1, 117708, Note_off_c, 0, 90, 69
1, 117713, Note_off_c, 0, 81, 61
1, 117714, Note_on_c, 0, 93, 48
1, 117733, Note_on_c, 0, 92, 10
1, 117734, Note_off_c, 0, 92, 127
1, 117746, Note_off_c, 0, 93, 57
1, 117775, Note_on_c, 0, 81, 96
1, 117780, Note_on_c, 0, 93, 88
1, 117782, Note_on_c, 0, 90, 93
1, 117789, Control_c, 0, 64, 89
1, 117804, Control_c, 0, 64, 68
1, 117819, Control_c, 0, 64, 0
1, 117845, Note_on_c, 0, 47, 93
1, 117849, Control_c, 0, 64, 11
1, 117850, Note_on_c, 0, 38, 82
1, 117858, Note_on_c, 0, 35, 61
1, 117864, Control_c, 0, 64, 66
1, 117868, Note_off_c, 0, 47, 70
1, 117876, Note_off_c, 0, 38, 66
1, 117876, Note_off_c, 0, 93, 63
1, 117879, Control_c, 0, 64, 79
1, 117883, Note_off_c, 0, 81, 60
1, 117889, Note_off_c, 0, 35, 65
1, 117893, Control_c, 0, 64, 103
1, 117897, Note_off_c, 0, 90, 64
1, 117908, Control_c, 0, 64, 127
1, 117930, Note_on_c, 0, 38, 85
1, 117932, Note_on_c, 0, 47, 100
1, 117942, Note_on_c, 0, 35, 68
1, 117970, Note_off_c, 0, 35, 65
1, 117978, Note_off_c, 0, 47, 66
1, 117980, Note_off_c, 0, 38, 62
1, 117987, Note_on_c, 0, 80, 88
1, 117988, Note_on_c, 0, 90, 82
1, 118006, Note_off_c, 0, 80, 67
1, 118007, Note_off_c, 0, 90, 71
1, 118010, Note_on_c, 0, 92, 47
1, 118036, Note_off_c, 0, 92, 58
1, 118060, Note_on_c, 0, 80, 102
1, 118064, Note_on_c, 0, 92, 85
1, 118069, Note_on_c, 0, 90, 91
1, 118112, Note_off_c, 0, 80, 65
1, 118123, Note_on_c, 0, 62, 77
1, 118135, Note_on_c, 0, 66, 68
1, 118144, Note_off_c, 0, 92, 67
1, 118147, Note_off_c, 0, 62, 67
1, 118153, Note_off_c, 0, 90, 66
1, 118154, Note_off_c, 0, 66, 66
1, 118199, Note_on_c, 0, 56, 35
1, 118202, Note_on_c, 0, 66, 94
1, 118206, Note_on_c, 0, 62, 84
1, 118218, Note_on_c, 0, 54, 69
1, 118230, Note_off_c, 0, 66, 63
1, 118246, Note_off_c, 0, 62, 64
1, 118267, Note_on_c, 0, 92, 83
1, 118268, Note_off_c, 0, 54, 66
1, 118277, Note_off_c, 0, 56, 64
1, 118279, Note_on_c, 0, 102, 74
1, 118282, Note_off_c, 0, 92, 69
1, 118285, Note_on_c, 0, 90, 55
1, 118296, Note_off_c, 0, 102, 67
1, 118307, Note_off_c, 0, 90, 61
1, 118349, Note_on_c, 0, 90, 111
1, 118350, Note_on_c, 0, 92, 85
1, 118372, Note_on_c, 0, 102, 58
1, 118376, Poly_aftertouch_c, 0, 93, 0
1, 118379, Note_on_c, 0, 99, 48
1, 118394, Note_off_c, 0, 102, 38
1, 118403, Note_off_c, 0, 92, 70
1, 118406, Note_off_c, 0, 99, 59
1, 118413, Note_off_c, 0, 90, 61
1, 118417, Note_on_c, 0, 47, 82
1, 118420, Note_on_c, 0, 38, 77
1, 118427, Note_on_c, 0, 45, 70
1, 118437, Note_off_c, 0, 47, 72
1, 118442, Note_on_c, 0, 35, 39
1, 118445, Note_off_c, 0, 38, 67
1, 118451, Note_off_c, 0, 45, 62
1, 118480, Note_off_c, 0, 35, 52
1, 118512, Note_on_c, 0, 38, 78
1, 118514, Note_on_c, 0, 47, 94
1, 118519, Note_on_c, 0, 35, 63
1, 118549, Note_off_c, 0, 35, 65
1, 118552, Note_off_c, 0, 38, 63
1, 118561, Note_off_c, 0, 47, 67
1, 118564, Note_on_c, 0, 80, 89
1, 118583, Note_off_c, 0, 80, 69
1, 118585, Note_on_c, 0, 90, 54
1, 118597, Note_on_c, 0, 89, 38
1, 118606, Note_off_c, 0, 90, 62
1, 118628, Note_off_c, 0, 89, 54
1, 118639, Note_on_c, 0, 80, 103
1, 118651, Note_on_c, 0, 90, 93
1, 118654, Note_on_c, 0, 92, 88
1, 118695, Note_off_c, 0, 80, 61
1, 118701, Note_off_c, 0, 92, 66
1, 118704, Note_off_c, 0, 90, 65
1, 118716, Note_on_c, 0, 62, 58
1, 118728, Note_on_c, 0, 66, 48
1, 118745, Note_off_c, 0, 62, 63
1, 118755, Note_off_c, 0, 66, 57
1, 118777, Note_on_c, 0, 66, 70
1, 118782, Note_on_c, 0, 56, 68
1, 118783, Note_on_c, 0, 62, 73
1, 118788, Note_on_c, 0, 54, 76
1, 118800, Note_off_c, 0, 66, 68
1, 118809, Note_off_c, 0, 62, 65
1, 118838, Note_off_c, 0, 54, 65
1, 118839, Note_off_c, 0, 56, 64
1, 118841, Note_on_c, 0, 81, 97
1, 118845, Note_on_c, 0, 90, 88
1, 118865, Note_off_c, 0, 90, 70
1, 118866, Note_on_c, 0, 93, 58
1, 118868, Note_off_c, 0, 81, 62
1, 118885, Note_off_c, 0, 93, 63
1, 118920, Note_on_c, 0, 81, 102
1, 118925, Control_c, 0, 64, 94
1, 118928, Note_on_c, 0, 90, 100
1, 118929, Note_on_c, 0, 93, 96
1, 118939, Control_c, 0, 64, 32
1, 118950, Note_on_c, 0, 92, 58
1, 118954, Control_c, 0, 64, 0
1, 118973, Note_on_c, 0, 48, 96
1, 118977, Note_on_c, 0, 39, 86
1, 118990, Note_on_c, 0, 36, 61
1, 118991, Note_off_c, 0, 93, 63
1, 118994, Note_off_c, 0, 48, 69
1, 118999, Control_c, 0, 64, 106
1, 119002, Note_off_c, 0, 39, 66
1, 119004, Note_off_c, 0, 81, 59
1, 119013, Control_c, 0, 64, 127
1, 119014, Note_off_c, 0, 92, 54
1, 119016, Note_off_c, 0, 36, 58
1, 119016, Note_off_c, 0, 90, 65
1, 119045, Note_on_c, 0, 42, 2
1, 119056, Note_on_c, 0, 48, 95
1, 119057, Note_on_c, 0, 39, 83
1, 119069, Note_on_c, 0, 36, 75
1, 119083, Note_off_c, 0, 42, 46
1, 119095, Note_off_c, 0, 48, 58
1, 119099, Note_off_c, 0, 39, 61
1, 119112, Note_off_c, 0, 36, 52
1, 119121, Note_on_c, 0, 80, 103
1, 119126, Note_on_c, 0, 90, 86
1, 119137, Note_on_c, 0, 92, 67
1, 119144, Note_off_c, 0, 90, 71
1, 119145, Note_off_c, 0, 80, 61
1, 119153, Note_off_c, 0, 92, 66
1, 119202, Note_on_c, 0, 80, 98
1, 119208, Note_on_c, 0, 92, 93
1, 119209, Note_on_c, 0, 90, 91
1, 119240, Note_off_c, 0, 80, 69
1, 119271, Note_off_c, 0, 92, 65
1, 119273, Note_off_c, 0, 90, 66
1, 119274, Note_on_c, 0, 66, 91
1, 119287, Note_on_c, 0, 56, 62
1, 119292, Note_on_c, 0, 64, 60
1, 119292, Note_off_c, 0, 66, 71
1, 119312, Note_off_c, 0, 64, 65
1, 119316, Note_off_c, 0, 56, 66
1, 119368, Note_on_c, 0, 66, 87
1, 119369, Note_on_c, 0, 63, 85
1, 119372, Note_on_c, 0, 56, 81
1, 119379, Note_on_c, 0, 54, 71
1, 119392, Note_off_c, 0, 66, 67
1, 119414, Note_off_c, 0, 63, 58
1, 119435, Note_off_c, 0, 54, 65
1, 119437, Note_off_c, 0, 56, 64
1, 119446, Note_on_c, 0, 92, 105
1, 119453, Note_on_c, 0, 102, 90
1, 119455, Note_on_c, 0, 104, 90
1, 119473, Note_off_c, 0, 92, 64
1, 119473, Note_off_c, 0, 102, 69
1, 119473, Note_off_c, 0, 104, 73
1, 119485, Note_on_c, 0, 94, 37
1, 119486, Note_off_c, 0, 94, 127
1, 119529, Note_on_c, 0, 92, 106
1, 119538, Note_on_c, 0, 102, 99
1, 119540, Note_on_c, 0, 104, 97
1, 119560, Note_off_c, 0, 104, 69
1, 119587, Note_off_c, 0, 92, 68
1, 119589, Note_off_c, 0, 102, 65
1, 119611, Note_on_c, 0, 48, 106
1, 119616, Note_on_c, 0, 39, 89
1, 119625, Note_on_c, 0, 36, 74
1, 119634, Note_off_c, 0, 48, 65
1, 119643, Note_off_c, 0, 39, 63
1, 119659, Note_off_c, 0, 36, 61
1, 119701, Note_on_c, 0, 48, 104
1, 119705, Note_on_c, 0, 39, 78
1, 119714, Note_on_c, 0, 36, 76
1, 119728, Poly_aftertouch_c, 0, 42, 0
1, 119736, Note_off_c, 0, 36, 70
1, 119745, Note_off_c, 0, 48, 65
1, 119747, Note_off_c, 0, 39, 55
1, 119780, Note_on_c, 0, 80, 108
1, 119788, Note_on_c, 0, 90, 90
1, 119790, Note_on_c, 0, 92, 87
1, 119806, Note_off_c, 0, 80, 69
1, 119806, Note_off_c, 0, 90, 69
1, 119807, Note_off_c, 0, 92, 72
1, 119876, Note_on_c, 0, 80, 112
1, 119882, Note_on_c, 0, 92, 100
1, 119885, Note_on_c, 0, 90, 94
1, 119925, Note_off_c, 0, 92, 65
1, 119929, Note_off_c, 0, 80, 61
1, 119937, Note_off_c, 0, 90, 62
1, 119963, Note_on_c, 0, 68, 96
1, 119969, Note_on_c, 0, 66, 76
1, 119970, Note_on_c, 0, 63, 73
1, 119990, Note_off_c, 0, 68, 69
1, 120002, Note_off_c, 0, 66, 67
1, 120008, Note_off_c, 0, 63, 64
1, 120079, Note_on_c, 0, 68, 95
1, 120084, Note_on_c, 0, 66, 84
1, 120085, Note_on_c, 0, 56, 78
1, 120085, Note_on_c, 0, 63, 81
1, 120108, Note_off_c, 0, 66, 59
1, 120111, Note_off_c, 0, 56, 70
1, 120126, Note_off_c, 0, 68, 60
1, 120133, Note_off_c, 0, 63, 55
1, 120201, Note_on_c, 0, 81, 109
1, 120205, Note_on_c, 0, 93, 107
1, 120223, Note_on_c, 0, 92, 73
1, 120234, Note_off_c, 0, 81, 69
1, 120238, Note_off_c, 0, 92, 68
1, 120238, Note_off_c, 0, 93, 67
1, 120287, Control_c, 0, 64, 98
1, 120302, Control_c, 0, 64, 57
1, 120317, Control_c, 0, 64, 0
1, 120318, Note_on_c, 0, 81, 105
1, 120323, Note_on_c, 0, 93, 104
1, 120431, Note_on_c, 0, 69, 101
1, 120435, Note_on_c, 0, 57, 94
1, 120435, Control_c, 0, 64, 104
1, 120445, Note_off_c, 0, 93, 61
1, 120450, Control_c, 0, 64, 127
1, 120460, Note_off_c, 0, 57, 66
1, 120462, Note_on_c, 0, 58, 61
1, 120462, Note_off_c, 0, 69, 67
1, 120463, Note_on_c, 0, 63, 60
1, 120472, Note_off_c, 0, 81, 60
1, 120490, Note_off_c, 0, 58, 61
1, 120492, Note_off_c, 0, 63, 59
1, 120541, Note_on_c, 0, 69, 93
1, 120548, Note_on_c, 0, 57, 100
1, 120583, Note_off_c, 0, 69, 64
1, 120592, Note_off_c, 0, 57, 59
1, 120613, Note_on_c, 0, 58, 33
1, 120632, Note_on_c, 0, 75, 101
1, 120633, Note_on_c, 0, 87, 91
1, 120659, Note_off_c, 0, 58, 44
1, 120660, Note_off_c, 0, 75, 66
1, 120660, Note_off_c, 0, 87, 62
1, 120717, Note_on_c, 0, 75, 103
1, 120721, Note_on_c, 0, 87, 99
1, 120777, Note_off_c, 0, 75, 59
1, 120780, Note_off_c, 0, 87, 66
1, 120799, Note_on_c, 0, 63, 98
1, 120802, Note_on_c, 0, 51, 89
1, 120818, Note_off_c, 0, 63, 68
1, 120830, Note_off_c, 0, 51, 66
1, 120883, Note_on_c, 0, 63, 92
1, 120884, Note_on_c, 0, 51, 92
1, 120916, Note_off_c, 0, 63, 56
1, 120927, Note_off_c, 0, 51, 63
1, 120940, Note_on_c, 0, 69, 93
1, 120943, Note_on_c, 0, 81, 83
1, 120961, Note_off_c, 0, 69, 67
1, 120961, Note_off_c, 0, 81, 67
1, 121021, Note_on_c, 0, 69, 100
1, 121024, Note_on_c, 0, 81, 91
1, 121071, Note_off_c, 0, 81, 61
1, 121089, Note_on_c, 0, 57, 90
1, 121095, Note_off_c, 0, 69, 62
1, 121095, Note_on_c, 0, 45, 77
1, 121110, Note_off_c, 0, 57, 68
1, 121119, Note_off_c, 0, 45, 67
1, 121172, Note_on_c, 0, 45, 83
1, 121179, Note_on_c, 0, 57, 84
1, 121217, Note_off_c, 0, 57, 61
1, 121226, Note_on_c, 0, 63, 96
1, 121226, Note_on_c, 0, 75, 81
1, 121228, Poly_aftertouch_c, 0, 46, 127
1, 121229, Note_off_c, 0, 45, 65
1, 121246, Note_off_c, 0, 75, 68
1, 121247, Note_off_c, 0, 63, 70
1, 121268, Poly_aftertouch_c, 0, 46, 0
1, 121307, Note_on_c, 0, 63, 97
1, 121310, Note_on_c, 0, 75, 92
1, 121361, Note_off_c, 0, 75, 65
1, 121369, Note_on_c, 0, 51, 90
1, 121371, Note_off_c, 0, 63, 58
1, 121373, Note_on_c, 0, 39, 79
1, 121393, Note_off_c, 0, 51, 69
1, 121400, Note_off_c, 0, 39, 65
1, 121464, Note_on_c, 0, 39, 82
1, 121465, Note_on_c, 0, 51, 83
1, 121509, Note_off_c, 0, 51, 64
1, 121515, Note_on_c, 0, 57, 86
1, 121523, Note_on_c, 0, 69, 72
1, 121523, Note_off_c, 0, 39, 60
1, 121536, Note_off_c, 0, 57, 66
1, 121542, Note_off_c, 0, 69, 72
1, 121597, Note_on_c, 0, 57, 94
1, 121603, Note_on_c, 0, 69, 90
1, 121656, Note_off_c, 0, 69, 62
1, 121663, Note_off_c, 0, 57, 55
1, 121664, Note_on_c, 0, 45, 97
1, 121672, Note_on_c, 0, 33, 82
1, 121673, Poly_aftertouch_c, 0, 68, 127
1, 121689, Note_off_c, 0, 45, 64
1, 121703, Note_off_c, 0, 33, 62
1, 121721, Poly_aftertouch_c, 0, 68, 0
1, 121744, Poly_aftertouch_c, 0, 34, 127
1, 121766, Note_on_c, 0, 45, 93
1, 121766, Note_on_c, 0, 33, 82
1, 121804, Note_on_c, 0, 63, 84
1, 121806, Note_on_c, 0, 51, 96
1, 121807, Note_off_c, 0, 45, 64
1, 121819, Note_off_c, 0, 33, 60
1, 121834, Note_off_c, 0, 51, 66
1, 121836, Note_off_c, 0, 63, 57
1, 121852, Poly_aftertouch_c, 0, 34, 0
1, 121886, Note_on_c, 0, 51, 96
1, 121888, Note_on_c, 0, 63, 93
1, 121925, Note_off_c, 0, 63, 67
1, 121956, Note_on_c, 0, 39, 97
1, 121959, Note_on_c, 0, 27, 90
1, 121962, Note_off_c, 0, 51, 64
1, 121975, Note_off_c, 0, 39, 68
1, 121978, Control_c, 0, 64, 103
1, 121991, Note_off_c, 0, 27, 63
1, 121993, Control_c, 0, 64, 67
1, 122007, Control_c, 0, 64, 0
1, 122040, Note_on_c, 0, 27, 88
1, 122058, Note_on_c, 0, 39, 65
1, 122067, Poly_aftertouch_c, 0, 30, 0
1, 122086, Note_off_c, 0, 39, 62
1, 122088, Note_off_c, 0, 27, 59
1, 122106, Note_on_c, 0, 51, 64
1, 122111, Note_on_c, 0, 45, 54
1, 122117, Note_on_c, 0, 42, 54
1, 122133, Note_off_c, 0, 51, 66
1, 122141, Note_off_c, 0, 45, 58
1, 122146, Note_off_c, 0, 42, 58
1, 122186, Note_on_c, 0, 51, 79
1, 122201, Note_on_c, 0, 42, 53
1, 122209, Note_on_c, 0, 45, 60
1, 122253, Control_c, 0, 64, 35
1, 122268, Control_c, 0, 64, 61
1, 122278, Note_off_c, 0, 42, 62
1, 122281, Note_off_c, 0, 45, 58
1, 122283, Control_c, 0, 64, 67
1, 122293, Note_on_c, 0, 24, 61
1, 122294, Note_on_c, 0, 36, 57
1, 122297, Control_c, 0, 64, 72
1, 122305, Note_off_c, 0, 51, 60
1, 122312, Control_c, 0, 64, 75
1, 122323, Note_off_c, 0, 36, 56
1, 122327, Control_c, 0, 64, 78
1, 122329, Note_off_c, 0, 24, 55
1, 122342, Control_c, 0, 64, 79
1, 122356, Control_c, 0, 64, 80
1, 122371, Control_c, 0, 64, 78
1, 122386, Control_c, 0, 64, 73
1, 122401, Control_c, 0, 64, 64
1, 122405, Note_on_c, 0, 24, 41
1, 122414, Note_on_c, 0, 46, 69
1, 122416, Control_c, 0, 64, 0
1, 122419, Note_on_c, 0, 52, 63
1, 122434, Note_on_c, 0, 43, 42
1, 122439, Note_off_c, 0, 24, 54
1, 122441, Note_off_c, 0, 46, 62
1, 122446, Note_off_c, 0, 52, 54
1, 122457, Note_off_c, 0, 43, 0
1, 122484, Note_on_c, 0, 43, 47
1, 122484, Poly_aftertouch_c, 0, 36, 0
1, 122489, Note_on_c, 0, 52, 75
1, 122499, Note_on_c, 0, 46, 76
1, 122505, Control_c, 0, 64, 46
1, 122520, Control_c, 0, 64, 61
1, 122535, Control_c, 0, 64, 67
1, 122550, Control_c, 0, 64, 72
1, 122553, Note_off_c, 0, 43, 60
1, 122564, Control_c, 0, 64, 76
1, 122568, Note_on_c, 0, 36, 75
1, 122570, Note_off_c, 0, 52, 60
1, 122571, Note_on_c, 0, 24, 66
1, 122579, Control_c, 0, 64, 80
1, 122581, Note_off_c, 0, 46, 61
1, 122594, Control_c, 0, 64, 84
1, 122596, Note_off_c, 0, 36, 62
1, 122607, Note_off_c, 0, 24, 58
1, 122609, Control_c, 0, 64, 89
1, 122624, Control_c, 0, 64, 95
1, 122638, Control_c, 0, 64, 101
1, 122653, Control_c, 0, 64, 105
1, 122663, Note_on_c, 0, 36, 73
1, 122668, Control_c, 0, 64, 107
1, 122684, Note_on_c, 0, 24, 59
1, 122696, Note_off_c, 0, 36, 64
1, 122697, Control_c, 0, 64, 104
1, 122705, Note_on_c, 0, 53, 37
1, 122707, Note_on_c, 0, 47, 36
1, 122712, Control_c, 0, 64, 94
1, 122722, Note_off_c, 0, 24, 52
1, 122727, Control_c, 0, 64, 82
1, 122734, Note_off_c, 0, 47, 0
1, 122742, Control_c, 0, 64, 69
1, 122745, Note_off_c, 0, 53, 0
1, 122749, Poly_aftertouch_c, 0, 44, 127
1, 122756, Control_c, 0, 64, 0
1, 122760, Note_on_c, 0, 47, 49
1, 122761, Note_on_c, 0, 53, 71
1, 122801, Control_c, 0, 64, 47
1, 122816, Control_c, 0, 64, 64
1, 122830, Control_c, 0, 64, 71
1, 122841, Note_on_c, 0, 36, 77
1, 122843, Note_on_c, 0, 24, 68
1, 122845, Control_c, 0, 64, 76
1, 122854, Note_off_c, 0, 47, 64
1, 122861, Control_c, 0, 64, 82
1, 122862, Note_off_c, 0, 53, 63
1, 122866, Poly_aftertouch_c, 0, 44, 0
1, 122874, Note_off_c, 0, 36, 65
1, 122876, Control_c, 0, 64, 88
1, 122877, Note_off_c, 0, 24, 60
1, 122891, Control_c, 0, 64, 97
1, 122905, Control_c, 0, 64, 106
1, 122920, Control_c, 0, 64, 118
1, 122935, Note_on_c, 0, 36, 80
1, 122935, Control_c, 0, 64, 127
1, 122946, Note_on_c, 0, 24, 74
1, 122970, Note_off_c, 0, 36, 62
1, 122985, Note_on_c, 0, 51, 74
1, 122990, Note_on_c, 0, 45, 78
1, 122991, Note_off_c, 0, 24, 59
1, 122992, Note_on_c, 0, 54, 67
1, 123013, Note_off_c, 0, 51, 66
1, 123015, Note_off_c, 0, 45, 66
1, 123017, Note_off_c, 0, 54, 67
1, 123047, Control_c, 0, 64, 97
1, 123061, Control_c, 0, 64, 79
1, 123064, Note_on_c, 0, 54, 90
1, 123065, Note_on_c, 0, 45, 79
1, 123068, Note_on_c, 0, 51, 78
1, 123076, Control_c, 0, 64, 55
1, 123091, Control_c, 0, 64, 0
1, 123120, Note_on_c, 0, 36, 82
1, 123124, Note_on_c, 0, 24, 76
1, 123135, Control_c, 0, 64, 63
1, 123139, Note_off_c, 0, 45, 61
1, 123150, Control_c, 0, 64, 73
1, 123154, Note_off_c, 0, 36, 64
1, 123157, Note_off_c, 0, 51, 62
1, 123158, Note_off_c, 0, 24, 62
1, 123164, Note_off_c, 0, 54, 65
1, 123165, Control_c, 0, 64, 82
1, 123180, Control_c, 0, 64, 93
1, 123194, Control_c, 0, 64, 103
1, 123209, Control_c, 0, 64, 118
1, 123223, Note_on_c, 0, 36, 78
1, 123224, Control_c, 0, 64, 127
1, 123226, Note_on_c, 0, 24, 80
1, 123260, Note_off_c, 0, 36, 62
1, 123265, Note_on_c, 0, 46, 82
1, 123266, Note_on_c, 0, 55, 75
1, 123266, Note_off_c, 0, 24, 63
1, 123269, Note_on_c, 0, 52, 71
1, 123290, Note_off_c, 0, 46, 65
1, 123290, Note_off_c, 0, 55, 66
1, 123298, Note_off_c, 0, 52, 63
1, 123340, Note_on_c, 0, 55, 93
1, 123343, Control_c, 0, 64, 96
1, 123344, Note_on_c, 0, 46, 86
1, 123349, Note_on_c, 0, 52, 80
1, 123357, Control_c, 0, 64, 76
1, 123372, Control_c, 0, 64, 0
1, 123410, Note_on_c, 0, 36, 84
1, 123417, Note_on_c, 0, 24, 77
1, 123431, Control_c, 0, 64, 61
1, 123439, Note_off_c, 0, 36, 66
1, 123441, Note_off_c, 0, 24, 64
1, 123442, Note_off_c, 0, 46, 57
1, 123446, Control_c, 0, 64, 68
1, 123451, Note_off_c, 0, 55, 59
1, 123452, Note_off_c, 0, 52, 59
1, 123461, Control_c, 0, 64, 75
1, 123476, Control_c, 0, 64, 81
1, 123491, Control_c, 0, 64, 87
1, 123504, Note_on_c, 0, 36, 84
1, 123505, Control_c, 0, 64, 95
1, 123507, Note_on_c, 0, 24, 86
1, 123520, Control_c, 0, 64, 105
1, 123535, Control_c, 0, 64, 127
1, 123562, Note_off_c, 0, 36, 58
1, 123564, Note_on_c, 0, 53, 79
1, 123566, Note_on_c, 0, 47, 85
1, 123569, Note_on_c, 0, 56, 75
1, 123578, Note_off_c, 0, 24, 60
1, 123592, Note_off_c, 0, 47, 69
1, 123593, Note_off_c, 0, 56, 67
1, 123605, Note_off_c, 0, 53, 63
1, 123638, Control_c, 0, 64, 124
1, 123642, Note_on_c, 0, 56, 88
1, 123644, Note_on_c, 0, 53, 66
1, 123647, Note_on_c, 0, 47, 82
1, 123655, Control_c, 0, 64, 87
1, 123670, Control_c, 0, 64, 68
1, 123684, Control_c, 0, 64, 0
1, 123703, Note_on_c, 0, 36, 88
1, 123706, Note_on_c, 0, 24, 83
1, 123735, Note_off_c, 0, 36, 68
1, 123745, Note_off_c, 0, 24, 65
1, 123751, Control_c, 0, 64, 64
1, 123753, Note_off_c, 0, 47, 59
1, 123754, Note_off_c, 0, 53, 59
1, 123766, Control_c, 0, 64, 71
1, 123781, Control_c, 0, 64, 77
1, 123792, Note_off_c, 0, 56, 62
1, 123796, Control_c, 0, 64, 84
1, 123810, Control_c, 0, 64, 89
1, 123816, Note_on_c, 0, 36, 99
1, 123817, Note_on_c, 0, 24, 88
1, 123825, Control_c, 0, 64, 93
1, 123840, Control_c, 0, 64, 98
1, 123855, Control_c, 0, 64, 103
1, 123861, Note_off_c, 0, 24, 63
1, 123866, Note_off_c, 0, 36, 58
1, 123869, Control_c, 0, 64, 105
1, 123884, Control_c, 0, 64, 106
1, 123897, Note_on_c, 0, 57, 99
1, 123899, Control_c, 0, 64, 108
1, 123901, Note_on_c, 0, 51, 89
1, 123903, Note_on_c, 0, 48, 87
1, 123914, Control_c, 0, 64, 111
1, 123927, Note_off_c, 0, 48, 68
1, 123929, Control_c, 0, 64, 116
1, 123938, Note_off_c, 0, 57, 62
1, 123943, Note_off_c, 0, 51, 59
1, 123943, Control_c, 0, 64, 121
1, 123958, Control_c, 0, 64, 122
1, 123988, Control_c, 0, 64, 121
1, 123992, Note_on_c, 0, 48, 86
1, 123995, Note_on_c, 0, 57, 93
1, 123996, Note_on_c, 0, 51, 82
1, 124003, Control_c, 0, 64, 112
1, 124017, Control_c, 0, 64, 98
1, 124032, Control_c, 0, 64, 78
1, 124047, Control_c, 0, 64, 57
1, 124061, Control_c, 0, 64, 0
1, 124097, Note_on_c, 0, 45, 100
1, 124104, Note_on_c, 0, 33, 86
1, 124124, Note_off_c, 0, 45, 66
1, 124127, Note_off_c, 0, 51, 58
1, 124128, Note_off_c, 0, 48, 53
1, 124132, Note_off_c, 0, 33, 62
1, 124136, Control_c, 0, 64, 27
1, 124150, Control_c, 0, 64, 47
1, 124165, Control_c, 0, 64, 58
1, 124180, Control_c, 0, 64, 63
1, 124181, Note_off_c, 0, 57, 48
1, 124195, Control_c, 0, 64, 67
1, 124208, Note_on_c, 0, 45, 100
1, 124210, Note_on_c, 0, 33, 81
1, 124210, Control_c, 0, 64, 69
1, 124225, Control_c, 0, 64, 71
1, 124240, Control_c, 0, 64, 73
1, 124254, Control_c, 0, 64, 74
1, 124269, Control_c, 0, 64, 75
1, 124284, Control_c, 0, 64, 76
1, 124299, Control_c, 0, 64, 78
1, 124305, Note_on_c, 0, 57, 94
1, 124305, Note_off_c, 0, 33, 59
1, 124307, Note_off_c, 0, 45, 59
1, 124314, Control_c, 0, 64, 79
1, 124328, Control_c, 0, 64, 80
1, 124366, Note_off_c, 0, 57, 64
1, 124402, Control_c, 0, 64, 79
1, 124412, Note_on_c, 0, 56, 97
1, 124417, Control_c, 0, 64, 77
1, 124432, Control_c, 0, 64, 74
1, 124447, Control_c, 0, 64, 67
1, 124463, Control_c, 0, 64, 34
1, 124484, Control_c, 0, 64, 0
1, 124526, Note_on_c, 0, 44, 101
1, 124532, Note_on_c, 0, 32, 85
1, 124554, Note_off_c, 0, 44, 62
1, 124560, Note_off_c, 0, 32, 67
1, 124574, Control_c, 0, 64, 28
1, 124589, Control_c, 0, 64, 53
1, 124604, Control_c, 0, 64, 64
1, 124618, Control_c, 0, 64, 71
1, 124633, Control_c, 0, 64, 76
1, 124645, Note_on_c, 0, 42, 108
1, 124648, Control_c, 0, 64, 83
1, 124648, Note_on_c, 0, 30, 95
1, 124651, Note_off_c, 0, 56, 62
1, 124663, Control_c, 0, 64, 89
1, 124678, Control_c, 0, 64, 94
1, 124681, Note_off_c, 0, 30, 62
1, 124684, Note_off_c, 0, 42, 61
1, 124692, Control_c, 0, 64, 98
1, 124707, Control_c, 0, 64, 101
1, 124721, Note_on_c, 0, 54, 80
1, 124722, Control_c, 0, 64, 102
1, 124737, Control_c, 0, 64, 106
1, 124750, Note_off_c, 0, 54, 69
1, 124752, Control_c, 0, 64, 127
1, 124855, Control_c, 0, 64, 114
1, 124870, Control_c, 0, 64, 74
1, 124884, Control_c, 0, 64, 0
1, 124905, Note_on_c, 0, 61, 92
1, 124907, Note_on_c, 0, 49, 126
1, 124914, Note_on_c, 0, 37, 90
1, 124914, Control_c, 0, 64, 69
1, 124929, Control_c, 0, 64, 90
1, 124936, Note_off_c, 0, 37, 73
1, 124938, Note_off_c, 0, 49, 64
1, 124944, Control_c, 0, 64, 127
1, 124946, Note_off_c, 0, 61, 59
1, 124962, Note_on_c, 0, 73, 73
1, 125000, Note_off_c, 0, 73, 60
1, 125031, Note_on_c, 0, 60, 70
1, 125059, Note_off_c, 0, 60, 68
1, 125077, Control_c, 0, 64, 92
1, 125083, Note_on_c, 0, 72, 67
1, 125092, Control_c, 0, 64, 11
1, 125107, Control_c, 0, 64, 0
1, 125109, Note_off_c, 0, 72, 67
1, 125164, Note_on_c, 0, 61, 69
1, 125188, Note_off_c, 0, 61, 64
1, 125209, Note_on_c, 0, 73, 66
1, 125243, Note_off_c, 0, 73, 67
1, 125277, Note_on_c, 0, 60, 68
1, 125310, Note_off_c, 0, 60, 65
1, 125334, Note_on_c, 0, 72, 54
1, 125358, Note_off_c, 0, 72, 64
1, 125399, Note_on_c, 0, 48, 47
1, 125402, Note_on_c, 0, 36, 46
1, 125405, Note_on_c, 0, 61, 66
1, 125429, Note_off_c, 0, 48, 53
1, 125429, Note_off_c, 0, 61, 63
1, 125437, Note_off_c, 0, 36, 52
1, 125474, Note_on_c, 0, 73, 40
1, 125504, Note_off_c, 0, 73, 55
1, 125519, Note_on_c, 0, 49, 60
1, 125527, Note_on_c, 0, 37, 43
1, 125529, Note_on_c, 0, 60, 53
1, 125545, Note_off_c, 0, 49, 61
1, 125554, Note_off_c, 0, 60, 63
1, 125559, Note_off_c, 0, 37, 55
1, 125565, Note_on_c, 0, 72, 58
1, 125599, Note_off_c, 0, 72, 64
1, 125633, Note_on_c, 0, 61, 74
1, 125633, Control_c, 0, 64, 66
1, 125635, Note_on_c, 0, 38, 66
1, 125638, Note_on_c, 0, 50, 64
1, 125648, Control_c, 0, 64, 127
1, 125661, Note_off_c, 0, 38, 58
1, 125665, Note_off_c, 0, 50, 64
1, 125665, Note_off_c, 0, 61, 64
1, 125668, Note_on_c, 0, 66, 26
1, 125701, Note_on_c, 0, 73, 71
1, 125705, Note_off_c, 0, 66, 47
1, 125727, Note_off_c, 0, 73, 66
1, 125757, Note_on_c, 0, 60, 67
1, 125761, Note_on_c, 0, 42, 65
1, 125763, Note_on_c, 0, 54, 64
1, 125786, Note_off_c, 0, 42, 60
1, 125786, Note_off_c, 0, 60, 67
1, 125787, Note_off_c, 0, 54, 66
1, 125808, Note_on_c, 0, 72, 59
1, 125837, Note_off_c, 0, 72, 66
1, 125870, Control_c, 0, 64, 104
1, 125874, Note_on_c, 0, 61, 81
1, 125876, Note_on_c, 0, 47, 80
1, 125879, Note_on_c, 0, 59, 74
1, 125885, Control_c, 0, 64, 66
1, 125900, Control_c, 0, 64, 0
1, 125901, Note_off_c, 0, 59, 65
1, 125902, Note_off_c, 0, 61, 64
1, 125903, Note_off_c, 0, 47, 66
1, 125942, Note_on_c, 0, 73, 55
1, 125965, Note_off_c, 0, 73, 61
1, 126002, Note_on_c, 0, 60, 74
1, 126004, Note_on_c, 0, 48, 82
1, 126031, Note_off_c, 0, 60, 68
1, 126032, Note_off_c, 0, 48, 67
1, 126042, Note_on_c, 0, 72, 68
1, 126067, Note_off_c, 0, 72, 69
1, 126115, Note_on_c, 0, 49, 85
1, 126118, Note_on_c, 0, 61, 71
1, 126147, Note_off_c, 0, 61, 65
1, 126148, Note_off_c, 0, 49, 62
1, 126176, Note_on_c, 0, 73, 61
1, 126197, Note_off_c, 0, 73, 64
1, 126234, Note_on_c, 0, 50, 79
1, 126238, Note_on_c, 0, 60, 58
1, 126257, Note_off_c, 0, 50, 69
1, 126267, Note_on_c, 0, 72, 69
1, 126269, Note_off_c, 0, 60, 64
1, 126299, Note_off_c, 0, 72, 62
1, 126338, Control_c, 0, 64, 75
1, 126338, Note_on_c, 0, 51, 103
1, 126344, Note_on_c, 0, 61, 81
1, 126346, Note_on_c, 0, 39, 84
1, 126353, Control_c, 0, 64, 127
1, 126356, Note_off_c, 0, 51, 75
1, 126367, Note_on_c, 0, 67, 55
1, 126373, Note_off_c, 0, 39, 65
1, 126377, Note_off_c, 0, 61, 58
1, 126386, Note_on_c, 0, 73, 82
1, 126393, Note_off_c, 0, 67, 65
1, 126418, Note_off_c, 0, 73, 60
1, 126456, Note_on_c, 0, 60, 78
1, 126456, Control_c, 0, 64, 100
1, 126471, Control_c, 0, 64, 64
1, 126486, Control_c, 0, 64, 0
1, 126489, Note_off_c, 0, 60, 64
1, 126515, Note_on_c, 0, 72, 52
1, 126540, Note_off_c, 0, 72, 62
1, 126589, Note_on_c, 0, 61, 70
1, 126617, Note_off_c, 0, 61, 64
1, 126651, Note_on_c, 0, 73, 56
1, 126673, Note_off_c, 0, 73, 61
1, 126701, Note_on_c, 0, 60, 63
1, 126740, Note_off_c, 0, 60, 67
1, 126756, Note_on_c, 0, 72, 58
1, 126784, Note_off_c, 0, 72, 64
1, 126827, Note_on_c, 0, 61, 73
1, 126832, Note_on_c, 0, 50, 58
1, 126835, Note_on_c, 0, 38, 57
1, 126858, Note_off_c, 0, 61, 64
1, 126860, Note_off_c, 0, 50, 62
1, 126866, Note_off_c, 0, 38, 56
1, 126880, Note_on_c, 0, 73, 66
1, 126908, Note_off_c, 0, 73, 66
1, 126949, Note_on_c, 0, 39, 60
1, 126949, Note_on_c, 0, 51, 65
1, 126953, Note_on_c, 0, 60, 50
1, 126977, Note_off_c, 0, 39, 58
1, 126977, Note_off_c, 0, 51, 65
1, 126979, Note_off_c, 0, 60, 60
1, 126982, Note_on_c, 0, 72, 62
1, 127009, Note_off_c, 0, 72, 68
1, 127057, Note_on_c, 0, 61, 76
1, 127058, Note_on_c, 0, 52, 90
1, 127060, Note_on_c, 0, 40, 82
1, 127072, Control_c, 0, 64, 77
1, 127075, Note_on_c, 0, 68, 57
1, 127081, Note_off_c, 0, 52, 69
1, 127087, Note_off_c, 0, 40, 66
1, 127087, Control_c, 0, 64, 127
1, 127093, Note_off_c, 0, 61, 59
1, 127105, Note_off_c, 0, 68, 64
1, 127110, Note_on_c, 0, 73, 70
1, 127134, Note_off_c, 0, 73, 67
1, 127174, Note_on_c, 0, 60, 69
1, 127181, Note_on_c, 0, 56, 84
1, 127182, Note_on_c, 0, 44, 74
1, 127202, Note_off_c, 0, 60, 66
1, 127203, Note_off_c, 0, 56, 70
1, 127206, Note_off_c, 0, 44, 66
1, 127212, Note_on_c, 0, 72, 73
1, 127254, Note_off_c, 0, 72, 61
1, 127294, Note_on_c, 0, 61, 76
1, 127305, Note_on_c, 0, 59, 72
1, 127308, Note_on_c, 0, 47, 67
1, 127322, Note_off_c, 0, 61, 62
1, 127325, Note_on_c, 0, 60, 33
1, 127331, Note_off_c, 0, 47, 64
1, 127331, Note_off_c, 0, 59, 66
1, 127339, Control_c, 0, 64, 95
1, 127351, Note_on_c, 0, 73, 65
1, 127353, Control_c, 0, 64, 74
1, 127361, Note_off_c, 0, 60, 54
1, 127368, Control_c, 0, 64, 0
1, 127369, Note_off_c, 0, 73, 67
1, 127391, Poly_aftertouch_c, 0, 48, 0
1, 127416, Note_on_c, 0, 48, 65
1, 127427, Note_on_c, 0, 60, 64
1, 127448, Note_off_c, 0, 60, 65
1, 127450, Note_on_c, 0, 72, 65
1, 127459, Note_off_c, 0, 48, 65
1, 127490, Note_off_c, 0, 72, 64
1, 127546, Note_on_c, 0, 61, 66
1, 127566, Note_on_c, 0, 49, 38
1, 127567, Note_off_c, 0, 49, 127
1, 127568, Note_on_c, 0, 50, 57
1, 127568, Note_off_c, 0, 61, 62
1, 127597, Note_off_c, 0, 50, 64
1, 127600, Note_on_c, 0, 73, 64
1, 127629, Note_off_c, 0, 73, 66
1, 127661, Note_on_c, 0, 60, 63
1, 127662, Note_on_c, 0, 52, 69
1, 127685, Note_off_c, 0, 52, 63
1, 127692, Note_off_c, 0, 60, 67
1, 127702, Note_on_c, 0, 72, 63
1, 127727, Note_off_c, 0, 72, 68
1, 127769, Note_on_c, 0, 53, 99
1, 127775, Note_on_c, 0, 61, 76
1, 127775, Note_on_c, 0, 41, 86
1, 127775, Control_c, 0, 64, 70
1, 127790, Control_c, 0, 64, 127
1, 127796, Note_on_c, 0, 68, 60
1, 127824, Note_on_c, 0, 73, 80
1, 127824, Note_off_c, 0, 61, 51
1, 127826, Note_off_c, 0, 68, 62
1, 127838, Note_off_c, 0, 53, 66
1, 127846, Note_off_c, 0, 73, 70
1, 127849, Note_off_c, 0, 41, 63
1, 127865, Control_c, 0, 64, 98
1, 127880, Control_c, 0, 64, 65
1, 127891, Note_on_c, 0, 60, 66
1, 127894, Control_c, 0, 64, 0
1, 127936, Note_off_c, 0, 60, 64
1, 127936, Note_on_c, 0, 72, 72
1, 127968, Note_off_c, 0, 72, 64
1, 128035, Note_on_c, 0, 61, 60
1, 128068, Note_on_c, 0, 73, 74
1, 128076, Note_off_c, 0, 61, 60
1, 128095, Note_off_c, 0, 73, 67
1, 128151, Note_on_c, 0, 54, 102
1, 128151, Note_on_c, 0, 60, 83
1, 128153, Note_on_c, 0, 42, 93
1, 128161, Control_c, 0, 64, 61
1, 128166, Note_on_c, 0, 69, 64
1, 128175, Control_c, 0, 64, 127
1, 128193, Note_off_c, 0, 60, 66
1, 128197, Note_off_c, 0, 69, 64
1, 128202, Note_on_c, 0, 72, 70
1, 128220, Control_c, 0, 64, 80
1, 128231, Note_off_c, 0, 72, 69
1, 128242, Control_c, 0, 64, 0
1, 128282, Note_on_c, 0, 61, 76
1, 128283, Note_off_c, 0, 54, 64
1, 128296, Note_off_c, 0, 42, 61
1, 128310, Note_off_c, 0, 61, 62
1, 128321, Note_on_c, 0, 73, 79
1, 128359, Note_off_c, 0, 73, 63
1, 128408, Note_on_c, 0, 62, 68
1, 128443, Note_off_c, 0, 62, 62
1, 128451, Note_on_c, 0, 74, 73
1, 128493, Note_off_c, 0, 74, 65
1, 128534, Note_on_c, 0, 63, 82
1, 128538, Note_on_c, 0, 55, 100
1, 128543, Note_on_c, 0, 43, 89
1, 128547, Note_on_c, 0, 73, 74
1, 128569, Control_c, 0, 64, 52
1, 128580, Note_off_c, 0, 63, 58
1, 128584, Control_c, 0, 64, 58
1, 128598, Note_on_c, 0, 75, 81
1, 128598, Control_c, 0, 64, 62
1, 128600, Note_off_c, 0, 73, 62
1, 128613, Control_c, 0, 64, 63
1, 128628, Control_c, 0, 64, 63
1, 128657, Note_off_c, 0, 75, 62
1, 128658, Control_c, 0, 64, 64
1, 128672, Note_on_c, 0, 64, 72
1, 128672, Control_c, 0, 64, 64
1, 128682, Note_off_c, 0, 43, 62
1, 128685, Note_off_c, 0, 55, 58
1, 128687, Control_c, 0, 64, 66
1, 128688, Note_on_c, 0, 73, 56
1, 128699, Note_off_c, 0, 64, 67
1, 128702, Control_c, 0, 64, 68
1, 128717, Control_c, 0, 64, 69
1, 128726, Note_on_c, 0, 76, 74
1, 128732, Control_c, 0, 64, 70
1, 128735, Note_off_c, 0, 73, 61
1, 128754, Note_off_c, 0, 76, 64
1, 128762, Control_c, 0, 64, 68
1, 128777, Control_c, 0, 64, 64
1, 128792, Control_c, 0, 64, 30
1, 128799, Note_on_c, 0, 65, 74
1, 128804, Note_on_c, 0, 44, 72
1, 128804, Note_on_c, 0, 56, 80
1, 128806, Control_c, 0, 64, 0
1, 128824, Note_off_c, 0, 65, 69
1, 128827, Note_off_c, 0, 56, 70
1, 128833, Note_off_c, 0, 44, 64
1, 128838, Note_on_c, 0, 77, 77
1, 128865, Note_off_c, 0, 77, 64
1, 128911, Note_on_c, 0, 57, 83
1, 128911, Note_on_c, 0, 66, 83
1, 128917, Note_on_c, 0, 45, 71
1, 128932, Note_off_c, 0, 57, 69
1, 128934, Note_off_c, 0, 66, 66
1, 128936, Note_on_c, 0, 73, 60
1, 128944, Note_off_c, 0, 45, 67
1, 128962, Note_on_c, 0, 78, 75
1, 128965, Note_off_c, 0, 73, 65
1, 128988, Note_off_c, 0, 78, 64
1, 129035, Note_on_c, 0, 44, 79
1, 129036, Note_on_c, 0, 68, 74
1, 129037, Note_on_c, 0, 56, 79
1, 129044, Note_on_c, 0, 73, 68
1, 129059, Note_off_c, 0, 68, 68
1, 129060, Note_off_c, 0, 56, 69
1, 129060, Note_off_c, 0, 44, 66
1, 129073, Note_off_c, 0, 73, 65
1, 129086, Note_on_c, 0, 80, 75
1, 129110, Note_off_c, 0, 80, 64
1, 129140, Note_on_c, 0, 42, 81
1, 129146, Note_on_c, 0, 54, 57
1, 129150, Note_on_c, 0, 73, 57
1, 129154, Note_on_c, 0, 69, 62
1, 129164, Note_on_c, 0, 81, 58
1, 129167, Note_off_c, 0, 42, 65
1, 129170, Note_off_c, 0, 54, 63
1, 129173, Note_off_c, 0, 73, 61
1, 129173, Note_off_c, 0, 69, 65
1, 129187, Note_off_c, 0, 81, 65
1, 129268, Note_on_c, 0, 73, 94
1, 129273, Note_on_c, 0, 49, 97
1, 129273, Control_c, 0, 64, 79
1, 129274, Note_on_c, 0, 85, 99
1, 129275, Note_on_c, 0, 37, 78
1, 129288, Control_c, 0, 64, 127
1, 129296, Note_off_c, 0, 85, 65
1, 129297, Note_off_c, 0, 37, 67
1, 129301, Note_off_c, 0, 49, 66
1, 129301, Note_off_c, 0, 73, 67
1, 129399, Note_on_c, 0, 49, 74
1, 129425, Note_off_c, 0, 49, 62
1, 129456, Note_on_c, 0, 61, 69
1, 129484, Note_off_c, 0, 61, 64
1, 129520, Note_on_c, 0, 48, 67
1, 129551, Note_off_c, 0, 48, 62
1, 129561, Note_on_c, 0, 60, 72
1, 129600, Control_c, 0, 64, 107
1, 129608, Note_off_c, 0, 60, 63
1, 129614, Control_c, 0, 64, 86
1, 129629, Control_c, 0, 64, 72
1, 129637, Note_on_c, 0, 49, 71
1, 129644, Control_c, 0, 64, 64
1, 129659, Control_c, 0, 64, 67
1, 129672, Note_off_c, 0, 49, 56
1, 129673, Control_c, 0, 64, 76
1, 129678, Note_on_c, 0, 61, 74
1, 129688, Control_c, 0, 64, 92
1, 129703, Control_c, 0, 64, 127
1, 129710, Note_off_c, 0, 61, 64
1, 129748, Note_on_c, 0, 48, 74
1, 129773, Note_on_c, 0, 84, 82
1, 129781, Note_on_c, 0, 72, 74
1, 129796, Note_off_c, 0, 48, 64
1, 129799, Note_off_c, 0, 84, 62
1, 129802, Note_off_c, 0, 72, 70
1, 129871, Note_on_c, 0, 49, 67
1, 129880, Note_on_c, 0, 85, 85
1, 129883, Note_on_c, 0, 73, 85
1, 129887, Note_on_c, 0, 61, 44
1, 129897, Note_off_c, 0, 49, 66
1, 129905, Note_off_c, 0, 73, 69
1, 129915, Note_off_c, 0, 61, 57
1, 129915, Note_off_c, 0, 85, 53
1, 129961, Control_c, 0, 64, 118
1, 129976, Control_c, 0, 64, 78
1, 129991, Control_c, 0, 64, 0
1, 129996, Note_on_c, 0, 74, 90
1, 129996, Note_on_c, 0, 38, 62
1, 129997, Note_on_c, 0, 86, 81
1, 129998, Note_on_c, 0, 50, 71
1, 130005, Control_c, 0, 64, 54
1, 130008, Note_on_c, 0, 78, 62
1, 130013, Note_off_c, 0, 74, 75
1, 130015, Note_off_c, 0, 86, 73
1, 130020, Note_on_c, 0, 40, 38
1, 130020, Control_c, 0, 64, 88
1, 130023, Note_off_c, 0, 38, 58
1, 130026, Note_off_c, 0, 50, 68
1, 130029, Note_off_c, 0, 78, 62
1, 130035, Control_c, 0, 64, 127
1, 130060, Note_off_c, 0, 40, 52
1, 130102, Note_on_c, 0, 49, 74
1, 130109, Note_on_c, 0, 78, 82
1, 130115, Note_on_c, 0, 90, 91
1, 130133, Note_off_c, 0, 49, 63
1, 130133, Note_off_c, 0, 78, 66
1, 130135, Note_off_c, 0, 90, 68
1, 130166, Note_on_c, 0, 61, 64
1, 130187, Note_off_c, 0, 61, 63
1, 130211, Note_on_c, 0, 48, 73
1, 130222, Note_on_c, 0, 83, 100
1, 130227, Note_on_c, 0, 95, 99
1, 130233, Note_off_c, 0, 48, 67
1, 130249, Note_off_c, 0, 83, 65
1, 130255, Note_on_c, 0, 60, 72
1, 130258, Note_off_c, 0, 95, 65
1, 130262, Note_on_c, 0, 94, 34
1, 130287, Note_off_c, 0, 60, 64
1, 130297, Note_off_c, 0, 94, 35
1, 130312, Note_on_c, 0, 49, 75
1, 130331, Note_on_c, 0, 84, 105
1, 130336, Note_on_c, 0, 96, 107
1, 130359, Note_off_c, 0, 84, 71
1, 130361, Note_off_c, 0, 49, 57
1, 130365, Note_off_c, 0, 96, 71
1, 130383, Note_on_c, 0, 60, 29
1, 130407, Note_on_c, 0, 48, 63
1, 130409, Note_off_c, 0, 60, 60
1, 130435, Note_on_c, 0, 85, 103
1, 130441, Note_on_c, 0, 97, 96
1, 130482, Note_off_c, 0, 85, 67
1, 130488, Note_off_c, 0, 97, 66
1, 130492, Note_on_c, 0, 49, 66
1, 130497, Note_off_c, 0, 48, 59
1, 130533, Note_off_c, 0, 49, 65
1, 130554, Note_on_c, 0, 86, 102
1, 130558, Note_on_c, 0, 98, 93
1, 130574, Note_off_c, 0, 98, 74
1, 130577, Note_off_c, 0, 86, 69
1, 130579, Note_on_c, 0, 97, 56
1, 130604, Note_off_c, 0, 97, 42
1, 130711, Control_c, 0, 64, 75
1, 130726, Control_c, 0, 64, 0
1, 130742, Note_on_c, 0, 55, 94
1, 130745, Note_on_c, 0, 63, 90
1, 130747, Note_on_c, 0, 61, 90
1, 130749, Note_on_c, 0, 39, 83
1, 130751, Note_on_c, 0, 51, 89
1, 130753, Note_on_c, 0, 49, 77
1, 130756, Control_c, 0, 64, 31
1, 130764, Note_off_c, 0, 55, 69
1, 130769, Note_off_c, 0, 39, 65
1, 130770, Note_off_c, 0, 49, 68
1, 130770, Control_c, 0, 64, 80
1, 130773, Note_off_c, 0, 61, 62
1, 130775, Note_off_c, 0, 51, 70
1, 130784, Note_off_c, 0, 63, 48
1, 130785, Control_c, 0, 64, 127
1, 130865, Note_on_c, 0, 49, 54
1, 130906, Note_off_c, 0, 49, 59
1, 130977, Note_on_c, 0, 48, 56
1, 130992, Poly_aftertouch_c, 0, 60, 127
1, 131001, Note_off_c, 0, 48, 64
1, 131016, Note_on_c, 0, 60, 35
1, 131068, Note_off_c, 0, 60, 64
1, 131103, Note_on_c, 0, 49, 64
1, 131112, Control_c, 0, 64, 112
1, 131120, Note_on_c, 0, 61, 68
1, 131126, Control_c, 0, 64, 90
1, 131131, Note_off_c, 0, 49, 65
1, 131141, Control_c, 0, 64, 79
1, 131145, Note_off_c, 0, 61, 57
1, 131156, Control_c, 0, 64, 78
1, 131171, Control_c, 0, 64, 84
1, 131186, Control_c, 0, 64, 98
1, 131200, Control_c, 0, 64, 127
1, 131201, Note_on_c, 0, 48, 66
1, 131205, Poly_aftertouch_c, 0, 60, 127
1, 131230, Note_on_c, 0, 86, 85
1, 131231, Note_on_c, 0, 74, 86
1, 131243, Poly_aftertouch_c, 0, 60, 0
1, 131250, Note_off_c, 0, 74, 72
1, 131258, Note_off_c, 0, 86, 62
1, 131260, Note_on_c, 0, 61, 66
1, 131272, Note_off_c, 0, 48, 62
1, 131308, Note_off_c, 0, 61, 62
1, 131325, Note_on_c, 0, 49, 12
1, 131338, Note_on_c, 0, 87, 91
1, 131346, Note_on_c, 0, 75, 79
1, 131366, Note_off_c, 0, 75, 72
1, 131381, Note_off_c, 0, 49, 54
1, 131386, Note_off_c, 0, 87, 65
1, 131400, Control_c, 0, 64, 95
1, 131415, Control_c, 0, 64, 62
1, 131430, Control_c, 0, 64, 0
1, 131446, Note_on_c, 0, 52, 87
1, 131448, Note_on_c, 0, 40, 83
1, 131449, Note_on_c, 0, 76, 93
1, 131451, Note_on_c, 0, 88, 83
1, 131460, Note_on_c, 0, 80, 68
1, 131460, Control_c, 0, 64, 81
1, 131470, Note_off_c, 0, 52, 68
1, 131471, Note_off_c, 0, 76, 66
1, 131472, Note_off_c, 0, 88, 68
1, 131472, Note_off_c, 0, 40, 67
1, 131475, Control_c, 0, 64, 127
1, 131476, Note_off_c, 0, 80, 66
1, 131564, Note_on_c, 0, 49, 74
1, 131564, Note_on_c, 0, 80, 82
1, 131567, Note_on_c, 0, 92, 87
1, 131592, Note_off_c, 0, 49, 63
1, 131600, Note_on_c, 0, 61, 63
1, 131600, Note_off_c, 0, 80, 61
1, 131601, Note_off_c, 0, 92, 63
1, 131630, Note_off_c, 0, 61, 64
1, 131672, Note_on_c, 0, 48, 67
1, 131677, Note_on_c, 0, 83, 102
1, 131688, Note_on_c, 0, 95, 84
1, 131693, Note_on_c, 0, 93, 81
1, 131698, Note_off_c, 0, 48, 64
1, 131702, Note_on_c, 0, 60, 77
1, 131704, Note_off_c, 0, 83, 70
1, 131707, Note_off_c, 0, 95, 72
1, 131712, Note_off_c, 0, 93, 71
1, 131745, Note_off_c, 0, 60, 63
1, 131773, Note_on_c, 0, 49, 69
1, 131784, Note_on_c, 0, 84, 106
1, 131790, Note_on_c, 0, 96, 103
1, 131804, Note_off_c, 0, 49, 62
1, 131812, Note_off_c, 0, 84, 71
1, 131818, Note_off_c, 0, 96, 71
1, 131848, Note_on_c, 0, 61, 17
1, 131866, Note_on_c, 0, 48, 73
1, 131886, Note_off_c, 0, 61, 46
1, 131892, Note_on_c, 0, 85, 110
1, 131896, Note_on_c, 0, 97, 106
1, 131923, Note_on_c, 0, 49, 51
1, 131928, Note_off_c, 0, 85, 68
1, 131934, Note_off_c, 0, 97, 67
1, 131942, Note_off_c, 0, 48, 61
1, 132005, Note_off_c, 0, 49, 63
1, 132014, Note_on_c, 0, 88, 102
1, 132015, Note_on_c, 0, 100, 95
1, 132029, Note_off_c, 0, 100, 74
1, 132037, Note_off_c, 0, 88, 65
1, 132041, Note_on_c, 0, 99, 44
1, 132069, Note_off_c, 0, 99, 57
1, 132239, Control_c, 0, 64, 95
1, 132254, Control_c, 0, 64, 63
1, 132258, Note_on_c, 0, 41, 77
1, 132264, Note_on_c, 0, 65, 77
1, 132267, Note_on_c, 0, 53, 66
1, 132268, Control_c, 0, 64, 0
1, 132269, Note_on_c, 0, 77, 73
1, 132270, Note_on_c, 0, 73, 73
1, 132275, Note_on_c, 0, 68, 56
1, 132280, Note_off_c, 0, 41, 64
1, 132288, Note_off_c, 0, 53, 63
1, 132387, Note_on_c, 0, 62, 73
1, 132405, Note_on_c, 0, 50, 46
1, 132411, Note_off_c, 0, 62, 67
1, 132416, Note_off_c, 0, 68, 58
1, 132421, Note_off_c, 0, 77, 58
1, 132442, Note_off_c, 0, 50, 32
1, 132461, Note_off_c, 0, 65, 60
1, 132488, Note_off_c, 0, 73, 55
1, 132509, Note_on_c, 0, 49, 66
1, 132515, Note_on_c, 0, 61, 51
1, 132533, Note_off_c, 0, 49, 62
1, 132542, Note_off_c, 0, 61, 57
1, 132613, Note_on_c, 0, 73, 77
1, 132613, Note_on_c, 0, 66, 88
1, 132614, Note_on_c, 0, 69, 73
1, 132617, Note_on_c, 0, 42, 71
1, 132618, Note_on_c, 0, 78, 79
1, 132624, Note_on_c, 0, 54, 68
1, 132625, Control_c, 0, 64, 127
1, 132645, Note_off_c, 0, 42, 64
1, 132651, Note_off_c, 0, 54, 66
1, 132670, Control_c, 0, 64, 90
1, 132685, Control_c, 0, 64, 55
1, 132699, Control_c, 0, 64, 0
1, 132718, Note_off_c, 0, 69, 58
1, 132734, Note_on_c, 0, 60, 76
1, 132743, Note_on_c, 0, 48, 70
1, 132755, Note_off_c, 0, 66, 59
1, 132755, Note_off_c, 0, 60, 71
1, 132767, Note_off_c, 0, 48, 59
1, 132772, Note_off_c, 0, 78, 59
1, 132784, Note_off_c, 0, 73, 62
1, 132845, Note_on_c, 0, 49, 79
1, 132846, Note_on_c, 0, 61, 77
1, 132869, Note_off_c, 0, 49, 67
1, 132870, Note_off_c, 0, 61, 66
1, 132962, Note_on_c, 0, 55, 84
1, 132962, Note_on_c, 0, 43, 77
1, 132964, Note_on_c, 0, 67, 93
1, 132965, Note_on_c, 0, 73, 88
1, 132968, Note_on_c, 0, 79, 84
1, 132973, Control_c, 0, 64, 89
1, 132983, Note_off_c, 0, 43, 65
1, 132983, Note_off_c, 0, 55, 70
1, 132988, Control_c, 0, 64, 127
1, 133017, Control_c, 0, 64, 91
1, 133032, Control_c, 0, 64, 55
1, 133047, Control_c, 0, 64, 0
1, 133076, Note_on_c, 0, 63, 86
1, 133078, Note_on_c, 0, 51, 79
1, 133098, Note_off_c, 0, 63, 67
1, 133101, Note_off_c, 0, 79, 58
1, 133104, Note_off_c, 0, 51, 66
1, 133116, Note_off_c, 0, 67, 55
1, 133157, Note_off_c, 0, 73, 59
1, 133183, Note_on_c, 0, 64, 82
1, 133187, Note_on_c, 0, 52, 79
1, 133203, Note_off_c, 0, 64, 73
1, 133210, Note_off_c, 0, 52, 66
1, 133302, Note_on_c, 0, 56, 98
1, 133302, Note_on_c, 0, 44, 89
1, 133302, Note_on_c, 0, 68, 99
1, 133305, Note_on_c, 0, 73, 82
1, 133307, Note_on_c, 0, 80, 84
1, 133314, Control_c, 0, 64, 71
1, 133319, Note_off_c, 0, 56, 74
1, 133326, Note_off_c, 0, 44, 66
1, 133329, Control_c, 0, 64, 127
1, 133418, Note_on_c, 0, 64, 91
1, 133424, Note_on_c, 0, 52, 78
1, 133438, Note_off_c, 0, 64, 72
1, 133447, Note_off_c, 0, 52, 66
1, 133483, Note_off_c, 0, 68, 58
1, 133508, Note_off_c, 0, 80, 52
1, 133513, Note_off_c, 0, 73, 38
1, 133532, Note_on_c, 0, 65, 91
1, 133537, Note_on_c, 0, 53, 85
1, 133552, Note_off_c, 0, 65, 73
1, 133561, Note_off_c, 0, 53, 69
1, 133590, Control_c, 0, 64, 108
1, 133604, Control_c, 0, 64, 83
1, 133619, Control_c, 0, 64, 66
1, 133634, Control_c, 0, 64, 0
1, 133648, Control_c, 0, 64, 50
1, 133650, Note_on_c, 0, 69, 92
1, 133653, Note_on_c, 0, 78, 82
1, 133656, Note_on_c, 0, 45, 77
1, 133656, Note_on_c, 0, 57, 79
1, 133657, Note_on_c, 0, 75, 74
1, 133662, Note_on_c, 0, 72, 61
1, 133663, Control_c, 0, 64, 70
1, 133677, Note_off_c, 0, 45, 63
1, 133678, Control_c, 0, 64, 86
1, 133680, Note_off_c, 0, 57, 69
1, 133690, Note_off_c, 0, 72, 65
1, 133693, Control_c, 0, 64, 119
1, 133694, Note_off_c, 0, 69, 64
1, 133708, Control_c, 0, 64, 127
1, 133713, Note_off_c, 0, 75, 61
1, 133729, Note_off_c, 0, 78, 61
1, 133755, Note_on_c, 0, 66, 92
1, 133757, Note_on_c, 0, 54, 82
1, 133772, Note_off_c, 0, 66, 73
1, 133781, Note_off_c, 0, 54, 68
1, 133857, Note_on_c, 0, 46, 88
1, 133859, Note_on_c, 0, 58, 99
1, 133861, Note_on_c, 0, 70, 96
1, 133861, Note_on_c, 0, 76, 73
1, 133868, Note_on_c, 0, 73, 76
1, 133874, Note_on_c, 0, 79, 70
1, 133877, Note_off_c, 0, 58, 70
1, 133880, Note_off_c, 0, 46, 68
1, 133910, Note_off_c, 0, 73, 56
1, 133920, Note_off_c, 0, 76, 60
1, 133928, Note_off_c, 0, 79, 56
1, 133943, Note_off_c, 0, 70, 60
1, 133961, Note_on_c, 0, 67, 99
1, 133965, Note_on_c, 0, 55, 91
1, 133979, Note_off_c, 0, 67, 70
1, 133987, Note_off_c, 0, 55, 71
1, 134069, Note_on_c, 0, 71, 100
1, 134071, Note_on_c, 0, 80, 81
1, 134072, Note_on_c, 0, 74, 89
1, 134072, Note_on_c, 0, 77, 81
1, 134079, Note_on_c, 0, 83, 83
1, 134080, Note_on_c, 0, 47, 95
1, 134081, Note_on_c, 0, 59, 95
1, 134098, Note_off_c, 0, 59, 72
1, 134102, Note_off_c, 0, 47, 72
1, 134164, Note_off_c, 0, 71, 56
1, 134178, Note_off_c, 0, 74, 62
1, 134183, Note_on_c, 0, 68, 98
1, 134183, Note_off_c, 0, 83, 58
1, 134183, Control_c, 0, 64, 90
1, 134185, Note_on_c, 0, 56, 90
1, 134187, Poly_aftertouch_c, 0, 46, 0
1, 134194, Note_off_c, 0, 77, 61
1, 134198, Control_c, 0, 64, 0
1, 134199, Note_off_c, 0, 68, 72
1, 134221, Note_off_c, 0, 56, 66
1, 134222, Note_off_c, 0, 80, 60
1, 134490, Note_on_c, 0, 84, 79
1, 134491, Note_on_c, 0, 72, 73
1, 134493, Note_on_c, 0, 60, 75
1, 134497, Note_on_c, 0, 48, 68
1, 134510, Note_off_c, 0, 84, 70
1, 134512, Note_off_c, 0, 72, 71
1, 134516, Note_off_c, 0, 60, 69
1, 134519, Note_off_c, 0, 48, 64
1, 134583, Note_on_c, 0, 61, 90
1, 134584, Note_on_c, 0, 85, 86
1, 134586, Note_on_c, 0, 73, 87
1, 134587, Note_on_c, 0, 49, 79
1, 134615, Note_off_c, 0, 49, 68
1, 134622, Note_off_c, 0, 73, 64
1, 134623, Note_off_c, 0, 61, 58
1, 134633, Note_off_c, 0, 85, 63
1, 134688, Note_on_c, 0, 74, 115
1, 134691, Note_on_c, 0, 62, 102
1, 134691, Note_on_c, 0, 86, 94
1, 134693, Control_c, 0, 64, 127
1, 134698, Note_on_c, 0, 50, 96
1, 134709, Note_off_c, 0, 86, 73
1, 134716, Note_off_c, 0, 74, 71
1, 134717, Note_off_c, 0, 50, 69
1, 134733, Note_off_c, 0, 62, 65
1, 134738, Control_c, 0, 64, 102
1, 134752, Control_c, 0, 64, 63
1, 134767, Control_c, 0, 64, 0
1, 134771, Note_on_c, 0, 50, 58
1, 134772, Note_off_c, 0, 50, 127
1, 134804, Poly_aftertouch_c, 0, 50, 0
1, 135136, Note_on_c, 0, 50, 99
1, 135137, Note_on_c, 0, 36, 99
1, 135146, Control_c, 0, 64, 71
1, 135149, Note_on_c, 0, 62, 79
1, 135152, Note_on_c, 0, 26, 72
1, 135161, Control_c, 0, 64, 127
1, 135174, Note_off_c, 0, 62, 68
1, 135176, Note_off_c, 0, 36, 67
1, 135180, Note_off_c, 0, 26, 57
1, 135180, Note_off_c, 0, 50, 66
1, 135199, Note_on_c, 0, 60, 59
1, 135217, Note_off_c, 0, 60, 0
1, 135217, Note_on_c, 0, 60, 37
1, 135236, Note_on_c, 0, 53, 74
1, 135256, Note_on_c, 0, 41, 80
1, 135261, Note_off_c, 0, 60, 40
1, 135270, Note_off_c, 0, 53, 66
1, 135275, Note_on_c, 0, 56, 78
1, 135303, Note_off_c, 0, 56, 68
1, 135316, Note_on_c, 0, 44, 78
1, 135317, Note_on_c, 0, 59, 72
1, 135328, Note_off_c, 0, 41, 58
1, 135339, Note_off_c, 0, 59, 64
1, 135357, Note_on_c, 0, 47, 72
1, 135371, Note_off_c, 0, 44, 63
1, 135382, Note_off_c, 0, 47, 67
1, 135391, Note_on_c, 0, 62, 71
1, 135406, Note_on_c, 0, 50, 71
1, 135424, Note_off_c, 0, 62, 61
1, 135443, Note_on_c, 0, 65, 69
1, 135448, Note_off_c, 0, 50, 68
1, 135470, Note_on_c, 0, 68, 68
1, 135472, Note_on_c, 0, 53, 74
1, 135477, Note_off_c, 0, 65, 63
1, 135487, Note_on_c, 0, 71, 75
1, 135500, Note_off_c, 0, 68, 66
1, 135520, Note_on_c, 0, 56, 77
1, 135524, Note_off_c, 0, 53, 63
1, 135526, Note_off_c, 0, 71, 64
1, 135540, Note_on_c, 0, 59, 74
1, 135546, Note_off_c, 0, 56, 66
1, 135564, Note_off_c, 0, 59, 67
1, 135575, Note_on_c, 0, 74, 77
1, 135585, Note_on_c, 0, 62, 79
1, 135614, Note_off_c, 0, 74, 51
1, 135633, Note_off_c, 0, 62, 59
1, 135642, Note_on_c, 0, 80, 63
1, 135644, Note_on_c, 0, 77, 44
1, 135646, Note_on_c, 0, 83, 77
1, 135660, Note_on_c, 0, 65, 76
1, 135666, Note_off_c, 0, 80, 66
1, 135672, Note_off_c, 0, 77, 58
1, 135680, Control_c, 0, 64, 104
1, 135685, Note_on_c, 0, 68, 83
1, 135693, Note_off_c, 0, 83, 66
1, 135695, Control_c, 0, 64, 74
1, 135716, Note_off_c, 0, 65, 63
1, 135716, Control_c, 0, 64, 63
1, 135718, Note_off_c, 0, 68, 63
1, 135731, Control_c, 0, 64, 70
1, 135746, Control_c, 0, 64, 83
1, 135761, Note_on_c, 0, 74, 94
1, 135761, Control_c, 0, 64, 127
1, 135767, Note_on_c, 0, 86, 90
1, 135785, Note_off_c, 0, 86, 74
1, 135796, Note_off_c, 0, 74, 67
1, 135810, Poly_aftertouch_c, 0, 69, 0
1, 135812, Note_on_c, 0, 73, 90
1, 135834, Note_off_c, 0, 73, 67
1, 135862, Note_on_c, 0, 72, 96
1, 135866, Note_on_c, 0, 84, 86
1, 135884, Note_off_c, 0, 84, 71
1, 135894, Note_off_c, 0, 72, 64
1, 135910, Note_on_c, 0, 71, 95
1, 135938, Note_off_c, 0, 71, 62
1, 135970, Note_on_c, 0, 70, 92
1, 135970, Note_on_c, 0, 82, 91
1, 135991, Note_off_c, 0, 70, 65
1, 135994, Note_off_c, 0, 82, 62
1, 136013, Note_on_c, 0, 69, 89
1, 136039, Note_off_c, 0, 69, 62
1, 136074, Note_on_c, 0, 68, 98
1, 136083, Note_on_c, 0, 80, 71
1, 136096, Note_off_c, 0, 68, 65
1, 136105, Note_off_c, 0, 80, 69
1, 136124, Note_on_c, 0, 67, 98
1, 136154, Note_off_c, 0, 67, 61
1, 136184, Note_on_c, 0, 66, 93
1, 136189, Note_on_c, 0, 78, 85
1, 136227, Note_off_c, 0, 66, 59
1, 136232, Note_on_c, 0, 65, 96
1, 136232, Note_off_c, 0, 78, 62
1, 136253, Note_off_c, 0, 65, 68
1, 136295, Note_on_c, 0, 64, 93
1, 136297, Note_on_c, 0, 76, 85
1, 136324, Note_off_c, 0, 64, 61
1, 136339, Note_off_c, 0, 76, 57
1, 136346, Note_on_c, 0, 63, 100
1, 136386, Note_off_c, 0, 63, 63
1, 136405, Note_on_c, 0, 62, 95
1, 136410, Note_on_c, 0, 74, 85
1, 136435, Note_off_c, 0, 74, 66
1, 136438, Note_off_c, 0, 62, 58
1, 136466, Note_on_c, 0, 61, 95
1, 136483, Note_off_c, 0, 61, 73
1, 136506, Note_on_c, 0, 60, 89
1, 136517, Note_on_c, 0, 72, 86
1, 136534, Note_off_c, 0, 60, 65
1, 136551, Note_on_c, 0, 70, 41
1, 136557, Note_off_c, 0, 72, 63
1, 136558, Note_on_c, 0, 59, 99
1, 136569, Control_c, 0, 64, 94
1, 136576, Note_off_c, 0, 59, 69
1, 136578, Note_off_c, 0, 70, 57
1, 136584, Control_c, 0, 64, 58
1, 136599, Control_c, 0, 64, 0
1, 136847, Note_on_c, 0, 77, 108
1, 136851, Control_c, 0, 64, 67
1, 136852, Note_on_c, 0, 65, 102
1, 136852, Note_on_c, 0, 89, 101
1, 136855, Note_on_c, 0, 53, 100
1, 136865, Control_c, 0, 64, 127
1, 136867, Note_off_c, 0, 89, 73
1, 136878, Note_off_c, 0, 77, 73
1, 136910, Control_c, 0, 64, 108
1, 136925, Control_c, 0, 64, 68
1, 136937, Note_off_c, 0, 65, 59
1, 136939, Control_c, 0, 64, 0
1, 137007, Note_off_c, 0, 53, 61
1, 137235, Note_on_c, 0, 53, 102
1, 137239, Note_on_c, 0, 41, 103
1, 137244, Control_c, 0, 64, 45
1, 137248, Note_on_c, 0, 29, 87
1, 137249, Note_on_c, 0, 65, 75
1, 137259, Control_c, 0, 64, 127
1, 137266, Note_on_c, 0, 63, 63
1, 137270, Note_off_c, 0, 29, 67
1, 137271, Note_off_c, 0, 65, 68
1, 137281, Note_off_c, 0, 53, 62
1, 137291, Note_off_c, 0, 63, 60
1, 137299, Note_off_c, 0, 41, 61
1, 137328, Note_on_c, 0, 56, 61
1, 137353, Note_off_c, 0, 56, 66
1, 137360, Note_on_c, 0, 44, 77
1, 137372, Note_on_c, 0, 59, 46
1, 137406, Note_off_c, 0, 59, 63
1, 137410, Note_on_c, 0, 62, 67
1, 137424, Note_on_c, 0, 47, 61
1, 137436, Note_off_c, 0, 62, 65
1, 137441, Note_off_c, 0, 44, 63
1, 137461, Note_on_c, 0, 50, 72
1, 137475, Note_off_c, 0, 47, 63
1, 137489, Note_off_c, 0, 50, 66
1, 137493, Note_on_c, 0, 65, 71
1, 137501, Note_on_c, 0, 53, 79
1, 137516, Note_off_c, 0, 65, 67
1, 137541, Note_on_c, 0, 68, 73
1, 137559, Note_off_c, 0, 53, 66
1, 137563, Note_off_c, 0, 68, 66
1, 137567, Note_on_c, 0, 71, 59
1, 137579, Note_on_c, 0, 56, 77
1, 137600, Note_on_c, 0, 74, 76
1, 137609, Note_off_c, 0, 71, 62
1, 137624, Note_on_c, 0, 59, 58
1, 137630, Note_off_c, 0, 56, 66
1, 137633, Note_off_c, 0, 74, 63
1, 137645, Note_on_c, 0, 62, 75
1, 137657, Note_off_c, 0, 59, 62
1, 137672, Note_off_c, 0, 62, 67
1, 137695, Note_on_c, 0, 77, 69
1, 137698, Note_on_c, 0, 65, 78
1, 137730, Note_off_c, 0, 77, 56
1, 137731, Note_on_c, 0, 80, 66
1, 137738, Note_off_c, 0, 65, 62
1, 137755, Note_on_c, 0, 83, 67
1, 137763, Control_c, 0, 64, 108
1, 137766, Note_on_c, 0, 68, 78
1, 137773, Note_on_c, 0, 86, 71
1, 137773, Note_off_c, 0, 80, 62
1, 137776, Note_off_c, 0, 83, 67
1, 137778, Control_c, 0, 64, 81
1, 137790, Note_on_c, 0, 71, 78
1, 137793, Control_c, 0, 64, 72
1, 137800, Note_off_c, 0, 86, 66
1, 137807, Control_c, 0, 64, 77
1, 137822, Control_c, 0, 64, 88
1, 137824, Note_off_c, 0, 68, 65
1, 137833, Note_on_c, 0, 74, 77
1, 137837, Control_c, 0, 64, 115
1, 137848, Note_off_c, 0, 71, 64
1, 137852, Control_c, 0, 64, 127
1, 137857, Note_off_c, 0, 74, 71
1, 137873, Note_on_c, 0, 77, 101
1, 137874, Note_on_c, 0, 89, 99
1, 137903, Note_off_c, 0, 77, 69
1, 137903, Note_off_c, 0, 89, 60
1, 137920, Note_on_c, 0, 76, 95
1, 137963, Note_off_c, 0, 76, 59
1, 137985, Note_on_c, 0, 75, 93
1, 137989, Note_on_c, 0, 87, 83
1, 138012, Note_off_c, 0, 87, 67
1, 138015, Note_off_c, 0, 75, 63
1, 138035, Note_on_c, 0, 74, 98
1, 138068, Note_off_c, 0, 74, 67
1, 138092, Note_on_c, 0, 73, 94
1, 138095, Note_on_c, 0, 85, 87
1, 138134, Note_off_c, 0, 73, 60
1, 138134, Note_off_c, 0, 85, 61
1, 138140, Note_on_c, 0, 72, 88
1, 138156, Note_off_c, 0, 72, 73
1, 138193, Note_on_c, 0, 71, 100
1, 138194, Note_on_c, 0, 83, 92
1, 138228, Note_off_c, 0, 71, 66
1, 138232, Note_off_c, 0, 83, 67
1, 138234, Poly_aftertouch_c, 0, 74, 0
1, 138247, Note_on_c, 0, 70, 96
1, 138283, Note_off_c, 0, 70, 66
1, 138291, Poly_aftertouch_c, 0, 82, 0
1, 138306, Note_on_c, 0, 69, 93
1, 138308, Note_on_c, 0, 81, 90
1, 138332, Note_off_c, 0, 69, 63
1, 138332, Note_off_c, 0, 81, 62
1, 138354, Note_on_c, 0, 68, 103
1, 138385, Note_off_c, 0, 68, 68
1, 138410, Note_on_c, 0, 67, 101
1, 138415, Note_on_c, 0, 79, 94
1, 138443, Note_off_c, 0, 67, 64
1, 138450, Note_off_c, 0, 79, 57
1, 138462, Note_on_c, 0, 66, 100
1, 138497, Note_off_c, 0, 66, 68
1, 138518, Note_on_c, 0, 65, 98
1, 138531, Note_on_c, 0, 77, 78
1, 138550, Note_off_c, 0, 65, 69
1, 138552, Note_off_c, 0, 77, 72
1, 138575, Note_on_c, 0, 64, 106
1, 138606, Note_off_c, 0, 64, 68
1, 138617, Note_on_c, 0, 63, 102
1, 138619, Note_on_c, 0, 75, 77
1, 138643, Note_off_c, 0, 75, 68
1, 138645, Control_c, 0, 64, 95
1, 138648, Note_off_c, 0, 63, 64
1, 138660, Control_c, 0, 64, 56
1, 138666, Poly_aftertouch_c, 0, 73, 0
1, 138672, Note_on_c, 0, 62, 104
1, 138675, Control_c, 0, 64, 0
1, 138693, Note_off_c, 0, 62, 67
1, 138980, Control_c, 0, 64, 86
1, 138981, Note_on_c, 0, 80, 108
1, 138987, Note_on_c, 0, 92, 102
1, 138992, Note_on_c, 0, 56, 98
1, 138992, Note_on_c, 0, 68, 106
1, 138995, Control_c, 0, 64, 127
1, 139001, Note_off_c, 0, 92, 78
1, 139010, Note_off_c, 0, 68, 72
1, 139010, Note_off_c, 0, 80, 62
1, 139011, Note_off_c, 0, 56, 72
1, 139015, Note_on_c, 0, 90, 52
1, 139016, Note_off_c, 0, 90, 127
1, 139019, Note_on_c, 0, 66, 13
1, 139043, Note_off_c, 0, 66, 58
1, 139099, Control_c, 0, 64, 79
1, 139114, Control_c, 0, 64, 0
1, 139335, Control_c, 0, 64, 23
1, 139345, Note_on_c, 0, 56, 99
1, 139349, Note_on_c, 0, 44, 102
1, 139350, Control_c, 0, 64, 127
1, 139353, Note_on_c, 0, 32, 101
1, 139368, Note_on_c, 0, 68, 41
1, 139376, Note_off_c, 0, 32, 65
1, 139384, Note_off_c, 0, 68, 64
1, 139392, Note_on_c, 0, 66, 63
1, 139392, Note_off_c, 0, 44, 62
1, 139400, Note_off_c, 0, 56, 63
1, 139423, Note_off_c, 0, 66, 54
1, 139472, Note_on_c, 0, 59, 48
1, 139480, Note_on_c, 0, 47, 55
1, 139493, Note_on_c, 0, 62, 65
1, 139501, Note_off_c, 0, 59, 64
1, 139521, Note_off_c, 0, 62, 66
1, 139524, Note_on_c, 0, 50, 66
1, 139537, Note_off_c, 0, 47, 66
1, 139555, Note_off_c, 0, 50, 67
1, 139580, Note_on_c, 0, 65, 69
1, 139586, Note_on_c, 0, 53, 75
1, 139608, Note_off_c, 0, 65, 60
1, 139630, Note_on_c, 0, 68, 74
1, 139642, Note_off_c, 0, 53, 66
1, 139651, Note_on_c, 0, 56, 76
1, 139660, Note_on_c, 0, 71, 71
1, 139660, Note_off_c, 0, 68, 63
1, 139702, Note_on_c, 0, 74, 82
1, 139705, Note_off_c, 0, 71, 66
1, 139712, Note_on_c, 0, 59, 61
1, 139731, Note_off_c, 0, 56, 64
1, 139740, Note_on_c, 0, 62, 67
1, 139741, Note_off_c, 0, 74, 66
1, 139758, Note_off_c, 0, 59, 58
1, 139766, Note_off_c, 0, 62, 65
1, 139782, Note_on_c, 0, 65, 76
1, 139794, Note_on_c, 0, 77, 74
1, 139832, Note_off_c, 0, 65, 65
1, 139837, Note_on_c, 0, 80, 72
1, 139842, Note_off_c, 0, 77, 49
1, 139860, Note_on_c, 0, 68, 69
1, 139869, Note_on_c, 0, 83, 71
1, 139892, Note_on_c, 0, 71, 65
1, 139905, Note_off_c, 0, 80, 62
1, 139908, Note_on_c, 0, 86, 67
1, 139918, Note_off_c, 0, 83, 64
1, 139919, Note_off_c, 0, 68, 62
1, 139922, Note_on_c, 0, 74, 74
1, 139936, Note_off_c, 0, 86, 68
1, 139946, Note_off_c, 0, 71, 64
1, 139947, Note_off_c, 0, 74, 68
1, 139976, Note_on_c, 0, 77, 77
1, 140004, Note_off_c, 0, 77, 66
1, 140053, Note_on_c, 0, 92, 83
1, 140059, Note_on_c, 0, 80, 85
1, 140072, Note_off_c, 0, 92, 70
1, 140077, Note_off_c, 0, 80, 72
1, 140107, Note_on_c, 0, 79, 82
1, 140129, Note_off_c, 0, 79, 66
1, 140162, Note_on_c, 0, 78, 84
1, 140164, Note_on_c, 0, 90, 82
1, 140190, Note_off_c, 0, 78, 59
1, 140191, Note_off_c, 0, 90, 63
1, 140230, Note_on_c, 0, 77, 76
1, 140246, Note_off_c, 0, 77, 70
1, 140263, Note_on_c, 0, 76, 70
1, 140280, Note_on_c, 0, 88, 80
1, 140286, Note_off_c, 0, 76, 68
1, 140300, Note_off_c, 0, 88, 70
1, 140349, Note_on_c, 0, 74, 77
1, 140371, Note_off_c, 0, 74, 72
1, 140387, Note_on_c, 0, 83, 86
1, 140388, Note_on_c, 0, 95, 93
1, 140408, Note_on_c, 0, 84, 53
1, 140408, Note_off_c, 0, 83, 67
1, 140417, Note_off_c, 0, 95, 62
1, 140429, Note_off_c, 0, 84, 63
1, 140459, Note_on_c, 0, 82, 99
1, 140495, Note_on_c, 0, 81, 90
1, 140498, Note_off_c, 0, 82, 61
1, 140501, Note_on_c, 0, 93, 86
1, 140518, Note_on_c, 0, 83, 58
1, 140519, Note_off_c, 0, 83, 127
1, 140519, Note_off_c, 0, 81, 62
1, 140519, Note_off_c, 0, 93, 69
1, 140558, Note_on_c, 0, 80, 93
1, 140591, Note_on_c, 0, 79, 94
1, 140594, Note_off_c, 0, 80, 65
1, 140595, Note_on_c, 0, 91, 90
1, 140610, Note_off_c, 0, 79, 65
1, 140631, Note_off_c, 0, 91, 63
1, 140673, Note_on_c, 0, 78, 70
1, 140690, Note_off_c, 0, 78, 65
1, 140705, Note_on_c, 0, 86, 104
1, 140709, Note_on_c, 0, 98, 104
1, 140734, Note_off_c, 0, 86, 71
1, 140742, Note_off_c, 0, 98, 63
1, 140778, Note_on_c, 0, 85, 94
1, 140811, Note_on_c, 0, 84, 101
1, 140813, Note_off_c, 0, 85, 65
1, 140817, Note_on_c, 0, 96, 98
1, 140841, Note_off_c, 0, 84, 69
1, 140846, Note_off_c, 0, 96, 63
1, 140884, Note_on_c, 0, 83, 96
1, 140915, Note_off_c, 0, 83, 66
1, 140917, Note_on_c, 0, 82, 102
1, 140920, Note_on_c, 0, 94, 89
1, 140942, Note_off_c, 0, 82, 60
1, 140964, Note_off_c, 0, 94, 63
1, 141004, Control_c, 0, 64, 104
1, 141004, Note_on_c, 0, 80, 90
1, 141019, Control_c, 0, 64, 67
1, 141021, Note_off_c, 0, 80, 72
1, 141033, Control_c, 0, 64, 0
1, 141048, Control_c, 0, 64, 63
1, 141061, Note_on_c, 0, 89, 114
1, 141063, Control_c, 0, 64, 77
1, 141067, Note_on_c, 0, 101, 105
1, 141078, Control_c, 0, 64, 113
1, 141085, Note_on_c, 0, 99, 71
1, 141086, Note_off_c, 0, 99, 127
1, 141087, Note_off_c, 0, 101, 65
1, 141092, Note_off_c, 0, 89, 68
1, 141093, Control_c, 0, 64, 127
1, 141124, Note_on_c, 0, 88, 89
1, 141130, Note_on_c, 0, 86, 86
1, 141141, Note_off_c, 0, 88, 73
1, 141146, Note_off_c, 0, 86, 75
1, 141168, Note_on_c, 0, 87, 103
1, 141177, Note_on_c, 0, 99, 78
1, 141198, Note_off_c, 0, 87, 68
1, 141198, Note_off_c, 0, 99, 70
1, 141231, Note_on_c, 0, 86, 97
1, 141258, Note_off_c, 0, 86, 64
1, 141276, Note_on_c, 0, 85, 90
1, 141277, Note_on_c, 0, 97, 90
1, 141310, Note_off_c, 0, 97, 61
1, 141319, Note_off_c, 0, 85, 62
1, 141321, Note_on_c, 0, 87, 6
1, 141329, Note_on_c, 0, 84, 86
1, 141348, Note_off_c, 0, 84, 68
1, 141365, Note_off_c, 0, 87, 53
1, 141381, Note_on_c, 0, 95, 88
1, 141383, Note_on_c, 0, 83, 98
1, 141411, Note_off_c, 0, 83, 63
1, 141418, Note_off_c, 0, 95, 68
1, 141440, Note_on_c, 0, 82, 92
1, 141478, Note_off_c, 0, 82, 64
1, 141487, Note_on_c, 0, 81, 94
1, 141496, Note_on_c, 0, 93, 80
1, 141514, Note_off_c, 0, 93, 71
1, 141514, Note_off_c, 0, 81, 61
1, 141547, Note_on_c, 0, 80, 85
1, 141577, Note_off_c, 0, 80, 59
1, 141593, Note_on_c, 0, 79, 92
1, 141600, Note_on_c, 0, 91, 83
1, 141616, Note_off_c, 0, 79, 64
1, 141619, Note_off_c, 0, 91, 72
1, 141652, Note_on_c, 0, 78, 89
1, 141690, Note_off_c, 0, 78, 63
1, 141699, Note_on_c, 0, 77, 97
1, 141714, Note_on_c, 0, 89, 91
1, 141733, Note_off_c, 0, 89, 67
1, 141735, Note_off_c, 0, 77, 71
1, 141768, Note_on_c, 0, 76, 92
1, 141788, Note_off_c, 0, 76, 66
1, 141816, Note_on_c, 0, 75, 91
1, 141819, Note_on_c, 0, 87, 73
1, 141845, Note_off_c, 0, 87, 68
1, 141847, Note_off_c, 0, 75, 62
1, 141877, Note_on_c, 0, 74, 91
1, 141898, Note_off_c, 0, 74, 69
1, 141926, Note_on_c, 0, 73, 93
1, 141935, Note_on_c, 0, 85, 80
1, 141956, Note_off_c, 0, 85, 71
1, 141965, Note_off_c, 0, 73, 60
1, 141979, Note_on_c, 0, 72, 82
1, 141997, Note_off_c, 0, 72, 72
1, 142036, Note_on_c, 0, 83, 88
1, 142039, Note_on_c, 0, 71, 94
1, 142060, Note_off_c, 0, 71, 68
1, 142073, Note_off_c, 0, 83, 62
1, 142092, Note_on_c, 0, 70, 87
1, 142126, Note_off_c, 0, 70, 59
1, 142144, Note_on_c, 0, 69, 89
1, 142149, Note_on_c, 0, 81, 85
1, 142167, Note_off_c, 0, 81, 69
1, 142169, Note_off_c, 0, 69, 64
1, 142197, Note_on_c, 0, 68, 91
1, 142227, Note_off_c, 0, 68, 59
1, 142250, Note_on_c, 0, 67, 89
1, 142258, Note_on_c, 0, 79, 78
1, 142274, Note_off_c, 0, 67, 64
1, 142276, Note_off_c, 0, 79, 71
1, 142301, Note_on_c, 0, 66, 93
1, 142331, Note_off_c, 0, 66, 63
1, 142354, Note_on_c, 0, 65, 96
1, 142361, Note_on_c, 0, 77, 87
1, 142381, Note_off_c, 0, 77, 70
1, 142382, Note_off_c, 0, 65, 67
1, 142410, Note_on_c, 0, 64, 92
1, 142431, Note_off_c, 0, 64, 68
1, 142475, Note_on_c, 0, 63, 97
1, 142486, Note_on_c, 0, 75, 68
1, 142498, Note_off_c, 0, 63, 66
1, 142510, Note_off_c, 0, 75, 68
1, 142528, Note_on_c, 0, 62, 90
1, 142549, Note_off_c, 0, 62, 67
1, 142581, Note_on_c, 0, 61, 95
1, 142586, Note_on_c, 0, 73, 84
1, 142612, Note_off_c, 0, 73, 61
1, 142625, Note_off_c, 0, 61, 60
1, 142629, Note_on_c, 0, 60, 87
1, 142650, Note_off_c, 0, 60, 71
1, 142695, Note_on_c, 0, 71, 80
1, 142695, Note_on_c, 0, 59, 87
1, 142716, Note_off_c, 0, 71, 69
1, 142719, Note_off_c, 0, 59, 64
1, 142747, Note_on_c, 0, 58, 95
1, 142778, Note_off_c, 0, 58, 61
1, 142796, Note_on_c, 0, 57, 89
1, 142804, Note_on_c, 0, 69, 82
1, 142832, Note_off_c, 0, 69, 61
1, 142841, Note_off_c, 0, 57, 0
1, 142841, Note_on_c, 0, 56, 105
1, 142852, Note_on_c, 0, 57, 68
1, 142869, Note_off_c, 0, 57, 67
1, 142872, Note_off_c, 0, 56, 65
1, 142873, Control_c, 0, 64, 90
1, 142888, Control_c, 0, 64, 0
1, 142901, Poly_aftertouch_c, 0, 59, 0
1, 142961, Note_on_c, 0, 56, 79
1, 142969, Note_on_c, 0, 68, 68
1, 142987, Note_off_c, 0, 56, 68
1, 142996, Note_off_c, 0, 68, 67
1, 143069, Note_on_c, 0, 56, 64
1, 143081, Note_on_c, 0, 68, 57
1, 143095, Control_c, 0, 67, 11
1, 143097, Note_off_c, 0, 56, 65
1, 143109, Control_c, 0, 67, 42
1, 143111, Note_off_c, 0, 68, 64
1, 143124, Control_c, 0, 67, 94
1, 143139, Control_c, 0, 67, 127
1, 143186, Note_on_c, 0, 56, 54
1, 143187, Note_on_c, 0, 68, 58
1, 143218, Note_off_c, 0, 56, 60
1, 143228, Note_off_c, 0, 68, 62
1, 143312, Note_on_c, 0, 56, 42
1, 143315, Note_on_c, 0, 68, 51
1, 143341, Note_off_c, 0, 68, 60
1, 143342, Note_off_c, 0, 56, 57
1, 143417, Note_on_c, 0, 56, 58
1, 143418, Note_on_c, 0, 68, 59
1, 143452, Note_off_c, 0, 56, 64
1, 143452, Note_off_c, 0, 68, 63
1, 143528, Note_on_c, 0, 56, 60
1, 143532, Note_on_c, 0, 68, 59
1, 143562, Note_off_c, 0, 56, 63
1, 143562, Note_off_c, 0, 68, 64
1, 143635, Note_on_c, 0, 68, 60
1, 143638, Note_on_c, 0, 56, 59
1, 143669, Note_off_c, 0, 68, 61
1, 143673, Note_off_c, 0, 56, 62
1, 143750, Note_on_c, 0, 56, 56
1, 143763, Note_on_c, 0, 68, 49
1, 143779, Note_off_c, 0, 56, 65
1, 143789, Note_off_c, 0, 68, 57
1, 143842, Note_on_c, 0, 59, 59
1, 143847, Note_on_c, 0, 56, 63
1, 143849, Note_on_c, 0, 50, 55
1, 143855, Note_on_c, 0, 62, 60
1, 143865, Note_on_c, 0, 68, 44
1, 143872, Note_off_c, 0, 59, 64
1, 143875, Note_off_c, 0, 56, 65
1, 143882, Note_off_c, 0, 50, 69
1, 143885, Note_off_c, 0, 62, 64
1, 143892, Note_off_c, 0, 68, 57
1, 143963, Note_on_c, 0, 56, 55
1, 143968, Note_on_c, 0, 68, 66
1, 143996, Note_off_c, 0, 56, 61
1, 143999, Note_off_c, 0, 68, 62
1, 144074, Note_on_c, 0, 56, 59
1, 144079, Note_on_c, 0, 68, 61
1, 144107, Note_off_c, 0, 56, 63
1, 144110, Note_off_c, 0, 68, 63
1, 144155, Note_on_c, 0, 44, 56
1, 144162, Note_on_c, 0, 51, 71
1, 144170, Note_on_c, 0, 56, 74
1, 144181, Note_on_c, 0, 68, 64
1, 144183, Note_on_c, 0, 63, 65
1, 144183, Note_off_c, 0, 44, 62
1, 144202, Note_off_c, 0, 51, 61
1, 144204, Note_on_c, 0, 59, 40
1, 144208, Note_off_c, 0, 56, 57
1, 144211, Note_off_c, 0, 63, 67
1, 144212, Note_off_c, 0, 68, 64
1, 144236, Note_off_c, 0, 59, 52
1, 144286, Note_on_c, 0, 56, 63
1, 144293, Note_on_c, 0, 68, 57
1, 144315, Note_off_c, 0, 56, 65
1, 144325, Note_off_c, 0, 68, 64
1, 144380, Note_on_c, 0, 56, 68
1, 144387, Note_on_c, 0, 68, 74
1, 144409, Note_off_c, 0, 56, 69
1, 144423, Note_off_c, 0, 68, 59
1, 144480, Note_on_c, 0, 53, 61
1, 144489, Note_on_c, 0, 62, 47
1, 144492, Note_on_c, 0, 59, 71
1, 144495, Note_on_c, 0, 71, 69
1, 144498, Note_on_c, 0, 65, 55
1, 144515, Note_off_c, 0, 62, 58
1, 144516, Note_off_c, 0, 53, 64
1, 144516, Note_off_c, 0, 59, 67
1, 144519, Note_off_c, 0, 71, 71
1, 144522, Note_off_c, 0, 65, 60
1, 144595, Note_on_c, 0, 59, 61
1, 144605, Note_on_c, 0, 71, 63
1, 144623, Note_off_c, 0, 59, 64
1, 144624, Note_off_c, 0, 71, 64
1, 144692, Note_on_c, 0, 59, 65
1, 144692, Note_on_c, 0, 71, 66
1, 144695, Note_on_c, 0, 47, 63
1, 144728, Note_off_c, 0, 59, 64
1, 144733, Note_off_c, 0, 71, 62
1, 144760, Note_off_c, 0, 47, 64
1, 144771, Note_on_c, 0, 54, 69
1, 144778, Control_c, 0, 64, 71
1, 144793, Control_c, 0, 64, 110
1, 144796, Note_on_c, 0, 59, 86
1, 144799, Note_on_c, 0, 62, 81
1, 144806, Note_on_c, 0, 71, 72
1, 144807, Control_c, 0, 64, 127
1, 144808, Note_on_c, 0, 66, 62
1, 144822, Control_c, 0, 64, 95
1, 144826, Note_off_c, 0, 59, 56
1, 144829, Note_off_c, 0, 66, 65
1, 144832, Note_off_c, 0, 71, 65
1, 144837, Control_c, 0, 64, 69
1, 144852, Control_c, 0, 64, 0
1, 144912, Note_on_c, 0, 59, 71
1, 144927, Note_on_c, 0, 71, 55
1, 144936, Note_off_c, 0, 59, 68
1, 144948, Note_off_c, 0, 71, 63
1, 144967, Note_off_c, 0, 62, 52
1, 144990, Note_off_c, 0, 54, 52
1, 145009, Note_on_c, 0, 59, 71
1, 145013, Note_on_c, 0, 71, 66
1, 145044, Note_off_c, 0, 71, 60
1, 145045, Note_off_c, 0, 59, 57
1, 145123, Note_on_c, 0, 59, 59
1, 145130, Note_on_c, 0, 71, 57
1, 145145, Note_off_c, 0, 59, 62
1, 145153, Note_off_c, 0, 71, 60
1, 145215, Note_on_c, 0, 59, 62
1, 145231, Note_on_c, 0, 71, 60
1, 145249, Note_off_c, 0, 59, 61
1, 145255, Note_off_c, 0, 71, 63
1, 145326, Note_on_c, 0, 71, 61
1, 145338, Note_on_c, 0, 59, 47
1, 145354, Note_off_c, 0, 71, 63
1, 145365, Note_off_c, 0, 59, 56
1, 145416, Control_c, 0, 64, 59
1, 145425, Note_on_c, 0, 71, 65
1, 145430, Control_c, 0, 64, 0
1, 145433, Note_on_c, 0, 59, 61
1, 145458, Note_off_c, 0, 71, 67
1, 145462, Note_off_c, 0, 59, 64
1, 145532, Note_on_c, 0, 59, 64
1, 145545, Note_on_c, 0, 71, 60
1, 145560, Note_off_c, 0, 59, 65
1, 145573, Note_off_c, 0, 71, 67
1, 145634, Note_on_c, 0, 59, 65
1, 145644, Note_on_c, 0, 71, 62
1, 145667, Note_off_c, 0, 59, 61
1, 145671, Note_off_c, 0, 71, 69
1, 145748, Note_on_c, 0, 65, 60
1, 145751, Note_on_c, 0, 53, 59
1, 145752, Note_on_c, 0, 62, 47
1, 145758, Note_on_c, 0, 59, 53
1, 145759, Note_on_c, 0, 71, 52
1, 145768, Note_off_c, 0, 65, 63
1, 145777, Note_off_c, 0, 62, 57
1, 145781, Note_off_c, 0, 71, 62
1, 145784, Note_off_c, 0, 59, 58
1, 145787, Note_off_c, 0, 53, 65
1, 145845, Note_on_c, 0, 71, 71
1, 145852, Note_on_c, 0, 59, 66
1, 145873, Note_off_c, 0, 71, 62
1, 145881, Note_off_c, 0, 59, 66
1, 145953, Note_on_c, 0, 59, 63
1, 145967, Note_on_c, 0, 71, 63
1, 145971, Note_on_c, 0, 47, 64
1, 145982, Note_off_c, 0, 59, 65
1, 145993, Note_off_c, 0, 71, 68
1, 146011, Note_off_c, 0, 47, 66
1, 146015, Note_on_c, 0, 54, 72
1, 146044, Note_on_c, 0, 59, 75
1, 146056, Note_on_c, 0, 66, 65
1, 146060, Note_on_c, 0, 62, 59
1, 146062, Note_on_c, 0, 71, 59
1, 146071, Note_off_c, 0, 54, 62
1, 146077, Note_off_c, 0, 59, 62
1, 146082, Note_off_c, 0, 62, 60
1, 146084, Note_off_c, 0, 66, 66
1, 146089, Note_off_c, 0, 71, 67
1, 146151, Note_on_c, 0, 71, 70
1, 146168, Note_on_c, 0, 59, 46
1, 146201, Note_off_c, 0, 71, 63
1, 146204, Note_off_c, 0, 59, 55
1, 146272, Note_on_c, 0, 71, 45
1, 146285, Note_on_c, 0, 59, 32
1, 146297, Note_off_c, 0, 71, 60
1, 146322, Note_off_c, 0, 59, 32
1, 146339, Note_on_c, 0, 56, 65
1, 146352, Note_on_c, 0, 65, 48
1, 146355, Note_on_c, 0, 68, 75
1, 146360, Note_on_c, 0, 62, 69
1, 146375, Note_on_c, 0, 74, 52
1, 146376, Note_off_c, 0, 68, 69
1, 146379, Note_off_c, 0, 65, 57
1, 146380, Note_off_c, 0, 56, 59
1, 146384, Note_off_c, 0, 62, 64
1, 146398, Note_off_c, 0, 74, 61
1, 146452, Note_on_c, 0, 62, 69
1, 146460, Note_on_c, 0, 74, 75
1, 146485, Note_off_c, 0, 62, 63
1, 146487, Note_off_c, 0, 74, 63
1, 146539, Note_on_c, 0, 50, 65
1, 146561, Note_on_c, 0, 62, 60
1, 146571, Note_on_c, 0, 74, 66
1, 146580, Note_off_c, 0, 50, 65
1, 146582, Note_on_c, 0, 57, 60
1, 146588, Note_off_c, 0, 62, 65
1, 146597, Note_off_c, 0, 74, 69
1, 146638, Note_on_c, 0, 65, 87
1, 146645, Note_on_c, 0, 62, 76
1, 146651, Note_on_c, 0, 69, 72
1, 146669, Note_on_c, 0, 74, 60
1, 146674, Note_off_c, 0, 69, 70
1, 146686, Note_off_c, 0, 62, 54
1, 146691, Note_off_c, 0, 74, 65
1, 146711, Poly_aftertouch_c, 0, 59, 127
1, 146761, Note_on_c, 0, 74, 73
1, 146769, Note_on_c, 0, 62, 53
1, 146769, Poly_aftertouch_c, 0, 59, 0
1, 146792, Note_off_c, 0, 62, 61
1, 146806, Note_off_c, 0, 74, 60
1, 146860, Note_on_c, 0, 62, 69
1, 146883, Note_on_c, 0, 74, 46
1, 146892, Note_off_c, 0, 62, 62
1, 146907, Note_off_c, 0, 74, 61
1, 146982, Note_off_c, 0, 65, 55
1, 146987, Note_on_c, 0, 62, 54
1, 146993, Note_on_c, 0, 74, 63
1, 146997, Note_off_c, 0, 57, 57
1, 147011, Note_off_c, 0, 62, 59
1, 147020, Note_off_c, 0, 74, 68
1, 147083, Note_on_c, 0, 62, 65
1, 147109, Note_on_c, 0, 74, 40
1, 147112, Note_off_c, 0, 62, 65
1, 147138, Note_off_c, 0, 74, 56
1, 147187, Note_on_c, 0, 62, 66
1, 147202, Note_on_c, 0, 74, 50
1, 147214, Note_off_c, 0, 62, 65
1, 147224, Note_off_c, 0, 74, 61
1, 147262, Control_c, 0, 64, 17
1, 147275, Note_on_c, 0, 62, 70
1, 147276, Control_c, 0, 64, 57
1, 147290, Note_on_c, 0, 74, 72
1, 147291, Control_c, 0, 64, 66
1, 147306, Control_c, 0, 64, 70
1, 147316, Note_off_c, 0, 62, 57
1, 147316, Note_off_c, 0, 74, 67
1, 147321, Control_c, 0, 64, 75
1, 147336, Control_c, 0, 64, 79
1, 147351, Control_c, 0, 64, 82
1, 147366, Control_c, 0, 64, 85
1, 147381, Control_c, 0, 64, 86
1, 147391, Note_on_c, 0, 62, 50
1, 147395, Control_c, 0, 64, 87
1, 147405, Note_on_c, 0, 74, 60
1, 147420, Note_off_c, 0, 62, 60
1, 147425, Note_off_c, 0, 74, 63
1, 147455, Control_c, 0, 64, 88
1, 147469, Control_c, 0, 64, 95
1, 147484, Control_c, 0, 64, 106
1, 147486, Note_on_c, 0, 62, 55
1, 147499, Control_c, 0, 64, 127
1, 147502, Note_on_c, 0, 74, 59
1, 147512, Note_off_c, 0, 62, 57
1, 147521, Note_off_c, 0, 74, 66
1, 147543, Control_c, 0, 64, 111
1, 147558, Control_c, 0, 64, 82
1, 147573, Control_c, 0, 64, 47
1, 147577, Note_on_c, 0, 68, 61
1, 147581, Note_on_c, 0, 71, 75
1, 147588, Note_on_c, 0, 65, 72
1, 147588, Control_c, 0, 64, 0
1, 147589, Note_on_c, 0, 59, 59
1, 147594, Note_on_c, 0, 77, 65
1, 147599, Note_off_c, 0, 71, 73
1, 147603, Note_off_c, 0, 68, 65
1, 147613, Note_off_c, 0, 65, 69
1, 147619, Note_off_c, 0, 77, 65
1, 147622, Note_off_c, 0, 59, 63
1, 147680, Note_on_c, 0, 77, 74
1, 147694, Note_on_c, 0, 65, 73
1, 147718, Note_off_c, 0, 77, 59
1, 147720, Note_off_c, 0, 65, 68
1, 147784, Note_on_c, 0, 53, 67
1, 147802, Note_on_c, 0, 65, 62
1, 147805, Note_on_c, 0, 77, 62
1, 147822, Note_off_c, 0, 65, 64
1, 147822, Note_off_c, 0, 77, 67
1, 147831, Note_off_c, 0, 53, 65
1, 147836, Note_on_c, 0, 60, 69
1, 147878, Control_c, 0, 64, 83
1, 147881, Note_on_c, 0, 65, 86
1, 147887, Note_on_c, 0, 68, 81
1, 147887, Note_on_c, 0, 77, 80
1, 147890, Note_on_c, 0, 72, 73
1, 147893, Control_c, 0, 64, 127
1, 147896, Note_off_c, 0, 60, 62
1, 147906, Note_off_c, 0, 68, 71
1, 147911, Note_off_c, 0, 72, 70
1, 147918, Note_off_c, 0, 65, 58
1, 147921, Note_off_c, 0, 77, 58
1, 147992, Note_on_c, 0, 77, 75
1, 147995, Note_on_c, 0, 65, 68
1, 148016, Note_off_c, 0, 65, 71
1, 148022, Note_off_c, 0, 77, 61
1, 148084, Note_on_c, 0, 65, 72
1, 148100, Note_on_c, 0, 77, 55
1, 148107, Note_off_c, 0, 65, 69
1, 148126, Note_off_c, 0, 77, 59
1, 148144, Control_c, 0, 64, 90
1, 148159, Control_c, 0, 64, 64
1, 148174, Note_on_c, 0, 62, 64
1, 148174, Control_c, 0, 64, 0
1, 148176, Note_on_c, 0, 68, 65
1, 148186, Note_on_c, 0, 80, 75
1, 148188, Note_on_c, 0, 74, 77
1, 148188, Note_on_c, 0, 71, 76
1, 148202, Note_off_c, 0, 62, 63
1, 148203, Note_off_c, 0, 68, 67
1, 148208, Note_off_c, 0, 74, 71
1, 148209, Note_off_c, 0, 71, 73
1, 148212, Note_off_c, 0, 80, 59
1, 148216, Note_on_c, 0, 78, 24
1, 148254, Note_off_c, 0, 78, 48
1, 148277, Note_on_c, 0, 62, 52
1, 148279, Note_on_c, 0, 74, 79
1, 148284, Note_on_c, 0, 71, 72
1, 148290, Note_on_c, 0, 68, 40
1, 148299, Note_off_c, 0, 74, 72
1, 148309, Note_off_c, 0, 71, 67
1, 148311, Note_off_c, 0, 62, 63
1, 148318, Note_off_c, 0, 68, 55
1, 148376, Note_on_c, 0, 80, 28
1, 148383, Note_on_c, 0, 56, 63
1, 148385, Note_on_c, 0, 68, 59
1, 148390, Note_on_c, 0, 75, 67
1, 148407, Note_off_c, 0, 56, 67
1, 148414, Note_off_c, 0, 68, 65
1, 148416, Note_off_c, 0, 75, 68
1, 148418, Note_on_c, 0, 63, 6
1, 148424, Note_off_c, 0, 80, 63
1, 148476, Note_off_c, 0, 63, 40
1, 148495, Note_on_c, 0, 65, 73
1, 148500, Note_on_c, 0, 74, 82
1, 148504, Note_on_c, 0, 77, 76
1, 148507, Note_on_c, 0, 71, 52
1, 148520, Note_on_c, 0, 81, 45
1, 148520, Note_off_c, 0, 74, 72
1, 148524, Note_off_c, 0, 77, 72
1, 148525, Note_off_c, 0, 65, 64
1, 148528, Note_off_c, 0, 71, 63
1, 148535, Note_on_c, 0, 83, 22
1, 148536, Note_off_c, 0, 83, 127
1, 148543, Note_off_c, 0, 81, 57
1, 148600, Note_on_c, 0, 74, 80
1, 148601, Note_on_c, 0, 65, 60
1, 148603, Note_on_c, 0, 71, 60
1, 148610, Note_on_c, 0, 77, 60
1, 148612, Note_on_c, 0, 83, 59
1, 148624, Note_off_c, 0, 74, 67
1, 148630, Note_off_c, 0, 77, 64
1, 148631, Note_off_c, 0, 65, 66
1, 148634, Note_off_c, 0, 71, 63
1, 148636, Note_off_c, 0, 83, 59
1, 148698, Note_on_c, 0, 66, 68
1, 148708, Note_on_c, 0, 59, 50
1, 148709, Note_on_c, 0, 83, 71
1, 148718, Note_on_c, 0, 71, 51
1, 148718, Note_on_c, 0, 74, 57
1, 148723, Note_off_c, 0, 66, 66
1, 148723, Note_off_c, 0, 83, 69
1, 148733, Note_off_c, 0, 59, 58
1, 148737, Note_on_c, 0, 78, 22
1, 148739, Note_off_c, 0, 74, 63
1, 148741, Note_off_c, 0, 71, 61
1, 148743, Note_off_c, 0, 78, 44
1, 148805, Note_on_c, 0, 68, 72
1, 148809, Note_on_c, 0, 74, 74
1, 148811, Note_on_c, 0, 80, 71
1, 148813, Note_on_c, 0, 86, 76
1, 148814, Note_on_c, 0, 77, 71
1, 148829, Note_off_c, 0, 68, 68
1, 148831, Note_off_c, 0, 77, 70
1, 148832, Note_off_c, 0, 80, 70
1, 148834, Note_off_c, 0, 86, 67
1, 148838, Note_off_c, 0, 74, 65
1, 148906, Note_on_c, 0, 68, 63
1, 148910, Note_on_c, 0, 77, 65
1, 148916, Note_on_c, 0, 80, 69
1, 148925, Note_on_c, 0, 86, 58
1, 148935, Note_off_c, 0, 68, 65
1, 148936, Note_off_c, 0, 77, 69
1, 148938, Note_off_c, 0, 80, 69
1, 148943, Note_off_c, 0, 86, 65
1, 148945, Note_on_c, 0, 74, 19
1, 149011, Note_off_c, 0, 74, 0
1, 149014, Note_on_c, 0, 86, 68
1, 149017, Note_on_c, 0, 81, 74
1, 149017, Note_on_c, 0, 62, 62
1, 149017, Note_on_c, 0, 69, 61
1, 149026, Note_on_c, 0, 78, 58
1, 149037, Note_on_c, 0, 74, 16
1, 149038, Note_off_c, 0, 81, 70
1, 149045, Note_off_c, 0, 69, 65
1, 149045, Note_off_c, 0, 78, 66
1, 149049, Note_off_c, 0, 62, 63
1, 149050, Note_off_c, 0, 86, 53
1, 149077, Note_off_c, 0, 74, 43
1, 149117, Note_on_c, 0, 68, 75
1, 149123, Note_on_c, 0, 80, 74
1, 149125, Note_on_c, 0, 77, 70
1, 149134, Note_on_c, 0, 86, 59
1, 149136, Note_on_c, 0, 74, 47
1, 149142, Note_off_c, 0, 68, 66
1, 149145, Note_off_c, 0, 80, 67
1, 149147, Note_off_c, 0, 77, 72
1, 149151, Note_off_c, 0, 86, 66
1, 149160, Note_off_c, 0, 74, 61
1, 149230, Note_on_c, 0, 86, 75
1, 149232, Note_on_c, 0, 80, 80
1, 149233, Note_on_c, 0, 77, 79
1, 149236, Note_on_c, 0, 68, 71
1, 149238, Note_on_c, 0, 74, 68
1, 149257, Note_off_c, 0, 77, 68
1, 149259, Note_off_c, 0, 80, 62
1, 149262, Note_off_c, 0, 68, 67
1, 149266, Note_off_c, 0, 74, 64
1, 149271, Note_off_c, 0, 86, 65
1, 149333, Note_on_c, 0, 69, 70
1, 149339, Note_on_c, 0, 81, 81
1, 149344, Note_on_c, 0, 86, 69
1, 149345, Note_on_c, 0, 78, 69
1, 149355, Note_on_c, 0, 74, 52
1, 149357, Note_off_c, 0, 69, 69
1, 149364, Note_on_c, 0, 62, 37
1, 149369, Note_off_c, 0, 78, 69
1, 149369, Note_off_c, 0, 81, 60
1, 149372, Note_off_c, 0, 86, 62
1, 149378, Note_off_c, 0, 74, 61
1, 149396, Note_off_c, 0, 62, 48
1, 149440, Note_on_c, 0, 68, 68
1, 149449, Note_on_c, 0, 77, 68
1, 149450, Note_on_c, 0, 80, 66
1, 149453, Note_on_c, 0, 74, 51
1, 149461, Note_on_c, 0, 86, 52
1, 149465, Note_off_c, 0, 68, 66
1, 149469, Note_off_c, 0, 80, 67
1, 149472, Note_off_c, 0, 77, 63
1, 149476, Note_off_c, 0, 74, 60
1, 149483, Note_off_c, 0, 86, 60
1, 149530, Note_on_c, 0, 68, 64
1, 149539, Note_on_c, 0, 77, 61
1, 149539, Note_on_c, 0, 80, 71
1, 149542, Note_on_c, 0, 62, 60
1, 149548, Note_on_c, 0, 74, 58
1, 149559, Note_off_c, 0, 77, 67
1, 149560, Note_off_c, 0, 68, 61
1, 149568, Note_on_c, 0, 86, 43
1, 149569, Note_off_c, 0, 74, 63
1, 149575, Note_off_c, 0, 80, 63
1, 149580, Note_off_c, 0, 62, 60
1, 149595, Note_off_c, 0, 86, 55
1, 149637, Note_on_c, 0, 69, 51
1, 149646, Note_on_c, 0, 81, 65
1, 149652, Note_on_c, 0, 78, 55
1, 149665, Note_off_c, 0, 69, 64
1, 149670, Note_off_c, 0, 81, 67
1, 149672, Note_off_c, 0, 78, 63
1, 149673, Note_on_c, 0, 74, 24
1, 149744, Control_c, 0, 64, 21
1, 149747, Note_off_c, 0, 74, 0
1, 149747, Note_on_c, 0, 74, 26
1, 149751, Note_on_c, 0, 82, 61
1, 149756, Note_on_c, 0, 77, 61
1, 149759, Control_c, 0, 64, 63
1, 149761, Note_on_c, 0, 70, 55
1, 149774, Control_c, 0, 64, 67
1, 149789, Control_c, 0, 64, 75
1, 149790, Note_off_c, 0, 82, 58
1, 149794, Note_off_c, 0, 77, 58
1, 149804, Control_c, 0, 64, 86
1, 149804, Control_c, 0, 67, 119
1, 149819, Control_c, 0, 64, 102
1, 149819, Control_c, 0, 67, 97
1, 149834, Control_c, 0, 64, 127
1, 149834, Control_c, 0, 67, 71
1, 149849, Control_c, 0, 67, 48
1, 149863, Control_c, 0, 67, 30
1, 149878, Control_c, 0, 67, 12
1, 149888, Note_off_c, 0, 70, 58
1, 149893, Control_c, 0, 67, 0
1, 149905, Note_on_c, 0, 77, 7
1, 149908, Note_off_c, 0, 74, 43
1, 149913, Poly_aftertouch_c, 0, 82, 127
1, 149931, Poly_aftertouch_c, 0, 82, 0
1, 149964, Poly_aftertouch_c, 0, 86, 127
1, 149968, Note_off_c, 0, 77, 0
1, 149968, Note_on_c, 0, 77, 10
1, 149976, Poly_aftertouch_c, 0, 82, 127
1, 149981, Note_on_c, 0, 74, 76
1, 150007, Note_off_c, 0, 74, 66
1, 150013, Note_off_c, 0, 77, 61
1, 150019, Poly_aftertouch_c, 0, 82, 0
1, 150034, Poly_aftertouch_c, 0, 86, 0
1, 150083, Note_on_c, 0, 74, 92
1, 150091, Note_on_c, 0, 82, 67
1, 150093, Note_on_c, 0, 77, 57
1, 150118, Note_off_c, 0, 82, 65
1, 150123, Note_off_c, 0, 77, 56
1, 150196, Note_on_c, 0, 82, 68
1, 150204, Note_on_c, 0, 77, 31
1, 150217, Poly_aftertouch_c, 0, 86, 127
1, 150223, Note_off_c, 0, 82, 65
1, 150240, Note_off_c, 0, 77, 52
1, 150311, Note_on_c, 0, 82, 61
1, 150337, Note_off_c, 0, 82, 68
1, 150358, Poly_aftertouch_c, 0, 86, 0
1, 150432, Note_on_c, 0, 83, 64
1, 150443, Note_on_c, 0, 86, 53
1, 150443, Note_on_c, 0, 91, 54
1, 150452, Note_on_c, 0, 79, 41
1, 150463, Note_off_c, 0, 83, 62
1, 150466, Note_off_c, 0, 86, 62
1, 150475, Note_off_c, 0, 91, 51
1, 150480, Note_off_c, 0, 79, 54
1, 150549, Note_on_c, 0, 86, 53
1, 150553, Note_off_c, 0, 74, 57
1, 150559, Note_on_c, 0, 83, 54
1, 150567, Note_on_c, 0, 79, 30
1, 150573, Note_off_c, 0, 86, 62
1, 150579, Note_off_c, 0, 83, 64
1, 150600, Note_off_c, 0, 79, 51
1, 150625, Poly_aftertouch_c, 0, 91, 127
1, 150626, Note_on_c, 0, 67, 77
1, 150654, Note_on_c, 0, 79, 32
1, 150655, Note_off_c, 0, 67, 61
1, 150673, Note_on_c, 0, 86, 28
1, 150693, Note_on_c, 0, 83, 13
1, 150710, Note_off_c, 0, 79, 0
1, 150722, Note_on_c, 0, 79, 53
1, 150732, Note_on_c, 0, 67, 84
1, 150740, Note_off_c, 0, 86, 0
1, 150740, Note_on_c, 0, 86, 35
1, 150781, Note_off_c, 0, 86, 64
1, 150787, Note_off_c, 0, 83, 58
1, 150825, Note_off_c, 0, 79, 0
1, 150842, Note_on_c, 0, 79, 27
1, 150877, Note_off_c, 0, 79, 49
1, 150881, Note_on_c, 0, 86, 27
1, 150893, Note_on_c, 0, 83, 10
1, 150916, Note_off_c, 0, 83, 0
1, 150947, Note_off_c, 0, 86, 0
1, 150948, Note_on_c, 0, 83, 19
1, 150961, Note_on_c, 0, 79, 55
1, 150961, Note_on_c, 0, 86, 43
1, 150967, Poly_aftertouch_c, 0, 91, 0
1, 150982, Note_off_c, 0, 79, 62
1, 150984, Note_off_c, 0, 83, 64
1, 150986, Note_off_c, 0, 86, 61
1, 151062, Note_on_c, 0, 77, 63
1, 151062, Note_on_c, 0, 86, 69
1, 151067, Note_on_c, 0, 82, 70
1, 151090, Note_off_c, 0, 82, 69
1, 151092, Note_off_c, 0, 77, 65
1, 151098, Note_off_c, 0, 86, 59
1, 151098, Note_off_c, 0, 67, 57
1, 151164, Note_on_c, 0, 86, 60
1, 151167, Note_on_c, 0, 82, 69
1, 151181, Note_on_c, 0, 77, 38
1, 151192, Note_off_c, 0, 82, 67
1, 151204, Note_off_c, 0, 86, 60
1, 151213, Note_off_c, 0, 77, 56
1, 151264, Note_on_c, 0, 62, 76
1, 151266, Note_on_c, 0, 86, 54
1, 151268, Note_on_c, 0, 82, 64
1, 151278, Note_on_c, 0, 77, 46
1, 151289, Note_off_c, 0, 62, 66
1, 151294, Note_off_c, 0, 82, 67
1, 151303, Note_off_c, 0, 86, 62
1, 151309, Note_off_c, 0, 77, 54
1, 151363, Note_on_c, 0, 86, 53
1, 151363, Note_on_c, 0, 77, 56
1, 151365, Note_on_c, 0, 82, 70
1, 151366, Note_on_c, 0, 62, 78
1, 151390, Note_off_c, 0, 82, 66
1, 151404, Note_off_c, 0, 86, 59
1, 151426, Note_off_c, 0, 77, 0
1, 151450, Note_on_c, 0, 77, 43
1, 151455, Note_on_c, 0, 86, 53
1, 151491, Note_on_c, 0, 82, 40
1, 151500, Note_off_c, 0, 77, 56
1, 151517, Note_off_c, 0, 86, 63
1, 151518, Note_off_c, 0, 82, 55
1, 151550, Poly_aftertouch_c, 0, 86, 0
1, 151558, Note_on_c, 0, 77, 47
1, 151563, Note_on_c, 0, 86, 44
1, 151581, Note_on_c, 0, 82, 44
1, 151584, Note_off_c, 0, 77, 60
1, 151601, Note_off_c, 0, 86, 64
1, 151604, Note_off_c, 0, 82, 59
1, 151671, Note_on_c, 0, 91, 68
1, 151673, Note_on_c, 0, 79, 60
1, 151674, Note_on_c, 0, 83, 63
1, 151683, Note_on_c, 0, 86, 55
1, 151685, Note_off_c, 0, 62, 57
1, 151691, Note_off_c, 0, 79, 63
1, 151697, Note_off_c, 0, 91, 56
1, 151699, Note_off_c, 0, 83, 66
1, 151703, Note_off_c, 0, 86, 65
1, 151765, Note_on_c, 0, 79, 63
1, 151765, Note_on_c, 0, 83, 71
1, 151781, Note_on_c, 0, 86, 63
1, 151785, Note_on_c, 0, 91, 36
1, 151785, Note_off_c, 0, 79, 60
1, 151801, Note_off_c, 0, 83, 60
1, 151801, Note_off_c, 0, 86, 65
1, 151819, Note_off_c, 0, 91, 49
1, 151861, Note_on_c, 0, 79, 66
1, 151870, Note_on_c, 0, 55, 58
1, 151876, Note_on_c, 0, 86, 61
1, 151877, Note_on_c, 0, 83, 57
1, 151879, Note_off_c, 0, 79, 63
1, 151896, Note_off_c, 0, 55, 64
1, 151897, Note_off_c, 0, 83, 65
1, 151899, Note_off_c, 0, 86, 68
1, 151903, Note_on_c, 0, 91, 8
1, 151954, Note_on_c, 0, 79, 65
1, 151959, Note_on_c, 0, 55, 75
1, 151974, Note_on_c, 0, 83, 67
1, 151974, Note_off_c, 0, 79, 60
1, 151983, Note_on_c, 0, 86, 53
1, 151983, Note_off_c, 0, 55, 66
1, 151991, Note_off_c, 0, 83, 67
1, 152006, Note_off_c, 0, 86, 60
1, 152051, Note_on_c, 0, 79, 61
1, 152062, Note_on_c, 0, 83, 65
1, 152073, Note_on_c, 0, 86, 68
1, 152080, Note_off_c, 0, 79, 52
1, 152090, Note_off_c, 0, 83, 63
1, 152099, Note_off_c, 0, 86, 65
1, 152141, Note_off_c, 0, 91, 45
1, 152165, Note_on_c, 0, 62, 66
1, 152168, Note_on_c, 0, 50, 68
1, 152168, Note_on_c, 0, 79, 54
1, 152194, Note_off_c, 0, 79, 62
1, 152200, Note_off_c, 0, 62, 66
1, 152202, Note_off_c, 0, 50, 68
1, 152206, Note_on_c, 0, 83, 12
1, 152222, Control_c, 0, 64, 111
1, 152236, Control_c, 0, 64, 85
1, 152249, Note_off_c, 0, 83, 44
1, 152251, Control_c, 0, 64, 68
1, 152263, Note_on_c, 0, 86, 49
1, 152263, Note_on_c, 0, 50, 70
1, 152264, Note_on_c, 0, 62, 69
1, 152265, Note_on_c, 0, 77, 66
1, 152266, Control_c, 0, 64, 56
1, 152275, Note_on_c, 0, 82, 62
1, 152279, Control_c, 0, 64, 66
1, 152294, Control_c, 0, 64, 74
1, 152300, Note_off_c, 0, 62, 59
1, 152300, Note_off_c, 0, 77, 56
1, 152302, Note_off_c, 0, 82, 66
1, 152309, Control_c, 0, 64, 89
1, 152317, Note_off_c, 0, 86, 64
1, 152318, Note_off_c, 0, 50, 63
1, 152323, Control_c, 0, 64, 127
1, 152356, Poly_aftertouch_c, 0, 86, 0
1, 152361, Note_on_c, 0, 77, 39
1, 152367, Note_on_c, 0, 86, 46
1, 152373, Note_on_c, 0, 82, 72
1, 152400, Note_off_c, 0, 77, 51
1, 152402, Note_off_c, 0, 82, 61
1, 152431, Note_off_c, 0, 86, 57
1, 152465, Note_on_c, 0, 86, 35
1, 152472, Note_on_c, 0, 77, 57
1, 152480, Note_on_c, 0, 82, 55
1, 152484, Note_on_c, 0, 55, 68
1, 152493, Note_on_c, 0, 43, 50
1, 152495, Note_off_c, 0, 77, 61
1, 152498, Note_off_c, 0, 86, 63
1, 152502, Note_off_c, 0, 82, 65
1, 152506, Note_off_c, 0, 55, 64
1, 152526, Note_off_c, 0, 43, 54
1, 152561, Note_on_c, 0, 43, 70
1, 152561, Note_on_c, 0, 55, 85
1, 152567, Note_on_c, 0, 79, 74
1, 152569, Note_on_c, 0, 83, 77
1, 152570, Note_on_c, 0, 91, 69
1, 152576, Note_on_c, 0, 86, 70
1, 152586, Note_off_c, 0, 55, 65
1, 152591, Note_off_c, 0, 43, 61
1, 152592, Note_off_c, 0, 79, 62
1, 152601, Note_off_c, 0, 86, 68
1, 152603, Note_off_c, 0, 83, 62
1, 152672, Note_on_c, 0, 83, 64
1, 152672, Note_off_c, 0, 91, 0
1, 152684, Note_on_c, 0, 86, 63
1, 152693, Note_on_c, 0, 79, 30
1, 152719, Note_off_c, 0, 86, 59
1, 152720, Note_off_c, 0, 83, 62
1, 152733, Poly_aftertouch_c, 0, 91, 0
1, 152753, Note_off_c, 0, 79, 0
1, 152766, Note_on_c, 0, 79, 48
1, 152777, Note_on_c, 0, 62, 78
1, 152779, Note_on_c, 0, 50, 78
1, 152781, Note_on_c, 0, 86, 46
1, 152783, Note_on_c, 0, 83, 53
1, 152800, Note_off_c, 0, 62, 68
1, 152805, Note_off_c, 0, 50, 69
1, 152806, Note_off_c, 0, 79, 62
1, 152807, Note_off_c, 0, 83, 66
1, 152808, Note_off_c, 0, 86, 62
1, 152857, Note_on_c, 0, 50, 83
1, 152859, Note_on_c, 0, 62, 76
1, 152870, Note_on_c, 0, 77, 75
1, 152878, Note_on_c, 0, 82, 76
1, 152878, Note_on_c, 0, 86, 75
1, 152885, Note_off_c, 0, 62, 65
1, 152897, Note_off_c, 0, 77, 63
1, 152901, Note_off_c, 0, 50, 64
1, 152906, Note_off_c, 0, 82, 63
1, 152922, Note_off_c, 0, 86, 62
1, 152984, Note_on_c, 0, 86, 57
1, 152988, Note_on_c, 0, 82, 80
1, 152995, Note_on_c, 0, 77, 54
1, 153017, Note_off_c, 0, 77, 63
1, 153024, Note_off_c, 0, 82, 61
1, 153035, Note_off_c, 0, 86, 63
1, 153083, Note_on_c, 0, 55, 89
1, 153085, Note_on_c, 0, 43, 85
1, 153086, Note_on_c, 0, 77, 66
1, 153092, Note_on_c, 0, 86, 47
1, 153103, Note_off_c, 0, 77, 69
1, 153105, Note_off_c, 0, 55, 70
1, 153109, Note_on_c, 0, 82, 39
1, 153113, Note_off_c, 0, 43, 65
1, 153119, Note_off_c, 0, 86, 60
1, 153138, Note_off_c, 0, 82, 54
1, 153172, Note_on_c, 0, 55, 82
1, 153175, Note_on_c, 0, 43, 82
1, 153192, Note_on_c, 0, 79, 77
1, 153194, Note_on_c, 0, 86, 65
1, 153204, Note_on_c, 0, 83, 64
1, 153223, Note_on_c, 0, 91, 34
1, 153228, Note_off_c, 0, 55, 56
1, 153244, Note_off_c, 0, 79, 55
1, 153246, Note_off_c, 0, 86, 62
1, 153247, Note_off_c, 0, 43, 61
1, 153247, Note_off_c, 0, 83, 62
1, 153253, Note_off_c, 0, 91, 55
1, 153321, Note_on_c, 0, 86, 64
1, 153323, Note_on_c, 0, 83, 63
1, 153333, Note_on_c, 0, 79, 57
1, 153358, Note_off_c, 0, 79, 62
1, 153366, Note_off_c, 0, 83, 62
1, 153369, Note_off_c, 0, 86, 59
1, 153437, Note_on_c, 0, 79, 66
1, 153440, Note_on_c, 0, 51, 96
1, 153445, Note_on_c, 0, 39, 85
1, 153445, Note_on_c, 0, 86, 60
1, 153448, Note_on_c, 0, 83, 56
1, 153484, Note_off_c, 0, 39, 56
1, 153484, Note_off_c, 0, 51, 64
1, 153497, Note_off_c, 0, 79, 59
1, 153504, Note_off_c, 0, 83, 64
1, 153512, Note_off_c, 0, 86, 63
1, 153548, Control_c, 0, 64, 91
1, 153563, Control_c, 0, 64, 65
1, 153578, Control_c, 0, 64, 0
1, 153582, Note_on_c, 0, 51, 97
1, 153588, Note_on_c, 0, 39, 85
1, 153593, Note_on_c, 0, 79, 72
1, 153596, Note_on_c, 0, 82, 68
1, 153597, Note_on_c, 0, 87, 65
1, 153605, Note_on_c, 0, 91, 61
1, 153623, Control_c, 0, 64, 68
1, 153634, Note_off_c, 0, 39, 61
1, 153637, Control_c, 0, 64, 87
1, 153640, Note_off_c, 0, 51, 63
1, 153647, Note_off_c, 0, 79, 56
1, 153647, Note_off_c, 0, 91, 48
1, 153652, Control_c, 0, 64, 127
1, 153663, Note_off_c, 0, 82, 60
1, 153686, Note_off_c, 0, 87, 61
1, 153760, Note_on_c, 0, 87, 60
1, 153762, Note_on_c, 0, 79, 60
1, 153776, Note_on_c, 0, 82, 57
1, 153793, Note_on_c, 0, 91, 23
1, 153810, Note_off_c, 0, 79, 49
1, 153819, Note_off_c, 0, 82, 57
1, 153834, Note_off_c, 0, 91, 42
1, 153842, Note_off_c, 0, 87, 63
1, 153921, Note_on_c, 0, 70, 95
1, 153927, Note_on_c, 0, 58, 82
1, 153928, Note_on_c, 0, 82, 63
1, 153933, Note_on_c, 0, 79, 50
1, 153936, Note_on_c, 0, 87, 64
1, 153941, Note_on_c, 0, 91, 44
1, 153959, Note_off_c, 0, 70, 63
1, 153960, Note_off_c, 0, 79, 55
1, 153962, Note_off_c, 0, 58, 55
1, 153973, Note_off_c, 0, 91, 51
1, 153980, Note_off_c, 0, 82, 60
1, 153985, Note_off_c, 0, 87, 60
1, 154040, Note_on_c, 0, 70, 100
1, 154047, Note_on_c, 0, 58, 87
1, 154059, Note_on_c, 0, 79, 67
1, 154061, Control_c, 0, 64, 100
1, 154075, Control_c, 0, 64, 71
1, 154076, Note_on_c, 0, 87, 60
1, 154078, Note_on_c, 0, 82, 58
1, 154085, Note_on_c, 0, 91, 34
1, 154090, Control_c, 0, 64, 0
1, 154100, Note_off_c, 0, 82, 64
1, 154106, Note_off_c, 0, 87, 59
1, 154112, Note_off_c, 0, 79, 51
1, 154119, Note_off_c, 0, 91, 51
1, 154119, Control_c, 0, 64, 54
1, 154134, Control_c, 0, 64, 71
1, 154149, Control_c, 0, 64, 89
1, 154164, Control_c, 0, 64, 127
1, 154176, Note_on_c, 0, 82, 71
1, 154177, Note_on_c, 0, 79, 54
1, 154185, Note_on_c, 0, 87, 68
1, 154211, Note_off_c, 0, 79, 64
1, 154216, Note_off_c, 0, 82, 56
1, 154218, Note_off_c, 0, 87, 61
1, 154286, Note_on_c, 0, 79, 69
1, 154290, Note_on_c, 0, 82, 64
1, 154296, Note_off_c, 0, 70, 54
1, 154303, Note_on_c, 0, 87, 57
1, 154313, Note_off_c, 0, 79, 64
1, 154321, Note_off_c, 0, 82, 61
1, 154336, Note_off_c, 0, 87, 61
1, 154380, Note_on_c, 0, 79, 70
1, 154383, Note_on_c, 0, 82, 68
1, 154400, Note_on_c, 0, 87, 65
1, 154407, Note_off_c, 0, 79, 64
1, 154426, Note_off_c, 0, 82, 61
1, 154438, Note_off_c, 0, 58, 53
1, 154439, Note_off_c, 0, 87, 66
1, 154490, Note_on_c, 0, 82, 62
1, 154492, Note_on_c, 0, 79, 64
1, 154507, Note_on_c, 0, 87, 60
1, 154517, Note_off_c, 0, 79, 66
1, 154532, Note_off_c, 0, 82, 60
1, 154537, Note_off_c, 0, 87, 67
1, 154585, Note_on_c, 0, 51, 82
1, 154585, Note_on_c, 0, 63, 83
1, 154594, Note_on_c, 0, 82, 62
1, 154599, Note_on_c, 0, 79, 61
1, 154607, Note_off_c, 0, 63, 70
1, 154610, Note_off_c, 0, 51, 67
1, 154615, Note_on_c, 0, 87, 57
1, 154618, Note_off_c, 0, 79, 62
1, 154621, Note_off_c, 0, 82, 66
1, 154640, Note_off_c, 0, 87, 61
1, 154672, Note_on_c, 0, 51, 79
1, 154676, Note_on_c, 0, 63, 88
1, 154680, Note_on_c, 0, 79, 79
1, 154691, Note_on_c, 0, 82, 79
1, 154704, Note_on_c, 0, 87, 63
1, 154715, Note_off_c, 0, 82, 64
1, 154717, Note_off_c, 0, 79, 56
1, 154732, Note_off_c, 0, 87, 68
1, 154780, Note_on_c, 0, 79, 68
1, 154790, Note_on_c, 0, 82, 72
1, 154800, Note_on_c, 0, 87, 67
1, 154805, Note_off_c, 0, 79, 64
1, 154819, Note_off_c, 0, 82, 65
1, 154828, Note_off_c, 0, 87, 68
1, 154884, Note_on_c, 0, 79, 76
1, 154888, Note_on_c, 0, 82, 73
1, 154900, Note_on_c, 0, 87, 68
1, 154906, Note_off_c, 0, 63, 55
1, 154910, Note_off_c, 0, 79, 64
1, 154918, Note_off_c, 0, 82, 61
1, 154929, Note_off_c, 0, 87, 67
1, 154979, Note_on_c, 0, 79, 72
1, 154979, Note_on_c, 0, 82, 73
1, 154990, Note_on_c, 0, 87, 71
1, 155003, Note_off_c, 0, 79, 65
1, 155023, Note_off_c, 0, 82, 64
1, 155029, Note_off_c, 0, 87, 56
1, 155051, Note_off_c, 0, 51, 59
1, 155088, Note_on_c, 0, 82, 69
1, 155089, Note_on_c, 0, 79, 70
1, 155096, Note_on_c, 0, 87, 64
1, 155115, Note_off_c, 0, 79, 66
1, 155121, Note_off_c, 0, 82, 63
1, 155128, Note_off_c, 0, 87, 64
1, 155193, Note_on_c, 0, 46, 77
1, 155194, Note_on_c, 0, 79, 70
1, 155198, Note_on_c, 0, 58, 73
1, 155202, Note_on_c, 0, 82, 67
1, 155211, Note_on_c, 0, 87, 58
1, 155215, Note_off_c, 0, 79, 68
1, 155217, Note_off_c, 0, 46, 65
1, 155220, Note_off_c, 0, 58, 66
1, 155224, Note_off_c, 0, 82, 69
1, 155236, Note_off_c, 0, 87, 66
1, 155277, Note_on_c, 0, 46, 81
1, 155280, Note_on_c, 0, 58, 80
1, 155286, Note_on_c, 0, 79, 74
1, 155294, Note_on_c, 0, 82, 75
1, 155303, Note_on_c, 0, 87, 67
1, 155312, Note_off_c, 0, 79, 63
1, 155317, Note_off_c, 0, 82, 68
1, 155331, Note_off_c, 0, 87, 66
1, 155331, Note_off_c, 0, 58, 63
1, 155346, Note_off_c, 0, 46, 60
1, 155395, Note_on_c, 0, 79, 63
1, 155402, Note_on_c, 0, 82, 68
1, 155410, Note_on_c, 0, 87, 58
1, 155414, Note_off_c, 0, 79, 64
1, 155425, Note_off_c, 0, 82, 68
1, 155436, Note_off_c, 0, 87, 66
1, 155483, Note_on_c, 0, 79, 73
1, 155492, Note_on_c, 0, 82, 77
1, 155497, Note_on_c, 0, 51, 85
1, 155498, Note_on_c, 0, 39, 80
1, 155506, Note_on_c, 0, 87, 67
1, 155510, Note_off_c, 0, 79, 60
1, 155513, Note_off_c, 0, 82, 68
1, 155521, Note_off_c, 0, 51, 69
1, 155523, Note_off_c, 0, 39, 66
1, 155532, Note_off_c, 0, 87, 67
1, 155578, Note_on_c, 0, 51, 93
1, 155581, Note_on_c, 0, 39, 94
1, 155581, Note_on_c, 0, 79, 78
1, 155588, Note_on_c, 0, 82, 82
1, 155590, Note_on_c, 0, 87, 81
1, 155614, Note_off_c, 0, 79, 56
1, 155628, Note_off_c, 0, 82, 60
1, 155633, Note_off_c, 0, 87, 58
1, 155641, Note_off_c, 0, 51, 61
1, 155648, Note_off_c, 0, 39, 54
1, 155691, Note_on_c, 0, 79, 68
1, 155695, Note_on_c, 0, 82, 70
1, 155699, Note_on_c, 0, 87, 64
1, 155714, Note_off_c, 0, 79, 63
1, 155722, Note_off_c, 0, 82, 66
1, 155730, Note_off_c, 0, 87, 64
1, 155790, Note_on_c, 0, 50, 97
1, 155795, Note_on_c, 0, 38, 82
1, 155796, Note_on_c, 0, 79, 76
1, 155801, Note_on_c, 0, 82, 74
1, 155803, Note_on_c, 0, 87, 70
1, 155811, Note_off_c, 0, 50, 71
1, 155817, Note_off_c, 0, 79, 69
1, 155822, Note_off_c, 0, 38, 65
1, 155823, Note_off_c, 0, 82, 69
1, 155831, Note_off_c, 0, 87, 66
1, 155867, Poly_aftertouch_c, 0, 39, 127
1, 155876, Note_on_c, 0, 50, 96
1, 155879, Note_on_c, 0, 38, 84
1, 155883, Note_on_c, 0, 79, 84
1, 155890, Note_on_c, 0, 82, 78
1, 155893, Note_on_c, 0, 87, 70
1, 155922, Note_off_c, 0, 79, 56
1, 155942, Note_off_c, 0, 82, 63
1, 155951, Note_off_c, 0, 87, 62
1, 155992, Note_off_c, 0, 38, 57
1, 155995, Note_on_c, 0, 79, 72
1, 155996, Note_off_c, 0, 50, 61
1, 156004, Note_on_c, 0, 82, 74
1, 156005, Note_on_c, 0, 87, 62
1, 156044, Poly_aftertouch_c, 0, 39, 0
1, 156046, Note_off_c, 0, 79, 56
1, 156048, Note_off_c, 0, 82, 64
1, 156063, Note_off_c, 0, 87, 63
1, 156106, Note_on_c, 0, 79, 69
1, 156114, Note_on_c, 0, 87, 61
1, 156117, Note_on_c, 0, 49, 97
1, 156121, Note_on_c, 0, 37, 89
1, 156123, Note_on_c, 0, 82, 71
1, 156159, Note_off_c, 0, 79, 59
1, 156164, Note_off_c, 0, 49, 62
1, 156171, Note_off_c, 0, 37, 59
1, 156174, Note_off_c, 0, 82, 63
1, 156206, Note_off_c, 0, 87, 64
1, 156246, Control_c, 0, 64, 107
1, 156261, Control_c, 0, 64, 68
1, 156264, Note_on_c, 0, 49, 105
1, 156270, Note_on_c, 0, 37, 99
1, 156270, Note_on_c, 0, 80, 86
1, 156276, Control_c, 0, 64, 0
1, 156279, Note_on_c, 0, 89, 75
1, 156280, Note_on_c, 0, 85, 75
1, 156282, Note_on_c, 0, 92, 78
1, 156291, Control_c, 0, 64, 67
1, 156294, Note_off_c, 0, 37, 64
1, 156305, Control_c, 0, 64, 104
1, 156313, Note_off_c, 0, 49, 64
1, 156320, Control_c, 0, 64, 127
1, 156352, Note_off_c, 0, 80, 60
1, 156353, Poly_aftertouch_c, 0, 39, 127
1, 156364, Note_off_c, 0, 85, 62
1, 156368, Note_off_c, 0, 92, 60
1, 156374, Note_off_c, 0, 89, 58
1, 156389, Poly_aftertouch_c, 0, 48, 0
1, 156393, Poly_aftertouch_c, 0, 39, 0
1, 156450, Note_on_c, 0, 80, 73
1, 156466, Note_on_c, 0, 92, 53
1, 156467, Note_on_c, 0, 85, 59
1, 156469, Note_on_c, 0, 89, 51
1, 156507, Note_off_c, 0, 92, 60
1, 156515, Note_off_c, 0, 80, 58
1, 156521, Note_off_c, 0, 85, 52
1, 156540, Note_off_c, 0, 89, 59
1, 156605, Note_on_c, 0, 80, 83
1, 156606, Note_on_c, 0, 73, 108
1, 156613, Note_on_c, 0, 61, 93
1, 156617, Note_on_c, 0, 92, 65
1, 156627, Note_on_c, 0, 89, 52
1, 156627, Note_on_c, 0, 85, 70
1, 156648, Note_off_c, 0, 61, 51
1, 156655, Note_off_c, 0, 73, 60
1, 156664, Note_off_c, 0, 80, 60
1, 156684, Note_off_c, 0, 85, 56
1, 156687, Note_off_c, 0, 92, 62
1, 156699, Note_off_c, 0, 89, 60
1, 156744, Control_c, 0, 64, 94
1, 156753, Note_on_c, 0, 73, 108
1, 156759, Control_c, 0, 64, 23
1, 156760, Note_on_c, 0, 80, 92
1, 156763, Note_on_c, 0, 61, 92
1, 156770, Note_on_c, 0, 89, 66
1, 156773, Control_c, 0, 64, 0
1, 156776, Note_on_c, 0, 92, 70
1, 156781, Note_on_c, 0, 85, 67
1, 156803, Control_c, 0, 64, 66
1, 156813, Note_off_c, 0, 85, 63
1, 156818, Note_off_c, 0, 92, 56
1, 156818, Control_c, 0, 64, 88
1, 156820, Note_off_c, 0, 80, 61
1, 156831, Note_off_c, 0, 89, 61
1, 156833, Control_c, 0, 64, 127
1, 156890, Note_on_c, 0, 80, 69
1, 156899, Note_on_c, 0, 89, 58
1, 156902, Note_on_c, 0, 92, 57
1, 156910, Note_on_c, 0, 85, 66
1, 156921, Note_off_c, 0, 80, 57
1, 156934, Note_off_c, 0, 92, 65
1, 156936, Note_off_c, 0, 85, 67
1, 156949, Note_off_c, 0, 89, 60
1, 156985, Note_off_c, 0, 73, 56
1, 157006, Note_on_c, 0, 80, 79
1, 157012, Note_on_c, 0, 85, 67
1, 157023, Note_on_c, 0, 89, 56
1, 157023, Note_on_c, 0, 92, 56
1, 157033, Note_off_c, 0, 80, 59
1, 157049, Note_off_c, 0, 92, 64
1, 157051, Note_off_c, 0, 85, 60
1, 157062, Note_off_c, 0, 89, 60
1, 157113, Note_on_c, 0, 80, 83
1, 157131, Note_on_c, 0, 85, 65
1, 157140, Note_on_c, 0, 92, 53
1, 157148, Note_off_c, 0, 80, 55
1, 157155, Note_on_c, 0, 89, 33
1, 157158, Note_off_c, 0, 85, 67
1, 157166, Note_off_c, 0, 92, 57
1, 157188, Note_off_c, 0, 89, 46
1, 157201, Note_off_c, 0, 61, 49
1, 157223, Note_on_c, 0, 80, 74
1, 157237, Note_on_c, 0, 85, 71
1, 157238, Note_on_c, 0, 92, 57
1, 157244, Note_on_c, 0, 89, 57
1, 157246, Note_off_c, 0, 80, 64
1, 157262, Note_off_c, 0, 85, 69
1, 157266, Note_off_c, 0, 92, 64
1, 157279, Note_off_c, 0, 89, 62
1, 157324, Note_on_c, 0, 80, 81
1, 157327, Note_on_c, 0, 68, 95
1, 157330, Note_on_c, 0, 56, 96
1, 157334, Note_on_c, 0, 85, 76
1, 157340, Note_on_c, 0, 89, 58
1, 157348, Note_off_c, 0, 68, 64
1, 157351, Note_off_c, 0, 56, 69
1, 157355, Note_off_c, 0, 80, 57
1, 157363, Note_off_c, 0, 85, 62
1, 157372, Note_off_c, 0, 89, 63
1, 157406, Poly_aftertouch_c, 0, 92, 127
1, 157414, Note_on_c, 0, 68, 98
1, 157417, Note_on_c, 0, 56, 99
1, 157419, Note_on_c, 0, 80, 82
1, 157419, Note_on_c, 0, 92, 33
1, 157441, Note_on_c, 0, 85, 73
1, 157447, Note_on_c, 0, 89, 70
1, 157468, Note_off_c, 0, 80, 58
1, 157472, Note_off_c, 0, 85, 63
1, 157475, Note_off_c, 0, 89, 61
1, 157486, Note_off_c, 0, 92, 63
1, 157534, Note_on_c, 0, 80, 73
1, 157535, Poly_aftertouch_c, 0, 92, 0
1, 157546, Note_on_c, 0, 92, 41
1, 157551, Note_on_c, 0, 85, 71
1, 157557, Note_on_c, 0, 89, 60
1, 157571, Note_off_c, 0, 80, 54
1, 157575, Note_off_c, 0, 85, 68
1, 157589, Note_off_c, 0, 89, 62
1, 157595, Note_off_c, 0, 92, 47
1, 157642, Note_on_c, 0, 80, 73
1, 157650, Note_off_c, 0, 68, 58
1, 157656, Note_on_c, 0, 92, 42
1, 157662, Note_on_c, 0, 85, 64
1, 157664, Note_on_c, 0, 89, 56
1, 157669, Note_off_c, 0, 80, 62
1, 157688, Note_off_c, 0, 85, 67
1, 157689, Note_off_c, 0, 92, 54
1, 157690, Note_off_c, 0, 89, 63
1, 157739, Note_on_c, 0, 80, 76
1, 157749, Note_on_c, 0, 85, 73
1, 157759, Note_on_c, 0, 92, 47
1, 157766, Note_off_c, 0, 80, 62
1, 157769, Note_on_c, 0, 89, 55
1, 157780, Note_off_c, 0, 85, 63
1, 157782, Note_off_c, 0, 92, 61
1, 157793, Note_off_c, 0, 89, 62
1, 157805, Note_off_c, 0, 56, 56
1, 157843, Note_on_c, 0, 80, 75
1, 157856, Note_on_c, 0, 85, 61
1, 157866, Note_off_c, 0, 80, 62
1, 157877, Note_on_c, 0, 92, 38
1, 157882, Note_off_c, 0, 85, 68
1, 157885, Note_on_c, 0, 89, 32
1, 157906, Note_off_c, 0, 92, 51
1, 157938, Note_on_c, 0, 49, 82
1, 157940, Note_on_c, 0, 61, 84
1, 157942, Note_on_c, 0, 80, 73
1, 157942, Note_off_c, 0, 89, 0
1, 157954, Note_on_c, 0, 85, 67
1, 157959, Note_on_c, 0, 89, 30
1, 157962, Note_off_c, 0, 61, 68
1, 157963, Note_off_c, 0, 49, 66
1, 157963, Note_off_c, 0, 80, 67
1, 157979, Note_off_c, 0, 85, 68
1, 157992, Note_off_c, 0, 89, 53
1, 158016, Poly_aftertouch_c, 0, 92, 0
1, 158019, Note_on_c, 0, 49, 78
1, 158022, Note_on_c, 0, 61, 84
1, 158033, Note_on_c, 0, 80, 80
1, 158046, Note_on_c, 0, 85, 72
1, 158052, Poly_aftertouch_c, 0, 92, 127
1, 158061, Note_on_c, 0, 89, 57
1, 158068, Note_off_c, 0, 80, 55
1, 158071, Note_off_c, 0, 61, 63
1, 158077, Note_off_c, 0, 85, 61
1, 158094, Note_off_c, 0, 49, 62
1, 158095, Note_off_c, 0, 89, 60
1, 158136, Poly_aftertouch_c, 0, 92, 0
1, 158142, Note_on_c, 0, 80, 70
1, 158155, Note_on_c, 0, 92, 25
1, 158161, Note_on_c, 0, 85, 58
1, 158168, Note_off_c, 0, 80, 63
1, 158183, Note_on_c, 0, 89, 39
1, 158189, Note_off_c, 0, 85, 65
1, 158206, Note_off_c, 0, 92, 49
1, 158214, Note_off_c, 0, 89, 50
1, 158243, Note_on_c, 0, 56, 87
1, 158247, Note_on_c, 0, 44, 79
1, 158249, Note_on_c, 0, 80, 73
1, 158258, Note_on_c, 0, 85, 69
1, 158262, Note_off_c, 0, 56, 70
1, 158270, Note_off_c, 0, 80, 69
1, 158274, Note_on_c, 0, 89, 48
1, 158274, Note_on_c, 0, 92, 28
1, 158274, Note_off_c, 0, 44, 66
1, 158281, Note_off_c, 0, 85, 70
1, 158298, Note_off_c, 0, 89, 57
1, 158325, Note_on_c, 0, 56, 83
1, 158325, Note_off_c, 0, 92, 0
1, 158326, Note_on_c, 0, 44, 87
1, 158331, Note_on_c, 0, 80, 87
1, 158340, Note_on_c, 0, 92, 51
1, 158349, Note_on_c, 0, 85, 78
1, 158356, Note_on_c, 0, 89, 56
1, 158373, Note_off_c, 0, 56, 63
1, 158381, Note_off_c, 0, 80, 58
1, 158383, Note_off_c, 0, 85, 60
1, 158390, Note_off_c, 0, 92, 58
1, 158394, Note_off_c, 0, 89, 58
1, 158399, Note_off_c, 0, 44, 61
1, 158437, Note_on_c, 0, 80, 68
1, 158457, Note_on_c, 0, 85, 64
1, 158461, Note_on_c, 0, 92, 38
1, 158465, Note_on_c, 0, 89, 57
1, 158484, Note_off_c, 0, 80, 62
1, 158484, Note_off_c, 0, 85, 67
1, 158501, Note_off_c, 0, 89, 61
1, 158504, Note_off_c, 0, 92, 48
1, 158543, Note_on_c, 0, 49, 90
1, 158544, Note_on_c, 0, 80, 74
1, 158547, Note_on_c, 0, 37, 83
1, 158561, Note_on_c, 0, 89, 60
1, 158566, Note_off_c, 0, 49, 67
1, 158567, Control_c, 0, 64, 119
1, 158568, Note_on_c, 0, 85, 64
1, 158570, Note_on_c, 0, 92, 32
1, 158574, Note_off_c, 0, 80, 61
1, 158575, Note_off_c, 0, 37, 65
1, 158582, Control_c, 0, 64, 83
1, 158592, Note_off_c, 0, 85, 66
1, 158595, Note_off_c, 0, 89, 61
1, 158597, Control_c, 0, 64, 60
1, 158599, Note_off_c, 0, 92, 56
1, 158612, Control_c, 0, 64, 55
1, 158626, Control_c, 0, 64, 67
1, 158628, Note_on_c, 0, 49, 99
1, 158632, Note_on_c, 0, 37, 90
1, 158639, Note_on_c, 0, 80, 83
1, 158641, Control_c, 0, 64, 76
1, 158650, Note_on_c, 0, 85, 72
1, 158650, Note_on_c, 0, 89, 66
1, 158656, Control_c, 0, 64, 92
1, 158671, Control_c, 0, 64, 127
1, 158679, Note_on_c, 0, 92, 34
1, 158691, Note_off_c, 0, 80, 63
1, 158697, Note_off_c, 0, 85, 59
1, 158711, Note_off_c, 0, 92, 51
1, 158717, Note_off_c, 0, 89, 55
1, 158741, Note_on_c, 0, 80, 72
1, 158742, Note_off_c, 0, 49, 62
1, 158743, Note_off_c, 0, 37, 61
1, 158753, Note_on_c, 0, 89, 45
1, 158757, Note_on_c, 0, 85, 64
1, 158778, Note_on_c, 0, 92, 36
1, 158787, Note_off_c, 0, 80, 62
1, 158789, Note_off_c, 0, 85, 63
1, 158799, Note_off_c, 0, 89, 59
1, 158809, Note_off_c, 0, 92, 53
1, 158854, Note_on_c, 0, 80, 70
1, 158860, Note_on_c, 0, 50, 93
1, 158869, Note_on_c, 0, 38, 76
1, 158869, Note_on_c, 0, 85, 63
1, 158870, Note_on_c, 0, 89, 55
1, 158880, Note_off_c, 0, 80, 65
1, 158883, Note_off_c, 0, 50, 72
1, 158894, Note_off_c, 0, 85, 69
1, 158894, Control_c, 0, 64, 83
1, 158896, Note_off_c, 0, 38, 64
1, 158902, Note_off_c, 0, 89, 63
1, 158908, Control_c, 0, 64, 47
1, 158931, Control_c, 0, 64, 0
1, 158947, Note_on_c, 0, 50, 95
1, 158947, Poly_aftertouch_c, 0, 42, 0
1, 158952, Note_on_c, 0, 80, 92
1, 158954, Note_on_c, 0, 38, 89
1, 158961, Note_on_c, 0, 92, 64
1, 158961, Control_c, 0, 64, 66
1, 158965, Note_on_c, 0, 89, 74
1, 158971, Note_on_c, 0, 85, 77
1, 158976, Control_c, 0, 64, 89
1, 158990, Control_c, 0, 64, 127
1, 158996, Poly_aftertouch_c, 0, 39, 0
1, 159009, Note_off_c, 0, 85, 59
1, 159015, Note_off_c, 0, 80, 58
1, 159026, Note_off_c, 0, 89, 58
1, 159030, Note_off_c, 0, 92, 56
1, 159033, Poly_aftertouch_c, 0, 42, 0
1, 159039, Note_off_c, 0, 38, 61
1, 159043, Note_off_c, 0, 50, 63
1, 159054, Poly_aftertouch_c, 0, 39, 0
1, 159060, Note_on_c, 0, 80, 66
1, 159068, Poly_aftertouch_c, 0, 92, 0
1, 159073, Note_on_c, 0, 89, 57
1, 159081, Note_on_c, 0, 85, 64
1, 159090, Note_on_c, 0, 92, 21
1, 159109, Note_off_c, 0, 85, 66
1, 159114, Note_off_c, 0, 80, 62
1, 159131, Note_off_c, 0, 89, 59
1, 159167, Note_off_c, 0, 92, 0
1, 159170, Note_on_c, 0, 80, 69
1, 159173, Poly_aftertouch_c, 0, 89, 0
1, 159181, Note_on_c, 0, 89, 56
1, 159182, Note_on_c, 0, 49, 97
1, 159184, Note_on_c, 0, 92, 37
1, 159187, Note_on_c, 0, 37, 86
1, 159196, Note_on_c, 0, 85, 66
1, 159203, Note_off_c, 0, 80, 59
1, 159206, Note_off_c, 0, 49, 68
1, 159212, Note_off_c, 0, 37, 67
1, 159222, Note_off_c, 0, 85, 67
1, 159227, Note_off_c, 0, 89, 61
1, 159227, Control_c, 0, 64, 100
1, 159235, Note_off_c, 0, 92, 46
1, 159242, Control_c, 0, 64, 72
1, 159257, Control_c, 0, 64, 0
1, 159265, Note_on_c, 0, 80, 82
1, 159266, Poly_aftertouch_c, 0, 89, 0
1, 159267, Note_on_c, 0, 49, 98
1, 159271, Note_on_c, 0, 37, 93
1, 159271, Control_c, 0, 64, 61
1, 159272, Note_on_c, 0, 92, 67
1, 159273, Note_on_c, 0, 89, 66
1, 159280, Note_on_c, 0, 85, 76
1, 159286, Control_c, 0, 64, 73
1, 159301, Control_c, 0, 64, 93
1, 159316, Control_c, 0, 64, 127
1, 159319, Note_off_c, 0, 80, 60
1, 159321, Note_off_c, 0, 85, 59
1, 159326, Note_off_c, 0, 89, 60
1, 159328, Note_off_c, 0, 49, 63
1, 159332, Note_off_c, 0, 37, 61
1, 159332, Note_off_c, 0, 92, 62
1, 159368, Note_on_c, 0, 80, 70
1, 159370, Poly_aftertouch_c, 0, 92, 0
1, 159381, Note_on_c, 0, 92, 45
1, 159385, Note_on_c, 0, 85, 71
1, 159385, Note_on_c, 0, 89, 64
1, 159390, Poly_aftertouch_c, 0, 39, 0
1, 159420, Note_off_c, 0, 80, 62
1, 159433, Note_off_c, 0, 85, 62
1, 159434, Note_off_c, 0, 92, 58
1, 159441, Note_off_c, 0, 89, 60
1, 159493, Note_on_c, 0, 80, 75
1, 159507, Note_on_c, 0, 51, 98
1, 159508, Note_on_c, 0, 85, 63
1, 159509, Note_on_c, 0, 39, 89
1, 159509, Note_on_c, 0, 92, 57
1, 159513, Note_on_c, 0, 89, 47
1, 159529, Note_off_c, 0, 51, 67
1, 159537, Note_off_c, 0, 39, 64
1, 159544, Note_off_c, 0, 80, 63
1, 159548, Note_off_c, 0, 89, 63
1, 159548, Note_off_c, 0, 92, 64
1, 159567, Note_off_c, 0, 85, 61
1, 159568, Control_c, 0, 64, 81
1, 159582, Control_c, 0, 64, 0
1, 159611, Note_on_c, 0, 85, 79
1, 159612, Note_on_c, 0, 51, 108
1, 159612, Note_on_c, 0, 81, 96
1, 159615, Note_on_c, 0, 39, 99
1, 159617, Note_on_c, 0, 88, 79
1, 159623, Note_on_c, 0, 93, 82
1, 159628, Control_c, 0, 64, 75
1, 159643, Control_c, 0, 64, 127
1, 159648, Note_on_c, 0, 90, 40
1, 159655, Note_off_c, 0, 51, 65
1, 159659, Note_off_c, 0, 39, 57
1, 159663, Note_off_c, 0, 81, 62
1, 159680, Note_off_c, 0, 93, 63
1, 159683, Note_off_c, 0, 90, 56
1, 159683, Note_off_c, 0, 85, 63
1, 159694, Note_off_c, 0, 88, 64
1, 159754, Note_on_c, 0, 81, 83
1, 159756, Note_on_c, 0, 85, 75
1, 159756, Note_on_c, 0, 88, 69
1, 159769, Note_on_c, 0, 93, 66
1, 159801, Note_off_c, 0, 81, 62
1, 159812, Note_off_c, 0, 85, 62
1, 159819, Note_off_c, 0, 93, 57
1, 159821, Note_off_c, 0, 88, 63
1, 159876, Note_on_c, 0, 81, 83
1, 159883, Note_on_c, 0, 88, 66
1, 159883, Note_on_c, 0, 85, 72
1, 159903, Note_on_c, 0, 93, 63
1, 159921, Note_on_c, 0, 49, 103
1, 159925, Note_on_c, 0, 37, 95
1, 159934, Note_off_c, 0, 81, 62
1, 159935, Note_off_c, 0, 93, 61
1, 159943, Note_off_c, 0, 49, 66
1, 159948, Note_off_c, 0, 85, 63
1, 159950, Note_off_c, 0, 37, 69
1, 159958, Note_off_c, 0, 88, 64
1, 160023, Note_on_c, 0, 49, 111
1, 160023, Note_on_c, 0, 81, 104
1, 160026, Note_on_c, 0, 37, 96
1, 160028, Note_on_c, 0, 88, 85
1, 160029, Note_on_c, 0, 85, 91
1, 160029, Note_on_c, 0, 93, 91
1, 160057, Note_off_c, 0, 49, 66
1, 160067, Note_off_c, 0, 37, 57
1, 160090, Note_off_c, 0, 93, 63
1, 160091, Note_off_c, 0, 81, 58
1, 160103, Note_off_c, 0, 85, 62
1, 160110, Note_off_c, 0, 88, 61
1, 160192, Note_on_c, 0, 81, 94
1, 160198, Note_on_c, 0, 85, 88
1, 160200, Note_on_c, 0, 88, 85
1, 160204, Note_on_c, 0, 93, 83
1, 160266, Note_off_c, 0, 93, 60
1, 160267, Note_off_c, 0, 81, 59
1, 160279, Note_off_c, 0, 85, 62
1, 160288, Note_off_c, 0, 88, 62
1, 160362, Note_on_c, 0, 81, 100
1, 160368, Note_on_c, 0, 88, 92
1, 160373, Note_on_c, 0, 93, 86
1, 160374, Note_on_c, 0, 85, 87
1, 160434, Note_off_c, 0, 85, 63
1, 160436, Note_off_c, 0, 81, 57
1, 160437, Note_off_c, 0, 88, 64
1, 160439, Note_off_c, 0, 93, 62
1, 160485, Note_on_c, 0, 42, 110
1, 160490, Note_on_c, 0, 30, 98
1, 160532, Note_off_c, 0, 42, 59
1, 160547, Note_off_c, 0, 30, 50
1, 160576, Poly_aftertouch_c, 0, 32, 127
1, 160623, Poly_aftertouch_c, 0, 32, 0
1, 160651, Control_c, 0, 64, 106
1, 160663, Note_on_c, 0, 42, 109
1, 160663, Note_on_c, 0, 82, 110
1, 160666, Note_on_c, 0, 85, 91
1, 160666, Control_c, 0, 64, 63
1, 160666, Note_on_c, 0, 30, 97
1, 160668, Note_on_c, 0, 90, 92
1, 160670, Note_on_c, 0, 94, 93
1, 160680, Control_c, 0, 64, 0
1, 160696, Note_off_c, 0, 30, 66
1, 160705, Note_on_c, 0, 92, 41
1, 160706, Note_off_c, 0, 42, 63
1, 160725, Control_c, 0, 64, 127
1, 160779, Note_off_c, 0, 94, 60
1, 160845, Note_off_c, 0, 92, 43
1, 160891, Note_off_c, 0, 82, 53
1, 160914, Note_on_c, 0, 70, 88
1, 160917, Note_on_c, 0, 58, 86
1, 160920, Note_off_c, 0, 90, 63
1, 160953, Note_off_c, 0, 70, 57
1, 160956, Note_off_c, 0, 58, 56
1, 160968, Note_off_c, 0, 85, 61
1, 161057, Note_on_c, 0, 78, 80
1, 161057, Note_on_c, 0, 90, 71
1, 161061, Note_on_c, 0, 54, 78
1, 161063, Note_on_c, 0, 66, 70
1, 161079, Note_off_c, 0, 78, 67
1, 161079, Note_off_c, 0, 90, 71
1, 161087, Note_off_c, 0, 66, 67
1, 161090, Note_off_c, 0, 54, 65
1, 161179, Note_on_c, 0, 75, 81
1, 161182, Note_on_c, 0, 51, 81
1, 161182, Note_on_c, 0, 63, 76
1, 161188, Note_on_c, 0, 87, 63
1, 161198, Note_off_c, 0, 75, 71
1, 161200, Note_on_c, 0, 85, 49
1, 161206, Note_off_c, 0, 63, 68
1, 161208, Note_off_c, 0, 87, 67
1, 161211, Note_off_c, 0, 51, 67
1, 161226, Note_off_c, 0, 85, 58
1, 161279, Note_on_c, 0, 73, 88
1, 161281, Note_on_c, 0, 61, 82
1, 161282, Note_on_c, 0, 49, 83
1, 161298, Note_off_c, 0, 73, 70
1, 161304, Note_off_c, 0, 61, 68
1, 161308, Note_off_c, 0, 49, 65
1, 161317, Note_on_c, 0, 85, 26
1, 161318, Note_off_c, 0, 85, 127
1, 161331, Note_on_c, 0, 51, 3
1, 161371, Note_on_c, 0, 58, 86
1, 161373, Note_on_c, 0, 70, 87
1, 161373, Note_off_c, 0, 51, 57
1, 161375, Note_on_c, 0, 46, 83
1, 161376, Note_on_c, 0, 49, 55
1, 161379, Note_off_c, 0, 49, 56
1, 161384, Note_on_c, 0, 82, 55
1, 161394, Note_off_c, 0, 70, 67
1, 161400, Note_off_c, 0, 58, 63
1, 161411, Note_off_c, 0, 82, 66
1, 161411, Note_off_c, 0, 46, 62
1, 161465, Note_on_c, 0, 56, 88
1, 161468, Note_on_c, 0, 49, 11
1, 161471, Note_on_c, 0, 44, 81
1, 161471, Note_on_c, 0, 68, 89
1, 161477, Note_on_c, 0, 78, 61
1, 161497, Note_on_c, 0, 46, 39
1, 161497, Note_off_c, 0, 56, 60
1, 161499, Note_off_c, 0, 68, 58
1, 161502, Note_off_c, 0, 44, 65
1, 161506, Note_off_c, 0, 49, 49
1, 161515, Note_off_c, 0, 78, 55
1, 161523, Note_off_c, 0, 46, 57
1, 161567, Note_on_c, 0, 42, 86
1, 161567, Note_on_c, 0, 54, 88
1, 161584, Note_on_c, 0, 66, 61
1, 161586, Note_on_c, 0, 75, 64
1, 161591, Note_off_c, 0, 42, 66
1, 161594, Note_off_c, 0, 54, 67
1, 161596, Note_on_c, 0, 44, 23
1, 161606, Note_off_c, 0, 66, 62
1, 161618, Note_off_c, 0, 44, 64
1, 161620, Note_off_c, 0, 75, 55
1, 161662, Note_on_c, 0, 51, 90
1, 161666, Note_on_c, 0, 39, 81
1, 161675, Note_on_c, 0, 63, 80
1, 161690, Note_on_c, 0, 75, 53
1, 161692, Note_off_c, 0, 39, 67
1, 161702, Note_off_c, 0, 51, 60
1, 161702, Note_off_c, 0, 63, 61
1, 161710, Note_off_c, 0, 75, 63
1, 161747, Poly_aftertouch_c, 0, 73, 127
1, 161760, Note_on_c, 0, 49, 90
1, 161763, Note_on_c, 0, 37, 82
1, 161766, Note_on_c, 0, 73, 33
1, 161768, Note_on_c, 0, 61, 89
1, 161796, Note_on_c, 0, 70, 36
1, 161797, Note_off_c, 0, 61, 64
1, 161803, Note_off_c, 0, 73, 62
1, 161806, Note_on_c, 0, 39, 24
1, 161812, Note_off_c, 0, 49, 64
1, 161820, Note_off_c, 0, 70, 58
1, 161827, Note_off_c, 0, 37, 59
1, 161829, Note_off_c, 0, 39, 59
1, 161859, Note_on_c, 0, 46, 80
1, 161867, Note_on_c, 0, 58, 96
1, 161873, Note_on_c, 0, 68, 79
1, 161902, Note_off_c, 0, 68, 60
1, 161906, Note_off_c, 0, 58, 62
1, 161930, Note_off_c, 0, 46, 60
1, 161967, Note_on_c, 0, 42, 77
1, 161998, Note_on_c, 0, 54, 73
1, 162002, Note_on_c, 0, 63, 54
1, 162005, Note_off_c, 0, 42, 64
1, 162020, Note_on_c, 0, 65, 67
1, 162023, Note_on_c, 0, 64, 58
1, 162023, Note_off_c, 0, 54, 69
1, 162038, Note_on_c, 0, 53, 30
1, 162040, Note_off_c, 0, 63, 64
1, 162047, Note_off_c, 0, 65, 68
1, 162055, Note_off_c, 0, 64, 66
1, 162079, Note_off_c, 0, 53, 52
1, 162237, Control_c, 0, 64, 76
1, 162252, Note_on_c, 0, 40, 99
1, 162252, Control_c, 0, 64, 0
1, 162253, Note_on_c, 0, 83, 100
1, 162255, Note_on_c, 0, 88, 95
1, 162258, Note_on_c, 0, 28, 93
1, 162259, Note_on_c, 0, 92, 98
1, 162259, Note_on_c, 0, 95, 99
1, 162285, Note_off_c, 0, 28, 67
1, 162288, Note_on_c, 0, 94, 55
1, 162293, Note_off_c, 0, 40, 68
1, 162298, Note_on_c, 0, 34, 28
1, 162299, Note_off_c, 0, 34, 127
1, 162309, Note_off_c, 0, 94, 61
1, 162312, Control_c, 0, 64, 71
1, 162326, Control_c, 0, 64, 127
1, 162477, Note_off_c, 0, 95, 49
1, 162491, Note_on_c, 0, 71, 97
1, 162497, Note_on_c, 0, 59, 95
1, 162518, Note_off_c, 0, 83, 61
1, 162527, Note_off_c, 0, 71, 66
1, 162537, Note_off_c, 0, 59, 58
1, 162548, Note_off_c, 0, 92, 65
1, 162549, Note_off_c, 0, 88, 60
1, 162640, Note_on_c, 0, 56, 88
1, 162641, Note_on_c, 0, 68, 89
1, 162642, Note_on_c, 0, 92, 94
1, 162645, Note_on_c, 0, 80, 100
1, 162663, Note_off_c, 0, 68, 64
1, 162666, Note_off_c, 0, 56, 63
1, 162685, Note_off_c, 0, 80, 59
1, 162691, Note_off_c, 0, 92, 66
1, 162777, Note_on_c, 0, 54, 85
1, 162780, Note_on_c, 0, 90, 98
1, 162783, Note_on_c, 0, 66, 83
1, 162783, Note_on_c, 0, 78, 98
1, 162803, Note_off_c, 0, 54, 69
1, 162804, Note_off_c, 0, 66, 71
1, 162813, Note_off_c, 0, 78, 60
1, 162820, Note_off_c, 0, 90, 65
1, 162899, Note_on_c, 0, 52, 83
1, 162899, Note_on_c, 0, 64, 86
1, 162900, Note_on_c, 0, 88, 89
1, 162901, Note_on_c, 0, 76, 99
1, 162919, Note_off_c, 0, 76, 69
1, 162920, Note_off_c, 0, 64, 72
1, 162923, Note_off_c, 0, 52, 66
1, 162924, Note_off_c, 0, 88, 64
1, 162950, Note_on_c, 0, 86, 11
1, 162951, Note_off_c, 0, 86, 127
1, 162995, Poly_aftertouch_c, 0, 86, 0
1, 163010, Note_on_c, 0, 49, 84
1, 163010, Note_on_c, 0, 85, 86
1, 163015, Note_on_c, 0, 73, 93
1, 163018, Note_on_c, 0, 61, 72
1, 163035, Note_off_c, 0, 73, 69
1, 163037, Note_off_c, 0, 49, 66
1, 163044, Note_off_c, 0, 61, 66
1, 163045, Note_off_c, 0, 85, 58
1, 163109, Note_on_c, 0, 59, 90
1, 163114, Note_on_c, 0, 47, 78
1, 163116, Note_on_c, 0, 71, 89
1, 163117, Note_on_c, 0, 83, 83
1, 163132, Note_off_c, 0, 59, 70
1, 163135, Note_off_c, 0, 71, 69
1, 163135, Note_off_c, 0, 83, 72
1, 163140, Note_off_c, 0, 47, 68
1, 163215, Note_on_c, 0, 56, 88
1, 163216, Note_on_c, 0, 44, 80
1, 163221, Note_on_c, 0, 80, 79
1, 163224, Note_on_c, 0, 68, 87
1, 163235, Note_off_c, 0, 56, 70
1, 163240, Note_off_c, 0, 44, 66
1, 163244, Note_off_c, 0, 68, 71
1, 163245, Note_off_c, 0, 80, 62
1, 163317, Note_on_c, 0, 42, 84
1, 163317, Note_on_c, 0, 54, 81
1, 163319, Note_on_c, 0, 78, 86
1, 163323, Note_on_c, 0, 66, 87
1, 163341, Note_off_c, 0, 54, 70
1, 163345, Note_off_c, 0, 66, 67
1, 163346, Note_off_c, 0, 42, 65
1, 163358, Note_off_c, 0, 78, 61
1, 163413, Note_on_c, 0, 52, 85
1, 163418, Note_on_c, 0, 40, 80
1, 163428, Note_on_c, 0, 64, 90
1, 163431, Note_on_c, 0, 76, 81
1, 163446, Note_off_c, 0, 52, 66
1, 163449, Note_off_c, 0, 64, 70
1, 163451, Note_off_c, 0, 40, 65
1, 163451, Note_off_c, 0, 76, 70
1, 163519, Note_on_c, 0, 49, 91
1, 163524, Note_on_c, 0, 37, 81
1, 163531, Note_on_c, 0, 61, 89
1, 163537, Note_on_c, 0, 73, 80
1, 163542, Note_off_c, 0, 49, 70
1, 163552, Note_off_c, 0, 37, 66
1, 163558, Note_off_c, 0, 61, 63
1, 163559, Note_off_c, 0, 73, 70
1, 163602, Control_c, 0, 64, 94
1, 163617, Control_c, 0, 64, 66
1, 163624, Note_on_c, 0, 47, 85
1, 163624, Note_on_c, 0, 35, 81
1, 163629, Note_on_c, 0, 71, 83
1, 163632, Control_c, 0, 64, 0
1, 163646, Control_c, 0, 64, 57
1, 163647, Note_off_c, 0, 35, 69
1, 163647, Note_off_c, 0, 47, 69
1, 163656, Note_on_c, 0, 59, 45
1, 163661, Control_c, 0, 64, 71
1, 163676, Control_c, 0, 64, 94
1, 163689, Note_off_c, 0, 59, 54
1, 163691, Control_c, 0, 64, 127
1, 163730, Note_on_c, 0, 56, 96
1, 163734, Note_off_c, 0, 71, 61
1, 163736, Note_on_c, 0, 44, 73
1, 163736, Note_on_c, 0, 68, 77
1, 163749, Note_off_c, 0, 56, 71
1, 163764, Note_off_c, 0, 44, 64
1, 163810, Poly_aftertouch_c, 0, 46, 127
1, 163831, Note_on_c, 0, 66, 87
1, 163834, Note_on_c, 0, 54, 92
1, 163842, Poly_aftertouch_c, 0, 46, 0
1, 163843, Note_on_c, 0, 42, 76
1, 163843, Note_off_c, 0, 68, 57
1, 163869, Note_off_c, 0, 54, 57
1, 163871, Note_off_c, 0, 42, 63
1, 163898, Note_off_c, 0, 66, 65
1, 163924, Note_on_c, 0, 64, 88
1, 163932, Note_on_c, 0, 40, 83
1, 163932, Note_on_c, 0, 52, 83
1, 163969, Note_off_c, 0, 52, 59
1, 163975, Note_off_c, 0, 64, 67
1, 163982, Note_on_c, 0, 41, 18
1, 163987, Note_off_c, 0, 40, 58
1, 164023, Note_on_c, 0, 49, 84
1, 164026, Note_on_c, 0, 61, 87
1, 164026, Note_off_c, 0, 41, 49
1, 164067, Note_off_c, 0, 49, 63
1, 164071, Note_off_c, 0, 61, 64
1, 164076, Control_c, 0, 64, 120
1, 164090, Control_c, 0, 64, 72
1, 164105, Control_c, 0, 64, 0
1, 164121, Note_on_c, 0, 59, 101
1, 164124, Note_on_c, 0, 47, 95
1, 164187, Control_c, 0, 64, 74
1, 164202, Control_c, 0, 64, 127
1, 164270, Note_off_c, 0, 47, 64
1, 164297, Note_off_c, 0, 59, 57
1, 164528, Control_c, 0, 64, 74
1, 164543, Control_c, 0, 64, 0
1, 164560, Note_on_c, 0, 42, 108
1, 164563, Note_on_c, 0, 30, 95
1, 164563, Note_on_c, 0, 82, 108
1, 164565, Note_on_c, 0, 85, 82
1, 164566, Note_on_c, 0, 90, 91
1, 164568, Note_on_c, 0, 94, 93
1, 164586, Note_on_c, 0, 32, 50
1, 164587, Note_off_c, 0, 32, 127
1, 164587, Note_off_c, 0, 30, 70
1, 164588, Control_c, 0, 64, 127
1, 164590, Note_on_c, 0, 41, 52
1, 164591, Note_off_c, 0, 41, 127
1, 164593, Note_on_c, 0, 92, 51
1, 164596, Note_off_c, 0, 42, 66
1, 164598, Note_on_c, 0, 86, 61
1, 164631, Note_off_c, 0, 92, 45
1, 164643, Note_off_c, 0, 94, 66
1, 164670, Poly_aftertouch_c, 0, 83, 0
1, 164752, Note_on_c, 0, 70, 82
1, 164761, Note_on_c, 0, 58, 76
1, 164763, Note_off_c, 0, 82, 54
1, 164766, Note_off_c, 0, 86, 26
1, 164780, Note_off_c, 0, 85, 48
1, 164783, Note_off_c, 0, 90, 61
1, 164783, Note_off_c, 0, 70, 56
1, 164789, Note_off_c, 0, 58, 65
1, 164881, Note_on_c, 0, 90, 84
1, 164887, Note_on_c, 0, 78, 77
1, 164895, Note_on_c, 0, 54, 77
1, 164900, Note_on_c, 0, 66, 70
1, 164905, Note_off_c, 0, 90, 66
1, 164908, Note_off_c, 0, 78, 72
1, 164927, Note_off_c, 0, 54, 67
1, 164931, Note_off_c, 0, 66, 65
1, 164998, Note_on_c, 0, 87, 82
1, 165001, Note_on_c, 0, 75, 83
1, 165007, Note_on_c, 0, 51, 83
1, 165008, Note_on_c, 0, 63, 75
1, 165022, Note_off_c, 0, 75, 68
1, 165025, Note_off_c, 0, 87, 63
1, 165031, Note_off_c, 0, 51, 67
1, 165032, Note_off_c, 0, 63, 68
1, 165104, Note_on_c, 0, 49, 89
1, 165105, Note_on_c, 0, 61, 86
1, 165105, Note_on_c, 0, 73, 94
1, 165110, Note_on_c, 0, 85, 79
1, 165126, Note_on_c, 0, 51, 14
1, 165132, Note_off_c, 0, 61, 63
1, 165132, Note_off_c, 0, 85, 68
1, 165135, Note_off_c, 0, 73, 62
1, 165135, Note_off_c, 0, 49, 65
1, 165174, Note_off_c, 0, 51, 53
1, 165215, Note_on_c, 0, 46, 74
1, 165218, Note_on_c, 0, 58, 60
1, 165218, Note_on_c, 0, 82, 94
1, 165218, Note_on_c, 0, 70, 93
1, 165238, Note_off_c, 0, 58, 64
1, 165242, Note_off_c, 0, 70, 66
1, 165245, Note_on_c, 0, 47, 40
1, 165247, Note_off_c, 0, 46, 64
1, 165259, Note_off_c, 0, 82, 63
1, 165282, Note_off_c, 0, 47, 53
1, 165395, Control_c, 0, 64, 70
1, 165410, Control_c, 0, 64, 0
1, 165416, Poly_aftertouch_c, 0, 44, 0
1, 165432, Note_on_c, 0, 49, 104
1, 165433, Note_on_c, 0, 44, 71
1, 165434, Note_on_c, 0, 80, 106
1, 165437, Note_on_c, 0, 37, 89
1, 165440, Note_on_c, 0, 92, 97
1, 165441, Note_on_c, 0, 85, 87
1, 165441, Note_on_c, 0, 90, 92
1, 165454, Control_c, 0, 64, 30
1, 165463, Note_off_c, 0, 37, 68
1, 165469, Control_c, 0, 64, 127
1, 165471, Note_off_c, 0, 44, 65
1, 165476, Note_off_c, 0, 49, 68
1, 165481, Note_on_c, 0, 39, 16
1, 165482, Note_off_c, 0, 39, 127
1, 165490, Note_on_c, 0, 48, 23
1, 165520, Note_off_c, 0, 92, 67
1, 165534, Poly_aftertouch_c, 0, 39, 0
1, 165552, Note_off_c, 0, 48, 34
1, 165566, Note_off_c, 0, 80, 49
1, 165591, Note_off_c, 0, 90, 63
1, 165620, Note_on_c, 0, 68, 93
1, 165629, Note_on_c, 0, 56, 83
1, 165652, Note_off_c, 0, 85, 55
1, 165653, Note_off_c, 0, 68, 49
1, 165657, Note_off_c, 0, 56, 64
1, 165767, Note_on_c, 0, 90, 80
1, 165770, Note_on_c, 0, 78, 79
1, 165773, Note_on_c, 0, 54, 76
1, 165785, Note_on_c, 0, 66, 56
1, 165793, Note_off_c, 0, 78, 69
1, 165794, Note_off_c, 0, 90, 64
1, 165800, Note_off_c, 0, 54, 66
1, 165806, Note_off_c, 0, 66, 62
1, 165881, Note_on_c, 0, 87, 79
1, 165883, Note_on_c, 0, 75, 77
1, 165884, Note_on_c, 0, 51, 78
1, 165885, Note_on_c, 0, 63, 73
1, 165904, Note_off_c, 0, 75, 70
1, 165907, Note_off_c, 0, 87, 65
1, 165910, Note_off_c, 0, 63, 67
1, 165912, Note_off_c, 0, 51, 66
1, 165915, Note_on_c, 0, 85, 17
1, 165955, Note_off_c, 0, 85, 48
1, 165983, Note_on_c, 0, 61, 77
1, 165984, Note_on_c, 0, 49, 80
1, 165984, Note_on_c, 0, 73, 90
1, 165990, Note_on_c, 0, 51, 56
1, 165995, Note_on_c, 0, 85, 54
1, 166002, Note_on_c, 0, 82, 48
1, 166006, Note_off_c, 0, 73, 68
1, 166007, Note_off_c, 0, 61, 67
1, 166009, Note_off_c, 0, 49, 64
1, 166017, Note_off_c, 0, 51, 35
1, 166024, Note_off_c, 0, 85, 66
1, 166028, Note_off_c, 0, 82, 60
1, 166079, Note_on_c, 0, 58, 79
1, 166083, Note_on_c, 0, 70, 85
1, 166085, Note_on_c, 0, 46, 77
1, 166103, Note_on_c, 0, 82, 63
1, 166107, Note_off_c, 0, 58, 62
1, 166107, Note_off_c, 0, 70, 63
1, 166113, Note_off_c, 0, 46, 64
1, 166129, Note_off_c, 0, 82, 65
1, 166156, Poly_aftertouch_c, 0, 80, 127
1, 166166, Poly_aftertouch_c, 0, 49, 0
1, 166174, Note_on_c, 0, 56, 87
1, 166178, Note_on_c, 0, 44, 82
1, 166181, Note_on_c, 0, 46, 64
1, 166184, Note_on_c, 0, 68, 89
1, 166187, Note_on_c, 0, 80, 30
1, 166188, Poly_aftertouch_c, 0, 49, 0
1, 166201, Note_on_c, 0, 78, 60
1, 166203, Note_off_c, 0, 46, 63
1, 166208, Note_off_c, 0, 56, 58
1, 166214, Note_off_c, 0, 68, 60
1, 166214, Note_off_c, 0, 44, 65
1, 166222, Note_off_c, 0, 78, 58
1, 166231, Note_off_c, 0, 80, 63
1, 166274, Note_on_c, 0, 54, 87
1, 166279, Note_on_c, 0, 42, 81
1, 166281, Note_on_c, 0, 66, 91
1, 166287, Note_on_c, 0, 78, 77
1, 166310, Note_off_c, 0, 42, 66
1, 166315, Note_off_c, 0, 54, 60
1, 166317, Note_off_c, 0, 66, 62
1, 166318, Note_off_c, 0, 78, 63
1, 166326, Note_on_c, 0, 75, 22
1, 166338, Note_on_c, 0, 44, 3
1, 166357, Note_off_c, 0, 44, 0
1, 166372, Note_off_c, 0, 75, 0
1, 166373, Note_on_c, 0, 51, 91
1, 166381, Note_on_c, 0, 39, 81
1, 166382, Poly_aftertouch_c, 0, 44, 0
1, 166383, Note_on_c, 0, 63, 96
1, 166391, Note_on_c, 0, 75, 57
1, 166419, Note_off_c, 0, 39, 64
1, 166422, Note_on_c, 0, 73, 45
1, 166426, Note_off_c, 0, 51, 63
1, 166429, Note_off_c, 0, 63, 62
1, 166438, Note_off_c, 0, 75, 61
1, 166452, Note_off_c, 0, 73, 55
1, 166488, Note_on_c, 0, 37, 90
1, 166488, Note_on_c, 0, 49, 97
1, 166495, Note_on_c, 0, 61, 93
1, 166514, Note_on_c, 0, 73, 74
1, 166527, Note_off_c, 0, 61, 65
1, 166539, Note_off_c, 0, 73, 68
1, 166600, Note_on_c, 0, 58, 98
1, 166609, Note_on_c, 0, 70, 67
1, 166628, Note_off_c, 0, 49, 63
1, 166634, Note_off_c, 0, 58, 64
1, 166634, Note_off_c, 0, 70, 66
1, 166637, Note_on_c, 0, 46, 43
1, 166643, Note_on_c, 0, 68, 27
1, 166660, Note_off_c, 0, 37, 59
1, 166660, Note_off_c, 0, 46, 59
1, 166673, Note_off_c, 0, 68, 55
1, 166694, Note_on_c, 0, 44, 45
1, 166697, Note_on_c, 0, 56, 92
1, 166705, Note_on_c, 0, 68, 80
1, 166716, Note_on_c, 0, 46, 59
1, 166718, Note_off_c, 0, 56, 69
1, 166724, Note_on_c, 0, 66, 36
1, 166746, Note_off_c, 0, 46, 61
1, 166750, Note_off_c, 0, 68, 66
1, 166756, Note_off_c, 0, 66, 53
1, 166759, Note_off_c, 0, 44, 62
1, 166863, Control_c, 0, 64, 84
1, 166878, Control_c, 0, 64, 0
1, 166912, Note_on_c, 0, 80, 103
1, 166914, Note_on_c, 0, 49, 97
1, 166914, Note_on_c, 0, 41, 81
1, 166918, Note_on_c, 0, 89, 92
1, 166919, Note_on_c, 0, 44, 82
1, 166920, Note_on_c, 0, 85, 87
1, 166922, Note_on_c, 0, 37, 75
1, 166923, Note_on_c, 0, 92, 88
1, 166938, Control_c, 0, 64, 127
1, 166945, Note_off_c, 0, 37, 68
1, 166946, Note_off_c, 0, 41, 68
1, 166950, Note_off_c, 0, 44, 64
1, 166953, Note_off_c, 0, 49, 66
1, 166960, Note_off_c, 0, 92, 67
1, 166969, Note_off_c, 0, 89, 62
1, 166971, Note_on_c, 0, 88, 39
1, 166972, Note_off_c, 0, 88, 127
1, 166974, Note_off_c, 0, 80, 58
1, 166984, Note_off_c, 0, 85, 64
1, 167088, Note_on_c, 0, 56, 74
1, 167104, Note_on_c, 0, 68, 49
1, 167109, Note_off_c, 0, 56, 65
1, 167132, Note_off_c, 0, 68, 55
1, 167203, Note_on_c, 0, 89, 62
1, 167209, Note_on_c, 0, 65, 70
1, 167213, Note_on_c, 0, 53, 62
1, 167214, Note_on_c, 0, 77, 49
1, 167221, Note_off_c, 0, 89, 62
1, 167233, Note_off_c, 0, 65, 68
1, 167239, Note_off_c, 0, 77, 58
1, 167240, Note_off_c, 0, 53, 66
1, 167321, Note_on_c, 0, 51, 68
1, 167323, Note_on_c, 0, 87, 70
1, 167323, Note_on_c, 0, 75, 75
1, 167330, Note_on_c, 0, 63, 59
1, 167342, Note_off_c, 0, 87, 68
1, 167344, Note_off_c, 0, 75, 71
1, 167350, Note_off_c, 0, 51, 66
1, 167355, Note_off_c, 0, 63, 61
1, 167420, Note_on_c, 0, 49, 82
1, 167424, Note_on_c, 0, 61, 78
1, 167425, Note_on_c, 0, 73, 85
1, 167445, Note_on_c, 0, 85, 38
1, 167445, Note_off_c, 0, 73, 70
1, 167446, Note_off_c, 0, 61, 67
1, 167449, Note_off_c, 0, 49, 64
1, 167475, Note_off_c, 0, 85, 55
1, 167530, Note_on_c, 0, 58, 80
1, 167532, Note_on_c, 0, 70, 80
1, 167540, Note_on_c, 0, 46, 60
1, 167541, Note_on_c, 0, 82, 59
1, 167551, Note_off_c, 0, 58, 70
1, 167552, Note_off_c, 0, 70, 70
1, 167561, Note_off_c, 0, 82, 64
1, 167567, Note_off_c, 0, 46, 61
1, 167629, Note_on_c, 0, 44, 87
1, 167637, Note_on_c, 0, 56, 76
1, 167639, Note_on_c, 0, 68, 81
1, 167641, Note_on_c, 0, 80, 65
1, 167660, Note_off_c, 0, 44, 67
1, 167660, Note_off_c, 0, 56, 68
1, 167662, Note_off_c, 0, 68, 68
1, 167663, Note_off_c, 0, 80, 68
1, 167707, Poly_aftertouch_c, 0, 46, 127
1, 167733, Note_on_c, 0, 53, 86
1, 167739, Note_on_c, 0, 65, 89
1, 167740, Note_on_c, 0, 41, 78
1, 167749, Note_on_c, 0, 77, 65
1, 167749, Poly_aftertouch_c, 0, 46, 0
1, 167756, Note_off_c, 0, 53, 72
1, 167764, Note_off_c, 0, 41, 65
1, 167767, Note_off_c, 0, 77, 67
1, 167772, Note_off_c, 0, 65, 61
1, 167841, Note_on_c, 0, 39, 83
1, 167842, Note_on_c, 0, 51, 76
1, 167852, Note_on_c, 0, 63, 84
1, 167853, Note_on_c, 0, 75, 68
1, 167865, Note_off_c, 0, 51, 66
1, 167868, Note_off_c, 0, 39, 65
1, 167883, Note_off_c, 0, 75, 63
1, 167892, Note_off_c, 0, 63, 61
1, 167945, Note_on_c, 0, 49, 93
1, 167952, Note_on_c, 0, 37, 83
1, 167961, Note_on_c, 0, 61, 88
1, 167967, Note_on_c, 0, 73, 65
1, 167973, Note_on_c, 0, 39, 47
1, 167985, Note_off_c, 0, 37, 64
1, 167988, Note_off_c, 0, 49, 61
1, 167991, Note_off_c, 0, 61, 60
1, 167992, Note_off_c, 0, 73, 67
1, 168010, Note_off_c, 0, 39, 50
1, 168052, Note_on_c, 0, 46, 93
1, 168057, Note_on_c, 0, 34, 89
1, 168065, Note_on_c, 0, 58, 89
1, 168087, Note_on_c, 0, 70, 50
1, 168089, Note_off_c, 0, 34, 64
1, 168092, Note_off_c, 0, 46, 60
1, 168097, Note_off_c, 0, 58, 61
1, 168110, Note_off_c, 0, 70, 62
1, 168163, Note_on_c, 0, 56, 83
1, 168166, Note_on_c, 0, 34, 93
1, 168166, Note_on_c, 0, 46, 95
1, 168167, Note_on_c, 0, 68, 78
1, 168172, Note_on_c, 0, 44, 86
1, 168182, Note_off_c, 0, 56, 71
1, 168193, Note_off_c, 0, 68, 62
1, 168199, Note_off_c, 0, 44, 57
1, 168220, Note_on_c, 0, 33, 24
1, 168225, Note_off_c, 0, 34, 60
1, 168234, Note_off_c, 0, 46, 64
1, 168266, Note_off_c, 0, 33, 49
1, 168270, Poly_aftertouch_c, 0, 69, 127
1, 168278, Poly_aftertouch_c, 0, 66, 0
1, 168294, Poly_aftertouch_c, 0, 69, 0
1, 168312, Poly_aftertouch_c, 0, 56, 0
1, 168346, Control_c, 0, 64, 111
1, 168361, Control_c, 0, 64, 74
1, 168376, Control_c, 0, 64, 0
1, 168420, Note_on_c, 0, 78, 90
1, 168421, Note_on_c, 0, 90, 85
1, 168424, Note_on_c, 0, 82, 79
1, 168427, Note_on_c, 0, 87, 83
1, 168429, Note_on_c, 0, 51, 73
1, 168432, Note_on_c, 0, 39, 65
1, 168451, Control_c, 0, 64, 59
1, 168455, Note_off_c, 0, 51, 66
1, 168459, Note_off_c, 0, 39, 57
1, 168466, Control_c, 0, 64, 103
1, 168481, Control_c, 0, 64, 127
1, 168532, Note_on_c, 0, 54, 87
1, 168537, Note_on_c, 0, 42, 72
1, 168553, Note_off_c, 0, 54, 70
1, 168560, Note_off_c, 0, 42, 61
1, 168601, Poly_aftertouch_c, 0, 44, 127
1, 168637, Note_on_c, 0, 58, 96
1, 168643, Poly_aftertouch_c, 0, 44, 0
1, 168650, Note_on_c, 0, 46, 69
1, 168676, Note_off_c, 0, 58, 58
1, 168682, Note_off_c, 0, 46, 59
1, 168750, Note_on_c, 0, 63, 100
1, 168755, Note_on_c, 0, 51, 86
1, 168767, Note_off_c, 0, 82, 62
1, 168774, Note_off_c, 0, 90, 64
1, 168778, Note_off_c, 0, 51, 71
1, 168780, Note_off_c, 0, 63, 62
1, 168782, Note_off_c, 0, 78, 59
1, 168847, Note_on_c, 0, 66, 96
1, 168849, Note_off_c, 0, 87, 53
1, 168851, Note_on_c, 0, 54, 90
1, 168879, Note_off_c, 0, 54, 57
1, 168879, Note_off_c, 0, 66, 64
1, 169007, Control_c, 0, 64, 90
1, 169022, Control_c, 0, 64, 0
1, 169053, Note_on_c, 0, 81, 89
1, 169055, Note_on_c, 0, 89, 97
1, 169055, Note_on_c, 0, 77, 100
1, 169057, Note_on_c, 0, 84, 84
1, 169060, Note_on_c, 0, 53, 102
1, 169065, Note_on_c, 0, 41, 91
1, 169082, Note_off_c, 0, 53, 69
1, 169091, Note_off_c, 0, 41, 67
1, 169096, Control_c, 0, 64, 127
1, 169161, Poly_aftertouch_c, 0, 87, 0
1, 169191, Note_on_c, 0, 57, 95
1, 169197, Note_on_c, 0, 45, 81
1, 169210, Note_off_c, 0, 57, 71
1, 169222, Note_off_c, 0, 45, 67
1, 169308, Note_on_c, 0, 60, 96
1, 169314, Note_on_c, 0, 48, 90
1, 169336, Note_off_c, 0, 48, 67
1, 169336, Note_off_c, 0, 60, 64
1, 169375, Note_off_c, 0, 89, 58
1, 169451, Note_on_c, 0, 65, 108
1, 169457, Note_on_c, 0, 53, 91
1, 169475, Note_off_c, 0, 53, 75
1, 169482, Poly_aftertouch_c, 0, 48, 0
1, 169484, Note_off_c, 0, 65, 68
1, 169495, Note_off_c, 0, 77, 53
1, 169557, Note_off_c, 0, 84, 56
1, 169588, Note_on_c, 0, 69, 107
1, 169594, Note_on_c, 0, 57, 90
1, 169600, Note_off_c, 0, 81, 50
1, 169612, Note_off_c, 0, 57, 72
1, 169616, Note_off_c, 0, 69, 67
1, 169854, Note_on_c, 0, 87, 89
1, 169856, Note_on_c, 0, 75, 89
1, 169874, Control_c, 0, 64, 98
1, 169879, Note_off_c, 0, 75, 64
1, 169889, Control_c, 0, 64, 48
1, 169895, Note_off_c, 0, 87, 62
1, 169904, Control_c, 0, 64, 0
1, 169940, Note_on_c, 0, 74, 104
1, 169941, Note_on_c, 0, 46, 110
1, 169942, Note_on_c, 0, 78, 72
1, 169945, Note_on_c, 0, 86, 94
1, 169947, Note_on_c, 0, 34, 95
1, 169949, Note_on_c, 0, 77, 89
1, 169952, Note_on_c, 0, 82, 74
1, 169962, Control_c, 0, 64, 127
1, 169964, Note_off_c, 0, 74, 65
1, 169967, Note_off_c, 0, 46, 60
1, 169969, Note_off_c, 0, 34, 70
1, 169971, Note_off_c, 0, 86, 65
1, 169976, Note_off_c, 0, 77, 59
1, 169977, Note_on_c, 0, 83, 41
1, 169989, Note_off_c, 0, 82, 44
1, 169997, Note_off_c, 0, 78, 0
1, 169997, Note_on_c, 0, 78, 13
1, 170000, Note_off_c, 0, 83, 61
1, 170034, Note_off_c, 0, 78, 29
1, 170308, Note_on_c, 0, 58, 56
1, 170310, Note_on_c, 0, 65, 52
1, 170310, Note_on_c, 0, 62, 52
1, 170325, Note_on_c, 0, 53, 48
1, 170361, Note_off_c, 0, 62, 56
1, 170368, Note_off_c, 0, 53, 59
1, 170370, Note_off_c, 0, 65, 58
1, 170373, Note_off_c, 0, 58, 45
1, 170461, Note_on_c, 0, 58, 58
1, 170462, Note_on_c, 0, 62, 64
1, 170465, Note_on_c, 0, 65, 64
1, 170470, Note_on_c, 0, 53, 48
1, 170496, Note_off_c, 0, 53, 59
1, 170496, Note_off_c, 0, 58, 59
1, 170500, Note_off_c, 0, 65, 60
1, 170500, Note_off_c, 0, 62, 61
1, 170568, Note_on_c, 0, 77, 93
1, 170569, Note_on_c, 0, 89, 92
1, 170572, Note_on_c, 0, 82, 82
1, 170576, Note_on_c, 0, 86, 81
1, 170581, Note_on_c, 0, 53, 51
1, 170584, Note_on_c, 0, 62, 62
1, 170585, Note_on_c, 0, 65, 64
1, 170591, Note_on_c, 0, 58, 63
1, 170605, Note_off_c, 0, 77, 66
1, 170612, Note_off_c, 0, 53, 60
1, 170617, Note_off_c, 0, 65, 64
1, 170622, Note_off_c, 0, 58, 64
1, 170622, Note_off_c, 0, 89, 63
1, 170625, Note_off_c, 0, 62, 61
1, 170625, Note_off_c, 0, 82, 65
1, 170625, Note_off_c, 0, 86, 62
1, 170700, Note_on_c, 0, 65, 78
1, 170701, Note_on_c, 0, 58, 70
1, 170701, Note_on_c, 0, 62, 80
1, 170709, Note_on_c, 0, 53, 57
1, 170739, Note_off_c, 0, 65, 61
1, 170739, Note_off_c, 0, 53, 66
1, 170740, Note_off_c, 0, 58, 59
1, 170740, Note_off_c, 0, 62, 59
1, 170810, Note_on_c, 0, 65, 91
1, 170812, Note_on_c, 0, 62, 83
1, 170813, Note_on_c, 0, 53, 78
1, 170815, Note_on_c, 0, 58, 81
1, 170850, Note_off_c, 0, 53, 65
1, 170856, Note_off_c, 0, 62, 63
1, 170856, Note_off_c, 0, 65, 60
1, 170863, Note_off_c, 0, 58, 60
1, 170921, Note_on_c, 0, 82, 109
1, 170926, Note_on_c, 0, 94, 96
1, 170928, Note_on_c, 0, 62, 84
1, 170928, Note_on_c, 0, 65, 88
1, 170928, Note_on_c, 0, 86, 88
1, 170930, Note_on_c, 0, 89, 86
1, 170930, Note_on_c, 0, 58, 77
1, 170936, Note_on_c, 0, 53, 73
1, 170952, Note_off_c, 0, 89, 65
1, 170956, Note_off_c, 0, 86, 62
1, 170960, Note_off_c, 0, 82, 67
1, 170961, Note_off_c, 0, 94, 68
1, 170962, Note_off_c, 0, 53, 67
1, 170974, Note_off_c, 0, 58, 64
1, 170976, Note_off_c, 0, 62, 62
1, 170976, Note_off_c, 0, 65, 59
1, 171054, Note_on_c, 0, 62, 80
1, 171055, Note_on_c, 0, 65, 87
1, 171056, Note_on_c, 0, 53, 68
1, 171056, Note_on_c, 0, 58, 79
1, 171075, Note_off_c, 0, 65, 66
1, 171080, Note_off_c, 0, 53, 70
1, 171085, Note_off_c, 0, 58, 61
1, 171095, Note_off_c, 0, 62, 62
1, 171161, Note_on_c, 0, 65, 97
1, 171163, Note_on_c, 0, 62, 88
1, 171165, Note_on_c, 0, 58, 91
1, 171168, Note_on_c, 0, 53, 76
1, 171213, Note_off_c, 0, 53, 61
1, 171216, Note_off_c, 0, 62, 63
1, 171219, Note_off_c, 0, 58, 63
1, 171219, Note_off_c, 0, 65, 57
1, 171281, Note_on_c, 0, 89, 84
1, 171284, Note_on_c, 0, 86, 100
1, 171285, Note_on_c, 0, 98, 108
1, 171286, Note_on_c, 0, 94, 97
1, 171292, Note_on_c, 0, 65, 98
1, 171293, Note_on_c, 0, 62, 87
1, 171299, Note_on_c, 0, 58, 82
1, 171302, Note_on_c, 0, 53, 82
1, 171334, Note_off_c, 0, 65, 63
1, 171337, Note_off_c, 0, 53, 64
1, 171342, Note_off_c, 0, 62, 63
1, 171348, Note_off_c, 0, 58, 61
1, 171351, Note_off_c, 0, 86, 58
1, 171351, Note_off_c, 0, 89, 62
1, 171380, Note_off_c, 0, 94, 64
1, 171395, Note_off_c, 0, 98, 65
1, 171419, Note_on_c, 0, 65, 95
1, 171424, Note_on_c, 0, 62, 87
1, 171426, Note_on_c, 0, 53, 78
1, 171429, Note_on_c, 0, 58, 82
1, 171472, Note_off_c, 0, 65, 62
1, 171484, Note_off_c, 0, 53, 61
1, 171484, Note_off_c, 0, 58, 62
1, 171486, Note_off_c, 0, 62, 59
1, 171566, Note_on_c, 0, 65, 100
1, 171570, Note_on_c, 0, 62, 95
1, 171575, Note_on_c, 0, 58, 87
1, 171577, Note_on_c, 0, 53, 89
1, 171601, Note_off_c, 0, 65, 69
1, 171607, Note_off_c, 0, 62, 66
1, 171633, Note_off_c, 0, 53, 65
1, 171634, Note_off_c, 0, 58, 63
1, 171795, Control_c, 0, 64, 77
1, 171810, Control_c, 0, 64, 0
1, 171813, Note_on_c, 0, 91, 108
1, 171817, Note_on_c, 0, 94, 100
1, 171817, Note_on_c, 0, 103, 104
1, 171818, Note_on_c, 0, 99, 98
1, 171826, Note_on_c, 0, 41, 112
1, 171833, Note_on_c, 0, 29, 92
1, 171849, Note_off_c, 0, 103, 67
1, 171851, Note_off_c, 0, 91, 68
1, 171854, Control_c, 0, 64, 127
1, 171855, Note_off_c, 0, 29, 65
1, 171855, Note_off_c, 0, 41, 68
1, 171863, Note_off_c, 0, 99, 66
1, 171869, Note_off_c, 0, 94, 64
1, 172067, Poly_aftertouch_c, 0, 58, 127
1, 172095, Note_on_c, 0, 67, 83
1, 172098, Note_on_c, 0, 63, 76
1, 172112, Note_on_c, 0, 53, 55
1, 172145, Note_off_c, 0, 67, 60
1, 172147, Note_off_c, 0, 53, 53
1, 172153, Note_off_c, 0, 63, 61
1, 172161, Poly_aftertouch_c, 0, 58, 0
1, 172250, Note_on_c, 0, 67, 102
1, 172253, Note_on_c, 0, 63, 91
1, 172255, Note_on_c, 0, 58, 86
1, 172296, Note_off_c, 0, 67, 60
1, 172299, Note_on_c, 0, 65, 20
1, 172305, Note_off_c, 0, 63, 62
1, 172308, Note_off_c, 0, 58, 62
1, 172313, Poly_aftertouch_c, 0, 53, 127
1, 172340, Note_off_c, 0, 65, 47
1, 172355, Poly_aftertouch_c, 0, 53, 0
1, 172385, Note_on_c, 0, 67, 109
1, 172390, Note_on_c, 0, 63, 95
1, 172393, Note_on_c, 0, 58, 89
1, 172425, Note_off_c, 0, 67, 66
1, 172438, Note_off_c, 0, 58, 46
1, 172445, Note_off_c, 0, 63, 62
1, 172568, Note_on_c, 0, 63, 107
1, 172572, Note_on_c, 0, 75, 102
1, 172604, Note_off_c, 0, 63, 67
1, 172616, Note_off_c, 0, 75, 61
1, 172881, Note_on_c, 0, 67, 102
1, 172884, Note_on_c, 0, 79, 104
1, 172923, Note_off_c, 0, 67, 62
1, 172936, Note_off_c, 0, 79, 59
1, 173061, Note_on_c, 0, 69, 107
1, 173062, Note_on_c, 0, 81, 99
1, 173103, Note_off_c, 0, 69, 65
1, 173113, Note_off_c, 0, 81, 59
1, 173142, Note_on_c, 0, 41, 72
1, 173190, Control_c, 0, 64, 74
1, 173199, Note_off_c, 0, 41, 62
1, 173204, Note_on_c, 0, 51, 74
1, 173205, Control_c, 0, 64, 0
1, 173239, Note_on_c, 0, 74, 108
1, 173241, Note_on_c, 0, 57, 86
1, 173241, Note_on_c, 0, 86, 101
1, 173249, Control_c, 0, 64, 52
1, 173261, Note_on_c, 0, 85, 72
1, 173261, Note_off_c, 0, 57, 71
1, 173264, Control_c, 0, 64, 127
1, 173270, Note_off_c, 0, 51, 66
1, 173277, Note_off_c, 0, 85, 66
1, 173487, Note_off_c, 0, 86, 45
1, 173514, Note_off_c, 0, 74, 53
1, 173663, Note_on_c, 0, 84, 87
1, 173666, Note_on_c, 0, 72, 83
1, 173697, Note_off_c, 0, 72, 64
1, 173705, Note_off_c, 0, 84, 64
1, 173723, Control_c, 0, 64, 90
1, 173738, Control_c, 0, 64, 0
1, 173774, Note_on_c, 0, 82, 88
1, 173776, Note_on_c, 0, 70, 98
1, 173782, Note_on_c, 0, 46, 96
1, 173782, Control_c, 0, 64, 38
1, 173785, Note_on_c, 0, 34, 89
1, 173792, Note_off_c, 0, 82, 71
1, 173797, Control_c, 0, 64, 102
1, 173801, Note_off_c, 0, 46, 71
1, 173804, Note_off_c, 0, 70, 66
1, 173805, Note_on_c, 0, 44, 48
1, 173806, Note_off_c, 0, 44, 127
1, 173809, Note_off_c, 0, 34, 67
1, 173812, Control_c, 0, 64, 127
1, 173837, Poly_aftertouch_c, 0, 44, 0
1, 174006, Note_on_c, 0, 62, 55
1, 174039, Note_off_c, 0, 62, 63
1, 174063, Poly_aftertouch_c, 0, 58, 0
1, 174085, Note_on_c, 0, 58, 41
1, 174107, Note_on_c, 0, 62, 60
1, 174131, Note_off_c, 0, 58, 62
1, 174137, Note_off_c, 0, 62, 64
1, 174139, Poly_aftertouch_c, 0, 65, 127
1, 174196, Poly_aftertouch_c, 0, 65, 0
1, 174208, Note_on_c, 0, 62, 66
1, 174218, Note_on_c, 0, 65, 29
1, 174229, Note_on_c, 0, 50, 87
1, 174236, Note_on_c, 0, 38, 74
1, 174243, Note_off_c, 0, 62, 56
1, 174254, Note_off_c, 0, 65, 56
1, 174319, Note_on_c, 0, 62, 58
1, 174336, Note_on_c, 0, 65, 51
1, 174356, Note_off_c, 0, 62, 59
1, 174361, Note_off_c, 0, 65, 61
1, 174424, Note_on_c, 0, 62, 66
1, 174426, Note_off_c, 0, 38, 52
1, 174438, Note_on_c, 0, 65, 58
1, 174454, Note_off_c, 0, 50, 62
1, 174463, Note_off_c, 0, 62, 58
1, 174468, Note_off_c, 0, 65, 65
1, 174534, Note_on_c, 0, 62, 71
1, 174537, Note_on_c, 0, 65, 71
1, 174543, Note_on_c, 0, 53, 93
1, 174550, Note_on_c, 0, 41, 82
1, 174577, Note_off_c, 0, 65, 63
1, 174580, Note_off_c, 0, 62, 58
1, 174641, Note_on_c, 0, 62, 72
1, 174668, Note_off_c, 0, 41, 60
1, 174670, Note_on_c, 0, 65, 52
1, 174689, Note_off_c, 0, 65, 66
1, 174699, Note_off_c, 0, 53, 60
1, 174701, Note_off_c, 0, 62, 61
1, 174754, Note_on_c, 0, 62, 71
1, 174754, Note_on_c, 0, 65, 66
1, 174763, Note_on_c, 0, 53, 73
1, 174792, Note_off_c, 0, 65, 54
1, 174794, Note_off_c, 0, 53, 66
1, 174807, Note_off_c, 0, 62, 61
1, 174861, Note_on_c, 0, 53, 85
1, 174864, Note_on_c, 0, 58, 103
1, 174868, Note_on_c, 0, 62, 79
1, 174870, Note_on_c, 0, 46, 89
1, 174879, Note_on_c, 0, 65, 71
1, 174900, Note_off_c, 0, 46, 61
1, 174902, Note_off_c, 0, 58, 60
1, 174909, Note_off_c, 0, 65, 57
1, 174921, Note_off_c, 0, 53, 63
1, 174927, Note_off_c, 0, 62, 62
1, 174966, Note_on_c, 0, 53, 72
1, 174969, Note_on_c, 0, 62, 62
1, 174976, Poly_aftertouch_c, 0, 49, 0
1, 174985, Note_on_c, 0, 65, 54
1, 175011, Note_off_c, 0, 65, 61
1, 175016, Note_off_c, 0, 53, 65
1, 175019, Note_off_c, 0, 62, 61
1, 175053, Poly_aftertouch_c, 0, 53, 0
1, 175063, Note_on_c, 0, 53, 67
1, 175073, Note_on_c, 0, 62, 64
1, 175079, Note_on_c, 0, 65, 72
1, 175085, Note_off_c, 0, 53, 69
1, 175100, Note_off_c, 0, 62, 66
1, 175108, Note_off_c, 0, 65, 68
1, 175240, Note_on_c, 0, 30, 90
1, 175240, Note_on_c, 0, 42, 96
1, 175249, Control_c, 0, 64, 77
1, 175264, Control_c, 0, 64, 0
1, 175307, Note_on_c, 0, 76, 96
1, 175309, Note_on_c, 0, 73, 103
1, 175309, Control_c, 0, 64, 46
1, 175310, Note_on_c, 0, 85, 97
1, 175320, Note_off_c, 0, 30, 61
1, 175324, Control_c, 0, 64, 127
1, 175325, Note_off_c, 0, 42, 64
1, 175479, Note_on_c, 0, 54, 79
1, 175482, Note_on_c, 0, 42, 67
1, 175503, Note_off_c, 0, 54, 68
1, 175508, Note_off_c, 0, 42, 65
1, 175589, Note_on_c, 0, 46, 80
1, 175592, Note_on_c, 0, 58, 84
1, 175610, Note_off_c, 0, 58, 70
1, 175614, Note_off_c, 0, 46, 65
1, 175684, Note_on_c, 0, 61, 95
1, 175688, Note_on_c, 0, 49, 82
1, 175719, Note_off_c, 0, 49, 68
1, 175720, Note_off_c, 0, 61, 59
1, 175753, Note_off_c, 0, 85, 56
1, 175758, Note_off_c, 0, 73, 58
1, 175783, Note_on_c, 0, 64, 93
1, 175786, Note_on_c, 0, 52, 86
1, 175804, Note_off_c, 0, 64, 69
1, 175820, Note_off_c, 0, 52, 63
1, 175872, Note_off_c, 0, 76, 40
1, 175941, Control_c, 0, 64, 73
1, 175956, Control_c, 0, 64, 0
1, 176007, Note_on_c, 0, 76, 93
1, 176009, Note_on_c, 0, 72, 103
1, 176012, Note_on_c, 0, 84, 96
1, 176037, Note_on_c, 0, 31, 88
1, 176037, Note_on_c, 0, 43, 95
1, 176061, Note_off_c, 0, 43, 69
1, 176064, Note_off_c, 0, 31, 65
1, 176089, Control_c, 0, 64, 127
1, 176239, Note_on_c, 0, 43, 68
1, 176245, Note_on_c, 0, 55, 71
1, 176263, Note_off_c, 0, 43, 64
1, 176266, Note_off_c, 0, 55, 64
1, 176286, Note_off_c, 0, 84, 60
1, 176334, Note_off_c, 0, 72, 54
1, 176349, Note_on_c, 0, 58, 90
1, 176355, Note_on_c, 0, 46, 73
1, 176367, Note_off_c, 0, 58, 72
1, 176382, Note_off_c, 0, 46, 65
1, 176453, Note_on_c, 0, 61, 93
1, 176456, Note_on_c, 0, 49, 85
1, 176476, Note_off_c, 0, 61, 65
1, 176483, Note_off_c, 0, 49, 65
1, 176547, Note_on_c, 0, 64, 95
1, 176552, Note_on_c, 0, 52, 89
1, 176567, Note_off_c, 0, 64, 69
1, 176574, Note_off_c, 0, 52, 70
1, 176634, Note_off_c, 0, 76, 55
1, 176770, Note_on_c, 0, 82, 91
1, 176773, Note_on_c, 0, 70, 90
1, 176778, Control_c, 0, 64, 99
1, 176793, Control_c, 0, 64, 59
1, 176802, Note_off_c, 0, 70, 64
1, 176808, Control_c, 0, 64, 0
1, 176819, Note_off_c, 0, 82, 60
1, 176820, Note_on_c, 0, 78, 22
1, 176857, Note_off_c, 0, 78, 46
1, 176871, Note_on_c, 0, 68, 97
1, 176872, Note_on_c, 0, 32, 77
1, 176872, Note_on_c, 0, 80, 80
1, 176874, Note_on_c, 0, 44, 88
1, 176880, Note_on_c, 0, 77, 70
1, 176883, Control_c, 0, 64, 46
1, 176903, Note_off_c, 0, 32, 65
1, 176904, Note_off_c, 0, 44, 66
1, 176904, Control_c, 0, 64, 127
1, 176907, Note_off_c, 0, 80, 61
1, 176909, Note_off_c, 0, 68, 60
1, 176916, Note_off_c, 0, 77, 65
1, 177172, Note_on_c, 0, 65, 56
1, 177174, Note_on_c, 0, 61, 58
1, 177184, Note_on_c, 0, 56, 49
1, 177199, Note_on_c, 0, 53, 34
1, 177207, Note_off_c, 0, 61, 62
1, 177207, Note_off_c, 0, 65, 63
1, 177216, Note_off_c, 0, 56, 59
1, 177277, Note_off_c, 0, 53, 0
1, 177289, Note_on_c, 0, 65, 59
1, 177292, Note_on_c, 0, 61, 61
1, 177298, Note_on_c, 0, 53, 32
1, 177299, Note_on_c, 0, 56, 51
1, 177318, Note_off_c, 0, 65, 65
1, 177319, Note_off_c, 0, 61, 65
1, 177332, Note_off_c, 0, 56, 61
1, 177336, Note_off_c, 0, 53, 54
1, 177389, Note_on_c, 0, 61, 66
1, 177403, Note_on_c, 0, 85, 85
1, 177404, Note_on_c, 0, 73, 87
1, 177407, Note_on_c, 0, 65, 61
1, 177409, Note_on_c, 0, 80, 75
1, 177415, Note_on_c, 0, 77, 70
1, 177417, Note_on_c, 0, 56, 60
1, 177425, Note_on_c, 0, 53, 45
1, 177437, Note_off_c, 0, 65, 64
1, 177441, Note_off_c, 0, 77, 68
1, 177444, Note_off_c, 0, 73, 60
1, 177445, Note_off_c, 0, 61, 61
1, 177446, Note_off_c, 0, 56, 64
1, 177456, Note_off_c, 0, 80, 61
1, 177456, Note_off_c, 0, 85, 65
1, 177457, Note_off_c, 0, 53, 54
1, 177518, Note_on_c, 0, 56, 69
1, 177518, Note_on_c, 0, 61, 77
1, 177519, Note_on_c, 0, 65, 76
1, 177529, Note_on_c, 0, 53, 63
1, 177553, Note_off_c, 0, 65, 60
1, 177557, Note_off_c, 0, 53, 67
1, 177557, Note_off_c, 0, 61, 62
1, 177563, Note_off_c, 0, 56, 65
1, 177624, Note_on_c, 0, 61, 85
1, 177625, Note_on_c, 0, 53, 69
1, 177630, Note_on_c, 0, 65, 89
1, 177632, Note_on_c, 0, 56, 79
1, 177678, Note_off_c, 0, 61, 64
1, 177682, Note_off_c, 0, 53, 62
1, 177687, Note_off_c, 0, 65, 60
1, 177691, Note_off_c, 0, 56, 61
1, 177744, Note_on_c, 0, 77, 104
1, 177748, Note_on_c, 0, 61, 82
1, 177748, Note_on_c, 0, 65, 81
1, 177748, Note_on_c, 0, 89, 95
1, 177750, Note_on_c, 0, 56, 69
1, 177750, Note_on_c, 0, 85, 90
1, 177753, Note_on_c, 0, 80, 82
1, 177758, Note_on_c, 0, 53, 68
1, 177779, Note_off_c, 0, 80, 59
1, 177780, Note_off_c, 0, 77, 60
1, 177786, Note_off_c, 0, 89, 61
1, 177788, Note_off_c, 0, 53, 64
1, 177790, Note_off_c, 0, 85, 64
1, 177792, Note_off_c, 0, 61, 65
1, 177796, Note_off_c, 0, 65, 60
1, 177802, Note_off_c, 0, 56, 63
1, 177875, Note_on_c, 0, 61, 87
1, 177875, Note_on_c, 0, 65, 93
1, 177878, Note_on_c, 0, 53, 69
1, 177883, Note_on_c, 0, 56, 76
1, 177917, Note_off_c, 0, 53, 64
1, 177918, Note_off_c, 0, 61, 63
1, 177923, Note_off_c, 0, 65, 62
1, 177927, Note_off_c, 0, 56, 60
1, 177996, Note_on_c, 0, 65, 95
1, 177998, Note_on_c, 0, 61, 86
1, 178005, Note_on_c, 0, 53, 79
1, 178006, Note_on_c, 0, 56, 78
1, 178057, Note_off_c, 0, 65, 61
1, 178058, Note_off_c, 0, 53, 64
1, 178062, Note_off_c, 0, 61, 62
1, 178063, Note_off_c, 0, 56, 63
1, 178111, Note_on_c, 0, 80, 105
1, 178118, Note_on_c, 0, 89, 89
1, 178120, Note_on_c, 0, 92, 91
1, 178122, Note_on_c, 0, 85, 88
1, 178129, Note_on_c, 0, 65, 94
1, 178130, Note_on_c, 0, 61, 82
1, 178139, Note_on_c, 0, 56, 75
1, 178144, Note_on_c, 0, 53, 74
1, 178175, Note_off_c, 0, 53, 60
1, 178183, Note_off_c, 0, 65, 56
1, 178187, Note_off_c, 0, 61, 62
1, 178199, Note_off_c, 0, 56, 63
1, 178266, Note_on_c, 0, 65, 99
1, 178271, Note_on_c, 0, 61, 83
1, 178274, Note_on_c, 0, 53, 75
1, 178277, Note_on_c, 0, 56, 74
1, 178310, Note_off_c, 0, 85, 59
1, 178320, Note_off_c, 0, 80, 53
1, 178328, Note_off_c, 0, 65, 55
1, 178330, Note_off_c, 0, 89, 57
1, 178340, Note_off_c, 0, 92, 58
1, 178340, Note_off_c, 0, 53, 63
1, 178340, Note_off_c, 0, 61, 62
1, 178345, Note_off_c, 0, 56, 63
1, 178429, Note_on_c, 0, 65, 103
1, 178435, Note_on_c, 0, 61, 91
1, 178442, Note_on_c, 0, 56, 81
1, 178444, Note_on_c, 0, 53, 80
1, 178465, Note_off_c, 0, 65, 66
1, 178478, Note_off_c, 0, 61, 62
1, 178498, Note_off_c, 0, 53, 61
1, 178500, Note_off_c, 0, 56, 64
1, 178698, Control_c, 0, 64, 103
1, 178707, Note_on_c, 0, 81, 108
1, 178708, Note_on_c, 0, 85, 98
1, 178712, Note_on_c, 0, 90, 97
1, 178712, Note_on_c, 0, 93, 102
1, 178713, Control_c, 0, 64, 0
1, 178718, Note_on_c, 0, 44, 107
1, 178724, Note_on_c, 0, 32, 86
1, 178740, Note_off_c, 0, 44, 67
1, 178750, Note_off_c, 0, 32, 65
1, 178772, Control_c, 0, 64, 127
1, 179051, Note_off_c, 0, 93, 35
1, 179054, Note_on_c, 0, 69, 96
1, 179064, Note_on_c, 0, 66, 74
1, 179068, Note_on_c, 0, 61, 70
1, 179089, Note_on_c, 0, 57, 44
1, 179117, Note_off_c, 0, 81, 49
1, 179124, Note_off_c, 0, 57, 50
1, 179166, Note_off_c, 0, 90, 60
1, 179167, Note_off_c, 0, 69, 57
1, 179169, Note_off_c, 0, 61, 60
1, 179183, Note_off_c, 0, 66, 38
1, 179190, Note_off_c, 0, 85, 56
1, 179255, Note_on_c, 0, 69, 103
1, 179267, Note_on_c, 0, 66, 82
1, 179271, Note_on_c, 0, 61, 79
1, 179283, Note_on_c, 0, 57, 56
1, 179314, Note_off_c, 0, 57, 58
1, 179332, Note_off_c, 0, 69, 58
1, 179335, Note_off_c, 0, 66, 60
1, 179339, Note_off_c, 0, 61, 61
1, 179409, Note_on_c, 0, 69, 104
1, 179415, Note_on_c, 0, 61, 86
1, 179415, Note_on_c, 0, 66, 90
1, 179430, Note_on_c, 0, 57, 41
1, 179452, Note_off_c, 0, 66, 62
1, 179452, Note_off_c, 0, 61, 61
1, 179464, Note_off_c, 0, 57, 53
1, 179465, Note_off_c, 0, 69, 66
1, 179838, Note_on_c, 0, 54, 106
1, 179847, Control_c, 0, 64, 98
1, 179862, Control_c, 0, 64, 71
1, 179877, Control_c, 0, 64, 0
1, 180135, Control_c, 0, 64, 94
1, 180150, Control_c, 0, 64, 127
1, 180302, Note_off_c, 0, 54, 64
1, 180341, Note_on_c, 0, 57, 102
1, 180358, Control_c, 0, 64, 80
1, 180373, Control_c, 0, 64, 0
1, 180418, Control_c, 0, 64, 67
1, 180433, Control_c, 0, 64, 86
1, 180448, Control_c, 0, 64, 127
1, 180495, Note_off_c, 0, 57, 60
1, 180545, Note_on_c, 0, 60, 90
1, 180607, Note_on_c, 0, 32, 67
1, 180634, Note_off_c, 0, 60, 63
1, 180670, Note_off_c, 0, 32, 60
1, 180673, Note_on_c, 0, 54, 77
1, 180675, Note_on_c, 0, 57, 65
1, 180698, Note_off_c, 0, 54, 69
1, 180698, Note_off_c, 0, 57, 70
1, 180754, Note_on_c, 0, 65, 106
1, 180758, Note_on_c, 0, 48, 81
1, 180773, Note_off_c, 0, 65, 70
1, 180792, Note_on_c, 0, 64, 30
1, 180793, Note_off_c, 0, 64, 127
1, 180829, Poly_aftertouch_c, 0, 64, 0
1, 181521, Note_on_c, 0, 63, 85
1, 181530, Note_off_c, 0, 48, 62
1, 181578, Note_off_c, 0, 63, 59
1, 181607, Note_on_c, 0, 61, 94
1, 181612, Note_on_c, 0, 56, 85
1, 181615, Note_on_c, 0, 44, 85
1, 181615, Note_on_c, 0, 49, 95
1, 181616, Note_on_c, 0, 53, 80
1, 181619, Control_c, 0, 64, 95
1, 181625, Note_on_c, 0, 37, 74
1, 181634, Control_c, 0, 64, 68
1, 181649, Control_c, 0, 64, 0
1, 181690, Note_off_c, 0, 56, 64
1, 181694, Note_off_c, 0, 53, 66
1, 181703, Note_off_c, 0, 61, 67
1, 181708, Control_c, 0, 64, 75
1, 181723, Control_c, 0, 64, 127
1, 181738, Note_off_c, 0, 44, 64
1, 181742, Note_off_c, 0, 49, 63
1, 181750, Note_off_c, 0, 37, 63
1, 181871, Control_c, 0, 64, 73
1, 181886, Control_c, 0, 64, 0
1, 182356, Note_on_c, 0, 62, 88
1, 182360, Note_on_c, 0, 50, 81
1, 182377, Note_off_c, 0, 62, 65
1, 182385, Note_off_c, 0, 50, 71
1, 182430, Note_on_c, 0, 62, 100
1, 182436, Note_on_c, 0, 50, 94
1, 182872, Control_c, 0, 64, 36
1, 182895, Control_c, 0, 64, 60
1, 182910, Control_c, 0, 64, 64
1, 182925, Control_c, 0, 64, 67
1, 182940, Control_c, 0, 64, 70
1, 182954, Control_c, 0, 64, 74
1, 182969, Control_c, 0, 64, 81
1, 182984, Control_c, 0, 64, 95
1, 182998, Control_c, 0, 64, 113
1, 183013, Control_c, 0, 64, 127
1, 183078, Note_off_c, 0, 62, 49
1, 183240, Note_off_c, 0, 50, 33
1, 183572, Note_on_c, 0, 56, 82
1, 183581, Note_on_c, 0, 44, 72
1, 183594, Note_off_c, 0, 56, 69
1, 183605, Note_off_c, 0, 44, 63
1, 183649, Note_on_c, 0, 56, 90
1, 183656, Note_on_c, 0, 44, 92
1, 183727, Note_off_c, 0, 44, 63
1, 183757, Note_off_c, 0, 56, 58
1, 184735, Note_on_c, 0, 50, 79
1, 184738, Note_on_c, 0, 38, 76
1, 184761, Note_off_c, 0, 50, 68
1, 184764, Note_off_c, 0, 38, 64
1, 184805, Note_on_c, 0, 50, 87
1, 184819, Note_on_c, 0, 38, 85
1, 184854, Note_off_c, 0, 50, 66
1, 184860, Note_off_c, 0, 38, 60
1, 185385, Note_on_c, 0, 44, 84
1, 185388, Note_on_c, 0, 32, 76
1, 185408, Note_off_c, 0, 44, 65
1, 185420, Note_off_c, 0, 32, 64
1, 185470, Note_on_c, 0, 44, 87
1, 185474, Note_on_c, 0, 32, 84
1, 185526, Note_off_c, 0, 44, 63
1, 185529, Note_off_c, 0, 32, 60
1, 186444, Note_on_c, 0, 38, 88
1, 186448, Note_on_c, 0, 26, 79
1, 186493, Note_off_c, 0, 38, 61
1, 186499, Note_off_c, 0, 26, 60
1, 186547, Note_on_c, 0, 38, 81
1, 186553, Note_on_c, 0, 26, 68
1, 186586, Control_c, 0, 64, 117
1, 186601, Control_c, 0, 64, 83
1, 186615, Control_c, 0, 64, 63
1, 186638, Control_c, 0, 64, 0
1, 187676, Note_on_c, 0, 53, 77
1, 187687, Note_on_c, 0, 47, 64
1, 187693, Note_on_c, 0, 44, 61
1, 188231, Poly_aftertouch_c, 0, 29, 127
1, 188255, Control_c, 0, 64, 65
1, 188269, Control_c, 0, 64, 75
1, 188284, Control_c, 0, 64, 79
1, 188299, Control_c, 0, 64, 83
1, 188313, Control_c, 0, 64, 89
1, 188328, Control_c, 0, 64, 97
1, 188343, Control_c, 0, 64, 107
1, 188359, Control_c, 0, 64, 127
1, 188382, Note_off_c, 0, 53, 57
1, 188382, Poly_aftertouch_c, 0, 31, 127
1, 188426, Note_off_c, 0, 47, 57
1, 188457, Note_off_c, 0, 44, 35
1, 188713, Note_on_c, 0, 54, 81
1, 188722, Note_on_c, 0, 45, 76
1, 188722, Note_on_c, 0, 48, 78
1, 188773, Control_c, 0, 64, 113
1, 188788, Control_c, 0, 64, 91
1, 188803, Control_c, 0, 64, 77
1, 188818, Control_c, 0, 64, 64
1, 188833, Control_c, 0, 64, 0
1, 189301, Control_c, 0, 64, 65
1, 189315, Control_c, 0, 64, 78
1, 189330, Control_c, 0, 64, 90
1, 189345, Control_c, 0, 64, 105
1, 189359, Control_c, 0, 64, 127
1, 189501, Note_off_c, 0, 48, 58
1, 189540, Note_off_c, 0, 45, 37
1, 189593, Note_off_c, 0, 54, 59
1, 189767, Note_on_c, 0, 55, 89
1, 189772, Note_on_c, 0, 50, 83
1, 189775, Note_on_c, 0, 46, 87
1, 189817, Poly_aftertouch_c, 0, 33, 127
1, 189826, Control_c, 0, 64, 100
1, 189841, Control_c, 0, 64, 78
1, 189855, Control_c, 0, 64, 54
1, 189870, Control_c, 0, 64, 0
1, 189945, Control_c, 0, 64, 47
1, 189960, Control_c, 0, 64, 63
1, 189975, Control_c, 0, 64, 69
1, 189990, Control_c, 0, 64, 77
1, 190005, Control_c, 0, 64, 86
1, 190019, Control_c, 0, 64, 97
1, 190034, Control_c, 0, 64, 112
1, 190049, Poly_aftertouch_c, 0, 33, 0
1, 190049, Control_c, 0, 64, 127
1, 190085, Note_off_c, 0, 46, 56
1, 190085, Poly_aftertouch_c, 0, 33, 127
1, 190097, Note_off_c, 0, 50, 58
1, 190180, Note_off_c, 0, 55, 59
1, 190516, Note_on_c, 0, 62, 88
1, 190521, Note_on_c, 0, 55, 79
1, 190522, Note_on_c, 0, 50, 84
1, 190526, Note_on_c, 0, 57, 73
1, 190550, Poly_aftertouch_c, 0, 31, 0
1, 190566, Poly_aftertouch_c, 0, 29, 0
1, 190574, Control_c, 0, 64, 116
1, 190588, Control_c, 0, 64, 89
1, 190603, Control_c, 0, 64, 69
1, 190618, Control_c, 0, 64, 0
1, 190652, Poly_aftertouch_c, 0, 33, 0
1, 190662, Control_c, 0, 64, 40
1, 190677, Control_c, 0, 64, 62
1, 190692, Control_c, 0, 64, 68
1, 190706, Control_c, 0, 64, 74
1, 190721, Control_c, 0, 64, 79
1, 190736, Control_c, 0, 64, 84
1, 190751, Control_c, 0, 64, 89
1, 190767, Control_c, 0, 64, 93
1, 190782, Control_c, 0, 64, 99
1, 190797, Control_c, 0, 64, 103
1, 190811, Control_c, 0, 64, 107
1, 190826, Control_c, 0, 64, 110
1, 190841, Control_c, 0, 64, 112
1, 190856, Control_c, 0, 64, 113
1, 190941, Note_off_c, 0, 38, 57
1, 191048, Control_c, 0, 64, 112
1, 191063, Control_c, 0, 64, 112
1, 191077, Note_on_c, 0, 39, 77
1, 191082, Note_on_c, 0, 27, 72
1, 191093, Control_c, 0, 64, 111
1, 191129, Control_c, 0, 64, 111
1, 191144, Control_c, 0, 64, 110
1, 191159, Control_c, 0, 64, 110
1, 191174, Control_c, 0, 64, 109
1, 191189, Control_c, 0, 64, 109
1, 191203, Control_c, 0, 64, 108
1, 191234, Control_c, 0, 64, 108
1, 191239, Note_off_c, 0, 26, 33
1, 191262, Note_off_c, 0, 55, 59
1, 191264, Control_c, 0, 64, 107
1, 191279, Control_c, 0, 64, 107
1, 191293, Control_c, 0, 64, 106
1, 191308, Control_c, 0, 64, 106
1, 191337, Control_c, 0, 64, 105
1, 191352, Control_c, 0, 64, 104
1, 191367, Control_c, 0, 64, 104
1, 191382, Note_on_c, 0, 54, 83
1, 191382, Control_c, 0, 64, 103
1, 191412, Control_c, 0, 64, 103
1, 191441, Control_c, 0, 64, 102
1, 191456, Control_c, 0, 64, 102
1, 191486, Control_c, 0, 64, 101
1, 191524, Note_off_c, 0, 39, 37
1, 191605, Control_c, 0, 64, 101
1, 191626, Note_on_c, 0, 38, 87
1, 191631, Note_on_c, 0, 26, 73
1, 191635, Control_c, 0, 64, 97
1, 191650, Control_c, 0, 64, 89
1, 191665, Control_c, 0, 64, 77
1, 191680, Control_c, 0, 64, 62
1, 191685, Note_off_c, 0, 27, 59
1, 191695, Control_c, 0, 64, 0
1, 191702, Note_off_c, 0, 50, 38
1, 191768, Control_c, 0, 64, 44
1, 191783, Control_c, 0, 64, 62
1, 191796, Note_off_c, 0, 62, 29
1, 191798, Control_c, 0, 64, 70
1, 191813, Control_c, 0, 64, 78
1, 191827, Control_c, 0, 64, 88
1, 191842, Control_c, 0, 64, 96
1, 191857, Control_c, 0, 64, 103
1, 191877, Note_off_c, 0, 26, 58
1, 191879, Control_c, 0, 64, 112
1, 191894, Control_c, 0, 64, 127
1, 191930, Note_off_c, 0, 38, 55
1, 191963, Note_off_c, 0, 57, 59
1, 191971, Note_off_c, 0, 54, 63
1, 192023, Note_on_c, 0, 50, 83
1, 192031, Note_on_c, 0, 62, 72
1, 192051, Note_off_c, 0, 50, 69
1, 192056, Note_off_c, 0, 62, 66
1, 192073, Note_on_c, 0, 59, 18
1, 192093, Note_off_c, 0, 59, 0
1, 192106, Note_on_c, 0, 59, 36
1, 192111, Note_on_c, 0, 50, 100
1, 192112, Note_on_c, 0, 43, 90
1, 192115, Note_on_c, 0, 62, 87
1, 192118, Note_on_c, 0, 55, 83
1, 192120, Note_on_c, 0, 31, 82
1, 192131, Control_c, 0, 64, 85
1, 192146, Control_c, 0, 64, 55
1, 192160, Control_c, 0, 64, 0
1, 192190, Control_c, 0, 64, 29
1, 192205, Control_c, 0, 64, 75
1, 192213, Note_off_c, 0, 50, 65
1, 192220, Control_c, 0, 64, 127
1, 192233, Note_off_c, 0, 31, 61
1, 192261, Note_off_c, 0, 43, 63
1, 192263, Note_off_c, 0, 62, 43
1, 192273, Note_off_c, 0, 55, 50
1, 192324, Control_c, 0, 64, 98
1, 192339, Note_off_c, 0, 59, 37
1, 192339, Control_c, 0, 64, 57
1, 192354, Control_c, 0, 64, 0
1, 192732, Note_on_c, 0, 71, 94
1, 192737, Note_on_c, 0, 59, 86
1, 192752, Note_off_c, 0, 71, 69
1, 192757, Note_off_c, 0, 59, 68
1, 192804, Note_on_c, 0, 71, 97
1, 192811, Note_on_c, 0, 59, 90
1, 192939, Control_c, 0, 64, 64
1, 192954, Control_c, 0, 64, 77
1, 192969, Control_c, 0, 64, 77
1, 192983, Control_c, 0, 64, 74
1, 192998, Control_c, 0, 64, 71
1, 193013, Control_c, 0, 64, 70
1, 193028, Control_c, 0, 64, 71
1, 193043, Control_c, 0, 64, 73
1, 193057, Control_c, 0, 64, 74
1, 193087, Control_c, 0, 64, 73
1, 193102, Control_c, 0, 64, 72
1, 193117, Control_c, 0, 64, 70
1, 193132, Control_c, 0, 64, 67
1, 193147, Control_c, 0, 64, 65
1, 193162, Control_c, 0, 64, 63
1, 193177, Control_c, 0, 64, 62
1, 193192, Control_c, 0, 64, 62
1, 193206, Control_c, 0, 64, 60
1, 193221, Control_c, 0, 64, 56
1, 193236, Control_c, 0, 64, 46
1, 193251, Control_c, 0, 64, 0
1, 193310, Control_c, 0, 64, 53
1, 193325, Control_c, 0, 64, 71
1, 193340, Control_c, 0, 64, 84
1, 193355, Control_c, 0, 64, 127
1, 193441, Note_off_c, 0, 71, 58
1, 193468, Note_off_c, 0, 59, 58
1, 193823, Note_on_c, 0, 65, 92
1, 193826, Note_on_c, 0, 53, 87
1, 193841, Note_off_c, 0, 65, 72
1, 193848, Note_off_c, 0, 53, 70
1, 193895, Note_on_c, 0, 53, 91
1, 193895, Note_on_c, 0, 65, 96
1, 194416, Note_off_c, 0, 65, 39
1, 194555, Note_off_c, 0, 53, 53
1, 195008, Note_on_c, 0, 47, 77
1, 195010, Note_on_c, 0, 59, 73
1, 195031, Note_off_c, 0, 47, 68
1, 195035, Note_off_c, 0, 59, 67
1, 195078, Note_on_c, 0, 59, 86
1, 195080, Note_on_c, 0, 47, 86
1, 195133, Note_off_c, 0, 59, 61
1, 195156, Note_off_c, 0, 47, 64
1, 195512, Note_on_c, 0, 41, 84
1, 195512, Note_on_c, 0, 53, 87
1, 195534, Note_off_c, 0, 53, 71
1, 195537, Note_off_c, 0, 41, 64
1, 195583, Note_on_c, 0, 53, 88
1, 195586, Note_on_c, 0, 41, 83
1, 195644, Note_off_c, 0, 53, 64
1, 195658, Note_off_c, 0, 41, 62
1, 196069, Note_on_c, 0, 47, 87
1, 196073, Note_on_c, 0, 35, 78
1, 196096, Note_off_c, 0, 47, 69
1, 196103, Note_off_c, 0, 35, 65
1, 196160, Note_on_c, 0, 47, 93
1, 196163, Note_on_c, 0, 35, 82
1, 196206, Note_off_c, 0, 47, 66
1, 196217, Note_off_c, 0, 35, 61
1, 196984, Note_on_c, 0, 41, 93
1, 196986, Note_on_c, 0, 29, 85
1, 197036, Note_off_c, 0, 41, 62
1, 197042, Note_off_c, 0, 29, 62
1, 197106, Note_on_c, 0, 41, 89
1, 197113, Note_on_c, 0, 29, 79
1, 197210, Control_c, 0, 64, 96
1, 197225, Control_c, 0, 64, 79
1, 197240, Control_c, 0, 64, 63
1, 197254, Control_c, 0, 64, 0
1, 198247, Note_on_c, 0, 56, 88
1, 198256, Note_on_c, 0, 50, 74
1, 198267, Note_on_c, 0, 47, 63
1, 198944, Control_c, 0, 64, 51
1, 198959, Control_c, 0, 64, 65
1, 198974, Control_c, 0, 64, 71
1, 198989, Control_c, 0, 64, 76
1, 199004, Control_c, 0, 64, 80
1, 199019, Control_c, 0, 64, 85
1, 199034, Control_c, 0, 64, 90
1, 199049, Control_c, 0, 64, 94
1, 199063, Control_c, 0, 64, 99
1, 199078, Control_c, 0, 64, 104
1, 199084, Note_off_c, 0, 50, 38
1, 199093, Control_c, 0, 64, 108
1, 199108, Control_c, 0, 64, 111
1, 199123, Control_c, 0, 64, 113
1, 199137, Control_c, 0, 64, 113
1, 199178, Note_off_c, 0, 47, 43
1, 199182, Control_c, 0, 64, 114
1, 199368, Note_off_c, 0, 56, 31
1, 199500, Control_c, 0, 64, 113
1, 199514, Note_on_c, 0, 57, 77
1, 199529, Note_on_c, 0, 51, 66
1, 199530, Control_c, 0, 64, 113
1, 199533, Note_on_c, 0, 48, 59
1, 199546, Control_c, 0, 64, 111
1, 199561, Control_c, 0, 64, 109
1, 199575, Control_c, 0, 64, 106
1, 199590, Control_c, 0, 64, 101
1, 199605, Control_c, 0, 64, 96
1, 199620, Control_c, 0, 64, 90
1, 199635, Control_c, 0, 64, 83
1, 199649, Control_c, 0, 64, 75
1, 199664, Control_c, 0, 64, 67
1, 199679, Control_c, 0, 64, 47
1, 199693, Control_c, 0, 64, 0
1, 200323, Control_c, 0, 64, 19
1, 200339, Control_c, 0, 64, 63
1, 200354, Control_c, 0, 64, 69
1, 200369, Control_c, 0, 64, 75
1, 200384, Control_c, 0, 64, 83
1, 200398, Control_c, 0, 64, 92
1, 200413, Control_c, 0, 64, 103
1, 200428, Control_c, 0, 64, 120
1, 200443, Control_c, 0, 64, 127
1, 200596, Note_off_c, 0, 57, 38
1, 200629, Note_off_c, 0, 51, 35
1, 200637, Note_off_c, 0, 48, 33
1, 201147, Control_c, 0, 64, 115
1, 201162, Note_on_c, 0, 58, 53
1, 201162, Control_c, 0, 64, 108
1, 201171, Note_on_c, 0, 53, 49
1, 201175, Note_on_c, 0, 49, 48
1, 201177, Control_c, 0, 64, 102
1, 201192, Control_c, 0, 64, 96
1, 201207, Control_c, 0, 64, 89
1, 201222, Control_c, 0, 64, 81
1, 201237, Control_c, 0, 64, 72
1, 201251, Control_c, 0, 64, 56
1, 201266, Control_c, 0, 64, 0
1, 201385, Control_c, 0, 64, 48
1, 201400, Control_c, 0, 64, 65
1, 201414, Control_c, 0, 64, 71
1, 201429, Control_c, 0, 64, 76
1, 201444, Control_c, 0, 64, 82
1, 201458, Control_c, 0, 64, 88
1, 201473, Control_c, 0, 64, 94
1, 201488, Control_c, 0, 64, 101
1, 201501, Note_off_c, 0, 49, 36
1, 201503, Control_c, 0, 64, 108
1, 201518, Control_c, 0, 64, 117
1, 201532, Control_c, 0, 64, 127
1, 201533, Note_off_c, 0, 53, 32
1, 201701, Note_off_c, 0, 58, 56
1, 201970, Control_c, 0, 64, 126
1, 201985, Control_c, 0, 64, 121
1, 202000, Control_c, 0, 64, 119
1, 202015, Control_c, 0, 64, 117
1, 202030, Control_c, 0, 64, 115
1, 202044, Control_c, 0, 64, 114
1, 202059, Control_c, 0, 64, 112
1, 202074, Control_c, 0, 64, 109
1, 202089, Control_c, 0, 64, 107
1, 202104, Control_c, 0, 64, 104
1, 202119, Control_c, 0, 64, 102
1, 202134, Control_c, 0, 64, 100
1, 202149, Control_c, 0, 64, 98
1, 202163, Control_c, 0, 64, 96
1, 202169, Note_on_c, 0, 65, 48
1, 202172, Note_on_c, 0, 60, 43
1, 202178, Control_c, 0, 64, 93
1, 202182, Note_on_c, 0, 58, 41
1, 202192, Note_on_c, 0, 53, 35
1, 202193, Control_c, 0, 64, 91
1, 202208, Control_c, 0, 64, 89
1, 202223, Control_c, 0, 64, 86
1, 202237, Control_c, 0, 64, 83
1, 202252, Control_c, 0, 64, 79
1, 202267, Control_c, 0, 64, 73
1, 202281, Control_c, 0, 64, 65
1, 202296, Control_c, 0, 64, 0
1, 202363, Control_c, 0, 64, 48
1, 202378, Control_c, 0, 64, 58
1, 202393, Control_c, 0, 64, 63
1, 202408, Control_c, 0, 64, 67
1, 202422, Control_c, 0, 64, 70
1, 202437, Control_c, 0, 64, 74
1, 202452, Control_c, 0, 64, 77
1, 202467, Control_c, 0, 64, 80
1, 202482, Control_c, 0, 64, 82
1, 202496, Control_c, 0, 64, 85
1, 202511, Control_c, 0, 64, 87
1, 202526, Control_c, 0, 64, 89
1, 202541, Control_c, 0, 64, 91
1, 202556, Control_c, 0, 64, 92
1, 202570, Control_c, 0, 64, 93
1, 202585, Control_c, 0, 64, 94
1, 202600, Control_c, 0, 64, 94
1, 202635, Note_off_c, 0, 41, 28
1, 202986, Control_c, 0, 64, 94
1, 203030, Note_on_c, 0, 30, 38
1, 203034, Note_on_c, 0, 42, 33
1, 203035, Note_off_c, 0, 29, 32
1, 203045, Control_c, 0, 64, 93
1, 203156, Control_c, 0, 64, 93
1, 203185, Note_off_c, 0, 58, 48
1, 203243, Control_c, 0, 64, 92
1, 203303, Control_c, 0, 64, 92
1, 203362, Control_c, 0, 64, 91
1, 203383, Note_on_c, 0, 57, 40
1, 203422, Control_c, 0, 64, 91
1, 203437, Note_off_c, 0, 42, 35
1, 203451, Control_c, 0, 64, 90
1, 203496, Control_c, 0, 64, 90
1, 203541, Control_c, 0, 64, 89
1, 203624, Note_off_c, 0, 30, 24
1, 203719, Control_c, 0, 64, 89
1, 203763, Control_c, 0, 64, 88
1, 203778, Control_c, 0, 64, 88
1, 203793, Control_c, 0, 64, 87
1, 203807, Control_c, 0, 64, 87
1, 203815, Note_on_c, 0, 29, 35
1, 203820, Note_on_c, 0, 41, 30
1, 203822, Control_c, 0, 64, 85
1, 203837, Control_c, 0, 64, 84
1, 203859, Control_c, 0, 64, 82
1, 203874, Control_c, 0, 64, 80
1, 203889, Control_c, 0, 64, 78
1, 203904, Control_c, 0, 64, 74
1, 203919, Control_c, 0, 64, 67
1, 203934, Control_c, 0, 64, 59
1, 203949, Control_c, 0, 64, 0
1, 204319, Control_c, 0, 67, 10
1, 204335, Control_c, 0, 67, 31
1, 204350, Control_c, 0, 67, 60
1, 204364, Control_c, 0, 67, 89
1, 204379, Control_c, 0, 67, 114
1, 204394, Control_c, 0, 67, 127
1, 204483, Control_c, 0, 64, 43
1, 204498, Control_c, 0, 64, 61
1, 204513, Control_c, 0, 64, 67
1, 204527, Control_c, 0, 64, 71
1, 204542, Control_c, 0, 64, 75
1, 204557, Control_c, 0, 64, 79
1, 204572, Control_c, 0, 64, 85
1, 204587, Control_c, 0, 64, 90
1, 204602, Control_c, 0, 64, 95
1, 204624, Control_c, 0, 64, 100
1, 204638, Control_c, 0, 64, 105
1, 204653, Control_c, 0, 64, 109
1, 204668, Control_c, 0, 64, 113
1, 204683, Control_c, 0, 64, 117
1, 204697, Control_c, 0, 64, 119
1, 204712, Control_c, 0, 64, 122
1, 204722, Note_off_c, 0, 29, 38
1, 204727, Control_c, 0, 64, 123
1, 204757, Control_c, 0, 64, 124
1, 204811, Note_off_c, 0, 41, 37
1, 204833, Note_off_c, 0, 53, 29
1, 204871, Note_off_c, 0, 65, 20
1, 205169, Note_off_c, 0, 60, 37
1, 205171, Note_off_c, 0, 57, 35
1, 205350, Control_c, 0, 64, 123
1, 205446, Control_c, 0, 64, 122
1, 205490, Control_c, 0, 64, 121
1, 205520, Control_c, 0, 64, 120
1, 205565, Control_c, 0, 64, 119
1, 205638, Control_c, 0, 64, 119
1, 205655, Note_on_c, 0, 65, 40
1, 205681, Note_on_c, 0, 53, 32
1, 205757, Control_c, 0, 64, 118
1, 205845, Control_c, 0, 64, 118
1, 205859, Note_off_c, 0, 53, 31
1, 205875, Control_c, 0, 64, 117
1, 205878, Note_off_c, 0, 65, 35
1, 205920, Control_c, 0, 64, 117
1, 205950, Control_c, 0, 64, 116
1, 205995, Control_c, 0, 64, 116
1, 206024, Control_c, 0, 64, 115
1, 206054, Control_c, 0, 64, 115
1, 206084, Control_c, 0, 64, 114
1, 206150, Control_c, 0, 64, 114
1, 206195, Control_c, 0, 64, 113
1, 206224, Control_c, 0, 64, 113
1, 206268, Control_c, 0, 64, 112
1, 206298, Control_c, 0, 64, 112
1, 206343, Control_c, 0, 64, 111
1, 206417, Control_c, 0, 64, 111
1, 206461, Control_c, 0, 64, 110
1, 206550, Control_c, 0, 64, 110
1, 206579, Control_c, 0, 64, 109
1, 206624, Control_c, 0, 64, 109
1, 206639, Control_c, 0, 64, 108
1, 206653, Control_c, 0, 64, 108
1, 206668, Control_c, 0, 64, 107
1, 206683, Control_c, 0, 64, 107
1, 206698, Control_c, 0, 64, 106
1, 206713, Control_c, 0, 64, 106
1, 206729, Control_c, 0, 64, 105
1, 206744, Control_c, 0, 64, 104
1, 206758, Control_c, 0, 64, 103
1, 206773, Control_c, 0, 64, 102
1, 206788, Control_c, 0, 64, 100
1, 206803, Control_c, 0, 64, 99
1, 206818, Control_c, 0, 64, 97
1, 206820, Note_on_c, 0, 65, 31
1, 206824, Note_on_c, 0, 58, 34
1, 206824, Note_on_c, 0, 61, 33
1, 206832, Note_on_c, 0, 34, 32
1, 206832, Control_c, 0, 64, 94
1, 206833, Note_on_c, 0, 46, 29
1, 206837, Note_on_c, 0, 53, 23
1, 206855, Control_c, 0, 64, 91
1, 206870, Control_c, 0, 64, 86
1, 206884, Control_c, 0, 64, 80
1, 206899, Control_c, 0, 64, 74
1, 206914, Control_c, 0, 64, 66
1, 206929, Control_c, 0, 64, 48
1, 206944, Control_c, 0, 64, 0
1, 207106, Control_c, 0, 64, 17
1, 207121, Control_c, 0, 64, 32
1, 207136, Control_c, 0, 64, 40
1, 207151, Control_c, 0, 64, 48
1, 207166, Control_c, 0, 64, 53
1, 207180, Control_c, 0, 64, 57
1, 207195, Control_c, 0, 64, 61
1, 207210, Control_c, 0, 64, 63
1, 207225, Control_c, 0, 64, 64
1, 207240, Control_c, 0, 64, 67
1, 207255, Control_c, 0, 64, 68
1, 207270, Control_c, 0, 64, 70
1, 207284, Control_c, 0, 64, 71
1, 207299, Control_c, 0, 64, 73
1, 207314, Control_c, 0, 64, 74
1, 207329, Control_c, 0, 64, 76
1, 207344, Control_c, 0, 64, 78
1, 207358, Control_c, 0, 64, 80
1, 207373, Control_c, 0, 64, 81
1, 207388, Control_c, 0, 64, 83
1, 207402, Control_c, 0, 64, 84
1, 207417, Control_c, 0, 64, 86
1, 207432, Control_c, 0, 64, 87
1, 207447, Control_c, 0, 64, 87
1, 207491, Control_c, 0, 64, 88
1, 207521, Control_c, 0, 64, 88
1, 207671, Note_off_c, 0, 46, 31
1, 207675, Note_off_c, 0, 53, 32
1, 207684, Note_off_c, 0, 34, 32
1, 207690, Note_off_c, 0, 65, 26
1, 207758, Note_off_c, 0, 58, 33
1, 207773, Note_off_c, 0, 61, 26
1, 208048, Control_c, 0, 67, 127
1, 208063, Control_c, 0, 67, 123
1, 208078, Control_c, 0, 67, 118
1, 208093, Control_c, 0, 67, 107
1, 208108, Control_c, 0, 67, 93
1, 208122, Control_c, 0, 67, 75
1, 208137, Control_c, 0, 67, 57
1, 208152, Control_c, 0, 67, 42
1, 208167, Control_c, 0, 67, 33
1, 208182, Control_c, 0, 67, 27
1, 208197, Control_c, 0, 67, 26
1, 208256, Control_c, 0, 64, 88
1, 208286, Control_c, 0, 64, 87
1, 208315, Control_c, 0, 64, 87
1, 208315, Control_c, 0, 67, 27
1, 208331, Control_c, 0, 64, 86
1, 208368, Control_c, 0, 67, 27
1, 208398, Control_c, 0, 64, 86
1, 208398, Control_c, 0, 67, 28
1, 208442, Control_c, 0, 64, 85
1, 208516, Control_c, 0, 67, 28
1, 208561, Control_c, 0, 64, 85
1, 208664, Control_c, 0, 64, 84
1, 208723, Control_c, 0, 64, 84
1, 208738, Control_c, 0, 64, 83
1, 208768, Control_c, 0, 64, 83
1, 208797, Control_c, 0, 64, 82
1, 208812, Control_c, 0, 64, 82
1, 208856, Control_c, 0, 64, 81
1, 208886, Control_c, 0, 67, 29
1, 208901, Control_c, 0, 64, 81
1, 208960, Control_c, 0, 64, 80
1, 209035, Control_c, 0, 64, 80
1, 209079, Control_c, 0, 64, 79
1, 209132, Control_c, 0, 64, 79
1, 209147, Control_c, 0, 64, 78
1, 209176, Control_c, 0, 64, 78
1, 209219, Control_c, 0, 64, 77
1, 209264, Control_c, 0, 64, 77
1, 209294, Control_c, 0, 64, 76
1, 209339, Control_c, 0, 64, 76
1, 209383, Control_c, 0, 64, 75
1, 209397, Control_c, 0, 64, 75
1, 209427, Control_c, 0, 64, 74
1, 209442, Control_c, 0, 64, 74
1, 209472, Control_c, 0, 64, 73
1, 209486, Control_c, 0, 64, 73
1, 209516, Control_c, 0, 64, 72
1, 209531, Control_c, 0, 64, 72
1, 209546, Control_c, 0, 64, 71
1, 209560, Control_c, 0, 64, 70
1, 209575, Control_c, 0, 64, 68
1, 209590, Control_c, 0, 64, 66
1, 209604, Control_c, 0, 64, 65
1, 209678, Control_c, 0, 67, 29
1, 209693, Control_c, 0, 64, 65
1, 209738, Control_c, 0, 64, 64
1, 209827, Control_c, 0, 64, 64
1, 209924, Control_c, 0, 64, 63
1, 209983, Control_c, 0, 64, 63
1, 210042, Control_c, 0, 64, 62
1, 210042, Control_c, 0, 67, 30
1, 210457, Control_c, 0, 67, 30
1, 210531, Control_c, 0, 67, 31
1, 210546, Control_c, 0, 67, 32
1, 210561, Control_c, 0, 67, 32
1, 210576, Control_c, 0, 67, 33
1, 210598, Control_c, 0, 64, 63
1, 210598, Control_c, 0, 67, 34
1, 210613, Control_c, 0, 67, 38
1, 210627, Control_c, 0, 67, 39
1, 210642, Control_c, 0, 67, 44
1, 210657, Control_c, 0, 67, 51
1, 210672, Control_c, 0, 67, 59
1, 210688, Control_c, 0, 67, 69
1, 210702, Control_c, 0, 67, 78
1, 210717, Control_c, 0, 67, 86
1, 210733, Control_c, 0, 67, 92
1, 210748, Control_c, 0, 67, 96
1, 210763, Control_c, 0, 67, 98
1, 210778, Control_c, 0, 64, 63
1, 210778, Control_c, 0, 67, 101
1, 210793, Control_c, 0, 67, 101
1, 210822, Control_c, 0, 64, 64
1, 210851, Control_c, 0, 64, 64
1, 210866, Control_c, 0, 64, 65
1, 210881, Control_c, 0, 64, 65
1, 210896, Control_c, 0, 64, 66
1, 210896, Control_c, 0, 67, 101
1, 210911, Control_c, 0, 64, 67
1, 210925, Control_c, 0, 64, 67
1, 210940, Control_c, 0, 64, 68
1, 210955, Control_c, 0, 64, 70
1, 210955, Control_c, 0, 67, 100
1, 210970, Control_c, 0, 64, 72
1, 210985, Control_c, 0, 64, 75
1, 210999, Control_c, 0, 64, 78
1, 211014, Control_c, 0, 64, 80
1, 211029, Control_c, 0, 64, 83
1, 211044, Control_c, 0, 64, 85
1, 211059, Control_c, 0, 64, 88
1, 211074, Control_c, 0, 64, 92
1, 211088, Control_c, 0, 64, 96
1, 211088, Control_c, 0, 67, 100
1, 211103, Control_c, 0, 64, 100
1, 211118, Control_c, 0, 64, 106
1, 211133, Control_c, 0, 64, 113
1, 211148, Control_c, 0, 64, 127
1, 211163, Control_c, 0, 67, 99
1, 211311, Control_c, 0, 67, 99
1, 211527, Control_c, 0, 67, 98
1, 211537, Note_on_c, 0, 77, 48
1, 211545, Note_on_c, 0, 65, 40
1, 211671, Note_off_c, 0, 65, 37
1, 211694, Note_off_c, 0, 77, 52
1, 211824, Note_on_c, 0, 77, 54
1, 211849, Note_on_c, 0, 65, 41
1, 211907, Note_on_c, 0, 37, 29
1, 212039, Note_off_c, 0, 37, 34
1, 212106, Note_off_c, 0, 65, 38
1, 212156, Note_off_c, 0, 77, 37
1, 212564, Note_on_c, 0, 65, 25
1, 212579, Note_on_c, 0, 56, 28
1, 212588, Note_on_c, 0, 59, 25
1, 212962, Note_off_c, 0, 65, 32
1, 212963, Note_off_c, 0, 59, 33
1, 212973, Note_off_c, 0, 56, 34
1, 212980, Note_on_c, 0, 87, 69
1, 213014, Note_on_c, 0, 75, 40
1, 213097, Note_off_c, 0, 75, 38
1, 213140, Note_off_c, 0, 87, 61
1, 213223, Note_on_c, 0, 87, 76
1, 213262, Note_on_c, 0, 75, 35
1, 213598, Note_on_c, 0, 65, 25
1, 213610, Note_on_c, 0, 59, 28
1, 213616, Note_on_c, 0, 56, 27
1, 213653, Note_off_c, 0, 87, 36
1, 213727, Note_off_c, 0, 75, 44
1, 213820, Note_on_c, 0, 86, 72
1, 213837, Note_on_c, 0, 74, 50
1, 213891, Note_off_c, 0, 74, 45
1, 213930, Note_off_c, 0, 65, 33
1, 213945, Note_off_c, 0, 59, 31
1, 213958, Note_off_c, 0, 86, 57
1, 213984, Note_off_c, 0, 56, 34
1, 214031, Note_on_c, 0, 86, 67
1, 214063, Note_on_c, 0, 74, 50
1, 214177, Note_off_c, 0, 86, 37
1, 214209, Note_off_c, 0, 74, 37
1, 214239, Note_on_c, 0, 65, 38
1, 214240, Note_on_c, 0, 56, 35
1, 214253, Note_on_c, 0, 59, 35
1, 214409, Note_on_c, 0, 85, 71
1, 214422, Note_on_c, 0, 73, 59
1, 214469, Note_off_c, 0, 65, 28
1, 214477, Note_off_c, 0, 73, 51
1, 214486, Note_off_c, 0, 59, 35
1, 214493, Note_off_c, 0, 85, 60
1, 214510, Note_off_c, 0, 56, 39
1, 214575, Note_on_c, 0, 85, 72
1, 214595, Note_on_c, 0, 73, 57
1, 214654, Control_c, 0, 67, 99
1, 214713, Control_c, 0, 67, 98
1, 214729, Control_c, 0, 67, 96
1, 214744, Control_c, 0, 67, 93
1, 214745, Note_on_c, 0, 65, 40
1, 214749, Note_on_c, 0, 56, 38
1, 214754, Note_off_c, 0, 85, 61
1, 214758, Note_on_c, 0, 59, 39
1, 214759, Control_c, 0, 67, 89
1, 214773, Control_c, 0, 67, 85
1, 214788, Note_off_c, 0, 73, 57
1, 214788, Control_c, 0, 67, 78
1, 214803, Control_c, 0, 67, 69
1, 214818, Control_c, 0, 67, 57
1, 214832, Control_c, 0, 67, 41
1, 214847, Control_c, 0, 67, 24
1, 214862, Control_c, 0, 67, 11
1, 214877, Control_c, 0, 67, 0
1, 214883, Note_on_c, 0, 84, 68
1, 214896, Note_on_c, 0, 72, 54
1, 214926, Note_off_c, 0, 65, 30
1, 214938, Note_off_c, 0, 72, 58
1, 214951, Note_off_c, 0, 56, 28
1, 214953, Note_off_c, 0, 84, 62
1, 214958, Note_off_c, 0, 59, 25
1, 215029, Note_on_c, 0, 84, 62
1, 215048, Note_on_c, 0, 72, 50
1, 215151, Note_off_c, 0, 84, 38
1, 215206, Note_on_c, 0, 59, 37
1, 215207, Note_on_c, 0, 65, 34
1, 215210, Note_on_c, 0, 56, 38
1, 215214, Note_off_c, 0, 72, 38
1, 215337, Note_on_c, 0, 83, 60
1, 215347, Note_on_c, 0, 71, 48
1, 215369, Note_off_c, 0, 65, 34
1, 215389, Note_off_c, 0, 71, 57
1, 215395, Note_off_c, 0, 83, 59
1, 215406, Note_off_c, 0, 59, 28
1, 215418, Note_off_c, 0, 56, 41
1, 215486, Note_on_c, 0, 83, 52
1, 215493, Note_on_c, 0, 71, 41
1, 215604, Note_off_c, 0, 71, 39
1, 215637, Note_off_c, 0, 83, 36
1, 215648, Note_on_c, 0, 56, 30
1, 215652, Note_on_c, 0, 65, 21
1, 215660, Note_on_c, 0, 59, 30
1, 215819, Note_on_c, 0, 82, 46
1, 215821, Note_on_c, 0, 70, 44
1, 215883, Note_off_c, 0, 70, 56
1, 215890, Note_off_c, 0, 82, 55
1, 215900, Note_off_c, 0, 65, 37
1, 215909, Note_off_c, 0, 59, 31
1, 215940, Note_off_c, 0, 56, 37
1, 216016, Note_on_c, 0, 70, 34
1, 216018, Note_on_c, 0, 82, 47
1, 216209, Note_off_c, 0, 82, 33
1, 216228, Note_off_c, 0, 70, 43
1, 216251, Note_on_c, 0, 56, 25
1, 216256, Note_on_c, 0, 65, 14
1, 216272, Note_on_c, 0, 59, 27
1, 216461, Note_off_c, 0, 65, 38
1, 216497, Note_off_c, 0, 59, 36
1, 216555, Note_off_c, 0, 56, 39
1, 216565, Note_on_c, 0, 81, 46
1, 216572, Note_on_c, 0, 69, 39
1, 216930, Control_c, 0, 64, 124
1, 216944, Control_c, 0, 64, 116
1, 216959, Control_c, 0, 64, 112
1, 216974, Control_c, 0, 64, 108
1, 216988, Control_c, 0, 64, 104
1, 217003, Control_c, 0, 64, 100
1, 217018, Control_c, 0, 64, 96
1, 217033, Control_c, 0, 64, 92
1, 217048, Control_c, 0, 64, 88
1, 217062, Control_c, 0, 64, 84
1, 217077, Control_c, 0, 64, 79
1, 217092, Control_c, 0, 64, 74
1, 217108, Control_c, 0, 64, 69
1, 217123, Control_c, 0, 64, 63
1, 217138, Control_c, 0, 64, 40
1, 217153, Control_c, 0, 64, 0
1, 217782, Control_c, 0, 64, 42
1, 217797, Control_c, 0, 64, 56
1, 217811, Control_c, 0, 64, 64
1, 217826, Control_c, 0, 64, 68
1, 217841, Control_c, 0, 64, 71
1, 217856, Control_c, 0, 64, 74
1, 217871, Control_c, 0, 64, 78
1, 217885, Control_c, 0, 64, 82
1, 217900, Control_c, 0, 64, 88
1, 217916, Control_c, 0, 64, 93
1, 217931, Control_c, 0, 64, 98
1, 217946, Control_c, 0, 64, 104
1, 217960, Control_c, 0, 64, 111
1, 217975, Control_c, 0, 64, 127
1, 218203, Note_off_c, 0, 69, 37
1, 218463, Note_off_c, 0, 81, 38
1, 218585, Note_on_c, 0, 80, 51
1, 218591, Note_on_c, 0, 68, 41
1, 218732, Note_off_c, 0, 68, 38
1, 218748, Note_off_c, 0, 80, 58
1, 218839, Note_on_c, 0, 37, 36
1, 218851, Control_c, 0, 64, 101
1, 218865, Control_c, 0, 64, 90
1, 218880, Control_c, 0, 64, 81
1, 218892, Note_on_c, 0, 80, 50
1, 218895, Control_c, 0, 64, 76
1, 218922, Note_on_c, 0, 68, 43
1, 218925, Control_c, 0, 64, 80
1, 218939, Control_c, 0, 64, 87
1, 218954, Control_c, 0, 64, 100
1, 218969, Control_c, 0, 64, 117
1, 218983, Control_c, 0, 64, 127
1, 218985, Note_off_c, 0, 37, 42
1, 219062, Note_off_c, 0, 68, 59
1, 219162, Note_off_c, 0, 80, 60
1, 219474, Note_on_c, 0, 65, 30
1, 219492, Note_on_c, 0, 56, 31
1, 219495, Note_on_c, 0, 59, 30
1, 219813, Note_on_c, 0, 92, 73
1, 219843, Note_on_c, 0, 80, 41
1, 219937, Note_off_c, 0, 80, 37
1, 219950, Note_off_c, 0, 65, 30
1, 219977, Note_off_c, 0, 92, 62
1, 220012, Note_off_c, 0, 59, 25
1, 220042, Note_off_c, 0, 56, 32
1, 220073, Note_on_c, 0, 92, 76
1, 220102, Note_on_c, 0, 80, 47
1, 220466, Note_on_c, 0, 56, 30
1, 220466, Note_on_c, 0, 65, 29
1, 220471, Note_on_c, 0, 59, 28
1, 220592, Note_off_c, 0, 92, 39
1, 220624, Note_off_c, 0, 80, 37
1, 220687, Note_on_c, 0, 91, 72
1, 220707, Note_on_c, 0, 79, 51
1, 220759, Note_off_c, 0, 79, 51
1, 220776, Note_off_c, 0, 59, 33
1, 220779, Note_off_c, 0, 65, 36
1, 220806, Note_off_c, 0, 91, 59
1, 220810, Note_off_c, 0, 56, 35
1, 220894, Note_on_c, 0, 91, 79
1, 220910, Note_on_c, 0, 79, 52
1, 221092, Note_on_c, 0, 65, 37
1, 221098, Note_on_c, 0, 56, 36
1, 221100, Note_off_c, 0, 91, 36
1, 221104, Note_on_c, 0, 59, 38
1, 221112, Note_off_c, 0, 79, 38
1, 221252, Note_on_c, 0, 90, 77
1, 221268, Note_on_c, 0, 78, 60
1, 221321, Note_off_c, 0, 78, 53
1, 221336, Note_off_c, 0, 65, 35
1, 221336, Note_off_c, 0, 90, 62
1, 221337, Note_off_c, 0, 59, 29
1, 221369, Note_off_c, 0, 56, 33
1, 221404, Note_on_c, 0, 90, 73
1, 221439, Note_on_c, 0, 78, 51
1, 221569, Note_on_c, 0, 65, 35
1, 221577, Note_on_c, 0, 59, 38
1, 221579, Note_on_c, 0, 56, 32
1, 221666, Note_off_c, 0, 78, 36
1, 221674, Note_off_c, 0, 90, 51
1, 221724, Note_on_c, 0, 89, 68
1, 221745, Note_on_c, 0, 77, 46
1, 221781, Note_off_c, 0, 77, 53
1, 221794, Note_off_c, 0, 89, 58
1, 221802, Note_off_c, 0, 65, 37
1, 221835, Note_off_c, 0, 59, 33
1, 221850, Note_off_c, 0, 56, 40
1, 221878, Note_on_c, 0, 89, 58
1, 221894, Note_on_c, 0, 77, 44
1, 222008, Note_off_c, 0, 89, 35
1, 222046, Note_on_c, 0, 65, 31
1, 222057, Note_on_c, 0, 56, 31
1, 222058, Note_on_c, 0, 59, 35
1, 222065, Note_off_c, 0, 77, 38
1, 222197, Note_on_c, 0, 88, 55
1, 222204, Note_on_c, 0, 76, 44
1, 222263, Note_off_c, 0, 88, 59
1, 222270, Note_off_c, 0, 65, 37
1, 222276, Note_off_c, 0, 76, 40
1, 222291, Note_off_c, 0, 59, 36
1, 222321, Note_off_c, 0, 56, 40
1, 222362, Note_on_c, 0, 88, 49
1, 222405, Note_on_c, 0, 76, 11
1, 222471, Note_off_c, 0, 76, 43
1, 222527, Note_off_c, 0, 88, 35
1, 222531, Note_on_c, 0, 65, 31
1, 222535, Note_on_c, 0, 56, 33
1, 222537, Note_on_c, 0, 59, 33
1, 222708, Note_on_c, 0, 87, 52
1, 222714, Note_on_c, 0, 75, 42
1, 222794, Note_off_c, 0, 87, 56
1, 222803, Note_off_c, 0, 75, 38
1, 222834, Note_off_c, 0, 65, 35
1, 222885, Note_off_c, 0, 59, 31
1, 222924, Note_on_c, 0, 87, 48
1, 222936, Note_on_c, 0, 75, 36
1, 222938, Note_off_c, 0, 56, 37
1, 223215, Note_on_c, 0, 65, 19
1, 223218, Note_on_c, 0, 56, 26
1, 223236, Note_on_c, 0, 59, 21
1, 223364, Note_off_c, 0, 87, 36
1, 223426, Note_off_c, 0, 75, 43
1, 223618, Note_on_c, 0, 86, 40
1, 223636, Note_on_c, 0, 74, 35
1, 223689, Note_off_c, 0, 65, 34
1, 223766, Note_off_c, 0, 59, 34
1, 223838, Note_off_c, 0, 56, 42
1, 224011, Control_c, 0, 64, 114
1, 224026, Control_c, 0, 64, 105
1, 224040, Control_c, 0, 64, 97
1, 224055, Control_c, 0, 64, 89
1, 224070, Control_c, 0, 64, 81
1, 224092, Control_c, 0, 64, 72
1, 224106, Control_c, 0, 64, 64
1, 224121, Control_c, 0, 64, 30
1, 224136, Control_c, 0, 64, 0
1, 224581, Control_c, 0, 67, 11
1, 224595, Control_c, 0, 67, 28
1, 224610, Control_c, 0, 67, 49
1, 224625, Control_c, 0, 67, 72
1, 224640, Control_c, 0, 67, 93
1, 224655, Control_c, 0, 67, 116
1, 224669, Control_c, 0, 67, 127
1, 224818, Control_c, 0, 64, 31
1, 224840, Control_c, 0, 64, 47
1, 224855, Control_c, 0, 64, 60
1, 224870, Control_c, 0, 64, 65
1, 224884, Control_c, 0, 64, 67
1, 224899, Control_c, 0, 64, 70
1, 224914, Control_c, 0, 64, 73
1, 224929, Control_c, 0, 64, 76
1, 224944, Control_c, 0, 64, 80
1, 224959, Control_c, 0, 64, 85
1, 224974, Control_c, 0, 64, 90
1, 224988, Control_c, 0, 64, 96
1, 225003, Control_c, 0, 64, 103
1, 225018, Control_c, 0, 64, 113
1, 225033, Control_c, 0, 64, 127
1, 225423, Note_off_c, 0, 86, 34
1, 225435, Note_off_c, 0, 74, 40
1, 225863, Note_on_c, 0, 74, 36
1, 225865, Note_on_c, 0, 86, 32
1, 226061, Note_off_c, 0, 74, 40
1, 226073, Note_off_c, 0, 86, 37
1, 226301, Note_on_c, 0, 40, 26
1, 226308, Note_on_c, 0, 86, 38
1, 226327, Note_on_c, 0, 74, 32
1, 226449, Note_off_c, 0, 40, 38
1, 226653, Note_off_c, 0, 74, 46
1, 226765, Note_off_c, 0, 86, 43
1, 226937, Note_on_c, 0, 68, 29
1, 226953, Note_on_c, 0, 59, 29
1, 226984, Note_on_c, 0, 62, 16
1, 227373, Note_off_c, 0, 59, 33
1, 227379, Note_off_c, 0, 68, 33
1, 227441, Note_off_c, 0, 62, 27
1, 227442, Note_on_c, 0, 97, 55
1, 227469, Note_on_c, 0, 85, 37
1, 227585, Note_off_c, 0, 85, 36
1, 227612, Note_off_c, 0, 97, 52
1, 227773, Note_on_c, 0, 97, 48
1, 227801, Note_on_c, 0, 85, 39
1, 228030, Note_off_c, 0, 97, 63
1, 228167, Note_off_c, 0, 85, 56
1, 228244, Note_on_c, 0, 68, 27
1, 228257, Note_on_c, 0, 62, 25
1, 228261, Note_on_c, 0, 59, 23
1, 228518, Note_on_c, 0, 83, 42
1, 228518, Note_on_c, 0, 95, 52
1, 228552, Note_off_c, 0, 68, 37
1, 228597, Note_off_c, 0, 59, 34
1, 228622, Note_off_c, 0, 62, 30
1, 228647, Note_off_c, 0, 95, 61
1, 228650, Note_off_c, 0, 83, 39
1, 228775, Note_on_c, 0, 95, 45
1, 228787, Note_on_c, 0, 83, 26
1, 228926, Note_off_c, 0, 95, 41
1, 228986, Note_on_c, 0, 68, 32
1, 229011, Note_on_c, 0, 62, 20
1, 229016, Note_on_c, 0, 59, 23
1, 229034, Note_off_c, 0, 83, 42
1, 229175, Note_on_c, 0, 93, 57
1, 229192, Note_on_c, 0, 81, 41
1, 229250, Note_off_c, 0, 81, 40
1, 229272, Note_off_c, 0, 93, 54
1, 229320, Note_off_c, 0, 68, 39
1, 229329, Note_off_c, 0, 59, 37
1, 229360, Note_on_c, 0, 93, 38
1, 229368, Note_off_c, 0, 62, 33
1, 229379, Note_on_c, 0, 81, 43
1, 229506, Note_off_c, 0, 81, 40
1, 229514, Note_off_c, 0, 93, 42
1, 229553, Note_on_c, 0, 68, 33
1, 229577, Note_on_c, 0, 62, 23
1, 229582, Note_on_c, 0, 59, 28
1, 229603, Note_off_c, 0, 68, 52
1, 229707, Note_off_c, 0, 62, 35
1, 229758, Note_off_c, 0, 59, 44
1, 229767, Note_on_c, 0, 92, 56
1, 229773, Note_on_c, 0, 80, 44
1, 229913, Note_off_c, 0, 80, 37
1, 229938, Note_off_c, 0, 92, 58
1, 230030, Control_c, 0, 64, 120
1, 230045, Control_c, 0, 64, 99
1, 230068, Note_on_c, 0, 80, 28
1, 230068, Control_c, 0, 64, 84
1, 230071, Note_on_c, 0, 92, 46
1, 230083, Control_c, 0, 64, 69
1, 230097, Control_c, 0, 64, 49
1, 230108, Note_on_c, 0, 40, 36
1, 230112, Control_c, 0, 64, 23
1, 230127, Control_c, 0, 64, 55
1, 230141, Control_c, 0, 64, 66
1, 230155, Control_c, 0, 64, 74
1, 230170, Control_c, 0, 64, 86
1, 230185, Control_c, 0, 64, 100
1, 230186, Note_off_c, 0, 40, 58
1, 230200, Control_c, 0, 64, 127
1, 230334, Note_off_c, 0, 92, 39
1, 230522, Note_off_c, 0, 80, 26
1, 230601, Note_on_c, 0, 69, 33
1, 230618, Note_on_c, 0, 61, 33
1, 230619, Note_on_c, 0, 64, 31
1, 230873, Note_on_c, 0, 90, 43
1, 230882, Note_on_c, 0, 78, 38
1, 230972, Note_off_c, 0, 90, 55
1, 230980, Note_off_c, 0, 69, 37
1, 230988, Note_off_c, 0, 78, 38
1, 231090, Note_off_c, 0, 64, 35
1, 231096, Note_on_c, 0, 90, 43
1, 231108, Note_on_c, 0, 78, 36
1, 231120, Note_off_c, 0, 61, 36
1, 231194, Note_off_c, 0, 90, 58
1, 231210, Note_off_c, 0, 78, 34
1, 231279, Note_on_c, 0, 61, 37
1, 231281, Note_on_c, 0, 69, 40
1, 231293, Note_on_c, 0, 64, 28
1, 231433, Note_on_c, 0, 88, 57
1, 231446, Note_on_c, 0, 76, 40
1, 231484, Note_off_c, 0, 76, 49
1, 231497, Note_off_c, 0, 88, 57
1, 231546, Note_off_c, 0, 69, 32
1, 231596, Note_off_c, 0, 64, 34
1, 231602, Note_on_c, 0, 88, 55
1, 231611, Note_on_c, 0, 76, 40
1, 231648, Note_off_c, 0, 61, 35
1, 231704, Note_off_c, 0, 88, 39
1, 231732, Note_off_c, 0, 76, 43
1, 231758, Note_on_c, 0, 61, 37
1, 231766, Note_on_c, 0, 64, 39
1, 231768, Note_on_c, 0, 69, 41
1, 231912, Note_on_c, 0, 85, 61
1, 231913, Note_on_c, 0, 73, 60
1, 231970, Note_off_c, 0, 73, 56
1, 231972, Note_off_c, 0, 69, 33
1, 231977, Note_off_c, 0, 85, 59
1, 232036, Note_off_c, 0, 64, 29
1, 232056, Note_off_c, 0, 61, 42
1, 232077, Note_on_c, 0, 85, 62
1, 232087, Note_on_c, 0, 73, 52
1, 232121, Note_off_c, 0, 85, 60
1, 232147, Note_off_c, 0, 73, 55
1, 232244, Note_on_c, 0, 61, 48
1, 232245, Note_on_c, 0, 64, 37
1, 232305, Note_off_c, 0, 64, 59
1, 232359, Note_off_c, 0, 61, 61
1, 232409, Note_on_c, 0, 81, 69
1, 232420, Note_on_c, 0, 69, 55
1, 232470, Note_off_c, 0, 69, 54
1, 232496, Note_off_c, 0, 81, 56
1, 232595, Control_c, 0, 64, 99
1, 232610, Control_c, 0, 64, 81
1, 232612, Note_on_c, 0, 81, 59
1, 232616, Note_on_c, 0, 69, 41
1, 232624, Control_c, 0, 64, 65
1, 232639, Control_c, 0, 64, 0
1, 232647, Note_on_c, 0, 40, 47
1, 232668, Control_c, 0, 64, 35
1, 232683, Control_c, 0, 64, 64
1, 232698, Control_c, 0, 64, 72
1, 232713, Control_c, 0, 64, 83
1, 232728, Control_c, 0, 64, 103
1, 232734, Note_off_c, 0, 40, 62
1, 232742, Control_c, 0, 64, 127
1, 232859, Note_off_c, 0, 81, 34
1, 232892, Note_off_c, 0, 69, 37
1, 232952, Note_on_c, 0, 59, 48
1, 232967, Note_on_c, 0, 62, 44
1, 233011, Note_off_c, 0, 62, 55
1, 233013, Note_off_c, 0, 59, 56
1, 233144, Note_on_c, 0, 80, 69
1, 233165, Note_on_c, 0, 68, 50
1, 233207, Note_off_c, 0, 68, 55
1, 233234, Note_off_c, 0, 80, 56
1, 233329, Control_c, 0, 64, 97
1, 233338, Note_on_c, 0, 80, 66
1, 233341, Note_on_c, 0, 41, 63
1, 233344, Control_c, 0, 64, 78
1, 233354, Note_on_c, 0, 68, 47
1, 233359, Control_c, 0, 64, 62
1, 233374, Control_c, 0, 64, 0
1, 233404, Control_c, 0, 64, 60
1, 233418, Control_c, 0, 64, 68
1, 233425, Note_off_c, 0, 41, 62
1, 233433, Control_c, 0, 64, 79
1, 233448, Control_c, 0, 64, 93
1, 233463, Control_c, 0, 64, 127
1, 233597, Note_on_c, 0, 59, 59
1, 233599, Note_on_c, 0, 62, 56
1, 233629, Note_off_c, 0, 62, 63
1, 233630, Note_off_c, 0, 59, 62
1, 233633, Note_off_c, 0, 80, 38
1, 233639, Note_off_c, 0, 68, 56
1, 233751, Note_on_c, 0, 79, 73
1, 233764, Note_on_c, 0, 67, 55
1, 233815, Note_off_c, 0, 67, 55
1, 233834, Note_off_c, 0, 79, 60
1, 233886, Control_c, 0, 64, 98
1, 233901, Control_c, 0, 64, 74
1, 233909, Note_on_c, 0, 42, 69
1, 233915, Control_c, 0, 64, 23
1, 233922, Note_on_c, 0, 79, 76
1, 233928, Note_on_c, 0, 67, 61
1, 233930, Control_c, 0, 64, 0
1, 233945, Control_c, 0, 64, 54
1, 233949, Note_off_c, 0, 42, 64
1, 233960, Control_c, 0, 64, 68
1, 233975, Control_c, 0, 64, 80
1, 233989, Control_c, 0, 64, 108
1, 234004, Control_c, 0, 64, 127
1, 234077, Note_off_c, 0, 67, 45
1, 234081, Note_on_c, 0, 62, 66
1, 234086, Note_on_c, 0, 59, 63
1, 234097, Note_off_c, 0, 79, 54
1, 234109, Note_off_c, 0, 62, 63
1, 234111, Note_off_c, 0, 59, 65
1, 234229, Note_on_c, 0, 78, 78
1, 234241, Note_on_c, 0, 66, 69
1, 234285, Note_off_c, 0, 66, 54
1, 234300, Note_off_c, 0, 78, 60
1, 234345, Control_c, 0, 64, 108
1, 234360, Control_c, 0, 64, 73
1, 234375, Control_c, 0, 64, 0
1, 234382, Note_on_c, 0, 43, 76
1, 234385, Note_on_c, 0, 78, 78
1, 234392, Note_on_c, 0, 66, 71
1, 234414, Note_off_c, 0, 43, 67
1, 234419, Control_c, 0, 64, 33
1, 234433, Control_c, 0, 64, 66
1, 234448, Control_c, 0, 64, 85
1, 234463, Control_c, 0, 64, 127
1, 234563, Note_on_c, 0, 59, 66
1, 234563, Note_on_c, 0, 62, 62
1, 234575, Control_c, 0, 67, 123
1, 234589, Control_c, 0, 67, 110
1, 234593, Note_off_c, 0, 59, 61
1, 234593, Note_off_c, 0, 62, 62
1, 234604, Control_c, 0, 67, 91
1, 234619, Control_c, 0, 67, 64
1, 234634, Control_c, 0, 67, 35
1, 234647, Control_c, 0, 67, 0
1, 234676, Note_off_c, 0, 66, 58
1, 234694, Note_off_c, 0, 78, 52
1, 234761, Note_on_c, 0, 77, 75
1, 234781, Note_on_c, 0, 65, 55
1, 234954, Note_off_c, 0, 65, 35
1, 234958, Note_off_c, 0, 77, 57
1, 234962, Note_on_c, 0, 44, 69
1, 235034, Control_c, 0, 64, 101
1, 235049, Control_c, 0, 64, 77
1, 235063, Control_c, 0, 64, 0
1, 235079, Note_on_c, 0, 77, 58
1, 235094, Note_on_c, 0, 65, 35
1, 235137, Control_c, 0, 64, 59
1, 235152, Control_c, 0, 64, 71
1, 235167, Control_c, 0, 64, 88
1, 235182, Control_c, 0, 64, 127
1, 235204, Note_off_c, 0, 44, 61
1, 235291, Note_off_c, 0, 65, 43
1, 235311, Note_off_c, 0, 77, 37
1, 235593, Note_on_c, 0, 59, 39
1, 235593, Note_on_c, 0, 61, 40
1, 235600, Note_on_c, 0, 53, 38
1, 235946, Note_on_c, 0, 87, 59
1, 235964, Note_on_c, 0, 75, 45
1, 236069, Note_off_c, 0, 75, 50
1, 236101, Note_off_c, 0, 87, 60
1, 236208, Note_on_c, 0, 87, 72
1, 236212, Note_on_c, 0, 75, 52
1, 236220, Note_off_c, 0, 61, 36
1, 236233, Note_off_c, 0, 59, 28
1, 236288, Note_off_c, 0, 53, 40
1, 236308, Note_off_c, 0, 75, 48
1, 236330, Note_off_c, 0, 87, 64
1, 236411, Note_on_c, 0, 53, 51
1, 236414, Note_on_c, 0, 59, 52
1, 236417, Note_on_c, 0, 61, 52
1, 236518, Note_off_c, 0, 59, 59
1, 236533, Note_off_c, 0, 61, 56
1, 236552, Note_off_c, 0, 53, 65
1, 236563, Note_on_c, 0, 87, 81
1, 236575, Note_on_c, 0, 75, 64
1, 236620, Note_off_c, 0, 75, 52
1, 236644, Note_off_c, 0, 87, 62
1, 236709, Control_c, 0, 64, 99
1, 236720, Note_on_c, 0, 87, 83
1, 236723, Note_on_c, 0, 46, 66
1, 236724, Control_c, 0, 64, 66
1, 236727, Note_on_c, 0, 75, 70
1, 236739, Control_c, 0, 64, 0
1, 236769, Control_c, 0, 64, 75
1, 236784, Control_c, 0, 64, 106
1, 236793, Note_off_c, 0, 46, 61
1, 236806, Control_c, 0, 64, 127
1, 236911, Note_off_c, 0, 75, 55
1, 236935, Note_off_c, 0, 87, 64
1, 236944, Note_on_c, 0, 64, 53
1, 236945, Note_on_c, 0, 55, 54
1, 236951, Note_on_c, 0, 61, 57
1, 237092, Note_on_c, 0, 87, 88
1, 237102, Note_on_c, 0, 75, 73
1, 237162, Note_off_c, 0, 75, 58
1, 237193, Note_off_c, 0, 87, 65
1, 237293, Note_on_c, 0, 87, 90
1, 237306, Note_on_c, 0, 75, 70
1, 237380, Note_off_c, 0, 75, 50
1, 237422, Note_off_c, 0, 64, 33
1, 237426, Note_off_c, 0, 87, 65
1, 237443, Note_off_c, 0, 55, 51
1, 237472, Note_off_c, 0, 61, 32
1, 237584, Note_on_c, 0, 55, 59
1, 237589, Note_on_c, 0, 61, 62
1, 237590, Note_on_c, 0, 64, 58
1, 237675, Note_off_c, 0, 64, 55
1, 237713, Note_off_c, 0, 61, 56
1, 237889, Note_off_c, 0, 55, 38
1, 238009, Note_on_c, 0, 87, 88
1, 238019, Note_on_c, 0, 75, 74
1, 238143, Note_off_c, 0, 75, 36
1, 238177, Note_off_c, 0, 87, 58
1, 238240, Note_on_c, 0, 47, 59
1, 238346, Note_on_c, 0, 87, 83
1, 238349, Control_c, 0, 64, 122
1, 238352, Note_on_c, 0, 75, 74
1, 238363, Control_c, 0, 64, 100
1, 238378, Control_c, 0, 64, 87
1, 238392, Control_c, 0, 64, 74
1, 238406, Control_c, 0, 64, 52
1, 238421, Control_c, 0, 64, 0
1, 238510, Control_c, 0, 64, 46
1, 238525, Control_c, 0, 64, 65
1, 238540, Control_c, 0, 64, 75
1, 238555, Control_c, 0, 64, 93
1, 238569, Control_c, 0, 64, 127
1, 238590, Note_off_c, 0, 47, 55
1, 239275, Note_on_c, 0, 56, 40
1, 239277, Note_on_c, 0, 65, 39
1, 239283, Note_on_c, 0, 61, 41
1, 239336, Note_off_c, 0, 61, 55
1, 239338, Note_off_c, 0, 56, 57
1, 239338, Note_off_c, 0, 65, 56
1, 239468, Note_on_c, 0, 65, 45
1, 239477, Note_on_c, 0, 56, 37
1, 239495, Note_on_c, 0, 61, 38
1, 239860, Note_off_c, 0, 87, 52
1, 239919, Note_off_c, 0, 75, 38
1, 240437, Note_on_c, 0, 85, 51
1, 240450, Note_on_c, 0, 73, 42
1, 240571, Note_off_c, 0, 85, 61
1, 240683, Note_off_c, 0, 73, 52
1, 240886, Note_on_c, 0, 83, 54
1, 240905, Note_on_c, 0, 71, 39
1, 240961, Note_off_c, 0, 71, 59
1, 240972, Note_off_c, 0, 83, 61
1, 241109, Note_off_c, 0, 65, 33
1, 241112, Note_on_c, 0, 82, 66
1, 241127, Note_on_c, 0, 70, 56
1, 241184, Note_off_c, 0, 82, 60
1, 241185, Note_off_c, 0, 70, 59
1, 241260, Note_off_c, 0, 61, 42
1, 241306, Note_on_c, 0, 80, 61
1, 241316, Note_on_c, 0, 68, 54
1, 241339, Note_off_c, 0, 56, 58
1, 241380, Note_off_c, 0, 68, 56
1, 241384, Note_off_c, 0, 80, 59
1, 241488, Note_on_c, 0, 78, 60
1, 241501, Note_on_c, 0, 66, 53
1, 241628, Note_off_c, 0, 78, 59
1, 241662, Note_off_c, 0, 66, 40
1, 241666, Note_on_c, 0, 47, 45
1, 241683, Control_c, 0, 64, 105
1, 241697, Control_c, 0, 64, 85
1, 241712, Control_c, 0, 64, 67
1, 241727, Control_c, 0, 64, 0
1, 241742, Note_on_c, 0, 65, 44
1, 241742, Note_on_c, 0, 77, 51
1, 241771, Control_c, 0, 64, 45
1, 241786, Control_c, 0, 64, 65
1, 241795, Note_off_c, 0, 47, 58
1, 241801, Control_c, 0, 64, 75
1, 241816, Control_c, 0, 64, 87
1, 241831, Control_c, 0, 64, 104
1, 241845, Control_c, 0, 64, 127
1, 241887, Note_off_c, 0, 65, 38
1, 241968, Note_off_c, 0, 77, 46
1, 242185, Note_on_c, 0, 58, 31
1, 242203, Note_on_c, 0, 61, 30
1, 242215, Poly_aftertouch_c, 0, 67, 127
1, 242415, Note_on_c, 0, 87, 69
1, 242432, Note_on_c, 0, 75, 51
1, 242434, Poly_aftertouch_c, 0, 67, 0
1, 242464, Note_off_c, 0, 58, 44
1, 242469, Note_off_c, 0, 61, 42
1, 242474, Note_off_c, 0, 75, 58
1, 242495, Note_off_c, 0, 87, 62
1, 242595, Note_on_c, 0, 87, 83
1, 242600, Note_on_c, 0, 75, 66
1, 242675, Note_off_c, 0, 75, 52
1, 242700, Note_off_c, 0, 87, 60
1, 242775, Note_on_c, 0, 58, 35
1, 242817, Note_off_c, 0, 58, 52
1, 242915, Note_on_c, 0, 87, 77
1, 242919, Note_on_c, 0, 75, 68
1, 242972, Note_off_c, 0, 75, 59
1, 242993, Note_off_c, 0, 87, 61
1, 243048, Control_c, 0, 64, 93
1, 243063, Control_c, 0, 64, 71
1, 243077, Control_c, 0, 64, 42
1, 243081, Note_on_c, 0, 40, 54
1, 243082, Note_on_c, 0, 87, 85
1, 243085, Note_on_c, 0, 75, 71
1, 243092, Control_c, 0, 64, 50
1, 243107, Control_c, 0, 64, 67
1, 243112, Note_off_c, 0, 40, 64
1, 243122, Control_c, 0, 64, 77
1, 243137, Control_c, 0, 64, 92
1, 243151, Control_c, 0, 64, 127
1, 243258, Note_off_c, 0, 87, 59
1, 243285, Note_off_c, 0, 75, 53
1, 243292, Note_on_c, 0, 67, 55
1, 243306, Note_on_c, 0, 58, 43
1, 243315, Note_on_c, 0, 61, 42
1, 243330, Note_off_c, 0, 67, 58
1, 243351, Note_off_c, 0, 58, 54
1, 243354, Note_off_c, 0, 61, 48
1, 243452, Note_on_c, 0, 85, 85
1, 243458, Note_on_c, 0, 73, 76
1, 243516, Note_off_c, 0, 73, 61
1, 243552, Note_off_c, 0, 85, 62
1, 243641, Note_on_c, 0, 87, 90
1, 243650, Note_on_c, 0, 75, 77
1, 243722, Note_off_c, 0, 75, 56
1, 243753, Note_off_c, 0, 87, 64
1, 243852, Note_on_c, 0, 67, 56
1, 243859, Note_on_c, 0, 61, 55
1, 243868, Note_on_c, 0, 58, 48
1, 243892, Note_off_c, 0, 67, 58
1, 243949, Note_off_c, 0, 61, 59
1, 243971, Note_off_c, 0, 58, 61
1, 244121, Note_on_c, 0, 85, 86
1, 244134, Note_on_c, 0, 73, 73
1, 244206, Note_off_c, 0, 73, 58
1, 244414, Note_off_c, 0, 85, 55
1, 244441, Note_on_c, 0, 41, 52
1, 244610, Note_on_c, 0, 94, 74
1, 244620, Control_c, 0, 64, 115
1, 244632, Note_on_c, 0, 82, 62
1, 244635, Control_c, 0, 64, 97
1, 244649, Control_c, 0, 64, 84
1, 244664, Control_c, 0, 64, 69
1, 244679, Control_c, 0, 64, 0
1, 244783, Control_c, 0, 64, 59
1, 244797, Control_c, 0, 64, 80
1, 244812, Control_c, 0, 64, 127
1, 244827, Note_off_c, 0, 41, 61
1, 245649, Note_on_c, 0, 68, 24
1, 245653, Note_on_c, 0, 61, 30
1, 245659, Note_on_c, 0, 59, 23
1, 245698, Note_off_c, 0, 68, 47
1, 245707, Note_off_c, 0, 59, 47
1, 245709, Note_off_c, 0, 61, 43
1, 245836, Note_on_c, 0, 68, 34
1, 245841, Note_on_c, 0, 61, 25
1, 245843, Note_on_c, 0, 59, 36
1, 246040, Note_off_c, 0, 94, 55
1, 246046, Note_off_c, 0, 82, 38
1, 246916, Note_on_c, 0, 92, 67
1, 246934, Note_on_c, 0, 80, 46
1, 246993, Note_off_c, 0, 80, 51
1, 247036, Note_off_c, 0, 92, 63
1, 247485, Note_on_c, 0, 90, 63
1, 247525, Note_on_c, 0, 78, 40
1, 247671, Note_off_c, 0, 68, 35
1, 247703, Note_off_c, 0, 78, 37
1, 247705, Note_off_c, 0, 90, 57
1, 247798, Note_on_c, 0, 89, 61
1, 247816, Note_on_c, 0, 77, 44
1, 247867, Note_off_c, 0, 89, 56
1, 247913, Note_off_c, 0, 77, 49
1, 248126, Control_c, 0, 67, 9
1, 248129, Note_on_c, 0, 84, 48
1, 248141, Control_c, 0, 67, 19
1, 248144, Note_on_c, 0, 72, 29
1, 248156, Control_c, 0, 67, 33
1, 248171, Control_c, 0, 67, 48
1, 248186, Control_c, 0, 67, 65
1, 248200, Control_c, 0, 67, 83
1, 248215, Control_c, 0, 67, 103
1, 248230, Control_c, 0, 67, 118
1, 248236, Note_off_c, 0, 61, 35
1, 248245, Control_c, 0, 67, 127
1, 248264, Note_off_c, 0, 72, 44
1, 248284, Note_off_c, 0, 59, 40
1, 248603, Note_on_c, 0, 85, 50
1, 248621, Note_on_c, 0, 73, 38
1, 248681, Note_off_c, 0, 84, 25
1, 248883, Note_off_c, 0, 73, 46
1, 249145, Note_on_c, 0, 75, 38
1, 249185, Note_off_c, 0, 85, 53
1, 249300, Note_on_c, 0, 87, 48
1, 249330, Note_on_c, 0, 37, 37
1, 249335, Control_c, 0, 64, 106
1, 249350, Control_c, 0, 64, 89
1, 249365, Control_c, 0, 64, 74
1, 249380, Control_c, 0, 64, 0
1, 249468, Control_c, 0, 64, 63
1, 249483, Control_c, 0, 64, 87
1, 249498, Control_c, 0, 64, 127
1, 249517, Note_off_c, 0, 37, 42
1, 249546, Note_off_c, 0, 87, 42
1, 249763, Note_off_c, 0, 75, 36
1, 250713, Note_on_c, 0, 68, 33
1, 250724, Note_on_c, 0, 61, 30
1, 250732, Note_on_c, 0, 59, 23
1, 250733, Note_on_c, 0, 53, 32
1, 250805, Note_off_c, 0, 53, 53
1, 250806, Note_off_c, 0, 59, 41
1, 250824, Note_off_c, 0, 68, 37
1, 250834, Note_off_c, 0, 61, 34
1, 250966, Note_on_c, 0, 61, 19
1, 250967, Note_on_c, 0, 59, 11
1, 250968, Note_on_c, 0, 68, 22
1, 250988, Note_on_c, 0, 53, 21
1, 251214, Note_off_c, 0, 68, 27
1, 252322, Note_on_c, 0, 85, 49
1, 252358, Note_on_c, 0, 73, 37
1, 252511, Note_off_c, 0, 85, 62
1, 252691, Note_off_c, 0, 73, 47
1, 253057, Note_on_c, 0, 83, 50
1, 253080, Note_on_c, 0, 71, 41
1, 253193, Note_off_c, 0, 83, 39
1, 253224, Note_off_c, 0, 71, 38
1, 253428, Note_off_c, 0, 61, 37
1, 253503, Note_on_c, 0, 79, 58
1, 253518, Note_on_c, 0, 67, 44
1, 253709, Note_off_c, 0, 67, 32
1, 253882, Note_off_c, 0, 53, 35
1, 253914, Note_off_c, 0, 59, 38
1, 253992, Note_off_c, 0, 79, 37
1, 254330, Note_on_c, 0, 80, 38
1, 254345, Note_on_c, 0, 68, 27
1, 254487, Control_c, 0, 64, 118
1, 254501, Control_c, 0, 64, 110
1, 254516, Control_c, 0, 64, 105
1, 254531, Control_c, 0, 64, 101
1, 254546, Control_c, 0, 64, 98
1, 254560, Control_c, 0, 64, 95
1, 254575, Control_c, 0, 64, 92
1, 254590, Control_c, 0, 64, 90
1, 254605, Control_c, 0, 64, 88
1, 254620, Control_c, 0, 64, 86
1, 254634, Control_c, 0, 64, 84
1, 254650, Control_c, 0, 64, 82
1, 254665, Control_c, 0, 64, 79
1, 254680, Control_c, 0, 64, 77
1, 254695, Control_c, 0, 64, 74
1, 254710, Control_c, 0, 64, 71
1, 254724, Control_c, 0, 64, 67
1, 254739, Control_c, 0, 64, 64
1, 254754, Control_c, 0, 64, 63
1, 254769, Control_c, 0, 64, 61
1, 254791, Control_c, 0, 64, 60
1, 254806, Control_c, 0, 64, 59
1, 254821, Control_c, 0, 64, 55
1, 254836, Control_c, 0, 64, 48
1, 254851, Control_c, 0, 64, 37
1, 254865, Control_c, 0, 64, 19
1, 254880, Control_c, 0, 64, 0
1, 254939, Control_c, 0, 64, 17
1, 254954, Control_c, 0, 64, 40
1, 254969, Control_c, 0, 64, 54
1, 254983, Control_c, 0, 64, 61
1, 254998, Control_c, 0, 64, 64
1, 255013, Control_c, 0, 64, 69
1, 255028, Control_c, 0, 64, 73
1, 255043, Control_c, 0, 64, 79
1, 255057, Control_c, 0, 64, 85
1, 255072, Control_c, 0, 64, 91
1, 255087, Control_c, 0, 64, 97
1, 255102, Control_c, 0, 64, 104
1, 255117, Control_c, 0, 64, 112
1, 255131, Control_c, 0, 64, 127
1, 255245, Note_off_c, 0, 68, 41
1, 255453, Note_off_c, 0, 80, 36
1, 255875, Note_on_c, 0, 81, 35
1, 255879, Note_on_c, 0, 69, 33
1, 255984, Control_c, 0, 64, 116
1, 255999, Control_c, 0, 64, 108
1, 256014, Control_c, 0, 64, 103
1, 256029, Control_c, 0, 64, 98
1, 256043, Control_c, 0, 64, 92
1, 256058, Control_c, 0, 64, 87
1, 256073, Control_c, 0, 64, 82
1, 256088, Control_c, 0, 64, 77
1, 256103, Control_c, 0, 64, 72
1, 256118, Control_c, 0, 64, 67
1, 256132, Control_c, 0, 64, 61
1, 256147, Control_c, 0, 64, 49
1, 256162, Control_c, 0, 64, 43
1, 256177, Control_c, 0, 64, 42
1, 256318, Control_c, 0, 64, 43
1, 256348, Control_c, 0, 64, 43
1, 256392, Control_c, 0, 64, 44
1, 256437, Control_c, 0, 64, 44
1, 256497, Control_c, 0, 64, 45
1, 256526, Control_c, 0, 64, 45
1, 256555, Control_c, 0, 64, 46
1, 256570, Control_c, 0, 64, 46
1, 256585, Control_c, 0, 64, 47
1, 256600, Control_c, 0, 64, 48
1, 256615, Control_c, 0, 64, 49
1, 256629, Control_c, 0, 64, 50
1, 256644, Control_c, 0, 64, 52
1, 256659, Control_c, 0, 64, 53
1, 256674, Control_c, 0, 64, 54
1, 256689, Control_c, 0, 64, 55
1, 256703, Control_c, 0, 64, 57
1, 256718, Control_c, 0, 64, 59
1, 256733, Control_c, 0, 64, 60
1, 256747, Control_c, 0, 64, 61
1, 256762, Control_c, 0, 64, 62
1, 256777, Control_c, 0, 64, 63
1, 256792, Control_c, 0, 64, 63
1, 256807, Control_c, 0, 64, 65
1, 256821, Control_c, 0, 64, 66
1, 256836, Control_c, 0, 64, 67
1, 256851, Control_c, 0, 64, 68
1, 256866, Control_c, 0, 64, 70
1, 256881, Control_c, 0, 64, 71
1, 256896, Control_c, 0, 64, 74
1, 256911, Control_c, 0, 64, 78
1, 256926, Control_c, 0, 64, 81
1, 256941, Control_c, 0, 64, 84
1, 256955, Control_c, 0, 64, 87
1, 256970, Control_c, 0, 64, 89
1, 256985, Control_c, 0, 64, 92
1, 257000, Control_c, 0, 64, 97
1, 257015, Control_c, 0, 64, 102
1, 257036, Control_c, 0, 64, 109
1, 257052, Control_c, 0, 64, 120
1, 257067, Control_c, 0, 64, 127
1, 257185, Note_off_c, 0, 81, 40
1, 257245, Control_c, 0, 67, 126
1, 257260, Control_c, 0, 67, 124
1, 257275, Control_c, 0, 67, 121
1, 257289, Control_c, 0, 67, 118
1, 257304, Control_c, 0, 67, 113
1, 257319, Control_c, 0, 67, 106
1, 257334, Control_c, 0, 67, 99
1, 257349, Control_c, 0, 67, 90
1, 257364, Control_c, 0, 67, 80
1, 257378, Control_c, 0, 67, 69
1, 257393, Control_c, 0, 67, 57
1, 257408, Control_c, 0, 67, 43
1, 257423, Control_c, 0, 67, 31
1, 257438, Control_c, 0, 67, 19
1, 257452, Control_c, 0, 67, 0
1, 257491, Note_off_c, 0, 69, 37
1, 258106, Note_on_c, 0, 42, 40
1, 258137, Note_on_c, 0, 49, 47
1, 258193, Note_on_c, 0, 54, 47
1, 258258, Note_on_c, 0, 58, 66
1, 258266, Note_on_c, 0, 70, 60
1, 258305, Control_c, 0, 64, 119
1, 258319, Control_c, 0, 64, 113
1, 258334, Control_c, 0, 64, 108
1, 258349, Control_c, 0, 64, 104
1, 258364, Control_c, 0, 64, 100
1, 258379, Control_c, 0, 64, 96
1, 258393, Control_c, 0, 64, 91
1, 258408, Control_c, 0, 64, 87
1, 258423, Control_c, 0, 64, 81
1, 258438, Control_c, 0, 64, 75
1, 258453, Control_c, 0, 64, 69
1, 258467, Control_c, 0, 64, 63
1, 258482, Control_c, 0, 64, 50
1, 258497, Control_c, 0, 64, 23
1, 258512, Control_c, 0, 64, 0
1, 258594, Control_c, 0, 64, 24
1, 258609, Control_c, 0, 64, 37
1, 258624, Control_c, 0, 64, 47
1, 258639, Control_c, 0, 64, 53
1, 258655, Control_c, 0, 64, 58
1, 258670, Control_c, 0, 64, 61
1, 258685, Control_c, 0, 64, 63
1, 258699, Control_c, 0, 64, 65
1, 258714, Control_c, 0, 64, 68
1, 258729, Control_c, 0, 64, 70
1, 258744, Control_c, 0, 64, 73
1, 258758, Control_c, 0, 64, 76
1, 258773, Control_c, 0, 64, 78
1, 258788, Control_c, 0, 64, 81
1, 258798, Note_on_c, 0, 61, 38
1, 258803, Control_c, 0, 64, 84
1, 258818, Control_c, 0, 64, 87
1, 258832, Control_c, 0, 64, 91
1, 258847, Control_c, 0, 64, 95
1, 258862, Control_c, 0, 64, 100
1, 258877, Control_c, 0, 64, 106
1, 258892, Control_c, 0, 64, 113
1, 258906, Control_c, 0, 64, 127
1, 259073, Note_on_c, 0, 66, 40
1, 259158, Note_off_c, 0, 61, 41
1, 259242, Note_off_c, 0, 58, 36
1, 259245, Note_off_c, 0, 54, 32
1, 259290, Note_on_c, 0, 61, 48
1, 259352, Note_off_c, 0, 49, 32
1, 259421, Note_off_c, 0, 42, 43
1, 259446, Note_off_c, 0, 66, 34
1, 259469, Note_on_c, 0, 58, 48
1, 259620, Note_on_c, 0, 66, 50
1, 259622, Note_on_c, 0, 40, 57
1, 259673, Note_off_c, 0, 58, 55
1, 259679, Note_off_c, 0, 70, 28
1, 259689, Note_off_c, 0, 61, 49
1, 259709, Note_on_c, 0, 47, 56
1, 259713, Note_off_c, 0, 40, 59
1, 259749, Note_off_c, 0, 47, 62
1, 259759, Note_on_c, 0, 52, 61
1, 259763, Note_off_c, 0, 66, 60
1, 259862, Note_on_c, 0, 59, 71
1, 259862, Note_on_c, 0, 71, 72
1, 259865, Note_off_c, 0, 52, 51
1, 259913, Note_on_c, 0, 56, 57
1, 259936, Control_c, 0, 64, 110
1, 259951, Control_c, 0, 64, 94
1, 259965, Control_c, 0, 64, 80
1, 259980, Control_c, 0, 64, 65
1, 259995, Control_c, 0, 64, 0
1, 260047, Control_c, 0, 64, 51
1, 260062, Control_c, 0, 64, 64
1, 260077, Control_c, 0, 64, 71
1, 260092, Control_c, 0, 64, 81
1, 260106, Control_c, 0, 64, 95
1, 260112, Note_on_c, 0, 64, 49
1, 260121, Control_c, 0, 64, 118
1, 260136, Control_c, 0, 64, 127
1, 260314, Note_on_c, 0, 68, 48
1, 260333, Note_off_c, 0, 56, 61
1, 260338, Note_off_c, 0, 64, 37
1, 260479, Note_off_c, 0, 59, 36
1, 260491, Note_on_c, 0, 64, 44
1, 260604, Note_off_c, 0, 68, 29
1, 260659, Note_off_c, 0, 64, 54
1, 260672, Note_on_c, 0, 59, 44
1, 260860, Note_on_c, 0, 68, 46
1, 261038, Note_on_c, 0, 64, 52
1, 261048, Note_off_c, 0, 59, 35
1, 261219, Note_off_c, 0, 64, 57
1, 261220, Note_on_c, 0, 59, 50
1, 261274, Note_off_c, 0, 68, 19
1, 261409, Note_on_c, 0, 64, 50
1, 261594, Note_on_c, 0, 68, 54
1, 261654, Note_off_c, 0, 64, 52
1, 261662, Note_off_c, 0, 59, 32
1, 261787, Note_on_c, 0, 64, 55
1, 261847, Note_off_c, 0, 71, 53
1, 261934, Note_on_c, 0, 59, 59
1, 261963, Note_on_c, 0, 42, 53
1, 261978, Note_off_c, 0, 59, 58
1, 262003, Note_on_c, 0, 49, 57
1, 262082, Note_on_c, 0, 54, 60
1, 262104, Note_off_c, 0, 64, 62
1, 262106, Note_on_c, 0, 70, 76
1, 262111, Note_on_c, 0, 58, 70
1, 262154, Note_off_c, 0, 68, 39
1, 262154, Control_c, 0, 64, 115
1, 262168, Control_c, 0, 64, 104
1, 262183, Control_c, 0, 64, 94
1, 262198, Control_c, 0, 64, 82
1, 262213, Control_c, 0, 64, 69
1, 262228, Control_c, 0, 64, 0
1, 262320, Note_on_c, 0, 61, 52
1, 262324, Control_c, 0, 64, 46
1, 262339, Control_c, 0, 64, 64
1, 262354, Control_c, 0, 64, 71
1, 262368, Control_c, 0, 64, 79
1, 262383, Control_c, 0, 64, 89
1, 262398, Control_c, 0, 64, 98
1, 262413, Control_c, 0, 64, 108
1, 262428, Control_c, 0, 64, 127
1, 262456, Note_off_c, 0, 54, 37
1, 262515, Note_on_c, 0, 66, 58
1, 262572, Note_off_c, 0, 61, 56
1, 262691, Note_on_c, 0, 61, 68
1, 262691, Note_off_c, 0, 58, 38
1, 262762, Note_off_c, 0, 49, 37
1, 262788, Note_off_c, 0, 42, 51
1, 262843, Note_off_c, 0, 66, 34
1, 262860, Note_on_c, 0, 58, 59
1, 262965, Note_on_c, 0, 37, 58
1, 263005, Note_on_c, 0, 66, 53
1, 263041, Note_on_c, 0, 44, 61
1, 263041, Note_off_c, 0, 37, 60
1, 263115, Note_off_c, 0, 70, 36
1, 263137, Note_on_c, 0, 49, 62
1, 263176, Note_off_c, 0, 58, 57
1, 263320, Note_on_c, 0, 68, 71
1, 263326, Note_on_c, 0, 56, 72
1, 263370, Note_off_c, 0, 61, 58
1, 263377, Note_off_c, 0, 66, 54
1, 263396, Note_on_c, 0, 54, 67
1, 263428, Control_c, 0, 64, 124
1, 263444, Control_c, 0, 64, 113
1, 263459, Control_c, 0, 64, 106
1, 263474, Control_c, 0, 64, 99
1, 263488, Control_c, 0, 64, 93
1, 263503, Control_c, 0, 64, 87
1, 263518, Control_c, 0, 64, 80
1, 263533, Control_c, 0, 64, 72
1, 263547, Control_c, 0, 64, 62
1, 263562, Control_c, 0, 64, 0
1, 263731, Note_on_c, 0, 61, 41
1, 263740, Control_c, 0, 64, 56
1, 263755, Control_c, 0, 64, 65
1, 263777, Control_c, 0, 64, 69
1, 263792, Control_c, 0, 64, 75
1, 263807, Control_c, 0, 64, 82
1, 263821, Control_c, 0, 64, 89
1, 263836, Control_c, 0, 64, 96
1, 263850, Control_c, 0, 64, 103
1, 263865, Control_c, 0, 64, 110
1, 263880, Control_c, 0, 64, 121
1, 263895, Control_c, 0, 64, 127
1, 263937, Note_on_c, 0, 66, 47
1, 263973, Note_off_c, 0, 61, 41
1, 264103, Note_off_c, 0, 56, 38
1, 264113, Note_on_c, 0, 61, 38
1, 264291, Note_on_c, 0, 56, 46
1, 264316, Note_off_c, 0, 61, 42
1, 264358, Note_off_c, 0, 66, 33
1, 264479, Note_on_c, 0, 66, 50
1, 264674, Note_on_c, 0, 61, 46
1, 264685, Note_off_c, 0, 56, 36
1, 264860, Note_on_c, 0, 56, 34
1, 264863, Note_off_c, 0, 61, 37
1, 265046, Note_on_c, 0, 61, 38
1, 265055, Note_off_c, 0, 66, 32
1, 265070, Note_off_c, 0, 54, 28
1, 265281, Note_on_c, 0, 65, 41
1, 265289, Note_on_c, 0, 53, 52
1, 265290, Control_c, 0, 64, 119
1, 265305, Control_c, 0, 64, 112
1, 265305, Note_off_c, 0, 61, 40
1, 265319, Control_c, 0, 64, 104
1, 265334, Control_c, 0, 64, 96
1, 265341, Note_off_c, 0, 56, 36
1, 265349, Control_c, 0, 64, 86
1, 265364, Control_c, 0, 64, 75
1, 265379, Control_c, 0, 64, 63
1, 265393, Control_c, 0, 64, 31
1, 265408, Control_c, 0, 64, 30
1, 265423, Control_c, 0, 64, 54
1, 265438, Control_c, 0, 64, 64
1, 265453, Control_c, 0, 64, 67
1, 265467, Control_c, 0, 64, 72
1, 265482, Control_c, 0, 64, 78
1, 265496, Note_on_c, 0, 61, 43
1, 265497, Control_c, 0, 64, 85
1, 265511, Control_c, 0, 64, 94
1, 265519, Note_off_c, 0, 49, 50
1, 265526, Control_c, 0, 64, 103
1, 265541, Control_c, 0, 64, 114
1, 265556, Control_c, 0, 64, 127
1, 265577, Note_off_c, 0, 53, 38
1, 265624, Note_off_c, 0, 44, 59
1, 265639, Note_on_c, 0, 56, 50
1, 265654, Note_off_c, 0, 68, 40
1, 265737, Note_off_c, 0, 56, 58
1, 265742, Note_on_c, 0, 39, 49
1, 265779, Note_on_c, 0, 46, 53
1, 265833, Note_on_c, 0, 51, 53
1, 265843, Note_on_c, 0, 66, 61
1, 265851, Note_on_c, 0, 54, 58
1, 265882, Note_off_c, 0, 61, 41
1, 265896, Note_off_c, 0, 65, 52
1, 265898, Control_c, 0, 64, 120
1, 265913, Control_c, 0, 64, 105
1, 265928, Control_c, 0, 64, 94
1, 265942, Control_c, 0, 64, 83
1, 265957, Control_c, 0, 64, 72
1, 265972, Control_c, 0, 64, 59
1, 265987, Control_c, 0, 64, 0
1, 266056, Note_on_c, 0, 58, 47
1, 266218, Note_on_c, 0, 63, 52
1, 266244, Control_c, 0, 64, 11
1, 266259, Control_c, 0, 64, 56
1, 266268, Note_off_c, 0, 58, 51
1, 266274, Control_c, 0, 64, 64
1, 266289, Control_c, 0, 64, 69
1, 266301, Note_off_c, 0, 54, 37
1, 266304, Control_c, 0, 64, 75
1, 266319, Control_c, 0, 64, 82
1, 266333, Control_c, 0, 64, 89
1, 266348, Control_c, 0, 64, 97
1, 266363, Control_c, 0, 64, 106
1, 266378, Control_c, 0, 64, 127
1, 266387, Note_on_c, 0, 58, 61
1, 266547, Note_on_c, 0, 54, 60
1, 266578, Note_off_c, 0, 63, 37
1, 266710, Note_on_c, 0, 63, 55
1, 266734, Note_off_c, 0, 46, 32
1, 266808, Note_off_c, 0, 51, 36
1, 266837, Note_off_c, 0, 54, 55
1, 266855, Note_off_c, 0, 66, 33
1, 266930, Note_on_c, 0, 65, 66
1, 266946, Note_on_c, 0, 53, 52
1, 266971, Note_off_c, 0, 58, 37
1, 266998, Note_off_c, 0, 63, 37
1, 267008, Note_on_c, 0, 45, 48
1, 267008, Control_c, 0, 64, 118
1, 267011, Note_on_c, 0, 41, 45
1, 267023, Control_c, 0, 64, 102
1, 267037, Control_c, 0, 64, 91
1, 267052, Control_c, 0, 64, 79
1, 267067, Control_c, 0, 64, 66
1, 267082, Control_c, 0, 64, 0
1, 267129, Note_off_c, 0, 39, 31
1, 267183, Note_on_c, 0, 57, 58
1, 267245, Control_c, 0, 64, 65
1, 267260, Control_c, 0, 64, 78
1, 267275, Control_c, 0, 64, 97
1, 267289, Control_c, 0, 64, 127
1, 267374, Note_on_c, 0, 60, 60
1, 267437, Note_off_c, 0, 57, 56
1, 267441, Note_off_c, 0, 53, 35
1, 267558, Note_on_c, 0, 57, 67
1, 267735, Note_on_c, 0, 53, 64
1, 267874, Note_off_c, 0, 60, 59
1, 267884, Note_off_c, 0, 57, 58
1, 267902, Note_off_c, 0, 53, 61
1, 267904, Note_on_c, 0, 51, 69
1, 267931, Note_off_c, 0, 41, 40
1, 267934, Note_off_c, 0, 45, 50
1, 267943, Note_off_c, 0, 51, 66
1, 268027, Note_on_c, 0, 34, 63
1, 268059, Note_off_c, 0, 34, 62
1, 268132, Note_off_c, 0, 65, 37
1, 268133, Note_on_c, 0, 50, 75
1, 268186, Control_c, 0, 64, 90
1, 268201, Control_c, 0, 64, 63
1, 268216, Control_c, 0, 64, 0
1, 268247, Control_c, 0, 64, 35
1, 268269, Control_c, 0, 64, 72
1, 268283, Control_c, 0, 64, 100
1, 268298, Control_c, 0, 64, 127
1, 268328, Note_on_c, 0, 65, 53
1, 268334, Note_on_c, 0, 58, 49
1, 268402, Note_off_c, 0, 50, 62
1, 268469, Note_off_c, 0, 58, 57
1, 268471, Note_off_c, 0, 65, 60
1, 268477, Note_on_c, 0, 62, 66
1, 268508, Note_off_c, 0, 62, 63
1, 268631, Note_on_c, 0, 53, 81
1, 268794, Note_on_c, 0, 70, 58
1, 268802, Note_on_c, 0, 62, 54
1, 268956, Note_on_c, 0, 65, 61
1, 268963, Note_off_c, 0, 62, 49
1, 268998, Note_off_c, 0, 65, 64
1, 269010, Note_off_c, 0, 70, 58
1, 269116, Note_on_c, 0, 58, 88
1, 269293, Note_on_c, 0, 74, 68
1, 269306, Note_on_c, 0, 65, 56
1, 269453, Note_on_c, 0, 70, 56
1, 269590, Note_on_c, 0, 62, 85
1, 269615, Note_off_c, 0, 65, 36
1, 269636, Note_off_c, 0, 53, 63
1, 269674, Note_off_c, 0, 70, 36
1, 269675, Note_off_c, 0, 74, 55
1, 269688, Note_off_c, 0, 58, 61
1, 269764, Note_on_c, 0, 77, 63
1, 269782, Note_on_c, 0, 70, 53
1, 269887, Note_on_c, 0, 53, 64
1, 269893, Note_off_c, 0, 62, 53
1, 269896, Note_on_c, 0, 74, 60
1, 269947, Note_off_c, 0, 77, 39
1, 269970, Note_on_c, 0, 58, 65
1, 270045, Note_off_c, 0, 74, 55
1, 270046, Note_on_c, 0, 63, 68
1, 270064, Note_off_c, 0, 53, 41
1, 270086, Note_off_c, 0, 70, 26
1, 270201, Note_on_c, 0, 67, 88
1, 270255, Control_c, 0, 64, 113
1, 270270, Control_c, 0, 64, 94
1, 270285, Control_c, 0, 64, 77
1, 270299, Control_c, 0, 64, 43
1, 270314, Control_c, 0, 64, 0
1, 270462, Control_c, 0, 64, 81
1, 270477, Control_c, 0, 64, 127
1, 270586, Note_on_c, 0, 79, 79
1, 270630, Note_on_c, 0, 70, 39
1, 270668, Note_off_c, 0, 67, 47
1, 270705, Note_off_c, 0, 70, 41
1, 270843, Note_off_c, 0, 63, 57
1, 270890, Note_on_c, 0, 75, 65
1, 270950, Note_off_c, 0, 79, 41
1, 271044, Note_off_c, 0, 58, 58
1, 271113, Note_on_c, 0, 70, 56
1, 271303, Note_on_c, 0, 63, 52
1, 271376, Note_off_c, 0, 75, 61
1, 271476, Note_on_c, 0, 55, 65
1, 271531, Note_off_c, 0, 55, 59
1, 271547, Note_off_c, 0, 70, 38
1, 271624, Note_off_c, 0, 63, 38
1, 271630, Note_on_c, 0, 41, 50
1, 271734, Note_off_c, 0, 41, 38
1, 271735, Note_on_c, 0, 51, 51
1, 271967, Note_on_c, 0, 57, 55
1, 272042, Control_c, 0, 64, 120
1, 272057, Control_c, 0, 64, 98
1, 272072, Control_c, 0, 64, 83
1, 272087, Control_c, 0, 64, 68
1, 272102, Control_c, 0, 64, 0
1, 272161, Control_c, 0, 64, 49
1, 272176, Control_c, 0, 64, 63
1, 272191, Control_c, 0, 64, 67
1, 272205, Control_c, 0, 64, 71
1, 272221, Control_c, 0, 64, 78
1, 272236, Control_c, 0, 64, 83
1, 272251, Control_c, 0, 64, 88
1, 272266, Control_c, 0, 64, 93
1, 272280, Control_c, 0, 64, 96
1, 272295, Control_c, 0, 64, 98
1, 272310, Control_c, 0, 64, 100
1, 272318, Note_off_c, 0, 57, 61
1, 272325, Control_c, 0, 64, 101
1, 272340, Control_c, 0, 64, 102
1, 272349, Note_on_c, 0, 58, 59
1, 272355, Control_c, 0, 64, 102
1, 272488, Control_c, 0, 64, 102
1, 272619, Note_on_c, 0, 57, 58
1, 272621, Control_c, 0, 64, 101
1, 272650, Control_c, 0, 64, 101
1, 272653, Note_off_c, 0, 51, 40
1, 272680, Control_c, 0, 64, 100
1, 272725, Control_c, 0, 64, 100
1, 272762, Control_c, 0, 64, 99
1, 272776, Control_c, 0, 64, 99
1, 272781, Note_off_c, 0, 58, 32
1, 272787, Note_on_c, 0, 55, 67
1, 272791, Note_off_c, 0, 57, 60
1, 272791, Control_c, 0, 64, 98
1, 272806, Control_c, 0, 64, 98
1, 272835, Control_c, 0, 64, 97
1, 272850, Control_c, 0, 64, 97
1, 272865, Control_c, 0, 64, 96
1, 272880, Control_c, 0, 64, 96
1, 272895, Control_c, 0, 64, 95
1, 272904, Note_on_c, 0, 57, 65
1, 272909, Control_c, 0, 64, 95
1, 272924, Control_c, 0, 64, 94
1, 272929, Note_off_c, 0, 55, 49
1, 272939, Control_c, 0, 64, 93
1, 272954, Control_c, 0, 64, 92
1, 272969, Control_c, 0, 64, 91
1, 272984, Control_c, 0, 64, 90
1, 272999, Control_c, 0, 64, 88
1, 273014, Control_c, 0, 64, 87
1, 273029, Control_c, 0, 64, 85
1, 273044, Control_c, 0, 64, 82
1, 273059, Control_c, 0, 64, 80
1, 273064, Note_on_c, 0, 62, 56
1, 273073, Control_c, 0, 64, 77
1, 273088, Control_c, 0, 64, 73
1, 273101, Note_off_c, 0, 57, 55
1, 273103, Control_c, 0, 64, 69
1, 273118, Control_c, 0, 64, 65
1, 273133, Control_c, 0, 64, 61
1, 273148, Control_c, 0, 64, 52
1, 273163, Control_c, 0, 64, 39
1, 273178, Control_c, 0, 64, 11
1, 273193, Control_c, 0, 64, 0
1, 274123, Note_on_c, 0, 60, 36
1, 274265, Note_off_c, 0, 62, 30
1, 274334, Note_on_c, 0, 58, 39
1, 274429, Note_off_c, 0, 60, 37
1, 274481, Control_c, 0, 64, 57
1, 274496, Control_c, 0, 64, 67
1, 274511, Control_c, 0, 64, 80
1, 274526, Control_c, 0, 64, 99
1, 274541, Control_c, 0, 64, 127
1, 274631, Control_c, 0, 67, 12
1, 274645, Control_c, 0, 67, 32
1, 274660, Control_c, 0, 67, 58
1, 274675, Control_c, 0, 67, 91
1, 274690, Control_c, 0, 67, 118
1, 274694, Note_off_c, 0, 58, 60
1, 274704, Control_c, 0, 67, 127
1, 274826, Note_on_c, 0, 34, 36
1, 274877, Note_off_c, 0, 34, 50
1, 274993, Note_on_c, 0, 70, 48
1, 275016, Note_on_c, 0, 62, 36
1, 275045, Note_on_c, 0, 50, 42
1, 275174, Note_on_c, 0, 65, 52
1, 275217, Note_off_c, 0, 62, 40
1, 275327, Note_off_c, 0, 50, 38
1, 275330, Note_on_c, 0, 62, 53
1, 275373, Note_off_c, 0, 62, 58
1, 275382, Note_off_c, 0, 65, 54
1, 275387, Note_off_c, 0, 70, 21
1, 275390, Note_on_c, 0, 37, 45
1, 275436, Note_off_c, 0, 37, 55
1, 275513, Control_c, 0, 64, 124
1, 275527, Note_on_c, 0, 70, 39
1, 275527, Control_c, 0, 64, 110
1, 275542, Control_c, 0, 64, 102
1, 275552, Note_on_c, 0, 64, 36
1, 275557, Control_c, 0, 64, 92
1, 275572, Control_c, 0, 64, 81
1, 275583, Note_on_c, 0, 52, 42
1, 275587, Control_c, 0, 64, 69
1, 275601, Control_c, 0, 64, 49
1, 275616, Control_c, 0, 64, 0
1, 275661, Control_c, 0, 64, 57
1, 275676, Control_c, 0, 64, 64
1, 275691, Control_c, 0, 64, 68
1, 275706, Control_c, 0, 64, 73
1, 275720, Control_c, 0, 64, 79
1, 275735, Control_c, 0, 64, 87
1, 275757, Control_c, 0, 64, 96
1, 275772, Control_c, 0, 64, 106
1, 275787, Control_c, 0, 64, 126
1, 275801, Control_c, 0, 64, 127
1, 275845, Note_on_c, 0, 67, 39
1, 275872, Note_off_c, 0, 64, 43
1, 275886, Note_off_c, 0, 52, 35
1, 275905, Control_c, 0, 67, 127
1, 275920, Control_c, 0, 67, 122
1, 275935, Control_c, 0, 67, 115
1, 275950, Control_c, 0, 67, 105
1, 275965, Control_c, 0, 67, 93
1, 275980, Control_c, 0, 67, 76
1, 275994, Control_c, 0, 67, 60
1, 276009, Control_c, 0, 67, 47
1, 276024, Control_c, 0, 67, 36
1, 276039, Control_c, 0, 67, 28
1, 276043, Note_on_c, 0, 64, 32
1, 276053, Control_c, 0, 67, 20
1, 276068, Control_c, 0, 67, 12
1, 276083, Control_c, 0, 67, 0
1, 276298, Note_on_c, 0, 58, 72
1, 276321, Note_off_c, 0, 64, 41
1, 276336, Control_c, 0, 64, 112
1, 276350, Control_c, 0, 64, 98
1, 276365, Control_c, 0, 64, 88
1, 276380, Control_c, 0, 64, 81
1, 276383, Note_off_c, 0, 70, 27
1, 276395, Control_c, 0, 64, 74
1, 276410, Control_c, 0, 64, 68
1, 276415, Note_off_c, 0, 67, 33
1, 276424, Control_c, 0, 64, 66
1, 276439, Control_c, 0, 64, 68
1, 276454, Control_c, 0, 64, 72
1, 276469, Control_c, 0, 64, 77
1, 276484, Control_c, 0, 64, 85
1, 276506, Control_c, 0, 64, 98
1, 276521, Control_c, 0, 64, 119
1, 276533, Note_on_c, 0, 69, 52
1, 276536, Control_c, 0, 64, 127
1, 276543, Note_on_c, 0, 64, 46
1, 276722, Note_on_c, 0, 67, 53
1, 276728, Note_off_c, 0, 58, 59
1, 276825, Note_on_c, 0, 57, 67
1, 276853, Note_off_c, 0, 57, 67
1, 276880, Note_off_c, 0, 64, 32
1, 276902, Note_off_c, 0, 69, 38
1, 276908, Note_off_c, 0, 67, 59
1, 277013, Note_on_c, 0, 38, 63
1, 277052, Note_off_c, 0, 38, 62
1, 277164, Note_on_c, 0, 54, 78
1, 277270, Control_c, 0, 64, 97
1, 277285, Control_c, 0, 64, 75
1, 277299, Control_c, 0, 64, 0
1, 277360, Control_c, 0, 64, 66
1, 277374, Control_c, 0, 64, 84
1, 277380, Note_on_c, 0, 69, 52
1, 277388, Note_on_c, 0, 62, 49
1, 277389, Control_c, 0, 64, 127
1, 277443, Note_off_c, 0, 54, 60
1, 277560, Note_on_c, 0, 66, 55
1, 277634, Note_off_c, 0, 62, 33
1, 277659, Note_off_c, 0, 66, 54
1, 277660, Note_off_c, 0, 69, 37
1, 277697, Note_on_c, 0, 57, 85
1, 277858, Note_on_c, 0, 74, 62
1, 277864, Note_on_c, 0, 66, 59
1, 277948, Note_off_c, 0, 66, 54
1, 278022, Note_on_c, 0, 69, 61
1, 278035, Note_off_c, 0, 74, 61
1, 278053, Note_off_c, 0, 69, 64
1, 278171, Note_on_c, 0, 62, 87
1, 278204, Note_off_c, 0, 57, 60
1, 278332, Note_on_c, 0, 78, 63
1, 278342, Note_on_c, 0, 69, 60
1, 278498, Note_on_c, 0, 74, 68
1, 278498, Note_off_c, 0, 69, 33
1, 278544, Note_off_c, 0, 78, 59
1, 278554, Note_off_c, 0, 74, 63
1, 278655, Note_on_c, 0, 66, 92
1, 278698, Note_off_c, 0, 62, 49
1, 278832, Note_on_c, 0, 81, 63
1, 278838, Note_on_c, 0, 74, 66
1, 278952, Note_on_c, 0, 57, 65
1, 278965, Note_off_c, 0, 66, 58
1, 278966, Note_on_c, 0, 78, 58
1, 279005, Note_on_c, 0, 62, 65
1, 279059, Note_off_c, 0, 78, 62
1, 279065, Note_off_c, 0, 57, 46
1, 279068, Note_off_c, 0, 81, 57
1, 279090, Note_on_c, 0, 67, 73
1, 279190, Note_off_c, 0, 74, 39
1, 279250, Note_on_c, 0, 71, 90
1, 279300, Control_c, 0, 64, 110
1, 279315, Control_c, 0, 64, 89
1, 279330, Control_c, 0, 64, 70
1, 279344, Control_c, 0, 64, 0
1, 279545, Control_c, 0, 64, 73
1, 279560, Control_c, 0, 64, 100
1, 279572, Note_on_c, 0, 83, 92
1, 279575, Control_c, 0, 64, 127
1, 279587, Note_on_c, 0, 74, 79
1, 279650, Note_off_c, 0, 74, 54
1, 279700, Note_off_c, 0, 71, 51
1, 279771, Note_off_c, 0, 67, 49
1, 279923, Note_on_c, 0, 79, 75
1, 279962, Note_off_c, 0, 83, 51
1, 280043, Note_off_c, 0, 62, 57
1, 280132, Note_on_c, 0, 74, 76
1, 280231, Note_off_c, 0, 79, 46
1, 280303, Note_on_c, 0, 67, 77
1, 280406, Note_on_c, 0, 59, 75
1, 280461, Note_off_c, 0, 59, 61
1, 280525, Note_on_c, 0, 45, 61
1, 280591, Note_off_c, 0, 45, 63
1, 280626, Note_on_c, 0, 55, 66
1, 280675, Note_off_c, 0, 74, 42
1, 280800, Note_off_c, 0, 67, 36
1, 280816, Note_on_c, 0, 61, 78
1, 280856, Control_c, 0, 64, 113
1, 280871, Control_c, 0, 64, 86
1, 280886, Control_c, 0, 64, 68
1, 280901, Control_c, 0, 64, 0
1, 280959, Control_c, 0, 64, 50
1, 280974, Control_c, 0, 64, 66
1, 280997, Control_c, 0, 64, 73
1, 281012, Control_c, 0, 64, 83
1, 281027, Control_c, 0, 64, 97
1, 281042, Control_c, 0, 64, 114
1, 281057, Control_c, 0, 64, 127
1, 281140, Note_off_c, 0, 61, 59
1, 281217, Note_on_c, 0, 62, 69
1, 281502, Note_on_c, 0, 61, 78
1, 281548, Note_off_c, 0, 62, 54
1, 281660, Note_on_c, 0, 59, 73
1, 281683, Note_off_c, 0, 61, 61
1, 281797, Note_on_c, 0, 61, 76
1, 281828, Note_off_c, 0, 55, 57
1, 281875, Note_off_c, 0, 59, 47
1, 281948, Note_on_c, 0, 66, 73
1, 281969, Control_c, 0, 64, 122
1, 281984, Control_c, 0, 64, 111
1, 281999, Control_c, 0, 64, 104
1, 282010, Note_off_c, 0, 61, 55
1, 282013, Control_c, 0, 64, 97
1, 282028, Control_c, 0, 64, 90
1, 282043, Control_c, 0, 64, 83
1, 282058, Control_c, 0, 64, 77
1, 282073, Control_c, 0, 64, 69
1, 282088, Control_c, 0, 64, 61
1, 282103, Control_c, 0, 64, 0
1, 283011, Note_on_c, 0, 64, 46
1, 283144, Note_off_c, 0, 66, 35
1, 283299, Note_on_c, 0, 62, 41
1, 283352, Note_off_c, 0, 64, 55
1, 283423, Control_c, 0, 67, 9
1, 283438, Control_c, 0, 67, 31
1, 283453, Control_c, 0, 67, 64
1, 283467, Control_c, 0, 67, 102
1, 283482, Control_c, 0, 67, 127
1, 283571, Control_c, 0, 64, 57
1, 283586, Control_c, 0, 64, 68
1, 283601, Control_c, 0, 64, 78
1, 283615, Control_c, 0, 64, 92
1, 283630, Control_c, 0, 64, 122
1, 283645, Control_c, 0, 64, 127
1, 283691, Note_off_c, 0, 62, 61
1, 283802, Note_on_c, 0, 38, 41
1, 283838, Note_off_c, 0, 38, 55
1, 283950, Note_on_c, 0, 54, 58
1, 284003, Note_off_c, 0, 54, 60
1, 284128, Note_on_c, 0, 74, 64
1, 284138, Note_on_c, 0, 66, 54
1, 284250, Note_off_c, 0, 66, 38
1, 284290, Note_on_c, 0, 78, 68
1, 284296, Note_on_c, 0, 69, 55
1, 284323, Note_off_c, 0, 74, 61
1, 284326, Note_off_c, 0, 69, 66
1, 284335, Control_c, 0, 67, 122
1, 284350, Control_c, 0, 67, 112
1, 284365, Control_c, 0, 67, 94
1, 284369, Note_off_c, 0, 78, 62
1, 284380, Control_c, 0, 67, 73
1, 284395, Control_c, 0, 67, 51
1, 284409, Control_c, 0, 67, 32
1, 284424, Control_c, 0, 67, 17
1, 284434, Note_on_c, 0, 36, 56
1, 284439, Control_c, 0, 67, 8
1, 284454, Control_c, 0, 67, 0
1, 284481, Note_off_c, 0, 36, 60
1, 284602, Control_c, 0, 67, 8
1, 284612, Note_on_c, 0, 81, 58
1, 284616, Control_c, 0, 67, 8
1, 284626, Note_on_c, 0, 74, 53
1, 284661, Control_c, 0, 67, 9
1, 284796, Note_on_c, 0, 86, 57
1, 284836, Note_on_c, 0, 78, 40
1, 284836, Note_off_c, 0, 74, 33
1, 284928, Note_on_c, 0, 54, 46
1, 284930, Note_off_c, 0, 86, 58
1, 284949, Note_on_c, 0, 57, 52
1, 285009, Control_c, 0, 64, 123
1, 285024, Control_c, 0, 64, 114
1, 285039, Control_c, 0, 64, 109
1, 285054, Control_c, 0, 64, 104
1, 285056, Note_off_c, 0, 81, 26
1, 285069, Control_c, 0, 64, 99
1, 285083, Control_c, 0, 64, 95
1, 285090, Note_on_c, 0, 63, 59
1, 285098, Control_c, 0, 64, 90
1, 285113, Control_c, 0, 64, 85
1, 285128, Control_c, 0, 64, 79
1, 285143, Control_c, 0, 64, 72
1, 285158, Control_c, 0, 64, 61
1, 285159, Note_off_c, 0, 78, 41
1, 285173, Control_c, 0, 64, 0
1, 285291, Control_c, 0, 64, 42
1, 285305, Control_c, 0, 64, 58
1, 285305, Control_c, 0, 67, 8
1, 285320, Control_c, 0, 64, 63
1, 285335, Control_c, 0, 64, 66
1, 285343, Note_on_c, 0, 87, 51
1, 285350, Control_c, 0, 64, 70
1, 285363, Note_on_c, 0, 78, 43
1, 285365, Control_c, 0, 64, 75
1, 285379, Control_c, 0, 64, 80
1, 285394, Control_c, 0, 64, 86
1, 285409, Control_c, 0, 64, 92
1, 285409, Control_c, 0, 67, 8
1, 285424, Control_c, 0, 64, 98
1, 285438, Control_c, 0, 64, 109
1, 285453, Control_c, 0, 64, 127
1, 285527, Note_off_c, 0, 87, 38
1, 285666, Note_off_c, 0, 63, 33
1, 285713, Note_off_c, 0, 78, 36
1, 285737, Note_on_c, 0, 81, 39
1, 285742, Note_on_c, 0, 75, 45
1, 285799, Note_off_c, 0, 81, 58
1, 285853, Note_off_c, 0, 75, 60
1, 285887, Note_on_c, 0, 62, 49
1, 285971, Note_off_c, 0, 62, 56
1, 286005, Note_off_c, 0, 57, 42
1, 286080, Note_on_c, 0, 62, 53
1, 286094, Note_off_c, 0, 54, 64
1, 286187, Control_c, 0, 64, 109
1, 286202, Control_c, 0, 64, 93
1, 286217, Control_c, 0, 64, 78
1, 286240, Control_c, 0, 64, 63
1, 286254, Control_c, 0, 64, 0
1, 286269, Control_c, 0, 67, 0
1, 286299, Control_c, 0, 64, 58
1, 286314, Control_c, 0, 64, 67
1, 286328, Control_c, 0, 64, 76
1, 286343, Control_c, 0, 64, 90
1, 286358, Control_c, 0, 64, 127
1, 286496, Note_off_c, 0, 62, 61
1, 286515, Note_on_c, 0, 38, 43
1, 286552, Note_off_c, 0, 38, 50
1, 286647, Note_on_c, 0, 54, 58
1, 286697, Note_off_c, 0, 54, 59
1, 286829, Note_on_c, 0, 74, 64
1, 286839, Note_on_c, 0, 66, 52
1, 286982, Note_off_c, 0, 66, 28
1, 286983, Note_on_c, 0, 78, 68
1, 286988, Note_on_c, 0, 69, 59
1, 287018, Note_off_c, 0, 69, 65
1, 287023, Note_off_c, 0, 74, 62
1, 287068, Note_off_c, 0, 78, 60
1, 287093, Control_c, 0, 67, 8
1, 287107, Control_c, 0, 67, 13
1, 287118, Note_on_c, 0, 36, 69
1, 287122, Control_c, 0, 67, 16
1, 287137, Control_c, 0, 67, 19
1, 287161, Note_off_c, 0, 36, 61
1, 287167, Control_c, 0, 67, 18
1, 287182, Control_c, 0, 67, 17
1, 287197, Control_c, 0, 67, 16
1, 287211, Control_c, 0, 67, 15
1, 287226, Control_c, 0, 67, 13
1, 287241, Control_c, 0, 67, 12
1, 287256, Control_c, 0, 67, 11
1, 287271, Control_c, 0, 67, 11
1, 287283, Note_on_c, 0, 81, 70
1, 287285, Control_c, 0, 67, 10
1, 287288, Note_on_c, 0, 74, 68
1, 287300, Control_c, 0, 67, 10
1, 287329, Control_c, 0, 67, 9
1, 287344, Control_c, 0, 67, 9
1, 287359, Control_c, 0, 67, 8
1, 287374, Control_c, 0, 67, 8
1, 287420, Control_c, 0, 67, 0
1, 287438, Note_on_c, 0, 86, 66
1, 287461, Note_on_c, 0, 78, 56
1, 287479, Control_c, 0, 67, 8
1, 287521, Note_on_c, 0, 54, 53
1, 287544, Note_on_c, 0, 57, 58
1, 287553, Note_off_c, 0, 74, 34
1, 287564, Note_off_c, 0, 86, 62
1, 287644, Note_on_c, 0, 63, 80
1, 287651, Note_off_c, 0, 81, 53
1, 287656, Control_c, 0, 67, 0
1, 287671, Control_c, 0, 64, 95
1, 287686, Control_c, 0, 64, 75
1, 287701, Control_c, 0, 64, 30
1, 287716, Control_c, 0, 64, 0
1, 287733, Note_off_c, 0, 78, 27
1, 287782, Control_c, 0, 64, 57
1, 287797, Control_c, 0, 64, 68
1, 287812, Control_c, 0, 64, 81
1, 287826, Control_c, 0, 64, 108
1, 287841, Control_c, 0, 64, 127
1, 287870, Note_on_c, 0, 87, 71
1, 287872, Note_on_c, 0, 78, 65
1, 287996, Note_off_c, 0, 63, 39
1, 288055, Note_off_c, 0, 57, 55
1, 288071, Note_on_c, 0, 75, 56
1, 288076, Note_on_c, 0, 81, 63
1, 288121, Note_off_c, 0, 54, 63
1, 288136, Note_on_c, 0, 62, 78
1, 288181, Note_off_c, 0, 62, 63
1, 288221, Note_off_c, 0, 75, 58
1, 288275, Note_on_c, 0, 46, 70
1, 288297, Note_off_c, 0, 78, 59
1, 288327, Note_off_c, 0, 81, 61
1, 288360, Note_off_c, 0, 46, 63
1, 288360, Note_off_c, 0, 87, 63
1, 288367, Note_on_c, 0, 55, 64
1, 288455, Note_on_c, 0, 62, 83
1, 288464, Control_c, 0, 64, 104
1, 288487, Control_c, 0, 64, 79
1, 288502, Control_c, 0, 64, 0
1, 288560, Control_c, 0, 64, 50
1, 288574, Control_c, 0, 64, 68
1, 288589, Control_c, 0, 64, 85
1, 288604, Control_c, 0, 64, 127
1, 288611, Note_off_c, 0, 55, 50
1, 288705, Note_off_c, 0, 62, 54
1, 288729, Note_on_c, 0, 94, 78
1, 288743, Note_on_c, 0, 86, 70
1, 288959, Note_on_c, 0, 91, 70
1, 288973, Note_on_c, 0, 82, 62
1, 288993, Note_off_c, 0, 94, 38
1, 289009, Note_off_c, 0, 86, 62
1, 289070, Note_off_c, 0, 91, 59
1, 289120, Note_on_c, 0, 70, 81
1, 289174, Note_off_c, 0, 70, 62
1, 289188, Note_off_c, 0, 82, 56
1, 289269, Note_on_c, 0, 70, 78
1, 289481, Note_on_c, 0, 91, 68
1, 289492, Note_on_c, 0, 82, 66
1, 289647, Note_off_c, 0, 91, 37
1, 289670, Note_off_c, 0, 70, 52
1, 289703, Note_on_c, 0, 86, 50
1, 289712, Note_on_c, 0, 79, 55
1, 289737, Note_off_c, 0, 82, 51
1, 289768, Note_off_c, 0, 86, 62
1, 289798, Note_on_c, 0, 69, 63
1, 289841, Note_off_c, 0, 69, 57
1, 289846, Note_off_c, 0, 79, 57
1, 289917, Note_on_c, 0, 69, 63
1, 290100, Note_on_c, 0, 86, 54
1, 290108, Note_on_c, 0, 79, 50
1, 290244, Note_off_c, 0, 69, 34
1, 290271, Note_on_c, 0, 82, 56
1, 290273, Note_off_c, 0, 86, 38
1, 290287, Note_on_c, 0, 74, 41
1, 290289, Note_off_c, 0, 79, 40
1, 290380, Note_on_c, 0, 68, 59
1, 290413, Note_off_c, 0, 68, 63
1, 290462, Note_off_c, 0, 82, 53
1, 290491, Note_on_c, 0, 68, 56
1, 290531, Note_off_c, 0, 74, 58
1, 290628, Note_off_c, 0, 68, 58
1, 290651, Control_c, 0, 67, 11
1, 290666, Control_c, 0, 67, 18
1, 290681, Control_c, 0, 67, 28
1, 290696, Control_c, 0, 67, 38
1, 290711, Control_c, 0, 67, 46
1, 290732, Control_c, 0, 67, 53
1, 290747, Control_c, 0, 67, 61
1, 290762, Control_c, 0, 67, 67
1, 290777, Control_c, 0, 67, 73
1, 290792, Control_c, 0, 67, 78
1, 290807, Control_c, 0, 67, 82
1, 290822, Control_c, 0, 67, 86
1, 290837, Control_c, 0, 67, 90
1, 290851, Control_c, 0, 67, 96
1, 290866, Control_c, 0, 67, 100
1, 290881, Control_c, 0, 67, 103
1, 290896, Control_c, 0, 67, 105
1, 290911, Control_c, 0, 67, 106
1, 290926, Control_c, 0, 67, 106
1, 291052, Note_on_c, 0, 67, 58
1, 291086, Note_on_c, 0, 48, 55
1, 291147, Note_off_c, 0, 67, 60
1, 291153, Note_off_c, 0, 48, 61
1, 291163, Control_c, 0, 64, 94
1, 291177, Note_on_c, 0, 55, 39
1, 291177, Control_c, 0, 64, 66
1, 291192, Control_c, 0, 64, 0
1, 291222, Control_c, 0, 64, 50
1, 291224, Note_on_c, 0, 57, 37
1, 291232, Note_on_c, 0, 67, 60
1, 291237, Control_c, 0, 64, 72
1, 291251, Control_c, 0, 64, 103
1, 291266, Control_c, 0, 64, 127
1, 291285, Note_off_c, 0, 67, 60
1, 291286, Note_on_c, 0, 63, 49
1, 291299, Note_off_c, 0, 55, 0
1, 291299, Note_on_c, 0, 55, 7
1, 291325, Control_c, 0, 67, 106
1, 291346, Note_off_c, 0, 55, 45
1, 291355, Control_c, 0, 67, 105
1, 291393, Note_off_c, 0, 57, 36
1, 291559, Note_on_c, 0, 91, 61
1, 291580, Note_on_c, 0, 84, 41
1, 291591, Note_off_c, 0, 63, 37
1, 291718, Control_c, 0, 67, 105
1, 291770, Note_off_c, 0, 91, 37
1, 291779, Note_on_c, 0, 87, 53
1, 291791, Note_off_c, 0, 84, 51
1, 291793, Note_on_c, 0, 79, 47
1, 291849, Note_off_c, 0, 87, 64
1, 291868, Note_on_c, 0, 66, 52
1, 291878, Note_off_c, 0, 79, 53
1, 291896, Note_off_c, 0, 66, 63
1, 291988, Note_on_c, 0, 66, 49
1, 292143, Note_on_c, 0, 87, 56
1, 292162, Note_on_c, 0, 79, 48
1, 292205, Note_off_c, 0, 66, 37
1, 292208, Control_c, 0, 67, 104
1, 292315, Note_off_c, 0, 79, 56
1, 292328, Note_off_c, 0, 87, 36
1, 292334, Note_on_c, 0, 84, 45
1, 292337, Note_on_c, 0, 75, 44
1, 292399, Note_off_c, 0, 84, 53
1, 292411, Note_on_c, 0, 65, 48
1, 292437, Note_off_c, 0, 65, 58
1, 292449, Note_off_c, 0, 75, 55
1, 292527, Note_on_c, 0, 65, 51
1, 292703, Note_on_c, 0, 75, 45
1, 292704, Note_on_c, 0, 84, 46
1, 292707, Note_off_c, 0, 65, 36
1, 292831, Note_off_c, 0, 84, 33
1, 292875, Note_on_c, 0, 79, 42
1, 292881, Note_on_c, 0, 72, 32
1, 292952, Note_off_c, 0, 79, 48
1, 292953, Note_off_c, 0, 72, 42
1, 292969, Note_on_c, 0, 64, 55
1, 292992, Note_off_c, 0, 75, 27
1, 293002, Note_off_c, 0, 64, 65
1, 293067, Control_c, 0, 67, 104
1, 293089, Note_on_c, 0, 64, 54
1, 293112, Control_c, 0, 67, 103
1, 293126, Control_c, 0, 67, 103
1, 293156, Control_c, 0, 67, 102
1, 293171, Control_c, 0, 67, 101
1, 293186, Control_c, 0, 67, 101
1, 293200, Control_c, 0, 67, 100
1, 293215, Control_c, 0, 67, 100
1, 293230, Control_c, 0, 67, 98
1, 293245, Control_c, 0, 67, 96
1, 293260, Control_c, 0, 67, 94
1, 293275, Control_c, 0, 67, 92
1, 293290, Control_c, 0, 67, 86
1, 293305, Control_c, 0, 67, 78
1, 293319, Control_c, 0, 67, 67
1, 293322, Note_off_c, 0, 64, 34
1, 293334, Control_c, 0, 67, 55
1, 293349, Control_c, 0, 67, 42
1, 293363, Control_c, 0, 67, 36
1, 293378, Control_c, 0, 67, 35
1, 293408, Control_c, 0, 67, 36
1, 293423, Control_c, 0, 67, 38
1, 293437, Control_c, 0, 67, 40
1, 293452, Control_c, 0, 67, 41
1, 293467, Control_c, 0, 67, 42
1, 293482, Control_c, 0, 67, 44
1, 293497, Control_c, 0, 67, 45
1, 293511, Control_c, 0, 67, 45
1, 293526, Control_c, 0, 67, 46
1, 293541, Control_c, 0, 67, 47
1, 293556, Control_c, 0, 67, 48
1, 293570, Control_c, 0, 67, 48
1, 293585, Control_c, 0, 67, 50
1, 293600, Control_c, 0, 67, 52
1, 293615, Control_c, 0, 67, 54
1, 293630, Control_c, 0, 67, 58
1, 293645, Control_c, 0, 67, 64
1, 293659, Control_c, 0, 67, 70
1, 293674, Control_c, 0, 67, 75
1, 293689, Control_c, 0, 67, 81
1, 293704, Control_c, 0, 67, 86
1, 293726, Control_c, 0, 67, 90
1, 293741, Control_c, 0, 67, 93
1, 293756, Control_c, 0, 67, 94
1, 293779, Note_on_c, 0, 63, 49
1, 293853, Note_off_c, 0, 63, 59
1, 293856, Note_on_c, 0, 50, 41
1, 293898, Note_on_c, 0, 58, 35
1, 293920, Note_on_c, 0, 55, 30
1, 294052, Note_on_c, 0, 63, 43
1, 294113, Control_c, 0, 64, 107
1, 294127, Control_c, 0, 64, 91
1, 294142, Control_c, 0, 64, 77
1, 294157, Control_c, 0, 64, 63
1, 294172, Control_c, 0, 64, 0
1, 294172, Control_c, 0, 67, 93
1, 294202, Control_c, 0, 64, 39
1, 294217, Control_c, 0, 64, 60
1, 294232, Control_c, 0, 64, 65
1, 294247, Control_c, 0, 64, 70
1, 294247, Control_c, 0, 67, 93
1, 294261, Control_c, 0, 64, 77
1, 294276, Control_c, 0, 64, 86
1, 294291, Control_c, 0, 64, 101
1, 294306, Control_c, 0, 64, 127
1, 294327, Note_on_c, 0, 82, 46
1, 294336, Note_on_c, 0, 74, 41
1, 294406, Note_off_c, 0, 63, 36
1, 294439, Control_c, 0, 67, 92
1, 294512, Note_off_c, 0, 74, 55
1, 294514, Note_on_c, 0, 79, 50
1, 294525, Note_on_c, 0, 70, 46
1, 294532, Note_off_c, 0, 82, 31
1, 294570, Note_off_c, 0, 55, 34
1, 294586, Note_off_c, 0, 79, 58
1, 294605, Note_on_c, 0, 62, 44
1, 294634, Note_off_c, 0, 62, 57
1, 294651, Note_off_c, 0, 58, 45
1, 294660, Note_off_c, 0, 70, 59
1, 294700, Note_on_c, 0, 62, 60
1, 294714, Control_c, 0, 67, 92
1, 294743, Control_c, 0, 67, 91
1, 294758, Control_c, 0, 67, 90
1, 294773, Control_c, 0, 67, 89
1, 294788, Control_c, 0, 67, 88
1, 294792, Note_off_c, 0, 62, 50
1, 294803, Control_c, 0, 67, 86
1, 294817, Control_c, 0, 67, 83
1, 294832, Control_c, 0, 67, 81
1, 294834, Note_off_c, 0, 50, 46
1, 294847, Control_c, 0, 67, 77
1, 294853, Note_on_c, 0, 79, 62
1, 294862, Control_c, 0, 67, 70
1, 294863, Note_on_c, 0, 70, 56
1, 294877, Control_c, 0, 67, 60
1, 294891, Control_c, 0, 67, 45
1, 294906, Control_c, 0, 67, 27
1, 294921, Control_c, 0, 67, 9
1, 294935, Control_c, 0, 67, 0
1, 294996, Note_off_c, 0, 79, 38
1, 295025, Note_on_c, 0, 74, 60
1, 295037, Note_on_c, 0, 67, 56
1, 295091, Note_off_c, 0, 70, 43
1, 295099, Note_off_c, 0, 74, 60
1, 295108, Note_on_c, 0, 58, 61
1, 295134, Note_off_c, 0, 58, 65
1, 295166, Note_off_c, 0, 67, 49
1, 295194, Note_on_c, 0, 54, 30
1, 295201, Note_on_c, 0, 58, 68
1, 295218, Note_on_c, 0, 48, 59
1, 295254, Control_c, 0, 64, 117
1, 295269, Control_c, 0, 64, 93
1, 295284, Control_c, 0, 64, 76
1, 295298, Control_c, 0, 64, 62
1, 295313, Control_c, 0, 64, 0
1, 295342, Control_c, 0, 64, 44
1, 295357, Control_c, 0, 64, 63
1, 295372, Control_c, 0, 64, 68
1, 295388, Control_c, 0, 64, 76
1, 295391, Note_on_c, 0, 74, 62
1, 295400, Note_on_c, 0, 66, 56
1, 295403, Control_c, 0, 64, 88
1, 295418, Control_c, 0, 64, 105
1, 295433, Control_c, 0, 64, 127
1, 295448, Note_off_c, 0, 54, 49
1, 295551, Note_off_c, 0, 74, 40
1, 295555, Note_on_c, 0, 69, 60
1, 295567, Note_on_c, 0, 62, 55
1, 295647, Note_off_c, 0, 58, 57
1, 295651, Note_on_c, 0, 57, 64
1, 295693, Note_off_c, 0, 62, 54
1, 295695, Note_off_c, 0, 69, 51
1, 295728, Note_off_c, 0, 66, 19
1, 295746, Note_on_c, 0, 58, 76
1, 295804, Note_off_c, 0, 57, 58
1, 295818, Control_c, 0, 64, 105
1, 295832, Control_c, 0, 64, 87
1, 295847, Control_c, 0, 64, 70
1, 295862, Control_c, 0, 64, 0
1, 295951, Control_c, 0, 64, 50
1, 295973, Control_c, 0, 64, 65
1, 295988, Control_c, 0, 64, 75
1, 296002, Control_c, 0, 64, 88
1, 296017, Control_c, 0, 64, 114
1, 296032, Control_c, 0, 64, 127
1, 296375, Note_off_c, 0, 58, 30
1, 296459, Note_off_c, 0, 48, 41
1, 296494, Note_on_c, 0, 60, 74
1, 296614, Note_on_c, 0, 62, 71
1, 296614, Note_off_c, 0, 60, 56
1, 296631, Note_on_c, 0, 56, 50
1, 296632, Note_on_c, 0, 47, 54
1, 296636, Note_on_c, 0, 53, 53
1, 296655, Control_c, 0, 64, 110
1, 296670, Control_c, 0, 64, 82
1, 296685, Control_c, 0, 64, 62
1, 296700, Control_c, 0, 64, 0
1, 296915, Control_c, 0, 64, 60
1, 296930, Control_c, 0, 64, 72
1, 296944, Control_c, 0, 64, 83
1, 296959, Control_c, 0, 64, 112
1, 296974, Control_c, 0, 64, 127
1, 297023, Note_off_c, 0, 56, 57
1, 297039, Note_off_c, 0, 53, 60
1, 297072, Note_off_c, 0, 47, 59
1, 297261, Note_off_c, 0, 62, 60
1, 297362, Note_on_c, 0, 35, 60
1, 297529, Note_on_c, 0, 74, 71
1, 297537, Note_on_c, 0, 65, 57
1, 297618, Note_off_c, 0, 65, 56
1, 297672, Note_on_c, 0, 77, 75
1, 297672, Note_on_c, 0, 68, 68
1, 297705, Note_off_c, 0, 35, 57
1, 297706, Note_off_c, 0, 68, 62
1, 297707, Note_off_c, 0, 74, 63
1, 297743, Note_off_c, 0, 77, 65
1, 297821, Note_on_c, 0, 36, 82
1, 297872, Note_off_c, 0, 36, 59
1, 297969, Note_on_c, 0, 81, 78
1, 297982, Note_on_c, 0, 74, 71
1, 298109, Note_on_c, 0, 86, 72
1, 298134, Note_on_c, 0, 78, 61
1, 298164, Note_on_c, 0, 54, 61
1, 298188, Note_on_c, 0, 57, 60
1, 298244, Note_off_c, 0, 74, 37
1, 298258, Note_off_c, 0, 86, 61
1, 298294, Control_c, 0, 64, 122
1, 298309, Control_c, 0, 64, 99
1, 298314, Note_on_c, 0, 63, 79
1, 298324, Control_c, 0, 64, 82
1, 298325, Note_off_c, 0, 81, 46
1, 298339, Control_c, 0, 64, 65
1, 298354, Control_c, 0, 64, 0
1, 298428, Control_c, 0, 64, 51
1, 298435, Note_off_c, 0, 78, 42
1, 298442, Control_c, 0, 64, 67
1, 298457, Control_c, 0, 64, 79
1, 298472, Control_c, 0, 64, 101
1, 298486, Control_c, 0, 64, 127
1, 298521, Note_on_c, 0, 87, 71
1, 298531, Note_on_c, 0, 78, 61
1, 298667, Note_off_c, 0, 63, 45
1, 298685, Note_off_c, 0, 87, 56
1, 298769, Note_off_c, 0, 57, 50
1, 298852, Note_on_c, 0, 81, 61
1, 298855, Note_off_c, 0, 54, 30
1, 298857, Note_on_c, 0, 75, 59
1, 298878, Note_off_c, 0, 78, 33
1, 298925, Note_off_c, 0, 81, 60
1, 298980, Note_on_c, 0, 62, 72
1, 298983, Note_off_c, 0, 75, 64
1, 299019, Note_off_c, 0, 62, 61
1, 299213, Note_on_c, 0, 62, 68
1, 299252, Note_on_c, 0, 56, 56
1, 299254, Note_on_c, 0, 53, 50
1, 299261, Note_on_c, 0, 47, 50
1, 299294, Control_c, 0, 64, 118
1, 299308, Control_c, 0, 64, 87
1, 299323, Control_c, 0, 64, 65
1, 299338, Control_c, 0, 64, 0
1, 299413, Control_c, 0, 64, 65
1, 299428, Control_c, 0, 64, 85
1, 299443, Control_c, 0, 64, 127
1, 299522, Note_off_c, 0, 56, 62
1, 299532, Note_off_c, 0, 53, 64
1, 299551, Note_off_c, 0, 47, 63
1, 299642, Note_off_c, 0, 62, 62
1, 299781, Note_on_c, 0, 35, 71
1, 299930, Note_on_c, 0, 74, 77
1, 299938, Note_on_c, 0, 65, 68
1, 300036, Note_off_c, 0, 65, 56
1, 300080, Note_on_c, 0, 68, 78
1, 300081, Note_on_c, 0, 77, 82
1, 300111, Note_off_c, 0, 74, 64
1, 300126, Note_off_c, 0, 68, 61
1, 300127, Note_off_c, 0, 35, 60
1, 300150, Note_off_c, 0, 77, 65
1, 300223, Note_on_c, 0, 36, 87
1, 300272, Note_off_c, 0, 36, 60
1, 300381, Note_on_c, 0, 81, 79
1, 300392, Note_on_c, 0, 74, 77
1, 300530, Note_on_c, 0, 86, 81
1, 300547, Note_on_c, 0, 78, 67
1, 300611, Note_on_c, 0, 54, 67
1, 300642, Note_on_c, 0, 57, 68
1, 300680, Note_off_c, 0, 86, 62
1, 300683, Note_off_c, 0, 74, 55
1, 300746, Note_off_c, 0, 81, 52
1, 300747, Note_on_c, 0, 63, 88
1, 300763, Control_c, 0, 64, 86
1, 300778, Control_c, 0, 64, 66
1, 300793, Control_c, 0, 64, 0
1, 300846, Note_off_c, 0, 78, 32
1, 300852, Control_c, 0, 64, 66
1, 300867, Control_c, 0, 64, 84
1, 300881, Control_c, 0, 64, 127
1, 300972, Note_on_c, 0, 87, 84
1, 300979, Note_on_c, 0, 78, 82
1, 301094, Note_off_c, 0, 63, 55
1, 301133, Note_off_c, 0, 87, 61
1, 301205, Note_on_c, 0, 81, 84
1, 301210, Note_on_c, 0, 75, 75
1, 301219, Note_off_c, 0, 57, 57
1, 301259, Note_off_c, 0, 78, 53
1, 301274, Note_off_c, 0, 54, 60
1, 301297, Note_on_c, 0, 62, 84
1, 301347, Note_off_c, 0, 62, 64
1, 301437, Note_on_c, 0, 46, 79
1, 301443, Note_off_c, 0, 75, 60
1, 301514, Note_on_c, 0, 55, 70
1, 301535, Note_off_c, 0, 46, 63
1, 301557, Note_off_c, 0, 81, 60
1, 301619, Note_on_c, 0, 62, 91
1, 301645, Control_c, 0, 64, 109
1, 301660, Control_c, 0, 64, 76
1, 301675, Control_c, 0, 64, 0
1, 301719, Control_c, 0, 64, 64
1, 301734, Control_c, 0, 64, 78
1, 301749, Control_c, 0, 64, 127
1, 301857, Note_off_c, 0, 55, 54
1, 301937, Note_off_c, 0, 62, 54
1, 301937, Note_on_c, 0, 98, 94
1, 301950, Note_on_c, 0, 91, 90
1, 302246, Note_on_c, 0, 86, 83
1, 302248, Note_on_c, 0, 94, 85
1, 302265, Note_off_c, 0, 98, 58
1, 302296, Note_off_c, 0, 91, 60
1, 302496, Note_on_c, 0, 74, 96
1, 302522, Note_off_c, 0, 94, 64
1, 302576, Note_off_c, 0, 74, 58
1, 302621, Note_off_c, 0, 86, 59
1, 302669, Note_on_c, 0, 74, 98
1, 302943, Note_on_c, 0, 94, 82
1, 302949, Note_on_c, 0, 86, 74
1, 303213, Note_on_c, 0, 91, 77
1, 303221, Note_on_c, 0, 82, 69
1, 303258, Note_off_c, 0, 86, 62
1, 303278, Note_off_c, 0, 94, 38
1, 303350, Note_on_c, 0, 73, 88
1, 303368, Note_off_c, 0, 74, 57
1, 303385, Note_off_c, 0, 91, 59
1, 303419, Note_off_c, 0, 73, 63
1, 303501, Note_on_c, 0, 73, 91
1, 303530, Note_off_c, 0, 82, 61
1, 303703, Note_on_c, 0, 91, 75
1, 303717, Note_on_c, 0, 82, 67
1, 303911, Note_on_c, 0, 86, 66
1, 303919, Note_off_c, 0, 91, 49
1, 303920, Note_on_c, 0, 79, 61
1, 303950, Note_off_c, 0, 73, 58
1, 304012, Note_on_c, 0, 72, 73
1, 304023, Note_off_c, 0, 79, 60
1, 304057, Note_off_c, 0, 86, 49
1, 304061, Note_off_c, 0, 72, 62
1, 304075, Note_off_c, 0, 82, 45
1, 304140, Note_on_c, 0, 72, 77
1, 304336, Note_off_c, 0, 72, 52
1, 304717, Note_on_c, 0, 71, 69
1, 304796, Note_on_c, 0, 48, 59
1, 304817, Control_c, 0, 64, 95
1, 304823, Note_off_c, 0, 71, 65
1, 304832, Control_c, 0, 64, 60
1, 304833, Note_off_c, 0, 48, 62
1, 304847, Control_c, 0, 64, 0
1, 304862, Note_on_c, 0, 55, 47
1, 304877, Control_c, 0, 64, 39
1, 304881, Note_on_c, 0, 57, 36
1, 304892, Control_c, 0, 64, 74
1, 304900, Note_on_c, 0, 71, 79
1, 304906, Control_c, 0, 64, 116
1, 304921, Control_c, 0, 64, 127
1, 304939, Note_on_c, 0, 63, 65
1, 304976, Note_off_c, 0, 71, 64
1, 305010, Note_off_c, 0, 55, 54
1, 305055, Note_off_c, 0, 57, 36
1, 305206, Note_off_c, 0, 63, 37
1, 305282, Note_on_c, 0, 91, 74
1, 305292, Note_on_c, 0, 84, 60
1, 305580, Note_on_c, 0, 87, 62
1, 305587, Note_on_c, 0, 79, 52
1, 305613, Note_off_c, 0, 91, 38
1, 305653, Note_off_c, 0, 84, 56
1, 305728, Note_on_c, 0, 70, 71
1, 305729, Note_off_c, 0, 87, 64
1, 305764, Note_off_c, 0, 70, 57
1, 305791, Note_off_c, 0, 79, 56
1, 305865, Note_on_c, 0, 70, 69
1, 306069, Note_on_c, 0, 87, 57
1, 306087, Note_on_c, 0, 79, 44
1, 306321, Note_off_c, 0, 70, 30
1, 306358, Note_on_c, 0, 84, 45
1, 306365, Note_off_c, 0, 79, 37
1, 306381, Note_on_c, 0, 75, 44
1, 306431, Note_off_c, 0, 87, 24
1, 306492, Note_on_c, 0, 69, 66
1, 306542, Note_off_c, 0, 69, 56
1, 306584, Note_off_c, 0, 84, 48
1, 306626, Note_off_c, 0, 75, 34
1, 306651, Note_on_c, 0, 69, 63
1, 307739, Note_on_c, 0, 68, 71
1, 307837, Note_off_c, 0, 68, 60
1, 307901, Note_off_c, 0, 69, 37
1, 307915, Note_on_c, 0, 68, 73
1, 308176, Control_c, 0, 64, 113
1, 308191, Control_c, 0, 64, 103
1, 308206, Control_c, 0, 64, 96
1, 308221, Control_c, 0, 64, 90
1, 308236, Control_c, 0, 64, 83
1, 308251, Control_c, 0, 64, 76
1, 308266, Control_c, 0, 64, 69
1, 308281, Control_c, 0, 64, 61
1, 308295, Control_c, 0, 64, 43
1, 308310, Control_c, 0, 64, 0
1, 309788, Note_on_c, 0, 67, 66
1, 309885, Note_off_c, 0, 68, 53
1, 310266, Note_on_c, 0, 75, 70
1, 310407, Note_off_c, 0, 67, 49
1, 310678, Note_on_c, 0, 74, 77
1, 310772, Note_off_c, 0, 75, 46
1, 310976, Note_on_c, 0, 72, 77
1, 311029, Note_off_c, 0, 74, 59
1, 311208, Note_on_c, 0, 70, 79
1, 311256, Note_off_c, 0, 72, 58
1, 311405, Note_on_c, 0, 69, 77
1, 311440, Note_off_c, 0, 70, 63
1, 311620, Note_on_c, 0, 67, 78
1, 311661, Note_off_c, 0, 69, 59
1, 311886, Note_on_c, 0, 66, 74
1, 311929, Note_off_c, 0, 67, 54
1, 312242, Note_on_c, 0, 67, 66
1, 312325, Note_off_c, 0, 66, 59
1, 312490, Note_on_c, 0, 66, 69
1, 312544, Note_off_c, 0, 67, 54
1, 312666, Note_on_c, 0, 65, 69
1, 312702, Note_off_c, 0, 66, 59
1, 312843, Note_on_c, 0, 66, 62
1, 312916, Note_off_c, 0, 65, 57
1, 313161, Note_on_c, 0, 69, 61
1, 313306, Note_off_c, 0, 66, 37
1, 314240, Control_c, 0, 67, 10
1, 314255, Control_c, 0, 67, 20
1, 314270, Control_c, 0, 67, 34
1, 314285, Control_c, 0, 67, 48
1, 314300, Control_c, 0, 67, 63
1, 314314, Control_c, 0, 67, 81
1, 314329, Control_c, 0, 67, 94
1, 314344, Control_c, 0, 67, 106
1, 314359, Control_c, 0, 67, 116
1, 314374, Control_c, 0, 67, 125
1, 314389, Control_c, 0, 67, 127
1, 315188, Note_on_c, 0, 67, 42
1, 315389, Note_off_c, 0, 69, 33
1, 315893, Note_on_c, 0, 63, 38
1, 316105, Note_off_c, 0, 67, 31
1, 316361, Note_on_c, 0, 60, 47
1, 316499, Note_off_c, 0, 63, 49
1, 316788, Note_on_c, 0, 57, 45
1, 316894, Note_off_c, 0, 60, 48
1, 317304, Note_on_c, 0, 55, 41
1, 317487, Note_off_c, 0, 57, 33
1, 318227, Note_on_c, 0, 51, 39
1, 318504, Note_off_c, 0, 55, 32
1, 319163, Control_c, 0, 64, 29
1, 319185, Control_c, 0, 64, 54
1, 319200, Control_c, 0, 64, 63
1, 319215, Control_c, 0, 64, 66
1, 319229, Control_c, 0, 64, 69
1, 319244, Control_c, 0, 64, 71
1, 319259, Control_c, 0, 64, 74
1, 319274, Control_c, 0, 64, 76
1, 319289, Control_c, 0, 64, 79
1, 319304, Control_c, 0, 64, 81
1, 319319, Control_c, 0, 64, 84
1, 319334, Control_c, 0, 64, 87
1, 319349, Control_c, 0, 64, 89
1, 319364, Control_c, 0, 64, 92
1, 319379, Control_c, 0, 64, 95
1, 319394, Control_c, 0, 64, 98
1, 319409, Control_c, 0, 64, 103
1, 319423, Control_c, 0, 64, 108
1, 319438, Control_c, 0, 64, 116
1, 319453, Control_c, 0, 64, 127
1, 320221, Note_off_c, 0, 51, 39
1, 320866, Note_on_c, 0, 50, 32
1, 320905, Control_c, 0, 64, 122
1, 320920, Control_c, 0, 64, 117
1, 320935, Control_c, 0, 64, 112
1, 320950, Control_c, 0, 64, 108
1, 320965, Control_c, 0, 64, 102
1, 320979, Control_c, 0, 64, 96
1, 320994, Control_c, 0, 64, 89
1, 321009, Control_c, 0, 64, 81
1, 321024, Control_c, 0, 64, 71
1, 321039, Control_c, 0, 64, 60
1, 321054, Control_c, 0, 64, 0
1, 321187, Control_c, 0, 64, 32
1, 321202, Control_c, 0, 64, 63
1, 321216, Control_c, 0, 64, 72
1, 321231, Control_c, 0, 64, 81
1, 321246, Control_c, 0, 64, 90
1, 321261, Control_c, 0, 64, 97
1, 321276, Control_c, 0, 64, 102
1, 321290, Control_c, 0, 64, 106
1, 321305, Control_c, 0, 64, 115
1, 321320, Control_c, 0, 64, 127
1, 321462, Note_off_c, 0, 50, 44
1, 322849, Note_on_c, 0, 70, 33
1, 322893, Control_c, 0, 64, 123
1, 322908, Control_c, 0, 64, 114
1, 322930, Control_c, 0, 64, 107
1, 322944, Control_c, 0, 64, 101
1, 322956, Note_on_c, 0, 49, 35
1, 322959, Control_c, 0, 64, 95
1, 322974, Control_c, 0, 64, 87
1, 322989, Control_c, 0, 64, 79
1, 323004, Control_c, 0, 64, 71
1, 323018, Control_c, 0, 64, 63
1, 323033, Control_c, 0, 64, 52
1, 323048, Control_c, 0, 64, 57
1, 323063, Control_c, 0, 64, 64
1, 323078, Control_c, 0, 64, 68
1, 323093, Control_c, 0, 64, 73
1, 323094, Note_off_c, 0, 70, 59
1, 323108, Control_c, 0, 64, 81
1, 323123, Control_c, 0, 64, 92
1, 323138, Control_c, 0, 64, 103
1, 323152, Control_c, 0, 64, 123
1, 323167, Control_c, 0, 64, 127
1, 323218, Note_off_c, 0, 49, 44
1, 323601, Note_on_c, 0, 87, 50
1, 323715, Note_off_c, 0, 87, 55
1, 323782, Note_on_c, 0, 66, 24
1, 323875, Note_on_c, 0, 78, 36
1, 324097, Note_on_c, 0, 70, 38
1, 324107, Note_on_c, 0, 61, 23
1, 324152, Note_off_c, 0, 70, 63
1, 324192, Note_off_c, 0, 66, 34
1, 324323, Note_on_c, 0, 86, 55
1, 324336, Note_off_c, 0, 78, 45
1, 324399, Note_on_c, 0, 58, 33
1, 324442, Note_off_c, 0, 86, 52
1, 324490, Note_on_c, 0, 78, 34
1, 324623, Note_on_c, 0, 70, 46
1, 324656, Note_off_c, 0, 70, 63
1, 324711, Note_off_c, 0, 61, 33
1, 324772, Note_on_c, 0, 86, 56
1, 324791, Note_off_c, 0, 58, 33
1, 324794, Note_off_c, 0, 78, 42
1, 324853, Note_on_c, 0, 66, 32
1, 324867, Note_off_c, 0, 86, 36
1, 324900, Note_on_c, 0, 78, 45
1, 325016, Note_on_c, 0, 70, 50
1, 325034, Note_on_c, 0, 61, 34
1, 325062, Note_off_c, 0, 70, 60
1, 325087, Note_off_c, 0, 66, 38
1, 325141, Note_on_c, 0, 85, 61
1, 325191, Note_off_c, 0, 78, 42
1, 325221, Note_on_c, 0, 58, 27
1, 325271, Note_on_c, 0, 78, 41
1, 325280, Note_off_c, 0, 85, 61
1, 325367, Note_on_c, 0, 70, 49
1, 325409, Note_off_c, 0, 70, 62
1, 325448, Note_off_c, 0, 61, 34
1, 325466, Note_off_c, 0, 58, 35
1, 325478, Note_on_c, 0, 85, 59
1, 325490, Note_off_c, 0, 78, 52
1, 325564, Note_on_c, 0, 66, 32
1, 325569, Note_off_c, 0, 85, 63
1, 325593, Note_on_c, 0, 78, 36
1, 325678, Note_on_c, 0, 70, 46
1, 325707, Note_on_c, 0, 61, 29
1, 325728, Note_off_c, 0, 70, 59
1, 325748, Note_off_c, 0, 66, 41
1, 325784, Note_on_c, 0, 84, 59
1, 325806, Note_off_c, 0, 78, 47
1, 325865, Note_on_c, 0, 58, 35
1, 325901, Note_on_c, 0, 78, 31
1, 325915, Note_off_c, 0, 84, 40
1, 326002, Note_on_c, 0, 70, 45
1, 326056, Note_off_c, 0, 70, 57
1, 326115, Note_on_c, 0, 84, 50
1, 326146, Note_off_c, 0, 78, 42
1, 326152, Note_off_c, 0, 61, 28
1, 326212, Note_off_c, 0, 84, 40
1, 326223, Note_on_c, 0, 66, 32
1, 326229, Note_off_c, 0, 58, 35
1, 326245, Note_on_c, 0, 78, 34
1, 326331, Note_on_c, 0, 70, 38
1, 326381, Note_off_c, 0, 66, 45
1, 326404, Note_on_c, 0, 61, 28
1, 326477, Note_on_c, 0, 83, 51
1, 326498, Note_off_c, 0, 70, 35
1, 326521, Note_off_c, 0, 78, 44
1, 326551, Note_on_c, 0, 58, 25
1, 326572, Note_off_c, 0, 61, 40
1, 326620, Note_off_c, 0, 58, 52
1, 326652, Note_on_c, 0, 78, 41
1, 326733, Control_c, 0, 64, 111
1, 326748, Control_c, 0, 64, 103
1, 326762, Control_c, 0, 64, 94
1, 326777, Control_c, 0, 64, 84
1, 326792, Control_c, 0, 64, 75
1, 326807, Control_c, 0, 64, 66
1, 326813, Note_on_c, 0, 49, 39
1, 326822, Control_c, 0, 64, 53
1, 326827, Note_off_c, 0, 83, 36
1, 326837, Control_c, 0, 64, 46
1, 326838, Note_off_c, 0, 78, 43
1, 326852, Control_c, 0, 64, 59
1, 326867, Control_c, 0, 64, 65
1, 326882, Control_c, 0, 64, 69
1, 326897, Control_c, 0, 64, 75
1, 326900, Note_on_c, 0, 71, 37
1, 326911, Control_c, 0, 64, 83
1, 326926, Control_c, 0, 64, 94
1, 326941, Control_c, 0, 64, 103
1, 326956, Control_c, 0, 64, 116
1, 326963, Note_off_c, 0, 49, 34
1, 326970, Control_c, 0, 64, 127
1, 327068, Note_on_c, 0, 83, 47
1, 327090, Note_off_c, 0, 71, 38
1, 327159, Note_on_c, 0, 65, 33
1, 327186, Note_on_c, 0, 77, 45
1, 327195, Note_off_c, 0, 83, 58
1, 327268, Note_on_c, 0, 61, 38
1, 327300, Note_on_c, 0, 71, 42
1, 327303, Note_off_c, 0, 65, 32
1, 327374, Note_off_c, 0, 77, 49
1, 327386, Note_on_c, 0, 82, 57
1, 327412, Note_off_c, 0, 71, 36
1, 327459, Note_on_c, 0, 59, 31
1, 327517, Note_on_c, 0, 77, 50
1, 327573, Note_off_c, 0, 82, 51
1, 327609, Note_off_c, 0, 61, 32
1, 327621, Note_on_c, 0, 71, 48
1, 327648, Note_off_c, 0, 59, 34
1, 327671, Note_off_c, 0, 77, 38
1, 327701, Note_on_c, 0, 82, 58
1, 327737, Note_off_c, 0, 71, 39
1, 327803, Note_on_c, 0, 65, 38
1, 327818, Note_on_c, 0, 77, 41
1, 327888, Note_off_c, 0, 82, 56
1, 327931, Note_on_c, 0, 61, 35
1, 327931, Note_on_c, 0, 71, 43
1, 327972, Note_off_c, 0, 65, 33
1, 328009, Note_off_c, 0, 77, 51
1, 328011, Note_off_c, 0, 71, 47
1, 328023, Note_on_c, 0, 81, 64
1, 328069, Note_on_c, 0, 59, 36
1, 328166, Note_on_c, 0, 77, 42
1, 328244, Note_on_c, 0, 71, 47
1, 328252, Note_off_c, 0, 81, 52
1, 328308, Note_off_c, 0, 77, 36
1, 328324, Note_off_c, 0, 59, 25
1, 328327, Note_off_c, 0, 61, 31
1, 328339, Note_off_c, 0, 71, 53
1, 328349, Note_on_c, 0, 81, 61
1, 328442, Note_on_c, 0, 77, 43
1, 328464, Note_on_c, 0, 65, 31
1, 328562, Note_on_c, 0, 71, 46
1, 328588, Note_on_c, 0, 61, 27
1, 328638, Note_off_c, 0, 77, 34
1, 328673, Note_on_c, 0, 79, 59
1, 328694, Note_off_c, 0, 65, 35
1, 328694, Note_off_c, 0, 71, 38
1, 328727, Note_on_c, 0, 59, 35
1, 328803, Note_on_c, 0, 77, 37
1, 328893, Note_off_c, 0, 79, 37
1, 328916, Note_on_c, 0, 71, 41
1, 328923, Note_off_c, 0, 77, 38
1, 328998, Note_off_c, 0, 59, 33
1, 329041, Note_off_c, 0, 61, 30
1, 329043, Note_on_c, 0, 79, 46
1, 329068, Note_off_c, 0, 71, 38
1, 329155, Note_on_c, 0, 65, 32
1, 329169, Note_on_c, 0, 77, 36
1, 329286, Note_off_c, 0, 79, 35
1, 329295, Note_on_c, 0, 71, 37
1, 329344, Note_on_c, 0, 61, 23
1, 329360, Note_off_c, 0, 77, 45
1, 329408, Note_off_c, 0, 65, 37
1, 329474, Note_on_c, 0, 80, 43
1, 329515, Note_off_c, 0, 71, 36
1, 329540, Note_on_c, 0, 59, 28
1, 329546, Note_off_c, 0, 61, 34
1, 329592, Note_off_c, 0, 81, 34
1, 329699, Note_off_c, 0, 59, 35
1, 329728, Note_on_c, 0, 77, 33
1, 329876, Control_c, 0, 64, 121
1, 329891, Control_c, 0, 64, 110
1, 329906, Control_c, 0, 64, 100
1, 329918, Note_on_c, 0, 49, 42
1, 329921, Control_c, 0, 64, 90
1, 329935, Control_c, 0, 64, 80
1, 329950, Control_c, 0, 64, 70
1, 329958, Note_off_c, 0, 77, 50
1, 329965, Control_c, 0, 64, 56
1, 329979, Control_c, 0, 64, 27
1, 329994, Control_c, 0, 64, 38
1, 330007, Note_on_c, 0, 70, 38
1, 330009, Control_c, 0, 64, 59
1, 330024, Control_c, 0, 64, 65
1, 330039, Control_c, 0, 64, 70
1, 330054, Control_c, 0, 64, 77
1, 330068, Control_c, 0, 64, 89
1, 330083, Control_c, 0, 64, 103
1, 330098, Control_c, 0, 64, 127
1, 330100, Note_off_c, 0, 80, 43
1, 330116, Note_off_c, 0, 49, 41
1, 330128, Note_off_c, 0, 70, 63
1, 330342, Note_on_c, 0, 87, 51
1, 330444, Note_off_c, 0, 87, 64
1, 330465, Note_on_c, 0, 66, 38
1, 330556, Note_on_c, 0, 78, 37
1, 330653, Note_on_c, 0, 70, 50
1, 330661, Note_on_c, 0, 61, 37
1, 330691, Note_off_c, 0, 70, 64
1, 330704, Note_off_c, 0, 66, 38
1, 330784, Note_on_c, 0, 86, 64
1, 330801, Note_off_c, 0, 78, 48
1, 330833, Note_on_c, 0, 58, 37
1, 330855, Note_off_c, 0, 86, 56
1, 330910, Note_on_c, 0, 78, 49
1, 330965, Note_off_c, 0, 61, 33
1, 330991, Note_on_c, 0, 70, 57
1, 331026, Note_off_c, 0, 70, 64
1, 331118, Note_on_c, 0, 86, 62
1, 331133, Note_off_c, 0, 78, 51
1, 331143, Note_off_c, 0, 58, 33
1, 331190, Note_off_c, 0, 86, 56
1, 331213, Note_on_c, 0, 66, 42
1, 331255, Note_on_c, 0, 78, 47
1, 331322, Note_on_c, 0, 70, 54
1, 331355, Note_off_c, 0, 78, 0
1, 331355, Note_on_c, 0, 78, 11
1, 331369, Note_on_c, 0, 61, 31
1, 331376, Note_off_c, 0, 70, 62
1, 331380, Note_off_c, 0, 66, 37
1, 331435, Note_on_c, 0, 85, 70
1, 331456, Note_off_c, 0, 78, 53
1, 331501, Note_on_c, 0, 58, 33
1, 331549, Note_off_c, 0, 85, 63
1, 331569, Note_on_c, 0, 78, 48
1, 331627, Note_on_c, 0, 70, 54
1, 331660, Note_off_c, 0, 70, 62
1, 331680, Note_off_c, 0, 61, 31
1, 331733, Note_on_c, 0, 85, 68
1, 331750, Note_off_c, 0, 78, 58
1, 331802, Note_off_c, 0, 58, 34
1, 331829, Note_off_c, 0, 85, 63
1, 331840, Note_on_c, 0, 66, 37
1, 331875, Note_on_c, 0, 78, 37
1, 331943, Note_on_c, 0, 70, 44
1, 331952, Note_off_c, 0, 78, 0
1, 331952, Note_on_c, 0, 78, 10
1, 331973, Note_off_c, 0, 70, 62
1, 332018, Note_on_c, 0, 61, 28
1, 332025, Note_off_c, 0, 66, 40
1, 332054, Note_on_c, 0, 84, 57
1, 332070, Note_off_c, 0, 78, 46
1, 332155, Note_off_c, 0, 84, 40
1, 332159, Note_on_c, 0, 58, 38
1, 332179, Note_on_c, 0, 78, 40
1, 332242, Note_off_c, 0, 61, 28
1, 332256, Note_on_c, 0, 70, 40
1, 332261, Note_off_c, 0, 78, 0
1, 332261, Note_on_c, 0, 78, 9
1, 332300, Note_off_c, 0, 70, 61
1, 332358, Note_on_c, 0, 84, 51
1, 332384, Note_on_c, 0, 66, 35
1, 332386, Note_off_c, 0, 78, 43
1, 332405, Note_off_c, 0, 58, 35
1, 332456, Note_off_c, 0, 84, 40
1, 332480, Note_off_c, 0, 66, 38
1, 332499, Note_on_c, 0, 78, 41
1, 332539, Note_on_c, 0, 61, 27
1, 332575, Note_on_c, 0, 70, 40
1, 332646, Note_on_c, 0, 58, 40
1, 332706, Note_on_c, 0, 83, 51
1, 332711, Note_off_c, 0, 61, 39
1, 332713, Note_off_c, 0, 58, 55
1, 332728, Note_off_c, 0, 70, 37
1, 332739, Note_off_c, 0, 78, 43
1, 332844, Note_on_c, 0, 78, 39
1, 332870, Control_c, 0, 64, 100
1, 332883, Note_on_c, 0, 49, 55
1, 332885, Control_c, 0, 64, 84
1, 332900, Control_c, 0, 64, 70
1, 332915, Control_c, 0, 64, 30
1, 332931, Control_c, 0, 64, 0
1, 332946, Control_c, 0, 64, 28
1, 332950, Note_off_c, 0, 83, 52
1, 332960, Control_c, 0, 64, 62
1, 332967, Note_off_c, 0, 78, 35
1, 332975, Control_c, 0, 64, 69
1, 332983, Note_off_c, 0, 49, 60
1, 332990, Control_c, 0, 64, 78
1, 332993, Note_on_c, 0, 71, 44
1, 333004, Control_c, 0, 64, 90
1, 333019, Control_c, 0, 64, 108
1, 333034, Control_c, 0, 64, 127
1, 333111, Note_on_c, 0, 83, 51
1, 333128, Note_off_c, 0, 71, 50
1, 333151, Note_on_c, 0, 65, 37
1, 333221, Note_off_c, 0, 65, 50
1, 333222, Note_on_c, 0, 77, 47
1, 333257, Note_off_c, 0, 83, 61
1, 333264, Note_on_c, 0, 61, 41
1, 333319, Note_on_c, 0, 71, 48
1, 333383, Note_on_c, 0, 59, 39
1, 333392, Note_off_c, 0, 71, 51
1, 333394, Note_on_c, 0, 82, 66
1, 333395, Note_off_c, 0, 77, 60
1, 333529, Note_on_c, 0, 77, 55
1, 333568, Note_off_c, 0, 82, 55
1, 333595, Note_on_c, 0, 71, 55
1, 333665, Note_off_c, 0, 61, 30
1, 333682, Note_off_c, 0, 59, 24
1, 333707, Note_on_c, 0, 82, 56
1, 333708, Note_off_c, 0, 77, 44
1, 333709, Note_off_c, 0, 71, 38
1, 333766, Note_on_c, 0, 65, 41
1, 333830, Note_on_c, 0, 77, 56
1, 333887, Note_off_c, 0, 82, 53
1, 333895, Note_on_c, 0, 61, 44
1, 333916, Note_off_c, 0, 65, 32
1, 333926, Note_on_c, 0, 71, 47
1, 333981, Note_off_c, 0, 77, 39
1, 334007, Note_off_c, 0, 61, 57
1, 334009, Note_on_c, 0, 59, 32
1, 334009, Note_off_c, 0, 71, 50
1, 334011, Note_on_c, 0, 81, 63
1, 334042, Note_off_c, 0, 59, 50
1, 334109, Control_c, 0, 64, 112
1, 334110, Note_on_c, 0, 77, 50
1, 334124, Control_c, 0, 64, 84
1, 334139, Control_c, 0, 64, 63
1, 334161, Control_c, 0, 64, 0
1, 334164, Note_on_c, 0, 50, 55
1, 334191, Control_c, 0, 64, 58
1, 334205, Note_off_c, 0, 81, 57
1, 334206, Control_c, 0, 64, 71
1, 334209, Note_on_c, 0, 71, 55
1, 334219, Note_off_c, 0, 77, 53
1, 334221, Control_c, 0, 64, 87
1, 334235, Control_c, 0, 64, 127
1, 334247, Note_off_c, 0, 50, 64
1, 334307, Note_off_c, 0, 71, 54
1, 334315, Note_on_c, 0, 81, 68
1, 334375, Note_on_c, 0, 65, 47
1, 334402, Note_on_c, 0, 77, 52
1, 334507, Note_on_c, 0, 71, 55
1, 334507, Note_off_c, 0, 77, 53
1, 334510, Note_on_c, 0, 62, 40
1, 334517, Note_off_c, 0, 65, 31
1, 334605, Note_on_c, 0, 79, 64
1, 334605, Note_off_c, 0, 71, 50
1, 334632, Note_on_c, 0, 59, 39
1, 334715, Note_on_c, 0, 77, 51
1, 334783, Note_off_c, 0, 62, 29
1, 334787, Note_on_c, 0, 71, 49
1, 334788, Note_off_c, 0, 79, 52
1, 334796, Note_off_c, 0, 77, 57
1, 334886, Note_off_c, 0, 59, 31
1, 334890, Note_off_c, 0, 71, 52
1, 334918, Note_on_c, 0, 79, 61
1, 334948, Note_on_c, 0, 65, 47
1, 334999, Note_on_c, 0, 77, 53
1, 335068, Note_off_c, 0, 65, 37
1, 335088, Control_c, 0, 67, 123
1, 335096, Note_on_c, 0, 71, 48
1, 335100, Note_off_c, 0, 79, 46
1, 335100, Note_on_c, 0, 62, 36
1, 335102, Control_c, 0, 67, 110
1, 335110, Note_off_c, 0, 77, 53
1, 335117, Control_c, 0, 67, 94
1, 335132, Control_c, 0, 67, 77
1, 335147, Control_c, 0, 67, 61
1, 335162, Control_c, 0, 67, 50
1, 335176, Control_c, 0, 67, 41
1, 335191, Control_c, 0, 67, 39
1, 335205, Note_on_c, 0, 59, 40
1, 335236, Control_c, 0, 67, 41
1, 335237, Note_off_c, 0, 62, 34
1, 335246, Note_on_c, 0, 80, 51
1, 335250, Control_c, 0, 67, 44
1, 335265, Control_c, 0, 67, 45
1, 335279, Note_off_c, 0, 59, 58
1, 335280, Control_c, 0, 67, 46
1, 335294, Control_c, 0, 67, 48
1, 335300, Note_off_c, 0, 71, 38
1, 335309, Control_c, 0, 67, 49
1, 335325, Control_c, 0, 67, 50
1, 335340, Control_c, 0, 67, 51
1, 335355, Control_c, 0, 67, 52
1, 335361, Note_on_c, 0, 77, 51
1, 335361, Note_off_c, 0, 81, 33
1, 335370, Control_c, 0, 67, 54
1, 335385, Control_c, 0, 67, 57
1, 335399, Control_c, 0, 64, 112
1, 335399, Control_c, 0, 67, 60
1, 335414, Control_c, 0, 64, 87
1, 335414, Control_c, 0, 67, 63
1, 335429, Control_c, 0, 64, 68
1, 335429, Control_c, 0, 67, 65
1, 335440, Note_on_c, 0, 51, 53
1, 335444, Control_c, 0, 64, 0
1, 335488, Control_c, 0, 64, 56
1, 335503, Control_c, 0, 64, 70
1, 335511, Note_off_c, 0, 77, 59
1, 335518, Control_c, 0, 64, 85
1, 335526, Note_off_c, 0, 80, 33
1, 335532, Control_c, 0, 64, 118
1, 335541, Note_off_c, 0, 51, 59
1, 335547, Control_c, 0, 64, 127
1, 335547, Control_c, 0, 67, 65
1, 335555, Note_on_c, 0, 72, 56
1, 335577, Control_c, 0, 67, 64
1, 335593, Note_off_c, 0, 72, 63
1, 335732, Note_on_c, 0, 89, 64
1, 335762, Note_off_c, 0, 89, 61
1, 335778, Note_on_c, 0, 68, 50
1, 335876, Note_on_c, 0, 80, 53
1, 335924, Note_off_c, 0, 68, 34
1, 335926, Note_off_c, 0, 80, 50
1, 335932, Note_on_c, 0, 63, 44
1, 335962, Note_on_c, 0, 72, 52
1, 335983, Note_off_c, 0, 72, 62
1, 336059, Note_on_c, 0, 88, 77
1, 336066, Note_off_c, 0, 63, 34
1, 336095, Note_on_c, 0, 60, 44
1, 336109, Note_off_c, 0, 88, 56
1, 336175, Note_on_c, 0, 80, 58
1, 336208, Control_c, 0, 67, 64
1, 336252, Control_c, 0, 67, 63
1, 336256, Note_off_c, 0, 80, 60
1, 336262, Note_on_c, 0, 72, 64
1, 336282, Control_c, 0, 67, 63
1, 336291, Note_off_c, 0, 72, 62
1, 336296, Control_c, 0, 67, 62
1, 336311, Control_c, 0, 67, 62
1, 336313, Note_off_c, 0, 60, 37
1, 336326, Control_c, 0, 67, 61
1, 336340, Control_c, 0, 67, 61
1, 336355, Control_c, 0, 67, 60
1, 336369, Note_on_c, 0, 88, 76
1, 336370, Control_c, 0, 67, 58
1, 336385, Control_c, 0, 67, 57
1, 336408, Control_c, 0, 67, 56
1, 336422, Control_c, 0, 67, 54
1, 336436, Note_on_c, 0, 68, 50
1, 336437, Control_c, 0, 67, 52
1, 336440, Note_off_c, 0, 88, 53
1, 336452, Control_c, 0, 67, 48
1, 336467, Control_c, 0, 67, 39
1, 336469, Note_on_c, 0, 80, 60
1, 336482, Control_c, 0, 67, 29
1, 336497, Control_c, 0, 67, 19
1, 336511, Control_c, 0, 67, 10
1, 336521, Note_off_c, 0, 68, 54
1, 336526, Control_c, 0, 67, 0
1, 336562, Note_on_c, 0, 72, 48
1, 336565, Note_on_c, 0, 63, 48
1, 336573, Note_off_c, 0, 80, 53
1, 336585, Note_off_c, 0, 72, 58
1, 336662, Note_on_c, 0, 88, 72
1, 336685, Note_on_c, 0, 60, 48
1, 336711, Note_off_c, 0, 63, 51
1, 336728, Note_off_c, 0, 60, 62
1, 336740, Note_off_c, 0, 88, 56
1, 336768, Note_on_c, 0, 80, 64
1, 336808, Control_c, 0, 64, 102
1, 336822, Control_c, 0, 64, 75
1, 336837, Control_c, 0, 64, 42
1, 336850, Note_off_c, 0, 80, 57
1, 336852, Control_c, 0, 64, 0
1, 336855, Note_on_c, 0, 51, 65
1, 336861, Note_on_c, 0, 73, 70
1, 336867, Control_c, 0, 64, 51
1, 336881, Control_c, 0, 64, 68
1, 336894, Note_off_c, 0, 51, 65
1, 336896, Control_c, 0, 64, 83
1, 336911, Control_c, 0, 64, 127
1, 336935, Note_off_c, 0, 73, 59
1, 336955, Note_on_c, 0, 87, 77
1, 337050, Note_on_c, 0, 79, 60
1, 337056, Note_off_c, 0, 87, 56
1, 337066, Poly_aftertouch_c, 0, 67, 127
1, 337137, Note_on_c, 0, 73, 71
1, 337160, Note_on_c, 0, 61, 53
1, 337173, Note_off_c, 0, 79, 42
1, 337192, Poly_aftertouch_c, 0, 67, 0
1, 337222, Note_off_c, 0, 73, 61
1, 337245, Note_on_c, 0, 86, 75
1, 337261, Note_on_c, 0, 58, 50
1, 337279, Note_off_c, 0, 61, 60
1, 337291, Note_off_c, 0, 58, 64
1, 337333, Note_on_c, 0, 79, 63
1, 337354, Note_off_c, 0, 86, 61
1, 337393, Control_c, 0, 64, 101
1, 337408, Control_c, 0, 64, 79
1, 337416, Note_on_c, 0, 52, 67
1, 337423, Control_c, 0, 64, 64
1, 337437, Note_on_c, 0, 73, 65
1, 337438, Control_c, 0, 64, 63
1, 337446, Note_off_c, 0, 79, 57
1, 337452, Control_c, 0, 64, 68
1, 337453, Note_off_c, 0, 52, 65
1, 337467, Control_c, 0, 64, 77
1, 337482, Control_c, 0, 64, 97
1, 337497, Control_c, 0, 64, 127
1, 337536, Note_on_c, 0, 85, 75
1, 337544, Note_off_c, 0, 73, 61
1, 337620, Note_on_c, 0, 79, 61
1, 337623, Note_on_c, 0, 70, 59
1, 337693, Note_off_c, 0, 70, 60
1, 337719, Note_off_c, 0, 79, 57
1, 337729, Note_on_c, 0, 73, 52
1, 337738, Note_on_c, 0, 67, 48
1, 337828, Note_off_c, 0, 67, 60
1, 337847, Note_on_c, 0, 61, 53
1, 337847, Note_on_c, 0, 82, 74
1, 337901, Note_off_c, 0, 61, 60
1, 337971, Note_on_c, 0, 79, 59
1, 337977, Note_off_c, 0, 85, 51
1, 338005, Note_off_c, 0, 73, 37
1, 338039, Control_c, 0, 64, 103
1, 338044, Note_on_c, 0, 53, 69
1, 338054, Control_c, 0, 64, 73
1, 338068, Control_c, 0, 64, 0
1, 338123, Note_off_c, 0, 82, 52
1, 338142, Control_c, 0, 64, 64
1, 338157, Control_c, 0, 64, 78
1, 338171, Note_off_c, 0, 79, 50
1, 338172, Control_c, 0, 64, 101
1, 338182, Note_on_c, 0, 74, 69
1, 338187, Control_c, 0, 64, 127
1, 338243, Note_off_c, 0, 53, 62
1, 338252, Note_off_c, 0, 74, 63
1, 338377, Note_on_c, 0, 91, 79
1, 338429, Note_off_c, 0, 91, 64
1, 338482, Note_on_c, 0, 70, 51
1, 338537, Note_on_c, 0, 82, 64
1, 338593, Note_off_c, 0, 70, 37
1, 338603, Note_off_c, 0, 82, 58
1, 338619, Note_on_c, 0, 65, 43
1, 338632, Note_on_c, 0, 74, 69
1, 338665, Note_off_c, 0, 74, 68
1, 338743, Note_on_c, 0, 90, 83
1, 338793, Note_on_c, 0, 62, 44
1, 338800, Note_off_c, 0, 90, 66
1, 338850, Note_on_c, 0, 82, 61
1, 338936, Note_on_c, 0, 74, 66
1, 338948, Note_off_c, 0, 82, 55
1, 338962, Note_off_c, 0, 74, 66
1, 338970, Note_off_c, 0, 65, 20
1, 339033, Note_on_c, 0, 90, 84
1, 339077, Note_off_c, 0, 62, 29
1, 339113, Note_off_c, 0, 90, 65
1, 339127, Note_on_c, 0, 70, 56
1, 339136, Note_on_c, 0, 82, 68
1, 339224, Note_off_c, 0, 70, 52
1, 339235, Note_on_c, 0, 74, 57
1, 339235, Note_off_c, 0, 82, 58
1, 339258, Note_off_c, 0, 74, 65
1, 339259, Note_on_c, 0, 65, 55
1, 339338, Note_on_c, 0, 89, 73
1, 339379, Note_on_c, 0, 62, 46
1, 339384, Note_off_c, 0, 65, 60
1, 339416, Note_off_c, 0, 62, 62
1, 339434, Note_off_c, 0, 89, 58
1, 339437, Note_on_c, 0, 82, 68
1, 339492, Control_c, 0, 64, 88
1, 339506, Control_c, 0, 64, 68
1, 339521, Control_c, 0, 64, 0
1, 339539, Note_on_c, 0, 53, 71
1, 339539, Note_on_c, 0, 75, 63
1, 339547, Note_off_c, 0, 82, 60
1, 339551, Control_c, 0, 64, 57
1, 339566, Control_c, 0, 64, 69
1, 339571, Note_off_c, 0, 53, 67
1, 339580, Control_c, 0, 64, 85
1, 339595, Control_c, 0, 64, 108
1, 339596, Note_off_c, 0, 75, 65
1, 339610, Control_c, 0, 64, 127
1, 339640, Note_on_c, 0, 89, 75
1, 339685, Note_on_c, 0, 69, 57
1, 339718, Note_off_c, 0, 89, 55
1, 339729, Note_on_c, 0, 81, 64
1, 339743, Note_off_c, 0, 69, 52
1, 339814, Note_on_c, 0, 63, 55
1, 339833, Note_on_c, 0, 75, 68
1, 339852, Note_off_c, 0, 81, 54
1, 339915, Note_off_c, 0, 75, 58
1, 339921, Note_on_c, 0, 88, 81
1, 339962, Note_on_c, 0, 60, 51
1, 339979, Note_off_c, 0, 63, 51
1, 339999, Note_on_c, 0, 81, 58
1, 340006, Note_off_c, 0, 60, 60
1, 340043, Note_off_c, 0, 88, 58
1, 340054, Control_c, 0, 64, 112
1, 340069, Control_c, 0, 64, 79
1, 340084, Control_c, 0, 64, 0
1, 340114, Note_on_c, 0, 54, 73
1, 340114, Control_c, 0, 64, 36
1, 340121, Note_on_c, 0, 75, 60
1, 340129, Control_c, 0, 64, 67
1, 340152, Control_c, 0, 64, 90
1, 340166, Note_off_c, 0, 54, 62
1, 340167, Control_c, 0, 64, 127
1, 340178, Note_off_c, 0, 81, 46
1, 340217, Note_on_c, 0, 87, 75
1, 340233, Note_off_c, 0, 75, 59
1, 340291, Note_on_c, 0, 72, 63
1, 340300, Note_on_c, 0, 81, 62
1, 340395, Note_on_c, 0, 75, 56
1, 340400, Note_off_c, 0, 72, 43
1, 340401, Note_off_c, 0, 81, 56
1, 340424, Note_on_c, 0, 69, 54
1, 340519, Note_off_c, 0, 69, 54
1, 340522, Note_on_c, 0, 84, 78
1, 340550, Note_on_c, 0, 63, 51
1, 340585, Note_off_c, 0, 75, 53
1, 340586, Note_off_c, 0, 87, 63
1, 340610, Note_off_c, 0, 63, 56
1, 340657, Note_on_c, 0, 81, 67
1, 340761, Note_off_c, 0, 84, 59
1, 340797, Note_on_c, 0, 55, 72
1, 340833, Control_c, 0, 64, 119
1, 340847, Control_c, 0, 64, 97
1, 340862, Control_c, 0, 64, 77
1, 340877, Control_c, 0, 64, 28
1, 340900, Control_c, 0, 64, 0
1, 340934, Note_off_c, 0, 81, 60
1, 340951, Note_on_c, 0, 76, 70
1, 340990, Control_c, 0, 64, 70
1, 341005, Control_c, 0, 64, 92
1, 341019, Control_c, 0, 64, 127
1, 341054, Note_off_c, 0, 76, 57
1, 341089, Note_off_c, 0, 55, 62
1, 341259, Note_on_c, 0, 93, 84
1, 341421, Note_on_c, 0, 72, 45
1, 341471, Note_off_c, 0, 93, 37
1, 341520, Note_on_c, 0, 84, 52
1, 341690, Note_on_c, 0, 67, 40
1, 341693, Note_off_c, 0, 72, 34
1, 341768, Note_on_c, 0, 76, 57
1, 341861, Note_off_c, 0, 76, 38
1, 341942, Note_on_c, 0, 91, 78
1, 341990, Note_off_c, 0, 84, 52
1, 342020, Note_on_c, 0, 64, 45
1, 342110, Note_on_c, 0, 84, 49
1, 342129, Note_off_c, 0, 91, 51
1, 342155, Note_off_c, 0, 67, 29
1, 342254, Note_on_c, 0, 76, 58
1, 342311, Note_off_c, 0, 76, 39
1, 342418, Note_on_c, 0, 91, 68
1, 342433, Note_off_c, 0, 64, 33
1, 342461, Note_off_c, 0, 84, 49
1, 342477, Note_on_c, 0, 72, 38
1, 342528, Note_off_c, 0, 91, 49
1, 342578, Note_on_c, 0, 84, 50
1, 342676, Note_off_c, 0, 72, 32
1, 342677, Note_on_c, 0, 67, 35
1, 342691, Note_on_c, 0, 76, 44
1, 342719, Note_off_c, 0, 76, 54
1, 342788, Note_on_c, 0, 90, 68
1, 342791, Note_off_c, 0, 84, 56
1, 342857, Note_on_c, 0, 64, 30
1, 342879, Note_off_c, 0, 67, 38
1, 342900, Note_on_c, 0, 84, 45
1, 342927, Note_off_c, 0, 90, 58
1, 342996, Note_on_c, 0, 60, 39
1, 343003, Note_on_c, 0, 76, 43
1, 343034, Note_off_c, 0, 76, 52
1, 343068, Note_off_c, 0, 64, 20
1, 343102, Note_on_c, 0, 90, 68
1, 343102, Note_off_c, 0, 84, 60
1, 343163, Note_on_c, 0, 72, 45
1, 343223, Note_on_c, 0, 84, 45
1, 343227, Note_off_c, 0, 90, 61
1, 343297, Note_on_c, 0, 76, 48
1, 343315, Note_off_c, 0, 72, 32
1, 343319, Note_on_c, 0, 67, 43
1, 343333, Note_off_c, 0, 76, 48
1, 343411, Note_on_c, 0, 91, 76
1, 343420, Note_off_c, 0, 84, 56
1, 343461, Note_off_c, 0, 60, 32
1, 343491, Note_off_c, 0, 91, 60
1, 343495, Note_on_c, 0, 64, 44
1, 343508, Note_on_c, 0, 84, 55
1, 343585, Note_on_c, 0, 76, 66
1, 343586, Note_off_c, 0, 67, 35
1, 343626, Note_off_c, 0, 76, 46
1, 343636, Note_on_c, 0, 77, 14
1, 343636, Note_off_c, 0, 84, 0
1, 343636, Note_on_c, 0, 84, 6
1, 343685, Note_off_c, 0, 77, 41
1, 343694, Note_on_c, 0, 91, 79
1, 343704, Note_off_c, 0, 64, 30
1, 343727, Note_off_c, 0, 84, 57
1, 343764, Note_on_c, 0, 72, 44
1, 343766, Poly_aftertouch_c, 0, 84, 0
1, 343780, Note_on_c, 0, 84, 51
1, 343789, Note_off_c, 0, 91, 63
1, 343812, Note_off_c, 0, 84, 66
1, 343858, Note_off_c, 0, 72, 35
1, 343896, Note_on_c, 0, 84, 68
1, 343919, Note_on_c, 0, 67, 42
1, 343929, Note_off_c, 0, 84, 62
1, 344001, Note_on_c, 0, 100, 71
1, 344031, Note_off_c, 0, 67, 50
1, 344057, Note_on_c, 0, 64, 22
1, 344096, Note_off_c, 0, 64, 54
1, 344114, Note_on_c, 0, 91, 72
1, 344121, Note_off_c, 0, 100, 44
1, 344147, Control_c, 0, 64, 107
1, 344162, Control_c, 0, 64, 77
1, 344177, Control_c, 0, 64, 0
1, 344182, Note_on_c, 0, 56, 58
1, 344207, Control_c, 0, 64, 36
1, 344211, Note_off_c, 0, 91, 64
1, 344222, Control_c, 0, 64, 66
1, 344225, Note_off_c, 0, 56, 63
1, 344232, Note_on_c, 0, 84, 54
1, 344236, Control_c, 0, 64, 83
1, 344251, Control_c, 0, 64, 127
1, 344268, Note_off_c, 0, 84, 62
1, 344332, Note_on_c, 0, 100, 70
1, 344359, Note_on_c, 0, 72, 43
1, 344375, Note_off_c, 0, 100, 63
1, 344440, Note_on_c, 0, 89, 66
1, 344460, Note_off_c, 0, 72, 37
1, 344513, Note_on_c, 0, 65, 48
1, 344523, Note_off_c, 0, 89, 60
1, 344525, Note_on_c, 0, 84, 58
1, 344570, Note_off_c, 0, 84, 57
1, 344615, Note_on_c, 0, 98, 79
1, 344678, Note_on_c, 0, 62, 46
1, 344715, Note_on_c, 0, 89, 69
1, 344750, Note_off_c, 0, 98, 41
1, 344762, Note_off_c, 0, 65, 31
1, 344815, Note_on_c, 0, 84, 66
1, 344818, Note_off_c, 0, 89, 61
1, 344878, Note_off_c, 0, 84, 62
1, 344903, Note_on_c, 0, 98, 86
1, 344914, Note_off_c, 0, 62, 34
1, 344997, Note_on_c, 0, 89, 78
1, 345004, Note_on_c, 0, 72, 43
1, 345035, Note_off_c, 0, 98, 47
1, 345068, Note_off_c, 0, 72, 49
1, 345092, Note_on_c, 0, 84, 61
1, 345122, Note_on_c, 0, 65, 48
1, 345132, Note_off_c, 0, 89, 61
1, 345184, Note_on_c, 0, 97, 85
1, 345189, Note_off_c, 0, 84, 44
1, 345247, Note_on_c, 0, 62, 46
1, 345286, Note_on_c, 0, 89, 63
1, 345286, Note_off_c, 0, 65, 52
1, 345321, Note_off_c, 0, 97, 66
1, 345326, Control_c, 0, 64, 105
1, 345332, Note_off_c, 0, 62, 51
1, 345341, Control_c, 0, 64, 81
1, 345356, Control_c, 0, 64, 62
1, 345371, Control_c, 0, 64, 0
1, 345384, Note_on_c, 0, 83, 68
1, 345387, Note_on_c, 0, 56, 55
1, 345408, Control_c, 0, 64, 62
1, 345423, Control_c, 0, 64, 72
1, 345426, Note_off_c, 0, 83, 60
1, 345437, Control_c, 0, 64, 86
1, 345452, Control_c, 0, 64, 126
1, 345462, Note_off_c, 0, 56, 61
1, 345466, Control_c, 0, 64, 127
1, 345483, Note_on_c, 0, 97, 76
1, 345488, Note_off_c, 0, 89, 61
1, 345556, Note_off_c, 0, 97, 66
1, 345574, Note_on_c, 0, 71, 52
1, 345606, Note_on_c, 0, 89, 50
1, 345652, Note_off_c, 0, 89, 54
1, 345655, Note_on_c, 0, 83, 52
1, 345682, Note_off_c, 0, 83, 52
1, 345685, Note_off_c, 0, 71, 53
1, 345712, Note_on_c, 0, 65, 49
1, 345728, Note_on_c, 0, 89, 43
1, 345794, Note_on_c, 0, 98, 73
1, 345803, Note_off_c, 0, 89, 44
1, 345852, Note_off_c, 0, 65, 52
1, 345859, Note_on_c, 0, 62, 35
1, 345893, Note_off_c, 0, 98, 47
1, 345902, Note_on_c, 0, 89, 62
1, 345956, Control_c, 0, 64, 96
1, 345957, Note_off_c, 0, 62, 38
1, 345963, Note_on_c, 0, 55, 56
1, 345968, Note_off_c, 0, 89, 61
1, 345971, Control_c, 0, 64, 75
1, 345986, Control_c, 0, 64, 57
1, 345994, Note_on_c, 0, 86, 58
1, 346001, Control_c, 0, 64, 48
1, 346015, Control_c, 0, 64, 64
1, 346023, Note_off_c, 0, 86, 67
1, 346025, Note_off_c, 0, 55, 53
1, 346030, Control_c, 0, 64, 72
1, 346045, Control_c, 0, 64, 88
1, 346059, Control_c, 0, 64, 127
1, 346120, Note_on_c, 0, 101, 69
1, 346181, Note_off_c, 0, 101, 58
1, 346216, Note_on_c, 0, 71, 50
1, 346273, Note_on_c, 0, 95, 59
1, 346304, Note_off_c, 0, 95, 67
1, 346450, Note_on_c, 0, 65, 40
1, 346460, Note_off_c, 0, 71, 38
1, 346523, Note_on_c, 0, 77, 46
1, 346630, Note_off_c, 0, 77, 39
1, 346718, Note_on_c, 0, 91, 61
1, 346830, Note_on_c, 0, 62, 25
1, 346833, Note_off_c, 0, 65, 30
1, 346982, Note_off_c, 0, 91, 37
1, 347003, Note_on_c, 0, 83, 44
1, 347072, Note_off_c, 0, 62, 38
1, 347236, Note_on_c, 0, 55, 42
1, 347245, Control_c, 0, 64, 117
1, 347260, Control_c, 0, 64, 109
1, 347275, Control_c, 0, 64, 103
1, 347289, Control_c, 0, 64, 94
1, 347305, Control_c, 0, 64, 83
1, 347320, Control_c, 0, 64, 71
1, 347335, Control_c, 0, 64, 45
1, 347350, Control_c, 0, 64, 0
1, 347381, Note_on_c, 0, 76, 44
1, 347391, Note_off_c, 0, 83, 36
1, 347424, Control_c, 0, 64, 43
1, 347439, Control_c, 0, 64, 66
1, 347453, Control_c, 0, 64, 79
1, 347468, Control_c, 0, 64, 103
1, 347483, Control_c, 0, 64, 127
1, 347506, Note_off_c, 0, 76, 37
1, 347556, Note_off_c, 0, 55, 43
1, 347802, Note_on_c, 0, 93, 58
1, 347909, Note_on_c, 0, 72, 38
1, 347959, Note_off_c, 0, 93, 33
1, 348055, Note_on_c, 0, 84, 41
1, 348226, Note_on_c, 0, 67, 18
1, 348238, Note_off_c, 0, 72, 31
1, 348267, Note_on_c, 0, 76, 42
1, 348291, Note_off_c, 0, 84, 0
1, 348308, Note_off_c, 0, 76, 46
1, 348328, Poly_aftertouch_c, 0, 84, 127
1, 348467, Note_on_c, 0, 91, 54
1, 348488, Poly_aftertouch_c, 0, 84, 0
1, 348567, Note_on_c, 0, 64, 31
1, 348613, Note_off_c, 0, 91, 37
1, 348639, Note_on_c, 0, 84, 37
1, 348667, Note_off_c, 0, 67, 20
1, 348780, Note_on_c, 0, 76, 31
1, 348816, Note_off_c, 0, 76, 51
1, 348856, Note_off_c, 0, 64, 37
1, 348916, Note_on_c, 0, 91, 56
1, 348934, Note_off_c, 0, 84, 42
1, 348954, Note_on_c, 0, 72, 35
1, 349029, Note_off_c, 0, 91, 42
1, 349063, Note_on_c, 0, 84, 37
1, 349145, Note_on_c, 0, 67, 32
1, 349155, Note_off_c, 0, 72, 40
1, 349209, Note_on_c, 0, 76, 13
1, 349261, Note_off_c, 0, 76, 51
1, 349307, Note_on_c, 0, 90, 63
1, 349331, Note_off_c, 0, 84, 42
1, 349343, Note_on_c, 0, 64, 19
1, 349371, Note_off_c, 0, 67, 41
1, 349426, Note_off_c, 0, 90, 57
1, 349429, Note_on_c, 0, 84, 42
1, 349492, Note_on_c, 0, 60, 39
1, 349537, Note_on_c, 0, 76, 35
1, 349570, Note_off_c, 0, 76, 51
1, 349578, Note_off_c, 0, 64, 36
1, 349633, Note_off_c, 0, 84, 59
1, 349639, Note_on_c, 0, 90, 60
1, 349698, Note_on_c, 0, 72, 40
1, 349736, Note_off_c, 0, 90, 62
1, 349762, Note_on_c, 0, 84, 40
1, 349831, Note_on_c, 0, 76, 45
1, 349850, Note_on_c, 0, 67, 44
1, 349853, Note_off_c, 0, 84, 0
1, 349853, Note_on_c, 0, 84, 25
1, 349856, Note_off_c, 0, 72, 31
1, 349859, Note_off_c, 0, 76, 52
1, 349911, Note_off_c, 0, 60, 21
1, 349945, Note_on_c, 0, 91, 71
1, 349957, Note_off_c, 0, 84, 53
1, 350025, Note_off_c, 0, 91, 59
1, 350043, Note_on_c, 0, 64, 44
1, 350050, Note_on_c, 0, 84, 45
1, 350136, Note_on_c, 0, 76, 60
1, 350143, Note_off_c, 0, 67, 18
1, 350175, Note_off_c, 0, 76, 45
1, 350248, Note_on_c, 0, 91, 75
1, 350278, Note_off_c, 0, 84, 56
1, 350303, Note_off_c, 0, 64, 32
1, 350314, Note_on_c, 0, 72, 51
1, 350339, Note_on_c, 0, 84, 54
1, 350351, Note_off_c, 0, 91, 56
1, 350370, Note_off_c, 0, 84, 65
1, 350436, Note_off_c, 0, 72, 38
1, 350449, Note_on_c, 0, 84, 56
1, 350466, Note_on_c, 0, 67, 44
1, 350477, Note_off_c, 0, 84, 62
1, 350560, Note_on_c, 0, 100, 66
1, 350571, Note_off_c, 0, 67, 52
1, 350606, Note_on_c, 0, 64, 17
1, 350654, Note_off_c, 0, 100, 44
1, 350659, Note_off_c, 0, 64, 55
1, 350663, Control_c, 0, 64, 97
1, 350678, Control_c, 0, 64, 75
1, 350680, Note_on_c, 0, 91, 62
1, 350693, Control_c, 0, 64, 29
1, 350708, Control_c, 0, 64, 0
1, 350723, Control_c, 0, 64, 32
1, 350732, Note_on_c, 0, 56, 61
1, 350738, Control_c, 0, 64, 66
1, 350753, Control_c, 0, 64, 81
1, 350768, Control_c, 0, 64, 107
1, 350777, Note_off_c, 0, 91, 64
1, 350781, Note_off_c, 0, 56, 56
1, 350783, Control_c, 0, 64, 127
1, 350794, Note_on_c, 0, 84, 64
1, 350836, Note_off_c, 0, 84, 59
1, 350899, Note_on_c, 0, 100, 69
1, 350929, Note_on_c, 0, 72, 39
1, 350944, Note_off_c, 0, 100, 59
1, 351009, Note_on_c, 0, 89, 65
1, 351038, Note_off_c, 0, 72, 38
1, 351069, Note_on_c, 0, 65, 46
1, 351090, Note_off_c, 0, 89, 60
1, 351099, Note_on_c, 0, 84, 57
1, 351155, Note_off_c, 0, 84, 62
1, 351184, Note_on_c, 0, 98, 84
1, 351215, Note_on_c, 0, 62, 53
1, 351276, Note_on_c, 0, 89, 70
1, 351337, Note_off_c, 0, 98, 38
1, 351363, Note_off_c, 0, 65, 29
1, 351393, Note_on_c, 0, 84, 67
1, 351395, Note_off_c, 0, 89, 62
1, 351469, Note_off_c, 0, 84, 61
1, 351488, Note_on_c, 0, 98, 85
1, 351504, Note_off_c, 0, 62, 36
1, 351584, Note_on_c, 0, 72, 52
1, 351584, Note_on_c, 0, 89, 75
1, 351617, Note_off_c, 0, 98, 52
1, 351665, Note_off_c, 0, 72, 52
1, 351688, Note_on_c, 0, 84, 67
1, 351703, Note_on_c, 0, 65, 53
1, 351730, Note_off_c, 0, 89, 60
1, 351788, Note_on_c, 0, 97, 86
1, 351802, Note_off_c, 0, 84, 60
1, 351805, Note_on_c, 0, 62, 51
1, 351872, Note_off_c, 0, 65, 45
1, 351880, Note_on_c, 0, 89, 70
1, 351906, Note_off_c, 0, 62, 56
1, 351932, Control_c, 0, 64, 109
1, 351941, Note_off_c, 0, 97, 66
1, 351946, Control_c, 0, 64, 80
1, 351957, Note_on_c, 0, 56, 67
1, 351961, Control_c, 0, 64, 60
1, 351976, Control_c, 0, 64, 0
1, 351986, Note_on_c, 0, 83, 70
1, 351990, Control_c, 0, 64, 11
1, 352005, Control_c, 0, 64, 62
1, 352020, Control_c, 0, 64, 71
1, 352024, Note_off_c, 0, 56, 63
1, 352035, Control_c, 0, 64, 88
1, 352041, Note_off_c, 0, 83, 55
1, 352050, Control_c, 0, 64, 127
1, 352097, Note_on_c, 0, 97, 71
1, 352100, Note_off_c, 0, 89, 57
1, 352159, Note_on_c, 0, 73, 86
1, 352225, Note_off_c, 0, 97, 64
1, 352289, Note_on_c, 0, 89, 14
1, 352341, Note_on_c, 0, 83, 42
1, 352346, Note_on_c, 0, 65, 49
1, 352346, Note_off_c, 0, 89, 42
1, 352370, Note_off_c, 0, 73, 58
1, 352372, Note_off_c, 0, 83, 50
1, 352497, Note_on_c, 0, 98, 76
1, 352512, Note_off_c, 0, 65, 0
1, 352569, Note_on_c, 0, 61, 53
1, 352585, Poly_aftertouch_c, 0, 65, 0
1, 352675, Note_off_c, 0, 61, 56
1, 352682, Note_off_c, 0, 98, 39
1, 352695, Note_on_c, 0, 89, 63
1, 352871, Note_on_c, 0, 75, 82
1, 352941, Control_c, 0, 64, 101
1, 352956, Control_c, 0, 64, 79
1, 352971, Control_c, 0, 64, 55
1, 352985, Control_c, 0, 64, 0
1, 353004, Note_on_c, 0, 83, 54
1, 353020, Note_off_c, 0, 89, 52
1, 353030, Control_c, 0, 64, 59
1, 353044, Control_c, 0, 64, 70
1, 353059, Control_c, 0, 64, 86
1, 353074, Control_c, 0, 64, 118
1, 353088, Note_off_c, 0, 83, 51
1, 353089, Control_c, 0, 64, 127
1, 353188, Note_on_c, 0, 89, 24
1, 353306, Note_on_c, 0, 99, 60
1, 353310, Note_off_c, 0, 89, 29
1, 353385, Note_on_c, 0, 65, 35
1, 353419, Note_off_c, 0, 99, 58
1, 353439, Note_off_c, 0, 75, 31
1, 353544, Note_on_c, 0, 89, 43
1, 353689, Control_c, 0, 67, 8
1, 353704, Control_c, 0, 67, 14
1, 353710, Note_on_c, 0, 83, 46
1, 353719, Control_c, 0, 67, 21
1, 353734, Control_c, 0, 67, 30
1, 353748, Control_c, 0, 67, 42
1, 353760, Note_on_c, 0, 61, 34
1, 353763, Control_c, 0, 67, 53
1, 353778, Control_c, 0, 67, 62
1, 353793, Control_c, 0, 67, 69
1, 353808, Control_c, 0, 67, 76
1, 353818, Note_off_c, 0, 83, 36
1, 353822, Control_c, 0, 67, 81
1, 353837, Control_c, 0, 67, 85
1, 353852, Control_c, 0, 67, 86
1, 353866, Control_c, 0, 67, 87
1, 353947, Note_on_c, 0, 97, 53
1, 354002, Note_off_c, 0, 65, 38
1, 354030, Note_off_c, 0, 89, 35
1, 354073, Control_c, 0, 67, 86
1, 354086, Note_on_c, 0, 73, 46
1, 354103, Control_c, 0, 67, 86
1, 354118, Control_c, 0, 67, 85
1, 354133, Control_c, 0, 67, 85
1, 354148, Note_off_c, 0, 73, 56
1, 354148, Control_c, 0, 67, 84
1, 354163, Control_c, 0, 67, 84
1, 354301, Note_off_c, 0, 61, 47
1, 354318, Note_off_c, 0, 97, 61
1, 354319, Note_on_c, 0, 89, 46
1, 354482, Control_c, 0, 64, 124
1, 354497, Note_on_c, 0, 54, 45
1, 354497, Control_c, 0, 64, 95
1, 354512, Control_c, 0, 64, 76
1, 354527, Control_c, 0, 64, 63
1, 354531, Note_off_c, 0, 89, 43
1, 354542, Control_c, 0, 64, 0
1, 354557, Control_c, 0, 64, 44
1, 354571, Note_on_c, 0, 83, 45
1, 354571, Control_c, 0, 64, 64
1, 354586, Control_c, 0, 64, 70
1, 354601, Control_c, 0, 64, 80
1, 354604, Note_off_c, 0, 54, 61
1, 354616, Control_c, 0, 64, 101
1, 354631, Control_c, 0, 64, 127
1, 354726, Note_on_c, 0, 95, 56
1, 354742, Note_off_c, 0, 83, 39
1, 354756, Note_off_c, 0, 95, 54
1, 354859, Note_on_c, 0, 85, 52
1, 354873, Note_on_c, 0, 71, 48
1, 354883, Control_c, 0, 67, 83
1, 354897, Control_c, 0, 67, 83
1, 354912, Control_c, 0, 67, 82
1, 354927, Control_c, 0, 67, 82
1, 354942, Control_c, 0, 67, 81
1, 354952, Note_on_c, 0, 90, 63
1, 354953, Note_off_c, 0, 85, 56
1, 354957, Control_c, 0, 67, 80
1, 354971, Control_c, 0, 67, 79
1, 354986, Control_c, 0, 67, 78
1, 355001, Control_c, 0, 67, 78
1, 355029, Note_off_c, 0, 90, 59
1, 355030, Control_c, 0, 67, 78
1, 355045, Control_c, 0, 67, 79
1, 355060, Control_c, 0, 67, 80
1, 355066, Note_on_c, 0, 78, 54
1, 355075, Control_c, 0, 67, 80
1, 355078, Note_on_c, 0, 66, 41
1, 355090, Control_c, 0, 67, 81
1, 355105, Control_c, 0, 67, 82
1, 355124, Note_off_c, 0, 78, 56
1, 355127, Control_c, 0, 67, 82
1, 355135, Note_off_c, 0, 71, 32
1, 355142, Control_c, 0, 67, 83
1, 355157, Control_c, 0, 67, 84
1, 355170, Note_on_c, 0, 85, 58
1, 355171, Control_c, 0, 67, 84
1, 355186, Control_c, 0, 67, 85
1, 355200, Control_c, 0, 67, 86
1, 355215, Control_c, 0, 67, 86
1, 355225, Note_off_c, 0, 85, 62
1, 355230, Control_c, 0, 67, 87
1, 355245, Control_c, 0, 67, 88
1, 355260, Control_c, 0, 67, 89
1, 355266, Note_on_c, 0, 82, 63
1, 355274, Note_on_c, 0, 61, 49
1, 355275, Control_c, 0, 67, 90
1, 355290, Control_c, 0, 67, 93
1, 355305, Control_c, 0, 67, 97
1, 355316, Note_off_c, 0, 66, 36
1, 355319, Control_c, 0, 67, 100
1, 355334, Control_c, 0, 67, 105
1, 355346, Note_on_c, 0, 94, 60
1, 355349, Control_c, 0, 67, 110
1, 355364, Control_c, 0, 67, 115
1, 355379, Control_c, 0, 67, 120
1, 355394, Control_c, 0, 67, 126
1, 355406, Note_off_c, 0, 94, 63
1, 355409, Control_c, 0, 67, 127
1, 355421, Note_off_c, 0, 61, 54
1, 355438, Note_on_c, 0, 85, 63
1, 355447, Note_off_c, 0, 82, 50
1, 355455, Note_on_c, 0, 70, 58
1, 355523, Note_on_c, 0, 90, 70
1, 355531, Note_off_c, 0, 85, 58
1, 355536, Note_off_c, 0, 70, 56
1, 355597, Note_off_c, 0, 90, 60
1, 355614, Note_on_c, 0, 66, 43
1, 355618, Note_on_c, 0, 78, 64
1, 355632, Note_on_c, 0, 61, 50
1, 355645, Note_off_c, 0, 66, 62
1, 355661, Note_off_c, 0, 61, 64
1, 355682, Note_off_c, 0, 78, 61
1, 355705, Note_on_c, 0, 85, 63
1, 355719, Control_c, 0, 64, 91
1, 355734, Control_c, 0, 64, 70
1, 355749, Control_c, 0, 64, 0
1, 355779, Note_on_c, 0, 46, 65
1, 355779, Control_c, 0, 64, 59
1, 355779, Note_off_c, 0, 85, 63
1, 355792, Note_on_c, 0, 80, 67
1, 355793, Control_c, 0, 64, 73
1, 355808, Note_off_c, 0, 46, 64
1, 355808, Control_c, 0, 64, 91
1, 355823, Control_c, 0, 64, 127
1, 355875, Note_on_c, 0, 92, 60
1, 355903, Note_off_c, 0, 80, 54
1, 355918, Note_off_c, 0, 92, 61
1, 355959, Note_on_c, 0, 82, 70
1, 355963, Note_on_c, 0, 68, 63
1, 356039, Note_on_c, 0, 86, 66
1, 356044, Note_off_c, 0, 82, 51
1, 356094, Note_off_c, 0, 86, 63
1, 356120, Note_on_c, 0, 62, 46
1, 356123, Note_on_c, 0, 74, 66
1, 356142, Note_off_c, 0, 68, 38
1, 356148, Note_off_c, 0, 74, 68
1, 356184, Note_on_c, 0, 82, 65
1, 356247, Note_off_c, 0, 82, 64
1, 356275, Note_on_c, 0, 78, 76
1, 356285, Note_on_c, 0, 58, 62
1, 356313, Note_off_c, 0, 62, 29
1, 356342, Note_on_c, 0, 90, 73
1, 356383, Note_off_c, 0, 78, 55
1, 356394, Note_off_c, 0, 90, 65
1, 356400, Note_off_c, 0, 58, 53
1, 356424, Note_on_c, 0, 82, 66
1, 356425, Note_on_c, 0, 66, 59
1, 356502, Note_on_c, 0, 86, 68
1, 356504, Note_off_c, 0, 82, 59
1, 356548, Note_off_c, 0, 86, 64
1, 356557, Note_off_c, 0, 66, 36
1, 356572, Note_on_c, 0, 62, 36
1, 356575, Note_on_c, 0, 58, 52
1, 356586, Note_on_c, 0, 74, 68
1, 356602, Note_off_c, 0, 58, 65
1, 356603, Note_off_c, 0, 62, 52
1, 356628, Note_off_c, 0, 74, 60
1, 356661, Note_on_c, 0, 82, 69
1, 356682, Control_c, 0, 64, 106
1, 356697, Control_c, 0, 64, 74
1, 356712, Control_c, 0, 64, 0
1, 356738, Note_off_c, 0, 82, 62
1, 356741, Control_c, 0, 64, 28
1, 356749, Note_on_c, 0, 47, 63
1, 356756, Control_c, 0, 64, 67
1, 356759, Note_on_c, 0, 77, 68
1, 356771, Control_c, 0, 64, 82
1, 356783, Note_off_c, 0, 47, 67
1, 356786, Control_c, 0, 64, 121
1, 356801, Control_c, 0, 64, 127
1, 356820, Note_on_c, 0, 89, 80
1, 356831, Note_off_c, 0, 77, 39
1, 356852, Note_off_c, 0, 89, 50
1, 356921, Note_on_c, 0, 79, 51
1, 356922, Note_on_c, 0, 65, 63
1, 356956, Note_off_c, 0, 79, 53
1, 356979, Note_on_c, 0, 83, 68
1, 356998, Poly_aftertouch_c, 0, 81, 0
1, 357028, Note_off_c, 0, 83, 56
1, 357048, Note_on_c, 0, 71, 65
1, 357071, Note_on_c, 0, 59, 53
1, 357075, Note_off_c, 0, 65, 37
1, 357084, Note_off_c, 0, 71, 63
1, 357095, Note_on_c, 0, 79, 62
1, 357145, Note_off_c, 0, 79, 63
1, 357194, Note_on_c, 0, 75, 71
1, 357202, Note_on_c, 0, 56, 65
1, 357217, Note_off_c, 0, 59, 37
1, 357241, Note_on_c, 0, 87, 83
1, 357280, Note_off_c, 0, 75, 60
1, 357300, Note_off_c, 0, 87, 63
1, 357316, Note_on_c, 0, 80, 64
1, 357345, Note_on_c, 0, 63, 69
1, 357347, Note_off_c, 0, 80, 62
1, 357396, Note_on_c, 0, 83, 71
1, 357445, Note_off_c, 0, 83, 63
1, 357454, Note_off_c, 0, 63, 58
1, 357468, Note_on_c, 0, 71, 69
1, 357474, Note_on_c, 0, 59, 31
1, 357491, Note_off_c, 0, 56, 63
1, 357493, Note_off_c, 0, 71, 68
1, 357507, Note_off_c, 0, 59, 54
1, 357524, Note_on_c, 0, 80, 68
1, 357565, Control_c, 0, 64, 92
1, 357575, Note_off_c, 0, 80, 62
1, 357580, Control_c, 0, 64, 60
1, 357595, Control_c, 0, 64, 0
1, 357600, Note_on_c, 0, 44, 69
1, 357603, Note_on_c, 0, 73, 74
1, 357624, Control_c, 0, 64, 63
1, 357630, Note_off_c, 0, 44, 65
1, 357639, Control_c, 0, 64, 94
1, 357651, Note_on_c, 0, 85, 73
1, 357654, Control_c, 0, 64, 127
1, 357674, Note_off_c, 0, 85, 69
1, 357693, Note_off_c, 0, 73, 50
1, 357738, Note_on_c, 0, 75, 62
1, 357746, Note_on_c, 0, 61, 73
1, 357804, Note_off_c, 0, 75, 60
1, 357806, Note_on_c, 0, 80, 61
1, 357843, Note_off_c, 0, 80, 57
1, 357877, Note_on_c, 0, 68, 67
1, 357889, Note_on_c, 0, 56, 56
1, 357910, Note_off_c, 0, 68, 62
1, 357925, Note_off_c, 0, 61, 38
1, 357942, Note_on_c, 0, 75, 62
1, 357990, Note_off_c, 0, 75, 60
1, 358012, Note_on_c, 0, 71, 77
1, 358017, Note_on_c, 0, 51, 63
1, 358026, Note_off_c, 0, 56, 38
1, 358071, Note_on_c, 0, 83, 73
1, 358073, Note_off_c, 0, 71, 57
1, 358101, Note_off_c, 0, 51, 57
1, 358125, Note_off_c, 0, 83, 62
1, 358151, Note_on_c, 0, 75, 62
1, 358157, Note_on_c, 0, 59, 55
1, 358220, Note_off_c, 0, 75, 61
1, 358226, Note_on_c, 0, 80, 69
1, 358258, Note_on_c, 0, 56, 48
1, 358261, Note_off_c, 0, 59, 44
1, 358280, Note_on_c, 0, 51, 53
1, 358287, Note_off_c, 0, 80, 59
1, 358291, Note_off_c, 0, 56, 64
1, 358298, Note_on_c, 0, 68, 63
1, 358314, Note_off_c, 0, 51, 64
1, 358348, Note_off_c, 0, 68, 58
1, 358366, Note_on_c, 0, 75, 63
1, 358388, Control_c, 0, 64, 112
1, 358403, Control_c, 0, 64, 84
1, 358418, Control_c, 0, 64, 63
1, 358421, Note_off_c, 0, 75, 60
1, 358433, Control_c, 0, 64, 0
1, 358443, Note_on_c, 0, 37, 58
1, 358444, Note_on_c, 0, 71, 70
1, 358447, Control_c, 0, 64, 42
1, 358462, Control_c, 0, 64, 65
1, 358477, Control_c, 0, 64, 76
1, 358478, Note_off_c, 0, 37, 62
1, 358493, Control_c, 0, 64, 92
1, 358507, Note_on_c, 0, 83, 58
1, 358508, Control_c, 0, 64, 127
1, 358517, Note_off_c, 0, 71, 40
1, 358526, Note_off_c, 0, 83, 64
1, 358581, Note_on_c, 0, 73, 70
1, 358606, Note_on_c, 0, 59, 63
1, 358646, Note_off_c, 0, 73, 62
1, 358653, Note_on_c, 0, 78, 65
1, 358688, Note_off_c, 0, 78, 58
1, 358709, Note_on_c, 0, 66, 73
1, 358730, Note_on_c, 0, 54, 59
1, 358750, Note_off_c, 0, 66, 59
1, 358766, Note_on_c, 0, 73, 74
1, 358771, Note_off_c, 0, 59, 38
1, 358802, Note_off_c, 0, 73, 62
1, 358839, Note_on_c, 0, 70, 77
1, 358846, Note_on_c, 0, 49, 65
1, 358881, Note_off_c, 0, 54, 48
1, 358895, Note_on_c, 0, 82, 84
1, 358950, Note_off_c, 0, 82, 63
1, 358968, Note_on_c, 0, 73, 70
1, 358974, Note_off_c, 0, 70, 61
1, 358974, Control_c, 0, 64, 108
1, 358985, Note_on_c, 0, 58, 63
1, 358989, Control_c, 0, 64, 93
1, 359004, Control_c, 0, 64, 81
1, 359019, Control_c, 0, 64, 69
1, 359034, Control_c, 0, 64, 24
1, 359036, Note_off_c, 0, 49, 62
1, 359044, Note_on_c, 0, 78, 68
1, 359046, Note_off_c, 0, 73, 61
1, 359049, Control_c, 0, 64, 0
1, 359082, Note_on_c, 0, 54, 57
1, 359083, Note_off_c, 0, 78, 58
1, 359096, Note_off_c, 0, 58, 45
1, 359096, Note_on_c, 0, 66, 70
1, 359132, Note_off_c, 0, 66, 64
1, 359137, Control_c, 0, 64, 27
1, 359152, Control_c, 0, 64, 63
1, 359155, Note_on_c, 0, 73, 67
1, 359167, Control_c, 0, 64, 72
1, 359174, Note_off_c, 0, 54, 60
1, 359177, Note_off_c, 0, 73, 66
1, 359182, Control_c, 0, 64, 85
1, 359196, Control_c, 0, 64, 103
1, 359204, Note_on_c, 0, 46, 69
1, 359211, Control_c, 0, 64, 127
1, 359232, Note_on_c, 0, 75, 73
1, 359239, Note_off_c, 0, 46, 63
1, 359279, Note_on_c, 0, 87, 74
1, 359323, Note_off_c, 0, 75, 51
1, 359326, Note_off_c, 0, 87, 61
1, 359356, Note_on_c, 0, 78, 66
1, 359359, Note_on_c, 0, 63, 65
1, 359416, Note_on_c, 0, 82, 75
1, 359424, Note_off_c, 0, 78, 51
1, 359472, Note_off_c, 0, 82, 62
1, 359487, Note_off_c, 0, 63, 52
1, 359496, Note_on_c, 0, 70, 67
1, 359498, Note_on_c, 0, 58, 57
1, 359523, Note_off_c, 0, 70, 67
1, 359540, Note_on_c, 0, 78, 67
1, 359571, Note_off_c, 0, 78, 62
1, 359615, Note_on_c, 0, 73, 80
1, 359625, Note_on_c, 0, 54, 67
1, 359651, Note_off_c, 0, 58, 31
1, 359668, Note_on_c, 0, 85, 78
1, 359709, Note_off_c, 0, 54, 60
1, 359716, Note_off_c, 0, 85, 63
1, 359729, Note_off_c, 0, 73, 56
1, 359734, Note_on_c, 0, 78, 67
1, 359746, Note_on_c, 0, 61, 59
1, 359806, Note_on_c, 0, 82, 73
1, 359812, Note_off_c, 0, 78, 53
1, 359821, Note_off_c, 0, 61, 59
1, 359843, Note_on_c, 0, 54, 65
1, 359843, Note_on_c, 0, 58, 47
1, 359860, Note_off_c, 0, 82, 59
1, 359873, Note_off_c, 0, 58, 65
1, 359877, Note_on_c, 0, 70, 67
1, 359878, Note_off_c, 0, 54, 66
1, 359920, Note_off_c, 0, 70, 61
1, 359928, Note_on_c, 0, 78, 66
1, 359945, Control_c, 0, 64, 83
1, 359959, Control_c, 0, 64, 60
1, 359974, Control_c, 0, 64, 0
1, 359980, Note_off_c, 0, 78, 55
1, 359995, Note_on_c, 0, 37, 65
1, 359998, Note_on_c, 0, 70, 65
1, 360004, Control_c, 0, 64, 56
1, 360018, Control_c, 0, 64, 70
1, 360023, Note_off_c, 0, 37, 65
1, 360033, Control_c, 0, 64, 92
1, 360048, Control_c, 0, 64, 127
1, 360050, Note_on_c, 0, 82, 62
1, 360068, Note_off_c, 0, 70, 59
1, 360077, Note_off_c, 0, 82, 67
1, 360118, Poly_aftertouch_c, 0, 80, 127
1, 360119, Note_on_c, 0, 73, 66
1, 360137, Note_on_c, 0, 58, 71
1, 360144, Poly_aftertouch_c, 0, 80, 0
1, 360184, Note_off_c, 0, 73, 56
1, 360184, Note_on_c, 0, 77, 73
1, 360227, Note_off_c, 0, 77, 63
1, 360256, Note_on_c, 0, 65, 67
1, 360262, Note_on_c, 0, 53, 58
1, 360262, Note_off_c, 0, 58, 56
1, 360283, Note_off_c, 0, 65, 67
1, 360299, Note_on_c, 0, 73, 75
1, 360315, Control_c, 0, 64, 93
1, 360330, Control_c, 0, 64, 71
1, 360331, Note_off_c, 0, 73, 64
1, 360345, Control_c, 0, 64, 0
1, 360358, Note_off_c, 0, 53, 55
1, 360378, Note_on_c, 0, 68, 79
1, 360384, Note_on_c, 0, 47, 67
1, 360397, Control_c, 0, 64, 63
1, 360412, Control_c, 0, 64, 74
1, 360422, Note_on_c, 0, 80, 69
1, 360427, Control_c, 0, 64, 87
1, 360442, Control_c, 0, 64, 107
1, 360457, Control_c, 0, 64, 127
1, 360472, Note_off_c, 0, 80, 59
1, 360476, Note_off_c, 0, 68, 49
1, 360489, Note_on_c, 0, 73, 72
1, 360500, Note_on_c, 0, 56, 72
1, 360549, Note_off_c, 0, 73, 63
1, 360557, Note_on_c, 0, 77, 62
1, 360576, Note_off_c, 0, 77, 67
1, 360605, Note_on_c, 0, 53, 63
1, 360605, Note_on_c, 0, 65, 70
1, 360627, Note_off_c, 0, 47, 36
1, 360634, Note_off_c, 0, 65, 65
1, 360634, Note_off_c, 0, 56, 50
1, 360659, Note_on_c, 0, 73, 72
1, 360679, Control_c, 0, 64, 103
1, 360684, Note_off_c, 0, 73, 67
1, 360694, Control_c, 0, 64, 76
1, 360699, Note_off_c, 0, 53, 61
1, 360709, Control_c, 0, 64, 35
1, 360724, Control_c, 0, 64, 0
1, 360731, Note_on_c, 0, 47, 78
1, 360746, Note_on_c, 0, 74, 80
1, 360754, Control_c, 0, 64, 59
1, 360768, Control_c, 0, 64, 70
1, 360780, Note_off_c, 0, 47, 66
1, 360781, Note_on_c, 0, 86, 76
1, 360783, Control_c, 0, 64, 86
1, 360798, Control_c, 0, 64, 113
1, 360804, Note_off_c, 0, 74, 65
1, 360804, Note_off_c, 0, 86, 64
1, 360813, Control_c, 0, 64, 127
1, 360865, Note_on_c, 0, 77, 59
1, 360879, Note_on_c, 0, 62, 69
1, 360894, Note_off_c, 0, 77, 52
1, 360930, Note_on_c, 0, 80, 72
1, 360961, Note_off_c, 0, 62, 56
1, 360981, Note_off_c, 0, 80, 60
1, 361002, Note_on_c, 0, 68, 74
1, 361008, Note_on_c, 0, 56, 68
1, 361031, Note_off_c, 0, 68, 60
1, 361038, Note_on_c, 0, 77, 61
1, 361083, Note_off_c, 0, 77, 63
1, 361096, Note_off_c, 0, 56, 54
1, 361127, Note_on_c, 0, 73, 85
1, 361129, Note_on_c, 0, 53, 77
1, 361132, Control_c, 0, 67, 117
1, 361147, Control_c, 0, 67, 96
1, 361162, Control_c, 0, 67, 65
1, 361177, Control_c, 0, 67, 31
1, 361177, Note_on_c, 0, 85, 83
1, 361191, Control_c, 0, 67, 0
1, 361230, Note_off_c, 0, 85, 64
1, 361234, Note_on_c, 0, 77, 68
1, 361236, Note_off_c, 0, 73, 57
1, 361257, Note_on_c, 0, 61, 70
1, 361314, Note_off_c, 0, 77, 64
1, 361325, Control_c, 0, 67, 8
1, 361329, Note_on_c, 0, 80, 65
1, 361329, Note_off_c, 0, 61, 62
1, 361331, Note_on_c, 0, 56, 71
1, 361339, Control_c, 0, 67, 10
1, 361347, Note_off_c, 0, 53, 63
1, 361354, Control_c, 0, 67, 13
1, 361356, Note_off_c, 0, 56, 69
1, 361369, Control_c, 0, 67, 15
1, 361373, Note_on_c, 0, 68, 72
1, 361383, Note_off_c, 0, 80, 53
1, 361383, Control_c, 0, 67, 17
1, 361398, Control_c, 0, 67, 19
1, 361413, Control_c, 0, 67, 20
1, 361419, Note_off_c, 0, 68, 62
1, 361428, Control_c, 0, 67, 21
1, 361431, Note_on_c, 0, 73, 72
1, 361443, Control_c, 0, 67, 23
1, 361456, Note_off_c, 0, 73, 68
1, 361457, Control_c, 0, 67, 26
1, 361472, Control_c, 0, 64, 119
1, 361472, Control_c, 0, 67, 28
1, 361487, Control_c, 0, 64, 79
1, 361487, Control_c, 0, 67, 30
1, 361502, Control_c, 0, 64, 0
1, 361502, Control_c, 0, 67, 30
1, 361517, Control_c, 0, 67, 30
1, 361532, Control_c, 0, 67, 29
1, 361538, Note_on_c, 0, 42, 76
1, 361547, Control_c, 0, 64, 61
1, 361547, Control_c, 0, 67, 28
1, 361561, Control_c, 0, 64, 87
1, 361561, Control_c, 0, 67, 26
1, 361566, Note_off_c, 0, 42, 66
1, 361571, Note_on_c, 0, 83, 81
1, 361576, Control_c, 0, 64, 127
1, 361576, Control_c, 0, 67, 25
1, 361591, Control_c, 0, 67, 24
1, 361606, Control_c, 0, 67, 23
1, 361621, Control_c, 0, 67, 23
1, 361629, Note_off_c, 0, 83, 54
1, 361636, Note_on_c, 0, 95, 80
1, 361636, Control_c, 0, 67, 22
1, 361651, Control_c, 0, 67, 22
1, 361665, Control_c, 0, 67, 21
1, 361678, Note_off_c, 0, 95, 58
1, 361714, Note_on_c, 0, 71, 67
1, 361740, Control_c, 0, 67, 22
1, 361775, Note_on_c, 0, 90, 69
1, 361809, Note_off_c, 0, 90, 61
1, 361812, Note_off_c, 0, 71, 47
1, 361814, Control_c, 0, 67, 22
1, 361831, Note_on_c, 0, 78, 68
1, 361839, Note_on_c, 0, 66, 65
1, 361844, Control_c, 0, 67, 23
1, 361867, Note_off_c, 0, 78, 62
1, 361881, Control_c, 0, 67, 23
1, 361888, Note_on_c, 0, 85, 71
1, 361913, Note_off_c, 0, 85, 68
1, 361925, Control_c, 0, 67, 24
1, 361958, Note_on_c, 0, 82, 82
1, 361964, Note_on_c, 0, 61, 71
1, 361968, Note_off_c, 0, 66, 36
1, 361970, Control_c, 0, 67, 24
1, 362003, Note_on_c, 0, 94, 78
1, 362029, Control_c, 0, 67, 25
1, 362038, Note_off_c, 0, 61, 59
1, 362049, Note_off_c, 0, 94, 65
1, 362068, Note_on_c, 0, 85, 71
1, 362074, Control_c, 0, 67, 25
1, 362075, Note_off_c, 0, 82, 59
1, 362077, Note_on_c, 0, 70, 66
1, 362103, Control_c, 0, 67, 26
1, 362118, Control_c, 0, 67, 26
1, 362133, Control_c, 0, 67, 27
1, 362134, Note_off_c, 0, 70, 63
1, 362137, Note_on_c, 0, 90, 80
1, 362149, Note_off_c, 0, 85, 56
1, 362162, Control_c, 0, 67, 28
1, 362164, Note_on_c, 0, 66, 56
1, 362177, Control_c, 0, 67, 28
1, 362183, Note_on_c, 0, 61, 57
1, 362192, Control_c, 0, 67, 29
1, 362196, Note_off_c, 0, 66, 64
1, 362199, Note_off_c, 0, 90, 64
1, 362206, Control_c, 0, 67, 29
1, 362208, Note_off_c, 0, 61, 65
1, 362211, Note_on_c, 0, 78, 67
1, 362221, Control_c, 0, 67, 30
1, 362241, Note_off_c, 0, 78, 62
1, 362251, Control_c, 0, 64, 95
1, 362251, Control_c, 0, 67, 31
1, 362255, Note_on_c, 0, 85, 75
1, 362266, Control_c, 0, 64, 68
1, 362266, Control_c, 0, 67, 31
1, 362280, Control_c, 0, 64, 0
1, 362280, Control_c, 0, 67, 32
1, 362295, Control_c, 0, 64, 45
1, 362295, Control_c, 0, 67, 32
1, 362296, Note_off_c, 0, 85, 59
1, 362310, Note_on_c, 0, 46, 76
1, 362310, Control_c, 0, 64, 74
1, 362325, Control_c, 0, 64, 96
1, 362328, Note_on_c, 0, 80, 78
1, 362337, Note_off_c, 0, 46, 65
1, 362340, Control_c, 0, 64, 127
1, 362381, Note_on_c, 0, 92, 73
1, 362413, Note_off_c, 0, 92, 63
1, 362437, Note_off_c, 0, 80, 46
1, 362444, Control_c, 0, 67, 32
1, 362450, Note_on_c, 0, 82, 73
1, 362454, Note_on_c, 0, 68, 69
1, 362474, Control_c, 0, 67, 31
1, 362489, Control_c, 0, 67, 31
1, 362503, Control_c, 0, 67, 30
1, 362518, Control_c, 0, 67, 30
1, 362522, Note_on_c, 0, 86, 71
1, 362527, Note_off_c, 0, 82, 55
1, 362533, Control_c, 0, 67, 29
1, 362548, Control_c, 0, 67, 29
1, 362563, Control_c, 0, 67, 28
1, 362572, Note_off_c, 0, 86, 63
1, 362578, Control_c, 0, 67, 28
1, 362591, Note_on_c, 0, 62, 57
1, 362596, Note_on_c, 0, 74, 73
1, 362611, Note_off_c, 0, 68, 59
1, 362615, Control_c, 0, 67, 27
1, 362627, Note_off_c, 0, 74, 70
1, 362644, Control_c, 0, 67, 27
1, 362647, Note_on_c, 0, 82, 73
1, 362693, Note_off_c, 0, 82, 62
1, 362704, Control_c, 0, 67, 27
1, 362711, Note_on_c, 0, 58, 70
1, 362712, Note_off_c, 0, 62, 49
1, 362721, Note_on_c, 0, 78, 77
1, 362733, Control_c, 0, 67, 28
1, 362748, Control_c, 0, 67, 28
1, 362763, Control_c, 0, 67, 29
1, 362763, Note_on_c, 0, 90, 82
1, 362778, Control_c, 0, 67, 29
1, 362793, Control_c, 0, 67, 30
1, 362808, Note_off_c, 0, 90, 62
1, 362808, Control_c, 0, 67, 30
1, 362817, Note_off_c, 0, 58, 54
1, 362821, Note_on_c, 0, 82, 75
1, 362831, Note_on_c, 0, 66, 72
1, 362834, Note_off_c, 0, 78, 59
1, 362837, Control_c, 0, 67, 31
1, 362867, Control_c, 0, 67, 31
1, 362896, Note_on_c, 0, 86, 73
1, 362897, Note_off_c, 0, 82, 62
1, 362919, Note_off_c, 0, 86, 66
1, 362926, Control_c, 0, 67, 32
1, 362939, Note_off_c, 0, 66, 56
1, 362945, Note_on_c, 0, 62, 54
1, 362954, Note_on_c, 0, 74, 73
1, 362956, Note_on_c, 0, 58, 67
1, 362978, Note_off_c, 0, 62, 62
1, 362985, Note_off_c, 0, 58, 65
1, 362991, Note_off_c, 0, 74, 57
1, 363000, Control_c, 0, 67, 32
1, 363010, Note_on_c, 0, 82, 75
1, 363044, Control_c, 0, 64, 97
1, 363058, Note_off_c, 0, 82, 62
1, 363059, Control_c, 0, 64, 71
1, 363059, Control_c, 0, 67, 32
1, 363074, Control_c, 0, 64, 0
1, 363084, Note_on_c, 0, 77, 75
1, 363089, Control_c, 0, 67, 31
1, 363095, Note_on_c, 0, 47, 79
1, 363103, Control_c, 0, 64, 60
1, 363103, Control_c, 0, 67, 31
1, 363118, Control_c, 0, 64, 75
1, 363118, Control_c, 0, 67, 30
1, 363123, Note_off_c, 0, 47, 67
1, 363128, Note_on_c, 0, 89, 75
1, 363133, Control_c, 0, 64, 97
1, 363133, Control_c, 0, 67, 30
1, 363145, Note_off_c, 0, 89, 67
1, 363148, Control_c, 0, 64, 127
1, 363148, Control_c, 0, 67, 29
1, 363156, Note_off_c, 0, 77, 39
1, 363162, Control_c, 0, 67, 29
1, 363167, Note_on_c, 0, 88, 38
1, 363177, Control_c, 0, 67, 28
1, 363192, Control_c, 0, 67, 28
1, 363197, Note_on_c, 0, 79, 69
1, 363198, Note_off_c, 0, 88, 52
1, 363207, Control_c, 0, 67, 27
1, 363222, Control_c, 0, 67, 27
1, 363225, Note_on_c, 0, 65, 71
1, 363237, Control_c, 0, 67, 26
1, 363252, Note_on_c, 0, 83, 76
1, 363261, Note_off_c, 0, 79, 59
1, 363305, Note_off_c, 0, 83, 59
1, 363318, Note_on_c, 0, 71, 69
1, 363343, Note_off_c, 0, 65, 38
1, 363356, Note_on_c, 0, 59, 63
1, 363365, Note_off_c, 0, 71, 63
1, 363365, Note_on_c, 0, 79, 64
1, 363408, Control_c, 0, 67, 26
1, 363413, Note_off_c, 0, 79, 64
1, 363423, Control_c, 0, 67, 27
1, 363438, Control_c, 0, 67, 27
1, 363451, Note_on_c, 0, 75, 79
1, 363460, Note_on_c, 0, 56, 76
1, 363482, Control_c, 0, 67, 28
1, 363493, Note_off_c, 0, 59, 35
1, 363505, Note_on_c, 0, 87, 79
1, 363512, Control_c, 0, 67, 28
1, 363527, Control_c, 0, 67, 29
1, 363541, Note_off_c, 0, 87, 59
1, 363556, Control_c, 0, 67, 29
1, 363559, Note_on_c, 0, 80, 68
1, 363565, Note_off_c, 0, 75, 55
1, 363584, Note_on_c, 0, 63, 69
1, 363626, Note_off_c, 0, 80, 60
1, 363632, Note_on_c, 0, 83, 73
1, 363645, Control_c, 0, 67, 30
1, 363665, Note_on_c, 0, 59, 52
1, 363665, Note_off_c, 0, 83, 59
1, 363672, Note_off_c, 0, 63, 60
1, 363675, Control_c, 0, 67, 30
1, 363690, Control_c, 0, 67, 31
1, 363692, Note_off_c, 0, 59, 65
1, 363698, Note_on_c, 0, 71, 69
1, 363705, Control_c, 0, 67, 32
1, 363708, Note_off_c, 0, 56, 63
1, 363720, Control_c, 0, 67, 32
1, 363720, Note_off_c, 0, 71, 70
1, 363734, Control_c, 0, 67, 33
1, 363744, Note_on_c, 0, 80, 64
1, 363764, Control_c, 0, 64, 95
1, 363776, Note_off_c, 0, 80, 63
1, 363778, Control_c, 0, 64, 66
1, 363793, Control_c, 0, 64, 0
1, 363803, Note_on_c, 0, 44, 77
1, 363808, Control_c, 0, 64, 48
1, 363818, Note_on_c, 0, 73, 74
1, 363823, Control_c, 0, 64, 70
1, 363823, Control_c, 0, 67, 32
1, 363833, Note_off_c, 0, 44, 65
1, 363838, Control_c, 0, 64, 93
1, 363838, Control_c, 0, 67, 31
1, 363849, Note_on_c, 0, 85, 77
1, 363852, Control_c, 0, 64, 127
1, 363852, Control_c, 0, 67, 31
1, 363867, Control_c, 0, 67, 30
1, 363890, Note_off_c, 0, 85, 59
1, 363897, Control_c, 0, 67, 30
1, 363911, Control_c, 0, 67, 29
1, 363921, Note_off_c, 0, 73, 53
1, 363925, Note_on_c, 0, 75, 67
1, 363926, Control_c, 0, 67, 28
1, 363931, Note_on_c, 0, 61, 73
1, 363988, Note_on_c, 0, 80, 67
1, 363994, Note_off_c, 0, 75, 60
1, 364040, Note_off_c, 0, 80, 60
1, 364045, Control_c, 0, 67, 28
1, 364057, Note_on_c, 0, 56, 63
1, 364059, Note_on_c, 0, 68, 68
1, 364076, Note_off_c, 0, 61, 49
1, 364091, Note_off_c, 0, 68, 61
1, 364113, Control_c, 0, 67, 28
1, 364127, Note_on_c, 0, 75, 68
1, 364179, Note_off_c, 0, 75, 60
1, 364199, Note_on_c, 0, 71, 73
1, 364199, Note_off_c, 0, 56, 38
1, 364201, Note_on_c, 0, 51, 59
1, 364258, Note_on_c, 0, 83, 73
1, 364279, Note_off_c, 0, 83, 68
1, 364303, Note_off_c, 0, 71, 36
1, 364308, Note_on_c, 0, 75, 71
1, 364315, Note_on_c, 0, 59, 59
1, 364318, Note_off_c, 0, 51, 37
1, 364364, Control_c, 0, 67, 29
1, 364386, Note_off_c, 0, 75, 61
1, 364390, Note_on_c, 0, 80, 63
1, 364394, Control_c, 0, 67, 29
1, 364408, Control_c, 0, 67, 30
1, 364418, Note_on_c, 0, 56, 53
1, 364419, Note_off_c, 0, 59, 50
1, 364423, Control_c, 0, 67, 30
1, 364438, Note_on_c, 0, 51, 58
1, 364442, Note_on_c, 0, 68, 67
1, 364444, Note_off_c, 0, 80, 52
1, 364453, Control_c, 0, 67, 31
1, 364454, Note_off_c, 0, 56, 65
1, 364468, Control_c, 0, 67, 31
1, 364472, Note_off_c, 0, 51, 64
1, 364496, Note_off_c, 0, 68, 59
1, 364510, Note_on_c, 0, 75, 68
1, 364513, Control_c, 0, 67, 32
1, 364557, Control_c, 0, 64, 96
1, 364557, Control_c, 0, 67, 31
1, 364560, Note_off_c, 0, 75, 63
1, 364572, Control_c, 0, 64, 70
1, 364572, Control_c, 0, 67, 31
1, 364587, Control_c, 0, 64, 0
1, 364587, Control_c, 0, 67, 30
1, 364591, Note_on_c, 0, 37, 71
1, 364595, Note_on_c, 0, 71, 61
1, 364601, Control_c, 0, 67, 30
1, 364616, Control_c, 0, 64, 57
1, 364616, Control_c, 0, 67, 29
1, 364620, Note_off_c, 0, 37, 64
1, 364631, Control_c, 0, 64, 71
1, 364637, Note_on_c, 0, 83, 63
1, 364646, Control_c, 0, 64, 87
1, 364646, Control_c, 0, 67, 29
1, 364654, Note_off_c, 0, 83, 63
1, 364661, Control_c, 0, 64, 127
1, 364687, Note_off_c, 0, 71, 61
1, 364705, Control_c, 0, 67, 28
1, 364707, Note_on_c, 0, 73, 70
1, 364720, Control_c, 0, 67, 28
1, 364734, Control_c, 0, 67, 27
1, 364741, Note_on_c, 0, 59, 69
1, 364749, Control_c, 0, 67, 27
1, 364772, Note_off_c, 0, 73, 61
1, 364779, Control_c, 0, 67, 26
1, 364782, Note_on_c, 0, 78, 56
1, 364808, Control_c, 0, 67, 26
1, 364820, Note_on_c, 0, 66, 75
1, 364822, Note_off_c, 0, 78, 61
1, 364823, Control_c, 0, 67, 25
1, 364838, Control_c, 0, 67, 24
1, 364858, Note_on_c, 0, 54, 73
1, 364861, Control_c, 0, 67, 23
1, 364873, Note_off_c, 0, 66, 61
1, 364876, Control_c, 0, 67, 21
1, 364886, Note_on_c, 0, 73, 74
1, 364891, Control_c, 0, 67, 19
1, 364894, Note_off_c, 0, 59, 55
1, 364906, Control_c, 0, 67, 15
1, 364911, Note_off_c, 0, 73, 68
1, 364921, Control_c, 0, 67, 0
1, 364954, Note_on_c, 0, 70, 84
1, 364957, Note_on_c, 0, 49, 79
1, 364976, Note_off_c, 0, 54, 57
1, 364991, Note_on_c, 0, 82, 82
1, 365035, Note_off_c, 0, 82, 63
1, 365057, Note_on_c, 0, 73, 75
1, 365062, Note_off_c, 0, 70, 61
1, 365076, Note_on_c, 0, 58, 79
1, 365133, Note_on_c, 0, 78, 64
1, 365136, Note_off_c, 0, 73, 61
1, 365142, Note_off_c, 0, 49, 62
1, 365170, Note_off_c, 0, 78, 55
1, 365174, Note_on_c, 0, 54, 72
1, 365177, Note_on_c, 0, 66, 67
1, 365207, Note_off_c, 0, 58, 56
1, 365208, Note_off_c, 0, 66, 65
1, 365214, Note_on_c, 0, 73, 61
1, 365240, Note_off_c, 0, 73, 66
1, 365246, Control_c, 0, 64, 88
1, 365248, Note_off_c, 0, 54, 63
1, 365261, Control_c, 0, 64, 0
1, 365294, Note_on_c, 0, 46, 76
1, 365306, Control_c, 0, 64, 65
1, 365311, Note_on_c, 0, 75, 76
1, 365320, Control_c, 0, 64, 108
1, 365329, Note_off_c, 0, 46, 65
1, 365335, Control_c, 0, 64, 127
1, 365345, Note_on_c, 0, 87, 73
1, 365382, Note_off_c, 0, 87, 60
1, 365405, Note_off_c, 0, 75, 59
1, 365418, Note_on_c, 0, 78, 63
1, 365430, Note_on_c, 0, 63, 69
1, 365478, Note_on_c, 0, 82, 74
1, 365487, Note_off_c, 0, 78, 55
1, 365530, Note_off_c, 0, 82, 62
1, 365552, Note_on_c, 0, 58, 68
1, 365553, Note_on_c, 0, 70, 71
1, 365564, Note_off_c, 0, 63, 53
1, 365583, Note_off_c, 0, 70, 64
1, 365606, Note_on_c, 0, 78, 68
1, 365638, Note_off_c, 0, 78, 62
1, 365671, Note_on_c, 0, 54, 75
1, 365684, Note_on_c, 0, 73, 76
1, 365696, Note_off_c, 0, 58, 35
1, 365726, Note_on_c, 0, 85, 79
1, 365752, Note_off_c, 0, 54, 62
1, 365776, Note_off_c, 0, 85, 63
1, 365778, Note_on_c, 0, 61, 70
1, 365789, Note_on_c, 0, 78, 70
1, 365806, Note_off_c, 0, 73, 61
1, 365854, Note_on_c, 0, 82, 76
1, 365856, Note_off_c, 0, 61, 60
1, 365863, Note_off_c, 0, 78, 59
1, 365874, Note_on_c, 0, 54, 66
1, 365874, Note_on_c, 0, 58, 54
1, 365902, Note_off_c, 0, 58, 65
1, 365908, Note_off_c, 0, 82, 62
1, 365909, Note_off_c, 0, 54, 66
1, 365923, Note_on_c, 0, 70, 75
1, 365969, Note_off_c, 0, 70, 62
1, 365976, Note_on_c, 0, 78, 68
1, 365980, Control_c, 0, 64, 105
1, 365995, Control_c, 0, 64, 73
1, 366010, Control_c, 0, 64, 0
1, 366018, Note_on_c, 0, 37, 82
1, 366029, Note_off_c, 0, 78, 61
1, 366040, Control_c, 0, 64, 64
1, 366047, Note_off_c, 0, 37, 67
1, 366048, Note_on_c, 0, 70, 74
1, 366054, Control_c, 0, 64, 78
1, 366069, Control_c, 0, 64, 116
1, 366071, Note_on_c, 0, 82, 54
1, 366084, Control_c, 0, 64, 127
1, 366104, Note_off_c, 0, 82, 64
1, 366131, Note_off_c, 0, 70, 55
1, 366143, Note_on_c, 0, 73, 68
1, 366147, Note_on_c, 0, 58, 85
1, 366203, Note_on_c, 0, 77, 80
1, 366206, Note_off_c, 0, 73, 59
1, 366255, Note_off_c, 0, 77, 63
1, 366268, Note_on_c, 0, 53, 69
1, 366274, Note_on_c, 0, 65, 73
1, 366291, Note_off_c, 0, 58, 59
1, 366299, Note_off_c, 0, 65, 68
1, 366318, Note_on_c, 0, 73, 72
1, 366357, Note_off_c, 0, 73, 63
1, 366381, Note_off_c, 0, 53, 50
1, 366387, Note_on_c, 0, 68, 84
1, 366391, Note_on_c, 0, 47, 76
1, 366448, Note_on_c, 0, 80, 59
1, 366472, Note_off_c, 0, 80, 65
1, 366484, Note_off_c, 0, 68, 53
1, 366489, Note_on_c, 0, 73, 73
1, 366503, Note_on_c, 0, 56, 91
1, 366520, Note_off_c, 0, 73, 60
1, 366564, Note_on_c, 0, 77, 59
1, 366564, Note_off_c, 0, 47, 59
1, 366593, Note_off_c, 0, 77, 66
1, 366605, Note_on_c, 0, 65, 65
1, 366621, Note_on_c, 0, 53, 76
1, 366628, Note_off_c, 0, 65, 68
1, 366644, Note_on_c, 0, 73, 72
1, 366656, Note_off_c, 0, 56, 60
1, 366671, Note_off_c, 0, 73, 68
1, 366689, Note_off_c, 0, 53, 65
1, 366700, Control_c, 0, 64, 87
1, 366715, Control_c, 0, 64, 0
1, 366724, Note_on_c, 0, 47, 84
1, 366735, Note_on_c, 0, 74, 85
1, 366759, Control_c, 0, 64, 83
1, 366766, Note_on_c, 0, 86, 77
1, 366774, Control_c, 0, 64, 127
1, 366778, Note_off_c, 0, 47, 66
1, 366782, Note_off_c, 0, 86, 66
1, 366799, Note_off_c, 0, 74, 60
1, 366830, Note_on_c, 0, 48, 14
1, 366835, Note_on_c, 0, 77, 71
1, 366849, Note_on_c, 0, 62, 93
1, 366865, Note_off_c, 0, 48, 42
1, 366899, Note_on_c, 0, 80, 84
1, 366900, Note_off_c, 0, 77, 64
1, 366948, Note_off_c, 0, 80, 62
1, 366961, Note_off_c, 0, 62, 57
1, 366971, Note_on_c, 0, 56, 86
1, 366975, Note_on_c, 0, 68, 79
1, 367005, Note_on_c, 0, 77, 71
1, 367005, Note_off_c, 0, 68, 61
1, 367041, Note_off_c, 0, 77, 63
1, 367047, Note_off_c, 0, 56, 60
1, 367072, Note_on_c, 0, 53, 90
1, 367085, Note_on_c, 0, 73, 86
1, 367130, Note_on_c, 0, 85, 86
1, 367187, Note_on_c, 0, 77, 75
1, 367190, Note_off_c, 0, 85, 63
1, 367203, Note_on_c, 0, 61, 92
1, 367213, Note_off_c, 0, 73, 59
1, 367258, Note_off_c, 0, 61, 65
1, 367258, Note_off_c, 0, 77, 62
1, 367269, Note_off_c, 0, 53, 61
1, 367277, Note_on_c, 0, 56, 71
1, 367296, Note_on_c, 0, 80, 51
1, 367298, Note_off_c, 0, 56, 68
1, 367315, Note_on_c, 0, 68, 77
1, 367349, Note_off_c, 0, 80, 62
1, 367351, Note_off_c, 0, 68, 61
1, 367371, Note_on_c, 0, 73, 79
1, 367396, Note_off_c, 0, 73, 69
1, 367449, Control_c, 0, 64, 84
1, 367464, Control_c, 0, 64, 0
1, 367482, Note_on_c, 0, 42, 86
1, 367494, Note_on_c, 0, 83, 98
1, 367494, Control_c, 0, 64, 62
1, 367505, Note_off_c, 0, 42, 66
1, 367508, Control_c, 0, 64, 89
1, 367523, Control_c, 0, 64, 127
1, 367559, Note_off_c, 0, 83, 61
1, 367572, Note_on_c, 0, 95, 86
1, 367624, Note_off_c, 0, 95, 59
1, 367646, Note_on_c, 0, 85, 76
1, 367652, Note_on_c, 0, 71, 86
1, 367717, Note_on_c, 0, 90, 69
1, 367723, Note_off_c, 0, 85, 62
1, 367768, Note_off_c, 0, 90, 64
1, 367777, Note_on_c, 0, 78, 75
1, 367781, Note_on_c, 0, 66, 86
1, 367821, Note_off_c, 0, 78, 63
1, 367823, Note_off_c, 0, 71, 60
1, 367835, Note_on_c, 0, 85, 76
1, 367872, Note_off_c, 0, 85, 61
1, 367911, Note_on_c, 0, 61, 85
1, 367914, Note_on_c, 0, 82, 93
1, 367929, Note_off_c, 0, 66, 58
1, 367969, Note_on_c, 0, 94, 86
1, 368018, Note_off_c, 0, 94, 65
1, 368024, Note_on_c, 0, 70, 89
1, 368028, Note_on_c, 0, 85, 80
1, 368035, Note_off_c, 0, 82, 61
1, 368053, Note_off_c, 0, 61, 61
1, 368099, Note_on_c, 0, 90, 80
1, 368109, Note_off_c, 0, 85, 61
1, 368119, Note_off_c, 0, 70, 63
1, 368133, Note_on_c, 0, 66, 76
1, 368151, Note_on_c, 0, 61, 70
1, 368158, Note_off_c, 0, 66, 69
1, 368164, Note_off_c, 0, 90, 64
1, 368167, Note_on_c, 0, 78, 76
1, 368174, Note_off_c, 0, 61, 66
1, 368206, Note_off_c, 0, 78, 60
1, 368215, Note_on_c, 0, 85, 76
1, 368227, Control_c, 0, 64, 80
1, 368242, Control_c, 0, 64, 0
1, 368254, Note_off_c, 0, 85, 55
1, 368265, Note_on_c, 0, 46, 92
1, 368271, Control_c, 0, 64, 48
1, 368275, Note_on_c, 0, 80, 85
1, 368286, Control_c, 0, 64, 73
1, 368288, Note_off_c, 0, 46, 69
1, 368301, Control_c, 0, 64, 102
1, 368316, Control_c, 0, 64, 127
1, 368332, Note_on_c, 0, 92, 71
1, 368347, Note_off_c, 0, 80, 61
1, 368357, Note_off_c, 0, 92, 69
1, 368362, Note_on_c, 0, 90, 35
1, 368383, Note_on_c, 0, 82, 78
1, 368395, Note_on_c, 0, 68, 90
1, 368395, Note_off_c, 0, 90, 49
1, 368448, Note_on_c, 0, 86, 83
1, 368456, Note_off_c, 0, 82, 61
1, 368499, Note_off_c, 0, 86, 65
1, 368514, Note_on_c, 0, 62, 73
1, 368521, Note_on_c, 0, 74, 77
1, 368523, Note_off_c, 0, 68, 55
1, 368543, Note_off_c, 0, 74, 72
1, 368564, Note_on_c, 0, 82, 79
1, 368617, Note_off_c, 0, 82, 63
1, 368631, Note_on_c, 0, 58, 90
1, 368640, Note_on_c, 0, 78, 89
1, 368640, Note_off_c, 0, 62, 55
1, 368690, Note_on_c, 0, 90, 85
1, 368717, Note_off_c, 0, 90, 65
1, 368741, Note_on_c, 0, 82, 77
1, 368748, Note_off_c, 0, 78, 58
1, 368748, Note_on_c, 0, 66, 84
1, 368808, Note_on_c, 0, 86, 74
1, 368812, Note_off_c, 0, 82, 62
1, 368838, Note_off_c, 0, 86, 59
1, 368847, Note_on_c, 0, 62, 67
1, 368849, Note_off_c, 0, 66, 61
1, 368875, Note_on_c, 0, 74, 74
1, 368877, Note_off_c, 0, 62, 64
1, 368882, Note_off_c, 0, 58, 26
1, 368901, Note_off_c, 0, 74, 68
1, 368915, Note_on_c, 0, 82, 80
1, 368945, Control_c, 0, 64, 101
1, 368960, Note_off_c, 0, 82, 62
1, 368960, Control_c, 0, 64, 69
1, 368975, Control_c, 0, 64, 0
1, 368981, Note_on_c, 0, 47, 86
1, 368986, Note_on_c, 0, 77, 81
1, 368990, Control_c, 0, 64, 59
1, 369005, Control_c, 0, 64, 74
1, 369005, Note_off_c, 0, 47, 71
1, 369020, Control_c, 0, 64, 97
1, 369022, Note_on_c, 0, 89, 71
1, 369035, Control_c, 0, 64, 127
1, 369039, Note_off_c, 0, 89, 65
1, 369053, Note_off_c, 0, 77, 61
1, 369075, Note_on_c, 0, 79, 73
1, 369106, Note_on_c, 0, 65, 85
1, 369139, Note_on_c, 0, 83, 79
1, 369142, Note_off_c, 0, 79, 61
1, 369191, Note_off_c, 0, 83, 60
1, 369202, Note_on_c, 0, 71, 75
1, 369220, Note_on_c, 0, 59, 76
1, 369222, Note_off_c, 0, 65, 58
1, 369233, Note_on_c, 0, 79, 71
1, 369240, Note_off_c, 0, 71, 64
1, 369282, Note_off_c, 0, 79, 64
1, 369318, Note_on_c, 0, 75, 85
1, 369328, Note_on_c, 0, 56, 87
1, 369334, Note_off_c, 0, 59, 54
1, 369381, Note_on_c, 0, 87, 89
1, 369427, Note_off_c, 0, 87, 66
1, 369428, Note_on_c, 0, 80, 77
1, 369429, Note_off_c, 0, 75, 60
1, 369457, Note_on_c, 0, 63, 83
1, 369500, Note_off_c, 0, 80, 62
1, 369501, Note_on_c, 0, 83, 80
1, 369541, Note_on_c, 0, 59, 69
1, 369544, Note_off_c, 0, 63, 60
1, 369547, Note_off_c, 0, 83, 62
1, 369564, Note_on_c, 0, 71, 78
1, 369568, Note_off_c, 0, 59, 66
1, 369582, Note_off_c, 0, 56, 64
1, 369591, Note_off_c, 0, 71, 66
1, 369608, Note_on_c, 0, 80, 78
1, 369634, Control_c, 0, 64, 84
1, 369649, Control_c, 0, 64, 0
1, 369657, Note_off_c, 0, 80, 63
1, 369670, Note_on_c, 0, 44, 97
1, 369675, Note_on_c, 0, 73, 95
1, 369694, Note_off_c, 0, 44, 70
1, 369694, Control_c, 0, 64, 69
1, 369709, Control_c, 0, 64, 127
1, 369722, Note_on_c, 0, 85, 77
1, 369742, Note_off_c, 0, 85, 72
1, 369747, Note_off_c, 0, 73, 58
1, 369780, Note_on_c, 0, 75, 77
1, 369786, Note_on_c, 0, 61, 91
1, 369846, Note_on_c, 0, 80, 72
1, 369859, Note_off_c, 0, 75, 63
1, 369897, Note_off_c, 0, 80, 61
1, 369903, Note_on_c, 0, 68, 76
1, 369920, Note_on_c, 0, 56, 83
1, 369944, Note_off_c, 0, 61, 60
1, 369949, Note_off_c, 0, 68, 61
1, 369955, Note_on_c, 0, 75, 81
1, 369999, Note_off_c, 0, 75, 59
1, 370015, Note_on_c, 0, 71, 92
1, 370028, Note_on_c, 0, 51, 90
1, 370047, Note_off_c, 0, 56, 44
1, 370067, Note_on_c, 0, 83, 87
1, 370083, Note_off_c, 0, 71, 57
1, 370123, Note_off_c, 0, 83, 63
1, 370124, Note_on_c, 0, 75, 83
1, 370145, Note_on_c, 0, 59, 84
1, 370174, Note_off_c, 0, 51, 58
1, 370202, Note_on_c, 0, 80, 83
1, 370208, Note_off_c, 0, 75, 62
1, 370247, Note_on_c, 0, 56, 74
1, 370255, Note_off_c, 0, 59, 53
1, 370258, Note_on_c, 0, 68, 78
1, 370264, Note_off_c, 0, 80, 62
1, 370266, Note_on_c, 0, 51, 79
1, 370279, Note_off_c, 0, 56, 64
1, 370291, Note_off_c, 0, 51, 70
1, 370310, Note_off_c, 0, 68, 60
1, 370318, Note_on_c, 0, 75, 77
1, 370364, Note_off_c, 0, 75, 66
1, 370383, Control_c, 0, 64, 86
1, 370392, Note_on_c, 0, 71, 87
1, 370398, Control_c, 0, 64, 0
1, 370403, Note_on_c, 0, 37, 88
1, 370425, Note_off_c, 0, 37, 70
1, 370442, Control_c, 0, 64, 67
1, 370453, Note_on_c, 0, 83, 76
1, 370457, Note_off_c, 0, 71, 60
1, 370457, Control_c, 0, 64, 85
1, 370473, Control_c, 0, 64, 127
1, 370478, Note_off_c, 0, 83, 62
1, 370522, Note_on_c, 0, 73, 77
1, 370555, Note_on_c, 0, 59, 91
1, 370595, Note_on_c, 0, 78, 74
1, 370600, Note_off_c, 0, 73, 61
1, 370647, Note_off_c, 0, 78, 61
1, 370651, Note_on_c, 0, 66, 80
1, 370671, Note_on_c, 0, 54, 83
1, 370683, Note_off_c, 0, 66, 61
1, 370698, Note_on_c, 0, 73, 75
1, 370713, Note_off_c, 0, 59, 54
1, 370723, Note_off_c, 0, 73, 68
1, 370763, Note_on_c, 0, 70, 88
1, 370772, Note_on_c, 0, 49, 90
1, 370788, Note_off_c, 0, 54, 62
1, 370802, Note_on_c, 0, 82, 86
1, 370859, Note_off_c, 0, 82, 64
1, 370868, Note_on_c, 0, 73, 85
1, 370874, Note_off_c, 0, 70, 64
1, 370895, Note_on_c, 0, 58, 95
1, 370941, Note_on_c, 0, 78, 71
1, 370944, Note_off_c, 0, 73, 60
1, 370983, Note_on_c, 0, 66, 72
1, 370993, Note_off_c, 0, 78, 60
1, 370996, Note_on_c, 0, 54, 82
1, 371015, Note_off_c, 0, 49, 63
1, 371029, Note_off_c, 0, 66, 60
1, 371035, Note_off_c, 0, 58, 57
1, 371038, Note_on_c, 0, 73, 73
1, 371059, Note_off_c, 0, 73, 70
1, 371065, Note_off_c, 0, 54, 65
1, 371088, Control_c, 0, 64, 106
1, 371102, Control_c, 0, 64, 72
1, 371109, Note_on_c, 0, 71, 90
1, 371115, Note_on_c, 0, 46, 93
1, 371117, Control_c, 0, 64, 0
1, 371147, Note_on_c, 0, 83, 81
1, 371147, Control_c, 0, 64, 64
1, 371162, Control_c, 0, 64, 84
1, 371176, Control_c, 0, 64, 127
1, 371180, Note_off_c, 0, 83, 48
1, 371214, Note_off_c, 0, 71, 66
1, 371215, Note_on_c, 0, 73, 77
1, 371229, Note_on_c, 0, 59, 89
1, 371285, Note_on_c, 0, 78, 70
1, 371293, Note_off_c, 0, 73, 61
1, 371328, Note_off_c, 0, 78, 54
1, 371337, Note_on_c, 0, 54, 86
1, 371345, Note_on_c, 0, 66, 70
1, 371354, Note_off_c, 0, 59, 62
1, 371361, Note_off_c, 0, 46, 59
1, 371369, Note_off_c, 0, 66, 67
1, 371382, Note_off_c, 0, 54, 67
1, 371453, Note_on_c, 0, 72, 99
1, 371454, Note_on_c, 0, 42, 94
1, 371480, Note_off_c, 0, 42, 68
1, 371517, Note_on_c, 0, 84, 78
1, 371564, Note_on_c, 0, 60, 85
1, 371565, Note_off_c, 0, 84, 58
1, 371600, Note_off_c, 0, 72, 57
1, 371619, Note_on_c, 0, 80, 69
1, 371651, Note_off_c, 0, 60, 61
1, 371662, Note_on_c, 0, 54, 87
1, 371688, Note_on_c, 0, 70, 79
1, 371704, Note_off_c, 0, 54, 67
1, 371708, Note_on_c, 0, 56, 15
1, 371710, Note_off_c, 0, 70, 70
1, 371723, Note_off_c, 0, 80, 60
1, 371756, Note_off_c, 0, 56, 53
1, 371777, Control_c, 0, 64, 96
1, 371788, Note_on_c, 0, 73, 115
1, 371792, Control_c, 0, 64, 59
1, 371794, Note_on_c, 0, 37, 99
1, 371807, Control_c, 0, 64, 0
1, 371816, Note_off_c, 0, 37, 73
1, 371822, Control_c, 0, 64, 67
1, 371837, Control_c, 0, 64, 127
1, 371866, Note_on_c, 0, 85, 84
1, 371910, Note_off_c, 0, 85, 66
1, 371927, Note_on_c, 0, 61, 105
1, 371933, Note_on_c, 0, 78, 65
1, 371946, Note_off_c, 0, 73, 55
1, 371955, Note_off_c, 0, 78, 61
1, 371968, Note_off_c, 0, 61, 64
1, 371999, Note_on_c, 0, 82, 66
1, 372025, Note_on_c, 0, 54, 83
1, 372030, Note_off_c, 0, 82, 61
1, 372048, Note_on_c, 0, 70, 86
1, 372071, Note_off_c, 0, 54, 60
1, 372093, Note_off_c, 0, 70, 63
1, 372102, Note_on_c, 0, 78, 73
1, 372134, Note_on_c, 0, 54, 74
1, 372150, Note_off_c, 0, 78, 62
1, 372163, Control_c, 0, 64, 71
1, 372178, Control_c, 0, 64, 0
1, 372188, Note_on_c, 0, 62, 83
1, 372194, Note_off_c, 0, 54, 66
1, 372212, Note_on_c, 0, 69, 100
1, 372218, Note_on_c, 0, 74, 111
1, 372252, Control_c, 0, 64, 127
1, 372260, Note_on_c, 0, 63, 58
1, 372261, Note_off_c, 0, 63, 127
1, 372287, Note_on_c, 0, 63, 45
1, 372288, Note_off_c, 0, 63, 127
1, 372362, Note_off_c, 0, 74, 58
1, 372366, Note_on_c, 0, 78, 90
1, 372420, Note_off_c, 0, 78, 63
1, 372435, Note_on_c, 0, 86, 98
1, 372460, Note_off_c, 0, 69, 53
1, 372487, Note_on_c, 0, 81, 79
1, 372501, Note_off_c, 0, 62, 53
1, 372512, Note_off_c, 0, 86, 60
1, 372543, Note_on_c, 0, 78, 80
1, 372564, Note_off_c, 0, 81, 62
1, 372587, Note_on_c, 0, 74, 84
1, 372588, Note_off_c, 0, 78, 65
1, 372613, Note_off_c, 0, 74, 65
1, 372667, Note_on_c, 0, 69, 82
1, 372725, Note_on_c, 0, 66, 81
1, 372731, Note_off_c, 0, 69, 61
1, 372764, Note_off_c, 0, 66, 61
1, 372783, Note_on_c, 0, 62, 75
1, 372807, Note_off_c, 0, 62, 67
1, 372865, Note_on_c, 0, 57, 79
1, 372917, Note_on_c, 0, 54, 79
1, 372920, Note_off_c, 0, 57, 63
1, 372962, Note_on_c, 0, 50, 73
1, 372972, Note_off_c, 0, 54, 66
1, 372986, Control_c, 0, 64, 108
1, 373001, Control_c, 0, 64, 64
1, 373011, Note_on_c, 0, 45, 98
1, 373011, Note_on_c, 0, 37, 95
1, 373016, Control_c, 0, 64, 0
1, 373051, Note_off_c, 0, 50, 65
1, 373060, Control_c, 0, 64, 79
1, 373075, Control_c, 0, 64, 127
1, 373102, Note_off_c, 0, 45, 53
1, 373139, Note_off_c, 0, 37, 52
1, 373172, Note_on_c, 0, 50, 70
1, 373193, Note_on_c, 0, 42, 56
1, 373230, Note_off_c, 0, 50, 64
1, 373235, Note_on_c, 0, 54, 73
1, 373236, Note_on_c, 0, 45, 67
1, 373261, Note_off_c, 0, 54, 68
1, 373269, Note_off_c, 0, 42, 62
1, 373269, Note_off_c, 0, 45, 64
1, 373297, Note_on_c, 0, 50, 73
1, 373312, Note_on_c, 0, 57, 78
1, 373357, Note_off_c, 0, 50, 67
1, 373359, Note_off_c, 0, 57, 61
1, 373369, Note_on_c, 0, 54, 63
1, 373375, Note_on_c, 0, 62, 70
1, 373417, Note_on_c, 0, 66, 81
1, 373418, Note_off_c, 0, 62, 60
1, 373448, Note_off_c, 0, 54, 65
1, 373450, Note_on_c, 0, 57, 56
1, 373456, Note_off_c, 0, 66, 59
1, 373473, Note_off_c, 0, 57, 60
1, 373486, Note_on_c, 0, 62, 74
1, 373497, Note_on_c, 0, 69, 82
1, 373535, Note_off_c, 0, 62, 62
1, 373545, Note_off_c, 0, 69, 61
1, 373554, Note_on_c, 0, 74, 78
1, 373558, Note_on_c, 0, 66, 75
1, 373601, Note_on_c, 0, 78, 83
1, 373603, Note_off_c, 0, 74, 66
1, 373618, Note_off_c, 0, 66, 64
1, 373628, Note_on_c, 0, 69, 56
1, 373639, Note_off_c, 0, 78, 64
1, 373643, Note_off_c, 0, 69, 68
1, 373676, Note_on_c, 0, 74, 73
1, 373683, Note_on_c, 0, 81, 80
1, 373697, Note_off_c, 0, 74, 73
1, 373722, Note_off_c, 0, 81, 55
1, 373727, Note_on_c, 0, 86, 78
1, 373742, Note_on_c, 0, 78, 75
1, 373769, Note_off_c, 0, 86, 63
1, 373774, Note_on_c, 0, 90, 77
1, 373787, Note_off_c, 0, 78, 62
1, 373791, Note_on_c, 0, 81, 41
1, 373793, Note_off_c, 0, 90, 72
1, 373815, Note_off_c, 0, 81, 58
1, 373854, Note_on_c, 0, 93, 75
1, 373855, Note_on_c, 0, 86, 72
1, 373876, Note_off_c, 0, 86, 69
1, 373877, Note_off_c, 0, 93, 66
1, 373908, Note_on_c, 0, 90, 105
1, 373909, Note_on_c, 0, 98, 106
1, 373922, Note_off_c, 0, 90, 73
1, 373936, Note_off_c, 0, 98, 73
1, 374655, Control_c, 0, 64, 115
1, 374669, Control_c, 0, 64, 96
1, 374684, Control_c, 0, 64, 80
1, 374698, Control_c, 0, 64, 67
1, 374713, Control_c, 0, 64, 11
1, 374728, Control_c, 0, 64, 0
1, 374913, Note_on_c, 0, 86, 103
1, 374919, Note_on_c, 0, 62, 90
1, 374935, Control_c, 0, 64, 64
1, 374950, Control_c, 0, 64, 127
1, 375113, Note_on_c, 0, 95, 105
1, 375113, Note_on_c, 0, 71, 87
1, 375145, Note_off_c, 0, 86, 60
1, 375235, Note_off_c, 0, 95, 59
1, 375265, Note_on_c, 0, 93, 92
1, 375265, Note_on_c, 0, 69, 85
1, 375277, Note_on_c, 0, 95, 43
1, 375283, Note_off_c, 0, 71, 60
1, 375304, Note_off_c, 0, 95, 57
1, 375355, Note_off_c, 0, 62, 52
1, 375376, Note_on_c, 0, 91, 93
1, 375379, Note_on_c, 0, 67, 81
1, 375391, Note_off_c, 0, 93, 62
1, 375396, Note_off_c, 0, 69, 61
1, 375461, Note_on_c, 0, 90, 93
1, 375461, Note_off_c, 0, 67, 62
1, 375464, Note_on_c, 0, 66, 80
1, 375491, Note_off_c, 0, 91, 61
1, 375506, Note_off_c, 0, 66, 65
1, 375534, Note_off_c, 0, 90, 67
1, 375541, Note_on_c, 0, 88, 87
1, 375549, Note_on_c, 0, 64, 80
1, 375599, Note_off_c, 0, 64, 62
1, 375612, Note_off_c, 0, 88, 47
1, 375619, Note_on_c, 0, 62, 73
1, 375621, Note_on_c, 0, 86, 85
1, 375651, Note_off_c, 0, 62, 60
1, 375670, Note_off_c, 0, 86, 63
1, 375703, Note_on_c, 0, 90, 101
1, 375708, Note_on_c, 0, 66, 91
1, 375761, Note_off_c, 0, 66, 63
1, 375807, Note_off_c, 0, 90, 58
1, 375813, Note_on_c, 0, 81, 95
1, 375818, Note_on_c, 0, 57, 91
1, 375883, Note_off_c, 0, 81, 59
1, 375895, Note_off_c, 0, 57, 60
1, 375917, Note_on_c, 0, 86, 104
1, 375920, Note_on_c, 0, 62, 87
1, 375971, Note_off_c, 0, 62, 60
1, 375983, Note_off_c, 0, 86, 61
1, 376061, Note_on_c, 0, 61, 90
1, 376075, Note_on_c, 0, 85, 86
1, 376090, Note_off_c, 0, 61, 67
1, 376099, Note_off_c, 0, 85, 73
1, 376147, Note_on_c, 0, 61, 93
1, 376148, Note_on_c, 0, 85, 94
1, 376162, Note_off_c, 0, 61, 74
1, 376166, Note_off_c, 0, 85, 68
1, 376173, Note_on_c, 0, 84, 68
1, 376195, Note_off_c, 0, 84, 70
1, 376312, Note_on_c, 0, 37, 82
1, 376323, Note_on_c, 0, 39, 62
1, 376337, Note_off_c, 0, 37, 66
1, 376356, Note_off_c, 0, 39, 62
1, 376404, Poly_aftertouch_c, 0, 82, 127
1, 376442, Poly_aftertouch_c, 0, 82, 0
1, 376463, Control_c, 0, 64, 98
1, 376478, Control_c, 0, 64, 33
1, 376487, Note_on_c, 0, 83, 101
1, 376488, Note_on_c, 0, 74, 100
1, 376489, Note_on_c, 0, 59, 96
1, 376491, Note_on_c, 0, 78, 92
1, 376493, Control_c, 0, 64, 0
1, 376493, Note_on_c, 0, 50, 86
1, 376494, Note_on_c, 0, 54, 83
1, 376516, Note_on_c, 0, 77, 63
1, 376521, Note_off_c, 0, 54, 68
1, 376522, Control_c, 0, 64, 75
1, 376523, Note_off_c, 0, 50, 69
1, 376527, Note_off_c, 0, 59, 65
1, 376527, Note_off_c, 0, 74, 70
1, 376529, Note_off_c, 0, 78, 65
1, 376529, Note_off_c, 0, 83, 70
1, 376535, Note_off_c, 0, 77, 68
1, 376537, Control_c, 0, 64, 127
1, 376855, Control_c, 0, 64, 104
1, 376871, Control_c, 0, 64, 82
1, 376886, Control_c, 0, 64, 66
1, 376901, Control_c, 0, 64, 0
1, 377038, Note_on_c, 0, 83, 107
1, 377044, Note_on_c, 0, 59, 90
1, 377065, Control_c, 0, 64, 55
1, 377080, Control_c, 0, 64, 127
1, 377232, Note_on_c, 0, 91, 101
1, 377233, Note_on_c, 0, 67, 86
1, 377263, Note_off_c, 0, 83, 56
1, 377343, Note_off_c, 0, 91, 61
1, 377366, Note_on_c, 0, 66, 83
1, 377366, Note_on_c, 0, 90, 91
1, 377367, Note_off_c, 0, 67, 58
1, 377456, Note_off_c, 0, 66, 60
1, 377471, Note_on_c, 0, 64, 83
1, 377473, Note_off_c, 0, 59, 37
1, 377474, Note_on_c, 0, 88, 89
1, 377513, Note_off_c, 0, 90, 58
1, 377559, Note_on_c, 0, 86, 84
1, 377559, Note_off_c, 0, 88, 65
1, 377563, Note_on_c, 0, 62, 79
1, 377571, Note_off_c, 0, 64, 56
1, 377619, Note_off_c, 0, 86, 62
1, 377650, Note_on_c, 0, 85, 90
1, 377661, Note_on_c, 0, 61, 58
1, 377662, Note_off_c, 0, 62, 54
1, 377710, Note_off_c, 0, 61, 62
1, 377714, Note_on_c, 0, 59, 74
1, 377730, Note_on_c, 0, 83, 93
1, 377740, Note_off_c, 0, 85, 63
1, 377781, Note_off_c, 0, 83, 65
1, 377785, Note_off_c, 0, 59, 60
1, 377802, Note_on_c, 0, 62, 76
1, 377819, Note_on_c, 0, 86, 97
1, 377864, Note_off_c, 0, 86, 64
1, 377870, Note_off_c, 0, 62, 57
1, 377906, Note_on_c, 0, 54, 85
1, 377910, Note_on_c, 0, 78, 89
1, 377948, Note_off_c, 0, 78, 65
1, 377950, Note_off_c, 0, 54, 60
1, 378001, Note_on_c, 0, 83, 100
1, 378007, Note_on_c, 0, 59, 102
1, 378050, Note_off_c, 0, 59, 64
1, 378052, Note_off_c, 0, 83, 67
1, 378159, Note_on_c, 0, 57, 86
1, 378159, Note_on_c, 0, 81, 101
1, 378180, Note_off_c, 0, 57, 70
1, 378186, Note_off_c, 0, 81, 63
1, 378222, Note_on_c, 0, 57, 94
1, 378231, Note_on_c, 0, 81, 98
1, 378255, Note_off_c, 0, 57, 63
1, 378279, Note_off_c, 0, 81, 62
1, 378395, Note_on_c, 0, 37, 93
1, 378433, Note_off_c, 0, 37, 61
1, 378547, Control_c, 0, 64, 87
1, 378562, Control_c, 0, 64, 0
1, 378574, Note_on_c, 0, 55, 100
1, 378574, Note_on_c, 0, 71, 99
1, 378574, Note_on_c, 0, 74, 102
1, 378574, Note_on_c, 0, 79, 97
1, 378575, Note_on_c, 0, 47, 89
1, 378578, Note_on_c, 0, 50, 82
1, 378606, Control_c, 0, 64, 66
1, 378618, Note_off_c, 0, 55, 67
1, 378621, Note_off_c, 0, 50, 64
1, 378621, Control_c, 0, 64, 110
1, 378624, Note_off_c, 0, 71, 66
1, 378624, Note_off_c, 0, 47, 66
1, 378628, Note_off_c, 0, 74, 65
1, 378630, Note_off_c, 0, 79, 64
1, 378636, Control_c, 0, 64, 127
1, 378961, Control_c, 0, 64, 89
1, 378976, Control_c, 0, 64, 69
1, 378991, Control_c, 0, 64, 0
1, 379226, Note_on_c, 0, 79, 103
1, 379232, Note_on_c, 0, 55, 94
1, 379250, Control_c, 0, 64, 127
1, 379448, Note_on_c, 0, 88, 99
1, 379460, Note_on_c, 0, 64, 94
1, 379492, Note_off_c, 0, 79, 53
1, 379638, Note_on_c, 0, 62, 84
1, 379638, Note_on_c, 0, 86, 90
1, 379656, Note_off_c, 0, 64, 59
1, 379662, Note_off_c, 0, 88, 60
1, 379748, Note_on_c, 0, 61, 82
1, 379751, Note_on_c, 0, 85, 90
1, 379771, Note_off_c, 0, 62, 60
1, 379781, Note_off_c, 0, 86, 60
1, 379849, Note_off_c, 0, 61, 63
1, 379857, Note_on_c, 0, 59, 87
1, 379857, Note_on_c, 0, 83, 94
1, 379877, Note_off_c, 0, 55, 61
1, 379884, Note_off_c, 0, 85, 62
1, 379945, Note_off_c, 0, 83, 66
1, 379946, Note_on_c, 0, 81, 91
1, 379951, Note_on_c, 0, 57, 88
1, 379963, Note_off_c, 0, 59, 57
1, 380004, Note_off_c, 0, 81, 62
1, 380037, Note_on_c, 0, 55, 86
1, 380040, Note_on_c, 0, 79, 92
1, 380049, Note_off_c, 0, 57, 61
1, 380109, Note_off_c, 0, 55, 65
1, 380126, Note_on_c, 0, 83, 96
1, 380130, Note_on_c, 0, 59, 91
1, 380141, Note_off_c, 0, 79, 58
1, 380207, Note_off_c, 0, 59, 54
1, 380228, Note_on_c, 0, 50, 88
1, 380236, Note_on_c, 0, 74, 91
1, 380263, Note_off_c, 0, 83, 60
1, 380300, Note_off_c, 0, 74, 64
1, 380324, Note_on_c, 0, 55, 99
1, 380330, Note_on_c, 0, 79, 96
1, 380344, Note_off_c, 0, 50, 65
1, 380353, Note_off_c, 0, 55, 70
1, 380365, Note_off_c, 0, 79, 69
1, 380400, Control_c, 0, 64, 81
1, 380415, Control_c, 0, 64, 0
1, 380644, Note_on_c, 0, 50, 93
1, 380646, Note_on_c, 0, 54, 89
1, 380657, Note_on_c, 0, 59, 67
1, 380660, Note_on_c, 0, 37, 68
1, 380661, Note_on_c, 0, 66, 63
1, 380664, Note_off_c, 0, 50, 73
1, 380666, Note_off_c, 0, 54, 73
1, 380681, Note_off_c, 0, 66, 60
1, 380683, Note_off_c, 0, 59, 66
1, 380684, Note_off_c, 0, 37, 61
1, 380687, Control_c, 0, 64, 91
1, 380702, Control_c, 0, 64, 127
1, 380704, Note_on_c, 0, 54, 101
1, 380712, Note_on_c, 0, 66, 67
1, 380714, Note_on_c, 0, 50, 97
1, 380720, Note_on_c, 0, 37, 84
1, 380731, Note_on_c, 0, 59, 84
1, 380757, Note_off_c, 0, 54, 65
1, 380757, Note_off_c, 0, 66, 65
1, 380759, Note_off_c, 0, 59, 63
1, 380781, Note_off_c, 0, 50, 62
1, 380800, Note_off_c, 0, 37, 60
1, 380828, Poly_aftertouch_c, 0, 39, 0
1, 381022, Note_on_c, 0, 50, 97
1, 381025, Note_on_c, 0, 53, 104
1, 381027, Note_on_c, 0, 65, 98
1, 381029, Note_on_c, 0, 44, 94
1, 381030, Note_on_c, 0, 37, 89
1, 381031, Note_on_c, 0, 59, 84
1, 381059, Control_c, 0, 64, 115
1, 381074, Control_c, 0, 64, 72
1, 381089, Note_on_c, 0, 63, 6
1, 381089, Control_c, 0, 64, 0
1, 381158, Note_off_c, 0, 63, 45
1, 381392, Control_c, 0, 64, 91
1, 381407, Control_c, 0, 64, 127
1, 381608, Note_off_c, 0, 65, 50
1, 381612, Note_off_c, 0, 53, 47
1, 381614, Note_off_c, 0, 37, 56
1, 381616, Note_off_c, 0, 50, 58
1, 381636, Note_off_c, 0, 44, 58
1, 381644, Note_off_c, 0, 59, 53
1, 381706, Note_on_c, 0, 53, 104
1, 381708, Note_on_c, 0, 50, 100
1, 381709, Note_on_c, 0, 65, 103
1, 381715, Note_on_c, 0, 37, 90
1, 381715, Note_on_c, 0, 44, 92
1, 381718, Note_on_c, 0, 59, 90
1, 381719, Control_c, 0, 64, 106
1, 381733, Control_c, 0, 64, 71
1, 381748, Control_c, 0, 64, 0
1, 381749, Note_off_c, 0, 53, 66
1, 381752, Note_off_c, 0, 65, 67
1, 381763, Control_c, 0, 64, 62
1, 381769, Note_off_c, 0, 59, 61
1, 381778, Control_c, 0, 64, 77
1, 381793, Control_c, 0, 64, 111
1, 381808, Control_c, 0, 64, 127
1, 382362, Note_off_c, 0, 37, 59
1, 382364, Note_off_c, 0, 50, 58
1, 382380, Note_off_c, 0, 44, 60
1, 382425, Note_on_c, 0, 65, 94
1, 382425, Note_on_c, 0, 53, 97
1, 382430, Note_on_c, 0, 59, 82
1, 382435, Note_on_c, 0, 44, 73
1, 382436, Note_on_c, 0, 37, 70
1, 382437, Note_on_c, 0, 50, 75
1, 382453, Control_c, 0, 64, 93
1, 382468, Control_c, 0, 64, 70
1, 382482, Control_c, 0, 64, 0
1, 382527, Control_c, 0, 64, 51
1, 382542, Control_c, 0, 64, 67
1, 382556, Control_c, 0, 64, 76
1, 382571, Control_c, 0, 64, 87
1, 382586, Control_c, 0, 64, 94
1, 382601, Control_c, 0, 64, 99
1, 382616, Control_c, 0, 64, 102
1, 382631, Control_c, 0, 64, 105
1, 382645, Control_c, 0, 64, 109
1, 382660, Control_c, 0, 64, 115
1, 382675, Control_c, 0, 64, 127
1, 382691, Note_off_c, 0, 65, 55
1, 382692, Note_off_c, 0, 50, 59
1, 382695, Note_off_c, 0, 37, 57
1, 382698, Note_off_c, 0, 53, 57
1, 382705, Note_off_c, 0, 44, 59
1, 382720, Note_off_c, 0, 59, 56
1, 382764, Control_c, 0, 64, 98
1, 382777, Note_on_c, 0, 65, 85
1, 382779, Control_c, 0, 64, 78
1, 382782, Note_on_c, 0, 44, 56
1, 382782, Note_on_c, 0, 59, 67
1, 382783, Note_on_c, 0, 53, 77
1, 382784, Note_on_c, 0, 50, 61
1, 382786, Note_on_c, 0, 37, 53
1, 382794, Control_c, 0, 64, 60
1, 382809, Control_c, 0, 64, 0
1, 382860, Control_c, 0, 64, 61
1, 382875, Control_c, 0, 64, 68
1, 382890, Control_c, 0, 64, 75
1, 382905, Control_c, 0, 64, 84
1, 382920, Control_c, 0, 64, 92
1, 382935, Control_c, 0, 64, 97
1, 382949, Control_c, 0, 64, 99
1, 382964, Control_c, 0, 64, 99
1, 382994, Control_c, 0, 64, 100
1, 383009, Control_c, 0, 64, 101
1, 383021, Note_off_c, 0, 65, 52
1, 383024, Control_c, 0, 64, 103
1, 383027, Note_off_c, 0, 53, 53
1, 383030, Note_off_c, 0, 37, 55
1, 383034, Note_off_c, 0, 50, 53
1, 383052, Note_off_c, 0, 44, 56
1, 383054, Note_off_c, 0, 59, 52
1, 383069, Control_c, 0, 64, 103
1, 383083, Control_c, 0, 64, 104
1, 383098, Control_c, 0, 64, 105
1, 383128, Control_c, 0, 64, 103
1, 383135, Note_on_c, 0, 65, 68
1, 383143, Control_c, 0, 64, 93
1, 383144, Note_on_c, 0, 44, 45
1, 383147, Note_on_c, 0, 59, 56
1, 383149, Note_on_c, 0, 53, 58
1, 383156, Note_on_c, 0, 50, 55
1, 383157, Control_c, 0, 64, 81
1, 383160, Note_on_c, 0, 37, 50
1, 383172, Control_c, 0, 64, 68
1, 383187, Control_c, 0, 64, 0
1, 383247, Control_c, 0, 64, 36
1, 383262, Control_c, 0, 64, 60
1, 383277, Control_c, 0, 64, 66
1, 383292, Control_c, 0, 64, 71
1, 383306, Control_c, 0, 64, 78
1, 383321, Control_c, 0, 64, 86
1, 383336, Control_c, 0, 64, 95
1, 383351, Control_c, 0, 64, 102
1, 383366, Control_c, 0, 64, 106
1, 383380, Control_c, 0, 64, 110
1, 383395, Control_c, 0, 64, 114
1, 383410, Control_c, 0, 64, 117
1, 383425, Control_c, 0, 64, 119
1, 383469, Control_c, 0, 67, 9
1, 383484, Control_c, 0, 67, 23
1, 383498, Control_c, 0, 67, 40
1, 383513, Control_c, 0, 64, 118
1, 383513, Control_c, 0, 67, 59
1, 383527, Note_off_c, 0, 50, 59
1, 383528, Control_c, 0, 67, 77
1, 383533, Note_off_c, 0, 44, 56
1, 383543, Control_c, 0, 67, 96
1, 383551, Note_off_c, 0, 37, 43
1, 383558, Control_c, 0, 67, 114
1, 383580, Control_c, 0, 67, 127
1, 383610, Control_c, 0, 64, 117
1, 383625, Control_c, 0, 64, 117
1, 383640, Control_c, 0, 64, 116
1, 383641, Note_on_c, 0, 44, 50
1, 383646, Note_on_c, 0, 50, 55
1, 383647, Note_on_c, 0, 37, 48
1, 383654, Control_c, 0, 64, 116
1, 383669, Control_c, 0, 64, 115
1, 383683, Note_off_c, 0, 37, 53
1, 383684, Control_c, 0, 64, 114
1, 383692, Note_off_c, 0, 50, 58
1, 383694, Note_off_c, 0, 44, 55
1, 383698, Control_c, 0, 64, 113
1, 383713, Control_c, 0, 64, 112
1, 383728, Control_c, 0, 64, 112
1, 383743, Control_c, 0, 64, 110
1, 383758, Control_c, 0, 64, 109
1, 383772, Control_c, 0, 64, 108
1, 383777, Note_on_c, 0, 50, 58
1, 383782, Note_on_c, 0, 44, 56
1, 383787, Note_on_c, 0, 37, 54
1, 383787, Control_c, 0, 64, 107
1, 383802, Control_c, 0, 64, 107
1, 383817, Control_c, 0, 64, 106
1, 383829, Note_off_c, 0, 37, 59
1, 383832, Control_c, 0, 64, 106
1, 383843, Note_off_c, 0, 50, 59
1, 383848, Note_off_c, 0, 44, 54
1, 383877, Control_c, 0, 64, 105
1, 383891, Control_c, 0, 64, 105
1, 383906, Control_c, 0, 64, 104
1, 383928, Note_on_c, 0, 44, 54
1, 383930, Note_on_c, 0, 50, 58
1, 383931, Note_on_c, 0, 37, 60
1, 383991, Note_off_c, 0, 37, 61
1, 384003, Note_off_c, 0, 50, 55
1, 384008, Note_off_c, 0, 44, 58
1, 384039, Control_c, 0, 64, 103
1, 384055, Control_c, 0, 64, 97
1, 384070, Control_c, 0, 64, 87
1, 384085, Control_c, 0, 64, 75
1, 384088, Note_on_c, 0, 50, 59
1, 384090, Note_on_c, 0, 44, 52
1, 384099, Note_on_c, 0, 37, 54
1, 384100, Control_c, 0, 64, 64
1, 384115, Control_c, 0, 64, 62
1, 384129, Control_c, 0, 64, 67
1, 384130, Note_off_c, 0, 53, 52
1, 384144, Control_c, 0, 64, 73
1, 384146, Note_off_c, 0, 37, 62
1, 384159, Control_c, 0, 64, 79
1, 384162, Note_off_c, 0, 50, 59
1, 384163, Note_off_c, 0, 44, 59
1, 384174, Control_c, 0, 64, 86
1, 384189, Control_c, 0, 64, 96
1, 384201, Note_off_c, 0, 59, 48
1, 384203, Control_c, 0, 64, 104
1, 384218, Control_c, 0, 64, 110
1, 384233, Control_c, 0, 64, 112
1, 384246, Note_on_c, 0, 44, 51
1, 384247, Note_on_c, 0, 50, 53
1, 384250, Note_on_c, 0, 37, 57
1, 384264, Note_off_c, 0, 65, 62
1, 384287, Note_off_c, 0, 37, 61
1, 384298, Note_off_c, 0, 44, 57
1, 384300, Note_off_c, 0, 50, 59
1, 384329, Control_c, 0, 64, 111
1, 384359, Control_c, 0, 64, 110
1, 384374, Control_c, 0, 64, 109
1, 384389, Control_c, 0, 64, 108
1, 384395, Note_on_c, 0, 50, 64
1, 384404, Note_on_c, 0, 37, 53
1, 384404, Control_c, 0, 64, 107
1, 384410, Note_on_c, 0, 44, 62
1, 384419, Control_c, 0, 64, 106
1, 384434, Control_c, 0, 64, 104
1, 384446, Note_off_c, 0, 37, 60
1, 384446, Note_off_c, 0, 44, 59
1, 384448, Control_c, 0, 64, 103
1, 384460, Note_off_c, 0, 50, 62
1, 384463, Control_c, 0, 64, 102
1, 384478, Control_c, 0, 64, 101
1, 384493, Control_c, 0, 64, 99
1, 384508, Control_c, 0, 64, 97
1, 384522, Control_c, 0, 64, 96
1, 384535, Note_on_c, 0, 44, 55
1, 384537, Control_c, 0, 64, 94
1, 384542, Note_on_c, 0, 50, 58
1, 384544, Note_on_c, 0, 37, 54
1, 384552, Control_c, 0, 64, 93
1, 384567, Control_c, 0, 64, 92
1, 384582, Control_c, 0, 64, 91
1, 384593, Note_off_c, 0, 37, 59
1, 384596, Note_off_c, 0, 50, 57
1, 384596, Control_c, 0, 64, 90
1, 384601, Note_off_c, 0, 44, 53
1, 384610, Note_on_c, 0, 77, 78
1, 384611, Control_c, 0, 64, 87
1, 384613, Note_on_c, 0, 71, 70
1, 384625, Note_off_c, 0, 77, 71
1, 384626, Control_c, 0, 64, 80
1, 384628, Note_off_c, 0, 71, 69
1, 384641, Control_c, 0, 64, 66
1, 384655, Control_c, 0, 64, 0
1, 384669, Note_on_c, 0, 77, 93
1, 384682, Note_on_c, 0, 71, 81
1, 384700, Note_on_c, 0, 37, 50
1, 384711, Note_on_c, 0, 50, 49
1, 384716, Note_on_c, 0, 44, 44
1, 384744, Note_off_c, 0, 37, 59
1, 384744, Control_c, 0, 64, 79
1, 384748, Note_off_c, 0, 50, 57
1, 384753, Note_off_c, 0, 44, 61
1, 384759, Control_c, 0, 64, 127
1, 384845, Note_on_c, 0, 50, 51
1, 384847, Note_on_c, 0, 44, 56
1, 384856, Note_off_c, 0, 77, 61
1, 384863, Note_on_c, 0, 37, 41
1, 384893, Note_off_c, 0, 37, 57
1, 384894, Note_off_c, 0, 44, 57
1, 384894, Note_off_c, 0, 71, 62
1, 384895, Note_off_c, 0, 50, 57
1, 384988, Note_on_c, 0, 37, 53
1, 384993, Note_on_c, 0, 44, 54
1, 384993, Note_on_c, 0, 50, 54
1, 385034, Note_off_c, 0, 44, 58
1, 385036, Note_off_c, 0, 37, 58
1, 385041, Note_off_c, 0, 50, 59
1, 385140, Note_on_c, 0, 44, 47
1, 385144, Note_on_c, 0, 50, 52
1, 385149, Note_on_c, 0, 37, 44
1, 385183, Note_off_c, 0, 50, 60
1, 385187, Note_off_c, 0, 37, 53
1, 385188, Note_off_c, 0, 44, 55
1, 385218, Note_on_c, 0, 71, 68
1, 385221, Note_on_c, 0, 65, 60
1, 385233, Note_off_c, 0, 71, 70
1, 385243, Note_off_c, 0, 65, 62
1, 385256, Control_c, 0, 64, 85
1, 385270, Control_c, 0, 64, 62
1, 385278, Note_on_c, 0, 71, 91
1, 385285, Control_c, 0, 64, 0
1, 385292, Note_on_c, 0, 37, 54
1, 385295, Note_on_c, 0, 65, 74
1, 385296, Note_on_c, 0, 44, 51
1, 385299, Note_on_c, 0, 50, 35
1, 385330, Control_c, 0, 64, 60
1, 385338, Note_off_c, 0, 37, 58
1, 385342, Note_off_c, 0, 44, 57
1, 385344, Control_c, 0, 64, 70
1, 385349, Note_off_c, 0, 50, 49
1, 385359, Control_c, 0, 64, 79
1, 385374, Control_c, 0, 64, 89
1, 385389, Control_c, 0, 64, 99
1, 385404, Control_c, 0, 64, 106
1, 385418, Control_c, 0, 64, 113
1, 385433, Control_c, 0, 64, 126
1, 385439, Note_on_c, 0, 50, 53
1, 385448, Control_c, 0, 64, 127
1, 385450, Note_on_c, 0, 44, 53
1, 385450, Note_on_c, 0, 37, 45
1, 385464, Note_off_c, 0, 71, 56
1, 385487, Note_off_c, 0, 65, 59
1, 385492, Note_off_c, 0, 37, 48
1, 385495, Note_off_c, 0, 50, 58
1, 385496, Note_off_c, 0, 44, 56
1, 385596, Note_on_c, 0, 37, 51
1, 385596, Note_on_c, 0, 44, 52
1, 385602, Note_on_c, 0, 50, 47
1, 385638, Note_off_c, 0, 37, 53
1, 385646, Note_off_c, 0, 44, 55
1, 385647, Note_off_c, 0, 50, 58
1, 385738, Note_on_c, 0, 37, 45
1, 385749, Note_on_c, 0, 44, 47
1, 385752, Note_on_c, 0, 50, 44
1, 385777, Note_off_c, 0, 37, 50
1, 385787, Note_off_c, 0, 44, 59
1, 385790, Note_off_c, 0, 50, 56
1, 385808, Note_on_c, 0, 65, 79
1, 385826, Note_on_c, 0, 59, 57
1, 385827, Control_c, 0, 64, 126
1, 385840, Note_off_c, 0, 65, 69
1, 385842, Control_c, 0, 64, 97
1, 385848, Note_off_c, 0, 59, 59
1, 385856, Control_c, 0, 64, 79
1, 385871, Control_c, 0, 64, 66
1, 385886, Control_c, 0, 64, 42
1, 385888, Note_on_c, 0, 65, 85
1, 385893, Note_on_c, 0, 50, 50
1, 385897, Note_on_c, 0, 37, 50
1, 385897, Note_on_c, 0, 44, 50
1, 385901, Control_c, 0, 64, 60
1, 385901, Note_on_c, 0, 59, 69
1, 385915, Control_c, 0, 64, 68
1, 385930, Control_c, 0, 64, 74
1, 385933, Note_off_c, 0, 59, 58
1, 385944, Note_off_c, 0, 37, 59
1, 385944, Note_off_c, 0, 65, 63
1, 385945, Note_off_c, 0, 50, 57
1, 385945, Control_c, 0, 64, 83
1, 385947, Note_off_c, 0, 44, 57
1, 385960, Control_c, 0, 64, 95
1, 385975, Control_c, 0, 64, 110
1, 385990, Control_c, 0, 64, 127
1, 386058, Note_on_c, 0, 37, 52
1, 386060, Note_on_c, 0, 44, 50
1, 386062, Note_on_c, 0, 50, 51
1, 386097, Note_off_c, 0, 37, 56
1, 386106, Note_off_c, 0, 44, 56
1, 386106, Note_off_c, 0, 50, 59
1, 386199, Note_on_c, 0, 50, 52
1, 386202, Note_on_c, 0, 37, 57
1, 386208, Note_on_c, 0, 44, 51
1, 386243, Note_off_c, 0, 37, 59
1, 386255, Note_off_c, 0, 44, 55
1, 386259, Note_off_c, 0, 50, 56
1, 386352, Note_on_c, 0, 37, 52
1, 386365, Note_on_c, 0, 44, 45
1, 386373, Note_on_c, 0, 50, 45
1, 386398, Note_off_c, 0, 37, 58
1, 386401, Note_on_c, 0, 53, 68
1, 386401, Note_on_c, 0, 59, 69
1, 386410, Note_off_c, 0, 44, 56
1, 386414, Note_off_c, 0, 50, 61
1, 386428, Note_off_c, 0, 53, 66
1, 386428, Note_off_c, 0, 59, 64
1, 386475, Note_on_c, 0, 59, 77
1, 386479, Control_c, 0, 64, 105
1, 386483, Note_on_c, 0, 53, 61
1, 386494, Control_c, 0, 64, 90
1, 386503, Note_on_c, 0, 37, 52
1, 386509, Control_c, 0, 64, 74
1, 386511, Note_on_c, 0, 50, 46
1, 386520, Note_on_c, 0, 44, 42
1, 386524, Control_c, 0, 64, 0
1, 386547, Note_off_c, 0, 37, 54
1, 386556, Note_off_c, 0, 50, 52
1, 386557, Note_off_c, 0, 44, 61
1, 386635, Control_c, 0, 64, 67
1, 386650, Control_c, 0, 64, 85
1, 386664, Note_on_c, 0, 44, 47
1, 386665, Control_c, 0, 64, 119
1, 386677, Note_on_c, 0, 37, 25
1, 386680, Control_c, 0, 64, 127
1, 386693, Note_on_c, 0, 50, 13
1, 386711, Note_off_c, 0, 44, 55
1, 386720, Note_off_c, 0, 37, 52
1, 386726, Note_off_c, 0, 53, 58
1, 386747, Note_off_c, 0, 59, 54
1, 386782, Note_off_c, 0, 50, 0
1, 386801, Note_on_c, 0, 50, 33
1, 386812, Note_on_c, 0, 37, 39
1, 386815, Note_on_c, 0, 44, 40
1, 386858, Note_off_c, 0, 37, 47
1, 386861, Note_off_c, 0, 50, 56
1, 386883, Note_off_c, 0, 44, 43
1, 386977, Note_on_c, 0, 44, 38
1, 386986, Note_on_c, 0, 50, 33
1, 386988, Note_on_c, 0, 37, 30
1, 387027, Note_off_c, 0, 44, 54
1, 387030, Note_off_c, 0, 50, 52
1, 387034, Note_off_c, 0, 37, 49
1, 387126, Note_on_c, 0, 50, 42
1, 387149, Note_on_c, 0, 37, 36
1, 387149, Note_on_c, 0, 44, 40
1, 387183, Note_off_c, 0, 50, 53
1, 387192, Note_off_c, 0, 44, 53
1, 387200, Note_off_c, 0, 37, 46
1, 387293, Note_on_c, 0, 37, 25
1, 387305, Note_on_c, 0, 50, 20
1, 387305, Note_on_c, 0, 44, 32
1, 387352, Note_off_c, 0, 44, 49
1, 387358, Note_off_c, 0, 37, 44
1, 387361, Note_off_c, 0, 50, 50
1, 387444, Control_c, 0, 64, 121
1, 387459, Control_c, 0, 64, 107
1, 387460, Note_on_c, 0, 59, 58
1, 387466, Note_on_c, 0, 53, 52
1, 387471, Note_on_c, 0, 50, 41
1, 387472, Note_on_c, 0, 37, 40
1, 387473, Note_on_c, 0, 44, 47
1, 387473, Control_c, 0, 64, 97
1, 387488, Control_c, 0, 64, 86
1, 387503, Control_c, 0, 64, 73
1, 387518, Control_c, 0, 64, 37
1, 387523, Note_off_c, 0, 44, 56
1, 387525, Note_off_c, 0, 50, 53
1, 387533, Control_c, 0, 64, 0
1, 387543, Note_off_c, 0, 37, 40
1, 387592, Control_c, 0, 64, 47
1, 387607, Control_c, 0, 64, 67
1, 387621, Control_c, 0, 64, 77
1, 387635, Note_on_c, 0, 37, 23
1, 387636, Note_on_c, 0, 44, 34
1, 387636, Control_c, 0, 64, 86
1, 387637, Note_on_c, 0, 50, 35
1, 387651, Control_c, 0, 64, 94
1, 387665, Control_c, 0, 64, 100
1, 387680, Control_c, 0, 64, 104
1, 387686, Note_off_c, 0, 50, 51
1, 387695, Note_off_c, 0, 37, 44
1, 387695, Control_c, 0, 64, 106
1, 387697, Note_off_c, 0, 44, 43
1, 387710, Control_c, 0, 64, 108
1, 387725, Control_c, 0, 64, 111
1, 387740, Control_c, 0, 64, 115
1, 387755, Control_c, 0, 64, 120
1, 387770, Control_c, 0, 64, 126
1, 387785, Control_c, 0, 64, 127
1, 387798, Note_on_c, 0, 37, 30
1, 387799, Note_on_c, 0, 50, 35
1, 387804, Note_on_c, 0, 44, 36
1, 387855, Note_off_c, 0, 50, 52
1, 387862, Note_off_c, 0, 44, 47
1, 387868, Note_off_c, 0, 53, 38
1, 387879, Note_off_c, 0, 37, 39
1, 387972, Note_off_c, 0, 59, 31
1, 387979, Note_on_c, 0, 37, 28
1, 387983, Note_on_c, 0, 50, 28
1, 387990, Note_on_c, 0, 44, 39
1, 388006, Control_c, 0, 64, 126
1, 388021, Control_c, 0, 64, 124
1, 388037, Control_c, 0, 64, 123
1, 388051, Note_off_c, 0, 50, 45
1, 388056, Note_off_c, 0, 44, 42
1, 388074, Control_c, 0, 64, 122
1, 388089, Control_c, 0, 64, 120
1, 388103, Control_c, 0, 64, 119
1, 388118, Control_c, 0, 64, 118
1, 388133, Control_c, 0, 64, 117
1, 388148, Control_c, 0, 64, 117
1, 388160, Note_off_c, 0, 37, 0
1, 388163, Control_c, 0, 64, 116
1, 388178, Control_c, 0, 64, 116
1, 388184, Note_on_c, 0, 59, 52
1, 388188, Note_on_c, 0, 37, 10
1, 388193, Control_c, 0, 64, 115
1, 388197, Note_on_c, 0, 53, 42
1, 388202, Note_on_c, 0, 50, 33
1, 388210, Note_on_c, 0, 44, 38
1, 388238, Control_c, 0, 64, 115
1, 388252, Control_c, 0, 64, 114
1, 388261, Note_off_c, 0, 44, 46
1, 388266, Note_off_c, 0, 50, 46
1, 388311, Control_c, 0, 64, 114
1, 388341, Control_c, 0, 64, 113
1, 388343, Note_off_c, 0, 37, 0
1, 388356, Control_c, 0, 64, 113
1, 388380, Poly_aftertouch_c, 0, 37, 127
1, 388399, Note_on_c, 0, 50, 35
1, 388400, Control_c, 0, 64, 112
1, 388412, Note_on_c, 0, 44, 35
1, 388414, Control_c, 0, 64, 112
1, 388464, Note_off_c, 0, 44, 44
1, 388469, Note_off_c, 0, 50, 44
1, 388470, Note_off_c, 0, 53, 36
1, 388474, Control_c, 0, 64, 111
1, 388488, Control_c, 0, 64, 110
1, 388489, Poly_aftertouch_c, 0, 37, 0
1, 388503, Control_c, 0, 64, 110
1, 388518, Control_c, 0, 64, 109
1, 388533, Control_c, 0, 64, 109
1, 388548, Control_c, 0, 64, 108
1, 388563, Control_c, 0, 64, 108
1, 388571, Note_off_c, 0, 59, 34
1, 388577, Control_c, 0, 64, 106
1, 388592, Control_c, 0, 64, 106
1, 388607, Control_c, 0, 64, 105
1, 388622, Control_c, 0, 64, 104
1, 388637, Control_c, 0, 64, 102
1, 388652, Control_c, 0, 64, 100
1, 388667, Control_c, 0, 64, 98
1, 388682, Control_c, 0, 64, 94
1, 388696, Control_c, 0, 64, 88
1, 388711, Control_c, 0, 64, 79
1, 388718, Note_on_c, 0, 60, 43
1, 388726, Control_c, 0, 64, 68
1, 388736, Note_on_c, 0, 53, 30
1, 388741, Control_c, 0, 64, 0
1, 388742, Note_on_c, 0, 56, 36
1, 388744, Note_on_c, 0, 50, 37
1, 388745, Note_on_c, 0, 36, 48
1, 388751, Note_on_c, 0, 44, 33
1, 388805, Note_off_c, 0, 44, 55
1, 388822, Control_c, 0, 64, 57
1, 388822, Note_off_c, 0, 50, 57
1, 388837, Control_c, 0, 64, 68
1, 388852, Control_c, 0, 64, 75
1, 388867, Control_c, 0, 64, 82
1, 388871, Note_off_c, 0, 36, 0
1, 388882, Control_c, 0, 64, 86
1, 388891, Note_on_c, 0, 36, 27
1, 388896, Control_c, 0, 64, 88
1, 388900, Note_on_c, 0, 50, 38
1, 388908, Note_on_c, 0, 44, 39
1, 388911, Control_c, 0, 64, 90
1, 388926, Control_c, 0, 64, 91
1, 388956, Note_off_c, 0, 44, 50
1, 388959, Note_off_c, 0, 50, 52
1, 389012, Note_off_c, 0, 36, 0
1, 389030, Control_c, 0, 64, 90
1, 389031, Note_on_c, 0, 36, 29
1, 389045, Note_on_c, 0, 50, 40
1, 389053, Note_on_c, 0, 44, 44
1, 389059, Control_c, 0, 64, 90
1, 389089, Control_c, 0, 64, 89
1, 389096, Note_off_c, 0, 44, 57
1, 389096, Note_off_c, 0, 50, 52
1, 389104, Control_c, 0, 64, 88
1, 389118, Control_c, 0, 64, 87
1, 389133, Control_c, 0, 64, 86
1, 389145, Note_off_c, 0, 36, 0
1, 389148, Control_c, 0, 64, 85
1, 389163, Control_c, 0, 64, 84
1, 389172, Note_on_c, 0, 36, 14
1, 389178, Control_c, 0, 64, 84
1, 389192, Control_c, 0, 64, 83
1, 389202, Note_on_c, 0, 44, 42
1, 389202, Note_on_c, 0, 50, 41
1, 389207, Control_c, 0, 64, 83
1, 389222, Control_c, 0, 64, 82
1, 389247, Note_off_c, 0, 44, 51
1, 389249, Note_off_c, 0, 50, 50
1, 389296, Control_c, 0, 64, 81
1, 389307, Note_off_c, 0, 36, 0
1, 389311, Control_c, 0, 64, 79
1, 389326, Control_c, 0, 64, 74
1, 389328, Note_on_c, 0, 36, 23
1, 389341, Control_c, 0, 64, 64
1, 389349, Note_on_c, 0, 50, 41
1, 389355, Control_c, 0, 64, 21
1, 389358, Note_on_c, 0, 44, 44
1, 389370, Control_c, 0, 64, 0
1, 389385, Control_c, 0, 64, 44
1, 389396, Note_off_c, 0, 50, 57
1, 389400, Control_c, 0, 64, 64
1, 389401, Note_off_c, 0, 44, 52
1, 389415, Control_c, 0, 64, 72
1, 389430, Control_c, 0, 64, 79
1, 389444, Control_c, 0, 64, 85
1, 389445, Note_off_c, 0, 36, 0
1, 389459, Control_c, 0, 64, 90
1, 389472, Note_on_c, 0, 36, 18
1, 389474, Control_c, 0, 64, 95
1, 389489, Control_c, 0, 64, 99
1, 389491, Note_on_c, 0, 50, 44
1, 389502, Note_on_c, 0, 44, 40
1, 389504, Control_c, 0, 64, 102
1, 389515, Note_off_c, 0, 53, 44
1, 389518, Control_c, 0, 64, 106
1, 389533, Control_c, 0, 64, 108
1, 389546, Note_off_c, 0, 50, 50
1, 389547, Note_off_c, 0, 56, 43
1, 389548, Control_c, 0, 64, 109
1, 389549, Note_off_c, 0, 44, 47
1, 389567, Note_off_c, 0, 60, 62
1, 389585, Control_c, 0, 64, 109
1, 389597, Note_off_c, 0, 36, 0
1, 389621, Note_on_c, 0, 36, 17
1, 389630, Control_c, 0, 64, 109
1, 389645, Note_on_c, 0, 50, 46
1, 389654, Note_on_c, 0, 44, 44
1, 389692, Note_off_c, 0, 50, 57
1, 389706, Note_off_c, 0, 44, 46
1, 389737, Note_off_c, 0, 36, 0
1, 389759, Note_on_c, 0, 36, 24
1, 389791, Note_on_c, 0, 50, 42
1, 389799, Note_on_c, 0, 44, 37
1, 389827, Note_off_c, 0, 50, 54
1, 389837, Note_off_c, 0, 44, 51
1, 389838, Control_c, 0, 64, 108
1, 389861, Note_on_c, 0, 84, 76
1, 389862, Note_off_c, 0, 36, 35
1, 389865, Note_on_c, 0, 77, 66
1, 389883, Note_off_c, 0, 84, 64
1, 389884, Note_off_c, 0, 77, 66
1, 389930, Note_on_c, 0, 50, 48
1, 389930, Note_on_c, 0, 84, 76
1, 389934, Note_on_c, 0, 36, 41
1, 389935, Note_on_c, 0, 44, 50
1, 389937, Note_on_c, 0, 77, 72
1, 389950, Note_off_c, 0, 84, 69
1, 389954, Note_off_c, 0, 77, 70
1, 389982, Note_off_c, 0, 44, 57
1, 389983, Note_off_c, 0, 50, 60
1, 389986, Note_off_c, 0, 36, 49
1, 390083, Note_on_c, 0, 50, 51
1, 390095, Note_on_c, 0, 44, 47
1, 390096, Note_on_c, 0, 36, 43
1, 390131, Note_off_c, 0, 44, 59
1, 390133, Note_off_c, 0, 50, 57
1, 390143, Note_off_c, 0, 36, 46
1, 390179, Control_c, 0, 64, 108
1, 390223, Note_on_c, 0, 50, 52
1, 390223, Control_c, 0, 64, 107
1, 390235, Note_on_c, 0, 44, 39
1, 390236, Note_on_c, 0, 36, 45
1, 390278, Note_off_c, 0, 50, 58
1, 390284, Note_off_c, 0, 44, 46
1, 390287, Note_off_c, 0, 36, 45
1, 390372, Note_on_c, 0, 50, 51
1, 390375, Note_on_c, 0, 36, 39
1, 390405, Note_on_c, 0, 44, 30
1, 390420, Note_off_c, 0, 36, 47
1, 390421, Note_off_c, 0, 50, 56
1, 390423, Control_c, 0, 64, 107
1, 390442, Note_on_c, 0, 77, 72
1, 390452, Note_off_c, 0, 44, 53
1, 390462, Note_on_c, 0, 72, 42
1, 390466, Note_off_c, 0, 77, 68
1, 390484, Control_c, 0, 64, 106
1, 390503, Note_off_c, 0, 72, 0
1, 390514, Note_on_c, 0, 77, 79
1, 390515, Note_on_c, 0, 72, 60
1, 390521, Note_on_c, 0, 50, 52
1, 390538, Note_on_c, 0, 36, 43
1, 390538, Note_off_c, 0, 77, 68
1, 390539, Note_off_c, 0, 72, 69
1, 390558, Control_c, 0, 64, 106
1, 390560, Note_on_c, 0, 44, 39
1, 390570, Note_off_c, 0, 50, 57
1, 390574, Note_off_c, 0, 36, 49
1, 390593, Note_off_c, 0, 44, 52
1, 390676, Note_on_c, 0, 50, 41
1, 390677, Note_on_c, 0, 36, 37
1, 390690, Note_on_c, 0, 44, 33
1, 390706, Note_off_c, 0, 50, 55
1, 390716, Note_off_c, 0, 36, 50
1, 390719, Note_off_c, 0, 44, 56
1, 390736, Control_c, 0, 64, 105
1, 390794, Note_on_c, 0, 50, 50
1, 390795, Note_on_c, 0, 36, 46
1, 390813, Note_on_c, 0, 44, 48
1, 390840, Note_off_c, 0, 50, 58
1, 390843, Note_off_c, 0, 36, 46
1, 390846, Note_off_c, 0, 44, 55
1, 390929, Note_on_c, 0, 36, 41
1, 390950, Note_on_c, 0, 50, 32
1, 390959, Note_on_c, 0, 44, 38
1, 390967, Note_off_c, 0, 36, 48
1, 390986, Note_off_c, 0, 50, 54
1, 390994, Note_off_c, 0, 44, 52
1, 391005, Note_on_c, 0, 72, 74
1, 391011, Note_on_c, 0, 65, 58
1, 391028, Note_off_c, 0, 72, 66
1, 391034, Note_off_c, 0, 65, 61
1, 391081, Note_on_c, 0, 72, 79
1, 391083, Note_on_c, 0, 50, 50
1, 391088, Note_on_c, 0, 65, 61
1, 391091, Note_on_c, 0, 44, 54
1, 391105, Note_off_c, 0, 72, 67
1, 391106, Note_on_c, 0, 36, 37
1, 391107, Note_off_c, 0, 65, 65
1, 391113, Control_c, 0, 64, 105
1, 391131, Note_off_c, 0, 50, 58
1, 391132, Note_off_c, 0, 44, 59
1, 391151, Note_off_c, 0, 36, 49
1, 391237, Note_on_c, 0, 36, 28
1, 391241, Note_on_c, 0, 50, 38
1, 391242, Note_on_c, 0, 44, 43
1, 391281, Note_off_c, 0, 44, 51
1, 391281, Note_off_c, 0, 50, 54
1, 391283, Note_off_c, 0, 36, 47
1, 391368, Note_on_c, 0, 36, 45
1, 391371, Note_on_c, 0, 50, 49
1, 391394, Note_on_c, 0, 44, 43
1, 391416, Note_off_c, 0, 50, 56
1, 391424, Note_off_c, 0, 44, 55
1, 391475, Note_off_c, 0, 36, 0
1, 391493, Note_on_c, 0, 36, 30
1, 391511, Note_on_c, 0, 50, 49
1, 391523, Note_on_c, 0, 44, 47
1, 391529, Control_c, 0, 64, 104
1, 391560, Note_off_c, 0, 50, 54
1, 391568, Note_off_c, 0, 44, 49
1, 391580, Note_on_c, 0, 65, 64
1, 391585, Note_off_c, 0, 36, 38
1, 391597, Note_on_c, 0, 60, 38
1, 391600, Note_off_c, 0, 65, 64
1, 391618, Control_c, 0, 64, 104
1, 391630, Note_off_c, 0, 60, 0
1, 391651, Note_on_c, 0, 65, 85
1, 391653, Note_on_c, 0, 60, 52
1, 391660, Note_on_c, 0, 36, 43
1, 391660, Note_on_c, 0, 50, 53
1, 391669, Note_on_c, 0, 44, 49
1, 391673, Note_off_c, 0, 65, 69
1, 391674, Note_off_c, 0, 60, 64
1, 391692, Control_c, 0, 64, 103
1, 391706, Note_off_c, 0, 44, 61
1, 391709, Note_off_c, 0, 36, 55
1, 391710, Note_off_c, 0, 50, 57
1, 391751, Control_c, 0, 64, 103
1, 391805, Note_on_c, 0, 44, 47
1, 391821, Note_on_c, 0, 36, 44
1, 391827, Note_on_c, 0, 50, 46
1, 391857, Note_off_c, 0, 44, 55
1, 391862, Note_off_c, 0, 50, 55
1, 391863, Note_off_c, 0, 36, 48
1, 391892, Control_c, 0, 64, 102
1, 391949, Note_on_c, 0, 50, 50
1, 391960, Note_on_c, 0, 36, 47
1, 391973, Note_on_c, 0, 44, 44
1, 391997, Note_off_c, 0, 36, 49
1, 392002, Note_off_c, 0, 50, 55
1, 392011, Note_off_c, 0, 44, 51
1, 392056, Control_c, 0, 64, 102
1, 392112, Note_on_c, 0, 36, 47
1, 392112, Note_on_c, 0, 44, 46
1, 392113, Note_on_c, 0, 50, 40
1, 392115, Control_c, 0, 64, 101
1, 392144, Control_c, 0, 64, 101
1, 392152, Note_off_c, 0, 50, 54
1, 392153, Note_off_c, 0, 44, 51
1, 392159, Control_c, 0, 64, 100
1, 392162, Note_on_c, 0, 53, 61
1, 392162, Note_on_c, 0, 60, 62
1, 392162, Note_off_c, 0, 36, 45
1, 392174, Control_c, 0, 64, 98
1, 392181, Note_off_c, 0, 60, 65
1, 392185, Note_off_c, 0, 53, 62
1, 392189, Control_c, 0, 64, 93
1, 392203, Control_c, 0, 64, 85
1, 392218, Control_c, 0, 64, 73
1, 392226, Note_on_c, 0, 60, 76
1, 392233, Control_c, 0, 64, 49
1, 392238, Note_on_c, 0, 53, 56
1, 392244, Note_on_c, 0, 50, 45
1, 392248, Control_c, 0, 64, 0
1, 392259, Note_on_c, 0, 44, 46
1, 392268, Note_on_c, 0, 36, 32
1, 392292, Note_off_c, 0, 50, 56
1, 392299, Note_off_c, 0, 44, 54
1, 392304, Note_off_c, 0, 36, 51
1, 392307, Control_c, 0, 64, 59
1, 392322, Control_c, 0, 64, 66
1, 392336, Control_c, 0, 64, 69
1, 392351, Control_c, 0, 64, 72
1, 392366, Control_c, 0, 64, 74
1, 392381, Control_c, 0, 64, 76
1, 392393, Note_on_c, 0, 50, 42
1, 392396, Control_c, 0, 64, 76
1, 392411, Control_c, 0, 64, 76
1, 392411, Note_on_c, 0, 44, 39
1, 392424, Note_on_c, 0, 36, 17
1, 392436, Note_off_c, 0, 50, 51
1, 392449, Note_off_c, 0, 44, 53
1, 392469, Note_off_c, 0, 36, 49
1, 392485, Control_c, 0, 64, 75
1, 392500, Control_c, 0, 64, 74
1, 392515, Control_c, 0, 64, 72
1, 392529, Control_c, 0, 64, 70
1, 392530, Note_on_c, 0, 50, 48
1, 392536, Note_on_c, 0, 44, 50
1, 392544, Control_c, 0, 64, 68
1, 392550, Note_on_c, 0, 36, 43
1, 392566, Control_c, 0, 64, 64
1, 392581, Control_c, 0, 64, 60
1, 392590, Note_off_c, 0, 44, 57
1, 392590, Note_off_c, 0, 50, 59
1, 392596, Control_c, 0, 64, 51
1, 392599, Note_off_c, 0, 36, 55
1, 392611, Control_c, 0, 64, 39
1, 392625, Control_c, 0, 64, 30
1, 392640, Control_c, 0, 64, 26
1, 392655, Control_c, 0, 64, 24
1, 392694, Note_on_c, 0, 50, 44
1, 392699, Control_c, 0, 64, 26
1, 392706, Note_on_c, 0, 44, 41
1, 392711, Note_on_c, 0, 36, 45
1, 392714, Control_c, 0, 64, 36
1, 392729, Control_c, 0, 64, 45
1, 392743, Control_c, 0, 64, 53
1, 392751, Note_off_c, 0, 50, 58
1, 392753, Note_off_c, 0, 44, 57
1, 392757, Note_off_c, 0, 36, 51
1, 392758, Control_c, 0, 64, 61
1, 392773, Control_c, 0, 64, 65
1, 392787, Control_c, 0, 64, 69
1, 392802, Control_c, 0, 64, 71
1, 392817, Control_c, 0, 64, 74
1, 392833, Control_c, 0, 64, 76
1, 392848, Control_c, 0, 64, 78
1, 392863, Control_c, 0, 64, 80
1, 392878, Control_c, 0, 64, 82
1, 392879, Note_on_c, 0, 50, 34
1, 392881, Note_on_c, 0, 44, 42
1, 392882, Note_on_c, 0, 36, 41
1, 392892, Control_c, 0, 64, 84
1, 392907, Control_c, 0, 64, 85
1, 392922, Control_c, 0, 64, 85
1, 392930, Note_off_c, 0, 44, 57
1, 392930, Note_off_c, 0, 50, 52
1, 392944, Note_off_c, 0, 36, 45
1, 392966, Control_c, 0, 64, 86
1, 393055, Control_c, 0, 64, 85
1, 393059, Note_on_c, 0, 50, 30
1, 393061, Note_on_c, 0, 44, 36
1, 393067, Note_on_c, 0, 36, 38
1, 393076, Note_off_c, 0, 53, 37
1, 393112, Note_off_c, 0, 44, 50
1, 393113, Note_off_c, 0, 50, 47
1, 393116, Note_off_c, 0, 60, 30
1, 393127, Note_off_c, 0, 36, 42
1, 393129, Control_c, 0, 64, 85
1, 393174, Control_c, 0, 64, 84
1, 393218, Control_c, 0, 64, 84
1, 393233, Control_c, 0, 64, 83
1, 393248, Control_c, 0, 64, 83
1, 393263, Control_c, 0, 64, 82
1, 393275, Note_on_c, 0, 60, 43
1, 393278, Control_c, 0, 64, 79
1, 393283, Note_on_c, 0, 53, 44
1, 393291, Note_on_c, 0, 50, 33
1, 393292, Control_c, 0, 64, 74
1, 393296, Note_on_c, 0, 36, 32
1, 393311, Note_on_c, 0, 44, 32
1, 393314, Control_c, 0, 64, 66
1, 393329, Control_c, 0, 64, 44
1, 393344, Control_c, 0, 64, 0
1, 393359, Control_c, 0, 64, 37
1, 393362, Note_off_c, 0, 50, 50
1, 393370, Note_off_c, 0, 44, 46
1, 393374, Control_c, 0, 64, 57
1, 393389, Control_c, 0, 64, 64
1, 393404, Control_c, 0, 64, 68
1, 393418, Control_c, 0, 64, 71
1, 393433, Control_c, 0, 64, 75
1, 393448, Control_c, 0, 64, 78
1, 393463, Control_c, 0, 64, 80
1, 393478, Control_c, 0, 64, 82
1, 393492, Control_c, 0, 64, 83
1, 393495, Note_off_c, 0, 36, 0
1, 393507, Control_c, 0, 64, 84
1, 393522, Control_c, 0, 64, 84
1, 393523, Note_on_c, 0, 50, 34
1, 393532, Poly_aftertouch_c, 0, 36, 127
1, 393549, Note_on_c, 0, 44, 19
1, 393567, Note_off_c, 0, 50, 51
1, 393591, Poly_aftertouch_c, 0, 36, 0
1, 393610, Note_off_c, 0, 44, 41
1, 393647, Note_off_c, 0, 60, 34
1, 393654, Note_off_c, 0, 53, 27
1, 393686, Control_c, 0, 64, 84
1, 393703, Note_on_c, 0, 35, 47
1, 393745, Control_c, 0, 64, 83
1, 393760, Control_c, 0, 64, 82
1, 393767, Note_off_c, 0, 35, 58
1, 393775, Control_c, 0, 64, 79
1, 393789, Control_c, 0, 64, 72
1, 393804, Control_c, 0, 64, 62
1, 393814, Note_on_c, 0, 53, 39
1, 393819, Control_c, 0, 64, 0
1, 393821, Note_on_c, 0, 44, 32
1, 393821, Note_on_c, 0, 56, 39
1, 393848, Control_c, 0, 64, 45
1, 393858, Note_off_c, 0, 56, 54
1, 393859, Note_off_c, 0, 53, 57
1, 393863, Control_c, 0, 64, 61
1, 393866, Note_on_c, 0, 50, 49
1, 393878, Control_c, 0, 64, 67
1, 393891, Note_on_c, 0, 62, 23
1, 393893, Control_c, 0, 64, 72
1, 393907, Control_c, 0, 64, 76
1, 393922, Control_c, 0, 64, 81
1, 393937, Control_c, 0, 64, 85
1, 393952, Note_on_c, 0, 56, 42
1, 393952, Control_c, 0, 64, 89
1, 393957, Note_on_c, 0, 53, 28
1, 393961, Note_off_c, 0, 62, 0
1, 393967, Control_c, 0, 64, 93
1, 393972, Note_on_c, 0, 62, 48
1, 393982, Control_c, 0, 64, 97
1, 393983, Note_off_c, 0, 56, 54
1, 393997, Control_c, 0, 64, 103
1, 394006, Note_off_c, 0, 53, 49
1, 394012, Control_c, 0, 64, 109
1, 394026, Control_c, 0, 64, 119
1, 394041, Control_c, 0, 64, 127
1, 394041, Note_off_c, 0, 62, 48
1, 394076, Note_on_c, 0, 53, 29
1, 394089, Note_on_c, 0, 56, 41
1, 394098, Note_on_c, 0, 62, 45
1, 394116, Note_off_c, 0, 53, 50
1, 394122, Note_off_c, 0, 56, 52
1, 394160, Note_off_c, 0, 62, 55
1, 394175, Note_on_c, 0, 53, 45
1, 394182, Note_on_c, 0, 56, 51
1, 394208, Note_off_c, 0, 53, 61
1, 394212, Note_on_c, 0, 62, 46
1, 394217, Note_off_c, 0, 56, 62
1, 394255, Note_off_c, 0, 62, 54
1, 394302, Note_on_c, 0, 56, 43
1, 394307, Note_on_c, 0, 53, 34
1, 394332, Note_off_c, 0, 56, 55
1, 394334, Note_on_c, 0, 62, 48
1, 394342, Note_off_c, 0, 53, 55
1, 394366, Note_off_c, 0, 62, 53
1, 394398, Note_on_c, 0, 56, 54
1, 394405, Note_on_c, 0, 53, 40
1, 394426, Note_off_c, 0, 56, 64
1, 394434, Note_off_c, 0, 53, 58
1, 394447, Note_on_c, 0, 62, 48
1, 394452, Note_off_c, 0, 50, 37
1, 394469, Note_off_c, 0, 44, 43
1, 394480, Note_off_c, 0, 62, 50
1, 394498, Note_on_c, 0, 56, 57
1, 394517, Note_on_c, 0, 53, 52
1, 394533, Note_off_c, 0, 56, 61
1, 394538, Note_off_c, 0, 53, 64
1, 394558, Note_on_c, 0, 62, 46
1, 394588, Note_off_c, 0, 62, 55
1, 394624, Note_on_c, 0, 53, 47
1, 394626, Note_on_c, 0, 56, 47
1, 394650, Note_off_c, 0, 56, 60
1, 394652, Note_off_c, 0, 53, 58
1, 394658, Note_on_c, 0, 62, 53
1, 394688, Note_off_c, 0, 62, 59
1, 394728, Note_on_c, 0, 53, 55
1, 394730, Note_on_c, 0, 56, 55
1, 394757, Note_off_c, 0, 53, 62
1, 394766, Note_off_c, 0, 56, 52
1, 394766, Note_on_c, 0, 62, 60
1, 394805, Note_off_c, 0, 62, 59
1, 394845, Note_on_c, 0, 56, 48
1, 394852, Note_on_c, 0, 53, 47
1, 394875, Note_off_c, 0, 53, 62
1, 394879, Note_off_c, 0, 56, 59
1, 394886, Note_on_c, 0, 62, 51
1, 394886, Control_c, 0, 64, 121
1, 394901, Control_c, 0, 64, 115
1, 394916, Control_c, 0, 64, 111
1, 394923, Note_off_c, 0, 62, 53
1, 394930, Control_c, 0, 64, 108
1, 394945, Control_c, 0, 64, 106
1, 394948, Note_on_c, 0, 53, 60
1, 394954, Note_on_c, 0, 56, 56
1, 394960, Control_c, 0, 64, 103
1, 394975, Control_c, 0, 64, 101
1, 394979, Note_off_c, 0, 53, 64
1, 394986, Note_off_c, 0, 56, 63
1, 394989, Control_c, 0, 64, 99
1, 395002, Note_on_c, 0, 62, 48
1, 395004, Control_c, 0, 64, 98
1, 395019, Control_c, 0, 64, 97
1, 395030, Note_off_c, 0, 62, 56
1, 395034, Control_c, 0, 64, 95
1, 395049, Note_on_c, 0, 53, 63
1, 395049, Control_c, 0, 64, 94
1, 395053, Note_on_c, 0, 56, 65
1, 395064, Control_c, 0, 64, 94
1, 395087, Note_off_c, 0, 56, 62
1, 395088, Note_off_c, 0, 53, 64
1, 395094, Control_c, 0, 64, 93
1, 395109, Control_c, 0, 64, 93
1, 395112, Note_on_c, 0, 62, 54
1, 395123, Control_c, 0, 64, 92
1, 395140, Note_off_c, 0, 62, 52
1, 395153, Control_c, 0, 64, 92
1, 395160, Note_on_c, 0, 56, 59
1, 395168, Control_c, 0, 64, 91
1, 395174, Note_on_c, 0, 53, 52
1, 395182, Control_c, 0, 64, 91
1, 395192, Note_off_c, 0, 53, 67
1, 395195, Note_off_c, 0, 56, 61
1, 395197, Control_c, 0, 64, 90
1, 395210, Note_on_c, 0, 62, 56
1, 395212, Control_c, 0, 64, 89
1, 395228, Control_c, 0, 64, 88
1, 395239, Note_off_c, 0, 62, 57
1, 395243, Control_c, 0, 64, 87
1, 395257, Note_on_c, 0, 53, 62
1, 395258, Control_c, 0, 64, 86
1, 395273, Control_c, 0, 64, 86
1, 395274, Note_on_c, 0, 56, 64
1, 395287, Control_c, 0, 64, 85
1, 395299, Note_off_c, 0, 53, 63
1, 395301, Note_off_c, 0, 56, 64
1, 395302, Control_c, 0, 64, 84
1, 395308, Note_on_c, 0, 62, 58
1, 395317, Control_c, 0, 64, 82
1, 395332, Control_c, 0, 64, 81
1, 395342, Note_off_c, 0, 62, 62
1, 395347, Control_c, 0, 64, 79
1, 395361, Control_c, 0, 64, 78
1, 395376, Control_c, 0, 64, 77
1, 395383, Note_on_c, 0, 53, 51
1, 395383, Note_on_c, 0, 56, 57
1, 395391, Control_c, 0, 64, 75
1, 395405, Control_c, 0, 64, 73
1, 395412, Note_off_c, 0, 56, 65
1, 395416, Note_off_c, 0, 53, 54
1, 395418, Note_on_c, 0, 62, 62
1, 395420, Control_c, 0, 64, 71
1, 395435, Control_c, 0, 64, 70
1, 395446, Note_off_c, 0, 62, 62
1, 395450, Control_c, 0, 64, 68
1, 395465, Control_c, 0, 64, 66
1, 395479, Control_c, 0, 64, 65
1, 395484, Note_on_c, 0, 56, 58
1, 395490, Note_on_c, 0, 53, 58
1, 395494, Control_c, 0, 64, 64
1, 395509, Control_c, 0, 64, 62
1, 395518, Note_off_c, 0, 53, 62
1, 395518, Note_off_c, 0, 56, 63
1, 395524, Control_c, 0, 64, 59
1, 395531, Note_on_c, 0, 62, 54
1, 395539, Control_c, 0, 64, 55
1, 395561, Control_c, 0, 64, 50
1, 395565, Note_off_c, 0, 62, 57
1, 395576, Control_c, 0, 64, 44
1, 395591, Control_c, 0, 64, 36
1, 395600, Note_on_c, 0, 56, 51
1, 395601, Note_on_c, 0, 53, 57
1, 395605, Control_c, 0, 64, 29
1, 395620, Control_c, 0, 64, 24
1, 395624, Note_off_c, 0, 53, 66
1, 395625, Note_off_c, 0, 56, 63
1, 395635, Control_c, 0, 64, 23
1, 395636, Note_on_c, 0, 62, 66
1, 395650, Control_c, 0, 64, 26
1, 395665, Control_c, 0, 64, 39
1, 395666, Note_off_c, 0, 62, 64
1, 395679, Control_c, 0, 64, 50
1, 395691, Note_on_c, 0, 53, 63
1, 395694, Control_c, 0, 64, 58
1, 395696, Note_on_c, 0, 56, 57
1, 395709, Control_c, 0, 64, 62
1, 395730, Note_off_c, 0, 53, 65
1, 395734, Note_on_c, 0, 62, 65
1, 395734, Note_off_c, 0, 56, 61
1, 395739, Control_c, 0, 64, 60
1, 395753, Control_c, 0, 64, 52
1, 395764, Note_off_c, 0, 62, 61
1, 395768, Control_c, 0, 64, 19
1, 395783, Control_c, 0, 64, 0
1, 395803, Note_on_c, 0, 53, 57
1, 395811, Note_on_c, 0, 56, 55
1, 395831, Note_off_c, 0, 53, 66
1, 395835, Note_off_c, 0, 56, 63
1, 395836, Note_on_c, 0, 62, 64
1, 395866, Note_off_c, 0, 62, 62
1, 395904, Note_on_c, 0, 53, 62
1, 395908, Note_on_c, 0, 56, 55
1, 395916, Control_c, 0, 64, 27
1, 395931, Control_c, 0, 64, 59
1, 395933, Note_on_c, 0, 62, 66
1, 395935, Note_off_c, 0, 53, 66
1, 395936, Note_off_c, 0, 56, 65
1, 395946, Control_c, 0, 64, 67
1, 395961, Control_c, 0, 64, 70
1, 395969, Note_off_c, 0, 62, 58
1, 395976, Control_c, 0, 64, 73
1, 395991, Control_c, 0, 64, 74
1, 396012, Note_on_c, 0, 56, 53
1, 396015, Note_on_c, 0, 53, 44
1, 396020, Control_c, 0, 64, 72
1, 396036, Control_c, 0, 64, 69
1, 396041, Note_off_c, 0, 53, 62
1, 396044, Note_off_c, 0, 56, 59
1, 396048, Note_on_c, 0, 62, 53
1, 396051, Control_c, 0, 64, 61
1, 396065, Control_c, 0, 64, 0
1, 396071, Note_on_c, 0, 34, 68
1, 396093, Note_off_c, 0, 62, 54
1, 396107, Note_on_c, 0, 56, 22
1, 396107, Note_off_c, 0, 34, 64
1, 396150, Note_on_c, 0, 53, 4
1, 396159, Note_off_c, 0, 56, 0
1, 396170, Note_off_c, 0, 53, 0
1, 396170, Note_on_c, 0, 53, 6
1, 396172, Note_on_c, 0, 35, 66
1, 396173, Note_on_c, 0, 56, 61
1, 396207, Note_off_c, 0, 35, 65
1, 396213, Note_off_c, 0, 56, 66
1, 396213, Note_off_c, 0, 53, 60
1, 396268, Note_on_c, 0, 38, 73
1, 396276, Note_on_c, 0, 56, 73
1, 396282, Note_on_c, 0, 53, 64
1, 396295, Note_off_c, 0, 38, 64
1, 396316, Note_off_c, 0, 56, 66
1, 396318, Note_off_c, 0, 53, 67
1, 396372, Note_on_c, 0, 41, 81
1, 396375, Note_on_c, 0, 53, 78
1, 396384, Note_on_c, 0, 56, 68
1, 396404, Note_off_c, 0, 41, 66
1, 396410, Note_off_c, 0, 53, 65
1, 396411, Note_off_c, 0, 56, 67
1, 396467, Note_on_c, 0, 44, 84
1, 396471, Note_on_c, 0, 56, 76
1, 396481, Note_on_c, 0, 53, 63
1, 396497, Note_off_c, 0, 44, 65
1, 396504, Note_off_c, 0, 56, 66
1, 396510, Note_off_c, 0, 53, 67
1, 396545, Poly_aftertouch_c, 0, 62, 127
1, 396562, Note_on_c, 0, 45, 83
1, 396567, Note_on_c, 0, 53, 78
1, 396582, Note_on_c, 0, 56, 71
1, 396595, Note_off_c, 0, 45, 65
1, 396606, Note_off_c, 0, 53, 60
1, 396609, Note_off_c, 0, 56, 66
1, 396657, Note_on_c, 0, 46, 84
1, 396671, Note_on_c, 0, 56, 65
1, 396680, Note_on_c, 0, 53, 64
1, 396698, Note_off_c, 0, 46, 60
1, 396705, Note_off_c, 0, 56, 66
1, 396706, Note_off_c, 0, 53, 66
1, 396712, Poly_aftertouch_c, 0, 62, 0
1, 396734, Note_on_c, 0, 62, 12
1, 396762, Note_on_c, 0, 47, 78
1, 396772, Note_on_c, 0, 53, 65
1, 396784, Note_on_c, 0, 56, 62
1, 396787, Note_off_c, 0, 47, 68
1, 396787, Note_off_c, 0, 62, 45
1, 396801, Note_off_c, 0, 53, 61
1, 396815, Note_off_c, 0, 56, 65
1, 396861, Note_on_c, 0, 38, 71
1, 396881, Note_on_c, 0, 53, 53
1, 396888, Note_on_c, 0, 56, 59
1, 396888, Control_c, 0, 64, 61
1, 396899, Note_off_c, 0, 38, 65
1, 396903, Control_c, 0, 64, 70
1, 396918, Control_c, 0, 64, 78
1, 396923, Note_off_c, 0, 56, 65
1, 396924, Note_off_c, 0, 53, 54
1, 396933, Control_c, 0, 64, 89
1, 396945, Note_on_c, 0, 62, 27
1, 396948, Control_c, 0, 64, 104
1, 396963, Control_c, 0, 64, 127
1, 396988, Note_off_c, 0, 62, 50
1, 396999, Note_on_c, 0, 53, 35
1, 397007, Note_on_c, 0, 56, 60
1, 397038, Note_off_c, 0, 56, 63
1, 397044, Note_off_c, 0, 53, 51
1, 397059, Note_on_c, 0, 62, 40
1, 397097, Note_off_c, 0, 62, 50
1, 397127, Note_on_c, 0, 56, 59
1, 397159, Note_off_c, 0, 56, 62
1, 397159, Poly_aftertouch_c, 0, 53, 127
1, 397170, Note_on_c, 0, 62, 42
1, 397201, Note_off_c, 0, 62, 52
1, 397246, Poly_aftertouch_c, 0, 56, 0
1, 397274, Note_on_c, 0, 62, 45
1, 397294, Poly_aftertouch_c, 0, 53, 0
1, 397306, Note_off_c, 0, 62, 54
1, 397330, Poly_aftertouch_c, 0, 53, 127
1, 397355, Note_on_c, 0, 56, 33
1, 397391, Note_on_c, 0, 62, 57
1, 397395, Note_off_c, 0, 56, 51
1, 397395, Poly_aftertouch_c, 0, 53, 0
1, 397406, Note_on_c, 0, 74, 87
1, 397427, Note_off_c, 0, 74, 70
1, 397437, Note_off_c, 0, 62, 57
1, 397479, Note_on_c, 0, 74, 98
1, 397498, Note_on_c, 0, 56, 43
1, 397505, Note_off_c, 0, 74, 65
1, 397515, Poly_aftertouch_c, 0, 53, 127
1, 397523, Note_off_c, 0, 56, 58
1, 397524, Note_on_c, 0, 62, 60
1, 397564, Note_off_c, 0, 62, 60
1, 397595, Note_on_c, 0, 53, 32
1, 397595, Note_on_c, 0, 56, 56
1, 397635, Note_off_c, 0, 56, 62
1, 397638, Note_off_c, 0, 53, 62
1, 397652, Note_on_c, 0, 62, 55
1, 397679, Note_off_c, 0, 62, 62
1, 397742, Note_on_c, 0, 53, 25
1, 397742, Note_on_c, 0, 56, 47
1, 397757, Note_on_c, 0, 62, 59
1, 397774, Note_off_c, 0, 56, 57
1, 397784, Note_off_c, 0, 53, 56
1, 397804, Note_off_c, 0, 62, 53
1, 397883, Poly_aftertouch_c, 0, 53, 127
1, 397886, Note_on_c, 0, 56, 43
1, 397906, Note_on_c, 0, 62, 49
1, 397929, Note_off_c, 0, 56, 45
1, 397953, Note_off_c, 0, 62, 58
1, 397970, Note_on_c, 0, 53, 12
1, 398012, Note_on_c, 0, 56, 26
1, 398033, Note_on_c, 0, 62, 53
1, 398037, Note_off_c, 0, 53, 55
1, 398044, Note_on_c, 0, 68, 63
1, 398049, Note_off_c, 0, 56, 51
1, 398069, Note_off_c, 0, 68, 64
1, 398070, Note_off_c, 0, 62, 59
1, 398117, Note_on_c, 0, 68, 79
1, 398140, Note_on_c, 0, 53, 19
1, 398142, Note_off_c, 0, 68, 65
1, 398148, Note_on_c, 0, 56, 31
1, 398162, Note_on_c, 0, 62, 61
1, 398187, Note_off_c, 0, 53, 53
1, 398201, Note_off_c, 0, 56, 43
1, 398208, Note_off_c, 0, 62, 57
1, 398247, Note_on_c, 0, 53, 39
1, 398253, Note_on_c, 0, 56, 33
1, 398300, Note_off_c, 0, 53, 61
1, 398305, Note_off_c, 0, 56, 57
1, 398308, Note_on_c, 0, 62, 52
1, 398346, Note_off_c, 0, 62, 57
1, 398411, Note_on_c, 0, 59, 69
1, 398415, Note_on_c, 0, 56, 56
1, 398446, Note_off_c, 0, 56, 65
1, 398465, Note_off_c, 0, 59, 59
1, 398481, Note_on_c, 0, 62, 42
1, 398490, Control_c, 0, 67, 115
1, 398504, Control_c, 0, 67, 95
1, 398518, Note_off_c, 0, 62, 51
1, 398519, Control_c, 0, 67, 73
1, 398523, Note_on_c, 0, 56, 57
1, 398530, Note_on_c, 0, 54, 70
1, 398534, Note_on_c, 0, 59, 49
1, 398534, Control_c, 0, 67, 51
1, 398557, Control_c, 0, 67, 33
1, 398562, Note_off_c, 0, 54, 67
1, 398571, Control_c, 0, 67, 14
1, 398586, Control_c, 0, 67, 0
1, 398606, Note_off_c, 0, 59, 52
1, 398613, Note_on_c, 0, 62, 50
1, 398618, Note_off_c, 0, 56, 38
1, 398632, Note_on_c, 0, 53, 76
1, 398658, Note_off_c, 0, 53, 67
1, 398719, Note_off_c, 0, 62, 48
1, 398727, Note_on_c, 0, 51, 76
1, 398733, Note_on_c, 0, 57, 70
1, 398733, Note_on_c, 0, 54, 67
1, 398748, Note_off_c, 0, 51, 67
1, 398769, Note_off_c, 0, 54, 62
1, 398792, Note_off_c, 0, 57, 58
1, 398795, Note_on_c, 0, 63, 71
1, 398843, Note_on_c, 0, 50, 62
1, 398853, Control_c, 0, 64, 122
1, 398854, Note_on_c, 0, 54, 70
1, 398857, Note_off_c, 0, 63, 56
1, 398865, Note_on_c, 0, 48, 44
1, 398868, Control_c, 0, 64, 110
1, 398869, Note_off_c, 0, 50, 62
1, 398870, Note_on_c, 0, 57, 60
1, 398882, Control_c, 0, 64, 104
1, 398893, Note_off_c, 0, 54, 64
1, 398897, Control_c, 0, 64, 98
1, 398898, Note_off_c, 0, 48, 54
1, 398909, Note_off_c, 0, 57, 62
1, 398912, Control_c, 0, 64, 90
1, 398923, Note_on_c, 0, 63, 61
1, 398927, Control_c, 0, 64, 78
1, 398942, Control_c, 0, 64, 55
1, 398951, Note_on_c, 0, 47, 62
1, 398954, Note_on_c, 0, 45, 63
1, 398956, Control_c, 0, 64, 0
1, 398975, Note_off_c, 0, 63, 59
1, 398977, Note_off_c, 0, 47, 61
1, 398980, Note_off_c, 0, 45, 59
1, 398987, Note_on_c, 0, 54, 48
1, 399005, Note_on_c, 0, 57, 42
1, 399011, Note_off_c, 0, 54, 60
1, 399033, Note_on_c, 0, 63, 65
1, 399034, Note_off_c, 0, 57, 58
1, 399037, Note_on_c, 0, 42, 82
1, 399066, Note_off_c, 0, 42, 66
1, 399097, Note_off_c, 0, 63, 59
1, 399118, Note_on_c, 0, 54, 63
1, 399120, Note_on_c, 0, 57, 62
1, 399133, Note_on_c, 0, 41, 81
1, 399160, Note_off_c, 0, 54, 60
1, 399162, Note_off_c, 0, 41, 65
1, 399164, Note_off_c, 0, 57, 60
1, 399189, Note_on_c, 0, 63, 66
1, 399218, Note_on_c, 0, 39, 81
1, 399250, Note_off_c, 0, 39, 65
1, 399276, Note_off_c, 0, 63, 44
1, 399324, Note_on_c, 0, 54, 41
1, 399336, Note_on_c, 0, 57, 25
1, 399338, Note_on_c, 0, 48, 88
1, 399354, Note_off_c, 0, 54, 60
1, 399355, Note_on_c, 0, 63, 59
1, 399363, Note_off_c, 0, 48, 67
1, 399365, Control_c, 0, 64, 78
1, 399376, Note_off_c, 0, 57, 48
1, 399379, Control_c, 0, 64, 127
1, 399403, Note_off_c, 0, 63, 57
1, 399445, Note_on_c, 0, 57, 40
1, 399446, Note_on_c, 0, 54, 36
1, 399474, Note_off_c, 0, 54, 59
1, 399479, Note_on_c, 0, 63, 66
1, 399484, Note_off_c, 0, 57, 60
1, 399532, Note_off_c, 0, 63, 56
1, 399563, Note_on_c, 0, 54, 49
1, 399571, Control_c, 0, 67, 10
1, 399580, Note_on_c, 0, 57, 40
1, 399586, Control_c, 0, 67, 60
1, 399597, Note_off_c, 0, 54, 59
1, 399601, Control_c, 0, 67, 100
1, 399607, Note_on_c, 0, 63, 51
1, 399616, Control_c, 0, 67, 127
1, 399621, Note_off_c, 0, 57, 54
1, 399643, Note_off_c, 0, 63, 56
1, 399687, Note_on_c, 0, 57, 38
1, 399695, Note_on_c, 0, 54, 40
1, 399726, Note_on_c, 0, 63, 65
1, 399731, Note_off_c, 0, 54, 53
1, 399735, Note_off_c, 0, 57, 57
1, 399794, Note_off_c, 0, 63, 57
1, 399824, Note_on_c, 0, 72, 78
1, 399834, Note_on_c, 0, 66, 61
1, 399843, Note_off_c, 0, 72, 70
1, 399846, Note_on_c, 0, 54, 24
1, 399853, Control_c, 0, 67, 127
1, 399854, Note_off_c, 0, 66, 64
1, 399854, Note_on_c, 0, 57, 18
1, 399868, Control_c, 0, 67, 117
1, 399883, Control_c, 0, 67, 103
1, 399885, Note_on_c, 0, 63, 54
1, 399885, Note_off_c, 0, 54, 56
1, 399898, Control_c, 0, 67, 84
1, 399901, Note_on_c, 0, 72, 90
1, 399904, Note_off_c, 0, 57, 40
1, 399910, Note_on_c, 0, 66, 79
1, 399913, Control_c, 0, 67, 60
1, 399924, Note_off_c, 0, 63, 61
1, 399927, Note_off_c, 0, 72, 63
1, 399927, Control_c, 0, 67, 37
1, 399930, Note_off_c, 0, 66, 70
1, 399942, Control_c, 0, 67, 17
1, 399953, Note_on_c, 0, 57, 45
1, 399957, Control_c, 0, 67, 0
1, 399995, Note_on_c, 0, 54, 19
1, 400009, Note_off_c, 0, 57, 57
1, 400010, Note_on_c, 0, 63, 60
1, 400035, Note_off_c, 0, 54, 57
1, 400103, Note_off_c, 0, 63, 55
1, 400125, Note_on_c, 0, 78, 77
1, 400136, Note_on_c, 0, 54, 53
1, 400137, Note_on_c, 0, 72, 56
1, 400143, Note_on_c, 0, 57, 49
1, 400146, Note_off_c, 0, 78, 71
1, 400155, Note_off_c, 0, 72, 65
1, 400170, Note_off_c, 0, 54, 62
1, 400181, Note_off_c, 0, 57, 61
1, 400196, Note_on_c, 0, 63, 52
1, 400198, Note_on_c, 0, 78, 95
1, 400203, Note_on_c, 0, 72, 82
1, 400224, Note_off_c, 0, 72, 67
1, 400233, Note_off_c, 0, 63, 62
1, 400242, Note_off_c, 0, 78, 64
1, 400258, Note_on_c, 0, 54, 51
1, 400272, Note_on_c, 0, 57, 49
1, 400299, Note_off_c, 0, 54, 59
1, 400305, Note_off_c, 0, 57, 64
1, 400320, Note_on_c, 0, 63, 62
1, 400397, Note_off_c, 0, 63, 57
1, 400415, Note_on_c, 0, 84, 93
1, 400428, Note_on_c, 0, 78, 63
1, 400432, Note_on_c, 0, 57, 50
1, 400434, Note_on_c, 0, 54, 48
1, 400436, Note_off_c, 0, 84, 62
1, 400445, Note_off_c, 0, 78, 68
1, 400469, Note_off_c, 0, 54, 57
1, 400471, Note_off_c, 0, 57, 61
1, 400496, Note_on_c, 0, 84, 95
1, 400497, Note_on_c, 0, 78, 96
1, 400499, Note_on_c, 0, 63, 61
1, 400525, Note_off_c, 0, 84, 63
1, 400537, Note_off_c, 0, 63, 62
1, 400541, Note_off_c, 0, 78, 67
1, 400551, Note_on_c, 0, 54, 63
1, 400558, Control_c, 0, 67, 29
1, 400561, Note_on_c, 0, 57, 54
1, 400573, Control_c, 0, 67, 101
1, 400587, Control_c, 0, 67, 127
1, 400603, Note_off_c, 0, 54, 62
1, 400608, Note_off_c, 0, 57, 60
1, 400616, Note_on_c, 0, 63, 71
1, 400657, Note_off_c, 0, 63, 54
1, 400716, Note_on_c, 0, 57, 44
1, 400730, Note_on_c, 0, 63, 65
1, 400731, Note_on_c, 0, 54, 2
1, 400749, Note_off_c, 0, 57, 51
1, 400774, Note_off_c, 0, 54, 0
1, 400801, Note_off_c, 0, 63, 56
1, 400805, Note_on_c, 0, 54, 35
1, 400844, Note_on_c, 0, 57, 31
1, 400859, Note_off_c, 0, 54, 56
1, 400866, Note_on_c, 0, 63, 54
1, 400874, Note_off_c, 0, 57, 57
1, 400921, Note_on_c, 0, 35, 55
1, 400921, Control_c, 0, 64, 109
1, 400927, Note_off_c, 0, 63, 55
1, 400936, Control_c, 0, 64, 80
1, 400951, Control_c, 0, 64, 59
1, 400952, Note_off_c, 0, 35, 58
1, 400954, Note_on_c, 0, 54, 55
1, 400954, Note_on_c, 0, 57, 50
1, 400966, Control_c, 0, 64, 0
1, 400987, Note_off_c, 0, 54, 62
1, 400999, Note_off_c, 0, 57, 61
1, 401010, Note_on_c, 0, 63, 61
1, 401017, Note_on_c, 0, 38, 55
1, 401045, Note_off_c, 0, 38, 56
1, 401050, Note_off_c, 0, 63, 58
1, 401080, Note_on_c, 0, 54, 59
1, 401095, Note_on_c, 0, 39, 81
1, 401095, Note_on_c, 0, 57, 59
1, 401118, Note_off_c, 0, 54, 63
1, 401124, Note_off_c, 0, 39, 66
1, 401129, Note_off_c, 0, 57, 65
1, 401156, Note_on_c, 0, 63, 54
1, 401192, Note_on_c, 0, 42, 86
1, 401195, Note_off_c, 0, 63, 63
1, 401199, Note_on_c, 0, 54, 58
1, 401210, Note_on_c, 0, 57, 60
1, 401219, Note_off_c, 0, 42, 66
1, 401232, Note_off_c, 0, 54, 64
1, 401243, Note_off_c, 0, 57, 63
1, 401283, Note_on_c, 0, 63, 45
1, 401290, Note_on_c, 0, 45, 86
1, 401309, Note_on_c, 0, 54, 59
1, 401318, Note_off_c, 0, 63, 60
1, 401323, Note_off_c, 0, 45, 65
1, 401327, Note_on_c, 0, 57, 54
1, 401343, Note_off_c, 0, 54, 64
1, 401350, Note_off_c, 0, 57, 61
1, 401383, Note_on_c, 0, 46, 90
1, 401420, Note_off_c, 0, 46, 60
1, 401421, Note_on_c, 0, 57, 60
1, 401422, Note_on_c, 0, 54, 46
1, 401449, Note_off_c, 0, 54, 59
1, 401455, Note_off_c, 0, 57, 62
1, 401461, Poly_aftertouch_c, 0, 63, 0
1, 401483, Note_on_c, 0, 47, 85
1, 401493, Poly_aftertouch_c, 0, 63, 0
1, 401510, Note_off_c, 0, 47, 66
1, 401524, Note_on_c, 0, 54, 55
1, 401530, Poly_aftertouch_c, 0, 63, 127
1, 401556, Note_off_c, 0, 54, 62
1, 401564, Note_on_c, 0, 57, 17
1, 401584, Note_on_c, 0, 48, 78
1, 401624, Note_off_c, 0, 48, 60
1, 401639, Note_on_c, 0, 54, 49
1, 401643, Poly_aftertouch_c, 0, 63, 0
1, 401648, Note_off_c, 0, 57, 0
1, 401668, Note_off_c, 0, 54, 59
1, 401685, Poly_aftertouch_c, 0, 57, 127
1, 401699, Note_on_c, 0, 39, 69
1, 401707, Note_on_c, 0, 63, 49
1, 401714, Poly_aftertouch_c, 0, 57, 0
1, 401715, Control_c, 0, 64, 64
1, 401729, Control_c, 0, 64, 88
1, 401744, Control_c, 0, 64, 127
1, 401748, Note_off_c, 0, 39, 58
1, 401750, Note_on_c, 0, 54, 60
1, 401750, Note_off_c, 0, 63, 60
1, 401751, Poly_aftertouch_c, 0, 57, 127
1, 401756, Note_on_c, 0, 57, 12
1, 401793, Note_off_c, 0, 54, 61
1, 401821, Note_off_c, 0, 57, 55
1, 401859, Note_on_c, 0, 63, 21
1, 401890, Note_on_c, 0, 57, 30
1, 401911, Note_on_c, 0, 54, 27
1, 401913, Note_off_c, 0, 63, 0
1, 401940, Note_off_c, 0, 57, 58
1, 401944, Note_off_c, 0, 54, 55
1, 401945, Note_on_c, 0, 63, 10
1, 401991, Note_off_c, 0, 63, 50
1, 402006, Note_on_c, 0, 57, 46
1, 402031, Note_on_c, 0, 54, 43
1, 402055, Note_off_c, 0, 57, 60
1, 402057, Note_off_c, 0, 54, 59
1, 402079, Note_on_c, 0, 63, 44
1, 402111, Note_off_c, 0, 63, 59
1, 402138, Note_on_c, 0, 54, 49
1, 402141, Note_on_c, 0, 57, 32
1, 402173, Note_off_c, 0, 54, 61
1, 402173, Control_c, 0, 67, 114
1, 402188, Control_c, 0, 67, 92
1, 402195, Note_off_c, 0, 57, 54
1, 402203, Control_c, 0, 67, 67
1, 402205, Note_on_c, 0, 63, 53
1, 402218, Control_c, 0, 67, 45
1, 402233, Control_c, 0, 67, 30
1, 402248, Control_c, 0, 67, 27
1, 402249, Note_off_c, 0, 63, 59
1, 402269, Note_on_c, 0, 78, 74
1, 402278, Control_c, 0, 67, 30
1, 402278, Note_on_c, 0, 54, 42
1, 402292, Note_off_c, 0, 78, 69
1, 402300, Control_c, 0, 67, 34
1, 402311, Note_on_c, 0, 57, 34
1, 402315, Control_c, 0, 67, 38
1, 402322, Note_off_c, 0, 54, 52
1, 402329, Control_c, 0, 67, 46
1, 402343, Note_on_c, 0, 78, 92
1, 402344, Control_c, 0, 67, 66
1, 402348, Note_off_c, 0, 57, 48
1, 402356, Note_on_c, 0, 63, 46
1, 402359, Control_c, 0, 67, 100
1, 402374, Control_c, 0, 67, 124
1, 402380, Note_off_c, 0, 78, 62
1, 402381, Note_off_c, 0, 63, 62
1, 402389, Control_c, 0, 67, 127
1, 402411, Note_on_c, 0, 54, 41
1, 402417, Note_on_c, 0, 57, 27
1, 402451, Note_off_c, 0, 54, 51
1, 402457, Note_on_c, 0, 63, 61
1, 402465, Note_off_c, 0, 57, 45
1, 402491, Note_off_c, 0, 63, 59
1, 402539, Note_on_c, 0, 57, 35
1, 402540, Note_on_c, 0, 54, 42
1, 402572, Note_off_c, 0, 54, 56
1, 402576, Note_off_c, 0, 57, 58
1, 402585, Note_on_c, 0, 63, 51
1, 402616, Note_off_c, 0, 63, 62
1, 402658, Note_on_c, 0, 57, 40
1, 402668, Note_on_c, 0, 54, 25
1, 402695, Note_on_c, 0, 63, 64
1, 402698, Note_off_c, 0, 57, 60
1, 402706, Note_off_c, 0, 54, 50
1, 402743, Note_off_c, 0, 63, 45
1, 402795, Note_on_c, 0, 57, 38
1, 402804, Note_on_c, 0, 54, 18
1, 402819, Note_on_c, 0, 63, 49
1, 402841, Note_off_c, 0, 54, 56
1, 402859, Note_off_c, 0, 57, 41
1, 402874, Note_off_c, 0, 63, 57
1, 402898, Note_on_c, 0, 72, 70
1, 402912, Note_on_c, 0, 54, 41
1, 402918, Note_on_c, 0, 57, 25
1, 402922, Note_off_c, 0, 72, 65
1, 402945, Note_on_c, 0, 63, 59
1, 402946, Note_off_c, 0, 54, 58
1, 402962, Note_off_c, 0, 57, 57
1, 402995, Note_on_c, 0, 72, 75
1, 403012, Note_off_c, 0, 63, 58
1, 403016, Note_off_c, 0, 72, 65
1, 403058, Note_on_c, 0, 54, 34
1, 403061, Note_on_c, 0, 57, 41
1, 403071, Note_on_c, 0, 63, 48
1, 403086, Note_off_c, 0, 54, 57
1, 403094, Note_off_c, 0, 57, 57
1, 403136, Note_off_c, 0, 63, 58
1, 403169, Note_on_c, 0, 54, 48
1, 403197, Note_on_c, 0, 57, 34
1, 403205, Note_off_c, 0, 54, 63
1, 403222, Note_on_c, 0, 63, 57
1, 403235, Note_off_c, 0, 57, 50
1, 403262, Note_off_c, 0, 63, 62
1, 403306, Note_on_c, 0, 57, 69
1, 403315, Note_on_c, 0, 60, 60
1, 403332, Control_c, 0, 67, 126
1, 403346, Note_off_c, 0, 57, 58
1, 403347, Control_c, 0, 67, 118
1, 403357, Note_off_c, 0, 60, 61
1, 403362, Control_c, 0, 67, 105
1, 403374, Note_on_c, 0, 63, 56
1, 403376, Control_c, 0, 67, 88
1, 403391, Control_c, 0, 67, 67
1, 403406, Control_c, 0, 67, 47
1, 403411, Note_off_c, 0, 63, 62
1, 403420, Control_c, 0, 67, 30
1, 403421, Note_on_c, 0, 55, 73
1, 403435, Control_c, 0, 67, 17
1, 403450, Control_c, 0, 67, 8
1, 403456, Note_off_c, 0, 55, 62
1, 403465, Note_on_c, 0, 60, 26
1, 403465, Control_c, 0, 67, 0
1, 403473, Note_on_c, 0, 57, 24
1, 403491, Note_on_c, 0, 63, 66
1, 403494, Note_off_c, 0, 60, 56
1, 403519, Note_on_c, 0, 54, 74
1, 403522, Note_off_c, 0, 57, 47
1, 403539, Note_off_c, 0, 54, 69
1, 403613, Note_off_c, 0, 63, 53
1, 403613, Note_on_c, 0, 52, 78
1, 403622, Note_on_c, 0, 55, 69
1, 403626, Note_on_c, 0, 58, 65
1, 403640, Note_off_c, 0, 52, 65
1, 403668, Note_off_c, 0, 58, 53
1, 403679, Note_off_c, 0, 55, 57
1, 403692, Note_on_c, 0, 64, 66
1, 403710, Note_on_c, 0, 49, 82
1, 403735, Note_off_c, 0, 49, 65
1, 403755, Note_off_c, 0, 64, 60
1, 403798, Note_on_c, 0, 55, 63
1, 403801, Note_on_c, 0, 58, 68
1, 403840, Note_off_c, 0, 55, 58
1, 403864, Note_off_c, 0, 58, 62
1, 403924, Note_on_c, 0, 45, 72
1, 403928, Note_on_c, 0, 55, 81
1, 403934, Note_on_c, 0, 43, 62
1, 403948, Note_off_c, 0, 45, 65
1, 403950, Note_on_c, 0, 58, 51
1, 403957, Note_off_c, 0, 43, 60
1, 403978, Note_off_c, 0, 58, 54
1, 403983, Note_off_c, 0, 55, 56
1, 404017, Poly_aftertouch_c, 0, 64, 127
1, 404020, Note_on_c, 0, 42, 74
1, 404035, Note_on_c, 0, 64, 24
1, 404043, Note_on_c, 0, 55, 60
1, 404057, Note_on_c, 0, 58, 51
1, 404057, Note_off_c, 0, 42, 62
1, 404079, Note_off_c, 0, 55, 60
1, 404088, Note_off_c, 0, 58, 63
1, 404103, Note_off_c, 0, 64, 63
1, 404118, Note_on_c, 0, 40, 78
1, 404124, Control_c, 0, 64, 118
1, 404139, Control_c, 0, 64, 106
1, 404154, Control_c, 0, 64, 96
1, 404158, Note_off_c, 0, 40, 63
1, 404168, Control_c, 0, 64, 83
1, 404183, Control_c, 0, 64, 66
1, 404198, Control_c, 0, 64, 0
1, 404219, Note_on_c, 0, 55, 58
1, 404221, Note_on_c, 0, 58, 61
1, 404226, Note_on_c, 0, 49, 104
1, 404272, Control_c, 0, 64, 43
1, 404275, Note_off_c, 0, 55, 58
1, 404279, Note_off_c, 0, 49, 64
1, 404284, Note_off_c, 0, 58, 60
1, 404287, Note_on_c, 0, 64, 55
1, 404287, Control_c, 0, 64, 76
1, 404302, Control_c, 0, 64, 107
1, 404317, Control_c, 0, 64, 127
1, 404325, Note_off_c, 0, 64, 65
1, 404353, Note_on_c, 0, 55, 54
1, 404360, Note_on_c, 0, 58, 37
1, 404394, Note_off_c, 0, 55, 62
1, 404396, Note_off_c, 0, 58, 61
1, 404411, Note_on_c, 0, 64, 54
1, 404442, Note_off_c, 0, 64, 65
1, 404494, Note_on_c, 0, 55, 49
1, 404497, Note_on_c, 0, 58, 52
1, 404528, Note_off_c, 0, 55, 61
1, 404533, Note_on_c, 0, 64, 61
1, 404533, Note_off_c, 0, 58, 60
1, 404580, Note_off_c, 0, 64, 61
1, 404612, Note_on_c, 0, 58, 57
1, 404624, Note_on_c, 0, 55, 53
1, 404661, Note_off_c, 0, 55, 62
1, 404668, Note_off_c, 0, 58, 59
1, 404677, Note_on_c, 0, 64, 61
1, 404704, Note_on_c, 0, 73, 74
1, 404706, Note_on_c, 0, 67, 65
1, 404723, Note_off_c, 0, 64, 62
1, 404729, Note_off_c, 0, 73, 69
1, 404736, Note_off_c, 0, 67, 66
1, 404763, Note_on_c, 0, 55, 42
1, 404773, Note_on_c, 0, 67, 81
1, 404774, Note_on_c, 0, 73, 95
1, 404776, Note_on_c, 0, 58, 33
1, 404800, Note_off_c, 0, 67, 65
1, 404802, Note_off_c, 0, 55, 55
1, 404803, Note_on_c, 0, 64, 72
1, 404816, Note_off_c, 0, 73, 63
1, 404816, Note_off_c, 0, 58, 50
1, 404868, Note_off_c, 0, 64, 59
1, 404913, Note_on_c, 0, 55, 44
1, 404925, Note_on_c, 0, 58, 39
1, 404952, Note_off_c, 0, 55, 57
1, 404955, Note_off_c, 0, 58, 59
1, 404966, Note_on_c, 0, 64, 66
1, 404975, Note_on_c, 0, 79, 89
1, 404981, Note_on_c, 0, 73, 74
1, 404992, Note_off_c, 0, 79, 72
1, 404996, Note_off_c, 0, 73, 70
1, 405016, Note_off_c, 0, 64, 61
1, 405038, Note_on_c, 0, 58, 59
1, 405042, Note_on_c, 0, 55, 64
1, 405047, Note_on_c, 0, 79, 87
1, 405050, Note_on_c, 0, 73, 82
1, 405070, Note_off_c, 0, 79, 62
1, 405074, Note_off_c, 0, 73, 67
1, 405089, Note_off_c, 0, 55, 60
1, 405092, Note_off_c, 0, 58, 55
1, 405102, Note_on_c, 0, 64, 58
1, 405154, Note_off_c, 0, 64, 56
1, 405190, Note_on_c, 0, 58, 29
1, 405196, Note_on_c, 0, 55, 44
1, 405238, Note_off_c, 0, 55, 61
1, 405241, Note_on_c, 0, 64, 55
1, 405246, Note_off_c, 0, 58, 45
1, 405316, Note_off_c, 0, 64, 60
1, 405324, Note_on_c, 0, 85, 77
1, 405327, Note_on_c, 0, 79, 69
1, 405348, Note_off_c, 0, 85, 66
1, 405352, Note_off_c, 0, 79, 67
1, 405357, Note_on_c, 0, 55, 42
1, 405393, Note_off_c, 0, 55, 53
1, 405416, Note_on_c, 0, 85, 80
1, 405417, Poly_aftertouch_c, 0, 58, 127
1, 405420, Note_on_c, 0, 64, 53
1, 405424, Note_on_c, 0, 79, 60
1, 405443, Note_off_c, 0, 79, 65
1, 405449, Note_off_c, 0, 85, 61
1, 405461, Note_off_c, 0, 64, 62
1, 405478, Poly_aftertouch_c, 0, 58, 0
1, 405493, Note_on_c, 0, 55, 52
1, 405515, Poly_aftertouch_c, 0, 58, 127
1, 405539, Note_off_c, 0, 55, 60
1, 405572, Note_on_c, 0, 64, 37
1, 405605, Note_off_c, 0, 64, 52
1, 405632, Note_on_c, 0, 58, 9
1, 405663, Note_on_c, 0, 55, 24
1, 405716, Note_off_c, 0, 58, 0
1, 405724, Note_on_c, 0, 64, 20
1, 405750, Note_off_c, 0, 55, 0
1, 405753, Poly_aftertouch_c, 0, 58, 127
1, 405765, Note_off_c, 0, 64, 52
1, 405787, Poly_aftertouch_c, 0, 55, 127
1, 405828, Note_on_c, 0, 64, 36
1, 405842, Poly_aftertouch_c, 0, 55, 0
1, 405867, Note_off_c, 0, 64, 53
1, 405900, Note_on_c, 0, 55, 32
1, 405945, Note_off_c, 0, 55, 55
1, 406005, Note_on_c, 0, 64, 10
1, 406008, Poly_aftertouch_c, 0, 58, 0
1, 406105, Poly_aftertouch_c, 0, 55, 127
1, 406111, Note_on_c, 0, 58, 21
1, 406302, Note_on_c, 0, 48, 49
1, 406305, Note_on_c, 0, 36, 48
1, 406347, Note_off_c, 0, 48, 53
1, 406348, Poly_aftertouch_c, 0, 55, 0
1, 406363, Note_off_c, 0, 36, 50
1, 406413, Note_off_c, 0, 58, 32
1, 406462, Note_off_c, 0, 64, 39
1, 406483, Note_on_c, 0, 48, 44
1, 406501, Note_on_c, 0, 36, 47
1, 406533, Control_c, 0, 64, 95
1, 406548, Control_c, 0, 64, 71
1, 406562, Control_c, 0, 64, 0
1, 406622, Control_c, 0, 64, 62
1, 406636, Control_c, 0, 64, 78
1, 406651, Control_c, 0, 64, 127
1, 406652, Note_on_c, 0, 64, 39
1, 406657, Note_on_c, 0, 55, 42
1, 406659, Note_on_c, 0, 58, 40
1, 406701, Note_off_c, 0, 58, 59
1, 406714, Note_off_c, 0, 64, 57
1, 406716, Note_off_c, 0, 55, 55
1, 406728, Note_off_c, 0, 48, 56
1, 406818, Note_on_c, 0, 58, 44
1, 406820, Note_off_c, 0, 36, 35
1, 406821, Note_on_c, 0, 64, 38
1, 406828, Note_on_c, 0, 55, 18
1, 406866, Note_off_c, 0, 58, 60
1, 406875, Note_off_c, 0, 55, 39
1, 406894, Note_off_c, 0, 64, 61
1, 406932, Note_on_c, 0, 49, 49
1, 406933, Note_on_c, 0, 37, 50
1, 406962, Note_off_c, 0, 49, 58
1, 406972, Note_off_c, 0, 37, 52
1, 406999, Control_c, 0, 64, 109
1, 407014, Control_c, 0, 64, 82
1, 407029, Control_c, 0, 64, 52
1, 407039, Note_on_c, 0, 37, 48
1, 407043, Note_on_c, 0, 49, 60
1, 407044, Control_c, 0, 64, 0
1, 407059, Control_c, 0, 64, 31
1, 407074, Control_c, 0, 64, 68
1, 407088, Control_c, 0, 64, 86
1, 407103, Control_c, 0, 64, 127
1, 407136, Note_on_c, 0, 67, 57
1, 407143, Note_on_c, 0, 76, 49
1, 407146, Note_on_c, 0, 70, 44
1, 407166, Note_off_c, 0, 67, 56
1, 407168, Note_off_c, 0, 76, 57
1, 407173, Note_off_c, 0, 70, 56
1, 407205, Note_off_c, 0, 49, 62
1, 407247, Note_on_c, 0, 67, 44
1, 407247, Note_on_c, 0, 70, 53
1, 407251, Note_on_c, 0, 76, 63
1, 407255, Note_off_c, 0, 37, 42
1, 407271, Note_off_c, 0, 67, 59
1, 407278, Note_off_c, 0, 70, 65
1, 407291, Note_off_c, 0, 76, 60
1, 407332, Note_on_c, 0, 48, 56
1, 407335, Note_on_c, 0, 36, 53
1, 407361, Note_off_c, 0, 48, 57
1, 407369, Note_off_c, 0, 36, 53
1, 407434, Note_on_c, 0, 48, 65
1, 407449, Note_on_c, 0, 36, 58
1, 407520, Note_on_c, 0, 88, 59
1, 407521, Note_on_c, 0, 82, 58
1, 407525, Note_on_c, 0, 79, 49
1, 407548, Note_off_c, 0, 82, 63
1, 407548, Note_off_c, 0, 88, 60
1, 407556, Note_off_c, 0, 79, 59
1, 407566, Note_off_c, 0, 48, 59
1, 407605, Note_on_c, 0, 88, 75
1, 407611, Note_off_c, 0, 36, 40
1, 407614, Note_on_c, 0, 79, 55
1, 407621, Note_on_c, 0, 82, 65
1, 407628, Note_off_c, 0, 88, 69
1, 407636, Note_off_c, 0, 79, 61
1, 407640, Note_off_c, 0, 82, 65
1, 407695, Note_on_c, 0, 47, 68
1, 407701, Note_on_c, 0, 35, 62
1, 407728, Note_off_c, 0, 47, 62
1, 407732, Note_off_c, 0, 35, 64
1, 407803, Note_on_c, 0, 47, 63
1, 407820, Note_on_c, 0, 35, 58
1, 407866, Note_on_c, 0, 55, 61
1, 407875, Note_on_c, 0, 58, 49
1, 407876, Note_on_c, 0, 64, 50
1, 407894, Note_off_c, 0, 55, 58
1, 407903, Note_off_c, 0, 58, 57
1, 407907, Note_off_c, 0, 64, 53
1, 407930, Note_off_c, 0, 47, 63
1, 407960, Note_off_c, 0, 35, 43
1, 407962, Note_on_c, 0, 64, 59
1, 407971, Note_on_c, 0, 55, 48
1, 407982, Note_on_c, 0, 58, 63
1, 408023, Note_off_c, 0, 55, 54
1, 408025, Note_off_c, 0, 58, 51
1, 408040, Note_on_c, 0, 34, 70
1, 408045, Note_on_c, 0, 46, 64
1, 408057, Note_off_c, 0, 64, 60
1, 408076, Note_off_c, 0, 46, 63
1, 408077, Note_off_c, 0, 34, 60
1, 408090, Control_c, 0, 64, 111
1, 408105, Control_c, 0, 64, 96
1, 408120, Control_c, 0, 64, 81
1, 408134, Control_c, 0, 64, 64
1, 408145, Note_on_c, 0, 46, 68
1, 408149, Control_c, 0, 64, 0
1, 408150, Note_on_c, 0, 34, 71
1, 408208, Control_c, 0, 64, 63
1, 408223, Control_c, 0, 64, 75
1, 408234, Note_on_c, 0, 65, 55
1, 408236, Note_on_c, 0, 61, 55
1, 408238, Control_c, 0, 64, 93
1, 408244, Note_on_c, 0, 56, 47
1, 408253, Control_c, 0, 64, 127
1, 408263, Note_off_c, 0, 65, 62
1, 408265, Note_off_c, 0, 61, 64
1, 408299, Note_off_c, 0, 46, 60
1, 408306, Note_off_c, 0, 34, 58
1, 408307, Note_off_c, 0, 56, 0
1, 408319, Note_on_c, 0, 65, 70
1, 408320, Note_on_c, 0, 56, 56
1, 408344, Note_on_c, 0, 61, 52
1, 408353, Note_off_c, 0, 56, 65
1, 408371, Note_off_c, 0, 61, 65
1, 408383, Note_off_c, 0, 65, 62
1, 408400, Note_on_c, 0, 45, 70
1, 408403, Note_on_c, 0, 33, 66
1, 408427, Note_off_c, 0, 45, 66
1, 408435, Note_off_c, 0, 33, 61
1, 408487, Note_on_c, 0, 45, 77
1, 408502, Note_on_c, 0, 33, 76
1, 408591, Note_on_c, 0, 73, 61
1, 408593, Note_on_c, 0, 68, 60
1, 408597, Note_on_c, 0, 77, 44
1, 408611, Note_off_c, 0, 73, 65
1, 408612, Note_off_c, 0, 68, 63
1, 408624, Note_off_c, 0, 77, 58
1, 408640, Note_off_c, 0, 33, 57
1, 408644, Note_off_c, 0, 45, 58
1, 408669, Note_on_c, 0, 77, 73
1, 408678, Note_on_c, 0, 68, 65
1, 408681, Note_on_c, 0, 73, 78
1, 408699, Note_off_c, 0, 68, 69
1, 408709, Note_off_c, 0, 73, 63
1, 408730, Note_off_c, 0, 77, 64
1, 408745, Note_on_c, 0, 32, 72
1, 408746, Note_on_c, 0, 44, 74
1, 408773, Note_off_c, 0, 44, 65
1, 408776, Note_off_c, 0, 32, 63
1, 408832, Note_on_c, 0, 44, 86
1, 408833, Note_on_c, 0, 32, 83
1, 408893, Note_off_c, 0, 32, 59
1, 408906, Note_off_c, 0, 44, 62
1, 408911, Note_on_c, 0, 80, 75
1, 408915, Note_on_c, 0, 89, 68
1, 408918, Note_on_c, 0, 85, 65
1, 408932, Note_off_c, 0, 80, 70
1, 408937, Note_off_c, 0, 89, 57
1, 408943, Note_off_c, 0, 85, 66
1, 408985, Note_on_c, 0, 80, 80
1, 408991, Note_on_c, 0, 89, 82
1, 409009, Note_on_c, 0, 85, 63
1, 409010, Note_off_c, 0, 89, 70
1, 409032, Note_off_c, 0, 85, 67
1, 409033, Note_off_c, 0, 80, 65
1, 409065, Note_on_c, 0, 49, 86
1, 409074, Note_on_c, 0, 37, 69
1, 409089, Note_off_c, 0, 49, 66
1, 409100, Note_off_c, 0, 37, 63
1, 409144, Note_on_c, 0, 49, 80
1, 409159, Note_on_c, 0, 37, 80
1, 409223, Note_on_c, 0, 56, 80
1, 409230, Note_off_c, 0, 49, 60
1, 409234, Note_off_c, 0, 37, 60
1, 409246, Note_on_c, 0, 65, 48
1, 409247, Note_on_c, 0, 59, 45
1, 409247, Note_off_c, 0, 56, 66
1, 409276, Note_off_c, 0, 65, 56
1, 409277, Note_off_c, 0, 59, 54
1, 409313, Note_on_c, 0, 56, 78
1, 409315, Note_on_c, 0, 65, 64
1, 409321, Control_c, 0, 64, 124
1, 409327, Note_on_c, 0, 59, 65
1, 409336, Control_c, 0, 64, 106
1, 409351, Control_c, 0, 64, 97
1, 409363, Note_on_c, 0, 50, 77
1, 409364, Note_on_c, 0, 38, 76
1, 409365, Control_c, 0, 64, 87
1, 409374, Note_off_c, 0, 65, 58
1, 409380, Control_c, 0, 64, 75
1, 409387, Note_off_c, 0, 59, 59
1, 409388, Note_off_c, 0, 56, 59
1, 409391, Note_off_c, 0, 50, 69
1, 409395, Note_off_c, 0, 38, 65
1, 409395, Control_c, 0, 64, 59
1, 409410, Control_c, 0, 64, 0
1, 409449, Note_on_c, 0, 50, 79
1, 409456, Note_on_c, 0, 38, 75
1, 409513, Control_c, 0, 64, 48
1, 409528, Control_c, 0, 64, 65
1, 409533, Note_on_c, 0, 66, 65
1, 409540, Note_on_c, 0, 57, 59
1, 409543, Control_c, 0, 64, 76
1, 409551, Note_on_c, 0, 61, 21
1, 409554, Note_off_c, 0, 66, 66
1, 409555, Note_off_c, 0, 38, 60
1, 409557, Control_c, 0, 64, 89
1, 409564, Note_off_c, 0, 57, 62
1, 409572, Control_c, 0, 64, 110
1, 409577, Note_off_c, 0, 50, 60
1, 409587, Control_c, 0, 64, 127
1, 409590, Note_on_c, 0, 60, 18
1, 409596, Poly_aftertouch_c, 0, 39, 127
1, 409597, Note_off_c, 0, 61, 52
1, 409617, Note_on_c, 0, 66, 76
1, 409620, Note_on_c, 0, 57, 55
1, 409647, Note_off_c, 0, 57, 64
1, 409648, Poly_aftertouch_c, 0, 39, 0
1, 409655, Note_off_c, 0, 60, 62
1, 409673, Note_off_c, 0, 66, 62
1, 409678, Note_on_c, 0, 39, 65
1, 409683, Note_on_c, 0, 51, 79
1, 409709, Note_off_c, 0, 51, 66
1, 409714, Note_off_c, 0, 39, 59
1, 409769, Note_on_c, 0, 51, 81
1, 409773, Note_on_c, 0, 39, 85
1, 409846, Note_on_c, 0, 78, 78
1, 409854, Note_on_c, 0, 72, 66
1, 409855, Note_on_c, 0, 69, 61
1, 409865, Note_off_c, 0, 78, 69
1, 409879, Note_off_c, 0, 72, 65
1, 409880, Note_off_c, 0, 69, 65
1, 409897, Note_off_c, 0, 51, 61
1, 409904, Note_off_c, 0, 39, 57
1, 409934, Note_on_c, 0, 78, 80
1, 409937, Note_on_c, 0, 69, 70
1, 409944, Note_on_c, 0, 72, 57
1, 409963, Note_off_c, 0, 69, 68
1, 409974, Note_off_c, 0, 72, 65
1, 409992, Note_on_c, 0, 50, 83
1, 410001, Note_on_c, 0, 38, 70
1, 410002, Note_off_c, 0, 78, 62
1, 410023, Note_off_c, 0, 50, 63
1, 410030, Note_off_c, 0, 38, 63
1, 410096, Note_on_c, 0, 50, 91
1, 410097, Note_on_c, 0, 38, 81
1, 410139, Note_on_c, 0, 90, 87
1, 410144, Note_on_c, 0, 81, 69
1, 410145, Note_on_c, 0, 84, 70
1, 410156, Note_off_c, 0, 90, 74
1, 410167, Note_off_c, 0, 81, 68
1, 410167, Note_off_c, 0, 84, 71
1, 410204, Note_off_c, 0, 50, 64
1, 410206, Note_off_c, 0, 38, 59
1, 410207, Note_on_c, 0, 90, 93
1, 410207, Note_on_c, 0, 39, 5
1, 410219, Note_on_c, 0, 81, 75
1, 410223, Note_on_c, 0, 84, 80
1, 410242, Note_off_c, 0, 84, 72
1, 410243, Note_off_c, 0, 90, 67
1, 410248, Note_off_c, 0, 39, 50
1, 410249, Note_off_c, 0, 81, 62
1, 410293, Note_on_c, 0, 49, 89
1, 410302, Note_on_c, 0, 37, 70
1, 410321, Note_off_c, 0, 49, 63
1, 410332, Note_off_c, 0, 37, 65
1, 410398, Note_on_c, 0, 49, 89
1, 410398, Note_on_c, 0, 37, 84
1, 410429, Note_on_c, 0, 57, 73
1, 410431, Note_on_c, 0, 60, 72
1, 410433, Note_on_c, 0, 66, 58
1, 410454, Note_off_c, 0, 57, 66
1, 410454, Note_off_c, 0, 66, 62
1, 410464, Note_off_c, 0, 60, 64
1, 410489, Note_off_c, 0, 49, 62
1, 410496, Note_off_c, 0, 37, 57
1, 410511, Note_on_c, 0, 66, 81
1, 410531, Note_on_c, 0, 57, 67
1, 410533, Note_on_c, 0, 60, 59
1, 410584, Note_off_c, 0, 60, 60
1, 410586, Note_off_c, 0, 57, 49
1, 410593, Note_on_c, 0, 48, 88
1, 410600, Note_on_c, 0, 36, 77
1, 410621, Note_off_c, 0, 66, 56
1, 410622, Note_off_c, 0, 48, 64
1, 410629, Note_off_c, 0, 36, 61
1, 410656, Control_c, 0, 64, 90
1, 410671, Control_c, 0, 64, 68
1, 410680, Note_on_c, 0, 48, 87
1, 410684, Note_on_c, 0, 36, 81
1, 410685, Control_c, 0, 64, 0
1, 410729, Control_c, 0, 64, 47
1, 410735, Note_on_c, 0, 67, 67
1, 410739, Note_on_c, 0, 58, 72
1, 410739, Note_on_c, 0, 63, 67
1, 410744, Control_c, 0, 64, 72
1, 410759, Control_c, 0, 64, 91
1, 410767, Note_off_c, 0, 58, 64
1, 410767, Note_off_c, 0, 67, 63
1, 410768, Note_off_c, 0, 63, 63
1, 410774, Control_c, 0, 64, 127
1, 410791, Note_off_c, 0, 48, 61
1, 410805, Note_off_c, 0, 36, 59
1, 410812, Note_on_c, 0, 67, 73
1, 410816, Note_on_c, 0, 58, 61
1, 410818, Note_on_c, 0, 63, 67
1, 410839, Note_off_c, 0, 58, 67
1, 410847, Note_off_c, 0, 63, 66
1, 410865, Note_off_c, 0, 67, 63
1, 410889, Note_on_c, 0, 47, 80
1, 410896, Note_on_c, 0, 35, 76
1, 410917, Note_off_c, 0, 47, 67
1, 410924, Note_off_c, 0, 35, 65
1, 410982, Note_on_c, 0, 47, 88
1, 410987, Note_on_c, 0, 35, 80
1, 411028, Note_on_c, 0, 75, 74
1, 411030, Note_on_c, 0, 79, 71
1, 411034, Note_on_c, 0, 70, 70
1, 411050, Note_off_c, 0, 79, 60
1, 411051, Note_off_c, 0, 70, 67
1, 411053, Note_off_c, 0, 75, 66
1, 411102, Note_off_c, 0, 35, 62
1, 411103, Note_on_c, 0, 79, 87
1, 411104, Note_on_c, 0, 70, 81
1, 411107, Note_off_c, 0, 47, 61
1, 411110, Note_on_c, 0, 75, 71
1, 411129, Note_off_c, 0, 70, 67
1, 411152, Note_off_c, 0, 75, 59
1, 411161, Note_off_c, 0, 79, 64
1, 411191, Note_on_c, 0, 46, 93
1, 411198, Note_on_c, 0, 34, 79
1, 411217, Note_off_c, 0, 46, 64
1, 411227, Note_off_c, 0, 34, 64
1, 411289, Note_on_c, 0, 46, 96
1, 411293, Note_on_c, 0, 34, 88
1, 411312, Note_on_c, 0, 91, 90
1, 411317, Note_on_c, 0, 82, 89
1, 411317, Note_on_c, 0, 87, 82
1, 411332, Note_off_c, 0, 91, 65
1, 411334, Note_off_c, 0, 82, 72
1, 411338, Note_off_c, 0, 87, 70
1, 411343, Note_off_c, 0, 34, 56
1, 411347, Note_off_c, 0, 46, 60
1, 411386, Note_on_c, 0, 82, 91
1, 411387, Note_on_c, 0, 91, 84
1, 411388, Note_on_c, 0, 87, 86
1, 411405, Note_off_c, 0, 91, 71
1, 411417, Note_off_c, 0, 87, 64
1, 411421, Note_off_c, 0, 82, 66
1, 411471, Note_on_c, 0, 51, 91
1, 411474, Note_on_c, 0, 39, 80
1, 411494, Note_off_c, 0, 51, 70
1, 411502, Note_off_c, 0, 39, 63
1, 411550, Poly_aftertouch_c, 0, 49, 127
1, 411561, Note_on_c, 0, 39, 83
1, 411563, Note_on_c, 0, 51, 91
1, 411588, Poly_aftertouch_c, 0, 49, 0
1, 411599, Note_on_c, 0, 58, 72
1, 411610, Note_on_c, 0, 67, 52
1, 411617, Note_off_c, 0, 58, 67
1, 411633, Note_off_c, 0, 67, 60
1, 411644, Note_off_c, 0, 51, 63
1, 411652, Note_off_c, 0, 39, 59
1, 411669, Note_on_c, 0, 61, 27
1, 411675, Note_on_c, 0, 67, 73
1, 411676, Note_on_c, 0, 58, 72
1, 411735, Note_off_c, 0, 58, 53
1, 411736, Note_off_c, 0, 67, 57
1, 411747, Note_on_c, 0, 52, 92
1, 411753, Note_on_c, 0, 40, 85
1, 411766, Note_off_c, 0, 61, 49
1, 411777, Note_off_c, 0, 52, 61
1, 411781, Note_off_c, 0, 40, 67
1, 411790, Control_c, 0, 64, 110
1, 411805, Control_c, 0, 64, 85
1, 411820, Control_c, 0, 64, 64
1, 411834, Control_c, 0, 64, 0
1, 411837, Note_on_c, 0, 52, 94
1, 411843, Note_on_c, 0, 40, 85
1, 411897, Note_on_c, 0, 62, 64
1, 411900, Note_on_c, 0, 59, 70
1, 411900, Note_on_c, 0, 68, 63
1, 411908, Control_c, 0, 64, 64
1, 411919, Note_off_c, 0, 68, 64
1, 411923, Control_c, 0, 64, 75
1, 411926, Note_off_c, 0, 59, 63
1, 411927, Note_off_c, 0, 62, 64
1, 411933, Note_off_c, 0, 40, 61
1, 411938, Control_c, 0, 64, 91
1, 411948, Note_off_c, 0, 52, 59
1, 411952, Control_c, 0, 64, 127
1, 411980, Note_on_c, 0, 68, 78
1, 411985, Note_on_c, 0, 59, 51
1, 411985, Note_on_c, 0, 62, 67
1, 412005, Note_off_c, 0, 59, 62
1, 412010, Note_off_c, 0, 62, 67
1, 412043, Note_on_c, 0, 53, 85
1, 412043, Note_off_c, 0, 68, 61
1, 412048, Note_on_c, 0, 41, 74
1, 412066, Note_off_c, 0, 53, 69
1, 412073, Note_off_c, 0, 41, 65
1, 412094, Control_c, 0, 64, 88
1, 412109, Control_c, 0, 64, 0
1, 412121, Note_on_c, 0, 53, 86
1, 412126, Note_on_c, 0, 41, 92
1, 412169, Control_c, 0, 64, 72
1, 412182, Note_on_c, 0, 80, 81
1, 412183, Note_on_c, 0, 74, 75
1, 412183, Control_c, 0, 64, 96
1, 412186, Note_on_c, 0, 71, 74
1, 412198, Control_c, 0, 64, 127
1, 412200, Note_off_c, 0, 80, 69
1, 412207, Note_off_c, 0, 74, 69
1, 412209, Note_off_c, 0, 71, 68
1, 412234, Note_off_c, 0, 53, 61
1, 412245, Note_off_c, 0, 41, 62
1, 412264, Note_on_c, 0, 80, 82
1, 412264, Note_on_c, 0, 71, 69
1, 412268, Note_on_c, 0, 74, 70
1, 412288, Note_off_c, 0, 71, 70
1, 412295, Note_off_c, 0, 74, 69
1, 412321, Note_off_c, 0, 80, 63
1, 412332, Note_on_c, 0, 52, 91
1, 412338, Note_on_c, 0, 40, 84
1, 412347, Control_c, 0, 64, 111
1, 412362, Note_off_c, 0, 52, 63
1, 412362, Control_c, 0, 64, 74
1, 412368, Note_off_c, 0, 40, 66
1, 412376, Control_c, 0, 64, 65
1, 412391, Control_c, 0, 64, 73
1, 412406, Control_c, 0, 64, 92
1, 412421, Control_c, 0, 64, 127
1, 412425, Note_on_c, 0, 52, 94
1, 412428, Note_on_c, 0, 40, 85
1, 412451, Note_on_c, 0, 86, 77
1, 412452, Note_on_c, 0, 92, 73
1, 412460, Note_on_c, 0, 83, 64
1, 412467, Note_off_c, 0, 92, 69
1, 412472, Note_off_c, 0, 86, 71
1, 412477, Note_off_c, 0, 83, 66
1, 412513, Note_on_c, 0, 92, 92
1, 412516, Note_on_c, 0, 83, 75
1, 412518, Note_on_c, 0, 86, 78
1, 412523, Note_off_c, 0, 52, 60
1, 412538, Note_off_c, 0, 40, 61
1, 412541, Note_off_c, 0, 86, 70
1, 412550, Note_on_c, 0, 90, 38
1, 412552, Note_off_c, 0, 92, 63
1, 412553, Note_off_c, 0, 83, 63
1, 412583, Note_off_c, 0, 90, 34
1, 412604, Note_on_c, 0, 51, 90
1, 412609, Note_on_c, 0, 39, 81
1, 412642, Note_off_c, 0, 39, 63
1, 412645, Note_off_c, 0, 51, 60
1, 412714, Note_on_c, 0, 51, 90
1, 412714, Note_on_c, 0, 59, 78
1, 412716, Note_on_c, 0, 39, 85
1, 412719, Note_on_c, 0, 62, 65
1, 412723, Note_on_c, 0, 68, 60
1, 412736, Note_off_c, 0, 59, 68
1, 412744, Note_off_c, 0, 68, 63
1, 412747, Note_off_c, 0, 62, 63
1, 412796, Note_off_c, 0, 51, 62
1, 412797, Note_off_c, 0, 39, 58
1, 412806, Note_on_c, 0, 68, 79
1, 412812, Note_on_c, 0, 62, 71
1, 412815, Note_on_c, 0, 59, 62
1, 412839, Note_off_c, 0, 59, 64
1, 412848, Note_off_c, 0, 62, 59
1, 412872, Note_off_c, 0, 68, 60
1, 412893, Note_on_c, 0, 50, 97
1, 412899, Note_on_c, 0, 38, 87
1, 412932, Note_off_c, 0, 50, 63
1, 412935, Note_off_c, 0, 38, 62
1, 412947, Control_c, 0, 64, 78
1, 412960, Note_on_c, 0, 39, 3
1, 412962, Control_c, 0, 64, 0
1, 412993, Note_on_c, 0, 50, 93
1, 412994, Note_on_c, 0, 38, 80
1, 413006, Control_c, 0, 64, 68
1, 413009, Note_on_c, 0, 71, 73
1, 413009, Note_off_c, 0, 39, 32
1, 413014, Note_on_c, 0, 62, 69
1, 413019, Note_on_c, 0, 68, 55
1, 413021, Control_c, 0, 64, 127
1, 413036, Note_off_c, 0, 71, 63
1, 413040, Note_off_c, 0, 62, 65
1, 413041, Note_off_c, 0, 68, 60
1, 413070, Note_on_c, 0, 39, 31
1, 413083, Note_on_c, 0, 71, 70
1, 413085, Note_off_c, 0, 50, 60
1, 413091, Note_off_c, 0, 38, 61
1, 413097, Note_on_c, 0, 68, 67
1, 413098, Note_on_c, 0, 62, 50
1, 413108, Note_off_c, 0, 39, 50
1, 413117, Note_off_c, 0, 62, 65
1, 413122, Note_off_c, 0, 68, 67
1, 413132, Note_off_c, 0, 71, 67
1, 413171, Note_on_c, 0, 49, 95
1, 413176, Note_on_c, 0, 37, 82
1, 413202, Note_off_c, 0, 49, 60
1, 413206, Note_off_c, 0, 37, 66
1, 413256, Poly_aftertouch_c, 0, 39, 127
1, 413265, Note_on_c, 0, 49, 100
1, 413270, Note_on_c, 0, 37, 91
1, 413287, Note_on_c, 0, 83, 71
1, 413290, Note_on_c, 0, 80, 62
1, 413292, Note_on_c, 0, 74, 73
1, 413297, Poly_aftertouch_c, 0, 39, 0
1, 413308, Note_off_c, 0, 80, 66
1, 413310, Note_off_c, 0, 83, 70
1, 413320, Note_off_c, 0, 74, 64
1, 413348, Note_off_c, 0, 37, 60
1, 413353, Note_off_c, 0, 49, 59
1, 413355, Note_on_c, 0, 83, 83
1, 413355, Note_on_c, 0, 74, 70
1, 413365, Note_on_c, 0, 80, 83
1, 413379, Note_off_c, 0, 74, 69
1, 413407, Note_off_c, 0, 80, 63
1, 413411, Note_off_c, 0, 83, 67
1, 413433, Note_on_c, 0, 48, 99
1, 413441, Note_on_c, 0, 36, 89
1, 413475, Note_off_c, 0, 48, 64
1, 413480, Note_off_c, 0, 36, 60
1, 413546, Note_on_c, 0, 48, 101
1, 413552, Note_on_c, 0, 36, 88
1, 413564, Note_on_c, 0, 95, 77
1, 413571, Note_on_c, 0, 86, 64
1, 413572, Note_on_c, 0, 92, 49
1, 413573, Note_off_c, 0, 92, 127
1, 413581, Note_off_c, 0, 95, 70
1, 413608, Note_off_c, 0, 86, 0
1, 413611, Poly_aftertouch_c, 0, 37, 0
1, 413620, Note_on_c, 0, 86, 70
1, 413621, Note_on_c, 0, 95, 98
1, 413628, Note_on_c, 0, 92, 85
1, 413632, Note_off_c, 0, 48, 59
1, 413648, Note_off_c, 0, 36, 62
1, 413648, Poly_aftertouch_c, 0, 37, 127
1, 413653, Note_off_c, 0, 95, 64
1, 413659, Note_off_c, 0, 86, 63
1, 413665, Note_off_c, 0, 92, 63
1, 413704, Poly_aftertouch_c, 0, 37, 0
1, 413718, Note_on_c, 0, 47, 96
1, 413724, Note_on_c, 0, 35, 87
1, 413750, Note_off_c, 0, 35, 69
1, 413751, Note_off_c, 0, 47, 65
1, 413814, Note_on_c, 0, 47, 98
1, 413820, Note_on_c, 0, 35, 87
1, 413827, Note_on_c, 0, 71, 79
1, 413836, Note_on_c, 0, 62, 71
1, 413851, Note_off_c, 0, 71, 65
1, 413858, Note_off_c, 0, 35, 64
1, 413860, Note_off_c, 0, 62, 67
1, 413864, Note_on_c, 0, 67, 12
1, 413866, Note_off_c, 0, 47, 65
1, 413910, Note_on_c, 0, 71, 74
1, 413912, Note_on_c, 0, 68, 70
1, 413912, Note_off_c, 0, 67, 40
1, 413928, Note_on_c, 0, 62, 58
1, 413962, Note_off_c, 0, 62, 58
1, 413978, Note_off_c, 0, 68, 55
1, 413990, Note_off_c, 0, 71, 63
1, 414002, Note_on_c, 0, 52, 100
1, 414006, Note_on_c, 0, 40, 92
1, 414039, Note_off_c, 0, 40, 66
1, 414039, Note_off_c, 0, 52, 64
1, 414081, Control_c, 0, 64, 99
1, 414096, Control_c, 0, 64, 75
1, 414111, Control_c, 0, 64, 0
1, 414112, Poly_aftertouch_c, 0, 46, 0
1, 414113, Note_on_c, 0, 52, 106
1, 414120, Note_on_c, 0, 40, 93
1, 414213, Note_on_c, 0, 62, 88
1, 414213, Note_on_c, 0, 71, 82
1, 414219, Note_on_c, 0, 68, 70
1, 414235, Note_off_c, 0, 62, 66
1, 414240, Note_off_c, 0, 71, 61
1, 414243, Note_on_c, 0, 74, 34
1, 414243, Note_off_c, 0, 68, 67
1, 414244, Control_c, 0, 64, 80
1, 414259, Control_c, 0, 64, 127
1, 414279, Note_off_c, 0, 40, 58
1, 414282, Note_off_c, 0, 52, 61
1, 414284, Note_off_c, 0, 74, 0
1, 414303, Note_on_c, 0, 62, 78
1, 414304, Note_on_c, 0, 74, 59
1, 414305, Note_on_c, 0, 68, 76
1, 414308, Note_on_c, 0, 71, 74
1, 414346, Note_off_c, 0, 62, 58
1, 414371, Note_off_c, 0, 68, 62
1, 414374, Note_off_c, 0, 71, 63
1, 414379, Note_on_c, 0, 53, 94
1, 414384, Note_on_c, 0, 41, 85
1, 414389, Note_off_c, 0, 74, 65
1, 414416, Note_off_c, 0, 41, 66
1, 414417, Note_off_c, 0, 53, 64
1, 414474, Control_c, 0, 64, 122
1, 414481, Note_on_c, 0, 53, 104
1, 414486, Note_on_c, 0, 41, 96
1, 414489, Control_c, 0, 64, 94
1, 414503, Control_c, 0, 64, 84
1, 414533, Control_c, 0, 64, 89
1, 414544, Note_on_c, 0, 83, 86
1, 414546, Note_on_c, 0, 74, 92
1, 414548, Control_c, 0, 64, 104
1, 414559, Note_on_c, 0, 86, 62
1, 414563, Note_off_c, 0, 74, 74
1, 414563, Note_off_c, 0, 83, 68
1, 414563, Control_c, 0, 64, 127
1, 414575, Note_off_c, 0, 86, 66
1, 414596, Note_off_c, 0, 53, 61
1, 414601, Note_off_c, 0, 41, 59
1, 414619, Note_on_c, 0, 80, 40
1, 414622, Note_on_c, 0, 74, 96
1, 414628, Note_on_c, 0, 83, 84
1, 414631, Note_on_c, 0, 86, 83
1, 414661, Note_off_c, 0, 74, 66
1, 414685, Note_off_c, 0, 83, 65
1, 414691, Note_on_c, 0, 52, 92
1, 414691, Note_off_c, 0, 80, 63
1, 414696, Note_off_c, 0, 86, 65
1, 414697, Note_on_c, 0, 40, 84
1, 414721, Note_off_c, 0, 40, 69
1, 414723, Note_off_c, 0, 52, 65
1, 414786, Note_on_c, 0, 52, 98
1, 414793, Note_on_c, 0, 40, 89
1, 414832, Note_on_c, 0, 95, 93
1, 414835, Note_on_c, 0, 86, 86
1, 414842, Note_on_c, 0, 92, 55
1, 414843, Note_off_c, 0, 92, 127
1, 414848, Note_off_c, 0, 95, 76
1, 414851, Note_off_c, 0, 86, 74
1, 414878, Note_off_c, 0, 52, 61
1, 414883, Note_off_c, 0, 40, 64
1, 414887, Note_on_c, 0, 98, 11
1, 414893, Note_on_c, 0, 86, 94
1, 414896, Note_on_c, 0, 95, 95
1, 414910, Note_on_c, 0, 92, 87
1, 414917, Note_off_c, 0, 98, 67
1, 414929, Note_off_c, 0, 92, 71
1, 414933, Note_off_c, 0, 95, 63
1, 414934, Note_off_c, 0, 86, 67
1, 414962, Note_on_c, 0, 51, 101
1, 414966, Note_on_c, 0, 39, 87
1, 415003, Note_off_c, 0, 39, 59
1, 415003, Note_off_c, 0, 51, 62
1, 415077, Note_on_c, 0, 51, 96
1, 415080, Note_on_c, 0, 39, 88
1, 415099, Note_on_c, 0, 62, 80
1, 415102, Note_on_c, 0, 71, 70
1, 415113, Note_on_c, 0, 68, 55
1, 415122, Note_off_c, 0, 62, 67
1, 415128, Note_off_c, 0, 71, 66
1, 415135, Note_off_c, 0, 68, 62
1, 415152, Note_off_c, 0, 51, 60
1, 415153, Note_off_c, 0, 39, 59
1, 415166, Note_on_c, 0, 62, 90
1, 415171, Note_on_c, 0, 71, 67
1, 415177, Note_on_c, 0, 74, 65
1, 415188, Note_on_c, 0, 68, 68
1, 415233, Note_off_c, 0, 62, 55
1, 415241, Note_on_c, 0, 50, 93
1, 415246, Note_on_c, 0, 38, 89
1, 415254, Note_off_c, 0, 74, 64
1, 415255, Note_off_c, 0, 71, 60
1, 415265, Note_off_c, 0, 68, 58
1, 415269, Note_off_c, 0, 50, 67
1, 415278, Note_off_c, 0, 38, 65
1, 415298, Control_c, 0, 64, 101
1, 415300, Note_on_c, 0, 39, 3
1, 415313, Control_c, 0, 64, 61
1, 415319, Note_off_c, 0, 39, 54
1, 415327, Control_c, 0, 64, 0
1, 415334, Note_on_c, 0, 50, 98
1, 415339, Note_on_c, 0, 38, 91
1, 415368, Note_on_c, 0, 71, 80
1, 415372, Control_c, 0, 64, 49
1, 415374, Note_on_c, 0, 65, 82
1, 415376, Note_on_c, 0, 68, 69
1, 415387, Control_c, 0, 64, 79
1, 415393, Note_off_c, 0, 65, 72
1, 415394, Note_on_c, 0, 72, 43
1, 415395, Note_off_c, 0, 72, 127
1, 415397, Note_off_c, 0, 68, 61
1, 415401, Control_c, 0, 64, 127
1, 415409, Note_off_c, 0, 71, 65
1, 415412, Note_on_c, 0, 39, 34
1, 415420, Note_off_c, 0, 50, 63
1, 415422, Note_off_c, 0, 38, 62
1, 415447, Note_on_c, 0, 71, 74
1, 415448, Note_on_c, 0, 65, 94
1, 415448, Note_on_c, 0, 68, 82
1, 415456, Note_off_c, 0, 39, 50
1, 415457, Note_on_c, 0, 77, 64
1, 415483, Note_off_c, 0, 65, 62
1, 415497, Note_off_c, 0, 68, 62
1, 415505, Note_on_c, 0, 49, 103
1, 415507, Note_off_c, 0, 71, 67
1, 415512, Note_on_c, 0, 37, 83
1, 415516, Note_off_c, 0, 77, 65
1, 415532, Note_off_c, 0, 49, 63
1, 415534, Control_c, 0, 64, 83
1, 415540, Note_off_c, 0, 37, 67
1, 415549, Control_c, 0, 64, 0
1, 415594, Control_c, 0, 64, 62
1, 415597, Note_on_c, 0, 49, 112
1, 415601, Note_on_c, 0, 37, 96
1, 415608, Control_c, 0, 64, 89
1, 415623, Control_c, 0, 64, 127
1, 415646, Note_on_c, 0, 80, 89
1, 415649, Note_on_c, 0, 77, 85
1, 415652, Note_on_c, 0, 89, 81
1, 415663, Note_off_c, 0, 80, 72
1, 415666, Note_off_c, 0, 77, 74
1, 415668, Note_off_c, 0, 89, 67
1, 415685, Note_off_c, 0, 37, 65
1, 415689, Note_off_c, 0, 49, 65
1, 415718, Note_on_c, 0, 77, 91
1, 415718, Note_on_c, 0, 89, 94
1, 415719, Note_on_c, 0, 80, 90
1, 415755, Note_off_c, 0, 77, 61
1, 415775, Note_off_c, 0, 80, 65
1, 415785, Note_off_c, 0, 89, 65
1, 415787, Note_on_c, 0, 48, 100
1, 415793, Note_on_c, 0, 36, 90
1, 415823, Note_off_c, 0, 48, 63
1, 415827, Note_off_c, 0, 36, 62
1, 415873, Poly_aftertouch_c, 0, 42, 127
1, 415894, Note_on_c, 0, 48, 108
1, 415902, Note_on_c, 0, 36, 96
1, 415924, Poly_aftertouch_c, 0, 42, 0
1, 415938, Note_on_c, 0, 89, 96
1, 415942, Note_on_c, 0, 92, 97
1, 415942, Note_on_c, 0, 101, 100
1, 415960, Note_off_c, 0, 89, 63
1, 415963, Note_off_c, 0, 101, 68
1, 415963, Note_off_c, 0, 92, 68
1, 415969, Note_on_c, 0, 99, 43
1, 415970, Note_off_c, 0, 99, 127
1, 415996, Note_off_c, 0, 36, 61
1, 415996, Note_off_c, 0, 48, 63
1, 416026, Note_on_c, 0, 89, 105
1, 416029, Note_on_c, 0, 101, 97
1, 416031, Note_on_c, 0, 92, 99
1, 416054, Note_on_c, 0, 100, 52
1, 416055, Note_off_c, 0, 100, 127
1, 416108, Note_on_c, 0, 47, 101
1, 416111, Note_on_c, 0, 35, 93
1, 416136, Note_off_c, 0, 35, 71
1, 416145, Note_off_c, 0, 47, 67
1, 416166, Note_off_c, 0, 101, 53
1, 416177, Note_off_c, 0, 92, 63
1, 416185, Note_off_c, 0, 89, 56
1, 416210, Control_c, 0, 64, 86
1, 416224, Control_c, 0, 64, 0
1, 416251, Note_on_c, 0, 60, 105
1, 416254, Control_c, 0, 64, 65
1, 416263, Note_on_c, 0, 47, 77
1, 416264, Note_on_c, 0, 48, 76
1, 416268, Control_c, 0, 64, 127
1, 416277, Note_off_c, 0, 60, 66
1, 416287, Note_on_c, 0, 49, 42
1, 416289, Note_off_c, 0, 47, 62
1, 416291, Note_off_c, 0, 48, 65
1, 416309, Note_on_c, 0, 89, 99
1, 416311, Note_on_c, 0, 98, 94
1, 416315, Note_off_c, 0, 49, 58
1, 416320, Note_on_c, 0, 101, 88
1, 416329, Note_off_c, 0, 98, 74
1, 416332, Note_off_c, 0, 89, 65
1, 416338, Note_off_c, 0, 101, 73
1, 416381, Note_on_c, 0, 89, 94
1, 416389, Note_on_c, 0, 98, 92
1, 416412, Note_on_c, 0, 101, 26
1, 416419, Note_off_c, 0, 98, 61
1, 416437, Note_off_c, 0, 89, 65
1, 416439, Note_off_c, 0, 101, 56
1, 416460, Note_on_c, 0, 46, 97
1, 416464, Note_on_c, 0, 34, 89
1, 416488, Note_off_c, 0, 46, 64
1, 416490, Note_off_c, 0, 34, 65
1, 416557, Control_c, 0, 64, 107
1, 416572, Control_c, 0, 64, 69
1, 416586, Note_on_c, 0, 58, 109
1, 416587, Control_c, 0, 64, 0
1, 416589, Note_on_c, 0, 46, 98
1, 416615, Note_off_c, 0, 46, 63
1, 416617, Note_off_c, 0, 58, 61
1, 416617, Control_c, 0, 64, 68
1, 416624, Note_on_c, 0, 49, 40
1, 416625, Note_off_c, 0, 49, 127
1, 416631, Control_c, 0, 64, 96
1, 416644, Note_on_c, 0, 86, 93
1, 416646, Control_c, 0, 64, 127
1, 416652, Note_on_c, 0, 77, 79
1, 416663, Poly_aftertouch_c, 0, 49, 0
1, 416663, Note_off_c, 0, 86, 68
1, 416666, Note_on_c, 0, 89, 53
1, 416672, Note_off_c, 0, 77, 70
1, 416687, Note_off_c, 0, 89, 60
1, 416713, Note_on_c, 0, 77, 100
1, 416723, Note_on_c, 0, 86, 78
1, 416743, Note_off_c, 0, 86, 71
1, 416762, Note_off_c, 0, 77, 67
1, 416783, Note_on_c, 0, 47, 83
1, 416784, Note_on_c, 0, 33, 63
1, 416794, Note_on_c, 0, 45, 53
1, 416795, Note_off_c, 0, 45, 127
1, 416810, Note_on_c, 0, 35, 35
1, 416810, Note_off_c, 0, 47, 68
1, 416812, Note_off_c, 0, 33, 57
1, 416854, Note_off_c, 0, 35, 47
1, 416854, Control_c, 0, 64, 102
1, 416869, Control_c, 0, 64, 78
1, 416884, Note_on_c, 0, 47, 77
1, 416884, Note_on_c, 0, 57, 93
1, 416884, Control_c, 0, 64, 65
1, 416899, Control_c, 0, 64, 67
1, 416903, Note_off_c, 0, 57, 69
1, 416907, Note_off_c, 0, 47, 71
1, 416914, Control_c, 0, 64, 76
1, 416929, Control_c, 0, 64, 104
1, 416938, Note_on_c, 0, 65, 77
1, 416941, Note_on_c, 0, 74, 59
1, 416944, Control_c, 0, 64, 127
1, 416965, Note_off_c, 0, 65, 66
1, 416971, Note_off_c, 0, 74, 67
1, 417006, Note_on_c, 0, 65, 76
1, 417015, Note_on_c, 0, 77, 74
1, 417019, Note_on_c, 0, 74, 85
1, 417035, Note_off_c, 0, 65, 66
1, 417040, Note_off_c, 0, 74, 73
1, 417054, Note_off_c, 0, 77, 65
1, 417072, Note_on_c, 0, 44, 93
1, 417084, Note_on_c, 0, 32, 57
1, 417090, Note_on_c, 0, 34, 50
1, 417094, Note_off_c, 0, 44, 65
1, 417109, Note_on_c, 0, 46, 31
1, 417110, Note_off_c, 0, 46, 127
1, 417114, Note_off_c, 0, 32, 55
1, 417121, Control_c, 0, 64, 90
1, 417122, Note_off_c, 0, 34, 55
1, 417136, Control_c, 0, 64, 66
1, 417151, Control_c, 0, 64, 61
1, 417165, Control_c, 0, 64, 69
1, 417177, Note_on_c, 0, 56, 105
1, 417180, Control_c, 0, 64, 82
1, 417185, Note_on_c, 0, 46, 83
1, 417195, Control_c, 0, 64, 127
1, 417197, Note_off_c, 0, 56, 68
1, 417200, Note_on_c, 0, 45, 59
1, 417202, Note_off_c, 0, 46, 68
1, 417227, Note_off_c, 0, 45, 59
1, 417240, Note_on_c, 0, 86, 83
1, 417244, Note_on_c, 0, 77, 93
1, 417272, Note_off_c, 0, 86, 65
1, 417273, Note_on_c, 0, 89, 54
1, 417278, Note_off_c, 0, 77, 61
1, 417297, Note_off_c, 0, 89, 37
1, 417314, Note_on_c, 0, 77, 70
1, 417322, Note_on_c, 0, 86, 82
1, 417327, Note_on_c, 0, 89, 82
1, 417341, Note_off_c, 0, 77, 69
1, 417355, Note_off_c, 0, 86, 68
1, 417365, Note_off_c, 0, 89, 65
1, 417389, Note_on_c, 0, 43, 98
1, 417392, Note_on_c, 0, 31, 88
1, 417414, Note_off_c, 0, 31, 63
1, 417419, Note_off_c, 0, 43, 67
1, 417477, Poly_aftertouch_c, 0, 33, 0
1, 417490, Note_on_c, 0, 55, 107
1, 417497, Note_on_c, 0, 43, 90
1, 417516, Note_off_c, 0, 55, 64
1, 417523, Note_off_c, 0, 43, 66
1, 417534, Poly_aftertouch_c, 0, 33, 0
1, 417560, Note_on_c, 0, 89, 92
1, 417560, Note_on_c, 0, 98, 96
1, 417578, Note_off_c, 0, 89, 69
1, 417579, Note_on_c, 0, 101, 63
1, 417579, Note_off_c, 0, 98, 69
1, 417602, Note_off_c, 0, 101, 62
1, 417627, Note_on_c, 0, 89, 98
1, 417637, Note_on_c, 0, 98, 84
1, 417659, Note_off_c, 0, 98, 69
1, 417666, Note_on_c, 0, 101, 33
1, 417677, Note_off_c, 0, 89, 65
1, 417705, Note_on_c, 0, 42, 100
1, 417706, Note_off_c, 0, 101, 30
1, 417707, Control_c, 0, 64, 89
1, 417708, Note_on_c, 0, 30, 87
1, 417722, Control_c, 0, 64, 0
1, 417725, Note_off_c, 0, 42, 72
1, 417739, Note_off_c, 0, 30, 63
1, 417766, Control_c, 0, 64, 127
1, 417814, Note_on_c, 0, 54, 100
1, 417817, Note_on_c, 0, 42, 47
1, 417819, Note_on_c, 0, 44, 96
1, 417835, Note_off_c, 0, 54, 67
1, 417839, Note_off_c, 0, 44, 64
1, 417844, Note_off_c, 0, 42, 64
1, 417858, Poly_aftertouch_c, 0, 86, 127
1, 417872, Note_on_c, 0, 56, 36
1, 417877, Note_on_c, 0, 86, 40
1, 417884, Note_on_c, 0, 78, 95
1, 417889, Note_on_c, 0, 90, 85
1, 417910, Note_off_c, 0, 78, 59
1, 417917, Note_off_c, 0, 90, 58
1, 417925, Note_off_c, 0, 86, 64
1, 417927, Note_off_c, 0, 56, 46
1, 417962, Note_on_c, 0, 78, 96
1, 417968, Poly_aftertouch_c, 0, 86, 0
1, 417972, Note_on_c, 0, 90, 72
1, 417973, Note_on_c, 0, 86, 55
1, 417988, Note_off_c, 0, 90, 66
1, 417999, Note_off_c, 0, 86, 66
1, 418026, Note_off_c, 0, 78, 65
1, 418067, Note_on_c, 0, 41, 98
1, 418070, Note_on_c, 0, 29, 95
1, 418089, Note_off_c, 0, 41, 70
1, 418097, Note_off_c, 0, 29, 66
1, 418185, Note_on_c, 0, 53, 102
1, 418187, Note_on_c, 0, 41, 82
1, 418205, Note_off_c, 0, 53, 73
1, 418213, Note_off_c, 0, 41, 68
1, 418218, Note_on_c, 0, 42, 42
1, 418249, Note_off_c, 0, 42, 55
1, 418264, Note_on_c, 0, 66, 104
1, 418270, Note_on_c, 0, 74, 82
1, 418270, Note_on_c, 0, 78, 88
1, 418300, Note_off_c, 0, 66, 64
1, 418309, Note_off_c, 0, 74, 55
1, 418315, Note_off_c, 0, 78, 59
1, 418354, Note_on_c, 0, 66, 103
1, 418354, Note_on_c, 0, 78, 79
1, 418360, Note_on_c, 0, 74, 74
1, 418428, Note_off_c, 0, 74, 60
1, 418452, Note_off_c, 0, 66, 56
1, 418463, Note_on_c, 0, 40, 102
1, 418466, Note_on_c, 0, 28, 94
1, 418491, Note_off_c, 0, 28, 69
1, 418498, Note_off_c, 0, 40, 66
1, 418530, Note_off_c, 0, 78, 35
1, 418625, Note_on_c, 0, 52, 107
1, 418631, Note_on_c, 0, 40, 96
1, 418669, Note_on_c, 0, 42, 32
1, 418677, Control_c, 0, 64, 93
1, 418692, Control_c, 0, 64, 66
1, 418699, Note_off_c, 0, 42, 56
1, 418707, Control_c, 0, 64, 0
1, 418724, Poly_aftertouch_c, 0, 46, 0
1, 418743, Note_on_c, 0, 67, 99
1, 418745, Note_on_c, 0, 79, 94
1, 418747, Note_on_c, 0, 70, 90
1, 418750, Note_on_c, 0, 73, 82
1, 418795, Note_off_c, 0, 67, 61
1, 418807, Note_off_c, 0, 79, 61
1, 418814, Note_off_c, 0, 70, 63
1, 418820, Note_off_c, 0, 73, 63
1, 418871, Note_on_c, 0, 67, 108
1, 418874, Note_on_c, 0, 70, 99
1, 418875, Note_on_c, 0, 73, 91
1, 418876, Note_on_c, 0, 79, 98
1, 418892, Control_c, 0, 64, 60
1, 418907, Control_c, 0, 64, 127
1, 418917, Note_off_c, 0, 79, 63
1, 418919, Note_off_c, 0, 67, 65
1, 418932, Note_off_c, 0, 73, 66
1, 418933, Note_off_c, 0, 70, 67
1, 419119, Note_off_c, 0, 40, 53
1, 419159, Note_off_c, 0, 52, 61
1, 419456, Control_c, 0, 64, 106
1, 419471, Control_c, 0, 64, 91
1, 419485, Control_c, 0, 64, 75
1, 419500, Control_c, 0, 64, 59
1, 419522, Control_c, 0, 64, 0
1, 420112, Note_on_c, 0, 63, 80
1, 420115, Note_on_c, 0, 51, 84
1, 420115, Note_on_c, 0, 39, 85
1, 420121, Note_on_c, 0, 27, 82
1, 420175, Control_c, 0, 64, 33
1, 420190, Control_c, 0, 64, 61
1, 420205, Control_c, 0, 64, 68
1, 420220, Control_c, 0, 64, 74
1, 420234, Control_c, 0, 64, 79
1, 420249, Control_c, 0, 64, 84
1, 420271, Control_c, 0, 64, 88
1, 420286, Control_c, 0, 64, 92
1, 420289, Note_off_c, 0, 51, 64
1, 420301, Control_c, 0, 64, 96
1, 420306, Note_off_c, 0, 39, 60
1, 420316, Control_c, 0, 64, 98
1, 420330, Control_c, 0, 64, 100
1, 420337, Note_off_c, 0, 27, 51
1, 420345, Control_c, 0, 64, 101
1, 420353, Note_on_c, 0, 52, 82
1, 420353, Note_on_c, 0, 64, 81
1, 420355, Note_on_c, 0, 40, 73
1, 420360, Note_on_c, 0, 28, 71
1, 420360, Control_c, 0, 64, 104
1, 420375, Control_c, 0, 64, 109
1, 420390, Control_c, 0, 64, 116
1, 420400, Note_off_c, 0, 52, 61
1, 420402, Note_off_c, 0, 63, 52
1, 420404, Control_c, 0, 64, 127
1, 420413, Note_off_c, 0, 28, 59
1, 420417, Note_off_c, 0, 40, 61
1, 420420, Note_off_c, 0, 64, 64
1, 420517, Note_on_c, 0, 43, 80
1, 420519, Note_on_c, 0, 55, 78
1, 420519, Note_on_c, 0, 67, 79
1, 420522, Note_on_c, 0, 31, 73
1, 420544, Note_off_c, 0, 55, 66
1, 420545, Note_off_c, 0, 43, 65
1, 420547, Note_off_c, 0, 67, 61
1, 420552, Note_off_c, 0, 31, 64
1, 420650, Note_on_c, 0, 46, 82
1, 420653, Note_on_c, 0, 34, 71
1, 420655, Note_on_c, 0, 70, 80
1, 420660, Note_on_c, 0, 58, 78
1, 420674, Note_off_c, 0, 46, 64
1, 420679, Note_off_c, 0, 70, 64
1, 420681, Note_off_c, 0, 58, 70
1, 420683, Note_off_c, 0, 34, 62
1, 420771, Note_on_c, 0, 49, 86
1, 420772, Note_on_c, 0, 73, 88
1, 420774, Note_on_c, 0, 37, 74
1, 420777, Note_on_c, 0, 61, 78
1, 420801, Note_off_c, 0, 49, 64
1, 420803, Note_off_c, 0, 73, 57
1, 420804, Note_off_c, 0, 61, 67
1, 420805, Note_off_c, 0, 37, 64
1, 420834, Control_c, 0, 64, 111
1, 420849, Control_c, 0, 64, 84
1, 420864, Control_c, 0, 64, 70
1, 420878, Control_c, 0, 64, 69
1, 420879, Note_on_c, 0, 50, 77
1, 420883, Note_on_c, 0, 38, 69
1, 420883, Note_on_c, 0, 62, 84
1, 420883, Note_on_c, 0, 74, 84
1, 420893, Control_c, 0, 64, 76
1, 420903, Note_off_c, 0, 62, 69
1, 420905, Note_off_c, 0, 50, 68
1, 420908, Control_c, 0, 64, 89
1, 420911, Note_off_c, 0, 74, 60
1, 420913, Note_off_c, 0, 38, 63
1, 420923, Control_c, 0, 64, 127
1, 420964, Poly_aftertouch_c, 0, 73, 127
1, 420985, Note_on_c, 0, 39, 62
1, 420991, Poly_aftertouch_c, 0, 73, 0
1, 420992, Note_on_c, 0, 51, 81
1, 420994, Note_on_c, 0, 63, 83
1, 420996, Note_on_c, 0, 75, 76
1, 421023, Note_off_c, 0, 63, 68
1, 421024, Note_off_c, 0, 51, 69
1, 421025, Note_off_c, 0, 39, 61
1, 421025, Note_off_c, 0, 75, 66
1, 421100, Note_on_c, 0, 52, 78
1, 421102, Note_on_c, 0, 40, 77
1, 421104, Note_on_c, 0, 64, 88
1, 421108, Note_on_c, 0, 76, 83
1, 421122, Note_off_c, 0, 64, 73
1, 421125, Note_off_c, 0, 40, 63
1, 421125, Note_off_c, 0, 52, 65
1, 421131, Note_off_c, 0, 76, 67
1, 421210, Note_on_c, 0, 43, 79
1, 421212, Note_on_c, 0, 67, 91
1, 421214, Note_on_c, 0, 55, 80
1, 421217, Note_on_c, 0, 79, 83
1, 421232, Note_off_c, 0, 43, 66
1, 421233, Note_off_c, 0, 67, 65
1, 421235, Note_off_c, 0, 79, 71
1, 421236, Note_off_c, 0, 55, 69
1, 421316, Note_on_c, 0, 58, 87
1, 421319, Note_on_c, 0, 46, 72
1, 421323, Note_on_c, 0, 82, 89
1, 421325, Note_on_c, 0, 70, 87
1, 421332, Note_off_c, 0, 58, 72
1, 421342, Note_off_c, 0, 82, 65
1, 421343, Note_off_c, 0, 70, 70
1, 421344, Note_off_c, 0, 46, 65
1, 421421, Note_on_c, 0, 61, 94
1, 421424, Note_on_c, 0, 49, 83
1, 421426, Note_on_c, 0, 73, 94
1, 421428, Note_on_c, 0, 85, 90
1, 421445, Note_off_c, 0, 61, 64
1, 421457, Note_off_c, 0, 49, 66
1, 421459, Note_off_c, 0, 73, 56
1, 421466, Note_off_c, 0, 85, 59
1, 421524, Note_on_c, 0, 62, 92
1, 421531, Note_on_c, 0, 50, 78
1, 421531, Note_on_c, 0, 74, 99
1, 421534, Note_on_c, 0, 86, 87
1, 421549, Note_off_c, 0, 62, 62
1, 421550, Note_on_c, 0, 51, 50
1, 421556, Note_off_c, 0, 50, 69
1, 421556, Note_off_c, 0, 74, 67
1, 421560, Note_on_c, 0, 54, 30
1, 421562, Note_off_c, 0, 86, 63
1, 421592, Note_off_c, 0, 51, 53
1, 421598, Note_off_c, 0, 54, 54
1, 421636, Note_on_c, 0, 63, 91
1, 421643, Note_on_c, 0, 75, 86
1, 421643, Note_on_c, 0, 87, 87
1, 421644, Note_on_c, 0, 51, 74
1, 421657, Note_off_c, 0, 63, 69
1, 421665, Note_off_c, 0, 75, 66
1, 421671, Note_off_c, 0, 51, 66
1, 421675, Note_off_c, 0, 87, 59
1, 421741, Note_on_c, 0, 64, 91
1, 421746, Note_on_c, 0, 52, 80
1, 421748, Note_on_c, 0, 76, 95
1, 421751, Note_on_c, 0, 88, 89
1, 421767, Note_off_c, 0, 64, 73
1, 421775, Note_off_c, 0, 76, 66
1, 421777, Note_off_c, 0, 52, 66
1, 421791, Note_off_c, 0, 88, 61
1, 421865, Note_on_c, 0, 49, 86
1, 421867, Note_on_c, 0, 61, 80
1, 421871, Note_on_c, 0, 79, 94
1, 421873, Note_on_c, 0, 91, 95
1, 421889, Note_off_c, 0, 49, 65
1, 421889, Note_off_c, 0, 61, 66
1, 421889, Note_off_c, 0, 79, 66
1, 421897, Note_off_c, 0, 91, 66
1, 421978, Note_on_c, 0, 82, 99
1, 421978, Note_on_c, 0, 94, 96
1, 421979, Note_on_c, 0, 56, 82
1, 421986, Note_on_c, 0, 46, 65
1, 421990, Note_on_c, 0, 44, 60
1, 422002, Note_off_c, 0, 56, 70
1, 422005, Note_on_c, 0, 58, 33
1, 422006, Note_off_c, 0, 58, 127
1, 422010, Note_off_c, 0, 46, 61
1, 422011, Note_off_c, 0, 82, 61
1, 422016, Note_off_c, 0, 44, 61
1, 422019, Note_off_c, 0, 94, 63
1, 422037, Poly_aftertouch_c, 0, 58, 0
1, 422084, Note_on_c, 0, 55, 99
1, 422087, Note_on_c, 0, 85, 97
1, 422088, Note_on_c, 0, 43, 91
1, 422089, Note_on_c, 0, 97, 96
1, 422109, Note_on_c, 0, 44, 41
1, 422110, Note_off_c, 0, 55, 65
1, 422113, Note_off_c, 0, 43, 68
1, 422124, Note_off_c, 0, 85, 65
1, 422127, Note_off_c, 0, 97, 67
1, 422138, Note_off_c, 0, 44, 55
1, 422187, Note_on_c, 0, 54, 98
1, 422193, Note_on_c, 0, 42, 89
1, 422196, Note_on_c, 0, 86, 103
1, 422201, Note_on_c, 0, 98, 100
1, 422213, Note_off_c, 0, 54, 65
1, 422215, Note_off_c, 0, 42, 70
1, 422224, Note_on_c, 0, 97, 53
1, 422224, Note_off_c, 0, 86, 70
1, 422235, Note_off_c, 0, 98, 68
1, 422247, Note_off_c, 0, 97, 39
1, 422291, Note_on_c, 0, 53, 100
1, 422294, Note_on_c, 0, 41, 94
1, 422302, Note_on_c, 0, 87, 102
1, 422306, Note_on_c, 0, 99, 98
1, 422306, Note_on_c, 0, 42, 43
1, 422327, Note_off_c, 0, 53, 64
1, 422334, Note_off_c, 0, 41, 63
1, 422336, Note_off_c, 0, 42, 56
1, 422341, Note_off_c, 0, 87, 67
1, 422351, Note_off_c, 0, 99, 65
1, 422404, Note_on_c, 0, 52, 111
1, 422409, Note_on_c, 0, 88, 107
1, 422410, Note_on_c, 0, 40, 92
1, 422411, Note_on_c, 0, 100, 104
1, 422422, Control_c, 0, 64, 95
1, 422437, Note_off_c, 0, 88, 70
1, 422437, Control_c, 0, 64, 0
1, 422438, Note_off_c, 0, 100, 67
1, 422452, Note_on_c, 0, 44, 24
1, 422457, Note_on_c, 0, 99, 20
1, 422458, Note_off_c, 0, 99, 127
1, 422476, Note_off_c, 0, 52, 61
1, 422494, Note_off_c, 0, 44, 29
1, 422498, Note_off_c, 0, 40, 58
1, 422907, Note_on_c, 0, 75, 112
1, 422908, Note_on_c, 0, 87, 103
1, 422908, Note_on_c, 0, 51, 110
1, 422911, Note_on_c, 0, 39, 94
1, 422917, Control_c, 0, 64, 127
1, 423031, Note_off_c, 0, 75, 57
1, 423044, Note_off_c, 0, 51, 59
1, 423052, Note_off_c, 0, 87, 63
1, 423053, Note_off_c, 0, 39, 58
1, 423142, Note_on_c, 0, 76, 102
1, 423144, Note_on_c, 0, 88, 101
1, 423146, Note_on_c, 0, 50, 98
1, 423153, Note_on_c, 0, 38, 89
1, 423163, Note_on_c, 0, 87, 71
1, 423174, Note_on_c, 0, 39, 55
1, 423180, Note_off_c, 0, 87, 67
1, 423194, Note_off_c, 0, 38, 62
1, 423194, Note_off_c, 0, 76, 59
1, 423198, Note_off_c, 0, 39, 61
1, 423200, Note_off_c, 0, 50, 65
1, 423210, Note_off_c, 0, 88, 64
1, 423311, Note_on_c, 0, 49, 100
1, 423311, Note_on_c, 0, 77, 99
1, 423312, Note_on_c, 0, 89, 104
1, 423313, Note_on_c, 0, 37, 90
1, 423353, Note_off_c, 0, 77, 68
1, 423357, Note_off_c, 0, 49, 61
1, 423357, Note_off_c, 0, 37, 62
1, 423360, Note_off_c, 0, 89, 62
1, 423450, Note_on_c, 0, 48, 100
1, 423450, Note_on_c, 0, 78, 100
1, 423454, Note_on_c, 0, 36, 91
1, 423454, Note_on_c, 0, 90, 97
1, 423487, Note_off_c, 0, 36, 64
1, 423489, Note_off_c, 0, 48, 65
1, 423497, Note_off_c, 0, 78, 63
1, 423511, Note_off_c, 0, 90, 63
1, 423517, Note_on_c, 0, 37, 3
1, 423539, Note_off_c, 0, 37, 59
1, 423583, Note_on_c, 0, 46, 84
1, 423585, Note_on_c, 0, 79, 94
1, 423593, Note_on_c, 0, 91, 94
1, 423594, Note_on_c, 0, 34, 76
1, 423618, Note_off_c, 0, 46, 62
1, 423624, Note_off_c, 0, 34, 62
1, 423631, Note_off_c, 0, 79, 63
1, 423631, Note_off_c, 0, 91, 67
1, 423681, Control_c, 0, 64, 61
1, 423696, Control_c, 0, 64, 0
1, 423700, Note_on_c, 0, 80, 105
1, 423702, Note_on_c, 0, 44, 103
1, 423703, Note_on_c, 0, 84, 95
1, 423706, Note_on_c, 0, 39, 84
1, 423707, Note_on_c, 0, 92, 104
1, 423709, Note_on_c, 0, 32, 91
1, 423722, Note_off_c, 0, 92, 74
1, 423725, Note_off_c, 0, 84, 65
1, 423728, Note_on_c, 0, 34, 39
1, 423731, Note_off_c, 0, 32, 71
1, 423736, Note_off_c, 0, 39, 63
1, 423738, Note_off_c, 0, 44, 62
1, 423739, Note_off_c, 0, 80, 65
1, 423740, Control_c, 0, 64, 109
1, 423755, Control_c, 0, 64, 127
1, 423761, Note_on_c, 0, 90, 37
1, 423762, Note_off_c, 0, 90, 127
1, 423765, Note_off_c, 0, 34, 49
1, 423968, Note_on_c, 0, 68, 72
1, 423992, Note_off_c, 0, 68, 67
1, 424039, Note_on_c, 0, 68, 99
1, 424089, Note_off_c, 0, 68, 62
1, 424272, Note_on_c, 0, 63, 73
1, 424298, Note_off_c, 0, 63, 67
1, 424344, Note_on_c, 0, 63, 101
1, 424376, Note_off_c, 0, 63, 61
1, 424588, Note_on_c, 0, 56, 85
1, 424610, Note_off_c, 0, 56, 71
1, 424661, Note_on_c, 0, 56, 95
1, 424706, Note_off_c, 0, 56, 66
1, 424884, Note_on_c, 0, 51, 73
1, 424908, Note_off_c, 0, 51, 67
1, 424963, Note_on_c, 0, 51, 88
1, 425004, Note_off_c, 0, 51, 65
1, 425150, Control_c, 0, 64, 106
1, 425165, Control_c, 0, 64, 92
1, 425179, Control_c, 0, 64, 79
1, 425190, Note_on_c, 0, 63, 77
1, 425192, Note_on_c, 0, 75, 69
1, 425194, Control_c, 0, 64, 65
1, 425209, Control_c, 0, 64, 0
1, 425214, Note_off_c, 0, 75, 70
1, 425215, Note_off_c, 0, 63, 67
1, 425273, Note_on_c, 0, 63, 79
1, 425275, Note_on_c, 0, 75, 82
1, 425275, Note_on_c, 0, 44, 70
1, 425279, Note_on_c, 0, 43, 70
1, 425298, Control_c, 0, 64, 61
1, 425312, Control_c, 0, 64, 72
1, 425327, Control_c, 0, 64, 83
1, 425329, Note_off_c, 0, 75, 64
1, 425342, Control_c, 0, 64, 103
1, 425357, Control_c, 0, 64, 127
1, 425358, Note_off_c, 0, 63, 60
1, 425499, Note_on_c, 0, 56, 77
1, 425513, Note_on_c, 0, 68, 59
1, 425530, Note_off_c, 0, 56, 67
1, 425533, Note_off_c, 0, 68, 63
1, 425583, Note_on_c, 0, 56, 83
1, 425589, Note_on_c, 0, 68, 86
1, 425652, Note_off_c, 0, 68, 60
1, 425663, Note_off_c, 0, 56, 63
1, 425788, Note_on_c, 0, 51, 83
1, 425797, Note_off_c, 0, 44, 61
1, 425804, Note_off_c, 0, 43, 63
1, 425805, Note_on_c, 0, 63, 50
1, 425812, Note_off_c, 0, 51, 67
1, 425836, Note_off_c, 0, 63, 54
1, 425854, Control_c, 0, 64, 104
1, 425869, Control_c, 0, 64, 77
1, 425872, Note_on_c, 0, 51, 78
1, 425877, Note_on_c, 0, 44, 87
1, 425877, Note_on_c, 0, 42, 86
1, 425883, Control_c, 0, 64, 54
1, 425884, Note_on_c, 0, 63, 76
1, 425898, Control_c, 0, 64, 0
1, 425928, Control_c, 0, 64, 64
1, 425943, Control_c, 0, 64, 75
1, 425945, Note_off_c, 0, 63, 61
1, 425948, Note_off_c, 0, 51, 62
1, 425958, Control_c, 0, 64, 88
1, 425973, Control_c, 0, 64, 104
1, 425988, Control_c, 0, 64, 127
1, 426077, Note_on_c, 0, 48, 81
1, 426081, Note_on_c, 0, 56, 67
1, 426102, Note_off_c, 0, 48, 66
1, 426108, Note_off_c, 0, 56, 66
1, 426121, Note_on_c, 0, 60, 8
1, 426155, Note_off_c, 0, 44, 64
1, 426158, Note_on_c, 0, 48, 79
1, 426159, Note_off_c, 0, 42, 61
1, 426164, Note_on_c, 0, 56, 80
1, 426164, Note_off_c, 0, 60, 0
1, 426164, Note_on_c, 0, 60, 20
1, 426185, Note_off_c, 0, 48, 68
1, 426206, Note_off_c, 0, 56, 64
1, 426214, Note_off_c, 0, 60, 63
1, 426411, Control_c, 0, 64, 101
1, 426423, Note_on_c, 0, 53, 76
1, 426423, Note_on_c, 0, 80, 69
1, 426424, Note_on_c, 0, 73, 75
1, 426426, Note_on_c, 0, 41, 69
1, 426426, Control_c, 0, 64, 79
1, 426440, Control_c, 0, 64, 59
1, 426441, Note_off_c, 0, 73, 68
1, 426442, Note_on_c, 0, 85, 47
1, 426444, Note_off_c, 0, 80, 65
1, 426452, Note_off_c, 0, 53, 66
1, 426455, Note_off_c, 0, 41, 64
1, 426455, Control_c, 0, 64, 0
1, 426468, Note_off_c, 0, 85, 37
1, 426484, Control_c, 0, 64, 58
1, 426499, Control_c, 0, 64, 69
1, 426502, Note_on_c, 0, 73, 86
1, 426506, Note_on_c, 0, 80, 77
1, 426510, Note_on_c, 0, 85, 72
1, 426514, Note_on_c, 0, 53, 71
1, 426514, Control_c, 0, 64, 78
1, 426520, Note_on_c, 0, 41, 70
1, 426529, Control_c, 0, 64, 92
1, 426544, Control_c, 0, 64, 104
1, 426558, Control_c, 0, 64, 117
1, 426566, Note_off_c, 0, 85, 63
1, 426573, Control_c, 0, 64, 127
1, 426586, Note_off_c, 0, 80, 61
1, 426587, Note_off_c, 0, 73, 62
1, 426611, Note_off_c, 0, 53, 61
1, 426623, Note_off_c, 0, 41, 61
1, 426705, Note_on_c, 0, 73, 82
1, 426706, Control_c, 0, 64, 96
1, 426707, Note_on_c, 0, 52, 75
1, 426711, Note_on_c, 0, 40, 72
1, 426712, Note_on_c, 0, 68, 77
1, 426712, Note_on_c, 0, 80, 66
1, 426721, Control_c, 0, 64, 73
1, 426730, Note_off_c, 0, 80, 65
1, 426731, Note_off_c, 0, 68, 65
1, 426732, Note_off_c, 0, 73, 64
1, 426736, Note_off_c, 0, 52, 64
1, 426736, Control_c, 0, 64, 54
1, 426742, Note_off_c, 0, 40, 65
1, 426751, Control_c, 0, 64, 0
1, 426766, Control_c, 0, 64, 51
1, 426781, Control_c, 0, 64, 67
1, 426781, Note_on_c, 0, 68, 78
1, 426783, Note_on_c, 0, 52, 83
1, 426786, Note_on_c, 0, 73, 79
1, 426786, Note_on_c, 0, 80, 80
1, 426793, Note_on_c, 0, 40, 78
1, 426796, Control_c, 0, 64, 77
1, 426810, Control_c, 0, 64, 88
1, 426825, Control_c, 0, 64, 107
1, 426837, Note_off_c, 0, 52, 62
1, 426840, Control_c, 0, 64, 127
1, 426861, Note_off_c, 0, 40, 64
1, 426866, Note_off_c, 0, 68, 60
1, 426867, Note_off_c, 0, 80, 62
1, 426871, Note_off_c, 0, 73, 60
1, 426982, Note_on_c, 0, 43, 90
1, 426984, Note_on_c, 0, 69, 90
1, 426984, Note_on_c, 0, 73, 84
1, 426986, Note_on_c, 0, 31, 86
1, 426993, Note_on_c, 0, 81, 70
1, 426997, Note_on_c, 0, 76, 71
1, 427003, Control_c, 0, 64, 86
1, 427013, Note_off_c, 0, 43, 68
1, 427013, Note_off_c, 0, 69, 65
1, 427019, Note_off_c, 0, 73, 60
1, 427019, Note_off_c, 0, 81, 66
1, 427020, Note_off_c, 0, 31, 67
1, 427025, Control_c, 0, 64, 67
1, 427028, Note_off_c, 0, 76, 68
1, 427040, Control_c, 0, 64, 0
1, 427067, Note_on_c, 0, 43, 89
1, 427070, Note_on_c, 0, 69, 91
1, 427070, Control_c, 0, 64, 47
1, 427072, Note_on_c, 0, 73, 84
1, 427072, Note_on_c, 0, 81, 85
1, 427073, Note_on_c, 0, 31, 85
1, 427079, Note_on_c, 0, 76, 83
1, 427084, Control_c, 0, 64, 68
1, 427099, Control_c, 0, 64, 80
1, 427114, Control_c, 0, 64, 95
1, 427129, Control_c, 0, 64, 123
1, 427144, Control_c, 0, 64, 127
1, 427150, Note_off_c, 0, 81, 62
1, 427175, Note_off_c, 0, 69, 59
1, 427178, Note_off_c, 0, 43, 62
1, 427189, Note_off_c, 0, 31, 60
1, 427197, Note_off_c, 0, 73, 60
1, 427202, Note_off_c, 0, 76, 58
1, 427266, Note_on_c, 0, 42, 97
1, 427271, Note_on_c, 0, 30, 87
1, 427276, Note_on_c, 0, 70, 91
1, 427290, Note_on_c, 0, 73, 74
1, 427306, Note_off_c, 0, 30, 62
1, 427306, Note_off_c, 0, 42, 61
1, 427310, Note_on_c, 0, 82, 39
1, 427310, Note_off_c, 0, 70, 57
1, 427312, Note_on_c, 0, 76, 40
1, 427323, Note_off_c, 0, 73, 60
1, 427337, Control_c, 0, 64, 102
1, 427338, Note_off_c, 0, 76, 56
1, 427339, Note_off_c, 0, 82, 55
1, 427352, Control_c, 0, 64, 74
1, 427367, Control_c, 0, 64, 0
1, 427372, Poly_aftertouch_c, 0, 77, 0
1, 427377, Note_on_c, 0, 70, 97
1, 427379, Note_on_c, 0, 42, 114
1, 427381, Note_on_c, 0, 73, 86
1, 427384, Note_on_c, 0, 30, 96
1, 427392, Note_on_c, 0, 76, 75
1, 427397, Note_on_c, 0, 82, 86
1, 427411, Control_c, 0, 64, 55
1, 427425, Control_c, 0, 64, 74
1, 427433, Note_on_c, 0, 80, 34
1, 427440, Control_c, 0, 64, 100
1, 427453, Note_off_c, 0, 30, 62
1, 427455, Control_c, 0, 64, 127
1, 427456, Note_off_c, 0, 42, 61
1, 427465, Note_off_c, 0, 82, 64
1, 427467, Note_off_c, 0, 80, 52
1, 427513, Note_off_c, 0, 76, 57
1, 427518, Note_off_c, 0, 70, 56
1, 427536, Note_off_c, 0, 73, 56
1, 427559, Control_c, 0, 64, 101
1, 427574, Control_c, 0, 64, 70
1, 427589, Control_c, 0, 64, 0
1, 427657, Note_on_c, 0, 54, 100
1, 427660, Note_on_c, 0, 42, 92
1, 427696, Note_off_c, 0, 42, 63
1, 427698, Note_off_c, 0, 54, 66
1, 427782, Note_on_c, 0, 55, 104
1, 427790, Note_on_c, 0, 43, 98
1, 427835, Note_on_c, 0, 44, 27
1, 427836, Note_off_c, 0, 44, 127
1, 427891, Note_on_c, 0, 58, 87
1, 427893, Control_c, 0, 64, 68
1, 427898, Note_on_c, 0, 70, 71
1, 427907, Control_c, 0, 64, 72
1, 427912, Note_off_c, 0, 58, 67
1, 427920, Note_off_c, 0, 70, 70
1, 427922, Control_c, 0, 64, 77
1, 427937, Control_c, 0, 64, 88
1, 427952, Control_c, 0, 64, 119
1, 427967, Control_c, 0, 64, 127
1, 427998, Note_on_c, 0, 61, 84
1, 428000, Note_on_c, 0, 73, 80
1, 428022, Note_off_c, 0, 61, 66
1, 428024, Note_off_c, 0, 73, 67
1, 428056, Note_off_c, 0, 43, 61
1, 428071, Note_off_c, 0, 55, 60
1, 428101, Note_on_c, 0, 64, 80
1, 428104, Note_on_c, 0, 76, 75
1, 428121, Note_off_c, 0, 64, 72
1, 428126, Note_off_c, 0, 76, 68
1, 428200, Note_on_c, 0, 46, 82
1, 428200, Note_on_c, 0, 58, 84
1, 428203, Note_on_c, 0, 67, 91
1, 428209, Note_on_c, 0, 79, 81
1, 428217, Note_off_c, 0, 58, 72
1, 428223, Note_off_c, 0, 46, 65
1, 428227, Note_off_c, 0, 67, 64
1, 428229, Note_off_c, 0, 79, 69
1, 428304, Note_on_c, 0, 55, 86
1, 428307, Note_on_c, 0, 43, 84
1, 428308, Note_on_c, 0, 70, 89
1, 428309, Note_on_c, 0, 82, 95
1, 428322, Note_off_c, 0, 55, 73
1, 428331, Note_off_c, 0, 70, 63
1, 428332, Note_off_c, 0, 43, 64
1, 428334, Note_off_c, 0, 82, 58
1, 428410, Note_on_c, 0, 41, 84
1, 428411, Note_on_c, 0, 73, 94
1, 428411, Note_on_c, 0, 52, 83
1, 428427, Note_on_c, 0, 85, 55
1, 428432, Note_off_c, 0, 41, 66
1, 428432, Note_off_c, 0, 73, 66
1, 428435, Note_off_c, 0, 52, 65
1, 428447, Note_off_c, 0, 85, 62
1, 428458, Note_on_c, 0, 84, 15
1, 428471, Control_c, 0, 64, 126
1, 428486, Control_c, 0, 64, 87
1, 428507, Note_off_c, 0, 84, 42
1, 428509, Control_c, 0, 64, 64
1, 428522, Poly_aftertouch_c, 0, 82, 0
1, 428522, Note_on_c, 0, 37, 87
1, 428523, Note_on_c, 0, 49, 86
1, 428524, Control_c, 0, 64, 0
1, 428528, Note_on_c, 0, 86, 86
1, 428532, Note_on_c, 0, 74, 74
1, 428533, Note_on_c, 0, 76, 74
1, 428547, Note_off_c, 0, 37, 70
1, 428547, Note_off_c, 0, 49, 69
1, 428548, Note_off_c, 0, 86, 68
1, 428550, Note_off_c, 0, 74, 67
1, 428552, Note_off_c, 0, 76, 67
1, 428621, Note_on_c, 0, 79, 93
1, 428623, Note_on_c, 0, 48, 83
1, 428629, Note_on_c, 0, 36, 78
1, 428632, Note_on_c, 0, 91, 91
1, 428647, Note_off_c, 0, 48, 66
1, 428647, Note_off_c, 0, 79, 65
1, 428653, Note_off_c, 0, 91, 68
1, 428654, Note_off_c, 0, 36, 64
1, 428725, Note_on_c, 0, 47, 100
1, 428730, Note_on_c, 0, 35, 94
1, 428730, Note_on_c, 0, 83, 113
1, 428731, Note_on_c, 0, 95, 103
1, 428739, Note_on_c, 0, 87, 90
1, 428745, Note_off_c, 0, 47, 75
1, 428745, Control_c, 0, 64, 88
1, 428745, Note_off_c, 0, 95, 76
1, 428749, Note_off_c, 0, 83, 67
1, 428751, Note_off_c, 0, 35, 70
1, 428754, Note_off_c, 0, 87, 76
1, 428760, Control_c, 0, 64, 127
1, 428975, Note_on_c, 0, 71, 82
1, 428989, Note_on_c, 0, 72, 65
1, 428993, Note_off_c, 0, 71, 74
1, 429007, Note_off_c, 0, 72, 66
1, 429041, Note_on_c, 0, 71, 99
1, 429079, Note_off_c, 0, 71, 70
1, 429267, Note_on_c, 0, 66, 82
1, 429286, Note_off_c, 0, 66, 70
1, 429345, Note_on_c, 0, 66, 106
1, 429376, Note_off_c, 0, 66, 66
1, 429565, Note_on_c, 0, 59, 88
1, 429597, Note_off_c, 0, 59, 62
1, 429648, Note_on_c, 0, 59, 97
1, 429717, Note_off_c, 0, 59, 61
1, 429856, Note_on_c, 0, 54, 79
1, 429881, Note_off_c, 0, 54, 69
1, 429938, Note_on_c, 0, 54, 91
1, 429978, Note_off_c, 0, 54, 66
1, 430155, Note_on_c, 0, 66, 76
1, 430158, Note_on_c, 0, 78, 71
1, 430180, Note_off_c, 0, 78, 66
1, 430185, Note_off_c, 0, 66, 55
1, 430213, Control_c, 0, 64, 111
1, 430227, Control_c, 0, 64, 83
1, 430241, Note_on_c, 0, 78, 70
1, 430242, Note_on_c, 0, 66, 62
1, 430242, Control_c, 0, 64, 58
1, 430245, Note_on_c, 0, 47, 71
1, 430248, Note_on_c, 0, 46, 69
1, 430257, Control_c, 0, 64, 0
1, 430287, Control_c, 0, 64, 37
1, 430301, Control_c, 0, 64, 66
1, 430316, Control_c, 0, 64, 75
1, 430319, Note_off_c, 0, 78, 64
1, 430331, Control_c, 0, 64, 90
1, 430334, Note_off_c, 0, 66, 62
1, 430346, Control_c, 0, 64, 127
1, 430452, Note_on_c, 0, 61, 72
1, 430453, Note_on_c, 0, 73, 66
1, 430477, Note_off_c, 0, 61, 65
1, 430480, Note_off_c, 0, 73, 66
1, 430535, Note_on_c, 0, 61, 78
1, 430537, Note_on_c, 0, 73, 80
1, 430592, Note_off_c, 0, 73, 64
1, 430603, Note_off_c, 0, 61, 62
1, 430721, Note_off_c, 0, 47, 62
1, 430723, Note_on_c, 0, 54, 81
1, 430729, Note_off_c, 0, 46, 56
1, 430730, Note_on_c, 0, 66, 66
1, 430754, Note_off_c, 0, 54, 67
1, 430763, Note_off_c, 0, 66, 65
1, 430814, Control_c, 0, 64, 89
1, 430820, Note_on_c, 0, 54, 80
1, 430821, Note_on_c, 0, 45, 87
1, 430821, Note_on_c, 0, 47, 90
1, 430824, Note_on_c, 0, 66, 74
1, 430828, Control_c, 0, 64, 69
1, 430843, Control_c, 0, 64, 0
1, 430872, Control_c, 0, 64, 62
1, 430876, Note_off_c, 0, 66, 62
1, 430887, Control_c, 0, 64, 70
1, 430902, Control_c, 0, 64, 80
1, 430903, Note_off_c, 0, 54, 61
1, 430917, Control_c, 0, 64, 99
1, 430931, Control_c, 0, 64, 127
1, 431011, Note_on_c, 0, 51, 81
1, 431019, Note_on_c, 0, 63, 68
1, 431020, Note_on_c, 0, 59, 60
1, 431034, Note_off_c, 0, 47, 62
1, 431037, Note_off_c, 0, 45, 62
1, 431043, Note_off_c, 0, 51, 65
1, 431048, Note_off_c, 0, 63, 64
1, 431052, Note_off_c, 0, 59, 63
1, 431109, Note_on_c, 0, 51, 88
1, 431118, Note_on_c, 0, 63, 79
1, 431130, Note_off_c, 0, 51, 70
1, 431142, Note_on_c, 0, 59, 57
1, 431154, Note_off_c, 0, 63, 57
1, 431175, Note_off_c, 0, 59, 53
1, 431303, Control_c, 0, 64, 93
1, 431318, Control_c, 0, 64, 69
1, 431333, Control_c, 0, 64, 0
1, 431335, Note_on_c, 0, 83, 82
1, 431337, Note_on_c, 0, 44, 56
1, 431338, Note_on_c, 0, 56, 58
1, 431341, Note_on_c, 0, 76, 75
1, 431349, Note_on_c, 0, 88, 59
1, 431359, Note_off_c, 0, 83, 62
1, 431362, Note_off_c, 0, 56, 62
1, 431363, Note_off_c, 0, 76, 65
1, 431366, Note_off_c, 0, 44, 63
1, 431370, Note_off_c, 0, 88, 60
1, 431406, Control_c, 0, 64, 62
1, 431421, Control_c, 0, 64, 67
1, 431422, Note_on_c, 0, 76, 82
1, 431422, Note_on_c, 0, 56, 76
1, 431423, Note_on_c, 0, 83, 83
1, 431428, Note_on_c, 0, 88, 78
1, 431431, Note_on_c, 0, 44, 78
1, 431436, Control_c, 0, 64, 73
1, 431450, Note_off_c, 0, 88, 63
1, 431451, Control_c, 0, 64, 79
1, 431465, Control_c, 0, 64, 85
1, 431473, Note_off_c, 0, 76, 62
1, 431476, Note_off_c, 0, 83, 65
1, 431480, Control_c, 0, 64, 90
1, 431498, Note_off_c, 0, 56, 61
1, 431502, Note_off_c, 0, 44, 63
1, 431502, Control_c, 0, 64, 91
1, 431517, Control_c, 0, 64, 90
1, 431532, Control_c, 0, 64, 88
1, 431547, Control_c, 0, 64, 83
1, 431562, Control_c, 0, 64, 75
1, 431577, Control_c, 0, 64, 63
1, 431592, Control_c, 0, 64, 0
1, 431627, Note_on_c, 0, 55, 78
1, 431628, Note_on_c, 0, 76, 79
1, 431630, Note_on_c, 0, 71, 81
1, 431631, Note_on_c, 0, 43, 72
1, 431638, Note_on_c, 0, 83, 68
1, 431649, Note_off_c, 0, 71, 73
1, 431650, Note_off_c, 0, 55, 67
1, 431652, Note_off_c, 0, 76, 66
1, 431654, Note_off_c, 0, 83, 67
1, 431655, Note_off_c, 0, 43, 66
1, 431666, Control_c, 0, 64, 33
1, 431680, Control_c, 0, 64, 57
1, 431695, Control_c, 0, 64, 64
1, 431699, Note_on_c, 0, 55, 88
1, 431705, Note_on_c, 0, 71, 96
1, 431705, Note_on_c, 0, 83, 91
1, 431706, Note_on_c, 0, 43, 83
1, 431708, Note_on_c, 0, 76, 82
1, 431710, Control_c, 0, 64, 68
1, 431725, Control_c, 0, 64, 71
1, 431738, Note_off_c, 0, 55, 64
1, 431740, Control_c, 0, 64, 74
1, 431750, Note_off_c, 0, 71, 61
1, 431751, Note_off_c, 0, 43, 64
1, 431754, Control_c, 0, 64, 74
1, 431759, Note_off_c, 0, 83, 64
1, 431769, Note_off_c, 0, 76, 60
1, 431843, Control_c, 0, 64, 74
1, 431858, Control_c, 0, 64, 71
1, 431872, Control_c, 0, 64, 68
1, 431887, Control_c, 0, 64, 64
1, 431902, Control_c, 0, 64, 58
1, 431906, Note_on_c, 0, 46, 96
1, 431909, Note_on_c, 0, 72, 84
1, 431909, Note_on_c, 0, 76, 84
1, 431911, Note_on_c, 0, 34, 85
1, 431912, Note_on_c, 0, 79, 79
1, 431917, Control_c, 0, 64, 47
1, 431926, Note_off_c, 0, 72, 73
1, 431927, Note_off_c, 0, 46, 70
1, 431932, Control_c, 0, 64, 31
1, 431933, Note_off_c, 0, 76, 66
1, 431935, Note_off_c, 0, 79, 66
1, 431938, Note_on_c, 0, 84, 35
1, 431938, Note_off_c, 0, 34, 64
1, 431947, Control_c, 0, 64, 32
1, 431961, Note_off_c, 0, 84, 43
1, 431961, Control_c, 0, 64, 46
1, 431977, Control_c, 0, 64, 56
1, 431982, Note_on_c, 0, 46, 96
1, 431983, Note_on_c, 0, 72, 94
1, 431986, Note_on_c, 0, 34, 91
1, 431986, Note_on_c, 0, 76, 85
1, 431990, Note_on_c, 0, 79, 75
1, 431990, Note_on_c, 0, 84, 65
1, 431992, Control_c, 0, 64, 62
1, 432007, Control_c, 0, 64, 65
1, 432021, Control_c, 0, 64, 67
1, 432036, Control_c, 0, 64, 68
1, 432046, Note_off_c, 0, 84, 63
1, 432051, Control_c, 0, 64, 68
1, 432060, Note_off_c, 0, 72, 63
1, 432066, Control_c, 0, 64, 69
1, 432073, Note_off_c, 0, 34, 60
1, 432078, Note_off_c, 0, 76, 60
1, 432078, Note_off_c, 0, 46, 60
1, 432081, Control_c, 0, 64, 69
1, 432082, Note_off_c, 0, 79, 60
1, 432096, Control_c, 0, 64, 70
1, 432111, Control_c, 0, 64, 71
1, 432125, Control_c, 0, 64, 72
1, 432140, Control_c, 0, 64, 72
1, 432172, Note_on_c, 0, 45, 93
1, 432179, Note_on_c, 0, 33, 80
1, 432179, Note_on_c, 0, 73, 91
1, 432185, Control_c, 0, 64, 71
1, 432187, Note_on_c, 0, 76, 77
1, 432192, Note_on_c, 0, 79, 65
1, 432199, Note_off_c, 0, 45, 66
1, 432200, Control_c, 0, 64, 68
1, 432203, Note_off_c, 0, 73, 63
1, 432208, Note_off_c, 0, 33, 66
1, 432214, Note_on_c, 0, 85, 31
1, 432214, Control_c, 0, 64, 62
1, 432218, Note_off_c, 0, 79, 66
1, 432221, Note_off_c, 0, 76, 63
1, 432228, Note_on_c, 0, 34, 3
1, 432229, Control_c, 0, 64, 0
1, 432234, Note_off_c, 0, 85, 36
1, 432254, Note_off_c, 0, 34, 60
1, 432284, Note_on_c, 0, 45, 106
1, 432285, Note_on_c, 0, 73, 99
1, 432288, Note_on_c, 0, 33, 90
1, 432288, Note_on_c, 0, 76, 80
1, 432294, Note_on_c, 0, 79, 75
1, 432297, Note_on_c, 0, 85, 80
1, 432310, Note_on_c, 0, 34, 60
1, 432310, Control_c, 0, 64, 52
1, 432325, Control_c, 0, 64, 65
1, 432335, Note_off_c, 0, 33, 60
1, 432340, Control_c, 0, 64, 74
1, 432343, Note_off_c, 0, 45, 65
1, 432347, Note_off_c, 0, 34, 54
1, 432349, Note_off_c, 0, 85, 65
1, 432355, Control_c, 0, 64, 84
1, 432370, Control_c, 0, 64, 95
1, 432385, Control_c, 0, 64, 106
1, 432387, Note_off_c, 0, 73, 57
1, 432388, Note_off_c, 0, 76, 57
1, 432390, Note_off_c, 0, 79, 56
1, 432400, Control_c, 0, 64, 115
1, 432415, Control_c, 0, 64, 122
1, 432429, Control_c, 0, 64, 123
1, 432503, Control_c, 0, 64, 122
1, 432518, Control_c, 0, 64, 121
1, 432531, Note_on_c, 0, 57, 97
1, 432533, Control_c, 0, 64, 119
1, 432535, Note_on_c, 0, 45, 91
1, 432548, Control_c, 0, 64, 119
1, 432562, Note_off_c, 0, 45, 64
1, 432563, Control_c, 0, 64, 118
1, 432572, Note_off_c, 0, 57, 63
1, 432575, Note_on_c, 0, 46, 32
1, 432614, Note_off_c, 0, 46, 53
1, 432636, Control_c, 0, 64, 113
1, 432651, Control_c, 0, 64, 98
1, 432666, Control_c, 0, 64, 79
1, 432670, Note_on_c, 0, 58, 106
1, 432675, Note_on_c, 0, 46, 96
1, 432681, Control_c, 0, 64, 55
1, 432695, Control_c, 0, 64, 0
1, 432771, Control_c, 0, 64, 67
1, 432781, Note_on_c, 0, 61, 81
1, 432784, Note_on_c, 0, 73, 72
1, 432786, Control_c, 0, 64, 81
1, 432800, Control_c, 0, 64, 111
1, 432804, Note_off_c, 0, 61, 70
1, 432808, Note_off_c, 0, 73, 69
1, 432815, Control_c, 0, 64, 127
1, 432885, Note_on_c, 0, 64, 75
1, 432885, Note_on_c, 0, 76, 73
1, 432908, Note_off_c, 0, 76, 68
1, 432909, Note_off_c, 0, 64, 70
1, 432962, Note_off_c, 0, 46, 57
1, 432963, Note_off_c, 0, 58, 56
1, 432979, Note_on_c, 0, 67, 87
1, 432996, Note_on_c, 0, 79, 76
1, 433008, Note_off_c, 0, 67, 67
1, 433020, Note_off_c, 0, 79, 68
1, 433080, Note_on_c, 0, 61, 88
1, 433081, Note_on_c, 0, 49, 81
1, 433090, Note_on_c, 0, 70, 90
1, 433091, Note_on_c, 0, 82, 87
1, 433103, Note_off_c, 0, 61, 69
1, 433106, Note_off_c, 0, 49, 65
1, 433109, Note_off_c, 0, 70, 71
1, 433109, Note_off_c, 0, 82, 69
1, 433184, Note_on_c, 0, 46, 81
1, 433184, Note_on_c, 0, 58, 82
1, 433189, Note_on_c, 0, 85, 87
1, 433192, Note_on_c, 0, 73, 86
1, 433202, Note_off_c, 0, 58, 73
1, 433205, Note_off_c, 0, 46, 70
1, 433212, Note_off_c, 0, 73, 71
1, 433216, Note_off_c, 0, 85, 62
1, 433259, Poly_aftertouch_c, 0, 49, 0
1, 433288, Note_on_c, 0, 76, 90
1, 433294, Note_on_c, 0, 88, 84
1, 433295, Note_on_c, 0, 55, 75
1, 433296, Note_on_c, 0, 43, 78
1, 433307, Note_off_c, 0, 76, 70
1, 433312, Control_c, 0, 64, 98
1, 433313, Note_off_c, 0, 55, 66
1, 433318, Note_off_c, 0, 88, 66
1, 433323, Note_off_c, 0, 43, 65
1, 433326, Control_c, 0, 64, 69
1, 433341, Control_c, 0, 64, 0
1, 433400, Note_on_c, 0, 89, 85
1, 433401, Note_on_c, 0, 77, 75
1, 433403, Note_on_c, 0, 52, 72
1, 433410, Note_on_c, 0, 79, 65
1, 433417, Note_off_c, 0, 77, 70
1, 433417, Note_off_c, 0, 89, 70
1, 433428, Note_off_c, 0, 79, 64
1, 433429, Note_off_c, 0, 52, 62
1, 433491, Note_on_c, 0, 39, 76
1, 433491, Note_on_c, 0, 51, 79
1, 433506, Note_on_c, 0, 82, 82
1, 433506, Note_on_c, 0, 92, 74
1, 433515, Note_off_c, 0, 51, 68
1, 433517, Note_off_c, 0, 39, 64
1, 433521, Note_off_c, 0, 92, 69
1, 433524, Note_off_c, 0, 82, 72
1, 433607, Note_on_c, 0, 50, 97
1, 433608, Note_on_c, 0, 86, 105
1, 433610, Note_on_c, 0, 38, 92
1, 433610, Note_on_c, 0, 90, 94
1, 433610, Note_on_c, 0, 98, 100
1, 433623, Note_off_c, 0, 98, 87
1, 433623, Note_off_c, 0, 86, 71
1, 433623, Control_c, 0, 64, 127
1, 433625, Note_off_c, 0, 90, 73
1, 433625, Note_off_c, 0, 50, 73
1, 433631, Note_on_c, 0, 97, 65
1, 433633, Note_off_c, 0, 38, 69
1, 433658, Note_off_c, 0, 97, 39
1, 433848, Note_on_c, 0, 69, 85
1, 433853, Note_on_c, 0, 74, 77
1, 433865, Note_off_c, 0, 69, 74
1, 433875, Note_off_c, 0, 74, 71
1, 433920, Note_on_c, 0, 74, 96
1, 433921, Note_on_c, 0, 69, 98
1, 433994, Note_off_c, 0, 74, 57
1, 433997, Note_off_c, 0, 69, 54
1, 434135, Note_on_c, 0, 62, 73
1, 434136, Note_on_c, 0, 69, 69
1, 434158, Note_off_c, 0, 62, 67
1, 434158, Note_off_c, 0, 69, 70
1, 434215, Note_on_c, 0, 69, 93
1, 434215, Note_on_c, 0, 62, 90
1, 434251, Note_off_c, 0, 69, 66
1, 434260, Note_off_c, 0, 62, 62
1, 434433, Note_on_c, 0, 57, 79
1, 434454, Note_on_c, 0, 62, 48
1, 434456, Note_off_c, 0, 57, 67
1, 434472, Note_off_c, 0, 62, 66
1, 434515, Note_on_c, 0, 57, 87
1, 434522, Note_on_c, 0, 62, 83
1, 434561, Note_off_c, 0, 57, 65
1, 434587, Note_off_c, 0, 62, 61
1, 434737, Note_on_c, 0, 57, 71
1, 434737, Note_on_c, 0, 50, 76
1, 434764, Note_off_c, 0, 57, 64
1, 434768, Note_off_c, 0, 50, 67
1, 434823, Note_on_c, 0, 57, 81
1, 434824, Note_on_c, 0, 50, 83
1, 434883, Note_off_c, 0, 57, 62
1, 434913, Note_off_c, 0, 50, 65
1, 435033, Note_on_c, 0, 93, 83
1, 435035, Note_on_c, 0, 81, 81
1, 435038, Note_on_c, 0, 86, 74
1, 435069, Note_off_c, 0, 81, 56
1, 435074, Note_off_c, 0, 86, 61
1, 435082, Note_off_c, 0, 93, 62
1, 435135, Control_c, 0, 64, 90
1, 435149, Note_on_c, 0, 48, 101
1, 435150, Control_c, 0, 64, 64
1, 435157, Note_on_c, 0, 93, 98
1, 435158, Note_on_c, 0, 81, 98
1, 435160, Note_on_c, 0, 38, 87
1, 435162, Note_on_c, 0, 86, 88
1, 435166, Control_c, 0, 64, 0
1, 435211, Control_c, 0, 64, 62
1, 435221, Note_off_c, 0, 93, 63
1, 435226, Control_c, 0, 64, 75
1, 435234, Note_off_c, 0, 86, 65
1, 435243, Note_off_c, 0, 81, 61
1, 435247, Control_c, 0, 64, 105
1, 435262, Control_c, 0, 64, 127
1, 435398, Note_on_c, 0, 81, 81
1, 435399, Note_on_c, 0, 76, 84
1, 435399, Note_on_c, 0, 88, 83
1, 435416, Note_off_c, 0, 81, 69
1, 435419, Note_off_c, 0, 88, 69
1, 435419, Note_off_c, 0, 76, 68
1, 435437, Note_off_c, 0, 38, 57
1, 435466, Note_off_c, 0, 48, 64
1, 435479, Note_on_c, 0, 76, 87
1, 435479, Note_on_c, 0, 88, 89
1, 435483, Note_on_c, 0, 81, 88
1, 435515, Note_off_c, 0, 88, 57
1, 435518, Note_off_c, 0, 81, 58
1, 435536, Note_off_c, 0, 76, 60
1, 435657, Note_on_c, 0, 60, 82
1, 435664, Note_on_c, 0, 50, 70
1, 435667, Note_on_c, 0, 74, 77
1, 435671, Note_on_c, 0, 69, 74
1, 435676, Note_on_c, 0, 81, 63
1, 435678, Note_off_c, 0, 60, 71
1, 435687, Note_off_c, 0, 74, 73
1, 435693, Note_off_c, 0, 81, 65
1, 435694, Note_off_c, 0, 50, 66
1, 435695, Note_off_c, 0, 69, 70
1, 435706, Control_c, 0, 64, 104
1, 435720, Control_c, 0, 64, 73
1, 435735, Control_c, 0, 64, 0
1, 435744, Note_on_c, 0, 60, 86
1, 435749, Note_on_c, 0, 50, 80
1, 435751, Note_on_c, 0, 74, 86
1, 435751, Note_on_c, 0, 81, 81
1, 435753, Note_on_c, 0, 69, 76
1, 435771, Note_off_c, 0, 81, 65
1, 435787, Note_off_c, 0, 50, 64
1, 435787, Note_off_c, 0, 60, 62
1, 435791, Note_off_c, 0, 69, 60
1, 435802, Note_off_c, 0, 74, 66
1, 435929, Note_on_c, 0, 60, 76
1, 435932, Note_on_c, 0, 50, 71
1, 435937, Note_on_c, 0, 66, 79
1, 435941, Note_on_c, 0, 74, 75
1, 435943, Note_on_c, 0, 78, 65
1, 435953, Note_off_c, 0, 60, 70
1, 435963, Note_off_c, 0, 50, 66
1, 435963, Note_off_c, 0, 66, 64
1, 435967, Note_off_c, 0, 74, 68
1, 435971, Note_off_c, 0, 78, 67
1, 436033, Note_on_c, 0, 50, 81
1, 436040, Control_c, 0, 64, 63
1, 436042, Note_on_c, 0, 67, 85
1, 436042, Note_on_c, 0, 79, 87
1, 436043, Note_on_c, 0, 59, 70
1, 436046, Note_on_c, 0, 74, 78
1, 436055, Control_c, 0, 64, 127
1, 436061, Note_off_c, 0, 50, 72
1, 436062, Note_off_c, 0, 67, 71
1, 436063, Note_off_c, 0, 59, 62
1, 436066, Note_off_c, 0, 74, 71
1, 436083, Note_off_c, 0, 79, 65
1, 436200, Note_on_c, 0, 37, 78
1, 436203, Note_on_c, 0, 49, 76
1, 436229, Note_off_c, 0, 49, 65
1, 436230, Note_off_c, 0, 37, 65
1, 436245, Note_on_c, 0, 83, 80
1, 436249, Note_on_c, 0, 79, 78
1, 436251, Note_on_c, 0, 86, 77
1, 436262, Note_off_c, 0, 83, 74
1, 436268, Note_off_c, 0, 79, 69
1, 436269, Note_off_c, 0, 86, 72
1, 436278, Note_on_c, 0, 91, 33
1, 436314, Note_off_c, 0, 91, 36
1, 436314, Note_on_c, 0, 38, 79
1, 436315, Note_on_c, 0, 50, 81
1, 436323, Note_on_c, 0, 86, 64
1, 436333, Note_on_c, 0, 79, 56
1, 436335, Note_off_c, 0, 50, 73
1, 436337, Note_off_c, 0, 38, 65
1, 436340, Note_off_c, 0, 86, 65
1, 436343, Note_on_c, 0, 83, 42
1, 436353, Note_off_c, 0, 79, 62
1, 436370, Note_off_c, 0, 83, 41
1, 436415, Note_on_c, 0, 54, 89
1, 436418, Note_on_c, 0, 42, 79
1, 436438, Note_off_c, 0, 54, 70
1, 436447, Note_off_c, 0, 42, 64
1, 436513, Note_on_c, 0, 55, 90
1, 436515, Note_on_c, 0, 43, 82
1, 436515, Note_on_c, 0, 74, 83
1, 436515, Note_on_c, 0, 79, 81
1, 436515, Note_on_c, 0, 83, 70
1, 436536, Note_off_c, 0, 74, 69
1, 436540, Note_off_c, 0, 55, 65
1, 436541, Note_off_c, 0, 43, 65
1, 436543, Note_off_c, 0, 83, 63
1, 436545, Note_on_c, 0, 86, 42
1, 436546, Note_off_c, 0, 79, 59
1, 436571, Note_off_c, 0, 86, 58
1, 436597, Note_on_c, 0, 79, 74
1, 436601, Note_on_c, 0, 74, 75
1, 436602, Note_on_c, 0, 82, 82
1, 436603, Note_on_c, 0, 44, 67
1, 436607, Note_on_c, 0, 56, 101
1, 436615, Note_on_c, 0, 86, 63
1, 436616, Note_off_c, 0, 74, 71
1, 436620, Note_off_c, 0, 79, 69
1, 436639, Note_off_c, 0, 86, 68
1, 436645, Note_off_c, 0, 82, 66
1, 436646, Note_off_c, 0, 56, 61
1, 436652, Note_off_c, 0, 44, 62
1, 436705, Note_on_c, 0, 57, 88
1, 436707, Note_on_c, 0, 45, 86
1, 436743, Note_off_c, 0, 45, 69
1, 436746, Note_off_c, 0, 57, 63
1, 436814, Note_on_c, 0, 58, 98
1, 436817, Note_on_c, 0, 46, 89
1, 436820, Note_on_c, 0, 91, 89
1, 436822, Note_on_c, 0, 94, 80
1, 436823, Note_on_c, 0, 86, 84
1, 436831, Note_on_c, 0, 98, 75
1, 436841, Note_off_c, 0, 86, 73
1, 436842, Note_off_c, 0, 94, 69
1, 436847, Note_off_c, 0, 98, 69
1, 436850, Note_off_c, 0, 46, 61
1, 436854, Note_off_c, 0, 58, 60
1, 436855, Note_off_c, 0, 91, 63
1, 436909, Note_on_c, 0, 59, 96
1, 436912, Note_on_c, 0, 47, 89
1, 436919, Note_on_c, 0, 86, 92
1, 436921, Note_on_c, 0, 91, 88
1, 436921, Note_on_c, 0, 98, 78
1, 436925, Note_on_c, 0, 94, 82
1, 436941, Note_off_c, 0, 47, 67
1, 436942, Note_off_c, 0, 59, 64
1, 436983, Note_off_c, 0, 86, 55
1, 436986, Note_off_c, 0, 98, 67
1, 436996, Note_off_c, 0, 91, 63
1, 437003, Note_off_c, 0, 94, 63
1, 437010, Note_on_c, 0, 60, 100
1, 437012, Note_on_c, 0, 48, 93
1, 437043, Note_off_c, 0, 60, 68
1, 437046, Note_off_c, 0, 48, 64
1, 437097, Note_on_c, 0, 94, 89
1, 437101, Note_on_c, 0, 88, 83
1, 437111, Note_on_c, 0, 49, 86
1, 437111, Note_on_c, 0, 61, 99
1, 437117, Note_on_c, 0, 100, 56
1, 437121, Note_off_c, 0, 88, 69
1, 437129, Note_on_c, 0, 91, 35
1, 437136, Note_off_c, 0, 100, 62
1, 437142, Note_off_c, 0, 94, 66
1, 437153, Note_off_c, 0, 61, 64
1, 437159, Note_off_c, 0, 49, 62
1, 437162, Note_off_c, 0, 91, 47
1, 437204, Control_c, 0, 64, 83
1, 437218, Control_c, 0, 64, 0
1, 437232, Note_on_c, 0, 90, 105
1, 437237, Note_on_c, 0, 62, 105
1, 437238, Note_on_c, 0, 93, 99
1, 437244, Note_on_c, 0, 94, 72
1, 437244, Note_on_c, 0, 50, 97
1, 437247, Note_on_c, 0, 102, 82
1, 437253, Note_off_c, 0, 93, 71
1, 437259, Note_off_c, 0, 94, 66
1, 437260, Note_off_c, 0, 102, 70
1, 437263, Control_c, 0, 64, 42
1, 437269, Note_off_c, 0, 90, 67
1, 437278, Control_c, 0, 64, 127
1, 437279, Note_on_c, 0, 51, 26
1, 437312, Note_off_c, 0, 51, 59
1, 437473, Note_off_c, 0, 50, 61
1, 437498, Note_on_c, 0, 67, 71
1, 437499, Note_on_c, 0, 69, 72
1, 437508, Note_on_c, 0, 74, 51
1, 437524, Note_off_c, 0, 69, 68
1, 437524, Note_off_c, 0, 67, 64
1, 437525, Note_off_c, 0, 62, 58
1, 437530, Note_off_c, 0, 74, 63
1, 437557, Note_on_c, 0, 74, 95
1, 437560, Note_on_c, 0, 69, 95
1, 437592, Poly_aftertouch_c, 0, 72, 0
1, 437600, Note_off_c, 0, 74, 68
1, 437603, Note_off_c, 0, 69, 62
1, 437765, Note_on_c, 0, 69, 80
1, 437766, Note_on_c, 0, 62, 80
1, 437784, Note_off_c, 0, 69, 67
1, 437793, Note_off_c, 0, 62, 65
1, 437847, Note_on_c, 0, 69, 99
1, 437851, Note_on_c, 0, 62, 92
1, 437887, Note_off_c, 0, 69, 66
1, 437901, Note_off_c, 0, 62, 60
1, 438067, Note_on_c, 0, 57, 90
1, 438072, Note_on_c, 0, 62, 76
1, 438092, Note_off_c, 0, 57, 67
1, 438094, Note_off_c, 0, 62, 67
1, 438138, Note_on_c, 0, 62, 97
1, 438143, Note_on_c, 0, 57, 92
1, 438186, Note_off_c, 0, 57, 66
1, 438207, Note_off_c, 0, 62, 61
1, 438350, Note_on_c, 0, 50, 90
1, 438354, Note_on_c, 0, 57, 82
1, 438374, Note_off_c, 0, 57, 70
1, 438376, Note_off_c, 0, 50, 72
1, 438436, Note_on_c, 0, 57, 94
1, 438439, Note_on_c, 0, 50, 103
1, 438478, Note_off_c, 0, 57, 64
1, 438496, Note_off_c, 0, 50, 67
1, 438665, Note_on_c, 0, 86, 90
1, 438666, Note_on_c, 0, 81, 88
1, 438666, Note_on_c, 0, 93, 93
1, 438693, Note_off_c, 0, 81, 61
1, 438695, Note_off_c, 0, 93, 60
1, 438699, Note_off_c, 0, 86, 60
1, 438703, Control_c, 0, 64, 81
1, 438718, Control_c, 0, 64, 0
1, 438760, Note_on_c, 0, 48, 101
1, 438765, Note_on_c, 0, 81, 110
1, 438765, Note_on_c, 0, 93, 107
1, 438766, Note_on_c, 0, 86, 102
1, 438768, Note_on_c, 0, 38, 96
1, 438791, Control_c, 0, 64, 107
1, 438806, Control_c, 0, 64, 127
1, 438809, Note_off_c, 0, 93, 64
1, 438824, Note_off_c, 0, 86, 68
1, 438827, Note_off_c, 0, 81, 60
1, 438997, Note_on_c, 0, 81, 90
1, 439000, Note_on_c, 0, 76, 89
1, 439005, Note_on_c, 0, 88, 79
1, 439008, Note_off_c, 0, 38, 52
1, 439017, Note_off_c, 0, 81, 65
1, 439018, Note_off_c, 0, 76, 71
1, 439026, Note_off_c, 0, 88, 72
1, 439038, Note_off_c, 0, 48, 63
1, 439076, Note_on_c, 0, 81, 94
1, 439076, Note_on_c, 0, 88, 87
1, 439077, Note_on_c, 0, 76, 94
1, 439107, Note_off_c, 0, 88, 60
1, 439112, Note_off_c, 0, 81, 63
1, 439124, Note_off_c, 0, 76, 61
1, 439263, Note_on_c, 0, 69, 83
1, 439263, Note_on_c, 0, 74, 83
1, 439267, Note_on_c, 0, 60, 80
1, 439267, Note_on_c, 0, 81, 77
1, 439274, Control_c, 0, 64, 73
1, 439276, Note_on_c, 0, 50, 69
1, 439282, Note_off_c, 0, 69, 73
1, 439283, Note_off_c, 0, 74, 72
1, 439285, Note_off_c, 0, 81, 70
1, 439286, Note_off_c, 0, 60, 72
1, 439288, Control_c, 0, 64, 0
1, 439298, Note_off_c, 0, 50, 65
1, 439336, Note_on_c, 0, 60, 89
1, 439343, Note_on_c, 0, 50, 81
1, 439344, Note_on_c, 0, 69, 82
1, 439345, Note_on_c, 0, 74, 86
1, 439345, Note_on_c, 0, 81, 73
1, 439359, Note_off_c, 0, 81, 68
1, 439372, Note_off_c, 0, 50, 69
1, 439372, Note_off_c, 0, 60, 58
1, 439373, Note_off_c, 0, 69, 58
1, 439391, Note_off_c, 0, 74, 64
1, 439507, Note_on_c, 0, 60, 79
1, 439511, Note_on_c, 0, 50, 81
1, 439512, Note_on_c, 0, 66, 87
1, 439515, Note_on_c, 0, 78, 73
1, 439517, Note_on_c, 0, 74, 75
1, 439530, Note_off_c, 0, 60, 69
1, 439545, Note_off_c, 0, 50, 65
1, 439557, Note_off_c, 0, 74, 59
1, 439560, Note_off_c, 0, 78, 59
1, 439563, Note_off_c, 0, 66, 61
1, 439670, Note_on_c, 0, 59, 91
1, 439671, Note_on_c, 0, 67, 95
1, 439671, Note_on_c, 0, 74, 83
1, 439672, Note_on_c, 0, 50, 87
1, 439673, Note_on_c, 0, 79, 94
1, 439673, Control_c, 0, 64, 67
1, 439686, Note_off_c, 0, 59, 72
1, 439688, Note_off_c, 0, 67, 70
1, 439688, Control_c, 0, 64, 127
1, 439692, Note_off_c, 0, 74, 72
1, 439694, Note_off_c, 0, 50, 72
1, 439716, Note_off_c, 0, 79, 62
1, 439791, Note_on_c, 0, 50, 27
1, 439804, Note_off_c, 0, 50, 0
1, 439804, Note_on_c, 0, 50, 30
1, 439844, Note_off_c, 0, 50, 46
1, 439888, Note_on_c, 0, 54, 73
1, 439891, Note_on_c, 0, 66, 77
1, 439914, Note_off_c, 0, 66, 68
1, 439915, Note_off_c, 0, 54, 66
1, 439924, Note_on_c, 0, 83, 83
1, 439926, Note_on_c, 0, 86, 75
1, 439931, Note_on_c, 0, 79, 76
1, 439940, Note_on_c, 0, 91, 59
1, 439944, Note_off_c, 0, 83, 68
1, 439945, Note_off_c, 0, 79, 69
1, 439947, Note_off_c, 0, 86, 71
1, 439959, Note_off_c, 0, 91, 62
1, 440004, Note_on_c, 0, 79, 88
1, 440011, Note_on_c, 0, 67, 85
1, 440013, Note_on_c, 0, 55, 83
1, 440013, Note_on_c, 0, 83, 77
1, 440015, Note_on_c, 0, 86, 80
1, 440028, Note_off_c, 0, 67, 72
1, 440031, Note_off_c, 0, 83, 73
1, 440035, Note_off_c, 0, 55, 70
1, 440036, Note_off_c, 0, 86, 69
1, 440055, Note_off_c, 0, 79, 61
1, 440111, Poly_aftertouch_c, 0, 91, 0
1, 440125, Note_on_c, 0, 50, 82
1, 440128, Note_on_c, 0, 62, 72
1, 440148, Note_off_c, 0, 50, 69
1, 440149, Note_off_c, 0, 62, 64
1, 440222, Note_on_c, 0, 83, 50
1, 440228, Note_on_c, 0, 79, 83
1, 440230, Note_on_c, 0, 74, 76
1, 440235, Note_on_c, 0, 60, 67
1, 440242, Note_on_c, 0, 86, 54
1, 440246, Note_on_c, 0, 48, 46
1, 440250, Note_on_c, 0, 47, 48
1, 440252, Note_off_c, 0, 74, 72
1, 440254, Note_off_c, 0, 60, 65
1, 440260, Note_off_c, 0, 83, 65
1, 440263, Note_off_c, 0, 86, 64
1, 440272, Note_off_c, 0, 79, 59
1, 440278, Note_off_c, 0, 48, 54
1, 440281, Note_off_c, 0, 47, 56
1, 440311, Poly_aftertouch_c, 0, 79, 0
1, 440317, Note_on_c, 0, 82, 92
1, 440317, Note_on_c, 0, 58, 97
1, 440318, Note_on_c, 0, 74, 93
1, 440319, Note_on_c, 0, 79, 70
1, 440320, Note_on_c, 0, 46, 88
1, 440324, Note_on_c, 0, 86, 82
1, 440337, Note_off_c, 0, 58, 69
1, 440338, Note_off_c, 0, 74, 68
1, 440347, Note_off_c, 0, 46, 65
1, 440358, Note_off_c, 0, 79, 63
1, 440372, Note_off_c, 0, 86, 66
1, 440375, Note_off_c, 0, 82, 65
1, 440414, Note_on_c, 0, 57, 92
1, 440419, Note_on_c, 0, 45, 83
1, 440440, Note_off_c, 0, 57, 62
1, 440447, Note_off_c, 0, 45, 69
1, 440527, Note_on_c, 0, 91, 96
1, 440528, Note_on_c, 0, 94, 90
1, 440529, Note_on_c, 0, 86, 96
1, 440532, Note_on_c, 0, 98, 86
1, 440532, Note_on_c, 0, 55, 94
1, 440534, Note_on_c, 0, 43, 88
1, 440548, Note_on_c, 0, 96, 72
1, 440549, Note_off_c, 0, 86, 68
1, 440555, Note_off_c, 0, 55, 68
1, 440558, Note_off_c, 0, 43, 69
1, 440566, Note_off_c, 0, 91, 65
1, 440567, Note_off_c, 0, 96, 40
1, 440569, Note_off_c, 0, 94, 64
1, 440569, Note_off_c, 0, 98, 65
1, 440630, Note_on_c, 0, 54, 100
1, 440631, Note_on_c, 0, 86, 98
1, 440633, Note_on_c, 0, 42, 93
1, 440633, Note_on_c, 0, 91, 94
1, 440637, Note_on_c, 0, 94, 83
1, 440642, Note_on_c, 0, 98, 86
1, 440666, Note_off_c, 0, 54, 66
1, 440667, Note_off_c, 0, 42, 62
1, 440693, Note_off_c, 0, 86, 57
1, 440698, Note_off_c, 0, 98, 66
1, 440707, Note_off_c, 0, 91, 63
1, 440713, Note_off_c, 0, 94, 65
1, 440732, Note_on_c, 0, 52, 98
1, 440740, Note_on_c, 0, 40, 92
1, 440760, Note_off_c, 0, 52, 67
1, 440776, Note_off_c, 0, 40, 59
1, 440791, Note_on_c, 0, 94, 98
1, 440797, Note_on_c, 0, 88, 87
1, 440804, Note_on_c, 0, 91, 68
1, 440806, Note_on_c, 0, 100, 74
1, 440815, Note_off_c, 0, 88, 73
1, 440821, Note_on_c, 0, 97, 51
1, 440821, Note_off_c, 0, 91, 66
1, 440831, Note_off_c, 0, 94, 68
1, 440831, Control_c, 0, 64, 93
1, 440841, Note_off_c, 0, 100, 61
1, 440843, Note_off_c, 0, 97, 61
1, 440846, Control_c, 0, 64, 59
1, 440860, Note_on_c, 0, 50, 96
1, 440860, Control_c, 0, 64, 0
1, 440868, Note_on_c, 0, 38, 83
1, 440910, Note_off_c, 0, 50, 64
1, 440911, Note_on_c, 0, 94, 60
1, 440921, Note_off_c, 0, 38, 59
1, 440930, Note_off_c, 0, 94, 66
1, 440972, Note_on_c, 0, 102, 106
1, 440973, Note_on_c, 0, 93, 93
1, 440974, Note_on_c, 0, 90, 103
1, 440979, Control_c, 0, 64, 127
1, 440991, Note_on_c, 0, 94, 65
1, 440992, Note_off_c, 0, 94, 127
1, 441006, Note_off_c, 0, 93, 68
1, 441012, Note_off_c, 0, 102, 61
1, 441015, Note_off_c, 0, 90, 67
1, 441062, Note_on_c, 0, 49, 69
1, 441064, Note_on_c, 0, 37, 69
1, 441089, Note_off_c, 0, 49, 65
1, 441093, Note_off_c, 0, 37, 65
1, 441167, Note_on_c, 0, 38, 73
1, 441171, Note_on_c, 0, 50, 67
1, 441193, Note_off_c, 0, 38, 64
1, 441201, Note_off_c, 0, 50, 66
1, 441283, Note_on_c, 0, 42, 68
1, 441285, Note_on_c, 0, 54, 70
1, 441309, Note_off_c, 0, 42, 65
1, 441310, Note_off_c, 0, 54, 67
1, 441380, Note_on_c, 0, 43, 76
1, 441388, Note_on_c, 0, 55, 62
1, 441411, Note_off_c, 0, 43, 64
1, 441415, Note_off_c, 0, 55, 64
1, 441497, Note_on_c, 0, 56, 75
1, 441501, Note_on_c, 0, 44, 68
1, 441523, Note_off_c, 0, 56, 66
1, 441529, Note_off_c, 0, 44, 64
1, 441545, Note_on_c, 0, 81, 81
1, 441549, Note_on_c, 0, 78, 77
1, 441549, Note_on_c, 0, 86, 69
1, 441564, Note_off_c, 0, 78, 69
1, 441564, Note_off_c, 0, 81, 71
1, 441575, Note_off_c, 0, 86, 68
1, 441608, Note_on_c, 0, 78, 96
1, 441612, Note_on_c, 0, 45, 73
1, 441616, Note_on_c, 0, 86, 77
1, 441616, Note_on_c, 0, 90, 80
1, 441617, Note_on_c, 0, 57, 65
1, 441619, Note_on_c, 0, 81, 82
1, 441635, Note_off_c, 0, 45, 66
1, 441647, Note_off_c, 0, 57, 65
1, 441715, Note_on_c, 0, 58, 85
1, 441719, Note_on_c, 0, 46, 80
1, 441746, Note_off_c, 0, 46, 63
1, 441746, Note_off_c, 0, 58, 60
1, 441808, Note_on_c, 0, 59, 92
1, 441810, Note_on_c, 0, 47, 87
1, 441835, Note_off_c, 0, 59, 60
1, 441837, Note_off_c, 0, 47, 69
1, 441865, Note_off_c, 0, 81, 56
1, 441867, Note_off_c, 0, 78, 62
1, 441902, Note_off_c, 0, 86, 60
1, 441906, Note_on_c, 0, 60, 97
1, 441909, Note_on_c, 0, 48, 86
1, 441913, Poly_aftertouch_c, 0, 51, 0
1, 441915, Note_off_c, 0, 90, 61
1, 441937, Note_off_c, 0, 48, 66
1, 441939, Note_off_c, 0, 60, 66
1, 441945, Note_on_c, 0, 49, 37
1, 441986, Note_off_c, 0, 49, 54
1, 442013, Note_on_c, 0, 61, 100
1, 442016, Note_on_c, 0, 49, 82
1, 442050, Note_off_c, 0, 61, 67
1, 442061, Note_off_c, 0, 49, 61
1, 442110, Note_on_c, 0, 62, 95
1, 442114, Note_on_c, 0, 50, 84
1, 442140, Note_off_c, 0, 62, 59
1, 442150, Control_c, 0, 64, 78
1, 442165, Control_c, 0, 64, 0
1, 442165, Note_off_c, 0, 50, 66
1, 442166, Note_on_c, 0, 51, 16
1, 442206, Note_on_c, 0, 79, 103
1, 442206, Note_on_c, 0, 88, 89
1, 442207, Note_on_c, 0, 91, 100
1, 442209, Note_on_c, 0, 84, 81
1, 442218, Note_off_c, 0, 51, 37
1, 442254, Control_c, 0, 64, 96
1, 442260, Note_off_c, 0, 91, 67
1, 442269, Control_c, 0, 64, 127
1, 442280, Note_off_c, 0, 88, 64
1, 442287, Note_off_c, 0, 84, 63
1, 442295, Note_off_c, 0, 79, 60
1, 442307, Note_on_c, 0, 47, 70
1, 442310, Note_on_c, 0, 35, 68
1, 442331, Note_off_c, 0, 47, 68
1, 442339, Note_off_c, 0, 35, 65
1, 442415, Note_on_c, 0, 48, 78
1, 442419, Note_on_c, 0, 36, 67
1, 442442, Note_off_c, 0, 48, 65
1, 442445, Note_off_c, 0, 36, 56
1, 442520, Note_on_c, 0, 52, 76
1, 442523, Note_on_c, 0, 40, 76
1, 442546, Note_off_c, 0, 52, 66
1, 442551, Note_off_c, 0, 40, 65
1, 442627, Note_on_c, 0, 53, 79
1, 442629, Note_on_c, 0, 41, 70
1, 442650, Note_off_c, 0, 53, 68
1, 442655, Note_off_c, 0, 41, 63
1, 442718, Note_on_c, 0, 42, 67
1, 442732, Note_on_c, 0, 54, 81
1, 442758, Note_on_c, 0, 67, 91
1, 442758, Note_off_c, 0, 54, 68
1, 442762, Note_on_c, 0, 72, 80
1, 442762, Note_off_c, 0, 42, 63
1, 442764, Note_on_c, 0, 76, 76
1, 442777, Note_off_c, 0, 67, 71
1, 442782, Note_off_c, 0, 72, 71
1, 442787, Note_off_c, 0, 76, 68
1, 442792, Note_on_c, 0, 79, 30
1, 442827, Note_off_c, 0, 79, 0
1, 442827, Note_on_c, 0, 79, 60
1, 442831, Note_on_c, 0, 67, 101
1, 442833, Note_on_c, 0, 55, 94
1, 442834, Note_on_c, 0, 72, 93
1, 442834, Note_on_c, 0, 76, 89
1, 442836, Note_on_c, 0, 43, 81
1, 442860, Note_off_c, 0, 55, 65
1, 442863, Note_off_c, 0, 43, 64
1, 442872, Note_on_c, 0, 44, 26
1, 442915, Note_off_c, 0, 44, 49
1, 442938, Note_on_c, 0, 44, 75
1, 442939, Note_on_c, 0, 56, 91
1, 442973, Note_off_c, 0, 56, 62
1, 442977, Note_off_c, 0, 44, 65
1, 443031, Note_on_c, 0, 57, 91
1, 443038, Note_on_c, 0, 45, 80
1, 443049, Note_off_c, 0, 67, 54
1, 443061, Note_on_c, 0, 46, 49
1, 443068, Note_off_c, 0, 45, 66
1, 443070, Note_off_c, 0, 57, 60
1, 443094, Note_off_c, 0, 46, 53
1, 443116, Note_off_c, 0, 72, 60
1, 443134, Note_off_c, 0, 76, 61
1, 443134, Note_on_c, 0, 58, 96
1, 443140, Note_on_c, 0, 46, 87
1, 443145, Note_off_c, 0, 79, 62
1, 443171, Note_off_c, 0, 46, 63
1, 443171, Note_off_c, 0, 58, 63
1, 443226, Note_on_c, 0, 59, 93
1, 443232, Note_on_c, 0, 47, 87
1, 443262, Note_off_c, 0, 47, 66
1, 443262, Note_off_c, 0, 59, 65
1, 443328, Note_on_c, 0, 60, 98
1, 443333, Note_on_c, 0, 48, 92
1, 443359, Note_off_c, 0, 60, 67
1, 443372, Note_off_c, 0, 48, 62
1, 443388, Control_c, 0, 64, 102
1, 443403, Control_c, 0, 64, 0
1, 443414, Note_on_c, 0, 82, 110
1, 443415, Note_on_c, 0, 86, 85
1, 443417, Poly_aftertouch_c, 0, 49, 0
1, 443420, Note_on_c, 0, 94, 93
1, 443422, Note_on_c, 0, 89, 82
1, 443462, Control_c, 0, 64, 127
1, 443468, Note_on_c, 0, 92, 19
1, 443480, Note_off_c, 0, 94, 69
1, 443501, Note_off_c, 0, 86, 64
1, 443501, Note_off_c, 0, 89, 62
1, 443504, Note_off_c, 0, 82, 59
1, 443513, Note_off_c, 0, 92, 43
1, 443526, Note_on_c, 0, 45, 84
1, 443529, Note_on_c, 0, 33, 81
1, 443550, Note_off_c, 0, 45, 67
1, 443554, Note_off_c, 0, 33, 64
1, 443629, Note_on_c, 0, 46, 86
1, 443629, Note_on_c, 0, 34, 72
1, 443652, Note_off_c, 0, 46, 65
1, 443656, Note_off_c, 0, 34, 63
1, 443730, Note_on_c, 0, 50, 85
1, 443732, Note_on_c, 0, 38, 77
1, 443756, Note_off_c, 0, 50, 70
1, 443757, Note_off_c, 0, 38, 65
1, 443760, Poly_aftertouch_c, 0, 46, 127
1, 443793, Poly_aftertouch_c, 0, 46, 0
1, 443836, Note_on_c, 0, 39, 78
1, 443837, Note_on_c, 0, 51, 82
1, 443864, Note_off_c, 0, 51, 68
1, 443872, Note_off_c, 0, 39, 61
1, 443915, Note_on_c, 0, 70, 101
1, 443925, Note_on_c, 0, 74, 76
1, 443925, Note_on_c, 0, 77, 76
1, 443932, Note_off_c, 0, 70, 72
1, 443943, Note_on_c, 0, 52, 79
1, 443945, Note_on_c, 0, 40, 76
1, 443948, Note_off_c, 0, 77, 71
1, 443951, Note_off_c, 0, 74, 69
1, 443965, Note_on_c, 0, 82, 15
1, 443969, Note_off_c, 0, 40, 65
1, 443970, Note_off_c, 0, 52, 65
1, 443999, Note_on_c, 0, 70, 103
1, 443999, Note_off_c, 0, 82, 0
1, 443999, Note_on_c, 0, 82, 32
1, 444009, Note_on_c, 0, 74, 81
1, 444013, Note_on_c, 0, 77, 75
1, 444039, Note_on_c, 0, 53, 85
1, 444043, Note_on_c, 0, 41, 77
1, 444061, Note_off_c, 0, 53, 70
1, 444071, Note_off_c, 0, 41, 64
1, 444122, Poly_aftertouch_c, 0, 42, 127
1, 444130, Note_on_c, 0, 42, 37
1, 444136, Note_on_c, 0, 54, 92
1, 444177, Note_off_c, 0, 54, 63
1, 444180, Note_off_c, 0, 42, 63
1, 444246, Note_on_c, 0, 55, 90
1, 444247, Note_on_c, 0, 43, 82
1, 444269, Note_off_c, 0, 55, 70
1, 444279, Note_off_c, 0, 43, 67
1, 444285, Note_on_c, 0, 44, 24
1, 444304, Note_off_c, 0, 70, 56
1, 444308, Note_off_c, 0, 74, 61
1, 444311, Note_off_c, 0, 77, 59
1, 444317, Note_off_c, 0, 44, 0
1, 444332, Note_on_c, 0, 44, 64
1, 444336, Note_on_c, 0, 56, 97
1, 444366, Note_off_c, 0, 82, 61
1, 444375, Note_off_c, 0, 56, 68
1, 444389, Note_off_c, 0, 44, 62
1, 444426, Note_on_c, 0, 57, 95
1, 444426, Poly_aftertouch_c, 0, 54, 127
1, 444437, Note_on_c, 0, 45, 79
1, 444449, Poly_aftertouch_c, 0, 54, 0
1, 444460, Note_off_c, 0, 45, 69
1, 444463, Note_off_c, 0, 57, 58
1, 444505, Poly_aftertouch_c, 0, 46, 0
1, 444520, Note_on_c, 0, 46, 33
1, 444520, Note_on_c, 0, 58, 97
1, 444529, Control_c, 0, 64, 121
1, 444544, Control_c, 0, 64, 67
1, 444550, Note_off_c, 0, 58, 62
1, 444559, Control_c, 0, 64, 0
1, 444569, Note_off_c, 0, 46, 62
1, 444604, Note_on_c, 0, 72, 99
1, 444604, Note_on_c, 0, 80, 89
1, 444606, Note_on_c, 0, 75, 84
1, 444609, Note_on_c, 0, 84, 80
1, 444630, Note_off_c, 0, 84, 70
1, 444632, Note_off_c, 0, 72, 65
1, 444634, Note_off_c, 0, 75, 60
1, 444637, Note_off_c, 0, 80, 64
1, 444677, Control_c, 0, 64, 52
1, 444692, Control_c, 0, 64, 66
1, 444707, Control_c, 0, 64, 69
1, 444709, Note_on_c, 0, 31, 81
1, 444718, Note_on_c, 0, 43, 63
1, 444722, Control_c, 0, 64, 76
1, 444732, Note_off_c, 0, 31, 65
1, 444736, Control_c, 0, 64, 87
1, 444742, Note_off_c, 0, 43, 60
1, 444752, Control_c, 0, 64, 103
1, 444767, Control_c, 0, 64, 127
1, 444803, Note_on_c, 0, 44, 84
1, 444805, Note_on_c, 0, 32, 73
1, 444826, Control_c, 0, 64, 105
1, 444830, Note_off_c, 0, 44, 66
1, 444838, Note_off_c, 0, 32, 63
1, 444841, Control_c, 0, 64, 81
1, 444856, Control_c, 0, 64, 64
1, 444871, Control_c, 0, 64, 0
1, 444900, Control_c, 0, 64, 55
1, 444912, Note_on_c, 0, 60, 82
1, 444914, Note_on_c, 0, 68, 69
1, 444915, Note_on_c, 0, 72, 71
1, 444915, Control_c, 0, 64, 71
1, 444927, Note_on_c, 0, 63, 59
1, 444930, Control_c, 0, 64, 81
1, 444944, Control_c, 0, 64, 93
1, 444951, Note_off_c, 0, 60, 56
1, 444958, Note_off_c, 0, 63, 64
1, 444958, Note_off_c, 0, 72, 60
1, 444959, Control_c, 0, 64, 105
1, 444982, Control_c, 0, 64, 119
1, 444982, Note_off_c, 0, 68, 61
1, 444997, Control_c, 0, 64, 127
1, 445009, Note_on_c, 0, 43, 74
1, 445010, Note_on_c, 0, 55, 71
1, 445036, Note_off_c, 0, 43, 65
1, 445039, Note_off_c, 0, 55, 65
1, 445100, Note_on_c, 0, 56, 83
1, 445111, Note_on_c, 0, 44, 69
1, 445126, Note_off_c, 0, 56, 66
1, 445141, Note_off_c, 0, 44, 65
1, 445145, Control_c, 0, 64, 112
1, 445159, Control_c, 0, 64, 87
1, 445174, Control_c, 0, 64, 71
1, 445189, Control_c, 0, 64, 61
1, 445199, Note_on_c, 0, 61, 85
1, 445203, Note_on_c, 0, 70, 76
1, 445204, Control_c, 0, 64, 65
1, 445206, Note_on_c, 0, 73, 80
1, 445211, Note_on_c, 0, 66, 65
1, 445219, Control_c, 0, 64, 72
1, 445221, Note_off_c, 0, 61, 69
1, 445233, Control_c, 0, 64, 81
1, 445241, Note_off_c, 0, 66, 65
1, 445248, Control_c, 0, 64, 98
1, 445259, Note_off_c, 0, 70, 64
1, 445263, Control_c, 0, 64, 127
1, 445266, Note_off_c, 0, 73, 64
1, 445293, Note_on_c, 0, 41, 77
1, 445293, Note_on_c, 0, 53, 78
1, 445318, Note_off_c, 0, 41, 65
1, 445319, Note_off_c, 0, 53, 67
1, 445383, Note_on_c, 0, 54, 87
1, 445387, Note_on_c, 0, 42, 81
1, 445406, Note_off_c, 0, 54, 71
1, 445421, Note_off_c, 0, 42, 66
1, 445426, Control_c, 0, 64, 87
1, 445441, Control_c, 0, 64, 0
1, 445468, Note_on_c, 0, 73, 96
1, 445472, Note_on_c, 0, 82, 84
1, 445474, Note_on_c, 0, 78, 82
1, 445474, Note_on_c, 0, 85, 81
1, 445515, Control_c, 0, 64, 55
1, 445530, Control_c, 0, 64, 72
1, 445535, Note_off_c, 0, 73, 60
1, 445537, Note_off_c, 0, 78, 64
1, 445545, Control_c, 0, 64, 84
1, 445560, Control_c, 0, 64, 104
1, 445568, Note_off_c, 0, 82, 63
1, 445569, Note_off_c, 0, 85, 63
1, 445572, Note_on_c, 0, 41, 78
1, 445573, Note_on_c, 0, 29, 79
1, 445575, Control_c, 0, 64, 127
1, 445599, Note_off_c, 0, 41, 65
1, 445600, Note_off_c, 0, 29, 65
1, 445648, Note_on_c, 0, 30, 62
1, 445653, Note_on_c, 0, 42, 88
1, 445679, Control_c, 0, 64, 115
1, 445686, Note_off_c, 0, 30, 62
1, 445688, Note_off_c, 0, 42, 63
1, 445694, Control_c, 0, 64, 83
1, 445709, Control_c, 0, 64, 61
1, 445730, Control_c, 0, 64, 0
1, 445759, Note_on_c, 0, 83, 85
1, 445760, Note_on_c, 0, 76, 96
1, 445765, Note_on_c, 0, 88, 82
1, 445775, Control_c, 0, 64, 65
1, 445780, Note_on_c, 0, 80, 55
1, 445784, Note_off_c, 0, 88, 68
1, 445790, Control_c, 0, 64, 76
1, 445799, Note_off_c, 0, 83, 63
1, 445801, Note_off_c, 0, 80, 64
1, 445804, Control_c, 0, 64, 91
1, 445814, Note_off_c, 0, 76, 64
1, 445819, Control_c, 0, 64, 127
1, 445850, Note_on_c, 0, 51, 79
1, 445852, Note_on_c, 0, 39, 70
1, 445876, Note_off_c, 0, 51, 66
1, 445879, Note_off_c, 0, 39, 63
1, 445942, Note_on_c, 0, 52, 80
1, 445949, Note_on_c, 0, 40, 67
1, 445969, Note_off_c, 0, 52, 65
1, 445974, Note_off_c, 0, 40, 60
1, 445977, Note_on_c, 0, 39, 16
1, 445996, Control_c, 0, 64, 91
1, 446011, Control_c, 0, 64, 72
1, 446024, Note_off_c, 0, 39, 46
1, 446026, Control_c, 0, 64, 49
1, 446040, Note_on_c, 0, 76, 78
1, 446040, Note_on_c, 0, 71, 76
1, 446041, Control_c, 0, 64, 42
1, 446043, Note_on_c, 0, 68, 72
1, 446055, Control_c, 0, 64, 65
1, 446070, Control_c, 0, 64, 73
1, 446085, Control_c, 0, 64, 82
1, 446100, Control_c, 0, 64, 97
1, 446115, Control_c, 0, 64, 127
1, 446127, Note_off_c, 0, 76, 59
1, 446128, Note_on_c, 0, 63, 79
1, 446136, Note_off_c, 0, 68, 59
1, 446139, Note_on_c, 0, 51, 66
1, 446151, Note_off_c, 0, 63, 70
1, 446166, Note_off_c, 0, 51, 65
1, 446221, Note_on_c, 0, 64, 87
1, 446227, Note_on_c, 0, 52, 76
1, 446230, Note_off_c, 0, 71, 53
1, 446263, Control_c, 0, 64, 96
1, 446264, Note_off_c, 0, 64, 64
1, 446278, Control_c, 0, 64, 74
1, 446280, Note_off_c, 0, 52, 61
1, 446292, Control_c, 0, 64, 42
1, 446304, Note_on_c, 0, 69, 84
1, 446306, Note_on_c, 0, 78, 88
1, 446307, Control_c, 0, 64, 0
1, 446311, Note_on_c, 0, 74, 73
1, 446322, Control_c, 0, 64, 60
1, 446327, Note_off_c, 0, 69, 67
1, 446337, Control_c, 0, 64, 72
1, 446346, Note_off_c, 0, 74, 69
1, 446353, Control_c, 0, 64, 84
1, 446364, Note_off_c, 0, 78, 67
1, 446368, Control_c, 0, 64, 107
1, 446383, Control_c, 0, 64, 127
1, 446397, Note_on_c, 0, 49, 85
1, 446401, Note_on_c, 0, 61, 84
1, 446421, Note_off_c, 0, 61, 69
1, 446424, Note_off_c, 0, 49, 67
1, 446498, Note_on_c, 0, 62, 88
1, 446505, Note_on_c, 0, 50, 80
1, 446528, Note_off_c, 0, 62, 59
1, 446537, Note_on_c, 0, 51, 52
1, 446547, Note_off_c, 0, 50, 62
1, 446568, Note_off_c, 0, 51, 60
1, 446589, Note_on_c, 0, 86, 89
1, 446589, Note_on_c, 0, 90, 97
1, 446592, Note_on_c, 0, 81, 85
1, 446684, Note_on_c, 0, 49, 92
1, 446685, Note_on_c, 0, 37, 82
1, 446706, Note_off_c, 0, 49, 71
1, 446714, Note_off_c, 0, 37, 65
1, 446727, Note_off_c, 0, 81, 55
1, 446732, Note_off_c, 0, 90, 62
1, 446779, Note_on_c, 0, 50, 99
1, 446783, Note_on_c, 0, 38, 88
1, 446784, Note_off_c, 0, 86, 56
1, 446804, Control_c, 0, 64, 107
1, 446819, Control_c, 0, 64, 71
1, 446822, Note_on_c, 0, 39, 29
1, 446834, Control_c, 0, 64, 0
1, 446854, Note_off_c, 0, 50, 64
1, 446859, Note_on_c, 0, 79, 102
1, 446863, Note_on_c, 0, 84, 74
1, 446863, Note_on_c, 0, 88, 88
1, 446863, Note_off_c, 0, 39, 52
1, 446864, Control_c, 0, 64, 52
1, 446867, Note_on_c, 0, 91, 81
1, 446872, Note_off_c, 0, 38, 63
1, 446878, Control_c, 0, 64, 71
1, 446886, Note_on_c, 0, 87, 48
1, 446886, Note_off_c, 0, 91, 71
1, 446889, Note_off_c, 0, 84, 64
1, 446893, Control_c, 0, 64, 88
1, 446896, Note_off_c, 0, 88, 63
1, 446908, Note_off_c, 0, 79, 64
1, 446908, Control_c, 0, 64, 127
1, 446914, Note_off_c, 0, 87, 35
1, 446955, Note_on_c, 0, 47, 84
1, 446958, Note_on_c, 0, 35, 80
1, 446982, Note_off_c, 0, 47, 69
1, 446982, Note_off_c, 0, 35, 66
1, 447043, Note_on_c, 0, 48, 91
1, 447046, Note_on_c, 0, 36, 83
1, 447073, Note_off_c, 0, 48, 66
1, 447075, Note_off_c, 0, 36, 65
1, 447131, Note_on_c, 0, 67, 99
1, 447137, Note_on_c, 0, 76, 86
1, 447138, Note_on_c, 0, 72, 80
1, 447141, Note_on_c, 0, 79, 86
1, 447173, Note_off_c, 0, 67, 63
1, 447184, Note_off_c, 0, 72, 59
1, 447196, Note_off_c, 0, 76, 60
1, 447202, Note_off_c, 0, 79, 61
1, 447213, Note_on_c, 0, 59, 95
1, 447225, Note_on_c, 0, 47, 89
1, 447242, Note_off_c, 0, 59, 65
1, 447248, Note_off_c, 0, 47, 68
1, 447319, Note_on_c, 0, 60, 100
1, 447325, Note_on_c, 0, 48, 86
1, 447352, Note_off_c, 0, 60, 67
1, 447356, Note_off_c, 0, 48, 63
1, 447363, Note_on_c, 0, 50, 38
1, 447364, Note_off_c, 0, 50, 127
1, 447403, Note_on_c, 0, 70, 102
1, 447403, Poly_aftertouch_c, 0, 50, 0
1, 447412, Note_on_c, 0, 77, 81
1, 447412, Note_on_c, 0, 82, 94
1, 447415, Note_on_c, 0, 74, 75
1, 447437, Note_off_c, 0, 74, 71
1, 447440, Note_on_c, 0, 80, 53
1, 447441, Note_off_c, 0, 70, 66
1, 447450, Note_off_c, 0, 77, 58
1, 447462, Note_off_c, 0, 80, 62
1, 447474, Note_off_c, 0, 82, 66
1, 447494, Note_on_c, 0, 57, 96
1, 447495, Note_on_c, 0, 45, 91
1, 447515, Note_off_c, 0, 57, 68
1, 447520, Note_off_c, 0, 45, 68
1, 447587, Note_on_c, 0, 58, 99
1, 447589, Note_on_c, 0, 46, 92
1, 447607, Note_off_c, 0, 58, 69
1, 447626, Note_off_c, 0, 46, 59
1, 447675, Note_on_c, 0, 82, 101
1, 447677, Note_on_c, 0, 86, 86
1, 447680, Note_on_c, 0, 89, 89
1, 447680, Note_on_c, 0, 94, 94
1, 447701, Note_on_c, 0, 92, 64
1, 447721, Note_off_c, 0, 86, 64
1, 447728, Note_off_c, 0, 89, 62
1, 447728, Note_off_c, 0, 92, 69
1, 447749, Note_off_c, 0, 82, 61
1, 447764, Note_off_c, 0, 94, 66
1, 447771, Note_on_c, 0, 45, 97
1, 447779, Note_on_c, 0, 33, 76
1, 447789, Note_on_c, 0, 35, 61
1, 447799, Note_off_c, 0, 45, 64
1, 447814, Note_off_c, 0, 33, 61
1, 447814, Note_off_c, 0, 35, 60
1, 447857, Note_on_c, 0, 34, 71
1, 447862, Note_on_c, 0, 46, 100
1, 447894, Control_c, 0, 64, 115
1, 447906, Note_off_c, 0, 46, 59
1, 447909, Control_c, 0, 64, 67
1, 447921, Note_off_c, 0, 34, 62
1, 447924, Control_c, 0, 64, 0
1, 447937, Note_on_c, 0, 84, 103
1, 447941, Note_on_c, 0, 96, 99
1, 447942, Note_on_c, 0, 92, 93
1, 447942, Note_on_c, 0, 87, 94
1, 447955, Note_off_c, 0, 96, 75
1, 447961, Note_on_c, 0, 94, 65
1, 447978, Note_off_c, 0, 87, 63
1, 447981, Note_off_c, 0, 84, 69
1, 447982, Note_off_c, 0, 92, 66
1, 447987, Note_off_c, 0, 94, 63
1, 447992, Control_c, 0, 64, 127
1, 448043, Note_on_c, 0, 31, 94
1, 448043, Note_on_c, 0, 43, 90
1, 448073, Note_off_c, 0, 31, 67
1, 448073, Note_off_c, 0, 43, 67
1, 448130, Note_on_c, 0, 32, 67
1, 448130, Note_on_c, 0, 44, 85
1, 448167, Note_off_c, 0, 32, 62
1, 448167, Note_off_c, 0, 44, 60
1, 448170, Control_c, 0, 64, 92
1, 448184, Control_c, 0, 64, 32
1, 448199, Control_c, 0, 64, 0
1, 448214, Control_c, 0, 64, 67
1, 448229, Control_c, 0, 64, 87
1, 448230, Note_on_c, 0, 72, 83
1, 448232, Note_on_c, 0, 80, 74
1, 448235, Note_on_c, 0, 75, 69
1, 448240, Note_on_c, 0, 84, 63
1, 448244, Control_c, 0, 64, 127
1, 448247, Note_on_c, 0, 86, 69
1, 448249, Note_off_c, 0, 72, 71
1, 448255, Note_off_c, 0, 80, 66
1, 448258, Note_off_c, 0, 75, 69
1, 448266, Note_off_c, 0, 86, 68
1, 448274, Note_off_c, 0, 84, 65
1, 448313, Note_on_c, 0, 50, 80
1, 448315, Note_on_c, 0, 38, 79
1, 448338, Note_off_c, 0, 50, 69
1, 448342, Note_off_c, 0, 38, 65
1, 448403, Note_on_c, 0, 51, 95
1, 448404, Note_on_c, 0, 39, 79
1, 448436, Note_off_c, 0, 39, 64
1, 448436, Note_off_c, 0, 51, 61
1, 448483, Note_on_c, 0, 84, 93
1, 448485, Note_on_c, 0, 92, 83
1, 448488, Note_on_c, 0, 96, 82
1, 448489, Note_on_c, 0, 87, 83
1, 448499, Note_off_c, 0, 92, 43
1, 448500, Note_off_c, 0, 96, 73
1, 448507, Note_off_c, 0, 87, 73
1, 448520, Note_off_c, 0, 84, 61
1, 448568, Note_on_c, 0, 43, 84
1, 448569, Note_on_c, 0, 55, 83
1, 448591, Note_off_c, 0, 55, 69
1, 448595, Note_off_c, 0, 43, 64
1, 448656, Note_on_c, 0, 56, 103
1, 448665, Note_on_c, 0, 44, 81
1, 448688, Note_off_c, 0, 44, 66
1, 448694, Note_off_c, 0, 56, 61
1, 448752, Note_on_c, 0, 72, 96
1, 448753, Note_on_c, 0, 75, 88
1, 448755, Note_on_c, 0, 80, 87
1, 448756, Note_on_c, 0, 84, 88
1, 448772, Note_off_c, 0, 72, 63
1, 448788, Note_off_c, 0, 75, 60
1, 448795, Note_off_c, 0, 80, 64
1, 448807, Note_off_c, 0, 84, 68
1, 448834, Note_on_c, 0, 62, 83
1, 448835, Note_on_c, 0, 50, 87
1, 448840, Poly_aftertouch_c, 0, 82, 127
1, 448858, Note_off_c, 0, 62, 65
1, 448860, Note_off_c, 0, 50, 72
1, 448863, Poly_aftertouch_c, 0, 82, 0
1, 448929, Note_on_c, 0, 63, 100
1, 448932, Note_on_c, 0, 51, 87
1, 448961, Note_off_c, 0, 51, 67
1, 448971, Note_off_c, 0, 63, 62
1, 449005, Note_on_c, 0, 84, 105
1, 449007, Note_on_c, 0, 92, 97
1, 449009, Note_on_c, 0, 96, 98
1, 449009, Note_on_c, 0, 87, 93
1, 449025, Note_off_c, 0, 96, 72
1, 449037, Control_c, 0, 64, 97
1, 449038, Note_on_c, 0, 94, 44
1, 449041, Note_off_c, 0, 92, 69
1, 449045, Note_off_c, 0, 84, 66
1, 449051, Note_off_c, 0, 87, 59
1, 449052, Control_c, 0, 64, 68
1, 449063, Note_off_c, 0, 94, 59
1, 449067, Control_c, 0, 64, 55
1, 449081, Control_c, 0, 64, 68
1, 449096, Control_c, 0, 64, 82
1, 449097, Note_on_c, 0, 67, 89
1, 449100, Note_on_c, 0, 55, 85
1, 449111, Control_c, 0, 64, 127
1, 449122, Note_off_c, 0, 67, 64
1, 449123, Note_off_c, 0, 55, 69
1, 449182, Note_on_c, 0, 68, 97
1, 449188, Note_on_c, 0, 56, 86
1, 449219, Note_off_c, 0, 68, 64
1, 449224, Note_off_c, 0, 56, 60
1, 449263, Note_on_c, 0, 72, 94
1, 449265, Note_on_c, 0, 75, 87
1, 449269, Note_on_c, 0, 80, 86
1, 449270, Note_on_c, 0, 84, 87
1, 449292, Note_off_c, 0, 72, 61
1, 449304, Note_off_c, 0, 75, 64
1, 449312, Note_off_c, 0, 80, 64
1, 449323, Note_off_c, 0, 84, 67
1, 449325, Note_on_c, 0, 82, 5
1, 449362, Note_on_c, 0, 62, 91
1, 449365, Note_on_c, 0, 50, 90
1, 449378, Note_off_c, 0, 82, 35
1, 449388, Note_off_c, 0, 50, 72
1, 449390, Note_off_c, 0, 62, 61
1, 449462, Note_on_c, 0, 63, 98
1, 449474, Note_on_c, 0, 51, 85
1, 449495, Note_off_c, 0, 63, 64
1, 449504, Note_off_c, 0, 51, 66
1, 449560, Note_on_c, 0, 84, 104
1, 449562, Note_on_c, 0, 92, 101
1, 449564, Note_on_c, 0, 87, 100
1, 449566, Note_on_c, 0, 96, 93
1, 449581, Note_off_c, 0, 96, 75
1, 449584, Note_on_c, 0, 94, 61
1, 449597, Note_off_c, 0, 92, 70
1, 449602, Note_off_c, 0, 84, 62
1, 449603, Note_off_c, 0, 87, 66
1, 449604, Note_off_c, 0, 94, 63
1, 449667, Note_on_c, 0, 55, 95
1, 449671, Note_on_c, 0, 43, 91
1, 449692, Note_off_c, 0, 55, 66
1, 449695, Note_off_c, 0, 43, 67
1, 449765, Note_on_c, 0, 56, 101
1, 449771, Note_on_c, 0, 44, 91
1, 449802, Note_off_c, 0, 56, 67
1, 449807, Note_off_c, 0, 44, 62
1, 449874, Note_on_c, 0, 72, 102
1, 449876, Note_on_c, 0, 75, 89
1, 449879, Note_on_c, 0, 80, 87
1, 449880, Note_on_c, 0, 84, 88
1, 449912, Note_off_c, 0, 72, 65
1, 449933, Note_off_c, 0, 75, 65
1, 449934, Note_on_c, 0, 82, 30
1, 449946, Note_off_c, 0, 80, 64
1, 449958, Note_off_c, 0, 84, 66
1, 449969, Note_off_c, 0, 82, 46
1, 449990, Note_on_c, 0, 50, 98
1, 449994, Note_on_c, 0, 38, 93
1, 450018, Note_off_c, 0, 38, 69
1, 450020, Note_off_c, 0, 50, 66
1, 450114, Note_on_c, 0, 51, 94
1, 450121, Note_on_c, 0, 39, 84
1, 450141, Note_off_c, 0, 51, 62
1, 450154, Note_off_c, 0, 39, 62
1, 450222, Control_c, 0, 64, 90
1, 450237, Control_c, 0, 64, 0
1, 450261, Note_on_c, 0, 84, 101
1, 450266, Note_on_c, 0, 92, 94
1, 450267, Note_on_c, 0, 87, 96
1, 450267, Control_c, 0, 64, 41
1, 450268, Note_on_c, 0, 44, 115
1, 450270, Note_on_c, 0, 96, 86
1, 450272, Note_on_c, 0, 32, 92
1, 450281, Control_c, 0, 64, 82
1, 450282, Note_on_c, 0, 94, 65
1, 450282, Note_off_c, 0, 96, 72
1, 450286, Note_off_c, 0, 92, 68
1, 450287, Note_off_c, 0, 87, 67
1, 450290, Note_off_c, 0, 84, 65
1, 450296, Note_off_c, 0, 32, 69
1, 450297, Control_c, 0, 64, 127
1, 450299, Note_off_c, 0, 44, 61
1, 450301, Note_off_c, 0, 94, 64
1, 450409, Poly_aftertouch_c, 0, 32, 127
1, 450450, Poly_aftertouch_c, 0, 32, 0
1, 450574, Note_on_c, 0, 56, 86
1, 450574, Note_on_c, 0, 75, 91
1, 450578, Note_on_c, 0, 63, 82
1, 450581, Note_on_c, 0, 68, 84
1, 450604, Note_off_c, 0, 63, 64
1, 450607, Note_off_c, 0, 68, 62
1, 450613, Note_off_c, 0, 56, 60
1, 450615, Note_off_c, 0, 75, 66
1, 450661, Note_on_c, 0, 75, 96
1, 450663, Note_on_c, 0, 68, 100
1, 450667, Note_on_c, 0, 56, 101
1, 450673, Note_on_c, 0, 63, 102
1, 450683, Control_c, 0, 64, 98
1, 450697, Control_c, 0, 64, 61
1, 450712, Control_c, 0, 64, 0
1, 450950, Control_c, 0, 64, 53
1, 450971, Control_c, 0, 64, 127
1, 450975, Note_off_c, 0, 75, 58
1, 450996, Note_off_c, 0, 63, 57
1, 451006, Note_off_c, 0, 68, 56
1, 451011, Note_off_c, 0, 56, 61
1, 451196, Note_on_c, 0, 51, 77
1, 451197, Note_on_c, 0, 63, 84
1, 451199, Note_on_c, 0, 68, 76
1, 451203, Note_on_c, 0, 56, 69
1, 451218, Note_off_c, 0, 63, 68
1, 451218, Note_off_c, 0, 68, 70
1, 451225, Note_off_c, 0, 51, 67
1, 451226, Note_off_c, 0, 56, 68
1, 451266, Note_on_c, 0, 56, 92
1, 451267, Note_on_c, 0, 51, 99
1, 451273, Note_on_c, 0, 63, 98
1, 451275, Note_on_c, 0, 68, 87
1, 451304, Note_off_c, 0, 56, 64
1, 451314, Note_off_c, 0, 51, 67
1, 451314, Note_off_c, 0, 63, 65
1, 451317, Note_off_c, 0, 68, 62
1, 451824, Note_on_c, 0, 44, 69
1, 451824, Note_on_c, 0, 56, 78
1, 451832, Note_on_c, 0, 63, 64
1, 451837, Note_on_c, 0, 51, 56
1, 451849, Note_off_c, 0, 56, 66
1, 451861, Note_off_c, 0, 44, 61
1, 451865, Note_off_c, 0, 63, 61
1, 451866, Note_off_c, 0, 51, 64
1, 451910, Note_on_c, 0, 63, 73
1, 451910, Note_on_c, 0, 56, 86
1, 451914, Note_on_c, 0, 44, 86
1, 451934, Note_on_c, 0, 51, 62
1, 451961, Note_off_c, 0, 51, 66
1, 451968, Note_off_c, 0, 63, 60
1, 451971, Note_off_c, 0, 56, 63
1, 451990, Note_off_c, 0, 44, 62
1, 452115, Note_on_c, 0, 39, 79
1, 452126, Note_on_c, 0, 51, 64
1, 452144, Note_off_c, 0, 39, 63
1, 452153, Note_off_c, 0, 51, 66
1, 452200, Note_on_c, 0, 39, 85
1, 452202, Note_on_c, 0, 51, 83
1, 452205, Note_on_c, 0, 56, 74
1, 452207, Note_on_c, 0, 44, 57
1, 452250, Note_off_c, 0, 44, 61
1, 452265, Note_off_c, 0, 56, 60
1, 452270, Note_off_c, 0, 51, 63
1, 452295, Note_off_c, 0, 39, 54
1, 452407, Note_on_c, 0, 32, 92
1, 452416, Note_on_c, 0, 39, 74
1, 452420, Note_on_c, 0, 44, 72
1, 452437, Note_on_c, 0, 51, 43
1, 452438, Note_off_c, 0, 32, 59
1, 452440, Note_off_c, 0, 39, 68
1, 452449, Note_off_c, 0, 44, 63
1, 452457, Note_off_c, 0, 51, 66
1, 452509, Note_on_c, 0, 32, 89
1, 452509, Note_on_c, 0, 39, 83
1, 452514, Note_on_c, 0, 44, 85
1, 452514, Note_on_c, 0, 51, 81
1, 452601, Note_off_c, 0, 51, 60
1, 452613, Note_off_c, 0, 44, 57
1, 452628, Note_off_c, 0, 32, 58
1, 452650, Note_off_c, 0, 39, 34
1, 452703, Note_on_c, 0, 33, 83
1, 452709, Note_on_c, 0, 39, 72
1, 452712, Note_on_c, 0, 45, 72
1, 452712, Note_on_c, 0, 51, 67
1, 452746, Note_off_c, 0, 51, 60
1, 452750, Note_off_c, 0, 39, 56
1, 452754, Note_off_c, 0, 45, 65
1, 452763, Note_off_c, 0, 33, 57
1, 452812, Control_c, 0, 64, 116
1, 452827, Control_c, 0, 64, 77
1, 452837, Note_on_c, 0, 51, 62
1, 452837, Note_on_c, 0, 39, 99
1, 452838, Note_on_c, 0, 33, 100
1, 452840, Note_on_c, 0, 45, 51
1, 452841, Control_c, 0, 64, 0
1, 452863, Note_off_c, 0, 51, 69
1, 452866, Note_off_c, 0, 45, 35
1, 452871, Control_c, 0, 64, 60
1, 452886, Control_c, 0, 64, 75
1, 452900, Control_c, 0, 64, 98
1, 452915, Control_c, 0, 64, 127
1, 452983, Note_off_c, 0, 39, 54
1, 452989, Note_on_c, 0, 59, 73
1, 452990, Note_on_c, 0, 71, 76
1, 452997, Note_off_c, 0, 33, 58
1, 453013, Note_off_c, 0, 59, 68
1, 453013, Note_off_c, 0, 71, 71
1, 453088, Note_on_c, 0, 72, 85
1, 453090, Note_on_c, 0, 60, 76
1, 453112, Note_off_c, 0, 72, 66
1, 453114, Note_off_c, 0, 60, 69
1, 453182, Control_c, 0, 64, 126
1, 453188, Note_on_c, 0, 45, 98
1, 453189, Note_on_c, 0, 42, 91
1, 453192, Note_on_c, 0, 63, 89
1, 453194, Note_on_c, 0, 75, 84
1, 453196, Note_on_c, 0, 39, 79
1, 453197, Note_on_c, 0, 36, 81
1, 453197, Control_c, 0, 64, 72
1, 453202, Note_on_c, 0, 33, 76
1, 453219, Control_c, 0, 64, 0
1, 453221, Note_off_c, 0, 63, 68
1, 453223, Note_off_c, 0, 75, 67
1, 453248, Control_c, 0, 64, 53
1, 453263, Control_c, 0, 64, 74
1, 453278, Control_c, 0, 64, 101
1, 453293, Control_c, 0, 64, 127
1, 453296, Note_on_c, 0, 66, 86
1, 453298, Note_on_c, 0, 78, 85
1, 453318, Note_off_c, 0, 78, 70
1, 453320, Note_off_c, 0, 66, 66
1, 453392, Note_on_c, 0, 69, 84
1, 453395, Note_on_c, 0, 81, 88
1, 453411, Note_off_c, 0, 69, 72
1, 453418, Note_off_c, 0, 81, 63
1, 453484, Note_on_c, 0, 72, 90
1, 453492, Note_on_c, 0, 84, 88
1, 453509, Note_off_c, 0, 84, 73
1, 453510, Note_off_c, 0, 72, 65
1, 453582, Note_on_c, 0, 75, 85
1, 453583, Note_on_c, 0, 87, 91
1, 453600, Note_off_c, 0, 75, 73
1, 453605, Note_off_c, 0, 87, 68
1, 453663, Note_off_c, 0, 45, 55
1, 453674, Note_off_c, 0, 33, 30
1, 453689, Note_on_c, 0, 81, 97
1, 453689, Note_on_c, 0, 93, 95
1, 453699, Note_off_c, 0, 42, 51
1, 453704, Note_on_c, 0, 92, 66
1, 453713, Note_off_c, 0, 39, 49
1, 453719, Note_off_c, 0, 81, 63
1, 453722, Note_off_c, 0, 92, 66
1, 453724, Note_off_c, 0, 93, 68
1, 453734, Note_off_c, 0, 36, 32
1, 453739, Control_c, 0, 64, 90
1, 453754, Control_c, 0, 64, 0
1, 453779, Note_on_c, 0, 45, 103
1, 453780, Note_on_c, 0, 42, 95
1, 453785, Note_on_c, 0, 33, 87
1, 453785, Note_on_c, 0, 80, 108
1, 453787, Note_on_c, 0, 39, 76
1, 453788, Note_on_c, 0, 36, 75
1, 453788, Note_on_c, 0, 92, 101
1, 453798, Control_c, 0, 64, 69
1, 453813, Control_c, 0, 64, 109
1, 453824, Note_off_c, 0, 80, 64
1, 453828, Control_c, 0, 64, 127
1, 453833, Note_off_c, 0, 92, 67
1, 453884, Note_off_c, 0, 33, 61
1, 453900, Note_on_c, 0, 79, 91
1, 453904, Note_on_c, 0, 91, 86
1, 453922, Note_off_c, 0, 36, 60
1, 453928, Note_off_c, 0, 91, 65
1, 453931, Note_off_c, 0, 79, 64
1, 453951, Note_off_c, 0, 45, 64
1, 453966, Note_off_c, 0, 39, 58
1, 453966, Note_off_c, 0, 42, 62
1, 454003, Note_on_c, 0, 90, 92
1, 454006, Note_on_c, 0, 78, 82
1, 454044, Note_off_c, 0, 90, 67
1, 454044, Note_off_c, 0, 78, 61
1, 454099, Note_on_c, 0, 77, 89
1, 454101, Note_on_c, 0, 89, 89
1, 454122, Note_off_c, 0, 77, 65
1, 454124, Note_off_c, 0, 89, 64
1, 454195, Note_on_c, 0, 88, 88
1, 454196, Note_on_c, 0, 76, 85
1, 454224, Note_off_c, 0, 76, 62
1, 454239, Note_off_c, 0, 88, 62
1, 454287, Note_on_c, 0, 69, 78
1, 454289, Note_on_c, 0, 75, 91
1, 454294, Note_on_c, 0, 63, 71
1, 454294, Note_on_c, 0, 87, 87
1, 454304, Note_on_c, 0, 60, 55
1, 454308, Note_off_c, 0, 69, 70
1, 454308, Control_c, 0, 64, 95
1, 454318, Note_off_c, 0, 63, 68
1, 454323, Note_off_c, 0, 75, 63
1, 454323, Note_off_c, 0, 87, 63
1, 454323, Control_c, 0, 64, 76
1, 454327, Note_off_c, 0, 60, 60
1, 454339, Control_c, 0, 64, 73
1, 454354, Control_c, 0, 64, 80
1, 454369, Control_c, 0, 64, 93
1, 454372, Note_on_c, 0, 69, 90
1, 454380, Note_on_c, 0, 60, 78
1, 454380, Note_on_c, 0, 63, 83
1, 454383, Note_on_c, 0, 86, 90
1, 454384, Control_c, 0, 64, 127
1, 454387, Note_on_c, 0, 74, 92
1, 454393, Note_off_c, 0, 69, 70
1, 454408, Note_off_c, 0, 60, 65
1, 454410, Note_off_c, 0, 74, 69
1, 454411, Note_off_c, 0, 63, 59
1, 454412, Note_on_c, 0, 85, 39
1, 454420, Note_off_c, 0, 86, 66
1, 454443, Note_off_c, 0, 85, 57
1, 454479, Note_on_c, 0, 85, 78
1, 454481, Note_on_c, 0, 73, 86
1, 454508, Note_off_c, 0, 73, 64
1, 454524, Note_off_c, 0, 85, 61
1, 454563, Note_on_c, 0, 63, 91
1, 454567, Note_on_c, 0, 57, 74
1, 454575, Note_on_c, 0, 84, 82
1, 454576, Note_on_c, 0, 72, 92
1, 454576, Control_c, 0, 64, 99
1, 454584, Note_on_c, 0, 54, 50
1, 454586, Note_off_c, 0, 63, 64
1, 454591, Control_c, 0, 64, 86
1, 454597, Note_off_c, 0, 57, 65
1, 454598, Note_off_c, 0, 72, 66
1, 454605, Note_off_c, 0, 84, 66
1, 454605, Control_c, 0, 64, 85
1, 454614, Note_off_c, 0, 54, 56
1, 454620, Control_c, 0, 64, 93
1, 454635, Control_c, 0, 64, 110
1, 454650, Control_c, 0, 64, 127
1, 454659, Note_on_c, 0, 63, 85
1, 454664, Note_on_c, 0, 57, 71
1, 454664, Poly_aftertouch_c, 0, 83, 127
1, 454665, Note_on_c, 0, 83, 33
1, 454671, Note_on_c, 0, 54, 73
1, 454671, Note_on_c, 0, 71, 95
1, 454680, Note_off_c, 0, 63, 69
1, 454687, Note_off_c, 0, 57, 67
1, 454695, Note_off_c, 0, 54, 66
1, 454700, Note_off_c, 0, 71, 66
1, 454702, Note_on_c, 0, 82, 48
1, 454716, Note_off_c, 0, 83, 65
1, 454736, Note_off_c, 0, 82, 57
1, 454777, Note_on_c, 0, 70, 86
1, 454779, Note_on_c, 0, 82, 82
1, 454812, Note_off_c, 0, 70, 60
1, 454824, Note_off_c, 0, 82, 62
1, 454864, Note_on_c, 0, 57, 79
1, 454868, Note_on_c, 0, 51, 71
1, 454871, Note_on_c, 0, 69, 88
1, 454871, Note_on_c, 0, 81, 87
1, 454881, Note_on_c, 0, 48, 54
1, 454889, Note_off_c, 0, 57, 67
1, 454897, Note_off_c, 0, 51, 66
1, 454902, Note_off_c, 0, 69, 65
1, 454907, Note_off_c, 0, 48, 58
1, 454908, Note_off_c, 0, 81, 62
1, 454913, Note_on_c, 0, 80, 4
1, 454944, Note_off_c, 0, 80, 0
1, 454949, Note_on_c, 0, 57, 77
1, 454953, Note_on_c, 0, 51, 78
1, 454956, Note_on_c, 0, 80, 56
1, 454962, Note_on_c, 0, 48, 73
1, 454965, Note_on_c, 0, 68, 86
1, 454966, Note_off_c, 0, 57, 74
1, 454992, Note_on_c, 0, 70, 41
1, 454993, Note_off_c, 0, 48, 67
1, 454998, Note_off_c, 0, 51, 62
1, 455004, Note_off_c, 0, 68, 57
1, 455011, Note_off_c, 0, 80, 64
1, 455021, Note_off_c, 0, 70, 58
1, 455060, Note_on_c, 0, 67, 94
1, 455064, Note_on_c, 0, 79, 79
1, 455084, Note_off_c, 0, 79, 68
1, 455087, Note_off_c, 0, 67, 56
1, 455099, Note_on_c, 0, 78, 20
1, 455139, Note_off_c, 0, 78, 0
1, 455153, Note_on_c, 0, 66, 79
1, 455156, Note_on_c, 0, 78, 61
1, 455177, Note_off_c, 0, 66, 65
1, 455179, Note_on_c, 0, 72, 52
1, 455188, Note_off_c, 0, 78, 65
1, 455201, Note_off_c, 0, 72, 60
1, 455221, Control_c, 0, 64, 89
1, 455230, Note_on_c, 0, 45, 101
1, 455232, Note_on_c, 0, 41, 87
1, 455236, Note_on_c, 0, 39, 78
1, 455236, Control_c, 0, 64, 0
1, 455236, Note_on_c, 0, 36, 88
1, 455241, Note_on_c, 0, 33, 82
1, 455244, Note_on_c, 0, 65, 93
1, 455262, Note_on_c, 0, 77, 61
1, 455272, Note_off_c, 0, 65, 64
1, 455280, Control_c, 0, 64, 65
1, 455283, Note_off_c, 0, 77, 63
1, 455284, Note_on_c, 0, 75, 13
1, 455295, Control_c, 0, 64, 90
1, 455310, Control_c, 0, 64, 127
1, 455333, Note_off_c, 0, 75, 29
1, 455341, Note_on_c, 0, 64, 92
1, 455356, Note_on_c, 0, 76, 51
1, 455371, Note_off_c, 0, 64, 63
1, 455382, Note_off_c, 0, 76, 62
1, 455406, Note_off_c, 0, 33, 49
1, 455415, Note_off_c, 0, 45, 55
1, 455436, Note_on_c, 0, 65, 88
1, 455449, Note_off_c, 0, 41, 58
1, 455450, Note_on_c, 0, 77, 76
1, 455462, Note_off_c, 0, 36, 56
1, 455468, Note_off_c, 0, 39, 56
1, 455469, Note_off_c, 0, 65, 61
1, 455477, Note_off_c, 0, 77, 72
1, 455510, Control_c, 0, 64, 80
1, 455523, Note_on_c, 0, 45, 100
1, 455525, Control_c, 0, 64, 0
1, 455526, Note_on_c, 0, 41, 89
1, 455529, Note_on_c, 0, 39, 72
1, 455530, Note_on_c, 0, 36, 79
1, 455534, Note_on_c, 0, 33, 84
1, 455541, Note_on_c, 0, 69, 94
1, 455550, Note_on_c, 0, 81, 88
1, 455570, Note_off_c, 0, 69, 67
1, 455571, Note_off_c, 0, 81, 66
1, 455640, Note_on_c, 0, 72, 89
1, 455649, Note_on_c, 0, 84, 81
1, 455666, Note_off_c, 0, 84, 73
1, 455667, Note_off_c, 0, 72, 63
1, 455734, Note_on_c, 0, 75, 88
1, 455737, Note_on_c, 0, 87, 93
1, 455752, Note_off_c, 0, 75, 66
1, 455767, Note_off_c, 0, 87, 65
1, 455824, Note_on_c, 0, 76, 98
1, 455833, Note_on_c, 0, 88, 83
1, 455849, Note_off_c, 0, 76, 63
1, 455857, Note_off_c, 0, 88, 65
1, 455918, Note_on_c, 0, 77, 97
1, 455928, Note_on_c, 0, 89, 86
1, 455951, Note_off_c, 0, 77, 68
1, 455951, Note_off_c, 0, 89, 67
1, 455995, Note_off_c, 0, 45, 59
1, 456002, Note_off_c, 0, 33, 47
1, 456009, Note_on_c, 0, 78, 88
1, 456010, Note_off_c, 0, 41, 53
1, 456011, Note_on_c, 0, 90, 87
1, 456029, Note_off_c, 0, 36, 57
1, 456035, Note_off_c, 0, 39, 52
1, 456041, Note_off_c, 0, 78, 66
1, 456046, Note_off_c, 0, 90, 65
1, 456088, Note_on_c, 0, 45, 96
1, 456092, Note_on_c, 0, 41, 96
1, 456095, Note_on_c, 0, 39, 81
1, 456095, Note_on_c, 0, 77, 103
1, 456097, Note_on_c, 0, 36, 79
1, 456098, Note_on_c, 0, 33, 84
1, 456100, Note_on_c, 0, 89, 101
1, 456103, Control_c, 0, 64, 82
1, 456118, Control_c, 0, 64, 127
1, 456121, Note_on_c, 0, 88, 76
1, 456122, Note_off_c, 0, 88, 127
1, 456131, Note_off_c, 0, 77, 68
1, 456136, Note_off_c, 0, 89, 64
1, 456180, Note_off_c, 0, 33, 57
1, 456196, Note_on_c, 0, 76, 95
1, 456199, Note_on_c, 0, 88, 88
1, 456227, Note_off_c, 0, 36, 60
1, 456238, Note_off_c, 0, 76, 65
1, 456247, Note_off_c, 0, 45, 62
1, 456249, Note_off_c, 0, 88, 63
1, 456251, Note_off_c, 0, 41, 61
1, 456256, Note_off_c, 0, 39, 58
1, 456298, Note_on_c, 0, 75, 89
1, 456302, Note_on_c, 0, 87, 85
1, 456330, Note_off_c, 0, 75, 68
1, 456340, Note_off_c, 0, 87, 62
1, 456394, Note_on_c, 0, 74, 88
1, 456394, Note_on_c, 0, 86, 83
1, 456420, Note_off_c, 0, 74, 67
1, 456432, Note_off_c, 0, 86, 65
1, 456467, Poly_aftertouch_c, 0, 85, 0
1, 456482, Note_on_c, 0, 85, 56
1, 456487, Note_on_c, 0, 73, 90
1, 456515, Note_off_c, 0, 73, 62
1, 456528, Note_off_c, 0, 85, 64
1, 456581, Note_on_c, 0, 84, 78
1, 456584, Note_on_c, 0, 69, 79
1, 456584, Note_on_c, 0, 72, 83
1, 456589, Note_on_c, 0, 60, 69
1, 456592, Note_on_c, 0, 63, 67
1, 456604, Note_off_c, 0, 72, 70
1, 456605, Note_off_c, 0, 69, 72
1, 456605, Note_off_c, 0, 84, 66
1, 456618, Note_off_c, 0, 60, 65
1, 456618, Note_off_c, 0, 63, 67
1, 456666, Note_on_c, 0, 60, 86
1, 456667, Note_on_c, 0, 63, 90
1, 456667, Note_on_c, 0, 69, 85
1, 456676, Note_on_c, 0, 83, 80
1, 456679, Note_on_c, 0, 71, 89
1, 456688, Note_off_c, 0, 69, 71
1, 456701, Note_off_c, 0, 60, 62
1, 456703, Note_on_c, 0, 82, 51
1, 456708, Note_off_c, 0, 71, 65
1, 456714, Note_off_c, 0, 63, 57
1, 456719, Note_off_c, 0, 83, 63
1, 456727, Note_off_c, 0, 82, 60
1, 456766, Note_on_c, 0, 70, 89
1, 456775, Note_on_c, 0, 82, 82
1, 456803, Note_off_c, 0, 70, 67
1, 456818, Note_off_c, 0, 82, 61
1, 456858, Note_on_c, 0, 63, 94
1, 456860, Note_on_c, 0, 57, 81
1, 456865, Control_c, 0, 64, 109
1, 456870, Note_on_c, 0, 69, 83
1, 456871, Note_on_c, 0, 81, 85
1, 456880, Control_c, 0, 64, 90
1, 456882, Note_on_c, 0, 53, 54
1, 456882, Note_off_c, 0, 63, 66
1, 456887, Note_off_c, 0, 57, 65
1, 456893, Note_off_c, 0, 69, 70
1, 456895, Control_c, 0, 64, 88
1, 456903, Note_off_c, 0, 81, 64
1, 456907, Note_off_c, 0, 53, 61
1, 456910, Control_c, 0, 64, 94
1, 456917, Note_on_c, 0, 80, 4
1, 456925, Control_c, 0, 64, 116
1, 456939, Control_c, 0, 64, 127
1, 456946, Note_on_c, 0, 63, 93
1, 456950, Note_off_c, 0, 80, 0
1, 456950, Note_on_c, 0, 80, 13
1, 456959, Note_on_c, 0, 57, 78
1, 456965, Note_on_c, 0, 68, 95
1, 456966, Note_on_c, 0, 53, 78
1, 456983, Note_off_c, 0, 63, 61
1, 456992, Note_off_c, 0, 53, 66
1, 456996, Note_off_c, 0, 57, 65
1, 457000, Note_off_c, 0, 68, 62
1, 457011, Note_off_c, 0, 80, 63
1, 457060, Note_on_c, 0, 67, 92
1, 457062, Note_on_c, 0, 79, 85
1, 457091, Note_on_c, 0, 78, 34
1, 457093, Note_off_c, 0, 67, 62
1, 457104, Note_off_c, 0, 79, 62
1, 457123, Note_off_c, 0, 78, 55
1, 457150, Note_on_c, 0, 57, 78
1, 457153, Note_on_c, 0, 48, 72
1, 457153, Note_on_c, 0, 51, 72
1, 457154, Note_on_c, 0, 66, 91
1, 457163, Note_on_c, 0, 78, 81
1, 457180, Note_off_c, 0, 48, 65
1, 457183, Note_off_c, 0, 57, 64
1, 457187, Note_off_c, 0, 66, 64
1, 457189, Note_off_c, 0, 51, 65
1, 457207, Note_off_c, 0, 78, 60
1, 457234, Note_on_c, 0, 48, 81
1, 457248, Note_on_c, 0, 57, 64
1, 457251, Note_on_c, 0, 51, 66
1, 457251, Note_on_c, 0, 65, 93
1, 457254, Note_on_c, 0, 77, 79
1, 457267, Note_off_c, 0, 57, 66
1, 457273, Note_off_c, 0, 48, 63
1, 457278, Note_off_c, 0, 51, 66
1, 457279, Note_off_c, 0, 77, 66
1, 457281, Note_off_c, 0, 65, 63
1, 457302, Note_on_c, 0, 76, 20
1, 457303, Note_off_c, 0, 76, 127
1, 457344, Poly_aftertouch_c, 0, 76, 0
1, 457347, Note_on_c, 0, 75, 86
1, 457350, Note_on_c, 0, 64, 89
1, 457373, Note_off_c, 0, 64, 68
1, 457386, Note_off_c, 0, 75, 53
1, 457445, Note_on_c, 0, 63, 74
1, 457451, Note_on_c, 0, 73, 74
1, 457465, Note_on_c, 0, 66, 57
1, 457466, Note_off_c, 0, 63, 65
1, 457474, Note_off_c, 0, 73, 68
1, 457484, Note_off_c, 0, 66, 68
1, 457511, Control_c, 0, 64, 95
1, 457520, Poly_aftertouch_c, 0, 62, 127
1, 457523, Note_on_c, 0, 42, 96
1, 457525, Note_on_c, 0, 45, 105
1, 457526, Control_c, 0, 64, 54
1, 457529, Note_on_c, 0, 62, 23
1, 457529, Note_on_c, 0, 36, 90
1, 457533, Note_on_c, 0, 38, 81
1, 457540, Note_on_c, 0, 33, 79
1, 457541, Control_c, 0, 64, 0
1, 457544, Note_on_c, 0, 74, 73
1, 457547, Note_on_c, 0, 66, 59
1, 457563, Note_on_c, 0, 72, 49
1, 457566, Note_off_c, 0, 66, 64
1, 457567, Note_off_c, 0, 74, 66
1, 457570, Control_c, 0, 64, 63
1, 457581, Note_off_c, 0, 62, 62
1, 457585, Control_c, 0, 64, 82
1, 457587, Note_off_c, 0, 72, 39
1, 457600, Control_c, 0, 64, 127
1, 457632, Note_on_c, 0, 61, 92
1, 457639, Note_on_c, 0, 73, 89
1, 457667, Note_off_c, 0, 61, 62
1, 457684, Note_off_c, 0, 73, 59
1, 457720, Note_off_c, 0, 45, 58
1, 457722, Note_off_c, 0, 33, 53
1, 457734, Note_on_c, 0, 62, 90
1, 457747, Note_off_c, 0, 42, 61
1, 457750, Note_on_c, 0, 74, 77
1, 457751, Note_off_c, 0, 38, 59
1, 457754, Note_off_c, 0, 62, 70
1, 457755, Note_off_c, 0, 36, 59
1, 457772, Note_off_c, 0, 74, 72
1, 457800, Control_c, 0, 64, 95
1, 457815, Control_c, 0, 64, 62
1, 457818, Note_on_c, 0, 42, 98
1, 457818, Note_on_c, 0, 45, 105
1, 457823, Note_on_c, 0, 36, 83
1, 457827, Note_on_c, 0, 38, 80
1, 457827, Note_on_c, 0, 66, 92
1, 457830, Control_c, 0, 64, 0
1, 457831, Note_on_c, 0, 33, 82
1, 457835, Note_on_c, 0, 78, 88
1, 457861, Note_off_c, 0, 66, 64
1, 457861, Note_off_c, 0, 78, 66
1, 457927, Note_on_c, 0, 69, 92
1, 457944, Note_on_c, 0, 81, 69
1, 457955, Note_off_c, 0, 69, 67
1, 457958, Note_off_c, 0, 81, 67
1, 457975, Note_on_c, 0, 80, 17
1, 457976, Note_off_c, 0, 80, 127
1, 458023, Note_on_c, 0, 72, 95
1, 458025, Note_on_c, 0, 83, 68
1, 458050, Note_off_c, 0, 72, 69
1, 458052, Note_off_c, 0, 83, 66
1, 458116, Note_on_c, 0, 73, 97
1, 458120, Note_on_c, 0, 85, 84
1, 458147, Note_off_c, 0, 73, 68
1, 458154, Note_off_c, 0, 85, 62
1, 458203, Note_on_c, 0, 74, 100
1, 458216, Note_on_c, 0, 86, 76
1, 458219, Note_on_c, 0, 84, 69
1, 458233, Note_off_c, 0, 74, 70
1, 458240, Note_off_c, 0, 86, 68
1, 458241, Note_off_c, 0, 84, 70
1, 458271, Note_off_c, 0, 45, 55
1, 458272, Note_off_c, 0, 33, 45
1, 458295, Note_off_c, 0, 42, 55
1, 458298, Note_on_c, 0, 75, 89
1, 458298, Note_off_c, 0, 38, 55
1, 458302, Note_on_c, 0, 87, 86
1, 458307, Note_off_c, 0, 36, 58
1, 458328, Note_off_c, 0, 75, 66
1, 458338, Note_off_c, 0, 87, 64
1, 458383, Note_on_c, 0, 45, 106
1, 458384, Note_on_c, 0, 42, 94
1, 458389, Note_on_c, 0, 74, 107
1, 458392, Note_on_c, 0, 33, 80
1, 458393, Note_on_c, 0, 86, 96
1, 458393, Note_on_c, 0, 36, 82
1, 458394, Note_on_c, 0, 38, 83
1, 458408, Control_c, 0, 64, 127
1, 458411, Note_on_c, 0, 85, 60
1, 458417, Note_on_c, 0, 41, 73
1, 458423, Note_off_c, 0, 74, 69
1, 458426, Note_off_c, 0, 85, 70
1, 458432, Note_off_c, 0, 86, 63
1, 458498, Note_on_c, 0, 85, 90
1, 458498, Note_on_c, 0, 73, 93
1, 458502, Note_off_c, 0, 33, 58
1, 458534, Note_off_c, 0, 73, 65
1, 458542, Note_off_c, 0, 85, 65
1, 458554, Note_off_c, 0, 36, 62
1, 458560, Note_off_c, 0, 38, 57
1, 458563, Note_off_c, 0, 41, 60
1, 458563, Note_off_c, 0, 42, 57
1, 458583, Note_off_c, 0, 45, 62
1, 458599, Note_on_c, 0, 72, 86
1, 458600, Note_on_c, 0, 84, 73
1, 458622, Note_off_c, 0, 72, 65
1, 458630, Note_off_c, 0, 84, 62
1, 458642, Note_on_c, 0, 83, 30
1, 458676, Note_off_c, 0, 83, 57
1, 458697, Note_on_c, 0, 83, 66
1, 458700, Note_on_c, 0, 71, 84
1, 458717, Note_off_c, 0, 71, 74
1, 458739, Note_off_c, 0, 83, 62
1, 458784, Note_on_c, 0, 82, 69
1, 458787, Note_on_c, 0, 70, 84
1, 458829, Note_off_c, 0, 70, 64
1, 458835, Note_off_c, 0, 82, 64
1, 458877, Note_on_c, 0, 60, 63
1, 458882, Note_on_c, 0, 62, 60
1, 458882, Note_on_c, 0, 54, 55
1, 458888, Note_on_c, 0, 81, 78
1, 458891, Note_on_c, 0, 69, 77
1, 458907, Note_off_c, 0, 60, 65
1, 458909, Note_off_c, 0, 62, 64
1, 458911, Note_off_c, 0, 54, 63
1, 458911, Note_off_c, 0, 69, 70
1, 458921, Note_off_c, 0, 81, 60
1, 458967, Note_on_c, 0, 60, 78
1, 458969, Note_on_c, 0, 62, 71
1, 458969, Note_on_c, 0, 80, 60
1, 458975, Note_on_c, 0, 68, 88
1, 458980, Note_on_c, 0, 54, 70
1, 458986, Note_off_c, 0, 60, 73
1, 458993, Note_off_c, 0, 62, 68
1, 459003, Note_off_c, 0, 54, 69
1, 459011, Note_off_c, 0, 68, 63
1, 459019, Note_off_c, 0, 80, 63
1, 459076, Note_on_c, 0, 79, 83
1, 459080, Note_on_c, 0, 67, 79
1, 459100, Note_off_c, 0, 67, 69
1, 459113, Poly_aftertouch_c, 0, 54, 127
1, 459118, Note_off_c, 0, 79, 59
1, 459142, Poly_aftertouch_c, 0, 54, 0
1, 459166, Note_on_c, 0, 57, 71
1, 459175, Note_on_c, 0, 66, 85
1, 459175, Note_on_c, 0, 78, 71
1, 459176, Note_on_c, 0, 48, 53
1, 459184, Note_on_c, 0, 50, 40
1, 459190, Note_on_c, 0, 52, 47
1, 459191, Note_off_c, 0, 57, 65
1, 459195, Note_off_c, 0, 66, 71
1, 459209, Note_off_c, 0, 48, 58
1, 459211, Note_off_c, 0, 78, 65
1, 459228, Note_off_c, 0, 50, 55
1, 459231, Note_off_c, 0, 52, 52
1, 459256, Note_on_c, 0, 57, 72
1, 459267, Note_on_c, 0, 50, 66
1, 459275, Note_on_c, 0, 65, 81
1, 459276, Note_on_c, 0, 48, 64
1, 459276, Note_on_c, 0, 77, 76
1, 459277, Note_off_c, 0, 57, 70
1, 459294, Note_off_c, 0, 50, 69
1, 459295, Note_off_c, 0, 48, 65
1, 459296, Note_off_c, 0, 65, 70
1, 459296, Note_off_c, 0, 77, 71
1, 459373, Note_on_c, 0, 64, 77
1, 459375, Note_on_c, 0, 76, 71
1, 459395, Note_off_c, 0, 64, 69
1, 459401, Note_off_c, 0, 76, 65
1, 459404, Note_on_c, 0, 75, 32
1, 459446, Note_off_c, 0, 75, 0
1, 459452, Note_on_c, 0, 50, 72
1, 459456, Note_on_c, 0, 45, 72
1, 459460, Note_on_c, 0, 75, 69
1, 459464, Note_on_c, 0, 63, 76
1, 459484, Note_off_c, 0, 45, 61
1, 459485, Note_off_c, 0, 50, 64
1, 459489, Note_off_c, 0, 63, 68
1, 459495, Note_off_c, 0, 75, 63
1, 459544, Note_on_c, 0, 45, 60
1, 459551, Note_on_c, 0, 62, 87
1, 459553, Note_on_c, 0, 42, 65
1, 459556, Note_on_c, 0, 74, 82
1, 459565, Note_on_c, 0, 50, 25
1, 459568, Note_off_c, 0, 45, 66
1, 459578, Note_off_c, 0, 62, 62
1, 459583, Note_off_c, 0, 74, 66
1, 459586, Note_on_c, 0, 73, 29
1, 459586, Note_off_c, 0, 42, 64
1, 459596, Note_off_c, 0, 50, 57
1, 459629, Note_off_c, 0, 73, 0
1, 459643, Note_on_c, 0, 61, 88
1, 459646, Note_on_c, 0, 73, 71
1, 459684, Note_off_c, 0, 61, 64
1, 459695, Note_off_c, 0, 73, 64
1, 459739, Note_on_c, 0, 60, 82
1, 459750, Note_on_c, 0, 72, 60
1, 459759, Note_on_c, 0, 63, 55
1, 459760, Note_off_c, 0, 60, 72
1, 459770, Note_off_c, 0, 72, 65
1, 459789, Note_off_c, 0, 63, 56
1, 459816, Control_c, 0, 64, 75
1, 459827, Note_on_c, 0, 45, 106
1, 459827, Note_on_c, 0, 42, 93
1, 459831, Control_c, 0, 64, 0
1, 459833, Note_on_c, 0, 35, 77
1, 459835, Note_on_c, 0, 33, 80
1, 459836, Note_on_c, 0, 39, 78
1, 459836, Note_on_c, 0, 59, 91
1, 459842, Note_on_c, 0, 71, 69
1, 459857, Note_off_c, 0, 59, 66
1, 459860, Note_off_c, 0, 71, 67
1, 459875, Control_c, 0, 64, 67
1, 459886, Note_on_c, 0, 63, 5
1, 459887, Note_off_c, 0, 63, 127
1, 459890, Control_c, 0, 64, 89
1, 459905, Control_c, 0, 64, 127
1, 459928, Note_on_c, 0, 58, 94
1, 459934, Poly_aftertouch_c, 0, 63, 0
1, 459937, Note_on_c, 0, 70, 82
1, 459971, Note_off_c, 0, 70, 64
1, 459972, Note_off_c, 0, 58, 67
1, 460002, Note_off_c, 0, 45, 56
1, 460009, Note_off_c, 0, 33, 48
1, 460027, Note_off_c, 0, 35, 59
1, 460029, Note_off_c, 0, 42, 61
1, 460036, Note_on_c, 0, 59, 89
1, 460038, Note_off_c, 0, 39, 58
1, 460045, Note_on_c, 0, 71, 80
1, 460047, Poly_aftertouch_c, 0, 68, 0
1, 460052, Note_off_c, 0, 59, 73
1, 460062, Note_off_c, 0, 71, 73
1, 460091, Control_c, 0, 64, 113
1, 460106, Control_c, 0, 64, 73
1, 460112, Note_on_c, 0, 45, 106
1, 460113, Note_on_c, 0, 42, 104
1, 460120, Note_on_c, 0, 33, 82
1, 460121, Control_c, 0, 64, 0
1, 460122, Note_on_c, 0, 39, 76
1, 460125, Note_on_c, 0, 35, 76
1, 460130, Note_on_c, 0, 63, 85
1, 460137, Note_on_c, 0, 75, 79
1, 460152, Note_off_c, 0, 63, 67
1, 460157, Note_off_c, 0, 75, 69
1, 460223, Note_on_c, 0, 66, 90
1, 460226, Note_on_c, 0, 78, 84
1, 460249, Note_off_c, 0, 66, 65
1, 460259, Note_off_c, 0, 78, 64
1, 460319, Note_on_c, 0, 69, 94
1, 460327, Note_on_c, 0, 81, 87
1, 460343, Control_c, 0, 64, 61
1, 460349, Note_off_c, 0, 69, 69
1, 460352, Note_off_c, 0, 81, 64
1, 460358, Control_c, 0, 64, 88
1, 460359, Note_on_c, 0, 80, 24
1, 460360, Note_off_c, 0, 80, 127
1, 460372, Control_c, 0, 64, 127
1, 460408, Note_on_c, 0, 70, 94
1, 460415, Note_on_c, 0, 82, 90
1, 460441, Note_off_c, 0, 82, 63
1, 460443, Note_off_c, 0, 70, 58
1, 460492, Note_off_c, 0, 42, 60
1, 460502, Note_on_c, 0, 71, 94
1, 460502, Note_off_c, 0, 39, 57
1, 460508, Note_off_c, 0, 35, 61
1, 460511, Note_on_c, 0, 83, 82
1, 460520, Note_off_c, 0, 33, 58
1, 460525, Note_on_c, 0, 82, 61
1, 460531, Note_off_c, 0, 71, 60
1, 460536, Note_off_c, 0, 83, 65
1, 460545, Note_off_c, 0, 82, 62
1, 460561, Note_off_c, 0, 45, 43
1, 460603, Note_on_c, 0, 72, 90
1, 460610, Note_on_c, 0, 84, 77
1, 460623, Note_off_c, 0, 72, 68
1, 460630, Note_off_c, 0, 84, 72
1, 460643, Note_on_c, 0, 82, 16
1, 460644, Note_off_c, 0, 82, 127
1, 460669, Control_c, 0, 64, 113
1, 460683, Control_c, 0, 64, 69
1, 460685, Note_on_c, 0, 42, 99
1, 460685, Note_on_c, 0, 45, 109
1, 460691, Note_on_c, 0, 33, 86
1, 460692, Note_on_c, 0, 39, 80
1, 460703, Note_on_c, 0, 83, 69
1, 460704, Note_on_c, 0, 35, 78
1, 460705, Note_on_c, 0, 71, 101
1, 460706, Control_c, 0, 64, 0
1, 460721, Note_on_c, 0, 82, 61
1, 460734, Note_off_c, 0, 71, 70
1, 460742, Note_off_c, 0, 82, 64
1, 460748, Note_off_c, 0, 83, 66
1, 460800, Note_on_c, 0, 70, 89
1, 460803, Note_on_c, 0, 82, 88
1, 460834, Note_off_c, 0, 70, 67
1, 460840, Note_off_c, 0, 82, 64
1, 460902, Note_on_c, 0, 81, 82
1, 460903, Note_on_c, 0, 69, 80
1, 460922, Note_off_c, 0, 69, 72
1, 460933, Note_off_c, 0, 81, 57
1, 460988, Control_c, 0, 64, 95
1, 460991, Note_on_c, 0, 68, 92
1, 460995, Note_on_c, 0, 80, 82
1, 461003, Control_c, 0, 64, 127
1, 461028, Note_off_c, 0, 68, 63
1, 461038, Note_off_c, 0, 80, 61
1, 461059, Note_off_c, 0, 42, 54
1, 461087, Note_off_c, 0, 39, 56
1, 461093, Note_on_c, 0, 79, 83
1, 461094, Note_on_c, 0, 67, 80
1, 461094, Note_off_c, 0, 35, 54
1, 461115, Note_off_c, 0, 67, 69
1, 461133, Note_off_c, 0, 79, 61
1, 461145, Note_off_c, 0, 45, 60
1, 461166, Note_off_c, 0, 33, 55
1, 461186, Note_on_c, 0, 66, 81
1, 461198, Note_on_c, 0, 78, 71
1, 461213, Note_off_c, 0, 66, 65
1, 461220, Note_off_c, 0, 78, 71
1, 461255, Control_c, 0, 64, 77
1, 461261, Note_on_c, 0, 41, 92
1, 461261, Note_on_c, 0, 45, 104
1, 461264, Note_on_c, 0, 36, 88
1, 461267, Note_on_c, 0, 33, 86
1, 461270, Control_c, 0, 64, 0
1, 461277, Note_on_c, 0, 77, 83
1, 461280, Note_on_c, 0, 65, 82
1, 461301, Note_off_c, 0, 65, 69
1, 461305, Note_off_c, 0, 77, 63
1, 461380, Note_on_c, 0, 64, 73
1, 461380, Note_on_c, 0, 76, 72
1, 461404, Note_off_c, 0, 64, 71
1, 461416, Note_off_c, 0, 76, 61
1, 461452, Note_off_c, 0, 41, 59
1, 461460, Note_off_c, 0, 45, 57
1, 461477, Note_off_c, 0, 33, 45
1, 461481, Note_on_c, 0, 63, 74
1, 461481, Note_on_c, 0, 75, 76
1, 461499, Note_off_c, 0, 36, 60
1, 461503, Note_off_c, 0, 63, 69
1, 461512, Note_off_c, 0, 75, 59
1, 461559, Control_c, 0, 64, 62
1, 461569, Note_on_c, 0, 42, 95
1, 461569, Note_on_c, 0, 45, 100
1, 461571, Note_on_c, 0, 38, 90
1, 461574, Control_c, 0, 64, 63
1, 461578, Note_on_c, 0, 74, 86
1, 461580, Note_on_c, 0, 62, 86
1, 461584, Note_on_c, 0, 33, 78
1, 461589, Control_c, 0, 64, 0
1, 461606, Note_off_c, 0, 62, 65
1, 461615, Note_off_c, 0, 74, 66
1, 461668, Note_on_c, 0, 73, 72
1, 461673, Note_on_c, 0, 61, 79
1, 461701, Note_off_c, 0, 61, 66
1, 461717, Note_off_c, 0, 73, 64
1, 461754, Note_off_c, 0, 45, 53
1, 461765, Note_off_c, 0, 38, 48
1, 461773, Note_on_c, 0, 60, 79
1, 461773, Note_on_c, 0, 72, 78
1, 461774, Note_off_c, 0, 33, 54
1, 461780, Note_off_c, 0, 42, 61
1, 461794, Note_off_c, 0, 60, 71
1, 461798, Note_off_c, 0, 72, 63
1, 461855, Control_c, 0, 64, 59
1, 461858, Note_on_c, 0, 45, 101
1, 461859, Note_on_c, 0, 42, 91
1, 461863, Note_on_c, 0, 39, 83
1, 461868, Note_on_c, 0, 33, 83
1, 461870, Control_c, 0, 64, 77
1, 461873, Note_on_c, 0, 59, 89
1, 461874, Note_on_c, 0, 71, 87
1, 461885, Control_c, 0, 64, 66
1, 461893, Note_off_c, 0, 59, 68
1, 461900, Control_c, 0, 64, 0
1, 461911, Note_off_c, 0, 71, 63
1, 461956, Note_on_c, 0, 70, 75
1, 461959, Note_on_c, 0, 58, 84
1, 461998, Note_off_c, 0, 58, 65
1, 462007, Note_off_c, 0, 70, 63
1, 462063, Note_on_c, 0, 69, 80
1, 462072, Note_on_c, 0, 57, 64
1, 462093, Note_off_c, 0, 57, 62
1, 462098, Note_off_c, 0, 69, 61
1, 462151, Note_on_c, 0, 56, 93
1, 462152, Control_c, 0, 64, 72
1, 462154, Note_on_c, 0, 68, 79
1, 462167, Control_c, 0, 64, 83
1, 462182, Control_c, 0, 64, 85
1, 462188, Note_off_c, 0, 56, 66
1, 462203, Control_c, 0, 64, 83
1, 462209, Note_off_c, 0, 68, 62
1, 462218, Control_c, 0, 64, 81
1, 462233, Control_c, 0, 64, 78
1, 462248, Control_c, 0, 64, 77
1, 462261, Note_on_c, 0, 55, 89
1, 462262, Control_c, 0, 64, 75
1, 462264, Note_on_c, 0, 67, 84
1, 462277, Note_off_c, 0, 42, 53
1, 462290, Note_off_c, 0, 55, 67
1, 462292, Control_c, 0, 64, 75
1, 462305, Note_off_c, 0, 67, 61
1, 462322, Control_c, 0, 64, 76
1, 462323, Note_off_c, 0, 39, 51
1, 462329, Note_off_c, 0, 45, 57
1, 462338, Control_c, 0, 64, 78
1, 462352, Control_c, 0, 64, 79
1, 462356, Note_off_c, 0, 33, 56
1, 462364, Note_on_c, 0, 54, 81
1, 462364, Note_on_c, 0, 66, 72
1, 462382, Control_c, 0, 64, 78
1, 462388, Note_off_c, 0, 54, 71
1, 462397, Note_off_c, 0, 66, 60
1, 462397, Control_c, 0, 64, 72
1, 462412, Control_c, 0, 64, 63
1, 462426, Control_c, 0, 64, 0
1, 462438, Note_on_c, 0, 45, 102
1, 462439, Note_on_c, 0, 41, 91
1, 462443, Note_on_c, 0, 36, 87
1, 462450, Note_on_c, 0, 33, 83
1, 462457, Note_on_c, 0, 53, 89
1, 462458, Note_on_c, 0, 65, 75
1, 462482, Note_off_c, 0, 65, 68
1, 462483, Note_off_c, 0, 53, 68
1, 462553, Note_on_c, 0, 64, 73
1, 462557, Note_on_c, 0, 52, 83
1, 462584, Note_off_c, 0, 52, 68
1, 462605, Control_c, 0, 64, 40
1, 462605, Note_off_c, 0, 64, 65
1, 462620, Control_c, 0, 64, 61
1, 462630, Note_off_c, 0, 41, 61
1, 462634, Control_c, 0, 64, 67
1, 462643, Note_off_c, 0, 45, 58
1, 462646, Note_on_c, 0, 63, 71
1, 462649, Control_c, 0, 64, 73
1, 462653, Note_on_c, 0, 51, 82
1, 462654, Note_off_c, 0, 33, 52
1, 462664, Control_c, 0, 64, 78
1, 462678, Note_off_c, 0, 36, 60
1, 462678, Control_c, 0, 64, 80
1, 462682, Note_off_c, 0, 51, 68
1, 462693, Control_c, 0, 64, 80
1, 462695, Note_off_c, 0, 63, 62
1, 462708, Control_c, 0, 64, 73
1, 462723, Control_c, 0, 64, 62
1, 462738, Control_c, 0, 64, 0
1, 462742, Note_on_c, 0, 42, 84
1, 462742, Note_on_c, 0, 45, 93
1, 462744, Note_on_c, 0, 38, 78
1, 462745, Note_on_c, 0, 50, 88
1, 462754, Note_on_c, 0, 62, 78
1, 462756, Note_on_c, 0, 33, 76
1, 462778, Note_off_c, 0, 50, 67
1, 462787, Note_off_c, 0, 62, 62
1, 462796, Control_c, 0, 64, 41
1, 462811, Control_c, 0, 64, 63
1, 462826, Control_c, 0, 64, 68
1, 462841, Control_c, 0, 64, 72
1, 462842, Note_on_c, 0, 61, 66
1, 462850, Note_on_c, 0, 49, 83
1, 462856, Control_c, 0, 64, 74
1, 462870, Control_c, 0, 64, 75
1, 462885, Control_c, 0, 64, 76
1, 462900, Note_off_c, 0, 61, 63
1, 462900, Control_c, 0, 64, 80
1, 462903, Note_off_c, 0, 49, 60
1, 462909, Note_off_c, 0, 38, 53
1, 462915, Control_c, 0, 64, 91
1, 462930, Control_c, 0, 64, 114
1, 462946, Note_off_c, 0, 45, 58
1, 462952, Control_c, 0, 64, 127
1, 462957, Note_on_c, 0, 60, 76
1, 462962, Note_on_c, 0, 48, 67
1, 462970, Note_off_c, 0, 33, 57
1, 462970, Note_off_c, 0, 42, 61
1, 462981, Note_off_c, 0, 60, 68
1, 462990, Note_off_c, 0, 48, 65
1, 463011, Control_c, 0, 64, 109
1, 463027, Control_c, 0, 64, 74
1, 463042, Control_c, 0, 64, 0
1, 463043, Note_on_c, 0, 45, 94
1, 463046, Note_on_c, 0, 47, 82
1, 463049, Note_on_c, 0, 42, 87
1, 463052, Note_on_c, 0, 59, 85
1, 463054, Note_on_c, 0, 39, 75
1, 463057, Note_on_c, 0, 33, 76
1, 463074, Note_on_c, 0, 48, 49
1, 463076, Note_off_c, 0, 47, 62
1, 463109, Note_off_c, 0, 48, 50
1, 463152, Note_off_c, 0, 59, 59
1, 463155, Note_on_c, 0, 58, 75
1, 463255, Note_off_c, 0, 58, 64
1, 463258, Note_on_c, 0, 57, 80
1, 463349, Note_on_c, 0, 56, 85
1, 463354, Control_c, 0, 64, 57
1, 463356, Note_off_c, 0, 57, 61
1, 463369, Control_c, 0, 64, 54
1, 463383, Control_c, 0, 64, 54
1, 463398, Control_c, 0, 64, 55
1, 463413, Control_c, 0, 64, 56
1, 463425, Note_off_c, 0, 42, 50
1, 463428, Control_c, 0, 64, 58
1, 463437, Note_off_c, 0, 56, 64
1, 463443, Control_c, 0, 64, 60
1, 463446, Note_on_c, 0, 55, 77
1, 463458, Control_c, 0, 64, 61
1, 463473, Control_c, 0, 64, 63
1, 463488, Control_c, 0, 64, 64
1, 463502, Note_off_c, 0, 39, 51
1, 463502, Control_c, 0, 64, 66
1, 463511, Note_off_c, 0, 55, 64
1, 463516, Note_off_c, 0, 45, 52
1, 463517, Control_c, 0, 64, 71
1, 463532, Control_c, 0, 64, 76
1, 463547, Control_c, 0, 64, 80
1, 463552, Note_on_c, 0, 54, 76
1, 463554, Note_off_c, 0, 33, 52
1, 463562, Control_c, 0, 64, 82
1, 463583, Note_off_c, 0, 54, 67
1, 463591, Control_c, 0, 64, 78
1, 463606, Control_c, 0, 64, 72
1, 463620, Control_c, 0, 64, 61
1, 463635, Control_c, 0, 64, 0
1, 463640, Note_on_c, 0, 41, 74
1, 463641, Note_on_c, 0, 45, 77
1, 463645, Note_on_c, 0, 53, 86
1, 463652, Note_on_c, 0, 36, 62
1, 463660, Note_on_c, 0, 48, 73
1, 463663, Note_on_c, 0, 33, 61
1, 463747, Note_on_c, 0, 52, 82
1, 463759, Note_off_c, 0, 48, 62
1, 463776, Control_c, 0, 64, 14
1, 463779, Note_off_c, 0, 53, 59
1, 463791, Control_c, 0, 64, 41
1, 463806, Control_c, 0, 64, 52
1, 463820, Control_c, 0, 64, 59
1, 463835, Control_c, 0, 64, 64
1, 463842, Note_on_c, 0, 51, 90
1, 463845, Note_off_c, 0, 41, 62
1, 463850, Control_c, 0, 64, 68
1, 463851, Note_off_c, 0, 45, 61
1, 463855, Note_off_c, 0, 52, 58
1, 463865, Control_c, 0, 64, 71
1, 463877, Note_off_c, 0, 36, 60
1, 463880, Control_c, 0, 64, 72
1, 463883, Note_off_c, 0, 33, 42
1, 463894, Control_c, 0, 64, 71
1, 463909, Control_c, 0, 64, 68
1, 463925, Control_c, 0, 64, 61
1, 463934, Note_on_c, 0, 50, 85
1, 463935, Note_on_c, 0, 38, 76
1, 463935, Note_on_c, 0, 45, 88
1, 463936, Note_on_c, 0, 42, 77
1, 463936, Note_on_c, 0, 48, 90
1, 463940, Control_c, 0, 64, 0
1, 463947, Note_off_c, 0, 51, 63
1, 463950, Note_on_c, 0, 33, 65
1, 464014, Control_c, 0, 64, 45
1, 464029, Control_c, 0, 64, 55
1, 464038, Note_on_c, 0, 49, 84
1, 464042, Note_off_c, 0, 50, 51
1, 464042, Note_off_c, 0, 48, 62
1, 464044, Control_c, 0, 64, 60
1, 464058, Control_c, 0, 64, 62
1, 464073, Control_c, 0, 64, 63
1, 464088, Control_c, 0, 64, 64
1, 464103, Control_c, 0, 64, 66
1, 464118, Control_c, 0, 64, 69
1, 464132, Control_c, 0, 64, 73
1, 464137, Note_off_c, 0, 49, 63
1, 464138, Note_off_c, 0, 45, 61
1, 464141, Note_on_c, 0, 48, 83
1, 464147, Control_c, 0, 64, 76
1, 464149, Note_off_c, 0, 38, 61
1, 464161, Note_off_c, 0, 42, 63
1, 464162, Control_c, 0, 64, 78
1, 464164, Note_off_c, 0, 33, 56
1, 464182, Note_off_c, 0, 48, 63
1, 464192, Control_c, 0, 64, 75
1, 464206, Control_c, 0, 64, 69
1, 464221, Control_c, 0, 64, 57
1, 464233, Note_on_c, 0, 47, 93
1, 464236, Control_c, 0, 64, 0
1, 464237, Note_on_c, 0, 45, 88
1, 464238, Note_on_c, 0, 42, 78
1, 464239, Note_on_c, 0, 39, 80
1, 464255, Note_on_c, 0, 33, 66
1, 464275, Note_off_c, 0, 47, 66
1, 464310, Control_c, 0, 64, 44
1, 464325, Control_c, 0, 64, 58
1, 464331, Note_on_c, 0, 47, 83
1, 464340, Control_c, 0, 64, 62
1, 464355, Control_c, 0, 64, 64
1, 464364, Note_off_c, 0, 47, 66
1, 464370, Control_c, 0, 64, 65
1, 464385, Control_c, 0, 64, 66
1, 464388, Note_off_c, 0, 42, 48
1, 464399, Control_c, 0, 64, 68
1, 464414, Control_c, 0, 64, 71
1, 464425, Note_on_c, 0, 47, 84
1, 464429, Control_c, 0, 64, 73
1, 464433, Note_off_c, 0, 45, 58
1, 464439, Note_off_c, 0, 33, 56
1, 464450, Note_off_c, 0, 39, 60
1, 464450, Control_c, 0, 64, 75
1, 464477, Note_off_c, 0, 47, 66
1, 464480, Control_c, 0, 64, 73
1, 464495, Control_c, 0, 64, 67
1, 464510, Control_c, 0, 64, 47
1, 464524, Control_c, 0, 64, 0
1, 464534, Note_on_c, 0, 53, 91
1, 464537, Note_on_c, 0, 45, 81
1, 464539, Note_on_c, 0, 41, 66
1, 464539, Note_on_c, 0, 48, 82
1, 464547, Note_on_c, 0, 36, 63
1, 464558, Note_on_c, 0, 33, 64
1, 464598, Control_c, 0, 64, 29
1, 464613, Control_c, 0, 64, 54
1, 464628, Control_c, 0, 64, 60
1, 464635, Note_on_c, 0, 52, 86
1, 464642, Control_c, 0, 64, 63
1, 464645, Note_off_c, 0, 48, 58
1, 464646, Note_off_c, 0, 53, 61
1, 464657, Control_c, 0, 64, 65
1, 464672, Control_c, 0, 64, 65
1, 464687, Control_c, 0, 64, 66
1, 464702, Control_c, 0, 64, 69
1, 464709, Note_off_c, 0, 41, 61
1, 464718, Control_c, 0, 64, 72
1, 464728, Note_on_c, 0, 51, 87
1, 464733, Control_c, 0, 64, 76
1, 464737, Note_off_c, 0, 45, 60
1, 464738, Note_off_c, 0, 33, 56
1, 464747, Control_c, 0, 64, 79
1, 464754, Note_off_c, 0, 36, 60
1, 464762, Control_c, 0, 64, 80
1, 464765, Note_off_c, 0, 52, 60
1, 464777, Control_c, 0, 64, 79
1, 464792, Control_c, 0, 64, 74
1, 464807, Control_c, 0, 64, 65
1, 464821, Control_c, 0, 64, 0
1, 464823, Note_on_c, 0, 38, 78
1, 464823, Note_on_c, 0, 45, 91
1, 464823, Note_on_c, 0, 50, 90
1, 464824, Note_off_c, 0, 51, 55
1, 464826, Note_on_c, 0, 48, 92
1, 464827, Note_on_c, 0, 42, 77
1, 464841, Note_on_c, 0, 33, 70
1, 464895, Control_c, 0, 64, 40
1, 464910, Control_c, 0, 64, 55
1, 464921, Note_on_c, 0, 49, 86
1, 464925, Note_off_c, 0, 50, 55
1, 464925, Control_c, 0, 64, 60
1, 464926, Note_off_c, 0, 48, 61
1, 464939, Control_c, 0, 64, 61
1, 464954, Control_c, 0, 64, 63
1, 464969, Control_c, 0, 64, 64
1, 464984, Control_c, 0, 64, 67
1, 464999, Control_c, 0, 64, 70
1, 465001, Note_off_c, 0, 45, 57
1, 465013, Note_off_c, 0, 38, 59
1, 465014, Control_c, 0, 64, 74
1, 465017, Note_off_c, 0, 49, 64
1, 465020, Note_on_c, 0, 48, 86
1, 465029, Control_c, 0, 64, 76
1, 465035, Note_off_c, 0, 42, 62
1, 465040, Note_off_c, 0, 33, 49
1, 465044, Control_c, 0, 64, 77
1, 465058, Control_c, 0, 64, 76
1, 465066, Note_off_c, 0, 48, 65
1, 465073, Control_c, 0, 64, 72
1, 465088, Control_c, 0, 64, 59
1, 465103, Control_c, 0, 64, 0
1, 465113, Note_on_c, 0, 47, 89
1, 465115, Note_on_c, 0, 45, 91
1, 465116, Note_on_c, 0, 39, 81
1, 465122, Note_on_c, 0, 42, 81
1, 465130, Note_on_c, 0, 33, 70
1, 465156, Note_off_c, 0, 47, 65
1, 465218, Note_on_c, 0, 47, 85
1, 465240, Note_off_c, 0, 42, 61
1, 465252, Note_off_c, 0, 47, 66
1, 465301, Note_off_c, 0, 45, 55
1, 465312, Note_on_c, 0, 47, 84
1, 465321, Note_off_c, 0, 39, 58
1, 465330, Note_off_c, 0, 33, 56
1, 465347, Control_c, 0, 64, 17
1, 465362, Control_c, 0, 64, 19
1, 465363, Note_off_c, 0, 47, 66
1, 465377, Control_c, 0, 64, 17
1, 465392, Control_c, 0, 64, 0
1, 465411, Note_on_c, 0, 45, 89
1, 465413, Note_on_c, 0, 48, 90
1, 465414, Note_on_c, 0, 41, 78
1, 465415, Note_on_c, 0, 53, 88
1, 465418, Note_on_c, 0, 36, 76
1, 465427, Note_on_c, 0, 33, 75
1, 465491, Note_off_c, 0, 48, 48
1, 465510, Note_on_c, 0, 52, 83
1, 465521, Note_off_c, 0, 53, 61
1, 465604, Note_off_c, 0, 45, 62
1, 465605, Note_on_c, 0, 51, 86
1, 465605, Note_off_c, 0, 41, 61
1, 465620, Note_off_c, 0, 33, 57
1, 465627, Note_off_c, 0, 36, 60
1, 465645, Note_off_c, 0, 52, 61
1, 465698, Note_on_c, 0, 45, 92
1, 465698, Note_on_c, 0, 50, 86
1, 465699, Note_on_c, 0, 42, 82
1, 465702, Note_on_c, 0, 38, 76
1, 465702, Note_on_c, 0, 48, 92
1, 465708, Note_off_c, 0, 51, 57
1, 465709, Note_on_c, 0, 33, 73
1, 465799, Note_on_c, 0, 49, 84
1, 465801, Note_off_c, 0, 48, 61
1, 465801, Note_off_c, 0, 50, 51
1, 465877, Note_off_c, 0, 38, 55
1, 465882, Note_off_c, 0, 45, 58
1, 465901, Note_off_c, 0, 49, 61
1, 465904, Note_on_c, 0, 48, 85
1, 465906, Note_off_c, 0, 33, 57
1, 465908, Note_off_c, 0, 42, 62
1, 465966, Note_off_c, 0, 48, 64
1, 466013, Note_on_c, 0, 45, 99
1, 466016, Note_on_c, 0, 42, 89
1, 466021, Note_on_c, 0, 33, 83
1, 466022, Control_c, 0, 64, 63
1, 466023, Note_on_c, 0, 47, 99
1, 466028, Note_on_c, 0, 39, 70
1, 466037, Note_off_c, 0, 45, 67
1, 466037, Control_c, 0, 64, 127
1, 466048, Note_off_c, 0, 42, 66
1, 466053, Note_off_c, 0, 33, 62
1, 466057, Note_off_c, 0, 39, 62
1, 466072, Note_off_c, 0, 47, 66
1, 466149, Note_on_c, 0, 47, 73
1, 466207, Note_off_c, 0, 47, 59
1, 466318, Note_on_c, 0, 47, 66
1, 466331, Note_on_c, 0, 63, 102
1, 466362, Note_off_c, 0, 63, 61
1, 466367, Note_off_c, 0, 47, 64
1, 466424, Note_on_c, 0, 63, 111
1, 466442, Note_on_c, 0, 47, 86
1, 466453, Note_off_c, 0, 63, 62
1, 466478, Note_off_c, 0, 47, 61
1, 466547, Note_on_c, 0, 47, 80
1, 466585, Note_off_c, 0, 47, 65
1, 466645, Note_on_c, 0, 47, 71
1, 466680, Note_off_c, 0, 47, 64
1, 466746, Note_on_c, 0, 47, 74
1, 466786, Note_off_c, 0, 47, 65
1, 466844, Note_on_c, 0, 47, 85
1, 466880, Note_off_c, 0, 47, 65
1, 466939, Note_on_c, 0, 47, 72
1, 466968, Note_off_c, 0, 47, 60
1, 467029, Note_on_c, 0, 47, 82
1, 467073, Note_off_c, 0, 47, 63
1, 467115, Poly_aftertouch_c, 0, 47, 0
1, 467124, Note_on_c, 0, 47, 73
1, 467152, Note_off_c, 0, 47, 65
1, 467196, Note_on_c, 0, 35, 60
1, 467211, Note_on_c, 0, 47, 70
1, 467233, Note_on_c, 0, 39, 65
1, 467258, Note_on_c, 0, 42, 62
1, 467272, Note_off_c, 0, 47, 65
1, 467276, Control_c, 0, 64, 79
1, 467285, Note_off_c, 0, 35, 58
1, 467291, Control_c, 0, 64, 0
1, 467297, Note_on_c, 0, 45, 113
1, 467309, Poly_aftertouch_c, 0, 47, 0
1, 467316, Note_off_c, 0, 42, 65
1, 467318, Note_on_c, 0, 47, 62
1, 467320, Note_on_c, 0, 51, 74
1, 467323, Note_off_c, 0, 39, 61
1, 467329, Note_off_c, 0, 45, 67
1, 467335, Control_c, 0, 64, 93
1, 467350, Control_c, 0, 64, 127
1, 467386, Note_off_c, 0, 47, 0
1, 467404, Note_on_c, 0, 47, 47
1, 467409, Note_off_c, 0, 51, 59
1, 467493, Note_off_c, 0, 47, 62
1, 467533, Note_on_c, 0, 47, 37
1, 467535, Note_on_c, 0, 51, 56
1, 467545, Note_on_c, 0, 66, 84
1, 467562, Note_on_c, 0, 63, 46
1, 467564, Note_off_c, 0, 66, 71
1, 467576, Note_off_c, 0, 47, 63
1, 467588, Note_off_c, 0, 63, 58
1, 467610, Note_off_c, 0, 51, 60
1, 467617, Note_on_c, 0, 66, 107
1, 467628, Note_on_c, 0, 63, 79
1, 467637, Note_on_c, 0, 47, 76
1, 467649, Note_off_c, 0, 63, 70
1, 467649, Note_off_c, 0, 66, 64
1, 467686, Note_off_c, 0, 47, 63
1, 467723, Poly_aftertouch_c, 0, 47, 0
1, 467729, Note_on_c, 0, 51, 67
1, 467732, Note_on_c, 0, 47, 57
1, 467764, Note_off_c, 0, 47, 64
1, 467786, Note_off_c, 0, 51, 60
1, 467828, Note_on_c, 0, 47, 77
1, 467875, Note_off_c, 0, 47, 66
1, 467915, Poly_aftertouch_c, 0, 47, 0
1, 467923, Note_on_c, 0, 47, 69
1, 467931, Note_on_c, 0, 51, 70
1, 467955, Note_off_c, 0, 47, 62
1, 467983, Note_off_c, 0, 51, 61
1, 468025, Note_on_c, 0, 47, 78
1, 468066, Note_off_c, 0, 47, 63
1, 468107, Poly_aftertouch_c, 0, 47, 0
1, 468114, Note_on_c, 0, 47, 74
1, 468120, Note_on_c, 0, 51, 72
1, 468155, Note_off_c, 0, 47, 64
1, 468180, Note_off_c, 0, 51, 63
1, 468213, Note_on_c, 0, 47, 71
1, 468281, Note_off_c, 0, 47, 0
1, 468298, Note_on_c, 0, 47, 53
1, 468314, Note_on_c, 0, 51, 54
1, 468356, Note_off_c, 0, 47, 64
1, 468363, Note_on_c, 0, 35, 57
1, 468376, Note_off_c, 0, 51, 57
1, 468403, Note_on_c, 0, 47, 53
1, 468419, Note_on_c, 0, 39, 58
1, 468439, Note_on_c, 0, 42, 53
1, 468461, Control_c, 0, 64, 94
1, 468475, Note_off_c, 0, 47, 62
1, 468476, Control_c, 0, 64, 62
1, 468481, Note_on_c, 0, 45, 101
1, 468485, Note_off_c, 0, 35, 64
1, 468490, Control_c, 0, 64, 0
1, 468505, Note_off_c, 0, 42, 63
1, 468505, Control_c, 0, 64, 75
1, 468508, Note_off_c, 0, 45, 66
1, 468511, Note_on_c, 0, 51, 59
1, 468511, Note_on_c, 0, 54, 55
1, 468512, Note_off_c, 0, 39, 60
1, 468520, Control_c, 0, 64, 127
1, 468559, Note_off_c, 0, 51, 59
1, 468588, Note_off_c, 0, 54, 59
1, 468596, Note_on_c, 0, 47, 70
1, 468683, Note_off_c, 0, 47, 57
1, 468710, Note_on_c, 0, 71, 95
1, 468716, Note_on_c, 0, 66, 74
1, 468721, Note_on_c, 0, 63, 68
1, 468732, Note_on_c, 0, 54, 35
1, 468736, Note_off_c, 0, 71, 62
1, 468738, Note_off_c, 0, 66, 67
1, 468750, Note_off_c, 0, 63, 64
1, 468756, Poly_aftertouch_c, 0, 51, 127
1, 468783, Note_off_c, 0, 54, 53
1, 468789, Note_on_c, 0, 71, 94
1, 468799, Note_on_c, 0, 63, 86
1, 468807, Note_on_c, 0, 66, 70
1, 468811, Poly_aftertouch_c, 0, 51, 0
1, 468823, Note_off_c, 0, 63, 68
1, 468823, Note_on_c, 0, 47, 66
1, 468826, Note_off_c, 0, 71, 65
1, 468833, Note_off_c, 0, 66, 65
1, 468899, Note_off_c, 0, 47, 60
1, 468916, Note_on_c, 0, 54, 47
1, 468942, Note_on_c, 0, 51, 41
1, 468988, Note_off_c, 0, 51, 56
1, 469034, Note_on_c, 0, 47, 61
1, 469065, Note_off_c, 0, 54, 40
1, 469124, Note_off_c, 0, 47, 54
1, 469149, Note_on_c, 0, 54, 60
1, 469157, Note_on_c, 0, 51, 48
1, 469193, Note_off_c, 0, 51, 60
1, 469235, Note_off_c, 0, 54, 59
1, 469259, Note_on_c, 0, 47, 52
1, 469308, Note_on_c, 0, 75, 87
1, 469317, Note_off_c, 0, 47, 57
1, 469322, Note_on_c, 0, 71, 70
1, 469333, Note_on_c, 0, 66, 53
1, 469345, Note_off_c, 0, 71, 70
1, 469347, Note_off_c, 0, 75, 64
1, 469354, Note_on_c, 0, 54, 56
1, 469355, Note_off_c, 0, 66, 65
1, 469357, Control_c, 0, 64, 114
1, 469372, Control_c, 0, 64, 65
1, 469387, Control_c, 0, 64, 0
1, 469389, Note_off_c, 0, 54, 63
1, 469395, Note_on_c, 0, 75, 94
1, 469402, Control_c, 0, 64, 65
1, 469417, Control_c, 0, 64, 83
1, 469418, Note_on_c, 0, 66, 70
1, 469419, Note_on_c, 0, 71, 73
1, 469420, Note_on_c, 0, 63, 42
1, 469431, Control_c, 0, 64, 127
1, 469439, Note_on_c, 0, 47, 56
1, 469455, Note_off_c, 0, 63, 56
1, 469488, Note_off_c, 0, 75, 62
1, 469504, Note_off_c, 0, 66, 50
1, 469505, Note_off_c, 0, 47, 60
1, 469516, Note_off_c, 0, 71, 50
1, 469536, Note_on_c, 0, 54, 41
1, 469539, Note_on_c, 0, 51, 54
1, 469606, Note_off_c, 0, 51, 55
1, 469628, Note_off_c, 0, 54, 60
1, 469631, Note_on_c, 0, 47, 55
1, 469722, Note_off_c, 0, 47, 60
1, 469747, Note_on_c, 0, 51, 54
1, 469761, Note_on_c, 0, 54, 54
1, 469828, Note_off_c, 0, 51, 60
1, 469843, Note_off_c, 0, 54, 61
1, 469849, Note_on_c, 0, 47, 56
1, 469938, Note_on_c, 0, 75, 77
1, 469939, Note_off_c, 0, 47, 60
1, 469958, Note_on_c, 0, 71, 55
1, 469959, Note_on_c, 0, 66, 50
1, 469969, Note_on_c, 0, 51, 42
1, 469969, Note_off_c, 0, 75, 60
1, 469976, Note_on_c, 0, 54, 46
1, 469983, Note_off_c, 0, 71, 66
1, 469986, Note_off_c, 0, 66, 61
1, 470001, Note_off_c, 0, 51, 63
1, 470012, Note_off_c, 0, 54, 61
1, 470032, Note_on_c, 0, 75, 80
1, 470048, Control_c, 0, 64, 72
1, 470058, Note_on_c, 0, 63, 40
1, 470058, Note_on_c, 0, 66, 57
1, 470060, Note_on_c, 0, 71, 59
1, 470062, Control_c, 0, 64, 0
1, 470075, Note_on_c, 0, 47, 42
1, 470121, Note_off_c, 0, 47, 63
1, 470122, Control_c, 0, 64, 17
1, 470135, Note_on_c, 0, 54, 46
1, 470136, Control_c, 0, 64, 91
1, 470149, Note_on_c, 0, 51, 46
1, 470151, Control_c, 0, 64, 127
1, 470227, Note_off_c, 0, 51, 56
1, 470248, Note_on_c, 0, 47, 51
1, 470291, Note_off_c, 0, 54, 34
1, 470335, Note_off_c, 0, 47, 62
1, 470357, Note_on_c, 0, 54, 41
1, 470364, Note_on_c, 0, 51, 49
1, 470434, Note_off_c, 0, 51, 54
1, 470477, Note_off_c, 0, 54, 59
1, 470485, Note_on_c, 0, 47, 44
1, 470497, Note_off_c, 0, 75, 39
1, 470499, Note_off_c, 0, 71, 39
1, 470504, Note_off_c, 0, 63, 35
1, 470518, Note_off_c, 0, 66, 38
1, 470588, Note_on_c, 0, 75, 74
1, 470592, Note_off_c, 0, 47, 51
1, 470600, Note_on_c, 0, 54, 50
1, 470605, Note_on_c, 0, 71, 55
1, 470622, Note_on_c, 0, 66, 45
1, 470625, Note_on_c, 0, 63, 23
1, 470628, Note_on_c, 0, 51, 26
1, 470629, Note_off_c, 0, 75, 59
1, 470635, Note_off_c, 0, 71, 67
1, 470654, Note_off_c, 0, 54, 54
1, 470663, Note_off_c, 0, 66, 44
1, 470668, Note_off_c, 0, 51, 48
1, 470684, Note_off_c, 0, 63, 0
1, 470687, Note_on_c, 0, 75, 62
1, 470701, Note_on_c, 0, 63, 39
1, 470709, Note_on_c, 0, 66, 42
1, 470716, Note_on_c, 0, 47, 47
1, 470722, Control_c, 0, 64, 90
1, 470725, Note_on_c, 0, 71, 60
1, 470737, Control_c, 0, 64, 49
1, 470752, Control_c, 0, 64, 0
1, 470768, Note_off_c, 0, 47, 59
1, 470791, Note_on_c, 0, 51, 28
1, 470800, Note_on_c, 0, 54, 37
1, 470810, Control_c, 0, 64, 17
1, 470825, Control_c, 0, 64, 92
1, 470840, Control_c, 0, 64, 127
1, 470907, Note_on_c, 0, 47, 39
1, 470913, Note_off_c, 0, 51, 37
1, 470960, Note_off_c, 0, 54, 0
1, 470965, Note_off_c, 0, 47, 58
1, 470987, Note_on_c, 0, 54, 30
1, 470994, Note_on_c, 0, 51, 37
1, 471062, Note_off_c, 0, 51, 55
1, 471099, Note_on_c, 0, 47, 48
1, 471155, Note_off_c, 0, 47, 57
1, 471171, Note_off_c, 0, 54, 0
1, 471199, Note_on_c, 0, 54, 25
1, 471207, Note_on_c, 0, 51, 45
1, 471259, Note_off_c, 0, 51, 53
1, 471295, Note_on_c, 0, 47, 44
1, 471366, Note_off_c, 0, 47, 53
1, 471369, Note_off_c, 0, 54, 0
1, 471382, Note_on_c, 0, 51, 46
1, 471389, Note_on_c, 0, 54, 32
1, 471444, Note_off_c, 0, 51, 57
1, 471498, Note_on_c, 0, 47, 48
1, 471542, Note_off_c, 0, 63, 60
1, 471548, Note_off_c, 0, 54, 0
1, 471548, Note_off_c, 0, 66, 58
1, 471548, Note_off_c, 0, 47, 58
1, 471554, Note_off_c, 0, 75, 35
1, 471569, Note_on_c, 0, 54, 26
1, 471584, Note_on_c, 0, 51, 46
1, 471628, Note_off_c, 0, 71, 35
1, 471639, Note_off_c, 0, 51, 56
1, 471676, Note_on_c, 0, 47, 43
1, 471758, Note_off_c, 0, 47, 55
1, 471758, Note_off_c, 0, 54, 0
1, 471777, Note_on_c, 0, 54, 32
1, 471785, Note_on_c, 0, 51, 40
1, 471841, Note_off_c, 0, 51, 56
1, 471875, Note_on_c, 0, 76, 81
1, 471897, Note_on_c, 0, 64, 59
1, 471900, Note_on_c, 0, 73, 61
1, 471912, Note_on_c, 0, 45, 53
1, 471919, Note_on_c, 0, 69, 50
1, 471924, Note_off_c, 0, 54, 47
1, 471968, Control_c, 0, 64, 88
1, 471980, Note_off_c, 0, 45, 58
1, 471982, Control_c, 0, 64, 63
1, 471997, Control_c, 0, 64, 0
1, 472018, Note_on_c, 0, 57, 23
1, 472031, Note_on_c, 0, 49, 37
1, 472071, Control_c, 0, 64, 63
1, 472076, Note_off_c, 0, 49, 58
1, 472086, Control_c, 0, 64, 100
1, 472101, Note_on_c, 0, 45, 50
1, 472101, Control_c, 0, 64, 127
1, 472113, Note_off_c, 0, 57, 35
1, 472159, Note_off_c, 0, 45, 62
1, 472192, Note_on_c, 0, 49, 46
1, 472201, Note_on_c, 0, 57, 29
1, 472244, Note_off_c, 0, 49, 55
1, 472267, Note_off_c, 0, 57, 48
1, 472289, Note_on_c, 0, 45, 46
1, 472353, Note_off_c, 0, 45, 54
1, 472389, Note_on_c, 0, 49, 42
1, 472416, Note_on_c, 0, 57, 35
1, 472443, Note_off_c, 0, 49, 55
1, 472464, Note_off_c, 0, 57, 47
1, 472489, Note_on_c, 0, 45, 41
1, 472542, Note_off_c, 0, 45, 57
1, 472581, Note_on_c, 0, 49, 40
1, 472588, Note_on_c, 0, 57, 35
1, 472638, Note_off_c, 0, 49, 54
1, 472666, Note_off_c, 0, 57, 40
1, 472685, Note_on_c, 0, 45, 38
1, 472757, Note_off_c, 0, 45, 43
1, 472776, Note_on_c, 0, 49, 44
1, 472811, Note_on_c, 0, 57, 10
1, 472827, Note_off_c, 0, 49, 56
1, 472869, Note_off_c, 0, 57, 45
1, 472882, Note_on_c, 0, 45, 40
1, 472936, Note_off_c, 0, 45, 47
1, 472958, Note_on_c, 0, 49, 35
1, 472973, Note_on_c, 0, 57, 35
1, 473011, Note_off_c, 0, 49, 56
1, 473024, Note_off_c, 0, 57, 46
1, 473056, Note_on_c, 0, 45, 54
1, 473126, Note_off_c, 0, 45, 54
1, 473148, Note_on_c, 0, 49, 38
1, 473172, Note_on_c, 0, 57, 31
1, 473206, Note_off_c, 0, 49, 55
1, 473224, Note_off_c, 0, 57, 46
1, 473234, Note_on_c, 0, 45, 35
1, 473310, Note_off_c, 0, 45, 54
1, 473338, Note_on_c, 0, 49, 43
1, 473353, Note_on_c, 0, 57, 24
1, 473396, Note_off_c, 0, 49, 56
1, 473408, Note_off_c, 0, 57, 47
1, 473467, Note_on_c, 0, 45, 34
1, 473522, Note_off_c, 0, 45, 46
1, 473530, Note_on_c, 0, 49, 45
1, 473541, Note_on_c, 0, 57, 36
1, 473587, Note_off_c, 0, 49, 57
1, 473638, Note_on_c, 0, 45, 48
1, 473694, Note_off_c, 0, 57, 0
1, 473706, Note_off_c, 0, 45, 57
1, 473717, Note_on_c, 0, 49, 46
1, 473720, Note_on_c, 0, 57, 4
1, 473796, Note_off_c, 0, 49, 51
1, 473840, Note_off_c, 0, 73, 54
1, 473842, Note_on_c, 0, 45, 50
1, 473843, Note_off_c, 0, 76, 59
1, 473872, Note_off_c, 0, 69, 51
1, 473893, Note_off_c, 0, 57, 0
1, 473897, Note_off_c, 0, 45, 58
1, 473920, Note_on_c, 0, 57, 8
1, 473929, Note_on_c, 0, 49, 47
1, 473951, Note_off_c, 0, 64, 41
1, 473980, Note_off_c, 0, 49, 55
1, 474019, Note_on_c, 0, 45, 46
1, 474058, Note_off_c, 0, 45, 59
1, 474079, Note_off_c, 0, 57, 0
1, 474100, Note_on_c, 0, 57, 22
1, 474111, Note_on_c, 0, 49, 43
1, 474167, Note_off_c, 0, 49, 58
1, 474174, Note_off_c, 0, 57, 50
1, 474207, Note_on_c, 0, 75, 67
1, 474243, Note_on_c, 0, 47, 45
1, 474243, Control_c, 0, 64, 108
1, 474244, Note_on_c, 0, 63, 50
1, 474251, Note_on_c, 0, 71, 53
1, 474252, Note_on_c, 0, 66, 49
1, 474258, Control_c, 0, 64, 85
1, 474273, Control_c, 0, 64, 68
1, 474288, Control_c, 0, 64, 0
1, 474296, Note_off_c, 0, 47, 59
1, 474337, Note_on_c, 0, 54, 34
1, 474355, Note_on_c, 0, 51, 30
1, 474401, Note_off_c, 0, 51, 52
1, 474407, Note_off_c, 0, 54, 51
1, 474416, Note_on_c, 0, 47, 41
1, 474422, Control_c, 0, 64, 68
1, 474437, Control_c, 0, 64, 84
1, 474452, Control_c, 0, 64, 110
1, 474466, Control_c, 0, 64, 127
1, 474498, Note_off_c, 0, 47, 56
1, 474509, Note_on_c, 0, 51, 43
1, 474537, Note_on_c, 0, 54, 44
1, 474585, Note_off_c, 0, 51, 54
1, 474601, Note_off_c, 0, 54, 55
1, 474622, Note_on_c, 0, 47, 44
1, 474682, Note_off_c, 0, 47, 60
1, 474723, Note_on_c, 0, 51, 48
1, 474732, Note_on_c, 0, 54, 43
1, 474776, Note_off_c, 0, 51, 54
1, 474803, Note_off_c, 0, 54, 51
1, 474807, Note_on_c, 0, 47, 50
1, 474882, Note_off_c, 0, 47, 61
1, 474901, Note_on_c, 0, 51, 51
1, 474916, Note_on_c, 0, 54, 51
1, 474970, Note_off_c, 0, 51, 54
1, 474978, Note_off_c, 0, 54, 50
1, 475009, Note_on_c, 0, 47, 55
1, 475075, Note_off_c, 0, 47, 59
1, 475092, Note_off_c, 0, 75, 35
1, 475100, Note_on_c, 0, 54, 55
1, 475106, Note_on_c, 0, 51, 52
1, 475149, Note_off_c, 0, 51, 58
1, 475158, Note_off_c, 0, 71, 36
1, 475168, Note_off_c, 0, 54, 56
1, 475202, Note_off_c, 0, 63, 52
1, 475203, Note_on_c, 0, 47, 53
1, 475239, Note_off_c, 0, 66, 31
1, 475283, Note_off_c, 0, 47, 59
1, 475298, Note_on_c, 0, 54, 51
1, 475316, Note_on_c, 0, 51, 20
1, 475362, Note_off_c, 0, 51, 52
1, 475378, Control_c, 0, 64, 97
1, 475388, Note_on_c, 0, 73, 77
1, 475393, Note_on_c, 0, 71, 65
1, 475393, Control_c, 0, 64, 65
1, 475396, Note_off_c, 0, 54, 60
1, 475405, Note_on_c, 0, 66, 54
1, 475407, Control_c, 0, 64, 0
1, 475426, Note_on_c, 0, 47, 38
1, 475433, Note_on_c, 0, 61, 54
1, 475452, Control_c, 0, 64, 72
1, 475467, Control_c, 0, 64, 104
1, 475468, Note_off_c, 0, 73, 63
1, 475480, Note_off_c, 0, 71, 63
1, 475481, Note_off_c, 0, 47, 58
1, 475481, Control_c, 0, 64, 127
1, 475515, Note_on_c, 0, 49, 54
1, 475524, Note_on_c, 0, 54, 43
1, 475534, Note_off_c, 0, 66, 59
1, 475550, Note_off_c, 0, 61, 62
1, 475575, Note_off_c, 0, 54, 58
1, 475578, Note_off_c, 0, 49, 58
1, 475609, Note_on_c, 0, 47, 58
1, 475691, Note_off_c, 0, 47, 61
1, 475708, Note_on_c, 0, 54, 47
1, 475721, Note_on_c, 0, 49, 46
1, 475780, Note_off_c, 0, 49, 54
1, 475792, Note_off_c, 0, 54, 56
1, 475825, Note_on_c, 0, 47, 49
1, 475886, Note_off_c, 0, 47, 58
1, 475930, Note_on_c, 0, 54, 44
1, 475946, Note_on_c, 0, 49, 37
1, 475989, Note_off_c, 0, 49, 59
1, 475990, Note_off_c, 0, 54, 55
1, 475992, Note_on_c, 0, 42, 54
1, 475995, Note_on_c, 0, 30, 50
1, 476003, Note_on_c, 0, 37, 47
1, 476025, Note_on_c, 0, 47, 49
1, 476031, Note_off_c, 0, 30, 61
1, 476052, Note_off_c, 0, 37, 57
1, 476054, Note_off_c, 0, 42, 61
1, 476083, Note_off_c, 0, 47, 59
1, 476119, Note_on_c, 0, 54, 43
1, 476121, Note_on_c, 0, 49, 39
1, 476176, Note_off_c, 0, 54, 55
1, 476177, Note_off_c, 0, 49, 57
1, 476219, Note_on_c, 0, 47, 49
1, 476273, Note_off_c, 0, 47, 62
1, 476293, Note_on_c, 0, 54, 46
1, 476299, Note_on_c, 0, 49, 43
1, 476361, Note_off_c, 0, 49, 58
1, 476369, Note_off_c, 0, 54, 52
1, 476398, Note_on_c, 0, 47, 48
1, 476463, Note_off_c, 0, 47, 63
1, 476490, Note_on_c, 0, 49, 48
1, 476510, Note_on_c, 0, 54, 47
1, 476550, Control_c, 0, 64, 79
1, 476563, Note_off_c, 0, 54, 58
1, 476564, Control_c, 0, 64, 0
1, 476574, Note_off_c, 0, 49, 56
1, 476580, Note_on_c, 0, 73, 81
1, 476587, Note_on_c, 0, 70, 62
1, 476609, Note_on_c, 0, 64, 49
1, 476610, Note_on_c, 0, 61, 57
1, 476627, Note_on_c, 0, 46, 59
1, 476638, Control_c, 0, 64, 87
1, 476653, Control_c, 0, 64, 127
1, 476660, Note_off_c, 0, 73, 64
1, 476684, Note_off_c, 0, 70, 62
1, 476686, Note_off_c, 0, 46, 59
1, 476697, Note_on_c, 0, 54, 56
1, 476709, Note_off_c, 0, 64, 60
1, 476713, Note_on_c, 0, 49, 52
1, 476717, Note_off_c, 0, 61, 62
1, 476782, Note_off_c, 0, 49, 58
1, 476801, Note_off_c, 0, 54, 59
1, 476812, Note_on_c, 0, 46, 56
1, 476885, Note_off_c, 0, 46, 56
1, 476909, Note_on_c, 0, 49, 49
1, 476957, Note_on_c, 0, 54, 27
1, 476969, Note_off_c, 0, 49, 57
1, 477003, Note_off_c, 0, 54, 52
1, 477015, Note_on_c, 0, 46, 52
1, 477073, Note_off_c, 0, 46, 55
1, 477113, Note_on_c, 0, 54, 34
1, 477119, Note_on_c, 0, 49, 41
1, 477179, Note_on_c, 0, 42, 53
1, 477182, Note_on_c, 0, 30, 47
1, 477186, Note_off_c, 0, 49, 55
1, 477199, Note_on_c, 0, 37, 46
1, 477217, Note_off_c, 0, 54, 52
1, 477225, Note_off_c, 0, 30, 58
1, 477226, Note_on_c, 0, 46, 48
1, 477244, Note_off_c, 0, 37, 57
1, 477249, Note_off_c, 0, 42, 60
1, 477295, Note_off_c, 0, 46, 53
1, 477321, Note_on_c, 0, 49, 42
1, 477340, Note_on_c, 0, 54, 28
1, 477358, Control_c, 0, 67, 12
1, 477373, Control_c, 0, 67, 21
1, 477387, Control_c, 0, 67, 32
1, 477402, Control_c, 0, 67, 42
1, 477405, Note_off_c, 0, 49, 55
1, 477417, Control_c, 0, 67, 50
1, 477426, Note_on_c, 0, 46, 51
1, 477432, Control_c, 0, 67, 60
1, 477447, Control_c, 0, 67, 69
1, 477453, Note_off_c, 0, 54, 0
1, 477461, Control_c, 0, 67, 77
1, 477476, Control_c, 0, 67, 85
1, 477491, Poly_aftertouch_c, 0, 54, 0
1, 477491, Control_c, 0, 67, 94
1, 477498, Note_off_c, 0, 46, 58
1, 477507, Control_c, 0, 67, 102
1, 477518, Note_on_c, 0, 54, 25
1, 477522, Control_c, 0, 67, 110
1, 477537, Control_c, 0, 67, 119
1, 477549, Note_on_c, 0, 49, 40
1, 477551, Control_c, 0, 67, 127
1, 477566, Control_c, 0, 67, 127
1, 477586, Note_off_c, 0, 49, 56
1, 477645, Note_on_c, 0, 46, 34
1, 477684, Note_on_c, 0, 49, 49
1, 477695, Note_off_c, 0, 46, 45
1, 477738, Note_off_c, 0, 54, 52
1, 477804, Note_off_c, 0, 49, 54
1, 477817, Control_c, 0, 64, 118
1, 477832, Control_c, 0, 64, 105
1, 477841, Note_on_c, 0, 71, 74
1, 477846, Note_on_c, 0, 55, 50
1, 477847, Control_c, 0, 64, 95
1, 477853, Note_on_c, 0, 59, 55
1, 477853, Note_on_c, 0, 67, 57
1, 477862, Control_c, 0, 64, 85
1, 477871, Note_on_c, 0, 62, 49
1, 477876, Control_c, 0, 64, 75
1, 477891, Control_c, 0, 64, 63
1, 477906, Control_c, 0, 64, 0
1, 477951, Note_on_c, 0, 50, 44
1, 478040, Note_on_c, 0, 47, 52
1, 478050, Note_off_c, 0, 55, 35
1, 478115, Note_off_c, 0, 50, 45
1, 478124, Note_off_c, 0, 47, 63
1, 478154, Note_on_c, 0, 43, 51
1, 478180, Control_c, 0, 64, 43
1, 478195, Control_c, 0, 64, 59
1, 478210, Control_c, 0, 64, 67
1, 478225, Control_c, 0, 64, 73
1, 478239, Note_on_c, 0, 50, 47
1, 478240, Control_c, 0, 64, 79
1, 478255, Control_c, 0, 64, 84
1, 478270, Control_c, 0, 64, 88
1, 478284, Control_c, 0, 64, 93
1, 478300, Control_c, 0, 64, 97
1, 478307, Note_off_c, 0, 43, 32
1, 478315, Control_c, 0, 64, 102
1, 478329, Control_c, 0, 64, 106
1, 478343, Note_on_c, 0, 47, 43
1, 478344, Control_c, 0, 64, 109
1, 478359, Control_c, 0, 64, 110
1, 478374, Control_c, 0, 64, 111
1, 478389, Control_c, 0, 64, 112
1, 478404, Control_c, 0, 64, 113
1, 478419, Control_c, 0, 64, 113
1, 478431, Note_off_c, 0, 50, 41
1, 478456, Note_on_c, 0, 55, 53
1, 478486, Note_off_c, 0, 47, 35
1, 478543, Note_on_c, 0, 50, 48
1, 478646, Note_on_c, 0, 47, 41
1, 478659, Note_off_c, 0, 59, 35
1, 478710, Note_off_c, 0, 47, 58
1, 478712, Note_off_c, 0, 50, 51
1, 478722, Control_c, 0, 64, 114
1, 478723, Note_off_c, 0, 62, 51
1, 478737, Note_on_c, 0, 43, 57
1, 478737, Control_c, 0, 64, 114
1, 478751, Control_c, 0, 64, 115
1, 478762, Note_off_c, 0, 67, 45
1, 478766, Control_c, 0, 64, 116
1, 478781, Control_c, 0, 64, 117
1, 478796, Control_c, 0, 64, 117
1, 478818, Note_off_c, 0, 43, 54
1, 478845, Note_off_c, 0, 55, 34
1, 478847, Note_off_c, 0, 71, 52
1, 478856, Note_on_c, 0, 50, 44
1, 478927, Note_on_c, 0, 47, 47
1, 478927, Note_off_c, 0, 50, 56
1, 478929, Control_c, 0, 64, 119
1, 478944, Control_c, 0, 64, 127
1, 478961, Note_off_c, 0, 47, 64
1, 479018, Control_c, 0, 64, 103
1, 479033, Control_c, 0, 64, 79
1, 479043, Note_on_c, 0, 72, 77
1, 479048, Control_c, 0, 64, 42
1, 479057, Note_on_c, 0, 69, 61
1, 479061, Note_on_c, 0, 57, 54
1, 479063, Control_c, 0, 64, 0
1, 479064, Note_on_c, 0, 60, 45
1, 479072, Note_on_c, 0, 65, 42
1, 479092, Control_c, 0, 64, 59
1, 479108, Control_c, 0, 64, 74
1, 479122, Control_c, 0, 64, 92
1, 479135, Note_off_c, 0, 57, 51
1, 479137, Control_c, 0, 64, 127
1, 479156, Note_on_c, 0, 53, 56
1, 479220, Note_on_c, 0, 48, 56
1, 479221, Note_off_c, 0, 53, 59
1, 479221, Note_off_c, 0, 72, 41
1, 479277, Note_off_c, 0, 48, 62
1, 479352, Note_on_c, 0, 41, 45
1, 479386, Note_off_c, 0, 41, 52
1, 479457, Note_on_c, 0, 53, 47
1, 479541, Note_on_c, 0, 48, 41
1, 479627, Note_off_c, 0, 48, 50
1, 479642, Note_on_c, 0, 57, 53
1, 479661, Note_off_c, 0, 53, 32
1, 479716, Note_off_c, 0, 57, 54
1, 479743, Note_on_c, 0, 53, 44
1, 479836, Note_on_c, 0, 48, 45
1, 479841, Note_off_c, 0, 53, 62
1, 479886, Note_off_c, 0, 48, 59
1, 479930, Note_on_c, 0, 41, 57
1, 479969, Note_off_c, 0, 41, 59
1, 480058, Note_on_c, 0, 53, 39
1, 480135, Note_on_c, 0, 48, 39
1, 480236, Note_off_c, 0, 53, 38
1, 480239, Note_on_c, 0, 57, 50
1, 480246, Note_off_c, 0, 48, 52
1, 480330, Note_off_c, 0, 57, 38
1, 480343, Note_on_c, 0, 53, 46
1, 480389, Note_on_c, 0, 48, 48
1, 480422, Note_off_c, 0, 53, 55
1, 480445, Note_off_c, 0, 48, 59
1, 480490, Note_on_c, 0, 41, 57
1, 480529, Note_off_c, 0, 41, 50
1, 480640, Note_on_c, 0, 53, 32
1, 480693, Note_on_c, 0, 48, 32
1, 480782, Note_off_c, 0, 48, 52
1, 480791, Note_on_c, 0, 57, 52
1, 480809, Note_off_c, 0, 53, 44
1, 480846, Note_off_c, 0, 69, 42
1, 480878, Note_off_c, 0, 57, 52
1, 480923, Note_on_c, 0, 53, 39
1, 480935, Note_on_c, 0, 48, 48
1, 480986, Note_off_c, 0, 65, 37
1, 480992, Note_off_c, 0, 60, 44
1, 481023, Note_off_c, 0, 53, 62
1, 481024, Note_off_c, 0, 48, 55
1, 481063, Note_on_c, 0, 41, 49
1, 481112, Note_off_c, 0, 41, 44
1, 481172, Note_on_c, 0, 53, 47
1, 481268, Note_on_c, 0, 48, 41
1, 481307, Note_off_c, 0, 53, 54
1, 481364, Note_off_c, 0, 48, 48
1, 481369, Note_on_c, 0, 71, 70
1, 481385, Note_on_c, 0, 59, 47
1, 481391, Note_on_c, 0, 55, 47
1, 481395, Note_on_c, 0, 67, 48
1, 481398, Note_on_c, 0, 62, 46
1, 481427, Control_c, 0, 64, 98
1, 481442, Control_c, 0, 64, 81
1, 481457, Control_c, 0, 64, 62
1, 481471, Control_c, 0, 64, 0
1, 481507, Note_on_c, 0, 50, 35
1, 481547, Control_c, 0, 64, 45
1, 481561, Control_c, 0, 64, 65
1, 481576, Control_c, 0, 64, 75
1, 481591, Control_c, 0, 64, 88
1, 481596, Note_on_c, 0, 47, 39
1, 481606, Control_c, 0, 64, 117
1, 481621, Control_c, 0, 64, 127
1, 481671, Note_off_c, 0, 47, 59
1, 481706, Note_off_c, 0, 50, 44
1, 481712, Note_on_c, 0, 43, 43
1, 481805, Note_on_c, 0, 50, 36
1, 481819, Note_off_c, 0, 43, 36
1, 481889, Note_off_c, 0, 55, 42
1, 481897, Note_on_c, 0, 47, 42
1, 481957, Note_off_c, 0, 71, 37
1, 481967, Note_off_c, 0, 50, 43
1, 482004, Note_on_c, 0, 55, 47
1, 482038, Note_off_c, 0, 47, 38
1, 482072, Note_off_c, 0, 67, 36
1, 482096, Note_on_c, 0, 50, 35
1, 482196, Note_on_c, 0, 47, 38
1, 482218, Note_off_c, 0, 62, 32
1, 482261, Note_off_c, 0, 50, 54
1, 482270, Note_off_c, 0, 47, 55
1, 482297, Note_off_c, 0, 59, 37
1, 482299, Note_on_c, 0, 43, 49
1, 482414, Note_on_c, 0, 50, 46
1, 482416, Note_off_c, 0, 43, 37
1, 482476, Note_off_c, 0, 55, 30
1, 482501, Note_on_c, 0, 47, 39
1, 482504, Note_off_c, 0, 50, 47
1, 482565, Note_off_c, 0, 47, 55
1, 482584, Control_c, 0, 64, 102
1, 482598, Control_c, 0, 64, 78
1, 482602, Note_on_c, 0, 55, 52
1, 482609, Note_on_c, 0, 69, 55
1, 482613, Note_on_c, 0, 67, 59
1, 482613, Control_c, 0, 64, 50
1, 482628, Control_c, 0, 64, 0
1, 482640, Note_on_c, 0, 62, 46
1, 482642, Note_on_c, 0, 57, 37
1, 482673, Control_c, 0, 64, 60
1, 482688, Control_c, 0, 64, 77
1, 482702, Control_c, 0, 64, 106
1, 482717, Control_c, 0, 64, 127
1, 482720, Note_on_c, 0, 50, 49
1, 482721, Note_off_c, 0, 69, 61
1, 482734, Note_off_c, 0, 67, 62
1, 482788, Note_off_c, 0, 50, 60
1, 482789, Note_off_c, 0, 62, 60
1, 482798, Note_off_c, 0, 57, 61
1, 482818, Note_on_c, 0, 45, 44
1, 482860, Note_off_c, 0, 45, 60
1, 482920, Note_on_c, 0, 50, 40
1, 482965, Note_off_c, 0, 50, 62
1, 482989, Note_on_c, 0, 45, 39
1, 483051, Note_off_c, 0, 45, 55
1, 483076, Note_on_c, 0, 50, 40
1, 483167, Note_off_c, 0, 50, 57
1, 483205, Note_on_c, 0, 26, 49
1, 483206, Note_on_c, 0, 45, 37
1, 483214, Note_on_c, 0, 38, 46
1, 483221, Note_on_c, 0, 33, 41
1, 483240, Note_off_c, 0, 26, 56
1, 483256, Note_off_c, 0, 45, 57
1, 483257, Note_off_c, 0, 38, 61
1, 483261, Note_off_c, 0, 33, 54
1, 483316, Note_on_c, 0, 50, 33
1, 483374, Note_off_c, 0, 50, 52
1, 483379, Note_on_c, 0, 45, 42
1, 483428, Note_off_c, 0, 45, 57
1, 483504, Note_on_c, 0, 50, 28
1, 483531, Note_off_c, 0, 55, 48
1, 483557, Note_on_c, 0, 45, 37
1, 483653, Note_on_c, 0, 57, 41
1, 483677, Note_on_c, 0, 62, 45
1, 483696, Note_on_c, 0, 66, 54
1, 483718, Control_c, 0, 64, 95
1, 483733, Control_c, 0, 64, 68
1, 483741, Note_off_c, 0, 45, 46
1, 483747, Control_c, 0, 64, 0
1, 483750, Note_off_c, 0, 50, 44
1, 483767, Note_on_c, 0, 69, 65
1, 483772, Note_on_c, 0, 54, 44
1, 483792, Control_c, 0, 64, 65
1, 483807, Control_c, 0, 64, 82
1, 483821, Control_c, 0, 64, 127
1, 483822, Note_off_c, 0, 69, 60
1, 483853, Note_off_c, 0, 66, 58
1, 483869, Note_on_c, 0, 50, 37
1, 483871, Note_off_c, 0, 62, 47
1, 483898, Note_off_c, 0, 57, 48
1, 483957, Note_off_c, 0, 50, 50
1, 483999, Note_on_c, 0, 45, 35
1, 484049, Note_off_c, 0, 45, 55
1, 484117, Note_on_c, 0, 50, 30
1, 484176, Note_off_c, 0, 50, 46
1, 484197, Note_on_c, 0, 45, 35
1, 484261, Note_off_c, 0, 45, 51
1, 484334, Note_on_c, 0, 50, 29
1, 484382, Note_on_c, 0, 26, 41
1, 484383, Note_on_c, 0, 38, 40
1, 484386, Note_on_c, 0, 33, 42
1, 484406, Note_off_c, 0, 50, 51
1, 484424, Note_off_c, 0, 26, 50
1, 484433, Note_off_c, 0, 33, 57
1, 484446, Note_off_c, 0, 38, 42
1, 484458, Note_on_c, 0, 45, 31
1, 484513, Note_off_c, 0, 45, 48
1, 484564, Note_on_c, 0, 50, 23
1, 484697, Note_off_c, 0, 50, 35
1, 484718, Note_on_c, 0, 45, 26
1, 484816, Note_off_c, 0, 45, 36
1, 484867, Note_on_c, 0, 50, 22
1, 485000, Note_off_c, 0, 50, 0
1, 485037, Poly_aftertouch_c, 0, 50, 127
1, 485060, Poly_aftertouch_c, 0, 45, 127
1, 485099, Poly_aftertouch_c, 0, 50, 0
1, 485125, Poly_aftertouch_c, 0, 45, 0
1, 485132, Note_on_c, 0, 55, 26
1, 485141, Control_c, 0, 64, 124
1, 485156, Control_c, 0, 64, 113
1, 485171, Control_c, 0, 64, 109
1, 485186, Control_c, 0, 64, 106
1, 485200, Control_c, 0, 64, 104
1, 485202, Note_on_c, 0, 59, 28
1, 485215, Control_c, 0, 64, 102
1, 485230, Control_c, 0, 64, 99
1, 485240, Note_on_c, 0, 63, 42
1, 485245, Control_c, 0, 64, 96
1, 485260, Control_c, 0, 64, 92
1, 485275, Control_c, 0, 64, 89
1, 485290, Control_c, 0, 64, 84
1, 485304, Control_c, 0, 64, 78
1, 485319, Control_c, 0, 64, 72
1, 485334, Control_c, 0, 64, 64
1, 485349, Control_c, 0, 64, 26
1, 485364, Control_c, 0, 64, 0
1, 485381, Note_off_c, 0, 54, 40
1, 485401, Note_on_c, 0, 67, 46
1, 485428, Note_on_c, 0, 51, 22
1, 485475, Control_c, 0, 64, 29
1, 485490, Control_c, 0, 64, 64
1, 485505, Control_c, 0, 64, 77
1, 485520, Control_c, 0, 64, 93
1, 485531, Note_off_c, 0, 67, 51
1, 485534, Note_on_c, 0, 47, 38
1, 485535, Control_c, 0, 64, 127
1, 485549, Note_off_c, 0, 55, 42
1, 485610, Note_off_c, 0, 63, 47
1, 485611, Note_off_c, 0, 59, 42
1, 485637, Note_off_c, 0, 47, 50
1, 485678, Note_off_c, 0, 51, 39
1, 485695, Note_on_c, 0, 43, 32
1, 485742, Note_off_c, 0, 43, 48
1, 485770, Note_on_c, 0, 55, 30
1, 485812, Note_off_c, 0, 55, 48
1, 485884, Note_on_c, 0, 51, 37
1, 485931, Note_off_c, 0, 51, 57
1, 485955, Note_on_c, 0, 47, 46
1, 486015, Note_off_c, 0, 47, 54
1, 486045, Note_on_c, 0, 51, 48
1, 486110, Note_on_c, 0, 47, 40
1, 486205, Note_off_c, 0, 47, 55
1, 486228, Note_on_c, 0, 43, 48
1, 486236, Note_off_c, 0, 51, 37
1, 486287, Note_off_c, 0, 43, 50
1, 486321, Note_on_c, 0, 55, 45
1, 486381, Note_off_c, 0, 55, 48
1, 486444, Note_on_c, 0, 51, 34
1, 486492, Note_off_c, 0, 51, 58
1, 486508, Note_on_c, 0, 47, 49
1, 486535, Note_on_c, 0, 27, 43
1, 486538, Note_on_c, 0, 39, 43
1, 486539, Note_on_c, 0, 35, 45
1, 486569, Note_off_c, 0, 47, 57
1, 486571, Note_off_c, 0, 35, 55
1, 486578, Note_off_c, 0, 27, 49
1, 486607, Note_off_c, 0, 39, 0
1, 486610, Note_on_c, 0, 51, 47
1, 486619, Note_on_c, 0, 39, 51
1, 486626, Note_on_c, 0, 27, 52
1, 486630, Note_on_c, 0, 35, 48
1, 486654, Control_c, 0, 64, 110
1, 486669, Control_c, 0, 64, 100
1, 486683, Control_c, 0, 64, 90
1, 486698, Control_c, 0, 64, 80
1, 486703, Note_on_c, 0, 47, 37
1, 486713, Control_c, 0, 64, 70
1, 486728, Control_c, 0, 64, 57
1, 486743, Control_c, 0, 64, 0
1, 486751, Note_off_c, 0, 47, 62
1, 486769, Note_off_c, 0, 51, 30
1, 486790, Note_on_c, 0, 43, 50
1, 486870, Note_off_c, 0, 43, 48
1, 486897, Note_on_c, 0, 55, 52
1, 486967, Note_off_c, 0, 55, 48
1, 487012, Note_on_c, 0, 51, 44
1, 487081, Note_off_c, 0, 51, 61
1, 487097, Note_on_c, 0, 47, 45
1, 487151, Control_c, 0, 64, 32
1, 487162, Note_off_c, 0, 47, 58
1, 487166, Control_c, 0, 64, 62
1, 487180, Control_c, 0, 64, 68
1, 487195, Control_c, 0, 64, 72
1, 487197, Note_on_c, 0, 51, 48
1, 487210, Control_c, 0, 64, 78
1, 487225, Control_c, 0, 64, 83
1, 487240, Control_c, 0, 64, 89
1, 487255, Control_c, 0, 64, 94
1, 487269, Control_c, 0, 64, 98
1, 487284, Control_c, 0, 64, 103
1, 487293, Note_on_c, 0, 47, 52
1, 487299, Control_c, 0, 64, 107
1, 487302, Note_off_c, 0, 27, 59
1, 487314, Control_c, 0, 64, 111
1, 487329, Control_c, 0, 64, 116
1, 487344, Control_c, 0, 64, 123
1, 487351, Note_off_c, 0, 47, 59
1, 487354, Note_off_c, 0, 35, 58
1, 487359, Control_c, 0, 64, 127
1, 487368, Note_off_c, 0, 39, 55
1, 487382, Note_on_c, 0, 43, 52
1, 487416, Note_off_c, 0, 51, 39
1, 487435, Note_off_c, 0, 43, 52
1, 487483, Note_on_c, 0, 55, 48
1, 487537, Note_off_c, 0, 55, 43
1, 487543, Note_on_c, 0, 51, 44
1, 487640, Control_c, 0, 64, 124
1, 487644, Note_on_c, 0, 47, 49
1, 487662, Control_c, 0, 64, 121
1, 487677, Control_c, 0, 64, 118
1, 487692, Control_c, 0, 64, 114
1, 487698, Note_off_c, 0, 51, 40
1, 487707, Control_c, 0, 64, 112
1, 487708, Note_off_c, 0, 47, 57
1, 487721, Control_c, 0, 64, 109
1, 487736, Control_c, 0, 64, 105
1, 487751, Control_c, 0, 64, 99
1, 487766, Control_c, 0, 64, 91
1, 487780, Note_on_c, 0, 52, 45
1, 487781, Control_c, 0, 64, 80
1, 487795, Control_c, 0, 64, 66
1, 487809, Note_on_c, 0, 55, 50
1, 487810, Control_c, 0, 64, 0
1, 487812, Note_on_c, 0, 67, 58
1, 487819, Note_on_c, 0, 64, 55
1, 487821, Note_on_c, 0, 60, 43
1, 487885, Control_c, 0, 64, 55
1, 487888, Note_on_c, 0, 48, 41
1, 487900, Control_c, 0, 64, 68
1, 487915, Control_c, 0, 64, 78
1, 487916, Note_off_c, 0, 67, 58
1, 487929, Control_c, 0, 64, 94
1, 487937, Note_off_c, 0, 55, 54
1, 487941, Note_off_c, 0, 48, 56
1, 487944, Control_c, 0, 64, 111
1, 487950, Note_off_c, 0, 64, 62
1, 487959, Control_c, 0, 64, 127
1, 487973, Note_off_c, 0, 60, 56
1, 487975, Note_on_c, 0, 43, 51
1, 487984, Note_off_c, 0, 52, 25
1, 488038, Note_off_c, 0, 43, 54
1, 488078, Note_on_c, 0, 55, 48
1, 488133, Note_off_c, 0, 55, 52
1, 488161, Note_on_c, 0, 52, 44
1, 488249, Note_on_c, 0, 48, 47
1, 488249, Note_off_c, 0, 52, 57
1, 488327, Note_off_c, 0, 48, 55
1, 488365, Note_on_c, 0, 52, 45
1, 488477, Note_on_c, 0, 48, 47
1, 488536, Note_off_c, 0, 48, 54
1, 488569, Note_on_c, 0, 43, 48
1, 488610, Note_off_c, 0, 52, 41
1, 488639, Note_off_c, 0, 43, 52
1, 488667, Note_on_c, 0, 55, 50
1, 488739, Note_off_c, 0, 55, 42
1, 488757, Note_on_c, 0, 52, 38
1, 488868, Note_on_c, 0, 31, 53
1, 488870, Note_on_c, 0, 36, 47
1, 488870, Note_on_c, 0, 48, 48
1, 488879, Note_on_c, 0, 24, 36
1, 488903, Note_off_c, 0, 31, 58
1, 488909, Note_off_c, 0, 52, 34
1, 488918, Note_off_c, 0, 36, 42
1, 488931, Control_c, 0, 64, 121
1, 488933, Note_off_c, 0, 48, 51
1, 488938, Note_off_c, 0, 24, 0
1, 488946, Control_c, 0, 64, 106
1, 488952, Note_on_c, 0, 36, 57
1, 488954, Note_on_c, 0, 24, 43
1, 488956, Note_on_c, 0, 31, 57
1, 488960, Control_c, 0, 64, 95
1, 488975, Control_c, 0, 64, 85
1, 488979, Note_on_c, 0, 52, 39
1, 488990, Control_c, 0, 64, 74
1, 489005, Control_c, 0, 64, 62
1, 489020, Control_c, 0, 64, 0
1, 489123, Poly_aftertouch_c, 0, 48, 127
1, 489146, Note_off_c, 0, 52, 50
1, 489168, Note_on_c, 0, 43, 41
1, 489177, Poly_aftertouch_c, 0, 48, 0
1, 489260, Note_off_c, 0, 43, 38
1, 489260, Note_on_c, 0, 55, 52
1, 489293, Control_c, 0, 64, 34
1, 489308, Control_c, 0, 64, 61
1, 489323, Control_c, 0, 64, 68
1, 489331, Note_off_c, 0, 55, 49
1, 489338, Control_c, 0, 64, 73
1, 489353, Note_on_c, 0, 52, 43
1, 489353, Control_c, 0, 64, 81
1, 489367, Control_c, 0, 64, 88
1, 489382, Control_c, 0, 64, 95
1, 489397, Control_c, 0, 64, 103
1, 489412, Control_c, 0, 64, 114
1, 489427, Control_c, 0, 64, 127
1, 489448, Note_off_c, 0, 52, 57
1, 489452, Note_on_c, 0, 48, 45
1, 489545, Note_off_c, 0, 24, 42
1, 489556, Note_on_c, 0, 52, 44
1, 489585, Note_off_c, 0, 48, 0
1, 489608, Note_off_c, 0, 36, 56
1, 489623, Poly_aftertouch_c, 0, 48, 127
1, 489649, Note_off_c, 0, 31, 37
1, 489718, Note_on_c, 0, 43, 52
1, 489743, Poly_aftertouch_c, 0, 48, 0
1, 489792, Note_off_c, 0, 43, 54
1, 489794, Note_off_c, 0, 52, 40
1, 489836, Note_on_c, 0, 55, 52
1, 489949, Note_off_c, 0, 55, 53
1, 489953, Note_on_c, 0, 52, 40
1, 490066, Note_off_c, 0, 52, 59
1, 490103, Note_on_c, 0, 48, 49
1, 490220, Control_c, 0, 64, 123
1, 490223, Note_off_c, 0, 48, 50
1, 490234, Control_c, 0, 64, 114
1, 490249, Control_c, 0, 64, 108
1, 490264, Control_c, 0, 64, 101
1, 490280, Control_c, 0, 64, 92
1, 490295, Control_c, 0, 64, 78
1, 490310, Control_c, 0, 64, 64
1, 490325, Control_c, 0, 64, 0
1, 490340, Note_on_c, 0, 70, 55
1, 490356, Note_on_c, 0, 65, 46
1, 490358, Note_on_c, 0, 58, 45
1, 490386, Note_on_c, 0, 62, 34
1, 490399, Control_c, 0, 64, 32
1, 490413, Control_c, 0, 64, 61
1, 490417, Poly_aftertouch_c, 0, 53, 127
1, 490428, Control_c, 0, 64, 68
1, 490443, Control_c, 0, 64, 77
1, 490458, Control_c, 0, 64, 89
1, 490461, Note_off_c, 0, 70, 62
1, 490473, Control_c, 0, 64, 103
1, 490481, Note_off_c, 0, 58, 57
1, 490487, Control_c, 0, 64, 127
1, 490495, Note_off_c, 0, 65, 50
1, 490504, Poly_aftertouch_c, 0, 53, 0
1, 490505, Note_on_c, 0, 50, 40
1, 490540, Note_off_c, 0, 62, 33
1, 490561, Note_off_c, 0, 50, 59
1, 490598, Note_on_c, 0, 46, 45
1, 490691, Note_on_c, 0, 58, 52
1, 490710, Note_off_c, 0, 46, 36
1, 490775, Note_off_c, 0, 58, 38
1, 490793, Note_on_c, 0, 53, 41
1, 490846, Note_off_c, 0, 53, 57
1, 490870, Note_on_c, 0, 50, 46
1, 490925, Note_off_c, 0, 50, 60
1, 490969, Note_on_c, 0, 53, 48
1, 491046, Note_on_c, 0, 50, 44
1, 491094, Note_off_c, 0, 53, 47
1, 491141, Note_off_c, 0, 50, 60
1, 491157, Note_on_c, 0, 46, 50
1, 491235, Note_off_c, 0, 46, 48
1, 491253, Note_on_c, 0, 58, 55
1, 491340, Control_c, 0, 64, 124
1, 491354, Control_c, 0, 64, 122
1, 491367, Note_off_c, 0, 58, 38
1, 491368, Note_on_c, 0, 53, 42
1, 491369, Control_c, 0, 64, 121
1, 491384, Control_c, 0, 64, 119
1, 491407, Control_c, 0, 64, 119
1, 491422, Control_c, 0, 64, 118
1, 491436, Control_c, 0, 64, 116
1, 491451, Control_c, 0, 64, 115
1, 491453, Note_off_c, 0, 53, 53
1, 491466, Control_c, 0, 64, 113
1, 491472, Note_on_c, 0, 34, 49
1, 491477, Note_on_c, 0, 38, 41
1, 491480, Control_c, 0, 64, 109
1, 491495, Control_c, 0, 64, 104
1, 491496, Note_on_c, 0, 50, 37
1, 491508, Note_off_c, 0, 34, 51
1, 491510, Control_c, 0, 64, 98
1, 491525, Control_c, 0, 64, 92
1, 491531, Note_off_c, 0, 38, 0
1, 491540, Control_c, 0, 64, 83
1, 491544, Note_off_c, 0, 50, 59
1, 491546, Note_on_c, 0, 38, 45
1, 491554, Note_on_c, 0, 34, 52
1, 491554, Control_c, 0, 64, 74
1, 491569, Control_c, 0, 64, 64
1, 491584, Control_c, 0, 64, 0
1, 491593, Note_on_c, 0, 53, 51
1, 491660, Note_off_c, 0, 53, 56
1, 491687, Note_on_c, 0, 50, 30
1, 491746, Note_off_c, 0, 50, 59
1, 491766, Note_on_c, 0, 46, 45
1, 491848, Note_off_c, 0, 46, 50
1, 491856, Note_on_c, 0, 58, 51
1, 491927, Note_off_c, 0, 58, 53
1, 491954, Note_on_c, 0, 53, 48
1, 492022, Note_off_c, 0, 53, 60
1, 492050, Note_on_c, 0, 50, 43
1, 492113, Note_off_c, 0, 50, 63
1, 492155, Note_on_c, 0, 53, 54
1, 492155, Control_c, 0, 64, 44
1, 492170, Control_c, 0, 64, 56
1, 492185, Control_c, 0, 64, 63
1, 492200, Control_c, 0, 64, 66
1, 492215, Control_c, 0, 64, 69
1, 492217, Note_off_c, 0, 53, 55
1, 492230, Control_c, 0, 64, 72
1, 492235, Note_on_c, 0, 50, 55
1, 492245, Control_c, 0, 64, 74
1, 492259, Control_c, 0, 64, 76
1, 492274, Control_c, 0, 64, 78
1, 492289, Control_c, 0, 64, 80
1, 492304, Control_c, 0, 64, 81
1, 492312, Note_off_c, 0, 50, 60
1, 492330, Note_on_c, 0, 46, 54
1, 492393, Note_off_c, 0, 34, 60
1, 492397, Note_off_c, 0, 38, 46
1, 492426, Note_on_c, 0, 58, 55
1, 492429, Note_off_c, 0, 46, 36
1, 492437, Control_c, 0, 64, 81
1, 492467, Control_c, 0, 64, 80
1, 492482, Control_c, 0, 64, 80
1, 492497, Control_c, 0, 64, 79
1, 492510, Note_off_c, 0, 58, 51
1, 492511, Control_c, 0, 64, 79
1, 492531, Note_on_c, 0, 53, 41
1, 492585, Control_c, 0, 64, 78
1, 492586, Note_off_c, 0, 53, 58
1, 492600, Control_c, 0, 64, 78
1, 492613, Note_on_c, 0, 34, 53
1, 492615, Control_c, 0, 64, 77
1, 492621, Note_on_c, 0, 50, 48
1, 492629, Control_c, 0, 64, 74
1, 492635, Note_on_c, 0, 38, 34
1, 492644, Control_c, 0, 64, 68
1, 492659, Control_c, 0, 64, 58
1, 492660, Note_off_c, 0, 34, 55
1, 492675, Control_c, 0, 64, 0
1, 492676, Note_off_c, 0, 50, 58
1, 492705, Note_on_c, 0, 30, 58
1, 492719, Note_on_c, 0, 53, 52
1, 492767, Note_off_c, 0, 30, 58
1, 492797, Note_on_c, 0, 31, 43
1, 492803, Note_off_c, 0, 53, 60
1, 492815, Note_on_c, 0, 50, 43
1, 492824, Note_on_c, 0, 34, 37
1, 492864, Note_off_c, 0, 50, 62
1, 492882, Note_off_c, 0, 34, 58
1, 492891, Note_on_c, 0, 46, 47
1, 492891, Note_off_c, 0, 31, 54
1, 492912, Note_on_c, 0, 30, 49
1, 492975, Note_off_c, 0, 30, 59
1, 492979, Note_off_c, 0, 46, 50
1, 492989, Note_on_c, 0, 58, 53
1, 493010, Note_on_c, 0, 34, 41
1, 493023, Note_on_c, 0, 31, 36
1, 493055, Note_off_c, 0, 58, 49
1, 493059, Note_off_c, 0, 34, 56
1, 493075, Note_off_c, 0, 31, 58
1, 493094, Note_on_c, 0, 53, 45
1, 493100, Note_on_c, 0, 30, 53
1, 493136, Note_off_c, 0, 38, 46
1, 493152, Note_off_c, 0, 53, 61
1, 493162, Note_off_c, 0, 30, 59
1, 493177, Note_on_c, 0, 34, 34
1, 493180, Note_on_c, 0, 50, 46
1, 493194, Note_on_c, 0, 31, 40
1, 493226, Note_off_c, 0, 34, 55
1, 493240, Note_off_c, 0, 50, 61
1, 493246, Note_off_c, 0, 31, 58
1, 493260, Note_on_c, 0, 38, 51
1, 493267, Note_on_c, 0, 53, 54
1, 493278, Note_on_c, 0, 30, 52
1, 493329, Note_off_c, 0, 30, 58
1, 493341, Note_off_c, 0, 53, 58
1, 493354, Note_on_c, 0, 50, 51
1, 493369, Note_on_c, 0, 31, 36
1, 493371, Note_on_c, 0, 34, 35
1, 493420, Note_off_c, 0, 50, 61
1, 493435, Note_off_c, 0, 31, 56
1, 493436, Note_off_c, 0, 34, 57
1, 493449, Note_on_c, 0, 46, 49
1, 493458, Note_on_c, 0, 30, 48
1, 493522, Note_off_c, 0, 30, 59
1, 493531, Note_off_c, 0, 46, 51
1, 493545, Note_on_c, 0, 58, 50
1, 493562, Note_on_c, 0, 34, 41
1, 493577, Note_on_c, 0, 31, 37
1, 493611, Note_off_c, 0, 34, 57
1, 493613, Note_off_c, 0, 58, 51
1, 493623, Note_off_c, 0, 31, 58
1, 493651, Note_on_c, 0, 53, 45
1, 493654, Note_on_c, 0, 30, 52
1, 493702, Note_off_c, 0, 53, 61
1, 493705, Note_off_c, 0, 30, 58
1, 493709, Note_off_c, 0, 38, 49
1, 493728, Note_on_c, 0, 34, 41
1, 493736, Note_on_c, 0, 50, 46
1, 493743, Note_on_c, 0, 31, 46
1, 493788, Note_off_c, 0, 34, 54
1, 493802, Note_off_c, 0, 50, 59
1, 493807, Note_off_c, 0, 31, 57
1, 493825, Note_on_c, 0, 38, 46
1, 493839, Note_on_c, 0, 53, 43
1, 493841, Note_on_c, 0, 30, 40
1, 493896, Note_off_c, 0, 30, 56
1, 493906, Note_off_c, 0, 53, 58
1, 493937, Note_on_c, 0, 34, 36
1, 493937, Note_on_c, 0, 50, 38
1, 493943, Note_on_c, 0, 31, 39
1, 493990, Note_off_c, 0, 50, 60
1, 494007, Note_off_c, 0, 31, 57
1, 494008, Note_off_c, 0, 34, 55
1, 494027, Note_on_c, 0, 46, 43
1, 494038, Note_on_c, 0, 30, 44
1, 494094, Note_off_c, 0, 46, 52
1, 494112, Note_off_c, 0, 30, 57
1, 494132, Note_on_c, 0, 58, 42
1, 494140, Note_on_c, 0, 31, 38
1, 494142, Note_on_c, 0, 34, 41
1, 494201, Note_off_c, 0, 38, 40
1, 494203, Note_off_c, 0, 58, 54
1, 494209, Note_off_c, 0, 34, 55
1, 494241, Note_on_c, 0, 30, 53
1, 494241, Note_off_c, 0, 31, 49
1, 494252, Note_on_c, 0, 53, 40
1, 494325, Note_off_c, 0, 30, 57
1, 494349, Note_off_c, 0, 53, 57
1, 494357, Note_on_c, 0, 34, 30
1, 494377, Note_on_c, 0, 50, 42
1, 494383, Note_on_c, 0, 31, 39
1, 494429, Note_off_c, 0, 34, 52
1, 494447, Note_off_c, 0, 31, 47
1, 494462, Note_on_c, 0, 38, 13
1, 494465, Note_off_c, 0, 50, 59
1, 494490, Note_on_c, 0, 30, 49
1, 494492, Note_on_c, 0, 53, 47
1, 494568, Note_off_c, 0, 30, 55
1, 494596, Note_off_c, 0, 53, 51
1, 494605, Note_on_c, 0, 34, 29
1, 494609, Note_on_c, 0, 50, 37
1, 494620, Note_on_c, 0, 31, 31
1, 494702, Note_off_c, 0, 50, 56
1, 494716, Note_off_c, 0, 31, 46
1, 494716, Note_off_c, 0, 34, 38
1, 494731, Note_on_c, 0, 46, 40
1, 494739, Note_on_c, 0, 30, 44
1, 494873, Note_off_c, 0, 30, 44
1, 494892, Note_on_c, 0, 34, 34
1, 494899, Note_off_c, 0, 46, 42
1, 494906, Note_on_c, 0, 31, 35
1, 494906, Note_on_c, 0, 58, 44
1, 495049, Note_off_c, 0, 58, 38
1, 495053, Note_off_c, 0, 34, 46
1, 495055, Note_off_c, 0, 31, 44
1, 495073, Note_on_c, 0, 30, 36
1, 495097, Note_on_c, 0, 53, 29
1, 495327, Note_off_c, 0, 30, 41
1, 495344, Note_off_c, 0, 53, 40
1, 495371, Note_on_c, 0, 34, 24
1, 495391, Note_on_c, 0, 31, 23
1, 495391, Note_on_c, 0, 50, 25
1, 495428, Note_off_c, 0, 38, 43
1, 495582, Note_off_c, 0, 50, 44
1, 495743, Control_c, 0, 67, 126
1, 495758, Control_c, 0, 67, 120
1, 495773, Control_c, 0, 67, 114
1, 495788, Control_c, 0, 67, 105
1, 495802, Control_c, 0, 67, 93
1, 495817, Control_c, 0, 67, 82
1, 495832, Control_c, 0, 67, 71
1, 495846, Control_c, 0, 67, 62
1, 495861, Control_c, 0, 67, 53
1, 495877, Control_c, 0, 67, 45
1, 495899, Control_c, 0, 67, 36
1, 495903, Note_off_c, 0, 34, 33
1, 495914, Control_c, 0, 67, 25
1, 495929, Control_c, 0, 67, 15
1, 495944, Control_c, 0, 67, 0
1, 496074, Note_off_c, 0, 31, 22
1, 497038, Note_on_c, 0, 30, 37
1, 497109, Note_off_c, 0, 30, 50
1, 497302, Note_on_c, 0, 31, 59
1, 497382, Note_off_c, 0, 31, 54
1, 497527, Note_on_c, 0, 34, 64
1, 497598, Note_off_c, 0, 34, 57
1, 497720, Note_on_c, 0, 37, 73
1, 497790, Note_off_c, 0, 37, 59
1, 497934, Note_on_c, 0, 38, 75
1, 498001, Note_off_c, 0, 38, 58
1, 498215, Note_on_c, 0, 39, 72
1, 498289, Note_off_c, 0, 39, 56
1, 498573, Note_on_c, 0, 40, 55
1, 498696, Note_off_c, 0, 40, 36
1, 499127, Note_on_c, 0, 41, 40
1, 499336, Note_off_c, 0, 41, 55
1, 501045, Note_on_c, 0, 53, 67
1, 501104, Note_off_c, 0, 53, 61
1, 501465, Note_on_c, 0, 52, 65
1, 501561, Note_off_c, 0, 52, 55
1, 501760, Note_on_c, 0, 50, 57
1, 501876, Note_off_c, 0, 50, 60
1, 502016, Note_on_c, 0, 47, 47
1, 502224, Note_off_c, 0, 47, 31
1, 502306, Note_on_c, 0, 44, 40
1, 502496, Note_on_c, 0, 32, 35
1, 502514, Note_on_c, 0, 35, 29
1, 502616, Note_on_c, 0, 41, 42
1, 502864, Note_off_c, 0, 35, 44
1, 503066, Note_off_c, 0, 44, 35
1, 503306, Note_on_c, 0, 40, 37
1, 503561, Note_off_c, 0, 41, 39
1, 504365, Note_on_c, 0, 38, 35
1, 504546, Note_off_c, 0, 40, 42
1, 504639, Control_c, 0, 64, 23
1, 504654, Control_c, 0, 64, 37
1, 504669, Control_c, 0, 64, 48
1, 504684, Control_c, 0, 64, 54
1, 504699, Control_c, 0, 64, 58
1, 504713, Control_c, 0, 64, 62
1, 504728, Control_c, 0, 64, 64
1, 504743, Control_c, 0, 64, 66
1, 504758, Control_c, 0, 64, 70
1, 504773, Control_c, 0, 64, 74
1, 504788, Control_c, 0, 64, 77
1, 504803, Control_c, 0, 64, 81
1, 504818, Control_c, 0, 64, 86
1, 504832, Control_c, 0, 64, 91
1, 504847, Control_c, 0, 64, 97
1, 504862, Control_c, 0, 64, 103
1, 504884, Control_c, 0, 64, 111
1, 504899, Control_c, 0, 64, 127
1, 504943, Control_c, 0, 67, 8
1, 504959, Control_c, 0, 67, 20
1, 504974, Control_c, 0, 67, 40
1, 504988, Control_c, 0, 67, 64
1, 505003, Control_c, 0, 67, 81
1, 505006, Note_off_c, 0, 32, 33
1, 505018, Control_c, 0, 67, 94
1, 505032, Control_c, 0, 67, 104
1, 505047, Control_c, 0, 67, 112
1, 505062, Control_c, 0, 67, 119
1, 505077, Control_c, 0, 67, 123
1, 505092, Control_c, 0, 67, 127
1, 505781, Control_c, 0, 64, 123
1, 505793, Note_off_c, 0, 38, 36
1, 505796, Control_c, 0, 64, 117
1, 505811, Control_c, 0, 64, 111
1, 505826, Control_c, 0, 64, 106
1, 505841, Control_c, 0, 64, 101
1, 505855, Control_c, 0, 64, 96
1, 505862, Note_on_c, 0, 33, 36
1, 505870, Control_c, 0, 64, 89
1, 505885, Control_c, 0, 64, 81
1, 505900, Control_c, 0, 64, 69
1, 505915, Control_c, 0, 64, 36
1, 505930, Control_c, 0, 64, 0
1, 506004, Control_c, 0, 64, 59
1, 506019, Control_c, 0, 64, 69
1, 506034, Control_c, 0, 64, 78
1, 506049, Control_c, 0, 64, 90
1, 506063, Control_c, 0, 64, 103
1, 506078, Control_c, 0, 64, 127
1, 506088, Note_off_c, 0, 33, 40
1, 506660, Note_on_c, 0, 49, 25
1, 506666, Note_on_c, 0, 57, 21
1, 506675, Note_on_c, 0, 52, 24
1, 506683, Note_on_c, 0, 45, 29
1, 507170, Note_on_c, 0, 81, 42
1, 507222, Poly_aftertouch_c, 0, 69, 127
1, 507305, Note_off_c, 0, 81, 56
1, 507305, Poly_aftertouch_c, 0, 69, 0
1, 507341, Note_off_c, 0, 45, 37
1, 507357, Note_off_c, 0, 57, 39
1, 507393, Note_off_c, 0, 52, 31
1, 507399, Note_off_c, 0, 49, 36
1, 507429, Note_on_c, 0, 81, 40
1, 507432, Note_on_c, 0, 69, 39
1, 507465, Note_off_c, 0, 81, 0
1, 507465, Note_on_c, 0, 81, 17
1, 507692, Note_off_c, 0, 69, 38
1, 507776, Note_on_c, 0, 57, 19
1, 507783, Note_on_c, 0, 49, 22
1, 507791, Note_on_c, 0, 52, 26
1, 507818, Note_on_c, 0, 45, 29
1, 507873, Note_off_c, 0, 81, 36
1, 508052, Note_on_c, 0, 82, 63
1, 508073, Note_on_c, 0, 70, 47
1, 508133, Note_off_c, 0, 70, 52
1, 508154, Note_off_c, 0, 82, 57
1, 508228, Note_off_c, 0, 45, 37
1, 508230, Note_off_c, 0, 57, 39
1, 508261, Note_on_c, 0, 82, 64
1, 508267, Note_off_c, 0, 52, 38
1, 508270, Note_on_c, 0, 70, 45
1, 508275, Note_off_c, 0, 49, 38
1, 508443, Note_on_c, 0, 49, 37
1, 508445, Note_on_c, 0, 57, 44
1, 508460, Note_on_c, 0, 52, 38
1, 508466, Note_on_c, 0, 45, 38
1, 508499, Note_off_c, 0, 82, 34
1, 508510, Note_off_c, 0, 70, 59
1, 508609, Note_on_c, 0, 81, 63
1, 508630, Note_on_c, 0, 69, 49
1, 508678, Note_off_c, 0, 69, 56
1, 508683, Note_off_c, 0, 81, 60
1, 508747, Note_off_c, 0, 57, 35
1, 508771, Note_on_c, 0, 81, 65
1, 508773, Note_on_c, 0, 69, 59
1, 508782, Note_off_c, 0, 45, 42
1, 508791, Note_off_c, 0, 49, 40
1, 508805, Note_off_c, 0, 52, 27
1, 508911, Note_off_c, 0, 69, 38
1, 508928, Note_off_c, 0, 81, 38
1, 508931, Note_on_c, 0, 49, 37
1, 508937, Note_on_c, 0, 57, 45
1, 508940, Note_on_c, 0, 52, 45
1, 508945, Note_on_c, 0, 45, 28
1, 509074, Note_on_c, 0, 80, 67
1, 509081, Note_on_c, 0, 68, 59
1, 509134, Note_off_c, 0, 68, 58
1, 509140, Note_off_c, 0, 80, 60
1, 509164, Note_off_c, 0, 57, 53
1, 509221, Note_on_c, 0, 80, 69
1, 509227, Note_off_c, 0, 52, 53
1, 509240, Note_on_c, 0, 68, 62
1, 509241, Note_off_c, 0, 45, 44
1, 509241, Note_off_c, 0, 49, 44
1, 509364, Note_on_c, 0, 58, 55
1, 509365, Note_on_c, 0, 49, 39
1, 509376, Note_on_c, 0, 45, 30
1, 509379, Note_on_c, 0, 52, 46
1, 509485, Note_off_c, 0, 68, 54
1, 509504, Note_off_c, 0, 80, 39
1, 509531, Note_on_c, 0, 79, 67
1, 509545, Note_on_c, 0, 67, 52
1, 509588, Note_off_c, 0, 67, 57
1, 509609, Note_off_c, 0, 79, 58
1, 509652, Note_off_c, 0, 58, 37
1, 509661, Note_off_c, 0, 45, 42
1, 509672, Note_on_c, 0, 79, 65
1, 509689, Note_off_c, 0, 49, 42
1, 509690, Note_on_c, 0, 67, 53
1, 509691, Note_off_c, 0, 52, 38
1, 509805, Note_off_c, 0, 79, 39
1, 509810, Note_on_c, 0, 49, 43
1, 509817, Note_on_c, 0, 58, 45
1, 509818, Note_on_c, 0, 52, 41
1, 509821, Note_off_c, 0, 67, 38
1, 509824, Note_on_c, 0, 45, 37
1, 509970, Note_on_c, 0, 78, 64
1, 509974, Note_on_c, 0, 66, 55
1, 510024, Note_off_c, 0, 66, 55
1, 510033, Note_off_c, 0, 78, 61
1, 510084, Note_off_c, 0, 58, 34
1, 510124, Note_off_c, 0, 52, 27
1, 510124, Note_on_c, 0, 78, 58
1, 510127, Note_off_c, 0, 45, 39
1, 510139, Note_off_c, 0, 49, 40
1, 510148, Note_on_c, 0, 66, 45
1, 510269, Note_on_c, 0, 49, 43
1, 510274, Note_on_c, 0, 58, 49
1, 510279, Note_on_c, 0, 52, 43
1, 510282, Note_on_c, 0, 45, 38
1, 510313, Note_off_c, 0, 78, 56
1, 510335, Note_off_c, 0, 66, 35
1, 510416, Note_on_c, 0, 77, 61
1, 510426, Note_on_c, 0, 65, 48
1, 510475, Note_off_c, 0, 65, 57
1, 510481, Note_off_c, 0, 77, 60
1, 510498, Note_off_c, 0, 58, 37
1, 510524, Note_off_c, 0, 52, 31
1, 510544, Note_off_c, 0, 49, 29
1, 510550, Note_on_c, 0, 77, 53
1, 510570, Note_on_c, 0, 65, 40
1, 510574, Note_off_c, 0, 45, 42
1, 510663, Note_off_c, 0, 77, 39
1, 510694, Note_on_c, 0, 49, 41
1, 510701, Note_on_c, 0, 45, 34
1, 510703, Note_on_c, 0, 55, 48
1, 510709, Note_off_c, 0, 65, 35
1, 510723, Note_on_c, 0, 52, 33
1, 510777, Control_c, 0, 64, 123
1, 510791, Control_c, 0, 64, 118
1, 510803, Note_off_c, 0, 55, 54
1, 510806, Control_c, 0, 64, 115
1, 510821, Control_c, 0, 64, 113
1, 510836, Control_c, 0, 64, 112
1, 510840, Note_on_c, 0, 76, 58
1, 510849, Note_on_c, 0, 64, 44
1, 510851, Control_c, 0, 64, 110
1, 510873, Control_c, 0, 64, 109
1, 510874, Note_off_c, 0, 52, 35
1, 510881, Note_off_c, 0, 49, 42
1, 510888, Control_c, 0, 64, 107
1, 510896, Note_off_c, 0, 64, 51
1, 510899, Note_off_c, 0, 76, 53
1, 510903, Control_c, 0, 64, 106
1, 510918, Control_c, 0, 64, 105
1, 510932, Control_c, 0, 64, 104
1, 510947, Control_c, 0, 64, 103
1, 510963, Control_c, 0, 64, 102
1, 510970, Note_off_c, 0, 45, 43
1, 510977, Control_c, 0, 64, 100
1, 510984, Note_on_c, 0, 76, 49
1, 510992, Control_c, 0, 64, 99
1, 511007, Control_c, 0, 64, 97
1, 511013, Note_on_c, 0, 64, 32
1, 511022, Control_c, 0, 64, 94
1, 511037, Control_c, 0, 64, 88
1, 511053, Control_c, 0, 64, 82
1, 511068, Control_c, 0, 64, 74
1, 511082, Control_c, 0, 64, 67
1, 511097, Control_c, 0, 64, 60
1, 511106, Note_off_c, 0, 64, 37
1, 511112, Control_c, 0, 64, 60
1, 511127, Control_c, 0, 64, 64
1, 511128, Note_on_c, 0, 58, 42
1, 511138, Note_on_c, 0, 53, 42
1, 511142, Control_c, 0, 64, 67
1, 511143, Note_on_c, 0, 45, 13
1, 511146, Note_on_c, 0, 50, 32
1, 511156, Control_c, 0, 64, 71
1, 511171, Control_c, 0, 64, 75
1, 511186, Control_c, 0, 64, 78
1, 511200, Control_c, 0, 64, 82
1, 511215, Control_c, 0, 64, 85
1, 511230, Control_c, 0, 64, 89
1, 511245, Control_c, 0, 64, 92
1, 511260, Control_c, 0, 64, 95
1, 511274, Note_on_c, 0, 75, 50
1, 511274, Control_c, 0, 64, 97
1, 511277, Note_on_c, 0, 63, 43
1, 511282, Note_off_c, 0, 76, 30
1, 511289, Control_c, 0, 64, 100
1, 511304, Control_c, 0, 64, 102
1, 511317, Note_off_c, 0, 75, 60
1, 511319, Control_c, 0, 64, 104
1, 511323, Note_off_c, 0, 63, 50
1, 511334, Control_c, 0, 64, 105
1, 511340, Note_off_c, 0, 58, 36
1, 511352, Note_off_c, 0, 45, 41
1, 511370, Note_off_c, 0, 53, 39
1, 511372, Note_off_c, 0, 50, 39
1, 511379, Control_c, 0, 64, 105
1, 511429, Note_on_c, 0, 75, 44
1, 511430, Note_on_c, 0, 63, 37
1, 511544, Note_on_c, 0, 45, 37
1, 511546, Note_on_c, 0, 53, 36
1, 511550, Note_on_c, 0, 50, 27
1, 511554, Note_on_c, 0, 58, 33
1, 511571, Control_c, 0, 64, 105
1, 511589, Note_off_c, 0, 75, 37
1, 511601, Note_off_c, 0, 63, 42
1, 511689, Note_on_c, 0, 74, 56
1, 511700, Note_on_c, 0, 62, 37
1, 511712, Control_c, 0, 64, 104
1, 511731, Note_off_c, 0, 74, 58
1, 511742, Note_off_c, 0, 62, 48
1, 511763, Note_off_c, 0, 58, 36
1, 511795, Note_off_c, 0, 53, 36
1, 511799, Note_off_c, 0, 50, 39
1, 511812, Note_off_c, 0, 45, 32
1, 511829, Note_on_c, 0, 74, 53
1, 511836, Note_on_c, 0, 62, 38
1, 511924, Note_off_c, 0, 74, 39
1, 511944, Note_off_c, 0, 62, 36
1, 511968, Note_on_c, 0, 45, 37
1, 511978, Note_on_c, 0, 58, 39
1, 511981, Note_on_c, 0, 50, 33
1, 511987, Note_on_c, 0, 53, 35
1, 512038, Control_c, 0, 64, 104
1, 512097, Note_on_c, 0, 73, 55
1, 512104, Note_on_c, 0, 61, 45
1, 512142, Note_off_c, 0, 73, 55
1, 512145, Note_off_c, 0, 61, 49
1, 512157, Note_off_c, 0, 58, 40
1, 512190, Note_off_c, 0, 53, 35
1, 512201, Note_off_c, 0, 50, 42
1, 512220, Note_off_c, 0, 45, 34
1, 512234, Note_on_c, 0, 73, 46
1, 512240, Note_on_c, 0, 61, 40
1, 512384, Note_on_c, 0, 45, 20
1, 512401, Note_on_c, 0, 53, 38
1, 512401, Note_on_c, 0, 58, 29
1, 512402, Note_on_c, 0, 50, 32
1, 512407, Note_off_c, 0, 61, 37
1, 512416, Note_off_c, 0, 73, 32
1, 512459, Note_off_c, 0, 58, 44
1, 512467, Note_off_c, 0, 53, 51
1, 512485, Note_off_c, 0, 50, 50
1, 512513, Note_on_c, 0, 74, 55
1, 512517, Note_off_c, 0, 45, 40
1, 512538, Note_on_c, 0, 62, 20
1, 512556, Note_off_c, 0, 74, 59
1, 512590, Note_off_c, 0, 62, 44
1, 512648, Note_on_c, 0, 74, 50
1, 512651, Note_on_c, 0, 62, 30
1, 512684, Control_c, 0, 64, 103
1, 512733, Note_off_c, 0, 62, 38
1, 512741, Note_off_c, 0, 74, 51
1, 512768, Note_on_c, 0, 59, 46
1, 512771, Note_on_c, 0, 56, 42
1, 512795, Note_on_c, 0, 53, 31
1, 512901, Note_on_c, 0, 75, 50
1, 512910, Note_on_c, 0, 63, 43
1, 512920, Control_c, 0, 64, 103
1, 512943, Note_off_c, 0, 75, 55
1, 512948, Note_off_c, 0, 63, 49
1, 512960, Note_off_c, 0, 53, 22
1, 512991, Note_off_c, 0, 59, 36
1, 513002, Note_off_c, 0, 56, 23
1, 513037, Note_on_c, 0, 75, 46
1, 513048, Note_on_c, 0, 63, 39
1, 513150, Control_c, 0, 64, 102
1, 513194, Control_c, 0, 64, 102
1, 513197, Note_on_c, 0, 56, 35
1, 513198, Note_on_c, 0, 59, 36
1, 513212, Note_on_c, 0, 53, 32
1, 513227, Note_off_c, 0, 63, 36
1, 513245, Note_off_c, 0, 75, 33
1, 513278, Note_off_c, 0, 53, 45
1, 513298, Control_c, 0, 64, 101
1, 513300, Note_off_c, 0, 56, 37
1, 513355, Note_on_c, 0, 76, 49
1, 513370, Note_on_c, 0, 64, 31
1, 513387, Control_c, 0, 64, 101
1, 513408, Note_off_c, 0, 64, 51
1, 513418, Note_off_c, 0, 76, 47
1, 513419, Note_off_c, 0, 59, 22
1, 513477, Control_c, 0, 64, 100
1, 513527, Note_on_c, 0, 64, 38
1, 513537, Control_c, 0, 64, 100
1, 513540, Note_on_c, 0, 76, 48
1, 513581, Control_c, 0, 64, 99
1, 513640, Control_c, 0, 64, 99
1, 513699, Control_c, 0, 64, 98
1, 513716, Note_on_c, 0, 50, 40
1, 513725, Note_off_c, 0, 64, 41
1, 513727, Note_on_c, 0, 53, 34
1, 513731, Note_on_c, 0, 45, 28
1, 513738, Note_off_c, 0, 76, 48
1, 513746, Poly_aftertouch_c, 0, 59, 127
1, 513773, Control_c, 0, 64, 98
1, 513817, Control_c, 0, 64, 97
1, 513916, Note_on_c, 0, 77, 48
1, 513932, Note_on_c, 0, 65, 34
1, 513958, Poly_aftertouch_c, 0, 59, 0
1, 513984, Note_off_c, 0, 50, 35
1, 513990, Note_off_c, 0, 65, 45
1, 514004, Note_off_c, 0, 77, 50
1, 514020, Note_off_c, 0, 53, 35
1, 514051, Note_off_c, 0, 45, 29
1, 514151, Note_on_c, 0, 77, 44
1, 514173, Note_on_c, 0, 65, 30
1, 514265, Note_off_c, 0, 77, 39
1, 514314, Note_off_c, 0, 65, 42
1, 514419, Control_c, 0, 67, 126
1, 514434, Control_c, 0, 67, 126
1, 514479, Control_c, 0, 67, 125
1, 514493, Control_c, 0, 67, 125
1, 514508, Control_c, 0, 67, 124
1, 514523, Control_c, 0, 67, 123
1, 514537, Control_c, 0, 67, 122
1, 514552, Control_c, 0, 67, 121
1, 514561, Note_on_c, 0, 45, 14
1, 514564, Note_on_c, 0, 59, 4
1, 514566, Note_on_c, 0, 50, 31
1, 514567, Control_c, 0, 67, 120
1, 514580, Note_on_c, 0, 53, 29
1, 514582, Control_c, 0, 67, 119
1, 514597, Control_c, 0, 67, 118
1, 514619, Control_c, 0, 67, 116
1, 514634, Control_c, 0, 67, 112
1, 514649, Control_c, 0, 67, 108
1, 514664, Control_c, 0, 67, 102
1, 514679, Control_c, 0, 67, 96
1, 514693, Control_c, 0, 67, 90
1, 514707, Control_c, 0, 67, 84
1, 514722, Control_c, 0, 67, 77
1, 514737, Control_c, 0, 67, 69
1, 514751, Control_c, 0, 67, 61
1, 514766, Control_c, 0, 67, 52
1, 514781, Control_c, 0, 67, 46
1, 514796, Control_c, 0, 67, 40
1, 514811, Control_c, 0, 67, 35
1, 514825, Control_c, 0, 67, 31
1, 514840, Control_c, 0, 67, 26
1, 514855, Control_c, 0, 67, 22
1, 514870, Control_c, 0, 67, 16
1, 514885, Control_c, 0, 67, 11
1, 514899, Control_c, 0, 67, 0
1, 514901, Note_off_c, 0, 50, 40
1, 514906, Note_off_c, 0, 59, 39
1, 514917, Note_off_c, 0, 53, 37
1, 515046, Note_on_c, 0, 68, 44
1, 515053, Note_on_c, 0, 56, 25
1, 515201, Note_off_c, 0, 68, 38
1, 515205, Note_off_c, 0, 56, 45
1, 515252, Note_off_c, 0, 45, 30
1, 515326, Note_on_c, 0, 68, 47
1, 515330, Control_c, 0, 64, 97
1, 515343, Note_on_c, 0, 56, 29
1, 515412, Control_c, 0, 64, 96
1, 515427, Control_c, 0, 64, 96
1, 515441, Control_c, 0, 64, 95
1, 515456, Control_c, 0, 64, 95
1, 515471, Control_c, 0, 64, 94
1, 515486, Control_c, 0, 64, 93
1, 515501, Control_c, 0, 64, 92
1, 515515, Control_c, 0, 64, 91
1, 515530, Control_c, 0, 64, 90
1, 515545, Control_c, 0, 64, 89
1, 515560, Control_c, 0, 64, 88
1, 515574, Control_c, 0, 64, 87
1, 515589, Control_c, 0, 64, 86
1, 515604, Control_c, 0, 64, 85
1, 515619, Control_c, 0, 64, 83
1, 515634, Control_c, 0, 64, 82
1, 515648, Control_c, 0, 64, 79
1, 515649, Note_on_c, 0, 45, 38
1, 515651, Note_on_c, 0, 52, 39
1, 515656, Note_on_c, 0, 49, 36
1, 515663, Control_c, 0, 64, 74
1, 515678, Control_c, 0, 64, 66
1, 515692, Control_c, 0, 64, 46
1, 515707, Control_c, 0, 64, 0
1, 515752, Control_c, 0, 64, 44
1, 515767, Control_c, 0, 64, 63
1, 515782, Control_c, 0, 64, 69
1, 515796, Control_c, 0, 64, 79
1, 515811, Control_c, 0, 64, 90
1, 515826, Control_c, 0, 64, 102
1, 515834, Note_off_c, 0, 56, 43
1, 515842, Control_c, 0, 64, 126
1, 515857, Control_c, 0, 64, 127
1, 515948, Note_on_c, 0, 69, 50
1, 515958, Note_on_c, 0, 57, 31
1, 516029, Note_off_c, 0, 57, 54
1, 516036, Note_off_c, 0, 68, 37
1, 516044, Note_off_c, 0, 69, 57
1, 516157, Note_on_c, 0, 69, 59
1, 516167, Note_on_c, 0, 57, 39
1, 516190, Note_off_c, 0, 45, 41
1, 516197, Note_off_c, 0, 57, 55
1, 516215, Note_off_c, 0, 49, 44
1, 516215, Note_off_c, 0, 52, 40
1, 516256, Note_off_c, 0, 69, 60
1, 516310, Note_on_c, 0, 57, 45
1, 516323, Note_on_c, 0, 49, 50
1, 516329, Note_on_c, 0, 52, 50
1, 516330, Note_on_c, 0, 45, 45
1, 516480, Note_on_c, 0, 81, 73
1, 516498, Note_on_c, 0, 69, 48
1, 516521, Note_off_c, 0, 69, 60
1, 516531, Note_off_c, 0, 81, 56
1, 516631, Note_on_c, 0, 81, 80
1, 516634, Note_on_c, 0, 69, 48
1, 516634, Note_off_c, 0, 57, 35
1, 516660, Note_off_c, 0, 69, 56
1, 516664, Note_off_c, 0, 45, 42
1, 516675, Note_off_c, 0, 52, 25
1, 516685, Note_off_c, 0, 49, 39
1, 516709, Note_off_c, 0, 81, 60
1, 516792, Note_on_c, 0, 49, 54
1, 516792, Note_on_c, 0, 52, 54
1, 516792, Note_on_c, 0, 57, 58
1, 516799, Note_on_c, 0, 45, 52
1, 516965, Note_on_c, 0, 94, 88
1, 516971, Note_on_c, 0, 82, 73
1, 517026, Note_off_c, 0, 82, 58
1, 517057, Note_off_c, 0, 94, 63
1, 517135, Note_on_c, 0, 94, 89
1, 517144, Note_on_c, 0, 82, 80
1, 517177, Note_off_c, 0, 57, 37
1, 517217, Note_off_c, 0, 45, 41
1, 517217, Note_off_c, 0, 52, 31
1, 517224, Note_off_c, 0, 49, 39
1, 517346, Note_on_c, 0, 57, 61
1, 517352, Note_on_c, 0, 49, 45
1, 517355, Note_on_c, 0, 52, 46
1, 517367, Note_on_c, 0, 45, 42
1, 517488, Note_off_c, 0, 94, 56
1, 517490, Note_off_c, 0, 82, 54
1, 517492, Poly_aftertouch_c, 0, 92, 127
1, 517541, Poly_aftertouch_c, 0, 92, 0
1, 517615, Note_on_c, 0, 93, 88
1, 517639, Note_on_c, 0, 81, 64
1, 517752, Note_off_c, 0, 81, 49
1, 517791, Note_off_c, 0, 57, 29
1, 517800, Note_off_c, 0, 93, 60
1, 517885, Note_on_c, 0, 93, 80
1, 517898, Note_on_c, 0, 81, 54
1, 518045, Note_off_c, 0, 45, 41
1, 518062, Note_off_c, 0, 49, 38
1, 518115, Note_off_c, 0, 52, 0
1, 518119, Note_on_c, 0, 58, 67
1, 518136, Note_on_c, 0, 52, 18
1, 518146, Note_on_c, 0, 45, 49
1, 518148, Control_c, 0, 64, 113
1, 518151, Note_on_c, 0, 49, 38
1, 518162, Control_c, 0, 64, 100
1, 518177, Control_c, 0, 64, 87
1, 518192, Control_c, 0, 64, 76
1, 518207, Control_c, 0, 64, 65
1, 518222, Control_c, 0, 64, 43
1, 518238, Control_c, 0, 64, 0
1, 518253, Control_c, 0, 64, 38
1, 518267, Control_c, 0, 64, 63
1, 518282, Control_c, 0, 64, 69
1, 518297, Control_c, 0, 64, 76
1, 518312, Control_c, 0, 64, 89
1, 518324, Note_off_c, 0, 81, 53
1, 518327, Control_c, 0, 64, 105
1, 518341, Control_c, 0, 64, 127
1, 518487, Note_on_c, 0, 92, 66
1, 518494, Note_on_c, 0, 80, 53
1, 518572, Note_off_c, 0, 93, 37
1, 518628, Note_off_c, 0, 80, 50
1, 518661, Note_off_c, 0, 92, 62
1, 518676, Note_off_c, 0, 45, 32
1, 518725, Note_off_c, 0, 58, 30
1, 518752, Note_off_c, 0, 52, 30
1, 518756, Note_on_c, 0, 92, 60
1, 518768, Note_off_c, 0, 49, 36
1, 518777, Note_on_c, 0, 80, 40
1, 518980, Note_on_c, 0, 58, 41
1, 519003, Note_on_c, 0, 49, 34
1, 519022, Note_on_c, 0, 45, 28
1, 519023, Note_on_c, 0, 52, 31
1, 519075, Note_off_c, 0, 80, 54
1, 519135, Note_off_c, 0, 92, 35
1, 519192, Note_on_c, 0, 91, 56
1, 519206, Note_on_c, 0, 79, 43
1, 519260, Note_off_c, 0, 79, 47
1, 519272, Note_off_c, 0, 91, 57
1, 519341, Note_off_c, 0, 58, 40
1, 519363, Note_off_c, 0, 45, 35
1, 519374, Note_on_c, 0, 91, 53
1, 519376, Note_off_c, 0, 49, 36
1, 519381, Note_on_c, 0, 79, 47
1, 519392, Note_off_c, 0, 52, 34
1, 519509, Note_off_c, 0, 91, 37
1, 519518, Note_off_c, 0, 79, 34
1, 519546, Note_on_c, 0, 58, 43
1, 519552, Note_on_c, 0, 49, 25
1, 519565, Note_on_c, 0, 52, 26
1, 519600, Note_on_c, 0, 45, 21
1, 519719, Note_on_c, 0, 90, 52
1, 519737, Note_on_c, 0, 78, 35
1, 519777, Note_off_c, 0, 78, 50
1, 519783, Note_off_c, 0, 90, 54
1, 519796, Note_off_c, 0, 58, 35
1, 519864, Note_off_c, 0, 52, 35
1, 519888, Note_off_c, 0, 49, 37
1, 519904, Note_on_c, 0, 78, 29
1, 519910, Note_on_c, 0, 90, 46
1, 519931, Note_off_c, 0, 45, 42
1, 520060, Note_on_c, 0, 49, 29
1, 520081, Note_on_c, 0, 55, 36
1, 520092, Note_on_c, 0, 45, 23
1, 520126, Note_on_c, 0, 52, 14
1, 520207, Note_off_c, 0, 90, 36
1, 520213, Note_off_c, 0, 78, 45
1, 520256, Note_off_c, 0, 55, 41
1, 520289, Note_on_c, 0, 89, 51
1, 520298, Note_off_c, 0, 49, 38
1, 520304, Note_on_c, 0, 77, 41
1, 520334, Note_off_c, 0, 52, 38
1, 520358, Note_off_c, 0, 77, 57
1, 520376, Note_off_c, 0, 89, 55
1, 520465, Note_off_c, 0, 45, 43
1, 520473, Note_on_c, 0, 89, 49
1, 520492, Note_on_c, 0, 77, 37
1, 520640, Note_on_c, 0, 58, 38
1, 520648, Note_off_c, 0, 89, 35
1, 520652, Note_on_c, 0, 50, 36
1, 520653, Note_on_c, 0, 45, 22
1, 520673, Note_on_c, 0, 53, 13
1, 520688, Note_off_c, 0, 77, 44
1, 520815, Note_on_c, 0, 88, 47
1, 520852, Note_on_c, 0, 76, 16
1, 520855, Note_off_c, 0, 88, 55
1, 520899, Note_off_c, 0, 76, 40
1, 520904, Note_off_c, 0, 58, 36
1, 520930, Note_off_c, 0, 45, 39
1, 520936, Note_off_c, 0, 50, 40
1, 520938, Note_off_c, 0, 53, 40
1, 520962, Note_on_c, 0, 88, 53
1, 520978, Note_on_c, 0, 76, 44
1, 521049, Note_off_c, 0, 76, 51
1, 521085, Note_off_c, 0, 88, 51
1, 521123, Note_on_c, 0, 53, 34
1, 521124, Note_on_c, 0, 58, 32
1, 521128, Note_on_c, 0, 50, 30
1, 521134, Note_on_c, 0, 45, 18
1, 521201, Control_c, 0, 67, 9
1, 521216, Control_c, 0, 67, 22
1, 521231, Control_c, 0, 67, 40
1, 521246, Control_c, 0, 67, 58
1, 521260, Control_c, 0, 67, 78
1, 521260, Note_on_c, 0, 87, 59
1, 521269, Note_on_c, 0, 75, 46
1, 521275, Control_c, 0, 67, 94
1, 521290, Control_c, 0, 67, 108
1, 521304, Control_c, 0, 67, 120
1, 521319, Control_c, 0, 67, 127
1, 521326, Note_off_c, 0, 87, 60
1, 521329, Note_off_c, 0, 75, 44
1, 521368, Note_off_c, 0, 58, 39
1, 521380, Note_off_c, 0, 45, 39
1, 521383, Note_off_c, 0, 50, 36
1, 521392, Note_off_c, 0, 53, 38
1, 521414, Note_on_c, 0, 87, 51
1, 521422, Note_on_c, 0, 75, 42
1, 521530, Note_off_c, 0, 87, 58
1, 521542, Note_off_c, 0, 75, 37
1, 521579, Note_on_c, 0, 53, 34
1, 521582, Note_on_c, 0, 58, 31
1, 521587, Note_on_c, 0, 45, 25
1, 521588, Note_on_c, 0, 50, 29
1, 521714, Note_on_c, 0, 85, 57
1, 521734, Note_on_c, 0, 73, 34
1, 521761, Note_off_c, 0, 85, 52
1, 521773, Note_off_c, 0, 73, 50
1, 521821, Note_off_c, 0, 58, 39
1, 521832, Note_off_c, 0, 50, 38
1, 521837, Note_off_c, 0, 53, 39
1, 521854, Note_off_c, 0, 45, 38
1, 521862, Note_on_c, 0, 85, 46
1, 521882, Note_on_c, 0, 73, 46
1, 522029, Note_on_c, 0, 50, 31
1, 522030, Note_on_c, 0, 45, 20
1, 522042, Note_on_c, 0, 58, 26
1, 522046, Note_on_c, 0, 53, 36
1, 522053, Note_off_c, 0, 73, 54
1, 522150, Note_off_c, 0, 50, 38
1, 522167, Note_off_c, 0, 53, 38
1, 522170, Note_off_c, 0, 85, 37
1, 522172, Note_off_c, 0, 45, 43
1, 522190, Note_on_c, 0, 86, 49
1, 522190, Note_off_c, 0, 58, 36
1, 522212, Note_on_c, 0, 74, 32
1, 522241, Note_off_c, 0, 86, 56
1, 522250, Note_off_c, 0, 74, 52
1, 522348, Note_on_c, 0, 86, 44
1, 522351, Note_on_c, 0, 74, 47
1, 522410, Note_off_c, 0, 74, 54
1, 522465, Note_off_c, 0, 86, 49
1, 522481, Note_on_c, 0, 56, 34
1, 522481, Note_on_c, 0, 59, 34
1, 522505, Note_on_c, 0, 53, 22
1, 522627, Note_on_c, 0, 87, 54
1, 522644, Note_off_c, 0, 53, 25
1, 522654, Note_on_c, 0, 75, 22
1, 522669, Note_off_c, 0, 87, 62
1, 522696, Note_off_c, 0, 75, 49
1, 522727, Note_off_c, 0, 56, 37
1, 522745, Note_off_c, 0, 59, 34
1, 522776, Note_on_c, 0, 87, 49
1, 522788, Note_on_c, 0, 75, 36
1, 522972, Note_on_c, 0, 56, 26
1, 522973, Note_on_c, 0, 59, 26
1, 522974, Note_on_c, 0, 53, 28
1, 523031, Note_off_c, 0, 75, 42
1, 523038, Note_off_c, 0, 53, 50
1, 523046, Note_off_c, 0, 87, 31
1, 523053, Note_off_c, 0, 56, 40
1, 523126, Note_on_c, 0, 88, 48
1, 523138, Note_on_c, 0, 76, 40
1, 523187, Note_off_c, 0, 88, 53
1, 523189, Note_off_c, 0, 76, 45
1, 523226, Note_off_c, 0, 59, 32
1, 523290, Note_on_c, 0, 88, 38
1, 523320, Note_on_c, 0, 76, 39
1, 523493, Note_on_c, 0, 50, 35
1, 523495, Note_on_c, 0, 59, 30
1, 523505, Note_on_c, 0, 45, 23
1, 523510, Note_on_c, 0, 53, 34
1, 523517, Note_off_c, 0, 76, 38
1, 523532, Note_off_c, 0, 88, 43
1, 523715, Note_off_c, 0, 50, 42
1, 523731, Note_on_c, 0, 89, 47
1, 523746, Note_on_c, 0, 77, 39
1, 523754, Note_off_c, 0, 59, 32
1, 523786, Note_off_c, 0, 53, 37
1, 523848, Note_off_c, 0, 89, 52
1, 523849, Note_off_c, 0, 77, 38
1, 523986, Note_off_c, 0, 45, 36
1, 523996, Note_on_c, 0, 89, 45
1, 523999, Note_on_c, 0, 77, 36
1, 524120, Note_off_c, 0, 89, 37
1, 524194, Note_off_c, 0, 77, 40
1, 524443, Note_on_c, 0, 57, 28
1, 524456, Note_on_c, 0, 45, 31
1, 524456, Note_on_c, 0, 49, 34
1, 524482, Note_on_c, 0, 52, 27
1, 524818, Note_off_c, 0, 49, 37
1, 524819, Note_off_c, 0, 45, 35
1, 524819, Note_off_c, 0, 57, 37
1, 524823, Note_on_c, 0, 80, 57
1, 524823, Note_off_c, 0, 52, 34
1, 524829, Note_on_c, 0, 68, 47
1, 524867, Note_off_c, 0, 80, 50
1, 524885, Note_off_c, 0, 68, 47
1, 525032, Note_on_c, 0, 80, 49
1, 525044, Note_on_c, 0, 68, 45
1, 525216, Note_on_c, 0, 57, 38
1, 525227, Note_on_c, 0, 45, 28
1, 525261, Note_on_c, 0, 49, 29
1, 525270, Note_on_c, 0, 52, 21
1, 525283, Note_off_c, 0, 45, 47
1, 525310, Note_off_c, 0, 68, 55
1, 525319, Note_off_c, 0, 52, 47
1, 525329, Note_off_c, 0, 49, 56
1, 525407, Note_off_c, 0, 57, 55
1, 525429, Note_on_c, 0, 81, 58
1, 525440, Note_on_c, 0, 69, 44
1, 525475, Note_off_c, 0, 80, 37
1, 525482, Note_off_c, 0, 69, 60
1, 525497, Note_off_c, 0, 81, 57
1, 525586, Note_on_c, 0, 81, 58
1, 525588, Note_on_c, 0, 69, 52
1, 525664, Control_c, 0, 64, 118
1, 525679, Control_c, 0, 64, 103
1, 525693, Control_c, 0, 64, 88
1, 525694, Note_off_c, 0, 81, 50
1, 525708, Control_c, 0, 64, 77
1, 525723, Control_c, 0, 64, 67
1, 525726, Note_on_c, 0, 61, 51
1, 525736, Note_on_c, 0, 57, 43
1, 525738, Control_c, 0, 64, 62
1, 525745, Note_off_c, 0, 69, 57
1, 525753, Control_c, 0, 64, 63
1, 525768, Control_c, 0, 64, 66
1, 525782, Control_c, 0, 64, 70
1, 525797, Control_c, 0, 64, 74
1, 525812, Control_c, 0, 64, 79
1, 525827, Control_c, 0, 64, 86
1, 525849, Control_c, 0, 64, 92
1, 525864, Control_c, 0, 64, 97
1, 525879, Control_c, 0, 64, 103
1, 525894, Control_c, 0, 64, 106
1, 525897, Note_on_c, 0, 64, 53
1, 525900, Note_on_c, 0, 76, 59
1, 525908, Control_c, 0, 64, 108
1, 525923, Control_c, 0, 64, 109
1, 525930, Note_off_c, 0, 64, 50
1, 525938, Control_c, 0, 64, 110
1, 525940, Note_off_c, 0, 76, 58
1, 526006, Note_off_c, 0, 61, 30
1, 526015, Note_off_c, 0, 57, 32
1, 526032, Note_on_c, 0, 64, 56
1, 526039, Note_on_c, 0, 76, 68
1, 526116, Control_c, 0, 64, 110
1, 526125, Note_off_c, 0, 64, 39
1, 526146, Control_c, 0, 64, 109
1, 526157, Note_off_c, 0, 76, 50
1, 526158, Note_on_c, 0, 62, 49
1, 526159, Note_on_c, 0, 57, 43
1, 526161, Control_c, 0, 64, 108
1, 526173, Note_on_c, 0, 59, 40
1, 526175, Control_c, 0, 64, 108
1, 526204, Note_off_c, 0, 62, 57
1, 526205, Control_c, 0, 64, 107
1, 526223, Note_off_c, 0, 59, 59
1, 526247, Note_off_c, 0, 57, 61
1, 526265, Control_c, 0, 64, 107
1, 526304, Note_on_c, 0, 77, 67
1, 526314, Note_on_c, 0, 65, 50
1, 526324, Control_c, 0, 64, 106
1, 526349, Note_off_c, 0, 65, 52
1, 526354, Note_off_c, 0, 77, 57
1, 526384, Control_c, 0, 64, 106
1, 526413, Control_c, 0, 64, 105
1, 526443, Control_c, 0, 64, 105
1, 526446, Note_on_c, 0, 65, 59
1, 526452, Note_on_c, 0, 77, 66
1, 526458, Control_c, 0, 64, 104
1, 526480, Note_off_c, 0, 77, 69
1, 526498, Note_off_c, 0, 65, 56
1, 526546, Control_c, 0, 64, 104
1, 526561, Control_c, 0, 64, 102
1, 526576, Control_c, 0, 64, 97
1, 526584, Note_on_c, 0, 50, 48
1, 526586, Note_on_c, 0, 53, 50
1, 526587, Note_on_c, 0, 45, 47
1, 526598, Control_c, 0, 64, 90
1, 526613, Control_c, 0, 64, 82
1, 526628, Control_c, 0, 64, 74
1, 526643, Control_c, 0, 64, 66
1, 526658, Control_c, 0, 64, 63
1, 526672, Control_c, 0, 64, 62
1, 526687, Control_c, 0, 64, 64
1, 526702, Control_c, 0, 64, 65
1, 526717, Control_c, 0, 64, 67
1, 526731, Control_c, 0, 64, 69
1, 526743, Note_on_c, 0, 56, 61
1, 526744, Note_on_c, 0, 68, 59
1, 526746, Control_c, 0, 64, 70
1, 526761, Control_c, 0, 64, 72
1, 526776, Control_c, 0, 64, 73
1, 526791, Control_c, 0, 64, 76
1, 526795, Note_off_c, 0, 56, 57
1, 526800, Note_off_c, 0, 68, 55
1, 526805, Control_c, 0, 64, 78
1, 526817, Note_off_c, 0, 53, 51
1, 526820, Control_c, 0, 64, 79
1, 526835, Control_c, 0, 64, 80
1, 526856, Note_off_c, 0, 50, 35
1, 526891, Note_off_c, 0, 45, 36
1, 526903, Note_on_c, 0, 68, 54
1, 526907, Note_on_c, 0, 56, 47
1, 527013, Control_c, 0, 64, 79
1, 527043, Control_c, 0, 64, 78
1, 527045, Note_on_c, 0, 52, 48
1, 527058, Note_on_c, 0, 49, 45
1, 527058, Control_c, 0, 64, 77
1, 527060, Note_on_c, 0, 45, 36
1, 527073, Control_c, 0, 64, 73
1, 527088, Control_c, 0, 64, 67
1, 527103, Control_c, 0, 64, 58
1, 527106, Note_off_c, 0, 56, 41
1, 527118, Control_c, 0, 64, 0
1, 527184, Note_off_c, 0, 68, 54
1, 527207, Control_c, 0, 64, 33
1, 527221, Control_c, 0, 64, 47
1, 527222, Note_on_c, 0, 69, 55
1, 527233, Note_on_c, 0, 57, 43
1, 527236, Control_c, 0, 64, 55
1, 527251, Control_c, 0, 64, 60
1, 527265, Control_c, 0, 64, 63
1, 527278, Note_off_c, 0, 57, 59
1, 527280, Control_c, 0, 64, 64
1, 527295, Control_c, 0, 64, 66
1, 527300, Note_off_c, 0, 69, 57
1, 527310, Control_c, 0, 64, 69
1, 527325, Control_c, 0, 64, 71
1, 527347, Control_c, 0, 64, 73
1, 527358, Note_off_c, 0, 52, 33
1, 527362, Control_c, 0, 64, 74
1, 527377, Control_c, 0, 64, 75
1, 527388, Note_off_c, 0, 49, 36
1, 527392, Control_c, 0, 64, 76
1, 527407, Control_c, 0, 64, 76
1, 527421, Control_c, 0, 64, 77
1, 527431, Note_on_c, 0, 57, 21
1, 527432, Note_on_c, 0, 69, 41
1, 527437, Control_c, 0, 64, 78
1, 527467, Control_c, 0, 64, 78
1, 527470, Note_off_c, 0, 45, 41
1, 527487, Note_off_c, 0, 69, 53
1, 527541, Control_c, 0, 64, 78
1, 527565, Note_off_c, 0, 57, 44
1, 527629, Control_c, 0, 64, 77
1, 527644, Note_on_c, 0, 50, 31
1, 527645, Note_on_c, 0, 47, 36
1, 527646, Note_on_c, 0, 45, 21
1, 527659, Control_c, 0, 64, 77
1, 527762, Control_c, 0, 64, 76
1, 527855, Note_off_c, 0, 50, 33
1, 527878, Note_on_c, 0, 52, 39
1, 527878, Note_off_c, 0, 47, 40
1, 527884, Note_on_c, 0, 64, 31
1, 527911, Note_off_c, 0, 45, 34
1, 527945, Note_off_c, 0, 52, 49
1, 527971, Note_off_c, 0, 64, 39
1, 528045, Control_c, 0, 64, 76
1, 528119, Note_on_c, 0, 64, 41
1, 528122, Note_on_c, 0, 52, 40
1, 528274, Control_c, 0, 64, 75
1, 528304, Control_c, 0, 64, 75
1, 528319, Control_c, 0, 64, 74
1, 528334, Control_c, 0, 64, 73
1, 528349, Control_c, 0, 64, 71
1, 528364, Control_c, 0, 64, 66
1, 528378, Control_c, 0, 64, 59
1, 528393, Control_c, 0, 64, 29
1, 528408, Control_c, 0, 64, 0
1, 528419, Note_on_c, 0, 45, 16
1, 528420, Note_on_c, 0, 50, 23
1, 528427, Note_on_c, 0, 47, 28
1, 528437, Control_c, 0, 64, 23
1, 528452, Control_c, 0, 64, 48
1, 528467, Control_c, 0, 64, 57
1, 528482, Control_c, 0, 64, 62
1, 528496, Control_c, 0, 64, 64
1, 528511, Control_c, 0, 64, 66
1, 528516, Note_off_c, 0, 52, 42
1, 528519, Note_off_c, 0, 64, 56
1, 528526, Control_c, 0, 64, 69
1, 528541, Control_c, 0, 64, 72
1, 528556, Control_c, 0, 64, 74
1, 528570, Control_c, 0, 64, 75
1, 528585, Control_c, 0, 64, 76
1, 528600, Control_c, 0, 64, 77
1, 528616, Control_c, 0, 64, 77
1, 528764, Control_c, 0, 64, 77
1, 528772, Note_on_c, 0, 65, 37
1, 528784, Note_off_c, 0, 50, 37
1, 528792, Note_on_c, 0, 53, 21
1, 528812, Note_off_c, 0, 45, 37
1, 528814, Note_off_c, 0, 47, 36
1, 528846, Control_c, 0, 64, 76
1, 528873, Note_off_c, 0, 65, 50
1, 528874, Note_off_c, 0, 53, 42
1, 528919, Control_c, 0, 64, 76
1, 528948, Control_c, 0, 64, 75
1, 529023, Control_c, 0, 64, 75
1, 529069, Note_on_c, 0, 65, 21
1, 529082, Control_c, 0, 64, 74
1, 529091, Note_on_c, 0, 53, 19
1, 529112, Control_c, 0, 64, 73
1, 529126, Control_c, 0, 64, 72
1, 529141, Control_c, 0, 64, 71
1, 529156, Control_c, 0, 64, 69
1, 529171, Control_c, 0, 64, 67
1, 529186, Control_c, 0, 64, 65
1, 529200, Control_c, 0, 64, 64
1, 529215, Control_c, 0, 64, 61
1, 529230, Control_c, 0, 64, 56
1, 529244, Control_c, 0, 64, 49
1, 529259, Control_c, 0, 64, 38
1, 529274, Control_c, 0, 64, 23
1, 529289, Control_c, 0, 64, 0
1, 529653, Note_off_c, 0, 53, 38
1, 529747, Note_off_c, 0, 65, 35
1, 530082, Control_c, 0, 64, 11
1, 530097, Control_c, 0, 64, 28
1, 530112, Control_c, 0, 64, 36
1, 530127, Control_c, 0, 64, 43
1, 530141, Control_c, 0, 64, 49
1, 530156, Control_c, 0, 64, 54
1, 530171, Control_c, 0, 64, 57
1, 530186, Control_c, 0, 64, 60
1, 530200, Control_c, 0, 64, 62
1, 530217, Control_c, 0, 64, 64
1, 530232, Control_c, 0, 64, 66
1, 530246, Control_c, 0, 64, 67
1, 530261, Control_c, 0, 64, 69
1, 530276, Control_c, 0, 64, 70
1, 530290, Control_c, 0, 64, 71
1, 530305, Control_c, 0, 64, 71
1, 530320, Control_c, 0, 64, 72
1, 530343, Control_c, 0, 64, 74
1, 530358, Control_c, 0, 64, 75
1, 530372, Control_c, 0, 64, 77
1, 530387, Control_c, 0, 64, 78
1, 530402, Control_c, 0, 64, 79
1, 530417, Control_c, 0, 64, 80
1, 530433, Control_c, 0, 64, 81
1, 530447, Control_c, 0, 64, 81
1, 530462, Control_c, 0, 64, 82
1, 530477, Control_c, 0, 64, 83
1, 530491, Control_c, 0, 64, 84
1, 530506, Control_c, 0, 64, 84
1, 530521, Control_c, 0, 64, 85
1, 530758, Control_c, 0, 64, 84
1, 530809, Note_on_c, 0, 56, 27
1, 530812, Note_on_c, 0, 44, 26
1, 530832, Control_c, 0, 64, 84
1, 530871, Note_off_c, 0, 44, 45
1, 530878, Note_off_c, 0, 56, 43
1, 530951, Control_c, 0, 64, 83
1, 531050, Note_on_c, 0, 44, 27
1, 531066, Note_on_c, 0, 56, 23
1, 531166, Control_c, 0, 64, 83
1, 531314, Control_c, 0, 64, 82
1, 531372, Note_off_c, 0, 56, 12
1, 531374, Control_c, 0, 64, 82
1, 531433, Control_c, 0, 64, 81
1, 531492, Control_c, 0, 64, 81
1, 531566, Control_c, 0, 64, 80
1, 531625, Control_c, 0, 64, 80
1, 531685, Control_c, 0, 64, 79
1, 531729, Control_c, 0, 64, 79
1, 531759, Control_c, 0, 64, 78
1, 531774, Control_c, 0, 64, 78
1, 531788, Control_c, 0, 64, 77
1, 531803, Control_c, 0, 64, 77
1, 531819, Control_c, 0, 64, 76
1, 531841, Control_c, 0, 64, 75
1, 531856, Control_c, 0, 64, 73
1, 531870, Control_c, 0, 64, 72
1, 531881, Note_off_c, 0, 44, 6
1, 531885, Control_c, 0, 64, 70
1, 531900, Control_c, 0, 64, 68
1, 531915, Control_c, 0, 64, 66
1, 531929, Control_c, 0, 64, 65
1, 531943, Control_c, 0, 64, 64
1, 531958, Control_c, 0, 64, 62
1, 531973, Control_c, 0, 64, 60
1, 531988, Control_c, 0, 64, 56
1, 532003, Control_c, 0, 64, 51
1, 532017, Control_c, 0, 64, 45
1, 532032, Control_c, 0, 64, 40
1, 532047, Control_c, 0, 64, 33
1, 532061, Control_c, 0, 64, 14
1, 532076, Control_c, 0, 64, 0
1, 532284, Control_c, 0, 64, 21
1, 532299, Control_c, 0, 64, 38
1, 532314, Control_c, 0, 64, 48
1, 532329, Control_c, 0, 64, 54
1, 532343, Control_c, 0, 64, 59
1, 532358, Control_c, 0, 64, 62
1, 532373, Control_c, 0, 64, 64
1, 532388, Control_c, 0, 64, 67
1, 532403, Control_c, 0, 64, 70
1, 532417, Control_c, 0, 64, 72
1, 532432, Control_c, 0, 64, 74
1, 532447, Control_c, 0, 64, 76
1, 532461, Control_c, 0, 64, 78
1, 532476, Control_c, 0, 64, 79
1, 532491, Control_c, 0, 64, 82
1, 532506, Control_c, 0, 64, 84
1, 532521, Control_c, 0, 64, 86
1, 532535, Control_c, 0, 64, 88
1, 532550, Control_c, 0, 64, 89
1, 532565, Control_c, 0, 64, 90
1, 532587, Control_c, 0, 64, 91
1, 532602, Control_c, 0, 64, 91
1, 532633, Control_c, 0, 64, 92
1, 532796, Control_c, 0, 64, 91
1, 532826, Note_on_c, 0, 45, 27
1, 532834, Note_on_c, 0, 57, 22
1, 532870, Control_c, 0, 64, 91
1, 532894, Note_off_c, 0, 45, 42
1, 532926, Note_off_c, 0, 57, 38
1, 532988, Control_c, 0, 64, 90
1, 533095, Note_on_c, 0, 57, 30
1, 533101, Note_on_c, 0, 45, 17
1, 533136, Control_c, 0, 64, 90
1, 533336, Control_c, 0, 64, 89
1, 533348, Note_off_c, 0, 57, 23
1, 533589, Control_c, 0, 64, 89
1, 533655, Note_off_c, 0, 45, 38
1, 533664, Control_c, 0, 64, 88
1, 533723, Control_c, 0, 64, 88
1, 533768, Control_c, 0, 64, 87
1, 533812, Control_c, 0, 64, 87
1, 533841, Control_c, 0, 64, 86
1, 533871, Control_c, 0, 64, 86
1, 533886, Control_c, 0, 64, 85
1, 533915, Control_c, 0, 64, 85
1, 533930, Control_c, 0, 64, 84
1, 533945, Control_c, 0, 64, 83
1, 533960, Control_c, 0, 64, 83
1, 533975, Control_c, 0, 64, 82
1, 533989, Control_c, 0, 64, 81
1, 534004, Control_c, 0, 64, 80
1, 534019, Control_c, 0, 64, 78
1, 534034, Control_c, 0, 64, 76
1, 534049, Control_c, 0, 64, 74
1, 534063, Control_c, 0, 64, 71
1, 534086, Control_c, 0, 64, 68
1, 534101, Control_c, 0, 64, 66
1, 534115, Control_c, 0, 64, 64
1, 534130, Control_c, 0, 64, 63
1, 534145, Control_c, 0, 64, 62
1, 534160, Control_c, 0, 64, 61
1, 534175, Control_c, 0, 64, 59
1, 534189, Control_c, 0, 64, 57
1, 534204, Control_c, 0, 64, 52
1, 534220, Control_c, 0, 64, 45
1, 534235, Control_c, 0, 64, 36
1, 534250, Control_c, 0, 64, 14
1, 534264, Control_c, 0, 64, 0
1, 534664, Control_c, 0, 64, 42
1, 534679, Control_c, 0, 64, 59
1, 534694, Control_c, 0, 64, 64
1, 534709, Control_c, 0, 64, 66
1, 534724, Control_c, 0, 64, 70
1, 534738, Control_c, 0, 64, 73
1, 534753, Control_c, 0, 64, 78
1, 534768, Control_c, 0, 64, 83
1, 534783, Control_c, 0, 64, 88
1, 534798, Control_c, 0, 64, 94
1, 534812, Control_c, 0, 64, 100
1, 534827, Control_c, 0, 64, 107
1, 534850, Control_c, 0, 64, 115
1, 534864, Control_c, 0, 64, 127
1, 535265, Note_on_c, 0, 46, 29
1, 535270, Note_on_c, 0, 58, 29
1, 535306, Note_off_c, 0, 46, 44
1, 535315, Note_off_c, 0, 58, 47
1, 535374, Note_on_c, 0, 58, 42
1, 535393, Note_on_c, 0, 46, 42
1, 536192, Note_off_c, 0, 46, 41
1, 536261, Note_off_c, 0, 58, 42
1, 537087, Note_on_c, 0, 51, 37
1, 537107, Note_on_c, 0, 39, 30
1, 537140, Note_off_c, 0, 51, 53
1, 537202, Note_off_c, 0, 39, 0
1, 537219, Note_on_c, 0, 39, 27
1, 537220, Note_on_c, 0, 51, 36
1, 538288, Note_off_c, 0, 51, 45
1, 538499, Note_off_c, 0, 39, 40
1, 539453, Note_on_c, 0, 34, 35
1, 539465, Note_on_c, 0, 22, 36
1, 539474, Note_on_c, 0, 46, 29
1, 539528, Note_off_c, 0, 46, 44
1, 539542, Note_off_c, 0, 22, 41
1, 539557, Note_off_c, 0, 34, 37
1, 539622, Note_on_c, 0, 46, 39
1, 539629, Note_on_c, 0, 34, 31
1, 539648, Note_on_c, 0, 22, 32
1, 539697, Control_c, 0, 64, 121
1, 539712, Control_c, 0, 64, 110
1, 539727, Control_c, 0, 64, 103
1, 539742, Control_c, 0, 64, 96
1, 539757, Control_c, 0, 64, 90
1, 539771, Control_c, 0, 64, 82
1, 539786, Control_c, 0, 64, 75
1, 539802, Control_c, 0, 64, 67
1, 539817, Control_c, 0, 64, 53
1, 539831, Control_c, 0, 64, 0
1, 540009, Control_c, 0, 64, 33
1, 540024, Control_c, 0, 64, 47
1, 540039, Control_c, 0, 64, 55
1, 540054, Control_c, 0, 64, 60
1, 540076, Control_c, 0, 64, 62
1, 540091, Control_c, 0, 64, 64
1, 540106, Control_c, 0, 64, 65
1, 540121, Control_c, 0, 64, 67
1, 540136, Control_c, 0, 64, 68
1, 540150, Control_c, 0, 64, 70
1, 540165, Control_c, 0, 64, 72
1, 540180, Control_c, 0, 64, 74
1, 540195, Control_c, 0, 64, 78
1, 540210, Control_c, 0, 64, 81
1, 540225, Control_c, 0, 64, 85
1, 540233, Note_off_c, 0, 46, 41
1, 540240, Control_c, 0, 64, 87
1, 540255, Control_c, 0, 64, 90
1, 540270, Control_c, 0, 64, 92
1, 540284, Control_c, 0, 64, 93
1, 540299, Control_c, 0, 64, 95
1, 540314, Control_c, 0, 64, 96
1, 540329, Control_c, 0, 64, 97
1, 540329, Control_c, 0, 67, 126
1, 540344, Control_c, 0, 64, 98
1, 540344, Control_c, 0, 67, 119
1, 540358, Control_c, 0, 64, 99
1, 540358, Control_c, 0, 67, 112
1, 540373, Control_c, 0, 67, 101
1, 540388, Control_c, 0, 64, 99
1, 540388, Control_c, 0, 67, 85
1, 540402, Control_c, 0, 67, 65
1, 540417, Control_c, 0, 67, 45
1, 540432, Control_c, 0, 67, 25
1, 540447, Control_c, 0, 67, 13
1, 540462, Control_c, 0, 67, 0
1, 540759, Control_c, 0, 64, 99
1, 540825, Control_c, 0, 64, 98
1, 540885, Control_c, 0, 64, 98
1, 540973, Control_c, 0, 64, 97
1, 541048, Control_c, 0, 64, 97
1, 541211, Control_c, 0, 64, 96
1, 541285, Control_c, 0, 64, 96
1, 541289, Note_on_c, 0, 61, 54
1, 541314, Control_c, 0, 64, 95
1, 541322, Note_on_c, 0, 52, 37
1, 541328, Note_on_c, 0, 55, 39
1, 541329, Control_c, 0, 64, 95
1, 541343, Control_c, 0, 64, 94
1, 541358, Control_c, 0, 64, 93
1, 541373, Control_c, 0, 64, 92
1, 541388, Control_c, 0, 64, 91
1, 541404, Control_c, 0, 64, 89
1, 541419, Control_c, 0, 64, 86
1, 541434, Control_c, 0, 64, 82
1, 541448, Control_c, 0, 64, 77
1, 541463, Control_c, 0, 64, 70
1, 541478, Control_c, 0, 64, 63
1, 541493, Control_c, 0, 64, 42
1, 541508, Control_c, 0, 64, 0
1, 542166, Control_c, 0, 67, 8
1, 542181, Control_c, 0, 67, 9
1, 542198, Control_c, 0, 67, 10
1, 542213, Control_c, 0, 67, 11
1, 542227, Control_c, 0, 67, 15
1, 542242, Control_c, 0, 67, 23
1, 542257, Control_c, 0, 67, 37
1, 542271, Control_c, 0, 67, 54
1, 542286, Control_c, 0, 67, 73
1, 542301, Control_c, 0, 67, 90
1, 542323, Control_c, 0, 67, 109
1, 542338, Control_c, 0, 67, 124
1, 542353, Control_c, 0, 67, 127
1, 542457, Control_c, 0, 64, 36
1, 542471, Control_c, 0, 64, 53
1, 542486, Control_c, 0, 64, 60
1, 542501, Control_c, 0, 64, 64
1, 542516, Control_c, 0, 64, 65
1, 542531, Control_c, 0, 64, 68
1, 542545, Control_c, 0, 64, 70
1, 542560, Control_c, 0, 64, 72
1, 542575, Control_c, 0, 64, 74
1, 542590, Control_c, 0, 64, 78
1, 542604, Control_c, 0, 64, 82
1, 542619, Control_c, 0, 64, 86
1, 542634, Control_c, 0, 64, 88
1, 542649, Control_c, 0, 64, 91
1, 542664, Control_c, 0, 64, 92
1, 542678, Control_c, 0, 64, 93
1, 542693, Control_c, 0, 64, 94
1, 542723, Control_c, 0, 64, 94
1, 542739, Note_off_c, 0, 52, 30
1, 542782, Note_off_c, 0, 61, 33
1, 542785, Note_off_c, 0, 55, 36
1, 543006, Control_c, 0, 64, 94
1, 543099, Note_off_c, 0, 34, 27
1, 543102, Control_c, 0, 64, 93
1, 543191, Control_c, 0, 64, 93
1, 543325, Control_c, 0, 64, 92
1, 543502, Control_c, 0, 64, 92
1, 543591, Control_c, 0, 64, 91
1, 543658, Note_off_c, 0, 22, 29
1, 543695, Control_c, 0, 64, 91
1, 543784, Control_c, 0, 64, 90
1, 543999, Control_c, 0, 64, 90
1, 544058, Control_c, 0, 64, 89
1, 544118, Control_c, 0, 64, 89
1, 544147, Control_c, 0, 64, 88
1, 544191, Control_c, 0, 64, 88
1, 544221, Control_c, 0, 64, 87
1, 544236, Control_c, 0, 64, 87
1, 544250, Control_c, 0, 64, 86
1, 544265, Control_c, 0, 64, 86
1, 544280, Control_c, 0, 64, 85
1, 544295, Control_c, 0, 64, 85
1, 544296, Note_on_c, 0, 45, 6
1, 544300, Note_on_c, 0, 21, 25
1, 544300, Note_on_c, 0, 33, 15
1, 544310, Control_c, 0, 64, 84
1, 544324, Control_c, 0, 64, 83
1, 544339, Control_c, 0, 64, 83
1, 544354, Control_c, 0, 64, 82
1, 544368, Control_c, 0, 64, 81
1, 544383, Control_c, 0, 64, 80
1, 544398, Control_c, 0, 64, 79
1, 544413, Note_off_c, 0, 45, 35
1, 544413, Control_c, 0, 64, 79
1, 544422, Note_off_c, 0, 33, 36
1, 544428, Control_c, 0, 64, 78
1, 544430, Note_off_c, 0, 21, 35
1, 544443, Control_c, 0, 64, 77
1, 544458, Control_c, 0, 64, 77
1, 544488, Control_c, 0, 64, 76
1, 544583, Control_c, 0, 64, 76
1, 544687, Control_c, 0, 67, 125
1, 544702, Control_c, 0, 64, 75
1, 544702, Control_c, 0, 67, 118
1, 544717, Control_c, 0, 67, 104
1, 544732, Control_c, 0, 67, 88
1, 544747, Control_c, 0, 67, 70
1, 544762, Control_c, 0, 67, 52
1, 544777, Control_c, 0, 67, 37
1, 544791, Control_c, 0, 67, 26
1, 544806, Control_c, 0, 64, 75
1, 544806, Control_c, 0, 67, 17
1, 544821, Control_c, 0, 67, 8
1, 544836, Control_c, 0, 64, 74
1, 544836, Control_c, 0, 67, 0
1, 544851, Control_c, 0, 64, 74
1, 544865, Control_c, 0, 64, 73
1, 544880, Control_c, 0, 64, 72
1, 544895, Control_c, 0, 64, 71
1, 544910, Control_c, 0, 64, 70
1, 544925, Control_c, 0, 64, 69
1, 544939, Control_c, 0, 64, 68
1, 544954, Control_c, 0, 64, 67
1, 544969, Control_c, 0, 64, 66
1, 544984, Control_c, 0, 64, 66
1, 545013, Control_c, 0, 64, 65
1, 545058, Control_c, 0, 64, 65
1, 545102, Control_c, 0, 64, 64
1, 545295, Control_c, 0, 64, 64
1, 545600, Control_c, 0, 64, 63
1, 546274, Control_c, 0, 64, 63
1, 546437, Control_c, 0, 64, 62
1, 546600, Control_c, 0, 64, 62
1, 546630, Control_c, 0, 64, 61
1, 546644, Control_c, 0, 64, 61
1, 546659, Control_c, 0, 64, 60
1, 546674, Control_c, 0, 64, 60
1, 546689, Control_c, 0, 64, 59
1, 546704, Control_c, 0, 64, 59
1, 546718, Control_c, 0, 64, 58
1, 546733, Control_c, 0, 64, 58
1, 546748, Control_c, 0, 64, 57
1, 546762, Control_c, 0, 64, 56
1, 546777, Control_c, 0, 64, 56
1, 546792, Control_c, 0, 64, 55
1, 546815, Control_c, 0, 64, 54
1, 546830, Control_c, 0, 64, 53
1, 546844, Control_c, 0, 64, 53
1, 546859, Control_c, 0, 64, 52
1, 546874, Control_c, 0, 64, 51
1, 546889, Control_c, 0, 64, 50
1, 546904, Control_c, 0, 64, 50
1, 546918, Control_c, 0, 64, 49
1, 546933, Control_c, 0, 64, 48
1, 546948, Control_c, 0, 64, 47
1, 546963, Control_c, 0, 64, 45
1, 546977, Control_c, 0, 64, 42
1, 546993, Control_c, 0, 64, 40
1, 547008, Control_c, 0, 64, 36
1, 547008, Control_c, 0, 67, 8
1, 547023, Control_c, 0, 64, 33
1, 547023, Control_c, 0, 67, 12
1, 547038, Control_c, 0, 64, 28
1, 547038, Control_c, 0, 67, 17
1, 547053, Control_c, 0, 64, 21
1, 547053, Control_c, 0, 67, 22
1, 547067, Control_c, 0, 64, 0
1, 547067, Control_c, 0, 67, 28
1, 547082, Control_c, 0, 67, 36
1, 547097, Control_c, 0, 67, 46
1, 547112, Control_c, 0, 67, 56
1, 547127, Control_c, 0, 67, 64
1, 547141, Control_c, 0, 67, 75
1, 547156, Control_c, 0, 67, 88
1, 547171, Control_c, 0, 67, 104
1, 547185, Control_c, 0, 67, 121
1, 547200, Control_c, 0, 67, 127
1, 547453, Control_c, 0, 64, 46
1, 547467, Control_c, 0, 64, 64
1, 547482, Control_c, 0, 64, 69
1, 547497, Control_c, 0, 64, 73
1, 547512, Control_c, 0, 64, 78
1, 547527, Control_c, 0, 64, 83
1, 547541, Control_c, 0, 64, 89
1, 547564, Control_c, 0, 64, 94
1, 547579, Control_c, 0, 64, 97
1, 547593, Control_c, 0, 64, 99
1, 547608, Control_c, 0, 64, 101
1, 547623, Control_c, 0, 64, 103
1, 547638, Control_c, 0, 64, 107
1, 547653, Control_c, 0, 64, 112
1, 547667, Control_c, 0, 64, 118
1, 547682, Control_c, 0, 64, 124
1, 547697, Control_c, 0, 64, 127
1, 547893, Note_on_c, 0, 74, 35
1, 547945, Note_on_c, 0, 78, 43
1, 547978, Note_on_c, 0, 86, 47
1, 548020, Note_on_c, 0, 81, 3
1, 548029, Note_off_c, 0, 86, 50
1, 548046, Note_on_c, 0, 90, 50
1, 548058, Note_off_c, 0, 81, 38
1, 548086, Note_off_c, 0, 90, 52
1, 548142, Control_c, 0, 64, 126
1, 548143, Note_on_c, 0, 86, 43
1, 548180, Note_off_c, 0, 86, 49
1, 548187, Control_c, 0, 64, 124
1, 548187, Note_on_c, 0, 90, 55
1, 548205, Poly_aftertouch_c, 0, 81, 0
1, 548220, Note_off_c, 0, 90, 57
1, 548246, Control_c, 0, 64, 123
1, 548282, Note_on_c, 0, 81, 24
1, 548284, Note_on_c, 0, 86, 38
1, 548290, Control_c, 0, 64, 122
1, 548320, Note_on_c, 0, 90, 63
1, 548322, Note_off_c, 0, 86, 55
1, 548326, Note_off_c, 0, 81, 47
1, 548368, Note_off_c, 0, 90, 55
1, 548414, Note_on_c, 0, 81, 50
1, 548416, Note_on_c, 0, 86, 52
1, 548442, Note_off_c, 0, 81, 54
1, 548452, Note_off_c, 0, 86, 57
1, 548461, Note_on_c, 0, 90, 66
1, 548476, Control_c, 0, 64, 121
1, 548517, Note_off_c, 0, 90, 50
1, 548542, Note_on_c, 0, 86, 61
1, 548547, Note_on_c, 0, 81, 43
1, 548577, Note_off_c, 0, 81, 53
1, 548579, Control_c, 0, 64, 120
1, 548592, Note_on_c, 0, 90, 56
1, 548599, Note_off_c, 0, 86, 57
1, 548625, Control_c, 0, 64, 119
1, 548650, Note_off_c, 0, 90, 58
1, 548669, Control_c, 0, 64, 119
1, 548682, Note_on_c, 0, 81, 48
1, 548684, Control_c, 0, 64, 118
1, 548688, Note_on_c, 0, 86, 51
1, 548713, Control_c, 0, 64, 118
1, 548718, Note_off_c, 0, 81, 53
1, 548739, Note_on_c, 0, 90, 55
1, 548745, Note_off_c, 0, 86, 56
1, 548796, Note_off_c, 0, 90, 53
1, 548822, Note_on_c, 0, 86, 36
1, 548825, Note_on_c, 0, 81, 50
1, 548862, Note_off_c, 0, 81, 54
1, 548866, Note_on_c, 0, 90, 47
1, 548911, Note_off_c, 0, 90, 60
1, 548912, Note_off_c, 0, 86, 37
1, 548935, Control_c, 0, 64, 117
1, 548965, Control_c, 0, 64, 117
1, 548967, Note_on_c, 0, 86, 32
1, 548974, Note_on_c, 0, 81, 24
1, 548980, Control_c, 0, 64, 116
1, 548989, Note_on_c, 0, 90, 51
1, 548995, Control_c, 0, 64, 115
1, 549001, Note_off_c, 0, 74, 45
1, 549007, Note_off_c, 0, 86, 51
1, 549010, Note_off_c, 0, 81, 46
1, 549010, Control_c, 0, 64, 114
1, 549025, Control_c, 0, 64, 114
1, 549037, Note_on_c, 0, 72, 48
1, 549039, Control_c, 0, 64, 112
1, 549061, Control_c, 0, 64, 110
1, 549076, Control_c, 0, 64, 108
1, 549081, Note_off_c, 0, 90, 61
1, 549091, Control_c, 0, 64, 105
1, 549106, Control_c, 0, 64, 102
1, 549120, Control_c, 0, 64, 98
1, 549132, Note_on_c, 0, 79, 56
1, 549135, Control_c, 0, 64, 92
1, 549148, Note_on_c, 0, 88, 56
1, 549151, Control_c, 0, 64, 81
1, 549163, Note_on_c, 0, 84, 26
1, 549165, Control_c, 0, 64, 70
1, 549180, Control_c, 0, 64, 49
1, 549183, Note_off_c, 0, 78, 36
1, 549190, Note_off_c, 0, 84, 50
1, 549194, Note_off_c, 0, 88, 55
1, 549195, Control_c, 0, 64, 0
1, 549203, Note_on_c, 0, 91, 56
1, 549225, Control_c, 0, 64, 51
1, 549239, Control_c, 0, 64, 65
1, 549242, Note_off_c, 0, 91, 57
1, 549254, Control_c, 0, 64, 71
1, 549269, Control_c, 0, 64, 78
1, 549284, Control_c, 0, 64, 87
1, 549286, Note_on_c, 0, 88, 48
1, 549287, Note_on_c, 0, 84, 45
1, 549299, Control_c, 0, 64, 95
1, 549311, Note_off_c, 0, 84, 58
1, 549314, Control_c, 0, 64, 101
1, 549323, Note_off_c, 0, 88, 62
1, 549326, Note_on_c, 0, 91, 71
1, 549329, Control_c, 0, 64, 106
1, 549344, Control_c, 0, 64, 113
1, 549358, Control_c, 0, 64, 123
1, 549367, Note_off_c, 0, 91, 55
1, 549373, Control_c, 0, 64, 127
1, 549398, Note_on_c, 0, 84, 49
1, 549406, Note_on_c, 0, 88, 58
1, 549434, Note_off_c, 0, 84, 61
1, 549442, Note_off_c, 0, 88, 62
1, 549448, Note_on_c, 0, 91, 70
1, 549499, Note_off_c, 0, 91, 59
1, 549525, Note_on_c, 0, 88, 60
1, 549537, Note_on_c, 0, 84, 45
1, 549561, Note_off_c, 0, 84, 59
1, 549564, Note_off_c, 0, 88, 63
1, 549569, Note_on_c, 0, 91, 65
1, 549627, Note_off_c, 0, 91, 62
1, 549644, Note_on_c, 0, 84, 54
1, 549654, Note_on_c, 0, 88, 56
1, 549680, Note_off_c, 0, 84, 62
1, 549689, Note_off_c, 0, 88, 66
1, 549690, Note_on_c, 0, 91, 68
1, 549753, Note_off_c, 0, 91, 61
1, 549785, Note_on_c, 0, 88, 53
1, 549796, Note_on_c, 0, 84, 39
1, 549817, Note_off_c, 0, 88, 60
1, 549824, Note_on_c, 0, 91, 68
1, 549830, Note_off_c, 0, 84, 54
1, 549883, Note_off_c, 0, 91, 62
1, 549898, Note_on_c, 0, 88, 60
1, 549908, Note_on_c, 0, 84, 58
1, 549939, Note_off_c, 0, 88, 61
1, 549940, Note_off_c, 0, 84, 65
1, 549947, Note_on_c, 0, 91, 67
1, 550005, Note_off_c, 0, 91, 60
1, 550038, Note_on_c, 0, 88, 58
1, 550038, Note_on_c, 0, 84, 54
1, 550065, Note_off_c, 0, 84, 63
1, 550069, Note_off_c, 0, 88, 66
1, 550075, Note_on_c, 0, 91, 71
1, 550133, Note_off_c, 0, 91, 60
1, 550154, Note_on_c, 0, 84, 58
1, 550157, Note_on_c, 0, 88, 68
1, 550192, Note_off_c, 0, 84, 61
1, 550193, Note_off_c, 0, 88, 62
1, 550199, Note_on_c, 0, 91, 68
1, 550259, Note_off_c, 0, 91, 61
1, 550294, Note_on_c, 0, 88, 59
1, 550296, Note_on_c, 0, 84, 44
1, 550319, Note_off_c, 0, 84, 59
1, 550319, Note_off_c, 0, 88, 65
1, 550322, Note_on_c, 0, 91, 70
1, 550381, Note_off_c, 0, 91, 61
1, 550398, Note_on_c, 0, 84, 59
1, 550401, Note_on_c, 0, 88, 65
1, 550438, Note_off_c, 0, 88, 62
1, 550440, Note_off_c, 0, 84, 59
1, 550451, Note_on_c, 0, 91, 70
1, 550508, Note_off_c, 0, 91, 62
1, 550534, Note_on_c, 0, 88, 57
1, 550548, Note_on_c, 0, 84, 36
1, 550569, Note_off_c, 0, 88, 63
1, 550575, Note_on_c, 0, 91, 73
1, 550585, Note_off_c, 0, 84, 51
1, 550629, Note_off_c, 0, 91, 61
1, 550655, Note_on_c, 0, 88, 59
1, 550661, Note_on_c, 0, 84, 64
1, 550694, Note_off_c, 0, 88, 63
1, 550694, Note_off_c, 0, 84, 60
1, 550700, Note_on_c, 0, 91, 75
1, 550753, Note_off_c, 0, 91, 61
1, 550795, Note_on_c, 0, 88, 52
1, 550804, Note_on_c, 0, 84, 41
1, 550820, Note_on_c, 0, 91, 72
1, 550827, Note_off_c, 0, 84, 58
1, 550833, Note_off_c, 0, 88, 58
1, 550878, Note_off_c, 0, 91, 60
1, 550907, Note_on_c, 0, 84, 53
1, 550935, Note_on_c, 0, 88, 49
1, 550941, Note_on_c, 0, 91, 50
1, 550956, Note_off_c, 0, 84, 55
1, 551007, Note_off_c, 0, 91, 0
1, 551032, Note_off_c, 0, 88, 0
1, 551039, Note_on_c, 0, 91, 27
1, 551048, Note_on_c, 0, 88, 34
1, 551093, Note_off_c, 0, 88, 60
1, 551099, Note_off_c, 0, 91, 55
1, 551107, Note_on_c, 0, 74, 61
1, 551110, Note_off_c, 0, 79, 50
1, 551138, Control_c, 0, 64, 118
1, 551138, Poly_aftertouch_c, 0, 84, 0
1, 551152, Control_c, 0, 64, 105
1, 551161, Note_off_c, 0, 72, 37
1, 551164, Note_on_c, 0, 78, 55
1, 551167, Control_c, 0, 64, 92
1, 551182, Control_c, 0, 64, 77
1, 551196, Note_on_c, 0, 86, 50
1, 551197, Control_c, 0, 64, 64
1, 551207, Note_on_c, 0, 81, 38
1, 551212, Control_c, 0, 64, 0
1, 551232, Note_off_c, 0, 81, 55
1, 551238, Note_off_c, 0, 86, 61
1, 551241, Control_c, 0, 64, 55
1, 551242, Note_on_c, 0, 90, 64
1, 551256, Control_c, 0, 64, 67
1, 551271, Control_c, 0, 64, 74
1, 551275, Note_off_c, 0, 90, 60
1, 551286, Control_c, 0, 64, 85
1, 551308, Control_c, 0, 64, 96
1, 551317, Note_on_c, 0, 81, 57
1, 551323, Control_c, 0, 64, 107
1, 551338, Control_c, 0, 64, 127
1, 551340, Note_on_c, 0, 86, 50
1, 551350, Note_off_c, 0, 81, 52
1, 551378, Note_off_c, 0, 86, 62
1, 551379, Note_on_c, 0, 90, 68
1, 551412, Note_off_c, 0, 90, 59
1, 551450, Note_on_c, 0, 81, 47
1, 551476, Note_on_c, 0, 86, 45
1, 551481, Note_off_c, 0, 81, 53
1, 551497, Note_on_c, 0, 90, 69
1, 551502, Note_off_c, 0, 86, 58
1, 551549, Note_off_c, 0, 90, 61
1, 551577, Note_on_c, 0, 81, 51
1, 551589, Note_on_c, 0, 86, 50
1, 551611, Note_off_c, 0, 81, 53
1, 551622, Note_on_c, 0, 90, 63
1, 551630, Note_off_c, 0, 86, 60
1, 551639, Note_off_c, 0, 78, 37
1, 551685, Note_off_c, 0, 90, 60
1, 551716, Note_on_c, 0, 81, 49
1, 551743, Note_off_c, 0, 81, 53
1, 551749, Note_on_c, 0, 86, 46
1, 551749, Note_off_c, 0, 74, 37
1, 551764, Note_on_c, 0, 90, 64
1, 551773, Note_off_c, 0, 86, 60
1, 551822, Note_off_c, 0, 90, 57
1, 551846, Note_on_c, 0, 81, 48
1, 551867, Note_on_c, 0, 86, 54
1, 551882, Note_off_c, 0, 81, 55
1, 551898, Note_on_c, 0, 90, 58
1, 551907, Note_off_c, 0, 86, 61
1, 551957, Note_off_c, 0, 90, 54
1, 551979, Note_on_c, 0, 81, 52
1, 552007, Note_off_c, 0, 81, 56
1, 552016, Note_on_c, 0, 86, 47
1, 552026, Note_on_c, 0, 90, 51
1, 552041, Note_off_c, 0, 86, 59
1, 552125, Note_on_c, 0, 81, 38
1, 552137, Note_on_c, 0, 86, 57
1, 552154, Note_off_c, 0, 81, 53
1, 552157, Note_on_c, 0, 69, 49
1, 552175, Note_off_c, 0, 86, 58
1, 552195, Note_off_c, 0, 90, 55
1, 552220, Control_c, 0, 64, 104
1, 552222, Note_on_c, 0, 76, 51
1, 552235, Control_c, 0, 64, 88
1, 552240, Note_on_c, 0, 81, 54
1, 552250, Control_c, 0, 64, 75
1, 552264, Control_c, 0, 64, 64
1, 552271, Note_on_c, 0, 86, 34
1, 552279, Control_c, 0, 64, 40
1, 552280, Note_off_c, 0, 81, 53
1, 552294, Control_c, 0, 64, 56
1, 552295, Note_on_c, 0, 88, 65
1, 552301, Note_off_c, 0, 86, 57
1, 552308, Control_c, 0, 64, 66
1, 552323, Control_c, 0, 64, 75
1, 552338, Control_c, 0, 64, 85
1, 552343, Note_off_c, 0, 88, 57
1, 552353, Control_c, 0, 64, 97
1, 552368, Control_c, 0, 64, 111
1, 552376, Note_on_c, 0, 81, 54
1, 552382, Control_c, 0, 64, 127
1, 552385, Note_on_c, 0, 86, 52
1, 552414, Note_off_c, 0, 81, 59
1, 552419, Note_off_c, 0, 86, 63
1, 552423, Note_on_c, 0, 88, 70
1, 552479, Note_off_c, 0, 88, 62
1, 552513, Note_on_c, 0, 86, 52
1, 552517, Note_on_c, 0, 81, 51
1, 552542, Note_off_c, 0, 81, 56
1, 552543, Note_off_c, 0, 86, 63
1, 552551, Note_on_c, 0, 88, 68
1, 552606, Note_off_c, 0, 88, 62
1, 552630, Note_on_c, 0, 86, 69
1, 552634, Note_on_c, 0, 81, 54
1, 552672, Note_off_c, 0, 81, 58
1, 552682, Note_off_c, 0, 86, 63
1, 552689, Note_on_c, 0, 88, 71
1, 552744, Note_off_c, 0, 88, 62
1, 552772, Note_on_c, 0, 86, 53
1, 552783, Note_on_c, 0, 81, 48
1, 552812, Note_off_c, 0, 81, 58
1, 552812, Note_off_c, 0, 86, 62
1, 552820, Note_on_c, 0, 88, 71
1, 552876, Note_off_c, 0, 88, 62
1, 552899, Note_on_c, 0, 81, 56
1, 552904, Note_on_c, 0, 86, 63
1, 552940, Note_off_c, 0, 81, 57
1, 552941, Note_off_c, 0, 86, 62
1, 552950, Note_on_c, 0, 88, 69
1, 553007, Note_off_c, 0, 88, 62
1, 553037, Note_on_c, 0, 86, 54
1, 553052, Note_on_c, 0, 81, 47
1, 553074, Note_off_c, 0, 81, 58
1, 553079, Note_on_c, 0, 88, 66
1, 553079, Note_off_c, 0, 86, 61
1, 553138, Note_off_c, 0, 88, 62
1, 553162, Note_on_c, 0, 81, 51
1, 553170, Note_on_c, 0, 86, 61
1, 553201, Note_off_c, 0, 86, 66
1, 553207, Note_off_c, 0, 81, 56
1, 553207, Note_on_c, 0, 88, 62
1, 553264, Note_off_c, 0, 88, 63
1, 553305, Note_on_c, 0, 85, 54
1, 553324, Note_on_c, 0, 81, 45
1, 553344, Note_off_c, 0, 85, 63
1, 553348, Note_off_c, 0, 81, 57
1, 553353, Note_on_c, 0, 88, 69
1, 553415, Note_off_c, 0, 88, 60
1, 553430, Note_on_c, 0, 81, 60
1, 553448, Note_on_c, 0, 85, 56
1, 553479, Note_on_c, 0, 88, 64
1, 553481, Note_off_c, 0, 85, 64
1, 553483, Note_off_c, 0, 81, 59
1, 553546, Note_off_c, 0, 88, 61
1, 553580, Note_on_c, 0, 85, 51
1, 553591, Note_on_c, 0, 81, 52
1, 553621, Note_on_c, 0, 88, 64
1, 553624, Note_off_c, 0, 81, 62
1, 553629, Note_off_c, 0, 85, 57
1, 553691, Note_off_c, 0, 88, 60
1, 553709, Note_on_c, 0, 81, 58
1, 553728, Note_on_c, 0, 85, 52
1, 553751, Note_off_c, 0, 81, 56
1, 553769, Note_off_c, 0, 85, 59
1, 553770, Note_on_c, 0, 88, 60
1, 553830, Note_off_c, 0, 88, 56
1, 553848, Note_on_c, 0, 79, 58
1, 553876, Note_off_c, 0, 76, 51
1, 553880, Note_off_c, 0, 79, 57
1, 553894, Note_on_c, 0, 88, 59
1, 553937, Poly_aftertouch_c, 0, 85, 127
1, 553943, Note_off_c, 0, 88, 56
1, 553965, Note_on_c, 0, 79, 65
1, 554012, Note_off_c, 0, 79, 59
1, 554017, Note_on_c, 0, 88, 66
1, 554047, Poly_aftertouch_c, 0, 85, 0
1, 554074, Note_off_c, 0, 88, 52
1, 554113, Note_on_c, 0, 79, 52
1, 554138, Note_on_c, 0, 85, 39
1, 554141, Note_off_c, 0, 79, 56
1, 554152, Note_on_c, 0, 88, 63
1, 554166, Note_off_c, 0, 69, 23
1, 554166, Note_off_c, 0, 85, 54
1, 554189, Note_off_c, 0, 88, 55
1, 554226, Note_on_c, 0, 79, 61
1, 554242, Note_on_c, 0, 88, 43
1, 554259, Note_on_c, 0, 85, 49
1, 554259, Note_off_c, 0, 79, 63
1, 554283, Note_off_c, 0, 85, 62
1, 554292, Note_off_c, 0, 88, 61
1, 554316, Note_on_c, 0, 71, 58
1, 554334, Control_c, 0, 64, 126
1, 554348, Control_c, 0, 64, 109
1, 554363, Control_c, 0, 64, 97
1, 554378, Control_c, 0, 64, 83
1, 554385, Note_on_c, 0, 78, 54
1, 554387, Note_on_c, 0, 74, 54
1, 554392, Control_c, 0, 64, 69
1, 554394, Note_on_c, 0, 83, 44
1, 554407, Control_c, 0, 64, 28
1, 554420, Note_off_c, 0, 78, 55
1, 554422, Control_c, 0, 64, 0
1, 554437, Control_c, 0, 64, 43
1, 554441, Note_off_c, 0, 83, 60
1, 554446, Note_on_c, 0, 86, 60
1, 554451, Control_c, 0, 64, 65
1, 554466, Control_c, 0, 64, 74
1, 554481, Control_c, 0, 64, 84
1, 554488, Note_off_c, 0, 86, 60
1, 554496, Control_c, 0, 64, 97
1, 554510, Control_c, 0, 64, 114
1, 554513, Note_on_c, 0, 78, 55
1, 554525, Control_c, 0, 64, 127
1, 554543, Note_on_c, 0, 83, 46
1, 554563, Note_off_c, 0, 78, 56
1, 554578, Note_off_c, 0, 83, 65
1, 554578, Note_on_c, 0, 86, 60
1, 554581, Note_off_c, 0, 74, 57
1, 554613, Note_off_c, 0, 86, 62
1, 554619, Note_off_c, 0, 71, 55
1, 554660, Note_on_c, 0, 78, 48
1, 554671, Note_on_c, 0, 83, 55
1, 554688, Note_off_c, 0, 78, 57
1, 554703, Note_off_c, 0, 83, 65
1, 554704, Note_on_c, 0, 86, 69
1, 554746, Note_off_c, 0, 86, 54
1, 554775, Note_on_c, 0, 78, 59
1, 554792, Note_on_c, 0, 83, 61
1, 554828, Note_off_c, 0, 78, 59
1, 554835, Note_on_c, 0, 86, 67
1, 554837, Note_off_c, 0, 83, 60
1, 554878, Note_off_c, 0, 86, 58
1, 554924, Note_on_c, 0, 78, 57
1, 554933, Note_on_c, 0, 83, 54
1, 554952, Note_off_c, 0, 78, 61
1, 554966, Note_on_c, 0, 86, 72
1, 554971, Note_off_c, 0, 83, 62
1, 555014, Note_off_c, 0, 86, 59
1, 555043, Note_on_c, 0, 78, 58
1, 555063, Note_on_c, 0, 83, 57
1, 555094, Note_off_c, 0, 78, 60
1, 555100, Note_on_c, 0, 86, 66
1, 555109, Note_off_c, 0, 83, 59
1, 555159, Note_off_c, 0, 86, 61
1, 555192, Note_on_c, 0, 78, 40
1, 555207, Note_on_c, 0, 83, 47
1, 555222, Note_on_c, 0, 86, 62
1, 555225, Note_off_c, 0, 78, 53
1, 555252, Note_off_c, 0, 83, 58
1, 555287, Note_off_c, 0, 86, 56
1, 555332, Note_on_c, 0, 61, 40
1, 555332, Note_on_c, 0, 78, 38
1, 555338, Note_on_c, 0, 83, 29
1, 555352, Note_on_c, 0, 86, 45
1, 555377, Note_on_c, 0, 68, 48
1, 555380, Note_off_c, 0, 83, 49
1, 555396, Note_off_c, 0, 78, 44
1, 555452, Control_c, 0, 64, 123
1, 555467, Control_c, 0, 64, 109
1, 555481, Control_c, 0, 64, 99
1, 555489, Note_on_c, 0, 73, 63
1, 555496, Control_c, 0, 64, 88
1, 555502, Note_off_c, 0, 86, 36
1, 555511, Control_c, 0, 64, 77
1, 555526, Control_c, 0, 64, 66
1, 555541, Control_c, 0, 64, 44
1, 555547, Note_on_c, 0, 80, 40
1, 555555, Note_on_c, 0, 77, 35
1, 555556, Control_c, 0, 64, 14
1, 555571, Control_c, 0, 64, 50
1, 555586, Control_c, 0, 64, 64
1, 555588, Note_off_c, 0, 80, 51
1, 555594, Note_off_c, 0, 77, 54
1, 555600, Control_c, 0, 64, 70
1, 555603, Note_on_c, 0, 85, 59
1, 555615, Control_c, 0, 64, 78
1, 555630, Control_c, 0, 64, 87
1, 555645, Control_c, 0, 64, 97
1, 555648, Note_off_c, 0, 85, 54
1, 555660, Control_c, 0, 64, 107
1, 555674, Control_c, 0, 64, 122
1, 555684, Note_on_c, 0, 80, 53
1, 555689, Control_c, 0, 64, 127
1, 555690, Note_on_c, 0, 77, 51
1, 555719, Note_off_c, 0, 77, 62
1, 555723, Note_off_c, 0, 80, 54
1, 555735, Note_on_c, 0, 85, 70
1, 555782, Note_off_c, 0, 85, 56
1, 555799, Note_off_c, 0, 73, 60
1, 555819, Note_on_c, 0, 77, 54
1, 555827, Note_on_c, 0, 80, 55
1, 555857, Note_off_c, 0, 77, 63
1, 555863, Note_off_c, 0, 80, 61
1, 555866, Note_on_c, 0, 85, 71
1, 555922, Note_off_c, 0, 85, 62
1, 555958, Note_on_c, 0, 77, 49
1, 555964, Note_on_c, 0, 80, 53
1, 555986, Note_off_c, 0, 77, 56
1, 555990, Note_on_c, 0, 85, 73
1, 555998, Note_off_c, 0, 80, 60
1, 556045, Note_off_c, 0, 85, 63
1, 556076, Note_on_c, 0, 77, 49
1, 556089, Note_on_c, 0, 80, 55
1, 556116, Note_on_c, 0, 85, 73
1, 556118, Note_off_c, 0, 77, 60
1, 556121, Note_off_c, 0, 80, 62
1, 556174, Note_off_c, 0, 85, 62
1, 556187, Note_off_c, 0, 68, 29
1, 556218, Note_on_c, 0, 77, 51
1, 556218, Note_on_c, 0, 80, 38
1, 556243, Note_on_c, 0, 85, 71
1, 556248, Note_off_c, 0, 80, 56
1, 556258, Note_off_c, 0, 77, 54
1, 556269, Note_on_c, 0, 71, 68
1, 556303, Note_off_c, 0, 85, 63
1, 556344, Note_on_c, 0, 80, 50
1, 556350, Note_off_c, 0, 61, 40
1, 556363, Note_on_c, 0, 77, 35
1, 556385, Note_on_c, 0, 85, 66
1, 556399, Note_off_c, 0, 77, 53
1, 556400, Note_off_c, 0, 80, 48
1, 556470, Note_off_c, 0, 85, 63
1, 556492, Note_off_c, 0, 71, 49
1, 556514, Note_on_c, 0, 66, 57
1, 556527, Control_c, 0, 64, 99
1, 556536, Note_on_c, 0, 70, 60
1, 556549, Control_c, 0, 64, 83
1, 556564, Control_c, 0, 64, 68
1, 556580, Control_c, 0, 64, 23
1, 556593, Note_on_c, 0, 82, 60
1, 556595, Control_c, 0, 64, 0
1, 556610, Control_c, 0, 64, 59
1, 556625, Control_c, 0, 64, 69
1, 556631, Note_off_c, 0, 82, 56
1, 556640, Control_c, 0, 64, 78
1, 556654, Control_c, 0, 64, 90
1, 556669, Control_c, 0, 64, 104
1, 556684, Control_c, 0, 64, 127
1, 556688, Note_on_c, 0, 78, 43
1, 556703, Note_on_c, 0, 73, 19
1, 556716, Note_off_c, 0, 78, 59
1, 556723, Note_on_c, 0, 82, 74
1, 556755, Note_off_c, 0, 82, 57
1, 556758, Note_off_c, 0, 73, 42
1, 556800, Note_on_c, 0, 78, 53
1, 556817, Note_on_c, 0, 73, 21
1, 556821, Note_off_c, 0, 66, 54
1, 556827, Note_off_c, 0, 78, 64
1, 556844, Note_on_c, 0, 82, 72
1, 556873, Note_off_c, 0, 70, 53
1, 556882, Note_off_c, 0, 82, 58
1, 556911, Note_on_c, 0, 78, 60
1, 556959, Note_on_c, 0, 66, 52
1, 556960, Note_off_c, 0, 73, 42
1, 556961, Note_off_c, 0, 78, 58
1, 556971, Note_on_c, 0, 82, 58
1, 556995, Note_off_c, 0, 82, 64
1, 557022, Note_on_c, 0, 70, 49
1, 557074, Note_on_c, 0, 78, 57
1, 557076, Note_on_c, 0, 82, 64
1, 557088, Note_on_c, 0, 73, 62
1, 557105, Note_off_c, 0, 82, 62
1, 557109, Note_off_c, 0, 78, 61
1, 557109, Note_off_c, 0, 66, 61
1, 557112, Note_off_c, 0, 70, 61
1, 557118, Note_off_c, 0, 73, 65
1, 557121, Note_on_c, 0, 85, 66
1, 557162, Note_off_c, 0, 85, 58
1, 557216, Note_on_c, 0, 78, 39
1, 557222, Note_on_c, 0, 82, 46
1, 557238, Note_on_c, 0, 85, 70
1, 557246, Note_off_c, 0, 82, 57
1, 557262, Note_off_c, 0, 78, 44
1, 557291, Note_off_c, 0, 85, 63
1, 557327, Note_on_c, 0, 82, 57
1, 557351, Note_off_c, 0, 82, 63
1, 557367, Note_on_c, 0, 85, 62
1, 557370, Note_on_c, 0, 78, 12
1, 557403, Note_off_c, 0, 85, 60
1, 557430, Note_on_c, 0, 82, 62
1, 557486, Note_on_c, 0, 85, 65
1, 557487, Note_off_c, 0, 82, 61
1, 557498, Note_off_c, 0, 78, 44
1, 557516, Note_on_c, 0, 70, 52
1, 557516, Note_off_c, 0, 85, 65
1, 557544, Note_on_c, 0, 73, 49
1, 557600, Note_on_c, 0, 78, 61
1, 557613, Note_on_c, 0, 82, 44
1, 557626, Note_on_c, 0, 85, 48
1, 557636, Note_off_c, 0, 70, 57
1, 557640, Note_on_c, 0, 90, 68
1, 557646, Note_off_c, 0, 73, 54
1, 557646, Note_off_c, 0, 85, 61
1, 557647, Note_off_c, 0, 82, 50
1, 557648, Note_off_c, 0, 78, 55
1, 557687, Note_off_c, 0, 90, 60
1, 557738, Note_on_c, 0, 85, 37
1, 557752, Note_on_c, 0, 90, 69
1, 557759, Note_on_c, 0, 82, 39
1, 557765, Note_off_c, 0, 85, 56
1, 557804, Note_off_c, 0, 90, 63
1, 557805, Note_off_c, 0, 82, 43
1, 557873, Note_on_c, 0, 85, 33
1, 557881, Note_on_c, 0, 82, 27
1, 557881, Note_on_c, 0, 90, 67
1, 557905, Note_off_c, 0, 85, 52
1, 557934, Note_off_c, 0, 90, 61
1, 557976, Note_on_c, 0, 85, 47
1, 558017, Note_off_c, 0, 85, 62
1, 558018, Note_on_c, 0, 90, 64
1, 558025, Note_off_c, 0, 82, 45
1, 558055, Note_on_c, 0, 73, 53
1, 558079, Note_on_c, 0, 78, 50
1, 558084, Note_off_c, 0, 90, 64
1, 558156, Note_on_c, 0, 82, 52
1, 558164, Note_on_c, 0, 85, 48
1, 558210, Note_on_c, 0, 90, 54
1, 558214, Note_off_c, 0, 85, 56
1, 558250, Note_off_c, 0, 90, 62
1, 558251, Note_on_c, 0, 94, 63
1, 558305, Note_off_c, 0, 94, 63
1, 558344, Note_on_c, 0, 85, 46
1, 558376, Note_on_c, 0, 90, 34
1, 558382, Note_off_c, 0, 73, 38
1, 558387, Note_off_c, 0, 85, 53
1, 558388, Note_off_c, 0, 82, 37
1, 558391, Note_on_c, 0, 94, 64
1, 558413, Note_off_c, 0, 90, 50
1, 558416, Note_off_c, 0, 78, 36
1, 558442, Note_off_c, 0, 94, 63
1, 558492, Note_on_c, 0, 85, 51
1, 558563, Note_on_c, 0, 94, 67
1, 558679, Note_off_c, 0, 85, 35
1, 558689, Note_on_c, 0, 90, 34
1, 558728, Control_c, 0, 64, 116
1, 558734, Note_on_c, 0, 74, 40
1, 558736, Note_on_c, 0, 77, 39
1, 558742, Control_c, 0, 64, 108
1, 558744, Note_on_c, 0, 80, 42
1, 558757, Control_c, 0, 64, 102
1, 558772, Control_c, 0, 64, 97
1, 558795, Control_c, 0, 64, 91
1, 558808, Note_off_c, 0, 94, 42
1, 558810, Control_c, 0, 64, 83
1, 558814, Note_off_c, 0, 90, 38
1, 558824, Control_c, 0, 64, 75
1, 558839, Control_c, 0, 64, 65
1, 558854, Control_c, 0, 64, 23
1, 558855, Note_on_c, 0, 86, 43
1, 558868, Control_c, 0, 64, 0
1, 558914, Control_c, 0, 64, 19
1, 558929, Control_c, 0, 64, 52
1, 558939, Note_off_c, 0, 86, 54
1, 558943, Note_on_c, 0, 89, 47
1, 558944, Control_c, 0, 64, 62
1, 558958, Control_c, 0, 64, 68
1, 558974, Control_c, 0, 64, 73
1, 558989, Control_c, 0, 64, 81
1, 559004, Control_c, 0, 64, 87
1, 559019, Control_c, 0, 64, 94
1, 559033, Note_on_c, 0, 98, 58
1, 559034, Control_c, 0, 64, 100
1, 559048, Control_c, 0, 64, 108
1, 559063, Control_c, 0, 64, 121
1, 559071, Note_off_c, 0, 89, 35
1, 559078, Control_c, 0, 64, 127
1, 559103, Note_off_c, 0, 98, 63
1, 559172, Note_off_c, 0, 74, 45
1, 559172, Note_off_c, 0, 77, 43
1, 559175, Note_off_c, 0, 80, 42
1, 559186, Note_on_c, 0, 83, 42
1, 559252, Note_off_c, 0, 83, 57
1, 559298, Note_on_c, 0, 80, 39
1, 559303, Note_on_c, 0, 74, 38
1, 559303, Note_on_c, 0, 77, 41
1, 559358, Note_off_c, 0, 74, 58
1, 559365, Note_off_c, 0, 77, 55
1, 559375, Note_off_c, 0, 80, 51
1, 559389, Note_on_c, 0, 83, 49
1, 559440, Note_off_c, 0, 83, 58
1, 559508, Note_on_c, 0, 74, 12
1, 559513, Note_on_c, 0, 80, 13
1, 559516, Note_on_c, 0, 77, 24
1, 559552, Note_on_c, 0, 83, 56
1, 559565, Note_off_c, 0, 77, 50
1, 559567, Note_off_c, 0, 80, 42
1, 559571, Note_off_c, 0, 74, 45
1, 559606, Note_off_c, 0, 83, 60
1, 559643, Note_on_c, 0, 74, 25
1, 559650, Note_on_c, 0, 77, 30
1, 559652, Note_on_c, 0, 80, 37
1, 559681, Note_off_c, 0, 80, 55
1, 559684, Note_off_c, 0, 77, 54
1, 559685, Note_off_c, 0, 74, 50
1, 559701, Note_on_c, 0, 83, 57
1, 559753, Note_off_c, 0, 83, 60
1, 559780, Note_on_c, 0, 77, 49
1, 559783, Note_on_c, 0, 80, 40
1, 559800, Note_on_c, 0, 74, 40
1, 559813, Note_off_c, 0, 77, 62
1, 559819, Note_off_c, 0, 80, 47
1, 559827, Note_off_c, 0, 74, 57
1, 559833, Note_on_c, 0, 83, 56
1, 559893, Note_off_c, 0, 83, 63
1, 559920, Note_on_c, 0, 74, 51
1, 559921, Note_on_c, 0, 77, 41
1, 559937, Note_on_c, 0, 80, 30
1, 559951, Note_off_c, 0, 77, 57
1, 559960, Note_off_c, 0, 74, 64
1, 559969, Note_on_c, 0, 83, 53
1, 559969, Note_off_c, 0, 80, 51
1, 560019, Control_c, 0, 67, 118
1, 560027, Note_off_c, 0, 83, 61
1, 560034, Control_c, 0, 67, 103
1, 560049, Control_c, 0, 67, 84
1, 560056, Note_on_c, 0, 77, 43
1, 560063, Control_c, 0, 67, 62
1, 560078, Control_c, 0, 67, 42
1, 560080, Note_on_c, 0, 80, 29
1, 560093, Control_c, 0, 67, 22
1, 560102, Note_off_c, 0, 77, 51
1, 560105, Note_on_c, 0, 59, 62
1, 560108, Control_c, 0, 67, 0
1, 560118, Note_off_c, 0, 80, 49
1, 560125, Note_on_c, 0, 83, 60
1, 560125, Poly_aftertouch_c, 0, 74, 127
1, 560182, Note_off_c, 0, 83, 60
1, 560184, Poly_aftertouch_c, 0, 74, 0
1, 560209, Note_on_c, 0, 74, 23
1, 560232, Note_on_c, 0, 80, 42
1, 560249, Note_on_c, 0, 77, 18
1, 560269, Note_off_c, 0, 80, 47
1, 560271, Note_off_c, 0, 74, 60
1, 560278, Note_on_c, 0, 83, 62
1, 560302, Note_off_c, 0, 77, 42
1, 560345, Note_off_c, 0, 83, 63
1, 560379, Note_on_c, 0, 74, 39
1, 560394, Note_on_c, 0, 80, 22
1, 560394, Note_on_c, 0, 77, 19
1, 560417, Note_off_c, 0, 74, 60
1, 560434, Note_off_c, 0, 80, 50
1, 560436, Note_on_c, 0, 83, 58
1, 560440, Note_off_c, 0, 77, 52
1, 560495, Note_off_c, 0, 83, 62
1, 560508, Note_on_c, 0, 62, 77
1, 560543, Note_on_c, 0, 80, 40
1, 560546, Note_on_c, 0, 74, 35
1, 560546, Note_on_c, 0, 77, 26
1, 560576, Note_off_c, 0, 80, 51
1, 560580, Note_off_c, 0, 74, 53
1, 560585, Note_off_c, 0, 77, 52
1, 560596, Note_on_c, 0, 83, 55
1, 560608, Note_off_c, 0, 59, 38
1, 560647, Note_off_c, 0, 83, 59
1, 560681, Note_on_c, 0, 77, 47
1, 560684, Note_on_c, 0, 80, 39
1, 560692, Note_on_c, 0, 74, 39
1, 560719, Note_off_c, 0, 77, 61
1, 560728, Note_off_c, 0, 74, 51
1, 560734, Note_off_c, 0, 80, 43
1, 560742, Note_on_c, 0, 83, 58
1, 560817, Note_off_c, 0, 83, 57
1, 560858, Note_on_c, 0, 77, 35
1, 560862, Note_on_c, 0, 74, 33
1, 560866, Note_on_c, 0, 80, 39
1, 560916, Note_off_c, 0, 77, 57
1, 560930, Note_off_c, 0, 74, 44
1, 560938, Note_on_c, 0, 65, 73
1, 560939, Note_on_c, 0, 83, 58
1, 560959, Note_off_c, 0, 80, 34
1, 561010, Note_off_c, 0, 83, 58
1, 561056, Note_on_c, 0, 77, 43
1, 561082, Note_off_c, 0, 62, 39
1, 561088, Note_on_c, 0, 74, 26
1, 561130, Note_off_c, 0, 77, 52
1, 561136, Note_on_c, 0, 83, 57
1, 561196, Note_off_c, 0, 74, 0
1, 561232, Poly_aftertouch_c, 0, 74, 127
1, 561234, Note_on_c, 0, 74, 6
1, 561264, Note_off_c, 0, 83, 37
1, 561272, Note_on_c, 0, 77, 47
1, 561360, Note_off_c, 0, 74, 53
1, 561373, Note_on_c, 0, 83, 55
1, 561417, Note_off_c, 0, 77, 37
1, 561517, Note_off_c, 0, 83, 52
1, 561526, Note_on_c, 0, 77, 48
1, 561529, Note_on_c, 0, 73, 44
1, 561575, Control_c, 0, 64, 118
1, 561590, Control_c, 0, 64, 109
1, 561605, Control_c, 0, 64, 103
1, 561620, Control_c, 0, 64, 98
1, 561634, Control_c, 0, 64, 93
1, 561649, Control_c, 0, 64, 88
1, 561664, Control_c, 0, 64, 82
1, 561679, Control_c, 0, 64, 75
1, 561693, Control_c, 0, 64, 67
1, 561705, Note_on_c, 0, 70, 58
1, 561708, Control_c, 0, 64, 53
1, 561723, Control_c, 0, 64, 0
1, 561798, Note_off_c, 0, 65, 45
1, 561805, Control_c, 0, 64, 11
1, 561820, Control_c, 0, 64, 43
1, 561835, Control_c, 0, 64, 55
1, 561849, Control_c, 0, 64, 62
1, 561864, Control_c, 0, 64, 65
1, 561880, Control_c, 0, 64, 68
1, 561894, Control_c, 0, 64, 72
1, 561909, Control_c, 0, 64, 76
1, 561924, Note_off_c, 0, 73, 50
1, 561924, Control_c, 0, 64, 80
1, 561929, Note_off_c, 0, 77, 38
1, 561936, Note_on_c, 0, 83, 40
1, 561939, Control_c, 0, 64, 83
1, 561954, Control_c, 0, 64, 86
1, 561968, Control_c, 0, 64, 89
1, 561983, Control_c, 0, 64, 91
1, 561998, Control_c, 0, 64, 93
1, 562013, Control_c, 0, 64, 95
1, 562028, Control_c, 0, 64, 97
1, 562066, Note_off_c, 0, 83, 43
1, 562067, Note_on_c, 0, 77, 42
1, 562072, Note_on_c, 0, 73, 41
1, 562160, Note_off_c, 0, 73, 37
1, 562160, Note_off_c, 0, 77, 36
1, 562191, Note_on_c, 0, 83, 39
1, 562284, Note_off_c, 0, 83, 36
1, 562302, Note_on_c, 0, 73, 37
1, 562306, Note_on_c, 0, 77, 37
1, 562310, Control_c, 0, 64, 96
1, 562340, Control_c, 0, 67, 8
1, 562355, Control_c, 0, 64, 96
1, 562355, Control_c, 0, 67, 16
1, 562370, Control_c, 0, 67, 29
1, 562384, Control_c, 0, 67, 45
1, 562399, Control_c, 0, 64, 95
1, 562399, Control_c, 0, 67, 57
1, 562414, Control_c, 0, 67, 67
1, 562429, Note_on_c, 0, 83, 36
1, 562429, Control_c, 0, 64, 95
1, 562429, Control_c, 0, 67, 77
1, 562433, Note_off_c, 0, 77, 36
1, 562444, Control_c, 0, 67, 86
1, 562450, Note_off_c, 0, 73, 43
1, 562458, Control_c, 0, 64, 94
1, 562458, Control_c, 0, 67, 94
1, 562473, Control_c, 0, 67, 101
1, 562488, Control_c, 0, 64, 94
1, 562488, Control_c, 0, 67, 107
1, 562503, Control_c, 0, 67, 112
1, 562517, Control_c, 0, 64, 93
1, 562517, Control_c, 0, 67, 116
1, 562540, Control_c, 0, 67, 119
1, 562552, Note_off_c, 0, 83, 43
1, 562555, Control_c, 0, 64, 93
1, 562555, Control_c, 0, 67, 122
1, 562570, Control_c, 0, 64, 92
1, 562570, Control_c, 0, 67, 124
1, 562585, Control_c, 0, 67, 125
1, 562585, Note_on_c, 0, 73, 34
1, 562592, Note_on_c, 0, 77, 29
1, 562599, Control_c, 0, 64, 92
1, 562599, Control_c, 0, 67, 126
1, 562614, Control_c, 0, 64, 91
1, 562629, Control_c, 0, 64, 90
1, 562644, Control_c, 0, 64, 89
1, 562659, Control_c, 0, 64, 88
1, 562659, Control_c, 0, 67, 126
1, 562659, Note_off_c, 0, 77, 0
1, 562673, Control_c, 0, 64, 87
1, 562688, Control_c, 0, 64, 86
1, 562696, Poly_aftertouch_c, 0, 77, 127
1, 562703, Control_c, 0, 64, 85
1, 562717, Control_c, 0, 64, 84
1, 562732, Control_c, 0, 64, 84
1, 562747, Note_on_c, 0, 83, 33
1, 562747, Control_c, 0, 64, 83
1, 562762, Control_c, 0, 64, 82
1, 562777, Control_c, 0, 64, 81
1, 562791, Control_c, 0, 64, 79
1, 562806, Control_c, 0, 64, 78
1, 562818, Poly_aftertouch_c, 0, 77, 0
1, 562821, Control_c, 0, 64, 77
1, 562836, Control_c, 0, 64, 76
1, 562850, Control_c, 0, 64, 74
1, 562865, Control_c, 0, 64, 73
1, 562868, Note_off_c, 0, 83, 41
1, 562880, Control_c, 0, 64, 71
1, 562895, Control_c, 0, 64, 69
1, 562896, Note_off_c, 0, 73, 24
1, 562910, Control_c, 0, 64, 67
1, 562925, Control_c, 0, 64, 66
1, 562939, Control_c, 0, 64, 65
1, 562954, Control_c, 0, 67, 127
1, 562970, Control_c, 0, 64, 65
1, 562970, Control_c, 0, 67, 127
1, 562985, Control_c, 0, 64, 64
1, 563000, Control_c, 0, 64, 64
1, 563014, Control_c, 0, 64, 63
1, 563029, Control_c, 0, 64, 63
1, 563044, Control_c, 0, 64, 62
1, 563059, Control_c, 0, 64, 61
1, 563074, Control_c, 0, 64, 60
1, 563088, Control_c, 0, 64, 59
1, 563103, Control_c, 0, 64, 58
1, 563118, Control_c, 0, 64, 56
1, 563133, Control_c, 0, 64, 55
1, 563148, Control_c, 0, 64, 53
1, 563163, Control_c, 0, 64, 51
1, 563178, Control_c, 0, 64, 49
1, 563193, Control_c, 0, 64, 49
1, 563237, Control_c, 0, 64, 50
1, 563252, Control_c, 0, 64, 52
1, 563266, Control_c, 0, 64, 53
1, 563496, Control_c, 0, 64, 53
1, 563551, Note_on_c, 0, 68, 37
1, 563654, Note_off_c, 0, 70, 34
1, 563718, Control_c, 0, 64, 53
1, 563728, Note_off_c, 0, 68, 50
1, 563733, Control_c, 0, 64, 54
1, 563747, Control_c, 0, 64, 55
1, 563755, Note_on_c, 0, 66, 38
1, 563763, Control_c, 0, 64, 56
1, 563777, Note_on_c, 0, 78, 37
1, 563778, Control_c, 0, 64, 57
1, 563779, Note_on_c, 0, 73, 30
1, 563793, Control_c, 0, 64, 59
1, 563808, Control_c, 0, 64, 61
1, 563823, Control_c, 0, 64, 63
1, 563837, Control_c, 0, 64, 64
1, 563852, Control_c, 0, 64, 65
1, 563867, Control_c, 0, 64, 67
1, 563881, Control_c, 0, 64, 69
1, 563896, Control_c, 0, 64, 72
1, 563911, Control_c, 0, 64, 76
1, 563926, Control_c, 0, 64, 82
1, 563941, Control_c, 0, 64, 87
1, 563956, Control_c, 0, 64, 91
1, 563971, Control_c, 0, 64, 96
1, 563980, Note_on_c, 0, 82, 40
1, 563980, Note_off_c, 0, 73, 46
1, 563986, Control_c, 0, 64, 102
1, 563992, Note_off_c, 0, 78, 44
1, 564001, Control_c, 0, 64, 110
1, 564016, Control_c, 0, 64, 127
1, 564054, Note_off_c, 0, 82, 41
1, 564101, Note_on_c, 0, 73, 49
1, 564114, Note_on_c, 0, 78, 45
1, 564147, Note_off_c, 0, 73, 58
1, 564157, Note_off_c, 0, 78, 54
1, 564174, Note_on_c, 0, 82, 46
1, 564194, Note_off_c, 0, 66, 35
1, 564231, Note_off_c, 0, 82, 54
1, 564260, Note_on_c, 0, 73, 45
1, 564275, Note_on_c, 0, 78, 45
1, 564308, Note_off_c, 0, 73, 47
1, 564311, Note_off_c, 0, 78, 58
1, 564339, Note_on_c, 0, 82, 53
1, 564383, Note_off_c, 0, 82, 57
1, 564418, Note_on_c, 0, 78, 51
1, 564420, Note_on_c, 0, 73, 48
1, 564454, Note_off_c, 0, 78, 61
1, 564459, Note_off_c, 0, 73, 64
1, 564531, Poly_aftertouch_c, 0, 82, 127
1, 564569, Poly_aftertouch_c, 0, 82, 0
1, 564575, Note_on_c, 0, 73, 46
1, 564583, Note_on_c, 0, 70, 43
1, 564618, Note_off_c, 0, 70, 61
1, 564621, Note_off_c, 0, 73, 60
1, 564650, Note_on_c, 0, 78, 54
1, 564689, Note_off_c, 0, 78, 59
1, 564719, Note_on_c, 0, 70, 43
1, 564743, Note_on_c, 0, 73, 42
1, 564756, Note_off_c, 0, 70, 55
1, 564773, Note_off_c, 0, 73, 55
1, 564797, Note_on_c, 0, 78, 56
1, 564834, Note_off_c, 0, 78, 57
1, 564871, Note_on_c, 0, 73, 58
1, 564874, Note_on_c, 0, 70, 31
1, 564907, Note_off_c, 0, 73, 62
1, 564908, Note_off_c, 0, 70, 55
1, 564926, Note_on_c, 0, 78, 55
1, 564970, Note_off_c, 0, 78, 58
1, 564998, Note_on_c, 0, 70, 51
1, 565006, Note_on_c, 0, 73, 54
1, 565037, Note_off_c, 0, 70, 63
1, 565037, Note_off_c, 0, 73, 65
1, 565069, Note_on_c, 0, 78, 44
1, 565096, Note_off_c, 0, 78, 57
1, 565146, Note_on_c, 0, 66, 57
1, 565169, Note_on_c, 0, 70, 37
1, 565192, Note_off_c, 0, 66, 56
1, 565200, Note_off_c, 0, 70, 54
1, 565218, Note_on_c, 0, 73, 63
1, 565253, Note_off_c, 0, 73, 62
1, 565275, Note_on_c, 0, 66, 41
1, 565318, Note_on_c, 0, 70, 22
1, 565342, Note_on_c, 0, 73, 65
1, 565375, Note_off_c, 0, 66, 0
1, 565375, Note_on_c, 0, 66, 9
1, 565386, Note_off_c, 0, 73, 56
1, 565400, Note_off_c, 0, 70, 0
1, 565417, Note_on_c, 0, 70, 31
1, 565464, Note_off_c, 0, 70, 56
1, 565482, Note_on_c, 0, 73, 67
1, 565527, Note_off_c, 0, 66, 38
1, 565548, Note_off_c, 0, 73, 62
1, 565624, Note_on_c, 0, 64, 45
1, 565646, Poly_aftertouch_c, 0, 70, 127
1, 565673, Note_on_c, 0, 73, 59
1, 565728, Note_on_c, 0, 82, 53
1, 565728, Control_c, 0, 64, 105
1, 565742, Control_c, 0, 64, 88
1, 565753, Note_on_c, 0, 78, 8
1, 565757, Control_c, 0, 64, 78
1, 565772, Note_on_c, 0, 90, 64
1, 565772, Control_c, 0, 64, 72
1, 565777, Note_off_c, 0, 82, 61
1, 565791, Note_off_c, 0, 78, 45
1, 565802, Control_c, 0, 64, 76
1, 565816, Control_c, 0, 64, 82
1, 565831, Note_off_c, 0, 90, 62
1, 565831, Control_c, 0, 64, 91
1, 565846, Control_c, 0, 64, 102
1, 565861, Control_c, 0, 64, 122
1, 565864, Note_on_c, 0, 82, 49
1, 565876, Control_c, 0, 64, 127
1, 565889, Note_on_c, 0, 78, 11
1, 565892, Note_on_c, 0, 90, 71
1, 565902, Poly_aftertouch_c, 0, 70, 0
1, 565904, Note_off_c, 0, 82, 50
1, 565947, Note_off_c, 0, 78, 44
1, 565955, Note_off_c, 0, 90, 63
1, 565979, Note_off_c, 0, 64, 45
1, 565992, Note_on_c, 0, 82, 56
1, 566007, Note_on_c, 0, 78, 15
1, 566010, Note_on_c, 0, 90, 72
1, 566025, Note_off_c, 0, 82, 65
1, 566026, Note_off_c, 0, 73, 51
1, 566056, Note_off_c, 0, 78, 49
1, 566075, Note_off_c, 0, 90, 64
1, 566103, Note_on_c, 0, 63, 57
1, 566129, Note_on_c, 0, 82, 51
1, 566158, Note_on_c, 0, 90, 68
1, 566181, Note_off_c, 0, 82, 56
1, 566192, Poly_aftertouch_c, 0, 78, 0
1, 566195, Note_on_c, 0, 69, 50
1, 566201, Note_off_c, 0, 63, 60
1, 566218, Note_on_c, 0, 72, 41
1, 566247, Control_c, 0, 64, 109
1, 566262, Control_c, 0, 64, 96
1, 566284, Control_c, 0, 64, 84
1, 566296, Note_off_c, 0, 90, 61
1, 566299, Control_c, 0, 64, 71
1, 566311, Note_on_c, 0, 78, 56
1, 566314, Control_c, 0, 64, 47
1, 566329, Control_c, 0, 64, 0
1, 566344, Control_c, 0, 64, 46
1, 566346, Note_on_c, 0, 81, 42
1, 566349, Note_on_c, 0, 84, 44
1, 566358, Control_c, 0, 64, 63
1, 566373, Control_c, 0, 64, 68
1, 566379, Note_off_c, 0, 81, 54
1, 566388, Control_c, 0, 64, 77
1, 566403, Control_c, 0, 64, 89
1, 566409, Note_off_c, 0, 84, 52
1, 566418, Control_c, 0, 64, 106
1, 566418, Note_on_c, 0, 93, 56
1, 566433, Control_c, 0, 64, 127
1, 566463, Note_off_c, 0, 93, 50
1, 566491, Note_on_c, 0, 81, 50
1, 566499, Note_off_c, 0, 78, 45
1, 566510, Note_on_c, 0, 84, 43
1, 566531, Note_off_c, 0, 81, 51
1, 566551, Note_on_c, 0, 93, 71
1, 566552, Note_off_c, 0, 84, 53
1, 566573, Note_off_c, 0, 69, 35
1, 566591, Note_off_c, 0, 72, 37
1, 566608, Note_off_c, 0, 93, 61
1, 566630, Note_on_c, 0, 81, 54
1, 566650, Note_on_c, 0, 84, 42
1, 566666, Note_off_c, 0, 81, 52
1, 566676, Note_on_c, 0, 93, 68
1, 566683, Note_off_c, 0, 84, 53
1, 566734, Note_off_c, 0, 93, 58
1, 566761, Note_on_c, 0, 81, 51
1, 566792, Note_on_c, 0, 84, 32
1, 566797, Note_off_c, 0, 81, 49
1, 566807, Note_on_c, 0, 93, 69
1, 566823, Note_off_c, 0, 84, 49
1, 566862, Note_off_c, 0, 93, 61
1, 566892, Note_on_c, 0, 81, 53
1, 566918, Note_on_c, 0, 84, 43
1, 566926, Note_off_c, 0, 81, 49
1, 566937, Note_on_c, 0, 93, 71
1, 566947, Note_off_c, 0, 84, 54
1, 566988, Note_off_c, 0, 93, 61
1, 567035, Note_on_c, 0, 81, 47
1, 567050, Note_on_c, 0, 84, 49
1, 567066, Note_off_c, 0, 81, 49
1, 567077, Note_on_c, 0, 93, 70
1, 567082, Note_off_c, 0, 84, 56
1, 567131, Note_off_c, 0, 93, 62
1, 567172, Note_on_c, 0, 81, 43
1, 567178, Note_on_c, 0, 84, 50
1, 567203, Note_off_c, 0, 81, 51
1, 567207, Note_on_c, 0, 93, 70
1, 567218, Note_off_c, 0, 84, 53
1, 567260, Note_off_c, 0, 93, 63
1, 567309, Note_on_c, 0, 81, 33
1, 567332, Note_on_c, 0, 84, 41
1, 567336, Note_on_c, 0, 93, 58
1, 567348, Note_off_c, 0, 81, 51
1, 567359, Note_off_c, 0, 84, 58
1, 567368, Note_off_c, 0, 93, 48
1, 567396, Note_on_c, 0, 63, 45
1, 567432, Control_c, 0, 64, 112
1, 567436, Note_on_c, 0, 69, 41
1, 567445, Note_on_c, 0, 79, 52
1, 567447, Note_on_c, 0, 71, 58
1, 567447, Control_c, 0, 64, 87
1, 567458, Note_on_c, 0, 83, 46
1, 567462, Control_c, 0, 64, 71
1, 567469, Note_off_c, 0, 79, 55
1, 567477, Control_c, 0, 64, 50
1, 567492, Control_c, 0, 64, 38
1, 567494, Note_on_c, 0, 91, 78
1, 567506, Control_c, 0, 64, 61
1, 567509, Note_off_c, 0, 83, 60
1, 567521, Control_c, 0, 64, 67
1, 567536, Control_c, 0, 64, 76
1, 567539, Note_off_c, 0, 91, 60
1, 567551, Control_c, 0, 64, 90
1, 567566, Control_c, 0, 64, 109
1, 567573, Note_on_c, 0, 79, 49
1, 567581, Control_c, 0, 64, 127
1, 567597, Note_on_c, 0, 83, 41
1, 567610, Note_off_c, 0, 79, 47
1, 567616, Note_on_c, 0, 91, 77
1, 567631, Note_off_c, 0, 83, 64
1, 567667, Note_off_c, 0, 91, 63
1, 567706, Note_on_c, 0, 79, 56
1, 567735, Note_on_c, 0, 83, 55
1, 567744, Note_off_c, 0, 79, 49
1, 567751, Note_on_c, 0, 91, 76
1, 567760, Note_off_c, 0, 83, 59
1, 567784, Note_off_c, 0, 63, 41
1, 567813, Note_off_c, 0, 91, 58
1, 567815, Note_off_c, 0, 69, 39
1, 567849, Note_off_c, 0, 71, 36
1, 567858, Note_on_c, 0, 79, 53
1, 567870, Note_on_c, 0, 83, 48
1, 567894, Note_on_c, 0, 91, 74
1, 567902, Note_off_c, 0, 79, 52
1, 567911, Note_off_c, 0, 83, 62
1, 567929, Note_on_c, 0, 63, 53
1, 567950, Note_off_c, 0, 91, 61
1, 567951, Note_on_c, 0, 69, 46
1, 567989, Note_on_c, 0, 72, 65
1, 567989, Control_c, 0, 64, 94
1, 568001, Note_on_c, 0, 78, 68
1, 568003, Note_on_c, 0, 84, 56
1, 568004, Control_c, 0, 64, 65
1, 568019, Control_c, 0, 64, 0
1, 568028, Note_off_c, 0, 78, 66
1, 568049, Control_c, 0, 64, 67
1, 568052, Note_on_c, 0, 90, 69
1, 568063, Control_c, 0, 64, 92
1, 568066, Note_off_c, 0, 84, 62
1, 568078, Control_c, 0, 64, 127
1, 568105, Note_off_c, 0, 90, 64
1, 568122, Note_on_c, 0, 78, 65
1, 568144, Note_on_c, 0, 84, 37
1, 568167, Note_off_c, 0, 78, 58
1, 568173, Note_on_c, 0, 90, 74
1, 568192, Note_off_c, 0, 84, 63
1, 568231, Note_off_c, 0, 90, 64
1, 568262, Note_on_c, 0, 78, 54
1, 568270, Note_off_c, 0, 63, 38
1, 568276, Note_on_c, 0, 84, 45
1, 568287, Note_off_c, 0, 72, 37
1, 568292, Note_on_c, 0, 90, 73
1, 568292, Note_off_c, 0, 78, 56
1, 568311, Note_off_c, 0, 84, 65
1, 568348, Note_off_c, 0, 69, 33
1, 568359, Note_off_c, 0, 90, 64
1, 568383, Note_on_c, 0, 78, 56
1, 568403, Note_on_c, 0, 84, 52
1, 568417, Note_on_c, 0, 90, 70
1, 568434, Note_off_c, 0, 78, 56
1, 568439, Note_off_c, 0, 84, 62
1, 568448, Note_on_c, 0, 64, 61
1, 568474, Note_off_c, 0, 90, 65
1, 568485, Note_on_c, 0, 69, 45
1, 568493, Control_c, 0, 64, 77
1, 568508, Control_c, 0, 64, 0
1, 568534, Note_on_c, 0, 73, 69
1, 568535, Note_on_c, 0, 76, 61
1, 568544, Control_c, 0, 64, 14
1, 568549, Note_on_c, 0, 85, 57
1, 568560, Control_c, 0, 64, 65
1, 568563, Note_off_c, 0, 76, 56
1, 568575, Control_c, 0, 64, 77
1, 568590, Control_c, 0, 64, 99
1, 568595, Note_off_c, 0, 85, 61
1, 568599, Note_on_c, 0, 88, 68
1, 568605, Control_c, 0, 64, 127
1, 568615, Note_off_c, 0, 64, 37
1, 568630, Note_off_c, 0, 88, 60
1, 568675, Note_on_c, 0, 76, 50
1, 568676, Note_off_c, 0, 69, 55
1, 568685, Note_on_c, 0, 85, 52
1, 568708, Note_off_c, 0, 76, 50
1, 568719, Note_on_c, 0, 88, 76
1, 568722, Note_off_c, 0, 85, 61
1, 568737, Note_off_c, 0, 73, 55
1, 568767, Note_off_c, 0, 88, 62
1, 568803, Note_on_c, 0, 76, 54
1, 568803, Note_on_c, 0, 85, 62
1, 568842, Note_on_c, 0, 88, 72
1, 568842, Note_off_c, 0, 85, 61
1, 568848, Note_off_c, 0, 76, 49
1, 568890, Note_off_c, 0, 88, 64
1, 568942, Note_on_c, 0, 85, 59
1, 568958, Note_on_c, 0, 88, 65
1, 568961, Note_on_c, 0, 69, 57
1, 568963, Note_off_c, 0, 85, 66
1, 568973, Note_on_c, 0, 73, 62
1, 568976, Poly_aftertouch_c, 0, 76, 127
1, 568984, Note_off_c, 0, 88, 66
1, 569004, Poly_aftertouch_c, 0, 76, 0
1, 569041, Note_on_c, 0, 76, 60
1, 569050, Note_on_c, 0, 85, 70
1, 569056, Note_on_c, 0, 81, 64
1, 569079, Note_off_c, 0, 81, 68
1, 569101, Note_off_c, 0, 69, 53
1, 569104, Note_on_c, 0, 93, 81
1, 569104, Note_off_c, 0, 85, 63
1, 569121, Note_off_c, 0, 73, 54
1, 569148, Note_off_c, 0, 93, 64
1, 569149, Note_off_c, 0, 76, 44
1, 569176, Note_on_c, 0, 81, 63
1, 569188, Note_on_c, 0, 85, 63
1, 569211, Note_off_c, 0, 81, 55
1, 569220, Note_on_c, 0, 93, 80
1, 569221, Note_off_c, 0, 85, 63
1, 569271, Note_off_c, 0, 93, 63
1, 569321, Note_on_c, 0, 85, 56
1, 569323, Note_on_c, 0, 81, 51
1, 569345, Note_off_c, 0, 81, 56
1, 569351, Note_off_c, 0, 85, 64
1, 569353, Note_on_c, 0, 93, 77
1, 569401, Note_off_c, 0, 93, 63
1, 569427, Note_on_c, 0, 81, 61
1, 569438, Note_on_c, 0, 85, 68
1, 569453, Note_off_c, 0, 81, 67
1, 569466, Note_on_c, 0, 93, 66
1, 569471, Note_on_c, 0, 73, 57
1, 569485, Note_off_c, 0, 85, 61
1, 569493, Note_on_c, 0, 76, 62
1, 569493, Note_off_c, 0, 93, 67
1, 569542, Note_on_c, 0, 81, 59
1, 569578, Note_on_c, 0, 85, 70
1, 569581, Note_on_c, 0, 88, 74
1, 569598, Note_off_c, 0, 85, 65
1, 569623, Note_on_c, 0, 97, 79
1, 569628, Note_off_c, 0, 88, 65
1, 569655, Poly_aftertouch_c, 0, 79, 0
1, 569675, Note_off_c, 0, 97, 65
1, 569676, Note_off_c, 0, 73, 61
1, 569689, Note_off_c, 0, 76, 38
1, 569692, Note_on_c, 0, 85, 64
1, 569715, Note_on_c, 0, 88, 53
1, 569727, Note_off_c, 0, 85, 62
1, 569742, Note_on_c, 0, 97, 81
1, 569751, Note_off_c, 0, 88, 49
1, 569768, Note_off_c, 0, 81, 55
1, 569802, Note_off_c, 0, 97, 64
1, 569822, Note_on_c, 0, 88, 55
1, 569860, Note_on_c, 0, 97, 79
1, 569878, Note_off_c, 0, 88, 64
1, 569888, Poly_aftertouch_c, 0, 85, 127
1, 569914, Poly_aftertouch_c, 0, 85, 0
1, 569930, Note_off_c, 0, 97, 65
1, 569972, Note_on_c, 0, 88, 51
1, 569983, Note_on_c, 0, 85, 19
1, 569996, Note_on_c, 0, 97, 72
1, 570004, Note_on_c, 0, 76, 58
1, 570006, Note_off_c, 0, 88, 66
1, 570031, Note_off_c, 0, 85, 45
1, 570044, Note_on_c, 0, 81, 53
1, 570069, Note_off_c, 0, 97, 65
1, 570115, Note_on_c, 0, 85, 63
1, 570138, Note_on_c, 0, 88, 68
1, 570201, Note_on_c, 0, 93, 55
1, 570204, Note_off_c, 0, 88, 63
1, 570239, Note_on_c, 0, 100, 73
1, 570255, Note_off_c, 0, 93, 63
1, 570275, Note_off_c, 0, 85, 51
1, 570299, Note_off_c, 0, 100, 63
1, 570305, Note_off_c, 0, 81, 48
1, 570322, Note_on_c, 0, 88, 73
1, 570341, Note_off_c, 0, 76, 58
1, 570363, Note_off_c, 0, 88, 62
1, 570371, Note_on_c, 0, 93, 61
1, 570387, Note_on_c, 0, 100, 74
1, 570406, Note_off_c, 0, 93, 58
1, 570435, Note_off_c, 0, 100, 63
1, 570469, Note_on_c, 0, 88, 68
1, 570519, Note_on_c, 0, 100, 69
1, 570531, Note_off_c, 0, 88, 59
1, 570550, Note_on_c, 0, 93, 44
1, 570573, Note_off_c, 0, 100, 62
1, 570601, Note_off_c, 0, 93, 45
1, 570612, Note_on_c, 0, 88, 47
1, 570678, Note_on_c, 0, 100, 46
1, 570718, Note_on_c, 0, 93, 55
1, 570730, Note_off_c, 0, 88, 37
1, 570791, Control_c, 0, 64, 117
1, 570793, Note_on_c, 0, 74, 38
1, 570802, Note_on_c, 0, 77, 37
1, 570805, Control_c, 0, 64, 107
1, 570820, Control_c, 0, 64, 99
1, 570835, Control_c, 0, 64, 90
1, 570839, Note_off_c, 0, 100, 53
1, 570840, Note_on_c, 0, 80, 44
1, 570849, Control_c, 0, 64, 80
1, 570851, Note_off_c, 0, 93, 61
1, 570863, Control_c, 0, 64, 69
1, 570878, Control_c, 0, 64, 0
1, 570889, Note_on_c, 0, 89, 56
1, 570937, Control_c, 0, 64, 47
1, 570953, Control_c, 0, 64, 63
1, 570968, Control_c, 0, 64, 68
1, 570983, Control_c, 0, 64, 78
1, 570986, Note_off_c, 0, 89, 51
1, 570987, Note_on_c, 0, 92, 62
1, 570998, Control_c, 0, 64, 90
1, 571013, Control_c, 0, 64, 106
1, 571027, Control_c, 0, 64, 127
1, 571081, Note_off_c, 0, 92, 64
1, 571101, Note_on_c, 0, 101, 65
1, 571149, Note_off_c, 0, 101, 63
1, 571228, Note_off_c, 0, 80, 40
1, 571232, Note_off_c, 0, 77, 43
1, 571241, Note_off_c, 0, 74, 43
1, 571250, Note_on_c, 0, 83, 47
1, 571343, Note_off_c, 0, 83, 39
1, 571387, Note_on_c, 0, 77, 36
1, 571390, Note_on_c, 0, 74, 32
1, 571397, Note_on_c, 0, 80, 34
1, 571447, Note_off_c, 0, 77, 57
1, 571455, Note_off_c, 0, 74, 55
1, 571460, Note_off_c, 0, 80, 41
1, 571477, Note_on_c, 0, 83, 49
1, 571554, Note_off_c, 0, 83, 60
1, 571589, Note_on_c, 0, 80, 38
1, 571596, Note_on_c, 0, 74, 40
1, 571596, Note_on_c, 0, 77, 33
1, 571626, Note_off_c, 0, 74, 56
1, 571630, Note_off_c, 0, 80, 46
1, 571635, Note_off_c, 0, 77, 52
1, 571655, Note_on_c, 0, 83, 59
1, 571703, Note_off_c, 0, 83, 60
1, 571726, Note_on_c, 0, 74, 47
1, 571733, Note_on_c, 0, 77, 48
1, 571738, Note_on_c, 0, 80, 40
1, 571762, Note_off_c, 0, 74, 63
1, 571767, Note_off_c, 0, 77, 62
1, 571770, Note_off_c, 0, 80, 52
1, 571790, Note_on_c, 0, 83, 61
1, 571843, Note_off_c, 0, 83, 62
1, 571860, Note_on_c, 0, 74, 47
1, 571863, Note_on_c, 0, 77, 49
1, 571868, Note_on_c, 0, 80, 45
1, 571887, Note_off_c, 0, 74, 58
1, 571891, Note_off_c, 0, 77, 61
1, 571897, Note_off_c, 0, 80, 54
1, 571910, Note_on_c, 0, 83, 56
1, 571957, Note_off_c, 0, 83, 61
1, 571972, Note_on_c, 0, 74, 55
1, 571984, Note_on_c, 0, 77, 50
1, 572006, Note_on_c, 0, 80, 29
1, 572007, Note_off_c, 0, 74, 64
1, 572010, Note_off_c, 0, 77, 59
1, 572028, Note_on_c, 0, 83, 60
1, 572040, Note_off_c, 0, 80, 48
1, 572081, Note_off_c, 0, 83, 62
1, 572103, Note_on_c, 0, 77, 51
1, 572109, Note_on_c, 0, 74, 31
1, 572135, Note_off_c, 0, 77, 62
1, 572140, Note_off_c, 0, 74, 54
1, 572150, Note_on_c, 0, 83, 56
1, 572198, Poly_aftertouch_c, 0, 80, 0
1, 572207, Note_off_c, 0, 83, 62
1, 572245, Note_on_c, 0, 74, 41
1, 572251, Control_c, 0, 67, 125
1, 572252, Note_on_c, 0, 80, 15
1, 572255, Note_on_c, 0, 77, 12
1, 572273, Control_c, 0, 67, 118
1, 572280, Note_off_c, 0, 74, 56
1, 572288, Control_c, 0, 67, 110
1, 572289, Note_on_c, 0, 83, 59
1, 572299, Note_off_c, 0, 80, 51
1, 572302, Control_c, 0, 67, 99
1, 572305, Note_off_c, 0, 77, 55
1, 572317, Control_c, 0, 67, 85
1, 572332, Control_c, 0, 67, 71
1, 572347, Control_c, 0, 67, 57
1, 572354, Note_off_c, 0, 83, 62
1, 572362, Control_c, 0, 67, 45
1, 572371, Note_on_c, 0, 74, 48
1, 572377, Control_c, 0, 67, 33
1, 572392, Control_c, 0, 67, 23
1, 572407, Control_c, 0, 67, 14
1, 572421, Control_c, 0, 67, 0
1, 572422, Note_on_c, 0, 80, 31
1, 572424, Note_on_c, 0, 77, 38
1, 572441, Note_on_c, 0, 62, 57
1, 572460, Note_off_c, 0, 77, 52
1, 572469, Note_on_c, 0, 83, 62
1, 572472, Note_off_c, 0, 80, 45
1, 572500, Note_off_c, 0, 74, 36
1, 572550, Note_off_c, 0, 83, 56
1, 572583, Note_on_c, 0, 74, 54
1, 572586, Note_on_c, 0, 77, 29
1, 572589, Note_on_c, 0, 80, 41
1, 572629, Note_off_c, 0, 74, 60
1, 572633, Note_off_c, 0, 80, 46
1, 572635, Note_off_c, 0, 77, 47
1, 572646, Note_on_c, 0, 83, 64
1, 572717, Note_off_c, 0, 83, 60
1, 572740, Note_on_c, 0, 77, 48
1, 572742, Note_on_c, 0, 80, 49
1, 572760, Note_on_c, 0, 74, 44
1, 572764, Note_off_c, 0, 62, 35
1, 572784, Note_off_c, 0, 77, 61
1, 572784, Note_off_c, 0, 80, 56
1, 572788, Note_off_c, 0, 74, 58
1, 572809, Note_on_c, 0, 83, 60
1, 572871, Note_on_c, 0, 65, 82
1, 572876, Note_off_c, 0, 83, 59
1, 572878, Note_on_c, 0, 74, 54
1, 572891, Note_on_c, 0, 77, 55
1, 572897, Note_on_c, 0, 80, 46
1, 572938, Note_off_c, 0, 80, 55
1, 572940, Note_off_c, 0, 74, 59
1, 572946, Note_off_c, 0, 77, 53
1, 572959, Note_on_c, 0, 83, 60
1, 573049, Note_off_c, 0, 83, 62
1, 573066, Note_on_c, 0, 74, 60
1, 573070, Note_on_c, 0, 80, 50
1, 573079, Note_on_c, 0, 77, 50
1, 573113, Note_off_c, 0, 74, 53
1, 573122, Note_off_c, 0, 77, 60
1, 573129, Note_off_c, 0, 80, 44
1, 573130, Note_on_c, 0, 83, 64
1, 573161, Note_off_c, 0, 65, 43
1, 573230, Note_off_c, 0, 83, 62
1, 573246, Note_on_c, 0, 74, 54
1, 573246, Note_on_c, 0, 77, 49
1, 573260, Note_on_c, 0, 80, 51
1, 573286, Note_on_c, 0, 68, 88
1, 573319, Note_off_c, 0, 74, 54
1, 573325, Note_off_c, 0, 77, 62
1, 573325, Note_off_c, 0, 80, 39
1, 573330, Note_on_c, 0, 83, 72
1, 573411, Note_off_c, 0, 83, 62
1, 573444, Note_on_c, 0, 77, 46
1, 573444, Note_on_c, 0, 80, 49
1, 573452, Note_on_c, 0, 74, 48
1, 573488, Note_off_c, 0, 74, 61
1, 573495, Note_off_c, 0, 77, 59
1, 573498, Note_on_c, 0, 83, 72
1, 573512, Note_off_c, 0, 80, 58
1, 573515, Note_off_c, 0, 68, 49
1, 573590, Note_off_c, 0, 83, 62
1, 573593, Note_on_c, 0, 74, 55
1, 573610, Note_on_c, 0, 80, 58
1, 573611, Note_on_c, 0, 77, 58
1, 573671, Note_on_c, 0, 83, 69
1, 573673, Note_off_c, 0, 74, 56
1, 573677, Note_off_c, 0, 77, 59
1, 573683, Note_off_c, 0, 80, 57
1, 573757, Note_off_c, 0, 83, 63
1, 573775, Note_on_c, 0, 80, 55
1, 573784, Note_on_c, 0, 77, 54
1, 573787, Note_on_c, 0, 74, 63
1, 573835, Note_on_c, 0, 83, 68
1, 573851, Note_off_c, 0, 74, 55
1, 573862, Note_off_c, 0, 77, 61
1, 573867, Note_off_c, 0, 80, 60
1, 573930, Note_on_c, 0, 73, 98
1, 573949, Note_off_c, 0, 83, 62
1, 573963, Note_on_c, 0, 80, 59
1, 573970, Note_on_c, 0, 74, 62
1, 573976, Note_on_c, 0, 77, 60
1, 574049, Note_off_c, 0, 74, 56
1, 574050, Note_off_c, 0, 80, 54
1, 574052, Note_on_c, 0, 83, 76
1, 574058, Note_off_c, 0, 77, 61
1, 574137, Note_off_c, 0, 83, 63
1, 574151, Note_on_c, 0, 80, 68
1, 574157, Note_on_c, 0, 77, 62
1, 574167, Note_on_c, 0, 74, 62
1, 574222, Note_off_c, 0, 77, 61
1, 574226, Note_on_c, 0, 83, 76
1, 574228, Note_off_c, 0, 80, 58
1, 574232, Note_off_c, 0, 74, 59
1, 574313, Note_off_c, 0, 83, 63
1, 574323, Note_on_c, 0, 80, 68
1, 574329, Note_on_c, 0, 77, 67
1, 574338, Note_on_c, 0, 74, 58
1, 574405, Note_on_c, 0, 83, 83
1, 574410, Note_off_c, 0, 77, 58
1, 574411, Note_off_c, 0, 80, 59
1, 574424, Note_off_c, 0, 74, 51
1, 574500, Note_off_c, 0, 83, 64
1, 574507, Note_on_c, 0, 74, 63
1, 574508, Note_on_c, 0, 77, 75
1, 574511, Note_on_c, 0, 80, 75
1, 574601, Note_on_c, 0, 83, 83
1, 574607, Note_off_c, 0, 77, 60
1, 574616, Note_off_c, 0, 80, 61
1, 574624, Note_off_c, 0, 74, 59
1, 574700, Note_off_c, 0, 83, 65
1, 574709, Note_on_c, 0, 74, 64
1, 574712, Note_on_c, 0, 77, 73
1, 574715, Note_on_c, 0, 80, 71
1, 574811, Note_on_c, 0, 83, 86
1, 574812, Note_off_c, 0, 77, 62
1, 574827, Note_off_c, 0, 80, 61
1, 574832, Note_off_c, 0, 74, 64
1, 574850, Note_off_c, 0, 83, 69
1, 575268, Control_c, 0, 64, 109
1, 575283, Control_c, 0, 64, 83
1, 575298, Control_c, 0, 64, 63
1, 575313, Control_c, 0, 64, 0
1, 575653, Control_c, 0, 64, 51
1, 575668, Control_c, 0, 64, 63
1, 575683, Control_c, 0, 64, 67
1, 575698, Control_c, 0, 64, 73
1, 575713, Control_c, 0, 64, 80
1, 575727, Control_c, 0, 64, 94
1, 575743, Control_c, 0, 64, 121
1, 575758, Control_c, 0, 64, 127
1, 576164, Note_off_c, 0, 73, 52
1, 576332, Note_on_c, 0, 71, 39
1, 576361, Note_off_c, 0, 71, 56
1, 576393, Poly_aftertouch_c, 0, 72, 127
1, 576425, Poly_aftertouch_c, 0, 72, 0
1, 576491, Control_c, 0, 64, 97
1, 576506, Control_c, 0, 64, 64
1, 576521, Control_c, 0, 64, 0
1, 576534, Note_on_c, 0, 57, 87
1, 576535, Note_on_c, 0, 69, 91
1, 576535, Note_on_c, 0, 52, 87
1, 576535, Note_on_c, 0, 81, 96
1, 576536, Control_c, 0, 64, 45
1, 576538, Note_on_c, 0, 73, 86
1, 576543, Note_on_c, 0, 45, 78
1, 576552, Note_off_c, 0, 81, 71
1, 576552, Control_c, 0, 64, 76
1, 576553, Note_off_c, 0, 69, 72
1, 576554, Note_off_c, 0, 57, 71
1, 576556, Note_off_c, 0, 73, 73
1, 576560, Note_off_c, 0, 52, 69
1, 576565, Note_off_c, 0, 45, 67
1, 576566, Control_c, 0, 64, 126
1, 576581, Control_c, 0, 64, 127
1, 576911, Note_on_c, 0, 32, 58
1, 576916, Note_on_c, 0, 44, 53
1, 576923, Note_on_c, 0, 56, 65
1, 576929, Note_on_c, 0, 68, 52
1, 576944, Note_off_c, 0, 32, 62
1, 576947, Note_off_c, 0, 44, 63
1, 576951, Note_off_c, 0, 56, 66
1, 576959, Note_off_c, 0, 68, 64
1, 577031, Note_on_c, 0, 33, 61
1, 577048, Note_on_c, 0, 69, 57
1, 577050, Note_on_c, 0, 57, 54
1, 577063, Note_off_c, 0, 33, 56
1, 577066, Note_off_c, 0, 69, 65
1, 577084, Note_off_c, 0, 57, 52
1, 577087, Poly_aftertouch_c, 0, 45, 127
1, 577132, Poly_aftertouch_c, 0, 45, 0
1, 577148, Note_on_c, 0, 49, 73
1, 577153, Note_on_c, 0, 37, 63
1, 577160, Note_on_c, 0, 61, 72
1, 577163, Note_on_c, 0, 73, 68
1, 577173, Note_off_c, 0, 49, 67
1, 577180, Note_off_c, 0, 37, 62
1, 577182, Note_off_c, 0, 61, 66
1, 577188, Note_off_c, 0, 73, 67
1, 577267, Note_on_c, 0, 64, 80
1, 577268, Note_on_c, 0, 50, 65
1, 577278, Note_on_c, 0, 38, 34
1, 577281, Note_on_c, 0, 76, 54
1, 577289, Note_off_c, 0, 64, 72
1, 577293, Note_off_c, 0, 50, 62
1, 577303, Note_off_c, 0, 76, 60
1, 577323, Note_off_c, 0, 38, 46
1, 577376, Note_on_c, 0, 44, 72
1, 577376, Note_on_c, 0, 56, 79
1, 577378, Note_on_c, 0, 68, 84
1, 577383, Note_on_c, 0, 80, 71
1, 577396, Note_off_c, 0, 68, 69
1, 577397, Note_off_c, 0, 56, 70
1, 577399, Note_off_c, 0, 44, 65
1, 577406, Note_off_c, 0, 80, 69
1, 577484, Note_on_c, 0, 69, 87
1, 577485, Note_on_c, 0, 45, 75
1, 577486, Note_on_c, 0, 57, 76
1, 577487, Note_on_c, 0, 81, 85
1, 577501, Note_off_c, 0, 69, 74
1, 577506, Note_off_c, 0, 81, 70
1, 577508, Note_off_c, 0, 57, 70
1, 577519, Note_off_c, 0, 45, 59
1, 577582, Poly_aftertouch_c, 0, 80, 127
1, 577597, Note_on_c, 0, 61, 91
1, 577597, Poly_aftertouch_c, 0, 80, 0
1, 577601, Note_on_c, 0, 73, 93
1, 577602, Note_on_c, 0, 49, 82
1, 577605, Note_on_c, 0, 85, 83
1, 577623, Note_off_c, 0, 61, 61
1, 577629, Note_off_c, 0, 85, 66
1, 577630, Note_off_c, 0, 49, 65
1, 577632, Note_off_c, 0, 73, 58
1, 577693, Control_c, 0, 64, 113
1, 577707, Note_on_c, 0, 52, 80
1, 577708, Control_c, 0, 64, 71
1, 577713, Note_on_c, 0, 64, 70
1, 577713, Note_on_c, 0, 76, 94
1, 577720, Note_on_c, 0, 88, 82
1, 577722, Control_c, 0, 64, 0
1, 577728, Note_off_c, 0, 52, 69
1, 577730, Note_off_c, 0, 76, 73
1, 577734, Note_off_c, 0, 64, 63
1, 577739, Note_off_c, 0, 88, 72
1, 577834, Note_on_c, 0, 80, 84
1, 577835, Note_on_c, 0, 92, 80
1, 577876, Note_off_c, 0, 92, 64
1, 577877, Note_off_c, 0, 80, 61
1, 577930, Control_c, 0, 64, 54
1, 577936, Note_on_c, 0, 58, 104
1, 577941, Note_on_c, 0, 81, 106
1, 577943, Note_on_c, 0, 93, 92
1, 577945, Control_c, 0, 64, 127
1, 577945, Note_on_c, 0, 46, 82
1, 577946, Note_on_c, 0, 50, 71
1, 577946, Note_on_c, 0, 86, 80
1, 577956, Note_off_c, 0, 58, 65
1, 577957, Note_off_c, 0, 93, 73
1, 577960, Note_off_c, 0, 86, 76
1, 577966, Note_off_c, 0, 81, 62
1, 577968, Note_off_c, 0, 46, 64
1, 577972, Note_off_c, 0, 50, 68
1, 577987, Note_on_c, 0, 49, 57
1, 578043, Note_off_c, 0, 49, 39
1, 578291, Note_on_c, 0, 69, 63
1, 578294, Note_on_c, 0, 57, 60
1, 578295, Note_on_c, 0, 33, 64
1, 578297, Note_on_c, 0, 45, 63
1, 578317, Note_off_c, 0, 57, 62
1, 578319, Note_off_c, 0, 69, 68
1, 578322, Note_off_c, 0, 45, 62
1, 578329, Note_off_c, 0, 33, 60
1, 578404, Note_on_c, 0, 46, 69
1, 578405, Note_on_c, 0, 34, 65
1, 578410, Note_on_c, 0, 58, 68
1, 578410, Note_on_c, 0, 70, 65
1, 578428, Note_off_c, 0, 58, 67
1, 578430, Note_off_c, 0, 46, 65
1, 578436, Note_off_c, 0, 34, 62
1, 578437, Note_off_c, 0, 70, 65
1, 578515, Note_on_c, 0, 62, 74
1, 578516, Note_on_c, 0, 50, 78
1, 578518, Note_on_c, 0, 74, 77
1, 578524, Note_on_c, 0, 38, 61
1, 578538, Note_off_c, 0, 74, 72
1, 578539, Note_off_c, 0, 62, 67
1, 578540, Note_off_c, 0, 50, 68
1, 578548, Note_off_c, 0, 38, 58
1, 578631, Note_on_c, 0, 41, 74
1, 578633, Note_on_c, 0, 53, 76
1, 578633, Note_on_c, 0, 65, 83
1, 578639, Note_on_c, 0, 77, 78
1, 578653, Note_off_c, 0, 65, 71
1, 578656, Note_off_c, 0, 53, 69
1, 578657, Note_off_c, 0, 41, 63
1, 578658, Note_off_c, 0, 77, 73
1, 578745, Note_on_c, 0, 69, 88
1, 578748, Note_on_c, 0, 45, 75
1, 578751, Note_on_c, 0, 57, 74
1, 578754, Note_on_c, 0, 81, 72
1, 578763, Note_on_c, 0, 79, 63
1, 578765, Note_off_c, 0, 69, 70
1, 578774, Note_off_c, 0, 45, 65
1, 578774, Note_off_c, 0, 57, 69
1, 578777, Note_off_c, 0, 81, 69
1, 578781, Note_off_c, 0, 79, 64
1, 578853, Note_on_c, 0, 58, 90
1, 578858, Note_on_c, 0, 70, 91
1, 578859, Note_on_c, 0, 46, 74
1, 578860, Note_on_c, 0, 82, 88
1, 578872, Note_off_c, 0, 58, 71
1, 578881, Note_off_c, 0, 70, 66
1, 578882, Note_off_c, 0, 82, 65
1, 578884, Note_off_c, 0, 46, 64
1, 578965, Note_on_c, 0, 62, 90
1, 578969, Note_on_c, 0, 74, 95
1, 578970, Note_on_c, 0, 86, 89
1, 578974, Note_on_c, 0, 50, 71
1, 578986, Note_off_c, 0, 62, 69
1, 578989, Note_off_c, 0, 74, 69
1, 579000, Note_off_c, 0, 86, 62
1, 579001, Note_off_c, 0, 50, 60
1, 579079, Note_on_c, 0, 53, 84
1, 579081, Note_on_c, 0, 65, 80
1, 579087, Note_on_c, 0, 77, 95
1, 579090, Note_on_c, 0, 89, 95
1, 579099, Note_off_c, 0, 65, 72
1, 579101, Note_off_c, 0, 53, 70
1, 579102, Control_c, 0, 64, 89
1, 579110, Note_off_c, 0, 89, 67
1, 579111, Note_off_c, 0, 77, 65
1, 579117, Control_c, 0, 64, 42
1, 579132, Control_c, 0, 64, 0
1, 579196, Note_on_c, 0, 80, 90
1, 579196, Note_on_c, 0, 92, 89
1, 579239, Note_off_c, 0, 80, 63
1, 579240, Note_off_c, 0, 92, 66
1, 579308, Note_on_c, 0, 59, 103
1, 579308, Note_on_c, 0, 81, 110
1, 579309, Control_c, 0, 64, 101
1, 579310, Note_on_c, 0, 87, 100
1, 579311, Note_on_c, 0, 51, 88
1, 579311, Note_on_c, 0, 93, 101
1, 579314, Note_on_c, 0, 47, 87
1, 579323, Note_off_c, 0, 59, 74
1, 579324, Control_c, 0, 64, 127
1, 579325, Note_off_c, 0, 93, 76
1, 579328, Note_off_c, 0, 87, 72
1, 579328, Note_off_c, 0, 81, 67
1, 579332, Note_off_c, 0, 51, 72
1, 579338, Note_off_c, 0, 47, 69
1, 579357, Note_on_c, 0, 92, 36
1, 579358, Note_off_c, 0, 92, 127
1, 579635, Note_on_c, 0, 34, 65
1, 579635, Note_on_c, 0, 46, 61
1, 579643, Note_on_c, 0, 70, 67
1, 579644, Note_on_c, 0, 58, 68
1, 579664, Note_off_c, 0, 46, 64
1, 579665, Note_off_c, 0, 34, 62
1, 579668, Note_off_c, 0, 58, 66
1, 579668, Note_off_c, 0, 70, 66
1, 579741, Note_on_c, 0, 35, 73
1, 579744, Note_on_c, 0, 47, 71
1, 579747, Note_on_c, 0, 71, 73
1, 579749, Note_on_c, 0, 59, 72
1, 579773, Note_off_c, 0, 35, 66
1, 579776, Note_off_c, 0, 71, 71
1, 579777, Note_off_c, 0, 47, 67
1, 579777, Note_off_c, 0, 59, 70
1, 579862, Note_on_c, 0, 39, 68
1, 579862, Note_on_c, 0, 51, 80
1, 579862, Note_on_c, 0, 63, 82
1, 579868, Note_on_c, 0, 75, 75
1, 579884, Note_off_c, 0, 63, 70
1, 579885, Note_off_c, 0, 51, 67
1, 579887, Note_off_c, 0, 39, 61
1, 579889, Note_off_c, 0, 75, 70
1, 579969, Note_on_c, 0, 54, 86
1, 579972, Note_on_c, 0, 42, 67
1, 579975, Note_on_c, 0, 66, 84
1, 579981, Note_on_c, 0, 78, 76
1, 579991, Note_off_c, 0, 54, 71
1, 579993, Note_off_c, 0, 66, 70
1, 579996, Note_off_c, 0, 42, 63
1, 580000, Note_off_c, 0, 78, 71
1, 580081, Note_on_c, 0, 46, 71
1, 580086, Note_on_c, 0, 70, 92
1, 580086, Note_on_c, 0, 58, 75
1, 580092, Note_on_c, 0, 82, 79
1, 580094, Note_on_c, 0, 56, 54
1, 580106, Note_off_c, 0, 46, 65
1, 580109, Note_off_c, 0, 70, 63
1, 580110, Note_off_c, 0, 58, 67
1, 580115, Note_off_c, 0, 82, 67
1, 580118, Note_off_c, 0, 56, 61
1, 580189, Poly_aftertouch_c, 0, 80, 0
1, 580193, Note_on_c, 0, 59, 81
1, 580194, Note_on_c, 0, 47, 78
1, 580195, Note_on_c, 0, 71, 92
1, 580199, Note_on_c, 0, 83, 82
1, 580211, Note_off_c, 0, 71, 72
1, 580212, Note_off_c, 0, 59, 71
1, 580217, Note_off_c, 0, 83, 70
1, 580219, Note_off_c, 0, 47, 69
1, 580296, Note_on_c, 0, 63, 90
1, 580301, Note_on_c, 0, 51, 75
1, 580303, Note_on_c, 0, 75, 92
1, 580303, Note_on_c, 0, 87, 91
1, 580320, Note_off_c, 0, 75, 65
1, 580322, Note_off_c, 0, 63, 57
1, 580330, Note_off_c, 0, 51, 65
1, 580342, Note_off_c, 0, 87, 59
1, 580400, Note_on_c, 0, 54, 84
1, 580401, Note_on_c, 0, 66, 90
1, 580413, Note_on_c, 0, 78, 92
1, 580417, Note_on_c, 0, 90, 91
1, 580421, Note_off_c, 0, 66, 70
1, 580431, Note_off_c, 0, 54, 59
1, 580434, Note_off_c, 0, 78, 65
1, 580442, Note_off_c, 0, 90, 62
1, 580473, Control_c, 0, 64, 82
1, 580488, Control_c, 0, 64, 0
1, 580533, Note_on_c, 0, 92, 91
1, 580534, Note_on_c, 0, 80, 87
1, 580579, Note_off_c, 0, 80, 63
1, 580583, Note_off_c, 0, 92, 64
1, 580640, Note_on_c, 0, 52, 94
1, 580640, Note_on_c, 0, 81, 112
1, 580643, Note_on_c, 0, 57, 92
1, 580643, Note_on_c, 0, 88, 93
1, 580643, Note_on_c, 0, 93, 99
1, 580643, Note_on_c, 0, 60, 90
1, 580644, Control_c, 0, 64, 127
1, 580650, Note_on_c, 0, 48, 82
1, 580660, Note_off_c, 0, 60, 76
1, 580662, Note_off_c, 0, 88, 70
1, 580663, Note_off_c, 0, 93, 69
1, 580668, Note_off_c, 0, 81, 66
1, 580673, Note_off_c, 0, 57, 62
1, 580679, Note_off_c, 0, 48, 67
1, 580685, Note_off_c, 0, 52, 65
1, 580963, Note_on_c, 0, 71, 64
1, 580964, Note_on_c, 0, 59, 65
1, 580968, Note_on_c, 0, 35, 67
1, 580973, Note_on_c, 0, 47, 64
1, 580984, Note_off_c, 0, 59, 64
1, 580989, Note_off_c, 0, 71, 69
1, 580992, Note_off_c, 0, 35, 63
1, 580995, Note_off_c, 0, 47, 63
1, 581067, Note_on_c, 0, 72, 77
1, 581068, Note_on_c, 0, 60, 76
1, 581070, Note_on_c, 0, 48, 69
1, 581072, Note_on_c, 0, 36, 62
1, 581087, Note_off_c, 0, 72, 71
1, 581090, Note_off_c, 0, 48, 65
1, 581093, Note_off_c, 0, 60, 66
1, 581099, Note_off_c, 0, 36, 57
1, 581172, Note_on_c, 0, 51, 83
1, 581174, Note_on_c, 0, 63, 82
1, 581176, Note_on_c, 0, 75, 77
1, 581178, Note_on_c, 0, 39, 65
1, 581196, Note_off_c, 0, 51, 67
1, 581196, Note_off_c, 0, 63, 69
1, 581197, Note_off_c, 0, 75, 68
1, 581204, Note_off_c, 0, 39, 57
1, 581286, Note_on_c, 0, 64, 92
1, 581288, Note_on_c, 0, 76, 87
1, 581291, Note_on_c, 0, 41, 69
1, 581293, Note_on_c, 0, 53, 68
1, 581303, Note_off_c, 0, 64, 75
1, 581310, Note_off_c, 0, 76, 68
1, 581313, Note_on_c, 0, 52, 32
1, 581314, Note_off_c, 0, 41, 60
1, 581314, Note_off_c, 0, 53, 65
1, 581340, Note_off_c, 0, 52, 60
1, 581394, Note_on_c, 0, 56, 89
1, 581396, Note_on_c, 0, 44, 79
1, 581397, Note_on_c, 0, 68, 92
1, 581400, Poly_aftertouch_c, 0, 65, 0
1, 581402, Note_on_c, 0, 80, 82
1, 581415, Note_off_c, 0, 56, 71
1, 581419, Note_off_c, 0, 68, 63
1, 581423, Note_off_c, 0, 80, 65
1, 581426, Note_off_c, 0, 44, 65
1, 581506, Note_on_c, 0, 57, 99
1, 581509, Note_on_c, 0, 69, 98
1, 581512, Note_on_c, 0, 81, 94
1, 581525, Note_on_c, 0, 45, 58
1, 581526, Note_off_c, 0, 57, 67
1, 581531, Note_off_c, 0, 69, 64
1, 581531, Note_on_c, 0, 47, 49
1, 581543, Note_off_c, 0, 81, 59
1, 581553, Note_off_c, 0, 45, 59
1, 581564, Note_off_c, 0, 47, 54
1, 581626, Note_on_c, 0, 72, 102
1, 581629, Note_on_c, 0, 60, 96
1, 581629, Note_on_c, 0, 84, 94
1, 581635, Note_on_c, 0, 48, 84
1, 581651, Note_off_c, 0, 60, 65
1, 581657, Note_off_c, 0, 72, 69
1, 581659, Note_off_c, 0, 48, 68
1, 581662, Note_off_c, 0, 84, 68
1, 581755, Note_on_c, 0, 64, 98
1, 581755, Note_on_c, 0, 52, 94
1, 581756, Note_on_c, 0, 76, 104
1, 581759, Note_on_c, 0, 88, 98
1, 581777, Note_off_c, 0, 64, 67
1, 581786, Note_off_c, 0, 52, 63
1, 581788, Note_off_c, 0, 76, 63
1, 581793, Note_off_c, 0, 88, 67
1, 581903, Note_on_c, 0, 80, 92
1, 581904, Note_on_c, 0, 92, 94
1, 581946, Note_off_c, 0, 80, 63
1, 581962, Note_off_c, 0, 92, 65
1, 582008, Control_c, 0, 64, 97
1, 582023, Control_c, 0, 64, 0
1, 582026, Note_on_c, 0, 61, 108
1, 582026, Note_on_c, 0, 85, 89
1, 582029, Note_on_c, 0, 57, 89
1, 582031, Note_on_c, 0, 81, 90
1, 582032, Note_on_c, 0, 49, 94
1, 582032, Note_on_c, 0, 79, 92
1, 582033, Note_on_c, 0, 88, 88
1, 582058, Note_on_c, 0, 87, 36
1, 582059, Note_off_c, 0, 87, 127
1, 582065, Note_off_c, 0, 57, 61
1, 582067, Note_off_c, 0, 61, 65
1, 582068, Control_c, 0, 64, 23
1, 582071, Note_on_c, 0, 93, 84
1, 582073, Note_off_c, 0, 49, 63
1, 582082, Control_c, 0, 64, 127
1, 582084, Note_off_c, 0, 79, 60
1, 582086, Note_off_c, 0, 81, 63
1, 582090, Note_off_c, 0, 85, 65
1, 582095, Note_off_c, 0, 88, 61
1, 582096, Note_on_c, 0, 90, 8
1, 582097, Note_off_c, 0, 90, 127
1, 582142, Note_off_c, 0, 93, 61
1, 582155, Note_on_c, 0, 88, 57
1, 582162, Note_on_c, 0, 85, 65
1, 582170, Note_on_c, 0, 81, 37
1, 582176, Note_on_c, 0, 79, 56
1, 582193, Note_off_c, 0, 81, 58
1, 582198, Note_off_c, 0, 79, 60
1, 582210, Note_on_c, 0, 93, 81
1, 582210, Note_off_c, 0, 85, 62
1, 582214, Note_off_c, 0, 88, 64
1, 582269, Note_on_c, 0, 81, 63
1, 582271, Note_off_c, 0, 93, 57
1, 582274, Note_on_c, 0, 79, 68
1, 582275, Note_on_c, 0, 85, 58
1, 582275, Note_on_c, 0, 88, 57
1, 582307, Note_off_c, 0, 79, 57
1, 582310, Note_off_c, 0, 81, 63
1, 582327, Note_on_c, 0, 93, 72
1, 582333, Note_off_c, 0, 85, 63
1, 582346, Note_off_c, 0, 88, 63
1, 582389, Note_on_c, 0, 67, 94
1, 582392, Note_on_c, 0, 55, 88
1, 582400, Note_on_c, 0, 85, 59
1, 582402, Note_on_c, 0, 88, 53
1, 582404, Note_off_c, 0, 93, 63
1, 582412, Note_on_c, 0, 81, 56
1, 582415, Note_on_c, 0, 79, 60
1, 582443, Note_off_c, 0, 79, 62
1, 582446, Note_off_c, 0, 81, 63
1, 582447, Poly_aftertouch_c, 0, 93, 0
1, 582455, Note_on_c, 0, 93, 64
1, 582468, Note_off_c, 0, 67, 48
1, 582470, Note_off_c, 0, 85, 62
1, 582475, Note_off_c, 0, 55, 59
1, 582488, Note_off_c, 0, 88, 63
1, 582540, Note_off_c, 0, 93, 58
1, 582559, Note_on_c, 0, 81, 51
1, 582567, Note_on_c, 0, 85, 65
1, 582568, Note_on_c, 0, 79, 56
1, 582571, Note_on_c, 0, 88, 54
1, 582590, Note_off_c, 0, 79, 61
1, 582607, Note_off_c, 0, 81, 48
1, 582609, Note_on_c, 0, 66, 93
1, 582610, Note_on_c, 0, 54, 86
1, 582616, Note_on_c, 0, 93, 75
1, 582619, Note_off_c, 0, 85, 60
1, 582628, Note_off_c, 0, 88, 63
1, 582636, Note_off_c, 0, 66, 60
1, 582639, Note_off_c, 0, 54, 62
1, 582687, Note_off_c, 0, 93, 62
1, 582701, Note_on_c, 0, 85, 56
1, 582708, Note_on_c, 0, 88, 49
1, 582709, Note_on_c, 0, 81, 51
1, 582714, Note_on_c, 0, 79, 56
1, 582734, Note_off_c, 0, 79, 64
1, 582740, Note_off_c, 0, 81, 52
1, 582756, Note_on_c, 0, 93, 71
1, 582757, Note_on_c, 0, 64, 88
1, 582761, Note_on_c, 0, 52, 85
1, 582768, Note_off_c, 0, 85, 61
1, 582774, Note_off_c, 0, 88, 55
1, 582777, Note_off_c, 0, 64, 72
1, 582788, Note_off_c, 0, 52, 68
1, 582822, Note_off_c, 0, 93, 63
1, 582837, Note_on_c, 0, 88, 40
1, 582837, Note_on_c, 0, 81, 47
1, 582840, Note_on_c, 0, 85, 43
1, 582842, Note_on_c, 0, 79, 47
1, 582861, Poly_aftertouch_c, 0, 93, 0
1, 582865, Note_off_c, 0, 79, 59
1, 582865, Note_off_c, 0, 81, 55
1, 582870, Note_on_c, 0, 93, 65
1, 582879, Note_on_c, 0, 50, 80
1, 582879, Note_off_c, 0, 85, 63
1, 582880, Note_on_c, 0, 62, 81
1, 582885, Note_off_c, 0, 88, 63
1, 582900, Note_off_c, 0, 62, 70
1, 582903, Note_off_c, 0, 50, 69
1, 582932, Note_off_c, 0, 93, 63
1, 582949, Note_on_c, 0, 81, 52
1, 582952, Note_on_c, 0, 79, 51
1, 582965, Note_on_c, 0, 85, 54
1, 582970, Note_off_c, 0, 81, 61
1, 582971, Note_on_c, 0, 88, 53
1, 582975, Note_off_c, 0, 79, 59
1, 582983, Note_on_c, 0, 49, 82
1, 582986, Note_on_c, 0, 61, 85
1, 582987, Note_on_c, 0, 93, 72
1, 582995, Note_off_c, 0, 85, 65
1, 583000, Note_off_c, 0, 88, 66
1, 583007, Note_off_c, 0, 49, 66
1, 583007, Note_off_c, 0, 61, 69
1, 583023, Poly_aftertouch_c, 0, 50, 127
1, 583045, Note_off_c, 0, 93, 62
1, 583047, Poly_aftertouch_c, 0, 50, 0
1, 583060, Note_on_c, 0, 81, 48
1, 583063, Note_on_c, 0, 79, 49
1, 583074, Note_on_c, 0, 85, 59
1, 583081, Note_on_c, 0, 88, 68
1, 583081, Note_off_c, 0, 81, 60
1, 583083, Note_on_c, 0, 49, 5
1, 583084, Note_on_c, 0, 59, 85
1, 583087, Note_off_c, 0, 79, 57
1, 583089, Note_on_c, 0, 47, 82
1, 583098, Note_on_c, 0, 93, 70
1, 583102, Note_off_c, 0, 85, 65
1, 583107, Note_off_c, 0, 88, 68
1, 583108, Note_off_c, 0, 59, 66
1, 583114, Note_off_c, 0, 47, 67
1, 583118, Note_off_c, 0, 49, 51
1, 583155, Note_off_c, 0, 93, 59
1, 583159, Note_on_c, 0, 81, 65
1, 583165, Note_on_c, 0, 79, 63
1, 583168, Note_on_c, 0, 85, 73
1, 583189, Note_on_c, 0, 57, 85
1, 583189, Note_off_c, 0, 79, 67
1, 583191, Note_off_c, 0, 81, 64
1, 583192, Note_on_c, 0, 45, 77
1, 583195, Note_on_c, 0, 88, 63
1, 583211, Note_off_c, 0, 57, 69
1, 583214, Note_on_c, 0, 93, 74
1, 583219, Note_off_c, 0, 85, 61
1, 583219, Note_off_c, 0, 45, 66
1, 583220, Note_off_c, 0, 88, 69
1, 583275, Note_off_c, 0, 93, 60
1, 583281, Note_on_c, 0, 85, 62
1, 583281, Note_on_c, 0, 81, 66
1, 583283, Note_on_c, 0, 56, 90
1, 583284, Note_on_c, 0, 44, 85
1, 583290, Note_on_c, 0, 79, 57
1, 583296, Note_on_c, 0, 88, 63
1, 583303, Note_off_c, 0, 56, 72
1, 583308, Note_off_c, 0, 81, 63
1, 583309, Note_off_c, 0, 79, 64
1, 583311, Note_off_c, 0, 44, 69
1, 583329, Note_on_c, 0, 93, 72
1, 583332, Note_off_c, 0, 85, 62
1, 583334, Note_off_c, 0, 88, 62
1, 583382, Note_on_c, 0, 59, 94
1, 583386, Note_on_c, 0, 47, 83
1, 583393, Note_on_c, 0, 81, 60
1, 583397, Note_on_c, 0, 79, 63
1, 583398, Note_off_c, 0, 93, 62
1, 583400, Note_on_c, 0, 85, 58
1, 583405, Note_off_c, 0, 59, 63
1, 583410, Note_on_c, 0, 88, 56
1, 583411, Note_off_c, 0, 47, 72
1, 583418, Note_off_c, 0, 79, 65
1, 583420, Note_off_c, 0, 81, 64
1, 583432, Note_off_c, 0, 85, 66
1, 583439, Note_on_c, 0, 93, 62
1, 583448, Note_off_c, 0, 88, 64
1, 583452, Control_c, 0, 64, 102
1, 583467, Control_c, 0, 64, 76
1, 583482, Control_c, 0, 64, 62
1, 583484, Note_on_c, 0, 57, 91
1, 583490, Note_on_c, 0, 45, 86
1, 583494, Note_on_c, 0, 81, 76
1, 583505, Control_c, 0, 64, 63
1, 583506, Note_on_c, 0, 85, 80
1, 583508, Note_on_c, 0, 79, 74
1, 583510, Note_off_c, 0, 93, 58
1, 583511, Note_on_c, 0, 88, 65
1, 583519, Note_off_c, 0, 57, 66
1, 583520, Control_c, 0, 64, 70
1, 583525, Note_off_c, 0, 45, 69
1, 583530, Note_off_c, 0, 79, 68
1, 583534, Control_c, 0, 64, 85
1, 583538, Note_off_c, 0, 81, 63
1, 583547, Poly_aftertouch_c, 0, 93, 0
1, 583549, Control_c, 0, 64, 114
1, 583555, Note_on_c, 0, 93, 70
1, 583557, Note_off_c, 0, 85, 63
1, 583564, Control_c, 0, 64, 127
1, 583567, Note_off_c, 0, 88, 63
1, 583595, Note_on_c, 0, 55, 98
1, 583600, Note_on_c, 0, 43, 87
1, 583604, Poly_aftertouch_c, 0, 88, 0
1, 583606, Note_on_c, 0, 85, 67
1, 583613, Note_off_c, 0, 93, 62
1, 583614, Note_on_c, 0, 88, 49
1, 583616, Note_on_c, 0, 81, 61
1, 583618, Note_on_c, 0, 79, 56
1, 583622, Note_off_c, 0, 55, 65
1, 583627, Note_off_c, 0, 43, 66
1, 583636, Note_off_c, 0, 81, 64
1, 583640, Note_off_c, 0, 79, 61
1, 583651, Note_on_c, 0, 93, 63
1, 583654, Note_off_c, 0, 85, 62
1, 583655, Note_off_c, 0, 88, 63
1, 583698, Note_on_c, 0, 54, 93
1, 583700, Note_on_c, 0, 42, 90
1, 583702, Note_on_c, 0, 81, 75
1, 583702, Note_on_c, 0, 85, 70
1, 583707, Note_on_c, 0, 79, 75
1, 583714, Note_on_c, 0, 88, 55
1, 583715, Note_off_c, 0, 93, 62
1, 583722, Note_off_c, 0, 54, 68
1, 583728, Note_off_c, 0, 42, 67
1, 583728, Note_off_c, 0, 79, 70
1, 583737, Note_off_c, 0, 81, 63
1, 583748, Note_on_c, 0, 93, 67
1, 583752, Note_off_c, 0, 85, 61
1, 583753, Note_off_c, 0, 88, 65
1, 583797, Note_on_c, 0, 52, 93
1, 583802, Note_on_c, 0, 40, 89
1, 583805, Note_on_c, 0, 85, 68
1, 583806, Note_on_c, 0, 81, 76
1, 583812, Note_on_c, 0, 79, 73
1, 583814, Note_off_c, 0, 93, 65
1, 583822, Note_on_c, 0, 88, 65
1, 583824, Note_off_c, 0, 52, 65
1, 583830, Note_off_c, 0, 40, 68
1, 583833, Note_off_c, 0, 81, 64
1, 583835, Note_off_c, 0, 79, 68
1, 583851, Note_on_c, 0, 93, 71
1, 583853, Note_off_c, 0, 85, 62
1, 583856, Note_off_c, 0, 88, 64
1, 583901, Note_on_c, 0, 50, 93
1, 583904, Note_on_c, 0, 85, 77
1, 583910, Note_on_c, 0, 38, 81
1, 583910, Note_on_c, 0, 81, 70
1, 583912, Note_on_c, 0, 79, 76
1, 583915, Note_off_c, 0, 93, 64
1, 583916, Note_on_c, 0, 88, 62
1, 583932, Note_off_c, 0, 50, 66
1, 583932, Note_off_c, 0, 79, 69
1, 583935, Note_off_c, 0, 81, 65
1, 583937, Note_off_c, 0, 38, 65
1, 583945, Note_on_c, 0, 39, 24
1, 583950, Note_off_c, 0, 85, 65
1, 583951, Poly_aftertouch_c, 0, 93, 0
1, 583954, Note_off_c, 0, 88, 63
1, 583959, Note_on_c, 0, 93, 63
1, 583989, Note_off_c, 0, 39, 47
1, 584000, Note_on_c, 0, 49, 103
1, 584001, Note_on_c, 0, 81, 85
1, 584003, Note_on_c, 0, 37, 94
1, 584010, Note_on_c, 0, 79, 76
1, 584012, Note_on_c, 0, 85, 76
1, 584014, Note_on_c, 0, 88, 74
1, 584023, Note_off_c, 0, 49, 69
1, 584029, Note_off_c, 0, 37, 69
1, 584032, Note_off_c, 0, 79, 69
1, 584040, Note_off_c, 0, 81, 63
1, 584042, Note_off_c, 0, 93, 0
1, 584048, Note_off_c, 0, 85, 61
1, 584061, Note_off_c, 0, 88, 62
1, 584062, Note_on_c, 0, 93, 43
1, 584104, Note_on_c, 0, 81, 81
1, 584107, Note_on_c, 0, 47, 96
1, 584111, Note_on_c, 0, 35, 90
1, 584114, Note_on_c, 0, 79, 79
1, 584114, Note_on_c, 0, 85, 84
1, 584116, Note_on_c, 0, 88, 72
1, 584134, Note_off_c, 0, 47, 67
1, 584137, Note_off_c, 0, 79, 65
1, 584139, Note_off_c, 0, 35, 69
1, 584145, Note_off_c, 0, 81, 63
1, 584157, Note_off_c, 0, 85, 62
1, 584158, Note_off_c, 0, 88, 62
1, 584184, Note_off_c, 0, 93, 38
1, 584202, Note_on_c, 0, 45, 101
1, 584206, Note_on_c, 0, 81, 83
1, 584212, Note_on_c, 0, 33, 86
1, 584217, Note_on_c, 0, 79, 76
1, 584220, Note_on_c, 0, 85, 78
1, 584224, Note_on_c, 0, 88, 75
1, 584229, Note_on_c, 0, 34, 62
1, 584235, Note_on_c, 0, 93, 43
1, 584243, Note_off_c, 0, 33, 66
1, 584244, Note_off_c, 0, 45, 66
1, 584244, Note_off_c, 0, 79, 52
1, 584258, Note_off_c, 0, 81, 60
1, 584267, Note_off_c, 0, 34, 56
1, 584271, Note_off_c, 0, 85, 66
1, 584274, Note_off_c, 0, 93, 54
1, 584278, Note_off_c, 0, 88, 64
1, 584281, Note_on_c, 0, 39, 2
1, 584294, Poly_aftertouch_c, 0, 35, 127
1, 584318, Note_on_c, 0, 44, 102
1, 584320, Note_on_c, 0, 32, 93
1, 584327, Note_on_c, 0, 81, 85
1, 584329, Note_on_c, 0, 85, 87
1, 584329, Note_off_c, 0, 39, 46
1, 584332, Note_on_c, 0, 88, 80
1, 584337, Note_on_c, 0, 93, 71
1, 584339, Poly_aftertouch_c, 0, 35, 0
1, 584354, Note_off_c, 0, 93, 67
1, 584357, Note_off_c, 0, 81, 60
1, 584361, Note_off_c, 0, 44, 66
1, 584364, Note_off_c, 0, 32, 62
1, 584370, Note_off_c, 0, 85, 66
1, 584375, Note_off_c, 0, 88, 64
1, 584402, Control_c, 0, 64, 93
1, 584408, Poly_aftertouch_c, 0, 34, 127
1, 584416, Control_c, 0, 64, 45
1, 584420, Note_on_c, 0, 85, 94
1, 584420, Note_on_c, 0, 93, 98
1, 584421, Note_on_c, 0, 81, 108
1, 584423, Note_on_c, 0, 45, 111
1, 584425, Note_on_c, 0, 88, 81
1, 584429, Note_on_c, 0, 33, 97
1, 584431, Control_c, 0, 64, 0
1, 584435, Note_on_c, 0, 34, 28
1, 584473, Note_off_c, 0, 34, 51
1, 584476, Control_c, 0, 64, 42
1, 584490, Control_c, 0, 64, 76
1, 584505, Control_c, 0, 64, 98
1, 584520, Control_c, 0, 64, 127
1, 584550, Note_off_c, 0, 81, 52
1, 584571, Note_off_c, 0, 93, 57
1, 584584, Note_off_c, 0, 45, 60
1, 584587, Note_off_c, 0, 33, 52
1, 584590, Note_off_c, 0, 88, 61
1, 584596, Note_off_c, 0, 85, 63
1, 584681, Note_on_c, 0, 83, 99
1, 584682, Note_on_c, 0, 95, 105
1, 584686, Note_on_c, 0, 32, 86
1, 584687, Note_on_c, 0, 44, 81
1, 584712, Note_on_c, 0, 94, 53
1, 584722, Note_off_c, 0, 83, 66
1, 584729, Note_off_c, 0, 44, 60
1, 584731, Note_off_c, 0, 32, 57
1, 584734, Note_off_c, 0, 95, 65
1, 584736, Note_off_c, 0, 94, 61
1, 584834, Note_on_c, 0, 85, 102
1, 584835, Note_on_c, 0, 43, 99
1, 584837, Note_on_c, 0, 97, 104
1, 584841, Note_on_c, 0, 31, 88
1, 584864, Note_on_c, 0, 32, 42
1, 584869, Note_off_c, 0, 43, 62
1, 584870, Note_off_c, 0, 31, 67
1, 584879, Note_off_c, 0, 85, 63
1, 584885, Note_off_c, 0, 97, 66
1, 584894, Note_off_c, 0, 32, 57
1, 584961, Note_on_c, 0, 42, 95
1, 584962, Note_on_c, 0, 86, 100
1, 584963, Note_on_c, 0, 30, 93
1, 584968, Note_on_c, 0, 98, 94
1, 584987, Note_on_c, 0, 97, 57
1, 584989, Note_off_c, 0, 42, 64
1, 584994, Note_on_c, 0, 32, 28
1, 584995, Note_off_c, 0, 32, 127
1, 584995, Note_off_c, 0, 86, 67
1, 585010, Note_off_c, 0, 30, 62
1, 585016, Note_off_c, 0, 97, 64
1, 585016, Note_off_c, 0, 98, 67
1, 585088, Note_on_c, 0, 40, 90
1, 585090, Note_on_c, 0, 88, 100
1, 585093, Note_on_c, 0, 28, 84
1, 585098, Note_on_c, 0, 100, 87
1, 585123, Note_off_c, 0, 28, 66
1, 585123, Note_off_c, 0, 88, 67
1, 585125, Note_off_c, 0, 40, 64
1, 585133, Note_off_c, 0, 100, 63
1, 585180, Control_c, 0, 64, 84
1, 585195, Control_c, 0, 64, 0
1, 585201, Note_on_c, 0, 38, 100
1, 585201, Note_on_c, 0, 90, 115
1, 585205, Note_on_c, 0, 26, 91
1, 585211, Note_on_c, 0, 102, 98
1, 585227, Note_off_c, 0, 102, 71
1, 585232, Note_off_c, 0, 26, 65
1, 585239, Note_off_c, 0, 90, 69
1, 585240, Note_off_c, 0, 38, 67
1, 585240, Control_c, 0, 64, 127
1, 585257, Note_on_c, 0, 92, 39
1, 585258, Note_off_c, 0, 92, 127
1, 585271, Note_on_c, 0, 25, 18
1, 585325, Note_off_c, 0, 25, 42
1, 585415, Note_on_c, 0, 62, 65
1, 585425, Note_on_c, 0, 75, 43
1, 585426, Note_off_c, 0, 75, 127
1, 585433, Note_on_c, 0, 74, 67
1, 585433, Note_on_c, 0, 78, 54
1, 585433, Note_on_c, 0, 57, 28
1, 585442, Note_on_c, 0, 69, 44
1, 585443, Note_off_c, 0, 62, 63
1, 585451, Note_off_c, 0, 74, 66
1, 585454, Note_off_c, 0, 78, 61
1, 585469, Poly_aftertouch_c, 0, 66, 127
1, 585470, Note_off_c, 0, 69, 56
1, 585475, Note_off_c, 0, 57, 0
1, 585489, Note_on_c, 0, 62, 86
1, 585490, Note_on_c, 0, 69, 74
1, 585491, Note_on_c, 0, 57, 67
1, 585496, Note_on_c, 0, 78, 89
1, 585506, Note_on_c, 0, 74, 74
1, 585517, Note_off_c, 0, 62, 66
1, 585520, Note_off_c, 0, 69, 64
1, 585521, Note_off_c, 0, 57, 66
1, 585521, Note_off_c, 0, 74, 71
1, 585524, Poly_aftertouch_c, 0, 66, 0
1, 585526, Note_off_c, 0, 78, 61
1, 585696, Note_on_c, 0, 69, 73
1, 585697, Note_on_c, 0, 54, 63
1, 585697, Note_on_c, 0, 62, 69
1, 585703, Note_on_c, 0, 50, 54
1, 585708, Note_on_c, 0, 66, 55
1, 585711, Note_on_c, 0, 57, 42
1, 585717, Note_off_c, 0, 62, 71
1, 585717, Note_off_c, 0, 69, 69
1, 585723, Note_off_c, 0, 54, 66
1, 585728, Note_off_c, 0, 66, 64
1, 585732, Note_off_c, 0, 57, 61
1, 585735, Note_off_c, 0, 50, 56
1, 585775, Note_on_c, 0, 66, 80
1, 585776, Note_on_c, 0, 50, 68
1, 585777, Note_on_c, 0, 57, 56
1, 585777, Note_on_c, 0, 62, 80
1, 585779, Note_on_c, 0, 54, 74
1, 585779, Note_on_c, 0, 69, 72
1, 585798, Note_off_c, 0, 57, 62
1, 585800, Note_off_c, 0, 62, 69
1, 585800, Note_off_c, 0, 54, 69
1, 585806, Note_off_c, 0, 69, 66
1, 585810, Note_off_c, 0, 66, 62
1, 585816, Note_off_c, 0, 50, 66
1, 585985, Note_on_c, 0, 50, 75
1, 585989, Note_on_c, 0, 45, 72
1, 585991, Note_on_c, 0, 62, 75
1, 585994, Note_on_c, 0, 42, 66
1, 585997, Note_on_c, 0, 54, 72
1, 585997, Note_on_c, 0, 57, 67
1, 586010, Note_off_c, 0, 50, 67
1, 586013, Note_off_c, 0, 62, 68
1, 586015, Note_off_c, 0, 54, 69
1, 586017, Note_off_c, 0, 45, 66
1, 586021, Note_off_c, 0, 42, 65
1, 586023, Note_off_c, 0, 57, 67
1, 586059, Note_on_c, 0, 54, 91
1, 586060, Note_on_c, 0, 50, 70
1, 586061, Note_on_c, 0, 62, 87
1, 586062, Note_on_c, 0, 45, 81
1, 586064, Note_on_c, 0, 57, 85
1, 586068, Note_on_c, 0, 42, 86
1, 586086, Note_off_c, 0, 45, 70
1, 586092, Note_off_c, 0, 50, 67
1, 586112, Note_off_c, 0, 42, 64
1, 586151, Note_off_c, 0, 54, 65
1, 586232, Note_off_c, 0, 57, 52
1, 586260, Note_off_c, 0, 62, 61
1, 586448, Control_c, 0, 64, 94
1, 586463, Control_c, 0, 64, 0
1, 586490, Note_on_c, 0, 36, 107
1, 586490, Note_on_c, 0, 79, 110
1, 586500, Note_on_c, 0, 91, 108
1, 586503, Note_on_c, 0, 24, 92
1, 586522, Note_on_c, 0, 90, 65
1, 586527, Note_off_c, 0, 24, 67
1, 586527, Note_off_c, 0, 91, 71
1, 586529, Control_c, 0, 64, 127
1, 586530, Note_off_c, 0, 79, 67
1, 586533, Note_off_c, 0, 36, 65
1, 586542, Note_off_c, 0, 90, 43
1, 586542, Note_on_c, 0, 25, 31
1, 586595, Note_off_c, 0, 25, 46
1, 586623, Poly_aftertouch_c, 0, 30, 0
1, 586718, Note_on_c, 0, 63, 81
1, 586738, Note_on_c, 0, 76, 74
1, 586739, Note_on_c, 0, 72, 70
1, 586739, Note_on_c, 0, 79, 74
1, 586739, Note_on_c, 0, 67, 52
1, 586746, Note_off_c, 0, 63, 61
1, 586760, Note_off_c, 0, 79, 67
1, 586762, Note_off_c, 0, 72, 70
1, 586763, Note_off_c, 0, 67, 60
1, 586763, Note_off_c, 0, 76, 68
1, 586804, Note_on_c, 0, 60, 62
1, 586808, Note_on_c, 0, 79, 75
1, 586813, Note_on_c, 0, 64, 79
1, 586814, Note_on_c, 0, 67, 81
1, 586814, Note_on_c, 0, 72, 75
1, 586816, Note_on_c, 0, 76, 80
1, 586833, Note_off_c, 0, 64, 71
1, 586835, Note_off_c, 0, 67, 70
1, 586837, Note_off_c, 0, 76, 69
1, 586840, Note_off_c, 0, 72, 66
1, 586848, Note_off_c, 0, 79, 59
1, 586852, Note_off_c, 0, 60, 65
1, 587002, Note_on_c, 0, 55, 79
1, 587006, Note_on_c, 0, 60, 74
1, 587007, Note_on_c, 0, 67, 80
1, 587013, Note_on_c, 0, 72, 72
1, 587015, Note_on_c, 0, 52, 62
1, 587017, Note_on_c, 0, 64, 65
1, 587024, Note_off_c, 0, 67, 72
1, 587027, Note_off_c, 0, 60, 70
1, 587028, Note_off_c, 0, 55, 68
1, 587034, Note_off_c, 0, 64, 69
1, 587038, Note_off_c, 0, 72, 65
1, 587039, Note_off_c, 0, 52, 60
1, 587076, Note_on_c, 0, 60, 86
1, 587079, Note_on_c, 0, 67, 91
1, 587080, Note_on_c, 0, 64, 88
1, 587082, Note_on_c, 0, 72, 83
1, 587085, Note_on_c, 0, 52, 84
1, 587085, Note_on_c, 0, 55, 86
1, 587101, Note_off_c, 0, 60, 62
1, 587113, Note_off_c, 0, 72, 61
1, 587114, Note_off_c, 0, 52, 65
1, 587114, Note_off_c, 0, 55, 65
1, 587116, Note_off_c, 0, 64, 61
1, 587121, Note_off_c, 0, 67, 63
1, 587287, Note_on_c, 0, 52, 79
1, 587294, Note_on_c, 0, 55, 67
1, 587298, Note_on_c, 0, 60, 67
1, 587299, Note_on_c, 0, 48, 63
1, 587308, Note_on_c, 0, 64, 50
1, 587311, Note_off_c, 0, 52, 66
1, 587314, Note_on_c, 0, 67, 39
1, 587318, Note_off_c, 0, 55, 69
1, 587323, Note_off_c, 0, 48, 61
1, 587326, Note_off_c, 0, 60, 66
1, 587330, Note_off_c, 0, 64, 62
1, 587338, Note_off_c, 0, 67, 59
1, 587360, Note_on_c, 0, 52, 82
1, 587368, Note_on_c, 0, 55, 83
1, 587370, Note_on_c, 0, 60, 79
1, 587372, Note_on_c, 0, 67, 70
1, 587374, Note_on_c, 0, 48, 84
1, 587381, Note_on_c, 0, 64, 74
1, 587394, Note_off_c, 0, 55, 66
1, 587395, Note_off_c, 0, 60, 63
1, 587404, Note_off_c, 0, 52, 65
1, 587404, Note_off_c, 0, 64, 70
1, 587413, Note_off_c, 0, 67, 62
1, 587415, Note_off_c, 0, 48, 64
1, 587613, Note_on_c, 0, 55, 76
1, 587614, Note_on_c, 0, 48, 83
1, 587615, Note_on_c, 0, 43, 76
1, 587616, Note_on_c, 0, 60, 78
1, 587619, Note_on_c, 0, 52, 75
1, 587635, Note_on_c, 0, 40, 47
1, 587636, Note_off_c, 0, 48, 66
1, 587636, Note_off_c, 0, 60, 69
1, 587639, Note_off_c, 0, 43, 66
1, 587640, Note_off_c, 0, 55, 66
1, 587644, Note_off_c, 0, 52, 65
1, 587669, Note_off_c, 0, 40, 0
1, 587676, Note_on_c, 0, 48, 99
1, 587681, Note_on_c, 0, 43, 100
1, 587681, Note_on_c, 0, 40, 67
1, 587685, Note_on_c, 0, 52, 94
1, 587686, Note_on_c, 0, 60, 93
1, 587687, Note_on_c, 0, 55, 86
1, 587752, Note_off_c, 0, 48, 62
1, 587776, Note_off_c, 0, 43, 65
1, 587783, Note_off_c, 0, 52, 53
1, 587792, Note_off_c, 0, 40, 63
1, 587887, Note_off_c, 0, 55, 50
1, 588014, Note_off_c, 0, 60, 57
1, 588310, Control_c, 0, 64, 107
1, 588324, Control_c, 0, 64, 64
1, 588339, Control_c, 0, 64, 0
1, 588364, Note_on_c, 0, 78, 111
1, 588367, Note_on_c, 0, 38, 105
1, 588367, Note_on_c, 0, 90, 104
1, 588372, Note_on_c, 0, 26, 89
1, 588383, Control_c, 0, 64, 59
1, 588394, Note_off_c, 0, 90, 68
1, 588397, Note_off_c, 0, 26, 68
1, 588398, Control_c, 0, 64, 127
1, 588403, Note_off_c, 0, 78, 65
1, 588410, Note_off_c, 0, 38, 68
1, 588562, Note_on_c, 0, 62, 74
1, 588571, Note_on_c, 0, 66, 71
1, 588587, Note_on_c, 0, 74, 70
1, 588591, Note_on_c, 0, 69, 63
1, 588592, Note_on_c, 0, 78, 56
1, 588592, Note_off_c, 0, 62, 60
1, 588592, Note_off_c, 0, 66, 66
1, 588596, Note_on_c, 0, 57, 10
1, 588610, Note_off_c, 0, 78, 67
1, 588611, Note_off_c, 0, 74, 70
1, 588614, Note_off_c, 0, 69, 65
1, 588632, Note_off_c, 0, 57, 51
1, 588652, Note_on_c, 0, 66, 80
1, 588656, Note_on_c, 0, 62, 81
1, 588663, Note_on_c, 0, 57, 64
1, 588668, Note_on_c, 0, 78, 80
1, 588670, Note_on_c, 0, 74, 80
1, 588674, Note_on_c, 0, 69, 68
1, 588677, Note_off_c, 0, 66, 68
1, 588687, Note_off_c, 0, 62, 59
1, 588693, Note_off_c, 0, 69, 67
1, 588697, Note_off_c, 0, 74, 68
1, 588710, Note_off_c, 0, 57, 63
1, 588723, Note_off_c, 0, 78, 62
1, 588940, Control_c, 0, 64, 74
1, 588948, Note_on_c, 0, 45, 108
1, 588951, Note_on_c, 0, 76, 108
1, 588953, Note_on_c, 0, 81, 92
1, 588955, Note_on_c, 0, 86, 97
1, 588955, Note_on_c, 0, 88, 104
1, 588955, Control_c, 0, 64, 0
1, 588957, Note_on_c, 0, 40, 86
1, 588957, Note_on_c, 0, 33, 90
1, 588959, Note_on_c, 0, 38, 86
1, 588999, Control_c, 0, 64, 46
1, 589004, Note_off_c, 0, 33, 61
1, 589006, Note_off_c, 0, 88, 67
1, 589013, Note_off_c, 0, 38, 64
1, 589014, Control_c, 0, 64, 127
1, 589019, Note_off_c, 0, 86, 65
1, 589020, Note_off_c, 0, 45, 67
1, 589024, Note_off_c, 0, 40, 64
1, 589025, Note_off_c, 0, 81, 64
1, 589031, Note_off_c, 0, 76, 61
1, 589182, Note_on_c, 0, 76, 68
1, 589186, Note_on_c, 0, 74, 58
1, 589189, Note_on_c, 0, 62, 67
1, 589193, Note_on_c, 0, 69, 48
1, 589203, Note_off_c, 0, 76, 62
1, 589206, Note_off_c, 0, 74, 64
1, 589217, Note_off_c, 0, 62, 64
1, 589221, Note_off_c, 0, 69, 57
1, 589247, Poly_aftertouch_c, 0, 57, 127
1, 589250, Poly_aftertouch_c, 0, 64, 127
1, 589258, Note_on_c, 0, 62, 83
1, 589262, Note_on_c, 0, 76, 80
1, 589264, Note_on_c, 0, 69, 73
1, 589265, Note_on_c, 0, 74, 89
1, 589285, Note_off_c, 0, 62, 61
1, 589288, Note_off_c, 0, 76, 62
1, 589294, Note_off_c, 0, 69, 63
1, 589294, Poly_aftertouch_c, 0, 64, 0
1, 589296, Note_off_c, 0, 74, 64
1, 589311, Poly_aftertouch_c, 0, 57, 0
1, 589457, Note_on_c, 0, 64, 67
1, 589461, Note_on_c, 0, 50, 55
1, 589462, Note_on_c, 0, 52, 53
1, 589463, Note_on_c, 0, 57, 48
1, 589464, Note_on_c, 0, 62, 61
1, 589471, Note_on_c, 0, 69, 45
1, 589481, Note_off_c, 0, 64, 68
1, 589484, Note_off_c, 0, 62, 65
1, 589488, Note_off_c, 0, 57, 58
1, 589497, Note_off_c, 0, 50, 64
1, 589497, Note_off_c, 0, 52, 58
1, 589505, Note_off_c, 0, 69, 57
1, 589539, Note_on_c, 0, 64, 79
1, 589539, Note_on_c, 0, 69, 75
1, 589542, Note_on_c, 0, 57, 74
1, 589544, Note_on_c, 0, 62, 83
1, 589548, Note_on_c, 0, 52, 71
1, 589549, Note_on_c, 0, 50, 80
1, 589567, Note_off_c, 0, 57, 65
1, 589580, Note_off_c, 0, 52, 63
1, 589585, Note_off_c, 0, 64, 64
1, 589588, Note_off_c, 0, 62, 57
1, 589589, Note_off_c, 0, 69, 62
1, 589599, Note_off_c, 0, 50, 65
1, 589732, Note_on_c, 0, 50, 74
1, 589737, Note_on_c, 0, 57, 71
1, 589739, Note_on_c, 0, 52, 70
1, 589739, Note_on_c, 0, 62, 64
1, 589744, Note_on_c, 0, 64, 56
1, 589760, Note_off_c, 0, 50, 65
1, 589764, Note_off_c, 0, 57, 64
1, 589765, Note_off_c, 0, 52, 68
1, 589771, Note_off_c, 0, 64, 69
1, 589772, Note_off_c, 0, 62, 61
1, 589797, Poly_aftertouch_c, 0, 45, 127
1, 589815, Note_on_c, 0, 50, 80
1, 589817, Note_on_c, 0, 52, 76
1, 589822, Note_on_c, 0, 57, 77
1, 589829, Note_on_c, 0, 64, 76
1, 589832, Note_on_c, 0, 62, 77
1, 589842, Note_off_c, 0, 52, 66
1, 589845, Note_off_c, 0, 57, 67
1, 589858, Note_off_c, 0, 50, 64
1, 589865, Note_off_c, 0, 62, 62
1, 589875, Note_off_c, 0, 64, 64
1, 589883, Poly_aftertouch_c, 0, 45, 0
1, 590088, Control_c, 0, 64, 103
1, 590103, Control_c, 0, 64, 40
1, 590105, Note_on_c, 0, 45, 100
1, 590107, Note_on_c, 0, 76, 110
1, 590108, Note_on_c, 0, 81, 86
1, 590108, Note_on_c, 0, 88, 95
1, 590110, Note_on_c, 0, 40, 81
1, 590111, Note_on_c, 0, 33, 85
1, 590111, Note_on_c, 0, 37, 83
1, 590111, Note_on_c, 0, 85, 86
1, 590119, Control_c, 0, 64, 0
1, 590144, Note_off_c, 0, 33, 63
1, 590149, Control_c, 0, 64, 32
1, 590163, Note_off_c, 0, 40, 59
1, 590163, Control_c, 0, 64, 103
1, 590164, Note_off_c, 0, 37, 65
1, 590164, Note_off_c, 0, 88, 65
1, 590175, Note_off_c, 0, 45, 64
1, 590178, Control_c, 0, 64, 127
1, 590181, Note_off_c, 0, 81, 63
1, 590185, Note_off_c, 0, 85, 63
1, 590190, Note_off_c, 0, 76, 64
1, 590340, Note_on_c, 0, 76, 66
1, 590340, Note_on_c, 0, 61, 65
1, 590342, Note_on_c, 0, 73, 63
1, 590349, Note_on_c, 0, 69, 50
1, 590350, Note_on_c, 0, 57, 44
1, 590355, Note_on_c, 0, 64, 44
1, 590360, Note_off_c, 0, 76, 65
1, 590361, Note_off_c, 0, 73, 65
1, 590367, Note_off_c, 0, 61, 64
1, 590373, Note_off_c, 0, 69, 58
1, 590377, Note_off_c, 0, 57, 56
1, 590381, Note_off_c, 0, 64, 57
1, 590411, Note_on_c, 0, 64, 65
1, 590415, Note_on_c, 0, 57, 69
1, 590417, Note_on_c, 0, 69, 72
1, 590417, Note_on_c, 0, 76, 84
1, 590418, Note_on_c, 0, 61, 75
1, 590427, Note_on_c, 0, 73, 73
1, 590436, Note_off_c, 0, 64, 67
1, 590444, Note_off_c, 0, 76, 59
1, 590444, Note_off_c, 0, 61, 64
1, 590450, Note_off_c, 0, 69, 62
1, 590451, Note_off_c, 0, 57, 62
1, 590453, Note_off_c, 0, 73, 66
1, 590600, Note_on_c, 0, 52, 74
1, 590606, Note_on_c, 0, 57, 64
1, 590608, Note_on_c, 0, 49, 58
1, 590608, Note_on_c, 0, 69, 61
1, 590617, Note_on_c, 0, 64, 46
1, 590620, Note_on_c, 0, 61, 51
1, 590626, Note_off_c, 0, 52, 64
1, 590626, Note_off_c, 0, 57, 65
1, 590630, Note_off_c, 0, 69, 62
1, 590637, Note_off_c, 0, 49, 57
1, 590638, Note_off_c, 0, 61, 64
1, 590646, Note_off_c, 0, 64, 55
1, 590677, Note_on_c, 0, 52, 84
1, 590681, Note_on_c, 0, 64, 67
1, 590683, Note_on_c, 0, 69, 72
1, 590686, Note_on_c, 0, 61, 79
1, 590686, Note_on_c, 0, 57, 71
1, 590689, Note_on_c, 0, 49, 81
1, 590707, Note_off_c, 0, 69, 67
1, 590708, Note_off_c, 0, 57, 70
1, 590720, Note_off_c, 0, 52, 63
1, 590728, Note_off_c, 0, 64, 62
1, 590736, Note_off_c, 0, 61, 62
1, 590738, Note_off_c, 0, 49, 61
1, 590857, Note_on_c, 0, 49, 81
1, 590865, Note_on_c, 0, 64, 72
1, 590868, Note_on_c, 0, 52, 69
1, 590873, Note_on_c, 0, 57, 66
1, 590874, Note_on_c, 0, 61, 56
1, 590875, Note_on_c, 0, 45, 53
1, 590880, Note_off_c, 0, 49, 67
1, 590891, Note_off_c, 0, 52, 69
1, 590894, Note_off_c, 0, 64, 61
1, 590894, Note_off_c, 0, 57, 69
1, 590895, Note_off_c, 0, 45, 63
1, 590902, Note_off_c, 0, 61, 61
1, 590942, Note_on_c, 0, 49, 73
1, 590950, Note_on_c, 0, 45, 83
1, 590951, Note_on_c, 0, 52, 74
1, 590957, Note_on_c, 0, 64, 74
1, 590961, Note_on_c, 0, 57, 73
1, 590966, Note_on_c, 0, 61, 75
1, 590979, Note_off_c, 0, 52, 64
1, 590984, Note_off_c, 0, 57, 68
1, 590987, Note_off_c, 0, 49, 66
1, 591002, Note_off_c, 0, 61, 61
1, 591006, Note_off_c, 0, 45, 65
1, 591014, Note_off_c, 0, 64, 67
1, 591216, Control_c, 0, 64, 74
1, 591231, Control_c, 0, 64, 0
1, 591244, Note_on_c, 0, 47, 97
1, 591247, Note_on_c, 0, 42, 89
1, 591247, Note_on_c, 0, 74, 108
1, 591249, Note_on_c, 0, 35, 83
1, 591249, Note_on_c, 0, 78, 92
1, 591249, Note_on_c, 0, 83, 94
1, 591251, Note_on_c, 0, 38, 81
1, 591251, Note_on_c, 0, 86, 93
1, 591276, Control_c, 0, 64, 62
1, 591281, Note_off_c, 0, 35, 67
1, 591285, Note_off_c, 0, 86, 64
1, 591291, Control_c, 0, 64, 85
1, 591303, Note_off_c, 0, 83, 63
1, 591305, Note_off_c, 0, 38, 60
1, 591306, Control_c, 0, 64, 127
1, 591310, Note_off_c, 0, 42, 64
1, 591315, Note_off_c, 0, 78, 66
1, 591315, Note_off_c, 0, 47, 66
1, 591315, Note_off_c, 0, 74, 66
1, 591489, Note_on_c, 0, 71, 60
1, 591491, Note_on_c, 0, 66, 55
1, 591497, Note_on_c, 0, 62, 50
1, 591505, Note_on_c, 0, 50, 28
1, 591512, Note_on_c, 0, 54, 27
1, 591514, Note_off_c, 0, 66, 63
1, 591519, Note_off_c, 0, 71, 65
1, 591526, Note_off_c, 0, 62, 54
1, 591541, Note_off_c, 0, 50, 0
1, 591550, Note_on_c, 0, 59, 45
1, 591557, Note_off_c, 0, 54, 0
1, 591557, Note_on_c, 0, 54, 56
1, 591557, Note_on_c, 0, 62, 75
1, 591559, Note_on_c, 0, 50, 73
1, 591559, Note_on_c, 0, 71, 77
1, 591570, Note_on_c, 0, 66, 83
1, 591596, Note_off_c, 0, 62, 60
1, 591605, Note_off_c, 0, 59, 61
1, 591616, Note_off_c, 0, 66, 59
1, 591626, Note_off_c, 0, 71, 65
1, 591626, Note_off_c, 0, 54, 65
1, 591629, Note_off_c, 0, 50, 67
1, 591862, Control_c, 0, 64, 119
1, 591869, Note_on_c, 0, 49, 103
1, 591872, Note_on_c, 0, 73, 107
1, 591875, Note_on_c, 0, 37, 89
1, 591875, Note_on_c, 0, 80, 88
1, 591876, Note_on_c, 0, 77, 88
1, 591876, Note_on_c, 0, 85, 99
1, 591877, Note_on_c, 0, 44, 85
1, 591877, Control_c, 0, 64, 66
1, 591878, Note_on_c, 0, 41, 84
1, 591892, Control_c, 0, 64, 0
1, 591928, Note_off_c, 0, 37, 65
1, 591928, Note_off_c, 0, 85, 67
1, 591936, Control_c, 0, 64, 127
1, 591938, Note_off_c, 0, 77, 61
1, 591940, Note_off_c, 0, 80, 62
1, 591941, Note_off_c, 0, 41, 64
1, 591953, Note_off_c, 0, 73, 59
1, 591953, Note_off_c, 0, 44, 63
1, 591954, Note_off_c, 0, 49, 61
1, 592177, Note_on_c, 0, 65, 74
1, 592178, Note_on_c, 0, 61, 79
1, 592183, Note_on_c, 0, 56, 74
1, 592185, Note_on_c, 0, 53, 67
1, 592185, Note_on_c, 0, 73, 78
1, 592187, Note_on_c, 0, 68, 72
1, 592205, Note_off_c, 0, 61, 65
1, 592207, Note_off_c, 0, 65, 63
1, 592210, Note_off_c, 0, 56, 68
1, 592211, Note_off_c, 0, 68, 66
1, 592216, Note_off_c, 0, 73, 62
1, 592218, Note_off_c, 0, 53, 65
1, 592257, Note_on_c, 0, 68, 90
1, 592261, Note_on_c, 0, 73, 87
1, 592263, Note_on_c, 0, 61, 99
1, 592263, Note_on_c, 0, 65, 87
1, 592266, Note_on_c, 0, 53, 87
1, 592267, Note_on_c, 0, 56, 90
1, 592287, Note_off_c, 0, 65, 65
1, 592302, Note_off_c, 0, 61, 65
1, 592307, Note_off_c, 0, 68, 63
1, 592313, Note_off_c, 0, 53, 66
1, 592317, Note_off_c, 0, 73, 64
1, 592323, Note_off_c, 0, 56, 64
1, 592542, Note_on_c, 0, 71, 103
1, 592543, Note_on_c, 0, 83, 102
1, 592566, Note_on_c, 0, 82, 65
1, 592573, Note_off_c, 0, 71, 68
1, 592584, Note_off_c, 0, 83, 57
1, 592585, Note_off_c, 0, 82, 65
1, 592715, Control_c, 0, 64, 90
1, 592729, Control_c, 0, 64, 56
1, 592744, Control_c, 0, 64, 0
1, 592786, Note_on_c, 0, 42, 100
1, 592786, Note_on_c, 0, 70, 100
1, 592787, Note_on_c, 0, 82, 91
1, 592791, Note_on_c, 0, 30, 76
1, 592803, Control_c, 0, 64, 67
1, 592813, Note_off_c, 0, 82, 65
1, 592817, Note_off_c, 0, 30, 64
1, 592818, Control_c, 0, 64, 103
1, 592820, Note_off_c, 0, 42, 64
1, 592828, Note_off_c, 0, 70, 66
1, 592833, Control_c, 0, 64, 127
1, 592838, Note_on_c, 0, 80, 26
1, 592875, Note_off_c, 0, 80, 53
1, 593014, Note_on_c, 0, 58, 68
1, 593017, Note_on_c, 0, 49, 73
1, 593020, Note_on_c, 0, 61, 69
1, 593023, Note_on_c, 0, 54, 57
1, 593023, Note_on_c, 0, 70, 71
1, 593031, Note_on_c, 0, 66, 63
1, 593038, Note_off_c, 0, 58, 66
1, 593043, Note_off_c, 0, 61, 66
1, 593047, Note_off_c, 0, 54, 66
1, 593053, Note_off_c, 0, 49, 67
1, 593053, Note_off_c, 0, 66, 65
1, 593058, Note_off_c, 0, 70, 63
1, 593182, Note_on_c, 0, 46, 98
1, 593184, Note_on_c, 0, 85, 95
1, 593185, Note_on_c, 0, 73, 103
1, 593189, Note_on_c, 0, 34, 78
1, 593205, Note_off_c, 0, 46, 67
1, 593215, Note_off_c, 0, 85, 62
1, 593216, Note_off_c, 0, 73, 68
1, 593218, Note_off_c, 0, 34, 63
1, 593348, Note_on_c, 0, 61, 82
1, 593357, Note_on_c, 0, 54, 68
1, 593361, Note_on_c, 0, 58, 62
1, 593361, Note_on_c, 0, 73, 71
1, 593364, Note_on_c, 0, 66, 59
1, 593367, Note_on_c, 0, 70, 57
1, 593373, Note_off_c, 0, 61, 66
1, 593381, Note_off_c, 0, 58, 66
1, 593385, Note_off_c, 0, 54, 66
1, 593385, Note_off_c, 0, 66, 63
1, 593386, Note_off_c, 0, 70, 66
1, 593388, Note_off_c, 0, 73, 66
1, 593506, Note_on_c, 0, 49, 99
1, 593509, Note_on_c, 0, 90, 95
1, 593510, Note_on_c, 0, 78, 106
1, 593520, Note_on_c, 0, 37, 57
1, 593524, Note_off_c, 0, 49, 72
1, 593527, Note_off_c, 0, 90, 69
1, 593537, Note_off_c, 0, 78, 68
1, 593548, Note_off_c, 0, 37, 60
1, 593586, Poly_aftertouch_c, 0, 39, 127
1, 593608, Poly_aftertouch_c, 0, 51, 0
1, 593631, Poly_aftertouch_c, 0, 39, 0
1, 593659, Note_on_c, 0, 66, 88
1, 593660, Poly_aftertouch_c, 0, 49, 0
1, 593661, Note_on_c, 0, 58, 82
1, 593669, Note_on_c, 0, 68, 81
1, 593679, Note_off_c, 0, 66, 70
1, 593689, Note_off_c, 0, 68, 71
1, 593693, Note_off_c, 0, 58, 58
1, 593699, Note_on_c, 0, 77, 41
1, 593728, Poly_aftertouch_c, 0, 63, 127
1, 593731, Note_off_c, 0, 77, 55
1, 593738, Poly_aftertouch_c, 0, 73, 127
1, 593772, Poly_aftertouch_c, 0, 63, 0
1, 593776, Poly_aftertouch_c, 0, 73, 0
1, 593828, Note_on_c, 0, 94, 100
1, 593828, Note_on_c, 0, 54, 106
1, 593831, Note_on_c, 0, 82, 117
1, 593831, Note_on_c, 0, 42, 87
1, 593854, Note_off_c, 0, 42, 66
1, 593857, Note_off_c, 0, 82, 67
1, 593857, Note_off_c, 0, 54, 64
1, 593863, Note_off_c, 0, 94, 67
1, 593940, Poly_aftertouch_c, 0, 83, 0
1, 593991, Note_on_c, 0, 73, 88
1, 594001, Note_on_c, 0, 70, 86
1, 594004, Note_on_c, 0, 80, 63
1, 594006, Note_on_c, 0, 66, 73
1, 594007, Note_on_c, 0, 61, 75
1, 594012, Note_off_c, 0, 73, 70
1, 594018, Note_off_c, 0, 70, 73
1, 594022, Note_on_c, 0, 78, 37
1, 594022, Note_off_c, 0, 80, 67
1, 594031, Note_off_c, 0, 66, 66
1, 594039, Note_off_c, 0, 61, 64
1, 594054, Note_off_c, 0, 78, 56
1, 594212, Control_c, 0, 64, 81
1, 594227, Control_c, 0, 64, 0
1, 594235, Note_on_c, 0, 86, 104
1, 594237, Note_on_c, 0, 98, 105
1, 594242, Note_on_c, 0, 50, 105
1, 594248, Note_on_c, 0, 38, 89
1, 594258, Note_off_c, 0, 98, 71
1, 594268, Note_off_c, 0, 86, 72
1, 594272, Control_c, 0, 64, 127
1, 594284, Note_on_c, 0, 97, 30
1, 594285, Note_off_c, 0, 97, 127
1, 594293, Note_on_c, 0, 96, 52
1, 594299, Note_off_c, 0, 96, 0
1, 594299, Note_on_c, 0, 96, 31
1, 594335, Note_off_c, 0, 50, 61
1, 594352, Note_on_c, 0, 44, 80
1, 594352, Note_off_c, 0, 96, 27
1, 594402, Note_on_c, 0, 47, 60
1, 594451, Note_on_c, 0, 50, 72
1, 594498, Note_on_c, 0, 53, 79
1, 594515, Note_off_c, 0, 38, 55
1, 594555, Note_off_c, 0, 53, 65
1, 594558, Note_on_c, 0, 56, 69
1, 594568, Note_on_c, 0, 59, 70
1, 594594, Note_on_c, 0, 65, 67
1, 594625, Note_off_c, 0, 50, 51
1, 594636, Note_off_c, 0, 59, 62
1, 594637, Note_off_c, 0, 56, 62
1, 594642, Note_on_c, 0, 53, 78
1, 594658, Note_off_c, 0, 65, 62
1, 594660, Note_off_c, 0, 47, 55
1, 594665, Note_off_c, 0, 53, 70
1, 594707, Note_off_c, 0, 44, 37
1, 594772, Note_on_c, 0, 50, 76
1, 594784, Note_on_c, 0, 59, 105
1, 594787, Note_on_c, 0, 71, 102
1, 594817, Note_off_c, 0, 59, 68
1, 594826, Note_off_c, 0, 71, 65
1, 594834, Note_on_c, 0, 70, 22
1, 594873, Note_off_c, 0, 70, 53
1, 594877, Note_on_c, 0, 47, 72
1, 594879, Note_off_c, 0, 50, 59
1, 594926, Note_on_c, 0, 44, 74
1, 594963, Note_off_c, 0, 47, 63
1, 595014, Note_on_c, 0, 37, 81
1, 595030, Note_off_c, 0, 44, 61
1, 595065, Control_c, 0, 64, 98
1, 595080, Control_c, 0, 64, 63
1, 595094, Control_c, 0, 64, 0
1, 595097, Note_on_c, 0, 62, 104
1, 595100, Note_on_c, 0, 74, 102
1, 595130, Note_on_c, 0, 73, 51
1, 595154, Control_c, 0, 64, 86
1, 595156, Note_off_c, 0, 73, 37
1, 595168, Control_c, 0, 64, 127
1, 595213, Note_off_c, 0, 62, 56
1, 595220, Note_off_c, 0, 37, 61
1, 595238, Note_off_c, 0, 74, 61
1, 595239, Note_on_c, 0, 44, 66
1, 595321, Note_on_c, 0, 47, 71
1, 595360, Note_off_c, 0, 44, 57
1, 595387, Note_off_c, 0, 47, 64
1, 595424, Note_on_c, 0, 53, 71
1, 595426, Note_on_c, 0, 65, 109
1, 595427, Note_on_c, 0, 77, 99
1, 595457, Note_off_c, 0, 65, 69
1, 595461, Note_off_c, 0, 53, 60
1, 595473, Note_off_c, 0, 77, 66
1, 595536, Note_on_c, 0, 56, 65
1, 595601, Note_on_c, 0, 59, 71
1, 595637, Note_off_c, 0, 56, 61
1, 595661, Note_off_c, 0, 59, 62
1, 595679, Note_on_c, 0, 82, 105
1, 595681, Note_on_c, 0, 70, 108
1, 595685, Note_on_c, 0, 65, 78
1, 595733, Note_off_c, 0, 65, 64
1, 595777, Note_on_c, 0, 59, 52
1, 595783, Note_on_c, 0, 56, 72
1, 595800, Note_off_c, 0, 59, 59
1, 595810, Note_off_c, 0, 56, 68
1, 595870, Note_off_c, 0, 82, 61
1, 595882, Note_on_c, 0, 53, 68
1, 595886, Note_off_c, 0, 70, 57
1, 595922, Note_off_c, 0, 53, 62
1, 595947, Note_on_c, 0, 47, 63
1, 596014, Note_on_c, 0, 44, 77
1, 596022, Note_off_c, 0, 47, 64
1, 596040, Note_on_c, 0, 80, 82
1, 596042, Note_on_c, 0, 68, 87
1, 596075, Note_off_c, 0, 44, 62
1, 596078, Note_off_c, 0, 80, 59
1, 596084, Note_off_c, 0, 68, 60
1, 596108, Control_c, 0, 64, 71
1, 596123, Control_c, 0, 64, 0
1, 596162, Note_on_c, 0, 42, 83
1, 596165, Note_on_c, 0, 78, 80
1, 596168, Note_on_c, 0, 66, 79
1, 596168, Note_on_c, 0, 70, 71
1, 596168, Note_on_c, 0, 73, 70
1, 596186, Note_off_c, 0, 42, 67
1, 596197, Control_c, 0, 64, 124
1, 596212, Control_c, 0, 64, 127
1, 596236, Note_off_c, 0, 66, 56
1, 596242, Note_off_c, 0, 78, 64
1, 596244, Note_off_c, 0, 70, 61
1, 596246, Note_off_c, 0, 73, 60
1, 596354, Note_on_c, 0, 66, 68
1, 596358, Note_on_c, 0, 78, 66
1, 596361, Note_on_c, 0, 73, 69
1, 596369, Note_on_c, 0, 70, 53
1, 596390, Note_off_c, 0, 66, 50
1, 596397, Note_off_c, 0, 73, 61
1, 596397, Note_off_c, 0, 70, 65
1, 596400, Note_off_c, 0, 78, 50
1, 596497, Note_on_c, 0, 63, 74
1, 596497, Note_on_c, 0, 66, 65
1, 596498, Note_on_c, 0, 73, 73
1, 596501, Note_on_c, 0, 51, 71
1, 596510, Note_on_c, 0, 70, 45
1, 596513, Note_on_c, 0, 78, 50
1, 596520, Note_off_c, 0, 66, 65
1, 596522, Note_off_c, 0, 63, 69
1, 596525, Note_off_c, 0, 73, 65
1, 596529, Note_off_c, 0, 51, 67
1, 596534, Note_off_c, 0, 78, 63
1, 596538, Note_off_c, 0, 70, 58
1, 596625, Note_on_c, 0, 70, 76
1, 596626, Note_on_c, 0, 49, 82
1, 596630, Note_on_c, 0, 78, 66
1, 596640, Note_on_c, 0, 73, 65
1, 596644, Note_on_c, 0, 61, 46
1, 596652, Note_off_c, 0, 49, 67
1, 596656, Note_off_c, 0, 70, 61
1, 596669, Note_off_c, 0, 73, 66
1, 596671, Note_off_c, 0, 61, 61
1, 596674, Note_off_c, 0, 78, 57
1, 596679, Control_c, 0, 64, 93
1, 596694, Control_c, 0, 64, 74
1, 596709, Control_c, 0, 64, 70
1, 596724, Control_c, 0, 64, 79
1, 596738, Control_c, 0, 64, 97
1, 596743, Note_on_c, 0, 58, 83
1, 596744, Note_on_c, 0, 70, 81
1, 596746, Note_on_c, 0, 46, 82
1, 596748, Note_on_c, 0, 73, 70
1, 596753, Control_c, 0, 64, 127
1, 596759, Note_on_c, 0, 78, 62
1, 596767, Note_off_c, 0, 58, 67
1, 596768, Note_off_c, 0, 70, 66
1, 596773, Note_off_c, 0, 46, 64
1, 596780, Note_off_c, 0, 73, 65
1, 596786, Note_off_c, 0, 78, 68
1, 596850, Note_on_c, 0, 56, 84
1, 596851, Note_on_c, 0, 44, 85
1, 596852, Note_on_c, 0, 70, 67
1, 596855, Note_on_c, 0, 78, 68
1, 596871, Note_on_c, 0, 73, 49
1, 596874, Note_on_c, 0, 82, 62
1, 596874, Note_off_c, 0, 56, 69
1, 596877, Note_off_c, 0, 78, 71
1, 596879, Note_off_c, 0, 70, 65
1, 596880, Note_off_c, 0, 44, 65
1, 596895, Note_off_c, 0, 73, 60
1, 596899, Note_off_c, 0, 82, 66
1, 596953, Note_on_c, 0, 42, 91
1, 596953, Note_on_c, 0, 54, 89
1, 596955, Note_on_c, 0, 73, 99
1, 596960, Note_on_c, 0, 82, 81
1, 596972, Note_on_c, 0, 85, 71
1, 596974, Note_on_c, 0, 78, 64
1, 596984, Note_off_c, 0, 54, 69
1, 596988, Note_off_c, 0, 42, 66
1, 596996, Note_off_c, 0, 73, 59
1, 596999, Note_off_c, 0, 82, 56
1, 597001, Note_off_c, 0, 78, 68
1, 597003, Note_off_c, 0, 85, 69
1, 597024, Poly_aftertouch_c, 0, 44, 127
1, 597056, Poly_aftertouch_c, 0, 44, 0
1, 597066, Note_on_c, 0, 51, 94
1, 597068, Note_on_c, 0, 73, 98
1, 597073, Note_on_c, 0, 39, 79
1, 597074, Note_on_c, 0, 78, 73
1, 597080, Note_on_c, 0, 82, 82
1, 597082, Note_on_c, 0, 85, 70
1, 597087, Note_on_c, 0, 42, 39
1, 597094, Note_off_c, 0, 51, 61
1, 597101, Note_off_c, 0, 78, 62
1, 597104, Note_off_c, 0, 82, 65
1, 597105, Note_off_c, 0, 39, 62
1, 597105, Note_off_c, 0, 85, 69
1, 597112, Note_off_c, 0, 42, 61
1, 597112, Note_off_c, 0, 73, 59
1, 597172, Note_on_c, 0, 73, 87
1, 597174, Note_on_c, 0, 49, 91
1, 597178, Note_on_c, 0, 37, 86
1, 597181, Note_on_c, 0, 82, 83
1, 597182, Note_on_c, 0, 85, 80
1, 597188, Note_on_c, 0, 39, 50
1, 597189, Note_on_c, 0, 78, 70
1, 597190, Note_off_c, 0, 73, 71
1, 597198, Note_off_c, 0, 49, 67
1, 597202, Note_off_c, 0, 82, 66
1, 597205, Note_off_c, 0, 78, 70
1, 597208, Note_off_c, 0, 85, 64
1, 597211, Note_off_c, 0, 37, 64
1, 597212, Note_off_c, 0, 39, 62
1, 597274, Note_on_c, 0, 46, 94
1, 597275, Note_on_c, 0, 78, 96
1, 597280, Note_on_c, 0, 34, 88
1, 597286, Note_on_c, 0, 90, 88
1, 597287, Note_on_c, 0, 85, 88
1, 597288, Note_on_c, 0, 82, 86
1, 597308, Note_off_c, 0, 82, 68
1, 597309, Note_off_c, 0, 85, 67
1, 597310, Note_off_c, 0, 34, 64
1, 597311, Note_off_c, 0, 78, 64
1, 597313, Note_off_c, 0, 46, 61
1, 597331, Note_off_c, 0, 90, 59
1, 597376, Note_on_c, 0, 44, 101
1, 597381, Note_on_c, 0, 78, 102
1, 597384, Note_on_c, 0, 32, 88
1, 597388, Note_on_c, 0, 85, 91
1, 597390, Note_on_c, 0, 82, 85
1, 597390, Note_on_c, 0, 90, 72
1, 597406, Note_on_c, 0, 34, 55
1, 597417, Note_off_c, 0, 90, 64
1, 597423, Note_off_c, 0, 34, 67
1, 597424, Note_off_c, 0, 32, 62
1, 597425, Note_off_c, 0, 78, 64
1, 597425, Note_off_c, 0, 44, 63
1, 597430, Note_off_c, 0, 85, 63
1, 597432, Note_off_c, 0, 82, 62
1, 597484, Note_on_c, 0, 42, 96
1, 597486, Note_on_c, 0, 78, 92
1, 597491, Note_on_c, 0, 30, 90
1, 597495, Note_on_c, 0, 34, 57
1, 597497, Note_on_c, 0, 90, 84
1, 597500, Note_on_c, 0, 82, 67
1, 597500, Note_on_c, 0, 85, 68
1, 597515, Note_off_c, 0, 78, 56
1, 597518, Note_off_c, 0, 82, 66
1, 597524, Note_off_c, 0, 85, 69
1, 597527, Note_off_c, 0, 34, 62
1, 597530, Note_on_c, 0, 32, 33
1, 597540, Note_off_c, 0, 90, 65
1, 597565, Note_off_c, 0, 32, 51
1, 597566, Note_off_c, 0, 42, 63
1, 597592, Note_off_c, 0, 30, 57
1, 597601, Note_on_c, 0, 85, 63
1, 597619, Note_off_c, 0, 85, 66
1, 597679, Note_on_c, 0, 86, 88
1, 597679, Note_on_c, 0, 91, 94
1, 597683, Note_on_c, 0, 40, 99
1, 597683, Note_on_c, 0, 83, 107
1, 597685, Note_on_c, 0, 95, 99
1, 597692, Note_on_c, 0, 29, 79
1, 597706, Note_on_c, 0, 28, 58
1, 597710, Control_c, 0, 64, 71
1, 597719, Note_off_c, 0, 29, 64
1, 597721, Note_off_c, 0, 40, 63
1, 597733, Control_c, 0, 64, 0
1, 597749, Note_off_c, 0, 28, 53
1, 597762, Control_c, 0, 64, 73
1, 597777, Control_c, 0, 64, 127
1, 597813, Note_on_c, 0, 45, 92
1, 597826, Note_on_c, 0, 33, 69
1, 597837, Note_off_c, 0, 45, 67
1, 597837, Note_on_c, 0, 31, 46
1, 597855, Note_off_c, 0, 33, 57
1, 597875, Note_off_c, 0, 31, 51
1, 597923, Note_on_c, 0, 48, 99
1, 597930, Note_on_c, 0, 36, 85
1, 597943, Note_off_c, 0, 48, 71
1, 597954, Note_off_c, 0, 36, 63
1, 597983, Poly_aftertouch_c, 0, 45, 0
1, 598026, Note_on_c, 0, 52, 99
1, 598033, Note_on_c, 0, 40, 91
1, 598054, Note_off_c, 0, 52, 62
1, 598055, Note_off_c, 0, 40, 70
1, 598080, Note_off_c, 0, 86, 61
1, 598081, Note_on_c, 0, 46, 9
1, 598085, Note_off_c, 0, 95, 50
1, 598129, Note_on_c, 0, 55, 102
1, 598135, Note_on_c, 0, 43, 90
1, 598137, Note_off_c, 0, 46, 39
1, 598137, Note_off_c, 0, 91, 62
1, 598156, Note_off_c, 0, 55, 64
1, 598158, Note_off_c, 0, 83, 46
1, 598162, Note_off_c, 0, 43, 68
1, 598252, Control_c, 0, 64, 105
1, 598266, Control_c, 0, 64, 60
1, 598281, Control_c, 0, 64, 0
1, 598334, Note_on_c, 0, 85, 94
1, 598335, Note_on_c, 0, 81, 106
1, 598336, Note_on_c, 0, 45, 97
1, 598336, Note_on_c, 0, 90, 92
1, 598336, Note_on_c, 0, 93, 102
1, 598339, Note_on_c, 0, 33, 86
1, 598358, Note_off_c, 0, 45, 70
1, 598364, Note_off_c, 0, 33, 64
1, 598370, Control_c, 0, 64, 127
1, 598376, Note_on_c, 0, 34, 12
1, 598377, Note_off_c, 0, 34, 127
1, 598420, Poly_aftertouch_c, 0, 34, 0
1, 598448, Note_on_c, 0, 49, 98
1, 598449, Note_on_c, 0, 37, 68
1, 598456, Poly_aftertouch_c, 0, 45, 127
1, 598457, Note_on_c, 0, 45, 1
1, 598469, Note_off_c, 0, 49, 68
1, 598486, Note_off_c, 0, 37, 65
1, 598507, Note_off_c, 0, 45, 50
1, 598565, Note_on_c, 0, 52, 95
1, 598570, Note_on_c, 0, 40, 87
1, 598587, Note_off_c, 0, 52, 69
1, 598592, Note_off_c, 0, 40, 66
1, 598666, Note_off_c, 0, 93, 38
1, 598683, Note_on_c, 0, 57, 99
1, 598688, Note_on_c, 0, 45, 88
1, 598709, Note_off_c, 0, 45, 71
1, 598711, Note_off_c, 0, 57, 61
1, 598738, Note_off_c, 0, 90, 36
1, 598745, Note_off_c, 0, 81, 46
1, 598805, Note_on_c, 0, 61, 108
1, 598810, Note_on_c, 0, 49, 89
1, 598846, Note_off_c, 0, 85, 60
1, 598912, Note_on_c, 0, 79, 100
1, 598912, Note_on_c, 0, 91, 93
1, 598914, Note_on_c, 0, 88, 83
1, 598991, Note_off_c, 0, 49, 61
1, 598992, Note_off_c, 0, 61, 58
1, 598993, Note_off_c, 0, 91, 61
1, 598999, Note_off_c, 0, 79, 57
1, 599002, Note_off_c, 0, 88, 60
1, 599075, Control_c, 0, 64, 118
1, 599089, Note_on_c, 0, 62, 90
1, 599089, Control_c, 0, 64, 80
1, 599095, Note_on_c, 0, 50, 82
1, 599104, Control_c, 0, 64, 0
1, 599149, Note_on_c, 0, 78, 88
1, 599157, Note_on_c, 0, 90, 82
1, 599157, Note_on_c, 0, 86, 73
1, 599178, Control_c, 0, 64, 72
1, 599193, Control_c, 0, 64, 127
1, 599199, Note_off_c, 0, 62, 62
1, 599239, Note_off_c, 0, 50, 66
1, 599256, Note_off_c, 0, 86, 61
1, 599256, Note_off_c, 0, 90, 64
1, 599259, Note_off_c, 0, 78, 61
1, 599329, Note_on_c, 0, 78, 72
1, 599330, Note_on_c, 0, 90, 71
1, 599339, Note_on_c, 0, 86, 59
1, 599387, Note_off_c, 0, 78, 62
1, 599390, Note_on_c, 0, 50, 87
1, 599390, Note_off_c, 0, 90, 63
1, 599398, Note_off_c, 0, 86, 63
1, 599399, Note_on_c, 0, 38, 75
1, 599470, Note_on_c, 0, 78, 77
1, 599473, Note_on_c, 0, 86, 64
1, 599473, Note_on_c, 0, 90, 75
1, 599500, Note_off_c, 0, 50, 64
1, 599503, Note_off_c, 0, 90, 65
1, 599503, Note_off_c, 0, 86, 65
1, 599509, Note_off_c, 0, 38, 62
1, 599518, Note_off_c, 0, 78, 62
1, 599541, Control_c, 0, 64, 110
1, 599556, Control_c, 0, 64, 77
1, 599571, Control_c, 0, 64, 64
1, 599586, Control_c, 0, 64, 69
1, 599587, Note_on_c, 0, 49, 98
1, 599594, Note_on_c, 0, 37, 81
1, 599600, Control_c, 0, 64, 82
1, 599609, Note_on_c, 0, 74, 87
1, 599613, Note_on_c, 0, 86, 74
1, 599615, Control_c, 0, 64, 127
1, 599617, Note_on_c, 0, 78, 80
1, 599622, Note_off_c, 0, 37, 65
1, 599629, Note_off_c, 0, 49, 64
1, 599656, Note_off_c, 0, 74, 64
1, 599660, Note_off_c, 0, 86, 65
1, 599668, Note_off_c, 0, 78, 60
1, 599736, Note_on_c, 0, 74, 82
1, 599738, Note_on_c, 0, 78, 71
1, 599744, Note_on_c, 0, 86, 75
1, 599777, Note_off_c, 0, 74, 61
1, 599783, Note_on_c, 0, 61, 100
1, 599786, Note_on_c, 0, 49, 86
1, 599787, Note_off_c, 0, 78, 64
1, 599787, Note_off_c, 0, 86, 64
1, 599846, Note_off_c, 0, 61, 60
1, 599853, Note_off_c, 0, 49, 60
1, 599867, Note_on_c, 0, 86, 80
1, 599868, Note_on_c, 0, 74, 77
1, 599875, Note_on_c, 0, 78, 64
1, 599882, Note_off_c, 0, 74, 72
1, 599889, Note_off_c, 0, 86, 68
1, 599893, Note_off_c, 0, 78, 64
1, 599927, Control_c, 0, 64, 93
1, 599942, Control_c, 0, 64, 55
1, 599956, Control_c, 0, 64, 0
1, 599960, Note_on_c, 0, 59, 96
1, 599965, Note_on_c, 0, 47, 93
1, 599965, Note_on_c, 0, 78, 93
1, 599971, Control_c, 0, 64, 36
1, 599982, Note_on_c, 0, 86, 80
1, 599983, Note_on_c, 0, 90, 84
1, 599994, Control_c, 0, 64, 72
1, 600007, Note_off_c, 0, 59, 65
1, 600009, Control_c, 0, 64, 105
1, 600022, Note_off_c, 0, 78, 62
1, 600023, Note_off_c, 0, 47, 67
1, 600024, Control_c, 0, 64, 127
1, 600027, Note_off_c, 0, 86, 55
1, 600038, Note_off_c, 0, 90, 62
1, 600080, Poly_aftertouch_c, 0, 90, 0
1, 600088, Note_on_c, 0, 78, 87
1, 600088, Note_on_c, 0, 90, 70
1, 600094, Note_on_c, 0, 86, 73
1, 600132, Note_off_c, 0, 78, 62
1, 600144, Note_off_c, 0, 90, 63
1, 600146, Note_on_c, 0, 47, 94
1, 600149, Note_off_c, 0, 86, 64
1, 600152, Note_on_c, 0, 35, 91
1, 600198, Note_off_c, 0, 47, 65
1, 600198, Note_off_c, 0, 35, 60
1, 600207, Note_on_c, 0, 78, 79
1, 600209, Note_on_c, 0, 86, 64
1, 600209, Note_on_c, 0, 90, 75
1, 600228, Note_off_c, 0, 78, 69
1, 600232, Note_off_c, 0, 86, 69
1, 600252, Note_off_c, 0, 90, 66
1, 600260, Control_c, 0, 64, 95
1, 600275, Control_c, 0, 64, 68
1, 600289, Control_c, 0, 64, 54
1, 600304, Control_c, 0, 64, 68
1, 600305, Note_on_c, 0, 45, 95
1, 600308, Note_on_c, 0, 33, 83
1, 600311, Note_on_c, 0, 81, 95
1, 600315, Note_on_c, 0, 85, 91
1, 600316, Note_on_c, 0, 93, 88
1, 600319, Control_c, 0, 64, 87
1, 600324, Note_on_c, 0, 90, 73
1, 600327, Note_off_c, 0, 45, 70
1, 600334, Note_off_c, 0, 33, 63
1, 600334, Control_c, 0, 64, 127
1, 600341, Note_off_c, 0, 81, 54
1, 600346, Note_off_c, 0, 90, 72
1, 600352, Note_off_c, 0, 85, 57
1, 600359, Note_off_c, 0, 93, 62
1, 600416, Note_on_c, 0, 81, 85
1, 600416, Poly_aftertouch_c, 0, 92, 0
1, 600417, Note_on_c, 0, 93, 73
1, 600420, Note_on_c, 0, 90, 84
1, 600421, Note_on_c, 0, 85, 75
1, 600424, Note_on_c, 0, 45, 3
1, 600449, Note_off_c, 0, 85, 62
1, 600452, Note_off_c, 0, 81, 56
1, 600455, Note_off_c, 0, 45, 0
1, 600460, Note_off_c, 0, 90, 62
1, 600470, Note_on_c, 0, 45, 66
1, 600470, Note_on_c, 0, 57, 94
1, 600471, Note_off_c, 0, 93, 62
1, 600498, Note_off_c, 0, 57, 61
1, 600508, Note_off_c, 0, 45, 64
1, 600538, Note_on_c, 0, 81, 67
1, 600538, Note_on_c, 0, 90, 69
1, 600540, Note_on_c, 0, 93, 62
1, 600541, Note_on_c, 0, 85, 72
1, 600542, Control_c, 0, 64, 84
1, 600555, Note_off_c, 0, 81, 64
1, 600556, Note_off_c, 0, 85, 67
1, 600557, Control_c, 0, 64, 21
1, 600565, Note_off_c, 0, 90, 67
1, 600565, Note_off_c, 0, 93, 56
1, 600571, Control_c, 0, 64, 0
1, 600632, Note_on_c, 0, 56, 87
1, 600633, Note_on_c, 0, 44, 78
1, 600636, Note_on_c, 0, 86, 73
1, 600638, Note_on_c, 0, 83, 71
1, 600640, Note_on_c, 0, 95, 67
1, 600648, Note_on_c, 0, 90, 58
1, 600655, Note_off_c, 0, 83, 67
1, 600664, Note_off_c, 0, 86, 65
1, 600667, Note_off_c, 0, 95, 56
1, 600670, Note_off_c, 0, 90, 62
1, 600675, Control_c, 0, 64, 101
1, 600690, Control_c, 0, 64, 127
1, 600742, Note_on_c, 0, 83, 66
1, 600748, Note_on_c, 0, 86, 78
1, 600748, Note_on_c, 0, 90, 73
1, 600752, Note_off_c, 0, 56, 64
1, 600760, Note_on_c, 0, 95, 54
1, 600770, Note_off_c, 0, 83, 65
1, 600770, Note_off_c, 0, 86, 69
1, 600771, Note_off_c, 0, 90, 67
1, 600782, Note_off_c, 0, 95, 60
1, 600788, Note_off_c, 0, 44, 63
1, 600851, Note_on_c, 0, 83, 70
1, 600851, Note_on_c, 0, 95, 69
1, 600852, Note_on_c, 0, 86, 79
1, 600864, Note_on_c, 0, 90, 58
1, 600864, Note_off_c, 0, 83, 69
1, 600872, Note_off_c, 0, 86, 70
1, 600872, Note_off_c, 0, 95, 56
1, 600883, Note_off_c, 0, 90, 64
1, 600940, Note_on_c, 0, 83, 75
1, 600946, Note_on_c, 0, 86, 89
1, 600947, Note_on_c, 0, 95, 72
1, 600948, Note_on_c, 0, 44, 98
1, 600949, Note_on_c, 0, 90, 79
1, 600950, Control_c, 0, 64, 98
1, 600955, Note_on_c, 0, 32, 87
1, 600965, Control_c, 0, 64, 70
1, 600972, Note_off_c, 0, 83, 60
1, 600979, Note_off_c, 0, 90, 61
1, 600979, Note_off_c, 0, 95, 63
1, 600979, Control_c, 0, 64, 49
1, 600980, Note_off_c, 0, 86, 61
1, 600994, Control_c, 0, 64, 63
1, 601009, Control_c, 0, 64, 72
1, 601024, Control_c, 0, 64, 85
1, 601038, Control_c, 0, 64, 109
1, 601049, Note_on_c, 0, 83, 82
1, 601052, Note_on_c, 0, 86, 81
1, 601053, Control_c, 0, 64, 127
1, 601056, Note_on_c, 0, 95, 70
1, 601059, Note_on_c, 0, 90, 77
1, 601071, Note_off_c, 0, 83, 64
1, 601081, Note_off_c, 0, 95, 54
1, 601083, Note_off_c, 0, 90, 66
1, 601092, Note_off_c, 0, 86, 64
1, 601152, Note_on_c, 0, 83, 78
1, 601155, Note_on_c, 0, 86, 80
1, 601160, Note_on_c, 0, 95, 62
1, 601160, Note_off_c, 0, 44, 61
1, 601163, Note_on_c, 0, 90, 80
1, 601170, Note_off_c, 0, 83, 74
1, 601172, Note_off_c, 0, 32, 58
1, 601182, Note_off_c, 0, 86, 64
1, 601182, Note_off_c, 0, 95, 57
1, 601189, Note_off_c, 0, 90, 63
1, 601231, Control_c, 0, 64, 75
1, 601246, Control_c, 0, 64, 0
1, 601248, Note_on_c, 0, 43, 98
1, 601254, Note_on_c, 0, 31, 91
1, 601254, Note_on_c, 0, 83, 88
1, 601254, Note_on_c, 0, 86, 94
1, 601258, Note_on_c, 0, 95, 71
1, 601261, Note_on_c, 0, 89, 79
1, 601271, Note_off_c, 0, 83, 71
1, 601276, Control_c, 0, 64, 62
1, 601277, Note_off_c, 0, 43, 66
1, 601280, Note_off_c, 0, 95, 55
1, 601283, Note_off_c, 0, 31, 65
1, 601284, Note_off_c, 0, 89, 65
1, 601284, Note_off_c, 0, 86, 67
1, 601291, Control_c, 0, 64, 85
1, 601307, Control_c, 0, 64, 127
1, 601348, Note_on_c, 0, 83, 86
1, 601351, Note_on_c, 0, 86, 88
1, 601359, Note_on_c, 0, 89, 84
1, 601361, Note_on_c, 0, 95, 64
1, 601372, Note_off_c, 0, 83, 65
1, 601388, Note_off_c, 0, 86, 67
1, 601388, Note_off_c, 0, 89, 60
1, 601394, Note_off_c, 0, 95, 66
1, 601455, Note_on_c, 0, 83, 91
1, 601458, Note_on_c, 0, 86, 86
1, 601465, Note_on_c, 0, 89, 76
1, 601478, Note_on_c, 0, 95, 63
1, 601484, Note_off_c, 0, 83, 62
1, 601494, Note_off_c, 0, 89, 66
1, 601503, Note_off_c, 0, 86, 62
1, 601506, Note_off_c, 0, 95, 68
1, 601564, Note_on_c, 0, 83, 94
1, 601566, Note_on_c, 0, 86, 89
1, 601566, Note_on_c, 0, 55, 94
1, 601568, Note_on_c, 0, 43, 94
1, 601572, Note_on_c, 0, 95, 84
1, 601573, Note_on_c, 0, 89, 88
1, 601587, Note_off_c, 0, 55, 72
1, 601602, Note_off_c, 0, 43, 62
1, 601603, Note_off_c, 0, 83, 58
1, 601608, Note_off_c, 0, 86, 67
1, 601617, Note_off_c, 0, 89, 60
1, 601623, Note_off_c, 0, 95, 61
1, 601679, Note_on_c, 0, 83, 91
1, 601681, Note_on_c, 0, 86, 91
1, 601685, Note_on_c, 0, 89, 79
1, 601690, Note_on_c, 0, 95, 65
1, 601703, Note_off_c, 0, 83, 62
1, 601721, Note_off_c, 0, 86, 66
1, 601721, Note_off_c, 0, 95, 68
1, 601726, Note_off_c, 0, 89, 64
1, 601795, Note_on_c, 0, 95, 81
1, 601797, Note_on_c, 0, 86, 76
1, 601802, Note_on_c, 0, 83, 61
1, 601802, Note_on_c, 0, 89, 75
1, 601811, Note_off_c, 0, 86, 69
1, 601821, Note_off_c, 0, 83, 65
1, 601824, Note_off_c, 0, 89, 68
1, 601840, Note_off_c, 0, 95, 66
1, 601949, Note_on_c, 0, 42, 108
1, 601951, Control_c, 0, 64, 76
1, 601952, Note_on_c, 0, 30, 98
1, 601955, Note_on_c, 0, 87, 91
1, 601957, Note_on_c, 0, 95, 96
1, 601965, Control_c, 0, 64, 11
1, 601971, Note_off_c, 0, 42, 67
1, 601978, Note_off_c, 0, 30, 68
1, 601980, Control_c, 0, 64, 75
1, 601995, Control_c, 0, 64, 127
1, 601998, Note_off_c, 0, 87, 64
1, 602016, Note_on_c, 0, 99, 83
1, 602021, Note_off_c, 0, 95, 65
1, 602084, Note_off_c, 0, 99, 64
1, 602085, Note_on_c, 0, 95, 65
1, 602103, Note_on_c, 0, 87, 68
1, 602138, Note_off_c, 0, 87, 60
1, 602151, Note_on_c, 0, 99, 71
1, 602167, Note_off_c, 0, 95, 52
1, 602237, Note_off_c, 0, 99, 64
1, 602264, Note_on_c, 0, 87, 72
1, 602268, Note_on_c, 0, 69, 102
1, 602274, Note_on_c, 0, 57, 97
1, 602274, Note_on_c, 0, 95, 66
1, 602308, Note_off_c, 0, 57, 63
1, 602309, Note_off_c, 0, 69, 66
1, 602313, Note_off_c, 0, 87, 65
1, 602338, Note_on_c, 0, 99, 75
1, 602338, Note_off_c, 0, 95, 64
1, 602356, Poly_aftertouch_c, 0, 58, 127
1, 602379, Note_on_c, 0, 69, 107
1, 602389, Note_on_c, 0, 57, 98
1, 602395, Note_off_c, 0, 99, 61
1, 602404, Control_c, 0, 64, 98
1, 602408, Note_on_c, 0, 95, 75
1, 602413, Note_on_c, 0, 87, 82
1, 602419, Control_c, 0, 64, 62
1, 602433, Control_c, 0, 64, 0
1, 602453, Note_off_c, 0, 87, 64
1, 602475, Note_on_c, 0, 99, 76
1, 602479, Note_off_c, 0, 95, 65
1, 602492, Control_c, 0, 64, 44
1, 602493, Poly_aftertouch_c, 0, 58, 0
1, 602507, Control_c, 0, 64, 81
1, 602522, Control_c, 0, 64, 127
1, 602532, Note_off_c, 0, 99, 64
1, 602541, Note_on_c, 0, 95, 68
1, 602549, Note_on_c, 0, 87, 74
1, 602575, Note_off_c, 0, 87, 68
1, 602597, Note_on_c, 0, 99, 75
1, 602605, Note_off_c, 0, 95, 66
1, 602654, Note_off_c, 0, 99, 64
1, 602660, Note_on_c, 0, 95, 65
1, 602666, Note_on_c, 0, 87, 72
1, 602691, Note_off_c, 0, 87, 68
1, 602699, Note_off_c, 0, 69, 54
1, 602708, Note_on_c, 0, 99, 75
1, 602719, Note_off_c, 0, 95, 65
1, 602737, Note_off_c, 0, 57, 52
1, 602762, Note_off_c, 0, 99, 64
1, 602772, Note_on_c, 0, 95, 62
1, 602780, Note_on_c, 0, 87, 74
1, 602805, Note_off_c, 0, 87, 64
1, 602821, Note_on_c, 0, 99, 78
1, 602830, Note_off_c, 0, 95, 65
1, 602878, Note_on_c, 0, 63, 83
1, 602881, Note_on_c, 0, 51, 80
1, 602883, Note_off_c, 0, 99, 64
1, 602896, Note_on_c, 0, 95, 60
1, 602900, Note_on_c, 0, 87, 72
1, 602901, Note_off_c, 0, 63, 69
1, 602906, Note_off_c, 0, 51, 67
1, 602924, Note_off_c, 0, 87, 70
1, 602944, Note_on_c, 0, 99, 77
1, 602955, Note_off_c, 0, 95, 65
1, 602962, Note_on_c, 0, 51, 85
1, 602964, Note_on_c, 0, 63, 90
1, 603014, Note_off_c, 0, 99, 63
1, 603015, Note_on_c, 0, 87, 76
1, 603015, Note_on_c, 0, 95, 60
1, 603019, Note_off_c, 0, 63, 62
1, 603043, Note_off_c, 0, 51, 58
1, 603057, Note_off_c, 0, 87, 63
1, 603073, Note_on_c, 0, 99, 75
1, 603080, Note_off_c, 0, 95, 66
1, 603140, Note_off_c, 0, 99, 64
1, 603152, Note_on_c, 0, 87, 79
1, 603153, Note_on_c, 0, 95, 63
1, 603161, Note_on_c, 0, 57, 83
1, 603172, Note_on_c, 0, 45, 73
1, 603185, Note_off_c, 0, 87, 63
1, 603185, Note_off_c, 0, 57, 68
1, 603194, Note_off_c, 0, 45, 65
1, 603203, Note_on_c, 0, 99, 75
1, 603208, Note_off_c, 0, 95, 66
1, 603244, Note_on_c, 0, 57, 98
1, 603247, Note_on_c, 0, 45, 89
1, 603262, Note_off_c, 0, 99, 63
1, 603264, Note_on_c, 0, 95, 64
1, 603265, Note_on_c, 0, 87, 78
1, 603286, Note_off_c, 0, 57, 62
1, 603310, Note_off_c, 0, 87, 63
1, 603321, Note_off_c, 0, 45, 64
1, 603322, Note_on_c, 0, 99, 77
1, 603328, Note_off_c, 0, 95, 66
1, 603385, Note_off_c, 0, 99, 64
1, 603401, Note_on_c, 0, 87, 74
1, 603404, Note_on_c, 0, 95, 46
1, 603426, Note_on_c, 0, 51, 87
1, 603435, Note_on_c, 0, 39, 72
1, 603435, Note_off_c, 0, 87, 63
1, 603453, Note_on_c, 0, 99, 77
1, 603454, Note_off_c, 0, 51, 67
1, 603463, Note_off_c, 0, 39, 63
1, 603463, Note_off_c, 0, 95, 66
1, 603512, Note_on_c, 0, 51, 89
1, 603512, Note_off_c, 0, 99, 64
1, 603516, Note_on_c, 0, 39, 92
1, 603524, Note_on_c, 0, 95, 61
1, 603525, Note_on_c, 0, 87, 81
1, 603566, Note_off_c, 0, 51, 63
1, 603569, Note_off_c, 0, 87, 64
1, 603582, Note_on_c, 0, 99, 83
1, 603582, Poly_aftertouch_c, 0, 42, 0
1, 603585, Note_off_c, 0, 39, 59
1, 603590, Note_off_c, 0, 95, 66
1, 603644, Note_off_c, 0, 99, 64
1, 603653, Note_on_c, 0, 95, 62
1, 603656, Note_on_c, 0, 87, 78
1, 603687, Note_off_c, 0, 87, 65
1, 603703, Note_on_c, 0, 45, 96
1, 603704, Note_on_c, 0, 99, 83
1, 603712, Note_on_c, 0, 33, 80
1, 603724, Note_off_c, 0, 95, 66
1, 603734, Note_off_c, 0, 45, 70
1, 603745, Note_off_c, 0, 33, 62
1, 603772, Note_off_c, 0, 99, 64
1, 603781, Note_on_c, 0, 87, 90
1, 603783, Note_on_c, 0, 95, 67
1, 603791, Note_on_c, 0, 45, 98
1, 603798, Note_on_c, 0, 33, 91
1, 603822, Note_off_c, 0, 87, 65
1, 603832, Note_on_c, 0, 99, 84
1, 603843, Note_off_c, 0, 95, 66
1, 603852, Note_off_c, 0, 45, 63
1, 603858, Note_off_c, 0, 33, 57
1, 603892, Note_off_c, 0, 99, 63
1, 603895, Note_on_c, 0, 87, 79
1, 603918, Note_on_c, 0, 95, 47
1, 603942, Note_on_c, 0, 99, 78
1, 603943, Note_off_c, 0, 87, 61
1, 603957, Note_off_c, 0, 95, 67
1, 604005, Note_on_c, 0, 87, 74
1, 604009, Note_off_c, 0, 99, 64
1, 604010, Note_on_c, 0, 95, 59
1, 604037, Note_off_c, 0, 87, 63
1, 604049, Note_on_c, 0, 99, 71
1, 604058, Note_on_c, 0, 39, 89
1, 604058, Note_on_c, 0, 42, 100
1, 604061, Note_on_c, 0, 33, 88
1, 604067, Note_on_c, 0, 30, 82
1, 604072, Note_off_c, 0, 95, 66
1, 604108, Note_on_c, 0, 87, 84
1, 604110, Note_on_c, 0, 95, 59
1, 604124, Note_off_c, 0, 99, 64
1, 604126, Note_off_c, 0, 42, 65
1, 604141, Note_off_c, 0, 39, 60
1, 604147, Note_off_c, 0, 33, 59
1, 604153, Note_off_c, 0, 87, 63
1, 604160, Note_on_c, 0, 99, 63
1, 604164, Note_off_c, 0, 30, 60
1, 604172, Note_off_c, 0, 95, 66
1, 604206, Note_on_c, 0, 87, 52
1, 604213, Poly_aftertouch_c, 0, 95, 0
1, 604221, Note_on_c, 0, 95, 69
1, 604255, Note_off_c, 0, 99, 59
1, 604285, Note_off_c, 0, 87, 64
1, 604297, Note_off_c, 0, 95, 65
1, 604346, Control_c, 0, 64, 78
1, 604352, Note_on_c, 0, 36, 90
1, 604352, Note_on_c, 0, 40, 102
1, 604356, Note_on_c, 0, 88, 91
1, 604356, Note_on_c, 0, 96, 97
1, 604357, Note_on_c, 0, 31, 91
1, 604359, Note_on_c, 0, 28, 86
1, 604361, Control_c, 0, 64, 0
1, 604389, Note_off_c, 0, 28, 64
1, 604410, Note_off_c, 0, 31, 64
1, 604415, Note_off_c, 0, 40, 68
1, 604420, Control_c, 0, 64, 92
1, 604421, Note_off_c, 0, 36, 61
1, 604426, Note_off_c, 0, 88, 65
1, 604435, Control_c, 0, 64, 127
1, 604449, Note_on_c, 0, 100, 85
1, 604451, Note_off_c, 0, 96, 65
1, 604535, Note_on_c, 0, 88, 69
1, 604544, Note_off_c, 0, 100, 61
1, 604545, Note_on_c, 0, 96, 82
1, 604613, Note_off_c, 0, 88, 61
1, 604638, Note_on_c, 0, 100, 79
1, 604639, Note_off_c, 0, 96, 64
1, 604693, Note_on_c, 0, 70, 109
1, 604700, Note_on_c, 0, 58, 99
1, 604723, Note_on_c, 0, 88, 77
1, 604730, Note_off_c, 0, 100, 63
1, 604733, Note_off_c, 0, 58, 51
1, 604734, Note_on_c, 0, 96, 79
1, 604738, Note_off_c, 0, 70, 62
1, 604777, Note_off_c, 0, 88, 64
1, 604806, Note_off_c, 0, 96, 66
1, 604807, Note_on_c, 0, 100, 78
1, 604813, Control_c, 0, 64, 83
1, 604822, Note_on_c, 0, 70, 104
1, 604826, Note_on_c, 0, 58, 103
1, 604827, Control_c, 0, 64, 0
1, 604832, Note_on_c, 0, 68, 89
1, 604864, Note_on_c, 0, 88, 89
1, 604865, Note_on_c, 0, 96, 73
1, 604872, Note_off_c, 0, 100, 63
1, 604875, Note_on_c, 0, 61, 27
1, 604898, Note_off_c, 0, 68, 48
1, 604912, Note_off_c, 0, 88, 64
1, 604935, Note_on_c, 0, 100, 71
1, 604941, Note_off_c, 0, 96, 65
1, 604946, Control_c, 0, 64, 127
1, 604979, Note_off_c, 0, 100, 59
1, 604989, Note_on_c, 0, 96, 66
1, 604993, Note_off_c, 0, 61, 27
1, 604998, Note_on_c, 0, 88, 76
1, 605035, Note_off_c, 0, 88, 62
1, 605046, Note_on_c, 0, 100, 79
1, 605051, Note_off_c, 0, 96, 66
1, 605063, Note_off_c, 0, 70, 60
1, 605101, Note_off_c, 0, 58, 58
1, 605102, Note_off_c, 0, 100, 59
1, 605104, Note_on_c, 0, 88, 80
1, 605107, Note_on_c, 0, 96, 69
1, 605146, Note_off_c, 0, 88, 65
1, 605157, Note_on_c, 0, 100, 75
1, 605167, Note_off_c, 0, 96, 65
1, 605208, Note_off_c, 0, 100, 63
1, 605225, Note_on_c, 0, 96, 66
1, 605238, Note_on_c, 0, 88, 83
1, 605277, Note_off_c, 0, 88, 64
1, 605286, Note_on_c, 0, 100, 78
1, 605288, Note_on_c, 0, 64, 92
1, 605288, Note_off_c, 0, 96, 64
1, 605290, Note_on_c, 0, 52, 92
1, 605307, Note_off_c, 0, 64, 74
1, 605313, Note_off_c, 0, 52, 68
1, 605336, Note_off_c, 0, 100, 64
1, 605346, Note_on_c, 0, 96, 64
1, 605355, Note_on_c, 0, 88, 86
1, 605358, Note_on_c, 0, 52, 88
1, 605359, Note_on_c, 0, 64, 95
1, 605393, Note_off_c, 0, 64, 65
1, 605396, Note_off_c, 0, 88, 65
1, 605398, Note_off_c, 0, 52, 64
1, 605408, Note_on_c, 0, 100, 77
1, 605416, Note_off_c, 0, 96, 65
1, 605462, Note_off_c, 0, 100, 63
1, 605479, Note_on_c, 0, 96, 69
1, 605486, Note_on_c, 0, 88, 78
1, 605527, Note_on_c, 0, 58, 95
1, 605528, Note_off_c, 0, 88, 63
1, 605535, Note_on_c, 0, 46, 77
1, 605546, Note_on_c, 0, 100, 82
1, 605547, Note_off_c, 0, 58, 69
1, 605550, Note_off_c, 0, 96, 65
1, 605563, Note_off_c, 0, 46, 64
1, 605596, Note_off_c, 0, 100, 60
1, 605604, Note_on_c, 0, 96, 62
1, 605605, Note_on_c, 0, 46, 93
1, 605606, Note_on_c, 0, 88, 80
1, 605610, Note_on_c, 0, 58, 86
1, 605628, Note_off_c, 0, 58, 69
1, 605650, Note_off_c, 0, 46, 63
1, 605651, Note_off_c, 0, 88, 65
1, 605668, Note_on_c, 0, 100, 83
1, 605674, Note_off_c, 0, 96, 65
1, 605727, Note_off_c, 0, 100, 63
1, 605736, Note_on_c, 0, 96, 72
1, 605742, Note_on_c, 0, 88, 78
1, 605773, Note_on_c, 0, 52, 91
1, 605781, Note_off_c, 0, 88, 62
1, 605787, Note_on_c, 0, 40, 69
1, 605792, Note_off_c, 0, 52, 73
1, 605796, Note_on_c, 0, 100, 84
1, 605803, Note_off_c, 0, 96, 65
1, 605818, Note_off_c, 0, 40, 63
1, 605826, Note_on_c, 0, 38, 16
1, 605846, Note_on_c, 0, 96, 64
1, 605846, Note_off_c, 0, 100, 63
1, 605854, Note_on_c, 0, 88, 82
1, 605855, Note_on_c, 0, 52, 92
1, 605868, Note_on_c, 0, 40, 83
1, 605878, Note_off_c, 0, 38, 49
1, 605891, Note_off_c, 0, 52, 61
1, 605895, Note_off_c, 0, 88, 65
1, 605897, Note_off_c, 0, 40, 67
1, 605903, Note_on_c, 0, 39, 22
1, 605905, Poly_aftertouch_c, 0, 44, 0
1, 605907, Note_on_c, 0, 100, 83
1, 605914, Note_off_c, 0, 96, 65
1, 605953, Note_off_c, 0, 39, 50
1, 605971, Note_on_c, 0, 96, 66
1, 605974, Note_off_c, 0, 100, 63
1, 605980, Note_on_c, 0, 88, 74
1, 606022, Note_on_c, 0, 100, 77
1, 606029, Note_on_c, 0, 46, 98
1, 606030, Note_off_c, 0, 96, 65
1, 606037, Note_on_c, 0, 34, 83
1, 606053, Note_off_c, 0, 46, 67
1, 606063, Note_off_c, 0, 34, 64
1, 606068, Note_off_c, 0, 88, 0
1, 606079, Note_on_c, 0, 96, 73
1, 606081, Note_on_c, 0, 88, 48
1, 606085, Note_off_c, 0, 100, 64
1, 606123, Note_on_c, 0, 34, 89
1, 606123, Note_on_c, 0, 46, 102
1, 606133, Note_on_c, 0, 100, 75
1, 606138, Note_off_c, 0, 96, 66
1, 606145, Note_off_c, 0, 88, 0
1, 606162, Note_on_c, 0, 88, 44
1, 606168, Note_off_c, 0, 46, 63
1, 606183, Note_on_c, 0, 96, 69
1, 606195, Note_off_c, 0, 34, 60
1, 606207, Note_off_c, 0, 100, 63
1, 606238, Poly_aftertouch_c, 0, 44, 0
1, 606245, Poly_aftertouch_c, 0, 100, 0
1, 606252, Note_on_c, 0, 100, 65
1, 606254, Note_off_c, 0, 96, 59
1, 606296, Note_on_c, 0, 96, 56
1, 606331, Note_off_c, 0, 88, 57
1, 606341, Note_off_c, 0, 100, 63
1, 606342, Poly_aftertouch_c, 0, 98, 127
1, 606349, Note_off_c, 0, 96, 66
1, 606366, Poly_aftertouch_c, 0, 98, 0
1, 606379, Note_on_c, 0, 36, 92
1, 606380, Note_on_c, 0, 40, 97
1, 606381, Note_on_c, 0, 31, 91
1, 606389, Note_on_c, 0, 28, 88
1, 606407, Note_on_c, 0, 88, 53
1, 606425, Note_on_c, 0, 32, 25
1, 606440, Note_off_c, 0, 88, 59
1, 606446, Note_off_c, 0, 36, 62
1, 606447, Note_off_c, 0, 40, 63
1, 606461, Note_off_c, 0, 31, 62
1, 606466, Note_off_c, 0, 28, 53
1, 606472, Note_off_c, 0, 32, 52
1, 606478, Poly_aftertouch_c, 0, 92, 127
1, 606486, Poly_aftertouch_c, 0, 95, 127
1, 606491, Poly_aftertouch_c, 0, 97, 127
1, 606505, Poly_aftertouch_c, 0, 92, 0
1, 606512, Poly_aftertouch_c, 0, 97, 0
1, 606526, Poly_aftertouch_c, 0, 95, 0
1, 606562, Control_c, 0, 64, 74
1, 606577, Control_c, 0, 64, 0
1, 606622, Note_on_c, 0, 38, 88
1, 606622, Note_on_c, 0, 92, 96
1, 606624, Note_on_c, 0, 32, 87
1, 606624, Note_on_c, 0, 35, 75
1, 606624, Note_on_c, 0, 89, 101
1, 606625, Note_on_c, 0, 95, 91
1, 606626, Note_on_c, 0, 26, 83
1, 606629, Note_on_c, 0, 101, 95
1, 606645, Note_off_c, 0, 101, 76
1, 606651, Control_c, 0, 64, 92
1, 606651, Note_off_c, 0, 38, 65
1, 606653, Note_off_c, 0, 32, 67
1, 606655, Note_off_c, 0, 35, 69
1, 606655, Note_off_c, 0, 95, 65
1, 606656, Note_off_c, 0, 26, 67
1, 606666, Note_off_c, 0, 89, 67
1, 606666, Control_c, 0, 64, 127
1, 606669, Note_off_c, 0, 92, 67
1, 606670, Note_on_c, 0, 100, 22
1, 606710, Note_off_c, 0, 100, 51
1, 606726, Poly_aftertouch_c, 0, 36, 127
1, 606762, Poly_aftertouch_c, 0, 36, 0
1, 606878, Note_on_c, 0, 62, 70
1, 606885, Note_on_c, 0, 74, 77
1, 606890, Note_on_c, 0, 86, 78
1, 606903, Note_off_c, 0, 62, 64
1, 606907, Note_off_c, 0, 74, 72
1, 606908, Note_off_c, 0, 86, 70
1, 606953, Note_on_c, 0, 86, 91
1, 606954, Note_on_c, 0, 74, 100
1, 606962, Note_on_c, 0, 62, 78
1, 606977, Note_off_c, 0, 86, 63
1, 606991, Note_off_c, 0, 74, 66
1, 606994, Note_off_c, 0, 62, 64
1, 607129, Note_on_c, 0, 56, 73
1, 607134, Note_on_c, 0, 68, 88
1, 607141, Note_on_c, 0, 80, 71
1, 607150, Note_off_c, 0, 68, 72
1, 607154, Note_off_c, 0, 56, 67
1, 607155, Note_off_c, 0, 80, 68
1, 607196, Note_on_c, 0, 56, 87
1, 607200, Note_on_c, 0, 68, 93
1, 607209, Note_on_c, 0, 80, 84
1, 607216, Note_off_c, 0, 56, 68
1, 607227, Note_off_c, 0, 80, 71
1, 607245, Note_off_c, 0, 68, 62
1, 607378, Note_on_c, 0, 62, 82
1, 607379, Note_on_c, 0, 50, 77
1, 607388, Note_on_c, 0, 74, 68
1, 607397, Note_off_c, 0, 62, 70
1, 607404, Note_off_c, 0, 50, 70
1, 607406, Note_off_c, 0, 74, 68
1, 607444, Note_on_c, 0, 50, 90
1, 607448, Note_on_c, 0, 62, 95
1, 607456, Note_on_c, 0, 74, 89
1, 607480, Note_off_c, 0, 74, 75
1, 607492, Note_off_c, 0, 50, 69
1, 607503, Note_off_c, 0, 62, 60
1, 607618, Note_on_c, 0, 44, 87
1, 607627, Note_on_c, 0, 56, 89
1, 607636, Note_on_c, 0, 68, 64
1, 607641, Note_off_c, 0, 44, 68
1, 607644, Note_off_c, 0, 56, 74
1, 607653, Note_off_c, 0, 68, 68
1, 607691, Note_on_c, 0, 44, 95
1, 607701, Note_on_c, 0, 56, 99
1, 607707, Note_on_c, 0, 68, 85
1, 607738, Note_off_c, 0, 68, 57
1, 607739, Note_off_c, 0, 44, 65
1, 607756, Note_off_c, 0, 56, 61
1, 607853, Control_c, 0, 64, 93
1, 607868, Control_c, 0, 64, 64
1, 607883, Control_c, 0, 64, 0
1, 607891, Note_on_c, 0, 62, 95
1, 607894, Note_on_c, 0, 50, 94
1, 607901, Note_on_c, 0, 38, 82
1, 607915, Note_off_c, 0, 50, 74
1, 607924, Note_off_c, 0, 38, 66
1, 607931, Note_off_c, 0, 62, 60
1, 607942, Control_c, 0, 64, 68
1, 607957, Control_c, 0, 64, 97
1, 607970, Note_on_c, 0, 50, 94
1, 607971, Note_on_c, 0, 62, 90
1, 607972, Control_c, 0, 64, 127
1, 607978, Note_on_c, 0, 38, 89
1, 608010, Note_off_c, 0, 50, 68
1, 608020, Note_off_c, 0, 62, 64
1, 608024, Note_off_c, 0, 38, 61
1, 608088, Poly_aftertouch_c, 0, 40, 0
1, 608234, Note_on_c, 0, 56, 94
1, 608234, Note_on_c, 0, 44, 105
1, 608240, Note_on_c, 0, 32, 86
1, 608261, Note_off_c, 0, 44, 64
1, 608270, Note_off_c, 0, 32, 63
1, 608284, Note_off_c, 0, 56, 65
1, 608318, Control_c, 0, 64, 79
1, 608333, Control_c, 0, 64, 0
1, 608344, Note_on_c, 0, 56, 107
1, 608347, Note_on_c, 0, 44, 113
1, 608350, Note_on_c, 0, 32, 88
1, 608363, Control_c, 0, 64, 74
1, 608371, Note_off_c, 0, 32, 70
1, 608377, Control_c, 0, 64, 127
1, 608389, Note_off_c, 0, 44, 63
1, 608396, Note_off_c, 0, 56, 70
1, 608631, Control_c, 0, 64, 114
1, 608645, Control_c, 0, 64, 72
1, 608657, Note_on_c, 0, 56, 63
1, 608660, Control_c, 0, 64, 0
1, 608701, Note_on_c, 0, 62, 69
1, 608705, Note_on_c, 0, 65, 72
1, 608711, Note_off_c, 0, 56, 64
1, 608720, Note_on_c, 0, 86, 95
1, 608722, Note_on_c, 0, 71, 104
1, 608722, Note_on_c, 0, 83, 105
1, 608725, Note_on_c, 0, 89, 93
1, 608727, Note_on_c, 0, 95, 104
1, 608733, Note_off_c, 0, 62, 65
1, 608734, Control_c, 0, 64, 55
1, 608749, Control_c, 0, 64, 127
1, 608750, Note_off_c, 0, 71, 68
1, 608754, Note_off_c, 0, 65, 68
1, 608766, Note_on_c, 0, 92, 56
1, 608767, Note_off_c, 0, 92, 127
1, 608768, Note_off_c, 0, 95, 65
1, 608778, Note_off_c, 0, 83, 59
1, 608780, Note_off_c, 0, 89, 62
1, 608780, Note_on_c, 0, 93, 34
1, 608781, Note_off_c, 0, 93, 127
1, 608781, Note_off_c, 0, 86, 66
1, 608798, Note_on_c, 0, 93, 26
1, 608799, Note_off_c, 0, 93, 127
1, 609183, Note_on_c, 0, 86, 72
1, 609187, Note_on_c, 0, 89, 72
1, 609187, Control_c, 0, 64, 121
1, 609188, Note_on_c, 0, 83, 74
1, 609189, Note_on_c, 0, 65, 71
1, 609190, Note_on_c, 0, 56, 66
1, 609191, Note_on_c, 0, 95, 69
1, 609200, Note_on_c, 0, 62, 62
1, 609201, Control_c, 0, 64, 88
1, 609216, Control_c, 0, 64, 71
1, 609231, Control_c, 0, 64, 60
1, 609246, Control_c, 0, 64, 66
1, 609261, Control_c, 0, 64, 76
1, 609276, Control_c, 0, 64, 101
1, 609290, Note_off_c, 0, 65, 60
1, 609291, Note_off_c, 0, 86, 55
1, 609291, Control_c, 0, 64, 127
1, 609301, Note_off_c, 0, 83, 59
1, 609310, Note_off_c, 0, 62, 60
1, 609311, Note_off_c, 0, 95, 60
1, 609311, Note_off_c, 0, 56, 63
1, 609321, Note_off_c, 0, 89, 61
1, 609395, Control_c, 0, 64, 92
1, 609405, Note_on_c, 0, 66, 84
1, 609407, Note_on_c, 0, 57, 71
1, 609408, Note_on_c, 0, 90, 84
1, 609410, Note_on_c, 0, 63, 72
1, 609410, Control_c, 0, 64, 77
1, 609411, Note_on_c, 0, 83, 81
1, 609421, Note_on_c, 0, 87, 72
1, 609422, Note_on_c, 0, 95, 68
1, 609425, Control_c, 0, 64, 75
1, 609440, Control_c, 0, 64, 86
1, 609454, Control_c, 0, 64, 127
1, 609476, Note_off_c, 0, 57, 61
1, 609477, Note_off_c, 0, 95, 63
1, 609487, Note_off_c, 0, 66, 61
1, 609493, Note_off_c, 0, 63, 60
1, 609493, Note_off_c, 0, 87, 56
1, 609494, Note_off_c, 0, 83, 60
1, 609501, Note_off_c, 0, 90, 64
1, 609543, Control_c, 0, 64, 90
1, 609558, Control_c, 0, 64, 72
1, 609567, Note_on_c, 0, 67, 83
1, 609570, Note_on_c, 0, 64, 75
1, 609573, Control_c, 0, 64, 68
1, 609575, Note_on_c, 0, 58, 75
1, 609576, Note_on_c, 0, 91, 82
1, 609580, Note_on_c, 0, 88, 77
1, 609585, Note_on_c, 0, 83, 79
1, 609588, Control_c, 0, 64, 77
1, 609603, Control_c, 0, 64, 104
1, 609617, Control_c, 0, 64, 127
1, 609621, Note_off_c, 0, 67, 62
1, 609636, Note_off_c, 0, 58, 59
1, 609637, Note_off_c, 0, 64, 62
1, 609642, Note_off_c, 0, 83, 62
1, 609644, Note_off_c, 0, 88, 63
1, 609651, Note_off_c, 0, 91, 65
1, 609676, Control_c, 0, 64, 100
1, 609691, Control_c, 0, 64, 87
1, 609706, Control_c, 0, 64, 91
1, 609729, Control_c, 0, 64, 110
1, 609735, Note_on_c, 0, 68, 90
1, 609739, Note_on_c, 0, 59, 78
1, 609739, Note_on_c, 0, 92, 80
1, 609741, Note_on_c, 0, 66, 78
1, 609743, Control_c, 0, 64, 127
1, 609744, Note_on_c, 0, 83, 79
1, 609758, Note_on_c, 0, 89, 65
1, 609767, Note_on_c, 0, 95, 54
1, 609781, Note_on_c, 0, 90, 35
1, 609785, Note_off_c, 0, 59, 61
1, 609788, Note_off_c, 0, 68, 60
1, 609794, Note_off_c, 0, 95, 56
1, 609796, Note_off_c, 0, 66, 60
1, 609798, Note_off_c, 0, 90, 37
1, 609803, Control_c, 0, 64, 110
1, 609805, Note_off_c, 0, 83, 61
1, 609813, Note_off_c, 0, 89, 62
1, 609817, Control_c, 0, 64, 89
1, 609832, Control_c, 0, 64, 85
1, 609836, Note_off_c, 0, 92, 65
1, 609847, Control_c, 0, 64, 92
1, 609861, Control_c, 0, 64, 117
1, 609876, Control_c, 0, 64, 127
1, 609880, Note_on_c, 0, 69, 75
1, 609881, Note_on_c, 0, 66, 83
1, 609893, Note_on_c, 0, 93, 79
1, 609893, Note_on_c, 0, 59, 61
1, 609896, Note_on_c, 0, 83, 83
1, 609896, Note_on_c, 0, 90, 72
1, 609898, Note_on_c, 0, 95, 67
1, 609913, Note_off_c, 0, 69, 64
1, 609923, Note_off_c, 0, 59, 62
1, 609934, Note_on_c, 0, 60, 12
1, 609936, Note_off_c, 0, 66, 62
1, 609950, Control_c, 0, 64, 112
1, 609954, Note_off_c, 0, 83, 60
1, 609957, Note_off_c, 0, 95, 63
1, 609964, Note_off_c, 0, 90, 64
1, 609965, Control_c, 0, 64, 89
1, 609966, Note_off_c, 0, 93, 63
1, 609976, Note_off_c, 0, 60, 51
1, 609980, Control_c, 0, 64, 80
1, 609994, Control_c, 0, 64, 85
1, 610009, Control_c, 0, 64, 109
1, 610021, Note_on_c, 0, 68, 88
1, 610024, Note_on_c, 0, 59, 70
1, 610024, Control_c, 0, 64, 127
1, 610027, Note_on_c, 0, 64, 67
1, 610031, Note_on_c, 0, 92, 76
1, 610034, Note_on_c, 0, 83, 81
1, 610045, Note_on_c, 0, 88, 75
1, 610059, Note_on_c, 0, 95, 62
1, 610062, Note_off_c, 0, 59, 61
1, 610078, Note_off_c, 0, 95, 63
1, 610081, Note_off_c, 0, 68, 60
1, 610083, Note_off_c, 0, 64, 63
1, 610086, Note_off_c, 0, 83, 63
1, 610089, Note_off_c, 0, 92, 66
1, 610099, Control_c, 0, 64, 93
1, 610104, Note_off_c, 0, 88, 60
1, 610114, Control_c, 0, 64, 73
1, 610129, Control_c, 0, 64, 60
1, 610144, Control_c, 0, 64, 64
1, 610156, Note_on_c, 0, 67, 82
1, 610159, Control_c, 0, 64, 77
1, 610162, Note_on_c, 0, 58, 73
1, 610164, Note_on_c, 0, 88, 60
1, 610164, Note_on_c, 0, 95, 73
1, 610166, Note_on_c, 0, 83, 82
1, 610169, Note_on_c, 0, 91, 75
1, 610173, Control_c, 0, 64, 127
1, 610194, Note_off_c, 0, 67, 58
1, 610203, Note_off_c, 0, 88, 63
1, 610212, Note_off_c, 0, 58, 62
1, 610216, Note_off_c, 0, 83, 63
1, 610221, Note_off_c, 0, 91, 64
1, 610226, Note_off_c, 0, 95, 65
1, 610228, Poly_aftertouch_c, 0, 64, 127
1, 610247, Control_c, 0, 64, 96
1, 610256, Poly_aftertouch_c, 0, 64, 0
1, 610262, Control_c, 0, 64, 83
1, 610277, Control_c, 0, 64, 85
1, 610286, Note_on_c, 0, 66, 84
1, 610289, Note_on_c, 0, 57, 63
1, 610289, Note_on_c, 0, 90, 92
1, 610291, Note_on_c, 0, 63, 72
1, 610292, Control_c, 0, 64, 98
1, 610292, Note_on_c, 0, 87, 81
1, 610293, Note_on_c, 0, 83, 86
1, 610305, Note_on_c, 0, 95, 66
1, 610307, Control_c, 0, 64, 127
1, 610321, Note_off_c, 0, 57, 64
1, 610333, Note_off_c, 0, 66, 63
1, 610334, Note_off_c, 0, 95, 64
1, 610340, Note_off_c, 0, 63, 58
1, 610342, Note_off_c, 0, 83, 63
1, 610352, Note_off_c, 0, 87, 64
1, 610357, Note_off_c, 0, 90, 65
1, 610402, Note_on_c, 0, 65, 83
1, 610406, Note_on_c, 0, 62, 72
1, 610408, Note_on_c, 0, 56, 76
1, 610414, Note_on_c, 0, 86, 75
1, 610414, Note_on_c, 0, 89, 84
1, 610421, Note_on_c, 0, 83, 83
1, 610441, Note_off_c, 0, 62, 61
1, 610442, Note_on_c, 0, 95, 52
1, 610443, Note_off_c, 0, 65, 62
1, 610447, Note_on_c, 0, 58, 31
1, 610454, Note_off_c, 0, 56, 58
1, 610469, Note_off_c, 0, 86, 62
1, 610472, Note_off_c, 0, 89, 62
1, 610472, Note_off_c, 0, 95, 61
1, 610472, Note_off_c, 0, 83, 55
1, 610486, Note_off_c, 0, 58, 56
1, 610530, Note_on_c, 0, 58, 69
1, 610533, Note_on_c, 0, 66, 93
1, 610540, Note_on_c, 0, 90, 88
1, 610547, Note_on_c, 0, 63, 74
1, 610552, Note_on_c, 0, 83, 78
1, 610554, Note_on_c, 0, 87, 72
1, 610554, Note_on_c, 0, 57, 63
1, 610561, Note_on_c, 0, 95, 45
1, 610561, Note_off_c, 0, 58, 49
1, 610572, Note_off_c, 0, 57, 66
1, 610572, Note_off_c, 0, 83, 68
1, 610578, Note_off_c, 0, 66, 61
1, 610578, Note_off_c, 0, 63, 63
1, 610580, Note_off_c, 0, 87, 66
1, 610589, Note_off_c, 0, 95, 58
1, 610593, Note_off_c, 0, 90, 65
1, 610643, Note_on_c, 0, 67, 91
1, 610653, Note_on_c, 0, 65, 70
1, 610654, Note_on_c, 0, 58, 77
1, 610655, Note_on_c, 0, 83, 89
1, 610657, Note_on_c, 0, 91, 81
1, 610660, Note_on_c, 0, 88, 78
1, 610666, Note_on_c, 0, 95, 68
1, 610686, Note_off_c, 0, 67, 59
1, 610689, Note_off_c, 0, 65, 65
1, 610690, Note_off_c, 0, 95, 70
1, 610692, Note_off_c, 0, 58, 62
1, 610698, Note_off_c, 0, 83, 64
1, 610703, Note_off_c, 0, 91, 65
1, 610707, Note_off_c, 0, 88, 62
1, 610763, Note_on_c, 0, 68, 96
1, 610769, Note_on_c, 0, 66, 78
1, 610775, Note_on_c, 0, 83, 94
1, 610778, Note_on_c, 0, 92, 83
1, 610783, Note_on_c, 0, 59, 57
1, 610783, Note_on_c, 0, 89, 78
1, 610790, Note_on_c, 0, 95, 59
1, 610803, Note_off_c, 0, 68, 63
1, 610808, Note_off_c, 0, 59, 61
1, 610812, Note_off_c, 0, 92, 49
1, 610816, Note_off_c, 0, 66, 61
1, 610816, Note_off_c, 0, 83, 58
1, 610816, Note_off_c, 0, 95, 70
1, 610819, Note_on_c, 0, 90, 23
1, 610820, Note_off_c, 0, 90, 127
1, 610820, Note_on_c, 0, 93, 49
1, 610831, Note_off_c, 0, 89, 60
1, 610841, Note_off_c, 0, 93, 59
1, 610871, Note_on_c, 0, 69, 88
1, 610876, Note_on_c, 0, 59, 80
1, 610876, Note_on_c, 0, 66, 83
1, 610888, Note_on_c, 0, 83, 90
1, 610890, Note_on_c, 0, 93, 82
1, 610894, Note_on_c, 0, 95, 79
1, 610900, Note_on_c, 0, 90, 76
1, 610912, Note_off_c, 0, 59, 63
1, 610912, Note_off_c, 0, 69, 62
1, 610917, Note_off_c, 0, 66, 62
1, 610926, Note_off_c, 0, 95, 58
1, 610928, Note_off_c, 0, 83, 66
1, 610930, Note_off_c, 0, 90, 61
1, 610941, Note_off_c, 0, 93, 63
1, 610985, Note_on_c, 0, 68, 96
1, 610993, Note_on_c, 0, 83, 91
1, 610994, Note_on_c, 0, 92, 88
1, 610997, Note_on_c, 0, 59, 74
1, 611001, Note_on_c, 0, 90, 62
1, 611002, Note_off_c, 0, 90, 127
1, 611010, Note_on_c, 0, 89, 79
1, 611019, Note_on_c, 0, 95, 66
1, 611022, Note_off_c, 0, 59, 67
1, 611025, Note_off_c, 0, 68, 63
1, 611031, Note_on_c, 0, 65, 29
1, 611031, Note_off_c, 0, 83, 66
1, 611034, Note_off_c, 0, 89, 64
1, 611037, Note_off_c, 0, 95, 65
1, 611045, Note_off_c, 0, 92, 67
1, 611065, Note_off_c, 0, 65, 55
1, 611096, Note_on_c, 0, 66, 98
1, 611098, Note_on_c, 0, 64, 63
1, 611100, Note_on_c, 0, 57, 81
1, 611106, Note_on_c, 0, 88, 76
1, 611107, Note_on_c, 0, 91, 81
1, 611108, Note_on_c, 0, 83, 89
1, 611121, Note_on_c, 0, 95, 59
1, 611133, Note_off_c, 0, 64, 66
1, 611134, Note_off_c, 0, 66, 60
1, 611135, Note_off_c, 0, 88, 61
1, 611136, Note_off_c, 0, 57, 56
1, 611148, Note_off_c, 0, 83, 63
1, 611148, Note_off_c, 0, 95, 69
1, 611148, Note_off_c, 0, 91, 67
1, 611203, Note_on_c, 0, 83, 102
1, 611204, Note_on_c, 0, 66, 100
1, 611206, Note_on_c, 0, 90, 104
1, 611206, Note_on_c, 0, 95, 106
1, 611215, Note_on_c, 0, 87, 98
1, 611223, Note_on_c, 0, 63, 69
1, 611226, Control_c, 0, 64, 126
1, 611237, Note_off_c, 0, 83, 70
1, 611238, Note_on_c, 0, 57, 55
1, 611241, Note_off_c, 0, 90, 64
1, 611241, Control_c, 0, 64, 62
1, 611242, Note_off_c, 0, 63, 67
1, 611246, Note_off_c, 0, 87, 63
1, 611246, Note_off_c, 0, 95, 65
1, 611251, Note_off_c, 0, 66, 65
1, 611256, Control_c, 0, 64, 0
1, 611265, Note_on_c, 0, 92, 4
1, 611270, Note_off_c, 0, 57, 55
1, 611318, Note_off_c, 0, 92, 39
1, 611405, Note_on_c, 0, 56, 76
1, 611438, Note_on_c, 0, 62, 67
1, 611452, Note_on_c, 0, 65, 73
1, 611457, Note_off_c, 0, 56, 65
1, 611464, Control_c, 0, 64, 61
1, 611464, Note_on_c, 0, 86, 95
1, 611465, Note_on_c, 0, 83, 106
1, 611470, Note_on_c, 0, 71, 111
1, 611471, Note_on_c, 0, 95, 102
1, 611473, Note_on_c, 0, 89, 93
1, 611478, Control_c, 0, 64, 127
1, 611481, Note_off_c, 0, 62, 61
1, 611482, Note_off_c, 0, 65, 70
1, 611487, Note_on_c, 0, 92, 76
1, 611497, Note_off_c, 0, 71, 69
1, 611500, Note_off_c, 0, 89, 60
1, 611503, Note_off_c, 0, 95, 63
1, 611508, Note_off_c, 0, 92, 67
1, 611511, Note_off_c, 0, 83, 67
1, 611512, Note_off_c, 0, 86, 66
1, 611580, Poly_aftertouch_c, 0, 69, 0
1, 611909, Control_c, 0, 64, 106
1, 611924, Control_c, 0, 64, 88
1, 611938, Control_c, 0, 64, 74
1, 611953, Control_c, 0, 64, 60
1, 611976, Control_c, 0, 64, 0
1, 612413, Note_on_c, 0, 89, 94
1, 612414, Note_on_c, 0, 83, 91
1, 612415, Note_on_c, 0, 86, 83
1, 612419, Note_on_c, 0, 44, 102
1, 612422, Note_on_c, 0, 32, 87
1, 612428, Note_on_c, 0, 95, 71
1, 612436, Note_off_c, 0, 83, 67
1, 612441, Note_off_c, 0, 44, 72
1, 612444, Note_off_c, 0, 95, 68
1, 612446, Note_off_c, 0, 89, 64
1, 612450, Note_off_c, 0, 32, 67
1, 612453, Note_off_c, 0, 86, 65
1, 612493, Note_on_c, 0, 83, 104
1, 612494, Note_on_c, 0, 45, 102
1, 612496, Note_on_c, 0, 95, 108
1, 612499, Note_on_c, 0, 86, 81
1, 612500, Note_on_c, 0, 33, 87
1, 612504, Note_on_c, 0, 90, 97
1, 612525, Control_c, 0, 64, 92
1, 612526, Note_off_c, 0, 33, 62
1, 612537, Note_off_c, 0, 45, 66
1, 612540, Control_c, 0, 64, 127
1, 612540, Note_on_c, 0, 87, 36
1, 612541, Note_off_c, 0, 87, 127
1, 612562, Note_off_c, 0, 95, 64
1, 612587, Note_off_c, 0, 83, 61
1, 612647, Note_off_c, 0, 86, 59
1, 612719, Note_off_c, 0, 90, 58
1, 612762, Note_on_c, 0, 70, 98
1, 612766, Note_on_c, 0, 62, 47
1, 612767, Note_on_c, 0, 82, 81
1, 612772, Note_on_c, 0, 86, 69
1, 612773, Note_on_c, 0, 66, 80
1, 612801, Note_off_c, 0, 82, 59
1, 612824, Note_on_c, 0, 94, 76
1, 612836, Note_off_c, 0, 86, 62
1, 612898, Note_on_c, 0, 86, 59
1, 612898, Note_off_c, 0, 94, 63
1, 612900, Note_on_c, 0, 82, 68
1, 612938, Note_off_c, 0, 70, 59
1, 612939, Note_off_c, 0, 82, 55
1, 612952, Note_on_c, 0, 94, 64
1, 612968, Note_off_c, 0, 66, 58
1, 612971, Note_off_c, 0, 94, 63
1, 612978, Note_off_c, 0, 62, 55
1, 612985, Note_on_c, 0, 93, 67
1, 612987, Note_off_c, 0, 86, 59
1, 613012, Note_off_c, 0, 93, 64
1, 613032, Note_on_c, 0, 69, 86
1, 613035, Control_c, 0, 64, 121
1, 613037, Note_on_c, 0, 66, 64
1, 613037, Note_on_c, 0, 81, 78
1, 613039, Note_on_c, 0, 62, 50
1, 613043, Note_on_c, 0, 57, 70
1, 613050, Control_c, 0, 64, 89
1, 613054, Note_on_c, 0, 86, 22
1, 613065, Control_c, 0, 64, 70
1, 613080, Control_c, 0, 64, 64
1, 613082, Note_on_c, 0, 93, 69
1, 613090, Note_off_c, 0, 81, 62
1, 613094, Control_c, 0, 64, 68
1, 613105, Note_off_c, 0, 86, 49
1, 613109, Control_c, 0, 64, 73
1, 613119, Note_off_c, 0, 66, 61
1, 613124, Control_c, 0, 64, 82
1, 613139, Control_c, 0, 64, 95
1, 613152, Note_off_c, 0, 62, 60
1, 613154, Control_c, 0, 64, 127
1, 613170, Note_on_c, 0, 81, 68
1, 613173, Note_off_c, 0, 93, 38
1, 613187, Note_on_c, 0, 86, 58
1, 613195, Note_off_c, 0, 69, 61
1, 613222, Note_on_c, 0, 93, 64
1, 613224, Note_off_c, 0, 81, 62
1, 613226, Note_off_c, 0, 57, 55
1, 613265, Note_off_c, 0, 86, 59
1, 613273, Control_c, 0, 64, 124
1, 613279, Note_off_c, 0, 93, 61
1, 613288, Control_c, 0, 64, 94
1, 613291, Poly_aftertouch_c, 0, 86, 0
1, 613303, Control_c, 0, 64, 83
1, 613306, Note_on_c, 0, 86, 41
1, 613308, Note_on_c, 0, 68, 95
1, 613315, Note_on_c, 0, 80, 79
1, 613318, Control_c, 0, 64, 82
1, 613318, Note_on_c, 0, 62, 66
1, 613330, Note_on_c, 0, 57, 71
1, 613333, Control_c, 0, 64, 86
1, 613347, Control_c, 0, 64, 98
1, 613362, Note_off_c, 0, 80, 62
1, 613362, Control_c, 0, 64, 127
1, 613374, Note_on_c, 0, 92, 76
1, 613389, Note_off_c, 0, 86, 62
1, 613437, Note_off_c, 0, 92, 65
1, 613459, Note_on_c, 0, 80, 65
1, 613470, Note_on_c, 0, 86, 45
1, 613494, Note_off_c, 0, 57, 57
1, 613496, Note_off_c, 0, 62, 57
1, 613498, Note_off_c, 0, 68, 59
1, 613498, Note_off_c, 0, 80, 53
1, 613502, Note_on_c, 0, 92, 71
1, 613563, Note_off_c, 0, 92, 65
1, 613574, Note_off_c, 0, 86, 0
1, 613574, Note_on_c, 0, 86, 25
1, 613575, Note_on_c, 0, 67, 88
1, 613586, Note_on_c, 0, 79, 68
1, 613588, Note_on_c, 0, 62, 64
1, 613589, Note_on_c, 0, 57, 69
1, 613615, Note_off_c, 0, 57, 65
1, 613619, Note_off_c, 0, 62, 63
1, 613625, Note_off_c, 0, 67, 58
1, 613628, Note_off_c, 0, 79, 56
1, 613631, Note_on_c, 0, 91, 75
1, 613643, Note_off_c, 0, 86, 57
1, 613676, Note_off_c, 0, 91, 63
1, 613702, Note_on_c, 0, 67, 87
1, 613706, Note_on_c, 0, 79, 71
1, 613711, Note_on_c, 0, 55, 67
1, 613732, Note_on_c, 0, 62, 57
1, 613737, Note_on_c, 0, 57, 41
1, 613746, Note_off_c, 0, 55, 65
1, 613748, Note_on_c, 0, 91, 74
1, 613752, Note_off_c, 0, 67, 62
1, 613752, Note_on_c, 0, 61, 5
1, 613753, Note_off_c, 0, 79, 62
1, 613755, Note_off_c, 0, 62, 60
1, 613765, Note_on_c, 0, 85, 19
1, 613767, Note_off_c, 0, 57, 64
1, 613798, Note_off_c, 0, 61, 42
1, 613800, Note_off_c, 0, 91, 62
1, 613810, Note_on_c, 0, 90, 35
1, 613815, Control_c, 0, 64, 112
1, 613830, Control_c, 0, 64, 80
1, 613830, Note_on_c, 0, 66, 96
1, 613830, Note_off_c, 0, 85, 0
1, 613831, Note_on_c, 0, 57, 75
1, 613839, Note_on_c, 0, 78, 80
1, 613844, Note_on_c, 0, 85, 46
1, 613844, Note_off_c, 0, 90, 49
1, 613844, Control_c, 0, 64, 64
1, 613847, Note_on_c, 0, 61, 67
1, 613851, Note_on_c, 0, 55, 68
1, 613859, Control_c, 0, 64, 49
1, 613874, Control_c, 0, 64, 64
1, 613889, Note_off_c, 0, 78, 62
1, 613889, Control_c, 0, 64, 73
1, 613904, Note_on_c, 0, 90, 89
1, 613904, Control_c, 0, 64, 85
1, 613907, Note_off_c, 0, 85, 63
1, 613918, Control_c, 0, 64, 112
1, 613933, Control_c, 0, 64, 127
1, 613968, Note_on_c, 0, 85, 64
1, 613971, Note_off_c, 0, 90, 63
1, 613982, Note_on_c, 0, 78, 65
1, 614023, Note_off_c, 0, 55, 61
1, 614023, Note_off_c, 0, 78, 59
1, 614024, Note_on_c, 0, 90, 77
1, 614026, Note_off_c, 0, 66, 59
1, 614034, Note_off_c, 0, 57, 58
1, 614036, Note_off_c, 0, 61, 61
1, 614048, Note_off_c, 0, 85, 63
1, 614091, Note_off_c, 0, 90, 65
1, 614097, Note_on_c, 0, 65, 94
1, 614100, Note_on_c, 0, 77, 86
1, 614105, Note_on_c, 0, 61, 77
1, 614106, Note_on_c, 0, 57, 76
1, 614110, Note_on_c, 0, 85, 64
1, 614111, Note_on_c, 0, 55, 80
1, 614112, Control_c, 0, 64, 107
1, 614127, Control_c, 0, 64, 97
1, 614141, Control_c, 0, 64, 96
1, 614148, Note_on_c, 0, 89, 85
1, 614153, Note_off_c, 0, 77, 65
1, 614156, Control_c, 0, 64, 99
1, 614171, Control_c, 0, 64, 110
1, 614172, Note_off_c, 0, 85, 64
1, 614186, Control_c, 0, 64, 127
1, 614228, Note_off_c, 0, 89, 62
1, 614233, Note_on_c, 0, 85, 67
1, 614249, Note_on_c, 0, 77, 70
1, 614274, Note_off_c, 0, 65, 60
1, 614291, Note_on_c, 0, 89, 76
1, 614294, Note_off_c, 0, 55, 60
1, 614306, Note_off_c, 0, 77, 63
1, 614321, Note_off_c, 0, 61, 61
1, 614324, Note_off_c, 0, 57, 59
1, 614325, Note_off_c, 0, 85, 63
1, 614337, Note_off_c, 0, 89, 61
1, 614384, Note_on_c, 0, 63, 95
1, 614389, Note_on_c, 0, 57, 71
1, 614390, Note_on_c, 0, 61, 75
1, 614396, Note_on_c, 0, 75, 86
1, 614397, Note_on_c, 0, 55, 77
1, 614401, Note_on_c, 0, 85, 69
1, 614466, Note_on_c, 0, 87, 72
1, 614478, Note_off_c, 0, 85, 57
1, 614538, Note_on_c, 0, 85, 50
1, 614540, Note_off_c, 0, 87, 64
1, 614555, Note_off_c, 0, 55, 59
1, 614564, Note_off_c, 0, 57, 58
1, 614564, Note_off_c, 0, 63, 56
1, 614569, Note_off_c, 0, 61, 61
1, 614569, Note_off_c, 0, 75, 63
1, 614643, Note_on_c, 0, 64, 87
1, 614643, Note_on_c, 0, 76, 79
1, 614643, Note_on_c, 0, 88, 89
1, 614644, Note_on_c, 0, 61, 83
1, 614654, Note_off_c, 0, 85, 62
1, 614656, Note_on_c, 0, 55, 78
1, 614656, Note_on_c, 0, 57, 76
1, 614661, Note_off_c, 0, 64, 74
1, 614663, Note_off_c, 0, 76, 71
1, 614680, Note_off_c, 0, 57, 68
1, 614683, Note_off_c, 0, 55, 67
1, 614686, Note_off_c, 0, 61, 62
1, 614697, Note_off_c, 0, 88, 64
1, 614874, Control_c, 0, 64, 101
1, 614885, Note_on_c, 0, 86, 89
1, 614885, Note_on_c, 0, 95, 104
1, 614886, Note_on_c, 0, 83, 100
1, 614887, Note_on_c, 0, 90, 93
1, 614889, Note_on_c, 0, 45, 96
1, 614890, Control_c, 0, 64, 61
1, 614893, Note_on_c, 0, 33, 92
1, 614905, Control_c, 0, 64, 0
1, 614917, Note_off_c, 0, 33, 71
1, 614924, Note_off_c, 0, 45, 67
1, 614934, Note_on_c, 0, 92, 34
1, 614935, Control_c, 0, 64, 65
1, 614950, Control_c, 0, 64, 127
1, 614995, Note_off_c, 0, 92, 42
1, 615008, Note_off_c, 0, 95, 63
1, 615017, Note_off_c, 0, 83, 63
1, 615059, Note_off_c, 0, 86, 61
1, 615090, Note_off_c, 0, 90, 62
1, 615130, Note_on_c, 0, 82, 85
1, 615137, Note_on_c, 0, 86, 68
1, 615140, Note_on_c, 0, 70, 102
1, 615148, Note_on_c, 0, 62, 62
1, 615173, Note_off_c, 0, 82, 59
1, 615181, Note_on_c, 0, 94, 79
1, 615198, Note_off_c, 0, 86, 62
1, 615201, Note_on_c, 0, 66, 14
1, 615203, Note_on_c, 0, 65, 46
1, 615251, Note_off_c, 0, 94, 64
1, 615259, Note_on_c, 0, 86, 66
1, 615264, Note_off_c, 0, 65, 53
1, 615272, Note_on_c, 0, 82, 66
1, 615300, Note_off_c, 0, 82, 65
1, 615320, Note_on_c, 0, 94, 73
1, 615326, Note_off_c, 0, 70, 60
1, 615351, Note_off_c, 0, 86, 51
1, 615353, Note_off_c, 0, 62, 58
1, 615366, Note_off_c, 0, 66, 41
1, 615370, Note_off_c, 0, 94, 66
1, 615399, Note_on_c, 0, 86, 35
1, 615400, Note_on_c, 0, 66, 69
1, 615400, Control_c, 0, 64, 96
1, 615401, Note_on_c, 0, 69, 90
1, 615402, Note_on_c, 0, 81, 74
1, 615408, Note_on_c, 0, 62, 53
1, 615415, Control_c, 0, 64, 75
1, 615416, Note_on_c, 0, 57, 72
1, 615430, Control_c, 0, 64, 64
1, 615440, Note_off_c, 0, 81, 59
1, 615444, Note_on_c, 0, 93, 80
1, 615445, Control_c, 0, 64, 66
1, 615460, Control_c, 0, 64, 73
1, 615469, Note_off_c, 0, 86, 63
1, 615474, Control_c, 0, 64, 88
1, 615489, Control_c, 0, 64, 122
1, 615495, Note_off_c, 0, 66, 62
1, 615496, Note_off_c, 0, 93, 63
1, 615504, Control_c, 0, 64, 127
1, 615529, Note_off_c, 0, 62, 59
1, 615535, Note_on_c, 0, 81, 74
1, 615550, Note_on_c, 0, 86, 41
1, 615562, Note_off_c, 0, 69, 62
1, 615568, Note_on_c, 0, 93, 77
1, 615572, Note_off_c, 0, 81, 60
1, 615594, Note_off_c, 0, 57, 57
1, 615619, Note_off_c, 0, 93, 64
1, 615631, Note_off_c, 0, 86, 0
1, 615654, Note_on_c, 0, 86, 35
1, 615658, Note_on_c, 0, 68, 94
1, 615659, Note_on_c, 0, 80, 82
1, 615666, Note_on_c, 0, 62, 69
1, 615685, Note_on_c, 0, 57, 64
1, 615711, Note_off_c, 0, 80, 61
1, 615723, Note_on_c, 0, 92, 84
1, 615749, Note_off_c, 0, 86, 57
1, 615787, Note_on_c, 0, 86, 40
1, 615798, Note_off_c, 0, 92, 64
1, 615800, Note_on_c, 0, 80, 74
1, 615813, Note_off_c, 0, 62, 55
1, 615814, Note_off_c, 0, 68, 57
1, 615824, Note_off_c, 0, 57, 58
1, 615851, Note_on_c, 0, 92, 58
1, 615852, Note_off_c, 0, 80, 61
1, 615872, Note_off_c, 0, 92, 60
1, 615876, Note_on_c, 0, 91, 72
1, 615901, Note_off_c, 0, 91, 64
1, 615915, Note_on_c, 0, 67, 81
1, 615923, Note_on_c, 0, 57, 69
1, 615923, Note_on_c, 0, 62, 68
1, 615925, Note_on_c, 0, 79, 75
1, 615930, Note_off_c, 0, 86, 0
1, 615930, Note_on_c, 0, 86, 17
1, 615960, Note_off_c, 0, 62, 58
1, 615962, Note_off_c, 0, 57, 56
1, 615964, Note_off_c, 0, 67, 58
1, 615971, Note_on_c, 0, 91, 82
1, 615974, Note_off_c, 0, 79, 59
1, 615976, Note_off_c, 0, 86, 61
1, 616042, Note_on_c, 0, 67, 85
1, 616042, Note_on_c, 0, 55, 70
1, 616048, Note_on_c, 0, 79, 77
1, 616051, Note_on_c, 0, 61, 57
1, 616051, Note_off_c, 0, 91, 0
1, 616062, Note_on_c, 0, 57, 72
1, 616066, Note_on_c, 0, 91, 38
1, 616079, Note_off_c, 0, 61, 56
1, 616080, Note_off_c, 0, 55, 63
1, 616084, Note_on_c, 0, 85, 62
1, 616088, Note_off_c, 0, 79, 61
1, 616090, Note_off_c, 0, 67, 62
1, 616099, Note_on_c, 0, 62, 18
1, 616109, Note_off_c, 0, 57, 60
1, 616114, Note_off_c, 0, 85, 67
1, 616116, Note_on_c, 0, 90, 61
1, 616128, Note_off_c, 0, 91, 64
1, 616136, Note_off_c, 0, 90, 65
1, 616144, Note_off_c, 0, 62, 41
1, 616150, Control_c, 0, 64, 100
1, 616164, Control_c, 0, 64, 74
1, 616167, Note_on_c, 0, 66, 101
1, 616168, Note_on_c, 0, 78, 89
1, 616176, Note_on_c, 0, 61, 75
1, 616176, Note_on_c, 0, 57, 64
1, 616179, Control_c, 0, 64, 62
1, 616186, Note_on_c, 0, 55, 75
1, 616194, Control_c, 0, 64, 67
1, 616196, Note_on_c, 0, 85, 66
1, 616209, Control_c, 0, 64, 79
1, 616218, Note_on_c, 0, 90, 80
1, 616221, Note_off_c, 0, 78, 62
1, 616224, Control_c, 0, 64, 107
1, 616231, Note_off_c, 0, 85, 63
1, 616238, Control_c, 0, 64, 127
1, 616293, Note_off_c, 0, 90, 63
1, 616296, Note_on_c, 0, 85, 73
1, 616300, Note_on_c, 0, 78, 70
1, 616320, Note_off_c, 0, 55, 62
1, 616320, Note_off_c, 0, 66, 61
1, 616328, Note_off_c, 0, 57, 60
1, 616331, Note_off_c, 0, 61, 59
1, 616342, Note_off_c, 0, 78, 62
1, 616348, Note_on_c, 0, 90, 78
1, 616368, Note_off_c, 0, 85, 63
1, 616394, Note_off_c, 0, 90, 66
1, 616403, Note_on_c, 0, 65, 70
1, 616409, Note_on_c, 0, 61, 62
1, 616421, Note_on_c, 0, 77, 78
1, 616421, Note_on_c, 0, 57, 52
1, 616421, Note_off_c, 0, 65, 67
1, 616422, Note_on_c, 0, 55, 56
1, 616427, Note_on_c, 0, 85, 64
1, 616432, Note_off_c, 0, 61, 65
1, 616440, Note_off_c, 0, 55, 65
1, 616444, Note_off_c, 0, 57, 60
1, 616471, Note_on_c, 0, 89, 84
1, 616477, Note_off_c, 0, 77, 64
1, 616486, Note_off_c, 0, 85, 64
1, 616513, Control_c, 0, 64, 76
1, 616528, Control_c, 0, 64, 0
1, 616540, Note_on_c, 0, 46, 105
1, 616543, Note_on_c, 0, 34, 90
1, 616543, Control_c, 0, 64, 53
1, 616546, Note_on_c, 0, 77, 82
1, 616549, Note_on_c, 0, 85, 74
1, 616549, Note_off_c, 0, 89, 40
1, 616558, Control_c, 0, 64, 106
1, 616567, Note_off_c, 0, 34, 66
1, 616569, Note_off_c, 0, 46, 63
1, 616573, Control_c, 0, 64, 127
1, 616590, Note_off_c, 0, 77, 62
1, 616605, Note_on_c, 0, 89, 50
1, 616618, Note_off_c, 0, 85, 64
1, 616626, Note_off_c, 0, 89, 59
1, 616674, Note_on_c, 0, 75, 95
1, 616686, Note_on_c, 0, 63, 96
1, 616689, Note_on_c, 0, 61, 79
1, 616690, Note_on_c, 0, 85, 65
1, 616707, Note_on_c, 0, 55, 50
1, 616740, Note_off_c, 0, 75, 58
1, 616758, Note_off_c, 0, 85, 64
1, 616775, Note_on_c, 0, 87, 64
1, 616805, Note_on_c, 0, 85, 62
1, 616825, Note_off_c, 0, 55, 59
1, 616832, Note_off_c, 0, 61, 57
1, 616834, Note_off_c, 0, 63, 56
1, 616845, Note_off_c, 0, 87, 64
1, 616886, Note_off_c, 0, 85, 59
1, 616919, Note_on_c, 0, 76, 92
1, 616919, Note_on_c, 0, 85, 57
1, 616922, Note_on_c, 0, 61, 89
1, 616922, Note_on_c, 0, 64, 87
1, 616929, Note_on_c, 0, 55, 81
1, 616930, Note_on_c, 0, 88, 82
1, 616940, Note_off_c, 0, 64, 73
1, 616940, Note_off_c, 0, 76, 64
1, 616945, Note_on_c, 0, 87, 66
1, 616950, Note_off_c, 0, 85, 66
1, 616958, Note_off_c, 0, 55, 68
1, 616963, Note_off_c, 0, 61, 60
1, 616970, Note_off_c, 0, 87, 69
1, 616972, Note_off_c, 0, 88, 65
1, 617121, Control_c, 0, 64, 83
1, 617136, Control_c, 0, 64, 0
1, 617154, Note_on_c, 0, 88, 84
1, 617157, Note_on_c, 0, 97, 95
1, 617160, Note_on_c, 0, 47, 105
1, 617160, Note_on_c, 0, 92, 86
1, 617163, Note_on_c, 0, 85, 97
1, 617166, Note_on_c, 0, 35, 92
1, 617176, Note_on_c, 0, 87, 74
1, 617180, Control_c, 0, 64, 74
1, 617188, Note_off_c, 0, 35, 68
1, 617195, Control_c, 0, 64, 127
1, 617199, Note_on_c, 0, 94, 54
1, 617210, Note_off_c, 0, 47, 65
1, 617211, Note_off_c, 0, 87, 51
1, 617259, Note_off_c, 0, 94, 40
1, 617266, Note_off_c, 0, 85, 65
1, 617288, Note_off_c, 0, 97, 61
1, 617297, Poly_aftertouch_c, 0, 37, 0
1, 617318, Note_off_c, 0, 88, 58
1, 617369, Note_off_c, 0, 92, 60
1, 617388, Note_on_c, 0, 88, 76
1, 617393, Note_on_c, 0, 84, 77
1, 617400, Note_on_c, 0, 72, 95
1, 617408, Note_on_c, 0, 68, 72
1, 617417, Note_on_c, 0, 64, 74
1, 617446, Note_off_c, 0, 84, 62
1, 617448, Note_on_c, 0, 96, 76
1, 617461, Note_off_c, 0, 88, 62
1, 617508, Note_off_c, 0, 96, 62
1, 617531, Note_on_c, 0, 88, 65
1, 617533, Note_on_c, 0, 84, 71
1, 617562, Note_off_c, 0, 72, 58
1, 617567, Note_off_c, 0, 84, 60
1, 617580, Note_off_c, 0, 68, 60
1, 617584, Note_off_c, 0, 64, 61
1, 617585, Note_on_c, 0, 96, 68
1, 617602, Note_off_c, 0, 88, 64
1, 617609, Note_off_c, 0, 96, 65
1, 617648, Note_on_c, 0, 71, 99
1, 617648, Control_c, 0, 64, 81
1, 617652, Note_on_c, 0, 68, 78
1, 617653, Note_on_c, 0, 83, 80
1, 617658, Note_on_c, 0, 64, 70
1, 617663, Control_c, 0, 64, 46
1, 617666, Note_on_c, 0, 59, 71
1, 617678, Control_c, 0, 64, 0
1, 617679, Note_on_c, 0, 88, 39
1, 617692, Control_c, 0, 64, 50
1, 617701, Note_on_c, 0, 95, 80
1, 617707, Control_c, 0, 64, 70
1, 617710, Note_off_c, 0, 83, 65
1, 617722, Control_c, 0, 64, 88
1, 617730, Note_off_c, 0, 88, 63
1, 617737, Control_c, 0, 64, 127
1, 617740, Note_off_c, 0, 68, 62
1, 617752, Note_off_c, 0, 95, 63
1, 617761, Note_off_c, 0, 64, 64
1, 617779, Note_on_c, 0, 83, 77
1, 617797, Note_off_c, 0, 71, 63
1, 617801, Note_on_c, 0, 88, 58
1, 617822, Note_off_c, 0, 83, 64
1, 617834, Note_off_c, 0, 59, 51
1, 617837, Note_on_c, 0, 95, 81
1, 617865, Note_off_c, 0, 88, 63
1, 617870, Control_c, 0, 64, 75
1, 617880, Note_off_c, 0, 95, 66
1, 617884, Control_c, 0, 64, 0
1, 617902, Note_on_c, 0, 70, 91
1, 617902, Poly_aftertouch_c, 0, 88, 0
1, 617907, Note_on_c, 0, 82, 93
1, 617908, Note_on_c, 0, 64, 75
1, 617911, Note_on_c, 0, 88, 58
1, 617914, Control_c, 0, 64, 58
1, 617924, Note_on_c, 0, 59, 72
1, 617929, Control_c, 0, 64, 88
1, 617944, Control_c, 0, 64, 127
1, 617960, Note_off_c, 0, 82, 64
1, 617977, Note_on_c, 0, 94, 89
1, 617986, Note_off_c, 0, 88, 64
1, 618039, Note_off_c, 0, 94, 62
1, 618045, Note_on_c, 0, 88, 53
1, 618051, Note_on_c, 0, 82, 71
1, 618062, Note_off_c, 0, 64, 59
1, 618068, Note_off_c, 0, 70, 57
1, 618069, Note_off_c, 0, 59, 58
1, 618084, Note_off_c, 0, 82, 58
1, 618093, Note_on_c, 0, 94, 78
1, 618123, Note_off_c, 0, 88, 61
1, 618126, Note_off_c, 0, 94, 63
1, 618154, Note_on_c, 0, 69, 83
1, 618162, Note_on_c, 0, 64, 74
1, 618165, Note_on_c, 0, 59, 70
1, 618168, Note_on_c, 0, 81, 78
1, 618173, Note_on_c, 0, 88, 29
1, 618189, Note_off_c, 0, 59, 65
1, 618191, Note_off_c, 0, 64, 67
1, 618195, Note_off_c, 0, 69, 59
1, 618198, Note_on_c, 0, 93, 37
1, 618212, Note_off_c, 0, 81, 60
1, 618227, Note_off_c, 0, 88, 52
1, 618264, Note_off_c, 0, 93, 63
1, 618281, Note_on_c, 0, 69, 89
1, 618285, Note_on_c, 0, 63, 76
1, 618286, Note_on_c, 0, 57, 71
1, 618286, Note_on_c, 0, 81, 79
1, 618294, Note_on_c, 0, 59, 71
1, 618311, Note_off_c, 0, 57, 67
1, 618321, Note_on_c, 0, 93, 65
1, 618321, Note_off_c, 0, 81, 64
1, 618326, Note_off_c, 0, 69, 64
1, 618327, Note_on_c, 0, 87, 56
1, 618332, Note_off_c, 0, 63, 62
1, 618349, Note_off_c, 0, 59, 58
1, 618358, Note_off_c, 0, 87, 67
1, 618367, Control_c, 0, 64, 95
1, 618368, Note_off_c, 0, 93, 63
1, 618382, Control_c, 0, 64, 66
1, 618397, Control_c, 0, 64, 0
1, 618401, Note_on_c, 0, 80, 89
1, 618409, Note_on_c, 0, 68, 98
1, 618412, Control_c, 0, 64, 43
1, 618414, Note_on_c, 0, 59, 69
1, 618418, Note_on_c, 0, 63, 79
1, 618425, Note_on_c, 0, 87, 71
1, 618426, Control_c, 0, 64, 72
1, 618429, Note_on_c, 0, 57, 62
1, 618441, Control_c, 0, 64, 100
1, 618446, Note_off_c, 0, 80, 64
1, 618456, Control_c, 0, 64, 127
1, 618461, Note_on_c, 0, 92, 80
1, 618477, Note_off_c, 0, 87, 64
1, 618525, Note_off_c, 0, 92, 64
1, 618526, Note_on_c, 0, 87, 61
1, 618527, Note_on_c, 0, 80, 78
1, 618531, Note_off_c, 0, 57, 57
1, 618540, Note_off_c, 0, 68, 59
1, 618543, Note_off_c, 0, 59, 58
1, 618545, Note_off_c, 0, 63, 58
1, 618569, Note_off_c, 0, 80, 63
1, 618578, Note_on_c, 0, 92, 76
1, 618593, Note_off_c, 0, 87, 65
1, 618616, Note_off_c, 0, 92, 68
1, 618624, Note_on_c, 0, 58, 71
1, 618624, Note_on_c, 0, 67, 79
1, 618636, Note_on_c, 0, 57, 68
1, 618639, Note_on_c, 0, 63, 69
1, 618645, Note_on_c, 0, 79, 83
1, 618647, Note_off_c, 0, 58, 60
1, 618648, Note_off_c, 0, 67, 68
1, 618656, Note_on_c, 0, 87, 60
1, 618661, Note_off_c, 0, 57, 68
1, 618665, Note_on_c, 0, 59, 32
1, 618667, Note_off_c, 0, 63, 65
1, 618692, Note_off_c, 0, 79, 60
1, 618695, Note_off_c, 0, 59, 55
1, 618704, Note_on_c, 0, 91, 78
1, 618713, Note_off_c, 0, 87, 65
1, 618715, Control_c, 0, 64, 87
1, 618730, Control_c, 0, 64, 0
1, 618762, Note_on_c, 0, 47, 103
1, 618766, Note_on_c, 0, 36, 89
1, 618774, Control_c, 0, 64, 127
1, 618777, Note_on_c, 0, 87, 69
1, 618777, Note_on_c, 0, 79, 82
1, 618779, Note_off_c, 0, 91, 65
1, 618789, Note_off_c, 0, 36, 68
1, 618797, Note_off_c, 0, 47, 69
1, 618832, Note_off_c, 0, 79, 60
1, 618846, Note_on_c, 0, 91, 67
1, 618851, Note_off_c, 0, 87, 64
1, 618875, Note_off_c, 0, 91, 50
1, 618885, Note_on_c, 0, 89, 41
1, 618900, Note_on_c, 0, 65, 90
1, 618907, Note_on_c, 0, 63, 82
1, 618912, Note_on_c, 0, 57, 76
1, 618917, Note_on_c, 0, 77, 81
1, 618922, Note_off_c, 0, 89, 49
1, 618925, Note_on_c, 0, 87, 63
1, 618971, Note_off_c, 0, 77, 63
1, 618995, Note_off_c, 0, 87, 63
1, 619035, Note_on_c, 0, 89, 57
1, 619037, Note_off_c, 0, 65, 55
1, 619038, Poly_aftertouch_c, 0, 87, 0
1, 619043, Note_on_c, 0, 77, 86
1, 619045, Note_on_c, 0, 87, 69
1, 619047, Note_off_c, 0, 57, 56
1, 619056, Note_off_c, 0, 89, 63
1, 619065, Note_off_c, 0, 63, 58
1, 619068, Note_off_c, 0, 77, 66
1, 619100, Note_off_c, 0, 87, 63
1, 619134, Note_on_c, 0, 66, 95
1, 619142, Note_on_c, 0, 63, 83
1, 619145, Note_on_c, 0, 57, 78
1, 619147, Note_on_c, 0, 78, 83
1, 619147, Note_on_c, 0, 90, 88
1, 619152, Note_on_c, 0, 87, 60
1, 619154, Note_off_c, 0, 66, 67
1, 619166, Note_off_c, 0, 78, 72
1, 619168, Note_off_c, 0, 57, 68
1, 619173, Note_off_c, 0, 63, 60
1, 619175, Note_off_c, 0, 87, 35
1, 619190, Note_off_c, 0, 90, 64
1, 619293, Control_c, 0, 64, 82
1, 619308, Control_c, 0, 64, 0
1, 619339, Note_on_c, 0, 87, 116
1, 619342, Note_on_c, 0, 49, 116
1, 619342, Note_on_c, 0, 90, 94
1, 619342, Note_on_c, 0, 99, 94
1, 619343, Note_on_c, 0, 94, 93
1, 619347, Note_on_c, 0, 37, 92
1, 619352, Control_c, 0, 64, 127
1, 619357, Note_on_c, 0, 97, 70
1, 619369, Note_off_c, 0, 37, 67
1, 619372, Note_off_c, 0, 97, 68
1, 619376, Note_off_c, 0, 49, 62
1, 619421, Note_off_c, 0, 99, 66
1, 619448, Note_off_c, 0, 87, 60
1, 619459, Note_off_c, 0, 90, 62
1, 619496, Note_off_c, 0, 94, 61
1, 619500, Poly_aftertouch_c, 0, 37, 127
1, 619539, Poly_aftertouch_c, 0, 37, 0
1, 619545, Note_on_c, 0, 86, 72
1, 619546, Note_on_c, 0, 90, 73
1, 619551, Note_on_c, 0, 74, 101
1, 619557, Note_on_c, 0, 70, 79
1, 619563, Note_on_c, 0, 66, 69
1, 619577, Note_on_c, 0, 98, 79
1, 619587, Note_on_c, 0, 68, 40
1, 619590, Note_off_c, 0, 86, 63
1, 619594, Note_off_c, 0, 90, 60
1, 619618, Note_off_c, 0, 68, 55
1, 619637, Note_off_c, 0, 98, 66
1, 619665, Note_on_c, 0, 86, 69
1, 619670, Note_on_c, 0, 90, 59
1, 619706, Note_off_c, 0, 74, 59
1, 619709, Note_off_c, 0, 86, 62
1, 619715, Note_on_c, 0, 98, 79
1, 619727, Note_off_c, 0, 70, 61
1, 619729, Note_off_c, 0, 90, 64
1, 619729, Note_off_c, 0, 66, 60
1, 619753, Note_off_c, 0, 98, 62
1, 619761, Note_on_c, 0, 97, 38
1, 619792, Control_c, 0, 64, 96
1, 619792, Note_off_c, 0, 97, 56
1, 619795, Note_on_c, 0, 90, 67
1, 619798, Note_on_c, 0, 73, 108
1, 619798, Note_on_c, 0, 85, 87
1, 619806, Note_on_c, 0, 70, 81
1, 619806, Control_c, 0, 64, 63
1, 619813, Note_on_c, 0, 61, 74
1, 619813, Note_on_c, 0, 66, 73
1, 619821, Control_c, 0, 64, 0
1, 619836, Control_c, 0, 64, 43
1, 619851, Control_c, 0, 64, 71
1, 619852, Note_on_c, 0, 97, 90
1, 619856, Note_off_c, 0, 85, 62
1, 619862, Note_off_c, 0, 90, 64
1, 619866, Control_c, 0, 64, 95
1, 619880, Control_c, 0, 64, 127
1, 619894, Note_off_c, 0, 70, 62
1, 619924, Note_off_c, 0, 97, 64
1, 619926, Note_on_c, 0, 90, 69
1, 619931, Note_on_c, 0, 85, 61
1, 619941, Note_off_c, 0, 73, 58
1, 619945, Note_off_c, 0, 66, 60
1, 619965, Note_off_c, 0, 85, 65
1, 619972, Note_off_c, 0, 61, 61
1, 619979, Note_on_c, 0, 97, 79
1, 619996, Note_off_c, 0, 90, 64
1, 620045, Note_off_c, 0, 97, 64
1, 620052, Note_on_c, 0, 84, 81
1, 620057, Note_on_c, 0, 72, 95
1, 620063, Note_on_c, 0, 66, 75
1, 620063, Note_on_c, 0, 90, 56
1, 620070, Note_on_c, 0, 61, 79
1, 620108, Note_off_c, 0, 84, 62
1, 620111, Note_on_c, 0, 96, 80
1, 620145, Poly_aftertouch_c, 0, 63, 127
1, 620152, Note_off_c, 0, 96, 62
1, 620180, Note_on_c, 0, 84, 72
1, 620186, Note_off_c, 0, 72, 59
1, 620203, Note_off_c, 0, 61, 59
1, 620204, Poly_aftertouch_c, 0, 63, 0
1, 620216, Note_off_c, 0, 66, 58
1, 620233, Note_off_c, 0, 84, 62
1, 620255, Note_off_c, 0, 90, 64
1, 620262, Note_on_c, 0, 96, 45
1, 620266, Note_on_c, 0, 95, 58
1, 620284, Note_off_c, 0, 96, 60
1, 620285, Note_off_c, 0, 95, 62
1, 620300, Note_on_c, 0, 61, 82
1, 620300, Note_on_c, 0, 72, 72
1, 620301, Note_on_c, 0, 83, 84
1, 620308, Note_on_c, 0, 71, 74
1, 620332, Note_off_c, 0, 71, 69
1, 620338, Note_on_c, 0, 66, 23
1, 620338, Note_off_c, 0, 72, 60
1, 620350, Note_off_c, 0, 61, 60
1, 620351, Note_on_c, 0, 95, 83
1, 620351, Note_off_c, 0, 83, 66
1, 620371, Note_off_c, 0, 66, 54
1, 620399, Note_off_c, 0, 95, 67
1, 620428, Note_on_c, 0, 83, 94
1, 620430, Note_on_c, 0, 70, 93
1, 620437, Note_on_c, 0, 89, 43
1, 620442, Note_on_c, 0, 59, 69
1, 620442, Note_on_c, 0, 65, 64
1, 620448, Note_on_c, 0, 61, 65
1, 620475, Note_off_c, 0, 83, 67
1, 620479, Note_on_c, 0, 95, 71
1, 620489, Note_off_c, 0, 59, 59
1, 620495, Note_off_c, 0, 70, 62
1, 620503, Note_off_c, 0, 65, 62
1, 620503, Note_off_c, 0, 61, 60
1, 620510, Control_c, 0, 64, 107
1, 620515, Note_on_c, 0, 94, 59
1, 620515, Note_off_c, 0, 95, 54
1, 620525, Control_c, 0, 64, 74
1, 620534, Note_off_c, 0, 94, 65
1, 620540, Control_c, 0, 64, 0
1, 620543, Note_off_c, 0, 89, 0
1, 620555, Control_c, 0, 64, 42
1, 620559, Note_on_c, 0, 89, 49
1, 620561, Note_on_c, 0, 82, 98
1, 620570, Note_on_c, 0, 69, 75
1, 620570, Control_c, 0, 64, 70
1, 620572, Note_on_c, 0, 61, 70
1, 620573, Note_on_c, 0, 71, 78
1, 620573, Note_on_c, 0, 65, 66
1, 620577, Note_on_c, 0, 59, 81
1, 620584, Control_c, 0, 64, 95
1, 620593, Note_off_c, 0, 71, 67
1, 620599, Control_c, 0, 64, 127
1, 620610, Note_on_c, 0, 94, 83
1, 620621, Note_off_c, 0, 82, 65
1, 620646, Note_on_c, 0, 92, 52
1, 620661, Note_off_c, 0, 59, 54
1, 620665, Note_off_c, 0, 69, 61
1, 620671, Note_off_c, 0, 92, 59
1, 620675, Note_off_c, 0, 65, 59
1, 620677, Note_off_c, 0, 94, 64
1, 620680, Note_off_c, 0, 61, 58
1, 620692, Note_on_c, 0, 82, 85
1, 620741, Note_off_c, 0, 82, 59
1, 620745, Note_on_c, 0, 94, 77
1, 620787, Note_on_c, 0, 61, 76
1, 620787, Note_on_c, 0, 65, 77
1, 620792, Note_off_c, 0, 94, 67
1, 620794, Note_off_c, 0, 89, 0
1, 620794, Note_on_c, 0, 89, 8
1, 620795, Note_on_c, 0, 59, 67
1, 620809, Note_off_c, 0, 65, 71
1, 620812, Note_on_c, 0, 81, 78
1, 620815, Note_off_c, 0, 59, 70
1, 620817, Note_off_c, 0, 61, 60
1, 620847, Note_off_c, 0, 81, 57
1, 620868, Note_on_c, 0, 93, 82
1, 620880, Control_c, 0, 64, 114
1, 620895, Control_c, 0, 64, 77
1, 620910, Control_c, 0, 64, 67
1, 620910, Note_on_c, 0, 50, 104
1, 620917, Note_on_c, 0, 38, 92
1, 620925, Control_c, 0, 64, 82
1, 620928, Note_on_c, 0, 81, 82
1, 620928, Note_off_c, 0, 89, 0
1, 620928, Note_on_c, 0, 89, 8
1, 620945, Note_off_c, 0, 50, 67
1, 620946, Control_c, 0, 64, 127
1, 620949, Note_off_c, 0, 38, 70
1, 620949, Note_on_c, 0, 39, 44
1, 620982, Note_off_c, 0, 39, 56
1, 620985, Note_off_c, 0, 81, 62
1, 620987, Note_off_c, 0, 89, 60
1, 620988, Note_off_c, 0, 93, 38
1, 621030, Poly_aftertouch_c, 0, 44, 0
1, 621050, Note_on_c, 0, 67, 91
1, 621050, Note_on_c, 0, 79, 92
1, 621053, Note_on_c, 0, 65, 77
1, 621053, Note_on_c, 0, 59, 82
1, 621061, Note_on_c, 0, 89, 71
1, 621101, Note_off_c, 0, 79, 61
1, 621134, Note_off_c, 0, 89, 59
1, 621153, Poly_aftertouch_c, 0, 64, 0
1, 621161, Note_on_c, 0, 89, 65
1, 621172, Note_on_c, 0, 79, 83
1, 621173, Note_off_c, 0, 67, 57
1, 621199, Note_off_c, 0, 59, 59
1, 621207, Note_off_c, 0, 79, 62
1, 621212, Note_off_c, 0, 65, 62
1, 621247, Note_off_c, 0, 89, 60
1, 621283, Note_on_c, 0, 68, 94
1, 621285, Note_on_c, 0, 80, 87
1, 621289, Note_on_c, 0, 59, 81
1, 621291, Note_on_c, 0, 65, 73
1, 621292, Note_on_c, 0, 92, 87
1, 621302, Note_on_c, 0, 89, 30
1, 621304, Note_off_c, 0, 68, 66
1, 621317, Note_off_c, 0, 65, 69
1, 621319, Note_off_c, 0, 80, 60
1, 621328, Note_off_c, 0, 59, 59
1, 621340, Note_off_c, 0, 89, 48
1, 621342, Note_off_c, 0, 92, 66
1, 621465, Control_c, 0, 64, 74
1, 621480, Control_c, 0, 64, 0
1, 621491, Note_on_c, 0, 89, 110
1, 621491, Note_on_c, 0, 92, 93
1, 621492, Note_on_c, 0, 101, 96
1, 621493, Note_on_c, 0, 96, 93
1, 621500, Note_on_c, 0, 51, 107
1, 621509, Note_on_c, 0, 39, 92
1, 621513, Note_on_c, 0, 99, 70
1, 621524, Control_c, 0, 64, 127
1, 621533, Note_off_c, 0, 39, 65
1, 621533, Note_off_c, 0, 51, 64
1, 621583, Note_off_c, 0, 89, 58
1, 621584, Note_off_c, 0, 101, 61
1, 621599, Note_off_c, 0, 99, 45
1, 621625, Note_off_c, 0, 92, 64
1, 621649, Note_off_c, 0, 96, 62
1, 621703, Note_on_c, 0, 88, 79
1, 621703, Poly_aftertouch_c, 0, 39, 0
1, 621712, Note_on_c, 0, 76, 100
1, 621714, Note_on_c, 0, 72, 75
1, 621718, Note_on_c, 0, 68, 75
1, 621718, Note_on_c, 0, 92, 63
1, 621733, Note_on_c, 0, 100, 75
1, 621753, Note_off_c, 0, 92, 64
1, 621755, Note_off_c, 0, 88, 65
1, 621801, Note_off_c, 0, 100, 63
1, 621828, Note_on_c, 0, 88, 58
1, 621838, Note_on_c, 0, 92, 61
1, 621864, Note_off_c, 0, 88, 63
1, 621867, Note_off_c, 0, 76, 59
1, 621879, Note_on_c, 0, 100, 74
1, 621885, Note_off_c, 0, 72, 61
1, 621888, Note_off_c, 0, 68, 61
1, 621890, Note_off_c, 0, 92, 64
1, 621906, Note_off_c, 0, 100, 62
1, 621961, Note_on_c, 0, 87, 84
1, 621962, Control_c, 0, 64, 84
1, 621962, Note_on_c, 0, 75, 105
1, 621963, Note_on_c, 0, 92, 72
1, 621967, Note_on_c, 0, 68, 86
1, 621967, Note_on_c, 0, 72, 84
1, 621976, Control_c, 0, 64, 43
1, 621977, Note_on_c, 0, 63, 77
1, 621991, Control_c, 0, 64, 0
1, 622006, Control_c, 0, 64, 67
1, 622013, Note_off_c, 0, 92, 66
1, 622013, Note_off_c, 0, 87, 59
1, 622014, Note_on_c, 0, 99, 81
1, 622017, Note_off_c, 0, 72, 64
1, 622021, Control_c, 0, 64, 92
1, 622036, Control_c, 0, 64, 127
1, 622042, Note_off_c, 0, 68, 61
1, 622046, Note_off_c, 0, 75, 62
1, 622064, Note_off_c, 0, 99, 65
1, 622088, Note_on_c, 0, 92, 62
1, 622104, Note_on_c, 0, 87, 50
1, 622106, Note_off_c, 0, 63, 56
1, 622131, Note_off_c, 0, 87, 57
1, 622132, Note_off_c, 0, 92, 60
1, 622132, Note_on_c, 0, 99, 80
1, 622153, Note_off_c, 0, 99, 73
1, 622213, Note_on_c, 0, 72, 78
1, 622214, Note_on_c, 0, 92, 67
1, 622216, Note_on_c, 0, 68, 75
1, 622216, Note_on_c, 0, 84, 70
1, 622219, Note_on_c, 0, 63, 74
1, 622235, Note_off_c, 0, 72, 71
1, 622239, Note_off_c, 0, 68, 68
1, 622251, Note_off_c, 0, 63, 65
1, 622261, Note_off_c, 0, 92, 66
1, 622266, Note_on_c, 0, 96, 75
1, 622274, Note_off_c, 0, 84, 37
1, 622275, Note_on_c, 0, 98, 63
1, 622296, Note_off_c, 0, 98, 64
1, 622305, Note_on_c, 0, 92, 69
1, 622311, Note_off_c, 0, 96, 65
1, 622318, Note_on_c, 0, 84, 39
1, 622356, Note_off_c, 0, 84, 65
1, 622358, Note_off_c, 0, 92, 67
1, 622421, Note_on_c, 0, 51, 82
1, 622429, Note_on_c, 0, 39, 68
1, 622455, Note_off_c, 0, 51, 66
1, 622460, Note_off_c, 0, 39, 63
1, 622495, Note_on_c, 0, 80, 71
1, 622496, Note_on_c, 0, 84, 60
1, 622501, Note_on_c, 0, 87, 64
1, 622515, Note_off_c, 0, 80, 65
1, 622523, Note_off_c, 0, 84, 67
1, 622530, Note_off_c, 0, 87, 67
1, 622540, Note_on_c, 0, 51, 77
1, 622543, Note_on_c, 0, 39, 80
1, 622585, Poly_aftertouch_c, 0, 92, 0
1, 622594, Note_off_c, 0, 51, 62
1, 622597, Note_off_c, 0, 39, 58
1, 622599, Note_on_c, 0, 80, 72
1, 622615, Note_on_c, 0, 82, 76
1, 622615, Note_on_c, 0, 90, 64
1, 622633, Note_off_c, 0, 90, 65
1, 622652, Note_off_c, 0, 80, 62
1, 622653, Note_off_c, 0, 82, 55
1, 622660, Note_on_c, 0, 52, 97
1, 622668, Note_on_c, 0, 40, 87
1, 622697, Note_off_c, 0, 40, 66
1, 622697, Note_off_c, 0, 52, 62
1, 622718, Note_on_c, 0, 79, 92
1, 622724, Note_on_c, 0, 82, 82
1, 622728, Note_on_c, 0, 85, 80
1, 622730, Note_on_c, 0, 91, 70
1, 622737, Poly_aftertouch_c, 0, 44, 127
1, 622746, Note_off_c, 0, 91, 67
1, 622760, Note_off_c, 0, 79, 61
1, 622766, Poly_aftertouch_c, 0, 44, 0
1, 622776, Note_off_c, 0, 85, 64
1, 622782, Note_off_c, 0, 82, 62
1, 622785, Note_on_c, 0, 53, 100
1, 622791, Note_on_c, 0, 41, 87
1, 622811, Note_on_c, 0, 42, 56
1, 622815, Note_on_c, 0, 46, 47
1, 622818, Note_off_c, 0, 41, 66
1, 622828, Note_off_c, 0, 53, 63
1, 622840, Note_on_c, 0, 78, 99
1, 622840, Note_off_c, 0, 42, 57
1, 622847, Note_on_c, 0, 82, 78
1, 622848, Note_off_c, 0, 46, 54
1, 622851, Note_on_c, 0, 90, 81
1, 622853, Note_on_c, 0, 85, 74
1, 622873, Note_on_c, 0, 87, 55
1, 622894, Note_off_c, 0, 87, 62
1, 622901, Note_off_c, 0, 78, 58
1, 622904, Note_off_c, 0, 90, 64
1, 622904, Note_off_c, 0, 82, 60
1, 622907, Note_on_c, 0, 54, 102
1, 622907, Note_off_c, 0, 85, 63
1, 622908, Note_on_c, 0, 42, 90
1, 622939, Note_on_c, 0, 46, 41
1, 622955, Note_off_c, 0, 54, 64
1, 622958, Note_off_c, 0, 42, 62
1, 622969, Note_off_c, 0, 46, 53
1, 622973, Note_on_c, 0, 77, 92
1, 622977, Note_on_c, 0, 82, 78
1, 622980, Note_on_c, 0, 85, 76
1, 622983, Poly_aftertouch_c, 0, 44, 127
1, 622985, Note_on_c, 0, 89, 75
1, 623015, Note_off_c, 0, 77, 64
1, 623017, Note_off_c, 0, 89, 53
1, 623029, Note_off_c, 0, 82, 62
1, 623030, Note_off_c, 0, 85, 64
1, 623034, Note_on_c, 0, 55, 93
1, 623036, Note_on_c, 0, 43, 90
1, 623037, Control_c, 0, 64, 109
1, 623052, Control_c, 0, 64, 65
1, 623053, Poly_aftertouch_c, 0, 44, 0
1, 623056, Note_off_c, 0, 55, 69
1, 623061, Note_off_c, 0, 43, 67
1, 623067, Control_c, 0, 64, 0
1, 623102, Note_on_c, 0, 76, 97
1, 623107, Note_on_c, 0, 88, 92
1, 623136, Note_off_c, 0, 76, 66
1, 623136, Note_off_c, 0, 88, 61
1, 623179, Note_on_c, 0, 63, 99
1, 623193, Note_on_c, 0, 51, 81
1, 623210, Note_off_c, 0, 63, 64
1, 623221, Note_off_c, 0, 51, 69
1, 623231, Note_on_c, 0, 87, 93
1, 623232, Note_on_c, 0, 75, 97
1, 623274, Note_off_c, 0, 75, 66
1, 623286, Note_off_c, 0, 87, 65
1, 623311, Note_on_c, 0, 64, 99
1, 623317, Note_on_c, 0, 52, 89
1, 623344, Note_off_c, 0, 52, 66
1, 623351, Note_off_c, 0, 64, 64
1, 623369, Note_on_c, 0, 76, 96
1, 623372, Note_on_c, 0, 88, 90
1, 623397, Note_on_c, 0, 87, 55
1, 623402, Note_off_c, 0, 76, 66
1, 623406, Note_off_c, 0, 88, 64
1, 623418, Note_off_c, 0, 87, 62
1, 623445, Control_c, 0, 64, 108
1, 623452, Note_on_c, 0, 51, 83
1, 623454, Note_on_c, 0, 63, 71
1, 623460, Control_c, 0, 64, 127
1, 623471, Note_on_c, 0, 50, 54
1, 623475, Note_on_c, 0, 61, 37
1, 623475, Note_off_c, 0, 63, 64
1, 623480, Note_on_c, 0, 87, 97
1, 623480, Note_off_c, 0, 51, 64
1, 623484, Note_on_c, 0, 75, 90
1, 623499, Note_off_c, 0, 75, 74
1, 623501, Note_off_c, 0, 50, 66
1, 623505, Note_off_c, 0, 61, 54
1, 623531, Note_off_c, 0, 87, 65
1, 623668, Control_c, 0, 64, 95
1, 623683, Control_c, 0, 64, 0
1, 623691, Note_on_c, 0, 89, 113
1, 623691, Note_on_c, 0, 101, 104
1, 623691, Note_on_c, 0, 51, 118
1, 623692, Note_on_c, 0, 92, 100
1, 623692, Note_on_c, 0, 96, 93
1, 623699, Note_on_c, 0, 39, 87
1, 623712, Note_on_c, 0, 99, 72
1, 623713, Control_c, 0, 64, 63
1, 623721, Note_off_c, 0, 39, 66
1, 623727, Control_c, 0, 64, 127
1, 623728, Note_off_c, 0, 51, 65
1, 623737, Note_off_c, 0, 99, 69
1, 623774, Note_off_c, 0, 101, 62
1, 623796, Note_off_c, 0, 89, 57
1, 623823, Note_off_c, 0, 92, 63
1, 623835, Poly_aftertouch_c, 0, 39, 127
1, 623850, Note_off_c, 0, 96, 62
1, 623879, Poly_aftertouch_c, 0, 39, 0
1, 623887, Note_on_c, 0, 88, 84
1, 623891, Note_on_c, 0, 76, 95
1, 623896, Note_on_c, 0, 92, 60
1, 623900, Note_on_c, 0, 68, 74
1, 623905, Note_on_c, 0, 72, 63
1, 623913, Note_on_c, 0, 71, 66
1, 623932, Note_on_c, 0, 100, 70
1, 623945, Note_off_c, 0, 88, 64
1, 623957, Note_off_c, 0, 92, 64
1, 623974, Note_off_c, 0, 71, 58
1, 623989, Note_off_c, 0, 100, 62
1, 624027, Note_on_c, 0, 88, 74
1, 624040, Note_on_c, 0, 92, 54
1, 624065, Note_off_c, 0, 76, 57
1, 624068, Note_off_c, 0, 88, 57
1, 624069, Note_off_c, 0, 92, 56
1, 624079, Note_on_c, 0, 100, 74
1, 624080, Note_off_c, 0, 72, 61
1, 624091, Note_off_c, 0, 68, 59
1, 624115, Note_off_c, 0, 100, 61
1, 624161, Note_on_c, 0, 75, 100
1, 624162, Note_on_c, 0, 92, 77
1, 624165, Note_on_c, 0, 72, 85
1, 624165, Note_on_c, 0, 87, 80
1, 624166, Note_on_c, 0, 68, 83
1, 624173, Note_on_c, 0, 63, 76
1, 624194, Control_c, 0, 64, 110
1, 624206, Note_off_c, 0, 87, 58
1, 624207, Note_off_c, 0, 72, 65
1, 624209, Control_c, 0, 64, 114
1, 624216, Note_off_c, 0, 92, 66
1, 624217, Note_on_c, 0, 99, 81
1, 624224, Note_off_c, 0, 75, 61
1, 624224, Control_c, 0, 64, 127
1, 624231, Note_off_c, 0, 68, 62
1, 624266, Note_off_c, 0, 63, 59
1, 624273, Note_off_c, 0, 99, 64
1, 624292, Note_on_c, 0, 92, 63
1, 624307, Note_on_c, 0, 87, 52
1, 624329, Note_off_c, 0, 87, 62
1, 624343, Note_off_c, 0, 92, 62
1, 624344, Note_on_c, 0, 99, 63
1, 624366, Note_off_c, 0, 99, 37
1, 624422, Note_on_c, 0, 72, 82
1, 624422, Note_on_c, 0, 84, 72
1, 624423, Note_on_c, 0, 92, 75
1, 624425, Note_on_c, 0, 68, 81
1, 624430, Note_on_c, 0, 63, 77
1, 624439, Note_off_c, 0, 72, 73
1, 624450, Note_off_c, 0, 68, 59
1, 624452, Note_off_c, 0, 84, 65
1, 624465, Note_off_c, 0, 63, 55
1, 624476, Note_off_c, 0, 92, 67
1, 624478, Note_on_c, 0, 96, 74
1, 624499, Note_off_c, 0, 96, 69
1, 624517, Poly_aftertouch_c, 0, 92, 0
1, 624524, Note_on_c, 0, 92, 69
1, 624542, Note_on_c, 0, 84, 58
1, 624553, Note_on_c, 0, 96, 68
1, 624562, Note_off_c, 0, 84, 66
1, 624569, Note_off_c, 0, 92, 67
1, 624578, Note_off_c, 0, 96, 65
1, 624654, Note_on_c, 0, 51, 80
1, 624660, Note_on_c, 0, 39, 71
1, 624677, Note_off_c, 0, 51, 69
1, 624687, Note_off_c, 0, 39, 60
1, 624717, Note_on_c, 0, 80, 76
1, 624726, Note_on_c, 0, 84, 53
1, 624728, Note_on_c, 0, 87, 62
1, 624738, Note_off_c, 0, 80, 68
1, 624750, Note_off_c, 0, 84, 64
1, 624758, Note_off_c, 0, 87, 67
1, 624772, Note_on_c, 0, 51, 79
1, 624777, Note_on_c, 0, 39, 86
1, 624828, Note_on_c, 0, 80, 86
1, 624830, Note_off_c, 0, 39, 57
1, 624831, Note_off_c, 0, 51, 63
1, 624835, Note_on_c, 0, 85, 77
1, 624839, Note_on_c, 0, 82, 77
1, 624849, Note_on_c, 0, 90, 48
1, 624854, Poly_aftertouch_c, 0, 44, 127
1, 624860, Note_off_c, 0, 80, 53
1, 624867, Note_off_c, 0, 82, 62
1, 624875, Note_off_c, 0, 85, 56
1, 624875, Note_off_c, 0, 90, 39
1, 624896, Note_on_c, 0, 52, 97
1, 624896, Poly_aftertouch_c, 0, 44, 0
1, 624901, Note_on_c, 0, 40, 90
1, 624934, Note_off_c, 0, 40, 66
1, 624934, Note_off_c, 0, 52, 64
1, 624947, Note_on_c, 0, 79, 93
1, 624951, Note_on_c, 0, 82, 90
1, 624956, Note_on_c, 0, 85, 81
1, 624962, Note_on_c, 0, 91, 65
1, 624979, Note_off_c, 0, 91, 65
1, 624990, Note_off_c, 0, 79, 57
1, 625002, Note_off_c, 0, 82, 63
1, 625003, Note_off_c, 0, 85, 64
1, 625017, Note_on_c, 0, 53, 106
1, 625019, Note_on_c, 0, 41, 94
1, 625051, Note_on_c, 0, 42, 52
1, 625063, Note_off_c, 0, 53, 66
1, 625065, Note_off_c, 0, 41, 61
1, 625065, Note_on_c, 0, 78, 104
1, 625074, Note_on_c, 0, 82, 85
1, 625077, Note_on_c, 0, 90, 84
1, 625079, Note_on_c, 0, 85, 77
1, 625080, Note_off_c, 0, 42, 56
1, 625121, Note_off_c, 0, 90, 66
1, 625128, Note_off_c, 0, 78, 61
1, 625129, Note_off_c, 0, 85, 65
1, 625139, Note_off_c, 0, 82, 63
1, 625146, Note_on_c, 0, 42, 91
1, 625146, Note_on_c, 0, 54, 99
1, 625193, Note_off_c, 0, 54, 65
1, 625194, Note_off_c, 0, 42, 63
1, 625202, Note_on_c, 0, 77, 97
1, 625206, Note_on_c, 0, 82, 81
1, 625208, Note_on_c, 0, 89, 84
1, 625209, Note_on_c, 0, 85, 83
1, 625246, Note_off_c, 0, 77, 63
1, 625256, Note_off_c, 0, 89, 62
1, 625274, Note_off_c, 0, 85, 63
1, 625277, Note_off_c, 0, 82, 63
1, 625287, Note_on_c, 0, 55, 106
1, 625292, Note_on_c, 0, 43, 96
1, 625331, Note_on_c, 0, 44, 31
1, 625334, Note_on_c, 0, 49, 27
1, 625334, Note_off_c, 0, 55, 62
1, 625350, Note_off_c, 0, 43, 63
1, 625370, Note_on_c, 0, 76, 105
1, 625370, Note_off_c, 0, 44, 52
1, 625372, Note_on_c, 0, 88, 99
1, 625372, Note_off_c, 0, 49, 49
1, 625404, Note_off_c, 0, 76, 64
1, 625412, Note_on_c, 0, 87, 35
1, 625415, Note_off_c, 0, 88, 65
1, 625454, Note_off_c, 0, 87, 57
1, 625470, Control_c, 0, 64, 101
1, 625473, Note_on_c, 0, 52, 97
1, 625477, Note_on_c, 0, 40, 92
1, 625485, Control_c, 0, 64, 83
1, 625499, Control_c, 0, 64, 68
1, 625511, Note_off_c, 0, 52, 58
1, 625514, Control_c, 0, 64, 0
1, 625515, Note_off_c, 0, 40, 65
1, 625557, Note_on_c, 0, 79, 95
1, 625557, Note_on_c, 0, 91, 98
1, 625576, Note_on_c, 0, 81, 65
1, 625577, Note_off_c, 0, 81, 127
1, 625591, Note_off_c, 0, 79, 65
1, 625602, Note_off_c, 0, 91, 65
1, 625653, Note_on_c, 0, 49, 98
1, 625656, Note_on_c, 0, 37, 83
1, 625675, Note_off_c, 0, 49, 69
1, 625681, Note_off_c, 0, 37, 65
1, 625740, Note_on_c, 0, 94, 94
1, 625743, Note_on_c, 0, 82, 92
1, 625786, Note_off_c, 0, 82, 62
1, 625802, Note_off_c, 0, 94, 64
1, 625855, Note_on_c, 0, 57, 75
1, 625858, Note_on_c, 0, 45, 74
1, 625880, Note_off_c, 0, 57, 68
1, 625882, Note_off_c, 0, 45, 67
1, 625947, Note_on_c, 0, 93, 82
1, 625952, Note_on_c, 0, 81, 76
1, 625976, Note_off_c, 0, 81, 64
1, 625994, Note_off_c, 0, 93, 61
1, 626046, Control_c, 0, 64, 55
1, 626062, Control_c, 0, 64, 67
1, 626076, Note_on_c, 0, 50, 54
1, 626077, Note_on_c, 0, 38, 44
1, 626077, Control_c, 0, 64, 79
1, 626092, Control_c, 0, 64, 101
1, 626103, Note_off_c, 0, 50, 59
1, 626107, Control_c, 0, 64, 127
1, 626113, Note_off_c, 0, 38, 52
1, 626148, Note_on_c, 0, 91, 78
1, 626152, Note_on_c, 0, 79, 76
1, 626162, Note_off_c, 0, 91, 70
1, 626179, Note_off_c, 0, 79, 63
1, 626265, Note_on_c, 0, 67, 64
1, 626282, Note_on_c, 0, 62, 37
1, 626300, Note_off_c, 0, 67, 61
1, 626312, Note_on_c, 0, 74, 61
1, 626315, Note_off_c, 0, 62, 52
1, 626316, Note_on_c, 0, 69, 48
1, 626337, Note_off_c, 0, 74, 66
1, 626341, Note_off_c, 0, 69, 58
1, 626396, Control_c, 0, 64, 122
1, 626409, Note_on_c, 0, 66, 58
1, 626411, Control_c, 0, 64, 92
1, 626415, Note_on_c, 0, 57, 63
1, 626426, Control_c, 0, 64, 75
1, 626431, Note_off_c, 0, 66, 60
1, 626436, Note_off_c, 0, 57, 62
1, 626440, Control_c, 0, 64, 56
1, 626455, Control_c, 0, 64, 0
1, 626469, Note_on_c, 0, 90, 71
1, 626490, Note_on_c, 0, 78, 43
1, 626490, Note_off_c, 0, 90, 61
1, 626516, Note_off_c, 0, 78, 57
1, 626574, Control_c, 0, 64, 64
1, 626581, Note_on_c, 0, 42, 55
1, 626589, Control_c, 0, 64, 68
1, 626604, Control_c, 0, 64, 77
1, 626611, Note_off_c, 0, 42, 59
1, 626618, Note_on_c, 0, 76, 79
1, 626618, Control_c, 0, 64, 90
1, 626633, Control_c, 0, 64, 114
1, 626642, Note_off_c, 0, 76, 67
1, 626648, Control_c, 0, 64, 127
1, 626711, Poly_aftertouch_c, 0, 86, 0
1, 626736, Note_on_c, 0, 64, 53
1, 626738, Note_on_c, 0, 58, 48
1, 626762, Note_off_c, 0, 64, 62
1, 626765, Note_on_c, 0, 70, 66
1, 626768, Note_off_c, 0, 58, 58
1, 626781, Note_on_c, 0, 66, 31
1, 626789, Note_off_c, 0, 70, 63
1, 626815, Note_off_c, 0, 66, 57
1, 626852, Note_on_c, 0, 62, 49
1, 626860, Note_on_c, 0, 54, 60
1, 626878, Note_off_c, 0, 62, 56
1, 626886, Note_off_c, 0, 54, 66
1, 626899, Note_on_c, 0, 86, 74
1, 626905, Note_on_c, 0, 74, 69
1, 626920, Note_off_c, 0, 86, 71
1, 626923, Note_off_c, 0, 74, 67
1, 626952, Control_c, 0, 64, 93
1, 626967, Control_c, 0, 64, 71
1, 626982, Control_c, 0, 64, 56
1, 626997, Control_c, 0, 64, 62
1, 627003, Note_on_c, 0, 43, 69
1, 627012, Control_c, 0, 64, 70
1, 627027, Control_c, 0, 64, 80
1, 627028, Note_off_c, 0, 43, 65
1, 627036, Note_on_c, 0, 73, 87
1, 627042, Note_on_c, 0, 85, 60
1, 627042, Control_c, 0, 64, 98
1, 627054, Note_off_c, 0, 73, 72
1, 627057, Control_c, 0, 64, 127
1, 627062, Note_off_c, 0, 85, 38
1, 627143, Note_on_c, 0, 61, 67
1, 627162, Note_on_c, 0, 55, 46
1, 627170, Note_on_c, 0, 67, 67
1, 627179, Note_on_c, 0, 63, 45
1, 627181, Note_off_c, 0, 61, 57
1, 627194, Note_off_c, 0, 55, 57
1, 627196, Note_off_c, 0, 67, 65
1, 627209, Note_off_c, 0, 63, 55
1, 627247, Note_on_c, 0, 59, 46
1, 627262, Note_on_c, 0, 51, 57
1, 627274, Note_off_c, 0, 59, 56
1, 627291, Note_off_c, 0, 51, 63
1, 627301, Note_on_c, 0, 84, 62
1, 627312, Note_on_c, 0, 72, 44
1, 627313, Note_on_c, 0, 71, 46
1, 627317, Note_off_c, 0, 84, 66
1, 627325, Note_on_c, 0, 83, 34
1, 627337, Note_off_c, 0, 71, 59
1, 627338, Note_off_c, 0, 72, 57
1, 627355, Note_off_c, 0, 83, 57
1, 627382, Control_c, 0, 64, 96
1, 627389, Note_on_c, 0, 40, 75
1, 627396, Control_c, 0, 64, 73
1, 627411, Note_off_c, 0, 40, 62
1, 627411, Control_c, 0, 64, 41
1, 627426, Control_c, 0, 64, 47
1, 627429, Note_on_c, 0, 69, 75
1, 627441, Control_c, 0, 64, 67
1, 627452, Note_off_c, 0, 69, 70
1, 627456, Control_c, 0, 64, 78
1, 627471, Control_c, 0, 64, 100
1, 627486, Control_c, 0, 64, 127
1, 627536, Note_on_c, 0, 57, 43
1, 627539, Note_on_c, 0, 52, 55
1, 627551, Note_on_c, 0, 59, 60
1, 627555, Note_on_c, 0, 64, 56
1, 627563, Note_off_c, 0, 57, 57
1, 627573, Note_off_c, 0, 59, 60
1, 627578, Note_off_c, 0, 64, 64
1, 627581, Note_off_c, 0, 52, 54
1, 627624, Note_on_c, 0, 55, 36
1, 627647, Note_on_c, 0, 47, 51
1, 627660, Note_off_c, 0, 55, 52
1, 627677, Note_off_c, 0, 47, 56
1, 627680, Note_on_c, 0, 67, 72
1, 627680, Note_on_c, 0, 79, 70
1, 627707, Poly_aftertouch_c, 0, 49, 127
1, 627710, Note_off_c, 0, 79, 68
1, 627712, Note_off_c, 0, 67, 65
1, 627738, Poly_aftertouch_c, 0, 49, 0
1, 627760, Control_c, 0, 64, 97
1, 627775, Control_c, 0, 64, 74
1, 627785, Note_on_c, 0, 33, 72
1, 627790, Note_on_c, 0, 45, 71
1, 627790, Control_c, 0, 64, 50
1, 627805, Control_c, 0, 64, 28
1, 627812, Note_off_c, 0, 33, 62
1, 627814, Note_on_c, 0, 67, 75
1, 627816, Note_off_c, 0, 45, 66
1, 627820, Control_c, 0, 64, 64
1, 627835, Control_c, 0, 64, 74
1, 627846, Note_off_c, 0, 67, 63
1, 627850, Control_c, 0, 64, 89
1, 627864, Control_c, 0, 64, 127
1, 627924, Note_on_c, 0, 55, 66
1, 627931, Note_on_c, 0, 50, 60
1, 627949, Note_on_c, 0, 62, 51
1, 627952, Note_on_c, 0, 57, 48
1, 627956, Note_off_c, 0, 55, 62
1, 627974, Note_off_c, 0, 50, 60
1, 627974, Note_off_c, 0, 62, 58
1, 627980, Note_off_c, 0, 57, 57
1, 628049, Note_on_c, 0, 54, 67
1, 628050, Note_on_c, 0, 45, 62
1, 628071, Note_on_c, 0, 78, 83
1, 628073, Note_on_c, 0, 66, 79
1, 628092, Note_off_c, 0, 45, 58
1, 628094, Note_off_c, 0, 66, 69
1, 628103, Note_off_c, 0, 78, 54
1, 628105, Note_off_c, 0, 54, 54
1, 628175, Control_c, 0, 64, 103
1, 628188, Note_on_c, 0, 59, 74
1, 628190, Control_c, 0, 64, 81
1, 628205, Control_c, 0, 64, 71
1, 628213, Note_on_c, 0, 83, 81
1, 628217, Note_on_c, 0, 71, 82
1, 628219, Control_c, 0, 64, 69
1, 628226, Note_off_c, 0, 83, 71
1, 628232, Note_off_c, 0, 59, 54
1, 628234, Control_c, 0, 64, 74
1, 628237, Note_off_c, 0, 71, 70
1, 628249, Control_c, 0, 64, 82
1, 628264, Control_c, 0, 64, 95
1, 628279, Control_c, 0, 64, 127
1, 628306, Note_on_c, 0, 54, 66
1, 628314, Note_on_c, 0, 50, 63
1, 628338, Note_on_c, 0, 62, 56
1, 628340, Note_off_c, 0, 54, 65
1, 628344, Note_off_c, 0, 50, 66
1, 628358, Note_on_c, 0, 65, 41
1, 628362, Note_off_c, 0, 62, 59
1, 628387, Note_off_c, 0, 65, 56
1, 628422, Note_on_c, 0, 57, 65
1, 628437, Note_on_c, 0, 45, 70
1, 628458, Note_off_c, 0, 57, 65
1, 628463, Note_off_c, 0, 45, 67
1, 628465, Control_c, 0, 64, 90
1, 628470, Note_on_c, 0, 81, 83
1, 628480, Control_c, 0, 64, 0
1, 628481, Note_on_c, 0, 69, 63
1, 628489, Note_off_c, 0, 81, 67
1, 628500, Note_off_c, 0, 69, 65
1, 628575, Note_on_c, 0, 45, 73
1, 628576, Note_on_c, 0, 33, 77
1, 628583, Control_c, 0, 64, 84
1, 628598, Control_c, 0, 64, 127
1, 628604, Note_on_c, 0, 66, 90
1, 628604, Note_off_c, 0, 45, 66
1, 628609, Note_off_c, 0, 33, 62
1, 628616, Note_on_c, 0, 78, 56
1, 628622, Note_off_c, 0, 66, 71
1, 628640, Note_off_c, 0, 78, 37
1, 628711, Note_on_c, 0, 49, 64
1, 628726, Note_on_c, 0, 53, 45
1, 628731, Note_on_c, 0, 61, 67
1, 628747, Note_on_c, 0, 57, 40
1, 628753, Note_off_c, 0, 53, 60
1, 628753, Note_off_c, 0, 61, 61
1, 628756, Note_off_c, 0, 49, 57
1, 628780, Note_off_c, 0, 57, 52
1, 628827, Note_on_c, 0, 45, 66
1, 628857, Note_on_c, 0, 64, 78
1, 628864, Note_on_c, 0, 76, 70
1, 628865, Note_on_c, 0, 52, 18
1, 628866, Note_off_c, 0, 45, 61
1, 628877, Note_off_c, 0, 64, 69
1, 628887, Note_off_c, 0, 76, 65
1, 628910, Note_off_c, 0, 52, 45
1, 628958, Poly_aftertouch_c, 0, 74, 0
1, 628959, Note_on_c, 0, 59, 73
1, 628985, Note_on_c, 0, 83, 86
1, 628989, Note_on_c, 0, 71, 89
1, 629003, Note_off_c, 0, 83, 72
1, 629013, Note_off_c, 0, 59, 57
1, 629013, Note_off_c, 0, 71, 64
1, 629092, Note_on_c, 0, 49, 57
1, 629092, Note_on_c, 0, 52, 54
1, 629113, Note_on_c, 0, 61, 68
1, 629119, Note_on_c, 0, 64, 62
1, 629126, Note_off_c, 0, 52, 61
1, 629135, Note_off_c, 0, 49, 58
1, 629141, Note_off_c, 0, 61, 64
1, 629147, Note_off_c, 0, 64, 67
1, 629218, Note_on_c, 0, 57, 63
1, 629222, Note_on_c, 0, 45, 66
1, 629246, Note_off_c, 0, 57, 66
1, 629254, Note_off_c, 0, 45, 65
1, 629272, Note_on_c, 0, 81, 81
1, 629275, Note_on_c, 0, 69, 74
1, 629298, Note_off_c, 0, 69, 68
1, 629325, Note_off_c, 0, 81, 60
1, 629347, Control_c, 0, 64, 102
1, 629362, Control_c, 0, 64, 65
1, 629377, Control_c, 0, 64, 0
1, 629394, Note_on_c, 0, 38, 75
1, 629394, Note_on_c, 0, 50, 78
1, 629406, Control_c, 0, 64, 21
1, 629418, Note_off_c, 0, 38, 63
1, 629421, Control_c, 0, 64, 93
1, 629424, Note_off_c, 0, 50, 69
1, 629436, Control_c, 0, 64, 127
1, 629480, Note_on_c, 0, 91, 86
1, 629488, Note_on_c, 0, 79, 79
1, 629495, Note_off_c, 0, 91, 71
1, 629509, Note_off_c, 0, 79, 67
1, 629571, Note_on_c, 0, 67, 66
1, 629586, Note_on_c, 0, 62, 48
1, 629600, Note_off_c, 0, 67, 62
1, 629613, Note_on_c, 0, 69, 63
1, 629614, Note_off_c, 0, 62, 61
1, 629615, Note_on_c, 0, 74, 65
1, 629635, Note_off_c, 0, 69, 65
1, 629641, Note_off_c, 0, 74, 68
1, 629686, Note_on_c, 0, 66, 64
1, 629698, Note_on_c, 0, 57, 62
1, 629710, Note_off_c, 0, 66, 65
1, 629723, Note_off_c, 0, 57, 63
1, 629742, Note_on_c, 0, 90, 81
1, 629748, Note_on_c, 0, 78, 76
1, 629763, Note_off_c, 0, 90, 70
1, 629768, Note_off_c, 0, 78, 72
1, 629821, Control_c, 0, 64, 86
1, 629836, Control_c, 0, 64, 0
1, 629838, Note_on_c, 0, 42, 62
1, 629863, Note_off_c, 0, 42, 62
1, 629865, Control_c, 0, 64, 65
1, 629875, Note_on_c, 0, 76, 85
1, 629880, Control_c, 0, 64, 100
1, 629881, Note_on_c, 0, 88, 62
1, 629882, Note_off_c, 0, 88, 127
1, 629895, Control_c, 0, 64, 127
1, 629897, Note_off_c, 0, 76, 68
1, 629977, Note_on_c, 0, 64, 71
1, 629981, Note_on_c, 0, 58, 55
1, 630005, Note_off_c, 0, 64, 65
1, 630008, Note_on_c, 0, 66, 57
1, 630008, Note_on_c, 0, 70, 66
1, 630012, Note_off_c, 0, 58, 63
1, 630030, Note_off_c, 0, 66, 62
1, 630036, Note_off_c, 0, 70, 66
1, 630088, Note_on_c, 0, 62, 63
1, 630100, Note_on_c, 0, 54, 62
1, 630111, Note_off_c, 0, 62, 60
1, 630127, Note_off_c, 0, 54, 66
1, 630133, Note_on_c, 0, 86, 66
1, 630142, Note_on_c, 0, 74, 62
1, 630155, Note_on_c, 0, 88, 48
1, 630156, Note_off_c, 0, 88, 127
1, 630159, Note_off_c, 0, 86, 69
1, 630160, Note_off_c, 0, 74, 65
1, 630214, Control_c, 0, 64, 98
1, 630228, Note_on_c, 0, 43, 78
1, 630229, Control_c, 0, 64, 65
1, 630232, Poly_aftertouch_c, 0, 76, 0
1, 630244, Control_c, 0, 64, 0
1, 630251, Note_off_c, 0, 43, 67
1, 630259, Control_c, 0, 64, 73
1, 630261, Note_on_c, 0, 73, 89
1, 630274, Control_c, 0, 64, 127
1, 630279, Note_off_c, 0, 73, 72
1, 630361, Note_on_c, 0, 61, 65
1, 630372, Note_on_c, 0, 55, 51
1, 630386, Note_on_c, 0, 67, 70
1, 630392, Note_on_c, 0, 63, 55
1, 630400, Note_off_c, 0, 61, 55
1, 630411, Note_off_c, 0, 55, 62
1, 630411, Note_off_c, 0, 67, 67
1, 630416, Note_off_c, 0, 63, 61
1, 630467, Note_on_c, 0, 59, 57
1, 630484, Note_on_c, 0, 51, 61
1, 630495, Note_off_c, 0, 59, 63
1, 630507, Note_on_c, 0, 83, 82
1, 630510, Note_off_c, 0, 51, 66
1, 630517, Note_on_c, 0, 71, 69
1, 630528, Note_off_c, 0, 83, 66
1, 630534, Note_off_c, 0, 71, 68
1, 630600, Control_c, 0, 64, 94
1, 630614, Control_c, 0, 64, 69
1, 630616, Note_on_c, 0, 41, 72
1, 630629, Control_c, 0, 64, 60
1, 630635, Note_on_c, 0, 69, 85
1, 630641, Note_off_c, 0, 41, 65
1, 630644, Control_c, 0, 64, 70
1, 630649, Note_on_c, 0, 81, 58
1, 630650, Note_off_c, 0, 81, 127
1, 630659, Control_c, 0, 64, 92
1, 630661, Note_off_c, 0, 69, 65
1, 630674, Control_c, 0, 64, 127
1, 630749, Note_on_c, 0, 57, 65
1, 630760, Note_on_c, 0, 52, 58
1, 630768, Note_on_c, 0, 64, 67
1, 630769, Note_on_c, 0, 59, 63
1, 630780, Note_off_c, 0, 57, 64
1, 630789, Note_off_c, 0, 59, 64
1, 630795, Note_off_c, 0, 64, 68
1, 630848, Note_off_c, 0, 52, 57
1, 630850, Note_on_c, 0, 55, 39
1, 630861, Note_on_c, 0, 47, 50
1, 630885, Note_off_c, 0, 55, 51
1, 630890, Note_off_c, 0, 47, 56
1, 630895, Note_on_c, 0, 67, 76
1, 630906, Note_on_c, 0, 79, 55
1, 630917, Note_off_c, 0, 67, 69
1, 630926, Note_off_c, 0, 79, 63
1, 630934, Note_on_c, 0, 81, 21
1, 630963, Control_c, 0, 64, 74
1, 630970, Note_off_c, 0, 81, 55
1, 630978, Control_c, 0, 64, 0
1, 630990, Note_on_c, 0, 33, 72
1, 630991, Note_on_c, 0, 45, 77
1, 631008, Control_c, 0, 64, 51
1, 631016, Note_off_c, 0, 33, 58
1, 631022, Note_off_c, 0, 45, 67
1, 631023, Control_c, 0, 64, 102
1, 631024, Note_on_c, 0, 67, 85
1, 631033, Note_on_c, 0, 79, 62
1, 631037, Control_c, 0, 64, 127
1, 631053, Note_off_c, 0, 79, 63
1, 631064, Note_off_c, 0, 67, 61
1, 631129, Note_on_c, 0, 55, 62
1, 631139, Note_on_c, 0, 50, 58
1, 631150, Note_on_c, 0, 57, 66
1, 631150, Note_on_c, 0, 62, 67
1, 631161, Note_off_c, 0, 55, 61
1, 631172, Note_off_c, 0, 57, 63
1, 631179, Note_off_c, 0, 62, 64
1, 631185, Note_off_c, 0, 50, 61
1, 631243, Note_on_c, 0, 45, 71
1, 631248, Note_on_c, 0, 54, 61
1, 631271, Note_on_c, 0, 66, 84
1, 631272, Note_on_c, 0, 78, 81
1, 631291, Note_off_c, 0, 66, 69
1, 631294, Note_off_c, 0, 78, 65
1, 631301, Note_off_c, 0, 54, 55
1, 631343, Note_off_c, 0, 45, 37
1, 631348, Control_c, 0, 64, 123
1, 631363, Control_c, 0, 64, 72
1, 631376, Note_on_c, 0, 59, 79
1, 631378, Control_c, 0, 64, 0
1, 631406, Note_on_c, 0, 83, 86
1, 631408, Control_c, 0, 64, 41
1, 631415, Note_on_c, 0, 71, 79
1, 631430, Control_c, 0, 64, 77
1, 631431, Note_off_c, 0, 83, 72
1, 631442, Note_off_c, 0, 71, 73
1, 631445, Control_c, 0, 64, 113
1, 631449, Note_off_c, 0, 59, 58
1, 631459, Control_c, 0, 64, 127
1, 631498, Note_on_c, 0, 54, 72
1, 631503, Note_on_c, 0, 50, 66
1, 631534, Note_on_c, 0, 66, 72
1, 631537, Note_on_c, 0, 62, 63
1, 631537, Note_off_c, 0, 54, 61
1, 631545, Note_off_c, 0, 50, 63
1, 631559, Note_off_c, 0, 62, 62
1, 631561, Note_off_c, 0, 66, 67
1, 631615, Note_on_c, 0, 57, 66
1, 631623, Note_on_c, 0, 45, 64
1, 631641, Note_off_c, 0, 57, 64
1, 631649, Note_off_c, 0, 45, 66
1, 631661, Note_on_c, 0, 81, 80
1, 631668, Note_on_c, 0, 69, 72
1, 631680, Note_off_c, 0, 81, 71
1, 631692, Note_off_c, 0, 69, 69
1, 631698, Control_c, 0, 64, 111
1, 631712, Control_c, 0, 64, 67
1, 631727, Control_c, 0, 64, 0
1, 631757, Control_c, 0, 64, 62
1, 631758, Note_on_c, 0, 45, 80
1, 631759, Note_on_c, 0, 33, 81
1, 631772, Control_c, 0, 64, 81
1, 631784, Note_off_c, 0, 33, 62
1, 631786, Control_c, 0, 64, 127
1, 631787, Note_off_c, 0, 45, 67
1, 631790, Note_on_c, 0, 66, 93
1, 631793, Note_on_c, 0, 78, 75
1, 631814, Note_off_c, 0, 66, 63
1, 631814, Note_off_c, 0, 78, 71
1, 631891, Note_on_c, 0, 54, 76
1, 631895, Note_on_c, 0, 49, 73
1, 631915, Note_on_c, 0, 61, 66
1, 631921, Note_on_c, 0, 57, 55
1, 631939, Note_off_c, 0, 54, 58
1, 631939, Note_off_c, 0, 61, 66
1, 631944, Note_off_c, 0, 57, 60
1, 631949, Note_off_c, 0, 49, 58
1, 632017, Note_on_c, 0, 52, 63
1, 632019, Note_on_c, 0, 45, 68
1, 632044, Note_on_c, 0, 62, 66
1, 632045, Note_on_c, 0, 76, 76
1, 632046, Note_on_c, 0, 64, 73
1, 632056, Note_off_c, 0, 52, 59
1, 632064, Note_off_c, 0, 62, 63
1, 632064, Note_off_c, 0, 64, 68
1, 632065, Note_off_c, 0, 76, 66
1, 632065, Note_off_c, 0, 45, 56
1, 632075, Note_on_c, 0, 74, 28
1, 632108, Note_off_c, 0, 74, 57
1, 632140, Note_on_c, 0, 59, 85
1, 632167, Note_on_c, 0, 83, 92
1, 632171, Note_on_c, 0, 71, 95
1, 632187, Note_off_c, 0, 83, 77
1, 632199, Note_on_c, 0, 49, 11
1, 632202, Note_off_c, 0, 71, 64
1, 632217, Note_off_c, 0, 59, 56
1, 632258, Note_off_c, 0, 49, 0
1, 632273, Note_on_c, 0, 52, 75
1, 632275, Note_on_c, 0, 49, 54
1, 632305, Note_on_c, 0, 64, 73
1, 632307, Note_on_c, 0, 61, 66
1, 632330, Note_off_c, 0, 64, 69
1, 632331, Note_off_c, 0, 52, 59
1, 632333, Note_off_c, 0, 61, 65
1, 632349, Note_off_c, 0, 49, 60
1, 632395, Note_on_c, 0, 45, 71
1, 632395, Note_on_c, 0, 57, 62
1, 632417, Note_off_c, 0, 57, 63
1, 632425, Note_off_c, 0, 45, 64
1, 632433, Note_on_c, 0, 81, 84
1, 632434, Note_on_c, 0, 69, 79
1, 632455, Note_off_c, 0, 69, 71
1, 632460, Note_off_c, 0, 81, 63
1, 632491, Control_c, 0, 64, 79
1, 632506, Control_c, 0, 64, 0
1, 632536, Note_on_c, 0, 50, 99
1, 632537, Note_on_c, 0, 38, 88
1, 632550, Control_c, 0, 64, 72
1, 632560, Note_off_c, 0, 38, 68
1, 632562, Note_off_c, 0, 50, 67
1, 632565, Control_c, 0, 64, 127
1, 632587, Note_on_c, 0, 91, 96
1, 632589, Note_on_c, 0, 79, 101
1, 632601, Note_off_c, 0, 91, 69
1, 632616, Note_off_c, 0, 79, 63
1, 632656, Note_on_c, 0, 91, 38
1, 632657, Note_off_c, 0, 91, 127
1, 632679, Note_on_c, 0, 67, 78
1, 632685, Note_on_c, 0, 62, 61
1, 632686, Poly_aftertouch_c, 0, 91, 0
1, 632701, Note_on_c, 0, 74, 78
1, 632704, Note_off_c, 0, 67, 66
1, 632709, Note_on_c, 0, 71, 60
1, 632717, Note_off_c, 0, 62, 63
1, 632722, Note_off_c, 0, 74, 71
1, 632729, Note_off_c, 0, 71, 64
1, 632784, Note_on_c, 0, 66, 73
1, 632795, Note_on_c, 0, 57, 70
1, 632807, Note_off_c, 0, 66, 67
1, 632818, Note_off_c, 0, 57, 66
1, 632826, Note_on_c, 0, 90, 88
1, 632829, Note_on_c, 0, 78, 91
1, 632849, Note_off_c, 0, 90, 63
1, 632849, Note_off_c, 0, 78, 67
1, 632891, Control_c, 0, 64, 78
1, 632906, Control_c, 0, 64, 0
1, 632921, Note_on_c, 0, 42, 79
1, 632958, Control_c, 0, 64, 101
1, 632959, Note_off_c, 0, 42, 65
1, 632962, Note_on_c, 0, 76, 102
1, 632969, Note_on_c, 0, 88, 71
1, 632973, Control_c, 0, 64, 127
1, 632986, Note_off_c, 0, 88, 66
1, 632992, Note_off_c, 0, 76, 68
1, 633052, Note_on_c, 0, 64, 75
1, 633057, Note_on_c, 0, 58, 73
1, 633075, Note_on_c, 0, 66, 73
1, 633078, Note_on_c, 0, 70, 79
1, 633084, Note_off_c, 0, 64, 62
1, 633087, Note_off_c, 0, 58, 63
1, 633096, Note_off_c, 0, 66, 70
1, 633101, Note_off_c, 0, 70, 68
1, 633158, Note_on_c, 0, 62, 72
1, 633172, Note_on_c, 0, 54, 70
1, 633182, Note_off_c, 0, 62, 67
1, 633197, Note_off_c, 0, 54, 67
1, 633205, Note_on_c, 0, 74, 88
1, 633206, Note_on_c, 0, 86, 88
1, 633225, Note_off_c, 0, 86, 72
1, 633228, Note_off_c, 0, 74, 69
1, 633269, Control_c, 0, 64, 69
1, 633284, Control_c, 0, 64, 0
1, 633295, Note_on_c, 0, 43, 91
1, 633313, Control_c, 0, 64, 60
1, 633319, Note_off_c, 0, 43, 70
1, 633324, Note_on_c, 0, 73, 111
1, 633328, Control_c, 0, 64, 127
1, 633346, Note_on_c, 0, 85, 51
1, 633347, Note_off_c, 0, 85, 127
1, 633352, Note_off_c, 0, 73, 63
1, 633425, Note_on_c, 0, 61, 78
1, 633445, Note_on_c, 0, 55, 67
1, 633452, Note_on_c, 0, 63, 69
1, 633459, Note_on_c, 0, 67, 69
1, 633463, Note_on_c, 0, 56, 27
1, 633473, Note_off_c, 0, 61, 49
1, 633476, Note_off_c, 0, 63, 67
1, 633486, Note_off_c, 0, 67, 65
1, 633488, Note_off_c, 0, 55, 55
1, 633521, Note_on_c, 0, 59, 59
1, 633525, Note_off_c, 0, 56, 34
1, 633539, Note_on_c, 0, 51, 67
1, 633546, Note_off_c, 0, 59, 64
1, 633563, Note_off_c, 0, 51, 66
1, 633579, Note_on_c, 0, 71, 80
1, 633582, Note_on_c, 0, 84, 73
1, 633585, Note_on_c, 0, 72, 73
1, 633594, Note_on_c, 0, 83, 59
1, 633597, Note_off_c, 0, 84, 69
1, 633599, Note_off_c, 0, 71, 73
1, 633606, Note_off_c, 0, 72, 65
1, 633611, Note_off_c, 0, 83, 64
1, 633639, Control_c, 0, 64, 113
1, 633653, Control_c, 0, 64, 72
1, 633659, Note_on_c, 0, 41, 89
1, 633668, Control_c, 0, 64, 0
1, 633690, Control_c, 0, 64, 52
1, 633696, Note_off_c, 0, 41, 66
1, 633705, Control_c, 0, 64, 97
1, 633706, Note_on_c, 0, 69, 92
1, 633720, Control_c, 0, 64, 127
1, 633727, Note_on_c, 0, 81, 52
1, 633728, Note_off_c, 0, 81, 127
1, 633743, Note_off_c, 0, 69, 65
1, 633791, Note_on_c, 0, 51, 82
1, 633800, Note_on_c, 0, 57, 67
1, 633827, Note_on_c, 0, 60, 73
1, 633840, Note_on_c, 0, 64, 52
1, 633843, Note_off_c, 0, 57, 61
1, 633850, Note_off_c, 0, 60, 70
1, 633852, Note_off_c, 0, 51, 63
1, 633862, Note_off_c, 0, 64, 61
1, 633882, Note_on_c, 0, 55, 66
1, 633907, Note_off_c, 0, 55, 64
1, 633915, Note_on_c, 0, 47, 52
1, 633944, Note_on_c, 0, 67, 93
1, 633944, Note_off_c, 0, 47, 56
1, 633948, Note_on_c, 0, 79, 88
1, 633969, Note_off_c, 0, 79, 66
1, 633970, Note_off_c, 0, 67, 61
1, 633978, Note_on_c, 0, 78, 36
1, 634002, Control_c, 0, 64, 84
1, 634010, Note_off_c, 0, 78, 55
1, 634017, Control_c, 0, 64, 0
1, 634035, Note_on_c, 0, 45, 107
1, 634037, Note_on_c, 0, 33, 92
1, 634062, Note_off_c, 0, 33, 64
1, 634067, Note_off_c, 0, 45, 63
1, 634077, Control_c, 0, 64, 127
1, 634080, Note_on_c, 0, 66, 100
1, 634088, Note_on_c, 0, 78, 74
1, 634105, Note_off_c, 0, 78, 68
1, 634116, Note_off_c, 0, 66, 65
1, 634166, Poly_aftertouch_c, 0, 68, 127
1, 634175, Note_on_c, 0, 50, 68
1, 634178, Note_on_c, 0, 54, 71
1, 634191, Poly_aftertouch_c, 0, 68, 0
1, 634202, Note_on_c, 0, 59, 66
1, 634205, Note_on_c, 0, 62, 70
1, 634211, Note_off_c, 0, 54, 63
1, 634224, Note_off_c, 0, 50, 63
1, 634224, Note_off_c, 0, 59, 64
1, 634229, Poly_aftertouch_c, 0, 33, 0
1, 634231, Note_off_c, 0, 62, 65
1, 634294, Note_on_c, 0, 52, 80
1, 634294, Note_on_c, 0, 55, 81
1, 634320, Note_on_c, 0, 67, 92
1, 634321, Note_off_c, 0, 55, 64
1, 634326, Note_on_c, 0, 79, 80
1, 634328, Note_off_c, 0, 52, 62
1, 634328, Control_c, 0, 64, 88
1, 634343, Control_c, 0, 64, 0
1, 634346, Note_off_c, 0, 67, 64
1, 634346, Note_off_c, 0, 79, 69
1, 634417, Note_on_c, 0, 56, 102
1, 634433, Note_on_c, 0, 53, 79
1, 634440, Control_c, 0, 64, 103
1, 634452, Note_on_c, 0, 68, 98
1, 634454, Control_c, 0, 64, 127
1, 634474, Note_on_c, 0, 80, 49
1, 634475, Note_off_c, 0, 80, 127
1, 634479, Note_off_c, 0, 68, 61
1, 634496, Note_off_c, 0, 56, 62
1, 634504, Note_off_c, 0, 53, 62
1, 634550, Note_on_c, 0, 45, 83
1, 634569, Note_on_c, 0, 62, 76
1, 634591, Note_off_c, 0, 62, 68
1, 634631, Note_off_c, 0, 45, 0
1, 634661, Note_on_c, 0, 45, 37
1, 634667, Note_on_c, 0, 57, 78
1, 634675, Note_on_c, 0, 54, 69
1, 634694, Note_on_c, 0, 69, 95
1, 634698, Note_on_c, 0, 81, 84
1, 634700, Note_off_c, 0, 45, 60
1, 634715, Note_off_c, 0, 54, 59
1, 634717, Note_off_c, 0, 81, 70
1, 634720, Note_off_c, 0, 69, 64
1, 634737, Note_off_c, 0, 57, 54
1, 634765, Control_c, 0, 64, 112
1, 634780, Note_on_c, 0, 45, 83
1, 634780, Control_c, 0, 64, 75
1, 634795, Control_c, 0, 64, 62
1, 634804, Note_on_c, 0, 70, 101
1, 634810, Control_c, 0, 64, 70
1, 634820, Note_on_c, 0, 82, 64
1, 634821, Note_off_c, 0, 82, 127
1, 634824, Control_c, 0, 64, 82
1, 634828, Note_off_c, 0, 70, 67
1, 634839, Control_c, 0, 64, 115
1, 634855, Control_c, 0, 64, 127
1, 634889, Note_off_c, 0, 45, 51
1, 634896, Note_on_c, 0, 50, 70
1, 634899, Note_on_c, 0, 53, 74
1, 634903, Note_on_c, 0, 58, 77
1, 634929, Note_on_c, 0, 62, 76
1, 634938, Note_on_c, 0, 65, 74
1, 634944, Note_off_c, 0, 50, 62
1, 634944, Note_off_c, 0, 58, 59
1, 634947, Note_off_c, 0, 53, 62
1, 634952, Note_off_c, 0, 62, 68
1, 634962, Note_off_c, 0, 65, 69
1, 635022, Note_on_c, 0, 59, 82
1, 635033, Note_on_c, 0, 54, 69
1, 635035, Note_on_c, 0, 51, 70
1, 635053, Note_on_c, 0, 71, 92
1, 635066, Note_on_c, 0, 83, 83
1, 635083, Note_off_c, 0, 83, 73
1, 635085, Note_off_c, 0, 51, 62
1, 635085, Note_off_c, 0, 54, 62
1, 635086, Note_off_c, 0, 71, 66
1, 635095, Note_off_c, 0, 59, 57
1, 635136, Control_c, 0, 64, 72
1, 635148, Note_on_c, 0, 45, 84
1, 635151, Control_c, 0, 64, 0
1, 635166, Control_c, 0, 64, 43
1, 635177, Note_on_c, 0, 74, 98
1, 635183, Note_on_c, 0, 84, 77
1, 635183, Note_off_c, 0, 45, 67
1, 635189, Control_c, 0, 64, 67
1, 635195, Note_off_c, 0, 84, 72
1, 635203, Control_c, 0, 64, 81
1, 635207, Note_off_c, 0, 74, 69
1, 635215, Note_on_c, 0, 72, 33
1, 635218, Control_c, 0, 64, 108
1, 635233, Control_c, 0, 64, 127
1, 635246, Note_off_c, 0, 72, 55
1, 635274, Note_on_c, 0, 52, 76
1, 635279, Note_on_c, 0, 60, 72
1, 635283, Note_on_c, 0, 55, 67
1, 635305, Note_on_c, 0, 69, 72
1, 635307, Note_off_c, 0, 55, 66
1, 635308, Note_off_c, 0, 60, 65
1, 635313, Note_on_c, 0, 64, 54
1, 635320, Note_off_c, 0, 52, 60
1, 635327, Note_off_c, 0, 69, 70
1, 635329, Note_on_c, 0, 65, 39
1, 635336, Note_off_c, 0, 64, 61
1, 635361, Note_off_c, 0, 65, 55
1, 635393, Note_on_c, 0, 61, 83
1, 635394, Note_on_c, 0, 56, 73
1, 635398, Note_on_c, 0, 53, 59
1, 635424, Note_off_c, 0, 53, 64
1, 635425, Note_on_c, 0, 73, 88
1, 635430, Note_on_c, 0, 85, 82
1, 635435, Note_off_c, 0, 56, 56
1, 635436, Note_off_c, 0, 61, 55
1, 635445, Note_on_c, 0, 78, 57
1, 635448, Note_off_c, 0, 73, 67
1, 635450, Note_off_c, 0, 85, 67
1, 635463, Note_off_c, 0, 78, 64
1, 635484, Control_c, 0, 64, 93
1, 635499, Control_c, 0, 64, 67
1, 635510, Note_on_c, 0, 54, 80
1, 635511, Note_on_c, 0, 62, 78
1, 635514, Control_c, 0, 64, 0
1, 635519, Note_on_c, 0, 57, 67
1, 635540, Note_off_c, 0, 62, 62
1, 635543, Note_off_c, 0, 57, 65
1, 635544, Note_on_c, 0, 78, 75
1, 635546, Note_on_c, 0, 74, 96
1, 635553, Note_on_c, 0, 86, 77
1, 635558, Control_c, 0, 64, 66
1, 635560, Note_off_c, 0, 54, 64
1, 635567, Note_off_c, 0, 74, 68
1, 635568, Note_off_c, 0, 86, 71
1, 635571, Note_off_c, 0, 78, 64
1, 635573, Control_c, 0, 64, 81
1, 635588, Control_c, 0, 64, 103
1, 635603, Control_c, 0, 64, 127
1, 635621, Note_on_c, 0, 55, 74
1, 635624, Note_on_c, 0, 63, 79
1, 635633, Note_on_c, 0, 58, 66
1, 635651, Note_off_c, 0, 55, 66
1, 635652, Note_off_c, 0, 63, 63
1, 635665, Note_off_c, 0, 58, 63
1, 635666, Note_on_c, 0, 87, 80
1, 635666, Note_on_c, 0, 75, 77
1, 635671, Note_on_c, 0, 79, 70
1, 635686, Note_off_c, 0, 75, 71
1, 635688, Note_off_c, 0, 79, 68
1, 635690, Note_off_c, 0, 87, 64
1, 635693, Control_c, 0, 64, 94
1, 635707, Control_c, 0, 64, 76
1, 635722, Control_c, 0, 64, 67
1, 635733, Note_on_c, 0, 56, 80
1, 635734, Note_on_c, 0, 64, 83
1, 635737, Control_c, 0, 64, 70
1, 635741, Note_on_c, 0, 59, 68
1, 635752, Control_c, 0, 64, 80
1, 635764, Note_on_c, 0, 80, 61
1, 635764, Note_off_c, 0, 64, 64
1, 635767, Control_c, 0, 64, 97
1, 635768, Note_off_c, 0, 59, 65
1, 635772, Note_on_c, 0, 76, 85
1, 635779, Note_on_c, 0, 88, 75
1, 635782, Control_c, 0, 64, 105
1, 635785, Note_off_c, 0, 56, 62
1, 635791, Note_off_c, 0, 76, 70
1, 635797, Control_c, 0, 64, 97
1, 635800, Note_off_c, 0, 88, 71
1, 635809, Note_off_c, 0, 80, 62
1, 635812, Control_c, 0, 64, 82
1, 635826, Control_c, 0, 64, 69
1, 635841, Control_c, 0, 64, 68
1, 635844, Note_on_c, 0, 57, 82
1, 635846, Note_on_c, 0, 65, 76
1, 635850, Note_on_c, 0, 60, 72
1, 635856, Control_c, 0, 64, 76
1, 635868, Note_off_c, 0, 65, 70
1, 635870, Control_c, 0, 64, 90
1, 635878, Note_on_c, 0, 81, 95
1, 635878, Note_off_c, 0, 60, 68
1, 635880, Note_on_c, 0, 77, 93
1, 635881, Note_off_c, 0, 57, 62
1, 635885, Control_c, 0, 64, 108
1, 635892, Note_on_c, 0, 89, 75
1, 635900, Control_c, 0, 64, 107
1, 635908, Note_off_c, 0, 77, 63
1, 635910, Note_on_c, 0, 85, 40
1, 635914, Note_off_c, 0, 89, 66
1, 635922, Control_c, 0, 64, 95
1, 635925, Note_off_c, 0, 81, 61
1, 635933, Note_on_c, 0, 87, 17
1, 635937, Control_c, 0, 64, 86
1, 635942, Note_off_c, 0, 85, 57
1, 635952, Control_c, 0, 64, 87
1, 635961, Note_off_c, 0, 87, 45
1, 635964, Note_on_c, 0, 66, 82
1, 635967, Control_c, 0, 64, 103
1, 635968, Note_on_c, 0, 58, 76
1, 635978, Note_on_c, 0, 61, 67
1, 635981, Control_c, 0, 64, 127
1, 636001, Note_on_c, 0, 78, 93
1, 636002, Note_on_c, 0, 82, 89
1, 636006, Note_on_c, 0, 90, 90
1, 636007, Note_off_c, 0, 61, 65
1, 636011, Note_off_c, 0, 66, 58
1, 636018, Note_off_c, 0, 58, 62
1, 636041, Note_off_c, 0, 78, 63
1, 636045, Note_off_c, 0, 82, 59
1, 636047, Note_off_c, 0, 90, 64
1, 636078, Note_on_c, 0, 59, 87
1, 636082, Note_on_c, 0, 62, 77
1, 636082, Note_on_c, 0, 67, 85
1, 636107, Note_off_c, 0, 67, 65
1, 636110, Note_off_c, 0, 62, 65
1, 636119, Note_on_c, 0, 79, 94
1, 636122, Note_on_c, 0, 83, 89
1, 636122, Note_off_c, 0, 59, 64
1, 636134, Note_on_c, 0, 82, 34
1, 636135, Note_off_c, 0, 82, 127
1, 636137, Note_on_c, 0, 91, 71
1, 636146, Note_on_c, 0, 89, 54
1, 636146, Note_off_c, 0, 79, 61
1, 636147, Note_off_c, 0, 83, 62
1, 636152, Note_off_c, 0, 91, 67
1, 636168, Note_off_c, 0, 89, 58
1, 636193, Note_on_c, 0, 68, 90
1, 636210, Note_on_c, 0, 63, 64
1, 636219, Note_on_c, 0, 60, 49
1, 636229, Note_on_c, 0, 80, 99
1, 636232, Note_on_c, 0, 84, 84
1, 636233, Note_on_c, 0, 92, 86
1, 636234, Note_off_c, 0, 68, 64
1, 636241, Note_off_c, 0, 60, 66
1, 636241, Note_off_c, 0, 63, 64
1, 636248, Note_on_c, 0, 61, 25
1, 636250, Note_on_c, 0, 90, 54
1, 636268, Note_off_c, 0, 80, 65
1, 636269, Note_off_c, 0, 90, 64
1, 636273, Note_off_c, 0, 92, 67
1, 636274, Note_off_c, 0, 84, 59
1, 636287, Note_off_c, 0, 61, 53
1, 636316, Note_on_c, 0, 69, 85
1, 636321, Note_on_c, 0, 61, 53
1, 636331, Note_on_c, 0, 64, 68
1, 636338, Note_on_c, 0, 60, 49
1, 636347, Note_on_c, 0, 81, 100
1, 636348, Note_off_c, 0, 69, 58
1, 636349, Note_on_c, 0, 85, 93
1, 636354, Note_on_c, 0, 93, 90
1, 636359, Note_off_c, 0, 64, 67
1, 636362, Note_off_c, 0, 60, 59
1, 636369, Note_off_c, 0, 61, 51
1, 636378, Note_off_c, 0, 81, 65
1, 636386, Note_on_c, 0, 91, 41
1, 636387, Note_off_c, 0, 91, 127
1, 636389, Note_off_c, 0, 93, 62
1, 636392, Note_off_c, 0, 85, 65
1, 636420, Note_on_c, 0, 70, 86
1, 636440, Note_off_c, 0, 70, 71
1, 636445, Note_on_c, 0, 66, 65
1, 636465, Note_on_c, 0, 82, 100
1, 636468, Note_on_c, 0, 63, 41
1, 636468, Note_on_c, 0, 94, 90
1, 636479, Note_off_c, 0, 66, 62
1, 636485, Note_on_c, 0, 87, 65
1, 636494, Note_off_c, 0, 63, 58
1, 636500, Control_c, 0, 64, 106
1, 636512, Note_on_c, 0, 57, 83
1, 636515, Note_off_c, 0, 87, 58
1, 636515, Control_c, 0, 64, 64
1, 636516, Note_on_c, 0, 92, 4
1, 636520, Note_off_c, 0, 82, 62
1, 636524, Note_off_c, 0, 94, 65
1, 636530, Control_c, 0, 64, 0
1, 636532, Poly_aftertouch_c, 0, 69, 0
1, 636557, Note_off_c, 0, 57, 63
1, 636558, Note_on_c, 0, 63, 64
1, 636565, Note_off_c, 0, 92, 40
1, 636575, Control_c, 0, 64, 68
1, 636577, Note_on_c, 0, 66, 70
1, 636578, Note_on_c, 0, 71, 91
1, 636590, Control_c, 0, 64, 91
1, 636605, Control_c, 0, 64, 127
1, 636610, Note_off_c, 0, 63, 63
1, 636611, Note_off_c, 0, 66, 62
1, 636624, Note_on_c, 0, 83, 106
1, 636624, Note_on_c, 0, 95, 105
1, 636627, Note_on_c, 0, 87, 90
1, 636631, Note_off_c, 0, 71, 61
1, 636702, Note_off_c, 0, 83, 53
1, 636707, Note_on_c, 0, 57, 75
1, 636728, Note_off_c, 0, 95, 61
1, 636735, Note_off_c, 0, 57, 66
1, 636738, Note_on_c, 0, 64, 77
1, 636740, Note_off_c, 0, 87, 63
1, 636757, Note_on_c, 0, 67, 67
1, 636782, Note_on_c, 0, 72, 93
1, 636825, Poly_aftertouch_c, 0, 66, 0
1, 636827, Note_on_c, 0, 84, 104
1, 636828, Note_off_c, 0, 72, 62
1, 636831, Note_on_c, 0, 88, 90
1, 636831, Note_on_c, 0, 96, 105
1, 636852, Note_off_c, 0, 64, 46
1, 636854, Note_on_c, 0, 94, 59
1, 636862, Note_off_c, 0, 67, 60
1, 636873, Note_off_c, 0, 94, 61
1, 636909, Note_on_c, 0, 57, 75
1, 636914, Note_off_c, 0, 96, 64
1, 636928, Note_off_c, 0, 84, 54
1, 636941, Note_off_c, 0, 57, 64
1, 636950, Note_on_c, 0, 64, 81
1, 636953, Note_on_c, 0, 60, 38
1, 636965, Note_on_c, 0, 66, 37
1, 636972, Note_on_c, 0, 67, 81
1, 636983, Note_off_c, 0, 60, 56
1, 636992, Note_off_c, 0, 66, 58
1, 637030, Note_on_c, 0, 73, 103
1, 637052, Note_off_c, 0, 88, 27
1, 637056, Control_c, 0, 64, 75
1, 637071, Control_c, 0, 64, 0
1, 637086, Control_c, 0, 64, 14
1, 637096, Note_on_c, 0, 85, 114
1, 637099, Note_on_c, 0, 88, 89
1, 637100, Control_c, 0, 64, 127
1, 637107, Note_on_c, 0, 97, 97
1, 637111, Note_on_c, 0, 92, 82
1, 637125, Note_on_c, 0, 94, 55
1, 637126, Note_off_c, 0, 92, 69
1, 637130, Note_off_c, 0, 97, 68
1, 637135, Note_off_c, 0, 67, 63
1, 637136, Note_off_c, 0, 85, 70
1, 637143, Note_off_c, 0, 73, 65
1, 637143, Note_off_c, 0, 88, 64
1, 637145, Note_off_c, 0, 64, 61
1, 637147, Note_off_c, 0, 94, 60
1, 637606, Note_on_c, 0, 50, 57
1, 637622, Note_on_c, 0, 38, 52
1, 637672, Control_c, 0, 64, 96
1, 637687, Control_c, 0, 64, 74
1, 637701, Control_c, 0, 64, 0
1, 637746, Control_c, 0, 64, 63
1, 637748, Note_on_c, 0, 54, 45
1, 637750, Note_on_c, 0, 57, 48
1, 637752, Note_on_c, 0, 62, 48
1, 637761, Control_c, 0, 64, 73
1, 637776, Control_c, 0, 64, 86
1, 637782, Note_off_c, 0, 54, 54
1, 637788, Note_off_c, 0, 57, 62
1, 637788, Note_off_c, 0, 62, 60
1, 637791, Control_c, 0, 64, 110
1, 637805, Control_c, 0, 64, 127
1, 637819, Note_off_c, 0, 38, 56
1, 637828, Note_off_c, 0, 50, 59
1, 637865, Note_on_c, 0, 57, 51
1, 637869, Note_on_c, 0, 62, 48
1, 637874, Note_on_c, 0, 54, 42
1, 637901, Note_off_c, 0, 57, 62
1, 637904, Note_off_c, 0, 54, 63
1, 637931, Note_off_c, 0, 62, 53
1, 637951, Note_on_c, 0, 51, 63
1, 637958, Note_on_c, 0, 39, 48
1, 637981, Note_off_c, 0, 51, 64
1, 637994, Note_off_c, 0, 39, 51
1, 638044, Note_on_c, 0, 39, 54
1, 638046, Note_on_c, 0, 51, 69
1, 638106, Note_off_c, 0, 51, 57
1, 638115, Note_on_c, 0, 66, 62
1, 638120, Note_on_c, 0, 57, 59
1, 638126, Note_on_c, 0, 62, 49
1, 638144, Note_off_c, 0, 39, 36
1, 638144, Note_off_c, 0, 66, 61
1, 638149, Note_off_c, 0, 57, 58
1, 638156, Note_off_c, 0, 62, 54
1, 638214, Note_on_c, 0, 57, 44
1, 638217, Note_on_c, 0, 66, 67
1, 638221, Note_on_c, 0, 62, 50
1, 638259, Note_off_c, 0, 57, 53
1, 638259, Note_off_c, 0, 62, 57
1, 638268, Note_on_c, 0, 50, 65
1, 638280, Note_on_c, 0, 38, 53
1, 638286, Note_off_c, 0, 66, 57
1, 638298, Note_off_c, 0, 50, 67
1, 638332, Control_c, 0, 64, 114
1, 638342, Note_off_c, 0, 38, 0
1, 638346, Control_c, 0, 64, 94
1, 638352, Note_on_c, 0, 38, 59
1, 638352, Note_on_c, 0, 50, 79
1, 638361, Control_c, 0, 64, 83
1, 638376, Control_c, 0, 64, 73
1, 638391, Control_c, 0, 64, 70
1, 638406, Control_c, 0, 64, 72
1, 638408, Note_on_c, 0, 66, 61
1, 638408, Note_on_c, 0, 57, 72
1, 638412, Note_on_c, 0, 62, 62
1, 638419, Note_on_c, 0, 69, 50
1, 638420, Control_c, 0, 64, 77
1, 638427, Note_off_c, 0, 50, 63
1, 638430, Note_off_c, 0, 57, 66
1, 638430, Note_off_c, 0, 66, 65
1, 638435, Control_c, 0, 64, 84
1, 638436, Note_off_c, 0, 38, 61
1, 638442, Note_off_c, 0, 62, 64
1, 638445, Note_off_c, 0, 69, 58
1, 638450, Control_c, 0, 64, 92
1, 638465, Control_c, 0, 64, 102
1, 638479, Note_on_c, 0, 57, 68
1, 638479, Control_c, 0, 64, 110
1, 638491, Note_on_c, 0, 66, 69
1, 638494, Control_c, 0, 64, 117
1, 638496, Note_on_c, 0, 69, 66
1, 638500, Note_on_c, 0, 62, 56
1, 638507, Note_off_c, 0, 57, 60
1, 638509, Control_c, 0, 64, 127
1, 638524, Note_off_c, 0, 62, 65
1, 638540, Note_on_c, 0, 49, 78
1, 638544, Note_on_c, 0, 37, 72
1, 638544, Note_off_c, 0, 69, 59
1, 638558, Note_off_c, 0, 66, 61
1, 638569, Note_off_c, 0, 49, 64
1, 638573, Note_off_c, 0, 37, 64
1, 638614, Control_c, 0, 64, 86
1, 638624, Note_on_c, 0, 49, 83
1, 638629, Control_c, 0, 64, 63
1, 638632, Note_on_c, 0, 37, 82
1, 638643, Control_c, 0, 64, 0
1, 638675, Note_on_c, 0, 62, 70
1, 638678, Note_on_c, 0, 69, 65
1, 638681, Note_on_c, 0, 66, 61
1, 638686, Note_on_c, 0, 74, 60
1, 638700, Note_off_c, 0, 62, 66
1, 638702, Note_off_c, 0, 66, 65
1, 638703, Control_c, 0, 64, 53
1, 638703, Note_off_c, 0, 49, 63
1, 638706, Note_off_c, 0, 69, 64
1, 638707, Note_off_c, 0, 74, 63
1, 638709, Note_off_c, 0, 37, 63
1, 638718, Control_c, 0, 64, 63
1, 638733, Control_c, 0, 64, 66
1, 638747, Control_c, 0, 64, 69
1, 638748, Note_on_c, 0, 62, 70
1, 638760, Note_on_c, 0, 74, 64
1, 638762, Note_on_c, 0, 69, 76
1, 638762, Control_c, 0, 64, 72
1, 638767, Note_on_c, 0, 66, 66
1, 638777, Control_c, 0, 64, 77
1, 638792, Control_c, 0, 64, 81
1, 638801, Note_off_c, 0, 66, 59
1, 638807, Control_c, 0, 64, 85
1, 638812, Note_off_c, 0, 62, 60
1, 638813, Note_on_c, 0, 48, 80
1, 638814, Note_off_c, 0, 74, 61
1, 638820, Note_off_c, 0, 69, 63
1, 638821, Control_c, 0, 64, 86
1, 638823, Note_on_c, 0, 36, 64
1, 638837, Control_c, 0, 64, 82
1, 638839, Note_off_c, 0, 48, 66
1, 638852, Note_off_c, 0, 36, 57
1, 638852, Control_c, 0, 64, 74
1, 638867, Control_c, 0, 64, 60
1, 638882, Control_c, 0, 64, 0
1, 638894, Note_on_c, 0, 48, 81
1, 638907, Note_on_c, 0, 36, 82
1, 638948, Control_c, 0, 64, 40
1, 638956, Note_on_c, 0, 70, 75
1, 638960, Note_on_c, 0, 62, 71
1, 638963, Control_c, 0, 64, 61
1, 638965, Note_on_c, 0, 67, 71
1, 638977, Control_c, 0, 64, 66
1, 638980, Note_off_c, 0, 70, 65
1, 638986, Note_off_c, 0, 62, 65
1, 638989, Note_off_c, 0, 67, 67
1, 638992, Note_off_c, 0, 48, 61
1, 638992, Control_c, 0, 64, 72
1, 639008, Note_off_c, 0, 36, 60
1, 639008, Control_c, 0, 64, 78
1, 639023, Control_c, 0, 64, 84
1, 639038, Control_c, 0, 64, 90
1, 639043, Note_on_c, 0, 70, 76
1, 639052, Note_on_c, 0, 67, 70
1, 639052, Control_c, 0, 64, 95
1, 639053, Note_on_c, 0, 62, 59
1, 639067, Control_c, 0, 64, 102
1, 639082, Control_c, 0, 64, 119
1, 639097, Control_c, 0, 64, 127
1, 639102, Note_off_c, 0, 62, 58
1, 639104, Note_on_c, 0, 47, 77
1, 639104, Note_off_c, 0, 67, 57
1, 639108, Note_on_c, 0, 35, 74
1, 639110, Note_off_c, 0, 70, 61
1, 639129, Note_off_c, 0, 47, 67
1, 639137, Note_off_c, 0, 35, 65
1, 639171, Control_c, 0, 64, 99
1, 639186, Control_c, 0, 64, 80
1, 639192, Note_on_c, 0, 47, 78
1, 639199, Note_on_c, 0, 35, 76
1, 639201, Control_c, 0, 64, 66
1, 639216, Control_c, 0, 64, 48
1, 639230, Note_on_c, 0, 67, 76
1, 639231, Control_c, 0, 64, 59
1, 639233, Note_on_c, 0, 62, 74
1, 639245, Control_c, 0, 64, 68
1, 639246, Note_on_c, 0, 74, 53
1, 639258, Note_off_c, 0, 62, 65
1, 639259, Note_off_c, 0, 67, 63
1, 639260, Control_c, 0, 64, 75
1, 639268, Note_off_c, 0, 74, 61
1, 639275, Control_c, 0, 64, 84
1, 639290, Control_c, 0, 64, 95
1, 639296, Note_off_c, 0, 47, 60
1, 639302, Note_off_c, 0, 35, 62
1, 639304, Control_c, 0, 64, 106
1, 639306, Note_on_c, 0, 67, 72
1, 639308, Note_on_c, 0, 62, 77
1, 639314, Note_on_c, 0, 74, 82
1, 639319, Control_c, 0, 64, 127
1, 639338, Note_off_c, 0, 62, 63
1, 639344, Note_off_c, 0, 67, 62
1, 639371, Note_off_c, 0, 74, 65
1, 639389, Note_on_c, 0, 46, 89
1, 639392, Note_on_c, 0, 34, 80
1, 639416, Note_off_c, 0, 46, 66
1, 639423, Note_off_c, 0, 34, 64
1, 639438, Control_c, 0, 64, 123
1, 639452, Control_c, 0, 64, 91
1, 639467, Control_c, 0, 64, 74
1, 639482, Control_c, 0, 64, 61
1, 639484, Note_on_c, 0, 34, 85
1, 639484, Note_on_c, 0, 46, 90
1, 639489, Note_on_c, 0, 67, 77
1, 639492, Note_on_c, 0, 79, 78
1, 639495, Note_on_c, 0, 74, 69
1, 639496, Control_c, 0, 64, 49
1, 639508, Note_off_c, 0, 67, 70
1, 639511, Control_c, 0, 64, 62
1, 639514, Note_off_c, 0, 79, 70
1, 639520, Note_off_c, 0, 74, 73
1, 639526, Control_c, 0, 64, 69
1, 639541, Control_c, 0, 64, 74
1, 639556, Control_c, 0, 64, 80
1, 639565, Note_on_c, 0, 67, 88
1, 639567, Note_on_c, 0, 79, 81
1, 639571, Control_c, 0, 64, 88
1, 639573, Note_on_c, 0, 74, 77
1, 639583, Note_off_c, 0, 34, 60
1, 639585, Control_c, 0, 64, 95
1, 639586, Note_off_c, 0, 46, 62
1, 639600, Control_c, 0, 64, 108
1, 639615, Control_c, 0, 64, 127
1, 639618, Note_off_c, 0, 67, 62
1, 639630, Note_off_c, 0, 79, 61
1, 639633, Note_off_c, 0, 74, 65
1, 639669, Note_on_c, 0, 45, 92
1, 639677, Note_on_c, 0, 33, 79
1, 639713, Control_c, 0, 64, 110
1, 639722, Note_off_c, 0, 45, 62
1, 639727, Control_c, 0, 64, 84
1, 639728, Note_on_c, 0, 74, 77
1, 639728, Note_off_c, 0, 33, 58
1, 639737, Note_on_c, 0, 70, 56
1, 639737, Note_on_c, 0, 82, 59
1, 639742, Control_c, 0, 64, 70
1, 639748, Note_off_c, 0, 74, 72
1, 639756, Control_c, 0, 64, 67
1, 639758, Note_off_c, 0, 70, 61
1, 639771, Control_c, 0, 64, 73
1, 639777, Note_off_c, 0, 82, 0
1, 639786, Note_on_c, 0, 82, 78
1, 639786, Control_c, 0, 64, 81
1, 639791, Note_on_c, 0, 70, 77
1, 639793, Note_on_c, 0, 74, 78
1, 639800, Control_c, 0, 64, 93
1, 639805, Note_on_c, 0, 45, 86
1, 639812, Note_on_c, 0, 33, 76
1, 639815, Control_c, 0, 64, 108
1, 639830, Note_off_c, 0, 82, 65
1, 639830, Control_c, 0, 64, 127
1, 639836, Note_off_c, 0, 45, 64
1, 639843, Note_off_c, 0, 74, 64
1, 639847, Note_off_c, 0, 33, 61
1, 639865, Note_off_c, 0, 70, 64
1, 639926, Note_on_c, 0, 31, 81
1, 639928, Note_on_c, 0, 43, 82
1, 639956, Note_off_c, 0, 31, 64
1, 639963, Note_off_c, 0, 43, 63
1, 639993, Control_c, 0, 64, 95
1, 640008, Control_c, 0, 64, 74
1, 640023, Control_c, 0, 64, 0
1, 640044, Note_on_c, 0, 50, 96
1, 640053, Note_on_c, 0, 38, 83
1, 640112, Control_c, 0, 64, 58
1, 640114, Note_on_c, 0, 69, 68
1, 640116, Note_on_c, 0, 66, 60
1, 640118, Note_on_c, 0, 74, 64
1, 640126, Control_c, 0, 64, 74
1, 640138, Note_off_c, 0, 66, 61
1, 640141, Control_c, 0, 64, 88
1, 640142, Note_off_c, 0, 69, 67
1, 640142, Note_off_c, 0, 74, 57
1, 640156, Control_c, 0, 64, 115
1, 640158, Note_off_c, 0, 38, 61
1, 640162, Note_off_c, 0, 50, 59
1, 640171, Control_c, 0, 64, 127
1, 640191, Note_on_c, 0, 66, 64
1, 640191, Note_on_c, 0, 74, 71
1, 640198, Note_on_c, 0, 69, 74
1, 640237, Note_off_c, 0, 66, 55
1, 640240, Note_off_c, 0, 74, 62
1, 640247, Note_on_c, 0, 51, 81
1, 640249, Note_off_c, 0, 69, 61
1, 640256, Note_on_c, 0, 39, 62
1, 640270, Note_off_c, 0, 51, 67
1, 640285, Note_off_c, 0, 39, 57
1, 640319, Control_c, 0, 64, 92
1, 640325, Note_on_c, 0, 51, 87
1, 640334, Control_c, 0, 64, 71
1, 640338, Note_on_c, 0, 39, 83
1, 640349, Control_c, 0, 64, 14
1, 640363, Control_c, 0, 64, 0
1, 640378, Control_c, 0, 64, 57
1, 640381, Note_on_c, 0, 66, 76
1, 640384, Note_on_c, 0, 69, 68
1, 640386, Note_on_c, 0, 74, 69
1, 640393, Control_c, 0, 64, 70
1, 640404, Note_off_c, 0, 66, 67
1, 640408, Control_c, 0, 64, 79
1, 640414, Note_off_c, 0, 69, 64
1, 640416, Note_off_c, 0, 74, 65
1, 640430, Control_c, 0, 64, 94
1, 640432, Note_off_c, 0, 51, 63
1, 640438, Note_off_c, 0, 39, 60
1, 640446, Control_c, 0, 64, 123
1, 640461, Control_c, 0, 64, 127
1, 640469, Note_on_c, 0, 66, 80
1, 640474, Note_on_c, 0, 74, 63
1, 640479, Note_on_c, 0, 78, 78
1, 640480, Note_on_c, 0, 69, 59
1, 640507, Note_off_c, 0, 69, 67
1, 640527, Note_off_c, 0, 66, 55
1, 640527, Note_off_c, 0, 74, 61
1, 640530, Note_on_c, 0, 50, 85
1, 640539, Note_on_c, 0, 38, 74
1, 640541, Note_off_c, 0, 78, 64
1, 640554, Note_off_c, 0, 50, 70
1, 640566, Note_off_c, 0, 38, 64
1, 640570, Note_on_c, 0, 39, 18
1, 640594, Control_c, 0, 64, 90
1, 640601, Note_off_c, 0, 39, 54
1, 640609, Control_c, 0, 64, 69
1, 640617, Note_on_c, 0, 50, 92
1, 640621, Note_on_c, 0, 38, 87
1, 640623, Control_c, 0, 64, 47
1, 640638, Control_c, 0, 64, 61
1, 640653, Control_c, 0, 64, 71
1, 640664, Note_on_c, 0, 69, 83
1, 640664, Note_on_c, 0, 78, 74
1, 640667, Note_on_c, 0, 74, 74
1, 640667, Control_c, 0, 64, 80
1, 640682, Control_c, 0, 64, 93
1, 640691, Note_off_c, 0, 69, 61
1, 640691, Note_off_c, 0, 78, 61
1, 640697, Note_off_c, 0, 74, 63
1, 640697, Control_c, 0, 64, 113
1, 640700, Note_on_c, 0, 81, 28
1, 640712, Control_c, 0, 64, 127
1, 640727, Note_off_c, 0, 50, 62
1, 640735, Note_off_c, 0, 38, 61
1, 640741, Note_on_c, 0, 69, 74
1, 640742, Note_off_c, 0, 81, 0
1, 640742, Note_on_c, 0, 81, 44
1, 640749, Note_on_c, 0, 74, 71
1, 640750, Note_on_c, 0, 78, 75
1, 640769, Poly_aftertouch_c, 0, 39, 127
1, 640781, Note_off_c, 0, 74, 66
1, 640785, Note_off_c, 0, 69, 60
1, 640814, Note_off_c, 0, 81, 63
1, 640814, Note_on_c, 0, 49, 92
1, 640816, Poly_aftertouch_c, 0, 39, 0
1, 640817, Note_off_c, 0, 78, 63
1, 640818, Note_on_c, 0, 37, 84
1, 640841, Note_off_c, 0, 49, 64
1, 640846, Control_c, 0, 64, 106
1, 640849, Note_off_c, 0, 37, 65
1, 640861, Control_c, 0, 64, 76
1, 640875, Control_c, 0, 64, 48
1, 640890, Control_c, 0, 64, 52
1, 640903, Note_on_c, 0, 49, 97
1, 640905, Note_on_c, 0, 37, 88
1, 640905, Control_c, 0, 64, 67
1, 640920, Control_c, 0, 64, 78
1, 640927, Note_on_c, 0, 81, 78
1, 640930, Note_on_c, 0, 74, 83
1, 640934, Note_on_c, 0, 78, 68
1, 640935, Control_c, 0, 64, 104
1, 640938, Note_on_c, 0, 86, 65
1, 640949, Control_c, 0, 64, 127
1, 640950, Note_off_c, 0, 74, 73
1, 640951, Note_off_c, 0, 81, 60
1, 640952, Note_off_c, 0, 78, 67
1, 640955, Note_off_c, 0, 86, 66
1, 640986, Note_off_c, 0, 49, 62
1, 640988, Note_off_c, 0, 37, 63
1, 641000, Note_on_c, 0, 81, 72
1, 641005, Note_on_c, 0, 74, 82
1, 641013, Note_on_c, 0, 78, 76
1, 641013, Note_on_c, 0, 86, 83
1, 641076, Note_off_c, 0, 74, 62
1, 641079, Note_on_c, 0, 48, 92
1, 641079, Note_off_c, 0, 78, 60
1, 641079, Note_off_c, 0, 86, 62
1, 641084, Note_off_c, 0, 81, 61
1, 641089, Note_on_c, 0, 36, 79
1, 641103, Note_off_c, 0, 48, 68
1, 641115, Note_off_c, 0, 36, 63
1, 641127, Control_c, 0, 64, 83
1, 641129, Note_on_c, 0, 37, 16
1, 641141, Control_c, 0, 64, 0
1, 641171, Note_on_c, 0, 48, 100
1, 641172, Note_on_c, 0, 36, 89
1, 641178, Note_off_c, 0, 37, 41
1, 641190, Note_on_c, 0, 82, 83
1, 641193, Control_c, 0, 64, 98
1, 641195, Note_on_c, 0, 79, 79
1, 641197, Note_on_c, 0, 74, 76
1, 641208, Control_c, 0, 64, 127
1, 641217, Note_off_c, 0, 82, 63
1, 641222, Note_off_c, 0, 79, 62
1, 641225, Note_off_c, 0, 74, 65
1, 641262, Note_off_c, 0, 48, 62
1, 641272, Note_on_c, 0, 74, 69
1, 641273, Note_off_c, 0, 36, 60
1, 641273, Note_on_c, 0, 82, 82
1, 641282, Note_on_c, 0, 79, 74
1, 641332, Note_off_c, 0, 74, 59
1, 641344, Note_off_c, 0, 79, 60
1, 641350, Note_off_c, 0, 82, 63
1, 641351, Note_on_c, 0, 47, 91
1, 641359, Note_on_c, 0, 35, 78
1, 641380, Note_off_c, 0, 47, 66
1, 641384, Note_off_c, 0, 35, 67
1, 641387, Control_c, 0, 64, 101
1, 641402, Control_c, 0, 64, 70
1, 641417, Control_c, 0, 64, 53
1, 641432, Control_c, 0, 64, 67
1, 641439, Note_on_c, 0, 47, 90
1, 641440, Note_on_c, 0, 35, 83
1, 641446, Control_c, 0, 64, 82
1, 641448, Note_on_c, 0, 79, 83
1, 641452, Note_on_c, 0, 74, 80
1, 641461, Note_on_c, 0, 86, 69
1, 641461, Control_c, 0, 64, 127
1, 641472, Note_off_c, 0, 74, 73
1, 641478, Note_off_c, 0, 86, 68
1, 641479, Note_off_c, 0, 79, 60
1, 641513, Note_off_c, 0, 47, 64
1, 641520, Note_off_c, 0, 35, 61
1, 641528, Note_on_c, 0, 74, 79
1, 641529, Note_on_c, 0, 79, 76
1, 641530, Note_on_c, 0, 86, 89
1, 641550, Note_off_c, 0, 74, 70
1, 641566, Note_off_c, 0, 79, 61
1, 641592, Note_off_c, 0, 86, 65
1, 641602, Note_on_c, 0, 46, 94
1, 641606, Note_on_c, 0, 34, 83
1, 641628, Note_off_c, 0, 46, 64
1, 641636, Note_off_c, 0, 34, 65
1, 641696, Note_on_c, 0, 46, 99
1, 641700, Note_on_c, 0, 34, 94
1, 641703, Note_on_c, 0, 91, 79
1, 641705, Note_on_c, 0, 86, 72
1, 641708, Note_on_c, 0, 79, 75
1, 641723, Note_off_c, 0, 79, 70
1, 641723, Note_off_c, 0, 91, 72
1, 641726, Note_off_c, 0, 86, 70
1, 641767, Note_on_c, 0, 79, 94
1, 641768, Note_off_c, 0, 46, 59
1, 641770, Note_on_c, 0, 91, 87
1, 641776, Note_on_c, 0, 86, 87
1, 641776, Note_off_c, 0, 34, 59
1, 641823, Note_off_c, 0, 79, 60
1, 641837, Note_off_c, 0, 91, 66
1, 641839, Note_off_c, 0, 86, 65
1, 641849, Note_on_c, 0, 45, 98
1, 641859, Note_on_c, 0, 33, 81
1, 641881, Note_on_c, 0, 34, 51
1, 641892, Note_off_c, 0, 33, 63
1, 641892, Note_off_c, 0, 45, 66
1, 641914, Note_off_c, 0, 34, 60
1, 641929, Note_on_c, 0, 86, 87
1, 641943, Note_on_c, 0, 82, 65
1, 641947, Note_on_c, 0, 94, 56
1, 641951, Note_off_c, 0, 86, 68
1, 641963, Note_off_c, 0, 82, 64
1, 641968, Note_off_c, 0, 94, 62
1, 641984, Note_on_c, 0, 45, 96
1, 641989, Note_on_c, 0, 33, 91
1, 641993, Note_on_c, 0, 82, 91
1, 641997, Note_on_c, 0, 86, 89
1, 641997, Note_on_c, 0, 94, 88
1, 642038, Note_off_c, 0, 45, 64
1, 642040, Note_off_c, 0, 33, 60
1, 642049, Note_off_c, 0, 86, 64
1, 642074, Note_off_c, 0, 82, 62
1, 642080, Note_off_c, 0, 94, 68
1, 642136, Note_on_c, 0, 43, 88
1, 642142, Note_on_c, 0, 31, 90
1, 642170, Note_off_c, 0, 31, 66
1, 642176, Note_off_c, 0, 43, 64
1, 642282, Note_on_c, 0, 50, 105
1, 642285, Control_c, 0, 64, 111
1, 642289, Note_on_c, 0, 38, 93
1, 642300, Control_c, 0, 64, 64
1, 642311, Note_on_c, 0, 39, 55
1, 642314, Control_c, 0, 64, 0
1, 642345, Note_off_c, 0, 39, 53
1, 642353, Note_on_c, 0, 90, 97
1, 642355, Note_on_c, 0, 93, 91
1, 642355, Note_on_c, 0, 86, 93
1, 642355, Note_on_c, 0, 98, 98
1, 642374, Control_c, 0, 64, 78
1, 642384, Note_off_c, 0, 86, 65
1, 642388, Control_c, 0, 64, 127
1, 642393, Note_off_c, 0, 93, 66
1, 642397, Note_off_c, 0, 98, 66
1, 642398, Note_off_c, 0, 90, 66
1, 642423, Note_off_c, 0, 38, 58
1, 642432, Poly_aftertouch_c, 0, 90, 0
1, 642434, Note_off_c, 0, 50, 61
1, 642438, Note_on_c, 0, 90, 80
1, 642442, Note_on_c, 0, 86, 92
1, 642449, Note_on_c, 0, 93, 80
1, 642452, Note_on_c, 0, 98, 64
1, 642471, Note_off_c, 0, 98, 65
1, 642486, Note_off_c, 0, 93, 61
1, 642496, Note_off_c, 0, 90, 65
1, 642501, Note_off_c, 0, 86, 65
1, 642545, Note_on_c, 0, 51, 91
1, 642549, Note_on_c, 0, 39, 75
1, 642567, Note_off_c, 0, 51, 71
1, 642578, Note_off_c, 0, 39, 62
1, 642596, Control_c, 0, 64, 91
1, 642611, Control_c, 0, 64, 65
1, 642626, Poly_aftertouch_c, 0, 42, 0
1, 642626, Control_c, 0, 64, 58
1, 642632, Note_on_c, 0, 51, 106
1, 642633, Note_on_c, 0, 39, 94
1, 642640, Control_c, 0, 64, 70
1, 642651, Note_on_c, 0, 78, 74
1, 642654, Note_on_c, 0, 81, 70
1, 642655, Control_c, 0, 64, 90
1, 642664, Poly_aftertouch_c, 0, 42, 0
1, 642666, Note_on_c, 0, 74, 72
1, 642677, Control_c, 0, 64, 127
1, 642682, Note_off_c, 0, 81, 66
1, 642683, Note_off_c, 0, 78, 67
1, 642683, Note_off_c, 0, 74, 68
1, 642721, Note_on_c, 0, 78, 71
1, 642721, Note_off_c, 0, 39, 60
1, 642723, Note_on_c, 0, 74, 87
1, 642726, Note_off_c, 0, 51, 61
1, 642731, Note_on_c, 0, 81, 79
1, 642741, Note_on_c, 0, 86, 44
1, 642751, Note_off_c, 0, 81, 69
1, 642764, Note_off_c, 0, 86, 62
1, 642769, Note_off_c, 0, 78, 63
1, 642778, Note_off_c, 0, 74, 60
1, 642807, Note_on_c, 0, 50, 90
1, 642820, Note_on_c, 0, 38, 74
1, 642834, Note_on_c, 0, 39, 48
1, 642841, Note_off_c, 0, 50, 65
1, 642852, Note_off_c, 0, 38, 60
1, 642866, Note_off_c, 0, 39, 54
1, 642888, Poly_aftertouch_c, 0, 44, 127
1, 642895, Note_on_c, 0, 62, 77
1, 642902, Note_on_c, 0, 69, 67
1, 642908, Note_on_c, 0, 66, 58
1, 642909, Note_on_c, 0, 50, 89
1, 642914, Note_on_c, 0, 38, 80
1, 642915, Poly_aftertouch_c, 0, 44, 0
1, 642916, Note_off_c, 0, 62, 68
1, 642927, Note_off_c, 0, 66, 65
1, 642928, Note_off_c, 0, 69, 68
1, 642956, Note_on_c, 0, 39, 40
1, 642963, Note_off_c, 0, 50, 64
1, 642966, Note_on_c, 0, 62, 86
1, 642969, Note_on_c, 0, 69, 74
1, 642975, Note_off_c, 0, 38, 61
1, 642988, Note_on_c, 0, 66, 67
1, 643002, Note_off_c, 0, 39, 48
1, 643013, Note_off_c, 0, 66, 65
1, 643018, Note_off_c, 0, 69, 61
1, 643034, Note_off_c, 0, 62, 63
1, 643052, Note_on_c, 0, 49, 97
1, 643061, Note_on_c, 0, 37, 79
1, 643093, Note_off_c, 0, 37, 66
1, 643098, Note_off_c, 0, 49, 63
1, 643137, Note_on_c, 0, 57, 75
1, 643139, Note_on_c, 0, 54, 78
1, 643139, Note_on_c, 0, 62, 71
1, 643149, Poly_aftertouch_c, 0, 39, 127
1, 643165, Note_off_c, 0, 54, 67
1, 643165, Note_off_c, 0, 62, 66
1, 643167, Note_off_c, 0, 57, 65
1, 643168, Note_on_c, 0, 37, 88
1, 643168, Note_on_c, 0, 49, 98
1, 643201, Poly_aftertouch_c, 0, 39, 0
1, 643207, Note_on_c, 0, 54, 85
1, 643216, Note_on_c, 0, 62, 82
1, 643218, Note_on_c, 0, 57, 74
1, 643244, Note_off_c, 0, 54, 63
1, 643246, Note_off_c, 0, 49, 63
1, 643248, Note_off_c, 0, 37, 60
1, 643257, Note_off_c, 0, 57, 57
1, 643271, Note_off_c, 0, 62, 61
1, 643329, Note_on_c, 0, 48, 101
1, 643336, Note_on_c, 0, 36, 90
1, 643358, Note_off_c, 0, 48, 63
1, 643364, Note_off_c, 0, 36, 66
1, 643374, Control_c, 0, 64, 112
1, 643389, Control_c, 0, 64, 65
1, 643404, Control_c, 0, 64, 0
1, 643432, Note_on_c, 0, 48, 108
1, 643438, Note_on_c, 0, 36, 100
1, 643456, Control_c, 0, 64, 59
1, 643462, Note_on_c, 0, 37, 45
1, 643470, Control_c, 0, 64, 127
1, 643481, Note_off_c, 0, 37, 62
1, 643493, Note_on_c, 0, 89, 104
1, 643495, Note_on_c, 0, 86, 97
1, 643503, Note_on_c, 0, 98, 80
1, 643508, Note_on_c, 0, 90, 78
1, 643509, Note_off_c, 0, 90, 127
1, 643511, Note_on_c, 0, 96, 71
1, 643511, Note_off_c, 0, 86, 75
1, 643515, Note_off_c, 0, 89, 64
1, 643522, Note_off_c, 0, 98, 73
1, 643523, Note_off_c, 0, 48, 62
1, 643527, Note_off_c, 0, 36, 62
1, 643528, Note_off_c, 0, 96, 67
1, 643561, Note_on_c, 0, 86, 91
1, 643565, Note_on_c, 0, 89, 91
1, 643604, Note_off_c, 0, 89, 63
1, 643610, Note_off_c, 0, 86, 67
1, 643613, Note_on_c, 0, 47, 91
1, 643621, Note_on_c, 0, 35, 79
1, 643641, Note_off_c, 0, 47, 65
1, 643647, Note_off_c, 0, 35, 66
1, 643693, Note_on_c, 0, 47, 86
1, 643697, Note_on_c, 0, 35, 83
1, 643726, Note_on_c, 0, 77, 91
1, 643737, Note_on_c, 0, 74, 75
1, 643744, Note_off_c, 0, 77, 72
1, 643752, Note_off_c, 0, 74, 69
1, 643762, Note_off_c, 0, 35, 63
1, 643762, Note_off_c, 0, 47, 63
1, 643790, Note_on_c, 0, 86, 55
1, 643791, Note_on_c, 0, 77, 91
1, 643797, Note_on_c, 0, 74, 92
1, 643818, Note_off_c, 0, 86, 67
1, 643833, Note_off_c, 0, 77, 61
1, 643847, Note_off_c, 0, 74, 58
1, 643851, Note_on_c, 0, 46, 93
1, 643856, Note_on_c, 0, 34, 84
1, 643879, Note_off_c, 0, 46, 62
1, 643885, Note_off_c, 0, 34, 64
1, 643951, Note_on_c, 0, 46, 101
1, 643956, Note_on_c, 0, 34, 94
1, 643960, Note_on_c, 0, 65, 77
1, 643966, Note_on_c, 0, 62, 74
1, 643982, Note_off_c, 0, 65, 70
1, 643991, Note_off_c, 0, 62, 67
1, 644015, Note_off_c, 0, 46, 57
1, 644021, Note_off_c, 0, 34, 58
1, 644033, Note_on_c, 0, 62, 78
1, 644034, Note_on_c, 0, 65, 91
1, 644078, Note_off_c, 0, 65, 65
1, 644087, Note_off_c, 0, 62, 62
1, 644105, Note_on_c, 0, 45, 95
1, 644113, Note_on_c, 0, 33, 86
1, 644131, Note_on_c, 0, 34, 53
1, 644137, Note_off_c, 0, 45, 64
1, 644143, Note_off_c, 0, 33, 66
1, 644147, Note_off_c, 0, 34, 69
1, 644202, Note_on_c, 0, 53, 81
1, 644206, Note_on_c, 0, 62, 64
1, 644221, Note_on_c, 0, 45, 99
1, 644226, Note_on_c, 0, 33, 89
1, 644227, Note_off_c, 0, 53, 67
1, 644230, Note_on_c, 0, 63, 35
1, 644233, Note_on_c, 0, 34, 31
1, 644235, Note_off_c, 0, 62, 64
1, 644260, Note_off_c, 0, 63, 57
1, 644272, Note_on_c, 0, 53, 87
1, 644279, Note_on_c, 0, 58, 69
1, 644283, Note_on_c, 0, 62, 89
1, 644286, Note_off_c, 0, 45, 61
1, 644298, Note_off_c, 0, 34, 52
1, 644306, Note_off_c, 0, 33, 59
1, 644306, Note_off_c, 0, 53, 68
1, 644328, Note_off_c, 0, 58, 65
1, 644343, Note_off_c, 0, 62, 63
1, 644397, Note_on_c, 0, 44, 98
1, 644400, Note_on_c, 0, 32, 88
1, 644420, Note_off_c, 0, 44, 69
1, 644424, Note_off_c, 0, 32, 69
1, 644442, Control_c, 0, 64, 81
1, 644457, Control_c, 0, 64, 0
1, 644490, Note_on_c, 0, 44, 106
1, 644492, Note_on_c, 0, 32, 101
1, 644516, Control_c, 0, 64, 127
1, 644516, Note_on_c, 0, 42, 49
1, 644517, Note_off_c, 0, 42, 127
1, 644519, Note_on_c, 0, 34, 57
1, 644520, Note_off_c, 0, 34, 127
1, 644541, Note_on_c, 0, 86, 99
1, 644543, Note_on_c, 0, 94, 106
1, 644556, Note_on_c, 0, 98, 66
1, 644561, Note_off_c, 0, 44, 66
1, 644561, Note_off_c, 0, 86, 67
1, 644561, Note_off_c, 0, 94, 67
1, 644569, Note_off_c, 0, 32, 60
1, 644570, Note_off_c, 0, 98, 71
1, 644603, Note_on_c, 0, 86, 92
1, 644613, Note_on_c, 0, 94, 92
1, 644616, Note_on_c, 0, 98, 92
1, 644629, Note_off_c, 0, 98, 75
1, 644647, Note_off_c, 0, 94, 68
1, 644648, Note_off_c, 0, 86, 67
1, 644669, Note_on_c, 0, 43, 99
1, 644674, Note_on_c, 0, 31, 87
1, 644692, Note_on_c, 0, 32, 47
1, 644693, Note_off_c, 0, 43, 69
1, 644704, Note_off_c, 0, 31, 66
1, 644714, Note_off_c, 0, 32, 58
1, 644760, Note_on_c, 0, 43, 92
1, 644767, Note_on_c, 0, 31, 85
1, 644772, Note_on_c, 0, 82, 89
1, 644772, Note_on_c, 0, 74, 93
1, 644788, Note_off_c, 0, 82, 71
1, 644790, Note_off_c, 0, 74, 72
1, 644805, Note_on_c, 0, 32, 39
1, 644811, Note_on_c, 0, 86, 19
1, 644816, Note_off_c, 0, 43, 63
1, 644828, Note_off_c, 0, 31, 61
1, 644834, Note_off_c, 0, 32, 53
1, 644841, Note_on_c, 0, 74, 98
1, 644843, Note_on_c, 0, 82, 85
1, 644867, Note_off_c, 0, 86, 47
1, 644874, Note_off_c, 0, 82, 59
1, 644877, Note_off_c, 0, 74, 63
1, 644921, Note_on_c, 0, 42, 92
1, 644924, Note_on_c, 0, 30, 86
1, 644951, Note_off_c, 0, 42, 62
1, 644956, Note_off_c, 0, 30, 65
1, 645021, Note_on_c, 0, 62, 78
1, 645026, Note_on_c, 0, 42, 102
1, 645028, Note_on_c, 0, 70, 68
1, 645032, Note_on_c, 0, 30, 89
1, 645042, Note_off_c, 0, 62, 68
1, 645046, Note_off_c, 0, 70, 64
1, 645088, Note_on_c, 0, 62, 87
1, 645091, Note_off_c, 0, 42, 63
1, 645094, Note_on_c, 0, 70, 78
1, 645094, Note_on_c, 0, 74, 51
1, 645094, Note_off_c, 0, 30, 61
1, 645121, Note_off_c, 0, 74, 65
1, 645134, Note_off_c, 0, 70, 63
1, 645137, Note_off_c, 0, 62, 64
1, 645183, Note_on_c, 0, 41, 98
1, 645192, Note_on_c, 0, 29, 87
1, 645218, Note_off_c, 0, 41, 62
1, 645219, Note_on_c, 0, 30, 38
1, 645223, Note_off_c, 0, 29, 67
1, 645230, Note_on_c, 0, 34, 17
1, 645239, Note_off_c, 0, 30, 67
1, 645265, Note_on_c, 0, 58, 75
1, 645268, Note_on_c, 0, 55, 77
1, 645268, Note_on_c, 0, 62, 74
1, 645273, Note_off_c, 0, 34, 48
1, 645289, Note_on_c, 0, 41, 96
1, 645290, Note_off_c, 0, 58, 67
1, 645291, Note_on_c, 0, 29, 89
1, 645292, Note_off_c, 0, 55, 68
1, 645293, Note_off_c, 0, 62, 65
1, 645312, Note_on_c, 0, 30, 49
1, 645342, Note_on_c, 0, 55, 84
1, 645346, Note_on_c, 0, 58, 86
1, 645346, Note_on_c, 0, 62, 83
1, 645369, Note_off_c, 0, 55, 65
1, 645381, Note_off_c, 0, 41, 60
1, 645392, Note_off_c, 0, 29, 60
1, 645395, Note_off_c, 0, 30, 34
1, 645403, Note_off_c, 0, 58, 66
1, 645424, Note_off_c, 0, 62, 60
1, 645509, Note_on_c, 0, 40, 97
1, 645515, Note_on_c, 0, 28, 98
1, 645557, Note_off_c, 0, 28, 59
1, 645558, Note_off_c, 0, 40, 64
1, 645630, Note_on_c, 0, 40, 116
1, 645636, Control_c, 0, 64, 100
1, 645639, Note_on_c, 0, 28, 95
1, 645651, Control_c, 0, 64, 0
1, 645675, Note_on_c, 0, 30, 43
1, 645676, Note_off_c, 0, 30, 127
1, 645683, Note_on_c, 0, 34, 34
1, 645684, Note_off_c, 0, 34, 127
1, 645732, Control_c, 0, 64, 127
1, 645735, Note_on_c, 0, 91, 106
1, 645735, Note_on_c, 0, 86, 97
1, 645736, Note_on_c, 0, 98, 100
1, 645748, Note_off_c, 0, 28, 55
1, 645756, Note_off_c, 0, 98, 67
1, 645757, Note_off_c, 0, 86, 68
1, 645760, Note_off_c, 0, 91, 64
1, 645766, Note_off_c, 0, 40, 59
1, 645787, Note_on_c, 0, 92, 22
1, 645788, Note_off_c, 0, 92, 127
1, 645815, Note_on_c, 0, 86, 102
1, 645818, Note_on_c, 0, 91, 96
1, 645821, Note_on_c, 0, 98, 98
1, 645838, Note_off_c, 0, 98, 72
1, 645873, Note_off_c, 0, 91, 63
1, 645881, Note_off_c, 0, 86, 62
1, 645894, Note_on_c, 0, 39, 93
1, 645903, Note_on_c, 0, 27, 83
1, 645926, Note_off_c, 0, 39, 60
1, 645932, Note_off_c, 0, 27, 62
1, 645982, Control_c, 0, 64, 112
1, 645983, Poly_aftertouch_c, 0, 30, 127
1, 645989, Note_on_c, 0, 39, 107
1, 645992, Note_on_c, 0, 27, 94
1, 645997, Control_c, 0, 64, 62
1, 646012, Control_c, 0, 64, 0
1, 646043, Control_c, 0, 64, 66
1, 646056, Note_on_c, 0, 79, 94
1, 646057, Note_on_c, 0, 74, 94
1, 646058, Control_c, 0, 64, 127
1, 646070, Note_on_c, 0, 86, 68
1, 646073, Poly_aftertouch_c, 0, 30, 0
1, 646075, Note_off_c, 0, 74, 74
1, 646075, Note_off_c, 0, 79, 65
1, 646078, Note_off_c, 0, 27, 61
1, 646083, Note_off_c, 0, 39, 60
1, 646087, Note_off_c, 0, 86, 67
1, 646128, Note_on_c, 0, 74, 96
1, 646130, Note_on_c, 0, 79, 94
1, 646146, Note_on_c, 0, 86, 60
1, 646164, Note_off_c, 0, 86, 66
1, 646167, Note_off_c, 0, 79, 65
1, 646184, Note_off_c, 0, 74, 64
1, 646191, Note_on_c, 0, 39, 87
1, 646196, Note_on_c, 0, 27, 86
1, 646218, Note_off_c, 0, 39, 65
1, 646221, Note_off_c, 0, 27, 64
1, 646274, Note_on_c, 0, 39, 98
1, 646275, Note_on_c, 0, 27, 91
1, 646327, Note_on_c, 0, 67, 86
1, 646329, Note_on_c, 0, 62, 80
1, 646338, Note_off_c, 0, 27, 60
1, 646346, Note_off_c, 0, 39, 61
1, 646349, Note_off_c, 0, 62, 70
1, 646352, Note_on_c, 0, 74, 49
1, 646352, Note_off_c, 0, 67, 64
1, 646372, Note_off_c, 0, 74, 65
1, 646380, Poly_aftertouch_c, 0, 30, 0
1, 646400, Note_on_c, 0, 62, 93
1, 646415, Note_on_c, 0, 67, 87
1, 646427, Note_on_c, 0, 74, 70
1, 646444, Note_off_c, 0, 74, 68
1, 646453, Note_off_c, 0, 62, 60
1, 646458, Note_off_c, 0, 67, 61
1, 646483, Note_on_c, 0, 39, 100
1, 646486, Note_on_c, 0, 27, 92
1, 646508, Note_on_c, 0, 30, 48
1, 646509, Note_off_c, 0, 30, 127
1, 646513, Note_off_c, 0, 27, 71
1, 646514, Note_off_c, 0, 39, 63
1, 646550, Poly_aftertouch_c, 0, 30, 0
1, 646582, Note_on_c, 0, 39, 108
1, 646585, Note_on_c, 0, 27, 96
1, 646630, Note_on_c, 0, 55, 78
1, 646635, Note_on_c, 0, 50, 72
1, 646656, Note_off_c, 0, 50, 66
1, 646658, Note_on_c, 0, 62, 38
1, 646661, Note_off_c, 0, 55, 65
1, 646683, Note_off_c, 0, 62, 58
1, 646684, Note_off_c, 0, 39, 52
1, 646689, Note_off_c, 0, 27, 58
1, 646705, Note_on_c, 0, 50, 92
1, 646718, Note_on_c, 0, 55, 66
1, 646720, Note_on_c, 0, 62, 65
1, 646737, Note_off_c, 0, 50, 62
1, 646745, Note_off_c, 0, 55, 66
1, 646753, Note_off_c, 0, 62, 63
1, 646813, Note_on_c, 0, 39, 91
1, 646814, Note_on_c, 0, 27, 86
1, 646868, Note_off_c, 0, 39, 58
1, 646876, Note_off_c, 0, 27, 61
1, 646966, Note_on_c, 0, 54, 109
1, 646969, Control_c, 0, 64, 97
1, 646972, Note_on_c, 0, 38, 114
1, 646973, Note_on_c, 0, 62, 89
1, 646975, Note_on_c, 0, 66, 93
1, 646978, Note_on_c, 0, 26, 95
1, 646984, Control_c, 0, 64, 0
1, 646990, Note_on_c, 0, 56, 64
1, 646991, Note_off_c, 0, 56, 127
1, 646997, Note_on_c, 0, 27, 58
1, 647017, Note_off_c, 0, 27, 70
1, 647032, Note_on_c, 0, 32, 8
1, 647033, Note_off_c, 0, 32, 127
1, 647088, Poly_aftertouch_c, 0, 32, 0
1, 647094, Note_off_c, 0, 26, 59
1, 647102, Control_c, 0, 64, 69
1, 647117, Control_c, 0, 64, 127
1, 647148, Note_off_c, 0, 54, 66
1, 647151, Poly_aftertouch_c, 0, 27, 127
1, 647161, Note_off_c, 0, 38, 58
1, 647197, Poly_aftertouch_c, 0, 27, 0
1, 647202, Note_off_c, 0, 62, 55
1, 647228, Note_off_c, 0, 66, 61
1, 647491, Note_on_c, 0, 62, 79
1, 647494, Note_on_c, 0, 66, 77
1, 647495, Note_on_c, 0, 57, 68
1, 647497, Note_on_c, 0, 54, 70
1, 647497, Note_on_c, 0, 74, 73
1, 647504, Note_on_c, 0, 69, 62
1, 647513, Note_off_c, 0, 62, 67
1, 647516, Note_off_c, 0, 54, 72
1, 647516, Note_off_c, 0, 66, 66
1, 647521, Note_off_c, 0, 74, 70
1, 647527, Note_off_c, 0, 57, 62
1, 647531, Note_off_c, 0, 69, 66
1, 647555, Poly_aftertouch_c, 0, 50, 127
1, 647562, Note_on_c, 0, 66, 92
1, 647565, Note_on_c, 0, 54, 85
1, 647566, Note_on_c, 0, 62, 92
1, 647568, Note_on_c, 0, 78, 68
1, 647571, Note_on_c, 0, 74, 79
1, 647574, Note_on_c, 0, 57, 79
1, 647577, Note_on_c, 0, 69, 81
1, 647584, Note_off_c, 0, 66, 66
1, 647598, Note_off_c, 0, 69, 71
1, 647601, Note_off_c, 0, 57, 63
1, 647602, Poly_aftertouch_c, 0, 50, 0
1, 647607, Note_off_c, 0, 54, 67
1, 647613, Note_off_c, 0, 62, 62
1, 647617, Note_off_c, 0, 74, 66
1, 647631, Note_off_c, 0, 78, 66
1, 647803, Note_on_c, 0, 68, 3
1, 647854, Note_on_c, 0, 74, 107
1, 647857, Note_on_c, 0, 66, 85
1, 647858, Note_on_c, 0, 69, 88
1, 647860, Note_on_c, 0, 78, 101
1, 647862, Note_on_c, 0, 86, 89
1, 647863, Note_on_c, 0, 81, 74
1, 647869, Note_on_c, 0, 62, 64
1, 647870, Note_on_c, 0, 90, 75
1, 647882, Note_off_c, 0, 74, 64
1, 647882, Note_off_c, 0, 68, 34
1, 647884, Note_off_c, 0, 86, 68
1, 647884, Note_off_c, 0, 81, 69
1, 647886, Note_off_c, 0, 90, 67
1, 647899, Note_off_c, 0, 78, 67
1, 647908, Note_off_c, 0, 69, 65
1, 647914, Note_off_c, 0, 66, 61
1, 647918, Note_on_c, 0, 85, 4
1, 647919, Note_off_c, 0, 85, 127
1, 647920, Note_off_c, 0, 62, 63
1, 648154, Note_on_c, 0, 48, 104
1, 648155, Control_c, 0, 64, 68
1, 648156, Note_on_c, 0, 55, 103
1, 648158, Note_on_c, 0, 43, 91
1, 648158, Note_on_c, 0, 64, 91
1, 648158, Note_on_c, 0, 67, 89
1, 648161, Note_on_c, 0, 60, 83
1, 648162, Note_on_c, 0, 40, 88
1, 648164, Note_on_c, 0, 36, 89
1, 648170, Control_c, 0, 64, 0
1, 648244, Control_c, 0, 64, 63
1, 648245, Note_off_c, 0, 55, 62
1, 648248, Note_off_c, 0, 36, 60
1, 648258, Control_c, 0, 64, 127
1, 648259, Note_off_c, 0, 67, 54
1, 648278, Note_off_c, 0, 60, 59
1, 648281, Note_off_c, 0, 48, 55
1, 648290, Note_off_c, 0, 40, 61
1, 648290, Note_off_c, 0, 43, 62
1, 648302, Note_off_c, 0, 64, 50
1, 648626, Note_on_c, 0, 60, 71
1, 648626, Note_on_c, 0, 64, 76
1, 648630, Note_on_c, 0, 55, 68
1, 648630, Note_on_c, 0, 67, 81
1, 648638, Note_on_c, 0, 76, 64
1, 648641, Note_on_c, 0, 72, 66
1, 648657, Note_off_c, 0, 67, 70
1, 648657, Note_off_c, 0, 64, 70
1, 648665, Note_on_c, 0, 79, 35
1, 648665, Note_off_c, 0, 55, 65
1, 648671, Note_off_c, 0, 60, 65
1, 648672, Note_off_c, 0, 76, 67
1, 648674, Note_off_c, 0, 72, 68
1, 648700, Note_off_c, 0, 79, 0
1, 648702, Poly_aftertouch_c, 0, 52, 127
1, 648707, Note_on_c, 0, 64, 103
1, 648708, Note_on_c, 0, 60, 75
1, 648710, Note_on_c, 0, 52, 16
1, 648713, Note_on_c, 0, 55, 90
1, 648713, Note_on_c, 0, 67, 96
1, 648715, Note_on_c, 0, 79, 65
1, 648720, Note_on_c, 0, 72, 86
1, 648721, Note_on_c, 0, 76, 87
1, 648730, Note_off_c, 0, 67, 69
1, 648745, Note_off_c, 0, 52, 55
1, 648747, Note_off_c, 0, 55, 61
1, 648747, Note_off_c, 0, 72, 65
1, 648755, Note_off_c, 0, 60, 65
1, 648767, Note_off_c, 0, 64, 61
1, 648767, Note_off_c, 0, 76, 65
1, 648776, Note_off_c, 0, 79, 64
1, 648987, Note_on_c, 0, 76, 95
1, 648990, Note_on_c, 0, 79, 104
1, 648991, Note_on_c, 0, 88, 91
1, 648992, Note_on_c, 0, 84, 85
1, 648993, Note_on_c, 0, 67, 82
1, 648993, Note_on_c, 0, 72, 85
1, 648999, Note_on_c, 0, 91, 86
1, 649000, Note_on_c, 0, 64, 73
1, 649004, Note_off_c, 0, 76, 72
1, 649009, Note_off_c, 0, 84, 72
1, 649012, Note_off_c, 0, 91, 70
1, 649017, Note_off_c, 0, 88, 61
1, 649026, Note_off_c, 0, 72, 62
1, 649028, Note_off_c, 0, 79, 65
1, 649039, Note_off_c, 0, 67, 63
1, 649044, Note_off_c, 0, 64, 62
1, 649097, Poly_aftertouch_c, 0, 73, 0
1, 649276, Control_c, 0, 64, 68
1, 649285, Note_on_c, 0, 46, 116
1, 649285, Note_on_c, 0, 58, 106
1, 649291, Control_c, 0, 64, 0
1, 649294, Note_on_c, 0, 70, 90
1, 649296, Note_on_c, 0, 38, 82
1, 649297, Note_on_c, 0, 34, 80
1, 649299, Note_on_c, 0, 62, 71
1, 649300, Note_on_c, 0, 65, 76
1, 649302, Note_on_c, 0, 41, 73
1, 649312, Note_on_c, 0, 40, 57
1, 649321, Note_on_c, 0, 68, 51
1, 649328, Note_off_c, 0, 34, 67
1, 649339, Note_off_c, 0, 40, 59
1, 649342, Note_off_c, 0, 46, 63
1, 649343, Note_off_c, 0, 58, 68
1, 649345, Note_off_c, 0, 41, 63
1, 649345, Note_off_c, 0, 68, 60
1, 649348, Note_off_c, 0, 38, 62
1, 649348, Note_off_c, 0, 70, 66
1, 649350, Control_c, 0, 64, 36
1, 649354, Note_off_c, 0, 62, 58
1, 649359, Note_off_c, 0, 65, 58
1, 649365, Control_c, 0, 64, 127
1, 649750, Note_on_c, 0, 62, 74
1, 649752, Note_on_c, 0, 70, 81
1, 649754, Note_on_c, 0, 58, 67
1, 649762, Note_on_c, 0, 65, 60
1, 649763, Note_on_c, 0, 82, 64
1, 649765, Note_on_c, 0, 74, 63
1, 649771, Note_on_c, 0, 77, 51
1, 649771, Note_off_c, 0, 70, 70
1, 649776, Note_off_c, 0, 58, 68
1, 649780, Note_off_c, 0, 65, 66
1, 649781, Note_off_c, 0, 62, 64
1, 649782, Note_off_c, 0, 82, 63
1, 649792, Note_off_c, 0, 74, 67
1, 649798, Note_off_c, 0, 77, 65
1, 649821, Poly_aftertouch_c, 0, 62, 0
1, 649822, Note_on_c, 0, 70, 97
1, 649824, Note_on_c, 0, 53, 68
1, 649825, Note_on_c, 0, 62, 74
1, 649825, Note_on_c, 0, 65, 98
1, 649828, Note_on_c, 0, 58, 91
1, 649836, Note_on_c, 0, 82, 88
1, 649842, Note_on_c, 0, 74, 77
1, 649843, Note_on_c, 0, 77, 66
1, 649850, Note_off_c, 0, 53, 67
1, 649853, Note_off_c, 0, 70, 64
1, 649861, Note_off_c, 0, 62, 63
1, 649863, Note_off_c, 0, 74, 72
1, 649866, Note_off_c, 0, 65, 63
1, 649867, Note_off_c, 0, 58, 58
1, 649867, Note_off_c, 0, 77, 70
1, 649893, Note_off_c, 0, 82, 66
1, 650027, Note_on_c, 0, 73, 38
1, 650058, Note_off_c, 0, 73, 54
1, 650111, Note_on_c, 0, 74, 93
1, 650111, Note_on_c, 0, 77, 101
1, 650114, Note_on_c, 0, 82, 101
1, 650116, Note_on_c, 0, 70, 84
1, 650120, Note_on_c, 0, 65, 72
1, 650121, Note_on_c, 0, 89, 83
1, 650122, Note_on_c, 0, 86, 72
1, 650124, Note_on_c, 0, 94, 78
1, 650140, Note_off_c, 0, 77, 61
1, 650142, Note_off_c, 0, 86, 71
1, 650142, Note_off_c, 0, 89, 68
1, 650143, Note_off_c, 0, 94, 74
1, 650159, Note_off_c, 0, 74, 67
1, 650163, Note_on_c, 0, 92, 36
1, 650163, Note_off_c, 0, 82, 69
1, 650177, Note_off_c, 0, 70, 63
1, 650178, Note_off_c, 0, 65, 62
1, 650194, Note_off_c, 0, 92, 50
1, 650445, Note_on_c, 0, 60, 106
1, 650445, Note_on_c, 0, 44, 114
1, 650446, Control_c, 0, 64, 80
1, 650449, Note_on_c, 0, 63, 94
1, 650449, Note_on_c, 0, 72, 93
1, 650451, Note_on_c, 0, 68, 88
1, 650456, Note_on_c, 0, 32, 79
1, 650460, Note_on_c, 0, 36, 84
1, 650460, Control_c, 0, 64, 0
1, 650463, Note_on_c, 0, 40, 70
1, 650464, Note_on_c, 0, 37, 50
1, 650475, Note_on_c, 0, 70, 52
1, 650486, Note_off_c, 0, 60, 67
1, 650488, Note_off_c, 0, 32, 66
1, 650493, Note_off_c, 0, 72, 65
1, 650499, Note_off_c, 0, 70, 60
1, 650500, Note_off_c, 0, 36, 60
1, 650503, Note_off_c, 0, 68, 64
1, 650504, Note_off_c, 0, 40, 66
1, 650505, Note_off_c, 0, 44, 62
1, 650506, Note_off_c, 0, 63, 64
1, 650507, Note_off_c, 0, 37, 50
1, 650520, Control_c, 0, 64, 127
1, 650561, Poly_aftertouch_c, 0, 39, 0
1, 650956, Note_on_c, 0, 68, 89
1, 650961, Note_on_c, 0, 63, 75
1, 650961, Note_on_c, 0, 60, 70
1, 650966, Note_on_c, 0, 72, 88
1, 650967, Note_on_c, 0, 80, 79
1, 650969, Note_on_c, 0, 75, 76
1, 650975, Note_on_c, 0, 84, 67
1, 650979, Note_on_c, 0, 56, 52
1, 650980, Note_off_c, 0, 68, 64
1, 650984, Note_off_c, 0, 72, 70
1, 650991, Note_off_c, 0, 63, 61
1, 650996, Note_off_c, 0, 75, 63
1, 650997, Note_off_c, 0, 84, 67
1, 650998, Note_off_c, 0, 60, 57
1, 651004, Note_off_c, 0, 56, 60
1, 651005, Note_off_c, 0, 80, 58
1, 651045, Note_on_c, 0, 72, 100
1, 651046, Poly_aftertouch_c, 0, 80, 0
1, 651047, Note_on_c, 0, 84, 92
1, 651049, Note_on_c, 0, 68, 95
1, 651051, Note_on_c, 0, 80, 75
1, 651052, Note_on_c, 0, 60, 69
1, 651053, Note_on_c, 0, 75, 86
1, 651055, Note_on_c, 0, 63, 76
1, 651056, Note_on_c, 0, 56, 57
1, 651074, Note_off_c, 0, 60, 70
1, 651077, Note_off_c, 0, 72, 62
1, 651081, Note_off_c, 0, 56, 59
1, 651086, Note_off_c, 0, 63, 59
1, 651090, Note_off_c, 0, 80, 66
1, 651092, Note_off_c, 0, 75, 63
1, 651098, Note_off_c, 0, 68, 63
1, 651100, Note_off_c, 0, 84, 66
1, 651361, Note_on_c, 0, 80, 98
1, 651364, Note_on_c, 0, 84, 99
1, 651367, Note_on_c, 0, 87, 100
1, 651367, Note_on_c, 0, 92, 95
1, 651369, Note_on_c, 0, 75, 85
1, 651369, Note_on_c, 0, 72, 83
1, 651369, Note_on_c, 0, 96, 94
1, 651375, Note_on_c, 0, 68, 77
1, 651386, Note_off_c, 0, 96, 73
1, 651393, Note_on_c, 0, 94, 52
1, 651396, Note_off_c, 0, 80, 67
1, 651402, Note_off_c, 0, 84, 70
1, 651406, Note_off_c, 0, 92, 68
1, 651411, Note_off_c, 0, 72, 63
1, 651412, Note_off_c, 0, 87, 65
1, 651414, Note_off_c, 0, 68, 50
1, 651414, Note_off_c, 0, 75, 62
1, 651414, Note_off_c, 0, 94, 61
1, 651816, Note_on_c, 0, 61, 110
1, 651817, Note_on_c, 0, 42, 111
1, 651822, Note_on_c, 0, 37, 89
1, 651822, Note_on_c, 0, 73, 99
1, 651823, Note_on_c, 0, 70, 92
1, 651827, Note_on_c, 0, 34, 84
1, 651827, Note_on_c, 0, 66, 84
1, 651828, Note_on_c, 0, 30, 90
1, 651855, Control_c, 0, 64, 106
1, 651866, Note_on_c, 0, 63, 27
1, 651870, Control_c, 0, 64, 63
1, 651882, Note_on_c, 0, 32, 19
1, 651885, Control_c, 0, 64, 0
1, 651887, Note_off_c, 0, 63, 37
1, 651930, Note_off_c, 0, 32, 28
1, 651938, Note_off_c, 0, 30, 62
1, 651974, Control_c, 0, 64, 79
1, 651989, Control_c, 0, 64, 127
1, 651996, Note_off_c, 0, 34, 56
1, 652003, Note_off_c, 0, 37, 54
1, 652006, Note_off_c, 0, 42, 54
1, 652049, Note_off_c, 0, 61, 58
1, 652087, Note_off_c, 0, 66, 49
1, 652130, Note_off_c, 0, 70, 57
1, 652147, Note_off_c, 0, 73, 57
1, 652544, Note_on_c, 0, 70, 98
1, 652546, Note_on_c, 0, 66, 81
1, 652549, Note_on_c, 0, 73, 108
1, 652553, Note_on_c, 0, 61, 75
1, 652557, Note_on_c, 0, 82, 87
1, 652564, Note_on_c, 0, 85, 73
1, 652564, Note_on_c, 0, 78, 72
1, 652566, Note_on_c, 0, 58, 56
1, 652582, Note_off_c, 0, 70, 64
1, 652586, Note_off_c, 0, 61, 64
1, 652586, Note_off_c, 0, 78, 71
1, 652586, Note_off_c, 0, 85, 69
1, 652589, Note_off_c, 0, 73, 62
1, 652591, Note_off_c, 0, 58, 60
1, 652591, Note_off_c, 0, 66, 62
1, 652598, Note_off_c, 0, 82, 59
1, 652633, Note_on_c, 0, 73, 103
1, 652637, Poly_aftertouch_c, 0, 82, 0
1, 652642, Note_on_c, 0, 70, 103
1, 652643, Note_on_c, 0, 82, 82
1, 652645, Note_on_c, 0, 85, 94
1, 652645, Note_on_c, 0, 66, 83
1, 652647, Note_on_c, 0, 61, 80
1, 652650, Note_on_c, 0, 58, 76
1, 652653, Note_on_c, 0, 78, 82
1, 652671, Note_off_c, 0, 58, 69
1, 652678, Note_off_c, 0, 73, 65
1, 652686, Note_off_c, 0, 85, 64
1, 652689, Note_off_c, 0, 82, 66
1, 652690, Note_off_c, 0, 70, 64
1, 652691, Note_off_c, 0, 61, 62
1, 652692, Note_off_c, 0, 66, 63
1, 652700, Note_off_c, 0, 78, 63
1, 653125, Note_on_c, 0, 85, 113
1, 653129, Note_on_c, 0, 70, 81
1, 653130, Note_on_c, 0, 82, 102
1, 653131, Note_on_c, 0, 78, 94
1, 653131, Note_on_c, 0, 90, 95
1, 653131, Note_on_c, 0, 94, 102
1, 653134, Note_on_c, 0, 97, 102
1, 653136, Note_on_c, 0, 73, 86
1, 653157, Note_on_c, 0, 80, 68
1, 653175, Note_off_c, 0, 80, 66
1, 653183, Note_off_c, 0, 82, 67
1, 653187, Note_off_c, 0, 70, 64
1, 653187, Note_off_c, 0, 78, 64
1, 653194, Note_off_c, 0, 73, 63
1, 653268, Note_off_c, 0, 97, 63
1, 653280, Note_off_c, 0, 85, 53
1, 653312, Note_off_c, 0, 94, 57
1, 653314, Note_off_c, 0, 90, 57
1, 655184, Note_on_c, 0, 61, 96
1, 655190, Note_on_c, 0, 73, 84
1, 655193, Note_on_c, 0, 49, 96
1, 655214, Note_off_c, 0, 61, 63
1, 655217, Note_off_c, 0, 49, 69
1, 655217, Note_off_c, 0, 73, 63
1, 655257, Note_on_c, 0, 49, 99
1, 655261, Note_on_c, 0, 61, 99
1, 655265, Note_on_c, 0, 73, 98
1, 655301, Note_off_c, 0, 49, 66
1, 655711, Note_off_c, 0, 73, 51
1, 655832, Note_off_c, 0, 61, 49
1, 656436, Note_on_c, 0, 42, 91
1, 656448, Note_on_c, 0, 54, 93
1, 656456, Note_on_c, 0, 66, 78
1, 656475, Note_off_c, 0, 42, 64
1, 656476, Note_off_c, 0, 54, 64
1, 656481, Note_off_c, 0, 66, 65
1, 656517, Note_on_c, 0, 42, 92
1, 656519, Note_on_c, 0, 54, 95
1, 656525, Note_on_c, 0, 66, 85
1, 656749, Control_c, 0, 64, 122
1, 656763, Control_c, 0, 64, 107
1, 656778, Control_c, 0, 64, 100
1, 656793, Control_c, 0, 64, 94
1, 656808, Control_c, 0, 64, 90
1, 656822, Control_c, 0, 64, 86
1, 656837, Control_c, 0, 64, 82
1, 656852, Control_c, 0, 64, 79
1, 656867, Control_c, 0, 64, 76
1, 656882, Control_c, 0, 64, 73
1, 656904, Control_c, 0, 64, 70
1, 656919, Control_c, 0, 64, 69
1, 656934, Control_c, 0, 64, 66
1, 656948, Control_c, 0, 64, 63
1, 656963, Control_c, 0, 64, 46
1, 656978, Control_c, 0, 64, 0
1, 657022, Control_c, 0, 64, 76
1, 657037, Control_c, 0, 64, 127
1, 657412, Note_off_c, 0, 66, 49
1, 657437, Note_off_c, 0, 54, 57
1, 657461, Note_off_c, 0, 42, 57
1, 657516, Note_on_c, 0, 54, 102
1, 657520, Note_on_c, 0, 66, 91
1, 657521, Note_on_c, 0, 42, 86
1, 657522, Note_on_c, 0, 47, 93
1, 657523, Note_on_c, 0, 59, 86
1, 657527, Note_on_c, 0, 38, 84
1, 657531, Note_on_c, 0, 62, 76
1, 657533, Note_on_c, 0, 35, 75
1, 657586, Control_c, 0, 64, 108
1, 657601, Control_c, 0, 64, 77
1, 657616, Control_c, 0, 64, 0
1, 657786, Control_c, 0, 64, 71
1, 657801, Control_c, 0, 64, 109
1, 657816, Control_c, 0, 64, 127
1, 657902, Note_off_c, 0, 42, 57
1, 657924, Note_off_c, 0, 47, 56
1, 657937, Note_off_c, 0, 38, 51
1, 658013, Note_off_c, 0, 54, 52
1, 658062, Note_off_c, 0, 35, 47
1, 658211, Note_off_c, 0, 59, 18
1, 658301, Note_off_c, 0, 66, 16
1, 658355, Note_off_c, 0, 62, 10
1, 658647, Note_on_c, 0, 59, 101
1, 658650, Note_on_c, 0, 38, 89
1, 658650, Note_on_c, 0, 43, 99
1, 658650, Note_on_c, 0, 62, 85
1, 658650, Note_on_c, 0, 71, 92
1, 658651, Note_on_c, 0, 67, 89
1, 658655, Note_on_c, 0, 35, 79
1, 658657, Note_on_c, 0, 31, 84
1, 658726, Control_c, 0, 64, 117
1, 658741, Control_c, 0, 64, 83
1, 658756, Control_c, 0, 64, 60
1, 658771, Control_c, 0, 64, 0
1, 658905, Control_c, 0, 64, 40
1, 658920, Control_c, 0, 64, 63
1, 658935, Control_c, 0, 64, 77
1, 658950, Control_c, 0, 64, 100
1, 658965, Control_c, 0, 64, 127
1, 659194, Poly_aftertouch_c, 0, 65, 127
1, 659272, Note_off_c, 0, 38, 33
1, 659292, Note_off_c, 0, 43, 53
1, 659316, Note_off_c, 0, 62, 24
1, 659326, Poly_aftertouch_c, 0, 64, 127
1, 659353, Note_off_c, 0, 71, 26
1, 659417, Note_off_c, 0, 35, 34
1, 659453, Note_off_c, 0, 31, 32
1, 659484, Poly_aftertouch_c, 0, 64, 0
1, 659575, Poly_aftertouch_c, 0, 65, 0
1, 659781, Note_off_c, 0, 59, 6
1, 659798, Note_off_c, 0, 67, 19
1, 659944, Note_on_c, 0, 35, 90
1, 659945, Note_on_c, 0, 59, 107
1, 659946, Note_on_c, 0, 64, 90
1, 659948, Note_on_c, 0, 40, 95
1, 659949, Note_on_c, 0, 71, 93
1, 659951, Note_on_c, 0, 67, 87
1, 659951, Note_on_c, 0, 31, 85
1, 659954, Note_on_c, 0, 28, 86
1, 660061, Control_c, 0, 64, 83
1, 660076, Control_c, 0, 64, 58
1, 660091, Control_c, 0, 64, 0
1, 660625, Control_c, 0, 64, 56
1, 660648, Control_c, 0, 64, 71
1, 660662, Control_c, 0, 64, 89
1, 660677, Control_c, 0, 64, 127
1, 660752, Note_off_c, 0, 35, 55
1, 660835, Note_off_c, 0, 59, 36
1, 660911, Note_off_c, 0, 31, 34
1, 661024, Note_off_c, 0, 28, 54
1, 661060, Note_off_c, 0, 71, 31
1, 661088, Note_off_c, 0, 64, 48
1, 661128, Note_off_c, 0, 67, 46
1, 661457, Note_off_c, 0, 40, 29
1, 661532, Note_on_c, 0, 66, 113
1, 661533, Note_on_c, 0, 33, 93
1, 661533, Note_on_c, 0, 69, 87
1, 661534, Note_on_c, 0, 74, 94
1, 661537, Note_on_c, 0, 30, 89
1, 661538, Note_on_c, 0, 26, 87
1, 661541, Note_on_c, 0, 78, 98
1, 661566, Note_on_c, 0, 73, 43
1, 661589, Control_c, 0, 64, 106
1, 661604, Control_c, 0, 64, 74
1, 661618, Control_c, 0, 64, 0
1, 661661, Note_off_c, 0, 73, 31
1, 661678, Control_c, 0, 64, 65
1, 661692, Control_c, 0, 64, 85
1, 661707, Control_c, 0, 64, 127
1, 661819, Note_off_c, 0, 30, 34
1, 661832, Note_on_c, 0, 38, 46
1, 661835, Note_off_c, 0, 26, 33
1, 661846, Note_off_c, 0, 33, 36
1, 661906, Note_off_c, 0, 38, 50
1, 661942, Note_on_c, 0, 26, 28
1, 661951, Note_on_c, 0, 30, 44
1, 661978, Note_on_c, 0, 33, 3
1, 661979, Note_off_c, 0, 30, 62
1, 661996, Note_off_c, 0, 26, 47
1, 661999, Note_on_c, 0, 38, 52
1, 662002, Note_off_c, 0, 33, 54
1, 662055, Note_off_c, 0, 38, 60
1, 662067, Note_on_c, 0, 30, 49
1, 662102, Note_on_c, 0, 26, 13
1, 662116, Note_off_c, 0, 30, 54
1, 662137, Note_off_c, 0, 26, 59
1, 662138, Note_on_c, 0, 38, 57
1, 662142, Note_on_c, 0, 33, 12
1, 662184, Note_off_c, 0, 33, 45
1, 662199, Note_off_c, 0, 38, 56
1, 662210, Note_on_c, 0, 26, 45
1, 662234, Note_off_c, 0, 26, 60
1, 662240, Note_on_c, 0, 38, 46
1, 662264, Poly_aftertouch_c, 0, 30, 127
1, 662291, Poly_aftertouch_c, 0, 33, 127
1, 662308, Note_on_c, 0, 26, 59
1, 662309, Note_off_c, 0, 38, 61
1, 662345, Note_off_c, 0, 26, 57
1, 662351, Note_on_c, 0, 38, 46
1, 662377, Poly_aftertouch_c, 0, 30, 0
1, 662404, Note_on_c, 0, 30, 40
1, 662404, Poly_aftertouch_c, 0, 33, 0
1, 662410, Note_off_c, 0, 38, 60
1, 662419, Note_on_c, 0, 26, 48
1, 662421, Note_on_c, 0, 33, 30
1, 662443, Note_off_c, 0, 30, 58
1, 662455, Note_on_c, 0, 38, 54
1, 662455, Note_off_c, 0, 26, 54
1, 662465, Note_off_c, 0, 33, 48
1, 662502, Note_off_c, 0, 38, 60
1, 662509, Note_on_c, 0, 26, 59
1, 662513, Note_on_c, 0, 30, 59
1, 662518, Note_on_c, 0, 33, 31
1, 662543, Note_off_c, 0, 26, 62
1, 662543, Note_off_c, 0, 30, 63
1, 662550, Note_on_c, 0, 38, 61
1, 662553, Note_off_c, 0, 33, 53
1, 662593, Note_off_c, 0, 38, 60
1, 662607, Note_on_c, 0, 30, 71
1, 662608, Note_on_c, 0, 26, 61
1, 662616, Note_on_c, 0, 33, 43
1, 662637, Note_on_c, 0, 38, 67
1, 662641, Note_off_c, 0, 26, 59
1, 662644, Note_off_c, 0, 30, 60
1, 662649, Note_off_c, 0, 33, 61
1, 662693, Note_off_c, 0, 38, 63
1, 662703, Note_on_c, 0, 33, 53
1, 662704, Note_on_c, 0, 30, 67
1, 662727, Poly_aftertouch_c, 0, 38, 0
1, 662732, Note_off_c, 0, 78, 59
1, 662736, Note_on_c, 0, 38, 62
1, 662736, Note_off_c, 0, 33, 62
1, 662744, Note_off_c, 0, 30, 61
1, 662749, Note_off_c, 0, 74, 55
1, 662750, Note_off_c, 0, 66, 54
1, 662759, Note_off_c, 0, 69, 54
1, 662760, Poly_aftertouch_c, 0, 26, 127
1, 662778, Note_on_c, 0, 26, 12
1, 662796, Note_off_c, 0, 38, 62
1, 662817, Note_on_c, 0, 33, 49
1, 662829, Poly_aftertouch_c, 0, 38, 0
1, 662830, Note_off_c, 0, 26, 55
1, 662838, Note_on_c, 0, 30, 27
1, 662839, Note_on_c, 0, 38, 58
1, 662848, Note_off_c, 0, 33, 55
1, 662902, Note_on_c, 0, 26, 52
1, 662905, Note_off_c, 0, 38, 62
1, 662906, Note_off_c, 0, 30, 0
1, 662906, Note_on_c, 0, 30, 37
1, 662920, Note_on_c, 0, 33, 37
1, 662940, Note_off_c, 0, 26, 58
1, 662944, Note_off_c, 0, 30, 61
1, 662945, Note_on_c, 0, 38, 56
1, 662957, Note_off_c, 0, 33, 51
1, 663001, Note_off_c, 0, 38, 62
1, 663006, Note_on_c, 0, 26, 51
1, 663015, Note_on_c, 0, 30, 60
1, 663018, Note_on_c, 0, 33, 40
1, 663042, Note_off_c, 0, 26, 54
1, 663046, Note_on_c, 0, 38, 64
1, 663046, Note_off_c, 0, 30, 63
1, 663055, Note_off_c, 0, 33, 54
1, 663101, Note_off_c, 0, 38, 62
1, 663111, Note_on_c, 0, 30, 68
1, 663122, Note_on_c, 0, 26, 43
1, 663123, Note_on_c, 0, 33, 40
1, 663141, Poly_aftertouch_c, 0, 38, 0
1, 663149, Note_off_c, 0, 30, 53
1, 663149, Note_on_c, 0, 38, 68
1, 663152, Note_off_c, 0, 26, 55
1, 663156, Note_off_c, 0, 33, 60
1, 663197, Note_on_c, 0, 26, 60
1, 663207, Note_off_c, 0, 38, 61
1, 663216, Note_on_c, 0, 30, 56
1, 663224, Note_on_c, 0, 33, 46
1, 663234, Note_off_c, 0, 26, 61
1, 663247, Note_on_c, 0, 38, 62
1, 663248, Note_off_c, 0, 30, 63
1, 663257, Note_off_c, 0, 33, 61
1, 663307, Note_on_c, 0, 26, 61
1, 663307, Note_off_c, 0, 38, 61
1, 663316, Note_on_c, 0, 30, 67
1, 663331, Note_on_c, 0, 33, 33
1, 663343, Note_off_c, 0, 30, 64
1, 663350, Note_off_c, 0, 26, 60
1, 663355, Note_on_c, 0, 38, 62
1, 663368, Note_off_c, 0, 33, 52
1, 663418, Note_off_c, 0, 38, 61
1, 663440, Note_on_c, 0, 30, 54
1, 663445, Note_on_c, 0, 26, 38
1, 663449, Note_on_c, 0, 33, 35
1, 663472, Note_off_c, 0, 26, 58
1, 663472, Note_off_c, 0, 30, 63
1, 663478, Note_on_c, 0, 38, 61
1, 663497, Note_off_c, 0, 33, 46
1, 663545, Note_off_c, 0, 38, 60
1, 663561, Note_on_c, 0, 30, 47
1, 663570, Note_on_c, 0, 26, 38
1, 663591, Note_off_c, 0, 30, 57
1, 663600, Note_on_c, 0, 38, 61
1, 663662, Note_off_c, 0, 26, 0
1, 663677, Note_on_c, 0, 26, 41
1, 663680, Note_off_c, 0, 38, 60
1, 663697, Note_on_c, 0, 30, 50
1, 663732, Note_on_c, 0, 38, 58
1, 663734, Note_off_c, 0, 26, 57
1, 663746, Note_off_c, 0, 30, 46
1, 663755, Poly_aftertouch_c, 0, 33, 127
1, 663819, Note_off_c, 0, 38, 60
1, 663822, Note_on_c, 0, 26, 51
1, 663846, Note_on_c, 0, 30, 46
1, 663861, Note_on_c, 0, 38, 57
1, 663878, Note_off_c, 0, 30, 55
1, 663883, Note_off_c, 0, 26, 57
1, 663955, Poly_aftertouch_c, 0, 33, 0
1, 663959, Note_on_c, 0, 26, 42
1, 663960, Note_off_c, 0, 38, 57
1, 663964, Note_on_c, 0, 30, 58
1, 663972, Note_on_c, 0, 33, 29
1, 663992, Note_on_c, 0, 38, 45
1, 664008, Note_off_c, 0, 26, 57
1, 664012, Note_off_c, 0, 30, 56
1, 664069, Note_off_c, 0, 33, 35
1, 664115, Note_on_c, 0, 26, 56
1, 664118, Note_on_c, 0, 33, 40
1, 664124, Note_on_c, 0, 30, 57
1, 664130, Note_on_c, 0, 57, 98
1, 664132, Note_on_c, 0, 62, 88
1, 664133, Note_on_c, 0, 69, 90
1, 664135, Note_off_c, 0, 38, 41
1, 664163, Note_off_c, 0, 57, 64
1, 664165, Note_off_c, 0, 30, 59
1, 664167, Note_off_c, 0, 69, 59
1, 664170, Note_off_c, 0, 62, 57
1, 664171, Note_off_c, 0, 26, 58
1, 664172, Note_on_c, 0, 38, 57
1, 664183, Note_off_c, 0, 33, 57
1, 664218, Note_on_c, 0, 57, 98
1, 664220, Note_on_c, 0, 69, 90
1, 664223, Note_on_c, 0, 62, 85
1, 664252, Note_off_c, 0, 38, 61
1, 664257, Note_on_c, 0, 26, 57
1, 664261, Note_on_c, 0, 33, 43
1, 664264, Note_on_c, 0, 30, 58
1, 664296, Note_on_c, 0, 38, 56
1, 664297, Note_off_c, 0, 26, 59
1, 664300, Note_off_c, 0, 30, 61
1, 664307, Note_off_c, 0, 33, 58
1, 664339, Control_c, 0, 64, 91
1, 664354, Control_c, 0, 64, 72
1, 664369, Control_c, 0, 64, 0
1, 664388, Note_on_c, 0, 26, 50
1, 664389, Note_off_c, 0, 38, 60
1, 664397, Note_on_c, 0, 30, 57
1, 664422, Control_c, 0, 64, 55
1, 664436, Control_c, 0, 64, 69
1, 664438, Note_off_c, 0, 26, 60
1, 664438, Note_off_c, 0, 30, 61
1, 664441, Note_on_c, 0, 33, 14
1, 664448, Note_on_c, 0, 38, 63
1, 664451, Control_c, 0, 64, 81
1, 664467, Control_c, 0, 64, 101
1, 664482, Control_c, 0, 64, 127
1, 664521, Note_off_c, 0, 33, 0
1, 664521, Note_off_c, 0, 38, 60
1, 664526, Note_on_c, 0, 26, 55
1, 664543, Note_on_c, 0, 30, 45
1, 664557, Note_off_c, 0, 26, 64
1, 664557, Poly_aftertouch_c, 0, 33, 127
1, 664559, Note_on_c, 0, 38, 54
1, 664570, Note_off_c, 0, 30, 57
1, 664635, Note_on_c, 0, 26, 53
1, 664635, Note_off_c, 0, 38, 56
1, 664658, Note_on_c, 0, 30, 49
1, 664670, Note_off_c, 0, 26, 62
1, 664673, Note_on_c, 0, 38, 50
1, 664697, Note_off_c, 0, 30, 50
1, 664738, Poly_aftertouch_c, 0, 33, 0
1, 664744, Note_off_c, 0, 38, 61
1, 664750, Note_on_c, 0, 26, 57
1, 664759, Note_on_c, 0, 30, 45
1, 664759, Note_on_c, 0, 33, 19
1, 664782, Note_off_c, 0, 26, 63
1, 664783, Poly_aftertouch_c, 0, 38, 0
1, 664794, Note_on_c, 0, 38, 58
1, 664801, Note_off_c, 0, 30, 50
1, 664809, Note_off_c, 0, 33, 46
1, 664856, Note_off_c, 0, 38, 61
1, 664863, Note_on_c, 0, 26, 55
1, 664875, Note_on_c, 0, 30, 48
1, 664894, Note_off_c, 0, 26, 63
1, 664903, Note_off_c, 0, 30, 60
1, 664909, Poly_aftertouch_c, 0, 33, 127
1, 664912, Note_on_c, 0, 38, 57
1, 664959, Note_on_c, 0, 26, 65
1, 664971, Note_off_c, 0, 38, 59
1, 664990, Note_on_c, 0, 30, 52
1, 664994, Note_off_c, 0, 26, 65
1, 665021, Note_off_c, 0, 30, 55
1, 665030, Note_on_c, 0, 38, 56
1, 665046, Poly_aftertouch_c, 0, 33, 0
1, 665071, Note_on_c, 0, 33, 31
1, 665076, Note_on_c, 0, 26, 63
1, 665100, Note_off_c, 0, 38, 0
1, 665107, Note_off_c, 0, 26, 66
1, 665111, Note_on_c, 0, 30, 36
1, 665119, Note_on_c, 0, 38, 48
1, 665132, Note_off_c, 0, 33, 54
1, 665159, Note_off_c, 0, 30, 0
1, 665187, Note_on_c, 0, 26, 64
1, 665190, Note_on_c, 0, 30, 41
1, 665191, Note_off_c, 0, 38, 62
1, 665197, Note_on_c, 0, 33, 46
1, 665221, Note_off_c, 0, 26, 63
1, 665224, Poly_aftertouch_c, 0, 38, 0
1, 665233, Note_off_c, 0, 30, 58
1, 665235, Note_on_c, 0, 38, 56
1, 665240, Note_off_c, 0, 33, 60
1, 665293, Note_on_c, 0, 26, 61
1, 665308, Note_off_c, 0, 38, 60
1, 665311, Note_on_c, 0, 30, 60
1, 665329, Note_off_c, 0, 26, 60
1, 665334, Note_on_c, 0, 33, 32
1, 665341, Note_on_c, 0, 38, 50
1, 665344, Note_off_c, 0, 30, 59
1, 665393, Note_off_c, 0, 33, 0
1, 665410, Note_on_c, 0, 26, 56
1, 665414, Note_on_c, 0, 33, 29
1, 665418, Note_off_c, 0, 38, 61
1, 665431, Note_on_c, 0, 30, 58
1, 665446, Note_off_c, 0, 26, 59
1, 665448, Note_off_c, 0, 57, 49
1, 665462, Note_on_c, 0, 38, 57
1, 665466, Note_off_c, 0, 33, 56
1, 665468, Note_off_c, 0, 30, 54
1, 665490, Note_off_c, 0, 69, 42
1, 665522, Note_off_c, 0, 62, 52
1, 665533, Note_on_c, 0, 26, 49
1, 665547, Note_off_c, 0, 38, 50
1, 665549, Note_on_c, 0, 30, 57
1, 665551, Note_on_c, 0, 33, 44
1, 665574, Note_off_c, 0, 26, 58
1, 665579, Note_off_c, 0, 30, 63
1, 665583, Note_on_c, 0, 38, 45
1, 665595, Note_off_c, 0, 33, 56
1, 665655, Note_on_c, 0, 30, 62
1, 665659, Note_off_c, 0, 38, 60
1, 665662, Note_on_c, 0, 26, 55
1, 665678, Note_on_c, 0, 33, 39
1, 665695, Note_off_c, 0, 26, 63
1, 665698, Note_off_c, 0, 30, 58
1, 665719, Note_on_c, 0, 38, 63
1, 665720, Note_off_c, 0, 33, 56
1, 665773, Note_on_c, 0, 26, 57
1, 665776, Note_off_c, 0, 38, 60
1, 665786, Note_on_c, 0, 30, 59
1, 665813, Note_on_c, 0, 33, 4
1, 665817, Note_off_c, 0, 30, 63
1, 665831, Note_on_c, 0, 38, 62
1, 665831, Note_off_c, 0, 26, 44
1, 665896, Note_on_c, 0, 30, 64
1, 665906, Note_off_c, 0, 38, 61
1, 665910, Note_off_c, 0, 33, 0
1, 665919, Note_on_c, 0, 26, 55
1, 665928, Note_on_c, 0, 33, 30
1, 665946, Note_off_c, 0, 30, 60
1, 665947, Note_off_c, 0, 26, 63
1, 665962, Note_on_c, 0, 38, 63
1, 665970, Note_off_c, 0, 33, 50
1, 666020, Note_on_c, 0, 26, 61
1, 666032, Note_off_c, 0, 38, 61
1, 666035, Note_on_c, 0, 30, 69
1, 666044, Note_on_c, 0, 33, 49
1, 666074, Poly_aftertouch_c, 0, 38, 0
1, 666075, Note_off_c, 0, 30, 60
1, 666077, Note_off_c, 0, 26, 61
1, 666083, Note_on_c, 0, 38, 62
1, 666092, Note_off_c, 0, 33, 54
1, 666163, Note_on_c, 0, 30, 67
1, 666178, Note_off_c, 0, 38, 60
1, 666182, Note_on_c, 0, 33, 61
1, 666186, Note_on_c, 0, 26, 62
1, 666230, Note_off_c, 0, 30, 59
1, 666237, Note_on_c, 0, 38, 69
1, 666237, Note_off_c, 0, 26, 53
1, 666240, Note_off_c, 0, 33, 51
1, 666273, Note_on_c, 0, 50, 93
1, 666279, Note_on_c, 0, 57, 82
1, 666279, Note_on_c, 0, 62, 80
1, 666303, Note_off_c, 0, 50, 65
1, 666306, Note_off_c, 0, 62, 66
1, 666309, Note_off_c, 0, 57, 63
1, 666327, Note_off_c, 0, 38, 58
1, 666332, Note_on_c, 0, 26, 64
1, 666336, Note_on_c, 0, 30, 68
1, 666338, Note_on_c, 0, 33, 56
1, 666348, Note_on_c, 0, 50, 99
1, 666349, Control_c, 0, 64, 92
1, 666351, Note_on_c, 0, 62, 86
1, 666359, Note_on_c, 0, 57, 76
1, 666364, Note_on_c, 0, 38, 61
1, 666364, Note_off_c, 0, 30, 64
1, 666364, Control_c, 0, 64, 0
1, 666372, Note_off_c, 0, 26, 60
1, 666375, Note_off_c, 0, 33, 64
1, 666408, Control_c, 0, 64, 55
1, 666423, Control_c, 0, 64, 87
1, 666438, Control_c, 0, 64, 127
1, 666455, Note_off_c, 0, 38, 61
1, 666458, Note_on_c, 0, 26, 57
1, 666461, Note_on_c, 0, 30, 66
1, 666486, Note_on_c, 0, 33, 39
1, 666491, Note_off_c, 0, 30, 65
1, 666492, Note_off_c, 0, 26, 63
1, 666500, Note_on_c, 0, 38, 64
1, 666529, Note_off_c, 0, 33, 48
1, 666572, Note_on_c, 0, 30, 63
1, 666575, Note_on_c, 0, 26, 55
1, 666579, Note_off_c, 0, 38, 61
1, 666605, Note_on_c, 0, 33, 36
1, 666618, Note_off_c, 0, 26, 61
1, 666630, Note_off_c, 0, 30, 59
1, 666637, Note_on_c, 0, 38, 64
1, 666645, Note_off_c, 0, 33, 53
1, 666706, Note_on_c, 0, 26, 68
1, 666714, Note_off_c, 0, 38, 51
1, 666725, Note_on_c, 0, 30, 61
1, 666748, Note_off_c, 0, 26, 63
1, 666757, Note_off_c, 0, 30, 62
1, 666764, Note_on_c, 0, 38, 61
1, 666834, Note_on_c, 0, 30, 67
1, 666834, Note_off_c, 0, 38, 61
1, 666835, Note_on_c, 0, 26, 66
1, 666836, Note_on_c, 0, 33, 27
1, 666862, Note_off_c, 0, 30, 65
1, 666869, Note_off_c, 0, 26, 66
1, 666879, Poly_aftertouch_c, 0, 38, 0
1, 666887, Note_off_c, 0, 33, 50
1, 666888, Note_on_c, 0, 38, 64
1, 666944, Note_off_c, 0, 38, 63
1, 666956, Note_on_c, 0, 30, 61
1, 666958, Note_on_c, 0, 26, 56
1, 666969, Note_on_c, 0, 33, 43
1, 666989, Note_off_c, 0, 26, 66
1, 666992, Note_off_c, 0, 30, 59
1, 667005, Note_on_c, 0, 38, 71
1, 667010, Note_off_c, 0, 33, 60
1, 667058, Note_on_c, 0, 26, 64
1, 667062, Note_off_c, 0, 38, 63
1, 667069, Note_on_c, 0, 30, 73
1, 667090, Note_on_c, 0, 33, 37
1, 667102, Note_off_c, 0, 26, 62
1, 667105, Note_off_c, 0, 30, 61
1, 667120, Note_on_c, 0, 38, 69
1, 667127, Note_off_c, 0, 33, 50
1, 667179, Note_on_c, 0, 26, 70
1, 667184, Note_off_c, 0, 38, 61
1, 667188, Note_on_c, 0, 30, 63
1, 667220, Note_off_c, 0, 30, 62
1, 667221, Note_off_c, 0, 26, 63
1, 667221, Note_on_c, 0, 33, 26
1, 667239, Note_on_c, 0, 38, 69
1, 667275, Note_off_c, 0, 33, 42
1, 667293, Note_on_c, 0, 30, 65
1, 667297, Note_on_c, 0, 26, 64
1, 667316, Note_off_c, 0, 38, 50
1, 667334, Note_off_c, 0, 26, 57
1, 667341, Note_on_c, 0, 33, 16
1, 667349, Note_off_c, 0, 30, 58
1, 667361, Note_on_c, 0, 38, 62
1, 667421, Note_off_c, 0, 50, 53
1, 667424, Note_off_c, 0, 62, 50
1, 667433, Note_on_c, 0, 30, 57
1, 667447, Note_on_c, 0, 26, 50
1, 667454, Note_off_c, 0, 38, 55
1, 667481, Note_off_c, 0, 57, 53
1, 667484, Note_on_c, 0, 38, 55
1, 667487, Note_off_c, 0, 30, 56
1, 667489, Note_off_c, 0, 26, 56
1, 667533, Note_off_c, 0, 33, 36
1, 667564, Note_off_c, 0, 38, 61
1, 667572, Note_on_c, 0, 30, 53
1, 667583, Note_on_c, 0, 33, 28
1, 667585, Note_on_c, 0, 26, 53
1, 667611, Note_off_c, 0, 30, 60
1, 667618, Note_off_c, 0, 26, 63
1, 667619, Note_on_c, 0, 38, 69
1, 667643, Note_off_c, 0, 33, 45
1, 667695, Note_on_c, 0, 26, 56
1, 667698, Note_off_c, 0, 38, 60
1, 667706, Note_on_c, 0, 30, 63
1, 667719, Note_on_c, 0, 33, 43
1, 667744, Note_off_c, 0, 26, 62
1, 667750, Note_off_c, 0, 30, 58
1, 667754, Note_on_c, 0, 38, 72
1, 667769, Note_off_c, 0, 33, 50
1, 667838, Note_on_c, 0, 30, 70
1, 667841, Note_off_c, 0, 38, 61
1, 667844, Note_on_c, 0, 26, 56
1, 667858, Note_on_c, 0, 33, 55
1, 667884, Note_off_c, 0, 26, 60
1, 667892, Note_on_c, 0, 38, 66
1, 667893, Note_off_c, 0, 30, 57
1, 667900, Note_off_c, 0, 33, 59
1, 667980, Note_on_c, 0, 26, 61
1, 667982, Note_off_c, 0, 38, 59
1, 667985, Note_on_c, 0, 33, 60
1, 667987, Note_on_c, 0, 30, 65
1, 668023, Note_off_c, 0, 26, 57
1, 668034, Note_off_c, 0, 30, 59
1, 668036, Note_on_c, 0, 38, 69
1, 668042, Note_off_c, 0, 33, 49
1, 668127, Note_on_c, 0, 30, 72
1, 668137, Note_on_c, 0, 33, 63
1, 668137, Note_on_c, 0, 26, 59
1, 668142, Note_off_c, 0, 38, 53
1, 668190, Note_on_c, 0, 38, 64
1, 668195, Note_off_c, 0, 26, 58
1, 668208, Note_off_c, 0, 30, 59
1, 668214, Note_off_c, 0, 33, 56
1, 668297, Note_on_c, 0, 45, 90
1, 668298, Note_on_c, 0, 57, 79
1, 668300, Note_on_c, 0, 30, 69
1, 668301, Note_on_c, 0, 26, 56
1, 668302, Note_off_c, 0, 38, 60
1, 668303, Note_on_c, 0, 33, 64
1, 668307, Note_on_c, 0, 50, 71
1, 668324, Note_off_c, 0, 45, 70
1, 668330, Note_off_c, 0, 57, 63
1, 668342, Note_off_c, 0, 26, 62
1, 668345, Note_off_c, 0, 33, 58
1, 668348, Note_off_c, 0, 50, 66
1, 668351, Note_off_c, 0, 30, 54
1, 668357, Note_on_c, 0, 38, 65
1, 668385, Note_on_c, 0, 57, 87
1, 668387, Note_on_c, 0, 45, 93
1, 668394, Note_on_c, 0, 50, 80
1, 668404, Control_c, 0, 64, 102
1, 668419, Control_c, 0, 64, 66
1, 668425, Note_on_c, 0, 26, 60
1, 668429, Note_on_c, 0, 33, 54
1, 668432, Note_off_c, 0, 38, 62
1, 668433, Note_on_c, 0, 30, 54
1, 668434, Control_c, 0, 64, 0
1, 668471, Note_off_c, 0, 33, 55
1, 668473, Note_off_c, 0, 30, 62
1, 668474, Note_off_c, 0, 26, 62
1, 668478, Control_c, 0, 64, 78
1, 668486, Note_on_c, 0, 38, 67
1, 668493, Control_c, 0, 64, 127
1, 668518, Note_off_c, 0, 57, 55
1, 668521, Note_off_c, 0, 45, 55
1, 668564, Note_on_c, 0, 30, 62
1, 668565, Note_on_c, 0, 26, 60
1, 668565, Note_off_c, 0, 50, 62
1, 668566, Note_off_c, 0, 38, 61
1, 668578, Note_on_c, 0, 33, 60
1, 668611, Note_off_c, 0, 26, 59
1, 668615, Note_off_c, 0, 30, 59
1, 668619, Note_on_c, 0, 38, 64
1, 668620, Note_off_c, 0, 33, 59
1, 668696, Note_off_c, 0, 38, 57
1, 668708, Note_on_c, 0, 26, 64
1, 668708, Note_on_c, 0, 30, 63
1, 668708, Note_on_c, 0, 33, 56
1, 668739, Note_off_c, 0, 26, 61
1, 668740, Note_off_c, 0, 30, 62
1, 668745, Note_on_c, 0, 38, 67
1, 668750, Note_off_c, 0, 33, 61
1, 668815, Note_on_c, 0, 30, 71
1, 668816, Note_on_c, 0, 26, 65
1, 668823, Note_off_c, 0, 38, 58
1, 668828, Note_on_c, 0, 33, 62
1, 668855, Note_off_c, 0, 26, 65
1, 668873, Note_off_c, 0, 33, 53
1, 668879, Note_on_c, 0, 38, 68
1, 668881, Note_off_c, 0, 30, 56
1, 668950, Note_on_c, 0, 26, 67
1, 668953, Note_off_c, 0, 38, 62
1, 668954, Note_on_c, 0, 30, 60
1, 668959, Note_on_c, 0, 33, 56
1, 668981, Note_off_c, 0, 26, 67
1, 668996, Note_off_c, 0, 30, 57
1, 669001, Note_on_c, 0, 38, 67
1, 669013, Note_off_c, 0, 33, 58
1, 669081, Note_off_c, 0, 38, 60
1, 669082, Note_on_c, 0, 26, 54
1, 669087, Note_on_c, 0, 30, 66
1, 669098, Note_on_c, 0, 33, 47
1, 669117, Note_off_c, 0, 26, 63
1, 669121, Note_off_c, 0, 30, 61
1, 669129, Note_on_c, 0, 38, 69
1, 669135, Note_off_c, 0, 33, 61
1, 669211, Note_on_c, 0, 30, 66
1, 669212, Note_on_c, 0, 26, 57
1, 669217, Note_off_c, 0, 38, 61
1, 669222, Note_on_c, 0, 33, 57
1, 669271, Note_off_c, 0, 33, 54
1, 669273, Note_off_c, 0, 26, 57
1, 669274, Note_on_c, 0, 38, 71
1, 669274, Note_off_c, 0, 30, 55
1, 669353, Note_off_c, 0, 38, 62
1, 669357, Note_on_c, 0, 26, 59
1, 669365, Note_on_c, 0, 30, 62
1, 669371, Note_on_c, 0, 33, 58
1, 669400, Note_off_c, 0, 30, 58
1, 669409, Note_off_c, 0, 33, 59
1, 669414, Note_on_c, 0, 38, 78
1, 669424, Note_off_c, 0, 26, 56
1, 669497, Note_on_c, 0, 30, 75
1, 669498, Note_on_c, 0, 26, 59
1, 669499, Note_off_c, 0, 38, 59
1, 669505, Note_on_c, 0, 33, 67
1, 669555, Note_off_c, 0, 33, 49
1, 669556, Note_off_c, 0, 26, 59
1, 669562, Note_on_c, 0, 38, 87
1, 669571, Note_off_c, 0, 30, 57
1, 669588, Note_on_c, 0, 45, 104
1, 669591, Note_on_c, 0, 57, 98
1, 669592, Note_on_c, 0, 50, 89
1, 669638, Note_on_c, 0, 26, 63
1, 669651, Note_on_c, 0, 30, 66
1, 669654, Note_on_c, 0, 33, 67
1, 669654, Note_off_c, 0, 38, 60
1, 669663, Control_c, 0, 64, 80
1, 669678, Control_c, 0, 64, 0
1, 669684, Poly_aftertouch_c, 0, 54, 127
1, 669707, Note_off_c, 0, 26, 59
1, 669708, Note_on_c, 0, 38, 72
1, 669719, Note_off_c, 0, 30, 61
1, 669719, Note_off_c, 0, 33, 60
1, 669732, Poly_aftertouch_c, 0, 54, 0
1, 669737, Control_c, 0, 64, 65
1, 669752, Control_c, 0, 64, 88
1, 669767, Control_c, 0, 64, 127
1, 669787, Note_off_c, 0, 38, 58
1, 669788, Note_on_c, 0, 26, 61
1, 669794, Note_on_c, 0, 30, 61
1, 669807, Note_on_c, 0, 33, 49
1, 669838, Note_off_c, 0, 26, 58
1, 669839, Note_on_c, 0, 38, 75
1, 669839, Note_off_c, 0, 30, 59
1, 669853, Note_off_c, 0, 33, 59
1, 669919, Note_off_c, 0, 38, 60
1, 669922, Note_on_c, 0, 30, 70
1, 669925, Note_on_c, 0, 26, 61
1, 669930, Note_on_c, 0, 33, 59
1, 669953, Note_off_c, 0, 26, 64
1, 669962, Note_on_c, 0, 38, 70
1, 669969, Note_off_c, 0, 30, 61
1, 669984, Note_off_c, 0, 33, 60
1, 670031, Note_on_c, 0, 26, 65
1, 670041, Note_on_c, 0, 30, 73
1, 670045, Note_off_c, 0, 38, 49
1, 670059, Note_on_c, 0, 33, 53
1, 670080, Note_on_c, 0, 38, 67
1, 670087, Note_off_c, 0, 26, 60
1, 670097, Note_off_c, 0, 30, 60
1, 670099, Note_off_c, 0, 33, 61
1, 670168, Note_on_c, 0, 30, 70
1, 670171, Note_off_c, 0, 38, 56
1, 670172, Note_on_c, 0, 26, 68
1, 670172, Note_on_c, 0, 33, 66
1, 670211, Note_off_c, 0, 26, 56
1, 670213, Note_on_c, 0, 38, 71
1, 670217, Note_off_c, 0, 57, 52
1, 670219, Note_off_c, 0, 45, 51
1, 670234, Note_off_c, 0, 30, 60
1, 670244, Note_off_c, 0, 33, 55
1, 670264, Note_off_c, 0, 50, 57
1, 670280, Poly_aftertouch_c, 0, 33, 0
1, 670290, Note_on_c, 0, 33, 60
1, 670293, Note_on_c, 0, 30, 69
1, 670295, Note_on_c, 0, 26, 66
1, 670302, Note_off_c, 0, 38, 62
1, 670335, Note_off_c, 0, 26, 62
1, 670348, Note_on_c, 0, 38, 77
1, 670361, Note_off_c, 0, 30, 59
1, 670365, Note_off_c, 0, 33, 58
1, 670439, Note_on_c, 0, 26, 71
1, 670443, Note_on_c, 0, 30, 74
1, 670444, Note_on_c, 0, 33, 68
1, 670447, Note_off_c, 0, 38, 63
1, 670487, Note_off_c, 0, 26, 48
1, 670490, Note_on_c, 0, 38, 74
1, 670508, Note_off_c, 0, 30, 61
1, 670508, Note_off_c, 0, 33, 59
1, 670564, Note_on_c, 0, 30, 65
1, 670569, Note_on_c, 0, 33, 64
1, 670572, Note_off_c, 0, 38, 62
1, 670573, Note_on_c, 0, 26, 56
1, 670611, Note_off_c, 0, 26, 63
1, 670627, Note_on_c, 0, 38, 80
1, 670641, Note_off_c, 0, 30, 61
1, 670644, Note_off_c, 0, 33, 59
1, 670694, Note_on_c, 0, 26, 69
1, 670702, Note_on_c, 0, 30, 65
1, 670706, Note_off_c, 0, 38, 60
1, 670713, Note_on_c, 0, 33, 57
1, 670753, Note_on_c, 0, 38, 72
1, 670756, Note_off_c, 0, 26, 57
1, 670770, Note_off_c, 0, 30, 61
1, 670773, Note_off_c, 0, 33, 59
1, 670829, Note_on_c, 0, 26, 59
1, 670831, Note_on_c, 0, 30, 64
1, 670834, Note_off_c, 0, 38, 61
1, 670852, Note_on_c, 0, 33, 49
1, 670861, Note_off_c, 0, 26, 60
1, 670878, Note_on_c, 0, 38, 68
1, 670904, Note_off_c, 0, 30, 61
1, 670914, Note_off_c, 0, 33, 56
1, 670956, Note_off_c, 0, 38, 62
1, 670962, Note_on_c, 0, 26, 70
1, 670995, Note_on_c, 0, 33, 54
1, 671016, Note_off_c, 0, 26, 48
1, 671022, Note_on_c, 0, 38, 78
1, 671040, Poly_aftertouch_c, 0, 30, 127
1, 671046, Note_off_c, 0, 33, 60
1, 671085, Note_on_c, 0, 26, 60
1, 671092, Poly_aftertouch_c, 0, 30, 0
1, 671099, Note_off_c, 0, 38, 58
1, 671140, Note_on_c, 0, 33, 54
1, 671178, Note_on_c, 0, 38, 60
1, 671305, Note_off_c, 0, 26, 31
1, 671335, Note_off_c, 0, 38, 36
1, 671433, Note_off_c, 0, 33, 39
1, 671508, Note_on_c, 0, 50, 100
1, 671509, Note_on_c, 0, 38, 102
1, 671509, Note_on_c, 0, 45, 100
1, 671511, Note_on_c, 0, 33, 93
1, 671520, Note_on_c, 0, 26, 91
1, 671591, Control_c, 0, 64, 110
1, 671606, Control_c, 0, 64, 75
1, 671620, Control_c, 0, 64, 0
1, 672368, Control_c, 0, 64, 11
1, 672383, Control_c, 0, 64, 21
1, 672399, Control_c, 0, 64, 26
1, 672414, Control_c, 0, 64, 27
1, 672429, Control_c, 0, 64, 28
1, 672458, Control_c, 0, 64, 29
1, 672487, Control_c, 0, 64, 30
1, 672517, Control_c, 0, 64, 31
1, 672532, Control_c, 0, 64, 33
1, 672547, Control_c, 0, 64, 35
1, 672606, Control_c, 0, 64, 36
1, 672629, Control_c, 0, 64, 36
1, 672643, Control_c, 0, 64, 38
1, 672658, Control_c, 0, 64, 39
1, 672673, Control_c, 0, 64, 41
1, 672688, Control_c, 0, 64, 42
1, 672702, Control_c, 0, 64, 43
1, 672717, Control_c, 0, 64, 44
1, 672732, Control_c, 0, 64, 45
1, 672747, Control_c, 0, 64, 45
1, 672762, Control_c, 0, 64, 46
1, 672776, Control_c, 0, 64, 48
1, 672791, Control_c, 0, 64, 49
1, 672806, Control_c, 0, 64, 51
1, 672821, Control_c, 0, 64, 52
1, 672836, Control_c, 0, 64, 54
1, 672850, Control_c, 0, 64, 55
1, 672865, Control_c, 0, 64, 56
1, 672880, Control_c, 0, 64, 57
1, 672894, Control_c, 0, 64, 57
1, 672909, Control_c, 0, 64, 58
1, 672924, Control_c, 0, 64, 58
1, 672954, Control_c, 0, 64, 59
1, 672969, Control_c, 0, 64, 59
1, 673058, Control_c, 0, 64, 60
1, 673087, Control_c, 0, 64, 60
1, 673192, Control_c, 0, 64, 61
1, 673207, Control_c, 0, 64, 61
1, 673222, Control_c, 0, 64, 62
1, 673237, Control_c, 0, 64, 63
1, 673252, Control_c, 0, 64, 63
1, 673266, Control_c, 0, 64, 64
1, 673281, Control_c, 0, 64, 65
1, 673296, Control_c, 0, 64, 67
1, 673310, Control_c, 0, 64, 69
1, 673325, Control_c, 0, 64, 72
1, 673340, Control_c, 0, 64, 75
1, 673355, Control_c, 0, 64, 78
1, 673377, Control_c, 0, 64, 82
1, 673392, Control_c, 0, 64, 88
1, 673407, Control_c, 0, 64, 96
1, 673422, Control_c, 0, 64, 106
1, 673437, Control_c, 0, 64, 127
1, 675026, Note_off_c, 0, 45, 59
1, 675050, Note_off_c, 0, 50, 57
1, 675139, Note_off_c, 0, 26, 61
1, 675176, Note_off_c, 0, 33, 62
1, 675180, Note_off_c, 0, 38, 66
1, 675290, Control_c, 0, 64, 83
1, 675305, Control_c, 0, 64, 17
1, 675320, Control_c, 0, 64, 0
1, 675395, End_track
0, 0, End_of_file
