0, 0, Header, 0, 1, 384
1, 0, Start_track
1, 0, Title_t, "Improvisation Fuga--Jussow      "
1, 0, Text_t, "2009 International Piano-e-Competition finals"
1, 0, Text_t, "captured June-July 2009"
1, 0, Text_t, "http://www.piano-e-competition.com/"
1, 0, Text_t, "standard-resolution version"
1, 0, Text_t, "File processed for distribution by software from Zenph Studios, Inc., http://www.zenph.com"
1, 0, Instrument_name_t, "Yamaha Disklavier Pro Mark IV concert grand piano, model DCFIIISM4PRO"
1, 0, Sequencer_specific, 39, 67, 113, 0, 1, 0, 1, 0, 73, 109, 112, 114, 111, 118, 32, 70, 117, 103, 97, 32, 32, 32, 32, 32, 65, 110, 100, 114, 101, 106, 32, 74, 117, 115, 115, 111, 119, 32, 32, 32
1, 0, Sequencer_specific, 6, 67, 113, 0, 0, 0, 69
1, 0, System_exclusive, 21, 67, 113, 126, 21, 0, 2, 2, 1, 1, 13, 3, 4, 10, 4, 10, 5, 10, 15, 11, 5, 247
1, 0, Sequencer_specific, 5, 67, 123, 12, 2, 1
1, 0, Tempo, 512820
1, 0, Time_signature, 4, 2, 24, 8
1, 0, System_exclusive, 5, 126, 127, 9, 1, 247
1, 1, System_exclusive, 8, 67, 16, 76, 0, 0, 126, 0, 247
1, 2, System_exclusive, 8, 67, 16, 76, 8, 9, 7, 1, 247
1, 3, Control_c, 0, 0, 0
1, 3, Control_c, 1, 0, 0
1, 3, Control_c, 2, 0, 0
1, 3, Control_c, 3, 0, 0
1, 3, Control_c, 4, 0, 0
1, 3, Control_c, 5, 0, 0
1, 3, Control_c, 6, 0, 0
1, 3, Control_c, 7, 0, 0
1, 3, Control_c, 8, 0, 0
1, 3, Control_c, 9, 0, 127
1, 3, Control_c, 10, 0, 0
1, 3, Control_c, 11, 0, 0
1, 3, Control_c, 12, 0, 0
1, 3, Control_c, 13, 0, 0
1, 3, Control_c, 14, 0, 0
1, 3, Control_c, 15, 0, 0
1, 4, Control_c, 0, 32, 0
1, 4, Control_c, 1, 32, 0
1, 4, Control_c, 2, 32, 0
1, 4, Control_c, 3, 32, 0
1, 4, Control_c, 4, 32, 0
1, 4, Control_c, 5, 32, 0
1, 4, Control_c, 6, 32, 0
1, 4, Control_c, 7, 32, 0
1, 4, Control_c, 8, 32, 0
1, 4, Control_c, 9, 32, 0
1, 4, Control_c, 10, 32, 0
1, 4, Control_c, 11, 32, 0
1, 4, Control_c, 12, 32, 0
1, 4, Control_c, 13, 32, 0
1, 4, Control_c, 14, 32, 0
1, 4, Control_c, 15, 32, 0
1, 5, Program_c, 0, 0
1, 5, Program_c, 1, 0
1, 5, Program_c, 2, 0
1, 5, Program_c, 3, 0
1, 5, Program_c, 4, 0
1, 5, Program_c, 5, 0
1, 5, Program_c, 6, 0
1, 5, Program_c, 7, 0
1, 5, Program_c, 8, 0
1, 5, Program_c, 9, 0
1, 5, Program_c, 10, 0
1, 5, Program_c, 11, 0
1, 5, Program_c, 12, 0
1, 5, Program_c, 13, 0
1, 5, Program_c, 14, 0
1, 5, Program_c, 15, 0
1, 6, Control_c, 0, 7, 100
1, 6, Control_c, 1, 7, 100
1, 6, Control_c, 2, 7, 100
1, 6, Control_c, 3, 7, 100
1, 6, Control_c, 4, 7, 100
1, 6, Control_c, 5, 7, 100
1, 6, Control_c, 6, 7, 100
1, 6, Control_c, 7, 7, 100
1, 6, Control_c, 8, 7, 100
1, 6, Control_c, 9, 7, 100
1, 6, Control_c, 10, 7, 100
1, 6, Control_c, 11, 7, 100
1, 6, Control_c, 12, 7, 100
1, 6, Control_c, 13, 7, 100
1, 6, Control_c, 14, 7, 100
1, 6, Control_c, 15, 7, 100
1, 117, Control_c, 0, 64, 15
1, 229, Control_c, 0, 64, 31
1, 341, Control_c, 0, 64, 46
1, 452, Control_c, 0, 64, 63
1, 564, Control_c, 0, 64, 77
1, 676, Control_c, 0, 64, 94
1, 787, Control_c, 0, 64, 108
1, 899, Control_c, 0, 64, 127
1, 1128, Note_on_c, 0, 102, 107
1, 1133, Note_on_c, 0, 90, 97
1, 1136, Note_on_c, 0, 78, 76
1, 1143, Note_on_c, 0, 66, 67
1, 1169, Note_off_c, 0, 66, 69
1, 1169, Note_off_c, 0, 78, 62
1, 1767, Note_off_c, 0, 102, 37
1, 1796, Note_off_c, 0, 90, 33
1, 2456, Note_on_c, 0, 98, 95
1, 2460, Note_on_c, 0, 86, 96
1, 2514, Note_on_c, 0, 78, 69
1, 2533, Note_off_c, 0, 78, 68
1, 2540, Note_off_c, 0, 86, 59
1, 2565, Note_off_c, 0, 98, 65
1, 3374, Note_on_c, 0, 77, 105
1, 3377, Note_on_c, 0, 89, 96
1, 3393, Note_on_c, 0, 74, 76
1, 3398, Note_on_c, 0, 66, 64
1, 3427, Note_off_c, 0, 66, 66
1, 3446, Note_off_c, 0, 74, 62
1, 3472, Note_off_c, 0, 89, 64
1, 3477, Note_off_c, 0, 77, 55
1, 4529, Note_on_c, 0, 69, 99
1, 4541, Note_on_c, 0, 81, 80
1, 4572, Note_on_c, 0, 65, 55
1, 4588, Note_on_c, 0, 54, 48
1, 4598, Note_on_c, 0, 50, 35
1, 5949, Note_off_c, 0, 65, 51
1, 6009, Note_off_c, 0, 69, 40
1, 6110, Note_off_c, 0, 50, 37
1, 6121, Note_off_c, 0, 81, 44
1, 6151, Note_off_c, 0, 54, 46
1, 6651, Note_on_c, 0, 87, 95
1, 6657, Note_on_c, 0, 78, 94
1, 6657, Note_on_c, 0, 75, 88
1, 6660, Note_on_c, 0, 62, 76
1, 6661, Note_on_c, 0, 69, 69
1, 6663, Note_on_c, 0, 65, 74
1, 6684, Note_off_c, 0, 69, 73
1, 6688, Note_off_c, 0, 62, 63
1, 6719, Note_off_c, 0, 65, 58
1, 6719, Note_off_c, 0, 75, 60
1, 6858, Note_off_c, 0, 78, 57
1, 6932, Note_off_c, 0, 87, 36
1, 7321, Note_on_c, 0, 92, 98
1, 7324, Note_on_c, 0, 86, 97
1, 7325, Note_on_c, 0, 80, 104
1, 7326, Note_on_c, 0, 75, 95
1, 7335, Note_on_c, 0, 65, 76
1, 7337, Note_on_c, 0, 66, 80
1, 7337, Note_on_c, 0, 69, 84
1, 7354, Note_off_c, 0, 65, 72
1, 7355, Note_off_c, 0, 75, 72
1, 7379, Note_off_c, 0, 69, 66
1, 7385, Note_off_c, 0, 66, 66
1, 7385, Note_off_c, 0, 80, 66
1, 7430, Note_off_c, 0, 86, 55
1, 7444, Note_off_c, 0, 92, 61
1, 8238, Note_on_c, 0, 83, 104
1, 8240, Note_on_c, 0, 95, 97
1, 8242, Note_on_c, 0, 89, 91
1, 8243, Note_on_c, 0, 69, 86
1, 8244, Note_on_c, 0, 80, 92
1, 8245, Note_on_c, 0, 90, 88
1, 8250, Note_on_c, 0, 75, 82
1, 8252, Note_on_c, 0, 74, 80
1, 8308, Control_c, 0, 64, 64
1, 8322, Control_c, 0, 64, 0
1, 8529, Control_c, 0, 64, 30
1, 8544, Control_c, 0, 64, 57
1, 8559, Control_c, 0, 64, 66
1, 8575, Control_c, 0, 64, 79
1, 8590, Control_c, 0, 64, 127
1, 8692, Note_off_c, 0, 80, 56
1, 8729, Note_off_c, 0, 95, 57
1, 8821, Note_off_c, 0, 89, 51
1, 8827, Note_off_c, 0, 75, 52
1, 8837, Note_off_c, 0, 90, 57
1, 8843, Note_off_c, 0, 83, 52
1, 8864, Note_off_c, 0, 74, 29
1, 8884, Note_off_c, 0, 69, 38
1, 9526, Note_on_c, 0, 61, 103
1, 9528, Note_on_c, 0, 73, 90
1, 9530, Note_on_c, 0, 51, 82
1, 9530, Note_on_c, 0, 66, 89
1, 9531, Note_on_c, 0, 62, 95
1, 9543, Note_on_c, 0, 56, 78
1, 9544, Note_on_c, 0, 59, 79
1, 9551, Note_on_c, 0, 69, 71
1, 9552, Note_on_c, 0, 53, 68
1, 10404, Note_off_c, 0, 62, 25
1, 10787, Note_off_c, 0, 61, 42
1, 10795, Note_off_c, 0, 51, 23
1, 10822, Note_off_c, 0, 53, 5
1, 10924, Note_off_c, 0, 66, 30
1, 10932, Note_off_c, 0, 59, 23
1, 10965, Note_off_c, 0, 69, 38
1, 10971, Note_off_c, 0, 73, 21
1, 10980, Note_off_c, 0, 56, 24
1, 12060, Note_on_c, 0, 96, 76
1, 12076, Note_on_c, 0, 84, 66
1, 12077, Note_on_c, 0, 86, 65
1, 12077, Note_on_c, 0, 87, 69
1, 12079, Note_on_c, 0, 89, 53
1, 12080, Note_on_c, 0, 85, 51
1, 12086, Note_on_c, 0, 81, 57
1, 12090, Note_on_c, 0, 78, 51
1, 12100, Note_on_c, 0, 83, 50
1, 12104, Note_on_c, 0, 80, 48
1, 12141, Control_c, 0, 64, 72
1, 12155, Control_c, 0, 64, 0
1, 12993, Control_c, 0, 64, 17
1, 13008, Control_c, 0, 64, 52
1, 13023, Control_c, 0, 64, 62
1, 13038, Control_c, 0, 64, 66
1, 13052, Control_c, 0, 64, 71
1, 13067, Control_c, 0, 64, 81
1, 13082, Control_c, 0, 64, 127
1, 13136, Note_off_c, 0, 96, 46
1, 13152, Note_off_c, 0, 85, 40
1, 13153, Note_off_c, 0, 86, 49
1, 13158, Note_off_c, 0, 84, 57
1, 13212, Note_off_c, 0, 83, 37
1, 13266, Note_off_c, 0, 89, 58
1, 13268, Note_off_c, 0, 81, 34
1, 13287, Note_off_c, 0, 78, 56
1, 13287, Note_off_c, 0, 87, 56
1, 13300, Note_off_c, 0, 80, 47
1, 13870, Note_on_c, 0, 74, 79
1, 13871, Note_on_c, 0, 88, 89
1, 13872, Note_on_c, 0, 61, 76
1, 13873, Note_on_c, 0, 72, 77
1, 13874, Note_on_c, 0, 76, 86
1, 13878, Note_on_c, 0, 63, 74
1, 13878, Note_on_c, 0, 66, 77
1, 13882, Note_on_c, 0, 80, 71
1, 13884, Note_on_c, 0, 81, 74
1, 13886, Note_on_c, 0, 83, 67
1, 13923, Note_on_c, 0, 82, 33
1, 13924, Note_off_c, 0, 82, 127
1, 14650, Note_off_c, 0, 72, 30
1, 14822, Note_off_c, 0, 88, 32
1, 14916, Note_off_c, 0, 76, 35
1, 14958, Note_off_c, 0, 74, 37
1, 14960, Note_off_c, 0, 83, 33
1, 14994, Note_off_c, 0, 81, 32
1, 15028, Note_off_c, 0, 66, 25
1, 15038, Note_off_c, 0, 80, 53
1, 15115, Note_off_c, 0, 61, 40
1, 15165, Note_off_c, 0, 63, 21
1, 15756, Note_on_c, 0, 52, 90
1, 15757, Note_on_c, 0, 67, 93
1, 15759, Note_on_c, 0, 57, 94
1, 15761, Note_on_c, 0, 42, 83
1, 15761, Note_on_c, 0, 55, 94
1, 15766, Note_on_c, 0, 44, 73
1, 15766, Note_on_c, 0, 50, 88
1, 15766, Note_on_c, 0, 59, 76
1, 15767, Note_on_c, 0, 46, 82
1, 15767, Note_on_c, 0, 63, 84
1, 15768, Note_on_c, 0, 61, 82
1, 15769, Note_on_c, 0, 48, 81
1, 15770, Note_on_c, 0, 53, 77
1, 17003, Note_off_c, 0, 53, 29
1, 17035, Note_off_c, 0, 67, 31
1, 17070, Note_off_c, 0, 57, 35
1, 17117, Note_off_c, 0, 55, 28
1, 17173, Note_off_c, 0, 52, 41
1, 17216, Note_off_c, 0, 50, 26
1, 17219, Note_off_c, 0, 63, 29
1, 17235, Note_off_c, 0, 59, 36
1, 17244, Note_off_c, 0, 61, 37
1, 17248, Note_off_c, 0, 48, 32
1, 17331, Note_off_c, 0, 46, 28
1, 17341, Note_off_c, 0, 42, 31
1, 17357, Note_off_c, 0, 44, 37
1, 17830, Note_on_c, 0, 58, 97
1, 17830, Note_on_c, 0, 47, 103
1, 17832, Note_on_c, 0, 49, 93
1, 17834, Note_on_c, 0, 48, 99
1, 17835, Note_on_c, 0, 55, 81
1, 17839, Note_on_c, 0, 52, 86
1, 17841, Note_on_c, 0, 34, 75
1, 17843, Note_on_c, 0, 45, 84
1, 17845, Note_on_c, 0, 42, 73
1, 17847, Note_on_c, 0, 44, 83
1, 17848, Note_on_c, 0, 39, 69
1, 17849, Note_on_c, 0, 41, 81
1, 17860, Note_on_c, 0, 38, 69
1, 17907, Control_c, 0, 64, 120
1, 17922, Control_c, 0, 64, 61
1, 17937, Control_c, 0, 64, 0
1, 19850, Control_c, 0, 67, 9
1, 19865, Control_c, 0, 67, 10
1, 19880, Control_c, 0, 67, 14
1, 19894, Control_c, 0, 67, 20
1, 19909, Control_c, 0, 67, 24
1, 19924, Control_c, 0, 67, 29
1, 19939, Control_c, 0, 67, 32
1, 19954, Control_c, 0, 67, 35
1, 19968, Control_c, 0, 67, 40
1, 19983, Control_c, 0, 67, 46
1, 19998, Control_c, 0, 67, 53
1, 20013, Control_c, 0, 67, 60
1, 20036, Control_c, 0, 67, 66
1, 20050, Control_c, 0, 67, 70
1, 20065, Control_c, 0, 67, 73
1, 20080, Control_c, 0, 67, 77
1, 20095, Control_c, 0, 67, 80
1, 20109, Control_c, 0, 67, 83
1, 20124, Control_c, 0, 67, 87
1, 20139, Control_c, 0, 67, 90
1, 20154, Control_c, 0, 67, 94
1, 20169, Control_c, 0, 67, 97
1, 20183, Control_c, 0, 67, 100
1, 20198, Control_c, 0, 67, 103
1, 20213, Control_c, 0, 67, 106
1, 20228, Control_c, 0, 67, 109
1, 20243, Control_c, 0, 67, 112
1, 20257, Control_c, 0, 67, 115
1, 20272, Control_c, 0, 67, 116
1, 20287, Control_c, 0, 67, 118
1, 20301, Control_c, 0, 67, 119
1, 20316, Control_c, 0, 67, 121
1, 20331, Control_c, 0, 67, 123
1, 20346, Control_c, 0, 67, 124
1, 20361, Control_c, 0, 67, 126
1, 20375, Control_c, 0, 67, 127
1, 21377, Note_off_c, 0, 52, 16
1, 21499, Note_off_c, 0, 55, 11
1, 21640, Note_off_c, 0, 48, 1
1, 21706, Note_off_c, 0, 45, 16
1, 21737, Note_off_c, 0, 49, 1
1, 21842, Note_off_c, 0, 47, 20
1, 21857, Note_off_c, 0, 58, 14
1, 24209, Control_c, 0, 67, 118
1, 24224, Control_c, 0, 67, 0
1, 24241, Note_on_c, 0, 66, 79
1, 24286, Note_on_c, 0, 62, 84
1, 24292, Note_off_c, 0, 66, 66
1, 24351, Note_on_c, 0, 65, 83
1, 24382, Note_off_c, 0, 62, 60
1, 24409, Note_on_c, 0, 69, 78
1, 24414, Note_off_c, 0, 65, 63
1, 24464, Note_on_c, 0, 68, 86
1, 24498, Note_off_c, 0, 69, 66
1, 24542, Note_off_c, 0, 68, 66
1, 24545, Note_on_c, 0, 63, 95
1, 24576, Note_off_c, 0, 63, 66
1, 25544, Control_c, 0, 67, 71
1, 25559, Control_c, 0, 67, 127
1, 25586, Note_on_c, 0, 66, 64
1, 25613, Note_off_c, 0, 66, 67
1, 25630, Note_on_c, 0, 62, 67
1, 25683, Note_on_c, 0, 65, 68
1, 25690, Note_off_c, 0, 62, 57
1, 25718, Note_on_c, 0, 69, 73
1, 25728, Note_off_c, 0, 65, 62
1, 25749, Note_off_c, 0, 69, 66
1, 25806, Note_on_c, 0, 63, 72
1, 25833, Note_on_c, 0, 68, 62
1, 25870, Note_off_c, 0, 63, 60
1, 25896, Note_on_c, 0, 71, 65
1, 25905, Note_off_c, 0, 68, 62
1, 25971, Note_on_c, 0, 73, 70
1, 25977, Note_off_c, 0, 71, 63
1, 25991, Note_off_c, 0, 73, 70
1, 26619, Control_c, 0, 64, 58
1, 26634, Control_c, 0, 64, 76
1, 26649, Control_c, 0, 64, 127
1, 26681, Note_on_c, 0, 66, 61
1, 26713, Note_off_c, 0, 66, 64
1, 26723, Control_c, 0, 67, 95
1, 26726, Note_on_c, 0, 62, 70
1, 26737, Control_c, 0, 67, 0
1, 26789, Note_on_c, 0, 65, 70
1, 26818, Note_on_c, 0, 69, 74
1, 26823, Note_off_c, 0, 62, 38
1, 26828, Note_off_c, 0, 65, 62
1, 26845, Note_off_c, 0, 69, 68
1, 26901, Note_on_c, 0, 63, 75
1, 26927, Note_on_c, 0, 68, 54
1, 26974, Note_off_c, 0, 63, 59
1, 26999, Note_on_c, 0, 71, 60
1, 27030, Note_on_c, 0, 70, 26
1, 27031, Note_off_c, 0, 68, 54
1, 27059, Note_on_c, 0, 73, 73
1, 27071, Note_off_c, 0, 70, 55
1, 27077, Note_off_c, 0, 71, 62
1, 27089, Note_off_c, 0, 73, 61
1, 27140, Note_on_c, 0, 72, 77
1, 27180, Note_off_c, 0, 72, 59
1, 27193, Note_on_c, 0, 76, 77
1, 27248, Note_off_c, 0, 76, 62
1, 27255, Note_on_c, 0, 79, 70
1, 27276, Note_off_c, 0, 79, 66
1, 27303, Note_off_c, 0, 34, 64
1, 27307, Note_off_c, 0, 41, 65
1, 27315, Note_on_c, 0, 82, 99
1, 27315, Note_off_c, 0, 42, 55
1, 27320, Note_off_c, 0, 39, 50
1, 27326, Note_off_c, 0, 44, 65
1, 27340, Note_off_c, 0, 38, 39
1, 27367, Note_off_c, 0, 82, 0
1, 27381, Note_on_c, 0, 82, 63
1, 27407, Note_on_c, 0, 83, 69
1, 27421, Note_off_c, 0, 82, 62
1, 27450, Note_off_c, 0, 83, 53
1, 27452, Note_on_c, 0, 82, 71
1, 27461, Poly_aftertouch_c, 0, 85, 127
1, 27493, Poly_aftertouch_c, 0, 85, 0
1, 27501, Note_off_c, 0, 82, 63
1, 27533, Note_on_c, 0, 83, 63
1, 27583, Note_off_c, 0, 83, 62
1, 27597, Note_on_c, 0, 82, 59
1, 27628, Note_off_c, 0, 82, 63
1, 27643, Note_on_c, 0, 83, 69
1, 27699, Note_on_c, 0, 82, 74
1, 27699, Note_off_c, 0, 83, 62
1, 27708, Note_on_c, 0, 88, 78
1, 27723, Note_on_c, 0, 98, 95
1, 27747, Note_on_c, 0, 83, 69
1, 27780, Note_on_c, 0, 92, 68
1, 27792, Note_off_c, 0, 88, 65
1, 27799, Note_off_c, 0, 82, 0
1, 27799, Note_on_c, 0, 82, 44
1, 27799, Note_off_c, 0, 98, 69
1, 27806, Note_on_c, 0, 95, 70
1, 27819, Note_off_c, 0, 83, 59
1, 27837, Note_off_c, 0, 95, 62
1, 27849, Note_on_c, 0, 83, 55
1, 27867, Note_on_c, 0, 89, 87
1, 27908, Note_on_c, 0, 97, 60
1, 27913, Note_on_c, 0, 91, 72
1, 27921, Note_on_c, 0, 99, 20
1, 27922, Note_off_c, 0, 99, 127
1, 27923, Note_on_c, 0, 96, 67
1, 27927, Note_off_c, 0, 83, 0
1, 27929, Note_off_c, 0, 97, 59
1, 27938, Note_on_c, 0, 98, 14
1, 27939, Note_off_c, 0, 98, 127
1, 27939, Note_off_c, 0, 89, 66
1, 27940, Note_off_c, 0, 96, 65
1, 27945, Note_on_c, 0, 83, 49
1, 27947, Note_off_c, 0, 91, 64
1, 27957, Note_off_c, 0, 92, 65
1, 27996, Note_off_c, 0, 82, 0
1, 27996, Note_on_c, 0, 82, 20
1, 28013, Note_off_c, 0, 83, 63
1, 28046, Note_off_c, 0, 82, 57
1, 28065, Note_on_c, 0, 78, 90
1, 28084, Note_off_c, 0, 78, 69
1, 28106, Note_on_c, 0, 69, 79
1, 28120, Note_on_c, 0, 70, 53
1, 28147, Note_on_c, 0, 73, 95
1, 28147, Note_off_c, 0, 70, 57
1, 28157, Note_off_c, 0, 69, 66
1, 28175, Note_off_c, 0, 73, 66
1, 28186, Note_on_c, 0, 82, 108
1, 28222, Note_off_c, 0, 82, 65
1, 28231, Note_on_c, 0, 83, 37
1, 28301, Poly_aftertouch_c, 0, 85, 0
1, 28312, Note_on_c, 0, 82, 62
1, 28338, Note_off_c, 0, 83, 0
1, 28359, Note_on_c, 0, 83, 38
1, 28366, Note_off_c, 0, 82, 61
1, 28431, Note_off_c, 0, 83, 63
1, 28445, Note_on_c, 0, 82, 46
1, 28467, Note_on_c, 0, 83, 54
1, 28473, Note_off_c, 0, 82, 56
1, 28537, Note_off_c, 0, 83, 63
1, 28538, Note_on_c, 0, 82, 76
1, 28572, Note_on_c, 0, 63, 84
1, 28578, Note_on_c, 0, 73, 76
1, 28580, Note_off_c, 0, 82, 60
1, 28590, Note_on_c, 0, 83, 69
1, 28634, Note_off_c, 0, 73, 62
1, 28657, Note_on_c, 0, 66, 75
1, 28661, Note_off_c, 0, 83, 63
1, 28663, Note_on_c, 0, 82, 70
1, 28677, Note_off_c, 0, 63, 61
1, 28687, Note_on_c, 0, 72, 83
1, 28689, Note_off_c, 0, 82, 67
1, 28703, Note_on_c, 0, 64, 80
1, 28713, Note_off_c, 0, 72, 66
1, 28726, Note_on_c, 0, 69, 87
1, 28737, Note_on_c, 0, 74, 50
1, 28749, Note_on_c, 0, 72, 43
1, 28756, Note_off_c, 0, 66, 69
1, 28762, Note_off_c, 0, 69, 72
1, 28762, Note_off_c, 0, 74, 59
1, 28766, Note_off_c, 0, 72, 65
1, 28771, Note_off_c, 0, 64, 67
1, 28789, Note_on_c, 0, 67, 47
1, 28805, Note_on_c, 0, 79, 68
1, 28818, Note_off_c, 0, 67, 59
1, 28827, Note_on_c, 0, 86, 82
1, 28828, Note_off_c, 0, 79, 65
1, 28845, Note_off_c, 0, 86, 71
1, 28878, Note_on_c, 0, 82, 101
1, 28913, Note_off_c, 0, 82, 64
1, 28914, Note_on_c, 0, 81, 51
1, 28935, Note_off_c, 0, 81, 58
1, 28950, Note_on_c, 0, 83, 57
1, 29015, Note_on_c, 0, 82, 54
1, 29019, Note_off_c, 0, 83, 64
1, 29072, Note_on_c, 0, 83, 65
1, 29097, Note_off_c, 0, 82, 37
1, 29135, Note_off_c, 0, 83, 63
1, 29140, Note_on_c, 0, 82, 59
1, 29185, Note_on_c, 0, 83, 68
1, 29188, Note_off_c, 0, 82, 61
1, 29245, Note_off_c, 0, 83, 62
1, 29255, Note_on_c, 0, 82, 60
1, 29290, Note_off_c, 0, 82, 63
1, 29303, Note_on_c, 0, 83, 62
1, 29357, Note_off_c, 0, 83, 62
1, 29361, Note_on_c, 0, 82, 73
1, 29401, Note_off_c, 0, 82, 58
1, 29423, Note_on_c, 0, 83, 61
1, 29473, Note_off_c, 0, 83, 63
1, 29482, Note_on_c, 0, 82, 65
1, 29525, Note_off_c, 0, 82, 58
1, 29537, Note_on_c, 0, 83, 60
1, 29594, Note_off_c, 0, 83, 62
1, 29610, Note_on_c, 0, 82, 67
1, 29656, Note_off_c, 0, 82, 60
1, 29665, Note_on_c, 0, 83, 61
1, 29723, Note_off_c, 0, 83, 60
1, 29728, Note_on_c, 0, 82, 60
1, 29786, Note_off_c, 0, 82, 61
1, 29789, Note_on_c, 0, 83, 53
1, 29850, Note_on_c, 0, 82, 59
1, 29851, Note_off_c, 0, 83, 62
1, 29902, Note_off_c, 0, 82, 61
1, 29907, Note_on_c, 0, 83, 59
1, 29966, Note_off_c, 0, 83, 62
1, 29968, Note_on_c, 0, 82, 59
1, 30011, Note_off_c, 0, 82, 60
1, 30020, Note_on_c, 0, 83, 60
1, 30032, Note_on_c, 0, 64, 36
1, 30043, Note_on_c, 0, 60, 45
1, 30044, Note_on_c, 0, 65, 63
1, 30045, Note_on_c, 0, 56, 53
1, 30045, Note_on_c, 0, 62, 52
1, 30055, Note_on_c, 0, 61, 56
1, 30056, Note_on_c, 0, 58, 49
1, 30061, Note_on_c, 0, 59, 47
1, 30062, Note_on_c, 0, 55, 48
1, 30064, Note_on_c, 0, 57, 47
1, 30065, Note_on_c, 0, 63, 50
1, 30082, Note_off_c, 0, 83, 59
1, 30084, Note_off_c, 0, 62, 0
1, 30084, Note_on_c, 0, 62, 21
1, 30084, Note_on_c, 0, 82, 59
1, 30115, Note_off_c, 0, 59, 0
1, 30115, Note_on_c, 0, 59, 13
1, 30128, Note_on_c, 0, 83, 58
1, 30132, Note_off_c, 0, 82, 60
1, 30199, Note_on_c, 0, 82, 56
1, 30227, Note_off_c, 0, 83, 0
1, 30238, Note_on_c, 0, 83, 50
1, 30258, Note_off_c, 0, 82, 54
1, 30304, Note_on_c, 0, 82, 48
1, 30345, Note_off_c, 0, 82, 63
1, 30407, Note_on_c, 0, 82, 78
1, 30411, Note_off_c, 0, 83, 57
1, 30434, Note_off_c, 0, 82, 63
1, 30497, Control_c, 0, 67, 12
1, 30519, Control_c, 0, 67, 26
1, 30534, Control_c, 0, 67, 34
1, 30549, Note_on_c, 0, 73, 77
1, 30549, Control_c, 0, 67, 38
1, 30564, Control_c, 0, 67, 41
1, 30577, Note_off_c, 0, 73, 63
1, 30579, Control_c, 0, 67, 46
1, 30593, Control_c, 0, 64, 81
1, 30593, Control_c, 0, 67, 49
1, 30608, Control_c, 0, 64, 48
1, 30608, Control_c, 0, 67, 52
1, 30623, Control_c, 0, 64, 0
1, 30623, Control_c, 0, 67, 58
1, 30637, Control_c, 0, 67, 69
1, 30652, Control_c, 0, 67, 83
1, 30667, Control_c, 0, 67, 95
1, 30682, Control_c, 0, 67, 103
1, 30685, Note_on_c, 0, 76, 72
1, 30697, Control_c, 0, 67, 107
1, 30710, Note_off_c, 0, 76, 68
1, 30711, Control_c, 0, 67, 111
1, 30726, Control_c, 0, 67, 117
1, 30741, Control_c, 0, 67, 127
1, 30834, Note_on_c, 0, 68, 76
1, 30855, Note_off_c, 0, 68, 72
1, 30991, Note_on_c, 0, 67, 67
1, 31018, Note_off_c, 0, 67, 62
1, 31152, Note_on_c, 0, 69, 62
1, 31177, Note_off_c, 0, 69, 72
1, 31320, Note_on_c, 0, 72, 60
1, 31350, Note_off_c, 0, 72, 65
1, 31489, Note_on_c, 0, 77, 64
1, 31521, Note_off_c, 0, 77, 63
1, 31712, Note_on_c, 0, 71, 57
1, 31743, Note_off_c, 0, 71, 66
1, 32261, Note_on_c, 0, 78, 66
1, 32288, Note_off_c, 0, 78, 64
1, 32714, Note_on_c, 0, 86, 51
1, 32780, Note_off_c, 0, 86, 56
1, 33889, Note_off_c, 0, 60, 63
1, 33889, Note_off_c, 0, 57, 62
1, 33889, Note_off_c, 0, 59, 53
1, 33892, Note_off_c, 0, 55, 64
1, 33895, Note_off_c, 0, 63, 61
1, 33898, Note_off_c, 0, 62, 54
1, 33901, Note_off_c, 0, 61, 56
1, 33901, Note_off_c, 0, 65, 54
1, 33904, Note_off_c, 0, 58, 61
1, 33904, Note_off_c, 0, 64, 61
1, 33907, Note_off_c, 0, 56, 62
1, 33974, Control_c, 0, 67, 113
1, 33989, Control_c, 0, 67, 71
1, 34004, Control_c, 0, 67, 25
1, 34019, Control_c, 0, 67, 0
1, 34107, Control_c, 0, 64, 25
1, 34109, Note_on_c, 0, 90, 86
1, 34123, Control_c, 0, 64, 78
1, 34138, Control_c, 0, 64, 127
1, 34171, Note_on_c, 0, 86, 90
1, 34184, Note_off_c, 0, 90, 64
1, 34189, Note_off_c, 0, 86, 71
1, 34235, Note_on_c, 0, 77, 77
1, 34294, Note_on_c, 0, 81, 83
1, 34304, Note_off_c, 0, 77, 60
1, 34345, Note_off_c, 0, 81, 62
1, 34365, Note_on_c, 0, 75, 89
1, 34390, Note_off_c, 0, 75, 68
1, 34425, Note_on_c, 0, 92, 88
1, 34482, Note_off_c, 0, 92, 60
1, 34494, Note_on_c, 0, 83, 81
1, 34539, Note_off_c, 0, 83, 59
1, 34567, Note_on_c, 0, 97, 85
1, 34605, Note_off_c, 0, 97, 63
1, 34625, Note_on_c, 0, 72, 86
1, 34648, Note_off_c, 0, 72, 66
1, 34685, Note_on_c, 0, 88, 76
1, 34745, Note_on_c, 0, 79, 84
1, 34759, Note_off_c, 0, 88, 65
1, 34766, Note_off_c, 0, 79, 68
1, 34829, Note_on_c, 0, 70, 88
1, 34846, Note_off_c, 0, 70, 74
1, 35774, Note_on_c, 0, 90, 94
1, 35835, Note_on_c, 0, 86, 87
1, 35845, Note_off_c, 0, 90, 63
1, 35853, Note_off_c, 0, 86, 71
1, 35904, Note_on_c, 0, 77, 82
1, 35959, Note_off_c, 0, 77, 58
1, 35961, Note_on_c, 0, 81, 78
1, 36008, Note_off_c, 0, 81, 60
1, 36030, Note_on_c, 0, 75, 87
1, 36050, Note_off_c, 0, 75, 70
1, 36086, Note_on_c, 0, 92, 81
1, 36132, Note_off_c, 0, 92, 63
1, 36154, Note_on_c, 0, 83, 76
1, 36185, Note_off_c, 0, 83, 58
1, 36220, Note_on_c, 0, 97, 77
1, 36249, Note_off_c, 0, 97, 65
1, 36288, Note_on_c, 0, 72, 79
1, 36306, Note_off_c, 0, 72, 73
1, 36333, Note_on_c, 0, 88, 71
1, 36394, Note_off_c, 0, 88, 63
1, 36408, Note_on_c, 0, 79, 77
1, 36435, Note_off_c, 0, 79, 64
1, 36499, Note_on_c, 0, 70, 73
1, 36519, Note_off_c, 0, 70, 71
1, 36557, Note_on_c, 0, 83, 73
1, 36623, Note_off_c, 0, 83, 60
1, 36625, Note_on_c, 0, 74, 65
1, 36650, Note_off_c, 0, 74, 70
1, 36693, Note_on_c, 0, 67, 70
1, 36756, Note_off_c, 0, 67, 52
1, 36766, Note_on_c, 0, 61, 82
1, 36789, Note_off_c, 0, 61, 67
1, 36819, Note_on_c, 0, 68, 71
1, 36893, Note_on_c, 0, 77, 73
1, 36898, Note_off_c, 0, 68, 63
1, 36917, Note_on_c, 0, 76, 55
1, 36932, Note_off_c, 0, 77, 59
1, 36937, Note_off_c, 0, 76, 64
1, 36949, Note_on_c, 0, 63, 88
1, 36971, Note_off_c, 0, 63, 64
1, 36995, Note_on_c, 0, 52, 77
1, 37048, Note_on_c, 0, 60, 83
1, 37067, Note_off_c, 0, 60, 71
1, 37072, Note_off_c, 0, 52, 67
1, 37117, Note_on_c, 0, 57, 86
1, 37168, Note_off_c, 0, 57, 61
1, 37186, Note_on_c, 0, 66, 84
1, 37227, Note_on_c, 0, 46, 95
1, 37237, Note_off_c, 0, 66, 64
1, 37278, Note_off_c, 0, 46, 62
1, 37299, Note_on_c, 0, 63, 92
1, 37328, Note_on_c, 0, 61, 48
1, 37331, Poly_aftertouch_c, 0, 47, 127
1, 37351, Note_off_c, 0, 61, 58
1, 37362, Poly_aftertouch_c, 0, 47, 0
1, 37378, Note_on_c, 0, 69, 88
1, 37382, Note_off_c, 0, 63, 65
1, 37406, Note_on_c, 0, 66, 51
1, 37424, Note_off_c, 0, 66, 65
1, 37433, Note_on_c, 0, 55, 84
1, 37454, Note_off_c, 0, 69, 61
1, 37469, Note_off_c, 0, 55, 64
1, 37487, Note_on_c, 0, 48, 87
1, 37553, Note_on_c, 0, 37, 93
1, 37555, Note_off_c, 0, 48, 61
1, 37601, Note_off_c, 0, 37, 64
1, 37615, Note_on_c, 0, 68, 65
1, 37666, Note_on_c, 0, 72, 80
1, 37681, Note_on_c, 0, 70, 42
1, 37709, Note_off_c, 0, 70, 58
1, 37713, Note_off_c, 0, 72, 64
1, 37715, Note_off_c, 0, 68, 61
1, 37716, Note_on_c, 0, 59, 80
1, 37746, Note_off_c, 0, 59, 64
1, 37779, Note_on_c, 0, 30, 89
1, 37779, Note_on_c, 0, 41, 86
1, 37829, Note_on_c, 0, 40, 22
1, 37830, Note_off_c, 0, 40, 127
1, 37833, Note_on_c, 0, 29, 32
1, 37856, Note_on_c, 0, 38, 86
1, 37871, Note_off_c, 0, 41, 65
1, 37872, Poly_aftertouch_c, 0, 40, 0
1, 37874, Note_off_c, 0, 29, 48
1, 37878, Note_off_c, 0, 30, 64
1, 37904, Note_off_c, 0, 38, 64
1, 37962, Note_on_c, 0, 57, 79
1, 37964, Note_on_c, 0, 51, 70
1, 37970, Note_on_c, 0, 44, 78
1, 38014, Note_off_c, 0, 44, 63
1, 38039, Note_off_c, 0, 57, 60
1, 38054, Note_off_c, 0, 51, 58
1, 38220, Note_on_c, 0, 48, 110
1, 38224, Note_on_c, 0, 37, 95
1, 38230, Note_on_c, 0, 35, 90
1, 38260, Control_c, 0, 64, 72
1, 38274, Note_on_c, 0, 36, 28
1, 38275, Control_c, 0, 64, 0
1, 38393, Note_off_c, 0, 36, 24
1, 39127, Note_on_c, 0, 88, 89
1, 39179, Note_on_c, 0, 79, 99
1, 39218, Note_off_c, 0, 88, 65
1, 39230, Note_off_c, 0, 79, 67
1, 39520, Note_on_c, 0, 70, 107
1, 39558, Note_off_c, 0, 70, 67
1, 40847, Control_c, 0, 64, 35
1, 40862, Control_c, 0, 64, 47
1, 40877, Control_c, 0, 64, 54
1, 40892, Control_c, 0, 64, 58
1, 40907, Control_c, 0, 64, 59
1, 40921, Control_c, 0, 64, 61
1, 40936, Control_c, 0, 64, 62
1, 40951, Control_c, 0, 64, 65
1, 40966, Control_c, 0, 64, 69
1, 40980, Control_c, 0, 64, 77
1, 41003, Control_c, 0, 64, 98
1, 41018, Control_c, 0, 64, 127
1, 41029, Note_on_c, 0, 88, 71
1, 41072, Note_on_c, 0, 79, 94
1, 41103, Note_off_c, 0, 88, 65
1, 41109, Note_off_c, 0, 79, 68
1, 41442, Note_on_c, 0, 79, 97
1, 41489, Note_off_c, 0, 79, 62
1, 41705, Note_on_c, 0, 79, 95
1, 41760, Note_off_c, 0, 79, 63
1, 41907, Note_on_c, 0, 79, 95
1, 41973, Note_off_c, 0, 79, 54
1, 42083, Note_on_c, 0, 79, 90
1, 42153, Note_off_c, 0, 79, 59
1, 42248, Note_on_c, 0, 79, 90
1, 42333, Note_off_c, 0, 79, 58
1, 42402, Note_on_c, 0, 79, 90
1, 42489, Note_off_c, 0, 79, 58
1, 42582, Note_on_c, 0, 79, 85
1, 42630, Note_off_c, 0, 79, 61
1, 42716, Note_on_c, 0, 71, 77
1, 42742, Note_off_c, 0, 71, 63
1, 42860, Note_on_c, 0, 68, 87
1, 42885, Note_off_c, 0, 68, 64
1, 42960, Control_c, 0, 64, 76
1, 42975, Control_c, 0, 64, 53
1, 42990, Control_c, 0, 64, 0
1, 44709, Note_on_c, 0, 64, 44
1, 44717, Note_on_c, 0, 58, 40
1, 44741, Note_on_c, 0, 53, 34
1, 44953, Control_c, 0, 64, 37
1, 44968, Control_c, 0, 64, 46
1, 44983, Control_c, 0, 64, 50
1, 44998, Control_c, 0, 64, 55
1, 45012, Control_c, 0, 64, 59
1, 45027, Control_c, 0, 64, 61
1, 45042, Control_c, 0, 64, 64
1, 45042, Control_c, 0, 67, 11
1, 45056, Control_c, 0, 64, 66
1, 45056, Control_c, 0, 67, 21
1, 45071, Control_c, 0, 64, 70
1, 45071, Control_c, 0, 67, 27
1, 45086, Control_c, 0, 64, 76
1, 45086, Control_c, 0, 67, 31
1, 45101, Control_c, 0, 64, 83
1, 45101, Control_c, 0, 67, 32
1, 45116, Control_c, 0, 64, 92
1, 45116, Control_c, 0, 67, 34
1, 45130, Control_c, 0, 64, 109
1, 45130, Control_c, 0, 67, 37
1, 45145, Control_c, 0, 64, 127
1, 45145, Control_c, 0, 67, 41
1, 45160, Control_c, 0, 67, 47
1, 45175, Control_c, 0, 67, 54
1, 45190, Control_c, 0, 67, 59
1, 45204, Control_c, 0, 67, 60
1, 45219, Control_c, 0, 67, 61
1, 45249, Control_c, 0, 67, 63
1, 45255, Note_off_c, 0, 37, 48
1, 45264, Control_c, 0, 67, 66
1, 45279, Control_c, 0, 67, 71
1, 45294, Control_c, 0, 67, 74
1, 45300, Note_off_c, 0, 35, 39
1, 45310, Control_c, 0, 67, 76
1, 45325, Control_c, 0, 67, 79
1, 45331, Note_off_c, 0, 48, 32
1, 45340, Control_c, 0, 67, 82
1, 45355, Control_c, 0, 67, 88
1, 45369, Control_c, 0, 67, 91
1, 45384, Control_c, 0, 67, 94
1, 45399, Control_c, 0, 67, 96
1, 45414, Control_c, 0, 67, 98
1, 45428, Control_c, 0, 67, 101
1, 45443, Control_c, 0, 67, 106
1, 45458, Control_c, 0, 67, 113
1, 45473, Control_c, 0, 67, 119
1, 45495, Control_c, 0, 67, 124
1, 45510, Control_c, 0, 67, 126
1, 45525, Control_c, 0, 67, 127
1, 46081, Note_on_c, 0, 37, 42
1, 46090, Note_on_c, 0, 48, 36
1, 46097, Note_on_c, 0, 35, 30
1, 46207, Control_c, 0, 64, 119
1, 46222, Control_c, 0, 64, 90
1, 46245, Control_c, 0, 64, 78
1, 46259, Control_c, 0, 64, 70
1, 46274, Control_c, 0, 64, 64
1, 46289, Control_c, 0, 64, 53
1, 46304, Control_c, 0, 64, 15
1, 46318, Control_c, 0, 64, 0
1, 46481, Control_c, 0, 64, 39
1, 46496, Control_c, 0, 64, 53
1, 46510, Control_c, 0, 64, 60
1, 46525, Control_c, 0, 64, 63
1, 46540, Control_c, 0, 64, 65
1, 46555, Control_c, 0, 64, 67
1, 46570, Control_c, 0, 64, 70
1, 46585, Control_c, 0, 64, 73
1, 46599, Control_c, 0, 64, 76
1, 46606, Note_off_c, 0, 53, 42
1, 46612, Note_off_c, 0, 58, 0
1, 46614, Control_c, 0, 64, 81
1, 46629, Control_c, 0, 64, 88
1, 46644, Control_c, 0, 64, 97
1, 46653, Poly_aftertouch_c, 0, 58, 0
1, 46659, Control_c, 0, 64, 117
1, 46674, Control_c, 0, 64, 127
1, 46717, Note_off_c, 0, 64, 55
1, 47023, Control_c, 0, 67, 125
1, 47038, Control_c, 0, 67, 120
1, 47053, Control_c, 0, 67, 115
1, 47067, Control_c, 0, 67, 110
1, 47082, Control_c, 0, 67, 103
1, 47097, Control_c, 0, 67, 95
1, 47112, Control_c, 0, 67, 83
1, 47124, Note_on_c, 0, 88, 63
1, 47127, Control_c, 0, 67, 73
1, 47141, Control_c, 0, 67, 61
1, 47156, Control_c, 0, 67, 52
1, 47171, Control_c, 0, 67, 46
1, 47186, Control_c, 0, 67, 41
1, 47201, Control_c, 0, 67, 36
1, 47205, Note_on_c, 0, 79, 75
1, 47215, Control_c, 0, 67, 32
1, 47222, Note_off_c, 0, 88, 62
1, 47230, Control_c, 0, 67, 28
1, 47245, Control_c, 0, 67, 23
1, 47246, Note_off_c, 0, 79, 59
1, 47259, Control_c, 0, 67, 18
1, 47274, Control_c, 0, 67, 12
1, 47289, Control_c, 0, 67, 0
1, 47455, Note_on_c, 0, 79, 78
1, 47505, Note_off_c, 0, 79, 58
1, 47644, Note_on_c, 0, 79, 79
1, 47694, Note_off_c, 0, 79, 61
1, 47804, Note_on_c, 0, 79, 82
1, 47860, Note_off_c, 0, 79, 59
1, 47939, Note_on_c, 0, 79, 82
1, 47987, Note_off_c, 0, 79, 60
1, 48056, Note_on_c, 0, 79, 82
1, 48097, Note_off_c, 0, 79, 61
1, 48155, Note_on_c, 0, 79, 74
1, 48196, Note_off_c, 0, 79, 62
1, 48257, Note_on_c, 0, 79, 82
1, 48297, Note_off_c, 0, 79, 63
1, 48364, Note_on_c, 0, 79, 79
1, 48412, Note_off_c, 0, 79, 62
1, 48467, Note_on_c, 0, 79, 73
1, 48525, Note_off_c, 0, 79, 65
1, 48585, Note_on_c, 0, 79, 75
1, 48645, Note_off_c, 0, 79, 59
1, 48718, Note_on_c, 0, 79, 76
1, 48761, Note_off_c, 0, 79, 57
1, 48817, Note_on_c, 0, 75, 65
1, 48844, Note_off_c, 0, 75, 67
1, 48892, Control_c, 0, 64, 78
1, 48906, Control_c, 0, 64, 62
1, 48916, Note_on_c, 0, 66, 64
1, 48921, Control_c, 0, 64, 0
1, 48944, Note_off_c, 0, 66, 68
1, 51103, Note_on_c, 0, 57, 31
1, 51113, Note_on_c, 0, 44, 24
1, 51121, Note_on_c, 0, 50, 33
1, 51390, Control_c, 0, 64, 39
1, 51405, Control_c, 0, 64, 50
1, 51420, Control_c, 0, 64, 55
1, 51434, Control_c, 0, 64, 58
1, 51449, Control_c, 0, 64, 61
1, 51464, Control_c, 0, 64, 63
1, 51486, Control_c, 0, 64, 64
1, 51501, Control_c, 0, 64, 67
1, 51515, Control_c, 0, 64, 70
1, 51530, Control_c, 0, 64, 74
1, 51545, Control_c, 0, 64, 80
1, 51560, Control_c, 0, 64, 90
1, 51575, Control_c, 0, 64, 102
1, 51589, Control_c, 0, 64, 127
1, 51756, Note_off_c, 0, 35, 39
1, 51756, Note_off_c, 0, 37, 43
1, 51774, Note_off_c, 0, 48, 35
1, 52561, Note_on_c, 0, 48, 38
1, 52563, Note_on_c, 0, 37, 29
1, 52564, Note_on_c, 0, 35, 33
1, 52665, Note_off_c, 0, 44, 42
1, 52757, Note_off_c, 0, 50, 27
1, 52877, Note_off_c, 0, 57, 40
1, 53624, Note_on_c, 0, 88, 39
1, 53698, Note_on_c, 0, 79, 58
1, 53709, Note_off_c, 0, 88, 59
1, 53743, Note_off_c, 0, 79, 59
1, 53836, Control_c, 0, 67, 14
1, 53851, Control_c, 0, 67, 21
1, 53866, Control_c, 0, 67, 29
1, 53881, Control_c, 0, 67, 40
1, 53895, Control_c, 0, 67, 49
1, 53910, Control_c, 0, 67, 57
1, 53925, Control_c, 0, 67, 62
1, 53926, Note_on_c, 0, 79, 49
1, 53940, Control_c, 0, 67, 66
1, 53948, Note_off_c, 0, 79, 58
1, 53955, Control_c, 0, 67, 69
1, 53969, Control_c, 0, 67, 75
1, 53984, Control_c, 0, 67, 82
1, 53999, Control_c, 0, 67, 87
1, 54014, Control_c, 0, 67, 91
1, 54028, Control_c, 0, 67, 95
1, 54043, Control_c, 0, 67, 101
1, 54058, Control_c, 0, 67, 108
1, 54059, Note_on_c, 0, 79, 52
1, 54073, Control_c, 0, 67, 115
1, 54088, Control_c, 0, 67, 122
1, 54104, Control_c, 0, 67, 127
1, 54105, Note_off_c, 0, 79, 58
1, 54211, Note_on_c, 0, 79, 57
1, 54231, Note_off_c, 0, 79, 64
1, 54293, Note_on_c, 0, 79, 74
1, 54313, Note_off_c, 0, 79, 67
1, 54373, Note_on_c, 0, 79, 69
1, 54396, Note_off_c, 0, 79, 65
1, 54447, Note_on_c, 0, 79, 70
1, 54478, Note_off_c, 0, 79, 65
1, 54529, Note_on_c, 0, 79, 78
1, 54561, Note_off_c, 0, 79, 60
1, 54623, Note_on_c, 0, 79, 72
1, 54645, Note_off_c, 0, 79, 65
1, 54716, Note_on_c, 0, 79, 59
1, 54736, Note_off_c, 0, 79, 61
1, 54814, Note_on_c, 0, 79, 65
1, 54863, Note_off_c, 0, 79, 60
1, 54968, Note_on_c, 0, 79, 65
1, 54995, Note_off_c, 0, 79, 62
1, 55125, Note_on_c, 0, 79, 64
1, 55160, Note_off_c, 0, 79, 55
1, 55284, Note_on_c, 0, 79, 57
1, 55339, Note_off_c, 0, 79, 55
1, 55440, Note_on_c, 0, 79, 68
1, 55464, Note_off_c, 0, 79, 65
1, 55510, Control_c, 0, 64, 113
1, 55525, Control_c, 0, 64, 70
1, 55539, Control_c, 0, 64, 0
1, 55594, Note_on_c, 0, 70, 58
1, 55614, Note_off_c, 0, 70, 66
1, 55812, Note_on_c, 0, 61, 59
1, 55842, Note_off_c, 0, 61, 64
1, 57979, Note_on_c, 0, 51, 31
1, 57988, Note_on_c, 0, 43, 25
1, 57999, Note_on_c, 0, 42, 21
1, 58225, Control_c, 0, 64, 30
1, 58240, Control_c, 0, 64, 48
1, 58255, Control_c, 0, 64, 55
1, 58270, Control_c, 0, 64, 57
1, 58285, Control_c, 0, 64, 59
1, 58299, Control_c, 0, 64, 60
1, 58314, Control_c, 0, 64, 62
1, 58329, Control_c, 0, 64, 63
1, 58344, Control_c, 0, 64, 64
1, 58359, Control_c, 0, 64, 66
1, 58373, Control_c, 0, 64, 67
1, 58388, Control_c, 0, 64, 69
1, 58403, Control_c, 0, 64, 71
1, 58417, Control_c, 0, 64, 73
1, 58432, Control_c, 0, 64, 76
1, 58447, Control_c, 0, 64, 79
1, 58462, Control_c, 0, 64, 82
1, 58477, Control_c, 0, 64, 86
1, 58491, Control_c, 0, 64, 91
1, 58499, Note_off_c, 0, 37, 32
1, 58506, Control_c, 0, 64, 97
1, 58521, Control_c, 0, 64, 105
1, 58536, Control_c, 0, 64, 127
1, 58570, Note_off_c, 0, 35, 30
1, 58652, Note_off_c, 0, 48, 30
1, 59483, Note_on_c, 0, 37, 25
1, 59501, Note_on_c, 0, 48, 23
1, 59509, Note_on_c, 0, 35, 19
1, 59626, Note_off_c, 0, 43, 33
1, 59628, Note_off_c, 0, 42, 34
1, 59791, Note_off_c, 0, 51, 37
1, 60605, Control_c, 0, 64, 79
1, 60619, Note_on_c, 0, 79, 50
1, 60619, Control_c, 0, 64, 57
1, 60634, Control_c, 0, 64, 0
1, 60649, Note_off_c, 0, 79, 52
1, 60780, Note_on_c, 0, 70, 42
1, 60808, Note_off_c, 0, 70, 58
1, 61001, Note_on_c, 0, 61, 49
1, 61030, Note_off_c, 0, 61, 60
1, 62295, Control_c, 0, 64, 28
1, 62310, Control_c, 0, 64, 38
1, 62325, Control_c, 0, 64, 42
1, 62339, Control_c, 0, 64, 44
1, 62354, Control_c, 0, 64, 46
1, 62369, Control_c, 0, 64, 51
1, 62383, Control_c, 0, 64, 54
1, 62398, Control_c, 0, 64, 58
1, 62413, Control_c, 0, 64, 60
1, 62428, Control_c, 0, 64, 62
1, 62443, Control_c, 0, 64, 63
1, 62458, Control_c, 0, 64, 63
1, 62473, Control_c, 0, 64, 64
1, 62488, Control_c, 0, 64, 65
1, 62503, Control_c, 0, 64, 66
1, 62517, Control_c, 0, 64, 67
1, 62532, Control_c, 0, 64, 69
1, 62547, Control_c, 0, 64, 71
1, 62562, Control_c, 0, 64, 73
1, 62577, Control_c, 0, 64, 74
1, 62592, Control_c, 0, 64, 76
1, 62607, Control_c, 0, 64, 78
1, 62622, Control_c, 0, 64, 81
1, 62637, Control_c, 0, 64, 84
1, 62652, Control_c, 0, 64, 87
1, 62666, Control_c, 0, 64, 90
1, 62681, Control_c, 0, 64, 93
1, 62696, Control_c, 0, 64, 97
1, 62718, Control_c, 0, 64, 103
1, 62733, Control_c, 0, 64, 113
1, 62747, Control_c, 0, 64, 127
1, 63147, Note_on_c, 0, 42, 24
1, 63147, Note_on_c, 0, 43, 32
1, 63154, Note_on_c, 0, 51, 31
1, 63617, Note_off_c, 0, 48, 38
1, 63766, Note_off_c, 0, 35, 37
1, 63846, Note_off_c, 0, 37, 40
1, 65427, Note_on_c, 0, 21, 34
1, 65454, Note_on_c, 0, 32, 31
1, 65464, Note_on_c, 0, 22, 21
1, 65478, Note_on_c, 0, 25, 3
1, 65483, Note_on_c, 0, 30, 30
1, 65486, Note_on_c, 0, 23, 19
1, 65486, Note_on_c, 0, 27, 25
1, 65489, Note_on_c, 0, 28, 25
1, 65492, Note_on_c, 0, 24, 3
1, 65492, Note_on_c, 0, 29, 23
1, 65513, Note_on_c, 0, 26, 11
1, 65587, Control_c, 0, 64, 105
1, 65596, Note_off_c, 0, 43, 34
1, 65601, Control_c, 0, 64, 93
1, 65616, Control_c, 0, 64, 83
1, 65631, Control_c, 0, 64, 75
1, 65646, Control_c, 0, 64, 68
1, 65654, Note_off_c, 0, 42, 33
1, 65661, Control_c, 0, 64, 62
1, 65665, Note_off_c, 0, 51, 35
1, 65675, Control_c, 0, 64, 37
1, 65690, Control_c, 0, 64, 0
1, 68840, Note_on_c, 0, 90, 62
1, 68867, Note_off_c, 0, 90, 67
1, 69347, Note_on_c, 0, 86, 55
1, 69377, Note_off_c, 0, 86, 64
1, 69776, Note_on_c, 0, 77, 57
1, 69799, Note_off_c, 0, 77, 64
1, 70023, Note_on_c, 0, 81, 65
1, 70047, Note_off_c, 0, 81, 67
1, 70487, Note_on_c, 0, 75, 48
1, 70510, Note_off_c, 0, 75, 58
1, 70772, Note_on_c, 0, 92, 65
1, 70810, Note_off_c, 0, 92, 61
1, 71458, Note_on_c, 0, 83, 68
1, 71481, Note_off_c, 0, 83, 66
1, 71904, Note_on_c, 0, 97, 54
1, 71925, Note_off_c, 0, 97, 61
1, 72208, Note_on_c, 0, 72, 54
1, 72232, Note_off_c, 0, 72, 64
1, 72602, Note_on_c, 0, 88, 58
1, 72623, Note_off_c, 0, 88, 62
1, 72716, Note_on_c, 0, 79, 48
1, 72739, Note_off_c, 0, 79, 55
1, 72828, Note_on_c, 0, 70, 67
1, 72852, Note_off_c, 0, 70, 69
1, 72949, Note_on_c, 0, 90, 70
1, 72973, Note_off_c, 0, 90, 66
1, 73070, Note_on_c, 0, 75, 61
1, 73089, Note_off_c, 0, 75, 64
1, 73383, Note_on_c, 0, 84, 61
1, 73406, Note_off_c, 0, 84, 66
1, 73498, Note_on_c, 0, 92, 63
1, 73526, Note_off_c, 0, 92, 65
1, 73613, Note_on_c, 0, 81, 54
1, 73635, Note_off_c, 0, 81, 62
1, 73737, Note_on_c, 0, 79, 45
1, 73760, Note_off_c, 0, 79, 57
1, 73863, Note_on_c, 0, 88, 49
1, 73888, Note_off_c, 0, 88, 55
1, 74268, Note_on_c, 0, 83, 58
1, 74288, Note_off_c, 0, 83, 64
1, 74387, Note_on_c, 0, 77, 55
1, 74408, Note_off_c, 0, 77, 61
1, 74504, Note_on_c, 0, 85, 50
1, 74526, Note_off_c, 0, 85, 59
1, 74611, Note_on_c, 0, 82, 60
1, 74630, Note_off_c, 0, 82, 65
1, 74733, Note_on_c, 0, 74, 56
1, 74753, Note_off_c, 0, 74, 65
1, 74831, Note_off_c, 0, 30, 0
1, 74861, Note_on_c, 0, 90, 69
1, 74868, Poly_aftertouch_c, 0, 30, 127
1, 74888, Note_off_c, 0, 90, 66
1, 74976, Note_on_c, 0, 98, 72
1, 74985, Note_off_c, 0, 32, 0
1, 74995, Note_off_c, 0, 98, 73
1, 75022, Poly_aftertouch_c, 0, 32, 127
1, 75100, Note_on_c, 0, 90, 76
1, 75121, Note_off_c, 0, 90, 68
1, 75169, Note_off_c, 0, 23, 0
1, 75206, Poly_aftertouch_c, 0, 23, 127
1, 75222, Note_on_c, 0, 98, 69
1, 75246, Note_off_c, 0, 98, 69
1, 75341, Note_on_c, 0, 89, 54
1, 75362, Note_off_c, 0, 89, 64
1, 75469, Note_on_c, 0, 81, 63
1, 75497, Note_off_c, 0, 81, 65
1, 75585, Note_on_c, 0, 89, 68
1, 75611, Note_off_c, 0, 89, 68
1, 75705, Note_on_c, 0, 81, 55
1, 75724, Note_off_c, 0, 81, 61
1, 75830, Note_on_c, 0, 75, 65
1, 75857, Note_off_c, 0, 75, 69
1, 75950, Note_on_c, 0, 80, 51
1, 75970, Note_off_c, 0, 80, 62
1, 76177, Note_on_c, 0, 85, 79
1, 76211, Note_off_c, 0, 85, 63
1, 76306, Note_on_c, 0, 96, 85
1, 76325, Note_off_c, 0, 96, 71
1, 76422, Note_on_c, 0, 85, 73
1, 76444, Note_off_c, 0, 85, 68
1, 76551, Note_on_c, 0, 96, 71
1, 76597, Note_off_c, 0, 96, 48
1, 76667, Note_on_c, 0, 88, 48
1, 76691, Note_off_c, 0, 88, 56
1, 76804, Note_on_c, 0, 79, 32
1, 76835, Note_off_c, 0, 79, 43
1, 76906, Note_on_c, 0, 88, 55
1, 76937, Note_off_c, 0, 88, 58
1, 77029, Note_on_c, 0, 79, 61
1, 77048, Note_off_c, 0, 79, 65
1, 77146, Note_on_c, 0, 70, 62
1, 77172, Note_off_c, 0, 70, 69
1, 77264, Note_on_c, 0, 78, 72
1, 77285, Note_off_c, 0, 78, 71
1, 77375, Note_on_c, 0, 70, 65
1, 77401, Note_off_c, 0, 70, 70
1, 77499, Note_on_c, 0, 78, 63
1, 77525, Note_off_c, 0, 78, 67
1, 77568, Control_c, 0, 67, 77
1, 77582, Control_c, 0, 67, 0
1, 77604, Note_on_c, 0, 87, 80
1, 77656, Note_off_c, 0, 87, 63
1, 77728, Note_on_c, 0, 84, 57
1, 77761, Note_off_c, 0, 84, 64
1, 77833, Note_on_c, 0, 80, 56
1, 77853, Note_off_c, 0, 80, 65
1, 77972, Note_on_c, 0, 69, 40
1, 78000, Note_off_c, 0, 69, 54
1, 78033, Control_c, 0, 67, 81
1, 78048, Control_c, 0, 67, 127
1, 78070, Note_on_c, 0, 78, 81
1, 78093, Note_off_c, 0, 78, 64
1, 78183, Note_on_c, 0, 76, 70
1, 78203, Note_off_c, 0, 76, 69
1, 78299, Note_on_c, 0, 71, 45
1, 78325, Note_off_c, 0, 71, 56
1, 78415, Note_on_c, 0, 65, 39
1, 78452, Note_off_c, 0, 65, 53
1, 78524, Note_on_c, 0, 61, 58
1, 78548, Note_off_c, 0, 61, 63
1, 78629, Note_on_c, 0, 58, 65
1, 78655, Note_off_c, 0, 58, 68
1, 78742, Note_on_c, 0, 74, 88
1, 78767, Note_off_c, 0, 74, 63
1, 78858, Note_on_c, 0, 66, 69
1, 78871, Poly_aftertouch_c, 0, 32, 0
1, 78880, Note_off_c, 0, 66, 71
1, 78908, Poly_aftertouch_c, 0, 32, 127
1, 78978, Note_on_c, 0, 63, 50
1, 79002, Note_off_c, 0, 63, 60
1, 79088, Note_on_c, 0, 59, 74
1, 79111, Note_off_c, 0, 59, 70
1, 79204, Note_on_c, 0, 53, 62
1, 79231, Note_off_c, 0, 53, 67
1, 79317, Note_on_c, 0, 60, 79
1, 79339, Control_c, 0, 67, 121
1, 79342, Note_off_c, 0, 60, 66
1, 79354, Control_c, 0, 67, 115
1, 79368, Control_c, 0, 67, 114
1, 79383, Control_c, 0, 67, 114
1, 79398, Control_c, 0, 67, 115
1, 79413, Control_c, 0, 67, 115
1, 79428, Control_c, 0, 67, 116
1, 79435, Note_on_c, 0, 57, 54
1, 79442, Control_c, 0, 67, 117
1, 79457, Note_off_c, 0, 57, 58
1, 79472, Control_c, 0, 67, 118
1, 79501, Control_c, 0, 67, 118
1, 79516, Control_c, 0, 67, 119
1, 79531, Control_c, 0, 67, 119
1, 79558, Note_on_c, 0, 55, 37
1, 79591, Note_off_c, 0, 55, 32
1, 79619, Control_c, 0, 67, 120
1, 79650, Control_c, 0, 67, 120
1, 79667, Note_on_c, 0, 56, 51
1, 79690, Note_off_c, 0, 56, 59
1, 79709, Control_c, 0, 67, 121
1, 79724, Control_c, 0, 67, 121
1, 79739, Control_c, 0, 67, 122
1, 79755, Control_c, 0, 67, 123
1, 79770, Control_c, 0, 67, 123
1, 79774, Note_on_c, 0, 52, 62
1, 79784, Control_c, 0, 67, 124
1, 79804, Note_off_c, 0, 52, 68
1, 79807, Poly_aftertouch_c, 0, 30, 0
1, 79844, Control_c, 0, 67, 124
1, 79888, Note_on_c, 0, 49, 58
1, 79917, Note_off_c, 0, 49, 63
1, 79970, Control_c, 0, 67, 125
1, 80010, Note_off_c, 0, 29, 20
1, 80028, Note_on_c, 0, 58, 60
1, 80030, Note_on_c, 0, 45, 55
1, 80043, Control_c, 0, 67, 124
1, 80058, Control_c, 0, 67, 124
1, 80070, Note_off_c, 0, 28, 27
1, 80073, Control_c, 0, 67, 123
1, 80075, Note_off_c, 0, 26, 22
1, 80088, Control_c, 0, 67, 123
1, 80092, Note_off_c, 0, 58, 41
1, 80103, Note_off_c, 0, 45, 40
1, 80105, Note_off_c, 0, 27, 42
1, 80117, Control_c, 0, 67, 122
1, 80132, Control_c, 0, 67, 122
1, 80135, Note_on_c, 0, 54, 48
1, 80139, Note_off_c, 0, 22, 21
1, 80147, Control_c, 0, 67, 121
1, 80148, Note_off_c, 0, 25, 39
1, 80153, Poly_aftertouch_c, 0, 23, 0
1, 80162, Control_c, 0, 67, 119
1, 80163, Note_off_c, 0, 24, 40
1, 80164, Note_off_c, 0, 54, 62
1, 80177, Control_c, 0, 67, 117
1, 80191, Control_c, 0, 67, 113
1, 80206, Control_c, 0, 67, 96
1, 80218, Poly_aftertouch_c, 0, 32, 0
1, 80221, Control_c, 0, 67, 45
1, 80236, Control_c, 0, 67, 0
1, 80251, Note_on_c, 0, 26, 83
1, 80254, Note_off_c, 0, 21, 39
1, 80280, Note_off_c, 0, 26, 66
1, 80389, Note_on_c, 0, 58, 67
1, 80400, Note_on_c, 0, 45, 51
1, 80426, Note_off_c, 0, 45, 58
1, 80427, Note_off_c, 0, 58, 57
1, 80509, Note_on_c, 0, 54, 45
1, 80534, Note_off_c, 0, 54, 56
1, 80615, Note_on_c, 0, 26, 60
1, 80649, Note_off_c, 0, 26, 62
1, 80732, Note_on_c, 0, 29, 62
1, 80769, Note_off_c, 0, 29, 61
1, 80850, Note_on_c, 0, 32, 63
1, 80879, Note_off_c, 0, 32, 66
1, 80978, Note_on_c, 0, 24, 61
1, 81088, Note_off_c, 0, 24, 36
1, 81099, Note_on_c, 0, 35, 54
1, 81130, Note_off_c, 0, 35, 64
1, 81213, Note_on_c, 0, 25, 58
1, 81247, Note_off_c, 0, 25, 62
1, 81472, Note_on_c, 0, 58, 72
1, 81479, Note_on_c, 0, 45, 64
1, 81519, Note_off_c, 0, 45, 62
1, 81536, Note_off_c, 0, 58, 60
1, 81592, Note_on_c, 0, 54, 61
1, 81625, Note_off_c, 0, 54, 62
1, 81703, Note_on_c, 0, 54, 70
1, 81735, Note_off_c, 0, 54, 63
1, 81736, Note_on_c, 0, 45, 33
1, 81775, Note_off_c, 0, 45, 31
1, 81827, Note_on_c, 0, 58, 60
1, 81849, Note_off_c, 0, 58, 62
1, 81855, Note_on_c, 0, 45, 15
1, 81904, Note_off_c, 0, 45, 27
1, 81940, Note_on_c, 0, 49, 57
1, 81962, Note_off_c, 0, 49, 59
1, 82054, Note_on_c, 0, 24, 59
1, 82087, Note_off_c, 0, 24, 63
1, 82180, Note_on_c, 0, 43, 67
1, 82209, Note_off_c, 0, 43, 64
1, 82296, Note_on_c, 0, 36, 104
1, 82316, Note_off_c, 0, 36, 72
1, 82433, Note_on_c, 0, 27, 59
1, 82466, Note_off_c, 0, 27, 65
1, 82573, Note_on_c, 0, 31, 56
1, 82600, Note_off_c, 0, 31, 59
1, 82699, Note_on_c, 0, 34, 64
1, 82729, Note_off_c, 0, 34, 66
1, 82832, Note_on_c, 0, 65, 97
1, 82835, Note_on_c, 0, 52, 100
1, 82840, Note_on_c, 0, 63, 88
1, 82956, Note_on_c, 0, 42, 86
1, 83004, Note_off_c, 0, 42, 62
1, 83082, Note_on_c, 0, 36, 72
1, 83114, Note_off_c, 0, 36, 66
1, 83198, Note_on_c, 0, 32, 62
1, 83227, Note_off_c, 0, 32, 64
1, 83312, Note_on_c, 0, 33, 69
1, 83345, Note_off_c, 0, 33, 66
1, 83444, Note_on_c, 0, 31, 69
1, 83476, Note_off_c, 0, 31, 65
1, 83512, Note_off_c, 0, 52, 66
1, 83519, Note_off_c, 0, 65, 58
1, 83538, Note_off_c, 0, 63, 62
1, 83563, Note_on_c, 0, 35, 61
1, 83595, Note_off_c, 0, 35, 66
1, 83616, Control_c, 0, 67, 14
1, 83631, Control_c, 0, 67, 67
1, 83646, Control_c, 0, 67, 127
1, 83691, Note_on_c, 0, 25, 60
1, 83724, Note_off_c, 0, 25, 62
1, 83808, Note_on_c, 0, 22, 52
1, 83839, Note_off_c, 0, 22, 54
1, 83938, Note_on_c, 0, 68, 70
1, 83939, Note_on_c, 0, 26, 57
1, 84022, Note_off_c, 0, 68, 52
1, 84037, Note_off_c, 0, 26, 53
1, 84060, Note_on_c, 0, 34, 52
1, 84061, Note_on_c, 0, 59, 59
1, 84087, Note_off_c, 0, 34, 55
1, 84090, Note_off_c, 0, 59, 65
1, 84180, Note_on_c, 0, 62, 63
1, 84207, Note_off_c, 0, 62, 65
1, 84300, Note_on_c, 0, 70, 70
1, 84308, Note_on_c, 0, 37, 58
1, 84403, Note_off_c, 0, 37, 60
1, 84412, Note_off_c, 0, 70, 36
1, 84427, Note_on_c, 0, 29, 58
1, 84431, Note_on_c, 0, 66, 59
1, 84457, Note_off_c, 0, 66, 68
1, 84459, Note_off_c, 0, 29, 59
1, 84476, Control_c, 0, 67, 77
1, 84491, Control_c, 0, 67, 0
1, 84549, Note_on_c, 0, 57, 58
1, 84579, Note_off_c, 0, 57, 64
1, 84669, Note_on_c, 0, 35, 53
1, 84673, Note_on_c, 0, 61, 66
1, 84771, Note_off_c, 0, 61, 44
1, 84788, Note_on_c, 0, 55, 65
1, 84799, Note_on_c, 0, 40, 61
1, 84809, Note_off_c, 0, 35, 60
1, 84815, Note_off_c, 0, 55, 67
1, 84823, Note_off_c, 0, 40, 59
1, 84925, Note_on_c, 0, 47, 58
1, 84952, Note_off_c, 0, 47, 63
1, 85034, Note_on_c, 0, 31, 70
1, 85040, Note_on_c, 0, 53, 71
1, 85115, Note_off_c, 0, 31, 52
1, 85147, Note_off_c, 0, 53, 62
1, 85159, Note_on_c, 0, 51, 67
1, 85160, Note_on_c, 0, 21, 89
1, 85190, Note_off_c, 0, 21, 65
1, 85192, Note_off_c, 0, 51, 65
1, 85301, Note_on_c, 0, 40, 61
1, 85328, Note_off_c, 0, 40, 66
1, 85411, Note_on_c, 0, 44, 72
1, 85446, Note_on_c, 0, 47, 79
1, 85473, Note_off_c, 0, 44, 64
1, 85506, Note_on_c, 0, 38, 57
1, 85508, Note_off_c, 0, 47, 65
1, 85536, Note_off_c, 0, 38, 56
1, 85676, Note_on_c, 0, 36, 59
1, 85714, Note_off_c, 0, 36, 65
1, 85773, Note_on_c, 0, 27, 55
1, 85804, Note_off_c, 0, 27, 59
1, 85908, Note_on_c, 0, 46, 91
1, 85919, Note_on_c, 0, 54, 80
1, 85919, Note_on_c, 0, 55, 81
1, 85935, Note_off_c, 0, 46, 68
1, 85942, Note_off_c, 0, 55, 68
1, 85944, Note_off_c, 0, 54, 65
1, 86079, Note_on_c, 0, 33, 60
1, 86111, Note_off_c, 0, 33, 67
1, 86126, Note_on_c, 0, 40, 66
1, 86165, Note_off_c, 0, 40, 64
1, 86185, Note_on_c, 0, 49, 79
1, 86210, Note_off_c, 0, 49, 67
1, 86308, Note_on_c, 0, 60, 95
1, 86309, Note_on_c, 0, 71, 89
1, 86332, Note_off_c, 0, 71, 65
1, 86334, Note_off_c, 0, 60, 63
1, 86581, Note_on_c, 0, 62, 79
1, 86588, Note_on_c, 0, 53, 58
1, 86603, Note_off_c, 0, 62, 69
1, 86611, Note_off_c, 0, 53, 61
1, 86712, Note_on_c, 0, 47, 65
1, 86722, Control_c, 0, 64, 53
1, 86737, Control_c, 0, 64, 62
1, 86750, Note_off_c, 0, 47, 65
1, 86752, Control_c, 0, 64, 31
1, 86757, Note_on_c, 0, 56, 58
1, 86758, Note_off_c, 0, 56, 127
1, 86767, Control_c, 0, 64, 0
1, 86798, Note_on_c, 0, 55, 10
1, 86812, Note_on_c, 0, 64, 75
1, 86833, Note_off_c, 0, 64, 71
1, 86847, Note_on_c, 0, 62, 6
1, 86848, Note_off_c, 0, 62, 127
1, 86848, Note_off_c, 0, 55, 28
1, 86937, Note_on_c, 0, 67, 96
1, 86943, Note_on_c, 0, 77, 90
1, 86945, Note_on_c, 0, 75, 84
1, 86975, Control_c, 0, 64, 60
1, 86990, Control_c, 0, 64, 127
1, 87074, Note_off_c, 0, 67, 56
1, 87083, Note_on_c, 0, 72, 74
1, 87096, Note_off_c, 0, 77, 59
1, 87104, Note_off_c, 0, 72, 72
1, 87112, Note_off_c, 0, 75, 63
1, 87167, Control_c, 0, 64, 60
1, 87182, Control_c, 0, 64, 0
1, 87183, Note_on_c, 0, 49, 81
1, 87204, Note_off_c, 0, 49, 66
1, 87322, Note_on_c, 0, 81, 88
1, 87376, Note_on_c, 0, 78, 81
1, 87381, Note_off_c, 0, 81, 62
1, 87411, Note_on_c, 0, 70, 94
1, 87434, Note_off_c, 0, 78, 68
1, 87442, Note_off_c, 0, 70, 66
1, 87524, Note_on_c, 0, 54, 62
1, 87525, Note_on_c, 0, 67, 74
1, 87526, Note_on_c, 0, 64, 67
1, 87545, Note_off_c, 0, 64, 67
1, 87545, Note_off_c, 0, 54, 63
1, 87545, Note_off_c, 0, 67, 69
1, 87647, Note_on_c, 0, 69, 84
1, 87652, Note_on_c, 0, 74, 80
1, 87655, Note_on_c, 0, 71, 69
1, 87656, Note_on_c, 0, 65, 71
1, 87664, Note_off_c, 0, 69, 77
1, 87673, Note_off_c, 0, 65, 67
1, 87673, Note_off_c, 0, 71, 66
1, 87679, Control_c, 0, 64, 31
1, 87694, Control_c, 0, 64, 65
1, 87709, Control_c, 0, 64, 62
1, 87711, Note_off_c, 0, 74, 62
1, 87720, Note_on_c, 0, 78, 78
1, 87724, Control_c, 0, 64, 0
1, 87776, Note_off_c, 0, 78, 62
1, 87783, Note_on_c, 0, 85, 16
1, 87787, Note_on_c, 0, 84, 78
1, 87830, Note_off_c, 0, 85, 52
1, 87840, Note_off_c, 0, 84, 64
1, 87843, Note_on_c, 0, 87, 50
1, 87866, Note_off_c, 0, 87, 61
1, 87909, Note_on_c, 0, 49, 88
1, 87916, Control_c, 0, 64, 127
1, 87930, Note_off_c, 0, 49, 70
1, 88025, Poly_aftertouch_c, 0, 87, 0
1, 88033, Poly_aftertouch_c, 0, 90, 127
1, 88048, Note_on_c, 0, 93, 88
1, 88058, Poly_aftertouch_c, 0, 90, 0
1, 88099, Note_on_c, 0, 90, 82
1, 88121, Note_off_c, 0, 93, 61
1, 88146, Note_on_c, 0, 82, 100
1, 88168, Note_off_c, 0, 90, 65
1, 88189, Note_off_c, 0, 82, 57
1, 88249, Control_c, 0, 64, 67
1, 88264, Control_c, 0, 64, 0
1, 88295, Note_on_c, 0, 67, 83
1, 88298, Note_on_c, 0, 54, 62
1, 88307, Note_on_c, 0, 64, 65
1, 88313, Note_off_c, 0, 67, 71
1, 88317, Note_off_c, 0, 54, 63
1, 88327, Note_off_c, 0, 64, 63
1, 88413, Note_on_c, 0, 86, 81
1, 88416, Note_on_c, 0, 71, 98
1, 88418, Note_on_c, 0, 69, 98
1, 88424, Note_on_c, 0, 65, 79
1, 88430, Note_off_c, 0, 71, 77
1, 88431, Note_off_c, 0, 69, 80
1, 88444, Note_off_c, 0, 65, 71
1, 88477, Note_off_c, 0, 86, 63
1, 88485, Note_on_c, 0, 90, 75
1, 88519, Note_on_c, 0, 97, 69
1, 88541, Note_off_c, 0, 90, 63
1, 88593, Note_on_c, 0, 99, 59
1, 88607, Note_off_c, 0, 97, 62
1, 88615, Note_off_c, 0, 99, 64
1, 88690, Note_on_c, 0, 101, 100
1, 88693, Note_on_c, 0, 88, 93
1, 88695, Control_c, 0, 64, 68
1, 88698, Note_on_c, 0, 86, 93
1, 88700, Note_on_c, 0, 99, 78
1, 88706, Note_on_c, 0, 96, 78
1, 88710, Control_c, 0, 64, 127
1, 88713, Note_on_c, 0, 100, 54
1, 88714, Note_off_c, 0, 86, 73
1, 88739, Note_off_c, 0, 100, 35
1, 88803, Note_off_c, 0, 96, 53
1, 88848, Note_off_c, 0, 99, 0
1, 88874, Note_on_c, 0, 99, 16
1, 88889, Note_off_c, 0, 101, 65
1, 88930, Note_off_c, 0, 99, 50
1, 88943, Note_off_c, 0, 88, 64
1, 88991, Note_on_c, 0, 55, 102
1, 88997, Note_on_c, 0, 43, 84
1, 89010, Note_off_c, 0, 55, 71
1, 89027, Note_off_c, 0, 43, 65
1, 89116, Control_c, 0, 64, 68
1, 89125, Note_on_c, 0, 76, 79
1, 89126, Note_on_c, 0, 89, 72
1, 89131, Control_c, 0, 64, 0
1, 89136, Note_on_c, 0, 85, 64
1, 89146, Note_off_c, 0, 76, 69
1, 89146, Note_off_c, 0, 89, 57
1, 89160, Note_off_c, 0, 85, 67
1, 89265, Note_on_c, 0, 76, 73
1, 89271, Note_on_c, 0, 85, 46
1, 89275, Note_on_c, 0, 89, 41
1, 89289, Note_off_c, 0, 76, 69
1, 89295, Note_off_c, 0, 85, 59
1, 89303, Note_off_c, 0, 89, 46
1, 89402, Note_on_c, 0, 80, 75
1, 89403, Note_on_c, 0, 51, 86
1, 89409, Note_on_c, 0, 39, 77
1, 89423, Note_off_c, 0, 51, 70
1, 89423, Note_off_c, 0, 80, 69
1, 89430, Note_off_c, 0, 39, 64
1, 89545, Note_on_c, 0, 74, 60
1, 89568, Note_off_c, 0, 74, 66
1, 89662, Note_on_c, 0, 67, 64
1, 89687, Note_off_c, 0, 67, 68
1, 89777, Note_on_c, 0, 42, 90
1, 89785, Note_on_c, 0, 30, 73
1, 89793, Note_on_c, 0, 72, 65
1, 89799, Note_off_c, 0, 42, 68
1, 89805, Note_on_c, 0, 70, 56
1, 89811, Note_off_c, 0, 30, 57
1, 89812, Note_off_c, 0, 72, 68
1, 89830, Note_off_c, 0, 70, 66
1, 89927, Note_on_c, 0, 59, 46
1, 89957, Note_off_c, 0, 59, 56
1, 90043, Note_on_c, 0, 46, 95
1, 90050, Note_on_c, 0, 34, 90
1, 90052, Note_on_c, 0, 75, 79
1, 90057, Note_on_c, 0, 66, 74
1, 90061, Note_off_c, 0, 46, 72
1, 90072, Note_off_c, 0, 34, 69
1, 90088, Note_off_c, 0, 66, 63
1, 90106, Note_off_c, 0, 75, 56
1, 90184, Note_on_c, 0, 69, 57
1, 90205, Note_off_c, 0, 69, 64
1, 90308, Note_on_c, 0, 65, 54
1, 90332, Note_off_c, 0, 65, 56
1, 90435, Note_on_c, 0, 28, 69
1, 90435, Note_on_c, 0, 40, 75
1, 90443, Note_on_c, 0, 80, 73
1, 90446, Note_on_c, 0, 72, 69
1, 90460, Note_off_c, 0, 40, 68
1, 90463, Note_off_c, 0, 28, 56
1, 90466, Note_off_c, 0, 80, 67
1, 90473, Note_off_c, 0, 72, 68
1, 90571, Note_on_c, 0, 66, 76
1, 90595, Note_off_c, 0, 66, 69
1, 90674, Control_c, 0, 64, 59
1, 90681, Note_on_c, 0, 57, 92
1, 90689, Control_c, 0, 64, 81
1, 90690, Note_on_c, 0, 71, 91
1, 90690, Note_on_c, 0, 74, 88
1, 90690, Note_on_c, 0, 76, 96
1, 90692, Note_on_c, 0, 45, 78
1, 90699, Note_off_c, 0, 57, 72
1, 90704, Control_c, 0, 64, 109
1, 90715, Note_off_c, 0, 45, 67
1, 90718, Control_c, 0, 64, 95
1, 90726, Note_off_c, 0, 71, 57
1, 90729, Note_off_c, 0, 76, 66
1, 90733, Control_c, 0, 64, 65
1, 90735, Note_off_c, 0, 74, 61
1, 90748, Control_c, 0, 64, 0
1, 90821, Note_on_c, 0, 71, 73
1, 90844, Note_off_c, 0, 71, 69
1, 90857, Note_on_c, 0, 74, 13
1, 90873, Note_on_c, 0, 76, 3
1, 90874, Note_off_c, 0, 76, 127
1, 90899, Note_off_c, 0, 74, 31
1, 90935, Note_on_c, 0, 63, 76
1, 90956, Note_off_c, 0, 63, 71
1, 90968, Note_on_c, 0, 75, 28
1, 90969, Note_off_c, 0, 75, 127
1, 91062, Note_on_c, 0, 73, 68
1, 91063, Note_on_c, 0, 82, 66
1, 91072, Note_on_c, 0, 80, 46
1, 91073, Note_off_c, 0, 80, 127
1, 91089, Note_off_c, 0, 73, 66
1, 91096, Note_off_c, 0, 82, 63
1, 91176, Note_on_c, 0, 48, 91
1, 91179, Note_on_c, 0, 36, 78
1, 91191, Note_on_c, 0, 69, 87
1, 91200, Note_off_c, 0, 36, 66
1, 91201, Note_off_c, 0, 48, 66
1, 91221, Note_off_c, 0, 69, 66
1, 91305, Note_on_c, 0, 76, 80
1, 91335, Note_off_c, 0, 76, 66
1, 91420, Note_on_c, 0, 82, 84
1, 91422, Note_on_c, 0, 87, 80
1, 91441, Note_off_c, 0, 82, 69
1, 91444, Note_off_c, 0, 87, 69
1, 91535, Note_on_c, 0, 79, 99
1, 91537, Note_on_c, 0, 50, 84
1, 91537, Note_on_c, 0, 90, 106
1, 91537, Note_on_c, 0, 80, 91
1, 91538, Note_on_c, 0, 62, 76
1, 91554, Note_off_c, 0, 80, 72
1, 91554, Note_off_c, 0, 62, 71
1, 91557, Note_off_c, 0, 79, 66
1, 91563, Note_off_c, 0, 50, 67
1, 91563, Note_off_c, 0, 90, 65
1, 91659, Note_on_c, 0, 79, 95
1, 91659, Note_on_c, 0, 80, 93
1, 91659, Note_on_c, 0, 90, 101
1, 91683, Note_off_c, 0, 80, 64
1, 91683, Note_off_c, 0, 79, 63
1, 91698, Note_off_c, 0, 90, 62
1, 91802, Note_on_c, 0, 79, 94
1, 91802, Note_on_c, 0, 90, 105
1, 91805, Note_on_c, 0, 80, 89
1, 91808, Note_on_c, 0, 37, 106
1, 91808, Control_c, 0, 64, 70
1, 91817, Note_on_c, 0, 25, 83
1, 91823, Control_c, 0, 64, 127
1, 91831, Note_off_c, 0, 37, 70
1, 91843, Note_off_c, 0, 25, 61
1, 91950, Poly_aftertouch_c, 0, 37, 127
1, 91963, Note_on_c, 0, 83, 70
1, 91980, Note_off_c, 0, 79, 55
1, 91981, Poly_aftertouch_c, 0, 37, 0
1, 91995, Note_off_c, 0, 80, 59
1, 92006, Note_off_c, 0, 90, 59
1, 92050, Note_off_c, 0, 83, 57
1, 92142, Control_c, 0, 64, 77
1, 92157, Control_c, 0, 64, 0
1, 92246, Control_c, 0, 67, 27
1, 92261, Control_c, 0, 67, 53
1, 92276, Control_c, 0, 67, 77
1, 92290, Control_c, 0, 67, 97
1, 92305, Control_c, 0, 67, 123
1, 92320, Control_c, 0, 67, 127
1, 92359, Note_on_c, 0, 69, 48
1, 92367, Note_on_c, 0, 63, 40
1, 92370, Note_on_c, 0, 58, 40
1, 92372, Note_on_c, 0, 66, 44
1, 92397, Note_on_c, 0, 89, 64
1, 92430, Note_off_c, 0, 89, 60
1, 92528, Note_on_c, 0, 80, 55
1, 92547, Note_off_c, 0, 80, 63
1, 92635, Note_on_c, 0, 71, 57
1, 92662, Note_off_c, 0, 71, 64
1, 92753, Note_on_c, 0, 89, 76
1, 92765, Note_on_c, 0, 91, 69
1, 92769, Note_off_c, 0, 89, 68
1, 92782, Note_off_c, 0, 91, 63
1, 92833, Note_off_c, 0, 58, 62
1, 92845, Note_off_c, 0, 69, 60
1, 92848, Note_off_c, 0, 66, 54
1, 92854, Note_off_c, 0, 63, 41
1, 92875, Note_on_c, 0, 76, 62
1, 92894, Note_off_c, 0, 76, 65
1, 93006, Note_on_c, 0, 64, 46
1, 93018, Note_on_c, 0, 71, 37
1, 93031, Note_on_c, 0, 60, 28
1, 93054, Note_on_c, 0, 62, 8
1, 93125, Note_on_c, 0, 85, 58
1, 93151, Note_off_c, 0, 85, 66
1, 93236, Note_on_c, 0, 93, 71
1, 93259, Note_off_c, 0, 93, 65
1, 93357, Note_on_c, 0, 82, 69
1, 93380, Note_off_c, 0, 82, 66
1, 93467, Note_off_c, 0, 64, 39
1, 93490, Note_on_c, 0, 80, 63
1, 93505, Note_off_c, 0, 60, 42
1, 93511, Note_off_c, 0, 71, 57
1, 93517, Note_off_c, 0, 80, 68
1, 93522, Note_off_c, 0, 62, 42
1, 93599, Note_on_c, 0, 89, 70
1, 93622, Note_off_c, 0, 89, 70
1, 93709, Note_on_c, 0, 56, 57
1, 93711, Note_on_c, 0, 67, 53
1, 93718, Note_on_c, 0, 65, 43
1, 93733, Note_off_c, 0, 67, 60
1, 93740, Note_off_c, 0, 56, 63
1, 93744, Note_off_c, 0, 65, 55
1, 93836, Note_on_c, 0, 67, 43
1, 93837, Note_on_c, 0, 56, 58
1, 93838, Note_on_c, 0, 65, 41
1, 93935, Note_off_c, 0, 65, 0
1, 93954, Note_on_c, 0, 61, 52
1, 93972, Poly_aftertouch_c, 0, 65, 127
1, 94104, Note_on_c, 0, 84, 66
1, 94131, Note_off_c, 0, 84, 67
1, 94227, Note_on_c, 0, 78, 68
1, 94248, Note_off_c, 0, 78, 66
1, 94345, Note_on_c, 0, 86, 59
1, 94375, Note_off_c, 0, 86, 63
1, 94401, Note_off_c, 0, 61, 59
1, 94401, Note_off_c, 0, 56, 58
1, 94428, Poly_aftertouch_c, 0, 65, 0
1, 94436, Note_off_c, 0, 67, 53
1, 94464, Note_on_c, 0, 83, 66
1, 94487, Note_off_c, 0, 83, 66
1, 94589, Note_on_c, 0, 75, 62
1, 94604, Note_off_c, 0, 75, 65
1, 94726, Note_on_c, 0, 76, 49
1, 94730, Note_on_c, 0, 67, 34
1, 94749, Note_off_c, 0, 76, 61
1, 94765, Note_off_c, 0, 67, 52
1, 94849, Note_on_c, 0, 90, 69
1, 94851, Note_on_c, 0, 84, 70
1, 94875, Note_off_c, 0, 84, 70
1, 94875, Note_off_c, 0, 90, 67
1, 94991, Note_on_c, 0, 76, 63
1, 94994, Note_on_c, 0, 67, 54
1, 95009, Note_off_c, 0, 76, 66
1, 95017, Note_off_c, 0, 67, 61
1, 95119, Note_on_c, 0, 90, 66
1, 95121, Note_on_c, 0, 84, 67
1, 95144, Note_off_c, 0, 90, 66
1, 95146, Note_off_c, 0, 84, 69
1, 95242, Note_on_c, 0, 82, 74
1, 95243, Note_on_c, 0, 73, 71
1, 95260, Note_off_c, 0, 73, 67
1, 95266, Note_off_c, 0, 82, 67
1, 95362, Note_on_c, 0, 57, 59
1, 95370, Note_on_c, 0, 68, 53
1, 95383, Note_off_c, 0, 57, 63
1, 95392, Note_off_c, 0, 68, 60
1, 95492, Note_on_c, 0, 82, 75
1, 95497, Note_on_c, 0, 73, 70
1, 95513, Note_off_c, 0, 82, 68
1, 95515, Note_off_c, 0, 73, 67
1, 95619, Note_on_c, 0, 57, 64
1, 95629, Note_on_c, 0, 68, 55
1, 95655, Note_off_c, 0, 57, 65
1, 95657, Note_off_c, 0, 68, 61
1, 95752, Note_on_c, 0, 74, 74
1, 95755, Note_on_c, 0, 65, 81
1, 95774, Note_off_c, 0, 65, 71
1, 95774, Note_off_c, 0, 74, 71
1, 95883, Note_on_c, 0, 59, 49
1, 95883, Note_on_c, 0, 63, 58
1, 95904, Note_off_c, 0, 63, 64
1, 95907, Note_off_c, 0, 59, 59
1, 96009, Note_on_c, 0, 60, 57
1, 96011, Note_on_c, 0, 56, 54
1, 96030, Note_off_c, 0, 60, 60
1, 96033, Note_off_c, 0, 56, 60
1, 96143, Note_on_c, 0, 74, 47
1, 96144, Note_on_c, 0, 69, 47
1, 96165, Note_off_c, 0, 74, 61
1, 96169, Note_off_c, 0, 69, 59
1, 96256, Note_on_c, 0, 88, 88
1, 96257, Note_on_c, 0, 78, 88
1, 96273, Note_off_c, 0, 78, 73
1, 96276, Note_off_c, 0, 88, 71
1, 96389, Note_on_c, 0, 74, 53
1, 96392, Note_on_c, 0, 69, 55
1, 96417, Note_off_c, 0, 74, 63
1, 96422, Note_off_c, 0, 69, 63
1, 96495, Note_on_c, 0, 78, 77
1, 96503, Note_on_c, 0, 88, 65
1, 96516, Control_c, 0, 67, 127
1, 96518, Note_off_c, 0, 78, 67
1, 96523, Note_off_c, 0, 88, 66
1, 96530, Control_c, 0, 67, 124
1, 96545, Control_c, 0, 67, 122
1, 96560, Control_c, 0, 67, 120
1, 96575, Control_c, 0, 67, 120
1, 96590, Control_c, 0, 67, 119
1, 96625, Note_on_c, 0, 77, 79
1, 96626, Note_on_c, 0, 85, 85
1, 96642, Note_off_c, 0, 85, 75
1, 96645, Note_off_c, 0, 77, 70
1, 96694, Control_c, 0, 67, 119
1, 96708, Control_c, 0, 67, 119
1, 96768, Note_on_c, 0, 58, 53
1, 96771, Note_on_c, 0, 67, 53
1, 96794, Note_off_c, 0, 67, 59
1, 96796, Note_off_c, 0, 58, 64
1, 96872, Control_c, 0, 67, 119
1, 96884, Note_on_c, 0, 77, 77
1, 96884, Note_on_c, 0, 85, 77
1, 96901, Control_c, 0, 67, 119
1, 96902, Note_off_c, 0, 85, 73
1, 96906, Note_off_c, 0, 77, 70
1, 96930, Control_c, 0, 67, 119
1, 96945, Control_c, 0, 67, 118
1, 96975, Control_c, 0, 67, 118
1, 96990, Control_c, 0, 67, 117
1, 97018, Note_on_c, 0, 58, 57
1, 97019, Control_c, 0, 67, 116
1, 97021, Note_on_c, 0, 67, 58
1, 97034, Control_c, 0, 67, 113
1, 97043, Note_off_c, 0, 67, 62
1, 97047, Note_off_c, 0, 58, 66
1, 97049, Control_c, 0, 67, 108
1, 97064, Control_c, 0, 67, 103
1, 97078, Control_c, 0, 67, 95
1, 97093, Control_c, 0, 67, 83
1, 97108, Control_c, 0, 67, 59
1, 97123, Control_c, 0, 67, 0
1, 97138, Note_on_c, 0, 73, 91
1, 97143, Note_on_c, 0, 64, 76
1, 97162, Note_off_c, 0, 73, 73
1, 97172, Note_off_c, 0, 64, 71
1, 97267, Note_on_c, 0, 69, 88
1, 97273, Note_on_c, 0, 82, 78
1, 97284, Note_off_c, 0, 69, 75
1, 97293, Note_off_c, 0, 82, 70
1, 97382, Note_on_c, 0, 73, 78
1, 97388, Note_on_c, 0, 64, 67
1, 97403, Note_off_c, 0, 73, 68
1, 97414, Note_off_c, 0, 64, 68
1, 97494, Note_on_c, 0, 82, 80
1, 97497, Note_on_c, 0, 69, 73
1, 97517, Note_off_c, 0, 69, 73
1, 97517, Note_off_c, 0, 82, 65
1, 97609, Note_on_c, 0, 77, 95
1, 97613, Note_on_c, 0, 68, 81
1, 97634, Note_off_c, 0, 68, 70
1, 97644, Note_off_c, 0, 77, 59
1, 97722, Note_on_c, 0, 72, 80
1, 97740, Note_on_c, 0, 66, 65
1, 97747, Note_off_c, 0, 72, 67
1, 97759, Note_off_c, 0, 66, 67
1, 97849, Note_on_c, 0, 62, 68
1, 97852, Note_on_c, 0, 71, 64
1, 97868, Note_off_c, 0, 62, 65
1, 97874, Note_off_c, 0, 71, 66
1, 97958, Note_on_c, 0, 63, 100
1, 97965, Note_on_c, 0, 54, 84
1, 97972, Note_off_c, 0, 63, 77
1, 97986, Note_off_c, 0, 54, 68
1, 98069, Note_on_c, 0, 73, 71
1, 98076, Note_on_c, 0, 81, 63
1, 98093, Note_off_c, 0, 73, 68
1, 98095, Note_off_c, 0, 81, 64
1, 98196, Note_on_c, 0, 74, 95
1, 98196, Note_on_c, 0, 84, 93
1, 98221, Control_c, 0, 64, 57
1, 98236, Control_c, 0, 64, 62
1, 98265, Control_c, 0, 64, 60
1, 98280, Control_c, 0, 64, 20
1, 98295, Control_c, 0, 64, 0
1, 98303, Note_off_c, 0, 74, 61
1, 98328, Note_off_c, 0, 84, 60
1, 98427, Note_on_c, 0, 68, 71
1, 98434, Note_on_c, 0, 64, 58
1, 98437, Note_on_c, 0, 58, 58
1, 98445, Note_off_c, 0, 68, 68
1, 98454, Note_off_c, 0, 64, 62
1, 98458, Note_off_c, 0, 58, 60
1, 98554, Note_on_c, 0, 91, 94
1, 98557, Note_on_c, 0, 83, 88
1, 98576, Note_off_c, 0, 91, 63
1, 98577, Note_off_c, 0, 83, 67
1, 98692, Note_on_c, 0, 76, 59
1, 98713, Note_off_c, 0, 76, 63
1, 98789, Note_on_c, 0, 69, 68
1, 98810, Note_on_c, 0, 61, 42
1, 98813, Note_off_c, 0, 69, 72
1, 98838, Note_off_c, 0, 61, 53
1, 98911, Note_on_c, 0, 58, 79
1, 98930, Note_off_c, 0, 58, 70
1, 99036, Note_on_c, 0, 89, 70
1, 99043, Note_on_c, 0, 80, 67
1, 99060, Note_off_c, 0, 89, 66
1, 99067, Note_off_c, 0, 80, 68
1, 99154, Note_on_c, 0, 72, 65
1, 99171, Note_off_c, 0, 72, 67
1, 99263, Note_on_c, 0, 74, 87
1, 99264, Note_on_c, 0, 66, 90
1, 99277, Note_off_c, 0, 74, 76
1, 99280, Control_c, 0, 64, 50
1, 99287, Note_off_c, 0, 66, 68
1, 99295, Control_c, 0, 64, 38
1, 99310, Control_c, 0, 64, 0
1, 99394, Note_on_c, 0, 83, 74
1, 99406, Note_on_c, 0, 75, 69
1, 99424, Note_off_c, 0, 83, 65
1, 99431, Note_off_c, 0, 75, 69
1, 99518, Note_on_c, 0, 72, 73
1, 99538, Note_off_c, 0, 72, 73
1, 99623, Note_on_c, 0, 57, 80
1, 99624, Note_on_c, 0, 65, 77
1, 99644, Note_off_c, 0, 65, 69
1, 99646, Note_off_c, 0, 57, 68
1, 99659, Control_c, 0, 64, 59
1, 99674, Control_c, 0, 64, 63
1, 99689, Control_c, 0, 64, 0
1, 99744, Note_on_c, 0, 54, 69
1, 99774, Note_off_c, 0, 54, 66
1, 99865, Note_on_c, 0, 61, 72
1, 99880, Note_on_c, 0, 64, 49
1, 99887, Note_off_c, 0, 61, 69
1, 99905, Note_off_c, 0, 64, 58
1, 99972, Note_on_c, 0, 68, 81
1, 99991, Note_off_c, 0, 68, 72
1, 100089, Note_on_c, 0, 70, 105
1, 100092, Note_on_c, 0, 83, 90
1, 100098, Note_on_c, 0, 79, 84
1, 100104, Control_c, 0, 64, 75
1, 100107, Note_off_c, 0, 70, 70
1, 100116, Note_on_c, 0, 81, 57
1, 100117, Note_off_c, 0, 83, 62
1, 100119, Note_off_c, 0, 79, 67
1, 100119, Control_c, 0, 64, 127
1, 100134, Note_off_c, 0, 81, 62
1, 100185, Control_c, 0, 64, 70
1, 100200, Control_c, 0, 64, 0
1, 100231, Note_on_c, 0, 63, 78
1, 100232, Note_on_c, 0, 72, 72
1, 100232, Note_on_c, 0, 74, 68
1, 100249, Note_off_c, 0, 63, 69
1, 100253, Note_off_c, 0, 72, 68
1, 100256, Note_off_c, 0, 74, 70
1, 100337, Note_on_c, 0, 72, 73
1, 100343, Note_on_c, 0, 63, 73
1, 100347, Note_on_c, 0, 74, 73
1, 100360, Note_off_c, 0, 72, 70
1, 100365, Note_off_c, 0, 74, 73
1, 100366, Note_off_c, 0, 63, 70
1, 100423, Control_c, 0, 64, 127
1, 100463, Note_on_c, 0, 92, 99
1, 100464, Note_on_c, 0, 81, 108
1, 100464, Note_on_c, 0, 86, 101
1, 100493, Note_off_c, 0, 81, 68
1, 100496, Note_off_c, 0, 92, 68
1, 100497, Note_on_c, 0, 79, 34
1, 100498, Note_off_c, 0, 79, 127
1, 100498, Note_on_c, 0, 90, 41
1, 100499, Note_off_c, 0, 86, 68
1, 100524, Note_off_c, 0, 90, 59
1, 100542, Control_c, 0, 64, 71
1, 100557, Control_c, 0, 64, 0
1, 100580, Note_on_c, 0, 66, 54
1, 100582, Note_on_c, 0, 77, 93
1, 100588, Note_on_c, 0, 64, 78
1, 100613, Note_off_c, 0, 64, 66
1, 100621, Note_off_c, 0, 77, 60
1, 100631, Note_off_c, 0, 66, 66
1, 100686, Note_on_c, 0, 77, 90
1, 100691, Note_on_c, 0, 66, 70
1, 100694, Note_on_c, 0, 64, 73
1, 100702, Note_off_c, 0, 77, 72
1, 100715, Note_off_c, 0, 64, 72
1, 100723, Note_off_c, 0, 66, 66
1, 100804, Note_on_c, 0, 83, 92
1, 100806, Note_on_c, 0, 70, 104
1, 100813, Note_on_c, 0, 79, 87
1, 100819, Note_off_c, 0, 70, 77
1, 100831, Note_on_c, 0, 81, 56
1, 100840, Note_off_c, 0, 83, 66
1, 100842, Note_off_c, 0, 79, 63
1, 100849, Note_off_c, 0, 81, 60
1, 100939, Note_on_c, 0, 72, 78
1, 100942, Note_on_c, 0, 74, 72
1, 100944, Note_on_c, 0, 63, 73
1, 100958, Note_off_c, 0, 72, 73
1, 100964, Note_off_c, 0, 74, 71
1, 100966, Note_off_c, 0, 63, 70
1, 101060, Note_on_c, 0, 84, 99
1, 101065, Note_on_c, 0, 93, 90
1, 101069, Note_on_c, 0, 97, 96
1, 101093, Note_off_c, 0, 84, 68
1, 101105, Note_off_c, 0, 97, 58
1, 101107, Note_off_c, 0, 93, 58
1, 101201, Note_on_c, 0, 66, 71
1, 101202, Note_on_c, 0, 77, 98
1, 101205, Note_on_c, 0, 64, 84
1, 101221, Note_off_c, 0, 77, 67
1, 101228, Note_off_c, 0, 64, 68
1, 101249, Note_off_c, 0, 66, 67
1, 101331, Note_on_c, 0, 84, 103
1, 101331, Note_on_c, 0, 93, 98
1, 101334, Note_on_c, 0, 97, 101
1, 101359, Note_off_c, 0, 84, 73
1, 101366, Note_on_c, 0, 90, 42
1, 101366, Note_off_c, 0, 93, 61
1, 101368, Note_off_c, 0, 97, 65
1, 101382, Note_off_c, 0, 90, 39
1, 101442, Poly_aftertouch_c, 0, 95, 0
1, 101608, Note_on_c, 0, 38, 119
1, 101614, Note_on_c, 0, 26, 93
1, 101616, Control_c, 0, 64, 69
1, 101625, Note_on_c, 0, 30, 62
1, 101631, Control_c, 0, 64, 127
1, 101636, Note_off_c, 0, 26, 66
1, 101638, Note_off_c, 0, 38, 72
1, 101665, Note_off_c, 0, 30, 54
1, 101772, Control_c, 0, 64, 80
1, 101787, Control_c, 0, 64, 0
1, 101816, Note_on_c, 0, 47, 72
1, 101836, Note_on_c, 0, 51, 43
1, 101843, Note_off_c, 0, 47, 65
1, 101865, Note_off_c, 0, 51, 50
1, 101948, Note_on_c, 0, 47, 52
1, 101960, Note_on_c, 0, 51, 40
1, 101982, Note_off_c, 0, 47, 65
1, 101991, Note_off_c, 0, 51, 48
1, 102083, Note_on_c, 0, 47, 59
1, 102086, Note_on_c, 0, 51, 49
1, 102112, Note_off_c, 0, 51, 57
1, 102118, Note_off_c, 0, 47, 66
1, 102223, Note_on_c, 0, 47, 53
1, 102226, Note_on_c, 0, 51, 42
1, 102251, Note_off_c, 0, 47, 61
1, 102253, Note_off_c, 0, 51, 54
1, 102349, Note_on_c, 0, 51, 46
1, 102351, Note_on_c, 0, 47, 54
1, 102375, Note_off_c, 0, 51, 57
1, 102378, Note_off_c, 0, 47, 61
1, 102475, Note_on_c, 0, 51, 55
1, 102479, Note_on_c, 0, 47, 61
1, 102503, Note_off_c, 0, 51, 64
1, 102509, Note_off_c, 0, 47, 66
1, 102592, Note_on_c, 0, 38, 118
1, 102599, Note_on_c, 0, 26, 93
1, 102611, Note_on_c, 0, 47, 71
1, 102614, Note_on_c, 0, 51, 61
1, 102617, Note_off_c, 0, 26, 66
1, 102624, Note_off_c, 0, 38, 65
1, 102638, Note_off_c, 0, 47, 67
1, 102640, Note_off_c, 0, 51, 64
1, 102731, Note_on_c, 0, 51, 63
1, 102733, Note_on_c, 0, 47, 58
1, 102758, Note_off_c, 0, 51, 64
1, 102762, Note_off_c, 0, 47, 64
1, 102860, Note_on_c, 0, 47, 61
1, 102860, Note_on_c, 0, 51, 51
1, 102885, Note_off_c, 0, 51, 60
1, 102892, Note_off_c, 0, 47, 65
1, 102979, Note_on_c, 0, 51, 53
1, 102986, Note_on_c, 0, 47, 56
1, 103005, Note_off_c, 0, 51, 58
1, 103019, Note_off_c, 0, 47, 65
1, 103112, Note_on_c, 0, 51, 45
1, 103115, Note_on_c, 0, 47, 53
1, 103147, Note_off_c, 0, 51, 55
1, 103148, Note_off_c, 0, 47, 59
1, 103239, Note_on_c, 0, 51, 48
1, 103240, Note_on_c, 0, 47, 56
1, 103265, Note_off_c, 0, 51, 61
1, 103272, Note_off_c, 0, 47, 65
1, 103361, Note_on_c, 0, 47, 69
1, 103363, Note_on_c, 0, 51, 60
1, 103388, Note_off_c, 0, 47, 66
1, 103392, Note_off_c, 0, 51, 64
1, 103485, Note_on_c, 0, 48, 79
1, 103487, Note_on_c, 0, 54, 75
1, 103561, Note_off_c, 0, 48, 50
1, 103570, Poly_aftertouch_c, 0, 49, 127
1, 103595, Note_on_c, 0, 41, 67
1, 103610, Note_off_c, 0, 54, 62
1, 103626, Note_off_c, 0, 41, 67
1, 103651, Poly_aftertouch_c, 0, 49, 0
1, 103733, Note_on_c, 0, 46, 103
1, 103734, Note_on_c, 0, 45, 97
1, 103845, Note_on_c, 0, 44, 87
1, 103849, Note_off_c, 0, 46, 65
1, 103851, Note_off_c, 0, 45, 66
1, 103869, Note_off_c, 0, 44, 70
1, 103976, Note_on_c, 0, 52, 68
1, 103980, Note_on_c, 0, 49, 64
1, 104016, Note_off_c, 0, 49, 63
1, 104021, Note_off_c, 0, 52, 59
1, 104107, Note_on_c, 0, 55, 60
1, 104129, Note_off_c, 0, 55, 61
1, 104220, Note_on_c, 0, 26, 84
1, 104220, Note_on_c, 0, 38, 119
1, 104238, Note_off_c, 0, 26, 65
1, 104244, Note_on_c, 0, 30, 59
1, 104245, Note_off_c, 0, 30, 127
1, 104250, Note_off_c, 0, 38, 63
1, 104344, Note_on_c, 0, 66, 69
1, 104346, Note_on_c, 0, 77, 62
1, 104372, Note_off_c, 0, 77, 54
1, 104406, Note_off_c, 0, 66, 56
1, 104468, Note_on_c, 0, 69, 69
1, 104518, Note_off_c, 0, 69, 62
1, 104577, Note_on_c, 0, 63, 95
1, 104578, Note_on_c, 0, 73, 91
1, 104650, Note_off_c, 0, 73, 67
1, 104698, Note_on_c, 0, 72, 36
1, 104729, Note_on_c, 0, 70, 38
1, 104732, Note_on_c, 0, 71, 64
1, 104750, Note_off_c, 0, 63, 46
1, 104773, Note_off_c, 0, 72, 34
1, 104789, Note_off_c, 0, 70, 61
1, 104791, Note_off_c, 0, 71, 58
1, 104822, Note_on_c, 0, 68, 71
1, 104845, Note_off_c, 0, 68, 70
1, 104951, Note_on_c, 0, 84, 118
1, 104960, Control_c, 0, 64, 79
1, 104965, Note_on_c, 0, 64, 90
1, 104974, Control_c, 0, 64, 127
1, 104975, Note_off_c, 0, 84, 68
1, 104977, Note_on_c, 0, 58, 76
1, 104986, Note_on_c, 0, 85, 40
1, 104987, Note_off_c, 0, 85, 127
1, 105023, Note_off_c, 0, 64, 59
1, 105074, Note_off_c, 0, 58, 61
1, 105082, Note_on_c, 0, 55, 62
1, 105102, Note_off_c, 0, 55, 64
1, 105228, Control_c, 0, 64, 63
1, 105242, Control_c, 0, 64, 0
1, 105274, Note_on_c, 0, 38, 119
1, 105281, Note_on_c, 0, 26, 104
1, 105296, Note_off_c, 0, 38, 73
1, 105299, Note_off_c, 0, 26, 66
1, 105311, Note_on_c, 0, 29, 38
1, 105314, Note_on_c, 0, 30, 28
1, 105315, Note_off_c, 0, 30, 127
1, 105355, Note_off_c, 0, 29, 34
1, 105429, Note_on_c, 0, 51, 73
1, 105430, Note_on_c, 0, 47, 73
1, 105454, Note_off_c, 0, 47, 67
1, 105454, Note_off_c, 0, 51, 67
1, 105558, Note_on_c, 0, 47, 57
1, 105558, Note_on_c, 0, 51, 65
1, 105584, Note_off_c, 0, 51, 65
1, 105588, Note_off_c, 0, 47, 65
1, 105684, Note_on_c, 0, 51, 51
1, 105685, Note_on_c, 0, 47, 59
1, 105709, Note_off_c, 0, 51, 61
1, 105715, Note_off_c, 0, 47, 65
1, 105811, Note_on_c, 0, 51, 61
1, 105815, Note_on_c, 0, 47, 61
1, 105839, Note_off_c, 0, 51, 64
1, 105843, Note_off_c, 0, 47, 65
1, 105942, Note_on_c, 0, 51, 56
1, 105946, Note_on_c, 0, 47, 54
1, 105970, Note_off_c, 0, 51, 64
1, 105976, Note_off_c, 0, 47, 65
1, 106064, Note_on_c, 0, 51, 65
1, 106071, Note_on_c, 0, 47, 62
1, 106092, Note_off_c, 0, 51, 65
1, 106101, Note_off_c, 0, 47, 66
1, 106190, Note_on_c, 0, 38, 119
1, 106194, Note_on_c, 0, 26, 92
1, 106209, Note_on_c, 0, 47, 70
1, 106211, Note_on_c, 0, 51, 63
1, 106223, Note_off_c, 0, 26, 58
1, 106227, Note_on_c, 0, 29, 27
1, 106228, Note_off_c, 0, 29, 127
1, 106237, Note_off_c, 0, 47, 66
1, 106240, Note_off_c, 0, 51, 64
1, 106248, Note_off_c, 0, 38, 63
1, 106258, Note_on_c, 0, 33, 12
1, 106259, Note_on_c, 0, 28, 43
1, 106260, Note_off_c, 0, 28, 127
1, 106271, Poly_aftertouch_c, 0, 29, 0
1, 106294, Note_off_c, 0, 33, 48
1, 106334, Note_on_c, 0, 47, 65
1, 106334, Note_on_c, 0, 51, 65
1, 106364, Note_off_c, 0, 51, 63
1, 106365, Note_off_c, 0, 47, 65
1, 106462, Note_on_c, 0, 47, 61
1, 106462, Note_on_c, 0, 51, 57
1, 106491, Note_off_c, 0, 47, 64
1, 106493, Note_off_c, 0, 51, 64
1, 106587, Note_on_c, 0, 51, 62
1, 106587, Note_on_c, 0, 47, 62
1, 106617, Note_off_c, 0, 47, 65
1, 106618, Note_off_c, 0, 51, 64
1, 106706, Note_on_c, 0, 47, 72
1, 106709, Note_on_c, 0, 51, 63
1, 106736, Note_off_c, 0, 47, 64
1, 106741, Note_off_c, 0, 51, 63
1, 106832, Note_on_c, 0, 56, 78
1, 106834, Note_on_c, 0, 50, 73
1, 106949, Note_on_c, 0, 45, 78
1, 106967, Note_off_c, 0, 50, 0
1, 106975, Note_off_c, 0, 45, 66
1, 106981, Note_off_c, 0, 56, 59
1, 107019, Poly_aftertouch_c, 0, 50, 0
1, 107074, Note_on_c, 0, 42, 89
1, 107089, Note_on_c, 0, 40, 76
1, 107204, Note_on_c, 0, 41, 82
1, 107217, Note_off_c, 0, 42, 57
1, 107220, Note_off_c, 0, 40, 64
1, 107224, Note_off_c, 0, 41, 70
1, 107326, Note_on_c, 0, 58, 83
1, 107333, Note_on_c, 0, 55, 75
1, 107437, Note_off_c, 0, 55, 59
1, 107440, Note_on_c, 0, 61, 83
1, 107452, Note_off_c, 0, 58, 64
1, 107481, Note_off_c, 0, 61, 63
1, 107556, Note_on_c, 0, 36, 118
1, 107563, Note_on_c, 0, 24, 96
1, 107583, Note_on_c, 0, 31, 46
1, 107600, Note_off_c, 0, 36, 65
1, 107601, Note_off_c, 0, 24, 66
1, 107622, Note_on_c, 0, 28, 18
1, 107627, Note_off_c, 0, 31, 48
1, 107673, Note_off_c, 0, 28, 0
1, 107680, Note_on_c, 0, 36, 111
1, 107685, Note_on_c, 0, 24, 80
1, 107691, Poly_aftertouch_c, 0, 28, 0
1, 107711, Note_off_c, 0, 36, 69
1, 107711, Note_off_c, 0, 24, 68
1, 107809, Note_on_c, 0, 76, 82
1, 107815, Note_on_c, 0, 73, 76
1, 107835, Note_off_c, 0, 73, 70
1, 107838, Note_off_c, 0, 76, 67
1, 107951, Note_on_c, 0, 69, 66
1, 107975, Note_off_c, 0, 69, 72
1, 108063, Note_on_c, 0, 63, 58
1, 108084, Note_off_c, 0, 63, 60
1, 108178, Note_on_c, 0, 82, 78
1, 108200, Note_off_c, 0, 82, 68
1, 108292, Note_on_c, 0, 77, 86
1, 108310, Note_off_c, 0, 77, 72
1, 108403, Note_on_c, 0, 66, 67
1, 108423, Note_off_c, 0, 66, 67
1, 108525, Control_c, 0, 64, 73
1, 108533, Note_on_c, 0, 84, 111
1, 108535, Note_on_c, 0, 68, 88
1, 108540, Note_on_c, 0, 62, 77
1, 108540, Control_c, 0, 64, 127
1, 108561, Note_off_c, 0, 84, 69
1, 108599, Note_off_c, 0, 68, 58
1, 108611, Note_off_c, 0, 62, 52
1, 108629, Control_c, 0, 64, 70
1, 108637, Note_on_c, 0, 59, 73
1, 108644, Control_c, 0, 64, 0
1, 108659, Note_off_c, 0, 59, 71
1, 108810, Note_on_c, 0, 64, 77
1, 108817, Note_on_c, 0, 61, 71
1, 108818, Note_on_c, 0, 70, 86
1, 108823, Note_on_c, 0, 67, 76
1, 108829, Note_on_c, 0, 63, 48
1, 108831, Note_off_c, 0, 64, 72
1, 108833, Note_off_c, 0, 61, 66
1, 108834, Note_off_c, 0, 70, 75
1, 108840, Note_off_c, 0, 67, 68
1, 108841, Note_on_c, 0, 69, 45
1, 108842, Note_off_c, 0, 69, 127
1, 108856, Note_off_c, 0, 63, 37
1, 108869, Poly_aftertouch_c, 0, 69, 0
1, 108948, Note_on_c, 0, 65, 56
1, 108954, Note_on_c, 0, 59, 57
1, 108969, Note_on_c, 0, 48, 34
1, 108970, Note_off_c, 0, 48, 127
1, 108970, Note_off_c, 0, 65, 61
1, 108974, Note_on_c, 0, 74, 15
1, 108978, Note_off_c, 0, 59, 59
1, 108982, Note_on_c, 0, 56, 11
1, 108983, Note_off_c, 0, 56, 127
1, 109013, Note_off_c, 0, 74, 32
1, 109060, Note_on_c, 0, 65, 69
1, 109062, Note_on_c, 0, 59, 63
1, 109082, Note_on_c, 0, 78, 52
1, 109083, Note_on_c, 0, 56, 31
1, 109083, Note_off_c, 0, 65, 68
1, 109084, Note_on_c, 0, 74, 50
1, 109089, Note_off_c, 0, 59, 66
1, 109095, Note_on_c, 0, 48, 36
1, 109096, Note_off_c, 0, 48, 127
1, 109106, Note_off_c, 0, 74, 60
1, 109106, Note_off_c, 0, 78, 37
1, 109117, Note_off_c, 0, 56, 31
1, 109191, Note_on_c, 0, 74, 63
1, 109198, Note_on_c, 0, 59, 62
1, 109199, Note_on_c, 0, 65, 62
1, 109206, Note_on_c, 0, 56, 53
1, 109216, Note_on_c, 0, 78, 26
1, 109217, Note_off_c, 0, 74, 69
1, 109224, Note_off_c, 0, 65, 65
1, 109225, Note_off_c, 0, 59, 67
1, 109229, Note_on_c, 0, 48, 37
1, 109230, Note_off_c, 0, 48, 127
1, 109231, Note_off_c, 0, 56, 57
1, 109240, Note_off_c, 0, 78, 33
1, 109317, Note_on_c, 0, 65, 70
1, 109319, Note_on_c, 0, 59, 64
1, 109323, Note_on_c, 0, 74, 63
1, 109325, Note_on_c, 0, 56, 50
1, 109333, Note_on_c, 0, 78, 47
1, 109340, Note_off_c, 0, 65, 67
1, 109345, Note_off_c, 0, 59, 66
1, 109347, Note_off_c, 0, 74, 71
1, 109348, Note_off_c, 0, 56, 58
1, 109351, Note_on_c, 0, 48, 37
1, 109360, Note_off_c, 0, 78, 35
1, 109390, Note_off_c, 0, 48, 35
1, 109436, Note_on_c, 0, 59, 64
1, 109447, Note_on_c, 0, 65, 65
1, 109447, Note_on_c, 0, 56, 42
1, 109453, Note_on_c, 0, 74, 54
1, 109460, Note_off_c, 0, 59, 67
1, 109465, Note_on_c, 0, 48, 37
1, 109471, Note_off_c, 0, 65, 65
1, 109471, Note_on_c, 0, 78, 13
1, 109473, Note_off_c, 0, 74, 65
1, 109475, Note_off_c, 0, 56, 50
1, 109487, Note_off_c, 0, 78, 34
1, 109503, Note_off_c, 0, 48, 34
1, 109554, Note_on_c, 0, 59, 69
1, 109565, Note_on_c, 0, 65, 68
1, 109569, Note_on_c, 0, 56, 37
1, 109578, Note_off_c, 0, 59, 67
1, 109580, Note_on_c, 0, 78, 60
1, 109590, Note_off_c, 0, 65, 65
1, 109600, Note_off_c, 0, 78, 61
1, 109602, Note_off_c, 0, 56, 48
1, 109646, Control_c, 0, 64, 66
1, 109660, Control_c, 0, 64, 127
1, 109683, Note_on_c, 0, 67, 94
1, 109685, Note_on_c, 0, 69, 93
1, 109686, Note_on_c, 0, 64, 94
1, 109687, Note_on_c, 0, 70, 87
1, 109688, Note_on_c, 0, 63, 91
1, 109690, Note_on_c, 0, 61, 83
1, 109700, Note_off_c, 0, 64, 70
1, 109701, Note_off_c, 0, 69, 75
1, 109705, Note_off_c, 0, 70, 74
1, 109705, Note_off_c, 0, 67, 65
1, 109706, Note_off_c, 0, 63, 74
1, 109707, Note_off_c, 0, 61, 72
1, 109733, Control_c, 0, 64, 58
1, 109748, Control_c, 0, 64, 0
1, 109774, Poly_aftertouch_c, 0, 58, 0
1, 109817, Note_on_c, 0, 59, 74
1, 109820, Note_on_c, 0, 65, 77
1, 109823, Note_on_c, 0, 56, 65
1, 109828, Note_on_c, 0, 48, 55
1, 109834, Note_on_c, 0, 74, 51
1, 109840, Note_off_c, 0, 59, 70
1, 109840, Note_off_c, 0, 65, 70
1, 109843, Note_off_c, 0, 56, 62
1, 109854, Note_off_c, 0, 74, 62
1, 109857, Note_off_c, 0, 48, 38
1, 109946, Note_on_c, 0, 74, 71
1, 109949, Note_on_c, 0, 65, 76
1, 109950, Note_on_c, 0, 59, 69
1, 109951, Note_on_c, 0, 56, 63
1, 109954, Note_on_c, 0, 48, 69
1, 109970, Note_off_c, 0, 65, 69
1, 109972, Note_off_c, 0, 59, 69
1, 109974, Note_off_c, 0, 48, 62
1, 109974, Note_off_c, 0, 74, 65
1, 109975, Note_off_c, 0, 56, 63
1, 110073, Note_on_c, 0, 59, 71
1, 110076, Note_on_c, 0, 65, 81
1, 110079, Note_on_c, 0, 48, 68
1, 110079, Note_on_c, 0, 74, 77
1, 110080, Note_on_c, 0, 56, 64
1, 110095, Note_off_c, 0, 65, 70
1, 110096, Note_off_c, 0, 59, 68
1, 110097, Note_off_c, 0, 74, 71
1, 110100, Note_off_c, 0, 48, 62
1, 110100, Note_off_c, 0, 56, 64
1, 110195, Note_on_c, 0, 59, 78
1, 110198, Note_on_c, 0, 65, 82
1, 110201, Note_on_c, 0, 48, 78
1, 110201, Note_on_c, 0, 74, 72
1, 110202, Note_on_c, 0, 56, 61
1, 110210, Note_on_c, 0, 78, 65
1, 110216, Note_off_c, 0, 59, 71
1, 110216, Note_off_c, 0, 65, 71
1, 110221, Note_off_c, 0, 74, 72
1, 110223, Note_off_c, 0, 56, 64
1, 110228, Note_off_c, 0, 78, 63
1, 110228, Note_off_c, 0, 48, 63
1, 110320, Note_on_c, 0, 59, 84
1, 110321, Note_on_c, 0, 65, 83
1, 110323, Note_on_c, 0, 56, 72
1, 110323, Note_on_c, 0, 74, 78
1, 110326, Note_on_c, 0, 48, 79
1, 110326, Note_on_c, 0, 78, 59
1, 110339, Note_off_c, 0, 59, 73
1, 110341, Note_off_c, 0, 65, 69
1, 110345, Note_off_c, 0, 74, 68
1, 110346, Note_off_c, 0, 78, 65
1, 110348, Note_off_c, 0, 56, 66
1, 110353, Note_off_c, 0, 48, 64
1, 110439, Note_on_c, 0, 59, 84
1, 110441, Note_on_c, 0, 65, 82
1, 110445, Note_on_c, 0, 56, 59
1, 110448, Note_on_c, 0, 48, 75
1, 110448, Note_on_c, 0, 78, 59
1, 110458, Note_off_c, 0, 59, 74
1, 110461, Note_off_c, 0, 65, 70
1, 110466, Note_on_c, 0, 74, 41
1, 110466, Note_off_c, 0, 56, 63
1, 110467, Note_off_c, 0, 48, 60
1, 110469, Note_off_c, 0, 78, 66
1, 110490, Note_off_c, 0, 74, 58
1, 110543, Control_c, 0, 64, 57
1, 110556, Note_on_c, 0, 88, 98
1, 110557, Control_c, 0, 64, 127
1, 110562, Note_on_c, 0, 75, 106
1, 110604, Note_off_c, 0, 75, 55
1, 110642, Note_on_c, 0, 85, 88
1, 110654, Control_c, 0, 64, 62
1, 110669, Control_c, 0, 64, 0
1, 110669, Note_off_c, 0, 88, 61
1, 110683, Note_off_c, 0, 85, 66
1, 110687, Note_on_c, 0, 69, 81
1, 110689, Note_on_c, 0, 58, 70
1, 110691, Note_on_c, 0, 67, 76
1, 110706, Note_off_c, 0, 69, 75
1, 110714, Note_off_c, 0, 67, 70
1, 110714, Note_off_c, 0, 58, 67
1, 110802, Control_c, 0, 64, 47
1, 110809, Note_on_c, 0, 77, 102
1, 110810, Note_on_c, 0, 78, 103
1, 110812, Note_on_c, 0, 74, 90
1, 110815, Note_on_c, 0, 80, 87
1, 110817, Note_on_c, 0, 72, 84
1, 110818, Control_c, 0, 64, 127
1, 110818, Note_on_c, 0, 70, 78
1, 110825, Note_off_c, 0, 77, 75
1, 110825, Note_off_c, 0, 78, 74
1, 110827, Note_off_c, 0, 80, 74
1, 110830, Note_on_c, 0, 71, 63
1, 110830, Note_off_c, 0, 74, 69
1, 110834, Note_off_c, 0, 70, 71
1, 110834, Note_off_c, 0, 72, 75
1, 110840, Note_on_c, 0, 87, 52
1, 110841, Note_off_c, 0, 87, 127
1, 110848, Note_off_c, 0, 71, 65
1, 110906, Control_c, 0, 64, 64
1, 110921, Control_c, 0, 64, 0
1, 110936, Note_on_c, 0, 76, 90
1, 110941, Note_on_c, 0, 81, 89
1, 110942, Note_on_c, 0, 63, 81
1, 110948, Note_on_c, 0, 73, 67
1, 110949, Note_on_c, 0, 94, 78
1, 110950, Note_on_c, 0, 91, 81
1, 110953, Note_off_c, 0, 76, 73
1, 110957, Note_off_c, 0, 81, 74
1, 110961, Note_off_c, 0, 63, 73
1, 110963, Note_off_c, 0, 94, 67
1, 110964, Note_off_c, 0, 91, 66
1, 110966, Note_off_c, 0, 73, 63
1, 110971, Note_on_c, 0, 87, 26
1, 110972, Note_off_c, 0, 87, 127
1, 110972, Note_on_c, 0, 92, 19
1, 111012, Note_off_c, 0, 92, 45
1, 111061, Note_on_c, 0, 81, 102
1, 111062, Note_on_c, 0, 76, 87
1, 111064, Note_on_c, 0, 91, 82
1, 111065, Note_on_c, 0, 63, 89
1, 111067, Note_on_c, 0, 94, 82
1, 111071, Note_on_c, 0, 73, 65
1, 111079, Note_off_c, 0, 76, 73
1, 111080, Note_off_c, 0, 81, 69
1, 111085, Note_off_c, 0, 63, 68
1, 111085, Note_off_c, 0, 94, 73
1, 111089, Note_off_c, 0, 73, 65
1, 111090, Note_off_c, 0, 91, 61
1, 111093, Note_on_c, 0, 87, 42
1, 111094, Note_off_c, 0, 87, 127
1, 111184, Note_on_c, 0, 81, 107
1, 111187, Note_on_c, 0, 76, 91
1, 111188, Note_on_c, 0, 91, 91
1, 111189, Note_on_c, 0, 63, 90
1, 111191, Note_on_c, 0, 73, 77
1, 111192, Note_on_c, 0, 94, 91
1, 111203, Note_off_c, 0, 81, 69
1, 111203, Note_on_c, 0, 87, 60
1, 111204, Note_off_c, 0, 87, 127
1, 111204, Note_off_c, 0, 76, 75
1, 111208, Note_off_c, 0, 63, 71
1, 111210, Note_off_c, 0, 73, 70
1, 111210, Note_off_c, 0, 94, 73
1, 111213, Note_off_c, 0, 91, 59
1, 111311, Note_on_c, 0, 76, 95
1, 111312, Note_on_c, 0, 81, 109
1, 111314, Note_on_c, 0, 63, 95
1, 111315, Note_on_c, 0, 91, 95
1, 111316, Note_on_c, 0, 94, 99
1, 111318, Note_on_c, 0, 73, 85
1, 111325, Note_on_c, 0, 87, 67
1, 111330, Note_off_c, 0, 76, 71
1, 111331, Note_off_c, 0, 94, 71
1, 111332, Note_off_c, 0, 63, 70
1, 111334, Note_off_c, 0, 73, 73
1, 111336, Note_off_c, 0, 81, 65
1, 111341, Note_on_c, 0, 90, 33
1, 111342, Note_off_c, 0, 90, 127
1, 111342, Note_off_c, 0, 91, 62
1, 111346, Note_off_c, 0, 87, 42
1, 111365, Note_on_c, 0, 74, 9
1, 111366, Note_off_c, 0, 74, 127
1, 111444, Note_on_c, 0, 81, 107
1, 111444, Note_on_c, 0, 76, 93
1, 111448, Note_on_c, 0, 63, 92
1, 111448, Note_on_c, 0, 91, 92
1, 111450, Note_on_c, 0, 94, 88
1, 111452, Note_on_c, 0, 73, 82
1, 111460, Note_off_c, 0, 76, 75
1, 111462, Note_on_c, 0, 87, 55
1, 111465, Note_off_c, 0, 63, 73
1, 111466, Note_off_c, 0, 94, 73
1, 111468, Note_on_c, 0, 90, 49
1, 111469, Note_off_c, 0, 90, 127
1, 111470, Note_off_c, 0, 73, 72
1, 111474, Note_off_c, 0, 81, 62
1, 111479, Note_off_c, 0, 91, 59
1, 111485, Note_off_c, 0, 87, 42
1, 111573, Note_on_c, 0, 81, 106
1, 111575, Note_on_c, 0, 76, 94
1, 111579, Note_on_c, 0, 63, 100
1, 111579, Note_on_c, 0, 90, 56
1, 111579, Note_on_c, 0, 91, 91
1, 111579, Note_on_c, 0, 94, 86
1, 111580, Note_on_c, 0, 73, 89
1, 111592, Note_off_c, 0, 76, 73
1, 111593, Note_on_c, 0, 87, 49
1, 111594, Note_off_c, 0, 73, 74
1, 111596, Note_off_c, 0, 63, 69
1, 111597, Note_off_c, 0, 94, 72
1, 111606, Note_off_c, 0, 81, 68
1, 111607, Note_off_c, 0, 90, 64
1, 111612, Note_off_c, 0, 91, 60
1, 111618, Note_off_c, 0, 87, 58
1, 111704, Note_on_c, 0, 76, 96
1, 111706, Note_on_c, 0, 81, 98
1, 111706, Note_on_c, 0, 63, 100
1, 111709, Note_on_c, 0, 73, 88
1, 111715, Note_on_c, 0, 93, 82
1, 111719, Note_off_c, 0, 76, 75
1, 111724, Note_on_c, 0, 92, 67
1, 111724, Note_off_c, 0, 73, 73
1, 111724, Note_off_c, 0, 63, 67
1, 111733, Note_off_c, 0, 81, 63
1, 111733, Note_off_c, 0, 93, 69
1, 111741, Note_off_c, 0, 92, 65
1, 111833, Control_c, 0, 64, 17
1, 111839, Note_on_c, 0, 84, 105
1, 111839, Note_on_c, 0, 98, 97
1, 111848, Control_c, 0, 64, 90
1, 111858, Note_on_c, 0, 97, 64
1, 111862, Control_c, 0, 64, 127
1, 111867, Note_on_c, 0, 94, 52
1, 111868, Note_off_c, 0, 94, 127
1, 111868, Note_off_c, 0, 84, 67
1, 111873, Note_off_c, 0, 98, 68
1, 111880, Note_off_c, 0, 97, 60
1, 111911, Note_on_c, 0, 95, 97
1, 111977, Note_off_c, 0, 95, 65
1, 111980, Note_on_c, 0, 92, 90
1, 111997, Note_off_c, 0, 92, 74
1, 112082, Note_on_c, 0, 77, 80
1, 112085, Note_on_c, 0, 76, 75
1, 112104, Note_off_c, 0, 77, 69
1, 112144, Note_off_c, 0, 76, 60
1, 112153, Note_on_c, 0, 69, 79
1, 112204, Note_on_c, 0, 66, 77
1, 112219, Note_off_c, 0, 69, 65
1, 112266, Note_on_c, 0, 62, 83
1, 112272, Note_off_c, 0, 66, 66
1, 112285, Note_off_c, 0, 62, 71
1, 112314, Control_c, 0, 64, 89
1, 112329, Control_c, 0, 64, 0
1, 112353, Note_on_c, 0, 71, 104
1, 112353, Note_on_c, 0, 75, 102
1, 112353, Note_on_c, 0, 84, 91
1, 112356, Note_on_c, 0, 82, 91
1, 112357, Note_on_c, 0, 80, 89
1, 112434, Control_c, 0, 64, 65
1, 112449, Control_c, 0, 64, 92
1, 112460, Note_on_c, 0, 67, 78
1, 112464, Control_c, 0, 64, 127
1, 112484, Note_off_c, 0, 67, 63
1, 112535, Note_on_c, 0, 64, 75
1, 112575, Note_off_c, 0, 71, 60
1, 112578, Note_off_c, 0, 84, 61
1, 112584, Note_off_c, 0, 64, 52
1, 112594, Note_on_c, 0, 61, 81
1, 112599, Note_off_c, 0, 82, 63
1, 112604, Note_off_c, 0, 80, 56
1, 112607, Note_off_c, 0, 75, 58
1, 112634, Note_off_c, 0, 61, 63
1, 112656, Control_c, 0, 64, 86
1, 112665, Note_on_c, 0, 65, 77
1, 112671, Control_c, 0, 64, 0
1, 112696, Note_off_c, 0, 65, 57
1, 112740, Note_on_c, 0, 62, 70
1, 112768, Note_off_c, 0, 62, 62
1, 112785, Note_on_c, 0, 58, 53
1, 112833, Control_c, 0, 64, 53
1, 112842, Note_on_c, 0, 54, 90
1, 112842, Note_on_c, 0, 59, 65
1, 112845, Note_on_c, 0, 64, 92
1, 112848, Control_c, 0, 64, 127
1, 112854, Note_on_c, 0, 62, 77
1, 112855, Note_on_c, 0, 60, 63
1, 112857, Note_on_c, 0, 75, 101
1, 112857, Note_on_c, 0, 80, 100
1, 112859, Note_on_c, 0, 67, 94
1, 112860, Note_on_c, 0, 69, 86
1, 112861, Note_off_c, 0, 58, 59
1, 112865, Note_off_c, 0, 54, 66
1, 112872, Note_off_c, 0, 59, 67
1, 112873, Note_on_c, 0, 78, 69
1, 112874, Note_off_c, 0, 67, 74
1, 112881, Note_off_c, 0, 62, 69
1, 112883, Note_off_c, 0, 60, 61
1, 112884, Note_off_c, 0, 69, 76
1, 112886, Note_off_c, 0, 64, 66
1, 112896, Note_off_c, 0, 78, 68
1, 112898, Note_off_c, 0, 75, 59
1, 112904, Note_off_c, 0, 80, 67
1, 113048, Control_c, 0, 64, 90
1, 113063, Control_c, 0, 64, 39
1, 113078, Control_c, 0, 64, 0
1, 113092, Note_on_c, 0, 79, 86
1, 113093, Note_on_c, 0, 77, 75
1, 113095, Note_on_c, 0, 70, 72
1, 113095, Note_on_c, 0, 81, 76
1, 113095, Note_on_c, 0, 88, 113
1, 113097, Note_on_c, 0, 100, 102
1, 113099, Note_on_c, 0, 97, 97
1, 113103, Note_on_c, 0, 99, 61
1, 113105, Note_on_c, 0, 96, 82
1, 113106, Note_on_c, 0, 101, 93
1, 113107, Note_on_c, 0, 83, 67
1, 113110, Note_on_c, 0, 98, 71
1, 113117, Note_off_c, 0, 88, 70
1, 113117, Note_off_c, 0, 97, 69
1, 113117, Note_off_c, 0, 81, 69
1, 113117, Note_off_c, 0, 101, 72
1, 113120, Note_off_c, 0, 70, 69
1, 113122, Note_off_c, 0, 79, 62
1, 113123, Note_off_c, 0, 83, 65
1, 113123, Note_off_c, 0, 99, 38
1, 113125, Note_off_c, 0, 77, 63
1, 113125, Note_off_c, 0, 96, 70
1, 113125, Note_off_c, 0, 98, 71
1, 113126, Note_off_c, 0, 100, 63
1, 113217, Note_on_c, 0, 99, 94
1, 113218, Note_on_c, 0, 101, 82
1, 113223, Note_on_c, 0, 88, 94
1, 113224, Note_on_c, 0, 70, 69
1, 113225, Note_on_c, 0, 77, 71
1, 113225, Note_on_c, 0, 97, 86
1, 113226, Note_on_c, 0, 89, 82
1, 113227, Note_on_c, 0, 81, 69
1, 113230, Note_on_c, 0, 83, 58
1, 113233, Note_on_c, 0, 79, 60
1, 113235, Note_off_c, 0, 101, 73
1, 113238, Note_off_c, 0, 97, 72
1, 113238, Note_off_c, 0, 88, 74
1, 113239, Note_off_c, 0, 99, 64
1, 113242, Note_off_c, 0, 81, 65
1, 113245, Note_off_c, 0, 77, 66
1, 113245, Note_off_c, 0, 89, 72
1, 113248, Note_off_c, 0, 83, 63
1, 113250, Note_off_c, 0, 70, 68
1, 113251, Note_off_c, 0, 79, 64
1, 113349, Note_on_c, 0, 101, 97
1, 113351, Note_on_c, 0, 98, 97
1, 113352, Note_on_c, 0, 88, 94
1, 113352, Note_on_c, 0, 97, 96
1, 113354, Note_on_c, 0, 81, 71
1, 113355, Note_on_c, 0, 70, 74
1, 113355, Note_on_c, 0, 89, 87
1, 113356, Note_on_c, 0, 83, 70
1, 113357, Note_on_c, 0, 77, 73
1, 113358, Note_on_c, 0, 79, 61
1, 113364, Note_off_c, 0, 101, 76
1, 113366, Note_off_c, 0, 98, 78
1, 113367, Note_off_c, 0, 88, 75
1, 113367, Note_off_c, 0, 97, 74
1, 113372, Note_off_c, 0, 81, 63
1, 113375, Note_off_c, 0, 89, 73
1, 113378, Note_off_c, 0, 70, 71
1, 113379, Note_off_c, 0, 77, 67
1, 113379, Note_off_c, 0, 79, 65
1, 113379, Note_off_c, 0, 83, 64
1, 113473, Note_on_c, 0, 88, 111
1, 113476, Note_on_c, 0, 97, 102
1, 113477, Note_on_c, 0, 101, 107
1, 113478, Note_on_c, 0, 81, 82
1, 113479, Note_on_c, 0, 98, 91
1, 113480, Note_on_c, 0, 83, 78
1, 113483, Note_on_c, 0, 70, 79
1, 113484, Note_on_c, 0, 79, 64
1, 113486, Note_on_c, 0, 100, 77
1, 113489, Note_on_c, 0, 77, 70
1, 113495, Note_off_c, 0, 98, 73
1, 113498, Note_off_c, 0, 97, 66
1, 113498, Note_off_c, 0, 81, 68
1, 113498, Note_off_c, 0, 88, 69
1, 113499, Note_off_c, 0, 101, 68
1, 113499, Note_off_c, 0, 83, 71
1, 113502, Note_off_c, 0, 100, 68
1, 113504, Note_off_c, 0, 70, 70
1, 113508, Note_off_c, 0, 79, 65
1, 113513, Note_off_c, 0, 77, 66
1, 113601, Note_on_c, 0, 88, 105
1, 113602, Note_on_c, 0, 97, 93
1, 113603, Note_on_c, 0, 101, 97
1, 113605, Note_on_c, 0, 98, 93
1, 113607, Note_on_c, 0, 81, 82
1, 113608, Note_on_c, 0, 70, 77
1, 113611, Note_on_c, 0, 77, 74
1, 113612, Note_on_c, 0, 79, 65
1, 113612, Note_on_c, 0, 83, 77
1, 113629, Note_off_c, 0, 98, 72
1, 113632, Note_off_c, 0, 81, 64
1, 113634, Note_off_c, 0, 101, 64
1, 113635, Note_off_c, 0, 88, 68
1, 113638, Note_off_c, 0, 79, 66
1, 113638, Note_off_c, 0, 70, 69
1, 113641, Note_off_c, 0, 77, 68
1, 113641, Note_off_c, 0, 83, 66
1, 113641, Note_off_c, 0, 97, 63
1, 113648, Note_on_c, 0, 100, 18
1, 113649, Note_off_c, 0, 100, 127
1, 113736, Note_on_c, 0, 81, 80
1, 113737, Note_on_c, 0, 88, 101
1, 113739, Note_on_c, 0, 70, 80
1, 113741, Note_on_c, 0, 77, 80
1, 113741, Note_on_c, 0, 83, 78
1, 113745, Note_on_c, 0, 97, 81
1, 113748, Note_on_c, 0, 79, 55
1, 113748, Note_on_c, 0, 100, 82
1, 113748, Note_on_c, 0, 101, 84
1, 113753, Note_on_c, 0, 96, 71
1, 113754, Note_off_c, 0, 81, 71
1, 113757, Note_off_c, 0, 88, 68
1, 113759, Note_off_c, 0, 70, 73
1, 113760, Note_off_c, 0, 77, 70
1, 113760, Note_off_c, 0, 97, 69
1, 113763, Note_off_c, 0, 83, 64
1, 113766, Note_off_c, 0, 101, 67
1, 113767, Note_on_c, 0, 99, 41
1, 113768, Note_off_c, 0, 99, 127
1, 113770, Note_off_c, 0, 79, 60
1, 113770, Note_off_c, 0, 100, 70
1, 113775, Note_off_c, 0, 96, 66
1, 113862, Note_on_c, 0, 92, 107
1, 113867, Note_on_c, 0, 75, 94
1, 113867, Note_on_c, 0, 81, 92
1, 113867, Note_on_c, 0, 96, 77
1, 113868, Note_on_c, 0, 78, 93
1, 113868, Note_on_c, 0, 79, 82
1, 113868, Note_on_c, 0, 93, 94
1, 113869, Note_on_c, 0, 95, 86
1, 113873, Note_on_c, 0, 97, 72
1, 113884, Note_off_c, 0, 81, 69
1, 113884, Note_off_c, 0, 93, 70
1, 113885, Note_off_c, 0, 78, 68
1, 113885, Note_off_c, 0, 79, 71
1, 113892, Note_off_c, 0, 92, 72
1, 113892, Note_off_c, 0, 97, 46
1, 113897, Note_on_c, 0, 94, 45
1, 113898, Note_off_c, 0, 94, 127
1, 113898, Note_off_c, 0, 96, 52
1, 113899, Note_off_c, 0, 95, 64
1, 113899, Note_off_c, 0, 75, 62
1, 113993, Note_on_c, 0, 101, 97
1, 113994, Note_on_c, 0, 81, 90
1, 113995, Note_on_c, 0, 89, 106
1, 113999, Note_on_c, 0, 77, 85
1, 114001, Note_on_c, 0, 83, 80
1, 114002, Note_on_c, 0, 97, 84
1, 114005, Note_on_c, 0, 79, 69
1, 114009, Note_on_c, 0, 98, 70
1, 114010, Note_on_c, 0, 70, 65
1, 114013, Note_off_c, 0, 81, 69
1, 114017, Note_on_c, 0, 100, 56
1, 114018, Note_off_c, 0, 100, 127
1, 114018, Note_off_c, 0, 89, 69
1, 114018, Note_off_c, 0, 77, 71
1, 114019, Note_off_c, 0, 97, 70
1, 114020, Note_off_c, 0, 83, 72
1, 114022, Note_off_c, 0, 79, 68
1, 114025, Note_off_c, 0, 98, 68
1, 114026, Note_off_c, 0, 101, 69
1, 114029, Note_off_c, 0, 70, 66
1, 114115, Note_on_c, 0, 88, 107
1, 114115, Note_on_c, 0, 101, 106
1, 114118, Note_on_c, 0, 97, 89
1, 114118, Note_on_c, 0, 98, 84
1, 114121, Note_on_c, 0, 70, 73
1, 114123, Note_on_c, 0, 83, 87
1, 114124, Note_on_c, 0, 79, 67
1, 114124, Note_on_c, 0, 78, 59
1, 114125, Note_off_c, 0, 78, 127
1, 114125, Note_on_c, 0, 81, 76
1, 114126, Note_on_c, 0, 77, 76
1, 114129, Note_on_c, 0, 100, 57
1, 114130, Note_off_c, 0, 100, 127
1, 114139, Note_off_c, 0, 81, 69
1, 114139, Note_off_c, 0, 98, 72
1, 114140, Note_off_c, 0, 88, 71
1, 114142, Note_off_c, 0, 83, 70
1, 114143, Note_off_c, 0, 70, 71
1, 114143, Note_off_c, 0, 97, 65
1, 114147, Note_off_c, 0, 77, 70
1, 114148, Note_off_c, 0, 79, 67
1, 114154, Note_off_c, 0, 101, 64
1, 114241, Note_on_c, 0, 88, 108
1, 114242, Note_on_c, 0, 97, 104
1, 114243, Note_on_c, 0, 101, 97
1, 114245, Note_on_c, 0, 98, 98
1, 114248, Note_on_c, 0, 83, 81
1, 114250, Note_on_c, 0, 81, 71
1, 114252, Note_on_c, 0, 70, 78
1, 114252, Note_on_c, 0, 79, 72
1, 114254, Note_on_c, 0, 77, 77
1, 114260, Note_on_c, 0, 78, 32
1, 114262, Note_off_c, 0, 98, 69
1, 114263, Note_on_c, 0, 100, 43
1, 114266, Note_off_c, 0, 88, 71
1, 114268, Note_off_c, 0, 83, 68
1, 114271, Note_off_c, 0, 101, 62
1, 114274, Note_off_c, 0, 81, 65
1, 114275, Note_off_c, 0, 70, 70
1, 114276, Note_off_c, 0, 77, 69
1, 114276, Note_off_c, 0, 79, 66
1, 114276, Note_off_c, 0, 97, 66
1, 114288, Note_off_c, 0, 78, 48
1, 114297, Note_off_c, 0, 100, 35
1, 114367, Note_on_c, 0, 88, 104
1, 114368, Note_on_c, 0, 97, 103
1, 114377, Note_on_c, 0, 101, 99
1, 114381, Note_on_c, 0, 81, 83
1, 114382, Note_on_c, 0, 83, 83
1, 114383, Note_on_c, 0, 79, 72
1, 114384, Note_on_c, 0, 70, 78
1, 114384, Note_on_c, 0, 77, 74
1, 114386, Note_on_c, 0, 98, 75
1, 114398, Note_off_c, 0, 88, 68
1, 114400, Note_on_c, 0, 99, 44
1, 114401, Note_off_c, 0, 99, 127
1, 114401, Note_off_c, 0, 81, 70
1, 114401, Note_off_c, 0, 98, 72
1, 114401, Note_off_c, 0, 83, 71
1, 114405, Note_off_c, 0, 70, 72
1, 114405, Note_off_c, 0, 77, 70
1, 114405, Note_off_c, 0, 79, 68
1, 114410, Note_off_c, 0, 97, 66
1, 114413, Note_off_c, 0, 101, 63
1, 114503, Note_on_c, 0, 99, 98
1, 114505, Note_on_c, 0, 80, 98
1, 114505, Note_on_c, 0, 81, 95
1, 114507, Note_on_c, 0, 77, 96
1, 114507, Note_on_c, 0, 93, 103
1, 114511, Note_on_c, 0, 78, 79
1, 114511, Note_on_c, 0, 83, 89
1, 114514, Note_on_c, 0, 96, 90
1, 114521, Note_on_c, 0, 97, 72
1, 114521, Note_off_c, 0, 81, 74
1, 114526, Note_off_c, 0, 78, 65
1, 114526, Note_off_c, 0, 83, 71
1, 114527, Note_off_c, 0, 93, 61
1, 114529, Note_off_c, 0, 80, 67
1, 114529, Note_off_c, 0, 96, 73
1, 114534, Note_off_c, 0, 77, 64
1, 114537, Note_off_c, 0, 97, 65
1, 114543, Note_off_c, 0, 99, 66
1, 114547, Note_on_c, 0, 101, 24
1, 114548, Note_off_c, 0, 101, 127
1, 114634, Note_on_c, 0, 88, 113
1, 114634, Note_on_c, 0, 77, 95
1, 114635, Note_on_c, 0, 81, 90
1, 114635, Note_on_c, 0, 97, 100
1, 114638, Note_on_c, 0, 83, 91
1, 114638, Note_on_c, 0, 98, 94
1, 114639, Note_on_c, 0, 100, 84
1, 114640, Note_on_c, 0, 101, 86
1, 114640, Note_on_c, 0, 79, 83
1, 114644, Note_on_c, 0, 70, 76
1, 114651, Note_on_c, 0, 75, 58
1, 114652, Note_off_c, 0, 81, 68
1, 114653, Note_off_c, 0, 83, 71
1, 114656, Note_off_c, 0, 98, 68
1, 114656, Note_off_c, 0, 101, 72
1, 114657, Note_off_c, 0, 88, 67
1, 114657, Note_off_c, 0, 79, 70
1, 114659, Note_off_c, 0, 77, 62
1, 114659, Note_off_c, 0, 100, 69
1, 114660, Note_off_c, 0, 70, 72
1, 114669, Note_off_c, 0, 97, 63
1, 114671, Note_off_c, 0, 75, 66
1, 114765, Note_on_c, 0, 88, 113
1, 114767, Note_on_c, 0, 97, 109
1, 114767, Note_on_c, 0, 101, 104
1, 114768, Note_on_c, 0, 81, 105
1, 114768, Note_on_c, 0, 70, 82
1, 114768, Note_on_c, 0, 98, 116
1, 114769, Note_on_c, 0, 79, 104
1, 114770, Note_on_c, 0, 77, 101
1, 114771, Note_on_c, 0, 83, 88
1, 114774, Note_on_c, 0, 100, 71
1, 114783, Note_on_c, 0, 75, 57
1, 114784, Note_off_c, 0, 98, 72
1, 114785, Note_off_c, 0, 81, 67
1, 114785, Note_off_c, 0, 83, 75
1, 114785, Note_off_c, 0, 77, 72
1, 114787, Note_off_c, 0, 79, 66
1, 114787, Note_off_c, 0, 88, 72
1, 114789, Note_off_c, 0, 100, 48
1, 114790, Note_off_c, 0, 70, 66
1, 114798, Note_off_c, 0, 101, 65
1, 114798, Note_off_c, 0, 97, 64
1, 114806, Note_off_c, 0, 75, 68
1, 114906, Note_on_c, 0, 81, 108
1, 114906, Note_on_c, 0, 88, 124
1, 114907, Note_on_c, 0, 77, 102
1, 114908, Note_on_c, 0, 101, 114
1, 114908, Note_on_c, 0, 70, 97
1, 114909, Note_on_c, 0, 79, 99
1, 114909, Note_on_c, 0, 83, 115
1, 114910, Note_on_c, 0, 78, 87
1, 114911, Note_off_c, 0, 78, 127
1, 114911, Note_on_c, 0, 97, 101
1, 114911, Note_on_c, 0, 98, 101
1, 114917, Note_on_c, 0, 100, 78
1, 114921, Note_on_c, 0, 89, 86
1, 114922, Note_off_c, 0, 89, 127
1, 114922, Note_off_c, 0, 83, 79
1, 114924, Note_off_c, 0, 70, 74
1, 114924, Note_off_c, 0, 98, 80
1, 114926, Note_off_c, 0, 79, 71
1, 114929, Note_off_c, 0, 88, 72
1, 114929, Note_off_c, 0, 81, 69
1, 114932, Note_off_c, 0, 100, 68
1, 114935, Note_off_c, 0, 97, 63
1, 114935, Note_off_c, 0, 77, 64
1, 114935, Note_off_c, 0, 101, 64
1, 114947, Note_on_c, 0, 74, 26
1, 114948, Note_off_c, 0, 74, 127
1, 114980, Poly_aftertouch_c, 0, 74, 0
1, 115133, Control_c, 0, 67, 26
1, 115148, Control_c, 0, 67, 28
1, 115236, Control_c, 0, 67, 28
1, 115251, Control_c, 0, 67, 30
1, 115266, Control_c, 0, 67, 34
1, 115280, Control_c, 0, 67, 58
1, 115295, Control_c, 0, 67, 127
1, 115372, Note_on_c, 0, 21, 75
1, 115406, Note_off_c, 0, 21, 59
1, 115516, Note_on_c, 0, 29, 64
1, 115544, Note_off_c, 0, 29, 62
1, 115635, Note_on_c, 0, 32, 66
1, 115671, Note_off_c, 0, 32, 63
1, 115692, Note_on_c, 0, 74, 58
1, 115725, Note_off_c, 0, 74, 63
1, 115761, Note_on_c, 0, 82, 68
1, 115783, Note_on_c, 0, 35, 9
1, 115786, Note_off_c, 0, 82, 67
1, 115820, Note_on_c, 0, 74, 70
1, 115832, Note_off_c, 0, 35, 37
1, 115859, Note_off_c, 0, 74, 63
1, 115874, Note_on_c, 0, 42, 70
1, 115890, Note_on_c, 0, 85, 59
1, 115891, Note_off_c, 0, 85, 127
1, 115903, Note_on_c, 0, 84, 53
1, 115906, Note_off_c, 0, 42, 65
1, 115926, Note_off_c, 0, 84, 43
1, 116029, Note_on_c, 0, 35, 57
1, 116055, Note_off_c, 0, 35, 58
1, 116164, Note_on_c, 0, 26, 46
1, 116200, Note_off_c, 0, 26, 44
1, 116290, Note_on_c, 0, 40, 60
1, 116318, Note_off_c, 0, 40, 67
1, 116427, Note_on_c, 0, 27, 59
1, 116457, Note_off_c, 0, 27, 62
1, 116562, Note_on_c, 0, 31, 51
1, 116565, Note_on_c, 0, 65, 64
1, 116594, Note_off_c, 0, 31, 49
1, 116594, Note_off_c, 0, 65, 65
1, 116634, Note_on_c, 0, 71, 69
1, 116666, Note_off_c, 0, 71, 64
1, 116693, Note_on_c, 0, 34, 36
1, 116704, Note_on_c, 0, 76, 74
1, 116728, Note_off_c, 0, 34, 44
1, 116754, Note_off_c, 0, 76, 63
1, 116774, Note_on_c, 0, 79, 26
1, 116797, Note_on_c, 0, 25, 62
1, 116798, Note_on_c, 0, 69, 71
1, 116813, Note_off_c, 0, 79, 40
1, 116829, Note_off_c, 0, 25, 62
1, 116834, Note_off_c, 0, 69, 62
1, 116891, Note_on_c, 0, 79, 61
1, 116902, Note_on_c, 0, 80, 19
1, 116926, Note_on_c, 0, 72, 86
1, 116941, Note_on_c, 0, 29, 48
1, 116944, Note_off_c, 0, 80, 53
1, 116950, Note_off_c, 0, 79, 61
1, 116973, Note_off_c, 0, 29, 51
1, 116991, Note_off_c, 0, 72, 62
1, 116994, Note_on_c, 0, 75, 99
1, 117010, Note_off_c, 0, 75, 74
1, 117075, Note_on_c, 0, 38, 59
1, 117089, Poly_aftertouch_c, 0, 76, 0
1, 117107, Note_off_c, 0, 38, 63
1, 117221, Note_on_c, 0, 34, 53
1, 117249, Note_off_c, 0, 34, 55
1, 117366, Note_on_c, 0, 40, 44
1, 117405, Note_off_c, 0, 40, 53
1, 117497, Note_on_c, 0, 35, 49
1, 117506, Note_on_c, 0, 54, 81
1, 117527, Note_off_c, 0, 35, 54
1, 117558, Note_on_c, 0, 51, 66
1, 117578, Note_off_c, 0, 51, 63
1, 117580, Note_off_c, 0, 54, 61
1, 117623, Note_on_c, 0, 32, 38
1, 117627, Note_on_c, 0, 60, 74
1, 117662, Note_off_c, 0, 32, 49
1, 117681, Note_on_c, 0, 57, 73
1, 117723, Note_off_c, 0, 60, 51
1, 117743, Note_on_c, 0, 53, 71
1, 117746, Note_on_c, 0, 30, 49
1, 117747, Note_off_c, 0, 57, 63
1, 117762, Note_off_c, 0, 53, 68
1, 117775, Note_off_c, 0, 30, 55
1, 117877, Note_on_c, 0, 31, 46
1, 117898, Control_c, 0, 67, 102
1, 117909, Note_off_c, 0, 31, 49
1, 117913, Control_c, 0, 67, 28
1, 117925, Note_on_c, 0, 76, 113
1, 117928, Control_c, 0, 67, 0
1, 117942, Note_off_c, 0, 76, 68
1, 118026, Note_on_c, 0, 39, 16
1, 118073, Note_off_c, 0, 39, 28
1, 118150, Note_on_c, 0, 36, 45
1, 118185, Note_off_c, 0, 36, 49
1, 118187, Control_c, 0, 67, 23
1, 118202, Control_c, 0, 67, 51
1, 118217, Control_c, 0, 67, 93
1, 118232, Control_c, 0, 67, 127
1, 118271, Note_on_c, 0, 33, 60
1, 118297, Note_off_c, 0, 33, 61
1, 118420, Note_on_c, 0, 34, 34
1, 118455, Note_off_c, 0, 34, 46
1, 118548, Note_on_c, 0, 31, 54
1, 118551, Note_on_c, 0, 90, 81
1, 118576, Note_off_c, 0, 31, 57
1, 118622, Note_on_c, 0, 85, 61
1, 118628, Note_off_c, 0, 90, 63
1, 118647, Note_off_c, 0, 85, 67
1, 118661, Note_on_c, 0, 80, 55
1, 118681, Note_off_c, 0, 80, 62
1, 118727, Note_on_c, 0, 86, 70
1, 118737, Poly_aftertouch_c, 0, 28, 0
1, 118790, Note_on_c, 0, 24, 52
1, 118794, Note_on_c, 0, 82, 67
1, 118824, Note_off_c, 0, 24, 62
1, 118826, Note_off_c, 0, 86, 39
1, 118844, Note_on_c, 0, 79, 68
1, 118888, Note_off_c, 0, 82, 62
1, 118896, Note_off_c, 0, 79, 60
1, 118935, Note_on_c, 0, 25, 44
1, 118954, Note_on_c, 0, 71, 28
1, 118962, Note_off_c, 0, 25, 54
1, 118989, Note_off_c, 0, 71, 31
1, 119072, Note_on_c, 0, 23, 51
1, 119101, Note_off_c, 0, 23, 53
1, 119177, Note_on_c, 0, 74, 91
1, 119206, Note_on_c, 0, 32, 60
1, 119224, Note_on_c, 0, 65, 85
1, 119228, Note_off_c, 0, 74, 68
1, 119233, Note_off_c, 0, 32, 59
1, 119242, Note_off_c, 0, 65, 72
1, 119247, Control_c, 0, 67, 113
1, 119262, Control_c, 0, 67, 92
1, 119277, Control_c, 0, 67, 83
1, 119292, Control_c, 0, 67, 81
1, 119321, Control_c, 0, 67, 82
1, 119336, Control_c, 0, 67, 85
1, 119343, Note_on_c, 0, 39, 61
1, 119351, Control_c, 0, 67, 88
1, 119365, Control_c, 0, 67, 90
1, 119368, Note_off_c, 0, 39, 59
1, 119380, Control_c, 0, 67, 92
1, 119395, Control_c, 0, 67, 93
1, 119410, Control_c, 0, 67, 92
1, 119425, Control_c, 0, 67, 91
1, 119454, Control_c, 0, 67, 91
1, 119473, Note_on_c, 0, 45, 61
1, 119495, Note_off_c, 0, 45, 62
1, 119498, Control_c, 0, 67, 90
1, 119543, Control_c, 0, 67, 91
1, 119558, Control_c, 0, 67, 92
1, 119572, Control_c, 0, 67, 95
1, 119588, Control_c, 0, 67, 110
1, 119603, Control_c, 0, 67, 127
1, 119607, Note_on_c, 0, 53, 63
1, 119642, Note_off_c, 0, 53, 68
1, 119767, Note_on_c, 0, 50, 52
1, 119793, Note_off_c, 0, 50, 52
1, 119894, Note_on_c, 0, 42, 52
1, 119924, Note_off_c, 0, 42, 62
1, 120023, Note_on_c, 0, 33, 52
1, 120052, Note_off_c, 0, 33, 57
1, 120156, Note_on_c, 0, 69, 71
1, 120174, Note_on_c, 0, 24, 61
1, 120181, Note_off_c, 0, 69, 68
1, 120208, Note_off_c, 0, 24, 61
1, 120210, Note_on_c, 0, 80, 78
1, 120285, Note_on_c, 0, 70, 76
1, 120299, Note_on_c, 0, 28, 57
1, 120319, Note_off_c, 0, 80, 56
1, 120330, Note_off_c, 0, 28, 52
1, 120353, Note_on_c, 0, 73, 78
1, 120369, Note_off_c, 0, 70, 60
1, 120416, Note_off_c, 0, 73, 64
1, 120423, Note_on_c, 0, 66, 78
1, 120425, Note_on_c, 0, 39, 56
1, 120458, Note_off_c, 0, 39, 62
1, 120468, Note_off_c, 0, 66, 62
1, 120482, Note_on_c, 0, 72, 72
1, 120536, Note_on_c, 0, 29, 55
1, 120543, Note_on_c, 0, 76, 69
1, 120544, Note_off_c, 0, 72, 64
1, 120569, Note_off_c, 0, 29, 62
1, 120596, Note_on_c, 0, 79, 72
1, 120600, Note_off_c, 0, 76, 66
1, 120660, Note_on_c, 0, 32, 61
1, 120667, Note_on_c, 0, 75, 78
1, 120684, Note_off_c, 0, 79, 62
1, 120691, Note_off_c, 0, 32, 64
1, 120719, Note_on_c, 0, 65, 72
1, 120723, Note_off_c, 0, 75, 64
1, 120741, Note_off_c, 0, 65, 68
1, 120792, Note_on_c, 0, 62, 80
1, 120795, Note_on_c, 0, 37, 65
1, 120809, Note_off_c, 0, 62, 67
1, 120824, Note_off_c, 0, 37, 65
1, 120848, Control_c, 0, 67, 124
1, 120863, Control_c, 0, 67, 115
1, 120878, Control_c, 0, 67, 104
1, 120892, Control_c, 0, 67, 95
1, 120907, Control_c, 0, 67, 86
1, 120922, Control_c, 0, 67, 79
1, 120937, Control_c, 0, 67, 72
1, 120938, Note_on_c, 0, 43, 51
1, 120951, Control_c, 0, 67, 65
1, 120966, Note_off_c, 0, 43, 53
1, 120966, Control_c, 0, 67, 57
1, 120981, Control_c, 0, 67, 50
1, 120996, Control_c, 0, 67, 44
1, 121011, Control_c, 0, 67, 38
1, 121025, Control_c, 0, 67, 32
1, 121040, Control_c, 0, 67, 27
1, 121055, Control_c, 0, 67, 22
1, 121070, Control_c, 0, 67, 15
1, 121076, Note_on_c, 0, 35, 53
1, 121085, Control_c, 0, 67, 9
1, 121099, Control_c, 0, 67, 0
1, 121105, Note_off_c, 0, 35, 55
1, 121227, Note_on_c, 0, 38, 56
1, 121227, Control_c, 0, 67, 24
1, 121241, Control_c, 0, 67, 82
1, 121255, Note_off_c, 0, 38, 57
1, 121256, Control_c, 0, 67, 127
1, 121362, Note_on_c, 0, 34, 56
1, 121388, Note_off_c, 0, 34, 62
1, 121495, Note_on_c, 0, 24, 64
1, 121528, Note_off_c, 0, 24, 62
1, 121539, Note_on_c, 0, 82, 72
1, 121603, Note_on_c, 0, 28, 61
1, 121606, Note_on_c, 0, 83, 78
1, 121613, Note_off_c, 0, 82, 64
1, 121627, Control_c, 0, 67, 53
1, 121636, Note_off_c, 0, 28, 53
1, 121641, Control_c, 0, 67, 0
1, 121672, Note_on_c, 0, 81, 80
1, 121690, Note_off_c, 0, 83, 61
1, 121723, Note_on_c, 0, 37, 65
1, 121731, Note_on_c, 0, 78, 84
1, 121748, Note_off_c, 0, 81, 54
1, 121752, Note_off_c, 0, 37, 66
1, 121796, Note_on_c, 0, 79, 82
1, 121864, Note_on_c, 0, 33, 52
1, 121864, Note_on_c, 0, 75, 80
1, 121865, Note_off_c, 0, 78, 51
1, 121897, Note_off_c, 0, 33, 65
1, 121903, Note_off_c, 0, 79, 63
1, 121913, Note_off_c, 0, 75, 64
1, 121914, Note_on_c, 0, 72, 83
1, 121960, Note_off_c, 0, 72, 65
1, 121969, Note_on_c, 0, 76, 92
1, 121989, Note_on_c, 0, 39, 64
1, 122017, Note_on_c, 0, 77, 89
1, 122018, Note_off_c, 0, 39, 62
1, 122026, Note_off_c, 0, 76, 67
1, 122041, Note_off_c, 0, 77, 66
1, 122118, Note_on_c, 0, 46, 80
1, 122140, Note_off_c, 0, 46, 67
1, 122254, Note_on_c, 0, 31, 94
1, 122283, Note_off_c, 0, 31, 67
1, 122399, Note_on_c, 0, 65, 79
1, 122414, Note_off_c, 0, 65, 71
1, 122534, Note_on_c, 0, 54, 104
1, 122554, Note_off_c, 0, 54, 71
1, 122691, Note_on_c, 0, 26, 59
1, 122727, Note_off_c, 0, 26, 60
1, 122827, Note_on_c, 0, 35, 55
1, 122855, Note_off_c, 0, 35, 55
1, 122893, Note_on_c, 0, 81, 58
1, 122932, Note_off_c, 0, 81, 62
1, 122948, Note_on_c, 0, 44, 56
1, 122953, Note_on_c, 0, 78, 71
1, 122974, Note_off_c, 0, 44, 61
1, 122997, Note_off_c, 0, 78, 53
1, 123012, Note_on_c, 0, 74, 71
1, 123056, Note_off_c, 0, 74, 57
1, 123069, Note_on_c, 0, 80, 80
1, 123082, Note_on_c, 0, 31, 55
1, 123111, Note_off_c, 0, 31, 55
1, 123135, Note_on_c, 0, 75, 76
1, 123153, Note_off_c, 0, 80, 62
1, 123186, Note_on_c, 0, 72, 75
1, 123196, Note_off_c, 0, 75, 64
1, 123202, Note_on_c, 0, 40, 57
1, 123222, Note_off_c, 0, 72, 63
1, 123229, Note_off_c, 0, 40, 59
1, 123242, Note_on_c, 0, 82, 82
1, 123295, Note_off_c, 0, 82, 63
1, 123308, Note_on_c, 0, 71, 80
1, 123332, Note_on_c, 0, 49, 57
1, 123344, Note_off_c, 0, 71, 61
1, 123362, Note_off_c, 0, 49, 60
1, 123372, Note_on_c, 0, 79, 87
1, 123415, Note_on_c, 0, 76, 82
1, 123427, Note_off_c, 0, 79, 65
1, 123435, Note_off_c, 0, 76, 72
1, 123472, Note_on_c, 0, 45, 56
1, 123498, Note_off_c, 0, 45, 58
1, 123611, Note_on_c, 0, 34, 66
1, 123635, Note_off_c, 0, 34, 60
1, 123773, Note_on_c, 0, 44, 49
1, 123800, Note_off_c, 0, 44, 56
1, 123913, Note_on_c, 0, 41, 60
1, 123946, Note_off_c, 0, 41, 67
1, 124010, Note_on_c, 0, 73, 69
1, 124026, Note_on_c, 0, 48, 57
1, 124052, Note_off_c, 0, 48, 37
1, 124062, Note_off_c, 0, 73, 61
1, 124065, Note_on_c, 0, 76, 76
1, 124143, Note_off_c, 0, 76, 62
1, 124144, Note_on_c, 0, 79, 63
1, 124149, Note_on_c, 0, 54, 66
1, 124176, Note_off_c, 0, 54, 65
1, 124183, Note_on_c, 0, 83, 78
1, 124183, Note_off_c, 0, 79, 62
1, 124243, Note_on_c, 0, 82, 90
1, 124276, Note_on_c, 0, 50, 59
1, 124282, Note_off_c, 0, 83, 59
1, 124303, Note_off_c, 0, 50, 63
1, 124323, Note_on_c, 0, 72, 73
1, 124331, Note_off_c, 0, 82, 65
1, 124345, Note_off_c, 0, 72, 67
1, 124427, Note_on_c, 0, 59, 45
1, 124457, Note_off_c, 0, 59, 54
1, 124538, Note_on_c, 0, 63, 70
1, 124561, Note_off_c, 0, 63, 69
1, 124676, Note_on_c, 0, 75, 92
1, 124685, Note_on_c, 0, 52, 62
1, 124714, Note_off_c, 0, 52, 68
1, 124735, Note_off_c, 0, 75, 57
1, 124745, Note_on_c, 0, 86, 89
1, 124810, Note_on_c, 0, 90, 87
1, 124824, Note_off_c, 0, 86, 63
1, 124830, Note_on_c, 0, 56, 48
1, 124839, Note_off_c, 0, 90, 66
1, 124862, Note_off_c, 0, 56, 56
1, 124951, Note_on_c, 0, 61, 87
1, 124962, Note_on_c, 0, 69, 79
1, 124970, Control_c, 0, 64, 117
1, 124984, Control_c, 0, 64, 127
1, 124986, Note_off_c, 0, 61, 61
1, 124991, Note_off_c, 0, 69, 59
1, 125030, Note_on_c, 0, 68, 81
1, 125059, Poly_aftertouch_c, 0, 51, 0
1, 125083, Note_off_c, 0, 68, 61
1, 125091, Note_on_c, 0, 53, 82
1, 125102, Note_on_c, 0, 69, 65
1, 125113, Note_off_c, 0, 53, 71
1, 125142, Note_on_c, 0, 72, 65
1, 125153, Note_off_c, 0, 69, 65
1, 125177, Note_off_c, 0, 72, 64
1, 125222, Note_on_c, 0, 66, 92
1, 125232, Note_on_c, 0, 50, 98
1, 125266, Note_off_c, 0, 50, 66
1, 125280, Note_off_c, 0, 66, 67
1, 125287, Note_on_c, 0, 40, 18
1, 125290, Note_on_c, 0, 71, 63
1, 125332, Note_off_c, 0, 40, 54
1, 125364, Note_on_c, 0, 43, 82
1, 125364, Note_off_c, 0, 71, 64
1, 125365, Note_on_c, 0, 76, 73
1, 125368, Note_on_c, 0, 75, 38
1, 125386, Note_off_c, 0, 76, 71
1, 125388, Note_off_c, 0, 43, 66
1, 125399, Note_off_c, 0, 75, 53
1, 125438, Note_on_c, 0, 75, 59
1, 125488, Note_on_c, 0, 79, 69
1, 125490, Note_on_c, 0, 47, 109
1, 125498, Note_off_c, 0, 75, 62
1, 125505, Note_on_c, 0, 45, 66
1, 125525, Note_off_c, 0, 47, 65
1, 125526, Note_off_c, 0, 45, 66
1, 125576, Note_on_c, 0, 75, 74
1, 125625, Note_on_c, 0, 82, 67
1, 125652, Note_on_c, 0, 21, 107
1, 125664, Note_off_c, 0, 75, 56
1, 125678, Note_on_c, 0, 85, 87
1, 125698, Note_off_c, 0, 79, 31
1, 125703, Note_off_c, 0, 82, 62
1, 125704, Control_c, 0, 64, 73
1, 125705, Note_off_c, 0, 21, 60
1, 125719, Control_c, 0, 64, 0
1, 125720, Note_off_c, 0, 85, 65
1, 125726, Note_on_c, 0, 86, 24
1, 125740, Note_off_c, 0, 86, 40
1, 125811, Note_on_c, 0, 88, 99
1, 125812, Note_on_c, 0, 75, 99
1, 125962, Note_on_c, 0, 84, 80
1, 125963, Note_off_c, 0, 88, 65
1, 125966, Note_off_c, 0, 75, 63
1, 125982, Note_off_c, 0, 84, 71
1, 126099, Note_on_c, 0, 70, 71
1, 126103, Note_on_c, 0, 66, 64
1, 126122, Note_off_c, 0, 66, 66
1, 126122, Note_off_c, 0, 70, 70
1, 126196, Poly_aftertouch_c, 0, 85, 127
1, 126221, Poly_aftertouch_c, 0, 85, 0
1, 126246, Note_on_c, 0, 88, 97
1, 126248, Note_on_c, 0, 75, 97
1, 126398, Note_on_c, 0, 84, 79
1, 126402, Note_off_c, 0, 75, 62
1, 126405, Note_on_c, 0, 70, 78
1, 126406, Note_off_c, 0, 88, 65
1, 126408, Note_on_c, 0, 57, 73
1, 126423, Note_off_c, 0, 84, 68
1, 126539, Note_off_c, 0, 57, 62
1, 126541, Note_off_c, 0, 70, 62
1, 126542, Note_on_c, 0, 66, 75
1, 126564, Note_off_c, 0, 66, 71
1, 126673, Note_on_c, 0, 85, 96
1, 126674, Note_on_c, 0, 98, 100
1, 126813, Note_on_c, 0, 70, 75
1, 126825, Note_on_c, 0, 57, 55
1, 126826, Note_on_c, 0, 89, 77
1, 126840, Note_off_c, 0, 85, 62
1, 126860, Note_off_c, 0, 98, 66
1, 126876, Note_off_c, 0, 89, 64
1, 126937, Note_off_c, 0, 70, 63
1, 126948, Note_on_c, 0, 66, 72
1, 126954, Note_off_c, 0, 57, 63
1, 126965, Note_off_c, 0, 66, 69
1, 127077, Note_on_c, 0, 98, 86
1, 127085, Note_on_c, 0, 85, 86
1, 127184, Poly_aftertouch_c, 0, 95, 127
1, 127216, Note_on_c, 0, 56, 77
1, 127222, Note_on_c, 0, 43, 73
1, 127224, Note_on_c, 0, 89, 70
1, 127224, Note_off_c, 0, 85, 65
1, 127225, Note_off_c, 0, 98, 67
1, 127247, Note_off_c, 0, 89, 69
1, 127257, Poly_aftertouch_c, 0, 95, 0
1, 127277, Note_on_c, 0, 45, 13
1, 127332, Note_off_c, 0, 45, 28
1, 127347, Note_off_c, 0, 43, 63
1, 127350, Note_on_c, 0, 47, 58
1, 127352, Note_off_c, 0, 56, 63
1, 127374, Note_off_c, 0, 47, 61
1, 127495, Note_on_c, 0, 88, 74
1, 127511, Note_on_c, 0, 75, 58
1, 127553, Note_off_c, 0, 75, 58
1, 127618, Note_off_c, 0, 88, 61
1, 127633, Note_on_c, 0, 84, 62
1, 127634, Note_on_c, 0, 56, 50
1, 127639, Note_on_c, 0, 43, 42
1, 127663, Note_off_c, 0, 84, 64
1, 127742, Note_off_c, 0, 43, 57
1, 127743, Note_on_c, 0, 47, 61
1, 127747, Note_off_c, 0, 56, 61
1, 127760, Note_on_c, 0, 84, 63
1, 127765, Note_off_c, 0, 47, 63
1, 127790, Note_off_c, 0, 84, 66
1, 127904, Note_on_c, 0, 88, 61
1, 127908, Note_on_c, 0, 75, 59
1, 127923, Note_off_c, 0, 88, 65
1, 127927, Note_off_c, 0, 75, 64
1, 128024, Note_on_c, 0, 57, 64
1, 128035, Note_on_c, 0, 70, 63
1, 128036, Note_on_c, 0, 79, 55
1, 128057, Note_off_c, 0, 79, 60
1, 128145, Note_off_c, 0, 70, 51
1, 128157, Note_on_c, 0, 66, 63
1, 128157, Note_off_c, 0, 57, 56
1, 128182, Note_off_c, 0, 66, 68
1, 128280, Note_on_c, 0, 98, 73
1, 128285, Note_on_c, 0, 85, 71
1, 128297, Note_on_c, 0, 66, 63
1, 128322, Note_off_c, 0, 66, 68
1, 128376, Note_off_c, 0, 85, 53
1, 128410, Note_on_c, 0, 89, 70
1, 128413, Note_off_c, 0, 98, 62
1, 128434, Note_off_c, 0, 89, 67
1, 128445, Note_on_c, 0, 57, 41
1, 128450, Note_on_c, 0, 70, 47
1, 128476, Note_off_c, 0, 57, 48
1, 128476, Note_off_c, 0, 70, 59
1, 128542, Note_on_c, 0, 61, 61
1, 128544, Note_on_c, 0, 89, 75
1, 128561, Note_off_c, 0, 61, 62
1, 128579, Note_off_c, 0, 89, 61
1, 128672, Note_on_c, 0, 98, 77
1, 128684, Note_on_c, 0, 85, 73
1, 128706, Note_off_c, 0, 85, 68
1, 128729, Note_off_c, 0, 98, 62
1, 128790, Note_on_c, 0, 56, 91
1, 128793, Note_on_c, 0, 43, 89
1, 128796, Note_on_c, 0, 93, 91
1, 128850, Note_on_c, 0, 95, 5
1, 128879, Note_off_c, 0, 93, 55
1, 128902, Note_off_c, 0, 95, 35
1, 128906, Note_off_c, 0, 56, 59
1, 128923, Note_on_c, 0, 82, 93
1, 128924, Note_on_c, 0, 47, 77
1, 128939, Note_off_c, 0, 43, 60
1, 128948, Note_off_c, 0, 82, 64
1, 128962, Note_off_c, 0, 47, 62
1, 129045, Note_on_c, 0, 47, 96
1, 129180, Note_on_c, 0, 43, 82
1, 129180, Note_on_c, 0, 56, 81
1, 129180, Note_on_c, 0, 73, 81
1, 129194, Note_off_c, 0, 47, 62
1, 129202, Note_off_c, 0, 56, 70
1, 129205, Note_off_c, 0, 43, 65
1, 129246, Note_off_c, 0, 73, 59
1, 129257, Note_on_c, 0, 78, 82
1, 129309, Note_on_c, 0, 85, 70
1, 129321, Note_off_c, 0, 78, 0
1, 129333, Note_on_c, 0, 78, 68
1, 129372, Note_off_c, 0, 78, 66
1, 129376, Note_off_c, 0, 85, 65
1, 129449, Note_on_c, 0, 51, 77
1, 129476, Note_off_c, 0, 51, 65
1, 129549, Note_on_c, 0, 41, 68
1, 129571, Note_on_c, 0, 79, 96
1, 129577, Note_on_c, 0, 90, 86
1, 129581, Note_on_c, 0, 92, 77
1, 129581, Control_c, 0, 64, 73
1, 129586, Note_off_c, 0, 79, 72
1, 129587, Note_off_c, 0, 90, 73
1, 129596, Control_c, 0, 64, 127
1, 129597, Note_off_c, 0, 92, 42
1, 129603, Note_on_c, 0, 87, 39
1, 129604, Note_off_c, 0, 87, 127
1, 129616, Note_on_c, 0, 46, 73
1, 129616, Note_off_c, 0, 41, 62
1, 129679, Note_off_c, 0, 46, 63
1, 129680, Note_on_c, 0, 47, 83
1, 129729, Control_c, 0, 64, 76
1, 129738, Note_on_c, 0, 52, 98
1, 129738, Note_off_c, 0, 47, 65
1, 129744, Control_c, 0, 64, 0
1, 129756, Note_off_c, 0, 52, 74
1, 129820, Note_on_c, 0, 74, 83
1, 129825, Note_on_c, 0, 84, 86
1, 129840, Note_off_c, 0, 74, 70
1, 129842, Note_off_c, 0, 84, 73
1, 129975, Note_on_c, 0, 61, 116
1, 129990, Note_off_c, 0, 61, 69
1, 130118, Note_on_c, 0, 86, 66
1, 130144, Note_off_c, 0, 86, 65
1, 130244, Note_on_c, 0, 77, 72
1, 130279, Note_off_c, 0, 77, 61
1, 130382, Note_on_c, 0, 80, 67
1, 130406, Note_off_c, 0, 80, 69
1, 130505, Note_on_c, 0, 88, 62
1, 130537, Note_off_c, 0, 88, 65
1, 130631, Note_on_c, 0, 84, 70
1, 130636, Note_on_c, 0, 68, 63
1, 130656, Note_off_c, 0, 68, 66
1, 130656, Note_off_c, 0, 84, 68
1, 130756, Note_on_c, 0, 75, 66
1, 130761, Note_on_c, 0, 59, 53
1, 130778, Note_off_c, 0, 75, 68
1, 130787, Note_off_c, 0, 59, 63
1, 130894, Note_on_c, 0, 62, 57
1, 130915, Note_on_c, 0, 79, 40
1, 130916, Note_off_c, 0, 62, 59
1, 130945, Note_off_c, 0, 79, 33
1, 131021, Note_on_c, 0, 70, 71
1, 131029, Note_on_c, 0, 73, 69
1, 131044, Note_off_c, 0, 70, 70
1, 131048, Note_off_c, 0, 73, 67
1, 131154, Note_on_c, 0, 81, 94
1, 131155, Note_on_c, 0, 72, 93
1, 131157, Note_on_c, 0, 74, 85
1, 131165, Note_off_c, 0, 72, 78
1, 131167, Note_off_c, 0, 81, 76
1, 131175, Note_off_c, 0, 74, 72
1, 131178, Note_on_c, 0, 80, 53
1, 131179, Note_off_c, 0, 80, 127
1, 131301, Note_on_c, 0, 63, 56
1, 131322, Note_off_c, 0, 63, 61
1, 131410, Note_on_c, 0, 81, 75
1, 131417, Note_on_c, 0, 70, 73
1, 131440, Note_off_c, 0, 70, 68
1, 131440, Note_off_c, 0, 81, 61
1, 131446, Note_on_c, 0, 73, 59
1, 131465, Note_off_c, 0, 73, 65
1, 131550, Note_on_c, 0, 55, 58
1, 131574, Note_off_c, 0, 55, 60
1, 131690, Note_on_c, 0, 72, 67
1, 131690, Note_on_c, 0, 77, 69
1, 131706, Note_off_c, 0, 72, 67
1, 131708, Note_off_c, 0, 77, 66
1, 131810, Note_on_c, 0, 66, 65
1, 131831, Note_off_c, 0, 66, 68
1, 131936, Note_on_c, 0, 54, 64
1, 131947, Note_on_c, 0, 61, 55
1, 131962, Note_off_c, 0, 54, 65
1, 131969, Note_off_c, 0, 61, 59
1, 132058, Note_on_c, 0, 88, 47
1, 132086, Note_off_c, 0, 88, 52
1, 132181, Note_on_c, 0, 68, 75
1, 132182, Note_on_c, 0, 79, 65
1, 132187, Note_on_c, 0, 71, 58
1, 132197, Note_off_c, 0, 68, 69
1, 132201, Note_off_c, 0, 79, 64
1, 132209, Note_off_c, 0, 71, 62
1, 132310, Note_on_c, 0, 62, 105
1, 132324, Note_off_c, 0, 62, 78
1, 132464, Note_on_c, 0, 66, 68
1, 132464, Note_on_c, 0, 76, 70
1, 132488, Note_off_c, 0, 76, 67
1, 132489, Note_off_c, 0, 66, 69
1, 132597, Note_on_c, 0, 67, 60
1, 132598, Note_on_c, 0, 70, 65
1, 132620, Note_off_c, 0, 67, 61
1, 132624, Note_off_c, 0, 70, 67
1, 132720, Note_on_c, 0, 51, 67
1, 132746, Note_off_c, 0, 51, 65
1, 132844, Note_on_c, 0, 62, 68
1, 132856, Note_on_c, 0, 53, 55
1, 132863, Note_off_c, 0, 62, 65
1, 132879, Note_off_c, 0, 53, 60
1, 132963, Note_on_c, 0, 73, 75
1, 132966, Note_on_c, 0, 60, 80
1, 132972, Note_on_c, 0, 66, 75
1, 132983, Note_off_c, 0, 73, 70
1, 132987, Note_off_c, 0, 60, 70
1, 132993, Note_off_c, 0, 66, 71
1, 133100, Note_on_c, 0, 45, 72
1, 133127, Note_off_c, 0, 45, 64
1, 133231, Note_on_c, 0, 50, 103
1, 133234, Note_on_c, 0, 37, 97
1, 133270, Note_on_c, 0, 39, 37
1, 133360, Note_on_c, 0, 41, 80
1, 133369, Note_off_c, 0, 50, 64
1, 133376, Note_off_c, 0, 37, 66
1, 133395, Note_off_c, 0, 41, 68
1, 133396, Note_off_c, 0, 39, 24
1, 133492, Note_on_c, 0, 60, 83
1, 133497, Note_on_c, 0, 47, 102
1, 133547, Note_on_c, 0, 57, 10
1, 133616, Note_off_c, 0, 57, 40
1, 133618, Note_off_c, 0, 47, 62
1, 133626, Note_on_c, 0, 51, 74
1, 133635, Note_off_c, 0, 60, 59
1, 133641, Note_on_c, 0, 50, 103
1, 133644, Note_on_c, 0, 37, 91
1, 133656, Note_off_c, 0, 51, 65
1, 133770, Note_on_c, 0, 41, 85
1, 133770, Note_off_c, 0, 50, 63
1, 133804, Note_off_c, 0, 41, 68
1, 133805, Note_off_c, 0, 37, 65
1, 133813, Note_on_c, 0, 38, 14
1, 133869, Note_off_c, 0, 38, 50
1, 133917, Note_on_c, 0, 60, 83
1, 133917, Note_on_c, 0, 47, 99
1, 133968, Note_on_c, 0, 57, 9
1, 134037, Note_off_c, 0, 47, 62
1, 134042, Note_on_c, 0, 51, 84
1, 134061, Note_off_c, 0, 51, 69
1, 134069, Note_off_c, 0, 60, 63
1, 134090, Note_off_c, 0, 57, 27
1, 134158, Note_on_c, 0, 22, 89
1, 134196, Note_off_c, 0, 22, 65
1, 134321, Note_on_c, 0, 80, 67
1, 134372, Note_off_c, 0, 80, 54
1, 134386, Note_on_c, 0, 86, 68
1, 134461, Note_off_c, 0, 86, 59
1, 134469, Note_on_c, 0, 81, 59
1, 134478, Note_on_c, 0, 71, 101
1, 134479, Note_on_c, 0, 64, 96
1, 134535, Note_on_c, 0, 78, 69
1, 134562, Note_off_c, 0, 81, 59
1, 134570, Note_off_c, 0, 78, 61
1, 134618, Note_off_c, 0, 64, 66
1, 134621, Note_on_c, 0, 66, 71
1, 134628, Note_on_c, 0, 68, 64
1, 134635, Note_off_c, 0, 71, 60
1, 134642, Note_off_c, 0, 66, 71
1, 134650, Note_off_c, 0, 68, 66
1, 134685, Note_on_c, 0, 77, 69
1, 134707, Poly_aftertouch_c, 0, 76, 0
1, 134731, Note_off_c, 0, 77, 48
1, 134753, Note_on_c, 0, 67, 88
1, 134759, Note_on_c, 0, 85, 78
1, 134767, Note_on_c, 0, 75, 100
1, 134823, Poly_aftertouch_c, 0, 82, 127
1, 134866, Note_on_c, 0, 79, 59
1, 134873, Note_off_c, 0, 85, 63
1, 134877, Note_on_c, 0, 69, 50
1, 134883, Note_off_c, 0, 75, 69
1, 134886, Note_off_c, 0, 79, 63
1, 134892, Note_off_c, 0, 67, 62
1, 134893, Note_on_c, 0, 72, 54
1, 134902, Poly_aftertouch_c, 0, 82, 0
1, 134905, Note_off_c, 0, 69, 69
1, 134913, Note_off_c, 0, 72, 62
1, 134989, Note_on_c, 0, 79, 68
1, 135021, Note_off_c, 0, 79, 59
1, 135055, Note_on_c, 0, 76, 70
1, 135088, Note_off_c, 0, 76, 59
1, 135112, Note_on_c, 0, 83, 73
1, 135114, Note_on_c, 0, 74, 59
1, 135119, Note_on_c, 0, 69, 54
1, 135131, Note_off_c, 0, 74, 65
1, 135142, Note_off_c, 0, 69, 62
1, 135166, Note_off_c, 0, 83, 59
1, 135171, Note_on_c, 0, 80, 71
1, 135185, Note_on_c, 0, 82, 47
1, 135214, Note_off_c, 0, 82, 54
1, 135238, Note_off_c, 0, 80, 63
1, 135239, Note_on_c, 0, 64, 86
1, 135239, Note_on_c, 0, 78, 61
1, 135259, Note_off_c, 0, 78, 64
1, 135263, Note_on_c, 0, 65, 51
1, 135280, Note_off_c, 0, 64, 67
1, 135282, Note_on_c, 0, 79, 80
1, 135294, Note_off_c, 0, 65, 50
1, 135336, Note_off_c, 0, 79, 60
1, 135377, Note_on_c, 0, 65, 74
1, 135385, Note_on_c, 0, 87, 83
1, 135389, Note_on_c, 0, 73, 100
1, 135422, Control_c, 0, 64, 74
1, 135433, Note_on_c, 0, 74, 34
1, 135437, Control_c, 0, 64, 127
1, 135446, Note_on_c, 0, 84, 69
1, 135461, Note_off_c, 0, 74, 57
1, 135473, Poly_aftertouch_c, 0, 70, 127
1, 135483, Note_off_c, 0, 73, 63
1, 135487, Note_on_c, 0, 70, 32
1, 135499, Note_on_c, 0, 67, 78
1, 135502, Note_off_c, 0, 87, 64
1, 135512, Note_on_c, 0, 81, 52
1, 135512, Note_off_c, 0, 70, 64
1, 135516, Note_off_c, 0, 84, 64
1, 135518, Note_off_c, 0, 65, 62
1, 135520, Note_off_c, 0, 67, 70
1, 135533, Note_off_c, 0, 81, 59
1, 135616, Control_c, 0, 64, 79
1, 135631, Control_c, 0, 64, 0
1, 135679, Note_on_c, 0, 50, 97
1, 135681, Note_on_c, 0, 37, 89
1, 135705, Note_on_c, 0, 52, 49
1, 135706, Note_off_c, 0, 52, 127
1, 135803, Poly_aftertouch_c, 0, 41, 127
1, 135820, Note_on_c, 0, 46, 87
1, 135823, Note_off_c, 0, 50, 66
1, 135831, Note_off_c, 0, 37, 65
1, 135833, Poly_aftertouch_c, 0, 41, 0
1, 135842, Note_off_c, 0, 46, 68
1, 135949, Note_on_c, 0, 60, 87
1, 135953, Note_on_c, 0, 47, 91
1, 135989, Note_on_c, 0, 58, 42
1, 136019, Note_off_c, 0, 58, 54
1, 136093, Note_on_c, 0, 56, 75
1, 136098, Note_off_c, 0, 60, 62
1, 136100, Note_on_c, 0, 50, 95
1, 136105, Note_on_c, 0, 37, 86
1, 136105, Note_off_c, 0, 47, 62
1, 136111, Note_on_c, 0, 58, 44
1, 136133, Note_off_c, 0, 56, 61
1, 136141, Note_off_c, 0, 58, 52
1, 136212, Note_off_c, 0, 50, 62
1, 136223, Note_on_c, 0, 41, 81
1, 136233, Note_on_c, 0, 56, 80
1, 136237, Note_off_c, 0, 37, 66
1, 136245, Note_off_c, 0, 41, 69
1, 136259, Note_off_c, 0, 56, 64
1, 136320, Poly_aftertouch_c, 0, 58, 0
1, 136357, Note_on_c, 0, 47, 87
1, 136361, Note_on_c, 0, 60, 81
1, 136385, Note_off_c, 0, 47, 69
1, 136385, Note_off_c, 0, 60, 66
1, 136491, Note_on_c, 0, 35, 84
1, 136492, Note_on_c, 0, 51, 88
1, 136510, Note_off_c, 0, 51, 70
1, 136527, Note_off_c, 0, 35, 66
1, 136629, Note_on_c, 0, 28, 80
1, 136660, Note_off_c, 0, 28, 65
1, 136752, Note_on_c, 0, 21, 101
1, 136788, Note_off_c, 0, 21, 63
1, 136889, Note_on_c, 0, 86, 89
1, 136917, Note_off_c, 0, 86, 66
1, 137014, Note_on_c, 0, 41, 86
1, 137044, Note_off_c, 0, 41, 65
1, 137070, Note_on_c, 0, 43, 70
1, 137136, Note_on_c, 0, 42, 82
1, 137139, Note_off_c, 0, 43, 63
1, 137159, Note_off_c, 0, 42, 67
1, 137265, Note_on_c, 0, 34, 90
1, 137291, Control_c, 0, 64, 15
1, 137306, Control_c, 0, 64, 55
1, 137321, Control_c, 0, 64, 55
1, 137336, Control_c, 0, 64, 56
1, 137351, Control_c, 0, 64, 57
1, 137366, Control_c, 0, 64, 59
1, 137381, Control_c, 0, 64, 60
1, 137395, Control_c, 0, 64, 61
1, 137407, Note_on_c, 0, 37, 86
1, 137407, Note_on_c, 0, 91, 78
1, 137410, Control_c, 0, 64, 62
1, 137412, Note_off_c, 0, 34, 60
1, 137426, Control_c, 0, 64, 64
1, 137440, Control_c, 0, 64, 66
1, 137455, Control_c, 0, 64, 70
1, 137456, Note_off_c, 0, 91, 62
1, 137463, Note_on_c, 0, 93, 75
1, 137470, Control_c, 0, 64, 75
1, 137485, Control_c, 0, 64, 80
1, 137494, Note_on_c, 0, 40, 90
1, 137494, Note_off_c, 0, 37, 45
1, 137500, Control_c, 0, 64, 80
1, 137514, Control_c, 0, 64, 75
1, 137518, Note_off_c, 0, 40, 69
1, 137529, Control_c, 0, 64, 59
1, 137532, Note_on_c, 0, 92, 88
1, 137544, Control_c, 0, 64, 0
1, 137546, Note_off_c, 0, 93, 58
1, 137593, Note_on_c, 0, 84, 58
1, 137610, Note_off_c, 0, 92, 66
1, 137635, Note_on_c, 0, 87, 83
1, 137647, Note_off_c, 0, 84, 64
1, 137697, Note_on_c, 0, 90, 70
1, 137706, Note_off_c, 0, 87, 56
1, 137749, Note_on_c, 0, 93, 99
1, 137752, Note_on_c, 0, 80, 98
1, 137770, Note_on_c, 0, 82, 63
1, 137774, Control_c, 0, 64, 66
1, 137778, Note_on_c, 0, 87, 27
1, 137789, Control_c, 0, 64, 127
1, 137789, Note_off_c, 0, 90, 63
1, 137790, Note_on_c, 0, 81, 41
1, 137791, Note_off_c, 0, 81, 127
1, 137791, Note_off_c, 0, 80, 69
1, 137792, Note_off_c, 0, 82, 39
1, 137812, Note_off_c, 0, 87, 31
1, 137820, Poly_aftertouch_c, 0, 81, 0
1, 137881, Note_on_c, 0, 85, 77
1, 137881, Note_on_c, 0, 89, 55
1, 137890, Note_on_c, 0, 84, 65
1, 137909, Note_off_c, 0, 93, 52
1, 137911, Note_off_c, 0, 84, 66
1, 137945, Note_off_c, 0, 85, 57
1, 137997, Control_c, 0, 64, 94
1, 138005, Note_on_c, 0, 58, 79
1, 138008, Note_on_c, 0, 71, 66
1, 138011, Control_c, 0, 64, 19
1, 138017, Note_on_c, 0, 88, 84
1, 138026, Control_c, 0, 64, 0
1, 138028, Note_off_c, 0, 71, 59
1, 138084, Note_off_c, 0, 89, 45
1, 138110, Note_off_c, 0, 88, 56
1, 138131, Note_on_c, 0, 67, 75
1, 138134, Note_on_c, 0, 93, 96
1, 138138, Note_on_c, 0, 80, 99
1, 138140, Note_on_c, 0, 62, 68
1, 138150, Note_on_c, 0, 63, 65
1, 138159, Control_c, 0, 64, 59
1, 138174, Control_c, 0, 64, 70
1, 138176, Note_on_c, 0, 89, 37
1, 138189, Control_c, 0, 64, 108
1, 138196, Note_off_c, 0, 58, 35
1, 138204, Control_c, 0, 64, 127
1, 138208, Note_off_c, 0, 89, 52
1, 138224, Note_off_c, 0, 80, 60
1, 138257, Note_on_c, 0, 66, 86
1, 138264, Note_on_c, 0, 85, 84
1, 138266, Note_on_c, 0, 89, 86
1, 138269, Note_off_c, 0, 62, 59
1, 138278, Note_off_c, 0, 67, 49
1, 138283, Note_off_c, 0, 63, 59
1, 138310, Note_off_c, 0, 93, 51
1, 138344, Note_off_c, 0, 85, 62
1, 138393, Note_on_c, 0, 88, 95
1, 138399, Note_on_c, 0, 58, 88
1, 138401, Note_on_c, 0, 71, 87
1, 138415, Note_off_c, 0, 66, 64
1, 138418, Control_c, 0, 64, 80
1, 138425, Note_off_c, 0, 89, 64
1, 138430, Note_off_c, 0, 88, 67
1, 138433, Control_c, 0, 64, 0
1, 138445, Note_off_c, 0, 71, 63
1, 138523, Note_on_c, 0, 67, 94
1, 138532, Note_on_c, 0, 62, 81
1, 138533, Note_on_c, 0, 63, 87
1, 138645, Note_on_c, 0, 66, 86
1, 138655, Note_on_c, 0, 93, 93
1, 138657, Note_off_c, 0, 62, 62
1, 138657, Note_off_c, 0, 67, 64
1, 138663, Note_on_c, 0, 80, 80
1, 138664, Note_off_c, 0, 63, 65
1, 138666, Note_on_c, 0, 78, 79
1, 138666, Note_off_c, 0, 58, 54
1, 138668, Note_off_c, 0, 66, 68
1, 138670, Note_on_c, 0, 91, 70
1, 138680, Note_off_c, 0, 78, 71
1, 138705, Note_off_c, 0, 80, 62
1, 138729, Note_off_c, 0, 91, 0
1, 138767, Poly_aftertouch_c, 0, 91, 127
1, 138786, Note_on_c, 0, 85, 83
1, 138800, Poly_aftertouch_c, 0, 91, 0
1, 138808, Note_on_c, 0, 89, 57
1, 138818, Note_on_c, 0, 88, 60
1, 138851, Note_off_c, 0, 93, 55
1, 138854, Note_off_c, 0, 88, 55
1, 138860, Note_off_c, 0, 85, 61
1, 138900, Note_on_c, 0, 58, 90
1, 138902, Note_on_c, 0, 71, 94
1, 138910, Note_on_c, 0, 88, 93
1, 138944, Note_off_c, 0, 71, 62
1, 138954, Note_on_c, 0, 85, 6
1, 138964, Note_off_c, 0, 89, 58
1, 138969, Note_off_c, 0, 85, 42
1, 139030, Note_on_c, 0, 93, 91
1, 139034, Note_on_c, 0, 67, 85
1, 139035, Note_on_c, 0, 62, 56
1, 139039, Note_on_c, 0, 80, 94
1, 139044, Note_on_c, 0, 63, 82
1, 139060, Note_off_c, 0, 88, 65
1, 139066, Note_on_c, 0, 89, 48
1, 139071, Note_on_c, 0, 65, 34
1, 139072, Note_off_c, 0, 65, 127
1, 139095, Note_off_c, 0, 89, 59
1, 139097, Note_off_c, 0, 80, 61
1, 139120, Note_off_c, 0, 58, 56
1, 139125, Note_off_c, 0, 67, 58
1, 139163, Note_on_c, 0, 66, 87
1, 139164, Note_on_c, 0, 89, 78
1, 139169, Note_on_c, 0, 85, 90
1, 139185, Note_on_c, 0, 90, 19
1, 139199, Note_off_c, 0, 93, 61
1, 139208, Note_off_c, 0, 63, 56
1, 139217, Note_off_c, 0, 62, 0
1, 139226, Note_off_c, 0, 90, 50
1, 139241, Note_off_c, 0, 85, 61
1, 139274, Poly_aftertouch_c, 0, 62, 0
1, 139276, Note_off_c, 0, 89, 56
1, 139297, Note_on_c, 0, 71, 101
1, 139298, Note_on_c, 0, 88, 95
1, 139302, Note_on_c, 0, 58, 96
1, 139311, Note_on_c, 0, 89, 52
1, 139314, Note_on_c, 0, 62, 55
1, 139325, Note_off_c, 0, 66, 66
1, 139340, Note_on_c, 0, 90, 14
1, 139348, Note_off_c, 0, 90, 37
1, 139349, Note_off_c, 0, 89, 59
1, 139351, Note_off_c, 0, 71, 60
1, 139369, Note_off_c, 0, 88, 59
1, 139403, Note_off_c, 0, 62, 0
1, 139415, Note_on_c, 0, 63, 92
1, 139420, Note_on_c, 0, 69, 75
1, 139428, Note_on_c, 0, 93, 94
1, 139438, Note_off_c, 0, 58, 63
1, 139440, Poly_aftertouch_c, 0, 62, 127
1, 139441, Note_off_c, 0, 69, 73
1, 139442, Note_on_c, 0, 88, 28
1, 139451, Note_off_c, 0, 63, 69
1, 139465, Note_off_c, 0, 93, 61
1, 139468, Note_off_c, 0, 88, 49
1, 139491, Poly_aftertouch_c, 0, 62, 0
1, 139573, Note_on_c, 0, 58, 96
1, 139574, Note_on_c, 0, 70, 109
1, 139584, Note_on_c, 0, 62, 77
1, 139585, Note_on_c, 0, 61, 80
1, 139591, Note_on_c, 0, 71, 74
1, 139602, Note_off_c, 0, 58, 64
1, 139602, Note_off_c, 0, 70, 65
1, 139603, Note_off_c, 0, 62, 70
1, 139605, Note_off_c, 0, 61, 70
1, 139608, Note_off_c, 0, 71, 44
1, 139615, Note_on_c, 0, 72, 33
1, 139616, Note_off_c, 0, 72, 127
1, 139703, Note_on_c, 0, 88, 82
1, 139759, Note_off_c, 0, 88, 59
1, 139783, Note_on_c, 0, 74, 66
1, 139807, Note_off_c, 0, 74, 71
1, 139858, Note_on_c, 0, 87, 75
1, 139903, Note_off_c, 0, 87, 63
1, 139927, Note_on_c, 0, 83, 72
1, 139957, Note_on_c, 0, 66, 112
1, 139959, Note_on_c, 0, 55, 89
1, 139963, Note_on_c, 0, 60, 91
1, 139980, Note_off_c, 0, 55, 72
1, 139989, Note_off_c, 0, 66, 71
1, 139998, Note_off_c, 0, 60, 60
1, 140003, Note_on_c, 0, 58, 18
1, 140004, Note_off_c, 0, 58, 127
1, 140007, Note_on_c, 0, 80, 71
1, 140033, Note_off_c, 0, 83, 60
1, 140064, Note_off_c, 0, 80, 60
1, 140067, Note_on_c, 0, 77, 77
1, 140099, Note_off_c, 0, 77, 59
1, 140147, Note_on_c, 0, 79, 64
1, 140175, Note_off_c, 0, 79, 51
1, 140205, Note_on_c, 0, 76, 56
1, 140228, Note_off_c, 0, 76, 64
1, 140269, Note_on_c, 0, 73, 66
1, 140296, Note_off_c, 0, 73, 65
1, 140326, Note_on_c, 0, 84, 74
1, 140361, Note_on_c, 0, 57, 106
1, 140365, Note_on_c, 0, 46, 83
1, 140366, Note_on_c, 0, 53, 82
1, 140381, Note_off_c, 0, 57, 67
1, 140388, Note_off_c, 0, 46, 67
1, 140388, Note_off_c, 0, 53, 72
1, 140397, Note_on_c, 0, 78, 67
1, 140404, Note_off_c, 0, 84, 60
1, 140423, Note_off_c, 0, 78, 67
1, 140447, Note_on_c, 0, 75, 58
1, 140465, Note_off_c, 0, 75, 64
1, 140522, Note_on_c, 0, 83, 64
1, 140591, Note_on_c, 0, 86, 74
1, 140600, Note_off_c, 0, 83, 58
1, 140646, Note_off_c, 0, 86, 63
1, 140651, Note_on_c, 0, 81, 66
1, 140658, Note_on_c, 0, 52, 89
1, 140658, Note_on_c, 0, 61, 107
1, 140666, Note_on_c, 0, 48, 83
1, 140679, Control_c, 0, 64, 85
1, 140683, Note_on_c, 0, 60, 62
1, 140684, Note_off_c, 0, 60, 127
1, 140684, Note_off_c, 0, 48, 66
1, 140687, Note_off_c, 0, 61, 71
1, 140694, Control_c, 0, 64, 127
1, 140696, Note_off_c, 0, 81, 60
1, 140707, Note_off_c, 0, 52, 68
1, 140710, Note_on_c, 0, 50, 18
1, 140745, Note_on_c, 0, 87, 57
1, 140757, Note_off_c, 0, 50, 38
1, 140759, Note_on_c, 0, 82, 53
1, 140812, Control_c, 0, 64, 62
1, 140815, Note_off_c, 0, 82, 58
1, 140824, Note_off_c, 0, 87, 31
1, 140827, Control_c, 0, 64, 0
1, 140834, Note_on_c, 0, 74, 65
1, 140874, Note_off_c, 0, 74, 64
1, 140912, Note_on_c, 0, 83, 48
1, 140945, Note_off_c, 0, 83, 50
1, 140962, Note_on_c, 0, 80, 57
1, 140982, Note_off_c, 0, 80, 65
1, 141024, Note_on_c, 0, 53, 89
1, 141027, Note_on_c, 0, 55, 97
1, 141030, Note_on_c, 0, 42, 78
1, 141049, Note_off_c, 0, 53, 69
1, 141050, Note_off_c, 0, 55, 67
1, 141056, Note_off_c, 0, 42, 67
1, 141083, Note_on_c, 0, 86, 63
1, 141126, Note_off_c, 0, 86, 61
1, 141155, Note_on_c, 0, 81, 34
1, 141200, Note_off_c, 0, 81, 45
1, 141220, Note_on_c, 0, 78, 47
1, 141244, Note_off_c, 0, 78, 59
1, 141286, Note_on_c, 0, 72, 102
1, 141286, Note_on_c, 0, 59, 83
1, 141293, Note_on_c, 0, 63, 92
1, 141298, Note_on_c, 0, 76, 54
1, 141303, Control_c, 0, 64, 127
1, 141308, Note_off_c, 0, 59, 69
1, 141311, Note_off_c, 0, 72, 73
1, 141312, Note_on_c, 0, 71, 55
1, 141313, Note_off_c, 0, 71, 127
1, 141334, Note_on_c, 0, 66, 39
1, 141337, Note_off_c, 0, 63, 68
1, 141350, Note_off_c, 0, 76, 61
1, 141360, Note_on_c, 0, 77, 71
1, 141365, Note_off_c, 0, 66, 57
1, 141381, Poly_aftertouch_c, 0, 62, 127
1, 141411, Poly_aftertouch_c, 0, 62, 0
1, 141418, Note_on_c, 0, 85, 76
1, 141425, Note_off_c, 0, 77, 53
1, 141474, Control_c, 0, 64, 103
1, 141484, Note_on_c, 0, 82, 53
1, 141488, Control_c, 0, 64, 50
1, 141499, Note_off_c, 0, 85, 60
1, 141503, Control_c, 0, 64, 0
1, 141518, Note_on_c, 0, 80, 42
1, 141529, Note_off_c, 0, 82, 62
1, 141545, Note_off_c, 0, 80, 57
1, 141609, Note_on_c, 0, 71, 82
1, 141628, Note_off_c, 0, 71, 72
1, 141662, Note_on_c, 0, 78, 46
1, 141686, Note_off_c, 0, 78, 58
1, 141763, Note_on_c, 0, 58, 95
1, 141765, Note_on_c, 0, 63, 91
1, 141768, Note_on_c, 0, 77, 65
1, 141769, Control_c, 0, 64, 36
1, 141775, Note_on_c, 0, 64, 80
1, 141778, Note_on_c, 0, 57, 75
1, 141781, Note_off_c, 0, 63, 78
1, 141784, Control_c, 0, 64, 127
1, 141794, Note_on_c, 0, 79, 73
1, 141796, Note_off_c, 0, 57, 66
1, 141796, Note_off_c, 0, 58, 69
1, 141798, Note_off_c, 0, 64, 71
1, 141801, Note_on_c, 0, 56, 11
1, 141804, Note_on_c, 0, 65, 29
1, 141805, Note_off_c, 0, 65, 127
1, 141805, Note_off_c, 0, 77, 58
1, 141836, Note_off_c, 0, 56, 54
1, 141841, Poly_aftertouch_c, 0, 65, 0
1, 141859, Note_on_c, 0, 73, 70
1, 141882, Note_off_c, 0, 73, 67
1, 141882, Note_off_c, 0, 79, 56
1, 141903, Control_c, 0, 64, 52
1, 141918, Control_c, 0, 64, 0
1, 141932, Note_on_c, 0, 76, 56
1, 141956, Note_off_c, 0, 76, 65
1, 141970, Note_on_c, 0, 84, 67
1, 141996, Note_off_c, 0, 84, 68
1, 142100, Note_on_c, 0, 63, 95
1, 142102, Note_on_c, 0, 77, 101
1, 142103, Note_on_c, 0, 74, 91
1, 142104, Control_c, 0, 64, 65
1, 142113, Note_on_c, 0, 76, 79
1, 142116, Note_off_c, 0, 77, 75
1, 142118, Control_c, 0, 64, 127
1, 142120, Note_off_c, 0, 74, 72
1, 142129, Note_off_c, 0, 76, 71
1, 142133, Note_off_c, 0, 63, 68
1, 142237, Control_c, 0, 64, 69
1, 142252, Control_c, 0, 64, 0
1, 142264, Note_on_c, 0, 69, 58
1, 142298, Note_off_c, 0, 69, 66
1, 142317, Note_on_c, 0, 75, 61
1, 142361, Note_off_c, 0, 75, 62
1, 142400, Note_on_c, 0, 83, 59
1, 142406, Note_on_c, 0, 80, 27
1, 142423, Note_on_c, 0, 52, 109
1, 142424, Note_on_c, 0, 46, 111
1, 142424, Note_on_c, 0, 50, 115
1, 142428, Note_on_c, 0, 43, 90
1, 142438, Note_off_c, 0, 50, 76
1, 142440, Note_off_c, 0, 52, 71
1, 142444, Control_c, 0, 64, 127
1, 142446, Note_off_c, 0, 46, 64
1, 142451, Note_off_c, 0, 43, 68
1, 142464, Note_on_c, 0, 45, 22
1, 142465, Note_off_c, 0, 45, 127
1, 142496, Note_on_c, 0, 73, 57
1, 142499, Poly_aftertouch_c, 0, 45, 0
1, 142532, Note_off_c, 0, 73, 58
1, 142533, Note_off_c, 0, 83, 37
1, 142533, Control_c, 0, 64, 62
1, 142548, Control_c, 0, 64, 0
1, 142549, Note_off_c, 0, 80, 51
1, 142586, Note_on_c, 0, 72, 56
1, 142606, Note_off_c, 0, 72, 62
1, 142747, Note_on_c, 0, 64, 91
1, 142748, Note_on_c, 0, 51, 87
1, 142748, Note_on_c, 0, 65, 93
1, 142764, Note_off_c, 0, 65, 74
1, 142770, Note_off_c, 0, 51, 70
1, 142770, Note_off_c, 0, 64, 70
1, 142774, Note_on_c, 0, 58, 40
1, 142775, Note_off_c, 0, 58, 127
1, 142891, Note_on_c, 0, 68, 73
1, 142913, Note_off_c, 0, 68, 71
1, 143015, Control_c, 0, 67, 65
1, 143023, Note_on_c, 0, 59, 64
1, 143030, Control_c, 0, 67, 127
1, 143045, Note_off_c, 0, 59, 65
1, 143108, Note_on_c, 0, 85, 69
1, 143155, Note_on_c, 0, 50, 41
1, 143161, Note_on_c, 0, 79, 56
1, 143165, Note_off_c, 0, 85, 63
1, 143181, Note_off_c, 0, 79, 62
1, 143186, Note_off_c, 0, 50, 46
1, 143210, Note_on_c, 0, 72, 36
1, 143240, Note_off_c, 0, 72, 53
1, 143277, Note_on_c, 0, 70, 58
1, 143298, Note_off_c, 0, 70, 63
1, 143300, Note_on_c, 0, 81, 69
1, 143343, Note_off_c, 0, 81, 61
1, 143349, Note_on_c, 0, 78, 60
1, 143367, Note_off_c, 0, 78, 64
1, 143418, Note_on_c, 0, 55, 50
1, 143444, Note_off_c, 0, 55, 58
1, 143548, Note_on_c, 0, 75, 93
1, 143552, Note_on_c, 0, 89, 85
1, 143553, Note_on_c, 0, 81, 84
1, 143562, Note_off_c, 0, 75, 78
1, 143563, Note_on_c, 0, 86, 65
1, 143570, Note_off_c, 0, 81, 72
1, 143572, Note_off_c, 0, 89, 71
1, 143586, Control_c, 0, 67, 61
1, 143588, Note_off_c, 0, 86, 65
1, 143601, Control_c, 0, 67, 0
1, 143696, Note_on_c, 0, 64, 45
1, 143724, Note_off_c, 0, 64, 57
1, 143816, Poly_aftertouch_c, 0, 80, 127
1, 143824, Note_on_c, 0, 72, 66
1, 143842, Note_off_c, 0, 72, 67
1, 143852, Poly_aftertouch_c, 0, 80, 0
1, 143888, Note_on_c, 0, 75, 65
1, 143916, Note_off_c, 0, 75, 67
1, 143951, Note_on_c, 0, 81, 50
1, 143965, Note_on_c, 0, 61, 59
1, 143986, Note_off_c, 0, 61, 62
1, 143993, Note_off_c, 0, 81, 47
1, 144007, Note_on_c, 0, 89, 58
1, 144013, Note_on_c, 0, 90, 39
1, 144051, Note_off_c, 0, 90, 49
1, 144059, Note_on_c, 0, 86, 71
1, 144073, Note_off_c, 0, 89, 64
1, 144087, Note_on_c, 0, 59, 61
1, 144103, Note_off_c, 0, 86, 59
1, 144107, Note_off_c, 0, 59, 63
1, 144108, Note_on_c, 0, 78, 65
1, 144126, Note_off_c, 0, 78, 66
1, 144219, Note_on_c, 0, 68, 36
1, 144251, Note_off_c, 0, 68, 46
1, 144361, Note_on_c, 0, 60, 69
1, 144388, Note_on_c, 0, 61, 45
1, 144389, Note_off_c, 0, 61, 127
1, 144408, Note_on_c, 0, 49, 79
1, 144415, Note_off_c, 0, 60, 43
1, 144436, Note_off_c, 0, 49, 66
1, 144490, Note_on_c, 0, 55, 57
1, 144516, Note_off_c, 0, 55, 36
1, 144598, Note_on_c, 0, 22, 122
1, 144621, Note_off_c, 0, 22, 66
1, 144684, Note_on_c, 0, 22, 20
1, 144713, Note_off_c, 0, 22, 40
1, 144756, Note_on_c, 0, 63, 79
1, 144778, Note_off_c, 0, 63, 70
1, 144938, Note_on_c, 0, 57, 50
1, 144964, Note_off_c, 0, 57, 55
1, 145003, Note_on_c, 0, 88, 79
1, 145027, Note_on_c, 0, 87, 37
1, 145048, Note_on_c, 0, 65, 50
1, 145057, Note_off_c, 0, 88, 63
1, 145060, Note_off_c, 0, 87, 57
1, 145080, Note_on_c, 0, 84, 47
1, 145080, Note_off_c, 0, 65, 57
1, 145108, Note_off_c, 0, 84, 56
1, 145117, Note_on_c, 0, 73, 60
1, 145137, Note_off_c, 0, 73, 61
1, 145187, Note_on_c, 0, 62, 59
1, 145192, Note_on_c, 0, 84, 50
1, 145196, Note_on_c, 0, 83, 53
1, 145209, Note_off_c, 0, 62, 59
1, 145218, Control_c, 0, 67, 12
1, 145233, Control_c, 0, 67, 24
1, 145236, Note_off_c, 0, 84, 55
1, 145241, Note_off_c, 0, 83, 56
1, 145247, Note_on_c, 0, 80, 67
1, 145247, Control_c, 0, 67, 34
1, 145262, Control_c, 0, 67, 44
1, 145271, Note_off_c, 0, 80, 66
1, 145277, Control_c, 0, 67, 52
1, 145292, Control_c, 0, 67, 63
1, 145299, Note_on_c, 0, 54, 41
1, 145307, Control_c, 0, 67, 75
1, 145322, Control_c, 0, 67, 84
1, 145328, Note_off_c, 0, 54, 51
1, 145336, Control_c, 0, 67, 100
1, 145351, Control_c, 0, 67, 121
1, 145366, Control_c, 0, 67, 127
1, 145472, Note_on_c, 0, 97, 86
1, 145478, Note_on_c, 0, 70, 51
1, 145502, Note_off_c, 0, 70, 60
1, 145534, Note_off_c, 0, 97, 64
1, 145570, Note_on_c, 0, 93, 32
1, 145590, Note_on_c, 0, 78, 63
1, 145599, Note_on_c, 0, 97, 67
1, 145608, Note_off_c, 0, 78, 67
1, 145608, Note_off_c, 0, 93, 50
1, 145678, Note_off_c, 0, 97, 57
1, 145708, Note_on_c, 0, 70, 70
1, 145725, Poly_aftertouch_c, 0, 93, 127
1, 145726, Note_on_c, 0, 91, 65
1, 145733, Note_off_c, 0, 70, 68
1, 145754, Poly_aftertouch_c, 0, 92, 127
1, 145759, Poly_aftertouch_c, 0, 93, 0
1, 145761, Note_off_c, 0, 91, 60
1, 145783, Poly_aftertouch_c, 0, 92, 0
1, 145788, Note_on_c, 0, 84, 68
1, 145841, Note_off_c, 0, 84, 50
1, 145863, Note_on_c, 0, 78, 59
1, 145877, Note_on_c, 0, 91, 45
1, 145882, Note_off_c, 0, 78, 65
1, 145905, Note_off_c, 0, 91, 51
1, 145919, Note_on_c, 0, 89, 3
1, 145922, Note_off_c, 0, 89, 38
1, 145941, Note_on_c, 0, 84, 55
1, 145963, Note_off_c, 0, 84, 62
1, 146000, Note_on_c, 0, 87, 69
1, 146028, Note_off_c, 0, 87, 62
1, 146054, Note_on_c, 0, 89, 67
1, 146118, Note_on_c, 0, 87, 68
1, 146122, Note_off_c, 0, 89, 63
1, 146148, Note_on_c, 0, 61, 31
1, 146172, Note_off_c, 0, 87, 63
1, 146178, Note_on_c, 0, 89, 67
1, 146183, Note_off_c, 0, 61, 32
1, 146256, Note_on_c, 0, 88, 74
1, 146256, Note_off_c, 0, 89, 61
1, 146312, Poly_aftertouch_c, 0, 69, 0
1, 146315, Note_on_c, 0, 80, 60
1, 146335, Note_off_c, 0, 88, 0
1, 146344, Note_off_c, 0, 80, 58
1, 146351, Note_on_c, 0, 88, 41
1, 146356, Note_on_c, 0, 61, 28
1, 146391, Note_off_c, 0, 61, 40
1, 146410, Note_off_c, 0, 88, 60
1, 146416, Note_on_c, 0, 80, 75
1, 146437, Note_off_c, 0, 80, 71
1, 146490, Note_on_c, 0, 55, 97
1, 146527, Control_c, 0, 64, 65
1, 146527, Control_c, 0, 67, 29
1, 146542, Control_c, 0, 64, 127
1, 146542, Control_c, 0, 67, 0
1, 146550, Note_on_c, 0, 60, 97
1, 146584, Note_off_c, 0, 60, 68
1, 146586, Note_off_c, 0, 55, 65
1, 146609, Control_c, 0, 64, 99
1, 146624, Control_c, 0, 64, 43
1, 146628, Note_on_c, 0, 64, 101
1, 146634, Note_on_c, 0, 75, 90
1, 146639, Control_c, 0, 64, 0
1, 146649, Note_off_c, 0, 64, 68
1, 146652, Note_off_c, 0, 75, 72
1, 146663, Note_on_c, 0, 76, 47
1, 146689, Note_off_c, 0, 76, 37
1, 146787, Note_on_c, 0, 71, 75
1, 146809, Note_off_c, 0, 71, 69
1, 146929, Note_on_c, 0, 65, 67
1, 146936, Control_c, 0, 64, 66
1, 146951, Control_c, 0, 64, 102
1, 146966, Control_c, 0, 64, 127
1, 146969, Note_off_c, 0, 65, 53
1, 147084, Control_c, 0, 64, 81
1, 147085, Note_on_c, 0, 76, 71
1, 147086, Note_on_c, 0, 97, 73
1, 147099, Control_c, 0, 64, 40
1, 147104, Note_off_c, 0, 76, 67
1, 147114, Control_c, 0, 64, 0
1, 147129, Note_on_c, 0, 91, 61
1, 147158, Note_off_c, 0, 97, 53
1, 147166, Note_off_c, 0, 91, 54
1, 147197, Note_on_c, 0, 95, 70
1, 147199, Note_on_c, 0, 65, 60
1, 147219, Note_off_c, 0, 65, 64
1, 147242, Note_off_c, 0, 95, 62
1, 147272, Note_on_c, 0, 86, 63
1, 147299, Note_off_c, 0, 86, 65
1, 147334, Note_on_c, 0, 95, 75
1, 147345, Note_on_c, 0, 76, 55
1, 147363, Note_off_c, 0, 95, 65
1, 147365, Note_off_c, 0, 76, 61
1, 147409, Note_on_c, 0, 86, 57
1, 147429, Note_off_c, 0, 86, 62
1, 147468, Note_on_c, 0, 93, 70
1, 147471, Note_on_c, 0, 68, 40
1, 147498, Note_off_c, 0, 93, 59
1, 147501, Note_off_c, 0, 68, 56
1, 147593, Note_on_c, 0, 93, 74
1, 147601, Note_on_c, 0, 59, 50
1, 147626, Note_off_c, 0, 59, 57
1, 147650, Note_off_c, 0, 93, 56
1, 147661, Note_on_c, 0, 87, 67
1, 147697, Note_off_c, 0, 87, 60
1, 147720, Note_on_c, 0, 68, 71
1, 147726, Note_on_c, 0, 90, 85
1, 147741, Note_off_c, 0, 68, 70
1, 147770, Note_off_c, 0, 90, 62
1, 147785, Note_on_c, 0, 82, 80
1, 147814, Note_off_c, 0, 82, 59
1, 147848, Note_on_c, 0, 90, 73
1, 147877, Note_off_c, 0, 90, 65
1, 147921, Note_on_c, 0, 82, 53
1, 147945, Note_off_c, 0, 82, 58
1, 147966, Note_on_c, 0, 50, 70
1, 147981, Control_c, 0, 64, 64
1, 147996, Control_c, 0, 64, 81
1, 148011, Control_c, 0, 64, 94
1, 148021, Note_off_c, 0, 50, 63
1, 148026, Control_c, 0, 64, 86
1, 148027, Note_on_c, 0, 58, 78
1, 148041, Control_c, 0, 64, 65
1, 148044, Note_off_c, 0, 58, 68
1, 148055, Control_c, 0, 64, 0
1, 148109, Note_on_c, 0, 68, 71
1, 148111, Note_on_c, 0, 79, 62
1, 148139, Note_off_c, 0, 68, 61
1, 148159, Note_off_c, 0, 79, 48
1, 148165, Note_on_c, 0, 73, 76
1, 148224, Note_off_c, 0, 73, 61
1, 148228, Note_on_c, 0, 77, 67
1, 148268, Note_on_c, 0, 75, 65
1, 148293, Note_off_c, 0, 77, 60
1, 148301, Note_off_c, 0, 75, 63
1, 148321, Note_on_c, 0, 69, 75
1, 148345, Note_off_c, 0, 69, 69
1, 148391, Note_on_c, 0, 66, 70
1, 148408, Note_off_c, 0, 66, 66
1, 148455, Note_on_c, 0, 67, 74
1, 148502, Note_off_c, 0, 67, 58
1, 148508, Note_on_c, 0, 64, 81
1, 148556, Note_on_c, 0, 60, 100
1, 148567, Note_off_c, 0, 64, 67
1, 148573, Note_off_c, 0, 60, 74
1, 148708, Note_on_c, 0, 89, 75
1, 148717, Note_on_c, 0, 81, 77
1, 148719, Note_on_c, 0, 75, 68
1, 148730, Note_off_c, 0, 89, 70
1, 148736, Note_off_c, 0, 81, 70
1, 148738, Note_off_c, 0, 75, 70
1, 148855, Note_on_c, 0, 59, 93
1, 148860, Note_on_c, 0, 49, 92
1, 148872, Control_c, 0, 64, 66
1, 148881, Note_off_c, 0, 49, 68
1, 148882, Note_off_c, 0, 59, 66
1, 148886, Control_c, 0, 64, 106
1, 148901, Control_c, 0, 64, 127
1, 149023, Note_on_c, 0, 82, 98
1, 149024, Note_on_c, 0, 79, 88
1, 149034, Control_c, 0, 64, 64
1, 149040, Note_off_c, 0, 79, 73
1, 149049, Control_c, 0, 64, 0
1, 149050, Note_off_c, 0, 82, 66
1, 149158, Note_on_c, 0, 56, 86
1, 149202, Note_off_c, 0, 56, 65
1, 149218, Note_on_c, 0, 51, 88
1, 149266, Note_on_c, 0, 45, 96
1, 149281, Note_off_c, 0, 51, 64
1, 149299, Note_off_c, 0, 45, 66
1, 149430, Note_on_c, 0, 72, 90
1, 149431, Note_on_c, 0, 76, 83
1, 149448, Note_off_c, 0, 72, 71
1, 149461, Note_off_c, 0, 76, 67
1, 149568, Note_on_c, 0, 41, 116
1, 149573, Note_on_c, 0, 38, 98
1, 149590, Control_c, 0, 64, 51
1, 149601, Note_off_c, 0, 41, 66
1, 149605, Control_c, 0, 64, 127
1, 149607, Note_on_c, 0, 40, 37
1, 149617, Note_off_c, 0, 38, 66
1, 149644, Note_off_c, 0, 40, 54
1, 149654, Note_on_c, 0, 36, 10
1, 149698, Note_off_c, 0, 36, 41
1, 149711, Note_on_c, 0, 71, 86
1, 149716, Note_on_c, 0, 85, 85
1, 149722, Note_on_c, 0, 80, 73
1, 149733, Note_off_c, 0, 85, 74
1, 149734, Note_off_c, 0, 71, 65
1, 149738, Control_c, 0, 64, 89
1, 149743, Note_off_c, 0, 80, 71
1, 149752, Control_c, 0, 64, 15
1, 149767, Control_c, 0, 64, 0
1, 149867, Note_on_c, 0, 74, 85
1, 149872, Note_on_c, 0, 66, 77
1, 149891, Note_off_c, 0, 66, 73
1, 149922, Note_off_c, 0, 74, 63
1, 149925, Note_on_c, 0, 68, 73
1, 149984, Note_on_c, 0, 65, 79
1, 149984, Note_off_c, 0, 68, 55
1, 149998, Note_on_c, 0, 58, 80
1, 150002, Note_off_c, 0, 65, 70
1, 150017, Note_off_c, 0, 58, 72
1, 150139, Note_on_c, 0, 55, 82
1, 150163, Note_off_c, 0, 55, 69
1, 150272, Note_on_c, 0, 51, 83
1, 150277, Note_on_c, 0, 66, 51
1, 150292, Note_off_c, 0, 51, 69
1, 150342, Note_on_c, 0, 55, 66
1, 150357, Note_off_c, 0, 66, 64
1, 150376, Note_off_c, 0, 55, 60
1, 150405, Note_on_c, 0, 45, 90
1, 150412, Note_on_c, 0, 58, 65
1, 150428, Note_off_c, 0, 45, 72
1, 150444, Note_off_c, 0, 58, 63
1, 150544, Note_on_c, 0, 51, 87
1, 150545, Note_on_c, 0, 52, 101
1, 150571, Note_on_c, 0, 46, 60
1, 150579, Note_off_c, 0, 52, 66
1, 150585, Note_off_c, 0, 51, 60
1, 150593, Note_on_c, 0, 56, 58
1, 150595, Note_off_c, 0, 46, 57
1, 150640, Note_on_c, 0, 57, 45
1, 150662, Poly_aftertouch_c, 0, 62, 127
1, 150671, Note_on_c, 0, 51, 87
1, 150671, Note_off_c, 0, 57, 54
1, 150673, Note_off_c, 0, 56, 59
1, 150680, Note_on_c, 0, 49, 87
1, 150701, Note_off_c, 0, 49, 69
1, 150711, Note_off_c, 0, 51, 60
1, 150723, Poly_aftertouch_c, 0, 62, 0
1, 150755, Note_on_c, 0, 57, 59
1, 150804, Note_on_c, 0, 47, 79
1, 150806, Note_on_c, 0, 64, 72
1, 150809, Note_off_c, 0, 57, 61
1, 150829, Note_off_c, 0, 47, 69
1, 150869, Note_off_c, 0, 64, 63
1, 150874, Note_on_c, 0, 61, 72
1, 150926, Note_on_c, 0, 40, 78
1, 150947, Note_off_c, 0, 61, 60
1, 150949, Note_on_c, 0, 64, 64
1, 150949, Note_off_c, 0, 40, 69
1, 151005, Note_on_c, 0, 61, 65
1, 151010, Note_off_c, 0, 64, 63
1, 151057, Note_on_c, 0, 44, 75
1, 151072, Note_on_c, 0, 59, 55
1, 151093, Note_off_c, 0, 44, 64
1, 151099, Note_off_c, 0, 59, 61
1, 151105, Note_off_c, 0, 61, 61
1, 151140, Note_on_c, 0, 50, 49
1, 151168, Note_off_c, 0, 50, 52
1, 151175, Note_on_c, 0, 41, 76
1, 151189, Note_on_c, 0, 59, 52
1, 151204, Note_off_c, 0, 41, 66
1, 151245, Note_off_c, 0, 59, 61
1, 151259, Note_on_c, 0, 50, 55
1, 151284, Note_off_c, 0, 50, 59
1, 151313, Note_on_c, 0, 42, 104
1, 151320, Note_on_c, 0, 34, 85
1, 151323, Note_on_c, 0, 31, 73
1, 151332, Note_off_c, 0, 42, 72
1, 151344, Note_off_c, 0, 34, 68
1, 151349, Note_off_c, 0, 31, 59
1, 151468, Note_on_c, 0, 52, 63
1, 151478, Note_on_c, 0, 48, 52
1, 151484, Note_on_c, 0, 61, 38
1, 151498, Note_off_c, 0, 52, 68
1, 151505, Note_off_c, 0, 48, 53
1, 151513, Note_off_c, 0, 61, 53
1, 151628, Note_on_c, 0, 48, 53
1, 151628, Note_on_c, 0, 52, 57
1, 151653, Note_off_c, 0, 48, 56
1, 151654, Note_off_c, 0, 52, 66
1, 151698, Poly_aftertouch_c, 0, 61, 0
1, 151764, Note_on_c, 0, 74, 88
1, 151774, Note_on_c, 0, 48, 61
1, 151779, Note_off_c, 0, 74, 76
1, 151779, Note_on_c, 0, 52, 51
1, 151791, Note_on_c, 0, 61, 45
1, 151799, Note_off_c, 0, 48, 62
1, 151806, Note_off_c, 0, 52, 59
1, 151824, Note_off_c, 0, 61, 57
1, 151924, Note_on_c, 0, 52, 57
1, 151925, Note_on_c, 0, 48, 64
1, 151934, Note_on_c, 0, 61, 38
1, 151955, Note_off_c, 0, 52, 68
1, 151956, Note_off_c, 0, 48, 63
1, 151965, Note_off_c, 0, 61, 55
1, 152070, Note_on_c, 0, 48, 62
1, 152074, Note_on_c, 0, 61, 45
1, 152075, Note_on_c, 0, 52, 55
1, 152095, Note_off_c, 0, 48, 62
1, 152102, Note_off_c, 0, 52, 66
1, 152102, Note_off_c, 0, 61, 56
1, 152214, Note_on_c, 0, 48, 66
1, 152223, Note_on_c, 0, 61, 42
1, 152224, Note_on_c, 0, 52, 48
1, 152225, Note_on_c, 0, 41, 71
1, 152244, Note_off_c, 0, 48, 64
1, 152250, Note_off_c, 0, 41, 64
1, 152251, Note_off_c, 0, 61, 56
1, 152252, Note_off_c, 0, 52, 60
1, 152363, Note_on_c, 0, 48, 73
1, 152363, Note_on_c, 0, 52, 59
1, 152364, Note_on_c, 0, 61, 55
1, 152390, Note_off_c, 0, 48, 65
1, 152393, Note_off_c, 0, 61, 56
1, 152395, Note_off_c, 0, 52, 68
1, 152504, Note_on_c, 0, 21, 100
1, 152513, Note_on_c, 0, 48, 73
1, 152519, Note_on_c, 0, 52, 58
1, 152520, Note_on_c, 0, 61, 56
1, 152539, Note_off_c, 0, 48, 66
1, 152544, Note_off_c, 0, 61, 61
1, 152545, Note_off_c, 0, 21, 62
1, 152550, Note_off_c, 0, 52, 68
1, 152663, Note_on_c, 0, 48, 74
1, 152668, Note_on_c, 0, 52, 61
1, 152670, Note_on_c, 0, 61, 60
1, 152691, Note_off_c, 0, 48, 66
1, 152697, Note_off_c, 0, 61, 59
1, 152698, Note_off_c, 0, 52, 68
1, 152812, Note_on_c, 0, 48, 77
1, 152812, Note_on_c, 0, 52, 65
1, 152813, Note_on_c, 0, 61, 67
1, 152840, Note_off_c, 0, 48, 66
1, 152845, Note_off_c, 0, 61, 63
1, 152846, Note_off_c, 0, 52, 68
1, 152956, Note_on_c, 0, 51, 93
1, 152956, Note_on_c, 0, 52, 70
1, 152957, Note_on_c, 0, 48, 73
1, 152957, Note_on_c, 0, 61, 72
1, 152970, Note_off_c, 0, 51, 42
1, 152984, Note_off_c, 0, 48, 64
1, 152986, Note_off_c, 0, 52, 68
1, 152986, Note_off_c, 0, 61, 62
1, 153099, Note_on_c, 0, 61, 77
1, 153099, Note_on_c, 0, 48, 75
1, 153101, Note_on_c, 0, 52, 68
1, 153131, Note_off_c, 0, 48, 65
1, 153136, Note_off_c, 0, 52, 64
1, 153151, Note_off_c, 0, 61, 62
1, 153233, Note_on_c, 0, 80, 111
1, 153233, Note_on_c, 0, 52, 78
1, 153233, Note_on_c, 0, 61, 85
1, 153236, Note_on_c, 0, 48, 81
1, 153248, Note_off_c, 0, 80, 71
1, 153258, Note_off_c, 0, 48, 67
1, 153260, Note_off_c, 0, 52, 71
1, 153278, Note_off_c, 0, 61, 62
1, 153384, Note_on_c, 0, 71, 92
1, 153388, Note_on_c, 0, 62, 92
1, 153389, Note_on_c, 0, 60, 87
1, 153547, Note_on_c, 0, 65, 73
1, 153549, Note_off_c, 0, 60, 60
1, 153552, Note_off_c, 0, 62, 56
1, 153567, Note_off_c, 0, 71, 58
1, 153575, Note_off_c, 0, 65, 65
1, 153658, Note_on_c, 0, 63, 103
1, 153661, Note_on_c, 0, 52, 84
1, 153666, Note_on_c, 0, 57, 79
1, 153758, Poly_aftertouch_c, 0, 55, 127
1, 153791, Note_on_c, 0, 61, 86
1, 153791, Note_off_c, 0, 63, 67
1, 153797, Note_off_c, 0, 52, 66
1, 153800, Note_off_c, 0, 57, 63
1, 153806, Poly_aftertouch_c, 0, 55, 0
1, 153810, Note_off_c, 0, 61, 72
1, 153902, Note_on_c, 0, 70, 78
1, 153907, Note_on_c, 0, 66, 75
1, 153915, Note_on_c, 0, 79, 47
1, 153928, Note_off_c, 0, 66, 72
1, 153939, Note_off_c, 0, 70, 62
1, 153941, Note_off_c, 0, 79, 55
1, 154031, Control_c, 0, 64, 62
1, 154041, Note_on_c, 0, 63, 111
1, 154044, Note_on_c, 0, 61, 101
1, 154046, Control_c, 0, 64, 127
1, 154048, Note_on_c, 0, 70, 91
1, 154049, Note_on_c, 0, 66, 89
1, 154050, Note_on_c, 0, 57, 87
1, 154052, Note_on_c, 0, 79, 72
1, 154061, Note_on_c, 0, 52, 78
1, 154073, Note_off_c, 0, 66, 75
1, 154073, Note_off_c, 0, 70, 74
1, 154078, Note_on_c, 0, 78, 36
1, 154080, Note_off_c, 0, 52, 69
1, 154080, Note_off_c, 0, 57, 69
1, 154085, Note_off_c, 0, 63, 65
1, 154086, Note_off_c, 0, 61, 68
1, 154093, Note_off_c, 0, 79, 57
1, 154110, Note_off_c, 0, 78, 33
1, 154142, Control_c, 0, 64, 81
1, 154157, Control_c, 0, 64, 10
1, 154172, Control_c, 0, 64, 0
1, 154193, Note_on_c, 0, 78, 73
1, 154228, Note_off_c, 0, 78, 59
1, 154268, Note_on_c, 0, 74, 55
1, 154298, Note_off_c, 0, 74, 65
1, 154324, Note_on_c, 0, 77, 68
1, 154333, Note_on_c, 0, 72, 86
1, 154339, Note_on_c, 0, 76, 79
1, 154354, Note_off_c, 0, 72, 65
1, 154362, Note_off_c, 0, 76, 68
1, 154372, Note_on_c, 0, 81, 68
1, 154377, Note_off_c, 0, 77, 62
1, 154401, Note_off_c, 0, 81, 63
1, 154450, Note_on_c, 0, 75, 83
1, 154464, Note_on_c, 0, 78, 79
1, 154472, Note_on_c, 0, 74, 64
1, 154483, Note_off_c, 0, 78, 71
1, 154490, Note_off_c, 0, 74, 68
1, 154509, Note_on_c, 0, 80, 74
1, 154518, Note_off_c, 0, 75, 61
1, 154569, Note_off_c, 0, 80, 60
1, 154575, Note_on_c, 0, 83, 45
1, 154580, Note_on_c, 0, 82, 48
1, 154592, Note_on_c, 0, 77, 85
1, 154611, Note_off_c, 0, 77, 68
1, 154626, Note_on_c, 0, 85, 70
1, 154628, Note_on_c, 0, 81, 25
1, 154641, Note_off_c, 0, 82, 60
1, 154641, Note_off_c, 0, 83, 61
1, 154647, Note_off_c, 0, 81, 37
1, 154697, Note_off_c, 0, 85, 61
1, 154705, Note_on_c, 0, 72, 75
1, 154711, Note_on_c, 0, 80, 88
1, 154717, Note_on_c, 0, 75, 83
1, 154739, Note_off_c, 0, 75, 72
1, 154742, Note_on_c, 0, 78, 40
1, 154748, Note_off_c, 0, 80, 63
1, 154764, Note_off_c, 0, 72, 56
1, 154769, Note_on_c, 0, 76, 75
1, 154781, Note_off_c, 0, 78, 51
1, 154835, Note_off_c, 0, 76, 62
1, 154839, Note_on_c, 0, 79, 62
1, 154849, Note_on_c, 0, 85, 93
1, 154854, Note_on_c, 0, 83, 84
1, 154866, Note_off_c, 0, 85, 71
1, 154872, Note_off_c, 0, 83, 72
1, 154900, Note_on_c, 0, 82, 79
1, 154915, Note_off_c, 0, 79, 61
1, 154962, Note_on_c, 0, 78, 85
1, 154969, Note_off_c, 0, 82, 63
1, 155023, Note_on_c, 0, 82, 77
1, 155027, Note_off_c, 0, 78, 64
1, 155065, Note_on_c, 0, 81, 27
1, 155095, Note_off_c, 0, 81, 0
1, 155095, Note_on_c, 0, 81, 43
1, 155101, Note_on_c, 0, 79, 74
1, 155119, Note_on_c, 0, 76, 65
1, 155132, Note_off_c, 0, 82, 62
1, 155133, Note_on_c, 0, 75, 74
1, 155137, Note_off_c, 0, 81, 62
1, 155138, Note_off_c, 0, 76, 65
1, 155146, Note_off_c, 0, 79, 60
1, 155156, Note_off_c, 0, 75, 70
1, 155207, Note_on_c, 0, 81, 86
1, 155258, Note_on_c, 0, 76, 77
1, 155311, Note_off_c, 0, 81, 58
1, 155332, Note_on_c, 0, 74, 85
1, 155342, Note_on_c, 0, 73, 81
1, 155349, Note_off_c, 0, 74, 70
1, 155352, Note_on_c, 0, 84, 60
1, 155353, Note_off_c, 0, 84, 127
1, 155353, Note_on_c, 0, 80, 58
1, 155358, Note_off_c, 0, 76, 65
1, 155359, Note_on_c, 0, 78, 23
1, 155371, Note_off_c, 0, 80, 65
1, 155385, Note_off_c, 0, 78, 46
1, 155391, Note_off_c, 0, 73, 60
1, 155397, Note_on_c, 0, 71, 71
1, 155423, Note_off_c, 0, 71, 65
1, 155457, Note_on_c, 0, 78, 98
1, 155460, Note_on_c, 0, 84, 82
1, 155465, Note_on_c, 0, 79, 94
1, 155480, Note_off_c, 0, 79, 73
1, 155489, Note_off_c, 0, 78, 70
1, 155499, Control_c, 0, 64, 78
1, 155514, Control_c, 0, 64, 127
1, 155515, Note_on_c, 0, 80, 74
1, 155544, Note_on_c, 0, 82, 54
1, 155581, Note_off_c, 0, 84, 60
1, 155590, Note_on_c, 0, 77, 73
1, 155620, Note_off_c, 0, 82, 52
1, 155635, Note_off_c, 0, 80, 62
1, 155651, Note_off_c, 0, 77, 61
1, 155659, Note_on_c, 0, 74, 70
1, 155680, Note_off_c, 0, 74, 72
1, 155744, Control_c, 0, 64, 0
1, 155770, Note_on_c, 0, 45, 99
1, 155775, Note_on_c, 0, 39, 94
1, 155776, Note_on_c, 0, 34, 90
1, 155787, Note_off_c, 0, 45, 76
1, 155791, Note_off_c, 0, 39, 68
1, 155793, Note_on_c, 0, 37, 60
1, 155794, Note_off_c, 0, 37, 127
1, 155799, Note_off_c, 0, 34, 68
1, 155907, Note_on_c, 0, 61, 77
1, 155916, Note_on_c, 0, 48, 64
1, 155916, Note_on_c, 0, 52, 65
1, 155937, Note_off_c, 0, 61, 63
1, 155937, Note_off_c, 0, 48, 59
1, 155946, Note_off_c, 0, 52, 69
1, 156050, Note_on_c, 0, 48, 62
1, 156054, Note_on_c, 0, 52, 52
1, 156070, Note_on_c, 0, 61, 44
1, 156081, Note_off_c, 0, 48, 63
1, 156087, Note_off_c, 0, 52, 68
1, 156097, Note_off_c, 0, 61, 53
1, 156196, Note_on_c, 0, 55, 93
1, 156207, Note_on_c, 0, 61, 63
1, 156208, Note_on_c, 0, 48, 76
1, 156211, Note_on_c, 0, 52, 65
1, 156225, Note_off_c, 0, 55, 69
1, 156233, Note_off_c, 0, 48, 66
1, 156238, Note_off_c, 0, 52, 69
1, 156240, Note_off_c, 0, 61, 62
1, 156364, Note_on_c, 0, 48, 55
1, 156364, Note_on_c, 0, 61, 63
1, 156368, Note_on_c, 0, 52, 48
1, 156396, Note_off_c, 0, 52, 58
1, 156396, Note_off_c, 0, 61, 63
1, 156397, Note_off_c, 0, 48, 63
1, 156500, Note_on_c, 0, 52, 52
1, 156503, Note_on_c, 0, 48, 53
1, 156510, Note_on_c, 0, 61, 51
1, 156529, Note_off_c, 0, 48, 56
1, 156530, Note_off_c, 0, 52, 66
1, 156540, Note_off_c, 0, 61, 62
1, 156632, Note_on_c, 0, 77, 96
1, 156648, Note_on_c, 0, 48, 71
1, 156652, Note_off_c, 0, 77, 67
1, 156655, Note_on_c, 0, 61, 61
1, 156658, Note_on_c, 0, 52, 49
1, 156676, Note_off_c, 0, 48, 64
1, 156683, Note_off_c, 0, 52, 60
1, 156689, Note_off_c, 0, 61, 61
1, 156791, Note_on_c, 0, 52, 49
1, 156793, Note_on_c, 0, 48, 55
1, 156810, Note_on_c, 0, 61, 26
1, 156817, Note_off_c, 0, 48, 57
1, 156819, Note_off_c, 0, 52, 63
1, 156843, Note_off_c, 0, 61, 48
1, 156922, Note_on_c, 0, 66, 109
1, 156930, Note_on_c, 0, 61, 65
1, 156930, Note_on_c, 0, 48, 64
1, 156938, Note_on_c, 0, 52, 47
1, 156942, Note_off_c, 0, 66, 70
1, 156959, Note_off_c, 0, 61, 63
1, 156961, Note_off_c, 0, 48, 63
1, 156966, Note_off_c, 0, 52, 64
1, 157078, Note_on_c, 0, 52, 53
1, 157083, Note_on_c, 0, 48, 55
1, 157086, Note_on_c, 0, 61, 56
1, 157108, Note_off_c, 0, 48, 57
1, 157108, Note_off_c, 0, 61, 60
1, 157112, Note_off_c, 0, 52, 67
1, 157216, Note_on_c, 0, 48, 64
1, 157221, Note_on_c, 0, 61, 55
1, 157225, Note_on_c, 0, 52, 48
1, 157245, Note_off_c, 0, 48, 64
1, 157249, Note_off_c, 0, 61, 59
1, 157255, Note_off_c, 0, 52, 64
1, 157350, Note_on_c, 0, 38, 103
1, 157350, Note_on_c, 0, 48, 64
1, 157350, Note_on_c, 0, 61, 72
1, 157352, Note_on_c, 0, 52, 68
1, 157370, Note_off_c, 0, 48, 60
1, 157372, Note_off_c, 0, 61, 67
1, 157380, Note_off_c, 0, 52, 67
1, 157394, Note_off_c, 0, 38, 66
1, 157490, Note_on_c, 0, 59, 96
1, 157492, Note_on_c, 0, 72, 99
1, 157641, Note_off_c, 0, 59, 59
1, 157643, Note_on_c, 0, 68, 77
1, 157652, Note_off_c, 0, 72, 62
1, 157675, Note_off_c, 0, 68, 64
1, 157691, Note_on_c, 0, 70, 5
1, 157749, Note_off_c, 0, 70, 25
1, 157779, Note_on_c, 0, 57, 85
1, 157921, Note_on_c, 0, 53, 78
1, 157921, Note_on_c, 0, 66, 90
1, 157934, Note_off_c, 0, 57, 58
1, 157943, Note_off_c, 0, 66, 70
1, 157944, Note_off_c, 0, 53, 70
1, 158036, Control_c, 0, 64, 75
1, 158050, Note_on_c, 0, 87, 98
1, 158050, Note_on_c, 0, 74, 92
1, 158050, Control_c, 0, 64, 127
1, 158086, Note_off_c, 0, 74, 63
1, 158104, Note_on_c, 0, 85, 19
1, 158109, Control_c, 0, 64, 75
1, 158121, Note_off_c, 0, 87, 64
1, 158124, Control_c, 0, 64, 0
1, 158158, Note_off_c, 0, 85, 65
1, 158191, Note_on_c, 0, 64, 94
1, 158196, Note_on_c, 0, 67, 79
1, 158213, Note_off_c, 0, 64, 69
1, 158214, Note_off_c, 0, 67, 71
1, 158353, Note_on_c, 0, 58, 72
1, 158408, Note_on_c, 0, 61, 72
1, 158419, Note_off_c, 0, 58, 59
1, 158456, Note_on_c, 0, 64, 74
1, 158469, Note_on_c, 0, 63, 81
1, 158490, Note_off_c, 0, 63, 58
1, 158494, Control_c, 0, 64, 83
1, 158506, Note_on_c, 0, 62, 23
1, 158507, Note_off_c, 0, 61, 54
1, 158508, Control_c, 0, 64, 127
1, 158513, Note_on_c, 0, 68, 80
1, 158542, Note_off_c, 0, 64, 63
1, 158560, Note_off_c, 0, 62, 48
1, 158570, Note_off_c, 0, 68, 64
1, 158592, Note_on_c, 0, 68, 78
1, 158595, Note_on_c, 0, 55, 81
1, 158599, Note_on_c, 0, 60, 51
1, 158606, Note_on_c, 0, 58, 60
1, 158620, Control_c, 0, 64, 66
1, 158620, Note_off_c, 0, 68, 65
1, 158621, Note_off_c, 0, 60, 60
1, 158629, Note_off_c, 0, 58, 61
1, 158634, Control_c, 0, 64, 0
1, 158638, Note_off_c, 0, 55, 61
1, 158652, Note_on_c, 0, 57, 67
1, 158697, Note_on_c, 0, 62, 77
1, 158710, Note_on_c, 0, 60, 61
1, 158711, Note_on_c, 0, 64, 47
1, 158719, Note_off_c, 0, 62, 64
1, 158735, Note_off_c, 0, 57, 60
1, 158739, Note_off_c, 0, 64, 34
1, 158784, Note_on_c, 0, 65, 58
1, 158788, Note_off_c, 0, 60, 63
1, 158814, Note_off_c, 0, 65, 65
1, 158831, Note_on_c, 0, 57, 97
1, 158834, Note_on_c, 0, 59, 72
1, 158835, Note_on_c, 0, 55, 80
1, 158844, Note_off_c, 0, 57, 72
1, 158855, Note_off_c, 0, 55, 69
1, 158881, Note_on_c, 0, 63, 77
1, 158883, Note_off_c, 0, 59, 61
1, 158949, Note_on_c, 0, 66, 74
1, 158969, Note_off_c, 0, 63, 58
1, 158997, Note_on_c, 0, 62, 78
1, 159016, Note_off_c, 0, 62, 69
1, 159024, Note_off_c, 0, 66, 66
1, 159091, Note_on_c, 0, 47, 96
1, 159091, Note_on_c, 0, 60, 107
1, 159094, Control_c, 0, 64, 83
1, 159109, Control_c, 0, 64, 117
1, 159124, Control_c, 0, 64, 101
1, 159138, Control_c, 0, 64, 71
1, 159140, Note_on_c, 0, 48, 20
1, 159141, Note_off_c, 0, 48, 127
1, 159153, Control_c, 0, 64, 22
1, 159168, Control_c, 0, 64, 0
1, 159225, Note_off_c, 0, 47, 63
1, 159226, Note_off_c, 0, 60, 61
1, 159230, Note_on_c, 0, 56, 77
1, 159231, Note_on_c, 0, 66, 103
1, 159234, Note_on_c, 0, 79, 91
1, 159235, Note_on_c, 0, 75, 88
1, 159246, Note_off_c, 0, 66, 73
1, 159249, Note_off_c, 0, 79, 71
1, 159251, Note_off_c, 0, 75, 75
1, 159252, Note_off_c, 0, 56, 67
1, 159371, Note_on_c, 0, 66, 98
1, 159375, Note_on_c, 0, 75, 95
1, 159380, Note_on_c, 0, 79, 79
1, 159391, Note_off_c, 0, 75, 75
1, 159392, Note_off_c, 0, 66, 69
1, 159397, Note_off_c, 0, 79, 69
1, 159508, Note_on_c, 0, 60, 101
1, 159509, Note_on_c, 0, 47, 94
1, 159511, Note_on_c, 0, 66, 97
1, 159515, Note_on_c, 0, 75, 96
1, 159517, Note_on_c, 0, 79, 75
1, 159532, Note_off_c, 0, 75, 74
1, 159535, Note_off_c, 0, 66, 66
1, 159538, Note_off_c, 0, 79, 68
1, 159539, Note_on_c, 0, 73, 49
1, 159563, Note_off_c, 0, 73, 58
1, 159645, Note_on_c, 0, 56, 85
1, 159646, Note_on_c, 0, 66, 102
1, 159649, Note_on_c, 0, 75, 93
1, 159652, Note_on_c, 0, 79, 84
1, 159653, Note_off_c, 0, 60, 63
1, 159657, Note_off_c, 0, 47, 66
1, 159668, Note_off_c, 0, 75, 72
1, 159668, Note_off_c, 0, 56, 68
1, 159671, Note_off_c, 0, 66, 66
1, 159671, Note_off_c, 0, 79, 71
1, 159672, Note_on_c, 0, 73, 34
1, 159705, Note_off_c, 0, 73, 34
1, 159791, Note_on_c, 0, 66, 90
1, 159794, Note_on_c, 0, 79, 79
1, 159795, Note_on_c, 0, 75, 81
1, 159809, Note_off_c, 0, 66, 71
1, 159815, Note_off_c, 0, 75, 73
1, 159815, Note_off_c, 0, 79, 66
1, 159922, Note_on_c, 0, 82, 111
1, 159930, Note_on_c, 0, 66, 94
1, 159939, Note_on_c, 0, 75, 70
1, 159941, Note_on_c, 0, 79, 64
1, 159942, Note_off_c, 0, 82, 73
1, 159946, Note_off_c, 0, 66, 73
1, 159955, Note_off_c, 0, 75, 70
1, 159959, Note_off_c, 0, 79, 63
1, 160075, Note_on_c, 0, 66, 87
1, 160086, Note_on_c, 0, 75, 63
1, 160088, Note_on_c, 0, 79, 51
1, 160095, Note_off_c, 0, 66, 70
1, 160105, Note_off_c, 0, 75, 64
1, 160113, Note_off_c, 0, 79, 53
1, 160217, Note_on_c, 0, 66, 82
1, 160229, Note_on_c, 0, 79, 52
1, 160232, Note_on_c, 0, 74, 51
1, 160237, Note_off_c, 0, 66, 72
1, 160247, Note_on_c, 0, 77, 26
1, 160250, Note_on_c, 0, 65, 42
1, 160251, Note_off_c, 0, 65, 127
1, 160252, Note_off_c, 0, 74, 63
1, 160253, Note_off_c, 0, 79, 53
1, 160256, Note_off_c, 0, 77, 48
1, 160346, Note_on_c, 0, 49, 109
1, 160354, Note_on_c, 0, 66, 88
1, 160358, Note_on_c, 0, 79, 67
1, 160361, Note_on_c, 0, 75, 74
1, 160372, Note_off_c, 0, 66, 73
1, 160374, Note_off_c, 0, 49, 63
1, 160378, Note_off_c, 0, 79, 63
1, 160381, Note_off_c, 0, 75, 69
1, 160483, Note_on_c, 0, 66, 98
1, 160490, Note_on_c, 0, 79, 64
1, 160494, Note_on_c, 0, 75, 67
1, 160504, Note_off_c, 0, 66, 67
1, 160513, Note_off_c, 0, 79, 64
1, 160514, Note_off_c, 0, 75, 68
1, 160612, Note_on_c, 0, 28, 99
1, 160622, Note_on_c, 0, 66, 93
1, 160626, Note_on_c, 0, 75, 82
1, 160629, Note_on_c, 0, 79, 69
1, 160647, Note_off_c, 0, 28, 63
1, 160649, Note_off_c, 0, 79, 65
1, 160650, Note_off_c, 0, 66, 60
1, 160650, Note_off_c, 0, 75, 67
1, 160650, Note_on_c, 0, 73, 40
1, 160680, Note_off_c, 0, 73, 52
1, 160756, Note_on_c, 0, 66, 100
1, 160762, Note_on_c, 0, 75, 82
1, 160763, Note_on_c, 0, 60, 91
1, 160764, Note_on_c, 0, 79, 72
1, 160775, Note_on_c, 0, 47, 82
1, 160779, Note_on_c, 0, 48, 67
1, 160781, Note_on_c, 0, 73, 39
1, 160784, Note_off_c, 0, 75, 67
1, 160790, Note_off_c, 0, 79, 63
1, 160790, Note_on_c, 0, 65, 47
1, 160791, Note_off_c, 0, 65, 127
1, 160806, Note_off_c, 0, 66, 63
1, 160810, Note_on_c, 0, 51, 28
1, 160817, Note_off_c, 0, 73, 53
1, 160853, Note_off_c, 0, 51, 30
1, 160893, Note_off_c, 0, 48, 32
1, 160904, Note_off_c, 0, 60, 57
1, 160905, Note_on_c, 0, 56, 81
1, 160905, Note_on_c, 0, 66, 92
1, 160917, Note_off_c, 0, 47, 61
1, 160918, Note_on_c, 0, 79, 68
1, 160924, Note_on_c, 0, 75, 55
1, 160936, Note_off_c, 0, 56, 62
1, 160939, Note_off_c, 0, 79, 61
1, 160946, Note_off_c, 0, 75, 61
1, 160949, Note_off_c, 0, 66, 64
1, 161013, Control_c, 0, 64, 69
1, 161028, Control_c, 0, 64, 127
1, 161031, Note_on_c, 0, 56, 90
1, 161034, Note_on_c, 0, 76, 90
1, 161036, Note_on_c, 0, 70, 86
1, 161062, Note_on_c, 0, 69, 62
1, 161077, Note_off_c, 0, 56, 58
1, 161084, Note_off_c, 0, 69, 66
1, 161130, Poly_aftertouch_c, 0, 50, 0
1, 161130, Note_off_c, 0, 70, 59
1, 161133, Control_c, 0, 64, 122
1, 161148, Control_c, 0, 64, 64
1, 161156, Note_off_c, 0, 76, 64
1, 161163, Control_c, 0, 64, 0
1, 161166, Note_on_c, 0, 47, 89
1, 161168, Note_on_c, 0, 60, 75
1, 161174, Note_on_c, 0, 69, 74
1, 161185, Note_off_c, 0, 60, 67
1, 161189, Note_off_c, 0, 47, 71
1, 161204, Note_off_c, 0, 69, 67
1, 161302, Note_on_c, 0, 73, 105
1, 161303, Note_on_c, 0, 86, 91
1, 161305, Note_on_c, 0, 51, 103
1, 161311, Control_c, 0, 64, 127
1, 161329, Note_on_c, 0, 80, 45
1, 161331, Note_off_c, 0, 51, 69
1, 161355, Note_off_c, 0, 80, 58
1, 161370, Note_on_c, 0, 82, 17
1, 161371, Note_off_c, 0, 82, 127
1, 161393, Note_off_c, 0, 86, 52
1, 161420, Note_off_c, 0, 73, 53
1, 161427, Poly_aftertouch_c, 0, 46, 0
1, 161430, Control_c, 0, 64, 52
1, 161432, Note_on_c, 0, 84, 78
1, 161444, Control_c, 0, 64, 0
1, 161464, Note_off_c, 0, 84, 67
1, 161583, Note_on_c, 0, 46, 108
1, 161586, Control_c, 0, 64, 100
1, 161594, Note_on_c, 0, 89, 66
1, 161597, Note_on_c, 0, 80, 108
1, 161598, Note_on_c, 0, 93, 101
1, 161600, Control_c, 0, 64, 127
1, 161614, Note_on_c, 0, 41, 54
1, 161618, Note_on_c, 0, 79, 74
1, 161619, Note_on_c, 0, 91, 52
1, 161634, Note_off_c, 0, 79, 70
1, 161641, Note_off_c, 0, 46, 58
1, 161647, Note_off_c, 0, 41, 50
1, 161649, Note_off_c, 0, 91, 0
1, 161649, Note_on_c, 0, 91, 17
1, 161651, Note_off_c, 0, 93, 61
1, 161653, Note_on_c, 0, 87, 31
1, 161658, Note_off_c, 0, 80, 63
1, 161666, Poly_aftertouch_c, 0, 38, 127
1, 161676, Note_off_c, 0, 87, 47
1, 161682, Note_off_c, 0, 89, 64
1, 161690, Note_off_c, 0, 91, 43
1, 161716, Note_on_c, 0, 38, 36
1, 161727, Note_on_c, 0, 89, 76
1, 161733, Control_c, 0, 64, 113
1, 161735, Note_on_c, 0, 80, 107
1, 161735, Note_on_c, 0, 93, 91
1, 161738, Note_on_c, 0, 36, 41
1, 161748, Control_c, 0, 64, 44
1, 161763, Control_c, 0, 64, 0
1, 161764, Note_off_c, 0, 38, 63
1, 161770, Note_off_c, 0, 36, 55
1, 161773, Note_off_c, 0, 93, 63
1, 161774, Note_off_c, 0, 80, 67
1, 161777, Note_off_c, 0, 89, 66
1, 161783, Note_on_c, 0, 91, 14
1, 161784, Note_off_c, 0, 91, 127
1, 161868, Note_on_c, 0, 29, 90
1, 161902, Note_on_c, 0, 33, 40
1, 161923, Note_off_c, 0, 29, 63
1, 161929, Note_on_c, 0, 85, 39
1, 161941, Note_off_c, 0, 33, 52
1, 161963, Note_off_c, 0, 85, 53
1, 162011, Note_on_c, 0, 36, 80
1, 162021, Note_on_c, 0, 90, 88
1, 162021, Note_on_c, 0, 86, 85
1, 162042, Note_off_c, 0, 90, 69
1, 162051, Note_off_c, 0, 36, 64
1, 162051, Note_off_c, 0, 86, 66
1, 162150, Note_on_c, 0, 39, 68
1, 162179, Note_off_c, 0, 39, 66
1, 162292, Note_on_c, 0, 43, 79
1, 162308, Note_on_c, 0, 65, 83
1, 162328, Note_off_c, 0, 65, 71
1, 162331, Note_off_c, 0, 43, 67
1, 162440, Note_on_c, 0, 37, 89
1, 162482, Control_c, 0, 64, 64
1, 162497, Control_c, 0, 64, 127
1, 162579, Note_on_c, 0, 42, 92
1, 162584, Note_on_c, 0, 75, 104
1, 162585, Note_on_c, 0, 69, 106
1, 162587, Note_on_c, 0, 80, 101
1, 162599, Note_off_c, 0, 69, 79
1, 162599, Note_off_c, 0, 80, 78
1, 162601, Note_off_c, 0, 75, 72
1, 162602, Note_off_c, 0, 37, 64
1, 162605, Note_on_c, 0, 78, 49
1, 162615, Control_c, 0, 64, 87
1, 162629, Note_off_c, 0, 78, 61
1, 162630, Control_c, 0, 64, 0
1, 162632, Note_off_c, 0, 42, 64
1, 162707, Note_on_c, 0, 45, 79
1, 162732, Note_off_c, 0, 45, 67
1, 162850, Note_on_c, 0, 47, 72
1, 162878, Note_off_c, 0, 47, 66
1, 162978, Note_on_c, 0, 60, 64
1, 162992, Note_on_c, 0, 61, 53
1, 162996, Note_on_c, 0, 46, 60
1, 163008, Note_off_c, 0, 60, 65
1, 163014, Note_off_c, 0, 61, 60
1, 163020, Note_off_c, 0, 46, 57
1, 163052, Note_on_c, 0, 59, 46
1, 163089, Note_off_c, 0, 59, 49
1, 163103, Note_on_c, 0, 61, 63
1, 163110, Note_on_c, 0, 60, 59
1, 163116, Note_on_c, 0, 50, 62
1, 163136, Note_off_c, 0, 61, 62
1, 163143, Note_off_c, 0, 60, 62
1, 163145, Note_off_c, 0, 50, 64
1, 163169, Note_on_c, 0, 59, 65
1, 163201, Note_off_c, 0, 59, 62
1, 163231, Note_on_c, 0, 53, 63
1, 163240, Note_on_c, 0, 60, 49
1, 163241, Note_on_c, 0, 61, 62
1, 163255, Note_off_c, 0, 53, 67
1, 163265, Note_off_c, 0, 60, 58
1, 163272, Note_off_c, 0, 61, 64
1, 163295, Note_on_c, 0, 59, 65
1, 163329, Note_off_c, 0, 59, 61
1, 163356, Note_on_c, 0, 56, 61
1, 163360, Note_on_c, 0, 60, 47
1, 163367, Note_on_c, 0, 61, 59
1, 163379, Note_off_c, 0, 56, 65
1, 163389, Note_off_c, 0, 60, 61
1, 163391, Note_off_c, 0, 61, 61
1, 163424, Note_on_c, 0, 59, 47
1, 163452, Note_off_c, 0, 59, 57
1, 163468, Control_c, 0, 64, 70
1, 163480, Note_on_c, 0, 47, 85
1, 163481, Note_on_c, 0, 60, 81
1, 163483, Control_c, 0, 64, 127
1, 163496, Note_on_c, 0, 76, 86
1, 163506, Note_on_c, 0, 70, 84
1, 163520, Note_on_c, 0, 75, 40
1, 163521, Note_off_c, 0, 75, 127
1, 163592, Note_off_c, 0, 76, 60
1, 163594, Note_off_c, 0, 70, 64
1, 163602, Control_c, 0, 64, 73
1, 163617, Control_c, 0, 64, 0
1, 163618, Note_on_c, 0, 69, 75
1, 163619, Note_off_c, 0, 60, 59
1, 163628, Note_on_c, 0, 56, 79
1, 163640, Note_off_c, 0, 69, 72
1, 163646, Note_off_c, 0, 47, 62
1, 163647, Note_off_c, 0, 56, 69
1, 163765, Note_on_c, 0, 51, 94
1, 163769, Note_on_c, 0, 73, 99
1, 163772, Note_on_c, 0, 86, 85
1, 163780, Control_c, 0, 64, 127
1, 163874, Note_off_c, 0, 86, 59
1, 163876, Note_off_c, 0, 73, 56
1, 163885, Note_off_c, 0, 51, 50
1, 163886, Note_on_c, 0, 42, 61
1, 163904, Note_on_c, 0, 84, 78
1, 163905, Control_c, 0, 64, 64
1, 163920, Control_c, 0, 64, 0
1, 163927, Note_off_c, 0, 84, 68
1, 163930, Note_off_c, 0, 42, 66
1, 164068, Note_on_c, 0, 37, 100
1, 164068, Control_c, 0, 64, 78
1, 164069, Note_on_c, 0, 31, 87
1, 164074, Note_on_c, 0, 93, 92
1, 164076, Note_on_c, 0, 89, 82
1, 164077, Note_on_c, 0, 80, 96
1, 164083, Control_c, 0, 64, 127
1, 164090, Note_on_c, 0, 90, 44
1, 164094, Note_off_c, 0, 93, 69
1, 164095, Note_on_c, 0, 82, 60
1, 164099, Note_off_c, 0, 90, 0
1, 164099, Note_off_c, 0, 31, 70
1, 164107, Note_off_c, 0, 89, 67
1, 164108, Note_off_c, 0, 37, 69
1, 164113, Note_off_c, 0, 80, 65
1, 164118, Note_off_c, 0, 82, 65
1, 164143, Poly_aftertouch_c, 0, 90, 0
1, 164230, Note_on_c, 0, 60, 86
1, 164230, Note_on_c, 0, 76, 85
1, 164232, Note_on_c, 0, 47, 90
1, 164236, Note_on_c, 0, 70, 83
1, 164329, Note_off_c, 0, 76, 62
1, 164336, Control_c, 0, 64, 117
1, 164343, Note_off_c, 0, 70, 62
1, 164350, Control_c, 0, 64, 54
1, 164362, Note_on_c, 0, 56, 90
1, 164365, Control_c, 0, 64, 0
1, 164367, Note_off_c, 0, 60, 63
1, 164370, Note_on_c, 0, 69, 81
1, 164382, Note_off_c, 0, 56, 72
1, 164388, Note_off_c, 0, 69, 75
1, 164390, Note_off_c, 0, 47, 64
1, 164499, Control_c, 0, 64, 74
1, 164502, Note_on_c, 0, 51, 97
1, 164507, Note_on_c, 0, 73, 102
1, 164510, Note_on_c, 0, 86, 90
1, 164514, Control_c, 0, 64, 127
1, 164558, Note_on_c, 0, 39, 28
1, 164597, Note_off_c, 0, 39, 48
1, 164614, Note_off_c, 0, 73, 55
1, 164615, Note_off_c, 0, 86, 61
1, 164637, Note_on_c, 0, 42, 89
1, 164642, Note_off_c, 0, 51, 63
1, 164650, Note_on_c, 0, 84, 77
1, 164655, Control_c, 0, 64, 76
1, 164669, Note_on_c, 0, 85, 47
1, 164670, Control_c, 0, 64, 0
1, 164671, Note_off_c, 0, 42, 64
1, 164671, Note_off_c, 0, 84, 71
1, 164696, Note_off_c, 0, 85, 35
1, 164767, Note_on_c, 0, 90, 57
1, 164769, Note_on_c, 0, 87, 43
1, 164799, Note_off_c, 0, 87, 49
1, 164802, Note_off_c, 0, 90, 59
1, 164818, Control_c, 0, 64, 60
1, 164821, Note_on_c, 0, 31, 88
1, 164821, Note_on_c, 0, 37, 69
1, 164821, Note_on_c, 0, 80, 102
1, 164827, Note_on_c, 0, 89, 82
1, 164829, Note_on_c, 0, 93, 86
1, 164832, Control_c, 0, 64, 127
1, 164838, Note_on_c, 0, 36, 73
1, 164864, Note_on_c, 0, 91, 47
1, 164872, Note_on_c, 0, 33, 10
1, 164880, Note_off_c, 0, 80, 66
1, 164881, Note_off_c, 0, 36, 59
1, 164890, Note_off_c, 0, 93, 61
1, 164898, Note_off_c, 0, 37, 63
1, 164904, Note_off_c, 0, 31, 59
1, 164905, Note_off_c, 0, 91, 49
1, 164911, Note_off_c, 0, 89, 63
1, 164930, Note_off_c, 0, 33, 46
1, 164963, Note_on_c, 0, 89, 85
1, 164966, Note_on_c, 0, 37, 90
1, 164969, Note_on_c, 0, 31, 72
1, 164972, Note_on_c, 0, 80, 105
1, 164978, Note_on_c, 0, 93, 88
1, 164981, Note_on_c, 0, 33, 61
1, 164982, Note_on_c, 0, 87, 68
1, 164989, Note_on_c, 0, 38, 74
1, 164990, Note_on_c, 0, 36, 51
1, 165001, Note_on_c, 0, 91, 40
1, 165009, Note_off_c, 0, 87, 63
1, 165021, Note_off_c, 0, 38, 63
1, 165025, Note_off_c, 0, 31, 61
1, 165026, Note_off_c, 0, 80, 63
1, 165028, Note_off_c, 0, 36, 49
1, 165029, Note_off_c, 0, 33, 42
1, 165033, Note_off_c, 0, 37, 54
1, 165040, Note_off_c, 0, 93, 62
1, 165045, Note_off_c, 0, 91, 43
1, 165064, Note_off_c, 0, 89, 61
1, 165097, Note_on_c, 0, 31, 85
1, 165101, Note_on_c, 0, 37, 80
1, 165112, Note_on_c, 0, 80, 111
1, 165114, Note_on_c, 0, 89, 77
1, 165118, Note_on_c, 0, 36, 72
1, 165121, Note_on_c, 0, 93, 86
1, 165127, Note_off_c, 0, 31, 68
1, 165131, Note_on_c, 0, 87, 68
1, 165139, Note_off_c, 0, 93, 70
1, 165140, Note_off_c, 0, 36, 62
1, 165142, Note_on_c, 0, 90, 47
1, 165142, Note_off_c, 0, 37, 65
1, 165142, Note_off_c, 0, 89, 65
1, 165148, Note_off_c, 0, 87, 66
1, 165155, Note_off_c, 0, 80, 63
1, 165162, Poly_aftertouch_c, 0, 33, 127
1, 165172, Note_off_c, 0, 90, 34
1, 165203, Poly_aftertouch_c, 0, 33, 0
1, 165264, Note_on_c, 0, 60, 106
1, 165267, Note_on_c, 0, 47, 102
1, 165274, Note_on_c, 0, 70, 95
1, 165275, Note_on_c, 0, 76, 91
1, 165297, Note_on_c, 0, 59, 47
1, 165298, Note_off_c, 0, 59, 127
1, 165388, Note_off_c, 0, 76, 46
1, 165425, Note_on_c, 0, 69, 95
1, 165426, Note_on_c, 0, 56, 96
1, 165444, Note_off_c, 0, 60, 61
1, 165449, Poly_aftertouch_c, 0, 50, 127
1, 165454, Note_off_c, 0, 70, 63
1, 165457, Note_off_c, 0, 47, 60
1, 165485, Note_off_c, 0, 56, 60
1, 165500, Poly_aftertouch_c, 0, 50, 0
1, 165515, Poly_aftertouch_c, 0, 53, 127
1, 165538, Poly_aftertouch_c, 0, 53, 0
1, 165577, Note_on_c, 0, 56, 107
1, 165577, Note_on_c, 0, 60, 104
1, 165577, Note_on_c, 0, 70, 96
1, 165578, Note_on_c, 0, 76, 94
1, 165580, Note_on_c, 0, 47, 102
1, 165586, Note_off_c, 0, 69, 65
1, 165597, Note_off_c, 0, 60, 70
1, 165605, Note_off_c, 0, 70, 68
1, 165607, Note_off_c, 0, 56, 69
1, 165611, Note_off_c, 0, 47, 67
1, 165618, Note_on_c, 0, 50, 33
1, 165619, Note_on_c, 0, 48, 31
1, 165620, Note_off_c, 0, 48, 127
1, 165620, Note_off_c, 0, 76, 70
1, 165652, Note_off_c, 0, 50, 46
1, 165664, Poly_aftertouch_c, 0, 48, 0
1, 165818, Control_c, 0, 64, 62
1, 165819, Note_on_c, 0, 80, 108
1, 165822, Note_on_c, 0, 93, 100
1, 165823, Note_on_c, 0, 89, 98
1, 165828, Note_on_c, 0, 36, 109
1, 165832, Note_on_c, 0, 29, 95
1, 165833, Control_c, 0, 64, 0
1, 165837, Note_on_c, 0, 35, 87
1, 165846, Note_on_c, 0, 87, 67
1, 165848, Note_off_c, 0, 36, 72
1, 165851, Note_off_c, 0, 29, 68
1, 165854, Note_off_c, 0, 93, 64
1, 165858, Note_off_c, 0, 35, 69
1, 165858, Note_off_c, 0, 80, 71
1, 165859, Note_on_c, 0, 91, 44
1, 165863, Note_off_c, 0, 87, 65
1, 165869, Note_off_c, 0, 89, 69
1, 165878, Note_on_c, 0, 34, 10
1, 165890, Note_off_c, 0, 91, 33
1, 165928, Note_off_c, 0, 34, 40
1, 165938, Poly_aftertouch_c, 0, 33, 0
1, 166153, Note_on_c, 0, 84, 104
1, 166154, Note_on_c, 0, 90, 105
1, 166155, Note_on_c, 0, 79, 104
1, 166167, Control_c, 0, 64, 127
1, 166170, Note_on_c, 0, 87, 62
1, 166182, Note_off_c, 0, 79, 68
1, 166192, Note_off_c, 0, 84, 67
1, 166193, Note_off_c, 0, 90, 65
1, 166194, Note_off_c, 0, 87, 64
1, 166300, Note_on_c, 0, 27, 67
1, 166386, Note_on_c, 0, 35, 74
1, 166420, Note_off_c, 0, 27, 61
1, 166447, Note_off_c, 0, 35, 63
1, 166456, Note_on_c, 0, 38, 64
1, 166490, Note_off_c, 0, 38, 64
1, 166552, Note_on_c, 0, 30, 66
1, 166576, Note_on_c, 0, 36, 56
1, 166595, Note_on_c, 0, 73, 109
1, 166596, Note_on_c, 0, 82, 99
1, 166596, Note_on_c, 0, 86, 96
1, 166613, Note_off_c, 0, 30, 61
1, 166614, Note_off_c, 0, 36, 62
1, 166616, Note_on_c, 0, 80, 65
1, 166620, Note_off_c, 0, 86, 63
1, 166621, Note_off_c, 0, 73, 71
1, 166631, Note_on_c, 0, 84, 43
1, 166632, Note_off_c, 0, 80, 68
1, 166637, Note_off_c, 0, 82, 68
1, 166638, Note_on_c, 0, 41, 78
1, 166659, Note_off_c, 0, 84, 58
1, 166677, Note_off_c, 0, 41, 65
1, 166743, Note_on_c, 0, 44, 65
1, 166835, Note_on_c, 0, 46, 71
1, 166843, Note_off_c, 0, 44, 62
1, 166895, Note_off_c, 0, 46, 62
1, 166903, Note_on_c, 0, 45, 67
1, 166940, Note_off_c, 0, 45, 64
1, 166963, Note_on_c, 0, 49, 79
1, 166973, Poly_aftertouch_c, 0, 70, 127
1, 166991, Control_c, 0, 64, 117
1, 167000, Note_off_c, 0, 49, 60
1, 167004, Poly_aftertouch_c, 0, 70, 0
1, 167006, Control_c, 0, 64, 38
1, 167020, Control_c, 0, 64, 0
1, 167023, Note_on_c, 0, 64, 102
1, 167026, Note_on_c, 0, 77, 92
1, 167032, Note_on_c, 0, 75, 88
1, 167044, Note_off_c, 0, 77, 70
1, 167050, Note_off_c, 0, 64, 67
1, 167052, Note_on_c, 0, 43, 69
1, 167063, Note_on_c, 0, 73, 35
1, 167065, Note_off_c, 0, 75, 61
1, 167097, Note_off_c, 0, 73, 33
1, 167104, Note_on_c, 0, 46, 80
1, 167109, Note_off_c, 0, 43, 62
1, 167136, Note_off_c, 0, 46, 65
1, 167259, Note_on_c, 0, 48, 69
1, 167294, Note_on_c, 0, 68, 102
1, 167295, Note_on_c, 0, 69, 97
1, 167297, Note_on_c, 0, 71, 93
1, 167302, Control_c, 0, 64, 127
1, 167316, Note_on_c, 0, 50, 56
1, 167325, Note_off_c, 0, 68, 69
1, 167331, Note_off_c, 0, 69, 71
1, 167336, Note_off_c, 0, 71, 67
1, 167340, Note_off_c, 0, 48, 60
1, 167358, Note_off_c, 0, 50, 62
1, 167360, Note_on_c, 0, 53, 67
1, 167366, Poly_aftertouch_c, 0, 70, 127
1, 167398, Poly_aftertouch_c, 0, 70, 0
1, 167415, Note_off_c, 0, 53, 62
1, 167431, Note_on_c, 0, 61, 61
1, 167455, Note_off_c, 0, 61, 64
1, 167494, Control_c, 0, 64, 81
1, 167502, Note_on_c, 0, 52, 66
1, 167509, Control_c, 0, 64, 0
1, 167560, Note_on_c, 0, 46, 65
1, 167606, Note_off_c, 0, 46, 57
1, 167628, Note_off_c, 0, 52, 36
1, 167637, Note_on_c, 0, 55, 64
1, 167661, Note_on_c, 0, 64, 105
1, 167665, Note_on_c, 0, 72, 89
1, 167666, Control_c, 0, 64, 66
1, 167667, Note_on_c, 0, 75, 93
1, 167671, Note_off_c, 0, 55, 65
1, 167679, Note_off_c, 0, 64, 71
1, 167681, Control_c, 0, 64, 127
1, 167688, Note_on_c, 0, 74, 56
1, 167697, Note_on_c, 0, 59, 71
1, 167698, Note_off_c, 0, 72, 66
1, 167700, Note_off_c, 0, 75, 66
1, 167708, Note_off_c, 0, 74, 65
1, 167738, Note_off_c, 0, 59, 57
1, 167771, Note_on_c, 0, 54, 67
1, 167799, Control_c, 0, 64, 77
1, 167807, Note_off_c, 0, 54, 60
1, 167814, Control_c, 0, 64, 0
1, 167842, Note_on_c, 0, 57, 69
1, 167869, Note_off_c, 0, 57, 67
1, 167907, Note_on_c, 0, 60, 60
1, 167932, Control_c, 0, 64, 29
1, 167937, Note_off_c, 0, 60, 64
1, 167947, Control_c, 0, 64, 127
1, 167949, Note_on_c, 0, 78, 103
1, 167953, Note_on_c, 0, 89, 93
1, 167958, Note_on_c, 0, 92, 93
1, 167971, Note_on_c, 0, 87, 69
1, 167973, Note_off_c, 0, 92, 74
1, 167974, Note_on_c, 0, 90, 54
1, 167977, Note_off_c, 0, 78, 71
1, 167979, Note_on_c, 0, 63, 46
1, 167983, Note_off_c, 0, 89, 63
1, 167989, Note_off_c, 0, 87, 65
1, 167991, Note_on_c, 0, 64, 51
1, 167998, Note_off_c, 0, 90, 41
1, 168008, Note_off_c, 0, 63, 37
1, 168015, Note_off_c, 0, 64, 59
1, 168047, Note_on_c, 0, 67, 66
1, 168076, Note_off_c, 0, 67, 62
1, 168110, Control_c, 0, 64, 52
1, 168123, Note_on_c, 0, 59, 72
1, 168125, Control_c, 0, 64, 0
1, 168165, Note_on_c, 0, 64, 68
1, 168184, Note_off_c, 0, 59, 60
1, 168212, Note_off_c, 0, 64, 64
1, 168236, Note_on_c, 0, 65, 45
1, 168241, Note_on_c, 0, 70, 69
1, 168263, Note_off_c, 0, 70, 68
1, 168265, Note_off_c, 0, 65, 54
1, 168299, Note_on_c, 0, 62, 70
1, 168353, Note_off_c, 0, 62, 61
1, 168367, Note_on_c, 0, 65, 59
1, 168385, Control_c, 0, 64, 63
1, 168400, Control_c, 0, 64, 127
1, 168403, Note_on_c, 0, 70, 97
1, 168405, Note_on_c, 0, 83, 94
1, 168408, Note_off_c, 0, 65, 56
1, 168410, Note_on_c, 0, 81, 91
1, 168427, Note_on_c, 0, 61, 82
1, 168429, Note_off_c, 0, 70, 73
1, 168434, Note_on_c, 0, 79, 51
1, 168438, Note_off_c, 0, 83, 63
1, 168446, Note_off_c, 0, 81, 64
1, 168456, Note_off_c, 0, 79, 59
1, 168488, Note_off_c, 0, 61, 64
1, 168495, Note_on_c, 0, 63, 77
1, 168531, Note_off_c, 0, 63, 62
1, 168553, Note_on_c, 0, 68, 63
1, 168572, Note_off_c, 0, 68, 67
1, 168607, Control_c, 0, 64, 63
1, 168617, Note_on_c, 0, 62, 74
1, 168622, Control_c, 0, 64, 0
1, 168679, Note_off_c, 0, 62, 61
1, 168740, Note_on_c, 0, 70, 72
1, 168762, Note_off_c, 0, 70, 70
1, 168785, Control_c, 0, 64, 69
1, 168791, Note_on_c, 0, 97, 101
1, 168793, Note_on_c, 0, 91, 96
1, 168794, Note_on_c, 0, 86, 104
1, 168798, Note_on_c, 0, 71, 68
1, 168800, Control_c, 0, 64, 127
1, 168818, Note_off_c, 0, 86, 64
1, 168822, Note_off_c, 0, 91, 67
1, 168823, Note_off_c, 0, 71, 65
1, 168824, Note_on_c, 0, 93, 46
1, 168826, Note_off_c, 0, 97, 64
1, 168851, Note_off_c, 0, 93, 36
1, 168860, Note_on_c, 0, 75, 66
1, 168880, Note_off_c, 0, 75, 68
1, 168915, Note_on_c, 0, 78, 85
1, 168963, Control_c, 0, 64, 66
1, 168965, Note_off_c, 0, 78, 62
1, 168978, Note_on_c, 0, 81, 86
1, 168978, Control_c, 0, 64, 0
1, 168988, Note_off_c, 0, 81, 72
1, 168993, Note_on_c, 0, 79, 23
1, 168999, Note_off_c, 0, 79, 50
1, 169125, Note_on_c, 0, 72, 85
1, 169130, Note_on_c, 0, 68, 86
1, 169145, Note_off_c, 0, 72, 70
1, 169146, Note_off_c, 0, 68, 73
1, 169256, Note_on_c, 0, 38, 93
1, 169280, Note_off_c, 0, 38, 72
1, 169366, Poly_aftertouch_c, 0, 78, 0
1, 169406, Note_on_c, 0, 73, 70
1, 169431, Note_off_c, 0, 73, 67
1, 169537, Note_on_c, 0, 86, 57
1, 169539, Note_on_c, 0, 76, 71
1, 169563, Note_off_c, 0, 76, 70
1, 169582, Note_off_c, 0, 86, 57
1, 169604, Note_on_c, 0, 82, 58
1, 169660, Note_off_c, 0, 82, 41
1, 169664, Note_on_c, 0, 67, 55
1, 169677, Note_on_c, 0, 88, 66
1, 169687, Note_off_c, 0, 67, 59
1, 169718, Note_off_c, 0, 88, 61
1, 169755, Note_on_c, 0, 83, 42
1, 169782, Note_off_c, 0, 83, 53
1, 169806, Note_on_c, 0, 58, 61
1, 169822, Note_on_c, 0, 80, 61
1, 169827, Note_off_c, 0, 58, 64
1, 169840, Note_off_c, 0, 80, 64
1, 169873, Note_on_c, 0, 78, 67
1, 169898, Note_off_c, 0, 78, 68
1, 169941, Note_on_c, 0, 78, 79
1, 169950, Note_on_c, 0, 91, 76
1, 169959, Note_off_c, 0, 78, 71
1, 170010, Note_on_c, 0, 87, 66
1, 170016, Note_off_c, 0, 91, 54
1, 170077, Note_on_c, 0, 84, 44
1, 170089, Note_off_c, 0, 87, 61
1, 170092, Note_on_c, 0, 63, 74
1, 170101, Note_off_c, 0, 84, 57
1, 170114, Note_off_c, 0, 63, 70
1, 170134, Note_on_c, 0, 81, 58
1, 170154, Note_off_c, 0, 81, 62
1, 170202, Note_on_c, 0, 94, 83
1, 170263, Note_off_c, 0, 94, 60
1, 170288, Note_on_c, 0, 90, 52
1, 170317, Note_off_c, 0, 90, 60
1, 170341, Note_on_c, 0, 81, 54
1, 170350, Note_on_c, 0, 72, 47
1, 170374, Note_off_c, 0, 72, 58
1, 170377, Note_off_c, 0, 81, 52
1, 170412, Note_on_c, 0, 85, 54
1, 170442, Note_off_c, 0, 85, 64
1, 170472, Note_on_c, 0, 80, 72
1, 170483, Note_on_c, 0, 79, 53
1, 170494, Note_off_c, 0, 80, 69
1, 170516, Note_off_c, 0, 79, 55
1, 170559, Note_on_c, 0, 84, 57
1, 170592, Note_off_c, 0, 84, 61
1, 170630, Note_on_c, 0, 87, 47
1, 170643, Note_on_c, 0, 69, 12
1, 170674, Note_off_c, 0, 87, 59
1, 170688, Note_on_c, 0, 89, 48
1, 170690, Note_off_c, 0, 69, 41
1, 170710, Note_off_c, 0, 89, 60
1, 170755, Note_on_c, 0, 67, 62
1, 170755, Note_on_c, 0, 88, 72
1, 170782, Note_off_c, 0, 67, 67
1, 170787, Note_off_c, 0, 88, 62
1, 170823, Note_on_c, 0, 92, 69
1, 170858, Note_off_c, 0, 92, 60
1, 170889, Note_on_c, 0, 76, 48
1, 170892, Note_on_c, 0, 95, 41
1, 170913, Note_off_c, 0, 76, 57
1, 170934, Note_off_c, 0, 95, 49
1, 170949, Note_on_c, 0, 98, 58
1, 170994, Note_off_c, 0, 98, 66
1, 171007, Note_on_c, 0, 90, 90
1, 171023, Note_on_c, 0, 89, 63
1, 171036, Note_off_c, 0, 90, 65
1, 171065, Note_off_c, 0, 89, 64
1, 171071, Note_on_c, 0, 93, 72
1, 171153, Note_on_c, 0, 102, 81
1, 171165, Note_on_c, 0, 86, 66
1, 171168, Note_off_c, 0, 93, 53
1, 171182, Note_off_c, 0, 86, 64
1, 171230, Note_on_c, 0, 98, 51
1, 171242, Note_off_c, 0, 102, 65
1, 171274, Note_off_c, 0, 98, 59
1, 171289, Note_on_c, 0, 92, 85
1, 171292, Note_on_c, 0, 77, 57
1, 171313, Note_off_c, 0, 77, 61
1, 171320, Note_off_c, 0, 92, 64
1, 171433, Note_on_c, 0, 81, 71
1, 171446, Note_on_c, 0, 89, 67
1, 171457, Note_off_c, 0, 81, 68
1, 171494, Note_off_c, 0, 89, 64
1, 171500, Note_on_c, 0, 93, 71
1, 171570, Note_on_c, 0, 102, 75
1, 171581, Note_on_c, 0, 68, 55
1, 171596, Note_off_c, 0, 93, 55
1, 171603, Note_off_c, 0, 68, 60
1, 171615, Note_on_c, 0, 98, 53
1, 171664, Note_off_c, 0, 102, 65
1, 171681, Note_on_c, 0, 92, 80
1, 171697, Note_on_c, 0, 75, 47
1, 171700, Note_off_c, 0, 98, 61
1, 171709, Note_off_c, 0, 92, 64
1, 171724, Note_off_c, 0, 75, 57
1, 171828, Note_on_c, 0, 89, 77
1, 171833, Note_on_c, 0, 71, 77
1, 171858, Note_off_c, 0, 71, 67
1, 171877, Note_off_c, 0, 89, 65
1, 171879, Note_on_c, 0, 93, 71
1, 171959, Note_on_c, 0, 61, 69
1, 171966, Note_on_c, 0, 102, 75
1, 171975, Note_off_c, 0, 93, 56
1, 171983, Note_off_c, 0, 61, 67
1, 172045, Note_off_c, 0, 102, 66
1, 172048, Note_on_c, 0, 98, 54
1, 172102, Note_on_c, 0, 60, 81
1, 172105, Note_on_c, 0, 92, 84
1, 172120, Note_off_c, 0, 98, 60
1, 172133, Note_off_c, 0, 60, 64
1, 172135, Note_off_c, 0, 92, 59
1, 172177, Note_on_c, 0, 99, 77
1, 172210, Poly_aftertouch_c, 0, 51, 0
1, 172226, Note_on_c, 0, 52, 71
1, 172237, Note_on_c, 0, 96, 79
1, 172254, Note_off_c, 0, 52, 69
1, 172256, Poly_aftertouch_c, 0, 98, 127
1, 172257, Note_on_c, 0, 98, 3
1, 172277, Note_off_c, 0, 99, 62
1, 172291, Note_off_c, 0, 98, 54
1, 172299, Note_on_c, 0, 94, 79
1, 172320, Note_off_c, 0, 96, 62
1, 172332, Note_off_c, 0, 94, 61
1, 172358, Note_on_c, 0, 43, 87
1, 172359, Note_on_c, 0, 95, 91
1, 172404, Note_on_c, 0, 34, 29
1, 172404, Note_off_c, 0, 43, 62
1, 172428, Note_on_c, 0, 103, 87
1, 172436, Note_off_c, 0, 95, 59
1, 172454, Note_off_c, 0, 34, 0
1, 172469, Note_on_c, 0, 34, 59
1, 172492, Note_on_c, 0, 101, 26
1, 172497, Note_on_c, 0, 100, 72
1, 172517, Note_off_c, 0, 34, 65
1, 172549, Note_off_c, 0, 103, 48
1, 172551, Note_on_c, 0, 97, 84
1, 172559, Note_off_c, 0, 101, 49
1, 172576, Note_off_c, 0, 100, 60
1, 172615, Note_off_c, 0, 97, 64
1, 172660, Note_on_c, 0, 21, 112
1, 172666, Note_on_c, 0, 91, 100
1, 172668, Note_on_c, 0, 104, 104
1, 172676, Control_c, 0, 64, 38
1, 172684, Note_on_c, 0, 23, 71
1, 172687, Note_on_c, 0, 102, 67
1, 172691, Control_c, 0, 64, 127
1, 172710, Note_off_c, 0, 102, 66
1, 172745, Poly_aftertouch_c, 0, 24, 127
1, 172827, Note_off_c, 0, 91, 49
1, 172830, Note_off_c, 0, 21, 60
1, 172836, Note_on_c, 0, 26, 52
1, 172852, Note_on_c, 0, 100, 81
1, 172855, Note_off_c, 0, 104, 35
1, 172856, Note_off_c, 0, 23, 38
1, 172866, Poly_aftertouch_c, 0, 24, 0
1, 172875, Note_off_c, 0, 26, 45
1, 172922, Note_off_c, 0, 100, 51
1, 172944, Poly_aftertouch_c, 0, 101, 0
1, 172984, Note_on_c, 0, 37, 95
1, 173048, Note_off_c, 0, 37, 60
1, 173110, Note_on_c, 0, 27, 73
1, 173129, Note_on_c, 0, 104, 96
1, 173134, Note_on_c, 0, 91, 86
1, 173181, Note_off_c, 0, 27, 62
1, 173257, Note_on_c, 0, 24, 94
1, 173266, Note_off_c, 0, 104, 38
1, 173268, Note_on_c, 0, 100, 75
1, 173277, Control_c, 0, 64, 67
1, 173290, Note_off_c, 0, 100, 65
1, 173292, Control_c, 0, 64, 0
1, 173295, Note_off_c, 0, 91, 61
1, 173412, Note_on_c, 0, 30, 81
1, 173412, Note_on_c, 0, 86, 86
1, 173415, Note_on_c, 0, 73, 92
1, 173439, Note_off_c, 0, 86, 63
1, 173456, Note_off_c, 0, 73, 59
1, 173511, Note_off_c, 0, 30, 61
1, 173537, Note_off_c, 0, 24, 59
1, 173548, Note_on_c, 0, 35, 81
1, 173564, Note_on_c, 0, 73, 96
1, 173568, Note_on_c, 0, 86, 87
1, 173573, Note_off_c, 0, 35, 67
1, 173587, Note_off_c, 0, 86, 69
1, 173596, Note_on_c, 0, 80, 36
1, 173603, Note_off_c, 0, 73, 56
1, 173612, Note_off_c, 0, 80, 39
1, 173694, Note_on_c, 0, 41, 91
1, 173705, Note_on_c, 0, 73, 89
1, 173707, Note_on_c, 0, 86, 77
1, 173720, Note_off_c, 0, 41, 68
1, 173726, Note_on_c, 0, 80, 41
1, 173729, Note_off_c, 0, 86, 67
1, 173732, Note_on_c, 0, 84, 40
1, 173747, Note_off_c, 0, 73, 56
1, 173755, Note_off_c, 0, 80, 57
1, 173762, Note_off_c, 0, 84, 33
1, 173823, Note_on_c, 0, 44, 98
1, 173840, Note_on_c, 0, 73, 94
1, 173842, Note_on_c, 0, 86, 89
1, 173844, Note_on_c, 0, 34, 63
1, 173844, Note_on_c, 0, 75, 89
1, 173847, Control_c, 0, 64, 127
1, 173855, Note_on_c, 0, 84, 48
1, 173863, Note_on_c, 0, 83, 50
1, 173870, Note_off_c, 0, 75, 57
1, 173877, Note_off_c, 0, 34, 65
1, 173891, Note_off_c, 0, 84, 49
1, 173894, Note_off_c, 0, 73, 58
1, 173894, Note_off_c, 0, 86, 61
1, 173895, Note_off_c, 0, 83, 48
1, 173974, Note_on_c, 0, 34, 84
1, 173975, Note_off_c, 0, 44, 64
1, 173982, Note_on_c, 0, 38, 29
1, 173983, Note_on_c, 0, 75, 95
1, 173985, Note_on_c, 0, 86, 86
1, 173992, Note_on_c, 0, 73, 82
1, 174007, Note_off_c, 0, 34, 67
1, 174023, Note_off_c, 0, 73, 56
1, 174025, Note_off_c, 0, 75, 60
1, 174030, Note_off_c, 0, 38, 49
1, 174035, Note_off_c, 0, 86, 63
1, 174121, Note_on_c, 0, 33, 84
1, 174131, Note_on_c, 0, 73, 87
1, 174135, Note_on_c, 0, 75, 81
1, 174136, Note_on_c, 0, 86, 79
1, 174159, Note_off_c, 0, 75, 67
1, 174160, Note_off_c, 0, 86, 62
1, 174168, Note_off_c, 0, 33, 66
1, 174171, Note_on_c, 0, 84, 38
1, 174175, Note_off_c, 0, 73, 63
1, 174199, Poly_aftertouch_c, 0, 30, 127
1, 174201, Note_off_c, 0, 84, 54
1, 174218, Control_c, 0, 64, 111
1, 174229, Poly_aftertouch_c, 0, 80, 0
1, 174233, Control_c, 0, 64, 38
1, 174236, Poly_aftertouch_c, 0, 30, 0
1, 174248, Control_c, 0, 64, 0
1, 174261, Note_on_c, 0, 86, 85
1, 174263, Note_on_c, 0, 21, 86
1, 174302, Note_off_c, 0, 86, 65
1, 174316, Note_off_c, 0, 21, 61
1, 174401, Note_on_c, 0, 26, 88
1, 174414, Note_on_c, 0, 91, 95
1, 174414, Note_on_c, 0, 104, 100
1, 174455, Note_on_c, 0, 102, 21
1, 174468, Note_off_c, 0, 91, 53
1, 174515, Note_off_c, 0, 26, 57
1, 174515, Note_off_c, 0, 102, 42
1, 174532, Note_on_c, 0, 29, 62
1, 174553, Note_off_c, 0, 104, 0
1, 174564, Note_on_c, 0, 100, 92
1, 174578, Note_on_c, 0, 104, 23
1, 174583, Note_off_c, 0, 29, 64
1, 174607, Note_off_c, 0, 104, 49
1, 174621, Note_off_c, 0, 100, 60
1, 174677, Note_on_c, 0, 100, 88
1, 174684, Note_on_c, 0, 37, 82
1, 174726, Note_off_c, 0, 37, 63
1, 174735, Note_on_c, 0, 27, 10
1, 174763, Note_off_c, 0, 100, 55
1, 174767, Note_off_c, 0, 27, 38
1, 174816, Note_on_c, 0, 27, 83
1, 174817, Note_on_c, 0, 104, 95
1, 174820, Note_on_c, 0, 91, 91
1, 174855, Note_off_c, 0, 91, 62
1, 174857, Note_off_c, 0, 104, 61
1, 174864, Note_off_c, 0, 27, 64
1, 174949, Note_on_c, 0, 40, 90
1, 174955, Note_on_c, 0, 82, 107
1, 174962, Note_on_c, 0, 95, 89
1, 174966, Note_on_c, 0, 93, 79
1, 174973, Note_off_c, 0, 82, 67
1, 174981, Note_off_c, 0, 95, 71
1, 174982, Note_off_c, 0, 93, 66
1, 175006, Note_off_c, 0, 40, 62
1, 175091, Note_on_c, 0, 29, 79
1, 175123, Note_on_c, 0, 28, 39
1, 175147, Note_off_c, 0, 29, 59
1, 175167, Note_off_c, 0, 28, 31
1, 175228, Note_on_c, 0, 24, 93
1, 175241, Note_on_c, 0, 82, 107
1, 175241, Note_on_c, 0, 95, 99
1, 175253, Note_on_c, 0, 28, 54
1, 175256, Control_c, 0, 64, 85
1, 175271, Control_c, 0, 64, 127
1, 175310, Note_off_c, 0, 28, 41
1, 175328, Poly_aftertouch_c, 0, 83, 127
1, 175330, Poly_aftertouch_c, 0, 93, 127
1, 175355, Poly_aftertouch_c, 0, 83, 0
1, 175371, Note_on_c, 0, 89, 83
1, 175372, Note_on_c, 0, 30, 87
1, 175384, Note_off_c, 0, 95, 63
1, 175393, Note_off_c, 0, 82, 57
1, 175411, Poly_aftertouch_c, 0, 93, 0
1, 175414, Note_off_c, 0, 89, 64
1, 175441, Poly_aftertouch_c, 0, 28, 127
1, 175503, Note_on_c, 0, 35, 90
1, 175522, Note_off_c, 0, 30, 64
1, 175524, Note_off_c, 0, 24, 65
1, 175536, Note_off_c, 0, 35, 68
1, 175561, Poly_aftertouch_c, 0, 28, 0
1, 175602, Poly_aftertouch_c, 0, 85, 127
1, 175628, Poly_aftertouch_c, 0, 85, 0
1, 175639, Poly_aftertouch_c, 0, 75, 0
1, 175655, Note_on_c, 0, 44, 95
1, 175657, Note_on_c, 0, 73, 100
1, 175658, Note_on_c, 0, 86, 88
1, 175681, Note_on_c, 0, 34, 56
1, 175695, Note_off_c, 0, 86, 64
1, 175696, Note_off_c, 0, 73, 62
1, 175709, Note_off_c, 0, 34, 59
1, 175760, Poly_aftertouch_c, 0, 83, 0
1, 175800, Note_on_c, 0, 34, 91
1, 175812, Note_on_c, 0, 73, 96
1, 175812, Note_off_c, 0, 44, 66
1, 175815, Note_on_c, 0, 86, 85
1, 175821, Note_on_c, 0, 75, 76
1, 175836, Note_off_c, 0, 75, 66
1, 175838, Note_off_c, 0, 86, 60
1, 175839, Note_off_c, 0, 34, 65
1, 175846, Note_off_c, 0, 73, 65
1, 175857, Control_c, 0, 64, 83
1, 175872, Control_c, 0, 64, 0
1, 175945, Note_on_c, 0, 31, 92
1, 175946, Note_on_c, 0, 73, 94
1, 175948, Note_on_c, 0, 75, 83
1, 175952, Note_on_c, 0, 86, 83
1, 175973, Note_on_c, 0, 85, 35
1, 175981, Note_off_c, 0, 75, 51
1, 175987, Note_on_c, 0, 84, 23
1, 175989, Note_off_c, 0, 73, 60
1, 175989, Note_off_c, 0, 86, 63
1, 175990, Note_off_c, 0, 31, 64
1, 176007, Note_off_c, 0, 85, 45
1, 176024, Note_off_c, 0, 84, 49
1, 176064, Control_c, 0, 64, 29
1, 176079, Note_on_c, 0, 21, 93
1, 176079, Control_c, 0, 64, 127
1, 176087, Note_on_c, 0, 75, 104
1, 176093, Note_on_c, 0, 86, 89
1, 176096, Note_on_c, 0, 73, 89
1, 176106, Note_on_c, 0, 84, 46
1, 176124, Note_on_c, 0, 83, 34
1, 176133, Note_off_c, 0, 75, 56
1, 176135, Note_on_c, 0, 23, 4
1, 176136, Note_off_c, 0, 84, 50
1, 176140, Note_off_c, 0, 73, 59
1, 176141, Note_off_c, 0, 86, 60
1, 176153, Note_off_c, 0, 83, 53
1, 176216, Note_on_c, 0, 29, 80
1, 176224, Note_on_c, 0, 75, 105
1, 176227, Note_on_c, 0, 86, 87
1, 176237, Note_on_c, 0, 73, 80
1, 176244, Note_off_c, 0, 21, 60
1, 176252, Note_on_c, 0, 84, 36
1, 176258, Note_off_c, 0, 23, 19
1, 176261, Note_off_c, 0, 73, 57
1, 176264, Note_off_c, 0, 75, 61
1, 176271, Note_off_c, 0, 29, 62
1, 176274, Note_off_c, 0, 86, 60
1, 176287, Note_off_c, 0, 84, 51
1, 176327, Poly_aftertouch_c, 0, 83, 0
1, 176364, Note_on_c, 0, 75, 106
1, 176370, Note_on_c, 0, 86, 93
1, 176371, Note_on_c, 0, 38, 87
1, 176371, Note_on_c, 0, 73, 89
1, 176374, Note_on_c, 0, 84, 65
1, 176400, Note_off_c, 0, 38, 66
1, 176410, Note_on_c, 0, 83, 4
1, 176414, Note_off_c, 0, 75, 58
1, 176416, Note_off_c, 0, 84, 46
1, 176419, Note_off_c, 0, 73, 61
1, 176419, Note_off_c, 0, 86, 61
1, 176457, Note_off_c, 0, 83, 38
1, 176502, Note_on_c, 0, 75, 94
1, 176508, Note_on_c, 0, 73, 91
1, 176509, Note_on_c, 0, 86, 88
1, 176511, Note_on_c, 0, 35, 66
1, 176541, Note_on_c, 0, 84, 30
1, 176546, Note_on_c, 0, 39, 32
1, 176550, Note_off_c, 0, 35, 63
1, 176553, Note_on_c, 0, 33, 25
1, 176557, Note_off_c, 0, 73, 62
1, 176561, Note_off_c, 0, 86, 61
1, 176562, Note_off_c, 0, 75, 63
1, 176577, Note_off_c, 0, 84, 53
1, 176585, Note_off_c, 0, 39, 44
1, 176595, Note_off_c, 0, 33, 49
1, 176613, Poly_aftertouch_c, 0, 83, 0
1, 176645, Note_on_c, 0, 75, 100
1, 176648, Note_on_c, 0, 44, 91
1, 176648, Note_on_c, 0, 86, 100
1, 176651, Note_on_c, 0, 73, 89
1, 176667, Note_on_c, 0, 80, 54
1, 176667, Note_on_c, 0, 84, 48
1, 176699, Note_off_c, 0, 44, 61
1, 176701, Note_off_c, 0, 80, 48
1, 176702, Note_off_c, 0, 84, 48
1, 176724, Note_off_c, 0, 73, 57
1, 176726, Note_off_c, 0, 75, 57
1, 176751, Poly_aftertouch_c, 0, 42, 0
1, 176771, Note_on_c, 0, 53, 88
1, 176786, Note_on_c, 0, 84, 88
1, 176790, Note_off_c, 0, 53, 73
1, 176811, Note_off_c, 0, 86, 60
1, 176827, Note_off_c, 0, 84, 67
1, 176877, Poly_aftertouch_c, 0, 52, 0
1, 176926, Note_on_c, 0, 67, 95
1, 176926, Note_on_c, 0, 90, 97
1, 176928, Note_on_c, 0, 65, 87
1, 176931, Note_on_c, 0, 93, 81
1, 176932, Note_on_c, 0, 91, 82
1, 176943, Note_off_c, 0, 65, 73
1, 176945, Note_on_c, 0, 64, 61
1, 176955, Note_off_c, 0, 67, 67
1, 176958, Note_on_c, 0, 61, 36
1, 176959, Note_off_c, 0, 61, 127
1, 176959, Note_off_c, 0, 93, 58
1, 176962, Note_off_c, 0, 91, 53
1, 176965, Note_off_c, 0, 90, 66
1, 176965, Note_off_c, 0, 64, 65
1, 177060, Note_on_c, 0, 67, 73
1, 177062, Note_on_c, 0, 63, 73
1, 177063, Note_on_c, 0, 93, 92
1, 177066, Note_on_c, 0, 65, 63
1, 177067, Note_on_c, 0, 90, 97
1, 177077, Note_off_c, 0, 67, 66
1, 177086, Note_off_c, 0, 63, 69
1, 177091, Note_off_c, 0, 65, 60
1, 177096, Note_off_c, 0, 90, 60
1, 177103, Note_off_c, 0, 93, 64
1, 177156, Control_c, 0, 64, 64
1, 177160, Poly_aftertouch_c, 0, 61, 0
1, 177171, Control_c, 0, 64, 0
1, 177204, Note_on_c, 0, 21, 101
1, 177207, Note_on_c, 0, 91, 99
1, 177207, Note_on_c, 0, 104, 102
1, 177215, Control_c, 0, 64, 35
1, 177221, Note_on_c, 0, 102, 76
1, 177224, Note_on_c, 0, 97, 70
1, 177230, Control_c, 0, 64, 79
1, 177243, Note_off_c, 0, 97, 66
1, 177245, Control_c, 0, 64, 127
1, 177246, Note_off_c, 0, 102, 69
1, 177248, Note_off_c, 0, 21, 61
1, 177257, Note_off_c, 0, 91, 59
1, 177289, Note_off_c, 0, 104, 59
1, 177349, Note_on_c, 0, 30, 92
1, 177353, Note_on_c, 0, 100, 92
1, 177383, Note_off_c, 0, 30, 65
1, 177399, Note_on_c, 0, 99, 17
1, 177404, Note_off_c, 0, 99, 39
1, 177406, Note_off_c, 0, 100, 64
1, 177466, Note_on_c, 0, 27, 84
1, 177476, Note_on_c, 0, 100, 92
1, 177507, Note_on_c, 0, 25, 18
1, 177523, Note_off_c, 0, 27, 64
1, 177546, Note_off_c, 0, 100, 58
1, 177552, Note_off_c, 0, 25, 38
1, 177603, Note_on_c, 0, 91, 95
1, 177603, Note_on_c, 0, 104, 95
1, 177614, Note_on_c, 0, 35, 73
1, 177614, Note_on_c, 0, 36, 80
1, 177617, Note_on_c, 0, 102, 69
1, 177622, Note_off_c, 0, 104, 68
1, 177635, Note_on_c, 0, 97, 37
1, 177636, Note_off_c, 0, 102, 65
1, 177639, Note_off_c, 0, 36, 66
1, 177645, Note_off_c, 0, 91, 61
1, 177650, Note_off_c, 0, 35, 66
1, 177671, Note_off_c, 0, 97, 53
1, 177735, Note_on_c, 0, 82, 101
1, 177737, Note_on_c, 0, 27, 99
1, 177739, Note_on_c, 0, 95, 94
1, 177754, Note_off_c, 0, 95, 74
1, 177757, Note_off_c, 0, 82, 61
1, 177793, Note_off_c, 0, 27, 62
1, 177871, Note_on_c, 0, 37, 93
1, 177892, Note_on_c, 0, 29, 24
1, 177916, Note_off_c, 0, 37, 64
1, 177937, Note_off_c, 0, 29, 40
1, 177979, Control_c, 0, 64, 89
1, 177994, Control_c, 0, 64, 0
1, 178004, Note_on_c, 0, 95, 101
1, 178005, Note_on_c, 0, 82, 116
1, 178007, Note_on_c, 0, 21, 87
1, 178016, Note_on_c, 0, 23, 76
1, 178033, Note_on_c, 0, 92, 51
1, 178045, Control_c, 0, 64, 26
1, 178047, Note_on_c, 0, 89, 44
1, 178053, Note_on_c, 0, 81, 46
1, 178060, Control_c, 0, 64, 81
1, 178073, Note_off_c, 0, 21, 61
1, 178074, Note_off_c, 0, 89, 57
1, 178075, Control_c, 0, 64, 127
1, 178078, Note_off_c, 0, 81, 57
1, 178114, Poly_aftertouch_c, 0, 93, 127
1, 178140, Note_on_c, 0, 30, 88
1, 178142, Note_on_c, 0, 89, 85
1, 178146, Note_off_c, 0, 82, 60
1, 178158, Poly_aftertouch_c, 0, 25, 127
1, 178170, Note_off_c, 0, 23, 53
1, 178170, Note_off_c, 0, 95, 64
1, 178182, Note_off_c, 0, 89, 64
1, 178198, Poly_aftertouch_c, 0, 25, 0
1, 178199, Note_off_c, 0, 92, 45
1, 178203, Poly_aftertouch_c, 0, 93, 0
1, 178212, Note_off_c, 0, 30, 62
1, 178266, Note_on_c, 0, 26, 85
1, 178289, Note_on_c, 0, 24, 65
1, 178299, Note_on_c, 0, 28, 60
1, 178322, Note_off_c, 0, 24, 58
1, 178334, Note_off_c, 0, 26, 62
1, 178335, Note_off_c, 0, 28, 57
1, 178391, Note_on_c, 0, 36, 94
1, 178407, Note_on_c, 0, 104, 95
1, 178408, Note_on_c, 0, 91, 101
1, 178414, Note_on_c, 0, 29, 42
1, 178419, Note_on_c, 0, 102, 79
1, 178423, Note_on_c, 0, 97, 62
1, 178423, Note_on_c, 0, 99, 66
1, 178443, Note_off_c, 0, 97, 64
1, 178444, Note_off_c, 0, 102, 67
1, 178446, Note_off_c, 0, 36, 65
1, 178450, Note_off_c, 0, 99, 66
1, 178455, Note_off_c, 0, 29, 44
1, 178459, Note_on_c, 0, 25, 3
1, 178465, Note_off_c, 0, 91, 59
1, 178468, Note_off_c, 0, 104, 61
1, 178497, Note_off_c, 0, 25, 34
1, 178529, Note_on_c, 0, 27, 96
1, 178530, Note_on_c, 0, 100, 99
1, 178606, Note_off_c, 0, 27, 61
1, 178606, Poly_aftertouch_c, 0, 29, 127
1, 178629, Note_off_c, 0, 100, 53
1, 178652, Poly_aftertouch_c, 0, 29, 0
1, 178660, Note_on_c, 0, 37, 100
1, 178664, Note_on_c, 0, 104, 100
1, 178667, Note_on_c, 0, 29, 38
1, 178670, Note_on_c, 0, 91, 76
1, 178681, Note_on_c, 0, 93, 70
1, 178696, Note_off_c, 0, 104, 59
1, 178699, Note_off_c, 0, 93, 63
1, 178703, Note_off_c, 0, 91, 62
1, 178711, Note_off_c, 0, 37, 65
1, 178724, Note_off_c, 0, 29, 42
1, 178779, Control_c, 0, 64, 88
1, 178794, Control_c, 0, 64, 0
1, 178804, Note_on_c, 0, 95, 100
1, 178805, Note_on_c, 0, 21, 97
1, 178806, Note_on_c, 0, 82, 107
1, 178824, Note_on_c, 0, 24, 64
1, 178824, Control_c, 0, 64, 21
1, 178839, Control_c, 0, 64, 79
1, 178843, Note_on_c, 0, 92, 38
1, 178853, Note_on_c, 0, 29, 3
1, 178853, Control_c, 0, 64, 127
1, 178855, Note_on_c, 0, 81, 29
1, 178873, Note_off_c, 0, 24, 45
1, 178893, Note_off_c, 0, 81, 50
1, 178899, Note_off_c, 0, 29, 48
1, 178927, Note_on_c, 0, 89, 89
1, 178941, Note_on_c, 0, 30, 93
1, 178942, Poly_aftertouch_c, 0, 26, 127
1, 178954, Note_off_c, 0, 82, 59
1, 178955, Note_off_c, 0, 95, 66
1, 178980, Note_off_c, 0, 21, 60
1, 178990, Poly_aftertouch_c, 0, 26, 0
1, 178995, Note_off_c, 0, 89, 63
1, 179002, Note_off_c, 0, 92, 41
1, 179028, Note_off_c, 0, 30, 61
1, 179061, Note_on_c, 0, 26, 99
1, 179125, Note_off_c, 0, 26, 62
1, 179171, Poly_aftertouch_c, 0, 93, 0
1, 179182, Note_on_c, 0, 36, 110
1, 179189, Note_on_c, 0, 82, 108
1, 179191, Note_on_c, 0, 95, 100
1, 179200, Note_on_c, 0, 29, 46
1, 179204, Note_on_c, 0, 91, 62
1, 179210, Note_on_c, 0, 93, 51
1, 179240, Note_off_c, 0, 29, 47
1, 179240, Note_off_c, 0, 91, 46
1, 179246, Note_off_c, 0, 36, 64
1, 179319, Note_on_c, 0, 27, 103
1, 179323, Note_on_c, 0, 89, 92
1, 179326, Note_off_c, 0, 82, 41
1, 179338, Note_on_c, 0, 29, 44
1, 179343, Note_off_c, 0, 93, 0
1, 179362, Note_on_c, 0, 91, 50
1, 179362, Note_on_c, 0, 93, 14
1, 179362, Note_off_c, 0, 95, 65
1, 179370, Note_off_c, 0, 89, 69
1, 179371, Note_off_c, 0, 29, 50
1, 179388, Note_off_c, 0, 91, 52
1, 179392, Note_off_c, 0, 93, 44
1, 179435, Note_off_c, 0, 27, 40
1, 179449, Note_on_c, 0, 37, 115
1, 179454, Note_on_c, 0, 29, 58
1, 179498, Note_off_c, 0, 29, 59
1, 179501, Note_off_c, 0, 37, 67
1, 179557, Note_on_c, 0, 104, 20
1, 179583, Note_on_c, 0, 21, 102
1, 179607, Note_off_c, 0, 104, 28
1, 179620, Note_on_c, 0, 24, 45
1, 179627, Note_on_c, 0, 26, 35
1, 179632, Note_on_c, 0, 23, 34
1, 179651, Note_off_c, 0, 21, 62
1, 179652, Note_off_c, 0, 26, 60
1, 179672, Note_off_c, 0, 24, 44
1, 179678, Note_off_c, 0, 23, 43
1, 179713, Note_on_c, 0, 104, 102
1, 179716, Note_on_c, 0, 91, 103
1, 179718, Note_on_c, 0, 30, 100
1, 179731, Note_on_c, 0, 102, 69
1, 179732, Note_on_c, 0, 93, 60
1, 179735, Note_on_c, 0, 100, 59
1, 179741, Note_on_c, 0, 26, 48
1, 179742, Note_on_c, 0, 97, 45
1, 179748, Note_on_c, 0, 103, 44
1, 179752, Note_on_c, 0, 21, 23
1, 179760, Note_off_c, 0, 100, 57
1, 179764, Note_off_c, 0, 93, 35
1, 179775, Note_off_c, 0, 97, 34
1, 179778, Note_off_c, 0, 21, 49
1, 179781, Note_off_c, 0, 102, 43
1, 179781, Note_off_c, 0, 103, 44
1, 179782, Note_off_c, 0, 26, 43
1, 179802, Note_off_c, 0, 30, 55
1, 179816, Note_off_c, 0, 104, 56
1, 179842, Note_on_c, 0, 100, 92
1, 179844, Note_on_c, 0, 26, 97
1, 179861, Note_on_c, 0, 24, 53
1, 179878, Note_on_c, 0, 102, 39
1, 179888, Note_off_c, 0, 100, 65
1, 179893, Note_off_c, 0, 91, 59
1, 179893, Note_off_c, 0, 24, 56
1, 179910, Note_off_c, 0, 102, 51
1, 179913, Note_off_c, 0, 26, 59
1, 179971, Note_on_c, 0, 29, 45
1, 179971, Note_on_c, 0, 36, 108
1, 180027, Note_off_c, 0, 36, 65
1, 180042, Note_on_c, 0, 87, 29
1, 180078, Note_off_c, 0, 87, 46
1, 180100, Note_off_c, 0, 29, 0
1, 180101, Note_on_c, 0, 27, 95
1, 180104, Note_on_c, 0, 82, 96
1, 180109, Note_on_c, 0, 95, 97
1, 180113, Note_on_c, 0, 29, 41
1, 180133, Note_on_c, 0, 91, 43
1, 180134, Note_on_c, 0, 92, 26
1, 180154, Note_off_c, 0, 29, 51
1, 180166, Note_off_c, 0, 82, 0
1, 180175, Note_on_c, 0, 89, 96
1, 180176, Note_off_c, 0, 91, 0
1, 180186, Note_on_c, 0, 91, 65
1, 180188, Note_on_c, 0, 82, 45
1, 180193, Note_on_c, 0, 37, 126
1, 180197, Note_off_c, 0, 92, 0
1, 180197, Note_on_c, 0, 92, 10
1, 180216, Note_off_c, 0, 27, 64
1, 180223, Poly_aftertouch_c, 0, 93, 127
1, 180229, Note_off_c, 0, 37, 67
1, 180231, Note_on_c, 0, 93, 4
1, 180240, Note_off_c, 0, 91, 62
1, 180241, Note_off_c, 0, 95, 69
1, 180242, Note_off_c, 0, 89, 69
1, 180243, Note_on_c, 0, 30, 17
1, 180245, Note_on_c, 0, 38, 42
1, 180246, Note_off_c, 0, 38, 127
1, 180246, Note_off_c, 0, 82, 63
1, 180250, Note_off_c, 0, 92, 55
1, 180253, Note_off_c, 0, 93, 57
1, 180254, Control_c, 0, 64, 65
1, 180263, Note_off_c, 0, 30, 64
1, 180276, Control_c, 0, 64, 0
1, 180295, Poly_aftertouch_c, 0, 38, 0
1, 180867, Note_on_c, 0, 78, 51
1, 180870, Note_on_c, 0, 80, 79
1, 180875, Note_on_c, 0, 90, 96
1, 180877, Note_on_c, 0, 89, 99
1, 180878, Note_on_c, 0, 83, 93
1, 180881, Note_on_c, 0, 84, 88
1, 180881, Note_on_c, 0, 85, 75
1, 180885, Note_on_c, 0, 86, 79
1, 180887, Note_on_c, 0, 82, 89
1, 180891, Note_on_c, 0, 87, 72
1, 180891, Note_on_c, 0, 88, 70
1, 180894, Note_on_c, 0, 81, 78
1, 180896, Note_off_c, 0, 89, 63
1, 180899, Note_off_c, 0, 86, 70
1, 180900, Note_on_c, 0, 79, 63
1, 180908, Note_off_c, 0, 84, 0
1, 180921, Note_off_c, 0, 88, 48
1, 180931, Note_on_c, 0, 91, 12
1, 180945, Poly_aftertouch_c, 0, 84, 127
1, 180946, Note_off_c, 0, 91, 33
1, 180958, Note_on_c, 0, 86, 69
1, 180969, Note_on_c, 0, 88, 49
1, 180972, Poly_aftertouch_c, 0, 89, 127
1, 181530, Control_c, 0, 64, 37
1, 181545, Control_c, 0, 64, 56
1, 181560, Control_c, 0, 64, 64
1, 181574, Control_c, 0, 64, 71
1, 181589, Control_c, 0, 64, 94
1, 181604, Poly_aftertouch_c, 0, 89, 0
1, 181605, Control_c, 0, 64, 127
1, 181619, Note_off_c, 0, 88, 43
1, 181623, Note_off_c, 0, 86, 56
1, 181636, Note_off_c, 0, 82, 60
1, 181660, Note_off_c, 0, 81, 56
1, 181686, Note_off_c, 0, 90, 54
1, 181688, Note_off_c, 0, 80, 57
1, 181705, Note_off_c, 0, 79, 40
1, 181707, Poly_aftertouch_c, 0, 84, 0
1, 181719, Note_off_c, 0, 83, 56
1, 181740, Note_off_c, 0, 78, 37
1, 181744, Note_off_c, 0, 87, 39
1, 181757, Note_off_c, 0, 85, 45
1, 182298, Note_on_c, 0, 56, 96
1, 182301, Note_on_c, 0, 67, 88
1, 182337, Note_on_c, 0, 47, 74
1, 182340, Note_on_c, 0, 34, 69
1, 182591, Note_off_c, 0, 47, 39
1, 182652, Note_on_c, 0, 41, 49
1, 182656, Note_on_c, 0, 64, 62
1, 182707, Note_off_c, 0, 34, 37
1, 182777, Note_off_c, 0, 41, 48
1, 182918, Note_off_c, 0, 56, 45
1, 183010, Note_off_c, 0, 67, 20
1, 183121, Note_off_c, 0, 64, 36
1, 183907, Note_on_c, 0, 98, 89
1, 183911, Note_on_c, 0, 95, 88
1, 183912, Note_on_c, 0, 96, 81
1, 183914, Note_on_c, 0, 90, 96
1, 183916, Note_on_c, 0, 91, 78
1, 183917, Note_on_c, 0, 87, 70
1, 183917, Note_on_c, 0, 93, 81
1, 183917, Note_on_c, 0, 97, 80
1, 183918, Note_on_c, 0, 89, 84
1, 183920, Note_on_c, 0, 92, 78
1, 183923, Note_on_c, 0, 94, 74
1, 183926, Note_on_c, 0, 88, 79
1, 183931, Note_off_c, 0, 96, 70
1, 183932, Note_on_c, 0, 86, 59
1, 183942, Note_off_c, 0, 93, 61
1, 183947, Note_off_c, 0, 95, 65
1, 183952, Note_off_c, 0, 86, 61
1, 183953, Note_off_c, 0, 90, 66
1, 183957, Note_off_c, 0, 89, 66
1, 183961, Note_off_c, 0, 88, 54
1, 183962, Note_off_c, 0, 91, 60
1, 183978, Note_off_c, 0, 87, 63
1, 183999, Note_off_c, 0, 98, 65
1, 184023, Note_off_c, 0, 92, 57
1, 184026, Note_off_c, 0, 94, 57
1, 184030, Note_off_c, 0, 97, 55
1, 185193, Note_on_c, 0, 81, 94
1, 185193, Note_on_c, 0, 84, 86
1, 185194, Note_on_c, 0, 88, 85
1, 185198, Note_on_c, 0, 87, 80
1, 185199, Note_on_c, 0, 85, 82
1, 185199, Note_on_c, 0, 86, 74
1, 185200, Note_on_c, 0, 83, 74
1, 185200, Note_on_c, 0, 89, 79
1, 185202, Note_on_c, 0, 77, 79
1, 185202, Note_on_c, 0, 80, 86
1, 185202, Note_on_c, 0, 82, 77
1, 185205, Note_on_c, 0, 78, 76
1, 185205, Note_on_c, 0, 79, 87
1, 185227, Note_off_c, 0, 77, 58
1, 185258, Note_off_c, 0, 81, 53
1, 185314, Note_off_c, 0, 79, 51
1, 185340, Note_off_c, 0, 80, 44
1, 185342, Note_off_c, 0, 78, 51
1, 185457, Note_off_c, 0, 88, 56
1, 185472, Note_off_c, 0, 83, 34
1, 185485, Note_off_c, 0, 85, 19
1, 185530, Note_off_c, 0, 89, 30
1, 185570, Note_off_c, 0, 84, 30
1, 185622, Note_off_c, 0, 86, 17
1, 185623, Note_off_c, 0, 82, 45
1, 185677, Note_off_c, 0, 87, 19
1, 186588, Note_on_c, 0, 73, 102
1, 186594, Note_on_c, 0, 72, 90
1, 186595, Note_on_c, 0, 75, 80
1, 186598, Note_on_c, 0, 70, 72
1, 186601, Note_on_c, 0, 81, 78
1, 186602, Note_on_c, 0, 74, 79
1, 186602, Note_on_c, 0, 80, 71
1, 186604, Note_on_c, 0, 71, 77
1, 186604, Note_on_c, 0, 76, 77
1, 186607, Note_on_c, 0, 79, 70
1, 186608, Note_on_c, 0, 69, 61
1, 186609, Note_on_c, 0, 78, 71
1, 186614, Note_on_c, 0, 77, 68
1, 186626, Note_off_c, 0, 69, 67
1, 186634, Note_off_c, 0, 73, 65
1, 186638, Note_off_c, 0, 71, 48
1, 186641, Note_off_c, 0, 72, 64
1, 186659, Note_off_c, 0, 70, 63
1, 187373, Note_off_c, 0, 77, 25
1, 187426, Note_off_c, 0, 79, 33
1, 187452, Note_off_c, 0, 76, 35
1, 187570, Note_off_c, 0, 81, 28
1, 187583, Note_off_c, 0, 74, 38
1, 187603, Note_off_c, 0, 75, 50
1, 187625, Note_off_c, 0, 80, 28
1, 187640, Note_off_c, 0, 78, 32
1, 187981, Note_on_c, 0, 30, 119
1, 187986, Note_on_c, 0, 21, 90
1, 187991, Note_on_c, 0, 24, 93
1, 188017, Note_off_c, 0, 21, 60
1, 188032, Note_off_c, 0, 30, 66
1, 188033, Note_off_c, 0, 24, 64
1, 188038, Note_on_c, 0, 26, 15
1, 188091, Note_off_c, 0, 26, 34
1, 188108, Poly_aftertouch_c, 0, 23, 0
1, 188370, Note_on_c, 0, 74, 81
1, 188374, Note_on_c, 0, 61, 78
1, 188394, Note_on_c, 0, 63, 47
1, 188427, Note_off_c, 0, 63, 51
1, 188436, Note_off_c, 0, 61, 59
1, 188445, Note_off_c, 0, 74, 57
1, 188738, Note_on_c, 0, 74, 80
1, 188746, Note_on_c, 0, 61, 79
1, 188746, Note_on_c, 0, 63, 74
1, 188791, Note_off_c, 0, 74, 57
1, 188795, Note_off_c, 0, 61, 60
1, 188797, Note_off_c, 0, 63, 47
1, 189078, Note_on_c, 0, 74, 82
1, 189086, Note_on_c, 0, 63, 86
1, 189090, Note_on_c, 0, 61, 89
1, 189151, Note_off_c, 0, 61, 60
1, 189154, Note_off_c, 0, 63, 55
1, 189179, Note_off_c, 0, 74, 52
1, 189437, Note_on_c, 0, 74, 82
1, 189443, Note_on_c, 0, 63, 90
1, 189443, Note_on_c, 0, 61, 99
1, 189511, Note_off_c, 0, 61, 60
1, 189515, Note_off_c, 0, 63, 58
1, 189522, Note_off_c, 0, 74, 53
1, 189786, Note_on_c, 0, 74, 88
1, 189786, Note_on_c, 0, 63, 94
1, 189791, Note_on_c, 0, 61, 95
1, 189849, Note_off_c, 0, 61, 58
1, 189853, Note_off_c, 0, 63, 55
1, 189857, Note_off_c, 0, 74, 57
1, 190138, Note_on_c, 0, 63, 98
1, 190138, Note_on_c, 0, 74, 89
1, 190143, Note_on_c, 0, 61, 98
1, 190203, Note_off_c, 0, 61, 62
1, 190218, Note_off_c, 0, 63, 64
1, 190228, Poly_aftertouch_c, 0, 62, 127
1, 190245, Poly_aftertouch_c, 0, 72, 127
1, 190257, Note_off_c, 0, 74, 37
1, 190263, Poly_aftertouch_c, 0, 62, 0
1, 190292, Poly_aftertouch_c, 0, 72, 0
1, 190485, Note_on_c, 0, 74, 89
1, 190487, Note_on_c, 0, 63, 95
1, 190489, Note_on_c, 0, 61, 101
1, 190516, Note_on_c, 0, 72, 56
1, 190521, Note_off_c, 0, 61, 63
1, 190528, Note_off_c, 0, 63, 64
1, 190544, Note_off_c, 0, 74, 72
1, 190547, Note_off_c, 0, 72, 67
1, 190787, Note_on_c, 0, 75, 25
1, 190909, Note_off_c, 0, 75, 0
1, 190916, Note_on_c, 0, 87, 83
1, 190923, Control_c, 0, 64, 66
1, 190924, Note_on_c, 0, 75, 48
1, 190925, Note_on_c, 0, 80, 74
1, 190928, Note_on_c, 0, 82, 69
1, 190930, Note_on_c, 0, 85, 65
1, 190931, Note_on_c, 0, 76, 62
1, 190931, Note_on_c, 0, 77, 64
1, 190938, Note_on_c, 0, 78, 56
1, 190938, Control_c, 0, 64, 0
1, 190943, Note_on_c, 0, 79, 49
1, 190974, Note_on_c, 0, 81, 15
1, 190975, Note_off_c, 0, 81, 127
1, 191095, Poly_aftertouch_c, 0, 81, 127
1, 191107, Poly_aftertouch_c, 0, 83, 127
1, 191186, Poly_aftertouch_c, 0, 86, 127
1, 191583, Control_c, 0, 64, 24
1, 191598, Control_c, 0, 64, 56
1, 191613, Control_c, 0, 64, 61
1, 191628, Control_c, 0, 64, 64
1, 191643, Control_c, 0, 64, 70
1, 191657, Control_c, 0, 64, 82
1, 191672, Control_c, 0, 64, 127
1, 191679, Poly_aftertouch_c, 0, 86, 0
1, 191688, Poly_aftertouch_c, 0, 81, 0
1, 191691, Poly_aftertouch_c, 0, 83, 0
1, 191760, Note_off_c, 0, 80, 53
1, 191774, Note_off_c, 0, 76, 42
1, 191781, Note_off_c, 0, 77, 36
1, 191789, Note_off_c, 0, 79, 37
1, 191789, Note_off_c, 0, 82, 39
1, 191795, Note_off_c, 0, 78, 45
1, 191814, Note_off_c, 0, 75, 36
1, 191823, Note_off_c, 0, 87, 56
1, 191830, Note_off_c, 0, 85, 36
1, 192116, Note_on_c, 0, 85, 94
1, 192120, Note_on_c, 0, 80, 86
1, 192121, Note_on_c, 0, 91, 82
1, 192124, Note_on_c, 0, 89, 77
1, 192124, Note_on_c, 0, 92, 85
1, 192126, Note_on_c, 0, 84, 88
1, 192126, Note_on_c, 0, 86, 75
1, 192127, Note_on_c, 0, 90, 79
1, 192128, Note_on_c, 0, 87, 80
1, 192129, Note_on_c, 0, 82, 78
1, 192129, Note_on_c, 0, 83, 83
1, 192135, Note_on_c, 0, 88, 70
1, 192158, Note_off_c, 0, 80, 59
1, 192159, Note_off_c, 0, 84, 57
1, 192165, Note_off_c, 0, 83, 53
1, 192179, Note_off_c, 0, 82, 62
1, 192180, Note_off_c, 0, 91, 54
1, 192195, Note_off_c, 0, 88, 37
1, 192216, Note_off_c, 0, 86, 34
1, 192216, Note_off_c, 0, 89, 45
1, 192354, Note_off_c, 0, 85, 56
1, 192452, Note_off_c, 0, 92, 30
1, 192482, Note_off_c, 0, 87, 20
1, 192530, Note_off_c, 0, 90, 18
1, 193331, Note_on_c, 0, 87, 98
1, 193334, Note_on_c, 0, 93, 89
1, 193335, Note_on_c, 0, 95, 85
1, 193336, Note_on_c, 0, 83, 81
1, 193339, Note_on_c, 0, 88, 83
1, 193341, Note_on_c, 0, 85, 79
1, 193341, Note_on_c, 0, 94, 79
1, 193343, Note_on_c, 0, 84, 86
1, 193343, Note_on_c, 0, 89, 77
1, 193343, Note_on_c, 0, 90, 79
1, 193345, Note_on_c, 0, 86, 89
1, 193345, Note_on_c, 0, 91, 83
1, 193348, Note_on_c, 0, 92, 74
1, 193348, Control_c, 0, 64, 85
1, 193362, Control_c, 0, 64, 0
1, 193584, Control_c, 0, 64, 57
1, 193599, Control_c, 0, 64, 66
1, 193614, Control_c, 0, 64, 74
1, 193629, Control_c, 0, 64, 97
1, 193643, Control_c, 0, 64, 127
1, 193649, Note_off_c, 0, 93, 37
1, 193656, Note_off_c, 0, 91, 31
1, 193695, Note_off_c, 0, 89, 53
1, 193696, Note_off_c, 0, 83, 53
1, 193730, Note_off_c, 0, 86, 55
1, 193733, Note_off_c, 0, 95, 58
1, 193742, Note_off_c, 0, 84, 58
1, 193769, Note_off_c, 0, 85, 59
1, 193774, Note_off_c, 0, 87, 60
1, 193800, Note_off_c, 0, 94, 39
1, 193804, Note_off_c, 0, 88, 55
1, 193816, Note_off_c, 0, 92, 38
1, 193817, Note_off_c, 0, 90, 59
1, 194386, Note_on_c, 0, 66, 85
1, 194391, Note_on_c, 0, 58, 82
1, 194392, Note_on_c, 0, 50, 96
1, 194398, Note_on_c, 0, 52, 82
1, 194398, Note_on_c, 0, 55, 71
1, 194398, Note_on_c, 0, 57, 66
1, 194404, Note_on_c, 0, 63, 67
1, 194407, Note_on_c, 0, 48, 70
1, 194413, Note_off_c, 0, 50, 71
1, 194422, Note_off_c, 0, 52, 71
1, 194424, Note_off_c, 0, 55, 69
1, 194424, Note_off_c, 0, 57, 66
1, 194426, Note_off_c, 0, 48, 60
1, 194435, Note_off_c, 0, 58, 61
1, 194437, Note_off_c, 0, 63, 64
1, 194437, Note_off_c, 0, 66, 64
1, 194998, Note_on_c, 0, 83, 86
1, 194998, Note_on_c, 0, 84, 89
1, 195000, Note_on_c, 0, 79, 82
1, 195000, Note_on_c, 0, 78, 83
1, 195001, Note_on_c, 0, 77, 92
1, 195003, Note_on_c, 0, 85, 84
1, 195006, Note_on_c, 0, 81, 77
1, 195007, Note_on_c, 0, 76, 92
1, 195008, Note_on_c, 0, 73, 72
1, 195009, Note_on_c, 0, 74, 83
1, 195009, Note_on_c, 0, 82, 86
1, 195011, Note_on_c, 0, 80, 83
1, 195013, Note_on_c, 0, 75, 76
1, 195027, Note_off_c, 0, 81, 64
1, 195039, Note_off_c, 0, 83, 62
1, 195041, Note_off_c, 0, 84, 64
1, 195043, Note_off_c, 0, 77, 63
1, 195047, Note_off_c, 0, 76, 66
1, 195049, Note_off_c, 0, 73, 45
1, 195051, Note_off_c, 0, 74, 63
1, 195065, Note_off_c, 0, 75, 63
1, 195109, Note_off_c, 0, 85, 61
1, 195113, Note_off_c, 0, 78, 58
1, 195113, Note_off_c, 0, 79, 53
1, 195126, Note_off_c, 0, 82, 55
1, 195138, Note_off_c, 0, 80, 57
1, 195825, Note_on_c, 0, 45, 99
1, 195836, Note_on_c, 0, 55, 81
1, 195847, Note_on_c, 0, 53, 63
1, 195849, Note_on_c, 0, 48, 74
1, 195857, Note_on_c, 0, 44, 62
1, 195870, Note_on_c, 0, 35, 47
1, 195873, Note_on_c, 0, 39, 54
1, 195880, Note_on_c, 0, 50, 37
1, 195921, Control_c, 0, 64, 80
1, 195936, Control_c, 0, 64, 58
1, 195950, Control_c, 0, 64, 0
1, 196610, Control_c, 0, 64, 51
1, 196624, Control_c, 0, 64, 62
1, 196639, Control_c, 0, 64, 68
1, 196654, Control_c, 0, 64, 78
1, 196669, Control_c, 0, 64, 127
1, 196676, Note_off_c, 0, 45, 59
1, 196699, Note_off_c, 0, 35, 43
1, 196703, Note_off_c, 0, 48, 55
1, 196720, Note_off_c, 0, 44, 60
1, 196723, Note_off_c, 0, 39, 36
1, 196728, Note_off_c, 0, 53, 60
1, 196735, Note_off_c, 0, 55, 61
1, 196741, Note_off_c, 0, 50, 39
1, 197677, Note_on_c, 0, 95, 83
1, 197677, Note_on_c, 0, 96, 79
1, 197682, Note_on_c, 0, 91, 79
1, 197684, Note_on_c, 0, 88, 82
1, 197686, Note_on_c, 0, 93, 77
1, 197690, Note_on_c, 0, 89, 73
1, 197691, Note_on_c, 0, 90, 67
1, 197692, Note_on_c, 0, 84, 76
1, 197692, Note_on_c, 0, 86, 79
1, 197692, Note_on_c, 0, 87, 71
1, 197693, Note_on_c, 0, 94, 66
1, 197695, Note_on_c, 0, 92, 66
1, 197696, Note_on_c, 0, 85, 64
1, 197735, Control_c, 0, 64, 83
1, 197750, Control_c, 0, 64, 43
1, 197765, Control_c, 0, 64, 0
1, 198350, Control_c, 0, 64, 47
1, 198365, Control_c, 0, 64, 60
1, 198368, Note_off_c, 0, 93, 30
1, 198380, Control_c, 0, 64, 65
1, 198395, Control_c, 0, 64, 71
1, 198410, Control_c, 0, 64, 87
1, 198412, Note_off_c, 0, 95, 35
1, 198424, Note_off_c, 0, 91, 36
1, 198425, Control_c, 0, 64, 127
1, 198466, Note_off_c, 0, 96, 29
1, 198479, Note_off_c, 0, 84, 39
1, 198492, Note_off_c, 0, 90, 58
1, 198499, Note_off_c, 0, 87, 54
1, 198523, Note_off_c, 0, 94, 58
1, 198533, Note_off_c, 0, 86, 32
1, 198535, Note_off_c, 0, 85, 47
1, 198535, Note_off_c, 0, 88, 60
1, 198541, Note_off_c, 0, 92, 55
1, 198550, Note_off_c, 0, 89, 22
1, 199140, Note_on_c, 0, 72, 79
1, 199140, Note_on_c, 0, 81, 85
1, 199142, Note_on_c, 0, 55, 70
1, 199148, Note_on_c, 0, 71, 83
1, 199149, Note_on_c, 0, 64, 73
1, 199151, Note_on_c, 0, 62, 67
1, 199155, Note_on_c, 0, 61, 70
1, 199155, Note_on_c, 0, 77, 70
1, 199158, Note_on_c, 0, 58, 67
1, 199160, Note_on_c, 0, 63, 63
1, 199161, Note_on_c, 0, 80, 65
1, 199164, Note_on_c, 0, 78, 63
1, 199913, Note_off_c, 0, 77, 22
1, 199943, Note_off_c, 0, 55, 36
1, 199982, Note_off_c, 0, 58, 32
1, 199990, Note_off_c, 0, 64, 39
1, 199997, Note_off_c, 0, 62, 40
1, 200007, Note_off_c, 0, 71, 40
1, 200034, Note_off_c, 0, 81, 49
1, 200039, Note_off_c, 0, 72, 44
1, 200109, Note_off_c, 0, 61, 37
1, 200123, Note_off_c, 0, 63, 42
1, 200179, Note_off_c, 0, 78, 33
1, 200216, Note_off_c, 0, 80, 53
1, 200790, Note_on_c, 0, 80, 98
1, 200793, Note_on_c, 0, 76, 88
1, 200797, Note_on_c, 0, 87, 67
1, 200798, Note_on_c, 0, 78, 86
1, 200798, Note_on_c, 0, 79, 86
1, 200800, Note_on_c, 0, 82, 76
1, 200801, Note_on_c, 0, 81, 83
1, 200801, Note_on_c, 0, 86, 80
1, 200803, Note_on_c, 0, 88, 80
1, 200805, Note_on_c, 0, 83, 74
1, 200809, Note_on_c, 0, 85, 65
1, 200810, Note_on_c, 0, 84, 75
1, 200811, Note_on_c, 0, 77, 68
1, 200820, Note_off_c, 0, 76, 62
1, 200831, Note_off_c, 0, 77, 65
1, 200863, Note_off_c, 0, 78, 64
1, 200875, Note_off_c, 0, 79, 0
1, 200913, Poly_aftertouch_c, 0, 79, 127
1, 200914, Note_on_c, 0, 79, 11
1, 200953, Note_off_c, 0, 80, 54
1, 200984, Note_off_c, 0, 79, 0
1, 201021, Poly_aftertouch_c, 0, 79, 127
1, 201077, Note_off_c, 0, 84, 40
1, 201148, Note_off_c, 0, 86, 35
1, 201187, Note_off_c, 0, 83, 32
1, 201276, Note_off_c, 0, 81, 25
1, 201295, Poly_aftertouch_c, 0, 79, 0
1, 201314, Note_off_c, 0, 88, 32
1, 201401, Note_off_c, 0, 87, 30
1, 201446, Note_off_c, 0, 85, 42
1, 201449, Note_off_c, 0, 82, 38
1, 202452, Note_on_c, 0, 66, 89
1, 202455, Note_on_c, 0, 55, 87
1, 202455, Note_on_c, 0, 57, 92
1, 202456, Note_on_c, 0, 50, 86
1, 202459, Note_on_c, 0, 39, 79
1, 202460, Note_on_c, 0, 52, 85
1, 202462, Note_on_c, 0, 60, 76
1, 202464, Note_on_c, 0, 58, 86
1, 202464, Note_on_c, 0, 61, 78
1, 202467, Note_on_c, 0, 44, 73
1, 202470, Note_on_c, 0, 47, 68
1, 202471, Note_on_c, 0, 41, 67
1, 202509, Control_c, 0, 64, 60
1, 202524, Control_c, 0, 64, 0
1, 202934, Control_c, 0, 64, 37
1, 202948, Control_c, 0, 64, 53
1, 202963, Control_c, 0, 64, 60
1, 202978, Control_c, 0, 64, 63
1, 202993, Control_c, 0, 64, 65
1, 203007, Control_c, 0, 64, 68
1, 203022, Control_c, 0, 64, 75
1, 203037, Control_c, 0, 64, 87
1, 203052, Control_c, 0, 64, 127
1, 203287, Note_off_c, 0, 39, 33
1, 203325, Note_off_c, 0, 55, 51
1, 203328, Note_off_c, 0, 57, 46
1, 203359, Note_off_c, 0, 50, 44
1, 203360, Note_off_c, 0, 41, 35
1, 203397, Note_off_c, 0, 52, 33
1, 203427, Note_off_c, 0, 47, 38
1, 203447, Note_off_c, 0, 60, 24
1, 203450, Note_off_c, 0, 44, 39
1, 203450, Note_off_c, 0, 58, 25
1, 203491, Note_off_c, 0, 61, 34
1, 203575, Note_off_c, 0, 66, 29
1, 204293, Note_on_c, 0, 71, 97
1, 204294, Note_on_c, 0, 79, 87
1, 204295, Note_on_c, 0, 77, 89
1, 204297, Note_on_c, 0, 70, 93
1, 204298, Note_on_c, 0, 72, 82
1, 204300, Note_on_c, 0, 68, 84
1, 204300, Note_on_c, 0, 74, 83
1, 204300, Note_on_c, 0, 69, 93
1, 204301, Note_on_c, 0, 67, 80
1, 204303, Note_on_c, 0, 76, 85
1, 204304, Note_on_c, 0, 73, 77
1, 204304, Note_on_c, 0, 78, 77
1, 204309, Note_on_c, 0, 75, 70
1, 204324, Note_off_c, 0, 71, 67
1, 204326, Note_off_c, 0, 67, 62
1, 204343, Note_off_c, 0, 69, 69
1, 204350, Note_off_c, 0, 70, 68
1, 204356, Note_off_c, 0, 68, 63
1, 204577, Note_off_c, 0, 76, 34
1, 204603, Note_off_c, 0, 77, 38
1, 204670, Note_off_c, 0, 74, 36
1, 204741, Note_off_c, 0, 79, 28
1, 204852, Note_off_c, 0, 78, 31
1, 204878, Note_off_c, 0, 72, 23
1, 204909, Note_off_c, 0, 75, 27
1, 204919, Note_off_c, 0, 73, 31
1, 206179, Note_on_c, 0, 58, 91
1, 206185, Note_on_c, 0, 39, 81
1, 206185, Note_on_c, 0, 47, 108
1, 206185, Note_on_c, 0, 49, 95
1, 206191, Note_on_c, 0, 48, 94
1, 206191, Note_on_c, 0, 55, 77
1, 206197, Note_on_c, 0, 45, 86
1, 206197, Note_on_c, 0, 52, 81
1, 206199, Note_on_c, 0, 44, 79
1, 206202, Note_on_c, 0, 41, 73
1, 206205, Note_on_c, 0, 42, 75
1, 206210, Control_c, 0, 64, 87
1, 206214, Note_on_c, 0, 35, 69
1, 206223, Note_on_c, 0, 38, 53
1, 206225, Control_c, 0, 64, 39
1, 206240, Control_c, 0, 64, 0
1, 206347, Note_off_c, 0, 35, 37
1, 206375, Note_off_c, 0, 48, 0
1, 206411, Poly_aftertouch_c, 0, 48, 127
1, 206573, Control_c, 0, 64, 38
1, 206588, Control_c, 0, 64, 46
1, 206603, Control_c, 0, 64, 49
1, 206617, Control_c, 0, 64, 53
1, 206632, Control_c, 0, 64, 59
1, 206647, Control_c, 0, 64, 64
1, 206663, Control_c, 0, 64, 69
1, 206678, Control_c, 0, 64, 75
1, 206693, Control_c, 0, 64, 82
1, 206707, Control_c, 0, 64, 93
1, 206722, Control_c, 0, 64, 127
1, 206824, Note_off_c, 0, 45, 50
1, 206882, Note_off_c, 0, 47, 56
1, 206888, Note_off_c, 0, 49, 46
1, 206918, Poly_aftertouch_c, 0, 48, 0
1, 206936, Note_off_c, 0, 52, 33
1, 206939, Note_off_c, 0, 55, 36
1, 207056, Note_off_c, 0, 58, 61
1, 207075, Note_off_c, 0, 41, 33
1, 207082, Note_off_c, 0, 42, 38
1, 207095, Note_off_c, 0, 38, 37
1, 207102, Note_off_c, 0, 39, 32
1, 207150, Note_off_c, 0, 44, 61
1, 207552, Note_on_c, 0, 90, 97
1, 207630, Note_on_c, 0, 86, 83
1, 207633, Note_off_c, 0, 90, 62
1, 207648, Note_off_c, 0, 86, 71
1, 207686, Note_on_c, 0, 77, 72
1, 207752, Note_off_c, 0, 77, 58
1, 207759, Note_on_c, 0, 81, 70
1, 207816, Note_off_c, 0, 81, 59
1, 207827, Note_on_c, 0, 75, 87
1, 207851, Note_off_c, 0, 75, 67
1, 207902, Note_on_c, 0, 92, 84
1, 207953, Note_off_c, 0, 92, 64
1, 207983, Note_on_c, 0, 83, 82
1, 208029, Note_off_c, 0, 83, 57
1, 208048, Note_on_c, 0, 97, 89
1, 208098, Note_off_c, 0, 97, 66
1, 208122, Note_on_c, 0, 72, 84
1, 208146, Note_off_c, 0, 72, 66
1, 208202, Note_on_c, 0, 88, 71
1, 208277, Note_off_c, 0, 88, 61
1, 208279, Note_on_c, 0, 79, 77
1, 208304, Note_off_c, 0, 79, 65
1, 208344, Note_on_c, 0, 70, 78
1, 208365, Note_off_c, 0, 70, 72
1, 208422, Note_on_c, 0, 90, 85
1, 208476, Note_off_c, 0, 90, 59
1, 208495, Note_on_c, 0, 86, 83
1, 208513, Note_off_c, 0, 86, 72
1, 208562, Note_on_c, 0, 77, 80
1, 208624, Note_off_c, 0, 77, 58
1, 208631, Note_on_c, 0, 81, 79
1, 208682, Note_off_c, 0, 81, 59
1, 208709, Note_on_c, 0, 75, 88
1, 208739, Note_off_c, 0, 75, 70
1, 208786, Note_on_c, 0, 92, 84
1, 208837, Note_off_c, 0, 92, 64
1, 208861, Note_on_c, 0, 83, 80
1, 208909, Note_off_c, 0, 83, 57
1, 208935, Note_on_c, 0, 97, 87
1, 208974, Note_off_c, 0, 97, 67
1, 209013, Note_on_c, 0, 72, 72
1, 209036, Note_off_c, 0, 72, 71
1, 209079, Note_on_c, 0, 88, 75
1, 209142, Note_off_c, 0, 88, 62
1, 209168, Note_on_c, 0, 79, 70
1, 209187, Note_off_c, 0, 79, 65
1, 209234, Note_on_c, 0, 70, 69
1, 209260, Note_off_c, 0, 70, 69
1, 209313, Note_on_c, 0, 90, 75
1, 209355, Note_off_c, 0, 90, 55
1, 209388, Note_on_c, 0, 86, 72
1, 209413, Note_off_c, 0, 86, 66
1, 209476, Note_on_c, 0, 77, 59
1, 209509, Note_off_c, 0, 77, 62
1, 209535, Note_on_c, 0, 81, 68
1, 209562, Note_off_c, 0, 81, 64
1, 209620, Note_on_c, 0, 75, 67
1, 209644, Note_off_c, 0, 75, 68
1, 209685, Note_on_c, 0, 92, 69
1, 209719, Note_off_c, 0, 92, 64
1, 209757, Note_on_c, 0, 83, 73
1, 209787, Note_off_c, 0, 83, 60
1, 209833, Note_on_c, 0, 97, 78
1, 209865, Note_off_c, 0, 97, 64
1, 209866, Control_c, 0, 67, 11
1, 209880, Control_c, 0, 67, 14
1, 209895, Control_c, 0, 67, 18
1, 209907, Note_on_c, 0, 72, 64
1, 209910, Control_c, 0, 67, 21
1, 209925, Control_c, 0, 67, 24
1, 209926, Note_off_c, 0, 72, 67
1, 209940, Control_c, 0, 67, 30
1, 209955, Control_c, 0, 67, 37
1, 209969, Control_c, 0, 67, 45
1, 209982, Note_on_c, 0, 88, 67
1, 209984, Control_c, 0, 67, 51
1, 209999, Control_c, 0, 67, 58
1, 210014, Control_c, 0, 67, 63
1, 210029, Control_c, 0, 67, 66
1, 210037, Note_off_c, 0, 88, 62
1, 210044, Control_c, 0, 67, 69
1, 210056, Control_c, 0, 67, 72
1, 210060, Note_on_c, 0, 79, 69
1, 210071, Control_c, 0, 67, 76
1, 210086, Note_off_c, 0, 79, 66
1, 210086, Control_c, 0, 67, 80
1, 210101, Control_c, 0, 67, 85
1, 210116, Control_c, 0, 67, 87
1, 210122, Note_on_c, 0, 70, 65
1, 210131, Control_c, 0, 67, 91
1, 210146, Control_c, 0, 67, 96
1, 210148, Note_off_c, 0, 70, 67
1, 210161, Control_c, 0, 67, 100
1, 210175, Control_c, 0, 67, 105
1, 210190, Control_c, 0, 67, 113
1, 210205, Control_c, 0, 67, 120
1, 210213, Note_on_c, 0, 90, 69
1, 210227, Control_c, 0, 67, 127
1, 210249, Note_off_c, 0, 90, 63
1, 210292, Note_on_c, 0, 86, 69
1, 210308, Note_off_c, 0, 86, 66
1, 210363, Note_on_c, 0, 77, 69
1, 210393, Note_off_c, 0, 77, 63
1, 210434, Note_on_c, 0, 81, 67
1, 210459, Note_off_c, 0, 81, 66
1, 210517, Note_on_c, 0, 75, 63
1, 210535, Note_off_c, 0, 75, 68
1, 210559, Note_on_c, 0, 92, 60
1, 210595, Note_off_c, 0, 92, 63
1, 210638, Note_on_c, 0, 83, 66
1, 210668, Note_off_c, 0, 83, 61
1, 210700, Note_on_c, 0, 97, 78
1, 210724, Note_off_c, 0, 97, 68
1, 210797, Note_on_c, 0, 72, 48
1, 210819, Note_off_c, 0, 72, 60
1, 210855, Note_on_c, 0, 88, 48
1, 210903, Note_off_c, 0, 88, 46
1, 210951, Note_on_c, 0, 79, 40
1, 210997, Note_on_c, 0, 70, 63
1, 211015, Note_off_c, 0, 70, 65
1, 211049, Note_off_c, 0, 79, 38
1, 211073, Note_on_c, 0, 56, 79
1, 211078, Note_on_c, 0, 65, 75
1, 211079, Note_on_c, 0, 64, 73
1, 211081, Note_on_c, 0, 66, 75
1, 211088, Note_on_c, 0, 63, 67
1, 211096, Note_off_c, 0, 64, 70
1, 211097, Note_off_c, 0, 56, 67
1, 211102, Note_on_c, 0, 90, 84
1, 211102, Note_off_c, 0, 66, 72
1, 211104, Note_off_c, 0, 65, 66
1, 211109, Note_on_c, 0, 61, 36
1, 211113, Note_off_c, 0, 63, 66
1, 211140, Note_off_c, 0, 61, 52
1, 211162, Note_off_c, 0, 90, 58
1, 211183, Note_on_c, 0, 86, 67
1, 211205, Note_off_c, 0, 86, 63
1, 211301, Note_on_c, 0, 77, 45
1, 211308, Note_on_c, 0, 78, 45
1, 211326, Note_off_c, 0, 77, 57
1, 211333, Note_off_c, 0, 78, 57
1, 211353, Note_on_c, 0, 81, 65
1, 211383, Note_off_c, 0, 81, 60
1, 211435, Note_on_c, 0, 75, 66
1, 211460, Note_off_c, 0, 75, 67
1, 211507, Note_on_c, 0, 92, 67
1, 211542, Note_off_c, 0, 92, 61
1, 211600, Note_on_c, 0, 83, 56
1, 211621, Note_off_c, 0, 83, 58
1, 211662, Note_on_c, 0, 97, 76
1, 211711, Note_off_c, 0, 97, 63
1, 211761, Note_on_c, 0, 72, 64
1, 211782, Note_off_c, 0, 72, 67
1, 211827, Note_on_c, 0, 88, 63
1, 211866, Note_off_c, 0, 88, 60
1, 211907, Note_on_c, 0, 79, 67
1, 211927, Note_off_c, 0, 79, 67
1, 211986, Note_on_c, 0, 70, 59
1, 212012, Note_off_c, 0, 70, 67
1, 212069, Note_on_c, 0, 90, 62
1, 212098, Note_off_c, 0, 90, 66
1, 212149, Note_on_c, 0, 86, 49
1, 212173, Note_off_c, 0, 86, 57
1, 212225, Note_on_c, 0, 77, 59
1, 212262, Note_off_c, 0, 77, 62
1, 212298, Note_on_c, 0, 81, 59
1, 212322, Note_off_c, 0, 81, 55
1, 212394, Note_on_c, 0, 75, 45
1, 212420, Note_off_c, 0, 75, 57
1, 212447, Note_on_c, 0, 92, 62
1, 212488, Note_off_c, 0, 92, 63
1, 212551, Note_on_c, 0, 83, 55
1, 212575, Note_off_c, 0, 83, 59
1, 212612, Note_on_c, 0, 97, 66
1, 212640, Note_off_c, 0, 97, 65
1, 212707, Note_on_c, 0, 72, 57
1, 212727, Note_off_c, 0, 72, 64
1, 212772, Note_on_c, 0, 88, 56
1, 212814, Note_off_c, 0, 88, 58
1, 212861, Note_on_c, 0, 79, 57
1, 212880, Note_off_c, 0, 79, 62
1, 212944, Note_on_c, 0, 70, 55
1, 212969, Note_off_c, 0, 70, 66
1, 213028, Note_on_c, 0, 90, 59
1, 213063, Note_off_c, 0, 90, 61
1, 213103, Note_on_c, 0, 86, 57
1, 213121, Note_off_c, 0, 86, 61
1, 213188, Note_on_c, 0, 77, 62
1, 213228, Note_off_c, 0, 77, 61
1, 213277, Note_on_c, 0, 81, 48
1, 213303, Note_off_c, 0, 81, 54
1, 213364, Note_on_c, 0, 75, 52
1, 213386, Note_off_c, 0, 75, 63
1, 213425, Note_on_c, 0, 92, 52
1, 213471, Note_off_c, 0, 92, 55
1, 213532, Note_on_c, 0, 83, 39
1, 213562, Note_off_c, 0, 83, 53
1, 213598, Note_on_c, 0, 97, 64
1, 213627, Note_off_c, 0, 97, 65
1, 213696, Note_on_c, 0, 72, 49
1, 213717, Note_off_c, 0, 72, 62
1, 213766, Note_on_c, 0, 88, 56
1, 213887, Note_on_c, 0, 79, 42
1, 213893, Note_off_c, 0, 88, 33
1, 213917, Note_off_c, 0, 79, 52
1, 214018, Note_on_c, 0, 70, 42
1, 214057, Note_off_c, 0, 70, 62
1, 215124, Note_on_c, 0, 90, 62
1, 215159, Note_off_c, 0, 90, 59
1, 215217, Note_on_c, 0, 86, 56
1, 215237, Note_off_c, 0, 86, 63
1, 215327, Note_on_c, 0, 77, 53
1, 215352, Note_off_c, 0, 77, 59
1, 215419, Note_on_c, 0, 81, 45
1, 215458, Note_off_c, 0, 81, 46
1, 215527, Note_on_c, 0, 75, 54
1, 215550, Note_off_c, 0, 75, 66
1, 215643, Note_on_c, 0, 92, 51
1, 215709, Note_off_c, 0, 92, 49
1, 215765, Note_on_c, 0, 83, 40
1, 215812, Note_off_c, 0, 83, 43
1, 215884, Note_on_c, 0, 97, 23
1, 215920, Note_off_c, 0, 97, 53
1, 216003, Note_on_c, 0, 72, 47
1, 216028, Note_off_c, 0, 72, 59
1, 216114, Note_on_c, 0, 88, 55
1, 216257, Note_off_c, 0, 88, 34
1, 216265, Note_on_c, 0, 79, 50
1, 216317, Note_off_c, 0, 79, 46
1, 216462, Note_on_c, 0, 70, 31
1, 216507, Note_off_c, 0, 70, 49
1, 218061, Note_on_c, 0, 78, 49
1, 218063, Note_on_c, 0, 74, 43
1, 218071, Note_on_c, 0, 75, 36
1, 218071, Note_on_c, 0, 77, 45
1, 218090, Note_on_c, 0, 76, 45
1, 218102, Control_c, 0, 64, 81
1, 218116, Control_c, 0, 64, 63
1, 218131, Control_c, 0, 64, 0
1, 218255, Note_on_c, 0, 62, 60
1, 218277, Note_off_c, 0, 62, 61
1, 218441, Note_on_c, 0, 53, 41
1, 218479, Note_off_c, 0, 53, 53
1, 218636, Note_on_c, 0, 45, 45
1, 218674, Note_off_c, 0, 45, 50
1, 218846, Note_on_c, 0, 51, 44
1, 218874, Note_off_c, 0, 51, 56
1, 219058, Note_on_c, 0, 56, 53
1, 219089, Note_off_c, 0, 56, 64
1, 219290, Note_on_c, 0, 59, 53
1, 219324, Note_off_c, 0, 59, 60
1, 219362, Note_off_c, 0, 74, 60
1, 219371, Note_off_c, 0, 75, 56
1, 219378, Note_off_c, 0, 76, 45
1, 219390, Note_off_c, 0, 77, 56
1, 219403, Note_off_c, 0, 78, 61
1, 219521, Note_on_c, 0, 49, 54
1, 219552, Note_off_c, 0, 49, 64
1, 219774, Note_on_c, 0, 85, 52
1, 219777, Note_on_c, 0, 82, 53
1, 219779, Note_on_c, 0, 86, 52
1, 219809, Note_on_c, 0, 83, 41
1, 219814, Note_on_c, 0, 84, 40
1, 220155, Control_c, 0, 64, 30
1, 220169, Control_c, 0, 64, 50
1, 220184, Control_c, 0, 64, 59
1, 220199, Control_c, 0, 64, 63
1, 220213, Control_c, 0, 64, 66
1, 220228, Control_c, 0, 64, 69
1, 220245, Control_c, 0, 64, 73
1, 220259, Control_c, 0, 64, 77
1, 220274, Control_c, 0, 64, 80
1, 220289, Control_c, 0, 64, 82
1, 220296, Note_off_c, 0, 86, 55
1, 220304, Control_c, 0, 64, 84
1, 220313, Note_off_c, 0, 85, 52
1, 220318, Control_c, 0, 64, 84
1, 220320, Note_off_c, 0, 84, 42
1, 220331, Note_off_c, 0, 83, 41
1, 220332, Note_off_c, 0, 82, 60
1, 220333, Control_c, 0, 64, 85
1, 220392, Control_c, 0, 64, 84
1, 220407, Control_c, 0, 64, 82
1, 220415, Note_on_c, 0, 60, 45
1, 220422, Control_c, 0, 64, 78
1, 220437, Control_c, 0, 64, 72
1, 220452, Control_c, 0, 64, 67
1, 220454, Note_off_c, 0, 60, 47
1, 220466, Control_c, 0, 64, 61
1, 220481, Control_c, 0, 64, 46
1, 220496, Control_c, 0, 64, 0
1, 220663, Note_on_c, 0, 52, 45
1, 220666, Note_on_c, 0, 77, 43
1, 220674, Note_on_c, 0, 73, 40
1, 220678, Note_on_c, 0, 76, 41
1, 220689, Note_on_c, 0, 74, 32
1, 220692, Note_off_c, 0, 52, 53
1, 220743, Poly_aftertouch_c, 0, 75, 127
1, 220908, Note_on_c, 0, 43, 49
1, 220939, Note_off_c, 0, 43, 55
1, 221151, Note_on_c, 0, 46, 44
1, 221181, Note_off_c, 0, 46, 56
1, 221435, Note_on_c, 0, 54, 46
1, 221476, Note_off_c, 0, 54, 63
1, 221987, Note_on_c, 0, 69, 37
1, 222018, Note_on_c, 0, 66, 24
1, 222020, Note_on_c, 0, 67, 35
1, 222026, Note_on_c, 0, 65, 34
1, 222026, Note_on_c, 0, 68, 21
1, 222068, Note_off_c, 0, 74, 38
1, 222091, Note_off_c, 0, 73, 43
1, 222114, Poly_aftertouch_c, 0, 75, 0
1, 222149, Note_off_c, 0, 76, 35
1, 222154, Note_off_c, 0, 77, 37
1, 222578, Control_c, 0, 64, 24
1, 222593, Control_c, 0, 64, 37
1, 222607, Control_c, 0, 64, 43
1, 222622, Control_c, 0, 64, 47
1, 222639, Control_c, 0, 64, 52
1, 222653, Control_c, 0, 64, 56
1, 222668, Control_c, 0, 64, 59
1, 222683, Control_c, 0, 64, 61
1, 222698, Control_c, 0, 64, 63
1, 222712, Control_c, 0, 64, 65
1, 222727, Control_c, 0, 64, 68
1, 222742, Control_c, 0, 64, 70
1, 222757, Control_c, 0, 64, 74
1, 222772, Control_c, 0, 64, 77
1, 222787, Control_c, 0, 64, 81
1, 222802, Control_c, 0, 64, 85
1, 222817, Control_c, 0, 64, 91
1, 222831, Control_c, 0, 64, 99
1, 222846, Control_c, 0, 64, 113
1, 222861, Control_c, 0, 64, 127
1, 222986, Note_on_c, 0, 102, 50
1, 223137, Note_on_c, 0, 98, 38
1, 223241, Note_off_c, 0, 102, 51
1, 223262, Note_on_c, 0, 89, 47
1, 223321, Note_off_c, 0, 98, 35
1, 223366, Note_off_c, 0, 89, 57
1, 223403, Note_on_c, 0, 93, 44
1, 223539, Note_off_c, 0, 93, 34
1, 223542, Note_on_c, 0, 87, 53
1, 223676, Note_on_c, 0, 92, 61
1, 223731, Note_off_c, 0, 87, 42
1, 223838, Note_on_c, 0, 95, 50
1, 223861, Note_off_c, 0, 92, 51
1, 223965, Note_on_c, 0, 97, 54
1, 223994, Note_off_c, 0, 95, 46
1, 224006, Note_off_c, 0, 97, 57
1, 224134, Note_on_c, 0, 96, 51
1, 224305, Note_on_c, 0, 100, 50
1, 224514, Note_on_c, 0, 103, 42
1, 224733, Note_on_c, 0, 106, 51
1, 224877, Note_off_c, 0, 106, 36
1, 224914, Note_off_c, 0, 103, 38
1, 224928, Note_off_c, 0, 96, 37
1, 224955, Note_off_c, 0, 100, 41
1, 225790, Note_off_c, 0, 69, 38
1, 225809, Note_off_c, 0, 68, 47
1, 225813, Note_off_c, 0, 67, 44
1, 225817, Note_off_c, 0, 65, 40
1, 225841, Note_on_c, 0, 75, 49
1, 225847, Note_off_c, 0, 66, 47
1, 225861, Note_on_c, 0, 73, 39
1, 225864, Note_on_c, 0, 71, 29
1, 225865, Note_on_c, 0, 74, 40
1, 225870, Control_c, 0, 64, 98
1, 225881, Note_on_c, 0, 72, 34
1, 225885, Control_c, 0, 64, 77
1, 225900, Control_c, 0, 64, 66
1, 225915, Control_c, 0, 64, 52
1, 225930, Control_c, 0, 64, 0
1, 226156, Note_on_c, 0, 65, 57
1, 226187, Note_off_c, 0, 65, 64
1, 226442, Note_off_c, 0, 74, 48
1, 226449, Note_off_c, 0, 72, 44
1, 226449, Note_off_c, 0, 75, 61
1, 226451, Note_off_c, 0, 73, 44
1, 226453, Note_off_c, 0, 71, 54
1, 226488, Note_on_c, 0, 52, 59
1, 226527, Note_off_c, 0, 52, 65
1, 226823, Note_on_c, 0, 80, 46
1, 226834, Note_on_c, 0, 79, 44
1, 226836, Note_on_c, 0, 76, 36
1, 226846, Note_on_c, 0, 50, 40
1, 226850, Note_on_c, 0, 42, 36
1, 226875, Note_on_c, 0, 77, 4
1, 226878, Note_off_c, 0, 50, 52
1, 226881, Poly_aftertouch_c, 0, 78, 127
1, 226895, Note_off_c, 0, 79, 0
1, 226895, Note_on_c, 0, 79, 4
1, 226896, Note_off_c, 0, 42, 45
1, 227170, Note_on_c, 0, 39, 41
1, 227205, Note_off_c, 0, 39, 57
1, 227562, Note_on_c, 0, 36, 37
1, 227596, Note_off_c, 0, 36, 49
1, 228250, Note_on_c, 0, 83, 55
1, 228276, Note_on_c, 0, 82, 38
1, 228283, Note_on_c, 0, 81, 42
1, 228291, Note_off_c, 0, 79, 38
1, 228299, Note_off_c, 0, 77, 34
1, 228316, Poly_aftertouch_c, 0, 78, 0
1, 228329, Note_off_c, 0, 76, 41
1, 228864, Control_c, 0, 64, 21
1, 228879, Control_c, 0, 64, 37
1, 228894, Control_c, 0, 64, 45
1, 228909, Control_c, 0, 64, 50
1, 228923, Control_c, 0, 64, 53
1, 228938, Control_c, 0, 64, 54
1, 228961, Control_c, 0, 64, 57
1, 228975, Control_c, 0, 64, 59
1, 228990, Control_c, 0, 64, 60
1, 229005, Control_c, 0, 64, 62
1, 229021, Control_c, 0, 64, 63
1, 229036, Control_c, 0, 64, 63
1, 229051, Control_c, 0, 64, 64
1, 229066, Control_c, 0, 64, 65
1, 229080, Control_c, 0, 64, 66
1, 229095, Control_c, 0, 64, 68
1, 229110, Control_c, 0, 64, 69
1, 229125, Control_c, 0, 64, 71
1, 229140, Control_c, 0, 64, 73
1, 229154, Control_c, 0, 64, 75
1, 229169, Control_c, 0, 64, 78
1, 229184, Control_c, 0, 64, 80
1, 229198, Control_c, 0, 64, 82
1, 229213, Control_c, 0, 64, 86
1, 229228, Control_c, 0, 64, 91
1, 229241, Note_on_c, 0, 102, 44
1, 229243, Control_c, 0, 64, 101
1, 229258, Control_c, 0, 64, 117
1, 229272, Control_c, 0, 64, 127
1, 229385, Note_on_c, 0, 98, 26
1, 229474, Note_off_c, 0, 102, 58
1, 229504, Note_on_c, 0, 89, 43
1, 229535, Note_off_c, 0, 98, 36
1, 229610, Note_off_c, 0, 89, 56
1, 229647, Note_off_c, 0, 81, 35
1, 229657, Note_off_c, 0, 83, 37
1, 229661, Note_on_c, 0, 93, 37
1, 229703, Note_off_c, 0, 82, 44
1, 229724, Note_off_c, 0, 80, 43
1, 229797, Note_off_c, 0, 93, 40
1, 229812, Note_on_c, 0, 87, 38
1, 229952, Note_on_c, 0, 92, 47
1, 230013, Note_off_c, 0, 87, 39
1, 230114, Note_on_c, 0, 95, 41
1, 230160, Note_off_c, 0, 92, 0
1, 230204, Poly_aftertouch_c, 0, 92, 0
1, 230266, Note_off_c, 0, 95, 44
1, 230267, Note_on_c, 0, 97, 32
1, 230300, Note_off_c, 0, 97, 54
1, 230470, Note_on_c, 0, 96, 43
1, 230485, Note_on_c, 0, 73, 23
1, 230490, Note_on_c, 0, 70, 22
1, 230494, Note_on_c, 0, 72, 33
1, 230502, Note_on_c, 0, 71, 40
1, 230510, Note_on_c, 0, 69, 33
1, 230678, Note_on_c, 0, 100, 36
1, 230908, Note_on_c, 0, 103, 35
1, 231151, Note_on_c, 0, 106, 46
1, 231351, Note_off_c, 0, 106, 39
1, 231363, Note_off_c, 0, 103, 22
1, 231411, Note_off_c, 0, 100, 44
1, 231428, Note_off_c, 0, 96, 52
1, 231993, Note_on_c, 0, 44, 58
1, 232002, Control_c, 0, 64, 97
1, 232017, Control_c, 0, 64, 76
1, 232026, Note_off_c, 0, 44, 64
1, 232032, Control_c, 0, 64, 65
1, 232046, Control_c, 0, 64, 44
1, 232061, Control_c, 0, 64, 0
1, 232521, Note_on_c, 0, 55, 47
1, 232556, Note_off_c, 0, 55, 64
1, 233224, Note_on_c, 0, 33, 42
1, 233267, Note_off_c, 0, 33, 59
1, 234083, Note_on_c, 0, 80, 38
1, 234089, Note_on_c, 0, 84, 44
1, 234098, Note_on_c, 0, 83, 41
1, 234099, Note_on_c, 0, 81, 43
1, 234112, Note_on_c, 0, 82, 30
1, 234176, Note_off_c, 0, 71, 44
1, 234195, Note_off_c, 0, 72, 46
1, 234212, Note_off_c, 0, 69, 46
1, 234221, Note_off_c, 0, 73, 44
1, 234222, Note_off_c, 0, 70, 46
1, 234921, Note_on_c, 0, 40, 46
1, 234967, Note_off_c, 0, 40, 49
1, 235233, Note_on_c, 0, 49, 41
1, 235263, Note_off_c, 0, 49, 56
1, 235543, Note_off_c, 0, 84, 58
1, 235555, Note_off_c, 0, 83, 57
1, 235563, Note_off_c, 0, 81, 53
1, 235570, Note_on_c, 0, 58, 48
1, 235573, Note_off_c, 0, 82, 50
1, 235582, Note_off_c, 0, 80, 62
1, 235620, Note_off_c, 0, 58, 58
1, 235948, Note_on_c, 0, 76, 43
1, 235952, Note_on_c, 0, 72, 35
1, 235963, Note_on_c, 0, 75, 22
1, 235966, Note_on_c, 0, 74, 31
1, 235968, Note_on_c, 0, 73, 23
1, 236778, Note_on_c, 0, 62, 43
1, 236792, Note_on_c, 0, 53, 24
1, 236823, Note_off_c, 0, 62, 48
1, 236832, Note_off_c, 0, 53, 53
1, 237653, Note_on_c, 0, 44, 38
1, 237687, Note_off_c, 0, 44, 50
1, 238722, Note_on_c, 0, 36, 31
1, 238745, Note_on_c, 0, 47, 39
1, 238779, Note_off_c, 0, 36, 45
1, 238797, Note_off_c, 0, 47, 58
1, 240143, Note_on_c, 0, 67, 30
1, 240154, Note_on_c, 0, 65, 26
1, 240158, Note_on_c, 0, 66, 17
1, 240163, Note_on_c, 0, 63, 32
1, 240164, Note_on_c, 0, 64, 32
1, 240229, Note_off_c, 0, 72, 43
1, 240247, Note_off_c, 0, 74, 36
1, 240268, Note_off_c, 0, 73, 38
1, 240338, Note_off_c, 0, 75, 38
1, 240339, Note_off_c, 0, 76, 36
1, 241061, Control_c, 0, 64, 17
1, 241076, Control_c, 0, 64, 36
1, 241091, Control_c, 0, 64, 43
1, 241105, Control_c, 0, 64, 47
1, 241120, Control_c, 0, 64, 50
1, 241135, Control_c, 0, 64, 53
1, 241150, Control_c, 0, 64, 56
1, 241165, Control_c, 0, 64, 58
1, 241180, Control_c, 0, 64, 59
1, 241195, Control_c, 0, 64, 61
1, 241210, Control_c, 0, 64, 62
1, 241225, Control_c, 0, 64, 63
1, 241240, Control_c, 0, 64, 63
1, 241254, Control_c, 0, 64, 64
1, 241269, Control_c, 0, 64, 64
1, 241284, Control_c, 0, 64, 65
1, 241298, Control_c, 0, 64, 66
1, 241313, Control_c, 0, 64, 68
1, 241328, Control_c, 0, 64, 69
1, 241343, Control_c, 0, 64, 71
1, 241358, Control_c, 0, 64, 72
1, 241372, Control_c, 0, 64, 73
1, 241387, Control_c, 0, 64, 75
1, 241402, Control_c, 0, 64, 76
1, 241417, Control_c, 0, 64, 77
1, 241432, Control_c, 0, 64, 78
1, 241446, Control_c, 0, 64, 80
1, 241461, Control_c, 0, 64, 81
1, 241476, Control_c, 0, 64, 83
1, 241491, Control_c, 0, 64, 85
1, 241505, Control_c, 0, 64, 87
1, 241520, Control_c, 0, 64, 90
1, 241535, Control_c, 0, 64, 93
1, 241550, Control_c, 0, 64, 97
1, 241565, Control_c, 0, 64, 102
1, 241579, Control_c, 0, 64, 108
1, 241594, Control_c, 0, 64, 119
1, 241609, Control_c, 0, 64, 127
1, 241817, Note_off_c, 0, 67, 39
1, 241851, Note_off_c, 0, 66, 40
1, 241877, Note_off_c, 0, 65, 38
1, 241944, Note_off_c, 0, 64, 40
1, 242322, Note_off_c, 0, 63, 41
1, 242697, Note_on_c, 0, 70, 29
1, 242702, Note_on_c, 0, 66, 28
1, 242703, Note_on_c, 0, 69, 40
1, 242707, Note_on_c, 0, 67, 36
1, 242716, Note_on_c, 0, 68, 29
1, 242751, Control_c, 0, 64, 103
1, 242766, Control_c, 0, 64, 89
1, 242781, Control_c, 0, 64, 79
1, 242796, Control_c, 0, 64, 71
1, 242811, Control_c, 0, 64, 64
1, 242825, Control_c, 0, 64, 48
1, 242840, Control_c, 0, 64, 0
1, 243726, Note_on_c, 0, 61, 44
1, 243770, Note_off_c, 0, 61, 59
1, 243791, Note_on_c, 0, 52, 44
1, 243819, Note_off_c, 0, 52, 54
1, 244196, Note_on_c, 0, 45, 45
1, 244234, Note_off_c, 0, 45, 63
1, 244674, Note_on_c, 0, 39, 44
1, 244704, Note_off_c, 0, 39, 57
1, 245257, Note_on_c, 0, 43, 39
1, 245311, Note_off_c, 0, 43, 43
1, 246070, Note_on_c, 0, 22, 35
1, 246116, Note_off_c, 0, 22, 50
1, 247262, Note_off_c, 0, 69, 0
1, 247300, Poly_aftertouch_c, 0, 69, 127
1, 247423, Control_c, 0, 64, 26
1, 247438, Control_c, 0, 64, 43
1, 247453, Control_c, 0, 64, 50
1, 247467, Control_c, 0, 64, 53
1, 247482, Control_c, 0, 64, 55
1, 247496, Control_c, 0, 64, 56
1, 247511, Control_c, 0, 64, 59
1, 247526, Control_c, 0, 64, 60
1, 247541, Control_c, 0, 64, 62
1, 247556, Control_c, 0, 64, 63
1, 247571, Control_c, 0, 64, 64
1, 247586, Control_c, 0, 64, 65
1, 247601, Control_c, 0, 64, 66
1, 247615, Control_c, 0, 64, 68
1, 247630, Control_c, 0, 64, 70
1, 247645, Control_c, 0, 64, 73
1, 247666, Control_c, 0, 64, 76
1, 247681, Control_c, 0, 64, 80
1, 247696, Control_c, 0, 64, 85
1, 247711, Control_c, 0, 64, 93
1, 247726, Control_c, 0, 64, 101
1, 247741, Control_c, 0, 64, 119
1, 247756, Control_c, 0, 64, 127
1, 248562, Note_on_c, 0, 102, 43
1, 248742, Note_on_c, 0, 98, 40
1, 248864, Note_off_c, 0, 102, 49
1, 248919, Note_on_c, 0, 89, 35
1, 248956, Note_off_c, 0, 98, 39
1, 249055, Note_off_c, 0, 89, 40
1, 249097, Note_on_c, 0, 93, 27
1, 249257, Note_off_c, 0, 93, 37
1, 249267, Note_on_c, 0, 87, 45
1, 249442, Note_on_c, 0, 92, 47
1, 249482, Note_off_c, 0, 87, 38
1, 249629, Note_on_c, 0, 95, 40
1, 249741, Note_off_c, 0, 92, 37
1, 249807, Note_on_c, 0, 97, 45
1, 249836, Note_off_c, 0, 95, 42
1, 249863, Note_off_c, 0, 97, 58
1, 250029, Note_on_c, 0, 96, 33
1, 250255, Note_on_c, 0, 100, 45
1, 250499, Note_on_c, 0, 103, 35
1, 250832, Note_on_c, 0, 106, 34
1, 250999, Note_off_c, 0, 103, 26
1, 251539, Note_off_c, 0, 106, 24
1, 251650, Note_off_c, 0, 100, 12
1, 251955, Note_off_c, 0, 96, 16
1, 253901, Note_on_c, 0, 102, 38
1, 254113, Note_on_c, 0, 98, 34
1, 254181, Note_off_c, 0, 102, 47
1, 254305, Note_off_c, 0, 98, 40
1, 254322, Note_on_c, 0, 89, 40
1, 254508, Note_off_c, 0, 89, 50
1, 254548, Note_on_c, 0, 93, 28
1, 254760, Note_off_c, 0, 93, 40
1, 254766, Note_on_c, 0, 87, 36
1, 254985, Note_on_c, 0, 92, 45
1, 255140, Note_off_c, 0, 87, 33
1, 255229, Note_on_c, 0, 95, 46
1, 255414, Note_off_c, 0, 92, 29
1, 255483, Note_on_c, 0, 97, 37
1, 255521, Note_off_c, 0, 95, 41
1, 255562, Note_off_c, 0, 97, 37
1, 255760, Note_on_c, 0, 96, 41
1, 256129, Note_on_c, 0, 100, 42
1, 256571, Note_on_c, 0, 103, 34
1, 256858, Note_off_c, 0, 103, 32
1, 256991, Note_off_c, 0, 96, 26
1, 257030, Note_off_c, 0, 100, 24
1, 257296, Note_on_c, 0, 106, 35
1, 257508, Note_off_c, 0, 106, 36
1, 264706, Poly_aftertouch_c, 0, 69, 0
1, 264747, Note_off_c, 0, 68, 38
1, 264757, Note_off_c, 0, 67, 39
1, 264842, Note_off_c, 0, 66, 41
1, 264901, Note_off_c, 0, 70, 38
1, 265229, Control_c, 0, 64, 117
1, 265244, Control_c, 0, 64, 108
1, 265259, Control_c, 0, 64, 102
1, 265273, Control_c, 0, 64, 97
1, 265288, Control_c, 0, 64, 93
1, 265303, Control_c, 0, 64, 90
1, 265317, Control_c, 0, 64, 87
1, 265332, Control_c, 0, 64, 84
1, 265347, Control_c, 0, 64, 81
1, 265362, Control_c, 0, 64, 79
1, 265377, Control_c, 0, 64, 76
1, 265391, Control_c, 0, 64, 74
1, 265406, Control_c, 0, 64, 72
1, 265421, Control_c, 0, 64, 70
1, 265436, Control_c, 0, 64, 68
1, 265451, Control_c, 0, 64, 67
1, 265465, Control_c, 0, 64, 66
1, 265480, Control_c, 0, 64, 64
1, 265495, Control_c, 0, 64, 63
1, 265510, Control_c, 0, 64, 62
1, 265525, Control_c, 0, 64, 60
1, 265540, Control_c, 0, 64, 58
1, 265555, Control_c, 0, 64, 57
1, 265570, Control_c, 0, 64, 54
1, 265584, Control_c, 0, 64, 52
1, 265599, Control_c, 0, 64, 48
1, 265614, Control_c, 0, 64, 44
1, 265636, Control_c, 0, 64, 39
1, 265651, Control_c, 0, 64, 32
1, 265665, Control_c, 0, 64, 23
1, 265680, Control_c, 0, 64, 0
1, 265755, End_track
0, 0, End_of_file
