0, 0, Header, 0, 1, 384
1, 0, Start_track
1, 0, Title_t, "Scherzo Op. 31--Andrej Jussow   "
1, 0, Text_t, "2009 Piano-e-Competition audition round"
1, 0, Text_t, "captured January 2009"
1, 0, Text_t, "http://www.piano-e-competition.com/"
1, 0, Text_t, "File processed for distribution by software from Zenph Studios, Inc., http://www.zenph.com"
1, 0, Instrument_name_t, "Yamaha Disklavier Pro Mark IV concert grand piano, model DCFIIISM4PRO"
1, 0, Sequencer_specific, 39, 67, 113, 0, 1, 0, 1, 0, 83, 99, 104, 101, 114, 122, 111, 32, 79, 112, 46, 32, 51, 49, 32, 32, 65, 110, 100, 114, 101, 106, 32, 74, 117, 115, 115, 111, 119, 32, 32, 32
1, 0, Sequencer_specific, 6, 67, 113, 0, 0, 0, 69
1, 0, System_exclusive, 21, 67, 113, 126, 21, 0, 2, 2, 0, 3, 14, 1, 4, 1, 13, 13, 10, 11, 9, 2, 7, 247
1, 0, Sequencer_specific, 5, 67, 123, 12, 2, 1
1, 0, Tempo, 512820
1, 0, Time_signature, 4, 2, 24, 8
1, 0, System_exclusive, 5, 126, 127, 9, 1, 247
1, 1, System_exclusive, 8, 67, 16, 76, 0, 0, 126, 0, 247
1, 2, System_exclusive, 8, 67, 16, 76, 8, 9, 7, 1, 247
1, 3, Control_c, 0, 0, 0
1, 3, Control_c, 1, 0, 0
1, 3, Control_c, 2, 0, 0
1, 3, Control_c, 3, 0, 0
1, 3, Control_c, 4, 0, 0
1, 3, Control_c, 5, 0, 0
1, 3, Control_c, 6, 0, 0
1, 3, Control_c, 7, 0, 0
1, 3, Control_c, 8, 0, 0
1, 3, Control_c, 9, 0, 127
1, 3, Control_c, 10, 0, 0
1, 3, Control_c, 11, 0, 0
1, 3, Control_c, 12, 0, 0
1, 3, Control_c, 13, 0, 0
1, 3, Control_c, 14, 0, 0
1, 3, Control_c, 15, 0, 0
1, 4, Control_c, 0, 32, 0
1, 4, Control_c, 1, 32, 0
1, 4, Control_c, 2, 32, 0
1, 4, Control_c, 3, 32, 0
1, 4, Control_c, 4, 32, 0
1, 4, Control_c, 5, 32, 0
1, 4, Control_c, 6, 32, 0
1, 4, Control_c, 7, 32, 0
1, 4, Control_c, 8, 32, 0
1, 4, Control_c, 9, 32, 0
1, 4, Control_c, 10, 32, 0
1, 4, Control_c, 11, 32, 0
1, 4, Control_c, 12, 32, 0
1, 4, Control_c, 13, 32, 0
1, 4, Control_c, 14, 32, 0
1, 4, Control_c, 15, 32, 0
1, 5, Program_c, 0, 0
1, 5, Program_c, 1, 0
1, 5, Program_c, 2, 0
1, 5, Program_c, 3, 0
1, 5, Program_c, 4, 0
1, 5, Program_c, 5, 0
1, 5, Program_c, 6, 0
1, 5, Program_c, 7, 0
1, 5, Program_c, 8, 0
1, 5, Program_c, 9, 0
1, 5, Program_c, 10, 0
1, 5, Program_c, 11, 0
1, 5, Program_c, 12, 0
1, 5, Program_c, 13, 0
1, 5, Program_c, 14, 0
1, 5, Program_c, 15, 0
1, 6, Control_c, 0, 7, 100
1, 6, Control_c, 1, 7, 100
1, 6, Control_c, 2, 7, 100
1, 6, Control_c, 3, 7, 100
1, 6, Control_c, 4, 7, 100
1, 6, Control_c, 5, 7, 100
1, 6, Control_c, 6, 7, 100
1, 6, Control_c, 7, 7, 100
1, 6, Control_c, 8, 7, 100
1, 6, Control_c, 9, 7, 100
1, 6, Control_c, 10, 7, 100
1, 6, Control_c, 11, 7, 100
1, 6, Control_c, 12, 7, 100
1, 6, Control_c, 13, 7, 100
1, 6, Control_c, 14, 7, 100
1, 6, Control_c, 15, 7, 100
1, 117, Control_c, 0, 67, 15
1, 229, Control_c, 0, 67, 31
1, 341, Control_c, 0, 67, 46
1, 452, Control_c, 0, 67, 63
1, 564, Control_c, 0, 67, 77
1, 676, Control_c, 0, 67, 94
1, 787, Control_c, 0, 67, 108
1, 899, Control_c, 0, 67, 127
1, 1127, Control_c, 0, 64, 96
1, 1135, Note_on_c, 0, 58, 39
1, 1141, Control_c, 0, 64, 90
1, 1154, Note_on_c, 0, 46, 37
1, 1156, Control_c, 0, 64, 85
1, 1171, Control_c, 0, 64, 79
1, 1186, Control_c, 0, 64, 72
1, 1201, Control_c, 0, 64, 65
1, 1215, Control_c, 0, 64, 55
1, 1230, Control_c, 0, 64, 39
1, 1245, Control_c, 0, 64, 0
1, 1259, Note_off_c, 0, 46, 0
1, 1296, Poly_aftertouch_c, 0, 46, 127
1, 1421, Note_off_c, 0, 58, 41
1, 1428, Poly_aftertouch_c, 0, 46, 0
1, 1458, Note_on_c, 0, 45, 37
1, 1473, Note_on_c, 0, 57, 24
1, 1528, Note_off_c, 0, 45, 51
1, 1529, Note_off_c, 0, 57, 43
1, 1538, Note_on_c, 0, 58, 40
1, 1560, Note_on_c, 0, 46, 9
1, 1576, Note_on_c, 0, 61, 47
1, 1586, Note_on_c, 0, 49, 44
1, 1587, Note_off_c, 0, 46, 44
1, 1616, Note_off_c, 0, 49, 59
1, 1616, Note_off_c, 0, 58, 56
1, 1625, Note_on_c, 0, 65, 54
1, 1626, Note_on_c, 0, 53, 52
1, 1640, Note_off_c, 0, 61, 60
1, 1652, Note_off_c, 0, 53, 63
1, 1661, Note_off_c, 0, 65, 64
1, 1969, Note_on_c, 0, 45, 20
1, 1977, Note_on_c, 0, 57, 32
1, 2009, Note_on_c, 0, 46, 40
1, 2020, Note_on_c, 0, 58, 39
1, 2040, Note_off_c, 0, 57, 42
1, 2053, Note_on_c, 0, 61, 42
1, 2066, Note_on_c, 0, 49, 40
1, 2075, Note_off_c, 0, 46, 51
1, 2079, Note_off_c, 0, 45, 37
1, 2093, Note_on_c, 0, 65, 47
1, 2099, Note_on_c, 0, 53, 45
1, 2108, Note_off_c, 0, 49, 61
1, 2127, Note_off_c, 0, 58, 51
1, 2133, Note_off_c, 0, 61, 50
1, 2144, Note_off_c, 0, 53, 60
1, 2160, Note_off_c, 0, 65, 59
1, 2950, Control_c, 0, 67, 116
1, 2965, Control_c, 0, 67, 89
1, 2980, Control_c, 0, 67, 46
1, 2994, Control_c, 0, 67, 0
1, 3008, Note_on_c, 0, 46, 102
1, 3009, Control_c, 0, 64, 20
1, 3012, Note_on_c, 0, 34, 89
1, 3023, Note_on_c, 0, 58, 81
1, 3024, Control_c, 0, 64, 61
1, 3035, Note_off_c, 0, 34, 67
1, 3038, Note_off_c, 0, 58, 70
1, 3038, Control_c, 0, 64, 74
1, 3041, Note_off_c, 0, 46, 64
1, 3053, Control_c, 0, 64, 92
1, 3068, Control_c, 0, 64, 127
1, 3619, Note_on_c, 0, 94, 98
1, 3621, Note_on_c, 0, 82, 96
1, 3623, Note_on_c, 0, 70, 79
1, 3630, Note_on_c, 0, 58, 63
1, 3630, Note_on_c, 0, 90, 85
1, 3631, Note_on_c, 0, 66, 75
1, 3643, Note_on_c, 0, 63, 58
1, 3645, Note_on_c, 0, 60, 49
1, 3645, Note_off_c, 0, 70, 69
1, 3649, Note_off_c, 0, 58, 66
1, 3655, Note_off_c, 0, 66, 67
1, 3665, Note_off_c, 0, 63, 62
1, 3670, Note_off_c, 0, 60, 55
1, 3726, Note_on_c, 0, 70, 13
1, 3765, Note_off_c, 0, 70, 43
1, 4095, Note_off_c, 0, 90, 63
1, 4108, Note_off_c, 0, 94, 60
1, 4154, Note_off_c, 0, 82, 58
1, 4405, Note_on_c, 0, 70, 63
1, 4409, Note_on_c, 0, 87, 75
1, 4411, Note_on_c, 0, 75, 71
1, 4415, Note_on_c, 0, 84, 70
1, 4420, Note_on_c, 0, 58, 40
1, 4420, Note_on_c, 0, 63, 47
1, 4420, Note_on_c, 0, 66, 47
1, 4430, Note_off_c, 0, 70, 65
1, 4445, Note_off_c, 0, 63, 59
1, 4447, Note_off_c, 0, 66, 56
1, 4448, Note_off_c, 0, 75, 61
1, 4450, Note_off_c, 0, 58, 52
1, 4476, Note_off_c, 0, 84, 49
1, 4506, Poly_aftertouch_c, 0, 60, 0
1, 4507, Note_off_c, 0, 87, 63
1, 4545, Note_on_c, 0, 66, 62
1, 4546, Note_on_c, 0, 70, 64
1, 4549, Note_on_c, 0, 63, 55
1, 4554, Note_on_c, 0, 89, 79
1, 4563, Note_on_c, 0, 77, 58
1, 4573, Note_off_c, 0, 66, 65
1, 4573, Note_off_c, 0, 70, 67
1, 4577, Note_off_c, 0, 63, 66
1, 4582, Note_off_c, 0, 77, 64
1, 4599, Poly_aftertouch_c, 0, 58, 0
1, 4606, Poly_aftertouch_c, 0, 60, 127
1, 4611, Control_c, 0, 64, 94
1, 4624, Note_on_c, 0, 70, 74
1, 4626, Control_c, 0, 64, 64
1, 4627, Note_on_c, 0, 90, 89
1, 4633, Note_on_c, 0, 66, 68
1, 4636, Poly_aftertouch_c, 0, 58, 127
1, 4637, Note_on_c, 0, 78, 80
1, 4640, Control_c, 0, 64, 0
1, 4641, Note_off_c, 0, 70, 64
1, 4650, Note_on_c, 0, 63, 46
1, 4654, Note_off_c, 0, 66, 62
1, 4667, Note_off_c, 0, 89, 27
1, 4676, Poly_aftertouch_c, 0, 60, 0
1, 4678, Note_off_c, 0, 63, 58
1, 4686, Poly_aftertouch_c, 0, 58, 0
1, 4710, Note_off_c, 0, 78, 57
1, 4789, Control_c, 0, 64, 33
1, 4791, Note_on_c, 0, 89, 84
1, 4796, Note_on_c, 0, 65, 74
1, 4797, Note_on_c, 0, 77, 91
1, 4799, Note_on_c, 0, 58, 62
1, 4799, Note_on_c, 0, 70, 73
1, 4804, Note_on_c, 0, 85, 80
1, 4804, Control_c, 0, 64, 60
1, 4815, Note_on_c, 0, 61, 54
1, 4819, Control_c, 0, 64, 78
1, 4821, Note_off_c, 0, 77, 69
1, 4823, Note_off_c, 0, 90, 66
1, 4823, Note_off_c, 0, 65, 66
1, 4826, Note_off_c, 0, 70, 67
1, 4826, Note_off_c, 0, 89, 65
1, 4829, Note_off_c, 0, 85, 67
1, 4833, Note_off_c, 0, 58, 64
1, 4834, Control_c, 0, 64, 127
1, 4844, Note_off_c, 0, 61, 65
1, 5004, Control_c, 0, 67, 8
1, 5019, Control_c, 0, 67, 12
1, 5034, Control_c, 0, 67, 19
1, 5049, Control_c, 0, 67, 34
1, 5063, Control_c, 0, 67, 62
1, 5078, Control_c, 0, 67, 111
1, 5093, Control_c, 0, 64, 76
1, 5093, Control_c, 0, 67, 127
1, 5107, Control_c, 0, 64, 43
1, 5122, Control_c, 0, 64, 0
1, 5177, Note_on_c, 0, 45, 30
1, 5188, Note_on_c, 0, 57, 36
1, 5217, Note_off_c, 0, 45, 56
1, 5229, Note_on_c, 0, 46, 40
1, 5230, Note_off_c, 0, 57, 48
1, 5231, Note_on_c, 0, 58, 40
1, 5271, Note_on_c, 0, 61, 47
1, 5272, Note_off_c, 0, 46, 60
1, 5276, Note_on_c, 0, 49, 48
1, 5300, Note_on_c, 0, 65, 59
1, 5303, Note_off_c, 0, 58, 60
1, 5310, Note_off_c, 0, 49, 64
1, 5314, Note_off_c, 0, 61, 52
1, 5315, Note_on_c, 0, 53, 52
1, 5339, Note_off_c, 0, 65, 63
1, 5340, Note_off_c, 0, 53, 61
1, 5622, Note_on_c, 0, 45, 45
1, 5642, Note_on_c, 0, 57, 33
1, 5680, Note_on_c, 0, 46, 43
1, 5688, Note_off_c, 0, 57, 47
1, 5688, Note_on_c, 0, 58, 39
1, 5688, Note_off_c, 0, 45, 54
1, 5727, Note_on_c, 0, 49, 50
1, 5728, Note_off_c, 0, 46, 58
1, 5741, Note_on_c, 0, 61, 28
1, 5749, Note_on_c, 0, 65, 51
1, 5758, Note_off_c, 0, 58, 58
1, 5762, Note_off_c, 0, 49, 63
1, 5765, Note_on_c, 0, 53, 54
1, 5782, Note_off_c, 0, 61, 50
1, 5802, Note_off_c, 0, 65, 59
1, 5803, Note_off_c, 0, 53, 64
1, 6287, Control_c, 0, 67, 127
1, 6302, Control_c, 0, 67, 127
1, 6383, Control_c, 0, 67, 125
1, 6398, Control_c, 0, 67, 124
1, 6428, Control_c, 0, 67, 122
1, 6442, Control_c, 0, 67, 119
1, 6457, Control_c, 0, 67, 117
1, 6472, Control_c, 0, 67, 110
1, 6487, Control_c, 0, 67, 100
1, 6502, Control_c, 0, 67, 85
1, 6516, Control_c, 0, 67, 57
1, 6531, Control_c, 0, 67, 19
1, 6546, Control_c, 0, 67, 0
1, 6588, Note_on_c, 0, 44, 101
1, 6591, Control_c, 0, 64, 59
1, 6594, Note_on_c, 0, 32, 76
1, 6594, Note_on_c, 0, 56, 100
1, 6606, Control_c, 0, 64, 72
1, 6614, Note_off_c, 0, 56, 71
1, 6618, Note_off_c, 0, 32, 65
1, 6621, Control_c, 0, 64, 84
1, 6626, Note_off_c, 0, 44, 62
1, 6635, Control_c, 0, 64, 112
1, 6650, Control_c, 0, 64, 127
1, 6749, Poly_aftertouch_c, 0, 56, 0
1, 7065, Note_on_c, 0, 56, 47
1, 7144, Note_on_c, 0, 65, 67
1, 7144, Note_off_c, 0, 56, 61
1, 7229, Note_on_c, 0, 92, 94
1, 7232, Note_on_c, 0, 80, 98
1, 7234, Note_off_c, 0, 65, 55
1, 7238, Note_on_c, 0, 89, 90
1, 7242, Note_on_c, 0, 73, 82
1, 7262, Note_off_c, 0, 73, 71
1, 7721, Note_off_c, 0, 89, 62
1, 7727, Note_off_c, 0, 92, 62
1, 7774, Note_off_c, 0, 80, 59
1, 8036, Note_on_c, 0, 87, 83
1, 8041, Note_on_c, 0, 84, 76
1, 8043, Note_on_c, 0, 75, 75
1, 8051, Note_on_c, 0, 68, 70
1, 8055, Note_on_c, 0, 56, 63
1, 8064, Note_on_c, 0, 66, 50
1, 8065, Note_on_c, 0, 63, 52
1, 8078, Note_off_c, 0, 68, 67
1, 8081, Note_off_c, 0, 56, 59
1, 8087, Note_off_c, 0, 66, 58
1, 8087, Note_off_c, 0, 75, 56
1, 8088, Note_off_c, 0, 63, 63
1, 8111, Note_off_c, 0, 84, 61
1, 8137, Note_off_c, 0, 87, 63
1, 8163, Control_c, 0, 64, 108
1, 8164, Note_on_c, 0, 66, 70
1, 8166, Note_on_c, 0, 68, 61
1, 8166, Note_on_c, 0, 89, 86
1, 8168, Note_on_c, 0, 63, 68
1, 8169, Note_on_c, 0, 56, 68
1, 8178, Note_on_c, 0, 77, 65
1, 8178, Control_c, 0, 64, 62
1, 8185, Note_off_c, 0, 68, 65
1, 8187, Note_off_c, 0, 66, 65
1, 8191, Note_off_c, 0, 63, 66
1, 8193, Control_c, 0, 64, 0
1, 8195, Note_off_c, 0, 56, 59
1, 8196, Note_off_c, 0, 77, 67
1, 8215, Note_off_c, 0, 89, 65
1, 8248, Note_on_c, 0, 90, 88
1, 8249, Note_on_c, 0, 68, 68
1, 8257, Note_on_c, 0, 63, 66
1, 8257, Note_on_c, 0, 66, 58
1, 8267, Note_off_c, 0, 68, 67
1, 8269, Note_on_c, 0, 78, 64
1, 8278, Note_off_c, 0, 66, 62
1, 8284, Note_off_c, 0, 63, 65
1, 8286, Note_on_c, 0, 56, 21
1, 8301, Note_off_c, 0, 78, 48
1, 8330, Note_off_c, 0, 56, 29
1, 8396, Note_on_c, 0, 68, 70
1, 8404, Note_on_c, 0, 61, 67
1, 8406, Note_on_c, 0, 89, 89
1, 8411, Note_on_c, 0, 77, 92
1, 8412, Note_on_c, 0, 65, 63
1, 8415, Control_c, 0, 64, 52
1, 8415, Note_on_c, 0, 85, 87
1, 8425, Note_off_c, 0, 68, 67
1, 8430, Control_c, 0, 64, 71
1, 8434, Note_off_c, 0, 77, 70
1, 8434, Note_off_c, 0, 89, 66
1, 8437, Note_off_c, 0, 65, 67
1, 8437, Note_off_c, 0, 90, 64
1, 8445, Control_c, 0, 64, 92
1, 8446, Note_off_c, 0, 61, 63
1, 8448, Note_off_c, 0, 85, 62
1, 8459, Control_c, 0, 64, 127
1, 8673, Control_c, 0, 64, 75
1, 8689, Control_c, 0, 64, 32
1, 8704, Control_c, 0, 64, 0
1, 8881, Note_on_c, 0, 77, 89
1, 8888, Note_on_c, 0, 69, 84
1, 8892, Note_on_c, 0, 65, 68
1, 8894, Note_on_c, 0, 53, 67
1, 8896, Control_c, 0, 64, 42
1, 8901, Note_on_c, 0, 60, 52
1, 8907, Note_off_c, 0, 77, 69
1, 8909, Note_off_c, 0, 65, 65
1, 8909, Note_off_c, 0, 69, 69
1, 8911, Control_c, 0, 64, 75
1, 8920, Note_off_c, 0, 53, 63
1, 8922, Note_off_c, 0, 60, 58
1, 8926, Control_c, 0, 64, 127
1, 8982, Note_on_c, 0, 69, 7
1, 9013, Note_off_c, 0, 69, 51
1, 9356, Note_on_c, 0, 65, 86
1, 9363, Note_on_c, 0, 57, 85
1, 9364, Note_on_c, 0, 53, 76
1, 9372, Note_on_c, 0, 41, 63
1, 9372, Note_on_c, 0, 48, 75
1, 9388, Note_off_c, 0, 57, 67
1, 9390, Note_off_c, 0, 53, 66
1, 9393, Note_off_c, 0, 65, 67
1, 9396, Note_off_c, 0, 48, 66
1, 9404, Note_off_c, 0, 41, 64
1, 9921, Note_on_c, 0, 41, 89
1, 9932, Note_on_c, 0, 29, 75
1, 9971, Control_c, 0, 64, 92
1, 9986, Control_c, 0, 64, 64
1, 10001, Control_c, 0, 64, 28
1, 10016, Control_c, 0, 64, 0
1, 10934, Control_c, 0, 64, 21
1, 10949, Control_c, 0, 64, 41
1, 10964, Control_c, 0, 64, 54
1, 10977, Note_off_c, 0, 29, 61
1, 10979, Control_c, 0, 64, 62
1, 10989, Note_off_c, 0, 41, 63
1, 10994, Control_c, 0, 64, 66
1, 11008, Control_c, 0, 64, 69
1, 11023, Control_c, 0, 64, 75
1, 11038, Control_c, 0, 64, 82
1, 11052, Control_c, 0, 64, 87
1, 11067, Control_c, 0, 64, 93
1, 11083, Control_c, 0, 64, 101
1, 11098, Control_c, 0, 64, 127
1, 11317, Note_on_c, 0, 42, 79
1, 11319, Note_on_c, 0, 30, 71
1, 11341, Note_off_c, 0, 42, 67
1, 11352, Note_off_c, 0, 30, 64
1, 11379, Control_c, 0, 64, 86
1, 11394, Control_c, 0, 64, 64
1, 11409, Control_c, 0, 64, 38
1, 11423, Control_c, 0, 64, 0
1, 12305, Control_c, 0, 67, 8
1, 12320, Control_c, 0, 67, 9
1, 12335, Control_c, 0, 67, 11
1, 12358, Control_c, 0, 67, 12
1, 12372, Control_c, 0, 67, 14
1, 12387, Control_c, 0, 67, 16
1, 12402, Control_c, 0, 67, 20
1, 12417, Control_c, 0, 67, 23
1, 12431, Control_c, 0, 67, 27
1, 12446, Control_c, 0, 67, 31
1, 12461, Control_c, 0, 67, 38
1, 12476, Control_c, 0, 67, 46
1, 12491, Control_c, 0, 67, 54
1, 12505, Control_c, 0, 67, 62
1, 12520, Control_c, 0, 67, 69
1, 12535, Control_c, 0, 67, 75
1, 12550, Control_c, 0, 67, 82
1, 12565, Control_c, 0, 67, 89
1, 12580, Control_c, 0, 67, 99
1, 12595, Control_c, 0, 67, 108
1, 12609, Control_c, 0, 67, 117
1, 12624, Control_c, 0, 67, 126
1, 12639, Control_c, 0, 67, 127
1, 12908, Note_on_c, 0, 57, 30
1, 12911, Note_on_c, 0, 45, 32
1, 12949, Note_off_c, 0, 57, 50
1, 12954, Note_off_c, 0, 45, 58
1, 12955, Note_on_c, 0, 58, 39
1, 12979, Note_on_c, 0, 46, 33
1, 13001, Note_on_c, 0, 61, 46
1, 13012, Note_on_c, 0, 49, 45
1, 13015, Note_off_c, 0, 46, 48
1, 13036, Note_off_c, 0, 58, 59
1, 13037, Note_on_c, 0, 65, 54
1, 13039, Note_off_c, 0, 61, 58
1, 13041, Note_off_c, 0, 49, 61
1, 13060, Note_on_c, 0, 53, 38
1, 13069, Note_off_c, 0, 65, 65
1, 13101, Note_off_c, 0, 53, 33
1, 13395, Note_on_c, 0, 57, 33
1, 13403, Poly_aftertouch_c, 0, 45, 127
1, 13434, Note_on_c, 0, 46, 32
1, 13437, Note_on_c, 0, 58, 31
1, 13447, Note_off_c, 0, 57, 44
1, 13461, Poly_aftertouch_c, 0, 45, 0
1, 13475, Note_on_c, 0, 61, 32
1, 13480, Note_on_c, 0, 49, 37
1, 13484, Note_off_c, 0, 46, 45
1, 13493, Note_on_c, 0, 65, 49
1, 13522, Note_on_c, 0, 53, 43
1, 13525, Note_off_c, 0, 49, 55
1, 13551, Note_off_c, 0, 61, 41
1, 13558, Note_off_c, 0, 58, 50
1, 13562, Note_off_c, 0, 53, 62
1, 13581, Note_off_c, 0, 65, 59
1, 14330, Control_c, 0, 67, 124
1, 14345, Control_c, 0, 67, 84
1, 14360, Control_c, 0, 67, 21
1, 14374, Control_c, 0, 67, 0
1, 14383, Note_on_c, 0, 46, 101
1, 14389, Control_c, 0, 64, 50
1, 14390, Note_on_c, 0, 34, 82
1, 14398, Note_on_c, 0, 58, 76
1, 14404, Control_c, 0, 64, 72
1, 14410, Note_off_c, 0, 46, 65
1, 14411, Note_off_c, 0, 34, 68
1, 14414, Note_off_c, 0, 58, 69
1, 14419, Control_c, 0, 64, 91
1, 14434, Control_c, 0, 64, 127
1, 14955, Note_on_c, 0, 94, 93
1, 14956, Note_on_c, 0, 82, 95
1, 14962, Note_on_c, 0, 70, 83
1, 14963, Note_on_c, 0, 90, 86
1, 14966, Note_on_c, 0, 66, 82
1, 14967, Note_on_c, 0, 58, 69
1, 14980, Note_on_c, 0, 63, 67
1, 14982, Note_off_c, 0, 70, 69
1, 14985, Note_on_c, 0, 60, 52
1, 14990, Note_off_c, 0, 66, 69
1, 14993, Note_off_c, 0, 58, 68
1, 15008, Note_off_c, 0, 60, 57
1, 15008, Note_off_c, 0, 63, 65
1, 15063, Note_on_c, 0, 70, 13
1, 15101, Note_off_c, 0, 70, 42
1, 15321, Note_off_c, 0, 90, 62
1, 15324, Note_off_c, 0, 94, 61
1, 15364, Note_off_c, 0, 82, 63
1, 15561, Note_on_c, 0, 70, 76
1, 15561, Note_on_c, 0, 75, 70
1, 15562, Note_on_c, 0, 87, 72
1, 15566, Note_on_c, 0, 66, 69
1, 15567, Note_on_c, 0, 84, 63
1, 15571, Note_on_c, 0, 63, 60
1, 15576, Note_on_c, 0, 58, 54
1, 15584, Note_off_c, 0, 75, 66
1, 15586, Note_off_c, 0, 70, 67
1, 15587, Note_off_c, 0, 84, 67
1, 15588, Note_off_c, 0, 87, 69
1, 15590, Note_off_c, 0, 63, 66
1, 15593, Note_off_c, 0, 66, 67
1, 15597, Note_off_c, 0, 58, 63
1, 15628, Note_on_c, 0, 60, 3
1, 15637, Note_on_c, 0, 87, 80
1, 15638, Note_on_c, 0, 70, 67
1, 15638, Note_on_c, 0, 75, 72
1, 15644, Note_on_c, 0, 84, 69
1, 15647, Note_on_c, 0, 66, 67
1, 15653, Note_off_c, 0, 75, 70
1, 15665, Note_off_c, 0, 66, 68
1, 15665, Note_off_c, 0, 70, 67
1, 15668, Note_off_c, 0, 84, 67
1, 15671, Note_off_c, 0, 87, 57
1, 15681, Note_off_c, 0, 60, 51
1, 15720, Poly_aftertouch_c, 0, 63, 127
1, 15754, Poly_aftertouch_c, 0, 63, 0
1, 15785, Note_on_c, 0, 66, 54
1, 15787, Note_on_c, 0, 60, 66
1, 15788, Note_on_c, 0, 70, 57
1, 15790, Note_on_c, 0, 84, 58
1, 15797, Note_on_c, 0, 75, 83
1, 15798, Note_on_c, 0, 63, 54
1, 15798, Note_on_c, 0, 87, 90
1, 15814, Note_off_c, 0, 66, 65
1, 15814, Note_off_c, 0, 70, 66
1, 15822, Note_off_c, 0, 60, 58
1, 15823, Note_off_c, 0, 63, 63
1, 15845, Note_off_c, 0, 75, 64
1, 15859, Note_off_c, 0, 84, 61
1, 15885, Note_off_c, 0, 87, 64
1, 15936, Note_on_c, 0, 66, 74
1, 15939, Note_on_c, 0, 70, 71
1, 15940, Note_on_c, 0, 60, 44
1, 15940, Note_on_c, 0, 89, 86
1, 15943, Note_on_c, 0, 63, 54
1, 15957, Note_on_c, 0, 77, 61
1, 15964, Note_off_c, 0, 70, 66
1, 15966, Note_off_c, 0, 66, 66
1, 15969, Note_off_c, 0, 60, 53
1, 15972, Note_off_c, 0, 63, 67
1, 15976, Note_off_c, 0, 77, 65
1, 15976, Control_c, 0, 64, 86
1, 15991, Control_c, 0, 64, 62
1, 16005, Control_c, 0, 64, 0
1, 16014, Note_on_c, 0, 90, 90
1, 16024, Note_on_c, 0, 66, 69
1, 16026, Note_on_c, 0, 70, 68
1, 16028, Note_on_c, 0, 78, 77
1, 16042, Note_off_c, 0, 70, 65
1, 16044, Note_on_c, 0, 58, 21
1, 16045, Note_off_c, 0, 89, 66
1, 16049, Note_off_c, 0, 66, 65
1, 16061, Note_on_c, 0, 60, 7
1, 16075, Note_off_c, 0, 78, 51
1, 16076, Note_off_c, 0, 58, 51
1, 16123, Note_off_c, 0, 60, 32
1, 16176, Control_c, 0, 64, 37
1, 16181, Note_on_c, 0, 70, 63
1, 16182, Note_on_c, 0, 58, 66
1, 16184, Note_on_c, 0, 65, 65
1, 16184, Note_on_c, 0, 89, 88
1, 16189, Note_on_c, 0, 61, 63
1, 16191, Note_on_c, 0, 77, 92
1, 16191, Control_c, 0, 64, 63
1, 16193, Note_on_c, 0, 85, 85
1, 16206, Note_off_c, 0, 70, 67
1, 16206, Note_off_c, 0, 89, 70
1, 16206, Control_c, 0, 64, 81
1, 16211, Note_off_c, 0, 65, 66
1, 16214, Note_off_c, 0, 77, 68
1, 16217, Note_off_c, 0, 90, 60
1, 16219, Note_off_c, 0, 58, 65
1, 16220, Control_c, 0, 64, 127
1, 16224, Note_off_c, 0, 61, 66
1, 16225, Note_off_c, 0, 85, 64
1, 16383, Control_c, 0, 67, 15
1, 16398, Control_c, 0, 67, 39
1, 16413, Control_c, 0, 67, 80
1, 16428, Control_c, 0, 67, 125
1, 16443, Control_c, 0, 64, 76
1, 16443, Control_c, 0, 67, 127
1, 16458, Control_c, 0, 64, 47
1, 16472, Control_c, 0, 64, 0
1, 16507, Note_on_c, 0, 45, 42
1, 16516, Note_on_c, 0, 57, 53
1, 16556, Note_off_c, 0, 45, 59
1, 16558, Note_off_c, 0, 57, 62
1, 16559, Note_on_c, 0, 46, 47
1, 16568, Note_on_c, 0, 58, 48
1, 16599, Note_off_c, 0, 46, 62
1, 16605, Note_on_c, 0, 49, 50
1, 16610, Note_on_c, 0, 61, 50
1, 16639, Note_off_c, 0, 49, 64
1, 16640, Note_off_c, 0, 61, 65
1, 16644, Note_on_c, 0, 53, 55
1, 16644, Note_on_c, 0, 65, 65
1, 16652, Note_off_c, 0, 58, 57
1, 16672, Note_off_c, 0, 53, 63
1, 16678, Note_off_c, 0, 65, 65
1, 16960, Note_on_c, 0, 45, 39
1, 16973, Note_on_c, 0, 57, 37
1, 17010, Note_on_c, 0, 46, 49
1, 17012, Note_off_c, 0, 57, 53
1, 17016, Note_on_c, 0, 58, 49
1, 17037, Note_off_c, 0, 45, 52
1, 17057, Note_on_c, 0, 61, 44
1, 17067, Note_off_c, 0, 46, 55
1, 17071, Note_on_c, 0, 49, 46
1, 17093, Note_on_c, 0, 65, 59
1, 17095, Note_off_c, 0, 61, 52
1, 17108, Note_off_c, 0, 49, 64
1, 17110, Note_off_c, 0, 58, 63
1, 17112, Note_on_c, 0, 53, 51
1, 17146, Note_off_c, 0, 65, 60
1, 17152, Note_off_c, 0, 53, 63
1, 17674, Control_c, 0, 67, 126
1, 17689, Control_c, 0, 67, 122
1, 17704, Control_c, 0, 67, 119
1, 17718, Control_c, 0, 67, 115
1, 17733, Control_c, 0, 67, 110
1, 17748, Control_c, 0, 67, 104
1, 17763, Control_c, 0, 67, 94
1, 17778, Control_c, 0, 67, 77
1, 17792, Control_c, 0, 67, 49
1, 17807, Control_c, 0, 67, 8
1, 17822, Control_c, 0, 67, 0
1, 17868, Note_on_c, 0, 36, 97
1, 17874, Note_on_c, 0, 48, 95
1, 17875, Note_on_c, 0, 24, 81
1, 17881, Control_c, 0, 64, 59
1, 17896, Note_off_c, 0, 24, 65
1, 17896, Control_c, 0, 64, 73
1, 17908, Note_off_c, 0, 48, 66
1, 17909, Note_off_c, 0, 36, 66
1, 17910, Control_c, 0, 64, 84
1, 17925, Control_c, 0, 64, 127
1, 18534, Note_on_c, 0, 96, 97
1, 18535, Note_on_c, 0, 84, 96
1, 18542, Note_on_c, 0, 92, 93
1, 18544, Note_on_c, 0, 72, 93
1, 18550, Note_on_c, 0, 60, 69
1, 18554, Note_on_c, 0, 68, 79
1, 18564, Note_on_c, 0, 65, 69
1, 18566, Note_off_c, 0, 72, 67
1, 18574, Note_off_c, 0, 60, 66
1, 18580, Note_off_c, 0, 68, 67
1, 18593, Note_off_c, 0, 65, 66
1, 19094, Note_off_c, 0, 92, 64
1, 19111, Note_off_c, 0, 96, 64
1, 19167, Note_off_c, 0, 84, 64
1, 19337, Note_on_c, 0, 91, 75
1, 19341, Note_on_c, 0, 79, 81
1, 19344, Note_on_c, 0, 88, 69
1, 19349, Note_on_c, 0, 72, 72
1, 19354, Note_on_c, 0, 60, 63
1, 19355, Note_on_c, 0, 70, 65
1, 19364, Note_on_c, 0, 64, 53
1, 19367, Note_off_c, 0, 79, 63
1, 19376, Note_off_c, 0, 72, 64
1, 19379, Note_off_c, 0, 60, 57
1, 19382, Note_off_c, 0, 70, 66
1, 19388, Note_off_c, 0, 64, 61
1, 19394, Note_off_c, 0, 91, 63
1, 19400, Note_off_c, 0, 88, 60
1, 19474, Note_on_c, 0, 92, 86
1, 19477, Note_on_c, 0, 72, 61
1, 19477, Note_on_c, 0, 70, 69
1, 19480, Note_on_c, 0, 64, 56
1, 19482, Note_on_c, 0, 80, 71
1, 19490, Note_on_c, 0, 88, 54
1, 19491, Note_on_c, 0, 60, 46
1, 19492, Note_off_c, 0, 92, 70
1, 19497, Control_c, 0, 64, 84
1, 19499, Note_off_c, 0, 80, 65
1, 19504, Note_off_c, 0, 70, 66
1, 19505, Note_off_c, 0, 72, 65
1, 19511, Note_off_c, 0, 88, 63
1, 19512, Control_c, 0, 64, 55
1, 19513, Note_off_c, 0, 64, 62
1, 19527, Control_c, 0, 64, 0
1, 19554, Note_on_c, 0, 94, 85
1, 19557, Note_on_c, 0, 82, 83
1, 19557, Note_off_c, 0, 60, 0
1, 19566, Note_on_c, 0, 72, 61
1, 19570, Note_on_c, 0, 92, 54
1, 19570, Note_on_c, 0, 60, 27
1, 19575, Note_off_c, 0, 94, 67
1, 19577, Note_on_c, 0, 70, 46
1, 19584, Note_off_c, 0, 72, 61
1, 19593, Note_off_c, 0, 92, 59
1, 19602, Note_off_c, 0, 82, 56
1, 19603, Note_off_c, 0, 60, 41
1, 19603, Note_off_c, 0, 70, 59
1, 19725, Note_on_c, 0, 80, 90
1, 19726, Note_on_c, 0, 72, 80
1, 19727, Note_on_c, 0, 89, 85
1, 19728, Note_on_c, 0, 92, 88
1, 19731, Note_on_c, 0, 65, 76
1, 19734, Control_c, 0, 64, 40
1, 19740, Note_on_c, 0, 68, 74
1, 19746, Note_off_c, 0, 92, 74
1, 19747, Note_off_c, 0, 72, 68
1, 19749, Control_c, 0, 64, 64
1, 19750, Note_off_c, 0, 89, 70
1, 19752, Note_off_c, 0, 65, 67
1, 19760, Note_off_c, 0, 80, 63
1, 19764, Control_c, 0, 64, 82
1, 19764, Note_off_c, 0, 68, 68
1, 19779, Control_c, 0, 64, 127
1, 19826, Note_on_c, 0, 72, 19
1, 19856, Note_on_c, 0, 65, 3
1, 19877, Note_off_c, 0, 72, 30
1, 19893, Note_off_c, 0, 65, 35
1, 19994, Control_c, 0, 64, 99
1, 20009, Control_c, 0, 64, 66
1, 20024, Control_c, 0, 64, 21
1, 20039, Control_c, 0, 64, 0
1, 20180, Note_on_c, 0, 80, 88
1, 20183, Note_on_c, 0, 68, 86
1, 20186, Note_on_c, 0, 65, 81
1, 20190, Note_on_c, 0, 72, 78
1, 20193, Note_on_c, 0, 53, 64
1, 20195, Note_on_c, 0, 77, 71
1, 20196, Note_on_c, 0, 60, 69
1, 20202, Control_c, 0, 64, 55
1, 20204, Note_off_c, 0, 68, 71
1, 20204, Note_off_c, 0, 80, 67
1, 20210, Note_off_c, 0, 65, 69
1, 20211, Note_off_c, 0, 72, 68
1, 20217, Control_c, 0, 64, 78
1, 20219, Note_off_c, 0, 77, 69
1, 20220, Note_off_c, 0, 60, 64
1, 20222, Note_off_c, 0, 53, 65
1, 20231, Control_c, 0, 64, 127
1, 20269, Note_on_c, 0, 68, 26
1, 20294, Note_off_c, 0, 68, 58
1, 20640, Note_on_c, 0, 68, 88
1, 20640, Note_on_c, 0, 56, 86
1, 20643, Note_on_c, 0, 60, 83
1, 20645, Note_on_c, 0, 53, 78
1, 20646, Note_on_c, 0, 41, 71
1, 20649, Note_on_c, 0, 48, 76
1, 20649, Note_on_c, 0, 65, 77
1, 20666, Note_off_c, 0, 56, 67
1, 20673, Note_off_c, 0, 53, 66
1, 20676, Note_off_c, 0, 41, 64
1, 20679, Note_off_c, 0, 60, 63
1, 20679, Note_off_c, 0, 68, 64
1, 20681, Note_off_c, 0, 65, 66
1, 20682, Note_off_c, 0, 48, 66
1, 21162, Note_on_c, 0, 40, 93
1, 21170, Note_on_c, 0, 28, 83
1, 21217, Control_c, 0, 64, 92
1, 21232, Control_c, 0, 64, 66
1, 21247, Control_c, 0, 64, 0
1, 22041, Control_c, 0, 64, 33
1, 22054, Control_c, 0, 64, 46
1, 22069, Control_c, 0, 64, 52
1, 22091, Control_c, 0, 64, 56
1, 22106, Control_c, 0, 64, 59
1, 22121, Control_c, 0, 64, 62
1, 22136, Control_c, 0, 64, 64
1, 22151, Control_c, 0, 64, 66
1, 22165, Control_c, 0, 64, 68
1, 22180, Control_c, 0, 64, 71
1, 22195, Control_c, 0, 64, 74
1, 22202, Note_off_c, 0, 40, 59
1, 22209, Control_c, 0, 64, 79
1, 22224, Control_c, 0, 64, 84
1, 22239, Control_c, 0, 64, 91
1, 22248, Note_off_c, 0, 28, 35
1, 22255, Control_c, 0, 64, 98
1, 22270, Control_c, 0, 64, 107
1, 22285, Control_c, 0, 64, 127
1, 22493, Note_on_c, 0, 29, 82
1, 22493, Note_on_c, 0, 41, 97
1, 22526, Note_off_c, 0, 29, 65
1, 22539, Note_off_c, 0, 41, 65
1, 22566, Control_c, 0, 64, 81
1, 22581, Control_c, 0, 64, 59
1, 22595, Control_c, 0, 64, 0
1, 23508, Note_on_c, 0, 101, 100
1, 23552, Note_on_c, 0, 37, 65
1, 23552, Control_c, 0, 64, 45
1, 23552, Note_on_c, 0, 25, 65
1, 23567, Control_c, 0, 64, 59
1, 23589, Control_c, 0, 64, 66
1, 23597, Note_off_c, 0, 37, 63
1, 23598, Note_off_c, 0, 25, 64
1, 23603, Control_c, 0, 64, 70
1, 23618, Control_c, 0, 64, 76
1, 23633, Control_c, 0, 64, 84
1, 23648, Control_c, 0, 64, 92
1, 23663, Control_c, 0, 64, 107
1, 23678, Control_c, 0, 64, 127
1, 23891, Note_on_c, 0, 44, 59
1, 23896, Note_on_c, 0, 56, 64
1, 23922, Note_off_c, 0, 44, 63
1, 23927, Note_off_c, 0, 56, 64
1, 24005, Note_on_c, 0, 61, 69
1, 24011, Note_on_c, 0, 53, 56
1, 24032, Note_off_c, 0, 61, 67
1, 24043, Note_off_c, 0, 53, 62
1, 24143, Note_off_c, 0, 101, 55
1, 24143, Note_on_c, 0, 99, 75
1, 24199, Note_on_c, 0, 97, 77
1, 24261, Note_on_c, 0, 92, 74
1, 24265, Note_on_c, 0, 44, 51
1, 24275, Note_off_c, 0, 99, 63
1, 24282, Note_on_c, 0, 56, 43
1, 24292, Note_off_c, 0, 44, 61
1, 24295, Note_off_c, 0, 97, 65
1, 24307, Note_off_c, 0, 56, 57
1, 24311, Note_off_c, 0, 92, 63
1, 24332, Note_on_c, 0, 89, 67
1, 24363, Note_off_c, 0, 89, 63
1, 24401, Note_on_c, 0, 87, 82
1, 24403, Note_on_c, 0, 53, 48
1, 24410, Note_on_c, 0, 61, 59
1, 24427, Note_off_c, 0, 61, 65
1, 24433, Note_off_c, 0, 53, 56
1, 24468, Note_on_c, 0, 85, 74
1, 24524, Note_on_c, 0, 80, 78
1, 24530, Control_c, 0, 67, 8
1, 24545, Control_c, 0, 67, 10
1, 24549, Note_off_c, 0, 87, 65
1, 24556, Note_off_c, 0, 85, 63
1, 24560, Control_c, 0, 67, 12
1, 24575, Control_c, 0, 67, 14
1, 24583, Note_off_c, 0, 80, 59
1, 24589, Note_on_c, 0, 77, 70
1, 24590, Control_c, 0, 67, 17
1, 24604, Control_c, 0, 67, 21
1, 24616, Note_off_c, 0, 77, 68
1, 24619, Control_c, 0, 67, 24
1, 24634, Control_c, 0, 67, 26
1, 24649, Control_c, 0, 67, 27
1, 24659, Note_on_c, 0, 75, 66
1, 24664, Control_c, 0, 67, 29
1, 24679, Control_c, 0, 67, 32
1, 24694, Control_c, 0, 64, 114
1, 24694, Control_c, 0, 67, 35
1, 24709, Control_c, 0, 64, 77
1, 24709, Control_c, 0, 67, 38
1, 24724, Control_c, 0, 64, 56
1, 24724, Control_c, 0, 67, 41
1, 24727, Note_off_c, 0, 75, 62
1, 24730, Note_on_c, 0, 73, 60
1, 24739, Control_c, 0, 64, 0
1, 24739, Control_c, 0, 67, 45
1, 24754, Control_c, 0, 67, 48
1, 24769, Control_c, 0, 67, 51
1, 24783, Control_c, 0, 67, 54
1, 24791, Note_off_c, 0, 73, 51
1, 24798, Control_c, 0, 67, 56
1, 24813, Control_c, 0, 67, 58
1, 24814, Note_on_c, 0, 68, 60
1, 24828, Control_c, 0, 67, 61
1, 24843, Control_c, 0, 67, 63
1, 24857, Control_c, 0, 67, 64
1, 24872, Control_c, 0, 67, 65
1, 24887, Control_c, 0, 67, 66
1, 24901, Control_c, 0, 67, 67
1, 24916, Control_c, 0, 67, 69
1, 24931, Control_c, 0, 67, 69
1, 24946, Control_c, 0, 67, 71
1, 24961, Control_c, 0, 67, 72
1, 24975, Control_c, 0, 67, 75
1, 24990, Control_c, 0, 67, 79
1, 25005, Control_c, 0, 67, 85
1, 25020, Control_c, 0, 67, 90
1, 25035, Control_c, 0, 67, 95
1, 25045, Note_off_c, 0, 68, 65
1, 25049, Control_c, 0, 67, 99
1, 25064, Control_c, 0, 67, 103
1, 25087, Control_c, 0, 67, 107
1, 25101, Control_c, 0, 67, 110
1, 25116, Control_c, 0, 67, 113
1, 25131, Control_c, 0, 67, 116
1, 25146, Control_c, 0, 67, 120
1, 25161, Control_c, 0, 67, 123
1, 25175, Control_c, 0, 67, 126
1, 25190, Control_c, 0, 67, 127
1, 25283, Note_on_c, 0, 32, 44
1, 25294, Control_c, 0, 64, 34
1, 25308, Control_c, 0, 64, 52
1, 25323, Control_c, 0, 64, 61
1, 25325, Note_off_c, 0, 32, 62
1, 25332, Note_on_c, 0, 44, 24
1, 25338, Control_c, 0, 64, 64
1, 25339, Note_on_c, 0, 72, 52
1, 25353, Control_c, 0, 64, 66
1, 25361, Note_off_c, 0, 44, 46
1, 25368, Control_c, 0, 64, 69
1, 25371, Note_off_c, 0, 72, 63
1, 25374, Note_on_c, 0, 73, 65
1, 25383, Control_c, 0, 64, 72
1, 25398, Control_c, 0, 64, 74
1, 25412, Control_c, 0, 64, 76
1, 25418, Note_off_c, 0, 73, 58
1, 25427, Control_c, 0, 64, 76
1, 25432, Note_on_c, 0, 75, 73
1, 25458, Control_c, 0, 64, 77
1, 25462, Note_off_c, 0, 75, 67
1, 25473, Control_c, 0, 64, 77
1, 25487, Control_c, 0, 64, 78
1, 25494, Note_on_c, 0, 77, 79
1, 25502, Control_c, 0, 64, 78
1, 25549, Note_off_c, 0, 77, 55
1, 25564, Note_on_c, 0, 78, 65
1, 25591, Control_c, 0, 64, 76
1, 25594, Note_on_c, 0, 80, 70
1, 25602, Note_off_c, 0, 78, 58
1, 25606, Control_c, 0, 64, 69
1, 25621, Control_c, 0, 64, 58
1, 25636, Control_c, 0, 64, 26
1, 25647, Note_on_c, 0, 55, 46
1, 25650, Control_c, 0, 64, 0
1, 25657, Note_on_c, 0, 81, 75
1, 25662, Note_off_c, 0, 80, 61
1, 25666, Note_on_c, 0, 66, 51
1, 25677, Note_on_c, 0, 60, 39
1, 25681, Note_off_c, 0, 81, 68
1, 25703, Note_off_c, 0, 66, 62
1, 25713, Note_off_c, 0, 60, 50
1, 25807, Note_on_c, 0, 60, 57
1, 25812, Note_on_c, 0, 66, 56
1, 25814, Note_off_c, 0, 55, 55
1, 25827, Note_on_c, 0, 56, 51
1, 25845, Note_off_c, 0, 60, 64
1, 25849, Note_off_c, 0, 66, 64
1, 25855, Note_off_c, 0, 56, 62
1, 25945, Note_on_c, 0, 66, 50
1, 25949, Note_on_c, 0, 56, 46
1, 25955, Note_on_c, 0, 60, 27
1, 25969, Note_off_c, 0, 66, 59
1, 25979, Note_off_c, 0, 56, 53
1, 25994, Note_off_c, 0, 60, 39
1, 26051, Note_on_c, 0, 81, 59
1, 26111, Note_on_c, 0, 80, 65
1, 26121, Note_off_c, 0, 81, 62
1, 26152, Note_off_c, 0, 80, 61
1, 26169, Note_on_c, 0, 79, 63
1, 26197, Note_off_c, 0, 79, 63
1, 26223, Note_on_c, 0, 78, 60
1, 26266, Note_off_c, 0, 78, 62
1, 26283, Note_on_c, 0, 77, 60
1, 26319, Note_off_c, 0, 77, 67
1, 26338, Note_on_c, 0, 76, 51
1, 26362, Note_off_c, 0, 76, 56
1, 26406, Note_on_c, 0, 75, 53
1, 26414, Note_on_c, 0, 66, 42
1, 26423, Note_on_c, 0, 57, 30
1, 26426, Note_on_c, 0, 60, 35
1, 26426, Note_off_c, 0, 75, 62
1, 26429, Control_c, 0, 64, 37
1, 26444, Control_c, 0, 64, 51
1, 26459, Control_c, 0, 64, 58
1, 26469, Note_off_c, 0, 66, 44
1, 26473, Control_c, 0, 64, 62
1, 26477, Note_off_c, 0, 57, 47
1, 26487, Note_off_c, 0, 60, 41
1, 26488, Control_c, 0, 64, 64
1, 26503, Control_c, 0, 64, 67
1, 26518, Control_c, 0, 64, 70
1, 26533, Control_c, 0, 64, 75
1, 26547, Control_c, 0, 64, 81
1, 26562, Control_c, 0, 64, 86
1, 26584, Control_c, 0, 64, 91
1, 26599, Control_c, 0, 64, 91
1, 26613, Note_on_c, 0, 60, 56
1, 26613, Note_on_c, 0, 66, 56
1, 26614, Control_c, 0, 64, 91
1, 26617, Note_on_c, 0, 56, 54
1, 26629, Control_c, 0, 64, 84
1, 26635, Note_off_c, 0, 66, 62
1, 26635, Note_off_c, 0, 60, 61
1, 26641, Note_off_c, 0, 56, 60
1, 26644, Control_c, 0, 64, 70
1, 26658, Control_c, 0, 64, 50
1, 26673, Control_c, 0, 64, 0
1, 26762, Control_c, 0, 67, 125
1, 26775, Note_on_c, 0, 66, 50
1, 26775, Note_on_c, 0, 56, 47
1, 26777, Control_c, 0, 67, 114
1, 26792, Control_c, 0, 67, 103
1, 26799, Note_off_c, 0, 66, 58
1, 26807, Control_c, 0, 67, 87
1, 26814, Note_off_c, 0, 56, 63
1, 26822, Control_c, 0, 67, 60
1, 26836, Control_c, 0, 67, 8
1, 26851, Control_c, 0, 67, 0
1, 26853, Poly_aftertouch_c, 0, 60, 0
1, 26963, Note_on_c, 0, 101, 100
1, 26969, Control_c, 0, 64, 42
1, 26984, Control_c, 0, 64, 73
1, 26992, Note_on_c, 0, 37, 80
1, 26993, Note_on_c, 0, 25, 82
1, 26999, Control_c, 0, 64, 88
1, 27014, Control_c, 0, 64, 127
1, 27027, Note_off_c, 0, 25, 64
1, 27027, Note_off_c, 0, 37, 64
1, 27322, Note_on_c, 0, 56, 73
1, 27328, Note_on_c, 0, 44, 53
1, 27349, Note_off_c, 0, 56, 65
1, 27353, Note_off_c, 0, 44, 59
1, 27427, Note_on_c, 0, 61, 77
1, 27430, Note_on_c, 0, 53, 64
1, 27464, Note_off_c, 0, 61, 60
1, 27473, Note_off_c, 0, 53, 59
1, 27553, Note_off_c, 0, 101, 39
1, 27561, Note_on_c, 0, 99, 79
1, 27614, Note_on_c, 0, 97, 81
1, 27674, Note_on_c, 0, 44, 59
1, 27677, Note_on_c, 0, 92, 78
1, 27688, Note_on_c, 0, 56, 50
1, 27693, Note_off_c, 0, 99, 65
1, 27705, Note_off_c, 0, 44, 65
1, 27712, Note_off_c, 0, 97, 66
1, 27714, Note_off_c, 0, 56, 57
1, 27731, Note_off_c, 0, 92, 62
1, 27735, Note_on_c, 0, 89, 78
1, 27782, Note_off_c, 0, 89, 63
1, 27809, Note_on_c, 0, 87, 86
1, 27811, Note_on_c, 0, 53, 57
1, 27818, Note_on_c, 0, 61, 60
1, 27838, Note_off_c, 0, 61, 62
1, 27843, Note_off_c, 0, 53, 64
1, 27878, Note_on_c, 0, 85, 74
1, 27934, Note_on_c, 0, 80, 74
1, 27958, Note_off_c, 0, 87, 65
1, 27965, Note_off_c, 0, 85, 63
1, 27993, Note_off_c, 0, 80, 59
1, 27994, Note_on_c, 0, 77, 74
1, 28020, Note_off_c, 0, 77, 69
1, 28064, Note_on_c, 0, 75, 67
1, 28097, Control_c, 0, 64, 105
1, 28112, Control_c, 0, 64, 72
1, 28112, Control_c, 0, 67, 8
1, 28126, Control_c, 0, 64, 47
1, 28126, Control_c, 0, 67, 11
1, 28135, Note_off_c, 0, 75, 58
1, 28141, Control_c, 0, 64, 0
1, 28141, Control_c, 0, 67, 12
1, 28152, Note_on_c, 0, 73, 52
1, 28156, Control_c, 0, 67, 13
1, 28186, Control_c, 0, 67, 13
1, 28200, Note_off_c, 0, 73, 59
1, 28200, Control_c, 0, 67, 14
1, 28215, Control_c, 0, 67, 15
1, 28230, Control_c, 0, 67, 17
1, 28236, Note_on_c, 0, 68, 54
1, 28244, Control_c, 0, 67, 22
1, 28259, Control_c, 0, 67, 29
1, 28274, Control_c, 0, 67, 36
1, 28289, Control_c, 0, 67, 42
1, 28304, Control_c, 0, 67, 47
1, 28319, Control_c, 0, 67, 51
1, 28334, Control_c, 0, 67, 53
1, 28349, Control_c, 0, 67, 57
1, 28364, Control_c, 0, 67, 64
1, 28378, Control_c, 0, 67, 73
1, 28393, Control_c, 0, 67, 82
1, 28408, Control_c, 0, 67, 91
1, 28423, Control_c, 0, 67, 99
1, 28438, Control_c, 0, 67, 104
1, 28438, Note_off_c, 0, 68, 65
1, 28452, Control_c, 0, 67, 107
1, 28467, Control_c, 0, 67, 110
1, 28482, Control_c, 0, 67, 113
1, 28586, Control_c, 0, 67, 114
1, 28615, Control_c, 0, 67, 115
1, 28630, Control_c, 0, 67, 117
1, 28646, Control_c, 0, 67, 119
1, 28661, Control_c, 0, 67, 121
1, 28665, Note_on_c, 0, 44, 38
1, 28671, Note_on_c, 0, 54, 31
1, 28675, Control_c, 0, 64, 33
1, 28675, Control_c, 0, 67, 125
1, 28690, Control_c, 0, 64, 53
1, 28690, Control_c, 0, 67, 127
1, 28701, Note_on_c, 0, 51, 4
1, 28705, Control_c, 0, 64, 61
1, 28713, Note_on_c, 0, 72, 59
1, 28720, Control_c, 0, 64, 65
1, 28735, Control_c, 0, 64, 68
1, 28749, Control_c, 0, 64, 73
1, 28751, Note_off_c, 0, 72, 65
1, 28754, Note_on_c, 0, 73, 69
1, 28764, Control_c, 0, 64, 79
1, 28779, Control_c, 0, 64, 82
1, 28795, Control_c, 0, 64, 86
1, 28809, Note_off_c, 0, 73, 60
1, 28809, Poly_aftertouch_c, 0, 80, 0
1, 28810, Control_c, 0, 64, 89
1, 28823, Note_on_c, 0, 75, 74
1, 28829, Note_off_c, 0, 44, 43
1, 28832, Control_c, 0, 64, 90
1, 28846, Control_c, 0, 64, 91
1, 28853, Note_off_c, 0, 75, 66
1, 28861, Control_c, 0, 64, 92
1, 28876, Control_c, 0, 64, 94
1, 28877, Note_on_c, 0, 77, 79
1, 28891, Control_c, 0, 64, 98
1, 28906, Control_c, 0, 64, 102
1, 28921, Control_c, 0, 64, 104
1, 28924, Note_off_c, 0, 77, 62
1, 28936, Control_c, 0, 64, 105
1, 28945, Note_on_c, 0, 78, 69
1, 28975, Note_on_c, 0, 80, 75
1, 28992, Note_off_c, 0, 78, 61
1, 29010, Control_c, 0, 64, 101
1, 29024, Control_c, 0, 64, 83
1, 29029, Note_off_c, 0, 51, 39
1, 29031, Note_off_c, 0, 54, 39
1, 29034, Note_on_c, 0, 60, 64
1, 29037, Note_on_c, 0, 81, 82
1, 29039, Control_c, 0, 64, 65
1, 29047, Note_off_c, 0, 80, 63
1, 29054, Control_c, 0, 64, 29
1, 29058, Note_off_c, 0, 81, 70
1, 29068, Control_c, 0, 64, 0
1, 29118, Note_on_c, 0, 61, 64
1, 29122, Note_off_c, 0, 60, 58
1, 29173, Note_off_c, 0, 61, 59
1, 29185, Note_on_c, 0, 63, 68
1, 29216, Note_off_c, 0, 63, 66
1, 29247, Note_on_c, 0, 65, 65
1, 29289, Note_off_c, 0, 65, 59
1, 29296, Note_on_c, 0, 66, 62
1, 29330, Note_off_c, 0, 66, 63
1, 29348, Note_on_c, 0, 68, 53
1, 29371, Note_off_c, 0, 68, 62
1, 29377, Note_on_c, 0, 81, 70
1, 29388, Note_on_c, 0, 69, 64
1, 29407, Note_off_c, 0, 69, 67
1, 29439, Note_on_c, 0, 80, 67
1, 29456, Note_off_c, 0, 81, 62
1, 29480, Note_off_c, 0, 80, 61
1, 29492, Note_on_c, 0, 79, 68
1, 29523, Note_off_c, 0, 79, 63
1, 29553, Note_on_c, 0, 78, 60
1, 29605, Note_off_c, 0, 78, 62
1, 29608, Note_on_c, 0, 77, 62
1, 29645, Note_off_c, 0, 77, 65
1, 29668, Note_on_c, 0, 76, 60
1, 29712, Note_off_c, 0, 76, 57
1, 29724, Note_on_c, 0, 57, 57
1, 29727, Note_on_c, 0, 75, 64
1, 29757, Note_off_c, 0, 75, 67
1, 29763, Note_off_c, 0, 57, 60
1, 29796, Note_on_c, 0, 56, 59
1, 29836, Note_off_c, 0, 56, 64
1, 29866, Note_on_c, 0, 55, 60
1, 29907, Note_off_c, 0, 55, 59
1, 29942, Note_on_c, 0, 54, 51
1, 30018, Note_off_c, 0, 54, 61
1, 30024, Note_on_c, 0, 53, 49
1, 30097, Note_off_c, 0, 53, 57
1, 30109, Note_on_c, 0, 51, 45
1, 30295, Note_on_c, 0, 49, 27
1, 30302, Note_off_c, 0, 51, 34
1, 30349, Note_on_c, 0, 77, 76
1, 30373, Control_c, 0, 64, 13
1, 30388, Control_c, 0, 64, 34
1, 30391, Note_on_c, 0, 71, 17
1, 30402, Control_c, 0, 64, 48
1, 30417, Control_c, 0, 64, 56
1, 30432, Control_c, 0, 64, 60
1, 30447, Control_c, 0, 64, 63
1, 30462, Control_c, 0, 64, 65
1, 30477, Control_c, 0, 64, 67
1, 30492, Control_c, 0, 64, 71
1, 30503, Note_off_c, 0, 49, 54
1, 30507, Control_c, 0, 64, 78
1, 30514, Note_on_c, 0, 56, 44
1, 30521, Control_c, 0, 64, 84
1, 30536, Control_c, 0, 64, 90
1, 30549, Note_off_c, 0, 56, 50
1, 30551, Control_c, 0, 64, 96
1, 30566, Control_c, 0, 64, 105
1, 30581, Control_c, 0, 64, 124
1, 30581, Note_on_c, 0, 61, 53
1, 30595, Control_c, 0, 64, 127
1, 30602, Note_off_c, 0, 61, 63
1, 30610, Control_c, 0, 67, 125
1, 30625, Control_c, 0, 67, 127
1, 30639, Control_c, 0, 67, 127
1, 30648, Note_on_c, 0, 65, 50
1, 30678, Note_off_c, 0, 65, 57
1, 30699, Control_c, 0, 67, 127
1, 30700, Note_on_c, 0, 61, 52
1, 30724, Note_off_c, 0, 61, 63
1, 30751, Note_on_c, 0, 56, 43
1, 30758, Control_c, 0, 67, 126
1, 30773, Control_c, 0, 67, 126
1, 30805, Note_off_c, 0, 56, 53
1, 30817, Note_on_c, 0, 49, 58
1, 30817, Control_c, 0, 67, 125
1, 30858, Note_off_c, 0, 49, 62
1, 30876, Control_c, 0, 67, 124
1, 30891, Control_c, 0, 67, 123
1, 30906, Control_c, 0, 67, 121
1, 30907, Note_on_c, 0, 59, 53
1, 30921, Control_c, 0, 67, 119
1, 30936, Control_c, 0, 67, 118
1, 30939, Note_off_c, 0, 59, 62
1, 30951, Control_c, 0, 67, 118
1, 30966, Control_c, 0, 64, 122
1, 30966, Control_c, 0, 67, 116
1, 30981, Control_c, 0, 64, 118
1, 30981, Control_c, 0, 67, 115
1, 30995, Control_c, 0, 64, 116
1, 30997, Note_on_c, 0, 75, 71
1, 31010, Control_c, 0, 64, 114
1, 31010, Control_c, 0, 67, 115
1, 31016, Note_on_c, 0, 61, 47
1, 31025, Control_c, 0, 64, 112
1, 31025, Control_c, 0, 67, 114
1, 31040, Control_c, 0, 64, 110
1, 31040, Control_c, 0, 67, 113
1, 31048, Note_off_c, 0, 61, 53
1, 31055, Control_c, 0, 64, 109
1, 31055, Control_c, 0, 67, 112
1, 31077, Control_c, 0, 64, 108
1, 31077, Control_c, 0, 67, 111
1, 31089, Note_off_c, 0, 77, 60
1, 31092, Control_c, 0, 64, 106
1, 31092, Control_c, 0, 67, 109
1, 31107, Control_c, 0, 64, 105
1, 31107, Control_c, 0, 67, 108
1, 31122, Control_c, 0, 64, 104
1, 31122, Control_c, 0, 67, 107
1, 31127, Note_on_c, 0, 65, 56
1, 31137, Control_c, 0, 64, 102
1, 31137, Control_c, 0, 67, 106
1, 31151, Control_c, 0, 64, 101
1, 31151, Control_c, 0, 67, 106
1, 31166, Note_off_c, 0, 65, 63
1, 31166, Control_c, 0, 64, 99
1, 31166, Control_c, 0, 67, 105
1, 31181, Control_c, 0, 64, 98
1, 31181, Control_c, 0, 67, 105
1, 31196, Note_on_c, 0, 61, 47
1, 31196, Control_c, 0, 64, 97
1, 31196, Control_c, 0, 67, 104
1, 31204, Note_on_c, 0, 73, 65
1, 31209, Note_off_c, 0, 75, 64
1, 31211, Note_off_c, 0, 71, 38
1, 31211, Control_c, 0, 64, 96
1, 31225, Control_c, 0, 64, 95
1, 31225, Control_c, 0, 67, 104
1, 31229, Note_off_c, 0, 61, 56
1, 31233, Note_off_c, 0, 73, 67
1, 31240, Control_c, 0, 64, 93
1, 31255, Control_c, 0, 64, 90
1, 31255, Control_c, 0, 67, 103
1, 31270, Control_c, 0, 64, 85
1, 31270, Control_c, 0, 67, 103
1, 31279, Note_on_c, 0, 59, 35
1, 31285, Control_c, 0, 64, 79
1, 31285, Control_c, 0, 67, 102
1, 31293, Note_on_c, 0, 73, 69
1, 31300, Control_c, 0, 64, 71
1, 31311, Note_off_c, 0, 59, 56
1, 31315, Control_c, 0, 64, 62
1, 31315, Control_c, 0, 67, 101
1, 31330, Control_c, 0, 64, 50
1, 31330, Control_c, 0, 67, 100
1, 31335, Note_on_c, 0, 54, 50
1, 31344, Note_on_c, 0, 71, 23
1, 31344, Control_c, 0, 64, 27
1, 31344, Control_c, 0, 67, 100
1, 31359, Control_c, 0, 64, 0
1, 31359, Control_c, 0, 67, 98
1, 31374, Control_c, 0, 67, 97
1, 31389, Control_c, 0, 64, 18
1, 31389, Control_c, 0, 67, 96
1, 31404, Control_c, 0, 64, 44
1, 31404, Control_c, 0, 67, 95
1, 31418, Control_c, 0, 64, 58
1, 31418, Control_c, 0, 67, 94
1, 31425, Note_on_c, 0, 59, 25
1, 31433, Control_c, 0, 64, 66
1, 31433, Control_c, 0, 67, 93
1, 31448, Control_c, 0, 64, 71
1, 31448, Control_c, 0, 67, 91
1, 31461, Note_off_c, 0, 59, 43
1, 31462, Note_on_c, 0, 61, 57
1, 31462, Control_c, 0, 64, 74
1, 31462, Control_c, 0, 67, 90
1, 31477, Control_c, 0, 64, 77
1, 31477, Control_c, 0, 67, 88
1, 31487, Note_off_c, 0, 61, 63
1, 31492, Control_c, 0, 64, 78
1, 31492, Control_c, 0, 67, 87
1, 31498, Note_off_c, 0, 54, 0
1, 31507, Control_c, 0, 64, 80
1, 31507, Control_c, 0, 67, 86
1, 31522, Control_c, 0, 64, 81
1, 31522, Control_c, 0, 67, 84
1, 31536, Control_c, 0, 64, 81
1, 31536, Control_c, 0, 67, 82
1, 31537, Poly_aftertouch_c, 0, 54, 0
1, 31538, Note_on_c, 0, 66, 58
1, 31551, Control_c, 0, 64, 82
1, 31551, Control_c, 0, 67, 80
1, 31559, Note_off_c, 0, 66, 61
1, 31566, Control_c, 0, 67, 78
1, 31580, Note_on_c, 0, 61, 57
1, 31581, Control_c, 0, 64, 82
1, 31581, Control_c, 0, 67, 77
1, 31596, Control_c, 0, 67, 76
1, 31605, Note_off_c, 0, 61, 59
1, 31693, Note_on_c, 0, 59, 13
1, 31699, Control_c, 0, 67, 76
1, 31714, Control_c, 0, 64, 82
1, 31729, Control_c, 0, 64, 80
1, 31734, Note_off_c, 0, 59, 39
1, 31744, Control_c, 0, 64, 77
1, 31744, Control_c, 0, 67, 75
1, 31759, Control_c, 0, 64, 72
1, 31774, Control_c, 0, 64, 64
1, 31777, Note_on_c, 0, 78, 73
1, 31782, Note_on_c, 0, 49, 51
1, 31783, Note_off_c, 0, 73, 63
1, 31789, Control_c, 0, 64, 52
1, 31791, Note_off_c, 0, 71, 50
1, 31803, Control_c, 0, 64, 25
1, 31803, Control_c, 0, 67, 74
1, 31809, Note_on_c, 0, 70, 39
1, 31825, Control_c, 0, 64, 0
1, 31825, Control_c, 0, 67, 73
1, 31841, Control_c, 0, 64, 17
1, 31841, Control_c, 0, 67, 72
1, 31856, Control_c, 0, 64, 42
1, 31856, Control_c, 0, 67, 71
1, 31871, Control_c, 0, 64, 58
1, 31871, Control_c, 0, 67, 70
1, 31879, Note_off_c, 0, 70, 0
1, 31879, Note_on_c, 0, 70, 8
1, 31886, Control_c, 0, 64, 65
1, 31886, Control_c, 0, 67, 69
1, 31900, Control_c, 0, 64, 68
1, 31915, Control_c, 0, 64, 71
1, 31915, Control_c, 0, 67, 68
1, 31923, Note_off_c, 0, 49, 60
1, 31928, Note_on_c, 0, 58, 46
1, 31930, Control_c, 0, 64, 73
1, 31930, Control_c, 0, 67, 67
1, 31945, Control_c, 0, 64, 76
1, 31945, Control_c, 0, 67, 65
1, 31959, Note_off_c, 0, 58, 55
1, 31960, Control_c, 0, 64, 80
1, 31960, Control_c, 0, 67, 61
1, 31974, Control_c, 0, 64, 83
1, 31974, Control_c, 0, 67, 58
1, 31989, Control_c, 0, 64, 86
1, 31989, Control_c, 0, 67, 56
1, 32004, Control_c, 0, 64, 87
1, 32004, Control_c, 0, 67, 54
1, 32019, Control_c, 0, 64, 88
1, 32023, Note_on_c, 0, 61, 28
1, 32034, Control_c, 0, 67, 54
1, 32048, Control_c, 0, 64, 88
1, 32059, Note_off_c, 0, 61, 45
1, 32062, Note_on_c, 0, 66, 56
1, 32063, Control_c, 0, 64, 89
1, 32063, Control_c, 0, 67, 53
1, 32093, Control_c, 0, 67, 52
1, 32094, Note_off_c, 0, 66, 56
1, 32108, Control_c, 0, 67, 51
1, 32122, Control_c, 0, 67, 51
1, 32158, Note_on_c, 0, 61, 39
1, 32167, Control_c, 0, 64, 88
1, 32188, Note_off_c, 0, 61, 50
1, 32197, Control_c, 0, 64, 87
1, 32207, Note_on_c, 0, 58, 24
1, 32212, Control_c, 0, 64, 81
1, 32227, Control_c, 0, 64, 74
1, 32233, Note_on_c, 0, 56, 59
1, 32241, Control_c, 0, 64, 65
1, 32241, Control_c, 0, 67, 50
1, 32245, Note_off_c, 0, 58, 41
1, 32256, Control_c, 0, 64, 53
1, 32259, Note_on_c, 0, 71, 56
1, 32271, Control_c, 0, 64, 31
1, 32283, Note_off_c, 0, 70, 55
1, 32285, Control_c, 0, 64, 0
1, 32300, Control_c, 0, 64, 26
1, 32300, Control_c, 0, 67, 50
1, 32315, Control_c, 0, 64, 47
1, 32315, Control_c, 0, 67, 49
1, 32330, Control_c, 0, 64, 59
1, 32330, Control_c, 0, 67, 47
1, 32345, Control_c, 0, 64, 66
1, 32345, Control_c, 0, 67, 46
1, 32359, Control_c, 0, 64, 68
1, 32359, Control_c, 0, 67, 45
1, 32374, Note_on_c, 0, 59, 19
1, 32374, Control_c, 0, 64, 72
1, 32374, Control_c, 0, 67, 43
1, 32389, Control_c, 0, 64, 75
1, 32389, Control_c, 0, 67, 41
1, 32392, Note_on_c, 0, 61, 58
1, 32404, Control_c, 0, 64, 79
1, 32404, Control_c, 0, 67, 40
1, 32412, Note_off_c, 0, 59, 54
1, 32418, Control_c, 0, 64, 82
1, 32418, Control_c, 0, 67, 38
1, 32419, Note_off_c, 0, 61, 58
1, 32433, Control_c, 0, 64, 85
1, 32433, Control_c, 0, 67, 37
1, 32448, Control_c, 0, 64, 86
1, 32448, Control_c, 0, 67, 36
1, 32462, Note_on_c, 0, 68, 57
1, 32463, Control_c, 0, 67, 35
1, 32478, Control_c, 0, 64, 87
1, 32478, Control_c, 0, 67, 34
1, 32484, Note_off_c, 0, 68, 61
1, 32492, Control_c, 0, 67, 33
1, 32506, Note_off_c, 0, 56, 36
1, 32516, Note_on_c, 0, 61, 64
1, 32537, Note_on_c, 0, 77, 67
1, 32538, Control_c, 0, 67, 33
1, 32570, Note_off_c, 0, 61, 55
1, 32575, Control_c, 0, 67, 32
1, 32582, Note_off_c, 0, 78, 34
1, 32590, Control_c, 0, 67, 31
1, 32600, Note_off_c, 0, 77, 62
1, 32605, Control_c, 0, 67, 31
1, 32617, Note_on_c, 0, 59, 34
1, 32619, Control_c, 0, 67, 30
1, 32634, Control_c, 0, 64, 86
1, 32650, Note_off_c, 0, 59, 47
1, 32650, Control_c, 0, 67, 30
1, 32665, Control_c, 0, 64, 86
1, 32665, Control_c, 0, 67, 28
1, 32680, Control_c, 0, 64, 85
1, 32680, Control_c, 0, 67, 25
1, 32695, Control_c, 0, 67, 23
1, 32696, Note_on_c, 0, 49, 55
1, 32698, Note_on_c, 0, 77, 72
1, 32710, Control_c, 0, 64, 85
1, 32710, Control_c, 0, 67, 21
1, 32724, Control_c, 0, 67, 19
1, 32738, Note_off_c, 0, 49, 59
1, 32739, Control_c, 0, 64, 84
1, 32739, Control_c, 0, 67, 19
1, 32754, Control_c, 0, 64, 84
1, 32754, Control_c, 0, 67, 18
1, 32763, Note_on_c, 0, 59, 44
1, 32784, Control_c, 0, 64, 83
1, 32784, Control_c, 0, 67, 17
1, 32796, Note_off_c, 0, 59, 54
1, 32798, Control_c, 0, 67, 17
1, 32813, Control_c, 0, 67, 16
1, 32828, Control_c, 0, 67, 16
1, 32829, Note_off_c, 0, 77, 63
1, 32835, Note_on_c, 0, 75, 70
1, 32843, Note_on_c, 0, 61, 59
1, 32857, Control_c, 0, 64, 83
1, 32857, Control_c, 0, 67, 15
1, 32869, Note_off_c, 0, 61, 62
1, 32887, Control_c, 0, 67, 15
1, 32902, Control_c, 0, 67, 14
1, 32909, Note_off_c, 0, 71, 36
1, 32915, Note_on_c, 0, 65, 58
1, 32931, Control_c, 0, 64, 82
1, 32948, Note_off_c, 0, 65, 56
1, 32960, Note_on_c, 0, 73, 71
1, 32965, Note_off_c, 0, 75, 56
1, 32966, Note_on_c, 0, 61, 56
1, 32976, Control_c, 0, 67, 14
1, 32990, Control_c, 0, 64, 82
1, 32990, Control_c, 0, 67, 13
1, 32992, Note_off_c, 0, 73, 63
1, 32999, Note_off_c, 0, 61, 52
1, 33005, Control_c, 0, 67, 11
1, 33020, Control_c, 0, 64, 81
1, 33020, Control_c, 0, 67, 10
1, 33029, Note_on_c, 0, 59, 26
1, 33035, Control_c, 0, 64, 81
1, 33035, Control_c, 0, 67, 9
1, 33049, Control_c, 0, 67, 8
1, 33064, Control_c, 0, 64, 79
1, 33067, Note_off_c, 0, 59, 53
1, 33079, Control_c, 0, 64, 77
1, 33094, Control_c, 0, 64, 71
1, 33094, Control_c, 0, 67, 8
1, 33109, Control_c, 0, 64, 61
1, 33113, Note_on_c, 0, 82, 67
1, 33114, Note_on_c, 0, 54, 49
1, 33124, Control_c, 0, 64, 46
1, 33133, Note_on_c, 0, 73, 49
1, 33139, Control_c, 0, 64, 17
1, 33139, Control_c, 0, 67, 0
1, 33142, Note_on_c, 0, 70, 39
1, 33154, Control_c, 0, 64, 0
1, 33169, Control_c, 0, 64, 10
1, 33183, Control_c, 0, 64, 37
1, 33198, Control_c, 0, 64, 54
1, 33213, Control_c, 0, 64, 64
1, 33223, Note_on_c, 0, 58, 40
1, 33228, Control_c, 0, 64, 69
1, 33242, Control_c, 0, 64, 73
1, 33257, Control_c, 0, 64, 76
1, 33266, Note_off_c, 0, 58, 53
1, 33272, Control_c, 0, 64, 78
1, 33284, Note_on_c, 0, 61, 51
1, 33286, Control_c, 0, 64, 81
1, 33301, Control_c, 0, 64, 86
1, 33313, Note_off_c, 0, 61, 61
1, 33323, Control_c, 0, 64, 90
1, 33338, Control_c, 0, 64, 92
1, 33353, Control_c, 0, 64, 93
1, 33357, Note_off_c, 0, 73, 63
1, 33360, Note_on_c, 0, 66, 55
1, 33362, Note_off_c, 0, 82, 61
1, 33376, Note_off_c, 0, 70, 57
1, 33383, Note_off_c, 0, 54, 26
1, 33386, Note_off_c, 0, 66, 60
1, 33397, Control_c, 0, 64, 94
1, 33400, Note_on_c, 0, 61, 61
1, 33440, Note_off_c, 0, 61, 61
1, 33488, Note_on_c, 0, 58, 42
1, 33502, Control_c, 0, 64, 93
1, 33532, Control_c, 0, 64, 91
1, 33532, Note_off_c, 0, 58, 57
1, 33546, Control_c, 0, 64, 84
1, 33556, Note_on_c, 0, 82, 82
1, 33561, Control_c, 0, 64, 75
1, 33574, Note_on_c, 0, 52, 56
1, 33576, Control_c, 0, 64, 64
1, 33581, Note_on_c, 0, 73, 54
1, 33591, Control_c, 0, 64, 49
1, 33592, Note_on_c, 0, 68, 39
1, 33606, Control_c, 0, 64, 21
1, 33620, Control_c, 0, 64, 0
1, 33635, Control_c, 0, 64, 32
1, 33650, Control_c, 0, 64, 53
1, 33664, Control_c, 0, 64, 64
1, 33679, Control_c, 0, 64, 70
1, 33694, Control_c, 0, 64, 75
1, 33700, Note_on_c, 0, 58, 45
1, 33709, Control_c, 0, 64, 81
1, 33723, Note_off_c, 0, 52, 55
1, 33724, Control_c, 0, 64, 85
1, 33730, Note_off_c, 0, 58, 55
1, 33738, Control_c, 0, 64, 89
1, 33753, Control_c, 0, 64, 94
1, 33766, Note_on_c, 0, 61, 57
1, 33768, Control_c, 0, 64, 100
1, 33780, Note_off_c, 0, 68, 44
1, 33783, Control_c, 0, 64, 106
1, 33789, Note_off_c, 0, 82, 63
1, 33798, Note_off_c, 0, 61, 64
1, 33798, Control_c, 0, 64, 109
1, 33813, Control_c, 0, 64, 109
1, 33828, Note_off_c, 0, 73, 61
1, 33872, Note_on_c, 0, 68, 30
1, 33899, Note_on_c, 0, 82, 83
1, 33907, Note_off_c, 0, 68, 52
1, 33909, Note_on_c, 0, 61, 53
1, 33939, Note_off_c, 0, 61, 62
1, 33946, Control_c, 0, 64, 109
1, 33974, Note_on_c, 0, 58, 45
1, 33991, Note_off_c, 0, 82, 61
1, 33998, Note_on_c, 0, 67, 45
1, 34006, Control_c, 0, 64, 108
1, 34016, Note_off_c, 0, 58, 60
1, 34020, Control_c, 0, 64, 108
1, 34024, Note_off_c, 0, 67, 56
1, 34034, Control_c, 0, 64, 106
1, 34049, Control_c, 0, 64, 103
1, 34049, Control_c, 0, 67, 8
1, 34071, Control_c, 0, 64, 97
1, 34071, Control_c, 0, 67, 9
1, 34072, Note_on_c, 0, 82, 72
1, 34075, Note_on_c, 0, 51, 46
1, 34086, Control_c, 0, 64, 87
1, 34086, Control_c, 0, 67, 9
1, 34093, Note_on_c, 0, 73, 54
1, 34101, Control_c, 0, 64, 74
1, 34101, Control_c, 0, 67, 11
1, 34116, Control_c, 0, 64, 59
1, 34116, Control_c, 0, 67, 12
1, 34131, Control_c, 0, 64, 33
1, 34131, Control_c, 0, 67, 13
1, 34145, Control_c, 0, 64, 0
1, 34145, Control_c, 0, 67, 13
1, 34175, Control_c, 0, 64, 37
1, 34175, Control_c, 0, 67, 14
1, 34184, Note_on_c, 0, 58, 42
1, 34190, Control_c, 0, 64, 58
1, 34190, Control_c, 0, 67, 14
1, 34205, Control_c, 0, 64, 67
1, 34205, Control_c, 0, 67, 17
1, 34219, Control_c, 0, 64, 71
1, 34219, Control_c, 0, 67, 21
1, 34235, Control_c, 0, 64, 73
1, 34235, Control_c, 0, 67, 28
1, 34248, Note_off_c, 0, 51, 56
1, 34250, Control_c, 0, 64, 74
1, 34250, Control_c, 0, 67, 37
1, 34261, Note_on_c, 0, 61, 57
1, 34265, Control_c, 0, 64, 76
1, 34265, Control_c, 0, 67, 44
1, 34273, Note_off_c, 0, 58, 57
1, 34280, Control_c, 0, 64, 77
1, 34280, Control_c, 0, 67, 48
1, 34289, Note_off_c, 0, 61, 64
1, 34294, Control_c, 0, 64, 80
1, 34294, Control_c, 0, 67, 51
1, 34309, Control_c, 0, 64, 82
1, 34309, Control_c, 0, 67, 52
1, 34324, Control_c, 0, 64, 83
1, 34324, Control_c, 0, 67, 53
1, 34334, Note_on_c, 0, 67, 50
1, 34339, Control_c, 0, 64, 84
1, 34339, Control_c, 0, 67, 53
1, 34354, Control_c, 0, 64, 85
1, 34354, Control_c, 0, 67, 54
1, 34359, Note_off_c, 0, 67, 55
1, 34368, Control_c, 0, 64, 86
1, 34383, Control_c, 0, 64, 86
1, 34394, Note_on_c, 0, 61, 56
1, 34398, Control_c, 0, 64, 87
1, 34398, Control_c, 0, 67, 56
1, 34400, Note_on_c, 0, 75, 73
1, 34413, Control_c, 0, 67, 58
1, 34428, Control_c, 0, 67, 58
1, 34430, Note_off_c, 0, 75, 65
1, 34446, Note_off_c, 0, 61, 49
1, 34457, Control_c, 0, 67, 59
1, 34484, Note_on_c, 0, 58, 44
1, 34486, Control_c, 0, 67, 59
1, 34531, Control_c, 0, 67, 60
1, 34533, Note_off_c, 0, 58, 56
1, 34557, Note_on_c, 0, 55, 64
1, 34561, Control_c, 0, 64, 84
1, 34576, Control_c, 0, 64, 77
1, 34582, Note_on_c, 0, 75, 66
1, 34591, Control_c, 0, 64, 66
1, 34606, Control_c, 0, 64, 51
1, 34606, Control_c, 0, 67, 61
1, 34620, Control_c, 0, 64, 0
1, 34620, Control_c, 0, 67, 60
1, 34635, Control_c, 0, 67, 60
1, 34650, Control_c, 0, 64, 31
1, 34650, Control_c, 0, 67, 59
1, 34665, Control_c, 0, 64, 54
1, 34665, Control_c, 0, 67, 58
1, 34679, Control_c, 0, 64, 65
1, 34679, Control_c, 0, 67, 56
1, 34694, Control_c, 0, 64, 69
1, 34694, Control_c, 0, 67, 56
1, 34700, Note_off_c, 0, 55, 63
1, 34707, Note_on_c, 0, 61, 62
1, 34707, Note_off_c, 0, 82, 64
1, 34709, Control_c, 0, 64, 72
1, 34709, Control_c, 0, 67, 55
1, 34719, Note_off_c, 0, 75, 52
1, 34723, Note_on_c, 0, 77, 64
1, 34724, Control_c, 0, 64, 74
1, 34724, Control_c, 0, 67, 53
1, 34728, Note_off_c, 0, 73, 62
1, 34739, Control_c, 0, 64, 76
1, 34739, Control_c, 0, 67, 52
1, 34749, Note_on_c, 0, 79, 55
1, 34753, Note_off_c, 0, 61, 57
1, 34754, Control_c, 0, 64, 79
1, 34754, Control_c, 0, 67, 51
1, 34759, Note_off_c, 0, 77, 66
1, 34768, Control_c, 0, 64, 81
1, 34768, Control_c, 0, 67, 51
1, 34783, Control_c, 0, 64, 83
1, 34783, Control_c, 0, 67, 50
1, 34794, Note_on_c, 0, 63, 37
1, 34798, Control_c, 0, 64, 85
1, 34820, Control_c, 0, 64, 86
1, 34820, Control_c, 0, 67, 50
1, 34827, Note_on_c, 0, 77, 76
1, 34835, Note_off_c, 0, 63, 51
1, 34835, Control_c, 0, 64, 86
1, 34835, Control_c, 0, 67, 49
1, 34839, Note_off_c, 0, 79, 65
1, 34850, Control_c, 0, 64, 87
1, 34850, Control_c, 0, 67, 48
1, 34850, Note_off_c, 0, 77, 67
1, 34859, Note_on_c, 0, 70, 56
1, 34865, Control_c, 0, 67, 48
1, 34880, Control_c, 0, 67, 47
1, 34886, Note_off_c, 0, 70, 54
1, 34935, Note_on_c, 0, 63, 52
1, 34939, Control_c, 0, 67, 47
1, 34954, Control_c, 0, 67, 46
1, 34978, Note_off_c, 0, 63, 53
1, 34983, Control_c, 0, 64, 86
1, 35008, Note_on_c, 0, 75, 69
1, 35027, Control_c, 0, 67, 46
1, 35035, Note_off_c, 0, 75, 67
1, 35044, Control_c, 0, 64, 86
1, 35058, Control_c, 0, 64, 84
1, 35058, Control_c, 0, 67, 45
1, 35073, Control_c, 0, 64, 81
1, 35073, Control_c, 0, 67, 43
1, 35085, Note_on_c, 0, 75, 75
1, 35088, Control_c, 0, 64, 76
1, 35088, Control_c, 0, 67, 42
1, 35103, Control_c, 0, 64, 68
1, 35103, Control_c, 0, 67, 41
1, 35106, Note_on_c, 0, 56, 49
1, 35111, Note_on_c, 0, 73, 42
1, 35117, Control_c, 0, 64, 56
1, 35132, Control_c, 0, 64, 36
1, 35132, Control_c, 0, 67, 41
1, 35147, Control_c, 0, 64, 0
1, 35158, Note_off_c, 0, 73, 0
1, 35158, Note_on_c, 0, 73, 10
1, 35162, Control_c, 0, 67, 39
1, 35177, Control_c, 0, 64, 23
1, 35177, Control_c, 0, 67, 38
1, 35191, Control_c, 0, 64, 44
1, 35191, Control_c, 0, 67, 37
1, 35206, Control_c, 0, 64, 58
1, 35206, Control_c, 0, 67, 37
1, 35214, Note_on_c, 0, 61, 37
1, 35221, Control_c, 0, 64, 65
1, 35236, Control_c, 0, 64, 68
1, 35251, Control_c, 0, 64, 70
1, 35257, Note_off_c, 0, 61, 47
1, 35266, Control_c, 0, 64, 71
1, 35266, Control_c, 0, 67, 36
1, 35267, Note_on_c, 0, 63, 48
1, 35281, Control_c, 0, 64, 74
1, 35296, Control_c, 0, 64, 77
1, 35297, Note_off_c, 0, 63, 58
1, 35310, Control_c, 0, 64, 80
1, 35325, Note_off_c, 0, 56, 27
1, 35325, Control_c, 0, 64, 83
1, 35325, Control_c, 0, 67, 37
1, 35338, Note_on_c, 0, 68, 52
1, 35340, Control_c, 0, 64, 84
1, 35340, Control_c, 0, 67, 37
1, 35355, Control_c, 0, 64, 84
1, 35355, Control_c, 0, 67, 38
1, 35370, Control_c, 0, 67, 39
1, 35372, Note_off_c, 0, 68, 49
1, 35384, Control_c, 0, 64, 85
1, 35384, Control_c, 0, 67, 40
1, 35397, Note_on_c, 0, 63, 57
1, 35399, Control_c, 0, 67, 41
1, 35414, Control_c, 0, 67, 42
1, 35428, Control_c, 0, 67, 43
1, 35443, Control_c, 0, 67, 43
1, 35445, Note_off_c, 0, 63, 51
1, 35458, Control_c, 0, 67, 44
1, 35479, Note_on_c, 0, 61, 51
1, 35503, Note_off_c, 0, 73, 42
1, 35503, Control_c, 0, 67, 44
1, 35533, Control_c, 0, 67, 45
1, 35570, Control_c, 0, 67, 45
1, 35584, Control_c, 0, 64, 84
1, 35599, Control_c, 0, 64, 83
1, 35599, Control_c, 0, 67, 46
1, 35601, Note_off_c, 0, 61, 28
1, 35613, Note_on_c, 0, 51, 42
1, 35614, Control_c, 0, 64, 79
1, 35629, Control_c, 0, 64, 72
1, 35629, Control_c, 0, 67, 46
1, 35639, Note_on_c, 0, 80, 73
1, 35643, Control_c, 0, 64, 63
1, 35643, Control_c, 0, 67, 47
1, 35658, Control_c, 0, 64, 50
1, 35658, Control_c, 0, 67, 47
1, 35673, Control_c, 0, 64, 26
1, 35676, Note_on_c, 0, 72, 44
1, 35688, Control_c, 0, 64, 0
1, 35688, Control_c, 0, 67, 48
1, 35700, Note_off_c, 0, 75, 56
1, 35717, Control_c, 0, 64, 18
1, 35717, Control_c, 0, 67, 48
1, 35732, Control_c, 0, 64, 41
1, 35747, Control_c, 0, 64, 55
1, 35747, Control_c, 0, 67, 49
1, 35762, Control_c, 0, 64, 63
1, 35762, Control_c, 0, 67, 50
1, 35767, Note_off_c, 0, 51, 60
1, 35774, Note_on_c, 0, 60, 44
1, 35777, Control_c, 0, 64, 67
1, 35777, Control_c, 0, 67, 51
1, 35792, Control_c, 0, 64, 69
1, 35792, Control_c, 0, 67, 52
1, 35807, Control_c, 0, 64, 71
1, 35807, Control_c, 0, 67, 53
1, 35822, Control_c, 0, 64, 74
1, 35822, Control_c, 0, 67, 54
1, 35837, Control_c, 0, 64, 77
1, 35837, Control_c, 0, 67, 58
1, 35846, Note_off_c, 0, 60, 54
1, 35852, Control_c, 0, 64, 79
1, 35852, Control_c, 0, 67, 61
1, 35866, Control_c, 0, 64, 81
1, 35866, Control_c, 0, 67, 65
1, 35878, Note_on_c, 0, 63, 45
1, 35881, Control_c, 0, 64, 82
1, 35881, Control_c, 0, 67, 69
1, 35896, Control_c, 0, 64, 82
1, 35896, Control_c, 0, 67, 75
1, 35905, Note_off_c, 0, 72, 60
1, 35907, Note_off_c, 0, 63, 55
1, 35911, Control_c, 0, 64, 83
1, 35911, Control_c, 0, 67, 80
1, 35926, Control_c, 0, 67, 85
1, 35933, Note_on_c, 0, 68, 52
1, 35941, Control_c, 0, 64, 83
1, 35941, Control_c, 0, 67, 90
1, 35956, Control_c, 0, 67, 92
1, 35971, Control_c, 0, 67, 94
1, 35976, Note_off_c, 0, 68, 45
1, 35986, Control_c, 0, 67, 95
1, 35998, Note_on_c, 0, 63, 58
1, 36015, Control_c, 0, 67, 95
1, 36050, Note_off_c, 0, 63, 59
1, 36063, Note_on_c, 0, 60, 49
1, 36074, Control_c, 0, 64, 83
1, 36074, Control_c, 0, 67, 96
1, 36104, Control_c, 0, 67, 96
1, 36119, Control_c, 0, 67, 97
1, 36132, Note_off_c, 0, 60, 53
1, 36133, Control_c, 0, 64, 82
1, 36133, Control_c, 0, 67, 99
1, 36148, Control_c, 0, 64, 81
1, 36148, Control_c, 0, 67, 100
1, 36163, Control_c, 0, 64, 80
1, 36163, Control_c, 0, 67, 101
1, 36167, Note_on_c, 0, 58, 56
1, 36178, Control_c, 0, 64, 79
1, 36178, Control_c, 0, 67, 101
1, 36193, Control_c, 0, 64, 77
1, 36193, Control_c, 0, 67, 102
1, 36203, Note_on_c, 0, 73, 57
1, 36207, Control_c, 0, 64, 72
1, 36222, Control_c, 0, 64, 65
1, 36222, Control_c, 0, 67, 102
1, 36237, Control_c, 0, 64, 55
1, 36251, Control_c, 0, 64, 38
1, 36251, Control_c, 0, 67, 103
1, 36266, Control_c, 0, 64, 0
1, 36296, Control_c, 0, 67, 102
1, 36312, Note_on_c, 0, 61, 45
1, 36319, Control_c, 0, 64, 29
1, 36319, Control_c, 0, 67, 102
1, 36333, Control_c, 0, 64, 48
1, 36348, Control_c, 0, 64, 59
1, 36348, Control_c, 0, 67, 101
1, 36363, Control_c, 0, 64, 65
1, 36363, Control_c, 0, 67, 101
1, 36378, Control_c, 0, 64, 67
1, 36378, Control_c, 0, 67, 100
1, 36380, Note_on_c, 0, 79, 64
1, 36389, Note_on_c, 0, 63, 45
1, 36393, Control_c, 0, 64, 69
1, 36393, Control_c, 0, 67, 99
1, 36407, Control_c, 0, 64, 70
1, 36407, Control_c, 0, 67, 98
1, 36422, Control_c, 0, 64, 72
1, 36422, Control_c, 0, 67, 98
1, 36427, Note_off_c, 0, 61, 32
1, 36437, Control_c, 0, 64, 75
1, 36437, Control_c, 0, 67, 97
1, 36446, Note_off_c, 0, 63, 60
1, 36452, Control_c, 0, 64, 78
1, 36452, Control_c, 0, 67, 96
1, 36466, Control_c, 0, 64, 79
1, 36466, Control_c, 0, 67, 95
1, 36471, Note_on_c, 0, 70, 54
1, 36476, Note_off_c, 0, 80, 0
1, 36481, Control_c, 0, 64, 81
1, 36481, Control_c, 0, 67, 94
1, 36492, Note_off_c, 0, 70, 61
1, 36496, Control_c, 0, 64, 82
1, 36496, Control_c, 0, 67, 94
1, 36498, Note_off_c, 0, 58, 24
1, 36511, Control_c, 0, 67, 93
1, 36525, Note_on_c, 0, 77, 71
1, 36526, Control_c, 0, 64, 82
1, 36526, Control_c, 0, 67, 92
1, 36537, Note_off_c, 0, 79, 61
1, 36540, Poly_aftertouch_c, 0, 80, 0
1, 36540, Control_c, 0, 64, 83
1, 36540, Control_c, 0, 67, 91
1, 36555, Control_c, 0, 67, 90
1, 36570, Control_c, 0, 67, 90
1, 36573, Note_on_c, 0, 63, 29
1, 36585, Control_c, 0, 67, 89
1, 36611, Note_off_c, 0, 63, 49
1, 36615, Control_c, 0, 67, 88
1, 36620, Note_on_c, 0, 61, 45
1, 36630, Control_c, 0, 67, 88
1, 36645, Control_c, 0, 67, 87
1, 36650, Note_off_c, 0, 61, 54
1, 36660, Control_c, 0, 67, 85
1, 36667, Note_on_c, 0, 79, 73
1, 36675, Control_c, 0, 67, 83
1, 36683, Note_off_c, 0, 77, 62
1, 36689, Control_c, 0, 67, 81
1, 36695, Note_on_c, 0, 51, 52
1, 36704, Control_c, 0, 67, 79
1, 36719, Control_c, 0, 67, 77
1, 36734, Control_c, 0, 67, 75
1, 36749, Control_c, 0, 67, 74
1, 36764, Control_c, 0, 67, 72
1, 36772, Note_off_c, 0, 51, 52
1, 36774, Note_on_c, 0, 61, 49
1, 36779, Control_c, 0, 67, 71
1, 36794, Control_c, 0, 67, 70
1, 36808, Control_c, 0, 67, 68
1, 36812, Note_on_c, 0, 77, 72
1, 36823, Control_c, 0, 67, 66
1, 36838, Note_off_c, 0, 73, 60
1, 36838, Control_c, 0, 67, 63
1, 36838, Note_off_c, 0, 79, 61
1, 36848, Note_off_c, 0, 77, 63
1, 36853, Control_c, 0, 67, 61
1, 36868, Control_c, 0, 67, 58
1, 36882, Control_c, 0, 67, 54
1, 36892, Note_on_c, 0, 63, 42
1, 36897, Control_c, 0, 67, 51
1, 36912, Control_c, 0, 67, 49
1, 36916, Note_off_c, 0, 61, 33
1, 36922, Note_off_c, 0, 63, 55
1, 36927, Control_c, 0, 67, 48
1, 36939, Note_on_c, 0, 67, 63
1, 36942, Control_c, 0, 67, 47
1, 36956, Control_c, 0, 67, 46
1, 36966, Note_off_c, 0, 67, 52
1, 36971, Control_c, 0, 67, 45
1, 36986, Control_c, 0, 67, 45
1, 37007, Note_on_c, 0, 63, 59
1, 37030, Control_c, 0, 67, 44
1, 37035, Note_on_c, 0, 75, 69
1, 37045, Note_off_c, 0, 63, 63
1, 37068, Control_c, 0, 67, 44
1, 37087, Note_on_c, 0, 61, 30
1, 37112, Control_c, 0, 64, 82
1, 37112, Control_c, 0, 67, 43
1, 37113, Note_off_c, 0, 75, 42
1, 37127, Control_c, 0, 64, 80
1, 37127, Control_c, 0, 67, 41
1, 37128, Note_on_c, 0, 84, 81
1, 37133, Note_off_c, 0, 61, 47
1, 37142, Control_c, 0, 64, 75
1, 37142, Control_c, 0, 67, 40
1, 37156, Control_c, 0, 64, 68
1, 37156, Control_c, 0, 67, 39
1, 37160, Note_on_c, 0, 72, 52
1, 37163, Note_on_c, 0, 56, 56
1, 37171, Control_c, 0, 64, 60
1, 37171, Control_c, 0, 67, 37
1, 37186, Control_c, 0, 64, 44
1, 37186, Control_c, 0, 67, 36
1, 37201, Control_c, 0, 64, 0
1, 37201, Control_c, 0, 67, 35
1, 37215, Control_c, 0, 67, 33
1, 37230, Control_c, 0, 67, 31
1, 37245, Control_c, 0, 64, 22
1, 37245, Control_c, 0, 67, 28
1, 37260, Control_c, 0, 64, 42
1, 37260, Control_c, 0, 67, 25
1, 37261, Note_on_c, 0, 60, 48
1, 37275, Control_c, 0, 64, 57
1, 37275, Control_c, 0, 67, 20
1, 37289, Control_c, 0, 64, 64
1, 37289, Control_c, 0, 67, 16
1, 37304, Control_c, 0, 64, 68
1, 37304, Control_c, 0, 67, 12
1, 37315, Note_off_c, 0, 60, 54
1, 37319, Control_c, 0, 64, 71
1, 37319, Control_c, 0, 67, 9
1, 37334, Control_c, 0, 64, 73
1, 37334, Control_c, 0, 67, 0
1, 37349, Control_c, 0, 64, 76
1, 37354, Note_on_c, 0, 63, 43
1, 37363, Control_c, 0, 64, 79
1, 37378, Control_c, 0, 64, 83
1, 37385, Note_off_c, 0, 63, 53
1, 37393, Control_c, 0, 64, 87
1, 37400, Note_off_c, 0, 56, 0
1, 37408, Control_c, 0, 64, 90
1, 37414, Note_on_c, 0, 68, 52
1, 37422, Control_c, 0, 64, 92
1, 37438, Poly_aftertouch_c, 0, 56, 127
1, 37439, Control_c, 0, 64, 96
1, 37444, Note_off_c, 0, 68, 55
1, 37454, Control_c, 0, 64, 98
1, 37468, Control_c, 0, 64, 99
1, 37471, Poly_aftertouch_c, 0, 56, 0
1, 37482, Note_on_c, 0, 63, 47
1, 37483, Control_c, 0, 64, 101
1, 37494, Note_off_c, 0, 84, 63
1, 37498, Control_c, 0, 64, 101
1, 37505, Note_off_c, 0, 63, 60
1, 37512, Note_on_c, 0, 60, 49
1, 37570, Note_off_c, 0, 60, 60
1, 37595, Note_on_c, 0, 55, 57
1, 37601, Control_c, 0, 64, 101
1, 37616, Control_c, 0, 64, 95
1, 37620, Note_on_c, 0, 84, 87
1, 37631, Control_c, 0, 64, 82
1, 37646, Control_c, 0, 64, 69
1, 37661, Control_c, 0, 64, 54
1, 37676, Control_c, 0, 64, 25
1, 37691, Control_c, 0, 64, 0
1, 37720, Control_c, 0, 64, 36
1, 37735, Control_c, 0, 64, 58
1, 37738, Note_on_c, 0, 56, 53
1, 37750, Control_c, 0, 64, 66
1, 37765, Control_c, 0, 64, 71
1, 37779, Control_c, 0, 64, 76
1, 37794, Control_c, 0, 64, 80
1, 37816, Control_c, 0, 64, 83
1, 37825, Note_on_c, 0, 60, 54
1, 37831, Control_c, 0, 64, 87
1, 37846, Control_c, 0, 64, 90
1, 37861, Control_c, 0, 64, 92
1, 37861, Note_off_c, 0, 84, 63
1, 37866, Note_off_c, 0, 60, 53
1, 37876, Control_c, 0, 64, 93
1, 37890, Control_c, 0, 64, 94
1, 37897, Note_off_c, 0, 56, 35
1, 37904, Note_on_c, 0, 63, 45
1, 37905, Control_c, 0, 64, 95
1, 37908, Poly_aftertouch_c, 0, 78, 127
1, 37920, Control_c, 0, 64, 95
1, 37925, Note_off_c, 0, 55, 44
1, 37941, Note_off_c, 0, 63, 53
1, 37961, Note_on_c, 0, 84, 89
1, 37965, Note_on_c, 0, 60, 50
1, 37986, Poly_aftertouch_c, 0, 79, 127
1, 38004, Note_off_c, 0, 60, 49
1, 38019, Note_on_c, 0, 56, 49
1, 38061, Note_off_c, 0, 84, 62
1, 38102, Poly_aftertouch_c, 0, 79, 0
1, 38141, Note_off_c, 0, 56, 57
1, 38142, Control_c, 0, 64, 92
1, 38157, Control_c, 0, 64, 86
1, 38161, Note_on_c, 0, 54, 54
1, 38172, Control_c, 0, 64, 76
1, 38174, Note_on_c, 0, 84, 85
1, 38186, Control_c, 0, 64, 64
1, 38201, Control_c, 0, 64, 45
1, 38216, Control_c, 0, 64, 0
1, 38251, Note_off_c, 0, 72, 61
1, 38271, Poly_aftertouch_c, 0, 78, 0
1, 38276, Control_c, 0, 64, 32
1, 38278, Note_on_c, 0, 56, 49
1, 38291, Control_c, 0, 64, 53
1, 38306, Control_c, 0, 64, 64
1, 38321, Control_c, 0, 64, 69
1, 38335, Control_c, 0, 64, 72
1, 38344, Note_on_c, 0, 60, 55
1, 38350, Control_c, 0, 64, 74
1, 38362, Note_off_c, 0, 56, 49
1, 38365, Control_c, 0, 64, 76
1, 38380, Control_c, 0, 64, 79
1, 38392, Note_off_c, 0, 60, 61
1, 38395, Control_c, 0, 64, 82
1, 38409, Control_c, 0, 64, 85
1, 38424, Note_on_c, 0, 63, 52
1, 38424, Control_c, 0, 64, 86
1, 38439, Control_c, 0, 64, 88
1, 38448, Note_off_c, 0, 54, 24
1, 38454, Control_c, 0, 64, 89
1, 38456, Note_off_c, 0, 63, 52
1, 38469, Control_c, 0, 64, 91
1, 38484, Control_c, 0, 64, 93
1, 38497, Note_on_c, 0, 60, 43
1, 38499, Control_c, 0, 64, 94
1, 38513, Control_c, 0, 64, 95
1, 38525, Note_off_c, 0, 60, 53
1, 38527, Note_on_c, 0, 56, 55
1, 38543, Control_c, 0, 64, 96
1, 38565, Control_c, 0, 64, 96
1, 38584, Note_off_c, 0, 56, 61
1, 38600, Note_on_c, 0, 54, 52
1, 38691, Note_on_c, 0, 56, 53
1, 38731, Note_on_c, 0, 82, 77
1, 38734, Note_off_c, 0, 56, 56
1, 38742, Note_off_c, 0, 54, 35
1, 38761, Note_on_c, 0, 60, 33
1, 38798, Note_off_c, 0, 60, 45
1, 38806, Note_on_c, 0, 63, 55
1, 38831, Note_off_c, 0, 63, 60
1, 38880, Note_off_c, 0, 84, 25
1, 38894, Note_on_c, 0, 60, 28
1, 38923, Note_on_c, 0, 80, 73
1, 38929, Note_off_c, 0, 82, 63
1, 38934, Note_off_c, 0, 60, 41
1, 38940, Note_on_c, 0, 56, 52
1, 38949, Note_off_c, 0, 80, 66
1, 38978, Note_off_c, 0, 56, 63
1, 38980, Control_c, 0, 64, 95
1, 38990, Note_on_c, 0, 53, 61
1, 38994, Note_on_c, 0, 80, 85
1, 38995, Control_c, 0, 64, 90
1, 39009, Control_c, 0, 64, 81
1, 39025, Control_c, 0, 64, 69
1, 39040, Control_c, 0, 64, 51
1, 39055, Control_c, 0, 64, 0
1, 39078, Note_on_c, 0, 56, 51
1, 39099, Control_c, 0, 64, 35
1, 39114, Control_c, 0, 64, 56
1, 39129, Control_c, 0, 64, 64
1, 39144, Control_c, 0, 64, 68
1, 39147, Note_on_c, 0, 61, 63
1, 39158, Control_c, 0, 64, 70
1, 39173, Control_c, 0, 64, 71
1, 39182, Note_off_c, 0, 61, 65
1, 39188, Control_c, 0, 64, 72
1, 39203, Control_c, 0, 64, 74
1, 39217, Note_on_c, 0, 65, 57
1, 39217, Note_off_c, 0, 56, 29
1, 39218, Control_c, 0, 64, 76
1, 39232, Control_c, 0, 64, 77
1, 39247, Control_c, 0, 64, 79
1, 39262, Control_c, 0, 64, 82
1, 39263, Note_off_c, 0, 65, 47
1, 39274, Note_on_c, 0, 61, 67
1, 39277, Control_c, 0, 64, 86
1, 39289, Note_off_c, 0, 53, 35
1, 39292, Control_c, 0, 64, 89
1, 39315, Control_c, 0, 64, 90
1, 39324, Note_off_c, 0, 61, 60
1, 39330, Control_c, 0, 64, 91
1, 39345, Control_c, 0, 64, 92
1, 39345, Note_on_c, 0, 56, 54
1, 39359, Control_c, 0, 64, 93
1, 39374, Control_c, 0, 64, 96
1, 39389, Control_c, 0, 64, 98
1, 39390, Note_off_c, 0, 56, 61
1, 39404, Control_c, 0, 64, 99
1, 39405, Note_on_c, 0, 53, 56
1, 39448, Note_on_c, 0, 85, 90
1, 39448, Control_c, 0, 64, 100
1, 39463, Control_c, 0, 64, 101
1, 39470, Note_off_c, 0, 53, 62
1, 39478, Control_c, 0, 64, 101
1, 39479, Note_on_c, 0, 56, 66
1, 39485, Note_off_c, 0, 80, 60
1, 39537, Control_c, 0, 64, 102
1, 39542, Note_off_c, 0, 56, 54
1, 39552, Control_c, 0, 64, 103
1, 39557, Note_on_c, 0, 61, 61
1, 39566, Control_c, 0, 64, 104
1, 39581, Control_c, 0, 64, 105
1, 39594, Note_off_c, 0, 61, 61
1, 39596, Note_off_c, 0, 85, 59
1, 39631, Note_on_c, 0, 68, 66
1, 39655, Control_c, 0, 64, 105
1, 39670, Control_c, 0, 64, 106
1, 39674, Note_off_c, 0, 68, 61
1, 39683, Note_on_c, 0, 61, 65
1, 39685, Control_c, 0, 64, 108
1, 39700, Control_c, 0, 64, 109
1, 39730, Control_c, 0, 64, 109
1, 39745, Control_c, 0, 64, 110
1, 39754, Note_off_c, 0, 61, 54
1, 39758, Note_on_c, 0, 56, 62
1, 39835, Control_c, 0, 64, 109
1, 39849, Note_on_c, 0, 85, 89
1, 39849, Control_c, 0, 64, 100
1, 39864, Note_on_c, 0, 51, 70
1, 39864, Note_off_c, 0, 56, 62
1, 39864, Control_c, 0, 64, 86
1, 39879, Control_c, 0, 64, 71
1, 39894, Control_c, 0, 64, 57
1, 39909, Control_c, 0, 64, 26
1, 39923, Control_c, 0, 64, 0
1, 39953, Control_c, 0, 64, 26
1, 39968, Control_c, 0, 64, 50
1, 39983, Control_c, 0, 64, 62
1, 39984, Note_on_c, 0, 56, 60
1, 39998, Control_c, 0, 64, 68
1, 40013, Control_c, 0, 64, 72
1, 40027, Control_c, 0, 64, 78
1, 40042, Control_c, 0, 64, 83
1, 40058, Note_on_c, 0, 60, 62
1, 40058, Note_off_c, 0, 56, 52
1, 40064, Control_c, 0, 64, 91
1, 40078, Control_c, 0, 64, 101
1, 40093, Control_c, 0, 64, 120
1, 40108, Control_c, 0, 64, 127
1, 40129, Note_off_c, 0, 60, 61
1, 40132, Note_on_c, 0, 66, 64
1, 40145, Note_on_c, 0, 84, 87
1, 40163, Note_off_c, 0, 51, 30
1, 40174, Note_off_c, 0, 66, 60
1, 40186, Note_off_c, 0, 85, 63
1, 40213, Note_on_c, 0, 60, 52
1, 40249, Note_off_c, 0, 84, 62
1, 40275, Note_off_c, 0, 60, 52
1, 40295, Note_on_c, 0, 56, 49
1, 40349, Note_on_c, 0, 84, 89
1, 40362, Note_off_c, 0, 56, 55
1, 40380, Note_on_c, 0, 51, 60
1, 40496, Note_on_c, 0, 56, 45
1, 40521, Note_on_c, 0, 82, 84
1, 40528, Note_off_c, 0, 84, 59
1, 40549, Note_on_c, 0, 60, 60
1, 40554, Note_off_c, 0, 56, 55
1, 40573, Note_off_c, 0, 51, 29
1, 40597, Note_off_c, 0, 60, 55
1, 40605, Note_off_c, 0, 82, 63
1, 40627, Control_c, 0, 67, 9
1, 40631, Note_on_c, 0, 66, 56
1, 40642, Control_c, 0, 67, 11
1, 40657, Control_c, 0, 67, 12
1, 40669, Note_off_c, 0, 66, 64
1, 40672, Control_c, 0, 67, 13
1, 40687, Control_c, 0, 67, 15
1, 40701, Control_c, 0, 67, 15
1, 40710, Note_on_c, 0, 60, 49
1, 40776, Control_c, 0, 67, 15
1, 40779, Note_off_c, 0, 60, 55
1, 40786, Note_on_c, 0, 80, 80
1, 40811, Note_on_c, 0, 56, 40
1, 40812, Control_c, 0, 67, 14
1, 40856, Control_c, 0, 67, 14
1, 40916, Control_c, 0, 64, 91
1, 40921, Note_off_c, 0, 56, 52
1, 40925, Note_on_c, 0, 89, 85
1, 40931, Note_off_c, 0, 80, 50
1, 40931, Control_c, 0, 64, 73
1, 40945, Note_on_c, 0, 50, 54
1, 40946, Control_c, 0, 64, 59
1, 40961, Control_c, 0, 64, 28
1, 40976, Control_c, 0, 64, 0
1, 41049, Control_c, 0, 64, 31
1, 41064, Control_c, 0, 64, 56
1, 41064, Control_c, 0, 67, 14
1, 41068, Note_on_c, 0, 56, 54
1, 41079, Control_c, 0, 64, 65
1, 41079, Control_c, 0, 67, 15
1, 41094, Control_c, 0, 64, 70
1, 41109, Control_c, 0, 64, 75
1, 41109, Control_c, 0, 67, 16
1, 41114, Note_off_c, 0, 50, 35
1, 41123, Control_c, 0, 64, 81
1, 41138, Control_c, 0, 64, 85
1, 41149, Note_off_c, 0, 89, 64
1, 41153, Control_c, 0, 64, 90
1, 41168, Control_c, 0, 64, 96
1, 41176, Note_off_c, 0, 56, 58
1, 41183, Control_c, 0, 64, 103
1, 41184, Note_on_c, 0, 59, 45
1, 41197, Control_c, 0, 64, 115
1, 41197, Control_c, 0, 67, 16
1, 41211, Note_off_c, 0, 59, 58
1, 41212, Control_c, 0, 64, 127
1, 41242, Control_c, 0, 67, 17
1, 41251, Note_on_c, 0, 65, 34
1, 41286, Note_off_c, 0, 65, 53
1, 41299, Note_on_c, 0, 59, 65
1, 41301, Control_c, 0, 67, 16
1, 41360, Note_off_c, 0, 59, 58
1, 41386, Note_on_c, 0, 56, 51
1, 41433, Note_off_c, 0, 56, 55
1, 41482, Note_on_c, 0, 50, 52
1, 41492, Note_on_c, 0, 89, 79
1, 41494, Control_c, 0, 64, 103
1, 41509, Control_c, 0, 64, 89
1, 41524, Control_c, 0, 64, 76
1, 41539, Control_c, 0, 64, 63
1, 41561, Control_c, 0, 64, 42
1, 41576, Control_c, 0, 64, 0
1, 41576, Control_c, 0, 67, 17
1, 41621, Control_c, 0, 64, 30
1, 41635, Control_c, 0, 64, 47
1, 41635, Control_c, 0, 67, 17
1, 41650, Control_c, 0, 64, 59
1, 41654, Note_on_c, 0, 56, 48
1, 41665, Control_c, 0, 64, 65
1, 41679, Control_c, 0, 64, 67
1, 41694, Control_c, 0, 64, 71
1, 41709, Control_c, 0, 64, 75
1, 41724, Note_off_c, 0, 50, 35
1, 41724, Control_c, 0, 64, 80
1, 41739, Control_c, 0, 64, 85
1, 41754, Control_c, 0, 64, 91
1, 41769, Control_c, 0, 64, 100
1, 41780, Note_on_c, 0, 58, 38
1, 41784, Control_c, 0, 64, 107
1, 41798, Control_c, 0, 64, 113
1, 41809, Note_off_c, 0, 56, 29
1, 41813, Control_c, 0, 64, 118
1, 41828, Control_c, 0, 64, 119
1, 41828, Note_off_c, 0, 58, 52
1, 41838, Note_off_c, 0, 89, 61
1, 41843, Control_c, 0, 64, 122
1, 41843, Control_c, 0, 67, 18
1, 41858, Control_c, 0, 64, 127
1, 41858, Control_c, 0, 67, 19
1, 41863, Note_on_c, 0, 65, 52
1, 41872, Control_c, 0, 67, 20
1, 41917, Note_off_c, 0, 65, 49
1, 41917, Control_c, 0, 67, 20
1, 41971, Note_on_c, 0, 58, 36
1, 41978, Note_on_c, 0, 89, 73
1, 42021, Note_off_c, 0, 58, 49
1, 42061, Note_on_c, 0, 56, 36
1, 42078, Note_off_c, 0, 89, 57
1, 42153, Control_c, 0, 67, 21
1, 42183, Control_c, 0, 64, 124
1, 42198, Control_c, 0, 64, 117
1, 42213, Control_c, 0, 64, 113
1, 42213, Control_c, 0, 67, 21
1, 42229, Control_c, 0, 64, 109
1, 42244, Control_c, 0, 64, 103
1, 42258, Control_c, 0, 64, 93
1, 42258, Control_c, 0, 67, 22
1, 42271, Note_on_c, 0, 89, 72
1, 42273, Control_c, 0, 64, 84
1, 42273, Control_c, 0, 67, 25
1, 42288, Control_c, 0, 64, 74
1, 42288, Control_c, 0, 67, 28
1, 42289, Note_on_c, 0, 51, 44
1, 42304, Note_off_c, 0, 56, 41
1, 42310, Control_c, 0, 64, 64
1, 42310, Control_c, 0, 67, 30
1, 42325, Control_c, 0, 64, 53
1, 42340, Control_c, 0, 64, 34
1, 42340, Control_c, 0, 67, 30
1, 42355, Control_c, 0, 64, 0
1, 42355, Control_c, 0, 67, 31
1, 42384, Control_c, 0, 64, 12
1, 42384, Control_c, 0, 67, 31
1, 42399, Control_c, 0, 64, 33
1, 42399, Control_c, 0, 67, 32
1, 42414, Control_c, 0, 64, 50
1, 42414, Control_c, 0, 67, 34
1, 42429, Control_c, 0, 64, 61
1, 42429, Control_c, 0, 67, 38
1, 42444, Control_c, 0, 64, 66
1, 42444, Control_c, 0, 67, 44
1, 42458, Control_c, 0, 64, 69
1, 42458, Control_c, 0, 67, 49
1, 42463, Note_on_c, 0, 54, 44
1, 42473, Control_c, 0, 64, 73
1, 42473, Control_c, 0, 67, 56
1, 42488, Control_c, 0, 64, 77
1, 42488, Control_c, 0, 67, 61
1, 42502, Control_c, 0, 64, 80
1, 42502, Control_c, 0, 67, 65
1, 42517, Control_c, 0, 64, 84
1, 42517, Control_c, 0, 67, 68
1, 42532, Control_c, 0, 64, 89
1, 42532, Control_c, 0, 67, 73
1, 42547, Control_c, 0, 64, 92
1, 42547, Control_c, 0, 67, 79
1, 42558, Note_off_c, 0, 54, 55
1, 42562, Control_c, 0, 64, 98
1, 42562, Control_c, 0, 67, 83
1, 42564, Note_on_c, 0, 58, 50
1, 42576, Control_c, 0, 64, 103
1, 42576, Control_c, 0, 67, 84
1, 42591, Control_c, 0, 64, 108
1, 42600, Note_off_c, 0, 58, 60
1, 42606, Control_c, 0, 64, 110
1, 42606, Control_c, 0, 67, 85
1, 42621, Control_c, 0, 64, 111
1, 42621, Control_c, 0, 67, 85
1, 42636, Control_c, 0, 64, 112
1, 42636, Control_c, 0, 67, 87
1, 42651, Control_c, 0, 64, 113
1, 42651, Control_c, 0, 67, 89
1, 42653, Note_on_c, 0, 63, 50
1, 42666, Control_c, 0, 64, 113
1, 42666, Control_c, 0, 67, 90
1, 42668, Note_off_c, 0, 51, 26
1, 42681, Control_c, 0, 64, 114
1, 42681, Control_c, 0, 67, 91
1, 42692, Note_off_c, 0, 63, 56
1, 42695, Control_c, 0, 67, 95
1, 42710, Control_c, 0, 67, 99
1, 42723, Note_on_c, 0, 58, 44
1, 42725, Control_c, 0, 67, 102
1, 42740, Control_c, 0, 67, 106
1, 42754, Note_off_c, 0, 58, 65
1, 42755, Control_c, 0, 67, 111
1, 42769, Control_c, 0, 67, 114
1, 42784, Control_c, 0, 67, 115
1, 42794, Note_on_c, 0, 54, 30
1, 42799, Control_c, 0, 64, 113
1, 42799, Control_c, 0, 67, 118
1, 42814, Control_c, 0, 67, 121
1, 42828, Control_c, 0, 67, 126
1, 42833, Note_off_c, 0, 54, 46
1, 42843, Control_c, 0, 67, 127
1, 42950, Note_on_c, 0, 42, 43
1, 42979, Note_on_c, 0, 87, 66
1, 42983, Note_off_c, 0, 42, 52
1, 42991, Control_c, 0, 64, 113
1, 43075, Control_c, 0, 64, 112
1, 43089, Control_c, 0, 64, 111
1, 43104, Control_c, 0, 64, 110
1, 43119, Control_c, 0, 64, 110
1, 43134, Control_c, 0, 64, 109
1, 43135, Note_on_c, 0, 54, 42
1, 43149, Control_c, 0, 64, 109
1, 43164, Control_c, 0, 64, 108
1, 43169, Note_off_c, 0, 54, 59
1, 43179, Control_c, 0, 64, 106
1, 43208, Control_c, 0, 64, 106
1, 43222, Note_off_c, 0, 89, 15
1, 43226, Note_on_c, 0, 85, 67
1, 43232, Note_on_c, 0, 58, 38
1, 43246, Note_off_c, 0, 87, 53
1, 43265, Note_off_c, 0, 58, 59
1, 43267, Control_c, 0, 64, 105
1, 43282, Control_c, 0, 64, 105
1, 43314, Note_on_c, 0, 63, 39
1, 43347, Note_off_c, 0, 63, 54
1, 43356, Control_c, 0, 64, 104
1, 43371, Control_c, 0, 64, 104
1, 43372, Note_on_c, 0, 58, 50
1, 43400, Control_c, 0, 64, 103
1, 43403, Note_off_c, 0, 58, 62
1, 43411, Note_on_c, 0, 82, 65
1, 43423, Note_off_c, 0, 85, 61
1, 43430, Control_c, 0, 64, 103
1, 43474, Control_c, 0, 64, 102
1, 43481, Note_on_c, 0, 54, 21
1, 43504, Control_c, 0, 64, 101
1, 43518, Control_c, 0, 64, 101
1, 43533, Control_c, 0, 64, 99
1, 43540, Note_off_c, 0, 54, 42
1, 43548, Control_c, 0, 64, 97
1, 43563, Control_c, 0, 64, 90
1, 43578, Control_c, 0, 64, 81
1, 43593, Control_c, 0, 64, 71
1, 43594, Note_on_c, 0, 84, 72
1, 43595, Note_off_c, 0, 82, 62
1, 43608, Control_c, 0, 64, 61
1, 43609, Note_on_c, 0, 44, 47
1, 43623, Control_c, 0, 64, 45
1, 43638, Control_c, 0, 64, 19
1, 43652, Control_c, 0, 64, 9
1, 43667, Control_c, 0, 64, 34
1, 43682, Control_c, 0, 64, 53
1, 43697, Control_c, 0, 64, 64
1, 43704, Note_off_c, 0, 44, 57
1, 43707, Note_on_c, 0, 53, 48
1, 43712, Control_c, 0, 64, 70
1, 43726, Control_c, 0, 64, 74
1, 43741, Control_c, 0, 64, 79
1, 43756, Control_c, 0, 64, 82
1, 43767, Note_off_c, 0, 53, 42
1, 43770, Control_c, 0, 64, 89
1, 43785, Control_c, 0, 64, 99
1, 43807, Control_c, 0, 64, 118
1, 43808, Note_on_c, 0, 56, 48
1, 43822, Control_c, 0, 64, 127
1, 43839, Note_off_c, 0, 56, 57
1, 43868, Note_on_c, 0, 61, 51
1, 43897, Note_off_c, 0, 61, 57
1, 43922, Note_on_c, 0, 56, 62
1, 43942, Control_c, 0, 67, 126
1, 43951, Note_off_c, 0, 56, 66
1, 43956, Control_c, 0, 67, 122
1, 43971, Control_c, 0, 67, 119
1, 43986, Control_c, 0, 67, 118
1, 43989, Note_on_c, 0, 53, 33
1, 44001, Control_c, 0, 67, 117
1, 44016, Control_c, 0, 67, 113
1, 44026, Note_off_c, 0, 53, 49
1, 44030, Control_c, 0, 67, 112
1, 44045, Control_c, 0, 67, 113
1, 44051, Note_on_c, 0, 44, 53
1, 44070, Note_on_c, 0, 82, 67
1, 44089, Control_c, 0, 67, 113
1, 44095, Note_off_c, 0, 44, 59
1, 44128, Note_on_c, 0, 53, 53
1, 44148, Control_c, 0, 67, 111
1, 44163, Control_c, 0, 67, 108
1, 44177, Note_off_c, 0, 53, 57
1, 44178, Control_c, 0, 67, 106
1, 44193, Control_c, 0, 67, 104
1, 44204, Note_on_c, 0, 56, 50
1, 44208, Control_c, 0, 67, 102
1, 44210, Note_on_c, 0, 80, 73
1, 44222, Control_c, 0, 67, 101
1, 44237, Control_c, 0, 67, 100
1, 44242, Note_off_c, 0, 56, 62
1, 44252, Control_c, 0, 67, 100
1, 44267, Control_c, 0, 67, 99
1, 44282, Control_c, 0, 67, 97
1, 44282, Note_on_c, 0, 61, 45
1, 44296, Control_c, 0, 67, 93
1, 44309, Note_off_c, 0, 61, 58
1, 44311, Control_c, 0, 67, 87
1, 44326, Control_c, 0, 67, 82
1, 44328, Note_off_c, 0, 80, 61
1, 44335, Note_on_c, 0, 77, 73
1, 44340, Note_on_c, 0, 56, 46
1, 44341, Control_c, 0, 67, 78
1, 44355, Note_off_c, 0, 82, 33
1, 44356, Control_c, 0, 67, 78
1, 44371, Control_c, 0, 67, 77
1, 44371, Note_off_c, 0, 56, 51
1, 44380, Note_on_c, 0, 53, 40
1, 44386, Control_c, 0, 67, 76
1, 44401, Control_c, 0, 67, 74
1, 44416, Control_c, 0, 67, 72
1, 44419, Note_off_c, 0, 53, 48
1, 44430, Control_c, 0, 67, 71
1, 44489, Control_c, 0, 64, 85
1, 44492, Note_on_c, 0, 44, 57
1, 44493, Note_on_c, 0, 82, 70
1, 44504, Control_c, 0, 64, 67
1, 44519, Control_c, 0, 64, 51
1, 44520, Note_off_c, 0, 77, 61
1, 44534, Control_c, 0, 64, 20
1, 44556, Control_c, 0, 64, 0
1, 44571, Control_c, 0, 64, 8
1, 44586, Control_c, 0, 64, 39
1, 44586, Control_c, 0, 67, 71
1, 44600, Control_c, 0, 64, 56
1, 44600, Control_c, 0, 67, 70
1, 44606, Note_on_c, 0, 54, 45
1, 44615, Control_c, 0, 64, 64
1, 44615, Control_c, 0, 67, 70
1, 44623, Note_off_c, 0, 44, 43
1, 44631, Control_c, 0, 64, 68
1, 44645, Control_c, 0, 64, 70
1, 44648, Note_on_c, 0, 80, 68
1, 44660, Control_c, 0, 64, 72
1, 44675, Control_c, 0, 64, 75
1, 44690, Control_c, 0, 64, 80
1, 44690, Control_c, 0, 67, 69
1, 44705, Control_c, 0, 64, 84
1, 44720, Control_c, 0, 64, 87
1, 44724, Note_on_c, 0, 56, 42
1, 44735, Control_c, 0, 64, 89
1, 44749, Note_off_c, 0, 54, 35
1, 44750, Control_c, 0, 64, 90
1, 44764, Control_c, 0, 64, 92
1, 44773, Note_off_c, 0, 56, 52
1, 44779, Control_c, 0, 64, 95
1, 44794, Control_c, 0, 64, 96
1, 44794, Control_c, 0, 67, 70
1, 44800, Note_on_c, 0, 78, 72
1, 44807, Note_on_c, 0, 60, 41
1, 44809, Control_c, 0, 67, 70
1, 44818, Note_off_c, 0, 82, 18
1, 44821, Note_off_c, 0, 80, 55
1, 44824, Control_c, 0, 64, 97
1, 44824, Control_c, 0, 67, 71
1, 44833, Note_off_c, 0, 78, 63
1, 44839, Control_c, 0, 67, 71
1, 44844, Note_off_c, 0, 60, 50
1, 44853, Control_c, 0, 67, 72
1, 44868, Control_c, 0, 67, 73
1, 44883, Control_c, 0, 67, 74
1, 44897, Control_c, 0, 67, 75
1, 44912, Control_c, 0, 67, 76
1, 44927, Control_c, 0, 67, 76
1, 44931, Note_on_c, 0, 54, 25
1, 44939, Note_on_c, 0, 78, 63
1, 44948, Poly_aftertouch_c, 0, 56, 0
1, 44970, Note_off_c, 0, 54, 52
1, 44973, Poly_aftertouch_c, 0, 56, 0
1, 44977, Note_off_c, 0, 78, 62
1, 44997, Note_on_c, 0, 80, 63
1, 45001, Control_c, 0, 67, 75
1, 45009, Note_on_c, 0, 44, 48
1, 45016, Control_c, 0, 64, 96
1, 45048, Note_on_c, 0, 78, 68
1, 45060, Control_c, 0, 67, 75
1, 45069, Note_off_c, 0, 80, 57
1, 45075, Control_c, 0, 67, 74
1, 45090, Note_on_c, 0, 54, 47
1, 45090, Control_c, 0, 67, 74
1, 45119, Control_c, 0, 67, 73
1, 45126, Note_off_c, 0, 44, 29
1, 45164, Control_c, 0, 67, 72
1, 45179, Control_c, 0, 67, 72
1, 45236, Note_on_c, 0, 56, 45
1, 45236, Note_on_c, 0, 77, 74
1, 45244, Note_off_c, 0, 84, 18
1, 45251, Note_off_c, 0, 78, 60
1, 45267, Control_c, 0, 67, 71
1, 45285, Note_off_c, 0, 56, 54
1, 45295, Note_off_c, 0, 77, 64
1, 45299, Note_off_c, 0, 54, 30
1, 45349, Note_on_c, 0, 60, 45
1, 45364, Control_c, 0, 67, 71
1, 45390, Note_off_c, 0, 60, 52
1, 45423, Control_c, 0, 64, 96
1, 45429, Note_on_c, 0, 56, 44
1, 45483, Control_c, 0, 64, 95
1, 45484, Note_off_c, 0, 56, 43
1, 45498, Control_c, 0, 64, 95
1, 45513, Control_c, 0, 64, 94
1, 45513, Control_c, 0, 67, 70
1, 45527, Control_c, 0, 64, 94
1, 45534, Note_on_c, 0, 76, 74
1, 45542, Control_c, 0, 64, 93
1, 45557, Control_c, 0, 64, 92
1, 45560, Note_off_c, 0, 76, 66
1, 45572, Control_c, 0, 64, 91
1, 45587, Control_c, 0, 64, 89
1, 45587, Control_c, 0, 67, 70
1, 45601, Control_c, 0, 64, 86
1, 45616, Control_c, 0, 64, 81
1, 45631, Control_c, 0, 64, 74
1, 45632, Note_on_c, 0, 76, 71
1, 45645, Control_c, 0, 64, 67
1, 45648, Note_on_c, 0, 49, 50
1, 45660, Control_c, 0, 64, 58
1, 45675, Control_c, 0, 64, 42
1, 45690, Control_c, 0, 64, 16
1, 45705, Control_c, 0, 64, 0
1, 45734, Control_c, 0, 64, 11
1, 45749, Control_c, 0, 64, 36
1, 45764, Control_c, 0, 64, 53
1, 45773, Note_off_c, 0, 49, 60
1, 45779, Control_c, 0, 64, 64
1, 45793, Note_on_c, 0, 56, 42
1, 45793, Control_c, 0, 64, 68
1, 45808, Control_c, 0, 64, 71
1, 45823, Control_c, 0, 64, 73
1, 45838, Control_c, 0, 64, 74
1, 45838, Control_c, 0, 67, 69
1, 45845, Note_off_c, 0, 56, 52
1, 45852, Control_c, 0, 64, 77
1, 45852, Control_c, 0, 67, 69
1, 45867, Control_c, 0, 64, 79
1, 45867, Control_c, 0, 67, 68
1, 45882, Control_c, 0, 64, 82
1, 45891, Note_on_c, 0, 61, 46
1, 45897, Control_c, 0, 64, 85
1, 45897, Control_c, 0, 67, 67
1, 45912, Control_c, 0, 64, 88
1, 45912, Control_c, 0, 67, 64
1, 45915, Note_off_c, 0, 61, 57
1, 45927, Control_c, 0, 64, 90
1, 45927, Control_c, 0, 67, 63
1, 45942, Control_c, 0, 64, 93
1, 45942, Control_c, 0, 67, 62
1, 45957, Control_c, 0, 64, 94
1, 45957, Control_c, 0, 67, 62
1, 45962, Note_on_c, 0, 65, 43
1, 45972, Control_c, 0, 64, 96
1, 45987, Control_c, 0, 64, 96
1, 46001, Note_off_c, 0, 65, 48
1, 46001, Control_c, 0, 64, 97
1, 46019, Note_on_c, 0, 61, 49
1, 46079, Note_off_c, 0, 61, 54
1, 46097, Control_c, 0, 67, 62
1, 46112, Control_c, 0, 67, 63
1, 46125, Note_on_c, 0, 58, 34
1, 46141, Control_c, 0, 64, 96
1, 46156, Control_c, 0, 64, 95
1, 46158, Note_off_c, 0, 58, 54
1, 46171, Control_c, 0, 64, 92
1, 46171, Control_c, 0, 67, 63
1, 46186, Control_c, 0, 64, 87
1, 46192, Note_on_c, 0, 56, 47
1, 46200, Control_c, 0, 64, 79
1, 46216, Control_c, 0, 64, 68
1, 46224, Note_off_c, 0, 76, 58
1, 46225, Note_on_c, 0, 77, 56
1, 46231, Control_c, 0, 64, 57
1, 46246, Control_c, 0, 64, 40
1, 46261, Control_c, 0, 64, 11
1, 46275, Control_c, 0, 64, 0
1, 46290, Control_c, 0, 64, 22
1, 46305, Control_c, 0, 64, 41
1, 46305, Control_c, 0, 67, 63
1, 46320, Control_c, 0, 64, 55
1, 46321, Note_on_c, 0, 61, 45
1, 46335, Control_c, 0, 64, 64
1, 46335, Control_c, 0, 67, 62
1, 46349, Control_c, 0, 64, 69
1, 46364, Control_c, 0, 64, 74
1, 46364, Control_c, 0, 67, 61
1, 46379, Control_c, 0, 64, 80
1, 46379, Control_c, 0, 67, 61
1, 46384, Note_off_c, 0, 77, 65
1, 46389, Note_off_c, 0, 61, 58
1, 46394, Control_c, 0, 64, 83
1, 46409, Control_c, 0, 64, 87
1, 46423, Control_c, 0, 64, 90
1, 46429, Note_on_c, 0, 65, 37
1, 46438, Control_c, 0, 64, 94
1, 46453, Control_c, 0, 64, 97
1, 46467, Control_c, 0, 64, 101
1, 46467, Control_c, 0, 67, 60
1, 46481, Note_off_c, 0, 65, 50
1, 46482, Control_c, 0, 64, 103
1, 46482, Control_c, 0, 67, 59
1, 46497, Control_c, 0, 64, 104
1, 46500, Note_on_c, 0, 68, 43
1, 46512, Control_c, 0, 64, 104
1, 46527, Control_c, 0, 64, 105
1, 46536, Note_off_c, 0, 68, 50
1, 46541, Control_c, 0, 64, 106
1, 46556, Note_off_c, 0, 56, 55
1, 46556, Control_c, 0, 64, 106
1, 46558, Note_on_c, 0, 80, 60
1, 46571, Control_c, 0, 67, 59
1, 46586, Control_c, 0, 67, 58
1, 46589, Note_off_c, 0, 80, 64
1, 46601, Control_c, 0, 67, 57
1, 46609, Note_on_c, 0, 61, 43
1, 46616, Control_c, 0, 67, 54
1, 46624, Note_on_c, 0, 68, 60
1, 46630, Control_c, 0, 67, 52
1, 46645, Control_c, 0, 67, 51
1, 46650, Note_off_c, 0, 61, 54
1, 46660, Control_c, 0, 64, 97
1, 46660, Control_c, 0, 67, 50
1, 46675, Control_c, 0, 64, 79
1, 46675, Control_c, 0, 67, 48
1, 46690, Control_c, 0, 64, 65
1, 46690, Control_c, 0, 67, 47
1, 46691, Note_on_c, 0, 80, 61
1, 46696, Note_on_c, 0, 54, 55
1, 46705, Control_c, 0, 64, 48
1, 46720, Control_c, 0, 64, 36
1, 46720, Control_c, 0, 67, 47
1, 46734, Control_c, 0, 64, 46
1, 46734, Control_c, 0, 67, 46
1, 46749, Control_c, 0, 64, 60
1, 46749, Control_c, 0, 67, 46
1, 46757, Note_off_c, 0, 68, 57
1, 46762, Note_off_c, 0, 54, 0
1, 46765, Control_c, 0, 64, 70
1, 46765, Control_c, 0, 67, 45
1, 46780, Control_c, 0, 64, 82
1, 46780, Control_c, 0, 67, 45
1, 46780, Note_off_c, 0, 80, 62
1, 46802, Note_on_c, 0, 54, 6
1, 46802, Control_c, 0, 64, 95
1, 46802, Control_c, 0, 67, 44
1, 46817, Control_c, 0, 64, 102
1, 46824, Note_on_c, 0, 56, 43
1, 46831, Control_c, 0, 64, 105
1, 46846, Control_c, 0, 64, 109
1, 46856, Note_off_c, 0, 54, 46
1, 46861, Control_c, 0, 64, 127
1, 46866, Note_off_c, 0, 56, 54
1, 46890, Control_c, 0, 67, 44
1, 46905, Control_c, 0, 67, 43
1, 46920, Control_c, 0, 67, 39
1, 46935, Control_c, 0, 67, 35
1, 46938, Note_on_c, 0, 63, 47
1, 46949, Control_c, 0, 67, 26
1, 46964, Control_c, 0, 67, 15
1, 46967, Note_off_c, 0, 63, 55
1, 46979, Control_c, 0, 67, 0
1, 46988, Note_on_c, 0, 72, 44
1, 46999, Note_on_c, 0, 71, 49
1, 47018, Poly_aftertouch_c, 0, 60, 127
1, 47025, Note_off_c, 0, 71, 53
1, 47048, Poly_aftertouch_c, 0, 60, 0
1, 47050, Note_on_c, 0, 56, 40
1, 47067, Poly_aftertouch_c, 0, 60, 0
1, 47090, Note_off_c, 0, 56, 61
1, 47113, Note_on_c, 0, 54, 54
1, 47120, Note_on_c, 0, 84, 78
1, 47140, Note_off_c, 0, 72, 56
1, 47189, Note_on_c, 0, 56, 56
1, 47233, Note_off_c, 0, 56, 56
1, 47240, Note_off_c, 0, 54, 47
1, 47259, Note_on_c, 0, 82, 77
1, 47260, Note_off_c, 0, 84, 65
1, 47261, Note_on_c, 0, 60, 48
1, 47273, Note_on_c, 0, 70, 60
1, 47283, Note_off_c, 0, 82, 68
1, 47288, Note_off_c, 0, 60, 60
1, 47292, Note_off_c, 0, 70, 63
1, 47313, Note_on_c, 0, 63, 46
1, 47337, Note_off_c, 0, 63, 59
1, 47391, Note_on_c, 0, 60, 27
1, 47426, Note_off_c, 0, 60, 45
1, 47436, Note_on_c, 0, 56, 54
1, 47468, Note_on_c, 0, 80, 77
1, 47480, Note_on_c, 0, 68, 64
1, 47487, Note_off_c, 0, 56, 60
1, 47490, Note_off_c, 0, 80, 66
1, 47499, Note_off_c, 0, 68, 65
1, 47506, Note_on_c, 0, 53, 61
1, 47544, Note_on_c, 0, 80, 86
1, 47551, Control_c, 0, 64, 111
1, 47566, Control_c, 0, 64, 75
1, 47569, Note_on_c, 0, 68, 69
1, 47580, Control_c, 0, 64, 54
1, 47595, Control_c, 0, 64, 0
1, 47617, Note_on_c, 0, 56, 52
1, 47624, Control_c, 0, 64, 10
1, 47630, Note_off_c, 0, 68, 0
1, 47630, Note_on_c, 0, 68, 22
1, 47639, Control_c, 0, 64, 51
1, 47654, Control_c, 0, 64, 66
1, 47669, Control_c, 0, 64, 75
1, 47681, Note_on_c, 0, 61, 64
1, 47684, Control_c, 0, 64, 85
1, 47695, Note_off_c, 0, 68, 63
1, 47698, Control_c, 0, 64, 90
1, 47713, Control_c, 0, 64, 93
1, 47714, Note_off_c, 0, 61, 64
1, 47728, Control_c, 0, 64, 95
1, 47729, Note_off_c, 0, 56, 37
1, 47743, Control_c, 0, 64, 98
1, 47752, Note_on_c, 0, 65, 66
1, 47758, Control_c, 0, 64, 103
1, 47772, Control_c, 0, 64, 107
1, 47781, Note_off_c, 0, 53, 57
1, 47787, Control_c, 0, 64, 115
1, 47793, Note_off_c, 0, 65, 58
1, 47802, Control_c, 0, 64, 127
1, 47809, Note_on_c, 0, 61, 67
1, 47853, Note_off_c, 0, 61, 60
1, 47874, Note_on_c, 0, 56, 58
1, 47916, Note_off_c, 0, 56, 60
1, 47927, Note_on_c, 0, 53, 62
1, 47963, Note_on_c, 0, 85, 85
1, 47975, Note_on_c, 0, 73, 70
1, 47995, Note_off_c, 0, 53, 61
1, 48011, Note_on_c, 0, 56, 55
1, 48040, Note_off_c, 0, 73, 63
1, 48042, Note_off_c, 0, 56, 64
1, 48064, Note_off_c, 0, 85, 63
1, 48067, Note_on_c, 0, 61, 63
1, 48103, Note_off_c, 0, 80, 63
1, 48103, Note_off_c, 0, 61, 60
1, 48145, Note_on_c, 0, 68, 69
1, 48182, Note_off_c, 0, 68, 63
1, 48182, Poly_aftertouch_c, 0, 56, 127
1, 48198, Note_on_c, 0, 61, 63
1, 48219, Poly_aftertouch_c, 0, 56, 0
1, 48279, Note_off_c, 0, 61, 61
1, 48291, Note_on_c, 0, 56, 60
1, 48371, Note_on_c, 0, 85, 88
1, 48386, Note_on_c, 0, 73, 67
1, 48386, Note_on_c, 0, 78, 73
1, 48388, Note_on_c, 0, 51, 65
1, 48388, Note_off_c, 0, 56, 60
1, 48393, Note_on_c, 0, 80, 68
1, 48403, Control_c, 0, 64, 84
1, 48418, Control_c, 0, 64, 63
1, 48433, Control_c, 0, 64, 31
1, 48447, Control_c, 0, 64, 0
1, 48477, Control_c, 0, 64, 37
1, 48492, Control_c, 0, 64, 63
1, 48507, Control_c, 0, 64, 72
1, 48509, Note_on_c, 0, 56, 58
1, 48521, Control_c, 0, 64, 81
1, 48536, Control_c, 0, 64, 92
1, 48550, Note_off_c, 0, 56, 61
1, 48551, Control_c, 0, 64, 101
1, 48562, Note_on_c, 0, 60, 56
1, 48566, Control_c, 0, 64, 127
1, 48628, Note_off_c, 0, 85, 63
1, 48642, Note_off_c, 0, 73, 65
1, 48644, Note_off_c, 0, 60, 58
1, 48647, Note_on_c, 0, 66, 64
1, 48678, Note_off_c, 0, 66, 64
1, 48682, Note_on_c, 0, 84, 88
1, 48689, Note_on_c, 0, 72, 77
1, 48705, Note_off_c, 0, 51, 33
1, 48723, Note_on_c, 0, 60, 50
1, 48795, Note_on_c, 0, 56, 49
1, 48796, Note_off_c, 0, 60, 55
1, 48796, Note_off_c, 0, 84, 63
1, 48807, Note_off_c, 0, 72, 58
1, 48875, Note_on_c, 0, 51, 64
1, 48881, Note_off_c, 0, 56, 61
1, 48881, Note_on_c, 0, 84, 92
1, 48893, Note_on_c, 0, 72, 77
1, 48952, Note_off_c, 0, 80, 51
1, 48965, Note_off_c, 0, 72, 61
1, 48979, Note_off_c, 0, 84, 64
1, 49003, Note_on_c, 0, 56, 53
1, 49025, Note_off_c, 0, 78, 62
1, 49053, Note_on_c, 0, 60, 63
1, 49069, Note_off_c, 0, 56, 54
1, 49086, Note_on_c, 0, 82, 79
1, 49087, Note_on_c, 0, 70, 72
1, 49098, Note_off_c, 0, 51, 60
1, 49110, Note_off_c, 0, 82, 69
1, 49113, Note_off_c, 0, 70, 67
1, 49117, Note_off_c, 0, 60, 52
1, 49134, Note_on_c, 0, 66, 66
1, 49167, Note_on_c, 0, 80, 77
1, 49173, Note_on_c, 0, 68, 77
1, 49173, Note_off_c, 0, 66, 64
1, 49195, Note_off_c, 0, 68, 69
1, 49202, Note_off_c, 0, 80, 59
1, 49215, Note_on_c, 0, 60, 53
1, 49269, Note_off_c, 0, 60, 54
1, 49276, Note_on_c, 0, 56, 52
1, 49301, Poly_aftertouch_c, 0, 68, 127
1, 49340, Poly_aftertouch_c, 0, 68, 0
1, 49403, Note_off_c, 0, 56, 60
1, 49418, Note_on_c, 0, 89, 82
1, 49427, Note_on_c, 0, 50, 54
1, 49430, Note_on_c, 0, 80, 71
1, 49434, Note_on_c, 0, 77, 71
1, 49435, Control_c, 0, 64, 110
1, 49449, Control_c, 0, 64, 83
1, 49464, Control_c, 0, 64, 67
1, 49479, Control_c, 0, 64, 49
1, 49493, Control_c, 0, 64, 0
1, 49553, Control_c, 0, 64, 31
1, 49567, Control_c, 0, 64, 52
1, 49568, Note_on_c, 0, 56, 52
1, 49582, Control_c, 0, 64, 63
1, 49597, Control_c, 0, 64, 71
1, 49612, Control_c, 0, 64, 76
1, 49627, Control_c, 0, 64, 82
1, 49636, Note_off_c, 0, 50, 36
1, 49639, Note_off_c, 0, 77, 64
1, 49641, Control_c, 0, 64, 87
1, 49653, Note_off_c, 0, 89, 63
1, 49656, Control_c, 0, 64, 93
1, 49671, Control_c, 0, 64, 103
1, 49680, Note_on_c, 0, 59, 51
1, 49680, Note_off_c, 0, 56, 55
1, 49682, Note_off_c, 0, 80, 63
1, 49686, Control_c, 0, 64, 117
1, 49701, Control_c, 0, 64, 127
1, 49708, Note_off_c, 0, 59, 60
1, 49745, Note_on_c, 0, 65, 61
1, 49795, Note_off_c, 0, 65, 61
1, 49798, Control_c, 0, 67, 8
1, 49813, Control_c, 0, 67, 9
1, 49817, Note_on_c, 0, 59, 57
1, 49874, Note_off_c, 0, 59, 63
1, 49893, Note_on_c, 0, 56, 47
1, 49949, Note_off_c, 0, 56, 57
1, 49975, Control_c, 0, 67, 10
1, 49983, Note_on_c, 0, 50, 55
1, 50011, Note_on_c, 0, 89, 84
1, 50020, Control_c, 0, 64, 110
1, 50020, Control_c, 0, 67, 11
1, 50023, Note_on_c, 0, 80, 64
1, 50033, Note_on_c, 0, 77, 53
1, 50035, Control_c, 0, 64, 95
1, 50035, Control_c, 0, 67, 12
1, 50050, Control_c, 0, 64, 80
1, 50050, Control_c, 0, 67, 13
1, 50064, Control_c, 0, 64, 67
1, 50064, Control_c, 0, 67, 14
1, 50079, Control_c, 0, 64, 53
1, 50094, Control_c, 0, 64, 26
1, 50109, Control_c, 0, 64, 0
1, 50109, Control_c, 0, 67, 14
1, 50124, Control_c, 0, 67, 15
1, 50139, Control_c, 0, 64, 29
1, 50139, Control_c, 0, 67, 15
1, 50154, Control_c, 0, 64, 49
1, 50154, Control_c, 0, 67, 16
1, 50157, Note_on_c, 0, 56, 47
1, 50168, Control_c, 0, 64, 61
1, 50168, Control_c, 0, 67, 19
1, 50183, Control_c, 0, 64, 66
1, 50183, Control_c, 0, 67, 23
1, 50198, Control_c, 0, 64, 69
1, 50198, Control_c, 0, 67, 24
1, 50214, Control_c, 0, 64, 72
1, 50214, Control_c, 0, 67, 25
1, 50228, Control_c, 0, 64, 75
1, 50243, Control_c, 0, 64, 79
1, 50243, Control_c, 0, 67, 25
1, 50258, Control_c, 0, 64, 83
1, 50271, Note_off_c, 0, 56, 52
1, 50272, Note_off_c, 0, 50, 32
1, 50273, Control_c, 0, 64, 88
1, 50285, Note_on_c, 0, 58, 42
1, 50288, Control_c, 0, 64, 92
1, 50303, Control_c, 0, 64, 96
1, 50317, Control_c, 0, 64, 99
1, 50332, Control_c, 0, 64, 101
1, 50332, Control_c, 0, 67, 26
1, 50342, Note_off_c, 0, 89, 47
1, 50345, Note_off_c, 0, 58, 50
1, 50347, Control_c, 0, 64, 102
1, 50362, Control_c, 0, 64, 103
1, 50362, Control_c, 0, 67, 26
1, 50366, Note_off_c, 0, 80, 55
1, 50376, Note_on_c, 0, 65, 55
1, 50377, Control_c, 0, 64, 104
1, 50377, Control_c, 0, 67, 28
1, 50391, Control_c, 0, 67, 31
1, 50393, Note_off_c, 0, 77, 57
1, 50406, Control_c, 0, 64, 104
1, 50406, Control_c, 0, 67, 34
1, 50421, Control_c, 0, 64, 105
1, 50421, Control_c, 0, 67, 37
1, 50434, Note_off_c, 0, 65, 52
1, 50435, Control_c, 0, 67, 40
1, 50450, Control_c, 0, 67, 44
1, 50465, Control_c, 0, 67, 47
1, 50480, Control_c, 0, 67, 49
1, 50490, Note_on_c, 0, 58, 37
1, 50495, Control_c, 0, 67, 50
1, 50509, Control_c, 0, 67, 50
1, 50518, Note_on_c, 0, 89, 76
1, 50524, Control_c, 0, 64, 104
1, 50536, Note_on_c, 0, 77, 57
1, 50544, Note_on_c, 0, 80, 59
1, 50589, Note_off_c, 0, 58, 34
1, 50605, Control_c, 0, 67, 51
1, 50610, Note_on_c, 0, 56, 35
1, 50637, Note_off_c, 0, 80, 60
1, 50640, Note_off_c, 0, 77, 53
1, 50649, Note_off_c, 0, 89, 55
1, 50694, Control_c, 0, 67, 51
1, 50709, Control_c, 0, 64, 104
1, 50723, Control_c, 0, 67, 52
1, 50738, Control_c, 0, 64, 102
1, 50738, Control_c, 0, 67, 53
1, 50753, Control_c, 0, 64, 100
1, 50753, Control_c, 0, 67, 55
1, 50768, Control_c, 0, 64, 96
1, 50768, Control_c, 0, 67, 55
1, 50783, Control_c, 0, 64, 89
1, 50783, Control_c, 0, 67, 56
1, 50786, Note_off_c, 0, 56, 43
1, 50786, Note_on_c, 0, 89, 68
1, 50792, Note_on_c, 0, 51, 45
1, 50798, Control_c, 0, 64, 77
1, 50799, Note_on_c, 0, 77, 56
1, 50804, Note_on_c, 0, 80, 58
1, 50813, Control_c, 0, 64, 63
1, 50828, Control_c, 0, 64, 47
1, 50842, Control_c, 0, 64, 20
1, 50857, Control_c, 0, 64, 0
1, 50872, Control_c, 0, 64, 30
1, 50887, Control_c, 0, 64, 51
1, 50887, Control_c, 0, 67, 55
1, 50902, Control_c, 0, 64, 64
1, 50916, Control_c, 0, 64, 68
1, 50931, Control_c, 0, 64, 72
1, 50931, Control_c, 0, 67, 55
1, 50937, Note_on_c, 0, 54, 47
1, 50946, Control_c, 0, 64, 76
1, 50946, Control_c, 0, 67, 54
1, 50961, Control_c, 0, 64, 79
1, 50961, Control_c, 0, 67, 53
1, 50976, Control_c, 0, 64, 84
1, 50976, Control_c, 0, 67, 52
1, 50986, Note_off_c, 0, 89, 55
1, 50990, Control_c, 0, 64, 90
1, 50990, Control_c, 0, 67, 51
1, 51006, Control_c, 0, 64, 99
1, 51006, Control_c, 0, 67, 50
1, 51012, Note_off_c, 0, 54, 52
1, 51021, Control_c, 0, 64, 115
1, 51021, Control_c, 0, 67, 50
1, 51021, Note_on_c, 0, 58, 55
1, 51036, Control_c, 0, 64, 127
1, 51036, Control_c, 0, 67, 49
1, 51051, Control_c, 0, 67, 48
1, 51055, Note_off_c, 0, 58, 65
1, 51065, Control_c, 0, 67, 48
1, 51093, Note_on_c, 0, 63, 52
1, 51095, Control_c, 0, 67, 47
1, 51110, Control_c, 0, 67, 47
1, 51113, Note_off_c, 0, 80, 51
1, 51120, Note_off_c, 0, 63, 58
1, 51120, Note_off_c, 0, 77, 56
1, 51125, Control_c, 0, 67, 46
1, 51139, Note_off_c, 0, 51, 24
1, 51139, Control_c, 0, 67, 46
1, 51150, Note_on_c, 0, 58, 49
1, 51169, Control_c, 0, 67, 45
1, 51170, Note_off_c, 0, 58, 62
1, 51185, Note_on_c, 0, 54, 53
1, 51211, Note_off_c, 0, 54, 63
1, 51213, Control_c, 0, 67, 45
1, 51243, Control_c, 0, 67, 44
1, 51257, Control_c, 0, 67, 44
1, 51272, Control_c, 0, 67, 43
1, 51310, Control_c, 0, 67, 43
1, 51331, Note_on_c, 0, 42, 59
1, 51332, Note_on_c, 0, 87, 73
1, 51349, Note_on_c, 0, 75, 51
1, 51353, Note_on_c, 0, 78, 56
1, 51354, Control_c, 0, 67, 42
1, 51366, Note_off_c, 0, 42, 64
1, 51384, Control_c, 0, 67, 42
1, 51399, Control_c, 0, 67, 41
1, 51428, Control_c, 0, 67, 41
1, 51472, Control_c, 0, 67, 40
1, 51479, Note_off_c, 0, 87, 60
1, 51486, Note_on_c, 0, 54, 52
1, 51487, Control_c, 0, 67, 39
1, 51502, Control_c, 0, 67, 37
1, 51517, Control_c, 0, 67, 35
1, 51532, Control_c, 0, 67, 34
1, 51542, Note_off_c, 0, 75, 60
1, 51546, Note_off_c, 0, 54, 51
1, 51546, Control_c, 0, 67, 32
1, 51559, Note_off_c, 0, 78, 61
1, 51561, Control_c, 0, 67, 30
1, 51576, Control_c, 0, 67, 28
1, 51582, Note_on_c, 0, 58, 48
1, 51591, Control_c, 0, 67, 26
1, 51606, Control_c, 0, 67, 23
1, 51621, Control_c, 0, 67, 21
1, 51628, Note_off_c, 0, 58, 62
1, 51635, Control_c, 0, 67, 19
1, 51650, Note_on_c, 0, 85, 75
1, 51650, Control_c, 0, 67, 17
1, 51665, Control_c, 0, 67, 15
1, 51668, Note_on_c, 0, 63, 52
1, 51678, Note_on_c, 0, 73, 49
1, 51680, Control_c, 0, 67, 13
1, 51680, Note_on_c, 0, 78, 59
1, 51695, Control_c, 0, 67, 11
1, 51710, Note_off_c, 0, 63, 57
1, 51710, Control_c, 0, 67, 9
1, 51725, Control_c, 0, 67, 0
1, 51734, Note_on_c, 0, 58, 59
1, 51778, Note_off_c, 0, 73, 60
1, 51782, Note_off_c, 0, 58, 55
1, 51818, Note_off_c, 0, 78, 51
1, 51834, Note_on_c, 0, 54, 53
1, 51883, Note_on_c, 0, 78, 55
1, 51898, Note_on_c, 0, 82, 68
1, 51910, Note_on_c, 0, 70, 52
1, 51931, Note_off_c, 0, 70, 62
1, 51939, Note_off_c, 0, 85, 55
1, 51971, Note_off_c, 0, 54, 0
1, 51981, Note_on_c, 0, 44, 58
1, 51981, Note_off_c, 0, 78, 52
1, 51986, Note_on_c, 0, 84, 77
1, 51996, Note_on_c, 0, 72, 69
1, 51997, Note_on_c, 0, 80, 69
1, 51997, Note_off_c, 0, 82, 56
1, 52005, Poly_aftertouch_c, 0, 54, 0
1, 52022, Control_c, 0, 64, 94
1, 52044, Control_c, 0, 64, 69
1, 52059, Control_c, 0, 64, 43
1, 52074, Control_c, 0, 64, 0
1, 52116, Note_on_c, 0, 53, 56
1, 52118, Control_c, 0, 64, 42
1, 52133, Control_c, 0, 64, 61
1, 52148, Control_c, 0, 64, 66
1, 52159, Note_off_c, 0, 44, 58
1, 52162, Control_c, 0, 64, 69
1, 52177, Control_c, 0, 64, 73
1, 52192, Control_c, 0, 64, 77
1, 52195, Note_off_c, 0, 53, 51
1, 52207, Control_c, 0, 64, 83
1, 52214, Note_on_c, 0, 56, 58
1, 52222, Control_c, 0, 64, 92
1, 52236, Control_c, 0, 64, 114
1, 52251, Control_c, 0, 64, 127
1, 52259, Note_off_c, 0, 56, 58
1, 52287, Note_on_c, 0, 61, 59
1, 52324, Note_off_c, 0, 61, 63
1, 52332, Note_off_c, 0, 80, 55
1, 52344, Note_on_c, 0, 56, 67
1, 52354, Note_off_c, 0, 72, 61
1, 52374, Note_off_c, 0, 56, 63
1, 52396, Note_on_c, 0, 53, 50
1, 52450, Note_off_c, 0, 53, 55
1, 52477, Note_on_c, 0, 44, 63
1, 52503, Note_on_c, 0, 82, 76
1, 52512, Note_on_c, 0, 70, 68
1, 52551, Note_off_c, 0, 84, 61
1, 52575, Note_on_c, 0, 53, 51
1, 52578, Note_off_c, 0, 44, 60
1, 52611, Note_off_c, 0, 82, 63
1, 52614, Note_off_c, 0, 70, 60
1, 52641, Note_off_c, 0, 53, 51
1, 52650, Note_on_c, 0, 56, 63
1, 52688, Note_on_c, 0, 80, 79
1, 52699, Note_on_c, 0, 68, 71
1, 52706, Note_on_c, 0, 77, 50
1, 52717, Note_off_c, 0, 56, 59
1, 52730, Note_on_c, 0, 61, 62
1, 52735, Note_off_c, 0, 77, 60
1, 52747, Note_off_c, 0, 68, 58
1, 52769, Note_off_c, 0, 61, 60
1, 52785, Note_off_c, 0, 80, 57
1, 52815, Note_on_c, 0, 56, 58
1, 52837, Note_on_c, 0, 82, 80
1, 52845, Note_off_c, 0, 56, 65
1, 52846, Note_on_c, 0, 77, 56
1, 52847, Note_on_c, 0, 70, 69
1, 52856, Note_on_c, 0, 53, 60
1, 52911, Note_off_c, 0, 82, 59
1, 52914, Note_off_c, 0, 77, 55
1, 52915, Note_off_c, 0, 70, 62
1, 52952, Note_off_c, 0, 53, 45
1, 52976, Note_on_c, 0, 44, 76
1, 52995, Note_on_c, 0, 83, 83
1, 53000, Control_c, 0, 64, 89
1, 53002, Note_on_c, 0, 77, 57
1, 53005, Note_on_c, 0, 71, 72
1, 53015, Control_c, 0, 64, 63
1, 53029, Control_c, 0, 64, 30
1, 53044, Control_c, 0, 64, 0
1, 53074, Control_c, 0, 64, 29
1, 53089, Control_c, 0, 64, 56
1, 53103, Control_c, 0, 64, 67
1, 53118, Control_c, 0, 64, 75
1, 53133, Control_c, 0, 64, 83
1, 53148, Control_c, 0, 64, 91
1, 53161, Note_on_c, 0, 53, 56
1, 53163, Control_c, 0, 64, 104
1, 53177, Control_c, 0, 64, 127
1, 53185, Note_off_c, 0, 44, 59
1, 53234, Note_off_c, 0, 53, 54
1, 53245, Note_on_c, 0, 56, 63
1, 53253, Note_off_c, 0, 71, 63
1, 53287, Note_off_c, 0, 56, 58
1, 53303, Note_off_c, 0, 77, 58
1, 53305, Note_on_c, 0, 62, 67
1, 53338, Note_off_c, 0, 62, 61
1, 53361, Note_on_c, 0, 56, 74
1, 53361, Note_on_c, 0, 82, 81
1, 53373, Note_on_c, 0, 70, 73
1, 53415, Note_off_c, 0, 83, 46
1, 53417, Note_off_c, 0, 56, 61
1, 53421, Note_on_c, 0, 53, 63
1, 53435, Poly_aftertouch_c, 0, 77, 0
1, 53472, Poly_aftertouch_c, 0, 77, 0
1, 53478, Note_off_c, 0, 53, 49
1, 53504, Note_off_c, 0, 70, 62
1, 53533, Note_on_c, 0, 44, 73
1, 53545, Note_on_c, 0, 83, 83
1, 53547, Note_on_c, 0, 77, 59
1, 53556, Note_on_c, 0, 71, 75
1, 53591, Note_off_c, 0, 82, 30
1, 53635, Note_on_c, 0, 53, 63
1, 53638, Note_off_c, 0, 44, 61
1, 53687, Note_off_c, 0, 53, 52
1, 53710, Note_on_c, 0, 56, 68
1, 53755, Note_off_c, 0, 56, 60
1, 53763, Note_on_c, 0, 62, 72
1, 53804, Note_off_c, 0, 62, 57
1, 53824, Note_on_c, 0, 56, 81
1, 53849, Note_off_c, 0, 71, 48
1, 53871, Note_on_c, 0, 53, 63
1, 53872, Note_off_c, 0, 56, 60
1, 53920, Note_off_c, 0, 53, 61
1, 53925, Note_on_c, 0, 44, 84
1, 54001, Note_on_c, 0, 53, 72
1, 54002, Note_off_c, 0, 44, 62
1, 54060, Note_on_c, 0, 56, 76
1, 54064, Note_off_c, 0, 53, 50
1, 54093, Note_off_c, 0, 77, 37
1, 54122, Note_on_c, 0, 62, 76
1, 54127, Note_off_c, 0, 56, 60
1, 54157, Note_off_c, 0, 62, 59
1, 54160, Note_on_c, 0, 82, 90
1, 54164, Note_on_c, 0, 70, 81
1, 54182, Note_on_c, 0, 56, 72
1, 54187, Note_off_c, 0, 83, 63
1, 54237, Note_off_c, 0, 56, 62
1, 54239, Note_on_c, 0, 77, 3
1, 54241, Note_on_c, 0, 53, 65
1, 54291, Note_off_c, 0, 70, 62
1, 54291, Note_off_c, 0, 77, 47
1, 54315, Note_off_c, 0, 53, 51
1, 54330, Note_on_c, 0, 44, 84
1, 54356, Note_on_c, 0, 83, 88
1, 54362, Note_on_c, 0, 71, 83
1, 54367, Note_on_c, 0, 77, 75
1, 54413, Note_off_c, 0, 82, 46
1, 54414, Note_on_c, 0, 53, 66
1, 54421, Note_off_c, 0, 71, 64
1, 54432, Note_off_c, 0, 44, 62
1, 54454, Note_off_c, 0, 77, 62
1, 54482, Note_on_c, 0, 56, 73
1, 54493, Note_off_c, 0, 53, 54
1, 54494, Note_on_c, 0, 77, 66
1, 54497, Note_on_c, 0, 70, 92
1, 54497, Note_off_c, 0, 83, 53
1, 54502, Note_on_c, 0, 82, 85
1, 54539, Note_off_c, 0, 56, 58
1, 54546, Note_on_c, 0, 62, 63
1, 54554, Note_off_c, 0, 77, 63
1, 54559, Note_off_c, 0, 70, 60
1, 54567, Note_off_c, 0, 62, 62
1, 54595, Note_on_c, 0, 77, 65
1, 54597, Note_on_c, 0, 71, 86
1, 54598, Note_on_c, 0, 83, 96
1, 54600, Note_on_c, 0, 56, 70
1, 54633, Note_off_c, 0, 82, 59
1, 54647, Note_off_c, 0, 56, 64
1, 54648, Note_off_c, 0, 71, 63
1, 54657, Note_off_c, 0, 83, 65
1, 54660, Note_on_c, 0, 53, 62
1, 54660, Note_off_c, 0, 77, 65
1, 54721, Note_off_c, 0, 53, 60
1, 54727, Note_on_c, 0, 83, 98
1, 54729, Note_on_c, 0, 44, 85
1, 54732, Note_on_c, 0, 78, 87
1, 54733, Note_on_c, 0, 71, 92
1, 54735, Control_c, 0, 64, 67
1, 54749, Control_c, 0, 64, 0
1, 54794, Control_c, 0, 64, 12
1, 54808, Control_c, 0, 64, 66
1, 54813, Note_on_c, 0, 51, 69
1, 54822, Note_off_c, 0, 44, 61
1, 54823, Control_c, 0, 64, 96
1, 54838, Control_c, 0, 64, 127
1, 54879, Note_on_c, 0, 54, 75
1, 54900, Note_off_c, 0, 51, 62
1, 54947, Note_off_c, 0, 71, 62
1, 54965, Note_on_c, 0, 63, 78
1, 54976, Note_off_c, 0, 54, 63
1, 54982, Note_off_c, 0, 78, 62
1, 55032, Note_off_c, 0, 63, 64
1, 55056, Note_on_c, 0, 70, 92
1, 55056, Note_on_c, 0, 82, 96
1, 55058, Note_on_c, 0, 54, 79
1, 55066, Note_on_c, 0, 78, 80
1, 55069, Note_off_c, 0, 83, 68
1, 55074, Note_off_c, 0, 70, 72
1, 55090, Note_off_c, 0, 78, 68
1, 55111, Note_off_c, 0, 82, 66
1, 55145, Note_off_c, 0, 54, 63
1, 55153, Note_on_c, 0, 51, 61
1, 55300, Note_on_c, 0, 44, 80
1, 55301, Note_off_c, 0, 51, 64
1, 55317, Note_on_c, 0, 94, 103
1, 55320, Note_on_c, 0, 82, 101
1, 55324, Note_on_c, 0, 90, 95
1, 55383, Note_off_c, 0, 82, 64
1, 55390, Note_off_c, 0, 44, 61
1, 55397, Note_on_c, 0, 51, 66
1, 55406, Note_off_c, 0, 94, 65
1, 55431, Note_off_c, 0, 90, 67
1, 55466, Note_on_c, 0, 54, 73
1, 55480, Note_off_c, 0, 51, 58
1, 55529, Note_off_c, 0, 54, 62
1, 55540, Note_on_c, 0, 63, 77
1, 55591, Note_off_c, 0, 63, 63
1, 55616, Note_on_c, 0, 54, 76
1, 55680, Note_off_c, 0, 54, 62
1, 55684, Note_on_c, 0, 51, 67
1, 55735, Control_c, 0, 64, 66
1, 55750, Control_c, 0, 64, 0
1, 55756, Note_on_c, 0, 44, 90
1, 55764, Note_off_c, 0, 51, 62
1, 55765, Control_c, 0, 64, 12
1, 55787, Control_c, 0, 64, 0
1, 55803, Control_c, 0, 64, 56
1, 55818, Control_c, 0, 64, 83
1, 55833, Control_c, 0, 64, 127
1, 55853, Note_on_c, 0, 51, 67
1, 55886, Note_off_c, 0, 44, 59
1, 55898, Poly_aftertouch_c, 0, 50, 127
1, 55936, Poly_aftertouch_c, 0, 50, 0
1, 55937, Note_on_c, 0, 54, 67
1, 55953, Note_off_c, 0, 51, 62
1, 55976, Note_on_c, 0, 72, 80
1, 55977, Note_on_c, 0, 78, 81
1, 55977, Note_on_c, 0, 84, 85
1, 55997, Note_off_c, 0, 54, 57
1, 55998, Note_off_c, 0, 78, 69
1, 55999, Note_off_c, 0, 72, 67
1, 55999, Note_off_c, 0, 84, 70
1, 56006, Note_on_c, 0, 60, 68
1, 56036, Note_off_c, 0, 60, 61
1, 56046, Note_on_c, 0, 72, 91
1, 56046, Note_on_c, 0, 78, 93
1, 56046, Note_on_c, 0, 84, 91
1, 56070, Note_off_c, 0, 72, 68
1, 56074, Note_off_c, 0, 84, 64
1, 56075, Note_on_c, 0, 54, 65
1, 56083, Note_off_c, 0, 78, 63
1, 56121, Note_off_c, 0, 54, 56
1, 56140, Note_on_c, 0, 51, 64
1, 56221, Note_off_c, 0, 51, 63
1, 56228, Note_on_c, 0, 44, 98
1, 56229, Note_on_c, 0, 84, 100
1, 56229, Note_on_c, 0, 72, 97
1, 56232, Note_on_c, 0, 78, 87
1, 56248, Note_off_c, 0, 72, 70
1, 56250, Note_off_c, 0, 78, 69
1, 56261, Note_off_c, 0, 84, 64
1, 56309, Note_on_c, 0, 51, 74
1, 56317, Note_off_c, 0, 44, 61
1, 56387, Note_on_c, 0, 54, 72
1, 56411, Note_off_c, 0, 51, 58
1, 56437, Note_on_c, 0, 80, 87
1, 56444, Note_off_c, 0, 54, 59
1, 56445, Note_on_c, 0, 89, 78
1, 56446, Note_on_c, 0, 60, 80
1, 56450, Note_on_c, 0, 77, 66
1, 56456, Note_off_c, 0, 80, 70
1, 56459, Note_off_c, 0, 89, 70
1, 56466, Note_off_c, 0, 77, 67
1, 56491, Note_off_c, 0, 60, 58
1, 56517, Note_on_c, 0, 54, 63
1, 56530, Note_on_c, 0, 75, 100
1, 56530, Note_on_c, 0, 87, 92
1, 56536, Control_c, 0, 64, 88
1, 56547, Note_off_c, 0, 54, 68
1, 56551, Note_on_c, 0, 51, 69
1, 56551, Control_c, 0, 64, 49
1, 56557, Note_off_c, 0, 75, 65
1, 56558, Note_off_c, 0, 87, 64
1, 56566, Control_c, 0, 64, 0
1, 56573, Note_off_c, 0, 51, 64
1, 56730, Control_c, 0, 64, 17
1, 56736, Note_on_c, 0, 85, 88
1, 56736, Note_on_c, 0, 73, 87
1, 56740, Note_on_c, 0, 77, 85
1, 56745, Control_c, 0, 64, 55
1, 56751, Note_on_c, 0, 37, 93
1, 56756, Note_off_c, 0, 73, 70
1, 56759, Control_c, 0, 64, 75
1, 56774, Control_c, 0, 64, 127
1, 56779, Note_off_c, 0, 77, 67
1, 56780, Note_off_c, 0, 85, 64
1, 56794, Note_off_c, 0, 37, 64
1, 56845, Poly_aftertouch_c, 0, 75, 0
1, 57073, Note_on_c, 0, 44, 61
1, 57129, Note_on_c, 0, 53, 65
1, 57147, Note_off_c, 0, 44, 62
1, 57171, Note_off_c, 0, 53, 62
1, 57186, Note_on_c, 0, 61, 74
1, 57194, Note_on_c, 0, 65, 86
1, 57210, Note_off_c, 0, 61, 66
1, 57247, Note_off_c, 0, 65, 62
1, 57281, Note_on_c, 0, 73, 66
1, 57316, Note_off_c, 0, 73, 63
1, 57328, Note_on_c, 0, 80, 71
1, 57353, Note_off_c, 0, 80, 67
1, 57373, Control_c, 0, 64, 78
1, 57388, Control_c, 0, 64, 40
1, 57389, Note_on_c, 0, 77, 79
1, 57403, Control_c, 0, 64, 0
1, 57414, Note_off_c, 0, 77, 69
1, 57463, Note_on_c, 0, 85, 50
1, 57487, Note_off_c, 0, 85, 64
1, 57513, Note_on_c, 0, 94, 80
1, 57542, Note_off_c, 0, 94, 60
1, 57581, Control_c, 0, 64, 35
1, 57584, Note_on_c, 0, 32, 83
1, 57584, Note_on_c, 0, 92, 97
1, 57585, Note_on_c, 0, 84, 88
1, 57596, Control_c, 0, 64, 67
1, 57605, Note_off_c, 0, 84, 72
1, 57607, Note_off_c, 0, 92, 67
1, 57611, Control_c, 0, 64, 97
1, 57615, Note_off_c, 0, 32, 65
1, 57625, Control_c, 0, 64, 127
1, 57677, Note_on_c, 0, 84, 14
1, 57698, Note_off_c, 0, 84, 49
1, 57942, Note_on_c, 0, 44, 69
1, 58003, Note_on_c, 0, 51, 74
1, 58015, Note_off_c, 0, 44, 62
1, 58041, Note_off_c, 0, 51, 66
1, 58056, Note_on_c, 0, 60, 73
1, 58061, Note_on_c, 0, 66, 91
1, 58074, Note_off_c, 0, 60, 67
1, 58099, Note_on_c, 0, 65, 45
1, 58125, Note_off_c, 0, 65, 57
1, 58145, Note_on_c, 0, 72, 77
1, 58145, Note_off_c, 0, 66, 63
1, 58184, Note_off_c, 0, 72, 55
1, 58203, Note_on_c, 0, 80, 79
1, 58226, Note_off_c, 0, 80, 68
1, 58241, Control_c, 0, 64, 101
1, 58256, Control_c, 0, 64, 60
1, 58271, Control_c, 0, 64, 0
1, 58272, Note_on_c, 0, 78, 76
1, 58311, Note_off_c, 0, 78, 59
1, 58329, Note_on_c, 0, 84, 69
1, 58393, Note_off_c, 0, 84, 65
1, 58395, Note_on_c, 0, 92, 82
1, 58461, Note_off_c, 0, 92, 66
1, 58468, Note_on_c, 0, 89, 91
1, 58474, Note_on_c, 0, 85, 95
1, 58478, Control_c, 0, 64, 36
1, 58481, Note_on_c, 0, 37, 82
1, 58489, Note_off_c, 0, 89, 71
1, 58493, Control_c, 0, 64, 64
1, 58499, Note_off_c, 0, 85, 66
1, 58508, Control_c, 0, 64, 87
1, 58522, Control_c, 0, 64, 127
1, 58524, Note_off_c, 0, 37, 62
1, 58840, Note_on_c, 0, 44, 65
1, 58886, Note_on_c, 0, 53, 59
1, 58912, Note_off_c, 0, 44, 62
1, 58931, Note_off_c, 0, 53, 61
1, 58938, Note_on_c, 0, 61, 77
1, 58945, Note_on_c, 0, 65, 87
1, 58962, Note_off_c, 0, 61, 67
1, 59006, Note_off_c, 0, 65, 60
1, 59020, Note_on_c, 0, 73, 78
1, 59078, Note_on_c, 0, 80, 75
1, 59078, Note_off_c, 0, 73, 64
1, 59103, Poly_aftertouch_c, 0, 61, 0
1, 59104, Note_off_c, 0, 80, 67
1, 59141, Note_on_c, 0, 77, 81
1, 59153, Control_c, 0, 64, 77
1, 59162, Note_off_c, 0, 77, 71
1, 59168, Control_c, 0, 64, 41
1, 59183, Control_c, 0, 64, 0
1, 59209, Note_on_c, 0, 85, 71
1, 59239, Note_off_c, 0, 85, 64
1, 59269, Note_on_c, 0, 94, 81
1, 59322, Note_off_c, 0, 94, 0
1, 59335, Note_on_c, 0, 32, 89
1, 59338, Note_on_c, 0, 92, 95
1, 59338, Note_on_c, 0, 84, 94
1, 59345, Poly_aftertouch_c, 0, 94, 0
1, 59345, Control_c, 0, 64, 56
1, 59355, Note_off_c, 0, 92, 70
1, 59356, Note_off_c, 0, 84, 73
1, 59360, Control_c, 0, 64, 88
1, 59365, Note_off_c, 0, 32, 67
1, 59375, Control_c, 0, 64, 127
1, 59678, Note_on_c, 0, 44, 72
1, 59740, Note_on_c, 0, 51, 73
1, 59752, Note_off_c, 0, 44, 62
1, 59771, Note_off_c, 0, 51, 64
1, 59794, Note_on_c, 0, 60, 71
1, 59795, Note_off_c, 0, 60, 127
1, 59799, Note_on_c, 0, 66, 96
1, 59815, Poly_aftertouch_c, 0, 60, 0
1, 59880, Note_on_c, 0, 72, 76
1, 59888, Note_off_c, 0, 66, 63
1, 59917, Poly_aftertouch_c, 0, 65, 0
1, 59934, Note_off_c, 0, 72, 62
1, 59939, Note_on_c, 0, 80, 82
1, 59962, Note_off_c, 0, 80, 67
1, 60012, Note_on_c, 0, 78, 81
1, 60065, Control_c, 0, 64, 75
1, 60068, Note_on_c, 0, 84, 70
1, 60077, Note_off_c, 0, 78, 61
1, 60080, Control_c, 0, 64, 34
1, 60094, Control_c, 0, 64, 0
1, 60140, Note_on_c, 0, 92, 81
1, 60143, Note_off_c, 0, 84, 62
1, 60203, Note_off_c, 0, 92, 65
1, 60232, Note_on_c, 0, 89, 93
1, 60232, Note_on_c, 0, 85, 95
1, 60238, Note_on_c, 0, 25, 93
1, 60242, Control_c, 0, 64, 32
1, 60253, Note_off_c, 0, 89, 70
1, 60257, Control_c, 0, 64, 80
1, 60271, Note_off_c, 0, 85, 70
1, 60280, Control_c, 0, 64, 127
1, 60283, Note_off_c, 0, 25, 65
1, 60642, Note_on_c, 0, 44, 80
1, 60715, Note_on_c, 0, 53, 69
1, 60727, Note_off_c, 0, 44, 62
1, 60762, Note_on_c, 0, 61, 104
1, 60763, Note_on_c, 0, 65, 91
1, 60772, Note_off_c, 0, 53, 59
1, 60783, Note_off_c, 0, 61, 68
1, 60832, Note_off_c, 0, 65, 57
1, 60841, Note_on_c, 0, 73, 82
1, 60910, Note_on_c, 0, 80, 76
1, 60912, Note_off_c, 0, 73, 64
1, 60936, Note_off_c, 0, 80, 66
1, 60948, Poly_aftertouch_c, 0, 75, 0
1, 60979, Note_on_c, 0, 77, 74
1, 61017, Note_off_c, 0, 77, 61
1, 61052, Note_on_c, 0, 85, 75
1, 61096, Note_off_c, 0, 85, 59
1, 61112, Note_on_c, 0, 90, 84
1, 61134, Note_on_c, 0, 87, 56
1, 61136, Note_on_c, 0, 91, 66
1, 61173, Note_on_c, 0, 85, 77
1, 61178, Note_off_c, 0, 87, 47
1, 61179, Note_off_c, 0, 91, 61
1, 61180, Note_off_c, 0, 90, 62
1, 61203, Note_off_c, 0, 85, 65
1, 61219, Note_on_c, 0, 77, 72
1, 61244, Note_off_c, 0, 77, 68
1, 61311, Note_on_c, 0, 80, 69
1, 61362, Note_on_c, 0, 73, 71
1, 61369, Note_off_c, 0, 80, 61
1, 61392, Note_off_c, 0, 73, 65
1, 61422, Note_on_c, 0, 65, 65
1, 61440, Note_off_c, 0, 65, 65
1, 61443, Note_on_c, 0, 67, 33
1, 61469, Note_on_c, 0, 68, 80
1, 61479, Note_off_c, 0, 67, 47
1, 61520, Note_off_c, 0, 68, 65
1, 61532, Note_on_c, 0, 59, 34
1, 61543, Note_on_c, 0, 61, 75
1, 61579, Note_off_c, 0, 59, 45
1, 61588, Note_off_c, 0, 61, 67
1, 61592, Note_on_c, 0, 53, 75
1, 61616, Note_off_c, 0, 53, 67
1, 61685, Note_on_c, 0, 56, 73
1, 61716, Note_on_c, 0, 52, 39
1, 61741, Note_on_c, 0, 49, 78
1, 61746, Poly_aftertouch_c, 0, 53, 127
1, 61776, Note_off_c, 0, 56, 61
1, 61786, Poly_aftertouch_c, 0, 53, 0
1, 61812, Note_off_c, 0, 49, 63
1, 61813, Note_on_c, 0, 41, 75
1, 61836, Control_c, 0, 64, 84
1, 61842, Note_off_c, 0, 41, 62
1, 61851, Control_c, 0, 64, 53
1, 61866, Control_c, 0, 64, 0
1, 61867, Note_off_c, 0, 52, 34
1, 61883, Note_on_c, 0, 49, 72
1, 61915, Note_off_c, 0, 49, 67
1, 61978, Note_on_c, 0, 37, 90
1, 61985, Note_on_c, 0, 25, 77
1, 62133, Control_c, 0, 64, 17
1, 62147, Control_c, 0, 64, 44
1, 62162, Control_c, 0, 64, 66
1, 62177, Control_c, 0, 64, 82
1, 62193, Control_c, 0, 64, 104
1, 62208, Control_c, 0, 64, 127
1, 62214, Note_off_c, 0, 25, 60
1, 62265, Note_off_c, 0, 37, 60
1, 62637, Note_on_c, 0, 97, 100
1, 62640, Note_on_c, 0, 85, 93
1, 62662, Note_on_c, 0, 73, 79
1, 62677, Note_on_c, 0, 61, 62
1, 62684, Note_off_c, 0, 73, 70
1, 62695, Note_off_c, 0, 61, 63
1, 62760, Note_on_c, 0, 73, 13
1, 62799, Note_off_c, 0, 73, 39
1, 63526, Control_c, 0, 67, 8
1, 63541, Control_c, 0, 67, 9
1, 63556, Control_c, 0, 67, 10
1, 63571, Control_c, 0, 67, 11
1, 63586, Control_c, 0, 67, 15
1, 63595, Note_off_c, 0, 97, 64
1, 63601, Control_c, 0, 67, 20
1, 63616, Control_c, 0, 67, 30
1, 63631, Control_c, 0, 67, 39
1, 63638, Note_off_c, 0, 85, 60
1, 63645, Control_c, 0, 67, 48
1, 63660, Control_c, 0, 67, 54
1, 63675, Control_c, 0, 67, 60
1, 63690, Control_c, 0, 67, 67
1, 63705, Control_c, 0, 64, 96
1, 63705, Control_c, 0, 67, 74
1, 63719, Control_c, 0, 64, 67
1, 63719, Control_c, 0, 67, 84
1, 63734, Control_c, 0, 64, 36
1, 63734, Control_c, 0, 67, 90
1, 63749, Control_c, 0, 64, 0
1, 63749, Control_c, 0, 67, 95
1, 63764, Control_c, 0, 67, 97
1, 63779, Control_c, 0, 67, 97
1, 63795, Control_c, 0, 67, 98
1, 63809, Control_c, 0, 67, 101
1, 63824, Control_c, 0, 67, 104
1, 63839, Control_c, 0, 67, 106
1, 63854, Control_c, 0, 67, 107
1, 63868, Control_c, 0, 67, 108
1, 63883, Control_c, 0, 67, 111
1, 63898, Control_c, 0, 67, 115
1, 63913, Control_c, 0, 67, 116
1, 63928, Control_c, 0, 67, 117
1, 63942, Control_c, 0, 67, 118
1, 63972, Control_c, 0, 67, 119
1, 63988, Control_c, 0, 67, 120
1, 64003, Control_c, 0, 67, 121
1, 64024, Control_c, 0, 67, 122
1, 64039, Control_c, 0, 67, 122
1, 64054, Control_c, 0, 67, 123
1, 64188, Control_c, 0, 67, 124
1, 64203, Control_c, 0, 67, 125
1, 64217, Control_c, 0, 67, 126
1, 64232, Control_c, 0, 67, 127
1, 64611, Note_on_c, 0, 57, 23
1, 64642, Poly_aftertouch_c, 0, 45, 127
1, 64667, Note_off_c, 0, 57, 43
1, 64672, Note_on_c, 0, 46, 32
1, 64673, Note_on_c, 0, 58, 31
1, 64695, Poly_aftertouch_c, 0, 45, 0
1, 64728, Note_on_c, 0, 61, 35
1, 64750, Note_on_c, 0, 49, 31
1, 64763, Note_on_c, 0, 65, 47
1, 64766, Note_off_c, 0, 46, 52
1, 64783, Note_on_c, 0, 53, 45
1, 64792, Note_off_c, 0, 58, 52
1, 64793, Note_off_c, 0, 49, 50
1, 64795, Note_off_c, 0, 61, 46
1, 64810, Note_off_c, 0, 53, 57
1, 64811, Note_off_c, 0, 65, 62
1, 65160, Note_on_c, 0, 45, 21
1, 65184, Note_on_c, 0, 57, 33
1, 65197, Note_on_c, 0, 46, 37
1, 65237, Note_on_c, 0, 58, 29
1, 65264, Note_on_c, 0, 61, 37
1, 65270, Note_on_c, 0, 49, 38
1, 65294, Note_off_c, 0, 45, 41
1, 65298, Note_on_c, 0, 65, 40
1, 65308, Note_off_c, 0, 46, 38
1, 65312, Note_on_c, 0, 53, 40
1, 65321, Note_off_c, 0, 49, 57
1, 65341, Note_off_c, 0, 57, 22
1, 65357, Note_off_c, 0, 53, 59
1, 65383, Note_off_c, 0, 58, 36
1, 65383, Note_off_c, 0, 61, 43
1, 65390, Note_off_c, 0, 65, 34
1, 66248, Control_c, 0, 67, 122
1, 66270, Control_c, 0, 64, 45
1, 66270, Control_c, 0, 67, 96
1, 66271, Note_on_c, 0, 46, 93
1, 66276, Note_on_c, 0, 34, 83
1, 66285, Control_c, 0, 64, 67
1, 66285, Control_c, 0, 67, 49
1, 66288, Note_on_c, 0, 58, 71
1, 66295, Note_off_c, 0, 46, 68
1, 66299, Note_off_c, 0, 34, 67
1, 66300, Control_c, 0, 64, 86
1, 66300, Control_c, 0, 67, 0
1, 66306, Note_off_c, 0, 58, 65
1, 66315, Control_c, 0, 64, 127
1, 66862, Note_on_c, 0, 94, 94
1, 66866, Note_on_c, 0, 82, 89
1, 66875, Note_on_c, 0, 70, 76
1, 66875, Note_on_c, 0, 90, 84
1, 66879, Note_on_c, 0, 66, 76
1, 66888, Note_on_c, 0, 58, 53
1, 66888, Note_on_c, 0, 63, 65
1, 66898, Note_on_c, 0, 60, 44
1, 66899, Note_off_c, 0, 70, 68
1, 66902, Note_off_c, 0, 66, 68
1, 66913, Note_off_c, 0, 58, 56
1, 66916, Note_off_c, 0, 63, 67
1, 66927, Note_off_c, 0, 60, 52
1, 67023, Poly_aftertouch_c, 0, 70, 127
1, 67051, Poly_aftertouch_c, 0, 70, 0
1, 67392, Note_off_c, 0, 94, 59
1, 67401, Note_off_c, 0, 90, 62
1, 67443, Note_off_c, 0, 82, 64
1, 67665, Note_on_c, 0, 87, 83
1, 67668, Note_on_c, 0, 70, 65
1, 67670, Note_on_c, 0, 66, 63
1, 67672, Note_on_c, 0, 75, 74
1, 67677, Note_on_c, 0, 63, 54
1, 67679, Note_on_c, 0, 84, 65
1, 67685, Note_on_c, 0, 58, 44
1, 67692, Note_off_c, 0, 70, 65
1, 67699, Note_off_c, 0, 66, 67
1, 67700, Note_off_c, 0, 75, 66
1, 67700, Note_off_c, 0, 63, 65
1, 67703, Note_on_c, 0, 60, 24
1, 67711, Note_off_c, 0, 84, 64
1, 67711, Note_off_c, 0, 58, 57
1, 67744, Note_off_c, 0, 60, 40
1, 67767, Note_off_c, 0, 87, 61
1, 67812, Note_on_c, 0, 66, 65
1, 67814, Note_on_c, 0, 70, 61
1, 67816, Note_on_c, 0, 63, 54
1, 67819, Note_on_c, 0, 89, 84
1, 67836, Note_on_c, 0, 77, 55
1, 67840, Note_off_c, 0, 66, 66
1, 67841, Note_off_c, 0, 70, 66
1, 67846, Note_off_c, 0, 63, 66
1, 67856, Note_off_c, 0, 77, 63
1, 67858, Note_on_c, 0, 60, 25
1, 67871, Poly_aftertouch_c, 0, 58, 0
1, 67872, Control_c, 0, 64, 83
1, 67874, Note_off_c, 0, 89, 55
1, 67887, Control_c, 0, 64, 57
1, 67888, Note_on_c, 0, 66, 87
1, 67891, Note_on_c, 0, 70, 80
1, 67893, Note_on_c, 0, 90, 88
1, 67902, Control_c, 0, 64, 0
1, 67908, Poly_aftertouch_c, 0, 58, 127
1, 67914, Note_on_c, 0, 63, 53
1, 67915, Note_on_c, 0, 78, 77
1, 67916, Note_off_c, 0, 70, 68
1, 67920, Note_off_c, 0, 66, 62
1, 67938, Poly_aftertouch_c, 0, 58, 0
1, 67939, Note_off_c, 0, 63, 58
1, 67960, Note_off_c, 0, 60, 42
1, 67983, Note_off_c, 0, 78, 55
1, 68064, Note_on_c, 0, 65, 64
1, 68064, Note_on_c, 0, 89, 89
1, 68069, Note_on_c, 0, 77, 91
1, 68069, Note_on_c, 0, 58, 57
1, 68073, Note_on_c, 0, 70, 64
1, 68075, Note_on_c, 0, 61, 60
1, 68079, Note_on_c, 0, 85, 76
1, 68080, Control_c, 0, 64, 35
1, 68095, Control_c, 0, 64, 63
1, 68097, Note_off_c, 0, 70, 65
1, 68097, Note_off_c, 0, 77, 67
1, 68097, Note_off_c, 0, 89, 64
1, 68099, Note_off_c, 0, 65, 66
1, 68099, Note_off_c, 0, 90, 66
1, 68104, Note_off_c, 0, 85, 69
1, 68108, Note_off_c, 0, 58, 64
1, 68109, Control_c, 0, 64, 77
1, 68112, Note_off_c, 0, 61, 66
1, 68124, Control_c, 0, 64, 109
1, 68124, Control_c, 0, 67, 9
1, 68139, Control_c, 0, 64, 127
1, 68139, Control_c, 0, 67, 12
1, 68154, Control_c, 0, 67, 16
1, 68169, Control_c, 0, 67, 23
1, 68183, Control_c, 0, 67, 33
1, 68198, Control_c, 0, 67, 46
1, 68213, Control_c, 0, 67, 58
1, 68228, Control_c, 0, 67, 68
1, 68242, Control_c, 0, 67, 78
1, 68257, Control_c, 0, 67, 95
1, 68272, Control_c, 0, 67, 113
1, 68287, Control_c, 0, 67, 120
1, 68302, Control_c, 0, 67, 125
1, 68317, Control_c, 0, 67, 127
1, 68331, Control_c, 0, 64, 98
1, 68346, Control_c, 0, 64, 64
1, 68361, Control_c, 0, 64, 0
1, 68469, Note_on_c, 0, 45, 31
1, 68488, Note_on_c, 0, 57, 33
1, 68528, Note_on_c, 0, 58, 46
1, 68528, Note_off_c, 0, 45, 55
1, 68532, Note_off_c, 0, 57, 48
1, 68537, Note_on_c, 0, 46, 37
1, 68571, Note_on_c, 0, 61, 51
1, 68590, Note_on_c, 0, 49, 48
1, 68596, Note_off_c, 0, 46, 55
1, 68616, Note_off_c, 0, 61, 64
1, 68627, Note_on_c, 0, 65, 54
1, 68630, Note_off_c, 0, 49, 61
1, 68636, Note_on_c, 0, 53, 47
1, 68650, Note_off_c, 0, 58, 44
1, 68658, Note_off_c, 0, 65, 63
1, 68664, Note_off_c, 0, 53, 62
1, 68949, Note_on_c, 0, 57, 27
1, 68952, Note_on_c, 0, 45, 27
1, 68995, Note_on_c, 0, 58, 37
1, 68996, Note_off_c, 0, 57, 47
1, 69001, Note_off_c, 0, 45, 46
1, 69007, Note_on_c, 0, 46, 38
1, 69028, Note_on_c, 0, 61, 44
1, 69065, Note_on_c, 0, 49, 44
1, 69066, Note_off_c, 0, 46, 52
1, 69071, Note_on_c, 0, 65, 46
1, 69086, Note_off_c, 0, 61, 47
1, 69106, Note_off_c, 0, 49, 62
1, 69111, Note_on_c, 0, 53, 43
1, 69130, Note_off_c, 0, 65, 61
1, 69145, Note_off_c, 0, 58, 43
1, 69150, Note_off_c, 0, 53, 64
1, 70028, Control_c, 0, 67, 113
1, 70043, Control_c, 0, 67, 75
1, 70057, Control_c, 0, 67, 14
1, 70070, Note_on_c, 0, 44, 106
1, 70072, Control_c, 0, 64, 52
1, 70072, Control_c, 0, 67, 0
1, 70079, Note_on_c, 0, 32, 75
1, 70087, Control_c, 0, 64, 69
1, 70093, Note_on_c, 0, 56, 73
1, 70101, Note_off_c, 0, 32, 65
1, 70102, Control_c, 0, 64, 95
1, 70111, Note_off_c, 0, 44, 64
1, 70112, Note_off_c, 0, 56, 65
1, 70117, Control_c, 0, 64, 127
1, 70549, Note_on_c, 0, 56, 57
1, 70602, Note_off_c, 0, 56, 57
1, 70621, Note_on_c, 0, 65, 58
1, 70698, Note_on_c, 0, 80, 96
1, 70699, Note_on_c, 0, 92, 99
1, 70709, Note_on_c, 0, 89, 87
1, 70716, Note_off_c, 0, 65, 48
1, 70716, Note_on_c, 0, 73, 78
1, 70740, Note_off_c, 0, 73, 70
1, 71267, Note_off_c, 0, 89, 57
1, 71321, Note_off_c, 0, 92, 63
1, 71375, Note_off_c, 0, 80, 56
1, 71579, Note_on_c, 0, 87, 93
1, 71586, Note_on_c, 0, 75, 89
1, 71593, Note_on_c, 0, 84, 81
1, 71609, Note_on_c, 0, 68, 74
1, 71616, Note_on_c, 0, 66, 65
1, 71620, Note_on_c, 0, 56, 57
1, 71633, Note_on_c, 0, 63, 48
1, 71637, Note_off_c, 0, 68, 65
1, 71649, Note_off_c, 0, 56, 55
1, 71651, Note_off_c, 0, 66, 60
1, 71659, Note_off_c, 0, 63, 61
1, 71727, Note_off_c, 0, 75, 64
1, 71729, Note_off_c, 0, 84, 54
1, 71745, Note_off_c, 0, 87, 58
1, 71800, Note_on_c, 0, 88, 87
1, 71803, Note_on_c, 0, 76, 92
1, 71804, Note_on_c, 0, 84, 64
1, 71809, Note_on_c, 0, 63, 52
1, 71811, Note_on_c, 0, 68, 69
1, 71813, Note_on_c, 0, 56, 60
1, 71813, Note_on_c, 0, 66, 64
1, 71831, Note_off_c, 0, 68, 64
1, 71841, Note_off_c, 0, 66, 65
1, 71846, Note_off_c, 0, 63, 65
1, 71847, Note_off_c, 0, 56, 62
1, 71869, Note_off_c, 0, 76, 62
1, 71870, Note_off_c, 0, 88, 65
1, 71882, Note_off_c, 0, 84, 63
1, 71944, Note_on_c, 0, 89, 86
1, 71953, Note_on_c, 0, 66, 62
1, 71955, Note_on_c, 0, 56, 62
1, 71955, Note_on_c, 0, 68, 58
1, 71955, Note_on_c, 0, 84, 69
1, 71957, Note_on_c, 0, 63, 61
1, 71959, Note_on_c, 0, 77, 74
1, 71962, Note_on_c, 0, 79, 75
1, 71983, Note_off_c, 0, 68, 68
1, 71983, Note_off_c, 0, 66, 65
1, 71987, Note_off_c, 0, 77, 67
1, 71989, Note_off_c, 0, 79, 67
1, 71992, Note_off_c, 0, 63, 63
1, 71992, Note_off_c, 0, 56, 60
1, 71994, Note_off_c, 0, 89, 65
1, 72022, Note_off_c, 0, 84, 62
1, 72073, Note_on_c, 0, 92, 96
1, 72077, Note_on_c, 0, 84, 67
1, 72080, Note_on_c, 0, 66, 65
1, 72080, Note_on_c, 0, 80, 84
1, 72081, Note_on_c, 0, 68, 71
1, 72082, Note_on_c, 0, 56, 69
1, 72084, Note_on_c, 0, 63, 61
1, 72114, Note_off_c, 0, 68, 64
1, 72117, Note_off_c, 0, 66, 65
1, 72121, Note_off_c, 0, 63, 60
1, 72132, Note_off_c, 0, 80, 64
1, 72136, Note_off_c, 0, 56, 60
1, 72140, Note_off_c, 0, 92, 64
1, 72154, Note_off_c, 0, 84, 61
1, 72178, Control_c, 0, 64, 81
1, 72183, Note_on_c, 0, 84, 57
1, 72192, Note_on_c, 0, 90, 94
1, 72193, Control_c, 0, 64, 60
1, 72195, Note_on_c, 0, 78, 91
1, 72196, Note_on_c, 0, 66, 74
1, 72198, Note_on_c, 0, 68, 74
1, 72201, Note_on_c, 0, 63, 59
1, 72204, Note_on_c, 0, 56, 57
1, 72207, Control_c, 0, 64, 0
1, 72223, Note_off_c, 0, 66, 65
1, 72224, Note_off_c, 0, 68, 67
1, 72231, Note_off_c, 0, 56, 63
1, 72232, Note_off_c, 0, 63, 65
1, 72270, Note_off_c, 0, 78, 62
1, 72270, Note_off_c, 0, 90, 64
1, 72272, Note_off_c, 0, 84, 65
1, 72321, Note_on_c, 0, 89, 89
1, 72324, Note_on_c, 0, 77, 94
1, 72328, Note_on_c, 0, 68, 69
1, 72329, Note_on_c, 0, 85, 83
1, 72335, Note_on_c, 0, 61, 70
1, 72339, Note_on_c, 0, 65, 68
1, 72378, Control_c, 0, 64, 13
1, 72379, Note_off_c, 0, 68, 65
1, 72393, Control_c, 0, 64, 61
1, 72397, Note_off_c, 0, 77, 63
1, 72400, Note_off_c, 0, 89, 66
1, 72403, Note_off_c, 0, 65, 63
1, 72407, Control_c, 0, 64, 78
1, 72422, Control_c, 0, 64, 107
1, 72430, Note_off_c, 0, 61, 63
1, 72436, Note_off_c, 0, 85, 64
1, 72437, Control_c, 0, 64, 127
1, 72555, Control_c, 0, 64, 89
1, 72571, Control_c, 0, 64, 59
1, 72586, Control_c, 0, 64, 0
1, 72766, Note_on_c, 0, 77, 92
1, 72773, Note_on_c, 0, 69, 89
1, 72779, Control_c, 0, 64, 29
1, 72779, Note_on_c, 0, 65, 60
1, 72783, Note_on_c, 0, 53, 54
1, 72787, Note_on_c, 0, 60, 65
1, 72793, Note_off_c, 0, 69, 72
1, 72794, Control_c, 0, 64, 62
1, 72799, Note_off_c, 0, 65, 63
1, 72800, Note_off_c, 0, 77, 69
1, 72808, Note_off_c, 0, 53, 62
1, 72808, Note_off_c, 0, 60, 60
1, 72809, Control_c, 0, 64, 74
1, 72823, Control_c, 0, 64, 90
1, 72838, Control_c, 0, 64, 119
1, 72853, Control_c, 0, 64, 127
1, 72910, Poly_aftertouch_c, 0, 69, 127
1, 72940, Poly_aftertouch_c, 0, 69, 0
1, 73223, Note_on_c, 0, 65, 88
1, 73227, Note_on_c, 0, 57, 85
1, 73237, Note_on_c, 0, 53, 75
1, 73240, Note_on_c, 0, 41, 71
1, 73246, Note_on_c, 0, 48, 72
1, 73252, Note_off_c, 0, 57, 67
1, 73259, Note_off_c, 0, 65, 67
1, 73266, Note_off_c, 0, 41, 65
1, 73266, Note_off_c, 0, 53, 66
1, 73270, Note_off_c, 0, 48, 66
1, 73776, Note_on_c, 0, 41, 90
1, 73781, Note_on_c, 0, 29, 76
1, 73816, Control_c, 0, 64, 99
1, 73831, Control_c, 0, 64, 67
1, 73846, Control_c, 0, 64, 40
1, 73861, Control_c, 0, 64, 0
1, 74714, Control_c, 0, 64, 10
1, 74729, Control_c, 0, 64, 25
1, 74744, Control_c, 0, 64, 33
1, 74758, Control_c, 0, 64, 39
1, 74773, Control_c, 0, 64, 44
1, 74788, Control_c, 0, 64, 49
1, 74803, Control_c, 0, 64, 53
1, 74818, Control_c, 0, 64, 56
1, 74833, Control_c, 0, 64, 58
1, 74848, Control_c, 0, 64, 60
1, 74863, Control_c, 0, 64, 61
1, 74877, Control_c, 0, 64, 63
1, 74892, Control_c, 0, 64, 64
1, 74907, Control_c, 0, 64, 66
1, 74919, Note_off_c, 0, 29, 60
1, 74922, Control_c, 0, 64, 69
1, 74925, Note_off_c, 0, 41, 63
1, 74937, Control_c, 0, 64, 73
1, 74951, Control_c, 0, 64, 76
1, 74966, Control_c, 0, 64, 79
1, 74982, Control_c, 0, 64, 82
1, 74997, Control_c, 0, 64, 85
1, 75012, Control_c, 0, 64, 89
1, 75027, Control_c, 0, 64, 92
1, 75041, Control_c, 0, 64, 97
1, 75056, Control_c, 0, 64, 101
1, 75071, Control_c, 0, 64, 105
1, 75086, Control_c, 0, 64, 109
1, 75100, Control_c, 0, 64, 113
1, 75115, Control_c, 0, 64, 118
1, 75130, Control_c, 0, 64, 127
1, 75298, Note_on_c, 0, 30, 85
1, 75298, Note_on_c, 0, 42, 86
1, 75325, Note_off_c, 0, 42, 68
1, 75329, Note_off_c, 0, 30, 67
1, 75344, Control_c, 0, 64, 94
1, 75359, Control_c, 0, 64, 77
1, 75373, Control_c, 0, 64, 63
1, 75388, Control_c, 0, 64, 41
1, 75403, Control_c, 0, 64, 0
1, 76182, Control_c, 0, 67, 8
1, 76196, Control_c, 0, 67, 9
1, 76211, Control_c, 0, 67, 11
1, 76226, Control_c, 0, 67, 11
1, 76240, Control_c, 0, 67, 12
1, 76255, Control_c, 0, 67, 12
1, 76270, Control_c, 0, 67, 13
1, 76285, Control_c, 0, 67, 16
1, 76300, Control_c, 0, 67, 20
1, 76314, Control_c, 0, 67, 24
1, 76329, Control_c, 0, 67, 29
1, 76344, Control_c, 0, 67, 33
1, 76359, Control_c, 0, 67, 38
1, 76374, Control_c, 0, 67, 43
1, 76389, Control_c, 0, 67, 48
1, 76404, Control_c, 0, 67, 54
1, 76419, Control_c, 0, 67, 61
1, 76434, Control_c, 0, 67, 69
1, 76448, Control_c, 0, 67, 78
1, 76463, Control_c, 0, 67, 88
1, 76478, Control_c, 0, 67, 96
1, 76493, Control_c, 0, 67, 103
1, 76508, Control_c, 0, 67, 108
1, 76522, Control_c, 0, 67, 110
1, 76537, Control_c, 0, 67, 112
1, 76552, Control_c, 0, 67, 114
1, 76568, Control_c, 0, 67, 115
1, 76583, Control_c, 0, 67, 116
1, 76598, Control_c, 0, 67, 118
1, 76612, Control_c, 0, 67, 120
1, 76627, Control_c, 0, 67, 124
1, 76642, Control_c, 0, 67, 126
1, 76657, Control_c, 0, 67, 127
1, 77013, Note_on_c, 0, 45, 34
1, 77061, Poly_aftertouch_c, 0, 57, 127
1, 77074, Note_on_c, 0, 58, 33
1, 77075, Note_on_c, 0, 46, 36
1, 77090, Note_off_c, 0, 45, 37
1, 77106, Poly_aftertouch_c, 0, 57, 0
1, 77120, Note_on_c, 0, 61, 32
1, 77131, Note_off_c, 0, 46, 57
1, 77142, Note_on_c, 0, 49, 40
1, 77142, Note_on_c, 0, 65, 52
1, 77168, Note_off_c, 0, 61, 48
1, 77170, Note_off_c, 0, 58, 55
1, 77172, Note_off_c, 0, 49, 58
1, 77176, Note_on_c, 0, 53, 44
1, 77185, Note_off_c, 0, 65, 62
1, 77203, Note_off_c, 0, 53, 54
1, 77501, Note_on_c, 0, 45, 38
1, 77517, Note_on_c, 0, 57, 32
1, 77565, Note_on_c, 0, 46, 35
1, 77565, Note_off_c, 0, 45, 53
1, 77573, Note_on_c, 0, 58, 36
1, 77573, Note_off_c, 0, 57, 44
1, 77605, Note_on_c, 0, 61, 40
1, 77617, Note_off_c, 0, 46, 46
1, 77621, Note_on_c, 0, 49, 32
1, 77631, Note_on_c, 0, 65, 53
1, 77658, Note_on_c, 0, 53, 38
1, 77658, Note_off_c, 0, 49, 51
1, 77665, Note_off_c, 0, 61, 46
1, 77685, Note_off_c, 0, 65, 60
1, 77686, Note_off_c, 0, 58, 37
1, 77694, Note_off_c, 0, 53, 57
1, 78458, Control_c, 0, 67, 123
1, 78473, Control_c, 0, 67, 81
1, 78488, Control_c, 0, 64, 30
1, 78488, Control_c, 0, 67, 25
1, 78499, Note_on_c, 0, 46, 94
1, 78503, Control_c, 0, 64, 61
1, 78503, Control_c, 0, 67, 0
1, 78505, Note_on_c, 0, 34, 78
1, 78507, Note_on_c, 0, 58, 82
1, 78517, Control_c, 0, 64, 77
1, 78520, Note_off_c, 0, 46, 70
1, 78530, Note_off_c, 0, 58, 66
1, 78532, Note_off_c, 0, 34, 65
1, 78532, Control_c, 0, 64, 127
1, 78633, Poly_aftertouch_c, 0, 46, 0
1, 78658, Poly_aftertouch_c, 0, 46, 0
1, 79069, Note_on_c, 0, 94, 96
1, 79070, Note_on_c, 0, 82, 98
1, 79078, Note_on_c, 0, 70, 84
1, 79078, Note_on_c, 0, 90, 84
1, 79084, Note_on_c, 0, 66, 74
1, 79085, Note_on_c, 0, 58, 64
1, 79095, Note_on_c, 0, 63, 68
1, 79098, Note_off_c, 0, 70, 69
1, 79104, Note_on_c, 0, 60, 43
1, 79110, Note_off_c, 0, 66, 67
1, 79114, Note_off_c, 0, 58, 67
1, 79121, Note_off_c, 0, 63, 67
1, 79134, Note_off_c, 0, 60, 52
1, 79405, Note_off_c, 0, 90, 61
1, 79411, Note_off_c, 0, 94, 60
1, 79447, Note_off_c, 0, 82, 63
1, 79642, Note_on_c, 0, 75, 79
1, 79642, Note_on_c, 0, 87, 81
1, 79647, Note_on_c, 0, 84, 71
1, 79654, Note_on_c, 0, 66, 65
1, 79654, Note_on_c, 0, 70, 64
1, 79658, Note_on_c, 0, 63, 56
1, 79659, Note_on_c, 0, 60, 51
1, 79665, Note_off_c, 0, 75, 70
1, 79666, Note_off_c, 0, 87, 68
1, 79671, Note_off_c, 0, 70, 66
1, 79673, Note_off_c, 0, 84, 69
1, 79677, Note_off_c, 0, 66, 65
1, 79680, Note_off_c, 0, 63, 61
1, 79683, Note_off_c, 0, 60, 58
1, 79694, Note_on_c, 0, 58, 9
1, 79704, Note_off_c, 0, 58, 0
1, 79717, Note_on_c, 0, 84, 90
1, 79718, Note_on_c, 0, 87, 78
1, 79720, Note_on_c, 0, 75, 77
1, 79739, Note_on_c, 0, 70, 72
1, 79745, Poly_aftertouch_c, 0, 58, 0
1, 79749, Note_on_c, 0, 60, 45
1, 79760, Note_off_c, 0, 75, 65
1, 79760, Note_on_c, 0, 66, 43
1, 79760, Note_off_c, 0, 70, 65
1, 79772, Note_off_c, 0, 84, 64
1, 79773, Note_off_c, 0, 60, 58
1, 79783, Note_off_c, 0, 66, 61
1, 79793, Note_off_c, 0, 87, 55
1, 79874, Note_on_c, 0, 66, 71
1, 79877, Note_on_c, 0, 70, 73
1, 79879, Note_on_c, 0, 87, 79
1, 79885, Note_on_c, 0, 75, 82
1, 79888, Note_on_c, 0, 84, 79
1, 79888, Note_on_c, 0, 63, 66
1, 79889, Note_on_c, 0, 58, 57
1, 79890, Note_on_c, 0, 60, 33
1, 79903, Note_off_c, 0, 70, 67
1, 79905, Note_off_c, 0, 66, 66
1, 79916, Note_off_c, 0, 58, 64
1, 79918, Note_off_c, 0, 63, 66
1, 79927, Note_off_c, 0, 60, 48
1, 79929, Note_off_c, 0, 75, 60
1, 79949, Note_off_c, 0, 84, 61
1, 79971, Note_off_c, 0, 87, 64
1, 80016, Note_on_c, 0, 89, 78
1, 80019, Note_on_c, 0, 70, 67
1, 80020, Note_on_c, 0, 63, 66
1, 80020, Note_on_c, 0, 66, 77
1, 80030, Note_on_c, 0, 77, 65
1, 80040, Note_on_c, 0, 58, 39
1, 80045, Note_off_c, 0, 66, 68
1, 80045, Note_off_c, 0, 70, 67
1, 80049, Note_off_c, 0, 77, 67
1, 80052, Note_on_c, 0, 60, 17
1, 80053, Note_off_c, 0, 63, 64
1, 80064, Note_off_c, 0, 89, 65
1, 80073, Note_off_c, 0, 60, 0
1, 80081, Note_on_c, 0, 59, 3
1, 80089, Control_c, 0, 64, 79
1, 80091, Note_on_c, 0, 66, 84
1, 80092, Note_on_c, 0, 90, 93
1, 80097, Note_on_c, 0, 70, 78
1, 80101, Note_off_c, 0, 58, 0
1, 80103, Note_on_c, 0, 78, 85
1, 80103, Control_c, 0, 64, 56
1, 80109, Note_on_c, 0, 63, 66
1, 80109, Poly_aftertouch_c, 0, 60, 127
1, 80114, Note_on_c, 0, 58, 41
1, 80114, Note_off_c, 0, 59, 35
1, 80118, Control_c, 0, 64, 0
1, 80123, Note_off_c, 0, 70, 67
1, 80124, Note_off_c, 0, 66, 65
1, 80136, Note_off_c, 0, 63, 64
1, 80143, Note_off_c, 0, 58, 58
1, 80155, Poly_aftertouch_c, 0, 60, 0
1, 80168, Note_off_c, 0, 78, 59
1, 80258, Note_on_c, 0, 89, 85
1, 80265, Note_on_c, 0, 77, 89
1, 80267, Note_on_c, 0, 58, 57
1, 80267, Control_c, 0, 64, 46
1, 80267, Note_on_c, 0, 65, 65
1, 80270, Note_on_c, 0, 61, 68
1, 80272, Note_on_c, 0, 70, 65
1, 80272, Note_on_c, 0, 85, 81
1, 80282, Control_c, 0, 64, 65
1, 80289, Note_off_c, 0, 77, 70
1, 80291, Note_off_c, 0, 90, 63
1, 80292, Note_off_c, 0, 65, 67
1, 80293, Note_off_c, 0, 70, 65
1, 80296, Note_off_c, 0, 89, 65
1, 80296, Control_c, 0, 64, 81
1, 80297, Note_off_c, 0, 85, 69
1, 80301, Note_off_c, 0, 58, 65
1, 80303, Note_off_c, 0, 61, 66
1, 80311, Control_c, 0, 64, 127
1, 80356, Control_c, 0, 67, 9
1, 80370, Control_c, 0, 67, 13
1, 80385, Control_c, 0, 67, 18
1, 80400, Control_c, 0, 67, 27
1, 80414, Control_c, 0, 67, 43
1, 80429, Control_c, 0, 67, 66
1, 80444, Control_c, 0, 67, 93
1, 80459, Control_c, 0, 67, 125
1, 80474, Control_c, 0, 67, 127
1, 80526, Control_c, 0, 64, 73
1, 80541, Control_c, 0, 64, 38
1, 80556, Control_c, 0, 64, 0
1, 80623, Note_on_c, 0, 45, 40
1, 80634, Note_on_c, 0, 57, 49
1, 80673, Note_off_c, 0, 45, 58
1, 80675, Note_off_c, 0, 57, 62
1, 80680, Note_on_c, 0, 46, 35
1, 80698, Note_on_c, 0, 58, 45
1, 80729, Note_off_c, 0, 46, 51
1, 80732, Note_on_c, 0, 49, 48
1, 80739, Note_on_c, 0, 61, 42
1, 80765, Note_off_c, 0, 61, 56
1, 80771, Note_off_c, 0, 49, 61
1, 80778, Note_on_c, 0, 65, 52
1, 80779, Note_on_c, 0, 53, 49
1, 80805, Note_off_c, 0, 53, 61
1, 80811, Note_off_c, 0, 65, 65
1, 80823, Note_off_c, 0, 58, 35
1, 81090, Note_on_c, 0, 45, 39
1, 81098, Note_on_c, 0, 57, 35
1, 81134, Note_off_c, 0, 57, 51
1, 81148, Note_on_c, 0, 58, 42
1, 81149, Note_off_c, 0, 45, 54
1, 81152, Note_on_c, 0, 46, 39
1, 81190, Note_on_c, 0, 61, 32
1, 81197, Note_off_c, 0, 46, 56
1, 81198, Note_on_c, 0, 49, 47
1, 81215, Note_on_c, 0, 65, 55
1, 81219, Note_off_c, 0, 61, 49
1, 81245, Note_off_c, 0, 49, 61
1, 81249, Note_on_c, 0, 53, 48
1, 81281, Note_off_c, 0, 65, 60
1, 81285, Note_off_c, 0, 58, 34
1, 81289, Note_off_c, 0, 53, 64
1, 82038, Control_c, 0, 67, 101
1, 82053, Control_c, 0, 67, 61
1, 82067, Control_c, 0, 64, 56
1, 82067, Control_c, 0, 67, 0
1, 82067, Note_on_c, 0, 36, 110
1, 82073, Note_on_c, 0, 24, 81
1, 82077, Note_on_c, 0, 48, 96
1, 82082, Control_c, 0, 64, 80
1, 82095, Note_off_c, 0, 24, 65
1, 82097, Control_c, 0, 64, 127
1, 82105, Note_off_c, 0, 48, 67
1, 82107, Note_off_c, 0, 36, 67
1, 82758, Note_on_c, 0, 96, 93
1, 82761, Note_on_c, 0, 84, 96
1, 82763, Note_on_c, 0, 72, 85
1, 82765, Note_on_c, 0, 60, 69
1, 82767, Note_on_c, 0, 92, 84
1, 82770, Note_on_c, 0, 68, 77
1, 82774, Note_on_c, 0, 65, 72
1, 82786, Note_off_c, 0, 72, 68
1, 82792, Note_off_c, 0, 60, 64
1, 82803, Note_off_c, 0, 65, 66
1, 82806, Note_off_c, 0, 68, 62
1, 83424, Note_off_c, 0, 92, 64
1, 83482, Note_off_c, 0, 96, 64
1, 83507, Note_off_c, 0, 84, 62
1, 83646, Note_on_c, 0, 97, 89
1, 83650, Note_on_c, 0, 85, 91
1, 83651, Note_on_c, 0, 91, 83
1, 83661, Note_on_c, 0, 72, 70
1, 83662, Note_on_c, 0, 60, 66
1, 83665, Note_on_c, 0, 70, 66
1, 83684, Note_on_c, 0, 64, 51
1, 83707, Note_off_c, 0, 70, 55
1, 83707, Note_off_c, 0, 72, 52
1, 83712, Note_off_c, 0, 60, 54
1, 83722, Note_off_c, 0, 64, 58
1, 83764, Note_off_c, 0, 97, 64
1, 83765, Note_off_c, 0, 85, 63
1, 83768, Note_off_c, 0, 91, 57
1, 83838, Note_on_c, 0, 96, 91
1, 83844, Note_on_c, 0, 72, 76
1, 83847, Note_on_c, 0, 60, 64
1, 83847, Note_on_c, 0, 84, 82
1, 83850, Note_on_c, 0, 70, 67
1, 83865, Note_on_c, 0, 91, 48
1, 83871, Note_on_c, 0, 64, 24
1, 83871, Note_off_c, 0, 72, 61
1, 83878, Note_off_c, 0, 70, 65
1, 83880, Note_off_c, 0, 60, 57
1, 83883, Note_off_c, 0, 96, 65
1, 83887, Note_off_c, 0, 91, 59
1, 83898, Note_off_c, 0, 84, 65
1, 83902, Note_off_c, 0, 64, 55
1, 83987, Note_on_c, 0, 70, 65
1, 83987, Note_on_c, 0, 72, 79
1, 83987, Note_on_c, 0, 89, 82
1, 83990, Note_on_c, 0, 60, 73
1, 83991, Note_on_c, 0, 77, 86
1, 83996, Note_on_c, 0, 64, 46
1, 84014, Note_off_c, 0, 70, 65
1, 84014, Note_off_c, 0, 72, 63
1, 84019, Note_on_c, 0, 88, 44
1, 84023, Note_off_c, 0, 77, 61
1, 84026, Note_off_c, 0, 60, 57
1, 84029, Note_off_c, 0, 64, 50
1, 84045, Note_off_c, 0, 89, 50
1, 84046, Note_off_c, 0, 88, 57
1, 84080, Poly_aftertouch_c, 0, 84, 0
1, 84102, Note_on_c, 0, 70, 71
1, 84102, Note_on_c, 0, 72, 74
1, 84104, Note_on_c, 0, 84, 49
1, 84107, Note_on_c, 0, 91, 83
1, 84108, Note_on_c, 0, 60, 75
1, 84114, Note_on_c, 0, 79, 70
1, 84121, Note_on_c, 0, 77, 62
1, 84125, Note_on_c, 0, 89, 51
1, 84127, Note_off_c, 0, 91, 70
1, 84127, Note_on_c, 0, 64, 45
1, 84130, Note_off_c, 0, 72, 65
1, 84130, Note_off_c, 0, 70, 64
1, 84135, Note_off_c, 0, 84, 62
1, 84136, Note_off_c, 0, 77, 70
1, 84138, Note_off_c, 0, 60, 62
1, 84139, Note_off_c, 0, 79, 67
1, 84146, Note_on_c, 0, 88, 30
1, 84155, Note_off_c, 0, 89, 56
1, 84160, Note_off_c, 0, 64, 54
1, 84175, Note_off_c, 0, 88, 49
1, 84202, Control_c, 0, 64, 92
1, 84217, Control_c, 0, 64, 62
1, 84240, Control_c, 0, 64, 0
1, 84248, Note_on_c, 0, 92, 94
1, 84250, Note_on_c, 0, 72, 75
1, 84250, Note_on_c, 0, 84, 80
1, 84251, Note_on_c, 0, 80, 95
1, 84251, Note_on_c, 0, 89, 67
1, 84255, Note_on_c, 0, 65, 72
1, 84261, Note_on_c, 0, 68, 82
1, 84265, Poly_aftertouch_c, 0, 91, 0
1, 84279, Note_off_c, 0, 72, 67
1, 84284, Control_c, 0, 64, 59
1, 84288, Note_off_c, 0, 68, 66
1, 84290, Note_off_c, 0, 65, 64
1, 84299, Control_c, 0, 64, 80
1, 84306, Note_off_c, 0, 92, 67
1, 84306, Note_off_c, 0, 80, 63
1, 84308, Note_off_c, 0, 84, 65
1, 84313, Note_off_c, 0, 89, 65
1, 84314, Control_c, 0, 64, 127
1, 84476, Control_c, 0, 64, 82
1, 84491, Control_c, 0, 64, 51
1, 84506, Control_c, 0, 64, 0
1, 84685, Control_c, 0, 64, 41
1, 84686, Note_on_c, 0, 80, 90
1, 84691, Note_on_c, 0, 68, 82
1, 84691, Note_on_c, 0, 65, 72
1, 84691, Note_on_c, 0, 72, 82
1, 84696, Note_on_c, 0, 60, 72
1, 84696, Note_on_c, 0, 77, 72
1, 84699, Note_on_c, 0, 53, 60
1, 84700, Control_c, 0, 64, 64
1, 84709, Note_off_c, 0, 65, 67
1, 84710, Note_off_c, 0, 68, 70
1, 84712, Note_off_c, 0, 80, 65
1, 84715, Note_off_c, 0, 72, 68
1, 84715, Control_c, 0, 64, 84
1, 84720, Note_off_c, 0, 77, 68
1, 84723, Note_off_c, 0, 60, 64
1, 84724, Note_off_c, 0, 53, 63
1, 84729, Control_c, 0, 64, 127
1, 84771, Note_on_c, 0, 68, 39
1, 84791, Note_off_c, 0, 68, 64
1, 85165, Note_on_c, 0, 53, 73
1, 85165, Note_on_c, 0, 68, 85
1, 85169, Note_on_c, 0, 48, 74
1, 85169, Note_on_c, 0, 56, 79
1, 85171, Note_on_c, 0, 41, 67
1, 85171, Note_on_c, 0, 60, 77
1, 85176, Note_on_c, 0, 65, 73
1, 85192, Note_off_c, 0, 48, 67
1, 85192, Note_off_c, 0, 68, 67
1, 85194, Note_off_c, 0, 56, 66
1, 85194, Note_off_c, 0, 60, 66
1, 85195, Note_off_c, 0, 53, 65
1, 85198, Note_off_c, 0, 41, 65
1, 85200, Note_off_c, 0, 65, 67
1, 85341, Poly_aftertouch_c, 0, 56, 0
1, 85685, Note_on_c, 0, 40, 90
1, 85691, Note_on_c, 0, 28, 80
1, 85700, Control_c, 0, 64, 115
1, 85715, Control_c, 0, 64, 73
1, 85737, Control_c, 0, 64, 48
1, 85752, Control_c, 0, 64, 0
1, 86256, Control_c, 0, 64, 17
1, 86271, Control_c, 0, 64, 45
1, 86286, Control_c, 0, 64, 60
1, 86301, Control_c, 0, 64, 66
1, 86316, Control_c, 0, 64, 69
1, 86330, Control_c, 0, 64, 73
1, 86345, Control_c, 0, 64, 78
1, 86360, Control_c, 0, 64, 86
1, 86375, Control_c, 0, 64, 97
1, 86387, Note_off_c, 0, 40, 61
1, 86390, Control_c, 0, 64, 113
1, 86405, Note_off_c, 0, 28, 61
1, 86405, Control_c, 0, 64, 127
1, 86679, Control_c, 0, 64, 102
1, 86694, Control_c, 0, 64, 80
1, 86700, Note_on_c, 0, 41, 57
1, 86709, Control_c, 0, 64, 66
1, 86712, Note_on_c, 0, 29, 49
1, 86724, Control_c, 0, 64, 50
1, 86738, Control_c, 0, 64, 9
1, 86753, Control_c, 0, 64, 0
1, 86842, Control_c, 0, 64, 33
1, 86856, Control_c, 0, 64, 54
1, 86871, Control_c, 0, 64, 63
1, 86886, Control_c, 0, 64, 67
1, 86901, Control_c, 0, 64, 70
1, 86908, Note_off_c, 0, 41, 57
1, 86916, Control_c, 0, 64, 73
1, 86927, Note_on_c, 0, 38, 55
1, 86930, Control_c, 0, 64, 75
1, 86945, Control_c, 0, 64, 79
1, 86947, Note_off_c, 0, 29, 61
1, 86961, Control_c, 0, 64, 82
1, 86970, Note_off_c, 0, 38, 53
1, 86971, Note_on_c, 0, 26, 51
1, 86976, Control_c, 0, 64, 84
1, 86991, Control_c, 0, 64, 85
1, 87006, Control_c, 0, 64, 86
1, 87009, Note_on_c, 0, 39, 62
1, 87042, Note_off_c, 0, 39, 62
1, 87079, Control_c, 0, 64, 83
1, 87090, Note_on_c, 0, 39, 64
1, 87094, Control_c, 0, 64, 74
1, 87109, Control_c, 0, 64, 61
1, 87112, Note_off_c, 0, 26, 56
1, 87115, Note_on_c, 0, 27, 51
1, 87124, Control_c, 0, 64, 39
1, 87139, Control_c, 0, 64, 0
1, 87153, Control_c, 0, 64, 26
1, 87159, Note_off_c, 0, 39, 58
1, 87168, Control_c, 0, 64, 53
1, 87180, Note_on_c, 0, 41, 57
1, 87183, Control_c, 0, 64, 68
1, 87198, Control_c, 0, 64, 81
1, 87213, Control_c, 0, 64, 95
1, 87225, Note_off_c, 0, 27, 61
1, 87235, Control_c, 0, 64, 113
1, 87250, Control_c, 0, 64, 127
1, 87251, Note_on_c, 0, 29, 52
1, 87254, Note_off_c, 0, 41, 61
1, 87265, Note_on_c, 0, 39, 62
1, 87296, Note_off_c, 0, 39, 65
1, 87299, Note_off_c, 0, 29, 52
1, 87317, Note_on_c, 0, 41, 50
1, 87338, Note_on_c, 0, 27, 44
1, 87372, Note_on_c, 0, 39, 66
1, 87374, Note_off_c, 0, 41, 61
1, 87376, Note_off_c, 0, 27, 59
1, 87403, Note_on_c, 0, 29, 58
1, 87411, Note_off_c, 0, 39, 63
1, 87426, Note_on_c, 0, 41, 56
1, 87444, Note_off_c, 0, 29, 57
1, 87460, Note_on_c, 0, 27, 67
1, 87483, Note_off_c, 0, 41, 62
1, 87487, Note_on_c, 0, 39, 75
1, 87501, Note_off_c, 0, 27, 59
1, 87528, Note_off_c, 0, 39, 64
1, 87532, Note_on_c, 0, 29, 68
1, 87539, Note_on_c, 0, 41, 59
1, 87570, Note_off_c, 0, 29, 61
1, 87584, Note_on_c, 0, 27, 70
1, 87597, Note_off_c, 0, 41, 61
1, 87603, Note_on_c, 0, 39, 66
1, 87626, Note_off_c, 0, 27, 59
1, 87636, Note_off_c, 0, 39, 64
1, 87642, Note_on_c, 0, 41, 62
1, 87645, Note_on_c, 0, 29, 70
1, 87692, Note_off_c, 0, 29, 61
1, 87698, Note_on_c, 0, 39, 78
1, 87700, Note_off_c, 0, 41, 62
1, 87708, Note_on_c, 0, 27, 74
1, 87744, Note_off_c, 0, 27, 58
1, 87744, Note_off_c, 0, 39, 62
1, 87750, Note_on_c, 0, 41, 67
1, 87782, Note_on_c, 0, 29, 70
1, 87814, Note_off_c, 0, 29, 61
1, 87815, Note_off_c, 0, 41, 62
1, 87823, Note_on_c, 0, 39, 58
1, 87833, Note_on_c, 0, 27, 67
1, 87843, Note_on_c, 0, 41, 59
1, 87858, Note_off_c, 0, 39, 58
1, 87885, Note_off_c, 0, 27, 61
1, 87900, Note_on_c, 0, 29, 66
1, 87910, Note_on_c, 0, 39, 69
1, 87915, Note_off_c, 0, 41, 59
1, 87946, Note_off_c, 0, 39, 66
1, 87948, Note_on_c, 0, 41, 51
1, 87955, Note_off_c, 0, 29, 59
1, 87993, Note_on_c, 0, 27, 60
1, 88023, Note_off_c, 0, 41, 62
1, 88027, Note_on_c, 0, 39, 63
1, 88050, Note_on_c, 0, 41, 64
1, 88052, Note_off_c, 0, 27, 61
1, 88056, Note_off_c, 0, 39, 65
1, 88065, Note_on_c, 0, 29, 61
1, 88110, Note_on_c, 0, 27, 44
1, 88115, Note_off_c, 0, 29, 62
1, 88118, Note_on_c, 0, 39, 87
1, 88128, Note_off_c, 0, 41, 62
1, 88182, Note_on_c, 0, 26, 87
1, 88186, Note_on_c, 0, 38, 89
1, 88186, Note_off_c, 0, 27, 61
1, 88227, Note_off_c, 0, 38, 65
1, 88253, Note_off_c, 0, 39, 25
1, 88326, Note_off_c, 0, 26, 64
1, 88333, Note_on_c, 0, 39, 95
1, 88336, Note_on_c, 0, 27, 80
1, 88382, Note_off_c, 0, 39, 61
1, 88389, Note_off_c, 0, 27, 54
1, 88473, Control_c, 0, 64, 67
1, 88488, Control_c, 0, 64, 0
1, 88781, Note_on_c, 0, 101, 97
1, 88801, Note_on_c, 0, 37, 80
1, 88803, Note_on_c, 0, 25, 75
1, 88830, Note_off_c, 0, 25, 64
1, 88846, Note_off_c, 0, 37, 61
1, 88852, Control_c, 0, 64, 43
1, 88867, Control_c, 0, 64, 59
1, 88882, Control_c, 0, 64, 66
1, 88897, Control_c, 0, 64, 73
1, 88912, Control_c, 0, 64, 84
1, 88926, Control_c, 0, 64, 98
1, 88941, Control_c, 0, 64, 127
1, 89179, Note_on_c, 0, 44, 66
1, 89181, Note_on_c, 0, 56, 69
1, 89209, Note_off_c, 0, 44, 65
1, 89210, Note_off_c, 0, 56, 65
1, 89290, Note_on_c, 0, 61, 72
1, 89296, Note_on_c, 0, 53, 55
1, 89321, Note_off_c, 0, 61, 63
1, 89333, Note_off_c, 0, 53, 62
1, 89445, Note_on_c, 0, 99, 78
1, 89466, Note_off_c, 0, 101, 46
1, 89509, Note_on_c, 0, 97, 80
1, 89568, Note_on_c, 0, 44, 58
1, 89575, Note_on_c, 0, 92, 82
1, 89587, Note_on_c, 0, 56, 47
1, 89599, Note_off_c, 0, 44, 64
1, 89600, Note_off_c, 0, 99, 64
1, 89615, Note_off_c, 0, 97, 66
1, 89622, Note_off_c, 0, 56, 47
1, 89627, Note_off_c, 0, 92, 63
1, 89631, Note_on_c, 0, 89, 82
1, 89676, Note_off_c, 0, 89, 65
1, 89694, Note_on_c, 0, 53, 53
1, 89707, Note_on_c, 0, 61, 55
1, 89711, Note_on_c, 0, 87, 86
1, 89719, Note_off_c, 0, 53, 59
1, 89725, Note_off_c, 0, 61, 63
1, 89776, Note_on_c, 0, 85, 73
1, 89833, Note_on_c, 0, 80, 80
1, 89863, Note_off_c, 0, 87, 64
1, 89871, Note_off_c, 0, 85, 63
1, 89895, Note_off_c, 0, 80, 62
1, 89898, Note_on_c, 0, 77, 76
1, 89926, Note_off_c, 0, 77, 68
1, 89956, Control_c, 0, 67, 8
1, 89971, Note_on_c, 0, 75, 64
1, 89971, Control_c, 0, 64, 96
1, 89971, Control_c, 0, 67, 10
1, 89986, Control_c, 0, 64, 68
1, 89986, Control_c, 0, 67, 12
1, 90000, Control_c, 0, 64, 39
1, 90000, Control_c, 0, 67, 12
1, 90015, Control_c, 0, 64, 0
1, 90015, Control_c, 0, 67, 13
1, 90030, Control_c, 0, 67, 15
1, 90036, Note_off_c, 0, 75, 59
1, 90045, Control_c, 0, 67, 19
1, 90046, Note_on_c, 0, 73, 58
1, 90060, Control_c, 0, 67, 24
1, 90074, Control_c, 0, 67, 29
1, 90089, Control_c, 0, 67, 33
1, 90104, Control_c, 0, 67, 40
1, 90107, Note_off_c, 0, 73, 48
1, 90119, Control_c, 0, 67, 47
1, 90134, Control_c, 0, 67, 54
1, 90149, Note_on_c, 0, 68, 44
1, 90150, Control_c, 0, 67, 62
1, 90164, Control_c, 0, 67, 69
1, 90179, Control_c, 0, 67, 76
1, 90194, Control_c, 0, 67, 82
1, 90208, Control_c, 0, 67, 86
1, 90231, Control_c, 0, 67, 87
1, 90246, Control_c, 0, 67, 88
1, 90260, Control_c, 0, 67, 89
1, 90275, Control_c, 0, 67, 91
1, 90290, Control_c, 0, 67, 94
1, 90304, Control_c, 0, 67, 96
1, 90319, Control_c, 0, 67, 97
1, 90334, Control_c, 0, 67, 100
1, 90349, Control_c, 0, 67, 104
1, 90364, Control_c, 0, 67, 107
1, 90378, Control_c, 0, 67, 110
1, 90384, Note_off_c, 0, 68, 65
1, 90393, Control_c, 0, 67, 113
1, 90408, Control_c, 0, 67, 115
1, 90423, Control_c, 0, 67, 117
1, 90438, Control_c, 0, 67, 119
1, 90453, Control_c, 0, 67, 121
1, 90468, Control_c, 0, 67, 124
1, 90483, Control_c, 0, 67, 127
1, 90497, Control_c, 0, 67, 127
1, 90626, Note_on_c, 0, 32, 41
1, 90660, Control_c, 0, 64, 34
1, 90675, Control_c, 0, 64, 56
1, 90677, Note_off_c, 0, 32, 60
1, 90687, Note_on_c, 0, 44, 11
1, 90690, Control_c, 0, 64, 65
1, 90693, Note_on_c, 0, 72, 56
1, 90704, Control_c, 0, 64, 68
1, 90719, Control_c, 0, 64, 71
1, 90733, Note_off_c, 0, 72, 63
1, 90734, Control_c, 0, 64, 72
1, 90738, Note_off_c, 0, 44, 37
1, 90747, Note_on_c, 0, 73, 60
1, 90749, Control_c, 0, 64, 73
1, 90764, Control_c, 0, 64, 75
1, 90778, Control_c, 0, 64, 77
1, 90793, Control_c, 0, 64, 78
1, 90796, Note_off_c, 0, 73, 62
1, 90798, Note_on_c, 0, 75, 70
1, 90808, Control_c, 0, 64, 79
1, 90828, Note_off_c, 0, 75, 67
1, 90837, Control_c, 0, 64, 79
1, 90861, Note_on_c, 0, 77, 74
1, 90867, Control_c, 0, 64, 80
1, 90908, Note_off_c, 0, 77, 54
1, 90933, Note_on_c, 0, 78, 68
1, 90942, Control_c, 0, 64, 79
1, 90957, Control_c, 0, 64, 78
1, 90980, Control_c, 0, 64, 74
1, 90986, Note_on_c, 0, 80, 71
1, 90992, Note_off_c, 0, 78, 59
1, 90994, Control_c, 0, 64, 67
1, 91009, Control_c, 0, 64, 56
1, 91024, Control_c, 0, 64, 0
1, 91037, Note_on_c, 0, 55, 37
1, 91046, Note_off_c, 0, 80, 63
1, 91046, Note_on_c, 0, 81, 60
1, 91046, Note_on_c, 0, 66, 50
1, 91063, Note_off_c, 0, 81, 66
1, 91075, Note_on_c, 0, 60, 23
1, 91085, Note_off_c, 0, 66, 63
1, 91116, Note_off_c, 0, 60, 44
1, 91194, Note_on_c, 0, 66, 55
1, 91197, Note_on_c, 0, 60, 60
1, 91209, Note_off_c, 0, 55, 55
1, 91210, Note_on_c, 0, 56, 47
1, 91225, Note_off_c, 0, 66, 65
1, 91226, Note_off_c, 0, 60, 65
1, 91237, Note_off_c, 0, 56, 59
1, 91322, Note_on_c, 0, 66, 55
1, 91323, Note_on_c, 0, 56, 55
1, 91336, Note_on_c, 0, 60, 24
1, 91348, Note_off_c, 0, 56, 62
1, 91348, Note_off_c, 0, 66, 64
1, 91375, Note_off_c, 0, 60, 40
1, 91447, Note_on_c, 0, 81, 60
1, 91504, Note_on_c, 0, 80, 68
1, 91517, Note_off_c, 0, 81, 61
1, 91547, Note_off_c, 0, 80, 60
1, 91562, Note_on_c, 0, 79, 63
1, 91594, Note_off_c, 0, 79, 62
1, 91625, Note_on_c, 0, 78, 58
1, 91661, Note_off_c, 0, 78, 63
1, 91670, Note_on_c, 0, 77, 60
1, 91708, Note_off_c, 0, 77, 67
1, 91737, Note_on_c, 0, 76, 51
1, 91768, Note_off_c, 0, 76, 58
1, 91788, Control_c, 0, 64, 14
1, 91800, Note_on_c, 0, 75, 59
1, 91803, Control_c, 0, 64, 37
1, 91806, Note_on_c, 0, 66, 41
1, 91812, Note_on_c, 0, 60, 37
1, 91817, Control_c, 0, 64, 49
1, 91818, Note_on_c, 0, 57, 35
1, 91828, Note_off_c, 0, 75, 66
1, 91832, Control_c, 0, 64, 58
1, 91847, Control_c, 0, 64, 63
1, 91862, Control_c, 0, 64, 66
1, 91876, Control_c, 0, 64, 68
1, 91887, Note_off_c, 0, 66, 37
1, 91891, Note_off_c, 0, 60, 47
1, 91891, Control_c, 0, 64, 72
1, 91893, Note_off_c, 0, 57, 40
1, 91906, Control_c, 0, 64, 76
1, 91921, Control_c, 0, 64, 79
1, 91936, Control_c, 0, 64, 84
1, 91950, Control_c, 0, 64, 89
1, 91965, Control_c, 0, 64, 91
1, 91980, Control_c, 0, 64, 92
1, 91998, Note_on_c, 0, 66, 65
1, 92008, Note_on_c, 0, 60, 49
1, 92010, Control_c, 0, 64, 91
1, 92012, Note_on_c, 0, 56, 52
1, 92024, Control_c, 0, 64, 81
1, 92025, Note_off_c, 0, 66, 65
1, 92030, Note_off_c, 0, 60, 58
1, 92036, Note_off_c, 0, 56, 57
1, 92039, Control_c, 0, 64, 67
1, 92054, Control_c, 0, 64, 48
1, 92068, Control_c, 0, 64, 0
1, 92166, Note_on_c, 0, 56, 56
1, 92170, Note_on_c, 0, 66, 59
1, 92183, Note_on_c, 0, 60, 18
1, 92191, Note_off_c, 0, 66, 64
1, 92202, Control_c, 0, 67, 127
1, 92211, Note_off_c, 0, 60, 44
1, 92214, Note_off_c, 0, 56, 60
1, 92217, Control_c, 0, 67, 117
1, 92232, Control_c, 0, 67, 110
1, 92247, Control_c, 0, 67, 103
1, 92262, Control_c, 0, 67, 96
1, 92276, Control_c, 0, 67, 90
1, 92291, Control_c, 0, 67, 88
1, 92321, Control_c, 0, 67, 86
1, 92336, Control_c, 0, 64, 24
1, 92336, Control_c, 0, 67, 77
1, 92350, Control_c, 0, 64, 55
1, 92350, Control_c, 0, 67, 57
1, 92352, Note_on_c, 0, 101, 97
1, 92365, Control_c, 0, 64, 68
1, 92365, Control_c, 0, 67, 24
1, 92380, Control_c, 0, 64, 79
1, 92380, Control_c, 0, 67, 0
1, 92394, Control_c, 0, 64, 101
1, 92401, Note_on_c, 0, 37, 72
1, 92408, Note_on_c, 0, 25, 60
1, 92409, Control_c, 0, 64, 127
1, 92438, Note_off_c, 0, 37, 65
1, 92440, Note_off_c, 0, 25, 62
1, 92730, Note_on_c, 0, 44, 66
1, 92736, Note_on_c, 0, 56, 69
1, 92757, Note_off_c, 0, 44, 65
1, 92762, Note_off_c, 0, 56, 66
1, 92843, Note_on_c, 0, 61, 78
1, 92855, Note_on_c, 0, 53, 62
1, 92874, Note_off_c, 0, 61, 64
1, 92887, Note_off_c, 0, 53, 64
1, 92943, Poly_aftertouch_c, 0, 54, 0
1, 93007, Note_on_c, 0, 99, 79
1, 93013, Note_off_c, 0, 101, 57
1, 93064, Note_on_c, 0, 97, 78
1, 93118, Note_on_c, 0, 44, 65
1, 93124, Note_on_c, 0, 92, 81
1, 93130, Note_on_c, 0, 56, 65
1, 93147, Note_off_c, 0, 44, 64
1, 93160, Note_off_c, 0, 99, 66
1, 93168, Note_off_c, 0, 97, 66
1, 93174, Note_off_c, 0, 56, 58
1, 93185, Note_on_c, 0, 89, 81
1, 93190, Note_off_c, 0, 92, 65
1, 93243, Note_off_c, 0, 89, 64
1, 93259, Note_on_c, 0, 53, 77
1, 93269, Note_on_c, 0, 61, 81
1, 93280, Note_on_c, 0, 87, 86
1, 93300, Note_off_c, 0, 53, 62
1, 93315, Note_off_c, 0, 61, 62
1, 93347, Note_on_c, 0, 85, 76
1, 93410, Note_on_c, 0, 80, 76
1, 93442, Note_off_c, 0, 87, 64
1, 93448, Note_off_c, 0, 85, 64
1, 93473, Note_on_c, 0, 77, 73
1, 93480, Note_off_c, 0, 80, 63
1, 93519, Note_off_c, 0, 77, 62
1, 93536, Control_c, 0, 67, 8
1, 93549, Note_on_c, 0, 75, 69
1, 93551, Control_c, 0, 67, 9
1, 93566, Control_c, 0, 67, 9
1, 93581, Control_c, 0, 67, 10
1, 93595, Control_c, 0, 67, 11
1, 93610, Control_c, 0, 67, 13
1, 93624, Note_on_c, 0, 73, 64
1, 93625, Control_c, 0, 67, 15
1, 93627, Note_off_c, 0, 75, 63
1, 93639, Control_c, 0, 67, 17
1, 93654, Control_c, 0, 67, 20
1, 93669, Control_c, 0, 67, 25
1, 93684, Control_c, 0, 67, 31
1, 93699, Control_c, 0, 67, 38
1, 93714, Control_c, 0, 64, 90
1, 93714, Control_c, 0, 67, 43
1, 93719, Note_off_c, 0, 73, 57
1, 93727, Note_on_c, 0, 68, 55
1, 93729, Control_c, 0, 64, 65
1, 93729, Control_c, 0, 67, 48
1, 93744, Control_c, 0, 64, 36
1, 93744, Control_c, 0, 67, 51
1, 93759, Control_c, 0, 64, 0
1, 93759, Control_c, 0, 67, 53
1, 93773, Control_c, 0, 67, 54
1, 93788, Control_c, 0, 67, 54
1, 93797, Note_off_c, 0, 68, 0
1, 93797, Note_on_c, 0, 68, 17
1, 93803, Control_c, 0, 67, 55
1, 93818, Control_c, 0, 67, 56
1, 93833, Control_c, 0, 67, 58
1, 93847, Control_c, 0, 67, 61
1, 93862, Control_c, 0, 67, 63
1, 93877, Control_c, 0, 67, 64
1, 93892, Control_c, 0, 67, 64
1, 93921, Control_c, 0, 67, 65
1, 93936, Control_c, 0, 67, 69
1, 93951, Control_c, 0, 67, 76
1, 93973, Control_c, 0, 67, 83
1, 93984, Note_off_c, 0, 68, 61
1, 93988, Control_c, 0, 67, 89
1, 94003, Control_c, 0, 67, 94
1, 94018, Control_c, 0, 67, 96
1, 94033, Control_c, 0, 67, 97
1, 94047, Control_c, 0, 67, 100
1, 94062, Control_c, 0, 67, 102
1, 94077, Control_c, 0, 67, 105
1, 94092, Control_c, 0, 67, 108
1, 94107, Control_c, 0, 67, 109
1, 94121, Control_c, 0, 67, 111
1, 94136, Control_c, 0, 67, 113
1, 94152, Control_c, 0, 67, 115
1, 94167, Control_c, 0, 67, 117
1, 94182, Control_c, 0, 67, 118
1, 94197, Control_c, 0, 67, 121
1, 94197, Note_on_c, 0, 44, 34
1, 94208, Note_on_c, 0, 54, 30
1, 94212, Control_c, 0, 67, 123
1, 94225, Note_on_c, 0, 51, 26
1, 94226, Control_c, 0, 67, 126
1, 94241, Control_c, 0, 67, 127
1, 94256, Control_c, 0, 64, 14
1, 94267, Note_on_c, 0, 72, 57
1, 94270, Control_c, 0, 64, 37
1, 94285, Control_c, 0, 64, 53
1, 94300, Control_c, 0, 64, 62
1, 94307, Note_off_c, 0, 72, 64
1, 94315, Control_c, 0, 64, 65
1, 94316, Note_on_c, 0, 73, 64
1, 94330, Control_c, 0, 64, 68
1, 94344, Control_c, 0, 64, 72
1, 94359, Control_c, 0, 64, 76
1, 94374, Control_c, 0, 64, 81
1, 94376, Note_on_c, 0, 75, 70
1, 94376, Note_off_c, 0, 73, 63
1, 94382, Note_off_c, 0, 44, 38
1, 94389, Control_c, 0, 64, 86
1, 94404, Control_c, 0, 64, 90
1, 94409, Note_off_c, 0, 75, 64
1, 94418, Control_c, 0, 64, 92
1, 94433, Control_c, 0, 64, 94
1, 94435, Note_on_c, 0, 77, 77
1, 94448, Control_c, 0, 64, 96
1, 94462, Control_c, 0, 64, 96
1, 94477, Control_c, 0, 64, 97
1, 94487, Note_off_c, 0, 77, 60
1, 94492, Control_c, 0, 64, 98
1, 94495, Note_on_c, 0, 78, 79
1, 94522, Control_c, 0, 64, 98
1, 94547, Note_on_c, 0, 80, 71
1, 94552, Control_c, 0, 64, 99
1, 94556, Note_off_c, 0, 78, 61
1, 94565, Note_off_c, 0, 54, 40
1, 94581, Note_off_c, 0, 51, 40
1, 94589, Note_on_c, 0, 60, 62
1, 94596, Control_c, 0, 64, 98
1, 94598, Note_on_c, 0, 81, 87
1, 94611, Control_c, 0, 64, 92
1, 94617, Note_off_c, 0, 80, 64
1, 94626, Control_c, 0, 64, 78
1, 94634, Note_off_c, 0, 81, 65
1, 94641, Control_c, 0, 64, 60
1, 94656, Control_c, 0, 64, 0
1, 94668, Note_on_c, 0, 61, 65
1, 94671, Note_off_c, 0, 60, 61
1, 94740, Note_on_c, 0, 63, 73
1, 94742, Note_off_c, 0, 61, 63
1, 94776, Note_off_c, 0, 63, 64
1, 94801, Note_on_c, 0, 65, 67
1, 94846, Note_off_c, 0, 65, 59
1, 94855, Note_on_c, 0, 66, 63
1, 94892, Note_off_c, 0, 66, 62
1, 94904, Note_on_c, 0, 68, 64
1, 94942, Note_off_c, 0, 68, 61
1, 94961, Note_on_c, 0, 81, 68
1, 94962, Note_on_c, 0, 69, 68
1, 94988, Note_off_c, 0, 69, 68
1, 95025, Note_on_c, 0, 80, 69
1, 95044, Note_off_c, 0, 81, 60
1, 95073, Note_off_c, 0, 80, 59
1, 95082, Note_on_c, 0, 79, 66
1, 95116, Note_off_c, 0, 79, 63
1, 95148, Note_on_c, 0, 78, 61
1, 95199, Note_off_c, 0, 78, 58
1, 95201, Note_on_c, 0, 77, 62
1, 95249, Note_off_c, 0, 77, 64
1, 95263, Note_on_c, 0, 76, 58
1, 95309, Note_off_c, 0, 76, 58
1, 95321, Note_on_c, 0, 75, 68
1, 95330, Note_on_c, 0, 57, 56
1, 95353, Note_off_c, 0, 75, 65
1, 95371, Note_off_c, 0, 57, 60
1, 95410, Note_on_c, 0, 56, 52
1, 95470, Note_off_c, 0, 56, 63
1, 95493, Note_on_c, 0, 55, 53
1, 95541, Note_off_c, 0, 55, 55
1, 95566, Note_on_c, 0, 54, 53
1, 95648, Note_off_c, 0, 54, 61
1, 95655, Note_on_c, 0, 53, 54
1, 95745, Note_off_c, 0, 53, 57
1, 95753, Note_on_c, 0, 51, 45
1, 95931, Note_off_c, 0, 51, 56
1, 95941, Note_on_c, 0, 49, 39
1, 95986, Note_on_c, 0, 77, 66
1, 95990, Control_c, 0, 64, 27
1, 96003, Note_on_c, 0, 71, 39
1, 96005, Control_c, 0, 64, 37
1, 96020, Control_c, 0, 64, 43
1, 96034, Control_c, 0, 64, 47
1, 96045, Note_off_c, 0, 71, 0
1, 96049, Control_c, 0, 64, 52
1, 96064, Control_c, 0, 64, 56
1, 96066, Note_on_c, 0, 71, 24
1, 96079, Control_c, 0, 64, 59
1, 96094, Control_c, 0, 64, 61
1, 96108, Control_c, 0, 64, 63
1, 96113, Note_off_c, 0, 49, 62
1, 96123, Control_c, 0, 64, 64
1, 96138, Control_c, 0, 64, 66
1, 96142, Note_on_c, 0, 56, 40
1, 96153, Control_c, 0, 64, 68
1, 96168, Control_c, 0, 64, 71
1, 96179, Note_off_c, 0, 56, 52
1, 96182, Control_c, 0, 64, 73
1, 96197, Control_c, 0, 64, 75
1, 96220, Control_c, 0, 64, 76
1, 96235, Note_on_c, 0, 61, 39
1, 96266, Note_off_c, 0, 61, 49
1, 96292, Note_on_c, 0, 65, 49
1, 96324, Note_off_c, 0, 65, 53
1, 96352, Note_on_c, 0, 61, 53
1, 96375, Note_off_c, 0, 61, 59
1, 96401, Note_on_c, 0, 56, 42
1, 96478, Note_on_c, 0, 49, 48
1, 96482, Note_off_c, 0, 56, 37
1, 96486, Control_c, 0, 64, 75
1, 96516, Control_c, 0, 64, 75
1, 96522, Note_off_c, 0, 49, 59
1, 96531, Control_c, 0, 64, 74
1, 96561, Control_c, 0, 64, 74
1, 96562, Note_on_c, 0, 59, 55
1, 96606, Control_c, 0, 64, 73
1, 96608, Note_off_c, 0, 59, 46
1, 96646, Note_on_c, 0, 75, 61
1, 96665, Note_off_c, 0, 77, 53
1, 96678, Note_on_c, 0, 61, 50
1, 96680, Control_c, 0, 64, 73
1, 96713, Note_off_c, 0, 61, 50
1, 96725, Control_c, 0, 64, 72
1, 96754, Control_c, 0, 64, 72
1, 96781, Note_on_c, 0, 65, 57
1, 96799, Control_c, 0, 64, 71
1, 96823, Note_off_c, 0, 65, 59
1, 96828, Control_c, 0, 64, 71
1, 96838, Note_off_c, 0, 75, 38
1, 96847, Note_on_c, 0, 73, 66
1, 96857, Control_c, 0, 64, 70
1, 96861, Note_on_c, 0, 61, 36
1, 96869, Note_off_c, 0, 71, 37
1, 96872, Note_off_c, 0, 73, 66
1, 96872, Control_c, 0, 64, 69
1, 96887, Control_c, 0, 64, 68
1, 96893, Note_off_c, 0, 61, 52
1, 96902, Control_c, 0, 64, 66
1, 96917, Control_c, 0, 64, 63
1, 96932, Control_c, 0, 64, 58
1, 96935, Note_on_c, 0, 73, 68
1, 96946, Control_c, 0, 64, 47
1, 96969, Control_c, 0, 64, 32
1, 96975, Poly_aftertouch_c, 0, 59, 127
1, 96984, Control_c, 0, 64, 0
1, 96987, Note_on_c, 0, 71, 26
1, 96995, Note_on_c, 0, 54, 48
1, 97014, Poly_aftertouch_c, 0, 59, 0
1, 97028, Control_c, 0, 64, 22
1, 97043, Control_c, 0, 64, 43
1, 97058, Control_c, 0, 64, 60
1, 97072, Control_c, 0, 64, 66
1, 97087, Control_c, 0, 64, 70
1, 97102, Control_c, 0, 64, 73
1, 97107, Note_on_c, 0, 59, 24
1, 97117, Control_c, 0, 64, 76
1, 97127, Note_on_c, 0, 61, 53
1, 97132, Control_c, 0, 64, 79
1, 97145, Note_off_c, 0, 59, 45
1, 97146, Control_c, 0, 64, 82
1, 97161, Control_c, 0, 64, 85
1, 97162, Note_off_c, 0, 61, 58
1, 97176, Control_c, 0, 64, 85
1, 97190, Control_c, 0, 64, 86
1, 97196, Note_off_c, 0, 54, 36
1, 97200, Note_on_c, 0, 66, 54
1, 97222, Note_off_c, 0, 66, 60
1, 97257, Note_on_c, 0, 61, 58
1, 97286, Note_off_c, 0, 61, 61
1, 97309, Control_c, 0, 64, 85
1, 97347, Note_on_c, 0, 59, 39
1, 97369, Control_c, 0, 64, 84
1, 97379, Note_off_c, 0, 59, 53
1, 97384, Control_c, 0, 64, 83
1, 97399, Control_c, 0, 64, 81
1, 97414, Control_c, 0, 64, 79
1, 97429, Control_c, 0, 64, 77
1, 97443, Control_c, 0, 64, 73
1, 97458, Control_c, 0, 64, 66
1, 97473, Control_c, 0, 64, 59
1, 97475, Note_on_c, 0, 78, 71
1, 97479, Note_on_c, 0, 49, 40
1, 97488, Control_c, 0, 64, 46
1, 97490, Note_off_c, 0, 73, 60
1, 97493, Note_off_c, 0, 71, 55
1, 97503, Control_c, 0, 64, 24
1, 97516, Note_on_c, 0, 70, 35
1, 97518, Control_c, 0, 64, 0
1, 97547, Control_c, 0, 64, 20
1, 97562, Control_c, 0, 64, 45
1, 97577, Control_c, 0, 64, 59
1, 97592, Control_c, 0, 64, 66
1, 97606, Control_c, 0, 64, 70
1, 97611, Note_off_c, 0, 49, 62
1, 97618, Note_on_c, 0, 58, 49
1, 97621, Control_c, 0, 64, 74
1, 97636, Control_c, 0, 64, 77
1, 97651, Control_c, 0, 64, 80
1, 97659, Note_off_c, 0, 58, 59
1, 97666, Control_c, 0, 64, 82
1, 97680, Control_c, 0, 64, 83
1, 97695, Control_c, 0, 64, 84
1, 97696, Note_on_c, 0, 61, 49
1, 97727, Note_off_c, 0, 61, 58
1, 97732, Control_c, 0, 64, 85
1, 97747, Control_c, 0, 64, 86
1, 97762, Control_c, 0, 64, 87
1, 97773, Note_on_c, 0, 66, 50
1, 97812, Note_off_c, 0, 66, 51
1, 97817, Note_on_c, 0, 61, 56
1, 97876, Note_off_c, 0, 61, 58
1, 97881, Control_c, 0, 64, 86
1, 97895, Control_c, 0, 64, 85
1, 97910, Control_c, 0, 64, 83
1, 97925, Control_c, 0, 64, 81
1, 97926, Note_on_c, 0, 58, 13
1, 97940, Control_c, 0, 64, 78
1, 97955, Control_c, 0, 64, 71
1, 97959, Note_on_c, 0, 56, 56
1, 97969, Control_c, 0, 64, 64
1, 97971, Note_off_c, 0, 58, 37
1, 97984, Control_c, 0, 64, 53
1, 97991, Note_on_c, 0, 71, 56
1, 97999, Control_c, 0, 64, 35
1, 98013, Control_c, 0, 64, 0
1, 98032, Note_off_c, 0, 70, 44
1, 98058, Control_c, 0, 64, 18
1, 98073, Control_c, 0, 64, 35
1, 98086, Note_on_c, 0, 59, 33
1, 98087, Control_c, 0, 64, 52
1, 98102, Control_c, 0, 64, 62
1, 98117, Control_c, 0, 64, 66
1, 98126, Note_off_c, 0, 59, 49
1, 98133, Control_c, 0, 64, 69
1, 98141, Note_on_c, 0, 61, 52
1, 98148, Control_c, 0, 64, 71
1, 98163, Control_c, 0, 64, 74
1, 98178, Control_c, 0, 64, 76
1, 98184, Note_off_c, 0, 61, 58
1, 98192, Control_c, 0, 64, 79
1, 98207, Control_c, 0, 64, 81
1, 98222, Control_c, 0, 64, 81
1, 98229, Note_on_c, 0, 68, 38
1, 98235, Note_off_c, 0, 56, 58
1, 98236, Control_c, 0, 64, 82
1, 98251, Control_c, 0, 64, 82
1, 98260, Note_off_c, 0, 68, 53
1, 98266, Control_c, 0, 64, 83
1, 98281, Control_c, 0, 64, 84
1, 98287, Note_on_c, 0, 61, 60
1, 98294, Note_on_c, 0, 77, 64
1, 98296, Control_c, 0, 64, 84
1, 98319, Note_off_c, 0, 78, 51
1, 98329, Note_off_c, 0, 61, 60
1, 98354, Note_off_c, 0, 77, 62
1, 98382, Note_on_c, 0, 59, 37
1, 98413, Note_off_c, 0, 59, 54
1, 98477, Note_on_c, 0, 77, 69
1, 98486, Note_on_c, 0, 49, 51
1, 98496, Control_c, 0, 64, 84
1, 98525, Control_c, 0, 64, 83
1, 98555, Control_c, 0, 64, 83
1, 98558, Note_off_c, 0, 49, 51
1, 98562, Note_on_c, 0, 59, 39
1, 98613, Note_off_c, 0, 59, 52
1, 98614, Note_off_c, 0, 77, 63
1, 98614, Control_c, 0, 64, 82
1, 98620, Note_on_c, 0, 75, 70
1, 98652, Note_on_c, 0, 61, 52
1, 98675, Note_off_c, 0, 61, 60
1, 98689, Note_off_c, 0, 71, 59
1, 98718, Control_c, 0, 64, 82
1, 98739, Note_on_c, 0, 65, 48
1, 98758, Note_off_c, 0, 75, 38
1, 98763, Note_on_c, 0, 73, 64
1, 98778, Control_c, 0, 67, 126
1, 98781, Note_off_c, 0, 65, 47
1, 98793, Note_off_c, 0, 73, 66
1, 98807, Control_c, 0, 64, 81
1, 98807, Control_c, 0, 67, 127
1, 98849, Note_on_c, 0, 59, 17
1, 98851, Control_c, 0, 64, 81
1, 98881, Control_c, 0, 64, 80
1, 98889, Note_off_c, 0, 59, 54
1, 98896, Control_c, 0, 64, 80
1, 98910, Control_c, 0, 64, 79
1, 98925, Control_c, 0, 64, 78
1, 98934, Note_on_c, 0, 82, 72
1, 98941, Control_c, 0, 64, 73
1, 98951, Note_on_c, 0, 54, 47
1, 98953, Note_on_c, 0, 73, 40
1, 98956, Control_c, 0, 64, 67
1, 98956, Control_c, 0, 67, 127
1, 98969, Note_on_c, 0, 70, 37
1, 98971, Control_c, 0, 64, 55
1, 98971, Control_c, 0, 67, 126
1, 98986, Control_c, 0, 64, 37
1, 99001, Control_c, 0, 64, 0
1, 99008, Note_off_c, 0, 73, 0
1, 99008, Note_on_c, 0, 73, 8
1, 99015, Control_c, 0, 67, 126
1, 99030, Control_c, 0, 64, 25
1, 99030, Control_c, 0, 67, 124
1, 99045, Control_c, 0, 64, 46
1, 99045, Control_c, 0, 67, 122
1, 99059, Control_c, 0, 64, 62
1, 99059, Control_c, 0, 67, 120
1, 99063, Note_on_c, 0, 58, 34
1, 99074, Control_c, 0, 64, 68
1, 99074, Control_c, 0, 67, 116
1, 99089, Control_c, 0, 64, 73
1, 99089, Control_c, 0, 67, 112
1, 99104, Control_c, 0, 64, 76
1, 99104, Control_c, 0, 67, 109
1, 99119, Control_c, 0, 64, 79
1, 99119, Control_c, 0, 67, 107
1, 99133, Control_c, 0, 64, 82
1, 99133, Control_c, 0, 67, 105
1, 99137, Note_on_c, 0, 61, 58
1, 99138, Note_off_c, 0, 58, 54
1, 99144, Note_off_c, 0, 70, 51
1, 99148, Control_c, 0, 64, 86
1, 99148, Control_c, 0, 67, 105
1, 99163, Note_off_c, 0, 82, 63
1, 99163, Control_c, 0, 64, 92
1, 99163, Control_c, 0, 67, 103
1, 99176, Note_off_c, 0, 61, 63
1, 99178, Control_c, 0, 64, 95
1, 99178, Control_c, 0, 67, 100
1, 99187, Note_off_c, 0, 73, 42
1, 99193, Control_c, 0, 64, 96
1, 99193, Control_c, 0, 67, 98
1, 99215, Control_c, 0, 67, 95
1, 99226, Note_on_c, 0, 66, 52
1, 99230, Control_c, 0, 67, 92
1, 99245, Control_c, 0, 67, 90
1, 99253, Note_off_c, 0, 66, 56
1, 99259, Control_c, 0, 67, 89
1, 99265, Note_off_c, 0, 54, 44
1, 99274, Control_c, 0, 67, 88
1, 99281, Note_on_c, 0, 61, 58
1, 99289, Control_c, 0, 67, 87
1, 99304, Control_c, 0, 67, 85
1, 99311, Note_off_c, 0, 61, 60
1, 99319, Control_c, 0, 67, 83
1, 99333, Control_c, 0, 67, 81
1, 99348, Control_c, 0, 67, 80
1, 99358, Note_on_c, 0, 58, 41
1, 99363, Control_c, 0, 67, 80
1, 99378, Control_c, 0, 64, 95
1, 99393, Control_c, 0, 64, 94
1, 99407, Control_c, 0, 64, 92
1, 99422, Control_c, 0, 64, 90
1, 99422, Control_c, 0, 67, 79
1, 99425, Note_off_c, 0, 58, 50
1, 99437, Control_c, 0, 64, 85
1, 99450, Note_on_c, 0, 82, 75
1, 99452, Control_c, 0, 64, 79
1, 99452, Control_c, 0, 67, 79
1, 99461, Note_on_c, 0, 52, 54
1, 99467, Control_c, 0, 64, 68
1, 99467, Control_c, 0, 67, 78
1, 99482, Control_c, 0, 64, 58
1, 99482, Control_c, 0, 67, 76
1, 99489, Note_on_c, 0, 73, 40
1, 99491, Note_on_c, 0, 68, 42
1, 99497, Control_c, 0, 64, 41
1, 99497, Control_c, 0, 67, 75
1, 99512, Control_c, 0, 64, 17
1, 99512, Control_c, 0, 67, 73
1, 99527, Control_c, 0, 64, 13
1, 99527, Control_c, 0, 67, 72
1, 99541, Control_c, 0, 64, 33
1, 99541, Control_c, 0, 67, 70
1, 99556, Control_c, 0, 64, 51
1, 99556, Control_c, 0, 67, 67
1, 99571, Control_c, 0, 64, 64
1, 99571, Control_c, 0, 67, 66
1, 99585, Control_c, 0, 64, 69
1, 99585, Control_c, 0, 67, 64
1, 99595, Note_on_c, 0, 58, 48
1, 99600, Control_c, 0, 64, 74
1, 99600, Control_c, 0, 67, 63
1, 99611, Note_off_c, 0, 52, 55
1, 99615, Control_c, 0, 64, 78
1, 99615, Control_c, 0, 67, 61
1, 99630, Control_c, 0, 64, 81
1, 99630, Control_c, 0, 67, 60
1, 99639, Note_off_c, 0, 68, 50
1, 99640, Note_off_c, 0, 58, 58
1, 99645, Control_c, 0, 64, 83
1, 99645, Control_c, 0, 67, 58
1, 99659, Control_c, 0, 64, 86
1, 99659, Control_c, 0, 67, 57
1, 99674, Note_off_c, 0, 82, 63
1, 99674, Control_c, 0, 64, 90
1, 99674, Control_c, 0, 67, 55
1, 99678, Note_on_c, 0, 61, 54
1, 99689, Control_c, 0, 64, 92
1, 99689, Control_c, 0, 67, 54
1, 99704, Control_c, 0, 64, 92
1, 99704, Control_c, 0, 67, 54
1, 99712, Note_off_c, 0, 61, 59
1, 99713, Note_off_c, 0, 73, 63
1, 99719, Control_c, 0, 64, 93
1, 99735, Control_c, 0, 67, 53
1, 99750, Control_c, 0, 67, 52
1, 99764, Note_on_c, 0, 68, 59
1, 99764, Control_c, 0, 67, 51
1, 99791, Note_off_c, 0, 68, 58
1, 99816, Note_on_c, 0, 82, 74
1, 99829, Note_on_c, 0, 61, 56
1, 99866, Note_off_c, 0, 61, 60
1, 99882, Control_c, 0, 64, 92
1, 99889, Note_off_c, 0, 82, 58
1, 99897, Control_c, 0, 67, 50
1, 99902, Note_on_c, 0, 67, 55
1, 99912, Control_c, 0, 64, 92
1, 99918, Note_on_c, 0, 58, 35
1, 99926, Note_off_c, 0, 67, 59
1, 99927, Control_c, 0, 64, 91
1, 99943, Control_c, 0, 64, 91
1, 99962, Note_off_c, 0, 58, 52
1, 99965, Control_c, 0, 64, 90
1, 99980, Control_c, 0, 64, 88
1, 99991, Note_on_c, 0, 82, 77
1, 99995, Control_c, 0, 64, 83
1, 99995, Note_on_c, 0, 51, 56
1, 100007, Note_on_c, 0, 73, 56
1, 100010, Control_c, 0, 64, 74
1, 100024, Control_c, 0, 64, 64
1, 100039, Control_c, 0, 64, 48
1, 100054, Control_c, 0, 64, 17
1, 100069, Control_c, 0, 64, 10
1, 100069, Control_c, 0, 67, 50
1, 100083, Control_c, 0, 64, 40
1, 100083, Control_c, 0, 67, 49
1, 100088, Note_on_c, 0, 58, 42
1, 100098, Control_c, 0, 64, 59
1, 100098, Control_c, 0, 67, 48
1, 100113, Control_c, 0, 64, 68
1, 100113, Control_c, 0, 67, 46
1, 100124, Note_off_c, 0, 51, 54
1, 100128, Control_c, 0, 64, 73
1, 100128, Control_c, 0, 67, 44
1, 100143, Control_c, 0, 64, 76
1, 100143, Control_c, 0, 67, 43
1, 100157, Control_c, 0, 64, 77
1, 100157, Control_c, 0, 67, 41
1, 100165, Note_off_c, 0, 58, 58
1, 100166, Note_on_c, 0, 61, 59
1, 100172, Control_c, 0, 64, 79
1, 100172, Control_c, 0, 67, 39
1, 100187, Control_c, 0, 64, 80
1, 100187, Control_c, 0, 67, 37
1, 100195, Note_off_c, 0, 61, 65
1, 100202, Control_c, 0, 64, 82
1, 100202, Control_c, 0, 67, 34
1, 100216, Control_c, 0, 64, 83
1, 100216, Control_c, 0, 67, 32
1, 100231, Control_c, 0, 64, 84
1, 100231, Control_c, 0, 67, 30
1, 100240, Note_on_c, 0, 67, 53
1, 100246, Control_c, 0, 64, 85
1, 100246, Control_c, 0, 67, 29
1, 100261, Control_c, 0, 64, 86
1, 100261, Control_c, 0, 67, 28
1, 100269, Note_off_c, 0, 67, 53
1, 100276, Control_c, 0, 64, 86
1, 100276, Control_c, 0, 67, 27
1, 100290, Control_c, 0, 67, 27
1, 100301, Note_on_c, 0, 61, 54
1, 100307, Note_on_c, 0, 75, 69
1, 100341, Note_off_c, 0, 75, 63
1, 100346, Note_off_c, 0, 61, 55
1, 100377, Note_on_c, 0, 58, 55
1, 100394, Control_c, 0, 64, 86
1, 100409, Control_c, 0, 64, 85
1, 100418, Note_off_c, 0, 58, 62
1, 100424, Control_c, 0, 64, 82
1, 100439, Control_c, 0, 64, 75
1, 100442, Note_on_c, 0, 55, 71
1, 100454, Control_c, 0, 64, 65
1, 100459, Note_on_c, 0, 75, 69
1, 100469, Control_c, 0, 64, 49
1, 100483, Control_c, 0, 64, 21
1, 100498, Control_c, 0, 64, 0
1, 100513, Control_c, 0, 64, 28
1, 100528, Control_c, 0, 64, 50
1, 100543, Control_c, 0, 64, 62
1, 100558, Control_c, 0, 64, 67
1, 100568, Note_off_c, 0, 55, 63
1, 100573, Control_c, 0, 64, 70
1, 100573, Control_c, 0, 67, 27
1, 100583, Note_on_c, 0, 61, 55
1, 100586, Note_off_c, 0, 82, 63
1, 100588, Control_c, 0, 64, 71
1, 100603, Control_c, 0, 64, 73
1, 100604, Note_on_c, 0, 77, 63
1, 100611, Note_off_c, 0, 73, 62
1, 100614, Note_off_c, 0, 75, 37
1, 100618, Control_c, 0, 64, 76
1, 100632, Note_off_c, 0, 61, 56
1, 100632, Control_c, 0, 64, 78
1, 100632, Control_c, 0, 67, 28
1, 100635, Note_on_c, 0, 79, 60
1, 100639, Note_off_c, 0, 77, 66
1, 100647, Control_c, 0, 64, 80
1, 100647, Control_c, 0, 67, 29
1, 100653, Note_on_c, 0, 63, 49
1, 100662, Control_c, 0, 64, 81
1, 100662, Control_c, 0, 67, 30
1, 100677, Control_c, 0, 64, 82
1, 100677, Control_c, 0, 67, 30
1, 100679, Note_off_c, 0, 63, 58
1, 100691, Control_c, 0, 64, 82
1, 100699, Note_on_c, 0, 77, 76
1, 100713, Control_c, 0, 67, 31
1, 100716, Note_off_c, 0, 79, 65
1, 100723, Note_off_c, 0, 77, 68
1, 100736, Note_on_c, 0, 70, 56
1, 100771, Note_off_c, 0, 70, 48
1, 100801, Note_on_c, 0, 63, 44
1, 100817, Control_c, 0, 64, 82
1, 100859, Note_off_c, 0, 63, 42
1, 100876, Note_on_c, 0, 75, 75
1, 100876, Control_c, 0, 64, 81
1, 100891, Control_c, 0, 64, 80
1, 100903, Note_off_c, 0, 75, 69
1, 100905, Control_c, 0, 64, 79
1, 100920, Control_c, 0, 64, 78
1, 100935, Control_c, 0, 64, 75
1, 100950, Control_c, 0, 64, 71
1, 100962, Note_on_c, 0, 75, 68
1, 100965, Control_c, 0, 64, 65
1, 100968, Note_on_c, 0, 56, 50
1, 100977, Note_on_c, 0, 73, 42
1, 100979, Control_c, 0, 64, 52
1, 100994, Control_c, 0, 64, 31
1, 101009, Control_c, 0, 64, 0
1, 101038, Control_c, 0, 64, 12
1, 101053, Control_c, 0, 64, 39
1, 101068, Note_on_c, 0, 61, 43
1, 101068, Control_c, 0, 64, 56
1, 101083, Control_c, 0, 64, 65
1, 101098, Control_c, 0, 64, 68
1, 101112, Control_c, 0, 64, 70
1, 101114, Note_off_c, 0, 61, 54
1, 101118, Note_on_c, 0, 63, 55
1, 101127, Control_c, 0, 64, 71
1, 101142, Control_c, 0, 64, 73
1, 101157, Control_c, 0, 64, 74
1, 101159, Note_off_c, 0, 63, 62
1, 101172, Note_off_c, 0, 56, 24
1, 101172, Control_c, 0, 64, 76
1, 101172, Control_c, 0, 67, 32
1, 101187, Control_c, 0, 64, 77
1, 101187, Control_c, 0, 67, 33
1, 101202, Control_c, 0, 64, 78
1, 101202, Control_c, 0, 67, 34
1, 101211, Note_on_c, 0, 68, 41
1, 101217, Control_c, 0, 67, 35
1, 101231, Control_c, 0, 67, 37
1, 101243, Note_off_c, 0, 68, 52
1, 101246, Control_c, 0, 67, 37
1, 101266, Note_on_c, 0, 63, 51
1, 101296, Note_off_c, 0, 63, 53
1, 101320, Control_c, 0, 67, 38
1, 101336, Control_c, 0, 67, 38
1, 101344, Note_on_c, 0, 61, 49
1, 101351, Control_c, 0, 67, 39
1, 101360, Note_off_c, 0, 73, 35
1, 101366, Control_c, 0, 67, 40
1, 101381, Control_c, 0, 67, 41
1, 101396, Control_c, 0, 64, 77
1, 101410, Control_c, 0, 64, 76
1, 101410, Control_c, 0, 67, 41
1, 101425, Control_c, 0, 64, 74
1, 101428, Note_off_c, 0, 61, 35
1, 101440, Control_c, 0, 64, 71
1, 101454, Note_on_c, 0, 80, 74
1, 101461, Control_c, 0, 64, 66
1, 101467, Note_on_c, 0, 51, 44
1, 101476, Control_c, 0, 64, 56
1, 101487, Note_on_c, 0, 72, 46
1, 101491, Control_c, 0, 64, 39
1, 101500, Note_off_c, 0, 75, 59
1, 101506, Control_c, 0, 64, 0
1, 101551, Control_c, 0, 64, 14
1, 101551, Control_c, 0, 67, 41
1, 101566, Control_c, 0, 64, 35
1, 101566, Control_c, 0, 67, 40
1, 101580, Control_c, 0, 64, 52
1, 101580, Control_c, 0, 67, 40
1, 101595, Control_c, 0, 64, 61
1, 101595, Control_c, 0, 67, 39
1, 101603, Note_on_c, 0, 60, 49
1, 101604, Note_off_c, 0, 51, 58
1, 101610, Control_c, 0, 64, 65
1, 101610, Control_c, 0, 67, 39
1, 101625, Control_c, 0, 64, 67
1, 101640, Control_c, 0, 64, 69
1, 101640, Control_c, 0, 67, 38
1, 101654, Control_c, 0, 64, 71
1, 101654, Control_c, 0, 67, 38
1, 101669, Control_c, 0, 64, 75
1, 101684, Control_c, 0, 64, 78
1, 101685, Note_off_c, 0, 72, 62
1, 101688, Note_off_c, 0, 60, 55
1, 101699, Control_c, 0, 64, 81
1, 101711, Note_on_c, 0, 63, 51
1, 101714, Control_c, 0, 64, 82
1, 101714, Control_c, 0, 67, 37
1, 101728, Control_c, 0, 64, 82
1, 101737, Note_off_c, 0, 63, 58
1, 101771, Note_on_c, 0, 68, 53
1, 101788, Control_c, 0, 67, 38
1, 101802, Note_off_c, 0, 68, 52
1, 101817, Control_c, 0, 67, 38
1, 101832, Control_c, 0, 67, 39
1, 101833, Note_on_c, 0, 63, 60
1, 101847, Control_c, 0, 67, 40
1, 101861, Control_c, 0, 67, 40
1, 101878, Note_off_c, 0, 63, 57
1, 101891, Control_c, 0, 67, 41
1, 101900, Note_on_c, 0, 60, 47
1, 101906, Control_c, 0, 64, 82
1, 101921, Control_c, 0, 64, 81
1, 101935, Control_c, 0, 64, 80
1, 101935, Control_c, 0, 67, 41
1, 101950, Control_c, 0, 64, 79
1, 101956, Note_off_c, 0, 60, 57
1, 101965, Control_c, 0, 64, 77
1, 101980, Control_c, 0, 64, 74
1, 101995, Note_on_c, 0, 58, 49
1, 101995, Control_c, 0, 64, 70
1, 102003, Note_on_c, 0, 73, 59
1, 102010, Control_c, 0, 64, 65
1, 102010, Control_c, 0, 67, 42
1, 102025, Control_c, 0, 64, 57
1, 102025, Control_c, 0, 67, 43
1, 102040, Control_c, 0, 64, 44
1, 102040, Control_c, 0, 67, 43
1, 102054, Control_c, 0, 64, 22
1, 102054, Control_c, 0, 67, 46
1, 102069, Control_c, 0, 64, 0
1, 102069, Control_c, 0, 67, 50
1, 102084, Control_c, 0, 67, 53
1, 102099, Control_c, 0, 67, 55
1, 102114, Control_c, 0, 64, 15
1, 102114, Control_c, 0, 67, 58
1, 102120, Note_on_c, 0, 61, 43
1, 102129, Control_c, 0, 64, 34
1, 102129, Control_c, 0, 67, 61
1, 102144, Control_c, 0, 64, 49
1, 102144, Control_c, 0, 67, 63
1, 102159, Control_c, 0, 64, 59
1, 102159, Control_c, 0, 67, 65
1, 102174, Control_c, 0, 64, 64
1, 102174, Control_c, 0, 67, 65
1, 102180, Note_off_c, 0, 61, 51
1, 102189, Control_c, 0, 64, 65
1, 102191, Note_on_c, 0, 63, 44
1, 102191, Note_on_c, 0, 79, 64
1, 102211, Control_c, 0, 64, 65
1, 102226, Control_c, 0, 64, 67
1, 102226, Control_c, 0, 67, 65
1, 102240, Control_c, 0, 64, 69
1, 102247, Note_off_c, 0, 63, 61
1, 102255, Control_c, 0, 64, 72
1, 102255, Control_c, 0, 67, 64
1, 102270, Control_c, 0, 64, 75
1, 102272, Note_on_c, 0, 70, 55
1, 102284, Control_c, 0, 64, 78
1, 102284, Control_c, 0, 67, 64
1, 102285, Note_off_c, 0, 58, 33
1, 102299, Note_off_c, 0, 70, 55
1, 102299, Control_c, 0, 64, 80
1, 102299, Control_c, 0, 67, 63
1, 102314, Control_c, 0, 64, 81
1, 102329, Control_c, 0, 64, 82
1, 102329, Control_c, 0, 67, 63
1, 102344, Control_c, 0, 64, 82
1, 102344, Control_c, 0, 67, 62
1, 102358, Control_c, 0, 64, 83
1, 102358, Control_c, 0, 67, 62
1, 102365, Note_on_c, 0, 77, 67
1, 102366, Note_on_c, 0, 63, 44
1, 102373, Control_c, 0, 64, 84
1, 102373, Control_c, 0, 67, 61
1, 102374, Note_off_c, 0, 79, 60
1, 102379, Note_off_c, 0, 80, 43
1, 102388, Control_c, 0, 64, 85
1, 102388, Control_c, 0, 67, 60
1, 102396, Note_off_c, 0, 63, 56
1, 102403, Control_c, 0, 64, 86
1, 102403, Control_c, 0, 67, 60
1, 102418, Control_c, 0, 67, 59
1, 102418, Note_on_c, 0, 61, 52
1, 102433, Control_c, 0, 67, 59
1, 102452, Note_off_c, 0, 61, 50
1, 102463, Control_c, 0, 67, 58
1, 102492, Control_c, 0, 67, 58
1, 102507, Control_c, 0, 67, 57
1, 102521, Note_on_c, 0, 51, 50
1, 102522, Control_c, 0, 67, 57
1, 102525, Note_on_c, 0, 79, 65
1, 102541, Note_off_c, 0, 77, 60
1, 102552, Control_c, 0, 67, 56
1, 102581, Control_c, 0, 67, 56
1, 102610, Control_c, 0, 67, 55
1, 102618, Note_on_c, 0, 61, 52
1, 102618, Note_off_c, 0, 51, 50
1, 102625, Control_c, 0, 67, 55
1, 102655, Control_c, 0, 67, 54
1, 102677, Note_on_c, 0, 77, 68
1, 102684, Control_c, 0, 67, 54
1, 102706, Note_off_c, 0, 73, 55
1, 102715, Note_off_c, 0, 79, 54
1, 102719, Note_on_c, 0, 63, 52
1, 102721, Note_off_c, 0, 77, 64
1, 102729, Control_c, 0, 64, 85
1, 102749, Note_off_c, 0, 63, 57
1, 102757, Note_off_c, 0, 61, 34
1, 102788, Control_c, 0, 64, 85
1, 102794, Note_on_c, 0, 67, 48
1, 102829, Note_off_c, 0, 67, 48
1, 102832, Control_c, 0, 67, 53
1, 102847, Control_c, 0, 64, 84
1, 102856, Note_on_c, 0, 63, 56
1, 102892, Control_c, 0, 64, 84
1, 102901, Note_off_c, 0, 63, 58
1, 102938, Control_c, 0, 64, 83
1, 102952, Note_on_c, 0, 75, 67
1, 102961, Control_c, 0, 64, 83
1, 102961, Note_on_c, 0, 61, 12
1, 102976, Control_c, 0, 64, 82
1, 102990, Control_c, 0, 64, 81
1, 103005, Control_c, 0, 64, 80
1, 103020, Control_c, 0, 64, 79
1, 103020, Control_c, 0, 67, 53
1, 103023, Note_off_c, 0, 75, 43
1, 103025, Note_off_c, 0, 61, 40
1, 103034, Control_c, 0, 64, 77
1, 103049, Control_c, 0, 64, 74
1, 103064, Control_c, 0, 64, 70
1, 103064, Control_c, 0, 67, 52
1, 103074, Note_on_c, 0, 56, 49
1, 103074, Note_on_c, 0, 84, 80
1, 103079, Control_c, 0, 64, 65
1, 103094, Control_c, 0, 64, 58
1, 103094, Control_c, 0, 67, 52
1, 103103, Note_on_c, 0, 72, 49
1, 103108, Control_c, 0, 64, 50
1, 103108, Control_c, 0, 67, 51
1, 103123, Control_c, 0, 64, 40
1, 103138, Control_c, 0, 64, 27
1, 103153, Control_c, 0, 64, 15
1, 103168, Control_c, 0, 64, 13
1, 103168, Control_c, 0, 67, 51
1, 103182, Control_c, 0, 64, 17
1, 103196, Note_on_c, 0, 60, 48
1, 103197, Control_c, 0, 64, 29
1, 103197, Control_c, 0, 67, 50
1, 103212, Control_c, 0, 64, 44
1, 103226, Control_c, 0, 64, 55
1, 103226, Control_c, 0, 67, 49
1, 103241, Control_c, 0, 64, 62
1, 103241, Control_c, 0, 67, 48
1, 103256, Control_c, 0, 64, 65
1, 103256, Control_c, 0, 67, 47
1, 103271, Control_c, 0, 64, 66
1, 103286, Control_c, 0, 64, 68
1, 103286, Control_c, 0, 67, 47
1, 103292, Note_off_c, 0, 60, 55
1, 103300, Note_on_c, 0, 63, 50
1, 103300, Control_c, 0, 64, 70
1, 103300, Control_c, 0, 67, 46
1, 103315, Control_c, 0, 64, 74
1, 103315, Control_c, 0, 67, 45
1, 103330, Control_c, 0, 64, 78
1, 103330, Control_c, 0, 67, 43
1, 103339, Note_off_c, 0, 63, 63
1, 103345, Control_c, 0, 64, 81
1, 103345, Control_c, 0, 67, 41
1, 103360, Control_c, 0, 64, 84
1, 103360, Control_c, 0, 67, 39
1, 103373, Note_on_c, 0, 68, 45
1, 103375, Control_c, 0, 64, 87
1, 103375, Control_c, 0, 67, 37
1, 103390, Control_c, 0, 64, 89
1, 103390, Control_c, 0, 67, 35
1, 103405, Control_c, 0, 64, 91
1, 103405, Control_c, 0, 67, 32
1, 103412, Note_off_c, 0, 68, 49
1, 103420, Control_c, 0, 64, 91
1, 103420, Control_c, 0, 67, 30
1, 103434, Control_c, 0, 64, 92
1, 103434, Control_c, 0, 67, 28
1, 103439, Note_on_c, 0, 63, 56
1, 103449, Control_c, 0, 64, 92
1, 103449, Control_c, 0, 67, 26
1, 103464, Control_c, 0, 67, 25
1, 103476, Note_off_c, 0, 84, 61
1, 103476, Note_off_c, 0, 56, 39
1, 103485, Note_off_c, 0, 63, 59
1, 103507, Note_on_c, 0, 60, 48
1, 103582, Control_c, 0, 67, 26
1, 103593, Note_off_c, 0, 60, 59
1, 103597, Control_c, 0, 64, 92
1, 103607, Note_on_c, 0, 55, 66
1, 103612, Control_c, 0, 64, 90
1, 103612, Control_c, 0, 67, 26
1, 103626, Control_c, 0, 64, 87
1, 103626, Control_c, 0, 67, 27
1, 103641, Control_c, 0, 64, 84
1, 103641, Control_c, 0, 67, 27
1, 103656, Control_c, 0, 64, 80
1, 103671, Control_c, 0, 64, 73
1, 103671, Control_c, 0, 67, 28
1, 103682, Note_on_c, 0, 84, 71
1, 103686, Control_c, 0, 64, 63
1, 103708, Control_c, 0, 64, 51
1, 103708, Control_c, 0, 67, 28
1, 103723, Control_c, 0, 64, 32
1, 103723, Control_c, 0, 67, 29
1, 103739, Control_c, 0, 64, 0
1, 103739, Control_c, 0, 67, 29
1, 103768, Control_c, 0, 64, 14
1, 103768, Control_c, 0, 67, 30
1, 103783, Control_c, 0, 64, 32
1, 103783, Control_c, 0, 67, 30
1, 103798, Control_c, 0, 64, 50
1, 103798, Control_c, 0, 67, 31
1, 103813, Control_c, 0, 64, 60
1, 103813, Control_c, 0, 67, 32
1, 103828, Control_c, 0, 64, 65
1, 103828, Control_c, 0, 67, 33
1, 103836, Note_on_c, 0, 56, 42
1, 103843, Control_c, 0, 64, 67
1, 103843, Control_c, 0, 67, 33
1, 103857, Control_c, 0, 64, 68
1, 103857, Control_c, 0, 67, 34
1, 103872, Control_c, 0, 64, 69
1, 103887, Control_c, 0, 64, 71
1, 103902, Control_c, 0, 64, 73
1, 103902, Control_c, 0, 67, 35
1, 103917, Control_c, 0, 64, 76
1, 103917, Control_c, 0, 67, 35
1, 103924, Note_on_c, 0, 60, 40
1, 103931, Control_c, 0, 64, 78
1, 103931, Control_c, 0, 67, 36
1, 103946, Control_c, 0, 64, 79
1, 103946, Control_c, 0, 67, 37
1, 103961, Control_c, 0, 64, 80
1, 103961, Control_c, 0, 67, 38
1, 103972, Note_off_c, 0, 60, 45
1, 103976, Control_c, 0, 64, 81
1, 103976, Control_c, 0, 67, 38
1, 103991, Control_c, 0, 67, 39
1, 103992, Note_off_c, 0, 84, 59
1, 104005, Control_c, 0, 64, 81
1, 104027, Note_off_c, 0, 56, 23
1, 104029, Note_on_c, 0, 63, 40
1, 104045, Note_off_c, 0, 55, 43
1, 104049, Control_c, 0, 67, 40
1, 104064, Control_c, 0, 67, 40
1, 104079, Control_c, 0, 67, 41
1, 104080, Note_off_c, 0, 63, 44
1, 104094, Control_c, 0, 67, 42
1, 104096, Note_on_c, 0, 60, 29
1, 104109, Control_c, 0, 67, 44
1, 104123, Control_c, 0, 67, 45
1, 104133, Note_on_c, 0, 84, 66
1, 104138, Control_c, 0, 67, 45
1, 104154, Note_off_c, 0, 60, 40
1, 104172, Note_on_c, 0, 56, 43
1, 104183, Control_c, 0, 64, 81
1, 104183, Control_c, 0, 67, 46
1, 104207, Note_off_c, 0, 84, 60
1, 104242, Control_c, 0, 64, 80
1, 104257, Control_c, 0, 67, 46
1, 104272, Control_c, 0, 64, 80
1, 104317, Control_c, 0, 64, 79
1, 104331, Control_c, 0, 64, 79
1, 104346, Control_c, 0, 64, 78
1, 104349, Note_off_c, 0, 56, 57
1, 104350, Note_on_c, 0, 54, 55
1, 104361, Control_c, 0, 64, 77
1, 104375, Control_c, 0, 64, 75
1, 104375, Control_c, 0, 67, 47
1, 104390, Control_c, 0, 64, 71
1, 104390, Control_c, 0, 67, 47
1, 104405, Control_c, 0, 64, 66
1, 104405, Control_c, 0, 67, 50
1, 104420, Control_c, 0, 64, 60
1, 104420, Control_c, 0, 67, 51
1, 104433, Note_on_c, 0, 84, 63
1, 104433, Control_c, 0, 64, 50
1, 104433, Control_c, 0, 67, 52
1, 104455, Control_c, 0, 64, 35
1, 104470, Control_c, 0, 64, 8
1, 104485, Control_c, 0, 64, 0
1, 104515, Control_c, 0, 64, 22
1, 104531, Control_c, 0, 64, 38
1, 104546, Control_c, 0, 64, 51
1, 104560, Control_c, 0, 64, 60
1, 104568, Note_on_c, 0, 56, 42
1, 104575, Control_c, 0, 64, 64
1, 104590, Control_c, 0, 64, 65
1, 104605, Control_c, 0, 64, 67
1, 104620, Control_c, 0, 64, 68
1, 104634, Control_c, 0, 64, 71
1, 104649, Control_c, 0, 64, 74
1, 104660, Note_on_c, 0, 60, 52
1, 104664, Control_c, 0, 64, 76
1, 104667, Note_off_c, 0, 56, 51
1, 104678, Control_c, 0, 64, 78
1, 104693, Control_c, 0, 64, 79
1, 104693, Control_c, 0, 67, 52
1, 104698, Note_off_c, 0, 60, 58
1, 104708, Control_c, 0, 67, 53
1, 104711, Note_off_c, 0, 72, 61
1, 104723, Control_c, 0, 64, 80
1, 104749, Note_on_c, 0, 63, 46
1, 104752, Note_off_c, 0, 54, 22
1, 104783, Note_off_c, 0, 63, 53
1, 104808, Note_on_c, 0, 60, 39
1, 104844, Note_off_c, 0, 60, 49
1, 104862, Note_on_c, 0, 56, 49
1, 104886, Control_c, 0, 67, 52
1, 104901, Control_c, 0, 67, 52
1, 104930, Note_off_c, 0, 56, 58
1, 104945, Control_c, 0, 67, 51
1, 104947, Note_on_c, 0, 54, 60
1, 104975, Control_c, 0, 67, 51
1, 105004, Control_c, 0, 67, 50
1, 105019, Control_c, 0, 67, 50
1, 105077, Note_on_c, 0, 56, 42
1, 105078, Control_c, 0, 67, 49
1, 105108, Control_c, 0, 67, 49
1, 105143, Note_off_c, 0, 56, 52
1, 105149, Note_on_c, 0, 82, 58
1, 105152, Control_c, 0, 67, 48
1, 105161, Note_on_c, 0, 60, 41
1, 105172, Note_off_c, 0, 54, 24
1, 105182, Control_c, 0, 64, 79
1, 105182, Control_c, 0, 67, 48
1, 105199, Note_off_c, 0, 60, 52
1, 105219, Control_c, 0, 67, 47
1, 105231, Note_on_c, 0, 63, 43
1, 105234, Control_c, 0, 67, 46
1, 105249, Control_c, 0, 67, 46
1, 105264, Note_off_c, 0, 63, 54
1, 105264, Control_c, 0, 67, 45
1, 105278, Control_c, 0, 67, 45
1, 105292, Note_on_c, 0, 60, 42
1, 105293, Control_c, 0, 67, 44
1, 105308, Control_c, 0, 67, 44
1, 105315, Note_off_c, 0, 84, 24
1, 105324, Control_c, 0, 67, 43
1, 105339, Control_c, 0, 67, 43
1, 105347, Note_off_c, 0, 60, 40
1, 105366, Note_on_c, 0, 80, 69
1, 105369, Control_c, 0, 67, 42
1, 105378, Note_off_c, 0, 82, 61
1, 105383, Control_c, 0, 64, 79
1, 105387, Note_on_c, 0, 56, 42
1, 105393, Note_off_c, 0, 80, 67
1, 105398, Control_c, 0, 64, 78
1, 105413, Control_c, 0, 64, 77
1, 105413, Control_c, 0, 67, 42
1, 105426, Note_off_c, 0, 56, 51
1, 105427, Control_c, 0, 64, 76
1, 105442, Control_c, 0, 64, 72
1, 105442, Control_c, 0, 67, 41
1, 105450, Note_on_c, 0, 80, 75
1, 105457, Control_c, 0, 64, 66
1, 105459, Note_on_c, 0, 53, 52
1, 105472, Control_c, 0, 64, 58
1, 105487, Control_c, 0, 64, 41
1, 105487, Control_c, 0, 67, 41
1, 105501, Control_c, 0, 64, 0
1, 105507, Note_off_c, 0, 53, 0
1, 105516, Control_c, 0, 67, 40
1, 105531, Control_c, 0, 64, 18
1, 105531, Control_c, 0, 67, 40
1, 105545, Poly_aftertouch_c, 0, 53, 127
1, 105546, Control_c, 0, 64, 41
1, 105552, Note_on_c, 0, 56, 42
1, 105561, Control_c, 0, 64, 56
1, 105561, Control_c, 0, 67, 39
1, 105575, Control_c, 0, 64, 64
1, 105575, Control_c, 0, 67, 39
1, 105590, Control_c, 0, 64, 68
1, 105590, Control_c, 0, 67, 38
1, 105605, Control_c, 0, 64, 70
1, 105617, Note_on_c, 0, 61, 59
1, 105617, Note_off_c, 0, 56, 51
1, 105620, Control_c, 0, 64, 72
1, 105620, Control_c, 0, 67, 38
1, 105629, Poly_aftertouch_c, 0, 53, 0
1, 105635, Control_c, 0, 64, 74
1, 105647, Note_off_c, 0, 61, 66
1, 105649, Control_c, 0, 64, 77
1, 105649, Control_c, 0, 67, 37
1, 105664, Control_c, 0, 64, 79
1, 105664, Control_c, 0, 67, 37
1, 105666, Poly_aftertouch_c, 0, 53, 127
1, 105679, Control_c, 0, 64, 82
1, 105679, Control_c, 0, 67, 36
1, 105684, Note_on_c, 0, 65, 52
1, 105694, Control_c, 0, 64, 85
1, 105709, Control_c, 0, 64, 87
1, 105709, Control_c, 0, 67, 36
1, 105715, Note_off_c, 0, 65, 52
1, 105724, Control_c, 0, 64, 89
1, 105727, Poly_aftertouch_c, 0, 53, 0
1, 105739, Control_c, 0, 64, 91
1, 105741, Note_on_c, 0, 61, 58
1, 105754, Control_c, 0, 64, 92
1, 105754, Control_c, 0, 67, 34
1, 105768, Control_c, 0, 64, 94
1, 105768, Control_c, 0, 67, 34
1, 105772, Note_off_c, 0, 61, 62
1, 105783, Control_c, 0, 64, 95
1, 105783, Control_c, 0, 67, 33
1, 105798, Control_c, 0, 64, 96
1, 105798, Control_c, 0, 67, 33
1, 105810, Note_on_c, 0, 56, 50
1, 105813, Control_c, 0, 64, 96
1, 105827, Control_c, 0, 67, 32
1, 105839, Note_off_c, 0, 80, 58
1, 105842, Control_c, 0, 64, 97
1, 105842, Control_c, 0, 67, 30
1, 105852, Note_off_c, 0, 56, 62
1, 105857, Control_c, 0, 67, 28
1, 105872, Control_c, 0, 67, 25
1, 105880, Note_on_c, 0, 53, 51
1, 105887, Control_c, 0, 64, 97
1, 105887, Control_c, 0, 67, 24
1, 105888, Note_on_c, 0, 85, 75
1, 105901, Control_c, 0, 67, 23
1, 105916, Control_c, 0, 67, 21
1, 105927, Note_off_c, 0, 53, 62
1, 105931, Control_c, 0, 64, 98
1, 105931, Control_c, 0, 67, 19
1, 105946, Note_off_c, 0, 85, 61
1, 105953, Control_c, 0, 67, 17
1, 105964, Note_on_c, 0, 56, 48
1, 105968, Control_c, 0, 67, 16
1, 105983, Control_c, 0, 67, 15
1, 105990, Note_off_c, 0, 56, 58
1, 105998, Control_c, 0, 64, 98
1, 105998, Control_c, 0, 67, 14
1, 106010, Note_on_c, 0, 61, 54
1, 106013, Control_c, 0, 64, 99
1, 106013, Control_c, 0, 67, 14
1, 106027, Control_c, 0, 64, 99
1, 106027, Control_c, 0, 67, 13
1, 106042, Control_c, 0, 67, 12
1, 106048, Note_off_c, 0, 61, 63
1, 106057, Control_c, 0, 67, 12
1, 106072, Control_c, 0, 67, 11
1, 106087, Control_c, 0, 67, 10
1, 106092, Note_on_c, 0, 68, 51
1, 106116, Note_off_c, 0, 68, 61
1, 106132, Control_c, 0, 67, 9
1, 106144, Note_on_c, 0, 61, 65
1, 106192, Control_c, 0, 67, 9
1, 106207, Note_off_c, 0, 61, 52
1, 106242, Note_on_c, 0, 56, 37
1, 106250, Control_c, 0, 64, 99
1, 106265, Control_c, 0, 64, 98
1, 106280, Control_c, 0, 64, 95
1, 106295, Control_c, 0, 64, 91
1, 106310, Note_off_c, 0, 56, 60
1, 106310, Control_c, 0, 64, 84
1, 106320, Note_on_c, 0, 51, 58
1, 106324, Note_on_c, 0, 85, 78
1, 106324, Control_c, 0, 64, 74
1, 106339, Control_c, 0, 64, 64
1, 106339, Control_c, 0, 67, 8
1, 106354, Control_c, 0, 64, 50
1, 106354, Control_c, 0, 67, 0
1, 106369, Control_c, 0, 64, 30
1, 106384, Control_c, 0, 64, 18
1, 106398, Control_c, 0, 64, 32
1, 106413, Control_c, 0, 64, 50
1, 106428, Control_c, 0, 64, 61
1, 106430, Note_on_c, 0, 56, 52
1, 106442, Control_c, 0, 64, 66
1, 106457, Control_c, 0, 64, 68
1, 106472, Control_c, 0, 64, 71
1, 106484, Note_off_c, 0, 56, 55
1, 106487, Control_c, 0, 64, 74
1, 106499, Note_on_c, 0, 60, 53
1, 106502, Control_c, 0, 64, 77
1, 106517, Control_c, 0, 64, 81
1, 106532, Control_c, 0, 64, 84
1, 106547, Control_c, 0, 64, 87
1, 106557, Note_off_c, 0, 60, 52
1, 106562, Control_c, 0, 64, 90
1, 106576, Control_c, 0, 64, 92
1, 106585, Note_on_c, 0, 66, 53
1, 106591, Control_c, 0, 64, 93
1, 106606, Control_c, 0, 64, 94
1, 106612, Note_off_c, 0, 66, 56
1, 106636, Control_c, 0, 64, 94
1, 106660, Note_off_c, 0, 51, 35
1, 106665, Control_c, 0, 64, 95
1, 106666, Note_on_c, 0, 84, 77
1, 106670, Note_on_c, 0, 60, 41
1, 106716, Note_off_c, 0, 85, 63
1, 106721, Note_off_c, 0, 60, 48
1, 106751, Note_on_c, 0, 56, 37
1, 106789, Note_off_c, 0, 84, 60
1, 106843, Note_off_c, 0, 56, 31
1, 106859, Note_on_c, 0, 51, 49
1, 106895, Note_on_c, 0, 84, 76
1, 106973, Note_on_c, 0, 56, 49
1, 106976, Note_off_c, 0, 51, 0
1, 107015, Poly_aftertouch_c, 0, 51, 0
1, 107066, Note_on_c, 0, 60, 52
1, 107069, Note_off_c, 0, 84, 63
1, 107075, Note_on_c, 0, 82, 73
1, 107133, Control_c, 0, 67, 9
1, 107134, Note_off_c, 0, 60, 58
1, 107147, Note_off_c, 0, 82, 61
1, 107147, Control_c, 0, 67, 10
1, 107162, Control_c, 0, 67, 11
1, 107163, Note_off_c, 0, 56, 42
1, 107164, Note_on_c, 0, 66, 46
1, 107177, Control_c, 0, 67, 12
1, 107192, Control_c, 0, 67, 13
1, 107195, Note_off_c, 0, 66, 55
1, 107206, Control_c, 0, 67, 14
1, 107221, Control_c, 0, 67, 15
1, 107236, Control_c, 0, 67, 16
1, 107251, Control_c, 0, 67, 16
1, 107264, Note_on_c, 0, 60, 34
1, 107265, Control_c, 0, 67, 17
1, 107280, Control_c, 0, 67, 20
1, 107295, Control_c, 0, 67, 22
1, 107310, Control_c, 0, 67, 24
1, 107319, Note_off_c, 0, 60, 40
1, 107325, Control_c, 0, 67, 27
1, 107340, Control_c, 0, 67, 30
1, 107354, Control_c, 0, 67, 33
1, 107360, Note_on_c, 0, 56, 34
1, 107369, Control_c, 0, 67, 37
1, 107384, Control_c, 0, 67, 40
1, 107399, Control_c, 0, 67, 43
1, 107414, Control_c, 0, 67, 44
1, 107429, Control_c, 0, 64, 95
1, 107438, Note_on_c, 0, 80, 65
1, 107466, Control_c, 0, 64, 94
1, 107480, Control_c, 0, 64, 94
1, 107495, Control_c, 0, 64, 93
1, 107495, Control_c, 0, 67, 44
1, 107510, Control_c, 0, 64, 92
1, 107525, Control_c, 0, 64, 91
1, 107540, Control_c, 0, 64, 91
1, 107554, Control_c, 0, 64, 90
1, 107569, Control_c, 0, 64, 89
1, 107581, Note_off_c, 0, 80, 27
1, 107584, Control_c, 0, 64, 87
1, 107597, Note_off_c, 0, 56, 39
1, 107599, Control_c, 0, 64, 83
1, 107602, Note_on_c, 0, 50, 48
1, 107614, Control_c, 0, 64, 76
1, 107615, Note_on_c, 0, 89, 71
1, 107629, Control_c, 0, 64, 68
1, 107644, Control_c, 0, 64, 61
1, 107659, Control_c, 0, 64, 49
1, 107659, Control_c, 0, 67, 44
1, 107673, Control_c, 0, 64, 31
1, 107688, Control_c, 0, 64, 0
1, 107718, Control_c, 0, 64, 21
1, 107733, Control_c, 0, 64, 37
1, 107733, Control_c, 0, 67, 43
1, 107748, Control_c, 0, 64, 52
1, 107754, Note_on_c, 0, 56, 39
1, 107763, Control_c, 0, 64, 61
1, 107763, Control_c, 0, 67, 43
1, 107778, Control_c, 0, 64, 65
1, 107793, Control_c, 0, 64, 67
1, 107808, Control_c, 0, 64, 69
1, 107822, Control_c, 0, 64, 70
1, 107823, Note_off_c, 0, 50, 33
1, 107837, Control_c, 0, 64, 73
1, 107852, Control_c, 0, 64, 76
1, 107867, Control_c, 0, 64, 79
1, 107882, Control_c, 0, 64, 81
1, 107891, Note_on_c, 0, 59, 49
1, 107896, Control_c, 0, 64, 83
1, 107896, Control_c, 0, 67, 43
1, 107911, Control_c, 0, 64, 86
1, 107911, Control_c, 0, 67, 44
1, 107924, Note_off_c, 0, 56, 34
1, 107926, Control_c, 0, 64, 88
1, 107926, Control_c, 0, 67, 44
1, 107934, Note_off_c, 0, 89, 56
1, 107941, Control_c, 0, 64, 89
1, 107941, Control_c, 0, 67, 45
1, 107944, Note_off_c, 0, 59, 59
1, 107970, Control_c, 0, 64, 89
1, 107970, Control_c, 0, 67, 45
1, 107976, Note_on_c, 0, 65, 49
1, 108000, Control_c, 0, 64, 90
1, 108014, Control_c, 0, 67, 46
1, 108016, Note_off_c, 0, 65, 51
1, 108029, Control_c, 0, 67, 48
1, 108044, Control_c, 0, 67, 53
1, 108059, Control_c, 0, 67, 57
1, 108061, Note_on_c, 0, 59, 49
1, 108074, Control_c, 0, 67, 60
1, 108089, Control_c, 0, 67, 62
1, 108103, Control_c, 0, 67, 62
1, 108106, Note_off_c, 0, 59, 56
1, 108118, Control_c, 0, 67, 63
1, 108133, Control_c, 0, 67, 63
1, 108163, Note_on_c, 0, 56, 39
1, 108163, Control_c, 0, 67, 64
1, 108177, Control_c, 0, 67, 67
1, 108200, Control_c, 0, 64, 89
1, 108200, Control_c, 0, 67, 70
1, 108215, Control_c, 0, 67, 73
1, 108229, Control_c, 0, 67, 76
1, 108240, Note_off_c, 0, 56, 41
1, 108244, Control_c, 0, 67, 79
1, 108259, Control_c, 0, 67, 82
1, 108274, Control_c, 0, 64, 89
1, 108274, Control_c, 0, 67, 84
1, 108284, Note_on_c, 0, 50, 45
1, 108289, Control_c, 0, 64, 88
1, 108289, Control_c, 0, 67, 86
1, 108303, Control_c, 0, 64, 87
1, 108303, Control_c, 0, 67, 88
1, 108318, Control_c, 0, 64, 84
1, 108318, Control_c, 0, 67, 89
1, 108333, Control_c, 0, 64, 81
1, 108333, Control_c, 0, 67, 90
1, 108344, Note_on_c, 0, 89, 67
1, 108348, Control_c, 0, 64, 75
1, 108348, Control_c, 0, 67, 92
1, 108363, Control_c, 0, 64, 69
1, 108363, Control_c, 0, 67, 95
1, 108377, Control_c, 0, 64, 61
1, 108377, Control_c, 0, 67, 97
1, 108392, Control_c, 0, 64, 49
1, 108392, Control_c, 0, 67, 98
1, 108407, Control_c, 0, 64, 30
1, 108422, Control_c, 0, 64, 0
1, 108451, Control_c, 0, 64, 13
1, 108466, Control_c, 0, 64, 29
1, 108466, Control_c, 0, 67, 98
1, 108481, Control_c, 0, 64, 44
1, 108481, Control_c, 0, 67, 99
1, 108496, Note_on_c, 0, 56, 42
1, 108496, Control_c, 0, 64, 56
1, 108496, Control_c, 0, 67, 100
1, 108511, Control_c, 0, 64, 63
1, 108526, Control_c, 0, 64, 66
1, 108541, Control_c, 0, 64, 67
1, 108556, Control_c, 0, 64, 69
1, 108556, Control_c, 0, 67, 100
1, 108571, Control_c, 0, 64, 71
1, 108586, Control_c, 0, 64, 74
1, 108586, Control_c, 0, 67, 101
1, 108595, Note_off_c, 0, 50, 33
1, 108600, Control_c, 0, 64, 77
1, 108600, Control_c, 0, 67, 101
1, 108605, Note_off_c, 0, 56, 56
1, 108615, Control_c, 0, 64, 80
1, 108615, Control_c, 0, 67, 103
1, 108630, Control_c, 0, 64, 82
1, 108630, Control_c, 0, 67, 104
1, 108632, Note_on_c, 0, 58, 42
1, 108645, Control_c, 0, 64, 83
1, 108645, Control_c, 0, 67, 106
1, 108660, Control_c, 0, 64, 85
1, 108660, Control_c, 0, 67, 109
1, 108671, Note_off_c, 0, 58, 50
1, 108675, Control_c, 0, 64, 86
1, 108675, Control_c, 0, 67, 110
1, 108687, Note_off_c, 0, 89, 56
1, 108690, Control_c, 0, 64, 86
1, 108690, Control_c, 0, 67, 111
1, 108705, Control_c, 0, 64, 87
1, 108714, Note_on_c, 0, 65, 50
1, 108719, Control_c, 0, 67, 112
1, 108734, Control_c, 0, 67, 113
1, 108749, Control_c, 0, 67, 114
1, 108758, Note_off_c, 0, 65, 45
1, 108764, Control_c, 0, 67, 115
1, 108779, Control_c, 0, 67, 115
1, 108793, Control_c, 0, 67, 116
1, 108808, Control_c, 0, 67, 117
1, 108823, Note_on_c, 0, 58, 31
1, 108823, Control_c, 0, 67, 118
1, 108860, Note_on_c, 0, 89, 67
1, 108867, Control_c, 0, 67, 118
1, 108881, Note_off_c, 0, 58, 44
1, 108882, Control_c, 0, 67, 119
1, 108897, Control_c, 0, 67, 120
1, 108905, Note_on_c, 0, 56, 39
1, 108911, Control_c, 0, 67, 121
1, 108926, Control_c, 0, 67, 121
1, 108943, Note_off_c, 0, 89, 56
1, 108993, Control_c, 0, 67, 122
1, 109008, Control_c, 0, 67, 122
1, 109023, Control_c, 0, 67, 123
1, 109038, Control_c, 0, 64, 86
1, 109052, Control_c, 0, 64, 85
1, 109067, Control_c, 0, 64, 82
1, 109080, Note_off_c, 0, 56, 41
1, 109082, Control_c, 0, 64, 79
1, 109082, Control_c, 0, 67, 124
1, 109091, Note_on_c, 0, 89, 63
1, 109097, Control_c, 0, 64, 72
1, 109098, Note_on_c, 0, 51, 48
1, 109112, Control_c, 0, 64, 64
1, 109112, Control_c, 0, 67, 125
1, 109126, Control_c, 0, 64, 48
1, 109141, Control_c, 0, 64, 27
1, 109156, Control_c, 0, 64, 20
1, 109171, Control_c, 0, 64, 34
1, 109186, Control_c, 0, 64, 51
1, 109200, Control_c, 0, 64, 61
1, 109215, Control_c, 0, 64, 66
1, 109221, Note_off_c, 0, 51, 54
1, 109225, Note_on_c, 0, 54, 42
1, 109230, Control_c, 0, 64, 67
1, 109244, Control_c, 0, 64, 69
1, 109259, Control_c, 0, 64, 71
1, 109274, Control_c, 0, 64, 74
1, 109274, Control_c, 0, 67, 125
1, 109278, Note_off_c, 0, 54, 53
1, 109289, Control_c, 0, 64, 77
1, 109289, Control_c, 0, 67, 126
1, 109304, Control_c, 0, 64, 80
1, 109304, Control_c, 0, 67, 127
1, 109316, Note_on_c, 0, 58, 49
1, 109320, Control_c, 0, 64, 82
1, 109335, Control_c, 0, 64, 83
1, 109341, Note_off_c, 0, 58, 58
1, 109349, Control_c, 0, 64, 84
1, 109364, Control_c, 0, 64, 84
1, 109379, Control_c, 0, 64, 85
1, 109391, Note_on_c, 0, 63, 45
1, 109409, Control_c, 0, 64, 85
1, 109418, Note_off_c, 0, 63, 58
1, 109434, Note_on_c, 0, 58, 51
1, 109456, Note_off_c, 0, 58, 63
1, 109483, Control_c, 0, 64, 85
1, 109486, Note_on_c, 0, 54, 48
1, 109513, Note_off_c, 0, 54, 58
1, 109605, Note_on_c, 0, 42, 45
1, 109638, Note_off_c, 0, 42, 52
1, 109641, Note_on_c, 0, 87, 66
1, 109723, Note_off_c, 0, 89, 30
1, 109757, Control_c, 0, 64, 84
1, 109775, Note_on_c, 0, 54, 21
1, 109814, Note_off_c, 0, 54, 55
1, 109831, Note_on_c, 0, 85, 69
1, 109838, Note_on_c, 0, 58, 37
1, 109844, Note_off_c, 0, 87, 59
1, 109861, Control_c, 0, 64, 84
1, 109869, Note_off_c, 0, 58, 45
1, 109963, Note_on_c, 0, 58, 50
1, 109987, Note_off_c, 0, 58, 61
1, 109990, Note_on_c, 0, 82, 70
1, 110001, Note_off_c, 0, 85, 62
1, 110023, Control_c, 0, 64, 83
1, 110053, Control_c, 0, 64, 83
1, 110058, Note_on_c, 0, 54, 36
1, 110094, Note_off_c, 0, 54, 49
1, 110113, Control_c, 0, 64, 82
1, 110128, Control_c, 0, 64, 80
1, 110143, Control_c, 0, 64, 77
1, 110156, Note_on_c, 0, 44, 49
1, 110157, Control_c, 0, 64, 71
1, 110161, Note_on_c, 0, 84, 69
1, 110168, Note_off_c, 0, 82, 62
1, 110172, Control_c, 0, 64, 63
1, 110187, Control_c, 0, 64, 52
1, 110202, Control_c, 0, 64, 30
1, 110217, Control_c, 0, 64, 0
1, 110246, Control_c, 0, 64, 33
1, 110261, Control_c, 0, 64, 50
1, 110276, Control_c, 0, 64, 59
1, 110287, Note_on_c, 0, 53, 46
1, 110288, Note_off_c, 0, 44, 58
1, 110291, Control_c, 0, 64, 64
1, 110306, Control_c, 0, 64, 67
1, 110320, Control_c, 0, 64, 70
1, 110335, Control_c, 0, 64, 73
1, 110348, Note_off_c, 0, 53, 50
1, 110350, Control_c, 0, 64, 77
1, 110365, Control_c, 0, 64, 81
1, 110380, Note_on_c, 0, 56, 42
1, 110380, Control_c, 0, 64, 85
1, 110395, Control_c, 0, 64, 88
1, 110409, Control_c, 0, 64, 91
1, 110410, Note_off_c, 0, 56, 49
1, 110425, Control_c, 0, 64, 92
1, 110428, Note_on_c, 0, 61, 54
1, 110447, Control_c, 0, 64, 93
1, 110447, Control_c, 0, 67, 126
1, 110462, Note_off_c, 0, 61, 57
1, 110462, Control_c, 0, 64, 94
1, 110462, Control_c, 0, 67, 123
1, 110477, Control_c, 0, 67, 121
1, 110491, Control_c, 0, 64, 95
1, 110491, Control_c, 0, 67, 120
1, 110498, Note_on_c, 0, 56, 61
1, 110506, Control_c, 0, 64, 95
1, 110506, Control_c, 0, 67, 119
1, 110521, Control_c, 0, 67, 118
1, 110523, Note_off_c, 0, 56, 60
1, 110536, Control_c, 0, 64, 96
1, 110536, Control_c, 0, 67, 116
1, 110548, Note_on_c, 0, 53, 42
1, 110551, Control_c, 0, 67, 116
1, 110565, Control_c, 0, 67, 115
1, 110580, Control_c, 0, 67, 113
1, 110588, Note_off_c, 0, 53, 51
1, 110595, Control_c, 0, 67, 113
1, 110610, Control_c, 0, 67, 112
1, 110619, Note_on_c, 0, 44, 56
1, 110625, Control_c, 0, 67, 110
1, 110639, Control_c, 0, 67, 109
1, 110654, Control_c, 0, 67, 108
1, 110666, Note_on_c, 0, 82, 71
1, 110669, Control_c, 0, 67, 105
1, 110681, Note_off_c, 0, 44, 56
1, 110684, Control_c, 0, 67, 103
1, 110699, Control_c, 0, 67, 102
1, 110700, Note_on_c, 0, 53, 47
1, 110714, Control_c, 0, 67, 99
1, 110729, Control_c, 0, 67, 97
1, 110744, Control_c, 0, 67, 94
1, 110759, Control_c, 0, 67, 93
1, 110773, Control_c, 0, 67, 91
1, 110775, Note_off_c, 0, 53, 55
1, 110788, Control_c, 0, 67, 89
1, 110790, Note_on_c, 0, 56, 51
1, 110803, Control_c, 0, 67, 88
1, 110817, Control_c, 0, 67, 86
1, 110824, Note_on_c, 0, 80, 76
1, 110832, Control_c, 0, 67, 84
1, 110835, Note_off_c, 0, 56, 60
1, 110847, Control_c, 0, 67, 82
1, 110862, Control_c, 0, 67, 81
1, 110877, Control_c, 0, 67, 79
1, 110879, Note_on_c, 0, 61, 53
1, 110891, Control_c, 0, 67, 77
1, 110906, Control_c, 0, 67, 74
1, 110910, Note_off_c, 0, 61, 54
1, 110922, Control_c, 0, 67, 74
1, 110938, Note_off_c, 0, 80, 58
1, 110946, Note_on_c, 0, 77, 79
1, 110951, Note_on_c, 0, 56, 52
1, 110952, Control_c, 0, 67, 73
1, 110977, Note_off_c, 0, 82, 35
1, 110979, Note_off_c, 0, 56, 62
1, 110982, Control_c, 0, 67, 72
1, 110996, Control_c, 0, 67, 72
1, 111011, Control_c, 0, 67, 70
1, 111012, Note_on_c, 0, 53, 36
1, 111026, Control_c, 0, 67, 68
1, 111040, Control_c, 0, 67, 67
1, 111048, Note_off_c, 0, 53, 51
1, 111070, Control_c, 0, 64, 95
1, 111085, Control_c, 0, 64, 93
1, 111100, Control_c, 0, 64, 89
1, 111104, Note_on_c, 0, 82, 69
1, 111108, Note_on_c, 0, 44, 57
1, 111114, Control_c, 0, 64, 81
1, 111129, Control_c, 0, 64, 69
1, 111144, Control_c, 0, 64, 57
1, 111144, Control_c, 0, 67, 66
1, 111145, Note_off_c, 0, 77, 59
1, 111159, Control_c, 0, 64, 36
1, 111159, Control_c, 0, 67, 66
1, 111173, Control_c, 0, 64, 0
1, 111173, Control_c, 0, 67, 65
1, 111195, Control_c, 0, 64, 15
1, 111195, Control_c, 0, 67, 62
1, 111210, Control_c, 0, 64, 39
1, 111210, Control_c, 0, 67, 60
1, 111217, Note_on_c, 0, 54, 48
1, 111218, Note_off_c, 0, 44, 55
1, 111225, Control_c, 0, 64, 56
1, 111225, Control_c, 0, 67, 60
1, 111239, Control_c, 0, 64, 65
1, 111239, Control_c, 0, 67, 59
1, 111254, Control_c, 0, 64, 67
1, 111260, Note_on_c, 0, 80, 71
1, 111269, Control_c, 0, 64, 69
1, 111284, Control_c, 0, 64, 71
1, 111284, Control_c, 0, 67, 59
1, 111299, Control_c, 0, 64, 73
1, 111311, Note_off_c, 0, 54, 51
1, 111312, Note_on_c, 0, 56, 49
1, 111313, Control_c, 0, 64, 75
1, 111313, Control_c, 0, 67, 57
1, 111328, Control_c, 0, 64, 79
1, 111328, Control_c, 0, 67, 56
1, 111343, Control_c, 0, 64, 81
1, 111358, Note_off_c, 0, 56, 58
1, 111358, Control_c, 0, 64, 82
1, 111373, Control_c, 0, 64, 83
1, 111396, Note_on_c, 0, 60, 49
1, 111400, Note_on_c, 0, 78, 72
1, 111403, Control_c, 0, 64, 83
1, 111403, Control_c, 0, 67, 55
1, 111406, Note_off_c, 0, 82, 22
1, 111416, Note_off_c, 0, 80, 32
1, 111424, Note_off_c, 0, 60, 55
1, 111427, Note_off_c, 0, 78, 66
1, 111432, Control_c, 0, 64, 84
1, 111481, Note_on_c, 0, 56, 33
1, 111507, Control_c, 0, 67, 56
1, 111513, Note_on_c, 0, 54, 27
1, 111521, Control_c, 0, 67, 56
1, 111523, Note_off_c, 0, 56, 40
1, 111533, Note_on_c, 0, 78, 62
1, 111536, Control_c, 0, 67, 57
1, 111549, Note_off_c, 0, 54, 52
1, 111551, Control_c, 0, 67, 58
1, 111566, Control_c, 0, 67, 59
1, 111570, Note_off_c, 0, 78, 63
1, 111581, Control_c, 0, 67, 59
1, 111586, Note_on_c, 0, 80, 62
1, 111595, Control_c, 0, 67, 60
1, 111609, Note_on_c, 0, 44, 47
1, 111610, Control_c, 0, 64, 83
1, 111610, Control_c, 0, 67, 61
1, 111623, Note_off_c, 0, 84, 41
1, 111625, Control_c, 0, 67, 61
1, 111637, Note_on_c, 0, 78, 62
1, 111654, Control_c, 0, 67, 62
1, 111662, Note_off_c, 0, 80, 56
1, 111684, Control_c, 0, 67, 63
1, 111716, Note_on_c, 0, 54, 44
1, 111730, Control_c, 0, 67, 63
1, 111755, Note_off_c, 0, 44, 30
1, 111774, Control_c, 0, 67, 64
1, 111789, Control_c, 0, 67, 64
1, 111804, Control_c, 0, 67, 65
1, 111818, Control_c, 0, 67, 65
1, 111833, Control_c, 0, 67, 66
1, 111845, Note_off_c, 0, 78, 61
1, 111848, Control_c, 0, 67, 66
1, 111856, Note_on_c, 0, 77, 64
1, 111858, Note_on_c, 0, 56, 42
1, 111887, Note_off_c, 0, 77, 67
1, 111913, Note_off_c, 0, 56, 42
1, 111920, Note_off_c, 0, 54, 26
1, 111974, Control_c, 0, 67, 67
1, 111990, Note_on_c, 0, 60, 24
1, 112018, Control_c, 0, 67, 67
1, 112033, Control_c, 0, 67, 68
1, 112046, Note_off_c, 0, 60, 41
1, 112053, Note_on_c, 0, 56, 49
1, 112062, Control_c, 0, 67, 69
1, 112077, Control_c, 0, 67, 69
1, 112122, Control_c, 0, 64, 83
1, 112125, Note_off_c, 0, 56, 33
1, 112136, Control_c, 0, 67, 70
1, 112151, Control_c, 0, 64, 82
1, 112166, Control_c, 0, 67, 70
1, 112174, Note_on_c, 0, 76, 63
1, 112181, Control_c, 0, 64, 82
1, 112181, Control_c, 0, 67, 71
1, 112195, Control_c, 0, 67, 73
1, 112202, Note_off_c, 0, 76, 66
1, 112210, Control_c, 0, 64, 81
1, 112210, Control_c, 0, 67, 74
1, 112225, Control_c, 0, 64, 81
1, 112225, Control_c, 0, 67, 75
1, 112240, Control_c, 0, 64, 79
1, 112240, Control_c, 0, 67, 76
1, 112255, Control_c, 0, 64, 78
1, 112255, Control_c, 0, 67, 78
1, 112270, Control_c, 0, 64, 75
1, 112270, Control_c, 0, 67, 80
1, 112285, Control_c, 0, 64, 70
1, 112285, Control_c, 0, 67, 82
1, 112287, Note_on_c, 0, 76, 53
1, 112299, Note_on_c, 0, 49, 47
1, 112300, Control_c, 0, 64, 64
1, 112300, Control_c, 0, 67, 84
1, 112315, Control_c, 0, 64, 55
1, 112315, Control_c, 0, 67, 85
1, 112330, Control_c, 0, 64, 36
1, 112330, Control_c, 0, 67, 86
1, 112344, Control_c, 0, 64, 0
1, 112344, Control_c, 0, 67, 87
1, 112359, Control_c, 0, 67, 89
1, 112374, Control_c, 0, 67, 90
1, 112388, Control_c, 0, 67, 92
1, 112403, Control_c, 0, 64, 17
1, 112403, Control_c, 0, 67, 94
1, 112418, Control_c, 0, 64, 38
1, 112418, Control_c, 0, 67, 95
1, 112433, Control_c, 0, 64, 56
1, 112433, Control_c, 0, 67, 96
1, 112447, Note_off_c, 0, 49, 58
1, 112448, Control_c, 0, 64, 63
1, 112448, Control_c, 0, 67, 97
1, 112454, Note_on_c, 0, 56, 46
1, 112462, Control_c, 0, 64, 66
1, 112462, Control_c, 0, 67, 98
1, 112477, Control_c, 0, 64, 67
1, 112477, Control_c, 0, 67, 101
1, 112492, Control_c, 0, 64, 68
1, 112492, Control_c, 0, 67, 103
1, 112508, Control_c, 0, 64, 69
1, 112508, Control_c, 0, 67, 106
1, 112523, Control_c, 0, 64, 72
1, 112523, Control_c, 0, 67, 108
1, 112538, Control_c, 0, 64, 75
1, 112538, Control_c, 0, 67, 110
1, 112542, Note_off_c, 0, 56, 46
1, 112553, Control_c, 0, 64, 77
1, 112553, Control_c, 0, 67, 111
1, 112567, Control_c, 0, 64, 79
1, 112567, Control_c, 0, 67, 114
1, 112574, Note_on_c, 0, 61, 41
1, 112582, Control_c, 0, 64, 80
1, 112582, Control_c, 0, 67, 117
1, 112597, Control_c, 0, 64, 82
1, 112597, Control_c, 0, 67, 119
1, 112603, Note_off_c, 0, 61, 56
1, 112611, Control_c, 0, 64, 82
1, 112611, Control_c, 0, 67, 121
1, 112626, Control_c, 0, 64, 83
1, 112644, Note_on_c, 0, 65, 43
1, 112689, Note_off_c, 0, 65, 49
1, 112724, Note_on_c, 0, 61, 46
1, 112767, Control_c, 0, 67, 121
1, 112782, Control_c, 0, 67, 122
1, 112797, Control_c, 0, 67, 123
1, 112807, Note_off_c, 0, 61, 36
1, 112812, Control_c, 0, 64, 81
1, 112812, Control_c, 0, 67, 123
1, 112826, Control_c, 0, 64, 80
1, 112826, Control_c, 0, 67, 124
1, 112839, Note_on_c, 0, 58, 37
1, 112841, Control_c, 0, 64, 78
1, 112856, Control_c, 0, 64, 74
1, 112856, Control_c, 0, 67, 124
1, 112871, Control_c, 0, 64, 68
1, 112871, Control_c, 0, 67, 125
1, 112872, Note_off_c, 0, 58, 52
1, 112885, Control_c, 0, 64, 60
1, 112900, Control_c, 0, 64, 47
1, 112903, Note_on_c, 0, 56, 43
1, 112905, Note_off_c, 0, 76, 61
1, 112912, Note_on_c, 0, 77, 50
1, 112915, Control_c, 0, 64, 26
1, 112915, Control_c, 0, 67, 125
1, 112930, Control_c, 0, 64, 0
1, 112930, Control_c, 0, 67, 126
1, 112945, Control_c, 0, 64, 19
1, 112959, Control_c, 0, 64, 37
1, 112974, Control_c, 0, 64, 53
1, 112989, Control_c, 0, 64, 62
1, 113004, Control_c, 0, 64, 66
1, 113015, Note_on_c, 0, 61, 51
1, 113018, Control_c, 0, 64, 69
1, 113028, Note_off_c, 0, 77, 65
1, 113033, Control_c, 0, 64, 73
1, 113033, Control_c, 0, 67, 127
1, 113048, Control_c, 0, 64, 75
1, 113063, Control_c, 0, 64, 77
1, 113075, Note_off_c, 0, 61, 57
1, 113078, Control_c, 0, 64, 79
1, 113093, Control_c, 0, 64, 81
1, 113108, Control_c, 0, 64, 83
1, 113123, Control_c, 0, 64, 84
1, 113123, Control_c, 0, 67, 127
1, 113131, Note_on_c, 0, 65, 34
1, 113137, Control_c, 0, 64, 85
1, 113152, Control_c, 0, 64, 85
1, 113170, Note_off_c, 0, 65, 49
1, 113197, Note_on_c, 0, 68, 45
1, 113207, Note_on_c, 0, 80, 69
1, 113211, Control_c, 0, 64, 86
1, 113222, Note_off_c, 0, 68, 58
1, 113242, Note_off_c, 0, 80, 59
1, 113258, Note_off_c, 0, 56, 39
1, 113298, Note_on_c, 0, 61, 37
1, 113300, Control_c, 0, 64, 85
1, 113313, Note_on_c, 0, 68, 43
1, 113316, Control_c, 0, 64, 84
1, 113327, Note_off_c, 0, 61, 56
1, 113331, Control_c, 0, 64, 78
1, 113346, Control_c, 0, 64, 67
1, 113356, Note_on_c, 0, 80, 65
1, 113361, Control_c, 0, 64, 54
1, 113373, Note_on_c, 0, 54, 51
1, 113376, Control_c, 0, 64, 33
1, 113390, Control_c, 0, 64, 27
1, 113405, Control_c, 0, 64, 43
1, 113416, Note_off_c, 0, 68, 40
1, 113420, Control_c, 0, 64, 60
1, 113441, Note_off_c, 0, 80, 61
1, 113441, Control_c, 0, 64, 72
1, 113456, Control_c, 0, 64, 80
1, 113471, Control_c, 0, 64, 89
1, 113486, Control_c, 0, 64, 95
1, 113496, Note_off_c, 0, 54, 56
1, 113501, Note_on_c, 0, 56, 41
1, 113501, Control_c, 0, 64, 102
1, 113516, Control_c, 0, 64, 122
1, 113531, Control_c, 0, 64, 127
1, 113539, Note_off_c, 0, 56, 52
1, 113546, Control_c, 0, 67, 126
1, 113549, Note_on_c, 0, 60, 52
1, 113561, Control_c, 0, 67, 126
1, 113576, Control_c, 0, 67, 123
1, 113584, Note_off_c, 0, 60, 62
1, 113590, Control_c, 0, 67, 120
1, 113605, Control_c, 0, 67, 119
1, 113617, Note_on_c, 0, 63, 46
1, 113620, Control_c, 0, 67, 118
1, 113635, Control_c, 0, 67, 113
1, 113645, Note_off_c, 0, 63, 56
1, 113649, Control_c, 0, 67, 113
1, 113651, Note_on_c, 0, 72, 64
1, 113664, Control_c, 0, 67, 114
1, 113681, Note_on_c, 0, 60, 43
1, 113707, Note_off_c, 0, 60, 55
1, 113708, Note_off_c, 0, 72, 0
1, 113709, Control_c, 0, 67, 113
1, 113716, Note_on_c, 0, 56, 37
1, 113723, Control_c, 0, 67, 112
1, 113745, Poly_aftertouch_c, 0, 72, 127
1, 113753, Control_c, 0, 67, 112
1, 113760, Note_off_c, 0, 56, 61
1, 113768, Control_c, 0, 67, 112
1, 113779, Poly_aftertouch_c, 0, 72, 0
1, 113787, Note_on_c, 0, 84, 77
1, 113789, Note_on_c, 0, 54, 52
1, 113827, Control_c, 0, 67, 112
1, 113841, Control_c, 0, 67, 113
1, 113856, Note_off_c, 0, 54, 55
1, 113856, Control_c, 0, 67, 113
1, 113861, Note_on_c, 0, 56, 57
1, 113871, Control_c, 0, 67, 114
1, 113886, Control_c, 0, 67, 116
1, 113900, Note_off_c, 0, 84, 65
1, 113901, Control_c, 0, 67, 117
1, 113904, Note_on_c, 0, 82, 73
1, 113906, Note_off_c, 0, 56, 55
1, 113909, Note_on_c, 0, 70, 62
1, 113915, Control_c, 0, 67, 116
1, 113926, Note_off_c, 0, 82, 67
1, 113928, Note_off_c, 0, 70, 64
1, 113930, Control_c, 0, 67, 116
1, 113936, Note_on_c, 0, 60, 50
1, 113945, Control_c, 0, 67, 115
1, 113960, Note_off_c, 0, 60, 58
1, 113960, Control_c, 0, 67, 114
1, 113975, Control_c, 0, 67, 113
1, 113987, Note_on_c, 0, 63, 53
1, 113990, Control_c, 0, 67, 112
1, 114005, Control_c, 0, 67, 111
1, 114011, Note_off_c, 0, 63, 60
1, 114020, Control_c, 0, 67, 110
1, 114034, Control_c, 0, 67, 108
1, 114036, Note_on_c, 0, 60, 51
1, 114049, Control_c, 0, 67, 108
1, 114064, Control_c, 0, 67, 107
1, 114069, Note_off_c, 0, 60, 49
1, 114079, Control_c, 0, 67, 107
1, 114094, Control_c, 0, 67, 106
1, 114109, Note_on_c, 0, 80, 80
1, 114109, Control_c, 0, 67, 104
1, 114114, Note_on_c, 0, 56, 48
1, 114122, Note_on_c, 0, 68, 63
1, 114124, Control_c, 0, 67, 103
1, 114133, Note_off_c, 0, 80, 64
1, 114139, Control_c, 0, 67, 103
1, 114140, Note_off_c, 0, 68, 66
1, 114151, Note_off_c, 0, 56, 62
1, 114154, Control_c, 0, 67, 102
1, 114169, Control_c, 0, 67, 102
1, 114183, Note_on_c, 0, 53, 57
1, 114192, Control_c, 0, 67, 101
1, 114193, Note_on_c, 0, 80, 81
1, 114207, Control_c, 0, 64, 99
1, 114207, Control_c, 0, 67, 101
1, 114218, Note_on_c, 0, 68, 68
1, 114221, Control_c, 0, 64, 77
1, 114221, Control_c, 0, 67, 100
1, 114236, Control_c, 0, 64, 61
1, 114236, Control_c, 0, 67, 99
1, 114251, Control_c, 0, 64, 40
1, 114251, Control_c, 0, 67, 99
1, 114265, Control_c, 0, 64, 34
1, 114270, Note_on_c, 0, 56, 47
1, 114280, Control_c, 0, 64, 48
1, 114280, Control_c, 0, 67, 98
1, 114295, Control_c, 0, 64, 62
1, 114310, Control_c, 0, 64, 72
1, 114325, Control_c, 0, 64, 82
1, 114339, Control_c, 0, 64, 92
1, 114339, Control_c, 0, 67, 98
1, 114341, Note_on_c, 0, 61, 64
1, 114348, Note_off_c, 0, 68, 62
1, 114354, Control_c, 0, 64, 98
1, 114369, Control_c, 0, 64, 102
1, 114379, Note_off_c, 0, 61, 63
1, 114384, Control_c, 0, 64, 108
1, 114399, Control_c, 0, 64, 120
1, 114399, Control_c, 0, 67, 97
1, 114413, Control_c, 0, 64, 127
1, 114413, Control_c, 0, 67, 95
1, 114416, Note_on_c, 0, 65, 65
1, 114428, Control_c, 0, 67, 94
1, 114443, Control_c, 0, 67, 93
1, 114444, Note_off_c, 0, 56, 31
1, 114449, Note_off_c, 0, 65, 60
1, 114449, Note_off_c, 0, 53, 57
1, 114458, Control_c, 0, 67, 91
1, 114473, Control_c, 0, 67, 90
1, 114473, Note_on_c, 0, 61, 70
1, 114488, Control_c, 0, 67, 89
1, 114503, Control_c, 0, 67, 88
1, 114514, Note_off_c, 0, 61, 58
1, 114518, Control_c, 0, 67, 85
1, 114532, Control_c, 0, 67, 83
1, 114547, Note_on_c, 0, 56, 56
1, 114547, Control_c, 0, 67, 82
1, 114586, Note_off_c, 0, 56, 62
1, 114592, Control_c, 0, 67, 81
1, 114601, Note_on_c, 0, 53, 55
1, 114607, Control_c, 0, 67, 81
1, 114621, Control_c, 0, 67, 80
1, 114624, Note_on_c, 0, 85, 82
1, 114636, Control_c, 0, 67, 79
1, 114640, Note_on_c, 0, 73, 67
1, 114651, Control_c, 0, 67, 78
1, 114656, Note_off_c, 0, 53, 63
1, 114665, Control_c, 0, 67, 77
1, 114679, Note_on_c, 0, 56, 50
1, 114680, Control_c, 0, 67, 77
1, 114695, Control_c, 0, 67, 75
1, 114707, Note_off_c, 0, 56, 62
1, 114708, Note_off_c, 0, 73, 60
1, 114710, Control_c, 0, 67, 74
1, 114725, Control_c, 0, 67, 72
1, 114730, Note_on_c, 0, 61, 61
1, 114735, Note_off_c, 0, 85, 64
1, 114739, Control_c, 0, 67, 71
1, 114754, Control_c, 0, 67, 69
1, 114768, Note_off_c, 0, 61, 61
1, 114769, Control_c, 0, 67, 65
1, 114772, Note_off_c, 0, 80, 63
1, 114783, Control_c, 0, 67, 56
1, 114798, Control_c, 0, 67, 48
1, 114805, Note_on_c, 0, 68, 66
1, 114813, Control_c, 0, 67, 41
1, 114828, Control_c, 0, 67, 39
1, 114840, Note_off_c, 0, 68, 65
1, 114857, Control_c, 0, 67, 39
1, 114864, Note_on_c, 0, 61, 67
1, 114872, Control_c, 0, 67, 38
1, 114887, Control_c, 0, 67, 37
1, 114903, Control_c, 0, 67, 35
1, 114917, Control_c, 0, 67, 34
1, 114942, Note_off_c, 0, 61, 61
1, 114947, Note_on_c, 0, 56, 57
1, 114969, Control_c, 0, 67, 34
1, 114984, Control_c, 0, 67, 33
1, 115029, Control_c, 0, 64, 124
1, 115035, Note_off_c, 0, 56, 61
1, 115036, Note_on_c, 0, 51, 64
1, 115042, Note_on_c, 0, 85, 83
1, 115043, Control_c, 0, 64, 78
1, 115051, Note_on_c, 0, 78, 66
1, 115052, Note_on_c, 0, 80, 66
1, 115056, Note_on_c, 0, 73, 58
1, 115058, Control_c, 0, 64, 55
1, 115058, Control_c, 0, 67, 32
1, 115073, Control_c, 0, 64, 0
1, 115073, Control_c, 0, 67, 32
1, 115087, Control_c, 0, 67, 30
1, 115102, Control_c, 0, 64, 41
1, 115102, Control_c, 0, 67, 28
1, 115117, Control_c, 0, 64, 65
1, 115117, Control_c, 0, 67, 27
1, 115132, Control_c, 0, 64, 82
1, 115132, Control_c, 0, 67, 25
1, 115145, Note_on_c, 0, 56, 55
1, 115147, Control_c, 0, 64, 110
1, 115147, Control_c, 0, 67, 22
1, 115161, Control_c, 0, 64, 127
1, 115161, Control_c, 0, 67, 17
1, 115175, Note_off_c, 0, 85, 62
1, 115176, Note_off_c, 0, 78, 61
1, 115176, Note_off_c, 0, 80, 61
1, 115176, Control_c, 0, 67, 0
1, 115180, Note_off_c, 0, 73, 63
1, 115192, Note_off_c, 0, 56, 60
1, 115202, Note_on_c, 0, 60, 63
1, 115247, Note_off_c, 0, 60, 58
1, 115263, Note_on_c, 0, 78, 66
1, 115264, Note_on_c, 0, 80, 66
1, 115266, Note_on_c, 0, 84, 68
1, 115269, Note_on_c, 0, 72, 64
1, 115279, Note_on_c, 0, 66, 61
1, 115281, Note_off_c, 0, 80, 66
1, 115281, Note_off_c, 0, 84, 68
1, 115287, Note_off_c, 0, 72, 65
1, 115289, Note_off_c, 0, 78, 67
1, 115303, Note_off_c, 0, 66, 65
1, 115317, Note_off_c, 0, 51, 48
1, 115336, Note_on_c, 0, 80, 89
1, 115338, Note_on_c, 0, 78, 84
1, 115339, Note_on_c, 0, 84, 80
1, 115342, Note_on_c, 0, 60, 66
1, 115346, Note_on_c, 0, 72, 72
1, 115361, Note_off_c, 0, 72, 69
1, 115365, Note_off_c, 0, 78, 62
1, 115367, Note_off_c, 0, 84, 62
1, 115380, Note_off_c, 0, 80, 62
1, 115386, Note_off_c, 0, 60, 55
1, 115413, Note_on_c, 0, 56, 50
1, 115480, Note_on_c, 0, 51, 59
1, 115486, Note_off_c, 0, 56, 62
1, 115498, Note_on_c, 0, 72, 70
1, 115499, Note_on_c, 0, 84, 86
1, 115507, Note_on_c, 0, 78, 80
1, 115510, Note_on_c, 0, 80, 69
1, 115589, Note_on_c, 0, 56, 45
1, 115600, Note_off_c, 0, 72, 63
1, 115616, Note_off_c, 0, 80, 59
1, 115618, Note_off_c, 0, 84, 60
1, 115630, Note_off_c, 0, 78, 62
1, 115632, Note_off_c, 0, 56, 59
1, 115632, Note_on_c, 0, 60, 69
1, 115674, Note_off_c, 0, 60, 59
1, 115703, Note_on_c, 0, 70, 80
1, 115706, Note_on_c, 0, 82, 77
1, 115710, Note_on_c, 0, 78, 64
1, 115716, Note_on_c, 0, 66, 67
1, 115726, Note_off_c, 0, 70, 69
1, 115727, Note_off_c, 0, 78, 66
1, 115734, Note_off_c, 0, 82, 67
1, 115743, Note_off_c, 0, 66, 67
1, 115746, Note_off_c, 0, 51, 55
1, 115781, Note_on_c, 0, 80, 78
1, 115782, Note_on_c, 0, 68, 88
1, 115782, Note_on_c, 0, 78, 88
1, 115784, Note_on_c, 0, 60, 63
1, 115802, Note_off_c, 0, 68, 71
1, 115806, Note_off_c, 0, 78, 66
1, 115814, Note_off_c, 0, 80, 62
1, 115829, Note_off_c, 0, 60, 56
1, 115851, Note_on_c, 0, 56, 56
1, 115872, Poly_aftertouch_c, 0, 70, 0
1, 115880, Note_on_c, 0, 68, 6
1, 115938, Note_off_c, 0, 68, 35
1, 115968, Note_on_c, 0, 50, 67
1, 115968, Note_off_c, 0, 56, 60
1, 116055, Note_on_c, 0, 89, 89
1, 116062, Note_on_c, 0, 80, 80
1, 116065, Note_on_c, 0, 77, 75
1, 116089, Control_c, 0, 64, 120
1, 116103, Control_c, 0, 64, 86
1, 116118, Control_c, 0, 64, 69
1, 116133, Control_c, 0, 64, 57
1, 116148, Control_c, 0, 64, 37
1, 116163, Control_c, 0, 64, 0
1, 116182, Note_on_c, 0, 56, 54
1, 116207, Control_c, 0, 64, 31
1, 116222, Control_c, 0, 64, 52
1, 116236, Control_c, 0, 64, 64
1, 116251, Control_c, 0, 64, 72
1, 116266, Control_c, 0, 64, 79
1, 116281, Control_c, 0, 64, 85
1, 116296, Control_c, 0, 64, 90
1, 116301, Note_on_c, 0, 59, 65
1, 116310, Control_c, 0, 64, 98
1, 116311, Note_off_c, 0, 50, 36
1, 116325, Control_c, 0, 64, 116
1, 116327, Note_off_c, 0, 56, 51
1, 116340, Control_c, 0, 64, 127
1, 116368, Note_off_c, 0, 59, 62
1, 116376, Note_on_c, 0, 65, 67
1, 116402, Note_off_c, 0, 77, 64
1, 116411, Note_off_c, 0, 65, 62
1, 116418, Note_off_c, 0, 89, 64
1, 116445, Note_off_c, 0, 80, 60
1, 116456, Note_on_c, 0, 59, 61
1, 116503, Note_off_c, 0, 59, 65
1, 116518, Note_on_c, 0, 56, 58
1, 116575, Note_off_c, 0, 56, 55
1, 116606, Note_on_c, 0, 50, 64
1, 116661, Note_on_c, 0, 89, 83
1, 116671, Note_on_c, 0, 80, 75
1, 116673, Control_c, 0, 64, 98
1, 116677, Note_on_c, 0, 77, 66
1, 116688, Control_c, 0, 64, 74
1, 116703, Control_c, 0, 64, 58
1, 116718, Control_c, 0, 64, 23
1, 116732, Control_c, 0, 64, 0
1, 116777, Control_c, 0, 64, 38
1, 116792, Control_c, 0, 64, 57
1, 116803, Note_on_c, 0, 56, 47
1, 116807, Control_c, 0, 64, 66
1, 116822, Control_c, 0, 64, 73
1, 116837, Control_c, 0, 64, 79
1, 116851, Control_c, 0, 64, 85
1, 116866, Control_c, 0, 64, 91
1, 116881, Control_c, 0, 64, 102
1, 116896, Control_c, 0, 64, 127
1, 116913, Note_off_c, 0, 50, 33
1, 116926, Note_on_c, 0, 58, 48
1, 116982, Note_off_c, 0, 56, 27
1, 116995, Note_off_c, 0, 58, 60
1, 117025, Note_off_c, 0, 80, 59
1, 117026, Note_on_c, 0, 65, 53
1, 117028, Note_off_c, 0, 77, 62
1, 117042, Note_off_c, 0, 89, 55
1, 117076, Note_off_c, 0, 65, 43
1, 117145, Note_on_c, 0, 89, 80
1, 117147, Note_on_c, 0, 58, 38
1, 117153, Note_on_c, 0, 80, 63
1, 117162, Note_on_c, 0, 77, 58
1, 117209, Note_off_c, 0, 58, 55
1, 117236, Note_on_c, 0, 56, 37
1, 117307, Note_off_c, 0, 80, 59
1, 117313, Note_off_c, 0, 77, 54
1, 117321, Note_off_c, 0, 89, 51
1, 117394, Note_off_c, 0, 56, 46
1, 117405, Note_on_c, 0, 51, 49
1, 117408, Control_c, 0, 64, 120
1, 117410, Note_on_c, 0, 89, 81
1, 117423, Control_c, 0, 64, 86
1, 117427, Note_on_c, 0, 80, 65
1, 117430, Note_on_c, 0, 77, 57
1, 117437, Control_c, 0, 64, 70
1, 117452, Control_c, 0, 64, 58
1, 117467, Control_c, 0, 64, 43
1, 117481, Control_c, 0, 64, 35
1, 117496, Control_c, 0, 64, 36
1, 117511, Control_c, 0, 64, 46
1, 117526, Control_c, 0, 64, 57
1, 117541, Control_c, 0, 64, 65
1, 117545, Note_on_c, 0, 54, 45
1, 117555, Control_c, 0, 64, 72
1, 117570, Control_c, 0, 64, 82
1, 117585, Control_c, 0, 64, 93
1, 117600, Control_c, 0, 64, 105
1, 117615, Control_c, 0, 64, 127
1, 117628, Note_off_c, 0, 89, 62
1, 117633, Note_on_c, 0, 58, 55
1, 117636, Note_off_c, 0, 54, 54
1, 117659, Note_off_c, 0, 77, 64
1, 117683, Note_off_c, 0, 58, 60
1, 117712, Note_on_c, 0, 63, 56
1, 117712, Note_off_c, 0, 80, 60
1, 117752, Note_off_c, 0, 63, 61
1, 117787, Note_on_c, 0, 58, 56
1, 117794, Note_off_c, 0, 51, 30
1, 117815, Note_off_c, 0, 58, 67
1, 117826, Note_on_c, 0, 54, 52
1, 117851, Note_off_c, 0, 54, 63
1, 117975, Note_on_c, 0, 42, 60
1, 117990, Note_on_c, 0, 87, 80
1, 118000, Note_on_c, 0, 75, 64
1, 118000, Note_on_c, 0, 78, 65
1, 118012, Note_off_c, 0, 42, 62
1, 118136, Note_on_c, 0, 54, 50
1, 118154, Note_off_c, 0, 87, 64
1, 118187, Note_off_c, 0, 54, 54
1, 118211, Note_off_c, 0, 75, 63
1, 118233, Note_off_c, 0, 78, 60
1, 118235, Note_on_c, 0, 58, 52
1, 118280, Note_off_c, 0, 58, 61
1, 118303, Note_on_c, 0, 85, 79
1, 118321, Note_on_c, 0, 78, 62
1, 118326, Note_on_c, 0, 73, 59
1, 118328, Note_on_c, 0, 63, 59
1, 118377, Note_off_c, 0, 63, 57
1, 118401, Note_on_c, 0, 58, 56
1, 118450, Note_off_c, 0, 73, 61
1, 118455, Note_off_c, 0, 58, 56
1, 118467, Note_off_c, 0, 78, 52
1, 118491, Note_on_c, 0, 54, 55
1, 118559, Note_on_c, 0, 78, 68
1, 118562, Note_on_c, 0, 70, 65
1, 118562, Note_on_c, 0, 82, 71
1, 118590, Note_off_c, 0, 70, 66
1, 118591, Note_off_c, 0, 85, 61
1, 118598, Note_off_c, 0, 78, 55
1, 118619, Note_off_c, 0, 54, 34
1, 118620, Note_on_c, 0, 44, 63
1, 118643, Note_on_c, 0, 84, 77
1, 118648, Note_off_c, 0, 82, 58
1, 118652, Note_on_c, 0, 72, 70
1, 118655, Note_on_c, 0, 80, 68
1, 118660, Control_c, 0, 64, 101
1, 118682, Control_c, 0, 64, 77
1, 118697, Control_c, 0, 64, 59
1, 118712, Control_c, 0, 64, 26
1, 118727, Control_c, 0, 64, 0
1, 118771, Control_c, 0, 64, 45
1, 118783, Note_on_c, 0, 53, 54
1, 118786, Control_c, 0, 64, 61
1, 118801, Control_c, 0, 64, 68
1, 118804, Note_off_c, 0, 44, 59
1, 118816, Control_c, 0, 64, 76
1, 118830, Control_c, 0, 64, 84
1, 118845, Control_c, 0, 64, 92
1, 118860, Control_c, 0, 64, 100
1, 118865, Note_off_c, 0, 53, 53
1, 118875, Control_c, 0, 64, 127
1, 118880, Note_on_c, 0, 56, 57
1, 118938, Note_off_c, 0, 56, 58
1, 118952, Note_on_c, 0, 61, 63
1, 118998, Note_off_c, 0, 61, 59
1, 119008, Note_off_c, 0, 80, 52
1, 119015, Note_off_c, 0, 72, 61
1, 119019, Note_on_c, 0, 56, 68
1, 119051, Note_off_c, 0, 56, 62
1, 119066, Note_on_c, 0, 53, 54
1, 119143, Note_off_c, 0, 53, 59
1, 119144, Note_on_c, 0, 44, 73
1, 119182, Note_on_c, 0, 82, 78
1, 119191, Note_on_c, 0, 70, 66
1, 119244, Note_off_c, 0, 84, 64
1, 119269, Note_on_c, 0, 53, 62
1, 119278, Note_off_c, 0, 44, 61
1, 119306, Note_off_c, 0, 82, 62
1, 119310, Note_off_c, 0, 70, 62
1, 119328, Note_off_c, 0, 53, 51
1, 119349, Note_on_c, 0, 56, 62
1, 119400, Note_on_c, 0, 77, 40
1, 119404, Note_on_c, 0, 80, 83
1, 119412, Note_on_c, 0, 68, 70
1, 119432, Note_off_c, 0, 56, 60
1, 119437, Note_on_c, 0, 61, 68
1, 119460, Note_off_c, 0, 68, 57
1, 119490, Note_off_c, 0, 61, 56
1, 119510, Note_off_c, 0, 77, 58
1, 119514, Note_on_c, 0, 56, 69
1, 119538, Note_off_c, 0, 80, 59
1, 119573, Note_on_c, 0, 82, 87
1, 119573, Note_off_c, 0, 56, 61
1, 119576, Note_on_c, 0, 53, 64
1, 119581, Note_on_c, 0, 77, 54
1, 119588, Note_on_c, 0, 70, 65
1, 119642, Poly_aftertouch_c, 0, 80, 127
1, 119651, Note_off_c, 0, 77, 57
1, 119660, Note_off_c, 0, 82, 62
1, 119666, Note_off_c, 0, 70, 57
1, 119678, Poly_aftertouch_c, 0, 80, 0
1, 119681, Note_off_c, 0, 53, 55
1, 119683, Note_on_c, 0, 44, 79
1, 119713, Control_c, 0, 64, 94
1, 119721, Note_on_c, 0, 83, 86
1, 119724, Note_on_c, 0, 77, 60
1, 119728, Control_c, 0, 64, 64
1, 119729, Note_on_c, 0, 71, 75
1, 119743, Control_c, 0, 64, 18
1, 119758, Control_c, 0, 64, 0
1, 119788, Control_c, 0, 64, 37
1, 119803, Control_c, 0, 64, 61
1, 119818, Control_c, 0, 64, 72
1, 119827, Note_on_c, 0, 53, 57
1, 119832, Control_c, 0, 64, 83
1, 119847, Control_c, 0, 64, 99
1, 119862, Control_c, 0, 64, 127
1, 119864, Note_off_c, 0, 44, 59
1, 119917, Note_off_c, 0, 53, 59
1, 119922, Note_on_c, 0, 56, 63
1, 119932, Note_off_c, 0, 71, 62
1, 119967, Note_off_c, 0, 56, 60
1, 119981, Note_on_c, 0, 62, 65
1, 120020, Note_off_c, 0, 77, 60
1, 120027, Note_off_c, 0, 62, 57
1, 120042, Note_on_c, 0, 56, 77
1, 120061, Note_on_c, 0, 82, 88
1, 120085, Note_on_c, 0, 70, 61
1, 120103, Note_off_c, 0, 83, 64
1, 120110, Note_off_c, 0, 56, 61
1, 120112, Note_on_c, 0, 53, 59
1, 120157, Note_off_c, 0, 70, 58
1, 120222, Note_off_c, 0, 53, 59
1, 120223, Note_on_c, 0, 44, 77
1, 120247, Note_on_c, 0, 83, 87
1, 120250, Note_on_c, 0, 77, 73
1, 120254, Note_on_c, 0, 71, 75
1, 120289, Note_off_c, 0, 82, 62
1, 120344, Note_on_c, 0, 53, 64
1, 120361, Note_off_c, 0, 44, 61
1, 120420, Note_off_c, 0, 53, 56
1, 120420, Note_on_c, 0, 56, 69
1, 120467, Note_off_c, 0, 56, 56
1, 120482, Note_on_c, 0, 62, 70
1, 120516, Note_off_c, 0, 62, 66
1, 120541, Note_on_c, 0, 56, 77
1, 120594, Note_off_c, 0, 56, 60
1, 120596, Note_on_c, 0, 53, 65
1, 120653, Note_off_c, 0, 53, 60
1, 120661, Note_on_c, 0, 44, 82
1, 120729, Note_off_c, 0, 71, 62
1, 120730, Note_on_c, 0, 53, 68
1, 120746, Note_off_c, 0, 44, 62
1, 120772, Note_off_c, 0, 77, 62
1, 120800, Note_on_c, 0, 56, 73
1, 120801, Note_off_c, 0, 53, 57
1, 120863, Note_on_c, 0, 62, 76
1, 120869, Note_off_c, 0, 56, 60
1, 120877, Note_on_c, 0, 82, 89
1, 120893, Note_on_c, 0, 70, 80
1, 120895, Note_off_c, 0, 62, 63
1, 120928, Note_off_c, 0, 83, 63
1, 120941, Note_on_c, 0, 56, 68
1, 120988, Note_off_c, 0, 70, 59
1, 120995, Poly_aftertouch_c, 0, 77, 0
1, 121000, Note_off_c, 0, 56, 62
1, 121008, Note_on_c, 0, 53, 64
1, 121073, Note_on_c, 0, 83, 90
1, 121075, Note_on_c, 0, 71, 84
1, 121081, Note_off_c, 0, 53, 61
1, 121082, Note_on_c, 0, 77, 68
1, 121085, Note_on_c, 0, 44, 83
1, 121117, Note_off_c, 0, 82, 60
1, 121129, Note_off_c, 0, 71, 63
1, 121159, Note_on_c, 0, 53, 63
1, 121165, Note_off_c, 0, 44, 62
1, 121166, Note_off_c, 0, 77, 62
1, 121207, Note_on_c, 0, 77, 68
1, 121210, Note_on_c, 0, 70, 89
1, 121213, Note_on_c, 0, 82, 86
1, 121220, Note_on_c, 0, 56, 76
1, 121224, Note_off_c, 0, 83, 66
1, 121262, Note_off_c, 0, 53, 0
1, 121265, Note_off_c, 0, 70, 62
1, 121265, Note_off_c, 0, 77, 63
1, 121290, Note_on_c, 0, 62, 72
1, 121292, Note_off_c, 0, 56, 61
1, 121296, Note_off_c, 0, 82, 57
1, 121300, Poly_aftertouch_c, 0, 53, 127
1, 121319, Note_on_c, 0, 77, 75
1, 121320, Note_on_c, 0, 83, 91
1, 121320, Note_on_c, 0, 71, 90
1, 121323, Note_off_c, 0, 62, 66
1, 121344, Poly_aftertouch_c, 0, 53, 0
1, 121345, Note_on_c, 0, 56, 71
1, 121373, Note_off_c, 0, 71, 64
1, 121382, Note_off_c, 0, 77, 65
1, 121390, Note_off_c, 0, 83, 65
1, 121398, Note_off_c, 0, 56, 63
1, 121400, Poly_aftertouch_c, 0, 82, 0
1, 121404, Note_on_c, 0, 53, 61
1, 121434, Control_c, 0, 64, 105
1, 121448, Control_c, 0, 64, 67
1, 121460, Note_on_c, 0, 83, 97
1, 121463, Note_on_c, 0, 71, 94
1, 121463, Note_on_c, 0, 78, 89
1, 121463, Control_c, 0, 64, 24
1, 121478, Control_c, 0, 64, 0
1, 121487, Note_on_c, 0, 44, 80
1, 121489, Note_off_c, 0, 53, 62
1, 121508, Control_c, 0, 64, 11
1, 121523, Control_c, 0, 64, 54
1, 121537, Note_on_c, 0, 82, 4
1, 121538, Control_c, 0, 64, 68
1, 121553, Control_c, 0, 64, 77
1, 121567, Control_c, 0, 64, 89
1, 121576, Note_on_c, 0, 51, 69
1, 121582, Control_c, 0, 64, 102
1, 121589, Note_off_c, 0, 44, 62
1, 121597, Control_c, 0, 64, 116
1, 121612, Control_c, 0, 64, 127
1, 121631, Note_off_c, 0, 71, 63
1, 121642, Note_on_c, 0, 54, 76
1, 121642, Note_off_c, 0, 82, 37
1, 121661, Note_off_c, 0, 51, 61
1, 121676, Note_off_c, 0, 78, 62
1, 121731, Note_on_c, 0, 63, 84
1, 121745, Note_off_c, 0, 54, 63
1, 121754, Note_on_c, 0, 82, 86
1, 121755, Note_on_c, 0, 70, 91
1, 121764, Note_on_c, 0, 78, 83
1, 121770, Note_off_c, 0, 83, 67
1, 121776, Note_off_c, 0, 70, 68
1, 121790, Note_off_c, 0, 63, 64
1, 121791, Note_off_c, 0, 78, 64
1, 121810, Note_on_c, 0, 54, 75
1, 121815, Note_off_c, 0, 82, 65
1, 121892, Note_on_c, 0, 51, 72
1, 121893, Note_off_c, 0, 54, 63
1, 122016, Note_off_c, 0, 51, 64
1, 122018, Note_on_c, 0, 44, 81
1, 122024, Note_on_c, 0, 94, 102
1, 122030, Note_on_c, 0, 82, 94
1, 122030, Note_on_c, 0, 90, 94
1, 122090, Note_off_c, 0, 82, 64
1, 122102, Note_off_c, 0, 44, 62
1, 122104, Note_off_c, 0, 94, 65
1, 122115, Note_on_c, 0, 51, 67
1, 122140, Note_off_c, 0, 90, 66
1, 122182, Note_on_c, 0, 54, 73
1, 122208, Note_off_c, 0, 51, 53
1, 122248, Note_off_c, 0, 54, 61
1, 122259, Note_on_c, 0, 63, 79
1, 122303, Note_off_c, 0, 63, 63
1, 122340, Note_on_c, 0, 54, 73
1, 122399, Note_off_c, 0, 54, 59
1, 122400, Note_on_c, 0, 51, 59
1, 122426, Control_c, 0, 64, 93
1, 122441, Control_c, 0, 64, 31
1, 122456, Control_c, 0, 64, 0
1, 122460, Note_on_c, 0, 44, 93
1, 122471, Note_off_c, 0, 51, 65
1, 122486, Control_c, 0, 64, 37
1, 122500, Control_c, 0, 64, 73
1, 122515, Control_c, 0, 64, 127
1, 122546, Note_on_c, 0, 51, 67
1, 122554, Note_off_c, 0, 44, 61
1, 122618, Note_on_c, 0, 54, 73
1, 122641, Note_on_c, 0, 72, 81
1, 122643, Note_on_c, 0, 78, 80
1, 122643, Note_off_c, 0, 51, 60
1, 122646, Note_on_c, 0, 84, 81
1, 122664, Note_off_c, 0, 78, 68
1, 122664, Note_off_c, 0, 72, 67
1, 122668, Note_off_c, 0, 84, 70
1, 122679, Note_off_c, 0, 54, 62
1, 122684, Note_on_c, 0, 60, 73
1, 122709, Note_on_c, 0, 72, 89
1, 122709, Note_on_c, 0, 84, 94
1, 122712, Note_on_c, 0, 78, 97
1, 122718, Note_off_c, 0, 60, 60
1, 122742, Note_off_c, 0, 72, 63
1, 122745, Note_off_c, 0, 78, 62
1, 122748, Note_off_c, 0, 84, 64
1, 122755, Note_on_c, 0, 54, 65
1, 122802, Note_off_c, 0, 54, 58
1, 122825, Note_on_c, 0, 51, 65
1, 122899, Note_on_c, 0, 84, 89
1, 122900, Note_on_c, 0, 72, 83
1, 122900, Note_off_c, 0, 51, 64
1, 122901, Note_on_c, 0, 44, 88
1, 122903, Note_on_c, 0, 78, 81
1, 122921, Note_off_c, 0, 84, 67
1, 122923, Note_off_c, 0, 78, 70
1, 122928, Note_off_c, 0, 72, 65
1, 122976, Note_on_c, 0, 51, 77
1, 122988, Note_off_c, 0, 44, 60
1, 123006, Poly_aftertouch_c, 0, 74, 0
1, 123052, Note_on_c, 0, 54, 72
1, 123061, Poly_aftertouch_c, 0, 78, 0
1, 123067, Note_off_c, 0, 51, 59
1, 123104, Note_off_c, 0, 54, 55
1, 123108, Note_on_c, 0, 60, 76
1, 123110, Note_on_c, 0, 80, 85
1, 123118, Note_on_c, 0, 77, 75
1, 123118, Note_on_c, 0, 89, 74
1, 123130, Note_off_c, 0, 80, 69
1, 123133, Note_off_c, 0, 89, 68
1, 123142, Note_off_c, 0, 77, 66
1, 123153, Note_off_c, 0, 60, 56
1, 123175, Control_c, 0, 64, 70
1, 123190, Control_c, 0, 64, 0
1, 123198, Note_on_c, 0, 75, 98
1, 123200, Note_on_c, 0, 87, 91
1, 123206, Note_on_c, 0, 51, 77
1, 123206, Note_on_c, 0, 54, 44
1, 123228, Note_off_c, 0, 51, 68
1, 123229, Note_off_c, 0, 87, 65
1, 123238, Note_off_c, 0, 54, 53
1, 123240, Note_off_c, 0, 75, 63
1, 123401, Note_on_c, 0, 85, 86
1, 123402, Note_on_c, 0, 73, 86
1, 123402, Note_on_c, 0, 77, 88
1, 123411, Note_on_c, 0, 37, 88
1, 123413, Control_c, 0, 64, 66
1, 123425, Note_off_c, 0, 73, 69
1, 123427, Control_c, 0, 64, 127
1, 123437, Note_off_c, 0, 85, 63
1, 123438, Note_off_c, 0, 77, 66
1, 123454, Note_off_c, 0, 37, 63
1, 123732, Note_on_c, 0, 44, 66
1, 123791, Note_on_c, 0, 53, 60
1, 123802, Note_off_c, 0, 44, 62
1, 123842, Note_off_c, 0, 53, 61
1, 123849, Note_on_c, 0, 61, 85
1, 123860, Note_on_c, 0, 65, 91
1, 123869, Note_off_c, 0, 61, 69
1, 123922, Note_off_c, 0, 65, 62
1, 123937, Note_on_c, 0, 61, 37
1, 123946, Note_on_c, 0, 73, 76
1, 123958, Note_off_c, 0, 61, 60
1, 123998, Control_c, 0, 64, 98
1, 124000, Note_on_c, 0, 80, 73
1, 124000, Note_off_c, 0, 73, 64
1, 124013, Control_c, 0, 64, 54
1, 124027, Note_off_c, 0, 80, 66
1, 124028, Control_c, 0, 64, 0
1, 124067, Note_on_c, 0, 77, 75
1, 124094, Note_off_c, 0, 77, 69
1, 124134, Note_on_c, 0, 85, 68
1, 124163, Note_off_c, 0, 85, 67
1, 124203, Note_on_c, 0, 94, 66
1, 124220, Note_off_c, 0, 94, 65
1, 124255, Note_on_c, 0, 92, 102
1, 124257, Note_on_c, 0, 32, 83
1, 124257, Note_on_c, 0, 84, 91
1, 124265, Control_c, 0, 64, 35
1, 124276, Note_off_c, 0, 84, 72
1, 124280, Control_c, 0, 64, 65
1, 124286, Note_off_c, 0, 92, 67
1, 124289, Note_off_c, 0, 32, 66
1, 124295, Control_c, 0, 64, 92
1, 124310, Control_c, 0, 64, 127
1, 124622, Note_on_c, 0, 44, 68
1, 124694, Note_on_c, 0, 51, 72
1, 124706, Note_off_c, 0, 44, 62
1, 124728, Note_off_c, 0, 51, 66
1, 124745, Note_on_c, 0, 60, 69
1, 124751, Note_on_c, 0, 66, 90
1, 124763, Note_off_c, 0, 60, 66
1, 124829, Note_on_c, 0, 72, 72
1, 124835, Note_off_c, 0, 66, 63
1, 124862, Poly_aftertouch_c, 0, 74, 127
1, 124869, Poly_aftertouch_c, 0, 68, 0
1, 124883, Note_off_c, 0, 72, 60
1, 124884, Note_on_c, 0, 80, 77
1, 124896, Poly_aftertouch_c, 0, 74, 0
1, 124909, Note_off_c, 0, 80, 66
1, 124941, Control_c, 0, 64, 75
1, 124955, Control_c, 0, 64, 44
1, 124960, Note_on_c, 0, 78, 76
1, 124970, Control_c, 0, 64, 0
1, 125013, Note_on_c, 0, 84, 72
1, 125025, Note_off_c, 0, 78, 59
1, 125088, Note_on_c, 0, 92, 72
1, 125088, Note_off_c, 0, 84, 65
1, 125144, Note_off_c, 0, 92, 65
1, 125156, Note_on_c, 0, 89, 88
1, 125159, Note_on_c, 0, 85, 91
1, 125174, Note_on_c, 0, 37, 82
1, 125177, Control_c, 0, 64, 42
1, 125180, Note_off_c, 0, 89, 69
1, 125192, Control_c, 0, 64, 69
1, 125195, Note_off_c, 0, 85, 66
1, 125207, Control_c, 0, 64, 127
1, 125227, Note_off_c, 0, 37, 62
1, 125541, Note_on_c, 0, 44, 65
1, 125609, Note_on_c, 0, 53, 58
1, 125618, Note_off_c, 0, 44, 62
1, 125645, Note_off_c, 0, 53, 64
1, 125648, Note_on_c, 0, 61, 84
1, 125653, Note_on_c, 0, 65, 89
1, 125670, Note_off_c, 0, 61, 68
1, 125720, Note_off_c, 0, 65, 60
1, 125731, Note_on_c, 0, 73, 74
1, 125748, Note_on_c, 0, 61, 10
1, 125788, Note_on_c, 0, 80, 75
1, 125791, Note_off_c, 0, 61, 38
1, 125796, Note_off_c, 0, 73, 63
1, 125814, Note_off_c, 0, 80, 66
1, 125856, Note_on_c, 0, 77, 79
1, 125879, Note_off_c, 0, 77, 69
1, 125896, Control_c, 0, 64, 90
1, 125911, Control_c, 0, 64, 56
1, 125923, Note_on_c, 0, 85, 69
1, 125926, Control_c, 0, 64, 0
1, 125956, Note_off_c, 0, 85, 62
1, 125987, Note_on_c, 0, 94, 70
1, 126013, Note_off_c, 0, 94, 64
1, 126054, Note_on_c, 0, 32, 86
1, 126057, Note_on_c, 0, 92, 98
1, 126058, Note_on_c, 0, 84, 92
1, 126074, Control_c, 0, 64, 64
1, 126076, Note_off_c, 0, 84, 73
1, 126077, Note_off_c, 0, 92, 68
1, 126088, Note_off_c, 0, 32, 65
1, 126089, Control_c, 0, 64, 113
1, 126104, Control_c, 0, 64, 127
1, 126215, Poly_aftertouch_c, 0, 84, 0
1, 126398, Note_on_c, 0, 44, 74
1, 126463, Note_on_c, 0, 51, 69
1, 126470, Note_off_c, 0, 44, 62
1, 126494, Note_off_c, 0, 51, 65
1, 126507, Note_on_c, 0, 60, 76
1, 126516, Note_on_c, 0, 66, 96
1, 126523, Note_off_c, 0, 60, 67
1, 126590, Note_on_c, 0, 74, 22
1, 126604, Note_on_c, 0, 72, 78
1, 126606, Note_off_c, 0, 66, 62
1, 126648, Note_off_c, 0, 74, 42
1, 126650, Note_off_c, 0, 72, 60
1, 126656, Note_on_c, 0, 80, 78
1, 126680, Note_off_c, 0, 80, 67
1, 126729, Note_on_c, 0, 78, 78
1, 126778, Control_c, 0, 64, 74
1, 126785, Note_on_c, 0, 84, 68
1, 126793, Control_c, 0, 64, 37
1, 126794, Note_off_c, 0, 78, 63
1, 126808, Control_c, 0, 64, 0
1, 126856, Note_on_c, 0, 92, 81
1, 126860, Note_off_c, 0, 84, 66
1, 126939, Note_off_c, 0, 92, 65
1, 126957, Note_on_c, 0, 89, 100
1, 126959, Note_on_c, 0, 85, 98
1, 126966, Note_on_c, 0, 25, 93
1, 126979, Control_c, 0, 64, 55
1, 126984, Note_off_c, 0, 89, 65
1, 126991, Note_off_c, 0, 85, 68
1, 126994, Control_c, 0, 64, 103
1, 127001, Note_off_c, 0, 25, 65
1, 127009, Control_c, 0, 64, 127
1, 127332, Note_on_c, 0, 44, 74
1, 127395, Note_on_c, 0, 53, 69
1, 127407, Note_off_c, 0, 44, 61
1, 127443, Note_on_c, 0, 65, 92
1, 127446, Note_on_c, 0, 61, 90
1, 127452, Note_off_c, 0, 53, 63
1, 127466, Note_off_c, 0, 61, 68
1, 127492, Note_off_c, 0, 65, 63
1, 127527, Note_on_c, 0, 73, 78
1, 127535, Note_on_c, 0, 61, 22
1, 127565, Note_off_c, 0, 61, 48
1, 127586, Note_on_c, 0, 80, 79
1, 127588, Note_off_c, 0, 73, 63
1, 127617, Note_off_c, 0, 80, 63
1, 127663, Note_on_c, 0, 77, 77
1, 127690, Note_off_c, 0, 77, 63
1, 127732, Note_on_c, 0, 85, 75
1, 127782, Note_off_c, 0, 85, 61
1, 127789, Note_on_c, 0, 92, 91
1, 127848, Note_on_c, 0, 85, 75
1, 127883, Note_off_c, 0, 92, 65
1, 127899, Note_off_c, 0, 85, 63
1, 127903, Note_on_c, 0, 77, 73
1, 127927, Note_off_c, 0, 77, 70
1, 127994, Note_on_c, 0, 80, 78
1, 128060, Note_on_c, 0, 73, 72
1, 128074, Note_off_c, 0, 80, 61
1, 128094, Note_off_c, 0, 73, 64
1, 128116, Note_on_c, 0, 65, 76
1, 128133, Note_off_c, 0, 65, 68
1, 128158, Note_on_c, 0, 68, 82
1, 128213, Note_off_c, 0, 68, 64
1, 128230, Note_on_c, 0, 61, 77
1, 128278, Note_off_c, 0, 61, 66
1, 128283, Note_on_c, 0, 53, 75
1, 128311, Note_off_c, 0, 53, 66
1, 128391, Note_on_c, 0, 56, 73
1, 128434, Note_on_c, 0, 52, 35
1, 128459, Note_on_c, 0, 49, 67
1, 128460, Control_c, 0, 64, 101
1, 128475, Control_c, 0, 64, 63
1, 128482, Note_off_c, 0, 56, 62
1, 128491, Control_c, 0, 64, 0
1, 128502, Note_off_c, 0, 49, 65
1, 128505, Note_on_c, 0, 41, 74
1, 128527, Note_off_c, 0, 52, 34
1, 128539, Note_off_c, 0, 41, 60
1, 128579, Note_on_c, 0, 49, 75
1, 128611, Note_off_c, 0, 49, 66
1, 128662, Note_on_c, 0, 37, 89
1, 128665, Note_on_c, 0, 25, 83
1, 128772, Control_c, 0, 64, 14
1, 128787, Control_c, 0, 64, 53
1, 128802, Control_c, 0, 64, 70
1, 128817, Control_c, 0, 64, 93
1, 128832, Control_c, 0, 64, 127
1, 128855, Note_off_c, 0, 25, 62
1, 128896, Note_off_c, 0, 37, 61
1, 129309, Note_on_c, 0, 97, 97
1, 129312, Note_on_c, 0, 85, 91
1, 129333, Note_on_c, 0, 73, 80
1, 129342, Note_on_c, 0, 61, 64
1, 129354, Note_off_c, 0, 73, 70
1, 129367, Note_off_c, 0, 61, 65
1, 130283, Note_off_c, 0, 97, 62
1, 130334, Note_off_c, 0, 85, 59
1, 130352, Poly_aftertouch_c, 0, 92, 0
1, 130552, Control_c, 0, 64, 108
1, 130566, Control_c, 0, 64, 75
1, 130566, Control_c, 0, 67, 10
1, 130581, Control_c, 0, 64, 56
1, 130581, Control_c, 0, 67, 12
1, 130596, Control_c, 0, 64, 0
1, 130596, Control_c, 0, 67, 13
1, 130610, Control_c, 0, 67, 14
1, 130625, Control_c, 0, 67, 16
1, 130640, Control_c, 0, 67, 22
1, 130662, Control_c, 0, 67, 29
1, 130677, Control_c, 0, 67, 37
1, 130692, Control_c, 0, 67, 45
1, 130707, Control_c, 0, 67, 47
1, 130737, Control_c, 0, 67, 47
1, 130752, Control_c, 0, 67, 47
1, 130766, Control_c, 0, 67, 48
1, 130781, Control_c, 0, 67, 49
1, 130796, Control_c, 0, 67, 50
1, 130810, Control_c, 0, 67, 50
1, 130825, Control_c, 0, 67, 50
1, 130855, Control_c, 0, 67, 50
1, 130870, Control_c, 0, 67, 51
1, 130886, Control_c, 0, 67, 53
1, 130901, Control_c, 0, 67, 59
1, 130915, Control_c, 0, 67, 67
1, 130930, Control_c, 0, 67, 76
1, 130945, Control_c, 0, 67, 83
1, 130960, Control_c, 0, 67, 88
1, 130975, Control_c, 0, 67, 92
1, 130989, Control_c, 0, 67, 96
1, 131004, Control_c, 0, 67, 101
1, 131019, Control_c, 0, 67, 104
1, 131033, Control_c, 0, 67, 105
1, 131226, Control_c, 0, 67, 105
1, 131240, Control_c, 0, 67, 106
1, 131255, Note_on_c, 0, 64, 54
1, 131270, Control_c, 0, 67, 106
1, 131285, Control_c, 0, 67, 107
1, 131293, Note_on_c, 0, 61, 32
1, 131301, Note_on_c, 0, 52, 9
1, 131316, Note_on_c, 0, 33, 28
1, 131330, Control_c, 0, 67, 107
1, 131332, Note_on_c, 0, 45, 17
1, 131471, Control_c, 0, 67, 107
1, 131501, Control_c, 0, 64, 11
1, 131501, Control_c, 0, 67, 106
1, 131515, Control_c, 0, 64, 37
1, 131515, Control_c, 0, 67, 106
1, 131530, Control_c, 0, 64, 50
1, 131530, Control_c, 0, 67, 105
1, 131545, Control_c, 0, 64, 58
1, 131545, Control_c, 0, 67, 104
1, 131559, Control_c, 0, 64, 60
1, 131559, Control_c, 0, 67, 103
1, 131574, Control_c, 0, 64, 61
1, 131589, Control_c, 0, 64, 63
1, 131604, Control_c, 0, 64, 64
1, 131604, Control_c, 0, 67, 102
1, 131619, Control_c, 0, 64, 66
1, 131619, Control_c, 0, 67, 102
1, 131634, Control_c, 0, 64, 69
1, 131634, Control_c, 0, 67, 101
1, 131649, Control_c, 0, 64, 73
1, 131649, Control_c, 0, 67, 101
1, 131664, Control_c, 0, 64, 78
1, 131679, Control_c, 0, 64, 83
1, 131694, Control_c, 0, 64, 88
1, 131709, Control_c, 0, 64, 94
1, 131724, Control_c, 0, 64, 102
1, 131738, Control_c, 0, 64, 111
1, 131753, Control_c, 0, 64, 117
1, 131753, Control_c, 0, 67, 101
1, 131768, Control_c, 0, 64, 119
1, 131768, Control_c, 0, 67, 102
1, 131781, Note_off_c, 0, 52, 46
1, 131781, Note_off_c, 0, 64, 60
1, 131783, Control_c, 0, 64, 122
1, 131783, Control_c, 0, 67, 102
1, 131798, Control_c, 0, 64, 127
1, 131816, Note_off_c, 0, 45, 38
1, 131818, Note_off_c, 0, 61, 41
1, 131843, Control_c, 0, 67, 103
1, 131857, Control_c, 0, 67, 103
1, 131872, Control_c, 0, 67, 104
1, 131902, Control_c, 0, 67, 104
1, 131931, Control_c, 0, 67, 105
1, 131946, Control_c, 0, 67, 105
1, 131961, Control_c, 0, 67, 106
1, 132035, Control_c, 0, 67, 106
1, 132092, Note_on_c, 0, 66, 53
1, 132109, Control_c, 0, 64, 113
1, 132124, Control_c, 0, 64, 99
1, 132126, Note_on_c, 0, 61, 36
1, 132138, Control_c, 0, 64, 86
1, 132138, Control_c, 0, 67, 107
1, 132138, Note_off_c, 0, 33, 12
1, 132142, Note_on_c, 0, 54, 31
1, 132156, Note_on_c, 0, 38, 28
1, 132160, Control_c, 0, 64, 75
1, 132164, Note_on_c, 0, 45, 26
1, 132175, Control_c, 0, 64, 64
1, 132175, Control_c, 0, 67, 107
1, 132189, Control_c, 0, 64, 52
1, 132189, Control_c, 0, 67, 106
1, 132204, Control_c, 0, 64, 35
1, 132219, Control_c, 0, 64, 0
1, 132219, Control_c, 0, 67, 106
1, 132293, Control_c, 0, 67, 105
1, 132308, Control_c, 0, 67, 104
1, 132323, Control_c, 0, 67, 103
1, 132337, Control_c, 0, 67, 103
1, 132367, Control_c, 0, 67, 102
1, 132382, Control_c, 0, 67, 102
1, 132397, Control_c, 0, 67, 101
1, 132412, Control_c, 0, 67, 100
1, 132427, Control_c, 0, 67, 99
1, 132442, Control_c, 0, 67, 99
1, 132471, Control_c, 0, 67, 98
1, 132486, Control_c, 0, 67, 98
1, 132516, Control_c, 0, 67, 97
1, 132546, Control_c, 0, 67, 96
1, 132561, Control_c, 0, 67, 95
1, 132576, Control_c, 0, 67, 95
1, 132591, Control_c, 0, 67, 94
1, 132620, Control_c, 0, 67, 95
1, 132650, Control_c, 0, 67, 95
1, 132665, Control_c, 0, 64, 12
1, 132665, Control_c, 0, 67, 95
1, 132679, Control_c, 0, 64, 19
1, 132694, Control_c, 0, 64, 25
1, 132709, Control_c, 0, 64, 30
1, 132709, Control_c, 0, 67, 95
1, 132724, Control_c, 0, 64, 36
1, 132739, Control_c, 0, 64, 40
1, 132739, Control_c, 0, 67, 96
1, 132753, Control_c, 0, 64, 42
1, 132753, Control_c, 0, 67, 97
1, 132768, Control_c, 0, 64, 44
1, 132768, Control_c, 0, 67, 97
1, 132783, Control_c, 0, 64, 46
1, 132797, Control_c, 0, 64, 49
1, 132812, Control_c, 0, 64, 53
1, 132827, Control_c, 0, 64, 56
1, 132842, Control_c, 0, 64, 58
1, 132857, Control_c, 0, 64, 59
1, 132857, Control_c, 0, 67, 98
1, 132871, Control_c, 0, 64, 60
1, 132886, Control_c, 0, 64, 62
1, 132909, Control_c, 0, 64, 63
1, 132909, Control_c, 0, 67, 98
1, 132924, Control_c, 0, 64, 64
1, 132939, Control_c, 0, 64, 65
1, 132939, Control_c, 0, 67, 99
1, 132953, Control_c, 0, 64, 67
1, 132968, Control_c, 0, 64, 69
1, 132968, Control_c, 0, 67, 99
1, 132983, Control_c, 0, 64, 72
1, 132998, Control_c, 0, 64, 75
1, 132998, Control_c, 0, 67, 100
1, 133012, Control_c, 0, 64, 77
1, 133027, Control_c, 0, 64, 79
1, 133027, Control_c, 0, 67, 101
1, 133042, Control_c, 0, 64, 81
1, 133042, Control_c, 0, 67, 101
1, 133057, Control_c, 0, 64, 82
1, 133057, Control_c, 0, 67, 102
1, 133072, Control_c, 0, 64, 82
1, 133072, Control_c, 0, 67, 102
1, 133086, Control_c, 0, 64, 83
1, 133086, Control_c, 0, 67, 103
1, 133101, Control_c, 0, 64, 83
1, 133101, Control_c, 0, 67, 103
1, 133116, Control_c, 0, 64, 85
1, 133116, Control_c, 0, 67, 104
1, 133131, Control_c, 0, 64, 86
1, 133146, Control_c, 0, 64, 88
1, 133146, Control_c, 0, 67, 105
1, 133160, Control_c, 0, 64, 89
1, 133175, Control_c, 0, 64, 89
1, 133175, Control_c, 0, 67, 105
1, 133190, Control_c, 0, 64, 91
1, 133205, Control_c, 0, 64, 92
1, 133205, Control_c, 0, 67, 106
1, 133220, Control_c, 0, 64, 94
1, 133235, Control_c, 0, 64, 96
1, 133250, Control_c, 0, 64, 98
1, 133264, Control_c, 0, 64, 98
1, 133354, Control_c, 0, 67, 106
1, 133504, Note_on_c, 0, 59, 43
1, 133517, Control_c, 0, 67, 106
1, 133619, Note_off_c, 0, 61, 41
1, 133635, Control_c, 0, 67, 105
1, 133717, Control_c, 0, 67, 105
1, 133762, Control_c, 0, 67, 104
1, 133776, Control_c, 0, 67, 104
1, 133821, Control_c, 0, 67, 103
1, 133828, Note_on_c, 0, 61, 55
1, 133850, Control_c, 0, 67, 103
1, 133865, Control_c, 0, 67, 102
1, 133917, Note_off_c, 0, 59, 44
1, 133954, Control_c, 0, 64, 98
1, 133969, Control_c, 0, 67, 102
1, 133998, Control_c, 0, 64, 97
1, 134013, Control_c, 0, 64, 97
1, 134028, Control_c, 0, 64, 96
1, 134043, Control_c, 0, 64, 95
1, 134057, Control_c, 0, 64, 94
1, 134068, Note_on_c, 0, 64, 50
1, 134072, Control_c, 0, 64, 92
1, 134088, Control_c, 0, 64, 90
1, 134103, Control_c, 0, 64, 86
1, 134106, Note_off_c, 0, 61, 61
1, 134118, Control_c, 0, 64, 80
1, 134118, Control_c, 0, 67, 102
1, 134132, Control_c, 0, 64, 73
1, 134147, Control_c, 0, 64, 64
1, 134162, Control_c, 0, 64, 52
1, 134177, Control_c, 0, 64, 32
1, 134192, Control_c, 0, 64, 0
1, 134192, Control_c, 0, 67, 102
1, 134266, Control_c, 0, 67, 102
1, 134296, Control_c, 0, 64, 8
1, 134311, Note_on_c, 0, 62, 62
1, 134311, Control_c, 0, 64, 34
1, 134311, Control_c, 0, 67, 103
1, 134325, Control_c, 0, 64, 50
1, 134325, Control_c, 0, 67, 103
1, 134340, Control_c, 0, 64, 60
1, 134355, Control_c, 0, 64, 63
1, 134355, Control_c, 0, 67, 104
1, 134356, Note_off_c, 0, 64, 57
1, 134370, Control_c, 0, 64, 64
1, 134370, Control_c, 0, 67, 104
1, 134385, Control_c, 0, 64, 66
1, 134406, Control_c, 0, 64, 68
1, 134421, Control_c, 0, 64, 70
1, 134421, Control_c, 0, 67, 105
1, 134436, Control_c, 0, 64, 73
1, 134451, Control_c, 0, 64, 75
1, 134466, Control_c, 0, 64, 77
1, 134466, Control_c, 0, 67, 105
1, 134481, Control_c, 0, 64, 79
1, 134496, Control_c, 0, 64, 81
1, 134511, Control_c, 0, 64, 82
1, 134525, Control_c, 0, 64, 83
1, 134528, Note_on_c, 0, 61, 60
1, 134540, Control_c, 0, 64, 83
1, 134541, Note_off_c, 0, 45, 40
1, 134599, Control_c, 0, 67, 105
1, 134615, Note_off_c, 0, 62, 32
1, 134638, Note_off_c, 0, 66, 50
1, 134658, Control_c, 0, 67, 104
1, 134662, Note_off_c, 0, 54, 53
1, 134664, Note_off_c, 0, 38, 35
1, 134673, Control_c, 0, 67, 104
1, 134707, Note_off_c, 0, 61, 33
1, 134747, Control_c, 0, 67, 103
1, 134842, Note_on_c, 0, 64, 72
1, 134850, Control_c, 0, 64, 83
1, 134865, Control_c, 0, 64, 81
1, 134881, Control_c, 0, 64, 79
1, 134886, Note_on_c, 0, 61, 40
1, 134896, Control_c, 0, 64, 74
1, 134911, Control_c, 0, 64, 68
1, 134913, Note_on_c, 0, 52, 45
1, 134926, Control_c, 0, 64, 62
1, 134937, Note_on_c, 0, 33, 30
1, 134941, Control_c, 0, 64, 51
1, 134943, Note_on_c, 0, 45, 30
1, 134955, Control_c, 0, 64, 30
1, 134955, Control_c, 0, 67, 103
1, 134970, Control_c, 0, 64, 0
1, 135000, Control_c, 0, 67, 102
1, 135059, Control_c, 0, 67, 103
1, 135104, Control_c, 0, 67, 103
1, 135119, Control_c, 0, 64, 17
1, 135134, Control_c, 0, 64, 35
1, 135134, Control_c, 0, 67, 104
1, 135156, Control_c, 0, 64, 49
1, 135171, Control_c, 0, 64, 56
1, 135171, Control_c, 0, 67, 104
1, 135186, Control_c, 0, 64, 60
1, 135186, Control_c, 0, 67, 105
1, 135201, Control_c, 0, 64, 61
1, 135201, Control_c, 0, 67, 106
1, 135215, Control_c, 0, 64, 63
1, 135215, Control_c, 0, 67, 106
1, 135230, Control_c, 0, 64, 64
1, 135245, Control_c, 0, 64, 66
1, 135260, Control_c, 0, 64, 69
1, 135260, Control_c, 0, 67, 107
1, 135275, Control_c, 0, 64, 72
1, 135275, Control_c, 0, 67, 107
1, 135289, Control_c, 0, 64, 75
1, 135304, Control_c, 0, 64, 79
1, 135304, Control_c, 0, 67, 108
1, 135319, Control_c, 0, 64, 82
1, 135319, Control_c, 0, 67, 108
1, 135334, Control_c, 0, 64, 87
1, 135334, Control_c, 0, 67, 110
1, 135343, Note_off_c, 0, 64, 58
1, 135349, Control_c, 0, 64, 91
1, 135349, Control_c, 0, 67, 112
1, 135351, Note_off_c, 0, 52, 31
1, 135363, Control_c, 0, 64, 96
1, 135363, Control_c, 0, 67, 113
1, 135378, Control_c, 0, 64, 100
1, 135378, Control_c, 0, 67, 113
1, 135393, Control_c, 0, 64, 104
1, 135393, Control_c, 0, 67, 114
1, 135408, Control_c, 0, 64, 105
1, 135408, Control_c, 0, 67, 116
1, 135423, Control_c, 0, 64, 106
1, 135423, Control_c, 0, 67, 117
1, 135438, Control_c, 0, 67, 118
1, 135452, Control_c, 0, 67, 119
1, 135467, Control_c, 0, 67, 120
1, 135482, Control_c, 0, 67, 122
1, 135494, Note_off_c, 0, 61, 41
1, 135497, Control_c, 0, 67, 123
1, 135506, Note_off_c, 0, 45, 36
1, 135512, Control_c, 0, 67, 124
1, 135527, Control_c, 0, 67, 125
1, 135542, Control_c, 0, 67, 127
1, 135556, Control_c, 0, 67, 127
1, 135720, Control_c, 0, 64, 106
1, 135765, Control_c, 0, 64, 105
1, 135779, Control_c, 0, 64, 104
1, 135794, Control_c, 0, 64, 102
1, 135809, Control_c, 0, 64, 100
1, 135816, Note_on_c, 0, 66, 55
1, 135823, Control_c, 0, 64, 97
1, 135838, Control_c, 0, 64, 92
1, 135853, Control_c, 0, 64, 85
1, 135868, Control_c, 0, 64, 78
1, 135872, Note_on_c, 0, 61, 37
1, 135876, Note_on_c, 0, 45, 35
1, 135878, Note_on_c, 0, 54, 27
1, 135879, Note_on_c, 0, 38, 36
1, 135882, Control_c, 0, 64, 71
1, 135904, Control_c, 0, 64, 65
1, 135919, Control_c, 0, 64, 58
1, 135934, Control_c, 0, 64, 50
1, 135949, Control_c, 0, 64, 42
1, 135964, Control_c, 0, 64, 29
1, 135965, Note_off_c, 0, 33, 29
1, 135978, Control_c, 0, 64, 13
1, 135993, Control_c, 0, 64, 0
1, 136587, Control_c, 0, 64, 12
1, 136601, Control_c, 0, 64, 19
1, 136616, Control_c, 0, 64, 26
1, 136631, Control_c, 0, 64, 32
1, 136653, Control_c, 0, 64, 38
1, 136668, Control_c, 0, 64, 42
1, 136683, Control_c, 0, 64, 45
1, 136698, Control_c, 0, 64, 47
1, 136713, Control_c, 0, 64, 49
1, 136727, Control_c, 0, 64, 51
1, 136742, Control_c, 0, 64, 53
1, 136757, Control_c, 0, 64, 55
1, 136772, Control_c, 0, 64, 58
1, 136787, Control_c, 0, 64, 59
1, 136801, Control_c, 0, 64, 61
1, 136816, Control_c, 0, 64, 62
1, 136831, Control_c, 0, 64, 63
1, 136846, Control_c, 0, 64, 64
1, 136860, Control_c, 0, 64, 64
1, 136875, Control_c, 0, 64, 65
1, 136890, Control_c, 0, 64, 66
1, 136905, Control_c, 0, 64, 67
1, 136934, Control_c, 0, 64, 67
1, 137142, Control_c, 0, 64, 67
1, 137157, Control_c, 0, 64, 66
1, 137166, Note_on_c, 0, 59, 50
1, 137171, Control_c, 0, 64, 64
1, 137186, Control_c, 0, 64, 63
1, 137201, Control_c, 0, 64, 60
1, 137216, Control_c, 0, 64, 58
1, 137231, Control_c, 0, 64, 54
1, 137245, Control_c, 0, 64, 49
1, 137254, Note_off_c, 0, 61, 53
1, 137260, Control_c, 0, 64, 40
1, 137276, Control_c, 0, 64, 25
1, 137291, Control_c, 0, 64, 0
1, 137493, Note_on_c, 0, 61, 56
1, 137565, Note_off_c, 0, 59, 61
1, 137734, Note_on_c, 0, 64, 47
1, 137766, Note_off_c, 0, 61, 62
1, 137982, Note_on_c, 0, 62, 54
1, 138055, Note_off_c, 0, 64, 34
1, 138195, Control_c, 0, 64, 30
1, 138210, Control_c, 0, 64, 45
1, 138225, Control_c, 0, 64, 54
1, 138240, Control_c, 0, 64, 58
1, 138255, Control_c, 0, 64, 60
1, 138269, Control_c, 0, 64, 62
1, 138284, Control_c, 0, 64, 64
1, 138299, Control_c, 0, 64, 65
1, 138314, Control_c, 0, 64, 68
1, 138329, Control_c, 0, 64, 71
1, 138332, Note_off_c, 0, 38, 40
1, 138340, Note_off_c, 0, 45, 41
1, 138344, Control_c, 0, 64, 74
1, 138359, Control_c, 0, 64, 78
1, 138373, Control_c, 0, 64, 82
1, 138388, Control_c, 0, 64, 86
1, 138403, Control_c, 0, 64, 90
1, 138417, Control_c, 0, 64, 93
1, 138432, Control_c, 0, 64, 95
1, 138447, Control_c, 0, 64, 97
1, 138462, Control_c, 0, 64, 98
1, 138477, Control_c, 0, 64, 99
1, 138585, Note_off_c, 0, 62, 57
1, 138606, Note_on_c, 0, 61, 60
1, 138745, Note_off_c, 0, 66, 53
1, 138754, Note_off_c, 0, 61, 57
1, 138758, Control_c, 0, 64, 98
1, 138763, Note_off_c, 0, 54, 49
1, 138817, Control_c, 0, 64, 98
1, 138832, Control_c, 0, 64, 97
1, 138847, Control_c, 0, 64, 97
1, 138862, Control_c, 0, 64, 96
1, 138878, Control_c, 0, 64, 95
1, 138901, Control_c, 0, 64, 94
1, 138916, Control_c, 0, 64, 93
1, 138930, Control_c, 0, 64, 90
1, 138941, Note_on_c, 0, 61, 47
1, 138945, Control_c, 0, 64, 87
1, 138960, Control_c, 0, 64, 83
1, 138975, Control_c, 0, 64, 76
1, 138984, Note_on_c, 0, 64, 40
1, 138990, Note_on_c, 0, 56, 41
1, 138990, Control_c, 0, 64, 70
1, 139004, Control_c, 0, 64, 64
1, 139018, Note_on_c, 0, 40, 30
1, 139019, Control_c, 0, 64, 57
1, 139024, Note_on_c, 0, 50, 32
1, 139034, Control_c, 0, 64, 47
1, 139045, Note_off_c, 0, 64, 0
1, 139045, Note_on_c, 0, 64, 14
1, 139048, Control_c, 0, 64, 35
1, 139063, Control_c, 0, 64, 21
1, 139078, Control_c, 0, 64, 0
1, 139315, Control_c, 0, 64, 25
1, 139330, Control_c, 0, 64, 39
1, 139345, Control_c, 0, 64, 50
1, 139360, Control_c, 0, 64, 57
1, 139375, Control_c, 0, 64, 61
1, 139389, Control_c, 0, 64, 62
1, 139404, Control_c, 0, 64, 64
1, 139419, Control_c, 0, 64, 65
1, 139434, Control_c, 0, 64, 67
1, 139448, Control_c, 0, 64, 70
1, 139463, Control_c, 0, 64, 72
1, 139478, Control_c, 0, 64, 76
1, 139493, Control_c, 0, 64, 79
1, 139508, Control_c, 0, 64, 81
1, 139522, Control_c, 0, 64, 83
1, 139537, Control_c, 0, 64, 84
1, 139552, Control_c, 0, 64, 85
1, 139825, Control_c, 0, 64, 84
1, 139840, Control_c, 0, 64, 83
1, 139855, Control_c, 0, 64, 81
1, 139870, Control_c, 0, 64, 79
1, 139885, Control_c, 0, 64, 76
1, 139885, Note_on_c, 0, 59, 46
1, 139900, Control_c, 0, 64, 72
1, 139915, Control_c, 0, 64, 67
1, 139928, Note_off_c, 0, 61, 57
1, 139930, Control_c, 0, 64, 61
1, 139944, Control_c, 0, 64, 53
1, 139959, Control_c, 0, 64, 42
1, 139974, Control_c, 0, 64, 28
1, 139989, Control_c, 0, 64, 8
1, 140003, Control_c, 0, 64, 0
1, 140181, Control_c, 0, 64, 8
1, 140195, Control_c, 0, 64, 21
1, 140210, Control_c, 0, 64, 31
1, 140225, Control_c, 0, 64, 42
1, 140240, Control_c, 0, 64, 51
1, 140255, Control_c, 0, 64, 57
1, 140270, Control_c, 0, 64, 59
1, 140285, Control_c, 0, 64, 60
1, 140299, Control_c, 0, 64, 61
1, 140314, Control_c, 0, 64, 63
1, 140329, Control_c, 0, 64, 65
1, 140344, Control_c, 0, 64, 66
1, 140359, Control_c, 0, 64, 68
1, 140368, Note_off_c, 0, 40, 26
1, 140374, Control_c, 0, 64, 70
1, 140395, Control_c, 0, 64, 72
1, 140410, Control_c, 0, 64, 74
1, 140425, Control_c, 0, 64, 76
1, 140440, Control_c, 0, 64, 77
1, 140455, Control_c, 0, 64, 79
1, 140471, Control_c, 0, 64, 80
1, 140486, Control_c, 0, 64, 81
1, 140500, Control_c, 0, 64, 81
1, 140517, Note_off_c, 0, 64, 35
1, 140530, Control_c, 0, 64, 82
1, 140627, Note_off_c, 0, 59, 24
1, 140634, Note_off_c, 0, 56, 38
1, 140900, Control_c, 0, 64, 81
1, 140915, Control_c, 0, 64, 81
1, 140930, Control_c, 0, 64, 79
1, 140945, Control_c, 0, 64, 76
1, 140948, Note_on_c, 0, 57, 41
1, 140959, Control_c, 0, 64, 71
1, 140964, Note_on_c, 0, 49, 37
1, 140969, Note_on_c, 0, 45, 27
1, 140974, Control_c, 0, 64, 65
1, 140989, Control_c, 0, 64, 56
1, 141004, Control_c, 0, 64, 43
1, 141018, Control_c, 0, 64, 25
1, 141033, Control_c, 0, 64, 0
1, 141042, Note_off_c, 0, 50, 42
1, 141347, Note_on_c, 0, 61, 34
1, 141376, Note_on_c, 0, 52, 29
1, 141390, Note_off_c, 0, 57, 36
1, 141477, Note_off_c, 0, 49, 38
1, 141679, Control_c, 0, 64, 19
1, 141694, Control_c, 0, 64, 35
1, 141709, Control_c, 0, 64, 46
1, 141723, Control_c, 0, 64, 52
1, 141738, Control_c, 0, 64, 56
1, 141753, Control_c, 0, 64, 57
1, 141767, Control_c, 0, 64, 58
1, 141782, Control_c, 0, 64, 59
1, 141797, Control_c, 0, 64, 61
1, 141812, Control_c, 0, 64, 62
1, 141827, Control_c, 0, 64, 63
1, 141841, Control_c, 0, 64, 64
1, 141856, Control_c, 0, 64, 64
1, 141871, Control_c, 0, 64, 65
1, 141886, Control_c, 0, 64, 66
1, 141909, Control_c, 0, 64, 67
1, 141923, Control_c, 0, 64, 68
1, 141938, Control_c, 0, 64, 69
1, 141953, Control_c, 0, 64, 69
1, 141967, Control_c, 0, 64, 70
1, 141982, Control_c, 0, 64, 70
1, 142012, Control_c, 0, 64, 71
1, 142027, Control_c, 0, 64, 71
1, 142043, Note_off_c, 0, 52, 26
1, 142043, Note_off_c, 0, 61, 22
1, 142058, Note_off_c, 0, 45, 22
1, 142072, Control_c, 0, 64, 72
1, 142309, Control_c, 0, 64, 71
1, 142443, Control_c, 0, 64, 71
1, 142576, Control_c, 0, 64, 70
1, 142620, Control_c, 0, 64, 70
1, 142642, Control_c, 0, 64, 69
1, 142657, Control_c, 0, 64, 68
1, 142672, Control_c, 0, 64, 68
1, 142687, Control_c, 0, 64, 66
1, 142702, Control_c, 0, 64, 63
1, 142717, Control_c, 0, 64, 59
1, 142732, Control_c, 0, 64, 50
1, 142746, Control_c, 0, 64, 36
1, 142761, Control_c, 0, 64, 0
1, 143163, Note_on_c, 0, 73, 55
1, 143391, Control_c, 0, 64, 28
1, 143406, Control_c, 0, 64, 48
1, 143420, Control_c, 0, 64, 58
1, 143435, Control_c, 0, 64, 62
1, 143450, Control_c, 0, 64, 63
1, 143465, Control_c, 0, 64, 65
1, 143480, Control_c, 0, 64, 67
1, 143495, Control_c, 0, 64, 70
1, 143510, Control_c, 0, 64, 74
1, 143525, Control_c, 0, 64, 78
1, 143540, Control_c, 0, 64, 81
1, 143555, Control_c, 0, 64, 85
1, 143569, Control_c, 0, 64, 87
1, 143575, Note_off_c, 0, 73, 52
1, 143584, Control_c, 0, 64, 90
1, 143599, Control_c, 0, 64, 94
1, 143613, Control_c, 0, 64, 96
1, 143628, Control_c, 0, 64, 97
1, 143643, Control_c, 0, 64, 98
1, 143659, Control_c, 0, 64, 99
1, 143674, Control_c, 0, 64, 99
1, 143780, Note_on_c, 0, 52, 37
1, 143790, Note_on_c, 0, 55, 35
1, 143796, Note_on_c, 0, 58, 32
1, 143881, Control_c, 0, 64, 98
1, 143888, Note_off_c, 0, 52, 0
1, 143896, Control_c, 0, 64, 97
1, 143910, Control_c, 0, 64, 95
1, 143925, Note_off_c, 0, 55, 31
1, 143925, Control_c, 0, 64, 94
1, 143940, Control_c, 0, 64, 93
1, 143955, Control_c, 0, 64, 92
1, 143957, Poly_aftertouch_c, 0, 52, 0
1, 143964, Note_off_c, 0, 58, 40
1, 143969, Note_on_c, 0, 71, 49
1, 143970, Control_c, 0, 64, 91
1, 143984, Control_c, 0, 64, 89
1, 143996, Note_off_c, 0, 71, 61
1, 143999, Control_c, 0, 64, 86
1, 144014, Control_c, 0, 64, 83
1, 144029, Control_c, 0, 64, 80
1, 144033, Note_on_c, 0, 73, 51
1, 144043, Control_c, 0, 64, 77
1, 144058, Control_c, 0, 64, 73
1, 144073, Control_c, 0, 64, 69
1, 144082, Note_on_c, 0, 71, 62
1, 144082, Note_off_c, 0, 73, 58
1, 144088, Control_c, 0, 64, 64
1, 144103, Control_c, 0, 64, 56
1, 144118, Control_c, 0, 64, 48
1, 144135, Note_on_c, 0, 50, 34
1, 144139, Note_on_c, 0, 59, 33
1, 144140, Control_c, 0, 64, 34
1, 144144, Note_on_c, 0, 54, 27
1, 144155, Control_c, 0, 64, 12
1, 144169, Control_c, 0, 64, 0
1, 144258, Control_c, 0, 64, 28
1, 144273, Control_c, 0, 64, 48
1, 144288, Control_c, 0, 64, 60
1, 144303, Control_c, 0, 64, 66
1, 144318, Control_c, 0, 64, 68
1, 144318, Control_c, 0, 67, 124
1, 144333, Control_c, 0, 64, 71
1, 144333, Control_c, 0, 67, 119
1, 144347, Control_c, 0, 64, 75
1, 144347, Control_c, 0, 67, 116
1, 144362, Control_c, 0, 64, 80
1, 144362, Control_c, 0, 67, 112
1, 144377, Control_c, 0, 64, 87
1, 144377, Control_c, 0, 67, 110
1, 144392, Control_c, 0, 64, 95
1, 144401, Note_off_c, 0, 50, 37
1, 144407, Control_c, 0, 64, 105
1, 144407, Control_c, 0, 67, 110
1, 144422, Control_c, 0, 64, 112
1, 144436, Control_c, 0, 64, 124
1, 144436, Control_c, 0, 67, 109
1, 144451, Control_c, 0, 64, 127
1, 144451, Control_c, 0, 67, 106
1, 144460, Note_off_c, 0, 71, 55
1, 144464, Note_off_c, 0, 59, 45
1, 144467, Control_c, 0, 67, 105
1, 144468, Note_off_c, 0, 54, 41
1, 144482, Control_c, 0, 67, 105
1, 144497, Control_c, 0, 67, 106
1, 144526, Control_c, 0, 67, 106
1, 144541, Control_c, 0, 67, 105
1, 144565, Note_on_c, 0, 69, 67
1, 144613, Note_off_c, 0, 69, 60
1, 144630, Control_c, 0, 67, 104
1, 144645, Control_c, 0, 67, 104
1, 144657, Note_on_c, 0, 71, 78
1, 144659, Control_c, 0, 67, 103
1, 144664, Note_on_c, 0, 54, 47
1, 144673, Note_on_c, 0, 62, 56
1, 144674, Control_c, 0, 67, 102
1, 144689, Note_on_c, 0, 57, 33
1, 144704, Control_c, 0, 67, 102
1, 144719, Control_c, 0, 67, 101
1, 144725, Note_off_c, 0, 62, 60
1, 144727, Note_off_c, 0, 54, 56
1, 144733, Control_c, 0, 67, 101
1, 144748, Note_off_c, 0, 57, 45
1, 144748, Control_c, 0, 67, 99
1, 144759, Note_off_c, 0, 71, 52
1, 144763, Control_c, 0, 67, 97
1, 144777, Control_c, 0, 67, 95
1, 144792, Control_c, 0, 64, 122
1, 144792, Control_c, 0, 67, 94
1, 144807, Control_c, 0, 64, 118
1, 144822, Control_c, 0, 64, 114
1, 144822, Control_c, 0, 67, 93
1, 144837, Control_c, 0, 64, 110
1, 144851, Control_c, 0, 64, 107
1, 144866, Control_c, 0, 64, 103
1, 144889, Control_c, 0, 64, 97
1, 144904, Control_c, 0, 64, 87
1, 144911, Note_on_c, 0, 73, 71
1, 144919, Control_c, 0, 64, 77
1, 144922, Note_on_c, 0, 56, 40
1, 144933, Control_c, 0, 64, 68
1, 144939, Note_on_c, 0, 53, 43
1, 144945, Note_on_c, 0, 61, 39
1, 144948, Control_c, 0, 64, 59
1, 144963, Control_c, 0, 64, 46
1, 144978, Control_c, 0, 64, 28
1, 144992, Control_c, 0, 64, 0
1, 145016, Note_off_c, 0, 53, 0
1, 145016, Note_on_c, 0, 53, 9
1, 145022, Control_c, 0, 67, 93
1, 145066, Control_c, 0, 64, 31
1, 145081, Control_c, 0, 64, 48
1, 145096, Control_c, 0, 64, 58
1, 145111, Control_c, 0, 64, 64
1, 145126, Control_c, 0, 64, 66
1, 145140, Control_c, 0, 64, 67
1, 145155, Control_c, 0, 64, 69
1, 145170, Control_c, 0, 64, 72
1, 145174, Note_off_c, 0, 53, 42
1, 145185, Control_c, 0, 64, 75
1, 145200, Control_c, 0, 64, 78
1, 145215, Control_c, 0, 64, 81
1, 145215, Note_off_c, 0, 56, 53
1, 145230, Control_c, 0, 64, 84
1, 145242, Note_off_c, 0, 61, 51
1, 145245, Control_c, 0, 64, 85
1, 145260, Control_c, 0, 64, 86
1, 145275, Control_c, 0, 64, 87
1, 145300, Note_off_c, 0, 73, 55
1, 145334, Note_on_c, 0, 74, 67
1, 145415, Note_on_c, 0, 52, 46
1, 145420, Note_on_c, 0, 55, 39
1, 145424, Note_on_c, 0, 58, 40
1, 145424, Note_on_c, 0, 73, 69
1, 145451, Note_off_c, 0, 74, 60
1, 145453, Control_c, 0, 67, 93
1, 145456, Note_off_c, 0, 73, 62
1, 145478, Note_off_c, 0, 52, 52
1, 145483, Note_off_c, 0, 55, 40
1, 145507, Note_off_c, 0, 58, 47
1, 145571, Control_c, 0, 64, 86
1, 145586, Control_c, 0, 64, 86
1, 145594, Note_on_c, 0, 71, 63
1, 145600, Control_c, 0, 64, 85
1, 145615, Note_off_c, 0, 71, 63
1, 145616, Control_c, 0, 64, 83
1, 145638, Control_c, 0, 64, 81
1, 145650, Note_on_c, 0, 73, 63
1, 145653, Control_c, 0, 64, 77
1, 145668, Control_c, 0, 64, 72
1, 145683, Control_c, 0, 64, 64
1, 145695, Note_on_c, 0, 71, 64
1, 145698, Control_c, 0, 64, 54
1, 145707, Note_off_c, 0, 73, 62
1, 145713, Control_c, 0, 64, 26
1, 145713, Control_c, 0, 67, 93
1, 145727, Note_on_c, 0, 54, 34
1, 145728, Note_on_c, 0, 50, 37
1, 145728, Control_c, 0, 64, 0
1, 145731, Note_on_c, 0, 59, 34
1, 145757, Control_c, 0, 67, 92
1, 145772, Control_c, 0, 67, 89
1, 145787, Control_c, 0, 67, 82
1, 145802, Control_c, 0, 67, 73
1, 145816, Control_c, 0, 67, 63
1, 145831, Control_c, 0, 64, 26
1, 145831, Control_c, 0, 67, 51
1, 145846, Control_c, 0, 64, 48
1, 145846, Control_c, 0, 67, 41
1, 145861, Control_c, 0, 64, 59
1, 145861, Control_c, 0, 67, 33
1, 145876, Control_c, 0, 64, 64
1, 145876, Control_c, 0, 67, 27
1, 145890, Control_c, 0, 64, 67
1, 145890, Control_c, 0, 67, 27
1, 145905, Control_c, 0, 64, 69
1, 145905, Control_c, 0, 67, 33
1, 145920, Control_c, 0, 64, 74
1, 145920, Control_c, 0, 67, 38
1, 145934, Control_c, 0, 64, 79
1, 145934, Control_c, 0, 67, 40
1, 145949, Control_c, 0, 64, 83
1, 145949, Control_c, 0, 67, 44
1, 145964, Control_c, 0, 64, 87
1, 145964, Control_c, 0, 67, 50
1, 145979, Control_c, 0, 64, 91
1, 145979, Control_c, 0, 67, 57
1, 145994, Control_c, 0, 64, 96
1, 145994, Control_c, 0, 67, 66
1, 146008, Control_c, 0, 64, 101
1, 146008, Control_c, 0, 67, 71
1, 146023, Control_c, 0, 64, 105
1, 146023, Control_c, 0, 67, 72
1, 146038, Control_c, 0, 64, 108
1, 146044, Note_off_c, 0, 50, 42
1, 146053, Control_c, 0, 64, 109
1, 146084, Control_c, 0, 64, 109
1, 146084, Control_c, 0, 67, 73
1, 146093, Note_off_c, 0, 59, 42
1, 146094, Note_off_c, 0, 54, 48
1, 146099, Control_c, 0, 64, 111
1, 146099, Control_c, 0, 67, 73
1, 146113, Control_c, 0, 64, 113
1, 146113, Control_c, 0, 67, 74
1, 146128, Control_c, 0, 67, 79
1, 146143, Control_c, 0, 67, 87
1, 146158, Control_c, 0, 67, 94
1, 146173, Control_c, 0, 64, 113
1, 146173, Control_c, 0, 67, 97
1, 146187, Control_c, 0, 67, 98
1, 146208, Note_on_c, 0, 69, 58
1, 146211, Note_off_c, 0, 71, 58
1, 146291, Control_c, 0, 64, 113
1, 146291, Control_c, 0, 67, 98
1, 146321, Control_c, 0, 64, 112
1, 146321, Control_c, 0, 67, 99
1, 146336, Control_c, 0, 64, 108
1, 146336, Control_c, 0, 67, 100
1, 146351, Control_c, 0, 64, 101
1, 146351, Control_c, 0, 67, 101
1, 146365, Control_c, 0, 64, 93
1, 146365, Control_c, 0, 67, 102
1, 146386, Control_c, 0, 64, 84
1, 146386, Control_c, 0, 67, 103
1, 146401, Note_off_c, 0, 69, 61
1, 146401, Control_c, 0, 64, 73
1, 146401, Control_c, 0, 67, 104
1, 146407, Note_on_c, 0, 71, 55
1, 146416, Control_c, 0, 64, 61
1, 146416, Control_c, 0, 67, 106
1, 146428, Note_on_c, 0, 54, 36
1, 146431, Control_c, 0, 64, 45
1, 146431, Control_c, 0, 67, 109
1, 146433, Note_on_c, 0, 62, 41
1, 146441, Note_on_c, 0, 57, 31
1, 146446, Control_c, 0, 64, 0
1, 146446, Control_c, 0, 67, 112
1, 146461, Control_c, 0, 67, 114
1, 146476, Control_c, 0, 67, 116
1, 146491, Control_c, 0, 67, 119
1, 146506, Control_c, 0, 67, 124
1, 146520, Control_c, 0, 67, 127
1, 146535, Control_c, 0, 64, 32
1, 146550, Control_c, 0, 64, 51
1, 146565, Control_c, 0, 64, 60
1, 146580, Control_c, 0, 64, 64
1, 146594, Control_c, 0, 64, 66
1, 146609, Control_c, 0, 64, 67
1, 146624, Control_c, 0, 64, 70
1, 146638, Control_c, 0, 64, 73
1, 146644, Note_off_c, 0, 71, 61
1, 146652, Note_off_c, 0, 54, 41
1, 146653, Control_c, 0, 64, 76
1, 146668, Control_c, 0, 64, 79
1, 146683, Control_c, 0, 64, 81
1, 146698, Note_off_c, 0, 57, 41
1, 146698, Control_c, 0, 64, 84
1, 146712, Control_c, 0, 64, 87
1, 146727, Control_c, 0, 64, 89
1, 146742, Control_c, 0, 64, 91
1, 146756, Control_c, 0, 64, 92
1, 146765, Note_off_c, 0, 62, 24
1, 146786, Control_c, 0, 64, 92
1, 146801, Control_c, 0, 64, 93
1, 146816, Control_c, 0, 64, 93
1, 146935, Control_c, 0, 64, 93
1, 146947, Note_on_c, 0, 49, 35
1, 146995, Control_c, 0, 64, 92
1, 147009, Control_c, 0, 64, 91
1, 147014, Note_on_c, 0, 56, 41
1, 147024, Control_c, 0, 64, 89
1, 147039, Control_c, 0, 64, 87
1, 147054, Control_c, 0, 64, 85
1, 147069, Control_c, 0, 64, 82
1, 147084, Control_c, 0, 64, 79
1, 147099, Control_c, 0, 64, 74
1, 147108, Note_on_c, 0, 65, 39
1, 147114, Control_c, 0, 64, 68
1, 147135, Control_c, 0, 64, 62
1, 147150, Control_c, 0, 64, 54
1, 147158, Note_on_c, 0, 73, 53
1, 147165, Control_c, 0, 64, 45
1, 147180, Control_c, 0, 64, 35
1, 147194, Control_c, 0, 64, 24
1, 147207, Note_off_c, 0, 65, 0
1, 147207, Note_on_c, 0, 65, 16
1, 147209, Control_c, 0, 64, 12
1, 147224, Control_c, 0, 64, 0
1, 147358, Control_c, 0, 64, 17
1, 147373, Control_c, 0, 64, 34
1, 147387, Control_c, 0, 64, 46
1, 147402, Control_c, 0, 64, 55
1, 147417, Control_c, 0, 64, 61
1, 147432, Control_c, 0, 64, 63
1, 147447, Control_c, 0, 64, 65
1, 147461, Control_c, 0, 64, 66
1, 147476, Control_c, 0, 64, 69
1, 147491, Control_c, 0, 64, 71
1, 147506, Control_c, 0, 64, 74
1, 147510, Note_off_c, 0, 73, 62
1, 147521, Control_c, 0, 64, 78
1, 147525, Note_off_c, 0, 65, 41
1, 147535, Control_c, 0, 64, 81
1, 147545, Note_off_c, 0, 56, 30
1, 147550, Control_c, 0, 64, 84
1, 147565, Control_c, 0, 64, 86
1, 147579, Control_c, 0, 64, 87
1, 147594, Control_c, 0, 64, 88
1, 147609, Control_c, 0, 64, 89
1, 147624, Control_c, 0, 64, 89
1, 147628, Note_off_c, 0, 49, 42
1, 147639, Control_c, 0, 64, 90
1, 147670, Control_c, 0, 64, 90
1, 147693, Note_on_c, 0, 61, 45
1, 147724, Note_off_c, 0, 61, 53
1, 147786, Note_on_c, 0, 73, 45
1, 147841, Note_off_c, 0, 73, 55
1, 147862, Control_c, 0, 64, 90
1, 147866, Note_on_c, 0, 68, 51
1, 147901, Note_off_c, 0, 68, 55
1, 147954, Note_on_c, 0, 73, 55
1, 147983, Note_off_c, 0, 73, 64
1, 148032, Note_on_c, 0, 68, 37
1, 148068, Note_off_c, 0, 68, 52
1, 148124, Note_on_c, 0, 80, 49
1, 148126, Note_on_c, 0, 37, 43
1, 148159, Note_off_c, 0, 80, 49
1, 148191, Note_on_c, 0, 73, 47
1, 148219, Note_off_c, 0, 73, 56
1, 148254, Note_on_c, 0, 80, 62
1, 148285, Note_off_c, 0, 80, 65
1, 148324, Note_on_c, 0, 73, 53
1, 148329, Control_c, 0, 64, 91
1, 148344, Control_c, 0, 64, 92
1, 148357, Note_off_c, 0, 73, 65
1, 148358, Control_c, 0, 64, 94
1, 148373, Control_c, 0, 64, 94
1, 148388, Control_c, 0, 64, 95
1, 148415, Note_on_c, 0, 85, 50
1, 148452, Note_off_c, 0, 85, 55
1, 148479, Note_on_c, 0, 80, 48
1, 148518, Note_off_c, 0, 80, 52
1, 148545, Note_on_c, 0, 85, 63
1, 148567, Control_c, 0, 64, 94
1, 148580, Note_off_c, 0, 85, 62
1, 148643, Note_on_c, 0, 80, 47
1, 148646, Note_off_c, 0, 37, 39
1, 148648, Control_c, 0, 64, 94
1, 148663, Control_c, 0, 64, 93
1, 148680, Note_off_c, 0, 80, 58
1, 148707, Control_c, 0, 64, 93
1, 148726, Note_on_c, 0, 92, 57
1, 148737, Control_c, 0, 64, 92
1, 148777, Note_off_c, 0, 92, 50
1, 148796, Control_c, 0, 64, 92
1, 148834, Note_on_c, 0, 85, 33
1, 148870, Control_c, 0, 64, 91
1, 148890, Note_off_c, 0, 85, 46
1, 148905, Note_on_c, 0, 92, 50
1, 148952, Note_off_c, 0, 92, 48
1, 149016, Note_on_c, 0, 85, 46
1, 149063, Control_c, 0, 64, 91
1, 149074, Note_off_c, 0, 85, 39
1, 149264, Note_on_c, 0, 97, 39
1, 149316, Control_c, 0, 64, 90
1, 149371, Note_off_c, 0, 97, 44
1, 149753, Control_c, 0, 64, 90
1, 149812, Control_c, 0, 64, 89
1, 149856, Control_c, 0, 64, 89
1, 149886, Control_c, 0, 64, 88
1, 149901, Control_c, 0, 64, 88
1, 149916, Control_c, 0, 64, 87
1, 149931, Control_c, 0, 64, 87
1, 149961, Control_c, 0, 64, 86
1, 149975, Control_c, 0, 64, 86
1, 149990, Control_c, 0, 64, 85
1, 150005, Control_c, 0, 64, 85
1, 150020, Control_c, 0, 64, 84
1, 150035, Control_c, 0, 64, 84
1, 150050, Control_c, 0, 64, 83
1, 150065, Control_c, 0, 64, 83
1, 150080, Control_c, 0, 64, 82
1, 150095, Control_c, 0, 64, 82
1, 150110, Control_c, 0, 64, 81
1, 150132, Control_c, 0, 64, 80
1, 150147, Control_c, 0, 64, 80
1, 150161, Control_c, 0, 64, 79
1, 150191, Control_c, 0, 64, 79
1, 150205, Control_c, 0, 64, 78
1, 150220, Control_c, 0, 64, 78
1, 150235, Control_c, 0, 64, 77
1, 150250, Control_c, 0, 64, 76
1, 150265, Control_c, 0, 64, 76
1, 150279, Control_c, 0, 64, 75
1, 150294, Control_c, 0, 64, 74
1, 150309, Control_c, 0, 64, 73
1, 150324, Control_c, 0, 64, 72
1, 150339, Control_c, 0, 64, 71
1, 150354, Control_c, 0, 64, 70
1, 150369, Control_c, 0, 64, 69
1, 150384, Control_c, 0, 64, 68
1, 150398, Control_c, 0, 64, 67
1, 150413, Control_c, 0, 64, 66
1, 150428, Control_c, 0, 64, 65
1, 150443, Control_c, 0, 64, 64
1, 150458, Control_c, 0, 64, 63
1, 150487, Control_c, 0, 64, 62
1, 150502, Control_c, 0, 64, 62
1, 150517, Control_c, 0, 64, 61
1, 150532, Control_c, 0, 64, 60
1, 150546, Control_c, 0, 64, 60
1, 150561, Control_c, 0, 64, 59
1, 150576, Control_c, 0, 64, 58
1, 150591, Control_c, 0, 64, 57
1, 150605, Control_c, 0, 64, 56
1, 150620, Control_c, 0, 64, 54
1, 150635, Control_c, 0, 64, 52
1, 150650, Control_c, 0, 64, 49
1, 150665, Control_c, 0, 64, 44
1, 150679, Control_c, 0, 64, 34
1, 150694, Control_c, 0, 64, 12
1, 150709, Control_c, 0, 64, 0
1, 151001, Note_on_c, 0, 61, 73
1, 151037, Note_on_c, 0, 64, 36
1, 151049, Note_on_c, 0, 45, 35
1, 151059, Note_on_c, 0, 52, 34
1, 151324, Control_c, 0, 64, 30
1, 151339, Control_c, 0, 64, 46
1, 151354, Control_c, 0, 64, 53
1, 151368, Control_c, 0, 64, 57
1, 151383, Control_c, 0, 64, 58
1, 151398, Control_c, 0, 64, 59
1, 151413, Control_c, 0, 64, 60
1, 151427, Control_c, 0, 64, 62
1, 151442, Control_c, 0, 64, 64
1, 151457, Control_c, 0, 64, 66
1, 151472, Control_c, 0, 64, 68
1, 151487, Control_c, 0, 64, 70
1, 151502, Control_c, 0, 64, 72
1, 151517, Control_c, 0, 64, 74
1, 151531, Control_c, 0, 64, 77
1, 151546, Control_c, 0, 64, 79
1, 151561, Control_c, 0, 64, 81
1, 151576, Control_c, 0, 64, 83
1, 151591, Control_c, 0, 64, 84
1, 151591, Control_c, 0, 67, 127
1, 151605, Control_c, 0, 64, 85
1, 151627, Control_c, 0, 64, 86
1, 151717, Control_c, 0, 67, 126
1, 151865, Control_c, 0, 64, 85
1, 151880, Control_c, 0, 64, 84
1, 151895, Control_c, 0, 64, 83
1, 151910, Control_c, 0, 64, 82
1, 151913, Note_on_c, 0, 66, 44
1, 151923, Note_on_c, 0, 54, 34
1, 151924, Control_c, 0, 64, 80
1, 151934, Note_on_c, 0, 38, 36
1, 151939, Control_c, 0, 64, 78
1, 151954, Control_c, 0, 64, 75
1, 151969, Control_c, 0, 64, 72
1, 151983, Control_c, 0, 64, 68
1, 151998, Control_c, 0, 64, 64
1, 152013, Control_c, 0, 64, 59
1, 152024, Note_off_c, 0, 52, 37
1, 152028, Control_c, 0, 64, 52
1, 152030, Note_off_c, 0, 64, 43
1, 152043, Control_c, 0, 64, 42
1, 152043, Control_c, 0, 67, 126
1, 152057, Control_c, 0, 64, 30
1, 152072, Control_c, 0, 64, 15
1, 152087, Control_c, 0, 64, 0
1, 152117, Control_c, 0, 67, 125
1, 152131, Control_c, 0, 67, 124
1, 152146, Control_c, 0, 67, 124
1, 152161, Control_c, 0, 67, 123
1, 152175, Control_c, 0, 67, 122
1, 152205, Control_c, 0, 64, 13
1, 152205, Control_c, 0, 67, 121
1, 152220, Control_c, 0, 64, 23
1, 152220, Control_c, 0, 67, 120
1, 152235, Control_c, 0, 64, 32
1, 152235, Control_c, 0, 67, 119
1, 152250, Control_c, 0, 64, 41
1, 152250, Control_c, 0, 67, 118
1, 152265, Control_c, 0, 64, 47
1, 152265, Control_c, 0, 67, 118
1, 152280, Control_c, 0, 64, 51
1, 152280, Control_c, 0, 67, 117
1, 152295, Control_c, 0, 64, 53
1, 152295, Control_c, 0, 67, 116
1, 152309, Control_c, 0, 64, 55
1, 152309, Control_c, 0, 67, 115
1, 152324, Control_c, 0, 64, 56
1, 152324, Control_c, 0, 67, 113
1, 152339, Control_c, 0, 64, 57
1, 152339, Control_c, 0, 67, 110
1, 152354, Control_c, 0, 64, 59
1, 152354, Control_c, 0, 67, 109
1, 152375, Control_c, 0, 64, 60
1, 152375, Control_c, 0, 67, 107
1, 152390, Control_c, 0, 64, 61
1, 152390, Control_c, 0, 67, 105
1, 152405, Control_c, 0, 64, 62
1, 152405, Control_c, 0, 67, 102
1, 152420, Control_c, 0, 64, 62
1, 152420, Control_c, 0, 67, 101
1, 152435, Control_c, 0, 64, 63
1, 152435, Control_c, 0, 67, 100
1, 152451, Control_c, 0, 64, 64
1, 152451, Control_c, 0, 67, 98
1, 152466, Control_c, 0, 64, 64
1, 152466, Control_c, 0, 67, 97
1, 152480, Control_c, 0, 64, 65
1, 152480, Control_c, 0, 67, 95
1, 152495, Control_c, 0, 64, 66
1, 152495, Control_c, 0, 67, 94
1, 152510, Control_c, 0, 64, 66
1, 152510, Control_c, 0, 67, 92
1, 152525, Control_c, 0, 64, 67
1, 152525, Control_c, 0, 67, 92
1, 152540, Control_c, 0, 64, 68
1, 152540, Control_c, 0, 67, 91
1, 152554, Control_c, 0, 64, 69
1, 152554, Control_c, 0, 67, 90
1, 152569, Control_c, 0, 64, 70
1, 152569, Control_c, 0, 67, 88
1, 152584, Control_c, 0, 64, 71
1, 152584, Control_c, 0, 67, 87
1, 152599, Control_c, 0, 64, 71
1, 152599, Control_c, 0, 67, 85
1, 152614, Control_c, 0, 64, 72
1, 152614, Control_c, 0, 67, 84
1, 152628, Control_c, 0, 64, 74
1, 152628, Control_c, 0, 67, 82
1, 152643, Control_c, 0, 64, 75
1, 152643, Control_c, 0, 67, 79
1, 152658, Control_c, 0, 64, 76
1, 152658, Control_c, 0, 67, 77
1, 152673, Control_c, 0, 64, 78
1, 152673, Control_c, 0, 67, 74
1, 152688, Control_c, 0, 64, 79
1, 152688, Control_c, 0, 67, 71
1, 152703, Control_c, 0, 64, 80
1, 152703, Control_c, 0, 67, 67
1, 152718, Control_c, 0, 64, 81
1, 152718, Control_c, 0, 67, 62
1, 152733, Control_c, 0, 64, 82
1, 152733, Control_c, 0, 67, 56
1, 152748, Control_c, 0, 64, 83
1, 152748, Control_c, 0, 67, 50
1, 152762, Control_c, 0, 64, 84
1, 152762, Control_c, 0, 67, 45
1, 152777, Control_c, 0, 64, 85
1, 152777, Control_c, 0, 67, 40
1, 152792, Control_c, 0, 64, 85
1, 152792, Control_c, 0, 67, 35
1, 152806, Control_c, 0, 64, 86
1, 152806, Control_c, 0, 67, 30
1, 152821, Control_c, 0, 67, 25
1, 152836, Control_c, 0, 64, 86
1, 152836, Control_c, 0, 67, 21
1, 152851, Control_c, 0, 67, 16
1, 152866, Control_c, 0, 67, 12
1, 152880, Control_c, 0, 67, 8
1, 152895, Control_c, 0, 64, 87
1, 152895, Control_c, 0, 67, 0
1, 153039, Note_off_c, 0, 38, 0
1, 153076, Poly_aftertouch_c, 0, 38, 127
1, 153144, Note_on_c, 0, 59, 53
1, 153231, Note_off_c, 0, 61, 53
1, 153448, Note_on_c, 0, 61, 66
1, 153511, Control_c, 0, 64, 86
1, 153527, Note_off_c, 0, 59, 56
1, 153615, Control_c, 0, 64, 86
1, 153644, Control_c, 0, 64, 85
1, 153659, Control_c, 0, 64, 84
1, 153674, Control_c, 0, 64, 84
1, 153689, Control_c, 0, 64, 83
1, 153701, Note_on_c, 0, 64, 62
1, 153703, Control_c, 0, 64, 81
1, 153718, Control_c, 0, 64, 78
1, 153733, Control_c, 0, 64, 73
1, 153746, Note_off_c, 0, 61, 63
1, 153748, Control_c, 0, 64, 67
1, 153763, Control_c, 0, 64, 61
1, 153777, Control_c, 0, 64, 51
1, 153792, Control_c, 0, 64, 37
1, 153807, Control_c, 0, 64, 11
1, 153821, Control_c, 0, 64, 0
1, 153874, Control_c, 0, 64, 9
1, 153889, Control_c, 0, 64, 32
1, 153903, Control_c, 0, 64, 48
1, 153918, Control_c, 0, 64, 58
1, 153933, Control_c, 0, 64, 63
1, 153945, Note_on_c, 0, 62, 69
1, 153947, Control_c, 0, 64, 64
1, 153962, Control_c, 0, 64, 66
1, 153977, Control_c, 0, 64, 67
1, 153992, Control_c, 0, 64, 69
1, 154007, Control_c, 0, 64, 71
1, 154021, Control_c, 0, 64, 74
1, 154026, Note_off_c, 0, 64, 38
1, 154036, Control_c, 0, 64, 77
1, 154052, Control_c, 0, 64, 80
1, 154067, Control_c, 0, 64, 82
1, 154082, Control_c, 0, 64, 85
1, 154097, Control_c, 0, 64, 87
1, 154112, Control_c, 0, 64, 88
1, 154120, Note_off_c, 0, 45, 40
1, 154126, Control_c, 0, 64, 88
1, 154141, Control_c, 0, 64, 89
1, 154149, Note_on_c, 0, 61, 74
1, 154185, Note_off_c, 0, 62, 61
1, 154186, Control_c, 0, 64, 89
1, 154226, Poly_aftertouch_c, 0, 38, 0
1, 154238, Note_off_c, 0, 54, 53
1, 154247, Note_off_c, 0, 66, 53
1, 154289, Control_c, 0, 64, 89
1, 154291, Note_off_c, 0, 61, 56
1, 154482, Control_c, 0, 64, 88
1, 154497, Control_c, 0, 64, 86
1, 154502, Note_on_c, 0, 61, 68
1, 154512, Control_c, 0, 64, 85
1, 154526, Control_c, 0, 64, 83
1, 154536, Note_on_c, 0, 52, 44
1, 154541, Control_c, 0, 64, 80
1, 154547, Note_on_c, 0, 64, 44
1, 154556, Control_c, 0, 64, 76
1, 154570, Control_c, 0, 64, 72
1, 154583, Note_on_c, 0, 33, 33
1, 154585, Control_c, 0, 64, 68
1, 154592, Note_on_c, 0, 45, 27
1, 154600, Control_c, 0, 64, 63
1, 154623, Control_c, 0, 64, 57
1, 154638, Control_c, 0, 64, 49
1, 154652, Control_c, 0, 64, 40
1, 154667, Control_c, 0, 64, 22
1, 154682, Control_c, 0, 64, 0
1, 154800, Control_c, 0, 64, 21
1, 154815, Control_c, 0, 64, 36
1, 154830, Control_c, 0, 64, 48
1, 154846, Control_c, 0, 64, 56
1, 154861, Control_c, 0, 64, 61
1, 154875, Control_c, 0, 64, 63
1, 154890, Control_c, 0, 64, 64
1, 154905, Control_c, 0, 64, 65
1, 154920, Control_c, 0, 64, 67
1, 154935, Control_c, 0, 64, 70
1, 154949, Control_c, 0, 64, 73
1, 154964, Control_c, 0, 64, 78
1, 154979, Control_c, 0, 64, 81
1, 154994, Control_c, 0, 64, 85
1, 154998, Note_off_c, 0, 52, 51
1, 155003, Note_off_c, 0, 64, 43
1, 155009, Control_c, 0, 64, 87
1, 155019, Poly_aftertouch_c, 0, 62, 127
1, 155023, Control_c, 0, 64, 90
1, 155038, Control_c, 0, 64, 93
1, 155053, Control_c, 0, 64, 94
1, 155073, Poly_aftertouch_c, 0, 62, 0
1, 155097, Control_c, 0, 64, 94
1, 155160, Note_off_c, 0, 45, 38
1, 155231, Control_c, 0, 64, 94
1, 155335, Control_c, 0, 64, 93
1, 155349, Control_c, 0, 64, 93
1, 155371, Control_c, 0, 64, 92
1, 155386, Control_c, 0, 64, 92
1, 155401, Control_c, 0, 64, 91
1, 155416, Control_c, 0, 64, 90
1, 155430, Control_c, 0, 64, 89
1, 155445, Control_c, 0, 64, 88
1, 155460, Control_c, 0, 64, 86
1, 155475, Control_c, 0, 64, 83
1, 155490, Control_c, 0, 64, 79
1, 155493, Note_on_c, 0, 66, 47
1, 155505, Control_c, 0, 64, 76
1, 155513, Note_on_c, 0, 54, 32
1, 155520, Control_c, 0, 64, 72
1, 155528, Note_on_c, 0, 38, 34
1, 155532, Note_on_c, 0, 45, 33
1, 155535, Control_c, 0, 64, 68
1, 155549, Control_c, 0, 64, 65
1, 155562, Note_off_c, 0, 66, 0
1, 155562, Note_on_c, 0, 66, 15
1, 155564, Control_c, 0, 64, 60
1, 155565, Note_off_c, 0, 33, 28
1, 155579, Control_c, 0, 64, 55
1, 155593, Control_c, 0, 64, 51
1, 155608, Control_c, 0, 64, 45
1, 155623, Control_c, 0, 64, 36
1, 155638, Control_c, 0, 64, 21
1, 155654, Control_c, 0, 64, 0
1, 155935, Control_c, 0, 64, 12
1, 155950, Control_c, 0, 64, 28
1, 155964, Control_c, 0, 64, 42
1, 155979, Control_c, 0, 64, 49
1, 155994, Control_c, 0, 64, 52
1, 156009, Control_c, 0, 64, 53
1, 156024, Control_c, 0, 64, 54
1, 156039, Control_c, 0, 64, 55
1, 156054, Control_c, 0, 64, 56
1, 156068, Control_c, 0, 64, 59
1, 156073, Note_off_c, 0, 61, 0
1, 156083, Control_c, 0, 64, 60
1, 156098, Control_c, 0, 64, 61
1, 156110, Poly_aftertouch_c, 0, 61, 127
1, 156121, Control_c, 0, 64, 62
1, 156136, Control_c, 0, 64, 63
1, 156151, Control_c, 0, 64, 64
1, 156165, Control_c, 0, 64, 64
1, 156180, Control_c, 0, 64, 65
1, 156195, Control_c, 0, 64, 66
1, 156210, Control_c, 0, 64, 68
1, 156224, Control_c, 0, 64, 69
1, 156239, Control_c, 0, 64, 70
1, 156254, Control_c, 0, 64, 72
1, 156269, Control_c, 0, 64, 73
1, 156284, Control_c, 0, 64, 74
1, 156298, Control_c, 0, 64, 76
1, 156313, Control_c, 0, 64, 76
1, 156328, Control_c, 0, 64, 77
1, 156343, Control_c, 0, 64, 77
1, 156713, Note_on_c, 0, 59, 52
1, 156781, Poly_aftertouch_c, 0, 61, 0
1, 156884, Control_c, 0, 64, 77
1, 156958, Control_c, 0, 64, 76
1, 156972, Note_on_c, 0, 61, 63
1, 157046, Control_c, 0, 64, 76
1, 157047, Note_off_c, 0, 59, 35
1, 157106, Control_c, 0, 64, 75
1, 157150, Control_c, 0, 64, 75
1, 157180, Control_c, 0, 64, 74
1, 157195, Control_c, 0, 64, 73
1, 157210, Control_c, 0, 64, 72
1, 157214, Note_on_c, 0, 64, 49
1, 157225, Control_c, 0, 64, 71
1, 157240, Control_c, 0, 64, 68
1, 157246, Note_off_c, 0, 61, 60
1, 157255, Control_c, 0, 64, 65
1, 157270, Control_c, 0, 64, 61
1, 157285, Control_c, 0, 64, 56
1, 157300, Control_c, 0, 64, 50
1, 157314, Control_c, 0, 64, 46
1, 157329, Control_c, 0, 64, 41
1, 157344, Control_c, 0, 64, 34
1, 157359, Control_c, 0, 64, 25
1, 157374, Control_c, 0, 64, 0
1, 157467, Note_on_c, 0, 62, 51
1, 157531, Note_off_c, 0, 64, 33
1, 157751, Control_c, 0, 64, 17
1, 157766, Control_c, 0, 64, 30
1, 157781, Control_c, 0, 64, 42
1, 157781, Control_c, 0, 67, 8
1, 157795, Control_c, 0, 64, 51
1, 157795, Control_c, 0, 67, 8
1, 157810, Control_c, 0, 64, 57
1, 157810, Control_c, 0, 67, 9
1, 157825, Control_c, 0, 64, 59
1, 157825, Control_c, 0, 67, 10
1, 157840, Control_c, 0, 64, 60
1, 157840, Control_c, 0, 67, 10
1, 157855, Control_c, 0, 64, 61
1, 157855, Control_c, 0, 67, 11
1, 157869, Control_c, 0, 64, 62
1, 157869, Control_c, 0, 67, 11
1, 157884, Control_c, 0, 64, 64
1, 157884, Control_c, 0, 67, 12
1, 157899, Control_c, 0, 64, 65
1, 157899, Control_c, 0, 67, 12
1, 157914, Control_c, 0, 64, 67
1, 157914, Control_c, 0, 67, 13
1, 157929, Control_c, 0, 64, 69
1, 157929, Control_c, 0, 67, 14
1, 157943, Control_c, 0, 64, 70
1, 157943, Control_c, 0, 67, 16
1, 157958, Control_c, 0, 64, 72
1, 157958, Control_c, 0, 67, 17
1, 157973, Control_c, 0, 64, 75
1, 157973, Control_c, 0, 67, 18
1, 157988, Control_c, 0, 64, 76
1, 157988, Control_c, 0, 67, 20
1, 158003, Control_c, 0, 64, 78
1, 158003, Control_c, 0, 67, 22
1, 158018, Control_c, 0, 64, 79
1, 158018, Control_c, 0, 67, 24
1, 158033, Control_c, 0, 64, 79
1, 158033, Control_c, 0, 67, 26
1, 158048, Control_c, 0, 64, 80
1, 158048, Control_c, 0, 67, 28
1, 158062, Poly_aftertouch_c, 0, 40, 127
1, 158063, Control_c, 0, 67, 29
1, 158078, Control_c, 0, 64, 80
1, 158078, Control_c, 0, 67, 30
1, 158092, Control_c, 0, 67, 31
1, 158107, Control_c, 0, 67, 32
1, 158143, Note_off_c, 0, 62, 55
1, 158149, Note_on_c, 0, 61, 50
1, 158265, Note_off_c, 0, 66, 39
1, 158316, Note_off_c, 0, 61, 59
1, 158367, Control_c, 0, 67, 32
1, 158382, Control_c, 0, 64, 80
1, 158500, Control_c, 0, 64, 79
1, 158530, Control_c, 0, 64, 79
1, 158574, Control_c, 0, 64, 78
1, 158589, Control_c, 0, 64, 78
1, 158604, Control_c, 0, 64, 77
1, 158618, Control_c, 0, 64, 77
1, 158633, Control_c, 0, 64, 76
1, 158648, Control_c, 0, 64, 76
1, 158653, Note_on_c, 0, 61, 44
1, 158663, Control_c, 0, 64, 75
1, 158678, Control_c, 0, 64, 74
1, 158692, Control_c, 0, 64, 73
1, 158707, Control_c, 0, 64, 70
1, 158722, Control_c, 0, 64, 68
1, 158732, Note_on_c, 0, 69, 57
1, 158737, Control_c, 0, 64, 65
1, 158752, Control_c, 0, 64, 61
1, 158766, Control_c, 0, 64, 57
1, 158781, Control_c, 0, 64, 51
1, 158796, Control_c, 0, 64, 44
1, 158811, Control_c, 0, 64, 33
1, 158826, Control_c, 0, 64, 16
1, 158841, Control_c, 0, 64, 0
1, 158975, Control_c, 0, 64, 22
1, 158990, Control_c, 0, 64, 34
1, 159005, Control_c, 0, 64, 44
1, 159020, Control_c, 0, 64, 52
1, 159034, Control_c, 0, 64, 57
1, 159049, Control_c, 0, 64, 59
1, 159064, Control_c, 0, 64, 60
1, 159079, Control_c, 0, 64, 62
1, 159079, Control_c, 0, 67, 33
1, 159094, Control_c, 0, 64, 63
1, 159115, Control_c, 0, 64, 64
1, 159130, Control_c, 0, 64, 66
1, 159142, Note_on_c, 0, 66, 60
1, 159145, Control_c, 0, 64, 67
1, 159145, Control_c, 0, 67, 33
1, 159160, Control_c, 0, 64, 69
1, 159175, Control_c, 0, 64, 71
1, 159189, Control_c, 0, 64, 74
1, 159189, Control_c, 0, 67, 34
1, 159204, Control_c, 0, 64, 76
1, 159204, Control_c, 0, 67, 35
1, 159219, Control_c, 0, 64, 78
1, 159219, Control_c, 0, 67, 40
1, 159234, Control_c, 0, 64, 79
1, 159234, Control_c, 0, 67, 43
1, 159245, Note_off_c, 0, 69, 33
1, 159249, Control_c, 0, 64, 81
1, 159249, Control_c, 0, 67, 46
1, 159264, Control_c, 0, 64, 81
1, 159264, Control_c, 0, 67, 47
1, 159279, Control_c, 0, 64, 82
1, 159293, Note_off_c, 0, 54, 39
1, 159323, Control_c, 0, 64, 82
1, 159339, Note_off_c, 0, 61, 38
1, 159344, Note_off_c, 0, 38, 28
1, 159350, Poly_aftertouch_c, 0, 40, 0
1, 159382, Control_c, 0, 64, 82
1, 159393, Note_off_c, 0, 66, 59
1, 159397, Control_c, 0, 67, 47
1, 159402, Note_on_c, 0, 62, 67
1, 159456, Control_c, 0, 67, 46
1, 159501, Control_c, 0, 67, 46
1, 159589, Control_c, 0, 64, 81
1, 159604, Control_c, 0, 64, 80
1, 159619, Control_c, 0, 64, 80
1, 159635, Control_c, 0, 64, 79
1, 159637, Note_off_c, 0, 62, 57
1, 159650, Control_c, 0, 64, 77
1, 159660, Note_on_c, 0, 61, 57
1, 159664, Control_c, 0, 64, 75
1, 159672, Note_on_c, 0, 56, 53
1, 159679, Control_c, 0, 64, 72
1, 159693, Note_off_c, 0, 45, 35
1, 159694, Control_c, 0, 64, 68
1, 159700, Note_on_c, 0, 64, 31
1, 159708, Note_on_c, 0, 40, 41
1, 159709, Control_c, 0, 64, 64
1, 159724, Control_c, 0, 64, 59
1, 159726, Note_on_c, 0, 52, 30
1, 159738, Control_c, 0, 64, 51
1, 159753, Control_c, 0, 64, 42
1, 159767, Note_off_c, 0, 64, 0
1, 159768, Control_c, 0, 64, 29
1, 159783, Control_c, 0, 64, 10
1, 159798, Control_c, 0, 64, 0
1, 159804, Poly_aftertouch_c, 0, 64, 127
1, 159925, Control_c, 0, 64, 19
1, 159939, Control_c, 0, 64, 34
1, 159954, Control_c, 0, 64, 46
1, 159969, Control_c, 0, 64, 54
1, 159984, Control_c, 0, 64, 59
1, 159998, Control_c, 0, 64, 62
1, 160013, Control_c, 0, 64, 63
1, 160028, Control_c, 0, 64, 64
1, 160043, Control_c, 0, 64, 66
1, 160058, Control_c, 0, 64, 68
1, 160058, Control_c, 0, 67, 46
1, 160072, Control_c, 0, 64, 70
1, 160087, Control_c, 0, 64, 73
1, 160102, Control_c, 0, 64, 75
1, 160117, Control_c, 0, 64, 76
1, 160132, Control_c, 0, 64, 78
1, 160146, Control_c, 0, 64, 79
1, 160146, Control_c, 0, 67, 47
1, 160161, Control_c, 0, 64, 79
1, 160176, Control_c, 0, 64, 80
1, 160191, Control_c, 0, 64, 81
1, 160206, Control_c, 0, 67, 47
1, 160221, Control_c, 0, 67, 48
1, 160251, Control_c, 0, 67, 48
1, 160295, Control_c, 0, 67, 49
1, 160315, Note_off_c, 0, 52, 34
1, 160398, Control_c, 0, 67, 49
1, 160444, Control_c, 0, 64, 80
1, 160488, Control_c, 0, 64, 80
1, 160503, Control_c, 0, 64, 79
1, 160518, Control_c, 0, 64, 79
1, 160533, Control_c, 0, 64, 78
1, 160548, Control_c, 0, 64, 77
1, 160562, Control_c, 0, 64, 75
1, 160562, Control_c, 0, 67, 50
1, 160577, Control_c, 0, 64, 73
1, 160582, Note_on_c, 0, 59, 45
1, 160592, Control_c, 0, 64, 71
1, 160614, Control_c, 0, 64, 68
1, 160623, Note_on_c, 0, 50, 39
1, 160629, Control_c, 0, 64, 65
1, 160644, Control_c, 0, 64, 61
1, 160649, Note_off_c, 0, 61, 42
1, 160659, Control_c, 0, 64, 56
1, 160674, Control_c, 0, 64, 50
1, 160688, Control_c, 0, 64, 42
1, 160688, Control_c, 0, 67, 52
1, 160703, Control_c, 0, 64, 29
1, 160703, Control_c, 0, 67, 56
1, 160718, Control_c, 0, 64, 13
1, 160718, Control_c, 0, 67, 58
1, 160733, Control_c, 0, 64, 0
1, 160733, Control_c, 0, 67, 60
1, 160748, Control_c, 0, 67, 62
1, 160762, Control_c, 0, 67, 63
1, 160777, Control_c, 0, 67, 63
1, 160821, Control_c, 0, 67, 64
1, 160836, Control_c, 0, 67, 64
1, 160851, Control_c, 0, 67, 65
1, 160866, Control_c, 0, 67, 69
1, 160881, Control_c, 0, 64, 18
1, 160881, Control_c, 0, 67, 72
1, 160895, Control_c, 0, 64, 27
1, 160895, Control_c, 0, 67, 74
1, 160910, Control_c, 0, 64, 34
1, 160910, Control_c, 0, 67, 76
1, 160925, Control_c, 0, 64, 41
1, 160925, Control_c, 0, 67, 77
1, 160940, Control_c, 0, 64, 48
1, 160940, Control_c, 0, 67, 78
1, 160955, Control_c, 0, 64, 53
1, 160955, Control_c, 0, 67, 79
1, 160969, Control_c, 0, 64, 56
1, 160969, Control_c, 0, 67, 80
1, 160984, Control_c, 0, 64, 58
1, 160984, Control_c, 0, 67, 82
1, 160999, Control_c, 0, 64, 59
1, 160999, Control_c, 0, 67, 84
1, 161014, Control_c, 0, 64, 60
1, 161014, Control_c, 0, 67, 86
1, 161029, Control_c, 0, 64, 61
1, 161029, Control_c, 0, 67, 88
1, 161044, Control_c, 0, 64, 62
1, 161044, Control_c, 0, 67, 89
1, 161058, Control_c, 0, 64, 63
1, 161058, Control_c, 0, 67, 91
1, 161073, Control_c, 0, 64, 64
1, 161073, Control_c, 0, 67, 92
1, 161088, Control_c, 0, 64, 65
1, 161088, Control_c, 0, 67, 94
1, 161103, Control_c, 0, 64, 67
1, 161103, Control_c, 0, 67, 95
1, 161118, Control_c, 0, 64, 68
1, 161118, Control_c, 0, 67, 97
1, 161132, Control_c, 0, 64, 69
1, 161132, Control_c, 0, 67, 99
1, 161147, Control_c, 0, 64, 71
1, 161147, Control_c, 0, 67, 101
1, 161162, Control_c, 0, 64, 72
1, 161162, Control_c, 0, 67, 103
1, 161177, Control_c, 0, 64, 73
1, 161177, Control_c, 0, 67, 105
1, 161192, Control_c, 0, 64, 74
1, 161192, Control_c, 0, 67, 106
1, 161206, Control_c, 0, 64, 75
1, 161206, Control_c, 0, 67, 108
1, 161221, Control_c, 0, 64, 76
1, 161221, Control_c, 0, 67, 109
1, 161237, Control_c, 0, 64, 76
1, 161252, Control_c, 0, 64, 77
1, 161267, Control_c, 0, 64, 77
1, 161267, Control_c, 0, 67, 109
1, 161273, Poly_aftertouch_c, 0, 64, 0
1, 161297, Control_c, 0, 64, 78
1, 161362, Control_c, 0, 67, 110
1, 161407, Control_c, 0, 67, 110
1, 161436, Control_c, 0, 67, 111
1, 161466, Control_c, 0, 67, 112
1, 161481, Control_c, 0, 67, 113
1, 161495, Note_off_c, 0, 40, 5
1, 161496, Control_c, 0, 67, 114
1, 161510, Control_c, 0, 67, 115
1, 161525, Control_c, 0, 67, 117
1, 161540, Control_c, 0, 67, 119
1, 161555, Control_c, 0, 67, 121
1, 161570, Control_c, 0, 67, 123
1, 161584, Control_c, 0, 67, 124
1, 161599, Control_c, 0, 67, 126
1, 161614, Control_c, 0, 67, 126
1, 161628, Control_c, 0, 64, 77
1, 161628, Control_c, 0, 67, 127
1, 161643, Control_c, 0, 64, 76
1, 161658, Control_c, 0, 64, 75
1, 161673, Control_c, 0, 64, 72
1, 161676, Note_on_c, 0, 57, 40
1, 161683, Note_off_c, 0, 59, 40
1, 161688, Control_c, 0, 64, 69
1, 161697, Note_on_c, 0, 49, 39
1, 161703, Control_c, 0, 64, 64
1, 161714, Note_on_c, 0, 45, 19
1, 161717, Control_c, 0, 64, 57
1, 161732, Note_off_c, 0, 56, 40
1, 161732, Control_c, 0, 64, 48
1, 161747, Control_c, 0, 64, 34
1, 161762, Control_c, 0, 64, 13
1, 161773, Note_off_c, 0, 50, 39
1, 161777, Control_c, 0, 64, 0
1, 162132, Note_on_c, 0, 61, 37
1, 162161, Note_on_c, 0, 52, 28
1, 162203, Note_off_c, 0, 57, 38
1, 162296, Note_off_c, 0, 49, 36
1, 162481, Control_c, 0, 64, 15
1, 162496, Control_c, 0, 64, 25
1, 162511, Control_c, 0, 64, 34
1, 162526, Control_c, 0, 64, 41
1, 162540, Control_c, 0, 64, 46
1, 162555, Control_c, 0, 64, 50
1, 162570, Control_c, 0, 64, 53
1, 162585, Control_c, 0, 64, 55
1, 162600, Control_c, 0, 64, 57
1, 162614, Control_c, 0, 64, 59
1, 162629, Control_c, 0, 64, 60
1, 162644, Control_c, 0, 64, 61
1, 162659, Control_c, 0, 64, 62
1, 162674, Control_c, 0, 64, 63
1, 162689, Control_c, 0, 64, 64
1, 162704, Control_c, 0, 64, 65
1, 162719, Control_c, 0, 64, 65
1, 162733, Control_c, 0, 64, 66
1, 162748, Control_c, 0, 64, 67
1, 162763, Control_c, 0, 64, 68
1, 162777, Control_c, 0, 64, 70
1, 162792, Control_c, 0, 64, 71
1, 162807, Control_c, 0, 64, 72
1, 162813, Note_off_c, 0, 45, 29
1, 162820, Note_off_c, 0, 61, 35
1, 162822, Control_c, 0, 64, 73
1, 162838, Control_c, 0, 64, 74
1, 162875, Control_c, 0, 64, 74
1, 162889, Control_c, 0, 64, 75
1, 162904, Control_c, 0, 64, 75
1, 162941, Note_off_c, 0, 52, 30
1, 163171, Control_c, 0, 64, 75
1, 163186, Control_c, 0, 64, 74
1, 163201, Control_c, 0, 64, 74
1, 163215, Control_c, 0, 64, 73
1, 163245, Control_c, 0, 64, 72
1, 163289, Control_c, 0, 64, 72
1, 163319, Control_c, 0, 64, 71
1, 163334, Control_c, 0, 64, 71
1, 163349, Control_c, 0, 64, 70
1, 163363, Control_c, 0, 64, 70
1, 163393, Control_c, 0, 64, 69
1, 163407, Control_c, 0, 64, 68
1, 163422, Control_c, 0, 64, 68
1, 163437, Control_c, 0, 64, 67
1, 163452, Control_c, 0, 64, 67
1, 163467, Control_c, 0, 64, 66
1, 163482, Control_c, 0, 64, 66
1, 163497, Control_c, 0, 64, 65
1, 163527, Control_c, 0, 64, 65
1, 163542, Control_c, 0, 64, 64
1, 163556, Control_c, 0, 64, 64
1, 163571, Control_c, 0, 64, 63
1, 163585, Control_c, 0, 64, 63
1, 163607, Control_c, 0, 64, 62
1, 163622, Control_c, 0, 64, 62
1, 163637, Control_c, 0, 64, 61
1, 163652, Control_c, 0, 64, 61
1, 163682, Control_c, 0, 64, 60
1, 163711, Control_c, 0, 64, 60
1, 163741, Control_c, 0, 64, 59
1, 163771, Control_c, 0, 64, 59
1, 163801, Control_c, 0, 64, 58
1, 163816, Control_c, 0, 64, 58
1, 163830, Control_c, 0, 64, 57
1, 163845, Control_c, 0, 64, 57
1, 163860, Control_c, 0, 64, 56
1, 163875, Control_c, 0, 64, 55
1, 163890, Control_c, 0, 64, 54
1, 163904, Control_c, 0, 64, 53
1, 163919, Control_c, 0, 64, 52
1, 163934, Control_c, 0, 64, 50
1, 163949, Control_c, 0, 64, 48
1, 163964, Control_c, 0, 64, 46
1, 163978, Control_c, 0, 64, 42
1, 163993, Control_c, 0, 64, 37
1, 164008, Control_c, 0, 64, 31
1, 164023, Control_c, 0, 64, 25
1, 164037, Control_c, 0, 64, 21
1, 164052, Control_c, 0, 64, 17
1, 164067, Control_c, 0, 64, 8
1, 164082, Control_c, 0, 64, 0
1, 164294, Note_on_c, 0, 73, 39
1, 164564, Control_c, 0, 64, 27
1, 164579, Control_c, 0, 64, 41
1, 164594, Control_c, 0, 64, 51
1, 164609, Control_c, 0, 64, 58
1, 164624, Control_c, 0, 64, 61
1, 164639, Control_c, 0, 64, 62
1, 164653, Control_c, 0, 64, 63
1, 164668, Control_c, 0, 64, 65
1, 164683, Control_c, 0, 64, 66
1, 164698, Control_c, 0, 64, 69
1, 164713, Control_c, 0, 64, 72
1, 164727, Control_c, 0, 64, 75
1, 164742, Control_c, 0, 64, 78
1, 164757, Control_c, 0, 64, 81
1, 164772, Control_c, 0, 64, 83
1, 164786, Control_c, 0, 64, 84
1, 164801, Control_c, 0, 64, 86
1, 164816, Control_c, 0, 64, 89
1, 164831, Control_c, 0, 64, 91
1, 164846, Control_c, 0, 64, 93
1, 164860, Control_c, 0, 64, 95
1, 164875, Control_c, 0, 64, 96
1, 164890, Control_c, 0, 64, 98
1, 164905, Control_c, 0, 64, 99
1, 164920, Control_c, 0, 64, 99
1, 164934, Control_c, 0, 64, 100
1, 165068, Control_c, 0, 64, 99
1, 165105, Note_off_c, 0, 73, 33
1, 165178, Note_on_c, 0, 75, 42
1, 165321, Note_on_c, 0, 78, 56
1, 165336, Note_off_c, 0, 75, 35
1, 165450, Note_on_c, 0, 76, 51
1, 165476, Note_off_c, 0, 78, 35
1, 165560, Note_on_c, 0, 73, 53
1, 165560, Note_off_c, 0, 76, 50
1, 165638, Note_off_c, 0, 73, 61
1, 165663, Note_on_c, 0, 69, 53
1, 165690, Note_off_c, 0, 69, 57
1, 165816, Note_on_c, 0, 68, 58
1, 165836, Note_off_c, 0, 68, 64
1, 165854, Control_c, 0, 64, 99
1, 165869, Control_c, 0, 64, 98
1, 165883, Control_c, 0, 64, 95
1, 165898, Control_c, 0, 64, 89
1, 165908, Note_on_c, 0, 68, 58
1, 165913, Control_c, 0, 64, 82
1, 165928, Control_c, 0, 64, 70
1, 165938, Note_off_c, 0, 68, 51
1, 165943, Control_c, 0, 64, 61
1, 165957, Control_c, 0, 64, 45
1, 165972, Control_c, 0, 64, 19
1, 165978, Note_on_c, 0, 80, 71
1, 165987, Control_c, 0, 64, 0
1, 166032, Control_c, 0, 64, 19
1, 166036, Note_on_c, 0, 68, 12
1, 166047, Control_c, 0, 64, 38
1, 166062, Control_c, 0, 64, 53
1, 166077, Control_c, 0, 64, 61
1, 166092, Control_c, 0, 64, 64
1, 166106, Control_c, 0, 64, 66
1, 166121, Control_c, 0, 64, 67
1, 166136, Control_c, 0, 64, 70
1, 166151, Control_c, 0, 64, 75
1, 166166, Control_c, 0, 64, 80
1, 166176, Note_off_c, 0, 68, 42
1, 166180, Control_c, 0, 64, 85
1, 166195, Control_c, 0, 64, 89
1, 166210, Control_c, 0, 64, 93
1, 166224, Control_c, 0, 64, 100
1, 166239, Control_c, 0, 64, 107
1, 166254, Control_c, 0, 64, 116
1, 166269, Control_c, 0, 64, 127
1, 166440, Note_off_c, 0, 80, 0
1, 166448, Note_on_c, 0, 59, 34
1, 166451, Note_on_c, 0, 62, 40
1, 166455, Note_on_c, 0, 65, 40
1, 166478, Poly_aftertouch_c, 0, 80, 127
1, 166487, Note_off_c, 0, 65, 56
1, 166488, Note_off_c, 0, 59, 49
1, 166490, Note_off_c, 0, 62, 50
1, 166551, Control_c, 0, 64, 124
1, 166566, Control_c, 0, 64, 122
1, 166580, Control_c, 0, 64, 120
1, 166585, Poly_aftertouch_c, 0, 80, 0
1, 166603, Control_c, 0, 64, 118
1, 166618, Control_c, 0, 64, 115
1, 166632, Control_c, 0, 64, 111
1, 166638, Note_on_c, 0, 78, 58
1, 166647, Control_c, 0, 64, 108
1, 166662, Control_c, 0, 64, 103
1, 166666, Note_off_c, 0, 78, 62
1, 166677, Control_c, 0, 64, 98
1, 166692, Control_c, 0, 64, 91
1, 166697, Note_on_c, 0, 80, 60
1, 166706, Control_c, 0, 64, 83
1, 166721, Control_c, 0, 64, 73
1, 166736, Control_c, 0, 64, 61
1, 166738, Note_on_c, 0, 78, 69
1, 166738, Note_off_c, 0, 80, 61
1, 166749, Note_on_c, 0, 57, 35
1, 166750, Control_c, 0, 64, 47
1, 166754, Note_on_c, 0, 61, 36
1, 166765, Control_c, 0, 64, 26
1, 166767, Note_on_c, 0, 66, 36
1, 166780, Control_c, 0, 64, 0
1, 166780, Control_c, 0, 67, 125
1, 166795, Control_c, 0, 64, 8
1, 166795, Control_c, 0, 67, 123
1, 166810, Control_c, 0, 64, 23
1, 166810, Control_c, 0, 67, 120
1, 166826, Control_c, 0, 64, 42
1, 166826, Control_c, 0, 67, 119
1, 166841, Control_c, 0, 64, 56
1, 166841, Control_c, 0, 67, 117
1, 166855, Control_c, 0, 64, 64
1, 166855, Control_c, 0, 67, 115
1, 166870, Control_c, 0, 64, 69
1, 166870, Control_c, 0, 67, 113
1, 166885, Control_c, 0, 64, 72
1, 166885, Control_c, 0, 67, 111
1, 166900, Control_c, 0, 64, 75
1, 166900, Control_c, 0, 67, 109
1, 166915, Control_c, 0, 64, 77
1, 166915, Control_c, 0, 67, 107
1, 166929, Control_c, 0, 64, 81
1, 166929, Control_c, 0, 67, 106
1, 166932, Note_off_c, 0, 57, 37
1, 166944, Control_c, 0, 64, 84
1, 166944, Control_c, 0, 67, 104
1, 166959, Control_c, 0, 64, 87
1, 166959, Control_c, 0, 67, 102
1, 166974, Control_c, 0, 64, 90
1, 166974, Control_c, 0, 67, 100
1, 166989, Control_c, 0, 64, 93
1, 166989, Control_c, 0, 67, 98
1, 167003, Control_c, 0, 64, 94
1, 167003, Control_c, 0, 67, 95
1, 167018, Control_c, 0, 64, 95
1, 167018, Control_c, 0, 67, 93
1, 167033, Control_c, 0, 64, 96
1, 167033, Control_c, 0, 67, 91
1, 167046, Note_off_c, 0, 66, 41
1, 167047, Control_c, 0, 67, 89
1, 167050, Note_off_c, 0, 61, 41
1, 167062, Control_c, 0, 67, 86
1, 167077, Control_c, 0, 67, 84
1, 167086, Note_off_c, 0, 78, 55
1, 167092, Control_c, 0, 64, 96
1, 167092, Control_c, 0, 67, 80
1, 167107, Control_c, 0, 67, 78
1, 167113, Note_on_c, 0, 76, 71
1, 167122, Control_c, 0, 67, 75
1, 167137, Control_c, 0, 67, 72
1, 167151, Control_c, 0, 67, 68
1, 167166, Control_c, 0, 67, 64
1, 167181, Control_c, 0, 64, 96
1, 167181, Control_c, 0, 67, 60
1, 167191, Note_on_c, 0, 61, 43
1, 167196, Control_c, 0, 67, 55
1, 167200, Note_on_c, 0, 78, 82
1, 167208, Note_on_c, 0, 69, 47
1, 167210, Note_on_c, 0, 64, 42
1, 167211, Control_c, 0, 67, 51
1, 167217, Note_off_c, 0, 76, 61
1, 167226, Control_c, 0, 67, 47
1, 167240, Control_c, 0, 67, 43
1, 167244, Note_off_c, 0, 61, 49
1, 167250, Note_off_c, 0, 69, 55
1, 167255, Control_c, 0, 67, 39
1, 167262, Note_off_c, 0, 64, 59
1, 167270, Control_c, 0, 67, 34
1, 167285, Control_c, 0, 67, 29
1, 167300, Control_c, 0, 67, 25
1, 167315, Control_c, 0, 67, 23
1, 167329, Control_c, 0, 67, 22
1, 167351, Control_c, 0, 64, 95
1, 167351, Control_c, 0, 67, 21
1, 167366, Control_c, 0, 64, 93
1, 167381, Control_c, 0, 64, 89
1, 167396, Control_c, 0, 64, 83
1, 167411, Control_c, 0, 64, 74
1, 167426, Control_c, 0, 64, 64
1, 167426, Note_on_c, 0, 80, 80
1, 167437, Note_off_c, 0, 78, 62
1, 167441, Control_c, 0, 64, 48
1, 167442, Note_on_c, 0, 63, 43
1, 167450, Note_on_c, 0, 68, 41
1, 167451, Note_on_c, 0, 60, 42
1, 167455, Control_c, 0, 64, 25
1, 167470, Control_c, 0, 64, 0
1, 167485, Control_c, 0, 67, 22
1, 167500, Control_c, 0, 64, 23
1, 167500, Control_c, 0, 67, 24
1, 167515, Control_c, 0, 64, 41
1, 167515, Control_c, 0, 67, 25
1, 167529, Control_c, 0, 64, 58
1, 167529, Control_c, 0, 67, 26
1, 167544, Control_c, 0, 64, 66
1, 167544, Control_c, 0, 67, 27
1, 167559, Control_c, 0, 64, 71
1, 167559, Control_c, 0, 67, 28
1, 167573, Control_c, 0, 64, 75
1, 167573, Control_c, 0, 67, 30
1, 167588, Control_c, 0, 64, 77
1, 167588, Control_c, 0, 67, 32
1, 167603, Control_c, 0, 64, 79
1, 167603, Control_c, 0, 67, 33
1, 167607, Note_off_c, 0, 60, 0
1, 167618, Control_c, 0, 64, 81
1, 167618, Control_c, 0, 67, 33
1, 167631, Poly_aftertouch_c, 0, 60, 0
1, 167634, Control_c, 0, 64, 85
1, 167649, Control_c, 0, 64, 87
1, 167649, Control_c, 0, 67, 34
1, 167660, Note_off_c, 0, 63, 59
1, 167664, Control_c, 0, 64, 88
1, 167683, Note_off_c, 0, 68, 57
1, 167708, Control_c, 0, 64, 89
1, 167723, Control_c, 0, 67, 33
1, 167752, Control_c, 0, 67, 33
1, 167783, Note_off_c, 0, 80, 59
1, 167787, Note_on_c, 0, 81, 66
1, 167796, Control_c, 0, 64, 88
1, 167856, Note_off_c, 0, 81, 63
1, 167866, Note_on_c, 0, 59, 36
1, 167866, Note_on_c, 0, 62, 43
1, 167867, Note_on_c, 0, 80, 74
1, 167871, Note_on_c, 0, 65, 43
1, 167900, Control_c, 0, 67, 33
1, 167906, Note_off_c, 0, 65, 59
1, 167912, Note_off_c, 0, 59, 49
1, 167912, Note_off_c, 0, 80, 57
1, 167922, Note_off_c, 0, 62, 59
1, 167944, Control_c, 0, 67, 34
1, 167959, Control_c, 0, 67, 34
1, 167989, Control_c, 0, 64, 88
1, 167989, Control_c, 0, 67, 35
1, 168019, Control_c, 0, 64, 87
1, 168034, Control_c, 0, 64, 86
1, 168034, Control_c, 0, 67, 35
1, 168040, Note_on_c, 0, 78, 67
1, 168049, Control_c, 0, 64, 85
1, 168064, Control_c, 0, 64, 83
1, 168070, Note_off_c, 0, 78, 65
1, 168078, Control_c, 0, 64, 79
1, 168078, Control_c, 0, 67, 36
1, 168081, Note_on_c, 0, 80, 61
1, 168100, Control_c, 0, 64, 74
1, 168115, Control_c, 0, 64, 67
1, 168115, Control_c, 0, 67, 38
1, 168130, Control_c, 0, 64, 58
1, 168130, Control_c, 0, 67, 40
1, 168145, Control_c, 0, 64, 45
1, 168145, Control_c, 0, 67, 43
1, 168147, Note_on_c, 0, 78, 69
1, 168154, Note_off_c, 0, 80, 62
1, 168156, Note_on_c, 0, 57, 35
1, 168159, Control_c, 0, 64, 26
1, 168159, Control_c, 0, 67, 44
1, 168165, Note_on_c, 0, 61, 38
1, 168174, Control_c, 0, 64, 0
1, 168174, Control_c, 0, 67, 45
1, 168177, Note_on_c, 0, 66, 35
1, 168189, Control_c, 0, 67, 45
1, 168204, Control_c, 0, 67, 46
1, 168219, Control_c, 0, 67, 49
1, 168233, Control_c, 0, 67, 54
1, 168248, Control_c, 0, 67, 60
1, 168263, Control_c, 0, 67, 66
1, 168278, Control_c, 0, 67, 72
1, 168293, Control_c, 0, 64, 8
1, 168293, Control_c, 0, 67, 78
1, 168308, Control_c, 0, 64, 36
1, 168308, Control_c, 0, 67, 83
1, 168323, Control_c, 0, 64, 52
1, 168323, Control_c, 0, 67, 87
1, 168338, Control_c, 0, 64, 61
1, 168338, Control_c, 0, 67, 90
1, 168352, Control_c, 0, 64, 64
1, 168352, Control_c, 0, 67, 92
1, 168367, Control_c, 0, 64, 65
1, 168367, Control_c, 0, 67, 92
1, 168382, Control_c, 0, 64, 67
1, 168396, Control_c, 0, 64, 70
1, 168411, Control_c, 0, 64, 74
1, 168427, Control_c, 0, 64, 77
1, 168427, Control_c, 0, 67, 93
1, 168442, Note_off_c, 0, 57, 35
1, 168442, Control_c, 0, 64, 81
1, 168442, Control_c, 0, 67, 93
1, 168457, Control_c, 0, 64, 83
1, 168472, Control_c, 0, 64, 85
1, 168487, Control_c, 0, 64, 86
1, 168501, Control_c, 0, 64, 87
1, 168516, Control_c, 0, 64, 87
1, 168516, Control_c, 0, 67, 94
1, 168529, Note_off_c, 0, 61, 42
1, 168530, Note_off_c, 0, 66, 43
1, 168531, Control_c, 0, 64, 88
1, 168531, Control_c, 0, 67, 96
1, 168546, Control_c, 0, 64, 88
1, 168546, Control_c, 0, 67, 99
1, 168561, Control_c, 0, 67, 101
1, 168575, Control_c, 0, 67, 101
1, 168590, Control_c, 0, 67, 102
1, 168601, Note_on_c, 0, 76, 64
1, 168605, Control_c, 0, 67, 103
1, 168609, Note_off_c, 0, 78, 60
1, 168619, Control_c, 0, 67, 105
1, 168634, Control_c, 0, 67, 106
1, 168664, Control_c, 0, 67, 107
1, 168693, Control_c, 0, 64, 88
1, 168693, Control_c, 0, 67, 107
1, 168708, Control_c, 0, 67, 108
1, 168723, Control_c, 0, 64, 87
1, 168723, Control_c, 0, 67, 112
1, 168738, Control_c, 0, 64, 86
1, 168738, Control_c, 0, 67, 114
1, 168753, Control_c, 0, 64, 85
1, 168753, Control_c, 0, 67, 116
1, 168767, Control_c, 0, 64, 82
1, 168767, Control_c, 0, 67, 118
1, 168782, Control_c, 0, 64, 77
1, 168782, Control_c, 0, 67, 119
1, 168784, Note_off_c, 0, 76, 61
1, 168786, Note_on_c, 0, 78, 61
1, 168797, Control_c, 0, 64, 69
1, 168797, Control_c, 0, 67, 121
1, 168812, Control_c, 0, 64, 61
1, 168812, Control_c, 0, 67, 123
1, 168824, Note_on_c, 0, 64, 34
1, 168827, Control_c, 0, 64, 47
1, 168827, Control_c, 0, 67, 126
1, 168830, Note_on_c, 0, 61, 32
1, 168832, Note_on_c, 0, 69, 33
1, 168849, Control_c, 0, 64, 30
1, 168849, Control_c, 0, 67, 127
1, 168864, Control_c, 0, 64, 12
1, 168879, Control_c, 0, 64, 10
1, 168894, Control_c, 0, 64, 12
1, 168908, Control_c, 0, 64, 20
1, 168923, Control_c, 0, 64, 31
1, 168938, Control_c, 0, 64, 45
1, 168953, Control_c, 0, 64, 55
1, 168968, Control_c, 0, 64, 61
1, 168982, Control_c, 0, 64, 64
1, 168997, Control_c, 0, 64, 65
1, 169012, Control_c, 0, 64, 67
1, 169026, Control_c, 0, 64, 69
1, 169041, Control_c, 0, 64, 72
1, 169056, Control_c, 0, 64, 75
1, 169057, Note_off_c, 0, 61, 41
1, 169071, Control_c, 0, 64, 77
1, 169086, Control_c, 0, 64, 79
1, 169101, Control_c, 0, 64, 81
1, 169116, Control_c, 0, 64, 83
1, 169131, Control_c, 0, 64, 86
1, 169145, Control_c, 0, 64, 87
1, 169150, Note_off_c, 0, 69, 35
1, 169160, Control_c, 0, 64, 87
1, 169180, Note_off_c, 0, 64, 29
1, 169319, Note_on_c, 0, 56, 22
1, 169324, Control_c, 0, 64, 87
1, 169339, Control_c, 0, 64, 86
1, 169354, Control_c, 0, 64, 85
1, 169358, Note_on_c, 0, 63, 46
1, 169369, Control_c, 0, 64, 83
1, 169384, Control_c, 0, 64, 81
1, 169398, Control_c, 0, 64, 79
1, 169413, Control_c, 0, 64, 77
1, 169428, Control_c, 0, 64, 74
1, 169434, Note_on_c, 0, 72, 39
1, 169442, Control_c, 0, 64, 70
1, 169457, Control_c, 0, 64, 66
1, 169472, Control_c, 0, 64, 62
1, 169487, Control_c, 0, 64, 56
1, 169501, Note_on_c, 0, 80, 55
1, 169501, Note_off_c, 0, 78, 58
1, 169502, Control_c, 0, 64, 50
1, 169516, Control_c, 0, 64, 43
1, 169531, Control_c, 0, 64, 35
1, 169546, Control_c, 0, 64, 25
1, 169561, Control_c, 0, 64, 17
1, 169576, Control_c, 0, 64, 12
1, 169598, Control_c, 0, 64, 10
1, 169643, Control_c, 0, 64, 17
1, 169657, Control_c, 0, 64, 26
1, 169672, Control_c, 0, 64, 36
1, 169687, Control_c, 0, 64, 47
1, 169702, Control_c, 0, 64, 55
1, 169717, Control_c, 0, 64, 61
1, 169731, Control_c, 0, 64, 63
1, 169746, Control_c, 0, 64, 65
1, 169761, Control_c, 0, 64, 67
1, 169775, Control_c, 0, 64, 70
1, 169790, Control_c, 0, 64, 74
1, 169805, Control_c, 0, 64, 78
1, 169816, Note_off_c, 0, 63, 42
1, 169820, Control_c, 0, 64, 81
1, 169835, Control_c, 0, 64, 84
1, 169849, Control_c, 0, 64, 88
1, 169864, Control_c, 0, 64, 90
1, 169879, Control_c, 0, 64, 93
1, 169893, Note_off_c, 0, 56, 38
1, 169894, Control_c, 0, 64, 96
1, 169909, Control_c, 0, 64, 98
1, 169914, Note_off_c, 0, 72, 39
1, 169924, Control_c, 0, 64, 100
1, 169939, Control_c, 0, 64, 101
1, 170117, Control_c, 0, 64, 100
1, 170162, Control_c, 0, 64, 100
1, 170191, Control_c, 0, 64, 99
1, 170236, Control_c, 0, 64, 99
1, 170251, Control_c, 0, 64, 98
1, 170265, Control_c, 0, 64, 97
1, 170280, Control_c, 0, 64, 97
1, 170310, Control_c, 0, 64, 96
1, 170347, Control_c, 0, 64, 96
1, 170362, Control_c, 0, 64, 95
1, 170410, Note_on_c, 0, 44, 29
1, 170421, Control_c, 0, 64, 95
1, 170481, Control_c, 0, 64, 94
1, 170630, Note_off_c, 0, 80, 37
1, 170644, Note_on_c, 0, 68, 32
1, 170703, Control_c, 0, 64, 94
1, 170758, Note_off_c, 0, 68, 28
1, 170762, Note_on_c, 0, 80, 42
1, 170866, Note_off_c, 0, 80, 43
1, 170892, Note_on_c, 0, 75, 30
1, 170946, Note_off_c, 0, 75, 47
1, 171068, Poly_aftertouch_c, 0, 80, 0
1, 171079, Note_on_c, 0, 75, 46
1, 171121, Note_off_c, 0, 75, 54
1, 171211, Note_on_c, 0, 87, 50
1, 171320, Note_off_c, 0, 87, 26
1, 171325, Note_on_c, 0, 80, 40
1, 171404, Note_off_c, 0, 44, 35
1, 171456, Note_on_c, 0, 87, 43
1, 171459, Note_off_c, 0, 80, 40
1, 171570, Note_on_c, 0, 80, 50
1, 171571, Note_off_c, 0, 87, 43
1, 171760, Note_off_c, 0, 80, 47
1, 171870, Note_on_c, 0, 92, 36
1, 171956, Note_off_c, 0, 92, 50
1, 172771, Control_c, 0, 64, 93
1, 172786, Control_c, 0, 64, 93
1, 172800, Control_c, 0, 64, 92
1, 172815, Control_c, 0, 64, 90
1, 172830, Control_c, 0, 64, 86
1, 172845, Control_c, 0, 64, 81
1, 172860, Control_c, 0, 64, 73
1, 172862, Note_on_c, 0, 80, 56
1, 172875, Control_c, 0, 64, 66
1, 172890, Control_c, 0, 64, 58
1, 172905, Control_c, 0, 64, 43
1, 172919, Control_c, 0, 64, 11
1, 172934, Control_c, 0, 64, 0
1, 173311, Note_on_c, 0, 78, 63
1, 173367, Note_off_c, 0, 80, 49
1, 173788, Note_on_c, 0, 76, 60
1, 173819, Note_on_c, 0, 49, 35
1, 173832, Note_off_c, 0, 78, 59
1, 173905, Control_c, 0, 64, 25
1, 173920, Control_c, 0, 64, 49
1, 173934, Control_c, 0, 64, 60
1, 173949, Control_c, 0, 64, 64
1, 173964, Control_c, 0, 64, 65
1, 173979, Control_c, 0, 64, 65
1, 173994, Control_c, 0, 64, 67
1, 174010, Control_c, 0, 64, 68
1, 174025, Control_c, 0, 64, 70
1, 174039, Control_c, 0, 64, 72
1, 174054, Control_c, 0, 64, 74
1, 174070, Control_c, 0, 64, 75
1, 174092, Control_c, 0, 64, 76
1, 174107, Control_c, 0, 64, 78
1, 174121, Control_c, 0, 64, 79
1, 174136, Control_c, 0, 64, 80
1, 174151, Control_c, 0, 64, 82
1, 174166, Control_c, 0, 64, 83
1, 174181, Control_c, 0, 64, 83
1, 174190, Note_on_c, 0, 64, 32
1, 174210, Control_c, 0, 64, 84
1, 174297, Note_on_c, 0, 67, 41
1, 174354, Note_off_c, 0, 67, 40
1, 174374, Control_c, 0, 64, 83
1, 174389, Note_on_c, 0, 68, 53
1, 174399, Note_off_c, 0, 49, 35
1, 174418, Control_c, 0, 64, 83
1, 174447, Control_c, 0, 64, 82
1, 174454, Note_on_c, 0, 71, 50
1, 174462, Control_c, 0, 64, 81
1, 174468, Note_on_c, 0, 56, 37
1, 174473, Note_off_c, 0, 68, 35
1, 174477, Control_c, 0, 64, 81
1, 174492, Control_c, 0, 64, 80
1, 174498, Note_off_c, 0, 64, 32
1, 174507, Control_c, 0, 64, 80
1, 174508, Note_off_c, 0, 71, 54
1, 174521, Control_c, 0, 64, 79
1, 174523, Note_off_c, 0, 76, 29
1, 174529, Note_on_c, 0, 69, 56
1, 174551, Control_c, 0, 64, 79
1, 174559, Note_off_c, 0, 69, 55
1, 174565, Control_c, 0, 64, 78
1, 174580, Control_c, 0, 64, 77
1, 174593, Note_on_c, 0, 68, 49
1, 174595, Control_c, 0, 64, 75
1, 174610, Control_c, 0, 64, 73
1, 174625, Control_c, 0, 64, 70
1, 174639, Control_c, 0, 64, 66
1, 174654, Control_c, 0, 64, 61
1, 174655, Note_off_c, 0, 68, 0
1, 174667, Note_on_c, 0, 68, 44
1, 174669, Note_off_c, 0, 56, 16
1, 174669, Control_c, 0, 64, 52
1, 174679, Note_on_c, 0, 51, 16
1, 174681, Note_on_c, 0, 54, 31
1, 174684, Control_c, 0, 64, 42
1, 174699, Control_c, 0, 64, 29
1, 174714, Control_c, 0, 64, 18
1, 174729, Note_off_c, 0, 68, 0
1, 174729, Note_on_c, 0, 68, 10
1, 174729, Control_c, 0, 64, 17
1, 174744, Control_c, 0, 64, 18
1, 174758, Control_c, 0, 64, 25
1, 174773, Control_c, 0, 64, 39
1, 174788, Control_c, 0, 64, 51
1, 174803, Control_c, 0, 64, 60
1, 174818, Control_c, 0, 64, 64
1, 174841, Control_c, 0, 64, 65
1, 174841, Control_c, 0, 67, 126
1, 174856, Control_c, 0, 64, 67
1, 174856, Control_c, 0, 67, 121
1, 174870, Control_c, 0, 64, 69
1, 174870, Control_c, 0, 67, 116
1, 174885, Control_c, 0, 64, 72
1, 174885, Control_c, 0, 67, 115
1, 174900, Control_c, 0, 64, 76
1, 174915, Control_c, 0, 64, 80
1, 174915, Control_c, 0, 67, 115
1, 174925, Note_on_c, 0, 76, 62
1, 174930, Control_c, 0, 64, 85
1, 174930, Control_c, 0, 67, 111
1, 174944, Note_on_c, 0, 60, 40
1, 174944, Control_c, 0, 64, 89
1, 174944, Control_c, 0, 67, 104
1, 174959, Control_c, 0, 64, 93
1, 174959, Control_c, 0, 67, 95
1, 174974, Control_c, 0, 64, 98
1, 174974, Control_c, 0, 67, 91
1, 174988, Control_c, 0, 64, 102
1, 174988, Control_c, 0, 67, 90
1, 175003, Control_c, 0, 64, 106
1, 175018, Control_c, 0, 64, 109
1, 175030, Note_off_c, 0, 54, 34
1, 175033, Control_c, 0, 64, 111
1, 175048, Control_c, 0, 64, 113
1, 175048, Control_c, 0, 67, 89
1, 175063, Control_c, 0, 64, 115
1, 175063, Control_c, 0, 67, 88
1, 175078, Control_c, 0, 64, 115
1, 175093, Control_c, 0, 64, 116
1, 175107, Control_c, 0, 67, 89
1, 175122, Note_off_c, 0, 76, 59
1, 175132, Note_on_c, 0, 56, 35
1, 175134, Note_on_c, 0, 75, 61
1, 175137, Note_off_c, 0, 51, 40
1, 175152, Control_c, 0, 67, 88
1, 175167, Control_c, 0, 64, 115
1, 175204, Note_off_c, 0, 60, 26
1, 175211, Control_c, 0, 64, 114
1, 175226, Control_c, 0, 64, 110
1, 175241, Control_c, 0, 64, 105
1, 175252, Note_off_c, 0, 68, 42
1, 175256, Control_c, 0, 64, 101
1, 175270, Control_c, 0, 64, 95
1, 175270, Control_c, 0, 67, 88
1, 175285, Control_c, 0, 64, 88
1, 175297, Note_off_c, 0, 56, 43
1, 175300, Control_c, 0, 64, 79
1, 175315, Control_c, 0, 64, 68
1, 175315, Control_c, 0, 67, 87
1, 175319, Note_on_c, 0, 52, 44
1, 175322, Note_off_c, 0, 75, 61
1, 175328, Note_on_c, 0, 73, 56
1, 175330, Control_c, 0, 64, 58
1, 175330, Control_c, 0, 67, 86
1, 175344, Control_c, 0, 64, 44
1, 175344, Control_c, 0, 67, 82
1, 175359, Control_c, 0, 64, 27
1, 175359, Control_c, 0, 67, 76
1, 175374, Control_c, 0, 64, 17
1, 175374, Control_c, 0, 67, 70
1, 175388, Control_c, 0, 64, 22
1, 175388, Control_c, 0, 67, 64
1, 175403, Control_c, 0, 64, 37
1, 175403, Control_c, 0, 67, 60
1, 175418, Control_c, 0, 64, 53
1, 175418, Control_c, 0, 67, 57
1, 175433, Control_c, 0, 64, 63
1, 175448, Control_c, 0, 64, 70
1, 175448, Control_c, 0, 67, 60
1, 175462, Control_c, 0, 64, 74
1, 175462, Control_c, 0, 67, 66
1, 175477, Control_c, 0, 64, 77
1, 175477, Control_c, 0, 67, 75
1, 175492, Control_c, 0, 64, 80
1, 175492, Control_c, 0, 67, 93
1, 175507, Control_c, 0, 64, 82
1, 175507, Control_c, 0, 67, 124
1, 175522, Control_c, 0, 64, 84
1, 175522, Control_c, 0, 67, 127
1, 175537, Control_c, 0, 64, 85
1, 175552, Control_c, 0, 64, 86
1, 175553, Note_on_c, 0, 61, 35
1, 175565, Control_c, 0, 64, 88
1, 175587, Control_c, 0, 64, 89
1, 175594, Note_off_c, 0, 73, 60
1, 175602, Control_c, 0, 64, 91
1, 175617, Control_c, 0, 64, 92
1, 175632, Note_on_c, 0, 67, 53
1, 175632, Control_c, 0, 64, 92
1, 175647, Control_c, 0, 64, 93
1, 175662, Control_c, 0, 64, 94
1, 175693, Note_off_c, 0, 61, 40
1, 175713, Note_off_c, 0, 67, 44
1, 175715, Note_on_c, 0, 68, 59
1, 175730, Note_on_c, 0, 56, 39
1, 175782, Note_off_c, 0, 68, 57
1, 175802, Note_on_c, 0, 71, 48
1, 175829, Note_off_c, 0, 56, 0
1, 175852, Note_on_c, 0, 69, 58
1, 175865, Note_off_c, 0, 71, 51
1, 175866, Poly_aftertouch_c, 0, 56, 127
1, 175882, Note_off_c, 0, 69, 65
1, 175903, Note_on_c, 0, 68, 55
1, 175914, Control_c, 0, 64, 93
1, 175925, Note_off_c, 0, 68, 61
1, 175929, Control_c, 0, 64, 91
1, 175933, Poly_aftertouch_c, 0, 56, 0
1, 175944, Control_c, 0, 64, 87
1, 175958, Control_c, 0, 64, 79
1, 175973, Control_c, 0, 64, 67
1, 175975, Note_on_c, 0, 68, 61
1, 175982, Note_on_c, 0, 48, 39
1, 175988, Control_c, 0, 64, 55
1, 175988, Control_c, 0, 67, 123
1, 176003, Control_c, 0, 64, 31
1, 176003, Control_c, 0, 67, 118
1, 176017, Control_c, 0, 64, 0
1, 176017, Control_c, 0, 67, 114
1, 176032, Control_c, 0, 67, 109
1, 176047, Control_c, 0, 64, 27
1, 176047, Control_c, 0, 67, 105
1, 176062, Control_c, 0, 64, 48
1, 176062, Control_c, 0, 67, 100
1, 176077, Control_c, 0, 64, 61
1, 176077, Control_c, 0, 67, 95
1, 176091, Control_c, 0, 64, 65
1, 176091, Control_c, 0, 67, 90
1, 176106, Control_c, 0, 64, 66
1, 176106, Control_c, 0, 67, 82
1, 176121, Control_c, 0, 64, 67
1, 176121, Control_c, 0, 67, 76
1, 176136, Control_c, 0, 64, 69
1, 176136, Control_c, 0, 67, 69
1, 176151, Control_c, 0, 64, 72
1, 176151, Control_c, 0, 67, 62
1, 176166, Control_c, 0, 64, 75
1, 176166, Control_c, 0, 67, 54
1, 176181, Control_c, 0, 64, 79
1, 176181, Control_c, 0, 67, 49
1, 176195, Control_c, 0, 64, 81
1, 176195, Control_c, 0, 67, 43
1, 176210, Control_c, 0, 64, 83
1, 176210, Control_c, 0, 67, 38
1, 176225, Control_c, 0, 64, 84
1, 176225, Control_c, 0, 67, 35
1, 176238, Note_on_c, 0, 63, 44
1, 176240, Control_c, 0, 64, 86
1, 176240, Control_c, 0, 67, 31
1, 176252, Note_on_c, 0, 80, 76
1, 176255, Control_c, 0, 64, 88
1, 176255, Control_c, 0, 67, 27
1, 176270, Control_c, 0, 64, 91
1, 176270, Control_c, 0, 67, 24
1, 176284, Control_c, 0, 64, 93
1, 176284, Control_c, 0, 67, 21
1, 176299, Control_c, 0, 64, 95
1, 176299, Control_c, 0, 67, 17
1, 176314, Control_c, 0, 64, 96
1, 176314, Control_c, 0, 67, 11
1, 176336, Control_c, 0, 64, 97
1, 176336, Control_c, 0, 67, 0
1, 176337, Note_off_c, 0, 52, 0
1, 176350, Control_c, 0, 64, 98
1, 176365, Control_c, 0, 64, 98
1, 176374, Poly_aftertouch_c, 0, 52, 127
1, 176387, Note_off_c, 0, 63, 45
1, 176456, Note_off_c, 0, 68, 33
1, 176495, Note_on_c, 0, 56, 29
1, 176497, Note_off_c, 0, 48, 38
1, 176518, Note_on_c, 0, 78, 74
1, 176550, Poly_aftertouch_c, 0, 52, 0
1, 176562, Note_off_c, 0, 80, 60
1, 176622, Note_off_c, 0, 56, 25
1, 176633, Control_c, 0, 64, 98
1, 176648, Control_c, 0, 64, 97
1, 176663, Control_c, 0, 64, 96
1, 176678, Control_c, 0, 64, 94
1, 176678, Control_c, 0, 67, 8
1, 176693, Control_c, 0, 64, 91
1, 176693, Control_c, 0, 67, 10
1, 176707, Control_c, 0, 64, 88
1, 176707, Control_c, 0, 67, 11
1, 176722, Control_c, 0, 64, 83
1, 176722, Control_c, 0, 67, 12
1, 176723, Note_on_c, 0, 49, 44
1, 176737, Control_c, 0, 64, 76
1, 176737, Control_c, 0, 67, 13
1, 176752, Control_c, 0, 64, 68
1, 176752, Control_c, 0, 67, 15
1, 176758, Note_on_c, 0, 76, 72
1, 176767, Control_c, 0, 64, 59
1, 176767, Control_c, 0, 67, 19
1, 176781, Control_c, 0, 64, 40
1, 176781, Control_c, 0, 67, 27
1, 176796, Control_c, 0, 64, 0
1, 176796, Control_c, 0, 67, 37
1, 176810, Note_off_c, 0, 78, 64
1, 176811, Control_c, 0, 67, 49
1, 176826, Control_c, 0, 67, 64
1, 176840, Control_c, 0, 67, 83
1, 176855, Control_c, 0, 64, 28
1, 176855, Control_c, 0, 67, 101
1, 176870, Control_c, 0, 64, 46
1, 176870, Control_c, 0, 67, 115
1, 176885, Control_c, 0, 64, 60
1, 176885, Control_c, 0, 67, 119
1, 176900, Control_c, 0, 64, 65
1, 176900, Control_c, 0, 67, 123
1, 176914, Control_c, 0, 64, 68
1, 176914, Control_c, 0, 67, 127
1, 176929, Control_c, 0, 64, 70
1, 176929, Control_c, 0, 67, 127
1, 176944, Control_c, 0, 64, 71
1, 176959, Control_c, 0, 64, 72
1, 176965, Note_on_c, 0, 64, 42
1, 176973, Control_c, 0, 64, 74
1, 176988, Control_c, 0, 64, 76
1, 177003, Control_c, 0, 64, 77
1, 177018, Control_c, 0, 64, 79
1, 177033, Control_c, 0, 64, 80
1, 177048, Control_c, 0, 64, 81
1, 177053, Note_on_c, 0, 67, 50
1, 177063, Control_c, 0, 64, 81
1, 177085, Control_c, 0, 64, 82
1, 177118, Note_off_c, 0, 67, 39
1, 177147, Note_on_c, 0, 68, 55
1, 177172, Note_off_c, 0, 49, 39
1, 177178, Note_on_c, 0, 56, 38
1, 177209, Note_off_c, 0, 76, 61
1, 177211, Note_off_c, 0, 68, 55
1, 177222, Note_on_c, 0, 71, 52
1, 177266, Note_off_c, 0, 71, 57
1, 177271, Note_off_c, 0, 64, 31
1, 177273, Note_on_c, 0, 69, 58
1, 177278, Control_c, 0, 64, 81
1, 177281, Note_off_c, 0, 56, 0
1, 177308, Note_off_c, 0, 69, 55
1, 177308, Control_c, 0, 64, 81
1, 177318, Poly_aftertouch_c, 0, 56, 127
1, 177323, Control_c, 0, 64, 80
1, 177328, Note_on_c, 0, 68, 56
1, 177337, Control_c, 0, 64, 80
1, 177346, Note_off_c, 0, 68, 64
1, 177352, Control_c, 0, 64, 79
1, 177367, Control_c, 0, 64, 78
1, 177382, Control_c, 0, 64, 76
1, 177397, Control_c, 0, 64, 73
1, 177405, Poly_aftertouch_c, 0, 56, 0
1, 177410, Note_on_c, 0, 54, 41
1, 177412, Control_c, 0, 64, 68
1, 177418, Note_on_c, 0, 51, 34
1, 177420, Note_on_c, 0, 68, 47
1, 177427, Control_c, 0, 64, 62
1, 177441, Control_c, 0, 64, 53
1, 177456, Control_c, 0, 64, 37
1, 177471, Control_c, 0, 64, 0
1, 177478, Note_off_c, 0, 68, 0
1, 177478, Note_on_c, 0, 68, 33
1, 177545, Control_c, 0, 64, 28
1, 177560, Control_c, 0, 64, 44
1, 177575, Control_c, 0, 64, 56
1, 177589, Control_c, 0, 64, 63
1, 177604, Note_on_c, 0, 76, 51
1, 177604, Control_c, 0, 64, 65
1, 177619, Control_c, 0, 64, 66
1, 177626, Note_on_c, 0, 60, 38
1, 177634, Control_c, 0, 64, 67
1, 177649, Control_c, 0, 64, 69
1, 177663, Control_c, 0, 64, 71
1, 177678, Control_c, 0, 64, 74
1, 177693, Control_c, 0, 64, 76
1, 177708, Control_c, 0, 64, 78
1, 177723, Control_c, 0, 64, 79
1, 177737, Control_c, 0, 64, 81
1, 177777, Note_off_c, 0, 54, 38
1, 177793, Note_off_c, 0, 76, 56
1, 177799, Note_on_c, 0, 56, 40
1, 177804, Note_on_c, 0, 75, 58
1, 177804, Note_off_c, 0, 51, 41
1, 177822, Note_off_c, 0, 60, 40
1, 177824, Note_off_c, 0, 68, 44
1, 177952, Control_c, 0, 64, 80
1, 177967, Control_c, 0, 64, 79
1, 177978, Note_off_c, 0, 56, 39
1, 177981, Control_c, 0, 64, 77
1, 177996, Control_c, 0, 64, 75
1, 178005, Note_off_c, 0, 75, 60
1, 178012, Control_c, 0, 64, 71
1, 178014, Note_on_c, 0, 52, 41
1, 178014, Note_on_c, 0, 73, 58
1, 178027, Control_c, 0, 64, 64
1, 178042, Control_c, 0, 64, 54
1, 178057, Control_c, 0, 64, 36
1, 178072, Control_c, 0, 64, 0
1, 178101, Control_c, 0, 64, 26
1, 178116, Control_c, 0, 64, 46
1, 178131, Control_c, 0, 64, 60
1, 178146, Control_c, 0, 64, 67
1, 178160, Control_c, 0, 64, 73
1, 178160, Control_c, 0, 67, 124
1, 178175, Control_c, 0, 64, 79
1, 178175, Control_c, 0, 67, 121
1, 178190, Control_c, 0, 64, 87
1, 178190, Control_c, 0, 67, 119
1, 178205, Control_c, 0, 64, 98
1, 178205, Control_c, 0, 67, 118
1, 178211, Note_on_c, 0, 61, 45
1, 178220, Control_c, 0, 64, 127
1, 178220, Control_c, 0, 67, 115
1, 178234, Control_c, 0, 67, 112
1, 178249, Control_c, 0, 67, 111
1, 178277, Note_off_c, 0, 73, 58
1, 178294, Control_c, 0, 67, 111
1, 178309, Control_c, 0, 67, 110
1, 178309, Note_off_c, 0, 61, 0
1, 178309, Note_on_c, 0, 61, 11
1, 178321, Note_on_c, 0, 72, 53
1, 178324, Control_c, 0, 67, 109
1, 178348, Note_on_c, 0, 56, 37
1, 178353, Control_c, 0, 67, 107
1, 178361, Note_off_c, 0, 52, 46
1, 178368, Control_c, 0, 67, 104
1, 178382, Note_off_c, 0, 56, 51
1, 178382, Note_off_c, 0, 72, 53
1, 178383, Control_c, 0, 67, 102
1, 178393, Note_on_c, 0, 73, 62
1, 178398, Control_c, 0, 67, 99
1, 178412, Control_c, 0, 67, 97
1, 178443, Note_off_c, 0, 73, 58
1, 178452, Note_off_c, 0, 61, 50
1, 178467, Note_on_c, 0, 76, 62
1, 178472, Control_c, 0, 67, 96
1, 178486, Control_c, 0, 67, 95
1, 178501, Control_c, 0, 67, 91
1, 178516, Control_c, 0, 67, 87
1, 178528, Note_on_c, 0, 74, 60
1, 178531, Control_c, 0, 67, 83
1, 178546, Control_c, 0, 67, 80
1, 178560, Control_c, 0, 67, 78
1, 178561, Note_off_c, 0, 74, 66
1, 178562, Note_off_c, 0, 76, 62
1, 178572, Note_on_c, 0, 73, 65
1, 178575, Control_c, 0, 67, 77
1, 178598, Control_c, 0, 67, 76
1, 178606, Note_off_c, 0, 73, 66
1, 178612, Control_c, 0, 67, 74
1, 178619, Note_on_c, 0, 53, 47
1, 178623, Note_on_c, 0, 59, 31
1, 178627, Control_c, 0, 64, 92
1, 178627, Control_c, 0, 67, 72
1, 178642, Control_c, 0, 64, 74
1, 178642, Control_c, 0, 67, 70
1, 178652, Note_on_c, 0, 73, 72
1, 178657, Control_c, 0, 64, 61
1, 178657, Control_c, 0, 67, 67
1, 178672, Control_c, 0, 64, 44
1, 178672, Control_c, 0, 67, 65
1, 178686, Control_c, 0, 64, 21
1, 178686, Control_c, 0, 67, 62
1, 178701, Control_c, 0, 64, 13
1, 178701, Control_c, 0, 67, 58
1, 178716, Control_c, 0, 64, 29
1, 178716, Control_c, 0, 67, 55
1, 178730, Control_c, 0, 64, 45
1, 178730, Control_c, 0, 67, 50
1, 178745, Control_c, 0, 64, 58
1, 178745, Control_c, 0, 67, 44
1, 178760, Control_c, 0, 64, 65
1, 178760, Control_c, 0, 67, 37
1, 178775, Control_c, 0, 64, 69
1, 178775, Control_c, 0, 67, 29
1, 178790, Control_c, 0, 64, 73
1, 178790, Control_c, 0, 67, 22
1, 178806, Control_c, 0, 64, 75
1, 178806, Control_c, 0, 67, 14
1, 178821, Control_c, 0, 64, 78
1, 178821, Control_c, 0, 67, 9
1, 178835, Control_c, 0, 64, 82
1, 178835, Control_c, 0, 67, 0
1, 178850, Control_c, 0, 64, 86
1, 178865, Control_c, 0, 64, 89
1, 178875, Note_on_c, 0, 68, 44
1, 178880, Control_c, 0, 64, 91
1, 178881, Poly_aftertouch_c, 0, 57, 127
1, 178887, Note_on_c, 0, 85, 82
1, 178895, Control_c, 0, 64, 94
1, 178909, Control_c, 0, 64, 96
1, 178910, Note_off_c, 0, 73, 61
1, 178924, Control_c, 0, 64, 99
1, 178937, Note_off_c, 0, 68, 38
1, 178939, Control_c, 0, 64, 103
1, 178954, Control_c, 0, 64, 105
1, 178969, Control_c, 0, 64, 107
1, 178983, Control_c, 0, 64, 108
1, 178996, Poly_aftertouch_c, 0, 57, 0
1, 178998, Control_c, 0, 64, 108
1, 179033, Note_off_c, 0, 53, 43
1, 179060, Note_off_c, 0, 59, 33
1, 179104, Note_on_c, 0, 61, 33
1, 179153, Note_on_c, 0, 83, 83
1, 179196, Note_off_c, 0, 61, 0
1, 179200, Note_off_c, 0, 85, 62
1, 179206, Control_c, 0, 64, 108
1, 179263, Poly_aftertouch_c, 0, 61, 0
1, 179280, Control_c, 0, 64, 107
1, 179280, Control_c, 0, 67, 9
1, 179295, Control_c, 0, 64, 107
1, 179295, Control_c, 0, 67, 11
1, 179309, Control_c, 0, 64, 106
1, 179309, Control_c, 0, 67, 13
1, 179331, Control_c, 0, 64, 104
1, 179331, Control_c, 0, 67, 14
1, 179346, Control_c, 0, 64, 101
1, 179346, Control_c, 0, 67, 14
1, 179361, Control_c, 0, 64, 97
1, 179374, Note_on_c, 0, 54, 44
1, 179376, Control_c, 0, 64, 92
1, 179381, Note_on_c, 0, 57, 31
1, 179391, Control_c, 0, 64, 83
1, 179391, Control_c, 0, 67, 15
1, 179391, Note_on_c, 0, 81, 77
1, 179406, Control_c, 0, 64, 73
1, 179406, Control_c, 0, 67, 15
1, 179408, Note_off_c, 0, 83, 62
1, 179421, Control_c, 0, 64, 62
1, 179421, Control_c, 0, 67, 16
1, 179435, Control_c, 0, 64, 47
1, 179435, Control_c, 0, 67, 17
1, 179450, Control_c, 0, 64, 20
1, 179450, Control_c, 0, 67, 17
1, 179465, Control_c, 0, 64, 0
1, 179465, Control_c, 0, 67, 18
1, 179480, Control_c, 0, 67, 20
1, 179495, Control_c, 0, 64, 23
1, 179495, Control_c, 0, 67, 23
1, 179509, Control_c, 0, 64, 42
1, 179509, Control_c, 0, 67, 28
1, 179524, Control_c, 0, 64, 56
1, 179524, Control_c, 0, 67, 33
1, 179539, Control_c, 0, 64, 64
1, 179539, Control_c, 0, 67, 37
1, 179554, Control_c, 0, 64, 67
1, 179554, Control_c, 0, 67, 41
1, 179568, Control_c, 0, 64, 68
1, 179568, Control_c, 0, 67, 45
1, 179583, Control_c, 0, 64, 70
1, 179583, Control_c, 0, 67, 49
1, 179598, Control_c, 0, 64, 71
1, 179598, Control_c, 0, 67, 53
1, 179614, Control_c, 0, 64, 74
1, 179614, Control_c, 0, 67, 58
1, 179629, Control_c, 0, 64, 76
1, 179629, Control_c, 0, 67, 61
1, 179644, Control_c, 0, 64, 78
1, 179644, Control_c, 0, 67, 63
1, 179646, Note_on_c, 0, 66, 39
1, 179658, Control_c, 0, 64, 80
1, 179673, Control_c, 0, 64, 82
1, 179688, Control_c, 0, 64, 83
1, 179688, Control_c, 0, 67, 63
1, 179703, Control_c, 0, 64, 85
1, 179703, Control_c, 0, 67, 64
1, 179710, Note_on_c, 0, 72, 48
1, 179718, Control_c, 0, 64, 86
1, 179718, Control_c, 0, 67, 65
1, 179732, Control_c, 0, 64, 87
1, 179732, Control_c, 0, 67, 69
1, 179747, Control_c, 0, 64, 87
1, 179747, Control_c, 0, 67, 75
1, 179762, Control_c, 0, 67, 79
1, 179776, Control_c, 0, 67, 82
1, 179779, Note_off_c, 0, 72, 57
1, 179791, Control_c, 0, 67, 85
1, 179806, Control_c, 0, 67, 87
1, 179809, Note_on_c, 0, 73, 50
1, 179821, Control_c, 0, 67, 89
1, 179836, Control_c, 0, 67, 90
1, 179843, Note_on_c, 0, 61, 37
1, 179846, Note_off_c, 0, 66, 40
1, 179850, Control_c, 0, 67, 91
1, 179852, Note_on_c, 0, 76, 61
1, 179856, Note_off_c, 0, 81, 54
1, 179860, Note_off_c, 0, 73, 57
1, 179864, Note_off_c, 0, 54, 32
1, 179880, Control_c, 0, 67, 92
1, 179895, Control_c, 0, 67, 94
1, 179905, Note_off_c, 0, 57, 38
1, 179910, Control_c, 0, 67, 97
1, 179916, Note_off_c, 0, 76, 62
1, 179924, Note_on_c, 0, 74, 55
1, 179925, Control_c, 0, 67, 98
1, 179939, Control_c, 0, 67, 100
1, 179947, Note_off_c, 0, 74, 59
1, 179954, Control_c, 0, 67, 101
1, 179969, Control_c, 0, 67, 102
1, 179972, Note_on_c, 0, 73, 55
1, 179984, Control_c, 0, 67, 102
1, 179991, Note_off_c, 0, 73, 64
1, 179999, Control_c, 0, 67, 103
1, 180008, Note_off_c, 0, 61, 20
1, 180014, Control_c, 0, 64, 86
1, 180014, Control_c, 0, 67, 105
1, 180029, Control_c, 0, 64, 85
1, 180029, Control_c, 0, 67, 107
1, 180043, Note_on_c, 0, 73, 63
1, 180044, Control_c, 0, 64, 81
1, 180044, Control_c, 0, 67, 108
1, 180049, Note_on_c, 0, 59, 41
1, 180054, Note_on_c, 0, 56, 43
1, 180058, Control_c, 0, 64, 76
1, 180058, Control_c, 0, 67, 109
1, 180080, Control_c, 0, 64, 67
1, 180080, Control_c, 0, 67, 110
1, 180095, Control_c, 0, 64, 55
1, 180095, Control_c, 0, 67, 110
1, 180110, Control_c, 0, 64, 38
1, 180125, Control_c, 0, 64, 0
1, 180184, Control_c, 0, 64, 15
1, 180199, Control_c, 0, 64, 35
1, 180214, Control_c, 0, 64, 49
1, 180214, Control_c, 0, 67, 109
1, 180229, Control_c, 0, 64, 58
1, 180229, Control_c, 0, 67, 109
1, 180244, Note_on_c, 0, 81, 61
1, 180244, Control_c, 0, 64, 63
1, 180244, Control_c, 0, 67, 108
1, 180254, Note_on_c, 0, 65, 42
1, 180258, Control_c, 0, 64, 64
1, 180273, Control_c, 0, 64, 66
1, 180273, Control_c, 0, 67, 107
1, 180288, Control_c, 0, 64, 68
1, 180288, Control_c, 0, 67, 106
1, 180303, Control_c, 0, 64, 71
1, 180303, Control_c, 0, 67, 106
1, 180318, Control_c, 0, 64, 74
1, 180318, Control_c, 0, 67, 105
1, 180332, Control_c, 0, 64, 77
1, 180332, Control_c, 0, 67, 104
1, 180347, Control_c, 0, 64, 79
1, 180347, Control_c, 0, 67, 103
1, 180362, Control_c, 0, 64, 81
1, 180362, Control_c, 0, 67, 103
1, 180376, Control_c, 0, 64, 82
1, 180376, Control_c, 0, 67, 102
1, 180391, Control_c, 0, 64, 84
1, 180391, Control_c, 0, 67, 101
1, 180407, Control_c, 0, 64, 85
1, 180407, Control_c, 0, 67, 100
1, 180414, Note_off_c, 0, 81, 62
1, 180421, Note_on_c, 0, 80, 64
1, 180422, Control_c, 0, 67, 100
1, 180436, Note_on_c, 0, 61, 40
1, 180437, Control_c, 0, 67, 99
1, 180440, Note_off_c, 0, 73, 55
1, 180443, Note_off_c, 0, 56, 41
1, 180452, Control_c, 0, 67, 99
1, 180460, Note_off_c, 0, 65, 45
1, 180467, Control_c, 0, 67, 98
1, 180481, Control_c, 0, 67, 97
1, 180496, Control_c, 0, 67, 97
1, 180511, Control_c, 0, 67, 96
1, 180526, Control_c, 0, 67, 96
1, 180570, Control_c, 0, 64, 83
1, 180584, Note_off_c, 0, 61, 44
1, 180585, Control_c, 0, 64, 79
1, 180585, Control_c, 0, 67, 95
1, 180586, Note_off_c, 0, 80, 54
1, 180594, Note_on_c, 0, 78, 63
1, 180599, Control_c, 0, 64, 71
1, 180599, Control_c, 0, 67, 95
1, 180609, Note_on_c, 0, 57, 45
1, 180614, Control_c, 0, 64, 62
1, 180614, Control_c, 0, 67, 94
1, 180629, Control_c, 0, 64, 49
1, 180629, Control_c, 0, 67, 93
1, 180644, Control_c, 0, 64, 31
1, 180644, Control_c, 0, 67, 92
1, 180659, Control_c, 0, 64, 24
1, 180659, Control_c, 0, 67, 91
1, 180661, Note_off_c, 0, 59, 11
1, 180673, Control_c, 0, 64, 34
1, 180673, Control_c, 0, 67, 89
1, 180688, Control_c, 0, 64, 50
1, 180688, Control_c, 0, 67, 88
1, 180703, Control_c, 0, 64, 62
1, 180703, Control_c, 0, 67, 86
1, 180718, Control_c, 0, 64, 67
1, 180718, Control_c, 0, 67, 85
1, 180733, Control_c, 0, 64, 69
1, 180733, Control_c, 0, 67, 84
1, 180747, Control_c, 0, 64, 72
1, 180747, Control_c, 0, 67, 84
1, 180762, Control_c, 0, 64, 74
1, 180762, Control_c, 0, 67, 83
1, 180769, Note_off_c, 0, 78, 60
1, 180777, Control_c, 0, 64, 76
1, 180777, Control_c, 0, 67, 82
1, 180779, Note_on_c, 0, 66, 44
1, 180792, Control_c, 0, 64, 80
1, 180792, Control_c, 0, 67, 80
1, 180795, Note_on_c, 0, 72, 56
1, 180807, Control_c, 0, 64, 82
1, 180807, Control_c, 0, 67, 76
1, 180829, Control_c, 0, 64, 84
1, 180829, Control_c, 0, 67, 73
1, 180844, Control_c, 0, 64, 85
1, 180844, Control_c, 0, 67, 71
1, 180859, Control_c, 0, 64, 86
1, 180859, Control_c, 0, 67, 68
1, 180863, Note_off_c, 0, 66, 34
1, 180874, Control_c, 0, 64, 87
1, 180874, Control_c, 0, 67, 65
1, 180875, Note_on_c, 0, 73, 60
1, 180875, Note_off_c, 0, 72, 55
1, 180888, Control_c, 0, 67, 62
1, 180903, Control_c, 0, 67, 58
1, 180918, Note_on_c, 0, 61, 36
1, 180918, Control_c, 0, 67, 55
1, 180919, Note_off_c, 0, 73, 58
1, 180933, Control_c, 0, 67, 52
1, 180947, Note_on_c, 0, 76, 56
1, 180948, Control_c, 0, 67, 49
1, 180962, Control_c, 0, 67, 46
1, 180966, Note_off_c, 0, 61, 43
1, 180977, Control_c, 0, 67, 44
1, 180992, Control_c, 0, 67, 42
1, 180997, Note_on_c, 0, 74, 60
1, 181007, Control_c, 0, 67, 40
1, 181022, Control_c, 0, 67, 38
1, 181023, Note_off_c, 0, 57, 29
1, 181029, Note_off_c, 0, 76, 58
1, 181031, Note_off_c, 0, 74, 66
1, 181036, Control_c, 0, 67, 36
1, 181046, Note_on_c, 0, 73, 55
1, 181051, Control_c, 0, 67, 34
1, 181066, Control_c, 0, 67, 32
1, 181067, Note_off_c, 0, 73, 63
1, 181081, Control_c, 0, 64, 85
1, 181081, Control_c, 0, 67, 29
1, 181096, Control_c, 0, 64, 78
1, 181096, Control_c, 0, 67, 26
1, 181106, Note_on_c, 0, 53, 57
1, 181111, Control_c, 0, 64, 69
1, 181111, Control_c, 0, 67, 24
1, 181114, Note_on_c, 0, 73, 64
1, 181126, Control_c, 0, 64, 59
1, 181126, Control_c, 0, 67, 21
1, 181141, Control_c, 0, 64, 42
1, 181141, Control_c, 0, 67, 18
1, 181155, Control_c, 0, 64, 18
1, 181155, Control_c, 0, 67, 15
1, 181170, Control_c, 0, 64, 18
1, 181170, Control_c, 0, 67, 12
1, 181185, Control_c, 0, 64, 36
1, 181185, Control_c, 0, 67, 0
1, 181200, Control_c, 0, 64, 55
1, 181215, Control_c, 0, 64, 64
1, 181230, Control_c, 0, 64, 68
1, 181245, Control_c, 0, 64, 70
1, 181260, Control_c, 0, 64, 73
1, 181275, Control_c, 0, 64, 75
1, 181282, Note_on_c, 0, 85, 81
1, 181290, Note_off_c, 0, 73, 62
1, 181290, Control_c, 0, 64, 78
1, 181304, Control_c, 0, 64, 81
1, 181319, Control_c, 0, 64, 84
1, 181334, Control_c, 0, 64, 88
1, 181338, Note_on_c, 0, 68, 20
1, 181349, Control_c, 0, 64, 91
1, 181364, Control_c, 0, 64, 94
1, 181376, Note_off_c, 0, 68, 45
1, 181378, Control_c, 0, 64, 97
1, 181393, Control_c, 0, 64, 99
1, 181408, Control_c, 0, 64, 103
1, 181413, Note_off_c, 0, 53, 36
1, 181422, Control_c, 0, 64, 106
1, 181437, Control_c, 0, 64, 111
1, 181451, Note_on_c, 0, 61, 39
1, 181452, Control_c, 0, 64, 119
1, 181456, Note_on_c, 0, 83, 83
1, 181467, Control_c, 0, 64, 127
1, 181493, Note_off_c, 0, 85, 63
1, 181561, Note_off_c, 0, 61, 35
1, 181614, Note_on_c, 0, 54, 47
1, 181630, Note_on_c, 0, 57, 39
1, 181653, Control_c, 0, 64, 122
1, 181668, Control_c, 0, 64, 101
1, 181676, Note_on_c, 0, 81, 78
1, 181683, Control_c, 0, 64, 86
1, 181691, Note_off_c, 0, 83, 65
1, 181698, Control_c, 0, 64, 71
1, 181712, Control_c, 0, 64, 56
1, 181727, Control_c, 0, 64, 37
1, 181742, Control_c, 0, 64, 27
1, 181756, Control_c, 0, 64, 37
1, 181771, Control_c, 0, 64, 53
1, 181786, Control_c, 0, 64, 63
1, 181801, Control_c, 0, 64, 69
1, 181816, Control_c, 0, 64, 73
1, 181830, Control_c, 0, 64, 76
1, 181843, Note_on_c, 0, 69, 61
1, 181845, Control_c, 0, 64, 78
1, 181860, Control_c, 0, 64, 82
1, 181875, Control_c, 0, 64, 86
1, 181886, Poly_aftertouch_c, 0, 80, 127
1, 181890, Control_c, 0, 64, 91
1, 181904, Control_c, 0, 64, 97
1, 181919, Poly_aftertouch_c, 0, 80, 0
1, 181919, Control_c, 0, 64, 102
1, 181934, Control_c, 0, 64, 107
1, 181948, Note_on_c, 0, 72, 53
1, 181949, Control_c, 0, 64, 113
1, 181964, Control_c, 0, 64, 119
1, 181978, Control_c, 0, 64, 127
1, 182004, Note_off_c, 0, 72, 58
1, 182014, Note_off_c, 0, 69, 41
1, 182020, Note_on_c, 0, 73, 58
1, 182035, Note_off_c, 0, 54, 55
1, 182038, Note_on_c, 0, 61, 45
1, 182068, Note_on_c, 0, 76, 68
1, 182070, Note_off_c, 0, 73, 57
1, 182071, Note_off_c, 0, 81, 63
1, 182082, Note_off_c, 0, 57, 41
1, 182124, Note_on_c, 0, 74, 63
1, 182125, Note_off_c, 0, 76, 63
1, 182162, Note_off_c, 0, 74, 66
1, 182178, Note_on_c, 0, 73, 50
1, 182199, Note_off_c, 0, 73, 62
1, 182205, Note_off_c, 0, 61, 45
1, 182217, Control_c, 0, 64, 119
1, 182231, Note_on_c, 0, 73, 68
1, 182232, Control_c, 0, 64, 104
1, 182233, Note_on_c, 0, 56, 51
1, 182238, Note_on_c, 0, 59, 47
1, 182246, Control_c, 0, 64, 88
1, 182261, Control_c, 0, 64, 72
1, 182276, Control_c, 0, 64, 57
1, 182291, Control_c, 0, 64, 22
1, 182305, Control_c, 0, 64, 0
1, 182357, Control_c, 0, 64, 32
1, 182372, Control_c, 0, 64, 52
1, 182386, Control_c, 0, 64, 62
1, 182401, Control_c, 0, 64, 67
1, 182411, Note_on_c, 0, 81, 79
1, 182416, Control_c, 0, 64, 71
1, 182421, Note_on_c, 0, 65, 50
1, 182431, Control_c, 0, 64, 74
1, 182446, Control_c, 0, 64, 78
1, 182460, Control_c, 0, 64, 84
1, 182475, Control_c, 0, 64, 92
1, 182490, Control_c, 0, 64, 101
1, 182505, Control_c, 0, 64, 127
1, 182553, Note_off_c, 0, 56, 52
1, 182575, Note_on_c, 0, 80, 80
1, 182578, Note_off_c, 0, 65, 20
1, 182588, Note_on_c, 0, 61, 48
1, 182602, Note_off_c, 0, 81, 61
1, 182618, Note_off_c, 0, 73, 49
1, 182703, Note_off_c, 0, 61, 52
1, 182712, Note_off_c, 0, 59, 21
1, 182752, Note_on_c, 0, 78, 80
1, 182758, Note_on_c, 0, 57, 47
1, 182771, Control_c, 0, 64, 115
1, 182786, Control_c, 0, 64, 80
1, 182788, Note_off_c, 0, 80, 60
1, 182801, Control_c, 0, 64, 61
1, 182816, Control_c, 0, 64, 40
1, 182831, Control_c, 0, 64, 27
1, 182846, Control_c, 0, 64, 40
1, 182861, Control_c, 0, 64, 59
1, 182876, Control_c, 0, 64, 70
1, 182891, Control_c, 0, 64, 81
1, 182905, Control_c, 0, 64, 93
1, 182920, Control_c, 0, 64, 103
1, 182931, Note_on_c, 0, 66, 39
1, 182935, Control_c, 0, 64, 111
1, 182950, Control_c, 0, 64, 127
1, 182953, Note_off_c, 0, 78, 62
1, 182965, Note_on_c, 0, 72, 62
1, 182974, Note_off_c, 0, 66, 50
1, 183034, Note_on_c, 0, 61, 40
1, 183037, Note_off_c, 0, 57, 61
1, 183049, Note_on_c, 0, 73, 63
1, 183050, Note_off_c, 0, 72, 61
1, 183064, Note_off_c, 0, 61, 49
1, 183102, Note_off_c, 0, 73, 59
1, 183120, Note_on_c, 0, 76, 66
1, 183174, Note_on_c, 0, 74, 65
1, 183199, Note_off_c, 0, 76, 61
1, 183208, Note_off_c, 0, 74, 66
1, 183218, Note_on_c, 0, 73, 60
1, 183237, Note_off_c, 0, 73, 66
1, 183254, Control_c, 0, 64, 111
1, 183263, Note_on_c, 0, 45, 54
1, 183269, Control_c, 0, 64, 85
1, 183283, Control_c, 0, 64, 68
1, 183285, Note_on_c, 0, 73, 70
1, 183298, Control_c, 0, 64, 53
1, 183313, Control_c, 0, 64, 26
1, 183328, Control_c, 0, 64, 12
1, 183343, Control_c, 0, 64, 26
1, 183357, Control_c, 0, 64, 46
1, 183372, Control_c, 0, 64, 59
1, 183387, Control_c, 0, 64, 66
1, 183401, Control_c, 0, 64, 69
1, 183416, Control_c, 0, 64, 73
1, 183431, Control_c, 0, 64, 77
1, 183446, Control_c, 0, 64, 81
1, 183456, Note_on_c, 0, 80, 75
1, 183461, Control_c, 0, 64, 84
1, 183475, Control_c, 0, 64, 88
1, 183478, Note_on_c, 0, 61, 59
1, 183490, Control_c, 0, 64, 91
1, 183505, Control_c, 0, 64, 95
1, 183520, Control_c, 0, 64, 99
1, 183528, Note_off_c, 0, 61, 60
1, 183535, Control_c, 0, 64, 103
1, 183549, Poly_aftertouch_c, 0, 47, 0
1, 183549, Control_c, 0, 64, 104
1, 183549, Control_c, 0, 67, 8
1, 183550, Note_off_c, 0, 45, 17
1, 183564, Control_c, 0, 64, 104
1, 183579, Control_c, 0, 67, 8
1, 183611, Note_off_c, 0, 73, 60
1, 183630, Note_on_c, 0, 81, 76
1, 183633, Note_on_c, 0, 54, 49
1, 183663, Note_off_c, 0, 80, 49
1, 183675, Note_off_c, 0, 54, 60
1, 183728, Control_c, 0, 64, 104
1, 183758, Control_c, 0, 64, 103
1, 183773, Control_c, 0, 64, 100
1, 183788, Control_c, 0, 64, 98
1, 183803, Control_c, 0, 64, 94
1, 183811, Note_on_c, 0, 44, 70
1, 183824, Note_on_c, 0, 51, 68
1, 183824, Control_c, 0, 64, 87
1, 183839, Control_c, 0, 64, 78
1, 183854, Control_c, 0, 64, 67
1, 183854, Control_c, 0, 67, 9
1, 183869, Control_c, 0, 64, 54
1, 183884, Control_c, 0, 64, 29
1, 183884, Control_c, 0, 67, 9
1, 183892, Note_on_c, 0, 80, 65
1, 183898, Note_off_c, 0, 81, 52
1, 183898, Control_c, 0, 64, 0
1, 183928, Control_c, 0, 64, 37
1, 183943, Control_c, 0, 64, 56
1, 183958, Control_c, 0, 64, 65
1, 183958, Control_c, 0, 67, 10
1, 183973, Control_c, 0, 64, 69
1, 183973, Control_c, 0, 67, 10
1, 183988, Control_c, 0, 64, 72
1, 183988, Control_c, 0, 67, 11
1, 184002, Control_c, 0, 64, 75
1, 184002, Control_c, 0, 67, 12
1, 184008, Note_off_c, 0, 44, 56
1, 184017, Control_c, 0, 64, 77
1, 184029, Note_off_c, 0, 80, 55
1, 184032, Control_c, 0, 64, 81
1, 184032, Control_c, 0, 67, 12
1, 184047, Control_c, 0, 64, 84
1, 184047, Control_c, 0, 67, 13
1, 184062, Control_c, 0, 64, 87
1, 184062, Control_c, 0, 67, 13
1, 184077, Control_c, 0, 64, 90
1, 184077, Control_c, 0, 67, 14
1, 184083, Note_on_c, 0, 67, 51
1, 184092, Control_c, 0, 64, 91
1, 184098, Note_on_c, 0, 60, 46
1, 184106, Control_c, 0, 64, 92
1, 184150, Control_c, 0, 64, 92
1, 184176, Note_on_c, 0, 68, 58
1, 184184, Note_off_c, 0, 67, 50
1, 184210, Note_off_c, 0, 51, 31
1, 184210, Control_c, 0, 67, 14
1, 184223, Note_off_c, 0, 68, 62
1, 184229, Note_on_c, 0, 71, 59
1, 184238, Note_on_c, 0, 54, 45
1, 184239, Control_c, 0, 64, 92
1, 184293, Note_on_c, 0, 69, 64
1, 184298, Control_c, 0, 64, 91
1, 184298, Control_c, 0, 67, 13
1, 184313, Control_c, 0, 64, 90
1, 184319, Note_off_c, 0, 71, 55
1, 184328, Control_c, 0, 64, 88
1, 184332, Note_off_c, 0, 69, 67
1, 184336, Note_on_c, 0, 68, 67
1, 184342, Control_c, 0, 64, 86
1, 184354, Note_off_c, 0, 68, 66
1, 184357, Control_c, 0, 64, 83
1, 184372, Control_c, 0, 64, 77
1, 184387, Control_c, 0, 64, 68
1, 184394, Note_off_c, 0, 60, 30
1, 184403, Control_c, 0, 64, 60
1, 184418, Control_c, 0, 64, 43
1, 184419, Note_on_c, 0, 68, 70
1, 184426, Note_on_c, 0, 52, 49
1, 184426, Note_off_c, 0, 54, 57
1, 184433, Control_c, 0, 64, 19
1, 184447, Control_c, 0, 64, 0
1, 184507, Control_c, 0, 64, 27
1, 184507, Control_c, 0, 67, 14
1, 184522, Control_c, 0, 64, 50
1, 184536, Control_c, 0, 64, 61
1, 184552, Control_c, 0, 64, 65
1, 184552, Control_c, 0, 67, 14
1, 184575, Control_c, 0, 64, 67
1, 184590, Control_c, 0, 64, 68
1, 184604, Control_c, 0, 64, 70
1, 184605, Note_on_c, 0, 78, 68
1, 184619, Note_on_c, 0, 61, 43
1, 184619, Control_c, 0, 64, 73
1, 184634, Control_c, 0, 64, 77
1, 184648, Control_c, 0, 64, 80
1, 184663, Control_c, 0, 64, 82
1, 184678, Control_c, 0, 64, 84
1, 184684, Note_off_c, 0, 61, 56
1, 184693, Control_c, 0, 64, 85
1, 184708, Control_c, 0, 64, 86
1, 184722, Control_c, 0, 64, 86
1, 184737, Control_c, 0, 64, 87
1, 184775, Note_off_c, 0, 68, 60
1, 184777, Note_on_c, 0, 76, 71
1, 184781, Control_c, 0, 67, 15
1, 184788, Note_on_c, 0, 56, 41
1, 184794, Note_off_c, 0, 78, 58
1, 184811, Control_c, 0, 67, 15
1, 184820, Note_off_c, 0, 56, 54
1, 184825, Note_off_c, 0, 52, 47
1, 184900, Control_c, 0, 67, 16
1, 184944, Control_c, 0, 64, 86
1, 184944, Control_c, 0, 67, 16
1, 184959, Control_c, 0, 64, 84
1, 184974, Control_c, 0, 64, 81
1, 184982, Note_on_c, 0, 44, 57
1, 184984, Note_off_c, 0, 76, 58
1, 184988, Note_on_c, 0, 75, 72
1, 184989, Control_c, 0, 64, 75
1, 185001, Note_on_c, 0, 54, 50
1, 185004, Control_c, 0, 64, 67
1, 185004, Control_c, 0, 67, 17
1, 185019, Control_c, 0, 64, 58
1, 185019, Control_c, 0, 67, 19
1, 185034, Control_c, 0, 64, 37
1, 185034, Control_c, 0, 67, 22
1, 185048, Control_c, 0, 64, 0
1, 185048, Control_c, 0, 67, 25
1, 185063, Control_c, 0, 67, 27
1, 185078, Control_c, 0, 64, 29
1, 185078, Control_c, 0, 67, 28
1, 185093, Control_c, 0, 64, 49
1, 185093, Control_c, 0, 67, 29
1, 185108, Control_c, 0, 64, 61
1, 185108, Control_c, 0, 67, 30
1, 185116, Note_off_c, 0, 44, 53
1, 185122, Control_c, 0, 64, 68
1, 185122, Control_c, 0, 67, 31
1, 185137, Control_c, 0, 64, 71
1, 185137, Control_c, 0, 67, 32
1, 185152, Control_c, 0, 64, 73
1, 185152, Control_c, 0, 67, 33
1, 185167, Control_c, 0, 64, 74
1, 185167, Control_c, 0, 67, 34
1, 185181, Control_c, 0, 64, 77
1, 185181, Control_c, 0, 67, 35
1, 185197, Control_c, 0, 64, 80
1, 185212, Control_c, 0, 64, 83
1, 185215, Note_on_c, 0, 67, 48
1, 185222, Note_on_c, 0, 60, 44
1, 185227, Control_c, 0, 64, 87
1, 185242, Control_c, 0, 64, 89
1, 185248, Note_off_c, 0, 54, 55
1, 185257, Control_c, 0, 64, 89
1, 185257, Control_c, 0, 67, 35
1, 185281, Note_off_c, 0, 67, 36
1, 185305, Note_on_c, 0, 68, 50
1, 185365, Note_off_c, 0, 68, 49
1, 185380, Note_on_c, 0, 71, 59
1, 185391, Note_off_c, 0, 75, 52
1, 185415, Note_on_c, 0, 56, 44
1, 185432, Note_off_c, 0, 71, 57
1, 185442, Control_c, 0, 64, 89
1, 185447, Note_on_c, 0, 69, 62
1, 185449, Note_off_c, 0, 60, 33
1, 185457, Control_c, 0, 64, 88
1, 185471, Control_c, 0, 64, 87
1, 185485, Note_off_c, 0, 69, 65
1, 185486, Control_c, 0, 64, 87
1, 185492, Note_off_c, 0, 56, 0
1, 185501, Note_on_c, 0, 68, 53
1, 185501, Control_c, 0, 64, 86
1, 185516, Control_c, 0, 64, 86
1, 185529, Note_off_c, 0, 68, 56
1, 185529, Poly_aftertouch_c, 0, 56, 127
1, 185531, Control_c, 0, 64, 85
1, 185531, Control_c, 0, 67, 36
1, 185545, Control_c, 0, 64, 84
1, 185560, Control_c, 0, 64, 83
1, 185575, Control_c, 0, 64, 82
1, 185590, Control_c, 0, 64, 80
1, 185594, Poly_aftertouch_c, 0, 56, 0
1, 185604, Control_c, 0, 64, 77
1, 185607, Note_on_c, 0, 68, 53
1, 185615, Note_on_c, 0, 52, 50
1, 185619, Control_c, 0, 64, 71
1, 185619, Control_c, 0, 67, 36
1, 185634, Control_c, 0, 64, 63
1, 185634, Control_c, 0, 67, 37
1, 185648, Note_off_c, 0, 68, 0
1, 185648, Note_on_c, 0, 68, 24
1, 185649, Control_c, 0, 64, 51
1, 185649, Control_c, 0, 67, 39
1, 185664, Control_c, 0, 64, 29
1, 185664, Control_c, 0, 67, 43
1, 185678, Control_c, 0, 64, 0
1, 185678, Control_c, 0, 67, 48
1, 185693, Control_c, 0, 67, 52
1, 185708, Control_c, 0, 67, 55
1, 185723, Control_c, 0, 67, 57
1, 185738, Control_c, 0, 64, 33
1, 185738, Control_c, 0, 67, 58
1, 185752, Control_c, 0, 64, 51
1, 185767, Control_c, 0, 64, 62
1, 185767, Control_c, 0, 67, 59
1, 185778, Note_on_c, 0, 75, 56
1, 185782, Control_c, 0, 64, 66
1, 185782, Control_c, 0, 67, 61
1, 185792, Note_on_c, 0, 61, 52
1, 185797, Control_c, 0, 64, 67
1, 185797, Control_c, 0, 67, 63
1, 185812, Control_c, 0, 64, 68
1, 185812, Control_c, 0, 67, 64
1, 185827, Control_c, 0, 64, 70
1, 185827, Control_c, 0, 67, 65
1, 185842, Control_c, 0, 64, 72
1, 185842, Control_c, 0, 67, 66
1, 185857, Control_c, 0, 64, 75
1, 185871, Control_c, 0, 64, 78
1, 185886, Control_c, 0, 64, 80
1, 185901, Control_c, 0, 64, 82
1, 185915, Control_c, 0, 64, 84
1, 185930, Control_c, 0, 64, 84
1, 185930, Control_c, 0, 67, 67
1, 185943, Note_off_c, 0, 61, 58
1, 185945, Control_c, 0, 64, 85
1, 185959, Note_off_c, 0, 75, 61
1, 185960, Control_c, 0, 64, 86
1, 185960, Control_c, 0, 67, 67
1, 185961, Note_on_c, 0, 73, 61
1, 185961, Note_on_c, 0, 56, 60
1, 185975, Control_c, 0, 64, 86
1, 185979, Note_off_c, 0, 52, 59
1, 185985, Note_off_c, 0, 56, 63
1, 185990, Control_c, 0, 64, 87
1, 185990, Control_c, 0, 67, 68
1, 186006, Control_c, 0, 67, 70
1, 186020, Control_c, 0, 67, 72
1, 186101, Control_c, 0, 64, 86
1, 186116, Control_c, 0, 64, 85
1, 186116, Control_c, 0, 67, 72
1, 186131, Control_c, 0, 64, 82
1, 186146, Control_c, 0, 64, 78
1, 186161, Control_c, 0, 64, 71
1, 186161, Control_c, 0, 67, 73
1, 186175, Control_c, 0, 64, 63
1, 186175, Control_c, 0, 67, 73
1, 186177, Note_on_c, 0, 72, 63
1, 186190, Control_c, 0, 64, 51
1, 186190, Control_c, 0, 67, 74
1, 186193, Note_on_c, 0, 44, 43
1, 186201, Note_on_c, 0, 51, 37
1, 186202, Note_off_c, 0, 73, 47
1, 186205, Control_c, 0, 64, 28
1, 186205, Control_c, 0, 67, 75
1, 186219, Control_c, 0, 64, 0
1, 186219, Control_c, 0, 67, 78
1, 186234, Control_c, 0, 67, 82
1, 186249, Control_c, 0, 67, 86
1, 186262, Note_off_c, 0, 68, 45
1, 186264, Control_c, 0, 64, 20
1, 186264, Control_c, 0, 67, 90
1, 186279, Control_c, 0, 64, 44
1, 186279, Control_c, 0, 67, 93
1, 186293, Control_c, 0, 64, 59
1, 186293, Control_c, 0, 67, 96
1, 186308, Control_c, 0, 64, 66
1, 186308, Control_c, 0, 67, 98
1, 186323, Control_c, 0, 64, 69
1, 186323, Control_c, 0, 67, 100
1, 186338, Control_c, 0, 64, 71
1, 186338, Control_c, 0, 67, 101
1, 186353, Control_c, 0, 64, 73
1, 186353, Control_c, 0, 67, 102
1, 186363, Note_off_c, 0, 44, 33
1, 186367, Control_c, 0, 64, 75
1, 186367, Control_c, 0, 67, 103
1, 186382, Control_c, 0, 64, 77
1, 186397, Control_c, 0, 64, 80
1, 186412, Control_c, 0, 64, 83
1, 186412, Control_c, 0, 67, 103
1, 186426, Note_on_c, 0, 60, 53
1, 186426, Control_c, 0, 64, 86
1, 186441, Control_c, 0, 64, 87
1, 186441, Control_c, 0, 67, 104
1, 186451, Note_off_c, 0, 72, 56
1, 186456, Control_c, 0, 64, 87
1, 186456, Control_c, 0, 67, 105
1, 186471, Control_c, 0, 67, 106
1, 186515, Control_c, 0, 67, 106
1, 186525, Note_on_c, 0, 67, 50
1, 186530, Control_c, 0, 67, 108
1, 186545, Control_c, 0, 67, 109
1, 186591, Note_off_c, 0, 51, 38
1, 186614, Note_on_c, 0, 68, 56
1, 186631, Note_off_c, 0, 67, 42
1, 186634, Control_c, 0, 64, 87
1, 186641, Note_on_c, 0, 54, 32
1, 186649, Control_c, 0, 67, 109
1, 186664, Control_c, 0, 64, 86
1, 186664, Control_c, 0, 67, 110
1, 186665, Note_off_c, 0, 68, 56
1, 186679, Control_c, 0, 64, 86
1, 186689, Note_on_c, 0, 71, 55
1, 186693, Control_c, 0, 67, 110
1, 186708, Control_c, 0, 64, 85
1, 186708, Control_c, 0, 67, 111
1, 186723, Control_c, 0, 64, 85
1, 186723, Control_c, 0, 67, 112
1, 186737, Control_c, 0, 64, 84
1, 186737, Control_c, 0, 67, 112
1, 186752, Note_on_c, 0, 69, 57
1, 186752, Control_c, 0, 64, 83
1, 186752, Control_c, 0, 67, 113
1, 186767, Control_c, 0, 64, 82
1, 186767, Control_c, 0, 67, 115
1, 186776, Note_off_c, 0, 71, 50
1, 186782, Control_c, 0, 64, 81
1, 186782, Control_c, 0, 67, 117
1, 186797, Control_c, 0, 64, 80
1, 186797, Control_c, 0, 67, 119
1, 186799, Note_off_c, 0, 69, 66
1, 186806, Note_on_c, 0, 68, 57
1, 186819, Control_c, 0, 64, 79
1, 186819, Control_c, 0, 67, 121
1, 186834, Control_c, 0, 64, 77
1, 186834, Control_c, 0, 67, 123
1, 186841, Note_off_c, 0, 68, 56
1, 186849, Control_c, 0, 64, 76
1, 186849, Control_c, 0, 67, 124
1, 186864, Control_c, 0, 64, 72
1, 186864, Control_c, 0, 67, 126
1, 186879, Control_c, 0, 64, 68
1, 186879, Control_c, 0, 67, 127
1, 186894, Control_c, 0, 64, 62
1, 186894, Control_c, 0, 67, 127
1, 186907, Note_off_c, 0, 60, 34
1, 186908, Note_on_c, 0, 68, 46
1, 186909, Control_c, 0, 64, 52
1, 186911, Note_on_c, 0, 52, 45
1, 186923, Control_c, 0, 64, 37
1, 186931, Note_off_c, 0, 54, 41
1, 186938, Control_c, 0, 64, 0
1, 187101, Control_c, 0, 64, 29
1, 187115, Control_c, 0, 64, 46
1, 187130, Control_c, 0, 64, 57
1, 187145, Control_c, 0, 64, 60
1, 187160, Control_c, 0, 64, 61
1, 187164, Note_on_c, 0, 78, 59
1, 187174, Control_c, 0, 64, 62
1, 187176, Note_on_c, 0, 61, 38
1, 187189, Control_c, 0, 64, 64
1, 187204, Control_c, 0, 64, 65
1, 187219, Control_c, 0, 64, 67
1, 187234, Control_c, 0, 64, 70
1, 187249, Control_c, 0, 64, 72
1, 187264, Control_c, 0, 64, 73
1, 187278, Control_c, 0, 64, 75
1, 187293, Control_c, 0, 64, 77
1, 187308, Control_c, 0, 64, 78
1, 187310, Note_off_c, 0, 61, 33
1, 187323, Control_c, 0, 64, 78
1, 187404, Note_on_c, 0, 56, 41
1, 187426, Note_on_c, 0, 76, 57
1, 187442, Note_off_c, 0, 78, 57
1, 187449, Note_off_c, 0, 56, 48
1, 187478, Note_off_c, 0, 68, 56
1, 187582, Control_c, 0, 64, 78
1, 187642, Control_c, 0, 64, 77
1, 187672, Control_c, 0, 64, 77
1, 187702, Control_c, 0, 64, 76
1, 187732, Control_c, 0, 64, 76
1, 187746, Control_c, 0, 64, 74
1, 187752, Note_on_c, 0, 47, 40
1, 187761, Control_c, 0, 64, 72
1, 187776, Control_c, 0, 64, 69
1, 187782, Note_off_c, 0, 52, 36
1, 187790, Control_c, 0, 64, 65
1, 187805, Control_c, 0, 64, 58
1, 187810, Note_off_c, 0, 76, 58
1, 187820, Control_c, 0, 64, 47
1, 187823, Note_on_c, 0, 75, 49
1, 187834, Note_on_c, 0, 69, 33
1, 187835, Control_c, 0, 64, 22
1, 187850, Control_c, 0, 64, 0
1, 188027, Control_c, 0, 64, 24
1, 188042, Control_c, 0, 64, 38
1, 188057, Control_c, 0, 64, 48
1, 188071, Control_c, 0, 64, 56
1, 188080, Note_on_c, 0, 54, 31
1, 188086, Control_c, 0, 64, 59
1, 188101, Control_c, 0, 64, 60
1, 188116, Control_c, 0, 64, 61
1, 188131, Control_c, 0, 64, 63
1, 188146, Control_c, 0, 64, 64
1, 188161, Control_c, 0, 64, 66
1, 188176, Control_c, 0, 64, 67
1, 188190, Control_c, 0, 64, 69
1, 188205, Control_c, 0, 64, 71
1, 188206, Note_off_c, 0, 69, 46
1, 188218, Note_on_c, 0, 70, 47
1, 188220, Control_c, 0, 64, 72
1, 188235, Control_c, 0, 64, 74
1, 188250, Control_c, 0, 64, 74
1, 188264, Control_c, 0, 64, 75
1, 188268, Note_off_c, 0, 70, 44
1, 188284, Note_off_c, 0, 75, 51
1, 188294, Control_c, 0, 64, 75
1, 188339, Note_on_c, 0, 71, 52
1, 188384, Note_on_c, 0, 57, 33
1, 188385, Note_off_c, 0, 71, 56
1, 188418, Poly_aftertouch_c, 0, 48, 127
1, 188432, Note_on_c, 0, 75, 52
1, 188512, Note_off_c, 0, 75, 0
1, 188533, Note_on_c, 0, 73, 55
1, 188590, Note_off_c, 0, 73, 49
1, 188605, Poly_aftertouch_c, 0, 75, 0
1, 188616, Note_on_c, 0, 71, 50
1, 188639, Note_off_c, 0, 71, 57
1, 188658, Control_c, 0, 64, 75
1, 188673, Control_c, 0, 64, 74
1, 188687, Control_c, 0, 64, 72
1, 188702, Control_c, 0, 64, 70
1, 188717, Control_c, 0, 64, 67
1, 188721, Note_on_c, 0, 71, 55
1, 188732, Control_c, 0, 64, 63
1, 188747, Control_c, 0, 64, 54
1, 188761, Control_c, 0, 64, 42
1, 188766, Note_on_c, 0, 63, 30
1, 188776, Control_c, 0, 64, 21
1, 188780, Note_off_c, 0, 71, 0
1, 188791, Control_c, 0, 64, 0
1, 188817, Poly_aftertouch_c, 0, 71, 127
1, 188823, Note_on_c, 0, 71, 8
1, 188909, Control_c, 0, 64, 12
1, 188924, Control_c, 0, 64, 29
1, 188939, Control_c, 0, 64, 46
1, 188954, Control_c, 0, 64, 55
1, 188969, Control_c, 0, 64, 60
1, 188984, Control_c, 0, 64, 61
1, 188998, Control_c, 0, 64, 62
1, 189013, Control_c, 0, 64, 63
1, 189028, Control_c, 0, 64, 64
1, 189043, Control_c, 0, 64, 65
1, 189058, Control_c, 0, 64, 67
1, 189080, Control_c, 0, 64, 68
1, 189094, Control_c, 0, 64, 70
1, 189108, Note_on_c, 0, 76, 49
1, 189109, Control_c, 0, 64, 71
1, 189124, Control_c, 0, 64, 73
1, 189126, Note_off_c, 0, 71, 35
1, 189139, Control_c, 0, 64, 74
1, 189153, Poly_aftertouch_c, 0, 52, 127
1, 189153, Control_c, 0, 64, 77
1, 189168, Control_c, 0, 64, 79
1, 189183, Control_c, 0, 64, 80
1, 189199, Control_c, 0, 64, 81
1, 189214, Control_c, 0, 64, 81
1, 189229, Control_c, 0, 64, 82
1, 189268, Note_off_c, 0, 76, 62
1, 189362, Control_c, 0, 64, 82
1, 189374, Note_off_c, 0, 63, 37
1, 189407, Control_c, 0, 64, 83
1, 189422, Control_c, 0, 64, 84
1, 189436, Control_c, 0, 64, 84
1, 189451, Control_c, 0, 64, 85
1, 189492, Note_off_c, 0, 47, 1
1, 189496, Control_c, 0, 64, 85
1, 189560, Poly_aftertouch_c, 0, 48, 0
1, 189580, Note_on_c, 0, 78, 48
1, 189605, Note_off_c, 0, 57, 39
1, 189625, Poly_aftertouch_c, 0, 52, 0
1, 189677, Note_off_c, 0, 54, 41
1, 189680, Note_off_c, 0, 78, 59
1, 190052, Control_c, 0, 64, 85
1, 190065, Note_on_c, 0, 52, 41
1, 190066, Control_c, 0, 64, 84
1, 190081, Control_c, 0, 64, 83
1, 190096, Control_c, 0, 64, 80
1, 190111, Control_c, 0, 64, 74
1, 190126, Control_c, 0, 64, 66
1, 190127, Note_on_c, 0, 68, 45
1, 190140, Control_c, 0, 64, 56
1, 190155, Control_c, 0, 64, 41
1, 190170, Control_c, 0, 64, 38
1, 190185, Control_c, 0, 64, 48
1, 190185, Note_off_c, 0, 68, 41
1, 190200, Control_c, 0, 64, 59
1, 190215, Control_c, 0, 64, 65
1, 190230, Control_c, 0, 64, 68
1, 190244, Note_on_c, 0, 71, 54
1, 190244, Control_c, 0, 64, 70
1, 190259, Control_c, 0, 64, 72
1, 190274, Control_c, 0, 64, 73
1, 190289, Control_c, 0, 64, 76
1, 190293, Note_off_c, 0, 71, 54
1, 190304, Control_c, 0, 64, 78
1, 190319, Control_c, 0, 64, 80
1, 190333, Control_c, 0, 64, 81
1, 190338, Note_on_c, 0, 76, 58
1, 190340, Note_on_c, 0, 59, 24
1, 190340, Note_on_c, 0, 64, 21
1, 190348, Control_c, 0, 64, 83
1, 190363, Control_c, 0, 64, 84
1, 190378, Control_c, 0, 64, 85
1, 190382, Note_off_c, 0, 76, 62
1, 190387, Note_off_c, 0, 64, 47
1, 190415, Note_on_c, 0, 80, 57
1, 190430, Note_off_c, 0, 59, 31
1, 190453, Note_off_c, 0, 52, 40
1, 190465, Note_on_c, 0, 56, 40
1, 190468, Note_off_c, 0, 80, 59
1, 190486, Note_on_c, 0, 78, 41
1, 190498, Note_off_c, 0, 56, 50
1, 190514, Note_off_c, 0, 78, 53
1, 190532, Note_on_c, 0, 76, 37
1, 190569, Note_off_c, 0, 76, 53
1, 190585, Note_on_c, 0, 80, 55
1, 190592, Note_on_c, 0, 51, 50
1, 190605, Note_off_c, 0, 80, 62
1, 190620, Note_off_c, 0, 51, 54
1, 190644, Note_on_c, 0, 83, 64
1, 190664, Note_off_c, 0, 83, 65
1, 190709, Note_on_c, 0, 88, 63
1, 190717, Note_on_c, 0, 64, 41
1, 190732, Note_off_c, 0, 88, 65
1, 190739, Note_on_c, 0, 59, 33
1, 190745, Note_off_c, 0, 64, 55
1, 190754, Note_on_c, 0, 92, 61
1, 190776, Note_off_c, 0, 59, 53
1, 190814, Note_on_c, 0, 56, 42
1, 190817, Note_on_c, 0, 90, 70
1, 190829, Note_off_c, 0, 92, 62
1, 190868, Note_off_c, 0, 56, 42
1, 190874, Note_on_c, 0, 88, 63
1, 190875, Control_c, 0, 64, 84
1, 190882, Note_off_c, 0, 90, 64
1, 190889, Control_c, 0, 64, 78
1, 190895, Note_off_c, 0, 88, 66
1, 190904, Control_c, 0, 64, 68
1, 190918, Note_on_c, 0, 49, 57
1, 190919, Control_c, 0, 64, 55
1, 190933, Note_on_c, 0, 83, 67
1, 190934, Control_c, 0, 64, 35
1, 190949, Control_c, 0, 64, 34
1, 190963, Note_off_c, 0, 83, 67
1, 190963, Control_c, 0, 64, 52
1, 190978, Control_c, 0, 64, 65
1, 190993, Control_c, 0, 64, 74
1, 190998, Note_on_c, 0, 80, 72
1, 191008, Control_c, 0, 64, 82
1, 191020, Note_off_c, 0, 49, 59
1, 191022, Control_c, 0, 64, 88
1, 191037, Control_c, 0, 64, 91
1, 191052, Control_c, 0, 64, 94
1, 191061, Note_on_c, 0, 78, 67
1, 191063, Note_on_c, 0, 59, 47
1, 191067, Control_c, 0, 64, 100
1, 191080, Note_off_c, 0, 80, 54
1, 191082, Control_c, 0, 64, 110
1, 191088, Note_on_c, 0, 64, 44
1, 191097, Control_c, 0, 64, 127
1, 191104, Note_off_c, 0, 59, 56
1, 191116, Note_on_c, 0, 76, 70
1, 191116, Note_off_c, 0, 64, 59
1, 191127, Note_off_c, 0, 78, 62
1, 191135, Note_on_c, 0, 56, 50
1, 191145, Note_off_c, 0, 76, 66
1, 191160, Note_off_c, 0, 56, 57
1, 191172, Note_on_c, 0, 71, 62
1, 191213, Note_off_c, 0, 71, 62
1, 191249, Note_on_c, 0, 68, 64
1, 191312, Note_on_c, 0, 47, 52
1, 191324, Note_on_c, 0, 66, 70
1, 191352, Note_off_c, 0, 68, 57
1, 191388, Note_on_c, 0, 64, 57
1, 191388, Note_off_c, 0, 66, 63
1, 191422, Note_off_c, 0, 64, 65
1, 191430, Control_c, 0, 67, 126
1, 191434, Note_on_c, 0, 59, 59
1, 191445, Control_c, 0, 67, 121
1, 191460, Control_c, 0, 67, 119
1, 191465, Note_off_c, 0, 59, 66
1, 191489, Control_c, 0, 67, 119
1, 191492, Note_on_c, 0, 68, 61
1, 191504, Control_c, 0, 67, 118
1, 191519, Control_c, 0, 67, 117
1, 191533, Control_c, 0, 67, 115
1, 191548, Control_c, 0, 67, 113
1, 191556, Note_on_c, 0, 66, 68
1, 191563, Control_c, 0, 67, 111
1, 191578, Control_c, 0, 67, 109
1, 191594, Control_c, 0, 67, 108
1, 191598, Note_off_c, 0, 68, 52
1, 191609, Control_c, 0, 67, 107
1, 191616, Note_on_c, 0, 64, 64
1, 191620, Note_off_c, 0, 66, 62
1, 191624, Control_c, 0, 64, 92
1, 191624, Control_c, 0, 67, 107
1, 191638, Control_c, 0, 64, 63
1, 191638, Control_c, 0, 67, 106
1, 191652, Note_off_c, 0, 64, 59
1, 191653, Control_c, 0, 64, 0
1, 191668, Control_c, 0, 67, 105
1, 191677, Note_on_c, 0, 61, 69
1, 191679, Note_on_c, 0, 45, 70
1, 191683, Control_c, 0, 64, 24
1, 191683, Control_c, 0, 67, 103
1, 191698, Control_c, 0, 64, 61
1, 191698, Control_c, 0, 67, 100
1, 191712, Control_c, 0, 64, 79
1, 191712, Control_c, 0, 67, 97
1, 191713, Note_off_c, 0, 61, 63
1, 191719, Note_off_c, 0, 47, 33
1, 191721, Note_off_c, 0, 45, 61
1, 191727, Control_c, 0, 64, 113
1, 191727, Control_c, 0, 67, 93
1, 191741, Note_on_c, 0, 64, 53
1, 191742, Control_c, 0, 64, 127
1, 191742, Control_c, 0, 67, 89
1, 191757, Control_c, 0, 67, 85
1, 191769, Note_off_c, 0, 64, 58
1, 191772, Control_c, 0, 67, 80
1, 191786, Control_c, 0, 67, 75
1, 191795, Note_on_c, 0, 66, 68
1, 191801, Control_c, 0, 67, 68
1, 191816, Control_c, 0, 67, 60
1, 191827, Note_off_c, 0, 66, 63
1, 191830, Control_c, 0, 67, 53
1, 191845, Control_c, 0, 67, 46
1, 191860, Control_c, 0, 67, 40
1, 191865, Note_on_c, 0, 64, 44
1, 191871, Note_on_c, 0, 61, 37
1, 191874, Note_on_c, 0, 69, 71
1, 191875, Control_c, 0, 67, 31
1, 191890, Control_c, 0, 67, 21
1, 191891, Note_off_c, 0, 64, 59
1, 191905, Control_c, 0, 67, 10
1, 191907, Note_off_c, 0, 69, 62
1, 191908, Note_off_c, 0, 61, 49
1, 191920, Control_c, 0, 67, 0
1, 191930, Note_on_c, 0, 54, 61
1, 191937, Note_on_c, 0, 73, 67
1, 191958, Note_off_c, 0, 54, 67
1, 191994, Note_off_c, 0, 73, 63
1, 191997, Note_on_c, 0, 76, 68
1, 192049, Note_on_c, 0, 78, 72
1, 192066, Note_off_c, 0, 76, 63
1, 192079, Note_on_c, 0, 42, 68
1, 192082, Note_off_c, 0, 78, 67
1, 192111, Note_off_c, 0, 42, 64
1, 192125, Note_on_c, 0, 81, 76
1, 192161, Note_off_c, 0, 81, 55
1, 192195, Note_on_c, 0, 85, 73
1, 192251, Note_off_c, 0, 85, 62
1, 192260, Note_on_c, 0, 88, 68
1, 192263, Note_on_c, 0, 61, 40
1, 192269, Note_on_c, 0, 64, 10
1, 192289, Note_off_c, 0, 61, 59
1, 192313, Note_off_c, 0, 64, 55
1, 192315, Note_on_c, 0, 90, 65
1, 192360, Note_off_c, 0, 88, 62
1, 192372, Control_c, 0, 64, 84
1, 192381, Note_on_c, 0, 93, 75
1, 192388, Note_off_c, 0, 90, 66
1, 192388, Control_c, 0, 64, 65
1, 192403, Control_c, 0, 64, 45
1, 192418, Control_c, 0, 64, 0
1, 192447, Control_c, 0, 64, 38
1, 192462, Control_c, 0, 64, 63
1, 192465, Note_on_c, 0, 47, 55
1, 192467, Note_on_c, 0, 92, 73
1, 192467, Note_off_c, 0, 93, 64
1, 192477, Control_c, 0, 64, 75
1, 192492, Control_c, 0, 64, 88
1, 192507, Control_c, 0, 64, 106
1, 192510, Note_off_c, 0, 47, 66
1, 192522, Control_c, 0, 64, 127
1, 192535, Note_on_c, 0, 90, 67
1, 192569, Note_off_c, 0, 92, 59
1, 192610, Note_on_c, 0, 87, 61
1, 192622, Note_off_c, 0, 90, 63
1, 192634, Note_off_c, 0, 87, 62
1, 192659, Note_on_c, 0, 63, 47
1, 192665, Note_on_c, 0, 59, 40
1, 192679, Note_on_c, 0, 81, 63
1, 192711, Note_off_c, 0, 81, 66
1, 192760, Note_on_c, 0, 80, 58
1, 192818, Note_on_c, 0, 54, 67
1, 192845, Note_on_c, 0, 78, 59
1, 192931, Note_on_c, 0, 75, 53
1, 192937, Note_off_c, 0, 78, 60
1, 192948, Note_off_c, 0, 80, 29
1, 192955, Note_off_c, 0, 75, 63
1, 192985, Note_on_c, 0, 56, 72
1, 192993, Note_on_c, 0, 71, 59
1, 193000, Note_off_c, 0, 54, 63
1, 193031, Note_off_c, 0, 71, 60
1, 193056, Note_on_c, 0, 75, 52
1, 193121, Note_on_c, 0, 54, 74
1, 193129, Note_on_c, 0, 73, 62
1, 193130, Note_off_c, 0, 56, 60
1, 193187, Note_off_c, 0, 75, 43
1, 193197, Note_on_c, 0, 71, 62
1, 193199, Note_off_c, 0, 63, 60
1, 193203, Note_off_c, 0, 73, 60
1, 193234, Note_off_c, 0, 71, 60
1, 193244, Note_off_c, 0, 54, 61
1, 193247, Note_on_c, 0, 56, 69
1, 193249, Note_off_c, 0, 59, 31
1, 193275, Note_on_c, 0, 69, 55
1, 193316, Note_off_c, 0, 69, 64
1, 193329, Control_c, 0, 64, 96
1, 193344, Control_c, 0, 64, 67
1, 193352, Note_off_c, 0, 56, 61
1, 193355, Note_on_c, 0, 52, 81
1, 193358, Control_c, 0, 64, 30
1, 193362, Note_on_c, 0, 68, 52
1, 193373, Control_c, 0, 64, 0
1, 193397, Note_off_c, 0, 68, 65
1, 193432, Control_c, 0, 64, 48
1, 193447, Control_c, 0, 64, 60
1, 193449, Note_on_c, 0, 71, 57
1, 193462, Control_c, 0, 64, 65
1, 193477, Control_c, 0, 64, 69
1, 193483, Note_off_c, 0, 71, 62
1, 193491, Control_c, 0, 64, 74
1, 193506, Control_c, 0, 64, 82
1, 193512, Note_on_c, 0, 76, 67
1, 193521, Control_c, 0, 64, 94
1, 193527, Note_on_c, 0, 64, 47
1, 193536, Control_c, 0, 64, 118
1, 193537, Note_on_c, 0, 59, 38
1, 193551, Control_c, 0, 64, 127
1, 193563, Note_off_c, 0, 76, 61
1, 193584, Note_off_c, 0, 64, 46
1, 193587, Note_on_c, 0, 80, 66
1, 193607, Note_off_c, 0, 59, 48
1, 193617, Note_off_c, 0, 52, 62
1, 193631, Note_on_c, 0, 56, 61
1, 193642, Note_on_c, 0, 78, 65
1, 193653, Note_off_c, 0, 80, 62
1, 193661, Note_off_c, 0, 56, 65
1, 193684, Note_off_c, 0, 78, 60
1, 193687, Note_on_c, 0, 76, 66
1, 193707, Note_off_c, 0, 76, 62
1, 193741, Note_on_c, 0, 80, 67
1, 193747, Note_on_c, 0, 51, 72
1, 193756, Note_off_c, 0, 80, 66
1, 193776, Note_off_c, 0, 51, 64
1, 193798, Note_on_c, 0, 83, 75
1, 193827, Note_off_c, 0, 83, 65
1, 193857, Note_on_c, 0, 88, 79
1, 193881, Note_on_c, 0, 64, 47
1, 193902, Note_off_c, 0, 88, 66
1, 193903, Note_on_c, 0, 92, 75
1, 193908, Note_on_c, 0, 62, 36
1, 193914, Control_c, 0, 64, 87
1, 193917, Note_off_c, 0, 64, 50
1, 193928, Control_c, 0, 64, 65
1, 193937, Poly_aftertouch_c, 0, 59, 127
1, 193940, Note_off_c, 0, 62, 51
1, 193943, Control_c, 0, 64, 58
1, 193958, Control_c, 0, 64, 67
1, 193964, Note_on_c, 0, 90, 81
1, 193973, Control_c, 0, 64, 110
1, 193981, Poly_aftertouch_c, 0, 59, 0
1, 193988, Control_c, 0, 64, 127
1, 194013, Note_off_c, 0, 92, 55
1, 194015, Note_on_c, 0, 88, 80
1, 194042, Note_off_c, 0, 90, 65
1, 194046, Note_off_c, 0, 88, 64
1, 194056, Note_on_c, 0, 49, 74
1, 194082, Note_on_c, 0, 83, 74
1, 194084, Note_off_c, 0, 49, 63
1, 194112, Note_off_c, 0, 83, 67
1, 194146, Note_on_c, 0, 80, 78
1, 194196, Note_on_c, 0, 59, 48
1, 194200, Note_on_c, 0, 78, 79
1, 194217, Note_on_c, 0, 64, 53
1, 194245, Note_off_c, 0, 80, 55
1, 194254, Note_on_c, 0, 76, 72
1, 194255, Note_off_c, 0, 64, 65
1, 194272, Note_off_c, 0, 78, 63
1, 194277, Note_off_c, 0, 59, 65
1, 194279, Note_on_c, 0, 56, 62
1, 194281, Note_off_c, 0, 76, 66
1, 194316, Note_off_c, 0, 56, 64
1, 194325, Note_on_c, 0, 71, 64
1, 194355, Note_off_c, 0, 71, 66
1, 194385, Note_on_c, 0, 68, 72
1, 194435, Note_on_c, 0, 47, 74
1, 194453, Note_on_c, 0, 66, 75
1, 194494, Note_off_c, 0, 68, 54
1, 194504, Note_on_c, 0, 64, 69
1, 194525, Note_off_c, 0, 66, 62
1, 194549, Note_on_c, 0, 59, 75
1, 194552, Note_off_c, 0, 64, 60
1, 194585, Note_off_c, 0, 59, 64
1, 194615, Note_on_c, 0, 68, 71
1, 194668, Note_on_c, 0, 66, 69
1, 194717, Note_off_c, 0, 68, 59
1, 194731, Note_on_c, 0, 64, 69
1, 194748, Note_off_c, 0, 66, 60
1, 194751, Control_c, 0, 64, 102
1, 194766, Control_c, 0, 64, 62
1, 194781, Note_off_c, 0, 64, 60
1, 194782, Control_c, 0, 64, 0
1, 194794, Note_on_c, 0, 45, 89
1, 194796, Note_off_c, 0, 47, 65
1, 194802, Note_on_c, 0, 61, 73
1, 194835, Note_off_c, 0, 61, 64
1, 194841, Control_c, 0, 64, 63
1, 194849, Note_off_c, 0, 45, 65
1, 194856, Control_c, 0, 64, 82
1, 194871, Note_on_c, 0, 64, 54
1, 194871, Control_c, 0, 64, 113
1, 194886, Control_c, 0, 64, 127
1, 194899, Note_off_c, 0, 64, 57
1, 194922, Note_on_c, 0, 66, 68
1, 194953, Note_off_c, 0, 66, 64
1, 194972, Note_on_c, 0, 61, 64
1, 194973, Note_on_c, 0, 64, 63
1, 194999, Note_on_c, 0, 69, 75
1, 195007, Note_off_c, 0, 64, 64
1, 195020, Note_off_c, 0, 61, 54
1, 195032, Note_off_c, 0, 69, 60
1, 195057, Note_on_c, 0, 54, 67
1, 195070, Note_on_c, 0, 73, 75
1, 195087, Note_off_c, 0, 54, 65
1, 195129, Note_on_c, 0, 76, 70
1, 195130, Note_off_c, 0, 73, 64
1, 195178, Note_on_c, 0, 78, 82
1, 195187, Note_on_c, 0, 42, 81
1, 195190, Note_off_c, 0, 76, 64
1, 195206, Note_off_c, 0, 78, 64
1, 195210, Note_off_c, 0, 42, 67
1, 195246, Note_on_c, 0, 81, 85
1, 195303, Note_off_c, 0, 81, 54
1, 195315, Note_on_c, 0, 85, 76
1, 195343, Note_on_c, 0, 64, 44
1, 195348, Note_on_c, 0, 61, 55
1, 195370, Note_off_c, 0, 64, 58
1, 195370, Note_off_c, 0, 85, 64
1, 195375, Poly_aftertouch_c, 0, 42, 0
1, 195377, Note_on_c, 0, 88, 72
1, 195381, Note_off_c, 0, 61, 65
1, 195409, Note_on_c, 0, 54, 50
1, 195428, Note_on_c, 0, 90, 70
1, 195437, Note_off_c, 0, 54, 58
1, 195455, Control_c, 0, 64, 96
1, 195470, Control_c, 0, 64, 63
1, 195481, Note_off_c, 0, 88, 65
1, 195484, Note_on_c, 0, 93, 82
1, 195485, Control_c, 0, 64, 0
1, 195498, Note_off_c, 0, 90, 66
1, 195545, Note_on_c, 0, 47, 72
1, 195545, Control_c, 0, 64, 41
1, 195559, Control_c, 0, 64, 66
1, 195570, Note_on_c, 0, 92, 81
1, 195575, Control_c, 0, 64, 84
1, 195578, Note_off_c, 0, 93, 62
1, 195583, Note_off_c, 0, 47, 66
1, 195590, Control_c, 0, 64, 116
1, 195604, Control_c, 0, 64, 127
1, 195632, Note_on_c, 0, 90, 75
1, 195679, Note_off_c, 0, 92, 62
1, 195708, Note_on_c, 0, 87, 65
1, 195714, Note_on_c, 0, 63, 53
1, 195725, Note_on_c, 0, 59, 53
1, 195725, Note_off_c, 0, 90, 64
1, 195731, Note_off_c, 0, 87, 66
1, 195769, Note_on_c, 0, 81, 60
1, 195806, Note_off_c, 0, 81, 67
1, 195849, Note_on_c, 0, 54, 74
1, 195850, Note_on_c, 0, 80, 61
1, 195917, Note_on_c, 0, 78, 72
1, 195987, Note_on_c, 0, 56, 77
1, 195991, Note_on_c, 0, 75, 67
1, 195996, Note_off_c, 0, 54, 63
1, 196001, Note_off_c, 0, 78, 62
1, 196021, Note_off_c, 0, 80, 32
1, 196022, Note_off_c, 0, 75, 65
1, 196048, Note_on_c, 0, 71, 62
1, 196087, Note_off_c, 0, 71, 60
1, 196103, Note_on_c, 0, 54, 77
1, 196106, Note_off_c, 0, 56, 61
1, 196116, Note_on_c, 0, 75, 56
1, 196185, Note_on_c, 0, 73, 67
1, 196218, Note_on_c, 0, 56, 77
1, 196239, Note_off_c, 0, 54, 61
1, 196241, Note_on_c, 0, 71, 64
1, 196242, Note_off_c, 0, 63, 62
1, 196245, Note_off_c, 0, 75, 53
1, 196257, Note_off_c, 0, 73, 61
1, 196278, Note_off_c, 0, 71, 61
1, 196281, Note_off_c, 0, 59, 31
1, 196307, Note_on_c, 0, 69, 62
1, 196349, Note_off_c, 0, 69, 64
1, 196355, Note_off_c, 0, 56, 60
1, 196368, Note_on_c, 0, 52, 88
1, 196384, Control_c, 0, 64, 80
1, 196393, Note_on_c, 0, 68, 65
1, 196399, Control_c, 0, 64, 49
1, 196413, Note_off_c, 0, 68, 61
1, 196414, Control_c, 0, 64, 0
1, 196458, Control_c, 0, 64, 34
1, 196470, Note_on_c, 0, 71, 63
1, 196473, Control_c, 0, 64, 62
1, 196488, Control_c, 0, 64, 74
1, 196498, Note_off_c, 0, 71, 64
1, 196502, Control_c, 0, 64, 84
1, 196517, Control_c, 0, 64, 98
1, 196530, Note_on_c, 0, 76, 80
1, 196531, Control_c, 0, 64, 127
1, 196532, Note_on_c, 0, 64, 51
1, 196540, Note_on_c, 0, 59, 53
1, 196577, Note_off_c, 0, 64, 57
1, 196591, Note_off_c, 0, 76, 61
1, 196607, Note_on_c, 0, 80, 70
1, 196619, Note_off_c, 0, 59, 62
1, 196626, Note_off_c, 0, 52, 60
1, 196628, Note_on_c, 0, 56, 69
1, 196653, Note_on_c, 0, 78, 74
1, 196656, Note_off_c, 0, 56, 65
1, 196676, Note_off_c, 0, 80, 61
1, 196701, Note_on_c, 0, 76, 72
1, 196707, Note_off_c, 0, 78, 62
1, 196732, Note_off_c, 0, 76, 62
1, 196746, Note_on_c, 0, 47, 79
1, 196752, Note_on_c, 0, 80, 75
1, 196770, Note_off_c, 0, 47, 68
1, 196773, Note_off_c, 0, 80, 67
1, 196817, Note_on_c, 0, 83, 86
1, 196855, Note_off_c, 0, 83, 61
1, 196862, Note_on_c, 0, 64, 65
1, 196878, Note_on_c, 0, 88, 78
1, 196891, Note_on_c, 0, 59, 51
1, 196911, Poly_aftertouch_c, 0, 80, 0
1, 196927, Note_off_c, 0, 88, 67
1, 196929, Note_off_c, 0, 64, 60
1, 196930, Note_on_c, 0, 92, 77
1, 196949, Note_off_c, 0, 59, 63
1, 196963, Note_on_c, 0, 56, 74
1, 196988, Note_on_c, 0, 90, 82
1, 196988, Note_off_c, 0, 56, 66
1, 196998, Control_c, 0, 64, 73
1, 197013, Control_c, 0, 64, 39
1, 197027, Control_c, 0, 64, 0
1, 197038, Note_on_c, 0, 88, 75
1, 197042, Control_c, 0, 64, 47
1, 197057, Control_c, 0, 64, 80
1, 197058, Note_off_c, 0, 92, 63
1, 197072, Control_c, 0, 64, 127
1, 197074, Note_off_c, 0, 90, 65
1, 197088, Note_on_c, 0, 57, 88
1, 197089, Note_on_c, 0, 45, 86
1, 197093, Note_on_c, 0, 84, 82
1, 197095, Note_off_c, 0, 88, 63
1, 197111, Note_off_c, 0, 57, 67
1, 197112, Note_off_c, 0, 45, 68
1, 197130, Poly_aftertouch_c, 0, 56, 0
1, 197141, Note_off_c, 0, 84, 65
1, 197193, Note_on_c, 0, 81, 75
1, 197268, Note_on_c, 0, 60, 100
1, 197273, Note_on_c, 0, 48, 102
1, 197275, Note_on_c, 0, 78, 84
1, 197293, Note_off_c, 0, 48, 71
1, 197296, Note_off_c, 0, 60, 65
1, 197351, Note_on_c, 0, 76, 84
1, 197378, Note_off_c, 0, 81, 62
1, 197388, Note_off_c, 0, 78, 63
1, 197399, Note_off_c, 0, 76, 62
1, 197418, Note_on_c, 0, 72, 83
1, 197458, Note_off_c, 0, 72, 61
1, 197492, Note_on_c, 0, 69, 82
1, 197555, Note_on_c, 0, 66, 83
1, 197616, Note_on_c, 0, 64, 79
1, 197629, Note_off_c, 0, 69, 63
1, 197648, Note_off_c, 0, 66, 64
1, 197649, Note_off_c, 0, 64, 62
1, 197679, Note_on_c, 0, 60, 73
1, 197711, Note_off_c, 0, 60, 65
1, 197741, Note_on_c, 0, 57, 84
1, 197806, Note_on_c, 0, 54, 79
1, 197845, Note_off_c, 0, 57, 61
1, 197859, Note_on_c, 0, 52, 77
1, 197880, Note_off_c, 0, 54, 64
1, 197911, Note_off_c, 0, 52, 64
1, 197944, Note_on_c, 0, 40, 96
1, 197946, Note_on_c, 0, 56, 78
1, 197970, Control_c, 0, 64, 73
1, 197976, Note_off_c, 0, 56, 64
1, 197985, Control_c, 0, 64, 27
1, 197999, Control_c, 0, 64, 0
1, 198031, Note_on_c, 0, 59, 65
1, 198051, Control_c, 0, 64, 53
1, 198066, Control_c, 0, 64, 75
1, 198072, Note_off_c, 0, 59, 62
1, 198081, Control_c, 0, 64, 98
1, 198096, Control_c, 0, 64, 127
1, 198100, Note_on_c, 0, 64, 74
1, 198102, Note_on_c, 0, 52, 72
1, 198152, Note_off_c, 0, 52, 57
1, 198158, Note_off_c, 0, 64, 62
1, 198169, Note_on_c, 0, 68, 74
1, 198191, Note_on_c, 0, 47, 71
1, 198216, Note_off_c, 0, 47, 68
1, 198221, Note_off_c, 0, 40, 60
1, 198224, Note_on_c, 0, 66, 68
1, 198242, Note_off_c, 0, 68, 62
1, 198263, Note_on_c, 0, 64, 70
1, 198263, Note_off_c, 0, 66, 63
1, 198289, Note_off_c, 0, 64, 64
1, 198317, Note_on_c, 0, 68, 72
1, 198322, Note_on_c, 0, 35, 75
1, 198340, Note_off_c, 0, 68, 70
1, 198351, Note_off_c, 0, 35, 64
1, 198378, Note_on_c, 0, 71, 72
1, 198416, Note_off_c, 0, 71, 59
1, 198420, Note_on_c, 0, 68, 5
1, 198424, Note_on_c, 0, 52, 75
1, 198438, Note_on_c, 0, 76, 78
1, 198467, Note_off_c, 0, 68, 38
1, 198484, Note_off_c, 0, 52, 58
1, 198487, Note_off_c, 0, 76, 64
1, 198491, Note_on_c, 0, 80, 74
1, 198516, Note_on_c, 0, 47, 77
1, 198541, Note_off_c, 0, 47, 68
1, 198547, Note_on_c, 0, 78, 79
1, 198555, Control_c, 0, 64, 80
1, 198570, Control_c, 0, 64, 31
1, 198585, Control_c, 0, 64, 0
1, 198597, Note_on_c, 0, 76, 77
1, 198599, Control_c, 0, 64, 46
1, 198614, Control_c, 0, 64, 93
1, 198615, Note_off_c, 0, 80, 61
1, 198628, Note_off_c, 0, 78, 62
1, 198629, Control_c, 0, 64, 127
1, 198633, Note_on_c, 0, 45, 97
1, 198639, Note_on_c, 0, 33, 86
1, 198651, Note_on_c, 0, 72, 84
1, 198655, Note_off_c, 0, 76, 57
1, 198656, Note_off_c, 0, 45, 71
1, 198662, Note_off_c, 0, 33, 65
1, 198701, Note_off_c, 0, 72, 64
1, 198756, Note_on_c, 0, 69, 80
1, 198839, Note_on_c, 0, 48, 106
1, 198845, Note_on_c, 0, 36, 100
1, 198851, Note_on_c, 0, 66, 88
1, 198865, Note_off_c, 0, 48, 67
1, 198868, Note_off_c, 0, 36, 71
1, 198927, Note_on_c, 0, 64, 82
1, 198952, Note_off_c, 0, 69, 60
1, 198969, Note_off_c, 0, 66, 64
1, 198979, Note_off_c, 0, 64, 60
1, 198997, Note_on_c, 0, 60, 74
1, 199040, Note_off_c, 0, 60, 62
1, 199068, Note_on_c, 0, 57, 83
1, 199134, Note_on_c, 0, 54, 84
1, 199201, Note_on_c, 0, 52, 86
1, 199220, Note_off_c, 0, 57, 59
1, 199244, Note_off_c, 0, 54, 64
1, 199254, Note_off_c, 0, 52, 62
1, 199268, Note_on_c, 0, 48, 82
1, 199314, Note_off_c, 0, 48, 64
1, 199341, Note_on_c, 0, 45, 80
1, 199414, Note_on_c, 0, 42, 79
1, 199472, Note_off_c, 0, 45, 63
1, 199476, Note_on_c, 0, 40, 86
1, 199489, Note_off_c, 0, 42, 64
1, 199526, Note_off_c, 0, 40, 64
1, 199787, Note_on_c, 0, 28, 95
1, 199844, Control_c, 0, 64, 76
1, 199859, Control_c, 0, 64, 49
1, 199874, Control_c, 0, 64, 0
1, 200081, Control_c, 0, 64, 20
1, 200096, Control_c, 0, 64, 42
1, 200111, Control_c, 0, 64, 52
1, 200126, Control_c, 0, 64, 59
1, 200141, Control_c, 0, 64, 63
1, 200156, Control_c, 0, 64, 66
1, 200170, Control_c, 0, 64, 70
1, 200185, Control_c, 0, 64, 74
1, 200196, Note_on_c, 0, 47, 58
1, 200200, Control_c, 0, 64, 80
1, 200215, Control_c, 0, 64, 87
1, 200225, Note_off_c, 0, 28, 59
1, 200230, Control_c, 0, 64, 96
1, 200241, Note_off_c, 0, 47, 61
1, 200244, Control_c, 0, 64, 113
1, 200259, Control_c, 0, 64, 127
1, 200270, Note_on_c, 0, 52, 71
1, 200344, Note_off_c, 0, 52, 58
1, 200367, Note_on_c, 0, 57, 67
1, 200445, Note_off_c, 0, 57, 59
1, 200454, Note_on_c, 0, 56, 60
1, 200475, Note_off_c, 0, 56, 61
1, 200517, Note_on_c, 0, 59, 64
1, 200549, Note_off_c, 0, 59, 60
1, 200575, Note_on_c, 0, 64, 76
1, 200630, Note_off_c, 0, 64, 62
1, 200636, Note_on_c, 0, 69, 82
1, 200678, Note_on_c, 0, 52, 85
1, 200705, Note_on_c, 0, 68, 76
1, 200715, Note_off_c, 0, 69, 64
1, 200725, Note_off_c, 0, 68, 69
1, 200748, Note_on_c, 0, 59, 83
1, 200755, Note_off_c, 0, 52, 64
1, 200769, Note_off_c, 0, 59, 70
1, 200774, Note_on_c, 0, 71, 69
1, 200812, Note_off_c, 0, 71, 57
1, 200836, Poly_aftertouch_c, 0, 68, 127
1, 200850, Note_on_c, 0, 76, 70
1, 200865, Note_on_c, 0, 59, 3
1, 200871, Poly_aftertouch_c, 0, 68, 0
1, 200901, Note_off_c, 0, 59, 33
1, 200904, Note_off_c, 0, 76, 52
1, 200939, Note_on_c, 0, 81, 70
1, 200951, Note_on_c, 0, 68, 117
1, 200977, Note_off_c, 0, 68, 72
1, 201009, Note_on_c, 0, 80, 79
1, 201026, Note_off_c, 0, 81, 62
1, 201049, Note_off_c, 0, 80, 63
1, 201097, Note_on_c, 0, 83, 72
1, 201134, Note_off_c, 0, 83, 55
1, 201149, Note_on_c, 0, 88, 83
1, 201210, Note_off_c, 0, 88, 66
1, 201218, Note_on_c, 0, 93, 73
1, 201268, Note_on_c, 0, 92, 81
1, 201327, Note_on_c, 0, 88, 76
1, 201342, Note_off_c, 0, 93, 64
1, 201363, Note_off_c, 0, 92, 66
1, 201378, Note_off_c, 0, 88, 65
1, 201387, Note_on_c, 0, 83, 76
1, 201422, Note_off_c, 0, 83, 63
1, 201459, Note_on_c, 0, 81, 83
1, 201518, Note_on_c, 0, 80, 82
1, 201573, Note_on_c, 0, 76, 85
1, 201590, Note_off_c, 0, 81, 63
1, 201607, Note_off_c, 0, 80, 65
1, 201621, Note_off_c, 0, 76, 62
1, 201629, Note_on_c, 0, 71, 78
1, 201670, Note_off_c, 0, 71, 63
1, 201694, Note_on_c, 0, 69, 86
1, 201751, Note_on_c, 0, 68, 83
1, 201813, Note_on_c, 0, 64, 82
1, 201834, Note_off_c, 0, 69, 63
1, 201851, Note_off_c, 0, 68, 66
1, 201866, Note_off_c, 0, 64, 63
1, 201874, Note_on_c, 0, 59, 79
1, 201904, Note_off_c, 0, 59, 68
1, 201941, Note_on_c, 0, 57, 83
1, 202001, Note_on_c, 0, 56, 79
1, 202058, Note_on_c, 0, 52, 85
1, 202088, Note_off_c, 0, 57, 60
1, 202100, Note_off_c, 0, 56, 63
1, 202116, Note_off_c, 0, 52, 63
1, 202117, Note_on_c, 0, 47, 84
1, 202157, Note_off_c, 0, 47, 65
1, 202185, Note_on_c, 0, 45, 88
1, 202249, Note_on_c, 0, 44, 81
1, 202308, Note_on_c, 0, 40, 74
1, 202308, Note_off_c, 0, 45, 65
1, 202320, Note_on_c, 0, 41, 71
1, 202338, Note_off_c, 0, 44, 63
1, 202346, Note_off_c, 0, 41, 57
1, 202377, Note_on_c, 0, 35, 76
1, 202378, Note_off_c, 0, 40, 63
1, 202420, Note_off_c, 0, 35, 62
1, 202494, Note_on_c, 0, 28, 93
1, 202573, Control_c, 0, 64, 92
1, 202588, Control_c, 0, 64, 68
1, 202603, Control_c, 0, 64, 41
1, 202618, Control_c, 0, 64, 0
1, 203101, Note_off_c, 0, 28, 64
1, 203566, Note_on_c, 0, 64, 82
1, 203593, Note_on_c, 0, 61, 61
1, 203604, Note_on_c, 0, 33, 48
1, 203604, Note_on_c, 0, 52, 43
1, 203608, Note_on_c, 0, 45, 40
1, 203650, Note_off_c, 0, 52, 0
1, 203650, Note_on_c, 0, 52, 20
1, 203840, Control_c, 0, 64, 19
1, 203855, Control_c, 0, 64, 41
1, 203870, Control_c, 0, 64, 54
1, 203885, Control_c, 0, 64, 61
1, 203900, Control_c, 0, 64, 62
1, 203915, Control_c, 0, 64, 64
1, 203930, Control_c, 0, 64, 66
1, 203945, Control_c, 0, 64, 68
1, 203959, Control_c, 0, 64, 72
1, 203974, Control_c, 0, 64, 76
1, 203989, Control_c, 0, 64, 81
1, 204004, Control_c, 0, 64, 85
1, 204018, Control_c, 0, 64, 93
1, 204040, Control_c, 0, 64, 105
1, 204055, Control_c, 0, 64, 127
1, 204097, Note_off_c, 0, 52, 54
1, 204103, Note_off_c, 0, 64, 62
1, 204115, Note_off_c, 0, 61, 36
1, 204157, Note_off_c, 0, 45, 56
1, 204285, Note_on_c, 0, 66, 78
1, 204305, Note_on_c, 0, 61, 59
1, 204350, Note_on_c, 0, 38, 42
1, 204351, Note_on_c, 0, 45, 40
1, 204351, Note_on_c, 0, 54, 45
1, 204351, Control_c, 0, 64, 96
1, 204368, Control_c, 0, 64, 74
1, 204383, Control_c, 0, 64, 59
1, 204397, Control_c, 0, 64, 29
1, 204412, Control_c, 0, 64, 0
1, 204432, Note_off_c, 0, 33, 35
1, 205457, Note_on_c, 0, 59, 58
1, 205513, Note_off_c, 0, 61, 61
1, 205785, Note_on_c, 0, 61, 70
1, 205838, Note_off_c, 0, 59, 58
1, 206027, Note_on_c, 0, 64, 61
1, 206054, Note_off_c, 0, 61, 63
1, 206233, Note_on_c, 0, 62, 72
1, 206250, Control_c, 0, 64, 15
1, 206266, Control_c, 0, 64, 30
1, 206270, Note_off_c, 0, 64, 52
1, 206288, Control_c, 0, 64, 43
1, 206303, Control_c, 0, 64, 52
1, 206318, Control_c, 0, 64, 58
1, 206332, Control_c, 0, 64, 62
1, 206347, Control_c, 0, 64, 65
1, 206362, Control_c, 0, 64, 68
1, 206377, Control_c, 0, 64, 71
1, 206392, Control_c, 0, 64, 75
1, 206407, Control_c, 0, 64, 79
1, 206421, Control_c, 0, 64, 82
1, 206436, Control_c, 0, 64, 87
1, 206437, Note_on_c, 0, 61, 77
1, 206451, Control_c, 0, 64, 91
1, 206466, Control_c, 0, 64, 97
1, 206481, Control_c, 0, 64, 104
1, 206484, Note_off_c, 0, 62, 53
1, 206495, Control_c, 0, 64, 113
1, 206510, Control_c, 0, 64, 119
1, 206517, Note_off_c, 0, 45, 55
1, 206525, Control_c, 0, 64, 120
1, 206528, Note_off_c, 0, 66, 63
1, 206555, Note_off_c, 0, 54, 63
1, 206586, Note_off_c, 0, 61, 60
1, 206611, Note_off_c, 0, 38, 42
1, 206717, Note_on_c, 0, 64, 79
1, 206717, Control_c, 0, 64, 119
1, 206732, Control_c, 0, 64, 108
1, 206747, Note_on_c, 0, 61, 55
1, 206747, Control_c, 0, 64, 94
1, 206763, Control_c, 0, 64, 83
1, 206771, Note_on_c, 0, 52, 47
1, 206778, Control_c, 0, 64, 73
1, 206792, Control_c, 0, 64, 63
1, 206807, Note_on_c, 0, 33, 41
1, 206807, Control_c, 0, 64, 50
1, 206810, Note_on_c, 0, 45, 35
1, 206822, Control_c, 0, 64, 28
1, 206836, Control_c, 0, 64, 0
1, 207014, Control_c, 0, 64, 37
1, 207036, Control_c, 0, 64, 55
1, 207051, Control_c, 0, 64, 62
1, 207066, Control_c, 0, 64, 65
1, 207081, Control_c, 0, 64, 67
1, 207096, Control_c, 0, 64, 70
1, 207107, Note_off_c, 0, 52, 56
1, 207110, Control_c, 0, 64, 75
1, 207125, Control_c, 0, 64, 82
1, 207140, Control_c, 0, 64, 92
1, 207155, Control_c, 0, 64, 101
1, 207158, Note_off_c, 0, 64, 59
1, 207169, Control_c, 0, 64, 111
1, 207184, Control_c, 0, 64, 127
1, 207236, Note_off_c, 0, 61, 54
1, 207325, Note_off_c, 0, 45, 34
1, 207518, Note_on_c, 0, 66, 74
1, 207555, Control_c, 0, 64, 113
1, 207565, Note_on_c, 0, 61, 45
1, 207570, Control_c, 0, 64, 95
1, 207584, Control_c, 0, 64, 82
1, 207587, Note_on_c, 0, 54, 38
1, 207598, Note_on_c, 0, 38, 39
1, 207599, Control_c, 0, 64, 70
1, 207602, Note_on_c, 0, 45, 36
1, 207614, Control_c, 0, 64, 61
1, 207629, Control_c, 0, 64, 47
1, 207644, Control_c, 0, 64, 20
1, 207659, Control_c, 0, 64, 0
1, 207698, Note_off_c, 0, 33, 36
1, 208785, Note_on_c, 0, 59, 53
1, 208869, Note_off_c, 0, 61, 58
1, 209097, Note_on_c, 0, 61, 59
1, 209214, Note_off_c, 0, 59, 51
1, 209325, Note_on_c, 0, 64, 56
1, 209372, Note_off_c, 0, 61, 62
1, 209549, Note_on_c, 0, 62, 60
1, 209598, Note_off_c, 0, 64, 37
1, 209846, Control_c, 0, 64, 19
1, 209861, Control_c, 0, 64, 37
1, 209876, Control_c, 0, 64, 49
1, 209891, Control_c, 0, 64, 57
1, 209905, Control_c, 0, 64, 61
1, 209920, Control_c, 0, 64, 63
1, 209935, Control_c, 0, 64, 64
1, 209951, Control_c, 0, 64, 67
1, 209966, Control_c, 0, 64, 71
1, 209980, Control_c, 0, 64, 76
1, 209995, Control_c, 0, 64, 82
1, 210010, Control_c, 0, 64, 86
1, 210032, Control_c, 0, 64, 90
1, 210047, Poly_aftertouch_c, 0, 40, 127
1, 210047, Control_c, 0, 64, 94
1, 210062, Control_c, 0, 64, 98
1, 210076, Control_c, 0, 64, 101
1, 210091, Control_c, 0, 64, 104
1, 210106, Control_c, 0, 64, 106
1, 210121, Control_c, 0, 64, 110
1, 210136, Control_c, 0, 64, 115
1, 210143, Note_on_c, 0, 61, 64
1, 210151, Control_c, 0, 64, 127
1, 210191, Note_off_c, 0, 62, 62
1, 210230, Note_off_c, 0, 66, 57
1, 210361, Note_off_c, 0, 61, 62
1, 210595, Control_c, 0, 64, 124
1, 210610, Control_c, 0, 64, 114
1, 210622, Note_on_c, 0, 61, 51
1, 210625, Control_c, 0, 64, 107
1, 210640, Control_c, 0, 64, 100
1, 210654, Control_c, 0, 64, 90
1, 210669, Control_c, 0, 64, 81
1, 210684, Control_c, 0, 64, 73
1, 210687, Note_on_c, 0, 69, 66
1, 210699, Control_c, 0, 64, 66
1, 210714, Control_c, 0, 64, 59
1, 210728, Control_c, 0, 64, 50
1, 210743, Control_c, 0, 64, 39
1, 210757, Control_c, 0, 64, 21
1, 210780, Control_c, 0, 64, 0
1, 210957, Control_c, 0, 64, 27
1, 210972, Control_c, 0, 64, 43
1, 210987, Control_c, 0, 64, 54
1, 211001, Control_c, 0, 64, 59
1, 211016, Control_c, 0, 64, 61
1, 211031, Control_c, 0, 64, 62
1, 211046, Control_c, 0, 64, 64
1, 211061, Control_c, 0, 64, 68
1, 211076, Control_c, 0, 64, 72
1, 211090, Control_c, 0, 64, 76
1, 211105, Control_c, 0, 64, 81
1, 211120, Control_c, 0, 64, 85
1, 211123, Note_on_c, 0, 66, 71
1, 211135, Control_c, 0, 64, 89
1, 211150, Control_c, 0, 64, 94
1, 211164, Control_c, 0, 64, 102
1, 211179, Control_c, 0, 64, 114
1, 211194, Control_c, 0, 64, 127
1, 211227, Note_off_c, 0, 54, 41
1, 211251, Note_off_c, 0, 69, 52
1, 211280, Note_off_c, 0, 61, 63
1, 211335, Poly_aftertouch_c, 0, 40, 0
1, 211344, Note_off_c, 0, 38, 35
1, 211349, Note_off_c, 0, 66, 61
1, 211352, Note_on_c, 0, 62, 76
1, 211618, Note_off_c, 0, 62, 63
1, 211631, Note_on_c, 0, 61, 67
1, 211644, Note_on_c, 0, 56, 60
1, 211647, Control_c, 0, 64, 122
1, 211662, Control_c, 0, 64, 100
1, 211677, Control_c, 0, 64, 88
1, 211691, Note_on_c, 0, 64, 22
1, 211692, Control_c, 0, 64, 77
1, 211698, Note_on_c, 0, 40, 43
1, 211706, Control_c, 0, 64, 68
1, 211721, Control_c, 0, 64, 60
1, 211722, Note_on_c, 0, 52, 31
1, 211736, Control_c, 0, 64, 49
1, 211740, Note_off_c, 0, 45, 38
1, 211751, Control_c, 0, 64, 34
1, 211757, Note_off_c, 0, 64, 0
1, 211766, Control_c, 0, 64, 0
1, 211793, Poly_aftertouch_c, 0, 64, 127
1, 211972, Control_c, 0, 64, 28
1, 211987, Control_c, 0, 64, 42
1, 212002, Control_c, 0, 64, 54
1, 212017, Control_c, 0, 64, 60
1, 212032, Control_c, 0, 64, 64
1, 212047, Control_c, 0, 64, 66
1, 212062, Control_c, 0, 64, 68
1, 212077, Control_c, 0, 64, 71
1, 212092, Control_c, 0, 64, 74
1, 212106, Control_c, 0, 64, 77
1, 212121, Control_c, 0, 64, 81
1, 212136, Control_c, 0, 64, 84
1, 212150, Control_c, 0, 64, 86
1, 212165, Control_c, 0, 64, 88
1, 212180, Control_c, 0, 64, 89
1, 212184, Note_off_c, 0, 52, 40
1, 212224, Control_c, 0, 64, 89
1, 212396, Control_c, 0, 64, 89
1, 212455, Control_c, 0, 64, 88
1, 212470, Control_c, 0, 64, 87
1, 212485, Control_c, 0, 64, 86
1, 212491, Note_on_c, 0, 59, 58
1, 212500, Control_c, 0, 64, 83
1, 212515, Control_c, 0, 64, 80
1, 212529, Control_c, 0, 64, 76
1, 212533, Note_on_c, 0, 50, 38
1, 212544, Control_c, 0, 64, 70
1, 212559, Control_c, 0, 64, 64
1, 212573, Control_c, 0, 64, 54
1, 212585, Note_off_c, 0, 61, 32
1, 212588, Control_c, 0, 64, 41
1, 212603, Control_c, 0, 64, 21
1, 212618, Control_c, 0, 64, 0
1, 212736, Control_c, 0, 64, 11
1, 212751, Control_c, 0, 64, 27
1, 212766, Control_c, 0, 64, 42
1, 212780, Control_c, 0, 64, 52
1, 212795, Control_c, 0, 64, 59
1, 212810, Control_c, 0, 64, 62
1, 212825, Control_c, 0, 64, 64
1, 212840, Control_c, 0, 64, 66
1, 212855, Control_c, 0, 64, 68
1, 212870, Control_c, 0, 64, 71
1, 212884, Control_c, 0, 64, 75
1, 212899, Control_c, 0, 64, 78
1, 212914, Control_c, 0, 64, 81
1, 212929, Control_c, 0, 64, 85
1, 212944, Control_c, 0, 64, 87
1, 212959, Control_c, 0, 64, 89
1, 212973, Control_c, 0, 64, 91
1, 212988, Control_c, 0, 64, 91
1, 213019, Control_c, 0, 64, 92
1, 213070, Control_c, 0, 67, 8
1, 213085, Control_c, 0, 67, 8
1, 213100, Control_c, 0, 67, 9
1, 213228, Poly_aftertouch_c, 0, 64, 0
1, 213293, Control_c, 0, 64, 91
1, 213308, Control_c, 0, 64, 90
1, 213323, Control_c, 0, 64, 88
1, 213338, Control_c, 0, 64, 87
1, 213352, Control_c, 0, 64, 86
1, 213367, Control_c, 0, 64, 83
1, 213382, Control_c, 0, 64, 79
1, 213391, Note_on_c, 0, 57, 53
1, 213397, Control_c, 0, 64, 75
1, 213409, Note_off_c, 0, 59, 42
1, 213410, Note_on_c, 0, 49, 38
1, 213412, Control_c, 0, 64, 69
1, 213415, Note_on_c, 0, 45, 32
1, 213427, Control_c, 0, 64, 64
1, 213442, Control_c, 0, 64, 59
1, 213446, Note_off_c, 0, 56, 53
1, 213457, Control_c, 0, 64, 51
1, 213469, Note_off_c, 0, 40, 6
1, 213471, Control_c, 0, 64, 40
1, 213486, Control_c, 0, 64, 23
1, 213501, Control_c, 0, 64, 0
1, 213528, Note_off_c, 0, 50, 41
1, 213780, Note_on_c, 0, 61, 42
1, 213800, Note_off_c, 0, 57, 50
1, 213804, Note_on_c, 0, 52, 31
1, 213922, Control_c, 0, 67, 9
1, 213944, Note_off_c, 0, 49, 39
1, 213953, Control_c, 0, 67, 10
1, 214056, Control_c, 0, 67, 10
1, 214071, Control_c, 0, 67, 11
1, 214086, Control_c, 0, 67, 12
1, 214101, Control_c, 0, 67, 15
1, 214116, Control_c, 0, 67, 17
1, 214130, Control_c, 0, 67, 19
1, 214145, Control_c, 0, 67, 22
1, 214160, Control_c, 0, 67, 24
1, 214175, Control_c, 0, 67, 26
1, 214190, Control_c, 0, 64, 10
1, 214190, Control_c, 0, 67, 29
1, 214205, Control_c, 0, 64, 23
1, 214205, Control_c, 0, 67, 31
1, 214220, Control_c, 0, 64, 31
1, 214220, Control_c, 0, 67, 32
1, 214234, Control_c, 0, 64, 38
1, 214249, Control_c, 0, 64, 43
1, 214264, Control_c, 0, 64, 47
1, 214279, Control_c, 0, 64, 52
1, 214293, Control_c, 0, 64, 55
1, 214308, Control_c, 0, 64, 57
1, 214323, Control_c, 0, 64, 59
1, 214338, Control_c, 0, 64, 59
1, 214352, Control_c, 0, 64, 60
1, 214367, Control_c, 0, 64, 61
1, 214382, Control_c, 0, 64, 62
1, 214397, Control_c, 0, 64, 63
1, 214412, Control_c, 0, 64, 64
1, 214426, Control_c, 0, 64, 65
1, 214426, Control_c, 0, 67, 32
1, 214441, Control_c, 0, 64, 66
1, 214441, Control_c, 0, 67, 33
1, 214456, Control_c, 0, 64, 67
1, 214456, Control_c, 0, 67, 33
1, 214471, Control_c, 0, 64, 68
1, 214471, Control_c, 0, 67, 35
1, 214486, Control_c, 0, 64, 69
1, 214486, Control_c, 0, 67, 39
1, 214500, Control_c, 0, 64, 71
1, 214500, Control_c, 0, 67, 43
1, 214511, Note_off_c, 0, 61, 29
1, 214523, Control_c, 0, 64, 72
1, 214523, Control_c, 0, 67, 48
1, 214538, Control_c, 0, 64, 73
1, 214538, Control_c, 0, 67, 52
1, 214552, Control_c, 0, 64, 74
1, 214552, Control_c, 0, 67, 56
1, 214567, Control_c, 0, 64, 74
1, 214567, Control_c, 0, 67, 60
1, 214582, Control_c, 0, 64, 75
1, 214582, Control_c, 0, 67, 64
1, 214597, Control_c, 0, 67, 66
1, 214606, Note_off_c, 0, 45, 27
1, 214612, Control_c, 0, 64, 75
1, 214612, Control_c, 0, 67, 69
1, 214626, Control_c, 0, 67, 71
1, 214641, Control_c, 0, 67, 74
1, 214656, Control_c, 0, 67, 77
1, 214671, Control_c, 0, 67, 80
1, 214686, Control_c, 0, 67, 83
1, 214700, Control_c, 0, 67, 86
1, 214701, Note_off_c, 0, 52, 36
1, 214715, Control_c, 0, 67, 89
1, 214730, Control_c, 0, 67, 91
1, 214745, Control_c, 0, 67, 93
1, 214761, Control_c, 0, 67, 95
1, 214776, Control_c, 0, 67, 96
1, 214791, Control_c, 0, 67, 97
1, 214805, Control_c, 0, 64, 75
1, 214805, Control_c, 0, 67, 98
1, 214820, Control_c, 0, 67, 99
1, 214835, Control_c, 0, 67, 100
1, 214849, Control_c, 0, 67, 101
1, 214864, Control_c, 0, 67, 103
1, 214879, Control_c, 0, 64, 74
1, 214879, Control_c, 0, 67, 104
1, 214894, Control_c, 0, 64, 74
1, 214894, Control_c, 0, 67, 105
1, 214909, Control_c, 0, 64, 73
1, 214909, Control_c, 0, 67, 107
1, 214923, Control_c, 0, 64, 73
1, 214923, Control_c, 0, 67, 109
1, 214938, Control_c, 0, 64, 72
1, 214938, Control_c, 0, 67, 110
1, 214953, Control_c, 0, 64, 72
1, 214953, Control_c, 0, 67, 110
1, 214968, Control_c, 0, 67, 111
1, 214983, Control_c, 0, 64, 71
1, 214983, Control_c, 0, 67, 113
1, 214998, Control_c, 0, 64, 70
1, 214998, Control_c, 0, 67, 114
1, 215013, Control_c, 0, 64, 70
1, 215013, Control_c, 0, 67, 115
1, 215028, Control_c, 0, 64, 69
1, 215028, Control_c, 0, 67, 116
1, 215043, Control_c, 0, 64, 69
1, 215043, Control_c, 0, 67, 117
1, 215057, Control_c, 0, 64, 68
1, 215057, Control_c, 0, 67, 118
1, 215072, Control_c, 0, 64, 67
1, 215072, Control_c, 0, 67, 119
1, 215087, Control_c, 0, 64, 66
1, 215087, Control_c, 0, 67, 119
1, 215102, Control_c, 0, 64, 66
1, 215102, Control_c, 0, 67, 120
1, 215116, Control_c, 0, 64, 65
1, 215116, Control_c, 0, 67, 121
1, 215131, Control_c, 0, 64, 65
1, 215131, Control_c, 0, 67, 122
1, 215146, Control_c, 0, 67, 123
1, 215161, Control_c, 0, 64, 64
1, 215161, Control_c, 0, 67, 123
1, 215175, Control_c, 0, 67, 124
1, 215190, Control_c, 0, 64, 63
1, 215190, Control_c, 0, 67, 124
1, 215205, Control_c, 0, 64, 62
1, 215205, Control_c, 0, 67, 125
1, 215220, Control_c, 0, 64, 61
1, 215220, Control_c, 0, 67, 126
1, 215235, Control_c, 0, 64, 60
1, 215235, Control_c, 0, 67, 127
1, 215249, Control_c, 0, 64, 58
1, 215249, Control_c, 0, 67, 127
1, 215272, Control_c, 0, 64, 58
1, 215287, Control_c, 0, 64, 57
1, 215302, Control_c, 0, 64, 57
1, 215317, Control_c, 0, 64, 56
1, 215331, Control_c, 0, 64, 55
1, 215346, Control_c, 0, 64, 53
1, 215361, Control_c, 0, 64, 50
1, 215375, Control_c, 0, 64, 48
1, 215390, Control_c, 0, 64, 46
1, 215405, Control_c, 0, 64, 43
1, 215420, Control_c, 0, 64, 38
1, 215435, Control_c, 0, 64, 29
1, 215449, Control_c, 0, 64, 17
1, 215464, Control_c, 0, 64, 0
1, 215933, Note_on_c, 0, 73, 39
1, 216095, Control_c, 0, 64, 25
1, 216110, Control_c, 0, 64, 38
1, 216125, Control_c, 0, 64, 49
1, 216140, Control_c, 0, 64, 56
1, 216154, Control_c, 0, 64, 59
1, 216169, Control_c, 0, 64, 60
1, 216184, Control_c, 0, 64, 62
1, 216198, Control_c, 0, 64, 64
1, 216213, Control_c, 0, 64, 66
1, 216228, Control_c, 0, 64, 68
1, 216243, Control_c, 0, 64, 71
1, 216258, Control_c, 0, 64, 74
1, 216272, Control_c, 0, 64, 76
1, 216287, Control_c, 0, 64, 79
1, 216302, Control_c, 0, 64, 81
1, 216316, Control_c, 0, 64, 83
1, 216331, Control_c, 0, 64, 85
1, 216348, Control_c, 0, 64, 86
1, 216363, Control_c, 0, 64, 87
1, 216377, Control_c, 0, 64, 88
1, 216385, Note_off_c, 0, 73, 39
1, 216392, Control_c, 0, 64, 88
1, 216510, Control_c, 0, 64, 88
1, 216525, Control_c, 0, 64, 87
1, 216542, Note_on_c, 0, 52, 28
1, 216559, Note_on_c, 0, 58, 24
1, 216563, Note_on_c, 0, 55, 20
1, 216569, Control_c, 0, 64, 87
1, 216599, Control_c, 0, 64, 86
1, 216614, Control_c, 0, 64, 85
1, 216628, Control_c, 0, 64, 85
1, 216643, Control_c, 0, 64, 84
1, 216658, Control_c, 0, 64, 84
1, 216676, Note_off_c, 0, 52, 26
1, 216685, Note_off_c, 0, 55, 27
1, 216688, Control_c, 0, 64, 83
1, 216718, Control_c, 0, 64, 83
1, 216724, Note_off_c, 0, 58, 40
1, 216733, Note_on_c, 0, 71, 45
1, 216748, Control_c, 0, 64, 82
1, 216761, Note_off_c, 0, 71, 58
1, 216785, Control_c, 0, 64, 82
1, 216800, Control_c, 0, 64, 81
1, 216813, Note_on_c, 0, 73, 50
1, 216815, Control_c, 0, 64, 80
1, 216829, Control_c, 0, 64, 79
1, 216844, Control_c, 0, 64, 78
1, 216859, Note_on_c, 0, 71, 53
1, 216859, Control_c, 0, 64, 76
1, 216867, Note_off_c, 0, 73, 57
1, 216874, Control_c, 0, 64, 73
1, 216889, Control_c, 0, 64, 68
1, 216903, Control_c, 0, 64, 63
1, 216909, Note_on_c, 0, 50, 35
1, 216912, Note_on_c, 0, 54, 26
1, 216918, Control_c, 0, 64, 57
1, 216928, Note_on_c, 0, 59, 22
1, 216933, Control_c, 0, 64, 49
1, 216947, Control_c, 0, 64, 36
1, 216962, Control_c, 0, 64, 17
1, 216977, Control_c, 0, 64, 0
1, 217037, Control_c, 0, 64, 25
1, 217052, Control_c, 0, 64, 41
1, 217067, Control_c, 0, 64, 54
1, 217082, Control_c, 0, 64, 62
1, 217096, Control_c, 0, 64, 65
1, 217111, Control_c, 0, 64, 67
1, 217126, Control_c, 0, 64, 68
1, 217141, Control_c, 0, 64, 69
1, 217156, Control_c, 0, 64, 71
1, 217171, Control_c, 0, 64, 73
1, 217175, Note_off_c, 0, 50, 29
1, 217186, Control_c, 0, 64, 75
1, 217201, Control_c, 0, 64, 77
1, 217216, Control_c, 0, 64, 78
1, 217231, Control_c, 0, 64, 78
1, 217254, Note_off_c, 0, 59, 42
1, 217254, Note_off_c, 0, 71, 28
1, 217255, Note_off_c, 0, 54, 41
1, 217330, Note_on_c, 0, 69, 60
1, 217371, Note_off_c, 0, 69, 64
1, 217414, Note_on_c, 0, 71, 63
1, 217416, Note_on_c, 0, 54, 45
1, 217429, Note_on_c, 0, 62, 45
1, 217439, Note_on_c, 0, 57, 29
1, 217451, Note_off_c, 0, 54, 52
1, 217454, Note_off_c, 0, 71, 59
1, 217463, Note_off_c, 0, 62, 53
1, 217482, Note_off_c, 0, 57, 49
1, 217577, Control_c, 0, 64, 77
1, 217592, Control_c, 0, 64, 76
1, 217607, Control_c, 0, 64, 74
1, 217622, Control_c, 0, 64, 70
1, 217637, Control_c, 0, 64, 64
1, 217642, Note_on_c, 0, 73, 66
1, 217651, Control_c, 0, 64, 55
1, 217666, Note_on_c, 0, 53, 43
1, 217666, Control_c, 0, 64, 38
1, 217667, Note_on_c, 0, 56, 30
1, 217669, Note_on_c, 0, 61, 36
1, 217681, Control_c, 0, 64, 0
1, 217770, Control_c, 0, 64, 37
1, 217785, Control_c, 0, 64, 54
1, 217800, Control_c, 0, 64, 62
1, 217815, Control_c, 0, 64, 64
1, 217830, Control_c, 0, 64, 65
1, 217834, Note_off_c, 0, 53, 58
1, 217844, Control_c, 0, 64, 66
1, 217859, Control_c, 0, 64, 68
1, 217874, Control_c, 0, 64, 70
1, 217882, Note_off_c, 0, 56, 54
1, 217882, Note_off_c, 0, 61, 53
1, 217889, Control_c, 0, 64, 71
1, 217901, Note_off_c, 0, 73, 59
1, 217904, Control_c, 0, 64, 73
1, 217918, Control_c, 0, 64, 75
1, 217933, Control_c, 0, 64, 76
1, 217985, Note_on_c, 0, 74, 58
1, 218067, Note_on_c, 0, 73, 63
1, 218068, Note_on_c, 0, 52, 40
1, 218074, Note_on_c, 0, 55, 29
1, 218077, Note_on_c, 0, 58, 37
1, 218082, Note_off_c, 0, 74, 61
1, 218095, Note_off_c, 0, 73, 66
1, 218113, Note_off_c, 0, 52, 45
1, 218124, Note_off_c, 0, 55, 43
1, 218159, Note_off_c, 0, 58, 33
1, 218239, Note_on_c, 0, 71, 63
1, 218245, Control_c, 0, 64, 75
1, 218267, Note_off_c, 0, 71, 62
1, 218267, Control_c, 0, 64, 75
1, 218282, Control_c, 0, 64, 74
1, 218297, Note_on_c, 0, 73, 67
1, 218297, Control_c, 0, 64, 73
1, 218312, Control_c, 0, 64, 72
1, 218327, Control_c, 0, 64, 69
1, 218341, Control_c, 0, 64, 66
1, 218343, Note_on_c, 0, 71, 63
1, 218356, Control_c, 0, 64, 62
1, 218358, Note_off_c, 0, 73, 63
1, 218371, Control_c, 0, 64, 55
1, 218381, Note_on_c, 0, 54, 27
1, 218386, Control_c, 0, 64, 43
1, 218393, Note_on_c, 0, 50, 33
1, 218400, Control_c, 0, 64, 0
1, 218405, Note_on_c, 0, 59, 29
1, 218534, Control_c, 0, 64, 15
1, 218548, Control_c, 0, 64, 39
1, 218563, Control_c, 0, 64, 53
1, 218578, Control_c, 0, 64, 61
1, 218593, Control_c, 0, 64, 64
1, 218608, Control_c, 0, 64, 66
1, 218623, Control_c, 0, 64, 67
1, 218638, Control_c, 0, 64, 69
1, 218652, Control_c, 0, 64, 71
1, 218667, Control_c, 0, 64, 73
1, 218682, Control_c, 0, 64, 76
1, 218697, Control_c, 0, 64, 78
1, 218703, Note_off_c, 0, 50, 35
1, 218712, Control_c, 0, 64, 80
1, 218726, Control_c, 0, 64, 81
1, 218742, Note_off_c, 0, 59, 42
1, 218742, Control_c, 0, 64, 82
1, 218757, Control_c, 0, 64, 83
1, 218768, Note_off_c, 0, 54, 41
1, 218846, Note_off_c, 0, 71, 56
1, 218852, Note_on_c, 0, 69, 51
1, 218932, Note_off_c, 0, 69, 0
1, 218932, Note_on_c, 0, 69, 14
1, 218950, Control_c, 0, 64, 82
1, 218964, Control_c, 0, 64, 80
1, 218979, Control_c, 0, 64, 78
1, 218994, Control_c, 0, 64, 74
1, 219016, Control_c, 0, 64, 70
1, 219031, Control_c, 0, 64, 63
1, 219046, Control_c, 0, 64, 53
1, 219048, Note_on_c, 0, 71, 52
1, 219059, Note_off_c, 0, 69, 50
1, 219061, Control_c, 0, 64, 36
1, 219070, Note_on_c, 0, 54, 24
1, 219076, Control_c, 0, 64, 0
1, 219076, Note_on_c, 0, 62, 33
1, 219088, Note_on_c, 0, 57, 18
1, 219120, Control_c, 0, 64, 25
1, 219135, Control_c, 0, 64, 43
1, 219150, Control_c, 0, 64, 56
1, 219164, Control_c, 0, 64, 63
1, 219179, Control_c, 0, 64, 66
1, 219194, Control_c, 0, 64, 68
1, 219209, Control_c, 0, 64, 71
1, 219223, Control_c, 0, 64, 73
1, 219238, Control_c, 0, 64, 75
1, 219253, Control_c, 0, 64, 78
1, 219268, Control_c, 0, 64, 80
1, 219274, Note_off_c, 0, 71, 58
1, 219283, Control_c, 0, 64, 82
1, 219293, Note_off_c, 0, 54, 40
1, 219297, Control_c, 0, 64, 84
1, 219312, Control_c, 0, 64, 86
1, 219327, Control_c, 0, 64, 87
1, 219341, Control_c, 0, 64, 87
1, 219356, Control_c, 0, 64, 88
1, 219359, Note_off_c, 0, 62, 34
1, 219386, Control_c, 0, 64, 88
1, 219436, Note_off_c, 0, 57, 26
1, 219506, Note_on_c, 0, 49, 31
1, 219520, Control_c, 0, 64, 88
1, 219535, Control_c, 0, 64, 87
1, 219550, Control_c, 0, 64, 87
1, 219565, Control_c, 0, 64, 86
1, 219568, Note_on_c, 0, 56, 37
1, 219580, Control_c, 0, 64, 84
1, 219594, Control_c, 0, 64, 82
1, 219609, Control_c, 0, 64, 79
1, 219624, Control_c, 0, 64, 76
1, 219639, Control_c, 0, 64, 71
1, 219639, Note_on_c, 0, 65, 37
1, 219654, Control_c, 0, 64, 65
1, 219669, Control_c, 0, 64, 60
1, 219684, Control_c, 0, 64, 51
1, 219693, Note_on_c, 0, 73, 46
1, 219699, Control_c, 0, 64, 41
1, 219713, Control_c, 0, 64, 23
1, 219728, Control_c, 0, 64, 0
1, 219779, Control_c, 0, 64, 10
1, 219794, Control_c, 0, 64, 23
1, 219809, Control_c, 0, 64, 37
1, 219824, Control_c, 0, 64, 49
1, 219839, Control_c, 0, 64, 58
1, 219854, Control_c, 0, 64, 62
1, 219869, Control_c, 0, 64, 65
1, 219884, Control_c, 0, 64, 66
1, 219898, Control_c, 0, 64, 68
1, 219913, Control_c, 0, 64, 71
1, 219928, Control_c, 0, 64, 74
1, 219943, Control_c, 0, 64, 76
1, 219958, Control_c, 0, 64, 79
1, 219971, Note_off_c, 0, 65, 41
1, 219972, Control_c, 0, 64, 82
1, 219987, Control_c, 0, 64, 85
1, 220002, Control_c, 0, 64, 87
1, 220005, Note_off_c, 0, 73, 51
1, 220017, Control_c, 0, 64, 88
1, 220029, Note_off_c, 0, 56, 35
1, 220032, Control_c, 0, 64, 88
1, 220061, Control_c, 0, 64, 89
1, 220137, Note_off_c, 0, 49, 40
1, 220152, Note_on_c, 0, 61, 46
1, 220197, Note_off_c, 0, 61, 45
1, 220241, Note_on_c, 0, 73, 45
1, 220286, Note_off_c, 0, 73, 54
1, 220298, Control_c, 0, 64, 88
1, 220331, Note_on_c, 0, 68, 48
1, 220359, Note_off_c, 0, 68, 54
1, 220373, Control_c, 0, 64, 88
1, 220393, Note_on_c, 0, 73, 57
1, 220430, Note_off_c, 0, 73, 63
1, 220477, Note_on_c, 0, 68, 43
1, 220520, Note_off_c, 0, 68, 50
1, 220582, Note_on_c, 0, 80, 50
1, 220598, Note_on_c, 0, 37, 49
1, 220617, Note_off_c, 0, 80, 52
1, 220655, Note_on_c, 0, 73, 37
1, 220682, Note_off_c, 0, 73, 56
1, 220708, Note_on_c, 0, 80, 65
1, 220739, Note_off_c, 0, 80, 65
1, 220766, Note_on_c, 0, 73, 58
1, 220798, Note_off_c, 0, 73, 65
1, 220852, Note_on_c, 0, 85, 61
1, 220893, Note_off_c, 0, 85, 63
1, 220933, Note_on_c, 0, 80, 42
1, 220959, Note_off_c, 0, 80, 55
1, 220984, Note_on_c, 0, 85, 62
1, 221004, Note_off_c, 0, 85, 63
1, 221041, Note_on_c, 0, 80, 62
1, 221083, Note_off_c, 0, 80, 58
1, 221146, Note_on_c, 0, 92, 57
1, 221188, Note_off_c, 0, 92, 55
1, 221221, Note_on_c, 0, 85, 53
1, 221241, Control_c, 0, 64, 87
1, 221297, Note_off_c, 0, 85, 36
1, 221323, Control_c, 0, 64, 87
1, 221329, Note_on_c, 0, 92, 50
1, 221353, Control_c, 0, 64, 86
1, 221367, Control_c, 0, 64, 86
1, 221378, Note_off_c, 0, 92, 58
1, 221397, Control_c, 0, 64, 85
1, 221422, Note_on_c, 0, 85, 57
1, 221426, Control_c, 0, 64, 85
1, 221456, Control_c, 0, 64, 84
1, 221460, Note_off_c, 0, 85, 57
1, 221471, Control_c, 0, 64, 84
1, 221530, Control_c, 0, 64, 83
1, 221574, Control_c, 0, 64, 83
1, 221589, Control_c, 0, 64, 82
1, 221624, Note_on_c, 0, 97, 48
1, 221633, Control_c, 0, 64, 82
1, 221678, Control_c, 0, 64, 81
1, 221723, Control_c, 0, 64, 81
1, 221767, Control_c, 0, 64, 80
1, 221790, Note_off_c, 0, 97, 32
1, 221841, Control_c, 0, 64, 80
1, 221885, Control_c, 0, 64, 79
1, 221931, Control_c, 0, 64, 79
1, 221951, Note_off_c, 0, 37, 39
1, 221961, Control_c, 0, 64, 78
1, 221976, Control_c, 0, 64, 78
1, 221989, Control_c, 0, 64, 77
1, 222012, Control_c, 0, 64, 77
1, 222027, Control_c, 0, 64, 76
1, 222041, Control_c, 0, 64, 76
1, 222056, Control_c, 0, 64, 75
1, 222071, Control_c, 0, 64, 74
1, 222086, Control_c, 0, 64, 74
1, 222101, Control_c, 0, 64, 73
1, 222115, Control_c, 0, 64, 73
1, 222145, Control_c, 0, 64, 72
1, 222160, Control_c, 0, 64, 72
1, 222189, Control_c, 0, 64, 71
1, 222219, Control_c, 0, 64, 71
1, 222234, Control_c, 0, 64, 70
1, 222263, Control_c, 0, 64, 70
1, 222293, Control_c, 0, 64, 69
1, 222308, Control_c, 0, 64, 69
1, 222337, Control_c, 0, 64, 68
1, 222352, Control_c, 0, 64, 68
1, 222396, Control_c, 0, 64, 67
1, 222426, Control_c, 0, 64, 67
1, 222441, Control_c, 0, 64, 66
1, 222456, Control_c, 0, 64, 65
1, 222471, Control_c, 0, 64, 65
1, 222486, Control_c, 0, 64, 64
1, 222515, Control_c, 0, 64, 64
1, 222530, Control_c, 0, 64, 63
1, 222559, Control_c, 0, 64, 63
1, 222589, Control_c, 0, 64, 62
1, 222604, Control_c, 0, 64, 62
1, 222619, Control_c, 0, 64, 61
1, 222633, Control_c, 0, 64, 61
1, 222648, Control_c, 0, 64, 60
1, 222663, Control_c, 0, 64, 60
1, 222693, Control_c, 0, 64, 59
1, 222722, Control_c, 0, 64, 59
1, 222737, Control_c, 0, 64, 58
1, 222760, Control_c, 0, 64, 58
1, 222775, Control_c, 0, 64, 57
1, 222789, Control_c, 0, 64, 56
1, 222804, Control_c, 0, 64, 56
1, 222819, Control_c, 0, 64, 55
1, 222834, Control_c, 0, 64, 55
1, 222849, Control_c, 0, 64, 54
1, 222863, Control_c, 0, 64, 54
1, 222878, Control_c, 0, 64, 53
1, 222893, Control_c, 0, 64, 52
1, 222908, Control_c, 0, 64, 52
1, 222923, Control_c, 0, 64, 51
1, 222937, Control_c, 0, 64, 50
1, 222952, Control_c, 0, 64, 49
1, 222967, Control_c, 0, 64, 48
1, 222981, Control_c, 0, 64, 46
1, 222996, Control_c, 0, 64, 45
1, 223011, Control_c, 0, 64, 44
1, 223026, Control_c, 0, 64, 43
1, 223041, Control_c, 0, 64, 42
1, 223055, Control_c, 0, 64, 42
1, 223160, Control_c, 0, 64, 43
1, 223175, Control_c, 0, 64, 45
1, 223189, Control_c, 0, 64, 48
1, 223204, Control_c, 0, 64, 50
1, 223219, Control_c, 0, 64, 52
1, 223234, Control_c, 0, 64, 54
1, 223249, Control_c, 0, 64, 56
1, 223263, Control_c, 0, 64, 58
1, 223278, Control_c, 0, 64, 60
1, 223293, Control_c, 0, 64, 61
1, 223308, Control_c, 0, 64, 62
1, 223323, Control_c, 0, 64, 63
1, 223337, Control_c, 0, 64, 64
1, 223352, Control_c, 0, 64, 65
1, 223367, Control_c, 0, 64, 66
1, 223381, Control_c, 0, 64, 67
1, 223396, Control_c, 0, 64, 68
1, 223411, Control_c, 0, 64, 69
1, 223426, Control_c, 0, 64, 70
1, 223441, Control_c, 0, 64, 72
1, 223455, Control_c, 0, 64, 74
1, 223470, Control_c, 0, 64, 76
1, 223486, Control_c, 0, 64, 77
1, 223501, Control_c, 0, 64, 79
1, 223523, Control_c, 0, 64, 79
1, 223539, Control_c, 0, 64, 80
1, 223554, Control_c, 0, 64, 81
1, 223568, Control_c, 0, 64, 82
1, 223583, Control_c, 0, 64, 83
1, 223598, Control_c, 0, 64, 83
1, 223613, Control_c, 0, 64, 84
1, 223766, Note_on_c, 0, 61, 40
1, 223790, Note_on_c, 0, 64, 36
1, 223804, Note_on_c, 0, 45, 27
1, 223813, Note_on_c, 0, 52, 26
1, 224465, Control_c, 0, 64, 83
1, 224613, Control_c, 0, 64, 83
1, 224672, Control_c, 0, 64, 82
1, 224701, Control_c, 0, 64, 82
1, 224731, Control_c, 0, 64, 81
1, 224746, Control_c, 0, 64, 80
1, 224760, Control_c, 0, 64, 79
1, 224775, Control_c, 0, 64, 78
1, 224790, Control_c, 0, 64, 76
1, 224797, Note_on_c, 0, 66, 41
1, 224805, Control_c, 0, 64, 73
1, 224809, Note_on_c, 0, 38, 35
1, 224820, Note_on_c, 0, 54, 25
1, 224820, Control_c, 0, 64, 69
1, 224835, Control_c, 0, 64, 65
1, 224850, Control_c, 0, 64, 60
1, 224858, Note_off_c, 0, 64, 39
1, 224865, Control_c, 0, 64, 55
1, 224880, Control_c, 0, 64, 50
1, 224894, Control_c, 0, 64, 44
1, 224909, Control_c, 0, 64, 38
1, 224924, Control_c, 0, 64, 32
1, 224939, Control_c, 0, 64, 26
1, 224953, Control_c, 0, 64, 25
1, 224996, Note_off_c, 0, 52, 32
1, 225049, Control_c, 0, 64, 26
1, 225064, Control_c, 0, 64, 28
1, 225079, Control_c, 0, 64, 32
1, 225094, Control_c, 0, 64, 36
1, 225109, Control_c, 0, 64, 41
1, 225124, Control_c, 0, 64, 46
1, 225139, Control_c, 0, 64, 51
1, 225154, Control_c, 0, 64, 55
1, 225169, Control_c, 0, 64, 58
1, 225184, Control_c, 0, 64, 60
1, 225199, Control_c, 0, 64, 61
1, 225213, Control_c, 0, 64, 62
1, 225228, Control_c, 0, 64, 63
1, 225243, Control_c, 0, 64, 64
1, 225258, Control_c, 0, 64, 65
1, 225273, Control_c, 0, 64, 66
1, 225288, Control_c, 0, 64, 67
1, 225303, Control_c, 0, 64, 67
1, 225318, Control_c, 0, 64, 69
1, 225332, Control_c, 0, 64, 70
1, 225347, Control_c, 0, 64, 71
1, 225362, Control_c, 0, 64, 71
1, 225377, Control_c, 0, 64, 72
1, 225391, Control_c, 0, 64, 73
1, 225406, Control_c, 0, 64, 75
1, 225421, Control_c, 0, 64, 76
1, 225436, Control_c, 0, 64, 77
1, 225451, Control_c, 0, 64, 77
1, 225465, Control_c, 0, 64, 78
1, 225480, Control_c, 0, 64, 79
1, 225495, Control_c, 0, 64, 80
1, 225510, Control_c, 0, 64, 81
1, 225524, Control_c, 0, 64, 82
1, 225539, Control_c, 0, 64, 82
1, 225554, Control_c, 0, 64, 83
1, 225569, Control_c, 0, 64, 84
1, 225583, Control_c, 0, 64, 84
1, 225598, Control_c, 0, 64, 85
1, 225613, Control_c, 0, 64, 85
1, 225628, Control_c, 0, 64, 86
1, 225643, Control_c, 0, 64, 86
1, 225658, Control_c, 0, 64, 87
1, 225687, Control_c, 0, 64, 87
1, 225783, Control_c, 0, 64, 88
1, 226039, Note_on_c, 0, 59, 41
1, 226131, Note_off_c, 0, 61, 40
1, 226445, Note_on_c, 0, 61, 49
1, 226559, Note_off_c, 0, 59, 42
1, 226732, Note_on_c, 0, 64, 45
1, 226752, Note_off_c, 0, 61, 55
1, 226972, Note_on_c, 0, 62, 58
1, 227012, Note_off_c, 0, 64, 34
1, 227175, Note_off_c, 0, 62, 54
1, 227177, Note_on_c, 0, 61, 58
1, 227187, Note_off_c, 0, 45, 31
1, 227261, Note_off_c, 0, 54, 46
1, 227272, Note_off_c, 0, 66, 43
1, 227311, Note_off_c, 0, 61, 52
1, 227356, Control_c, 0, 64, 87
1, 227490, Control_c, 0, 64, 87
1, 227504, Control_c, 0, 64, 86
1, 227519, Control_c, 0, 64, 85
1, 227523, Note_on_c, 0, 61, 54
1, 227535, Control_c, 0, 64, 83
1, 227550, Control_c, 0, 64, 81
1, 227565, Control_c, 0, 64, 78
1, 227571, Note_on_c, 0, 52, 34
1, 227579, Note_on_c, 0, 64, 32
1, 227579, Control_c, 0, 64, 75
1, 227588, Note_on_c, 0, 33, 38
1, 227589, Note_on_c, 0, 45, 35
1, 227594, Control_c, 0, 64, 70
1, 227608, Note_off_c, 0, 38, 35
1, 227609, Control_c, 0, 64, 66
1, 227624, Control_c, 0, 64, 60
1, 227639, Control_c, 0, 64, 54
1, 227653, Control_c, 0, 64, 45
1, 227668, Control_c, 0, 64, 36
1, 227683, Control_c, 0, 64, 25
1, 227698, Control_c, 0, 64, 15
1, 227713, Control_c, 0, 64, 0
1, 227772, Control_c, 0, 64, 13
1, 227786, Control_c, 0, 64, 23
1, 227801, Control_c, 0, 64, 34
1, 227816, Control_c, 0, 64, 45
1, 227831, Control_c, 0, 64, 53
1, 227846, Control_c, 0, 64, 59
1, 227860, Control_c, 0, 64, 61
1, 227875, Control_c, 0, 64, 63
1, 227890, Control_c, 0, 64, 64
1, 227905, Control_c, 0, 64, 65
1, 227920, Control_c, 0, 64, 67
1, 227935, Control_c, 0, 64, 70
1, 227950, Control_c, 0, 64, 73
1, 227965, Control_c, 0, 64, 75
1, 227978, Control_c, 0, 64, 78
1, 227993, Control_c, 0, 64, 80
1, 228015, Control_c, 0, 64, 82
1, 228030, Control_c, 0, 64, 83
1, 228045, Control_c, 0, 64, 84
1, 228048, Note_off_c, 0, 52, 42
1, 228060, Control_c, 0, 64, 85
1, 228068, Note_off_c, 0, 45, 36
1, 228072, Note_off_c, 0, 64, 41
1, 228075, Control_c, 0, 64, 85
1, 228090, Control_c, 0, 64, 86
1, 228431, Control_c, 0, 64, 85
1, 228446, Control_c, 0, 64, 85
1, 228461, Control_c, 0, 64, 84
1, 228475, Control_c, 0, 64, 83
1, 228484, Note_on_c, 0, 66, 40
1, 228486, Note_on_c, 0, 54, 38
1, 228490, Control_c, 0, 64, 81
1, 228505, Control_c, 0, 64, 78
1, 228520, Control_c, 0, 64, 74
1, 228530, Note_on_c, 0, 38, 31
1, 228535, Control_c, 0, 64, 70
1, 228538, Note_on_c, 0, 45, 20
1, 228549, Control_c, 0, 64, 65
1, 228556, Note_off_c, 0, 66, 0
1, 228556, Note_on_c, 0, 66, 8
1, 228564, Control_c, 0, 64, 60
1, 228579, Control_c, 0, 64, 53
1, 228594, Control_c, 0, 64, 46
1, 228609, Control_c, 0, 64, 39
1, 228624, Control_c, 0, 64, 30
1, 228639, Control_c, 0, 64, 21
1, 228653, Control_c, 0, 64, 12
1, 228662, Note_off_c, 0, 33, 28
1, 228668, Control_c, 0, 64, 0
1, 228883, Control_c, 0, 64, 13
1, 228898, Control_c, 0, 64, 17
1, 228913, Control_c, 0, 64, 22
1, 228927, Control_c, 0, 64, 25
1, 228942, Control_c, 0, 64, 30
1, 228957, Control_c, 0, 64, 36
1, 228972, Control_c, 0, 64, 42
1, 228987, Control_c, 0, 64, 46
1, 229001, Control_c, 0, 64, 49
1, 229016, Control_c, 0, 64, 52
1, 229031, Control_c, 0, 64, 53
1, 229046, Control_c, 0, 64, 54
1, 229061, Control_c, 0, 64, 56
1, 229075, Control_c, 0, 64, 58
1, 229090, Control_c, 0, 64, 59
1, 229105, Control_c, 0, 64, 60
1, 229120, Control_c, 0, 64, 61
1, 229136, Control_c, 0, 64, 62
1, 229151, Control_c, 0, 64, 62
1, 229166, Control_c, 0, 64, 63
1, 229180, Control_c, 0, 64, 64
1, 229195, Control_c, 0, 64, 64
1, 229210, Control_c, 0, 64, 65
1, 229224, Control_c, 0, 64, 66
1, 229239, Control_c, 0, 64, 67
1, 229254, Control_c, 0, 64, 68
1, 229269, Control_c, 0, 64, 69
1, 229284, Control_c, 0, 64, 70
1, 229298, Control_c, 0, 64, 70
1, 229313, Control_c, 0, 64, 71
1, 229328, Control_c, 0, 64, 72
1, 229342, Control_c, 0, 64, 73
1, 229357, Control_c, 0, 64, 74
1, 229372, Control_c, 0, 64, 74
1, 229387, Control_c, 0, 64, 75
1, 229402, Control_c, 0, 64, 75
1, 229431, Control_c, 0, 64, 76
1, 229446, Control_c, 0, 64, 76
1, 229839, Control_c, 0, 64, 76
1, 229842, Note_on_c, 0, 59, 42
1, 229854, Control_c, 0, 64, 75
1, 229869, Control_c, 0, 64, 74
1, 229884, Control_c, 0, 64, 72
1, 229898, Control_c, 0, 64, 69
1, 229913, Control_c, 0, 64, 65
1, 229925, Note_off_c, 0, 61, 32
1, 229929, Control_c, 0, 64, 59
1, 229944, Control_c, 0, 64, 50
1, 229959, Control_c, 0, 64, 39
1, 229973, Control_c, 0, 64, 26
1, 229988, Control_c, 0, 64, 0
1, 230171, Note_on_c, 0, 61, 47
1, 230269, Note_off_c, 0, 59, 39
1, 230428, Note_on_c, 0, 64, 50
1, 230439, Note_off_c, 0, 61, 62
1, 230663, Note_on_c, 0, 62, 51
1, 230666, Note_off_c, 0, 64, 55
1, 230811, Control_c, 0, 64, 17
1, 230826, Control_c, 0, 64, 32
1, 230841, Control_c, 0, 64, 44
1, 230856, Control_c, 0, 64, 54
1, 230870, Control_c, 0, 64, 58
1, 230885, Control_c, 0, 64, 60
1, 230900, Control_c, 0, 64, 61
1, 230915, Control_c, 0, 64, 63
1, 230930, Control_c, 0, 64, 64
1, 230944, Control_c, 0, 64, 66
1, 230959, Control_c, 0, 64, 69
1, 230975, Control_c, 0, 64, 71
1, 230990, Control_c, 0, 64, 74
1, 231011, Control_c, 0, 64, 76
1, 231026, Control_c, 0, 64, 78
1, 231041, Control_c, 0, 64, 80
1, 231056, Control_c, 0, 64, 82
1, 231065, Poly_aftertouch_c, 0, 40, 127
1, 231071, Control_c, 0, 64, 83
1, 231086, Control_c, 0, 64, 84
1, 231101, Control_c, 0, 64, 84
1, 231271, Note_on_c, 0, 61, 54
1, 231278, Control_c, 0, 64, 84
1, 231304, Note_off_c, 0, 62, 32
1, 231322, Control_c, 0, 64, 83
1, 231337, Control_c, 0, 64, 83
1, 231367, Control_c, 0, 64, 82
1, 231376, Note_off_c, 0, 66, 37
1, 231411, Note_off_c, 0, 61, 33
1, 231411, Control_c, 0, 64, 82
1, 231470, Control_c, 0, 64, 81
1, 231531, Control_c, 0, 64, 81
1, 231590, Control_c, 0, 64, 80
1, 231619, Control_c, 0, 64, 80
1, 231649, Control_c, 0, 64, 79
1, 231663, Note_on_c, 0, 61, 39
1, 231664, Control_c, 0, 64, 79
1, 231679, Control_c, 0, 64, 77
1, 231694, Control_c, 0, 64, 76
1, 231709, Control_c, 0, 64, 73
1, 231724, Control_c, 0, 64, 69
1, 231730, Note_on_c, 0, 69, 50
1, 231739, Control_c, 0, 64, 65
1, 231761, Control_c, 0, 64, 61
1, 231775, Control_c, 0, 64, 53
1, 231790, Control_c, 0, 64, 44
1, 231805, Control_c, 0, 64, 32
1, 231820, Control_c, 0, 64, 14
1, 231834, Control_c, 0, 64, 0
1, 231889, Note_off_c, 0, 69, 63
1, 231903, Note_on_c, 0, 68, 45
1, 232081, Note_on_c, 0, 71, 49
1, 232085, Note_off_c, 0, 68, 56
1, 232211, Note_off_c, 0, 71, 54
1, 232217, Note_on_c, 0, 69, 54
1, 232219, Control_c, 0, 64, 21
1, 232234, Control_c, 0, 64, 39
1, 232249, Control_c, 0, 64, 52
1, 232264, Control_c, 0, 64, 58
1, 232279, Control_c, 0, 64, 62
1, 232293, Control_c, 0, 64, 63
1, 232308, Control_c, 0, 64, 64
1, 232324, Control_c, 0, 64, 66
1, 232339, Control_c, 0, 64, 68
1, 232354, Control_c, 0, 64, 71
1, 232357, Note_on_c, 0, 66, 53
1, 232368, Control_c, 0, 64, 73
1, 232383, Control_c, 0, 64, 74
1, 232398, Control_c, 0, 64, 75
1, 232413, Control_c, 0, 64, 76
1, 232419, Note_off_c, 0, 61, 41
1, 232436, Note_off_c, 0, 54, 41
1, 232442, Control_c, 0, 64, 76
1, 232445, Note_off_c, 0, 66, 45
1, 232463, Note_off_c, 0, 69, 44
1, 232465, Poly_aftertouch_c, 0, 40, 0
1, 232472, Note_off_c, 0, 38, 34
1, 232472, Control_c, 0, 64, 77
1, 232485, Note_on_c, 0, 62, 60
1, 232687, Control_c, 0, 64, 76
1, 232701, Control_c, 0, 64, 76
1, 232716, Control_c, 0, 64, 75
1, 232731, Control_c, 0, 64, 73
1, 232736, Note_off_c, 0, 62, 58
1, 232743, Note_on_c, 0, 61, 53
1, 232746, Control_c, 0, 64, 72
1, 232761, Control_c, 0, 64, 69
1, 232762, Note_on_c, 0, 56, 46
1, 232775, Control_c, 0, 64, 64
1, 232783, Note_off_c, 0, 45, 15
1, 232789, Note_on_c, 0, 40, 36
1, 232790, Control_c, 0, 64, 59
1, 232797, Note_on_c, 0, 64, 41
1, 232805, Control_c, 0, 64, 52
1, 232808, Note_on_c, 0, 52, 22
1, 232820, Control_c, 0, 64, 43
1, 232835, Control_c, 0, 64, 31
1, 232849, Control_c, 0, 64, 16
1, 232864, Control_c, 0, 64, 0
1, 232982, Control_c, 0, 64, 9
1, 232997, Control_c, 0, 64, 27
1, 233012, Control_c, 0, 64, 40
1, 233027, Control_c, 0, 64, 51
1, 233041, Control_c, 0, 64, 58
1, 233056, Control_c, 0, 64, 62
1, 233071, Control_c, 0, 64, 64
1, 233086, Control_c, 0, 64, 65
1, 233101, Control_c, 0, 64, 66
1, 233117, Control_c, 0, 64, 68
1, 233132, Control_c, 0, 64, 71
1, 233146, Control_c, 0, 64, 73
1, 233161, Control_c, 0, 64, 75
1, 233176, Control_c, 0, 64, 77
1, 233190, Control_c, 0, 64, 78
1, 233205, Control_c, 0, 64, 79
1, 233220, Control_c, 0, 64, 81
1, 233243, Control_c, 0, 64, 81
1, 233258, Control_c, 0, 64, 82
1, 233287, Control_c, 0, 64, 82
1, 233295, Note_off_c, 0, 52, 37
1, 233643, Control_c, 0, 64, 82
1, 233658, Control_c, 0, 64, 81
1, 233672, Control_c, 0, 64, 81
1, 233687, Control_c, 0, 64, 80
1, 233702, Control_c, 0, 64, 80
1, 233716, Control_c, 0, 64, 79
1, 233731, Control_c, 0, 64, 78
1, 233746, Control_c, 0, 64, 77
1, 233761, Control_c, 0, 64, 76
1, 233776, Control_c, 0, 64, 73
1, 233787, Note_on_c, 0, 59, 43
1, 233790, Control_c, 0, 64, 70
1, 233805, Control_c, 0, 64, 67
1, 233820, Control_c, 0, 64, 63
1, 233833, Note_on_c, 0, 50, 26
1, 233835, Control_c, 0, 64, 58
1, 233849, Note_off_c, 0, 61, 41
1, 233850, Control_c, 0, 64, 52
1, 233864, Control_c, 0, 64, 44
1, 233879, Control_c, 0, 64, 34
1, 233894, Control_c, 0, 64, 25
1, 233910, Control_c, 0, 64, 18
1, 233925, Control_c, 0, 64, 16
1, 233940, Control_c, 0, 64, 15
1, 233968, Control_c, 0, 64, 16
1, 233991, Control_c, 0, 64, 21
1, 234006, Control_c, 0, 64, 27
1, 234020, Control_c, 0, 64, 35
1, 234035, Control_c, 0, 64, 44
1, 234050, Control_c, 0, 64, 51
1, 234065, Control_c, 0, 64, 57
1, 234080, Control_c, 0, 64, 60
1, 234094, Control_c, 0, 64, 62
1, 234109, Control_c, 0, 64, 63
1, 234124, Control_c, 0, 64, 64
1, 234139, Control_c, 0, 64, 65
1, 234154, Control_c, 0, 64, 66
1, 234168, Control_c, 0, 64, 68
1, 234183, Control_c, 0, 64, 70
1, 234198, Control_c, 0, 64, 72
1, 234213, Control_c, 0, 64, 74
1, 234228, Control_c, 0, 64, 75
1, 234243, Control_c, 0, 64, 77
1, 234258, Control_c, 0, 64, 78
1, 234272, Control_c, 0, 64, 79
1, 234287, Control_c, 0, 64, 80
1, 234302, Control_c, 0, 64, 81
1, 234453, Note_off_c, 0, 64, 30
1, 234717, Control_c, 0, 64, 80
1, 234769, Control_c, 0, 64, 80
1, 234784, Control_c, 0, 64, 79
1, 234799, Control_c, 0, 64, 79
1, 234814, Control_c, 0, 64, 78
1, 234829, Control_c, 0, 64, 77
1, 234843, Control_c, 0, 64, 75
1, 234858, Control_c, 0, 64, 72
1, 234869, Note_on_c, 0, 57, 41
1, 234873, Control_c, 0, 64, 68
1, 234881, Note_on_c, 0, 49, 40
1, 234888, Note_off_c, 0, 59, 40
1, 234888, Control_c, 0, 64, 62
1, 234889, Note_on_c, 0, 45, 22
1, 234903, Control_c, 0, 64, 55
1, 234917, Control_c, 0, 64, 46
1, 234925, Note_off_c, 0, 56, 40
1, 234932, Control_c, 0, 64, 35
1, 234937, Note_off_c, 0, 40, 29
1, 234947, Control_c, 0, 64, 23
1, 234961, Control_c, 0, 64, 12
1, 234976, Control_c, 0, 64, 0
1, 234980, Note_off_c, 0, 50, 40
1, 235331, Note_on_c, 0, 61, 36
1, 235372, Note_on_c, 0, 52, 20
1, 235406, Note_off_c, 0, 57, 40
1, 235492, Note_off_c, 0, 49, 36
1, 235696, Control_c, 0, 64, 16
1, 235711, Control_c, 0, 64, 26
1, 235726, Control_c, 0, 64, 34
1, 235740, Control_c, 0, 64, 42
1, 235755, Control_c, 0, 64, 47
1, 235770, Control_c, 0, 64, 51
1, 235784, Control_c, 0, 64, 53
1, 235799, Control_c, 0, 64, 56
1, 235814, Control_c, 0, 64, 58
1, 235829, Control_c, 0, 64, 59
1, 235844, Control_c, 0, 64, 60
1, 235858, Control_c, 0, 64, 61
1, 235873, Control_c, 0, 64, 62
1, 235888, Control_c, 0, 64, 63
1, 235903, Control_c, 0, 64, 64
1, 235918, Control_c, 0, 64, 65
1, 235933, Control_c, 0, 64, 66
1, 235948, Control_c, 0, 64, 67
1, 235963, Control_c, 0, 64, 68
1, 235977, Control_c, 0, 64, 69
1, 235992, Control_c, 0, 64, 70
1, 236007, Control_c, 0, 64, 71
1, 236022, Control_c, 0, 64, 73
1, 236037, Control_c, 0, 64, 74
1, 236052, Control_c, 0, 64, 76
1, 236066, Control_c, 0, 64, 77
1, 236081, Control_c, 0, 64, 78
1, 236096, Control_c, 0, 64, 79
1, 236111, Control_c, 0, 64, 79
1, 236117, Note_off_c, 0, 45, 27
1, 236126, Control_c, 0, 64, 80
1, 236132, Note_off_c, 0, 61, 31
1, 236140, Control_c, 0, 64, 80
1, 236178, Note_off_c, 0, 52, 36
1, 236430, Control_c, 0, 64, 80
1, 236460, Control_c, 0, 64, 79
1, 236504, Control_c, 0, 64, 79
1, 236519, Control_c, 0, 64, 78
1, 236534, Control_c, 0, 64, 78
1, 236563, Control_c, 0, 64, 77
1, 236593, Control_c, 0, 64, 77
1, 236608, Control_c, 0, 64, 76
1, 236637, Control_c, 0, 64, 76
1, 236696, Control_c, 0, 64, 75
1, 236726, Control_c, 0, 64, 75
1, 236741, Control_c, 0, 64, 74
1, 236756, Control_c, 0, 64, 74
1, 236770, Control_c, 0, 64, 73
1, 236785, Control_c, 0, 64, 73
1, 236800, Control_c, 0, 64, 72
1, 236815, Control_c, 0, 64, 71
1, 236830, Control_c, 0, 64, 71
1, 236845, Control_c, 0, 64, 70
1, 236860, Control_c, 0, 64, 69
1, 236875, Control_c, 0, 64, 68
1, 236889, Control_c, 0, 64, 67
1, 236904, Control_c, 0, 64, 65
1, 236919, Control_c, 0, 64, 63
1, 236933, Control_c, 0, 64, 61
1, 236948, Control_c, 0, 64, 58
1, 236963, Control_c, 0, 64, 55
1, 236985, Control_c, 0, 64, 52
1, 237000, Control_c, 0, 64, 48
1, 237015, Control_c, 0, 64, 44
1, 237030, Control_c, 0, 64, 37
1, 237045, Control_c, 0, 64, 26
1, 237060, Control_c, 0, 64, 11
1, 237074, Control_c, 0, 64, 0
1, 237378, Note_on_c, 0, 73, 45
1, 237809, Control_c, 0, 64, 27
1, 237824, Control_c, 0, 64, 39
1, 237838, Control_c, 0, 64, 46
1, 237853, Control_c, 0, 64, 50
1, 237868, Control_c, 0, 64, 52
1, 237883, Control_c, 0, 64, 54
1, 237898, Control_c, 0, 64, 55
1, 237914, Control_c, 0, 64, 58
1, 237929, Control_c, 0, 64, 60
1, 237943, Control_c, 0, 64, 61
1, 237958, Control_c, 0, 64, 62
1, 237973, Control_c, 0, 64, 63
1, 237987, Control_c, 0, 64, 64
1, 238002, Control_c, 0, 64, 66
1, 238017, Control_c, 0, 64, 67
1, 238032, Control_c, 0, 64, 69
1, 238047, Control_c, 0, 64, 71
1, 238061, Control_c, 0, 64, 73
1, 238076, Control_c, 0, 64, 76
1, 238091, Control_c, 0, 64, 78
1, 238100, Note_off_c, 0, 73, 0
1, 238106, Control_c, 0, 64, 80
1, 238121, Control_c, 0, 64, 82
1, 238136, Control_c, 0, 64, 83
1, 238136, Poly_aftertouch_c, 0, 73, 127
1, 238151, Control_c, 0, 64, 84
1, 238165, Control_c, 0, 64, 84
1, 238180, Control_c, 0, 64, 85
1, 238214, Poly_aftertouch_c, 0, 73, 0
1, 238283, Note_on_c, 0, 75, 48
1, 238407, Note_on_c, 0, 78, 54
1, 238434, Note_off_c, 0, 75, 32
1, 238508, Note_on_c, 0, 76, 51
1, 238513, Control_c, 0, 64, 84
1, 238549, Note_off_c, 0, 78, 32
1, 238620, Note_on_c, 0, 73, 43
1, 238620, Note_off_c, 0, 76, 54
1, 238660, Note_off_c, 0, 73, 49
1, 238660, Control_c, 0, 64, 84
1, 238701, Note_on_c, 0, 69, 57
1, 238728, Note_off_c, 0, 69, 60
1, 238850, Note_on_c, 0, 68, 58
1, 238854, Control_c, 0, 64, 83
1, 238869, Note_off_c, 0, 68, 63
1, 238884, Control_c, 0, 64, 82
1, 238899, Control_c, 0, 64, 81
1, 238914, Control_c, 0, 64, 77
1, 238929, Control_c, 0, 64, 72
1, 238935, Note_on_c, 0, 68, 59
1, 238943, Control_c, 0, 64, 65
1, 238958, Control_c, 0, 64, 56
1, 238973, Control_c, 0, 64, 39
1, 238988, Control_c, 0, 64, 0
1, 239001, Note_on_c, 0, 80, 72
1, 239037, Note_off_c, 0, 68, 0
1, 239047, Control_c, 0, 64, 21
1, 239062, Control_c, 0, 64, 40
1, 239075, Poly_aftertouch_c, 0, 68, 127
1, 239077, Control_c, 0, 64, 54
1, 239079, Note_on_c, 0, 68, 19
1, 239091, Control_c, 0, 64, 62
1, 239106, Control_c, 0, 64, 66
1, 239121, Control_c, 0, 64, 67
1, 239135, Control_c, 0, 64, 69
1, 239150, Control_c, 0, 64, 72
1, 239165, Control_c, 0, 64, 76
1, 239180, Control_c, 0, 64, 81
1, 239185, Note_off_c, 0, 68, 49
1, 239195, Control_c, 0, 64, 86
1, 239209, Control_c, 0, 64, 91
1, 239224, Control_c, 0, 64, 95
1, 239247, Control_c, 0, 64, 98
1, 239262, Control_c, 0, 64, 102
1, 239277, Control_c, 0, 64, 105
1, 239291, Control_c, 0, 64, 109
1, 239306, Control_c, 0, 64, 113
1, 239321, Control_c, 0, 64, 122
1, 239335, Control_c, 0, 64, 127
1, 239504, Note_on_c, 0, 65, 36
1, 239509, Note_on_c, 0, 59, 14
1, 239516, Note_on_c, 0, 62, 26
1, 239549, Note_off_c, 0, 65, 53
1, 239552, Note_off_c, 0, 59, 50
1, 239556, Note_off_c, 0, 62, 52
1, 239606, Note_off_c, 0, 80, 38
1, 239647, Control_c, 0, 64, 122
1, 239662, Control_c, 0, 64, 117
1, 239677, Control_c, 0, 64, 113
1, 239685, Note_on_c, 0, 78, 57
1, 239692, Control_c, 0, 64, 108
1, 239706, Note_off_c, 0, 78, 61
1, 239707, Control_c, 0, 64, 102
1, 239722, Control_c, 0, 64, 95
1, 239724, Note_on_c, 0, 80, 59
1, 239736, Control_c, 0, 64, 86
1, 239751, Control_c, 0, 64, 77
1, 239766, Control_c, 0, 64, 67
1, 239778, Note_on_c, 0, 78, 71
1, 239781, Control_c, 0, 64, 57
1, 239792, Note_off_c, 0, 80, 62
1, 239793, Note_on_c, 0, 61, 34
1, 239794, Note_on_c, 0, 57, 33
1, 239796, Control_c, 0, 64, 42
1, 239811, Control_c, 0, 64, 24
1, 239811, Control_c, 0, 67, 126
1, 239818, Note_on_c, 0, 66, 30
1, 239826, Control_c, 0, 64, 22
1, 239826, Control_c, 0, 67, 124
1, 239840, Control_c, 0, 64, 25
1, 239840, Control_c, 0, 67, 124
1, 239855, Control_c, 0, 64, 35
1, 239855, Control_c, 0, 67, 122
1, 239870, Control_c, 0, 64, 48
1, 239870, Control_c, 0, 67, 120
1, 239885, Control_c, 0, 64, 58
1, 239885, Control_c, 0, 67, 118
1, 239900, Control_c, 0, 64, 64
1, 239900, Control_c, 0, 67, 116
1, 239914, Control_c, 0, 64, 68
1, 239914, Control_c, 0, 67, 114
1, 239929, Control_c, 0, 64, 71
1, 239929, Control_c, 0, 67, 112
1, 239944, Control_c, 0, 64, 74
1, 239944, Control_c, 0, 67, 110
1, 239958, Control_c, 0, 64, 77
1, 239958, Control_c, 0, 67, 108
1, 239973, Control_c, 0, 64, 81
1, 239973, Control_c, 0, 67, 106
1, 239996, Control_c, 0, 64, 85
1, 239996, Control_c, 0, 67, 104
1, 240011, Control_c, 0, 64, 88
1, 240011, Control_c, 0, 67, 102
1, 240026, Control_c, 0, 64, 91
1, 240026, Control_c, 0, 67, 100
1, 240040, Note_off_c, 0, 57, 39
1, 240040, Control_c, 0, 64, 92
1, 240040, Control_c, 0, 67, 97
1, 240055, Control_c, 0, 64, 94
1, 240055, Control_c, 0, 67, 95
1, 240070, Control_c, 0, 64, 94
1, 240070, Control_c, 0, 67, 93
1, 240085, Control_c, 0, 64, 95
1, 240085, Control_c, 0, 67, 92
1, 240100, Control_c, 0, 67, 90
1, 240114, Control_c, 0, 67, 88
1, 240129, Control_c, 0, 67, 87
1, 240133, Note_off_c, 0, 66, 44
1, 240136, Note_off_c, 0, 61, 41
1, 240144, Control_c, 0, 67, 85
1, 240158, Control_c, 0, 67, 83
1, 240173, Control_c, 0, 67, 81
1, 240181, Note_off_c, 0, 78, 55
1, 240188, Control_c, 0, 67, 78
1, 240190, Note_on_c, 0, 76, 73
1, 240203, Control_c, 0, 67, 76
1, 240218, Control_c, 0, 67, 74
1, 240232, Control_c, 0, 67, 72
1, 240247, Control_c, 0, 67, 70
1, 240262, Control_c, 0, 64, 94
1, 240262, Control_c, 0, 67, 68
1, 240277, Control_c, 0, 67, 67
1, 240279, Note_on_c, 0, 61, 47
1, 240285, Note_on_c, 0, 78, 81
1, 240287, Note_on_c, 0, 69, 51
1, 240292, Control_c, 0, 67, 64
1, 240293, Note_on_c, 0, 64, 46
1, 240300, Note_off_c, 0, 76, 61
1, 240308, Control_c, 0, 64, 94
1, 240308, Control_c, 0, 67, 62
1, 240323, Control_c, 0, 64, 93
1, 240323, Control_c, 0, 67, 59
1, 240335, Note_off_c, 0, 61, 55
1, 240337, Control_c, 0, 67, 56
1, 240342, Note_off_c, 0, 64, 58
1, 240342, Note_off_c, 0, 69, 58
1, 240352, Control_c, 0, 64, 92
1, 240352, Control_c, 0, 67, 55
1, 240367, Control_c, 0, 64, 92
1, 240367, Control_c, 0, 67, 53
1, 240381, Control_c, 0, 67, 53
1, 240396, Control_c, 0, 64, 91
1, 240396, Control_c, 0, 67, 52
1, 240411, Control_c, 0, 64, 90
1, 240426, Control_c, 0, 64, 90
1, 240441, Control_c, 0, 64, 89
1, 240455, Control_c, 0, 64, 87
1, 240470, Control_c, 0, 64, 84
1, 240485, Control_c, 0, 64, 79
1, 240485, Control_c, 0, 67, 52
1, 240500, Control_c, 0, 64, 73
1, 240500, Control_c, 0, 67, 53
1, 240515, Control_c, 0, 64, 64
1, 240523, Note_on_c, 0, 80, 78
1, 240529, Control_c, 0, 64, 55
1, 240529, Control_c, 0, 67, 53
1, 240540, Note_on_c, 0, 63, 41
1, 240541, Note_off_c, 0, 78, 62
1, 240544, Control_c, 0, 64, 41
1, 240544, Control_c, 0, 67, 54
1, 240548, Note_on_c, 0, 60, 34
1, 240556, Note_on_c, 0, 68, 37
1, 240559, Control_c, 0, 64, 22
1, 240559, Control_c, 0, 67, 54
1, 240574, Control_c, 0, 64, 8
1, 240574, Control_c, 0, 67, 55
1, 240589, Control_c, 0, 64, 11
1, 240589, Control_c, 0, 67, 56
1, 240604, Control_c, 0, 64, 24
1, 240604, Control_c, 0, 67, 58
1, 240619, Control_c, 0, 64, 43
1, 240619, Control_c, 0, 67, 60
1, 240634, Control_c, 0, 64, 57
1, 240634, Control_c, 0, 67, 60
1, 240649, Control_c, 0, 64, 65
1, 240649, Control_c, 0, 67, 61
1, 240663, Control_c, 0, 64, 69
1, 240678, Control_c, 0, 64, 72
1, 240693, Control_c, 0, 64, 75
1, 240708, Control_c, 0, 64, 78
1, 240716, Note_off_c, 0, 60, 42
1, 240723, Control_c, 0, 64, 81
1, 240723, Control_c, 0, 67, 60
1, 240744, Control_c, 0, 64, 85
1, 240759, Control_c, 0, 64, 88
1, 240759, Control_c, 0, 67, 60
1, 240774, Note_off_c, 0, 63, 55
1, 240774, Control_c, 0, 64, 90
1, 240779, Note_off_c, 0, 68, 55
1, 240789, Control_c, 0, 64, 92
1, 240789, Control_c, 0, 67, 59
1, 240804, Control_c, 0, 64, 94
1, 240818, Control_c, 0, 64, 95
1, 240818, Control_c, 0, 67, 59
1, 240863, Control_c, 0, 67, 58
1, 240887, Note_off_c, 0, 80, 58
1, 240897, Note_on_c, 0, 81, 64
1, 240971, Note_off_c, 0, 81, 63
1, 240971, Note_on_c, 0, 59, 37
1, 240978, Note_on_c, 0, 65, 45
1, 240979, Note_on_c, 0, 80, 70
1, 240985, Note_on_c, 0, 62, 36
1, 241015, Note_off_c, 0, 65, 59
1, 241019, Note_off_c, 0, 80, 57
1, 241021, Note_off_c, 0, 59, 47
1, 241026, Control_c, 0, 64, 94
1, 241036, Note_off_c, 0, 62, 51
1, 241116, Control_c, 0, 64, 93
1, 241131, Control_c, 0, 64, 92
1, 241146, Control_c, 0, 64, 91
1, 241149, Note_on_c, 0, 78, 62
1, 241160, Control_c, 0, 64, 90
1, 241175, Control_c, 0, 64, 87
1, 241179, Note_off_c, 0, 78, 65
1, 241186, Note_on_c, 0, 80, 63
1, 241190, Control_c, 0, 64, 84
1, 241204, Control_c, 0, 64, 79
1, 241219, Control_c, 0, 64, 73
1, 241219, Control_c, 0, 67, 59
1, 241234, Control_c, 0, 64, 66
1, 241244, Note_on_c, 0, 78, 72
1, 241249, Control_c, 0, 64, 59
1, 241254, Note_off_c, 0, 80, 63
1, 241264, Control_c, 0, 64, 50
1, 241264, Control_c, 0, 67, 59
1, 241266, Note_on_c, 0, 57, 36
1, 241275, Note_on_c, 0, 61, 30
1, 241278, Control_c, 0, 64, 39
1, 241287, Note_on_c, 0, 66, 37
1, 241293, Control_c, 0, 64, 26
1, 241293, Control_c, 0, 67, 60
1, 241308, Control_c, 0, 64, 17
1, 241308, Control_c, 0, 67, 60
1, 241323, Control_c, 0, 64, 15
1, 241338, Control_c, 0, 67, 61
1, 241353, Control_c, 0, 67, 61
1, 241367, Control_c, 0, 67, 62
1, 241382, Control_c, 0, 64, 16
1, 241382, Control_c, 0, 67, 62
1, 241397, Control_c, 0, 64, 23
1, 241412, Control_c, 0, 64, 34
1, 241412, Control_c, 0, 67, 63
1, 241427, Control_c, 0, 64, 48
1, 241441, Control_c, 0, 64, 57
1, 241441, Control_c, 0, 67, 63
1, 241457, Control_c, 0, 64, 62
1, 241457, Control_c, 0, 67, 64
1, 241479, Control_c, 0, 64, 65
1, 241494, Control_c, 0, 64, 66
1, 241509, Control_c, 0, 64, 68
1, 241524, Control_c, 0, 64, 71
1, 241538, Control_c, 0, 64, 75
1, 241553, Control_c, 0, 64, 79
1, 241568, Control_c, 0, 64, 81
1, 241583, Control_c, 0, 64, 84
1, 241598, Control_c, 0, 64, 85
1, 241599, Note_off_c, 0, 57, 29
1, 241612, Control_c, 0, 64, 87
1, 241627, Control_c, 0, 64, 88
1, 241642, Control_c, 0, 64, 89
1, 241686, Note_off_c, 0, 66, 43
1, 241688, Note_off_c, 0, 61, 41
1, 241746, Note_on_c, 0, 76, 63
1, 241760, Note_off_c, 0, 78, 59
1, 241835, Control_c, 0, 64, 88
1, 241865, Control_c, 0, 64, 87
1, 241879, Control_c, 0, 64, 87
1, 241894, Control_c, 0, 64, 86
1, 241909, Control_c, 0, 64, 84
1, 241924, Control_c, 0, 64, 81
1, 241939, Control_c, 0, 64, 78
1, 241951, Note_on_c, 0, 78, 64
1, 241954, Control_c, 0, 64, 73
1, 241956, Note_off_c, 0, 76, 61
1, 241969, Control_c, 0, 64, 66
1, 241984, Control_c, 0, 64, 59
1, 241999, Note_on_c, 0, 61, 32
1, 241999, Control_c, 0, 64, 47
1, 242002, Note_on_c, 0, 64, 30
1, 242002, Note_on_c, 0, 69, 33
1, 242014, Control_c, 0, 64, 31
1, 242014, Control_c, 0, 67, 64
1, 242028, Control_c, 0, 64, 13
1, 242043, Control_c, 0, 64, 12
1, 242043, Control_c, 0, 67, 65
1, 242058, Control_c, 0, 64, 13
1, 242058, Control_c, 0, 67, 66
1, 242073, Control_c, 0, 64, 20
1, 242073, Control_c, 0, 67, 66
1, 242088, Control_c, 0, 64, 31
1, 242088, Control_c, 0, 67, 67
1, 242103, Control_c, 0, 64, 45
1, 242103, Control_c, 0, 67, 67
1, 242117, Control_c, 0, 64, 55
1, 242117, Control_c, 0, 67, 68
1, 242132, Control_c, 0, 64, 62
1, 242132, Control_c, 0, 67, 73
1, 242147, Control_c, 0, 64, 65
1, 242147, Control_c, 0, 67, 79
1, 242161, Control_c, 0, 64, 66
1, 242161, Control_c, 0, 67, 86
1, 242176, Control_c, 0, 64, 67
1, 242176, Control_c, 0, 67, 94
1, 242191, Control_c, 0, 64, 70
1, 242191, Control_c, 0, 67, 101
1, 242206, Control_c, 0, 64, 73
1, 242206, Control_c, 0, 67, 105
1, 242221, Control_c, 0, 64, 77
1, 242221, Control_c, 0, 67, 109
1, 242243, Control_c, 0, 64, 80
1, 242243, Control_c, 0, 67, 112
1, 242258, Control_c, 0, 64, 82
1, 242258, Control_c, 0, 67, 114
1, 242264, Note_off_c, 0, 61, 39
1, 242273, Control_c, 0, 64, 84
1, 242273, Control_c, 0, 67, 117
1, 242288, Control_c, 0, 64, 86
1, 242288, Control_c, 0, 67, 118
1, 242303, Control_c, 0, 64, 88
1, 242303, Control_c, 0, 67, 120
1, 242317, Control_c, 0, 64, 89
1, 242317, Control_c, 0, 67, 124
1, 242332, Control_c, 0, 67, 127
1, 242413, Note_off_c, 0, 64, 29
1, 242416, Note_off_c, 0, 69, 34
1, 242506, Note_on_c, 0, 56, 25
1, 242539, Control_c, 0, 64, 87
1, 242547, Note_on_c, 0, 63, 44
1, 242553, Control_c, 0, 64, 85
1, 242568, Control_c, 0, 64, 82
1, 242583, Control_c, 0, 64, 78
1, 242598, Control_c, 0, 64, 73
1, 242608, Note_on_c, 0, 72, 39
1, 242613, Control_c, 0, 64, 66
1, 242628, Control_c, 0, 64, 57
1, 242643, Control_c, 0, 64, 46
1, 242647, Note_off_c, 0, 78, 57
1, 242658, Control_c, 0, 64, 31
1, 242659, Note_on_c, 0, 80, 56
1, 242673, Control_c, 0, 64, 15
1, 242688, Control_c, 0, 64, 0
1, 242792, Control_c, 0, 64, 15
1, 242807, Control_c, 0, 64, 26
1, 242822, Control_c, 0, 64, 36
1, 242837, Control_c, 0, 64, 47
1, 242851, Control_c, 0, 64, 54
1, 242866, Control_c, 0, 64, 59
1, 242881, Control_c, 0, 64, 62
1, 242896, Control_c, 0, 64, 64
1, 242911, Control_c, 0, 64, 66
1, 242925, Control_c, 0, 64, 68
1, 242940, Control_c, 0, 64, 72
1, 242954, Control_c, 0, 64, 75
1, 242969, Control_c, 0, 64, 79
1, 242991, Control_c, 0, 64, 82
1, 243003, Note_off_c, 0, 63, 42
1, 243006, Control_c, 0, 64, 85
1, 243021, Control_c, 0, 64, 88
1, 243036, Control_c, 0, 64, 93
1, 243051, Control_c, 0, 64, 98
1, 243065, Control_c, 0, 64, 105
1, 243080, Control_c, 0, 64, 117
1, 243081, Note_off_c, 0, 56, 39
1, 243095, Control_c, 0, 64, 127
1, 243102, Note_off_c, 0, 72, 39
1, 243629, Note_on_c, 0, 44, 27
1, 243862, Note_off_c, 0, 80, 50
1, 243887, Note_on_c, 0, 68, 39
1, 244026, Note_on_c, 0, 80, 47
1, 244031, Note_off_c, 0, 68, 44
1, 244097, Note_off_c, 0, 80, 47
1, 244157, Note_on_c, 0, 75, 30
1, 244211, Note_off_c, 0, 75, 45
1, 244248, Note_on_c, 0, 80, 45
1, 244293, Note_off_c, 0, 80, 56
1, 244345, Note_on_c, 0, 75, 52
1, 244399, Note_off_c, 0, 75, 54
1, 244485, Note_on_c, 0, 87, 52
1, 244530, Note_off_c, 0, 44, 36
1, 244560, Note_off_c, 0, 87, 34
1, 244592, Control_c, 0, 64, 124
1, 244607, Note_on_c, 0, 80, 42
1, 244667, Control_c, 0, 64, 122
1, 244732, Note_on_c, 0, 87, 47
1, 244744, Note_off_c, 0, 80, 40
1, 244836, Note_off_c, 0, 87, 47
1, 244862, Note_on_c, 0, 80, 49
1, 244953, Note_off_c, 0, 80, 0
1, 244991, Poly_aftertouch_c, 0, 80, 127
1, 245073, Poly_aftertouch_c, 0, 80, 0
1, 245181, Note_on_c, 0, 92, 49
1, 245263, Note_off_c, 0, 92, 60
1, 245986, Control_c, 0, 64, 119
1, 246000, Control_c, 0, 64, 113
1, 246015, Control_c, 0, 64, 103
1, 246030, Control_c, 0, 64, 91
1, 246045, Control_c, 0, 64, 78
1, 246060, Control_c, 0, 64, 64
1, 246063, Note_on_c, 0, 80, 53
1, 246074, Control_c, 0, 64, 48
1, 246089, Control_c, 0, 64, 0
1, 246432, Note_on_c, 0, 78, 54
1, 246471, Note_off_c, 0, 80, 49
1, 246756, Note_on_c, 0, 76, 59
1, 246775, Note_on_c, 0, 49, 23
1, 246776, Note_off_c, 0, 78, 58
1, 246883, Control_c, 0, 64, 21
1, 246897, Control_c, 0, 64, 41
1, 246912, Control_c, 0, 64, 53
1, 246927, Control_c, 0, 64, 58
1, 246942, Control_c, 0, 64, 60
1, 246956, Control_c, 0, 64, 61
1, 246971, Control_c, 0, 64, 62
1, 246986, Control_c, 0, 64, 63
1, 247001, Control_c, 0, 64, 64
1, 247016, Control_c, 0, 64, 65
1, 247031, Control_c, 0, 64, 67
1, 247046, Control_c, 0, 64, 69
1, 247060, Control_c, 0, 64, 70
1, 247064, Note_on_c, 0, 64, 30
1, 247075, Control_c, 0, 64, 72
1, 247090, Control_c, 0, 64, 73
1, 247105, Control_c, 0, 64, 74
1, 247135, Control_c, 0, 64, 74
1, 247168, Note_on_c, 0, 67, 34
1, 247233, Note_off_c, 0, 67, 42
1, 247249, Note_on_c, 0, 68, 54
1, 247254, Note_off_c, 0, 49, 37
1, 247303, Note_on_c, 0, 56, 35
1, 247327, Note_off_c, 0, 68, 52
1, 247329, Note_on_c, 0, 71, 51
1, 247332, Note_off_c, 0, 76, 42
1, 247380, Note_off_c, 0, 71, 46
1, 247386, Control_c, 0, 64, 74
1, 247387, Note_off_c, 0, 56, 0
1, 247401, Control_c, 0, 64, 73
1, 247405, Note_on_c, 0, 69, 43
1, 247405, Note_off_c, 0, 64, 23
1, 247415, Control_c, 0, 64, 73
1, 247424, Poly_aftertouch_c, 0, 56, 127
1, 247430, Control_c, 0, 64, 72
1, 247432, Note_off_c, 0, 69, 58
1, 247445, Control_c, 0, 64, 71
1, 247457, Note_on_c, 0, 68, 52
1, 247460, Control_c, 0, 64, 71
1, 247483, Control_c, 0, 64, 70
1, 247488, Note_off_c, 0, 68, 60
1, 247499, Control_c, 0, 64, 69
1, 247514, Control_c, 0, 64, 66
1, 247528, Control_c, 0, 64, 64
1, 247536, Note_on_c, 0, 54, 40
1, 247537, Poly_aftertouch_c, 0, 56, 0
1, 247543, Control_c, 0, 64, 60
1, 247547, Note_on_c, 0, 51, 28
1, 247552, Note_on_c, 0, 68, 48
1, 247558, Control_c, 0, 64, 55
1, 247572, Control_c, 0, 64, 50
1, 247587, Control_c, 0, 64, 42
1, 247602, Control_c, 0, 64, 30
1, 247617, Control_c, 0, 64, 13
1, 247632, Control_c, 0, 64, 0
1, 247661, Control_c, 0, 64, 13
1, 247676, Control_c, 0, 64, 25
1, 247691, Control_c, 0, 64, 34
1, 247706, Control_c, 0, 64, 44
1, 247720, Control_c, 0, 64, 53
1, 247735, Control_c, 0, 64, 59
1, 247750, Control_c, 0, 64, 62
1, 247764, Note_on_c, 0, 76, 45
1, 247765, Control_c, 0, 64, 63
1, 247779, Control_c, 0, 64, 64
1, 247788, Note_on_c, 0, 60, 35
1, 247794, Control_c, 0, 64, 65
1, 247809, Control_c, 0, 64, 67
1, 247824, Control_c, 0, 64, 69
1, 247838, Note_off_c, 0, 54, 35
1, 247839, Control_c, 0, 64, 71
1, 247853, Control_c, 0, 64, 73
1, 247868, Control_c, 0, 64, 74
1, 247883, Control_c, 0, 64, 76
1, 247898, Control_c, 0, 64, 77
1, 247913, Control_c, 0, 64, 77
1, 247950, Note_off_c, 0, 76, 52
1, 247961, Note_on_c, 0, 75, 57
1, 247964, Note_off_c, 0, 68, 56
1, 247970, Note_on_c, 0, 56, 38
1, 247979, Note_off_c, 0, 51, 40
1, 248034, Note_off_c, 0, 56, 0
1, 248047, Note_off_c, 0, 60, 26
1, 248071, Poly_aftertouch_c, 0, 56, 127
1, 248077, Note_off_c, 0, 75, 0
1, 248077, Note_on_c, 0, 75, 4
1, 248106, Control_c, 0, 64, 76
1, 248120, Control_c, 0, 64, 75
1, 248135, Control_c, 0, 64, 74
1, 248142, Poly_aftertouch_c, 0, 56, 0
1, 248150, Control_c, 0, 64, 72
1, 248158, Note_off_c, 0, 75, 56
1, 248164, Control_c, 0, 64, 70
1, 248169, Note_on_c, 0, 73, 53
1, 248171, Note_on_c, 0, 52, 43
1, 248179, Control_c, 0, 64, 66
1, 248194, Control_c, 0, 64, 60
1, 248209, Control_c, 0, 64, 50
1, 248232, Control_c, 0, 64, 32
1, 248246, Control_c, 0, 64, 0
1, 248276, Control_c, 0, 64, 15
1, 248291, Control_c, 0, 64, 35
1, 248307, Control_c, 0, 64, 51
1, 248321, Control_c, 0, 64, 61
1, 248336, Control_c, 0, 64, 65
1, 248351, Control_c, 0, 64, 67
1, 248366, Control_c, 0, 64, 69
1, 248381, Control_c, 0, 64, 70
1, 248395, Control_c, 0, 64, 73
1, 248408, Note_on_c, 0, 61, 41
1, 248410, Control_c, 0, 64, 75
1, 248417, Note_off_c, 0, 73, 58
1, 248425, Control_c, 0, 64, 78
1, 248440, Control_c, 0, 64, 80
1, 248455, Note_on_c, 0, 67, 50
1, 248455, Control_c, 0, 64, 82
1, 248469, Control_c, 0, 64, 83
1, 248484, Control_c, 0, 64, 83
1, 248514, Control_c, 0, 64, 84
1, 248537, Note_off_c, 0, 67, 54
1, 248545, Note_on_c, 0, 68, 56
1, 248572, Note_on_c, 0, 56, 39
1, 248578, Note_off_c, 0, 61, 43
1, 248594, Note_off_c, 0, 68, 62
1, 248617, Control_c, 0, 67, 126
1, 248618, Note_on_c, 0, 71, 55
1, 248632, Control_c, 0, 67, 127
1, 248647, Control_c, 0, 64, 83
1, 248653, Note_off_c, 0, 56, 0
1, 248679, Note_on_c, 0, 69, 57
1, 248690, Poly_aftertouch_c, 0, 56, 127
1, 248703, Note_off_c, 0, 71, 52
1, 248716, Note_off_c, 0, 69, 67
1, 248724, Note_on_c, 0, 68, 59
1, 248736, Control_c, 0, 64, 83
1, 248736, Control_c, 0, 67, 127
1, 248745, Note_off_c, 0, 68, 62
1, 248751, Control_c, 0, 64, 81
1, 248766, Control_c, 0, 64, 79
1, 248780, Control_c, 0, 64, 76
1, 248792, Poly_aftertouch_c, 0, 56, 0
1, 248795, Control_c, 0, 64, 70
1, 248807, Note_on_c, 0, 68, 61
1, 248810, Control_c, 0, 64, 62
1, 248813, Note_on_c, 0, 48, 47
1, 248825, Control_c, 0, 64, 51
1, 248840, Control_c, 0, 64, 35
1, 248855, Control_c, 0, 64, 17
1, 248869, Control_c, 0, 64, 16
1, 248884, Control_c, 0, 64, 24
1, 248884, Control_c, 0, 67, 126
1, 248899, Control_c, 0, 64, 36
1, 248899, Control_c, 0, 67, 125
1, 248913, Control_c, 0, 64, 49
1, 248913, Control_c, 0, 67, 124
1, 248928, Control_c, 0, 64, 58
1, 248928, Control_c, 0, 67, 123
1, 248943, Control_c, 0, 64, 63
1, 248943, Control_c, 0, 67, 123
1, 248965, Control_c, 0, 64, 65
1, 248965, Control_c, 0, 67, 122
1, 248980, Control_c, 0, 64, 66
1, 248980, Control_c, 0, 67, 120
1, 248995, Control_c, 0, 64, 67
1, 248995, Control_c, 0, 67, 118
1, 249002, Note_off_c, 0, 68, 63
1, 249010, Control_c, 0, 64, 69
1, 249010, Control_c, 0, 67, 116
1, 249025, Control_c, 0, 64, 71
1, 249025, Control_c, 0, 67, 114
1, 249034, Note_on_c, 0, 80, 77
1, 249040, Control_c, 0, 64, 74
1, 249040, Control_c, 0, 67, 112
1, 249046, Note_off_c, 0, 52, 0
1, 249055, Note_on_c, 0, 63, 42
1, 249055, Control_c, 0, 64, 77
1, 249055, Control_c, 0, 67, 111
1, 249069, Control_c, 0, 64, 79
1, 249069, Control_c, 0, 67, 109
1, 249083, Poly_aftertouch_c, 0, 52, 127
1, 249084, Control_c, 0, 64, 80
1, 249084, Control_c, 0, 67, 108
1, 249099, Control_c, 0, 64, 81
1, 249099, Control_c, 0, 67, 107
1, 249114, Note_off_c, 0, 63, 42
1, 249114, Control_c, 0, 64, 82
1, 249114, Control_c, 0, 67, 106
1, 249129, Control_c, 0, 64, 83
1, 249129, Control_c, 0, 67, 106
1, 249144, Control_c, 0, 67, 105
1, 249159, Control_c, 0, 64, 83
1, 249159, Control_c, 0, 67, 104
1, 249174, Control_c, 0, 67, 103
1, 249189, Control_c, 0, 67, 102
1, 249204, Control_c, 0, 67, 101
1, 249218, Control_c, 0, 67, 100
1, 249226, Note_off_c, 0, 48, 38
1, 249233, Control_c, 0, 67, 100
1, 249234, Note_on_c, 0, 56, 42
1, 249248, Note_on_c, 0, 78, 76
1, 249248, Control_c, 0, 67, 99
1, 249263, Control_c, 0, 67, 98
1, 249272, Poly_aftertouch_c, 0, 52, 0
1, 249275, Note_off_c, 0, 80, 63
1, 249278, Control_c, 0, 67, 97
1, 249292, Control_c, 0, 67, 97
1, 249307, Control_c, 0, 67, 96
1, 249322, Control_c, 0, 67, 96
1, 249351, Control_c, 0, 67, 95
1, 249366, Control_c, 0, 67, 95
1, 249381, Control_c, 0, 67, 93
1, 249394, Note_off_c, 0, 56, 21
1, 249396, Control_c, 0, 64, 83
1, 249396, Control_c, 0, 67, 92
1, 249411, Control_c, 0, 64, 82
1, 249411, Control_c, 0, 67, 92
1, 249425, Control_c, 0, 64, 82
1, 249436, Note_on_c, 0, 49, 48
1, 249440, Control_c, 0, 64, 81
1, 249440, Control_c, 0, 67, 91
1, 249455, Control_c, 0, 64, 80
1, 249470, Control_c, 0, 64, 78
1, 249485, Control_c, 0, 64, 76
1, 249499, Control_c, 0, 64, 72
1, 249510, Note_on_c, 0, 76, 78
1, 249514, Control_c, 0, 64, 67
1, 249529, Control_c, 0, 64, 61
1, 249529, Control_c, 0, 67, 91
1, 249538, Note_off_c, 0, 78, 63
1, 249544, Control_c, 0, 64, 52
1, 249558, Control_c, 0, 64, 36
1, 249558, Control_c, 0, 67, 90
1, 249573, Control_c, 0, 64, 20
1, 249573, Control_c, 0, 67, 89
1, 249588, Control_c, 0, 64, 14
1, 249603, Control_c, 0, 64, 16
1, 249618, Control_c, 0, 64, 25
1, 249633, Control_c, 0, 64, 38
1, 249648, Control_c, 0, 64, 51
1, 249663, Control_c, 0, 64, 60
1, 249678, Control_c, 0, 64, 63
1, 249678, Control_c, 0, 67, 90
1, 249692, Control_c, 0, 64, 65
1, 249692, Control_c, 0, 67, 91
1, 249707, Control_c, 0, 64, 66
1, 249707, Control_c, 0, 67, 92
1, 249729, Control_c, 0, 64, 67
1, 249729, Control_c, 0, 67, 93
1, 249730, Note_on_c, 0, 64, 42
1, 249743, Control_c, 0, 64, 68
1, 249743, Control_c, 0, 67, 95
1, 249758, Control_c, 0, 64, 70
1, 249758, Control_c, 0, 67, 96
1, 249773, Control_c, 0, 64, 72
1, 249773, Control_c, 0, 67, 98
1, 249788, Control_c, 0, 64, 74
1, 249788, Control_c, 0, 67, 100
1, 249803, Control_c, 0, 64, 75
1, 249803, Control_c, 0, 67, 101
1, 249818, Control_c, 0, 64, 76
1, 249818, Control_c, 0, 67, 103
1, 249833, Control_c, 0, 67, 105
1, 249833, Note_on_c, 0, 67, 39
1, 249848, Control_c, 0, 67, 107
1, 249863, Control_c, 0, 67, 109
1, 249877, Control_c, 0, 67, 110
1, 249886, Note_off_c, 0, 67, 42
1, 249893, Control_c, 0, 67, 111
1, 249907, Note_on_c, 0, 68, 54
1, 249908, Control_c, 0, 67, 112
1, 249910, Note_off_c, 0, 49, 35
1, 249922, Control_c, 0, 67, 113
1, 249942, Note_on_c, 0, 56, 27
1, 249943, Note_off_c, 0, 64, 32
1, 249970, Note_off_c, 0, 68, 55
1, 249982, Note_on_c, 0, 71, 57
1, 249997, Control_c, 0, 67, 112
1, 250016, Note_off_c, 0, 76, 32
1, 250031, Note_off_c, 0, 71, 60
1, 250037, Note_on_c, 0, 69, 58
1, 250071, Control_c, 0, 64, 75
1, 250074, Note_off_c, 0, 69, 55
1, 250098, Note_on_c, 0, 68, 49
1, 250101, Control_c, 0, 64, 75
1, 250110, Note_off_c, 0, 56, 19
1, 250115, Control_c, 0, 64, 74
1, 250123, Note_off_c, 0, 68, 58
1, 250130, Control_c, 0, 64, 74
1, 250145, Control_c, 0, 64, 72
1, 250154, Note_on_c, 0, 54, 42
1, 250160, Control_c, 0, 64, 70
1, 250163, Note_on_c, 0, 51, 36
1, 250174, Control_c, 0, 64, 66
1, 250184, Note_on_c, 0, 68, 47
1, 250189, Control_c, 0, 64, 62
1, 250204, Control_c, 0, 64, 53
1, 250219, Control_c, 0, 64, 40
1, 250219, Control_c, 0, 67, 112
1, 250227, Note_off_c, 0, 68, 0
1, 250227, Note_on_c, 0, 68, 19
1, 250234, Control_c, 0, 64, 19
1, 250248, Control_c, 0, 64, 0
1, 250263, Control_c, 0, 67, 111
1, 250278, Control_c, 0, 67, 110
1, 250293, Control_c, 0, 67, 110
1, 250308, Control_c, 0, 64, 22
1, 250308, Control_c, 0, 67, 109
1, 250322, Control_c, 0, 64, 36
1, 250322, Control_c, 0, 67, 108
1, 250337, Control_c, 0, 64, 49
1, 250337, Control_c, 0, 67, 107
1, 250352, Control_c, 0, 64, 57
1, 250352, Control_c, 0, 67, 106
1, 250363, Note_on_c, 0, 76, 54
1, 250366, Control_c, 0, 64, 62
1, 250366, Control_c, 0, 67, 106
1, 250381, Control_c, 0, 64, 64
1, 250381, Control_c, 0, 67, 105
1, 250382, Note_on_c, 0, 60, 36
1, 250396, Control_c, 0, 64, 65
1, 250396, Control_c, 0, 67, 104
1, 250411, Control_c, 0, 64, 66
1, 250411, Control_c, 0, 67, 103
1, 250426, Control_c, 0, 64, 68
1, 250426, Control_c, 0, 67, 102
1, 250441, Control_c, 0, 64, 70
1, 250441, Control_c, 0, 67, 101
1, 250456, Control_c, 0, 64, 72
1, 250456, Control_c, 0, 67, 101
1, 250458, Note_off_c, 0, 60, 0
1, 250470, Note_off_c, 0, 54, 37
1, 250478, Control_c, 0, 64, 74
1, 250478, Control_c, 0, 67, 100
1, 250493, Control_c, 0, 64, 75
1, 250503, Poly_aftertouch_c, 0, 60, 127
1, 250508, Control_c, 0, 64, 76
1, 250508, Control_c, 0, 67, 100
1, 250522, Control_c, 0, 64, 76
1, 250522, Control_c, 0, 67, 99
1, 250542, Note_off_c, 0, 68, 33
1, 250544, Note_off_c, 0, 76, 56
1, 250548, Note_off_c, 0, 51, 41
1, 250552, Control_c, 0, 67, 99
1, 250554, Note_on_c, 0, 56, 37
1, 250555, Note_on_c, 0, 75, 57
1, 250563, Poly_aftertouch_c, 0, 60, 0
1, 250596, Control_c, 0, 67, 98
1, 250641, Control_c, 0, 67, 98
1, 250686, Control_c, 0, 64, 76
1, 250686, Control_c, 0, 67, 97
1, 250701, Control_c, 0, 64, 75
1, 250706, Note_off_c, 0, 56, 39
1, 250716, Control_c, 0, 64, 74
1, 250731, Control_c, 0, 64, 72
1, 250744, Note_on_c, 0, 52, 41
1, 250745, Control_c, 0, 64, 68
1, 250745, Control_c, 0, 67, 97
1, 250749, Note_off_c, 0, 75, 61
1, 250751, Note_on_c, 0, 73, 59
1, 250760, Control_c, 0, 64, 63
1, 250775, Control_c, 0, 64, 53
1, 250775, Control_c, 0, 67, 96
1, 250790, Control_c, 0, 64, 40
1, 250790, Control_c, 0, 67, 94
1, 250805, Control_c, 0, 64, 21
1, 250805, Control_c, 0, 67, 94
1, 250819, Control_c, 0, 64, 12
1, 250819, Control_c, 0, 67, 93
1, 250834, Control_c, 0, 64, 22
1, 250834, Control_c, 0, 67, 92
1, 250849, Control_c, 0, 64, 39
1, 250849, Control_c, 0, 67, 90
1, 250864, Control_c, 0, 64, 53
1, 250864, Control_c, 0, 67, 89
1, 250879, Control_c, 0, 64, 63
1, 250879, Control_c, 0, 67, 88
1, 250894, Control_c, 0, 64, 66
1, 250894, Control_c, 0, 67, 87
1, 250909, Control_c, 0, 64, 68
1, 250909, Control_c, 0, 67, 85
1, 250924, Control_c, 0, 64, 70
1, 250924, Control_c, 0, 67, 83
1, 250938, Control_c, 0, 64, 71
1, 250938, Control_c, 0, 67, 81
1, 250953, Control_c, 0, 64, 73
1, 250953, Control_c, 0, 67, 79
1, 250962, Note_on_c, 0, 61, 41
1, 250968, Control_c, 0, 64, 76
1, 250968, Control_c, 0, 67, 76
1, 250982, Note_off_c, 0, 73, 55
1, 250983, Control_c, 0, 64, 78
1, 250983, Control_c, 0, 67, 74
1, 250997, Control_c, 0, 64, 80
1, 250997, Control_c, 0, 67, 72
1, 251012, Control_c, 0, 64, 81
1, 251012, Control_c, 0, 67, 70
1, 251027, Control_c, 0, 64, 83
1, 251027, Control_c, 0, 67, 67
1, 251034, Note_on_c, 0, 72, 53
1, 251042, Control_c, 0, 64, 83
1, 251042, Control_c, 0, 67, 65
1, 251057, Control_c, 0, 67, 63
1, 251071, Control_c, 0, 64, 84
1, 251071, Control_c, 0, 67, 61
1, 251086, Control_c, 0, 67, 59
1, 251101, Control_c, 0, 67, 57
1, 251102, Note_off_c, 0, 72, 49
1, 251109, Note_on_c, 0, 73, 64
1, 251112, Note_on_c, 0, 56, 25
1, 251112, Note_off_c, 0, 52, 42
1, 251116, Control_c, 0, 67, 55
1, 251131, Control_c, 0, 67, 53
1, 251145, Control_c, 0, 67, 50
1, 251152, Note_off_c, 0, 56, 41
1, 251160, Control_c, 0, 67, 48
1, 251166, Note_off_c, 0, 73, 57
1, 251175, Control_c, 0, 67, 47
1, 251189, Control_c, 0, 67, 45
1, 251194, Note_on_c, 0, 76, 60
1, 251204, Control_c, 0, 67, 44
1, 251227, Control_c, 0, 67, 43
1, 251242, Control_c, 0, 67, 42
1, 251244, Note_off_c, 0, 61, 41
1, 251257, Control_c, 0, 67, 41
1, 251258, Note_on_c, 0, 74, 61
1, 251271, Control_c, 0, 67, 41
1, 251284, Note_off_c, 0, 76, 59
1, 251286, Control_c, 0, 64, 83
1, 251292, Note_off_c, 0, 74, 66
1, 251299, Note_on_c, 0, 73, 62
1, 251301, Control_c, 0, 67, 40
1, 251316, Note_off_c, 0, 73, 67
1, 251330, Control_c, 0, 64, 83
1, 251330, Control_c, 0, 67, 40
1, 251345, Control_c, 0, 64, 81
1, 251345, Control_c, 0, 67, 39
1, 251354, Note_on_c, 0, 53, 49
1, 251360, Control_c, 0, 64, 78
1, 251360, Control_c, 0, 67, 37
1, 251362, Note_on_c, 0, 59, 30
1, 251375, Note_on_c, 0, 73, 70
1, 251375, Control_c, 0, 64, 72
1, 251375, Control_c, 0, 67, 35
1, 251389, Control_c, 0, 64, 65
1, 251389, Control_c, 0, 67, 34
1, 251404, Control_c, 0, 64, 55
1, 251404, Control_c, 0, 67, 34
1, 251419, Control_c, 0, 64, 40
1, 251419, Control_c, 0, 67, 33
1, 251434, Control_c, 0, 64, 22
1, 251449, Control_c, 0, 64, 19
1, 251449, Control_c, 0, 67, 33
1, 251463, Control_c, 0, 64, 29
1, 251478, Control_c, 0, 64, 46
1, 251478, Control_c, 0, 67, 32
1, 251494, Control_c, 0, 64, 56
1, 251509, Control_c, 0, 64, 62
1, 251524, Control_c, 0, 64, 65
1, 251524, Control_c, 0, 67, 32
1, 251539, Control_c, 0, 64, 67
1, 251539, Control_c, 0, 67, 30
1, 251554, Control_c, 0, 64, 68
1, 251554, Control_c, 0, 67, 29
1, 251556, Note_off_c, 0, 73, 63
1, 251568, Control_c, 0, 64, 71
1, 251576, Note_on_c, 0, 85, 76
1, 251583, Control_c, 0, 64, 74
1, 251583, Control_c, 0, 67, 29
1, 251593, Note_on_c, 0, 68, 39
1, 251598, Control_c, 0, 64, 78
1, 251598, Control_c, 0, 67, 28
1, 251612, Control_c, 0, 64, 80
1, 251612, Control_c, 0, 67, 27
1, 251627, Control_c, 0, 64, 81
1, 251642, Control_c, 0, 64, 83
1, 251653, Note_off_c, 0, 68, 40
1, 251657, Control_c, 0, 64, 84
1, 251672, Control_c, 0, 64, 85
1, 251687, Control_c, 0, 64, 85
1, 251702, Control_c, 0, 64, 86
1, 251717, Control_c, 0, 64, 86
1, 251732, Control_c, 0, 64, 87
1, 251739, Note_off_c, 0, 59, 38
1, 251742, Note_off_c, 0, 53, 31
1, 251761, Control_c, 0, 67, 28
1, 251765, Note_on_c, 0, 61, 44
1, 251775, Note_on_c, 0, 83, 78
1, 251776, Control_c, 0, 67, 28
1, 251791, Control_c, 0, 67, 29
1, 251797, Note_off_c, 0, 61, 51
1, 251806, Control_c, 0, 67, 30
1, 251815, Note_off_c, 0, 85, 62
1, 251820, Control_c, 0, 67, 31
1, 251835, Control_c, 0, 67, 32
1, 251850, Control_c, 0, 67, 33
1, 251865, Control_c, 0, 67, 34
1, 251880, Control_c, 0, 67, 35
1, 251894, Control_c, 0, 67, 37
1, 251924, Control_c, 0, 67, 38
1, 251939, Control_c, 0, 67, 39
1, 251954, Control_c, 0, 67, 40
1, 251976, Control_c, 0, 67, 40
1, 251991, Control_c, 0, 64, 86
1, 252005, Note_on_c, 0, 54, 40
1, 252006, Control_c, 0, 64, 85
1, 252006, Control_c, 0, 67, 41
1, 252010, Note_on_c, 0, 57, 37
1, 252012, Note_on_c, 0, 81, 80
1, 252021, Control_c, 0, 64, 82
1, 252027, Note_off_c, 0, 83, 65
1, 252036, Control_c, 0, 64, 78
1, 252036, Control_c, 0, 67, 41
1, 252051, Control_c, 0, 64, 72
1, 252051, Control_c, 0, 67, 42
1, 252065, Control_c, 0, 64, 65
1, 252065, Control_c, 0, 67, 43
1, 252080, Control_c, 0, 64, 52
1, 252080, Control_c, 0, 67, 43
1, 252095, Control_c, 0, 64, 33
1, 252095, Control_c, 0, 67, 45
1, 252110, Control_c, 0, 64, 0
1, 252110, Control_c, 0, 67, 46
1, 252125, Control_c, 0, 67, 48
1, 252139, Control_c, 0, 64, 17
1, 252139, Control_c, 0, 67, 49
1, 252154, Control_c, 0, 64, 33
1, 252154, Control_c, 0, 67, 50
1, 252169, Control_c, 0, 64, 47
1, 252169, Control_c, 0, 67, 51
1, 252184, Control_c, 0, 64, 58
1, 252184, Control_c, 0, 67, 53
1, 252199, Control_c, 0, 64, 62
1, 252199, Control_c, 0, 67, 53
1, 252213, Control_c, 0, 64, 64
1, 252228, Control_c, 0, 64, 64
1, 252239, Note_on_c, 0, 80, 39
1, 252243, Note_on_c, 0, 66, 43
1, 252243, Control_c, 0, 64, 65
1, 252258, Control_c, 0, 64, 67
1, 252273, Control_c, 0, 64, 69
1, 252289, Control_c, 0, 64, 71
1, 252296, Note_off_c, 0, 81, 0
1, 252304, Note_off_c, 0, 80, 59
1, 252304, Control_c, 0, 64, 73
1, 252311, Note_on_c, 0, 81, 31
1, 252318, Control_c, 0, 64, 74
1, 252333, Control_c, 0, 64, 75
1, 252333, Control_c, 0, 67, 53
1, 252348, Control_c, 0, 64, 75
1, 252348, Control_c, 0, 67, 52
1, 252359, Note_on_c, 0, 72, 54
1, 252362, Control_c, 0, 64, 76
1, 252362, Control_c, 0, 67, 52
1, 252392, Control_c, 0, 64, 76
1, 252392, Control_c, 0, 67, 51
1, 252422, Control_c, 0, 67, 51
1, 252424, Note_off_c, 0, 72, 51
1, 252443, Note_on_c, 0, 61, 35
1, 252451, Control_c, 0, 67, 50
1, 252462, Note_on_c, 0, 73, 55
1, 252462, Note_off_c, 0, 66, 36
1, 252466, Note_off_c, 0, 54, 56
1, 252466, Control_c, 0, 64, 76
1, 252502, Note_off_c, 0, 73, 63
1, 252509, Note_on_c, 0, 76, 63
1, 252517, Note_off_c, 0, 57, 39
1, 252566, Note_off_c, 0, 76, 57
1, 252569, Control_c, 0, 67, 51
1, 252577, Note_on_c, 0, 74, 58
1, 252584, Control_c, 0, 67, 51
1, 252596, Note_off_c, 0, 74, 63
1, 252598, Note_off_c, 0, 81, 47
1, 252613, Note_off_c, 0, 61, 38
1, 252627, Note_on_c, 0, 73, 52
1, 252629, Control_c, 0, 64, 75
1, 252629, Control_c, 0, 67, 52
1, 252644, Control_c, 0, 64, 73
1, 252646, Note_off_c, 0, 73, 62
1, 252659, Control_c, 0, 64, 69
1, 252662, Note_on_c, 0, 59, 43
1, 252674, Control_c, 0, 64, 63
1, 252678, Note_on_c, 0, 56, 46
1, 252688, Control_c, 0, 64, 52
1, 252691, Note_on_c, 0, 73, 59
1, 252703, Control_c, 0, 64, 35
1, 252725, Control_c, 0, 64, 0
1, 252769, Control_c, 0, 64, 9
1, 252784, Control_c, 0, 64, 29
1, 252799, Control_c, 0, 64, 44
1, 252799, Control_c, 0, 67, 51
1, 252814, Control_c, 0, 64, 56
1, 252814, Control_c, 0, 67, 51
1, 252829, Control_c, 0, 64, 62
1, 252843, Control_c, 0, 64, 64
1, 252843, Control_c, 0, 67, 50
1, 252858, Note_on_c, 0, 81, 66
1, 252858, Control_c, 0, 64, 65
1, 252858, Control_c, 0, 67, 50
1, 252873, Control_c, 0, 64, 66
1, 252873, Control_c, 0, 67, 49
1, 252879, Note_on_c, 0, 65, 49
1, 252888, Control_c, 0, 64, 67
1, 252903, Control_c, 0, 64, 70
1, 252903, Control_c, 0, 67, 48
1, 252918, Control_c, 0, 64, 72
1, 252918, Control_c, 0, 67, 48
1, 252933, Control_c, 0, 64, 74
1, 252933, Control_c, 0, 67, 47
1, 252948, Control_c, 0, 64, 76
1, 252948, Control_c, 0, 67, 46
1, 252962, Control_c, 0, 64, 78
1, 252962, Control_c, 0, 67, 46
1, 252977, Control_c, 0, 64, 80
1, 252992, Control_c, 0, 64, 82
1, 252992, Control_c, 0, 67, 45
1, 253007, Control_c, 0, 64, 83
1, 253007, Control_c, 0, 67, 45
1, 253022, Control_c, 0, 64, 84
1, 253028, Note_off_c, 0, 65, 53
1, 253029, Note_on_c, 0, 80, 66
1, 253032, Note_off_c, 0, 81, 60
1, 253036, Control_c, 0, 64, 85
1, 253036, Control_c, 0, 67, 44
1, 253037, Note_off_c, 0, 56, 54
1, 253044, Note_on_c, 0, 61, 48
1, 253051, Control_c, 0, 64, 86
1, 253051, Control_c, 0, 67, 43
1, 253066, Control_c, 0, 64, 87
1, 253066, Control_c, 0, 67, 43
1, 253097, Control_c, 0, 67, 42
1, 253112, Control_c, 0, 64, 87
1, 253113, Note_off_c, 0, 73, 44
1, 253156, Control_c, 0, 67, 42
1, 253171, Control_c, 0, 64, 87
1, 253200, Control_c, 0, 64, 83
1, 253203, Note_on_c, 0, 78, 68
1, 253207, Note_on_c, 0, 57, 49
1, 253208, Note_off_c, 0, 80, 55
1, 253212, Note_off_c, 0, 61, 38
1, 253215, Control_c, 0, 64, 76
1, 253230, Control_c, 0, 64, 67
1, 253230, Control_c, 0, 67, 41
1, 253245, Control_c, 0, 64, 56
1, 253259, Control_c, 0, 64, 39
1, 253270, Note_off_c, 0, 59, 12
1, 253274, Control_c, 0, 64, 23
1, 253274, Control_c, 0, 67, 41
1, 253289, Control_c, 0, 64, 31
1, 253304, Control_c, 0, 64, 48
1, 253304, Control_c, 0, 67, 40
1, 253319, Control_c, 0, 64, 60
1, 253333, Control_c, 0, 64, 66
1, 253348, Control_c, 0, 64, 70
1, 253361, Note_off_c, 0, 78, 61
1, 253363, Control_c, 0, 64, 73
1, 253363, Control_c, 0, 67, 40
1, 253378, Control_c, 0, 64, 75
1, 253378, Control_c, 0, 67, 39
1, 253382, Note_on_c, 0, 66, 54
1, 253391, Note_on_c, 0, 72, 55
1, 253392, Control_c, 0, 64, 77
1, 253392, Control_c, 0, 67, 39
1, 253407, Control_c, 0, 64, 79
1, 253407, Control_c, 0, 67, 38
1, 253422, Control_c, 0, 64, 82
1, 253422, Control_c, 0, 67, 38
1, 253437, Control_c, 0, 64, 83
1, 253437, Control_c, 0, 67, 37
1, 253446, Note_off_c, 0, 72, 47
1, 253452, Control_c, 0, 64, 85
1, 253452, Control_c, 0, 67, 33
1, 253454, Note_off_c, 0, 66, 37
1, 253473, Control_c, 0, 64, 85
1, 253473, Control_c, 0, 67, 30
1, 253476, Note_on_c, 0, 73, 58
1, 253488, Control_c, 0, 64, 86
1, 253488, Control_c, 0, 67, 27
1, 253503, Control_c, 0, 67, 23
1, 253513, Note_off_c, 0, 73, 64
1, 253518, Control_c, 0, 67, 19
1, 253526, Note_on_c, 0, 61, 35
1, 253528, Note_on_c, 0, 76, 63
1, 253532, Control_c, 0, 67, 14
1, 253547, Control_c, 0, 67, 10
1, 253562, Control_c, 0, 67, 0
1, 253588, Note_on_c, 0, 74, 58
1, 253606, Note_off_c, 0, 61, 0
1, 253612, Note_off_c, 0, 76, 57
1, 253622, Note_off_c, 0, 74, 66
1, 253633, Note_on_c, 0, 73, 61
1, 253637, Note_off_c, 0, 57, 25
1, 253643, Poly_aftertouch_c, 0, 61, 127
1, 253652, Note_off_c, 0, 73, 66
1, 253666, Control_c, 0, 64, 85
1, 253681, Control_c, 0, 64, 83
1, 253696, Control_c, 0, 64, 79
1, 253696, Poly_aftertouch_c, 0, 61, 0
1, 253699, Note_on_c, 0, 73, 72
1, 253710, Note_on_c, 0, 53, 51
1, 253711, Control_c, 0, 64, 72
1, 253725, Control_c, 0, 64, 63
1, 253740, Control_c, 0, 64, 50
1, 253755, Control_c, 0, 64, 26
1, 253770, Control_c, 0, 64, 0
1, 253799, Control_c, 0, 64, 34
1, 253814, Control_c, 0, 64, 50
1, 253829, Control_c, 0, 64, 59
1, 253844, Control_c, 0, 64, 64
1, 253858, Control_c, 0, 64, 66
1, 253873, Control_c, 0, 64, 68
1, 253886, Note_on_c, 0, 85, 82
1, 253889, Control_c, 0, 64, 72
1, 253904, Control_c, 0, 64, 78
1, 253905, Note_on_c, 0, 68, 51
1, 253914, Note_off_c, 0, 73, 62
1, 253919, Control_c, 0, 64, 85
1, 253934, Control_c, 0, 64, 91
1, 253945, Note_off_c, 0, 68, 47
1, 253949, Control_c, 0, 64, 96
1, 253963, Control_c, 0, 64, 101
1, 253978, Control_c, 0, 64, 109
1, 253993, Control_c, 0, 64, 127
1, 254027, Note_off_c, 0, 53, 54
1, 254061, Note_on_c, 0, 61, 46
1, 254070, Note_on_c, 0, 83, 83
1, 254122, Note_off_c, 0, 85, 62
1, 254131, Note_off_c, 0, 61, 45
1, 254254, Note_on_c, 0, 57, 40
1, 254256, Note_on_c, 0, 54, 51
1, 254267, Control_c, 0, 64, 113
1, 254277, Note_on_c, 0, 81, 85
1, 254282, Control_c, 0, 64, 92
1, 254296, Control_c, 0, 64, 73
1, 254299, Note_off_c, 0, 83, 65
1, 254311, Control_c, 0, 64, 60
1, 254326, Control_c, 0, 64, 41
1, 254340, Control_c, 0, 64, 17
1, 254355, Control_c, 0, 64, 18
1, 254370, Control_c, 0, 64, 36
1, 254385, Control_c, 0, 64, 52
1, 254400, Control_c, 0, 64, 62
1, 254414, Control_c, 0, 64, 66
1, 254429, Control_c, 0, 64, 68
1, 254444, Control_c, 0, 64, 70
1, 254459, Control_c, 0, 64, 72
1, 254474, Control_c, 0, 64, 75
1, 254481, Note_on_c, 0, 69, 53
1, 254489, Control_c, 0, 64, 79
1, 254504, Control_c, 0, 64, 83
1, 254519, Control_c, 0, 64, 86
1, 254520, Poly_aftertouch_c, 0, 80, 0
1, 254533, Control_c, 0, 64, 88
1, 254548, Control_c, 0, 64, 90
1, 254559, Note_on_c, 0, 72, 50
1, 254563, Control_c, 0, 64, 92
1, 254578, Control_c, 0, 64, 93
1, 254593, Control_c, 0, 64, 94
1, 254611, Note_off_c, 0, 72, 60
1, 254622, Note_on_c, 0, 73, 60
1, 254635, Note_off_c, 0, 69, 40
1, 254674, Note_off_c, 0, 54, 54
1, 254680, Note_on_c, 0, 61, 44
1, 254680, Note_off_c, 0, 73, 57
1, 254680, Note_off_c, 0, 81, 63
1, 254693, Note_on_c, 0, 76, 63
1, 254739, Note_off_c, 0, 57, 42
1, 254745, Note_off_c, 0, 76, 62
1, 254748, Note_on_c, 0, 74, 52
1, 254788, Note_off_c, 0, 74, 65
1, 254791, Note_on_c, 0, 73, 69
1, 254819, Note_off_c, 0, 73, 67
1, 254837, Note_off_c, 0, 61, 44
1, 254860, Control_c, 0, 64, 93
1, 254870, Note_on_c, 0, 73, 75
1, 254873, Note_on_c, 0, 56, 47
1, 254875, Control_c, 0, 64, 89
1, 254888, Note_on_c, 0, 59, 41
1, 254890, Control_c, 0, 64, 81
1, 254904, Control_c, 0, 64, 72
1, 254919, Control_c, 0, 64, 62
1, 254934, Control_c, 0, 64, 46
1, 254949, Control_c, 0, 64, 0
1, 255045, Control_c, 0, 64, 13
1, 255048, Note_on_c, 0, 81, 74
1, 255060, Control_c, 0, 64, 40
1, 255071, Note_on_c, 0, 65, 40
1, 255075, Control_c, 0, 64, 55
1, 255090, Control_c, 0, 64, 62
1, 255105, Control_c, 0, 64, 65
1, 255119, Control_c, 0, 64, 67
1, 255134, Control_c, 0, 64, 70
1, 255149, Control_c, 0, 64, 74
1, 255163, Control_c, 0, 64, 79
1, 255178, Control_c, 0, 64, 84
1, 255193, Control_c, 0, 64, 89
1, 255204, Note_off_c, 0, 56, 52
1, 255208, Control_c, 0, 64, 92
1, 255221, Note_on_c, 0, 80, 79
1, 255223, Control_c, 0, 64, 97
1, 255228, Note_on_c, 0, 61, 49
1, 255237, Control_c, 0, 64, 102
1, 255240, Note_off_c, 0, 65, 36
1, 255245, Note_off_c, 0, 81, 63
1, 255252, Control_c, 0, 64, 108
1, 255267, Control_c, 0, 64, 114
1, 255282, Control_c, 0, 64, 119
1, 255297, Control_c, 0, 64, 127
1, 255306, Note_off_c, 0, 59, 28
1, 255335, Note_off_c, 0, 73, 52
1, 255397, Note_off_c, 0, 61, 31
1, 255398, Note_on_c, 0, 78, 81
1, 255401, Control_c, 0, 64, 120
1, 255403, Note_on_c, 0, 57, 49
1, 255416, Control_c, 0, 64, 97
1, 255430, Control_c, 0, 64, 80
1, 255445, Control_c, 0, 64, 66
1, 255460, Control_c, 0, 64, 51
1, 255475, Control_c, 0, 64, 36
1, 255490, Control_c, 0, 64, 39
1, 255505, Control_c, 0, 64, 55
1, 255520, Control_c, 0, 64, 66
1, 255535, Control_c, 0, 64, 73
1, 255550, Control_c, 0, 64, 80
1, 255565, Control_c, 0, 64, 84
1, 255574, Note_off_c, 0, 80, 18
1, 255579, Control_c, 0, 64, 87
1, 255583, Note_on_c, 0, 66, 42
1, 255583, Note_off_c, 0, 78, 61
1, 255594, Control_c, 0, 64, 90
1, 255596, Note_on_c, 0, 72, 64
1, 255609, Control_c, 0, 64, 93
1, 255624, Control_c, 0, 64, 97
1, 255639, Control_c, 0, 64, 102
1, 255653, Control_c, 0, 64, 107
1, 255666, Note_off_c, 0, 66, 38
1, 255668, Control_c, 0, 64, 110
1, 255676, Note_on_c, 0, 73, 65
1, 255677, Note_off_c, 0, 72, 60
1, 255684, Control_c, 0, 64, 112
1, 255691, Note_on_c, 0, 61, 35
1, 255699, Note_off_c, 0, 57, 63
1, 255699, Control_c, 0, 64, 113
1, 255732, Note_off_c, 0, 61, 48
1, 255735, Note_off_c, 0, 73, 61
1, 255747, Note_on_c, 0, 76, 67
1, 255750, Control_c, 0, 64, 113
1, 255806, Note_on_c, 0, 74, 63
1, 255830, Note_off_c, 0, 76, 60
1, 255839, Note_off_c, 0, 74, 67
1, 255845, Note_on_c, 0, 73, 71
1, 255869, Control_c, 0, 64, 113
1, 255871, Note_off_c, 0, 73, 68
1, 255884, Control_c, 0, 64, 109
1, 255899, Control_c, 0, 64, 95
1, 255911, Note_on_c, 0, 45, 62
1, 255914, Control_c, 0, 64, 80
1, 255919, Note_on_c, 0, 73, 78
1, 255929, Control_c, 0, 64, 67
1, 255943, Control_c, 0, 64, 52
1, 255958, Control_c, 0, 64, 25
1, 255973, Control_c, 0, 64, 0
1, 255987, Control_c, 0, 64, 20
1, 256002, Control_c, 0, 64, 48
1, 256017, Control_c, 0, 64, 61
1, 256032, Control_c, 0, 64, 67
1, 256047, Control_c, 0, 64, 70
1, 256061, Control_c, 0, 64, 73
1, 256076, Control_c, 0, 64, 75
1, 256091, Control_c, 0, 64, 77
1, 256099, Note_on_c, 0, 80, 82
1, 256105, Control_c, 0, 64, 82
1, 256118, Note_off_c, 0, 45, 28
1, 256120, Control_c, 0, 64, 86
1, 256126, Note_on_c, 0, 61, 65
1, 256135, Control_c, 0, 64, 90
1, 256150, Control_c, 0, 64, 93
1, 256161, Note_off_c, 0, 61, 63
1, 256165, Control_c, 0, 64, 95
1, 256179, Control_c, 0, 64, 96
1, 256194, Control_c, 0, 64, 96
1, 256266, Note_off_c, 0, 73, 58
1, 256281, Note_on_c, 0, 81, 84
1, 256283, Note_on_c, 0, 54, 54
1, 256323, Note_off_c, 0, 80, 56
1, 256328, Note_off_c, 0, 54, 63
1, 256432, Control_c, 0, 64, 95
1, 256447, Control_c, 0, 64, 91
1, 256463, Note_on_c, 0, 44, 76
1, 256463, Note_on_c, 0, 51, 75
1, 256470, Control_c, 0, 64, 85
1, 256484, Control_c, 0, 64, 75
1, 256499, Control_c, 0, 64, 64
1, 256514, Control_c, 0, 64, 41
1, 256528, Note_on_c, 0, 80, 74
1, 256529, Control_c, 0, 64, 0
1, 256535, Note_off_c, 0, 81, 58
1, 256588, Control_c, 0, 64, 16
1, 256603, Control_c, 0, 64, 47
1, 256603, Control_c, 0, 67, 8
1, 256617, Control_c, 0, 64, 61
1, 256617, Control_c, 0, 67, 9
1, 256632, Control_c, 0, 64, 67
1, 256647, Control_c, 0, 64, 71
1, 256647, Control_c, 0, 67, 9
1, 256654, Note_off_c, 0, 44, 57
1, 256662, Control_c, 0, 64, 73
1, 256665, Note_off_c, 0, 80, 61
1, 256677, Control_c, 0, 64, 75
1, 256692, Control_c, 0, 64, 78
1, 256705, Note_on_c, 0, 67, 58
1, 256707, Control_c, 0, 64, 82
1, 256722, Control_c, 0, 64, 85
1, 256736, Control_c, 0, 64, 87
1, 256744, Note_on_c, 0, 60, 41
1, 256751, Control_c, 0, 64, 88
1, 256799, Note_on_c, 0, 68, 59
1, 256805, Note_off_c, 0, 67, 51
1, 256833, Note_off_c, 0, 60, 0
1, 256833, Note_on_c, 0, 60, 10
1, 256841, Note_off_c, 0, 51, 29
1, 256844, Note_off_c, 0, 68, 60
1, 256853, Note_on_c, 0, 71, 58
1, 256882, Note_on_c, 0, 54, 39
1, 256912, Note_on_c, 0, 69, 64
1, 256914, Control_c, 0, 64, 87
1, 256928, Control_c, 0, 64, 87
1, 256939, Note_off_c, 0, 71, 58
1, 256943, Control_c, 0, 64, 86
1, 256958, Control_c, 0, 64, 85
1, 256960, Note_off_c, 0, 69, 66
1, 256968, Note_on_c, 0, 68, 62
1, 256973, Control_c, 0, 64, 83
1, 256986, Note_off_c, 0, 68, 64
1, 256988, Control_c, 0, 64, 80
1, 257002, Control_c, 0, 64, 73
1, 257017, Control_c, 0, 64, 66
1, 257017, Control_c, 0, 67, 10
1, 257023, Note_off_c, 0, 60, 19
1, 257032, Control_c, 0, 64, 57
1, 257047, Control_c, 0, 64, 40
1, 257047, Control_c, 0, 67, 10
1, 257051, Note_on_c, 0, 68, 66
1, 257061, Note_on_c, 0, 52, 56
1, 257062, Control_c, 0, 64, 0
1, 257072, Note_off_c, 0, 54, 56
1, 257166, Control_c, 0, 64, 24
1, 257181, Control_c, 0, 64, 44
1, 257196, Control_c, 0, 64, 57
1, 257218, Control_c, 0, 64, 63
1, 257232, Control_c, 0, 64, 64
1, 257232, Control_c, 0, 67, 10
1, 257247, Note_on_c, 0, 78, 68
1, 257247, Control_c, 0, 64, 65
1, 257262, Control_c, 0, 64, 66
1, 257267, Note_on_c, 0, 61, 43
1, 257277, Control_c, 0, 64, 69
1, 257292, Control_c, 0, 64, 72
1, 257306, Control_c, 0, 64, 75
1, 257321, Control_c, 0, 64, 77
1, 257336, Control_c, 0, 64, 79
1, 257343, Note_off_c, 0, 61, 48
1, 257351, Control_c, 0, 64, 80
1, 257365, Control_c, 0, 64, 81
1, 257380, Control_c, 0, 64, 82
1, 257395, Control_c, 0, 64, 83
1, 257410, Control_c, 0, 64, 83
1, 257428, Note_on_c, 0, 76, 62
1, 257432, Note_on_c, 0, 56, 39
1, 257441, Note_off_c, 0, 52, 61
1, 257443, Note_off_c, 0, 78, 62
1, 257455, Control_c, 0, 64, 84
1, 257467, Note_off_c, 0, 56, 44
1, 257500, Control_c, 0, 67, 10
1, 257529, Control_c, 0, 64, 83
1, 257529, Control_c, 0, 67, 11
1, 257573, Control_c, 0, 64, 83
1, 257573, Control_c, 0, 67, 11
1, 257588, Control_c, 0, 64, 81
1, 257603, Control_c, 0, 64, 78
1, 257618, Control_c, 0, 64, 72
1, 257623, Note_off_c, 0, 76, 61
1, 257625, Note_on_c, 0, 75, 73
1, 257629, Note_off_c, 0, 68, 32
1, 257632, Control_c, 0, 64, 65
1, 257634, Note_on_c, 0, 44, 49
1, 257647, Control_c, 0, 64, 55
1, 257647, Control_c, 0, 67, 12
1, 257653, Note_on_c, 0, 54, 36
1, 257662, Control_c, 0, 64, 38
1, 257677, Control_c, 0, 64, 0
1, 257677, Control_c, 0, 67, 12
1, 257706, Control_c, 0, 64, 21
1, 257706, Control_c, 0, 67, 13
1, 257721, Control_c, 0, 64, 42
1, 257721, Control_c, 0, 67, 14
1, 257736, Control_c, 0, 64, 56
1, 257736, Control_c, 0, 67, 14
1, 257750, Control_c, 0, 64, 64
1, 257750, Control_c, 0, 67, 15
1, 257761, Note_off_c, 0, 44, 61
1, 257765, Control_c, 0, 64, 67
1, 257765, Control_c, 0, 67, 15
1, 257780, Control_c, 0, 64, 69
1, 257780, Control_c, 0, 67, 17
1, 257795, Control_c, 0, 64, 70
1, 257795, Control_c, 0, 67, 18
1, 257810, Control_c, 0, 64, 72
1, 257810, Control_c, 0, 67, 19
1, 257825, Control_c, 0, 64, 75
1, 257825, Control_c, 0, 67, 20
1, 257839, Control_c, 0, 64, 77
1, 257839, Control_c, 0, 67, 22
1, 257854, Control_c, 0, 64, 78
1, 257854, Control_c, 0, 67, 24
1, 257865, Note_on_c, 0, 67, 53
1, 257866, Note_on_c, 0, 60, 48
1, 257869, Control_c, 0, 64, 79
1, 257869, Control_c, 0, 67, 25
1, 257885, Control_c, 0, 64, 79
1, 257885, Control_c, 0, 67, 25
1, 257905, Note_off_c, 0, 54, 40
1, 257915, Control_c, 0, 67, 26
1, 257917, Note_off_c, 0, 67, 45
1, 257938, Note_on_c, 0, 68, 60
1, 257980, Control_c, 0, 67, 26
1, 258001, Note_off_c, 0, 68, 59
1, 258019, Note_on_c, 0, 71, 60
1, 258025, Control_c, 0, 67, 27
1, 258063, Note_off_c, 0, 60, 42
1, 258069, Control_c, 0, 67, 29
1, 258071, Note_on_c, 0, 56, 31
1, 258075, Note_off_c, 0, 71, 57
1, 258084, Control_c, 0, 67, 30
1, 258088, Note_on_c, 0, 69, 58
1, 258099, Control_c, 0, 64, 79
1, 258099, Control_c, 0, 67, 32
1, 258114, Control_c, 0, 64, 78
1, 258114, Control_c, 0, 67, 32
1, 258116, Note_off_c, 0, 69, 65
1, 258120, Note_on_c, 0, 68, 65
1, 258129, Control_c, 0, 64, 78
1, 258129, Control_c, 0, 67, 33
1, 258143, Control_c, 0, 64, 77
1, 258148, Note_off_c, 0, 75, 45
1, 258150, Note_off_c, 0, 68, 65
1, 258158, Control_c, 0, 64, 77
1, 258158, Control_c, 0, 67, 34
1, 258173, Control_c, 0, 64, 76
1, 258173, Control_c, 0, 67, 34
1, 258188, Control_c, 0, 64, 74
1, 258188, Control_c, 0, 67, 35
1, 258203, Control_c, 0, 64, 70
1, 258203, Control_c, 0, 67, 36
1, 258207, Note_on_c, 0, 68, 62
1, 258218, Control_c, 0, 64, 64
1, 258218, Control_c, 0, 67, 37
1, 258222, Note_off_c, 0, 56, 21
1, 258226, Note_on_c, 0, 52, 50
1, 258233, Control_c, 0, 64, 56
1, 258248, Control_c, 0, 64, 43
1, 258262, Control_c, 0, 64, 23
1, 258277, Control_c, 0, 64, 0
1, 258307, Control_c, 0, 64, 13
1, 258307, Control_c, 0, 67, 37
1, 258322, Control_c, 0, 64, 28
1, 258336, Control_c, 0, 64, 42
1, 258351, Control_c, 0, 64, 53
1, 258366, Control_c, 0, 64, 60
1, 258380, Control_c, 0, 64, 63
1, 258380, Control_c, 0, 67, 38
1, 258395, Control_c, 0, 64, 64
1, 258395, Control_c, 0, 67, 40
1, 258410, Control_c, 0, 64, 66
1, 258410, Control_c, 0, 67, 41
1, 258418, Note_on_c, 0, 75, 65
1, 258425, Note_on_c, 0, 61, 41
1, 258425, Control_c, 0, 64, 67
1, 258425, Control_c, 0, 67, 42
1, 258440, Control_c, 0, 64, 69
1, 258454, Control_c, 0, 64, 72
1, 258469, Control_c, 0, 64, 74
1, 258484, Control_c, 0, 64, 75
1, 258498, Control_c, 0, 64, 76
1, 258513, Control_c, 0, 64, 77
1, 258528, Control_c, 0, 64, 77
1, 258565, Note_off_c, 0, 61, 31
1, 258573, Control_c, 0, 64, 78
1, 258593, Note_on_c, 0, 56, 43
1, 258594, Note_off_c, 0, 52, 52
1, 258603, Note_on_c, 0, 73, 66
1, 258604, Note_off_c, 0, 75, 63
1, 258623, Note_off_c, 0, 56, 53
1, 258715, Control_c, 0, 67, 42
1, 258759, Control_c, 0, 64, 77
1, 258774, Control_c, 0, 64, 77
1, 258781, Note_off_c, 0, 68, 29
1, 258789, Control_c, 0, 64, 75
1, 258803, Control_c, 0, 64, 73
1, 258818, Control_c, 0, 64, 69
1, 258833, Control_c, 0, 64, 63
1, 258834, Note_on_c, 0, 72, 66
1, 258835, Note_off_c, 0, 73, 57
1, 258848, Control_c, 0, 64, 51
1, 258855, Note_on_c, 0, 44, 43
1, 258863, Control_c, 0, 64, 30
1, 258877, Control_c, 0, 64, 0
1, 258877, Control_c, 0, 67, 43
1, 258881, Note_on_c, 0, 51, 36
1, 258937, Control_c, 0, 64, 14
1, 258951, Control_c, 0, 64, 39
1, 258966, Control_c, 0, 64, 55
1, 258966, Control_c, 0, 67, 43
1, 258981, Control_c, 0, 64, 63
1, 258996, Control_c, 0, 64, 65
1, 258996, Control_c, 0, 67, 45
1, 259011, Control_c, 0, 64, 67
1, 259011, Control_c, 0, 67, 50
1, 259015, Note_off_c, 0, 44, 57
1, 259026, Control_c, 0, 64, 68
1, 259026, Control_c, 0, 67, 56
1, 259041, Control_c, 0, 64, 70
1, 259041, Control_c, 0, 67, 63
1, 259056, Control_c, 0, 64, 73
1, 259056, Control_c, 0, 67, 70
1, 259071, Control_c, 0, 64, 76
1, 259071, Control_c, 0, 67, 76
1, 259085, Control_c, 0, 64, 78
1, 259085, Control_c, 0, 67, 82
1, 259100, Control_c, 0, 64, 79
1, 259100, Control_c, 0, 67, 85
1, 259108, Note_on_c, 0, 60, 48
1, 259115, Control_c, 0, 64, 80
1, 259115, Control_c, 0, 67, 86
1, 259120, Note_off_c, 0, 72, 52
1, 259129, Control_c, 0, 64, 80
1, 259129, Control_c, 0, 67, 87
1, 259144, Control_c, 0, 64, 81
1, 259144, Control_c, 0, 67, 88
1, 259159, Control_c, 0, 67, 90
1, 259174, Control_c, 0, 67, 92
1, 259178, Note_on_c, 0, 67, 50
1, 259189, Control_c, 0, 64, 81
1, 259189, Control_c, 0, 67, 93
1, 259203, Control_c, 0, 67, 94
1, 259275, Note_off_c, 0, 51, 37
1, 259277, Control_c, 0, 64, 81
1, 259280, Note_on_c, 0, 68, 55
1, 259309, Note_off_c, 0, 67, 34
1, 259325, Note_off_c, 0, 68, 62
1, 259328, Note_on_c, 0, 54, 24
1, 259349, Note_on_c, 0, 71, 58
1, 259381, Control_c, 0, 64, 80
1, 259410, Control_c, 0, 64, 79
1, 259425, Control_c, 0, 64, 79
1, 259428, Note_on_c, 0, 69, 55
1, 259438, Note_off_c, 0, 71, 54
1, 259440, Control_c, 0, 64, 78
1, 259463, Control_c, 0, 64, 78
1, 259463, Control_c, 0, 67, 95
1, 259467, Note_off_c, 0, 69, 62
1, 259479, Control_c, 0, 64, 77
1, 259482, Note_on_c, 0, 68, 54
1, 259494, Control_c, 0, 64, 76
1, 259494, Control_c, 0, 67, 95
1, 259508, Note_off_c, 0, 68, 58
1, 259508, Control_c, 0, 64, 74
1, 259523, Control_c, 0, 64, 71
1, 259523, Control_c, 0, 67, 96
1, 259538, Control_c, 0, 64, 67
1, 259538, Control_c, 0, 67, 97
1, 259552, Control_c, 0, 64, 62
1, 259552, Control_c, 0, 67, 100
1, 259567, Note_on_c, 0, 68, 53
1, 259567, Control_c, 0, 64, 54
1, 259567, Control_c, 0, 67, 101
1, 259576, Note_off_c, 0, 60, 37
1, 259582, Control_c, 0, 64, 41
1, 259589, Note_on_c, 0, 52, 41
1, 259597, Control_c, 0, 64, 20
1, 259606, Note_off_c, 0, 54, 42
1, 259612, Control_c, 0, 64, 0
1, 259612, Control_c, 0, 67, 101
1, 259626, Control_c, 0, 67, 102
1, 259641, Control_c, 0, 67, 102
1, 259656, Control_c, 0, 67, 103
1, 259715, Control_c, 0, 64, 26
1, 259730, Control_c, 0, 64, 40
1, 259745, Control_c, 0, 64, 49
1, 259759, Control_c, 0, 64, 55
1, 259774, Control_c, 0, 64, 59
1, 259789, Control_c, 0, 64, 61
1, 259804, Control_c, 0, 64, 62
1, 259813, Note_on_c, 0, 78, 60
1, 259819, Control_c, 0, 64, 63
1, 259834, Control_c, 0, 64, 65
1, 259841, Note_on_c, 0, 61, 39
1, 259849, Control_c, 0, 64, 67
1, 259863, Control_c, 0, 64, 68
1, 259878, Control_c, 0, 64, 70
1, 259893, Control_c, 0, 64, 72
1, 259903, Note_off_c, 0, 61, 0
1, 259908, Control_c, 0, 64, 74
1, 259923, Control_c, 0, 64, 76
1, 259938, Control_c, 0, 64, 77
1, 259938, Control_c, 0, 67, 104
1, 259941, Poly_aftertouch_c, 0, 61, 127
1, 259952, Control_c, 0, 64, 79
1, 259967, Control_c, 0, 64, 79
1, 259994, Poly_aftertouch_c, 0, 61, 0
1, 260041, Control_c, 0, 67, 104
1, 260056, Control_c, 0, 67, 105
1, 260069, Note_on_c, 0, 56, 37
1, 260071, Note_on_c, 0, 76, 61
1, 260071, Control_c, 0, 67, 106
1, 260075, Note_off_c, 0, 78, 55
1, 260086, Control_c, 0, 67, 109
1, 260100, Control_c, 0, 67, 110
1, 260115, Control_c, 0, 67, 111
1, 260117, Note_off_c, 0, 56, 46
1, 260130, Control_c, 0, 67, 111
1, 260144, Control_c, 0, 67, 113
1, 260159, Control_c, 0, 67, 114
1, 260169, Note_off_c, 0, 68, 35
1, 260189, Control_c, 0, 67, 115
1, 260212, Control_c, 0, 67, 116
1, 260226, Control_c, 0, 67, 118
1, 260241, Control_c, 0, 67, 120
1, 260256, Control_c, 0, 67, 121
1, 260271, Control_c, 0, 67, 122
1, 260287, Control_c, 0, 67, 123
1, 260302, Control_c, 0, 67, 125
1, 260317, Control_c, 0, 67, 126
1, 260331, Control_c, 0, 67, 127
1, 260375, Control_c, 0, 64, 79
1, 260390, Control_c, 0, 64, 78
1, 260397, Note_on_c, 0, 47, 42
1, 260405, Control_c, 0, 64, 77
1, 260420, Control_c, 0, 64, 76
1, 260428, Note_off_c, 0, 52, 34
1, 260435, Control_c, 0, 64, 73
1, 260449, Control_c, 0, 64, 69
1, 260464, Control_c, 0, 64, 64
1, 260468, Note_off_c, 0, 76, 56
1, 260479, Control_c, 0, 64, 57
1, 260490, Note_on_c, 0, 75, 46
1, 260492, Note_on_c, 0, 69, 40
1, 260494, Control_c, 0, 64, 45
1, 260509, Control_c, 0, 64, 24
1, 260523, Control_c, 0, 64, 0
1, 260701, Control_c, 0, 64, 18
1, 260716, Control_c, 0, 64, 31
1, 260731, Control_c, 0, 64, 45
1, 260746, Control_c, 0, 64, 53
1, 260754, Note_on_c, 0, 54, 38
1, 260761, Control_c, 0, 64, 58
1, 260775, Control_c, 0, 64, 60
1, 260790, Control_c, 0, 64, 61
1, 260805, Control_c, 0, 64, 62
1, 260820, Control_c, 0, 64, 63
1, 260835, Control_c, 0, 64, 64
1, 260849, Control_c, 0, 64, 66
1, 260864, Control_c, 0, 64, 67
1, 260865, Note_off_c, 0, 69, 48
1, 260879, Control_c, 0, 64, 68
1, 260883, Note_on_c, 0, 70, 50
1, 260894, Control_c, 0, 64, 70
1, 260909, Control_c, 0, 64, 71
1, 260923, Control_c, 0, 64, 72
1, 260926, Note_off_c, 0, 70, 60
1, 260938, Control_c, 0, 64, 73
1, 260960, Control_c, 0, 64, 73
1, 260963, Note_off_c, 0, 75, 55
1, 261000, Note_on_c, 0, 71, 57
1, 261041, Note_off_c, 0, 71, 61
1, 261076, Note_on_c, 0, 57, 35
1, 261093, Note_on_c, 0, 75, 61
1, 261124, Control_c, 0, 64, 73
1, 261147, Note_off_c, 0, 75, 52
1, 261148, Poly_aftertouch_c, 0, 48, 127
1, 261199, Note_on_c, 0, 73, 56
1, 261254, Note_off_c, 0, 73, 55
1, 261270, Note_on_c, 0, 71, 54
1, 261287, Control_c, 0, 64, 72
1, 261297, Note_off_c, 0, 71, 55
1, 261302, Control_c, 0, 64, 72
1, 261317, Control_c, 0, 64, 71
1, 261332, Control_c, 0, 64, 69
1, 261346, Control_c, 0, 64, 67
1, 261361, Control_c, 0, 64, 63
1, 261376, Control_c, 0, 64, 56
1, 261391, Note_on_c, 0, 71, 50
1, 261391, Control_c, 0, 64, 45
1, 261405, Control_c, 0, 64, 21
1, 261417, Note_on_c, 0, 63, 39
1, 261420, Control_c, 0, 64, 0
1, 261497, Note_off_c, 0, 63, 0
1, 261497, Note_on_c, 0, 63, 7
1, 261628, Control_c, 0, 64, 23
1, 261643, Control_c, 0, 64, 40
1, 261658, Control_c, 0, 64, 51
1, 261672, Control_c, 0, 64, 56
1, 261687, Control_c, 0, 64, 59
1, 261709, Control_c, 0, 64, 60
1, 261724, Control_c, 0, 64, 61
1, 261738, Control_c, 0, 64, 63
1, 261753, Control_c, 0, 64, 64
1, 261768, Control_c, 0, 64, 65
1, 261774, Note_on_c, 0, 76, 49
1, 261783, Control_c, 0, 64, 67
1, 261798, Control_c, 0, 64, 69
1, 261813, Control_c, 0, 64, 71
1, 261828, Control_c, 0, 64, 73
1, 261843, Control_c, 0, 64, 75
1, 261858, Control_c, 0, 64, 77
1, 261873, Control_c, 0, 64, 78
1, 261877, Note_off_c, 0, 71, 26
1, 261880, Note_off_c, 0, 47, 1
1, 261882, Note_off_c, 0, 63, 44
1, 261888, Control_c, 0, 64, 80
1, 261902, Control_c, 0, 64, 81
1, 261917, Control_c, 0, 64, 82
1, 261918, Poly_aftertouch_c, 0, 48, 0
1, 261932, Control_c, 0, 64, 82
1, 261942, Note_off_c, 0, 57, 41
1, 261968, Note_off_c, 0, 54, 42
1, 262091, Note_off_c, 0, 76, 29
1, 262206, Note_on_c, 0, 78, 58
1, 262228, Control_c, 0, 64, 83
1, 262253, Note_off_c, 0, 78, 58
1, 262621, Control_c, 0, 64, 82
1, 262651, Control_c, 0, 64, 82
1, 262663, Note_on_c, 0, 52, 40
1, 262666, Control_c, 0, 64, 81
1, 262682, Control_c, 0, 64, 80
1, 262697, Control_c, 0, 64, 77
1, 262712, Control_c, 0, 64, 71
1, 262726, Control_c, 0, 64, 64
1, 262741, Control_c, 0, 64, 49
1, 262746, Note_on_c, 0, 68, 42
1, 262756, Control_c, 0, 64, 31
1, 262770, Control_c, 0, 64, 26
1, 262785, Note_off_c, 0, 68, 58
1, 262785, Control_c, 0, 64, 39
1, 262800, Control_c, 0, 64, 54
1, 262815, Control_c, 0, 64, 62
1, 262830, Control_c, 0, 64, 66
1, 262844, Control_c, 0, 64, 68
1, 262850, Note_on_c, 0, 71, 49
1, 262859, Control_c, 0, 64, 69
1, 262874, Control_c, 0, 64, 71
1, 262887, Note_off_c, 0, 71, 47
1, 262889, Control_c, 0, 64, 73
1, 262904, Control_c, 0, 64, 75
1, 262919, Control_c, 0, 64, 77
1, 262934, Control_c, 0, 64, 79
1, 262937, Note_on_c, 0, 64, 33
1, 262937, Note_on_c, 0, 59, 33
1, 262944, Note_on_c, 0, 76, 57
1, 262949, Control_c, 0, 64, 79
1, 262964, Control_c, 0, 64, 80
1, 262978, Control_c, 0, 64, 81
1, 262989, Note_off_c, 0, 76, 60
1, 262993, Control_c, 0, 64, 81
1, 262998, Note_off_c, 0, 64, 41
1, 263008, Control_c, 0, 64, 82
1, 263028, Note_on_c, 0, 80, 50
1, 263041, Note_off_c, 0, 59, 28
1, 263054, Note_off_c, 0, 52, 40
1, 263077, Note_on_c, 0, 56, 37
1, 263077, Note_off_c, 0, 80, 58
1, 263091, Note_on_c, 0, 78, 54
1, 263113, Note_off_c, 0, 56, 47
1, 263116, Note_off_c, 0, 78, 55
1, 263195, Note_on_c, 0, 80, 64
1, 263203, Note_on_c, 0, 51, 46
1, 263213, Note_off_c, 0, 80, 65
1, 263231, Note_off_c, 0, 51, 52
1, 263266, Note_on_c, 0, 83, 67
1, 263290, Note_off_c, 0, 83, 63
1, 263335, Note_on_c, 0, 88, 63
1, 263345, Note_on_c, 0, 64, 43
1, 263356, Control_c, 0, 64, 79
1, 263359, Note_off_c, 0, 88, 65
1, 263367, Note_on_c, 0, 59, 26
1, 263370, Control_c, 0, 64, 69
1, 263373, Note_off_c, 0, 64, 57
1, 263381, Note_on_c, 0, 92, 63
1, 263385, Control_c, 0, 64, 55
1, 263400, Control_c, 0, 64, 0
1, 263401, Note_off_c, 0, 59, 51
1, 263438, Note_on_c, 0, 56, 28
1, 263447, Note_on_c, 0, 90, 68
1, 263456, Note_off_c, 0, 92, 62
1, 263479, Note_off_c, 0, 56, 50
1, 263500, Note_on_c, 0, 88, 65
1, 263508, Note_off_c, 0, 90, 65
1, 263526, Note_off_c, 0, 88, 68
1, 263545, Note_on_c, 0, 49, 47
1, 263566, Note_on_c, 0, 83, 64
1, 263577, Note_off_c, 0, 49, 54
1, 263594, Note_off_c, 0, 83, 68
1, 263625, Note_on_c, 0, 80, 69
1, 263689, Note_on_c, 0, 64, 36
1, 263694, Note_on_c, 0, 78, 62
1, 263708, Note_on_c, 0, 59, 22
1, 263716, Note_off_c, 0, 80, 52
1, 263724, Note_off_c, 0, 64, 53
1, 263745, Note_on_c, 0, 76, 67
1, 263747, Note_off_c, 0, 59, 55
1, 263760, Note_off_c, 0, 78, 62
1, 263767, Note_on_c, 0, 56, 45
1, 263775, Note_off_c, 0, 76, 64
1, 263795, Note_off_c, 0, 56, 52
1, 263808, Note_on_c, 0, 71, 58
1, 263844, Note_off_c, 0, 71, 63
1, 263885, Note_on_c, 0, 68, 57
1, 263944, Note_on_c, 0, 47, 53
1, 263962, Note_on_c, 0, 66, 63
1, 263986, Note_off_c, 0, 68, 53
1, 264031, Note_off_c, 0, 66, 58
1, 264033, Note_on_c, 0, 64, 54
1, 264059, Note_off_c, 0, 64, 63
1, 264087, Note_on_c, 0, 59, 50
1, 264112, Note_off_c, 0, 59, 58
1, 264151, Note_on_c, 0, 68, 54
1, 264224, Note_on_c, 0, 66, 62
1, 264251, Note_off_c, 0, 68, 51
1, 264283, Note_off_c, 0, 66, 59
1, 264284, Note_on_c, 0, 64, 53
1, 264312, Control_c, 0, 64, 19
1, 264327, Control_c, 0, 64, 46
1, 264331, Note_off_c, 0, 64, 59
1, 264342, Control_c, 0, 64, 60
1, 264346, Note_on_c, 0, 45, 54
1, 264353, Note_off_c, 0, 47, 52
1, 264356, Note_on_c, 0, 61, 58
1, 264357, Control_c, 0, 64, 64
1, 264371, Control_c, 0, 64, 67
1, 264386, Control_c, 0, 64, 71
1, 264386, Control_c, 0, 67, 125
1, 264387, Note_off_c, 0, 45, 63
1, 264392, Note_off_c, 0, 61, 63
1, 264401, Control_c, 0, 64, 77
1, 264401, Control_c, 0, 67, 121
1, 264415, Control_c, 0, 64, 86
1, 264415, Control_c, 0, 67, 123
1, 264430, Control_c, 0, 64, 97
1, 264430, Control_c, 0, 67, 125
1, 264445, Control_c, 0, 64, 124
1, 264445, Control_c, 0, 67, 126
1, 264453, Note_on_c, 0, 64, 22
1, 264460, Control_c, 0, 64, 127
1, 264460, Control_c, 0, 67, 124
1, 264475, Control_c, 0, 67, 121
1, 264479, Note_off_c, 0, 64, 0
1, 264480, Note_on_c, 0, 66, 67
1, 264490, Control_c, 0, 67, 121
1, 264510, Note_off_c, 0, 66, 64
1, 264511, Note_on_c, 0, 64, 23
1, 264520, Control_c, 0, 67, 120
1, 264535, Control_c, 0, 67, 118
1, 264537, Note_on_c, 0, 61, 47
1, 264549, Control_c, 0, 67, 116
1, 264562, Note_off_c, 0, 64, 61
1, 264564, Note_on_c, 0, 69, 63
1, 264564, Control_c, 0, 67, 114
1, 264572, Note_off_c, 0, 61, 55
1, 264579, Control_c, 0, 67, 112
1, 264585, Note_off_c, 0, 69, 59
1, 264594, Control_c, 0, 67, 110
1, 264609, Control_c, 0, 67, 108
1, 264623, Note_on_c, 0, 54, 39
1, 264623, Control_c, 0, 67, 106
1, 264636, Note_on_c, 0, 73, 60
1, 264638, Control_c, 0, 67, 105
1, 264653, Control_c, 0, 67, 103
1, 264655, Note_off_c, 0, 54, 54
1, 264668, Control_c, 0, 67, 100
1, 264678, Note_off_c, 0, 73, 60
1, 264683, Control_c, 0, 67, 98
1, 264704, Control_c, 0, 67, 96
1, 264707, Note_on_c, 0, 76, 63
1, 264719, Control_c, 0, 67, 94
1, 264734, Control_c, 0, 67, 92
1, 264749, Control_c, 0, 67, 90
1, 264757, Note_off_c, 0, 76, 51
1, 264764, Control_c, 0, 67, 89
1, 264770, Note_on_c, 0, 78, 65
1, 264770, Note_on_c, 0, 42, 43
1, 264779, Control_c, 0, 67, 87
1, 264794, Control_c, 0, 67, 85
1, 264797, Note_off_c, 0, 78, 65
1, 264806, Note_off_c, 0, 42, 52
1, 264809, Control_c, 0, 67, 83
1, 264823, Control_c, 0, 67, 80
1, 264836, Note_on_c, 0, 81, 75
1, 264838, Control_c, 0, 67, 78
1, 264853, Control_c, 0, 67, 77
1, 264867, Note_off_c, 0, 81, 59
1, 264883, Control_c, 0, 67, 76
1, 264912, Control_c, 0, 67, 76
1, 264913, Note_on_c, 0, 85, 67
1, 264927, Control_c, 0, 67, 75
1, 264931, Note_on_c, 0, 64, 38
1, 264942, Control_c, 0, 67, 75
1, 264952, Note_on_c, 0, 61, 34
1, 264956, Control_c, 0, 67, 74
1, 264960, Note_off_c, 0, 85, 58
1, 264961, Note_off_c, 0, 64, 55
1, 264971, Control_c, 0, 67, 73
1, 264981, Note_on_c, 0, 88, 67
1, 264986, Control_c, 0, 67, 73
1, 264991, Note_off_c, 0, 61, 49
1, 265027, Note_on_c, 0, 54, 42
1, 265030, Control_c, 0, 64, 115
1, 265045, Control_c, 0, 64, 93
1, 265047, Note_on_c, 0, 90, 62
1, 265055, Note_off_c, 0, 54, 57
1, 265060, Control_c, 0, 64, 80
1, 265076, Control_c, 0, 64, 68
1, 265086, Note_off_c, 0, 88, 61
1, 265091, Control_c, 0, 64, 58
1, 265104, Note_on_c, 0, 93, 70
1, 265106, Control_c, 0, 64, 43
1, 265106, Control_c, 0, 67, 72
1, 265110, Note_off_c, 0, 90, 66
1, 265120, Control_c, 0, 64, 33
1, 265135, Control_c, 0, 64, 38
1, 265150, Control_c, 0, 64, 53
1, 265150, Control_c, 0, 67, 72
1, 265164, Control_c, 0, 64, 63
1, 265173, Note_on_c, 0, 47, 54
1, 265179, Control_c, 0, 64, 71
1, 265179, Control_c, 0, 67, 71
1, 265190, Note_off_c, 0, 93, 62
1, 265194, Control_c, 0, 64, 77
1, 265194, Control_c, 0, 67, 69
1, 265195, Note_on_c, 0, 92, 69
1, 265209, Control_c, 0, 64, 84
1, 265209, Control_c, 0, 67, 67
1, 265211, Note_off_c, 0, 47, 64
1, 265224, Control_c, 0, 64, 89
1, 265224, Control_c, 0, 67, 65
1, 265238, Control_c, 0, 64, 92
1, 265238, Control_c, 0, 67, 63
1, 265253, Control_c, 0, 64, 98
1, 265253, Control_c, 0, 67, 61
1, 265268, Note_on_c, 0, 90, 64
1, 265268, Control_c, 0, 64, 106
1, 265268, Control_c, 0, 67, 59
1, 265283, Control_c, 0, 64, 127
1, 265283, Control_c, 0, 67, 57
1, 265294, Note_off_c, 0, 92, 57
1, 265298, Control_c, 0, 67, 56
1, 265313, Control_c, 0, 67, 55
1, 265327, Control_c, 0, 67, 54
1, 265342, Control_c, 0, 67, 54
1, 265348, Note_on_c, 0, 87, 54
1, 265360, Note_off_c, 0, 90, 63
1, 265371, Note_off_c, 0, 87, 62
1, 265382, Note_on_c, 0, 63, 43
1, 265383, Note_on_c, 0, 59, 45
1, 265422, Note_on_c, 0, 81, 54
1, 265462, Note_off_c, 0, 81, 63
1, 265512, Note_on_c, 0, 80, 56
1, 265513, Control_c, 0, 67, 53
1, 265542, Control_c, 0, 67, 53
1, 265555, Note_on_c, 0, 54, 62
1, 265587, Control_c, 0, 67, 52
1, 265602, Control_c, 0, 67, 51
1, 265605, Note_on_c, 0, 78, 58
1, 265619, Note_off_c, 0, 80, 48
1, 265695, Note_off_c, 0, 78, 59
1, 265703, Note_on_c, 0, 75, 46
1, 265706, Control_c, 0, 67, 51
1, 265730, Note_off_c, 0, 75, 58
1, 265742, Note_on_c, 0, 56, 69
1, 265743, Note_off_c, 0, 54, 63
1, 265750, Control_c, 0, 67, 50
1, 265764, Control_c, 0, 67, 50
1, 265779, Control_c, 0, 67, 48
1, 265790, Note_on_c, 0, 71, 45
1, 265794, Control_c, 0, 67, 46
1, 265809, Control_c, 0, 67, 45
1, 265819, Note_off_c, 0, 71, 54
1, 265824, Control_c, 0, 67, 44
1, 265838, Control_c, 0, 67, 43
1, 265849, Note_on_c, 0, 75, 43
1, 265853, Control_c, 0, 67, 42
1, 265869, Control_c, 0, 67, 42
1, 265874, Note_on_c, 0, 54, 68
1, 265879, Note_off_c, 0, 56, 59
1, 265899, Control_c, 0, 67, 41
1, 265914, Control_c, 0, 67, 41
1, 265929, Control_c, 0, 67, 40
1, 265932, Note_on_c, 0, 73, 53
1, 265936, Note_off_c, 0, 63, 49
1, 265943, Control_c, 0, 67, 40
1, 265958, Control_c, 0, 67, 37
1, 265973, Control_c, 0, 67, 36
1, 265987, Control_c, 0, 67, 35
1, 265998, Note_on_c, 0, 71, 56
1, 265999, Note_on_c, 0, 56, 69
1, 266000, Note_off_c, 0, 54, 62
1, 266000, Note_off_c, 0, 73, 60
1, 266008, Note_off_c, 0, 59, 37
1, 266020, Note_off_c, 0, 75, 44
1, 266033, Note_off_c, 0, 71, 59
1, 266095, Note_on_c, 0, 69, 45
1, 266135, Control_c, 0, 64, 101
1, 266147, Note_off_c, 0, 69, 45
1, 266149, Note_off_c, 0, 56, 60
1, 266150, Control_c, 0, 64, 79
1, 266159, Note_on_c, 0, 52, 70
1, 266166, Control_c, 0, 64, 65
1, 266181, Control_c, 0, 64, 50
1, 266196, Note_on_c, 0, 68, 46
1, 266203, Control_c, 0, 64, 20
1, 266218, Control_c, 0, 64, 0
1, 266232, Note_off_c, 0, 68, 63
1, 266233, Control_c, 0, 67, 34
1, 266248, Control_c, 0, 64, 35
1, 266263, Control_c, 0, 64, 55
1, 266277, Control_c, 0, 64, 64
1, 266292, Control_c, 0, 64, 68
1, 266295, Note_on_c, 0, 71, 55
1, 266307, Control_c, 0, 64, 71
1, 266318, Note_off_c, 0, 71, 58
1, 266322, Control_c, 0, 64, 74
1, 266337, Control_c, 0, 64, 77
1, 266337, Control_c, 0, 67, 33
1, 266344, Note_on_c, 0, 64, 41
1, 266347, Note_on_c, 0, 59, 45
1, 266351, Control_c, 0, 64, 79
1, 266351, Control_c, 0, 67, 33
1, 266366, Control_c, 0, 64, 83
1, 266366, Control_c, 0, 67, 31
1, 266373, Note_on_c, 0, 76, 61
1, 266381, Control_c, 0, 64, 86
1, 266381, Control_c, 0, 67, 28
1, 266387, Note_off_c, 0, 64, 47
1, 266395, Control_c, 0, 64, 90
1, 266395, Control_c, 0, 67, 26
1, 266407, Note_off_c, 0, 59, 56
1, 266410, Control_c, 0, 64, 93
1, 266410, Control_c, 0, 67, 23
1, 266415, Note_off_c, 0, 76, 62
1, 266425, Control_c, 0, 64, 95
1, 266425, Control_c, 0, 67, 20
1, 266440, Control_c, 0, 64, 97
1, 266440, Control_c, 0, 67, 17
1, 266442, Note_on_c, 0, 80, 59
1, 266455, Control_c, 0, 64, 100
1, 266455, Control_c, 0, 67, 15
1, 266464, Note_on_c, 0, 56, 45
1, 266469, Control_c, 0, 64, 104
1, 266469, Control_c, 0, 67, 13
1, 266484, Control_c, 0, 64, 107
1, 266484, Control_c, 0, 67, 11
1, 266494, Note_off_c, 0, 56, 52
1, 266496, Note_on_c, 0, 78, 63
1, 266499, Note_off_c, 0, 80, 59
1, 266499, Control_c, 0, 64, 109
1, 266499, Control_c, 0, 67, 8
1, 266514, Control_c, 0, 64, 111
1, 266514, Control_c, 0, 67, 0
1, 266529, Control_c, 0, 64, 112
1, 266532, Note_off_c, 0, 78, 62
1, 266544, Control_c, 0, 64, 114
1, 266553, Note_on_c, 0, 76, 52
1, 266559, Control_c, 0, 64, 117
1, 266573, Control_c, 0, 64, 122
1, 266574, Note_off_c, 0, 76, 60
1, 266577, Note_off_c, 0, 52, 62
1, 266583, Note_on_c, 0, 51, 56
1, 266588, Control_c, 0, 64, 127
1, 266604, Note_on_c, 0, 80, 66
1, 266621, Note_off_c, 0, 80, 66
1, 266660, Note_on_c, 0, 83, 71
1, 266690, Note_off_c, 0, 83, 67
1, 266713, Note_on_c, 0, 64, 48
1, 266714, Note_on_c, 0, 59, 56
1, 266724, Note_on_c, 0, 88, 71
1, 266755, Note_off_c, 0, 88, 68
1, 266761, Note_off_c, 0, 64, 57
1, 266767, Note_on_c, 0, 92, 71
1, 266797, Note_off_c, 0, 59, 64
1, 266797, Control_c, 0, 64, 104
1, 266811, Control_c, 0, 64, 79
1, 266826, Control_c, 0, 64, 64
1, 266827, Note_on_c, 0, 90, 81
1, 266832, Note_on_c, 0, 56, 43
1, 266841, Control_c, 0, 64, 52
1, 266856, Control_c, 0, 64, 55
1, 266871, Note_off_c, 0, 92, 55
1, 266871, Control_c, 0, 64, 65
1, 266885, Control_c, 0, 64, 76
1, 266887, Note_on_c, 0, 88, 69
1, 266900, Control_c, 0, 64, 91
1, 266902, Note_off_c, 0, 90, 65
1, 266915, Note_off_c, 0, 88, 69
1, 266915, Control_c, 0, 64, 112
1, 266930, Control_c, 0, 64, 127
1, 266944, Note_off_c, 0, 51, 63
1, 266954, Note_on_c, 0, 49, 75
1, 266955, Note_on_c, 0, 83, 70
1, 266968, Note_off_c, 0, 56, 23
1, 266982, Note_off_c, 0, 49, 65
1, 266985, Note_off_c, 0, 83, 68
1, 267018, Note_on_c, 0, 80, 75
1, 267089, Note_on_c, 0, 78, 75
1, 267114, Note_on_c, 0, 64, 52
1, 267122, Note_off_c, 0, 80, 54
1, 267129, Note_on_c, 0, 59, 41
1, 267134, Note_on_c, 0, 76, 72
1, 267150, Note_off_c, 0, 78, 62
1, 267152, Note_off_c, 0, 64, 63
1, 267162, Note_off_c, 0, 76, 64
1, 267170, Note_off_c, 0, 59, 51
1, 267201, Note_on_c, 0, 71, 63
1, 267209, Note_on_c, 0, 56, 42
1, 267230, Note_off_c, 0, 71, 66
1, 267240, Note_off_c, 0, 56, 52
1, 267264, Note_on_c, 0, 68, 72
1, 267337, Note_on_c, 0, 66, 71
1, 267357, Note_on_c, 0, 47, 75
1, 267373, Note_off_c, 0, 68, 55
1, 267399, Note_on_c, 0, 64, 64
1, 267408, Note_off_c, 0, 66, 62
1, 267431, Note_off_c, 0, 64, 64
1, 267447, Note_on_c, 0, 59, 67
1, 267480, Note_off_c, 0, 59, 63
1, 267514, Note_on_c, 0, 68, 67
1, 267575, Note_on_c, 0, 66, 75
1, 267613, Note_off_c, 0, 68, 58
1, 267644, Note_off_c, 0, 66, 61
1, 267645, Note_on_c, 0, 64, 66
1, 267678, Control_c, 0, 64, 82
1, 267700, Note_off_c, 0, 64, 52
1, 267700, Control_c, 0, 64, 47
1, 267714, Note_on_c, 0, 61, 74
1, 267715, Control_c, 0, 64, 0
1, 267734, Note_on_c, 0, 45, 81
1, 267751, Note_off_c, 0, 61, 62
1, 267760, Control_c, 0, 64, 44
1, 267771, Note_off_c, 0, 47, 49
1, 267774, Control_c, 0, 64, 81
1, 267789, Control_c, 0, 64, 127
1, 267796, Note_off_c, 0, 45, 61
1, 267800, Note_on_c, 0, 64, 40
1, 267833, Note_off_c, 0, 64, 55
1, 267839, Note_on_c, 0, 66, 72
1, 267874, Note_off_c, 0, 66, 62
1, 267916, Note_on_c, 0, 64, 59
1, 267920, Note_on_c, 0, 61, 64
1, 267921, Note_on_c, 0, 69, 75
1, 267948, Note_off_c, 0, 64, 66
1, 267956, Note_off_c, 0, 69, 60
1, 267958, Note_off_c, 0, 61, 60
1, 267985, Note_on_c, 0, 73, 72
1, 267989, Note_on_c, 0, 54, 62
1, 268017, Note_off_c, 0, 54, 66
1, 268041, Note_off_c, 0, 73, 64
1, 268043, Note_on_c, 0, 76, 69
1, 268096, Note_on_c, 0, 78, 77
1, 268106, Note_off_c, 0, 76, 63
1, 268119, Note_off_c, 0, 78, 67
1, 268124, Note_on_c, 0, 42, 64
1, 268150, Note_off_c, 0, 42, 60
1, 268156, Note_on_c, 0, 81, 77
1, 268213, Note_off_c, 0, 81, 58
1, 268228, Note_on_c, 0, 85, 78
1, 268260, Note_on_c, 0, 61, 62
1, 268265, Note_on_c, 0, 64, 48
1, 268284, Note_on_c, 0, 88, 74
1, 268284, Note_off_c, 0, 85, 64
1, 268288, Note_off_c, 0, 64, 61
1, 268296, Note_off_c, 0, 61, 63
1, 268339, Note_on_c, 0, 54, 35
1, 268339, Note_on_c, 0, 90, 66
1, 268374, Note_off_c, 0, 54, 49
1, 268397, Note_on_c, 0, 93, 79
1, 268397, Note_off_c, 0, 88, 64
1, 268412, Control_c, 0, 64, 96
1, 268417, Note_off_c, 0, 90, 65
1, 268434, Control_c, 0, 64, 66
1, 268449, Control_c, 0, 64, 33
1, 268463, Control_c, 0, 64, 0
1, 268471, Note_on_c, 0, 47, 74
1, 268491, Note_on_c, 0, 92, 81
1, 268493, Control_c, 0, 64, 42
1, 268504, Note_off_c, 0, 93, 62
1, 268508, Control_c, 0, 64, 64
1, 268523, Control_c, 0, 64, 78
1, 268529, Note_off_c, 0, 47, 64
1, 268538, Control_c, 0, 64, 93
1, 268553, Control_c, 0, 64, 127
1, 268564, Note_on_c, 0, 90, 69
1, 268603, Note_off_c, 0, 92, 61
1, 268640, Note_on_c, 0, 87, 57
1, 268650, Note_off_c, 0, 90, 65
1, 268661, Note_off_c, 0, 87, 63
1, 268664, Note_on_c, 0, 63, 54
1, 268667, Note_on_c, 0, 59, 46
1, 268696, Note_on_c, 0, 81, 64
1, 268726, Note_off_c, 0, 59, 0
1, 268726, Note_on_c, 0, 59, 21
1, 268729, Note_off_c, 0, 81, 64
1, 268773, Note_on_c, 0, 80, 65
1, 268793, Note_on_c, 0, 54, 71
1, 268848, Note_on_c, 0, 78, 67
1, 268925, Note_on_c, 0, 75, 66
1, 268940, Note_off_c, 0, 78, 61
1, 268941, Note_on_c, 0, 56, 77
1, 268960, Note_off_c, 0, 75, 64
1, 268960, Note_off_c, 0, 80, 28
1, 268961, Note_off_c, 0, 54, 62
1, 268982, Note_on_c, 0, 71, 65
1, 269032, Note_off_c, 0, 71, 54
1, 269052, Note_on_c, 0, 75, 63
1, 269062, Note_on_c, 0, 54, 79
1, 269072, Note_off_c, 0, 56, 60
1, 269119, Note_on_c, 0, 73, 72
1, 269171, Note_on_c, 0, 71, 67
1, 269179, Note_on_c, 0, 56, 81
1, 269189, Note_off_c, 0, 63, 61
1, 269197, Note_off_c, 0, 75, 50
1, 269212, Note_off_c, 0, 54, 60
1, 269215, Note_off_c, 0, 73, 61
1, 269225, Note_off_c, 0, 59, 41
1, 269238, Note_off_c, 0, 71, 62
1, 269253, Note_on_c, 0, 69, 66
1, 269305, Note_off_c, 0, 69, 63
1, 269316, Note_off_c, 0, 56, 61
1, 269330, Note_on_c, 0, 52, 91
1, 269338, Note_on_c, 0, 68, 73
1, 269346, Control_c, 0, 64, 83
1, 269361, Control_c, 0, 64, 54
1, 269376, Control_c, 0, 64, 0
1, 269377, Note_off_c, 0, 68, 61
1, 269420, Control_c, 0, 64, 51
1, 269427, Note_on_c, 0, 71, 63
1, 269435, Control_c, 0, 64, 69
1, 269450, Control_c, 0, 64, 82
1, 269457, Note_off_c, 0, 71, 64
1, 269465, Control_c, 0, 64, 99
1, 269480, Control_c, 0, 64, 127
1, 269489, Note_on_c, 0, 76, 77
1, 269495, Note_on_c, 0, 64, 50
1, 269500, Note_on_c, 0, 59, 54
1, 269531, Note_off_c, 0, 64, 59
1, 269542, Note_off_c, 0, 76, 61
1, 269555, Note_on_c, 0, 80, 74
1, 269572, Note_off_c, 0, 59, 62
1, 269581, Note_on_c, 0, 56, 67
1, 269583, Note_off_c, 0, 52, 59
1, 269605, Note_on_c, 0, 78, 71
1, 269610, Note_off_c, 0, 56, 64
1, 269628, Note_off_c, 0, 80, 62
1, 269647, Note_on_c, 0, 76, 75
1, 269656, Note_off_c, 0, 78, 61
1, 269672, Note_off_c, 0, 76, 63
1, 269705, Note_on_c, 0, 80, 75
1, 269706, Note_on_c, 0, 47, 67
1, 269725, Note_off_c, 0, 80, 68
1, 269728, Note_off_c, 0, 47, 65
1, 269736, Note_on_c, 0, 48, 33
1, 269762, Note_on_c, 0, 83, 82
1, 269774, Note_off_c, 0, 48, 43
1, 269808, Note_off_c, 0, 83, 64
1, 269809, Note_on_c, 0, 64, 70
1, 269827, Note_on_c, 0, 88, 78
1, 269840, Note_on_c, 0, 59, 52
1, 269863, Poly_aftertouch_c, 0, 80, 0
1, 269871, Note_off_c, 0, 88, 64
1, 269876, Note_on_c, 0, 92, 73
1, 269886, Note_off_c, 0, 64, 60
1, 269906, Note_off_c, 0, 59, 64
1, 269911, Note_on_c, 0, 56, 73
1, 269924, Control_c, 0, 64, 117
1, 269940, Note_on_c, 0, 90, 81
1, 269942, Note_off_c, 0, 56, 67
1, 269946, Control_c, 0, 64, 64
1, 269960, Control_c, 0, 64, 0
1, 269990, Control_c, 0, 64, 59
1, 269993, Note_on_c, 0, 88, 73
1, 270005, Control_c, 0, 64, 102
1, 270016, Note_off_c, 0, 92, 62
1, 270020, Control_c, 0, 64, 127
1, 270031, Note_off_c, 0, 90, 65
1, 270033, Note_on_c, 0, 57, 90
1, 270033, Note_on_c, 0, 45, 89
1, 270038, Note_off_c, 0, 88, 52
1, 270050, Note_on_c, 0, 84, 76
1, 270053, Note_off_c, 0, 45, 68
1, 270055, Note_off_c, 0, 57, 68
1, 270088, Poly_aftertouch_c, 0, 56, 0
1, 270098, Note_off_c, 0, 84, 65
1, 270145, Note_on_c, 0, 81, 77
1, 270212, Note_on_c, 0, 60, 106
1, 270219, Note_on_c, 0, 48, 95
1, 270231, Note_on_c, 0, 78, 83
1, 270234, Note_off_c, 0, 60, 67
1, 270239, Note_off_c, 0, 48, 69
1, 270300, Note_on_c, 0, 76, 87
1, 270323, Note_off_c, 0, 81, 58
1, 270337, Note_off_c, 0, 78, 63
1, 270348, Note_off_c, 0, 76, 61
1, 270368, Note_on_c, 0, 72, 75
1, 270401, Note_off_c, 0, 72, 64
1, 270442, Note_on_c, 0, 69, 81
1, 270504, Note_on_c, 0, 66, 87
1, 270564, Note_on_c, 0, 64, 81
1, 270577, Note_off_c, 0, 69, 63
1, 270599, Note_off_c, 0, 66, 64
1, 270616, Note_off_c, 0, 64, 60
1, 270622, Note_on_c, 0, 60, 79
1, 270657, Note_off_c, 0, 60, 59
1, 270702, Note_on_c, 0, 57, 84
1, 270762, Note_on_c, 0, 54, 81
1, 270809, Note_off_c, 0, 57, 61
1, 270824, Note_on_c, 0, 52, 76
1, 270842, Note_off_c, 0, 54, 63
1, 270879, Note_off_c, 0, 52, 64
1, 270908, Note_on_c, 0, 40, 97
1, 270923, Note_on_c, 0, 56, 73
1, 270946, Control_c, 0, 64, 73
1, 270947, Note_off_c, 0, 56, 66
1, 270961, Control_c, 0, 64, 28
1, 270976, Control_c, 0, 64, 0
1, 271000, Note_on_c, 0, 59, 69
1, 271006, Control_c, 0, 64, 16
1, 271021, Control_c, 0, 64, 63
1, 271029, Note_off_c, 0, 59, 65
1, 271036, Control_c, 0, 64, 84
1, 271051, Control_c, 0, 64, 127
1, 271059, Note_on_c, 0, 64, 79
1, 271066, Note_on_c, 0, 52, 68
1, 271119, Note_off_c, 0, 64, 62
1, 271131, Note_on_c, 0, 68, 73
1, 271136, Note_off_c, 0, 52, 58
1, 271161, Note_on_c, 0, 47, 70
1, 271182, Note_off_c, 0, 40, 61
1, 271182, Note_off_c, 0, 47, 66
1, 271188, Note_on_c, 0, 66, 66
1, 271200, Note_off_c, 0, 68, 63
1, 271221, Note_off_c, 0, 66, 65
1, 271224, Note_on_c, 0, 64, 71
1, 271250, Note_off_c, 0, 64, 66
1, 271285, Note_on_c, 0, 68, 70
1, 271286, Note_on_c, 0, 35, 75
1, 271298, Note_off_c, 0, 68, 71
1, 271314, Note_off_c, 0, 35, 65
1, 271340, Note_on_c, 0, 71, 74
1, 271369, Note_off_c, 0, 71, 64
1, 271380, Note_on_c, 0, 52, 75
1, 271401, Note_on_c, 0, 76, 77
1, 271456, Note_off_c, 0, 76, 64
1, 271459, Note_on_c, 0, 80, 75
1, 271465, Note_off_c, 0, 52, 61
1, 271477, Note_on_c, 0, 47, 75
1, 271501, Note_off_c, 0, 47, 68
1, 271517, Note_on_c, 0, 78, 81
1, 271533, Control_c, 0, 64, 63
1, 271548, Control_c, 0, 64, 0
1, 271564, Note_on_c, 0, 76, 78
1, 271577, Control_c, 0, 64, 40
1, 271586, Note_on_c, 0, 45, 93
1, 271587, Note_off_c, 0, 80, 59
1, 271592, Control_c, 0, 64, 92
1, 271593, Note_on_c, 0, 33, 94
1, 271602, Note_off_c, 0, 78, 63
1, 271606, Control_c, 0, 64, 127
1, 271613, Note_off_c, 0, 45, 67
1, 271616, Note_off_c, 0, 33, 66
1, 271624, Note_on_c, 0, 72, 85
1, 271627, Note_off_c, 0, 76, 60
1, 271674, Note_off_c, 0, 72, 63
1, 271729, Note_on_c, 0, 69, 79
1, 271781, Note_on_c, 0, 48, 110
1, 271788, Note_on_c, 0, 36, 103
1, 271805, Note_off_c, 0, 48, 69
1, 271807, Note_on_c, 0, 66, 85
1, 271809, Note_off_c, 0, 36, 71
1, 271878, Note_on_c, 0, 64, 85
1, 271909, Note_off_c, 0, 69, 63
1, 271923, Note_off_c, 0, 66, 63
1, 271924, Poly_aftertouch_c, 0, 36, 127
1, 271933, Note_off_c, 0, 64, 61
1, 271946, Note_on_c, 0, 60, 80
1, 271963, Poly_aftertouch_c, 0, 36, 0
1, 271996, Note_off_c, 0, 60, 61
1, 272023, Note_on_c, 0, 57, 82
1, 272087, Note_on_c, 0, 54, 87
1, 272156, Note_on_c, 0, 52, 90
1, 272187, Note_off_c, 0, 57, 60
1, 272210, Note_off_c, 0, 54, 64
1, 272215, Note_off_c, 0, 52, 62
1, 272232, Note_on_c, 0, 48, 81
1, 272278, Note_off_c, 0, 48, 63
1, 272307, Note_on_c, 0, 45, 86
1, 272380, Note_on_c, 0, 42, 80
1, 272440, Note_off_c, 0, 45, 62
1, 272442, Note_on_c, 0, 40, 89
1, 272458, Note_off_c, 0, 42, 64
1, 272488, Note_off_c, 0, 40, 64
1, 272771, Note_on_c, 0, 28, 99
1, 272815, Control_c, 0, 64, 95
1, 272829, Control_c, 0, 64, 62
1, 272844, Control_c, 0, 64, 0
1, 273090, Control_c, 0, 64, 29
1, 273100, Note_on_c, 0, 47, 54
1, 273105, Control_c, 0, 64, 54
1, 273120, Control_c, 0, 64, 61
1, 273131, Note_off_c, 0, 47, 64
1, 273134, Control_c, 0, 64, 66
1, 273149, Control_c, 0, 64, 71
1, 273159, Note_on_c, 0, 52, 70
1, 273164, Control_c, 0, 64, 78
1, 273178, Control_c, 0, 64, 88
1, 273193, Control_c, 0, 64, 100
1, 273198, Note_off_c, 0, 28, 62
1, 273208, Control_c, 0, 64, 127
1, 273225, Note_off_c, 0, 52, 61
1, 273240, Note_on_c, 0, 57, 68
1, 273307, Note_on_c, 0, 56, 74
1, 273320, Note_off_c, 0, 57, 63
1, 273335, Note_off_c, 0, 56, 64
1, 273379, Note_on_c, 0, 59, 71
1, 273409, Note_off_c, 0, 59, 65
1, 273437, Note_on_c, 0, 64, 76
1, 273497, Note_off_c, 0, 64, 62
1, 273501, Note_on_c, 0, 69, 80
1, 273549, Note_on_c, 0, 52, 82
1, 273564, Note_on_c, 0, 68, 75
1, 273579, Note_off_c, 0, 69, 63
1, 273588, Note_off_c, 0, 68, 68
1, 273626, Note_on_c, 0, 71, 71
1, 273628, Note_on_c, 0, 59, 86
1, 273634, Note_off_c, 0, 52, 64
1, 273648, Note_off_c, 0, 59, 70
1, 273687, Note_off_c, 0, 71, 58
1, 273713, Note_on_c, 0, 76, 69
1, 273727, Note_on_c, 0, 59, 19
1, 273751, Note_off_c, 0, 59, 51
1, 273778, Note_off_c, 0, 76, 56
1, 273810, Note_on_c, 0, 81, 70
1, 273837, Note_on_c, 0, 68, 109
1, 273862, Note_off_c, 0, 68, 69
1, 273883, Note_on_c, 0, 80, 75
1, 273895, Note_off_c, 0, 81, 61
1, 273908, Note_off_c, 0, 80, 67
1, 273953, Note_on_c, 0, 83, 80
1, 274011, Note_on_c, 0, 88, 82
1, 274012, Note_off_c, 0, 83, 63
1, 274072, Note_off_c, 0, 88, 66
1, 274076, Note_on_c, 0, 93, 73
1, 274124, Note_on_c, 0, 92, 81
1, 274184, Note_on_c, 0, 88, 80
1, 274199, Note_off_c, 0, 93, 65
1, 274219, Note_off_c, 0, 92, 66
1, 274238, Note_off_c, 0, 88, 64
1, 274247, Note_on_c, 0, 83, 75
1, 274273, Note_off_c, 0, 83, 68
1, 274313, Note_on_c, 0, 81, 81
1, 274372, Note_on_c, 0, 80, 80
1, 274430, Note_on_c, 0, 76, 85
1, 274461, Note_off_c, 0, 81, 62
1, 274467, Note_off_c, 0, 80, 64
1, 274480, Note_off_c, 0, 76, 62
1, 274491, Note_on_c, 0, 71, 78
1, 274518, Note_off_c, 0, 71, 65
1, 274550, Note_on_c, 0, 69, 88
1, 274610, Note_on_c, 0, 68, 83
1, 274664, Note_on_c, 0, 64, 82
1, 274688, Note_off_c, 0, 69, 62
1, 274701, Note_off_c, 0, 68, 66
1, 274716, Note_off_c, 0, 64, 63
1, 274723, Note_on_c, 0, 59, 76
1, 274754, Note_off_c, 0, 59, 66
1, 274785, Note_on_c, 0, 57, 85
1, 274843, Note_on_c, 0, 56, 83
1, 274894, Note_on_c, 0, 52, 81
1, 274928, Note_off_c, 0, 57, 60
1, 274933, Note_off_c, 0, 56, 64
1, 274948, Note_off_c, 0, 52, 64
1, 274950, Note_on_c, 0, 47, 81
1, 274986, Note_off_c, 0, 47, 65
1, 275031, Note_on_c, 0, 43, 67
1, 275033, Note_on_c, 0, 45, 75
1, 275108, Note_on_c, 0, 44, 36
1, 275120, Note_off_c, 0, 44, 42
1, 275123, Note_off_c, 0, 45, 64
1, 275140, Note_on_c, 0, 40, 67
1, 275154, Note_on_c, 0, 38, 33
1, 275159, Note_off_c, 0, 43, 64
1, 275186, Note_off_c, 0, 40, 62
1, 275203, Note_on_c, 0, 35, 74
1, 275203, Note_off_c, 0, 38, 44
1, 275230, Note_off_c, 0, 35, 64
1, 275276, Note_on_c, 0, 28, 91
1, 275291, Control_c, 0, 64, 115
1, 275305, Control_c, 0, 64, 65
1, 275320, Control_c, 0, 64, 0
1, 275573, Control_c, 0, 64, 20
1, 275588, Control_c, 0, 64, 37
1, 275603, Control_c, 0, 64, 48
1, 275618, Control_c, 0, 64, 52
1, 275632, Control_c, 0, 64, 53
1, 275647, Control_c, 0, 64, 53
1, 275662, Control_c, 0, 64, 48
1, 275677, Control_c, 0, 64, 35
1, 275692, Control_c, 0, 64, 0
1, 275874, Note_off_c, 0, 28, 64
1, 276247, Note_on_c, 0, 38, 110
1, 276250, Note_on_c, 0, 26, 83
1, 276271, Note_off_c, 0, 26, 66
1, 276277, Control_c, 0, 64, 39
1, 276283, Note_off_c, 0, 38, 64
1, 276292, Control_c, 0, 64, 65
1, 276307, Control_c, 0, 64, 67
1, 276321, Control_c, 0, 64, 68
1, 276336, Control_c, 0, 64, 71
1, 276351, Control_c, 0, 64, 77
1, 276366, Control_c, 0, 64, 85
1, 276381, Control_c, 0, 64, 97
1, 276396, Control_c, 0, 64, 111
1, 276410, Control_c, 0, 64, 127
1, 276477, Note_on_c, 0, 47, 62
1, 276503, Note_off_c, 0, 47, 68
1, 276549, Note_on_c, 0, 53, 66
1, 276625, Note_off_c, 0, 53, 61
1, 276635, Note_on_c, 0, 57, 64
1, 276718, Note_on_c, 0, 56, 67
1, 276733, Note_off_c, 0, 57, 61
1, 276744, Note_off_c, 0, 56, 65
1, 276796, Note_on_c, 0, 59, 68
1, 276822, Note_off_c, 0, 59, 65
1, 276864, Note_on_c, 0, 65, 71
1, 276918, Note_off_c, 0, 65, 64
1, 276924, Note_on_c, 0, 69, 75
1, 277002, Note_on_c, 0, 68, 63
1, 277010, Note_off_c, 0, 69, 65
1, 277028, Note_off_c, 0, 68, 66
1, 277067, Note_on_c, 0, 71, 78
1, 277098, Note_off_c, 0, 71, 61
1, 277101, Note_on_c, 0, 50, 60
1, 277146, Note_on_c, 0, 77, 69
1, 277156, Note_on_c, 0, 56, 69
1, 277210, Note_on_c, 0, 59, 76
1, 277212, Note_off_c, 0, 77, 64
1, 277212, Note_on_c, 0, 81, 83
1, 277227, Note_on_c, 0, 65, 95
1, 277292, Note_on_c, 0, 80, 71
1, 277308, Note_off_c, 0, 81, 63
1, 277314, Note_off_c, 0, 80, 67
1, 277357, Note_on_c, 0, 83, 83
1, 277385, Note_off_c, 0, 83, 63
1, 277435, Note_on_c, 0, 89, 75
1, 277487, Note_off_c, 0, 89, 65
1, 277487, Note_on_c, 0, 93, 74
1, 277539, Note_on_c, 0, 92, 82
1, 277579, Note_off_c, 0, 65, 61
1, 277593, Note_on_c, 0, 89, 77
1, 277599, Note_off_c, 0, 93, 61
1, 277629, Note_off_c, 0, 92, 65
1, 277640, Note_off_c, 0, 59, 61
1, 277641, Note_off_c, 0, 89, 64
1, 277656, Note_on_c, 0, 83, 78
1, 277673, Note_off_c, 0, 56, 57
1, 277684, Note_off_c, 0, 83, 64
1, 277728, Note_on_c, 0, 81, 81
1, 277784, Note_on_c, 0, 80, 81
1, 277841, Note_on_c, 0, 77, 77
1, 277858, Note_off_c, 0, 81, 62
1, 277878, Note_off_c, 0, 80, 63
1, 277887, Note_off_c, 0, 77, 62
1, 277897, Note_on_c, 0, 71, 77
1, 277925, Note_off_c, 0, 71, 64
1, 277964, Note_on_c, 0, 69, 86
1, 278023, Note_on_c, 0, 68, 83
1, 278074, Note_on_c, 0, 65, 86
1, 278113, Note_off_c, 0, 69, 63
1, 278118, Note_off_c, 0, 68, 64
1, 278122, Note_off_c, 0, 50, 63
1, 278129, Note_off_c, 0, 65, 63
1, 278131, Note_on_c, 0, 59, 79
1, 278179, Note_off_c, 0, 59, 64
1, 278208, Note_on_c, 0, 57, 83
1, 278268, Note_on_c, 0, 56, 83
1, 278321, Note_on_c, 0, 53, 84
1, 278357, Note_off_c, 0, 57, 60
1, 278365, Note_off_c, 0, 56, 63
1, 278380, Note_off_c, 0, 53, 63
1, 278384, Note_on_c, 0, 47, 80
1, 278428, Note_off_c, 0, 47, 64
1, 278456, Note_on_c, 0, 45, 85
1, 278526, Note_on_c, 0, 44, 83
1, 278575, Note_off_c, 0, 45, 63
1, 278580, Note_on_c, 0, 41, 84
1, 278613, Note_off_c, 0, 44, 63
1, 278635, Note_off_c, 0, 41, 61
1, 278647, Note_on_c, 0, 35, 85
1, 278682, Note_off_c, 0, 35, 64
1, 278783, Note_on_c, 0, 26, 97
1, 278835, Control_c, 0, 64, 100
1, 278850, Control_c, 0, 64, 68
1, 278865, Control_c, 0, 64, 34
1, 278867, Poly_aftertouch_c, 0, 24, 0
1, 278879, Control_c, 0, 64, 0
1, 279750, Note_on_c, 0, 37, 91
1, 279754, Note_on_c, 0, 25, 91
1, 279777, Note_off_c, 0, 26, 62
1, 279987, Note_on_c, 0, 70, 69
1, 280048, Note_off_c, 0, 25, 62
1, 280050, Control_c, 0, 64, 53
1, 280063, Note_on_c, 0, 68, 63
1, 280065, Control_c, 0, 64, 68
1, 280074, Note_off_c, 0, 37, 62
1, 280080, Control_c, 0, 64, 74
1, 280086, Note_off_c, 0, 70, 61
1, 280095, Note_off_c, 0, 68, 65
1, 280095, Control_c, 0, 64, 83
1, 280110, Control_c, 0, 64, 94
1, 280125, Control_c, 0, 64, 127
1, 280135, Note_on_c, 0, 71, 76
1, 280190, Note_off_c, 0, 71, 61
1, 280212, Note_on_c, 0, 77, 71
1, 280278, Note_off_c, 0, 77, 64
1, 280288, Note_on_c, 0, 56, 84
1, 280291, Note_on_c, 0, 44, 72
1, 280292, Note_on_c, 0, 82, 74
1, 280315, Note_off_c, 0, 44, 66
1, 280315, Note_off_c, 0, 56, 66
1, 280358, Note_on_c, 0, 80, 74
1, 280387, Note_off_c, 0, 80, 64
1, 280398, Note_off_c, 0, 82, 61
1, 280434, Note_on_c, 0, 63, 86
1, 280438, Note_on_c, 0, 83, 79
1, 280444, Note_on_c, 0, 51, 77
1, 280457, Note_off_c, 0, 63, 69
1, 280470, Note_off_c, 0, 51, 67
1, 280498, Note_on_c, 0, 89, 90
1, 280500, Note_off_c, 0, 83, 63
1, 280569, Note_on_c, 0, 61, 80
1, 280569, Note_on_c, 0, 94, 84
1, 280570, Note_off_c, 0, 89, 63
1, 280578, Note_on_c, 0, 49, 66
1, 280597, Note_off_c, 0, 61, 62
1, 280608, Control_c, 0, 64, 75
1, 280611, Note_off_c, 0, 49, 64
1, 280622, Control_c, 0, 64, 27
1, 280631, Note_on_c, 0, 92, 82
1, 280637, Control_c, 0, 64, 0
1, 280675, Note_off_c, 0, 94, 64
1, 280688, Note_on_c, 0, 61, 88
1, 280696, Note_on_c, 0, 49, 86
1, 280697, Note_on_c, 0, 82, 90
1, 280700, Note_off_c, 0, 92, 63
1, 280712, Control_c, 0, 64, 66
1, 280725, Note_off_c, 0, 61, 65
1, 280726, Control_c, 0, 64, 127
1, 280732, Note_off_c, 0, 49, 62
1, 280769, Note_on_c, 0, 88, 83
1, 280780, Note_off_c, 0, 82, 59
1, 280838, Note_on_c, 0, 92, 77
1, 280856, Note_off_c, 0, 88, 65
1, 280903, Note_on_c, 0, 91, 82
1, 280960, Note_off_c, 0, 92, 61
1, 280978, Note_on_c, 0, 88, 47
1, 280986, Note_off_c, 0, 91, 61
1, 280993, Note_on_c, 0, 89, 41
1, 281006, Note_off_c, 0, 88, 66
1, 281019, Note_off_c, 0, 89, 54
1, 281022, Note_on_c, 0, 82, 77
1, 281051, Note_off_c, 0, 82, 62
1, 281074, Note_on_c, 0, 49, 94
1, 281079, Note_on_c, 0, 37, 90
1, 281108, Note_off_c, 0, 49, 63
1, 281111, Note_on_c, 0, 80, 76
1, 281117, Note_off_c, 0, 37, 64
1, 281150, Note_on_c, 0, 78, 50
1, 281179, Note_on_c, 0, 79, 78
1, 281221, Note_off_c, 0, 78, 37
1, 281230, Note_off_c, 0, 80, 59
1, 281240, Note_on_c, 0, 76, 61
1, 281252, Note_on_c, 0, 77, 55
1, 281261, Note_off_c, 0, 79, 62
1, 281270, Note_off_c, 0, 77, 64
1, 281275, Note_off_c, 0, 76, 63
1, 281295, Note_on_c, 0, 70, 86
1, 281317, Note_off_c, 0, 70, 69
1, 281374, Note_on_c, 0, 68, 77
1, 281439, Note_on_c, 0, 67, 73
1, 281532, Note_on_c, 0, 37, 91
1, 281536, Note_on_c, 0, 25, 84
1, 281544, Note_on_c, 0, 57, 95
1, 281547, Control_c, 0, 64, 104
1, 281550, Note_off_c, 0, 67, 64
1, 281562, Control_c, 0, 64, 65
1, 281577, Control_c, 0, 64, 0
1, 281624, Note_off_c, 0, 68, 47
1, 281642, Note_on_c, 0, 63, 72
1, 281666, Control_c, 0, 64, 41
1, 281669, Note_off_c, 0, 57, 56
1, 281681, Control_c, 0, 64, 60
1, 281696, Control_c, 0, 64, 70
1, 281711, Control_c, 0, 64, 82
1, 281712, Note_off_c, 0, 25, 62
1, 281725, Control_c, 0, 64, 127
1, 281727, Note_off_c, 0, 63, 64
1, 281731, Note_on_c, 0, 68, 63
1, 281763, Note_off_c, 0, 37, 61
1, 281789, Note_on_c, 0, 66, 69
1, 281835, Note_off_c, 0, 66, 64
1, 281842, Note_off_c, 0, 68, 52
1, 281874, Note_on_c, 0, 69, 78
1, 281915, Note_off_c, 0, 69, 59
1, 281952, Note_on_c, 0, 75, 74
1, 281994, Note_off_c, 0, 75, 61
1, 282012, Note_on_c, 0, 54, 81
1, 282014, Note_on_c, 0, 80, 67
1, 282020, Note_on_c, 0, 42, 53
1, 282035, Note_off_c, 0, 54, 68
1, 282050, Note_off_c, 0, 42, 56
1, 282067, Note_on_c, 0, 78, 74
1, 282090, Note_off_c, 0, 78, 68
1, 282099, Note_off_c, 0, 80, 44
1, 282134, Note_on_c, 0, 63, 83
1, 282136, Note_on_c, 0, 81, 85
1, 282138, Note_on_c, 0, 54, 3
1, 282146, Note_on_c, 0, 51, 76
1, 282160, Note_off_c, 0, 63, 69
1, 282173, Note_off_c, 0, 54, 52
1, 282176, Note_off_c, 0, 51, 66
1, 282181, Note_off_c, 0, 81, 59
1, 282197, Note_on_c, 0, 87, 82
1, 282237, Control_c, 0, 64, 113
1, 282252, Control_c, 0, 64, 45
1, 282256, Note_on_c, 0, 92, 84
1, 282261, Note_on_c, 0, 61, 80
1, 282263, Note_off_c, 0, 87, 66
1, 282267, Control_c, 0, 64, 0
1, 282274, Note_on_c, 0, 49, 66
1, 282287, Note_off_c, 0, 61, 66
1, 282300, Note_off_c, 0, 49, 63
1, 282322, Note_on_c, 0, 90, 87
1, 282358, Note_off_c, 0, 92, 65
1, 282360, Note_on_c, 0, 61, 92
1, 282368, Note_on_c, 0, 49, 79
1, 282370, Control_c, 0, 64, 97
1, 282384, Note_on_c, 0, 80, 83
1, 282385, Control_c, 0, 64, 127
1, 282386, Note_off_c, 0, 61, 68
1, 282404, Note_off_c, 0, 49, 64
1, 282408, Note_off_c, 0, 90, 65
1, 282468, Note_off_c, 0, 80, 60
1, 282475, Note_on_c, 0, 85, 65
1, 282536, Note_on_c, 0, 90, 70
1, 282539, Note_off_c, 0, 85, 60
1, 282563, Note_on_c, 0, 43, 69
1, 282566, Note_on_c, 0, 31, 71
1, 282593, Note_off_c, 0, 43, 63
1, 282593, Note_off_c, 0, 31, 61
1, 282596, Note_on_c, 0, 89, 69
1, 282664, Note_off_c, 0, 90, 64
1, 282670, Note_on_c, 0, 85, 66
1, 282679, Note_off_c, 0, 89, 64
1, 282691, Note_on_c, 0, 44, 94
1, 282701, Note_on_c, 0, 32, 76
1, 282703, Note_off_c, 0, 85, 65
1, 282706, Note_on_c, 0, 80, 77
1, 282727, Note_off_c, 0, 44, 59
1, 282735, Note_off_c, 0, 32, 63
1, 282749, Note_off_c, 0, 80, 59
1, 282799, Note_on_c, 0, 44, 99
1, 282804, Note_on_c, 0, 32, 79
1, 282804, Note_on_c, 0, 78, 76
1, 282835, Note_off_c, 0, 32, 63
1, 282838, Note_off_c, 0, 44, 61
1, 282893, Note_on_c, 0, 77, 59
1, 282902, Note_off_c, 0, 78, 48
1, 282926, Note_on_c, 0, 76, 45
1, 282927, Note_off_c, 0, 77, 52
1, 282927, Note_on_c, 0, 73, 71
1, 282938, Note_on_c, 0, 51, 91
1, 282948, Note_on_c, 0, 39, 83
1, 282951, Note_off_c, 0, 76, 57
1, 282963, Note_off_c, 0, 51, 66
1, 282977, Note_off_c, 0, 39, 64
1, 282980, Note_off_c, 0, 73, 63
1, 282992, Note_on_c, 0, 68, 80
1, 283015, Note_off_c, 0, 68, 68
1, 283067, Note_on_c, 0, 49, 94
1, 283076, Note_on_c, 0, 37, 86
1, 283080, Note_on_c, 0, 66, 73
1, 283109, Note_off_c, 0, 37, 67
1, 283129, Note_off_c, 0, 49, 58
1, 283134, Note_on_c, 0, 65, 79
1, 283158, Note_off_c, 0, 66, 64
1, 283189, Note_off_c, 0, 65, 63
1, 283234, Note_on_c, 0, 50, 114
1, 283238, Note_on_c, 0, 38, 91
1, 283267, Control_c, 0, 64, 71
1, 283281, Control_c, 0, 64, 0
1, 283335, Note_on_c, 0, 60, 74
1, 283401, Note_off_c, 0, 60, 48
1, 283407, Note_on_c, 0, 66, 71
1, 283439, Control_c, 0, 64, 25
1, 283454, Control_c, 0, 64, 81
1, 283468, Control_c, 0, 64, 127
1, 283472, Note_off_c, 0, 38, 62
1, 283474, Note_off_c, 0, 66, 54
1, 283493, Note_on_c, 0, 71, 68
1, 283513, Note_off_c, 0, 50, 68
1, 283549, Note_on_c, 0, 69, 80
1, 283576, Note_off_c, 0, 69, 69
1, 283580, Note_off_c, 0, 71, 63
1, 283630, Note_on_c, 0, 72, 80
1, 283667, Note_off_c, 0, 72, 53
1, 283694, Note_on_c, 0, 78, 79
1, 283730, Note_on_c, 0, 57, 77
1, 283732, Note_on_c, 0, 45, 61
1, 283747, Note_off_c, 0, 78, 63
1, 283755, Note_on_c, 0, 83, 72
1, 283755, Note_off_c, 0, 45, 60
1, 283755, Note_off_c, 0, 57, 66
1, 283803, Note_on_c, 0, 81, 71
1, 283827, Note_off_c, 0, 81, 68
1, 283834, Note_off_c, 0, 83, 66
1, 283860, Note_on_c, 0, 64, 80
1, 283869, Note_on_c, 0, 52, 78
1, 283873, Poly_aftertouch_c, 0, 57, 127
1, 283874, Note_on_c, 0, 84, 89
1, 283884, Note_off_c, 0, 64, 69
1, 283898, Note_off_c, 0, 52, 64
1, 283901, Poly_aftertouch_c, 0, 57, 0
1, 283940, Note_on_c, 0, 90, 86
1, 283946, Note_off_c, 0, 84, 61
1, 283993, Note_on_c, 0, 62, 71
1, 283994, Note_on_c, 0, 95, 84
1, 283999, Note_off_c, 0, 90, 66
1, 284000, Note_on_c, 0, 50, 64
1, 284022, Note_off_c, 0, 62, 66
1, 284031, Control_c, 0, 64, 64
1, 284033, Note_off_c, 0, 50, 64
1, 284046, Control_c, 0, 64, 0
1, 284051, Note_on_c, 0, 93, 89
1, 284097, Note_off_c, 0, 95, 66
1, 284101, Note_on_c, 0, 62, 90
1, 284107, Note_on_c, 0, 50, 91
1, 284110, Note_on_c, 0, 83, 87
1, 284119, Control_c, 0, 64, 72
1, 284128, Note_off_c, 0, 93, 65
1, 284131, Note_off_c, 0, 50, 72
1, 284131, Note_off_c, 0, 62, 66
1, 284135, Control_c, 0, 64, 127
1, 284188, Note_on_c, 0, 89, 84
1, 284209, Note_off_c, 0, 83, 60
1, 284248, Note_on_c, 0, 93, 85
1, 284260, Note_off_c, 0, 89, 64
1, 284303, Note_on_c, 0, 92, 83
1, 284364, Note_on_c, 0, 89, 83
1, 284381, Note_off_c, 0, 93, 64
1, 284403, Note_off_c, 0, 92, 65
1, 284413, Note_off_c, 0, 89, 65
1, 284417, Note_on_c, 0, 83, 85
1, 284461, Note_off_c, 0, 83, 65
1, 284493, Note_on_c, 0, 50, 101
1, 284495, Note_on_c, 0, 38, 88
1, 284504, Note_on_c, 0, 81, 83
1, 284530, Note_off_c, 0, 50, 65
1, 284545, Note_off_c, 0, 38, 63
1, 284562, Note_on_c, 0, 80, 83
1, 284614, Note_on_c, 0, 77, 82
1, 284619, Note_off_c, 0, 81, 59
1, 284650, Note_off_c, 0, 80, 64
1, 284667, Note_off_c, 0, 77, 64
1, 284670, Note_on_c, 0, 71, 85
1, 284706, Note_off_c, 0, 71, 58
1, 284749, Note_on_c, 0, 69, 88
1, 284808, Note_on_c, 0, 68, 83
1, 284837, Note_off_c, 0, 69, 63
1, 284885, Note_off_c, 0, 68, 63
1, 284928, Note_on_c, 0, 38, 97
1, 284933, Note_on_c, 0, 26, 92
1, 284995, Control_c, 0, 64, 98
1, 285009, Control_c, 0, 64, 66
1, 285015, Note_on_c, 0, 58, 87
1, 285024, Control_c, 0, 64, 0
1, 285085, Control_c, 0, 64, 43
1, 285100, Control_c, 0, 64, 66
1, 285109, Note_on_c, 0, 64, 64
1, 285113, Note_off_c, 0, 58, 61
1, 285114, Control_c, 0, 64, 76
1, 285115, Note_off_c, 0, 26, 66
1, 285124, Note_on_c, 0, 65, 61
1, 285129, Control_c, 0, 64, 90
1, 285144, Control_c, 0, 64, 117
1, 285156, Note_off_c, 0, 65, 48
1, 285159, Control_c, 0, 64, 127
1, 285174, Note_off_c, 0, 38, 63
1, 285177, Note_on_c, 0, 69, 73
1, 285187, Note_off_c, 0, 64, 57
1, 285234, Note_on_c, 0, 67, 48
1, 285251, Note_off_c, 0, 69, 66
1, 285261, Note_off_c, 0, 67, 56
1, 285317, Note_on_c, 0, 70, 66
1, 285373, Note_off_c, 0, 70, 61
1, 285380, Note_on_c, 0, 76, 68
1, 285428, Note_on_c, 0, 55, 88
1, 285431, Note_on_c, 0, 81, 74
1, 285435, Note_on_c, 0, 43, 62
1, 285452, Note_off_c, 0, 55, 69
1, 285462, Note_off_c, 0, 43, 59
1, 285462, Note_off_c, 0, 76, 64
1, 285493, Note_on_c, 0, 79, 40
1, 285498, Note_off_c, 0, 81, 65
1, 285525, Note_off_c, 0, 79, 49
1, 285577, Note_on_c, 0, 82, 74
1, 285582, Note_on_c, 0, 64, 77
1, 285588, Note_on_c, 0, 52, 74
1, 285607, Note_off_c, 0, 64, 68
1, 285613, Note_off_c, 0, 82, 62
1, 285614, Note_off_c, 0, 52, 67
1, 285634, Note_on_c, 0, 88, 61
1, 285689, Note_on_c, 0, 93, 78
1, 285710, Note_on_c, 0, 62, 84
1, 285713, Note_off_c, 0, 88, 67
1, 285719, Note_on_c, 0, 50, 71
1, 285729, Poly_aftertouch_c, 0, 64, 127
1, 285730, Poly_aftertouch_c, 0, 92, 0
1, 285735, Note_on_c, 0, 92, 45
1, 285736, Note_off_c, 0, 62, 66
1, 285747, Note_on_c, 0, 91, 87
1, 285750, Note_off_c, 0, 50, 66
1, 285756, Poly_aftertouch_c, 0, 64, 0
1, 285773, Control_c, 0, 64, 63
1, 285777, Note_off_c, 0, 93, 62
1, 285788, Control_c, 0, 64, 0
1, 285800, Note_on_c, 0, 90, 32
1, 285811, Note_off_c, 0, 91, 62
1, 285814, Note_off_c, 0, 92, 37
1, 285824, Note_on_c, 0, 81, 78
1, 285827, Note_on_c, 0, 62, 93
1, 285830, Note_on_c, 0, 50, 82
1, 285850, Note_off_c, 0, 62, 71
1, 285855, Note_off_c, 0, 90, 45
1, 285863, Note_off_c, 0, 50, 68
1, 285863, Control_c, 0, 64, 71
1, 285878, Control_c, 0, 64, 96
1, 285893, Control_c, 0, 64, 127
1, 285899, Note_on_c, 0, 86, 82
1, 285902, Note_off_c, 0, 81, 64
1, 285963, Note_off_c, 0, 86, 65
1, 285967, Note_on_c, 0, 91, 84
1, 285991, Note_on_c, 0, 49, 73
1, 285999, Note_on_c, 0, 37, 64
1, 286016, Note_off_c, 0, 49, 65
1, 286027, Note_off_c, 0, 37, 57
1, 286028, Note_on_c, 0, 90, 81
1, 286090, Note_on_c, 0, 86, 76
1, 286107, Note_on_c, 0, 50, 84
1, 286110, Note_on_c, 0, 38, 73
1, 286110, Note_off_c, 0, 91, 61
1, 286131, Note_off_c, 0, 90, 66
1, 286139, Note_off_c, 0, 50, 66
1, 286140, Note_off_c, 0, 38, 65
1, 286146, Note_on_c, 0, 81, 87
1, 286150, Note_off_c, 0, 86, 63
1, 286198, Note_off_c, 0, 81, 66
1, 286212, Note_on_c, 0, 50, 91
1, 286213, Note_on_c, 0, 38, 75
1, 286236, Note_off_c, 0, 50, 67
1, 286237, Note_on_c, 0, 79, 90
1, 286250, Note_off_c, 0, 38, 63
1, 286299, Note_on_c, 0, 78, 87
1, 286361, Note_on_c, 0, 74, 83
1, 286369, Note_on_c, 0, 47, 58
1, 286374, Note_on_c, 0, 35, 57
1, 286386, Note_on_c, 0, 45, 34
1, 286393, Note_off_c, 0, 47, 60
1, 286397, Note_off_c, 0, 79, 63
1, 286414, Note_off_c, 0, 35, 63
1, 286418, Note_off_c, 0, 78, 64
1, 286426, Note_on_c, 0, 33, 5
1, 286426, Note_off_c, 0, 45, 46
1, 286429, Note_off_c, 0, 74, 60
1, 286439, Note_on_c, 0, 69, 86
1, 286464, Note_off_c, 0, 33, 37
1, 286489, Note_off_c, 0, 69, 65
1, 286500, Note_on_c, 0, 36, 73
1, 286501, Note_on_c, 0, 48, 81
1, 286519, Note_on_c, 0, 67, 95
1, 286531, Note_off_c, 0, 48, 66
1, 286536, Note_off_c, 0, 36, 64
1, 286586, Note_on_c, 0, 66, 89
1, 286613, Note_off_c, 0, 67, 64
1, 286624, Note_off_c, 0, 66, 67
1, 286656, Control_c, 0, 64, 72
1, 286671, Control_c, 0, 64, 0
1, 286690, Note_on_c, 0, 34, 88
1, 286693, Note_on_c, 0, 46, 90
1, 286790, Control_c, 0, 64, 32
1, 286804, Control_c, 0, 64, 73
1, 286808, Note_on_c, 0, 74, 92
1, 286811, Note_on_c, 0, 62, 88
1, 286813, Note_on_c, 0, 67, 87
1, 286817, Note_off_c, 0, 34, 63
1, 286819, Control_c, 0, 64, 92
1, 286831, Note_off_c, 0, 46, 65
1, 286832, Note_off_c, 0, 62, 70
1, 286834, Control_c, 0, 64, 111
1, 286838, Note_off_c, 0, 67, 69
1, 286838, Poly_aftertouch_c, 0, 68, 0
1, 286847, Note_off_c, 0, 74, 68
1, 286849, Control_c, 0, 64, 127
1, 286935, Note_on_c, 0, 62, 11
1, 286970, Note_off_c, 0, 62, 32
1, 286997, Note_on_c, 0, 62, 54
1, 287048, Note_off_c, 0, 62, 60
1, 287066, Note_on_c, 0, 73, 71
1, 287109, Note_on_c, 0, 55, 56
1, 287111, Note_on_c, 0, 74, 76
1, 287114, Note_off_c, 0, 73, 63
1, 287132, Note_off_c, 0, 55, 63
1, 287178, Note_off_c, 0, 74, 66
1, 287185, Note_on_c, 0, 77, 67
1, 287230, Note_on_c, 0, 75, 69
1, 287241, Control_c, 0, 64, 84
1, 287255, Note_off_c, 0, 77, 64
1, 287256, Control_c, 0, 64, 48
1, 287267, Note_off_c, 0, 75, 65
1, 287268, Note_on_c, 0, 74, 66
1, 287271, Control_c, 0, 64, 0
1, 287285, Note_off_c, 0, 74, 69
1, 287308, Note_on_c, 0, 45, 69
1, 287330, Note_on_c, 0, 74, 85
1, 287344, Control_c, 0, 64, 44
1, 287359, Control_c, 0, 64, 62
1, 287374, Control_c, 0, 64, 70
1, 287384, Note_off_c, 0, 45, 63
1, 287389, Control_c, 0, 64, 77
1, 287404, Control_c, 0, 64, 88
1, 287419, Control_c, 0, 64, 102
1, 287434, Control_c, 0, 64, 127
1, 287505, Note_on_c, 0, 86, 91
1, 287505, Note_on_c, 0, 62, 68
1, 287514, Note_on_c, 0, 78, 68
1, 287542, Note_off_c, 0, 62, 63
1, 287571, Note_off_c, 0, 86, 63
1, 287632, Note_off_c, 0, 78, 61
1, 287633, Note_on_c, 0, 50, 50
1, 287640, Note_on_c, 0, 57, 37
1, 287662, Note_off_c, 0, 50, 51
1, 287663, Note_on_c, 0, 84, 86
1, 287674, Note_off_c, 0, 57, 50
1, 287701, Control_c, 0, 64, 106
1, 287716, Control_c, 0, 64, 69
1, 287731, Control_c, 0, 64, 16
1, 287746, Control_c, 0, 64, 0
1, 287805, Note_on_c, 0, 43, 76
1, 287818, Note_on_c, 0, 79, 89
1, 287818, Note_on_c, 0, 82, 85
1, 287820, Control_c, 0, 64, 45
1, 287828, Note_off_c, 0, 84, 65
1, 287834, Note_off_c, 0, 74, 63
1, 287834, Control_c, 0, 64, 69
1, 287843, Note_off_c, 0, 43, 64
1, 287847, Note_off_c, 0, 79, 66
1, 287849, Control_c, 0, 64, 81
1, 287863, Note_off_c, 0, 82, 64
1, 287864, Control_c, 0, 64, 91
1, 287880, Control_c, 0, 64, 98
1, 287895, Control_c, 0, 64, 107
1, 287917, Control_c, 0, 64, 127
1, 287996, Note_on_c, 0, 62, 65
1, 288030, Note_off_c, 0, 62, 63
1, 288036, Note_on_c, 0, 73, 65
1, 288087, Note_on_c, 0, 74, 66
1, 288117, Note_on_c, 0, 55, 37
1, 288126, Note_off_c, 0, 73, 51
1, 288129, Note_off_c, 0, 74, 58
1, 288131, Note_on_c, 0, 77, 57
1, 288155, Note_off_c, 0, 55, 45
1, 288170, Note_on_c, 0, 75, 69
1, 288177, Note_off_c, 0, 77, 64
1, 288202, Note_off_c, 0, 75, 67
1, 288210, Note_on_c, 0, 74, 67
1, 288226, Note_off_c, 0, 74, 68
1, 288228, Control_c, 0, 64, 79
1, 288244, Control_c, 0, 64, 52
1, 288257, Note_on_c, 0, 48, 72
1, 288258, Control_c, 0, 64, 0
1, 288265, Note_on_c, 0, 74, 89
1, 288332, Control_c, 0, 64, 35
1, 288347, Control_c, 0, 64, 55
1, 288362, Control_c, 0, 64, 65
1, 288376, Control_c, 0, 64, 73
1, 288391, Control_c, 0, 64, 80
1, 288406, Control_c, 0, 64, 90
1, 288409, Note_on_c, 0, 82, 80
1, 288413, Note_on_c, 0, 70, 76
1, 288421, Control_c, 0, 64, 99
1, 288429, Note_on_c, 0, 62, 61
1, 288436, Control_c, 0, 64, 115
1, 288450, Note_off_c, 0, 62, 63
1, 288450, Control_c, 0, 64, 127
1, 288464, Note_off_c, 0, 82, 62
1, 288467, Note_off_c, 0, 70, 63
1, 288537, Note_off_c, 0, 48, 51
1, 288538, Note_on_c, 0, 54, 57
1, 288540, Note_on_c, 0, 81, 77
1, 288550, Note_on_c, 0, 69, 74
1, 288570, Note_off_c, 0, 54, 65
1, 288582, Note_off_c, 0, 81, 59
1, 288586, Poly_aftertouch_c, 0, 57, 127
1, 288587, Note_off_c, 0, 69, 61
1, 288616, Poly_aftertouch_c, 0, 57, 0
1, 288643, Control_c, 0, 64, 91
1, 288665, Control_c, 0, 64, 63
1, 288680, Control_c, 0, 64, 0
1, 288686, Note_on_c, 0, 46, 76
1, 288692, Note_on_c, 0, 79, 85
1, 288701, Note_on_c, 0, 67, 75
1, 288710, Note_off_c, 0, 74, 27
1, 288724, Control_c, 0, 64, 31
1, 288737, Note_off_c, 0, 67, 62
1, 288739, Note_off_c, 0, 46, 57
1, 288739, Control_c, 0, 64, 62
1, 288754, Control_c, 0, 64, 76
1, 288769, Note_off_c, 0, 79, 59
1, 288769, Control_c, 0, 64, 96
1, 288783, Control_c, 0, 64, 127
1, 288831, Note_on_c, 0, 62, 64
1, 288861, Note_off_c, 0, 62, 54
1, 288879, Note_on_c, 0, 73, 67
1, 288916, Note_off_c, 0, 73, 61
1, 288938, Note_on_c, 0, 74, 66
1, 288939, Note_on_c, 0, 55, 42
1, 288966, Note_off_c, 0, 74, 67
1, 288968, Note_on_c, 0, 77, 53
1, 288970, Note_off_c, 0, 55, 50
1, 289014, Note_on_c, 0, 75, 70
1, 289029, Poly_aftertouch_c, 0, 50, 0
1, 289038, Note_off_c, 0, 77, 65
1, 289042, Note_on_c, 0, 74, 71
1, 289051, Note_off_c, 0, 75, 65
1, 289068, Note_off_c, 0, 74, 68
1, 289080, Control_c, 0, 64, 64
1, 289095, Control_c, 0, 64, 0
1, 289104, Note_on_c, 0, 45, 71
1, 289112, Note_on_c, 0, 74, 86
1, 289140, Control_c, 0, 64, 43
1, 289154, Note_off_c, 0, 45, 63
1, 289154, Control_c, 0, 64, 71
1, 289169, Control_c, 0, 64, 96
1, 289184, Control_c, 0, 64, 127
1, 289268, Note_on_c, 0, 86, 91
1, 289273, Note_on_c, 0, 62, 64
1, 289275, Note_on_c, 0, 78, 75
1, 289312, Note_off_c, 0, 62, 62
1, 289324, Note_off_c, 0, 86, 65
1, 289380, Note_on_c, 0, 50, 56
1, 289386, Note_on_c, 0, 57, 40
1, 289406, Note_off_c, 0, 78, 60
1, 289412, Note_off_c, 0, 50, 60
1, 289422, Note_off_c, 0, 57, 54
1, 289425, Note_on_c, 0, 84, 85
1, 289473, Control_c, 0, 64, 107
1, 289488, Control_c, 0, 64, 61
1, 289503, Control_c, 0, 64, 0
1, 289577, Note_on_c, 0, 43, 73
1, 289584, Note_on_c, 0, 79, 81
1, 289585, Note_on_c, 0, 82, 80
1, 289590, Note_off_c, 0, 84, 66
1, 289592, Control_c, 0, 64, 54
1, 289595, Note_off_c, 0, 74, 62
1, 289606, Control_c, 0, 64, 73
1, 289611, Note_off_c, 0, 79, 66
1, 289612, Note_off_c, 0, 82, 66
1, 289614, Note_off_c, 0, 43, 62
1, 289621, Control_c, 0, 64, 84
1, 289636, Control_c, 0, 64, 95
1, 289651, Control_c, 0, 64, 104
1, 289666, Control_c, 0, 64, 124
1, 289680, Control_c, 0, 64, 127
1, 289761, Note_on_c, 0, 62, 66
1, 289792, Note_on_c, 0, 66, 67
1, 289798, Note_off_c, 0, 62, 63
1, 289842, Note_on_c, 0, 67, 62
1, 289877, Note_off_c, 0, 66, 59
1, 289884, Note_on_c, 0, 55, 37
1, 289886, Note_off_c, 0, 67, 64
1, 289888, Note_on_c, 0, 70, 72
1, 289914, Note_off_c, 0, 55, 52
1, 289924, Note_on_c, 0, 68, 70
1, 289965, Note_off_c, 0, 70, 62
1, 289969, Note_on_c, 0, 67, 73
1, 289982, Note_off_c, 0, 68, 62
1, 289992, Control_c, 0, 64, 111
1, 289993, Note_off_c, 0, 67, 67
1, 290007, Control_c, 0, 64, 68
1, 290022, Control_c, 0, 64, 0
1, 290037, Note_on_c, 0, 47, 52
1, 290043, Note_on_c, 0, 67, 77
1, 290063, Note_on_c, 0, 48, 35
1, 290111, Control_c, 0, 64, 42
1, 290126, Control_c, 0, 64, 58
1, 290130, Note_off_c, 0, 48, 0
1, 290141, Control_c, 0, 64, 67
1, 290162, Control_c, 0, 64, 75
1, 290174, Poly_aftertouch_c, 0, 48, 127
1, 290177, Control_c, 0, 64, 84
1, 290192, Control_c, 0, 64, 94
1, 290194, Note_on_c, 0, 71, 44
1, 290200, Note_on_c, 0, 79, 78
1, 290207, Control_c, 0, 64, 101
1, 290214, Note_on_c, 0, 62, 61
1, 290222, Control_c, 0, 64, 110
1, 290224, Note_off_c, 0, 47, 46
1, 290224, Note_off_c, 0, 71, 55
1, 290230, Poly_aftertouch_c, 0, 52, 127
1, 290236, Note_off_c, 0, 62, 64
1, 290236, Control_c, 0, 64, 127
1, 290245, Poly_aftertouch_c, 0, 48, 0
1, 290277, Poly_aftertouch_c, 0, 52, 0
1, 290328, Note_on_c, 0, 55, 57
1, 290335, Note_on_c, 0, 77, 71
1, 290346, Note_off_c, 0, 79, 61
1, 290349, Note_off_c, 0, 55, 63
1, 290429, Control_c, 0, 64, 72
1, 290444, Control_c, 0, 64, 41
1, 290459, Control_c, 0, 64, 0
1, 290462, Note_on_c, 0, 48, 67
1, 290462, Note_off_c, 0, 67, 59
1, 290471, Note_on_c, 0, 75, 76
1, 290482, Note_on_c, 0, 72, 57
1, 290489, Control_c, 0, 64, 47
1, 290500, Note_off_c, 0, 72, 61
1, 290503, Control_c, 0, 64, 68
1, 290504, Note_off_c, 0, 77, 64
1, 290518, Control_c, 0, 64, 83
1, 290520, Note_off_c, 0, 75, 65
1, 290533, Control_c, 0, 64, 109
1, 290547, Control_c, 0, 64, 127
1, 290632, Note_on_c, 0, 63, 61
1, 290633, Note_on_c, 0, 78, 66
1, 290667, Note_off_c, 0, 78, 60
1, 290681, Note_on_c, 0, 79, 70
1, 290682, Note_off_c, 0, 63, 61
1, 290687, Note_off_c, 0, 48, 60
1, 290716, Note_on_c, 0, 55, 38
1, 290733, Note_on_c, 0, 82, 70
1, 290737, Note_off_c, 0, 79, 65
1, 290748, Note_off_c, 0, 55, 49
1, 290756, Note_on_c, 0, 80, 73
1, 290802, Note_off_c, 0, 82, 61
1, 290813, Note_on_c, 0, 79, 64
1, 290819, Note_off_c, 0, 80, 63
1, 290830, Control_c, 0, 64, 74
1, 290834, Note_off_c, 0, 79, 67
1, 290844, Control_c, 0, 64, 41
1, 290859, Note_on_c, 0, 50, 63
1, 290859, Control_c, 0, 64, 0
1, 290879, Note_on_c, 0, 79, 79
1, 290927, Control_c, 0, 64, 47
1, 290942, Control_c, 0, 64, 63
1, 290957, Control_c, 0, 64, 72
1, 290972, Control_c, 0, 64, 82
1, 290986, Control_c, 0, 64, 96
1, 291001, Control_c, 0, 64, 127
1, 291025, Note_on_c, 0, 65, 76
1, 291030, Note_on_c, 0, 91, 85
1, 291035, Note_on_c, 0, 83, 47
1, 291058, Note_off_c, 0, 83, 59
1, 291062, Note_off_c, 0, 65, 58
1, 291097, Note_off_c, 0, 50, 32
1, 291146, Note_on_c, 0, 89, 80
1, 291148, Note_on_c, 0, 59, 57
1, 291151, Note_on_c, 0, 55, 57
1, 291173, Note_off_c, 0, 55, 63
1, 291175, Note_off_c, 0, 59, 60
1, 291178, Note_off_c, 0, 91, 63
1, 291252, Control_c, 0, 64, 94
1, 291267, Control_c, 0, 64, 64
1, 291282, Note_on_c, 0, 51, 67
1, 291282, Control_c, 0, 64, 10
1, 291286, Note_on_c, 0, 87, 84
1, 291294, Note_on_c, 0, 84, 74
1, 291297, Control_c, 0, 64, 0
1, 291312, Control_c, 0, 64, 48
1, 291315, Note_off_c, 0, 79, 63
1, 291315, Note_off_c, 0, 89, 61
1, 291325, Note_off_c, 0, 84, 66
1, 291327, Control_c, 0, 64, 71
1, 291336, Note_off_c, 0, 87, 65
1, 291342, Control_c, 0, 64, 102
1, 291357, Control_c, 0, 64, 127
1, 291357, Note_off_c, 0, 51, 62
1, 291438, Note_on_c, 0, 67, 60
1, 291466, Note_off_c, 0, 67, 54
1, 291478, Note_on_c, 0, 78, 58
1, 291531, Note_off_c, 0, 78, 60
1, 291532, Note_on_c, 0, 80, 45
1, 291537, Note_on_c, 0, 79, 75
1, 291565, Note_off_c, 0, 80, 49
1, 291574, Note_on_c, 0, 60, 35
1, 291586, Note_on_c, 0, 82, 75
1, 291588, Note_off_c, 0, 79, 61
1, 291607, Note_off_c, 0, 60, 51
1, 291617, Note_on_c, 0, 80, 64
1, 291653, Poly_aftertouch_c, 0, 55, 127
1, 291660, Note_off_c, 0, 82, 63
1, 291664, Note_off_c, 0, 80, 60
1, 291676, Note_on_c, 0, 79, 78
1, 291691, Control_c, 0, 64, 92
1, 291697, Poly_aftertouch_c, 0, 55, 0
1, 291700, Note_off_c, 0, 79, 68
1, 291705, Control_c, 0, 64, 57
1, 291720, Control_c, 0, 64, 0
1, 291732, Note_on_c, 0, 53, 65
1, 291740, Note_on_c, 0, 79, 90
1, 291765, Control_c, 0, 64, 33
1, 291780, Control_c, 0, 64, 59
1, 291795, Control_c, 0, 64, 72
1, 291809, Control_c, 0, 64, 83
1, 291824, Control_c, 0, 64, 103
1, 291839, Control_c, 0, 64, 127
1, 291874, Note_on_c, 0, 67, 66
1, 291878, Note_on_c, 0, 87, 79
1, 291881, Note_on_c, 0, 75, 86
1, 291902, Note_off_c, 0, 67, 66
1, 291935, Note_off_c, 0, 75, 63
1, 291948, Note_off_c, 0, 87, 64
1, 291961, Note_off_c, 0, 53, 53
1, 292005, Note_on_c, 0, 86, 86
1, 292010, Note_on_c, 0, 59, 51
1, 292017, Note_on_c, 0, 74, 77
1, 292018, Note_on_c, 0, 55, 34
1, 292036, Note_off_c, 0, 59, 57
1, 292053, Note_off_c, 0, 55, 45
1, 292062, Note_off_c, 0, 86, 62
1, 292063, Note_off_c, 0, 74, 57
1, 292090, Control_c, 0, 64, 92
1, 292099, Note_off_c, 0, 79, 59
1, 292105, Control_c, 0, 64, 64
1, 292120, Control_c, 0, 64, 0
1, 292141, Note_on_c, 0, 51, 69
1, 292147, Note_on_c, 0, 84, 76
1, 292150, Control_c, 0, 64, 15
1, 292156, Note_on_c, 0, 72, 83
1, 292165, Control_c, 0, 64, 57
1, 292171, Note_off_c, 0, 84, 69
1, 292179, Control_c, 0, 64, 76
1, 292185, Note_off_c, 0, 72, 64
1, 292194, Control_c, 0, 64, 105
1, 292209, Control_c, 0, 64, 127
1, 292304, Poly_aftertouch_c, 0, 84, 0
1, 292306, Note_on_c, 0, 63, 65
1, 292337, Note_on_c, 0, 66, 54
1, 292385, Note_on_c, 0, 67, 72
1, 292406, Note_off_c, 0, 63, 62
1, 292408, Note_on_c, 0, 55, 33
1, 292426, Note_on_c, 0, 60, 42
1, 292440, Note_off_c, 0, 51, 57
1, 292443, Note_off_c, 0, 55, 50
1, 292452, Note_off_c, 0, 66, 59
1, 292454, Note_on_c, 0, 70, 70
1, 292454, Note_off_c, 0, 67, 63
1, 292457, Note_off_c, 0, 60, 50
1, 292489, Note_on_c, 0, 68, 66
1, 292523, Note_off_c, 0, 70, 62
1, 292532, Note_on_c, 0, 67, 72
1, 292542, Note_off_c, 0, 68, 64
1, 292543, Control_c, 0, 64, 90
1, 292558, Control_c, 0, 64, 58
1, 292558, Note_off_c, 0, 67, 66
1, 292573, Control_c, 0, 64, 0
1, 292577, Note_on_c, 0, 50, 69
1, 292603, Note_on_c, 0, 67, 84
1, 292618, Control_c, 0, 64, 44
1, 292632, Control_c, 0, 64, 66
1, 292647, Control_c, 0, 64, 78
1, 292662, Control_c, 0, 64, 93
1, 292677, Control_c, 0, 64, 119
1, 292692, Control_c, 0, 64, 127
1, 292739, Note_on_c, 0, 71, 66
1, 292743, Note_on_c, 0, 62, 61
1, 292746, Note_on_c, 0, 79, 83
1, 292776, Note_off_c, 0, 62, 65
1, 292789, Note_off_c, 0, 71, 62
1, 292815, Note_off_c, 0, 50, 61
1, 292826, Note_on_c, 0, 55, 59
1, 292851, Note_off_c, 0, 55, 65
1, 292873, Note_on_c, 0, 77, 77
1, 292901, Note_off_c, 0, 79, 64
1, 292957, Control_c, 0, 64, 74
1, 292972, Control_c, 0, 64, 36
1, 292984, Note_on_c, 0, 48, 71
1, 292987, Control_c, 0, 64, 0
1, 293003, Note_on_c, 0, 75, 88
1, 293013, Note_on_c, 0, 72, 70
1, 293018, Control_c, 0, 64, 57
1, 293033, Note_off_c, 0, 77, 60
1, 293033, Control_c, 0, 64, 94
1, 293035, Note_off_c, 0, 67, 61
1, 293047, Control_c, 0, 64, 127
1, 293054, Note_off_c, 0, 72, 61
1, 293065, Note_off_c, 0, 75, 65
1, 293181, Note_on_c, 0, 60, 60
1, 293202, Note_on_c, 0, 62, 71
1, 293225, Note_off_c, 0, 60, 51
1, 293256, Note_off_c, 0, 62, 58
1, 293273, Note_off_c, 0, 48, 62
1, 293281, Note_on_c, 0, 63, 72
1, 293297, Note_on_c, 0, 51, 41
1, 293303, Note_on_c, 0, 55, 21
1, 293322, Note_on_c, 0, 67, 67
1, 293327, Note_off_c, 0, 51, 50
1, 293333, Note_off_c, 0, 63, 63
1, 293344, Note_off_c, 0, 55, 41
1, 293358, Note_on_c, 0, 65, 65
1, 293363, Note_on_c, 0, 66, 23
1, 293399, Note_off_c, 0, 67, 64
1, 293403, Note_off_c, 0, 66, 52
1, 293405, Note_on_c, 0, 63, 72
1, 293409, Control_c, 0, 64, 83
1, 293411, Note_off_c, 0, 65, 64
1, 293424, Control_c, 0, 64, 65
1, 293429, Note_off_c, 0, 63, 68
1, 293439, Control_c, 0, 64, 0
1, 293443, Note_on_c, 0, 46, 80
1, 293462, Note_on_c, 0, 63, 91
1, 293497, Control_c, 0, 64, 51
1, 293512, Control_c, 0, 64, 77
1, 293527, Control_c, 0, 64, 127
1, 293598, Note_on_c, 0, 61, 76
1, 293613, Note_on_c, 0, 67, 74
1, 293614, Note_on_c, 0, 75, 89
1, 293628, Note_off_c, 0, 61, 67
1, 293685, Note_off_c, 0, 46, 53
1, 293691, Note_off_c, 0, 67, 58
1, 293713, Note_on_c, 0, 51, 52
1, 293735, Note_off_c, 0, 51, 62
1, 293765, Note_on_c, 0, 73, 84
1, 293794, Note_off_c, 0, 75, 64
1, 293841, Note_off_c, 0, 63, 62
1, 293855, Control_c, 0, 64, 65
1, 293869, Control_c, 0, 64, 0
1, 293923, Note_on_c, 0, 44, 92
1, 293933, Note_on_c, 0, 71, 92
1, 293942, Note_on_c, 0, 68, 89
1, 293965, Control_c, 0, 64, 63
1, 293967, Note_off_c, 0, 68, 68
1, 293970, Note_off_c, 0, 73, 64
1, 293975, Note_off_c, 0, 44, 64
1, 293975, Note_off_c, 0, 71, 65
1, 293980, Control_c, 0, 64, 127
1, 294105, Note_on_c, 0, 59, 59
1, 294149, Note_on_c, 0, 74, 73
1, 294187, Note_off_c, 0, 59, 50
1, 294192, Note_off_c, 0, 74, 57
1, 294208, Note_on_c, 0, 56, 46
1, 294224, Note_on_c, 0, 51, 40
1, 294225, Note_on_c, 0, 75, 75
1, 294240, Note_off_c, 0, 56, 51
1, 294254, Note_off_c, 0, 51, 49
1, 294254, Note_off_c, 0, 75, 65
1, 294259, Note_on_c, 0, 78, 66
1, 294304, Note_on_c, 0, 76, 67
1, 294320, Control_c, 0, 64, 97
1, 294335, Control_c, 0, 64, 51
1, 294337, Note_on_c, 0, 75, 64
1, 294341, Note_off_c, 0, 76, 64
1, 294345, Note_off_c, 0, 78, 63
1, 294350, Control_c, 0, 64, 0
1, 294363, Note_off_c, 0, 75, 69
1, 294396, Note_on_c, 0, 43, 76
1, 294401, Note_on_c, 0, 75, 92
1, 294439, Control_c, 0, 64, 66
1, 294445, Note_off_c, 0, 43, 63
1, 294454, Control_c, 0, 64, 92
1, 294469, Control_c, 0, 64, 127
1, 294566, Note_on_c, 0, 87, 85
1, 294579, Note_on_c, 0, 63, 65
1, 294587, Note_on_c, 0, 82, 62
1, 294633, Note_off_c, 0, 63, 53
1, 294666, Note_off_c, 0, 82, 48
1, 294702, Note_on_c, 0, 58, 55
1, 294706, Note_on_c, 0, 51, 53
1, 294708, Note_on_c, 0, 85, 87
1, 294727, Note_off_c, 0, 58, 57
1, 294730, Note_off_c, 0, 51, 63
1, 294737, Note_off_c, 0, 87, 65
1, 294804, Control_c, 0, 64, 92
1, 294819, Control_c, 0, 64, 54
1, 294833, Control_c, 0, 64, 0
1, 294853, Note_on_c, 0, 83, 89
1, 294862, Note_on_c, 0, 80, 80
1, 294862, Note_on_c, 0, 44, 84
1, 294878, Control_c, 0, 64, 62
1, 294892, Note_off_c, 0, 44, 66
1, 294892, Control_c, 0, 64, 101
1, 294907, Control_c, 0, 64, 127
1, 294910, Note_off_c, 0, 85, 60
1, 294935, Note_on_c, 0, 82, 26
1, 294945, Note_off_c, 0, 83, 64
1, 294949, Note_off_c, 0, 80, 59
1, 294973, Note_off_c, 0, 75, 54
1, 294979, Note_off_c, 0, 82, 28
1, 295035, Note_on_c, 0, 63, 65
1, 295036, Note_on_c, 0, 74, 63
1, 295082, Note_off_c, 0, 74, 50
1, 295105, Note_on_c, 0, 75, 73
1, 295114, Note_off_c, 0, 63, 56
1, 295138, Note_off_c, 0, 75, 63
1, 295139, Note_on_c, 0, 56, 56
1, 295150, Note_on_c, 0, 78, 63
1, 295163, Note_on_c, 0, 59, 19
1, 295169, Note_off_c, 0, 56, 64
1, 295175, Note_on_c, 0, 51, 14
1, 295205, Note_off_c, 0, 59, 40
1, 295208, Note_on_c, 0, 76, 61
1, 295215, Note_off_c, 0, 51, 39
1, 295223, Note_off_c, 0, 78, 59
1, 295226, Note_off_c, 0, 76, 63
1, 295233, Control_c, 0, 64, 88
1, 295240, Note_on_c, 0, 75, 15
1, 295248, Control_c, 0, 64, 54
1, 295263, Control_c, 0, 64, 0
1, 295269, Note_off_c, 0, 75, 55
1, 295286, Note_on_c, 0, 46, 75
1, 295296, Note_on_c, 0, 75, 68
1, 295307, Control_c, 0, 64, 21
1, 295322, Control_c, 0, 64, 59
1, 295336, Control_c, 0, 64, 71
1, 295340, Note_off_c, 0, 46, 61
1, 295351, Control_c, 0, 64, 82
1, 295366, Control_c, 0, 64, 101
1, 295381, Control_c, 0, 64, 127
1, 295453, Note_on_c, 0, 83, 86
1, 295454, Note_on_c, 0, 63, 65
1, 295477, Note_on_c, 0, 71, 52
1, 295480, Note_off_c, 0, 63, 65
1, 295480, Note_off_c, 0, 75, 65
1, 295498, Note_off_c, 0, 71, 60
1, 295590, Note_on_c, 0, 61, 54
1, 295593, Note_on_c, 0, 82, 83
1, 295602, Note_on_c, 0, 51, 47
1, 295611, Note_on_c, 0, 55, 21
1, 295612, Note_off_c, 0, 61, 59
1, 295613, Note_on_c, 0, 70, 60
1, 295617, Note_off_c, 0, 83, 65
1, 295636, Note_off_c, 0, 51, 56
1, 295640, Note_off_c, 0, 70, 57
1, 295651, Note_off_c, 0, 55, 42
1, 295715, Control_c, 0, 64, 103
1, 295730, Control_c, 0, 64, 58
1, 295745, Control_c, 0, 64, 0
1, 295754, Note_on_c, 0, 80, 82
1, 295759, Note_on_c, 0, 47, 71
1, 295768, Note_on_c, 0, 75, 66
1, 295774, Note_on_c, 0, 68, 53
1, 295781, Note_off_c, 0, 82, 63
1, 295789, Control_c, 0, 64, 41
1, 295796, Note_off_c, 0, 68, 60
1, 295804, Control_c, 0, 64, 87
1, 295816, Note_off_c, 0, 47, 65
1, 295819, Control_c, 0, 64, 127
1, 295833, Note_off_c, 0, 80, 62
1, 295929, Note_off_c, 0, 75, 33
1, 295941, Note_on_c, 0, 63, 59
1, 295949, Note_on_c, 0, 74, 69
1, 295989, Note_off_c, 0, 63, 62
1, 296002, Note_off_c, 0, 74, 48
1, 296018, Note_on_c, 0, 75, 73
1, 296031, Note_on_c, 0, 51, 47
1, 296032, Note_on_c, 0, 56, 45
1, 296037, Note_on_c, 0, 59, 20
1, 296044, Note_off_c, 0, 75, 67
1, 296058, Note_off_c, 0, 51, 63
1, 296058, Note_on_c, 0, 78, 71
1, 296062, Note_off_c, 0, 56, 51
1, 296077, Note_off_c, 0, 59, 42
1, 296092, Note_on_c, 0, 76, 67
1, 296129, Note_on_c, 0, 75, 63
1, 296129, Control_c, 0, 64, 65
1, 296146, Note_off_c, 0, 76, 64
1, 296146, Note_off_c, 0, 78, 61
1, 296152, Control_c, 0, 64, 0
1, 296165, Note_off_c, 0, 75, 68
1, 296192, Note_on_c, 0, 43, 81
1, 296201, Note_on_c, 0, 75, 95
1, 296211, Control_c, 0, 64, 61
1, 296227, Control_c, 0, 64, 92
1, 296236, Note_off_c, 0, 43, 62
1, 296242, Control_c, 0, 64, 127
1, 296360, Note_on_c, 0, 63, 72
1, 296360, Note_on_c, 0, 87, 94
1, 296374, Note_on_c, 0, 82, 76
1, 296471, Note_off_c, 0, 63, 63
1, 296473, Note_off_c, 0, 82, 60
1, 296484, Note_on_c, 0, 51, 67
1, 296485, Note_on_c, 0, 58, 62
1, 296505, Note_off_c, 0, 58, 62
1, 296509, Note_off_c, 0, 51, 67
1, 296510, Note_on_c, 0, 85, 89
1, 296548, Note_off_c, 0, 87, 63
1, 296612, Control_c, 0, 64, 84
1, 296627, Control_c, 0, 64, 13
1, 296642, Control_c, 0, 64, 0
1, 296657, Note_on_c, 0, 83, 87
1, 296658, Note_on_c, 0, 44, 95
1, 296664, Note_on_c, 0, 80, 83
1, 296686, Control_c, 0, 64, 76
1, 296698, Note_off_c, 0, 44, 62
1, 296701, Control_c, 0, 64, 127
1, 296710, Note_off_c, 0, 85, 59
1, 296724, Note_on_c, 0, 82, 41
1, 296748, Note_off_c, 0, 83, 64
1, 296764, Note_off_c, 0, 80, 59
1, 296771, Note_off_c, 0, 82, 45
1, 296773, Note_off_c, 0, 75, 60
1, 296824, Note_on_c, 0, 63, 79
1, 296830, Note_on_c, 0, 74, 77
1, 296903, Note_off_c, 0, 63, 56
1, 296903, Note_off_c, 0, 74, 47
1, 296908, Note_on_c, 0, 75, 82
1, 296946, Note_on_c, 0, 59, 56
1, 296956, Note_on_c, 0, 56, 55
1, 296956, Note_on_c, 0, 78, 68
1, 296959, Note_on_c, 0, 51, 54
1, 296959, Note_off_c, 0, 75, 65
1, 296967, Note_off_c, 0, 59, 60
1, 296987, Note_off_c, 0, 56, 64
1, 296989, Note_off_c, 0, 51, 66
1, 297000, Note_on_c, 0, 76, 78
1, 297043, Note_off_c, 0, 76, 61
1, 297045, Note_off_c, 0, 78, 62
1, 297065, Control_c, 0, 64, 72
1, 297070, Note_on_c, 0, 75, 73
1, 297080, Control_c, 0, 64, 0
1, 297085, Note_off_c, 0, 75, 70
1, 297120, Note_on_c, 0, 46, 93
1, 297126, Note_on_c, 0, 75, 101
1, 297138, Control_c, 0, 64, 77
1, 297153, Control_c, 0, 64, 127
1, 297185, Note_off_c, 0, 46, 62
1, 297356, Note_on_c, 0, 83, 89
1, 297357, Note_on_c, 0, 63, 80
1, 297360, Note_on_c, 0, 71, 97
1, 297397, Note_off_c, 0, 75, 64
1, 297420, Note_off_c, 0, 63, 63
1, 297427, Note_off_c, 0, 71, 63
1, 297646, Note_on_c, 0, 70, 99
1, 297648, Note_on_c, 0, 82, 97
1, 297651, Note_on_c, 0, 61, 82
1, 297655, Note_on_c, 0, 51, 76
1, 297660, Note_on_c, 0, 55, 68
1, 297676, Note_off_c, 0, 61, 68
1, 297680, Note_off_c, 0, 83, 66
1, 297688, Note_off_c, 0, 55, 65
1, 297723, Note_off_c, 0, 51, 62
1, 297751, Note_off_c, 0, 70, 59
1, 297780, Note_off_c, 0, 82, 57
1, 297917, Control_c, 0, 64, 73
1, 297932, Control_c, 0, 64, 0
1, 298006, Note_on_c, 0, 47, 106
1, 298006, Control_c, 0, 64, 35
1, 298008, Note_on_c, 0, 35, 85
1, 298021, Control_c, 0, 64, 61
1, 298035, Control_c, 0, 64, 96
1, 298040, Note_on_c, 0, 76, 92
1, 298043, Note_on_c, 0, 68, 87
1, 298043, Note_on_c, 0, 80, 93
1, 298050, Control_c, 0, 64, 127
1, 298063, Note_off_c, 0, 35, 64
1, 298076, Note_off_c, 0, 68, 62
1, 298103, Note_off_c, 0, 47, 67
1, 298107, Note_off_c, 0, 76, 63
1, 298126, Note_off_c, 0, 80, 62
1, 298475, Note_on_c, 0, 56, 83
1, 298476, Note_on_c, 0, 64, 88
1, 298618, Note_off_c, 0, 56, 57
1, 298625, Note_on_c, 0, 80, 91
1, 298781, Note_off_c, 0, 64, 33
1, 298796, Note_off_c, 0, 80, 59
1, 298821, Note_on_c, 0, 71, 98
1, 298826, Note_on_c, 0, 59, 81
1, 298833, Note_on_c, 0, 92, 94
1, 298845, Note_off_c, 0, 71, 65
1, 298851, Note_off_c, 0, 59, 67
1, 298971, Poly_aftertouch_c, 0, 59, 127
1, 298992, Poly_aftertouch_c, 0, 59, 0
1, 299055, Note_on_c, 0, 90, 71
1, 299085, Note_off_c, 0, 92, 50
1, 299129, Note_on_c, 0, 88, 75
1, 299173, Note_off_c, 0, 90, 64
1, 299182, Note_off_c, 0, 88, 64
1, 299203, Note_on_c, 0, 64, 78
1, 299208, Note_on_c, 0, 56, 66
1, 299217, Note_on_c, 0, 83, 79
1, 299259, Note_off_c, 0, 83, 65
1, 299270, Note_off_c, 0, 56, 49
1, 299299, Note_on_c, 0, 80, 74
1, 299334, Note_off_c, 0, 64, 0
1, 299334, Note_on_c, 0, 64, 9
1, 299374, Note_off_c, 0, 64, 0
1, 299379, Note_on_c, 0, 71, 107
1, 299387, Note_on_c, 0, 59, 75
1, 299387, Poly_aftertouch_c, 0, 64, 0
1, 299394, Note_on_c, 0, 78, 79
1, 299408, Note_off_c, 0, 71, 67
1, 299412, Note_off_c, 0, 59, 69
1, 299438, Note_off_c, 0, 80, 59
1, 299471, Note_on_c, 0, 76, 79
1, 299488, Poly_aftertouch_c, 0, 69, 0
1, 299508, Note_off_c, 0, 78, 63
1, 299517, Note_off_c, 0, 76, 63
1, 299553, Poly_aftertouch_c, 0, 59, 0
1, 299554, Note_on_c, 0, 71, 68
1, 299587, Note_off_c, 0, 71, 64
1, 299618, Note_on_c, 0, 68, 72
1, 299700, Note_on_c, 0, 66, 79
1, 299766, Note_on_c, 0, 64, 75
1, 299777, Note_off_c, 0, 68, 54
1, 299802, Note_off_c, 0, 66, 62
1, 299828, Note_off_c, 0, 64, 61
1, 299840, Note_on_c, 0, 59, 89
1, 299861, Note_off_c, 0, 59, 71
1, 299946, Note_on_c, 0, 59, 19
1, 299977, Note_off_c, 0, 59, 53
1, 300088, Control_c, 0, 64, 84
1, 300103, Control_c, 0, 64, 42
1, 300118, Control_c, 0, 64, 0
1, 300293, Note_on_c, 0, 47, 86
1, 300296, Note_on_c, 0, 35, 67
1, 300311, Control_c, 0, 64, 43
1, 300312, Note_off_c, 0, 47, 69
1, 300320, Note_off_c, 0, 35, 58
1, 300326, Control_c, 0, 64, 82
1, 300329, Note_on_c, 0, 75, 70
1, 300341, Control_c, 0, 64, 127
1, 300376, Note_on_c, 0, 76, 67
1, 300434, Note_on_c, 0, 78, 76
1, 300435, Note_off_c, 0, 75, 60
1, 300444, Note_off_c, 0, 76, 62
1, 300494, Note_on_c, 0, 80, 75
1, 300529, Note_off_c, 0, 78, 63
1, 300539, Note_off_c, 0, 80, 60
1, 300553, Note_on_c, 0, 81, 71
1, 300615, Note_off_c, 0, 81, 63
1, 300617, Note_on_c, 0, 83, 80
1, 300682, Note_on_c, 0, 57, 70
1, 300683, Note_on_c, 0, 66, 72
1, 300684, Note_on_c, 0, 84, 95
1, 300684, Note_on_c, 0, 63, 73
1, 300694, Note_on_c, 0, 60, 61
1, 300708, Note_off_c, 0, 83, 67
1, 300717, Note_off_c, 0, 66, 61
1, 300725, Note_off_c, 0, 63, 59
1, 300727, Note_off_c, 0, 57, 59
1, 300727, Note_off_c, 0, 60, 58
1, 300730, Note_off_c, 0, 84, 68
1, 300828, Note_on_c, 0, 60, 61
1, 300831, Note_on_c, 0, 63, 71
1, 300831, Note_on_c, 0, 68, 73
1, 300838, Note_on_c, 0, 57, 63
1, 300858, Note_off_c, 0, 68, 68
1, 300860, Note_off_c, 0, 63, 66
1, 300862, Note_off_c, 0, 60, 60
1, 300867, Note_off_c, 0, 57, 65
1, 300943, Note_on_c, 0, 57, 65
1, 300946, Note_on_c, 0, 63, 72
1, 300946, Note_on_c, 0, 66, 84
1, 300952, Note_on_c, 0, 60, 60
1, 300973, Note_off_c, 0, 63, 66
1, 300974, Note_off_c, 0, 66, 65
1, 300982, Note_off_c, 0, 57, 62
1, 300997, Note_off_c, 0, 60, 52
1, 301071, Note_on_c, 0, 63, 72
1, 301074, Note_on_c, 0, 66, 82
1, 301078, Note_on_c, 0, 60, 78
1, 301079, Note_on_c, 0, 57, 69
1, 301084, Note_on_c, 0, 84, 84
1, 301097, Note_off_c, 0, 66, 68
1, 301103, Note_off_c, 0, 63, 68
1, 301104, Note_off_c, 0, 60, 66
1, 301105, Note_off_c, 0, 57, 66
1, 301150, Note_on_c, 0, 83, 83
1, 301185, Note_off_c, 0, 84, 65
1, 301215, Note_on_c, 0, 81, 80
1, 301219, Note_off_c, 0, 83, 66
1, 301267, Note_off_c, 0, 81, 58
1, 301276, Note_on_c, 0, 80, 84
1, 301343, Note_on_c, 0, 78, 84
1, 301384, Note_off_c, 0, 80, 63
1, 301397, Note_on_c, 0, 76, 81
1, 301406, Note_off_c, 0, 78, 63
1, 301459, Note_on_c, 0, 47, 73
1, 301464, Note_on_c, 0, 75, 99
1, 301468, Note_on_c, 0, 35, 71
1, 301475, Note_off_c, 0, 76, 65
1, 301498, Note_off_c, 0, 75, 69
1, 301502, Note_off_c, 0, 47, 65
1, 301511, Note_off_c, 0, 35, 56
1, 301611, Note_on_c, 0, 33, 75
1, 301612, Note_on_c, 0, 45, 66
1, 301639, Note_off_c, 0, 33, 65
1, 301647, Note_off_c, 0, 45, 64
1, 301747, Note_on_c, 0, 36, 68
1, 301748, Note_on_c, 0, 48, 74
1, 301764, Control_c, 0, 64, 82
1, 301778, Note_off_c, 0, 36, 63
1, 301778, Control_c, 0, 64, 0
1, 301779, Note_off_c, 0, 48, 62
1, 301847, Note_on_c, 0, 80, 90
1, 301978, Note_on_c, 0, 47, 89
1, 301981, Note_on_c, 0, 35, 73
1, 301986, Note_on_c, 0, 92, 103
1, 302002, Note_off_c, 0, 47, 72
1, 302002, Control_c, 0, 64, 65
1, 302004, Note_off_c, 0, 35, 62
1, 302016, Control_c, 0, 64, 84
1, 302023, Note_off_c, 0, 80, 63
1, 302031, Control_c, 0, 64, 106
1, 302046, Control_c, 0, 64, 127
1, 302183, Note_on_c, 0, 64, 77
1, 302189, Note_on_c, 0, 56, 75
1, 302224, Note_off_c, 0, 64, 57
1, 302230, Note_off_c, 0, 56, 57
1, 302328, Note_on_c, 0, 64, 80
1, 302331, Note_on_c, 0, 56, 73
1, 302401, Note_off_c, 0, 56, 56
1, 302464, Note_off_c, 0, 64, 0
1, 302506, Poly_aftertouch_c, 0, 64, 0
1, 302515, Note_on_c, 0, 71, 103
1, 302520, Note_on_c, 0, 59, 78
1, 302552, Note_off_c, 0, 71, 66
1, 302556, Note_off_c, 0, 59, 65
1, 302735, Note_on_c, 0, 90, 74
1, 302785, Note_on_c, 0, 64, 84
1, 302794, Note_on_c, 0, 56, 68
1, 302794, Note_on_c, 0, 88, 79
1, 302798, Note_off_c, 0, 92, 33
1, 302807, Note_off_c, 0, 64, 69
1, 302824, Note_off_c, 0, 56, 65
1, 302833, Note_off_c, 0, 90, 65
1, 302842, Note_off_c, 0, 88, 67
1, 302856, Note_on_c, 0, 64, 85
1, 302866, Note_on_c, 0, 56, 84
1, 302866, Note_on_c, 0, 83, 86
1, 302909, Note_off_c, 0, 64, 65
1, 302911, Note_off_c, 0, 56, 61
1, 302920, Note_off_c, 0, 83, 65
1, 302955, Note_on_c, 0, 80, 78
1, 303034, Note_on_c, 0, 71, 104
1, 303038, Note_on_c, 0, 59, 78
1, 303050, Note_on_c, 0, 78, 77
1, 303064, Note_off_c, 0, 59, 68
1, 303067, Note_off_c, 0, 71, 68
1, 303096, Note_on_c, 0, 60, 14
1, 303102, Note_off_c, 0, 80, 52
1, 303121, Note_on_c, 0, 76, 82
1, 303142, Note_off_c, 0, 60, 39
1, 303163, Note_off_c, 0, 78, 63
1, 303169, Note_off_c, 0, 76, 63
1, 303202, Note_on_c, 0, 71, 74
1, 303203, Poly_aftertouch_c, 0, 59, 0
1, 303248, Note_off_c, 0, 71, 63
1, 303278, Note_on_c, 0, 68, 75
1, 303355, Note_on_c, 0, 66, 80
1, 303427, Note_on_c, 0, 64, 75
1, 303452, Note_off_c, 0, 68, 59
1, 303477, Note_off_c, 0, 66, 58
1, 303510, Note_off_c, 0, 64, 60
1, 303523, Note_on_c, 0, 59, 79
1, 303589, Control_c, 0, 67, 9
1, 303603, Control_c, 0, 67, 10
1, 303613, Note_off_c, 0, 59, 65
1, 303641, Control_c, 0, 67, 11
1, 303655, Control_c, 0, 67, 11
1, 303670, Control_c, 0, 67, 13
1, 303685, Control_c, 0, 67, 18
1, 303700, Control_c, 0, 67, 28
1, 303714, Control_c, 0, 67, 42
1, 303729, Control_c, 0, 67, 61
1, 303744, Control_c, 0, 67, 81
1, 303759, Control_c, 0, 67, 103
1, 303774, Control_c, 0, 64, 65
1, 303774, Control_c, 0, 67, 122
1, 303788, Control_c, 0, 64, 0
1, 303788, Control_c, 0, 67, 127
1, 303996, Control_c, 0, 64, 21
1, 304009, Note_on_c, 0, 77, 59
1, 304011, Control_c, 0, 64, 44
1, 304014, Note_on_c, 0, 50, 37
1, 304014, Note_on_c, 0, 38, 43
1, 304026, Control_c, 0, 64, 57
1, 304040, Control_c, 0, 64, 62
1, 304055, Control_c, 0, 64, 66
1, 304064, Note_off_c, 0, 77, 59
1, 304070, Control_c, 0, 64, 71
1, 304074, Note_on_c, 0, 78, 57
1, 304082, Note_off_c, 0, 38, 59
1, 304085, Control_c, 0, 64, 80
1, 304100, Control_c, 0, 64, 89
1, 304114, Control_c, 0, 64, 95
1, 304123, Note_off_c, 0, 50, 59
1, 304126, Note_on_c, 0, 80, 67
1, 304129, Control_c, 0, 64, 97
1, 304132, Note_off_c, 0, 78, 60
1, 304144, Control_c, 0, 64, 98
1, 304158, Note_off_c, 0, 80, 64
1, 304159, Control_c, 0, 64, 98
1, 304174, Control_c, 0, 64, 101
1, 304188, Control_c, 0, 64, 106
1, 304197, Note_on_c, 0, 81, 69
1, 304204, Control_c, 0, 64, 109
1, 304219, Control_c, 0, 64, 109
1, 304255, Note_off_c, 0, 81, 60
1, 304263, Note_on_c, 0, 83, 70
1, 304326, Note_on_c, 0, 85, 66
1, 304334, Note_off_c, 0, 83, 58
1, 304352, Control_c, 0, 64, 110
1, 304403, Note_on_c, 0, 86, 77
1, 304415, Note_off_c, 0, 85, 61
1, 304424, Note_on_c, 0, 66, 50
1, 304426, Note_on_c, 0, 68, 51
1, 304430, Note_off_c, 0, 86, 68
1, 304436, Note_on_c, 0, 59, 45
1, 304461, Note_off_c, 0, 66, 61
1, 304469, Note_off_c, 0, 68, 62
1, 304472, Note_off_c, 0, 59, 59
1, 304508, Control_c, 0, 64, 111
1, 304523, Control_c, 0, 64, 115
1, 304537, Control_c, 0, 64, 122
1, 304552, Control_c, 0, 64, 127
1, 304567, Note_on_c, 0, 66, 58
1, 304575, Note_on_c, 0, 69, 55
1, 304580, Note_on_c, 0, 59, 46
1, 304592, Note_off_c, 0, 66, 64
1, 304598, Note_off_c, 0, 69, 62
1, 304607, Note_off_c, 0, 59, 56
1, 304688, Note_on_c, 0, 66, 63
1, 304711, Note_on_c, 0, 68, 49
1, 304712, Note_on_c, 0, 59, 46
1, 304719, Note_off_c, 0, 66, 65
1, 304731, Note_off_c, 0, 68, 62
1, 304733, Note_off_c, 0, 59, 61
1, 304820, Note_on_c, 0, 59, 50
1, 304830, Note_on_c, 0, 68, 50
1, 304841, Note_on_c, 0, 86, 68
1, 304848, Control_c, 0, 64, 80
1, 304849, Note_on_c, 0, 65, 53
1, 304863, Control_c, 0, 64, 58
1, 304878, Control_c, 0, 64, 30
1, 304893, Control_c, 0, 64, 19
1, 304907, Note_on_c, 0, 85, 72
1, 304908, Control_c, 0, 64, 45
1, 304923, Control_c, 0, 64, 66
1, 304937, Control_c, 0, 64, 81
1, 304937, Control_c, 0, 67, 124
1, 304952, Control_c, 0, 64, 99
1, 304952, Control_c, 0, 67, 122
1, 304962, Note_on_c, 0, 83, 77
1, 304962, Note_off_c, 0, 68, 63
1, 304964, Note_off_c, 0, 65, 61
1, 304965, Note_off_c, 0, 86, 55
1, 304967, Control_c, 0, 64, 127
1, 304967, Control_c, 0, 67, 120
1, 304981, Note_off_c, 0, 59, 65
1, 304982, Control_c, 0, 67, 114
1, 304997, Control_c, 0, 67, 112
1, 304999, Note_off_c, 0, 85, 63
1, 305012, Control_c, 0, 67, 111
1, 305015, Note_off_c, 0, 83, 65
1, 305027, Control_c, 0, 67, 111
1, 305028, Note_on_c, 0, 81, 61
1, 305061, Note_off_c, 0, 81, 62
1, 305072, Control_c, 0, 67, 110
1, 305087, Control_c, 0, 67, 110
1, 305089, Note_on_c, 0, 80, 66
1, 305138, Control_c, 0, 67, 109
1, 305152, Note_on_c, 0, 78, 71
1, 305152, Control_c, 0, 67, 107
1, 305167, Control_c, 0, 67, 106
1, 305182, Control_c, 0, 67, 105
1, 305197, Control_c, 0, 67, 105
1, 305212, Note_off_c, 0, 80, 33
1, 305212, Control_c, 0, 67, 104
1, 305216, Note_off_c, 0, 78, 62
1, 305227, Control_c, 0, 67, 102
1, 305229, Note_on_c, 0, 77, 73
1, 305242, Control_c, 0, 67, 101
1, 305242, Note_on_c, 0, 38, 55
1, 305247, Note_on_c, 0, 50, 58
1, 305257, Control_c, 0, 67, 99
1, 305272, Control_c, 0, 67, 97
1, 305273, Note_off_c, 0, 77, 61
1, 305275, Note_off_c, 0, 50, 66
1, 305281, Note_off_c, 0, 38, 56
1, 305286, Control_c, 0, 67, 96
1, 305301, Control_c, 0, 67, 93
1, 305316, Control_c, 0, 67, 90
1, 305331, Control_c, 0, 67, 87
1, 305346, Control_c, 0, 67, 83
1, 305360, Control_c, 0, 67, 80
1, 305375, Control_c, 0, 67, 78
1, 305380, Note_on_c, 0, 48, 74
1, 305390, Control_c, 0, 67, 77
1, 305405, Control_c, 0, 67, 74
1, 305407, Note_on_c, 0, 36, 33
1, 305409, Note_off_c, 0, 48, 65
1, 305420, Control_c, 0, 67, 70
1, 305434, Control_c, 0, 67, 66
1, 305447, Note_off_c, 0, 36, 46
1, 305449, Control_c, 0, 67, 61
1, 305464, Control_c, 0, 67, 56
1, 305478, Control_c, 0, 67, 53
1, 305493, Control_c, 0, 67, 51
1, 305495, Note_on_c, 0, 49, 77
1, 305498, Note_on_c, 0, 37, 69
1, 305508, Control_c, 0, 67, 49
1, 305523, Control_c, 0, 67, 46
1, 305524, Note_off_c, 0, 37, 65
1, 305524, Note_off_c, 0, 49, 65
1, 305538, Control_c, 0, 67, 42
1, 305552, Control_c, 0, 67, 37
1, 305567, Control_c, 0, 67, 33
1, 305582, Control_c, 0, 67, 32
1, 305597, Control_c, 0, 67, 31
1, 305612, Control_c, 0, 67, 31
1, 305626, Control_c, 0, 67, 30
1, 305631, Note_on_c, 0, 52, 87
1, 305635, Note_on_c, 0, 40, 82
1, 305640, Note_on_c, 0, 79, 76
1, 305641, Control_c, 0, 64, 91
1, 305641, Control_c, 0, 67, 29
1, 305656, Control_c, 0, 64, 63
1, 305656, Control_c, 0, 67, 29
1, 305671, Control_c, 0, 64, 0
1, 305671, Control_c, 0, 67, 28
1, 305686, Control_c, 0, 67, 28
1, 305701, Control_c, 0, 67, 27
1, 305711, Note_on_c, 0, 80, 72
1, 305716, Control_c, 0, 64, 25
1, 305716, Control_c, 0, 67, 27
1, 305722, Note_off_c, 0, 79, 64
1, 305731, Control_c, 0, 64, 53
1, 305731, Control_c, 0, 67, 26
1, 305746, Control_c, 0, 64, 66
1, 305746, Control_c, 0, 67, 25
1, 305760, Control_c, 0, 64, 79
1, 305760, Control_c, 0, 67, 22
1, 305761, Note_off_c, 0, 40, 62
1, 305774, Note_on_c, 0, 82, 79
1, 305775, Control_c, 0, 64, 101
1, 305775, Control_c, 0, 67, 16
1, 305781, Note_off_c, 0, 80, 62
1, 305790, Control_c, 0, 64, 127
1, 305790, Control_c, 0, 67, 9
1, 305802, Note_off_c, 0, 52, 65
1, 305805, Control_c, 0, 67, 0
1, 305828, Note_off_c, 0, 82, 63
1, 305838, Note_on_c, 0, 83, 87
1, 305909, Note_off_c, 0, 83, 61
1, 305913, Note_on_c, 0, 85, 85
1, 305967, Note_on_c, 0, 87, 76
1, 306002, Note_off_c, 0, 85, 61
1, 306020, Note_on_c, 0, 88, 90
1, 306029, Note_on_c, 0, 61, 56
1, 306029, Note_on_c, 0, 68, 66
1, 306032, Note_on_c, 0, 70, 66
1, 306050, Note_off_c, 0, 87, 65
1, 306067, Note_off_c, 0, 88, 68
1, 306068, Note_off_c, 0, 68, 60
1, 306073, Note_off_c, 0, 61, 58
1, 306073, Note_off_c, 0, 70, 57
1, 306183, Note_on_c, 0, 71, 78
1, 306191, Note_on_c, 0, 68, 64
1, 306192, Note_on_c, 0, 61, 59
1, 306212, Note_off_c, 0, 71, 62
1, 306220, Note_off_c, 0, 68, 65
1, 306225, Note_off_c, 0, 61, 64
1, 306310, Note_on_c, 0, 68, 71
1, 306315, Note_on_c, 0, 70, 84
1, 306318, Note_on_c, 0, 61, 74
1, 306363, Note_off_c, 0, 68, 58
1, 306367, Note_off_c, 0, 70, 60
1, 306385, Note_off_c, 0, 61, 60
1, 306419, Control_c, 0, 64, 109
1, 306434, Control_c, 0, 64, 65
1, 306437, Note_on_c, 0, 88, 82
1, 306439, Note_on_c, 0, 70, 99
1, 306447, Note_on_c, 0, 67, 81
1, 306448, Note_on_c, 0, 61, 69
1, 306449, Control_c, 0, 64, 0
1, 306479, Control_c, 0, 64, 19
1, 306493, Control_c, 0, 64, 61
1, 306507, Note_on_c, 0, 87, 90
1, 306508, Control_c, 0, 64, 88
1, 306523, Control_c, 0, 64, 127
1, 306530, Note_off_c, 0, 70, 63
1, 306538, Note_off_c, 0, 67, 63
1, 306567, Note_on_c, 0, 85, 80
1, 306568, Note_off_c, 0, 61, 62
1, 306571, Note_off_c, 0, 88, 61
1, 306605, Note_off_c, 0, 87, 66
1, 306632, Note_on_c, 0, 83, 86
1, 306640, Note_off_c, 0, 85, 65
1, 306696, Note_off_c, 0, 83, 63
1, 306698, Note_on_c, 0, 82, 85
1, 306753, Note_on_c, 0, 80, 87
1, 306805, Note_off_c, 0, 82, 62
1, 306821, Note_on_c, 0, 79, 103
1, 306834, Note_on_c, 0, 52, 82
1, 306837, Note_on_c, 0, 40, 73
1, 306856, Note_off_c, 0, 80, 64
1, 306868, Note_off_c, 0, 52, 64
1, 306878, Note_on_c, 0, 87, 18
1, 306886, Note_off_c, 0, 40, 56
1, 306898, Note_off_c, 0, 87, 0
1, 306940, Poly_aftertouch_c, 0, 87, 0
1, 306983, Note_on_c, 0, 50, 87
1, 306987, Note_on_c, 0, 39, 78
1, 307012, Note_off_c, 0, 50, 66
1, 307021, Note_off_c, 0, 39, 64
1, 307115, Note_on_c, 0, 39, 78
1, 307117, Note_on_c, 0, 51, 88
1, 307140, Note_off_c, 0, 51, 67
1, 307144, Note_off_c, 0, 39, 66
1, 307178, Note_off_c, 0, 79, 57
1, 307197, Control_c, 0, 64, 109
1, 307212, Control_c, 0, 64, 49
1, 307227, Control_c, 0, 64, 0
1, 307260, Note_on_c, 0, 54, 105
1, 307265, Note_on_c, 0, 81, 84
1, 307266, Note_on_c, 0, 42, 82
1, 307278, Note_off_c, 0, 54, 73
1, 307287, Control_c, 0, 64, 63
1, 307289, Note_off_c, 0, 42, 67
1, 307302, Control_c, 0, 64, 127
1, 307330, Note_off_c, 0, 81, 52
1, 307343, Note_on_c, 0, 82, 92
1, 307406, Note_off_c, 0, 82, 64
1, 307428, Poly_aftertouch_c, 0, 42, 127
1, 307436, Note_on_c, 0, 84, 87
1, 307457, Poly_aftertouch_c, 0, 42, 0
1, 307495, Note_on_c, 0, 85, 88
1, 307497, Note_off_c, 0, 84, 63
1, 307540, Note_on_c, 0, 60, 58
1, 307544, Note_on_c, 0, 69, 72
1, 307557, Note_on_c, 0, 87, 84
1, 307560, Note_off_c, 0, 85, 64
1, 307562, Note_off_c, 0, 60, 62
1, 307576, Note_off_c, 0, 69, 65
1, 307606, Note_off_c, 0, 87, 65
1, 307624, Note_on_c, 0, 89, 85
1, 307683, Note_on_c, 0, 75, 97
1, 307685, Note_on_c, 0, 63, 83
1, 307686, Note_on_c, 0, 69, 63
1, 307687, Note_on_c, 0, 90, 94
1, 307698, Note_off_c, 0, 89, 64
1, 307709, Note_off_c, 0, 75, 65
1, 307712, Note_off_c, 0, 69, 69
1, 307718, Note_off_c, 0, 63, 60
1, 307752, Note_on_c, 0, 99, 86
1, 307755, Note_off_c, 0, 90, 66
1, 307817, Note_on_c, 0, 90, 84
1, 307873, Note_off_c, 0, 99, 66
1, 307883, Note_off_c, 0, 90, 65
1, 307888, Note_on_c, 0, 89, 83
1, 307935, Note_off_c, 0, 89, 64
1, 307960, Note_on_c, 0, 60, 59
1, 307964, Note_on_c, 0, 87, 86
1, 308001, Note_off_c, 0, 60, 59
1, 308011, Note_on_c, 0, 69, 26
1, 308044, Note_on_c, 0, 85, 78
1, 308083, Note_off_c, 0, 87, 65
1, 308102, Note_off_c, 0, 85, 63
1, 308103, Note_on_c, 0, 63, 67
1, 308105, Note_on_c, 0, 75, 103
1, 308106, Note_on_c, 0, 84, 89
1, 308146, Note_off_c, 0, 75, 65
1, 308151, Note_off_c, 0, 63, 63
1, 308172, Note_off_c, 0, 69, 35
1, 308185, Note_off_c, 0, 84, 64
1, 308186, Note_on_c, 0, 85, 84
1, 308249, Note_off_c, 0, 85, 64
1, 308262, Note_on_c, 0, 86, 82
1, 308332, Note_off_c, 0, 86, 59
1, 308335, Note_on_c, 0, 87, 84
1, 308398, Note_off_c, 0, 87, 65
1, 308421, Note_on_c, 0, 66, 99
1, 308422, Note_on_c, 0, 88, 85
1, 308431, Note_on_c, 0, 54, 89
1, 308463, Note_off_c, 0, 54, 60
1, 308467, Note_off_c, 0, 66, 64
1, 308497, Note_on_c, 0, 89, 90
1, 308507, Note_off_c, 0, 88, 64
1, 308595, Note_on_c, 0, 66, 97
1, 308599, Note_on_c, 0, 90, 93
1, 308604, Note_on_c, 0, 54, 79
1, 308628, Note_off_c, 0, 89, 60
1, 308640, Note_on_c, 0, 56, 22
1, 308647, Note_off_c, 0, 66, 64
1, 308655, Note_off_c, 0, 54, 60
1, 308673, Note_on_c, 0, 99, 86
1, 308685, Note_off_c, 0, 56, 39
1, 308689, Note_off_c, 0, 90, 65
1, 308762, Note_on_c, 0, 90, 90
1, 308777, Note_on_c, 0, 66, 90
1, 308780, Note_on_c, 0, 54, 81
1, 308819, Note_off_c, 0, 66, 59
1, 308831, Note_off_c, 0, 54, 59
1, 308832, Note_off_c, 0, 99, 66
1, 308848, Note_on_c, 0, 89, 90
1, 308858, Note_off_c, 0, 90, 64
1, 308942, Note_on_c, 0, 87, 87
1, 308956, Note_on_c, 0, 66, 79
1, 308959, Note_off_c, 0, 89, 60
1, 308967, Note_on_c, 0, 54, 56
1, 308985, Note_off_c, 0, 66, 62
1, 308999, Note_off_c, 0, 54, 65
1, 309001, Control_c, 0, 64, 91
1, 309016, Control_c, 0, 64, 47
1, 309029, Note_on_c, 0, 85, 84
1, 309030, Control_c, 0, 64, 0
1, 309032, Note_off_c, 0, 87, 64
1, 309101, Note_off_c, 0, 85, 59
1, 309104, Note_on_c, 0, 53, 59
1, 309142, Note_on_c, 0, 60, 67
1, 309183, Note_on_c, 0, 63, 79
1, 309193, Control_c, 0, 64, 65
1, 309202, Note_off_c, 0, 53, 63
1, 309208, Control_c, 0, 64, 95
1, 309209, Note_on_c, 0, 84, 100
1, 309215, Note_on_c, 0, 69, 94
1, 309223, Control_c, 0, 64, 127
1, 309233, Note_off_c, 0, 60, 64
1, 309234, Note_off_c, 0, 69, 72
1, 309247, Note_off_c, 0, 63, 65
1, 309251, Note_off_c, 0, 84, 67
1, 309469, Note_on_c, 0, 101, 92
1, 309540, Note_on_c, 0, 100, 91
1, 309587, Note_off_c, 0, 101, 65
1, 309599, Note_on_c, 0, 99, 84
1, 309659, Note_on_c, 0, 96, 84
1, 309704, Note_off_c, 0, 100, 64
1, 309723, Note_on_c, 0, 93, 99
1, 309723, Note_off_c, 0, 99, 66
1, 309730, Note_on_c, 0, 89, 83
1, 309735, Note_off_c, 0, 96, 66
1, 309740, Note_off_c, 0, 93, 72
1, 309791, Note_on_c, 0, 88, 76
1, 309805, Note_off_c, 0, 89, 63
1, 309878, Note_on_c, 0, 87, 75
1, 309913, Note_off_c, 0, 88, 66
1, 309925, Note_on_c, 0, 84, 79
1, 309960, Note_off_c, 0, 87, 66
1, 309984, Note_on_c, 0, 81, 72
1, 309988, Note_on_c, 0, 77, 88
1, 309988, Note_off_c, 0, 84, 66
1, 310006, Note_off_c, 0, 81, 68
1, 310063, Note_on_c, 0, 76, 81
1, 310113, Note_off_c, 0, 77, 60
1, 310133, Note_on_c, 0, 75, 76
1, 310188, Note_on_c, 0, 72, 79
1, 310230, Note_off_c, 0, 76, 62
1, 310256, Note_on_c, 0, 69, 92
1, 310256, Note_off_c, 0, 75, 56
1, 310263, Note_on_c, 0, 65, 87
1, 310264, Note_off_c, 0, 72, 59
1, 310275, Note_off_c, 0, 69, 72
1, 310337, Note_on_c, 0, 64, 81
1, 310342, Note_off_c, 0, 65, 64
1, 310425, Poly_aftertouch_c, 0, 69, 0
1, 310452, Note_on_c, 0, 63, 80
1, 310462, Note_off_c, 0, 64, 60
1, 310487, Note_on_c, 0, 60, 74
1, 310536, Note_off_c, 0, 63, 63
1, 310579, Note_on_c, 0, 57, 77
1, 310587, Note_on_c, 0, 53, 87
1, 310601, Note_off_c, 0, 57, 68
1, 310604, Note_off_c, 0, 60, 61
1, 310673, Note_on_c, 0, 52, 87
1, 310722, Poly_aftertouch_c, 0, 57, 127
1, 310730, Note_off_c, 0, 53, 56
1, 310752, Poly_aftertouch_c, 0, 57, 0
1, 310759, Note_on_c, 0, 51, 81
1, 310843, Note_on_c, 0, 48, 82
1, 310877, Note_off_c, 0, 51, 64
1, 310883, Note_off_c, 0, 52, 62
1, 310912, Note_off_c, 0, 48, 65
1, 311039, Note_on_c, 0, 41, 93
1, 311157, Control_c, 0, 64, 106
1, 311171, Control_c, 0, 64, 51
1, 311186, Control_c, 0, 64, 0
1, 311561, Note_on_c, 0, 46, 96
1, 311564, Note_off_c, 0, 41, 60
1, 311567, Note_on_c, 0, 34, 78
1, 311570, Note_on_c, 0, 85, 92
1, 311573, Control_c, 0, 64, 28
1, 311573, Note_on_c, 0, 73, 86
1, 311585, Note_off_c, 0, 46, 68
1, 311588, Control_c, 0, 64, 62
1, 311595, Note_off_c, 0, 34, 63
1, 311602, Control_c, 0, 64, 74
1, 311617, Control_c, 0, 64, 82
1, 311632, Control_c, 0, 64, 91
1, 311647, Control_c, 0, 64, 98
1, 311662, Control_c, 0, 64, 104
1, 311676, Control_c, 0, 64, 111
1, 311691, Control_c, 0, 64, 115
1, 311706, Control_c, 0, 64, 127
1, 311712, Note_off_c, 0, 85, 63
1, 311731, Note_off_c, 0, 73, 56
1, 311942, Note_on_c, 0, 70, 59
1, 311952, Note_on_c, 0, 58, 49
1, 311958, Note_on_c, 0, 76, 77
1, 311983, Note_off_c, 0, 58, 52
1, 311994, Note_off_c, 0, 70, 55
1, 312016, Note_off_c, 0, 76, 55
1, 312029, Note_on_c, 0, 77, 81
1, 312077, Note_on_c, 0, 61, 66
1, 312087, Note_off_c, 0, 77, 64
1, 312096, Note_on_c, 0, 80, 72
1, 312104, Note_off_c, 0, 61, 67
1, 312105, Note_on_c, 0, 65, 8
1, 312133, Note_on_c, 0, 78, 69
1, 312152, Note_off_c, 0, 65, 39
1, 312171, Note_off_c, 0, 80, 62
1, 312183, Note_off_c, 0, 78, 63
1, 312184, Note_on_c, 0, 77, 65
1, 312203, Control_c, 0, 64, 64
1, 312205, Note_off_c, 0, 77, 66
1, 312217, Control_c, 0, 64, 0
1, 312232, Note_on_c, 0, 77, 77
1, 312250, Note_on_c, 0, 56, 86
1, 312259, Note_on_c, 0, 44, 63
1, 312271, Note_on_c, 0, 42, 47
1, 312277, Control_c, 0, 64, 53
1, 312283, Note_off_c, 0, 56, 62
1, 312288, Note_off_c, 0, 44, 63
1, 312292, Control_c, 0, 64, 75
1, 312306, Note_off_c, 0, 42, 34
1, 312307, Note_off_c, 0, 77, 58
1, 312307, Control_c, 0, 64, 88
1, 312321, Control_c, 0, 64, 97
1, 312336, Control_c, 0, 64, 127
1, 312443, Note_on_c, 0, 88, 80
1, 312447, Note_on_c, 0, 76, 84
1, 312490, Note_on_c, 0, 56, 28
1, 312492, Note_on_c, 0, 68, 26
1, 312495, Note_off_c, 0, 76, 63
1, 312519, Note_on_c, 0, 61, 9
1, 312521, Note_off_c, 0, 56, 49
1, 312529, Note_off_c, 0, 68, 49
1, 312573, Note_off_c, 0, 61, 35
1, 312581, Note_off_c, 0, 88, 53
1, 312596, Note_on_c, 0, 60, 54
1, 312599, Note_on_c, 0, 65, 58
1, 312617, Note_on_c, 0, 89, 85
1, 312625, Note_on_c, 0, 77, 81
1, 312627, Note_off_c, 0, 65, 61
1, 312632, Note_off_c, 0, 60, 65
1, 312642, Note_off_c, 0, 89, 67
1, 312648, Note_off_c, 0, 77, 70
1, 312759, Control_c, 0, 64, 94
1, 312774, Control_c, 0, 64, 56
1, 312789, Control_c, 0, 64, 0
1, 312801, Note_on_c, 0, 54, 76
1, 312804, Note_on_c, 0, 42, 79
1, 312818, Note_on_c, 0, 82, 87
1, 312820, Note_on_c, 0, 70, 88
1, 312833, Control_c, 0, 64, 33
1, 312834, Note_off_c, 0, 42, 65
1, 312835, Note_off_c, 0, 54, 65
1, 312848, Control_c, 0, 64, 66
1, 312863, Control_c, 0, 64, 75
1, 312878, Control_c, 0, 64, 79
1, 312890, Note_off_c, 0, 70, 58
1, 312892, Control_c, 0, 64, 88
1, 312896, Note_off_c, 0, 82, 57
1, 312907, Control_c, 0, 64, 113
1, 312922, Control_c, 0, 64, 127
1, 313046, Note_on_c, 0, 72, 71
1, 313049, Note_on_c, 0, 66, 68
1, 313070, Note_on_c, 0, 54, 40
1, 313085, Note_off_c, 0, 72, 57
1, 313097, Note_off_c, 0, 66, 55
1, 313108, Note_off_c, 0, 54, 52
1, 313123, Note_on_c, 0, 73, 65
1, 313143, Note_on_c, 0, 61, 39
1, 313144, Note_on_c, 0, 58, 51
1, 313163, Note_on_c, 0, 77, 62
1, 313163, Note_off_c, 0, 73, 61
1, 313167, Note_off_c, 0, 58, 57
1, 313173, Note_off_c, 0, 61, 53
1, 313212, Note_on_c, 0, 75, 76
1, 313243, Note_off_c, 0, 77, 64
1, 313248, Control_c, 0, 64, 80
1, 313257, Note_on_c, 0, 73, 76
1, 313261, Note_off_c, 0, 75, 66
1, 313263, Control_c, 0, 64, 51
1, 313278, Note_off_c, 0, 73, 71
1, 313278, Control_c, 0, 64, 0
1, 313306, Note_on_c, 0, 53, 79
1, 313309, Note_on_c, 0, 41, 72
1, 313316, Note_on_c, 0, 73, 90
1, 313323, Control_c, 0, 64, 58
1, 313332, Note_off_c, 0, 53, 68
1, 313338, Note_off_c, 0, 41, 65
1, 313338, Control_c, 0, 64, 75
1, 313353, Control_c, 0, 64, 90
1, 313374, Control_c, 0, 64, 109
1, 313389, Control_c, 0, 64, 127
1, 313403, Note_off_c, 0, 73, 61
1, 313476, Note_on_c, 0, 84, 88
1, 313481, Note_on_c, 0, 72, 91
1, 313488, Note_on_c, 0, 53, 28
1, 313489, Note_on_c, 0, 65, 75
1, 313524, Note_off_c, 0, 53, 51
1, 313529, Note_off_c, 0, 72, 62
1, 313553, Note_off_c, 0, 65, 0
1, 313582, Poly_aftertouch_c, 0, 65, 0
1, 313603, Note_off_c, 0, 84, 41
1, 313622, Note_on_c, 0, 56, 59
1, 313628, Note_on_c, 0, 61, 52
1, 313636, Note_on_c, 0, 85, 87
1, 313636, Note_on_c, 0, 73, 90
1, 313650, Note_off_c, 0, 56, 64
1, 313651, Note_off_c, 0, 61, 60
1, 313660, Note_off_c, 0, 73, 65
1, 313669, Note_off_c, 0, 85, 61
1, 313774, Control_c, 0, 64, 78
1, 313790, Control_c, 0, 64, 44
1, 313805, Note_on_c, 0, 39, 83
1, 313805, Control_c, 0, 64, 0
1, 313806, Note_on_c, 0, 51, 86
1, 313825, Note_on_c, 0, 78, 85
1, 313830, Note_on_c, 0, 66, 89
1, 313835, Note_off_c, 0, 51, 66
1, 313835, Control_c, 0, 64, 44
1, 313836, Note_off_c, 0, 39, 67
1, 313850, Control_c, 0, 64, 72
1, 313864, Control_c, 0, 64, 104
1, 313879, Control_c, 0, 64, 127
1, 313897, Note_off_c, 0, 66, 59
1, 313984, Note_off_c, 0, 78, 62
1, 314021, Note_on_c, 0, 63, 72
1, 314032, Note_on_c, 0, 51, 55
1, 314040, Note_on_c, 0, 69, 67
1, 314063, Note_off_c, 0, 51, 48
1, 314066, Note_off_c, 0, 69, 64
1, 314103, Note_on_c, 0, 70, 73
1, 314128, Note_off_c, 0, 63, 63
1, 314148, Note_on_c, 0, 58, 48
1, 314155, Note_on_c, 0, 54, 43
1, 314159, Note_off_c, 0, 70, 60
1, 314166, Note_on_c, 0, 73, 68
1, 314172, Note_off_c, 0, 58, 57
1, 314186, Note_off_c, 0, 54, 54
1, 314202, Note_on_c, 0, 72, 69
1, 314256, Note_off_c, 0, 72, 63
1, 314260, Note_on_c, 0, 70, 74
1, 314262, Note_off_c, 0, 73, 63
1, 314271, Control_c, 0, 64, 85
1, 314282, Note_off_c, 0, 70, 69
1, 314286, Control_c, 0, 64, 50
1, 314301, Control_c, 0, 64, 0
1, 314307, Note_on_c, 0, 37, 81
1, 314307, Note_on_c, 0, 49, 87
1, 314317, Note_on_c, 0, 70, 89
1, 314330, Control_c, 0, 64, 46
1, 314331, Note_off_c, 0, 37, 67
1, 314331, Note_off_c, 0, 49, 69
1, 314345, Control_c, 0, 64, 73
1, 314360, Control_c, 0, 64, 117
1, 314375, Control_c, 0, 64, 127
1, 314418, Note_off_c, 0, 70, 61
1, 314420, Note_on_c, 0, 80, 21
1, 314448, Poly_aftertouch_c, 0, 49, 127
1, 314471, Note_on_c, 0, 81, 89
1, 314475, Note_off_c, 0, 80, 36
1, 314479, Note_on_c, 0, 69, 83
1, 314482, Note_on_c, 0, 61, 80
1, 314518, Note_off_c, 0, 61, 57
1, 314522, Note_off_c, 0, 69, 62
1, 314557, Poly_aftertouch_c, 0, 49, 0
1, 314590, Note_on_c, 0, 58, 66
1, 314594, Note_on_c, 0, 53, 59
1, 314606, Note_off_c, 0, 81, 58
1, 314616, Note_off_c, 0, 58, 66
1, 314624, Note_off_c, 0, 53, 64
1, 314631, Note_on_c, 0, 82, 88
1, 314632, Note_on_c, 0, 70, 85
1, 314654, Note_off_c, 0, 70, 67
1, 314659, Note_off_c, 0, 82, 63
1, 314660, Poly_aftertouch_c, 0, 54, 127
1, 314694, Poly_aftertouch_c, 0, 54, 0
1, 314760, Control_c, 0, 64, 100
1, 314775, Control_c, 0, 64, 60
1, 314784, Note_on_c, 0, 48, 88
1, 314784, Note_on_c, 0, 36, 84
1, 314790, Control_c, 0, 64, 0
1, 314815, Note_off_c, 0, 36, 67
1, 314819, Control_c, 0, 64, 32
1, 314821, Note_on_c, 0, 75, 90
1, 314822, Note_on_c, 0, 63, 89
1, 314827, Note_off_c, 0, 48, 64
1, 314834, Control_c, 0, 64, 70
1, 314849, Control_c, 0, 64, 127
1, 314899, Note_off_c, 0, 63, 61
1, 314977, Note_off_c, 0, 75, 59
1, 315000, Note_on_c, 0, 60, 70
1, 315004, Note_on_c, 0, 48, 69
1, 315006, Note_on_c, 0, 65, 70
1, 315046, Note_off_c, 0, 60, 48
1, 315056, Note_off_c, 0, 65, 52
1, 315064, Note_on_c, 0, 66, 78
1, 315067, Note_off_c, 0, 48, 43
1, 315110, Note_on_c, 0, 51, 49
1, 315120, Note_on_c, 0, 70, 71
1, 315121, Note_off_c, 0, 66, 64
1, 315141, Note_off_c, 0, 51, 50
1, 315165, Note_on_c, 0, 68, 71
1, 315171, Poly_aftertouch_c, 0, 54, 0
1, 315198, Poly_aftertouch_c, 0, 54, 0
1, 315208, Note_off_c, 0, 70, 63
1, 315212, Control_c, 0, 64, 96
1, 315215, Note_off_c, 0, 68, 66
1, 315218, Note_on_c, 0, 66, 70
1, 315227, Control_c, 0, 64, 57
1, 315235, Note_off_c, 0, 66, 67
1, 315242, Control_c, 0, 64, 0
1, 315255, Note_on_c, 0, 46, 95
1, 315261, Note_on_c, 0, 34, 93
1, 315273, Note_on_c, 0, 66, 90
1, 315281, Note_off_c, 0, 46, 68
1, 315285, Note_off_c, 0, 34, 67
1, 315286, Control_c, 0, 64, 43
1, 315301, Control_c, 0, 64, 80
1, 315316, Control_c, 0, 64, 127
1, 315439, Poly_aftertouch_c, 0, 34, 0
1, 315452, Note_on_c, 0, 77, 88
1, 315456, Note_on_c, 0, 58, 81
1, 315456, Note_on_c, 0, 74, 82
1, 315467, Note_on_c, 0, 46, 61
1, 315585, Note_off_c, 0, 77, 61
1, 315587, Note_off_c, 0, 74, 57
1, 315603, Note_off_c, 0, 58, 64
1, 315622, Note_on_c, 0, 51, 64
1, 315629, Note_on_c, 0, 54, 61
1, 315634, Note_off_c, 0, 46, 58
1, 315642, Note_on_c, 0, 78, 87
1, 315643, Note_on_c, 0, 75, 73
1, 315650, Note_off_c, 0, 51, 65
1, 315657, Note_off_c, 0, 54, 66
1, 315674, Note_off_c, 0, 75, 65
1, 315713, Note_off_c, 0, 66, 63
1, 315731, Note_on_c, 0, 45, 72
1, 315732, Note_off_c, 0, 78, 64
1, 315740, Control_c, 0, 64, 84
1, 315755, Control_c, 0, 64, 43
1, 315761, Note_on_c, 0, 48, 67
1, 315769, Control_c, 0, 64, 0
1, 315788, Note_on_c, 0, 53, 80
1, 315810, Note_on_c, 0, 50, 21
1, 315811, Note_off_c, 0, 50, 127
1, 315818, Note_off_c, 0, 45, 63
1, 315829, Control_c, 0, 64, 60
1, 315833, Note_on_c, 0, 77, 86
1, 315833, Note_on_c, 0, 65, 99
1, 315833, Note_off_c, 0, 48, 63
1, 315834, Note_on_c, 0, 75, 65
1, 315835, Note_on_c, 0, 57, 86
1, 315836, Note_on_c, 0, 72, 77
1, 315843, Control_c, 0, 64, 127
1, 315845, Note_off_c, 0, 53, 64
1, 315884, Note_off_c, 0, 77, 67
1, 315884, Note_off_c, 0, 65, 63
1, 315885, Note_off_c, 0, 57, 59
1, 315896, Note_off_c, 0, 72, 62
1, 315910, Note_off_c, 0, 75, 65
1, 316003, Note_on_c, 0, 52, 65
1, 316024, Note_on_c, 0, 64, 78
1, 316062, Note_off_c, 0, 64, 58
1, 316070, Note_off_c, 0, 52, 65
1, 316078, Note_on_c, 0, 65, 73
1, 316083, Note_on_c, 0, 54, 73
1, 316133, Note_on_c, 0, 68, 71
1, 316133, Note_off_c, 0, 65, 64
1, 316140, Note_on_c, 0, 56, 58
1, 316148, Note_on_c, 0, 53, 32
1, 316163, Note_off_c, 0, 56, 60
1, 316164, Note_off_c, 0, 54, 59
1, 316174, Note_on_c, 0, 66, 77
1, 316176, Note_off_c, 0, 53, 64
1, 316212, Note_off_c, 0, 68, 65
1, 316214, Control_c, 0, 64, 72
1, 316217, Note_on_c, 0, 65, 62
1, 316229, Note_off_c, 0, 66, 64
1, 316229, Control_c, 0, 64, 25
1, 316239, Note_off_c, 0, 65, 58
1, 316244, Control_c, 0, 64, 0
1, 316298, Note_on_c, 0, 65, 91
1, 316298, Note_on_c, 0, 34, 83
1, 316298, Note_on_c, 0, 46, 84
1, 316304, Control_c, 0, 64, 52
1, 316307, Note_on_c, 0, 53, 77
1, 316318, Note_off_c, 0, 65, 70
1, 316318, Control_c, 0, 64, 67
1, 316319, Note_off_c, 0, 46, 69
1, 316319, Note_off_c, 0, 34, 68
1, 316324, Note_on_c, 0, 58, 46
1, 316327, Note_off_c, 0, 53, 59
1, 316333, Control_c, 0, 64, 82
1, 316348, Note_off_c, 0, 58, 60
1, 316348, Control_c, 0, 64, 127
1, 316466, Poly_aftertouch_c, 0, 46, 0
1, 316526, Note_on_c, 0, 51, 61
1, 316527, Note_on_c, 0, 63, 68
1, 316533, Note_on_c, 0, 87, 92
1, 316537, Note_on_c, 0, 75, 85
1, 316559, Note_off_c, 0, 63, 66
1, 316637, Note_off_c, 0, 75, 62
1, 316693, Note_on_c, 0, 49, 68
1, 316696, Note_off_c, 0, 51, 64
1, 316711, Note_on_c, 0, 85, 87
1, 316712, Note_on_c, 0, 61, 32
1, 316712, Note_on_c, 0, 73, 87
1, 316715, Note_off_c, 0, 49, 64
1, 316730, Note_off_c, 0, 87, 62
1, 316748, Note_off_c, 0, 61, 49
1, 316748, Note_off_c, 0, 85, 62
1, 316754, Note_off_c, 0, 73, 62
1, 316799, Control_c, 0, 64, 82
1, 316814, Control_c, 0, 64, 47
1, 316829, Control_c, 0, 64, 0
1, 316833, Note_on_c, 0, 41, 73
1, 316860, Note_on_c, 0, 48, 64
1, 316873, Control_c, 0, 64, 18
1, 316888, Control_c, 0, 64, 78
1, 316889, Note_off_c, 0, 41, 64
1, 316893, Note_on_c, 0, 84, 94
1, 316895, Note_on_c, 0, 72, 102
1, 316899, Note_on_c, 0, 81, 81
1, 316900, Note_on_c, 0, 77, 86
1, 316903, Note_on_c, 0, 57, 85
1, 316903, Control_c, 0, 64, 127
1, 316921, Note_off_c, 0, 48, 64
1, 316927, Note_off_c, 0, 84, 65
1, 316927, Note_off_c, 0, 72, 62
1, 316931, Note_off_c, 0, 57, 66
1, 316940, Note_off_c, 0, 81, 62
1, 316944, Note_off_c, 0, 77, 65
1, 317097, Note_on_c, 0, 52, 62
1, 317111, Note_on_c, 0, 64, 73
1, 317140, Note_off_c, 0, 64, 66
1, 317165, Note_off_c, 0, 52, 64
1, 317170, Note_on_c, 0, 65, 79
1, 317175, Note_on_c, 0, 54, 71
1, 317223, Note_off_c, 0, 65, 64
1, 317228, Note_on_c, 0, 68, 70
1, 317236, Note_on_c, 0, 56, 57
1, 317259, Note_off_c, 0, 56, 60
1, 317260, Note_off_c, 0, 54, 62
1, 317284, Note_on_c, 0, 66, 15
1, 317295, Note_off_c, 0, 68, 63
1, 317295, Control_c, 0, 64, 79
1, 317298, Note_on_c, 0, 65, 71
1, 317310, Note_on_c, 0, 67, 13
1, 317310, Control_c, 0, 64, 39
1, 317319, Note_off_c, 0, 65, 65
1, 317320, Note_off_c, 0, 66, 51
1, 317325, Control_c, 0, 64, 0
1, 317327, Poly_aftertouch_c, 0, 53, 0
1, 317342, Note_off_c, 0, 67, 38
1, 317369, Control_c, 0, 64, 51
1, 317374, Note_on_c, 0, 65, 80
1, 317379, Note_on_c, 0, 46, 84
1, 317381, Note_on_c, 0, 34, 83
1, 317384, Control_c, 0, 64, 74
1, 317393, Note_on_c, 0, 53, 70
1, 317399, Control_c, 0, 64, 103
1, 317401, Note_on_c, 0, 58, 56
1, 317401, Note_off_c, 0, 46, 68
1, 317402, Note_off_c, 0, 65, 65
1, 317406, Note_off_c, 0, 34, 66
1, 317413, Note_off_c, 0, 53, 63
1, 317413, Control_c, 0, 64, 127
1, 317424, Note_off_c, 0, 58, 63
1, 317565, Note_on_c, 0, 48, 66
1, 317568, Note_on_c, 0, 84, 94
1, 317585, Note_on_c, 0, 60, 62
1, 317585, Note_on_c, 0, 72, 73
1, 317606, Note_off_c, 0, 48, 62
1, 317612, Note_off_c, 0, 60, 64
1, 317631, Note_off_c, 0, 72, 47
1, 317731, Note_on_c, 0, 58, 64
1, 317733, Note_on_c, 0, 82, 93
1, 317736, Note_on_c, 0, 70, 92
1, 317737, Note_on_c, 0, 46, 63
1, 317750, Note_off_c, 0, 84, 65
1, 317760, Note_off_c, 0, 58, 67
1, 317768, Note_off_c, 0, 46, 64
1, 317780, Note_off_c, 0, 82, 65
1, 317783, Note_off_c, 0, 70, 62
1, 317844, Control_c, 0, 64, 87
1, 317866, Control_c, 0, 64, 55
1, 317869, Note_on_c, 0, 41, 75
1, 317881, Control_c, 0, 64, 0
1, 317896, Note_on_c, 0, 48, 64
1, 317926, Control_c, 0, 64, 51
1, 317932, Note_off_c, 0, 41, 61
1, 317937, Note_on_c, 0, 69, 96
1, 317937, Note_on_c, 0, 81, 93
1, 317940, Note_on_c, 0, 72, 88
1, 317940, Control_c, 0, 64, 83
1, 317943, Note_on_c, 0, 77, 74
1, 317953, Note_on_c, 0, 57, 84
1, 317955, Control_c, 0, 64, 127
1, 317960, Note_off_c, 0, 48, 62
1, 317970, Note_off_c, 0, 81, 64
1, 317972, Note_off_c, 0, 69, 65
1, 317988, Note_off_c, 0, 72, 65
1, 317991, Note_off_c, 0, 57, 60
1, 317992, Note_off_c, 0, 77, 65
1, 318134, Note_on_c, 0, 64, 76
1, 318136, Note_on_c, 0, 52, 65
1, 318171, Note_off_c, 0, 64, 63
1, 318199, Note_on_c, 0, 54, 66
1, 318201, Note_off_c, 0, 52, 64
1, 318203, Note_on_c, 0, 65, 78
1, 318253, Note_off_c, 0, 65, 62
1, 318264, Note_off_c, 0, 54, 54
1, 318268, Note_on_c, 0, 68, 61
1, 318269, Note_on_c, 0, 56, 53
1, 318276, Note_on_c, 0, 66, 67
1, 318281, Note_on_c, 0, 53, 54
1, 318294, Note_off_c, 0, 56, 57
1, 318307, Note_off_c, 0, 53, 54
1, 318331, Note_off_c, 0, 68, 64
1, 318344, Note_off_c, 0, 66, 63
1, 318348, Note_on_c, 0, 65, 48
1, 318355, Control_c, 0, 64, 70
1, 318370, Control_c, 0, 64, 0
1, 318377, Note_off_c, 0, 65, 51
1, 318415, Note_on_c, 0, 65, 88
1, 318421, Note_on_c, 0, 53, 78
1, 318423, Note_on_c, 0, 46, 82
1, 318426, Note_on_c, 0, 34, 83
1, 318429, Control_c, 0, 64, 57
1, 318435, Note_on_c, 0, 58, 51
1, 318438, Note_off_c, 0, 53, 63
1, 318438, Note_off_c, 0, 65, 68
1, 318444, Control_c, 0, 64, 78
1, 318444, Note_off_c, 0, 46, 68
1, 318451, Note_off_c, 0, 34, 66
1, 318458, Note_off_c, 0, 58, 41
1, 318459, Control_c, 0, 64, 127
1, 318462, Note_on_c, 0, 61, 15
1, 318511, Note_off_c, 0, 61, 37
1, 318586, Poly_aftertouch_c, 0, 46, 0
1, 318642, Note_on_c, 0, 63, 76
1, 318644, Note_on_c, 0, 51, 69
1, 318649, Note_on_c, 0, 87, 92
1, 318653, Note_on_c, 0, 75, 82
1, 318674, Note_off_c, 0, 63, 64
1, 318736, Note_off_c, 0, 75, 61
1, 318805, Note_on_c, 0, 49, 80
1, 318810, Note_on_c, 0, 61, 62
1, 318816, Note_off_c, 0, 51, 0
1, 318816, Note_on_c, 0, 51, 3
1, 318817, Note_on_c, 0, 73, 84
1, 318817, Note_off_c, 0, 51, 58
1, 318818, Note_on_c, 0, 85, 84
1, 318828, Note_off_c, 0, 49, 67
1, 318829, Note_off_c, 0, 61, 62
1, 318837, Note_off_c, 0, 87, 65
1, 318857, Note_off_c, 0, 85, 62
1, 318862, Note_off_c, 0, 73, 62
1, 318926, Control_c, 0, 64, 75
1, 318941, Control_c, 0, 64, 0
1, 318957, Note_on_c, 0, 41, 71
1, 318980, Note_on_c, 0, 48, 60
1, 319000, Control_c, 0, 64, 60
1, 319007, Note_on_c, 0, 84, 91
1, 319008, Note_on_c, 0, 72, 93
1, 319009, Note_off_c, 0, 41, 63
1, 319014, Note_on_c, 0, 77, 84
1, 319015, Control_c, 0, 64, 106
1, 319017, Note_on_c, 0, 81, 74
1, 319022, Note_on_c, 0, 57, 84
1, 319030, Control_c, 0, 64, 127
1, 319041, Note_off_c, 0, 48, 64
1, 319045, Note_off_c, 0, 84, 64
1, 319046, Note_off_c, 0, 72, 63
1, 319052, Note_off_c, 0, 57, 65
1, 319054, Note_off_c, 0, 81, 63
1, 319058, Note_off_c, 0, 77, 66
1, 319219, Note_on_c, 0, 64, 71
1, 319224, Note_on_c, 0, 52, 63
1, 319249, Note_off_c, 0, 64, 67
1, 319281, Note_on_c, 0, 65, 72
1, 319281, Note_off_c, 0, 52, 59
1, 319294, Note_on_c, 0, 54, 74
1, 319339, Note_off_c, 0, 65, 63
1, 319340, Note_on_c, 0, 68, 77
1, 319359, Note_on_c, 0, 56, 54
1, 319359, Note_off_c, 0, 54, 55
1, 319377, Note_on_c, 0, 53, 49
1, 319383, Note_off_c, 0, 56, 60
1, 319385, Note_on_c, 0, 66, 61
1, 319405, Note_off_c, 0, 53, 57
1, 319421, Note_on_c, 0, 65, 72
1, 319422, Note_off_c, 0, 68, 64
1, 319429, Note_off_c, 0, 66, 64
1, 319439, Control_c, 0, 64, 76
1, 319447, Note_off_c, 0, 65, 66
1, 319454, Control_c, 0, 64, 37
1, 319469, Control_c, 0, 64, 0
1, 319498, Control_c, 0, 64, 34
1, 319502, Note_on_c, 0, 65, 92
1, 319505, Note_on_c, 0, 46, 88
1, 319511, Note_on_c, 0, 53, 72
1, 319511, Note_on_c, 0, 34, 77
1, 319513, Control_c, 0, 64, 64
1, 319520, Note_on_c, 0, 58, 67
1, 319527, Note_off_c, 0, 46, 68
1, 319527, Note_off_c, 0, 65, 66
1, 319528, Control_c, 0, 64, 89
1, 319529, Note_off_c, 0, 53, 63
1, 319540, Note_off_c, 0, 58, 65
1, 319542, Control_c, 0, 64, 127
1, 319545, Note_off_c, 0, 34, 65
1, 319667, Poly_aftertouch_c, 0, 46, 0
1, 319703, Note_on_c, 0, 48, 66
1, 319708, Note_on_c, 0, 84, 90
1, 319718, Note_on_c, 0, 60, 69
1, 319723, Note_on_c, 0, 72, 75
1, 319744, Note_off_c, 0, 48, 63
1, 319744, Note_off_c, 0, 60, 64
1, 319789, Note_off_c, 0, 72, 60
1, 319836, Note_off_c, 0, 84, 56
1, 319867, Note_on_c, 0, 58, 69
1, 319872, Note_on_c, 0, 46, 69
1, 319873, Note_on_c, 0, 82, 88
1, 319877, Note_on_c, 0, 70, 89
1, 319892, Note_off_c, 0, 58, 68
1, 319900, Note_off_c, 0, 46, 65
1, 319909, Note_off_c, 0, 70, 62
1, 319913, Note_off_c, 0, 82, 64
1, 319920, Note_on_c, 0, 80, 11
1, 319965, Note_off_c, 0, 80, 28
1, 319972, Control_c, 0, 64, 113
1, 319987, Control_c, 0, 64, 64
1, 320001, Control_c, 0, 64, 0
1, 320011, Note_on_c, 0, 41, 71
1, 320036, Note_on_c, 0, 48, 73
1, 320075, Control_c, 0, 64, 62
1, 320076, Note_off_c, 0, 41, 62
1, 320081, Note_on_c, 0, 69, 96
1, 320084, Note_on_c, 0, 81, 92
1, 320087, Note_on_c, 0, 72, 80
1, 320090, Note_on_c, 0, 77, 77
1, 320090, Control_c, 0, 64, 93
1, 320110, Note_on_c, 0, 57, 88
1, 320112, Control_c, 0, 64, 127
1, 320128, Note_off_c, 0, 48, 63
1, 320131, Note_off_c, 0, 81, 65
1, 320133, Note_off_c, 0, 69, 67
1, 320144, Note_off_c, 0, 57, 63
1, 320153, Note_off_c, 0, 72, 63
1, 320158, Note_off_c, 0, 77, 65
1, 320319, Note_on_c, 0, 52, 61
1, 320324, Note_on_c, 0, 64, 71
1, 320353, Note_off_c, 0, 64, 68
1, 320398, Note_on_c, 0, 54, 66
1, 320404, Note_on_c, 0, 65, 69
1, 320410, Note_off_c, 0, 52, 58
1, 320432, Note_off_c, 0, 65, 66
1, 320459, Note_on_c, 0, 68, 73
1, 320488, Note_on_c, 0, 66, 50
1, 320490, Note_off_c, 0, 54, 0
1, 320499, Control_c, 0, 64, 75
1, 320505, Note_on_c, 0, 53, 64
1, 320513, Control_c, 0, 64, 43
1, 320515, Note_off_c, 0, 66, 54
1, 320516, Poly_aftertouch_c, 0, 54, 0
1, 320518, Note_off_c, 0, 68, 61
1, 320523, Note_on_c, 0, 65, 68
1, 320528, Note_off_c, 0, 53, 56
1, 320528, Control_c, 0, 64, 0
1, 320536, Poly_aftertouch_c, 0, 56, 0
1, 320567, Note_off_c, 0, 65, 62
1, 320573, Control_c, 0, 64, 9
1, 320587, Control_c, 0, 64, 62
1, 320588, Note_on_c, 0, 65, 77
1, 320595, Note_on_c, 0, 53, 81
1, 320602, Control_c, 0, 64, 78
1, 320612, Note_off_c, 0, 65, 67
1, 320617, Note_off_c, 0, 53, 67
1, 320617, Control_c, 0, 64, 97
1, 320632, Control_c, 0, 64, 127
1, 320765, Note_on_c, 0, 85, 86
1, 320766, Note_on_c, 0, 73, 82
1, 320769, Note_on_c, 0, 61, 72
1, 320862, Note_off_c, 0, 85, 61
1, 320865, Note_off_c, 0, 73, 57
1, 320868, Note_off_c, 0, 61, 53
1, 320921, Note_on_c, 0, 60, 66
1, 320939, Note_on_c, 0, 84, 87
1, 320942, Note_off_c, 0, 60, 64
1, 320946, Note_on_c, 0, 72, 85
1, 320966, Note_off_c, 0, 84, 66
1, 320991, Note_off_c, 0, 72, 63
1, 321026, Control_c, 0, 64, 77
1, 321041, Control_c, 0, 64, 53
1, 321055, Control_c, 0, 64, 0
1, 321064, Note_on_c, 0, 41, 66
1, 321087, Note_on_c, 0, 48, 70
1, 321115, Control_c, 0, 64, 41
1, 321118, Note_off_c, 0, 41, 60
1, 321129, Control_c, 0, 64, 63
1, 321144, Note_off_c, 0, 48, 64
1, 321144, Control_c, 0, 64, 83
1, 321153, Note_on_c, 0, 69, 85
1, 321154, Note_on_c, 0, 81, 82
1, 321156, Note_on_c, 0, 57, 80
1, 321157, Note_on_c, 0, 72, 79
1, 321159, Control_c, 0, 64, 127
1, 321165, Note_on_c, 0, 77, 67
1, 321170, Note_off_c, 0, 81, 70
1, 321178, Note_off_c, 0, 69, 70
1, 321180, Note_off_c, 0, 57, 66
1, 321184, Note_off_c, 0, 72, 66
1, 321193, Note_off_c, 0, 77, 68
1, 321408, Note_on_c, 0, 47, 50
1, 321426, Note_on_c, 0, 59, 66
1, 321470, Note_off_c, 0, 59, 58
1, 321497, Note_on_c, 0, 60, 73
1, 321513, Note_off_c, 0, 47, 65
1, 321523, Note_on_c, 0, 49, 53
1, 321529, Note_off_c, 0, 60, 60
1, 321568, Note_on_c, 0, 63, 70
1, 321569, Note_off_c, 0, 49, 60
1, 321573, Control_c, 0, 64, 86
1, 321577, Note_on_c, 0, 51, 46
1, 321588, Control_c, 0, 64, 61
1, 321610, Control_c, 0, 64, 0
1, 321612, Note_off_c, 0, 51, 53
1, 321623, Note_on_c, 0, 48, 55
1, 321631, Note_on_c, 0, 61, 57
1, 321639, Note_off_c, 0, 63, 61
1, 321653, Note_off_c, 0, 48, 50
1, 321663, Note_off_c, 0, 61, 65
1, 321667, Note_on_c, 0, 60, 43
1, 321695, Note_off_c, 0, 60, 50
1, 321699, Control_c, 0, 64, 33
1, 321714, Control_c, 0, 64, 63
1, 321723, Note_on_c, 0, 36, 70
1, 321726, Note_on_c, 0, 60, 67
1, 321726, Note_on_c, 0, 48, 69
1, 321729, Control_c, 0, 64, 73
1, 321744, Control_c, 0, 64, 82
1, 321747, Note_off_c, 0, 36, 62
1, 321749, Note_off_c, 0, 48, 61
1, 321759, Control_c, 0, 64, 91
1, 321764, Note_off_c, 0, 60, 61
1, 321774, Control_c, 0, 64, 96
1, 321789, Control_c, 0, 64, 103
1, 321804, Control_c, 0, 64, 111
1, 321819, Control_c, 0, 64, 127
1, 321908, Note_on_c, 0, 70, 69
1, 321918, Note_on_c, 0, 58, 44
1, 321950, Note_off_c, 0, 58, 53
1, 321988, Note_off_c, 0, 70, 62
1, 322042, Note_on_c, 0, 57, 55
1, 322071, Note_off_c, 0, 57, 65
1, 322071, Control_c, 0, 64, 113
1, 322083, Note_on_c, 0, 69, 55
1, 322085, Control_c, 0, 64, 81
1, 322100, Control_c, 0, 64, 62
1, 322115, Control_c, 0, 64, 24
1, 322116, Note_off_c, 0, 69, 56
1, 322129, Control_c, 0, 64, 0
1, 322170, Note_on_c, 0, 41, 65
1, 322174, Control_c, 0, 64, 31
1, 322189, Control_c, 0, 64, 55
1, 322203, Note_on_c, 0, 48, 65
1, 322203, Control_c, 0, 64, 67
1, 322218, Control_c, 0, 64, 78
1, 322219, Note_off_c, 0, 41, 62
1, 322233, Control_c, 0, 64, 93
1, 322243, Note_off_c, 0, 48, 64
1, 322248, Note_on_c, 0, 81, 72
1, 322248, Control_c, 0, 64, 127
1, 322253, Note_on_c, 0, 69, 64
1, 322255, Note_on_c, 0, 72, 70
1, 322259, Note_on_c, 0, 57, 76
1, 322264, Note_off_c, 0, 81, 69
1, 322271, Note_off_c, 0, 69, 67
1, 322272, Note_on_c, 0, 77, 37
1, 322281, Note_off_c, 0, 72, 67
1, 322294, Note_off_c, 0, 57, 62
1, 322302, Note_off_c, 0, 77, 50
1, 322478, Note_on_c, 0, 52, 58
1, 322480, Note_on_c, 0, 64, 69
1, 322510, Note_off_c, 0, 64, 67
1, 322555, Note_on_c, 0, 65, 76
1, 322562, Note_on_c, 0, 54, 62
1, 322567, Control_c, 0, 64, 105
1, 322567, Note_off_c, 0, 52, 58
1, 322582, Control_c, 0, 64, 81
1, 322591, Note_off_c, 0, 65, 59
1, 322597, Control_c, 0, 64, 65
1, 322612, Control_c, 0, 64, 46
1, 322626, Note_on_c, 0, 68, 66
1, 322626, Control_c, 0, 64, 0
1, 322633, Note_off_c, 0, 54, 59
1, 322661, Note_on_c, 0, 66, 61
1, 322669, Note_on_c, 0, 53, 65
1, 322689, Note_off_c, 0, 68, 53
1, 322699, Note_off_c, 0, 53, 64
1, 322709, Note_off_c, 0, 66, 63
1, 322713, Note_on_c, 0, 65, 61
1, 322731, Control_c, 0, 64, 20
1, 322734, Note_off_c, 0, 65, 61
1, 322746, Control_c, 0, 64, 54
1, 322760, Control_c, 0, 64, 66
1, 322764, Note_on_c, 0, 53, 80
1, 322772, Note_on_c, 0, 65, 70
1, 322775, Control_c, 0, 64, 71
1, 322786, Note_off_c, 0, 53, 67
1, 322790, Control_c, 0, 64, 78
1, 322790, Note_off_c, 0, 65, 65
1, 322805, Control_c, 0, 64, 85
1, 322820, Control_c, 0, 64, 94
1, 322834, Control_c, 0, 64, 103
1, 322849, Control_c, 0, 64, 110
1, 322864, Control_c, 0, 64, 114
1, 322894, Control_c, 0, 64, 115
1, 322908, Control_c, 0, 64, 117
1, 322923, Control_c, 0, 64, 127
1, 322929, Poly_aftertouch_c, 0, 53, 0
1, 322946, Note_on_c, 0, 85, 80
1, 322947, Note_on_c, 0, 73, 71
1, 322949, Note_on_c, 0, 61, 65
1, 322984, Note_off_c, 0, 73, 57
1, 322992, Note_off_c, 0, 61, 55
1, 323026, Note_off_c, 0, 85, 59
1, 323107, Note_on_c, 0, 60, 67
1, 323124, Note_on_c, 0, 84, 81
1, 323130, Note_on_c, 0, 72, 82
1, 323130, Note_off_c, 0, 60, 64
1, 323148, Note_off_c, 0, 84, 70
1, 323153, Control_c, 0, 64, 122
1, 323166, Note_off_c, 0, 72, 62
1, 323168, Control_c, 0, 64, 83
1, 323183, Control_c, 0, 64, 64
1, 323198, Control_c, 0, 64, 36
1, 323213, Control_c, 0, 64, 0
1, 323249, Note_on_c, 0, 41, 63
1, 323271, Note_on_c, 0, 48, 64
1, 323272, Control_c, 0, 64, 14
1, 323286, Control_c, 0, 64, 42
1, 323301, Note_off_c, 0, 41, 61
1, 323301, Control_c, 0, 64, 61
1, 323316, Control_c, 0, 64, 71
1, 323322, Note_off_c, 0, 48, 63
1, 323331, Control_c, 0, 64, 80
1, 323331, Control_c, 0, 67, 8
1, 323338, Note_on_c, 0, 69, 79
1, 323338, Note_on_c, 0, 81, 74
1, 323341, Note_on_c, 0, 57, 73
1, 323346, Control_c, 0, 64, 92
1, 323346, Control_c, 0, 67, 8
1, 323347, Note_on_c, 0, 72, 68
1, 323351, Note_on_c, 0, 77, 54
1, 323353, Note_off_c, 0, 81, 70
1, 323360, Control_c, 0, 64, 111
1, 323363, Note_off_c, 0, 69, 69
1, 323367, Note_off_c, 0, 57, 66
1, 323372, Note_off_c, 0, 77, 63
1, 323375, Note_off_c, 0, 72, 66
1, 323376, Control_c, 0, 64, 127
1, 323391, Control_c, 0, 67, 9
1, 323406, Control_c, 0, 67, 9
1, 323421, Control_c, 0, 67, 11
1, 323436, Control_c, 0, 67, 12
1, 323450, Control_c, 0, 67, 13
1, 323465, Control_c, 0, 67, 15
1, 323480, Control_c, 0, 67, 15
1, 323524, Control_c, 0, 67, 15
1, 323539, Control_c, 0, 67, 14
1, 323554, Control_c, 0, 67, 13
1, 323569, Control_c, 0, 67, 12
1, 323583, Control_c, 0, 67, 12
1, 323598, Control_c, 0, 67, 11
1, 323613, Note_on_c, 0, 59, 60
1, 323613, Control_c, 0, 67, 11
1, 323617, Note_on_c, 0, 47, 53
1, 323646, Note_off_c, 0, 59, 64
1, 323658, Control_c, 0, 67, 10
1, 323687, Note_on_c, 0, 60, 67
1, 323705, Note_off_c, 0, 47, 62
1, 323717, Note_on_c, 0, 49, 57
1, 323726, Note_off_c, 0, 60, 57
1, 323732, Control_c, 0, 67, 11
1, 323747, Control_c, 0, 64, 97
1, 323759, Note_on_c, 0, 63, 71
1, 323762, Control_c, 0, 64, 70
1, 323768, Note_off_c, 0, 49, 59
1, 323776, Control_c, 0, 64, 50
1, 323780, Note_on_c, 0, 51, 43
1, 323791, Control_c, 0, 64, 0
1, 323806, Control_c, 0, 67, 11
1, 323808, Note_off_c, 0, 51, 57
1, 323814, Note_on_c, 0, 48, 62
1, 323818, Note_on_c, 0, 61, 57
1, 323830, Note_off_c, 0, 63, 59
1, 323836, Control_c, 0, 67, 12
1, 323837, Note_off_c, 0, 48, 61
1, 323858, Control_c, 0, 67, 12
1, 323859, Note_off_c, 0, 61, 65
1, 323874, Note_on_c, 0, 60, 41
1, 323887, Control_c, 0, 64, 17
1, 323887, Control_c, 0, 67, 13
1, 323902, Control_c, 0, 64, 48
1, 323917, Control_c, 0, 64, 62
1, 323919, Note_off_c, 0, 60, 0
1, 323931, Note_on_c, 0, 36, 72
1, 323932, Control_c, 0, 64, 68
1, 323935, Note_on_c, 0, 48, 59
1, 323935, Note_on_c, 0, 60, 38
1, 323947, Control_c, 0, 64, 73
1, 323954, Note_off_c, 0, 36, 61
1, 323961, Note_off_c, 0, 48, 58
1, 323962, Control_c, 0, 64, 78
1, 323972, Note_off_c, 0, 60, 46
1, 323976, Control_c, 0, 64, 83
1, 323991, Control_c, 0, 64, 87
1, 324006, Control_c, 0, 64, 89
1, 324021, Control_c, 0, 64, 89
1, 324111, Note_on_c, 0, 70, 71
1, 324127, Note_on_c, 0, 58, 54
1, 324139, Control_c, 0, 67, 13
1, 324152, Note_off_c, 0, 58, 60
1, 324204, Note_off_c, 0, 70, 51
1, 324280, Note_on_c, 0, 57, 62
1, 324284, Note_on_c, 0, 69, 66
1, 324303, Control_c, 0, 64, 88
1, 324305, Note_off_c, 0, 57, 64
1, 324318, Control_c, 0, 64, 84
1, 324330, Note_off_c, 0, 69, 57
1, 324332, Control_c, 0, 64, 76
1, 324332, Control_c, 0, 67, 14
1, 324347, Control_c, 0, 64, 66
1, 324362, Control_c, 0, 64, 46
1, 324377, Control_c, 0, 64, 0
1, 324392, Control_c, 0, 67, 14
1, 324427, Note_on_c, 0, 41, 57
1, 324451, Control_c, 0, 67, 15
1, 324481, Control_c, 0, 64, 32
1, 324481, Control_c, 0, 67, 15
1, 324486, Note_on_c, 0, 48, 54
1, 324495, Control_c, 0, 64, 53
1, 324495, Control_c, 0, 67, 16
1, 324507, Note_off_c, 0, 41, 62
1, 324510, Note_on_c, 0, 81, 63
1, 324510, Control_c, 0, 64, 64
1, 324510, Control_c, 0, 67, 16
1, 324514, Note_on_c, 0, 69, 63
1, 324515, Note_on_c, 0, 72, 63
1, 324515, Note_off_c, 0, 48, 65
1, 324523, Note_on_c, 0, 53, 64
1, 324525, Control_c, 0, 64, 68
1, 324525, Note_off_c, 0, 81, 67
1, 324532, Note_off_c, 0, 69, 66
1, 324533, Note_off_c, 0, 72, 64
1, 324540, Control_c, 0, 64, 72
1, 324540, Control_c, 0, 67, 17
1, 324543, Note_off_c, 0, 53, 62
1, 324555, Control_c, 0, 64, 77
1, 324555, Control_c, 0, 67, 19
1, 324570, Control_c, 0, 64, 83
1, 324570, Control_c, 0, 67, 20
1, 324584, Control_c, 0, 64, 88
1, 324606, Control_c, 0, 64, 93
1, 324621, Control_c, 0, 64, 96
1, 324636, Control_c, 0, 64, 97
1, 324650, Control_c, 0, 64, 98
1, 324665, Control_c, 0, 67, 20
1, 324680, Control_c, 0, 64, 98
1, 324695, Control_c, 0, 64, 99
1, 324695, Control_c, 0, 67, 21
1, 324710, Control_c, 0, 64, 101
1, 324710, Control_c, 0, 67, 21
1, 324724, Control_c, 0, 64, 102
1, 324724, Control_c, 0, 67, 23
1, 324739, Control_c, 0, 64, 102
1, 324739, Control_c, 0, 67, 25
1, 324754, Control_c, 0, 67, 26
1, 324769, Control_c, 0, 64, 103
1, 324828, Control_c, 0, 64, 102
1, 324843, Control_c, 0, 64, 99
1, 324847, Note_on_c, 0, 59, 54
1, 324850, Note_on_c, 0, 47, 54
1, 324858, Control_c, 0, 64, 89
1, 324872, Control_c, 0, 64, 74
1, 324883, Note_off_c, 0, 59, 62
1, 324887, Control_c, 0, 64, 62
1, 324896, Note_off_c, 0, 47, 61
1, 324902, Control_c, 0, 64, 38
1, 324905, Note_on_c, 0, 48, 48
1, 324915, Note_on_c, 0, 60, 56
1, 324917, Control_c, 0, 64, 0
1, 324917, Control_c, 0, 67, 26
1, 324931, Control_c, 0, 67, 27
1, 324941, Note_off_c, 0, 48, 58
1, 324955, Note_off_c, 0, 60, 60
1, 324961, Control_c, 0, 67, 27
1, 324991, Note_on_c, 0, 63, 55
1, 325000, Note_on_c, 0, 51, 44
1, 325007, Control_c, 0, 67, 28
1, 325027, Note_off_c, 0, 51, 59
1, 325036, Control_c, 0, 67, 31
1, 325038, Note_on_c, 0, 61, 60
1, 325051, Control_c, 0, 67, 34
1, 325059, Note_off_c, 0, 63, 56
1, 325066, Control_c, 0, 67, 36
1, 325077, Note_off_c, 0, 61, 65
1, 325079, Note_on_c, 0, 60, 61
1, 325081, Control_c, 0, 67, 37
1, 325110, Note_off_c, 0, 60, 63
1, 325125, Control_c, 0, 64, 26
1, 325140, Control_c, 0, 64, 50
1, 325154, Control_c, 0, 64, 62
1, 325166, Note_on_c, 0, 60, 64
1, 325169, Control_c, 0, 64, 68
1, 325180, Note_on_c, 0, 36, 58
1, 325184, Control_c, 0, 64, 70
1, 325192, Note_off_c, 0, 60, 57
1, 325199, Control_c, 0, 64, 72
1, 325199, Control_c, 0, 67, 37
1, 325209, Note_off_c, 0, 36, 54
1, 325214, Control_c, 0, 64, 75
1, 325229, Control_c, 0, 64, 78
1, 325229, Control_c, 0, 67, 36
1, 325244, Control_c, 0, 64, 81
1, 325247, Poly_aftertouch_c, 0, 48, 0
1, 325259, Control_c, 0, 64, 82
1, 325273, Control_c, 0, 64, 83
1, 325273, Control_c, 0, 67, 36
1, 325303, Control_c, 0, 64, 83
1, 325318, Control_c, 0, 64, 84
1, 325333, Control_c, 0, 64, 85
1, 325354, Control_c, 0, 64, 85
1, 325354, Control_c, 0, 67, 36
1, 325360, Note_on_c, 0, 70, 67
1, 325371, Note_on_c, 0, 58, 53
1, 325384, Control_c, 0, 67, 37
1, 325395, Note_off_c, 0, 58, 60
1, 325443, Note_off_c, 0, 70, 57
1, 325536, Note_on_c, 0, 69, 67
1, 325538, Note_on_c, 0, 57, 60
1, 325559, Note_off_c, 0, 57, 62
1, 325562, Control_c, 0, 64, 83
1, 325577, Control_c, 0, 64, 77
1, 325591, Note_off_c, 0, 69, 54
1, 325592, Control_c, 0, 64, 69
1, 325607, Control_c, 0, 64, 59
1, 325607, Control_c, 0, 67, 37
1, 325621, Control_c, 0, 64, 41
1, 325636, Control_c, 0, 64, 0
1, 325677, Note_on_c, 0, 41, 54
1, 325710, Control_c, 0, 64, 17
1, 325725, Control_c, 0, 64, 40
1, 325732, Note_on_c, 0, 48, 47
1, 325740, Control_c, 0, 64, 55
1, 325754, Control_c, 0, 64, 63
1, 325754, Control_c, 0, 67, 38
1, 325766, Note_off_c, 0, 41, 59
1, 325768, Note_off_c, 0, 48, 65
1, 325770, Control_c, 0, 64, 66
1, 325781, Note_on_c, 0, 81, 59
1, 325785, Control_c, 0, 64, 67
1, 325786, Note_on_c, 0, 53, 67
1, 325786, Note_on_c, 0, 69, 55
1, 325793, Note_on_c, 0, 72, 44
1, 325799, Note_off_c, 0, 81, 65
1, 325800, Control_c, 0, 64, 70
1, 325800, Control_c, 0, 67, 38
1, 325810, Note_off_c, 0, 53, 64
1, 325813, Note_off_c, 0, 69, 57
1, 325815, Control_c, 0, 64, 75
1, 325819, Note_off_c, 0, 72, 55
1, 325830, Control_c, 0, 64, 81
1, 325830, Control_c, 0, 67, 39
1, 325844, Control_c, 0, 64, 86
1, 325844, Control_c, 0, 67, 39
1, 325859, Control_c, 0, 64, 89
1, 325874, Control_c, 0, 64, 92
1, 325874, Control_c, 0, 67, 40
1, 325889, Control_c, 0, 64, 94
1, 325904, Control_c, 0, 64, 97
1, 325918, Control_c, 0, 64, 101
1, 325933, Control_c, 0, 64, 105
1, 325933, Control_c, 0, 67, 40
1, 325948, Control_c, 0, 64, 107
1, 325948, Control_c, 0, 67, 41
1, 325962, Control_c, 0, 67, 45
1, 325977, Control_c, 0, 67, 49
1, 325992, Control_c, 0, 64, 107
1, 325992, Control_c, 0, 67, 54
1, 326007, Control_c, 0, 67, 57
1, 326022, Control_c, 0, 67, 58
1, 326037, Control_c, 0, 64, 108
1, 326037, Control_c, 0, 67, 59
1, 326051, Control_c, 0, 67, 59
1, 326118, Control_c, 0, 67, 59
1, 326128, Note_on_c, 0, 47, 49
1, 326133, Control_c, 0, 64, 107
1, 326151, Note_on_c, 0, 59, 52
1, 326163, Control_c, 0, 64, 107
1, 326177, Control_c, 0, 64, 105
1, 326177, Control_c, 0, 67, 58
1, 326189, Note_off_c, 0, 59, 59
1, 326192, Control_c, 0, 64, 99
1, 326195, Note_off_c, 0, 47, 58
1, 326200, Note_on_c, 0, 48, 56
1, 326207, Control_c, 0, 64, 91
1, 326209, Note_on_c, 0, 60, 57
1, 326222, Control_c, 0, 64, 82
1, 326229, Note_off_c, 0, 48, 63
1, 326237, Control_c, 0, 64, 72
1, 326248, Note_off_c, 0, 60, 62
1, 326251, Control_c, 0, 64, 63
1, 326251, Control_c, 0, 67, 59
1, 326266, Control_c, 0, 64, 52
1, 326270, Note_on_c, 0, 63, 54
1, 326281, Control_c, 0, 64, 35
1, 326281, Control_c, 0, 67, 59
1, 326296, Control_c, 0, 64, 0
1, 326302, Note_on_c, 0, 51, 39
1, 326320, Note_on_c, 0, 61, 60
1, 326332, Note_off_c, 0, 51, 49
1, 326337, Note_off_c, 0, 63, 56
1, 326341, Control_c, 0, 67, 60
1, 326348, Note_on_c, 0, 48, 54
1, 326350, Note_on_c, 0, 60, 61
1, 326356, Note_off_c, 0, 61, 65
1, 326370, Control_c, 0, 67, 60
1, 326373, Note_off_c, 0, 48, 59
1, 326376, Note_off_c, 0, 60, 65
1, 326385, Control_c, 0, 67, 61
1, 326400, Control_c, 0, 64, 29
1, 326400, Control_c, 0, 67, 62
1, 326415, Control_c, 0, 64, 49
1, 326415, Control_c, 0, 67, 64
1, 326430, Control_c, 0, 64, 60
1, 326430, Control_c, 0, 67, 64
1, 326440, Note_on_c, 0, 60, 61
1, 326444, Control_c, 0, 64, 64
1, 326450, Note_on_c, 0, 48, 59
1, 326451, Note_on_c, 0, 36, 62
1, 326459, Control_c, 0, 64, 65
1, 326474, Control_c, 0, 64, 66
1, 326475, Note_off_c, 0, 48, 57
1, 326479, Note_off_c, 0, 36, 56
1, 326489, Control_c, 0, 64, 68
1, 326503, Control_c, 0, 64, 71
1, 326518, Control_c, 0, 64, 73
1, 326533, Control_c, 0, 64, 74
1, 326548, Control_c, 0, 64, 75
1, 326554, Note_off_c, 0, 60, 27
1, 326579, Control_c, 0, 64, 76
1, 326579, Control_c, 0, 67, 65
1, 326593, Control_c, 0, 64, 76
1, 326608, Control_c, 0, 64, 77
1, 326623, Control_c, 0, 64, 77
1, 326632, Note_on_c, 0, 70, 58
1, 326636, Note_on_c, 0, 58, 57
1, 326653, Control_c, 0, 67, 65
1, 326659, Note_off_c, 0, 58, 60
1, 326682, Control_c, 0, 67, 66
1, 326760, Note_off_c, 0, 70, 50
1, 326797, Note_on_c, 0, 57, 60
1, 326815, Note_on_c, 0, 69, 63
1, 326825, Note_off_c, 0, 57, 65
1, 326871, Note_off_c, 0, 69, 55
1, 326942, Control_c, 0, 64, 77
1, 326957, Control_c, 0, 64, 76
1, 326972, Control_c, 0, 64, 74
1, 326987, Control_c, 0, 64, 70
1, 327001, Note_on_c, 0, 41, 54
1, 327001, Control_c, 0, 64, 67
1, 327001, Control_c, 0, 67, 66
1, 327016, Control_c, 0, 64, 61
1, 327031, Control_c, 0, 64, 51
1, 327031, Control_c, 0, 67, 67
1, 327046, Control_c, 0, 64, 36
1, 327046, Control_c, 0, 67, 69
1, 327059, Note_on_c, 0, 48, 47
1, 327061, Control_c, 0, 64, 0
1, 327061, Control_c, 0, 67, 72
1, 327075, Control_c, 0, 67, 75
1, 327090, Control_c, 0, 67, 76
1, 327105, Control_c, 0, 67, 77
1, 327119, Control_c, 0, 64, 22
1, 327119, Control_c, 0, 67, 78
1, 327121, Note_on_c, 0, 81, 63
1, 327134, Control_c, 0, 64, 39
1, 327134, Control_c, 0, 67, 79
1, 327140, Note_on_c, 0, 72, 46
1, 327140, Note_on_c, 0, 77, 44
1, 327144, Note_on_c, 0, 53, 55
1, 327147, Note_on_c, 0, 69, 45
1, 327149, Control_c, 0, 64, 53
1, 327149, Control_c, 0, 67, 80
1, 327164, Control_c, 0, 64, 62
1, 327166, Note_off_c, 0, 81, 58
1, 327179, Control_c, 0, 64, 67
1, 327193, Control_c, 0, 64, 70
1, 327193, Control_c, 0, 67, 81
1, 327195, Note_off_c, 0, 77, 45
1, 327199, Note_off_c, 0, 41, 41
1, 327204, Note_off_c, 0, 72, 55
1, 327205, Note_off_c, 0, 69, 49
1, 327207, Note_off_c, 0, 53, 59
1, 327208, Control_c, 0, 64, 72
1, 327223, Control_c, 0, 64, 74
1, 327223, Control_c, 0, 67, 81
1, 327238, Control_c, 0, 64, 77
1, 327253, Control_c, 0, 64, 81
1, 327253, Control_c, 0, 67, 82
1, 327268, Control_c, 0, 64, 85
1, 327268, Control_c, 0, 67, 83
1, 327273, Note_off_c, 0, 48, 33
1, 327283, Control_c, 0, 64, 90
1, 327283, Control_c, 0, 67, 87
1, 327297, Control_c, 0, 64, 95
1, 327297, Control_c, 0, 67, 90
1, 327312, Control_c, 0, 64, 99
1, 327312, Control_c, 0, 67, 92
1, 327327, Control_c, 0, 64, 104
1, 327327, Control_c, 0, 67, 95
1, 327342, Control_c, 0, 64, 109
1, 327342, Control_c, 0, 67, 98
1, 327357, Control_c, 0, 64, 115
1, 327357, Control_c, 0, 67, 101
1, 327372, Control_c, 0, 64, 118
1, 327372, Control_c, 0, 67, 105
1, 327387, Control_c, 0, 64, 120
1, 327387, Control_c, 0, 67, 108
1, 327402, Control_c, 0, 67, 111
1, 327417, Control_c, 0, 64, 122
1, 327417, Control_c, 0, 67, 114
1, 327432, Control_c, 0, 67, 117
1, 327447, Control_c, 0, 64, 124
1, 327447, Control_c, 0, 67, 118
1, 327461, Control_c, 0, 67, 119
1, 327476, Control_c, 0, 67, 121
1, 327491, Control_c, 0, 67, 122
1, 327506, Control_c, 0, 67, 123
1, 327521, Control_c, 0, 67, 124
1, 327536, Control_c, 0, 67, 125
1, 327550, Control_c, 0, 67, 126
1, 327565, Control_c, 0, 67, 126
1, 327602, Control_c, 0, 64, 122
1, 327602, Control_c, 0, 67, 127
1, 327610, Note_on_c, 0, 47, 55
1, 327616, Note_on_c, 0, 35, 47
1, 327616, Control_c, 0, 64, 113
1, 327631, Control_c, 0, 64, 97
1, 327646, Control_c, 0, 64, 82
1, 327654, Note_off_c, 0, 47, 59
1, 327661, Control_c, 0, 64, 68
1, 327667, Note_off_c, 0, 35, 55
1, 327669, Note_on_c, 0, 36, 56
1, 327673, Note_on_c, 0, 48, 65
1, 327676, Control_c, 0, 64, 53
1, 327691, Control_c, 0, 64, 0
1, 327703, Note_off_c, 0, 36, 58
1, 327715, Note_off_c, 0, 48, 57
1, 327744, Note_on_c, 0, 51, 55
1, 327768, Note_on_c, 0, 39, 44
1, 327799, Note_on_c, 0, 49, 61
1, 327801, Note_off_c, 0, 39, 54
1, 327832, Note_off_c, 0, 51, 56
1, 327834, Note_on_c, 0, 37, 45
1, 327844, Note_off_c, 0, 49, 63
1, 327852, Note_on_c, 0, 48, 52
1, 327881, Note_off_c, 0, 48, 62
1, 327884, Note_off_c, 0, 37, 44
1, 327932, Note_on_c, 0, 36, 60
1, 327941, Note_on_c, 0, 48, 52
1, 327960, Note_off_c, 0, 36, 65
1, 328078, Note_off_c, 0, 48, 0
1, 328078, Note_on_c, 0, 48, 3
1, 328146, Note_on_c, 0, 58, 56
1, 328155, Note_on_c, 0, 46, 44
1, 328183, Note_off_c, 0, 46, 52
1, 328198, Note_off_c, 0, 48, 29
1, 328374, Note_on_c, 0, 57, 51
1, 328377, Note_on_c, 0, 45, 46
1, 328397, Note_off_c, 0, 58, 57
1, 328412, Note_off_c, 0, 45, 60
1, 328608, Note_off_c, 0, 57, 51
1, 328622, Note_on_c, 0, 53, 47
1, 328627, Note_on_c, 0, 41, 37
1, 328690, Control_c, 0, 64, 41
1, 328704, Control_c, 0, 64, 55
1, 328719, Control_c, 0, 64, 62
1, 328734, Control_c, 0, 64, 64
1, 328749, Control_c, 0, 64, 65
1, 328764, Control_c, 0, 64, 66
1, 328779, Control_c, 0, 64, 68
1, 328793, Note_off_c, 0, 41, 57
1, 328794, Control_c, 0, 64, 70
1, 328809, Control_c, 0, 64, 72
1, 328824, Control_c, 0, 64, 74
1, 328838, Control_c, 0, 64, 75
1, 328853, Control_c, 0, 64, 76
1, 328868, Control_c, 0, 64, 77
1, 328883, Control_c, 0, 64, 78
1, 328897, Control_c, 0, 64, 78
1, 328937, Note_off_c, 0, 53, 28
1, 329015, Note_on_c, 0, 47, 53
1, 329017, Control_c, 0, 64, 76
1, 329017, Note_on_c, 0, 35, 49
1, 329032, Control_c, 0, 64, 71
1, 329047, Control_c, 0, 64, 64
1, 329061, Control_c, 0, 64, 53
1, 329076, Control_c, 0, 64, 23
1, 329093, Note_off_c, 0, 35, 52
1, 329098, Control_c, 0, 64, 0
1, 329115, Note_on_c, 0, 36, 51
1, 329125, Note_off_c, 0, 47, 58
1, 329130, Note_on_c, 0, 48, 60
1, 329171, Note_off_c, 0, 36, 60
1, 329198, Note_off_c, 0, 48, 52
1, 329226, Note_on_c, 0, 51, 58
1, 329238, Note_on_c, 0, 39, 45
1, 329273, Note_off_c, 0, 39, 57
1, 329297, Note_on_c, 0, 37, 53
1, 329304, Note_on_c, 0, 49, 60
1, 329327, Note_off_c, 0, 51, 52
1, 329337, Note_off_c, 0, 37, 63
1, 329357, Note_off_c, 0, 49, 61
1, 329370, Note_on_c, 0, 48, 58
1, 329402, Note_off_c, 0, 48, 65
1, 329429, Note_on_c, 0, 36, 55
1, 329465, Note_on_c, 0, 48, 53
1, 329478, Note_off_c, 0, 36, 62
1, 329551, Note_off_c, 0, 48, 0
1, 329588, Poly_aftertouch_c, 0, 48, 127
1, 329597, Note_on_c, 0, 48, 9
1, 329665, Note_on_c, 0, 46, 46
1, 329666, Note_on_c, 0, 58, 52
1, 329700, Note_off_c, 0, 46, 54
1, 329906, Note_on_c, 0, 45, 45
1, 329918, Note_on_c, 0, 57, 34
1, 329942, Note_off_c, 0, 45, 57
1, 329947, Note_off_c, 0, 58, 52
1, 329972, Note_off_c, 0, 48, 8
1, 330178, Note_on_c, 0, 53, 39
1, 330192, Note_on_c, 0, 41, 34
1, 330214, Note_off_c, 0, 57, 41
1, 330634, Note_off_c, 0, 41, 57
1, 330642, Note_off_c, 0, 53, 50
1, 331359, Control_c, 0, 64, 22
1, 331375, Control_c, 0, 64, 40
1, 331389, Control_c, 0, 64, 50
1, 331404, Control_c, 0, 64, 55
1, 331419, Control_c, 0, 64, 56
1, 331434, Control_c, 0, 64, 57
1, 331449, Control_c, 0, 64, 58
1, 331464, Control_c, 0, 64, 60
1, 331478, Control_c, 0, 64, 62
1, 331493, Control_c, 0, 64, 63
1, 331507, Control_c, 0, 64, 64
1, 331522, Control_c, 0, 64, 65
1, 331537, Control_c, 0, 64, 66
1, 331567, Control_c, 0, 64, 66
1, 331596, Control_c, 0, 64, 67
1, 331611, Control_c, 0, 64, 67
1, 331626, Control_c, 0, 64, 68
1, 331641, Control_c, 0, 64, 68
1, 331730, Control_c, 0, 64, 69
1, 331745, Control_c, 0, 64, 69
1, 331776, Note_on_c, 0, 47, 48
1, 331779, Note_on_c, 0, 35, 36
1, 331804, Control_c, 0, 64, 70
1, 331849, Control_c, 0, 64, 70
1, 331921, Note_on_c, 0, 36, 43
1, 331924, Note_on_c, 0, 48, 61
1, 331948, Note_off_c, 0, 35, 25
1, 331972, Note_off_c, 0, 47, 18
1, 331974, Note_off_c, 0, 36, 49
1, 331992, Note_off_c, 0, 48, 55
1, 332036, Note_on_c, 0, 51, 56
1, 332052, Note_on_c, 0, 39, 36
1, 332070, Control_c, 0, 64, 70
1, 332097, Note_off_c, 0, 39, 53
1, 332112, Note_on_c, 0, 37, 56
1, 332119, Note_on_c, 0, 49, 63
1, 332122, Control_c, 0, 64, 69
1, 332137, Control_c, 0, 64, 69
1, 332150, Note_off_c, 0, 37, 62
1, 332152, Control_c, 0, 64, 68
1, 332153, Note_off_c, 0, 51, 51
1, 332168, Control_c, 0, 64, 66
1, 332180, Note_off_c, 0, 49, 59
1, 332183, Control_c, 0, 64, 62
1, 332189, Note_on_c, 0, 48, 60
1, 332198, Control_c, 0, 64, 56
1, 332213, Control_c, 0, 64, 42
1, 332220, Note_off_c, 0, 48, 66
1, 332227, Control_c, 0, 64, 15
1, 332242, Control_c, 0, 64, 0
1, 332250, Note_on_c, 0, 36, 18
1, 332283, Note_on_c, 0, 48, 53
1, 332305, Note_off_c, 0, 36, 59
1, 332497, Note_on_c, 0, 46, 42
1, 332500, Note_on_c, 0, 58, 42
1, 332517, Note_off_c, 0, 48, 50
1, 332530, Note_off_c, 0, 46, 54
1, 332738, Note_on_c, 0, 57, 40
1, 332740, Note_on_c, 0, 45, 32
1, 332789, Note_off_c, 0, 45, 45
1, 332800, Note_off_c, 0, 58, 33
1, 333037, Note_on_c, 0, 53, 33
1, 333063, Note_on_c, 0, 41, 33
1, 333091, Note_off_c, 0, 57, 40
1, 333438, Note_off_c, 0, 41, 57
1, 333476, Note_off_c, 0, 53, 41
1, 334630, Note_on_c, 0, 46, 26
1, 334636, Note_on_c, 0, 34, 26
1, 334705, Note_off_c, 0, 46, 0
1, 334741, Poly_aftertouch_c, 0, 46, 127
1, 335216, Note_on_c, 0, 45, 31
1, 335226, Note_on_c, 0, 33, 31
1, 335273, Poly_aftertouch_c, 0, 46, 0
1, 335330, Note_off_c, 0, 34, 40
1, 336157, Note_on_c, 0, 41, 21
1, 336168, Note_on_c, 0, 29, 23
1, 336198, Note_off_c, 0, 33, 35
1, 336229, Note_off_c, 0, 45, 35
1, 337107, Note_off_c, 0, 29, 41
1, 337182, Note_off_c, 0, 41, 57
1, 338601, Note_on_c, 0, 57, 40
1, 338616, Note_on_c, 0, 45, 37
1, 338648, Note_off_c, 0, 57, 56
1, 338658, Note_on_c, 0, 58, 44
1, 338661, Note_off_c, 0, 45, 55
1, 338681, Note_on_c, 0, 46, 33
1, 338707, Note_on_c, 0, 61, 43
1, 338723, Note_off_c, 0, 46, 53
1, 338732, Note_off_c, 0, 58, 51
1, 338738, Note_off_c, 0, 61, 61
1, 338742, Note_on_c, 0, 49, 31
1, 338745, Note_on_c, 0, 65, 58
1, 338773, Note_off_c, 0, 49, 52
1, 338783, Note_on_c, 0, 53, 41
1, 338783, Note_off_c, 0, 65, 63
1, 338813, Note_off_c, 0, 53, 49
1, 339078, Note_on_c, 0, 45, 36
1, 339093, Note_on_c, 0, 57, 36
1, 339138, Note_off_c, 0, 45, 55
1, 339141, Note_off_c, 0, 57, 48
1, 339142, Note_on_c, 0, 46, 37
1, 339145, Note_on_c, 0, 58, 50
1, 339188, Note_on_c, 0, 61, 42
1, 339188, Note_off_c, 0, 46, 53
1, 339201, Note_on_c, 0, 49, 40
1, 339237, Note_on_c, 0, 65, 41
1, 339241, Note_off_c, 0, 49, 58
1, 339247, Note_off_c, 0, 61, 46
1, 339256, Note_on_c, 0, 53, 36
1, 339285, Note_off_c, 0, 58, 33
1, 339833, Control_c, 0, 64, 8
1, 339848, Control_c, 0, 64, 35
1, 339863, Control_c, 0, 64, 48
1, 339877, Control_c, 0, 64, 54
1, 339892, Control_c, 0, 64, 57
1, 339907, Control_c, 0, 64, 59
1, 339922, Control_c, 0, 64, 61
1, 339937, Control_c, 0, 64, 62
1, 339951, Control_c, 0, 64, 64
1, 339966, Control_c, 0, 64, 66
1, 339981, Control_c, 0, 64, 68
1, 339996, Control_c, 0, 64, 70
1, 340011, Control_c, 0, 64, 72
1, 340026, Control_c, 0, 64, 75
1, 340041, Control_c, 0, 64, 77
1, 340056, Control_c, 0, 64, 80
1, 340070, Control_c, 0, 64, 82
1, 340085, Control_c, 0, 64, 86
1, 340094, Note_off_c, 0, 53, 41
1, 340100, Control_c, 0, 64, 90
1, 340115, Control_c, 0, 64, 95
1, 340129, Control_c, 0, 64, 100
1, 340145, Control_c, 0, 64, 107
1, 340160, Control_c, 0, 64, 113
1, 340175, Control_c, 0, 64, 127
1, 340330, Control_c, 0, 67, 101
1, 340345, Control_c, 0, 67, 44
1, 340357, Note_on_c, 0, 46, 109
1, 340359, Control_c, 0, 67, 0
1, 340360, Note_on_c, 0, 34, 90
1, 340378, Note_on_c, 0, 58, 72
1, 340381, Note_off_c, 0, 65, 64
1, 340392, Note_off_c, 0, 34, 66
1, 340394, Note_off_c, 0, 46, 66
1, 340398, Note_off_c, 0, 58, 66
1, 341006, Note_on_c, 0, 70, 93
1, 341006, Note_on_c, 0, 94, 96
1, 341009, Note_on_c, 0, 66, 88
1, 341010, Note_on_c, 0, 82, 94
1, 341016, Note_on_c, 0, 90, 87
1, 341020, Note_on_c, 0, 58, 60
1, 341024, Note_on_c, 0, 63, 73
1, 341025, Note_off_c, 0, 70, 70
1, 341037, Note_on_c, 0, 60, 42
1, 341042, Note_off_c, 0, 58, 60
1, 341048, Note_off_c, 0, 63, 68
1, 341049, Note_off_c, 0, 66, 62
1, 341074, Note_off_c, 0, 60, 54
1, 341567, Note_off_c, 0, 94, 56
1, 341597, Note_off_c, 0, 90, 62
1, 341651, Note_off_c, 0, 82, 61
1, 341915, Note_on_c, 0, 87, 87
1, 341916, Note_on_c, 0, 70, 71
1, 341919, Note_on_c, 0, 66, 67
1, 341920, Note_on_c, 0, 75, 77
1, 341927, Note_on_c, 0, 84, 74
1, 341928, Note_on_c, 0, 58, 52
1, 341928, Note_on_c, 0, 63, 56
1, 341940, Note_on_c, 0, 60, 40
1, 341942, Note_off_c, 0, 70, 67
1, 341948, Note_off_c, 0, 66, 66
1, 341952, Note_off_c, 0, 58, 63
1, 341953, Note_off_c, 0, 63, 64
1, 341955, Note_off_c, 0, 75, 62
1, 341969, Note_off_c, 0, 60, 51
1, 341990, Note_off_c, 0, 84, 55
1, 342019, Note_off_c, 0, 87, 64
1, 342062, Note_on_c, 0, 70, 58
1, 342062, Note_on_c, 0, 66, 69
1, 342064, Note_on_c, 0, 60, 49
1, 342065, Note_on_c, 0, 89, 79
1, 342066, Note_on_c, 0, 63, 58
1, 342077, Note_on_c, 0, 77, 59
1, 342087, Note_off_c, 0, 60, 60
1, 342089, Note_off_c, 0, 66, 66
1, 342089, Note_off_c, 0, 70, 65
1, 342094, Note_off_c, 0, 63, 66
1, 342096, Note_off_c, 0, 77, 65
1, 342116, Poly_aftertouch_c, 0, 58, 0
1, 342123, Control_c, 0, 64, 93
1, 342136, Note_on_c, 0, 90, 91
1, 342138, Control_c, 0, 64, 64
1, 342145, Note_on_c, 0, 66, 71
1, 342148, Note_on_c, 0, 78, 80
1, 342152, Poly_aftertouch_c, 0, 58, 127
1, 342153, Control_c, 0, 64, 16
1, 342160, Note_off_c, 0, 66, 68
1, 342161, Note_off_c, 0, 89, 65
1, 342166, Note_on_c, 0, 63, 40
1, 342166, Note_on_c, 0, 70, 45
1, 342168, Control_c, 0, 64, 0
1, 342171, Note_on_c, 0, 60, 38
1, 342192, Note_off_c, 0, 70, 59
1, 342200, Note_off_c, 0, 63, 50
1, 342202, Note_off_c, 0, 60, 47
1, 342205, Poly_aftertouch_c, 0, 58, 0
1, 342229, Note_off_c, 0, 78, 61
1, 342301, Control_c, 0, 64, 36
1, 342302, Note_on_c, 0, 70, 57
1, 342306, Note_on_c, 0, 89, 90
1, 342306, Note_on_c, 0, 58, 65
1, 342309, Note_on_c, 0, 77, 91
1, 342315, Note_on_c, 0, 61, 62
1, 342315, Control_c, 0, 64, 59
1, 342316, Note_on_c, 0, 65, 53
1, 342316, Note_on_c, 0, 85, 81
1, 342328, Note_off_c, 0, 70, 66
1, 342330, Control_c, 0, 64, 73
1, 342338, Note_off_c, 0, 90, 66
1, 342341, Note_off_c, 0, 65, 63
1, 342342, Note_off_c, 0, 89, 65
1, 342342, Note_off_c, 0, 77, 65
1, 342345, Control_c, 0, 64, 95
1, 342348, Note_off_c, 0, 58, 59
1, 342357, Note_off_c, 0, 61, 63
1, 342360, Control_c, 0, 64, 127
1, 342361, Note_off_c, 0, 85, 63
1, 342405, Control_c, 0, 67, 8
1, 342420, Control_c, 0, 67, 9
1, 342435, Control_c, 0, 67, 11
1, 342449, Control_c, 0, 67, 17
1, 342464, Control_c, 0, 67, 25
1, 342479, Control_c, 0, 67, 36
1, 342494, Control_c, 0, 67, 50
1, 342509, Control_c, 0, 67, 67
1, 342523, Control_c, 0, 67, 84
1, 342539, Control_c, 0, 67, 106
1, 342554, Control_c, 0, 67, 118
1, 342576, Control_c, 0, 67, 119
1, 342591, Control_c, 0, 64, 118
1, 342591, Control_c, 0, 67, 120
1, 342606, Control_c, 0, 64, 67
1, 342606, Control_c, 0, 67, 120
1, 342620, Control_c, 0, 64, 0
1, 342635, Control_c, 0, 67, 120
1, 342650, Control_c, 0, 67, 119
1, 342665, Control_c, 0, 67, 120
1, 342680, Control_c, 0, 67, 121
1, 342688, Note_on_c, 0, 45, 39
1, 342693, Note_on_c, 0, 57, 51
1, 342724, Control_c, 0, 67, 122
1, 342733, Note_off_c, 0, 57, 61
1, 342734, Note_off_c, 0, 45, 60
1, 342739, Control_c, 0, 67, 124
1, 342741, Note_on_c, 0, 46, 41
1, 342745, Note_on_c, 0, 58, 43
1, 342753, Control_c, 0, 67, 127
1, 342778, Note_off_c, 0, 46, 55
1, 342788, Note_on_c, 0, 49, 46
1, 342799, Note_on_c, 0, 61, 23
1, 342817, Note_off_c, 0, 58, 60
1, 342819, Note_on_c, 0, 65, 52
1, 342825, Note_off_c, 0, 49, 63
1, 342834, Note_off_c, 0, 61, 41
1, 342838, Note_on_c, 0, 53, 43
1, 342849, Note_off_c, 0, 65, 65
1, 342866, Note_off_c, 0, 53, 57
1, 343153, Note_on_c, 0, 57, 36
1, 343157, Note_on_c, 0, 45, 25
1, 343189, Note_off_c, 0, 57, 56
1, 343198, Note_on_c, 0, 58, 51
1, 343199, Note_on_c, 0, 46, 39
1, 343231, Note_off_c, 0, 45, 38
1, 343251, Note_off_c, 0, 46, 54
1, 343255, Note_on_c, 0, 61, 41
1, 343257, Note_on_c, 0, 49, 42
1, 343282, Note_off_c, 0, 58, 59
1, 343291, Note_on_c, 0, 65, 47
1, 343297, Note_off_c, 0, 61, 48
1, 343298, Note_off_c, 0, 49, 59
1, 343317, Note_on_c, 0, 53, 41
1, 343843, Control_c, 0, 64, 26
1, 343858, Control_c, 0, 64, 41
1, 343873, Control_c, 0, 64, 52
1, 343887, Control_c, 0, 64, 55
1, 343902, Control_c, 0, 64, 56
1, 343917, Control_c, 0, 64, 56
1, 343932, Control_c, 0, 64, 58
1, 343947, Control_c, 0, 64, 59
1, 343961, Control_c, 0, 64, 61
1, 343976, Control_c, 0, 64, 63
1, 343991, Control_c, 0, 64, 64
1, 343996, Note_off_c, 0, 53, 36
1, 344006, Control_c, 0, 64, 65
1, 344021, Control_c, 0, 64, 67
1, 344035, Control_c, 0, 64, 69
1, 344051, Control_c, 0, 64, 73
1, 344074, Control_c, 0, 64, 80
1, 344089, Control_c, 0, 64, 86
1, 344103, Control_c, 0, 64, 94
1, 344118, Control_c, 0, 64, 106
1, 344133, Control_c, 0, 64, 127
1, 344285, Note_off_c, 0, 65, 32
1, 344297, Control_c, 0, 67, 126
1, 344312, Control_c, 0, 67, 125
1, 344326, Control_c, 0, 67, 124
1, 344341, Control_c, 0, 67, 123
1, 344356, Control_c, 0, 67, 122
1, 344371, Control_c, 0, 67, 121
1, 344386, Control_c, 0, 67, 120
1, 344400, Control_c, 0, 67, 119
1, 344415, Control_c, 0, 67, 118
1, 344430, Control_c, 0, 67, 116
1, 344445, Control_c, 0, 67, 114
1, 344460, Control_c, 0, 67, 111
1, 344474, Control_c, 0, 67, 105
1, 344489, Control_c, 0, 67, 89
1, 344504, Control_c, 0, 67, 54
1, 344518, Control_c, 0, 67, 0
1, 344527, Note_on_c, 0, 44, 101
1, 344533, Note_on_c, 0, 32, 71
1, 344545, Note_on_c, 0, 56, 90
1, 344554, Note_off_c, 0, 32, 66
1, 344564, Note_off_c, 0, 44, 61
1, 344566, Note_off_c, 0, 56, 70
1, 344643, Note_on_c, 0, 56, 19
1, 344686, Note_off_c, 0, 56, 38
1, 345038, Note_on_c, 0, 56, 45
1, 345081, Note_off_c, 0, 56, 61
1, 345104, Note_on_c, 0, 65, 53
1, 345177, Note_on_c, 0, 92, 92
1, 345180, Note_off_c, 0, 65, 44
1, 345180, Note_on_c, 0, 80, 99
1, 345188, Note_on_c, 0, 73, 79
1, 345189, Note_on_c, 0, 89, 87
1, 345211, Note_off_c, 0, 73, 70
1, 345665, Note_off_c, 0, 92, 52
1, 345731, Note_off_c, 0, 89, 59
1, 345804, Note_off_c, 0, 80, 61
1, 346072, Note_on_c, 0, 75, 88
1, 346073, Note_on_c, 0, 87, 87
1, 346077, Note_on_c, 0, 84, 79
1, 346087, Note_on_c, 0, 68, 71
1, 346088, Note_on_c, 0, 56, 70
1, 346094, Note_on_c, 0, 66, 62
1, 346098, Note_on_c, 0, 63, 58
1, 346110, Note_off_c, 0, 68, 68
1, 346114, Note_off_c, 0, 66, 65
1, 346119, Note_off_c, 0, 56, 62
1, 346124, Note_off_c, 0, 63, 65
1, 346125, Note_off_c, 0, 75, 63
1, 346148, Note_off_c, 0, 84, 59
1, 346169, Note_off_c, 0, 87, 63
1, 346199, Note_on_c, 0, 68, 66
1, 346201, Note_on_c, 0, 66, 71
1, 346202, Note_on_c, 0, 56, 63
1, 346207, Note_on_c, 0, 89, 85
1, 346208, Control_c, 0, 64, 89
1, 346210, Note_on_c, 0, 63, 64
1, 346215, Note_on_c, 0, 77, 72
1, 346223, Note_off_c, 0, 68, 68
1, 346223, Control_c, 0, 64, 57
1, 346227, Note_off_c, 0, 66, 66
1, 346235, Note_off_c, 0, 56, 62
1, 346236, Note_off_c, 0, 63, 66
1, 346238, Control_c, 0, 64, 0
1, 346240, Note_off_c, 0, 77, 67
1, 346251, Note_off_c, 0, 89, 65
1, 346286, Note_on_c, 0, 90, 90
1, 346289, Note_on_c, 0, 68, 61
1, 346289, Note_on_c, 0, 66, 70
1, 346291, Note_on_c, 0, 56, 68
1, 346293, Note_on_c, 0, 63, 72
1, 346295, Note_on_c, 0, 78, 83
1, 346319, Note_off_c, 0, 68, 64
1, 346325, Note_off_c, 0, 66, 66
1, 346331, Note_off_c, 0, 63, 65
1, 346338, Note_off_c, 0, 56, 60
1, 346376, Note_off_c, 0, 78, 61
1, 346438, Control_c, 0, 64, 9
1, 346445, Note_on_c, 0, 89, 87
1, 346448, Note_on_c, 0, 61, 70
1, 346448, Note_on_c, 0, 68, 60
1, 346450, Note_on_c, 0, 77, 95
1, 346453, Control_c, 0, 64, 56
1, 346457, Note_on_c, 0, 85, 82
1, 346462, Note_on_c, 0, 65, 57
1, 346468, Control_c, 0, 64, 71
1, 346471, Note_off_c, 0, 77, 71
1, 346471, Note_off_c, 0, 90, 66
1, 346475, Note_off_c, 0, 68, 67
1, 346476, Note_off_c, 0, 89, 64
1, 346478, Note_off_c, 0, 85, 70
1, 346483, Control_c, 0, 64, 94
1, 346483, Note_off_c, 0, 65, 62
1, 346486, Note_off_c, 0, 61, 63
1, 346497, Control_c, 0, 64, 127
1, 346720, Control_c, 0, 64, 77
1, 346735, Control_c, 0, 64, 49
1, 346750, Control_c, 0, 64, 0
1, 346890, Note_on_c, 0, 77, 87
1, 346896, Note_on_c, 0, 69, 85
1, 346897, Note_on_c, 0, 65, 74
1, 346898, Control_c, 0, 64, 48
1, 346902, Note_on_c, 0, 53, 62
1, 346904, Note_on_c, 0, 60, 64
1, 346912, Control_c, 0, 64, 68
1, 346913, Note_off_c, 0, 65, 67
1, 346913, Note_off_c, 0, 77, 69
1, 346916, Note_off_c, 0, 69, 70
1, 346923, Note_off_c, 0, 60, 63
1, 346927, Control_c, 0, 64, 92
1, 346933, Note_off_c, 0, 53, 65
1, 346942, Control_c, 0, 64, 127
1, 346983, Note_on_c, 0, 69, 21
1, 347014, Note_off_c, 0, 69, 50
1, 347362, Note_on_c, 0, 65, 84
1, 347365, Note_on_c, 0, 57, 79
1, 347377, Note_on_c, 0, 53, 81
1, 347381, Note_on_c, 0, 41, 69
1, 347383, Note_on_c, 0, 48, 76
1, 347386, Note_off_c, 0, 57, 67
1, 347390, Note_off_c, 0, 65, 67
1, 347399, Note_off_c, 0, 53, 67
1, 347406, Note_off_c, 0, 48, 67
1, 347410, Note_off_c, 0, 41, 65
1, 347502, Poly_aftertouch_c, 0, 57, 127
1, 347535, Poly_aftertouch_c, 0, 57, 0
1, 347541, Poly_aftertouch_c, 0, 53, 0
1, 347899, Note_on_c, 0, 41, 91
1, 347906, Note_on_c, 0, 29, 75
1, 347966, Control_c, 0, 64, 74
1, 347981, Control_c, 0, 64, 51
1, 347996, Control_c, 0, 64, 0
1, 348819, Control_c, 0, 64, 16
1, 348833, Control_c, 0, 64, 33
1, 348848, Control_c, 0, 64, 45
1, 348863, Control_c, 0, 64, 51
1, 348878, Control_c, 0, 64, 54
1, 348892, Control_c, 0, 64, 56
1, 348907, Control_c, 0, 64, 59
1, 348922, Control_c, 0, 64, 62
1, 348938, Control_c, 0, 64, 65
1, 348953, Control_c, 0, 64, 69
1, 348966, Note_off_c, 0, 29, 37
1, 348968, Note_off_c, 0, 41, 62
1, 348968, Control_c, 0, 64, 74
1, 348982, Control_c, 0, 64, 79
1, 348997, Control_c, 0, 64, 86
1, 349012, Control_c, 0, 64, 92
1, 349027, Control_c, 0, 64, 99
1, 349042, Control_c, 0, 64, 107
1, 349056, Control_c, 0, 64, 124
1, 349071, Control_c, 0, 64, 127
1, 349376, Note_on_c, 0, 42, 88
1, 349380, Note_on_c, 0, 30, 87
1, 349389, Control_c, 0, 64, 92
1, 349403, Note_off_c, 0, 42, 67
1, 349404, Control_c, 0, 64, 72
1, 349409, Note_off_c, 0, 30, 66
1, 349419, Control_c, 0, 64, 59
1, 349434, Control_c, 0, 64, 36
1, 349449, Control_c, 0, 64, 0
1, 350463, Control_c, 0, 67, 8
1, 350478, Control_c, 0, 67, 10
1, 350493, Control_c, 0, 67, 12
1, 350508, Control_c, 0, 67, 15
1, 350523, Control_c, 0, 67, 20
1, 350539, Control_c, 0, 67, 27
1, 350553, Control_c, 0, 67, 41
1, 350568, Control_c, 0, 67, 63
1, 350583, Control_c, 0, 67, 100
1, 350598, Control_c, 0, 67, 127
1, 350880, Note_on_c, 0, 45, 37
1, 350882, Note_on_c, 0, 57, 39
1, 350926, Note_off_c, 0, 57, 53
1, 350932, Note_off_c, 0, 45, 59
1, 350933, Note_on_c, 0, 58, 40
1, 350947, Note_on_c, 0, 46, 42
1, 350984, Note_on_c, 0, 61, 29
1, 350993, Note_off_c, 0, 46, 60
1, 351002, Note_on_c, 0, 49, 34
1, 351012, Note_off_c, 0, 61, 50
1, 351025, Note_on_c, 0, 65, 43
1, 351025, Note_off_c, 0, 58, 57
1, 351030, Note_off_c, 0, 49, 54
1, 351036, Note_on_c, 0, 53, 45
1, 351051, Note_off_c, 0, 65, 57
1, 351065, Note_off_c, 0, 53, 50
1, 351362, Note_on_c, 0, 45, 34
1, 351367, Note_on_c, 0, 57, 29
1, 351404, Note_off_c, 0, 57, 54
1, 351414, Note_on_c, 0, 58, 49
1, 351427, Note_on_c, 0, 46, 39
1, 351430, Note_off_c, 0, 45, 52
1, 351473, Note_on_c, 0, 61, 40
1, 351476, Note_off_c, 0, 46, 57
1, 351488, Note_on_c, 0, 49, 40
1, 351505, Note_off_c, 0, 58, 58
1, 351505, Note_off_c, 0, 61, 55
1, 351510, Note_on_c, 0, 65, 51
1, 351522, Note_off_c, 0, 49, 57
1, 351532, Note_on_c, 0, 53, 41
1, 352081, Control_c, 0, 64, 29
1, 352096, Control_c, 0, 64, 45
1, 352110, Control_c, 0, 64, 56
1, 352125, Control_c, 0, 64, 59
1, 352140, Control_c, 0, 64, 61
1, 352155, Control_c, 0, 64, 62
1, 352170, Control_c, 0, 64, 64
1, 352185, Control_c, 0, 64, 67
1, 352200, Control_c, 0, 64, 70
1, 352215, Control_c, 0, 64, 74
1, 352230, Control_c, 0, 64, 80
1, 352230, Control_c, 0, 67, 127
1, 352239, Note_off_c, 0, 53, 54
1, 352245, Control_c, 0, 64, 85
1, 352245, Control_c, 0, 67, 125
1, 352260, Control_c, 0, 64, 91
1, 352260, Control_c, 0, 67, 124
1, 352274, Control_c, 0, 64, 100
1, 352274, Control_c, 0, 67, 123
1, 352287, Control_c, 0, 64, 119
1, 352287, Control_c, 0, 67, 123
1, 352310, Control_c, 0, 64, 127
1, 352310, Control_c, 0, 67, 122
1, 352325, Control_c, 0, 67, 121
1, 352339, Control_c, 0, 67, 120
1, 352354, Control_c, 0, 67, 119
1, 352369, Control_c, 0, 67, 117
1, 352384, Control_c, 0, 67, 115
1, 352399, Control_c, 0, 67, 113
1, 352413, Control_c, 0, 67, 110
1, 352428, Control_c, 0, 67, 107
1, 352443, Control_c, 0, 67, 103
1, 352458, Control_c, 0, 67, 96
1, 352465, Note_off_c, 0, 65, 63
1, 352473, Control_c, 0, 67, 84
1, 352487, Control_c, 0, 67, 61
1, 352502, Control_c, 0, 67, 14
1, 352517, Control_c, 0, 67, 0
1, 352540, Note_on_c, 0, 46, 117
1, 352548, Note_on_c, 0, 34, 84
1, 352560, Note_on_c, 0, 58, 77
1, 352567, Note_off_c, 0, 34, 68
1, 352576, Note_off_c, 0, 58, 68
1, 352584, Note_off_c, 0, 46, 64
1, 352719, Poly_aftertouch_c, 0, 58, 0
1, 353213, Note_on_c, 0, 94, 96
1, 353216, Note_on_c, 0, 82, 99
1, 353216, Note_on_c, 0, 70, 85
1, 353219, Note_on_c, 0, 66, 79
1, 353220, Note_on_c, 0, 90, 97
1, 353225, Note_on_c, 0, 58, 60
1, 353230, Note_on_c, 0, 63, 71
1, 353236, Note_off_c, 0, 70, 70
1, 353240, Note_on_c, 0, 60, 47
1, 353249, Note_off_c, 0, 58, 57
1, 353250, Note_off_c, 0, 66, 64
1, 353255, Note_off_c, 0, 63, 65
1, 353267, Note_off_c, 0, 60, 54
1, 353300, Note_on_c, 0, 70, 34
1, 353335, Note_off_c, 0, 70, 51
1, 353656, Note_off_c, 0, 94, 60
1, 353664, Note_off_c, 0, 90, 63
1, 353696, Note_off_c, 0, 82, 62
1, 353887, Note_on_c, 0, 70, 77
1, 353889, Note_on_c, 0, 75, 82
1, 353889, Note_on_c, 0, 87, 83
1, 353890, Note_on_c, 0, 66, 73
1, 353893, Note_on_c, 0, 84, 76
1, 353899, Note_on_c, 0, 63, 56
1, 353904, Note_on_c, 0, 58, 51
1, 353911, Note_off_c, 0, 75, 71
1, 353912, Note_off_c, 0, 87, 66
1, 353914, Note_off_c, 0, 70, 67
1, 353914, Note_off_c, 0, 66, 67
1, 353917, Note_off_c, 0, 84, 69
1, 353920, Note_off_c, 0, 63, 64
1, 353920, Note_on_c, 0, 60, 30
1, 353926, Note_off_c, 0, 58, 61
1, 353941, Note_off_c, 0, 60, 0
1, 353962, Note_on_c, 0, 84, 91
1, 353965, Note_on_c, 0, 70, 77
1, 353965, Note_on_c, 0, 87, 81
1, 353967, Note_on_c, 0, 75, 75
1, 353971, Note_on_c, 0, 66, 68
1, 353977, Poly_aftertouch_c, 0, 60, 127
1, 353989, Note_off_c, 0, 70, 67
1, 353997, Note_off_c, 0, 75, 65
1, 353999, Note_off_c, 0, 66, 66
1, 354014, Note_off_c, 0, 84, 63
1, 354036, Poly_aftertouch_c, 0, 60, 0
1, 354044, Note_off_c, 0, 87, 60
1, 354108, Note_on_c, 0, 66, 74
1, 354108, Note_on_c, 0, 70, 64
1, 354123, Note_on_c, 0, 87, 89
1, 354125, Note_on_c, 0, 63, 66
1, 354127, Note_on_c, 0, 75, 88
1, 354127, Note_on_c, 0, 84, 81
1, 354134, Note_on_c, 0, 60, 48
1, 354138, Note_off_c, 0, 70, 65
1, 354142, Note_off_c, 0, 66, 66
1, 354146, Note_on_c, 0, 58, 34
1, 354152, Note_off_c, 0, 63, 67
1, 354161, Note_off_c, 0, 60, 54
1, 354178, Note_off_c, 0, 58, 45
1, 354178, Note_off_c, 0, 75, 64
1, 354188, Note_off_c, 0, 84, 62
1, 354210, Note_off_c, 0, 87, 64
1, 354253, Note_on_c, 0, 70, 75
1, 354254, Note_on_c, 0, 60, 46
1, 354254, Note_on_c, 0, 66, 75
1, 354258, Note_on_c, 0, 89, 86
1, 354260, Note_on_c, 0, 63, 58
1, 354269, Note_on_c, 0, 58, 56
1, 354269, Note_on_c, 0, 77, 70
1, 354284, Note_off_c, 0, 70, 64
1, 354288, Note_off_c, 0, 66, 66
1, 354291, Note_off_c, 0, 60, 60
1, 354294, Note_off_c, 0, 63, 61
1, 354296, Note_off_c, 0, 77, 69
1, 354296, Note_off_c, 0, 58, 65
1, 354310, Control_c, 0, 64, 112
1, 354325, Control_c, 0, 64, 70
1, 354331, Note_off_c, 0, 89, 0
1, 354334, Note_on_c, 0, 90, 91
1, 354340, Note_on_c, 0, 66, 69
1, 354340, Control_c, 0, 64, 40
1, 354343, Note_on_c, 0, 78, 86
1, 354348, Note_on_c, 0, 70, 64
1, 354352, Note_on_c, 0, 89, 33
1, 354355, Control_c, 0, 64, 0
1, 354362, Note_off_c, 0, 66, 69
1, 354364, Note_off_c, 0, 70, 69
1, 354372, Note_off_c, 0, 89, 51
1, 354373, Poly_aftertouch_c, 0, 63, 0
1, 354428, Note_off_c, 0, 78, 58
1, 354489, Control_c, 0, 64, 28
1, 354494, Note_on_c, 0, 70, 54
1, 354502, Note_on_c, 0, 89, 81
1, 354503, Control_c, 0, 64, 56
1, 354504, Note_on_c, 0, 65, 67
1, 354508, Note_on_c, 0, 61, 64
1, 354510, Note_on_c, 0, 77, 87
1, 354519, Note_on_c, 0, 85, 72
1, 354519, Control_c, 0, 64, 73
1, 354521, Note_on_c, 0, 58, 60
1, 354527, Note_off_c, 0, 70, 65
1, 354529, Note_off_c, 0, 65, 67
1, 354531, Note_off_c, 0, 89, 66
1, 354532, Note_off_c, 0, 77, 71
1, 354532, Note_off_c, 0, 90, 64
1, 354534, Control_c, 0, 64, 92
1, 354549, Note_off_c, 0, 58, 64
1, 354552, Note_off_c, 0, 61, 66
1, 354554, Note_off_c, 0, 85, 66
1, 354556, Control_c, 0, 64, 127
1, 354764, Control_c, 0, 67, 18
1, 354778, Control_c, 0, 67, 35
1, 354793, Control_c, 0, 64, 80
1, 354793, Control_c, 0, 67, 61
1, 354808, Control_c, 0, 64, 49
1, 354808, Control_c, 0, 67, 89
1, 354823, Control_c, 0, 64, 0
1, 354823, Control_c, 0, 67, 107
1, 354838, Control_c, 0, 67, 114
1, 354853, Control_c, 0, 67, 114
1, 354868, Note_on_c, 0, 45, 38
1, 354884, Note_on_c, 0, 57, 44
1, 354915, Note_off_c, 0, 45, 61
1, 354916, Note_off_c, 0, 57, 59
1, 354926, Note_on_c, 0, 46, 34
1, 354926, Control_c, 0, 67, 116
1, 354933, Note_on_c, 0, 58, 45
1, 354941, Control_c, 0, 67, 117
1, 354956, Control_c, 0, 67, 119
1, 354960, Note_off_c, 0, 46, 56
1, 354966, Note_on_c, 0, 49, 47
1, 354971, Control_c, 0, 67, 121
1, 354986, Note_off_c, 0, 58, 64
1, 354986, Control_c, 0, 67, 122
1, 354987, Note_on_c, 0, 61, 30
1, 355000, Note_off_c, 0, 49, 64
1, 355000, Control_c, 0, 67, 123
1, 355004, Note_on_c, 0, 65, 59
1, 355008, Note_on_c, 0, 53, 50
1, 355015, Note_off_c, 0, 61, 46
1, 355015, Control_c, 0, 67, 125
1, 355025, Note_off_c, 0, 65, 60
1, 355030, Control_c, 0, 67, 127
1, 355035, Note_off_c, 0, 53, 53
1, 355319, Note_on_c, 0, 45, 30
1, 355320, Control_c, 0, 67, 127
1, 355354, Note_on_c, 0, 57, 5
1, 355380, Control_c, 0, 67, 126
1, 355387, Note_on_c, 0, 46, 43
1, 355392, Note_off_c, 0, 45, 53
1, 355393, Note_on_c, 0, 58, 46
1, 355409, Note_off_c, 0, 57, 39
1, 355434, Note_off_c, 0, 46, 58
1, 355440, Note_on_c, 0, 61, 39
1, 355440, Note_on_c, 0, 49, 43
1, 355455, Note_off_c, 0, 58, 59
1, 355470, Note_off_c, 0, 61, 54
1, 355475, Note_off_c, 0, 49, 58
1, 355484, Control_c, 0, 67, 126
1, 355487, Note_on_c, 0, 65, 51
1, 355492, Note_on_c, 0, 53, 37
1, 355528, Control_c, 0, 67, 125
1, 355543, Control_c, 0, 67, 125
1, 355557, Control_c, 0, 67, 124
1, 355572, Control_c, 0, 67, 124
1, 355602, Control_c, 0, 67, 123
1, 355631, Control_c, 0, 67, 123
1, 355646, Control_c, 0, 67, 122
1, 355661, Control_c, 0, 67, 122
1, 355676, Control_c, 0, 67, 121
1, 355705, Control_c, 0, 67, 121
1, 355735, Control_c, 0, 67, 120
1, 355765, Control_c, 0, 67, 120
1, 355780, Control_c, 0, 67, 119
1, 355810, Control_c, 0, 67, 119
1, 355839, Control_c, 0, 67, 118
1, 355854, Control_c, 0, 67, 117
1, 355868, Control_c, 0, 67, 117
1, 355883, Control_c, 0, 67, 116
1, 355898, Control_c, 0, 67, 115
1, 355913, Control_c, 0, 67, 114
1, 355928, Control_c, 0, 67, 113
1, 355942, Control_c, 0, 64, 33
1, 355942, Control_c, 0, 67, 112
1, 355957, Control_c, 0, 64, 49
1, 355957, Control_c, 0, 67, 111
1, 355972, Control_c, 0, 64, 59
1, 355972, Control_c, 0, 67, 110
1, 355987, Control_c, 0, 64, 65
1, 355987, Control_c, 0, 67, 108
1, 356002, Control_c, 0, 64, 69
1, 356002, Control_c, 0, 67, 107
1, 356017, Control_c, 0, 64, 74
1, 356017, Control_c, 0, 67, 106
1, 356030, Control_c, 0, 64, 82
1, 356030, Control_c, 0, 67, 105
1, 356034, Note_off_c, 0, 53, 54
1, 356053, Control_c, 0, 64, 91
1, 356053, Control_c, 0, 67, 104
1, 356068, Control_c, 0, 64, 108
1, 356068, Control_c, 0, 67, 103
1, 356082, Control_c, 0, 64, 127
1, 356082, Control_c, 0, 67, 103
1, 356097, Control_c, 0, 67, 102
1, 356112, Control_c, 0, 67, 101
1, 356128, Control_c, 0, 67, 101
1, 356143, Control_c, 0, 67, 100
1, 356162, Note_off_c, 0, 65, 56
1, 356202, Control_c, 0, 67, 100
1, 356232, Control_c, 0, 67, 99
1, 356246, Control_c, 0, 67, 98
1, 356261, Control_c, 0, 67, 97
1, 356276, Control_c, 0, 67, 96
1, 356291, Control_c, 0, 67, 95
1, 356305, Control_c, 0, 67, 93
1, 356320, Control_c, 0, 67, 90
1, 356335, Control_c, 0, 67, 82
1, 356350, Control_c, 0, 67, 65
1, 356365, Control_c, 0, 67, 34
1, 356379, Control_c, 0, 67, 0
1, 356382, Note_on_c, 0, 36, 109
1, 356387, Note_on_c, 0, 24, 88
1, 356409, Note_on_c, 0, 48, 87
1, 356409, Note_off_c, 0, 24, 64
1, 356425, Note_off_c, 0, 36, 68
1, 356439, Note_off_c, 0, 48, 68
1, 357170, Note_on_c, 0, 84, 96
1, 357170, Note_on_c, 0, 96, 99
1, 357172, Note_on_c, 0, 72, 86
1, 357175, Note_on_c, 0, 92, 93
1, 357176, Note_on_c, 0, 60, 67
1, 357181, Note_on_c, 0, 68, 81
1, 357189, Note_on_c, 0, 65, 71
1, 357196, Note_off_c, 0, 72, 66
1, 357202, Note_off_c, 0, 60, 64
1, 357217, Note_off_c, 0, 65, 65
1, 357232, Note_off_c, 0, 68, 64
1, 357789, Note_off_c, 0, 92, 62
1, 357789, Note_off_c, 0, 96, 55
1, 357851, Note_off_c, 0, 84, 63
1, 358025, Note_on_c, 0, 91, 80
1, 358028, Note_on_c, 0, 79, 79
1, 358031, Note_on_c, 0, 88, 72
1, 358032, Note_on_c, 0, 72, 71
1, 358034, Note_on_c, 0, 60, 62
1, 358035, Note_on_c, 0, 70, 70
1, 358050, Note_on_c, 0, 64, 52
1, 358057, Note_off_c, 0, 72, 64
1, 358061, Note_off_c, 0, 70, 67
1, 358063, Note_off_c, 0, 79, 58
1, 358066, Note_off_c, 0, 60, 63
1, 358075, Note_off_c, 0, 91, 63
1, 358078, Note_off_c, 0, 64, 62
1, 358087, Note_off_c, 0, 88, 54
1, 358165, Note_on_c, 0, 72, 70
1, 358165, Note_on_c, 0, 92, 80
1, 358168, Note_on_c, 0, 64, 59
1, 358168, Note_on_c, 0, 70, 52
1, 358171, Note_on_c, 0, 80, 68
1, 358172, Note_on_c, 0, 60, 55
1, 358173, Note_on_c, 0, 88, 68
1, 358185, Note_off_c, 0, 92, 71
1, 358186, Note_off_c, 0, 70, 66
1, 358188, Note_off_c, 0, 80, 67
1, 358191, Note_on_c, 0, 87, 35
1, 358191, Note_off_c, 0, 88, 69
1, 358192, Note_off_c, 0, 72, 65
1, 358203, Control_c, 0, 64, 96
1, 358218, Control_c, 0, 64, 66
1, 358225, Note_off_c, 0, 87, 43
1, 358233, Control_c, 0, 64, 8
1, 358233, Note_off_c, 0, 64, 0
1, 358245, Note_on_c, 0, 94, 93
1, 358247, Note_on_c, 0, 82, 85
1, 358248, Control_c, 0, 64, 0
1, 358249, Note_off_c, 0, 60, 0
1, 358254, Note_on_c, 0, 72, 64
1, 358263, Note_on_c, 0, 60, 15
1, 358271, Note_on_c, 0, 70, 42
1, 358273, Note_off_c, 0, 72, 60
1, 358277, Note_off_c, 0, 82, 63
1, 358298, Note_off_c, 0, 94, 62
1, 358299, Poly_aftertouch_c, 0, 64, 0
1, 358307, Note_off_c, 0, 70, 56
1, 358309, Note_off_c, 0, 60, 42
1, 358309, Note_on_c, 0, 88, 8
1, 358323, Note_off_c, 0, 88, 34
1, 358429, Note_on_c, 0, 80, 94
1, 358430, Note_on_c, 0, 72, 75
1, 358433, Note_on_c, 0, 92, 94
1, 358433, Control_c, 0, 64, 43
1, 358436, Note_on_c, 0, 89, 78
1, 358439, Note_on_c, 0, 65, 74
1, 358439, Note_on_c, 0, 68, 79
1, 358448, Control_c, 0, 64, 73
1, 358451, Note_off_c, 0, 92, 75
1, 358454, Note_off_c, 0, 72, 67
1, 358458, Note_off_c, 0, 89, 69
1, 358460, Note_off_c, 0, 68, 70
1, 358463, Control_c, 0, 64, 99
1, 358469, Note_off_c, 0, 65, 66
1, 358469, Note_off_c, 0, 80, 63
1, 358478, Control_c, 0, 64, 127
1, 358565, Poly_aftertouch_c, 0, 68, 127
1, 358607, Poly_aftertouch_c, 0, 68, 0
1, 358731, Control_c, 0, 64, 90
1, 358746, Control_c, 0, 64, 66
1, 358761, Control_c, 0, 64, 23
1, 358775, Control_c, 0, 64, 0
1, 358864, Note_on_c, 0, 80, 87
1, 358864, Control_c, 0, 64, 26
1, 358865, Note_on_c, 0, 68, 85
1, 358868, Note_on_c, 0, 65, 75
1, 358871, Note_on_c, 0, 72, 77
1, 358873, Note_on_c, 0, 60, 73
1, 358874, Note_on_c, 0, 53, 60
1, 358877, Note_on_c, 0, 77, 68
1, 358879, Control_c, 0, 64, 66
1, 358884, Note_off_c, 0, 65, 68
1, 358886, Note_off_c, 0, 68, 71
1, 358889, Note_off_c, 0, 80, 67
1, 358893, Note_off_c, 0, 72, 67
1, 358893, Control_c, 0, 64, 89
1, 358895, Note_off_c, 0, 60, 66
1, 358900, Note_off_c, 0, 53, 65
1, 358901, Note_off_c, 0, 77, 68
1, 358908, Control_c, 0, 64, 127
1, 358984, Note_on_c, 0, 72, 6
1, 359016, Note_off_c, 0, 72, 30
1, 359049, Poly_aftertouch_c, 0, 60, 0
1, 359321, Note_on_c, 0, 56, 90
1, 359322, Note_on_c, 0, 53, 75
1, 359322, Note_on_c, 0, 68, 88
1, 359326, Note_on_c, 0, 41, 71
1, 359326, Note_on_c, 0, 48, 75
1, 359326, Note_on_c, 0, 60, 80
1, 359329, Note_on_c, 0, 65, 79
1, 359342, Note_off_c, 0, 56, 68
1, 359348, Note_off_c, 0, 60, 66
1, 359349, Note_off_c, 0, 53, 66
1, 359351, Note_off_c, 0, 48, 66
1, 359351, Note_off_c, 0, 68, 65
1, 359354, Note_off_c, 0, 41, 64
1, 359358, Note_off_c, 0, 65, 67
1, 359422, Note_on_c, 0, 56, 17
1, 359428, Note_on_c, 0, 60, 14
1, 359458, Note_off_c, 0, 56, 43
1, 359470, Note_off_c, 0, 60, 40
1, 359926, Note_on_c, 0, 40, 92
1, 359934, Note_on_c, 0, 28, 80
1, 359989, Control_c, 0, 64, 85
1, 360004, Control_c, 0, 64, 62
1, 360019, Control_c, 0, 64, 0
1, 360509, Control_c, 0, 64, 17
1, 360524, Control_c, 0, 64, 39
1, 360546, Control_c, 0, 64, 53
1, 360561, Control_c, 0, 64, 63
1, 360576, Control_c, 0, 64, 67
1, 360591, Control_c, 0, 64, 71
1, 360606, Control_c, 0, 64, 76
1, 360617, Note_off_c, 0, 40, 61
1, 360620, Control_c, 0, 64, 81
1, 360635, Control_c, 0, 64, 84
1, 360642, Note_off_c, 0, 28, 62
1, 360650, Control_c, 0, 64, 89
1, 360665, Control_c, 0, 64, 97
1, 360679, Control_c, 0, 64, 107
1, 360694, Control_c, 0, 64, 127
1, 360947, Control_c, 0, 64, 106
1, 360949, Note_on_c, 0, 29, 59
1, 360949, Note_on_c, 0, 41, 59
1, 360961, Control_c, 0, 64, 85
1, 360976, Control_c, 0, 64, 71
1, 360991, Control_c, 0, 64, 57
1, 361006, Control_c, 0, 64, 26
1, 361021, Control_c, 0, 64, 0
1, 361065, Control_c, 0, 64, 36
1, 361080, Control_c, 0, 64, 55
1, 361095, Control_c, 0, 64, 64
1, 361110, Control_c, 0, 64, 70
1, 361125, Control_c, 0, 64, 76
1, 361140, Control_c, 0, 64, 82
1, 361155, Control_c, 0, 64, 86
1, 361163, Note_off_c, 0, 41, 55
1, 361169, Control_c, 0, 64, 89
1, 361184, Control_c, 0, 64, 92
1, 361188, Note_on_c, 0, 38, 52
1, 361199, Note_off_c, 0, 29, 60
1, 361199, Control_c, 0, 64, 94
1, 361214, Control_c, 0, 64, 96
1, 361219, Note_on_c, 0, 26, 54
1, 361220, Note_off_c, 0, 38, 55
1, 361229, Control_c, 0, 64, 98
1, 361243, Control_c, 0, 64, 100
1, 361258, Control_c, 0, 64, 105
1, 361264, Note_on_c, 0, 39, 59
1, 361273, Control_c, 0, 64, 111
1, 361295, Control_c, 0, 64, 115
1, 361302, Note_off_c, 0, 39, 64
1, 361339, Control_c, 0, 64, 107
1, 361348, Note_on_c, 0, 39, 67
1, 361354, Control_c, 0, 64, 86
1, 361369, Note_on_c, 0, 27, 56
1, 361369, Control_c, 0, 64, 67
1, 361381, Note_off_c, 0, 26, 43
1, 361384, Control_c, 0, 64, 48
1, 361399, Control_c, 0, 64, 29
1, 361414, Control_c, 0, 64, 43
1, 361428, Note_off_c, 0, 39, 59
1, 361429, Control_c, 0, 64, 63
1, 361440, Note_on_c, 0, 41, 54
1, 361443, Control_c, 0, 64, 78
1, 361458, Control_c, 0, 64, 109
1, 361473, Control_c, 0, 64, 127
1, 361481, Note_off_c, 0, 27, 62
1, 361497, Note_on_c, 0, 29, 55
1, 361502, Note_on_c, 0, 39, 58
1, 361503, Note_off_c, 0, 41, 61
1, 361541, Note_off_c, 0, 29, 57
1, 361545, Note_off_c, 0, 39, 63
1, 361572, Note_on_c, 0, 41, 54
1, 361581, Note_on_c, 0, 27, 46
1, 361620, Note_off_c, 0, 41, 56
1, 361625, Note_off_c, 0, 27, 63
1, 361630, Note_on_c, 0, 39, 69
1, 361646, Note_on_c, 0, 29, 56
1, 361661, Note_off_c, 0, 39, 62
1, 361682, Note_on_c, 0, 41, 56
1, 361687, Note_off_c, 0, 29, 60
1, 361712, Note_on_c, 0, 27, 64
1, 361727, Note_on_c, 0, 39, 75
1, 361729, Note_off_c, 0, 41, 53
1, 361743, Note_off_c, 0, 27, 64
1, 361769, Note_on_c, 0, 29, 69
1, 361778, Note_off_c, 0, 39, 60
1, 361791, Note_on_c, 0, 41, 60
1, 361813, Note_off_c, 0, 29, 63
1, 361816, Note_on_c, 0, 27, 73
1, 361840, Note_on_c, 0, 39, 67
1, 361841, Note_off_c, 0, 41, 61
1, 361846, Note_off_c, 0, 27, 62
1, 361878, Note_off_c, 0, 39, 64
1, 361881, Note_on_c, 0, 41, 63
1, 361889, Note_on_c, 0, 29, 76
1, 361921, Note_off_c, 0, 29, 63
1, 361924, Note_on_c, 0, 27, 68
1, 361938, Note_off_c, 0, 41, 63
1, 361943, Note_on_c, 0, 39, 75
1, 361979, Note_off_c, 0, 27, 60
1, 361984, Note_off_c, 0, 39, 64
1, 361987, Note_on_c, 0, 29, 76
1, 361990, Note_on_c, 0, 41, 58
1, 362040, Note_off_c, 0, 29, 62
1, 362055, Note_on_c, 0, 39, 74
1, 362058, Note_off_c, 0, 41, 61
1, 362067, Note_on_c, 0, 27, 70
1, 362083, Note_on_c, 0, 41, 56
1, 362090, Note_off_c, 0, 39, 66
1, 362100, Note_off_c, 0, 27, 64
1, 362108, Poly_aftertouch_c, 0, 42, 127
1, 362114, Note_on_c, 0, 29, 86
1, 362137, Poly_aftertouch_c, 0, 24, 127
1, 362144, Note_on_c, 0, 39, 68
1, 362153, Note_off_c, 0, 41, 62
1, 362159, Note_off_c, 0, 29, 62
1, 362175, Note_on_c, 0, 27, 68
1, 362186, Note_off_c, 0, 39, 62
1, 362186, Note_on_c, 0, 41, 67
1, 362212, Poly_aftertouch_c, 0, 24, 0
1, 362232, Poly_aftertouch_c, 0, 42, 0
1, 362235, Note_off_c, 0, 27, 64
1, 362236, Note_on_c, 0, 29, 76
1, 362252, Note_off_c, 0, 41, 63
1, 362256, Note_on_c, 0, 39, 79
1, 362287, Note_on_c, 0, 41, 64
1, 362296, Note_off_c, 0, 39, 61
1, 362307, Note_on_c, 0, 27, 61
1, 362308, Note_off_c, 0, 29, 60
1, 362343, Note_on_c, 0, 39, 75
1, 362371, Note_off_c, 0, 41, 62
1, 362404, Note_on_c, 0, 26, 90
1, 362413, Note_on_c, 0, 38, 89
1, 362443, Note_off_c, 0, 38, 67
1, 362460, Note_off_c, 0, 27, 0
1, 362481, Note_off_c, 0, 39, 33
1, 362508, Poly_aftertouch_c, 0, 27, 0
1, 362543, Note_off_c, 0, 26, 64
1, 362556, Note_on_c, 0, 39, 88
1, 362567, Note_on_c, 0, 27, 57
1, 362607, Note_off_c, 0, 39, 59
1, 362612, Note_off_c, 0, 27, 63
1, 362682, Control_c, 0, 64, 62
1, 362697, Control_c, 0, 64, 0
1, 363016, Note_on_c, 0, 101, 95
1, 363051, Note_on_c, 0, 37, 72
1, 363052, Note_on_c, 0, 25, 69
1, 363089, Note_off_c, 0, 25, 64
1, 363100, Note_off_c, 0, 37, 56
1, 363119, Control_c, 0, 64, 49
1, 363134, Control_c, 0, 64, 65
1, 363149, Control_c, 0, 64, 73
1, 363164, Control_c, 0, 64, 82
1, 363179, Control_c, 0, 64, 99
1, 363194, Control_c, 0, 64, 127
1, 363410, Note_on_c, 0, 44, 69
1, 363411, Note_on_c, 0, 56, 73
1, 363436, Note_off_c, 0, 44, 64
1, 363436, Note_off_c, 0, 56, 66
1, 363527, Note_on_c, 0, 61, 74
1, 363529, Note_on_c, 0, 53, 67
1, 363563, Note_off_c, 0, 61, 65
1, 363575, Note_off_c, 0, 53, 62
1, 363673, Note_on_c, 0, 99, 86
1, 363685, Note_off_c, 0, 101, 34
1, 363729, Note_on_c, 0, 97, 83
1, 363798, Note_on_c, 0, 92, 81
1, 363804, Note_on_c, 0, 44, 62
1, 363817, Note_on_c, 0, 56, 60
1, 363817, Note_off_c, 0, 99, 65
1, 363835, Note_off_c, 0, 44, 64
1, 363837, Note_off_c, 0, 97, 66
1, 363843, Note_off_c, 0, 56, 61
1, 363848, Note_off_c, 0, 92, 63
1, 363855, Note_on_c, 0, 89, 80
1, 363905, Note_off_c, 0, 89, 64
1, 363933, Note_on_c, 0, 87, 83
1, 363936, Note_on_c, 0, 53, 60
1, 363943, Note_on_c, 0, 61, 66
1, 363956, Note_off_c, 0, 53, 63
1, 363960, Note_off_c, 0, 61, 66
1, 364000, Note_on_c, 0, 85, 76
1, 364062, Note_on_c, 0, 80, 77
1, 364088, Note_off_c, 0, 87, 65
1, 364097, Note_off_c, 0, 85, 64
1, 364124, Note_off_c, 0, 80, 62
1, 364126, Note_on_c, 0, 77, 71
1, 364154, Note_off_c, 0, 77, 68
1, 364200, Note_on_c, 0, 75, 65
1, 364267, Control_c, 0, 64, 90
1, 364267, Control_c, 0, 67, 8
1, 364270, Note_on_c, 0, 73, 63
1, 364272, Note_off_c, 0, 75, 63
1, 364290, Control_c, 0, 64, 63
1, 364305, Control_c, 0, 64, 23
1, 364319, Control_c, 0, 64, 0
1, 364319, Control_c, 0, 67, 9
1, 364334, Control_c, 0, 67, 9
1, 364344, Note_off_c, 0, 73, 48
1, 364349, Control_c, 0, 67, 10
1, 364364, Control_c, 0, 67, 12
1, 364377, Note_on_c, 0, 68, 52
1, 364379, Control_c, 0, 67, 13
1, 364393, Control_c, 0, 67, 13
1, 364511, Control_c, 0, 67, 14
1, 364541, Control_c, 0, 67, 14
1, 364556, Control_c, 0, 67, 15
1, 364571, Control_c, 0, 67, 16
1, 364586, Control_c, 0, 67, 20
1, 364600, Control_c, 0, 67, 25
1, 364615, Control_c, 0, 67, 33
1, 364630, Control_c, 0, 67, 42
1, 364634, Note_off_c, 0, 68, 65
1, 364645, Control_c, 0, 67, 52
1, 364660, Control_c, 0, 67, 61
1, 364675, Control_c, 0, 67, 71
1, 364690, Control_c, 0, 67, 80
1, 364704, Control_c, 0, 67, 89
1, 364719, Control_c, 0, 67, 95
1, 364734, Control_c, 0, 67, 97
1, 364749, Control_c, 0, 67, 98
1, 364778, Control_c, 0, 67, 98
1, 364808, Control_c, 0, 67, 99
1, 364823, Control_c, 0, 67, 103
1, 364837, Control_c, 0, 67, 108
1, 364852, Control_c, 0, 67, 115
1, 364867, Control_c, 0, 67, 125
1, 364869, Note_on_c, 0, 32, 45
1, 364882, Control_c, 0, 64, 18
1, 364882, Control_c, 0, 67, 127
1, 364897, Control_c, 0, 64, 43
1, 364911, Note_on_c, 0, 44, 15
1, 364913, Control_c, 0, 64, 59
1, 364916, Note_off_c, 0, 32, 60
1, 364927, Note_on_c, 0, 72, 59
1, 364927, Control_c, 0, 64, 65
1, 364942, Control_c, 0, 64, 68
1, 364956, Note_off_c, 0, 44, 49
1, 364957, Control_c, 0, 64, 71
1, 364972, Control_c, 0, 64, 73
1, 364973, Note_off_c, 0, 72, 64
1, 364980, Note_on_c, 0, 73, 63
1, 364987, Control_c, 0, 64, 74
1, 365001, Control_c, 0, 64, 74
1, 365016, Control_c, 0, 64, 75
1, 365024, Note_off_c, 0, 73, 63
1, 365036, Note_on_c, 0, 75, 75
1, 365039, Control_c, 0, 64, 75
1, 365054, Control_c, 0, 64, 76
1, 365064, Note_off_c, 0, 75, 67
1, 365069, Control_c, 0, 64, 78
1, 365083, Control_c, 0, 64, 79
1, 365095, Note_on_c, 0, 77, 80
1, 365098, Control_c, 0, 64, 79
1, 365146, Note_off_c, 0, 77, 60
1, 365157, Control_c, 0, 64, 79
1, 365160, Note_on_c, 0, 78, 68
1, 365172, Control_c, 0, 64, 75
1, 365187, Control_c, 0, 64, 67
1, 365200, Note_off_c, 0, 78, 60
1, 365202, Note_on_c, 0, 80, 62
1, 365202, Control_c, 0, 64, 53
1, 365216, Control_c, 0, 64, 0
1, 365256, Note_on_c, 0, 81, 79
1, 365261, Note_on_c, 0, 55, 50
1, 365261, Note_off_c, 0, 80, 63
1, 365275, Note_on_c, 0, 66, 45
1, 365278, Note_off_c, 0, 81, 68
1, 365298, Note_on_c, 0, 60, 15
1, 365312, Note_off_c, 0, 66, 58
1, 365343, Note_off_c, 0, 60, 40
1, 365414, Note_on_c, 0, 66, 58
1, 365420, Note_off_c, 0, 55, 60
1, 365425, Note_on_c, 0, 56, 53
1, 365432, Note_on_c, 0, 60, 48
1, 365441, Note_off_c, 0, 66, 65
1, 365450, Note_off_c, 0, 56, 62
1, 365457, Note_off_c, 0, 60, 55
1, 365544, Note_on_c, 0, 56, 56
1, 365548, Note_on_c, 0, 66, 52
1, 365554, Note_on_c, 0, 60, 40
1, 365572, Note_off_c, 0, 66, 61
1, 365574, Note_off_c, 0, 56, 65
1, 365586, Note_off_c, 0, 60, 48
1, 365674, Note_on_c, 0, 81, 60
1, 365733, Note_on_c, 0, 80, 66
1, 365742, Note_off_c, 0, 81, 60
1, 365780, Note_off_c, 0, 80, 62
1, 365798, Note_on_c, 0, 79, 57
1, 365831, Note_off_c, 0, 79, 61
1, 365852, Note_on_c, 0, 78, 62
1, 365894, Note_off_c, 0, 78, 60
1, 365913, Note_on_c, 0, 77, 53
1, 365951, Note_off_c, 0, 77, 66
1, 365967, Note_on_c, 0, 76, 54
1, 366010, Note_off_c, 0, 76, 57
1, 366025, Control_c, 0, 64, 34
1, 366031, Note_on_c, 0, 75, 56
1, 366040, Control_c, 0, 64, 48
1, 366052, Note_on_c, 0, 66, 30
1, 366053, Note_on_c, 0, 57, 34
1, 366053, Note_off_c, 0, 75, 65
1, 366055, Control_c, 0, 64, 56
1, 366061, Note_on_c, 0, 60, 27
1, 366070, Control_c, 0, 64, 60
1, 366084, Control_c, 0, 64, 64
1, 366099, Control_c, 0, 64, 69
1, 366103, Note_off_c, 0, 57, 46
1, 366107, Note_off_c, 0, 66, 43
1, 366114, Control_c, 0, 64, 74
1, 366121, Note_off_c, 0, 60, 41
1, 366129, Control_c, 0, 64, 79
1, 366144, Control_c, 0, 64, 84
1, 366158, Control_c, 0, 64, 89
1, 366173, Control_c, 0, 64, 94
1, 366188, Control_c, 0, 64, 102
1, 366203, Control_c, 0, 64, 115
1, 366218, Control_c, 0, 64, 127
1, 366244, Note_on_c, 0, 60, 53
1, 366245, Note_on_c, 0, 66, 58
1, 366256, Note_on_c, 0, 56, 54
1, 366270, Note_off_c, 0, 60, 63
1, 366273, Note_off_c, 0, 66, 64
1, 366282, Note_off_c, 0, 56, 58
1, 366291, Control_c, 0, 64, 88
1, 366306, Control_c, 0, 64, 69
1, 366321, Control_c, 0, 64, 49
1, 366336, Control_c, 0, 64, 0
1, 366350, Control_c, 0, 67, 125
1, 366365, Control_c, 0, 67, 121
1, 366380, Control_c, 0, 67, 119
1, 366395, Control_c, 0, 67, 117
1, 366410, Control_c, 0, 67, 114
1, 366422, Note_on_c, 0, 56, 57
1, 366425, Control_c, 0, 67, 111
1, 366426, Note_on_c, 0, 66, 62
1, 366440, Control_c, 0, 67, 108
1, 366445, Note_on_c, 0, 60, 30
1, 366446, Note_off_c, 0, 66, 64
1, 366455, Control_c, 0, 67, 108
1, 366470, Control_c, 0, 67, 106
1, 366472, Note_off_c, 0, 56, 62
1, 366481, Note_off_c, 0, 60, 40
1, 366484, Control_c, 0, 67, 101
1, 366500, Control_c, 0, 67, 90
1, 366514, Control_c, 0, 67, 74
1, 366536, Control_c, 0, 67, 55
1, 366551, Control_c, 0, 67, 33
1, 366566, Control_c, 0, 67, 12
1, 366580, Control_c, 0, 67, 0
1, 366610, Control_c, 0, 64, 19
1, 366625, Control_c, 0, 64, 62
1, 366628, Note_on_c, 0, 101, 100
1, 366640, Control_c, 0, 64, 76
1, 366654, Control_c, 0, 64, 90
1, 366668, Note_on_c, 0, 37, 81
1, 366669, Control_c, 0, 64, 127
1, 366672, Note_on_c, 0, 25, 75
1, 366702, Note_off_c, 0, 25, 64
1, 366702, Note_off_c, 0, 37, 66
1, 367008, Note_on_c, 0, 44, 69
1, 367022, Note_on_c, 0, 56, 59
1, 367036, Note_off_c, 0, 44, 64
1, 367051, Note_off_c, 0, 56, 62
1, 367126, Note_on_c, 0, 61, 74
1, 367138, Note_on_c, 0, 53, 57
1, 367156, Note_off_c, 0, 61, 65
1, 367171, Note_off_c, 0, 53, 63
1, 367289, Note_on_c, 0, 99, 78
1, 367289, Note_off_c, 0, 101, 51
1, 367347, Note_on_c, 0, 97, 78
1, 367410, Note_on_c, 0, 92, 80
1, 367415, Note_on_c, 0, 44, 59
1, 367426, Note_on_c, 0, 56, 60
1, 367444, Note_off_c, 0, 99, 65
1, 367449, Note_off_c, 0, 44, 64
1, 367453, Note_off_c, 0, 97, 66
1, 367462, Note_off_c, 0, 56, 64
1, 367466, Note_on_c, 0, 89, 80
1, 367471, Note_off_c, 0, 92, 65
1, 367512, Note_off_c, 0, 89, 66
1, 367542, Note_on_c, 0, 53, 58
1, 367548, Note_on_c, 0, 61, 71
1, 367548, Note_on_c, 0, 87, 83
1, 367564, Note_off_c, 0, 61, 68
1, 367569, Note_off_c, 0, 53, 64
1, 367581, Control_c, 0, 67, 8
1, 367596, Control_c, 0, 67, 8
1, 367611, Control_c, 0, 67, 9
1, 367614, Note_on_c, 0, 85, 76
1, 367641, Control_c, 0, 67, 9
1, 367671, Control_c, 0, 67, 10
1, 367675, Note_on_c, 0, 80, 76
1, 367685, Control_c, 0, 67, 11
1, 367695, Note_off_c, 0, 87, 65
1, 367700, Control_c, 0, 67, 12
1, 367704, Note_off_c, 0, 85, 63
1, 367729, Control_c, 0, 67, 12
1, 367735, Note_on_c, 0, 77, 75
1, 367735, Note_off_c, 0, 80, 59
1, 367759, Control_c, 0, 67, 13
1, 367765, Note_off_c, 0, 77, 66
1, 367789, Control_c, 0, 67, 13
1, 367803, Control_c, 0, 67, 14
1, 367808, Note_on_c, 0, 75, 67
1, 367818, Control_c, 0, 67, 14
1, 367833, Control_c, 0, 67, 15
1, 367848, Control_c, 0, 67, 17
1, 367863, Control_c, 0, 67, 18
1, 367877, Control_c, 0, 67, 20
1, 367878, Note_on_c, 0, 73, 63
1, 367881, Note_off_c, 0, 75, 61
1, 367892, Control_c, 0, 64, 106
1, 367892, Control_c, 0, 67, 23
1, 367907, Control_c, 0, 64, 77
1, 367907, Control_c, 0, 67, 26
1, 367922, Control_c, 0, 64, 61
1, 367922, Control_c, 0, 67, 31
1, 367936, Control_c, 0, 64, 32
1, 367936, Control_c, 0, 67, 35
1, 367941, Note_off_c, 0, 73, 51
1, 367951, Control_c, 0, 64, 0
1, 367951, Control_c, 0, 67, 39
1, 367966, Control_c, 0, 67, 42
1, 367969, Note_on_c, 0, 68, 58
1, 367981, Control_c, 0, 67, 45
1, 367996, Control_c, 0, 67, 47
1, 368011, Control_c, 0, 67, 48
1, 368033, Control_c, 0, 67, 50
1, 368048, Control_c, 0, 67, 51
1, 368062, Control_c, 0, 67, 52
1, 368077, Control_c, 0, 67, 54
1, 368092, Control_c, 0, 67, 58
1, 368108, Control_c, 0, 67, 62
1, 368123, Control_c, 0, 67, 67
1, 368138, Control_c, 0, 67, 71
1, 368152, Control_c, 0, 67, 75
1, 368167, Control_c, 0, 67, 78
1, 368182, Control_c, 0, 67, 82
1, 368197, Control_c, 0, 67, 87
1, 368212, Control_c, 0, 67, 93
1, 368226, Control_c, 0, 67, 100
1, 368241, Control_c, 0, 67, 105
1, 368248, Note_off_c, 0, 68, 65
1, 368256, Control_c, 0, 67, 108
1, 368271, Control_c, 0, 67, 111
1, 368286, Control_c, 0, 67, 114
1, 368300, Control_c, 0, 67, 116
1, 368315, Control_c, 0, 67, 118
1, 368330, Control_c, 0, 67, 119
1, 368345, Control_c, 0, 67, 119
1, 368359, Control_c, 0, 67, 120
1, 368445, Note_on_c, 0, 44, 32
1, 368457, Note_on_c, 0, 54, 25
1, 368464, Control_c, 0, 67, 120
1, 368473, Note_on_c, 0, 51, 13
1, 368478, Control_c, 0, 67, 121
1, 368493, Control_c, 0, 67, 123
1, 368508, Control_c, 0, 64, 21
1, 368508, Control_c, 0, 67, 123
1, 368516, Note_on_c, 0, 72, 63
1, 368523, Control_c, 0, 64, 42
1, 368523, Control_c, 0, 67, 124
1, 368538, Control_c, 0, 64, 56
1, 368538, Control_c, 0, 67, 124
1, 368552, Control_c, 0, 64, 63
1, 368552, Control_c, 0, 67, 125
1, 368554, Note_off_c, 0, 72, 63
1, 368563, Note_on_c, 0, 73, 62
1, 368567, Control_c, 0, 64, 65
1, 368567, Control_c, 0, 67, 126
1, 368582, Control_c, 0, 64, 67
1, 368582, Control_c, 0, 67, 127
1, 368597, Control_c, 0, 64, 70
1, 368612, Control_c, 0, 64, 73
1, 368617, Note_on_c, 0, 75, 75
1, 368620, Note_off_c, 0, 73, 63
1, 368626, Control_c, 0, 64, 75
1, 368635, Note_off_c, 0, 44, 38
1, 368641, Control_c, 0, 64, 77
1, 368646, Note_off_c, 0, 75, 68
1, 368656, Control_c, 0, 64, 78
1, 368670, Control_c, 0, 64, 79
1, 368673, Note_on_c, 0, 77, 77
1, 368685, Control_c, 0, 64, 79
1, 368700, Control_c, 0, 64, 80
1, 368715, Control_c, 0, 64, 80
1, 368726, Note_off_c, 0, 77, 62
1, 368730, Control_c, 0, 64, 81
1, 368736, Note_on_c, 0, 78, 72
1, 368759, Control_c, 0, 64, 81
1, 368776, Note_on_c, 0, 80, 72
1, 368795, Note_off_c, 0, 78, 58
1, 368812, Note_off_c, 0, 54, 39
1, 368812, Control_c, 0, 64, 81
1, 368823, Note_off_c, 0, 51, 39
1, 368827, Control_c, 0, 64, 77
1, 368828, Note_on_c, 0, 60, 60
1, 368836, Note_on_c, 0, 81, 75
1, 368841, Note_off_c, 0, 80, 64
1, 368841, Control_c, 0, 64, 68
1, 368856, Control_c, 0, 64, 54
1, 368861, Note_off_c, 0, 81, 68
1, 368871, Control_c, 0, 64, 0
1, 368905, Note_on_c, 0, 61, 66
1, 368911, Note_off_c, 0, 60, 61
1, 368972, Note_on_c, 0, 63, 73
1, 368974, Note_off_c, 0, 61, 63
1, 369003, Note_off_c, 0, 63, 65
1, 369042, Note_on_c, 0, 65, 62
1, 369081, Note_off_c, 0, 65, 63
1, 369085, Note_on_c, 0, 66, 66
1, 369118, Note_off_c, 0, 66, 64
1, 369131, Note_on_c, 0, 68, 62
1, 369161, Note_off_c, 0, 68, 65
1, 369181, Note_on_c, 0, 81, 66
1, 369188, Note_on_c, 0, 69, 60
1, 369210, Note_off_c, 0, 69, 67
1, 369244, Note_on_c, 0, 80, 68
1, 369263, Note_off_c, 0, 81, 60
1, 369287, Note_off_c, 0, 80, 60
1, 369296, Note_on_c, 0, 79, 66
1, 369332, Note_off_c, 0, 79, 61
1, 369361, Note_on_c, 0, 78, 68
1, 369420, Note_on_c, 0, 77, 59
1, 369421, Note_off_c, 0, 78, 58
1, 369462, Note_off_c, 0, 77, 65
1, 369474, Note_on_c, 0, 76, 60
1, 369515, Note_off_c, 0, 76, 58
1, 369544, Note_on_c, 0, 75, 67
1, 369555, Note_on_c, 0, 57, 58
1, 369574, Note_off_c, 0, 75, 67
1, 369593, Note_off_c, 0, 57, 60
1, 369629, Note_on_c, 0, 56, 59
1, 369670, Note_off_c, 0, 56, 65
1, 369692, Note_on_c, 0, 55, 64
1, 369733, Note_off_c, 0, 55, 56
1, 369775, Note_on_c, 0, 54, 50
1, 369859, Note_off_c, 0, 54, 61
1, 369868, Note_on_c, 0, 53, 52
1, 369949, Note_off_c, 0, 53, 59
1, 369956, Note_on_c, 0, 51, 47
1, 370133, Note_off_c, 0, 51, 56
1, 370148, Note_on_c, 0, 49, 37
1, 370190, Note_on_c, 0, 77, 69
1, 370214, Control_c, 0, 64, 34
1, 370217, Note_on_c, 0, 71, 35
1, 370228, Control_c, 0, 64, 48
1, 370243, Control_c, 0, 64, 55
1, 370258, Control_c, 0, 64, 60
1, 370279, Control_c, 0, 64, 63
1, 370294, Control_c, 0, 64, 65
1, 370309, Control_c, 0, 64, 68
1, 370310, Note_off_c, 0, 49, 56
1, 370324, Note_on_c, 0, 56, 48
1, 370324, Control_c, 0, 64, 71
1, 370339, Control_c, 0, 64, 75
1, 370348, Note_off_c, 0, 71, 0
1, 370348, Note_on_c, 0, 71, 3
1, 370354, Control_c, 0, 64, 80
1, 370359, Note_off_c, 0, 56, 51
1, 370369, Control_c, 0, 64, 86
1, 370383, Control_c, 0, 64, 91
1, 370384, Note_on_c, 0, 61, 55
1, 370398, Control_c, 0, 64, 96
1, 370407, Note_off_c, 0, 61, 63
1, 370413, Control_c, 0, 64, 99
1, 370455, Note_on_c, 0, 65, 52
1, 370485, Note_off_c, 0, 65, 60
1, 370503, Note_on_c, 0, 61, 55
1, 370532, Note_off_c, 0, 61, 63
1, 370545, Note_on_c, 0, 56, 49
1, 370620, Note_off_c, 0, 56, 53
1, 370622, Note_on_c, 0, 49, 53
1, 370654, Note_off_c, 0, 49, 63
1, 370683, Note_on_c, 0, 59, 55
1, 370696, Control_c, 0, 67, 126
1, 370710, Control_c, 0, 67, 126
1, 370711, Note_off_c, 0, 59, 65
1, 370740, Control_c, 0, 67, 126
1, 370754, Control_c, 0, 67, 127
1, 370763, Note_on_c, 0, 75, 67
1, 370769, Control_c, 0, 64, 98
1, 370780, Note_on_c, 0, 61, 45
1, 370784, Control_c, 0, 67, 126
1, 370790, Note_off_c, 0, 77, 60
1, 370799, Control_c, 0, 67, 125
1, 370813, Note_off_c, 0, 61, 53
1, 370814, Control_c, 0, 64, 98
1, 370814, Control_c, 0, 67, 124
1, 370828, Control_c, 0, 67, 123
1, 370843, Control_c, 0, 64, 97
1, 370843, Control_c, 0, 67, 122
1, 370858, Control_c, 0, 64, 97
1, 370858, Control_c, 0, 67, 121
1, 370867, Note_on_c, 0, 65, 54
1, 370873, Control_c, 0, 67, 120
1, 370888, Control_c, 0, 64, 96
1, 370888, Control_c, 0, 67, 119
1, 370900, Note_off_c, 0, 65, 59
1, 370902, Control_c, 0, 64, 95
1, 370902, Control_c, 0, 67, 116
1, 370917, Control_c, 0, 64, 94
1, 370917, Control_c, 0, 67, 114
1, 370932, Note_on_c, 0, 73, 74
1, 370932, Control_c, 0, 64, 93
1, 370932, Control_c, 0, 67, 113
1, 370942, Note_off_c, 0, 75, 62
1, 370947, Control_c, 0, 64, 92
1, 370949, Note_off_c, 0, 71, 51
1, 370962, Control_c, 0, 64, 90
1, 370962, Control_c, 0, 67, 112
1, 370962, Note_off_c, 0, 73, 64
1, 370967, Note_on_c, 0, 59, 41
1, 370977, Control_c, 0, 64, 87
1, 370977, Control_c, 0, 67, 111
1, 370992, Control_c, 0, 64, 82
1, 370992, Control_c, 0, 67, 109
1, 371006, Control_c, 0, 64, 73
1, 371006, Control_c, 0, 67, 107
1, 371017, Note_off_c, 0, 59, 55
1, 371028, Control_c, 0, 64, 65
1, 371028, Control_c, 0, 67, 106
1, 371033, Note_on_c, 0, 73, 71
1, 371043, Control_c, 0, 64, 54
1, 371043, Control_c, 0, 67, 105
1, 371048, Note_on_c, 0, 54, 54
1, 371058, Control_c, 0, 64, 40
1, 371058, Control_c, 0, 67, 104
1, 371072, Note_on_c, 0, 71, 29
1, 371072, Control_c, 0, 64, 26
1, 371072, Control_c, 0, 67, 104
1, 371087, Control_c, 0, 64, 25
1, 371087, Control_c, 0, 67, 102
1, 371102, Control_c, 0, 64, 32
1, 371102, Control_c, 0, 67, 100
1, 371117, Control_c, 0, 64, 47
1, 371117, Control_c, 0, 67, 99
1, 371132, Control_c, 0, 64, 59
1, 371132, Control_c, 0, 67, 98
1, 371147, Control_c, 0, 64, 66
1, 371147, Control_c, 0, 67, 97
1, 371151, Note_on_c, 0, 59, 38
1, 371161, Control_c, 0, 64, 71
1, 371161, Control_c, 0, 67, 96
1, 371176, Control_c, 0, 64, 76
1, 371176, Control_c, 0, 67, 94
1, 371184, Note_off_c, 0, 59, 53
1, 371191, Control_c, 0, 64, 79
1, 371191, Control_c, 0, 67, 93
1, 371196, Note_on_c, 0, 61, 55
1, 371206, Control_c, 0, 64, 81
1, 371206, Control_c, 0, 67, 91
1, 371221, Note_off_c, 0, 61, 58
1, 371221, Control_c, 0, 64, 84
1, 371221, Control_c, 0, 67, 90
1, 371236, Control_c, 0, 64, 87
1, 371236, Control_c, 0, 67, 88
1, 371251, Control_c, 0, 64, 89
1, 371251, Control_c, 0, 67, 87
1, 371266, Control_c, 0, 64, 90
1, 371266, Control_c, 0, 67, 84
1, 371272, Note_on_c, 0, 66, 45
1, 371274, Note_off_c, 0, 54, 57
1, 371280, Control_c, 0, 67, 82
1, 371296, Control_c, 0, 64, 91
1, 371296, Control_c, 0, 67, 81
1, 371299, Note_off_c, 0, 66, 55
1, 371311, Note_on_c, 0, 61, 58
1, 371311, Control_c, 0, 67, 80
1, 371325, Control_c, 0, 67, 80
1, 371337, Note_off_c, 0, 61, 61
1, 371340, Control_c, 0, 67, 79
1, 371355, Control_c, 0, 67, 78
1, 371370, Control_c, 0, 67, 76
1, 371385, Control_c, 0, 67, 73
1, 371387, Note_on_c, 0, 59, 55
1, 371400, Control_c, 0, 67, 72
1, 371409, Note_off_c, 0, 59, 63
1, 371415, Control_c, 0, 64, 90
1, 371415, Control_c, 0, 67, 70
1, 371430, Control_c, 0, 67, 68
1, 371444, Control_c, 0, 67, 67
1, 371459, Control_c, 0, 64, 90
1, 371474, Control_c, 0, 64, 88
1, 371489, Control_c, 0, 64, 85
1, 371489, Control_c, 0, 67, 67
1, 371503, Control_c, 0, 64, 79
1, 371509, Note_on_c, 0, 78, 82
1, 371513, Note_on_c, 0, 49, 50
1, 371518, Control_c, 0, 64, 69
1, 371533, Control_c, 0, 64, 60
1, 371540, Note_off_c, 0, 73, 64
1, 371548, Control_c, 0, 64, 44
1, 371557, Note_on_c, 0, 70, 46
1, 371563, Control_c, 0, 64, 21
1, 371563, Control_c, 0, 67, 66
1, 371576, Note_off_c, 0, 71, 35
1, 371577, Control_c, 0, 64, 12
1, 371592, Control_c, 0, 64, 26
1, 371592, Control_c, 0, 67, 66
1, 371607, Control_c, 0, 64, 43
1, 371622, Control_c, 0, 64, 58
1, 371622, Control_c, 0, 67, 64
1, 371637, Control_c, 0, 64, 65
1, 371637, Control_c, 0, 67, 62
1, 371651, Control_c, 0, 64, 70
1, 371651, Control_c, 0, 67, 60
1, 371666, Control_c, 0, 64, 74
1, 371666, Control_c, 0, 67, 58
1, 371678, Note_on_c, 0, 58, 48
1, 371681, Control_c, 0, 64, 78
1, 371681, Control_c, 0, 67, 58
1, 371682, Note_off_c, 0, 49, 57
1, 371695, Control_c, 0, 64, 80
1, 371695, Control_c, 0, 67, 57
1, 371710, Control_c, 0, 64, 84
1, 371725, Control_c, 0, 64, 88
1, 371725, Control_c, 0, 67, 57
1, 371737, Note_off_c, 0, 58, 61
1, 371740, Control_c, 0, 64, 90
1, 371755, Control_c, 0, 64, 93
1, 371755, Control_c, 0, 67, 56
1, 371764, Note_on_c, 0, 61, 48
1, 371777, Control_c, 0, 64, 94
1, 371777, Control_c, 0, 67, 56
1, 371792, Control_c, 0, 67, 54
1, 371796, Note_off_c, 0, 61, 59
1, 371807, Control_c, 0, 64, 95
1, 371807, Control_c, 0, 67, 53
1, 371822, Control_c, 0, 67, 52
1, 371861, Note_on_c, 0, 66, 39
1, 371896, Note_on_c, 0, 61, 59
1, 371899, Note_off_c, 0, 66, 50
1, 371940, Control_c, 0, 64, 94
1, 371965, Note_off_c, 0, 61, 50
1, 371970, Control_c, 0, 64, 93
1, 371984, Control_c, 0, 64, 91
1, 371999, Control_c, 0, 64, 89
1, 372014, Control_c, 0, 64, 87
1, 372029, Control_c, 0, 64, 83
1, 372034, Note_on_c, 0, 56, 54
1, 372044, Control_c, 0, 64, 78
1, 372059, Control_c, 0, 64, 70
1, 372060, Note_on_c, 0, 71, 61
1, 372074, Control_c, 0, 64, 63
1, 372089, Control_c, 0, 64, 51
1, 372104, Control_c, 0, 64, 35
1, 372113, Note_off_c, 0, 70, 61
1, 372118, Control_c, 0, 64, 18
1, 372133, Control_c, 0, 64, 19
1, 372148, Control_c, 0, 64, 29
1, 372160, Note_on_c, 0, 59, 44
1, 372163, Control_c, 0, 64, 43
1, 372178, Control_c, 0, 64, 55
1, 372178, Control_c, 0, 67, 52
1, 372193, Control_c, 0, 64, 64
1, 372208, Control_c, 0, 64, 68
1, 372208, Control_c, 0, 67, 51
1, 372223, Control_c, 0, 64, 73
1, 372229, Note_on_c, 0, 61, 57
1, 372238, Control_c, 0, 64, 78
1, 372241, Note_off_c, 0, 59, 53
1, 372252, Control_c, 0, 64, 81
1, 372252, Control_c, 0, 67, 51
1, 372267, Control_c, 0, 64, 84
1, 372271, Note_off_c, 0, 61, 60
1, 372282, Control_c, 0, 64, 87
1, 372282, Control_c, 0, 67, 50
1, 372297, Note_on_c, 0, 68, 55
1, 372297, Control_c, 0, 64, 90
1, 372297, Control_c, 0, 67, 50
1, 372312, Control_c, 0, 64, 91
1, 372312, Control_c, 0, 67, 49
1, 372317, Note_off_c, 0, 68, 63
1, 372326, Control_c, 0, 64, 91
1, 372326, Control_c, 0, 67, 46
1, 372341, Note_off_c, 0, 56, 56
1, 372341, Control_c, 0, 67, 45
1, 372356, Control_c, 0, 67, 44
1, 372367, Note_on_c, 0, 61, 63
1, 372371, Control_c, 0, 67, 43
1, 372390, Note_on_c, 0, 77, 75
1, 372415, Control_c, 0, 67, 43
1, 372418, Note_off_c, 0, 61, 58
1, 372430, Control_c, 0, 67, 42
1, 372438, Note_off_c, 0, 78, 61
1, 372445, Control_c, 0, 67, 41
1, 372456, Note_on_c, 0, 59, 49
1, 372460, Control_c, 0, 67, 40
1, 372471, Note_off_c, 0, 77, 62
1, 372474, Control_c, 0, 67, 39
1, 372487, Note_off_c, 0, 59, 63
1, 372489, Control_c, 0, 67, 38
1, 372505, Control_c, 0, 67, 36
1, 372527, Control_c, 0, 64, 91
1, 372527, Control_c, 0, 67, 34
1, 372542, Control_c, 0, 64, 90
1, 372542, Control_c, 0, 67, 32
1, 372557, Control_c, 0, 67, 30
1, 372571, Control_c, 0, 64, 90
1, 372571, Control_c, 0, 67, 29
1, 372576, Note_on_c, 0, 49, 59
1, 372586, Control_c, 0, 67, 28
1, 372589, Note_on_c, 0, 77, 78
1, 372601, Control_c, 0, 64, 89
1, 372601, Control_c, 0, 67, 27
1, 372616, Control_c, 0, 67, 25
1, 372631, Control_c, 0, 64, 89
1, 372631, Control_c, 0, 67, 24
1, 372646, Control_c, 0, 64, 88
1, 372646, Control_c, 0, 67, 24
1, 372660, Control_c, 0, 67, 22
1, 372675, Control_c, 0, 67, 21
1, 372690, Control_c, 0, 64, 88
1, 372690, Control_c, 0, 67, 20
1, 372691, Note_off_c, 0, 49, 55
1, 372705, Control_c, 0, 67, 19
1, 372709, Note_on_c, 0, 59, 17
1, 372734, Control_c, 0, 64, 87
1, 372748, Note_on_c, 0, 75, 75
1, 372749, Control_c, 0, 67, 19
1, 372750, Note_off_c, 0, 59, 51
1, 372759, Poly_aftertouch_c, 0, 56, 127
1, 372761, Note_on_c, 0, 61, 57
1, 372779, Control_c, 0, 67, 18
1, 372794, Control_c, 0, 67, 18
1, 372804, Note_off_c, 0, 61, 59
1, 372805, Poly_aftertouch_c, 0, 56, 0
1, 372808, Control_c, 0, 67, 17
1, 372823, Note_off_c, 0, 77, 60
1, 372823, Control_c, 0, 67, 17
1, 372838, Control_c, 0, 64, 87
1, 372838, Control_c, 0, 67, 16
1, 372852, Note_on_c, 0, 65, 53
1, 372852, Control_c, 0, 67, 15
1, 372867, Control_c, 0, 67, 13
1, 372882, Control_c, 0, 67, 12
1, 372893, Note_off_c, 0, 65, 58
1, 372896, Note_on_c, 0, 73, 79
1, 372898, Control_c, 0, 67, 11
1, 372913, Control_c, 0, 67, 9
1, 372926, Note_on_c, 0, 61, 32
1, 372928, Control_c, 0, 64, 86
1, 372928, Control_c, 0, 67, 8
1, 372936, Note_off_c, 0, 71, 61
1, 372941, Note_off_c, 0, 75, 62
1, 372958, Note_off_c, 0, 61, 48
1, 372972, Control_c, 0, 64, 86
1, 372974, Note_off_c, 0, 73, 63
1, 372993, Note_on_c, 0, 59, 15
1, 373002, Control_c, 0, 64, 85
1, 373016, Control_c, 0, 64, 85
1, 373016, Control_c, 0, 67, 9
1, 373031, Control_c, 0, 64, 84
1, 373031, Control_c, 0, 67, 9
1, 373036, Note_off_c, 0, 59, 53
1, 373046, Control_c, 0, 64, 83
1, 373046, Control_c, 0, 67, 10
1, 373061, Control_c, 0, 64, 82
1, 373061, Control_c, 0, 67, 11
1, 373076, Control_c, 0, 64, 80
1, 373090, Control_c, 0, 64, 76
1, 373090, Control_c, 0, 67, 11
1, 373097, Note_on_c, 0, 54, 46
1, 373105, Control_c, 0, 64, 70
1, 373105, Control_c, 0, 67, 12
1, 373111, Note_on_c, 0, 82, 73
1, 373120, Control_c, 0, 64, 62
1, 373120, Control_c, 0, 67, 13
1, 373135, Control_c, 0, 64, 51
1, 373135, Control_c, 0, 67, 14
1, 373150, Control_c, 0, 64, 36
1, 373150, Control_c, 0, 67, 15
1, 373151, Note_on_c, 0, 70, 33
1, 373156, Note_on_c, 0, 73, 34
1, 373165, Control_c, 0, 64, 21
1, 373165, Control_c, 0, 67, 15
1, 373180, Control_c, 0, 64, 18
1, 373195, Control_c, 0, 64, 23
1, 373210, Control_c, 0, 64, 33
1, 373210, Control_c, 0, 67, 16
1, 373224, Control_c, 0, 64, 49
1, 373224, Control_c, 0, 67, 18
1, 373239, Control_c, 0, 64, 60
1, 373239, Control_c, 0, 67, 20
1, 373251, Note_on_c, 0, 58, 25
1, 373254, Control_c, 0, 64, 66
1, 373254, Control_c, 0, 67, 20
1, 373277, Control_c, 0, 64, 70
1, 373277, Control_c, 0, 67, 21
1, 373292, Control_c, 0, 64, 74
1, 373306, Control_c, 0, 64, 76
1, 373321, Control_c, 0, 64, 79
1, 373336, Control_c, 0, 64, 82
1, 373336, Control_c, 0, 67, 22
1, 373342, Note_on_c, 0, 61, 53
1, 373348, Note_off_c, 0, 58, 38
1, 373350, Control_c, 0, 64, 85
1, 373350, Control_c, 0, 67, 22
1, 373365, Control_c, 0, 64, 86
1, 373365, Control_c, 0, 67, 23
1, 373376, Note_off_c, 0, 61, 58
1, 373380, Control_c, 0, 64, 87
1, 373380, Control_c, 0, 67, 24
1, 373395, Control_c, 0, 64, 87
1, 373395, Control_c, 0, 67, 25
1, 373410, Control_c, 0, 64, 88
1, 373410, Control_c, 0, 67, 28
1, 373424, Control_c, 0, 64, 88
1, 373424, Control_c, 0, 67, 32
1, 373426, Note_on_c, 0, 66, 47
1, 373439, Control_c, 0, 64, 89
1, 373439, Control_c, 0, 67, 36
1, 373453, Note_off_c, 0, 82, 60
1, 373454, Control_c, 0, 64, 89
1, 373454, Control_c, 0, 67, 41
1, 373455, Note_off_c, 0, 66, 54
1, 373461, Note_off_c, 0, 54, 43
1, 373469, Control_c, 0, 67, 45
1, 373475, Note_on_c, 0, 61, 57
1, 373483, Note_off_c, 0, 70, 50
1, 373484, Control_c, 0, 67, 47
1, 373498, Control_c, 0, 67, 46
1, 373502, Note_off_c, 0, 61, 61
1, 373502, Note_off_c, 0, 73, 58
1, 373513, Control_c, 0, 67, 46
1, 373543, Control_c, 0, 67, 45
1, 373545, Note_on_c, 0, 58, 46
1, 373558, Control_c, 0, 67, 45
1, 373573, Control_c, 0, 67, 44
1, 373588, Control_c, 0, 64, 89
1, 373588, Control_c, 0, 67, 43
1, 373603, Control_c, 0, 64, 87
1, 373603, Note_off_c, 0, 58, 60
1, 373618, Control_c, 0, 64, 84
1, 373627, Note_on_c, 0, 52, 63
1, 373632, Control_c, 0, 64, 76
1, 373632, Control_c, 0, 67, 44
1, 373638, Note_on_c, 0, 82, 75
1, 373647, Control_c, 0, 64, 67
1, 373647, Control_c, 0, 67, 44
1, 373660, Note_on_c, 0, 73, 43
1, 373662, Control_c, 0, 64, 55
1, 373662, Control_c, 0, 67, 45
1, 373667, Note_on_c, 0, 68, 45
1, 373676, Control_c, 0, 64, 36
1, 373692, Control_c, 0, 64, 12
1, 373692, Control_c, 0, 67, 45
1, 373707, Control_c, 0, 64, 18
1, 373707, Control_c, 0, 67, 46
1, 373722, Control_c, 0, 64, 40
1, 373722, Control_c, 0, 67, 46
1, 373737, Control_c, 0, 64, 58
1, 373737, Control_c, 0, 67, 47
1, 373752, Control_c, 0, 64, 66
1, 373767, Control_c, 0, 64, 70
1, 373767, Control_c, 0, 67, 47
1, 373778, Note_on_c, 0, 58, 56
1, 373781, Control_c, 0, 64, 74
1, 373785, Note_off_c, 0, 52, 59
1, 373796, Control_c, 0, 64, 77
1, 373796, Control_c, 0, 67, 48
1, 373811, Control_c, 0, 64, 80
1, 373811, Control_c, 0, 67, 49
1, 373816, Note_off_c, 0, 58, 61
1, 373818, Note_off_c, 0, 68, 51
1, 373826, Control_c, 0, 64, 84
1, 373826, Control_c, 0, 67, 51
1, 373840, Control_c, 0, 64, 87
1, 373840, Control_c, 0, 67, 54
1, 373855, Control_c, 0, 64, 88
1, 373855, Control_c, 0, 67, 57
1, 373857, Note_on_c, 0, 61, 53
1, 373868, Note_off_c, 0, 82, 59
1, 373870, Control_c, 0, 64, 89
1, 373870, Control_c, 0, 67, 59
1, 373885, Control_c, 0, 64, 89
1, 373885, Control_c, 0, 67, 63
1, 373889, Note_off_c, 0, 61, 51
1, 373896, Note_off_c, 0, 73, 58
1, 373899, Control_c, 0, 67, 68
1, 373914, Control_c, 0, 67, 74
1, 373929, Control_c, 0, 67, 79
1, 373944, Control_c, 0, 67, 84
1, 373955, Note_on_c, 0, 68, 46
1, 373959, Control_c, 0, 64, 89
1, 373959, Control_c, 0, 67, 88
1, 373973, Control_c, 0, 67, 91
1, 373978, Note_off_c, 0, 68, 59
1, 373988, Control_c, 0, 67, 93
1, 374008, Note_on_c, 0, 82, 69
1, 374014, Note_on_c, 0, 61, 55
1, 374026, Control_c, 0, 67, 94
1, 374041, Control_c, 0, 64, 88
1, 374041, Control_c, 0, 67, 95
1, 374055, Control_c, 0, 64, 87
1, 374055, Control_c, 0, 67, 98
1, 374059, Note_off_c, 0, 61, 60
1, 374070, Control_c, 0, 64, 86
1, 374070, Control_c, 0, 67, 101
1, 374083, Note_off_c, 0, 82, 62
1, 374085, Control_c, 0, 64, 86
1, 374085, Control_c, 0, 67, 103
1, 374099, Control_c, 0, 64, 85
1, 374099, Control_c, 0, 67, 104
1, 374114, Control_c, 0, 64, 85
1, 374122, Note_on_c, 0, 67, 48
1, 374129, Control_c, 0, 64, 84
1, 374144, Control_c, 0, 64, 84
1, 374144, Control_c, 0, 67, 105
1, 374150, Note_off_c, 0, 67, 54
1, 374159, Control_c, 0, 64, 83
1, 374159, Control_c, 0, 67, 106
1, 374160, Poly_aftertouch_c, 0, 58, 127
1, 374173, Control_c, 0, 64, 82
1, 374173, Control_c, 0, 67, 108
1, 374188, Control_c, 0, 64, 80
1, 374188, Control_c, 0, 67, 109
1, 374202, Poly_aftertouch_c, 0, 58, 0
1, 374203, Control_c, 0, 64, 77
1, 374203, Control_c, 0, 67, 110
1, 374214, Note_on_c, 0, 82, 66
1, 374217, Note_on_c, 0, 51, 52
1, 374218, Control_c, 0, 64, 72
1, 374218, Control_c, 0, 67, 110
1, 374233, Control_c, 0, 64, 64
1, 374233, Control_c, 0, 67, 111
1, 374244, Note_on_c, 0, 73, 51
1, 374247, Control_c, 0, 64, 54
1, 374262, Control_c, 0, 64, 37
1, 374262, Control_c, 0, 67, 111
1, 374277, Control_c, 0, 64, 0
1, 374277, Control_c, 0, 67, 112
1, 374291, Control_c, 0, 67, 113
1, 374321, Control_c, 0, 64, 28
1, 374327, Note_on_c, 0, 58, 37
1, 374336, Control_c, 0, 64, 51
1, 374351, Control_c, 0, 64, 62
1, 374351, Control_c, 0, 67, 112
1, 374366, Control_c, 0, 64, 68
1, 374381, Control_c, 0, 64, 71
1, 374381, Control_c, 0, 67, 112
1, 374396, Control_c, 0, 64, 74
1, 374396, Control_c, 0, 67, 111
1, 374403, Note_off_c, 0, 51, 58
1, 374411, Control_c, 0, 64, 76
1, 374411, Control_c, 0, 67, 111
1, 374426, Control_c, 0, 64, 77
1, 374426, Control_c, 0, 67, 110
1, 374432, Note_on_c, 0, 61, 46
1, 374433, Note_off_c, 0, 58, 61
1, 374440, Control_c, 0, 64, 80
1, 374440, Control_c, 0, 67, 109
1, 374455, Control_c, 0, 64, 82
1, 374455, Control_c, 0, 67, 109
1, 374458, Note_off_c, 0, 61, 56
1, 374470, Control_c, 0, 64, 83
1, 374485, Control_c, 0, 67, 108
1, 374500, Control_c, 0, 67, 108
1, 374506, Note_on_c, 0, 67, 35
1, 374515, Control_c, 0, 67, 107
1, 374530, Control_c, 0, 67, 106
1, 374540, Note_off_c, 0, 67, 51
1, 374545, Control_c, 0, 67, 106
1, 374552, Note_on_c, 0, 61, 57
1, 374592, Note_on_c, 0, 75, 66
1, 374604, Control_c, 0, 67, 105
1, 374613, Note_off_c, 0, 61, 50
1, 374619, Control_c, 0, 67, 105
1, 374629, Note_off_c, 0, 75, 61
1, 374634, Control_c, 0, 67, 104
1, 374649, Control_c, 0, 67, 104
1, 374663, Control_c, 0, 67, 103
1, 374673, Note_on_c, 0, 58, 35
1, 374678, Control_c, 0, 64, 81
1, 374678, Control_c, 0, 67, 103
1, 374693, Control_c, 0, 64, 77
1, 374693, Control_c, 0, 67, 102
1, 374708, Note_off_c, 0, 58, 54
1, 374708, Control_c, 0, 64, 69
1, 374708, Control_c, 0, 67, 102
1, 374722, Control_c, 0, 64, 60
1, 374722, Control_c, 0, 67, 101
1, 374728, Note_on_c, 0, 55, 58
1, 374737, Control_c, 0, 64, 42
1, 374737, Control_c, 0, 67, 100
1, 374751, Control_c, 0, 64, 32
1, 374751, Control_c, 0, 67, 99
1, 374762, Note_on_c, 0, 75, 60
1, 374774, Control_c, 0, 64, 43
1, 374774, Control_c, 0, 67, 97
1, 374789, Control_c, 0, 64, 58
1, 374789, Control_c, 0, 67, 95
1, 374803, Control_c, 0, 64, 67
1, 374803, Control_c, 0, 67, 92
1, 374818, Control_c, 0, 64, 72
1, 374818, Control_c, 0, 67, 90
1, 374833, Control_c, 0, 64, 76
1, 374833, Control_c, 0, 67, 87
1, 374847, Note_off_c, 0, 55, 63
1, 374848, Control_c, 0, 64, 78
1, 374848, Control_c, 0, 67, 85
1, 374863, Control_c, 0, 64, 79
1, 374863, Control_c, 0, 67, 82
1, 374870, Note_on_c, 0, 61, 58
1, 374872, Note_off_c, 0, 82, 63
1, 374877, Control_c, 0, 64, 81
1, 374877, Control_c, 0, 67, 79
1, 374892, Control_c, 0, 64, 82
1, 374892, Control_c, 0, 67, 75
1, 374894, Note_on_c, 0, 77, 66
1, 374903, Note_off_c, 0, 73, 63
1, 374903, Note_off_c, 0, 75, 63
1, 374907, Control_c, 0, 64, 83
1, 374907, Control_c, 0, 67, 71
1, 374921, Control_c, 0, 64, 84
1, 374921, Control_c, 0, 67, 64
1, 374928, Note_on_c, 0, 79, 57
1, 374928, Note_off_c, 0, 77, 65
1, 374936, Control_c, 0, 64, 84
1, 374936, Control_c, 0, 67, 59
1, 374939, Note_off_c, 0, 61, 44
1, 374941, Note_on_c, 0, 63, 45
1, 374951, Control_c, 0, 64, 85
1, 374951, Control_c, 0, 67, 56
1, 374966, Control_c, 0, 64, 85
1, 374966, Control_c, 0, 67, 54
1, 374970, Note_off_c, 0, 63, 57
1, 374981, Control_c, 0, 67, 52
1, 374995, Note_on_c, 0, 77, 66
1, 374995, Control_c, 0, 67, 49
1, 375001, Note_off_c, 0, 79, 65
1, 375010, Note_off_c, 0, 77, 69
1, 375010, Control_c, 0, 67, 46
1, 375011, Note_on_c, 0, 70, 54
1, 375025, Control_c, 0, 67, 43
1, 375038, Note_off_c, 0, 70, 56
1, 375040, Control_c, 0, 67, 42
1, 375055, Control_c, 0, 67, 41
1, 375078, Note_on_c, 0, 63, 46
1, 375113, Note_off_c, 0, 63, 51
1, 375114, Control_c, 0, 64, 85
1, 375114, Control_c, 0, 67, 41
1, 375129, Control_c, 0, 67, 40
1, 375155, Note_on_c, 0, 75, 69
1, 375159, Control_c, 0, 64, 84
1, 375174, Control_c, 0, 64, 84
1, 375180, Note_off_c, 0, 75, 64
1, 375188, Control_c, 0, 64, 83
1, 375203, Control_c, 0, 64, 81
1, 375218, Control_c, 0, 64, 78
1, 375229, Note_on_c, 0, 56, 50
1, 375233, Control_c, 0, 64, 72
1, 375233, Control_c, 0, 67, 40
1, 375240, Note_on_c, 0, 75, 68
1, 375247, Control_c, 0, 64, 65
1, 375257, Note_on_c, 0, 73, 34
1, 375262, Control_c, 0, 64, 55
1, 375277, Control_c, 0, 64, 39
1, 375277, Control_c, 0, 67, 39
1, 375293, Control_c, 0, 64, 22
1, 375293, Control_c, 0, 67, 37
1, 375308, Control_c, 0, 67, 36
1, 375323, Control_c, 0, 64, 36
1, 375331, Note_on_c, 0, 61, 43
1, 375338, Control_c, 0, 64, 53
1, 375338, Control_c, 0, 67, 36
1, 375352, Control_c, 0, 64, 63
1, 375367, Control_c, 0, 64, 67
1, 375372, Note_off_c, 0, 61, 56
1, 375382, Control_c, 0, 64, 70
1, 375390, Note_on_c, 0, 63, 49
1, 375397, Control_c, 0, 64, 72
1, 375397, Control_c, 0, 67, 35
1, 375412, Control_c, 0, 64, 74
1, 375425, Note_off_c, 0, 56, 37
1, 375426, Control_c, 0, 64, 77
1, 375430, Note_off_c, 0, 63, 64
1, 375441, Control_c, 0, 64, 81
1, 375456, Control_c, 0, 64, 82
1, 375456, Control_c, 0, 67, 35
1, 375464, Note_on_c, 0, 68, 50
1, 375471, Control_c, 0, 64, 83
1, 375471, Control_c, 0, 67, 34
1, 375486, Control_c, 0, 64, 84
1, 375486, Control_c, 0, 67, 33
1, 375489, Note_off_c, 0, 68, 55
1, 375535, Note_on_c, 0, 63, 58
1, 375568, Note_off_c, 0, 63, 58
1, 375592, Note_off_c, 0, 73, 58
1, 375596, Control_c, 0, 67, 34
1, 375604, Note_on_c, 0, 61, 54
1, 375611, Control_c, 0, 67, 35
1, 375625, Control_c, 0, 67, 36
1, 375640, Control_c, 0, 67, 37
1, 375655, Control_c, 0, 67, 38
1, 375656, Note_off_c, 0, 61, 42
1, 375670, Control_c, 0, 64, 83
1, 375685, Control_c, 0, 64, 83
1, 375699, Control_c, 0, 64, 81
1, 375714, Control_c, 0, 64, 80
1, 375714, Control_c, 0, 67, 39
1, 375718, Note_on_c, 0, 51, 46
1, 375729, Control_c, 0, 64, 78
1, 375729, Control_c, 0, 67, 40
1, 375743, Control_c, 0, 64, 73
1, 375743, Control_c, 0, 67, 41
1, 375747, Note_on_c, 0, 80, 73
1, 375758, Control_c, 0, 64, 68
1, 375758, Control_c, 0, 67, 42
1, 375773, Control_c, 0, 64, 60
1, 375788, Control_c, 0, 64, 48
1, 375788, Control_c, 0, 67, 43
1, 375794, Note_on_c, 0, 72, 39
1, 375803, Control_c, 0, 64, 28
1, 375818, Control_c, 0, 64, 9
1, 375818, Control_c, 0, 67, 44
1, 375832, Note_off_c, 0, 75, 64
1, 375833, Control_c, 0, 64, 16
1, 375833, Control_c, 0, 67, 45
1, 375847, Control_c, 0, 64, 30
1, 375862, Control_c, 0, 64, 45
1, 375862, Control_c, 0, 67, 46
1, 375877, Control_c, 0, 64, 57
1, 375877, Control_c, 0, 67, 46
1, 375886, Note_on_c, 0, 60, 49
1, 375892, Control_c, 0, 64, 64
1, 375892, Control_c, 0, 67, 47
1, 375903, Note_off_c, 0, 51, 58
1, 375907, Control_c, 0, 64, 67
1, 375907, Control_c, 0, 67, 48
1, 375922, Control_c, 0, 64, 69
1, 375922, Control_c, 0, 67, 49
1, 375936, Control_c, 0, 64, 72
1, 375936, Control_c, 0, 67, 53
1, 375951, Control_c, 0, 64, 74
1, 375951, Control_c, 0, 67, 56
1, 375966, Control_c, 0, 64, 77
1, 375966, Control_c, 0, 67, 60
1, 375976, Note_off_c, 0, 60, 58
1, 375981, Control_c, 0, 64, 79
1, 375981, Control_c, 0, 67, 64
1, 375982, Note_off_c, 0, 72, 58
1, 375996, Note_on_c, 0, 63, 50
1, 375996, Control_c, 0, 64, 80
1, 375996, Control_c, 0, 67, 67
1, 376010, Control_c, 0, 64, 81
1, 376010, Control_c, 0, 67, 69
1, 376022, Note_off_c, 0, 63, 58
1, 376025, Control_c, 0, 67, 70
1, 376040, Control_c, 0, 67, 71
1, 376053, Note_on_c, 0, 68, 50
1, 376055, Control_c, 0, 67, 72
1, 376069, Control_c, 0, 67, 75
1, 376086, Control_c, 0, 67, 77
1, 376089, Note_off_c, 0, 68, 50
1, 376101, Control_c, 0, 67, 79
1, 376115, Control_c, 0, 67, 79
1, 376116, Note_on_c, 0, 63, 60
1, 376130, Control_c, 0, 67, 79
1, 376145, Control_c, 0, 67, 78
1, 376157, Note_off_c, 0, 63, 62
1, 376160, Control_c, 0, 67, 77
1, 376175, Note_on_c, 0, 60, 54
1, 376189, Control_c, 0, 67, 77
1, 376204, Control_c, 0, 67, 76
1, 376213, Note_off_c, 0, 60, 60
1, 376219, Control_c, 0, 64, 80
1, 376219, Control_c, 0, 67, 76
1, 376234, Control_c, 0, 64, 79
1, 376234, Control_c, 0, 67, 75
1, 376249, Control_c, 0, 64, 78
1, 376249, Control_c, 0, 67, 74
1, 376256, Note_on_c, 0, 58, 54
1, 376271, Control_c, 0, 64, 75
1, 376271, Control_c, 0, 67, 73
1, 376285, Note_on_c, 0, 73, 59
1, 376286, Control_c, 0, 64, 71
1, 376286, Control_c, 0, 67, 73
1, 376301, Control_c, 0, 64, 64
1, 376301, Control_c, 0, 67, 72
1, 376315, Control_c, 0, 64, 54
1, 376315, Control_c, 0, 67, 71
1, 376330, Control_c, 0, 64, 38
1, 376330, Control_c, 0, 67, 70
1, 376345, Control_c, 0, 64, 20
1, 376345, Control_c, 0, 67, 69
1, 376360, Control_c, 0, 64, 26
1, 376360, Control_c, 0, 67, 69
1, 376375, Control_c, 0, 64, 42
1, 376375, Control_c, 0, 67, 68
1, 376386, Note_on_c, 0, 61, 43
1, 376390, Control_c, 0, 64, 57
1, 376390, Control_c, 0, 67, 68
1, 376405, Control_c, 0, 64, 64
1, 376405, Control_c, 0, 67, 67
1, 376420, Control_c, 0, 64, 68
1, 376420, Control_c, 0, 67, 67
1, 376426, Note_on_c, 0, 79, 73
1, 376432, Note_off_c, 0, 61, 55
1, 376433, Note_on_c, 0, 63, 52
1, 376435, Control_c, 0, 64, 71
1, 376449, Control_c, 0, 64, 74
1, 376449, Control_c, 0, 67, 66
1, 376464, Control_c, 0, 64, 77
1, 376464, Control_c, 0, 67, 66
1, 376476, Note_off_c, 0, 63, 62
1, 376479, Control_c, 0, 64, 80
1, 376479, Control_c, 0, 67, 65
1, 376493, Control_c, 0, 64, 83
1, 376493, Control_c, 0, 67, 64
1, 376506, Note_on_c, 0, 70, 58
1, 376508, Control_c, 0, 64, 85
1, 376508, Control_c, 0, 67, 64
1, 376523, Control_c, 0, 64, 87
1, 376523, Control_c, 0, 67, 63
1, 376529, Note_off_c, 0, 58, 43
1, 376529, Note_off_c, 0, 70, 61
1, 376538, Control_c, 0, 64, 89
1, 376538, Control_c, 0, 67, 61
1, 376553, Control_c, 0, 64, 90
1, 376553, Control_c, 0, 67, 59
1, 376560, Note_on_c, 0, 77, 76
1, 376567, Note_off_c, 0, 80, 26
1, 376567, Control_c, 0, 64, 92
1, 376567, Control_c, 0, 67, 58
1, 376580, Note_on_c, 0, 63, 55
1, 376582, Control_c, 0, 64, 92
1, 376582, Control_c, 0, 67, 58
1, 376585, Note_off_c, 0, 79, 62
1, 376597, Control_c, 0, 64, 93
1, 376597, Control_c, 0, 67, 57
1, 376608, Note_off_c, 0, 63, 59
1, 376612, Control_c, 0, 64, 94
1, 376612, Control_c, 0, 67, 55
1, 376627, Control_c, 0, 64, 95
1, 376627, Control_c, 0, 67, 54
1, 376640, Note_on_c, 0, 61, 57
1, 376641, Control_c, 0, 64, 96
1, 376641, Control_c, 0, 67, 52
1, 376656, Control_c, 0, 64, 98
1, 376656, Control_c, 0, 67, 48
1, 376671, Control_c, 0, 64, 99
1, 376671, Control_c, 0, 67, 43
1, 376679, Note_off_c, 0, 61, 60
1, 376686, Control_c, 0, 64, 100
1, 376686, Control_c, 0, 67, 39
1, 376700, Control_c, 0, 64, 101
1, 376700, Control_c, 0, 67, 36
1, 376706, Note_on_c, 0, 79, 75
1, 376715, Control_c, 0, 67, 32
1, 376724, Note_on_c, 0, 51, 57
1, 376730, Control_c, 0, 67, 29
1, 376739, Note_off_c, 0, 77, 63
1, 376745, Control_c, 0, 67, 27
1, 376760, Control_c, 0, 67, 24
1, 376775, Control_c, 0, 67, 21
1, 376789, Control_c, 0, 67, 19
1, 376804, Control_c, 0, 67, 16
1, 376818, Note_on_c, 0, 61, 55
1, 376819, Control_c, 0, 67, 12
1, 376832, Note_off_c, 0, 51, 46
1, 376834, Control_c, 0, 67, 8
1, 376849, Control_c, 0, 67, 0
1, 376852, Note_on_c, 0, 77, 79
1, 376883, Note_off_c, 0, 73, 63
1, 376892, Note_off_c, 0, 79, 64
1, 376906, Note_off_c, 0, 77, 65
1, 376918, Note_on_c, 0, 63, 52
1, 376927, Note_off_c, 0, 61, 49
1, 376954, Note_off_c, 0, 63, 60
1, 376981, Note_on_c, 0, 67, 56
1, 377022, Note_off_c, 0, 67, 51
1, 377055, Note_on_c, 0, 63, 59
1, 377085, Note_on_c, 0, 75, 71
1, 377093, Control_c, 0, 64, 100
1, 377094, Note_off_c, 0, 63, 63
1, 377108, Control_c, 0, 64, 98
1, 377123, Control_c, 0, 64, 97
1, 377128, Note_on_c, 0, 61, 35
1, 377138, Control_c, 0, 64, 95
1, 377153, Control_c, 0, 64, 92
1, 377160, Note_on_c, 0, 84, 88
1, 377168, Control_c, 0, 64, 86
1, 377169, Note_off_c, 0, 75, 61
1, 377174, Note_off_c, 0, 61, 46
1, 377183, Control_c, 0, 64, 79
1, 377195, Note_on_c, 0, 72, 52
1, 377197, Control_c, 0, 64, 69
1, 377208, Note_on_c, 0, 56, 54
1, 377212, Control_c, 0, 64, 59
1, 377227, Control_c, 0, 64, 42
1, 377242, Control_c, 0, 64, 0
1, 377271, Control_c, 0, 64, 12
1, 377286, Control_c, 0, 64, 37
1, 377301, Control_c, 0, 64, 54
1, 377305, Note_on_c, 0, 60, 49
1, 377315, Control_c, 0, 64, 63
1, 377330, Control_c, 0, 64, 68
1, 377345, Control_c, 0, 64, 73
1, 377360, Control_c, 0, 64, 77
1, 377363, Note_off_c, 0, 60, 52
1, 377375, Control_c, 0, 64, 80
1, 377389, Control_c, 0, 64, 84
1, 377390, Note_on_c, 0, 63, 59
1, 377404, Control_c, 0, 64, 90
1, 377419, Control_c, 0, 64, 95
1, 377424, Note_off_c, 0, 63, 63
1, 377434, Control_c, 0, 64, 101
1, 377449, Control_c, 0, 64, 109
1, 377455, Note_on_c, 0, 68, 57
1, 377463, Control_c, 0, 64, 116
1, 377478, Control_c, 0, 64, 122
1, 377492, Note_off_c, 0, 68, 62
1, 377493, Control_c, 0, 64, 127
1, 377511, Note_on_c, 0, 63, 62
1, 377514, Note_off_c, 0, 56, 46
1, 377531, Note_off_c, 0, 84, 62
1, 377543, Note_off_c, 0, 63, 64
1, 377553, Note_on_c, 0, 60, 52
1, 377609, Note_off_c, 0, 60, 59
1, 377628, Note_on_c, 0, 55, 63
1, 377641, Poly_aftertouch_c, 0, 78, 127
1, 377641, Control_c, 0, 64, 109
1, 377647, Note_on_c, 0, 84, 89
1, 377656, Control_c, 0, 64, 93
1, 377671, Control_c, 0, 64, 77
1, 377687, Control_c, 0, 64, 63
1, 377699, Poly_aftertouch_c, 0, 79, 127
1, 377702, Control_c, 0, 64, 46
1, 377716, Control_c, 0, 64, 14
1, 377731, Control_c, 0, 64, 0
1, 377746, Control_c, 0, 64, 37
1, 377768, Control_c, 0, 64, 56
1, 377774, Note_on_c, 0, 56, 51
1, 377783, Control_c, 0, 64, 66
1, 377798, Control_c, 0, 64, 72
1, 377812, Control_c, 0, 64, 78
1, 377827, Control_c, 0, 64, 83
1, 377842, Control_c, 0, 64, 88
1, 377855, Note_on_c, 0, 60, 62
1, 377857, Control_c, 0, 64, 98
1, 377872, Control_c, 0, 64, 109
1, 377886, Control_c, 0, 64, 127
1, 377897, Note_off_c, 0, 55, 34
1, 377898, Note_off_c, 0, 60, 61
1, 377910, Note_off_c, 0, 56, 33
1, 377911, Note_off_c, 0, 84, 62
1, 377928, Note_on_c, 0, 63, 50
1, 377965, Poly_aftertouch_c, 0, 79, 0
1, 377970, Note_off_c, 0, 63, 62
1, 377997, Note_on_c, 0, 60, 44
1, 378001, Note_on_c, 0, 84, 89
1, 378035, Note_off_c, 0, 60, 46
1, 378056, Note_on_c, 0, 56, 53
1, 378090, Note_off_c, 0, 84, 63
1, 378160, Note_off_c, 0, 56, 59
1, 378170, Note_on_c, 0, 54, 53
1, 378183, Control_c, 0, 64, 103
1, 378189, Note_on_c, 0, 84, 89
1, 378198, Control_c, 0, 64, 82
1, 378212, Control_c, 0, 64, 67
1, 378227, Control_c, 0, 64, 52
1, 378242, Control_c, 0, 64, 27
1, 378257, Control_c, 0, 64, 0
1, 378271, Control_c, 0, 64, 24
1, 378286, Control_c, 0, 64, 46
1, 378296, Note_on_c, 0, 56, 49
1, 378301, Control_c, 0, 64, 60
1, 378316, Control_c, 0, 64, 66
1, 378331, Control_c, 0, 64, 71
1, 378335, Note_off_c, 0, 72, 62
1, 378345, Control_c, 0, 64, 76
1, 378360, Control_c, 0, 64, 79
1, 378371, Note_on_c, 0, 60, 57
1, 378375, Control_c, 0, 64, 81
1, 378378, Poly_aftertouch_c, 0, 78, 0
1, 378383, Poly_aftertouch_c, 0, 81, 127
1, 378390, Control_c, 0, 64, 84
1, 378405, Control_c, 0, 64, 87
1, 378409, Note_off_c, 0, 60, 62
1, 378420, Control_c, 0, 64, 90
1, 378422, Poly_aftertouch_c, 0, 81, 0
1, 378432, Note_on_c, 0, 63, 57
1, 378435, Control_c, 0, 64, 93
1, 378444, Note_off_c, 0, 56, 30
1, 378450, Control_c, 0, 64, 96
1, 378464, Note_off_c, 0, 63, 59
1, 378464, Control_c, 0, 64, 100
1, 378480, Control_c, 0, 64, 105
1, 378483, Note_off_c, 0, 54, 48
1, 378495, Control_c, 0, 64, 111
1, 378500, Note_on_c, 0, 60, 52
1, 378517, Control_c, 0, 64, 118
1, 378532, Control_c, 0, 64, 124
1, 378547, Control_c, 0, 64, 127
1, 378548, Note_off_c, 0, 60, 57
1, 378563, Note_on_c, 0, 56, 59
1, 378608, Note_off_c, 0, 56, 61
1, 378617, Note_on_c, 0, 54, 56
1, 378710, Note_on_c, 0, 56, 54
1, 378769, Note_on_c, 0, 82, 77
1, 378782, Note_on_c, 0, 60, 53
1, 378800, Note_off_c, 0, 54, 0
1, 378819, Note_off_c, 0, 60, 61
1, 378837, Poly_aftertouch_c, 0, 54, 127
1, 378851, Note_on_c, 0, 63, 52
1, 378866, Note_off_c, 0, 56, 24
1, 378878, Note_off_c, 0, 63, 58
1, 378911, Note_on_c, 0, 60, 54
1, 378912, Poly_aftertouch_c, 0, 54, 0
1, 378964, Note_on_c, 0, 80, 76
1, 378973, Note_off_c, 0, 60, 51
1, 378975, Note_off_c, 0, 84, 32
1, 378982, Note_off_c, 0, 82, 63
1, 378988, Note_off_c, 0, 80, 67
1, 379001, Note_on_c, 0, 56, 48
1, 379021, Control_c, 0, 64, 117
1, 379035, Control_c, 0, 64, 108
1, 379037, Note_on_c, 0, 80, 79
1, 379050, Control_c, 0, 64, 94
1, 379058, Note_off_c, 0, 56, 59
1, 379065, Control_c, 0, 64, 81
1, 379076, Note_on_c, 0, 53, 58
1, 379080, Control_c, 0, 64, 67
1, 379094, Control_c, 0, 64, 52
1, 379109, Control_c, 0, 64, 22
1, 379124, Control_c, 0, 64, 0
1, 379154, Control_c, 0, 64, 29
1, 379168, Control_c, 0, 64, 49
1, 379171, Note_on_c, 0, 56, 55
1, 379183, Control_c, 0, 64, 61
1, 379198, Control_c, 0, 64, 67
1, 379213, Control_c, 0, 64, 71
1, 379228, Control_c, 0, 64, 75
1, 379229, Note_on_c, 0, 61, 61
1, 379243, Control_c, 0, 64, 79
1, 379249, Note_off_c, 0, 56, 45
1, 379265, Note_off_c, 0, 61, 65
1, 379265, Control_c, 0, 64, 82
1, 379280, Control_c, 0, 64, 84
1, 379296, Note_on_c, 0, 65, 53
1, 379296, Control_c, 0, 64, 87
1, 379310, Control_c, 0, 64, 92
1, 379325, Control_c, 0, 64, 96
1, 379326, Note_off_c, 0, 65, 52
1, 379340, Control_c, 0, 64, 101
1, 379344, Note_off_c, 0, 53, 40
1, 379346, Note_on_c, 0, 61, 70
1, 379355, Control_c, 0, 64, 107
1, 379370, Control_c, 0, 64, 115
1, 379385, Control_c, 0, 64, 127
1, 379387, Note_off_c, 0, 61, 56
1, 379422, Note_on_c, 0, 56, 53
1, 379469, Note_off_c, 0, 56, 60
1, 379478, Note_on_c, 0, 53, 61
1, 379490, Note_on_c, 0, 85, 85
1, 379544, Note_off_c, 0, 53, 62
1, 379548, Note_off_c, 0, 80, 61
1, 379562, Note_on_c, 0, 56, 56
1, 379591, Note_off_c, 0, 56, 64
1, 379606, Note_on_c, 0, 61, 64
1, 379648, Note_off_c, 0, 61, 61
1, 379668, Note_off_c, 0, 85, 60
1, 379690, Note_on_c, 0, 68, 68
1, 379736, Note_off_c, 0, 68, 60
1, 379747, Note_on_c, 0, 61, 66
1, 379758, Poly_aftertouch_c, 0, 56, 0
1, 379826, Note_on_c, 0, 56, 49
1, 379836, Note_off_c, 0, 61, 53
1, 379902, Note_on_c, 0, 85, 90
1, 379903, Control_c, 0, 64, 94
1, 379916, Note_off_c, 0, 56, 61
1, 379917, Control_c, 0, 64, 75
1, 379918, Note_on_c, 0, 51, 65
1, 379932, Control_c, 0, 64, 60
1, 379947, Control_c, 0, 64, 34
1, 379962, Control_c, 0, 64, 0
1, 380015, Control_c, 0, 64, 36
1, 380030, Control_c, 0, 64, 54
1, 380045, Control_c, 0, 64, 64
1, 380048, Note_on_c, 0, 56, 56
1, 380059, Control_c, 0, 64, 68
1, 380074, Control_c, 0, 64, 72
1, 380089, Control_c, 0, 64, 75
1, 380104, Control_c, 0, 64, 78
1, 380107, Note_off_c, 0, 56, 52
1, 380113, Note_on_c, 0, 60, 61
1, 380119, Control_c, 0, 64, 81
1, 380134, Control_c, 0, 64, 85
1, 380149, Control_c, 0, 64, 90
1, 380164, Control_c, 0, 64, 95
1, 380167, Note_off_c, 0, 60, 52
1, 380179, Control_c, 0, 64, 101
1, 380194, Control_c, 0, 64, 107
1, 380197, Note_on_c, 0, 66, 59
1, 380209, Control_c, 0, 64, 117
1, 380222, Note_on_c, 0, 84, 87
1, 380223, Control_c, 0, 64, 127
1, 380232, Note_off_c, 0, 66, 64
1, 380255, Note_off_c, 0, 85, 63
1, 380265, Note_off_c, 0, 51, 30
1, 380274, Note_on_c, 0, 60, 61
1, 380322, Note_off_c, 0, 60, 53
1, 380339, Note_off_c, 0, 84, 62
1, 380353, Note_on_c, 0, 56, 44
1, 380425, Note_on_c, 0, 84, 90
1, 380430, Note_off_c, 0, 56, 60
1, 380440, Note_on_c, 0, 51, 62
1, 380557, Note_on_c, 0, 56, 47
1, 380602, Note_on_c, 0, 82, 86
1, 380626, Note_on_c, 0, 60, 61
1, 380637, Poly_aftertouch_c, 0, 83, 127
1, 380642, Note_off_c, 0, 84, 61
1, 380661, Poly_aftertouch_c, 0, 83, 0
1, 380667, Control_c, 0, 67, 8
1, 380668, Note_off_c, 0, 56, 52
1, 380670, Note_off_c, 0, 82, 65
1, 380678, Note_off_c, 0, 51, 37
1, 380682, Control_c, 0, 67, 9
1, 380697, Control_c, 0, 67, 10
1, 380704, Note_off_c, 0, 60, 60
1, 380712, Control_c, 0, 67, 11
1, 380712, Note_on_c, 0, 66, 62
1, 380726, Control_c, 0, 67, 12
1, 380740, Control_c, 0, 67, 13
1, 380759, Note_off_c, 0, 66, 61
1, 380817, Note_on_c, 0, 60, 39
1, 380822, Control_c, 0, 67, 12
1, 380866, Control_c, 0, 67, 12
1, 380882, Control_c, 0, 67, 11
1, 380915, Note_off_c, 0, 60, 33
1, 380926, Note_on_c, 0, 56, 38
1, 380955, Note_on_c, 0, 80, 80
1, 381016, Control_c, 0, 67, 12
1, 381072, Note_on_c, 0, 89, 83
1, 381073, Note_on_c, 0, 50, 54
1, 381075, Control_c, 0, 64, 98
1, 381079, Note_off_c, 0, 56, 33
1, 381086, Note_off_c, 0, 80, 35
1, 381089, Control_c, 0, 64, 76
1, 381104, Control_c, 0, 64, 60
1, 381119, Control_c, 0, 64, 29
1, 381119, Control_c, 0, 67, 12
1, 381134, Control_c, 0, 64, 0
1, 381163, Control_c, 0, 67, 13
1, 381193, Control_c, 0, 64, 29
1, 381193, Control_c, 0, 67, 14
1, 381208, Control_c, 0, 64, 49
1, 381219, Note_on_c, 0, 56, 45
1, 381223, Control_c, 0, 64, 61
1, 381237, Control_c, 0, 64, 66
1, 381252, Control_c, 0, 64, 70
1, 381267, Control_c, 0, 64, 74
1, 381282, Control_c, 0, 64, 77
1, 381292, Note_off_c, 0, 50, 33
1, 381297, Control_c, 0, 64, 81
1, 381311, Control_c, 0, 64, 86
1, 381311, Control_c, 0, 67, 14
1, 381326, Control_c, 0, 64, 91
1, 381335, Note_off_c, 0, 89, 60
1, 381341, Control_c, 0, 64, 97
1, 381353, Note_on_c, 0, 59, 51
1, 381356, Control_c, 0, 64, 105
1, 381356, Control_c, 0, 67, 15
1, 381371, Control_c, 0, 64, 120
1, 381371, Control_c, 0, 67, 15
1, 381383, Note_off_c, 0, 56, 36
1, 381386, Control_c, 0, 64, 127
1, 381386, Control_c, 0, 67, 18
1, 381401, Control_c, 0, 67, 20
1, 381404, Note_off_c, 0, 59, 60
1, 381416, Control_c, 0, 67, 22
1, 381430, Control_c, 0, 67, 25
1, 381434, Note_on_c, 0, 65, 53
1, 381445, Control_c, 0, 67, 26
1, 381460, Control_c, 0, 67, 27
1, 381478, Note_off_c, 0, 65, 59
1, 381518, Note_on_c, 0, 59, 53
1, 381571, Note_off_c, 0, 59, 60
1, 381613, Note_on_c, 0, 56, 41
1, 381686, Note_off_c, 0, 56, 52
1, 381737, Note_on_c, 0, 50, 49
1, 381779, Control_c, 0, 64, 109
1, 381780, Note_on_c, 0, 89, 74
1, 381794, Control_c, 0, 64, 93
1, 381809, Control_c, 0, 64, 79
1, 381824, Control_c, 0, 64, 66
1, 381839, Control_c, 0, 64, 53
1, 381839, Control_c, 0, 67, 27
1, 381854, Control_c, 0, 64, 29
1, 381868, Control_c, 0, 64, 0
1, 381868, Control_c, 0, 67, 28
1, 381883, Control_c, 0, 64, 22
1, 381883, Control_c, 0, 67, 28
1, 381898, Control_c, 0, 64, 45
1, 381898, Control_c, 0, 67, 29
1, 381912, Control_c, 0, 64, 59
1, 381912, Control_c, 0, 67, 32
1, 381926, Note_on_c, 0, 56, 48
1, 381927, Control_c, 0, 64, 66
1, 381927, Control_c, 0, 67, 37
1, 381942, Control_c, 0, 64, 71
1, 381942, Control_c, 0, 67, 41
1, 381957, Control_c, 0, 64, 75
1, 381957, Control_c, 0, 67, 45
1, 381972, Control_c, 0, 64, 79
1, 381972, Control_c, 0, 67, 49
1, 381986, Control_c, 0, 64, 82
1, 381986, Control_c, 0, 67, 53
1, 381995, Note_off_c, 0, 50, 34
1, 382001, Control_c, 0, 64, 85
1, 382001, Control_c, 0, 67, 54
1, 382016, Control_c, 0, 64, 88
1, 382016, Control_c, 0, 67, 56
1, 382027, Note_off_c, 0, 56, 54
1, 382031, Control_c, 0, 64, 93
1, 382031, Control_c, 0, 67, 58
1, 382042, Note_on_c, 0, 58, 47
1, 382046, Control_c, 0, 64, 98
1, 382046, Control_c, 0, 67, 60
1, 382060, Control_c, 0, 64, 102
1, 382060, Control_c, 0, 67, 63
1, 382072, Note_off_c, 0, 89, 57
1, 382075, Control_c, 0, 64, 104
1, 382075, Control_c, 0, 67, 66
1, 382090, Control_c, 0, 64, 105
1, 382090, Control_c, 0, 67, 69
1, 382093, Note_off_c, 0, 58, 55
1, 382104, Control_c, 0, 64, 106
1, 382104, Control_c, 0, 67, 73
1, 382119, Control_c, 0, 64, 107
1, 382119, Control_c, 0, 67, 77
1, 382131, Note_on_c, 0, 65, 47
1, 382134, Control_c, 0, 64, 109
1, 382134, Control_c, 0, 67, 81
1, 382149, Control_c, 0, 64, 109
1, 382149, Control_c, 0, 67, 85
1, 382164, Control_c, 0, 67, 88
1, 382169, Note_off_c, 0, 65, 48
1, 382179, Control_c, 0, 67, 90
1, 382194, Control_c, 0, 67, 93
1, 382209, Control_c, 0, 67, 95
1, 382224, Control_c, 0, 67, 97
1, 382239, Control_c, 0, 67, 98
1, 382260, Control_c, 0, 67, 99
1, 382263, Note_on_c, 0, 58, 29
1, 382275, Control_c, 0, 67, 100
1, 382290, Control_c, 0, 67, 102
1, 382294, Note_on_c, 0, 89, 69
1, 382304, Control_c, 0, 67, 104
1, 382319, Control_c, 0, 67, 105
1, 382321, Note_off_c, 0, 58, 46
1, 382334, Control_c, 0, 67, 106
1, 382349, Control_c, 0, 67, 106
1, 382364, Control_c, 0, 67, 107
1, 382365, Note_on_c, 0, 56, 31
1, 382379, Control_c, 0, 64, 109
1, 382379, Control_c, 0, 67, 108
1, 382392, Note_off_c, 0, 89, 55
1, 382394, Control_c, 0, 67, 109
1, 382408, Control_c, 0, 67, 110
1, 382423, Control_c, 0, 67, 112
1, 382438, Control_c, 0, 67, 113
1, 382453, Control_c, 0, 67, 113
1, 382468, Control_c, 0, 67, 114
1, 382483, Control_c, 0, 67, 114
1, 382498, Control_c, 0, 67, 116
1, 382513, Control_c, 0, 64, 108
1, 382513, Control_c, 0, 67, 117
1, 382528, Control_c, 0, 64, 106
1, 382528, Control_c, 0, 67, 118
1, 382543, Control_c, 0, 64, 103
1, 382543, Control_c, 0, 67, 120
1, 382557, Control_c, 0, 64, 98
1, 382557, Control_c, 0, 67, 122
1, 382572, Control_c, 0, 64, 90
1, 382572, Control_c, 0, 67, 124
1, 382578, Note_on_c, 0, 51, 45
1, 382587, Note_off_c, 0, 56, 40
1, 382587, Control_c, 0, 64, 79
1, 382587, Control_c, 0, 67, 127
1, 382593, Note_on_c, 0, 89, 66
1, 382602, Control_c, 0, 64, 68
1, 382617, Control_c, 0, 64, 56
1, 382632, Control_c, 0, 64, 36
1, 382647, Control_c, 0, 64, 0
1, 382677, Control_c, 0, 64, 27
1, 382691, Control_c, 0, 64, 46
1, 382706, Control_c, 0, 64, 58
1, 382721, Control_c, 0, 64, 64
1, 382735, Control_c, 0, 64, 67
1, 382738, Note_on_c, 0, 54, 43
1, 382750, Control_c, 0, 64, 70
1, 382765, Control_c, 0, 64, 72
1, 382780, Control_c, 0, 64, 75
1, 382795, Control_c, 0, 64, 79
1, 382809, Control_c, 0, 64, 82
1, 382815, Note_off_c, 0, 54, 48
1, 382824, Control_c, 0, 64, 85
1, 382829, Note_on_c, 0, 58, 51
1, 382839, Control_c, 0, 64, 88
1, 382854, Control_c, 0, 64, 91
1, 382858, Note_off_c, 0, 58, 60
1, 382869, Control_c, 0, 64, 93
1, 382883, Control_c, 0, 64, 95
1, 382898, Control_c, 0, 64, 96
1, 382907, Note_off_c, 0, 51, 29
1, 382912, Note_on_c, 0, 63, 45
1, 382942, Control_c, 0, 64, 96
1, 382943, Note_off_c, 0, 63, 53
1, 382957, Control_c, 0, 64, 97
1, 382971, Note_on_c, 0, 58, 41
1, 383011, Note_off_c, 0, 58, 57
1, 383022, Note_on_c, 0, 54, 55
1, 383048, Note_off_c, 0, 54, 60
1, 383183, Note_on_c, 0, 42, 46
1, 383204, Note_on_c, 0, 87, 71
1, 383213, Note_off_c, 0, 42, 55
1, 383329, Note_on_c, 0, 54, 40
1, 383362, Note_off_c, 0, 89, 19
1, 383370, Note_off_c, 0, 54, 48
1, 383391, Note_on_c, 0, 85, 70
1, 383405, Note_on_c, 0, 58, 50
1, 383408, Note_off_c, 0, 87, 56
1, 383431, Note_off_c, 0, 58, 61
1, 383485, Note_on_c, 0, 63, 44
1, 383512, Note_off_c, 0, 63, 56
1, 383529, Note_on_c, 0, 58, 48
1, 383537, Note_on_c, 0, 82, 71
1, 383553, Note_off_c, 0, 58, 63
1, 383554, Note_off_c, 0, 85, 62
1, 383589, Control_c, 0, 64, 96
1, 383615, Note_on_c, 0, 54, 37
1, 383633, Control_c, 0, 64, 95
1, 383648, Control_c, 0, 64, 93
1, 383650, Note_off_c, 0, 54, 52
1, 383663, Control_c, 0, 64, 90
1, 383677, Control_c, 0, 64, 82
1, 383692, Control_c, 0, 64, 72
1, 383696, Note_on_c, 0, 84, 72
1, 383703, Note_on_c, 0, 44, 55
1, 383703, Note_off_c, 0, 82, 63
1, 383707, Control_c, 0, 64, 62
1, 383722, Control_c, 0, 64, 44
1, 383737, Control_c, 0, 64, 10
1, 383759, Control_c, 0, 64, 0
1, 383774, Control_c, 0, 64, 28
1, 383789, Control_c, 0, 64, 54
1, 383789, Control_c, 0, 67, 121
1, 383803, Control_c, 0, 64, 66
1, 383803, Control_c, 0, 67, 116
1, 383812, Note_on_c, 0, 53, 50
1, 383812, Note_off_c, 0, 44, 59
1, 383818, Control_c, 0, 64, 75
1, 383818, Control_c, 0, 67, 115
1, 383833, Control_c, 0, 64, 85
1, 383833, Control_c, 0, 67, 116
1, 383848, Control_c, 0, 64, 94
1, 383863, Control_c, 0, 64, 100
1, 383863, Control_c, 0, 67, 114
1, 383863, Note_off_c, 0, 53, 58
1, 383878, Control_c, 0, 64, 110
1, 383878, Control_c, 0, 67, 109
1, 383890, Note_on_c, 0, 56, 53
1, 383892, Control_c, 0, 64, 127
1, 383892, Control_c, 0, 67, 105
1, 383907, Control_c, 0, 67, 103
1, 383920, Note_off_c, 0, 56, 63
1, 383922, Control_c, 0, 67, 104
1, 383937, Control_c, 0, 67, 105
1, 383951, Note_on_c, 0, 61, 47
1, 383952, Control_c, 0, 67, 104
1, 383966, Control_c, 0, 67, 101
1, 383976, Note_off_c, 0, 61, 59
1, 383981, Control_c, 0, 67, 97
1, 383996, Control_c, 0, 67, 92
1, 384000, Note_on_c, 0, 56, 63
1, 384011, Control_c, 0, 67, 90
1, 384028, Note_off_c, 0, 56, 65
1, 384070, Control_c, 0, 67, 90
1, 384081, Note_on_c, 0, 53, 23
1, 384086, Control_c, 0, 67, 89
1, 384100, Control_c, 0, 67, 89
1, 384115, Note_on_c, 0, 44, 60
1, 384115, Control_c, 0, 67, 88
1, 384118, Note_off_c, 0, 53, 41
1, 384130, Control_c, 0, 67, 88
1, 384145, Control_c, 0, 67, 87
1, 384150, Note_on_c, 0, 82, 67
1, 384175, Note_off_c, 0, 44, 57
1, 384204, Control_c, 0, 67, 87
1, 384233, Note_on_c, 0, 53, 28
1, 384263, Control_c, 0, 67, 86
1, 384271, Note_on_c, 0, 56, 53
1, 384274, Note_off_c, 0, 53, 43
1, 384278, Control_c, 0, 67, 85
1, 384293, Control_c, 0, 67, 81
1, 384296, Note_on_c, 0, 80, 74
1, 384307, Control_c, 0, 67, 78
1, 384315, Note_off_c, 0, 56, 58
1, 384322, Control_c, 0, 67, 75
1, 384337, Control_c, 0, 67, 73
1, 384352, Control_c, 0, 67, 73
1, 384353, Note_on_c, 0, 61, 46
1, 384381, Note_off_c, 0, 61, 57
1, 384400, Note_off_c, 0, 80, 60
1, 384408, Note_off_c, 0, 82, 33
1, 384415, Note_on_c, 0, 77, 74
1, 384444, Note_on_c, 0, 53, 40
1, 384456, Control_c, 0, 67, 72
1, 384471, Control_c, 0, 67, 72
1, 384492, Note_off_c, 0, 53, 55
1, 384508, Poly_aftertouch_c, 0, 56, 0
1, 384552, Note_off_c, 0, 77, 62
1, 384555, Note_on_c, 0, 44, 57
1, 384561, Note_on_c, 0, 82, 72
1, 384567, Control_c, 0, 64, 86
1, 384567, Control_c, 0, 67, 71
1, 384581, Control_c, 0, 64, 67
1, 384596, Control_c, 0, 64, 45
1, 384611, Control_c, 0, 64, 13
1, 384626, Control_c, 0, 64, 16
1, 384641, Control_c, 0, 64, 40
1, 384641, Control_c, 0, 67, 71
1, 384652, Note_off_c, 0, 44, 55
1, 384656, Control_c, 0, 64, 58
1, 384656, Control_c, 0, 67, 70
1, 384659, Note_on_c, 0, 54, 45
1, 384671, Control_c, 0, 64, 67
1, 384671, Control_c, 0, 67, 70
1, 384686, Control_c, 0, 64, 71
1, 384701, Note_on_c, 0, 80, 74
1, 384701, Control_c, 0, 64, 75
1, 384715, Control_c, 0, 64, 78
1, 384730, Control_c, 0, 64, 81
1, 384730, Control_c, 0, 67, 69
1, 384732, Note_off_c, 0, 82, 56
1, 384745, Control_c, 0, 64, 84
1, 384745, Control_c, 0, 67, 67
1, 384754, Note_off_c, 0, 54, 59
1, 384760, Control_c, 0, 64, 87
1, 384760, Control_c, 0, 67, 65
1, 384767, Note_on_c, 0, 56, 48
1, 384775, Control_c, 0, 64, 89
1, 384775, Control_c, 0, 67, 64
1, 384789, Control_c, 0, 64, 91
1, 384809, Note_off_c, 0, 56, 58
1, 384819, Control_c, 0, 64, 91
1, 384847, Note_on_c, 0, 78, 74
1, 384847, Note_off_c, 0, 80, 59
1, 384849, Note_on_c, 0, 60, 44
1, 384873, Note_off_c, 0, 78, 66
1, 384879, Control_c, 0, 67, 64
1, 384884, Note_off_c, 0, 60, 50
1, 384917, Note_on_c, 0, 56, 49
1, 384948, Note_off_c, 0, 56, 56
1, 384983, Note_on_c, 0, 78, 62
1, 384998, Control_c, 0, 64, 92
1, 384999, Note_on_c, 0, 54, 11
1, 385019, Note_off_c, 0, 78, 64
1, 385027, Control_c, 0, 64, 92
1, 385034, Note_on_c, 0, 80, 66
1, 385044, Note_off_c, 0, 54, 41
1, 385051, Note_on_c, 0, 44, 50
1, 385057, Control_c, 0, 64, 93
1, 385094, Note_on_c, 0, 78, 72
1, 385101, Control_c, 0, 64, 93
1, 385108, Note_off_c, 0, 84, 33
1, 385109, Note_off_c, 0, 80, 54
1, 385126, Note_off_c, 0, 44, 47
1, 385150, Note_on_c, 0, 54, 52
1, 385205, Control_c, 0, 67, 64
1, 385234, Control_c, 0, 67, 65
1, 385243, Note_off_c, 0, 78, 59
1, 385256, Control_c, 0, 67, 65
1, 385264, Note_on_c, 0, 77, 63
1, 385271, Control_c, 0, 67, 66
1, 385276, Note_on_c, 0, 56, 48
1, 385286, Note_off_c, 0, 54, 53
1, 385300, Control_c, 0, 67, 66
1, 385315, Control_c, 0, 67, 67
1, 385323, Note_off_c, 0, 77, 65
1, 385329, Note_off_c, 0, 56, 57
1, 385330, Control_c, 0, 67, 68
1, 385345, Control_c, 0, 67, 69
1, 385360, Control_c, 0, 67, 69
1, 385374, Control_c, 0, 67, 70
1, 385375, Note_on_c, 0, 60, 45
1, 385389, Control_c, 0, 67, 70
1, 385404, Control_c, 0, 67, 71
1, 385408, Note_off_c, 0, 60, 54
1, 385419, Control_c, 0, 67, 73
1, 385434, Control_c, 0, 67, 74
1, 385449, Control_c, 0, 67, 75
1, 385452, Note_on_c, 0, 56, 49
1, 385463, Control_c, 0, 67, 76
1, 385478, Control_c, 0, 67, 77
1, 385493, Control_c, 0, 67, 79
1, 385498, Note_off_c, 0, 56, 51
1, 385508, Control_c, 0, 64, 93
1, 385508, Control_c, 0, 67, 81
1, 385523, Control_c, 0, 64, 92
1, 385523, Control_c, 0, 67, 84
1, 385528, Note_on_c, 0, 76, 68
1, 385537, Control_c, 0, 64, 92
1, 385537, Control_c, 0, 67, 87
1, 385552, Control_c, 0, 64, 91
1, 385552, Control_c, 0, 67, 89
1, 385556, Note_off_c, 0, 76, 67
1, 385567, Control_c, 0, 64, 89
1, 385567, Control_c, 0, 67, 90
1, 385582, Control_c, 0, 64, 87
1, 385594, Poly_aftertouch_c, 0, 54, 127
1, 385597, Control_c, 0, 64, 82
1, 385597, Control_c, 0, 67, 90
1, 385611, Control_c, 0, 64, 75
1, 385618, Note_on_c, 0, 76, 72
1, 385626, Control_c, 0, 64, 65
1, 385626, Control_c, 0, 67, 91
1, 385632, Note_on_c, 0, 49, 50
1, 385637, Poly_aftertouch_c, 0, 54, 0
1, 385641, Control_c, 0, 64, 52
1, 385655, Control_c, 0, 64, 27
1, 385655, Control_c, 0, 67, 91
1, 385670, Control_c, 0, 64, 0
1, 385670, Control_c, 0, 67, 91
1, 385687, Control_c, 0, 67, 90
1, 385701, Control_c, 0, 64, 25
1, 385701, Control_c, 0, 67, 89
1, 385716, Control_c, 0, 64, 48
1, 385716, Control_c, 0, 67, 88
1, 385731, Control_c, 0, 64, 62
1, 385746, Control_c, 0, 64, 70
1, 385746, Control_c, 0, 67, 88
1, 385747, Note_off_c, 0, 49, 59
1, 385759, Note_on_c, 0, 56, 46
1, 385760, Control_c, 0, 64, 75
1, 385760, Control_c, 0, 67, 87
1, 385775, Control_c, 0, 64, 80
1, 385775, Control_c, 0, 67, 86
1, 385790, Control_c, 0, 64, 83
1, 385790, Control_c, 0, 67, 86
1, 385805, Control_c, 0, 64, 85
1, 385805, Control_c, 0, 67, 85
1, 385820, Control_c, 0, 64, 87
1, 385820, Control_c, 0, 67, 84
1, 385830, Note_off_c, 0, 56, 54
1, 385834, Control_c, 0, 64, 90
1, 385845, Note_on_c, 0, 61, 53
1, 385849, Control_c, 0, 64, 93
1, 385864, Control_c, 0, 64, 95
1, 385876, Note_off_c, 0, 61, 62
1, 385879, Control_c, 0, 64, 96
1, 385894, Control_c, 0, 64, 96
1, 385908, Control_c, 0, 64, 97
1, 385929, Note_on_c, 0, 65, 48
1, 385968, Control_c, 0, 67, 84
1, 385968, Note_off_c, 0, 65, 47
1, 386005, Note_on_c, 0, 61, 46
1, 386005, Control_c, 0, 67, 84
1, 386062, Note_off_c, 0, 61, 56
1, 386093, Control_c, 0, 64, 96
1, 386093, Control_c, 0, 67, 85
1, 386108, Control_c, 0, 64, 95
1, 386114, Note_on_c, 0, 58, 14
1, 386123, Control_c, 0, 64, 91
1, 386138, Control_c, 0, 64, 84
1, 386138, Control_c, 0, 67, 85
1, 386152, Control_c, 0, 64, 75
1, 386161, Note_off_c, 0, 58, 41
1, 386167, Control_c, 0, 64, 65
1, 386171, Note_on_c, 0, 56, 45
1, 386171, Note_off_c, 0, 76, 60
1, 386177, Note_on_c, 0, 77, 59
1, 386182, Control_c, 0, 64, 51
1, 386197, Control_c, 0, 64, 21
1, 386206, Poly_aftertouch_c, 0, 81, 127
1, 386212, Control_c, 0, 64, 0
1, 386212, Control_c, 0, 67, 85
1, 386227, Control_c, 0, 67, 84
1, 386242, Control_c, 0, 64, 34
1, 386257, Control_c, 0, 64, 53
1, 386266, Poly_aftertouch_c, 0, 81, 0
1, 386272, Control_c, 0, 64, 64
1, 386286, Control_c, 0, 64, 70
1, 386286, Control_c, 0, 67, 84
1, 386289, Note_on_c, 0, 61, 41
1, 386301, Control_c, 0, 64, 77
1, 386301, Control_c, 0, 67, 83
1, 386315, Note_off_c, 0, 77, 65
1, 386316, Control_c, 0, 64, 81
1, 386331, Control_c, 0, 64, 83
1, 386331, Control_c, 0, 67, 83
1, 386345, Control_c, 0, 64, 85
1, 386345, Control_c, 0, 67, 82
1, 386352, Note_off_c, 0, 61, 52
1, 386360, Control_c, 0, 64, 89
1, 386375, Control_c, 0, 64, 92
1, 386375, Control_c, 0, 67, 82
1, 386390, Control_c, 0, 64, 94
1, 386405, Control_c, 0, 64, 96
1, 386405, Control_c, 0, 67, 81
1, 386419, Control_c, 0, 64, 96
1, 386434, Control_c, 0, 64, 97
1, 386436, Poly_aftertouch_c, 0, 65, 127
1, 386449, Control_c, 0, 64, 97
1, 386449, Control_c, 0, 67, 82
1, 386464, Control_c, 0, 64, 98
1, 386474, Note_on_c, 0, 68, 47
1, 386477, Poly_aftertouch_c, 0, 65, 0
1, 386495, Control_c, 0, 67, 81
1, 386498, Note_off_c, 0, 68, 60
1, 386505, Note_on_c, 0, 80, 65
1, 386536, Note_off_c, 0, 56, 47
1, 386539, Note_off_c, 0, 80, 63
1, 386574, Note_on_c, 0, 68, 65
1, 386576, Note_on_c, 0, 61, 44
1, 386598, Control_c, 0, 64, 95
1, 386598, Control_c, 0, 67, 81
1, 386607, Note_off_c, 0, 61, 57
1, 386613, Control_c, 0, 64, 83
1, 386613, Control_c, 0, 67, 80
1, 386628, Control_c, 0, 64, 70
1, 386643, Control_c, 0, 64, 58
1, 386653, Note_on_c, 0, 80, 59
1, 386654, Note_on_c, 0, 54, 50
1, 386657, Control_c, 0, 64, 48
1, 386672, Control_c, 0, 64, 52
1, 386681, Note_off_c, 0, 68, 30
1, 386687, Control_c, 0, 64, 61
1, 386701, Control_c, 0, 64, 72
1, 386716, Control_c, 0, 64, 83
1, 386716, Control_c, 0, 67, 80
1, 386728, Note_off_c, 0, 80, 61
1, 386732, Control_c, 0, 64, 93
1, 386732, Control_c, 0, 67, 79
1, 386755, Control_c, 0, 64, 97
1, 386769, Control_c, 0, 64, 100
1, 386769, Control_c, 0, 67, 79
1, 386778, Note_on_c, 0, 56, 49
1, 386784, Control_c, 0, 64, 104
1, 386784, Control_c, 0, 67, 78
1, 386792, Note_off_c, 0, 54, 54
1, 386799, Control_c, 0, 64, 109
1, 386799, Control_c, 0, 67, 77
1, 386814, Control_c, 0, 64, 120
1, 386814, Control_c, 0, 67, 77
1, 386823, Note_off_c, 0, 56, 58
1, 386829, Control_c, 0, 64, 127
1, 386836, Note_on_c, 0, 60, 52
1, 386869, Note_off_c, 0, 60, 59
1, 386893, Note_on_c, 0, 63, 51
1, 386917, Control_c, 0, 67, 76
1, 386924, Note_on_c, 0, 72, 64
1, 386932, Note_off_c, 0, 63, 63
1, 386932, Control_c, 0, 67, 75
1, 386947, Control_c, 0, 67, 73
1, 386962, Control_c, 0, 67, 72
1, 386976, Control_c, 0, 67, 71
1, 386983, Note_on_c, 0, 56, 45
1, 386991, Control_c, 0, 67, 68
1, 387006, Control_c, 0, 67, 66
1, 387020, Poly_aftertouch_c, 0, 60, 0
1, 387021, Control_c, 0, 67, 64
1, 387036, Note_off_c, 0, 56, 60
1, 387036, Control_c, 0, 67, 61
1, 387045, Poly_aftertouch_c, 0, 60, 0
1, 387048, Note_off_c, 0, 72, 61
1, 387051, Control_c, 0, 67, 57
1, 387065, Note_on_c, 0, 54, 54
1, 387065, Control_c, 0, 67, 52
1, 387066, Note_on_c, 0, 84, 75
1, 387080, Control_c, 0, 67, 47
1, 387094, Control_c, 0, 67, 41
1, 387109, Control_c, 0, 67, 37
1, 387121, Note_off_c, 0, 54, 61
1, 387124, Control_c, 0, 67, 33
1, 387139, Control_c, 0, 67, 29
1, 387148, Note_on_c, 0, 56, 55
1, 387154, Control_c, 0, 67, 25
1, 387169, Control_c, 0, 67, 20
1, 387184, Control_c, 0, 67, 15
1, 387188, Note_off_c, 0, 56, 61
1, 387199, Control_c, 0, 67, 10
1, 387205, Note_on_c, 0, 70, 68
1, 387205, Note_on_c, 0, 82, 74
1, 387208, Note_off_c, 0, 84, 64
1, 387210, Note_on_c, 0, 60, 52
1, 387214, Control_c, 0, 67, 0
1, 387223, Note_off_c, 0, 70, 67
1, 387230, Note_off_c, 0, 82, 67
1, 387243, Note_off_c, 0, 60, 63
1, 387279, Note_on_c, 0, 63, 60
1, 387306, Note_off_c, 0, 63, 61
1, 387341, Note_on_c, 0, 60, 42
1, 387379, Note_off_c, 0, 60, 49
1, 387404, Note_on_c, 0, 56, 52
1, 387407, Note_on_c, 0, 80, 71
1, 387419, Note_on_c, 0, 68, 54
1, 387432, Note_off_c, 0, 80, 66
1, 387440, Note_off_c, 0, 68, 62
1, 387461, Note_off_c, 0, 56, 61
1, 387477, Note_on_c, 0, 53, 59
1, 387478, Note_on_c, 0, 80, 82
1, 387479, Control_c, 0, 64, 94
1, 387502, Control_c, 0, 64, 70
1, 387507, Note_on_c, 0, 68, 55
1, 387517, Control_c, 0, 64, 52
1, 387531, Control_c, 0, 64, 25
1, 387546, Control_c, 0, 64, 28
1, 387561, Control_c, 0, 64, 49
1, 387576, Control_c, 0, 64, 65
1, 387584, Note_on_c, 0, 56, 54
1, 387591, Control_c, 0, 64, 76
1, 387605, Control_c, 0, 64, 89
1, 387607, Note_off_c, 0, 68, 32
1, 387611, Note_off_c, 0, 53, 0
1, 387620, Control_c, 0, 64, 97
1, 387635, Control_c, 0, 64, 100
1, 387646, Note_on_c, 0, 61, 66
1, 387649, Poly_aftertouch_c, 0, 53, 127
1, 387650, Control_c, 0, 64, 103
1, 387659, Note_off_c, 0, 56, 46
1, 387665, Control_c, 0, 64, 106
1, 387675, Note_off_c, 0, 61, 65
1, 387679, Control_c, 0, 64, 113
1, 387694, Control_c, 0, 64, 127
1, 387715, Note_on_c, 0, 65, 59
1, 387727, Poly_aftertouch_c, 0, 53, 0
1, 387748, Note_off_c, 0, 65, 62
1, 387769, Note_on_c, 0, 61, 59
1, 387800, Note_off_c, 0, 61, 65
1, 387831, Note_on_c, 0, 56, 47
1, 387870, Note_off_c, 0, 56, 62
1, 387884, Note_on_c, 0, 53, 57
1, 387910, Note_on_c, 0, 85, 82
1, 387926, Note_on_c, 0, 73, 63
1, 387950, Note_off_c, 0, 53, 61
1, 387959, Note_on_c, 0, 56, 63
1, 387998, Note_off_c, 0, 73, 62
1, 388003, Note_off_c, 0, 56, 61
1, 388013, Note_on_c, 0, 61, 65
1, 388029, Note_off_c, 0, 85, 63
1, 388066, Note_off_c, 0, 80, 64
1, 388068, Note_off_c, 0, 61, 60
1, 388093, Note_on_c, 0, 68, 65
1, 388119, Note_off_c, 0, 68, 67
1, 388159, Note_on_c, 0, 61, 71
1, 388209, Note_off_c, 0, 61, 52
1, 388226, Note_on_c, 0, 56, 62
1, 388310, Control_c, 0, 64, 86
1, 388320, Note_off_c, 0, 56, 61
1, 388322, Note_on_c, 0, 51, 67
1, 388323, Note_on_c, 0, 85, 82
1, 388325, Control_c, 0, 64, 62
1, 388329, Note_on_c, 0, 80, 71
1, 388331, Note_on_c, 0, 73, 64
1, 388334, Note_on_c, 0, 78, 68
1, 388340, Control_c, 0, 64, 25
1, 388354, Control_c, 0, 64, 0
1, 388384, Control_c, 0, 64, 51
1, 388399, Control_c, 0, 64, 70
1, 388414, Control_c, 0, 64, 89
1, 388428, Control_c, 0, 64, 127
1, 388430, Note_on_c, 0, 56, 57
1, 388468, Note_off_c, 0, 85, 61
1, 388473, Note_off_c, 0, 73, 63
1, 388473, Note_off_c, 0, 78, 60
1, 388474, Note_off_c, 0, 80, 61
1, 388476, Note_off_c, 0, 56, 62
1, 388481, Note_on_c, 0, 60, 67
1, 388516, Note_off_c, 0, 51, 61
1, 388525, Note_off_c, 0, 60, 58
1, 388549, Note_on_c, 0, 72, 78
1, 388549, Note_on_c, 0, 78, 72
1, 388550, Note_on_c, 0, 80, 71
1, 388550, Note_on_c, 0, 84, 75
1, 388554, Note_on_c, 0, 66, 69
1, 388572, Note_off_c, 0, 72, 67
1, 388575, Note_off_c, 0, 78, 67
1, 388575, Note_off_c, 0, 80, 67
1, 388576, Note_off_c, 0, 84, 69
1, 388585, Note_off_c, 0, 66, 66
1, 388621, Note_on_c, 0, 84, 89
1, 388622, Note_on_c, 0, 78, 89
1, 388622, Note_on_c, 0, 80, 88
1, 388624, Note_on_c, 0, 60, 59
1, 388624, Note_on_c, 0, 72, 77
1, 388649, Note_off_c, 0, 72, 65
1, 388667, Note_off_c, 0, 60, 55
1, 388670, Note_off_c, 0, 80, 62
1, 388670, Note_off_c, 0, 84, 63
1, 388671, Note_off_c, 0, 78, 63
1, 388692, Note_on_c, 0, 56, 50
1, 388768, Note_on_c, 0, 51, 66
1, 388772, Note_off_c, 0, 56, 62
1, 388778, Note_on_c, 0, 84, 89
1, 388782, Note_on_c, 0, 78, 83
1, 388782, Note_on_c, 0, 72, 82
1, 388787, Note_on_c, 0, 80, 76
1, 388851, Note_on_c, 0, 56, 58
1, 388856, Note_off_c, 0, 80, 51
1, 388883, Note_off_c, 0, 72, 61
1, 388887, Note_off_c, 0, 84, 61
1, 388904, Note_off_c, 0, 78, 62
1, 388912, Note_on_c, 0, 60, 70
1, 388920, Note_off_c, 0, 56, 60
1, 388952, Note_off_c, 0, 51, 61
1, 388975, Note_off_c, 0, 60, 50
1, 388977, Note_on_c, 0, 70, 80
1, 388977, Note_on_c, 0, 82, 77
1, 388980, Note_on_c, 0, 66, 76
1, 388981, Note_on_c, 0, 78, 68
1, 389010, Note_off_c, 0, 70, 66
1, 389011, Note_off_c, 0, 78, 65
1, 389014, Note_off_c, 0, 82, 61
1, 389023, Note_off_c, 0, 66, 62
1, 389058, Poly_aftertouch_c, 0, 80, 127
1, 389062, Note_on_c, 0, 78, 88
1, 389067, Note_on_c, 0, 80, 4
1, 389068, Note_on_c, 0, 60, 53
1, 389071, Note_on_c, 0, 68, 69
1, 389087, Note_off_c, 0, 68, 68
1, 389090, Note_off_c, 0, 78, 58
1, 389104, Note_off_c, 0, 60, 61
1, 389105, Note_off_c, 0, 80, 61
1, 389121, Note_on_c, 0, 56, 62
1, 389154, Poly_aftertouch_c, 0, 70, 0
1, 389155, Poly_aftertouch_c, 0, 82, 0
1, 389231, Note_off_c, 0, 56, 60
1, 389232, Note_on_c, 0, 50, 66
1, 389294, Note_on_c, 0, 89, 90
1, 389295, Control_c, 0, 64, 115
1, 389300, Note_on_c, 0, 80, 82
1, 389301, Note_on_c, 0, 77, 72
1, 389310, Control_c, 0, 64, 77
1, 389325, Control_c, 0, 64, 60
1, 389340, Control_c, 0, 64, 28
1, 389355, Control_c, 0, 64, 0
1, 389414, Control_c, 0, 64, 26
1, 389415, Note_on_c, 0, 56, 57
1, 389429, Control_c, 0, 64, 53
1, 389443, Control_c, 0, 64, 65
1, 389458, Control_c, 0, 64, 72
1, 389473, Control_c, 0, 64, 79
1, 389488, Control_c, 0, 64, 84
1, 389503, Control_c, 0, 64, 89
1, 389503, Note_on_c, 0, 59, 65
1, 389505, Note_off_c, 0, 50, 37
1, 389518, Control_c, 0, 64, 97
1, 389533, Note_off_c, 0, 56, 53
1, 389533, Control_c, 0, 64, 109
1, 389548, Control_c, 0, 64, 127
1, 389557, Note_off_c, 0, 59, 58
1, 389577, Note_on_c, 0, 65, 64
1, 389610, Note_off_c, 0, 65, 64
1, 389646, Note_on_c, 0, 59, 63
1, 389684, Note_off_c, 0, 89, 55
1, 389689, Note_off_c, 0, 59, 64
1, 389703, Note_on_c, 0, 56, 61
1, 389717, Note_off_c, 0, 80, 59
1, 389733, Note_off_c, 0, 77, 62
1, 389786, Note_off_c, 0, 56, 60
1, 389799, Note_on_c, 0, 50, 70
1, 389871, Note_on_c, 0, 89, 82
1, 389878, Note_on_c, 0, 77, 67
1, 389879, Note_on_c, 0, 80, 74
1, 389882, Control_c, 0, 64, 115
1, 389896, Control_c, 0, 64, 82
1, 389911, Control_c, 0, 64, 65
1, 389926, Control_c, 0, 64, 42
1, 389941, Control_c, 0, 64, 0
1, 389971, Control_c, 0, 64, 27
1, 389986, Control_c, 0, 64, 50
1, 390000, Control_c, 0, 64, 64
1, 390015, Control_c, 0, 64, 72
1, 390016, Note_on_c, 0, 56, 54
1, 390030, Control_c, 0, 64, 79
1, 390045, Control_c, 0, 64, 86
1, 390060, Control_c, 0, 64, 93
1, 390074, Control_c, 0, 64, 106
1, 390081, Note_off_c, 0, 50, 53
1, 390089, Control_c, 0, 64, 127
1, 390128, Note_off_c, 0, 56, 55
1, 390144, Note_on_c, 0, 58, 40
1, 390203, Note_off_c, 0, 58, 51
1, 390224, Note_off_c, 0, 89, 50
1, 390231, Note_on_c, 0, 65, 46
1, 390244, Note_off_c, 0, 80, 56
1, 390272, Note_off_c, 0, 77, 61
1, 390276, Note_off_c, 0, 65, 44
1, 390334, Note_on_c, 0, 58, 45
1, 390366, Note_on_c, 0, 89, 67
1, 390377, Note_on_c, 0, 80, 60
1, 390387, Note_on_c, 0, 77, 61
1, 390394, Note_off_c, 0, 58, 47
1, 390442, Note_on_c, 0, 56, 37
1, 390516, Note_off_c, 0, 89, 49
1, 390532, Note_off_c, 0, 80, 58
1, 390565, Note_off_c, 0, 77, 33
1, 390600, Note_off_c, 0, 56, 46
1, 390605, Note_on_c, 0, 51, 50
1, 390616, Control_c, 0, 64, 110
1, 390631, Control_c, 0, 64, 80
1, 390633, Note_on_c, 0, 89, 78
1, 390646, Note_on_c, 0, 80, 67
1, 390646, Control_c, 0, 64, 65
1, 390661, Control_c, 0, 64, 50
1, 390668, Note_on_c, 0, 77, 52
1, 390676, Control_c, 0, 64, 33
1, 390690, Control_c, 0, 64, 31
1, 390705, Control_c, 0, 64, 45
1, 390720, Control_c, 0, 64, 62
1, 390735, Control_c, 0, 64, 70
1, 390740, Note_on_c, 0, 54, 47
1, 390749, Control_c, 0, 64, 78
1, 390764, Control_c, 0, 64, 88
1, 390779, Control_c, 0, 64, 96
1, 390794, Control_c, 0, 64, 105
1, 390809, Control_c, 0, 64, 127
1, 390818, Note_off_c, 0, 54, 54
1, 390823, Note_on_c, 0, 58, 56
1, 390829, Note_off_c, 0, 89, 56
1, 390866, Note_off_c, 0, 58, 61
1, 390899, Note_on_c, 0, 63, 56
1, 390934, Note_off_c, 0, 80, 59
1, 390935, Note_off_c, 0, 63, 63
1, 390947, Note_off_c, 0, 51, 41
1, 390964, Note_on_c, 0, 58, 54
1, 390990, Note_off_c, 0, 58, 54
1, 390992, Note_on_c, 0, 54, 57
1, 390996, Note_off_c, 0, 77, 60
1, 391017, Note_off_c, 0, 54, 67
1, 391113, Note_on_c, 0, 42, 68
1, 391117, Note_on_c, 0, 87, 78
1, 391127, Note_on_c, 0, 75, 64
1, 391130, Note_on_c, 0, 78, 66
1, 391156, Note_off_c, 0, 42, 60
1, 391262, Note_off_c, 0, 87, 62
1, 391273, Note_on_c, 0, 54, 58
1, 391327, Note_off_c, 0, 54, 51
1, 391338, Note_off_c, 0, 75, 62
1, 391361, Note_off_c, 0, 78, 58
1, 391378, Note_on_c, 0, 58, 54
1, 391442, Note_off_c, 0, 58, 56
1, 391447, Note_on_c, 0, 85, 81
1, 391461, Note_on_c, 0, 73, 60
1, 391467, Note_on_c, 0, 78, 70
1, 391476, Note_on_c, 0, 63, 55
1, 391545, Note_off_c, 0, 63, 57
1, 391557, Note_on_c, 0, 58, 63
1, 391602, Note_off_c, 0, 73, 61
1, 391610, Note_off_c, 0, 78, 52
1, 391646, Note_off_c, 0, 58, 64
1, 391662, Note_on_c, 0, 54, 58
1, 391712, Note_on_c, 0, 82, 75
1, 391717, Note_on_c, 0, 78, 75
1, 391719, Note_on_c, 0, 70, 66
1, 391743, Note_off_c, 0, 85, 60
1, 391751, Note_off_c, 0, 70, 65
1, 391774, Note_off_c, 0, 78, 52
1, 391786, Note_off_c, 0, 54, 60
1, 391804, Note_on_c, 0, 84, 83
1, 391805, Note_off_c, 0, 82, 63
1, 391810, Note_on_c, 0, 44, 63
1, 391813, Note_on_c, 0, 72, 74
1, 391814, Note_on_c, 0, 80, 72
1, 391838, Control_c, 0, 64, 87
1, 391853, Control_c, 0, 64, 62
1, 391868, Control_c, 0, 64, 12
1, 391882, Control_c, 0, 64, 0
1, 391927, Control_c, 0, 64, 9
1, 391942, Control_c, 0, 64, 51
1, 391950, Note_on_c, 0, 53, 53
1, 391957, Control_c, 0, 64, 70
1, 391971, Control_c, 0, 64, 96
1, 391994, Control_c, 0, 64, 127
1, 391995, Note_off_c, 0, 44, 59
1, 392051, Note_off_c, 0, 53, 59
1, 392055, Note_on_c, 0, 56, 64
1, 392114, Note_off_c, 0, 56, 58
1, 392133, Note_on_c, 0, 61, 65
1, 392177, Note_off_c, 0, 61, 60
1, 392200, Note_off_c, 0, 72, 61
1, 392207, Note_on_c, 0, 56, 67
1, 392213, Note_off_c, 0, 80, 55
1, 392250, Note_off_c, 0, 56, 58
1, 392269, Note_on_c, 0, 53, 59
1, 392344, Note_off_c, 0, 53, 61
1, 392344, Note_on_c, 0, 82, 74
1, 392347, Note_on_c, 0, 44, 77
1, 392351, Note_on_c, 0, 70, 66
1, 392397, Note_off_c, 0, 84, 62
1, 392443, Note_off_c, 0, 82, 63
1, 392467, Note_off_c, 0, 70, 61
1, 392469, Note_on_c, 0, 53, 66
1, 392490, Note_off_c, 0, 44, 61
1, 392552, Note_off_c, 0, 53, 58
1, 392558, Note_on_c, 0, 56, 68
1, 392566, Note_on_c, 0, 80, 78
1, 392571, Note_on_c, 0, 68, 69
1, 392579, Note_on_c, 0, 77, 64
1, 392618, Note_off_c, 0, 56, 57
1, 392627, Note_off_c, 0, 68, 58
1, 392636, Note_on_c, 0, 61, 70
1, 392645, Note_off_c, 0, 77, 57
1, 392681, Note_off_c, 0, 61, 59
1, 392693, Note_off_c, 0, 80, 54
1, 392707, Note_on_c, 0, 56, 70
1, 392732, Note_on_c, 0, 82, 87
1, 392748, Note_on_c, 0, 70, 73
1, 392756, Note_off_c, 0, 56, 59
1, 392757, Note_on_c, 0, 77, 63
1, 392770, Note_on_c, 0, 53, 64
1, 392815, Note_off_c, 0, 77, 53
1, 392827, Note_off_c, 0, 70, 61
1, 392827, Note_off_c, 0, 82, 61
1, 392865, Note_on_c, 0, 44, 87
1, 392877, Control_c, 0, 64, 75
1, 392883, Note_off_c, 0, 53, 57
1, 392892, Control_c, 0, 64, 0
1, 392902, Note_on_c, 0, 83, 85
1, 392907, Note_on_c, 0, 71, 79
1, 392909, Note_on_c, 0, 77, 74
1, 392981, Control_c, 0, 64, 31
1, 392996, Control_c, 0, 64, 76
1, 393011, Control_c, 0, 64, 127
1, 393032, Note_on_c, 0, 53, 48
1, 393069, Note_off_c, 0, 44, 60
1, 393122, Note_off_c, 0, 53, 60
1, 393137, Note_on_c, 0, 56, 60
1, 393165, Note_off_c, 0, 71, 61
1, 393182, Note_off_c, 0, 56, 57
1, 393199, Note_on_c, 0, 62, 56
1, 393226, Note_off_c, 0, 62, 56
1, 393267, Note_on_c, 0, 56, 73
1, 393283, Note_off_c, 0, 77, 0
1, 393284, Note_on_c, 0, 82, 79
1, 393299, Note_on_c, 0, 70, 60
1, 393301, Note_off_c, 0, 83, 65
1, 393320, Poly_aftertouch_c, 0, 77, 127
1, 393332, Note_off_c, 0, 56, 60
1, 393336, Note_on_c, 0, 53, 63
1, 393344, Poly_aftertouch_c, 0, 77, 0
1, 393353, Note_off_c, 0, 70, 56
1, 393420, Note_off_c, 0, 53, 59
1, 393433, Note_on_c, 0, 44, 70
1, 393453, Note_on_c, 0, 77, 57
1, 393453, Note_on_c, 0, 83, 73
1, 393453, Note_off_c, 0, 82, 44
1, 393459, Note_on_c, 0, 71, 64
1, 393518, Note_off_c, 0, 44, 59
1, 393533, Note_on_c, 0, 53, 53
1, 393587, Note_off_c, 0, 53, 57
1, 393593, Note_on_c, 0, 56, 69
1, 393636, Note_off_c, 0, 56, 60
1, 393667, Note_on_c, 0, 62, 60
1, 393691, Note_off_c, 0, 62, 58
1, 393721, Note_on_c, 0, 56, 75
1, 393769, Note_off_c, 0, 56, 62
1, 393779, Note_on_c, 0, 53, 63
1, 393830, Note_off_c, 0, 53, 62
1, 393837, Note_on_c, 0, 44, 80
1, 393896, Note_off_c, 0, 71, 61
1, 393906, Note_off_c, 0, 44, 62
1, 393913, Note_on_c, 0, 53, 67
1, 393934, Note_off_c, 0, 77, 62
1, 393960, Note_off_c, 0, 53, 49
1, 393974, Note_on_c, 0, 56, 71
1, 394024, Note_off_c, 0, 56, 61
1, 394034, Note_on_c, 0, 62, 68
1, 394054, Note_on_c, 0, 82, 88
1, 394061, Note_on_c, 0, 70, 77
1, 394071, Note_off_c, 0, 62, 62
1, 394084, Note_off_c, 0, 83, 63
1, 394093, Note_on_c, 0, 56, 75
1, 394138, Note_off_c, 0, 70, 62
1, 394151, Note_off_c, 0, 56, 62
1, 394152, Note_on_c, 0, 53, 63
1, 394201, Note_off_c, 0, 53, 55
1, 394204, Note_on_c, 0, 83, 84
1, 394212, Note_on_c, 0, 71, 76
1, 394217, Note_on_c, 0, 44, 80
1, 394220, Note_on_c, 0, 77, 64
1, 394237, Note_off_c, 0, 82, 60
1, 394260, Note_off_c, 0, 71, 59
1, 394289, Note_on_c, 0, 53, 67
1, 394290, Note_off_c, 0, 77, 60
1, 394293, Note_off_c, 0, 44, 62
1, 394310, Note_off_c, 0, 83, 63
1, 394341, Note_on_c, 0, 70, 82
1, 394344, Note_on_c, 0, 77, 57
1, 394345, Note_on_c, 0, 82, 78
1, 394354, Note_on_c, 0, 56, 74
1, 394375, Note_on_c, 0, 83, 4
1, 394392, Note_off_c, 0, 70, 63
1, 394392, Note_off_c, 0, 77, 59
1, 394407, Note_off_c, 0, 82, 61
1, 394410, Note_on_c, 0, 62, 72
1, 394416, Note_off_c, 0, 56, 63
1, 394433, Note_off_c, 0, 83, 0
1, 394442, Note_off_c, 0, 53, 48
1, 394446, Note_off_c, 0, 62, 61
1, 394448, Note_on_c, 0, 83, 72
1, 394451, Note_on_c, 0, 71, 85
1, 394452, Note_on_c, 0, 77, 68
1, 394467, Note_on_c, 0, 56, 75
1, 394499, Note_off_c, 0, 71, 63
1, 394507, Note_off_c, 0, 77, 64
1, 394510, Note_on_c, 0, 53, 47
1, 394510, Note_off_c, 0, 83, 65
1, 394523, Note_off_c, 0, 56, 62
1, 394582, Note_off_c, 0, 53, 60
1, 394582, Note_on_c, 0, 83, 99
1, 394583, Control_c, 0, 64, 75
1, 394588, Note_on_c, 0, 71, 90
1, 394588, Note_on_c, 0, 44, 82
1, 394588, Note_on_c, 0, 78, 80
1, 394597, Control_c, 0, 64, 45
1, 394612, Control_c, 0, 64, 0
1, 394642, Control_c, 0, 64, 44
1, 394657, Control_c, 0, 64, 66
1, 394670, Note_off_c, 0, 44, 62
1, 394671, Note_on_c, 0, 51, 73
1, 394672, Control_c, 0, 64, 82
1, 394687, Control_c, 0, 64, 109
1, 394702, Control_c, 0, 64, 127
1, 394729, Note_on_c, 0, 54, 77
1, 394764, Note_off_c, 0, 71, 62
1, 394792, Note_off_c, 0, 78, 62
1, 394797, Note_on_c, 0, 63, 77
1, 394806, Note_off_c, 0, 51, 0
1, 394806, Note_off_c, 0, 54, 64
1, 394829, Note_off_c, 0, 83, 64
1, 394844, Poly_aftertouch_c, 0, 51, 127
1, 394846, Note_off_c, 0, 63, 63
1, 394858, Note_on_c, 0, 82, 95
1, 394861, Note_on_c, 0, 70, 90
1, 394866, Note_on_c, 0, 54, 78
1, 394873, Note_on_c, 0, 78, 72
1, 394878, Poly_aftertouch_c, 0, 51, 0
1, 394904, Note_off_c, 0, 70, 62
1, 394909, Note_off_c, 0, 78, 56
1, 394936, Note_on_c, 0, 51, 58
1, 394937, Note_off_c, 0, 54, 63
1, 394954, Note_off_c, 0, 82, 60
1, 395044, Note_on_c, 0, 44, 83
1, 395061, Note_off_c, 0, 51, 62
1, 395077, Note_on_c, 0, 79, 83
1, 395080, Control_c, 0, 64, 87
1, 395081, Note_on_c, 0, 73, 95
1, 395081, Note_on_c, 0, 85, 90
1, 395095, Control_c, 0, 64, 63
1, 395110, Control_c, 0, 64, 21
1, 395124, Control_c, 0, 64, 0
1, 395137, Note_on_c, 0, 82, 2
1, 395138, Note_off_c, 0, 82, 127
1, 395169, Control_c, 0, 64, 14
1, 395184, Control_c, 0, 64, 47
1, 395198, Control_c, 0, 64, 63
1, 395200, Note_on_c, 0, 52, 60
1, 395211, Note_off_c, 0, 44, 62
1, 395213, Control_c, 0, 64, 72
1, 395228, Control_c, 0, 64, 80
1, 395242, Control_c, 0, 64, 88
1, 395257, Control_c, 0, 64, 93
1, 395274, Control_c, 0, 64, 101
1, 395288, Control_c, 0, 64, 114
1, 395298, Note_off_c, 0, 52, 62
1, 395299, Note_on_c, 0, 55, 58
1, 395303, Control_c, 0, 64, 127
1, 395354, Note_off_c, 0, 55, 49
1, 395381, Note_on_c, 0, 64, 58
1, 395409, Note_off_c, 0, 64, 67
1, 395448, Note_on_c, 0, 55, 46
1, 395466, Control_c, 0, 67, 8
1, 395475, Note_on_c, 0, 52, 63
1, 395477, Note_off_c, 0, 55, 55
1, 395480, Control_c, 0, 67, 10
1, 395495, Control_c, 0, 67, 10
1, 395510, Control_c, 0, 67, 11
1, 395525, Control_c, 0, 67, 12
1, 395539, Control_c, 0, 67, 14
1, 395544, Note_off_c, 0, 79, 57
1, 395554, Control_c, 0, 67, 17
1, 395560, Note_off_c, 0, 52, 61
1, 395568, Note_off_c, 0, 85, 59
1, 395569, Control_c, 0, 67, 20
1, 395584, Control_c, 0, 67, 26
1, 395586, Note_on_c, 0, 44, 61
1, 395586, Note_off_c, 0, 73, 58
1, 395599, Control_c, 0, 67, 34
1, 395614, Control_c, 0, 67, 44
1, 395629, Control_c, 0, 67, 51
1, 395639, Note_off_c, 0, 44, 61
1, 395644, Control_c, 0, 67, 57
1, 395659, Control_c, 0, 67, 63
1, 395673, Control_c, 0, 67, 69
1, 395688, Control_c, 0, 67, 74
1, 395693, Note_on_c, 0, 52, 52
1, 395703, Control_c, 0, 67, 79
1, 395717, Control_c, 0, 67, 86
1, 395739, Control_c, 0, 67, 89
1, 395754, Control_c, 0, 67, 92
1, 395769, Control_c, 0, 67, 95
1, 395784, Control_c, 0, 67, 99
1, 395799, Control_c, 0, 67, 103
1, 395813, Control_c, 0, 67, 107
1, 395828, Control_c, 0, 67, 110
1, 395829, Note_on_c, 0, 55, 23
1, 395843, Control_c, 0, 67, 112
1, 395856, Note_on_c, 0, 84, 66
1, 395858, Control_c, 0, 67, 114
1, 395863, Note_off_c, 0, 55, 48
1, 395864, Note_on_c, 0, 79, 62
1, 395867, Note_on_c, 0, 72, 60
1, 395872, Control_c, 0, 67, 117
1, 395875, Note_off_c, 0, 52, 27
1, 395887, Control_c, 0, 67, 120
1, 395902, Control_c, 0, 67, 123
1, 395905, Note_off_c, 0, 72, 64
1, 395907, Note_on_c, 0, 64, 49
1, 395912, Note_off_c, 0, 84, 62
1, 395917, Control_c, 0, 67, 127
1, 395924, Note_off_c, 0, 79, 62
1, 395930, Note_off_c, 0, 64, 61
1, 395932, Control_c, 0, 67, 127
1, 395959, Note_on_c, 0, 55, 54
1, 395996, Note_off_c, 0, 55, 60
1, 395998, Note_on_c, 0, 52, 56
1, 396021, Note_on_c, 0, 73, 61
1, 396027, Note_on_c, 0, 85, 63
1, 396028, Note_on_c, 0, 79, 56
1, 396048, Note_off_c, 0, 52, 60
1, 396055, Note_off_c, 0, 73, 65
1, 396055, Note_off_c, 0, 79, 59
1, 396064, Note_off_c, 0, 85, 64
1, 396074, Note_on_c, 0, 44, 61
1, 396106, Note_off_c, 0, 44, 65
1, 396144, Note_on_c, 0, 79, 58
1, 396145, Note_on_c, 0, 84, 72
1, 396150, Note_on_c, 0, 72, 67
1, 396174, Note_off_c, 0, 84, 66
1, 396177, Note_off_c, 0, 72, 66
1, 396180, Note_on_c, 0, 52, 28
1, 396186, Note_off_c, 0, 79, 63
1, 396199, Note_on_c, 0, 55, 62
1, 396215, Note_off_c, 0, 52, 45
1, 396267, Note_on_c, 0, 64, 54
1, 396268, Note_on_c, 0, 85, 74
1, 396272, Note_on_c, 0, 73, 66
1, 396277, Note_on_c, 0, 79, 55
1, 396289, Note_off_c, 0, 64, 61
1, 396293, Note_off_c, 0, 85, 68
1, 396296, Note_off_c, 0, 79, 63
1, 396299, Note_off_c, 0, 73, 67
1, 396331, Note_on_c, 0, 52, 62
1, 396340, Note_off_c, 0, 55, 59
1, 396362, Control_c, 0, 64, 120
1, 396377, Control_c, 0, 64, 78
1, 396386, Note_on_c, 0, 73, 62
1, 396389, Note_on_c, 0, 85, 72
1, 396392, Control_c, 0, 64, 57
1, 396400, Note_on_c, 0, 80, 66
1, 396403, Note_off_c, 0, 52, 62
1, 396407, Control_c, 0, 64, 0
1, 396428, Note_on_c, 0, 44, 67
1, 396436, Control_c, 0, 64, 18
1, 396451, Control_c, 0, 64, 61
1, 396466, Control_c, 0, 64, 80
1, 396487, Control_c, 0, 64, 127
1, 396499, Note_off_c, 0, 44, 62
1, 396508, Note_on_c, 0, 53, 56
1, 396562, Control_c, 0, 67, 124
1, 396576, Note_off_c, 0, 53, 59
1, 396579, Note_on_c, 0, 56, 66
1, 396592, Control_c, 0, 67, 125
1, 396602, Note_off_c, 0, 85, 58
1, 396603, Note_off_c, 0, 80, 60
1, 396606, Note_off_c, 0, 73, 64
1, 396606, Control_c, 0, 67, 123
1, 396621, Control_c, 0, 67, 121
1, 396627, Note_off_c, 0, 56, 59
1, 396636, Control_c, 0, 67, 118
1, 396636, Note_on_c, 0, 65, 59
1, 396651, Control_c, 0, 67, 117
1, 396657, Note_off_c, 0, 65, 62
1, 396666, Note_on_c, 0, 84, 74
1, 396666, Control_c, 0, 67, 118
1, 396673, Note_on_c, 0, 72, 73
1, 396688, Note_on_c, 0, 80, 51
1, 396692, Note_on_c, 0, 56, 66
1, 396699, Note_off_c, 0, 72, 66
1, 396705, Note_off_c, 0, 84, 61
1, 396710, Control_c, 0, 67, 117
1, 396720, Note_off_c, 0, 56, 65
1, 396721, Note_off_c, 0, 80, 63
1, 396725, Control_c, 0, 67, 116
1, 396747, Note_on_c, 0, 53, 42
1, 396755, Control_c, 0, 67, 117
1, 396769, Control_c, 0, 67, 119
1, 396776, Note_off_c, 0, 53, 59
1, 396784, Control_c, 0, 67, 120
1, 396799, Control_c, 0, 64, 97
1, 396799, Control_c, 0, 67, 121
1, 396809, Note_on_c, 0, 44, 69
1, 396810, Note_on_c, 0, 87, 85
1, 396812, Note_on_c, 0, 81, 69
1, 396814, Control_c, 0, 64, 65
1, 396825, Note_on_c, 0, 75, 57
1, 396829, Control_c, 0, 64, 25
1, 396829, Control_c, 0, 67, 122
1, 396843, Control_c, 0, 64, 0
1, 396843, Control_c, 0, 67, 123
1, 396859, Control_c, 0, 64, 27
1, 396859, Control_c, 0, 67, 122
1, 396874, Control_c, 0, 64, 63
1, 396874, Control_c, 0, 67, 122
1, 396887, Note_off_c, 0, 44, 58
1, 396889, Control_c, 0, 64, 89
1, 396889, Control_c, 0, 67, 121
1, 396898, Note_on_c, 0, 51, 53
1, 396904, Control_c, 0, 64, 127
1, 396904, Control_c, 0, 67, 120
1, 396918, Control_c, 0, 67, 119
1, 396933, Control_c, 0, 67, 117
1, 396948, Control_c, 0, 67, 114
1, 396952, Note_off_c, 0, 51, 56
1, 396955, Note_on_c, 0, 54, 60
1, 396963, Control_c, 0, 67, 109
1, 396978, Control_c, 0, 67, 105
1, 396979, Note_off_c, 0, 87, 63
1, 396984, Note_off_c, 0, 54, 65
1, 396985, Note_off_c, 0, 75, 64
1, 396990, Note_off_c, 0, 81, 60
1, 396992, Note_on_c, 0, 60, 67
1, 396992, Control_c, 0, 67, 103
1, 397007, Control_c, 0, 67, 101
1, 397022, Control_c, 0, 67, 100
1, 397029, Note_off_c, 0, 60, 60
1, 397037, Control_c, 0, 67, 99
1, 397052, Control_c, 0, 67, 97
1, 397056, Note_on_c, 0, 87, 75
1, 397061, Note_on_c, 0, 54, 57
1, 397062, Note_on_c, 0, 75, 66
1, 397066, Control_c, 0, 67, 94
1, 397069, Note_on_c, 0, 81, 46
1, 397081, Control_c, 0, 67, 92
1, 397092, Note_off_c, 0, 54, 65
1, 397095, Note_off_c, 0, 81, 59
1, 397096, Control_c, 0, 67, 91
1, 397098, Note_off_c, 0, 75, 65
1, 397110, Control_c, 0, 67, 90
1, 397111, Note_off_c, 0, 87, 64
1, 397122, Note_on_c, 0, 51, 48
1, 397125, Control_c, 0, 67, 89
1, 397140, Control_c, 0, 67, 88
1, 397158, Note_off_c, 0, 51, 62
1, 397170, Control_c, 0, 64, 111
1, 397176, Note_on_c, 0, 44, 73
1, 397182, Note_on_c, 0, 87, 86
1, 397185, Control_c, 0, 64, 69
1, 397191, Note_on_c, 0, 75, 72
1, 397191, Note_on_c, 0, 80, 74
1, 397200, Control_c, 0, 64, 46
1, 397200, Control_c, 0, 67, 88
1, 397215, Control_c, 0, 64, 47
1, 397215, Control_c, 0, 67, 86
1, 397238, Control_c, 0, 64, 68
1, 397238, Control_c, 0, 67, 82
1, 397253, Control_c, 0, 64, 127
1, 397253, Control_c, 0, 67, 74
1, 397259, Note_off_c, 0, 44, 61
1, 397261, Note_on_c, 0, 47, 65
1, 397267, Control_c, 0, 67, 61
1, 397282, Control_c, 0, 67, 44
1, 397297, Control_c, 0, 67, 19
1, 397311, Control_c, 0, 67, 0
1, 397334, Note_off_c, 0, 47, 61
1, 397341, Note_on_c, 0, 53, 59
1, 397360, Note_on_c, 0, 59, 49
1, 397361, Note_off_c, 0, 80, 57
1, 397361, Note_off_c, 0, 87, 63
1, 397364, Note_off_c, 0, 75, 67
1, 397383, Note_off_c, 0, 59, 59
1, 397384, Note_on_c, 0, 57, 28
1, 397411, Note_off_c, 0, 53, 34
1, 397416, Note_on_c, 0, 47, 62
1, 397424, Note_off_c, 0, 57, 46
1, 397429, Note_on_c, 0, 74, 86
1, 397429, Note_on_c, 0, 86, 82
1, 397432, Note_on_c, 0, 80, 70
1, 397446, Note_off_c, 0, 47, 65
1, 397460, Note_off_c, 0, 74, 62
1, 397471, Note_off_c, 0, 80, 60
1, 397475, Note_off_c, 0, 86, 65
1, 397504, Control_c, 0, 64, 108
1, 397519, Control_c, 0, 64, 62
1, 397533, Note_on_c, 0, 44, 71
1, 397534, Control_c, 0, 64, 0
1, 397561, Note_on_c, 0, 89, 89
1, 397563, Control_c, 0, 64, 65
1, 397566, Note_on_c, 0, 77, 83
1, 397566, Note_on_c, 0, 83, 82
1, 397578, Control_c, 0, 64, 127
1, 397604, Note_on_c, 0, 53, 74
1, 397614, Poly_aftertouch_c, 0, 49, 127
1, 397633, Note_off_c, 0, 44, 58
1, 397662, Poly_aftertouch_c, 0, 49, 0
1, 397680, Note_on_c, 0, 56, 75
1, 397717, Note_off_c, 0, 53, 59
1, 397742, Note_on_c, 0, 87, 11
1, 397749, Note_on_c, 0, 62, 68
1, 397754, Note_off_c, 0, 56, 59
1, 397762, Note_off_c, 0, 77, 64
1, 397762, Note_off_c, 0, 89, 63
1, 397763, Note_off_c, 0, 83, 63
1, 397785, Note_off_c, 0, 62, 63
1, 397796, Note_on_c, 0, 56, 52
1, 397803, Note_off_c, 0, 87, 36
1, 397826, Note_on_c, 0, 89, 89
1, 397832, Note_on_c, 0, 77, 80
1, 397835, Note_on_c, 0, 53, 68
1, 397835, Note_on_c, 0, 83, 77
1, 397846, Note_off_c, 0, 56, 56
1, 397867, Note_off_c, 0, 83, 64
1, 397879, Note_off_c, 0, 77, 65
1, 397887, Note_off_c, 0, 89, 64
1, 397905, Control_c, 0, 64, 105
1, 397907, Note_off_c, 0, 53, 62
1, 397920, Control_c, 0, 64, 46
1, 397934, Control_c, 0, 64, 0
1, 397936, Note_on_c, 0, 44, 77
1, 397959, Note_on_c, 0, 89, 98
1, 397963, Note_on_c, 0, 77, 89
1, 397963, Note_on_c, 0, 82, 86
1, 397964, Control_c, 0, 64, 60
1, 397987, Control_c, 0, 64, 127
1, 398023, Note_off_c, 0, 44, 62
1, 398025, Note_on_c, 0, 49, 71
1, 398110, Note_on_c, 0, 55, 70
1, 398121, Note_off_c, 0, 49, 62
1, 398130, Note_off_c, 0, 89, 63
1, 398138, Note_off_c, 0, 77, 64
1, 398160, Note_off_c, 0, 82, 63
1, 398165, Note_on_c, 0, 61, 76
1, 398174, Note_on_c, 0, 85, 2
1, 398198, Note_off_c, 0, 61, 65
1, 398216, Note_on_c, 0, 88, 94
1, 398217, Note_on_c, 0, 82, 88
1, 398218, Note_on_c, 0, 76, 93
1, 398222, Note_off_c, 0, 85, 31
1, 398249, Note_on_c, 0, 49, 60
1, 398252, Note_off_c, 0, 76, 64
1, 398254, Note_off_c, 0, 55, 53
1, 398267, Note_off_c, 0, 88, 68
1, 398268, Note_off_c, 0, 82, 65
1, 398326, Control_c, 0, 64, 74
1, 398339, Note_on_c, 0, 44, 82
1, 398341, Control_c, 0, 64, 0
1, 398351, Note_on_c, 0, 91, 99
1, 398356, Note_on_c, 0, 79, 97
1, 398356, Control_c, 0, 64, 15
1, 398362, Note_on_c, 0, 85, 82
1, 398371, Control_c, 0, 64, 0
1, 398386, Control_c, 0, 64, 16
1, 398401, Control_c, 0, 64, 127
1, 398411, Note_on_c, 0, 52, 70
1, 398419, Note_off_c, 0, 44, 62
1, 398458, Note_off_c, 0, 49, 55
1, 398503, Note_on_c, 0, 58, 81
1, 398532, Note_off_c, 0, 52, 58
1, 398565, Note_off_c, 0, 79, 64
1, 398566, Note_on_c, 0, 64, 80
1, 398566, Note_off_c, 0, 91, 63
1, 398574, Note_off_c, 0, 85, 63
1, 398579, Note_off_c, 0, 58, 64
1, 398586, Poly_aftertouch_c, 0, 51, 127
1, 398602, Note_off_c, 0, 64, 62
1, 398622, Note_on_c, 0, 58, 60
1, 398632, Note_on_c, 0, 85, 84
1, 398633, Note_on_c, 0, 91, 90
1, 398633, Note_on_c, 0, 79, 95
1, 398634, Poly_aftertouch_c, 0, 51, 0
1, 398668, Note_on_c, 0, 52, 67
1, 398672, Note_off_c, 0, 58, 62
1, 398685, Note_off_c, 0, 85, 63
1, 398711, Note_off_c, 0, 79, 62
1, 398719, Note_off_c, 0, 91, 64
1, 398765, Control_c, 0, 64, 67
1, 398780, Control_c, 0, 64, 0
1, 398786, Note_on_c, 0, 44, 86
1, 398787, Note_off_c, 0, 52, 59
1, 398794, Note_on_c, 0, 84, 97
1, 398794, Control_c, 0, 64, 16
1, 398797, Note_on_c, 0, 91, 98
1, 398798, Note_on_c, 0, 79, 110
1, 398809, Control_c, 0, 64, 0
1, 398839, Control_c, 0, 64, 57
1, 398854, Control_c, 0, 64, 127
1, 398872, Note_on_c, 0, 51, 75
1, 398875, Note_off_c, 0, 44, 62
1, 398897, Note_on_c, 0, 50, 3
1, 398935, Note_off_c, 0, 50, 37
1, 398946, Note_on_c, 0, 54, 80
1, 398954, Note_off_c, 0, 79, 64
1, 398961, Note_off_c, 0, 51, 59
1, 398968, Note_off_c, 0, 91, 63
1, 399013, Note_off_c, 0, 84, 53
1, 399018, Note_on_c, 0, 63, 73
1, 399021, Note_off_c, 0, 54, 63
1, 399059, Note_off_c, 0, 63, 64
1, 399093, Note_on_c, 0, 54, 76
1, 399095, Note_on_c, 0, 92, 97
1, 399097, Note_on_c, 0, 80, 99
1, 399097, Note_on_c, 0, 84, 82
1, 399130, Note_on_c, 0, 89, 29
1, 399163, Note_off_c, 0, 89, 47
1, 399173, Note_on_c, 0, 51, 68
1, 399176, Note_off_c, 0, 54, 63
1, 399184, Note_off_c, 0, 80, 62
1, 399194, Note_off_c, 0, 84, 55
1, 399208, Note_off_c, 0, 92, 62
1, 399239, Control_c, 0, 64, 93
1, 399254, Control_c, 0, 64, 58
1, 399269, Control_c, 0, 64, 0
1, 399274, Note_on_c, 0, 44, 90
1, 399282, Note_on_c, 0, 84, 90
1, 399282, Note_on_c, 0, 93, 101
1, 399284, Note_off_c, 0, 51, 67
1, 399285, Note_on_c, 0, 81, 104
1, 399298, Control_c, 0, 64, 19
1, 399313, Control_c, 0, 64, 81
1, 399328, Control_c, 0, 64, 127
1, 399331, Note_off_c, 0, 81, 65
1, 399331, Note_off_c, 0, 93, 68
1, 399356, Note_off_c, 0, 84, 67
1, 399358, Note_on_c, 0, 51, 78
1, 399381, Note_off_c, 0, 44, 61
1, 399386, Poly_aftertouch_c, 0, 88, 0
1, 399439, Note_on_c, 0, 54, 77
1, 399483, Note_off_c, 0, 51, 60
1, 399519, Note_on_c, 0, 60, 77
1, 399529, Note_off_c, 0, 54, 63
1, 399608, Note_on_c, 0, 54, 64
1, 399620, Note_off_c, 0, 60, 50
1, 399710, Note_on_c, 0, 51, 77
1, 399722, Note_off_c, 0, 54, 64
1, 399731, Note_on_c, 0, 84, 94
1, 399733, Note_on_c, 0, 72, 99
1, 399736, Note_on_c, 0, 78, 93
1, 399755, Note_off_c, 0, 51, 64
1, 399787, Note_off_c, 0, 72, 63
1, 399796, Note_off_c, 0, 84, 66
1, 399822, Note_off_c, 0, 78, 60
1, 399823, Control_c, 0, 64, 68
1, 399838, Control_c, 0, 64, 0
1, 399853, Control_c, 0, 64, 25
1, 399868, Control_c, 0, 64, 0
1, 400032, Note_on_c, 0, 37, 89
1, 400035, Note_on_c, 0, 85, 90
1, 400037, Note_on_c, 0, 73, 97
1, 400040, Note_on_c, 0, 77, 94
1, 400061, Control_c, 0, 64, 77
1, 400065, Note_off_c, 0, 37, 65
1, 400073, Note_off_c, 0, 73, 66
1, 400075, Note_off_c, 0, 85, 65
1, 400076, Control_c, 0, 64, 127
1, 400077, Note_off_c, 0, 77, 68
1, 400343, Note_on_c, 0, 44, 58
1, 400343, Poly_aftertouch_c, 0, 54, 127
1, 400415, Note_on_c, 0, 53, 54
1, 400428, Note_off_c, 0, 44, 62
1, 400463, Note_on_c, 0, 61, 82
1, 400464, Note_on_c, 0, 65, 89
1, 400466, Note_off_c, 0, 53, 63
1, 400488, Note_off_c, 0, 61, 67
1, 400495, Poly_aftertouch_c, 0, 54, 0
1, 400514, Note_off_c, 0, 65, 60
1, 400538, Note_on_c, 0, 73, 76
1, 400589, Note_off_c, 0, 73, 65
1, 400595, Note_on_c, 0, 80, 69
1, 400616, Control_c, 0, 64, 55
1, 400618, Note_off_c, 0, 80, 67
1, 400631, Control_c, 0, 64, 0
1, 400658, Note_on_c, 0, 77, 71
1, 400672, Note_off_c, 0, 77, 70
1, 400723, Note_on_c, 0, 85, 65
1, 400752, Note_off_c, 0, 85, 65
1, 400779, Note_on_c, 0, 94, 75
1, 400831, Note_off_c, 0, 94, 0
1, 400838, Note_on_c, 0, 84, 91
1, 400839, Note_on_c, 0, 92, 96
1, 400842, Note_on_c, 0, 32, 88
1, 400846, Poly_aftertouch_c, 0, 94, 0
1, 400854, Control_c, 0, 64, 63
1, 400858, Note_off_c, 0, 84, 71
1, 400858, Note_off_c, 0, 92, 69
1, 400869, Control_c, 0, 64, 127
1, 400872, Note_off_c, 0, 32, 66
1, 400881, Note_on_c, 0, 91, 46
1, 400911, Note_off_c, 0, 91, 58
1, 401176, Note_on_c, 0, 44, 71
1, 401225, Note_on_c, 0, 51, 73
1, 401237, Note_off_c, 0, 44, 62
1, 401252, Note_off_c, 0, 51, 66
1, 401261, Note_on_c, 0, 60, 73
1, 401262, Note_on_c, 0, 66, 90
1, 401278, Note_off_c, 0, 60, 67
1, 401328, Note_on_c, 0, 74, 25
1, 401338, Note_on_c, 0, 72, 75
1, 401340, Note_off_c, 0, 66, 63
1, 401375, Note_off_c, 0, 74, 45
1, 401386, Note_off_c, 0, 72, 60
1, 401389, Note_on_c, 0, 80, 77
1, 401412, Note_off_c, 0, 80, 68
1, 401440, Control_c, 0, 64, 81
1, 401453, Note_on_c, 0, 78, 78
1, 401455, Control_c, 0, 64, 40
1, 401470, Control_c, 0, 64, 0
1, 401501, Note_on_c, 0, 84, 82
1, 401507, Note_off_c, 0, 78, 61
1, 401564, Note_off_c, 0, 84, 64
1, 401574, Note_on_c, 0, 92, 80
1, 401633, Note_off_c, 0, 92, 65
1, 401644, Note_on_c, 0, 89, 93
1, 401649, Note_on_c, 0, 85, 93
1, 401656, Note_on_c, 0, 37, 86
1, 401663, Control_c, 0, 64, 69
1, 401666, Note_off_c, 0, 89, 69
1, 401675, Note_off_c, 0, 85, 67
1, 401678, Control_c, 0, 64, 127
1, 401704, Note_off_c, 0, 37, 63
1, 401977, Note_on_c, 0, 44, 71
1, 402023, Note_on_c, 0, 53, 60
1, 402048, Note_off_c, 0, 44, 62
1, 402079, Note_on_c, 0, 61, 86
1, 402087, Note_on_c, 0, 65, 91
1, 402087, Note_off_c, 0, 53, 62
1, 402099, Note_off_c, 0, 61, 68
1, 402151, Note_off_c, 0, 65, 62
1, 402159, Note_on_c, 0, 73, 74
1, 402169, Note_on_c, 0, 61, 24
1, 402199, Note_off_c, 0, 61, 48
1, 402220, Note_on_c, 0, 80, 77
1, 402223, Note_off_c, 0, 73, 64
1, 402246, Note_off_c, 0, 80, 67
1, 402277, Control_c, 0, 64, 65
1, 402282, Note_on_c, 0, 77, 80
1, 402292, Control_c, 0, 64, 0
1, 402303, Note_off_c, 0, 77, 66
1, 402350, Note_on_c, 0, 85, 75
1, 402378, Note_off_c, 0, 85, 65
1, 402404, Note_on_c, 0, 94, 81
1, 402452, Note_off_c, 0, 94, 47
1, 402479, Note_on_c, 0, 32, 90
1, 402481, Note_on_c, 0, 84, 92
1, 402482, Note_on_c, 0, 92, 98
1, 402493, Control_c, 0, 64, 65
1, 402497, Note_off_c, 0, 92, 74
1, 402499, Note_off_c, 0, 84, 72
1, 402508, Note_off_c, 0, 32, 66
1, 402508, Control_c, 0, 64, 127
1, 402762, Note_on_c, 0, 44, 72
1, 402821, Note_on_c, 0, 51, 76
1, 402845, Note_off_c, 0, 44, 62
1, 402857, Note_off_c, 0, 51, 65
1, 402865, Note_on_c, 0, 60, 75
1, 402881, Note_off_c, 0, 60, 67
1, 402884, Note_on_c, 0, 66, 90
1, 402956, Note_on_c, 0, 72, 66
1, 402962, Note_off_c, 0, 66, 65
1, 403003, Note_off_c, 0, 72, 63
1, 403012, Note_on_c, 0, 80, 76
1, 403034, Note_off_c, 0, 80, 68
1, 403080, Note_on_c, 0, 78, 77
1, 403117, Note_off_c, 0, 78, 57
1, 403138, Note_on_c, 0, 84, 74
1, 403144, Control_c, 0, 64, 71
1, 403159, Control_c, 0, 64, 0
1, 403169, Poly_aftertouch_c, 0, 80, 0
1, 403169, Note_off_c, 0, 84, 65
1, 403190, Note_on_c, 0, 92, 73
1, 403215, Note_off_c, 0, 92, 68
1, 403263, Note_on_c, 0, 85, 79
1, 403347, Note_on_c, 0, 45, 101
1, 403352, Note_on_c, 0, 33, 83
1, 403356, Note_on_c, 0, 97, 99
1, 403360, Control_c, 0, 64, 29
1, 403374, Note_off_c, 0, 45, 67
1, 403375, Control_c, 0, 64, 81
1, 403377, Note_off_c, 0, 33, 65
1, 403390, Control_c, 0, 64, 127
1, 403432, Note_off_c, 0, 85, 61
1, 403448, Note_off_c, 0, 97, 65
1, 403534, Note_on_c, 0, 51, 75
1, 403537, Note_on_c, 0, 95, 64
1, 403546, Note_on_c, 0, 39, 66
1, 403570, Note_off_c, 0, 51, 63
1, 403597, Note_on_c, 0, 93, 82
1, 403597, Note_off_c, 0, 39, 62
1, 403620, Note_off_c, 0, 95, 61
1, 403643, Note_off_c, 0, 93, 65
1, 403675, Note_on_c, 0, 88, 76
1, 403677, Note_on_c, 0, 52, 77
1, 403688, Note_on_c, 0, 40, 60
1, 403707, Note_off_c, 0, 52, 63
1, 403715, Note_off_c, 0, 88, 65
1, 403721, Note_off_c, 0, 40, 62
1, 403754, Note_on_c, 0, 85, 82
1, 403790, Control_c, 0, 64, 50
1, 403798, Note_on_c, 0, 52, 87
1, 403805, Control_c, 0, 64, 0
1, 403808, Note_on_c, 0, 40, 82
1, 403832, Note_on_c, 0, 83, 78
1, 403871, Note_off_c, 0, 85, 57
1, 403893, Control_c, 0, 64, 54
1, 403898, Note_on_c, 0, 81, 78
1, 403908, Control_c, 0, 64, 71
1, 403910, Note_off_c, 0, 83, 65
1, 403923, Control_c, 0, 64, 90
1, 403931, Note_off_c, 0, 81, 64
1, 403937, Control_c, 0, 64, 127
1, 403961, Note_on_c, 0, 76, 77
1, 404010, Note_off_c, 0, 76, 64
1, 404039, Note_on_c, 0, 73, 77
1, 404076, Note_off_c, 0, 52, 61
1, 404107, Note_on_c, 0, 71, 78
1, 404109, Note_off_c, 0, 40, 61
1, 404169, Note_on_c, 0, 69, 81
1, 404178, Note_off_c, 0, 71, 64
1, 404184, Note_off_c, 0, 73, 62
1, 404197, Note_off_c, 0, 69, 67
1, 404226, Note_on_c, 0, 64, 70
1, 404261, Note_off_c, 0, 64, 65
1, 404288, Note_on_c, 0, 39, 71
1, 404305, Note_on_c, 0, 61, 75
1, 404331, Note_off_c, 0, 39, 62
1, 404364, Note_on_c, 0, 59, 77
1, 404407, Note_on_c, 0, 40, 80
1, 404410, Note_on_c, 0, 57, 68
1, 404416, Note_off_c, 0, 59, 66
1, 404419, Note_off_c, 0, 61, 57
1, 404445, Note_off_c, 0, 57, 62
1, 404447, Note_off_c, 0, 40, 59
1, 404459, Note_on_c, 0, 52, 78
1, 404484, Note_off_c, 0, 52, 66
1, 404524, Control_c, 0, 64, 97
1, 404539, Control_c, 0, 64, 58
1, 404554, Control_c, 0, 64, 0
1, 404554, Note_on_c, 0, 41, 88
1, 404558, Note_on_c, 0, 33, 88
1, 404560, Note_on_c, 0, 65, 94
1, 404566, Note_on_c, 0, 53, 83
1, 404642, Control_c, 0, 64, 25
1, 404657, Control_c, 0, 64, 48
1, 404672, Control_c, 0, 64, 64
1, 404687, Control_c, 0, 64, 78
1, 404702, Control_c, 0, 64, 97
1, 404724, Control_c, 0, 64, 127
1, 404746, Note_off_c, 0, 53, 58
1, 404877, Note_on_c, 0, 64, 83
1, 404883, Note_on_c, 0, 40, 75
1, 404887, Note_off_c, 0, 65, 63
1, 404887, Note_off_c, 0, 33, 60
1, 404888, Control_c, 0, 64, 106
1, 404891, Note_off_c, 0, 41, 61
1, 404902, Note_off_c, 0, 64, 71
1, 404903, Control_c, 0, 64, 58
1, 404910, Note_off_c, 0, 40, 65
1, 404917, Control_c, 0, 64, 0
1, 405057, Note_on_c, 0, 85, 77
1, 405081, Control_c, 0, 64, 51
1, 405084, Note_on_c, 0, 33, 79
1, 405087, Note_on_c, 0, 45, 95
1, 405095, Note_on_c, 0, 97, 96
1, 405096, Control_c, 0, 64, 105
1, 405109, Note_off_c, 0, 33, 65
1, 405111, Control_c, 0, 64, 127
1, 405114, Note_off_c, 0, 45, 68
1, 405168, Note_off_c, 0, 85, 62
1, 405210, Note_off_c, 0, 97, 65
1, 405278, Note_on_c, 0, 95, 72
1, 405282, Note_on_c, 0, 51, 67
1, 405285, Note_on_c, 0, 39, 64
1, 405316, Note_off_c, 0, 51, 63
1, 405328, Note_off_c, 0, 39, 58
1, 405334, Note_on_c, 0, 93, 79
1, 405352, Note_off_c, 0, 95, 61
1, 405378, Note_off_c, 0, 93, 65
1, 405412, Note_on_c, 0, 52, 81
1, 405412, Note_on_c, 0, 88, 73
1, 405417, Note_on_c, 0, 40, 71
1, 405442, Note_off_c, 0, 52, 63
1, 405447, Note_off_c, 0, 88, 66
1, 405449, Note_off_c, 0, 40, 61
1, 405493, Note_on_c, 0, 85, 78
1, 405547, Control_c, 0, 64, 86
1, 405555, Note_on_c, 0, 52, 88
1, 405561, Note_on_c, 0, 40, 81
1, 405562, Control_c, 0, 64, 47
1, 405572, Note_on_c, 0, 83, 76
1, 405577, Control_c, 0, 64, 0
1, 405615, Note_off_c, 0, 85, 50
1, 405638, Note_on_c, 0, 81, 78
1, 405651, Note_off_c, 0, 83, 65
1, 405671, Note_off_c, 0, 81, 65
1, 405704, Note_on_c, 0, 76, 75
1, 405740, Control_c, 0, 64, 36
1, 405743, Note_off_c, 0, 76, 63
1, 405755, Control_c, 0, 64, 59
1, 405770, Control_c, 0, 64, 71
1, 405776, Note_on_c, 0, 73, 74
1, 405785, Control_c, 0, 64, 78
1, 405800, Control_c, 0, 64, 88
1, 405815, Control_c, 0, 64, 105
1, 405829, Control_c, 0, 64, 127
1, 405846, Note_on_c, 0, 71, 74
1, 405874, Note_off_c, 0, 52, 64
1, 405891, Note_off_c, 0, 40, 62
1, 405904, Note_on_c, 0, 69, 77
1, 405912, Note_off_c, 0, 71, 65
1, 405916, Note_off_c, 0, 73, 60
1, 405931, Note_off_c, 0, 69, 68
1, 405958, Note_on_c, 0, 64, 67
1, 405992, Note_off_c, 0, 64, 65
1, 406036, Note_on_c, 0, 39, 64
1, 406036, Note_on_c, 0, 61, 69
1, 406064, Note_off_c, 0, 39, 63
1, 406069, Poly_aftertouch_c, 0, 69, 0
1, 406094, Note_on_c, 0, 59, 60
1, 406142, Note_on_c, 0, 57, 69
1, 406146, Note_off_c, 0, 59, 65
1, 406157, Note_on_c, 0, 40, 77
1, 406166, Note_off_c, 0, 61, 35
1, 406178, Note_off_c, 0, 57, 64
1, 406184, Note_off_c, 0, 40, 63
1, 406201, Note_on_c, 0, 52, 71
1, 406233, Note_off_c, 0, 52, 64
1, 406280, Control_c, 0, 64, 100
1, 406295, Control_c, 0, 64, 62
1, 406303, Note_on_c, 0, 65, 89
1, 406304, Note_on_c, 0, 41, 84
1, 406306, Note_on_c, 0, 33, 83
1, 406310, Control_c, 0, 64, 0
1, 406315, Note_on_c, 0, 53, 75
1, 406354, Control_c, 0, 64, 24
1, 406369, Control_c, 0, 64, 64
1, 406384, Control_c, 0, 64, 85
1, 406399, Control_c, 0, 64, 127
1, 406566, Note_off_c, 0, 53, 61
1, 406655, Note_on_c, 0, 64, 70
1, 406674, Note_on_c, 0, 40, 52
1, 406682, Note_off_c, 0, 65, 54
1, 406688, Note_on_c, 0, 52, 40
1, 406694, Note_off_c, 0, 41, 51
1, 406720, Note_off_c, 0, 52, 48
1, 406725, Note_off_c, 0, 33, 57
1, 406729, Note_off_c, 0, 64, 56
1, 406815, Control_c, 0, 67, 15
1, 406830, Control_c, 0, 67, 38
1, 406844, Control_c, 0, 67, 77
1, 406849, Note_on_c, 0, 65, 77
1, 406850, Note_on_c, 0, 41, 86
1, 406852, Note_on_c, 0, 33, 77
1, 406854, Note_on_c, 0, 53, 77
1, 406858, Note_off_c, 0, 40, 54
1, 406859, Control_c, 0, 64, 72
1, 406859, Control_c, 0, 67, 122
1, 406874, Control_c, 0, 64, 0
1, 406874, Control_c, 0, 67, 127
1, 406877, Note_off_c, 0, 33, 65
1, 406878, Note_off_c, 0, 41, 65
1, 406888, Note_off_c, 0, 53, 65
1, 406893, Note_off_c, 0, 65, 63
1, 407045, Note_on_c, 0, 53, 40
1, 407075, Note_off_c, 0, 53, 54
1, 407102, Note_on_c, 0, 57, 38
1, 407130, Note_on_c, 0, 33, 48
1, 407136, Note_off_c, 0, 57, 32
1, 407156, Note_on_c, 0, 61, 32
1, 407162, Note_off_c, 0, 33, 50
1, 407191, Note_off_c, 0, 61, 31
1, 407221, Note_on_c, 0, 65, 62
1, 407242, Note_off_c, 0, 65, 62
1, 407267, Note_on_c, 0, 41, 60
1, 407267, Note_on_c, 0, 77, 77
1, 407276, Note_on_c, 0, 73, 68
1, 407291, Note_off_c, 0, 77, 70
1, 407292, Note_off_c, 0, 73, 70
1, 407296, Note_off_c, 0, 41, 59
1, 407445, Note_on_c, 0, 53, 47
1, 407472, Note_off_c, 0, 53, 54
1, 407477, Note_on_c, 0, 57, 58
1, 407500, Note_off_c, 0, 57, 62
1, 407505, Note_on_c, 0, 33, 58
1, 407528, Note_on_c, 0, 61, 63
1, 407533, Note_off_c, 0, 33, 56
1, 407547, Note_off_c, 0, 61, 64
1, 407606, Note_on_c, 0, 65, 60
1, 407627, Note_off_c, 0, 65, 62
1, 407648, Note_on_c, 0, 41, 61
1, 407653, Note_on_c, 0, 77, 73
1, 407659, Note_on_c, 0, 73, 69
1, 407675, Note_off_c, 0, 73, 69
1, 407677, Note_off_c, 0, 77, 67
1, 407678, Note_off_c, 0, 41, 61
1, 407823, Note_on_c, 0, 53, 57
1, 407850, Note_off_c, 0, 53, 64
1, 407870, Note_on_c, 0, 58, 55
1, 407899, Note_on_c, 0, 34, 64
1, 407902, Note_off_c, 0, 58, 66
1, 407922, Note_on_c, 0, 61, 55
1, 407928, Note_off_c, 0, 34, 65
1, 407937, Note_on_c, 0, 46, 24
1, 407938, Note_off_c, 0, 46, 127
1, 407945, Note_off_c, 0, 61, 59
1, 407983, Note_on_c, 0, 65, 73
1, 408017, Note_off_c, 0, 65, 64
1, 408030, Control_c, 0, 64, 42
1, 408030, Control_c, 0, 67, 123
1, 408044, Note_on_c, 0, 41, 59
1, 408044, Note_on_c, 0, 77, 76
1, 408046, Control_c, 0, 64, 62
1, 408046, Control_c, 0, 67, 122
1, 408055, Note_on_c, 0, 73, 66
1, 408061, Control_c, 0, 64, 74
1, 408061, Control_c, 0, 67, 122
1, 408068, Note_off_c, 0, 77, 70
1, 408071, Note_off_c, 0, 73, 68
1, 408075, Note_off_c, 0, 41, 64
1, 408076, Control_c, 0, 64, 92
1, 408076, Control_c, 0, 67, 124
1, 408090, Control_c, 0, 64, 127
1, 408090, Control_c, 0, 67, 123
1, 408105, Control_c, 0, 67, 121
1, 408164, Control_c, 0, 64, 122
1, 408179, Control_c, 0, 64, 73
1, 408194, Control_c, 0, 64, 40
1, 408209, Control_c, 0, 64, 0
1, 408214, Note_on_c, 0, 53, 61
1, 408223, Control_c, 0, 67, 121
1, 408238, Control_c, 0, 67, 120
1, 408242, Note_off_c, 0, 53, 64
1, 408252, Note_on_c, 0, 58, 60
1, 408253, Control_c, 0, 67, 119
1, 408268, Control_c, 0, 67, 117
1, 408283, Control_c, 0, 67, 116
1, 408287, Note_off_c, 0, 58, 65
1, 408289, Note_on_c, 0, 34, 65
1, 408298, Control_c, 0, 67, 114
1, 408298, Note_on_c, 0, 62, 72
1, 408312, Control_c, 0, 67, 111
1, 408318, Note_off_c, 0, 34, 65
1, 408320, Note_on_c, 0, 46, 30
1, 408323, Note_off_c, 0, 62, 67
1, 408327, Control_c, 0, 67, 108
1, 408342, Control_c, 0, 67, 102
1, 408343, Note_off_c, 0, 46, 36
1, 408357, Control_c, 0, 67, 90
1, 408372, Control_c, 0, 67, 67
1, 408375, Note_on_c, 0, 65, 70
1, 408387, Control_c, 0, 67, 23
1, 408402, Control_c, 0, 67, 0
1, 408408, Note_off_c, 0, 65, 63
1, 408416, Control_c, 0, 64, 55
1, 408426, Note_on_c, 0, 41, 66
1, 408427, Note_on_c, 0, 77, 83
1, 408428, Note_on_c, 0, 74, 79
1, 408431, Control_c, 0, 64, 84
1, 408445, Note_off_c, 0, 74, 70
1, 408447, Control_c, 0, 64, 127
1, 408449, Note_off_c, 0, 77, 71
1, 408456, Note_off_c, 0, 41, 65
1, 408592, Poly_aftertouch_c, 0, 77, 0
1, 408597, Note_on_c, 0, 54, 69
1, 408602, Control_c, 0, 64, 75
1, 408617, Control_c, 0, 64, 0
1, 408630, Note_off_c, 0, 54, 63
1, 408656, Note_on_c, 0, 58, 60
1, 408688, Note_on_c, 0, 46, 68
1, 408688, Note_on_c, 0, 62, 64
1, 408690, Note_on_c, 0, 34, 61
1, 408693, Note_off_c, 0, 58, 67
1, 408709, Note_off_c, 0, 62, 64
1, 408709, Note_off_c, 0, 46, 64
1, 408717, Note_on_c, 0, 63, 51
1, 408719, Note_off_c, 0, 34, 58
1, 408741, Note_off_c, 0, 63, 60
1, 408778, Note_on_c, 0, 66, 62
1, 408818, Note_on_c, 0, 54, 89
1, 408818, Note_on_c, 0, 78, 83
1, 408820, Note_on_c, 0, 42, 79
1, 408824, Control_c, 0, 64, 69
1, 408828, Note_on_c, 0, 74, 66
1, 408834, Note_off_c, 0, 54, 71
1, 408840, Control_c, 0, 64, 127
1, 408850, Note_off_c, 0, 42, 65
1, 408852, Note_off_c, 0, 66, 63
1, 408854, Note_off_c, 0, 74, 69
1, 408856, Note_off_c, 0, 78, 63
1, 408966, Poly_aftertouch_c, 0, 54, 127
1, 408988, Control_c, 0, 64, 82
1, 408992, Note_on_c, 0, 66, 44
1, 409003, Control_c, 0, 64, 26
1, 409018, Control_c, 0, 64, 0
1, 409019, Poly_aftertouch_c, 0, 54, 0
1, 409019, Note_on_c, 0, 58, 70
1, 409021, Note_off_c, 0, 66, 50
1, 409050, Note_on_c, 0, 46, 80
1, 409058, Note_on_c, 0, 34, 68
1, 409073, Note_off_c, 0, 46, 68
1, 409079, Note_off_c, 0, 58, 64
1, 409081, Note_on_c, 0, 63, 74
1, 409084, Note_off_c, 0, 34, 60
1, 409103, Note_off_c, 0, 63, 68
1, 409138, Note_on_c, 0, 66, 69
1, 409195, Note_on_c, 0, 54, 90
1, 409195, Control_c, 0, 64, 47
1, 409197, Note_off_c, 0, 66, 64
1, 409201, Note_on_c, 0, 42, 81
1, 409201, Note_on_c, 0, 78, 88
1, 409204, Note_on_c, 0, 75, 87
1, 409218, Control_c, 0, 64, 127
1, 409225, Note_off_c, 0, 54, 69
1, 409230, Note_off_c, 0, 42, 67
1, 409230, Note_off_c, 0, 75, 78
1, 409230, Note_off_c, 0, 78, 68
1, 409341, Poly_aftertouch_c, 0, 54, 0
1, 409351, Control_c, 0, 64, 80
1, 409356, Poly_aftertouch_c, 0, 42, 127
1, 409361, Note_on_c, 0, 55, 80
1, 409365, Control_c, 0, 64, 27
1, 409371, Poly_aftertouch_c, 0, 54, 0
1, 409380, Poly_aftertouch_c, 0, 42, 0
1, 409380, Control_c, 0, 64, 0
1, 409410, Note_off_c, 0, 55, 59
1, 409418, Note_on_c, 0, 61, 74
1, 409439, Note_on_c, 0, 45, 89
1, 409448, Note_on_c, 0, 33, 73
1, 409465, Note_off_c, 0, 61, 59
1, 409466, Note_off_c, 0, 45, 67
1, 409474, Note_off_c, 0, 33, 63
1, 409476, Note_on_c, 0, 64, 75
1, 409499, Note_off_c, 0, 64, 66
1, 409579, Note_on_c, 0, 67, 39
1, 409588, Control_c, 0, 64, 10
1, 409594, Note_on_c, 0, 57, 105
1, 409600, Note_on_c, 0, 79, 96
1, 409602, Note_on_c, 0, 45, 91
1, 409603, Control_c, 0, 64, 116
1, 409606, Note_on_c, 0, 76, 86
1, 409609, Note_off_c, 0, 67, 52
1, 409612, Note_off_c, 0, 57, 72
1, 409618, Control_c, 0, 64, 127
1, 409624, Note_off_c, 0, 79, 65
1, 409627, Note_on_c, 0, 78, 51
1, 409628, Note_off_c, 0, 78, 127
1, 409629, Note_off_c, 0, 45, 67
1, 409629, Note_off_c, 0, 76, 70
1, 409690, Note_on_c, 0, 57, 30
1, 409711, Note_off_c, 0, 57, 61
1, 409737, Control_c, 0, 64, 65
1, 409752, Control_c, 0, 64, 0
1, 409781, Note_on_c, 0, 68, 63
1, 409853, Note_on_c, 0, 73, 62
1, 409857, Note_off_c, 0, 68, 61
1, 409911, Note_on_c, 0, 44, 107
1, 409913, Note_on_c, 0, 77, 86
1, 409914, Control_c, 0, 64, 52
1, 409917, Note_on_c, 0, 32, 65
1, 409923, Note_off_c, 0, 73, 65
1, 409929, Control_c, 0, 64, 127
1, 409933, Note_off_c, 0, 44, 68
1, 409934, Note_on_c, 0, 78, 70
1, 409939, Note_off_c, 0, 77, 67
1, 409946, Note_off_c, 0, 32, 63
1, 409951, Note_off_c, 0, 78, 67
1, 410029, Note_on_c, 0, 80, 57
1, 410187, Note_off_c, 0, 80, 0
1, 410187, Note_on_c, 0, 80, 40
1, 410190, Note_on_c, 0, 65, 97
1, 410190, Note_on_c, 0, 85, 95
1, 410190, Note_on_c, 0, 92, 97
1, 410193, Note_on_c, 0, 89, 88
1, 410195, Note_on_c, 0, 53, 85
1, 410196, Note_on_c, 0, 61, 88
1, 410199, Note_on_c, 0, 56, 80
1, 410208, Note_off_c, 0, 65, 71
1, 410217, Note_off_c, 0, 61, 70
1, 410218, Note_off_c, 0, 53, 66
1, 410220, Note_off_c, 0, 80, 64
1, 410221, Note_off_c, 0, 92, 70
1, 410227, Note_off_c, 0, 56, 66
1, 410232, Note_off_c, 0, 89, 64
1, 410234, Note_off_c, 0, 85, 64
1, 410307, Poly_aftertouch_c, 0, 64, 0
1, 410348, Poly_aftertouch_c, 0, 65, 0
1, 410512, Note_on_c, 0, 49, 36
1, 410530, Note_on_c, 0, 48, 66
1, 410544, Control_c, 0, 64, 80
1, 410559, Control_c, 0, 64, 45
1, 410564, Note_on_c, 0, 53, 64
1, 410572, Note_on_c, 0, 60, 61
1, 410574, Control_c, 0, 64, 0
1, 410578, Note_on_c, 0, 61, 76
1, 410593, Note_on_c, 0, 56, 95
1, 410602, Note_on_c, 0, 65, 62
1, 410604, Control_c, 0, 64, 31
1, 410605, Note_on_c, 0, 68, 75
1, 410611, Note_off_c, 0, 48, 65
1, 410611, Note_off_c, 0, 60, 64
1, 410618, Control_c, 0, 64, 68
1, 410622, Note_off_c, 0, 56, 64
1, 410623, Note_off_c, 0, 49, 65
1, 410623, Note_off_c, 0, 53, 64
1, 410624, Note_off_c, 0, 61, 63
1, 410632, Note_off_c, 0, 68, 69
1, 410633, Control_c, 0, 64, 127
1, 410635, Note_off_c, 0, 65, 65
1, 410804, Control_c, 0, 64, 93
1, 410818, Control_c, 0, 64, 63
1, 410833, Control_c, 0, 64, 0
1, 410900, Note_on_c, 0, 47, 62
1, 410916, Note_on_c, 0, 48, 62
1, 410928, Note_on_c, 0, 53, 62
1, 410951, Note_on_c, 0, 59, 59
1, 410961, Note_on_c, 0, 60, 71
1, 410965, Note_on_c, 0, 56, 94
1, 410966, Control_c, 0, 64, 41
1, 410981, Note_on_c, 0, 68, 74
1, 410981, Control_c, 0, 64, 75
1, 410984, Note_on_c, 0, 65, 62
1, 410984, Note_off_c, 0, 47, 67
1, 410986, Note_off_c, 0, 56, 71
1, 410989, Note_off_c, 0, 59, 66
1, 410989, Note_off_c, 0, 48, 64
1, 410990, Note_off_c, 0, 60, 64
1, 410995, Note_off_c, 0, 53, 64
1, 410996, Control_c, 0, 64, 127
1, 411004, Note_off_c, 0, 68, 69
1, 411010, Note_off_c, 0, 65, 66
1, 411174, Control_c, 0, 64, 83
1, 411189, Control_c, 0, 64, 53
1, 411204, Control_c, 0, 64, 0
1, 411278, Note_on_c, 0, 46, 55
1, 411293, Note_on_c, 0, 45, 60
1, 411310, Note_on_c, 0, 57, 54
1, 411322, Note_on_c, 0, 53, 61
1, 411335, Note_on_c, 0, 58, 68
1, 411346, Note_on_c, 0, 56, 92
1, 411353, Control_c, 0, 64, 56
1, 411356, Note_on_c, 0, 68, 76
1, 411359, Note_on_c, 0, 65, 67
1, 411361, Note_off_c, 0, 57, 62
1, 411365, Note_off_c, 0, 56, 71
1, 411367, Control_c, 0, 64, 127
1, 411369, Note_off_c, 0, 45, 66
1, 411372, Note_off_c, 0, 53, 64
1, 411387, Note_off_c, 0, 58, 66
1, 411390, Note_off_c, 0, 46, 65
1, 411392, Note_off_c, 0, 65, 67
1, 411397, Note_off_c, 0, 68, 65
1, 411517, Poly_aftertouch_c, 0, 56, 0
1, 411538, Control_c, 0, 64, 114
1, 411553, Control_c, 0, 64, 69
1, 411567, Control_c, 0, 64, 25
1, 411582, Control_c, 0, 64, 0
1, 411764, Note_on_c, 0, 44, 100
1, 411770, Note_on_c, 0, 32, 69
1, 411774, Control_c, 0, 64, 51
1, 411781, Note_on_c, 0, 56, 70
1, 411789, Control_c, 0, 64, 96
1, 411793, Note_off_c, 0, 32, 65
1, 411794, Note_off_c, 0, 44, 64
1, 411800, Note_off_c, 0, 56, 45
1, 411804, Control_c, 0, 64, 127
1, 412385, Note_on_c, 0, 92, 88
1, 412386, Note_on_c, 0, 77, 102
1, 412390, Note_on_c, 0, 80, 88
1, 412397, Note_on_c, 0, 89, 77
1, 412399, Note_on_c, 0, 66, 68
1, 412399, Note_on_c, 0, 72, 83
1, 412418, Note_off_c, 0, 77, 67
1, 412423, Note_off_c, 0, 72, 67
1, 412424, Note_off_c, 0, 66, 65
1, 412864, Note_off_c, 0, 92, 58
1, 412874, Note_off_c, 0, 80, 60
1, 412903, Note_off_c, 0, 89, 35
1, 412966, Note_on_c, 0, 87, 72
1, 412968, Note_on_c, 0, 72, 71
1, 412976, Note_on_c, 0, 92, 67
1, 412977, Note_on_c, 0, 80, 66
1, 412978, Note_on_c, 0, 66, 50
1, 413003, Note_off_c, 0, 66, 57
1, 413009, Note_off_c, 0, 80, 64
1, 413011, Note_off_c, 0, 92, 63
1, 413016, Note_off_c, 0, 72, 55
1, 413026, Note_off_c, 0, 87, 64
1, 413114, Note_on_c, 0, 89, 74
1, 413115, Note_on_c, 0, 80, 78
1, 413118, Note_on_c, 0, 66, 59
1, 413123, Note_on_c, 0, 77, 77
1, 413123, Note_on_c, 0, 92, 70
1, 413132, Note_on_c, 0, 72, 59
1, 413147, Note_off_c, 0, 77, 69
1, 413156, Note_off_c, 0, 66, 58
1, 413160, Note_off_c, 0, 72, 59
1, 413162, Note_off_c, 0, 80, 58
1, 413164, Note_off_c, 0, 92, 58
1, 413172, Note_off_c, 0, 89, 61
1, 413248, Note_on_c, 0, 72, 60
1, 413249, Note_on_c, 0, 87, 80
1, 413254, Note_on_c, 0, 80, 80
1, 413257, Note_on_c, 0, 92, 70
1, 413260, Note_on_c, 0, 66, 59
1, 413264, Note_on_c, 0, 75, 66
1, 413283, Note_off_c, 0, 72, 62
1, 413288, Note_off_c, 0, 92, 65
1, 413290, Note_off_c, 0, 80, 59
1, 413293, Note_off_c, 0, 75, 68
1, 413294, Note_off_c, 0, 66, 63
1, 413297, Note_off_c, 0, 87, 63
1, 413371, Note_on_c, 0, 80, 85
1, 413372, Note_on_c, 0, 89, 76
1, 413374, Note_on_c, 0, 77, 81
1, 413374, Note_on_c, 0, 92, 73
1, 413377, Note_on_c, 0, 66, 74
1, 413383, Note_on_c, 0, 72, 57
1, 413400, Note_off_c, 0, 77, 66
1, 413414, Note_off_c, 0, 80, 60
1, 413414, Note_off_c, 0, 66, 59
1, 413419, Note_off_c, 0, 92, 60
1, 413429, Note_off_c, 0, 89, 62
1, 413430, Note_off_c, 0, 72, 53
1, 413485, Note_on_c, 0, 87, 80
1, 413486, Note_on_c, 0, 80, 82
1, 413486, Note_on_c, 0, 92, 74
1, 413491, Note_on_c, 0, 75, 85
1, 413492, Note_on_c, 0, 66, 59
1, 413495, Note_on_c, 0, 72, 53
1, 413514, Note_off_c, 0, 87, 67
1, 413519, Note_off_c, 0, 72, 62
1, 413519, Note_off_c, 0, 92, 60
1, 413523, Note_off_c, 0, 66, 66
1, 413525, Note_off_c, 0, 75, 60
1, 413553, Note_off_c, 0, 80, 59
1, 413583, Control_c, 0, 64, 74
1, 413598, Control_c, 0, 64, 40
1, 413612, Control_c, 0, 64, 0
1, 413627, Note_on_c, 0, 77, 89
1, 413631, Note_on_c, 0, 65, 75
1, 413634, Note_on_c, 0, 80, 91
1, 413636, Note_on_c, 0, 68, 72
1, 413636, Note_on_c, 0, 73, 75
1, 413637, Note_on_c, 0, 85, 87
1, 413638, Note_on_c, 0, 89, 74
1, 413639, Note_on_c, 0, 92, 77
1, 413642, Control_c, 0, 64, 32
1, 413645, Note_off_c, 0, 77, 71
1, 413657, Note_off_c, 0, 73, 69
1, 413657, Note_off_c, 0, 65, 67
1, 413657, Control_c, 0, 64, 68
1, 413661, Note_off_c, 0, 92, 70
1, 413661, Note_off_c, 0, 68, 69
1, 413664, Note_off_c, 0, 80, 65
1, 413664, Note_off_c, 0, 89, 70
1, 413672, Control_c, 0, 64, 110
1, 413681, Note_off_c, 0, 85, 63
1, 413687, Control_c, 0, 64, 127
1, 413729, Note_on_c, 0, 77, 12
1, 413756, Note_on_c, 0, 73, 3
1, 413762, Note_on_c, 0, 92, 4
1, 413763, Note_off_c, 0, 77, 39
1, 413776, Note_off_c, 0, 73, 45
1, 413797, Note_off_c, 0, 92, 39
1, 413803, Poly_aftertouch_c, 0, 65, 0
1, 413842, Control_c, 0, 64, 103
1, 413857, Control_c, 0, 64, 66
1, 413872, Control_c, 0, 64, 0
1, 413962, Note_on_c, 0, 48, 65
1, 413972, Note_on_c, 0, 60, 59
1, 413973, Note_on_c, 0, 49, 68
1, 413987, Note_on_c, 0, 61, 65
1, 414001, Note_on_c, 0, 53, 75
1, 414014, Note_off_c, 0, 60, 63
1, 414015, Note_on_c, 0, 65, 61
1, 414017, Note_off_c, 0, 48, 65
1, 414021, Note_on_c, 0, 68, 60
1, 414021, Control_c, 0, 64, 50
1, 414021, Note_off_c, 0, 61, 67
1, 414025, Note_on_c, 0, 56, 74
1, 414029, Note_off_c, 0, 49, 64
1, 414029, Note_off_c, 0, 53, 68
1, 414035, Control_c, 0, 64, 73
1, 414037, Note_off_c, 0, 65, 64
1, 414040, Note_off_c, 0, 68, 66
1, 414045, Note_off_c, 0, 56, 64
1, 414050, Control_c, 0, 64, 127
1, 414183, Control_c, 0, 64, 85
1, 414198, Control_c, 0, 64, 57
1, 414213, Control_c, 0, 64, 0
1, 414315, Note_on_c, 0, 47, 58
1, 414327, Note_on_c, 0, 48, 59
1, 414340, Note_on_c, 0, 53, 66
1, 414340, Note_on_c, 0, 59, 48
1, 414347, Note_on_c, 0, 60, 67
1, 414375, Note_on_c, 0, 56, 83
1, 414376, Control_c, 0, 64, 58
1, 414377, Note_on_c, 0, 65, 62
1, 414377, Note_on_c, 0, 68, 78
1, 414385, Note_off_c, 0, 59, 67
1, 414385, Note_off_c, 0, 47, 64
1, 414391, Control_c, 0, 64, 90
1, 414393, Note_off_c, 0, 48, 64
1, 414396, Note_off_c, 0, 53, 64
1, 414396, Note_off_c, 0, 56, 68
1, 414396, Note_off_c, 0, 60, 61
1, 414402, Note_off_c, 0, 68, 69
1, 414405, Control_c, 0, 64, 127
1, 414411, Note_off_c, 0, 65, 65
1, 414477, Note_on_c, 0, 56, 18
1, 414507, Note_off_c, 0, 56, 47
1, 414532, Control_c, 0, 64, 98
1, 414547, Control_c, 0, 64, 58
1, 414562, Control_c, 0, 64, 0
1, 414673, Note_on_c, 0, 46, 56
1, 414686, Note_on_c, 0, 45, 62
1, 414689, Note_on_c, 0, 57, 54
1, 414703, Note_on_c, 0, 53, 65
1, 414717, Note_on_c, 0, 58, 69
1, 414736, Note_on_c, 0, 56, 87
1, 414739, Control_c, 0, 64, 65
1, 414740, Note_on_c, 0, 68, 80
1, 414744, Note_on_c, 0, 65, 69
1, 414746, Note_off_c, 0, 57, 62
1, 414754, Control_c, 0, 64, 127
1, 414757, Note_off_c, 0, 53, 64
1, 414757, Note_off_c, 0, 56, 68
1, 414759, Note_off_c, 0, 45, 65
1, 414764, Note_off_c, 0, 58, 64
1, 414774, Note_off_c, 0, 46, 65
1, 414776, Note_off_c, 0, 68, 65
1, 414780, Note_off_c, 0, 65, 66
1, 414895, Poly_aftertouch_c, 0, 56, 0
1, 414917, Control_c, 0, 64, 68
1, 414932, Control_c, 0, 64, 0
1, 415128, Note_on_c, 0, 44, 109
1, 415133, Note_on_c, 0, 56, 76
1, 415138, Note_on_c, 0, 32, 74
1, 415139, Control_c, 0, 64, 44
1, 415151, Note_off_c, 0, 56, 67
1, 415154, Control_c, 0, 64, 86
1, 415155, Note_off_c, 0, 44, 65
1, 415166, Note_off_c, 0, 32, 60
1, 415169, Control_c, 0, 64, 124
1, 415184, Control_c, 0, 64, 127
1, 415695, Note_on_c, 0, 77, 99
1, 415703, Note_on_c, 0, 92, 88
1, 415705, Note_on_c, 0, 66, 70
1, 415706, Note_on_c, 0, 80, 86
1, 415711, Note_on_c, 0, 72, 77
1, 415714, Note_on_c, 0, 89, 79
1, 415718, Note_off_c, 0, 77, 67
1, 415725, Note_off_c, 0, 66, 65
1, 415734, Note_off_c, 0, 72, 67
1, 416126, Note_off_c, 0, 92, 58
1, 416146, Note_off_c, 0, 80, 60
1, 416151, Note_off_c, 0, 89, 56
1, 416244, Note_on_c, 0, 92, 66
1, 416248, Note_on_c, 0, 75, 64
1, 416251, Note_on_c, 0, 66, 53
1, 416251, Note_on_c, 0, 87, 64
1, 416254, Note_on_c, 0, 72, 53
1, 416257, Note_on_c, 0, 80, 61
1, 416276, Note_off_c, 0, 66, 58
1, 416277, Note_off_c, 0, 75, 67
1, 416283, Note_off_c, 0, 72, 62
1, 416292, Note_off_c, 0, 92, 55
1, 416301, Note_off_c, 0, 80, 57
1, 416303, Note_off_c, 0, 87, 53
1, 416396, Note_on_c, 0, 77, 76
1, 416400, Note_on_c, 0, 72, 57
1, 416403, Note_on_c, 0, 89, 68
1, 416404, Note_on_c, 0, 80, 74
1, 416406, Note_on_c, 0, 66, 51
1, 416406, Note_on_c, 0, 92, 68
1, 416424, Note_off_c, 0, 77, 67
1, 416437, Note_off_c, 0, 66, 64
1, 416437, Note_off_c, 0, 80, 60
1, 416442, Note_off_c, 0, 92, 61
1, 416447, Note_off_c, 0, 72, 55
1, 416456, Note_off_c, 0, 89, 60
1, 416537, Note_on_c, 0, 75, 76
1, 416537, Note_on_c, 0, 87, 78
1, 416544, Note_on_c, 0, 66, 56
1, 416545, Note_on_c, 0, 80, 68
1, 416549, Note_on_c, 0, 92, 59
1, 416551, Note_on_c, 0, 72, 44
1, 416564, Note_off_c, 0, 75, 67
1, 416569, Note_off_c, 0, 92, 62
1, 416575, Note_off_c, 0, 80, 63
1, 416576, Note_off_c, 0, 72, 54
1, 416576, Note_off_c, 0, 66, 64
1, 416587, Note_off_c, 0, 87, 61
1, 416659, Note_on_c, 0, 72, 66
1, 416661, Note_on_c, 0, 92, 69
1, 416662, Note_on_c, 0, 80, 80
1, 416667, Note_on_c, 0, 89, 70
1, 416669, Note_on_c, 0, 77, 73
1, 416670, Note_on_c, 0, 66, 66
1, 416702, Note_off_c, 0, 77, 67
1, 416711, Note_off_c, 0, 66, 63
1, 416715, Note_off_c, 0, 80, 62
1, 416715, Note_off_c, 0, 89, 58
1, 416717, Note_off_c, 0, 92, 65
1, 416730, Note_off_c, 0, 72, 61
1, 416787, Note_on_c, 0, 87, 83
1, 416793, Note_on_c, 0, 80, 77
1, 416795, Note_on_c, 0, 75, 81
1, 416799, Note_on_c, 0, 92, 71
1, 416805, Note_on_c, 0, 66, 62
1, 416825, Note_off_c, 0, 75, 66
1, 416831, Note_off_c, 0, 92, 66
1, 416837, Note_off_c, 0, 66, 65
1, 416838, Note_off_c, 0, 80, 57
1, 416843, Note_off_c, 0, 87, 64
1, 416915, Note_on_c, 0, 89, 81
1, 416918, Note_on_c, 0, 80, 88
1, 416919, Note_on_c, 0, 92, 86
1, 416921, Note_on_c, 0, 77, 77
1, 416921, Note_on_c, 0, 66, 73
1, 416925, Note_on_c, 0, 72, 63
1, 417172, Note_off_c, 0, 89, 47
1, 417183, Note_off_c, 0, 72, 61
1, 417186, Note_on_c, 0, 87, 67
1, 417192, Note_on_c, 0, 75, 56
1, 417200, Note_off_c, 0, 77, 61
1, 417204, Note_off_c, 0, 92, 61
1, 417211, Note_off_c, 0, 66, 53
1, 417215, Note_off_c, 0, 75, 65
1, 417228, Note_off_c, 0, 80, 62
1, 417228, Note_off_c, 0, 87, 60
1, 417311, Note_on_c, 0, 93, 77
1, 417325, Note_on_c, 0, 81, 68
1, 417331, Note_on_c, 0, 89, 53
1, 417337, Note_on_c, 0, 66, 56
1, 417340, Note_on_c, 0, 72, 54
1, 417345, Note_on_c, 0, 77, 58
1, 417542, Note_on_c, 0, 75, 69
1, 417543, Note_off_c, 0, 72, 60
1, 417552, Note_off_c, 0, 77, 64
1, 417553, Note_on_c, 0, 87, 82
1, 417561, Note_off_c, 0, 66, 60
1, 417571, Note_off_c, 0, 75, 67
1, 417575, Note_off_c, 0, 93, 62
1, 417578, Note_off_c, 0, 89, 61
1, 417583, Note_off_c, 0, 81, 62
1, 417602, Note_off_c, 0, 87, 64
1, 417672, Note_on_c, 0, 93, 83
1, 417675, Note_on_c, 0, 72, 68
1, 417675, Note_on_c, 0, 89, 74
1, 417676, Note_on_c, 0, 81, 83
1, 417681, Note_on_c, 0, 77, 78
1, 417684, Note_on_c, 0, 66, 70
1, 417836, Note_off_c, 0, 66, 52
1, 417837, Note_off_c, 0, 72, 62
1, 417868, Note_on_c, 0, 87, 82
1, 417870, Note_off_c, 0, 77, 65
1, 417871, Note_off_c, 0, 93, 57
1, 417872, Note_on_c, 0, 75, 52
1, 417886, Note_off_c, 0, 81, 62
1, 417893, Note_off_c, 0, 75, 62
1, 417901, Note_off_c, 0, 89, 63
1, 417930, Note_off_c, 0, 87, 64
1, 417982, Note_on_c, 0, 73, 53
1, 417984, Note_on_c, 0, 94, 97
1, 417991, Note_on_c, 0, 82, 93
1, 417993, Note_on_c, 0, 90, 82
1, 417995, Note_on_c, 0, 78, 89
1, 418003, Note_on_c, 0, 67, 70
1, 418177, Note_on_c, 0, 88, 86
1, 418182, Note_on_c, 0, 76, 78
1, 418200, Note_off_c, 0, 73, 64
1, 418211, Note_off_c, 0, 67, 59
1, 418215, Note_off_c, 0, 78, 62
1, 418218, Note_off_c, 0, 90, 65
1, 418223, Note_off_c, 0, 76, 61
1, 418224, Note_off_c, 0, 94, 63
1, 418236, Note_off_c, 0, 82, 62
1, 418271, Note_off_c, 0, 88, 63
1, 418311, Note_on_c, 0, 94, 106
1, 418313, Note_on_c, 0, 82, 98
1, 418313, Note_on_c, 0, 90, 93
1, 418316, Note_on_c, 0, 73, 80
1, 418317, Note_on_c, 0, 78, 88
1, 418323, Note_on_c, 0, 67, 76
1, 418474, Note_off_c, 0, 90, 61
1, 418493, Note_on_c, 0, 88, 90
1, 418499, Note_off_c, 0, 73, 54
1, 418501, Note_off_c, 0, 67, 24
1, 418505, Note_on_c, 0, 76, 78
1, 418543, Note_off_c, 0, 78, 60
1, 418549, Note_off_c, 0, 76, 54
1, 418549, Note_off_c, 0, 94, 62
1, 418552, Note_off_c, 0, 82, 58
1, 418598, Note_off_c, 0, 88, 63
1, 418638, Note_on_c, 0, 95, 96
1, 418638, Note_on_c, 0, 91, 80
1, 418639, Note_on_c, 0, 74, 73
1, 418641, Note_on_c, 0, 79, 93
1, 418642, Note_on_c, 0, 83, 98
1, 418645, Note_on_c, 0, 68, 79
1, 418858, Note_on_c, 0, 89, 93
1, 418865, Note_on_c, 0, 77, 84
1, 418881, Note_off_c, 0, 74, 64
1, 418889, Note_off_c, 0, 91, 64
1, 418893, Note_off_c, 0, 95, 66
1, 418894, Note_off_c, 0, 79, 64
1, 418901, Note_off_c, 0, 68, 63
1, 418907, Note_off_c, 0, 83, 63
1, 418923, Note_off_c, 0, 77, 61
1, 419043, Note_on_c, 0, 83, 101
1, 419044, Note_on_c, 0, 95, 94
1, 419047, Note_on_c, 0, 74, 65
1, 419050, Note_on_c, 0, 91, 86
1, 419052, Note_on_c, 0, 79, 96
1, 419055, Note_on_c, 0, 68, 78
1, 419077, Note_off_c, 0, 89, 65
1, 419094, Note_on_c, 0, 93, 24
1, 419147, Note_off_c, 0, 93, 40
1, 419295, Note_off_c, 0, 91, 56
1, 419324, Note_on_c, 0, 89, 91
1, 419330, Note_off_c, 0, 95, 66
1, 419339, Note_on_c, 0, 77, 81
1, 419359, Note_off_c, 0, 83, 64
1, 419360, Note_off_c, 0, 79, 64
1, 419365, Note_off_c, 0, 68, 63
1, 419375, Note_off_c, 0, 77, 63
1, 419431, Note_off_c, 0, 74, 38
1, 419589, Note_on_c, 0, 92, 93
1, 419589, Control_c, 0, 64, 96
1, 419590, Note_on_c, 0, 96, 101
1, 419592, Note_on_c, 0, 84, 100
1, 419593, Note_on_c, 0, 68, 76
1, 419596, Note_on_c, 0, 80, 91
1, 419599, Note_on_c, 0, 75, 79
1, 419604, Control_c, 0, 64, 61
1, 419619, Control_c, 0, 64, 0
1, 419620, Note_off_c, 0, 89, 64
1, 419833, Control_c, 0, 64, 33
1, 419848, Control_c, 0, 64, 52
1, 419863, Control_c, 0, 64, 64
1, 419878, Control_c, 0, 64, 76
1, 419893, Control_c, 0, 64, 102
1, 419907, Control_c, 0, 64, 127
1, 419930, Note_off_c, 0, 80, 61
1, 419967, Note_off_c, 0, 84, 60
1, 419977, Note_off_c, 0, 96, 63
1, 420027, Note_on_c, 0, 90, 93
1, 420032, Note_on_c, 0, 78, 83
1, 420045, Note_off_c, 0, 75, 65
1, 420051, Note_off_c, 0, 78, 69
1, 420054, Note_off_c, 0, 68, 66
1, 420060, Note_off_c, 0, 92, 66
1, 420060, Note_off_c, 0, 90, 69
1, 420131, Note_on_c, 0, 78, 12
1, 420184, Note_off_c, 0, 78, 33
1, 420367, Control_c, 0, 64, 97
1, 420382, Control_c, 0, 64, 62
1, 420391, Note_on_c, 0, 101, 93
1, 420397, Control_c, 0, 64, 0
1, 420448, Note_on_c, 0, 49, 75
1, 420450, Note_on_c, 0, 37, 70
1, 420463, Control_c, 0, 64, 41
1, 420478, Control_c, 0, 64, 76
1, 420492, Control_c, 0, 64, 109
1, 420507, Control_c, 0, 64, 127
1, 420596, Note_off_c, 0, 101, 65
1, 420597, Note_off_c, 0, 37, 61
1, 420598, Note_off_c, 0, 49, 59
1, 420600, Note_on_c, 0, 99, 67
1, 420610, Note_on_c, 0, 43, 59
1, 420647, Note_on_c, 0, 97, 73
1, 420650, Note_off_c, 0, 43, 56
1, 420707, Note_on_c, 0, 92, 74
1, 420709, Note_off_c, 0, 99, 58
1, 420714, Note_on_c, 0, 44, 74
1, 420728, Note_off_c, 0, 97, 65
1, 420735, Note_off_c, 0, 92, 62
1, 420743, Note_off_c, 0, 44, 63
1, 420770, Note_on_c, 0, 89, 51
1, 420790, Note_off_c, 0, 89, 63
1, 420810, Note_on_c, 0, 44, 80
1, 420832, Note_on_c, 0, 87, 76
1, 420848, Note_off_c, 0, 44, 62
1, 420892, Note_on_c, 0, 85, 71
1, 420917, Note_on_c, 0, 42, 71
1, 420922, Note_on_c, 0, 54, 69
1, 420928, Note_on_c, 0, 80, 81
1, 420940, Note_off_c, 0, 87, 65
1, 420949, Note_off_c, 0, 42, 62
1, 420950, Note_off_c, 0, 54, 67
1, 420952, Note_off_c, 0, 85, 64
1, 420962, Note_off_c, 0, 80, 58
1, 420977, Note_on_c, 0, 77, 66
1, 421006, Note_off_c, 0, 77, 67
1, 421016, Note_on_c, 0, 53, 76
1, 421018, Note_on_c, 0, 41, 74
1, 421039, Note_off_c, 0, 53, 66
1, 421044, Note_on_c, 0, 42, 26
1, 421044, Note_off_c, 0, 41, 66
1, 421047, Note_on_c, 0, 75, 72
1, 421086, Note_off_c, 0, 42, 43
1, 421108, Note_on_c, 0, 73, 65
1, 421110, Note_on_c, 0, 53, 76
1, 421114, Note_on_c, 0, 41, 84
1, 421139, Note_on_c, 0, 68, 80
1, 421139, Note_off_c, 0, 53, 65
1, 421146, Note_off_c, 0, 75, 64
1, 421153, Note_off_c, 0, 41, 62
1, 421156, Note_off_c, 0, 73, 65
1, 421178, Note_off_c, 0, 68, 60
1, 421184, Note_on_c, 0, 65, 73
1, 421217, Note_off_c, 0, 65, 68
1, 421232, Note_on_c, 0, 43, 86
1, 421267, Note_off_c, 0, 43, 64
1, 421270, Note_on_c, 0, 63, 71
1, 421293, Note_on_c, 0, 65, 22
1, 421306, Note_off_c, 0, 63, 64
1, 421312, Note_on_c, 0, 61, 74
1, 421327, Note_off_c, 0, 65, 55
1, 421333, Note_on_c, 0, 44, 90
1, 421343, Note_off_c, 0, 61, 64
1, 421361, Note_off_c, 0, 44, 66
1, 421366, Note_on_c, 0, 56, 75
1, 421393, Note_off_c, 0, 56, 66
1, 421420, Control_c, 0, 64, 70
1, 421434, Control_c, 0, 64, 0
1, 421458, Note_on_c, 0, 65, 70
1, 421459, Note_on_c, 0, 45, 92
1, 421459, Note_on_c, 0, 69, 89
1, 421464, Note_on_c, 0, 57, 82
1, 421467, Note_on_c, 0, 55, 90
1, 421524, Note_off_c, 0, 55, 59
1, 421568, Control_c, 0, 64, 33
1, 421583, Control_c, 0, 64, 64
1, 421598, Control_c, 0, 64, 74
1, 421613, Control_c, 0, 64, 86
1, 421628, Control_c, 0, 64, 114
1, 421643, Control_c, 0, 64, 127
1, 421712, Note_off_c, 0, 65, 48
1, 421749, Note_off_c, 0, 57, 62
1, 421848, Note_on_c, 0, 68, 90
1, 421849, Note_on_c, 0, 56, 86
1, 421858, Note_on_c, 0, 44, 80
1, 421863, Note_off_c, 0, 45, 65
1, 421864, Note_off_c, 0, 69, 67
1, 421869, Note_off_c, 0, 56, 67
1, 421890, Note_off_c, 0, 44, 65
1, 421893, Note_off_c, 0, 68, 67
1, 421952, Note_on_c, 0, 56, 21
1, 421977, Note_off_c, 0, 56, 57
1, 422135, Note_on_c, 0, 49, 94
1, 422139, Note_on_c, 0, 37, 85
1, 422228, Control_c, 0, 64, 92
1, 422242, Control_c, 0, 64, 66
1, 422257, Control_c, 0, 64, 39
1, 422270, Note_on_c, 0, 103, 113
1, 422272, Control_c, 0, 64, 0
1, 422302, Control_c, 0, 64, 53
1, 422317, Control_c, 0, 64, 73
1, 422332, Control_c, 0, 64, 96
1, 422347, Control_c, 0, 64, 127
1, 422466, Note_off_c, 0, 37, 60
1, 422468, Note_off_c, 0, 49, 52
1, 422478, Note_off_c, 0, 103, 58
1, 422487, Note_on_c, 0, 99, 73
1, 422518, Note_on_c, 0, 97, 66
1, 422532, Note_on_c, 0, 43, 33
1, 422540, Control_c, 0, 64, 115
1, 422546, Note_on_c, 0, 44, 57
1, 422555, Control_c, 0, 64, 84
1, 422570, Control_c, 0, 64, 73
1, 422571, Note_off_c, 0, 43, 53
1, 422573, Note_on_c, 0, 92, 74
1, 422584, Note_off_c, 0, 99, 66
1, 422585, Control_c, 0, 64, 82
1, 422586, Note_off_c, 0, 97, 65
1, 422597, Note_off_c, 0, 92, 69
1, 422599, Control_c, 0, 64, 127
1, 422619, Note_on_c, 0, 91, 65
1, 422636, Note_off_c, 0, 91, 66
1, 422644, Note_on_c, 0, 89, 45
1, 422669, Note_off_c, 0, 89, 40
1, 422710, Control_c, 0, 64, 109
1, 422720, Note_off_c, 0, 44, 0
1, 422720, Note_on_c, 0, 44, 5
1, 422720, Note_on_c, 0, 88, 56
1, 422724, Control_c, 0, 64, 73
1, 422731, Note_on_c, 0, 42, 62
1, 422739, Control_c, 0, 64, 68
1, 422745, Note_on_c, 0, 54, 50
1, 422749, Note_on_c, 0, 85, 75
1, 422754, Control_c, 0, 64, 83
1, 422763, Note_off_c, 0, 44, 57
1, 422769, Control_c, 0, 64, 127
1, 422771, Note_off_c, 0, 42, 59
1, 422774, Note_off_c, 0, 54, 58
1, 422793, Note_off_c, 0, 88, 0
1, 422793, Note_on_c, 0, 88, 4
1, 422806, Note_off_c, 0, 85, 63
1, 422827, Note_off_c, 0, 88, 35
1, 422835, Note_on_c, 0, 42, 64
1, 422836, Note_on_c, 0, 77, 75
1, 422841, Note_on_c, 0, 54, 65
1, 422860, Note_off_c, 0, 54, 67
1, 422860, Note_off_c, 0, 77, 70
1, 422866, Note_off_c, 0, 42, 65
1, 422885, Poly_aftertouch_c, 0, 81, 0
1, 422913, Note_on_c, 0, 75, 79
1, 422916, Control_c, 0, 64, 72
1, 422930, Note_on_c, 0, 41, 85
1, 422931, Control_c, 0, 64, 43
1, 422934, Note_on_c, 0, 53, 75
1, 422946, Control_c, 0, 64, 28
1, 422953, Note_off_c, 0, 53, 65
1, 422961, Control_c, 0, 64, 59
1, 422968, Note_off_c, 0, 41, 57
1, 422976, Control_c, 0, 64, 88
1, 422990, Control_c, 0, 64, 127
1, 422994, Note_on_c, 0, 72, 58
1, 423004, Note_on_c, 0, 68, 71
1, 423011, Note_off_c, 0, 75, 64
1, 423015, Note_off_c, 0, 72, 62
1, 423032, Note_off_c, 0, 68, 68
1, 423050, Note_on_c, 0, 43, 75
1, 423055, Note_on_c, 0, 65, 62
1, 423074, Poly_aftertouch_c, 0, 41, 0
1, 423078, Note_off_c, 0, 65, 64
1, 423084, Note_off_c, 0, 43, 63
1, 423126, Note_on_c, 0, 63, 66
1, 423151, Note_on_c, 0, 44, 78
1, 423159, Note_on_c, 0, 61, 76
1, 423159, Note_off_c, 0, 63, 65
1, 423177, Note_off_c, 0, 44, 66
1, 423193, Note_off_c, 0, 61, 57
1, 423213, Note_on_c, 0, 56, 74
1, 423237, Note_off_c, 0, 56, 66
1, 423244, Control_c, 0, 64, 79
1, 423259, Control_c, 0, 64, 43
1, 423274, Control_c, 0, 64, 0
1, 423288, Note_on_c, 0, 45, 75
1, 423290, Note_on_c, 0, 69, 86
1, 423297, Note_on_c, 0, 57, 83
1, 423297, Note_on_c, 0, 65, 71
1, 423347, Control_c, 0, 64, 30
1, 423362, Control_c, 0, 64, 63
1, 423377, Control_c, 0, 64, 75
1, 423387, Note_off_c, 0, 65, 58
1, 423392, Control_c, 0, 64, 92
1, 423407, Control_c, 0, 64, 127
1, 423430, Note_off_c, 0, 57, 63
1, 423480, Note_off_c, 0, 69, 64
1, 423481, Note_on_c, 0, 61, 9
1, 423533, Control_c, 0, 64, 91
1, 423540, Note_off_c, 0, 45, 64
1, 423542, Note_on_c, 0, 44, 70
1, 423542, Note_on_c, 0, 56, 72
1, 423542, Note_on_c, 0, 68, 68
1, 423547, Control_c, 0, 64, 60
1, 423560, Note_off_c, 0, 68, 68
1, 423562, Control_c, 0, 64, 0
1, 423567, Note_off_c, 0, 44, 63
1, 423567, Note_off_c, 0, 61, 46
1, 423572, Note_off_c, 0, 56, 64
1, 423635, Note_on_c, 0, 68, 70
1, 423643, Note_on_c, 0, 56, 65
1, 423658, Note_on_c, 0, 65, 37
1, 423665, Note_on_c, 0, 49, 49
1, 423668, Note_on_c, 0, 37, 43
1, 423694, Note_off_c, 0, 49, 52
1, 423703, Note_off_c, 0, 37, 50
1, 423710, Control_c, 0, 64, 40
1, 423725, Control_c, 0, 64, 57
1, 423739, Control_c, 0, 64, 67
1, 423754, Control_c, 0, 64, 76
1, 423768, Note_on_c, 0, 43, 63
1, 423769, Control_c, 0, 64, 86
1, 423784, Control_c, 0, 64, 96
1, 423799, Control_c, 0, 64, 99
1, 423807, Note_off_c, 0, 43, 59
1, 423828, Control_c, 0, 64, 98
1, 423843, Control_c, 0, 64, 90
1, 423858, Control_c, 0, 64, 71
1, 423861, Note_on_c, 0, 44, 78
1, 423872, Note_off_c, 0, 68, 32
1, 423873, Control_c, 0, 64, 49
1, 423874, Note_off_c, 0, 56, 34
1, 423880, Note_off_c, 0, 65, 43
1, 423887, Note_off_c, 0, 44, 66
1, 423888, Control_c, 0, 64, 0
1, 423947, Control_c, 0, 64, 25
1, 423949, Note_on_c, 0, 69, 70
1, 423962, Control_c, 0, 64, 54
1, 423965, Note_on_c, 0, 57, 55
1, 423977, Control_c, 0, 64, 64
1, 423992, Control_c, 0, 64, 68
1, 424007, Control_c, 0, 64, 70
1, 424010, Note_off_c, 0, 57, 60
1, 424022, Control_c, 0, 64, 71
1, 424037, Control_c, 0, 64, 73
1, 424052, Control_c, 0, 64, 74
1, 424055, Note_on_c, 0, 42, 63
1, 424058, Note_on_c, 0, 54, 55
1, 424058, Poly_aftertouch_c, 0, 62, 127
1, 424072, Note_off_c, 0, 69, 62
1, 424081, Note_off_c, 0, 42, 60
1, 424083, Note_off_c, 0, 54, 59
1, 424096, Control_c, 0, 64, 73
1, 424111, Control_c, 0, 64, 67
1, 424126, Control_c, 0, 64, 52
1, 424141, Control_c, 0, 64, 0
1, 424149, Note_on_c, 0, 68, 73
1, 424156, Note_on_c, 0, 53, 57
1, 424156, Note_on_c, 0, 56, 69
1, 424156, Note_on_c, 0, 41, 63
1, 424180, Note_off_c, 0, 53, 38
1, 424183, Note_off_c, 0, 68, 63
1, 424184, Note_off_c, 0, 41, 57
1, 424195, Note_off_c, 0, 56, 65
1, 424204, Poly_aftertouch_c, 0, 62, 0
1, 424237, Control_c, 0, 64, 36
1, 424251, Control_c, 0, 64, 58
1, 424257, Note_on_c, 0, 49, 69
1, 424261, Note_on_c, 0, 65, 40
1, 424266, Note_on_c, 0, 56, 59
1, 424266, Control_c, 0, 64, 65
1, 424270, Note_on_c, 0, 68, 66
1, 424271, Note_on_c, 0, 37, 58
1, 424281, Control_c, 0, 64, 67
1, 424284, Note_off_c, 0, 49, 67
1, 424296, Control_c, 0, 64, 71
1, 424299, Note_off_c, 0, 37, 56
1, 424307, Note_off_c, 0, 65, 0
1, 424311, Control_c, 0, 64, 75
1, 424326, Note_on_c, 0, 65, 33
1, 424326, Control_c, 0, 64, 80
1, 424341, Control_c, 0, 64, 85
1, 424356, Control_c, 0, 64, 91
1, 424360, Note_on_c, 0, 43, 74
1, 424370, Control_c, 0, 64, 97
1, 424385, Control_c, 0, 64, 101
1, 424410, Note_off_c, 0, 56, 51
1, 424415, Note_off_c, 0, 43, 57
1, 424415, Control_c, 0, 64, 100
1, 424430, Control_c, 0, 64, 87
1, 424444, Control_c, 0, 64, 66
1, 424448, Note_on_c, 0, 44, 89
1, 424459, Control_c, 0, 64, 32
1, 424461, Note_off_c, 0, 65, 58
1, 424473, Note_off_c, 0, 44, 68
1, 424474, Note_off_c, 0, 68, 49
1, 424474, Control_c, 0, 64, 0
1, 424518, Control_c, 0, 64, 55
1, 424533, Control_c, 0, 64, 68
1, 424541, Note_on_c, 0, 69, 80
1, 424548, Note_on_c, 0, 57, 71
1, 424548, Control_c, 0, 64, 74
1, 424562, Control_c, 0, 64, 78
1, 424577, Control_c, 0, 64, 82
1, 424587, Note_off_c, 0, 57, 62
1, 424592, Control_c, 0, 64, 86
1, 424607, Control_c, 0, 64, 91
1, 424622, Control_c, 0, 64, 94
1, 424636, Poly_aftertouch_c, 0, 62, 127
1, 424636, Control_c, 0, 64, 94
1, 424641, Note_off_c, 0, 69, 61
1, 424642, Note_on_c, 0, 42, 69
1, 424648, Note_on_c, 0, 54, 55
1, 424666, Control_c, 0, 64, 95
1, 424672, Note_off_c, 0, 54, 62
1, 424675, Note_off_c, 0, 42, 64
1, 424681, Control_c, 0, 64, 96
1, 424696, Control_c, 0, 64, 96
1, 424710, Control_c, 0, 64, 96
1, 424725, Control_c, 0, 64, 86
1, 424728, Note_on_c, 0, 68, 70
1, 424728, Note_on_c, 0, 56, 77
1, 424740, Control_c, 0, 64, 66
1, 424744, Note_on_c, 0, 41, 65
1, 424753, Note_on_c, 0, 53, 46
1, 424755, Control_c, 0, 64, 21
1, 424759, Poly_aftertouch_c, 0, 62, 0
1, 424759, Note_off_c, 0, 56, 64
1, 424761, Note_off_c, 0, 68, 64
1, 424770, Control_c, 0, 64, 0
1, 424771, Note_off_c, 0, 41, 57
1, 424780, Note_off_c, 0, 53, 37
1, 424815, Control_c, 0, 64, 42
1, 424821, Note_on_c, 0, 56, 76
1, 424829, Note_on_c, 0, 68, 75
1, 424830, Note_on_c, 0, 49, 79
1, 424830, Control_c, 0, 64, 68
1, 424835, Note_on_c, 0, 65, 56
1, 424839, Note_on_c, 0, 37, 66
1, 424845, Control_c, 0, 64, 81
1, 424851, Note_off_c, 0, 49, 69
1, 424859, Control_c, 0, 64, 95
1, 424863, Note_off_c, 0, 37, 61
1, 424874, Control_c, 0, 64, 109
1, 424889, Control_c, 0, 64, 127
1, 424927, Note_on_c, 0, 43, 84
1, 425006, Note_off_c, 0, 43, 62
1, 425009, Poly_aftertouch_c, 0, 62, 127
1, 425016, Note_off_c, 0, 68, 59
1, 425020, Note_on_c, 0, 44, 93
1, 425029, Note_off_c, 0, 56, 29
1, 425030, Note_off_c, 0, 65, 59
1, 425030, Control_c, 0, 64, 64
1, 425045, Control_c, 0, 64, 0
1, 425046, Note_off_c, 0, 44, 67
1, 425047, Poly_aftertouch_c, 0, 62, 0
1, 425089, Control_c, 0, 64, 50
1, 425102, Note_on_c, 0, 69, 91
1, 425104, Control_c, 0, 64, 127
1, 425105, Note_on_c, 0, 57, 82
1, 425166, Note_off_c, 0, 57, 62
1, 425190, Note_on_c, 0, 54, 82
1, 425196, Note_on_c, 0, 42, 77
1, 425214, Note_off_c, 0, 54, 68
1, 425222, Note_off_c, 0, 42, 66
1, 425292, Note_on_c, 0, 68, 76
1, 425296, Note_on_c, 0, 56, 77
1, 425303, Note_on_c, 0, 53, 70
1, 425306, Note_on_c, 0, 42, 50
1, 425306, Note_off_c, 0, 69, 61
1, 425309, Note_on_c, 0, 41, 72
1, 425322, Note_off_c, 0, 53, 65
1, 425323, Poly_aftertouch_c, 0, 54, 127
1, 425325, Note_off_c, 0, 42, 65
1, 425327, Note_off_c, 0, 56, 64
1, 425336, Note_off_c, 0, 41, 63
1, 425347, Note_off_c, 0, 68, 63
1, 425363, Poly_aftertouch_c, 0, 54, 0
1, 425371, Control_c, 0, 64, 65
1, 425386, Control_c, 0, 64, 0
1, 425388, Note_on_c, 0, 57, 88
1, 425390, Note_on_c, 0, 69, 82
1, 425392, Note_on_c, 0, 65, 66
1, 425400, Note_on_c, 0, 45, 92
1, 425403, Note_on_c, 0, 37, 90
1, 425415, Note_off_c, 0, 57, 67
1, 425423, Note_off_c, 0, 45, 70
1, 425426, Note_off_c, 0, 69, 65
1, 425426, Note_off_c, 0, 37, 69
1, 425429, Note_off_c, 0, 65, 64
1, 425440, Note_on_c, 0, 64, 16
1, 425441, Note_off_c, 0, 64, 127
1, 425452, Poly_aftertouch_c, 0, 68, 0
1, 425486, Note_on_c, 0, 37, 75
1, 425489, Note_on_c, 0, 56, 72
1, 425491, Note_on_c, 0, 65, 82
1, 425494, Note_on_c, 0, 68, 50
1, 425497, Note_on_c, 0, 44, 77
1, 425511, Note_off_c, 0, 37, 68
1, 425520, Note_off_c, 0, 44, 67
1, 425520, Note_off_c, 0, 65, 64
1, 425521, Note_off_c, 0, 56, 66
1, 425530, Note_off_c, 0, 68, 65
1, 425584, Note_on_c, 0, 69, 85
1, 425590, Note_on_c, 0, 37, 74
1, 425590, Note_on_c, 0, 65, 74
1, 425592, Note_on_c, 0, 45, 88
1, 425595, Note_on_c, 0, 57, 78
1, 425613, Note_off_c, 0, 37, 68
1, 425617, Note_off_c, 0, 45, 69
1, 425619, Note_off_c, 0, 69, 66
1, 425620, Note_off_c, 0, 57, 66
1, 425621, Note_off_c, 0, 65, 64
1, 425677, Note_on_c, 0, 37, 56
1, 425690, Note_on_c, 0, 65, 81
1, 425691, Note_on_c, 0, 44, 87
1, 425696, Note_on_c, 0, 68, 54
1, 425697, Note_on_c, 0, 56, 80
1, 425718, Note_off_c, 0, 44, 66
1, 425720, Note_off_c, 0, 65, 65
1, 425722, Note_off_c, 0, 37, 63
1, 425722, Note_off_c, 0, 56, 66
1, 425733, Note_off_c, 0, 68, 63
1, 425778, Note_on_c, 0, 69, 82
1, 425781, Note_on_c, 0, 57, 70
1, 425788, Note_on_c, 0, 65, 70
1, 425793, Note_on_c, 0, 37, 76
1, 425794, Note_on_c, 0, 45, 69
1, 425810, Note_off_c, 0, 69, 62
1, 425813, Note_off_c, 0, 57, 65
1, 425815, Note_off_c, 0, 65, 66
1, 425816, Note_off_c, 0, 45, 66
1, 425822, Note_off_c, 0, 37, 64
1, 425869, Note_on_c, 0, 65, 82
1, 425874, Note_on_c, 0, 44, 71
1, 425875, Note_on_c, 0, 56, 77
1, 425880, Note_on_c, 0, 68, 61
1, 425895, Note_on_c, 0, 37, 32
1, 425902, Note_off_c, 0, 44, 65
1, 425908, Note_off_c, 0, 56, 63
1, 425914, Note_off_c, 0, 68, 65
1, 425921, Note_off_c, 0, 65, 62
1, 425929, Note_off_c, 0, 37, 54
1, 425971, Note_on_c, 0, 45, 94
1, 425974, Note_on_c, 0, 36, 92
1, 425975, Note_on_c, 0, 57, 92
1, 425976, Note_on_c, 0, 69, 94
1, 425987, Control_c, 0, 64, 49
1, 425992, Note_off_c, 0, 45, 71
1, 425995, Note_off_c, 0, 36, 68
1, 425998, Note_on_c, 0, 68, 51
1, 425998, Note_off_c, 0, 57, 69
1, 425999, Note_off_c, 0, 69, 68
1, 426002, Control_c, 0, 64, 127
1, 426017, Note_on_c, 0, 65, 31
1, 426024, Note_off_c, 0, 68, 62
1, 426040, Note_on_c, 0, 64, 9
1, 426064, Note_off_c, 0, 65, 40
1, 426078, Note_off_c, 0, 64, 36
1, 426100, Note_on_c, 0, 57, 14
1, 426105, Control_c, 0, 64, 62
1, 426120, Control_c, 0, 64, 0
1, 426123, Note_off_c, 0, 57, 49
1, 426147, Poly_aftertouch_c, 0, 36, 0
1, 426290, Note_on_c, 0, 72, 88
1, 426291, Note_on_c, 0, 48, 87
1, 426294, Note_on_c, 0, 36, 71
1, 426296, Note_on_c, 0, 60, 80
1, 426297, Note_on_c, 0, 43, 78
1, 426299, Note_on_c, 0, 64, 78
1, 426304, Note_on_c, 0, 70, 70
1, 426313, Control_c, 0, 64, 61
1, 426314, Note_off_c, 0, 48, 67
1, 426317, Note_off_c, 0, 60, 66
1, 426321, Note_off_c, 0, 43, 67
1, 426321, Note_off_c, 0, 64, 69
1, 426323, Note_off_c, 0, 36, 65
1, 426328, Control_c, 0, 64, 127
1, 426329, Note_off_c, 0, 72, 61
1, 426332, Note_off_c, 0, 70, 67
1, 426388, Note_on_c, 0, 60, 18
1, 426417, Note_off_c, 0, 60, 54
1, 426418, Control_c, 0, 64, 74
1, 426439, Control_c, 0, 64, 0
1, 426448, Poly_aftertouch_c, 0, 64, 0
1, 426609, Note_on_c, 0, 48, 71
1, 426611, Note_on_c, 0, 81, 92
1, 426612, Note_on_c, 0, 69, 94
1, 426613, Note_on_c, 0, 53, 85
1, 426617, Note_on_c, 0, 41, 75
1, 426618, Note_on_c, 0, 72, 86
1, 426618, Control_c, 0, 64, 60
1, 426623, Note_on_c, 0, 77, 63
1, 426633, Note_off_c, 0, 48, 67
1, 426633, Control_c, 0, 64, 127
1, 426633, Note_off_c, 0, 53, 67
1, 426634, Note_off_c, 0, 69, 70
1, 426635, Note_off_c, 0, 81, 66
1, 426642, Note_off_c, 0, 72, 66
1, 426644, Note_off_c, 0, 41, 64
1, 426650, Note_off_c, 0, 77, 68
1, 426736, Control_c, 0, 64, 79
1, 426751, Control_c, 0, 64, 0
1, 426770, Poly_aftertouch_c, 0, 53, 0
1, 426928, Control_c, 0, 64, 47
1, 426935, Note_on_c, 0, 56, 87
1, 426937, Note_on_c, 0, 80, 80
1, 426939, Note_on_c, 0, 44, 82
1, 426940, Note_on_c, 0, 51, 87
1, 426941, Note_on_c, 0, 66, 93
1, 426943, Note_on_c, 0, 78, 82
1, 426943, Note_on_c, 0, 72, 84
1, 426943, Control_c, 0, 64, 127
1, 426951, Note_on_c, 0, 68, 66
1, 426958, Note_off_c, 0, 56, 68
1, 426961, Note_off_c, 0, 44, 67
1, 426963, Note_off_c, 0, 66, 69
1, 426963, Note_off_c, 0, 80, 64
1, 426964, Note_off_c, 0, 51, 70
1, 426967, Note_off_c, 0, 72, 69
1, 426968, Note_off_c, 0, 68, 68
1, 426985, Note_off_c, 0, 78, 62
1, 427047, Control_c, 0, 64, 99
1, 427062, Control_c, 0, 64, 49
1, 427069, Note_on_c, 0, 56, 2
1, 427077, Control_c, 0, 64, 0
1, 427080, Poly_aftertouch_c, 0, 51, 0
1, 427080, Note_off_c, 0, 56, 41
1, 427313, Note_on_c, 0, 77, 88
1, 427315, Note_on_c, 0, 65, 92
1, 427318, Note_on_c, 0, 68, 89
1, 427318, Note_on_c, 0, 73, 68
1, 427329, Note_on_c, 0, 61, 102
1, 427333, Note_on_c, 0, 49, 95
1, 427336, Control_c, 0, 64, 68
1, 427343, Note_on_c, 0, 56, 69
1, 427347, Note_off_c, 0, 61, 71
1, 427350, Note_off_c, 0, 49, 70
1, 427351, Control_c, 0, 64, 127
1, 427363, Note_off_c, 0, 56, 64
1, 427440, Note_on_c, 0, 49, 27
1, 427471, Note_off_c, 0, 49, 38
1, 427642, Note_off_c, 0, 77, 63
1, 427679, Note_off_c, 0, 73, 61
1, 427697, Note_off_c, 0, 68, 59
1, 427709, Note_off_c, 0, 65, 61
1, 428087, Note_on_c, 0, 65, 91
1, 428091, Note_on_c, 0, 53, 89
1, 428091, Note_on_c, 0, 56, 92
1, 428092, Note_on_c, 0, 61, 85
1, 428103, Note_on_c, 0, 49, 93
1, 428106, Note_on_c, 0, 37, 88
1, 428111, Note_off_c, 0, 53, 67
1, 428124, Note_off_c, 0, 49, 68
1, 428124, Note_off_c, 0, 56, 65
1, 428124, Note_off_c, 0, 65, 67
1, 428130, Note_off_c, 0, 37, 67
1, 428133, Note_off_c, 0, 61, 67
1, 428236, Poly_aftertouch_c, 0, 49, 127
1, 428269, Poly_aftertouch_c, 0, 49, 0
1, 428440, Note_on_c, 0, 49, 62
1, 428499, Note_on_c, 0, 56, 79
1, 428508, Note_off_c, 0, 49, 62
1, 428532, Note_off_c, 0, 56, 64
1, 428545, Note_on_c, 0, 73, 90
1, 428550, Note_on_c, 0, 85, 100
1, 428551, Note_on_c, 0, 80, 93
1, 428553, Note_on_c, 0, 65, 70
1, 428565, Note_off_c, 0, 73, 72
1, 428571, Note_off_c, 0, 65, 66
1, 428589, Note_off_c, 0, 80, 64
1, 428600, Note_off_c, 0, 85, 68
1, 428869, Note_on_c, 0, 101, 100
1, 428909, Note_off_c, 0, 101, 69
1, 428921, Note_on_c, 0, 37, 90
1, 428922, Note_on_c, 0, 25, 78
1, 428943, Note_off_c, 0, 37, 69
1, 428957, Note_off_c, 0, 25, 54
1, 429016, Note_on_c, 0, 37, 29
1, 429038, Note_off_c, 0, 37, 59
1, 430525, Control_c, 0, 64, 111
1, 430539, Control_c, 0, 64, 78
1, 430554, Control_c, 0, 64, 63
1, 430569, Control_c, 0, 64, 44
1, 430584, Control_c, 0, 64, 0
1, 430659, End_track
0, 0, End_of_file
