0, 0, Header, 0, 1, 384
1, 0, Start_track
1, 0, Title_t, "Nocturne Op.62#2--Jussow        "
1, 0, Text_t, "2009 International Piano-e-Competition finals"
1, 0, Text_t, "captured June-July 2009"
1, 0, Text_t, "http://www.piano-e-competition.com/"
1, 0, Text_t, "standard-resolution version"
1, 0, Text_t, "File processed for distribution by software from Zenph Studios, Inc., http://www.zenph.com"
1, 0, Instrument_name_t, "Yamaha Disklavier Pro Mark IV concert grand piano, model DCFIIISM4PRO"
1, 0, Sequencer_specific, 39, 67, 113, 0, 1, 0, 1, 0, 78, 111, 99, 116, 117, 114, 110, 101, 32, 79, 112, 46, 54, 50, 35, 50, 65, 110, 100, 114, 101, 106, 32, 74, 117, 115, 115, 111, 119, 32, 32, 32
1, 0, Sequencer_specific, 6, 67, 113, 0, 0, 0, 69
1, 0, System_exclusive, 21, 67, 113, 126, 21, 0, 2, 2, 1, 1, 13, 3, 4, 10, 4, 10, 6, 3, 7, 4, 4, 247
1, 0, Sequencer_specific, 5, 67, 123, 12, 2, 1
1, 0, Tempo, 512820
1, 0, Time_signature, 4, 2, 24, 8
1, 0, System_exclusive, 5, 126, 127, 9, 1, 247
1, 1, System_exclusive, 8, 67, 16, 76, 0, 0, 126, 0, 247
1, 2, System_exclusive, 8, 67, 16, 76, 8, 9, 7, 1, 247
1, 3, Control_c, 0, 0, 0
1, 3, Control_c, 1, 0, 0
1, 3, Control_c, 2, 0, 0
1, 3, Control_c, 3, 0, 0
1, 3, Control_c, 4, 0, 0
1, 3, Control_c, 5, 0, 0
1, 3, Control_c, 6, 0, 0
1, 3, Control_c, 7, 0, 0
1, 3, Control_c, 8, 0, 0
1, 3, Control_c, 9, 0, 127
1, 3, Control_c, 10, 0, 0
1, 3, Control_c, 11, 0, 0
1, 3, Control_c, 12, 0, 0
1, 3, Control_c, 13, 0, 0
1, 3, Control_c, 14, 0, 0
1, 3, Control_c, 15, 0, 0
1, 4, Control_c, 0, 32, 0
1, 4, Control_c, 1, 32, 0
1, 4, Control_c, 2, 32, 0
1, 4, Control_c, 3, 32, 0
1, 4, Control_c, 4, 32, 0
1, 4, Control_c, 5, 32, 0
1, 4, Control_c, 6, 32, 0
1, 4, Control_c, 7, 32, 0
1, 4, Control_c, 8, 32, 0
1, 4, Control_c, 9, 32, 0
1, 4, Control_c, 10, 32, 0
1, 4, Control_c, 11, 32, 0
1, 4, Control_c, 12, 32, 0
1, 4, Control_c, 13, 32, 0
1, 4, Control_c, 14, 32, 0
1, 4, Control_c, 15, 32, 0
1, 5, Program_c, 0, 0
1, 5, Program_c, 1, 0
1, 5, Program_c, 2, 0
1, 5, Program_c, 3, 0
1, 5, Program_c, 4, 0
1, 5, Program_c, 5, 0
1, 5, Program_c, 6, 0
1, 5, Program_c, 7, 0
1, 5, Program_c, 8, 0
1, 5, Program_c, 9, 0
1, 5, Program_c, 10, 0
1, 5, Program_c, 11, 0
1, 5, Program_c, 12, 0
1, 5, Program_c, 13, 0
1, 5, Program_c, 14, 0
1, 5, Program_c, 15, 0
1, 6, Control_c, 0, 7, 100
1, 6, Control_c, 1, 7, 100
1, 6, Control_c, 2, 7, 100
1, 6, Control_c, 3, 7, 100
1, 6, Control_c, 4, 7, 100
1, 6, Control_c, 5, 7, 100
1, 6, Control_c, 6, 7, 100
1, 6, Control_c, 7, 7, 100
1, 6, Control_c, 8, 7, 100
1, 6, Control_c, 9, 7, 100
1, 6, Control_c, 10, 7, 100
1, 6, Control_c, 11, 7, 100
1, 6, Control_c, 12, 7, 100
1, 6, Control_c, 13, 7, 100
1, 6, Control_c, 14, 7, 100
1, 6, Control_c, 15, 7, 100
1, 117, Control_c, 0, 64, 15
1, 117, Control_c, 0, 67, 15
1, 229, Control_c, 0, 64, 31
1, 229, Control_c, 0, 67, 31
1, 341, Control_c, 0, 64, 46
1, 341, Control_c, 0, 67, 46
1, 452, Control_c, 0, 64, 63
1, 452, Control_c, 0, 67, 63
1, 564, Control_c, 0, 64, 77
1, 564, Control_c, 0, 67, 77
1, 676, Control_c, 0, 64, 94
1, 676, Control_c, 0, 67, 94
1, 787, Control_c, 0, 64, 108
1, 787, Control_c, 0, 67, 108
1, 899, Control_c, 0, 64, 127
1, 899, Control_c, 0, 67, 127
1, 1135, Note_on_c, 0, 59, 42
1, 1915, Note_on_c, 0, 68, 52
1, 1973, Note_on_c, 0, 40, 46
1, 1981, Note_off_c, 0, 59, 42
1, 1984, Control_c, 0, 64, 94
1, 1999, Control_c, 0, 64, 76
1, 2014, Control_c, 0, 64, 65
1, 2029, Control_c, 0, 64, 41
1, 2044, Control_c, 0, 64, 0
1, 2132, Control_c, 0, 64, 49
1, 2148, Control_c, 0, 64, 64
1, 2163, Control_c, 0, 64, 71
1, 2178, Control_c, 0, 64, 76
1, 2193, Control_c, 0, 64, 81
1, 2208, Control_c, 0, 64, 90
1, 2217, Note_off_c, 0, 40, 43
1, 2222, Control_c, 0, 64, 112
1, 2237, Control_c, 0, 64, 127
1, 2771, Note_on_c, 0, 61, 39
1, 2777, Note_on_c, 0, 52, 38
1, 2778, Note_on_c, 0, 56, 34
1, 3040, Note_off_c, 0, 52, 43
1, 3093, Note_off_c, 0, 61, 56
1, 3109, Note_off_c, 0, 56, 32
1, 3144, Note_on_c, 0, 69, 57
1, 3151, Note_off_c, 0, 68, 35
1, 3481, Note_on_c, 0, 71, 62
1, 3510, Control_c, 0, 64, 94
1, 3525, Control_c, 0, 64, 76
1, 3526, Note_on_c, 0, 47, 43
1, 3531, Note_on_c, 0, 56, 33
1, 3540, Note_on_c, 0, 59, 36
1, 3540, Control_c, 0, 64, 63
1, 3545, Note_off_c, 0, 69, 39
1, 3555, Control_c, 0, 64, 0
1, 3644, Control_c, 0, 64, 50
1, 3659, Control_c, 0, 64, 65
1, 3674, Control_c, 0, 64, 71
1, 3688, Control_c, 0, 64, 76
1, 3703, Control_c, 0, 64, 81
1, 3718, Control_c, 0, 64, 88
1, 3733, Control_c, 0, 64, 100
1, 3749, Control_c, 0, 64, 127
1, 3770, Note_off_c, 0, 47, 36
1, 3788, Note_off_c, 0, 56, 40
1, 3797, Note_on_c, 0, 75, 68
1, 3830, Control_c, 0, 67, 122
1, 3841, Note_off_c, 0, 59, 42
1, 3845, Control_c, 0, 67, 116
1, 3860, Control_c, 0, 67, 112
1, 3862, Note_off_c, 0, 71, 54
1, 3874, Control_c, 0, 67, 109
1, 3889, Control_c, 0, 67, 107
1, 3904, Control_c, 0, 67, 106
1, 3919, Control_c, 0, 67, 105
1, 3949, Control_c, 0, 67, 106
1, 4092, Note_on_c, 0, 76, 70
1, 4113, Note_off_c, 0, 75, 64
1, 4124, Note_on_c, 0, 68, 37
1, 4129, Note_on_c, 0, 64, 39
1, 4131, Note_on_c, 0, 59, 30
1, 4141, Control_c, 0, 67, 105
1, 4186, Control_c, 0, 67, 105
1, 4230, Control_c, 0, 67, 104
1, 4240, Note_off_c, 0, 64, 50
1, 4245, Control_c, 0, 67, 104
1, 4272, Note_off_c, 0, 68, 34
1, 4274, Control_c, 0, 67, 103
1, 4289, Control_c, 0, 67, 101
1, 4304, Control_c, 0, 67, 100
1, 4311, Note_off_c, 0, 59, 43
1, 4318, Control_c, 0, 67, 98
1, 4333, Control_c, 0, 67, 95
1, 4348, Control_c, 0, 67, 92
1, 4363, Control_c, 0, 67, 91
1, 4378, Control_c, 0, 67, 91
1, 4387, Note_on_c, 0, 73, 69
1, 4393, Control_c, 0, 67, 90
1, 4408, Control_c, 0, 67, 89
1, 4423, Control_c, 0, 67, 89
1, 4437, Control_c, 0, 67, 88
1, 4445, Note_off_c, 0, 76, 58
1, 4512, Control_c, 0, 67, 87
1, 4623, Control_c, 0, 67, 87
1, 4653, Control_c, 0, 67, 87
1, 4683, Control_c, 0, 67, 88
1, 4704, Note_on_c, 0, 71, 65
1, 4756, Note_off_c, 0, 73, 56
1, 4756, Control_c, 0, 64, 87
1, 4756, Control_c, 0, 67, 88
1, 4762, Note_on_c, 0, 35, 39
1, 4771, Control_c, 0, 64, 70
1, 4771, Control_c, 0, 67, 89
1, 4786, Control_c, 0, 64, 56
1, 4801, Control_c, 0, 64, 0
1, 4831, Control_c, 0, 67, 88
1, 4846, Control_c, 0, 67, 89
1, 4891, Control_c, 0, 64, 40
1, 4905, Control_c, 0, 64, 65
1, 4905, Control_c, 0, 67, 89
1, 4920, Control_c, 0, 64, 72
1, 4935, Control_c, 0, 64, 79
1, 4935, Control_c, 0, 67, 90
1, 4947, Note_off_c, 0, 35, 42
1, 4949, Control_c, 0, 64, 84
1, 4949, Control_c, 0, 67, 91
1, 4964, Control_c, 0, 64, 90
1, 4964, Control_c, 0, 67, 92
1, 4979, Control_c, 0, 64, 103
1, 4979, Control_c, 0, 67, 93
1, 4994, Control_c, 0, 64, 127
1, 4994, Control_c, 0, 67, 95
1, 5009, Control_c, 0, 67, 96
1, 5023, Control_c, 0, 67, 97
1, 5038, Control_c, 0, 67, 98
1, 5053, Control_c, 0, 67, 98
1, 5068, Control_c, 0, 67, 99
1, 5084, Control_c, 0, 67, 101
1, 5098, Control_c, 0, 67, 104
1, 5113, Control_c, 0, 67, 107
1, 5128, Control_c, 0, 67, 109
1, 5142, Control_c, 0, 67, 111
1, 5157, Control_c, 0, 67, 112
1, 5172, Control_c, 0, 67, 113
1, 5187, Control_c, 0, 67, 114
1, 5202, Control_c, 0, 67, 115
1, 5216, Control_c, 0, 67, 116
1, 5231, Control_c, 0, 67, 116
1, 5246, Control_c, 0, 67, 117
1, 5275, Control_c, 0, 67, 118
1, 5290, Control_c, 0, 67, 120
1, 5305, Control_c, 0, 67, 122
1, 5328, Control_c, 0, 67, 124
1, 5329, Note_on_c, 0, 63, 36
1, 5331, Note_on_c, 0, 54, 29
1, 5344, Control_c, 0, 67, 125
1, 5359, Control_c, 0, 67, 126
1, 5373, Control_c, 0, 67, 127
1, 5388, Control_c, 0, 67, 127
1, 5600, Note_off_c, 0, 63, 38
1, 5889, Note_on_c, 0, 66, 54
1, 5922, Note_off_c, 0, 71, 41
1, 5952, Note_on_c, 0, 63, 20
1, 5968, Poly_aftertouch_c, 0, 57, 127
1, 6059, Note_off_c, 0, 63, 42
1, 6090, Poly_aftertouch_c, 0, 57, 0
1, 6199, Note_off_c, 0, 54, 36
1, 6530, Note_on_c, 0, 47, 37
1, 6537, Note_on_c, 0, 57, 35
1, 6603, Note_off_c, 0, 57, 46
1, 6607, Note_off_c, 0, 47, 57
1, 6925, Note_on_c, 0, 68, 59
1, 6945, Note_off_c, 0, 66, 55
1, 7266, Note_on_c, 0, 64, 51
1, 7270, Note_off_c, 0, 68, 54
1, 7285, Control_c, 0, 64, 90
1, 7300, Control_c, 0, 64, 72
1, 7303, Note_on_c, 0, 37, 39
1, 7315, Control_c, 0, 64, 60
1, 7323, Note_on_c, 0, 49, 28
1, 7329, Control_c, 0, 64, 0
1, 7448, Control_c, 0, 64, 58
1, 7462, Control_c, 0, 64, 67
1, 7477, Control_c, 0, 64, 73
1, 7492, Control_c, 0, 64, 79
1, 7507, Control_c, 0, 64, 86
1, 7511, Note_off_c, 0, 37, 39
1, 7522, Control_c, 0, 64, 101
1, 7536, Control_c, 0, 64, 127
1, 7590, Note_off_c, 0, 49, 39
1, 7960, Note_on_c, 0, 56, 32
1, 7962, Note_on_c, 0, 61, 38
1, 7973, Note_on_c, 0, 52, 41
1, 8061, Note_off_c, 0, 61, 54
1, 8062, Note_off_c, 0, 52, 55
1, 8101, Note_off_c, 0, 56, 35
1, 8661, Note_on_c, 0, 66, 59
1, 8709, Control_c, 0, 64, 103
1, 8713, Note_on_c, 0, 47, 38
1, 8718, Note_on_c, 0, 35, 34
1, 8723, Control_c, 0, 64, 82
1, 8738, Control_c, 0, 64, 67
1, 8753, Control_c, 0, 64, 49
1, 8768, Control_c, 0, 64, 0
1, 8799, Note_off_c, 0, 64, 33
1, 8858, Control_c, 0, 64, 38
1, 8872, Control_c, 0, 64, 60
1, 8887, Control_c, 0, 64, 65
1, 8902, Control_c, 0, 64, 69
1, 8916, Control_c, 0, 64, 72
1, 8931, Control_c, 0, 64, 77
1, 8946, Control_c, 0, 64, 85
1, 8961, Control_c, 0, 64, 101
1, 8970, Note_off_c, 0, 35, 41
1, 8976, Control_c, 0, 64, 127
1, 9048, Note_off_c, 0, 47, 47
1, 9050, Control_c, 0, 67, 123
1, 9072, Control_c, 0, 67, 113
1, 9087, Control_c, 0, 67, 100
1, 9102, Control_c, 0, 67, 89
1, 9111, Note_on_c, 0, 68, 63
1, 9116, Control_c, 0, 67, 78
1, 9131, Control_c, 0, 67, 69
1, 9144, Note_off_c, 0, 66, 56
1, 9146, Control_c, 0, 67, 62
1, 9161, Control_c, 0, 67, 56
1, 9176, Control_c, 0, 67, 51
1, 9190, Control_c, 0, 67, 47
1, 9205, Control_c, 0, 67, 42
1, 9220, Control_c, 0, 67, 37
1, 9234, Control_c, 0, 67, 31
1, 9249, Control_c, 0, 67, 25
1, 9264, Control_c, 0, 67, 18
1, 9279, Control_c, 0, 67, 11
1, 9294, Control_c, 0, 67, 0
1, 9458, Note_on_c, 0, 69, 63
1, 9481, Note_off_c, 0, 68, 60
1, 9495, Note_on_c, 0, 52, 35
1, 9495, Note_on_c, 0, 56, 32
1, 9505, Note_on_c, 0, 62, 35
1, 9630, Note_off_c, 0, 62, 44
1, 9654, Note_off_c, 0, 56, 40
1, 9656, Note_off_c, 0, 52, 47
1, 9748, Note_on_c, 0, 71, 73
1, 9838, Note_off_c, 0, 69, 58
1, 10058, Note_on_c, 0, 73, 76
1, 10122, Note_off_c, 0, 71, 52
1, 10128, Note_on_c, 0, 33, 41
1, 10133, Control_c, 0, 64, 107
1, 10148, Control_c, 0, 64, 78
1, 10156, Note_on_c, 0, 45, 36
1, 10162, Control_c, 0, 64, 63
1, 10177, Control_c, 0, 64, 0
1, 10281, Control_c, 0, 64, 52
1, 10295, Control_c, 0, 64, 65
1, 10301, Note_off_c, 0, 33, 52
1, 10310, Control_c, 0, 64, 72
1, 10325, Control_c, 0, 64, 81
1, 10340, Control_c, 0, 64, 98
1, 10355, Control_c, 0, 64, 127
1, 10365, Note_off_c, 0, 45, 52
1, 10750, Note_on_c, 0, 61, 45
1, 10767, Note_on_c, 0, 52, 37
1, 10867, Note_off_c, 0, 61, 60
1, 10943, Note_off_c, 0, 52, 40
1, 11444, Note_on_c, 0, 32, 52
1, 11445, Note_on_c, 0, 44, 50
1, 11481, Control_c, 0, 64, 87
1, 11496, Control_c, 0, 64, 66
1, 11510, Control_c, 0, 64, 0
1, 11584, Control_c, 0, 64, 49
1, 11599, Control_c, 0, 64, 65
1, 11612, Note_off_c, 0, 73, 58
1, 11614, Control_c, 0, 64, 75
1, 11629, Control_c, 0, 64, 87
1, 11643, Control_c, 0, 64, 117
1, 11658, Control_c, 0, 64, 127
1, 11675, Note_off_c, 0, 32, 43
1, 11739, Note_off_c, 0, 44, 62
1, 11795, Note_on_c, 0, 73, 74
1, 12117, Note_on_c, 0, 61, 48
1, 12126, Note_on_c, 0, 59, 39
1, 12145, Note_on_c, 0, 53, 32
1, 12256, Note_off_c, 0, 61, 36
1, 12355, Note_off_c, 0, 59, 44
1, 12429, Note_off_c, 0, 53, 42
1, 12607, Note_on_c, 0, 71, 64
1, 12641, Note_off_c, 0, 73, 54
1, 12774, Note_off_c, 0, 71, 56
1, 12910, Note_on_c, 0, 71, 66
1, 12950, Control_c, 0, 64, 116
1, 12958, Note_on_c, 0, 30, 41
1, 12964, Control_c, 0, 64, 81
1, 12969, Note_on_c, 0, 42, 33
1, 12979, Control_c, 0, 64, 66
1, 12994, Control_c, 0, 64, 44
1, 13009, Control_c, 0, 64, 0
1, 13127, Control_c, 0, 64, 50
1, 13142, Control_c, 0, 64, 63
1, 13157, Control_c, 0, 64, 66
1, 13172, Control_c, 0, 64, 69
1, 13177, Note_off_c, 0, 30, 40
1, 13186, Control_c, 0, 64, 74
1, 13201, Control_c, 0, 64, 81
1, 13216, Control_c, 0, 64, 94
1, 13231, Control_c, 0, 64, 127
1, 13272, Note_off_c, 0, 42, 40
1, 13693, Note_on_c, 0, 69, 51
1, 13727, Note_off_c, 0, 71, 50
1, 13728, Control_c, 0, 64, 115
1, 13743, Control_c, 0, 64, 89
1, 13745, Note_on_c, 0, 49, 34
1, 13748, Note_on_c, 0, 61, 31
1, 13758, Control_c, 0, 64, 74
1, 13773, Control_c, 0, 64, 64
1, 13787, Control_c, 0, 64, 34
1, 13802, Control_c, 0, 64, 0
1, 13891, Control_c, 0, 64, 54
1, 13905, Control_c, 0, 64, 66
1, 13920, Control_c, 0, 64, 70
1, 13935, Control_c, 0, 64, 75
1, 13950, Control_c, 0, 64, 79
1, 13965, Control_c, 0, 64, 86
1, 13979, Control_c, 0, 64, 102
1, 13994, Control_c, 0, 64, 127
1, 14051, Note_off_c, 0, 69, 56
1, 14073, Note_off_c, 0, 49, 38
1, 14097, Note_off_c, 0, 61, 41
1, 14319, Note_on_c, 0, 62, 46
1, 14322, Note_on_c, 0, 59, 29
1, 14333, Note_on_c, 0, 53, 36
1, 14388, Control_c, 0, 64, 88
1, 14403, Control_c, 0, 64, 72
1, 14418, Control_c, 0, 64, 61
1, 14432, Control_c, 0, 64, 0
1, 14536, Control_c, 0, 64, 48
1, 14551, Control_c, 0, 64, 62
1, 14566, Control_c, 0, 64, 67
1, 14581, Control_c, 0, 64, 70
1, 14594, Note_on_c, 0, 68, 61
1, 14596, Control_c, 0, 64, 73
1, 14610, Control_c, 0, 64, 78
1, 14625, Control_c, 0, 64, 85
1, 14640, Control_c, 0, 64, 97
1, 14654, Control_c, 0, 64, 127
1, 14660, Note_off_c, 0, 62, 49
1, 14721, Note_off_c, 0, 68, 55
1, 14900, Note_on_c, 0, 68, 50
1, 14928, Note_on_c, 0, 61, 37
1, 14942, Note_on_c, 0, 49, 38
1, 14950, Control_c, 0, 64, 119
1, 14965, Control_c, 0, 64, 92
1, 14980, Control_c, 0, 64, 78
1, 14995, Control_c, 0, 64, 67
1, 15010, Control_c, 0, 64, 54
1, 15024, Control_c, 0, 64, 0
1, 15039, Control_c, 0, 67, 8
1, 15061, Control_c, 0, 67, 9
1, 15136, Control_c, 0, 67, 9
1, 15165, Control_c, 0, 67, 10
1, 15172, Note_on_c, 0, 66, 55
1, 15208, Note_off_c, 0, 68, 45
1, 15254, Control_c, 0, 67, 10
1, 15269, Control_c, 0, 67, 11
1, 15283, Control_c, 0, 67, 14
1, 15298, Control_c, 0, 67, 18
1, 15313, Control_c, 0, 67, 20
1, 15328, Control_c, 0, 67, 23
1, 15343, Control_c, 0, 67, 26
1, 15357, Control_c, 0, 67, 32
1, 15372, Control_c, 0, 64, 58
1, 15372, Control_c, 0, 67, 37
1, 15387, Control_c, 0, 64, 66
1, 15387, Control_c, 0, 67, 43
1, 15402, Control_c, 0, 64, 70
1, 15402, Control_c, 0, 67, 49
1, 15417, Control_c, 0, 64, 73
1, 15417, Control_c, 0, 67, 57
1, 15431, Control_c, 0, 64, 78
1, 15431, Control_c, 0, 67, 67
1, 15446, Control_c, 0, 64, 84
1, 15446, Control_c, 0, 67, 78
1, 15461, Control_c, 0, 64, 92
1, 15461, Control_c, 0, 67, 87
1, 15475, Note_off_c, 0, 61, 35
1, 15476, Control_c, 0, 64, 107
1, 15476, Control_c, 0, 67, 96
1, 15491, Control_c, 0, 64, 127
1, 15491, Control_c, 0, 67, 105
1, 15498, Note_off_c, 0, 59, 43
1, 15506, Control_c, 0, 67, 113
1, 15520, Control_c, 0, 67, 121
1, 15535, Control_c, 0, 67, 127
1, 15556, Note_off_c, 0, 53, 43
1, 15595, Note_off_c, 0, 49, 39
1, 15705, Note_on_c, 0, 65, 46
1, 15744, Note_off_c, 0, 66, 39
1, 15754, Note_off_c, 0, 65, 54
1, 15920, Note_on_c, 0, 65, 47
1, 15944, Control_c, 0, 64, 95
1, 15948, Note_on_c, 0, 42, 44
1, 15959, Control_c, 0, 64, 79
1, 15974, Control_c, 0, 64, 67
1, 15988, Control_c, 0, 64, 43
1, 16003, Control_c, 0, 64, 0
1, 16686, Note_on_c, 0, 66, 43
1, 16716, Note_on_c, 0, 49, 27
1, 16718, Note_off_c, 0, 65, 42
1, 16725, Note_on_c, 0, 57, 12
1, 16796, Control_c, 0, 64, 40
1, 16811, Control_c, 0, 64, 63
1, 16826, Control_c, 0, 64, 69
1, 16841, Control_c, 0, 64, 75
1, 16856, Control_c, 0, 64, 81
1, 16871, Control_c, 0, 64, 89
1, 16886, Control_c, 0, 64, 99
1, 16901, Control_c, 0, 64, 127
1, 16913, Note_off_c, 0, 57, 41
1, 16916, Note_off_c, 0, 66, 54
1, 16963, Note_off_c, 0, 42, 38
1, 16969, Note_off_c, 0, 49, 39
1, 17410, Note_on_c, 0, 39, 42
1, 17427, Control_c, 0, 64, 104
1, 17442, Control_c, 0, 64, 84
1, 17457, Control_c, 0, 64, 71
1, 17472, Control_c, 0, 64, 61
1, 17486, Control_c, 0, 64, 0
1, 17605, Control_c, 0, 64, 33
1, 17619, Control_c, 0, 64, 60
1, 17634, Control_c, 0, 64, 66
1, 17649, Control_c, 0, 64, 69
1, 17658, Note_off_c, 0, 39, 46
1, 17664, Control_c, 0, 64, 72
1, 17679, Control_c, 0, 64, 75
1, 17694, Control_c, 0, 64, 80
1, 17708, Control_c, 0, 64, 88
1, 17713, Note_on_c, 0, 58, 52
1, 17723, Control_c, 0, 64, 101
1, 17738, Control_c, 0, 64, 127
1, 17995, Note_off_c, 0, 58, 54
1, 18004, Control_c, 0, 64, 120
1, 18010, Note_on_c, 0, 59, 52
1, 18018, Control_c, 0, 64, 89
1, 18033, Control_c, 0, 64, 75
1, 18036, Note_on_c, 0, 47, 43
1, 18053, Note_on_c, 0, 57, 34
1, 18056, Control_c, 0, 64, 64
1, 18060, Note_on_c, 0, 54, 27
1, 18071, Control_c, 0, 64, 25
1, 18085, Control_c, 0, 64, 0
1, 18205, Control_c, 0, 64, 52
1, 18220, Control_c, 0, 64, 63
1, 18235, Control_c, 0, 64, 66
1, 18249, Control_c, 0, 64, 68
1, 18264, Control_c, 0, 64, 71
1, 18270, Note_off_c, 0, 57, 51
1, 18279, Control_c, 0, 64, 75
1, 18294, Control_c, 0, 64, 80
1, 18299, Note_off_c, 0, 54, 49
1, 18308, Control_c, 0, 64, 88
1, 18316, Note_on_c, 0, 69, 59
1, 18322, Note_off_c, 0, 47, 41
1, 18323, Control_c, 0, 64, 96
1, 18338, Control_c, 0, 64, 106
1, 18353, Control_c, 0, 64, 127
1, 18392, Note_off_c, 0, 59, 51
1, 18635, Control_c, 0, 64, 113
1, 18650, Control_c, 0, 64, 97
1, 18650, Note_on_c, 0, 68, 54
1, 18665, Control_c, 0, 64, 85
1, 18678, Note_on_c, 0, 40, 40
1, 18680, Control_c, 0, 64, 75
1, 18686, Note_off_c, 0, 69, 57
1, 18694, Control_c, 0, 64, 65
1, 18709, Control_c, 0, 64, 47
1, 18724, Control_c, 0, 64, 0
1, 18850, Control_c, 0, 64, 39
1, 18865, Control_c, 0, 64, 60
1, 18880, Control_c, 0, 64, 64
1, 18895, Control_c, 0, 64, 67
1, 18909, Control_c, 0, 64, 69
1, 18925, Control_c, 0, 64, 74
1, 18940, Control_c, 0, 64, 81
1, 18954, Control_c, 0, 64, 90
1, 18969, Control_c, 0, 64, 108
1, 18972, Note_off_c, 0, 40, 41
1, 18984, Control_c, 0, 64, 127
1, 19132, Control_c, 0, 67, 124
1, 19147, Control_c, 0, 67, 116
1, 19162, Control_c, 0, 67, 110
1, 19177, Control_c, 0, 67, 105
1, 19191, Note_off_c, 0, 68, 37
1, 19192, Control_c, 0, 67, 99
1, 19206, Control_c, 0, 67, 93
1, 19221, Control_c, 0, 67, 86
1, 19236, Control_c, 0, 67, 80
1, 19250, Control_c, 0, 67, 78
1, 19265, Control_c, 0, 67, 78
1, 19280, Control_c, 0, 67, 77
1, 19295, Control_c, 0, 67, 77
1, 19355, Note_on_c, 0, 63, 59
1, 19369, Control_c, 0, 67, 76
1, 19384, Control_c, 0, 67, 76
1, 19399, Control_c, 0, 67, 75
1, 19408, Note_on_c, 0, 47, 42
1, 19414, Control_c, 0, 67, 71
1, 19428, Note_on_c, 0, 56, 25
1, 19428, Control_c, 0, 67, 64
1, 19443, Control_c, 0, 67, 58
1, 19458, Control_c, 0, 67, 53
1, 19473, Control_c, 0, 67, 50
1, 19488, Control_c, 0, 67, 49
1, 19503, Control_c, 0, 67, 48
1, 19517, Control_c, 0, 67, 47
1, 19532, Control_c, 0, 67, 45
1, 19554, Control_c, 0, 67, 44
1, 19583, Control_c, 0, 67, 44
1, 19598, Control_c, 0, 67, 43
1, 19625, Note_off_c, 0, 56, 41
1, 19643, Control_c, 0, 67, 43
1, 19658, Control_c, 0, 67, 42
1, 19673, Control_c, 0, 67, 41
1, 19683, Note_off_c, 0, 47, 41
1, 19688, Control_c, 0, 67, 36
1, 19703, Control_c, 0, 67, 28
1, 19718, Control_c, 0, 67, 22
1, 19733, Control_c, 0, 67, 17
1, 19747, Control_c, 0, 67, 14
1, 19762, Control_c, 0, 67, 12
1, 19777, Control_c, 0, 67, 9
1, 19792, Control_c, 0, 67, 0
1, 19880, Note_on_c, 0, 64, 60
1, 19905, Note_off_c, 0, 63, 61
1, 20218, Note_on_c, 0, 63, 65
1, 20248, Note_on_c, 0, 37, 46
1, 20254, Note_off_c, 0, 64, 59
1, 20281, Control_c, 0, 64, 95
1, 20303, Control_c, 0, 64, 76
1, 20318, Control_c, 0, 64, 61
1, 20333, Control_c, 0, 64, 0
1, 20436, Control_c, 0, 64, 55
1, 20451, Control_c, 0, 64, 65
1, 20466, Control_c, 0, 64, 70
1, 20481, Control_c, 0, 64, 75
1, 20496, Control_c, 0, 64, 79
1, 20510, Control_c, 0, 64, 87
1, 20526, Control_c, 0, 64, 98
1, 20541, Control_c, 0, 64, 127
1, 20594, Note_off_c, 0, 37, 39
1, 20606, Note_on_c, 0, 64, 61
1, 20616, Note_off_c, 0, 63, 59
1, 20791, Note_on_c, 0, 63, 66
1, 20791, Note_off_c, 0, 64, 60
1, 21012, Note_off_c, 0, 63, 62
1, 21014, Note_on_c, 0, 64, 60
1, 21059, Note_on_c, 0, 52, 46
1, 21067, Note_on_c, 0, 58, 37
1, 21067, Control_c, 0, 64, 94
1, 21078, Note_on_c, 0, 54, 25
1, 21082, Control_c, 0, 64, 73
1, 21096, Control_c, 0, 64, 60
1, 21111, Control_c, 0, 64, 0
1, 21244, Control_c, 0, 67, 11
1, 21259, Control_c, 0, 67, 21
1, 21274, Control_c, 0, 67, 29
1, 21289, Control_c, 0, 67, 39
1, 21303, Control_c, 0, 67, 50
1, 21319, Control_c, 0, 64, 50
1, 21319, Control_c, 0, 67, 63
1, 21327, Note_on_c, 0, 66, 56
1, 21334, Control_c, 0, 64, 65
1, 21334, Control_c, 0, 67, 73
1, 21338, Note_off_c, 0, 64, 56
1, 21349, Control_c, 0, 64, 71
1, 21349, Control_c, 0, 67, 81
1, 21364, Control_c, 0, 64, 76
1, 21364, Control_c, 0, 67, 88
1, 21379, Control_c, 0, 64, 78
1, 21379, Control_c, 0, 67, 94
1, 21393, Control_c, 0, 64, 82
1, 21393, Control_c, 0, 67, 99
1, 21408, Control_c, 0, 64, 88
1, 21408, Control_c, 0, 67, 104
1, 21423, Control_c, 0, 64, 97
1, 21423, Control_c, 0, 67, 108
1, 21426, Note_off_c, 0, 58, 40
1, 21438, Control_c, 0, 64, 117
1, 21438, Control_c, 0, 67, 111
1, 21447, Note_off_c, 0, 54, 40
1, 21452, Control_c, 0, 64, 127
1, 21452, Control_c, 0, 67, 113
1, 21457, Note_off_c, 0, 52, 42
1, 21467, Control_c, 0, 67, 114
1, 21549, Note_on_c, 0, 61, 62
1, 21551, Note_off_c, 0, 66, 55
1, 21571, Control_c, 0, 67, 113
1, 21586, Control_c, 0, 67, 113
1, 21600, Control_c, 0, 67, 112
1, 21615, Control_c, 0, 67, 112
1, 21644, Control_c, 0, 67, 111
1, 21763, Control_c, 0, 67, 111
1, 21768, Note_on_c, 0, 64, 60
1, 21778, Note_off_c, 0, 61, 55
1, 21778, Control_c, 0, 64, 103
1, 21800, Control_c, 0, 64, 81
1, 21800, Control_c, 0, 67, 110
1, 21815, Control_c, 0, 64, 67
1, 21830, Note_on_c, 0, 35, 33
1, 21830, Control_c, 0, 64, 42
1, 21844, Control_c, 0, 64, 0
1, 21859, Control_c, 0, 67, 110
1, 21948, Control_c, 0, 64, 49
1, 21963, Control_c, 0, 64, 63
1, 21977, Control_c, 0, 64, 67
1, 21992, Control_c, 0, 64, 69
1, 21992, Control_c, 0, 67, 110
1, 22007, Control_c, 0, 64, 71
1, 22022, Control_c, 0, 64, 75
1, 22030, Note_off_c, 0, 35, 42
1, 22037, Control_c, 0, 64, 82
1, 22037, Control_c, 0, 67, 111
1, 22052, Control_c, 0, 64, 91
1, 22052, Control_c, 0, 67, 112
1, 22067, Control_c, 0, 64, 105
1, 22067, Control_c, 0, 67, 113
1, 22081, Control_c, 0, 64, 127
1, 22081, Control_c, 0, 67, 113
1, 22096, Control_c, 0, 67, 114
1, 22111, Control_c, 0, 67, 114
1, 22127, Control_c, 0, 67, 115
1, 22141, Control_c, 0, 67, 116
1, 22156, Control_c, 0, 67, 123
1, 22171, Control_c, 0, 67, 127
1, 22523, Note_on_c, 0, 59, 34
1, 22523, Note_on_c, 0, 56, 30
1, 23277, Control_c, 0, 64, 93
1, 23298, Note_off_c, 0, 64, 35
1, 23298, Control_c, 0, 64, 77
1, 23305, Note_on_c, 0, 63, 37
1, 23313, Control_c, 0, 64, 65
1, 23326, Note_on_c, 0, 54, 26
1, 23328, Control_c, 0, 64, 41
1, 23343, Control_c, 0, 64, 0
1, 23344, Note_off_c, 0, 56, 42
1, 23462, Control_c, 0, 64, 46
1, 23476, Control_c, 0, 64, 60
1, 23491, Control_c, 0, 64, 63
1, 23506, Control_c, 0, 64, 63
1, 23521, Control_c, 0, 64, 64
1, 23536, Control_c, 0, 64, 66
1, 23551, Control_c, 0, 64, 68
1, 23566, Control_c, 0, 64, 72
1, 23580, Control_c, 0, 64, 75
1, 23595, Control_c, 0, 64, 78
1, 23610, Control_c, 0, 64, 80
1, 23624, Control_c, 0, 64, 82
1, 23639, Control_c, 0, 64, 86
1, 23654, Control_c, 0, 64, 90
1, 23669, Control_c, 0, 64, 95
1, 23684, Control_c, 0, 64, 99
1, 23698, Control_c, 0, 64, 102
1, 23714, Control_c, 0, 64, 105
1, 23729, Control_c, 0, 64, 109
1, 23736, Note_on_c, 0, 75, 39
1, 23744, Control_c, 0, 64, 115
1, 23759, Control_c, 0, 64, 127
1, 23763, Note_off_c, 0, 63, 43
1, 23763, Note_off_c, 0, 75, 57
1, 23884, Note_off_c, 0, 54, 40
1, 23888, Note_off_c, 0, 59, 44
1, 24197, Note_on_c, 0, 73, 51
1, 24233, Note_off_c, 0, 73, 49
1, 24410, Note_on_c, 0, 73, 51
1, 24448, Note_on_c, 0, 63, 31
1, 24461, Note_on_c, 0, 59, 28
1, 24477, Note_on_c, 0, 69, 24
1, 24578, Note_off_c, 0, 63, 44
1, 24580, Note_off_c, 0, 69, 44
1, 24596, Note_off_c, 0, 59, 43
1, 24747, Note_on_c, 0, 71, 42
1, 24895, Note_off_c, 0, 73, 23
1, 24994, Note_on_c, 0, 69, 46
1, 25046, Note_off_c, 0, 71, 40
1, 25401, Note_on_c, 0, 68, 57
1, 25432, Note_off_c, 0, 69, 38
1, 25434, Control_c, 0, 64, 111
1, 25449, Control_c, 0, 64, 89
1, 25453, Note_on_c, 0, 40, 39
1, 25464, Control_c, 0, 64, 75
1, 25479, Control_c, 0, 64, 62
1, 25493, Control_c, 0, 64, 0
1, 25590, Control_c, 0, 64, 32
1, 25605, Control_c, 0, 64, 60
1, 25619, Control_c, 0, 64, 67
1, 25634, Control_c, 0, 64, 71
1, 25649, Control_c, 0, 64, 75
1, 25664, Control_c, 0, 64, 78
1, 25679, Control_c, 0, 64, 84
1, 25679, Note_off_c, 0, 40, 40
1, 25693, Control_c, 0, 64, 91
1, 25708, Control_c, 0, 64, 107
1, 25723, Control_c, 0, 64, 127
1, 26223, Note_on_c, 0, 61, 35
1, 26231, Note_on_c, 0, 56, 31
1, 26233, Note_on_c, 0, 52, 31
1, 26480, Note_off_c, 0, 52, 41
1, 26508, Note_off_c, 0, 56, 37
1, 26555, Note_off_c, 0, 61, 49
1, 26608, Note_on_c, 0, 69, 58
1, 26615, Note_off_c, 0, 68, 61
1, 26934, Note_off_c, 0, 69, 57
1, 27017, Note_on_c, 0, 71, 44
1, 27043, Control_c, 0, 64, 95
1, 27050, Note_on_c, 0, 56, 29
1, 27051, Note_on_c, 0, 47, 36
1, 27053, Note_on_c, 0, 59, 21
1, 27058, Control_c, 0, 64, 76
1, 27072, Control_c, 0, 64, 64
1, 27087, Control_c, 0, 64, 31
1, 27102, Control_c, 0, 64, 0
1, 27206, Control_c, 0, 64, 52
1, 27221, Control_c, 0, 64, 61
1, 27235, Control_c, 0, 64, 64
1, 27250, Control_c, 0, 64, 66
1, 27265, Control_c, 0, 64, 69
1, 27280, Control_c, 0, 64, 73
1, 27295, Control_c, 0, 64, 79
1, 27310, Control_c, 0, 64, 86
1, 27325, Control_c, 0, 64, 94
1, 27334, Note_on_c, 0, 76, 47
1, 27339, Control_c, 0, 64, 105
1, 27349, Note_off_c, 0, 47, 42
1, 27354, Control_c, 0, 64, 127
1, 27369, Note_off_c, 0, 56, 42
1, 27426, Note_off_c, 0, 59, 45
1, 27466, Note_off_c, 0, 71, 36
1, 27495, Note_on_c, 0, 78, 61
1, 27554, Note_off_c, 0, 76, 39
1, 27627, Note_on_c, 0, 80, 63
1, 27632, Note_off_c, 0, 78, 61
1, 27765, Note_on_c, 0, 78, 67
1, 27789, Note_on_c, 0, 68, 43
1, 27802, Note_on_c, 0, 59, 38
1, 27808, Note_on_c, 0, 64, 37
1, 27813, Note_off_c, 0, 80, 53
1, 27885, Note_on_c, 0, 76, 59
1, 27909, Note_off_c, 0, 78, 47
1, 27909, Note_off_c, 0, 68, 37
1, 27930, Note_off_c, 0, 76, 58
1, 27942, Note_off_c, 0, 64, 33
1, 27965, Note_off_c, 0, 59, 34
1, 27994, Note_on_c, 0, 71, 53
1, 28079, Note_off_c, 0, 71, 32
1, 28094, Note_on_c, 0, 73, 62
1, 28189, Note_off_c, 0, 73, 58
1, 28192, Note_on_c, 0, 68, 58
1, 28297, Note_on_c, 0, 73, 59
1, 28318, Note_off_c, 0, 68, 38
1, 28470, Note_on_c, 0, 71, 58
1, 28478, Note_off_c, 0, 73, 60
1, 28517, Control_c, 0, 64, 93
1, 28517, Note_on_c, 0, 35, 42
1, 28539, Control_c, 0, 64, 72
1, 28554, Control_c, 0, 64, 53
1, 28568, Control_c, 0, 64, 0
1, 28642, Control_c, 0, 64, 33
1, 28657, Control_c, 0, 64, 62
1, 28672, Control_c, 0, 64, 69
1, 28687, Control_c, 0, 64, 77
1, 28702, Control_c, 0, 64, 86
1, 28717, Control_c, 0, 64, 96
1, 28723, Note_off_c, 0, 35, 42
1, 28732, Control_c, 0, 64, 127
1, 29155, Note_on_c, 0, 63, 26
1, 29158, Note_on_c, 0, 54, 18
1, 29432, Note_off_c, 0, 63, 39
1, 29768, Note_on_c, 0, 66, 44
1, 29783, Note_on_c, 0, 57, 34
1, 29788, Note_on_c, 0, 63, 30
1, 29849, Note_off_c, 0, 71, 29
1, 29906, Note_off_c, 0, 63, 40
1, 29928, Note_off_c, 0, 57, 41
1, 29964, Note_off_c, 0, 66, 40
1, 29984, Control_c, 0, 67, 119
1, 29993, Note_off_c, 0, 54, 40
1, 29999, Control_c, 0, 67, 112
1, 30014, Control_c, 0, 67, 108
1, 30037, Control_c, 0, 67, 107
1, 30066, Control_c, 0, 67, 106
1, 30142, Control_c, 0, 67, 105
1, 30289, Control_c, 0, 67, 105
1, 30513, Note_on_c, 0, 48, 52
1, 30517, Note_on_c, 0, 36, 48
1, 30615, Control_c, 0, 64, 111
1, 30630, Control_c, 0, 64, 87
1, 30645, Control_c, 0, 64, 72
1, 30660, Control_c, 0, 64, 62
1, 30674, Control_c, 0, 64, 31
1, 30689, Control_c, 0, 64, 0
1, 30689, Control_c, 0, 67, 104
1, 30733, Control_c, 0, 67, 104
1, 30786, Control_c, 0, 67, 103
1, 30801, Control_c, 0, 67, 99
1, 30815, Control_c, 0, 64, 40
1, 30815, Control_c, 0, 67, 94
1, 30830, Control_c, 0, 64, 55
1, 30830, Control_c, 0, 67, 91
1, 30845, Control_c, 0, 64, 60
1, 30845, Control_c, 0, 67, 90
1, 30860, Control_c, 0, 64, 62
1, 30860, Control_c, 0, 67, 89
1, 30875, Control_c, 0, 64, 64
1, 30875, Control_c, 0, 67, 87
1, 30889, Control_c, 0, 64, 66
1, 30889, Control_c, 0, 67, 85
1, 30905, Control_c, 0, 64, 68
1, 30905, Control_c, 0, 67, 83
1, 30920, Control_c, 0, 64, 72
1, 30920, Control_c, 0, 67, 81
1, 30935, Control_c, 0, 64, 76
1, 30935, Control_c, 0, 67, 81
1, 30950, Control_c, 0, 64, 80
1, 30950, Control_c, 0, 67, 80
1, 30964, Control_c, 0, 64, 84
1, 30964, Control_c, 0, 67, 79
1, 30979, Control_c, 0, 64, 88
1, 30979, Control_c, 0, 67, 78
1, 30991, Note_on_c, 0, 68, 59
1, 30994, Control_c, 0, 64, 94
1, 30994, Control_c, 0, 67, 78
1, 31009, Control_c, 0, 64, 103
1, 31009, Control_c, 0, 67, 77
1, 31024, Control_c, 0, 64, 125
1, 31024, Control_c, 0, 67, 77
1, 31038, Control_c, 0, 64, 127
1, 31038, Control_c, 0, 67, 76
1, 31053, Control_c, 0, 67, 75
1, 31066, Note_off_c, 0, 36, 41
1, 31068, Control_c, 0, 67, 74
1, 31075, Note_off_c, 0, 48, 56
1, 31083, Control_c, 0, 67, 73
1, 31112, Control_c, 0, 67, 73
1, 31319, Control_c, 0, 67, 73
1, 31391, Note_on_c, 0, 64, 61
1, 31438, Note_on_c, 0, 37, 39
1, 31453, Control_c, 0, 64, 95
1, 31453, Control_c, 0, 67, 74
1, 31458, Note_on_c, 0, 49, 32
1, 31468, Control_c, 0, 64, 78
1, 31482, Control_c, 0, 64, 66
1, 31495, Note_off_c, 0, 68, 55
1, 31497, Control_c, 0, 64, 50
1, 31497, Control_c, 0, 67, 73
1, 31512, Control_c, 0, 64, 0
1, 31579, Control_c, 0, 67, 73
1, 31608, Control_c, 0, 64, 42
1, 31608, Control_c, 0, 67, 72
1, 31623, Control_c, 0, 64, 58
1, 31623, Control_c, 0, 67, 71
1, 31638, Control_c, 0, 64, 63
1, 31638, Control_c, 0, 67, 71
1, 31653, Control_c, 0, 64, 66
1, 31653, Control_c, 0, 67, 68
1, 31668, Control_c, 0, 64, 70
1, 31668, Control_c, 0, 67, 61
1, 31682, Control_c, 0, 64, 74
1, 31682, Control_c, 0, 67, 52
1, 31697, Control_c, 0, 64, 82
1, 31697, Control_c, 0, 67, 45
1, 31713, Control_c, 0, 64, 91
1, 31713, Control_c, 0, 67, 41
1, 31723, Note_off_c, 0, 37, 40
1, 31728, Control_c, 0, 64, 105
1, 31728, Control_c, 0, 67, 39
1, 31743, Control_c, 0, 64, 127
1, 31743, Control_c, 0, 67, 38
1, 31757, Control_c, 0, 67, 37
1, 31772, Control_c, 0, 67, 35
1, 31787, Control_c, 0, 67, 34
1, 31802, Control_c, 0, 67, 34
1, 31819, Note_off_c, 0, 49, 48
1, 31847, Control_c, 0, 67, 33
1, 31965, Control_c, 0, 67, 33
1, 31979, Control_c, 0, 67, 32
1, 32024, Control_c, 0, 67, 29
1, 32038, Control_c, 0, 67, 21
1, 32053, Control_c, 0, 67, 12
1, 32067, Control_c, 0, 67, 0
1, 32131, Note_on_c, 0, 63, 59
1, 32179, Note_off_c, 0, 64, 49
1, 32192, Note_on_c, 0, 52, 35
1, 32196, Note_on_c, 0, 56, 27
1, 32198, Note_on_c, 0, 61, 35
1, 32377, Note_off_c, 0, 61, 44
1, 32415, Note_off_c, 0, 56, 40
1, 32440, Note_off_c, 0, 52, 41
1, 32533, Note_on_c, 0, 64, 62
1, 32579, Note_off_c, 0, 63, 60
1, 32837, Note_on_c, 0, 66, 75
1, 32891, Control_c, 0, 64, 99
1, 32897, Note_on_c, 0, 47, 46
1, 32899, Note_on_c, 0, 35, 39
1, 32906, Control_c, 0, 64, 76
1, 32909, Note_off_c, 0, 64, 53
1, 32920, Control_c, 0, 64, 64
1, 32935, Control_c, 0, 64, 10
1, 32950, Control_c, 0, 64, 0
1, 33009, Control_c, 0, 64, 34
1, 33032, Control_c, 0, 64, 60
1, 33047, Control_c, 0, 64, 67
1, 33062, Control_c, 0, 64, 72
1, 33076, Control_c, 0, 64, 79
1, 33091, Control_c, 0, 64, 91
1, 33106, Control_c, 0, 64, 127
1, 33135, Note_off_c, 0, 35, 42
1, 33194, Note_off_c, 0, 47, 60
1, 33365, Note_on_c, 0, 68, 68
1, 33394, Note_off_c, 0, 66, 59
1, 33631, Note_off_c, 0, 68, 62
1, 33637, Note_on_c, 0, 69, 70
1, 33668, Note_on_c, 0, 52, 40
1, 33669, Note_on_c, 0, 56, 39
1, 33674, Note_on_c, 0, 62, 42
1, 33828, Note_off_c, 0, 62, 36
1, 33872, Note_off_c, 0, 56, 59
1, 33887, Note_off_c, 0, 52, 43
1, 33944, Note_on_c, 0, 71, 78
1, 34014, Note_off_c, 0, 69, 54
1, 34274, Note_on_c, 0, 73, 78
1, 34321, Note_off_c, 0, 71, 54
1, 34330, Control_c, 0, 64, 86
1, 34340, Note_on_c, 0, 33, 42
1, 34345, Control_c, 0, 64, 66
1, 34347, Note_on_c, 0, 45, 37
1, 34360, Control_c, 0, 64, 22
1, 34374, Control_c, 0, 64, 0
1, 34478, Control_c, 0, 64, 57
1, 34492, Control_c, 0, 64, 67
1, 34507, Control_c, 0, 64, 74
1, 34530, Control_c, 0, 64, 84
1, 34540, Note_off_c, 0, 33, 41
1, 34545, Control_c, 0, 64, 108
1, 34559, Control_c, 0, 64, 127
1, 34605, Note_off_c, 0, 45, 51
1, 34980, Note_on_c, 0, 61, 49
1, 34994, Note_on_c, 0, 52, 44
1, 35098, Note_off_c, 0, 61, 55
1, 35189, Note_off_c, 0, 52, 41
1, 35718, Note_on_c, 0, 43, 72
1, 35729, Note_on_c, 0, 31, 59
1, 35753, Control_c, 0, 64, 81
1, 35768, Control_c, 0, 64, 66
1, 35784, Control_c, 0, 64, 42
1, 35799, Control_c, 0, 64, 0
1, 35858, Control_c, 0, 64, 37
1, 35873, Control_c, 0, 64, 61
1, 35888, Control_c, 0, 64, 66
1, 35902, Control_c, 0, 64, 71
1, 35917, Control_c, 0, 64, 79
1, 35932, Control_c, 0, 64, 93
1, 35934, Note_off_c, 0, 73, 54
1, 35946, Control_c, 0, 64, 127
1, 36050, Note_off_c, 0, 31, 39
1, 36128, Note_off_c, 0, 43, 61
1, 36207, Note_on_c, 0, 73, 85
1, 36567, Note_on_c, 0, 64, 47
1, 36568, Note_on_c, 0, 59, 43
1, 36575, Note_on_c, 0, 52, 44
1, 36801, Note_off_c, 0, 64, 35
1, 36893, Note_off_c, 0, 59, 39
1, 36903, Note_off_c, 0, 52, 37
1, 37081, Note_on_c, 0, 71, 69
1, 37247, Note_off_c, 0, 73, 28
1, 37342, Note_off_c, 0, 71, 37
1, 37354, Note_on_c, 0, 30, 52
1, 37362, Note_on_c, 0, 42, 47
1, 37363, Note_on_c, 0, 70, 63
1, 37424, Note_off_c, 0, 70, 62
1, 37436, Note_on_c, 0, 71, 69
1, 37474, Note_off_c, 0, 71, 58
1, 37482, Note_on_c, 0, 73, 69
1, 37488, Control_c, 0, 64, 103
1, 37503, Control_c, 0, 64, 73
1, 37525, Control_c, 0, 64, 56
1, 37540, Control_c, 0, 64, 0
1, 37543, Note_on_c, 0, 71, 71
1, 37552, Note_off_c, 0, 73, 61
1, 37703, Control_c, 0, 64, 34
1, 37717, Control_c, 0, 64, 61
1, 37732, Control_c, 0, 64, 68
1, 37747, Control_c, 0, 64, 75
1, 37762, Control_c, 0, 64, 84
1, 37777, Note_off_c, 0, 30, 52
1, 37777, Control_c, 0, 64, 103
1, 37791, Control_c, 0, 64, 127
1, 37844, Note_off_c, 0, 42, 59
1, 38293, Note_on_c, 0, 70, 71
1, 38339, Note_on_c, 0, 64, 37
1, 38343, Note_on_c, 0, 61, 34
1, 38356, Note_on_c, 0, 54, 27
1, 38361, Note_off_c, 0, 71, 56
1, 38415, Note_off_c, 0, 64, 55
1, 38463, Note_off_c, 0, 61, 46
1, 38515, Note_off_c, 0, 54, 40
1, 38956, Note_on_c, 0, 40, 66
1, 38960, Note_on_c, 0, 28, 66
1, 39001, Control_c, 0, 64, 82
1, 39023, Control_c, 0, 64, 64
1, 39038, Control_c, 0, 64, 0
1, 39126, Control_c, 0, 64, 57
1, 39141, Control_c, 0, 64, 65
1, 39156, Note_off_c, 0, 28, 61
1, 39156, Control_c, 0, 64, 70
1, 39171, Control_c, 0, 64, 78
1, 39186, Control_c, 0, 64, 91
1, 39201, Control_c, 0, 64, 127
1, 39222, Note_off_c, 0, 40, 64
1, 39311, Note_on_c, 0, 71, 69
1, 39349, Note_off_c, 0, 70, 61
1, 39614, Note_on_c, 0, 73, 80
1, 39627, Note_on_c, 0, 61, 51
1, 39644, Note_on_c, 0, 68, 34
1, 39649, Note_on_c, 0, 56, 38
1, 39672, Note_off_c, 0, 71, 53
1, 39748, Note_off_c, 0, 68, 37
1, 39813, Note_off_c, 0, 56, 32
1, 39815, Note_off_c, 0, 61, 36
1, 39901, Note_on_c, 0, 74, 81
1, 39940, Note_off_c, 0, 73, 50
1, 40031, Note_off_c, 0, 74, 60
1, 40195, Note_on_c, 0, 75, 89
1, 40232, Note_on_c, 0, 27, 53
1, 40244, Note_on_c, 0, 39, 45
1, 40246, Control_c, 0, 64, 102
1, 40261, Control_c, 0, 64, 69
1, 40275, Control_c, 0, 64, 35
1, 40290, Control_c, 0, 64, 0
1, 40423, Control_c, 0, 64, 52
1, 40438, Control_c, 0, 64, 65
1, 40450, Note_off_c, 0, 27, 60
1, 40453, Control_c, 0, 64, 75
1, 40468, Control_c, 0, 64, 94
1, 40483, Control_c, 0, 64, 127
1, 40504, Note_off_c, 0, 39, 60
1, 40915, Note_on_c, 0, 67, 53
1, 40917, Note_on_c, 0, 61, 49
1, 40923, Note_on_c, 0, 58, 56
1, 40958, Note_off_c, 0, 67, 55
1, 41016, Note_off_c, 0, 61, 54
1, 41038, Note_off_c, 0, 58, 55
1, 41298, Note_on_c, 0, 73, 76
1, 41345, Note_off_c, 0, 75, 54
1, 41416, Note_on_c, 0, 44, 50
1, 41481, Note_on_c, 0, 51, 54
1, 41549, Note_on_c, 0, 59, 61
1, 41550, Control_c, 0, 64, 113
1, 41565, Control_c, 0, 64, 72
1, 41570, Note_on_c, 0, 70, 83
1, 41580, Control_c, 0, 64, 46
1, 41594, Control_c, 0, 64, 0
1, 41609, Note_off_c, 0, 73, 62
1, 41683, Control_c, 0, 64, 46
1, 41698, Control_c, 0, 64, 65
1, 41700, Note_off_c, 0, 59, 39
1, 41713, Control_c, 0, 64, 72
1, 41728, Control_c, 0, 64, 82
1, 41743, Control_c, 0, 64, 103
1, 41757, Control_c, 0, 64, 127
1, 41768, Note_off_c, 0, 51, 58
1, 41782, Note_off_c, 0, 44, 57
1, 41852, Note_on_c, 0, 71, 78
1, 41888, Note_off_c, 0, 70, 59
1, 42034, Note_on_c, 0, 41, 53
1, 42112, Note_on_c, 0, 49, 47
1, 42166, Control_c, 0, 64, 89
1, 42181, Control_c, 0, 64, 68
1, 42188, Note_on_c, 0, 61, 84
1, 42195, Control_c, 0, 64, 21
1, 42199, Note_off_c, 0, 71, 58
1, 42210, Control_c, 0, 64, 0
1, 42225, Note_on_c, 0, 59, 45
1, 42373, Control_c, 0, 64, 52
1, 42387, Control_c, 0, 64, 65
1, 42402, Control_c, 0, 64, 72
1, 42417, Control_c, 0, 64, 89
1, 42428, Note_off_c, 0, 59, 54
1, 42432, Control_c, 0, 64, 127
1, 42456, Note_off_c, 0, 41, 58
1, 42489, Note_off_c, 0, 61, 61
1, 42516, Note_off_c, 0, 49, 60
1, 43022, Note_on_c, 0, 80, 84
1, 43106, Note_off_c, 0, 80, 62
1, 43187, Note_on_c, 0, 80, 83
1, 43225, Control_c, 0, 64, 102
1, 43227, Note_on_c, 0, 30, 54
1, 43234, Note_on_c, 0, 42, 47
1, 43240, Control_c, 0, 64, 75
1, 43255, Control_c, 0, 64, 61
1, 43270, Control_c, 0, 64, 0
1, 43374, Control_c, 0, 64, 39
1, 43389, Control_c, 0, 64, 62
1, 43403, Control_c, 0, 64, 67
1, 43418, Control_c, 0, 64, 71
1, 43433, Control_c, 0, 64, 75
1, 43441, Note_off_c, 0, 30, 36
1, 43448, Control_c, 0, 64, 80
1, 43462, Control_c, 0, 64, 93
1, 43477, Control_c, 0, 64, 127
1, 43514, Note_off_c, 0, 80, 59
1, 43560, Note_off_c, 0, 42, 39
1, 44191, Note_on_c, 0, 66, 63
1, 44251, Poly_aftertouch_c, 0, 59, 127
1, 44252, Note_on_c, 0, 64, 19
1, 44271, Note_on_c, 0, 54, 22
1, 44321, Note_off_c, 0, 64, 43
1, 44352, Note_off_c, 0, 54, 56
1, 44360, Poly_aftertouch_c, 0, 59, 0
1, 44986, Note_on_c, 0, 42, 41
1, 45012, Control_c, 0, 64, 90
1, 45027, Control_c, 0, 64, 73
1, 45041, Control_c, 0, 64, 60
1, 45056, Control_c, 0, 64, 0
1, 45189, Control_c, 0, 64, 45
1, 45204, Control_c, 0, 64, 54
1, 45219, Control_c, 0, 64, 59
1, 45234, Control_c, 0, 64, 64
1, 45249, Control_c, 0, 64, 69
1, 45264, Control_c, 0, 64, 75
1, 45279, Control_c, 0, 64, 81
1, 45294, Control_c, 0, 64, 88
1, 45309, Control_c, 0, 64, 97
1, 45324, Control_c, 0, 64, 122
1, 45338, Control_c, 0, 64, 127
1, 45371, Note_off_c, 0, 42, 40
1, 45392, Note_on_c, 0, 71, 49
1, 45457, Control_c, 0, 67, 9
1, 45472, Control_c, 0, 67, 11
1, 45487, Control_c, 0, 67, 13
1, 45502, Control_c, 0, 67, 15
1, 45517, Control_c, 0, 67, 18
1, 45531, Control_c, 0, 67, 21
1, 45546, Control_c, 0, 67, 22
1, 45561, Control_c, 0, 67, 23
1, 45576, Control_c, 0, 67, 23
1, 45635, Control_c, 0, 67, 23
1, 45826, Note_on_c, 0, 75, 48
1, 45841, Note_off_c, 0, 71, 35
1, 45875, Note_on_c, 0, 58, 17
1, 45878, Note_on_c, 0, 54, 21
1, 45890, Note_on_c, 0, 64, 19
1, 45926, Note_off_c, 0, 58, 52
1, 45929, Note_off_c, 0, 54, 59
1, 45932, Note_off_c, 0, 64, 49
1, 45982, Control_c, 0, 67, 23
1, 45994, Note_off_c, 0, 66, 62
1, 46012, Control_c, 0, 67, 24
1, 46027, Control_c, 0, 67, 24
1, 46042, Control_c, 0, 67, 25
1, 46057, Control_c, 0, 67, 30
1, 46072, Control_c, 0, 67, 38
1, 46087, Control_c, 0, 67, 44
1, 46102, Control_c, 0, 67, 49
1, 46117, Control_c, 0, 67, 56
1, 46132, Control_c, 0, 67, 62
1, 46147, Control_c, 0, 67, 70
1, 46161, Control_c, 0, 67, 79
1, 46176, Control_c, 0, 67, 88
1, 46191, Control_c, 0, 67, 96
1, 46206, Control_c, 0, 67, 103
1, 46221, Control_c, 0, 67, 109
1, 46236, Control_c, 0, 67, 113
1, 46251, Control_c, 0, 67, 116
1, 46266, Control_c, 0, 67, 117
1, 46340, Control_c, 0, 67, 118
1, 46370, Control_c, 0, 67, 118
1, 46411, Note_on_c, 0, 73, 54
1, 46473, Control_c, 0, 67, 119
1, 46510, Control_c, 0, 67, 123
1, 46525, Control_c, 0, 67, 127
1, 46578, Note_off_c, 0, 75, 35
1, 46595, Note_on_c, 0, 70, 60
1, 46608, Note_off_c, 0, 73, 51
1, 46634, Note_on_c, 0, 47, 46
1, 46644, Control_c, 0, 64, 115
1, 46659, Control_c, 0, 64, 85
1, 46674, Control_c, 0, 64, 70
1, 46688, Control_c, 0, 64, 58
1, 46703, Control_c, 0, 64, 0
1, 46821, Control_c, 0, 64, 59
1, 46836, Control_c, 0, 64, 66
1, 46851, Control_c, 0, 64, 69
1, 46866, Control_c, 0, 64, 72
1, 46882, Control_c, 0, 64, 77
1, 46883, Note_off_c, 0, 47, 57
1, 46897, Control_c, 0, 64, 83
1, 46911, Control_c, 0, 64, 98
1, 46926, Control_c, 0, 64, 127
1, 47437, Note_on_c, 0, 64, 34
1, 47446, Note_on_c, 0, 61, 28
1, 47476, Note_on_c, 0, 54, 13
1, 47531, Note_off_c, 0, 61, 45
1, 47536, Note_off_c, 0, 54, 43
1, 47559, Note_off_c, 0, 64, 35
1, 48321, Note_on_c, 0, 71, 42
1, 48340, Note_off_c, 0, 70, 37
1, 48348, Control_c, 0, 64, 97
1, 48349, Note_on_c, 0, 47, 35
1, 48363, Control_c, 0, 64, 84
1, 48377, Control_c, 0, 64, 74
1, 48392, Control_c, 0, 64, 65
1, 48407, Control_c, 0, 64, 51
1, 48422, Control_c, 0, 64, 0
1, 48601, Control_c, 0, 64, 38
1, 48616, Control_c, 0, 64, 55
1, 48630, Control_c, 0, 64, 62
1, 48645, Control_c, 0, 64, 63
1, 48660, Control_c, 0, 64, 64
1, 48674, Control_c, 0, 64, 65
1, 48689, Control_c, 0, 64, 67
1, 48704, Control_c, 0, 64, 70
1, 48719, Control_c, 0, 64, 73
1, 48734, Control_c, 0, 64, 76
1, 48756, Control_c, 0, 64, 78
1, 48771, Control_c, 0, 64, 80
1, 48786, Control_c, 0, 64, 83
1, 48800, Control_c, 0, 64, 87
1, 48815, Control_c, 0, 64, 93
1, 48830, Control_c, 0, 64, 104
1, 48845, Control_c, 0, 64, 120
1, 48860, Control_c, 0, 64, 127
1, 49187, Note_on_c, 0, 63, 33
1, 49194, Note_on_c, 0, 59, 28
1, 49219, Note_on_c, 0, 54, 15
1, 49364, Note_off_c, 0, 47, 43
1, 49368, Note_off_c, 0, 54, 36
1, 49369, Note_off_c, 0, 63, 41
1, 49456, Note_off_c, 0, 59, 40
1, 49479, Note_off_c, 0, 71, 40
1, 50297, Note_on_c, 0, 68, 39
1, 50314, Control_c, 0, 64, 103
1, 50328, Note_on_c, 0, 50, 14
1, 50328, Control_c, 0, 64, 91
1, 50343, Control_c, 0, 64, 81
1, 50358, Control_c, 0, 64, 72
1, 50373, Control_c, 0, 64, 65
1, 50388, Control_c, 0, 64, 54
1, 50403, Control_c, 0, 64, 0
1, 50595, Control_c, 0, 64, 39
1, 50610, Control_c, 0, 64, 51
1, 50625, Control_c, 0, 64, 57
1, 50640, Control_c, 0, 64, 61
1, 50654, Control_c, 0, 64, 63
1, 50669, Control_c, 0, 64, 64
1, 50684, Control_c, 0, 64, 66
1, 50699, Control_c, 0, 64, 69
1, 50714, Control_c, 0, 64, 72
1, 50728, Control_c, 0, 64, 74
1, 50743, Control_c, 0, 64, 78
1, 50758, Control_c, 0, 64, 81
1, 50772, Control_c, 0, 64, 84
1, 50787, Control_c, 0, 64, 88
1, 50802, Control_c, 0, 64, 94
1, 50817, Control_c, 0, 64, 101
1, 50832, Control_c, 0, 64, 127
1, 51148, Note_on_c, 0, 62, 30
1, 51154, Note_on_c, 0, 54, 27
1, 51160, Note_on_c, 0, 59, 16
1, 51276, Note_off_c, 0, 50, 35
1, 51293, Note_off_c, 0, 62, 40
1, 51297, Note_off_c, 0, 59, 43
1, 51316, Note_off_c, 0, 54, 39
1, 51477, Note_on_c, 0, 69, 44
1, 51509, Note_off_c, 0, 68, 45
1, 51791, Note_off_c, 0, 69, 57
1, 51810, Note_on_c, 0, 71, 34
1, 51811, Control_c, 0, 64, 98
1, 51821, Note_on_c, 0, 44, 41
1, 51825, Control_c, 0, 64, 82
1, 51840, Control_c, 0, 64, 71
1, 51855, Control_c, 0, 64, 62
1, 51870, Control_c, 0, 64, 33
1, 51884, Note_off_c, 0, 71, 0
1, 51884, Note_on_c, 0, 71, 3
1, 51885, Control_c, 0, 64, 0
1, 51944, Control_c, 0, 64, 37
1, 51959, Control_c, 0, 64, 56
1, 51974, Control_c, 0, 64, 63
1, 51989, Control_c, 0, 64, 66
1, 52004, Control_c, 0, 64, 69
1, 52018, Control_c, 0, 64, 72
1, 52033, Control_c, 0, 64, 76
1, 52048, Control_c, 0, 64, 81
1, 52061, Note_off_c, 0, 44, 45
1, 52063, Control_c, 0, 64, 88
1, 52078, Control_c, 0, 64, 97
1, 52093, Note_on_c, 0, 73, 55
1, 52093, Control_c, 0, 64, 107
1, 52107, Control_c, 0, 64, 127
1, 52146, Note_off_c, 0, 71, 45
1, 52371, Note_on_c, 0, 76, 55
1, 52406, Note_off_c, 0, 73, 38
1, 52412, Note_on_c, 0, 59, 26
1, 52416, Note_on_c, 0, 66, 39
1, 52425, Note_on_c, 0, 54, 37
1, 52481, Note_off_c, 0, 54, 58
1, 52485, Note_off_c, 0, 66, 51
1, 52543, Note_off_c, 0, 59, 40
1, 52650, Note_on_c, 0, 74, 51
1, 52663, Note_off_c, 0, 76, 53
1, 52974, Control_c, 0, 64, 110
1, 52978, Note_on_c, 0, 65, 50
1, 52989, Control_c, 0, 64, 91
1, 52996, Note_on_c, 0, 37, 46
1, 53005, Control_c, 0, 64, 79
1, 53011, Note_off_c, 0, 74, 38
1, 53020, Control_c, 0, 64, 68
1, 53021, Note_on_c, 0, 49, 26
1, 53035, Control_c, 0, 64, 52
1, 53049, Control_c, 0, 64, 0
1, 53153, Control_c, 0, 64, 35
1, 53167, Control_c, 0, 64, 61
1, 53182, Control_c, 0, 64, 67
1, 53197, Control_c, 0, 64, 71
1, 53212, Control_c, 0, 64, 75
1, 53227, Control_c, 0, 64, 80
1, 53230, Note_off_c, 0, 37, 51
1, 53249, Control_c, 0, 64, 89
1, 53264, Control_c, 0, 64, 107
1, 53280, Control_c, 0, 64, 127
1, 53297, Note_off_c, 0, 49, 39
1, 53688, Note_on_c, 0, 59, 34
1, 53695, Note_on_c, 0, 56, 24
1, 53702, Note_on_c, 0, 49, 28
1, 53767, Note_off_c, 0, 56, 40
1, 53769, Note_off_c, 0, 49, 53
1, 53801, Note_off_c, 0, 59, 37
1, 54448, Note_on_c, 0, 66, 43
1, 54457, Control_c, 0, 64, 99
1, 54464, Note_on_c, 0, 30, 34
1, 54472, Control_c, 0, 64, 82
1, 54477, Note_on_c, 0, 42, 30
1, 54486, Control_c, 0, 64, 71
1, 54501, Control_c, 0, 64, 62
1, 54511, Note_off_c, 0, 65, 35
1, 54516, Control_c, 0, 64, 19
1, 54531, Control_c, 0, 64, 0
1, 54619, Control_c, 0, 64, 52
1, 54634, Note_off_c, 0, 30, 40
1, 54634, Control_c, 0, 64, 63
1, 54649, Control_c, 0, 64, 66
1, 54664, Control_c, 0, 64, 70
1, 54679, Control_c, 0, 64, 73
1, 54693, Control_c, 0, 64, 79
1, 54708, Control_c, 0, 64, 88
1, 54716, Note_off_c, 0, 42, 39
1, 54723, Control_c, 0, 64, 105
1, 54745, Control_c, 0, 64, 127
1, 55195, Note_on_c, 0, 57, 35
1, 55202, Note_on_c, 0, 49, 19
1, 55222, Note_on_c, 0, 54, 15
1, 55275, Note_off_c, 0, 66, 43
1, 55290, Note_off_c, 0, 54, 40
1, 55312, Note_off_c, 0, 57, 37
1, 55370, Note_off_c, 0, 49, 40
1, 55791, Control_c, 0, 67, 122
1, 55806, Control_c, 0, 67, 117
1, 55821, Control_c, 0, 67, 112
1, 55836, Control_c, 0, 67, 108
1, 55851, Control_c, 0, 67, 104
1, 55865, Control_c, 0, 67, 99
1, 55880, Control_c, 0, 67, 96
1, 55895, Control_c, 0, 67, 94
1, 55910, Control_c, 0, 67, 92
1, 55925, Control_c, 0, 67, 90
1, 55939, Control_c, 0, 67, 88
1, 55954, Control_c, 0, 67, 86
1, 55969, Control_c, 0, 67, 84
1, 55972, Note_on_c, 0, 70, 65
1, 55984, Control_c, 0, 67, 83
1, 55998, Control_c, 0, 67, 82
1, 56013, Control_c, 0, 67, 81
1, 56028, Control_c, 0, 67, 80
1, 56034, Note_on_c, 0, 40, 41
1, 56034, Note_on_c, 0, 52, 39
1, 56043, Control_c, 0, 67, 80
1, 56058, Control_c, 0, 64, 103
1, 56058, Control_c, 0, 67, 79
1, 56073, Control_c, 0, 64, 83
1, 56073, Control_c, 0, 67, 77
1, 56088, Control_c, 0, 64, 71
1, 56088, Control_c, 0, 67, 76
1, 56102, Control_c, 0, 64, 59
1, 56102, Control_c, 0, 67, 73
1, 56117, Control_c, 0, 64, 0
1, 56117, Control_c, 0, 67, 70
1, 56132, Control_c, 0, 67, 66
1, 56147, Control_c, 0, 67, 61
1, 56162, Control_c, 0, 67, 55
1, 56177, Control_c, 0, 67, 48
1, 56191, Control_c, 0, 64, 52
1, 56191, Control_c, 0, 67, 41
1, 56206, Control_c, 0, 64, 63
1, 56206, Control_c, 0, 67, 32
1, 56221, Control_c, 0, 64, 66
1, 56221, Control_c, 0, 67, 23
1, 56243, Control_c, 0, 64, 70
1, 56243, Control_c, 0, 67, 14
1, 56258, Control_c, 0, 64, 75
1, 56258, Control_c, 0, 67, 0
1, 56272, Control_c, 0, 64, 81
1, 56287, Control_c, 0, 64, 93
1, 56302, Control_c, 0, 64, 125
1, 56311, Note_off_c, 0, 40, 43
1, 56317, Control_c, 0, 64, 127
1, 56377, Note_off_c, 0, 52, 50
1, 56724, Note_on_c, 0, 61, 46
1, 56726, Note_on_c, 0, 56, 36
1, 56898, Note_off_c, 0, 61, 48
1, 57007, Note_off_c, 0, 56, 40
1, 57108, Note_on_c, 0, 71, 69
1, 57140, Note_off_c, 0, 70, 60
1, 57462, Note_on_c, 0, 73, 77
1, 57506, Note_off_c, 0, 71, 57
1, 57524, Note_on_c, 0, 34, 42
1, 57534, Note_on_c, 0, 46, 41
1, 57541, Control_c, 0, 64, 93
1, 57555, Control_c, 0, 64, 73
1, 57570, Control_c, 0, 64, 60
1, 57585, Control_c, 0, 64, 0
1, 57644, Control_c, 0, 64, 55
1, 57659, Control_c, 0, 64, 64
1, 57674, Control_c, 0, 64, 67
1, 57689, Control_c, 0, 64, 70
1, 57703, Control_c, 0, 64, 74
1, 57718, Control_c, 0, 64, 82
1, 57741, Control_c, 0, 64, 94
1, 57747, Note_off_c, 0, 34, 49
1, 57756, Control_c, 0, 64, 127
1, 57812, Note_off_c, 0, 46, 43
1, 57837, Note_on_c, 0, 75, 76
1, 57903, Note_off_c, 0, 73, 46
1, 58131, Note_on_c, 0, 78, 76
1, 58152, Note_on_c, 0, 56, 41
1, 58154, Note_on_c, 0, 61, 41
1, 58190, Note_off_c, 0, 75, 57
1, 58231, Note_off_c, 0, 61, 61
1, 58284, Note_off_c, 0, 56, 55
1, 58395, Note_on_c, 0, 76, 75
1, 58445, Note_off_c, 0, 78, 61
1, 58743, Note_on_c, 0, 67, 70
1, 58785, Control_c, 0, 64, 88
1, 58790, Note_on_c, 0, 39, 34
1, 58798, Note_on_c, 0, 51, 37
1, 58800, Control_c, 0, 64, 72
1, 58809, Note_off_c, 0, 76, 54
1, 58815, Control_c, 0, 64, 60
1, 58830, Control_c, 0, 64, 0
1, 58935, Control_c, 0, 64, 43
1, 58950, Control_c, 0, 64, 63
1, 58964, Control_c, 0, 64, 69
1, 58979, Control_c, 0, 64, 73
1, 58994, Control_c, 0, 64, 78
1, 59009, Control_c, 0, 64, 86
1, 59024, Control_c, 0, 64, 100
1, 59027, Note_off_c, 0, 39, 48
1, 59039, Control_c, 0, 64, 127
1, 59068, Note_off_c, 0, 51, 55
1, 59405, Note_on_c, 0, 61, 43
1, 59413, Note_on_c, 0, 58, 36
1, 59531, Note_off_c, 0, 58, 32
1, 59536, Note_off_c, 0, 61, 34
1, 59832, Control_c, 0, 67, 11
1, 59847, Control_c, 0, 67, 17
1, 59862, Control_c, 0, 67, 23
1, 59877, Control_c, 0, 67, 27
1, 59892, Control_c, 0, 67, 30
1, 59906, Control_c, 0, 67, 33
1, 59921, Control_c, 0, 67, 35
1, 59936, Control_c, 0, 67, 37
1, 59951, Control_c, 0, 67, 39
1, 59966, Control_c, 0, 67, 41
1, 59988, Control_c, 0, 67, 44
1, 60003, Control_c, 0, 67, 47
1, 60018, Control_c, 0, 67, 50
1, 60032, Control_c, 0, 67, 52
1, 60047, Control_c, 0, 67, 55
1, 60062, Control_c, 0, 67, 57
1, 60092, Control_c, 0, 67, 58
1, 60121, Control_c, 0, 67, 58
1, 60125, Note_off_c, 0, 67, 31
1, 60134, Note_on_c, 0, 68, 59
1, 60136, Control_c, 0, 67, 59
1, 60151, Control_c, 0, 67, 61
1, 60165, Control_c, 0, 67, 62
1, 60180, Control_c, 0, 64, 102
1, 60195, Control_c, 0, 64, 79
1, 60195, Control_c, 0, 67, 63
1, 60198, Note_on_c, 0, 38, 33
1, 60210, Note_on_c, 0, 50, 28
1, 60210, Control_c, 0, 64, 66
1, 60225, Control_c, 0, 64, 23
1, 60240, Control_c, 0, 64, 0
1, 60255, Control_c, 0, 67, 64
1, 60314, Control_c, 0, 67, 64
1, 60344, Control_c, 0, 67, 65
1, 60358, Control_c, 0, 64, 48
1, 60358, Control_c, 0, 67, 69
1, 60373, Control_c, 0, 64, 61
1, 60373, Control_c, 0, 67, 74
1, 60388, Control_c, 0, 64, 64
1, 60388, Control_c, 0, 67, 77
1, 60403, Control_c, 0, 64, 67
1, 60403, Control_c, 0, 67, 78
1, 60418, Control_c, 0, 64, 70
1, 60432, Control_c, 0, 64, 74
1, 60447, Control_c, 0, 64, 80
1, 60451, Note_off_c, 0, 38, 40
1, 60463, Control_c, 0, 64, 86
1, 60478, Control_c, 0, 64, 94
1, 60493, Control_c, 0, 64, 106
1, 60508, Control_c, 0, 64, 127
1, 60523, Control_c, 0, 67, 78
1, 60598, Note_on_c, 0, 69, 56
1, 60696, Note_off_c, 0, 68, 26
1, 60856, Control_c, 0, 67, 77
1, 60961, Note_on_c, 0, 73, 53
1, 60974, Control_c, 0, 67, 77
1, 60979, Note_on_c, 0, 59, 38
1, 60982, Note_on_c, 0, 54, 30
1, 61006, Note_off_c, 0, 69, 51
1, 61063, Note_off_c, 0, 59, 39
1, 61078, Control_c, 0, 67, 76
1, 61093, Control_c, 0, 67, 76
1, 61141, Note_off_c, 0, 54, 29
1, 61149, Note_off_c, 0, 50, 36
1, 61249, Note_on_c, 0, 71, 50
1, 61271, Control_c, 0, 67, 75
1, 61283, Note_off_c, 0, 73, 52
1, 61285, Control_c, 0, 67, 75
1, 61568, Note_on_c, 0, 65, 58
1, 61590, Note_on_c, 0, 37, 50
1, 61610, Note_on_c, 0, 49, 34
1, 61618, Control_c, 0, 64, 96
1, 61632, Note_off_c, 0, 71, 35
1, 61633, Control_c, 0, 64, 74
1, 61648, Control_c, 0, 64, 56
1, 61663, Control_c, 0, 64, 0
1, 61678, Control_c, 0, 67, 74
1, 61707, Control_c, 0, 67, 74
1, 61735, Note_off_c, 0, 37, 60
1, 61736, Control_c, 0, 67, 73
1, 61751, Control_c, 0, 64, 58
1, 61766, Control_c, 0, 64, 66
1, 61766, Control_c, 0, 67, 73
1, 61781, Control_c, 0, 64, 71
1, 61781, Control_c, 0, 67, 72
1, 61796, Control_c, 0, 64, 76
1, 61811, Control_c, 0, 64, 81
1, 61826, Control_c, 0, 64, 90
1, 61826, Control_c, 0, 67, 72
1, 61841, Control_c, 0, 64, 127
1, 61841, Control_c, 0, 67, 71
1, 61871, Control_c, 0, 67, 71
1, 61915, Control_c, 0, 67, 70
1, 61929, Control_c, 0, 67, 69
1, 61944, Control_c, 0, 67, 69
1, 62003, Control_c, 0, 67, 68
1, 62018, Control_c, 0, 67, 68
1, 62079, Control_c, 0, 67, 67
1, 62094, Control_c, 0, 67, 67
1, 62108, Control_c, 0, 67, 66
1, 62123, Control_c, 0, 67, 65
1, 62138, Control_c, 0, 67, 60
1, 62152, Control_c, 0, 67, 53
1, 62167, Control_c, 0, 67, 47
1, 62182, Control_c, 0, 67, 40
1, 62187, Note_on_c, 0, 56, 39
1, 62189, Note_on_c, 0, 59, 46
1, 62197, Control_c, 0, 67, 34
1, 62212, Control_c, 0, 67, 31
1, 62249, Control_c, 0, 67, 30
1, 62264, Control_c, 0, 67, 30
1, 62265, Note_off_c, 0, 59, 57
1, 62279, Note_off_c, 0, 56, 49
1, 62348, Note_off_c, 0, 49, 39
1, 62412, Control_c, 0, 67, 29
1, 62427, Control_c, 0, 67, 29
1, 62441, Control_c, 0, 67, 28
1, 62456, Control_c, 0, 67, 25
1, 62471, Control_c, 0, 67, 19
1, 62486, Control_c, 0, 67, 13
1, 62501, Control_c, 0, 67, 9
1, 62515, Control_c, 0, 67, 0
1, 62526, Note_off_c, 0, 65, 54
1, 62779, Note_on_c, 0, 66, 68
1, 62815, Note_on_c, 0, 36, 46
1, 62823, Note_on_c, 0, 48, 42
1, 62841, Control_c, 0, 64, 89
1, 62857, Control_c, 0, 64, 74
1, 62872, Control_c, 0, 64, 64
1, 62887, Control_c, 0, 64, 34
1, 62901, Control_c, 0, 64, 0
1, 62982, Control_c, 0, 64, 54
1, 62997, Control_c, 0, 64, 63
1, 63012, Control_c, 0, 64, 66
1, 63027, Control_c, 0, 64, 69
1, 63042, Control_c, 0, 64, 73
1, 63057, Control_c, 0, 64, 78
1, 63072, Control_c, 0, 64, 85
1, 63084, Note_off_c, 0, 36, 41
1, 63087, Control_c, 0, 64, 96
1, 63101, Control_c, 0, 64, 114
1, 63116, Control_c, 0, 64, 127
1, 63166, Note_on_c, 0, 67, 71
1, 63204, Note_off_c, 0, 66, 61
1, 63483, Note_on_c, 0, 71, 74
1, 63509, Note_on_c, 0, 52, 42
1, 63519, Note_on_c, 0, 57, 45
1, 63571, Note_off_c, 0, 57, 57
1, 63580, Note_off_c, 0, 67, 37
1, 63608, Note_off_c, 0, 48, 40
1, 63624, Note_off_c, 0, 52, 58
1, 63754, Note_on_c, 0, 69, 75
1, 63798, Note_off_c, 0, 71, 53
1, 63930, Note_off_c, 0, 69, 61
1, 64040, Note_on_c, 0, 69, 75
1, 64064, Note_on_c, 0, 35, 52
1, 64070, Note_on_c, 0, 47, 57
1, 64103, Control_c, 0, 64, 111
1, 64118, Control_c, 0, 64, 80
1, 64132, Control_c, 0, 64, 63
1, 64147, Control_c, 0, 64, 0
1, 64221, Control_c, 0, 64, 22
1, 64236, Control_c, 0, 64, 61
1, 64251, Control_c, 0, 64, 67
1, 64266, Control_c, 0, 64, 71
1, 64280, Control_c, 0, 64, 77
1, 64285, Note_off_c, 0, 35, 41
1, 64295, Control_c, 0, 64, 84
1, 64310, Control_c, 0, 64, 99
1, 64324, Control_c, 0, 64, 127
1, 64687, Note_on_c, 0, 67, 77
1, 64703, Note_off_c, 0, 69, 50
1, 64723, Note_on_c, 0, 54, 48
1, 64725, Note_on_c, 0, 57, 45
1, 64830, Note_off_c, 0, 57, 53
1, 64849, Note_off_c, 0, 54, 57
1, 64919, Note_on_c, 0, 66, 79
1, 65059, Note_on_c, 0, 64, 72
1, 65069, Note_off_c, 0, 66, 60
1, 65089, Note_off_c, 0, 67, 23
1, 65155, Note_on_c, 0, 63, 80
1, 65155, Note_off_c, 0, 64, 56
1, 65202, Note_off_c, 0, 63, 66
1, 65263, Note_on_c, 0, 63, 78
1, 65290, Note_on_c, 0, 60, 50
1, 65296, Note_on_c, 0, 57, 49
1, 65319, Control_c, 0, 64, 93
1, 65334, Control_c, 0, 64, 70
1, 65349, Control_c, 0, 64, 44
1, 65364, Control_c, 0, 64, 0
1, 65438, Control_c, 0, 64, 36
1, 65452, Control_c, 0, 64, 63
1, 65467, Control_c, 0, 64, 71
1, 65482, Control_c, 0, 64, 83
1, 65496, Control_c, 0, 64, 98
1, 65511, Control_c, 0, 64, 127
1, 65638, Note_off_c, 0, 60, 56
1, 65996, Note_on_c, 0, 59, 73
1, 66003, Note_on_c, 0, 55, 53
1, 66042, Note_off_c, 0, 57, 61
1, 66112, Control_c, 0, 64, 101
1, 66126, Control_c, 0, 64, 68
1, 66141, Control_c, 0, 64, 0
1, 66200, Control_c, 0, 64, 62
1, 66215, Control_c, 0, 64, 78
1, 66230, Control_c, 0, 64, 127
1, 66377, Note_off_c, 0, 55, 64
1, 66381, Note_on_c, 0, 54, 55
1, 66394, Note_on_c, 0, 57, 77
1, 66399, Note_off_c, 0, 59, 59
1, 66410, Note_off_c, 0, 54, 63
1, 66438, Note_off_c, 0, 47, 52
1, 66476, Note_off_c, 0, 57, 61
1, 66532, Note_off_c, 0, 63, 63
1, 66712, Note_on_c, 0, 35, 84
1, 66756, Control_c, 0, 64, 76
1, 66771, Control_c, 0, 64, 55
1, 66786, Control_c, 0, 64, 0
1, 66831, Control_c, 0, 64, 62
1, 66846, Control_c, 0, 64, 73
1, 66861, Note_on_c, 0, 64, 79
1, 66861, Control_c, 0, 64, 88
1, 66876, Control_c, 0, 64, 115
1, 66891, Control_c, 0, 64, 127
1, 66924, Note_off_c, 0, 64, 61
1, 66938, Note_off_c, 0, 35, 62
1, 67088, Note_on_c, 0, 79, 85
1, 67633, Note_on_c, 0, 47, 56
1, 67639, Note_on_c, 0, 55, 53
1, 67681, Note_off_c, 0, 47, 56
1, 67692, Note_off_c, 0, 55, 53
1, 67793, Note_off_c, 0, 79, 53
1, 67805, Note_on_c, 0, 76, 67
1, 67904, Note_on_c, 0, 72, 69
1, 67928, Note_off_c, 0, 76, 51
1, 67966, Note_off_c, 0, 72, 63
1, 67996, Note_on_c, 0, 67, 67
1, 68045, Note_off_c, 0, 67, 57
1, 68103, Note_on_c, 0, 64, 68
1, 68190, Note_on_c, 0, 60, 65
1, 68196, Note_off_c, 0, 64, 61
1, 68294, Note_off_c, 0, 60, 60
1, 68338, Note_on_c, 0, 55, 68
1, 68343, Note_on_c, 0, 64, 78
1, 68344, Note_on_c, 0, 58, 69
1, 68511, Note_on_c, 0, 57, 65
1, 68512, Note_off_c, 0, 55, 57
1, 68548, Note_off_c, 0, 57, 57
1, 68584, Note_on_c, 0, 55, 60
1, 68627, Note_off_c, 0, 55, 64
1, 68637, Note_on_c, 0, 57, 67
1, 68678, Note_off_c, 0, 57, 57
1, 68690, Note_on_c, 0, 55, 58
1, 68733, Note_off_c, 0, 55, 63
1, 68740, Note_on_c, 0, 57, 68
1, 68795, Note_off_c, 0, 57, 62
1, 68798, Note_on_c, 0, 55, 54
1, 68826, Poly_aftertouch_c, 0, 57, 0
1, 68834, Note_off_c, 0, 55, 61
1, 68837, Note_on_c, 0, 57, 61
1, 68894, Note_off_c, 0, 57, 61
1, 68908, Note_on_c, 0, 55, 64
1, 68939, Note_on_c, 0, 57, 61
1, 68943, Note_off_c, 0, 55, 64
1, 69013, Note_off_c, 0, 57, 62
1, 69016, Note_on_c, 0, 55, 66
1, 69052, Note_off_c, 0, 64, 58
1, 69082, Note_off_c, 0, 55, 50
1, 69090, Note_on_c, 0, 54, 79
1, 69101, Note_off_c, 0, 58, 55
1, 69201, Note_on_c, 0, 52, 82
1, 69210, Note_off_c, 0, 54, 59
1, 69288, Note_off_c, 0, 52, 63
1, 69576, Note_on_c, 0, 67, 64
1, 69654, Control_c, 0, 64, 84
1, 69669, Control_c, 0, 64, 68
1, 69683, Control_c, 0, 64, 35
1, 69698, Control_c, 0, 64, 0
1, 69972, Note_off_c, 0, 67, 63
1, 70513, Note_on_c, 0, 58, 47
1, 70693, Note_off_c, 0, 58, 55
1, 70695, Note_on_c, 0, 59, 50
1, 70753, Note_on_c, 0, 35, 31
1, 70960, Control_c, 0, 64, 19
1, 70975, Control_c, 0, 64, 44
1, 70975, Control_c, 0, 67, 10
1, 70989, Control_c, 0, 64, 52
1, 70989, Control_c, 0, 67, 14
1, 71004, Control_c, 0, 64, 56
1, 71004, Control_c, 0, 67, 17
1, 71019, Control_c, 0, 64, 60
1, 71019, Control_c, 0, 67, 22
1, 71034, Control_c, 0, 64, 63
1, 71034, Control_c, 0, 67, 26
1, 71049, Control_c, 0, 64, 64
1, 71049, Control_c, 0, 67, 29
1, 71064, Control_c, 0, 64, 66
1, 71064, Control_c, 0, 67, 32
1, 71079, Control_c, 0, 64, 68
1, 71079, Control_c, 0, 67, 33
1, 71093, Control_c, 0, 64, 70
1, 71093, Control_c, 0, 67, 33
1, 71108, Control_c, 0, 64, 73
1, 71123, Control_c, 0, 64, 76
1, 71138, Control_c, 0, 64, 79
1, 71153, Control_c, 0, 64, 84
1, 71159, Note_off_c, 0, 35, 41
1, 71168, Control_c, 0, 64, 90
1, 71182, Control_c, 0, 64, 98
1, 71197, Control_c, 0, 64, 111
1, 71197, Control_c, 0, 67, 34
1, 71219, Control_c, 0, 64, 127
1, 71219, Control_c, 0, 67, 34
1, 71278, Control_c, 0, 67, 35
1, 71338, Control_c, 0, 67, 35
1, 71353, Control_c, 0, 67, 38
1, 71368, Control_c, 0, 67, 39
1, 71383, Control_c, 0, 67, 41
1, 71397, Control_c, 0, 67, 41
1, 71412, Control_c, 0, 67, 42
1, 71441, Control_c, 0, 67, 42
1, 71612, Note_on_c, 0, 63, 37
1, 71650, Control_c, 0, 67, 43
1, 71667, Note_on_c, 0, 54, 16
1, 71722, Note_off_c, 0, 59, 42
1, 71916, Control_c, 0, 67, 43
1, 72116, Control_c, 0, 67, 43
1, 72131, Control_c, 0, 67, 43
1, 72205, Control_c, 0, 67, 44
1, 72234, Control_c, 0, 67, 44
1, 72337, Control_c, 0, 67, 44
1, 72414, Note_on_c, 0, 61, 46
1, 72466, Note_on_c, 0, 57, 32
1, 72514, Note_off_c, 0, 63, 43
1, 72565, Note_off_c, 0, 54, 40
1, 72679, Control_c, 0, 67, 44
1, 72731, Control_c, 0, 67, 44
1, 72835, Control_c, 0, 67, 44
1, 72864, Control_c, 0, 67, 45
1, 72879, Control_c, 0, 67, 46
1, 72891, Note_on_c, 0, 63, 49
1, 72894, Control_c, 0, 67, 55
1, 72896, Note_off_c, 0, 61, 57
1, 72909, Control_c, 0, 67, 71
1, 72924, Control_c, 0, 67, 85
1, 72939, Control_c, 0, 67, 96
1, 72954, Control_c, 0, 67, 103
1, 72968, Control_c, 0, 67, 108
1, 72983, Control_c, 0, 67, 114
1, 72998, Control_c, 0, 67, 119
1, 73012, Control_c, 0, 67, 125
1, 73027, Control_c, 0, 67, 127
1, 73240, Note_off_c, 0, 63, 37
1, 73246, Note_on_c, 0, 64, 52
1, 73281, Control_c, 0, 64, 119
1, 73286, Note_on_c, 0, 49, 36
1, 73296, Control_c, 0, 64, 91
1, 73310, Control_c, 0, 64, 78
1, 73325, Control_c, 0, 64, 66
1, 73340, Control_c, 0, 64, 54
1, 73355, Control_c, 0, 64, 0
1, 73525, Control_c, 0, 64, 37
1, 73540, Control_c, 0, 64, 52
1, 73555, Control_c, 0, 64, 58
1, 73570, Control_c, 0, 64, 61
1, 73585, Control_c, 0, 64, 64
1, 73599, Control_c, 0, 64, 65
1, 73614, Control_c, 0, 64, 67
1, 73629, Control_c, 0, 64, 69
1, 73643, Control_c, 0, 64, 72
1, 73658, Control_c, 0, 64, 76
1, 73673, Control_c, 0, 64, 82
1, 73688, Control_c, 0, 64, 90
1, 73703, Control_c, 0, 64, 102
1, 73717, Control_c, 0, 64, 117
1, 73732, Control_c, 0, 64, 127
1, 73918, Note_on_c, 0, 47, 31
1, 73918, Note_off_c, 0, 57, 37
1, 74068, Note_off_c, 0, 49, 28
1, 74247, Note_on_c, 0, 66, 49
1, 74310, Note_off_c, 0, 64, 37
1, 74723, Note_on_c, 0, 68, 49
1, 74733, Control_c, 0, 64, 110
1, 74748, Control_c, 0, 64, 95
1, 74763, Control_c, 0, 64, 84
1, 74766, Note_off_c, 0, 47, 42
1, 74771, Note_on_c, 0, 40, 42
1, 74778, Control_c, 0, 64, 76
1, 74792, Control_c, 0, 64, 68
1, 74802, Note_off_c, 0, 66, 37
1, 74807, Control_c, 0, 64, 61
1, 74822, Control_c, 0, 64, 25
1, 74837, Control_c, 0, 64, 0
1, 74993, Control_c, 0, 64, 37
1, 75008, Control_c, 0, 64, 57
1, 75023, Control_c, 0, 64, 62
1, 75037, Control_c, 0, 64, 64
1, 75052, Control_c, 0, 64, 66
1, 75067, Control_c, 0, 64, 69
1, 75082, Control_c, 0, 64, 72
1, 75097, Control_c, 0, 64, 75
1, 75101, Note_off_c, 0, 40, 42
1, 75112, Control_c, 0, 64, 79
1, 75127, Control_c, 0, 64, 84
1, 75142, Control_c, 0, 64, 91
1, 75156, Control_c, 0, 64, 100
1, 75171, Control_c, 0, 64, 114
1, 75186, Control_c, 0, 64, 127
1, 75696, Note_on_c, 0, 61, 29
1, 75712, Note_on_c, 0, 56, 27
1, 75732, Note_on_c, 0, 52, 23
1, 75944, Note_off_c, 0, 52, 41
1, 75997, Note_off_c, 0, 56, 36
1, 76028, Note_off_c, 0, 61, 39
1, 76116, Note_on_c, 0, 69, 43
1, 76149, Note_off_c, 0, 68, 31
1, 76289, Note_off_c, 0, 69, 60
1, 76641, Note_on_c, 0, 71, 37
1, 76653, Control_c, 0, 64, 108
1, 76668, Control_c, 0, 64, 90
1, 76676, Note_on_c, 0, 47, 38
1, 76676, Note_on_c, 0, 59, 29
1, 76683, Note_on_c, 0, 56, 32
1, 76683, Control_c, 0, 64, 80
1, 76698, Control_c, 0, 64, 72
1, 76712, Control_c, 0, 64, 65
1, 76727, Control_c, 0, 64, 54
1, 76742, Control_c, 0, 64, 0
1, 76801, Control_c, 0, 64, 14
1, 76816, Control_c, 0, 64, 47
1, 76831, Control_c, 0, 64, 59
1, 76846, Control_c, 0, 64, 63
1, 76860, Control_c, 0, 64, 67
1, 76875, Control_c, 0, 64, 70
1, 76879, Note_off_c, 0, 71, 44
1, 76885, Note_on_c, 0, 76, 35
1, 76888, Note_off_c, 0, 47, 43
1, 76890, Control_c, 0, 64, 76
1, 76905, Control_c, 0, 64, 83
1, 76920, Control_c, 0, 64, 93
1, 76930, Note_off_c, 0, 56, 41
1, 76934, Control_c, 0, 64, 119
1, 76948, Note_off_c, 0, 76, 55
1, 76949, Control_c, 0, 64, 127
1, 76955, Note_on_c, 0, 78, 54
1, 76977, Note_off_c, 0, 59, 42
1, 77021, Note_off_c, 0, 78, 55
1, 77022, Note_on_c, 0, 80, 65
1, 77043, Note_off_c, 0, 80, 67
1, 77100, Note_on_c, 0, 83, 58
1, 77118, Note_off_c, 0, 83, 63
1, 77151, Note_on_c, 0, 88, 70
1, 77189, Note_off_c, 0, 88, 59
1, 77222, Note_on_c, 0, 90, 58
1, 77260, Note_off_c, 0, 90, 64
1, 77265, Note_on_c, 0, 92, 65
1, 77331, Note_on_c, 0, 90, 68
1, 77359, Note_off_c, 0, 92, 55
1, 77401, Note_on_c, 0, 59, 26
1, 77407, Note_on_c, 0, 68, 35
1, 77410, Note_on_c, 0, 88, 67
1, 77424, Note_on_c, 0, 64, 23
1, 77435, Note_off_c, 0, 90, 57
1, 77438, Note_off_c, 0, 88, 63
1, 77486, Note_on_c, 0, 83, 63
1, 77515, Note_off_c, 0, 83, 65
1, 77571, Note_on_c, 0, 80, 68
1, 77592, Note_off_c, 0, 68, 45
1, 77663, Note_on_c, 0, 78, 62
1, 77673, Note_off_c, 0, 64, 39
1, 77706, Note_off_c, 0, 80, 33
1, 77745, Note_on_c, 0, 76, 50
1, 77748, Note_off_c, 0, 78, 58
1, 77767, Note_off_c, 0, 76, 61
1, 77812, Note_off_c, 0, 59, 42
1, 77827, Note_on_c, 0, 71, 51
1, 77861, Note_off_c, 0, 71, 61
1, 77932, Note_on_c, 0, 73, 49
1, 78012, Note_off_c, 0, 73, 59
1, 78027, Note_on_c, 0, 68, 50
1, 78128, Note_off_c, 0, 68, 46
1, 78133, Note_on_c, 0, 73, 63
1, 78296, Note_off_c, 0, 73, 60
1, 78303, Note_on_c, 0, 71, 60
1, 78329, Control_c, 0, 64, 104
1, 78344, Control_c, 0, 64, 83
1, 78359, Control_c, 0, 64, 70
1, 78362, Note_on_c, 0, 35, 30
1, 78374, Control_c, 0, 64, 58
1, 78388, Control_c, 0, 64, 0
1, 78492, Control_c, 0, 64, 52
1, 78507, Control_c, 0, 64, 64
1, 78522, Control_c, 0, 64, 68
1, 78537, Control_c, 0, 64, 71
1, 78552, Control_c, 0, 64, 75
1, 78567, Control_c, 0, 64, 79
1, 78581, Control_c, 0, 64, 89
1, 78581, Note_off_c, 0, 35, 40
1, 78596, Control_c, 0, 64, 104
1, 78611, Control_c, 0, 64, 127
1, 78990, Note_on_c, 0, 54, 32
1, 78996, Note_on_c, 0, 63, 27
1, 79271, Note_off_c, 0, 63, 37
1, 79644, Note_on_c, 0, 66, 52
1, 79695, Note_on_c, 0, 57, 21
1, 79702, Note_on_c, 0, 63, 23
1, 79777, Note_off_c, 0, 71, 35
1, 79800, Note_off_c, 0, 63, 43
1, 79810, Note_off_c, 0, 57, 38
1, 79842, Note_off_c, 0, 54, 48
1, 80352, Control_c, 0, 64, 111
1, 80354, Note_on_c, 0, 35, 36
1, 80367, Control_c, 0, 64, 93
1, 80382, Control_c, 0, 64, 81
1, 80397, Control_c, 0, 64, 70
1, 80411, Control_c, 0, 64, 61
1, 80427, Control_c, 0, 64, 0
1, 80760, Note_on_c, 0, 67, 42
1, 80808, Note_off_c, 0, 66, 48
1, 81363, Note_on_c, 0, 64, 41
1, 81405, Note_on_c, 0, 36, 33
1, 81414, Note_off_c, 0, 67, 42
1, 81428, Note_off_c, 0, 35, 38
1, 81575, Control_c, 0, 64, 47
1, 81590, Control_c, 0, 64, 61
1, 81605, Control_c, 0, 64, 64
1, 81620, Control_c, 0, 64, 66
1, 81635, Control_c, 0, 64, 69
1, 81649, Control_c, 0, 64, 71
1, 81664, Control_c, 0, 64, 75
1, 81679, Control_c, 0, 64, 80
1, 81685, Note_off_c, 0, 36, 42
1, 81702, Control_c, 0, 64, 85
1, 81717, Control_c, 0, 64, 91
1, 81731, Control_c, 0, 64, 99
1, 81746, Control_c, 0, 64, 113
1, 81761, Control_c, 0, 64, 127
1, 82176, Note_on_c, 0, 57, 32
1, 82186, Note_on_c, 0, 52, 35
1, 82253, Note_off_c, 0, 52, 51
1, 82320, Note_off_c, 0, 57, 41
1, 82501, Note_on_c, 0, 65, 44
1, 82515, Note_off_c, 0, 64, 43
1, 82701, Control_c, 0, 64, 120
1, 82716, Control_c, 0, 64, 115
1, 82731, Control_c, 0, 64, 112
1, 82746, Control_c, 0, 64, 108
1, 82761, Control_c, 0, 64, 104
1, 82776, Control_c, 0, 64, 100
1, 82791, Control_c, 0, 64, 93
1, 82805, Control_c, 0, 64, 85
1, 82817, Note_on_c, 0, 67, 50
1, 82820, Control_c, 0, 64, 78
1, 82835, Control_c, 0, 64, 70
1, 82837, Note_off_c, 0, 65, 41
1, 82850, Control_c, 0, 64, 63
1, 82859, Note_on_c, 0, 43, 30
1, 82865, Control_c, 0, 64, 41
1, 82872, Note_on_c, 0, 55, 24
1, 82880, Control_c, 0, 64, 0
1, 82984, Control_c, 0, 64, 41
1, 82999, Control_c, 0, 64, 61
1, 83014, Control_c, 0, 64, 65
1, 83028, Control_c, 0, 64, 66
1, 83043, Control_c, 0, 64, 67
1, 83058, Control_c, 0, 64, 70
1, 83073, Control_c, 0, 64, 74
1, 83088, Control_c, 0, 64, 79
1, 83102, Control_c, 0, 64, 83
1, 83117, Note_off_c, 0, 43, 39
1, 83117, Control_c, 0, 64, 87
1, 83128, Note_on_c, 0, 71, 55
1, 83132, Control_c, 0, 64, 92
1, 83146, Control_c, 0, 64, 97
1, 83152, Note_off_c, 0, 55, 47
1, 83161, Control_c, 0, 64, 101
1, 83172, Note_off_c, 0, 67, 37
1, 83176, Control_c, 0, 64, 105
1, 83199, Control_c, 0, 64, 106
1, 83214, Control_c, 0, 64, 107
1, 83346, Control_c, 0, 64, 106
1, 83391, Control_c, 0, 64, 106
1, 83420, Control_c, 0, 64, 105
1, 83427, Note_on_c, 0, 72, 56
1, 83450, Control_c, 0, 64, 105
1, 83457, Note_off_c, 0, 71, 36
1, 83465, Control_c, 0, 64, 104
1, 83468, Note_on_c, 0, 55, 32
1, 83475, Note_on_c, 0, 64, 38
1, 83494, Control_c, 0, 64, 104
1, 83549, Note_off_c, 0, 64, 59
1, 83598, Control_c, 0, 64, 103
1, 83609, Note_off_c, 0, 55, 40
1, 83673, Control_c, 0, 64, 103
1, 83732, Note_on_c, 0, 69, 56
1, 83733, Control_c, 0, 64, 102
1, 83759, Note_off_c, 0, 72, 54
1, 83777, Control_c, 0, 64, 102
1, 83822, Control_c, 0, 64, 101
1, 83837, Control_c, 0, 64, 101
1, 83896, Control_c, 0, 64, 100
1, 83911, Control_c, 0, 64, 100
1, 83948, Control_c, 0, 64, 99
1, 83963, Control_c, 0, 64, 99
1, 83977, Control_c, 0, 64, 98
1, 83992, Control_c, 0, 64, 97
1, 84007, Control_c, 0, 64, 96
1, 84022, Control_c, 0, 64, 95
1, 84037, Control_c, 0, 64, 93
1, 84051, Control_c, 0, 64, 90
1, 84066, Control_c, 0, 64, 85
1, 84077, Note_on_c, 0, 67, 57
1, 84081, Control_c, 0, 64, 80
1, 84096, Control_c, 0, 64, 74
1, 84109, Note_off_c, 0, 69, 39
1, 84111, Control_c, 0, 64, 67
1, 84126, Note_on_c, 0, 31, 33
1, 84126, Control_c, 0, 64, 56
1, 84135, Note_on_c, 0, 43, 24
1, 84141, Control_c, 0, 64, 0
1, 84259, Control_c, 0, 64, 49
1, 84274, Control_c, 0, 64, 63
1, 84289, Control_c, 0, 64, 66
1, 84290, Note_off_c, 0, 31, 53
1, 84304, Control_c, 0, 64, 68
1, 84318, Control_c, 0, 64, 69
1, 84333, Control_c, 0, 64, 72
1, 84348, Control_c, 0, 64, 75
1, 84363, Control_c, 0, 64, 79
1, 84371, Note_off_c, 0, 43, 41
1, 84377, Control_c, 0, 64, 84
1, 84392, Control_c, 0, 64, 88
1, 84407, Control_c, 0, 64, 94
1, 84423, Control_c, 0, 64, 103
1, 84438, Control_c, 0, 64, 112
1, 84453, Control_c, 0, 64, 127
1, 84724, Note_on_c, 0, 43, 37
1, 84737, Note_on_c, 0, 53, 29
1, 84940, Note_off_c, 0, 43, 40
1, 84979, Note_off_c, 0, 53, 41
1, 85356, Note_on_c, 0, 62, 47
1, 85387, Note_on_c, 0, 59, 30
1, 85407, Note_on_c, 0, 53, 24
1, 85569, Note_off_c, 0, 59, 40
1, 85572, Note_off_c, 0, 67, 37
1, 85649, Note_off_c, 0, 53, 44
1, 86069, Control_c, 0, 64, 122
1, 86081, Note_on_c, 0, 43, 37
1, 86084, Control_c, 0, 64, 113
1, 86099, Control_c, 0, 64, 108
1, 86113, Control_c, 0, 64, 102
1, 86128, Control_c, 0, 64, 96
1, 86143, Control_c, 0, 64, 87
1, 86157, Control_c, 0, 64, 78
1, 86172, Control_c, 0, 64, 70
1, 86195, Control_c, 0, 64, 63
1, 86210, Control_c, 0, 64, 41
1, 86225, Control_c, 0, 64, 0
1, 86343, Control_c, 0, 64, 46
1, 86358, Control_c, 0, 64, 58
1, 86372, Control_c, 0, 64, 61
1, 86387, Control_c, 0, 64, 63
1, 86402, Control_c, 0, 64, 64
1, 86417, Control_c, 0, 64, 65
1, 86432, Control_c, 0, 64, 68
1, 86446, Control_c, 0, 64, 71
1, 86461, Control_c, 0, 64, 74
1, 86462, Note_on_c, 0, 64, 49
1, 86476, Control_c, 0, 64, 76
1, 86491, Control_c, 0, 64, 79
1, 86506, Control_c, 0, 64, 83
1, 86520, Control_c, 0, 64, 88
1, 86525, Note_off_c, 0, 62, 55
1, 86535, Control_c, 0, 64, 92
1, 86550, Control_c, 0, 64, 96
1, 86564, Control_c, 0, 64, 102
1, 86579, Control_c, 0, 64, 107
1, 86594, Control_c, 0, 64, 114
1, 86609, Control_c, 0, 64, 127
1, 86907, Note_on_c, 0, 61, 64
1, 86987, Note_on_c, 0, 31, 37
1, 86988, Control_c, 0, 64, 106
1, 87003, Control_c, 0, 64, 87
1, 87003, Note_off_c, 0, 64, 58
1, 87017, Control_c, 0, 64, 76
1, 87032, Control_c, 0, 64, 66
1, 87047, Control_c, 0, 64, 53
1, 87062, Control_c, 0, 64, 0
1, 87136, Control_c, 0, 64, 14
1, 87151, Control_c, 0, 64, 55
1, 87166, Control_c, 0, 64, 63
1, 87181, Control_c, 0, 64, 67
1, 87195, Control_c, 0, 64, 71
1, 87197, Note_off_c, 0, 31, 42
1, 87210, Control_c, 0, 64, 75
1, 87225, Control_c, 0, 64, 80
1, 87240, Control_c, 0, 64, 90
1, 87255, Control_c, 0, 64, 107
1, 87269, Control_c, 0, 64, 127
1, 87297, Note_off_c, 0, 43, 40
1, 87702, Note_on_c, 0, 58, 39
1, 87708, Note_on_c, 0, 52, 42
1, 87855, Note_off_c, 0, 58, 37
1, 87880, Note_off_c, 0, 52, 39
1, 88314, Control_c, 0, 67, 125
1, 88329, Control_c, 0, 67, 120
1, 88344, Control_c, 0, 67, 115
1, 88359, Control_c, 0, 67, 110
1, 88374, Control_c, 0, 67, 106
1, 88389, Control_c, 0, 67, 103
1, 88404, Control_c, 0, 67, 100
1, 88419, Control_c, 0, 67, 98
1, 88441, Control_c, 0, 67, 97
1, 88446, Note_on_c, 0, 30, 47
1, 88447, Note_on_c, 0, 42, 45
1, 88456, Control_c, 0, 67, 96
1, 88471, Control_c, 0, 67, 95
1, 88486, Control_c, 0, 67, 94
1, 88501, Control_c, 0, 67, 93
1, 88515, Control_c, 0, 67, 92
1, 88530, Control_c, 0, 67, 91
1, 88545, Control_c, 0, 64, 102
1, 88545, Control_c, 0, 67, 89
1, 88560, Control_c, 0, 64, 85
1, 88560, Control_c, 0, 67, 88
1, 88574, Control_c, 0, 64, 74
1, 88574, Control_c, 0, 67, 86
1, 88589, Control_c, 0, 64, 66
1, 88589, Control_c, 0, 67, 83
1, 88604, Control_c, 0, 64, 56
1, 88604, Control_c, 0, 67, 79
1, 88619, Control_c, 0, 64, 0
1, 88619, Control_c, 0, 67, 75
1, 88634, Control_c, 0, 67, 70
1, 88648, Control_c, 0, 67, 64
1, 88663, Control_c, 0, 67, 58
1, 88678, Control_c, 0, 67, 51
1, 88693, Control_c, 0, 67, 43
1, 88708, Control_c, 0, 67, 34
1, 88723, Control_c, 0, 64, 43
1, 88723, Control_c, 0, 67, 26
1, 88737, Control_c, 0, 64, 55
1, 88737, Control_c, 0, 67, 17
1, 88752, Control_c, 0, 64, 61
1, 88752, Control_c, 0, 67, 8
1, 88767, Control_c, 0, 64, 62
1, 88767, Control_c, 0, 67, 0
1, 88782, Control_c, 0, 64, 64
1, 88797, Control_c, 0, 64, 65
1, 88812, Control_c, 0, 64, 67
1, 88827, Control_c, 0, 64, 71
1, 88841, Control_c, 0, 64, 75
1, 88856, Control_c, 0, 64, 78
1, 88871, Control_c, 0, 64, 81
1, 88886, Control_c, 0, 64, 84
1, 88901, Control_c, 0, 64, 88
1, 88906, Note_on_c, 0, 63, 52
1, 88915, Control_c, 0, 64, 93
1, 88930, Control_c, 0, 64, 100
1, 88945, Control_c, 0, 64, 109
1, 88959, Control_c, 0, 64, 127
1, 88964, Note_off_c, 0, 42, 46
1, 88999, Note_off_c, 0, 61, 52
1, 89327, Note_on_c, 0, 64, 65
1, 89342, Note_off_c, 0, 63, 47
1, 89355, Note_on_c, 0, 28, 47
1, 89368, Control_c, 0, 64, 104
1, 89375, Note_on_c, 0, 40, 37
1, 89383, Control_c, 0, 64, 88
1, 89397, Control_c, 0, 64, 75
1, 89402, Note_off_c, 0, 30, 36
1, 89412, Control_c, 0, 64, 67
1, 89427, Control_c, 0, 64, 55
1, 89442, Control_c, 0, 64, 0
1, 89545, Control_c, 0, 64, 40
1, 89560, Control_c, 0, 64, 60
1, 89575, Control_c, 0, 64, 64
1, 89590, Control_c, 0, 64, 68
1, 89605, Control_c, 0, 64, 70
1, 89620, Control_c, 0, 64, 73
1, 89635, Control_c, 0, 64, 78
1, 89650, Control_c, 0, 64, 85
1, 89664, Control_c, 0, 64, 95
1, 89668, Note_on_c, 0, 65, 75
1, 89679, Control_c, 0, 64, 116
1, 89694, Control_c, 0, 64, 127
1, 89728, Note_off_c, 0, 28, 39
1, 89748, Note_off_c, 0, 40, 41
1, 89757, Note_off_c, 0, 64, 36
1, 90004, Note_on_c, 0, 66, 74
1, 90043, Note_off_c, 0, 65, 54
1, 90043, Control_c, 0, 64, 101
1, 90046, Note_on_c, 0, 27, 43
1, 90058, Control_c, 0, 64, 81
1, 90069, Note_on_c, 0, 39, 40
1, 90073, Control_c, 0, 64, 66
1, 90087, Control_c, 0, 64, 41
1, 90102, Control_c, 0, 64, 0
1, 90220, Control_c, 0, 64, 39
1, 90235, Control_c, 0, 64, 62
1, 90250, Control_c, 0, 64, 67
1, 90265, Control_c, 0, 64, 74
1, 90280, Control_c, 0, 64, 82
1, 90294, Control_c, 0, 64, 94
1, 90295, Note_off_c, 0, 27, 41
1, 90309, Control_c, 0, 64, 127
1, 90419, Note_off_c, 0, 39, 38
1, 90626, Note_off_c, 0, 66, 37
1, 90780, Note_on_c, 0, 59, 74
1, 90838, Note_on_c, 0, 57, 42
1, 90839, Note_on_c, 0, 47, 37
1, 90907, Note_off_c, 0, 57, 54
1, 90990, Note_off_c, 0, 47, 39
1, 91515, Note_on_c, 0, 68, 78
1, 91570, Note_on_c, 0, 28, 50
1, 91584, Control_c, 0, 64, 114
1, 91590, Note_on_c, 0, 40, 37
1, 91591, Note_off_c, 0, 59, 35
1, 91599, Control_c, 0, 64, 76
1, 91614, Control_c, 0, 64, 61
1, 91629, Control_c, 0, 64, 0
1, 91748, Control_c, 0, 64, 32
1, 91763, Control_c, 0, 64, 60
1, 91777, Control_c, 0, 64, 65
1, 91792, Control_c, 0, 64, 69
1, 91807, Control_c, 0, 64, 75
1, 91817, Note_off_c, 0, 28, 61
1, 91822, Control_c, 0, 64, 84
1, 91837, Control_c, 0, 64, 107
1, 91851, Control_c, 0, 64, 127
1, 91901, Note_off_c, 0, 40, 50
1, 92375, Note_on_c, 0, 62, 63
1, 92384, Note_on_c, 0, 52, 56
1, 92389, Note_on_c, 0, 56, 55
1, 92435, Note_off_c, 0, 52, 55
1, 92461, Note_off_c, 0, 62, 56
1, 92558, Note_off_c, 0, 56, 36
1, 93207, Note_on_c, 0, 45, 70
1, 93214, Note_on_c, 0, 33, 60
1, 93289, Control_c, 0, 64, 94
1, 93303, Control_c, 0, 64, 75
1, 93318, Control_c, 0, 64, 60
1, 93333, Control_c, 0, 64, 0
1, 93436, Control_c, 0, 64, 38
1, 93451, Control_c, 0, 64, 59
1, 93466, Control_c, 0, 64, 64
1, 93480, Control_c, 0, 64, 67
1, 93495, Control_c, 0, 64, 70
1, 93510, Control_c, 0, 64, 76
1, 93525, Control_c, 0, 64, 85
1, 93527, Note_off_c, 0, 33, 61
1, 93536, Note_on_c, 0, 61, 70
1, 93540, Control_c, 0, 64, 100
1, 93553, Note_off_c, 0, 68, 56
1, 93555, Control_c, 0, 64, 127
1, 93573, Note_off_c, 0, 45, 59
1, 93761, Note_on_c, 0, 68, 80
1, 93781, Note_off_c, 0, 61, 60
1, 93829, Note_off_c, 0, 68, 62
1, 93936, Note_on_c, 0, 66, 82
1, 94079, Note_on_c, 0, 73, 86
1, 94124, Note_off_c, 0, 66, 56
1, 94240, Note_on_c, 0, 80, 79
1, 94258, Note_off_c, 0, 73, 60
1, 94262, Note_on_c, 0, 61, 44
1, 94282, Note_on_c, 0, 54, 35
1, 94284, Note_on_c, 0, 64, 33
1, 94315, Note_off_c, 0, 80, 64
1, 94419, Note_on_c, 0, 78, 74
1, 94560, Note_on_c, 0, 85, 72
1, 94597, Note_off_c, 0, 78, 52
1, 94660, Note_off_c, 0, 64, 36
1, 94711, Note_on_c, 0, 92, 73
1, 94713, Note_off_c, 0, 85, 57
1, 94795, Note_off_c, 0, 61, 29
1, 94819, Note_off_c, 0, 92, 61
1, 94820, Note_on_c, 0, 90, 69
1, 94869, Note_off_c, 0, 54, 40
1, 94899, Note_on_c, 0, 85, 70
1, 94915, Note_off_c, 0, 90, 54
1, 94947, Note_off_c, 0, 85, 52
1, 94985, Note_on_c, 0, 80, 60
1, 95003, Note_off_c, 0, 80, 64
1, 95024, Control_c, 0, 67, 19
1, 95039, Control_c, 0, 67, 27
1, 95054, Control_c, 0, 67, 32
1, 95069, Control_c, 0, 67, 35
1, 95078, Note_on_c, 0, 78, 60
1, 95083, Control_c, 0, 67, 37
1, 95098, Control_c, 0, 67, 40
1, 95113, Control_c, 0, 67, 42
1, 95127, Control_c, 0, 67, 44
1, 95142, Control_c, 0, 67, 45
1, 95150, Note_off_c, 0, 78, 54
1, 95152, Note_on_c, 0, 73, 61
1, 95157, Control_c, 0, 67, 45
1, 95195, Note_off_c, 0, 73, 57
1, 95224, Control_c, 0, 67, 45
1, 95236, Note_on_c, 0, 69, 58
1, 95253, Control_c, 0, 67, 44
1, 95272, Note_off_c, 0, 69, 61
1, 95298, Control_c, 0, 67, 44
1, 95316, Note_on_c, 0, 68, 64
1, 95457, Note_on_c, 0, 66, 69
1, 95475, Control_c, 0, 67, 44
1, 95490, Note_off_c, 0, 68, 38
1, 95497, Note_on_c, 0, 47, 46
1, 95498, Note_on_c, 0, 35, 42
1, 95505, Control_c, 0, 64, 92
1, 95520, Control_c, 0, 64, 74
1, 95534, Control_c, 0, 64, 64
1, 95549, Control_c, 0, 64, 38
1, 95564, Control_c, 0, 64, 0
1, 95639, Control_c, 0, 67, 45
1, 95654, Control_c, 0, 67, 45
1, 95683, Control_c, 0, 64, 54
1, 95698, Control_c, 0, 64, 62
1, 95710, Note_off_c, 0, 66, 61
1, 95713, Control_c, 0, 64, 65
1, 95713, Control_c, 0, 67, 46
1, 95724, Note_on_c, 0, 68, 49
1, 95728, Control_c, 0, 64, 68
1, 95728, Control_c, 0, 67, 46
1, 95743, Control_c, 0, 64, 73
1, 95743, Control_c, 0, 67, 47
1, 95757, Control_c, 0, 64, 81
1, 95772, Control_c, 0, 64, 89
1, 95778, Note_off_c, 0, 68, 58
1, 95787, Control_c, 0, 64, 101
1, 95787, Control_c, 0, 67, 46
1, 95793, Note_on_c, 0, 66, 50
1, 95802, Control_c, 0, 64, 127
1, 95802, Control_c, 0, 67, 46
1, 95832, Control_c, 0, 67, 46
1, 95838, Note_off_c, 0, 66, 63
1, 95847, Control_c, 0, 67, 47
1, 95861, Note_on_c, 0, 68, 52
1, 95912, Note_off_c, 0, 68, 61
1, 95930, Note_on_c, 0, 66, 61
1, 95943, Control_c, 0, 67, 48
1, 95957, Control_c, 0, 67, 49
1, 95972, Control_c, 0, 67, 55
1, 95975, Note_off_c, 0, 66, 59
1, 95987, Control_c, 0, 67, 64
1, 95995, Note_on_c, 0, 68, 55
1, 96002, Control_c, 0, 67, 70
1, 96017, Control_c, 0, 67, 73
1, 96032, Control_c, 0, 67, 75
1, 96047, Control_c, 0, 67, 75
1, 96050, Note_off_c, 0, 68, 63
1, 96061, Note_on_c, 0, 66, 55
1, 96061, Control_c, 0, 67, 76
1, 96076, Control_c, 0, 67, 77
1, 96091, Control_c, 0, 67, 80
1, 96105, Note_off_c, 0, 66, 64
1, 96106, Control_c, 0, 67, 82
1, 96115, Note_on_c, 0, 68, 52
1, 96121, Control_c, 0, 67, 84
1, 96136, Control_c, 0, 67, 84
1, 96150, Control_c, 0, 67, 85
1, 96172, Note_off_c, 0, 68, 62
1, 96183, Note_on_c, 0, 66, 57
1, 96195, Control_c, 0, 67, 85
1, 96210, Control_c, 0, 67, 86
1, 96224, Control_c, 0, 67, 86
1, 96231, Note_off_c, 0, 66, 64
1, 96238, Note_on_c, 0, 68, 54
1, 96239, Control_c, 0, 67, 88
1, 96254, Control_c, 0, 67, 92
1, 96269, Control_c, 0, 67, 98
1, 96283, Control_c, 0, 67, 106
1, 96294, Note_off_c, 0, 68, 62
1, 96298, Control_c, 0, 67, 113
1, 96311, Note_on_c, 0, 66, 53
1, 96313, Control_c, 0, 67, 120
1, 96328, Control_c, 0, 67, 127
1, 96351, Note_on_c, 0, 68, 48
1, 96351, Note_off_c, 0, 66, 62
1, 96414, Note_off_c, 0, 68, 60
1, 96418, Control_c, 0, 64, 113
1, 96425, Note_on_c, 0, 66, 51
1, 96433, Control_c, 0, 64, 83
1, 96447, Control_c, 0, 64, 68
1, 96462, Control_c, 0, 64, 40
1, 96477, Control_c, 0, 64, 0
1, 96619, Note_off_c, 0, 66, 60
1, 96622, Note_on_c, 0, 65, 54
1, 96918, Note_off_c, 0, 65, 52
1, 96926, Note_on_c, 0, 66, 53
1, 97032, Control_c, 0, 64, 8
1, 97047, Control_c, 0, 64, 55
1, 97062, Control_c, 0, 64, 63
1, 97077, Control_c, 0, 64, 67
1, 97092, Control_c, 0, 64, 72
1, 97106, Control_c, 0, 64, 77
1, 97121, Control_c, 0, 64, 81
1, 97136, Control_c, 0, 64, 87
1, 97150, Note_off_c, 0, 35, 42
1, 97151, Control_c, 0, 64, 94
1, 97166, Control_c, 0, 64, 105
1, 97180, Control_c, 0, 64, 127
1, 97201, Note_off_c, 0, 47, 60
1, 97491, Note_on_c, 0, 68, 47
1, 97530, Note_on_c, 0, 63, 31
1, 97531, Note_on_c, 0, 57, 37
1, 97561, Note_off_c, 0, 66, 38
1, 97584, Note_off_c, 0, 57, 50
1, 98275, Note_off_c, 0, 63, 43
1, 98321, Note_off_c, 0, 68, 37
1, 98880, Note_on_c, 0, 59, 48
1, 98887, Control_c, 0, 64, 96
1, 98901, Control_c, 0, 64, 79
1, 98923, Control_c, 0, 64, 66
1, 98938, Control_c, 0, 64, 36
1, 98953, Control_c, 0, 64, 0
1, 99194, Note_on_c, 0, 64, 47
1, 99212, Note_off_c, 0, 59, 44
1, 99222, Note_on_c, 0, 56, 23
1, 99224, Note_on_c, 0, 40, 37
1, 99486, Control_c, 0, 64, 35
1, 99501, Control_c, 0, 64, 57
1, 99516, Control_c, 0, 64, 63
1, 99531, Control_c, 0, 64, 64
1, 99546, Control_c, 0, 64, 65
1, 99561, Control_c, 0, 64, 67
1, 99575, Control_c, 0, 64, 69
1, 99591, Control_c, 0, 64, 72
1, 99597, Note_off_c, 0, 40, 42
1, 99606, Control_c, 0, 64, 75
1, 99621, Control_c, 0, 64, 78
1, 99636, Control_c, 0, 64, 81
1, 99651, Control_c, 0, 64, 84
1, 99672, Control_c, 0, 64, 86
1, 99687, Control_c, 0, 64, 89
1, 99702, Control_c, 0, 64, 90
1, 99717, Control_c, 0, 64, 91
1, 99731, Control_c, 0, 64, 93
1, 99746, Control_c, 0, 64, 95
1, 99761, Control_c, 0, 64, 97
1, 99776, Control_c, 0, 64, 100
1, 99791, Control_c, 0, 64, 102
1, 99806, Control_c, 0, 64, 103
1, 99820, Control_c, 0, 64, 103
1, 100110, Note_on_c, 0, 49, 35
1, 100131, Control_c, 0, 64, 103
1, 100176, Control_c, 0, 64, 102
1, 100205, Control_c, 0, 64, 102
1, 100405, Note_off_c, 0, 49, 40
1, 100406, Note_on_c, 0, 46, 47
1, 100436, Control_c, 0, 64, 101
1, 100601, Note_on_c, 0, 49, 48
1, 100609, Note_off_c, 0, 46, 41
1, 100734, Note_off_c, 0, 49, 52
1, 100747, Note_on_c, 0, 47, 47
1, 100865, Control_c, 0, 64, 101
1, 100872, Note_off_c, 0, 47, 44
1, 100901, Note_on_c, 0, 52, 45
1, 100941, Note_off_c, 0, 56, 41
1, 100986, Note_off_c, 0, 64, 42
1, 101028, Note_off_c, 0, 52, 38
1, 101040, Note_on_c, 0, 51, 49
1, 101159, Note_off_c, 0, 51, 48
1, 101182, Note_on_c, 0, 54, 46
1, 101293, Note_off_c, 0, 54, 54
1, 101314, Note_on_c, 0, 52, 52
1, 101455, Note_off_c, 0, 52, 34
1, 101460, Note_on_c, 0, 56, 47
1, 101525, Control_c, 0, 64, 100
1, 101585, Note_on_c, 0, 55, 51
1, 101629, Control_c, 0, 64, 100
1, 101649, Note_off_c, 0, 56, 36
1, 101688, Control_c, 0, 64, 99
1, 101703, Control_c, 0, 64, 99
1, 101718, Control_c, 0, 64, 97
1, 101731, Note_off_c, 0, 55, 35
1, 101733, Control_c, 0, 64, 93
1, 101748, Control_c, 0, 64, 87
1, 101755, Note_on_c, 0, 64, 60
1, 101761, Note_on_c, 0, 57, 52
1, 101762, Control_c, 0, 64, 78
1, 101777, Control_c, 0, 64, 69
1, 101792, Control_c, 0, 64, 59
1, 101807, Control_c, 0, 64, 0
1, 101819, Note_off_c, 0, 57, 0
1, 101856, Poly_aftertouch_c, 0, 57, 127
1, 101917, Poly_aftertouch_c, 0, 57, 0
1, 101928, Note_on_c, 0, 56, 46
1, 101933, Control_c, 0, 64, 42
1, 101948, Control_c, 0, 64, 60
1, 101963, Control_c, 0, 64, 63
1, 101977, Control_c, 0, 64, 65
1, 101993, Control_c, 0, 64, 67
1, 102008, Control_c, 0, 64, 70
1, 102023, Control_c, 0, 64, 74
1, 102037, Control_c, 0, 64, 77
1, 102052, Control_c, 0, 64, 81
1, 102063, Note_off_c, 0, 56, 57
1, 102067, Control_c, 0, 64, 84
1, 102080, Note_on_c, 0, 54, 43
1, 102082, Control_c, 0, 64, 86
1, 102097, Control_c, 0, 64, 88
1, 102111, Control_c, 0, 64, 89
1, 102224, Note_on_c, 0, 52, 49
1, 102226, Note_on_c, 0, 66, 58
1, 102237, Note_off_c, 0, 54, 33
1, 102246, Note_off_c, 0, 64, 42
1, 102253, Note_off_c, 0, 52, 62
1, 102333, Control_c, 0, 64, 88
1, 102363, Control_c, 0, 64, 88
1, 102393, Control_c, 0, 64, 87
1, 102408, Control_c, 0, 64, 87
1, 102423, Control_c, 0, 64, 85
1, 102437, Control_c, 0, 64, 84
1, 102447, Note_on_c, 0, 68, 58
1, 102449, Note_off_c, 0, 66, 38
1, 102452, Control_c, 0, 64, 81
1, 102461, Note_on_c, 0, 64, 39
1, 102467, Control_c, 0, 64, 76
1, 102470, Note_on_c, 0, 56, 35
1, 102482, Control_c, 0, 64, 70
1, 102485, Note_on_c, 0, 51, 32
1, 102497, Control_c, 0, 64, 62
1, 102511, Control_c, 0, 64, 25
1, 102526, Control_c, 0, 64, 0
1, 102726, Control_c, 0, 64, 47
1, 102741, Control_c, 0, 64, 60
1, 102756, Control_c, 0, 64, 63
1, 102771, Control_c, 0, 64, 64
1, 102786, Control_c, 0, 64, 65
1, 102801, Control_c, 0, 64, 68
1, 102816, Control_c, 0, 64, 70
1, 102831, Control_c, 0, 64, 72
1, 102846, Control_c, 0, 64, 73
1, 102850, Note_off_c, 0, 51, 40
1, 102860, Control_c, 0, 64, 75
1, 102861, Note_on_c, 0, 37, 46
1, 102875, Control_c, 0, 64, 76
1, 102890, Control_c, 0, 64, 78
1, 102905, Control_c, 0, 64, 79
1, 102920, Control_c, 0, 64, 80
1, 102934, Control_c, 0, 64, 81
1, 102964, Control_c, 0, 64, 81
1, 103017, Note_on_c, 0, 44, 39
1, 103026, Note_off_c, 0, 37, 34
1, 103093, Note_off_c, 0, 44, 56
1, 103153, Note_on_c, 0, 49, 34
1, 103196, Note_off_c, 0, 49, 46
1, 103282, Note_on_c, 0, 48, 49
1, 103422, Note_off_c, 0, 48, 56
1, 103442, Note_on_c, 0, 51, 48
1, 103474, Note_off_c, 0, 56, 37
1, 103505, Control_c, 0, 64, 81
1, 103579, Note_on_c, 0, 49, 53
1, 103601, Note_off_c, 0, 51, 34
1, 103606, Note_off_c, 0, 64, 34
1, 103663, Note_off_c, 0, 49, 57
1, 103708, Note_on_c, 0, 52, 53
1, 103821, Note_off_c, 0, 52, 57
1, 103840, Note_on_c, 0, 51, 47
1, 103960, Note_off_c, 0, 51, 51
1, 103970, Note_on_c, 0, 54, 51
1, 104091, Note_off_c, 0, 54, 52
1, 104101, Note_on_c, 0, 52, 48
1, 104180, Control_c, 0, 64, 80
1, 104239, Control_c, 0, 64, 80
1, 104269, Control_c, 0, 64, 79
1, 104281, Note_on_c, 0, 64, 64
1, 104284, Control_c, 0, 64, 77
1, 104289, Note_off_c, 0, 52, 42
1, 104298, Control_c, 0, 64, 74
1, 104313, Control_c, 0, 64, 70
1, 104314, Note_on_c, 0, 57, 42
1, 104328, Control_c, 0, 64, 62
1, 104339, Note_on_c, 0, 61, 43
1, 104343, Control_c, 0, 64, 23
1, 104358, Control_c, 0, 64, 0
1, 104363, Note_off_c, 0, 68, 58
1, 104477, Control_c, 0, 64, 54
1, 104490, Note_off_c, 0, 57, 54
1, 104492, Control_c, 0, 64, 62
1, 104503, Note_on_c, 0, 56, 40
1, 104507, Control_c, 0, 64, 65
1, 104521, Control_c, 0, 64, 66
1, 104536, Control_c, 0, 64, 68
1, 104551, Control_c, 0, 64, 71
1, 104566, Control_c, 0, 64, 74
1, 104581, Control_c, 0, 64, 77
1, 104596, Control_c, 0, 64, 80
1, 104611, Control_c, 0, 64, 82
1, 104626, Control_c, 0, 64, 86
1, 104635, Note_off_c, 0, 56, 52
1, 104640, Control_c, 0, 64, 90
1, 104652, Note_on_c, 0, 66, 69
1, 104655, Control_c, 0, 64, 95
1, 104664, Note_on_c, 0, 54, 39
1, 104670, Control_c, 0, 64, 102
1, 104685, Control_c, 0, 64, 113
1, 104700, Control_c, 0, 64, 127
1, 104704, Note_off_c, 0, 64, 52
1, 104824, Note_off_c, 0, 54, 36
1, 104837, Note_on_c, 0, 68, 75
1, 104867, Note_on_c, 0, 52, 41
1, 104888, Note_off_c, 0, 66, 49
1, 104967, Note_off_c, 0, 68, 60
1, 105165, Note_on_c, 0, 68, 72
1, 105197, Control_c, 0, 64, 119
1, 105199, Note_on_c, 0, 64, 50
1, 105210, Note_on_c, 0, 58, 41
1, 105211, Control_c, 0, 64, 106
1, 105226, Control_c, 0, 64, 95
1, 105234, Note_on_c, 0, 42, 40
1, 105241, Control_c, 0, 64, 85
1, 105243, Note_off_c, 0, 61, 37
1, 105251, Note_off_c, 0, 52, 41
1, 105256, Control_c, 0, 64, 74
1, 105270, Control_c, 0, 64, 65
1, 105285, Control_c, 0, 64, 37
1, 105300, Control_c, 0, 64, 0
1, 105640, Control_c, 0, 64, 36
1, 105662, Control_c, 0, 64, 48
1, 105673, Note_on_c, 0, 48, 40
1, 105677, Control_c, 0, 64, 55
1, 105692, Control_c, 0, 64, 59
1, 105707, Control_c, 0, 64, 62
1, 105722, Control_c, 0, 64, 63
1, 105736, Control_c, 0, 64, 65
1, 105751, Control_c, 0, 64, 67
1, 105766, Control_c, 0, 64, 71
1, 105781, Control_c, 0, 64, 74
1, 105795, Control_c, 0, 64, 77
1, 105809, Note_on_c, 0, 49, 47
1, 105810, Control_c, 0, 64, 80
1, 105825, Control_c, 0, 64, 82
1, 105831, Note_off_c, 0, 48, 36
1, 105840, Control_c, 0, 64, 84
1, 105854, Control_c, 0, 64, 86
1, 105869, Control_c, 0, 64, 87
1, 105884, Control_c, 0, 64, 88
1, 105894, Note_off_c, 0, 42, 51
1, 105918, Note_off_c, 0, 49, 55
1, 105951, Note_on_c, 0, 52, 52
1, 106015, Note_off_c, 0, 64, 35
1, 106019, Control_c, 0, 64, 87
1, 106063, Note_off_c, 0, 52, 58
1, 106078, Control_c, 0, 64, 87
1, 106084, Note_on_c, 0, 51, 46
1, 106107, Control_c, 0, 64, 86
1, 106122, Control_c, 0, 64, 86
1, 106152, Control_c, 0, 64, 85
1, 106166, Control_c, 0, 64, 85
1, 106196, Control_c, 0, 64, 84
1, 106208, Note_off_c, 0, 51, 38
1, 106229, Note_on_c, 0, 54, 40
1, 106240, Control_c, 0, 64, 84
1, 106284, Control_c, 0, 64, 83
1, 106314, Control_c, 0, 64, 83
1, 106358, Control_c, 0, 64, 82
1, 106359, Note_on_c, 0, 52, 43
1, 106369, Note_off_c, 0, 54, 39
1, 106410, Control_c, 0, 64, 82
1, 106440, Control_c, 0, 64, 81
1, 106484, Control_c, 0, 64, 81
1, 106514, Control_c, 0, 64, 80
1, 106529, Control_c, 0, 64, 79
1, 106544, Control_c, 0, 64, 77
1, 106558, Control_c, 0, 64, 73
1, 106563, Note_on_c, 0, 66, 56
1, 106573, Control_c, 0, 64, 69
1, 106588, Control_c, 0, 64, 64
1, 106594, Note_on_c, 0, 56, 37
1, 106596, Note_off_c, 0, 52, 43
1, 106597, Note_on_c, 0, 63, 28
1, 106603, Control_c, 0, 64, 53
1, 106608, Note_off_c, 0, 68, 58
1, 106617, Control_c, 0, 64, 0
1, 106826, Control_c, 0, 64, 46
1, 106840, Control_c, 0, 64, 59
1, 106855, Control_c, 0, 64, 63
1, 106870, Control_c, 0, 64, 65
1, 106885, Control_c, 0, 64, 68
1, 106900, Control_c, 0, 64, 70
1, 106905, Note_on_c, 0, 49, 38
1, 106915, Control_c, 0, 64, 73
1, 106930, Control_c, 0, 64, 75
1, 106945, Control_c, 0, 64, 77
1, 106960, Control_c, 0, 64, 79
1, 106975, Control_c, 0, 64, 81
1, 106989, Control_c, 0, 64, 82
1, 107004, Control_c, 0, 64, 83
1, 107004, Note_off_c, 0, 63, 44
1, 107076, Note_on_c, 0, 51, 38
1, 107089, Note_off_c, 0, 49, 36
1, 107189, Control_c, 0, 64, 82
1, 107204, Control_c, 0, 64, 82
1, 107219, Control_c, 0, 64, 81
1, 107233, Control_c, 0, 64, 80
1, 107248, Control_c, 0, 64, 78
1, 107263, Control_c, 0, 64, 76
1, 107270, Note_on_c, 0, 64, 52
1, 107278, Control_c, 0, 64, 72
1, 107283, Note_off_c, 0, 51, 39
1, 107293, Control_c, 0, 64, 66
1, 107297, Note_off_c, 0, 66, 37
1, 107303, Note_on_c, 0, 61, 39
1, 107305, Note_on_c, 0, 54, 35
1, 107307, Control_c, 0, 64, 59
1, 107322, Control_c, 0, 64, 25
1, 107337, Control_c, 0, 64, 0
1, 107344, Note_off_c, 0, 56, 31
1, 107455, Control_c, 0, 64, 37
1, 107470, Control_c, 0, 64, 59
1, 107485, Control_c, 0, 64, 63
1, 107487, Note_on_c, 0, 52, 40
1, 107495, Note_off_c, 0, 54, 38
1, 107500, Control_c, 0, 64, 65
1, 107514, Control_c, 0, 64, 67
1, 107529, Control_c, 0, 64, 69
1, 107544, Control_c, 0, 64, 72
1, 107559, Control_c, 0, 64, 75
1, 107575, Control_c, 0, 64, 78
1, 107590, Control_c, 0, 64, 80
1, 107604, Control_c, 0, 64, 82
1, 107619, Control_c, 0, 64, 83
1, 107634, Control_c, 0, 64, 83
1, 107648, Control_c, 0, 64, 84
1, 107651, Note_off_c, 0, 61, 53
1, 107660, Note_off_c, 0, 64, 57
1, 107679, Note_on_c, 0, 56, 34
1, 107766, Note_off_c, 0, 52, 23
1, 107842, Note_off_c, 0, 56, 38
1, 107845, Note_on_c, 0, 54, 26
1, 107856, Control_c, 0, 64, 83
1, 107908, Control_c, 0, 64, 83
1, 107952, Control_c, 0, 64, 82
1, 107982, Control_c, 0, 64, 82
1, 108012, Control_c, 0, 64, 81
1, 108027, Control_c, 0, 64, 81
1, 108056, Control_c, 0, 64, 80
1, 108071, Control_c, 0, 64, 79
1, 108078, Note_off_c, 0, 54, 40
1, 108086, Control_c, 0, 64, 78
1, 108090, Note_on_c, 0, 52, 38
1, 108090, Note_on_c, 0, 57, 32
1, 108101, Control_c, 0, 64, 76
1, 108116, Control_c, 0, 64, 74
1, 108130, Control_c, 0, 64, 71
1, 108145, Control_c, 0, 64, 66
1, 108147, Note_on_c, 0, 73, 69
1, 108160, Control_c, 0, 64, 61
1, 108175, Note_off_c, 0, 58, 51
1, 108175, Control_c, 0, 64, 44
1, 108189, Control_c, 0, 64, 0
1, 108228, Note_on_c, 0, 66, 25
1, 108398, Control_c, 0, 64, 17
1, 108412, Control_c, 0, 64, 46
1, 108427, Control_c, 0, 64, 57
1, 108442, Control_c, 0, 64, 62
1, 108457, Control_c, 0, 64, 64
1, 108462, Note_on_c, 0, 51, 37
1, 108468, Note_off_c, 0, 52, 41
1, 108471, Control_c, 0, 64, 65
1, 108486, Control_c, 0, 64, 67
1, 108501, Control_c, 0, 64, 69
1, 108516, Control_c, 0, 64, 72
1, 108531, Control_c, 0, 64, 74
1, 108546, Control_c, 0, 64, 76
1, 108560, Control_c, 0, 64, 78
1, 108573, Note_off_c, 0, 51, 54
1, 108575, Control_c, 0, 64, 80
1, 108590, Control_c, 0, 64, 82
1, 108605, Control_c, 0, 64, 83
1, 108620, Control_c, 0, 64, 84
1, 108635, Control_c, 0, 64, 84
1, 108636, Note_on_c, 0, 49, 36
1, 108751, Note_off_c, 0, 49, 54
1, 108805, Note_on_c, 0, 52, 44
1, 108938, Note_on_c, 0, 71, 55
1, 108943, Note_off_c, 0, 52, 55
1, 108960, Note_on_c, 0, 51, 45
1, 108973, Note_off_c, 0, 73, 57
1, 109042, Note_off_c, 0, 51, 47
1, 109105, Note_on_c, 0, 49, 38
1, 109110, Note_off_c, 0, 71, 0
1, 109142, Note_on_c, 0, 71, 7
1, 109160, Control_c, 0, 64, 84
1, 109162, Note_off_c, 0, 49, 54
1, 109208, Note_on_c, 0, 47, 46
1, 109221, Control_c, 0, 64, 83
1, 109245, Note_off_c, 0, 66, 47
1, 109265, Control_c, 0, 64, 83
1, 109294, Note_off_c, 0, 57, 0
1, 109309, Control_c, 0, 64, 82
1, 109319, Note_off_c, 0, 47, 50
1, 109331, Poly_aftertouch_c, 0, 57, 127
1, 109343, Note_on_c, 0, 51, 40
1, 109369, Control_c, 0, 64, 82
1, 109421, Control_c, 0, 64, 81
1, 109435, Control_c, 0, 64, 80
1, 109450, Control_c, 0, 64, 78
1, 109465, Control_c, 0, 64, 73
1, 109475, Note_on_c, 0, 64, 64
1, 109480, Control_c, 0, 64, 66
1, 109484, Note_on_c, 0, 49, 41
1, 109487, Note_off_c, 0, 51, 36
1, 109495, Control_c, 0, 64, 49
1, 109509, Control_c, 0, 64, 0
1, 109583, Control_c, 0, 64, 47
1, 109592, Note_off_c, 0, 49, 56
1, 109598, Control_c, 0, 64, 60
1, 109613, Control_c, 0, 64, 64
1, 109628, Control_c, 0, 64, 67
1, 109638, Note_on_c, 0, 47, 44
1, 109642, Control_c, 0, 64, 70
1, 109657, Control_c, 0, 64, 72
1, 109672, Control_c, 0, 64, 75
1, 109687, Control_c, 0, 64, 77
1, 109702, Control_c, 0, 64, 78
1, 109717, Control_c, 0, 64, 78
1, 109732, Control_c, 0, 64, 79
1, 109762, Note_off_c, 0, 64, 57
1, 109771, Note_on_c, 0, 46, 49
1, 109786, Note_off_c, 0, 47, 34
1, 109876, Note_off_c, 0, 46, 50
1, 109919, Note_on_c, 0, 49, 25
1, 109939, Control_c, 0, 64, 78
1, 109953, Control_c, 0, 64, 78
1, 109968, Control_c, 0, 64, 77
1, 109985, Control_c, 0, 64, 76
1, 109999, Control_c, 0, 64, 73
1, 110014, Control_c, 0, 64, 69
1, 110029, Control_c, 0, 64, 65
1, 110041, Note_on_c, 0, 66, 55
1, 110041, Note_off_c, 0, 49, 52
1, 110044, Control_c, 0, 64, 57
1, 110058, Control_c, 0, 64, 0
1, 110059, Note_on_c, 0, 63, 47
1, 110073, Note_on_c, 0, 47, 32
1, 110184, Control_c, 0, 64, 32
1, 110199, Control_c, 0, 64, 58
1, 110214, Control_c, 0, 64, 64
1, 110229, Control_c, 0, 64, 66
1, 110244, Control_c, 0, 64, 67
1, 110258, Control_c, 0, 64, 69
1, 110273, Control_c, 0, 64, 72
1, 110275, Note_on_c, 0, 42, 32
1, 110288, Control_c, 0, 64, 74
1, 110303, Control_c, 0, 64, 76
1, 110318, Control_c, 0, 64, 77
1, 110332, Control_c, 0, 64, 79
1, 110347, Control_c, 0, 64, 80
1, 110362, Control_c, 0, 64, 81
1, 110376, Control_c, 0, 64, 82
1, 110387, Note_off_c, 0, 47, 32
1, 110391, Control_c, 0, 64, 82
1, 110409, Note_off_c, 0, 71, 42
1, 110477, Note_on_c, 0, 68, 53
1, 110483, Note_on_c, 0, 37, 40
1, 110495, Note_off_c, 0, 42, 40
1, 110599, Control_c, 0, 64, 82
1, 110674, Control_c, 0, 64, 81
1, 110692, Note_off_c, 0, 37, 40
1, 110692, Note_on_c, 0, 69, 61
1, 110698, Note_on_c, 0, 35, 34
1, 110733, Control_c, 0, 64, 81
1, 110746, Note_off_c, 0, 69, 52
1, 110767, Poly_aftertouch_c, 0, 57, 0
1, 110779, Note_off_c, 0, 63, 38
1, 110808, Control_c, 0, 64, 80
1, 110832, Note_off_c, 0, 68, 34
1, 110868, Control_c, 0, 64, 80
1, 110877, Note_off_c, 0, 66, 41
1, 110934, Control_c, 0, 64, 79
1, 110978, Control_c, 0, 64, 79
1, 111008, Control_c, 0, 64, 78
1, 111023, Control_c, 0, 64, 78
1, 111038, Control_c, 0, 64, 76
1, 111052, Control_c, 0, 64, 74
1, 111063, Note_on_c, 0, 69, 41
1, 111067, Control_c, 0, 64, 71
1, 111078, Note_on_c, 0, 28, 41
1, 111079, Note_on_c, 0, 61, 39
1, 111082, Control_c, 0, 64, 66
1, 111084, Note_on_c, 0, 64, 32
1, 111086, Note_off_c, 0, 35, 25
1, 111097, Control_c, 0, 64, 61
1, 111112, Control_c, 0, 64, 35
1, 111127, Control_c, 0, 64, 0
1, 111245, Control_c, 0, 64, 35
1, 111260, Control_c, 0, 64, 56
1, 111274, Control_c, 0, 64, 62
1, 111289, Control_c, 0, 64, 64
1, 111304, Control_c, 0, 64, 66
1, 111319, Control_c, 0, 64, 69
1, 111333, Control_c, 0, 64, 72
1, 111348, Control_c, 0, 64, 75
1, 111357, Note_off_c, 0, 28, 41
1, 111363, Control_c, 0, 64, 78
1, 111378, Control_c, 0, 64, 81
1, 111393, Control_c, 0, 64, 84
1, 111407, Control_c, 0, 64, 87
1, 111416, Note_off_c, 0, 61, 53
1, 111422, Control_c, 0, 64, 90
1, 111437, Control_c, 0, 64, 91
1, 111452, Control_c, 0, 64, 92
1, 111697, Control_c, 0, 64, 92
1, 111711, Control_c, 0, 64, 91
1, 111741, Control_c, 0, 64, 91
1, 111756, Control_c, 0, 64, 90
1, 111771, Control_c, 0, 64, 89
1, 111786, Note_on_c, 0, 59, 39
1, 111786, Control_c, 0, 64, 87
1, 111788, Note_on_c, 0, 68, 48
1, 111801, Control_c, 0, 64, 84
1, 111816, Control_c, 0, 64, 80
1, 111830, Control_c, 0, 64, 75
1, 111845, Control_c, 0, 64, 69
1, 111860, Control_c, 0, 64, 63
1, 111875, Control_c, 0, 64, 50
1, 111880, Note_off_c, 0, 69, 30
1, 111884, Note_off_c, 0, 59, 0
1, 111884, Note_on_c, 0, 59, 3
1, 111890, Control_c, 0, 64, 0
1, 111978, Control_c, 0, 64, 32
1, 111987, Note_on_c, 0, 47, 33
1, 111993, Control_c, 0, 64, 49
1, 112008, Control_c, 0, 64, 57
1, 112022, Control_c, 0, 64, 61
1, 112037, Control_c, 0, 64, 62
1, 112052, Control_c, 0, 64, 64
1, 112067, Control_c, 0, 64, 66
1, 112082, Control_c, 0, 64, 68
1, 112096, Control_c, 0, 64, 70
1, 112111, Control_c, 0, 64, 72
1, 112126, Control_c, 0, 64, 74
1, 112141, Control_c, 0, 64, 75
1, 112155, Control_c, 0, 64, 77
1, 112170, Control_c, 0, 64, 79
1, 112173, Note_on_c, 0, 51, 36
1, 112185, Control_c, 0, 64, 81
1, 112200, Control_c, 0, 64, 83
1, 112215, Control_c, 0, 64, 85
1, 112230, Control_c, 0, 64, 87
1, 112245, Control_c, 0, 64, 90
1, 112260, Control_c, 0, 64, 94
1, 112275, Control_c, 0, 64, 99
1, 112290, Control_c, 0, 64, 105
1, 112304, Control_c, 0, 64, 113
1, 112319, Control_c, 0, 64, 127
1, 112330, Note_off_c, 0, 64, 38
1, 112337, Note_on_c, 0, 49, 44
1, 112349, Note_off_c, 0, 59, 28
1, 112373, Note_off_c, 0, 51, 38
1, 112422, Note_off_c, 0, 68, 41
1, 112445, Note_off_c, 0, 49, 57
1, 112448, Note_off_c, 0, 47, 42
1, 112480, Note_on_c, 0, 52, 47
1, 112614, Note_off_c, 0, 52, 61
1, 112626, Note_on_c, 0, 51, 47
1, 112757, Note_off_c, 0, 51, 51
1, 112759, Note_on_c, 0, 54, 52
1, 112845, Control_c, 0, 67, 122
1, 112860, Control_c, 0, 67, 106
1, 112875, Control_c, 0, 67, 94
1, 112886, Note_off_c, 0, 54, 57
1, 112890, Control_c, 0, 67, 81
1, 112892, Note_on_c, 0, 52, 55
1, 112905, Control_c, 0, 67, 70
1, 112919, Control_c, 0, 67, 59
1, 112934, Control_c, 0, 67, 49
1, 112949, Control_c, 0, 67, 39
1, 112964, Control_c, 0, 67, 32
1, 112978, Control_c, 0, 67, 26
1, 112993, Control_c, 0, 67, 21
1, 113008, Control_c, 0, 67, 17
1, 113015, Note_on_c, 0, 64, 67
1, 113023, Control_c, 0, 67, 14
1, 113038, Control_c, 0, 67, 10
1, 113053, Control_c, 0, 67, 0
1, 113082, Note_on_c, 0, 56, 29
1, 113194, Note_on_c, 0, 54, 38
1, 113205, Note_off_c, 0, 56, 36
1, 113257, Note_off_c, 0, 54, 37
1, 113258, Note_on_c, 0, 68, 57
1, 113328, Note_on_c, 0, 76, 81
1, 113342, Control_c, 0, 64, 113
1, 113356, Note_off_c, 0, 52, 41
1, 113357, Control_c, 0, 64, 92
1, 113369, Note_on_c, 0, 57, 45
1, 113372, Control_c, 0, 64, 77
1, 113387, Control_c, 0, 64, 67
1, 113401, Control_c, 0, 64, 52
1, 113416, Control_c, 0, 64, 0
1, 113476, Control_c, 0, 64, 38
1, 113491, Control_c, 0, 64, 60
1, 113503, Note_off_c, 0, 57, 53
1, 113506, Control_c, 0, 64, 66
1, 113516, Note_on_c, 0, 56, 46
1, 113521, Control_c, 0, 64, 70
1, 113536, Control_c, 0, 64, 74
1, 113550, Control_c, 0, 64, 77
1, 113565, Control_c, 0, 64, 82
1, 113580, Control_c, 0, 64, 88
1, 113594, Control_c, 0, 64, 96
1, 113609, Control_c, 0, 64, 108
1, 113624, Control_c, 0, 64, 127
1, 113643, Note_off_c, 0, 56, 58
1, 113656, Note_on_c, 0, 54, 52
1, 113663, Note_off_c, 0, 76, 57
1, 113779, Note_off_c, 0, 54, 38
1, 113795, Note_on_c, 0, 76, 85
1, 113825, Note_on_c, 0, 52, 57
1, 113858, Note_off_c, 0, 52, 66
1, 113972, Note_off_c, 0, 64, 56
1, 114032, Note_off_c, 0, 68, 58
1, 114085, Note_on_c, 0, 51, 39
1, 114088, Note_off_c, 0, 76, 54
1, 114156, Note_on_c, 0, 64, 60
1, 114197, Note_on_c, 0, 68, 52
1, 114224, Control_c, 0, 64, 103
1, 114239, Control_c, 0, 64, 88
1, 114254, Control_c, 0, 64, 75
1, 114263, Note_on_c, 0, 76, 77
1, 114269, Control_c, 0, 64, 63
1, 114284, Control_c, 0, 64, 0
1, 114448, Control_c, 0, 64, 34
1, 114463, Control_c, 0, 64, 57
1, 114478, Control_c, 0, 64, 63
1, 114492, Control_c, 0, 64, 67
1, 114507, Control_c, 0, 64, 72
1, 114522, Control_c, 0, 64, 76
1, 114537, Control_c, 0, 64, 81
1, 114551, Control_c, 0, 64, 89
1, 114566, Control_c, 0, 64, 97
1, 114581, Control_c, 0, 64, 110
1, 114596, Control_c, 0, 64, 127
1, 114623, Note_off_c, 0, 64, 43
1, 114653, Note_off_c, 0, 76, 59
1, 114681, Note_on_c, 0, 37, 45
1, 114692, Note_off_c, 0, 68, 40
1, 114829, Note_off_c, 0, 51, 38
1, 114856, Note_on_c, 0, 44, 41
1, 115002, Note_off_c, 0, 37, 44
1, 115024, Note_off_c, 0, 44, 36
1, 115039, Note_on_c, 0, 51, 41
1, 115067, Note_on_c, 0, 78, 73
1, 115240, Note_on_c, 0, 76, 73
1, 115260, Note_on_c, 0, 49, 48
1, 115277, Note_off_c, 0, 78, 61
1, 115292, Note_off_c, 0, 51, 35
1, 115357, Note_off_c, 0, 49, 58
1, 115369, Note_on_c, 0, 73, 69
1, 115374, Control_c, 0, 67, 8
1, 115395, Note_on_c, 0, 52, 54
1, 115396, Control_c, 0, 67, 11
1, 115411, Control_c, 0, 67, 12
1, 115426, Control_c, 0, 67, 13
1, 115441, Control_c, 0, 67, 14
1, 115470, Control_c, 0, 67, 15
1, 115476, Note_off_c, 0, 76, 34
1, 115479, Note_off_c, 0, 73, 58
1, 115485, Control_c, 0, 67, 15
1, 115493, Note_off_c, 0, 52, 60
1, 115496, Note_on_c, 0, 68, 72
1, 115515, Control_c, 0, 67, 16
1, 115521, Note_off_c, 0, 68, 66
1, 115524, Note_on_c, 0, 51, 43
1, 115530, Control_c, 0, 67, 16
1, 115575, Control_c, 0, 67, 17
1, 115604, Control_c, 0, 67, 17
1, 115679, Control_c, 0, 67, 18
1, 115679, Note_on_c, 0, 54, 42
1, 115685, Note_off_c, 0, 51, 41
1, 115687, Note_on_c, 0, 68, 59
1, 115694, Control_c, 0, 64, 109
1, 115703, Note_on_c, 0, 61, 46
1, 115709, Control_c, 0, 64, 81
1, 115709, Control_c, 0, 67, 18
1, 115724, Control_c, 0, 64, 67
1, 115724, Control_c, 0, 67, 19
1, 115738, Control_c, 0, 64, 47
1, 115738, Control_c, 0, 67, 21
1, 115753, Control_c, 0, 64, 0
1, 115753, Control_c, 0, 67, 25
1, 115756, Note_off_c, 0, 61, 0
1, 115756, Note_on_c, 0, 61, 13
1, 115768, Control_c, 0, 67, 27
1, 115783, Control_c, 0, 67, 29
1, 115797, Control_c, 0, 67, 31
1, 115812, Control_c, 0, 67, 33
1, 115827, Control_c, 0, 67, 37
1, 115837, Note_on_c, 0, 52, 43
1, 115842, Control_c, 0, 67, 41
1, 115857, Control_c, 0, 64, 37
1, 115857, Control_c, 0, 67, 45
1, 115863, Note_off_c, 0, 54, 35
1, 115871, Control_c, 0, 64, 58
1, 115871, Control_c, 0, 67, 48
1, 115886, Control_c, 0, 64, 64
1, 115886, Control_c, 0, 67, 51
1, 115900, Control_c, 0, 64, 67
1, 115900, Control_c, 0, 67, 53
1, 115914, Control_c, 0, 64, 71
1, 115914, Control_c, 0, 67, 56
1, 115929, Control_c, 0, 64, 74
1, 115929, Control_c, 0, 67, 59
1, 115935, Note_off_c, 0, 52, 57
1, 115944, Control_c, 0, 64, 78
1, 115944, Control_c, 0, 67, 60
1, 115959, Control_c, 0, 64, 82
1, 115972, Note_on_c, 0, 66, 71
1, 115974, Note_on_c, 0, 57, 47
1, 115974, Control_c, 0, 64, 85
1, 115989, Control_c, 0, 64, 88
1, 116004, Control_c, 0, 64, 90
1, 116004, Control_c, 0, 67, 60
1, 116019, Control_c, 0, 64, 91
1, 116034, Control_c, 0, 64, 92
1, 116048, Control_c, 0, 64, 92
1, 116063, Control_c, 0, 64, 93
1, 116078, Note_off_c, 0, 68, 36
1, 116096, Note_on_c, 0, 64, 71
1, 116097, Note_off_c, 0, 61, 37
1, 116105, Note_off_c, 0, 57, 36
1, 116120, Note_on_c, 0, 56, 47
1, 116120, Note_off_c, 0, 66, 54
1, 116122, Control_c, 0, 67, 61
1, 116144, Control_c, 0, 67, 61
1, 116174, Control_c, 0, 67, 63
1, 116189, Control_c, 0, 67, 67
1, 116203, Control_c, 0, 67, 73
1, 116218, Control_c, 0, 67, 79
1, 116233, Control_c, 0, 64, 91
1, 116233, Control_c, 0, 67, 86
1, 116247, Note_on_c, 0, 63, 68
1, 116248, Control_c, 0, 64, 87
1, 116248, Control_c, 0, 67, 95
1, 116251, Note_off_c, 0, 64, 51
1, 116263, Control_c, 0, 64, 78
1, 116263, Control_c, 0, 67, 105
1, 116278, Control_c, 0, 64, 66
1, 116278, Control_c, 0, 67, 116
1, 116280, Note_on_c, 0, 61, 48
1, 116281, Note_on_c, 0, 55, 43
1, 116292, Note_off_c, 0, 56, 31
1, 116293, Control_c, 0, 64, 42
1, 116293, Control_c, 0, 67, 127
1, 116308, Control_c, 0, 64, 0
1, 116355, Note_off_c, 0, 55, 61
1, 116367, Control_c, 0, 64, 17
1, 116382, Control_c, 0, 64, 60
1, 116392, Note_on_c, 0, 64, 62
1, 116397, Control_c, 0, 64, 66
1, 116407, Note_on_c, 0, 56, 45
1, 116412, Control_c, 0, 64, 68
1, 116427, Control_c, 0, 64, 70
1, 116442, Control_c, 0, 64, 71
1, 116457, Control_c, 0, 64, 73
1, 116472, Control_c, 0, 64, 75
1, 116487, Control_c, 0, 64, 75
1, 116530, Note_off_c, 0, 56, 55
1, 116531, Control_c, 0, 64, 72
1, 116545, Control_c, 0, 64, 65
1, 116546, Note_on_c, 0, 66, 62
1, 116554, Note_on_c, 0, 52, 52
1, 116560, Control_c, 0, 64, 44
1, 116575, Control_c, 0, 64, 0
1, 116579, Note_off_c, 0, 64, 38
1, 116580, Note_off_c, 0, 61, 57
1, 116619, Control_c, 0, 64, 51
1, 116627, Note_off_c, 0, 63, 35
1, 116634, Control_c, 0, 64, 64
1, 116649, Control_c, 0, 64, 68
1, 116664, Control_c, 0, 64, 69
1, 116679, Control_c, 0, 64, 70
1, 116693, Note_on_c, 0, 67, 57
1, 116693, Control_c, 0, 64, 71
1, 116697, Note_off_c, 0, 52, 58
1, 116708, Control_c, 0, 64, 72
1, 116712, Note_on_c, 0, 64, 28
1, 116713, Note_on_c, 0, 49, 40
1, 116723, Control_c, 0, 64, 72
1, 116731, Note_on_c, 0, 57, 33
1, 116731, Note_off_c, 0, 66, 28
1, 116752, Control_c, 0, 64, 73
1, 116758, Note_off_c, 0, 64, 46
1, 116767, Note_off_c, 0, 57, 50
1, 116797, Note_off_c, 0, 67, 38
1, 116841, Control_c, 0, 64, 72
1, 116856, Control_c, 0, 64, 69
1, 116871, Control_c, 0, 64, 64
1, 116893, Control_c, 0, 64, 43
1, 116904, Note_off_c, 0, 49, 51
1, 116908, Control_c, 0, 64, 0
1, 116913, Note_on_c, 0, 67, 55
1, 116927, Note_on_c, 0, 44, 45
1, 117011, Note_off_c, 0, 67, 54
1, 117035, Note_on_c, 0, 68, 55
1, 117053, Note_on_c, 0, 63, 39
1, 117058, Note_on_c, 0, 60, 38
1, 117205, Control_c, 0, 64, 44
1, 117212, Note_off_c, 0, 44, 60
1, 117218, Note_on_c, 0, 51, 45
1, 117220, Control_c, 0, 64, 62
1, 117222, Note_off_c, 0, 60, 59
1, 117234, Note_off_c, 0, 63, 57
1, 117235, Control_c, 0, 64, 68
1, 117238, Note_off_c, 0, 68, 63
1, 117250, Control_c, 0, 64, 73
1, 117265, Control_c, 0, 64, 78
1, 117280, Control_c, 0, 64, 81
1, 117294, Control_c, 0, 64, 84
1, 117309, Control_c, 0, 64, 88
1, 117324, Control_c, 0, 64, 95
1, 117339, Control_c, 0, 64, 107
1, 117342, Note_off_c, 0, 51, 48
1, 117349, Note_on_c, 0, 56, 48
1, 117354, Control_c, 0, 64, 127
1, 117432, Note_off_c, 0, 56, 59
1, 117472, Note_on_c, 0, 60, 46
1, 117595, Note_off_c, 0, 60, 43
1, 117613, Note_on_c, 0, 55, 47
1, 117615, Note_on_c, 0, 61, 49
1, 117658, Control_c, 0, 64, 104
1, 117673, Control_c, 0, 64, 85
1, 117688, Control_c, 0, 64, 70
1, 117702, Control_c, 0, 64, 56
1, 117717, Control_c, 0, 64, 0
1, 117748, Note_on_c, 0, 64, 53
1, 117776, Control_c, 0, 64, 52
1, 117791, Control_c, 0, 64, 64
1, 117806, Control_c, 0, 64, 68
1, 117821, Control_c, 0, 64, 72
1, 117834, Note_off_c, 0, 61, 61
1, 117836, Control_c, 0, 64, 76
1, 117849, Note_off_c, 0, 55, 64
1, 117850, Control_c, 0, 64, 81
1, 117865, Control_c, 0, 64, 86
1, 117875, Note_on_c, 0, 69, 63
1, 117880, Control_c, 0, 64, 92
1, 117894, Control_c, 0, 64, 100
1, 117909, Control_c, 0, 64, 109
1, 117924, Control_c, 0, 64, 120
1, 117939, Control_c, 0, 64, 127
1, 117980, Note_on_c, 0, 76, 68
1, 118002, Note_on_c, 0, 73, 50
1, 118013, Note_off_c, 0, 76, 62
1, 118026, Note_off_c, 0, 73, 61
1, 118068, Note_off_c, 0, 64, 40
1, 118103, Control_c, 0, 64, 109
1, 118114, Note_on_c, 0, 72, 55
1, 118117, Control_c, 0, 64, 88
1, 118124, Note_on_c, 0, 75, 63
1, 118132, Control_c, 0, 64, 71
1, 118141, Note_on_c, 0, 44, 47
1, 118147, Note_off_c, 0, 69, 37
1, 118147, Control_c, 0, 64, 50
1, 118162, Control_c, 0, 64, 0
1, 118207, Control_c, 0, 64, 56
1, 118222, Control_c, 0, 64, 70
1, 118236, Control_c, 0, 64, 83
1, 118251, Control_c, 0, 64, 104
1, 118254, Note_on_c, 0, 51, 58
1, 118257, Note_off_c, 0, 44, 59
1, 118266, Control_c, 0, 64, 127
1, 118310, Control_c, 0, 67, 95
1, 118325, Control_c, 0, 67, 48
1, 118340, Control_c, 0, 67, 0
1, 118397, Note_on_c, 0, 56, 59
1, 118403, Note_on_c, 0, 68, 51
1, 118408, Note_off_c, 0, 51, 49
1, 118423, Note_off_c, 0, 72, 38
1, 118435, Note_on_c, 0, 63, 12
1, 118445, Note_off_c, 0, 68, 60
1, 118460, Note_off_c, 0, 75, 62
1, 118480, Note_off_c, 0, 63, 42
1, 118484, Note_off_c, 0, 56, 60
1, 118502, Note_on_c, 0, 60, 58
1, 118632, Note_off_c, 0, 60, 61
1, 118633, Note_on_c, 0, 55, 62
1, 118633, Note_on_c, 0, 61, 69
1, 118673, Control_c, 0, 64, 82
1, 118688, Control_c, 0, 64, 65
1, 118703, Control_c, 0, 64, 41
1, 118717, Control_c, 0, 64, 0
1, 118732, Control_c, 0, 64, 48
1, 118747, Control_c, 0, 64, 66
1, 118751, Note_on_c, 0, 64, 73
1, 118763, Control_c, 0, 64, 85
1, 118778, Control_c, 0, 64, 127
1, 118840, Note_off_c, 0, 61, 62
1, 118846, Note_off_c, 0, 55, 63
1, 118873, Note_on_c, 0, 69, 79
1, 118978, Note_on_c, 0, 76, 78
1, 119009, Note_on_c, 0, 73, 47
1, 119031, Note_off_c, 0, 76, 64
1, 119033, Note_off_c, 0, 73, 60
1, 119091, Note_off_c, 0, 64, 59
1, 119145, Note_on_c, 0, 72, 67
1, 119146, Note_on_c, 0, 75, 81
1, 119161, Note_on_c, 0, 32, 65
1, 119169, Control_c, 0, 64, 74
1, 119178, Note_off_c, 0, 69, 63
1, 119184, Control_c, 0, 64, 25
1, 119199, Control_c, 0, 64, 0
1, 119243, Control_c, 0, 64, 61
1, 119258, Control_c, 0, 64, 76
1, 119273, Control_c, 0, 64, 127
1, 119274, Note_on_c, 0, 44, 64
1, 119279, Note_off_c, 0, 32, 62
1, 119301, Note_off_c, 0, 72, 65
1, 119304, Note_off_c, 0, 44, 65
1, 119406, Note_on_c, 0, 51, 67
1, 119533, Note_on_c, 0, 63, 81
1, 119560, Note_on_c, 0, 60, 59
1, 119595, Note_off_c, 0, 51, 57
1, 119597, Note_off_c, 0, 60, 60
1, 119644, Note_off_c, 0, 63, 59
1, 119678, Note_on_c, 0, 66, 80
1, 119713, Note_off_c, 0, 75, 57
1, 119721, Note_off_c, 0, 66, 65
1, 119803, Note_on_c, 0, 69, 81
1, 119977, Note_on_c, 0, 72, 83
1, 120010, Note_off_c, 0, 69, 63
1, 120120, Note_off_c, 0, 72, 61
1, 120520, Note_on_c, 0, 81, 88
1, 120621, Note_off_c, 0, 81, 55
1, 120723, Note_on_c, 0, 81, 84
1, 120979, Note_on_c, 0, 75, 76
1, 121032, Note_off_c, 0, 81, 51
1, 121121, Note_on_c, 0, 78, 78
1, 121167, Note_off_c, 0, 75, 59
1, 121222, Note_off_c, 0, 78, 61
1, 121256, Note_on_c, 0, 69, 65
1, 121349, Note_off_c, 0, 69, 60
1, 121384, Note_on_c, 0, 75, 71
1, 121502, Note_on_c, 0, 66, 69
1, 121539, Note_off_c, 0, 75, 54
1, 121613, Note_on_c, 0, 69, 69
1, 121655, Note_off_c, 0, 66, 48
1, 121673, Note_off_c, 0, 69, 61
1, 121739, Note_on_c, 0, 61, 62
1, 121764, Note_off_c, 0, 61, 61
1, 121905, Note_on_c, 0, 64, 62
1, 121933, Control_c, 0, 64, 102
1, 121948, Control_c, 0, 64, 72
1, 121964, Control_c, 0, 64, 47
1, 121979, Control_c, 0, 64, 0
1, 122053, Control_c, 0, 64, 27
1, 122059, Note_on_c, 0, 57, 47
1, 122061, Note_on_c, 0, 54, 37
1, 122068, Control_c, 0, 64, 55
1, 122082, Control_c, 0, 64, 62
1, 122097, Control_c, 0, 64, 65
1, 122112, Control_c, 0, 64, 70
1, 122135, Control_c, 0, 64, 76
1, 122150, Control_c, 0, 64, 84
1, 122164, Control_c, 0, 64, 99
1, 122179, Control_c, 0, 64, 127
1, 122194, Note_on_c, 0, 63, 65
1, 122200, Note_off_c, 0, 64, 52
1, 122310, Note_on_c, 0, 61, 65
1, 122344, Note_off_c, 0, 61, 58
1, 122347, Note_off_c, 0, 63, 26
1, 122480, Note_on_c, 0, 60, 63
1, 122483, Note_off_c, 0, 54, 38
1, 122492, Note_on_c, 0, 39, 47
1, 122504, Note_off_c, 0, 57, 39
1, 122520, Control_c, 0, 64, 86
1, 122535, Control_c, 0, 64, 68
1, 122550, Control_c, 0, 64, 47
1, 122564, Control_c, 0, 64, 0
1, 122625, Note_on_c, 0, 57, 43
1, 122638, Control_c, 0, 64, 49
1, 122640, Note_on_c, 0, 54, 36
1, 122653, Control_c, 0, 64, 61
1, 122668, Control_c, 0, 64, 64
1, 122682, Control_c, 0, 64, 67
1, 122697, Control_c, 0, 64, 70
1, 122712, Control_c, 0, 64, 74
1, 122727, Control_c, 0, 64, 79
1, 122742, Control_c, 0, 64, 85
1, 122758, Control_c, 0, 64, 91
1, 122773, Control_c, 0, 64, 96
1, 122786, Note_on_c, 0, 37, 56
1, 122787, Control_c, 0, 64, 105
1, 122793, Note_on_c, 0, 61, 62
1, 122802, Control_c, 0, 64, 113
1, 122817, Control_c, 0, 64, 127
1, 122869, Note_off_c, 0, 60, 29
1, 122917, Note_on_c, 0, 63, 66
1, 122954, Note_off_c, 0, 63, 56
1, 122970, Note_off_c, 0, 61, 40
1, 122983, Note_off_c, 0, 57, 39
1, 122985, Note_off_c, 0, 54, 38
1, 123039, Note_off_c, 0, 37, 52
1, 123060, Note_on_c, 0, 36, 52
1, 123061, Control_c, 0, 64, 97
1, 123066, Note_on_c, 0, 63, 59
1, 123067, Note_off_c, 0, 39, 36
1, 123076, Control_c, 0, 64, 76
1, 123091, Control_c, 0, 64, 63
1, 123105, Control_c, 0, 64, 0
1, 123165, Control_c, 0, 64, 38
1, 123179, Control_c, 0, 64, 62
1, 123194, Note_on_c, 0, 54, 52
1, 123194, Control_c, 0, 64, 67
1, 123197, Note_on_c, 0, 44, 42
1, 123209, Control_c, 0, 64, 73
1, 123224, Control_c, 0, 64, 78
1, 123239, Control_c, 0, 64, 85
1, 123253, Control_c, 0, 64, 95
1, 123268, Control_c, 0, 64, 127
1, 123293, Note_off_c, 0, 44, 53
1, 123313, Note_on_c, 0, 55, 65
1, 123333, Note_off_c, 0, 36, 40
1, 123334, Note_off_c, 0, 63, 56
1, 123432, Note_on_c, 0, 56, 68
1, 123445, Note_on_c, 0, 44, 54
1, 123501, Note_off_c, 0, 44, 54
1, 123551, Note_off_c, 0, 55, 0
1, 123554, Note_on_c, 0, 32, 71
1, 123561, Note_on_c, 0, 58, 75
1, 123589, Poly_aftertouch_c, 0, 55, 127
1, 123596, Control_c, 0, 64, 87
1, 123610, Control_c, 0, 64, 69
1, 123623, Note_off_c, 0, 56, 52
1, 123625, Control_c, 0, 64, 62
1, 123647, Control_c, 0, 64, 64
1, 123651, Poly_aftertouch_c, 0, 55, 0
1, 123662, Control_c, 0, 64, 73
1, 123673, Note_off_c, 0, 58, 60
1, 123677, Note_on_c, 0, 44, 62
1, 123677, Control_c, 0, 64, 100
1, 123682, Note_on_c, 0, 60, 71
1, 123691, Control_c, 0, 64, 127
1, 123698, Note_off_c, 0, 32, 62
1, 123721, Note_off_c, 0, 44, 57
1, 123749, Note_off_c, 0, 60, 60
1, 123786, Note_off_c, 0, 54, 0
1, 123811, Note_on_c, 0, 45, 62
1, 123812, Note_on_c, 0, 61, 60
1, 123823, Poly_aftertouch_c, 0, 54, 127
1, 123888, Poly_aftertouch_c, 0, 54, 0
1, 123906, Note_off_c, 0, 45, 32
1, 123910, Note_on_c, 0, 63, 73
1, 123925, Note_on_c, 0, 44, 50
1, 123926, Note_off_c, 0, 61, 24
1, 124015, Note_off_c, 0, 63, 56
1, 124031, Note_off_c, 0, 44, 58
1, 124041, Note_on_c, 0, 64, 63
1, 124047, Control_c, 0, 64, 104
1, 124049, Note_on_c, 0, 37, 64
1, 124061, Control_c, 0, 64, 60
1, 124076, Control_c, 0, 64, 0
1, 124165, Control_c, 0, 64, 63
1, 124173, Note_on_c, 0, 61, 61
1, 124180, Note_on_c, 0, 44, 48
1, 124180, Control_c, 0, 64, 113
1, 124187, Note_on_c, 0, 52, 38
1, 124188, Note_off_c, 0, 64, 53
1, 124195, Control_c, 0, 64, 127
1, 124220, Note_off_c, 0, 52, 51
1, 124251, Note_off_c, 0, 37, 63
1, 124254, Note_off_c, 0, 44, 62
1, 124284, Note_on_c, 0, 48, 60
1, 124297, Note_on_c, 0, 63, 74
1, 124338, Note_off_c, 0, 48, 48
1, 124350, Note_off_c, 0, 61, 24
1, 124404, Note_off_c, 0, 63, 63
1, 124409, Note_on_c, 0, 64, 74
1, 124410, Note_on_c, 0, 49, 55
1, 124448, Note_on_c, 0, 56, 42
1, 124487, Note_off_c, 0, 64, 58
1, 124490, Note_off_c, 0, 56, 45
1, 124499, Control_c, 0, 64, 89
1, 124506, Note_off_c, 0, 49, 55
1, 124514, Control_c, 0, 64, 0
1, 124523, Note_on_c, 0, 42, 71
1, 124541, Note_on_c, 0, 66, 71
1, 124589, Control_c, 0, 64, 31
1, 124604, Control_c, 0, 64, 87
1, 124619, Control_c, 0, 64, 127
1, 124642, Note_on_c, 0, 68, 77
1, 124662, Note_on_c, 0, 49, 61
1, 124662, Note_off_c, 0, 66, 38
1, 124743, Note_off_c, 0, 42, 61
1, 124743, Note_off_c, 0, 49, 60
1, 124766, Note_off_c, 0, 68, 62
1, 124768, Note_on_c, 0, 56, 61
1, 124768, Note_on_c, 0, 64, 66
1, 124777, Note_on_c, 0, 61, 54
1, 124809, Note_off_c, 0, 56, 57
1, 124874, Note_on_c, 0, 66, 76
1, 124883, Note_off_c, 0, 61, 55
1, 124902, Note_off_c, 0, 64, 58
1, 124991, Note_off_c, 0, 66, 50
1, 125026, Note_on_c, 0, 68, 82
1, 125048, Control_c, 0, 64, 76
1, 125061, Note_on_c, 0, 37, 61
1, 125063, Control_c, 0, 64, 0
1, 125145, Control_c, 0, 64, 53
1, 125161, Control_c, 0, 64, 65
1, 125173, Note_off_c, 0, 37, 64
1, 125176, Control_c, 0, 64, 73
1, 125187, Note_on_c, 0, 56, 56
1, 125190, Control_c, 0, 64, 87
1, 125192, Note_on_c, 0, 64, 51
1, 125198, Note_on_c, 0, 61, 46
1, 125205, Control_c, 0, 64, 127
1, 125230, Note_off_c, 0, 56, 57
1, 125230, Note_off_c, 0, 61, 54
1, 125266, Note_off_c, 0, 64, 51
1, 125346, Note_on_c, 0, 54, 57
1, 125443, Note_off_c, 0, 54, 61
1, 125445, Note_on_c, 0, 64, 62
1, 125455, Note_on_c, 0, 52, 72
1, 125468, Note_on_c, 0, 61, 35
1, 125470, Note_on_c, 0, 56, 21
1, 125470, Note_off_c, 0, 68, 57
1, 125473, Note_off_c, 0, 64, 66
1, 125503, Note_off_c, 0, 61, 46
1, 125515, Note_off_c, 0, 56, 42
1, 125624, Note_on_c, 0, 71, 81
1, 125635, Control_c, 0, 64, 91
1, 125635, Note_off_c, 0, 52, 58
1, 125641, Note_on_c, 0, 51, 55
1, 125650, Control_c, 0, 64, 66
1, 125664, Control_c, 0, 64, 25
1, 125679, Control_c, 0, 64, 0
1, 125782, Control_c, 0, 64, 50
1, 125797, Control_c, 0, 64, 64
1, 125799, Note_off_c, 0, 51, 57
1, 125804, Note_on_c, 0, 66, 48
1, 125809, Note_on_c, 0, 49, 48
1, 125812, Control_c, 0, 64, 69
1, 125824, Note_on_c, 0, 57, 31
1, 125826, Control_c, 0, 64, 75
1, 125841, Note_on_c, 0, 59, 32
1, 125841, Control_c, 0, 64, 86
1, 125856, Control_c, 0, 64, 111
1, 125879, Control_c, 0, 64, 127
1, 125903, Note_off_c, 0, 49, 58
1, 125924, Note_off_c, 0, 66, 36
1, 125952, Note_on_c, 0, 47, 52
1, 125968, Note_off_c, 0, 57, 40
1, 125972, Note_off_c, 0, 59, 44
1, 126080, Note_off_c, 0, 47, 55
1, 126085, Note_on_c, 0, 42, 60
1, 126095, Note_on_c, 0, 66, 63
1, 126118, Note_off_c, 0, 71, 56
1, 126169, Note_off_c, 0, 66, 59
1, 126195, Poly_aftertouch_c, 0, 63, 0
1, 126272, Note_off_c, 0, 42, 59
1, 126283, Note_on_c, 0, 35, 62
1, 126339, Control_c, 0, 64, 85
1, 126353, Control_c, 0, 64, 65
1, 126364, Note_on_c, 0, 68, 71
1, 126368, Control_c, 0, 64, 0
1, 126471, Control_c, 0, 64, 54
1, 126486, Control_c, 0, 64, 66
1, 126491, Note_off_c, 0, 35, 65
1, 126501, Control_c, 0, 64, 72
1, 126516, Control_c, 0, 64, 79
1, 126530, Control_c, 0, 64, 84
1, 126545, Control_c, 0, 64, 94
1, 126560, Control_c, 0, 64, 117
1, 126575, Control_c, 0, 64, 127
1, 126655, Note_on_c, 0, 57, 42
1, 126658, Note_on_c, 0, 52, 41
1, 126659, Note_on_c, 0, 59, 33
1, 126768, Note_on_c, 0, 51, 58
1, 126771, Note_on_c, 0, 66, 69
1, 126778, Note_off_c, 0, 52, 41
1, 126802, Note_off_c, 0, 51, 61
1, 126815, Note_off_c, 0, 68, 56
1, 126827, Note_off_c, 0, 57, 43
1, 126833, Note_off_c, 0, 59, 42
1, 126898, Note_on_c, 0, 64, 65
1, 126900, Note_on_c, 0, 56, 63
1, 126908, Note_off_c, 0, 66, 56
1, 126925, Note_off_c, 0, 56, 64
1, 127042, Note_on_c, 0, 63, 69
1, 127048, Note_off_c, 0, 64, 58
1, 127057, Control_c, 0, 64, 91
1, 127071, Note_on_c, 0, 56, 40
1, 127072, Control_c, 0, 64, 71
1, 127087, Control_c, 0, 64, 37
1, 127102, Control_c, 0, 64, 0
1, 127117, Note_off_c, 0, 56, 0
1, 127117, Note_on_c, 0, 56, 21
1, 127194, Note_on_c, 0, 57, 40
1, 127206, Control_c, 0, 64, 54
1, 127220, Control_c, 0, 64, 64
1, 127233, Poly_aftertouch_c, 0, 59, 127
1, 127235, Control_c, 0, 64, 68
1, 127250, Control_c, 0, 64, 70
1, 127265, Control_c, 0, 64, 72
1, 127279, Control_c, 0, 64, 75
1, 127294, Control_c, 0, 64, 77
1, 127309, Control_c, 0, 64, 79
1, 127324, Control_c, 0, 64, 81
1, 127339, Control_c, 0, 64, 83
1, 127343, Note_on_c, 0, 64, 57
1, 127346, Note_on_c, 0, 54, 50
1, 127353, Control_c, 0, 64, 83
1, 127367, Note_off_c, 0, 56, 40
1, 127368, Control_c, 0, 64, 84
1, 127391, Control_c, 0, 64, 84
1, 127413, Poly_aftertouch_c, 0, 59, 0
1, 127439, Note_off_c, 0, 57, 34
1, 127477, Note_on_c, 0, 66, 62
1, 127477, Note_off_c, 0, 54, 55
1, 127493, Note_off_c, 0, 64, 60
1, 127507, Note_on_c, 0, 52, 44
1, 127516, Note_off_c, 0, 66, 56
1, 127516, Note_off_c, 0, 63, 38
1, 127555, Control_c, 0, 64, 84
1, 127570, Control_c, 0, 64, 81
1, 127584, Control_c, 0, 64, 77
1, 127599, Control_c, 0, 64, 69
1, 127614, Control_c, 0, 64, 59
1, 127623, Note_on_c, 0, 66, 64
1, 127629, Control_c, 0, 64, 0
1, 127635, Note_on_c, 0, 51, 42
1, 127636, Note_off_c, 0, 52, 42
1, 127732, Control_c, 0, 64, 56
1, 127747, Control_c, 0, 64, 68
1, 127751, Note_on_c, 0, 59, 46
1, 127762, Control_c, 0, 64, 79
1, 127766, Note_on_c, 0, 57, 48
1, 127776, Control_c, 0, 64, 91
1, 127791, Control_c, 0, 64, 104
1, 127806, Control_c, 0, 64, 127
1, 127876, Note_off_c, 0, 57, 28
1, 127886, Note_on_c, 0, 52, 52
1, 127887, Note_on_c, 0, 61, 62
1, 127916, Note_off_c, 0, 51, 35
1, 127918, Note_off_c, 0, 59, 40
1, 127936, Note_off_c, 0, 52, 59
1, 127973, Note_off_c, 0, 61, 55
1, 128002, Note_on_c, 0, 54, 49
1, 128004, Note_on_c, 0, 59, 68
1, 128020, Note_on_c, 0, 57, 49
1, 128027, Note_off_c, 0, 54, 61
1, 128097, Note_off_c, 0, 66, 37
1, 128098, Note_off_c, 0, 57, 0
1, 128103, Control_c, 0, 64, 119
1, 128116, Note_on_c, 0, 54, 55
1, 128125, Control_c, 0, 64, 72
1, 128140, Control_c, 0, 64, 0
1, 128143, Poly_aftertouch_c, 0, 57, 127
1, 128145, Note_on_c, 0, 61, 70
1, 128151, Note_on_c, 0, 57, 7
1, 128184, Control_c, 0, 64, 38
1, 128199, Control_c, 0, 64, 68
1, 128214, Control_c, 0, 64, 94
1, 128228, Control_c, 0, 64, 127
1, 128237, Note_off_c, 0, 59, 0
1, 128251, Note_off_c, 0, 57, 0
1, 128262, Note_on_c, 0, 63, 75
1, 128264, Note_on_c, 0, 59, 27
1, 128265, Note_on_c, 0, 47, 61
1, 128266, Note_on_c, 0, 57, 32
1, 128338, Note_off_c, 0, 61, 50
1, 128360, Note_off_c, 0, 57, 0
1, 128373, Note_off_c, 0, 54, 30
1, 128379, Note_on_c, 0, 57, 28
1, 128383, Note_on_c, 0, 64, 80
1, 128392, Note_on_c, 0, 49, 63
1, 128395, Note_off_c, 0, 47, 60
1, 128400, Note_off_c, 0, 63, 56
1, 128428, Note_off_c, 0, 59, 25
1, 128437, Note_off_c, 0, 57, 62
1, 128441, Note_off_c, 0, 64, 63
1, 128494, Note_off_c, 0, 49, 53
1, 128505, Note_on_c, 0, 47, 67
1, 128509, Note_on_c, 0, 66, 79
1, 128530, Note_off_c, 0, 47, 70
1, 128568, Note_off_c, 0, 66, 60
1, 128638, Note_on_c, 0, 68, 80
1, 128659, Control_c, 0, 64, 96
1, 128663, Note_on_c, 0, 40, 63
1, 128674, Control_c, 0, 64, 63
1, 128689, Control_c, 0, 64, 0
1, 128733, Control_c, 0, 64, 46
1, 128748, Control_c, 0, 64, 68
1, 128763, Control_c, 0, 64, 88
1, 128774, Note_on_c, 0, 62, 71
1, 128778, Control_c, 0, 64, 127
1, 128780, Note_on_c, 0, 56, 59
1, 128799, Note_on_c, 0, 47, 59
1, 128840, Note_off_c, 0, 56, 50
1, 128841, Note_off_c, 0, 40, 46
1, 128858, Note_off_c, 0, 47, 57
1, 128860, Note_off_c, 0, 68, 59
1, 128908, Note_on_c, 0, 67, 77
1, 128908, Note_on_c, 0, 52, 62
1, 128947, Note_off_c, 0, 52, 59
1, 128959, Note_off_c, 0, 62, 0
1, 128977, Note_off_c, 0, 67, 54
1, 128992, Poly_aftertouch_c, 0, 62, 0
1, 129021, Note_on_c, 0, 40, 60
1, 129024, Note_on_c, 0, 68, 82
1, 129036, Note_on_c, 0, 56, 61
1, 129056, Note_on_c, 0, 62, 13
1, 129066, Note_off_c, 0, 56, 65
1, 129079, Note_off_c, 0, 68, 62
1, 129099, Note_off_c, 0, 40, 59
1, 129099, Note_off_c, 0, 62, 43
1, 129141, Control_c, 0, 64, 70
1, 129153, Note_on_c, 0, 39, 72
1, 129156, Control_c, 0, 64, 37
1, 129161, Note_on_c, 0, 70, 84
1, 129171, Control_c, 0, 64, 0
1, 129186, Control_c, 0, 64, 54
1, 129194, Note_off_c, 0, 39, 61
1, 129201, Control_c, 0, 64, 81
1, 129216, Control_c, 0, 64, 127
1, 129275, Note_on_c, 0, 71, 84
1, 129293, Note_off_c, 0, 70, 48
1, 129303, Note_on_c, 0, 56, 69
1, 129375, Poly_aftertouch_c, 0, 63, 127
1, 129377, Note_off_c, 0, 56, 57
1, 129403, Note_on_c, 0, 63, 26
1, 129409, Note_on_c, 0, 68, 85
1, 129413, Note_on_c, 0, 61, 76
1, 129415, Note_off_c, 0, 71, 65
1, 129416, Note_on_c, 0, 53, 61
1, 129436, Note_off_c, 0, 63, 56
1, 129471, Note_off_c, 0, 61, 53
1, 129477, Note_off_c, 0, 53, 64
1, 129512, Note_on_c, 0, 55, 49
1, 129524, Note_on_c, 0, 70, 85
1, 129537, Note_off_c, 0, 55, 61
1, 129578, Note_off_c, 0, 68, 57
1, 129606, Note_off_c, 0, 70, 60
1, 129675, Note_on_c, 0, 71, 89
1, 129676, Note_on_c, 0, 44, 68
1, 129697, Control_c, 0, 64, 61
1, 129712, Control_c, 0, 64, 0
1, 129771, Control_c, 0, 64, 45
1, 129786, Control_c, 0, 64, 69
1, 129800, Control_c, 0, 64, 92
1, 129810, Note_off_c, 0, 44, 63
1, 129815, Control_c, 0, 64, 127
1, 129817, Note_on_c, 0, 59, 60
1, 129820, Note_on_c, 0, 63, 60
1, 129820, Note_on_c, 0, 68, 64
1, 129883, Note_off_c, 0, 63, 39
1, 129926, Note_off_c, 0, 68, 57
1, 129942, Note_off_c, 0, 59, 35
1, 129963, Note_on_c, 0, 58, 76
1, 130083, Note_on_c, 0, 56, 66
1, 130086, Note_on_c, 0, 68, 71
1, 130086, Note_off_c, 0, 58, 60
1, 130096, Note_off_c, 0, 71, 57
1, 130108, Note_on_c, 0, 63, 35
1, 130137, Note_off_c, 0, 63, 54
1, 130146, Note_off_c, 0, 68, 62
1, 130175, Poly_aftertouch_c, 0, 59, 0
1, 130226, Note_off_c, 0, 56, 60
1, 130256, Note_on_c, 0, 75, 85
1, 130258, Note_on_c, 0, 55, 50
1, 130290, Control_c, 0, 64, 79
1, 130304, Control_c, 0, 64, 56
1, 130319, Control_c, 0, 64, 0
1, 130364, Control_c, 0, 64, 51
1, 130386, Control_c, 0, 64, 67
1, 130401, Control_c, 0, 64, 82
1, 130415, Note_off_c, 0, 55, 56
1, 130416, Control_c, 0, 64, 127
1, 130419, Note_on_c, 0, 61, 60
1, 130425, Note_on_c, 0, 70, 62
1, 130428, Note_on_c, 0, 52, 61
1, 130442, Note_on_c, 0, 67, 38
1, 130453, Note_off_c, 0, 52, 66
1, 130456, Note_off_c, 0, 61, 56
1, 130512, Note_off_c, 0, 67, 34
1, 130517, Note_off_c, 0, 70, 57
1, 130574, Note_on_c, 0, 51, 61
1, 130613, Note_off_c, 0, 51, 56
1, 130700, Note_on_c, 0, 39, 57
1, 130719, Note_on_c, 0, 70, 71
1, 130732, Note_off_c, 0, 75, 62
1, 130735, Note_on_c, 0, 61, 50
1, 130738, Note_on_c, 0, 67, 43
1, 130766, Note_off_c, 0, 67, 57
1, 130768, Note_off_c, 0, 61, 55
1, 130790, Note_off_c, 0, 70, 61
1, 130891, Note_on_c, 0, 44, 56
1, 130895, Note_on_c, 0, 71, 72
1, 130905, Control_c, 0, 64, 95
1, 130920, Control_c, 0, 64, 67
1, 130925, Note_off_c, 0, 39, 49
1, 130935, Control_c, 0, 64, 22
1, 130950, Control_c, 0, 64, 0
1, 131024, Control_c, 0, 64, 46
1, 131039, Control_c, 0, 64, 62
1, 131042, Note_on_c, 0, 63, 51
1, 131053, Control_c, 0, 64, 68
1, 131057, Note_on_c, 0, 59, 32
1, 131058, Note_on_c, 0, 51, 47
1, 131068, Control_c, 0, 64, 75
1, 131083, Control_c, 0, 64, 86
1, 131098, Control_c, 0, 64, 104
1, 131120, Control_c, 0, 64, 127
1, 131181, Note_on_c, 0, 70, 74
1, 131181, Note_off_c, 0, 51, 54
1, 131215, Note_off_c, 0, 59, 23
1, 131218, Note_off_c, 0, 63, 46
1, 131308, Note_on_c, 0, 68, 73
1, 131320, Note_on_c, 0, 51, 55
1, 131322, Note_on_c, 0, 63, 58
1, 131324, Note_on_c, 0, 59, 51
1, 131331, Note_off_c, 0, 71, 59
1, 131338, Note_off_c, 0, 70, 46
1, 131355, Note_off_c, 0, 51, 61
1, 131369, Note_off_c, 0, 59, 60
1, 131395, Note_off_c, 0, 44, 58
1, 131438, Note_on_c, 0, 39, 64
1, 131449, Note_on_c, 0, 70, 77
1, 131470, Note_off_c, 0, 63, 36
1, 131475, Control_c, 0, 64, 88
1, 131481, Note_off_c, 0, 68, 62
1, 131490, Control_c, 0, 64, 61
1, 131505, Control_c, 0, 64, 0
1, 131550, Control_c, 0, 64, 40
1, 131565, Control_c, 0, 64, 65
1, 131580, Control_c, 0, 64, 76
1, 131582, Note_on_c, 0, 63, 62
1, 131583, Note_on_c, 0, 51, 64
1, 131595, Control_c, 0, 64, 96
1, 131597, Note_on_c, 0, 61, 57
1, 131610, Control_c, 0, 64, 127
1, 131638, Note_off_c, 0, 51, 59
1, 131674, Note_off_c, 0, 61, 55
1, 131689, Note_off_c, 0, 39, 60
1, 131713, Note_on_c, 0, 71, 78
1, 131731, Note_off_c, 0, 63, 60
1, 131750, Note_off_c, 0, 70, 36
1, 131841, Note_on_c, 0, 63, 65
1, 131842, Note_on_c, 0, 67, 59
1, 131849, Note_on_c, 0, 61, 52
1, 131880, Note_off_c, 0, 61, 59
1, 131883, Note_off_c, 0, 63, 59
1, 131898, Note_off_c, 0, 67, 56
1, 131922, Note_on_c, 0, 51, 3
1, 131950, Note_off_c, 0, 51, 50
1, 131975, Note_on_c, 0, 44, 68
1, 131978, Note_on_c, 0, 68, 77
1, 132017, Control_c, 0, 64, 82
1, 132032, Control_c, 0, 64, 64
1, 132041, Note_off_c, 0, 71, 51
1, 132047, Control_c, 0, 64, 0
1, 132102, Note_on_c, 0, 51, 69
1, 132118, Note_on_c, 0, 63, 52
1, 132127, Note_on_c, 0, 59, 30
1, 132142, Note_off_c, 0, 63, 57
1, 132152, Note_off_c, 0, 44, 60
1, 132163, Note_off_c, 0, 59, 46
1, 132222, Note_on_c, 0, 54, 70
1, 132238, Note_off_c, 0, 51, 62
1, 132247, Note_on_c, 0, 52, 74
1, 132264, Note_off_c, 0, 54, 54
1, 132363, Note_on_c, 0, 63, 56
1, 132363, Note_on_c, 0, 51, 68
1, 132369, Note_off_c, 0, 52, 66
1, 132384, Note_on_c, 0, 59, 20
1, 132393, Note_off_c, 0, 63, 65
1, 132416, Note_off_c, 0, 68, 61
1, 132425, Note_off_c, 0, 59, 44
1, 132496, Note_off_c, 0, 51, 60
1, 132500, Note_on_c, 0, 50, 65
1, 132503, Note_on_c, 0, 70, 81
1, 132635, Note_off_c, 0, 50, 62
1, 132653, Note_on_c, 0, 67, 60
1, 132657, Note_on_c, 0, 61, 61
1, 132659, Note_on_c, 0, 51, 56
1, 132670, Note_on_c, 0, 63, 48
1, 132689, Note_off_c, 0, 61, 61
1, 132691, Control_c, 0, 64, 51
1, 132706, Control_c, 0, 64, 64
1, 132721, Control_c, 0, 64, 72
1, 132721, Note_off_c, 0, 63, 40
1, 132736, Control_c, 0, 64, 81
1, 132750, Control_c, 0, 64, 91
1, 132765, Control_c, 0, 64, 104
1, 132771, Note_off_c, 0, 51, 60
1, 132780, Control_c, 0, 64, 127
1, 132792, Note_on_c, 0, 39, 62
1, 132925, Note_on_c, 0, 63, 63
1, 132930, Note_on_c, 0, 51, 54
1, 132936, Note_on_c, 0, 61, 53
1, 132946, Note_off_c, 0, 70, 59
1, 132960, Note_off_c, 0, 63, 59
1, 132966, Note_off_c, 0, 61, 59
1, 132970, Note_off_c, 0, 51, 60
1, 132987, Note_off_c, 0, 67, 39
1, 133046, Control_c, 0, 64, 108
1, 133061, Control_c, 0, 64, 82
1, 133076, Control_c, 0, 64, 66
1, 133078, Note_on_c, 0, 71, 70
1, 133090, Control_c, 0, 64, 18
1, 133092, Note_on_c, 0, 44, 55
1, 133105, Control_c, 0, 64, 0
1, 133138, Note_off_c, 0, 39, 52
1, 133195, Control_c, 0, 64, 50
1, 133210, Control_c, 0, 64, 66
1, 133211, Note_on_c, 0, 63, 61
1, 133225, Control_c, 0, 64, 73
1, 133226, Note_on_c, 0, 51, 51
1, 133226, Note_on_c, 0, 59, 47
1, 133239, Control_c, 0, 64, 81
1, 133254, Control_c, 0, 64, 90
1, 133269, Control_c, 0, 64, 105
1, 133270, Note_off_c, 0, 51, 56
1, 133284, Control_c, 0, 64, 127
1, 133353, Note_on_c, 0, 70, 75
1, 133380, Note_off_c, 0, 59, 23
1, 133412, Note_off_c, 0, 63, 46
1, 133485, Note_on_c, 0, 68, 77
1, 133490, Note_on_c, 0, 51, 44
1, 133500, Note_on_c, 0, 59, 47
1, 133506, Note_on_c, 0, 63, 51
1, 133515, Note_off_c, 0, 70, 59
1, 133519, Note_off_c, 0, 51, 55
1, 133521, Note_off_c, 0, 71, 60
1, 133543, Note_off_c, 0, 59, 48
1, 133592, Note_off_c, 0, 63, 36
1, 133626, Note_off_c, 0, 44, 57
1, 133627, Note_on_c, 0, 70, 78
1, 133630, Note_on_c, 0, 39, 54
1, 133633, Control_c, 0, 64, 82
1, 133647, Control_c, 0, 64, 62
1, 133662, Control_c, 0, 64, 0
1, 133674, Note_off_c, 0, 68, 55
1, 133721, Control_c, 0, 64, 60
1, 133736, Control_c, 0, 64, 70
1, 133751, Control_c, 0, 64, 80
1, 133757, Note_on_c, 0, 73, 80
1, 133765, Control_c, 0, 64, 92
1, 133775, Note_on_c, 0, 51, 49
1, 133777, Note_on_c, 0, 63, 54
1, 133780, Control_c, 0, 64, 107
1, 133794, Note_on_c, 0, 61, 42
1, 133795, Control_c, 0, 64, 127
1, 133814, Note_off_c, 0, 51, 59
1, 133816, Note_off_c, 0, 73, 60
1, 133827, Note_off_c, 0, 61, 54
1, 133839, Note_off_c, 0, 70, 43
1, 133855, Note_off_c, 0, 63, 37
1, 133889, Note_on_c, 0, 71, 76
1, 133983, Note_off_c, 0, 39, 35
1, 134016, Note_on_c, 0, 67, 67
1, 134019, Note_on_c, 0, 51, 55
1, 134020, Note_on_c, 0, 61, 62
1, 134031, Note_on_c, 0, 63, 57
1, 134048, Note_off_c, 0, 61, 64
1, 134056, Note_off_c, 0, 63, 64
1, 134059, Note_off_c, 0, 51, 60
1, 134071, Note_off_c, 0, 67, 59
1, 134159, Control_c, 0, 64, 82
1, 134163, Note_on_c, 0, 68, 73
1, 134169, Note_on_c, 0, 44, 52
1, 134174, Control_c, 0, 64, 55
1, 134189, Control_c, 0, 64, 0
1, 134199, Note_off_c, 0, 71, 52
1, 134233, Control_c, 0, 64, 22
1, 134248, Control_c, 0, 64, 63
1, 134262, Control_c, 0, 64, 74
1, 134277, Control_c, 0, 64, 97
1, 134292, Control_c, 0, 64, 127
1, 134295, Note_on_c, 0, 63, 64
1, 134309, Note_on_c, 0, 51, 45
1, 134312, Note_on_c, 0, 59, 41
1, 134339, Note_off_c, 0, 63, 47
1, 134342, Note_off_c, 0, 51, 54
1, 134354, Note_off_c, 0, 59, 48
1, 134441, Note_on_c, 0, 71, 74
1, 134443, Note_off_c, 0, 44, 55
1, 134448, Note_on_c, 0, 39, 53
1, 134456, Control_c, 0, 64, 92
1, 134470, Control_c, 0, 64, 64
1, 134477, Note_off_c, 0, 68, 61
1, 134485, Control_c, 0, 64, 0
1, 134530, Control_c, 0, 64, 54
1, 134544, Control_c, 0, 64, 73
1, 134559, Control_c, 0, 64, 92
1, 134563, Note_on_c, 0, 67, 70
1, 134564, Note_on_c, 0, 61, 67
1, 134572, Note_on_c, 0, 51, 49
1, 134573, Note_on_c, 0, 63, 65
1, 134574, Control_c, 0, 64, 127
1, 134621, Note_off_c, 0, 51, 55
1, 134634, Control_c, 0, 67, 13
1, 134640, Note_off_c, 0, 67, 58
1, 134649, Control_c, 0, 67, 19
1, 134663, Control_c, 0, 67, 20
1, 134690, Note_off_c, 0, 39, 56
1, 134693, Control_c, 0, 64, 74
1, 134693, Control_c, 0, 67, 20
1, 134694, Note_off_c, 0, 63, 52
1, 134700, Note_on_c, 0, 68, 81
1, 134702, Note_off_c, 0, 61, 56
1, 134703, Note_on_c, 0, 44, 51
1, 134708, Control_c, 0, 64, 0
1, 134708, Control_c, 0, 67, 21
1, 134723, Control_c, 0, 67, 20
1, 134739, Control_c, 0, 67, 19
1, 134754, Control_c, 0, 64, 31
1, 134754, Control_c, 0, 67, 18
1, 134760, Note_off_c, 0, 71, 51
1, 134768, Control_c, 0, 64, 66
1, 134768, Control_c, 0, 67, 17
1, 134783, Control_c, 0, 64, 79
1, 134783, Control_c, 0, 67, 17
1, 134798, Control_c, 0, 64, 107
1, 134812, Control_c, 0, 64, 127
1, 134823, Note_on_c, 0, 63, 71
1, 134827, Note_on_c, 0, 59, 58
1, 134828, Note_on_c, 0, 51, 47
1, 134876, Note_off_c, 0, 51, 60
1, 134894, Control_c, 0, 67, 17
1, 134924, Control_c, 0, 67, 18
1, 134938, Control_c, 0, 67, 19
1, 134953, Control_c, 0, 67, 19
1, 134968, Control_c, 0, 64, 74
1, 134968, Control_c, 0, 67, 20
1, 134968, Note_off_c, 0, 59, 0
1, 134977, Note_on_c, 0, 71, 68
1, 134977, Note_off_c, 0, 44, 58
1, 134982, Note_on_c, 0, 39, 51
1, 134983, Control_c, 0, 64, 27
1, 134986, Poly_aftertouch_c, 0, 59, 0
1, 134991, Note_off_c, 0, 63, 36
1, 134998, Control_c, 0, 64, 0
1, 135012, Control_c, 0, 67, 20
1, 135027, Control_c, 0, 67, 21
1, 135042, Control_c, 0, 64, 56
1, 135044, Note_off_c, 0, 68, 38
1, 135057, Control_c, 0, 64, 67
1, 135072, Control_c, 0, 64, 73
1, 135086, Control_c, 0, 64, 79
1, 135086, Control_c, 0, 67, 21
1, 135101, Control_c, 0, 64, 85
1, 135101, Control_c, 0, 67, 22
1, 135108, Note_on_c, 0, 67, 65
1, 135114, Note_on_c, 0, 63, 57
1, 135116, Note_on_c, 0, 51, 49
1, 135116, Control_c, 0, 64, 97
1, 135118, Note_on_c, 0, 61, 56
1, 135131, Control_c, 0, 64, 127
1, 135131, Control_c, 0, 67, 22
1, 135160, Control_c, 0, 67, 24
1, 135175, Control_c, 0, 67, 27
1, 135180, Note_off_c, 0, 61, 0
1, 135190, Control_c, 0, 67, 33
1, 135192, Note_off_c, 0, 67, 48
1, 135205, Control_c, 0, 67, 38
1, 135219, Control_c, 0, 64, 89
1, 135219, Control_c, 0, 67, 43
1, 135221, Note_off_c, 0, 51, 34
1, 135234, Control_c, 0, 64, 64
1, 135234, Control_c, 0, 67, 47
1, 135248, Poly_aftertouch_c, 0, 61, 0
1, 135249, Control_c, 0, 64, 0
1, 135249, Control_c, 0, 67, 50
1, 135263, Note_on_c, 0, 68, 68
1, 135264, Note_on_c, 0, 44, 41
1, 135264, Control_c, 0, 67, 54
1, 135265, Note_off_c, 0, 39, 51
1, 135266, Note_off_c, 0, 63, 44
1, 135279, Control_c, 0, 67, 58
1, 135293, Control_c, 0, 67, 60
1, 135297, Note_off_c, 0, 71, 53
1, 135308, Control_c, 0, 67, 62
1, 135323, Control_c, 0, 64, 58
1, 135323, Control_c, 0, 67, 65
1, 135338, Control_c, 0, 64, 66
1, 135338, Control_c, 0, 67, 69
1, 135353, Control_c, 0, 64, 74
1, 135353, Control_c, 0, 67, 72
1, 135368, Control_c, 0, 64, 82
1, 135368, Control_c, 0, 67, 76
1, 135383, Control_c, 0, 64, 90
1, 135383, Control_c, 0, 67, 80
1, 135397, Control_c, 0, 64, 97
1, 135397, Control_c, 0, 67, 84
1, 135409, Note_on_c, 0, 51, 41
1, 135412, Control_c, 0, 64, 105
1, 135412, Control_c, 0, 67, 89
1, 135414, Note_on_c, 0, 63, 50
1, 135427, Control_c, 0, 64, 110
1, 135427, Control_c, 0, 67, 94
1, 135432, Note_on_c, 0, 59, 35
1, 135442, Control_c, 0, 64, 111
1, 135442, Control_c, 0, 67, 100
1, 135444, Note_off_c, 0, 51, 50
1, 135457, Control_c, 0, 67, 105
1, 135472, Control_c, 0, 67, 111
1, 135479, Note_off_c, 0, 59, 45
1, 135481, Note_off_c, 0, 63, 0
1, 135486, Control_c, 0, 67, 119
1, 135501, Control_c, 0, 67, 127
1, 135516, Control_c, 0, 67, 127
1, 135518, Poly_aftertouch_c, 0, 63, 127
1, 135561, Control_c, 0, 64, 110
1, 135576, Control_c, 0, 64, 103
1, 135591, Control_c, 0, 64, 89
1, 135603, Poly_aftertouch_c, 0, 63, 0
1, 135613, Control_c, 0, 64, 70
1, 135628, Control_c, 0, 64, 44
1, 135630, Note_on_c, 0, 69, 58
1, 135636, Note_off_c, 0, 68, 44
1, 135637, Note_on_c, 0, 37, 44
1, 135639, Note_off_c, 0, 44, 44
1, 135642, Control_c, 0, 64, 0
1, 135746, Control_c, 0, 64, 39
1, 135761, Control_c, 0, 64, 63
1, 135770, Note_on_c, 0, 65, 50
1, 135770, Note_on_c, 0, 59, 46
1, 135776, Control_c, 0, 64, 71
1, 135786, Note_on_c, 0, 49, 36
1, 135791, Note_on_c, 0, 61, 36
1, 135791, Control_c, 0, 64, 81
1, 135806, Control_c, 0, 64, 91
1, 135818, Note_off_c, 0, 65, 56
1, 135821, Control_c, 0, 64, 104
1, 135836, Control_c, 0, 64, 127
1, 135879, Note_off_c, 0, 59, 25
1, 135901, Note_off_c, 0, 49, 33
1, 135909, Note_off_c, 0, 61, 27
1, 135914, Note_on_c, 0, 66, 62
1, 135924, Control_c, 0, 64, 78
1, 135934, Note_on_c, 0, 42, 45
1, 135939, Control_c, 0, 64, 55
1, 135952, Note_off_c, 0, 69, 53
1, 135954, Control_c, 0, 64, 0
1, 135998, Control_c, 0, 64, 53
1, 136013, Control_c, 0, 64, 67
1, 136025, Note_off_c, 0, 37, 45
1, 136028, Control_c, 0, 64, 74
1, 136042, Control_c, 0, 64, 82
1, 136044, Note_on_c, 0, 49, 46
1, 136047, Note_on_c, 0, 61, 56
1, 136057, Control_c, 0, 64, 88
1, 136063, Note_on_c, 0, 57, 40
1, 136072, Control_c, 0, 64, 99
1, 136087, Control_c, 0, 64, 127
1, 136093, Note_off_c, 0, 49, 56
1, 136125, Note_off_c, 0, 57, 38
1, 136146, Note_off_c, 0, 61, 29
1, 136176, Control_c, 0, 64, 77
1, 136180, Note_off_c, 0, 42, 58
1, 136186, Note_on_c, 0, 37, 52
1, 136190, Control_c, 0, 64, 47
1, 136194, Note_on_c, 0, 69, 63
1, 136202, Note_off_c, 0, 66, 53
1, 136205, Control_c, 0, 64, 0
1, 136265, Control_c, 0, 64, 53
1, 136280, Control_c, 0, 64, 65
1, 136295, Control_c, 0, 64, 72
1, 136309, Control_c, 0, 64, 84
1, 136324, Control_c, 0, 64, 100
1, 136328, Note_on_c, 0, 65, 60
1, 136334, Note_on_c, 0, 49, 49
1, 136336, Note_on_c, 0, 59, 53
1, 136339, Control_c, 0, 64, 127
1, 136342, Note_on_c, 0, 61, 48
1, 136382, Note_off_c, 0, 59, 57
1, 136391, Note_off_c, 0, 61, 50
1, 136393, Note_off_c, 0, 65, 60
1, 136400, Note_off_c, 0, 49, 52
1, 136436, Control_c, 0, 64, 98
1, 136451, Control_c, 0, 64, 70
1, 136465, Control_c, 0, 64, 0
1, 136481, Note_on_c, 0, 66, 59
1, 136491, Note_on_c, 0, 42, 40
1, 136530, Note_off_c, 0, 69, 52
1, 136539, Control_c, 0, 64, 49
1, 136554, Note_off_c, 0, 37, 59
1, 136554, Control_c, 0, 64, 64
1, 136569, Control_c, 0, 64, 72
1, 136584, Control_c, 0, 64, 81
1, 136599, Control_c, 0, 64, 90
1, 136614, Control_c, 0, 64, 98
1, 136621, Note_on_c, 0, 61, 52
1, 136626, Note_on_c, 0, 49, 42
1, 136629, Control_c, 0, 64, 108
1, 136635, Note_on_c, 0, 57, 35
1, 136644, Control_c, 0, 64, 127
1, 136672, Note_off_c, 0, 49, 47
1, 136684, Note_off_c, 0, 61, 36
1, 136691, Note_off_c, 0, 57, 41
1, 136718, Control_c, 0, 64, 115
1, 136733, Control_c, 0, 64, 92
1, 136747, Control_c, 0, 64, 72
1, 136748, Note_off_c, 0, 42, 37
1, 136751, Note_on_c, 0, 69, 63
1, 136762, Note_on_c, 0, 37, 44
1, 136762, Control_c, 0, 64, 0
1, 136776, Note_off_c, 0, 66, 43
1, 136836, Control_c, 0, 64, 25
1, 136851, Control_c, 0, 64, 60
1, 136864, Control_c, 0, 64, 67
1, 136879, Control_c, 0, 64, 73
1, 136894, Control_c, 0, 64, 80
1, 136900, Note_on_c, 0, 65, 54
1, 136901, Note_on_c, 0, 59, 53
1, 136903, Note_on_c, 0, 49, 46
1, 136909, Control_c, 0, 64, 87
1, 136924, Control_c, 0, 64, 95
1, 136929, Note_on_c, 0, 61, 32
1, 136939, Control_c, 0, 64, 103
1, 136949, Note_off_c, 0, 59, 51
1, 136954, Control_c, 0, 64, 107
1, 136957, Note_off_c, 0, 65, 52
1, 136959, Note_off_c, 0, 49, 52
1, 136968, Control_c, 0, 64, 108
1, 136980, Note_off_c, 0, 61, 41
1, 137013, Control_c, 0, 64, 104
1, 137028, Control_c, 0, 64, 92
1, 137043, Control_c, 0, 64, 73
1, 137057, Control_c, 0, 64, 53
1, 137062, Note_on_c, 0, 66, 56
1, 137072, Control_c, 0, 64, 0
1, 137076, Note_on_c, 0, 42, 32
1, 137076, Note_off_c, 0, 69, 52
1, 137140, Control_c, 0, 64, 58
1, 137155, Control_c, 0, 64, 66
1, 137169, Control_c, 0, 64, 72
1, 137184, Control_c, 0, 64, 77
1, 137199, Control_c, 0, 64, 82
1, 137213, Control_c, 0, 64, 87
1, 137228, Control_c, 0, 64, 91
1, 137231, Note_off_c, 0, 37, 48
1, 137240, Note_on_c, 0, 49, 40
1, 137242, Note_on_c, 0, 61, 50
1, 137243, Control_c, 0, 64, 94
1, 137254, Note_on_c, 0, 57, 33
1, 137258, Control_c, 0, 64, 95
1, 137272, Note_off_c, 0, 49, 52
1, 137273, Control_c, 0, 64, 95
1, 137293, Note_off_c, 0, 57, 48
1, 137302, Control_c, 0, 64, 96
1, 137392, Control_c, 0, 64, 95
1, 137406, Control_c, 0, 64, 93
1, 137421, Control_c, 0, 64, 85
1, 137425, Note_off_c, 0, 42, 34
1, 137436, Control_c, 0, 64, 75
1, 137444, Note_on_c, 0, 67, 56
1, 137445, Note_off_c, 0, 61, 15
1, 137451, Control_c, 0, 64, 64
1, 137457, Note_on_c, 0, 35, 39
1, 137466, Control_c, 0, 64, 0
1, 137478, Note_off_c, 0, 66, 55
1, 137584, Control_c, 0, 64, 46
1, 137599, Control_c, 0, 64, 63
1, 137613, Control_c, 0, 64, 68
1, 137628, Control_c, 0, 64, 69
1, 137643, Control_c, 0, 64, 71
1, 137658, Control_c, 0, 64, 73
1, 137673, Control_c, 0, 64, 75
1, 137687, Control_c, 0, 64, 78
1, 137702, Control_c, 0, 64, 83
1, 137709, Note_on_c, 0, 63, 48
1, 137717, Control_c, 0, 64, 87
1, 137732, Control_c, 0, 64, 92
1, 137733, Note_on_c, 0, 47, 40
1, 137733, Note_on_c, 0, 57, 34
1, 137747, Control_c, 0, 64, 95
1, 137761, Control_c, 0, 64, 96
1, 137860, Note_off_c, 0, 57, 25
1, 137865, Note_off_c, 0, 35, 41
1, 137938, Note_off_c, 0, 63, 44
1, 137949, Note_off_c, 0, 47, 41
1, 138022, Control_c, 0, 64, 96
1, 138036, Control_c, 0, 64, 95
1, 138051, Control_c, 0, 64, 95
1, 138066, Control_c, 0, 64, 94
1, 138081, Control_c, 0, 64, 94
1, 138096, Control_c, 0, 64, 93
1, 138110, Control_c, 0, 64, 91
1, 138125, Control_c, 0, 64, 89
1, 138140, Control_c, 0, 64, 85
1, 138155, Control_c, 0, 64, 79
1, 138170, Control_c, 0, 64, 72
1, 138185, Control_c, 0, 64, 62
1, 138185, Note_on_c, 0, 64, 39
1, 138200, Note_on_c, 0, 60, 32
1, 138200, Control_c, 0, 64, 10
1, 138208, Note_on_c, 0, 34, 37
1, 138209, Note_off_c, 0, 67, 36
1, 138210, Note_on_c, 0, 55, 26
1, 138214, Control_c, 0, 64, 0
1, 138318, Control_c, 0, 64, 50
1, 138333, Control_c, 0, 64, 65
1, 138348, Control_c, 0, 64, 71
1, 138363, Note_off_c, 0, 34, 54
1, 138363, Control_c, 0, 64, 76
1, 138367, Note_on_c, 0, 46, 39
1, 138378, Control_c, 0, 64, 80
1, 138393, Control_c, 0, 64, 84
1, 138404, Note_off_c, 0, 46, 49
1, 138408, Control_c, 0, 64, 90
1, 138421, Note_off_c, 0, 55, 42
1, 138423, Control_c, 0, 64, 97
1, 138437, Control_c, 0, 64, 104
1, 138442, Note_off_c, 0, 60, 42
1, 138452, Control_c, 0, 64, 111
1, 138467, Control_c, 0, 64, 116
1, 138474, Note_off_c, 0, 64, 42
1, 138482, Control_c, 0, 64, 119
1, 138497, Control_c, 0, 64, 120
1, 138524, Note_on_c, 0, 52, 41
1, 138526, Control_c, 0, 64, 122
1, 138587, Note_off_c, 0, 52, 53
1, 138671, Note_on_c, 0, 55, 39
1, 138781, Note_off_c, 0, 55, 49
1, 138792, Note_on_c, 0, 54, 48
1, 138890, Note_off_c, 0, 54, 55
1, 138933, Note_on_c, 0, 57, 52
1, 139056, Note_on_c, 0, 60, 60
1, 139146, Note_off_c, 0, 57, 33
1, 139176, Note_on_c, 0, 66, 63
1, 139195, Note_off_c, 0, 60, 56
1, 139231, Poly_aftertouch_c, 0, 63, 127
1, 139258, Note_off_c, 0, 66, 61
1, 139275, Control_c, 0, 64, 115
1, 139276, Poly_aftertouch_c, 0, 63, 0
1, 139290, Control_c, 0, 64, 103
1, 139305, Control_c, 0, 64, 88
1, 139311, Note_on_c, 0, 67, 63
1, 139320, Control_c, 0, 64, 73
1, 139323, Note_on_c, 0, 64, 55
1, 139334, Control_c, 0, 64, 53
1, 139335, Note_on_c, 0, 34, 48
1, 139356, Control_c, 0, 64, 0
1, 139416, Control_c, 0, 64, 55
1, 139431, Control_c, 0, 64, 65
1, 139446, Control_c, 0, 64, 74
1, 139460, Control_c, 0, 64, 85
1, 139469, Note_on_c, 0, 46, 56
1, 139474, Note_off_c, 0, 34, 64
1, 139475, Control_c, 0, 64, 101
1, 139490, Control_c, 0, 64, 127
1, 139511, Note_off_c, 0, 46, 61
1, 139535, Control_c, 0, 67, 118
1, 139550, Control_c, 0, 67, 107
1, 139565, Control_c, 0, 67, 98
1, 139580, Control_c, 0, 67, 89
1, 139595, Control_c, 0, 67, 79
1, 139609, Control_c, 0, 67, 68
1, 139621, Note_on_c, 0, 52, 59
1, 139624, Control_c, 0, 67, 52
1, 139627, Note_on_c, 0, 60, 35
1, 139639, Control_c, 0, 67, 38
1, 139648, Note_off_c, 0, 67, 51
1, 139654, Control_c, 0, 67, 24
1, 139660, Note_off_c, 0, 64, 51
1, 139664, Note_off_c, 0, 60, 60
1, 139669, Control_c, 0, 67, 0
1, 139710, Note_off_c, 0, 52, 64
1, 139743, Note_on_c, 0, 55, 55
1, 139869, Note_on_c, 0, 54, 66
1, 139874, Note_off_c, 0, 55, 62
1, 139998, Note_on_c, 0, 57, 68
1, 140018, Note_off_c, 0, 54, 58
1, 140124, Note_on_c, 0, 60, 77
1, 140160, Note_off_c, 0, 57, 54
1, 140234, Note_on_c, 0, 66, 78
1, 140241, Note_on_c, 0, 63, 67
1, 140289, Note_off_c, 0, 60, 57
1, 140319, Note_off_c, 0, 63, 60
1, 140325, Note_off_c, 0, 66, 63
1, 140367, Note_on_c, 0, 67, 79
1, 140373, Note_on_c, 0, 34, 71
1, 140373, Control_c, 0, 64, 84
1, 140378, Note_on_c, 0, 64, 70
1, 140388, Control_c, 0, 64, 56
1, 140402, Control_c, 0, 64, 0
1, 140432, Control_c, 0, 64, 53
1, 140447, Control_c, 0, 64, 72
1, 140462, Control_c, 0, 64, 100
1, 140477, Control_c, 0, 64, 127
1, 140483, Note_off_c, 0, 34, 62
1, 140498, Note_on_c, 0, 46, 65
1, 140535, Note_off_c, 0, 46, 62
1, 140651, Note_on_c, 0, 52, 63
1, 140662, Note_off_c, 0, 64, 61
1, 140682, Note_off_c, 0, 67, 54
1, 140778, Note_on_c, 0, 55, 75
1, 140917, Note_on_c, 0, 60, 84
1, 140975, Note_off_c, 0, 60, 65
1, 141000, Note_off_c, 0, 52, 61
1, 141011, Note_off_c, 0, 55, 62
1, 141037, Note_on_c, 0, 64, 86
1, 141174, Note_on_c, 0, 67, 87
1, 141206, Note_off_c, 0, 64, 61
1, 141306, Note_on_c, 0, 76, 88
1, 141321, Note_off_c, 0, 67, 61
1, 141580, Note_on_c, 0, 75, 77
1, 141585, Note_on_c, 0, 35, 84
1, 141607, Note_off_c, 0, 76, 60
1, 141677, Control_c, 0, 64, 82
1, 141692, Control_c, 0, 64, 57
1, 141707, Control_c, 0, 64, 0
1, 141810, Control_c, 0, 64, 41
1, 141815, Note_on_c, 0, 74, 81
1, 141825, Control_c, 0, 64, 65
1, 141837, Note_off_c, 0, 75, 64
1, 141840, Control_c, 0, 64, 74
1, 141854, Control_c, 0, 64, 91
1, 141869, Control_c, 0, 64, 127
1, 141965, Note_on_c, 0, 73, 90
1, 141988, Note_off_c, 0, 74, 62
1, 142089, Note_on_c, 0, 72, 86
1, 142093, Note_on_c, 0, 36, 67
1, 142100, Note_off_c, 0, 35, 61
1, 142142, Note_off_c, 0, 73, 56
1, 142228, Note_on_c, 0, 71, 86
1, 142248, Note_on_c, 0, 37, 72
1, 142263, Note_off_c, 0, 36, 60
1, 142353, Note_off_c, 0, 72, 32
1, 142366, Note_off_c, 0, 37, 64
1, 142367, Note_on_c, 0, 70, 90
1, 142372, Note_on_c, 0, 67, 79
1, 142379, Note_on_c, 0, 38, 67
1, 142379, Note_on_c, 0, 61, 79
1, 142402, Note_off_c, 0, 71, 57
1, 142444, Note_off_c, 0, 38, 54
1, 142472, Note_off_c, 0, 67, 56
1, 142501, Note_off_c, 0, 70, 59
1, 142513, Note_on_c, 0, 39, 45
1, 142513, Note_off_c, 0, 61, 57
1, 142552, Note_on_c, 0, 69, 90
1, 142558, Note_off_c, 0, 39, 63
1, 142568, Note_on_c, 0, 40, 65
1, 142612, Note_off_c, 0, 40, 61
1, 142638, Note_on_c, 0, 39, 66
1, 142683, Note_off_c, 0, 39, 60
1, 142701, Note_on_c, 0, 40, 74
1, 142748, Note_off_c, 0, 40, 58
1, 142781, Note_on_c, 0, 39, 60
1, 142819, Note_on_c, 0, 68, 93
1, 142827, Note_on_c, 0, 60, 73
1, 142828, Note_on_c, 0, 66, 85
1, 142842, Note_off_c, 0, 69, 65
1, 142850, Note_off_c, 0, 39, 61
1, 142862, Note_on_c, 0, 40, 72
1, 142882, Note_off_c, 0, 60, 62
1, 142901, Note_off_c, 0, 66, 64
1, 142909, Note_off_c, 0, 68, 62
1, 142917, Note_off_c, 0, 40, 58
1, 142948, Note_on_c, 0, 39, 54
1, 143019, Note_off_c, 0, 39, 53
1, 143041, Note_on_c, 0, 40, 64
1, 143122, Note_off_c, 0, 40, 0
1, 143137, Note_on_c, 0, 40, 45
1, 143166, Note_on_c, 0, 67, 85
1, 143204, Control_c, 0, 64, 75
1, 143219, Control_c, 0, 64, 36
1, 143234, Control_c, 0, 64, 0
1, 143304, Note_on_c, 0, 48, 41
1, 143382, Control_c, 0, 64, 57
1, 143388, Note_on_c, 0, 60, 55
1, 143397, Control_c, 0, 64, 64
1, 143412, Control_c, 0, 64, 68
1, 143415, Note_on_c, 0, 55, 28
1, 143426, Control_c, 0, 64, 73
1, 143437, Note_off_c, 0, 67, 58
1, 143441, Control_c, 0, 64, 86
1, 143456, Control_c, 0, 64, 127
1, 143534, Note_on_c, 0, 66, 81
1, 143536, Note_off_c, 0, 48, 61
1, 143589, Note_off_c, 0, 55, 43
1, 143603, Note_off_c, 0, 60, 38
1, 143631, Note_off_c, 0, 40, 56
1, 143672, Note_on_c, 0, 48, 48
1, 143673, Note_on_c, 0, 64, 74
1, 143693, Note_off_c, 0, 66, 64
1, 143710, Note_off_c, 0, 48, 48
1, 143714, Note_on_c, 0, 55, 14
1, 143752, Note_off_c, 0, 55, 53
1, 143830, Note_on_c, 0, 63, 76
1, 143848, Note_on_c, 0, 43, 49
1, 143853, Note_off_c, 0, 64, 59
1, 143864, Control_c, 0, 64, 80
1, 143879, Control_c, 0, 64, 58
1, 143894, Control_c, 0, 64, 0
1, 143968, Control_c, 0, 64, 34
1, 143983, Control_c, 0, 64, 61
1, 143984, Note_on_c, 0, 60, 56
1, 143989, Note_on_c, 0, 48, 40
1, 143991, Note_on_c, 0, 57, 45
1, 143997, Control_c, 0, 64, 67
1, 144012, Control_c, 0, 64, 72
1, 144027, Control_c, 0, 64, 79
1, 144042, Control_c, 0, 64, 87
1, 144057, Control_c, 0, 64, 102
1, 144072, Control_c, 0, 64, 127
1, 144133, Note_on_c, 0, 42, 52
1, 144135, Note_on_c, 0, 64, 62
1, 144151, Note_off_c, 0, 48, 38
1, 144204, Note_off_c, 0, 64, 58
1, 144215, Note_off_c, 0, 63, 42
1, 144227, Note_off_c, 0, 43, 37
1, 144254, Note_on_c, 0, 66, 70
1, 144254, Note_off_c, 0, 42, 49
1, 144256, Note_off_c, 0, 60, 0
1, 144272, Note_on_c, 0, 40, 54
1, 144284, Note_off_c, 0, 66, 62
1, 144293, Poly_aftertouch_c, 0, 60, 127
1, 144303, Note_off_c, 0, 57, 22
1, 144333, Poly_aftertouch_c, 0, 60, 0
1, 144394, Note_on_c, 0, 66, 70
1, 144411, Note_on_c, 0, 39, 52
1, 144413, Control_c, 0, 64, 106
1, 144428, Control_c, 0, 64, 75
1, 144443, Control_c, 0, 64, 59
1, 144448, Note_off_c, 0, 40, 47
1, 144458, Control_c, 0, 64, 0
1, 144502, Control_c, 0, 64, 45
1, 144516, Control_c, 0, 64, 65
1, 144531, Control_c, 0, 64, 73
1, 144539, Note_on_c, 0, 57, 60
1, 144544, Note_on_c, 0, 47, 54
1, 144546, Control_c, 0, 64, 83
1, 144561, Control_c, 0, 64, 97
1, 144576, Control_c, 0, 64, 127
1, 144638, Note_off_c, 0, 57, 0
1, 144653, Note_off_c, 0, 39, 52
1, 144659, Note_on_c, 0, 57, 16
1, 144669, Note_on_c, 0, 60, 65
1, 144674, Note_on_c, 0, 40, 58
1, 144699, Note_off_c, 0, 57, 48
1, 144731, Note_off_c, 0, 40, 63
1, 144761, Note_off_c, 0, 47, 36
1, 144781, Note_on_c, 0, 59, 65
1, 144795, Note_off_c, 0, 60, 37
1, 144797, Note_on_c, 0, 42, 65
1, 144807, Note_on_c, 0, 57, 40
1, 144829, Note_off_c, 0, 42, 63
1, 144843, Note_off_c, 0, 66, 50
1, 144860, Note_off_c, 0, 57, 43
1, 144890, Note_off_c, 0, 59, 0
1, 144918, Note_on_c, 0, 61, 78
1, 144919, Note_on_c, 0, 42, 66
1, 144927, Poly_aftertouch_c, 0, 59, 127
1, 144934, Note_on_c, 0, 57, 41
1, 144954, Control_c, 0, 64, 67
1, 144969, Control_c, 0, 64, 0
1, 145014, Control_c, 0, 64, 54
1, 145025, Note_on_c, 0, 47, 63
1, 145029, Control_c, 0, 64, 82
1, 145033, Note_on_c, 0, 59, 16
1, 145034, Note_on_c, 0, 63, 77
1, 145044, Control_c, 0, 64, 127
1, 145065, Note_off_c, 0, 42, 46
1, 145115, Note_off_c, 0, 61, 57
1, 145151, Note_on_c, 0, 64, 82
1, 145160, Note_off_c, 0, 59, 37
1, 145166, Note_on_c, 0, 36, 63
1, 145172, Note_off_c, 0, 63, 58
1, 145208, Note_off_c, 0, 64, 64
1, 145209, Note_off_c, 0, 57, 56
1, 145236, Note_off_c, 0, 36, 58
1, 145272, Note_on_c, 0, 66, 85
1, 145275, Note_on_c, 0, 57, 17
1, 145291, Poly_aftertouch_c, 0, 35, 127
1, 145301, Note_on_c, 0, 63, 40
1, 145318, Note_off_c, 0, 47, 38
1, 145318, Note_off_c, 0, 57, 51
1, 145321, Poly_aftertouch_c, 0, 35, 0
1, 145323, Note_off_c, 0, 63, 60
1, 145335, Note_off_c, 0, 66, 59
1, 145398, Note_on_c, 0, 67, 83
1, 145407, Control_c, 0, 64, 64
1, 145413, Note_on_c, 0, 40, 73
1, 145421, Control_c, 0, 64, 0
1, 145436, Control_c, 0, 64, 56
1, 145443, Note_off_c, 0, 40, 65
1, 145451, Control_c, 0, 64, 84
1, 145466, Control_c, 0, 64, 127
1, 145533, Note_on_c, 0, 64, 77
1, 145536, Note_on_c, 0, 59, 76
1, 145545, Note_on_c, 0, 55, 49
1, 145572, Note_off_c, 0, 67, 56
1, 145604, Note_off_c, 0, 55, 53
1, 145652, Note_on_c, 0, 66, 84
1, 145659, Note_on_c, 0, 54, 55
1, 145713, Note_off_c, 0, 64, 54
1, 145738, Note_off_c, 0, 54, 57
1, 145758, Note_on_c, 0, 52, 64
1, 145763, Note_on_c, 0, 67, 84
1, 145773, Note_off_c, 0, 66, 59
1, 145795, Note_off_c, 0, 52, 64
1, 145822, Note_off_c, 0, 67, 62
1, 145826, Note_off_c, 0, 59, 34
1, 145895, Control_c, 0, 64, 84
1, 145905, Note_on_c, 0, 69, 88
1, 145908, Note_on_c, 0, 45, 82
1, 145910, Control_c, 0, 64, 56
1, 145926, Control_c, 0, 64, 0
1, 145956, Control_c, 0, 64, 54
1, 145970, Control_c, 0, 64, 127
1, 146005, Note_off_c, 0, 45, 64
1, 146038, Note_on_c, 0, 71, 79
1, 146048, Note_on_c, 0, 64, 67
1, 146097, Note_on_c, 0, 60, 54
1, 146099, Note_off_c, 0, 69, 39
1, 146135, Note_off_c, 0, 60, 60
1, 146177, Note_off_c, 0, 64, 34
1, 146180, Note_on_c, 0, 67, 82
1, 146191, Note_off_c, 0, 71, 59
1, 146228, Note_on_c, 0, 59, 43
1, 146257, Note_off_c, 0, 59, 55
1, 146296, Note_on_c, 0, 69, 82
1, 146331, Note_off_c, 0, 67, 57
1, 146462, Note_on_c, 0, 71, 83
1, 146462, Note_off_c, 0, 69, 62
1, 146472, Note_on_c, 0, 40, 70
1, 146495, Control_c, 0, 64, 85
1, 146510, Control_c, 0, 64, 0
1, 146570, Control_c, 0, 64, 61
1, 146585, Control_c, 0, 64, 76
1, 146600, Control_c, 0, 64, 127
1, 146627, Note_off_c, 0, 40, 63
1, 146634, Note_on_c, 0, 67, 68
1, 146644, Note_on_c, 0, 59, 53
1, 146645, Note_on_c, 0, 64, 56
1, 146683, Note_off_c, 0, 59, 46
1, 146733, Note_off_c, 0, 64, 33
1, 146758, Note_off_c, 0, 67, 36
1, 146780, Note_on_c, 0, 57, 70
1, 146917, Note_off_c, 0, 57, 59
1, 146920, Note_on_c, 0, 55, 59
1, 146922, Note_on_c, 0, 67, 58
1, 146926, Note_off_c, 0, 71, 57
1, 146936, Note_on_c, 0, 64, 37
1, 146951, Note_off_c, 0, 67, 65
1, 146974, Note_off_c, 0, 64, 49
1, 147118, Note_on_c, 0, 54, 57
1, 147121, Note_off_c, 0, 55, 57
1, 147123, Note_on_c, 0, 74, 82
1, 147126, Control_c, 0, 64, 107
1, 147141, Control_c, 0, 64, 71
1, 147156, Control_c, 0, 64, 45
1, 147171, Control_c, 0, 64, 0
1, 147230, Control_c, 0, 64, 57
1, 147245, Control_c, 0, 64, 67
1, 147260, Control_c, 0, 64, 77
1, 147274, Control_c, 0, 64, 99
1, 147289, Control_c, 0, 64, 127
1, 147315, Note_on_c, 0, 52, 58
1, 147329, Note_off_c, 0, 54, 60
1, 147336, Note_on_c, 0, 60, 41
1, 147336, Note_on_c, 0, 69, 27
1, 147339, Note_on_c, 0, 62, 34
1, 147347, Note_off_c, 0, 52, 68
1, 147389, Note_off_c, 0, 69, 45
1, 147428, Note_off_c, 0, 60, 55
1, 147458, Note_on_c, 0, 50, 52
1, 147466, Note_off_c, 0, 62, 37
1, 147528, Note_off_c, 0, 50, 49
1, 147597, Note_on_c, 0, 45, 52
1, 147601, Note_on_c, 0, 69, 62
1, 147625, Note_off_c, 0, 74, 62
1, 147739, Note_off_c, 0, 45, 49
1, 147796, Note_on_c, 0, 38, 56
1, 147845, Control_c, 0, 64, 90
1, 147860, Control_c, 0, 64, 61
1, 147862, Note_on_c, 0, 71, 76
1, 147875, Note_off_c, 0, 69, 52
1, 147875, Control_c, 0, 64, 0
1, 147948, Control_c, 0, 64, 50
1, 147963, Control_c, 0, 64, 65
1, 147978, Control_c, 0, 64, 71
1, 147993, Control_c, 0, 64, 78
1, 148007, Note_off_c, 0, 38, 53
1, 148008, Control_c, 0, 64, 87
1, 148022, Control_c, 0, 64, 99
1, 148037, Control_c, 0, 64, 127
1, 148146, Note_on_c, 0, 60, 48
1, 148148, Note_on_c, 0, 62, 35
1, 148163, Note_on_c, 0, 55, 28
1, 148275, Note_on_c, 0, 69, 71
1, 148280, Note_on_c, 0, 54, 48
1, 148299, Note_off_c, 0, 55, 41
1, 148315, Note_off_c, 0, 71, 57
1, 148364, Note_off_c, 0, 54, 46
1, 148378, Note_off_c, 0, 62, 42
1, 148390, Note_off_c, 0, 60, 35
1, 148411, Note_on_c, 0, 59, 52
1, 148412, Note_on_c, 0, 67, 75
1, 148445, Note_off_c, 0, 59, 61
1, 148445, Note_off_c, 0, 69, 59
1, 148555, Note_on_c, 0, 66, 76
1, 148585, Note_on_c, 0, 59, 43
1, 148588, Note_off_c, 0, 67, 56
1, 148609, Control_c, 0, 64, 101
1, 148624, Control_c, 0, 64, 75
1, 148639, Control_c, 0, 64, 61
1, 148654, Control_c, 0, 64, 0
1, 148701, Note_on_c, 0, 60, 54
1, 148706, Note_on_c, 0, 62, 47
1, 148713, Control_c, 0, 64, 38
1, 148728, Control_c, 0, 64, 62
1, 148743, Control_c, 0, 64, 68
1, 148758, Control_c, 0, 64, 72
1, 148772, Control_c, 0, 64, 77
1, 148787, Control_c, 0, 64, 85
1, 148802, Control_c, 0, 64, 102
1, 148817, Control_c, 0, 64, 127
1, 148830, Note_on_c, 0, 57, 52
1, 148836, Note_on_c, 0, 67, 70
1, 148854, Note_off_c, 0, 59, 37
1, 148957, Note_off_c, 0, 66, 62
1, 148958, Note_on_c, 0, 69, 74
1, 148980, Note_on_c, 0, 55, 51
1, 148996, Note_off_c, 0, 67, 57
1, 148999, Note_off_c, 0, 57, 49
1, 149003, Note_off_c, 0, 62, 23
1, 149014, Note_off_c, 0, 69, 62
1, 149022, Note_off_c, 0, 60, 23
1, 149104, Note_on_c, 0, 69, 72
1, 149105, Control_c, 0, 64, 116
1, 149112, Note_on_c, 0, 54, 52
1, 149117, Note_off_c, 0, 55, 55
1, 149121, Control_c, 0, 64, 80
1, 149136, Control_c, 0, 64, 64
1, 149151, Control_c, 0, 64, 0
1, 149210, Control_c, 0, 64, 57
1, 149225, Control_c, 0, 64, 68
1, 149240, Control_c, 0, 64, 75
1, 149245, Note_on_c, 0, 62, 65
1, 149255, Control_c, 0, 64, 85
1, 149259, Note_on_c, 0, 60, 55
1, 149269, Control_c, 0, 64, 99
1, 149284, Control_c, 0, 64, 127
1, 149381, Note_on_c, 0, 55, 57
1, 149386, Note_on_c, 0, 64, 71
1, 149394, Note_off_c, 0, 62, 59
1, 149446, Note_off_c, 0, 60, 42
1, 149500, Note_on_c, 0, 62, 76
1, 149504, Note_off_c, 0, 55, 63
1, 149506, Note_on_c, 0, 57, 59
1, 149530, Note_on_c, 0, 60, 55
1, 149539, Note_off_c, 0, 57, 63
1, 149545, Note_off_c, 0, 64, 36
1, 149559, Note_off_c, 0, 54, 34
1, 149604, Note_off_c, 0, 69, 61
1, 149634, Note_on_c, 0, 57, 63
1, 149643, Note_on_c, 0, 64, 72
1, 149655, Control_c, 0, 64, 96
1, 149669, Control_c, 0, 64, 48
1, 149684, Control_c, 0, 64, 0
1, 149713, Control_c, 0, 64, 34
1, 149728, Control_c, 0, 64, 77
1, 149743, Control_c, 0, 64, 127
1, 149764, Note_on_c, 0, 66, 80
1, 149765, Note_on_c, 0, 50, 68
1, 149787, Note_off_c, 0, 57, 55
1, 149864, Note_off_c, 0, 64, 62
1, 149881, Note_off_c, 0, 50, 60
1, 149888, Note_on_c, 0, 52, 68
1, 149891, Note_on_c, 0, 67, 81
1, 149894, Note_off_c, 0, 66, 59
1, 149945, Note_off_c, 0, 62, 36
1, 149962, Note_off_c, 0, 67, 64
1, 149984, Note_off_c, 0, 52, 55
1, 150010, Note_on_c, 0, 50, 63
1, 150013, Note_on_c, 0, 69, 79
1, 150034, Note_off_c, 0, 60, 25
1, 150048, Note_off_c, 0, 50, 58
1, 150075, Note_off_c, 0, 69, 63
1, 150136, Control_c, 0, 64, 62
1, 150138, Note_on_c, 0, 71, 81
1, 150144, Note_on_c, 0, 43, 87
1, 150151, Control_c, 0, 64, 0
1, 150210, Control_c, 0, 64, 87
1, 150225, Note_off_c, 0, 43, 61
1, 150225, Control_c, 0, 64, 127
1, 150271, Note_on_c, 0, 62, 72
1, 150305, Note_on_c, 0, 59, 58
1, 150368, Note_off_c, 0, 71, 56
1, 150391, Note_off_c, 0, 59, 59
1, 150403, Note_on_c, 0, 70, 82
1, 150407, Note_off_c, 0, 62, 0
1, 150407, Note_on_c, 0, 62, 16
1, 150417, Note_on_c, 0, 57, 69
1, 150454, Note_off_c, 0, 62, 53
1, 150495, Note_off_c, 0, 57, 59
1, 150523, Note_on_c, 0, 71, 85
1, 150532, Note_on_c, 0, 55, 72
1, 150560, Note_off_c, 0, 70, 56
1, 150575, Note_off_c, 0, 55, 59
1, 150575, Note_off_c, 0, 71, 62
1, 150648, Control_c, 0, 64, 77
1, 150663, Control_c, 0, 64, 0
1, 150666, Note_on_c, 0, 73, 89
1, 150672, Note_on_c, 0, 54, 66
1, 150704, Note_on_c, 0, 70, 33
1, 150707, Control_c, 0, 64, 59
1, 150722, Control_c, 0, 64, 127
1, 150740, Note_off_c, 0, 70, 54
1, 150800, Note_on_c, 0, 53, 76
1, 150807, Note_on_c, 0, 74, 85
1, 150820, Note_on_c, 0, 64, 78
1, 150831, Note_off_c, 0, 54, 59
1, 150832, Note_off_c, 0, 53, 67
1, 150882, Note_off_c, 0, 73, 21
1, 150937, Note_on_c, 0, 54, 79
1, 150942, Note_on_c, 0, 71, 86
1, 150942, Note_off_c, 0, 74, 52
1, 150993, Note_off_c, 0, 54, 58
1, 151065, Note_on_c, 0, 42, 58
1, 151074, Note_on_c, 0, 73, 87
1, 151125, Note_off_c, 0, 71, 58
1, 151169, Note_off_c, 0, 42, 54
1, 151187, Note_off_c, 0, 73, 58
1, 151187, Note_off_c, 0, 64, 60
1, 151226, Control_c, 0, 64, 61
1, 151240, Control_c, 0, 64, 0
1, 151253, Note_on_c, 0, 74, 91
1, 151254, Note_on_c, 0, 35, 103
1, 151299, Control_c, 0, 64, 127
1, 151312, Note_off_c, 0, 35, 64
1, 151450, Note_on_c, 0, 62, 69
1, 151455, Note_on_c, 0, 66, 64
1, 151462, Note_on_c, 0, 71, 58
1, 151504, Note_off_c, 0, 62, 55
1, 151554, Note_on_c, 0, 61, 57
1, 151561, Note_off_c, 0, 71, 52
1, 151567, Note_off_c, 0, 66, 37
1, 151648, Note_off_c, 0, 61, 59
1, 151695, Note_on_c, 0, 59, 52
1, 151708, Note_on_c, 0, 71, 64
1, 151709, Note_on_c, 0, 62, 64
1, 151709, Note_on_c, 0, 66, 68
1, 151727, Note_off_c, 0, 62, 66
1, 151733, Note_off_c, 0, 74, 61
1, 151735, Note_on_c, 0, 70, 37
1, 151737, Note_off_c, 0, 66, 67
1, 151757, Note_off_c, 0, 71, 59
1, 151767, Note_off_c, 0, 70, 39
1, 151876, Note_off_c, 0, 59, 51
1, 151892, Note_on_c, 0, 58, 62
1, 151900, Note_on_c, 0, 78, 93
1, 151930, Control_c, 0, 64, 67
1, 151945, Control_c, 0, 64, 0
1, 152046, Note_on_c, 0, 70, 63
1, 152049, Control_c, 0, 64, 45
1, 152052, Note_on_c, 0, 64, 51
1, 152061, Note_on_c, 0, 55, 55
1, 152064, Control_c, 0, 64, 64
1, 152067, Note_off_c, 0, 58, 61
1, 152086, Control_c, 0, 64, 70
1, 152101, Control_c, 0, 64, 78
1, 152110, Note_off_c, 0, 55, 63
1, 152115, Control_c, 0, 64, 99
1, 152130, Control_c, 0, 64, 127
1, 152211, Note_on_c, 0, 54, 62
1, 152220, Note_off_c, 0, 70, 58
1, 152234, Note_off_c, 0, 64, 58
1, 152278, Note_off_c, 0, 54, 43
1, 152343, Note_on_c, 0, 70, 64
1, 152346, Note_on_c, 0, 73, 66
1, 152349, Note_on_c, 0, 64, 61
1, 152350, Note_on_c, 0, 42, 63
1, 152351, Note_off_c, 0, 78, 63
1, 152384, Note_off_c, 0, 70, 60
1, 152385, Note_off_c, 0, 64, 63
1, 152404, Note_off_c, 0, 73, 57
1, 152501, Note_on_c, 0, 74, 78
1, 152505, Note_off_c, 0, 42, 61
1, 152511, Note_on_c, 0, 47, 49
1, 152517, Control_c, 0, 64, 97
1, 152531, Control_c, 0, 64, 68
1, 152546, Control_c, 0, 64, 0
1, 152635, Control_c, 0, 64, 42
1, 152649, Note_on_c, 0, 66, 58
1, 152650, Control_c, 0, 64, 61
1, 152657, Note_on_c, 0, 54, 54
1, 152657, Note_on_c, 0, 62, 49
1, 152664, Control_c, 0, 64, 65
1, 152679, Control_c, 0, 64, 68
1, 152694, Control_c, 0, 64, 71
1, 152709, Control_c, 0, 64, 78
1, 152724, Control_c, 0, 64, 93
1, 152738, Control_c, 0, 64, 127
1, 152755, Note_off_c, 0, 54, 55
1, 152786, Note_on_c, 0, 73, 75
1, 152840, Note_off_c, 0, 66, 45
1, 152853, Note_off_c, 0, 62, 36
1, 152918, Note_on_c, 0, 71, 71
1, 152925, Note_on_c, 0, 54, 46
1, 152929, Note_on_c, 0, 66, 60
1, 152937, Note_off_c, 0, 74, 61
1, 152954, Note_on_c, 0, 62, 42
1, 152955, Note_off_c, 0, 73, 28
1, 152964, Note_off_c, 0, 54, 57
1, 153001, Note_off_c, 0, 62, 44
1, 153025, Note_off_c, 0, 66, 59
1, 153052, Note_off_c, 0, 47, 41
1, 153065, Note_on_c, 0, 42, 55
1, 153069, Note_on_c, 0, 73, 72
1, 153101, Control_c, 0, 64, 77
1, 153110, Note_off_c, 0, 71, 49
1, 153117, Control_c, 0, 64, 55
1, 153132, Control_c, 0, 64, 0
1, 153176, Control_c, 0, 64, 18
1, 153191, Control_c, 0, 64, 61
1, 153206, Control_c, 0, 64, 70
1, 153208, Note_on_c, 0, 54, 53
1, 153214, Note_on_c, 0, 62, 40
1, 153214, Note_on_c, 0, 66, 45
1, 153221, Control_c, 0, 64, 75
1, 153235, Control_c, 0, 64, 81
1, 153244, Note_off_c, 0, 62, 53
1, 153250, Control_c, 0, 64, 91
1, 153265, Control_c, 0, 64, 117
1, 153277, Note_off_c, 0, 66, 39
1, 153280, Control_c, 0, 64, 127
1, 153308, Note_off_c, 0, 73, 58
1, 153331, Note_on_c, 0, 74, 75
1, 153341, Note_off_c, 0, 54, 51
1, 153362, Note_off_c, 0, 42, 60
1, 153469, Note_on_c, 0, 70, 69
1, 153483, Note_on_c, 0, 66, 54
1, 153488, Note_on_c, 0, 54, 40
1, 153493, Note_on_c, 0, 64, 36
1, 153521, Note_off_c, 0, 66, 56
1, 153531, Note_off_c, 0, 54, 52
1, 153531, Note_off_c, 0, 70, 60
1, 153539, Note_off_c, 0, 64, 47
1, 153629, Control_c, 0, 64, 92
1, 153643, Note_on_c, 0, 71, 60
1, 153643, Control_c, 0, 64, 65
1, 153651, Note_on_c, 0, 47, 55
1, 153658, Control_c, 0, 64, 0
1, 153681, Note_off_c, 0, 74, 58
1, 153717, Control_c, 0, 64, 58
1, 153732, Control_c, 0, 64, 66
1, 153747, Control_c, 0, 64, 70
1, 153761, Control_c, 0, 64, 74
1, 153773, Note_on_c, 0, 66, 58
1, 153775, Note_on_c, 0, 62, 55
1, 153776, Control_c, 0, 64, 81
1, 153788, Note_on_c, 0, 54, 57
1, 153791, Control_c, 0, 64, 93
1, 153795, Note_off_c, 0, 66, 65
1, 153796, Note_off_c, 0, 62, 60
1, 153805, Control_c, 0, 64, 113
1, 153820, Control_c, 0, 64, 127
1, 153865, Control_c, 0, 64, 100
1, 153879, Control_c, 0, 64, 70
1, 153894, Control_c, 0, 64, 0
1, 153897, Note_on_c, 0, 57, 70
1, 153921, Note_off_c, 0, 54, 58
1, 153936, Note_off_c, 0, 57, 62
1, 153942, Note_on_c, 0, 55, 59
1, 153957, Note_off_c, 0, 47, 41
1, 154046, Note_on_c, 0, 66, 61
1, 154065, Note_off_c, 0, 55, 64
1, 154073, Note_off_c, 0, 66, 68
1, 154076, Note_on_c, 0, 54, 54
1, 154083, Note_off_c, 0, 71, 59
1, 154195, Note_on_c, 0, 73, 75
1, 154201, Note_off_c, 0, 54, 62
1, 154216, Note_on_c, 0, 53, 54
1, 154324, Note_off_c, 0, 53, 63
1, 154361, Note_on_c, 0, 54, 59
1, 154362, Note_on_c, 0, 70, 57
1, 154362, Control_c, 0, 64, 46
1, 154373, Note_on_c, 0, 66, 46
1, 154376, Note_on_c, 0, 64, 43
1, 154377, Control_c, 0, 64, 61
1, 154392, Control_c, 0, 64, 66
1, 154407, Control_c, 0, 64, 69
1, 154422, Control_c, 0, 64, 72
1, 154436, Control_c, 0, 64, 75
1, 154451, Control_c, 0, 64, 80
1, 154466, Control_c, 0, 64, 85
1, 154474, Note_off_c, 0, 54, 56
1, 154481, Control_c, 0, 64, 91
1, 154496, Control_c, 0, 64, 97
1, 154499, Note_off_c, 0, 66, 24
1, 154502, Note_on_c, 0, 42, 54
1, 154510, Control_c, 0, 64, 103
1, 154516, Note_off_c, 0, 64, 21
1, 154525, Control_c, 0, 64, 107
1, 154540, Control_c, 0, 64, 109
1, 154555, Control_c, 0, 64, 110
1, 154570, Control_c, 0, 64, 111
1, 154636, Note_on_c, 0, 54, 41
1, 154646, Note_on_c, 0, 66, 56
1, 154655, Note_on_c, 0, 64, 43
1, 154663, Note_off_c, 0, 73, 58
1, 154673, Note_off_c, 0, 66, 65
1, 154682, Note_off_c, 0, 64, 57
1, 154688, Control_c, 0, 64, 110
1, 154704, Control_c, 0, 64, 109
1, 154706, Note_off_c, 0, 70, 53
1, 154719, Control_c, 0, 64, 104
1, 154733, Control_c, 0, 64, 94
1, 154744, Note_off_c, 0, 54, 35
1, 154748, Control_c, 0, 64, 80
1, 154749, Note_off_c, 0, 42, 54
1, 154763, Control_c, 0, 64, 67
1, 154778, Control_c, 0, 64, 37
1, 154782, Note_on_c, 0, 74, 66
1, 154788, Note_on_c, 0, 47, 45
1, 154793, Control_c, 0, 64, 0
1, 154896, Control_c, 0, 64, 60
1, 154911, Control_c, 0, 64, 68
1, 154926, Note_on_c, 0, 66, 53
1, 154926, Control_c, 0, 64, 73
1, 154939, Note_on_c, 0, 62, 41
1, 154940, Control_c, 0, 64, 76
1, 154941, Note_on_c, 0, 54, 43
1, 154955, Control_c, 0, 64, 80
1, 154970, Control_c, 0, 64, 86
1, 154985, Control_c, 0, 64, 98
1, 154998, Note_off_c, 0, 54, 53
1, 155000, Control_c, 0, 64, 127
1, 155065, Note_on_c, 0, 73, 73
1, 155119, Note_off_c, 0, 66, 49
1, 155125, Note_off_c, 0, 62, 18
1, 155191, Note_off_c, 0, 74, 63
1, 155197, Note_on_c, 0, 71, 66
1, 155209, Note_on_c, 0, 54, 40
1, 155211, Note_on_c, 0, 66, 54
1, 155214, Note_off_c, 0, 73, 50
1, 155252, Note_off_c, 0, 54, 58
1, 155260, Note_on_c, 0, 62, 3
1, 155289, Note_off_c, 0, 47, 41
1, 155303, Note_off_c, 0, 62, 48
1, 155319, Control_c, 0, 64, 90
1, 155333, Control_c, 0, 64, 67
1, 155335, Note_on_c, 0, 42, 46
1, 155337, Note_on_c, 0, 73, 73
1, 155348, Control_c, 0, 64, 0
1, 155372, Note_off_c, 0, 66, 24
1, 155407, Control_c, 0, 64, 60
1, 155411, Note_off_c, 0, 71, 32
1, 155422, Control_c, 0, 64, 69
1, 155437, Control_c, 0, 64, 77
1, 155452, Control_c, 0, 64, 84
1, 155466, Control_c, 0, 64, 91
1, 155471, Note_on_c, 0, 76, 78
1, 155475, Note_on_c, 0, 54, 47
1, 155481, Control_c, 0, 64, 108
1, 155491, Note_on_c, 0, 66, 53
1, 155496, Control_c, 0, 64, 127
1, 155519, Note_on_c, 0, 64, 29
1, 155522, Note_off_c, 0, 54, 59
1, 155536, Note_off_c, 0, 66, 56
1, 155537, Note_off_c, 0, 76, 62
1, 155555, Note_off_c, 0, 64, 50
1, 155557, Note_off_c, 0, 73, 36
1, 155609, Note_on_c, 0, 74, 82
1, 155674, Note_off_c, 0, 42, 34
1, 155731, Note_on_c, 0, 70, 74
1, 155739, Note_on_c, 0, 54, 49
1, 155748, Note_on_c, 0, 66, 57
1, 155761, Note_on_c, 0, 64, 33
1, 155776, Note_off_c, 0, 66, 67
1, 155778, Note_off_c, 0, 54, 62
1, 155790, Note_off_c, 0, 70, 62
1, 155798, Note_off_c, 0, 64, 54
1, 155875, Control_c, 0, 64, 84
1, 155887, Note_on_c, 0, 71, 69
1, 155889, Control_c, 0, 64, 62
1, 155901, Note_on_c, 0, 47, 48
1, 155904, Control_c, 0, 64, 0
1, 155911, Note_off_c, 0, 74, 56
1, 155993, Control_c, 0, 64, 55
1, 156008, Control_c, 0, 64, 67
1, 156022, Note_on_c, 0, 66, 63
1, 156023, Control_c, 0, 64, 76
1, 156034, Note_on_c, 0, 62, 44
1, 156037, Control_c, 0, 64, 85
1, 156049, Note_on_c, 0, 54, 33
1, 156052, Control_c, 0, 64, 93
1, 156055, Note_off_c, 0, 66, 62
1, 156066, Note_off_c, 0, 62, 52
1, 156067, Control_c, 0, 64, 105
1, 156082, Control_c, 0, 64, 127
1, 156084, Note_off_c, 0, 54, 45
1, 156112, Control_c, 0, 67, 12
1, 156127, Control_c, 0, 67, 15
1, 156142, Control_c, 0, 67, 18
1, 156156, Control_c, 0, 67, 20
1, 156171, Control_c, 0, 64, 87
1, 156171, Control_c, 0, 67, 22
1, 156174, Note_on_c, 0, 74, 70
1, 156186, Control_c, 0, 64, 65
1, 156186, Control_c, 0, 67, 23
1, 156195, Note_off_c, 0, 71, 51
1, 156196, Note_on_c, 0, 42, 40
1, 156201, Control_c, 0, 64, 0
1, 156201, Control_c, 0, 67, 26
1, 156204, Note_off_c, 0, 47, 44
1, 156215, Control_c, 0, 67, 28
1, 156230, Control_c, 0, 67, 30
1, 156245, Control_c, 0, 67, 29
1, 156260, Control_c, 0, 64, 46
1, 156260, Control_c, 0, 67, 29
1, 156275, Control_c, 0, 64, 67
1, 156275, Control_c, 0, 67, 28
1, 156289, Control_c, 0, 64, 80
1, 156289, Control_c, 0, 67, 26
1, 156296, Note_on_c, 0, 70, 68
1, 156305, Control_c, 0, 64, 111
1, 156305, Control_c, 0, 67, 25
1, 156307, Note_on_c, 0, 54, 42
1, 156310, Note_on_c, 0, 66, 56
1, 156311, Note_on_c, 0, 64, 49
1, 156320, Control_c, 0, 64, 127
1, 156320, Control_c, 0, 67, 25
1, 156335, Control_c, 0, 67, 24
1, 156339, Note_off_c, 0, 64, 59
1, 156353, Note_off_c, 0, 66, 54
1, 156361, Note_off_c, 0, 70, 61
1, 156369, Note_off_c, 0, 54, 51
1, 156379, Control_c, 0, 67, 25
1, 156394, Control_c, 0, 67, 26
1, 156409, Control_c, 0, 64, 109
1, 156409, Control_c, 0, 67, 29
1, 156424, Control_c, 0, 64, 68
1, 156424, Control_c, 0, 67, 30
1, 156439, Control_c, 0, 64, 0
1, 156449, Note_on_c, 0, 71, 69
1, 156453, Control_c, 0, 67, 31
1, 156455, Note_on_c, 0, 47, 39
1, 156481, Note_off_c, 0, 74, 62
1, 156498, Control_c, 0, 64, 48
1, 156498, Control_c, 0, 67, 32
1, 156508, Note_off_c, 0, 42, 57
1, 156512, Control_c, 0, 64, 64
1, 156512, Control_c, 0, 67, 33
1, 156527, Control_c, 0, 64, 71
1, 156527, Control_c, 0, 67, 36
1, 156542, Control_c, 0, 64, 81
1, 156542, Control_c, 0, 67, 40
1, 156557, Control_c, 0, 64, 114
1, 156557, Control_c, 0, 67, 45
1, 156579, Control_c, 0, 64, 127
1, 156579, Control_c, 0, 67, 48
1, 156583, Note_on_c, 0, 66, 65
1, 156592, Note_on_c, 0, 54, 37
1, 156594, Note_on_c, 0, 62, 44
1, 156594, Control_c, 0, 67, 50
1, 156609, Control_c, 0, 67, 53
1, 156621, Note_off_c, 0, 66, 54
1, 156623, Note_off_c, 0, 54, 53
1, 156624, Note_off_c, 0, 62, 53
1, 156624, Control_c, 0, 67, 58
1, 156638, Control_c, 0, 67, 63
1, 156653, Control_c, 0, 67, 66
1, 156668, Control_c, 0, 67, 69
1, 156683, Control_c, 0, 64, 80
1, 156683, Control_c, 0, 67, 73
1, 156698, Control_c, 0, 64, 47
1, 156698, Control_c, 0, 67, 77
1, 156712, Control_c, 0, 64, 0
1, 156712, Control_c, 0, 67, 83
1, 156715, Note_on_c, 0, 74, 71
1, 156727, Control_c, 0, 67, 89
1, 156729, Note_off_c, 0, 71, 56
1, 156734, Note_on_c, 0, 42, 45
1, 156741, Note_off_c, 0, 47, 47
1, 156742, Control_c, 0, 67, 95
1, 156757, Control_c, 0, 67, 100
1, 156772, Control_c, 0, 64, 37
1, 156772, Control_c, 0, 67, 104
1, 156786, Control_c, 0, 64, 62
1, 156786, Control_c, 0, 67, 108
1, 156801, Control_c, 0, 64, 68
1, 156801, Control_c, 0, 67, 113
1, 156816, Control_c, 0, 64, 76
1, 156816, Control_c, 0, 67, 119
1, 156830, Control_c, 0, 64, 92
1, 156830, Control_c, 0, 67, 127
1, 156845, Control_c, 0, 64, 127
1, 156850, Note_on_c, 0, 70, 67
1, 156859, Note_on_c, 0, 66, 57
1, 156864, Note_on_c, 0, 54, 45
1, 156875, Note_on_c, 0, 64, 34
1, 156896, Note_off_c, 0, 66, 58
1, 156908, Note_off_c, 0, 64, 52
1, 156910, Note_off_c, 0, 54, 56
1, 156911, Note_off_c, 0, 70, 61
1, 156964, Control_c, 0, 64, 74
1, 156979, Control_c, 0, 64, 0
1, 156991, Note_off_c, 0, 42, 54
1, 157000, Note_on_c, 0, 47, 46
1, 157000, Note_on_c, 0, 71, 63
1, 157012, Note_off_c, 0, 74, 56
1, 157053, Control_c, 0, 64, 45
1, 157068, Control_c, 0, 64, 63
1, 157083, Control_c, 0, 64, 70
1, 157098, Control_c, 0, 64, 80
1, 157113, Control_c, 0, 64, 94
1, 157128, Control_c, 0, 64, 127
1, 157133, Note_on_c, 0, 62, 56
1, 157144, Note_on_c, 0, 54, 33
1, 157167, Note_off_c, 0, 62, 56
1, 157179, Note_off_c, 0, 54, 45
1, 157229, Note_off_c, 0, 47, 36
1, 157247, Control_c, 0, 64, 89
1, 157261, Control_c, 0, 64, 65
1, 157271, Note_on_c, 0, 72, 63
1, 157276, Control_c, 0, 64, 0
1, 157288, Note_on_c, 0, 40, 45
1, 157290, Note_off_c, 0, 71, 57
1, 157388, Control_c, 0, 64, 48
1, 157402, Control_c, 0, 64, 65
1, 157417, Control_c, 0, 64, 74
1, 157423, Note_on_c, 0, 68, 58
1, 157427, Note_on_c, 0, 52, 53
1, 157432, Control_c, 0, 64, 92
1, 157445, Note_on_c, 0, 62, 35
1, 157447, Control_c, 0, 64, 120
1, 157459, Note_off_c, 0, 52, 59
1, 157461, Control_c, 0, 64, 127
1, 157488, Note_off_c, 0, 62, 47
1, 157520, Note_off_c, 0, 68, 29
1, 157550, Control_c, 0, 64, 89
1, 157565, Control_c, 0, 64, 65
1, 157573, Note_on_c, 0, 69, 59
1, 157580, Control_c, 0, 64, 0
1, 157584, Note_on_c, 0, 45, 49
1, 157603, Note_off_c, 0, 72, 59
1, 157668, Control_c, 0, 64, 53
1, 157683, Control_c, 0, 64, 66
1, 157698, Control_c, 0, 64, 75
1, 157705, Note_off_c, 0, 40, 41
1, 157713, Note_on_c, 0, 60, 49
1, 157713, Control_c, 0, 64, 89
1, 157721, Note_on_c, 0, 52, 41
1, 157727, Control_c, 0, 64, 101
1, 157742, Control_c, 0, 64, 119
1, 157748, Note_off_c, 0, 60, 51
1, 157754, Note_off_c, 0, 52, 57
1, 157757, Control_c, 0, 64, 127
1, 157844, Note_off_c, 0, 45, 56
1, 157844, Control_c, 0, 64, 93
1, 157851, Note_on_c, 0, 72, 63
1, 157859, Control_c, 0, 64, 72
1, 157863, Note_on_c, 0, 40, 44
1, 157872, Note_off_c, 0, 69, 56
1, 157874, Control_c, 0, 64, 42
1, 157889, Control_c, 0, 64, 0
1, 157964, Control_c, 0, 64, 45
1, 157979, Control_c, 0, 64, 64
1, 157993, Note_on_c, 0, 68, 57
1, 157994, Control_c, 0, 64, 73
1, 157997, Note_on_c, 0, 52, 46
1, 158009, Control_c, 0, 64, 84
1, 158014, Note_on_c, 0, 62, 38
1, 158023, Control_c, 0, 64, 96
1, 158038, Control_c, 0, 64, 112
1, 158043, Note_off_c, 0, 52, 60
1, 158053, Control_c, 0, 64, 127
1, 158058, Note_off_c, 0, 62, 46
1, 158150, Control_c, 0, 64, 88
1, 158160, Note_on_c, 0, 69, 58
1, 158162, Note_on_c, 0, 45, 42
1, 158164, Control_c, 0, 64, 67
1, 158173, Note_off_c, 0, 68, 36
1, 158174, Note_off_c, 0, 72, 55
1, 158179, Control_c, 0, 64, 0
1, 158208, Note_off_c, 0, 40, 42
1, 158268, Control_c, 0, 64, 42
1, 158282, Control_c, 0, 64, 65
1, 158297, Control_c, 0, 64, 72
1, 158303, Note_on_c, 0, 52, 44
1, 158308, Note_on_c, 0, 60, 46
1, 158312, Control_c, 0, 64, 81
1, 158327, Control_c, 0, 64, 86
1, 158342, Note_off_c, 0, 45, 40
1, 158342, Control_c, 0, 64, 91
1, 158354, Note_off_c, 0, 60, 52
1, 158356, Control_c, 0, 64, 94
1, 158360, Note_off_c, 0, 52, 54
1, 158371, Control_c, 0, 64, 97
1, 158386, Control_c, 0, 64, 99
1, 158431, Control_c, 0, 64, 99
1, 158446, Control_c, 0, 64, 95
1, 158461, Control_c, 0, 64, 84
1, 158461, Note_on_c, 0, 72, 58
1, 158465, Note_on_c, 0, 40, 44
1, 158475, Control_c, 0, 64, 66
1, 158489, Note_off_c, 0, 69, 53
1, 158490, Control_c, 0, 64, 0
1, 158564, Control_c, 0, 64, 40
1, 158580, Control_c, 0, 64, 60
1, 158594, Control_c, 0, 64, 66
1, 158609, Control_c, 0, 64, 71
1, 158616, Note_on_c, 0, 68, 51
1, 158624, Control_c, 0, 64, 78
1, 158625, Note_on_c, 0, 52, 35
1, 158634, Note_on_c, 0, 62, 37
1, 158639, Control_c, 0, 64, 86
1, 158654, Control_c, 0, 64, 93
1, 158668, Control_c, 0, 64, 98
1, 158683, Control_c, 0, 64, 100
1, 158686, Note_off_c, 0, 62, 42
1, 158699, Control_c, 0, 64, 101
1, 158759, Control_c, 0, 64, 98
1, 158773, Control_c, 0, 64, 89
1, 158774, Note_off_c, 0, 52, 22
1, 158788, Control_c, 0, 64, 74
1, 158793, Note_off_c, 0, 68, 38
1, 158798, Note_on_c, 0, 69, 53
1, 158803, Control_c, 0, 64, 58
1, 158812, Note_on_c, 0, 45, 34
1, 158825, Control_c, 0, 64, 0
1, 158837, Note_off_c, 0, 72, 51
1, 158899, Control_c, 0, 64, 44
1, 158914, Control_c, 0, 64, 62
1, 158929, Control_c, 0, 64, 67
1, 158944, Control_c, 0, 64, 71
1, 158959, Control_c, 0, 64, 76
1, 158971, Note_on_c, 0, 60, 47
1, 158973, Note_off_c, 0, 40, 41
1, 158973, Control_c, 0, 64, 79
1, 158979, Note_on_c, 0, 52, 36
1, 158988, Control_c, 0, 64, 81
1, 159003, Control_c, 0, 64, 83
1, 159018, Control_c, 0, 64, 83
1, 159088, Note_off_c, 0, 60, 33
1, 159114, Note_off_c, 0, 45, 31
1, 159151, Control_c, 0, 64, 81
1, 159166, Control_c, 0, 64, 77
1, 159169, Note_off_c, 0, 52, 36
1, 159180, Control_c, 0, 64, 71
1, 159188, Note_on_c, 0, 72, 55
1, 159194, Note_on_c, 0, 40, 36
1, 159195, Control_c, 0, 64, 63
1, 159209, Note_off_c, 0, 69, 58
1, 159210, Control_c, 0, 64, 32
1, 159224, Control_c, 0, 64, 0
1, 159328, Control_c, 0, 64, 53
1, 159343, Control_c, 0, 64, 64
1, 159358, Control_c, 0, 64, 68
1, 159373, Control_c, 0, 64, 70
1, 159388, Control_c, 0, 64, 71
1, 159403, Control_c, 0, 64, 73
1, 159418, Control_c, 0, 64, 75
1, 159432, Control_c, 0, 64, 76
1, 159435, Note_on_c, 0, 68, 44
1, 159447, Control_c, 0, 64, 77
1, 159456, Note_on_c, 0, 52, 42
1, 159462, Control_c, 0, 64, 78
1, 159466, Note_on_c, 0, 62, 31
1, 159477, Control_c, 0, 64, 78
1, 159507, Control_c, 0, 64, 79
1, 159520, Note_off_c, 0, 62, 43
1, 159522, Control_c, 0, 64, 79
1, 159552, Control_c, 0, 64, 80
1, 159589, Control_c, 0, 64, 80
1, 159603, Control_c, 0, 64, 81
1, 159617, Note_off_c, 0, 40, 41
1, 159618, Control_c, 0, 64, 82
1, 159633, Control_c, 0, 64, 83
1, 159647, Control_c, 0, 64, 84
1, 159677, Control_c, 0, 64, 84
1, 159811, Control_c, 0, 64, 84
1, 159870, Control_c, 0, 64, 83
1, 159900, Control_c, 0, 64, 83
1, 159915, Control_c, 0, 64, 82
1, 159929, Control_c, 0, 64, 82
1, 159944, Control_c, 0, 64, 81
1, 159959, Control_c, 0, 64, 81
1, 159974, Control_c, 0, 64, 79
1, 159989, Control_c, 0, 64, 77
1, 160003, Control_c, 0, 64, 73
1, 160018, Control_c, 0, 64, 69
1, 160033, Control_c, 0, 64, 65
1, 160046, Note_on_c, 0, 69, 43
1, 160047, Control_c, 0, 64, 58
1, 160052, Note_on_c, 0, 39, 27
1, 160059, Note_off_c, 0, 52, 39
1, 160062, Control_c, 0, 64, 39
1, 160073, Note_off_c, 0, 68, 47
1, 160077, Control_c, 0, 64, 0
1, 160097, Poly_aftertouch_c, 0, 60, 127
1, 160099, Note_on_c, 0, 60, 3
1, 160115, Note_off_c, 0, 72, 33
1, 160323, Control_c, 0, 64, 24
1, 160338, Control_c, 0, 64, 52
1, 160352, Control_c, 0, 64, 61
1, 160367, Control_c, 0, 64, 64
1, 160382, Control_c, 0, 64, 65
1, 160389, Note_on_c, 0, 48, 36
1, 160397, Control_c, 0, 64, 67
1, 160412, Control_c, 0, 64, 69
1, 160426, Control_c, 0, 64, 72
1, 160441, Control_c, 0, 64, 75
1, 160456, Control_c, 0, 64, 78
1, 160470, Control_c, 0, 64, 82
1, 160485, Control_c, 0, 64, 86
1, 160500, Control_c, 0, 64, 89
1, 160515, Control_c, 0, 64, 91
1, 160527, Note_off_c, 0, 39, 39
1, 160530, Control_c, 0, 64, 92
1, 160544, Control_c, 0, 64, 93
1, 160559, Control_c, 0, 64, 93
1, 160560, Note_off_c, 0, 69, 55
1, 160563, Note_off_c, 0, 48, 38
1, 160575, Note_on_c, 0, 53, 41
1, 160711, Note_off_c, 0, 53, 53
1, 160737, Note_on_c, 0, 57, 37
1, 160738, Control_c, 0, 64, 93
1, 160759, Note_off_c, 0, 60, 40
1, 160811, Control_c, 0, 64, 92
1, 160862, Note_off_c, 0, 57, 50
1, 160895, Note_on_c, 0, 56, 44
1, 160909, Note_on_c, 0, 59, 38
1, 160915, Control_c, 0, 64, 92
1, 160974, Note_off_c, 0, 56, 48
1, 161025, Note_off_c, 0, 59, 34
1, 161063, Note_on_c, 0, 62, 49
1, 161205, Control_c, 0, 64, 91
1, 161215, Note_on_c, 0, 65, 56
1, 161337, Note_off_c, 0, 62, 33
1, 161353, Control_c, 0, 64, 91
1, 161377, Note_on_c, 0, 71, 51
1, 161412, Control_c, 0, 64, 90
1, 161414, Note_off_c, 0, 65, 37
1, 161457, Control_c, 0, 64, 90
1, 161501, Control_c, 0, 64, 89
1, 161531, Control_c, 0, 64, 89
1, 161561, Control_c, 0, 64, 88
1, 161574, Control_c, 0, 64, 88
1, 161589, Control_c, 0, 64, 87
1, 161604, Control_c, 0, 64, 86
1, 161618, Note_off_c, 0, 71, 52
1, 161618, Control_c, 0, 64, 84
1, 161629, Note_on_c, 0, 72, 52
1, 161633, Control_c, 0, 64, 80
1, 161639, Note_on_c, 0, 69, 45
1, 161648, Control_c, 0, 64, 76
1, 161663, Control_c, 0, 64, 70
1, 161669, Note_on_c, 0, 39, 36
1, 161678, Control_c, 0, 64, 65
1, 161692, Control_c, 0, 64, 55
1, 161707, Control_c, 0, 64, 0
1, 161833, Control_c, 0, 64, 29
1, 161848, Control_c, 0, 64, 54
1, 161863, Control_c, 0, 64, 61
1, 161878, Control_c, 0, 64, 64
1, 161886, Note_on_c, 0, 48, 44
1, 161893, Control_c, 0, 64, 66
1, 161909, Control_c, 0, 64, 69
1, 161923, Control_c, 0, 64, 74
1, 161938, Control_c, 0, 64, 78
1, 161953, Control_c, 0, 64, 81
1, 161968, Control_c, 0, 64, 86
1, 161983, Control_c, 0, 64, 91
1, 161997, Control_c, 0, 64, 96
1, 162012, Control_c, 0, 64, 103
1, 162025, Note_off_c, 0, 39, 40
1, 162027, Control_c, 0, 64, 109
1, 162033, Note_off_c, 0, 48, 58
1, 162042, Control_c, 0, 64, 114
1, 162056, Control_c, 0, 64, 119
1, 162068, Note_on_c, 0, 53, 52
1, 162071, Control_c, 0, 64, 120
1, 162083, Note_on_c, 0, 65, 36
1, 162091, Note_on_c, 0, 60, 36
1, 162166, Note_off_c, 0, 69, 45
1, 162213, Note_off_c, 0, 53, 64
1, 162221, Note_on_c, 0, 57, 49
1, 162275, Note_off_c, 0, 60, 35
1, 162360, Note_off_c, 0, 57, 59
1, 162377, Note_on_c, 0, 59, 51
1, 162381, Note_on_c, 0, 56, 55
1, 162398, Control_c, 0, 64, 119
1, 162423, Note_off_c, 0, 59, 59
1, 162428, Note_off_c, 0, 56, 54
1, 162534, Note_off_c, 0, 65, 40
1, 162539, Note_on_c, 0, 62, 47
1, 162729, Note_on_c, 0, 65, 57
1, 162732, Control_c, 0, 64, 117
1, 162759, Note_off_c, 0, 72, 29
1, 162807, Control_c, 0, 64, 116
1, 162851, Control_c, 0, 64, 115
1, 162869, Note_off_c, 0, 62, 19
1, 162880, Control_c, 0, 64, 114
1, 162895, Control_c, 0, 64, 113
1, 162908, Note_on_c, 0, 71, 54
1, 162925, Control_c, 0, 64, 113
1, 162954, Control_c, 0, 64, 112
1, 162967, Note_off_c, 0, 65, 33
1, 162969, Control_c, 0, 64, 111
1, 162998, Control_c, 0, 64, 111
1, 163013, Control_c, 0, 64, 110
1, 163028, Control_c, 0, 64, 109
1, 163043, Control_c, 0, 64, 109
1, 163058, Control_c, 0, 64, 108
1, 163072, Control_c, 0, 64, 108
1, 163087, Control_c, 0, 64, 107
1, 163102, Control_c, 0, 64, 106
1, 163117, Control_c, 0, 64, 105
1, 163132, Control_c, 0, 64, 104
1, 163147, Control_c, 0, 64, 100
1, 163153, Note_on_c, 0, 69, 48
1, 163153, Note_on_c, 0, 72, 54
1, 163160, Note_off_c, 0, 71, 37
1, 163162, Control_c, 0, 64, 94
1, 163177, Control_c, 0, 64, 87
1, 163180, Note_on_c, 0, 39, 43
1, 163191, Control_c, 0, 64, 79
1, 163206, Control_c, 0, 64, 71
1, 163221, Control_c, 0, 64, 64
1, 163236, Control_c, 0, 64, 40
1, 163251, Control_c, 0, 64, 0
1, 163361, Control_c, 0, 64, 12
1, 163376, Control_c, 0, 64, 55
1, 163381, Note_on_c, 0, 48, 40
1, 163391, Control_c, 0, 64, 62
1, 163406, Control_c, 0, 64, 64
1, 163421, Control_c, 0, 64, 65
1, 163436, Control_c, 0, 64, 67
1, 163451, Control_c, 0, 64, 70
1, 163465, Control_c, 0, 64, 74
1, 163480, Control_c, 0, 64, 78
1, 163495, Control_c, 0, 64, 82
1, 163507, Note_off_c, 0, 39, 48
1, 163510, Control_c, 0, 64, 86
1, 163525, Note_off_c, 0, 48, 44
1, 163525, Control_c, 0, 64, 91
1, 163540, Control_c, 0, 64, 98
1, 163553, Note_on_c, 0, 53, 44
1, 163555, Control_c, 0, 64, 110
1, 163570, Control_c, 0, 64, 127
1, 163734, Note_on_c, 0, 57, 48
1, 163783, Note_off_c, 0, 53, 36
1, 163874, Note_off_c, 0, 57, 35
1, 163907, Note_on_c, 0, 60, 52
1, 164023, Note_off_c, 0, 60, 53
1, 164092, Note_off_c, 0, 72, 56
1, 164108, Note_on_c, 0, 65, 39
1, 164138, Note_off_c, 0, 65, 54
1, 164152, Note_off_c, 0, 69, 41
1, 164323, Note_on_c, 0, 69, 46
1, 164360, Note_off_c, 0, 69, 53
1, 164582, Note_on_c, 0, 81, 64
1, 164883, Note_on_c, 0, 77, 54
1, 164923, Note_off_c, 0, 81, 49
1, 165139, Note_on_c, 0, 72, 52
1, 165392, Note_on_c, 0, 69, 50
1, 165522, Note_off_c, 0, 77, 33
1, 165537, Note_off_c, 0, 69, 40
1, 165615, Note_off_c, 0, 72, 37
1, 165690, Note_on_c, 0, 65, 40
1, 165961, Note_off_c, 0, 65, 36
1, 165991, Note_on_c, 0, 60, 44
1, 166337, Note_on_c, 0, 53, 46
1, 166413, Note_off_c, 0, 60, 28
1, 166608, Note_off_c, 0, 53, 32
1, 166778, Note_on_c, 0, 48, 49
1, 167463, Note_on_c, 0, 36, 42
1, 167465, Note_off_c, 0, 48, 29
1, 167855, Control_c, 0, 64, 104
1, 167869, Control_c, 0, 64, 92
1, 167884, Control_c, 0, 64, 82
1, 167899, Control_c, 0, 64, 73
1, 167914, Control_c, 0, 64, 66
1, 167929, Control_c, 0, 64, 54
1, 167943, Control_c, 0, 64, 0
1, 168928, Note_on_c, 0, 68, 51
1, 169010, Note_on_c, 0, 35, 25
1, 169073, Note_off_c, 0, 36, 33
1, 169228, Control_c, 0, 64, 25
1, 169242, Control_c, 0, 64, 56
1, 169257, Control_c, 0, 64, 63
1, 169272, Control_c, 0, 64, 65
1, 169287, Control_c, 0, 64, 68
1, 169302, Control_c, 0, 64, 72
1, 169323, Control_c, 0, 64, 76
1, 169338, Control_c, 0, 64, 81
1, 169353, Control_c, 0, 64, 87
1, 169368, Control_c, 0, 64, 95
1, 169383, Control_c, 0, 64, 109
1, 169398, Control_c, 0, 64, 127
1, 169403, Note_off_c, 0, 35, 41
1, 170031, Note_on_c, 0, 61, 32
1, 170048, Note_on_c, 0, 52, 29
1, 170050, Note_on_c, 0, 56, 21
1, 170297, Note_off_c, 0, 52, 37
1, 170383, Note_off_c, 0, 56, 29
1, 170413, Note_off_c, 0, 61, 40
1, 170521, Note_on_c, 0, 69, 48
1, 170575, Note_off_c, 0, 68, 39
1, 170902, Note_on_c, 0, 71, 57
1, 170942, Note_on_c, 0, 59, 29
1, 170947, Note_on_c, 0, 47, 37
1, 170949, Note_on_c, 0, 56, 29
1, 170954, Control_c, 0, 64, 97
1, 170968, Control_c, 0, 64, 83
1, 170983, Control_c, 0, 64, 72
1, 170987, Note_off_c, 0, 69, 38
1, 170998, Control_c, 0, 64, 63
1, 171012, Control_c, 0, 64, 29
1, 171027, Control_c, 0, 64, 0
1, 171116, Control_c, 0, 64, 56
1, 171130, Control_c, 0, 64, 64
1, 171145, Control_c, 0, 64, 69
1, 171160, Control_c, 0, 64, 74
1, 171175, Control_c, 0, 64, 80
1, 171190, Control_c, 0, 64, 90
1, 171204, Control_c, 0, 64, 127
1, 171213, Note_off_c, 0, 47, 42
1, 171252, Note_off_c, 0, 56, 41
1, 171267, Note_on_c, 0, 75, 66
1, 171294, Note_off_c, 0, 59, 41
1, 171362, Note_off_c, 0, 71, 52
1, 171588, Note_on_c, 0, 76, 71
1, 171614, Note_off_c, 0, 75, 62
1, 171630, Note_on_c, 0, 59, 36
1, 171634, Note_on_c, 0, 68, 39
1, 171654, Note_on_c, 0, 64, 30
1, 171735, Note_off_c, 0, 68, 38
1, 171753, Note_off_c, 0, 64, 37
1, 171794, Note_off_c, 0, 59, 42
1, 171869, Note_on_c, 0, 73, 70
1, 171909, Control_c, 0, 67, 126
1, 171922, Note_off_c, 0, 76, 60
1, 171924, Control_c, 0, 67, 126
1, 171939, Control_c, 0, 67, 126
1, 171968, Control_c, 0, 67, 126
1, 172027, Control_c, 0, 67, 125
1, 172042, Control_c, 0, 67, 125
1, 172087, Control_c, 0, 67, 124
1, 172101, Control_c, 0, 67, 124
1, 172116, Control_c, 0, 67, 122
1, 172131, Control_c, 0, 67, 119
1, 172146, Control_c, 0, 67, 116
1, 172161, Control_c, 0, 67, 114
1, 172173, Note_on_c, 0, 71, 68
1, 172176, Control_c, 0, 67, 113
1, 172191, Control_c, 0, 67, 112
1, 172206, Control_c, 0, 64, 109
1, 172220, Note_off_c, 0, 73, 57
1, 172221, Control_c, 0, 64, 81
1, 172221, Control_c, 0, 67, 112
1, 172235, Control_c, 0, 64, 67
1, 172235, Control_c, 0, 67, 111
1, 172236, Note_on_c, 0, 35, 37
1, 172250, Control_c, 0, 64, 41
1, 172265, Control_c, 0, 64, 0
1, 172280, Control_c, 0, 67, 111
1, 172303, Control_c, 0, 67, 109
1, 172318, Control_c, 0, 67, 107
1, 172332, Control_c, 0, 67, 105
1, 172347, Control_c, 0, 64, 58
1, 172347, Control_c, 0, 67, 103
1, 172362, Control_c, 0, 64, 66
1, 172362, Control_c, 0, 67, 99
1, 172376, Control_c, 0, 64, 71
1, 172376, Control_c, 0, 67, 96
1, 172391, Control_c, 0, 64, 78
1, 172391, Control_c, 0, 67, 93
1, 172404, Note_off_c, 0, 35, 40
1, 172406, Control_c, 0, 64, 89
1, 172406, Control_c, 0, 67, 90
1, 172421, Control_c, 0, 64, 115
1, 172421, Control_c, 0, 67, 87
1, 172436, Control_c, 0, 64, 127
1, 172436, Control_c, 0, 67, 85
1, 172450, Control_c, 0, 67, 82
1, 172465, Control_c, 0, 67, 79
1, 172480, Control_c, 0, 67, 77
1, 172495, Control_c, 0, 67, 76
1, 172554, Control_c, 0, 67, 77
1, 172584, Control_c, 0, 67, 77
1, 172599, Control_c, 0, 67, 78
1, 172614, Control_c, 0, 67, 79
1, 172629, Control_c, 0, 67, 79
1, 172673, Control_c, 0, 67, 80
1, 172688, Control_c, 0, 67, 80
1, 172702, Control_c, 0, 67, 81
1, 172717, Control_c, 0, 67, 81
1, 172762, Control_c, 0, 67, 82
1, 172769, Note_on_c, 0, 63, 40
1, 172776, Control_c, 0, 67, 82
1, 172781, Note_on_c, 0, 54, 33
1, 172782, Note_on_c, 0, 59, 23
1, 172806, Control_c, 0, 67, 83
1, 172821, Control_c, 0, 67, 84
1, 172836, Control_c, 0, 67, 84
1, 172865, Control_c, 0, 67, 84
1, 172939, Control_c, 0, 67, 84
1, 172954, Control_c, 0, 67, 85
1, 173079, Note_off_c, 0, 54, 35
1, 173082, Note_off_c, 0, 59, 39
1, 173151, Note_off_c, 0, 63, 43
1, 173332, Control_c, 0, 67, 85
1, 173392, Control_c, 0, 67, 86
1, 173402, Note_on_c, 0, 66, 53
1, 173436, Note_on_c, 0, 59, 36
1, 173437, Control_c, 0, 67, 86
1, 173443, Note_on_c, 0, 54, 40
1, 173451, Note_on_c, 0, 51, 34
1, 173452, Control_c, 0, 64, 98
1, 173452, Control_c, 0, 67, 87
1, 173467, Note_off_c, 0, 71, 40
1, 173467, Control_c, 0, 64, 82
1, 173481, Control_c, 0, 64, 71
1, 173481, Control_c, 0, 67, 87
1, 173496, Control_c, 0, 64, 61
1, 173511, Control_c, 0, 64, 22
1, 173511, Control_c, 0, 67, 88
1, 173525, Control_c, 0, 64, 0
1, 173555, Control_c, 0, 67, 89
1, 173570, Control_c, 0, 67, 90
1, 173585, Control_c, 0, 67, 96
1, 173599, Control_c, 0, 67, 101
1, 173614, Control_c, 0, 67, 107
1, 173629, Control_c, 0, 67, 111
1, 173644, Control_c, 0, 67, 116
1, 173659, Control_c, 0, 64, 29
1, 173659, Control_c, 0, 67, 119
1, 173673, Control_c, 0, 64, 55
1, 173673, Control_c, 0, 67, 123
1, 173688, Control_c, 0, 64, 62
1, 173688, Control_c, 0, 67, 127
1, 173703, Control_c, 0, 64, 64
1, 173717, Control_c, 0, 64, 66
1, 173732, Control_c, 0, 64, 70
1, 173747, Control_c, 0, 64, 76
1, 173762, Control_c, 0, 64, 84
1, 173777, Control_c, 0, 64, 93
1, 173799, Control_c, 0, 64, 105
1, 173814, Control_c, 0, 64, 127
1, 173839, Note_off_c, 0, 54, 30
1, 173895, Note_off_c, 0, 51, 39
1, 174260, Note_off_c, 0, 59, 28
1, 174266, Note_on_c, 0, 62, 36
1, 174270, Note_on_c, 0, 54, 29
1, 174274, Control_c, 0, 64, 100
1, 174289, Control_c, 0, 64, 85
1, 174292, Note_on_c, 0, 50, 27
1, 174304, Control_c, 0, 64, 74
1, 174319, Control_c, 0, 64, 65
1, 174334, Control_c, 0, 64, 50
1, 174348, Control_c, 0, 64, 0
1, 174526, Control_c, 0, 64, 42
1, 174548, Control_c, 0, 64, 60
1, 174563, Control_c, 0, 64, 64
1, 174578, Control_c, 0, 64, 67
1, 174593, Control_c, 0, 64, 69
1, 174608, Control_c, 0, 64, 73
1, 174622, Control_c, 0, 64, 79
1, 174624, Note_off_c, 0, 62, 41
1, 174637, Control_c, 0, 64, 86
1, 174652, Control_c, 0, 64, 96
1, 174667, Control_c, 0, 64, 109
1, 174683, Control_c, 0, 64, 127
1, 174748, Note_off_c, 0, 54, 39
1, 174759, Note_off_c, 0, 50, 37
1, 175416, Note_on_c, 0, 33, 33
1, 175416, Control_c, 0, 64, 102
1, 175422, Note_on_c, 0, 45, 29
1, 175431, Control_c, 0, 64, 91
1, 175445, Control_c, 0, 64, 81
1, 175460, Control_c, 0, 64, 72
1, 175476, Control_c, 0, 64, 65
1, 175491, Control_c, 0, 64, 49
1, 175506, Control_c, 0, 64, 0
1, 175654, Control_c, 0, 64, 49
1, 175668, Control_c, 0, 64, 61
1, 175683, Control_c, 0, 64, 65
1, 175698, Control_c, 0, 64, 67
1, 175704, Note_off_c, 0, 33, 44
1, 175713, Control_c, 0, 64, 70
1, 175727, Control_c, 0, 64, 74
1, 175742, Control_c, 0, 64, 80
1, 175757, Control_c, 0, 64, 85
1, 175772, Control_c, 0, 64, 92
1, 175787, Control_c, 0, 64, 101
1, 175802, Control_c, 0, 64, 127
1, 175819, Note_off_c, 0, 45, 42
1, 176359, Note_on_c, 0, 59, 25
1, 176370, Note_on_c, 0, 54, 22
1, 176387, Note_on_c, 0, 50, 14
1, 176474, Note_off_c, 0, 50, 35
1, 176479, Note_off_c, 0, 54, 35
1, 176504, Note_off_c, 0, 59, 43
1, 176686, Note_on_c, 0, 67, 40
1, 176696, Note_off_c, 0, 66, 44
1, 177002, Control_c, 0, 64, 107
1, 177008, Note_on_c, 0, 69, 39
1, 177017, Control_c, 0, 64, 92
1, 177032, Control_c, 0, 64, 78
1, 177046, Note_off_c, 0, 67, 36
1, 177047, Control_c, 0, 64, 67
1, 177049, Note_on_c, 0, 45, 30
1, 177051, Note_on_c, 0, 57, 25
1, 177058, Note_on_c, 0, 54, 25
1, 177062, Control_c, 0, 64, 53
1, 177077, Control_c, 0, 64, 0
1, 177166, Control_c, 0, 64, 28
1, 177181, Control_c, 0, 64, 57
1, 177196, Control_c, 0, 64, 64
1, 177211, Control_c, 0, 64, 67
1, 177226, Control_c, 0, 64, 69
1, 177240, Control_c, 0, 64, 72
1, 177255, Control_c, 0, 64, 77
1, 177270, Control_c, 0, 64, 84
1, 177283, Note_off_c, 0, 45, 41
1, 177285, Control_c, 0, 64, 93
1, 177299, Control_c, 0, 64, 103
1, 177314, Note_off_c, 0, 54, 40
1, 177314, Control_c, 0, 64, 116
1, 177318, Note_on_c, 0, 73, 52
1, 177329, Control_c, 0, 64, 127
1, 177347, Note_off_c, 0, 57, 43
1, 177377, Note_off_c, 0, 69, 34
1, 177594, Note_off_c, 0, 73, 49
1, 177599, Note_on_c, 0, 74, 54
1, 177644, Note_on_c, 0, 57, 26
1, 177646, Note_on_c, 0, 62, 34
1, 177652, Note_on_c, 0, 66, 30
1, 177722, Note_off_c, 0, 66, 43
1, 177735, Note_off_c, 0, 62, 36
1, 177776, Note_off_c, 0, 57, 40
1, 177882, Note_on_c, 0, 71, 59
1, 177941, Note_off_c, 0, 74, 56
1, 178122, Control_c, 0, 64, 125
1, 178137, Control_c, 0, 64, 119
1, 178152, Control_c, 0, 64, 113
1, 178167, Control_c, 0, 64, 107
1, 178179, Note_on_c, 0, 69, 55
1, 178182, Control_c, 0, 64, 99
1, 178196, Control_c, 0, 64, 90
1, 178211, Control_c, 0, 64, 80
1, 178217, Note_off_c, 0, 71, 38
1, 178226, Control_c, 0, 64, 70
1, 178238, Note_on_c, 0, 33, 37
1, 178241, Control_c, 0, 64, 61
1, 178256, Control_c, 0, 64, 0
1, 178367, Control_c, 0, 64, 47
1, 178382, Control_c, 0, 64, 65
1, 178396, Control_c, 0, 64, 71
1, 178411, Control_c, 0, 64, 75
1, 178422, Note_off_c, 0, 33, 39
1, 178426, Control_c, 0, 64, 78
1, 178441, Control_c, 0, 64, 81
1, 178456, Control_c, 0, 64, 86
1, 178470, Control_c, 0, 64, 92
1, 178485, Control_c, 0, 64, 95
1, 178500, Control_c, 0, 64, 96
1, 178827, Note_on_c, 0, 61, 37
1, 178829, Note_on_c, 0, 57, 22
1, 178829, Note_on_c, 0, 52, 30
1, 179079, Note_off_c, 0, 52, 41
1, 179101, Note_off_c, 0, 57, 40
1, 179264, Control_c, 0, 64, 95
1, 179324, Control_c, 0, 64, 95
1, 179353, Control_c, 0, 64, 94
1, 179368, Control_c, 0, 64, 94
1, 179383, Control_c, 0, 64, 93
1, 179398, Control_c, 0, 64, 93
1, 179412, Control_c, 0, 64, 92
1, 179427, Control_c, 0, 64, 91
1, 179442, Control_c, 0, 64, 90
1, 179457, Control_c, 0, 64, 88
1, 179473, Control_c, 0, 64, 85
1, 179479, Note_on_c, 0, 64, 45
1, 179488, Control_c, 0, 64, 82
1, 179497, Note_on_c, 0, 52, 38
1, 179502, Control_c, 0, 64, 77
1, 179503, Note_on_c, 0, 57, 26
1, 179510, Note_on_c, 0, 49, 32
1, 179517, Control_c, 0, 64, 71
1, 179532, Control_c, 0, 64, 64
1, 179547, Control_c, 0, 64, 49
1, 179560, Note_off_c, 0, 61, 29
1, 179562, Control_c, 0, 64, 0
1, 179592, Note_off_c, 0, 69, 40
1, 179680, Control_c, 0, 64, 41
1, 179694, Control_c, 0, 64, 58
1, 179709, Control_c, 0, 64, 63
1, 179724, Control_c, 0, 64, 65
1, 179739, Control_c, 0, 64, 67
1, 179754, Control_c, 0, 64, 70
1, 179768, Control_c, 0, 64, 74
1, 179783, Control_c, 0, 64, 79
1, 179806, Control_c, 0, 64, 83
1, 179821, Control_c, 0, 64, 88
1, 179831, Note_off_c, 0, 52, 37
1, 179836, Control_c, 0, 64, 93
1, 179850, Control_c, 0, 64, 100
1, 179865, Control_c, 0, 64, 111
1, 179880, Control_c, 0, 64, 127
1, 179923, Note_off_c, 0, 49, 34
1, 180236, Control_c, 0, 64, 107
1, 180242, Note_on_c, 0, 60, 29
1, 180247, Note_on_c, 0, 52, 35
1, 180250, Note_on_c, 0, 48, 34
1, 180250, Control_c, 0, 64, 96
1, 180266, Control_c, 0, 64, 86
1, 180281, Control_c, 0, 64, 77
1, 180295, Control_c, 0, 64, 69
1, 180310, Control_c, 0, 64, 62
1, 180315, Note_off_c, 0, 57, 27
1, 180324, Control_c, 0, 64, 44
1, 180339, Control_c, 0, 64, 0
1, 180413, Control_c, 0, 64, 12
1, 180428, Control_c, 0, 64, 53
1, 180443, Control_c, 0, 64, 62
1, 180458, Control_c, 0, 64, 66
1, 180472, Control_c, 0, 64, 68
1, 180487, Control_c, 0, 64, 70
1, 180502, Control_c, 0, 64, 73
1, 180516, Control_c, 0, 64, 75
1, 180531, Control_c, 0, 64, 78
1, 180554, Control_c, 0, 64, 81
1, 180569, Control_c, 0, 64, 84
1, 180580, Note_off_c, 0, 60, 41
1, 180584, Control_c, 0, 64, 89
1, 180598, Control_c, 0, 64, 93
1, 180613, Control_c, 0, 64, 98
1, 180628, Control_c, 0, 64, 103
1, 180643, Control_c, 0, 64, 106
1, 180657, Note_off_c, 0, 52, 42
1, 180658, Control_c, 0, 64, 108
1, 180672, Control_c, 0, 64, 108
1, 180688, Note_on_c, 0, 66, 52
1, 180703, Note_off_c, 0, 48, 39
1, 180807, Note_off_c, 0, 64, 43
1, 180969, Control_c, 0, 64, 108
1, 180983, Control_c, 0, 64, 107
1, 180998, Control_c, 0, 64, 107
1, 181013, Control_c, 0, 64, 106
1, 181028, Control_c, 0, 64, 105
1, 181042, Control_c, 0, 64, 104
1, 181059, Control_c, 0, 64, 101
1, 181074, Control_c, 0, 64, 98
1, 181086, Note_on_c, 0, 63, 55
1, 181088, Control_c, 0, 64, 94
1, 181103, Control_c, 0, 64, 89
1, 181118, Control_c, 0, 64, 83
1, 181132, Control_c, 0, 64, 75
1, 181147, Control_c, 0, 64, 67
1, 181149, Note_on_c, 0, 33, 31
1, 181162, Control_c, 0, 64, 58
1, 181177, Control_c, 0, 64, 0
1, 181193, Note_on_c, 0, 45, 8
1, 181197, Note_off_c, 0, 66, 38
1, 181303, Control_c, 0, 64, 48
1, 181318, Control_c, 0, 64, 62
1, 181333, Control_c, 0, 64, 65
1, 181347, Control_c, 0, 64, 68
1, 181362, Control_c, 0, 64, 70
1, 181377, Control_c, 0, 64, 74
1, 181384, Note_off_c, 0, 33, 40
1, 181392, Control_c, 0, 64, 79
1, 181407, Control_c, 0, 64, 84
1, 181421, Control_c, 0, 64, 91
1, 181436, Control_c, 0, 64, 99
1, 181451, Control_c, 0, 64, 109
1, 181465, Control_c, 0, 64, 127
1, 181468, Note_off_c, 0, 45, 41
1, 181920, Note_on_c, 0, 51, 34
1, 181923, Note_on_c, 0, 54, 28
1, 181933, Note_on_c, 0, 60, 21
1, 182055, Note_off_c, 0, 60, 34
1, 182076, Note_off_c, 0, 54, 33
1, 182087, Note_off_c, 0, 51, 40
1, 182800, Note_on_c, 0, 32, 36
1, 182801, Control_c, 0, 64, 110
1, 182806, Note_on_c, 0, 44, 28
1, 182816, Control_c, 0, 64, 99
1, 182831, Control_c, 0, 64, 89
1, 182846, Control_c, 0, 64, 81
1, 182860, Control_c, 0, 64, 74
1, 182875, Control_c, 0, 64, 68
1, 182890, Control_c, 0, 64, 62
1, 182905, Control_c, 0, 64, 46
1, 182919, Control_c, 0, 64, 0
1, 183038, Control_c, 0, 64, 33
1, 183053, Control_c, 0, 64, 53
1, 183068, Control_c, 0, 64, 60
1, 183083, Control_c, 0, 64, 62
1, 183098, Control_c, 0, 64, 63
1, 183112, Control_c, 0, 64, 64
1, 183127, Control_c, 0, 64, 66
1, 183142, Control_c, 0, 64, 69
1, 183157, Control_c, 0, 64, 73
1, 183172, Control_c, 0, 64, 76
1, 183186, Control_c, 0, 64, 79
1, 183201, Control_c, 0, 64, 82
1, 183216, Control_c, 0, 64, 85
1, 183231, Note_off_c, 0, 44, 38
1, 183231, Control_c, 0, 64, 87
1, 183245, Control_c, 0, 64, 89
1, 183260, Control_c, 0, 64, 91
1, 183275, Control_c, 0, 64, 91
1, 183375, Note_on_c, 0, 65, 37
1, 183426, Note_off_c, 0, 63, 42
1, 183580, Control_c, 0, 64, 91
1, 183624, Control_c, 0, 64, 90
1, 183639, Control_c, 0, 64, 90
1, 183668, Control_c, 0, 64, 89
1, 183683, Control_c, 0, 64, 89
1, 183698, Control_c, 0, 64, 88
1, 183713, Control_c, 0, 64, 86
1, 183728, Control_c, 0, 64, 83
1, 183734, Note_on_c, 0, 66, 49
1, 183742, Control_c, 0, 64, 79
1, 183757, Note_on_c, 0, 30, 35
1, 183757, Control_c, 0, 64, 73
1, 183772, Control_c, 0, 64, 67
1, 183779, Note_off_c, 0, 32, 39
1, 183782, Note_off_c, 0, 65, 40
1, 183787, Control_c, 0, 64, 60
1, 183802, Control_c, 0, 64, 27
1, 183816, Control_c, 0, 64, 0
1, 183817, Poly_aftertouch_c, 0, 42, 127
1, 183906, Control_c, 0, 64, 30
1, 183921, Control_c, 0, 64, 57
1, 183935, Control_c, 0, 64, 63
1, 183950, Control_c, 0, 64, 65
1, 183965, Control_c, 0, 64, 66
1, 183980, Control_c, 0, 64, 68
1, 183995, Control_c, 0, 64, 70
1, 184009, Control_c, 0, 64, 73
1, 184024, Control_c, 0, 64, 76
1, 184034, Note_on_c, 0, 67, 48
1, 184037, Control_c, 0, 64, 79
1, 184052, Control_c, 0, 64, 80
1, 184067, Control_c, 0, 64, 81
1, 184095, Note_off_c, 0, 30, 39
1, 184097, Control_c, 0, 64, 82
1, 184110, Poly_aftertouch_c, 0, 42, 0
1, 184327, Control_c, 0, 64, 81
1, 184342, Control_c, 0, 64, 80
1, 184357, Control_c, 0, 64, 78
1, 184359, Note_off_c, 0, 66, 39
1, 184365, Note_on_c, 0, 68, 52
1, 184371, Control_c, 0, 64, 74
1, 184386, Control_c, 0, 64, 70
1, 184392, Note_off_c, 0, 67, 38
1, 184401, Control_c, 0, 64, 63
1, 184414, Note_on_c, 0, 29, 28
1, 184416, Control_c, 0, 64, 47
1, 184431, Control_c, 0, 64, 0
1, 184448, Note_on_c, 0, 41, 19
1, 184535, Control_c, 0, 64, 14
1, 184550, Control_c, 0, 64, 58
1, 184564, Control_c, 0, 64, 66
1, 184579, Control_c, 0, 64, 71
1, 184594, Control_c, 0, 64, 75
1, 184609, Control_c, 0, 64, 79
1, 184624, Control_c, 0, 64, 85
1, 184628, Note_off_c, 0, 29, 49
1, 184638, Control_c, 0, 64, 96
1, 184653, Control_c, 0, 64, 127
1, 184672, Note_off_c, 0, 41, 55
1, 185112, Note_on_c, 0, 61, 49
1, 185173, Note_on_c, 0, 49, 26
1, 185182, Note_on_c, 0, 56, 23
1, 185182, Note_on_c, 0, 59, 26
1, 185313, Note_off_c, 0, 59, 43
1, 185317, Note_off_c, 0, 68, 37
1, 185331, Note_off_c, 0, 56, 42
1, 185370, Note_off_c, 0, 49, 39
1, 185963, Note_on_c, 0, 69, 48
1, 185973, Control_c, 0, 64, 117
1, 185988, Control_c, 0, 64, 94
1, 185999, Note_off_c, 0, 61, 36
1, 186003, Control_c, 0, 64, 81
1, 186004, Note_on_c, 0, 30, 35
1, 186017, Control_c, 0, 64, 72
1, 186032, Control_c, 0, 64, 63
1, 186043, Note_on_c, 0, 42, 13
1, 186047, Control_c, 0, 64, 43
1, 186061, Control_c, 0, 64, 0
1, 186135, Control_c, 0, 64, 41
1, 186150, Control_c, 0, 64, 61
1, 186165, Control_c, 0, 64, 66
1, 186180, Control_c, 0, 64, 71
1, 186195, Control_c, 0, 64, 77
1, 186210, Control_c, 0, 64, 84
1, 186225, Note_off_c, 0, 30, 40
1, 186225, Control_c, 0, 64, 102
1, 186240, Control_c, 0, 64, 127
1, 186261, Note_off_c, 0, 69, 48
1, 186272, Note_off_c, 0, 42, 42
1, 186693, Note_on_c, 0, 57, 29
1, 186707, Note_on_c, 0, 49, 25
1, 186709, Note_on_c, 0, 54, 19
1, 186826, Note_off_c, 0, 57, 36
1, 186838, Note_off_c, 0, 54, 29
1, 186890, Note_off_c, 0, 49, 39
1, 187367, Note_on_c, 0, 71, 66
1, 187419, Note_on_c, 0, 32, 36
1, 187436, Note_on_c, 0, 44, 33
1, 187440, Control_c, 0, 64, 93
1, 187456, Control_c, 0, 64, 76
1, 187471, Control_c, 0, 64, 64
1, 187486, Control_c, 0, 64, 44
1, 187500, Control_c, 0, 64, 0
1, 187574, Control_c, 0, 64, 53
1, 187589, Control_c, 0, 64, 65
1, 187604, Control_c, 0, 64, 72
1, 187619, Control_c, 0, 64, 81
1, 187633, Control_c, 0, 64, 97
1, 187648, Control_c, 0, 64, 127
1, 187650, Note_off_c, 0, 32, 40
1, 187678, Control_c, 0, 67, 119
1, 187693, Control_c, 0, 67, 101
1, 187707, Control_c, 0, 67, 83
1, 187709, Note_off_c, 0, 44, 47
1, 187722, Control_c, 0, 67, 61
1, 187737, Control_c, 0, 67, 43
1, 187752, Control_c, 0, 67, 24
1, 187767, Control_c, 0, 67, 0
1, 188112, Note_on_c, 0, 64, 61
1, 188154, Note_on_c, 0, 52, 39
1, 188157, Note_on_c, 0, 62, 34
1, 188168, Note_on_c, 0, 59, 15
1, 188219, Note_off_c, 0, 71, 37
1, 188270, Note_off_c, 0, 62, 39
1, 188291, Note_off_c, 0, 59, 43
1, 188305, Note_off_c, 0, 52, 43
1, 188785, Note_on_c, 0, 73, 73
1, 188856, Note_on_c, 0, 33, 40
1, 188863, Control_c, 0, 64, 103
1, 188874, Note_on_c, 0, 45, 38
1, 188878, Control_c, 0, 64, 76
1, 188893, Control_c, 0, 64, 63
1, 188908, Control_c, 0, 64, 0
1, 188997, Control_c, 0, 64, 60
1, 189006, Note_off_c, 0, 64, 32
1, 189012, Control_c, 0, 64, 67
1, 189027, Control_c, 0, 64, 73
1, 189042, Control_c, 0, 64, 83
1, 189055, Note_off_c, 0, 33, 47
1, 189057, Control_c, 0, 64, 99
1, 189072, Control_c, 0, 64, 127
1, 189131, Note_off_c, 0, 45, 50
1, 189549, Note_on_c, 0, 61, 51
1, 189555, Note_on_c, 0, 57, 41
1, 189561, Note_on_c, 0, 52, 41
1, 189652, Note_off_c, 0, 61, 51
1, 189683, Note_off_c, 0, 57, 47
1, 189754, Note_off_c, 0, 52, 47
1, 190101, Note_off_c, 0, 73, 38
1, 190336, Note_on_c, 0, 48, 51
1, 190342, Note_on_c, 0, 36, 47
1, 190421, Control_c, 0, 64, 100
1, 190436, Control_c, 0, 64, 71
1, 190451, Control_c, 0, 64, 54
1, 190466, Control_c, 0, 64, 0
1, 190469, Note_on_c, 0, 75, 79
1, 190540, Control_c, 0, 64, 41
1, 190554, Control_c, 0, 64, 60
1, 190568, Note_off_c, 0, 36, 54
1, 190569, Control_c, 0, 64, 66
1, 190584, Control_c, 0, 64, 70
1, 190599, Control_c, 0, 64, 77
1, 190614, Control_c, 0, 64, 90
1, 190628, Control_c, 0, 64, 127
1, 190629, Note_off_c, 0, 48, 61
1, 190856, Note_off_c, 0, 75, 61
1, 190945, Note_on_c, 0, 55, 49
1, 191102, Note_on_c, 0, 56, 65
1, 191107, Note_off_c, 0, 55, 62
1, 191221, Note_on_c, 0, 60, 69
1, 191223, Note_off_c, 0, 56, 59
1, 191275, Note_off_c, 0, 60, 62
1, 191316, Note_on_c, 0, 63, 68
1, 191346, Note_off_c, 0, 63, 60
1, 191388, Note_on_c, 0, 68, 75
1, 191410, Note_off_c, 0, 68, 70
1, 191464, Note_on_c, 0, 68, 85
1, 191512, Note_off_c, 0, 68, 62
1, 191599, Note_on_c, 0, 80, 86
1, 191623, Note_on_c, 0, 63, 59
1, 191625, Note_on_c, 0, 66, 62
1, 191632, Note_on_c, 0, 56, 54
1, 191657, Note_off_c, 0, 66, 65
1, 191659, Note_off_c, 0, 63, 62
1, 191664, Note_off_c, 0, 56, 63
1, 192481, Note_on_c, 0, 78, 79
1, 192523, Note_off_c, 0, 80, 62
1, 192597, Note_off_c, 0, 78, 58
1, 192682, Note_on_c, 0, 78, 82
1, 192714, Note_on_c, 0, 37, 46
1, 192724, Note_on_c, 0, 49, 44
1, 192741, Control_c, 0, 64, 82
1, 192756, Control_c, 0, 64, 66
1, 192771, Control_c, 0, 64, 30
1, 192786, Control_c, 0, 64, 0
1, 192890, Control_c, 0, 64, 32
1, 192904, Control_c, 0, 64, 61
1, 192919, Control_c, 0, 64, 68
1, 192934, Control_c, 0, 64, 73
1, 192947, Note_off_c, 0, 37, 51
1, 192948, Control_c, 0, 64, 81
1, 192963, Control_c, 0, 64, 94
1, 192978, Control_c, 0, 64, 127
1, 193060, Note_off_c, 0, 49, 39
1, 193518, Note_on_c, 0, 76, 73
1, 193564, Note_off_c, 0, 78, 59
1, 193565, Note_on_c, 0, 52, 41
1, 193565, Note_on_c, 0, 56, 33
1, 193569, Note_on_c, 0, 64, 29
1, 193570, Note_on_c, 0, 61, 32
1, 193675, Note_off_c, 0, 61, 53
1, 193676, Note_off_c, 0, 64, 41
1, 193702, Note_off_c, 0, 52, 35
1, 193745, Note_off_c, 0, 56, 41
1, 194244, Note_on_c, 0, 75, 75
1, 194374, Note_off_c, 0, 75, 62
1, 194540, Note_on_c, 0, 75, 71
1, 194607, Note_on_c, 0, 33, 39
1, 194616, Note_on_c, 0, 45, 36
1, 194640, Note_off_c, 0, 76, 48
1, 194640, Control_c, 0, 64, 90
1, 194655, Control_c, 0, 64, 73
1, 194670, Control_c, 0, 64, 61
1, 194685, Control_c, 0, 64, 0
1, 194811, Control_c, 0, 64, 25
1, 194825, Control_c, 0, 64, 58
1, 194840, Control_c, 0, 64, 64
1, 194855, Control_c, 0, 64, 67
1, 194870, Control_c, 0, 64, 70
1, 194884, Note_off_c, 0, 33, 44
1, 194885, Control_c, 0, 64, 76
1, 194899, Control_c, 0, 64, 84
1, 194914, Control_c, 0, 64, 94
1, 194929, Control_c, 0, 64, 127
1, 194980, Note_off_c, 0, 45, 41
1, 195581, Note_on_c, 0, 61, 32
1, 195593, Note_on_c, 0, 64, 28
1, 195600, Note_on_c, 0, 54, 21
1, 196075, Note_on_c, 0, 73, 54
1, 196242, Control_c, 0, 67, 8
1, 196279, Control_c, 0, 67, 8
1, 196339, Control_c, 0, 67, 9
1, 196383, Control_c, 0, 67, 9
1, 196397, Control_c, 0, 67, 13
1, 196412, Control_c, 0, 67, 18
1, 196427, Control_c, 0, 67, 21
1, 196442, Control_c, 0, 67, 22
1, 196457, Control_c, 0, 67, 23
1, 196471, Control_c, 0, 67, 24
1, 196486, Control_c, 0, 67, 25
1, 196501, Control_c, 0, 67, 26
1, 196516, Control_c, 0, 67, 27
1, 196531, Control_c, 0, 67, 28
1, 196545, Control_c, 0, 67, 29
1, 196560, Control_c, 0, 67, 30
1, 196575, Control_c, 0, 67, 31
1, 196589, Control_c, 0, 67, 32
1, 196604, Control_c, 0, 67, 33
1, 196619, Control_c, 0, 67, 33
1, 196628, Note_on_c, 0, 72, 50
1, 196664, Control_c, 0, 67, 34
1, 196666, Note_off_c, 0, 73, 56
1, 196679, Control_c, 0, 67, 34
1, 196685, Note_off_c, 0, 75, 13
1, 196694, Control_c, 0, 64, 102
1, 196709, Control_c, 0, 64, 88
1, 196709, Control_c, 0, 67, 35
1, 196724, Control_c, 0, 64, 82
1, 196724, Control_c, 0, 67, 35
1, 196738, Control_c, 0, 64, 80
1, 196782, Control_c, 0, 64, 82
1, 196796, Control_c, 0, 64, 89
1, 196811, Control_c, 0, 64, 108
1, 196826, Control_c, 0, 64, 127
1, 197004, Control_c, 0, 64, 94
1, 197018, Note_on_c, 0, 73, 58
1, 197026, Control_c, 0, 64, 74
1, 197026, Control_c, 0, 67, 36
1, 197042, Control_c, 0, 64, 63
1, 197057, Control_c, 0, 64, 50
1, 197058, Note_off_c, 0, 72, 39
1, 197072, Control_c, 0, 64, 46
1, 197072, Control_c, 0, 67, 36
1, 197087, Control_c, 0, 64, 59
1, 197101, Control_c, 0, 64, 68
1, 197116, Control_c, 0, 64, 78
1, 197131, Control_c, 0, 64, 94
1, 197146, Control_c, 0, 64, 113
1, 197161, Control_c, 0, 64, 127
1, 197175, Control_c, 0, 67, 37
1, 197205, Control_c, 0, 67, 37
1, 197219, Control_c, 0, 67, 38
1, 197234, Control_c, 0, 67, 43
1, 197249, Control_c, 0, 67, 48
1, 197264, Control_c, 0, 67, 52
1, 197279, Control_c, 0, 67, 55
1, 197293, Control_c, 0, 67, 59
1, 197303, Note_off_c, 0, 54, 38
1, 197308, Control_c, 0, 67, 62
1, 197323, Control_c, 0, 67, 66
1, 197326, Note_off_c, 0, 64, 40
1, 197332, Note_off_c, 0, 61, 40
1, 197338, Control_c, 0, 67, 68
1, 197353, Control_c, 0, 67, 69
1, 197368, Control_c, 0, 67, 70
1, 197382, Control_c, 0, 67, 71
1, 197397, Control_c, 0, 67, 72
1, 197412, Control_c, 0, 67, 73
1, 197427, Control_c, 0, 67, 76
1, 197442, Control_c, 0, 64, 104
1, 197442, Control_c, 0, 67, 79
1, 197447, Note_on_c, 0, 75, 49
1, 197457, Control_c, 0, 64, 79
1, 197457, Control_c, 0, 67, 80
1, 197461, Note_off_c, 0, 73, 53
1, 197472, Control_c, 0, 64, 66
1, 197472, Control_c, 0, 67, 82
1, 197486, Control_c, 0, 64, 49
1, 197486, Control_c, 0, 67, 82
1, 197501, Control_c, 0, 64, 0
1, 197501, Control_c, 0, 67, 83
1, 197530, Control_c, 0, 64, 53
1, 197544, Control_c, 0, 64, 65
1, 197559, Control_c, 0, 64, 72
1, 197574, Control_c, 0, 64, 77
1, 197589, Control_c, 0, 64, 81
1, 197604, Control_c, 0, 64, 86
1, 197604, Control_c, 0, 67, 83
1, 197618, Control_c, 0, 64, 92
1, 197633, Control_c, 0, 64, 102
1, 197648, Control_c, 0, 64, 127
1, 197737, Control_c, 0, 67, 84
1, 197752, Control_c, 0, 67, 84
1, 197774, Control_c, 0, 67, 85
1, 197789, Control_c, 0, 67, 88
1, 197804, Control_c, 0, 67, 94
1, 197818, Control_c, 0, 67, 98
1, 197834, Control_c, 0, 67, 100
1, 197849, Control_c, 0, 67, 101
1, 197864, Control_c, 0, 67, 102
1, 197879, Control_c, 0, 67, 103
1, 197982, Control_c, 0, 64, 109
1, 197982, Control_c, 0, 67, 103
1, 197995, Note_on_c, 0, 76, 44
1, 197997, Control_c, 0, 64, 97
1, 197997, Control_c, 0, 67, 104
1, 198012, Note_off_c, 0, 75, 37
1, 198012, Control_c, 0, 64, 86
1, 198027, Control_c, 0, 64, 77
1, 198041, Control_c, 0, 64, 70
1, 198056, Control_c, 0, 64, 63
1, 198071, Control_c, 0, 64, 50
1, 198086, Control_c, 0, 64, 0
1, 198101, Control_c, 0, 67, 104
1, 198116, Control_c, 0, 67, 105
1, 198131, Control_c, 0, 67, 105
1, 198146, Control_c, 0, 67, 109
1, 198160, Control_c, 0, 67, 112
1, 198175, Control_c, 0, 67, 113
1, 198190, Control_c, 0, 67, 115
1, 198205, Control_c, 0, 67, 117
1, 198220, Control_c, 0, 67, 121
1, 198234, Control_c, 0, 64, 12
1, 198234, Control_c, 0, 67, 124
1, 198249, Control_c, 0, 64, 48
1, 198249, Control_c, 0, 67, 126
1, 198264, Control_c, 0, 64, 60
1, 198264, Control_c, 0, 67, 127
1, 198279, Control_c, 0, 64, 64
1, 198294, Control_c, 0, 64, 66
1, 198308, Control_c, 0, 64, 68
1, 198323, Control_c, 0, 64, 72
1, 198338, Control_c, 0, 64, 75
1, 198353, Control_c, 0, 64, 80
1, 198367, Control_c, 0, 64, 86
1, 198382, Control_c, 0, 64, 91
1, 198397, Control_c, 0, 64, 98
1, 198412, Control_c, 0, 64, 108
1, 198427, Control_c, 0, 64, 127
1, 198587, Note_off_c, 0, 76, 30
1, 198850, Control_c, 0, 64, 109
1, 198864, Control_c, 0, 64, 94
1, 198865, Note_on_c, 0, 76, 45
1, 198879, Control_c, 0, 64, 82
1, 198889, Note_on_c, 0, 37, 38
1, 198894, Control_c, 0, 64, 72
1, 198909, Control_c, 0, 64, 64
1, 198924, Control_c, 0, 64, 47
1, 198938, Control_c, 0, 64, 0
1, 198962, Note_on_c, 0, 49, 3
1, 199013, Control_c, 0, 64, 33
1, 199028, Control_c, 0, 64, 57
1, 199043, Control_c, 0, 64, 64
1, 199057, Control_c, 0, 64, 67
1, 199072, Control_c, 0, 64, 70
1, 199087, Control_c, 0, 64, 73
1, 199091, Note_off_c, 0, 37, 42
1, 199102, Control_c, 0, 64, 77
1, 199116, Control_c, 0, 64, 80
1, 199131, Control_c, 0, 64, 84
1, 199146, Control_c, 0, 64, 88
1, 199161, Control_c, 0, 64, 93
1, 199176, Control_c, 0, 64, 101
1, 199190, Control_c, 0, 64, 115
1, 199195, Note_off_c, 0, 76, 44
1, 199205, Control_c, 0, 64, 127
1, 199212, Note_off_c, 0, 49, 39
1, 199758, Note_on_c, 0, 69, 52
1, 199800, Note_on_c, 0, 57, 28
1, 199806, Note_on_c, 0, 64, 29
1, 199809, Note_on_c, 0, 52, 32
1, 199931, Note_off_c, 0, 64, 42
1, 200020, Note_off_c, 0, 52, 43
1, 200029, Note_off_c, 0, 57, 41
1, 200570, Note_on_c, 0, 47, 49
1, 200575, Note_on_c, 0, 35, 42
1, 200600, Control_c, 0, 64, 122
1, 200615, Control_c, 0, 64, 93
1, 200629, Control_c, 0, 64, 78
1, 200644, Control_c, 0, 64, 67
1, 200659, Control_c, 0, 64, 46
1, 200674, Control_c, 0, 64, 0
1, 200785, Control_c, 0, 64, 55
1, 200800, Control_c, 0, 64, 64
1, 200815, Control_c, 0, 64, 67
1, 200830, Control_c, 0, 64, 69
1, 200844, Control_c, 0, 64, 72
1, 200844, Control_c, 0, 67, 116
1, 200859, Control_c, 0, 64, 77
1, 200859, Control_c, 0, 67, 105
1, 200874, Control_c, 0, 64, 84
1, 200874, Control_c, 0, 67, 95
1, 200886, Note_off_c, 0, 35, 41
1, 200888, Control_c, 0, 64, 91
1, 200888, Control_c, 0, 67, 83
1, 200903, Control_c, 0, 64, 100
1, 200903, Control_c, 0, 67, 72
1, 200918, Control_c, 0, 64, 117
1, 200918, Control_c, 0, 67, 62
1, 200933, Control_c, 0, 64, 127
1, 200933, Control_c, 0, 67, 52
1, 200948, Control_c, 0, 67, 43
1, 200962, Control_c, 0, 67, 33
1, 200977, Control_c, 0, 67, 25
1, 200992, Control_c, 0, 67, 18
1, 201002, Note_off_c, 0, 47, 48
1, 201005, Note_on_c, 0, 68, 63
1, 201007, Control_c, 0, 67, 11
1, 201022, Control_c, 0, 67, 0
1, 201104, Note_off_c, 0, 69, 39
1, 201476, Note_on_c, 0, 71, 63
1, 201520, Note_off_c, 0, 68, 57
1, 201548, Note_on_c, 0, 52, 38
1, 201555, Note_on_c, 0, 59, 25
1, 201559, Note_on_c, 0, 64, 21
1, 201729, Note_off_c, 0, 64, 42
1, 201826, Note_on_c, 0, 69, 65
1, 201848, Note_off_c, 0, 59, 41
1, 201908, Note_off_c, 0, 71, 48
1, 201916, Note_off_c, 0, 52, 41
1, 202080, Note_on_c, 0, 68, 73
1, 202111, Note_off_c, 0, 69, 61
1, 202257, Note_off_c, 0, 68, 62
1, 202429, Note_on_c, 0, 68, 76
1, 202494, Note_on_c, 0, 34, 38
1, 202495, Note_on_c, 0, 46, 45
1, 202519, Control_c, 0, 64, 109
1, 202533, Control_c, 0, 64, 80
1, 202548, Control_c, 0, 64, 66
1, 202563, Control_c, 0, 64, 35
1, 202578, Control_c, 0, 64, 0
1, 202683, Control_c, 0, 64, 53
1, 202698, Control_c, 0, 64, 63
1, 202712, Control_c, 0, 64, 67
1, 202727, Control_c, 0, 64, 71
1, 202742, Control_c, 0, 64, 76
1, 202757, Control_c, 0, 64, 84
1, 202772, Control_c, 0, 64, 103
1, 202787, Control_c, 0, 64, 127
1, 202790, Note_off_c, 0, 34, 40
1, 202876, Note_off_c, 0, 46, 40
1, 202946, Note_on_c, 0, 61, 68
1, 203037, Note_off_c, 0, 68, 52
1, 203143, Note_off_c, 0, 61, 60
1, 203376, Note_on_c, 0, 68, 67
1, 203465, Note_on_c, 0, 64, 32
1, 203467, Note_on_c, 0, 61, 34
1, 203472, Note_on_c, 0, 54, 33
1, 203532, Note_off_c, 0, 68, 61
1, 203648, Note_on_c, 0, 66, 72
1, 203825, Note_on_c, 0, 73, 79
1, 203933, Note_off_c, 0, 66, 37
1, 204008, Note_on_c, 0, 80, 77
1, 204027, Note_off_c, 0, 73, 58
1, 204101, Note_off_c, 0, 80, 63
1, 204215, Note_on_c, 0, 78, 75
1, 204440, Note_on_c, 0, 85, 70
1, 204526, Note_off_c, 0, 78, 56
1, 204568, Note_off_c, 0, 64, 43
1, 204707, Note_off_c, 0, 61, 39
1, 204733, Note_on_c, 0, 92, 63
1, 204752, Note_off_c, 0, 85, 49
1, 204814, Note_off_c, 0, 54, 40
1, 205007, Note_on_c, 0, 90, 61
1, 205019, Control_c, 0, 67, 12
1, 205034, Control_c, 0, 67, 19
1, 205038, Note_off_c, 0, 92, 55
1, 205049, Control_c, 0, 67, 25
1, 205064, Control_c, 0, 67, 31
1, 205079, Control_c, 0, 67, 38
1, 205094, Control_c, 0, 67, 44
1, 205108, Control_c, 0, 67, 52
1, 205123, Control_c, 0, 67, 58
1, 205138, Control_c, 0, 67, 63
1, 205152, Control_c, 0, 67, 68
1, 205167, Control_c, 0, 67, 73
1, 205182, Control_c, 0, 67, 78
1, 205197, Control_c, 0, 67, 85
1, 205212, Control_c, 0, 67, 94
1, 205226, Control_c, 0, 67, 102
1, 205249, Control_c, 0, 67, 109
1, 205264, Control_c, 0, 67, 116
1, 205278, Control_c, 0, 67, 122
1, 205292, Note_off_c, 0, 90, 56
1, 205293, Control_c, 0, 67, 127
1, 205300, Note_on_c, 0, 85, 52
1, 205622, Note_off_c, 0, 85, 0
1, 205661, Note_on_c, 0, 80, 55
1, 205670, Poly_aftertouch_c, 0, 85, 0
1, 205693, Control_c, 0, 64, 94
1, 205705, Note_on_c, 0, 30, 30
1, 205708, Control_c, 0, 64, 75
1, 205723, Control_c, 0, 64, 63
1, 205725, Note_on_c, 0, 42, 26
1, 205738, Control_c, 0, 64, 0
1, 205886, Control_c, 0, 64, 33
1, 205900, Control_c, 0, 64, 53
1, 205915, Control_c, 0, 64, 61
1, 205930, Control_c, 0, 64, 65
1, 205945, Control_c, 0, 64, 69
1, 205960, Control_c, 0, 64, 73
1, 205974, Control_c, 0, 64, 78
1, 205989, Control_c, 0, 64, 82
1, 206012, Control_c, 0, 64, 89
1, 206024, Note_on_c, 0, 78, 55
1, 206027, Control_c, 0, 64, 103
1, 206042, Control_c, 0, 64, 127
1, 206055, Note_off_c, 0, 30, 40
1, 206075, Note_off_c, 0, 80, 47
1, 206129, Note_off_c, 0, 42, 41
1, 206310, Note_on_c, 0, 76, 52
1, 206635, Note_on_c, 0, 73, 45
1, 206682, Note_on_c, 0, 64, 32
1, 206689, Note_on_c, 0, 54, 34
1, 206689, Note_on_c, 0, 58, 28
1, 206926, Note_off_c, 0, 78, 1
1, 206935, Note_off_c, 0, 64, 42
1, 206955, Note_off_c, 0, 76, 41
1, 206969, Note_on_c, 0, 68, 49
1, 206975, Note_off_c, 0, 73, 47
1, 206997, Note_off_c, 0, 58, 37
1, 207002, Note_off_c, 0, 54, 35
1, 207310, Note_on_c, 0, 66, 52
1, 207322, Note_off_c, 0, 68, 37
1, 207472, Note_off_c, 0, 66, 45
1, 207629, Note_on_c, 0, 68, 40
1, 207669, Note_off_c, 0, 68, 49
1, 207675, Note_on_c, 0, 66, 51
1, 207718, Note_off_c, 0, 66, 61
1, 207769, Note_on_c, 0, 68, 42
1, 207810, Note_off_c, 0, 68, 49
1, 207827, Note_on_c, 0, 66, 41
1, 207860, Note_off_c, 0, 66, 57
1, 207889, Note_on_c, 0, 35, 36
1, 207893, Note_on_c, 0, 68, 50
1, 207895, Control_c, 0, 64, 98
1, 207907, Note_on_c, 0, 47, 40
1, 207910, Control_c, 0, 64, 82
1, 207925, Control_c, 0, 64, 71
1, 207927, Note_off_c, 0, 68, 55
1, 207940, Control_c, 0, 64, 60
1, 207954, Control_c, 0, 64, 38
1, 207964, Note_on_c, 0, 66, 40
1, 207969, Control_c, 0, 64, 0
1, 207984, Control_c, 0, 64, 22
1, 207992, Note_off_c, 0, 66, 59
1, 207999, Control_c, 0, 64, 46
1, 208013, Control_c, 0, 64, 59
1, 208014, Note_on_c, 0, 68, 52
1, 208028, Control_c, 0, 64, 64
1, 208043, Control_c, 0, 64, 67
1, 208055, Note_off_c, 0, 68, 60
1, 208058, Control_c, 0, 64, 70
1, 208072, Control_c, 0, 64, 74
1, 208082, Note_on_c, 0, 66, 51
1, 208087, Control_c, 0, 64, 78
1, 208102, Control_c, 0, 64, 81
1, 208116, Note_off_c, 0, 66, 57
1, 208117, Control_c, 0, 64, 85
1, 208132, Control_c, 0, 64, 89
1, 208146, Control_c, 0, 64, 92
1, 208152, Note_on_c, 0, 68, 50
1, 208161, Control_c, 0, 64, 95
1, 208176, Control_c, 0, 64, 97
1, 208184, Note_off_c, 0, 68, 53
1, 208191, Control_c, 0, 64, 98
1, 208206, Control_c, 0, 64, 99
1, 208220, Note_on_c, 0, 66, 47
1, 208222, Control_c, 0, 64, 99
1, 208252, Note_off_c, 0, 66, 60
1, 208285, Note_on_c, 0, 68, 54
1, 208326, Note_off_c, 0, 68, 52
1, 208340, Note_on_c, 0, 66, 51
1, 208385, Note_off_c, 0, 66, 56
1, 208413, Note_on_c, 0, 68, 51
1, 208454, Note_off_c, 0, 68, 52
1, 208481, Note_on_c, 0, 66, 51
1, 208514, Note_off_c, 0, 66, 58
1, 208545, Note_on_c, 0, 68, 54
1, 208573, Note_off_c, 0, 68, 56
1, 208623, Note_on_c, 0, 66, 42
1, 208658, Note_on_c, 0, 68, 60
1, 208659, Note_off_c, 0, 66, 50
1, 208715, Note_off_c, 0, 68, 56
1, 208718, Control_c, 0, 64, 99
1, 208734, Note_on_c, 0, 66, 36
1, 208772, Note_on_c, 0, 68, 47
1, 208792, Control_c, 0, 64, 98
1, 208807, Control_c, 0, 64, 98
1, 208820, Note_off_c, 0, 66, 0
1, 208829, Note_off_c, 0, 68, 56
1, 208837, Control_c, 0, 64, 97
1, 208839, Note_on_c, 0, 66, 35
1, 208851, Control_c, 0, 64, 96
1, 208866, Control_c, 0, 64, 95
1, 208881, Control_c, 0, 64, 93
1, 208895, Control_c, 0, 64, 87
1, 208910, Control_c, 0, 64, 81
1, 208925, Control_c, 0, 64, 73
1, 208940, Control_c, 0, 64, 64
1, 208955, Control_c, 0, 64, 43
1, 208969, Control_c, 0, 64, 0
1, 209103, Note_on_c, 0, 65, 47
1, 209116, Note_off_c, 0, 66, 47
1, 209407, Note_off_c, 0, 65, 52
1, 209421, Note_on_c, 0, 66, 48
1, 209525, Control_c, 0, 64, 25
1, 209540, Control_c, 0, 64, 56
1, 209555, Control_c, 0, 64, 63
1, 209570, Control_c, 0, 64, 67
1, 209585, Control_c, 0, 64, 71
1, 209599, Control_c, 0, 64, 76
1, 209614, Control_c, 0, 64, 81
1, 209629, Control_c, 0, 64, 85
1, 209643, Control_c, 0, 64, 91
1, 209658, Control_c, 0, 64, 97
1, 209665, Note_off_c, 0, 35, 44
1, 209673, Control_c, 0, 64, 104
1, 209688, Control_c, 0, 64, 113
1, 209703, Control_c, 0, 64, 127
1, 209754, Note_off_c, 0, 47, 43
1, 210076, Note_on_c, 0, 68, 40
1, 210089, Note_on_c, 0, 57, 33
1, 210108, Note_on_c, 0, 63, 33
1, 210144, Note_off_c, 0, 66, 38
1, 210182, Note_off_c, 0, 57, 35
1, 210987, Note_off_c, 0, 68, 45
1, 210988, Note_off_c, 0, 63, 43
1, 211650, Note_on_c, 0, 59, 43
1, 212001, Control_c, 0, 64, 112
1, 212009, Note_on_c, 0, 64, 42
1, 212016, Control_c, 0, 64, 104
1, 212031, Control_c, 0, 64, 96
1, 212031, Note_on_c, 0, 56, 30
1, 212037, Note_off_c, 0, 59, 36
1, 212045, Control_c, 0, 64, 87
1, 212052, Note_on_c, 0, 40, 35
1, 212060, Control_c, 0, 64, 76
1, 212075, Control_c, 0, 64, 68
1, 212090, Control_c, 0, 64, 59
1, 212105, Control_c, 0, 64, 0
1, 212283, Control_c, 0, 64, 50
1, 212298, Control_c, 0, 64, 60
1, 212313, Control_c, 0, 64, 64
1, 212328, Control_c, 0, 64, 65
1, 212342, Control_c, 0, 64, 67
1, 212357, Control_c, 0, 64, 69
1, 212370, Note_off_c, 0, 40, 41
1, 212372, Control_c, 0, 64, 72
1, 212387, Control_c, 0, 64, 76
1, 212402, Control_c, 0, 64, 80
1, 212416, Control_c, 0, 64, 83
1, 212431, Control_c, 0, 64, 87
1, 212446, Control_c, 0, 64, 91
1, 212460, Control_c, 0, 64, 95
1, 212475, Control_c, 0, 64, 98
1, 212490, Control_c, 0, 64, 99
1, 212505, Control_c, 0, 64, 100
1, 212728, Control_c, 0, 64, 99
1, 212749, Control_c, 0, 64, 99
1, 212764, Control_c, 0, 64, 98
1, 212779, Control_c, 0, 64, 98
1, 212794, Control_c, 0, 64, 97
1, 212809, Control_c, 0, 64, 97
1, 212823, Control_c, 0, 64, 96
1, 212838, Control_c, 0, 64, 95
1, 212853, Control_c, 0, 64, 94
1, 212868, Control_c, 0, 64, 93
1, 212883, Control_c, 0, 64, 92
1, 212898, Control_c, 0, 64, 91
1, 212913, Control_c, 0, 64, 89
1, 212928, Control_c, 0, 64, 87
1, 212942, Control_c, 0, 64, 84
1, 212957, Control_c, 0, 64, 81
1, 212972, Control_c, 0, 64, 77
1, 212976, Note_on_c, 0, 49, 37
1, 212986, Control_c, 0, 64, 72
1, 213001, Control_c, 0, 64, 67
1, 213017, Control_c, 0, 64, 61
1, 213032, Control_c, 0, 64, 48
1, 213047, Control_c, 0, 64, 0
1, 213121, Control_c, 0, 64, 38
1, 213136, Control_c, 0, 64, 53
1, 213151, Control_c, 0, 64, 60
1, 213165, Control_c, 0, 64, 63
1, 213180, Control_c, 0, 64, 64
1, 213195, Control_c, 0, 64, 65
1, 213210, Control_c, 0, 64, 66
1, 213225, Control_c, 0, 64, 68
1, 213229, Note_on_c, 0, 46, 41
1, 213231, Note_off_c, 0, 49, 39
1, 213240, Control_c, 0, 64, 70
1, 213255, Control_c, 0, 64, 72
1, 213270, Control_c, 0, 64, 73
1, 213284, Control_c, 0, 64, 75
1, 213299, Control_c, 0, 64, 76
1, 213314, Control_c, 0, 64, 78
1, 213329, Control_c, 0, 64, 78
1, 213344, Control_c, 0, 64, 79
1, 213411, Note_off_c, 0, 46, 40
1, 213427, Note_on_c, 0, 49, 38
1, 213566, Note_off_c, 0, 49, 33
1, 213578, Note_on_c, 0, 47, 38
1, 213691, Control_c, 0, 64, 78
1, 213732, Note_on_c, 0, 51, 44
1, 213775, Note_off_c, 0, 47, 33
1, 213855, Note_off_c, 0, 51, 52
1, 213879, Note_on_c, 0, 49, 40
1, 213942, Note_off_c, 0, 56, 42
1, 213962, Note_off_c, 0, 49, 52
1, 213983, Note_off_c, 0, 64, 42
1, 214013, Note_on_c, 0, 52, 44
1, 214122, Note_off_c, 0, 52, 57
1, 214144, Note_on_c, 0, 51, 48
1, 214281, Note_off_c, 0, 51, 34
1, 214289, Note_on_c, 0, 54, 37
1, 214409, Note_on_c, 0, 52, 51
1, 214436, Note_off_c, 0, 54, 36
1, 214500, Control_c, 0, 64, 78
1, 214559, Control_c, 0, 64, 77
1, 214574, Control_c, 0, 64, 76
1, 214588, Control_c, 0, 64, 75
1, 214604, Control_c, 0, 64, 73
1, 214612, Note_off_c, 0, 52, 43
1, 214619, Note_on_c, 0, 64, 57
1, 214619, Control_c, 0, 64, 70
1, 214625, Note_on_c, 0, 57, 42
1, 214634, Control_c, 0, 64, 66
1, 214649, Control_c, 0, 64, 59
1, 214663, Control_c, 0, 64, 35
1, 214678, Control_c, 0, 64, 0
1, 214797, Control_c, 0, 64, 45
1, 214803, Note_off_c, 0, 57, 55
1, 214812, Control_c, 0, 64, 58
1, 214827, Note_on_c, 0, 56, 41
1, 214827, Control_c, 0, 64, 62
1, 214842, Control_c, 0, 64, 64
1, 214856, Control_c, 0, 64, 65
1, 214871, Control_c, 0, 64, 67
1, 214886, Control_c, 0, 64, 70
1, 214901, Control_c, 0, 64, 74
1, 214916, Control_c, 0, 64, 76
1, 214930, Control_c, 0, 64, 77
1, 214945, Control_c, 0, 64, 78
1, 214960, Control_c, 0, 64, 79
1, 214975, Control_c, 0, 64, 79
1, 215003, Note_on_c, 0, 54, 41
1, 215014, Note_off_c, 0, 56, 43
1, 215184, Note_off_c, 0, 64, 54
1, 215197, Note_off_c, 0, 54, 38
1, 215204, Control_c, 0, 64, 79
1, 215209, Note_on_c, 0, 52, 43
1, 215210, Note_on_c, 0, 66, 53
1, 215248, Note_off_c, 0, 52, 54
1, 215249, Control_c, 0, 64, 78
1, 215308, Control_c, 0, 64, 78
1, 215381, Control_c, 0, 64, 77
1, 215396, Control_c, 0, 64, 77
1, 215413, Control_c, 0, 64, 76
1, 215416, Note_off_c, 0, 66, 55
1, 215427, Control_c, 0, 64, 75
1, 215442, Control_c, 0, 64, 73
1, 215448, Note_on_c, 0, 68, 51
1, 215456, Note_on_c, 0, 64, 39
1, 215457, Control_c, 0, 64, 69
1, 215463, Note_on_c, 0, 51, 28
1, 215466, Note_on_c, 0, 56, 33
1, 215472, Control_c, 0, 64, 65
1, 215486, Control_c, 0, 64, 60
1, 215501, Control_c, 0, 64, 41
1, 215516, Control_c, 0, 64, 0
1, 215694, Control_c, 0, 64, 43
1, 215709, Control_c, 0, 64, 54
1, 215724, Control_c, 0, 64, 60
1, 215746, Control_c, 0, 64, 62
1, 215760, Control_c, 0, 64, 63
1, 215775, Control_c, 0, 64, 64
1, 215790, Control_c, 0, 64, 66
1, 215805, Control_c, 0, 64, 68
1, 215819, Control_c, 0, 64, 70
1, 215834, Control_c, 0, 64, 72
1, 215849, Control_c, 0, 64, 73
1, 215864, Control_c, 0, 64, 75
1, 215879, Control_c, 0, 64, 76
1, 215894, Control_c, 0, 64, 78
1, 215909, Control_c, 0, 64, 78
1, 215913, Note_off_c, 0, 51, 39
1, 215924, Control_c, 0, 64, 79
1, 215938, Note_on_c, 0, 37, 40
1, 216094, Note_off_c, 0, 56, 41
1, 216101, Note_on_c, 0, 44, 37
1, 216111, Note_off_c, 0, 37, 33
1, 216197, Note_off_c, 0, 44, 50
1, 216246, Note_on_c, 0, 49, 38
1, 216269, Note_off_c, 0, 64, 39
1, 216283, Note_off_c, 0, 49, 48
1, 216376, Note_on_c, 0, 48, 51
1, 216536, Note_off_c, 0, 48, 33
1, 216540, Note_on_c, 0, 51, 39
1, 216674, Note_on_c, 0, 49, 41
1, 216675, Note_off_c, 0, 51, 39
1, 216758, Note_off_c, 0, 49, 60
1, 216799, Note_on_c, 0, 52, 50
1, 216915, Note_off_c, 0, 52, 58
1, 216934, Note_on_c, 0, 51, 49
1, 217043, Note_off_c, 0, 51, 53
1, 217058, Note_on_c, 0, 54, 50
1, 217172, Note_off_c, 0, 54, 53
1, 217194, Note_on_c, 0, 52, 45
1, 217273, Control_c, 0, 64, 78
1, 217332, Control_c, 0, 64, 78
1, 217347, Control_c, 0, 64, 77
1, 217357, Note_on_c, 0, 61, 67
1, 217362, Control_c, 0, 64, 76
1, 217367, Note_off_c, 0, 52, 41
1, 217372, Note_on_c, 0, 64, 51
1, 217377, Control_c, 0, 64, 73
1, 217392, Control_c, 0, 64, 70
1, 217393, Note_on_c, 0, 57, 41
1, 217405, Note_off_c, 0, 68, 50
1, 217406, Control_c, 0, 64, 65
1, 217421, Control_c, 0, 64, 56
1, 217436, Control_c, 0, 64, 0
1, 217569, Control_c, 0, 64, 50
1, 217582, Note_off_c, 0, 57, 53
1, 217584, Control_c, 0, 64, 58
1, 217596, Note_on_c, 0, 56, 39
1, 217599, Control_c, 0, 64, 60
1, 217614, Control_c, 0, 64, 61
1, 217629, Control_c, 0, 64, 62
1, 217644, Control_c, 0, 64, 63
1, 217658, Control_c, 0, 64, 65
1, 217673, Control_c, 0, 64, 67
1, 217688, Control_c, 0, 64, 68
1, 217703, Control_c, 0, 64, 70
1, 217718, Control_c, 0, 64, 71
1, 217732, Control_c, 0, 64, 73
1, 217747, Control_c, 0, 64, 74
1, 217752, Note_on_c, 0, 66, 44
1, 217762, Control_c, 0, 64, 76
1, 217766, Note_off_c, 0, 64, 38
1, 217769, Note_off_c, 0, 56, 41
1, 217776, Control_c, 0, 64, 77
1, 217780, Note_on_c, 0, 54, 34
1, 217791, Control_c, 0, 64, 78
1, 217945, Note_off_c, 0, 54, 38
1, 217997, Note_on_c, 0, 52, 36
1, 218177, Note_on_c, 0, 59, 59
1, 218208, Note_off_c, 0, 66, 34
1, 218215, Note_off_c, 0, 61, 31
1, 218252, Note_on_c, 0, 68, 18
1, 218278, Poly_aftertouch_c, 0, 64, 0
1, 218300, Note_off_c, 0, 68, 47
1, 218407, Control_c, 0, 64, 77
1, 218437, Control_c, 0, 64, 77
1, 218447, Note_off_c, 0, 52, 41
1, 218451, Note_on_c, 0, 42, 37
1, 218466, Control_c, 0, 64, 76
1, 218481, Control_c, 0, 64, 76
1, 218496, Control_c, 0, 64, 75
1, 218511, Control_c, 0, 64, 74
1, 218523, Note_off_c, 0, 59, 54
1, 218524, Note_on_c, 0, 58, 54
1, 218526, Control_c, 0, 64, 72
1, 218540, Control_c, 0, 64, 70
1, 218548, Note_on_c, 0, 68, 43
1, 218555, Control_c, 0, 64, 66
1, 218561, Note_on_c, 0, 64, 41
1, 218570, Control_c, 0, 64, 62
1, 218585, Control_c, 0, 64, 53
1, 218600, Control_c, 0, 64, 0
1, 218815, Control_c, 0, 64, 43
1, 218830, Control_c, 0, 64, 54
1, 218845, Control_c, 0, 64, 60
1, 218860, Control_c, 0, 64, 62
1, 218875, Control_c, 0, 64, 63
1, 218890, Control_c, 0, 64, 64
1, 218904, Control_c, 0, 64, 65
1, 218919, Control_c, 0, 64, 67
1, 218934, Control_c, 0, 64, 69
1, 218949, Control_c, 0, 64, 71
1, 218964, Control_c, 0, 64, 72
1, 218978, Control_c, 0, 64, 74
1, 218993, Control_c, 0, 64, 75
1, 219008, Control_c, 0, 64, 75
1, 219023, Control_c, 0, 64, 76
1, 219042, Note_on_c, 0, 48, 37
1, 219179, Note_off_c, 0, 48, 37
1, 219185, Note_on_c, 0, 49, 34
1, 219256, Note_off_c, 0, 42, 30
1, 219306, Note_off_c, 0, 49, 36
1, 219319, Note_on_c, 0, 52, 49
1, 219344, Note_off_c, 0, 64, 42
1, 219446, Note_off_c, 0, 52, 55
1, 219460, Note_on_c, 0, 51, 47
1, 219576, Note_off_c, 0, 51, 51
1, 219603, Note_on_c, 0, 54, 45
1, 219653, Control_c, 0, 64, 75
1, 219712, Control_c, 0, 64, 75
1, 219720, Note_off_c, 0, 54, 55
1, 219742, Control_c, 0, 64, 74
1, 219747, Note_on_c, 0, 52, 43
1, 219786, Control_c, 0, 64, 74
1, 219816, Control_c, 0, 64, 73
1, 219846, Control_c, 0, 64, 73
1, 219860, Control_c, 0, 64, 72
1, 219875, Control_c, 0, 64, 72
1, 219890, Control_c, 0, 64, 71
1, 219905, Control_c, 0, 64, 70
1, 219920, Control_c, 0, 64, 69
1, 219934, Control_c, 0, 64, 66
1, 219935, Note_on_c, 0, 66, 49
1, 219949, Control_c, 0, 64, 63
1, 219963, Note_off_c, 0, 68, 53
1, 219963, Note_off_c, 0, 52, 43
1, 219964, Control_c, 0, 64, 57
1, 219966, Note_on_c, 0, 63, 30
1, 219976, Note_on_c, 0, 56, 36
1, 219978, Control_c, 0, 64, 40
1, 219993, Control_c, 0, 64, 0
1, 220186, Control_c, 0, 64, 41
1, 220201, Control_c, 0, 64, 53
1, 220224, Control_c, 0, 64, 58
1, 220239, Control_c, 0, 64, 60
1, 220254, Control_c, 0, 64, 62
1, 220269, Control_c, 0, 64, 63
1, 220283, Control_c, 0, 64, 65
1, 220298, Control_c, 0, 64, 66
1, 220309, Note_on_c, 0, 49, 36
1, 220313, Control_c, 0, 64, 68
1, 220328, Control_c, 0, 64, 69
1, 220343, Control_c, 0, 64, 70
1, 220357, Control_c, 0, 64, 71
1, 220372, Control_c, 0, 64, 73
1, 220387, Control_c, 0, 64, 75
1, 220401, Control_c, 0, 64, 76
1, 220465, Note_on_c, 0, 51, 40
1, 220481, Note_off_c, 0, 49, 30
1, 220510, Note_off_c, 0, 56, 30
1, 220611, Note_off_c, 0, 51, 37
1, 220614, Note_off_c, 0, 63, 44
1, 220629, Note_on_c, 0, 54, 41
1, 220654, Control_c, 0, 64, 75
1, 220683, Control_c, 0, 64, 75
1, 220713, Control_c, 0, 64, 74
1, 220757, Control_c, 0, 64, 74
1, 220778, Note_on_c, 0, 52, 46
1, 220786, Note_off_c, 0, 54, 34
1, 220801, Control_c, 0, 64, 73
1, 220861, Control_c, 0, 64, 73
1, 220875, Control_c, 0, 64, 72
1, 220890, Control_c, 0, 64, 71
1, 220905, Control_c, 0, 64, 70
1, 220920, Control_c, 0, 64, 67
1, 220935, Control_c, 0, 64, 62
1, 220946, Note_on_c, 0, 64, 51
1, 220949, Control_c, 0, 64, 41
1, 220955, Note_off_c, 0, 52, 56
1, 220956, Note_off_c, 0, 66, 53
1, 220964, Control_c, 0, 64, 0
1, 220989, Note_on_c, 0, 56, 33
1, 220996, Note_on_c, 0, 61, 31
1, 221047, Control_c, 0, 64, 23
1, 221062, Control_c, 0, 64, 57
1, 221077, Control_c, 0, 64, 64
1, 221092, Control_c, 0, 64, 67
1, 221106, Control_c, 0, 64, 68
1, 221121, Control_c, 0, 64, 70
1, 221136, Control_c, 0, 64, 72
1, 221151, Control_c, 0, 64, 74
1, 221166, Control_c, 0, 64, 76
1, 221180, Control_c, 0, 64, 77
1, 221182, Note_on_c, 0, 54, 35
1, 221195, Control_c, 0, 64, 77
1, 221203, Note_off_c, 0, 61, 53
1, 221209, Note_off_c, 0, 64, 61
1, 221250, Note_off_c, 0, 56, 34
1, 221388, Control_c, 0, 64, 77
1, 221417, Control_c, 0, 64, 76
1, 221421, Note_off_c, 0, 54, 40
1, 221432, Control_c, 0, 64, 76
1, 221439, Note_on_c, 0, 57, 26
1, 221444, Note_on_c, 0, 52, 37
1, 221447, Control_c, 0, 64, 75
1, 221462, Control_c, 0, 64, 74
1, 221477, Control_c, 0, 64, 73
1, 221492, Control_c, 0, 64, 71
1, 221506, Control_c, 0, 64, 68
1, 221521, Control_c, 0, 64, 64
1, 221530, Note_on_c, 0, 73, 65
1, 221536, Control_c, 0, 64, 57
1, 221550, Control_c, 0, 64, 34
1, 221559, Note_off_c, 0, 58, 52
1, 221565, Control_c, 0, 64, 0
1, 221598, Note_on_c, 0, 66, 25
1, 221713, Control_c, 0, 64, 25
1, 221736, Control_c, 0, 64, 47
1, 221750, Control_c, 0, 64, 55
1, 221765, Control_c, 0, 64, 60
1, 221780, Control_c, 0, 64, 62
1, 221795, Control_c, 0, 64, 63
1, 221811, Control_c, 0, 64, 65
1, 221826, Control_c, 0, 64, 66
1, 221838, Note_off_c, 0, 52, 43
1, 221841, Control_c, 0, 64, 67
1, 221846, Note_on_c, 0, 51, 35
1, 221855, Control_c, 0, 64, 69
1, 221870, Control_c, 0, 64, 70
1, 221885, Control_c, 0, 64, 72
1, 221900, Control_c, 0, 64, 73
1, 221915, Control_c, 0, 64, 74
1, 221929, Control_c, 0, 64, 75
1, 221944, Control_c, 0, 64, 76
1, 221959, Control_c, 0, 64, 77
1, 221993, Note_off_c, 0, 51, 34
1, 222010, Note_on_c, 0, 49, 37
1, 222139, Note_off_c, 0, 49, 52
1, 222181, Note_on_c, 0, 52, 40
1, 222315, Control_c, 0, 64, 76
1, 222329, Control_c, 0, 64, 74
1, 222336, Note_off_c, 0, 52, 42
1, 222344, Control_c, 0, 64, 69
1, 222346, Note_on_c, 0, 51, 44
1, 222356, Note_on_c, 0, 71, 48
1, 222359, Control_c, 0, 64, 63
1, 222373, Control_c, 0, 64, 44
1, 222380, Note_off_c, 0, 73, 61
1, 222388, Control_c, 0, 64, 0
1, 222433, Control_c, 0, 64, 37
1, 222447, Control_c, 0, 64, 60
1, 222462, Control_c, 0, 64, 65
1, 222476, Note_off_c, 0, 51, 52
1, 222485, Control_c, 0, 64, 67
1, 222500, Control_c, 0, 64, 68
1, 222514, Note_on_c, 0, 49, 36
1, 222514, Control_c, 0, 64, 69
1, 222529, Control_c, 0, 64, 70
1, 222544, Control_c, 0, 64, 71
1, 222559, Control_c, 0, 64, 71
1, 222577, Poly_aftertouch_c, 0, 70, 127
1, 222598, Note_off_c, 0, 49, 56
1, 222634, Note_on_c, 0, 47, 49
1, 222647, Poly_aftertouch_c, 0, 70, 0
1, 222715, Note_off_c, 0, 66, 42
1, 222744, Note_off_c, 0, 47, 59
1, 222762, Note_on_c, 0, 51, 46
1, 222826, Control_c, 0, 64, 70
1, 222841, Control_c, 0, 64, 67
1, 222856, Control_c, 0, 64, 62
1, 222869, Note_off_c, 0, 51, 58
1, 222870, Control_c, 0, 64, 41
1, 222878, Note_off_c, 0, 57, 0
1, 222885, Control_c, 0, 64, 0
1, 222886, Note_on_c, 0, 64, 61
1, 222898, Note_on_c, 0, 49, 40
1, 222916, Poly_aftertouch_c, 0, 57, 127
1, 222944, Control_c, 0, 64, 41
1, 222959, Control_c, 0, 64, 60
1, 222973, Control_c, 0, 64, 64
1, 222988, Control_c, 0, 64, 67
1, 222999, Note_off_c, 0, 49, 54
1, 223002, Control_c, 0, 64, 69
1, 223017, Control_c, 0, 64, 70
1, 223032, Control_c, 0, 64, 72
1, 223038, Note_on_c, 0, 47, 51
1, 223047, Control_c, 0, 64, 74
1, 223062, Control_c, 0, 64, 75
1, 223076, Control_c, 0, 64, 76
1, 223106, Control_c, 0, 64, 76
1, 223142, Note_off_c, 0, 64, 61
1, 223159, Note_off_c, 0, 47, 56
1, 223181, Note_on_c, 0, 46, 45
1, 223276, Control_c, 0, 64, 76
1, 223310, Note_on_c, 0, 49, 40
1, 223313, Note_off_c, 0, 46, 35
1, 223350, Control_c, 0, 64, 75
1, 223380, Control_c, 0, 64, 75
1, 223411, Control_c, 0, 64, 74
1, 223425, Control_c, 0, 64, 73
1, 223440, Control_c, 0, 64, 70
1, 223447, Note_off_c, 0, 49, 45
1, 223453, Note_on_c, 0, 66, 59
1, 223455, Control_c, 0, 64, 66
1, 223470, Control_c, 0, 64, 58
1, 223473, Note_on_c, 0, 47, 41
1, 223484, Note_on_c, 0, 63, 37
1, 223485, Control_c, 0, 64, 23
1, 223499, Control_c, 0, 64, 0
1, 223573, Control_c, 0, 64, 21
1, 223588, Control_c, 0, 64, 54
1, 223603, Control_c, 0, 64, 62
1, 223617, Control_c, 0, 64, 64
1, 223632, Control_c, 0, 64, 65
1, 223647, Control_c, 0, 64, 66
1, 223662, Control_c, 0, 64, 67
1, 223674, Note_on_c, 0, 42, 31
1, 223677, Control_c, 0, 64, 69
1, 223692, Control_c, 0, 64, 70
1, 223707, Control_c, 0, 64, 71
1, 223722, Control_c, 0, 64, 72
1, 223737, Control_c, 0, 64, 72
1, 223751, Control_c, 0, 64, 73
1, 223762, Note_off_c, 0, 47, 32
1, 223784, Note_off_c, 0, 71, 44
1, 223895, Note_on_c, 0, 37, 34
1, 223895, Note_on_c, 0, 68, 52
1, 223895, Note_off_c, 0, 42, 40
1, 223959, Control_c, 0, 64, 72
1, 224098, Poly_aftertouch_c, 0, 57, 0
1, 224148, Note_on_c, 0, 35, 30
1, 224149, Note_off_c, 0, 37, 43
1, 224173, Note_off_c, 0, 66, 37
1, 224201, Note_off_c, 0, 68, 34
1, 224216, Note_on_c, 0, 71, 40
1, 224244, Note_off_c, 0, 63, 19
1, 224257, Note_off_c, 0, 71, 55
1, 224263, Note_on_c, 0, 69, 57
1, 224387, Note_off_c, 0, 69, 39
1, 224501, Control_c, 0, 64, 72
1, 224530, Control_c, 0, 64, 71
1, 224545, Control_c, 0, 64, 70
1, 224560, Control_c, 0, 64, 69
1, 224568, Note_off_c, 0, 35, 33
1, 224574, Note_on_c, 0, 69, 44
1, 224574, Control_c, 0, 64, 66
1, 224577, Note_on_c, 0, 64, 34
1, 224585, Note_on_c, 0, 28, 38
1, 224589, Control_c, 0, 64, 62
1, 224591, Note_on_c, 0, 61, 33
1, 224604, Control_c, 0, 64, 54
1, 224619, Control_c, 0, 64, 30
1, 224634, Control_c, 0, 64, 0
1, 224760, Control_c, 0, 64, 31
1, 224774, Control_c, 0, 64, 54
1, 224789, Control_c, 0, 64, 62
1, 224804, Control_c, 0, 64, 64
1, 224819, Control_c, 0, 64, 66
1, 224834, Control_c, 0, 64, 68
1, 224848, Control_c, 0, 64, 71
1, 224854, Note_off_c, 0, 61, 55
1, 224863, Control_c, 0, 64, 73
1, 224878, Control_c, 0, 64, 75
1, 224893, Control_c, 0, 64, 76
1, 224899, Note_off_c, 0, 28, 38
1, 224908, Control_c, 0, 64, 77
1, 224923, Control_c, 0, 64, 78
1, 225132, Control_c, 0, 64, 77
1, 225147, Note_on_c, 0, 68, 44
1, 225150, Note_on_c, 0, 59, 29
1, 225161, Control_c, 0, 64, 77
1, 225190, Control_c, 0, 64, 76
1, 225237, Note_off_c, 0, 69, 26
1, 225250, Control_c, 0, 64, 76
1, 225324, Control_c, 0, 64, 75
1, 225383, Control_c, 0, 64, 75
1, 225412, Control_c, 0, 64, 74
1, 225414, Note_on_c, 0, 47, 34
1, 225427, Control_c, 0, 64, 74
1, 225442, Control_c, 0, 64, 73
1, 225457, Control_c, 0, 64, 72
1, 225479, Control_c, 0, 64, 69
1, 225494, Control_c, 0, 64, 66
1, 225509, Control_c, 0, 64, 63
1, 225523, Control_c, 0, 64, 54
1, 225538, Control_c, 0, 64, 26
1, 225553, Control_c, 0, 64, 0
1, 225623, Note_on_c, 0, 51, 37
1, 225627, Control_c, 0, 64, 31
1, 225642, Control_c, 0, 64, 54
1, 225657, Control_c, 0, 64, 60
1, 225671, Control_c, 0, 64, 62
1, 225686, Control_c, 0, 64, 64
1, 225701, Control_c, 0, 64, 65
1, 225716, Control_c, 0, 64, 67
1, 225731, Control_c, 0, 64, 69
1, 225746, Control_c, 0, 64, 71
1, 225761, Control_c, 0, 64, 72
1, 225776, Control_c, 0, 64, 73
1, 225790, Control_c, 0, 64, 74
1, 225797, Note_on_c, 0, 49, 41
1, 225806, Control_c, 0, 64, 75
1, 225820, Control_c, 0, 64, 76
1, 225823, Note_off_c, 0, 51, 35
1, 225835, Control_c, 0, 64, 77
1, 225850, Control_c, 0, 64, 78
1, 225880, Control_c, 0, 64, 78
1, 225898, Note_off_c, 0, 49, 55
1, 225907, Note_off_c, 0, 47, 43
1, 225933, Note_on_c, 0, 52, 49
1, 226014, Note_off_c, 0, 59, 44
1, 226050, Note_off_c, 0, 52, 56
1, 226058, Control_c, 0, 64, 79
1, 226068, Note_on_c, 0, 51, 53
1, 226073, Control_c, 0, 64, 79
1, 226087, Control_c, 0, 64, 80
1, 226102, Control_c, 0, 64, 81
1, 226117, Control_c, 0, 64, 81
1, 226132, Control_c, 0, 64, 82
1, 226146, Control_c, 0, 64, 82
1, 226176, Control_c, 0, 64, 83
1, 226187, Note_off_c, 0, 51, 49
1, 226191, Control_c, 0, 64, 83
1, 226199, Note_on_c, 0, 54, 50
1, 226206, Control_c, 0, 64, 84
1, 226243, Control_c, 0, 64, 84
1, 226273, Control_c, 0, 64, 85
1, 226288, Control_c, 0, 64, 85
1, 226317, Control_c, 0, 64, 86
1, 226332, Control_c, 0, 64, 86
1, 226339, Note_off_c, 0, 54, 53
1, 226342, Note_on_c, 0, 61, 57
1, 226346, Control_c, 0, 64, 87
1, 226350, Note_on_c, 0, 52, 50
1, 226354, Note_off_c, 0, 64, 42
1, 226361, Control_c, 0, 64, 87
1, 226376, Control_c, 0, 64, 88
1, 226391, Control_c, 0, 64, 88
1, 226406, Control_c, 0, 64, 89
1, 226420, Control_c, 0, 64, 90
1, 226435, Control_c, 0, 64, 91
1, 226450, Control_c, 0, 64, 91
1, 226465, Control_c, 0, 64, 92
1, 226474, Note_off_c, 0, 61, 55
1, 226480, Note_on_c, 0, 64, 69
1, 226480, Control_c, 0, 64, 93
1, 226494, Control_c, 0, 64, 94
1, 226503, Note_on_c, 0, 56, 41
1, 226509, Control_c, 0, 64, 95
1, 226524, Control_c, 0, 64, 95
1, 226539, Control_c, 0, 64, 96
1, 226554, Control_c, 0, 64, 96
1, 226568, Control_c, 0, 64, 97
1, 226599, Control_c, 0, 64, 97
1, 226607, Note_off_c, 0, 64, 56
1, 226613, Note_on_c, 0, 54, 48
1, 226613, Note_on_c, 0, 63, 75
1, 226628, Note_off_c, 0, 56, 35
1, 226750, Note_on_c, 0, 66, 76
1, 226759, Note_off_c, 0, 52, 43
1, 226761, Note_off_c, 0, 54, 48
1, 226768, Note_on_c, 0, 57, 43
1, 226802, Note_off_c, 0, 63, 34
1, 226819, Note_off_c, 0, 68, 62
1, 226847, Note_off_c, 0, 66, 63
1, 226871, Note_on_c, 0, 64, 77
1, 226891, Note_off_c, 0, 57, 45
1, 226905, Note_on_c, 0, 56, 48
1, 226910, Control_c, 0, 67, 122
1, 226925, Control_c, 0, 67, 118
1, 226940, Control_c, 0, 67, 114
1, 226955, Control_c, 0, 67, 111
1, 226977, Control_c, 0, 67, 108
1, 226992, Control_c, 0, 67, 105
1, 227007, Control_c, 0, 67, 102
1, 227022, Control_c, 0, 67, 100
1, 227036, Control_c, 0, 67, 98
1, 227051, Control_c, 0, 67, 97
1, 227066, Control_c, 0, 64, 97
1, 227066, Control_c, 0, 67, 96
1, 227079, Note_off_c, 0, 56, 53
1, 227081, Control_c, 0, 64, 95
1, 227090, Note_on_c, 0, 76, 77
1, 227091, Note_on_c, 0, 54, 45
1, 227096, Control_c, 0, 64, 93
1, 227096, Control_c, 0, 67, 95
1, 227111, Control_c, 0, 64, 89
1, 227111, Control_c, 0, 67, 94
1, 227125, Control_c, 0, 64, 84
1, 227125, Control_c, 0, 67, 92
1, 227140, Control_c, 0, 64, 76
1, 227140, Control_c, 0, 67, 90
1, 227146, Note_on_c, 0, 68, 50
1, 227155, Control_c, 0, 64, 68
1, 227155, Control_c, 0, 67, 88
1, 227169, Control_c, 0, 64, 59
1, 227169, Control_c, 0, 67, 87
1, 227184, Control_c, 0, 64, 23
1, 227184, Control_c, 0, 67, 85
1, 227199, Control_c, 0, 64, 0
1, 227199, Control_c, 0, 67, 84
1, 227214, Control_c, 0, 67, 83
1, 227229, Control_c, 0, 67, 82
1, 227243, Control_c, 0, 67, 81
1, 227258, Control_c, 0, 67, 81
1, 227273, Control_c, 0, 64, 42
1, 227273, Control_c, 0, 67, 80
1, 227287, Control_c, 0, 64, 54
1, 227287, Control_c, 0, 67, 79
1, 227302, Control_c, 0, 64, 60
1, 227302, Control_c, 0, 67, 78
1, 227317, Control_c, 0, 64, 63
1, 227317, Control_c, 0, 67, 76
1, 227332, Control_c, 0, 64, 65
1, 227332, Control_c, 0, 67, 74
1, 227347, Control_c, 0, 64, 68
1, 227347, Control_c, 0, 67, 72
1, 227361, Control_c, 0, 64, 72
1, 227361, Control_c, 0, 67, 69
1, 227376, Control_c, 0, 64, 76
1, 227376, Control_c, 0, 67, 66
1, 227392, Control_c, 0, 64, 79
1, 227392, Control_c, 0, 67, 63
1, 227407, Control_c, 0, 64, 82
1, 227407, Control_c, 0, 67, 61
1, 227412, Note_on_c, 0, 52, 46
1, 227421, Note_off_c, 0, 54, 37
1, 227422, Control_c, 0, 64, 86
1, 227422, Control_c, 0, 67, 60
1, 227437, Control_c, 0, 64, 90
1, 227437, Control_c, 0, 67, 59
1, 227452, Control_c, 0, 64, 94
1, 227460, Note_off_c, 0, 76, 59
1, 227466, Control_c, 0, 64, 96
1, 227466, Control_c, 0, 67, 58
1, 227481, Control_c, 0, 64, 98
1, 227491, Note_off_c, 0, 52, 60
1, 227496, Control_c, 0, 64, 100
1, 227496, Control_c, 0, 67, 58
1, 227511, Control_c, 0, 64, 101
1, 227526, Control_c, 0, 64, 102
1, 227555, Control_c, 0, 64, 102
1, 227573, Note_on_c, 0, 76, 76
1, 227615, Control_c, 0, 67, 57
1, 227720, Note_off_c, 0, 64, 53
1, 227790, Note_on_c, 0, 51, 36
1, 227859, Note_off_c, 0, 68, 55
1, 227859, Control_c, 0, 64, 102
1, 227892, Note_off_c, 0, 76, 54
1, 227919, Note_on_c, 0, 64, 48
1, 227948, Control_c, 0, 64, 101
1, 227963, Control_c, 0, 64, 101
1, 227982, Note_on_c, 0, 68, 56
1, 227992, Control_c, 0, 64, 100
1, 228007, Control_c, 0, 64, 99
1, 228022, Control_c, 0, 64, 98
1, 228037, Control_c, 0, 64, 95
1, 228052, Control_c, 0, 64, 93
1, 228066, Control_c, 0, 64, 89
1, 228081, Control_c, 0, 64, 85
1, 228096, Control_c, 0, 64, 80
1, 228105, Note_on_c, 0, 76, 72
1, 228110, Control_c, 0, 64, 74
1, 228125, Control_c, 0, 64, 68
1, 228140, Control_c, 0, 64, 62
1, 228140, Control_c, 0, 67, 57
1, 228155, Control_c, 0, 64, 47
1, 228170, Control_c, 0, 64, 0
1, 228186, Control_c, 0, 67, 56
1, 228201, Control_c, 0, 67, 56
1, 228245, Control_c, 0, 67, 55
1, 228260, Control_c, 0, 67, 52
1, 228275, Control_c, 0, 67, 50
1, 228289, Control_c, 0, 67, 50
1, 228304, Control_c, 0, 67, 49
1, 228378, Control_c, 0, 64, 14
1, 228393, Control_c, 0, 64, 46
1, 228408, Control_c, 0, 64, 58
1, 228423, Control_c, 0, 64, 62
1, 228437, Control_c, 0, 64, 64
1, 228437, Control_c, 0, 67, 50
1, 228452, Control_c, 0, 64, 66
1, 228475, Control_c, 0, 64, 68
1, 228489, Control_c, 0, 64, 70
1, 228489, Control_c, 0, 67, 51
1, 228504, Control_c, 0, 64, 72
1, 228504, Control_c, 0, 67, 51
1, 228518, Note_on_c, 0, 37, 37
1, 228519, Control_c, 0, 64, 76
1, 228519, Control_c, 0, 67, 52
1, 228534, Control_c, 0, 64, 79
1, 228534, Control_c, 0, 67, 52
1, 228548, Control_c, 0, 64, 82
1, 228548, Control_c, 0, 67, 53
1, 228555, Note_off_c, 0, 51, 0
1, 228563, Control_c, 0, 64, 87
1, 228578, Control_c, 0, 64, 92
1, 228587, Note_off_c, 0, 64, 49
1, 228592, Poly_aftertouch_c, 0, 51, 127
1, 228593, Control_c, 0, 64, 99
1, 228593, Control_c, 0, 67, 54
1, 228608, Control_c, 0, 64, 112
1, 228608, Control_c, 0, 67, 54
1, 228622, Control_c, 0, 64, 127
1, 228637, Control_c, 0, 67, 55
1, 228649, Note_off_c, 0, 76, 55
1, 228667, Control_c, 0, 67, 55
1, 228682, Control_c, 0, 67, 56
1, 228683, Note_off_c, 0, 68, 36
1, 228697, Control_c, 0, 67, 56
1, 228703, Note_on_c, 0, 44, 43
1, 228706, Poly_aftertouch_c, 0, 51, 0
1, 228712, Control_c, 0, 67, 57
1, 228756, Control_c, 0, 67, 57
1, 228771, Control_c, 0, 67, 58
1, 228832, Note_off_c, 0, 37, 38
1, 228845, Control_c, 0, 67, 58
1, 228877, Note_off_c, 0, 44, 45
1, 228941, Note_on_c, 0, 51, 23
1, 229059, Note_on_c, 0, 78, 64
1, 229098, Control_c, 0, 67, 59
1, 229224, Control_c, 0, 67, 59
1, 229230, Note_on_c, 0, 49, 35
1, 229253, Control_c, 0, 67, 60
1, 229256, Note_on_c, 0, 76, 67
1, 229260, Note_off_c, 0, 51, 38
1, 229366, Note_off_c, 0, 78, 37
1, 229384, Note_off_c, 0, 49, 35
1, 229390, Note_on_c, 0, 52, 43
1, 229395, Note_on_c, 0, 73, 65
1, 229416, Control_c, 0, 67, 60
1, 229460, Control_c, 0, 67, 61
1, 229475, Control_c, 0, 67, 61
1, 229490, Control_c, 0, 67, 62
1, 229511, Note_off_c, 0, 73, 55
1, 229512, Note_off_c, 0, 76, 31
1, 229520, Control_c, 0, 67, 62
1, 229527, Note_on_c, 0, 68, 67
1, 229548, Note_on_c, 0, 51, 38
1, 229548, Note_off_c, 0, 52, 38
1, 229554, Note_off_c, 0, 68, 67
1, 229564, Control_c, 0, 67, 63
1, 229712, Control_c, 0, 67, 64
1, 229725, Note_on_c, 0, 54, 38
1, 229729, Note_off_c, 0, 51, 37
1, 229824, Note_on_c, 0, 60, 63
1, 229847, Control_c, 0, 64, 105
1, 229847, Control_c, 0, 67, 63
1, 229861, Control_c, 0, 64, 91
1, 229876, Control_c, 0, 64, 80
1, 229891, Control_c, 0, 64, 70
1, 229906, Control_c, 0, 64, 63
1, 229919, Note_on_c, 0, 68, 18
1, 229921, Control_c, 0, 64, 42
1, 229935, Control_c, 0, 64, 0
1, 229973, Control_c, 0, 67, 63
1, 229987, Control_c, 0, 67, 62
1, 230030, Note_on_c, 0, 52, 37
1, 230032, Control_c, 0, 64, 42
1, 230033, Note_off_c, 0, 54, 42
1, 230041, Note_on_c, 0, 61, 67
1, 230047, Control_c, 0, 64, 60
1, 230061, Control_c, 0, 64, 64
1, 230076, Control_c, 0, 64, 66
1, 230076, Control_c, 0, 67, 62
1, 230091, Control_c, 0, 64, 68
1, 230091, Control_c, 0, 67, 61
1, 230106, Control_c, 0, 64, 70
1, 230120, Control_c, 0, 64, 73
1, 230135, Control_c, 0, 64, 75
1, 230150, Control_c, 0, 64, 77
1, 230165, Control_c, 0, 64, 78
1, 230180, Control_c, 0, 64, 79
1, 230188, Note_on_c, 0, 64, 69
1, 230189, Note_off_c, 0, 61, 61
1, 230194, Control_c, 0, 64, 79
1, 230209, Control_c, 0, 64, 80
1, 230214, Note_on_c, 0, 56, 34
1, 230224, Control_c, 0, 67, 62
1, 230283, Control_c, 0, 67, 62
1, 230299, Note_off_c, 0, 60, 50
1, 230321, Note_off_c, 0, 64, 63
1, 230324, Note_on_c, 0, 63, 68
1, 230336, Note_on_c, 0, 54, 38
1, 230342, Note_off_c, 0, 56, 32
1, 230447, Control_c, 0, 67, 63
1, 230476, Control_c, 0, 67, 63
1, 230505, Control_c, 0, 64, 79
1, 230520, Note_off_c, 0, 52, 41
1, 230520, Control_c, 0, 64, 78
1, 230535, Note_on_c, 0, 61, 68
1, 230535, Control_c, 0, 64, 77
1, 230539, Note_on_c, 0, 57, 41
1, 230544, Note_off_c, 0, 54, 39
1, 230548, Note_off_c, 0, 63, 52
1, 230550, Control_c, 0, 64, 75
1, 230565, Control_c, 0, 64, 72
1, 230581, Control_c, 0, 64, 68
1, 230581, Control_c, 0, 67, 64
1, 230596, Control_c, 0, 64, 63
1, 230597, Note_off_c, 0, 68, 43
1, 230610, Control_c, 0, 64, 44
1, 230625, Control_c, 0, 64, 0
1, 230636, Note_on_c, 0, 66, 6
1, 230640, Control_c, 0, 67, 64
1, 230699, Control_c, 0, 67, 65
1, 230721, Control_c, 0, 67, 65
1, 230736, Control_c, 0, 67, 66
1, 230751, Control_c, 0, 67, 68
1, 230766, Control_c, 0, 67, 76
1, 230780, Control_c, 0, 67, 83
1, 230789, Note_off_c, 0, 57, 51
1, 230791, Note_on_c, 0, 64, 45
1, 230795, Control_c, 0, 67, 90
1, 230798, Note_off_c, 0, 66, 47
1, 230810, Control_c, 0, 67, 97
1, 230813, Note_on_c, 0, 56, 35
1, 230825, Control_c, 0, 67, 104
1, 230840, Control_c, 0, 67, 110
1, 230855, Control_c, 0, 67, 115
1, 230870, Control_c, 0, 67, 119
1, 230884, Control_c, 0, 67, 120
1, 230899, Control_c, 0, 67, 121
1, 230914, Control_c, 0, 67, 121
1, 230929, Control_c, 0, 64, 35
1, 230943, Control_c, 0, 64, 51
1, 230958, Control_c, 0, 64, 58
1, 230973, Control_c, 0, 64, 62
1, 230988, Control_c, 0, 64, 63
1, 231003, Control_c, 0, 64, 64
1, 231004, Note_on_c, 0, 54, 40
1, 231007, Note_off_c, 0, 56, 42
1, 231017, Control_c, 0, 64, 66
1, 231032, Control_c, 0, 64, 68
1, 231047, Control_c, 0, 64, 69
1, 231049, Note_on_c, 0, 66, 43
1, 231062, Control_c, 0, 64, 71
1, 231077, Control_c, 0, 64, 72
1, 231091, Control_c, 0, 64, 74
1, 231106, Control_c, 0, 64, 75
1, 231120, Note_off_c, 0, 64, 26
1, 231121, Control_c, 0, 64, 75
1, 231135, Control_c, 0, 64, 76
1, 231135, Control_c, 0, 67, 121
1, 231150, Control_c, 0, 64, 76
1, 231184, Note_off_c, 0, 54, 46
1, 231218, Note_on_c, 0, 52, 43
1, 231299, Control_c, 0, 67, 120
1, 231342, Note_on_c, 0, 68, 46
1, 231359, Note_off_c, 0, 61, 50
1, 231433, Control_c, 0, 67, 120
1, 231433, Note_off_c, 0, 66, 37
1, 231448, Control_c, 0, 67, 119
1, 231469, Note_on_c, 0, 59, 61
1, 231470, Control_c, 0, 67, 118
1, 231500, Control_c, 0, 67, 118
1, 231514, Control_c, 0, 67, 117
1, 231529, Control_c, 0, 67, 116
1, 231544, Control_c, 0, 67, 116
1, 231558, Control_c, 0, 67, 115
1, 231573, Control_c, 0, 67, 115
1, 231588, Note_off_c, 0, 59, 56
1, 231588, Control_c, 0, 67, 114
1, 231618, Note_off_c, 0, 68, 27
1, 231618, Control_c, 0, 67, 113
1, 231643, Note_off_c, 0, 52, 42
1, 231648, Control_c, 0, 67, 112
1, 231660, Note_on_c, 0, 42, 34
1, 231663, Control_c, 0, 67, 112
1, 231678, Control_c, 0, 67, 111
1, 231722, Control_c, 0, 67, 111
1, 231728, Note_on_c, 0, 59, 53
1, 231766, Control_c, 0, 67, 111
1, 231781, Control_c, 0, 64, 75
1, 231796, Control_c, 0, 64, 74
1, 231811, Control_c, 0, 64, 71
1, 231826, Control_c, 0, 64, 67
1, 231840, Control_c, 0, 64, 63
1, 231855, Control_c, 0, 64, 48
1, 231867, Note_on_c, 0, 64, 43
1, 231870, Control_c, 0, 64, 0
1, 231870, Control_c, 0, 67, 112
1, 231880, Note_on_c, 0, 68, 39
1, 231899, Control_c, 0, 67, 112
1, 231914, Control_c, 0, 67, 113
1, 231929, Control_c, 0, 67, 113
1, 231944, Control_c, 0, 67, 114
1, 231973, Note_off_c, 0, 68, 0
1, 231973, Note_on_c, 0, 68, 3
1, 231988, Control_c, 0, 67, 114
1, 232003, Control_c, 0, 67, 115
1, 232018, Control_c, 0, 67, 115
1, 232032, Control_c, 0, 67, 116
1, 232092, Control_c, 0, 67, 116
1, 232107, Control_c, 0, 67, 117
1, 232137, Control_c, 0, 67, 117
1, 232166, Control_c, 0, 67, 118
1, 232181, Control_c, 0, 67, 118
1, 232196, Control_c, 0, 67, 119
1, 232219, Control_c, 0, 67, 119
1, 232256, Note_on_c, 0, 58, 47
1, 232263, Control_c, 0, 67, 120
1, 232291, Note_off_c, 0, 59, 39
1, 232307, Control_c, 0, 67, 121
1, 232352, Control_c, 0, 67, 121
1, 232367, Control_c, 0, 67, 122
1, 232411, Control_c, 0, 67, 122
1, 232426, Control_c, 0, 67, 123
1, 232441, Control_c, 0, 67, 125
1, 232456, Control_c, 0, 67, 127
1, 232589, Control_c, 0, 64, 37
1, 232604, Control_c, 0, 64, 49
1, 232619, Control_c, 0, 64, 56
1, 232628, Note_on_c, 0, 48, 42
1, 232634, Control_c, 0, 64, 59
1, 232649, Control_c, 0, 64, 62
1, 232663, Control_c, 0, 64, 63
1, 232678, Control_c, 0, 64, 64
1, 232693, Control_c, 0, 64, 66
1, 232707, Control_c, 0, 64, 67
1, 232722, Control_c, 0, 64, 69
1, 232737, Control_c, 0, 64, 71
1, 232752, Control_c, 0, 64, 73
1, 232767, Control_c, 0, 64, 74
1, 232781, Control_c, 0, 64, 75
1, 232796, Control_c, 0, 64, 75
1, 232799, Note_on_c, 0, 49, 40
1, 232811, Control_c, 0, 64, 76
1, 232818, Note_off_c, 0, 48, 36
1, 232841, Control_c, 0, 64, 76
1, 232900, Note_off_c, 0, 64, 40
1, 232917, Note_off_c, 0, 42, 41
1, 232927, Note_off_c, 0, 68, 51
1, 232949, Note_off_c, 0, 49, 35
1, 232965, Note_on_c, 0, 52, 46
1, 233126, Note_on_c, 0, 51, 40
1, 233142, Note_off_c, 0, 52, 36
1, 233249, Control_c, 0, 64, 76
1, 233275, Note_off_c, 0, 51, 35
1, 233284, Note_on_c, 0, 70, 57
1, 233317, Note_on_c, 0, 54, 31
1, 233427, Control_c, 0, 64, 75
1, 233454, Note_on_c, 0, 68, 55
1, 233467, Note_off_c, 0, 54, 39
1, 233469, Note_off_c, 0, 70, 53
1, 233475, Note_on_c, 0, 52, 37
1, 233517, Control_c, 0, 64, 75
1, 233576, Control_c, 0, 64, 74
1, 233605, Control_c, 0, 64, 74
1, 233635, Control_c, 0, 64, 73
1, 233649, Control_c, 0, 64, 73
1, 233664, Control_c, 0, 64, 71
1, 233679, Control_c, 0, 64, 69
1, 233690, Note_on_c, 0, 66, 52
1, 233694, Control_c, 0, 64, 65
1, 233717, Control_c, 0, 64, 61
1, 233722, Note_off_c, 0, 68, 37
1, 233731, Control_c, 0, 64, 51
1, 233742, Note_on_c, 0, 56, 35
1, 233744, Note_off_c, 0, 52, 42
1, 233746, Note_on_c, 0, 63, 27
1, 233746, Control_c, 0, 64, 12
1, 233761, Control_c, 0, 64, 0
1, 234014, Control_c, 0, 64, 42
1, 234028, Control_c, 0, 64, 52
1, 234043, Control_c, 0, 64, 55
1, 234058, Control_c, 0, 64, 58
1, 234073, Control_c, 0, 64, 60
1, 234087, Control_c, 0, 64, 63
1, 234102, Control_c, 0, 64, 64
1, 234117, Control_c, 0, 64, 66
1, 234127, Note_on_c, 0, 49, 28
1, 234132, Control_c, 0, 64, 67
1, 234147, Control_c, 0, 64, 68
1, 234161, Control_c, 0, 64, 69
1, 234176, Control_c, 0, 64, 70
1, 234191, Control_c, 0, 64, 71
1, 234206, Control_c, 0, 64, 72
1, 234221, Control_c, 0, 64, 73
1, 234235, Control_c, 0, 64, 73
1, 234250, Control_c, 0, 64, 74
1, 234295, Control_c, 0, 64, 74
1, 234311, Note_off_c, 0, 49, 38
1, 234313, Note_on_c, 0, 51, 36
1, 234405, Note_off_c, 0, 63, 44
1, 234510, Note_off_c, 0, 51, 40
1, 234528, Note_on_c, 0, 54, 37
1, 234568, Note_off_c, 0, 56, 30
1, 234674, Control_c, 0, 64, 74
1, 234748, Note_on_c, 0, 52, 42
1, 234748, Note_off_c, 0, 54, 40
1, 234748, Control_c, 0, 64, 73
1, 234807, Control_c, 0, 64, 73
1, 234837, Control_c, 0, 64, 72
1, 234881, Control_c, 0, 64, 72
1, 234910, Control_c, 0, 64, 71
1, 234925, Control_c, 0, 64, 70
1, 234940, Control_c, 0, 64, 69
1, 234954, Control_c, 0, 64, 68
1, 234969, Control_c, 0, 64, 66
1, 234977, Note_on_c, 0, 64, 44
1, 234984, Control_c, 0, 64, 63
1, 234998, Control_c, 0, 64, 57
1, 234999, Note_off_c, 0, 52, 43
1, 235010, Note_on_c, 0, 56, 28
1, 235011, Note_on_c, 0, 61, 35
1, 235013, Control_c, 0, 64, 39
1, 235014, Note_off_c, 0, 66, 36
1, 235028, Control_c, 0, 64, 0
1, 235176, Control_c, 0, 64, 43
1, 235191, Control_c, 0, 64, 57
1, 235213, Control_c, 0, 64, 63
1, 235228, Control_c, 0, 64, 64
1, 235243, Control_c, 0, 64, 65
1, 235258, Control_c, 0, 64, 67
1, 235273, Control_c, 0, 64, 69
1, 235288, Control_c, 0, 64, 72
1, 235302, Note_off_c, 0, 61, 37
1, 235302, Control_c, 0, 64, 74
1, 235310, Note_on_c, 0, 54, 35
1, 235316, Note_off_c, 0, 56, 40
1, 235317, Control_c, 0, 64, 76
1, 235332, Control_c, 0, 64, 77
1, 235347, Control_c, 0, 64, 79
1, 235362, Control_c, 0, 64, 81
1, 235377, Control_c, 0, 64, 82
1, 235392, Control_c, 0, 64, 83
1, 235447, Note_off_c, 0, 58, 32
1, 235644, Control_c, 0, 64, 83
1, 235659, Control_c, 0, 64, 82
1, 235673, Control_c, 0, 64, 82
1, 235688, Control_c, 0, 64, 81
1, 235702, Control_c, 0, 64, 81
1, 235717, Control_c, 0, 64, 79
1, 235732, Control_c, 0, 64, 78
1, 235747, Control_c, 0, 64, 75
1, 235761, Note_on_c, 0, 66, 52
1, 235762, Control_c, 0, 64, 72
1, 235776, Control_c, 0, 64, 67
1, 235785, Note_on_c, 0, 57, 24
1, 235787, Note_on_c, 0, 60, 35
1, 235791, Control_c, 0, 64, 63
1, 235793, Note_on_c, 0, 52, 28
1, 235800, Note_off_c, 0, 54, 38
1, 235806, Control_c, 0, 64, 56
1, 235807, Note_off_c, 0, 64, 31
1, 235821, Control_c, 0, 64, 37
1, 235836, Control_c, 0, 64, 0
1, 236021, Control_c, 0, 64, 41
1, 236036, Control_c, 0, 64, 55
1, 236050, Control_c, 0, 64, 60
1, 236065, Control_c, 0, 64, 63
1, 236080, Control_c, 0, 64, 64
1, 236095, Control_c, 0, 64, 65
1, 236110, Control_c, 0, 64, 67
1, 236114, Note_on_c, 0, 51, 31
1, 236124, Control_c, 0, 64, 69
1, 236139, Control_c, 0, 64, 70
1, 236154, Control_c, 0, 64, 72
1, 236163, Note_off_c, 0, 52, 40
1, 236169, Control_c, 0, 64, 73
1, 236185, Control_c, 0, 64, 75
1, 236200, Control_c, 0, 64, 77
1, 236215, Control_c, 0, 64, 79
1, 236229, Control_c, 0, 64, 82
1, 236244, Control_c, 0, 64, 85
1, 236259, Control_c, 0, 64, 88
1, 236274, Control_c, 0, 64, 92
1, 236289, Control_c, 0, 64, 96
1, 236303, Control_c, 0, 64, 100
1, 236318, Control_c, 0, 64, 106
1, 236333, Control_c, 0, 64, 116
1, 236347, Control_c, 0, 64, 127
1, 236385, Note_off_c, 0, 51, 41
1, 236389, Note_on_c, 0, 50, 43
1, 236435, Note_off_c, 0, 60, 40
1, 236577, Note_off_c, 0, 66, 33
1, 236602, Note_off_c, 0, 50, 51
1, 236617, Note_on_c, 0, 51, 49
1, 236635, Note_off_c, 0, 57, 40
1, 236872, Note_on_c, 0, 68, 69
1, 236909, Note_off_c, 0, 51, 56
1, 236917, Note_on_c, 0, 50, 46
1, 236919, Note_on_c, 0, 59, 37
1, 236923, Note_on_c, 0, 65, 36
1, 236947, Control_c, 0, 64, 100
1, 236962, Control_c, 0, 64, 84
1, 236978, Control_c, 0, 64, 73
1, 236991, Note_off_c, 0, 59, 0
1, 236991, Note_on_c, 0, 59, 3
1, 236993, Control_c, 0, 64, 64
1, 237008, Control_c, 0, 64, 44
1, 237022, Control_c, 0, 64, 0
1, 237097, Control_c, 0, 64, 45
1, 237111, Control_c, 0, 64, 59
1, 237126, Control_c, 0, 64, 63
1, 237141, Control_c, 0, 64, 65
1, 237155, Note_on_c, 0, 49, 46
1, 237156, Control_c, 0, 64, 68
1, 237163, Note_off_c, 0, 50, 51
1, 237170, Control_c, 0, 64, 70
1, 237185, Control_c, 0, 64, 74
1, 237200, Control_c, 0, 64, 78
1, 237215, Control_c, 0, 64, 84
1, 237230, Control_c, 0, 64, 89
1, 237244, Control_c, 0, 64, 96
1, 237259, Control_c, 0, 64, 109
1, 237274, Control_c, 0, 64, 127
1, 237372, Note_off_c, 0, 49, 59
1, 237381, Note_on_c, 0, 48, 52
1, 237416, Note_off_c, 0, 65, 37
1, 237422, Control_c, 0, 67, 123
1, 237437, Control_c, 0, 67, 119
1, 237459, Control_c, 0, 67, 113
1, 237474, Control_c, 0, 67, 105
1, 237489, Control_c, 0, 67, 98
1, 237504, Control_c, 0, 67, 90
1, 237518, Control_c, 0, 67, 84
1, 237533, Control_c, 0, 67, 77
1, 237548, Control_c, 0, 67, 70
1, 237553, Note_off_c, 0, 68, 54
1, 237563, Control_c, 0, 67, 62
1, 237577, Control_c, 0, 67, 53
1, 237588, Note_off_c, 0, 48, 57
1, 237592, Control_c, 0, 67, 44
1, 237595, Note_on_c, 0, 49, 54
1, 237598, Note_off_c, 0, 59, 42
1, 237607, Control_c, 0, 67, 36
1, 237622, Control_c, 0, 67, 28
1, 237637, Control_c, 0, 67, 19
1, 237651, Control_c, 0, 67, 12
1, 237666, Control_c, 0, 67, 0
1, 237871, Note_on_c, 0, 69, 68
1, 237881, Note_off_c, 0, 49, 58
1, 237889, Note_on_c, 0, 48, 48
1, 237900, Note_on_c, 0, 57, 43
1, 237904, Note_on_c, 0, 64, 43
1, 237905, Control_c, 0, 64, 119
1, 237919, Control_c, 0, 64, 87
1, 237934, Control_c, 0, 64, 73
1, 237949, Control_c, 0, 64, 63
1, 237964, Control_c, 0, 64, 34
1, 237979, Control_c, 0, 64, 0
1, 238052, Control_c, 0, 64, 37
1, 238067, Control_c, 0, 64, 54
1, 238082, Control_c, 0, 64, 61
1, 238097, Control_c, 0, 64, 63
1, 238112, Control_c, 0, 64, 64
1, 238126, Control_c, 0, 64, 66
1, 238141, Control_c, 0, 64, 68
1, 238156, Control_c, 0, 64, 70
1, 238171, Control_c, 0, 64, 72
1, 238186, Control_c, 0, 64, 73
1, 238208, Control_c, 0, 64, 74
1, 238223, Control_c, 0, 64, 76
1, 238238, Control_c, 0, 64, 78
1, 238253, Control_c, 0, 64, 80
1, 238258, Note_on_c, 0, 41, 41
1, 238258, Note_on_c, 0, 65, 67
1, 238267, Control_c, 0, 64, 81
1, 238277, Note_off_c, 0, 48, 37
1, 238282, Control_c, 0, 64, 83
1, 238297, Control_c, 0, 64, 84
1, 238304, Note_off_c, 0, 64, 56
1, 238312, Control_c, 0, 64, 84
1, 238326, Control_c, 0, 64, 85
1, 238341, Control_c, 0, 64, 85
1, 238356, Control_c, 0, 64, 86
1, 238371, Control_c, 0, 64, 86
1, 238386, Control_c, 0, 64, 87
1, 238400, Control_c, 0, 64, 87
1, 238415, Control_c, 0, 64, 88
1, 238444, Control_c, 0, 64, 88
1, 238459, Control_c, 0, 64, 89
1, 238474, Control_c, 0, 64, 89
1, 238504, Control_c, 0, 64, 90
1, 238543, Note_off_c, 0, 41, 54
1, 238566, Note_on_c, 0, 60, 76
1, 238571, Note_on_c, 0, 45, 44
1, 238631, Note_off_c, 0, 65, 50
1, 238894, Note_on_c, 0, 64, 66
1, 238927, Note_on_c, 0, 36, 41
1, 238933, Note_off_c, 0, 60, 59
1, 238978, Note_off_c, 0, 57, 62
1, 238986, Note_off_c, 0, 45, 37
1, 239334, Note_off_c, 0, 36, 40
1, 239339, Note_on_c, 0, 35, 39
1, 239357, Control_c, 0, 64, 89
1, 239387, Control_c, 0, 64, 89
1, 239402, Control_c, 0, 64, 88
1, 239417, Control_c, 0, 64, 87
1, 239432, Control_c, 0, 64, 84
1, 239446, Control_c, 0, 64, 80
1, 239456, Note_on_c, 0, 63, 65
1, 239456, Note_off_c, 0, 64, 61
1, 239461, Control_c, 0, 64, 74
1, 239476, Control_c, 0, 64, 67
1, 239481, Note_on_c, 0, 57, 42
1, 239491, Control_c, 0, 64, 59
1, 239506, Control_c, 0, 64, 0
1, 239684, Control_c, 0, 64, 44
1, 239705, Control_c, 0, 64, 60
1, 239720, Control_c, 0, 64, 64
1, 239735, Control_c, 0, 64, 66
1, 239750, Control_c, 0, 64, 69
1, 239765, Control_c, 0, 64, 72
1, 239780, Control_c, 0, 64, 76
1, 239793, Note_off_c, 0, 69, 61
1, 239795, Control_c, 0, 64, 82
1, 239810, Control_c, 0, 64, 89
1, 239824, Control_c, 0, 64, 101
1, 239839, Control_c, 0, 64, 127
1, 239903, Note_off_c, 0, 57, 34
1, 239987, Note_on_c, 0, 47, 43
1, 240105, Note_off_c, 0, 35, 42
1, 240125, Note_on_c, 0, 73, 68
1, 240138, Note_off_c, 0, 63, 56
1, 240206, Note_off_c, 0, 47, 41
1, 240223, Note_off_c, 0, 73, 60
1, 240584, Note_on_c, 0, 54, 43
1, 240668, Note_off_c, 0, 54, 60
1, 241076, Note_on_c, 0, 63, 65
1, 241122, Note_on_c, 0, 57, 43
1, 241634, Note_off_c, 0, 57, 55
1, 241701, Note_off_c, 0, 63, 37
1, 241995, Note_on_c, 0, 28, 61
1, 242145, Control_c, 0, 64, 82
1, 242160, Control_c, 0, 64, 65
1, 242165, Note_on_c, 0, 56, 55
1, 242174, Control_c, 0, 64, 0
1, 242568, Note_on_c, 0, 63, 76
1, 242938, Control_c, 0, 64, 12
1, 242953, Control_c, 0, 64, 47
1, 242968, Control_c, 0, 64, 57
1, 242983, Control_c, 0, 64, 60
1, 242997, Control_c, 0, 64, 60
1, 243012, Control_c, 0, 64, 62
1, 243027, Control_c, 0, 64, 64
1, 243041, Control_c, 0, 64, 66
1, 243056, Control_c, 0, 64, 70
1, 243071, Control_c, 0, 64, 72
1, 243086, Control_c, 0, 64, 74
1, 243086, Control_c, 0, 67, 10
1, 243101, Control_c, 0, 64, 77
1, 243101, Control_c, 0, 67, 14
1, 243115, Control_c, 0, 64, 80
1, 243115, Control_c, 0, 67, 18
1, 243130, Control_c, 0, 64, 83
1, 243130, Control_c, 0, 67, 22
1, 243145, Control_c, 0, 64, 89
1, 243145, Control_c, 0, 67, 24
1, 243160, Control_c, 0, 64, 96
1, 243160, Control_c, 0, 67, 26
1, 243175, Control_c, 0, 64, 109
1, 243175, Control_c, 0, 67, 28
1, 243190, Control_c, 0, 64, 127
1, 243190, Control_c, 0, 67, 30
1, 243205, Control_c, 0, 67, 33
1, 243220, Control_c, 0, 67, 35
1, 243234, Control_c, 0, 67, 36
1, 243249, Control_c, 0, 67, 37
1, 243251, Note_on_c, 0, 40, 42
1, 243264, Control_c, 0, 67, 39
1, 243278, Note_off_c, 0, 28, 38
1, 243279, Control_c, 0, 67, 41
1, 243294, Control_c, 0, 67, 45
1, 243308, Control_c, 0, 67, 50
1, 243323, Control_c, 0, 67, 55
1, 243338, Control_c, 0, 67, 60
1, 243353, Control_c, 0, 67, 67
1, 243369, Control_c, 0, 67, 72
1, 243384, Control_c, 0, 67, 78
1, 243390, Note_off_c, 0, 40, 31
1, 243399, Control_c, 0, 67, 85
1, 243413, Control_c, 0, 67, 90
1, 243428, Control_c, 0, 67, 96
1, 243450, Control_c, 0, 67, 101
1, 243465, Control_c, 0, 67, 106
1, 243479, Control_c, 0, 67, 109
1, 243494, Control_c, 0, 67, 111
1, 243509, Control_c, 0, 67, 114
1, 243524, Control_c, 0, 67, 115
1, 243539, Control_c, 0, 67, 116
1, 243554, Control_c, 0, 67, 118
1, 243569, Control_c, 0, 67, 119
1, 243583, Control_c, 0, 67, 119
1, 243643, Control_c, 0, 67, 120
1, 243672, Control_c, 0, 67, 120
1, 243717, Control_c, 0, 67, 121
1, 243746, Control_c, 0, 67, 121
1, 243761, Control_c, 0, 67, 122
1, 243776, Control_c, 0, 67, 125
1, 243791, Control_c, 0, 67, 127
1, 243792, Note_on_c, 0, 47, 36
1, 244063, Note_off_c, 0, 56, 37
1, 244092, Note_off_c, 0, 47, 42
1, 244111, Note_on_c, 0, 52, 40
1, 244227, Note_off_c, 0, 63, 35
1, 244392, Note_off_c, 0, 52, 43
1, 244428, Note_on_c, 0, 56, 28
1, 244715, Note_off_c, 0, 56, 33
1, 244784, Note_on_c, 0, 59, 39
1, 245384, Note_on_c, 0, 64, 33
1, 245827, Note_on_c, 0, 66, 45
1, 246069, Note_on_c, 0, 69, 48
1, 246084, Note_off_c, 0, 66, 37
1, 246159, Note_off_c, 0, 64, 26
1, 246249, Note_off_c, 0, 59, 39
1, 246279, Note_on_c, 0, 68, 43
1, 246329, Note_off_c, 0, 69, 32
1, 246349, Note_off_c, 0, 68, 61
1, 246512, Note_on_c, 0, 73, 34
1, 246735, Note_on_c, 0, 71, 30
1, 246770, Note_off_c, 0, 73, 39
1, 246935, Note_off_c, 0, 71, 41
1, 247008, Note_on_c, 0, 76, 45
1, 247326, Note_on_c, 0, 78, 46
1, 247667, Note_on_c, 0, 80, 48
1, 248102, Note_on_c, 0, 83, 43
1, 249272, Note_on_c, 0, 92, 47
1, 249454, Note_off_c, 0, 92, 33
1, 250669, Note_off_c, 0, 78, 24
1, 250789, Note_off_c, 0, 76, 27
1, 251034, Note_off_c, 0, 83, 27
1, 251111, Note_off_c, 0, 80, 24
1, 252130, Control_c, 0, 64, 113
1, 252146, Control_c, 0, 64, 105
1, 252161, Control_c, 0, 64, 100
1, 252175, Control_c, 0, 64, 95
1, 252190, Control_c, 0, 64, 91
1, 252205, Control_c, 0, 64, 86
1, 252219, Control_c, 0, 64, 82
1, 252234, Control_c, 0, 64, 77
1, 252249, Control_c, 0, 64, 72
1, 252264, Control_c, 0, 64, 67
1, 252279, Control_c, 0, 64, 62
1, 252294, Control_c, 0, 64, 52
1, 252309, Control_c, 0, 64, 19
1, 252323, Control_c, 0, 64, 0
1, 252760, Control_c, 0, 64, 43
1, 252775, Control_c, 0, 64, 54
1, 252790, Control_c, 0, 64, 59
1, 252805, Control_c, 0, 64, 61
1, 252820, Control_c, 0, 64, 62
1, 252834, Control_c, 0, 64, 64
1, 252849, Control_c, 0, 64, 65
1, 252864, Control_c, 0, 64, 67
1, 252866, Note_on_c, 0, 71, 47
1, 252879, Control_c, 0, 64, 70
1, 252894, Control_c, 0, 64, 72
1, 252908, Control_c, 0, 64, 76
1, 252916, Note_off_c, 0, 71, 55
1, 252923, Control_c, 0, 64, 80
1, 252938, Control_c, 0, 64, 85
1, 252954, Control_c, 0, 64, 92
1, 252969, Control_c, 0, 64, 103
1, 252983, Control_c, 0, 64, 127
1, 253843, Note_on_c, 0, 71, 53
1, 253931, Note_off_c, 0, 71, 57
1, 255146, Note_on_c, 0, 71, 48
1, 255964, Note_on_c, 0, 47, 32
1, 256198, Note_on_c, 0, 54, 18
1, 256550, Note_on_c, 0, 63, 35
1, 256557, Note_on_c, 0, 59, 28
1, 256970, Note_off_c, 0, 59, 37
1, 257034, Note_off_c, 0, 63, 41
1, 257162, Note_off_c, 0, 54, 36
1, 257379, Note_on_c, 0, 69, 48
1, 257725, Note_on_c, 0, 68, 57
1, 257761, Note_off_c, 0, 69, 60
1, 257863, Note_off_c, 0, 68, 62
1, 258121, Note_on_c, 0, 68, 56
1, 258143, Note_on_c, 0, 64, 32
1, 258160, Note_on_c, 0, 59, 33
1, 258170, Note_off_c, 0, 47, 42
1, 258175, Note_on_c, 0, 52, 37
1, 258187, Note_off_c, 0, 71, 52
1, 258255, Control_c, 0, 64, 100
1, 258270, Control_c, 0, 64, 79
1, 258284, Control_c, 0, 64, 68
1, 258299, Control_c, 0, 64, 56
1, 258314, Control_c, 0, 64, 0
1, 258767, Control_c, 0, 64, 12
1, 258782, Control_c, 0, 64, 36
1, 258796, Control_c, 0, 64, 44
1, 258811, Control_c, 0, 64, 49
1, 258826, Control_c, 0, 64, 53
1, 258841, Control_c, 0, 64, 57
1, 258856, Control_c, 0, 64, 59
1, 258870, Control_c, 0, 64, 61
1, 258885, Control_c, 0, 64, 62
1, 258900, Control_c, 0, 64, 63
1, 258914, Control_c, 0, 64, 64
1, 258929, Control_c, 0, 64, 65
1, 258944, Control_c, 0, 64, 67
1, 258959, Control_c, 0, 64, 68
1, 258974, Control_c, 0, 64, 69
1, 258989, Control_c, 0, 64, 71
1, 259004, Control_c, 0, 64, 72
1, 259019, Control_c, 0, 64, 74
1, 259033, Control_c, 0, 64, 76
1, 259048, Control_c, 0, 64, 78
1, 259063, Control_c, 0, 64, 80
1, 259078, Control_c, 0, 64, 83
1, 259093, Control_c, 0, 64, 86
1, 259107, Control_c, 0, 64, 89
1, 259122, Control_c, 0, 64, 93
1, 259137, Control_c, 0, 64, 98
1, 259152, Control_c, 0, 64, 103
1, 259174, Control_c, 0, 64, 111
1, 259188, Control_c, 0, 64, 127
1, 259444, Note_off_c, 0, 64, 42
1, 259694, Note_off_c, 0, 68, 44
1, 260204, Note_on_c, 0, 68, 63
1, 260279, Note_on_c, 0, 61, 34
1, 260282, Note_on_c, 0, 45, 34
1, 260323, Control_c, 0, 64, 106
1, 260338, Control_c, 0, 64, 88
1, 260353, Note_off_c, 0, 59, 43
1, 260353, Control_c, 0, 64, 76
1, 260367, Control_c, 0, 64, 66
1, 260382, Control_c, 0, 64, 55
1, 260397, Control_c, 0, 64, 0
1, 261264, Control_c, 0, 64, 15
1, 261279, Control_c, 0, 64, 22
1, 261294, Control_c, 0, 64, 27
1, 261308, Control_c, 0, 64, 32
1, 261323, Control_c, 0, 64, 38
1, 261338, Control_c, 0, 64, 42
1, 261353, Control_c, 0, 64, 45
1, 261368, Control_c, 0, 64, 47
1, 261382, Control_c, 0, 64, 49
1, 261397, Control_c, 0, 64, 51
1, 261420, Control_c, 0, 64, 54
1, 261435, Control_c, 0, 64, 56
1, 261450, Control_c, 0, 64, 57
1, 261464, Control_c, 0, 64, 58
1, 261479, Control_c, 0, 64, 59
1, 261494, Control_c, 0, 64, 60
1, 261509, Control_c, 0, 64, 61
1, 261523, Control_c, 0, 64, 61
1, 261538, Control_c, 0, 64, 62
1, 261553, Control_c, 0, 64, 63
1, 261568, Control_c, 0, 64, 64
1, 261583, Control_c, 0, 64, 64
1, 261597, Control_c, 0, 64, 65
1, 261612, Control_c, 0, 64, 66
1, 261627, Control_c, 0, 64, 67
1, 261642, Control_c, 0, 64, 68
1, 261657, Control_c, 0, 64, 69
1, 261672, Control_c, 0, 64, 70
1, 261686, Control_c, 0, 64, 71
1, 261701, Control_c, 0, 64, 72
1, 261716, Control_c, 0, 64, 73
1, 261731, Control_c, 0, 64, 74
1, 261746, Control_c, 0, 64, 76
1, 261761, Control_c, 0, 64, 78
1, 261776, Control_c, 0, 64, 80
1, 261791, Control_c, 0, 64, 82
1, 261806, Control_c, 0, 64, 85
1, 261821, Control_c, 0, 64, 88
1, 261836, Control_c, 0, 64, 91
1, 261850, Control_c, 0, 64, 93
1, 261865, Control_c, 0, 64, 96
1, 261880, Control_c, 0, 64, 100
1, 261895, Control_c, 0, 64, 103
1, 261909, Control_c, 0, 64, 106
1, 261924, Control_c, 0, 64, 108
1, 261938, Control_c, 0, 64, 109
1, 261953, Control_c, 0, 64, 110
1, 261968, Control_c, 0, 64, 111
1, 261983, Control_c, 0, 64, 111
1, 262012, Control_c, 0, 64, 112
1, 262057, Control_c, 0, 64, 113
1, 262076, Note_off_c, 0, 68, 43
1, 262086, Control_c, 0, 64, 113
1, 262494, Note_on_c, 0, 68, 33
1, 262569, Control_c, 0, 64, 113
1, 262662, Note_off_c, 0, 52, 29
1, 262925, Note_off_c, 0, 61, 40
1, 263035, Control_c, 0, 64, 112
1, 263725, Note_on_c, 0, 40, 36
1, 263794, Note_off_c, 0, 45, 38
1, 263917, Control_c, 0, 64, 111
1, 264003, Note_on_c, 0, 52, 40
1, 264006, Control_c, 0, 64, 111
1, 264065, Control_c, 0, 64, 110
1, 264140, Control_c, 0, 64, 109
1, 264143, Note_on_c, 0, 56, 41
1, 264201, Control_c, 0, 64, 109
1, 264215, Control_c, 0, 64, 108
1, 264245, Control_c, 0, 64, 108
1, 264275, Control_c, 0, 64, 107
1, 264278, Note_off_c, 0, 68, 45
1, 264280, Note_on_c, 0, 61, 45
1, 264289, Control_c, 0, 64, 107
1, 264304, Control_c, 0, 64, 106
1, 264319, Control_c, 0, 64, 106
1, 264348, Control_c, 0, 64, 105
1, 264363, Control_c, 0, 64, 105
1, 264378, Control_c, 0, 64, 104
1, 264393, Control_c, 0, 64, 104
1, 264415, Control_c, 0, 64, 103
1, 264430, Control_c, 0, 64, 102
1, 264445, Control_c, 0, 64, 102
1, 264459, Control_c, 0, 64, 101
1, 264474, Control_c, 0, 64, 101
1, 264489, Control_c, 0, 64, 100
1, 264504, Control_c, 0, 64, 100
1, 264519, Control_c, 0, 64, 99
1, 264533, Control_c, 0, 64, 98
1, 264548, Control_c, 0, 64, 97
1, 264563, Control_c, 0, 64, 96
1, 264578, Control_c, 0, 64, 93
1, 264583, Note_on_c, 0, 68, 46
1, 264593, Control_c, 0, 64, 90
1, 264608, Control_c, 0, 64, 87
1, 264623, Control_c, 0, 64, 82
1, 264638, Control_c, 0, 64, 78
1, 264652, Control_c, 0, 64, 73
1, 264667, Control_c, 0, 64, 68
1, 264682, Control_c, 0, 64, 62
1, 264697, Control_c, 0, 64, 50
1, 264712, Control_c, 0, 64, 0
1, 265312, Control_c, 0, 64, 17
1, 265327, Control_c, 0, 64, 24
1, 265342, Control_c, 0, 64, 30
1, 265356, Control_c, 0, 64, 35
1, 265371, Control_c, 0, 64, 39
1, 265386, Control_c, 0, 64, 43
1, 265401, Control_c, 0, 64, 45
1, 265416, Control_c, 0, 64, 47
1, 265430, Control_c, 0, 64, 48
1, 265445, Control_c, 0, 64, 50
1, 265460, Control_c, 0, 64, 51
1, 265475, Control_c, 0, 64, 53
1, 265490, Control_c, 0, 64, 54
1, 265505, Control_c, 0, 64, 55
1, 265520, Control_c, 0, 64, 57
1, 265535, Control_c, 0, 64, 58
1, 265549, Control_c, 0, 64, 58
1, 265564, Control_c, 0, 64, 59
1, 265579, Control_c, 0, 64, 60
1, 265594, Control_c, 0, 64, 61
1, 265609, Control_c, 0, 64, 61
1, 265623, Control_c, 0, 64, 62
1, 265638, Control_c, 0, 64, 62
1, 265668, Control_c, 0, 64, 63
1, 265682, Control_c, 0, 64, 63
1, 265712, Control_c, 0, 64, 64
1, 265728, Control_c, 0, 64, 64
1, 265743, Control_c, 0, 64, 65
1, 265758, Control_c, 0, 64, 65
1, 265772, Control_c, 0, 64, 66
1, 265787, Control_c, 0, 64, 66
1, 265802, Control_c, 0, 64, 67
1, 265817, Control_c, 0, 64, 67
1, 265832, Control_c, 0, 64, 68
1, 265847, Control_c, 0, 64, 69
1, 265861, Control_c, 0, 64, 69
1, 265876, Control_c, 0, 64, 70
1, 265891, Control_c, 0, 64, 70
1, 265913, Control_c, 0, 64, 71
1, 265928, Control_c, 0, 64, 72
1, 265943, Control_c, 0, 64, 72
1, 265958, Control_c, 0, 64, 73
1, 265973, Control_c, 0, 64, 73
1, 265987, Control_c, 0, 64, 74
1, 266002, Control_c, 0, 64, 74
1, 266017, Control_c, 0, 64, 75
1, 266032, Control_c, 0, 64, 75
1, 266047, Control_c, 0, 64, 76
1, 266076, Control_c, 0, 64, 76
1, 266135, Control_c, 0, 64, 77
1, 266535, Control_c, 0, 64, 76
1, 266594, Control_c, 0, 64, 76
1, 266624, Control_c, 0, 64, 75
1, 266662, Control_c, 0, 64, 75
1, 266676, Control_c, 0, 64, 74
1, 266690, Note_on_c, 0, 59, 24
1, 266691, Control_c, 0, 64, 73
1, 266706, Control_c, 0, 64, 73
1, 266721, Control_c, 0, 64, 72
1, 266727, Note_off_c, 0, 61, 38
1, 266735, Control_c, 0, 64, 70
1, 266750, Control_c, 0, 64, 68
1, 266765, Control_c, 0, 64, 66
1, 266780, Control_c, 0, 64, 63
1, 266795, Control_c, 0, 64, 61
1, 266809, Control_c, 0, 64, 58
1, 266824, Control_c, 0, 64, 54
1, 266839, Control_c, 0, 64, 48
1, 266853, Control_c, 0, 64, 41
1, 266868, Control_c, 0, 64, 31
1, 266883, Control_c, 0, 64, 0
1, 267165, Control_c, 0, 64, 19
1, 267180, Control_c, 0, 64, 37
1, 267195, Control_c, 0, 64, 45
1, 267209, Control_c, 0, 64, 51
1, 267224, Control_c, 0, 64, 54
1, 267239, Control_c, 0, 64, 56
1, 267253, Control_c, 0, 64, 58
1, 267268, Control_c, 0, 64, 60
1, 267283, Control_c, 0, 64, 61
1, 267298, Control_c, 0, 64, 62
1, 267313, Control_c, 0, 64, 63
1, 267329, Control_c, 0, 64, 63
1, 267343, Control_c, 0, 64, 64
1, 267358, Control_c, 0, 64, 65
1, 267373, Control_c, 0, 64, 66
1, 267388, Control_c, 0, 64, 67
1, 267410, Control_c, 0, 64, 67
1, 267425, Control_c, 0, 64, 69
1, 267440, Control_c, 0, 64, 70
1, 267455, Control_c, 0, 64, 71
1, 267469, Control_c, 0, 64, 72
1, 267484, Control_c, 0, 64, 73
1, 267499, Control_c, 0, 64, 73
1, 267514, Control_c, 0, 64, 74
1, 267529, Control_c, 0, 64, 75
1, 267544, Control_c, 0, 64, 76
1, 267558, Control_c, 0, 64, 77
1, 267573, Control_c, 0, 64, 78
1, 267588, Control_c, 0, 64, 79
1, 267603, Control_c, 0, 64, 80
1, 267618, Control_c, 0, 64, 81
1, 267632, Control_c, 0, 64, 82
1, 267647, Control_c, 0, 64, 83
1, 267650, Note_off_c, 0, 68, 43
1, 267662, Control_c, 0, 64, 84
1, 267676, Control_c, 0, 64, 85
1, 267691, Control_c, 0, 64, 87
1, 267706, Control_c, 0, 64, 87
1, 267721, Control_c, 0, 64, 89
1, 267736, Control_c, 0, 64, 90
1, 267750, Control_c, 0, 64, 91
1, 267765, Control_c, 0, 64, 92
1, 267780, Control_c, 0, 64, 93
1, 267795, Control_c, 0, 64, 94
1, 267810, Control_c, 0, 64, 94
1, 267824, Control_c, 0, 64, 95
1, 267869, Control_c, 0, 64, 95
1, 268174, Control_c, 0, 64, 95
1, 268215, Note_on_c, 0, 68, 39
1, 268219, Control_c, 0, 64, 94
1, 268234, Control_c, 0, 64, 94
1, 268248, Control_c, 0, 64, 93
1, 268263, Control_c, 0, 64, 92
1, 268278, Control_c, 0, 64, 91
1, 268293, Control_c, 0, 64, 89
1, 268307, Control_c, 0, 64, 87
1, 268322, Control_c, 0, 64, 84
1, 268337, Control_c, 0, 64, 80
1, 268352, Control_c, 0, 64, 76
1, 268367, Control_c, 0, 64, 72
1, 268382, Control_c, 0, 64, 67
1, 268396, Control_c, 0, 64, 63
1, 268411, Control_c, 0, 64, 54
1, 268426, Control_c, 0, 64, 42
1, 268441, Control_c, 0, 64, 37
1, 268456, Control_c, 0, 64, 40
1, 268471, Control_c, 0, 64, 45
1, 268486, Control_c, 0, 64, 51
1, 268500, Control_c, 0, 64, 57
1, 268515, Control_c, 0, 64, 61
1, 268530, Control_c, 0, 64, 63
1, 268545, Control_c, 0, 64, 65
1, 268560, Control_c, 0, 64, 66
1, 268574, Control_c, 0, 64, 68
1, 268589, Control_c, 0, 64, 69
1, 268604, Control_c, 0, 64, 72
1, 268619, Control_c, 0, 64, 74
1, 268633, Control_c, 0, 64, 75
1, 268648, Control_c, 0, 64, 77
1, 268663, Control_c, 0, 64, 78
1, 268678, Control_c, 0, 64, 79
1, 268693, Control_c, 0, 64, 79
1, 268707, Control_c, 0, 64, 80
1, 268737, Control_c, 0, 64, 80
1, 268907, Control_c, 0, 64, 80
1, 268953, Control_c, 0, 64, 79
1, 268968, Control_c, 0, 64, 79
1, 268983, Control_c, 0, 64, 78
1, 268998, Control_c, 0, 64, 78
1, 269012, Control_c, 0, 64, 77
1, 269027, Control_c, 0, 64, 76
1, 269042, Control_c, 0, 64, 75
1, 269043, Note_on_c, 0, 66, 40
1, 269056, Control_c, 0, 64, 74
1, 269071, Control_c, 0, 64, 72
1, 269086, Control_c, 0, 64, 70
1, 269101, Control_c, 0, 64, 68
1, 269116, Control_c, 0, 64, 65
1, 269127, Note_off_c, 0, 68, 42
1, 269130, Control_c, 0, 64, 63
1, 269145, Control_c, 0, 64, 60
1, 269160, Control_c, 0, 64, 56
1, 269175, Control_c, 0, 64, 48
1, 269190, Control_c, 0, 64, 39
1, 269204, Control_c, 0, 64, 27
1, 269219, Control_c, 0, 64, 12
1, 269234, Control_c, 0, 64, 0
1, 269383, Control_c, 0, 64, 17
1, 269397, Control_c, 0, 64, 29
1, 269412, Control_c, 0, 64, 37
1, 269427, Control_c, 0, 64, 43
1, 269441, Control_c, 0, 64, 49
1, 269456, Control_c, 0, 64, 55
1, 269471, Control_c, 0, 64, 58
1, 269486, Control_c, 0, 64, 60
1, 269501, Control_c, 0, 64, 61
1, 269515, Control_c, 0, 64, 62
1, 269530, Control_c, 0, 64, 63
1, 269545, Control_c, 0, 64, 63
1, 269560, Control_c, 0, 64, 65
1, 269575, Control_c, 0, 64, 66
1, 269590, Control_c, 0, 64, 67
1, 269604, Control_c, 0, 64, 68
1, 269619, Control_c, 0, 64, 69
1, 269634, Control_c, 0, 64, 70
1, 269656, Control_c, 0, 64, 71
1, 269671, Control_c, 0, 64, 72
1, 269686, Control_c, 0, 64, 73
1, 269701, Control_c, 0, 64, 74
1, 269716, Control_c, 0, 64, 75
1, 269732, Control_c, 0, 64, 76
1, 269747, Control_c, 0, 64, 78
1, 269761, Control_c, 0, 64, 78
1, 269776, Control_c, 0, 64, 80
1, 269791, Control_c, 0, 64, 81
1, 269806, Control_c, 0, 64, 82
1, 269821, Control_c, 0, 64, 84
1, 269835, Control_c, 0, 64, 85
1, 269850, Control_c, 0, 64, 86
1, 269865, Control_c, 0, 64, 87
1, 269879, Control_c, 0, 64, 88
1, 269894, Control_c, 0, 64, 89
1, 269909, Control_c, 0, 64, 90
1, 269924, Control_c, 0, 64, 91
1, 269939, Control_c, 0, 64, 93
1, 269953, Control_c, 0, 64, 94
1, 269968, Control_c, 0, 64, 95
1, 269983, Control_c, 0, 64, 96
1, 269998, Control_c, 0, 64, 97
1, 270013, Control_c, 0, 64, 99
1, 270027, Control_c, 0, 64, 101
1, 270042, Control_c, 0, 64, 103
1, 270057, Control_c, 0, 64, 104
1, 270072, Control_c, 0, 64, 105
1, 270087, Control_c, 0, 64, 106
1, 270102, Control_c, 0, 64, 107
1, 270116, Control_c, 0, 64, 108
1, 270131, Note_off_c, 0, 66, 34
1, 270478, Control_c, 0, 64, 107
1, 270508, Control_c, 0, 64, 106
1, 270524, Control_c, 0, 64, 106
1, 270539, Control_c, 0, 64, 105
1, 270554, Control_c, 0, 64, 104
1, 270569, Control_c, 0, 64, 103
1, 270583, Control_c, 0, 64, 102
1, 270598, Control_c, 0, 64, 101
1, 270613, Control_c, 0, 64, 101
1, 270628, Control_c, 0, 64, 100
1, 270643, Control_c, 0, 64, 99
1, 270657, Control_c, 0, 64, 98
1, 270672, Control_c, 0, 64, 98
1, 270687, Control_c, 0, 64, 97
1, 270701, Control_c, 0, 64, 96
1, 270716, Control_c, 0, 64, 95
1, 270731, Control_c, 0, 64, 94
1, 270742, Note_on_c, 0, 64, 29
1, 270746, Control_c, 0, 64, 93
1, 270761, Control_c, 0, 64, 91
1, 270775, Control_c, 0, 64, 90
1, 270790, Control_c, 0, 64, 87
1, 270805, Control_c, 0, 64, 84
1, 270820, Control_c, 0, 64, 81
1, 270835, Control_c, 0, 64, 78
1, 270850, Control_c, 0, 64, 73
1, 270865, Control_c, 0, 64, 69
1, 270880, Control_c, 0, 64, 65
1, 270894, Control_c, 0, 64, 57
1, 270909, Control_c, 0, 64, 38
1, 270924, Control_c, 0, 64, 0
1, 270999, Control_c, 0, 64, 26
1, 271013, Control_c, 0, 64, 45
1, 271028, Control_c, 0, 64, 56
1, 271043, Control_c, 0, 64, 61
1, 271058, Control_c, 0, 64, 63
1, 271073, Control_c, 0, 64, 64
1, 271087, Control_c, 0, 64, 66
1, 271102, Control_c, 0, 64, 67
1, 271117, Control_c, 0, 64, 70
1, 271132, Control_c, 0, 64, 72
1, 271154, Control_c, 0, 64, 74
1, 271169, Control_c, 0, 64, 75
1, 271171, Note_off_c, 0, 64, 41
1, 271184, Control_c, 0, 64, 77
1, 271199, Control_c, 0, 64, 78
1, 271213, Control_c, 0, 64, 80
1, 271228, Control_c, 0, 64, 81
1, 271243, Control_c, 0, 64, 82
1, 271258, Control_c, 0, 64, 84
1, 271273, Control_c, 0, 64, 84
1, 271288, Control_c, 0, 64, 85
1, 271318, Control_c, 0, 64, 86
1, 271555, Control_c, 0, 64, 85
1, 271570, Control_c, 0, 64, 85
1, 271599, Control_c, 0, 64, 84
1, 271614, Control_c, 0, 64, 84
1, 271629, Control_c, 0, 64, 83
1, 271634, Note_on_c, 0, 64, 28
1, 271643, Control_c, 0, 64, 82
1, 271658, Control_c, 0, 64, 82
1, 271673, Control_c, 0, 64, 81
1, 271688, Control_c, 0, 64, 80
1, 271703, Control_c, 0, 64, 79
1, 271717, Control_c, 0, 64, 77
1, 271732, Control_c, 0, 64, 76
1, 271747, Control_c, 0, 64, 74
1, 271762, Control_c, 0, 64, 71
1, 271777, Control_c, 0, 64, 68
1, 271792, Control_c, 0, 64, 65
1, 271807, Control_c, 0, 64, 61
1, 271822, Control_c, 0, 64, 56
1, 271836, Control_c, 0, 64, 48
1, 271851, Control_c, 0, 64, 38
1, 271866, Control_c, 0, 64, 33
1, 271881, Control_c, 0, 64, 29
1, 271903, Control_c, 0, 64, 24
1, 271918, Control_c, 0, 64, 21
1, 271932, Control_c, 0, 64, 19
1, 271947, Control_c, 0, 64, 17
1, 271977, Control_c, 0, 64, 15
1, 272036, Control_c, 0, 64, 17
1, 272051, Control_c, 0, 64, 20
1, 272066, Control_c, 0, 64, 22
1, 272081, Control_c, 0, 64, 24
1, 272096, Control_c, 0, 64, 25
1, 272111, Control_c, 0, 64, 27
1, 272126, Control_c, 0, 64, 30
1, 272140, Control_c, 0, 64, 31
1, 272155, Control_c, 0, 64, 34
1, 272170, Control_c, 0, 64, 37
1, 272185, Control_c, 0, 64, 39
1, 272200, Control_c, 0, 64, 41
1, 272215, Control_c, 0, 64, 43
1, 272230, Control_c, 0, 64, 44
1, 272245, Control_c, 0, 64, 46
1, 272260, Control_c, 0, 64, 47
1, 272274, Control_c, 0, 64, 49
1, 272289, Control_c, 0, 64, 51
1, 272304, Control_c, 0, 64, 52
1, 272319, Control_c, 0, 64, 53
1, 272334, Control_c, 0, 64, 55
1, 272348, Control_c, 0, 64, 56
1, 272363, Control_c, 0, 64, 57
1, 272378, Control_c, 0, 64, 58
1, 272393, Control_c, 0, 64, 58
1, 272422, Control_c, 0, 64, 59
1, 272437, Control_c, 0, 64, 60
1, 272452, Control_c, 0, 64, 60
1, 272466, Control_c, 0, 64, 61
1, 272496, Control_c, 0, 64, 61
1, 272526, Control_c, 0, 64, 62
1, 272555, Control_c, 0, 64, 62
1, 272600, Control_c, 0, 64, 63
1, 272667, Control_c, 0, 64, 63
1, 272696, Control_c, 0, 64, 64
1, 272741, Control_c, 0, 64, 64
1, 272770, Control_c, 0, 64, 65
1, 272785, Control_c, 0, 64, 65
1, 272814, Control_c, 0, 64, 66
1, 272829, Control_c, 0, 64, 66
1, 272859, Control_c, 0, 64, 67
1, 272874, Control_c, 0, 64, 67
1, 272904, Control_c, 0, 64, 68
1, 272919, Control_c, 0, 64, 68
1, 272949, Control_c, 0, 64, 69
1, 272978, Control_c, 0, 64, 69
1, 273008, Control_c, 0, 64, 70
1, 273023, Control_c, 0, 64, 70
1, 273038, Control_c, 0, 64, 71
1, 273053, Control_c, 0, 64, 72
1, 273068, Control_c, 0, 64, 72
1, 273082, Control_c, 0, 64, 73
1, 273097, Control_c, 0, 64, 73
1, 273127, Control_c, 0, 64, 74
1, 273157, Control_c, 0, 64, 74
1, 273171, Control_c, 0, 64, 75
1, 273186, Control_c, 0, 64, 75
1, 273201, Control_c, 0, 64, 76
1, 273215, Control_c, 0, 64, 76
1, 273230, Control_c, 0, 64, 77
1, 273245, Control_c, 0, 64, 77
1, 273260, Control_c, 0, 64, 78
1, 273275, Control_c, 0, 64, 78
1, 273289, Control_c, 0, 64, 79
1, 273304, Control_c, 0, 64, 79
1, 273334, Control_c, 0, 64, 80
1, 273378, Control_c, 0, 64, 80
1, 273416, Control_c, 0, 64, 81
1, 273549, Control_c, 0, 64, 81
1, 273622, Control_c, 0, 64, 82
1, 273652, Control_c, 0, 64, 82
1, 273682, Control_c, 0, 64, 83
1, 273712, Control_c, 0, 64, 83
1, 273727, Control_c, 0, 64, 84
1, 273757, Control_c, 0, 64, 84
1, 273801, Control_c, 0, 64, 85
1, 273831, Control_c, 0, 64, 85
1, 273875, Control_c, 0, 64, 86
1, 273905, Control_c, 0, 64, 86
1, 273950, Control_c, 0, 64, 87
1, 273980, Control_c, 0, 64, 87
1, 274024, Control_c, 0, 64, 88
1, 274083, Control_c, 0, 64, 88
1, 274127, Control_c, 0, 64, 89
1, 274194, Control_c, 0, 64, 89
1, 274239, Control_c, 0, 64, 90
1, 274327, Control_c, 0, 64, 90
1, 274357, Control_c, 0, 64, 91
1, 274386, Control_c, 0, 64, 91
1, 274445, Control_c, 0, 64, 92
1, 274521, Control_c, 0, 64, 92
1, 274580, Control_c, 0, 64, 93
1, 274683, Control_c, 0, 64, 93
1, 274846, Control_c, 0, 64, 94
1, 275551, Control_c, 0, 64, 94
1, 275727, Note_off_c, 0, 56, 21
1, 275869, Control_c, 0, 64, 95
1, 276061, Control_c, 0, 64, 95
1, 276409, Note_off_c, 0, 52, 28
1, 276914, Note_off_c, 0, 40, 18
1, 277232, Control_c, 0, 64, 95
1, 277321, Control_c, 0, 64, 94
1, 277366, Control_c, 0, 64, 94
1, 277410, Control_c, 0, 64, 93
1, 277455, Control_c, 0, 64, 93
1, 277514, Control_c, 0, 64, 92
1, 277573, Control_c, 0, 64, 92
1, 277633, Control_c, 0, 64, 91
1, 277708, Control_c, 0, 64, 91
1, 277752, Control_c, 0, 64, 90
1, 277811, Control_c, 0, 64, 90
1, 277871, Control_c, 0, 64, 89
1, 277908, Control_c, 0, 64, 89
1, 277967, Control_c, 0, 64, 88
1, 277997, Control_c, 0, 64, 88
1, 278056, Control_c, 0, 64, 87
1, 278085, Control_c, 0, 64, 87
1, 278114, Note_off_c, 0, 59, 31
1, 278115, Control_c, 0, 64, 86
1, 278145, Control_c, 0, 64, 86
1, 278174, Control_c, 0, 64, 85
1, 278189, Control_c, 0, 64, 85
1, 278204, Control_c, 0, 64, 84
1, 278207, Note_off_c, 0, 64, 36
1, 278233, Control_c, 0, 64, 84
1, 278248, Control_c, 0, 64, 83
1, 278263, Control_c, 0, 64, 83
1, 278278, Control_c, 0, 64, 82
1, 278293, Control_c, 0, 64, 81
1, 278308, Control_c, 0, 64, 81
1, 278323, Control_c, 0, 64, 80
1, 278337, Control_c, 0, 64, 79
1, 278352, Control_c, 0, 64, 78
1, 278367, Control_c, 0, 64, 77
1, 278382, Control_c, 0, 64, 75
1, 278397, Control_c, 0, 64, 74
1, 278411, Control_c, 0, 64, 73
1, 278426, Control_c, 0, 64, 71
1, 278441, Control_c, 0, 64, 69
1, 278456, Control_c, 0, 64, 67
1, 278471, Control_c, 0, 64, 66
1, 278485, Control_c, 0, 64, 65
1, 278501, Control_c, 0, 64, 63
1, 278516, Control_c, 0, 64, 61
1, 278531, Control_c, 0, 64, 56
1, 278546, Control_c, 0, 64, 42
1, 278561, Control_c, 0, 64, 8
1, 278575, Control_c, 0, 64, 0
1, 278650, End_track
0, 0, End_of_file
