0, 0, Header, 0, 1, 384
1, 0, Start_track
1, 0, Title_t, "Duet in e,BWV 802--Jussow       "
1, 0, Text_t, "2009 International Piano-e-Competition finals"
1, 0, Text_t, "captured June-July 2009"
1, 0, Text_t, "http://www.piano-e-competition.com/"
1, 0, Text_t, "standard-resolution version"
1, 0, Text_t, "File processed for distribution by software from Zenph Studios, Inc., http://www.zenph.com"
1, 0, Instrument_name_t, "Yamaha Disklavier Pro Mark IV concert grand piano, model DCFIIISM4PRO"
1, 0, Sequencer_specific, 39, 67, 113, 0, 1, 0, 1, 0, 68, 117, 101, 116, 32, 69, 109, 44, 66, 87, 86, 32, 56, 48, 50, 32, 65, 110, 100, 114, 101, 106, 32, 74, 117, 115, 115, 111, 119, 32, 32, 32
1, 0, Sequencer_specific, 6, 67, 113, 0, 0, 0, 69
1, 0, System_exclusive, 21, 67, 113, 126, 21, 0, 2, 2, 1, 1, 13, 3, 4, 10, 4, 10, 6, 3, 7, 4, 4, 247
1, 0, Sequencer_specific, 5, 67, 123, 12, 2, 1
1, 0, Tempo, 512820
1, 0, Time_signature, 4, 2, 24, 8
1, 0, System_exclusive, 5, 126, 127, 9, 1, 247
1, 1, System_exclusive, 8, 67, 16, 76, 0, 0, 126, 0, 247
1, 2, System_exclusive, 8, 67, 16, 76, 8, 9, 7, 1, 247
1, 3, Control_c, 0, 0, 0
1, 3, Control_c, 1, 0, 0
1, 3, Control_c, 2, 0, 0
1, 3, Control_c, 3, 0, 0
1, 3, Control_c, 4, 0, 0
1, 3, Control_c, 5, 0, 0
1, 3, Control_c, 6, 0, 0
1, 3, Control_c, 7, 0, 0
1, 3, Control_c, 8, 0, 0
1, 3, Control_c, 9, 0, 127
1, 3, Control_c, 10, 0, 0
1, 3, Control_c, 11, 0, 0
1, 3, Control_c, 12, 0, 0
1, 3, Control_c, 13, 0, 0
1, 3, Control_c, 14, 0, 0
1, 3, Control_c, 15, 0, 0
1, 4, Control_c, 0, 32, 0
1, 4, Control_c, 1, 32, 0
1, 4, Control_c, 2, 32, 0
1, 4, Control_c, 3, 32, 0
1, 4, Control_c, 4, 32, 0
1, 4, Control_c, 5, 32, 0
1, 4, Control_c, 6, 32, 0
1, 4, Control_c, 7, 32, 0
1, 4, Control_c, 8, 32, 0
1, 4, Control_c, 9, 32, 0
1, 4, Control_c, 10, 32, 0
1, 4, Control_c, 11, 32, 0
1, 4, Control_c, 12, 32, 0
1, 4, Control_c, 13, 32, 0
1, 4, Control_c, 14, 32, 0
1, 4, Control_c, 15, 32, 0
1, 5, Program_c, 0, 0
1, 5, Program_c, 1, 0
1, 5, Program_c, 2, 0
1, 5, Program_c, 3, 0
1, 5, Program_c, 4, 0
1, 5, Program_c, 5, 0
1, 5, Program_c, 6, 0
1, 5, Program_c, 7, 0
1, 5, Program_c, 8, 0
1, 5, Program_c, 9, 0
1, 5, Program_c, 10, 0
1, 5, Program_c, 11, 0
1, 5, Program_c, 12, 0
1, 5, Program_c, 13, 0
1, 5, Program_c, 14, 0
1, 5, Program_c, 15, 0
1, 6, Control_c, 0, 7, 100
1, 6, Control_c, 1, 7, 100
1, 6, Control_c, 2, 7, 100
1, 6, Control_c, 3, 7, 100
1, 6, Control_c, 4, 7, 100
1, 6, Control_c, 5, 7, 100
1, 6, Control_c, 6, 7, 100
1, 6, Control_c, 7, 7, 100
1, 6, Control_c, 8, 7, 100
1, 6, Control_c, 9, 7, 100
1, 6, Control_c, 10, 7, 100
1, 6, Control_c, 11, 7, 100
1, 6, Control_c, 12, 7, 100
1, 6, Control_c, 13, 7, 100
1, 6, Control_c, 14, 7, 100
1, 6, Control_c, 15, 7, 100
1, 117, Control_c, 0, 64, 8
1, 229, Control_c, 0, 64, 16
1, 341, Control_c, 0, 64, 24
1, 452, Control_c, 0, 64, 32
1, 564, Control_c, 0, 64, 40
1, 676, Control_c, 0, 64, 48
1, 787, Control_c, 0, 64, 56
1, 899, Control_c, 0, 64, 65
1, 1131, Note_on_c, 0, 64, 61
1, 1131, Control_c, 0, 64, 55
1, 1146, Control_c, 0, 64, 0
1, 1282, Note_on_c, 0, 66, 66
1, 1299, Note_off_c, 0, 64, 59
1, 1367, Note_off_c, 0, 66, 64
1, 1373, Note_on_c, 0, 67, 69
1, 1430, Note_off_c, 0, 67, 61
1, 1458, Note_on_c, 0, 69, 71
1, 1543, Note_on_c, 0, 71, 74
1, 1569, Note_off_c, 0, 69, 55
1, 1640, Note_on_c, 0, 73, 84
1, 1671, Note_off_c, 0, 71, 57
1, 1727, Note_on_c, 0, 75, 81
1, 1789, Note_off_c, 0, 73, 56
1, 1805, Note_on_c, 0, 76, 80
1, 1825, Note_off_c, 0, 75, 64
1, 1894, Note_on_c, 0, 75, 74
1, 1909, Note_off_c, 0, 76, 60
1, 1991, Note_on_c, 0, 73, 74
1, 2049, Note_off_c, 0, 75, 52
1, 2082, Note_on_c, 0, 71, 54
1, 2119, Note_off_c, 0, 73, 56
1, 2159, Note_off_c, 0, 71, 53
1, 2160, Note_on_c, 0, 69, 62
1, 2266, Note_on_c, 0, 67, 63
1, 2343, Note_off_c, 0, 69, 40
1, 2356, Note_off_c, 0, 67, 60
1, 2371, Note_on_c, 0, 66, 61
1, 2482, Note_off_c, 0, 66, 60
1, 2502, Note_on_c, 0, 64, 48
1, 2815, Note_off_c, 0, 64, 61
1, 2832, Note_on_c, 0, 40, 46
1, 2836, Control_c, 0, 67, 38
1, 2850, Control_c, 0, 67, 116
1, 2865, Control_c, 0, 67, 127
1, 2878, Note_off_c, 0, 40, 64
1, 3070, Note_on_c, 0, 72, 50
1, 3318, Note_on_c, 0, 71, 52
1, 3319, Note_on_c, 0, 52, 50
1, 3323, Note_off_c, 0, 72, 59
1, 3350, Note_off_c, 0, 52, 67
1, 3548, Note_on_c, 0, 70, 58
1, 3557, Note_off_c, 0, 71, 57
1, 3579, Note_off_c, 0, 70, 64
1, 3774, Note_on_c, 0, 70, 58
1, 3786, Note_on_c, 0, 51, 36
1, 3817, Note_off_c, 0, 51, 56
1, 3873, Note_on_c, 0, 71, 55
1, 3873, Note_off_c, 0, 70, 55
1, 4013, Note_off_c, 0, 71, 53
1, 4020, Note_on_c, 0, 59, 44
1, 4214, Note_off_c, 0, 59, 33
1, 4273, Note_on_c, 0, 38, 39
1, 4349, Note_off_c, 0, 38, 57
1, 4510, Note_on_c, 0, 70, 60
1, 4637, Control_c, 0, 67, 121
1, 4652, Control_c, 0, 67, 113
1, 4667, Control_c, 0, 67, 105
1, 4682, Control_c, 0, 67, 97
1, 4696, Control_c, 0, 67, 92
1, 4711, Control_c, 0, 67, 87
1, 4726, Control_c, 0, 67, 83
1, 4736, Note_on_c, 0, 69, 61
1, 4741, Control_c, 0, 67, 80
1, 4741, Note_off_c, 0, 70, 60
1, 4742, Note_on_c, 0, 50, 46
1, 4756, Control_c, 0, 67, 76
1, 4771, Control_c, 0, 67, 72
1, 4777, Note_off_c, 0, 50, 64
1, 4786, Control_c, 0, 67, 64
1, 4800, Control_c, 0, 67, 55
1, 4815, Control_c, 0, 67, 45
1, 4830, Control_c, 0, 67, 35
1, 4845, Control_c, 0, 67, 27
1, 4860, Control_c, 0, 67, 19
1, 4875, Control_c, 0, 67, 11
1, 4890, Control_c, 0, 67, 0
1, 4968, Note_on_c, 0, 68, 59
1, 4973, Note_off_c, 0, 69, 58
1, 5010, Note_off_c, 0, 68, 59
1, 5198, Note_on_c, 0, 49, 39
1, 5200, Note_on_c, 0, 68, 52
1, 5238, Note_off_c, 0, 49, 61
1, 5286, Note_off_c, 0, 68, 52
1, 5293, Note_on_c, 0, 69, 50
1, 5444, Note_on_c, 0, 57, 40
1, 5449, Note_off_c, 0, 69, 52
1, 5537, Note_off_c, 0, 57, 61
1, 5695, Note_on_c, 0, 36, 34
1, 5814, Note_on_c, 0, 69, 52
1, 5823, Note_off_c, 0, 36, 55
1, 5926, Note_on_c, 0, 72, 71
1, 5932, Note_off_c, 0, 69, 65
1, 6023, Note_on_c, 0, 76, 73
1, 6046, Note_off_c, 0, 72, 61
1, 6142, Note_on_c, 0, 81, 80
1, 6146, Note_on_c, 0, 48, 48
1, 6154, Note_off_c, 0, 76, 62
1, 6230, Note_off_c, 0, 48, 61
1, 6247, Note_on_c, 0, 79, 80
1, 6270, Note_off_c, 0, 81, 59
1, 6350, Note_on_c, 0, 78, 84
1, 6401, Note_off_c, 0, 79, 55
1, 6455, Note_off_c, 0, 78, 62
1, 6456, Note_on_c, 0, 76, 86
1, 6568, Note_on_c, 0, 75, 80
1, 6583, Note_on_c, 0, 47, 47
1, 6587, Note_off_c, 0, 76, 61
1, 6641, Note_off_c, 0, 47, 61
1, 6671, Note_on_c, 0, 78, 77
1, 6680, Note_off_c, 0, 75, 60
1, 6734, Note_off_c, 0, 78, 62
1, 6793, Note_on_c, 0, 79, 63
1, 7015, Note_on_c, 0, 49, 44
1, 7055, Note_off_c, 0, 79, 47
1, 7060, Control_c, 0, 67, 9
1, 7075, Control_c, 0, 67, 12
1, 7090, Control_c, 0, 67, 15
1, 7105, Control_c, 0, 67, 18
1, 7117, Note_on_c, 0, 76, 53
1, 7120, Control_c, 0, 67, 21
1, 7124, Note_off_c, 0, 49, 62
1, 7134, Control_c, 0, 67, 21
1, 7149, Control_c, 0, 67, 22
1, 7193, Control_c, 0, 67, 23
1, 7200, Note_off_c, 0, 76, 64
1, 7208, Control_c, 0, 67, 27
1, 7223, Control_c, 0, 67, 31
1, 7230, Note_on_c, 0, 70, 52
1, 7239, Control_c, 0, 67, 35
1, 7254, Control_c, 0, 67, 40
1, 7269, Control_c, 0, 67, 44
1, 7283, Control_c, 0, 67, 47
1, 7298, Control_c, 0, 67, 48
1, 7328, Control_c, 0, 67, 47
1, 7343, Control_c, 0, 67, 47
1, 7372, Control_c, 0, 67, 46
1, 7387, Control_c, 0, 67, 46
1, 7431, Control_c, 0, 67, 45
1, 7448, Note_on_c, 0, 51, 45
1, 7458, Note_off_c, 0, 70, 44
1, 7543, Note_on_c, 0, 69, 59
1, 7555, Note_off_c, 0, 51, 62
1, 7564, Control_c, 0, 67, 45
1, 7594, Control_c, 0, 67, 44
1, 7617, Control_c, 0, 67, 43
1, 7621, Note_off_c, 0, 69, 61
1, 7632, Control_c, 0, 67, 43
1, 7658, Note_on_c, 0, 78, 77
1, 7690, Control_c, 0, 67, 42
1, 7739, Note_off_c, 0, 78, 62
1, 7750, Control_c, 0, 67, 42
1, 7758, Note_on_c, 0, 69, 70
1, 7764, Control_c, 0, 67, 41
1, 7791, Note_off_c, 0, 69, 65
1, 7860, Note_on_c, 0, 52, 56
1, 7867, Note_on_c, 0, 69, 69
1, 7883, Control_c, 0, 67, 42
1, 7928, Control_c, 0, 67, 42
1, 7943, Control_c, 0, 67, 43
1, 7956, Note_off_c, 0, 52, 66
1, 7961, Note_on_c, 0, 66, 76
1, 7972, Control_c, 0, 67, 43
1, 7983, Note_off_c, 0, 69, 49
1, 8016, Control_c, 0, 67, 44
1, 8035, Note_off_c, 0, 66, 59
1, 8047, Control_c, 0, 67, 44
1, 8063, Note_on_c, 0, 67, 75
1, 8077, Control_c, 0, 67, 45
1, 8114, Note_off_c, 0, 67, 59
1, 8136, Control_c, 0, 67, 44
1, 8157, Note_on_c, 0, 72, 72
1, 8195, Note_off_c, 0, 72, 60
1, 8271, Note_on_c, 0, 72, 65
1, 8281, Note_on_c, 0, 50, 46
1, 8284, Control_c, 0, 67, 45
1, 8299, Control_c, 0, 67, 45
1, 8312, Note_off_c, 0, 72, 55
1, 8381, Control_c, 0, 67, 46
1, 8387, Note_on_c, 0, 70, 66
1, 8395, Control_c, 0, 67, 47
1, 8419, Note_off_c, 0, 70, 61
1, 8420, Note_off_c, 0, 50, 59
1, 8425, Control_c, 0, 67, 47
1, 8439, Control_c, 0, 67, 48
1, 8454, Control_c, 0, 67, 49
1, 8492, Note_on_c, 0, 71, 56
1, 8525, Note_off_c, 0, 71, 57
1, 8558, Control_c, 0, 67, 49
1, 8587, Control_c, 0, 67, 49
1, 8591, Note_on_c, 0, 78, 61
1, 8617, Control_c, 0, 67, 48
1, 8646, Control_c, 0, 67, 48
1, 8678, Note_off_c, 0, 78, 47
1, 8702, Note_on_c, 0, 76, 59
1, 8708, Note_on_c, 0, 49, 39
1, 8783, Note_off_c, 0, 76, 52
1, 8800, Note_on_c, 0, 74, 54
1, 8840, Note_off_c, 0, 49, 57
1, 8877, Note_off_c, 0, 74, 53
1, 8885, Control_c, 0, 67, 47
1, 8902, Note_on_c, 0, 76, 57
1, 8999, Note_off_c, 0, 76, 53
1, 9000, Note_on_c, 0, 70, 54
1, 9063, Note_off_c, 0, 70, 43
1, 9077, Control_c, 0, 67, 47
1, 9111, Note_on_c, 0, 47, 64
1, 9114, Control_c, 0, 67, 47
1, 9123, Note_on_c, 0, 74, 42
1, 9129, Control_c, 0, 67, 48
1, 9159, Control_c, 0, 67, 48
1, 9174, Control_c, 0, 67, 49
1, 9203, Note_off_c, 0, 47, 63
1, 9204, Control_c, 0, 67, 49
1, 9210, Note_on_c, 0, 49, 62
1, 9215, Note_off_c, 0, 74, 53
1, 9218, Note_on_c, 0, 73, 46
1, 9218, Control_c, 0, 67, 50
1, 9248, Control_c, 0, 67, 53
1, 9262, Control_c, 0, 67, 56
1, 9277, Control_c, 0, 67, 58
1, 9314, Note_off_c, 0, 49, 62
1, 9314, Note_off_c, 0, 73, 58
1, 9322, Control_c, 0, 67, 58
1, 9324, Note_on_c, 0, 50, 67
1, 9335, Note_on_c, 0, 71, 39
1, 9351, Control_c, 0, 67, 58
1, 9387, Note_off_c, 0, 50, 63
1, 9412, Note_on_c, 0, 52, 67
1, 9526, Note_off_c, 0, 52, 64
1, 9528, Note_on_c, 0, 54, 73
1, 9543, Control_c, 0, 67, 57
1, 9558, Control_c, 0, 67, 57
1, 9603, Control_c, 0, 67, 56
1, 9621, Note_on_c, 0, 56, 71
1, 9633, Control_c, 0, 67, 56
1, 9638, Note_off_c, 0, 54, 58
1, 9692, Control_c, 0, 67, 55
1, 9721, Note_on_c, 0, 58, 79
1, 9722, Note_off_c, 0, 56, 57
1, 9722, Control_c, 0, 67, 55
1, 9752, Control_c, 0, 67, 54
1, 9782, Control_c, 0, 67, 54
1, 9795, Note_off_c, 0, 58, 63
1, 9797, Control_c, 0, 67, 53
1, 9815, Note_on_c, 0, 59, 75
1, 9878, Control_c, 0, 67, 53
1, 9919, Note_on_c, 0, 58, 76
1, 9922, Control_c, 0, 67, 52
1, 9926, Note_off_c, 0, 59, 63
1, 9938, Note_off_c, 0, 71, 53
1, 9952, Control_c, 0, 67, 51
1, 9967, Control_c, 0, 67, 51
1, 9996, Control_c, 0, 67, 50
1, 10011, Control_c, 0, 67, 50
1, 10026, Note_off_c, 0, 58, 63
1, 10029, Note_on_c, 0, 56, 66
1, 10056, Control_c, 0, 67, 49
1, 10122, Note_on_c, 0, 54, 55
1, 10125, Note_off_c, 0, 56, 60
1, 10185, Note_off_c, 0, 54, 61
1, 10203, Control_c, 0, 67, 49
1, 10222, Note_on_c, 0, 52, 48
1, 10319, Note_off_c, 0, 52, 63
1, 10322, Control_c, 0, 67, 48
1, 10330, Note_on_c, 0, 50, 51
1, 10422, Note_on_c, 0, 49, 50
1, 10423, Note_off_c, 0, 50, 58
1, 10525, Note_off_c, 0, 49, 59
1, 10541, Note_on_c, 0, 47, 47
1, 10575, Control_c, 0, 67, 48
1, 10627, Control_c, 0, 67, 47
1, 10656, Control_c, 0, 67, 47
1, 10700, Note_off_c, 0, 47, 65
1, 10701, Control_c, 0, 67, 46
1, 10715, Control_c, 0, 67, 46
1, 10730, Control_c, 0, 67, 43
1, 10745, Control_c, 0, 67, 41
1, 10760, Control_c, 0, 67, 39
1, 10775, Control_c, 0, 67, 38
1, 10789, Note_on_c, 0, 71, 57
1, 10789, Control_c, 0, 67, 37
1, 10804, Control_c, 0, 67, 35
1, 10819, Control_c, 0, 67, 33
1, 10834, Control_c, 0, 67, 32
1, 10938, Control_c, 0, 67, 32
1, 10989, Note_off_c, 0, 71, 62
1, 11019, Note_on_c, 0, 55, 34
1, 11056, Control_c, 0, 67, 32
1, 11071, Control_c, 0, 67, 31
1, 11086, Control_c, 0, 67, 31
1, 11100, Control_c, 0, 67, 30
1, 11116, Control_c, 0, 67, 30
1, 11160, Control_c, 0, 67, 27
1, 11175, Control_c, 0, 67, 22
1, 11190, Control_c, 0, 67, 18
1, 11205, Control_c, 0, 67, 15
1, 11220, Control_c, 0, 67, 14
1, 11236, Control_c, 0, 67, 13
1, 11243, Note_on_c, 0, 83, 65
1, 11249, Note_off_c, 0, 55, 42
1, 11251, Note_on_c, 0, 54, 36
1, 11265, Control_c, 0, 67, 13
1, 11280, Control_c, 0, 67, 12
1, 11295, Control_c, 0, 67, 12
1, 11462, Note_on_c, 0, 53, 51
1, 11462, Note_off_c, 0, 83, 60
1, 11463, Note_off_c, 0, 54, 50
1, 11484, Note_off_c, 0, 53, 63
1, 11495, Control_c, 0, 67, 12
1, 11510, Control_c, 0, 67, 13
1, 11525, Control_c, 0, 67, 13
1, 11569, Control_c, 0, 67, 14
1, 11599, Control_c, 0, 67, 14
1, 11643, Control_c, 0, 67, 15
1, 11657, Control_c, 0, 67, 15
1, 11687, Control_c, 0, 67, 16
1, 11702, Control_c, 0, 67, 16
1, 11703, Note_on_c, 0, 82, 59
1, 11705, Note_on_c, 0, 53, 37
1, 11761, Control_c, 0, 67, 17
1, 11770, Note_off_c, 0, 53, 60
1, 11791, Control_c, 0, 67, 18
1, 11806, Note_on_c, 0, 54, 44
1, 11821, Control_c, 0, 67, 19
1, 11864, Control_c, 0, 67, 19
1, 11875, Note_off_c, 0, 54, 47
1, 11879, Control_c, 0, 67, 20
1, 11894, Control_c, 0, 67, 21
1, 11901, Note_off_c, 0, 82, 58
1, 11909, Control_c, 0, 67, 22
1, 11923, Control_c, 0, 67, 23
1, 11926, Note_on_c, 0, 42, 47
1, 11938, Control_c, 0, 67, 25
1, 11953, Control_c, 0, 67, 29
1, 11968, Control_c, 0, 67, 34
1, 11970, Note_off_c, 0, 42, 64
1, 11982, Control_c, 0, 67, 38
1, 11997, Control_c, 0, 67, 41
1, 12012, Control_c, 0, 67, 45
1, 12028, Control_c, 0, 67, 48
1, 12043, Control_c, 0, 67, 52
1, 12058, Control_c, 0, 67, 56
1, 12072, Control_c, 0, 67, 59
1, 12087, Control_c, 0, 67, 64
1, 12110, Control_c, 0, 67, 69
1, 12125, Control_c, 0, 67, 75
1, 12140, Control_c, 0, 67, 82
1, 12154, Control_c, 0, 67, 90
1, 12169, Control_c, 0, 67, 97
1, 12178, Note_on_c, 0, 69, 50
1, 12184, Control_c, 0, 67, 101
1, 12199, Control_c, 0, 67, 105
1, 12213, Control_c, 0, 67, 108
1, 12228, Control_c, 0, 67, 110
1, 12243, Control_c, 0, 67, 112
1, 12258, Control_c, 0, 67, 115
1, 12273, Control_c, 0, 67, 117
1, 12287, Control_c, 0, 67, 120
1, 12302, Control_c, 0, 67, 125
1, 12317, Control_c, 0, 67, 127
1, 12381, Note_off_c, 0, 69, 65
1, 12418, Note_on_c, 0, 53, 34
1, 12645, Note_off_c, 0, 53, 47
1, 12652, Note_on_c, 0, 81, 59
1, 12658, Note_on_c, 0, 52, 38
1, 12868, Note_off_c, 0, 52, 57
1, 12880, Note_on_c, 0, 51, 47
1, 12895, Note_off_c, 0, 81, 56
1, 12903, Note_off_c, 0, 51, 59
1, 13114, Note_on_c, 0, 51, 44
1, 13133, Note_on_c, 0, 80, 52
1, 13186, Note_off_c, 0, 51, 58
1, 13225, Note_on_c, 0, 52, 41
1, 13302, Note_off_c, 0, 52, 58
1, 13311, Note_off_c, 0, 80, 58
1, 13351, Note_on_c, 0, 40, 49
1, 13379, Note_off_c, 0, 40, 58
1, 13566, Note_on_c, 0, 67, 50
1, 13651, Control_c, 0, 67, 123
1, 13666, Control_c, 0, 67, 102
1, 13677, Note_on_c, 0, 52, 58
1, 13681, Control_c, 0, 67, 89
1, 13696, Control_c, 0, 67, 82
1, 13711, Control_c, 0, 67, 78
1, 13726, Control_c, 0, 67, 76
1, 13734, Note_off_c, 0, 67, 51
1, 13740, Control_c, 0, 67, 72
1, 13755, Control_c, 0, 67, 67
1, 13770, Control_c, 0, 67, 60
1, 13773, Note_on_c, 0, 55, 66
1, 13780, Note_off_c, 0, 52, 59
1, 13785, Control_c, 0, 67, 54
1, 13800, Control_c, 0, 67, 49
1, 13815, Control_c, 0, 67, 44
1, 13830, Control_c, 0, 67, 38
1, 13845, Control_c, 0, 67, 33
1, 13859, Control_c, 0, 67, 29
1, 13870, Note_on_c, 0, 59, 73
1, 13874, Control_c, 0, 67, 25
1, 13882, Note_off_c, 0, 55, 60
1, 13889, Control_c, 0, 67, 17
1, 13904, Control_c, 0, 67, 0
1, 13957, Note_off_c, 0, 59, 64
1, 13982, Note_on_c, 0, 64, 70
1, 13989, Note_on_c, 0, 79, 69
1, 14089, Note_on_c, 0, 62, 68
1, 14092, Note_off_c, 0, 79, 60
1, 14092, Note_off_c, 0, 64, 64
1, 14180, Note_off_c, 0, 62, 61
1, 14189, Note_on_c, 0, 61, 66
1, 14253, Note_off_c, 0, 61, 62
1, 14282, Note_on_c, 0, 59, 64
1, 14316, Note_off_c, 0, 59, 61
1, 14398, Note_on_c, 0, 58, 67
1, 14400, Note_on_c, 0, 78, 66
1, 14429, Note_off_c, 0, 58, 64
1, 14502, Note_on_c, 0, 61, 63
1, 14535, Note_off_c, 0, 61, 61
1, 14604, Note_on_c, 0, 62, 63
1, 14607, Note_off_c, 0, 78, 64
1, 14820, Note_on_c, 0, 80, 74
1, 14921, Note_on_c, 0, 59, 55
1, 14947, Note_off_c, 0, 62, 41
1, 14984, Note_off_c, 0, 80, 63
1, 15037, Note_off_c, 0, 59, 60
1, 15056, Note_on_c, 0, 53, 57
1, 15264, Note_on_c, 0, 82, 78
1, 15355, Note_on_c, 0, 52, 56
1, 15395, Note_off_c, 0, 53, 36
1, 15416, Note_off_c, 0, 52, 53
1, 15437, Note_off_c, 0, 82, 61
1, 15484, Note_on_c, 0, 61, 60
1, 15522, Note_off_c, 0, 61, 59
1, 15566, Note_on_c, 0, 52, 63
1, 15594, Note_off_c, 0, 52, 69
1, 15623, Control_c, 0, 67, 9
1, 15638, Control_c, 0, 67, 14
1, 15653, Control_c, 0, 67, 18
1, 15668, Control_c, 0, 67, 22
1, 15683, Control_c, 0, 67, 28
1, 15697, Control_c, 0, 67, 34
1, 15707, Note_on_c, 0, 83, 60
1, 15712, Control_c, 0, 67, 39
1, 15722, Note_on_c, 0, 52, 49
1, 15727, Control_c, 0, 67, 43
1, 15741, Control_c, 0, 67, 44
1, 15786, Control_c, 0, 67, 45
1, 15797, Note_off_c, 0, 52, 62
1, 15815, Note_on_c, 0, 49, 54
1, 15912, Control_c, 0, 67, 45
1, 15942, Note_on_c, 0, 50, 60
1, 15942, Note_off_c, 0, 49, 59
1, 15988, Note_off_c, 0, 50, 62
1, 16001, Control_c, 0, 67, 46
1, 16021, Note_off_c, 0, 83, 61
1, 16045, Note_on_c, 0, 55, 59
1, 16073, Note_off_c, 0, 55, 66
1, 16121, Control_c, 0, 67, 46
1, 16151, Note_on_c, 0, 55, 59
1, 16165, Control_c, 0, 67, 47
1, 16194, Control_c, 0, 67, 49
1, 16209, Control_c, 0, 67, 51
1, 16215, Note_off_c, 0, 55, 64
1, 16224, Control_c, 0, 67, 52
1, 16239, Control_c, 0, 67, 53
1, 16250, Note_on_c, 0, 52, 55
1, 16253, Control_c, 0, 67, 55
1, 16268, Control_c, 0, 67, 56
1, 16283, Control_c, 0, 67, 57
1, 16313, Control_c, 0, 67, 58
1, 16328, Control_c, 0, 67, 60
1, 16341, Note_on_c, 0, 54, 64
1, 16343, Control_c, 0, 67, 63
1, 16349, Note_off_c, 0, 52, 64
1, 16358, Control_c, 0, 67, 66
1, 16372, Control_c, 0, 67, 67
1, 16387, Control_c, 0, 67, 68
1, 16391, Note_off_c, 0, 54, 56
1, 16459, Note_on_c, 0, 64, 44
1, 16564, Note_on_c, 0, 71, 61
1, 16578, Note_on_c, 0, 62, 53
1, 16579, Control_c, 0, 67, 68
1, 16586, Note_off_c, 0, 64, 38
1, 16632, Control_c, 0, 67, 69
1, 16651, Note_off_c, 0, 62, 53
1, 16676, Control_c, 0, 67, 69
1, 16679, Note_on_c, 0, 61, 55
1, 16691, Control_c, 0, 67, 70
1, 16719, Note_off_c, 0, 61, 61
1, 16735, Control_c, 0, 67, 70
1, 16765, Control_c, 0, 67, 74
1, 16772, Note_on_c, 0, 62, 52
1, 16779, Control_c, 0, 67, 77
1, 16794, Control_c, 0, 67, 79
1, 16814, Note_off_c, 0, 62, 54
1, 16855, Control_c, 0, 67, 78
1, 16870, Note_on_c, 0, 56, 49
1, 16884, Control_c, 0, 67, 78
1, 16929, Control_c, 0, 67, 77
1, 16944, Control_c, 0, 67, 77
1, 16958, Note_off_c, 0, 56, 55
1, 16958, Control_c, 0, 67, 76
1, 16973, Control_c, 0, 67, 76
1, 16993, Note_on_c, 0, 60, 44
1, 17002, Control_c, 0, 67, 75
1, 17017, Control_c, 0, 67, 74
1, 17032, Control_c, 0, 67, 74
1, 17047, Control_c, 0, 67, 73
1, 17076, Control_c, 0, 67, 72
1, 17091, Control_c, 0, 67, 71
1, 17099, Note_on_c, 0, 68, 52
1, 17106, Control_c, 0, 67, 70
1, 17121, Control_c, 0, 67, 69
1, 17136, Note_off_c, 0, 68, 56
1, 17136, Control_c, 0, 67, 68
1, 17156, Note_off_c, 0, 71, 42
1, 17166, Control_c, 0, 67, 67
1, 17178, Note_on_c, 0, 69, 65
1, 17180, Control_c, 0, 67, 67
1, 17195, Control_c, 0, 67, 66
1, 17209, Note_off_c, 0, 69, 65
1, 17210, Control_c, 0, 67, 63
1, 17225, Control_c, 0, 67, 60
1, 17240, Control_c, 0, 67, 58
1, 17255, Control_c, 0, 67, 58
1, 17269, Control_c, 0, 67, 57
1, 17275, Note_on_c, 0, 74, 68
1, 17284, Control_c, 0, 67, 56
1, 17299, Control_c, 0, 67, 56
1, 17300, Note_off_c, 0, 60, 57
1, 17302, Note_off_c, 0, 74, 65
1, 17365, Control_c, 0, 67, 56
1, 17373, Note_on_c, 0, 74, 68
1, 17410, Control_c, 0, 67, 57
1, 17425, Note_off_c, 0, 74, 61
1, 17425, Control_c, 0, 67, 56
1, 17455, Control_c, 0, 67, 56
1, 17461, Note_on_c, 0, 71, 62
1, 17490, Note_off_c, 0, 71, 66
1, 17553, Note_on_c, 0, 72, 67
1, 17558, Control_c, 0, 67, 57
1, 17589, Note_off_c, 0, 72, 58
1, 17642, Note_on_c, 0, 83, 66
1, 17663, Control_c, 0, 67, 56
1, 17692, Control_c, 0, 67, 56
1, 17750, Note_on_c, 0, 81, 68
1, 17764, Note_on_c, 0, 48, 54
1, 17764, Note_off_c, 0, 83, 34
1, 17845, Note_on_c, 0, 79, 66
1, 17848, Note_off_c, 0, 81, 48
1, 17886, Control_c, 0, 67, 56
1, 17915, Control_c, 0, 67, 56
1, 17917, Note_off_c, 0, 79, 56
1, 17952, Note_on_c, 0, 81, 63
1, 18010, Note_off_c, 0, 81, 57
1, 18041, Note_on_c, 0, 75, 61
1, 18048, Control_c, 0, 67, 55
1, 18063, Control_c, 0, 67, 54
1, 18130, Control_c, 0, 67, 54
1, 18153, Note_off_c, 0, 75, 31
1, 18159, Control_c, 0, 67, 53
1, 18176, Note_on_c, 0, 79, 63
1, 18248, Control_c, 0, 67, 52
1, 18263, Control_c, 0, 67, 48
1, 18267, Note_on_c, 0, 45, 49
1, 18276, Note_off_c, 0, 48, 57
1, 18278, Control_c, 0, 67, 45
1, 18293, Control_c, 0, 67, 43
1, 18307, Control_c, 0, 67, 41
1, 18322, Control_c, 0, 67, 39
1, 18337, Control_c, 0, 67, 38
1, 18352, Control_c, 0, 67, 37
1, 18367, Control_c, 0, 67, 36
1, 18373, Note_on_c, 0, 47, 58
1, 18378, Note_off_c, 0, 45, 60
1, 18382, Control_c, 0, 67, 35
1, 18397, Control_c, 0, 67, 34
1, 18411, Note_off_c, 0, 47, 66
1, 18412, Control_c, 0, 67, 33
1, 18486, Note_on_c, 0, 54, 64
1, 18516, Note_off_c, 0, 79, 57
1, 18523, Note_off_c, 0, 54, 60
1, 18593, Note_on_c, 0, 54, 50
1, 18618, Control_c, 0, 67, 33
1, 18671, Note_off_c, 0, 54, 60
1, 18683, Note_on_c, 0, 51, 58
1, 18692, Control_c, 0, 67, 32
1, 18771, Note_on_c, 0, 52, 62
1, 18771, Note_off_c, 0, 51, 58
1, 18842, Note_off_c, 0, 52, 64
1, 18897, Note_on_c, 0, 60, 54
1, 18992, Note_on_c, 0, 67, 64
1, 18996, Control_c, 0, 67, 32
1, 18999, Note_off_c, 0, 60, 58
1, 19008, Note_on_c, 0, 59, 41
1, 19026, Control_c, 0, 67, 31
1, 19055, Control_c, 0, 67, 31
1, 19099, Note_on_c, 0, 57, 57
1, 19101, Note_off_c, 0, 59, 46
1, 19129, Control_c, 0, 67, 28
1, 19136, Note_off_c, 0, 57, 61
1, 19144, Control_c, 0, 67, 24
1, 19159, Control_c, 0, 67, 23
1, 19173, Control_c, 0, 67, 22
1, 19188, Control_c, 0, 67, 21
1, 19193, Note_on_c, 0, 59, 53
1, 19203, Control_c, 0, 67, 21
1, 19234, Control_c, 0, 67, 20
1, 19241, Note_off_c, 0, 59, 54
1, 19249, Control_c, 0, 67, 20
1, 19263, Control_c, 0, 67, 19
1, 19278, Control_c, 0, 67, 17
1, 19293, Control_c, 0, 67, 16
1, 19300, Note_on_c, 0, 52, 42
1, 19308, Control_c, 0, 67, 15
1, 19323, Control_c, 0, 67, 14
1, 19337, Control_c, 0, 67, 13
1, 19352, Control_c, 0, 67, 12
1, 19367, Control_c, 0, 67, 11
1, 19382, Control_c, 0, 67, 10
1, 19386, Note_off_c, 0, 52, 57
1, 19396, Control_c, 0, 67, 9
1, 19408, Note_on_c, 0, 57, 47
1, 19411, Control_c, 0, 67, 0
1, 19511, Note_off_c, 0, 67, 49
1, 19528, Note_on_c, 0, 64, 55
1, 19607, Note_off_c, 0, 64, 37
1, 19631, Note_on_c, 0, 66, 58
1, 19661, Note_off_c, 0, 66, 67
1, 19717, Note_on_c, 0, 71, 70
1, 19747, Note_off_c, 0, 71, 59
1, 19750, Note_off_c, 0, 57, 57
1, 19813, Note_on_c, 0, 71, 69
1, 19861, Note_off_c, 0, 71, 59
1, 19907, Note_on_c, 0, 67, 65
1, 19933, Note_off_c, 0, 67, 66
1, 19997, Note_on_c, 0, 69, 69
1, 20053, Note_off_c, 0, 69, 45
1, 20112, Note_on_c, 0, 79, 37
1, 20153, Note_off_c, 0, 79, 47
1, 20188, Note_on_c, 0, 78, 66
1, 20209, Note_on_c, 0, 45, 51
1, 20286, Note_on_c, 0, 76, 68
1, 20290, Note_off_c, 0, 78, 57
1, 20376, Note_off_c, 0, 76, 57
1, 20403, Note_on_c, 0, 78, 67
1, 20449, Note_off_c, 0, 78, 54
1, 20498, Note_on_c, 0, 71, 57
1, 20585, Note_off_c, 0, 71, 35
1, 20602, Note_on_c, 0, 76, 62
1, 20707, Note_off_c, 0, 45, 53
1, 20713, Note_on_c, 0, 42, 46
1, 20816, Note_on_c, 0, 43, 64
1, 20836, Note_off_c, 0, 42, 58
1, 20859, Note_off_c, 0, 43, 63
1, 20895, Note_off_c, 0, 76, 62
1, 20906, Note_on_c, 0, 48, 59
1, 20938, Note_off_c, 0, 48, 64
1, 21006, Note_on_c, 0, 48, 70
1, 21049, Note_off_c, 0, 48, 60
1, 21102, Note_on_c, 0, 45, 63
1, 21193, Note_off_c, 0, 45, 61
1, 21199, Note_on_c, 0, 47, 66
1, 21256, Note_off_c, 0, 47, 62
1, 21305, Note_on_c, 0, 57, 54
1, 21410, Note_off_c, 0, 57, 59
1, 21414, Note_on_c, 0, 64, 63
1, 21434, Note_on_c, 0, 55, 46
1, 21507, Note_off_c, 0, 55, 63
1, 21527, Note_on_c, 0, 54, 52
1, 21565, Note_off_c, 0, 54, 62
1, 21635, Note_on_c, 0, 55, 36
1, 21679, Note_off_c, 0, 55, 49
1, 21717, Note_on_c, 0, 49, 49
1, 21822, Note_off_c, 0, 49, 56
1, 21863, Note_on_c, 0, 54, 39
1, 21888, Control_c, 0, 67, 12
1, 21903, Control_c, 0, 67, 23
1, 21917, Control_c, 0, 67, 45
1, 21932, Control_c, 0, 67, 83
1, 21947, Control_c, 0, 67, 127
1, 21966, Note_off_c, 0, 64, 51
1, 21971, Note_on_c, 0, 61, 54
1, 22045, Note_off_c, 0, 61, 59
1, 22069, Note_off_c, 0, 54, 61
1, 22075, Note_on_c, 0, 63, 55
1, 22111, Note_off_c, 0, 63, 62
1, 22163, Note_on_c, 0, 67, 55
1, 22189, Note_off_c, 0, 67, 60
1, 22263, Note_on_c, 0, 67, 63
1, 22292, Note_off_c, 0, 67, 64
1, 22361, Note_on_c, 0, 64, 57
1, 22406, Note_off_c, 0, 64, 55
1, 22466, Note_on_c, 0, 66, 55
1, 22529, Note_off_c, 0, 66, 61
1, 22552, Note_on_c, 0, 76, 56
1, 22668, Note_off_c, 0, 76, 36
1, 22671, Note_on_c, 0, 47, 50
1, 22685, Note_on_c, 0, 75, 54
1, 22768, Note_off_c, 0, 75, 53
1, 22785, Note_on_c, 0, 73, 55
1, 22801, Note_off_c, 0, 47, 65
1, 22895, Note_on_c, 0, 75, 54
1, 22918, Note_off_c, 0, 73, 41
1, 22929, Note_off_c, 0, 75, 63
1, 22990, Note_on_c, 0, 69, 44
1, 23086, Note_on_c, 0, 52, 54
1, 23086, Note_off_c, 0, 69, 35
1, 23106, Note_on_c, 0, 67, 50
1, 23178, Note_off_c, 0, 67, 59
1, 23187, Note_off_c, 0, 52, 64
1, 23191, Note_on_c, 0, 66, 47
1, 23196, Note_on_c, 0, 54, 53
1, 23293, Note_off_c, 0, 66, 45
1, 23299, Note_on_c, 0, 55, 57
1, 23302, Note_off_c, 0, 54, 58
1, 23304, Note_on_c, 0, 64, 46
1, 23407, Note_off_c, 0, 55, 64
1, 23414, Note_on_c, 0, 57, 65
1, 23430, Control_c, 0, 67, 116
1, 23444, Control_c, 0, 67, 96
1, 23459, Control_c, 0, 67, 77
1, 23474, Control_c, 0, 67, 60
1, 23489, Control_c, 0, 67, 51
1, 23501, Note_off_c, 0, 57, 63
1, 23504, Control_c, 0, 67, 44
1, 23518, Control_c, 0, 67, 37
1, 23522, Note_on_c, 0, 59, 68
1, 23533, Control_c, 0, 67, 28
1, 23548, Control_c, 0, 67, 17
1, 23551, Note_off_c, 0, 64, 56
1, 23563, Control_c, 0, 67, 0
1, 23627, Note_on_c, 0, 61, 73
1, 23632, Note_off_c, 0, 59, 63
1, 23729, Note_off_c, 0, 61, 56
1, 23730, Note_on_c, 0, 63, 69
1, 23801, Note_off_c, 0, 63, 63
1, 23824, Note_on_c, 0, 64, 67
1, 23926, Note_off_c, 0, 64, 49
1, 23926, Note_on_c, 0, 63, 68
1, 24016, Note_off_c, 0, 63, 62
1, 24024, Note_on_c, 0, 61, 63
1, 24099, Note_off_c, 0, 61, 60
1, 24140, Note_on_c, 0, 59, 54
1, 24224, Note_off_c, 0, 59, 57
1, 24238, Note_on_c, 0, 57, 50
1, 24314, Note_off_c, 0, 57, 60
1, 24342, Note_on_c, 0, 55, 39
1, 24348, Note_on_c, 0, 64, 54
1, 24409, Note_off_c, 0, 55, 62
1, 24436, Note_on_c, 0, 54, 51
1, 24448, Note_on_c, 0, 66, 62
1, 24494, Note_off_c, 0, 64, 42
1, 24520, Note_off_c, 0, 54, 61
1, 24530, Note_off_c, 0, 66, 63
1, 24546, Note_on_c, 0, 67, 64
1, 24550, Note_on_c, 0, 52, 48
1, 24606, Note_off_c, 0, 67, 60
1, 24639, Note_on_c, 0, 69, 72
1, 24654, Note_on_c, 0, 54, 54
1, 24671, Note_off_c, 0, 52, 39
1, 24739, Note_off_c, 0, 54, 61
1, 24742, Note_on_c, 0, 71, 74
1, 24750, Note_on_c, 0, 55, 47
1, 24756, Note_off_c, 0, 69, 60
1, 24844, Note_off_c, 0, 55, 64
1, 24850, Note_on_c, 0, 73, 81
1, 24852, Note_on_c, 0, 57, 61
1, 24881, Note_off_c, 0, 71, 59
1, 24922, Note_off_c, 0, 57, 62
1, 24948, Note_on_c, 0, 75, 78
1, 24955, Note_on_c, 0, 59, 56
1, 24973, Note_off_c, 0, 73, 59
1, 25035, Note_off_c, 0, 59, 35
1, 25040, Note_on_c, 0, 76, 75
1, 25048, Note_off_c, 0, 75, 63
1, 25060, Note_on_c, 0, 60, 54
1, 25110, Note_off_c, 0, 60, 56
1, 25140, Note_on_c, 0, 75, 65
1, 25142, Note_off_c, 0, 76, 61
1, 25152, Note_on_c, 0, 59, 60
1, 25242, Note_off_c, 0, 59, 57
1, 25245, Note_on_c, 0, 73, 62
1, 25257, Note_on_c, 0, 57, 47
1, 25262, Note_off_c, 0, 75, 47
1, 25321, Note_off_c, 0, 57, 60
1, 25344, Note_on_c, 0, 71, 50
1, 25357, Note_on_c, 0, 55, 28
1, 25380, Note_off_c, 0, 73, 38
1, 25388, Note_off_c, 0, 71, 56
1, 25407, Note_off_c, 0, 55, 59
1, 25439, Note_on_c, 0, 54, 45
1, 25445, Note_on_c, 0, 69, 46
1, 25512, Note_off_c, 0, 54, 61
1, 25545, Note_on_c, 0, 52, 52
1, 25563, Note_on_c, 0, 67, 51
1, 25569, Note_off_c, 0, 69, 36
1, 25646, Note_off_c, 0, 67, 61
1, 25658, Note_on_c, 0, 66, 49
1, 25661, Note_on_c, 0, 54, 61
1, 25668, Note_off_c, 0, 52, 54
1, 25738, Note_off_c, 0, 66, 60
1, 25758, Note_on_c, 0, 55, 57
1, 25763, Note_off_c, 0, 54, 61
1, 25765, Note_on_c, 0, 64, 56
1, 25854, Note_on_c, 0, 57, 73
1, 25855, Note_on_c, 0, 66, 65
1, 25855, Note_off_c, 0, 55, 64
1, 25858, Note_off_c, 0, 64, 32
1, 25938, Note_off_c, 0, 66, 60
1, 25946, Note_off_c, 0, 57, 64
1, 25957, Note_on_c, 0, 59, 74
1, 25958, Note_on_c, 0, 67, 60
1, 26002, Note_off_c, 0, 67, 56
1, 26060, Note_off_c, 0, 59, 63
1, 26062, Note_on_c, 0, 61, 70
1, 26064, Note_on_c, 0, 69, 52
1, 26108, Note_off_c, 0, 69, 49
1, 26138, Note_off_c, 0, 61, 59
1, 26158, Note_on_c, 0, 63, 62
1, 26159, Note_on_c, 0, 71, 52
1, 26207, Note_off_c, 0, 71, 52
1, 26223, Note_off_c, 0, 63, 63
1, 26252, Note_on_c, 0, 64, 60
1, 26254, Note_on_c, 0, 72, 58
1, 26363, Note_on_c, 0, 71, 52
1, 26364, Note_off_c, 0, 64, 32
1, 26368, Note_on_c, 0, 63, 58
1, 26411, Note_off_c, 0, 72, 51
1, 26427, Note_off_c, 0, 71, 53
1, 26456, Note_off_c, 0, 63, 62
1, 26470, Note_on_c, 0, 69, 54
1, 26473, Note_on_c, 0, 61, 52
1, 26528, Note_off_c, 0, 61, 58
1, 26562, Note_off_c, 0, 69, 33
1, 26576, Note_on_c, 0, 59, 50
1, 26578, Note_on_c, 0, 67, 55
1, 26657, Note_off_c, 0, 67, 59
1, 26669, Note_on_c, 0, 66, 53
1, 26669, Note_off_c, 0, 59, 59
1, 26685, Note_on_c, 0, 57, 47
1, 26748, Note_off_c, 0, 66, 54
1, 26764, Note_off_c, 0, 57, 61
1, 26782, Note_on_c, 0, 64, 52
1, 26791, Note_on_c, 0, 55, 40
1, 26867, Note_off_c, 0, 55, 62
1, 26878, Note_on_c, 0, 66, 65
1, 26893, Note_on_c, 0, 54, 54
1, 26893, Note_off_c, 0, 64, 59
1, 26966, Note_off_c, 0, 54, 61
1, 26967, Note_off_c, 0, 66, 64
1, 26978, Note_on_c, 0, 67, 67
1, 26990, Note_on_c, 0, 52, 57
1, 27039, Note_off_c, 0, 67, 62
1, 27069, Note_on_c, 0, 69, 75
1, 27091, Note_on_c, 0, 54, 64
1, 27092, Note_off_c, 0, 52, 55
1, 27184, Note_on_c, 0, 71, 74
1, 27188, Note_off_c, 0, 54, 59
1, 27191, Note_on_c, 0, 55, 56
1, 27197, Note_off_c, 0, 69, 60
1, 27275, Note_off_c, 0, 55, 62
1, 27283, Note_on_c, 0, 57, 67
1, 27284, Note_on_c, 0, 73, 81
1, 27308, Note_off_c, 0, 71, 56
1, 27358, Note_off_c, 0, 57, 62
1, 27384, Note_on_c, 0, 75, 81
1, 27385, Note_on_c, 0, 59, 61
1, 27406, Note_off_c, 0, 73, 61
1, 27472, Note_off_c, 0, 59, 54
1, 27479, Note_on_c, 0, 76, 78
1, 27485, Note_on_c, 0, 60, 61
1, 27499, Note_off_c, 0, 75, 62
1, 27549, Note_off_c, 0, 60, 60
1, 27581, Note_on_c, 0, 75, 73
1, 27583, Note_off_c, 0, 76, 59
1, 27584, Note_on_c, 0, 59, 65
1, 27675, Note_off_c, 0, 59, 55
1, 27678, Note_on_c, 0, 57, 61
1, 27683, Note_on_c, 0, 73, 73
1, 27725, Note_off_c, 0, 75, 49
1, 27759, Note_off_c, 0, 57, 58
1, 27777, Note_on_c, 0, 55, 49
1, 27781, Note_on_c, 0, 71, 67
1, 27843, Note_off_c, 0, 73, 55
1, 27861, Note_off_c, 0, 55, 62
1, 27863, Note_off_c, 0, 71, 54
1, 27882, Note_on_c, 0, 54, 49
1, 27884, Note_on_c, 0, 69, 62
1, 27986, Note_off_c, 0, 54, 61
1, 27992, Note_on_c, 0, 67, 59
1, 27995, Note_off_c, 0, 69, 58
1, 28031, Note_on_c, 0, 52, 40
1, 28072, Note_off_c, 0, 67, 61
1, 28090, Note_on_c, 0, 66, 53
1, 28189, Note_off_c, 0, 66, 52
1, 28203, Note_off_c, 0, 52, 65
1, 28222, Note_on_c, 0, 64, 49
1, 28280, Note_off_c, 0, 64, 56
1, 28481, Note_on_c, 0, 64, 27
1, 28636, Note_off_c, 0, 64, 57
1, 28707, Note_on_c, 0, 84, 62
1, 28944, Note_on_c, 0, 83, 70
1, 28952, Note_on_c, 0, 52, 45
1, 28980, Note_off_c, 0, 84, 59
1, 29016, Note_off_c, 0, 52, 56
1, 29162, Note_on_c, 0, 82, 75
1, 29190, Note_off_c, 0, 83, 60
1, 29214, Note_off_c, 0, 82, 63
1, 29402, Note_on_c, 0, 82, 66
1, 29422, Note_on_c, 0, 51, 33
1, 29504, Note_on_c, 0, 83, 59
1, 29523, Note_off_c, 0, 82, 54
1, 29524, Note_off_c, 0, 51, 57
1, 29638, Note_on_c, 0, 71, 53
1, 29688, Note_off_c, 0, 83, 29
1, 29793, Note_off_c, 0, 71, 61
1, 29884, Note_on_c, 0, 62, 49
1, 30007, Note_off_c, 0, 62, 60
1, 30133, Note_on_c, 0, 82, 53
1, 30359, Note_on_c, 0, 81, 58
1, 30370, Note_on_c, 0, 50, 42
1, 30399, Note_off_c, 0, 82, 37
1, 30436, Note_off_c, 0, 50, 55
1, 30589, Note_on_c, 0, 80, 53
1, 30589, Note_off_c, 0, 81, 56
1, 30626, Note_off_c, 0, 80, 64
1, 30823, Note_on_c, 0, 80, 56
1, 30830, Note_on_c, 0, 49, 34
1, 30929, Note_off_c, 0, 49, 53
1, 30934, Note_off_c, 0, 80, 55
1, 30935, Note_on_c, 0, 81, 52
1, 31060, Note_on_c, 0, 69, 48
1, 31065, Note_off_c, 0, 81, 33
1, 31237, Note_off_c, 0, 69, 53
1, 31307, Note_on_c, 0, 60, 48
1, 31408, Note_off_c, 0, 60, 62
1, 31439, Note_on_c, 0, 69, 48
1, 31536, Note_off_c, 0, 69, 58
1, 31541, Note_on_c, 0, 72, 63
1, 31641, Note_on_c, 0, 76, 69
1, 31656, Note_off_c, 0, 72, 62
1, 31750, Note_on_c, 0, 81, 75
1, 31754, Note_off_c, 0, 76, 64
1, 31760, Note_on_c, 0, 48, 46
1, 31853, Note_off_c, 0, 48, 61
1, 31860, Note_on_c, 0, 79, 74
1, 31878, Note_off_c, 0, 81, 55
1, 31951, Note_on_c, 0, 78, 81
1, 31984, Note_off_c, 0, 79, 54
1, 32018, Note_off_c, 0, 78, 61
1, 32059, Note_on_c, 0, 76, 64
1, 32099, Note_off_c, 0, 76, 60
1, 32164, Note_on_c, 0, 75, 72
1, 32176, Note_on_c, 0, 47, 48
1, 32195, Note_off_c, 0, 75, 63
1, 32263, Note_on_c, 0, 78, 72
1, 32286, Note_off_c, 0, 47, 64
1, 32300, Note_off_c, 0, 78, 54
1, 32377, Note_on_c, 0, 79, 55
1, 32430, Note_off_c, 0, 79, 0
1, 32430, Note_on_c, 0, 79, 31
1, 32598, Note_on_c, 0, 49, 45
1, 32639, Note_off_c, 0, 79, 51
1, 32692, Note_off_c, 0, 49, 62
1, 32697, Note_on_c, 0, 76, 52
1, 32772, Note_off_c, 0, 76, 61
1, 32803, Note_on_c, 0, 70, 52
1, 33017, Note_on_c, 0, 51, 42
1, 33020, Note_off_c, 0, 70, 45
1, 33119, Control_c, 0, 67, 87
1, 33131, Note_on_c, 0, 69, 54
1, 33134, Control_c, 0, 67, 127
1, 33137, Note_off_c, 0, 51, 62
1, 33170, Note_off_c, 0, 69, 61
1, 33227, Note_on_c, 0, 78, 64
1, 33280, Note_off_c, 0, 78, 52
1, 33328, Note_on_c, 0, 69, 53
1, 33360, Note_off_c, 0, 69, 67
1, 33435, Note_on_c, 0, 68, 64
1, 33444, Note_on_c, 0, 52, 45
1, 33474, Note_off_c, 0, 68, 55
1, 33495, Note_off_c, 0, 52, 66
1, 33533, Note_on_c, 0, 71, 57
1, 33619, Note_off_c, 0, 71, 61
1, 33642, Note_on_c, 0, 72, 51
1, 33853, Note_on_c, 0, 54, 40
1, 33928, Note_off_c, 0, 72, 58
1, 33947, Note_off_c, 0, 54, 62
1, 33956, Note_on_c, 0, 69, 58
1, 34069, Note_off_c, 0, 69, 42
1, 34091, Note_on_c, 0, 63, 45
1, 34274, Note_off_c, 0, 63, 61
1, 34276, Note_on_c, 0, 56, 48
1, 34351, Note_off_c, 0, 56, 60
1, 34383, Note_on_c, 0, 64, 50
1, 34440, Note_off_c, 0, 64, 51
1, 34491, Control_c, 0, 67, 123
1, 34506, Control_c, 0, 67, 110
1, 34520, Control_c, 0, 67, 98
1, 34524, Note_on_c, 0, 71, 26
1, 34535, Control_c, 0, 67, 85
1, 34550, Control_c, 0, 67, 72
1, 34570, Note_off_c, 0, 71, 52
1, 34573, Control_c, 0, 67, 60
1, 34588, Control_c, 0, 67, 48
1, 34589, Note_on_c, 0, 74, 49
1, 34602, Control_c, 0, 67, 40
1, 34612, Note_off_c, 0, 74, 64
1, 34617, Control_c, 0, 67, 33
1, 34632, Control_c, 0, 67, 28
1, 34646, Control_c, 0, 67, 23
1, 34661, Control_c, 0, 67, 18
1, 34676, Control_c, 0, 67, 14
1, 34681, Note_on_c, 0, 45, 44
1, 34691, Control_c, 0, 67, 11
1, 34692, Note_on_c, 0, 73, 68
1, 34706, Control_c, 0, 67, 0
1, 34747, Note_off_c, 0, 73, 55
1, 34792, Note_on_c, 0, 76, 72
1, 34810, Note_off_c, 0, 45, 63
1, 34845, Note_off_c, 0, 76, 62
1, 34902, Note_on_c, 0, 77, 69
1, 35104, Note_on_c, 0, 47, 52
1, 35174, Note_off_c, 0, 77, 51
1, 35210, Note_on_c, 0, 74, 52
1, 35255, Note_off_c, 0, 47, 64
1, 35282, Note_off_c, 0, 74, 59
1, 35328, Note_on_c, 0, 68, 59
1, 35429, Note_off_c, 0, 68, 0
1, 35429, Note_on_c, 0, 68, 15
1, 35518, Note_off_c, 0, 68, 42
1, 35546, Note_on_c, 0, 49, 44
1, 35632, Note_on_c, 0, 67, 61
1, 35688, Note_off_c, 0, 67, 53
1, 35689, Note_off_c, 0, 49, 62
1, 35707, Control_c, 0, 67, 64
1, 35722, Control_c, 0, 67, 127
1, 35742, Note_on_c, 0, 76, 56
1, 35778, Note_off_c, 0, 76, 57
1, 35826, Note_on_c, 0, 67, 53
1, 35861, Note_off_c, 0, 67, 61
1, 35935, Note_on_c, 0, 66, 59
1, 35963, Note_on_c, 0, 50, 35
1, 35977, Note_off_c, 0, 66, 55
1, 36038, Note_on_c, 0, 69, 57
1, 36046, Note_off_c, 0, 50, 60
1, 36136, Note_off_c, 0, 69, 52
1, 36154, Note_on_c, 0, 70, 61
1, 36252, Note_off_c, 0, 70, 0
1, 36252, Note_on_c, 0, 70, 7
1, 36370, Note_on_c, 0, 52, 48
1, 36446, Note_off_c, 0, 70, 48
1, 36476, Note_on_c, 0, 67, 49
1, 36479, Note_off_c, 0, 52, 64
1, 36571, Note_off_c, 0, 67, 51
1, 36587, Note_on_c, 0, 61, 52
1, 36786, Note_on_c, 0, 54, 52
1, 36822, Note_off_c, 0, 61, 54
1, 36895, Note_off_c, 0, 54, 62
1, 36907, Note_on_c, 0, 62, 52
1, 36994, Note_off_c, 0, 62, 60
1, 36995, Note_on_c, 0, 69, 57
1, 37084, Note_off_c, 0, 69, 63
1, 37105, Note_on_c, 0, 72, 51
1, 37156, Note_off_c, 0, 72, 55
1, 37160, Control_c, 0, 67, 118
1, 37175, Control_c, 0, 67, 104
1, 37189, Control_c, 0, 67, 88
1, 37190, Note_on_c, 0, 43, 52
1, 37204, Control_c, 0, 67, 68
1, 37214, Note_on_c, 0, 71, 45
1, 37219, Control_c, 0, 67, 37
1, 37233, Control_c, 0, 67, 0
1, 37293, Note_off_c, 0, 71, 60
1, 37294, Note_on_c, 0, 45, 52
1, 37300, Note_off_c, 0, 43, 49
1, 37302, Note_on_c, 0, 69, 55
1, 37380, Note_off_c, 0, 69, 60
1, 37391, Note_off_c, 0, 45, 59
1, 37394, Note_on_c, 0, 47, 60
1, 37404, Note_on_c, 0, 67, 56
1, 37489, Note_off_c, 0, 47, 63
1, 37492, Note_on_c, 0, 48, 65
1, 37496, Note_on_c, 0, 69, 60
1, 37518, Note_off_c, 0, 67, 42
1, 37587, Note_off_c, 0, 48, 62
1, 37603, Note_on_c, 0, 50, 64
1, 37606, Note_off_c, 0, 69, 64
1, 37620, Note_on_c, 0, 71, 64
1, 37681, Note_off_c, 0, 71, 61
1, 37704, Note_off_c, 0, 50, 60
1, 37705, Note_on_c, 0, 52, 71
1, 37707, Note_on_c, 0, 72, 67
1, 37777, Note_off_c, 0, 52, 66
1, 37788, Note_on_c, 0, 54, 66
1, 37806, Note_on_c, 0, 74, 72
1, 37864, Note_off_c, 0, 54, 61
1, 37865, Note_off_c, 0, 72, 37
1, 37885, Note_on_c, 0, 55, 62
1, 37903, Note_on_c, 0, 76, 78
1, 37931, Note_off_c, 0, 74, 59
1, 37988, Note_off_c, 0, 55, 62
1, 37996, Note_on_c, 0, 54, 56
1, 38001, Note_on_c, 0, 78, 84
1, 38037, Note_off_c, 0, 76, 60
1, 38081, Note_off_c, 0, 54, 62
1, 38088, Note_on_c, 0, 52, 67
1, 38097, Note_on_c, 0, 79, 80
1, 38120, Note_off_c, 0, 78, 62
1, 38160, Note_off_c, 0, 52, 64
1, 38197, Note_on_c, 0, 78, 77
1, 38199, Note_on_c, 0, 50, 57
1, 38209, Note_off_c, 0, 79, 53
1, 38283, Note_off_c, 0, 50, 62
1, 38299, Note_on_c, 0, 76, 70
1, 38309, Note_on_c, 0, 48, 31
1, 38339, Note_off_c, 0, 78, 50
1, 38410, Note_on_c, 0, 74, 56
1, 38413, Note_off_c, 0, 48, 43
1, 38413, Note_on_c, 0, 47, 34
1, 38454, Note_off_c, 0, 76, 60
1, 38485, Note_off_c, 0, 74, 61
1, 38488, Note_off_c, 0, 47, 60
1, 38509, Note_on_c, 0, 72, 52
1, 38512, Note_on_c, 0, 45, 43
1, 38607, Note_off_c, 0, 72, 53
1, 38614, Note_off_c, 0, 45, 61
1, 38624, Note_on_c, 0, 71, 53
1, 38635, Note_on_c, 0, 43, 49
1, 38706, Note_off_c, 0, 71, 60
1, 38713, Note_on_c, 0, 69, 53
1, 38759, Note_off_c, 0, 43, 58
1, 38812, Note_off_c, 0, 69, 64
1, 38849, Note_on_c, 0, 67, 42
1, 39094, Note_on_c, 0, 51, 56
1, 39122, Note_off_c, 0, 67, 54
1, 39322, Note_on_c, 0, 50, 50
1, 39324, Note_on_c, 0, 79, 58
1, 39327, Note_off_c, 0, 51, 56
1, 39537, Note_off_c, 0, 50, 61
1, 39546, Note_on_c, 0, 49, 55
1, 39563, Note_off_c, 0, 79, 59
1, 39576, Note_off_c, 0, 49, 63
1, 39758, Note_on_c, 0, 78, 60
1, 39762, Note_on_c, 0, 49, 50
1, 39854, Note_off_c, 0, 49, 60
1, 39878, Note_on_c, 0, 50, 45
1, 39935, Note_off_c, 0, 50, 53
1, 39964, Note_off_c, 0, 78, 54
1, 39992, Note_on_c, 0, 38, 51
1, 40024, Note_off_c, 0, 38, 63
1, 40219, Note_on_c, 0, 65, 55
1, 40393, Note_off_c, 0, 65, 60
1, 40450, Note_on_c, 0, 49, 54
1, 40676, Note_on_c, 0, 48, 42
1, 40680, Note_on_c, 0, 77, 59
1, 40684, Note_off_c, 0, 49, 38
1, 40904, Note_off_c, 0, 48, 60
1, 40912, Note_on_c, 0, 47, 50
1, 40926, Note_off_c, 0, 77, 60
1, 40938, Note_off_c, 0, 47, 58
1, 41127, Note_on_c, 0, 76, 54
1, 41132, Note_on_c, 0, 47, 40
1, 41201, Note_off_c, 0, 47, 62
1, 41247, Note_on_c, 0, 48, 33
1, 41287, Note_off_c, 0, 76, 61
1, 41313, Note_off_c, 0, 48, 41
1, 41353, Note_on_c, 0, 36, 52
1, 41380, Note_off_c, 0, 36, 58
1, 41570, Note_on_c, 0, 63, 47
1, 41669, Note_on_c, 0, 48, 52
1, 41743, Note_off_c, 0, 63, 55
1, 41766, Note_on_c, 0, 51, 62
1, 41771, Note_off_c, 0, 48, 57
1, 41877, Note_on_c, 0, 55, 61
1, 41900, Note_off_c, 0, 51, 49
1, 41944, Note_off_c, 0, 55, 62
1, 41970, Note_on_c, 0, 75, 66
1, 41978, Note_on_c, 0, 60, 60
1, 42060, Note_off_c, 0, 60, 56
1, 42071, Note_on_c, 0, 58, 66
1, 42086, Note_off_c, 0, 75, 63
1, 42139, Note_off_c, 0, 58, 61
1, 42175, Note_on_c, 0, 57, 61
1, 42246, Note_off_c, 0, 57, 58
1, 42259, Note_on_c, 0, 55, 58
1, 42299, Note_off_c, 0, 55, 61
1, 42355, Note_on_c, 0, 54, 57
1, 42366, Note_on_c, 0, 74, 65
1, 42396, Note_off_c, 0, 54, 60
1, 42481, Note_on_c, 0, 57, 37
1, 42543, Note_off_c, 0, 57, 42
1, 42575, Note_on_c, 0, 58, 51
1, 42584, Note_off_c, 0, 74, 64
1, 42792, Note_on_c, 0, 76, 72
1, 42921, Note_on_c, 0, 55, 52
1, 42926, Note_off_c, 0, 58, 49
1, 42948, Note_off_c, 0, 76, 67
1, 43037, Note_on_c, 0, 49, 56
1, 43040, Note_off_c, 0, 55, 54
1, 43239, Note_on_c, 0, 78, 80
1, 43351, Note_on_c, 0, 48, 50
1, 43375, Note_off_c, 0, 49, 38
1, 43389, Note_off_c, 0, 78, 63
1, 43403, Note_off_c, 0, 48, 61
1, 43460, Note_on_c, 0, 57, 57
1, 43505, Note_off_c, 0, 57, 55
1, 43537, Note_on_c, 0, 48, 59
1, 43576, Note_off_c, 0, 48, 64
1, 43678, Note_on_c, 0, 67, 57
1, 43682, Note_on_c, 0, 48, 56
1, 43778, Note_off_c, 0, 48, 60
1, 43797, Note_on_c, 0, 45, 56
1, 43834, Note_off_c, 0, 67, 50
1, 43898, Note_on_c, 0, 47, 63
1, 43901, Note_off_c, 0, 45, 57
1, 43929, Note_off_c, 0, 47, 65
1, 43992, Note_on_c, 0, 52, 57
1, 44032, Note_off_c, 0, 52, 63
1, 44088, Note_on_c, 0, 66, 57
1, 44199, Note_on_c, 0, 49, 47
1, 44222, Note_off_c, 0, 66, 62
1, 44310, Note_off_c, 0, 49, 56
1, 44316, Note_on_c, 0, 50, 53
1, 44350, Note_off_c, 0, 50, 64
1, 44414, Note_on_c, 0, 57, 46
1, 44504, Note_on_c, 0, 64, 47
1, 44508, Note_off_c, 0, 57, 59
1, 44535, Note_on_c, 0, 55, 31
1, 44602, Note_off_c, 0, 55, 62
1, 44625, Note_on_c, 0, 54, 45
1, 44653, Note_off_c, 0, 64, 61
1, 44658, Note_off_c, 0, 54, 61
1, 44735, Note_on_c, 0, 55, 28
1, 44772, Note_off_c, 0, 55, 50
1, 44801, Note_on_c, 0, 49, 51
1, 44811, Control_c, 0, 67, 53
1, 44826, Control_c, 0, 67, 127
1, 44863, Note_off_c, 0, 49, 51
1, 44902, Note_on_c, 0, 54, 46
1, 44918, Note_on_c, 0, 62, 59
1, 44967, Note_off_c, 0, 54, 57
1, 44990, Note_on_c, 0, 52, 55
1, 44991, Note_off_c, 0, 62, 41
1, 45000, Note_on_c, 0, 64, 56
1, 45036, Note_off_c, 0, 64, 61
1, 45067, Note_off_c, 0, 52, 65
1, 45099, Note_on_c, 0, 50, 51
1, 45104, Note_on_c, 0, 66, 63
1, 45143, Note_off_c, 0, 66, 57
1, 45167, Note_off_c, 0, 50, 44
1, 45189, Note_on_c, 0, 67, 67
1, 45201, Note_on_c, 0, 52, 50
1, 45281, Note_off_c, 0, 52, 64
1, 45286, Note_on_c, 0, 69, 71
1, 45289, Note_on_c, 0, 54, 60
1, 45290, Note_off_c, 0, 67, 28
1, 45375, Note_off_c, 0, 54, 45
1, 45380, Note_on_c, 0, 55, 66
1, 45383, Note_on_c, 0, 71, 69
1, 45384, Note_off_c, 0, 69, 63
1, 45396, Control_c, 0, 67, 112
1, 45411, Control_c, 0, 67, 77
1, 45426, Control_c, 0, 67, 38
1, 45441, Control_c, 0, 67, 0
1, 45458, Note_off_c, 0, 55, 63
1, 45475, Note_on_c, 0, 73, 75
1, 45483, Note_on_c, 0, 57, 63
1, 45493, Note_off_c, 0, 71, 55
1, 45571, Note_on_c, 0, 74, 69
1, 45577, Note_off_c, 0, 73, 60
1, 45588, Note_on_c, 0, 59, 61
1, 45590, Note_off_c, 0, 57, 57
1, 45645, Note_off_c, 0, 59, 54
1, 45672, Note_off_c, 0, 74, 60
1, 45673, Note_on_c, 0, 73, 76
1, 45675, Note_on_c, 0, 61, 66
1, 45721, Note_off_c, 0, 61, 58
1, 45765, Note_on_c, 0, 62, 62
1, 45773, Note_on_c, 0, 71, 72
1, 45790, Note_off_c, 0, 73, 53
1, 45872, Note_on_c, 0, 61, 53
1, 45873, Note_off_c, 0, 62, 32
1, 45882, Note_on_c, 0, 69, 65
1, 45912, Note_off_c, 0, 71, 59
1, 45955, Note_off_c, 0, 69, 59
1, 45955, Note_off_c, 0, 61, 61
1, 45976, Note_on_c, 0, 67, 61
1, 45979, Note_on_c, 0, 59, 48
1, 46045, Note_off_c, 0, 59, 62
1, 46082, Note_off_c, 0, 67, 48
1, 46083, Note_on_c, 0, 66, 60
1, 46101, Note_on_c, 0, 57, 45
1, 46173, Note_off_c, 0, 57, 41
1, 46182, Note_on_c, 0, 64, 55
1, 46187, Note_off_c, 0, 66, 54
1, 46197, Note_on_c, 0, 55, 40
1, 46268, Note_off_c, 0, 55, 59
1, 46280, Note_off_c, 0, 64, 61
1, 46297, Note_on_c, 0, 54, 37
1, 46304, Note_on_c, 0, 62, 48
1, 46404, Note_off_c, 0, 54, 55
1, 46419, Note_on_c, 0, 52, 48
1, 46506, Note_off_c, 0, 62, 54
1, 46541, Note_off_c, 0, 52, 62
1, 46579, Note_on_c, 0, 50, 48
1, 46725, Note_off_c, 0, 50, 59
1, 46822, Note_on_c, 0, 70, 56
1, 47046, Note_off_c, 0, 70, 60
1, 47046, Note_on_c, 0, 69, 55
1, 47064, Note_on_c, 0, 62, 40
1, 47094, Note_off_c, 0, 62, 57
1, 47282, Note_on_c, 0, 68, 62
1, 47290, Note_off_c, 0, 69, 60
1, 47317, Note_off_c, 0, 68, 67
1, 47499, Note_on_c, 0, 61, 46
1, 47499, Note_on_c, 0, 68, 61
1, 47536, Note_off_c, 0, 61, 63
1, 47606, Note_off_c, 0, 68, 53
1, 47610, Note_on_c, 0, 69, 41
1, 47732, Note_on_c, 0, 57, 45
1, 47797, Note_off_c, 0, 69, 37
1, 47857, Note_off_c, 0, 57, 58
1, 47951, Note_on_c, 0, 48, 41
1, 48058, Note_off_c, 0, 48, 60
1, 48204, Note_on_c, 0, 68, 52
1, 48408, Note_on_c, 0, 67, 48
1, 48500, Note_off_c, 0, 68, 23
1, 48518, Poly_aftertouch_c, 0, 60, 0
1, 48632, Note_on_c, 0, 66, 56
1, 48636, Note_off_c, 0, 67, 54
1, 48666, Note_off_c, 0, 66, 65
1, 48861, Note_on_c, 0, 59, 41
1, 48871, Note_on_c, 0, 66, 51
1, 48901, Note_off_c, 0, 59, 59
1, 48958, Note_off_c, 0, 66, 56
1, 48974, Note_on_c, 0, 67, 43
1, 49100, Note_on_c, 0, 55, 42
1, 49160, Note_off_c, 0, 67, 37
1, 49186, Note_off_c, 0, 55, 62
1, 49305, Note_on_c, 0, 46, 43
1, 49449, Note_on_c, 0, 67, 52
1, 49458, Note_off_c, 0, 46, 50
1, 49576, Note_on_c, 0, 70, 72
1, 49592, Note_off_c, 0, 67, 52
1, 49684, Note_on_c, 0, 74, 71
1, 49687, Note_off_c, 0, 70, 60
1, 49785, Note_on_c, 0, 58, 48
1, 49789, Note_on_c, 0, 79, 75
1, 49797, Note_off_c, 0, 74, 62
1, 49890, Note_off_c, 0, 58, 62
1, 49901, Note_on_c, 0, 77, 80
1, 49918, Note_off_c, 0, 79, 59
1, 49998, Note_on_c, 0, 76, 79
1, 50044, Note_off_c, 0, 77, 57
1, 50065, Note_off_c, 0, 76, 63
1, 50090, Note_on_c, 0, 74, 77
1, 50182, Note_on_c, 0, 57, 46
1, 50194, Note_on_c, 0, 73, 76
1, 50197, Note_off_c, 0, 74, 64
1, 50236, Note_off_c, 0, 57, 59
1, 50251, Note_off_c, 0, 73, 60
1, 50299, Note_on_c, 0, 76, 75
1, 50360, Note_off_c, 0, 76, 61
1, 50409, Note_on_c, 0, 77, 72
1, 50610, Note_on_c, 0, 59, 46
1, 50676, Note_off_c, 0, 77, 55
1, 50707, Note_off_c, 0, 59, 62
1, 50722, Note_on_c, 0, 74, 50
1, 50818, Note_off_c, 0, 74, 50
1, 50820, Note_on_c, 0, 68, 61
1, 51046, Note_on_c, 0, 61, 46
1, 51073, Note_off_c, 0, 68, 47
1, 51136, Note_on_c, 0, 67, 57
1, 51162, Note_off_c, 0, 61, 60
1, 51200, Note_off_c, 0, 67, 48
1, 51240, Note_on_c, 0, 76, 65
1, 51308, Note_off_c, 0, 76, 63
1, 51345, Note_on_c, 0, 67, 50
1, 51379, Note_off_c, 0, 67, 64
1, 51459, Note_on_c, 0, 62, 33
1, 51462, Note_on_c, 0, 67, 52
1, 51509, Note_off_c, 0, 67, 53
1, 51554, Note_on_c, 0, 64, 58
1, 51613, Note_off_c, 0, 64, 53
1, 51649, Note_on_c, 0, 65, 65
1, 51704, Note_off_c, 0, 65, 48
1, 51711, Note_off_c, 0, 62, 56
1, 51740, Note_on_c, 0, 70, 70
1, 51768, Note_off_c, 0, 70, 63
1, 51860, Note_on_c, 0, 70, 72
1, 51951, Note_on_c, 0, 68, 63
1, 51983, Note_off_c, 0, 68, 64
1, 51986, Note_off_c, 0, 70, 25
1, 52051, Note_on_c, 0, 69, 51
1, 52081, Note_off_c, 0, 69, 62
1, 52149, Note_on_c, 0, 79, 46
1, 52191, Note_off_c, 0, 79, 45
1, 52217, Note_on_c, 0, 50, 55
1, 52257, Note_on_c, 0, 77, 52
1, 52291, Note_off_c, 0, 77, 54
1, 52342, Note_on_c, 0, 76, 57
1, 52383, Note_off_c, 0, 76, 57
1, 52440, Note_on_c, 0, 77, 64
1, 52474, Note_off_c, 0, 77, 60
1, 52546, Note_on_c, 0, 71, 52
1, 52592, Note_off_c, 0, 71, 56
1, 52646, Note_on_c, 0, 76, 54
1, 52747, Note_off_c, 0, 50, 58
1, 52752, Note_on_c, 0, 47, 57
1, 52855, Note_on_c, 0, 48, 72
1, 52868, Note_off_c, 0, 47, 54
1, 52887, Note_off_c, 0, 48, 65
1, 52960, Note_on_c, 0, 53, 53
1, 52987, Note_off_c, 0, 53, 65
1, 53011, Note_off_c, 0, 76, 55
1, 53068, Note_on_c, 0, 53, 52
1, 53103, Note_off_c, 0, 53, 51
1, 53155, Note_on_c, 0, 51, 60
1, 53239, Note_off_c, 0, 51, 48
1, 53253, Note_on_c, 0, 52, 59
1, 53291, Note_off_c, 0, 52, 67
1, 53366, Note_on_c, 0, 62, 49
1, 53465, Note_on_c, 0, 64, 55
1, 53467, Note_off_c, 0, 62, 54
1, 53478, Note_on_c, 0, 60, 39
1, 53542, Note_off_c, 0, 60, 58
1, 53571, Note_on_c, 0, 59, 48
1, 53603, Note_off_c, 0, 59, 63
1, 53667, Note_on_c, 0, 60, 51
1, 53714, Note_off_c, 0, 60, 56
1, 53758, Note_on_c, 0, 54, 47
1, 53831, Note_off_c, 0, 54, 51
1, 53875, Note_on_c, 0, 59, 48
1, 53944, Control_c, 0, 67, 75
1, 53958, Note_off_c, 0, 64, 36
1, 53959, Control_c, 0, 67, 127
1, 53963, Note_on_c, 0, 61, 56
1, 53998, Note_off_c, 0, 61, 62
1, 54060, Note_on_c, 0, 62, 63
1, 54092, Note_off_c, 0, 62, 59
1, 54141, Note_off_c, 0, 59, 61
1, 54162, Note_on_c, 0, 69, 66
1, 54188, Note_off_c, 0, 69, 68
1, 54263, Note_on_c, 0, 69, 54
1, 54283, Note_off_c, 0, 69, 66
1, 54354, Note_on_c, 0, 66, 61
1, 54399, Note_off_c, 0, 66, 54
1, 54450, Note_on_c, 0, 68, 57
1, 54532, Note_off_c, 0, 68, 41
1, 54543, Note_on_c, 0, 76, 53
1, 54605, Control_c, 0, 67, 120
1, 54620, Control_c, 0, 67, 96
1, 54634, Control_c, 0, 67, 67
1, 54643, Note_off_c, 0, 76, 28
1, 54647, Note_on_c, 0, 47, 61
1, 54649, Control_c, 0, 67, 41
1, 54662, Note_on_c, 0, 74, 51
1, 54664, Control_c, 0, 67, 30
1, 54679, Control_c, 0, 67, 29
1, 54693, Control_c, 0, 67, 28
1, 54708, Control_c, 0, 67, 28
1, 54738, Control_c, 0, 67, 26
1, 54748, Note_off_c, 0, 74, 59
1, 54753, Control_c, 0, 67, 22
1, 54762, Note_on_c, 0, 72, 55
1, 54767, Control_c, 0, 67, 19
1, 54790, Control_c, 0, 67, 16
1, 54805, Control_c, 0, 67, 15
1, 54849, Control_c, 0, 67, 15
1, 54867, Note_off_c, 0, 72, 49
1, 54873, Note_on_c, 0, 74, 56
1, 54929, Note_off_c, 0, 74, 56
1, 54975, Note_on_c, 0, 68, 43
1, 55012, Control_c, 0, 67, 14
1, 55032, Note_off_c, 0, 68, 42
1, 55071, Note_on_c, 0, 72, 57
1, 55166, Note_on_c, 0, 44, 42
1, 55176, Control_c, 0, 67, 13
1, 55193, Note_off_c, 0, 47, 55
1, 55220, Control_c, 0, 67, 13
1, 55235, Control_c, 0, 67, 9
1, 55250, Control_c, 0, 67, 0
1, 55277, Note_on_c, 0, 45, 63
1, 55308, Note_off_c, 0, 44, 53
1, 55317, Note_off_c, 0, 45, 65
1, 55368, Note_on_c, 0, 50, 54
1, 55391, Note_off_c, 0, 50, 61
1, 55393, Note_off_c, 0, 72, 59
1, 55492, Note_on_c, 0, 50, 39
1, 55522, Note_off_c, 0, 50, 54
1, 55570, Note_on_c, 0, 47, 58
1, 55667, Note_off_c, 0, 47, 58
1, 55679, Note_on_c, 0, 48, 55
1, 55712, Note_off_c, 0, 48, 61
1, 55768, Note_on_c, 0, 59, 49
1, 55876, Note_off_c, 0, 59, 51
1, 55887, Note_on_c, 0, 60, 56
1, 55890, Note_on_c, 0, 57, 53
1, 55963, Note_off_c, 0, 57, 58
1, 55989, Note_on_c, 0, 55, 50
1, 56025, Note_off_c, 0, 55, 63
1, 56082, Note_on_c, 0, 57, 51
1, 56138, Note_off_c, 0, 57, 52
1, 56192, Note_on_c, 0, 51, 40
1, 56263, Note_off_c, 0, 51, 52
1, 56311, Note_on_c, 0, 55, 43
1, 56388, Note_off_c, 0, 60, 34
1, 56396, Note_on_c, 0, 58, 41
1, 56434, Note_off_c, 0, 58, 54
1, 56487, Note_on_c, 0, 59, 59
1, 56530, Note_off_c, 0, 59, 59
1, 56565, Note_off_c, 0, 55, 62
1, 56579, Note_on_c, 0, 66, 60
1, 56605, Note_off_c, 0, 66, 67
1, 56674, Note_on_c, 0, 66, 68
1, 56718, Note_off_c, 0, 66, 50
1, 56767, Note_on_c, 0, 63, 65
1, 56803, Note_off_c, 0, 63, 60
1, 56854, Note_on_c, 0, 64, 66
1, 56892, Note_off_c, 0, 64, 58
1, 56952, Note_on_c, 0, 72, 57
1, 56992, Note_off_c, 0, 72, 60
1, 57068, Note_on_c, 0, 71, 51
1, 57071, Note_on_c, 0, 43, 53
1, 57110, Note_off_c, 0, 71, 56
1, 57164, Note_on_c, 0, 70, 56
1, 57263, Note_on_c, 0, 71, 56
1, 57288, Control_c, 0, 67, 8
1, 57289, Note_off_c, 0, 70, 45
1, 57299, Note_off_c, 0, 71, 62
1, 57303, Control_c, 0, 67, 8
1, 57333, Control_c, 0, 67, 9
1, 57361, Note_on_c, 0, 64, 47
1, 57414, Note_off_c, 0, 64, 58
1, 57475, Note_on_c, 0, 70, 48
1, 57510, Control_c, 0, 67, 8
1, 57525, Control_c, 0, 67, 0
1, 57591, Note_on_c, 0, 41, 56
1, 57622, Note_off_c, 0, 43, 46
1, 57625, Note_off_c, 0, 70, 0
1, 57625, Note_on_c, 0, 70, 7
1, 57691, Note_on_c, 0, 42, 58
1, 57698, Note_off_c, 0, 41, 59
1, 57736, Note_off_c, 0, 42, 63
1, 57795, Note_on_c, 0, 47, 56
1, 57822, Note_off_c, 0, 47, 63
1, 57962, Poly_aftertouch_c, 0, 47, 127
1, 57993, Poly_aftertouch_c, 0, 47, 0
1, 58024, Note_on_c, 0, 44, 46
1, 58084, Note_off_c, 0, 70, 46
1, 58126, Note_off_c, 0, 44, 63
1, 58130, Note_on_c, 0, 46, 52
1, 58161, Note_off_c, 0, 46, 62
1, 58242, Note_on_c, 0, 54, 47
1, 58310, Note_off_c, 0, 54, 51
1, 58350, Note_on_c, 0, 52, 54
1, 58424, Note_off_c, 0, 52, 65
1, 58451, Note_on_c, 0, 50, 53
1, 58523, Note_off_c, 0, 50, 56
1, 58563, Note_on_c, 0, 52, 57
1, 58634, Note_off_c, 0, 52, 60
1, 58660, Note_on_c, 0, 46, 55
1, 58764, Note_off_c, 0, 46, 58
1, 58779, Note_on_c, 0, 50, 42
1, 58789, Note_on_c, 0, 71, 45
1, 58880, Note_on_c, 0, 73, 56
1, 58887, Note_off_c, 0, 71, 54
1, 58889, Note_off_c, 0, 50, 53
1, 58907, Note_on_c, 0, 49, 37
1, 58951, Note_off_c, 0, 49, 57
1, 58964, Note_off_c, 0, 73, 57
1, 58975, Note_on_c, 0, 74, 55
1, 58977, Note_on_c, 0, 47, 48
1, 59015, Note_off_c, 0, 74, 61
1, 59069, Note_on_c, 0, 76, 60
1, 59176, Note_on_c, 0, 78, 66
1, 59187, Note_off_c, 0, 76, 58
1, 59271, Note_off_c, 0, 47, 58
1, 59288, Note_on_c, 0, 80, 70
1, 59307, Note_off_c, 0, 78, 54
1, 59384, Note_on_c, 0, 82, 67
1, 59468, Note_off_c, 0, 80, 38
1, 59477, Note_on_c, 0, 83, 67
1, 59482, Note_off_c, 0, 82, 60
1, 59581, Note_on_c, 0, 82, 74
1, 59588, Note_off_c, 0, 83, 59
1, 59680, Note_on_c, 0, 80, 67
1, 59703, Note_off_c, 0, 82, 48
1, 59780, Note_on_c, 0, 78, 52
1, 59813, Note_off_c, 0, 80, 58
1, 59820, Note_off_c, 0, 78, 61
1, 59864, Note_on_c, 0, 76, 51
1, 59906, Note_off_c, 0, 76, 57
1, 59983, Note_on_c, 0, 74, 46
1, 59989, Note_on_c, 0, 47, 49
1, 60064, Note_off_c, 0, 74, 63
1, 60088, Note_on_c, 0, 73, 40
1, 60101, Note_on_c, 0, 49, 53
1, 60102, Note_off_c, 0, 47, 59
1, 60142, Note_off_c, 0, 73, 44
1, 60193, Note_on_c, 0, 71, 43
1, 60193, Note_off_c, 0, 49, 62
1, 60200, Note_on_c, 0, 50, 62
1, 60258, Note_off_c, 0, 71, 38
1, 60270, Note_off_c, 0, 50, 63
1, 60293, Note_on_c, 0, 73, 46
1, 60299, Note_on_c, 0, 52, 63
1, 60372, Note_off_c, 0, 73, 52
1, 60386, Note_on_c, 0, 74, 52
1, 60399, Note_off_c, 0, 52, 63
1, 60404, Note_on_c, 0, 54, 69
1, 60426, Note_off_c, 0, 74, 60
1, 60488, Note_on_c, 0, 76, 51
1, 60502, Note_on_c, 0, 56, 63
1, 60508, Note_off_c, 0, 54, 57
1, 60585, Note_off_c, 0, 56, 55
1, 60591, Note_on_c, 0, 78, 63
1, 60593, Note_on_c, 0, 58, 67
1, 60593, Note_off_c, 0, 76, 54
1, 60662, Note_off_c, 0, 78, 46
1, 60663, Note_off_c, 0, 58, 62
1, 60687, Note_on_c, 0, 79, 62
1, 60692, Note_on_c, 0, 59, 60
1, 60795, Note_on_c, 0, 58, 58
1, 60795, Note_off_c, 0, 59, 42
1, 60801, Note_on_c, 0, 78, 56
1, 60836, Note_off_c, 0, 79, 50
1, 60869, Note_off_c, 0, 78, 59
1, 60890, Note_off_c, 0, 58, 61
1, 60909, Note_on_c, 0, 56, 45
1, 60910, Note_on_c, 0, 76, 49
1, 60947, Note_off_c, 0, 76, 59
1, 60994, Note_off_c, 0, 56, 60
1, 61007, Note_on_c, 0, 54, 50
1, 61015, Note_on_c, 0, 74, 48
1, 61060, Note_off_c, 0, 54, 58
1, 61093, Note_off_c, 0, 74, 59
1, 61111, Note_on_c, 0, 73, 41
1, 61117, Note_on_c, 0, 52, 48
1, 61196, Note_off_c, 0, 52, 61
1, 61197, Note_off_c, 0, 73, 38
1, 61216, Note_on_c, 0, 71, 48
1, 61222, Note_on_c, 0, 50, 44
1, 61300, Note_off_c, 0, 50, 60
1, 61304, Note_on_c, 0, 73, 62
1, 61313, Note_on_c, 0, 49, 49
1, 61328, Note_off_c, 0, 71, 50
1, 61390, Note_off_c, 0, 49, 57
1, 61406, Note_on_c, 0, 74, 66
1, 61406, Note_off_c, 0, 73, 61
1, 61409, Note_on_c, 0, 47, 57
1, 61462, Note_off_c, 0, 74, 64
1, 61504, Note_on_c, 0, 76, 74
1, 61507, Note_off_c, 0, 47, 61
1, 61512, Note_on_c, 0, 49, 61
1, 61614, Note_on_c, 0, 78, 80
1, 61624, Note_off_c, 0, 49, 60
1, 61627, Note_off_c, 0, 76, 62
1, 61629, Note_on_c, 0, 50, 61
1, 61691, Note_off_c, 0, 50, 61
1, 61712, Note_on_c, 0, 80, 84
1, 61725, Note_on_c, 0, 52, 55
1, 61746, Note_off_c, 0, 78, 61
1, 61806, Note_on_c, 0, 82, 82
1, 61816, Note_off_c, 0, 52, 62
1, 61825, Note_on_c, 0, 54, 58
1, 61840, Note_off_c, 0, 80, 62
1, 61897, Note_off_c, 0, 54, 60
1, 61904, Note_on_c, 0, 83, 75
1, 61912, Note_on_c, 0, 55, 62
1, 61916, Note_off_c, 0, 82, 60
1, 62007, Note_on_c, 0, 82, 77
1, 62009, Note_off_c, 0, 55, 58
1, 62013, Note_off_c, 0, 83, 60
1, 62021, Note_on_c, 0, 54, 59
1, 62066, Note_off_c, 0, 54, 58
1, 62104, Note_on_c, 0, 80, 69
1, 62113, Note_on_c, 0, 52, 58
1, 62134, Note_off_c, 0, 82, 50
1, 62198, Note_off_c, 0, 52, 57
1, 62205, Note_on_c, 0, 78, 56
1, 62215, Note_on_c, 0, 50, 53
1, 62240, Note_off_c, 0, 80, 59
1, 62241, Note_off_c, 0, 78, 61
1, 62295, Note_off_c, 0, 50, 59
1, 62308, Note_on_c, 0, 76, 49
1, 62320, Note_on_c, 0, 49, 47
1, 62346, Note_off_c, 0, 76, 54
1, 62392, Note_off_c, 0, 49, 57
1, 62409, Note_on_c, 0, 47, 63
1, 62425, Note_on_c, 0, 74, 50
1, 62509, Note_off_c, 0, 74, 59
1, 62511, Note_on_c, 0, 73, 55
1, 62520, Note_on_c, 0, 49, 63
1, 62523, Note_off_c, 0, 47, 63
1, 62572, Note_off_c, 0, 73, 55
1, 62613, Note_on_c, 0, 50, 71
1, 62618, Note_off_c, 0, 49, 60
1, 62620, Note_on_c, 0, 71, 52
1, 62689, Note_off_c, 0, 50, 62
1, 62707, Note_on_c, 0, 73, 64
1, 62710, Note_on_c, 0, 52, 71
1, 62725, Note_off_c, 0, 71, 55
1, 62797, Note_off_c, 0, 73, 57
1, 62801, Note_on_c, 0, 74, 69
1, 62808, Note_off_c, 0, 52, 56
1, 62812, Note_on_c, 0, 54, 72
1, 62863, Note_off_c, 0, 74, 62
1, 62904, Note_on_c, 0, 76, 68
1, 62905, Note_on_c, 0, 56, 68
1, 62916, Note_off_c, 0, 54, 58
1, 62985, Note_off_c, 0, 56, 57
1, 62999, Note_on_c, 0, 58, 68
1, 63008, Note_on_c, 0, 78, 70
1, 63024, Note_off_c, 0, 76, 61
1, 63074, Note_off_c, 0, 58, 62
1, 63103, Note_off_c, 0, 78, 60
1, 63105, Note_on_c, 0, 59, 59
1, 63110, Note_on_c, 0, 79, 71
1, 63197, Note_on_c, 0, 58, 58
1, 63200, Note_off_c, 0, 59, 58
1, 63209, Note_on_c, 0, 78, 76
1, 63251, Note_off_c, 0, 79, 54
1, 63274, Note_off_c, 0, 78, 61
1, 63291, Note_off_c, 0, 58, 62
1, 63301, Note_on_c, 0, 76, 74
1, 63306, Note_on_c, 0, 56, 52
1, 63368, Note_off_c, 0, 76, 55
1, 63393, Note_off_c, 0, 56, 60
1, 63404, Note_on_c, 0, 54, 55
1, 63408, Note_on_c, 0, 74, 65
1, 63454, Note_off_c, 0, 54, 60
1, 63501, Note_off_c, 0, 74, 63
1, 63502, Note_on_c, 0, 52, 52
1, 63505, Note_on_c, 0, 73, 64
1, 63593, Note_off_c, 0, 52, 64
1, 63598, Note_off_c, 0, 73, 60
1, 63615, Note_on_c, 0, 50, 42
1, 63619, Note_on_c, 0, 71, 57
1, 63715, Note_off_c, 0, 50, 54
1, 63726, Note_on_c, 0, 49, 38
1, 63826, Note_off_c, 0, 49, 58
1, 63838, Note_off_c, 0, 71, 55
1, 63838, Note_on_c, 0, 47, 47
1, 63959, Note_off_c, 0, 47, 62
1, 64105, Note_on_c, 0, 83, 63
1, 64311, Note_off_c, 0, 83, 61
1, 64333, Note_on_c, 0, 55, 45
1, 64558, Note_off_c, 0, 55, 56
1, 64570, Note_on_c, 0, 71, 58
1, 64580, Note_on_c, 0, 54, 38
1, 64790, Note_on_c, 0, 53, 54
1, 64794, Note_off_c, 0, 54, 52
1, 64794, Note_off_c, 0, 71, 58
1, 64813, Note_off_c, 0, 53, 64
1, 65007, Note_on_c, 0, 70, 54
1, 65017, Note_on_c, 0, 53, 43
1, 65080, Note_off_c, 0, 53, 65
1, 65115, Note_on_c, 0, 54, 45
1, 65167, Note_off_c, 0, 70, 63
1, 65206, Note_off_c, 0, 54, 49
1, 65225, Note_on_c, 0, 42, 50
1, 65274, Note_off_c, 0, 42, 64
1, 65421, Control_c, 0, 67, 8
1, 65435, Control_c, 0, 67, 23
1, 65450, Control_c, 0, 67, 36
1, 65463, Note_on_c, 0, 81, 56
1, 65465, Control_c, 0, 67, 44
1, 65480, Control_c, 0, 67, 50
1, 65495, Control_c, 0, 67, 52
1, 65510, Control_c, 0, 67, 55
1, 65525, Control_c, 0, 67, 57
1, 65540, Control_c, 0, 67, 58
1, 65555, Control_c, 0, 67, 58
1, 65686, Note_off_c, 0, 81, 60
1, 65692, Note_on_c, 0, 53, 49
1, 65748, Control_c, 0, 67, 58
1, 65807, Control_c, 0, 67, 57
1, 65822, Control_c, 0, 67, 57
1, 65851, Control_c, 0, 67, 56
1, 65866, Control_c, 0, 67, 56
1, 65911, Control_c, 0, 67, 55
1, 65912, Note_off_c, 0, 53, 58
1, 65917, Note_on_c, 0, 69, 50
1, 65925, Control_c, 0, 67, 55
1, 65930, Note_on_c, 0, 52, 40
1, 65955, Control_c, 0, 67, 54
1, 66022, Control_c, 0, 67, 54
1, 66066, Control_c, 0, 67, 53
1, 66096, Control_c, 0, 67, 53
1, 66111, Control_c, 0, 67, 52
1, 66143, Note_off_c, 0, 52, 59
1, 66150, Note_on_c, 0, 51, 51
1, 66159, Note_off_c, 0, 69, 56
1, 66173, Note_off_c, 0, 51, 58
1, 66214, Control_c, 0, 67, 52
1, 66244, Control_c, 0, 67, 51
1, 66356, Note_on_c, 0, 68, 50
1, 66374, Note_on_c, 0, 51, 38
1, 66378, Control_c, 0, 67, 51
1, 66422, Control_c, 0, 67, 50
1, 66439, Note_off_c, 0, 51, 60
1, 66452, Control_c, 0, 67, 50
1, 66479, Note_on_c, 0, 52, 37
1, 66522, Note_off_c, 0, 68, 61
1, 66526, Control_c, 0, 67, 49
1, 66532, Note_off_c, 0, 52, 46
1, 66541, Control_c, 0, 67, 49
1, 66591, Note_on_c, 0, 40, 50
1, 66622, Note_off_c, 0, 40, 66
1, 66811, Note_on_c, 0, 79, 55
1, 66874, Control_c, 0, 67, 48
1, 66889, Control_c, 0, 67, 48
1, 66920, Note_on_c, 0, 52, 57
1, 66948, Control_c, 0, 67, 47
1, 66978, Control_c, 0, 67, 47
1, 67007, Control_c, 0, 67, 46
1, 67014, Note_on_c, 0, 55, 58
1, 67015, Note_off_c, 0, 52, 56
1, 67022, Control_c, 0, 67, 46
1, 67037, Control_c, 0, 67, 44
1, 67052, Control_c, 0, 67, 42
1, 67066, Control_c, 0, 67, 40
1, 67069, Note_off_c, 0, 79, 36
1, 67081, Control_c, 0, 67, 37
1, 67096, Control_c, 0, 67, 35
1, 67111, Control_c, 0, 67, 33
1, 67115, Note_on_c, 0, 59, 68
1, 67126, Control_c, 0, 67, 31
1, 67129, Note_off_c, 0, 55, 58
1, 67142, Control_c, 0, 67, 30
1, 67157, Control_c, 0, 67, 29
1, 67171, Control_c, 0, 67, 29
1, 67186, Control_c, 0, 67, 28
1, 67198, Note_off_c, 0, 59, 64
1, 67215, Control_c, 0, 67, 27
1, 67218, Note_on_c, 0, 64, 70
1, 67224, Note_on_c, 0, 67, 59
1, 67245, Control_c, 0, 67, 26
1, 67321, Note_off_c, 0, 67, 52
1, 67326, Note_on_c, 0, 62, 66
1, 67331, Note_off_c, 0, 64, 63
1, 67349, Control_c, 0, 67, 26
1, 67364, Control_c, 0, 67, 25
1, 67394, Control_c, 0, 67, 25
1, 67410, Note_off_c, 0, 62, 59
1, 67423, Control_c, 0, 67, 23
1, 67424, Note_on_c, 0, 61, 67
1, 67438, Control_c, 0, 67, 19
1, 67453, Control_c, 0, 67, 16
1, 67468, Control_c, 0, 67, 13
1, 67483, Control_c, 0, 67, 10
1, 67483, Note_off_c, 0, 61, 60
1, 67497, Control_c, 0, 67, 0
1, 67526, Note_on_c, 0, 59, 56
1, 67557, Note_off_c, 0, 59, 61
1, 67628, Note_on_c, 0, 58, 66
1, 67629, Note_on_c, 0, 66, 52
1, 67671, Note_off_c, 0, 58, 53
1, 67726, Note_on_c, 0, 61, 65
1, 67793, Note_off_c, 0, 66, 64
1, 67794, Note_off_c, 0, 61, 54
1, 67833, Note_on_c, 0, 62, 58
1, 68027, Note_on_c, 0, 68, 63
1, 68146, Note_on_c, 0, 59, 57
1, 68155, Note_off_c, 0, 62, 45
1, 68165, Note_off_c, 0, 68, 64
1, 68243, Note_off_c, 0, 59, 60
1, 68278, Note_on_c, 0, 53, 50
1, 68461, Note_on_c, 0, 70, 75
1, 68568, Note_on_c, 0, 52, 63
1, 68570, Note_off_c, 0, 70, 62
1, 68611, Note_off_c, 0, 53, 41
1, 68614, Note_off_c, 0, 52, 59
1, 68696, Note_on_c, 0, 61, 50
1, 68728, Note_off_c, 0, 61, 60
1, 68755, Note_on_c, 0, 52, 58
1, 68786, Note_off_c, 0, 52, 68
1, 68880, Note_on_c, 0, 71, 61
1, 68892, Note_on_c, 0, 51, 59
1, 68979, Note_off_c, 0, 51, 56
1, 68997, Note_on_c, 0, 54, 48
1, 69021, Note_off_c, 0, 71, 62
1, 69054, Note_off_c, 0, 54, 63
1, 69097, Note_on_c, 0, 55, 48
1, 69326, Note_on_c, 0, 73, 53
1, 69412, Note_off_c, 0, 73, 62
1, 69431, Note_off_c, 0, 55, 46
1, 69440, Note_on_c, 0, 52, 42
1, 69552, Note_off_c, 0, 52, 55
1, 69577, Note_on_c, 0, 46, 38
1, 69781, Note_on_c, 0, 75, 47
1, 69787, Note_off_c, 0, 46, 49
1, 69865, Note_off_c, 0, 75, 64
1, 69880, Note_on_c, 0, 47, 45
1, 69951, Note_off_c, 0, 47, 54
1, 69979, Note_on_c, 0, 54, 49
1, 70028, Note_off_c, 0, 54, 59
1, 70080, Note_on_c, 0, 57, 46
1, 70176, Note_off_c, 0, 57, 55
1, 70183, Note_on_c, 0, 64, 63
1, 70198, Note_on_c, 0, 56, 42
1, 70242, Note_off_c, 0, 64, 59
1, 70279, Note_off_c, 0, 56, 56
1, 70312, Note_on_c, 0, 59, 49
1, 70363, Note_off_c, 0, 59, 59
1, 70413, Note_on_c, 0, 60, 48
1, 70532, Note_off_c, 0, 60, 0
1, 70569, Poly_aftertouch_c, 0, 60, 127
1, 70622, Note_on_c, 0, 66, 58
1, 70690, Note_off_c, 0, 66, 63
1, 70747, Poly_aftertouch_c, 0, 60, 0
1, 70756, Note_on_c, 0, 57, 41
1, 70834, Note_off_c, 0, 57, 59
1, 70867, Note_on_c, 0, 51, 36
1, 71077, Note_on_c, 0, 68, 53
1, 71144, Note_off_c, 0, 68, 54
1, 71196, Control_c, 0, 67, 9
1, 71209, Note_on_c, 0, 50, 35
1, 71211, Control_c, 0, 67, 15
1, 71226, Control_c, 0, 67, 21
1, 71234, Note_off_c, 0, 51, 34
1, 71241, Control_c, 0, 67, 27
1, 71244, Note_off_c, 0, 50, 56
1, 71263, Control_c, 0, 67, 34
1, 71278, Control_c, 0, 67, 39
1, 71293, Control_c, 0, 67, 41
1, 71313, Note_on_c, 0, 59, 43
1, 71360, Note_off_c, 0, 59, 55
1, 71384, Note_on_c, 0, 50, 53
1, 71409, Note_off_c, 0, 50, 63
1, 71470, Control_c, 0, 67, 40
1, 71512, Note_on_c, 0, 69, 55
1, 71519, Note_on_c, 0, 49, 54
1, 71603, Note_off_c, 0, 69, 60
1, 71618, Note_off_c, 0, 49, 57
1, 71642, Note_on_c, 0, 52, 39
1, 71677, Control_c, 0, 67, 40
1, 71692, Note_off_c, 0, 52, 64
1, 71742, Note_on_c, 0, 53, 43
1, 71796, Control_c, 0, 67, 39
1, 71952, Note_on_c, 0, 71, 52
1, 72041, Note_off_c, 0, 71, 57
1, 72086, Control_c, 0, 67, 40
1, 72089, Note_off_c, 0, 53, 51
1, 72104, Note_on_c, 0, 50, 39
1, 72196, Note_off_c, 0, 50, 49
1, 72224, Note_on_c, 0, 44, 39
1, 72264, Control_c, 0, 67, 40
1, 72338, Control_c, 0, 67, 41
1, 72437, Note_on_c, 0, 73, 46
1, 72518, Note_off_c, 0, 44, 42
1, 72536, Note_off_c, 0, 73, 59
1, 72562, Note_on_c, 0, 45, 48
1, 72664, Control_c, 0, 67, 40
1, 72681, Note_on_c, 0, 52, 51
1, 72693, Note_off_c, 0, 45, 56
1, 72739, Control_c, 0, 67, 40
1, 72783, Note_off_c, 0, 52, 63
1, 72816, Note_on_c, 0, 55, 45
1, 72923, Control_c, 0, 67, 39
1, 72953, Control_c, 0, 67, 39
1, 72968, Note_on_c, 0, 74, 45
1, 72970, Note_off_c, 0, 55, 53
1, 72995, Note_on_c, 0, 53, 34
1, 72998, Control_c, 0, 67, 38
1, 73013, Control_c, 0, 67, 38
1, 73057, Control_c, 0, 67, 37
1, 73087, Control_c, 0, 67, 37
1, 73116, Control_c, 0, 67, 36
1, 73131, Control_c, 0, 67, 35
1, 73133, Note_on_c, 0, 72, 54
1, 73150, Note_on_c, 0, 52, 43
1, 73160, Control_c, 0, 67, 34
1, 73162, Note_off_c, 0, 53, 47
1, 73181, Note_off_c, 0, 74, 46
1, 73190, Control_c, 0, 67, 34
1, 73205, Control_c, 0, 67, 33
1, 73234, Control_c, 0, 67, 33
1, 73249, Control_c, 0, 67, 32
1, 73268, Note_on_c, 0, 71, 54
1, 73274, Note_off_c, 0, 52, 59
1, 73279, Control_c, 0, 67, 32
1, 73294, Control_c, 0, 67, 31
1, 73299, Note_off_c, 0, 72, 41
1, 73308, Control_c, 0, 67, 31
1, 73313, Note_on_c, 0, 50, 33
1, 73338, Control_c, 0, 67, 30
1, 73353, Control_c, 0, 67, 30
1, 73370, Note_off_c, 0, 71, 62
1, 73380, Note_on_c, 0, 69, 57
1, 73397, Control_c, 0, 67, 29
1, 73412, Control_c, 0, 67, 29
1, 73427, Control_c, 0, 67, 26
1, 73442, Control_c, 0, 67, 24
1, 73457, Control_c, 0, 67, 22
1, 73472, Control_c, 0, 67, 20
1, 73487, Control_c, 0, 67, 18
1, 73494, Note_off_c, 0, 69, 56
1, 73502, Control_c, 0, 67, 18
1, 73514, Note_on_c, 0, 68, 59
1, 73523, Control_c, 0, 67, 17
1, 73566, Note_off_c, 0, 50, 59
1, 73569, Control_c, 0, 67, 17
1, 73598, Control_c, 0, 67, 16
1, 73618, Note_on_c, 0, 66, 57
1, 73643, Control_c, 0, 67, 16
1, 73672, Control_c, 0, 67, 15
1, 73678, Note_off_c, 0, 68, 38
1, 73704, Note_off_c, 0, 66, 59
1, 73722, Note_on_c, 0, 64, 54
1, 73776, Control_c, 0, 67, 16
1, 73812, Note_off_c, 0, 64, 56
1, 73820, Note_on_c, 0, 63, 59
1, 73897, Note_off_c, 0, 63, 58
1, 73928, Note_on_c, 0, 64, 57
1, 73939, Control_c, 0, 67, 15
1, 74013, Note_off_c, 0, 64, 33
1, 74013, Control_c, 0, 67, 15
1, 74019, Note_on_c, 0, 66, 65
1, 74041, Note_on_c, 0, 50, 46
1, 74057, Control_c, 0, 67, 14
1, 74119, Note_off_c, 0, 66, 61
1, 74128, Note_on_c, 0, 68, 61
1, 74128, Note_off_c, 0, 50, 54
1, 74132, Note_on_c, 0, 52, 53
1, 74208, Note_off_c, 0, 68, 63
1, 74215, Note_off_c, 0, 52, 65
1, 74227, Note_on_c, 0, 69, 53
1, 74229, Note_on_c, 0, 53, 51
1, 74312, Note_off_c, 0, 53, 65
1, 74351, Note_on_c, 0, 52, 54
1, 74353, Note_on_c, 0, 71, 55
1, 74355, Note_off_c, 0, 69, 57
1, 74392, Control_c, 0, 67, 14
1, 74406, Control_c, 0, 67, 13
1, 74443, Note_off_c, 0, 52, 63
1, 74453, Note_off_c, 0, 71, 60
1, 74457, Note_on_c, 0, 72, 60
1, 74463, Note_on_c, 0, 50, 47
1, 74466, Control_c, 0, 67, 12
1, 74480, Control_c, 0, 67, 8
1, 74495, Control_c, 0, 67, 0
1, 74549, Note_off_c, 0, 50, 62
1, 74573, Note_on_c, 0, 48, 56
1, 74579, Note_on_c, 0, 74, 56
1, 74594, Note_off_c, 0, 72, 58
1, 74640, Note_off_c, 0, 48, 60
1, 74679, Note_on_c, 0, 47, 57
1, 74787, Note_off_c, 0, 47, 63
1, 74798, Note_on_c, 0, 45, 60
1, 74867, Note_off_c, 0, 74, 63
1, 74896, Note_off_c, 0, 45, 64
1, 74906, Note_on_c, 0, 44, 58
1, 75016, Note_off_c, 0, 44, 63
1, 75020, Note_on_c, 0, 42, 67
1, 75114, Note_off_c, 0, 42, 63
1, 75119, Note_on_c, 0, 40, 66
1, 75225, Note_on_c, 0, 42, 71
1, 75234, Note_off_c, 0, 40, 60
1, 75317, Note_on_c, 0, 74, 60
1, 75322, Note_on_c, 0, 44, 63
1, 75335, Note_off_c, 0, 42, 61
1, 75430, Note_on_c, 0, 45, 62
1, 75430, Note_off_c, 0, 44, 59
1, 75437, Note_on_c, 0, 72, 64
1, 75481, Note_off_c, 0, 74, 39
1, 75513, Note_off_c, 0, 45, 63
1, 75534, Note_on_c, 0, 47, 53
1, 75537, Note_on_c, 0, 71, 68
1, 75560, Note_off_c, 0, 72, 51
1, 75644, Note_on_c, 0, 48, 58
1, 75645, Note_off_c, 0, 71, 61
1, 75646, Note_off_c, 0, 47, 58
1, 75648, Note_on_c, 0, 69, 65
1, 75733, Note_off_c, 0, 48, 62
1, 75743, Note_on_c, 0, 50, 57
1, 75760, Note_on_c, 0, 71, 66
1, 75768, Note_off_c, 0, 69, 60
1, 75845, Note_off_c, 0, 50, 62
1, 75857, Note_on_c, 0, 72, 70
1, 75857, Note_on_c, 0, 52, 57
1, 75858, Note_off_c, 0, 71, 60
1, 75927, Note_off_c, 0, 72, 62
1, 75958, Note_on_c, 0, 74, 66
1, 75989, Note_off_c, 0, 52, 65
1, 76059, Note_on_c, 0, 76, 76
1, 76144, Note_off_c, 0, 74, 63
1, 76158, Note_on_c, 0, 78, 82
1, 76185, Note_off_c, 0, 76, 58
1, 76260, Note_on_c, 0, 80, 80
1, 76332, Note_off_c, 0, 78, 39
1, 76353, Note_on_c, 0, 81, 80
1, 76372, Note_off_c, 0, 80, 62
1, 76460, Note_on_c, 0, 80, 82
1, 76490, Note_off_c, 0, 81, 57
1, 76554, Note_on_c, 0, 57, 53
1, 76561, Note_on_c, 0, 78, 82
1, 76629, Note_off_c, 0, 80, 59
1, 76644, Note_off_c, 0, 78, 61
1, 76658, Note_off_c, 0, 57, 60
1, 76661, Note_on_c, 0, 76, 77
1, 76672, Note_on_c, 0, 59, 51
1, 76712, Note_off_c, 0, 59, 62
1, 76763, Note_on_c, 0, 60, 47
1, 76764, Note_on_c, 0, 75, 76
1, 76795, Note_off_c, 0, 76, 51
1, 76844, Note_off_c, 0, 75, 61
1, 76877, Note_on_c, 0, 84, 74
1, 76895, Note_on_c, 0, 51, 53
1, 76899, Note_off_c, 0, 60, 52
1, 76997, Note_off_c, 0, 84, 62
1, 76998, Note_on_c, 0, 81, 64
1, 77001, Note_on_c, 0, 54, 61
1, 77020, Note_off_c, 0, 51, 57
1, 77103, Note_on_c, 0, 55, 53
1, 77106, Note_on_c, 0, 83, 58
1, 77119, Note_off_c, 0, 54, 55
1, 77122, Note_off_c, 0, 81, 61
1, 77204, Note_on_c, 0, 57, 68
1, 77206, Note_off_c, 0, 55, 64
1, 77301, Note_off_c, 0, 57, 63
1, 77314, Note_on_c, 0, 59, 64
1, 77325, Note_off_c, 0, 83, 60
1, 77419, Note_on_c, 0, 61, 71
1, 77422, Note_off_c, 0, 59, 64
1, 77514, Note_on_c, 0, 63, 68
1, 77523, Note_off_c, 0, 61, 59
1, 77595, Note_off_c, 0, 63, 63
1, 77614, Note_on_c, 0, 64, 63
1, 77716, Note_off_c, 0, 64, 50
1, 77726, Note_on_c, 0, 63, 61
1, 77815, Note_off_c, 0, 63, 62
1, 77835, Note_on_c, 0, 61, 53
1, 77845, Note_on_c, 0, 69, 43
1, 77898, Note_off_c, 0, 61, 61
1, 77941, Note_on_c, 0, 67, 52
1, 77943, Note_on_c, 0, 59, 51
1, 77985, Note_off_c, 0, 69, 43
1, 78038, Note_off_c, 0, 59, 61
1, 78050, Note_off_c, 0, 67, 57
1, 78053, Note_on_c, 0, 57, 47
1, 78060, Note_on_c, 0, 66, 49
1, 78128, Note_off_c, 0, 57, 60
1, 78148, Note_off_c, 0, 66, 63
1, 78158, Note_on_c, 0, 64, 55
1, 78165, Note_on_c, 0, 55, 33
1, 78226, Note_off_c, 0, 55, 62
1, 78249, Note_on_c, 0, 54, 47
1, 78269, Note_on_c, 0, 66, 63
1, 78278, Note_off_c, 0, 64, 55
1, 78336, Note_off_c, 0, 54, 61
1, 78355, Note_off_c, 0, 66, 63
1, 78360, Note_on_c, 0, 67, 69
1, 78363, Note_on_c, 0, 52, 48
1, 78421, Note_off_c, 0, 67, 61
1, 78447, Note_on_c, 0, 69, 77
1, 78456, Note_off_c, 0, 52, 58
1, 78470, Note_on_c, 0, 54, 56
1, 78554, Note_off_c, 0, 54, 60
1, 78557, Note_on_c, 0, 71, 76
1, 78571, Note_on_c, 0, 55, 46
1, 78575, Note_off_c, 0, 69, 58
1, 78650, Note_off_c, 0, 55, 64
1, 78657, Note_on_c, 0, 73, 82
1, 78659, Note_on_c, 0, 57, 55
1, 78691, Note_off_c, 0, 71, 58
1, 78725, Note_off_c, 0, 57, 62
1, 78759, Note_on_c, 0, 59, 57
1, 78766, Note_on_c, 0, 75, 79
1, 78811, Note_off_c, 0, 73, 53
1, 78858, Note_off_c, 0, 59, 62
1, 78858, Note_on_c, 0, 76, 75
1, 78867, Note_on_c, 0, 61, 58
1, 78884, Note_off_c, 0, 75, 61
1, 78936, Note_off_c, 0, 61, 55
1, 78957, Note_on_c, 0, 63, 54
1, 78963, Note_on_c, 0, 75, 71
1, 78989, Note_off_c, 0, 76, 63
1, 79024, Note_off_c, 0, 63, 62
1, 79053, Note_on_c, 0, 64, 58
1, 79068, Note_on_c, 0, 73, 69
1, 79120, Note_off_c, 0, 75, 51
1, 79153, Note_off_c, 0, 64, 31
1, 79160, Note_on_c, 0, 63, 55
1, 79162, Note_on_c, 0, 71, 66
1, 79220, Note_off_c, 0, 73, 56
1, 79237, Note_off_c, 0, 71, 55
1, 79253, Note_off_c, 0, 63, 62
1, 79255, Note_on_c, 0, 69, 64
1, 79267, Note_on_c, 0, 61, 53
1, 79339, Note_off_c, 0, 61, 60
1, 79366, Note_on_c, 0, 67, 61
1, 79371, Note_off_c, 0, 69, 59
1, 79387, Note_on_c, 0, 59, 46
1, 79453, Note_off_c, 0, 67, 59
1, 79466, Note_on_c, 0, 66, 53
1, 79470, Note_off_c, 0, 59, 61
1, 79499, Note_on_c, 0, 57, 42
1, 79562, Note_off_c, 0, 66, 63
1, 79567, Note_off_c, 0, 57, 58
1, 79597, Note_on_c, 0, 64, 50
1, 79607, Note_on_c, 0, 55, 25
1, 79688, Note_off_c, 0, 55, 60
1, 79708, Note_on_c, 0, 54, 52
1, 79824, Note_off_c, 0, 54, 59
1, 79840, Note_off_c, 0, 64, 57
1, 79856, Note_on_c, 0, 52, 48
1, 79982, Note_off_c, 0, 52, 67
1, 80109, Note_on_c, 0, 72, 54
1, 80339, Note_on_c, 0, 64, 51
1, 80341, Note_off_c, 0, 72, 59
1, 80351, Note_on_c, 0, 71, 48
1, 80382, Note_off_c, 0, 64, 64
1, 80573, Note_on_c, 0, 70, 57
1, 80575, Note_off_c, 0, 71, 58
1, 80606, Note_off_c, 0, 70, 65
1, 80801, Note_on_c, 0, 63, 44
1, 80805, Note_on_c, 0, 70, 53
1, 80845, Note_off_c, 0, 63, 57
1, 80903, Note_off_c, 0, 70, 59
1, 80918, Note_on_c, 0, 71, 45
1, 81041, Note_on_c, 0, 59, 53
1, 81071, Note_off_c, 0, 71, 52
1, 81163, Note_off_c, 0, 59, 59
1, 81280, Note_on_c, 0, 50, 40
1, 81381, Note_off_c, 0, 50, 58
1, 81535, Note_on_c, 0, 70, 46
1, 81769, Note_on_c, 0, 69, 47
1, 81776, Note_on_c, 0, 62, 41
1, 81809, Note_off_c, 0, 70, 34
1, 81818, Note_off_c, 0, 62, 58
1, 81991, Note_off_c, 0, 69, 56
1, 81999, Note_on_c, 0, 68, 48
1, 82030, Note_off_c, 0, 68, 58
1, 82230, Note_on_c, 0, 61, 46
1, 82233, Note_on_c, 0, 68, 50
1, 82272, Note_off_c, 0, 61, 60
1, 82332, Note_on_c, 0, 69, 50
1, 82333, Note_off_c, 0, 68, 52
1, 82449, Note_off_c, 0, 69, 57
1, 82461, Note_on_c, 0, 57, 46
1, 82557, Note_off_c, 0, 57, 59
1, 82697, Note_on_c, 0, 48, 41
1, 82836, Note_on_c, 0, 69, 48
1, 82841, Note_off_c, 0, 48, 58
1, 82950, Note_on_c, 0, 72, 63
1, 82952, Note_off_c, 0, 69, 62
1, 83047, Note_on_c, 0, 76, 72
1, 83064, Note_off_c, 0, 72, 62
1, 83156, Note_on_c, 0, 81, 78
1, 83156, Note_off_c, 0, 76, 59
1, 83169, Note_on_c, 0, 60, 45
1, 83246, Note_off_c, 0, 60, 59
1, 83266, Note_on_c, 0, 79, 75
1, 83292, Note_off_c, 0, 81, 58
1, 83361, Note_on_c, 0, 78, 79
1, 83405, Note_off_c, 0, 79, 56
1, 83444, Note_off_c, 0, 78, 62
1, 83452, Note_on_c, 0, 76, 75
1, 83559, Note_off_c, 0, 76, 51
1, 83562, Note_on_c, 0, 75, 70
1, 83579, Note_on_c, 0, 59, 45
1, 83616, Note_off_c, 0, 75, 64
1, 83660, Note_off_c, 0, 59, 63
1, 83662, Note_on_c, 0, 78, 76
1, 83714, Note_off_c, 0, 78, 52
1, 83768, Note_on_c, 0, 79, 64
1, 84005, Note_on_c, 0, 61, 44
1, 84058, Note_off_c, 0, 79, 36
1, 84093, Note_on_c, 0, 76, 52
1, 84125, Note_off_c, 0, 61, 58
1, 84201, Note_off_c, 0, 76, 54
1, 84219, Note_on_c, 0, 70, 43
1, 84430, Note_off_c, 0, 70, 49
1, 84447, Note_on_c, 0, 63, 37
1, 84533, Note_off_c, 0, 63, 58
1, 84539, Note_on_c, 0, 69, 44
1, 84592, Note_off_c, 0, 69, 56
1, 84641, Note_on_c, 0, 78, 59
1, 84684, Note_off_c, 0, 78, 55
1, 84748, Note_on_c, 0, 69, 38
1, 84804, Note_off_c, 0, 69, 57
1, 84853, Note_on_c, 0, 52, 52
1, 84860, Note_on_c, 0, 67, 46
1, 84933, Note_off_c, 0, 67, 56
1, 84948, Note_on_c, 0, 66, 46
1, 84957, Note_on_c, 0, 54, 54
1, 84962, Note_off_c, 0, 52, 54
1, 85016, Note_off_c, 0, 66, 51
1, 85046, Note_off_c, 0, 54, 60
1, 85050, Note_on_c, 0, 55, 54
1, 85064, Note_on_c, 0, 64, 41
1, 85145, Note_off_c, 0, 55, 64
1, 85148, Note_on_c, 0, 66, 48
1, 85149, Note_on_c, 0, 57, 67
1, 85168, Note_off_c, 0, 64, 42
1, 85223, Note_off_c, 0, 66, 56
1, 85231, Note_off_c, 0, 57, 63
1, 85246, Note_on_c, 0, 59, 66
1, 85249, Note_on_c, 0, 67, 53
1, 85288, Note_off_c, 0, 67, 61
1, 85346, Note_off_c, 0, 59, 63
1, 85347, Note_on_c, 0, 69, 57
1, 85353, Note_on_c, 0, 61, 62
1, 85419, Note_off_c, 0, 61, 56
1, 85443, Note_on_c, 0, 63, 62
1, 85449, Note_off_c, 0, 69, 34
1, 85449, Note_on_c, 0, 71, 57
1, 85516, Note_off_c, 0, 63, 63
1, 85525, Note_off_c, 0, 71, 46
1, 85555, Note_on_c, 0, 64, 59
1, 85559, Note_on_c, 0, 73, 59
1, 85656, Note_off_c, 0, 64, 40
1, 85658, Note_on_c, 0, 63, 56
1, 85667, Note_on_c, 0, 75, 52
1, 85728, Note_off_c, 0, 73, 56
1, 85742, Note_on_c, 0, 76, 61
1, 85744, Note_off_c, 0, 63, 62
1, 85750, Note_off_c, 0, 75, 61
1, 85753, Note_on_c, 0, 61, 61
1, 85817, Note_off_c, 0, 61, 61
1, 85849, Note_off_c, 0, 76, 60
1, 85854, Note_on_c, 0, 59, 61
1, 85856, Note_on_c, 0, 75, 61
1, 85947, Note_on_c, 0, 73, 64
1, 85955, Note_off_c, 0, 59, 56
1, 85960, Note_on_c, 0, 57, 52
1, 85995, Note_off_c, 0, 75, 36
1, 86033, Note_off_c, 0, 57, 59
1, 86044, Note_on_c, 0, 71, 58
1, 86049, Note_on_c, 0, 55, 53
1, 86090, Note_off_c, 0, 73, 37
1, 86093, Note_off_c, 0, 71, 55
1, 86125, Note_off_c, 0, 55, 59
1, 86141, Note_on_c, 0, 69, 55
1, 86148, Note_on_c, 0, 54, 49
1, 86253, Note_off_c, 0, 69, 34
1, 86257, Note_off_c, 0, 54, 59
1, 86258, Note_on_c, 0, 67, 49
1, 86294, Note_on_c, 0, 52, 32
1, 86325, Note_off_c, 0, 67, 61
1, 86347, Note_on_c, 0, 66, 49
1, 86440, Note_off_c, 0, 66, 61
1, 86444, Note_off_c, 0, 52, 61
1, 86485, Note_on_c, 0, 64, 40
1, 86555, Note_off_c, 0, 64, 0
1, 86555, Note_on_c, 0, 64, 8
1, 86683, Note_off_c, 0, 64, 55
1, 86717, Note_on_c, 0, 60, 45
1, 86923, Note_on_c, 0, 76, 61
1, 86930, Note_off_c, 0, 60, 57
1, 86943, Note_on_c, 0, 59, 44
1, 87140, Note_off_c, 0, 59, 61
1, 87148, Note_on_c, 0, 58, 53
1, 87152, Note_off_c, 0, 76, 64
1, 87173, Note_off_c, 0, 58, 63
1, 87369, Note_on_c, 0, 75, 57
1, 87372, Note_on_c, 0, 58, 48
1, 87450, Note_off_c, 0, 58, 61
1, 87482, Note_on_c, 0, 59, 38
1, 87568, Note_off_c, 0, 75, 60
1, 87587, Note_off_c, 0, 59, 38
1, 87600, Note_on_c, 0, 47, 50
1, 87637, Note_off_c, 0, 47, 64
1, 87865, Note_on_c, 0, 62, 48
1, 88086, Note_on_c, 0, 58, 47
1, 88086, Note_off_c, 0, 62, 56
1, 88316, Note_off_c, 0, 58, 54
1, 88323, Note_on_c, 0, 74, 41
1, 88341, Note_on_c, 0, 57, 39
1, 88557, Note_off_c, 0, 57, 60
1, 88576, Note_on_c, 0, 56, 33
1, 88576, Note_off_c, 0, 74, 60
1, 88604, Note_off_c, 0, 56, 48
1, 88800, Note_on_c, 0, 73, 42
1, 88806, Note_on_c, 0, 56, 40
1, 88826, Control_c, 0, 67, 9
1, 88841, Control_c, 0, 67, 14
1, 88855, Control_c, 0, 67, 16
1, 88870, Control_c, 0, 67, 17
1, 88883, Note_off_c, 0, 56, 62
1, 88885, Control_c, 0, 67, 18
1, 88900, Control_c, 0, 67, 19
1, 88912, Note_on_c, 0, 57, 38
1, 88914, Control_c, 0, 67, 20
1, 88929, Control_c, 0, 67, 20
1, 88944, Control_c, 0, 67, 21
1, 89004, Note_off_c, 0, 57, 38
1, 89018, Control_c, 0, 67, 20
1, 89043, Note_on_c, 0, 45, 45
1, 89048, Control_c, 0, 67, 20
1, 89104, Note_off_c, 0, 45, 52
1, 89136, Control_c, 0, 67, 19
1, 89151, Control_c, 0, 67, 19
1, 89174, Note_off_c, 0, 73, 28
1, 89277, Control_c, 0, 67, 18
1, 89285, Note_on_c, 0, 60, 46
1, 89306, Control_c, 0, 67, 17
1, 89321, Control_c, 0, 67, 16
1, 89336, Control_c, 0, 67, 16
1, 89351, Control_c, 0, 67, 15
1, 89366, Control_c, 0, 67, 15
1, 89381, Control_c, 0, 67, 14
1, 89385, Note_on_c, 0, 45, 55
1, 89396, Control_c, 0, 67, 13
1, 89455, Control_c, 0, 67, 13
1, 89468, Note_off_c, 0, 60, 33
1, 89485, Control_c, 0, 67, 12
1, 89489, Note_on_c, 0, 48, 62
1, 89491, Note_off_c, 0, 45, 59
1, 89515, Control_c, 0, 67, 11
1, 89530, Control_c, 0, 67, 11
1, 89560, Control_c, 0, 67, 10
1, 89584, Note_on_c, 0, 52, 71
1, 89604, Control_c, 0, 67, 10
1, 89607, Note_off_c, 0, 48, 51
1, 89663, Control_c, 0, 67, 9
1, 89674, Note_off_c, 0, 52, 65
1, 89678, Control_c, 0, 67, 9
1, 89704, Note_on_c, 0, 57, 61
1, 89706, Note_on_c, 0, 72, 55
1, 89753, Control_c, 0, 67, 0
1, 89810, Note_off_c, 0, 57, 61
1, 89815, Note_on_c, 0, 55, 59
1, 89843, Note_off_c, 0, 72, 63
1, 89906, Note_off_c, 0, 55, 63
1, 89919, Note_on_c, 0, 54, 58
1, 89990, Note_off_c, 0, 54, 60
1, 90019, Note_on_c, 0, 52, 59
1, 90078, Note_off_c, 0, 52, 48
1, 90132, Note_on_c, 0, 71, 51
1, 90132, Note_on_c, 0, 51, 59
1, 90209, Note_off_c, 0, 51, 37
1, 90237, Note_on_c, 0, 54, 57
1, 90241, Note_off_c, 0, 71, 62
1, 90316, Note_off_c, 0, 54, 58
1, 90353, Note_on_c, 0, 55, 46
1, 90637, Poly_aftertouch_c, 0, 74, 127
1, 90691, Poly_aftertouch_c, 0, 74, 0
1, 90696, Note_on_c, 0, 52, 55
1, 90704, Note_off_c, 0, 55, 50
1, 90801, Note_off_c, 0, 52, 61
1, 90815, Note_on_c, 0, 46, 49
1, 91010, Note_on_c, 0, 75, 69
1, 91149, Note_on_c, 0, 45, 56
1, 91195, Note_off_c, 0, 45, 60
1, 91204, Note_off_c, 0, 46, 36
1, 91265, Note_on_c, 0, 54, 44
1, 91320, Note_off_c, 0, 54, 54
1, 91378, Note_on_c, 0, 45, 32
1, 91414, Note_off_c, 0, 45, 45
1, 91552, Note_on_c, 0, 44, 29
1, 91670, Note_on_c, 0, 70, 49
1, 91756, Note_off_c, 0, 75, 28
1, 91781, Note_off_c, 0, 70, 62
1, 91797, Note_on_c, 0, 71, 60
1, 91831, Note_off_c, 0, 44, 52
1, 92049, Note_on_c, 0, 43, 41
1, 92060, Note_off_c, 0, 71, 56
1, 92170, Note_on_c, 0, 75, 61
1, 92269, Note_off_c, 0, 43, 56
1, 92317, Note_off_c, 0, 75, 64
1, 92317, Note_on_c, 0, 76, 68
1, 92567, Note_on_c, 0, 42, 50
1, 92639, Note_off_c, 0, 76, 55
1, 92723, Note_on_c, 0, 75, 64
1, 92798, Note_off_c, 0, 42, 62
1, 92907, Note_on_c, 0, 81, 69
1, 92909, Note_off_c, 0, 75, 61
1, 93196, Note_on_c, 0, 40, 44
1, 93333, Note_off_c, 0, 40, 55
1, 93388, Note_on_c, 0, 79, 65
1, 93412, Note_off_c, 0, 81, 51
1, 93557, Note_on_c, 0, 78, 76
1, 93579, Note_on_c, 0, 48, 48
1, 93605, Note_off_c, 0, 79, 52
1, 93641, Note_off_c, 0, 48, 53
1, 93740, Note_on_c, 0, 76, 67
1, 93759, Note_off_c, 0, 78, 61
1, 93955, Note_on_c, 0, 78, 61
1, 93956, Note_off_c, 0, 76, 63
1, 93990, Note_on_c, 0, 45, 37
1, 94827, Note_off_c, 0, 78, 58
1, 94842, Note_on_c, 0, 76, 56
1, 94872, Note_on_c, 0, 47, 33
1, 94895, Note_off_c, 0, 45, 41
1, 94994, Note_off_c, 0, 76, 58
1, 95009, Note_on_c, 0, 75, 50
1, 95121, Note_off_c, 0, 75, 60
1, 95128, Note_on_c, 0, 73, 45
1, 95262, Note_on_c, 0, 75, 55
1, 95296, Note_off_c, 0, 73, 44
1, 95381, Note_off_c, 0, 75, 60
1, 95398, Note_on_c, 0, 76, 48
1, 95569, Note_off_c, 0, 76, 58
1, 95585, Note_on_c, 0, 75, 43
1, 95846, Control_c, 0, 67, 8
1, 95861, Control_c, 0, 67, 13
1, 95875, Control_c, 0, 67, 16
1, 95891, Control_c, 0, 67, 17
1, 95906, Control_c, 0, 67, 18
1, 95936, Control_c, 0, 67, 18
1, 95951, Control_c, 0, 67, 19
1, 95987, Control_c, 0, 67, 20
1, 96002, Control_c, 0, 67, 21
1, 96017, Control_c, 0, 67, 24
1, 96031, Control_c, 0, 67, 27
1, 96046, Control_c, 0, 67, 29
1, 96061, Control_c, 0, 67, 31
1, 96076, Control_c, 0, 67, 32
1, 96091, Control_c, 0, 67, 33
1, 96106, Control_c, 0, 67, 34
1, 96121, Control_c, 0, 67, 35
1, 96136, Control_c, 0, 67, 36
1, 96151, Control_c, 0, 67, 37
1, 96165, Control_c, 0, 67, 37
1, 96180, Control_c, 0, 67, 38
1, 96195, Control_c, 0, 67, 40
1, 96210, Control_c, 0, 67, 43
1, 96224, Control_c, 0, 67, 49
1, 96239, Control_c, 0, 67, 53
1, 96254, Control_c, 0, 67, 57
1, 96269, Control_c, 0, 67, 60
1, 96284, Control_c, 0, 67, 62
1, 96298, Control_c, 0, 67, 66
1, 96313, Control_c, 0, 67, 70
1, 96328, Control_c, 0, 67, 76
1, 96343, Control_c, 0, 67, 81
1, 96358, Control_c, 0, 67, 87
1, 96372, Control_c, 0, 67, 93
1, 96387, Control_c, 0, 67, 99
1, 96402, Control_c, 0, 67, 106
1, 96416, Control_c, 0, 67, 116
1, 96431, Control_c, 0, 67, 126
1, 96446, Control_c, 0, 67, 127
1, 96576, Note_off_c, 0, 47, 42
1, 96989, Note_on_c, 0, 76, 38
1, 97012, Note_on_c, 0, 40, 25
1, 97028, Note_off_c, 0, 75, 35
1, 100335, Note_off_c, 0, 40, 44
1, 100360, Note_off_c, 0, 76, 50
1, 100435, End_track
0, 0, End_of_file
